500 0 5 0           
7 Unknown 11 ACIS 5.0 NT 24 Thu Mar 25 22:34:09 1999 
-1 9.9999999999999995e-007 1e-010 
body $-1 $5 $-1 $6 #
body $-1 $7 $-1 $8 #
body $-1 $9 $-1 $10 #
body $-1 $11 $-1 $12 #
body $-1 $13 $-1 $14 #
lump $-1 $-1 $15 $0 #
transform $-1 1 0 0 0 1 0 0 0 1 41.311075167088838 24.034101969443789 8.2406302748650777 1 rotate no_reflect no_shear #
lump $-1 $-1 $16 $1 #
transform $-1 1 0 0 0 1 0 0 0 1 41.311075167088838 24.034101969443789 8.2406302748650777 1 rotate no_reflect no_shear #
lump $-1 $-1 $17 $2 #
transform $-1 1 0 0 0 1 0 0 0 1 41.311075167088838 24.034101969443789 8.2406302748650777 1 rotate no_reflect no_shear #
lump $-1 $-1 $18 $3 #
transform $-1 1 0 0 0 1 0 0 0 1 41.311075167088838 24.034101969443789 8.2406302748650777 1 rotate no_reflect no_shear #
lump $-1 $-1 $19 $4 #
transform $-1 1 0 0 0 1 0 0 0 1 41.311075167088838 24.034101969443789 8.2406302748650777 1 rotate no_reflect no_shear #
shell $-1 $-1 $-1 $20 $-1 $5 #
shell $-1 $-1 $-1 $21 $-1 $7 #
shell $-1 $-1 $-1 $22 $-1 $9 #
shell $-1 $-1 $-1 $23 $-1 $11 #
shell $-1 $-1 $-1 $24 $-1 $13 #
face $-1 $25 $26 $15 $-1 $27 forward single #
face $-1 $28 $29 $16 $-1 $30 forward single #
face $-1 $31 $32 $17 $-1 $33 forward single #
face $-1 $34 $35 $18 $-1 $36 reversed single #
face $-1 $37 $38 $19 $-1 $39 reversed single #
face $-1 $40 $41 $15 $-1 $42 reversed single #
loop $-1 $-1 $43 $20 #
plane-surface $-1 0 0 8.2406302748650777 0 0 1 1 0 0 forward_v I I I I #
face $-1 $44 $45 $16 $-1 $46 forward single #
loop $-1 $-1 $47 $21 #
plane-surface $-1 -36.770069654852719 -15.869725177279562 0 0 1 0 0 0 1 forward_v I I I I #
face $-1 $48 $49 $17 $-1 $50 forward single #
loop $-1 $-1 $51 $22 #
plane-surface $-1 55.550944702128497 15.6688587455888 120.29989292495256 0 1 0 0.78801076186113728 0 0.61566146476048833 forward_v I I I I #
face $-1 $52 $53 $18 $-1 $54 reversed single #
loop $-1 $55 $56 $23 #
cone-surface $-1 39.04646069298537 18.058928238118796 5.708661464023395 -0.78801076186113728 0 -0.61566146476048833 0.61566146476048833 0 -0.78801076186113728 1 I I 0 1 1 forward I I I I #
face $-1 $57 $58 $19 $-1 $59 reversed single #
loop $-1 $60 $61 $24 #
cone-surface $-1 39.04646069298537 21.644032476913793 5.708661464023395 -0.78801076186113728 0 -0.61566146476048833 0.61566146476048833 0 -0.78801076186113728 1 I I 0 1 1 forward I I I I #
face $-1 $62 $63 $15 $-1 $64 reversed single #
loop $-1 $-1 $65 $25 #
plane-surface $-1 0 0 -8.2406302748650777 0 0 1 1 0 0 forward_v I I I I #
coedge $-1 $66 $67 $68 $69 forward $26 $-1 #
face $-1 $70 $71 $16 $-1 $72 forward single #
loop $-1 $-1 $73 $28 #
plane-surface $-1 -36.770069654852719 -12.869725177279562 0 0 -1 0 0 0 -1 forward_v I I I I #
coedge $-1 $74 $75 $76 $77 reversed $29 $-1 #
face $-1 $78 $79 $17 $-1 $80 reversed single #
loop $-1 $-1 $81 $31 #
plane-surface $-1 -9.5561989293122664 19.851480357516294 69.432618828551455 0.78801076186113728 0 0.61566146476048833 0.61566146476048833 0 -0.78801076186113728 forward_v I I I I #
coedge $-1 $82 $83 $84 $85 reversed $32 $-1 #
face $-1 $86 $87 $18 $-1 $88 forward single #
loop $-1 $89 $90 $34 #
cone-surface $-1 37.91726798958171 18.058928238118796 4.8264394596786584 -0.78801076186113728 0 -0.61566146476048833 0.30783073238024417 0 -0.39400538093056864 1 I I -0.70710678118654746 0.70710678118654746 0.5 forward I I I I #
loop $-1 $-1 $91 $23 #
coedge $-1 $56 $56 $92 $93 reversed $35 $-1 #
face $-1 $94 $95 $19 $-1 $96 reversed single #
loop $-1 $97 $98 $37 #
cone-surface $-1 37.91726798958171 21.644032476913793 4.8264394596786584 -0.78801076186113728 0 -0.61566146476048833 0.30783073238024417 0 -0.39400538093056864 1 I I -0.70710678118654746 0.70710678118654746 0.5 forward I I I I #
loop $-1 $-1 $99 $24 #
coedge $-1 $61 $61 $100 $101 reversed $38 $-1 #
face $-1 $102 $103 $15 $-1 $104 reversed single #
loop $-1 $-1 $105 $40 #
plane-surface $-1 0 -24.034101969443789 0 0 1 0 0 0 1 forward_v I I I I #
coedge $-1 $106 $107 $108 $109 forward $41 $-1 #
coedge $-1 $110 $43 $111 $112 forward $26 $-1 #
coedge $-1 $43 $110 $113 $114 forward $26 $-1 #
coedge $-1 $115 $116 $43 $69 reversed $117 $-1 #
edge $-1 $118 -24.034101969443789 $119 24.034101969443789 $68 $120 forward 7 unknown #
face $-1 $121 $122 $16 $-1 $123 forward single #
loop $-1 $-1 $124 $44 #
plane-surface $-1 -32.2290641426166 -14.369725177279562 0 -1 0 0 0 0 1 forward_v I I I I #
coedge $-1 $125 $126 $127 $128 reversed $45 $-1 #
coedge $-1 $129 $47 $130 $131 reversed $29 $-1 #
coedge $-1 $47 $129 $132 $133 reversed $29 $-1 #
coedge $-1 $134 $135 $47 $77 forward $136 $-1 #
edge $-1 $137 -8.2406302748650777 $138 8.2406302748650777 $76 $139 forward 7 unknown #
face $-1 $140 $141 $17 $-1 $142 forward single #
loop $-1 $-1 $143 $48 #
plane-surface $-1 41.311075167088838 0 0 -1 0 0 0 0 1 forward_v I I I I #
coedge $-1 $144 $145 $143 $146 reversed $49 $-1 #
coedge $-1 $83 $51 $145 $147 forward $32 $-1 #
coedge $-1 $51 $82 $148 $149 reversed $32 $-1 #
coedge $-1 $150 $143 $51 $85 forward $79 $-1 #
edge $-1 $151 -55.824471265365602 $152 -51.909316187611203 $84 $153 forward 7 unknown #
face $-1 $154 $155 $18 $-1 $156 forward single #
loop $-1 $-1 $157 $52 #
plane-surface $-1 55.550944702128497 15.6688587455888 120.29989292495256 0 1 0 0.78801076186113728 0 0.61566146476048833 forward_v I I I I #
loop $-1 $-1 $158 $34 #
coedge $-1 $90 $90 $91 $159 forward $53 $-1 #
coedge $-1 $91 $91 $90 $159 reversed $55 $-1 #
coedge $-1 $92 $92 $56 $93 forward $155 $-1 #
edge $-1 $160 0 $160 6.2831853071796004 $92 $161 forward 7 unknown #
face $-1 $162 $163 $19 $-1 $164 reversed single #
loop $-1 $165 $166 $57 #
cone-surface $-1 39.04646069298537 18.058928238118796 5.708661464023395 -0.78801076186113728 0 -0.61566146476048833 0.61566146476048833 0 -0.78801076186113728 1 I I 0 1 1 forward I I I I #
loop $-1 $-1 $167 $37 #
coedge $-1 $98 $98 $99 $168 forward $58 $-1 #
coedge $-1 $99 $99 $98 $168 reversed $60 $-1 #
coedge $-1 $100 $100 $61 $101 forward $169 $-1 #
edge $-1 $170 0 $170 6.2831853071796004 $100 $171 forward 7 unknown #
face $-1 $172 $173 $15 $-1 $174 reversed single #
loop $-1 $-1 $175 $62 #
plane-surface $-1 -41.311075167088838 0 0 1 0 0 0 0 -1 forward_v I I I I #
coedge $-1 $176 $113 $177 $178 forward $63 $-1 #
coedge $-1 $179 $65 $176 $180 forward $41 $-1 #
coedge $-1 $65 $179 $181 $182 forward $41 $-1 #
coedge $-1 $116 $115 $65 $109 reversed $117 $-1 #
edge $-1 $183 -24.034101969443789 $184 24.034101969443789 $108 $185 forward 7 unknown #
coedge $-1 $67 $66 $186 $187 forward $26 $-1 #
coedge $-1 $188 $189 $66 $112 reversed $173 $-1 #
edge $-1 $119 -41.311075167088838 $190 41.311075167088838 $111 $191 forward 7 unknown #
coedge $-1 $105 $192 $67 $114 reversed $63 $-1 #
edge $-1 $193 -41.311075167088838 $118 41.311075167088838 $113 $194 forward 7 unknown #
coedge $-1 $108 $68 $192 $195 forward $117 $-1 #
coedge $-1 $68 $108 $188 $196 reversed $117 $-1 #
loop $-1 $-1 $115 $172 #
vertex $-1 $69 $197 #
vertex $-1 $69 $198 #
straight-curve $-1 41.311075167088838 0 8.2406302748650777 0 1 0 I I #
face $-1 $199 $136 $16 $-1 $200 reversed single #
loop $-1 $-1 $201 $70 #
plane-surface $-1 0 0 8.2406302748650777 0 0 1 1 0 0 forward_v I I I I #
coedge $-1 $202 $203 $129 $204 reversed $71 $-1 #
coedge $-1 $205 $73 $201 $206 reversed $45 $-1 #
coedge $-1 $73 $205 $207 $208 reversed $45 $-1 #
coedge $-1 $203 $202 $73 $128 forward $71 $-1 #
edge $-1 $209 -8.2406302748650777 $210 8.2406302748650777 $127 $211 forward 7 unknown #
coedge $-1 $75 $74 $124 $204 forward $29 $-1 #
coedge $-1 $212 $213 $74 $131 forward $122 $-1 #
edge $-1 $214 13.844029315190241 $137 22.926040339662478 $130 $215 forward 7 unknown #
coedge $-1 $216 $217 $75 $133 forward $218 $-1 #
edge $-1 $138 -22.926040339662478 $219 -13.844029315190241 $132 $220 forward 7 unknown #
coedge $-1 $221 $76 $217 $222 reversed $136 $-1 #
coedge $-1 $76 $221 $212 $223 reversed $136 $-1 #
loop $-1 $-1 $76 $121 #
vertex $-1 $223 $224 #
vertex $-1 $77 $225 #
straight-curve $-1 -41.311075167088838 -15.869725177279562 0 0 0 -1 I I #
face $-1 $226 $227 $17 $-1 $228 forward single #
loop $-1 $-1 $148 $78 #
plane-surface $-1 0 0 8.2406302748650777 0 0 1 1 0 0 forward_v I I I I #
coedge $-1 $84 $229 $81 $146 forward $79 $-1 #
coedge $-1 $230 $81 $231 $232 reversed $49 $-1 #
coedge $-1 $81 $230 $82 $147 reversed $49 $-1 #
edge $-1 $233 -14.108361790685642 $151 -5.7431185668306526 $143 $234 forward 7 unknown #
edge $-1 $151 -82.62215033417769 $235 -77.6537472777175 $82 $236 forward 7 unknown #
coedge $-1 $237 $238 $83 $149 forward $141 $-1 #
edge $-1 $152 -13.535602816024589 $235 -10.476748512763823 $148 $239 forward 7 unknown #
coedge $-1 $240 $84 $238 $241 reversed $79 $-1 #
vertex $-1 $146 $242 #
vertex $-1 $149 $243 #
straight-curve $-1 41.311075167088838 15.6688587455888 60.149946462476279 0 0 1 I I #
face $-1 $244 $245 $18 $-1 $246 reversed single #
loop $-1 $247 $92 $86 #
plane-surface $-1 -9.5561989293122664 19.851480357516294 69.432618828551455 0.78801076186113728 0 0.61566146476048833 0.61566146476048833 0 -0.78801076186113728 forward_v I I I I #
coedge $-1 $248 $249 $250 $251 reversed $87 $-1 #
coedge $-1 $158 $158 $-1 $252 forward $89 $-1 #
edge $-1 $253 0 $253 6.2831853071796004 $90 $254 forward 7 unknown #
vertex $-1 $93 $255 #
ellipse-curve $-1 39.781648015458458 18.058928238118796 6.2830527359878792 -0.78801076186113728 0 -0.61566146476048833 0.61566146476048833 0 -0.78801076186113728 1 I I #
face $-1 $256 $257 $19 $-1 $258 forward single #
loop $-1 $259 $260 $94 #
cone-surface $-1 37.91726798958171 18.058928238118796 4.8264394596786584 -0.78801076186113728 0 -0.61566146476048833 0.30783073238024417 0 -0.39400538093056864 1 I I -0.70710678118654746 0.70710678118654746 0.5 forward I I I I #
loop $-1 $-1 $261 $57 #
coedge $-1 $166 $166 $262 $263 reversed $95 $-1 #
coedge $-1 $167 $167 $-1 $264 forward $97 $-1 #
edge $-1 $265 0 $265 6.2831853071796004 $98 $266 forward 7 unknown #
loop $-1 $267 $100 $256 #
vertex $-1 $101 $268 #
ellipse-curve $-1 39.781648015458458 21.644032476913793 6.2830527359878792 -0.78801076186113728 0 -0.61566146476048833 0.61566146476048833 0 -0.78801076186113728 1 I I #
face $-1 $-1 $117 $15 $-1 $269 reversed single #
loop $-1 $-1 $188 $102 #
plane-surface $-1 0 24.034101969443789 0 0 -1 0 0 0 -1 forward_v I I I I #
coedge $-1 $270 $186 $189 $271 forward $103 $-1 #
coedge $-1 $192 $105 $106 $180 reversed $63 $-1 #
coedge $-1 $186 $270 $105 $178 reversed $103 $-1 #
edge $-1 $193 -8.2406302748650777 $272 8.2406302748650777 $177 $273 forward 7 unknown #
coedge $-1 $107 $106 $270 $274 forward $41 $-1 #
edge $-1 $184 -41.311075167088838 $272 41.311075167088838 $176 $275 forward 7 unknown #
coedge $-1 $189 $188 $107 $182 reversed $173 $-1 #
edge $-1 $276 -41.311075167088838 $183 41.311075167088838 $181 $277 forward 7 unknown #
vertex $-1 $109 $278 #
vertex $-1 $195 $279 #
straight-curve $-1 41.311075167088838 0 -8.2406302748650777 0 -1 0 I I #
coedge $-1 $175 $177 $110 $187 reversed $103 $-1 #
edge $-1 $190 -24.034101969443789 $193 24.034101969443789 $186 $280 forward 7 unknown #
coedge $-1 $181 $111 $116 $196 forward $173 $-1 #
coedge $-1 $111 $181 $175 $271 reversed $173 $-1 #
vertex $-1 $112 $281 #
straight-curve $-1 0 24.034101969443789 8.2406302748650777 -1 0 0 I I #
coedge $-1 $113 $176 $115 $195 reversed $63 $-1 #
vertex $-1 $187 $282 #
straight-curve $-1 0 -24.034101969443789 8.2406302748650777 1 0 0 I I #
edge $-1 $118 -8.2406302748650777 $184 8.2406302748650777 $115 $283 forward 7 unknown #
edge $-1 $119 -8.2406302748650777 $183 8.2406302748650777 $116 $284 forward 7 unknown #
point $-1 41.311075167088838 -24.034101969443789 8.2406302748650777 #
point $-1 41.311075167088838 24.034101969443789 8.2406302748650777 #
face $-1 $285 $218 $16 $-1 $286 reversed single #
plane-surface $-1 -41.311075167088838 0 0 1 0 0 0 0 -1 forward_v I I I I #
coedge $-1 $213 $287 $125 $206 forward $122 $-1 #
coedge $-1 $127 $124 $213 $288 reversed $71 $-1 #
coedge $-1 $124 $127 $216 $289 reversed $71 $-1 #
edge $-1 $214 -8.2406302748650777 $219 8.2406302748650777 $124 $290 forward 7 unknown #
coedge $-1 $126 $125 $291 $292 reversed $45 $-1 #
edge $-1 $293 -22.926040339662478 $209 -13.844029315190241 $201 $294 forward 7 unknown #
coedge $-1 $295 $216 $126 $208 forward $218 $-1 #
edge $-1 $210 13.844029315190241 $296 22.926040339662478 $207 $297 forward 7 unknown #
vertex $-1 $206 $298 #
vertex $-1 $208 $299 #
straight-curve $-1 -32.2290641426166 -12.869725177279562 0 0 0 -1 I I #
coedge $-1 $300 $130 $135 $223 forward $122 $-1 #
coedge $-1 $130 $201 $202 $288 forward $122 $-1 #
vertex $-1 $131 $301 #
straight-curve $-1 -18.38503482742636 -15.869725177279562 8.2406302748650777 -1 0 0 I I #
coedge $-1 $207 $132 $203 $289 forward $218 $-1 #
coedge $-1 $132 $302 $134 $222 forward $218 $-1 #
loop $-1 $-1 $207 $199 #
vertex $-1 $133 $303 #
straight-curve $-1 -18.38503482742636 -15.869725177279562 -8.2406302748650777 1 0 0 I I #
coedge $-1 $135 $134 $304 $305 reversed $136 $-1 #
edge $-1 $306 -24.034101969443789 $138 -15.869725177279562 $134 $307 forward 7 unknown #
edge $-1 $137 15.869725177279562 $308 24.034101969443789 $135 $309 forward 7 unknown #
point $-1 -41.311075167088838 -15.869725177279562 8.2406302748650777 #
point $-1 -41.311075167088838 -15.869725177279562 -8.2406302748650777 #
face $-1 $310 $311 $17 $-1 $312 forward single #
loop $-1 $-1 $313 $140 #
plane-surface $-1 -36.770069654852719 -15.869725177279562 0 0 1 0 0 0 1 forward_v I I I I #
coedge $-1 $143 $314 $315 $316 reversed $79 $-1 #
coedge $-1 $145 $144 $237 $317 reversed $49 $-1 #
coedge $-1 $315 $318 $144 $232 forward $319 $-1 #
edge $-1 $320 47.355230131985607 $233 52.323633188445797 $231 $321 forward 7 unknown #
vertex $-1 $316 $322 #
straight-curve $-1 41.311075167088845 9.9257401787581472 4.3254751971106771 0 -1 0 I I #
vertex $-1 $317 $323 #
straight-curve $-1 -9.5561989293122664 15.6688587455888 69.432618828551455 -0.61566146476048833 0 0.78801076186113728 I I #
coedge $-1 $324 $148 $230 $317 forward $141 $-1 #
coedge $-1 $148 $325 $150 $241 forward $141 $-1 #
straight-curve $-1 27.775472351064248 15.6688587455888 8.2406302748650759 -1 0 0 I I #
coedge $-1 $314 $150 $326 $327 forward $79 $-1 #
edge $-1 $328 -24.034101969443789 $152 15.6688587455888 $150 $329 forward 7 unknown #
point $-1 41.311075167088838 15.6688587455888 4.3254751971106771 #
point $-1 41.311075167088838 15.6688587455888 8.2406302748650777 #
face $-1 $330 $331 $18 $-1 $332 forward single #
loop $-1 $-1 $333 $154 #
plane-surface $-1 41.311075167088838 0 0 -1 0 0 0 0 1 forward_v I I I I #
loop $-1 $-1 $334 $86 #
coedge $-1 $249 $157 $335 $336 forward $87 $-1 #
coedge $-1 $157 $248 $337 $338 reversed $87 $-1 #
coedge $-1 $339 $333 $157 $251 forward $245 $-1 #
edge $-1 $340 -55.824471265365602 $341 -51.909316187611203 $250 $342 forward 7 unknown #
edge $-1 $343 1 $343 0 $158 $-1 forward 7 unknown #
vertex $-1 $159 $344 #
ellipse-curve $-1 38.311273370512275 18.058928238118796 5.1342701920589029 0.78801076186113728 0 0.61566146476048833 0.61566146476048833 0 -0.78801076186113728 1 I I #
point $-1 40.397309480218958 18.058928238118796 5.4950419741267496 #
face $-1 $345 $169 $19 $-1 $346 forward single #
loop $-1 $-1 $347 $162 #
plane-surface $-1 55.550944702128497 15.6688587455888 120.29989292495256 0 1 0 0.78801076186113728 0 0.61566146476048833 forward_v I I I I #
loop $-1 $-1 $348 $94 #
coedge $-1 $260 $260 $261 $349 forward $163 $-1 #
coedge $-1 $261 $261 $260 $349 reversed $165 $-1 #
coedge $-1 $262 $262 $166 $263 forward $267 $-1 #
edge $-1 $350 0 $350 6.2831853071796004 $262 $351 forward 7 unknown #
edge $-1 $352 1 $352 0 $167 $-1 forward 7 unknown #
vertex $-1 $168 $353 #
ellipse-curve $-1 38.311273370512275 21.644032476913793 5.1342701920589029 0.78801076186113728 0 0.61566146476048833 0.61566146476048833 0 -0.78801076186113728 1 I I #
loop $-1 $354 $262 $256 #
point $-1 40.397309480218958 21.644032476913793 5.4950419741267496 #
plane-surface $-1 41.311075167088838 0 0 -1 0 0 0 0 1 forward_v I I I I #
coedge $-1 $177 $175 $179 $274 reversed $103 $-1 #
edge $-1 $190 -8.2406302748650777 $276 8.2406302748650777 $189 $355 forward 7 unknown #
vertex $-1 $274 $356 #
straight-curve $-1 -41.311075167088838 -24.034101969443789 0 0 0 -1 I I #
edge $-1 $272 -24.034101969443789 $276 24.034101969443789 $270 $357 forward 7 unknown #
straight-curve $-1 0 -24.034101969443789 -8.2406302748650777 -1 0 0 I I #
vertex $-1 $182 $358 #
straight-curve $-1 0 24.034101969443789 -8.2406302748650777 1 0 0 I I #
point $-1 41.311075167088838 24.034101969443789 -8.2406302748650777 #
point $-1 41.311075167088838 -24.034101969443789 -8.2406302748650777 #
straight-curve $-1 -41.311075167088838 0 8.2406302748650777 0 -1 0 I I #
point $-1 -41.311075167088838 24.034101969443789 8.2406302748650777 #
point $-1 -41.311075167088838 -24.034101969443789 8.2406302748650777 #
straight-curve $-1 41.311075167088838 -24.034101969443789 0 0 0 -1 I I #
straight-curve $-1 41.311075167088838 24.034101969443789 0 0 0 -1 I I #
face $-1 $359 $360 $16 $-1 $361 reversed single #
plane-surface $-1 0 0 -8.2406302748650777 0 0 1 1 0 0 forward_v I I I I #
coedge $-1 $201 $362 $363 $364 forward $122 $-1 #
edge $-1 $209 5.6848625886397812 $214 8.6848625886397812 $213 $365 forward 7 unknown #
edge $-1 $219 -8.6848625886397812 $210 -5.6848625886397812 $216 $366 forward 7 unknown #
straight-curve $-1 -32.2290641426166 -15.869725177279562 0 0 0 -1 I I #
coedge $-1 $363 $367 $205 $292 forward $368 $-1 #
edge $-1 $296 -8.2406302748650777 $293 8.2406302748650777 $291 $369 forward 7 unknown #
vertex $-1 $292 $370 #
straight-curve $-1 -18.38503482742636 -12.869725177279562 8.2406302748650777 1 0 0 I I #
coedge $-1 $371 $207 $367 $372 forward $218 $-1 #
vertex $-1 $372 $373 #
straight-curve $-1 -18.38503482742636 -12.869725177279562 -8.2406302748650777 -1 0 0 I I #
point $-1 -32.2290641426166 -12.869725177279562 8.2406302748650777 #
point $-1 -32.2290641426166 -12.869725177279562 -8.2406302748650777 #
coedge $-1 $374 $212 $375 $376 forward $122 $-1 #
point $-1 -32.2290641426166 -15.869725177279562 8.2406302748650777 #
coedge $-1 $217 $377 $378 $379 forward $218 $-1 #
point $-1 -32.2290641426166 -15.869725177279562 -8.2406302748650777 #
coedge $-1 $378 $375 $221 $305 forward $360 $-1 #
edge $-1 $308 -8.2406302748650777 $306 8.2406302748650777 $221 $380 forward 7 unknown #
vertex $-1 $222 $381 #
straight-curve $-1 -41.311075167088838 0 -8.2406302748650777 0 1 0 I I #
vertex $-1 $223 $382 #
straight-curve $-1 -41.311075167088838 0 8.2406302748650777 0 -1 0 I I #
face $-1 $383 $384 $17 $-1 $385 forward single #
loop $-1 $-1 $386 $226 #
plane-surface $-1 -36.770069654852719 -12.869725177279562 0 0 -1 0 0 0 -1 forward_v I I I I #
coedge $-1 $387 $388 $389 $390 reversed $227 $-1 #
coedge $-1 $229 $240 $391 $392 reversed $79 $-1 #
coedge $-1 $393 $231 $229 $316 forward $319 $-1 #
edge $-1 $233 -4.3254751971106762 $394 8.2406302748650777 $229 $395 forward 7 unknown #
edge $-1 $235 5.7431185668306526 $320 14.108361790685642 $237 $396 forward 7 unknown #
coedge $-1 $231 $397 $324 $398 reversed $319 $-1 #
loop $-1 $-1 $231 $399 #
vertex $-1 $398 $400 #
straight-curve $-1 9.0974305166997969 24.034101969443789 45.557061249280537 0.61566146476048833 0 -0.78801076186113728 I I #
point $-1 41.311075167088838 24.034101969443789 4.3254751971106762 #
point $-1 38.252220863828072 15.6688587455888 8.2406302748650759 #
coedge $-1 $401 $237 $318 $398 forward $141 $-1 #
coedge $-1 $238 $402 $403 $404 forward $141 $-1 #
coedge $-1 $403 $405 $240 $327 reversed $406 $-1 #
edge $-1 $328 -8.2406302748650777 $407 8.2406302748650777 $240 $408 forward 7 unknown #
vertex $-1 $241 $409 #
straight-curve $-1 41.311075167088838 0 8.2406302748650777 0 1 0 I I #
face $-1 $410 $411 $18 $-1 $412 forward single #
loop $-1 $-1 $337 $244 #
plane-surface $-1 0 0 8.2406302748650777 0 0 1 1 0 0 forward_v I I I I #
coedge $-1 $250 $413 $334 $414 forward $245 $-1 #
coedge $-1 $415 $335 $333 $414 reversed $247 $-1 #
coedge $-1 $334 $416 $248 $336 reversed $247 $-1 #
edge $-1 $340 -82.62215033417769 $417 -77.6537472777175 $248 $418 forward 7 unknown #
coedge $-1 $419 $420 $249 $338 forward $331 $-1 #
edge $-1 $341 -13.535602816024589 $417 -10.476748512763823 $337 $421 forward 7 unknown #
coedge $-1 $422 $250 $420 $423 reversed $245 $-1 #
vertex $-1 $414 $424 #
vertex $-1 $338 $425 #
straight-curve $-1 41.311075167088838 15.6688587455888 60.149946462476279 0 0 1 I I #
vertex $-1 $252 $426 #
point $-1 38.926934835272768 18.058928238118796 4.3462594301977653 #
face $-1 $427 $428 $19 $-1 $429 reversed single #
plane-surface $-1 -9.5561989293122664 19.851480357516294 69.432618828551455 0.78801076186113728 0 0.61566146476048833 0.61566146476048833 0 -0.78801076186113728 forward_v I I I I #
coedge $-1 $430 $431 $432 $433 reversed $257 $-1 #
coedge $-1 $348 $348 $-1 $434 forward $259 $-1 #
edge $-1 $435 0 $435 6.2831853071796004 $260 $436 forward 7 unknown #
vertex $-1 $263 $437 #
ellipse-curve $-1 39.781648015458458 18.058928238118796 6.2830527359878792 -0.78801076186113728 0 -0.61566146476048833 0.61566146476048833 0 -0.78801076186113728 1 I I #
vertex $-1 $264 $438 #
point $-1 38.926934835272768 21.644032476913793 4.3462594301977653 #
loop $-1 $-1 $439 $256 #
straight-curve $-1 -41.311075167088838 24.034101969443789 0 0 0 -1 I I #
point $-1 -41.311075167088838 -24.034101969443789 -8.2406302748650777 #
straight-curve $-1 -41.311075167088838 0 -8.2406302748650777 0 1 0 I I #
point $-1 -41.311075167088838 24.034101969443789 -8.2406302748650777 #
face $-1 $440 $368 $16 $-1 $200 reversed single #
loop $-1 $-1 $304 $285 #
plane-surface $-1 0 -24.034101969443789 0 0 1 0 0 0 1 forward_v I I I I #
coedge $-1 $287 $374 $441 $442 forward $122 $-1 #
coedge $-1 $443 $291 $287 $364 reversed $368 $-1 #
edge $-1 $444 -24.034101969443789 $293 12.869725177279562 $363 $309 forward 7 unknown #
straight-curve $-1 -32.2290641426166 -7.1848625886397812 8.2406302748650777 0 -1 0 I I #
straight-curve $-1 -32.2290641426166 -7.1848625886397812 -8.2406302748650777 0 1 0 I I #
coedge $-1 $291 $443 $295 $372 reversed $368 $-1 #
loop $-1 $-1 $291 $359 #
straight-curve $-1 -41.311075167088838 -12.869725177279562 0 0 0 1 I I #
point $-1 -41.311075167088838 -12.869725177279562 8.2406302748650777 #
coedge $-1 $377 $295 $445 $446 forward $218 $-1 #
edge $-1 $296 -12.869725177279562 $447 24.034101969443789 $367 $307 forward 7 unknown #
point $-1 -41.311075167088838 -12.869725177279562 -8.2406302748650777 #
coedge $-1 $362 $300 $448 $449 forward $122 $-1 #
coedge $-1 $304 $450 $300 $376 reversed $360 $-1 #
edge $-1 $308 -41.311075167088838 $451 41.311075167088838 $375 $452 forward 7 unknown #
coedge $-1 $302 $371 $453 $454 forward $218 $-1 #
coedge $-1 $450 $304 $302 $379 reversed $360 $-1 #
edge $-1 $455 -41.311075167088838 $306 41.311075167088838 $378 $456 forward 7 unknown #
straight-curve $-1 -41.311075167088838 -24.034101969443789 0 0 0 -1 I I #
point $-1 -41.311075167088838 -24.034101969443789 -8.2406302748650777 #
point $-1 -41.311075167088838 -24.034101969443789 8.2406302748650777 #
face $-1 $457 $458 $17 $-1 $459 reversed single #
loop $-1 $-1 $460 $310 #
plane-surface $-1 -32.2290641426166 -14.369725177279562 0 -1 0 0 0 0 1 forward_v I I I I #
coedge $-1 $461 $462 $463 $464 reversed $311 $-1 #
coedge $-1 $465 $313 $466 $467 reversed $227 $-1 #
coedge $-1 $313 $465 $468 $469 reversed $227 $-1 #
coedge $-1 $470 $471 $313 $390 forward $458 $-1 #
edge $-1 $472 -8.2406302748650777 $473 8.2406302748650777 $389 $474 forward 7 unknown #
coedge $-1 $475 $476 $314 $392 forward $477 $-1 #
edge $-1 $394 -24.034101969443789 $407 24.034101969443789 $314 $478 forward 7 unknown #
coedge $-1 $397 $315 $476 $479 reversed $319 $-1 #
vertex $-1 $392 $480 #
straight-curve $-1 41.311075167088838 24.034101969443789 0 0 0 -1 I I #
straight-curve $-1 38.252220863828072 9.9257401787581472 8.2406302748650759 0 1 0 I I #
coedge $-1 $318 $393 $481 $482 reversed $319 $-1 #
edge $-1 $320 -38.252220863828072 $483 41.311075167088838 $318 $484 forward 7 unknown #
face $-1 $-1 $319 $17 $-1 $485 reversed single #
point $-1 38.252220863828072 24.034101969443789 8.2406302748650759 #
coedge $-1 $486 $324 $487 $488 forward $141 $-1 #
coedge $-1 $325 $466 $471 $489 forward $141 $-1 #
coedge $-1 $490 $326 $325 $404 reversed $406 $-1 #
edge $-1 $491 -41.311075167088838 $328 41.311075167088838 $403 $492 forward 7 unknown #
coedge $-1 $326 $490 $475 $493 reversed $406 $-1 #
loop $-1 $-1 $490 $494 #
vertex $-1 $327 $495 #
straight-curve $-1 41.311075167088838 -24.034101969443789 0 0 0 -1 I I #
point $-1 41.311075167088838 -24.034101969443789 8.2406302748650777 #
face $-1 $496 $497 $18 $-1 $498 forward single #
loop $-1 $-1 $499 $330 #
plane-surface $-1 -36.770069654852719 -15.869725177279562 0 0 1 0 0 0 1 forward_v I I I I #
coedge $-1 $333 $500 $501 $502 reversed $245 $-1 #
edge $-1 $503 -14.108361790685642 $340 -5.7431185668306526 $333 $504 forward 7 unknown #
coedge $-1 $416 $334 $505 $506 reversed $247 $-1 #
coedge $-1 $335 $415 $419 $507 reversed $247 $-1 #
vertex $-1 $507 $508 #
straight-curve $-1 -9.5561989293122664 15.6688587455888 69.432618828551455 -0.61566146476048833 0 0.78801076186113728 I I #
coedge $-1 $509 $337 $416 $507 forward $331 $-1 #
coedge $-1 $337 $510 $339 $423 forward $331 $-1 #
straight-curve $-1 27.775472351064248 15.6688587455888 8.2406302748650759 -1 0 0 I I #
coedge $-1 $500 $339 $511 $512 forward $245 $-1 #
edge $-1 $513 -24.034101969443789 $341 15.6688587455888 $339 $514 forward 7 unknown #
point $-1 41.311075167088838 15.6688587455888 4.3254751971106771 #
point $-1 41.311075167088838 15.6688587455888 8.2406302748650777 #
point $-1 37.523262608651144 18.058928238118796 4.5186087272984139 #
face $-1 $515 $516 $19 $-1 $517 forward single #
loop $-1 $-1 $518 $345 #
plane-surface $-1 41.311075167088838 0 0 -1 0 0 0 0 1 forward_v I I I I #
coedge $-1 $431 $347 $519 $520 forward $257 $-1 #
coedge $-1 $347 $430 $521 $522 reversed $257 $-1 #
coedge $-1 $523 $518 $347 $433 forward $428 $-1 #
edge $-1 $524 -55.824471265365602 $525 -51.909316187611203 $432 $526 forward 7 unknown #
edge $-1 $527 1 $527 0 $348 $-1 forward 7 unknown #
vertex $-1 $349 $528 #
ellipse-curve $-1 38.311273370512275 18.058928238118796 5.1342701920589029 0.78801076186113728 0 0.61566146476048833 0.61566146476048833 0 -0.78801076186113728 1 I I #
point $-1 40.397309480218958 18.058928238118796 5.4950419741267496 #
point $-1 37.523262608651144 21.644032476913793 4.5186087272984139 #
coedge $-1 $529 $519 $518 $530 reversed $354 $-1 #
face $-1 $531 $532 $16 $-1 $533 reversed single #
coedge $-1 $534 $535 $362 $442 reversed $532 $-1 #
edge $-1 $536 -41.311075167088838 $444 41.311075167088838 $441 $537 forward 7 unknown #
coedge $-1 $367 $363 $535 $538 forward $368 $-1 #
vertex $-1 $442 $539 #
coedge $-1 $535 $534 $371 $446 reversed $532 $-1 #
edge $-1 $447 -41.311075167088838 $540 41.311075167088838 $445 $541 forward 7 unknown #
vertex $-1 $446 $542 #
coedge $-1 $543 $544 $374 $449 reversed $545 $-1 #
edge $-1 $451 -24.034101969443789 $536 24.034101969443789 $448 $546 forward 7 unknown #
coedge $-1 $375 $378 $543 $547 reversed $360 $-1 #
vertex $-1 $449 $548 #
straight-curve $-1 0 -24.034101969443789 8.2406302748650777 1 0 0 I I #
coedge $-1 $544 $543 $377 $454 reversed $545 $-1 #
edge $-1 $540 -24.034101969443789 $455 24.034101969443789 $453 $549 forward 7 unknown #
vertex $-1 $547 $550 #
straight-curve $-1 0 -24.034101969443789 -8.2406302748650777 -1 0 0 I I #
face $-1 $494 $477 $17 $-1 $551 reversed single #
loop $-1 $-1 $389 $383 #
plane-surface $-1 -41.311075167088838 0 0 1 0 0 0 0 -1 forward_v I I I I #
coedge $-1 $552 $553 $465 $554 reversed $384 $-1 #
coedge $-1 $555 $386 $486 $556 reversed $311 $-1 #
coedge $-1 $386 $555 $557 $558 reversed $311 $-1 #
coedge $-1 $553 $552 $386 $464 forward $384 $-1 #
edge $-1 $559 -8.2406302748650777 $560 8.2406302748650777 $463 $561 forward 7 unknown #
coedge $-1 $388 $387 $460 $554 forward $227 $-1 #
coedge $-1 $402 $562 $387 $467 forward $141 $-1 #
edge $-1 $563 13.844029315190241 $472 22.926040339662478 $466 $564 forward 7 unknown #
coedge $-1 $565 $566 $388 $469 forward $477 $-1 #
edge $-1 $473 -22.926040339662478 $567 -13.844029315190241 $468 $568 forward 7 unknown #
coedge $-1 $569 $389 $566 $570 reversed $458 $-1 #
coedge $-1 $389 $569 $402 $489 reversed $458 $-1 #
vertex $-1 $489 $571 #
vertex $-1 $390 $572 #
straight-curve $-1 -41.311075167088838 -15.869725177279562 0 0 0 -1 I I #
coedge $-1 $566 $391 $405 $493 forward $477 $-1 #
coedge $-1 $391 $573 $393 $479 forward $477 $-1 #
loop $-1 $-1 $557 $457 #
straight-curve $-1 41.311075167088838 0 -8.2406302748650777 0 -1 0 I I #
edge $-1 $574 -41.311075167088838 $394 41.311075167088838 $393 $575 forward 7 unknown #
point $-1 41.311075167088838 24.034101969443789 -8.2406302748650777 #
coedge $-1 $576 $487 $397 $482 forward $577 $-1 #
edge $-1 $483 -8.2406302748650777 $574 8.2406302748650777 $397 $578 forward 7 unknown #
vertex $-1 $398 $579 #
straight-curve $-1 0 24.034101969443789 8.2406302748650777 -1 0 0 I I #
plane-surface $-1 0 24.034101969443789 0 0 -1 0 0 0 -1 forward_v I I I I #
coedge $-1 $562 $401 $461 $556 forward $141 $-1 #
coedge $-1 $481 $580 $401 $488 reversed $577 $-1 #
edge $-1 $483 -24.034101969443789 $581 12.869725177279562 $487 $582 forward 7 unknown #
edge $-1 $472 15.869725177279562 $491 24.034101969443789 $471 $582 forward 7 unknown #
coedge $-1 $405 $403 $569 $583 forward $406 $-1 #
vertex $-1 $489 $584 #
straight-curve $-1 0 -24.034101969443789 8.2406302748650777 1 0 0 I I #
edge $-1 $407 -41.311075167088838 $585 41.311075167088838 $405 $586 forward 7 unknown #
face $-1 $587 $406 $17 $-1 $588 reversed single #
point $-1 41.311075167088838 -24.034101969443789 -8.2406302748650777 #
face $-1 $589 $590 $18 $-1 $591 forward single #
loop $-1 $-1 $592 $410 #
plane-surface $-1 -36.770069654852719 -12.869725177279562 0 0 -1 0 0 0 -1 forward_v I I I I #
coedge $-1 $593 $594 $595 $596 reversed $411 $-1 #
coedge $-1 $413 $422 $597 $598 reversed $245 $-1 #
coedge $-1 $599 $505 $413 $502 forward $600 $-1 #
edge $-1 $503 -4.3254751971106762 $601 8.2406302748650777 $413 $602 forward 7 unknown #
vertex $-1 $502 $603 #
straight-curve $-1 41.311075167088845 9.9257401787581472 4.3254751971106771 0 -1 0 I I #
coedge $-1 $501 $604 $415 $506 forward $600 $-1 #
edge $-1 $605 47.355230131985607 $503 52.323633188445797 $505 $606 forward 7 unknown #
edge $-1 $417 5.7431185668306526 $605 14.108361790685642 $419 $607 forward 7 unknown #
point $-1 38.252220863828072 15.6688587455888 8.2406302748650759 #
coedge $-1 $608 $419 $604 $609 forward $331 $-1 #
coedge $-1 $420 $610 $611 $612 forward $331 $-1 #
coedge $-1 $611 $613 $422 $512 reversed $614 $-1 #
edge $-1 $513 -8.2406302748650777 $615 8.2406302748650777 $422 $616 forward 7 unknown #
vertex $-1 $423 $617 #
straight-curve $-1 41.311075167088838 0 8.2406302748650777 0 1 0 I I #
face $-1 $618 $619 $19 $-1 $620 forward single #
loop $-1 $-1 $521 $427 #
plane-surface $-1 0 0 8.2406302748650777 0 0 1 1 0 0 forward_v I I I I #
coedge $-1 $432 $621 $439 $530 forward $428 $-1 #
coedge $-1 $439 $622 $430 $520 reversed $354 $-1 #
edge $-1 $524 -82.62215033417769 $623 -77.6537472777175 $430 $624 forward 7 unknown #
coedge $-1 $625 $626 $431 $522 forward $516 $-1 #
edge $-1 $525 -13.535602816024589 $623 -10.476748512763823 $521 $627 forward 7 unknown #
coedge $-1 $628 $432 $626 $629 reversed $428 $-1 #
vertex $-1 $530 $630 #
vertex $-1 $522 $631 #
straight-curve $-1 41.311075167088838 15.6688587455888 60.149946462476279 0 0 1 I I #
vertex $-1 $434 $632 #
point $-1 38.926934835272768 18.058928238118796 4.3462594301977653 #
coedge $-1 $622 $439 $633 $634 reversed $354 $-1 #
edge $-1 $635 -14.108361790685642 $524 -5.7431185668306526 $518 $636 forward 7 unknown #
face $-1 $-1 $545 $16 $-1 $637 reversed single #
loop $-1 $-1 $534 $440 #
plane-surface $-1 0 24.034101969443789 0 0 -1 0 0 0 -1 forward_v I I I I #
coedge $-1 $445 $441 $544 $638 forward $532 $-1 #
coedge $-1 $441 $445 $443 $538 reversed $532 $-1 #
vertex $-1 $449 $639 #
straight-curve $-1 0 24.034101969443789 8.2406302748650777 -1 0 0 I I #
edge $-1 $444 -8.2406302748650777 $447 8.2406302748650777 $535 $640 forward 7 unknown #
point $-1 -41.311075167088838 24.034101969443789 8.2406302748650777 #
vertex $-1 $454 $641 #
straight-curve $-1 0 24.034101969443789 -8.2406302748650777 1 0 0 I I #
point $-1 -41.311075167088838 24.034101969443789 -8.2406302748650777 #
coedge $-1 $453 $448 $450 $547 forward $545 $-1 #
coedge $-1 $448 $453 $534 $638 reversed $545 $-1 #
loop $-1 $-1 $543 $531 #
straight-curve $-1 41.311075167088838 0 8.2406302748650777 0 1 0 I I #
edge $-1 $451 -8.2406302748650777 $455 8.2406302748650777 $543 $642 forward 7 unknown #
point $-1 41.311075167088838 -24.034101969443789 8.2406302748650777 #
straight-curve $-1 41.311075167088838 0 -8.2406302748650777 0 -1 0 I I #
point $-1 41.311075167088838 -24.034101969443789 -8.2406302748650777 #
plane-surface $-1 0 0 -8.2406302748650777 0 0 1 1 0 0 forward_v I I I I #
coedge $-1 $463 $460 $562 $643 reversed $384 $-1 #
coedge $-1 $460 $463 $565 $644 reversed $384 $-1 #
edge $-1 $563 -8.2406302748650777 $567 8.2406302748650777 $460 $645 forward 7 unknown #
coedge $-1 $462 $461 $580 $646 reversed $311 $-1 #
edge $-1 $581 -22.926040339662478 $559 -13.844029315190241 $486 $647 forward 7 unknown #
coedge $-1 $573 $565 $462 $558 forward $477 $-1 #
edge $-1 $560 13.844029315190241 $648 22.926040339662478 $557 $649 forward 7 unknown #
vertex $-1 $556 $650 #
vertex $-1 $558 $651 #
straight-curve $-1 -32.2290641426166 -12.869725177279562 0 0 0 -1 I I #
coedge $-1 $466 $486 $552 $643 forward $141 $-1 #
vertex $-1 $467 $652 #
straight-curve $-1 -18.38503482742636 -15.869725177279562 8.2406302748650777 -1 0 0 I I #
coedge $-1 $557 $468 $553 $644 forward $477 $-1 #
coedge $-1 $468 $475 $470 $570 forward $477 $-1 #
vertex $-1 $469 $653 #
straight-curve $-1 -18.38503482742636 -15.869725177279562 -8.2406302748650777 1 0 0 I I #
coedge $-1 $471 $470 $490 $583 reversed $458 $-1 #
edge $-1 $585 -24.034101969443789 $473 -15.869725177279562 $470 $654 forward 7 unknown #
point $-1 -41.311075167088838 -15.869725177279562 8.2406302748650777 #
point $-1 -41.311075167088838 -15.869725177279562 -8.2406302748650777 #
coedge $-1 $476 $557 $576 $655 forward $477 $-1 #
vertex $-1 $479 $656 #
straight-curve $-1 0 24.034101969443789 -8.2406302748650777 1 0 0 I I #
coedge $-1 $580 $481 $573 $655 reversed $577 $-1 #
loop $-1 $-1 $580 $587 #
straight-curve $-1 -41.311075167088838 24.034101969443789 0 0 0 -1 I I #
point $-1 -41.311075167088838 24.034101969443789 8.2406302748650777 #
coedge $-1 $487 $576 $555 $646 forward $577 $-1 #
vertex $-1 $646 $657 #
straight-curve $-1 -41.311075167088838 0 8.2406302748650777 0 -1 0 I I #
edge $-1 $491 -8.2406302748650777 $585 8.2406302748650777 $569 $658 forward 7 unknown #
point $-1 -41.311075167088838 -24.034101969443789 8.2406302748650777 #
vertex $-1 $570 $659 #
straight-curve $-1 0 -24.034101969443789 -8.2406302748650777 -1 0 0 I I #
face $-1 $399 $577 $17 $-1 $459 reversed single #
plane-surface $-1 0 -24.034101969443789 0 0 1 0 0 0 1 forward_v I I I I #
face $-1 $660 $661 $18 $-1 $662 reversed single #
loop $-1 $-1 $663 $496 #
plane-surface $-1 -32.2290641426166 -14.369725177279562 0 -1 0 0 0 0 1 forward_v I I I I #
coedge $-1 $664 $665 $666 $667 reversed $497 $-1 #
coedge $-1 $668 $499 $669 $670 reversed $411 $-1 #
coedge $-1 $499 $668 $671 $672 reversed $411 $-1 #
coedge $-1 $673 $674 $499 $596 forward $661 $-1 #
edge $-1 $675 -8.2406302748650777 $676 8.2406302748650777 $595 $677 forward 7 unknown #
coedge $-1 $678 $679 $500 $598 forward $680 $-1 #
edge $-1 $601 -24.034101969443789 $615 24.034101969443789 $500 $681 forward 7 unknown #
coedge $-1 $682 $501 $679 $683 reversed $600 $-1 #
loop $-1 $-1 $505 $684 #
vertex $-1 $598 $685 #
straight-curve $-1 41.311075167088838 24.034101969443789 0 0 0 -1 I I #
point $-1 41.311075167088838 24.034101969443789 4.3254751971106762 #
coedge $-1 $505 $682 $509 $609 reversed $600 $-1 #
vertex $-1 $609 $686 #
straight-curve $-1 9.0974305166997969 24.034101969443789 45.557061249280537 0.61566146476048833 0 -0.78801076186113728 I I #
straight-curve $-1 38.252220863828072 9.9257401787581472 8.2406302748650759 0 1 0 I I #
coedge $-1 $687 $509 $688 $689 forward $331 $-1 #
edge $-1 $605 -38.252220863828072 $690 41.311075167088838 $604 $691 forward 7 unknown #
coedge $-1 $510 $669 $674 $692 forward $331 $-1 #
coedge $-1 $693 $511 $510 $612 reversed $614 $-1 #
edge $-1 $694 -41.311075167088838 $513 41.311075167088838 $611 $695 forward 7 unknown #
coedge $-1 $511 $693 $678 $696 reversed $614 $-1 #
loop $-1 $-1 $693 $697 #
vertex $-1 $512 $698 #
straight-curve $-1 41.311075167088838 -24.034101969443789 0 0 0 -1 I I #
point $-1 41.311075167088838 -24.034101969443789 8.2406302748650777 #
face $-1 $699 $700 $19 $-1 $701 forward single #
loop $-1 $-1 $702 $515 #
plane-surface $-1 -36.770069654852719 -15.869725177279562 0 0 1 0 0 0 1 forward_v I I I I #
coedge $-1 $518 $703 $704 $705 reversed $428 $-1 #
coedge $-1 $519 $529 $625 $706 reversed $354 $-1 #
vertex $-1 $706 $707 #
straight-curve $-1 -9.5561989293122664 15.6688587455888 69.432618828551455 -0.61566146476048833 0 0.78801076186113728 I I #
coedge $-1 $708 $521 $622 $706 forward $516 $-1 #
coedge $-1 $521 $709 $523 $629 forward $516 $-1 #
straight-curve $-1 27.775472351064248 15.6688587455888 8.2406302748650759 -1 0 0 I I #
coedge $-1 $703 $523 $710 $711 forward $428 $-1 #
edge $-1 $712 -24.034101969443789 $525 15.6688587455888 $523 $713 forward 7 unknown #
point $-1 41.311075167088838 15.6688587455888 4.3254751971106771 #
point $-1 41.311075167088838 15.6688587455888 8.2406302748650777 #
point $-1 37.523262608651144 18.058928238118796 4.5186087272984139 #
coedge $-1 $704 $714 $529 $634 forward $715 $-1 #
edge $-1 $716 47.355230131985607 $635 52.323633188445797 $633 $717 forward 7 unknown #
vertex $-1 $705 $718 #
straight-curve $-1 41.311075167088845 9.9257401787581472 4.3254751971106771 0 -1 0 I I #
plane-surface $-1 41.311075167088838 0 0 -1 0 0 0 0 1 forward_v I I I I #
edge $-1 $536 -8.2406302748650777 $540 8.2406302748650777 $544 $719 forward 7 unknown #
point $-1 41.311075167088838 24.034101969443789 8.2406302748650777 #
straight-curve $-1 -41.311075167088838 24.034101969443789 0 0 0 -1 I I #
point $-1 41.311075167088838 24.034101969443789 -8.2406302748650777 #
straight-curve $-1 41.311075167088838 -24.034101969443789 0 0 0 -1 I I #
edge $-1 $559 5.6848625886397812 $563 8.6848625886397812 $562 $720 forward 7 unknown #
edge $-1 $567 -8.6848625886397812 $560 -5.6848625886397812 $565 $721 forward 7 unknown #
straight-curve $-1 -32.2290641426166 -15.869725177279562 0 0 0 -1 I I #
edge $-1 $648 -8.2406302748650777 $581 8.2406302748650777 $580 $722 forward 7 unknown #
straight-curve $-1 -18.38503482742636 -12.869725177279562 8.2406302748650777 1 0 0 I I #
vertex $-1 $655 $723 #
straight-curve $-1 -18.38503482742636 -12.869725177279562 -8.2406302748650777 -1 0 0 I I #
point $-1 -32.2290641426166 -12.869725177279562 8.2406302748650777 #
point $-1 -32.2290641426166 -12.869725177279562 -8.2406302748650777 #
point $-1 -32.2290641426166 -15.869725177279562 8.2406302748650777 #
point $-1 -32.2290641426166 -15.869725177279562 -8.2406302748650777 #
straight-curve $-1 -41.311075167088838 0 -8.2406302748650777 0 1 0 I I #
edge $-1 $648 -12.869725177279562 $574 24.034101969443789 $576 $654 forward 7 unknown #
point $-1 -41.311075167088838 24.034101969443789 -8.2406302748650777 #
point $-1 -41.311075167088838 -12.869725177279562 8.2406302748650777 #
straight-curve $-1 -41.311075167088838 -24.034101969443789 0 0 0 -1 I I #
point $-1 -41.311075167088838 -24.034101969443789 -8.2406302748650777 #
face $-1 $697 $680 $18 $-1 $724 reversed single #
loop $-1 $-1 $595 $589 #
plane-surface $-1 -41.311075167088838 0 0 1 0 0 0 0 -1 forward_v I I I I #
coedge $-1 $725 $726 $668 $727 reversed $590 $-1 #
coedge $-1 $728 $592 $687 $729 reversed $497 $-1 #
coedge $-1 $592 $728 $730 $731 reversed $497 $-1 #
coedge $-1 $726 $725 $592 $667 forward $590 $-1 #
edge $-1 $732 -8.2406302748650777 $733 8.2406302748650777 $666 $734 forward 7 unknown #
coedge $-1 $594 $593 $663 $727 forward $411 $-1 #
coedge $-1 $610 $735 $593 $670 forward $331 $-1 #
edge $-1 $736 13.844029315190241 $675 22.926040339662478 $669 $737 forward 7 unknown #
coedge $-1 $738 $739 $594 $672 forward $680 $-1 #
edge $-1 $676 -22.926040339662478 $740 -13.844029315190241 $671 $741 forward 7 unknown #
coedge $-1 $742 $595 $739 $743 reversed $661 $-1 #
coedge $-1 $595 $742 $610 $692 reversed $661 $-1 #
vertex $-1 $692 $744 #
vertex $-1 $596 $745 #
straight-curve $-1 -41.311075167088838 -15.869725177279562 0 0 0 -1 I I #
coedge $-1 $739 $597 $613 $696 forward $680 $-1 #
coedge $-1 $597 $746 $599 $683 forward $680 $-1 #
loop $-1 $-1 $730 $660 #
straight-curve $-1 41.311075167088838 0 -8.2406302748650777 0 -1 0 I I #
coedge $-1 $604 $599 $747 $748 reversed $600 $-1 #
edge $-1 $749 -41.311075167088838 $601 41.311075167088838 $599 $750 forward 7 unknown #
face $-1 $-1 $600 $18 $-1 $751 reversed single #
point $-1 41.311075167088838 24.034101969443789 -8.2406302748650777 #
point $-1 38.252220863828072 24.034101969443789 8.2406302748650759 #
coedge $-1 $735 $608 $664 $729 forward $331 $-1 #
coedge $-1 $747 $752 $608 $689 reversed $753 $-1 #
edge $-1 $690 -24.034101969443789 $754 12.869725177279562 $688 $755 forward 7 unknown #
vertex $-1 $609 $756 #
straight-curve $-1 0 24.034101969443789 8.2406302748650777 -1 0 0 I I #
edge $-1 $675 15.869725177279562 $694 24.034101969443789 $674 $755 forward 7 unknown #
coedge $-1 $613 $611 $742 $757 forward $614 $-1 #
vertex $-1 $692 $758 #
straight-curve $-1 0 -24.034101969443789 8.2406302748650777 1 0 0 I I #
edge $-1 $615 -41.311075167088838 $759 41.311075167088838 $613 $760 forward 7 unknown #
face $-1 $761 $614 $18 $-1 $762 reversed single #
point $-1 41.311075167088838 -24.034101969443789 -8.2406302748650777 #
face $-1 $763 $764 $19 $-1 $765 forward single #
loop $-1 $-1 $766 $618 #
plane-surface $-1 -36.770069654852719 -12.869725177279562 0 0 -1 0 0 0 -1 forward_v I I I I #
coedge $-1 $767 $768 $769 $770 reversed $619 $-1 #
coedge $-1 $621 $628 $771 $772 reversed $428 $-1 #
coedge $-1 $773 $633 $621 $705 forward $715 $-1 #
edge $-1 $635 -4.3254751971106762 $774 8.2406302748650777 $621 $775 forward 7 unknown #
edge $-1 $623 5.7431185668306526 $716 14.108361790685642 $625 $776 forward 7 unknown #
point $-1 38.252220863828072 15.6688587455888 8.2406302748650759 #
coedge $-1 $777 $625 $714 $778 forward $516 $-1 #
coedge $-1 $626 $779 $780 $781 forward $516 $-1 #
coedge $-1 $780 $782 $628 $711 reversed $783 $-1 #
edge $-1 $712 -8.2406302748650777 $784 8.2406302748650777 $628 $785 forward 7 unknown #
vertex $-1 $629 $786 #
straight-curve $-1 41.311075167088838 0 8.2406302748650777 0 1 0 I I #
coedge $-1 $633 $787 $708 $778 reversed $715 $-1 #
loop $-1 $-1 $633 $788 #
vertex $-1 $778 $789 #
straight-curve $-1 9.0974305166997969 24.034101969443789 45.557061249280537 0.61566146476048833 0 -0.78801076186113728 I I #
point $-1 41.311075167088838 24.034101969443789 4.3254751971106762 #
straight-curve $-1 41.311075167088838 24.034101969443789 0 0 0 -1 I I #
straight-curve $-1 -32.2290641426166 -7.1848625886397812 8.2406302748650777 0 -1 0 I I #
straight-curve $-1 -32.2290641426166 -7.1848625886397812 -8.2406302748650777 0 1 0 I I #
straight-curve $-1 -41.311075167088838 -12.869725177279562 0 0 0 1 I I #
point $-1 -41.311075167088838 -12.869725177279562 -8.2406302748650777 #
plane-surface $-1 0 0 -8.2406302748650777 0 0 1 1 0 0 forward_v I I I I #
coedge $-1 $666 $663 $735 $790 reversed $590 $-1 #
coedge $-1 $663 $666 $738 $791 reversed $590 $-1 #
edge $-1 $736 -8.2406302748650777 $740 8.2406302748650777 $663 $792 forward 7 unknown #
coedge $-1 $665 $664 $752 $793 reversed $497 $-1 #
edge $-1 $754 -22.926040339662478 $732 -13.844029315190241 $687 $794 forward 7 unknown #
coedge $-1 $746 $738 $665 $731 forward $680 $-1 #
edge $-1 $733 13.844029315190241 $795 22.926040339662478 $730 $796 forward 7 unknown #
vertex $-1 $729 $797 #
vertex $-1 $731 $798 #
straight-curve $-1 -32.2290641426166 -12.869725177279562 0 0 0 -1 I I #
coedge $-1 $669 $687 $725 $790 forward $331 $-1 #
vertex $-1 $670 $799 #
straight-curve $-1 -18.38503482742636 -15.869725177279562 8.2406302748650777 -1 0 0 I I #
coedge $-1 $730 $671 $726 $791 forward $680 $-1 #
coedge $-1 $671 $678 $673 $743 forward $680 $-1 #
vertex $-1 $672 $800 #
straight-curve $-1 -18.38503482742636 -15.869725177279562 -8.2406302748650777 1 0 0 I I #
coedge $-1 $674 $673 $693 $757 reversed $661 $-1 #
edge $-1 $759 -24.034101969443789 $676 -15.869725177279562 $673 $801 forward 7 unknown #
point $-1 -41.311075167088838 -15.869725177279562 8.2406302748650777 #
point $-1 -41.311075167088838 -15.869725177279562 -8.2406302748650777 #
coedge $-1 $679 $730 $802 $803 forward $680 $-1 #
coedge $-1 $802 $688 $682 $748 forward $753 $-1 #
edge $-1 $690 -8.2406302748650777 $749 8.2406302748650777 $682 $804 forward 7 unknown #
vertex $-1 $683 $805 #
straight-curve $-1 0 24.034101969443789 -8.2406302748650777 1 0 0 I I #
plane-surface $-1 0 24.034101969443789 0 0 -1 0 0 0 -1 forward_v I I I I #
coedge $-1 $688 $802 $728 $793 forward $753 $-1 #
loop $-1 $-1 $752 $761 #
vertex $-1 $793 $806 #
straight-curve $-1 -41.311075167088838 0 8.2406302748650777 0 -1 0 I I #
point $-1 -41.311075167088838 24.034101969443789 8.2406302748650777 #
edge $-1 $694 -8.2406302748650777 $759 8.2406302748650777 $742 $807 forward 7 unknown #
point $-1 -41.311075167088838 -24.034101969443789 8.2406302748650777 #
vertex $-1 $743 $808 #
straight-curve $-1 0 -24.034101969443789 -8.2406302748650777 -1 0 0 I I #
face $-1 $684 $753 $18 $-1 $662 reversed single #
plane-surface $-1 0 -24.034101969443789 0 0 1 0 0 0 1 forward_v I I I I #
face $-1 $809 $810 $19 $-1 $811 reversed single #
loop $-1 $-1 $812 $699 #
plane-surface $-1 -32.2290641426166 -14.369725177279562 0 -1 0 0 0 0 1 forward_v I I I I #
coedge $-1 $813 $814 $815 $816 reversed $700 $-1 #
coedge $-1 $817 $702 $818 $819 reversed $619 $-1 #
coedge $-1 $702 $817 $820 $821 reversed $619 $-1 #
coedge $-1 $822 $823 $702 $770 forward $810 $-1 #
edge $-1 $824 -8.2406302748650777 $825 8.2406302748650777 $769 $826 forward 7 unknown #
coedge $-1 $827 $828 $703 $772 forward $829 $-1 #
edge $-1 $774 -24.034101969443789 $784 24.034101969443789 $703 $830 forward 7 unknown #
coedge $-1 $787 $704 $828 $831 reversed $715 $-1 #
vertex $-1 $772 $832 #
straight-curve $-1 41.311075167088838 24.034101969443789 0 0 0 -1 I I #
straight-curve $-1 38.252220863828072 9.9257401787581472 8.2406302748650759 0 1 0 I I #
coedge $-1 $833 $708 $834 $835 forward $516 $-1 #
edge $-1 $716 -38.252220863828072 $836 41.311075167088838 $714 $837 forward 7 unknown #
coedge $-1 $709 $818 $823 $838 forward $516 $-1 #
coedge $-1 $839 $710 $709 $781 reversed $783 $-1 #
edge $-1 $840 -41.311075167088838 $712 41.311075167088838 $780 $841 forward 7 unknown #
coedge $-1 $710 $839 $827 $842 reversed $783 $-1 #
loop $-1 $-1 $839 $843 #
vertex $-1 $711 $844 #
straight-curve $-1 41.311075167088838 -24.034101969443789 0 0 0 -1 I I #
point $-1 41.311075167088838 -24.034101969443789 8.2406302748650777 #
coedge $-1 $714 $773 $845 $846 reversed $715 $-1 #
face $-1 $-1 $715 $19 $-1 $847 reversed single #
point $-1 38.252220863828072 24.034101969443789 8.2406302748650759 #
edge $-1 $732 5.6848625886397812 $736 8.6848625886397812 $735 $848 forward 7 unknown #
edge $-1 $740 -8.6848625886397812 $733 -5.6848625886397812 $738 $849 forward 7 unknown #
straight-curve $-1 -32.2290641426166 -15.869725177279562 0 0 0 -1 I I #
edge $-1 $795 -8.2406302748650777 $754 8.2406302748650777 $752 $850 forward 7 unknown #
straight-curve $-1 -18.38503482742636 -12.869725177279562 8.2406302748650777 1 0 0 I I #
vertex $-1 $803 $851 #
straight-curve $-1 -18.38503482742636 -12.869725177279562 -8.2406302748650777 -1 0 0 I I #
point $-1 -32.2290641426166 -12.869725177279562 8.2406302748650777 #
point $-1 -32.2290641426166 -12.869725177279562 -8.2406302748650777 #
point $-1 -32.2290641426166 -15.869725177279562 8.2406302748650777 #
point $-1 -32.2290641426166 -15.869725177279562 -8.2406302748650777 #
straight-curve $-1 -41.311075167088838 0 -8.2406302748650777 0 1 0 I I #
coedge $-1 $752 $747 $746 $803 reversed $753 $-1 #
edge $-1 $795 -12.869725177279562 $749 24.034101969443789 $802 $801 forward 7 unknown #
straight-curve $-1 -41.311075167088838 24.034101969443789 0 0 0 -1 I I #
point $-1 -41.311075167088838 24.034101969443789 -8.2406302748650777 #
point $-1 -41.311075167088838 -12.869725177279562 8.2406302748650777 #
straight-curve $-1 -41.311075167088838 -24.034101969443789 0 0 0 -1 I I #
point $-1 -41.311075167088838 -24.034101969443789 -8.2406302748650777 #
face $-1 $843 $829 $19 $-1 $852 reversed single #
loop $-1 $-1 $769 $763 #
plane-surface $-1 -41.311075167088838 0 0 1 0 0 0 0 -1 forward_v I I I I #
coedge $-1 $853 $854 $817 $855 reversed $764 $-1 #
coedge $-1 $856 $766 $833 $857 reversed $700 $-1 #
coedge $-1 $766 $856 $858 $859 reversed $700 $-1 #
coedge $-1 $854 $853 $766 $816 forward $764 $-1 #
edge $-1 $860 -8.2406302748650777 $861 8.2406302748650777 $815 $862 forward 7 unknown #
coedge $-1 $768 $767 $812 $855 forward $619 $-1 #
coedge $-1 $779 $863 $767 $819 forward $516 $-1 #
edge $-1 $864 13.844029315190241 $824 22.926040339662478 $818 $865 forward 7 unknown #
coedge $-1 $866 $867 $768 $821 forward $829 $-1 #
edge $-1 $825 -22.926040339662478 $868 -13.844029315190241 $820 $869 forward 7 unknown #
coedge $-1 $870 $769 $867 $871 reversed $810 $-1 #
coedge $-1 $769 $870 $779 $838 reversed $810 $-1 #
vertex $-1 $838 $872 #
vertex $-1 $770 $873 #
straight-curve $-1 -41.311075167088838 -15.869725177279562 0 0 0 -1 I I #
coedge $-1 $867 $771 $782 $842 forward $829 $-1 #
coedge $-1 $771 $874 $773 $831 forward $829 $-1 #
loop $-1 $-1 $858 $809 #
straight-curve $-1 41.311075167088838 0 -8.2406302748650777 0 -1 0 I I #
edge $-1 $875 -41.311075167088838 $774 41.311075167088838 $773 $876 forward 7 unknown #
point $-1 41.311075167088838 24.034101969443789 -8.2406302748650777 #
coedge $-1 $863 $777 $813 $857 forward $516 $-1 #
coedge $-1 $845 $877 $777 $835 reversed $878 $-1 #
edge $-1 $836 -24.034101969443789 $879 12.869725177279562 $834 $880 forward 7 unknown #
vertex $-1 $778 $881 #
straight-curve $-1 0 24.034101969443789 8.2406302748650777 -1 0 0 I I #
edge $-1 $824 15.869725177279562 $840 24.034101969443789 $823 $880 forward 7 unknown #
coedge $-1 $782 $780 $870 $882 forward $783 $-1 #
vertex $-1 $838 $883 #
straight-curve $-1 0 -24.034101969443789 8.2406302748650777 1 0 0 I I #
edge $-1 $784 -41.311075167088838 $884 41.311075167088838 $782 $885 forward 7 unknown #
face $-1 $886 $783 $19 $-1 $887 reversed single #
point $-1 41.311075167088838 -24.034101969443789 -8.2406302748650777 #
coedge $-1 $888 $834 $787 $846 forward $878 $-1 #
edge $-1 $836 -8.2406302748650777 $875 8.2406302748650777 $787 $889 forward 7 unknown #
plane-surface $-1 0 24.034101969443789 0 0 -1 0 0 0 -1 forward_v I I I I #
straight-curve $-1 -32.2290641426166 -7.1848625886397812 8.2406302748650777 0 -1 0 I I #
straight-curve $-1 -32.2290641426166 -7.1848625886397812 -8.2406302748650777 0 1 0 I I #
straight-curve $-1 -41.311075167088838 -12.869725177279562 0 0 0 1 I I #
point $-1 -41.311075167088838 -12.869725177279562 -8.2406302748650777 #
plane-surface $-1 0 0 -8.2406302748650777 0 0 1 1 0 0 forward_v I I I I #
coedge $-1 $815 $812 $863 $890 reversed $764 $-1 #
coedge $-1 $812 $815 $866 $891 reversed $764 $-1 #
edge $-1 $864 -8.2406302748650777 $868 8.2406302748650777 $812 $892 forward 7 unknown #
coedge $-1 $814 $813 $877 $893 reversed $700 $-1 #
edge $-1 $879 -22.926040339662478 $860 -13.844029315190241 $833 $894 forward 7 unknown #
coedge $-1 $874 $866 $814 $859 forward $829 $-1 #
edge $-1 $861 13.844029315190241 $895 22.926040339662478 $858 $896 forward 7 unknown #
vertex $-1 $857 $897 #
vertex $-1 $859 $898 #
straight-curve $-1 -32.2290641426166 -12.869725177279562 0 0 0 -1 I I #
coedge $-1 $818 $833 $853 $890 forward $516 $-1 #
vertex $-1 $819 $899 #
straight-curve $-1 -18.38503482742636 -15.869725177279562 8.2406302748650777 -1 0 0 I I #
coedge $-1 $858 $820 $854 $891 forward $829 $-1 #
coedge $-1 $820 $827 $822 $871 forward $829 $-1 #
vertex $-1 $821 $900 #
straight-curve $-1 -18.38503482742636 -15.869725177279562 -8.2406302748650777 1 0 0 I I #
coedge $-1 $823 $822 $839 $882 reversed $810 $-1 #
edge $-1 $884 -24.034101969443789 $825 -15.869725177279562 $822 $901 forward 7 unknown #
point $-1 -41.311075167088838 -15.869725177279562 8.2406302748650777 #
point $-1 -41.311075167088838 -15.869725177279562 -8.2406302748650777 #
coedge $-1 $828 $858 $888 $902 forward $829 $-1 #
vertex $-1 $831 $903 #
straight-curve $-1 0 24.034101969443789 -8.2406302748650777 1 0 0 I I #
coedge $-1 $834 $888 $856 $893 forward $878 $-1 #
loop $-1 $-1 $877 $886 #
vertex $-1 $893 $904 #
straight-curve $-1 -41.311075167088838 0 8.2406302748650777 0 -1 0 I I #
point $-1 -41.311075167088838 24.034101969443789 8.2406302748650777 #
edge $-1 $840 -8.2406302748650777 $884 8.2406302748650777 $870 $905 forward 7 unknown #
point $-1 -41.311075167088838 -24.034101969443789 8.2406302748650777 #
vertex $-1 $871 $906 #
straight-curve $-1 0 -24.034101969443789 -8.2406302748650777 -1 0 0 I I #
face $-1 $788 $878 $19 $-1 $811 reversed single #
plane-surface $-1 0 -24.034101969443789 0 0 1 0 0 0 1 forward_v I I I I #
coedge $-1 $877 $845 $874 $902 reversed $878 $-1 #
straight-curve $-1 -41.311075167088838 24.034101969443789 0 0 0 -1 I I #
edge $-1 $860 5.6848625886397812 $864 8.6848625886397812 $863 $907 forward 7 unknown #
edge $-1 $868 -8.6848625886397812 $861 -5.6848625886397812 $866 $908 forward 7 unknown #
straight-curve $-1 -32.2290641426166 -15.869725177279562 0 0 0 -1 I I #
edge $-1 $895 -8.2406302748650777 $879 8.2406302748650777 $877 $909 forward 7 unknown #
straight-curve $-1 -18.38503482742636 -12.869725177279562 8.2406302748650777 1 0 0 I I #
vertex $-1 $902 $910 #
straight-curve $-1 -18.38503482742636 -12.869725177279562 -8.2406302748650777 -1 0 0 I I #
point $-1 -32.2290641426166 -12.869725177279562 8.2406302748650777 #
point $-1 -32.2290641426166 -12.869725177279562 -8.2406302748650777 #
point $-1 -32.2290641426166 -15.869725177279562 8.2406302748650777 #
point $-1 -32.2290641426166 -15.869725177279562 -8.2406302748650777 #
straight-curve $-1 -41.311075167088838 0 -8.2406302748650777 0 1 0 I I #
edge $-1 $895 -12.869725177279562 $875 24.034101969443789 $888 $901 forward 7 unknown #
point $-1 -41.311075167088838 24.034101969443789 -8.2406302748650777 #
point $-1 -41.311075167088838 -12.869725177279562 8.2406302748650777 #
straight-curve $-1 -41.311075167088838 -24.034101969443789 0 0 0 -1 I I #
point $-1 -41.311075167088838 -24.034101969443789 -8.2406302748650777 #
straight-curve $-1 -32.2290641426166 -7.1848625886397812 8.2406302748650777 0 -1 0 I I #
straight-curve $-1 -32.2290641426166 -7.1848625886397812 -8.2406302748650777 0 1 0 I I #
straight-curve $-1 -41.311075167088838 -12.869725177279562 0 0 0 1 I I #
point $-1 -41.311075167088838 -12.869725177279562 -8.2406302748650777 #
End-of-ACIS-data 