500 0 9 0           
7 Unknown 11 ACIS 5.0 NT 24 Fri Mar 26 18:05:42 1999 
-1 9.9999999999999995e-007 1e-010 
body $-1 $9 $-1 $10 #
body $-1 $11 $-1 $12 #
body $-1 $13 $-1 $14 #
body $-1 $15 $-1 $16 #
body $-1 $17 $-1 $18 #
body $-1 $19 $-1 $20 #
body $-1 $21 $-1 $22 #
body $-1 $23 $-1 $24 #
body $-1 $25 $-1 $26 #
lump $-1 $-1 $27 $0 #
transform $-1 1 0 0 0 1 0 0 0 1 42.489089632862331 29.031639453481493 13.394672335632757 1 rotate no_reflect no_shear #
lump $-1 $-1 $28 $1 #
transform $-1 1 0 0 0 1 0 0 0 1 42.489089632862331 -7.526565597617024 24.37910487030344 1 rotate no_reflect no_shear #
lump $-1 $-1 $29 $2 #
transform $-1 0.49999998660252726 0 -0.86602541151947299 0 1 0 0.86602541151947299 0 0.49999998660252726 116.08235344012994 33.311838083904107 134.8347193841648 1 rotate no_reflect no_shear #
lump $-1 $-1 $30 $3 #
transform $-1 0.49999998660252726 0 -0.86602541151947299 0 -1 0 -0.86602541151947299 0 -0.49999998660252726 78.976498366017012 31.186450885341216 20.64528046623137 1 rotate no_reflect no_shear #
lump $-1 $-1 $31 $4 #
transform $-1 0.49999998660252726 0 -0.86602541151947299 0 -1 0 -0.86602541151947299 0 -0.49999998660252726 78.976498366017012 35.43722528246699 20.64528046623137 1 rotate no_reflect no_shear #
lump $-1 $-1 $32 $5 #
transform $-1 0.69465836192734942 0 0.71933980857756763 0 1 0 -0.71933980857756763 0 0.69465836192734942 -61.128187206276614 21.206621485483055 76.698561980105524 1 rotate no_reflect no_shear #
lump $-1 $-1 $33 $6 #
transform $-1 0.69465836192734942 0 0.71933980857756763 0 -1 0 0.71933980857756763 0 -0.69465836192734942 8.9216941768960822 21.206621485483055 17.866161220446074 1 rotate no_reflect no_shear #
lump $-1 $-1 $34 $7 #
transform $-1 0.69465836192734942 0 0.71933980857756763 0 1 0 -0.71933980857756763 0 0.69465836192734942 -61.128187206276614 42.711695341347522 76.698561980105524 1 rotate no_reflect no_shear #
lump $-1 $-1 $35 $8 #
transform $-1 0.69465836192734942 0 0.71933980857756763 0 -1 0 0.71933980857756763 0 -0.69465836192734942 8.9216941768960822 42.711695341347522 17.866161220446074 1 rotate no_reflect no_shear #
shell $-1 $-1 $-1 $36 $-1 $9 #
shell $-1 $-1 $-1 $37 $-1 $11 #
shell $-1 $-1 $-1 $38 $-1 $13 #
shell $-1 $-1 $-1 $39 $-1 $15 #
shell $-1 $-1 $-1 $40 $-1 $17 #
shell $-1 $-1 $-1 $41 $-1 $19 #
shell $-1 $-1 $-1 $42 $-1 $21 #
shell $-1 $-1 $-1 $43 $-1 $23 #
shell $-1 $-1 $-1 $44 $-1 $25 #
face $-1 $45 $46 $27 $-1 $47 forward single #
face $-1 $48 $49 $28 $-1 $50 forward single #
face $-1 $51 $52 $29 $-1 $53 forward single #
face $-1 $54 $55 $30 $-1 $56 forward single #
face $-1 $57 $58 $31 $-1 $59 forward single #
face $-1 $60 $61 $32 $-1 $62 forward single #
face $-1 $63 $64 $33 $-1 $65 forward single #
face $-1 $66 $67 $34 $-1 $68 forward single #
face $-1 $69 $70 $35 $-1 $71 forward single #
face $-1 $72 $73 $27 $-1 $74 reversed single #
loop $-1 $-1 $75 $36 #
plane-surface $-1 0 0 13.394672335632757 0 0 1 1 0 0 forward_v I I I I #
face $-1 $76 $77 $28 $-1 $78 reversed single #
loop $-1 $-1 $79 $37 #
plane-surface $-1 0 0 2.4102398009620742 0 0 1 1 0 0 forward_v I I I I #
face $-1 $80 $81 $29 $-1 $82 reversed single #
loop $-1 $-1 $83 $38 #
plane-surface $-1 0 0 84.978179265724663 0 0 1 1 0 0 forward_v I I I I #
face $-1 $84 $85 $30 $-1 $86 forward single #
loop $-1 $87 $88 $39 #
cone-surface $-1 0 0 -2.3755760368663594 0 0 1 1 0 0 1 I I 0 1 1 forward I I I I #
face $-1 $89 $90 $31 $-1 $91 forward single #
loop $-1 $92 $93 $40 #
cone-surface $-1 0 0 -2.3755760368663594 0 0 1 1 0 0 1 I I 0 1 1 forward I I I I #
face $-1 $94 $95 $32 $-1 $96 reversed single #
loop $-1 $-1 $97 $41 #
plane-surface $-1 0 0 84.978179265724663 0 0 1 1 0 0 forward_v I I I I #
face $-1 $98 $99 $33 $-1 $100 forward single #
loop $-1 $101 $102 $42 #
cone-surface $-1 0 0 -3.5149540696432382 0 0 1 1.5 0 0 1 I I 0 1 1.5 forward I I I I #
face $-1 $103 $104 $34 $-1 $105 reversed single #
loop $-1 $-1 $106 $43 #
plane-surface $-1 0 0 84.978179265724663 0 0 1 1 0 0 forward_v I I I I #
face $-1 $107 $108 $35 $-1 $109 forward single #
loop $-1 $110 $111 $44 #
cone-surface $-1 0 0 -3.5149540696432382 0 0 1 1.5 0 0 1 I I 0 1 1.5 forward I I I I #
face $-1 $112 $113 $27 $-1 $114 reversed single #
loop $-1 $-1 $115 $45 #
plane-surface $-1 0 0 -13.394672335632757 0 0 1 1 0 0 forward_v I I I I #
coedge $-1 $116 $117 $118 $119 forward $46 $-1 #
face $-1 $120 $121 $28 $-1 $122 reversed single #
loop $-1 $-1 $123 $48 #
plane-surface $-1 0 0 -2.4102398009620742 0 0 1 1 0 0 forward_v I I I I #
coedge $-1 $124 $125 $126 $127 forward $49 $-1 #
face $-1 $128 $129 $29 $-1 $130 reversed single #
loop $-1 $-1 $131 $51 #
plane-surface $-1 0 0 -84.978179265724663 0 0 1 1 0 0 forward_v I I I I #
coedge $-1 $132 $133 $134 $135 forward $52 $-1 #
face $-1 $-1 $136 $30 $-1 $137 forward single #
loop $-1 $-1 $138 $54 #
plane-surface $-1 0 0 -4.2511520737327189 0 0 -1 -1 0 0 forward_v I I I I #
loop $-1 $-1 $139 $39 #
coedge $-1 $88 $88 $138 $140 reversed $55 $-1 #
face $-1 $-1 $141 $31 $-1 $142 forward single #
loop $-1 $-1 $143 $57 #
plane-surface $-1 0 0 -4.2511520737327189 0 0 -1 -1 0 0 forward_v I I I I #
loop $-1 $-1 $144 $40 #
coedge $-1 $93 $93 $143 $145 reversed $58 $-1 #
face $-1 $146 $147 $32 $-1 $148 reversed single #
loop $-1 $-1 $149 $60 #
plane-surface $-1 0 0 -84.978179265724663 0 0 1 1 0 0 forward_v I I I I #
coedge $-1 $150 $151 $152 $153 forward $61 $-1 #
face $-1 $-1 $154 $33 $-1 $155 forward single #
loop $-1 $-1 $156 $63 #
plane-surface $-1 0 0 -6.2799081392864764 0 0 -1 -1 0 0 forward_v I I I I #
loop $-1 $-1 $157 $42 #
coedge $-1 $102 $102 $156 $158 reversed $64 $-1 #
face $-1 $159 $160 $34 $-1 $161 reversed single #
loop $-1 $-1 $162 $66 #
plane-surface $-1 0 0 -84.978179265724663 0 0 1 1 0 0 forward_v I I I I #
coedge $-1 $163 $164 $165 $166 forward $67 $-1 #
face $-1 $-1 $167 $35 $-1 $168 forward single #
loop $-1 $-1 $169 $69 #
plane-surface $-1 0 0 -6.2799081392864764 0 0 -1 -1 0 0 forward_v I I I I #
loop $-1 $-1 $170 $44 #
coedge $-1 $111 $111 $169 $171 reversed $70 $-1 #
face $-1 $172 $173 $27 $-1 $174 reversed single #
loop $-1 $-1 $175 $72 #
plane-surface $-1 0 -29.031639453481493 0 0 1 0 0 0 1 forward_v I I I I #
coedge $-1 $176 $177 $178 $179 forward $73 $-1 #
coedge $-1 $180 $75 $181 $182 forward $46 $-1 #
coedge $-1 $75 $180 $183 $184 forward $46 $-1 #
coedge $-1 $185 $186 $75 $119 reversed $187 $-1 #
edge $-1 $188 -29.031639453481493 $189 29.031639453481493 $118 $190 forward 7 unknown #
face $-1 $191 $192 $28 $-1 $193 reversed single #
loop $-1 $-1 $194 $76 #
plane-surface $-1 0 -7.526565597617024 0 0 1 0 0 0 1 forward_v I I I I #
coedge $-1 $195 $196 $197 $198 forward $77 $-1 #
coedge $-1 $199 $79 $200 $201 forward $49 $-1 #
coedge $-1 $79 $199 $202 $203 forward $49 $-1 #
coedge $-1 $204 $205 $79 $127 reversed $206 $-1 #
edge $-1 $207 -7.526565597617024 $208 7.526565597617024 $126 $209 forward 7 unknown #
face $-1 $210 $211 $29 $-1 $212 reversed single #
loop $-1 $-1 $213 $80 #
plane-surface $-1 0 -4.9592367966467386 0 0 1 0 0 0 1 forward_v I I I I #
coedge $-1 $214 $215 $216 $217 forward $81 $-1 #
coedge $-1 $218 $83 $219 $220 forward $52 $-1 #
coedge $-1 $83 $218 $221 $222 forward $52 $-1 #
coedge $-1 $223 $224 $83 $135 reversed $225 $-1 #
edge $-1 $226 -4.9592367966467386 $227 4.9592367966467386 $134 $228 forward 7 unknown #
loop $-1 $229 $230 $84 #
cone-surface $-1 0 0 0 0 0 1 0.5 0 0 1 I I -0.70710678118654746 0.70710678118654746 0.5 forward I I I I #
coedge $-1 $138 $138 $88 $140 forward $85 $-1 #
coedge $-1 $139 $139 $230 $231 forward $87 $-1 #
edge $-1 $232 0 $232 6.2831853071796004 $138 $233 forward 7 unknown #
loop $-1 $234 $235 $89 #
cone-surface $-1 0 0 0 0 0 1 0.5 0 0 1 I I -0.70710678118654746 0.70710678118654746 0.5 forward I I I I #
coedge $-1 $143 $143 $93 $145 forward $90 $-1 #
coedge $-1 $144 $144 $235 $236 forward $92 $-1 #
edge $-1 $237 0 $237 6.2831853071796004 $143 $238 forward 7 unknown #
face $-1 $239 $240 $32 $-1 $241 reversed single #
loop $-1 $-1 $242 $94 #
plane-surface $-1 0 -4.0244924646885369 0 0 1 0 0 0 1 forward_v I I I I #
coedge $-1 $243 $244 $245 $246 forward $95 $-1 #
coedge $-1 $247 $97 $248 $249 forward $61 $-1 #
coedge $-1 $97 $247 $250 $251 forward $61 $-1 #
coedge $-1 $252 $253 $97 $153 reversed $254 $-1 #
edge $-1 $255 -4.0244924646885369 $256 4.0244924646885369 $152 $257 forward 7 unknown #
loop $-1 $258 $259 $98 #
cone-surface $-1 0 0 0 0 0 1 0.75 0 0 1 I I -0.70710678118654757 0.70710678118654757 0.75 forward I I I I #
coedge $-1 $156 $156 $102 $158 forward $99 $-1 #
coedge $-1 $157 $157 $259 $260 forward $101 $-1 #
edge $-1 $261 0 $261 6.2831853071796004 $156 $262 forward 7 unknown #
face $-1 $263 $264 $34 $-1 $265 reversed single #
loop $-1 $-1 $266 $103 #
plane-surface $-1 0 -4.0244924646885369 0 0 1 0 0 0 1 forward_v I I I I #
coedge $-1 $267 $268 $269 $270 forward $104 $-1 #
coedge $-1 $271 $106 $272 $273 forward $67 $-1 #
coedge $-1 $106 $271 $274 $275 forward $67 $-1 #
coedge $-1 $276 $277 $106 $166 reversed $278 $-1 #
edge $-1 $279 -4.0244924646885369 $280 4.0244924646885369 $165 $281 forward 7 unknown #
loop $-1 $282 $283 $107 #
cone-surface $-1 0 0 0 0 0 1 0.75 0 0 1 I I -0.70710678118654757 0.70710678118654757 0.75 forward I I I I #
coedge $-1 $169 $169 $111 $171 forward $108 $-1 #
coedge $-1 $170 $170 $283 $284 forward $110 $-1 #
edge $-1 $285 0 $285 6.2831853071796004 $169 $286 forward 7 unknown #
face $-1 $287 $288 $27 $-1 $289 reversed single #
loop $-1 $-1 $290 $112 #
plane-surface $-1 -42.489089632862331 0 0 1 0 0 0 0 -1 forward_v I I I I #
coedge $-1 $291 $183 $292 $293 forward $113 $-1 #
coedge $-1 $294 $115 $291 $295 forward $73 $-1 #
coedge $-1 $115 $294 $296 $297 forward $73 $-1 #
coedge $-1 $186 $185 $115 $179 reversed $187 $-1 #
edge $-1 $298 -29.031639453481493 $299 29.031639453481493 $178 $300 forward 7 unknown #
coedge $-1 $117 $116 $301 $302 forward $46 $-1 #
coedge $-1 $303 $304 $116 $182 reversed $288 $-1 #
edge $-1 $189 -42.489089632862331 $305 42.489089632862331 $181 $306 forward 7 unknown #
coedge $-1 $175 $307 $117 $184 reversed $113 $-1 #
edge $-1 $308 -42.489089632862331 $188 42.489089632862331 $183 $309 forward 7 unknown #
coedge $-1 $178 $118 $307 $310 forward $187 $-1 #
coedge $-1 $118 $178 $303 $311 reversed $187 $-1 #
loop $-1 $-1 $185 $287 #
vertex $-1 $119 $312 #
vertex $-1 $119 $313 #
straight-curve $-1 42.489089632862331 0 13.394672335632757 0 1 0 I I #
face $-1 $314 $315 $28 $-1 $316 reversed single #
loop $-1 $-1 $317 $120 #
plane-surface $-1 -42.489089632862331 0 0 1 0 0 0 0 -1 forward_v I I I I #
coedge $-1 $318 $202 $319 $320 forward $121 $-1 #
coedge $-1 $321 $123 $318 $322 forward $77 $-1 #
coedge $-1 $123 $321 $323 $324 forward $77 $-1 #
coedge $-1 $205 $204 $123 $198 reversed $206 $-1 #
edge $-1 $325 -7.526565597617024 $326 7.526565597617024 $197 $327 forward 7 unknown #
coedge $-1 $125 $124 $328 $329 forward $49 $-1 #
coedge $-1 $330 $331 $124 $201 reversed $315 $-1 #
edge $-1 $208 -42.489089632862331 $332 42.489089632862331 $200 $333 forward 7 unknown #
coedge $-1 $194 $334 $125 $203 reversed $121 $-1 #
edge $-1 $335 -42.489089632862331 $207 42.489089632862331 $202 $336 forward 7 unknown #
coedge $-1 $197 $126 $334 $337 forward $206 $-1 #
coedge $-1 $126 $197 $330 $338 reversed $206 $-1 #
loop $-1 $-1 $204 $314 #
vertex $-1 $127 $339 #
vertex $-1 $127 $340 #
straight-curve $-1 42.489089632862331 0 2.4102398009620742 0 1 0 I I #
face $-1 $341 $342 $29 $-1 $343 reversed single #
loop $-1 $-1 $344 $128 #
plane-surface $-1 -169.95635853144933 0 0 1 0 0 0 0 -1 forward_v I I I I #
coedge $-1 $345 $221 $346 $347 forward $129 $-1 #
coedge $-1 $348 $131 $345 $349 forward $81 $-1 #
coedge $-1 $131 $348 $350 $351 forward $81 $-1 #
coedge $-1 $224 $223 $131 $217 reversed $225 $-1 #
edge $-1 $352 -4.9592367966467386 $353 4.9592367966467386 $216 $354 forward 7 unknown #
coedge $-1 $133 $132 $355 $356 forward $52 $-1 #
coedge $-1 $357 $358 $132 $220 reversed $342 $-1 #
edge $-1 $227 -169.95635853144933 $359 169.95635853144933 $219 $360 forward 7 unknown #
coedge $-1 $213 $361 $133 $222 reversed $129 $-1 #
edge $-1 $362 -169.95635853144933 $226 169.95635853144933 $221 $363 forward 7 unknown #
coedge $-1 $216 $134 $361 $364 forward $225 $-1 #
coedge $-1 $134 $216 $357 $365 reversed $225 $-1 #
loop $-1 $-1 $223 $341 #
vertex $-1 $135 $366 #
vertex $-1 $135 $367 #
straight-curve $-1 169.95635853144933 0 84.978179265724663 0 1 0 I I #
loop $-1 $-1 $368 $84 #
coedge $-1 $230 $230 $139 $231 reversed $136 $-1 #
edge $-1 $369 0 $369 6.2831853071796004 $230 $370 forward 7 unknown #
vertex $-1 $140 $371 #
ellipse-curve $-1 0 0 -4.2511520737327189 0 0 -1 1 0 0 1 I I #
loop $-1 $-1 $372 $89 #
coedge $-1 $235 $235 $144 $236 reversed $141 $-1 #
edge $-1 $373 0 $373 6.2831853071796004 $235 $374 forward 7 unknown #
vertex $-1 $145 $375 #
ellipse-curve $-1 0 0 -4.2511520737327189 0 0 -1 1 0 0 1 I I #
face $-1 $376 $377 $32 $-1 $378 reversed single #
loop $-1 $-1 $379 $146 #
plane-surface $-1 -169.95635853144933 0 0 1 0 0 0 0 -1 forward_v I I I I #
coedge $-1 $380 $250 $381 $382 forward $147 $-1 #
coedge $-1 $383 $149 $380 $384 forward $95 $-1 #
coedge $-1 $149 $383 $385 $386 forward $95 $-1 #
coedge $-1 $253 $252 $149 $246 reversed $254 $-1 #
edge $-1 $387 -4.0244924646885369 $388 4.0244924646885369 $245 $389 forward 7 unknown #
coedge $-1 $151 $150 $390 $391 forward $61 $-1 #
coedge $-1 $392 $393 $150 $249 reversed $377 $-1 #
edge $-1 $256 -169.95635853144933 $394 169.95635853144933 $248 $395 forward 7 unknown #
coedge $-1 $242 $396 $151 $251 reversed $147 $-1 #
edge $-1 $397 -169.95635853144933 $255 169.95635853144933 $250 $398 forward 7 unknown #
coedge $-1 $245 $152 $396 $399 forward $254 $-1 #
coedge $-1 $152 $245 $392 $400 reversed $254 $-1 #
loop $-1 $-1 $252 $376 #
vertex $-1 $153 $401 #
vertex $-1 $153 $402 #
straight-curve $-1 169.95635853144933 0 84.978179265724663 0 1 0 I I #
loop $-1 $-1 $403 $98 #
coedge $-1 $259 $259 $157 $260 reversed $154 $-1 #
edge $-1 $404 0 $404 6.2831853071796004 $259 $405 forward 7 unknown #
vertex $-1 $158 $406 #
ellipse-curve $-1 0 0 -6.2799081392864764 0 0 -1 1.5 0 0 1 I I #
face $-1 $407 $408 $34 $-1 $409 reversed single #
loop $-1 $-1 $410 $159 #
plane-surface $-1 -169.95635853144933 0 0 1 0 0 0 0 -1 forward_v I I I I #
coedge $-1 $411 $274 $412 $413 forward $160 $-1 #
coedge $-1 $414 $162 $411 $415 forward $104 $-1 #
coedge $-1 $162 $414 $416 $417 forward $104 $-1 #
coedge $-1 $277 $276 $162 $270 reversed $278 $-1 #
edge $-1 $418 -4.0244924646885369 $419 4.0244924646885369 $269 $420 forward 7 unknown #
coedge $-1 $164 $163 $421 $422 forward $67 $-1 #
coedge $-1 $423 $424 $163 $273 reversed $408 $-1 #
edge $-1 $280 -169.95635853144933 $425 169.95635853144933 $272 $426 forward 7 unknown #
coedge $-1 $266 $427 $164 $275 reversed $160 $-1 #
edge $-1 $428 -169.95635853144933 $279 169.95635853144933 $274 $429 forward 7 unknown #
coedge $-1 $269 $165 $427 $430 forward $278 $-1 #
coedge $-1 $165 $269 $423 $431 reversed $278 $-1 #
loop $-1 $-1 $276 $407 #
vertex $-1 $166 $432 #
vertex $-1 $166 $433 #
straight-curve $-1 169.95635853144933 0 84.978179265724663 0 1 0 I I #
loop $-1 $-1 $434 $107 #
coedge $-1 $283 $283 $170 $284 reversed $167 $-1 #
edge $-1 $435 0 $435 6.2831853071796004 $283 $436 forward 7 unknown #
vertex $-1 $171 $437 #
ellipse-curve $-1 0 0 -6.2799081392864764 0 0 -1 1.5 0 0 1 I I #
face $-1 $-1 $187 $27 $-1 $438 reversed single #
loop $-1 $-1 $303 $172 #
plane-surface $-1 0 29.031639453481493 0 0 -1 0 0 0 -1 forward_v I I I I #
coedge $-1 $439 $301 $304 $440 forward $173 $-1 #
coedge $-1 $307 $175 $176 $295 reversed $113 $-1 #
coedge $-1 $301 $439 $175 $293 reversed $173 $-1 #
edge $-1 $308 -13.394672335632757 $441 13.394672335632757 $292 $442 forward 7 unknown #
coedge $-1 $177 $176 $439 $443 forward $73 $-1 #
edge $-1 $299 -42.489089632862331 $441 42.489089632862331 $291 $444 forward 7 unknown #
coedge $-1 $304 $303 $177 $297 reversed $288 $-1 #
edge $-1 $445 -42.489089632862331 $298 42.489089632862331 $296 $446 forward 7 unknown #
vertex $-1 $179 $447 #
vertex $-1 $310 $448 #
straight-curve $-1 42.489089632862331 0 -13.394672335632757 0 -1 0 I I #
coedge $-1 $290 $292 $180 $302 reversed $173 $-1 #
edge $-1 $305 -29.031639453481493 $308 29.031639453481493 $301 $449 forward 7 unknown #
coedge $-1 $296 $181 $186 $311 forward $288 $-1 #
coedge $-1 $181 $296 $290 $440 reversed $288 $-1 #
vertex $-1 $182 $450 #
straight-curve $-1 0 29.031639453481493 13.394672335632757 -1 0 0 I I #
coedge $-1 $183 $291 $185 $310 reversed $113 $-1 #
vertex $-1 $302 $451 #
straight-curve $-1 0 -29.031639453481493 13.394672335632757 1 0 0 I I #
edge $-1 $188 -13.394672335632757 $299 13.394672335632757 $185 $452 forward 7 unknown #
edge $-1 $189 -13.394672335632757 $298 13.394672335632757 $186 $453 forward 7 unknown #
point $-1 42.489089632862331 -29.031639453481493 13.394672335632757 #
point $-1 42.489089632862331 29.031639453481493 13.394672335632757 #
face $-1 $-1 $206 $28 $-1 $454 reversed single #
loop $-1 $-1 $330 $191 #
plane-surface $-1 0 7.526565597617024 0 0 -1 0 0 0 -1 forward_v I I I I #
coedge $-1 $455 $328 $331 $456 forward $192 $-1 #
coedge $-1 $334 $194 $195 $322 reversed $121 $-1 #
coedge $-1 $328 $455 $194 $320 reversed $192 $-1 #
edge $-1 $335 -2.4102398009620742 $457 2.4102398009620742 $319 $458 forward 7 unknown #
coedge $-1 $196 $195 $455 $459 forward $77 $-1 #
edge $-1 $326 -42.489089632862331 $457 42.489089632862331 $318 $460 forward 7 unknown #
coedge $-1 $331 $330 $196 $324 reversed $315 $-1 #
edge $-1 $461 -42.489089632862331 $325 42.489089632862331 $323 $462 forward 7 unknown #
vertex $-1 $198 $463 #
vertex $-1 $337 $464 #
straight-curve $-1 42.489089632862331 0 -2.4102398009620742 0 -1 0 I I #
coedge $-1 $317 $319 $199 $329 reversed $192 $-1 #
edge $-1 $332 -7.526565597617024 $335 7.526565597617024 $328 $465 forward 7 unknown #
coedge $-1 $323 $200 $205 $338 forward $315 $-1 #
coedge $-1 $200 $323 $317 $456 reversed $315 $-1 #
vertex $-1 $201 $466 #
straight-curve $-1 0 7.526565597617024 2.4102398009620742 -1 0 0 I I #
coedge $-1 $202 $318 $204 $337 reversed $121 $-1 #
vertex $-1 $329 $467 #
straight-curve $-1 0 -7.526565597617024 2.4102398009620742 1 0 0 I I #
edge $-1 $207 -2.4102398009620742 $326 2.4102398009620742 $204 $468 forward 7 unknown #
edge $-1 $208 -2.4102398009620742 $325 2.4102398009620742 $205 $469 forward 7 unknown #
point $-1 42.489089632862331 -7.526565597617024 2.4102398009620742 #
point $-1 42.489089632862331 7.526565597617024 2.4102398009620742 #
face $-1 $-1 $225 $29 $-1 $470 reversed single #
loop $-1 $-1 $357 $210 #
plane-surface $-1 0 4.9592367966467386 0 0 -1 0 0 0 -1 forward_v I I I I #
coedge $-1 $471 $355 $358 $472 forward $211 $-1 #
coedge $-1 $361 $213 $214 $349 reversed $129 $-1 #
coedge $-1 $355 $471 $213 $347 reversed $211 $-1 #
edge $-1 $362 -84.978179265724663 $473 84.978179265724663 $346 $474 forward 7 unknown #
coedge $-1 $215 $214 $471 $475 forward $81 $-1 #
edge $-1 $353 -169.95635853144933 $473 169.95635853144933 $345 $476 forward 7 unknown #
coedge $-1 $358 $357 $215 $351 reversed $342 $-1 #
edge $-1 $477 -169.95635853144933 $352 169.95635853144933 $350 $478 forward 7 unknown #
vertex $-1 $217 $479 #
vertex $-1 $364 $480 #
straight-curve $-1 169.95635853144933 0 -84.978179265724663 0 -1 0 I I #
coedge $-1 $344 $346 $218 $356 reversed $211 $-1 #
edge $-1 $359 -4.9592367966467386 $362 4.9592367966467386 $355 $481 forward 7 unknown #
coedge $-1 $350 $219 $224 $365 forward $342 $-1 #
coedge $-1 $219 $350 $344 $472 reversed $342 $-1 #
vertex $-1 $220 $482 #
straight-curve $-1 0 4.9592367966467386 84.978179265724663 -1 0 0 I I #
coedge $-1 $221 $345 $223 $364 reversed $129 $-1 #
vertex $-1 $356 $483 #
straight-curve $-1 0 -4.9592367966467386 84.978179265724663 1 0 0 I I #
edge $-1 $226 -84.978179265724663 $353 84.978179265724663 $223 $484 forward 7 unknown #
edge $-1 $227 -84.978179265724663 $352 84.978179265724663 $224 $485 forward 7 unknown #
point $-1 169.95635853144933 -4.9592367966467386 84.978179265724663 #
point $-1 169.95635853144933 4.9592367966467386 84.978179265724663 #
coedge $-1 $368 $368 $-1 $486 reversed $229 $-1 #
vertex $-1 $231 $487 #
ellipse-curve $-1 0 0 -0.5 0 0 -1 1 0 0 1 I I #
point $-1 1 0 -4.2511520737327189 #
coedge $-1 $372 $372 $-1 $488 reversed $234 $-1 #
vertex $-1 $236 $489 #
ellipse-curve $-1 0 0 -0.5 0 0 -1 1 0 0 1 I I #
point $-1 1 0 -4.2511520737327189 #
face $-1 $-1 $254 $32 $-1 $490 reversed single #
loop $-1 $-1 $392 $239 #
plane-surface $-1 0 4.0244924646885369 0 0 -1 0 0 0 -1 forward_v I I I I #
coedge $-1 $491 $390 $393 $492 forward $240 $-1 #
coedge $-1 $396 $242 $243 $384 reversed $147 $-1 #
coedge $-1 $390 $491 $242 $382 reversed $240 $-1 #
edge $-1 $397 -84.978179265724663 $493 84.978179265724663 $381 $494 forward 7 unknown #
coedge $-1 $244 $243 $491 $495 forward $95 $-1 #
edge $-1 $388 -169.95635853144933 $493 169.95635853144933 $380 $496 forward 7 unknown #
coedge $-1 $393 $392 $244 $386 reversed $377 $-1 #
edge $-1 $497 -169.95635853144933 $387 169.95635853144933 $385 $498 forward 7 unknown #
vertex $-1 $246 $499 #
vertex $-1 $399 $500 #
straight-curve $-1 169.95635853144933 0 -84.978179265724663 0 -1 0 I I #
coedge $-1 $379 $381 $247 $391 reversed $240 $-1 #
edge $-1 $394 -4.0244924646885369 $397 4.0244924646885369 $390 $501 forward 7 unknown #
coedge $-1 $385 $248 $253 $400 forward $377 $-1 #
coedge $-1 $248 $385 $379 $492 reversed $377 $-1 #
vertex $-1 $249 $502 #
straight-curve $-1 0 4.0244924646885369 84.978179265724663 -1 0 0 I I #
coedge $-1 $250 $380 $252 $399 reversed $147 $-1 #
vertex $-1 $391 $503 #
straight-curve $-1 0 -4.0244924646885369 84.978179265724663 1 0 0 I I #
edge $-1 $255 -84.978179265724663 $388 84.978179265724663 $252 $504 forward 7 unknown #
edge $-1 $256 -84.978179265724663 $387 84.978179265724663 $253 $505 forward 7 unknown #
point $-1 169.95635853144933 -4.0244924646885369 84.978179265724663 #
point $-1 169.95635853144933 4.0244924646885369 84.978179265724663 #
coedge $-1 $403 $403 $-1 $506 reversed $258 $-1 #
vertex $-1 $260 $507 #
ellipse-curve $-1 0 0 -0.75 0 0 -1 1.5 0 0 1 I I #
point $-1 1.5 0 -6.2799081392864764 #
face $-1 $-1 $278 $34 $-1 $508 reversed single #
loop $-1 $-1 $423 $263 #
plane-surface $-1 0 4.0244924646885369 0 0 -1 0 0 0 -1 forward_v I I I I #
coedge $-1 $509 $421 $424 $510 forward $264 $-1 #
coedge $-1 $427 $266 $267 $415 reversed $160 $-1 #
coedge $-1 $421 $509 $266 $413 reversed $264 $-1 #
edge $-1 $428 -84.978179265724663 $511 84.978179265724663 $412 $512 forward 7 unknown #
coedge $-1 $268 $267 $509 $513 forward $104 $-1 #
edge $-1 $419 -169.95635853144933 $511 169.95635853144933 $411 $514 forward 7 unknown #
coedge $-1 $424 $423 $268 $417 reversed $408 $-1 #
edge $-1 $515 -169.95635853144933 $418 169.95635853144933 $416 $516 forward 7 unknown #
vertex $-1 $270 $517 #
vertex $-1 $430 $518 #
straight-curve $-1 169.95635853144933 0 -84.978179265724663 0 -1 0 I I #
coedge $-1 $410 $412 $271 $422 reversed $264 $-1 #
edge $-1 $425 -4.0244924646885369 $428 4.0244924646885369 $421 $519 forward 7 unknown #
coedge $-1 $416 $272 $277 $431 forward $408 $-1 #
coedge $-1 $272 $416 $410 $510 reversed $408 $-1 #
vertex $-1 $273 $520 #
straight-curve $-1 0 4.0244924646885369 84.978179265724663 -1 0 0 I I #
coedge $-1 $274 $411 $276 $430 reversed $160 $-1 #
vertex $-1 $422 $521 #
straight-curve $-1 0 -4.0244924646885369 84.978179265724663 1 0 0 I I #
edge $-1 $279 -84.978179265724663 $419 84.978179265724663 $276 $522 forward 7 unknown #
edge $-1 $280 -84.978179265724663 $418 84.978179265724663 $277 $523 forward 7 unknown #
point $-1 169.95635853144933 -4.0244924646885369 84.978179265724663 #
point $-1 169.95635853144933 4.0244924646885369 84.978179265724663 #
coedge $-1 $434 $434 $-1 $524 reversed $282 $-1 #
vertex $-1 $284 $525 #
ellipse-curve $-1 0 0 -0.75 0 0 -1 1.5 0 0 1 I I #
point $-1 1.5 0 -6.2799081392864764 #
plane-surface $-1 42.489089632862331 0 0 -1 0 0 0 0 1 forward_v I I I I #
coedge $-1 $292 $290 $294 $443 reversed $173 $-1 #
edge $-1 $305 -13.394672335632757 $445 13.394672335632757 $304 $526 forward 7 unknown #
vertex $-1 $443 $527 #
straight-curve $-1 -42.489089632862331 -29.031639453481493 0 0 0 -1 I I #
edge $-1 $441 -29.031639453481493 $445 29.031639453481493 $439 $528 forward 7 unknown #
straight-curve $-1 0 -29.031639453481493 -13.394672335632757 -1 0 0 I I #
vertex $-1 $297 $529 #
straight-curve $-1 0 29.031639453481493 -13.394672335632757 1 0 0 I I #
point $-1 42.489089632862331 29.031639453481493 -13.394672335632757 #
point $-1 42.489089632862331 -29.031639453481493 -13.394672335632757 #
straight-curve $-1 -42.489089632862331 0 13.394672335632757 0 -1 0 I I #
point $-1 -42.489089632862331 29.031639453481493 13.394672335632757 #
point $-1 -42.489089632862331 -29.031639453481493 13.394672335632757 #
straight-curve $-1 42.489089632862331 -29.031639453481493 0 0 0 -1 I I #
straight-curve $-1 42.489089632862331 29.031639453481493 0 0 0 -1 I I #
plane-surface $-1 42.489089632862331 0 0 -1 0 0 0 0 1 forward_v I I I I #
coedge $-1 $319 $317 $321 $459 reversed $192 $-1 #
edge $-1 $332 -2.4102398009620742 $461 2.4102398009620742 $331 $530 forward 7 unknown #
vertex $-1 $459 $531 #
straight-curve $-1 -42.489089632862331 -7.526565597617024 0 0 0 -1 I I #
edge $-1 $457 -7.526565597617024 $461 7.526565597617024 $455 $532 forward 7 unknown #
straight-curve $-1 0 -7.526565597617024 -2.4102398009620742 -1 0 0 I I #
vertex $-1 $324 $533 #
straight-curve $-1 0 7.526565597617024 -2.4102398009620742 1 0 0 I I #
point $-1 42.489089632862331 7.526565597617024 -2.4102398009620742 #
point $-1 42.489089632862331 -7.526565597617024 -2.4102398009620742 #
straight-curve $-1 -42.489089632862331 0 2.4102398009620742 0 -1 0 I I #
point $-1 -42.489089632862331 7.526565597617024 2.4102398009620742 #
point $-1 -42.489089632862331 -7.526565597617024 2.4102398009620742 #
straight-curve $-1 42.489089632862331 -7.526565597617024 0 0 0 -1 I I #
straight-curve $-1 42.489089632862331 7.526565597617024 0 0 0 -1 I I #
plane-surface $-1 169.95635853144933 0 0 -1 0 0 0 0 1 forward_v I I I I #
coedge $-1 $346 $344 $348 $475 reversed $211 $-1 #
edge $-1 $359 -84.978179265724663 $477 84.978179265724663 $358 $534 forward 7 unknown #
vertex $-1 $475 $535 #
straight-curve $-1 -169.95635853144933 -4.9592367966467386 0 0 0 -1 I I #
edge $-1 $473 -4.9592367966467386 $477 4.9592367966467386 $471 $536 forward 7 unknown #
straight-curve $-1 0 -4.9592367966467386 -84.978179265724663 -1 0 0 I I #
vertex $-1 $351 $537 #
straight-curve $-1 0 4.9592367966467386 -84.978179265724663 1 0 0 I I #
point $-1 169.95635853144933 4.9592367966467386 -84.978179265724663 #
point $-1 169.95635853144933 -4.9592367966467386 -84.978179265724663 #
straight-curve $-1 -169.95635853144933 0 84.978179265724663 0 -1 0 I I #
point $-1 -169.95635853144933 4.9592367966467386 84.978179265724663 #
point $-1 -169.95635853144933 -4.9592367966467386 84.978179265724663 #
straight-curve $-1 169.95635853144933 -4.9592367966467386 0 0 0 -1 I I #
straight-curve $-1 169.95635853144933 4.9592367966467386 0 0 0 -1 I I #
edge $-1 $538 1 $538 0 $368 $-1 forward 7 unknown #
point $-1 1 0 -0.5 #
edge $-1 $539 1 $539 0 $372 $-1 forward 7 unknown #
point $-1 1 0 -0.5 #
plane-surface $-1 169.95635853144933 0 0 -1 0 0 0 0 1 forward_v I I I I #
coedge $-1 $381 $379 $383 $495 reversed $240 $-1 #
edge $-1 $394 -84.978179265724663 $497 84.978179265724663 $393 $540 forward 7 unknown #
vertex $-1 $495 $541 #
straight-curve $-1 -169.95635853144933 -4.0244924646885369 0 0 0 -1 I I #
edge $-1 $493 -4.0244924646885369 $497 4.0244924646885369 $491 $542 forward 7 unknown #
straight-curve $-1 0 -4.0244924646885369 -84.978179265724663 -1 0 0 I I #
vertex $-1 $386 $543 #
straight-curve $-1 0 4.0244924646885369 -84.978179265724663 1 0 0 I I #
point $-1 169.95635853144933 4.0244924646885369 -84.978179265724663 #
point $-1 169.95635853144933 -4.0244924646885369 -84.978179265724663 #
straight-curve $-1 -169.95635853144933 0 84.978179265724663 0 -1 0 I I #
point $-1 -169.95635853144933 4.0244924646885369 84.978179265724663 #
point $-1 -169.95635853144933 -4.0244924646885369 84.978179265724663 #
straight-curve $-1 169.95635853144933 -4.0244924646885369 0 0 0 -1 I I #
straight-curve $-1 169.95635853144933 4.0244924646885369 0 0 0 -1 I I #
edge $-1 $544 1 $544 0 $403 $-1 forward 7 unknown #
point $-1 1.5 0 -0.75 #
plane-surface $-1 169.95635853144933 0 0 -1 0 0 0 0 1 forward_v I I I I #
coedge $-1 $412 $410 $414 $513 reversed $264 $-1 #
edge $-1 $425 -84.978179265724663 $515 84.978179265724663 $424 $545 forward 7 unknown #
vertex $-1 $513 $546 #
straight-curve $-1 -169.95635853144933 -4.0244924646885369 0 0 0 -1 I I #
edge $-1 $511 -4.0244924646885369 $515 4.0244924646885369 $509 $547 forward 7 unknown #
straight-curve $-1 0 -4.0244924646885369 -84.978179265724663 -1 0 0 I I #
vertex $-1 $417 $548 #
straight-curve $-1 0 4.0244924646885369 -84.978179265724663 1 0 0 I I #
point $-1 169.95635853144933 4.0244924646885369 -84.978179265724663 #
point $-1 169.95635853144933 -4.0244924646885369 -84.978179265724663 #
straight-curve $-1 -169.95635853144933 0 84.978179265724663 0 -1 0 I I #
point $-1 -169.95635853144933 4.0244924646885369 84.978179265724663 #
point $-1 -169.95635853144933 -4.0244924646885369 84.978179265724663 #
straight-curve $-1 169.95635853144933 -4.0244924646885369 0 0 0 -1 I I #
straight-curve $-1 169.95635853144933 4.0244924646885369 0 0 0 -1 I I #
edge $-1 $549 1 $549 0 $434 $-1 forward 7 unknown #
point $-1 1.5 0 -0.75 #
straight-curve $-1 -42.489089632862331 29.031639453481493 0 0 0 -1 I I #
point $-1 -42.489089632862331 -29.031639453481493 -13.394672335632757 #
straight-curve $-1 -42.489089632862331 0 -13.394672335632757 0 1 0 I I #
point $-1 -42.489089632862331 29.031639453481493 -13.394672335632757 #
straight-curve $-1 -42.489089632862331 7.526565597617024 0 0 0 -1 I I #
point $-1 -42.489089632862331 -7.526565597617024 -2.4102398009620742 #
straight-curve $-1 -42.489089632862331 0 -2.4102398009620742 0 1 0 I I #
point $-1 -42.489089632862331 7.526565597617024 -2.4102398009620742 #
straight-curve $-1 -169.95635853144933 4.9592367966467386 0 0 0 -1 I I #
point $-1 -169.95635853144933 -4.9592367966467386 -84.978179265724663 #
straight-curve $-1 -169.95635853144933 0 -84.978179265724663 0 1 0 I I #
point $-1 -169.95635853144933 4.9592367966467386 -84.978179265724663 #
vertex $-1 $486 $550 #
vertex $-1 $488 $551 #
straight-curve $-1 -169.95635853144933 4.0244924646885369 0 0 0 -1 I I #
point $-1 -169.95635853144933 -4.0244924646885369 -84.978179265724663 #
straight-curve $-1 -169.95635853144933 0 -84.978179265724663 0 1 0 I I #
point $-1 -169.95635853144933 4.0244924646885369 -84.978179265724663 #
vertex $-1 $506 $552 #
straight-curve $-1 -169.95635853144933 4.0244924646885369 0 0 0 -1 I I #
point $-1 -169.95635853144933 -4.0244924646885369 -84.978179265724663 #
straight-curve $-1 -169.95635853144933 0 -84.978179265724663 0 1 0 I I #
point $-1 -169.95635853144933 4.0244924646885369 -84.978179265724663 #
vertex $-1 $524 $553 #
point $-1 0 0 0.5 #
point $-1 0 0 0.5 #
point $-1 0 0 0.75 #
point $-1 0 0 0.75 #
End-of-ACIS-data 