500 0 12 0           
7 Unknown 11 ACIS 5.0 NT 24 Fri Mar 26 15:11:13 1999 
-1 9.9999999999999995e-007 1e-010 
body $-1 $12 $-1 $13 #
body $-1 $14 $-1 $15 #
body $-1 $16 $-1 $17 #
body $-1 $18 $-1 $19 #
body $-1 $20 $-1 $21 #
body $-1 $22 $-1 $23 #
body $-1 $24 $-1 $25 #
body $-1 $26 $-1 $27 #
body $-1 $28 $-1 $29 #
body $-1 $30 $-1 $31 #
body $-1 $32 $-1 $33 #
body $-1 $34 $-1 $35 #
lump $-1 $-1 $36 $0 #
transform $-1 1 0 0 0 1 0 0 0 1 67.513046662800988 45.106223259439048 11.152182290536805 1 rotate no_reflect no_shear #
lump $-1 $-1 $37 $1 #
transform $-1 1 0 0 0 1 0 0 0 1 67.513046662800988 45.106223259439048 11.152182290536805 1 rotate no_reflect no_shear #
lump $-1 $-1 $38 $2 #
transform $-1 1 0 0 0 1 0 0 0 1 67.513046662800988 45.106223259439048 11.152182290536805 1 rotate no_reflect no_shear #
lump $-1 $-1 $39 $3 #
transform $-1 1 0 0 0 1 0 0 0 1 67.513046662800988 45.106223259439048 11.152182290536805 1 rotate no_reflect no_shear #
lump $-1 $-1 $40 $4 #
transform $-1 1 0 0 0 1 0 0 0 1 67.513046662800988 45.106223259439048 11.152182290536805 1 rotate no_reflect no_shear #
lump $-1 $-1 $41 $5 #
transform $-1 1 0 0 0 1 0 0 0 1 67.513046662800988 45.106223259439048 11.152182290536805 1 rotate no_reflect no_shear #
lump $-1 $-1 $42 $6 #
transform $-1 1 0 0 0 1 0 0 0 1 67.513046662800988 45.106223259439048 11.152182290536805 1 rotate no_reflect no_shear #
lump $-1 $-1 $43 $7 #
transform $-1 1 0 0 0 1 0 0 0 1 67.513046662800988 45.106223259439048 11.152182290536805 1 rotate no_reflect no_shear #
lump $-1 $-1 $44 $8 #
transform $-1 1 0 0 0 1 0 0 0 1 67.513046662800988 45.106223259439048 11.152182290536805 1 rotate no_reflect no_shear #
lump $-1 $-1 $45 $9 #
transform $-1 1 0 0 0 1 0 0 0 1 67.513046662800988 45.106223259439048 11.152182290536805 1 rotate no_reflect no_shear #
lump $-1 $-1 $46 $10 #
transform $-1 1 0 0 0 1 0 0 0 1 67.513046662800988 45.106223259439048 11.152182290536805 1 rotate no_reflect no_shear #
lump $-1 $-1 $47 $11 #
transform $-1 1 0 0 0 1 0 0 0 1 67.513046662800988 45.106223259439048 11.152182290536805 1 rotate no_reflect no_shear #
shell $-1 $-1 $-1 $48 $-1 $12 #
shell $-1 $-1 $-1 $49 $-1 $14 #
shell $-1 $-1 $-1 $50 $-1 $16 #
shell $-1 $-1 $-1 $51 $-1 $18 #
shell $-1 $-1 $-1 $52 $-1 $20 #
shell $-1 $-1 $-1 $53 $-1 $22 #
shell $-1 $-1 $-1 $54 $-1 $24 #
shell $-1 $-1 $-1 $55 $-1 $26 #
shell $-1 $-1 $-1 $56 $-1 $28 #
shell $-1 $-1 $-1 $57 $-1 $30 #
shell $-1 $-1 $-1 $58 $-1 $32 #
shell $-1 $-1 $-1 $59 $-1 $34 #
face $-1 $60 $61 $36 $-1 $62 forward single #
face $-1 $63 $64 $37 $-1 $65 forward single #
face $-1 $66 $67 $38 $-1 $68 reversed single #
face $-1 $69 $70 $39 $-1 $71 forward single #
face $-1 $72 $73 $40 $-1 $74 forward single #
face $-1 $75 $76 $41 $-1 $77 forward single #
face $-1 $78 $79 $42 $-1 $80 reversed single #
face $-1 $81 $82 $43 $-1 $83 forward single #
face $-1 $84 $85 $44 $-1 $86 forward single #
face $-1 $87 $88 $45 $-1 $89 reversed single #
face $-1 $90 $91 $46 $-1 $92 forward single #
face $-1 $93 $94 $47 $-1 $95 forward single #
face $-1 $96 $97 $36 $-1 $98 reversed single #
loop $-1 $-1 $99 $48 #
plane-surface $-1 0 0 11.152182290536805 0 0 1 1 0 0 forward_v I I I I #
face $-1 $100 $101 $37 $-1 $102 reversed single #
loop $-1 $-1 $103 $49 #
plane-surface $-1 -67.513046662800988 0 0 1 0 0 0 0 -1 forward_v I I I I #
face $-1 $104 $105 $38 $-1 $106 reversed single #
loop $-1 $-1 $107 $50 #
plane-surface $-1 -0.18236941029988785 -147.01171059149914 93.500976456740858 -1 0 0 0 -0.75470958851134928 0.65605901945558964 forward_v I I I I #
face $-1 $108 $109 $39 $-1 $110 forward single #
loop $-1 $111 $112 $51 #
cone-surface $-1 -23.812000629231186 -41.692094593607948 7.4224358854508496 0 0.75470958851134928 -0.65605901945558964 1 0 0 1 I I 0 1 1 forward I I I I #
face $-1 $113 $114 $40 $-1 $115 forward single #
loop $-1 $116 $117 $52 #
cone-surface $-1 -14.950888922131945 -41.692094593607948 7.4224358854508496 0 0.75470958851134928 -0.65605901945558964 1 0 0 1 I I 0 1 1 forward I I I I #
face $-1 $118 $119 $41 $-1 $120 forward single #
loop $-1 $121 $122 $53 #
cone-surface $-1 -6.0897772150327043 -41.692094593607948 7.4224358854508496 0 0.75470958851134928 -0.65605901945558964 1 0 0 1 I I 0 1 1 forward I I I I #
face $-1 $123 $124 $42 $-1 $125 reversed single #
loop $-1 $-1 $126 $54 #
plane-surface $-1 -37.331068240683209 42.988182053989405 169.22986227917116 1 0 0 0 -0.54463904215088732 -0.83867056331134215 forward_v I I I I #
face $-1 $127 $128 $43 $-1 $129 forward single #
loop $-1 $130 $131 $55 #
cone-surface $-1 -29.623688840041879 40.567939071403636 7.110477933750512 0 -0.54463904215088732 -0.83867056331134215 1.5 0 0 1 I I 0 1 1.5 forward I I I I #
face $-1 $132 $133 $44 $-1 $134 forward single #
loop $-1 $135 $136 $56 #
cone-surface $-1 -18.062619739079885 40.567939071403636 7.110477933750512 0 -0.54463904215088732 -0.83867056331134215 1.5 0 0 1 I I 0 1 1.5 forward I I I I #
face $-1 $137 $138 $45 $-1 $139 reversed single #
loop $-1 $-1 $140 $57 #
plane-surface $-1 19.009996793761935 42.988182053989405 169.22986227917116 1 0 0 0 -0.54463904215088732 -0.83867056331134215 forward_v I I I I #
face $-1 $141 $142 $46 $-1 $143 forward single #
loop $-1 $144 $145 $58 #
cone-surface $-1 26.717376194403258 40.567939071403636 7.110477933750512 0 -0.54463904215088732 -0.83867056331134215 1.5 0 0 1 I I 0 1 1.5 forward I I I I #
face $-1 $146 $147 $47 $-1 $148 forward single #
loop $-1 $149 $150 $59 #
cone-surface $-1 38.278445295365245 40.567939071403636 7.110477933750512 0 -0.54463904215088732 -0.83867056331134215 1.5 0 0 1 I I 0 1 1.5 forward I I I I #
face $-1 $151 $152 $36 $-1 $153 reversed single #
loop $-1 $-1 $154 $60 #
plane-surface $-1 0 0 -11.152182290536805 0 0 1 1 0 0 forward_v I I I I #
coedge $-1 $155 $156 $157 $158 forward $61 $-1 #
face $-1 $159 $160 $37 $-1 $161 reversed single #
loop $-1 $-1 $162 $63 #
plane-surface $-1 0 0 -11.152182290536805 0 0 1 1 0 0 forward_v I I I I #
coedge $-1 $163 $164 $165 $166 forward $64 $-1 #
face $-1 $167 $168 $38 $-1 $169 reversed single #
loop $-1 $-1 $170 $66 #
plane-surface $-1 -14.950888922131952 -45.106223259439005 4.9158900686274762 0 -0.75470958851134928 0.65605901945558964 1 0 0 forward_v I I I I #
coedge $-1 $171 $172 $173 $174 reversed $67 $-1 #
face $-1 $-1 $175 $39 $-1 $176 forward single #
loop $-1 $177 $178 $69 #
cone-surface $-1 -23.812000629231186 -40.611174125184299 6.4828060815917592 0 0.75470958851134928 -0.65605901945558964 0.5 0 0 1 I I -0.70710678118654746 0.70710678118654746 0.5 forward I I I I #
loop $-1 $-1 $179 $51 #
coedge $-1 $112 $112 $180 $181 reversed $70 $-1 #
face $-1 $-1 $182 $40 $-1 $183 forward single #
loop $-1 $184 $185 $72 #
cone-surface $-1 -14.950888922131945 -40.611174125184299 6.4828060815917592 0 0.75470958851134928 -0.65605901945558964 0.5 0 0 1 I I -0.70710678118654746 0.70710678118654746 0.5 forward I I I I #
loop $-1 $-1 $186 $52 #
coedge $-1 $117 $117 $187 $188 reversed $73 $-1 #
face $-1 $-1 $189 $41 $-1 $190 forward single #
loop $-1 $191 $192 $75 #
cone-surface $-1 -6.0897772150327043 -40.611174125184299 6.4828060815917592 0 0.75470958851134928 -0.65605901945558964 0.5 0 0 1 I I -0.70710678118654746 0.70710678118654746 0.5 forward I I I I #
loop $-1 $-1 $193 $53 #
coedge $-1 $122 $122 $194 $195 reversed $76 $-1 #
face $-1 $196 $197 $42 $-1 $198 reversed single #
loop $-1 $-1 $199 $78 #
plane-surface $-1 -23.843154289560879 -30.552300080242773 55.987452528058697 0 0.54463904215088732 0.83867056331134215 1 0 0 forward_v I I I I #
coedge $-1 $200 $201 $202 $203 reversed $79 $-1 #
face $-1 $-1 $204 $43 $-1 $205 forward single #
loop $-1 $206 $207 $81 #
cone-surface $-1 -29.623688840041879 38.930307023660632 4.5887457667847134 0 -0.54463904215088732 -0.83867056331134215 0.75 0 0 1 I I -0.70710678118654757 0.70710678118654757 0.75 forward I I I I #
loop $-1 $-1 $208 $55 #
coedge $-1 $131 $131 $209 $210 reversed $82 $-1 #
face $-1 $-1 $211 $44 $-1 $212 forward single #
loop $-1 $213 $214 $84 #
cone-surface $-1 -18.062619739079885 38.930307023660632 4.5887457667847134 0 -0.54463904215088732 -0.83867056331134215 0.75 0 0 1 I I -0.70710678118654757 0.70710678118654757 0.75 forward I I I I #
loop $-1 $-1 $215 $56 #
coedge $-1 $136 $136 $216 $217 reversed $85 $-1 #
face $-1 $218 $219 $45 $-1 $220 reversed single #
loop $-1 $-1 $221 $87 #
plane-surface $-1 32.497910744884265 -30.552300080242773 55.987452528058697 0 0.54463904215088732 0.83867056331134215 1 0 0 forward_v I I I I #
coedge $-1 $222 $223 $224 $225 reversed $88 $-1 #
face $-1 $-1 $226 $46 $-1 $227 forward single #
loop $-1 $228 $229 $90 #
cone-surface $-1 26.717376194403258 38.930307023660632 4.5887457667847134 0 -0.54463904215088732 -0.83867056331134215 0.75 0 0 1 I I -0.70710678118654757 0.70710678118654757 0.75 forward I I I I #
loop $-1 $-1 $230 $58 #
coedge $-1 $145 $145 $231 $232 reversed $91 $-1 #
face $-1 $-1 $233 $47 $-1 $234 forward single #
loop $-1 $235 $236 $93 #
cone-surface $-1 38.278445295365245 38.930307023660632 4.5887457667847134 0 -0.54463904215088732 -0.83867056331134215 0.75 0 0 1 I I -0.70710678118654757 0.70710678118654757 0.75 forward I I I I #
loop $-1 $-1 $237 $59 #
coedge $-1 $150 $150 $238 $239 reversed $94 $-1 #
face $-1 $240 $241 $36 $-1 $242 reversed single #
loop $-1 $-1 $243 $96 #
plane-surface $-1 0 -45.106223259439048 0 0 1 0 0 0 1 forward_v I I I I #
coedge $-1 $244 $245 $246 $247 forward $97 $-1 #
coedge $-1 $248 $99 $249 $250 forward $61 $-1 #
coedge $-1 $99 $248 $251 $252 forward $61 $-1 #
coedge $-1 $253 $254 $99 $158 reversed $255 $-1 #
edge $-1 $256 -45.106223259439048 $257 45.106223259439048 $157 $258 forward 7 unknown #
face $-1 $259 $260 $37 $-1 $261 reversed single #
loop $-1 $-1 $262 $100 #
plane-surface $-1 -71.840424890462671 -44.467782869998835 0 0 1 0 0 0 1 forward_v I I I I #
coedge $-1 $263 $264 $164 $265 forward $101 $-1 #
coedge $-1 $266 $103 $267 $268 reversed $64 $-1 #
coedge $-1 $103 $266 $162 $265 reversed $64 $-1 #
coedge $-1 $269 $270 $103 $166 reversed $271 $-1 #
edge $-1 $272 -11.152182290536805 $273 11.152182290536805 $165 $274 forward 7 unknown #
face $-1 $275 $276 $38 $-1 $277 forward single #
loop $-1 $-1 $278 $104 #
plane-surface $-1 -29.719408433964016 -147.01171059149914 93.500976456740858 1 0 0 0 0.75470958851134928 -0.65605901945558964 forward_v I I I I #
coedge $-1 $279 $280 $281 $282 reversed $105 $-1 #
coedge $-1 $172 $107 $283 $284 reversed $67 $-1 #
coedge $-1 $107 $171 $279 $285 reversed $67 $-1 #
coedge $-1 $281 $286 $107 $174 forward $276 $-1 #
edge $-1 $287 28.399632036310521 $288 33.820758019636834 $173 $289 forward 7 unknown #
loop $-1 $-1 $180 $108 #
plane-surface $-1 -14.950888922131952 -45.106223259439005 4.9158900686274762 0 -0.75470958851134928 0.65605901945558964 1 0 0 forward_v I I I I #
loop $-1 $-1 $290 $69 #
coedge $-1 $178 $178 $179 $291 reversed $109 $-1 #
coedge $-1 $179 $179 $178 $291 forward $111 $-1 #
coedge $-1 $180 $180 $112 $181 forward $175 $-1 #
edge $-1 $292 1.4631842695337219e-015 $292 6.2831853071796022 $180 $293 forward 7 unknown #
loop $-1 $-1 $187 $113 #
plane-surface $-1 -14.950888922131952 -45.106223259439005 4.9158900686274762 0 -0.75470958851134928 0.65605901945558964 1 0 0 forward_v I I I I #
loop $-1 $-1 $294 $72 #
coedge $-1 $185 $185 $186 $295 reversed $114 $-1 #
coedge $-1 $186 $186 $185 $295 forward $116 $-1 #
coedge $-1 $187 $187 $117 $188 forward $182 $-1 #
edge $-1 $296 1.4631842695337219e-015 $296 6.2831853071796022 $187 $297 forward 7 unknown #
loop $-1 $-1 $194 $118 #
plane-surface $-1 -14.950888922131952 -45.106223259439005 4.9158900686274762 0 -0.75470958851134928 0.65605901945558964 1 0 0 forward_v I I I I #
loop $-1 $-1 $298 $75 #
coedge $-1 $192 $192 $193 $299 reversed $119 $-1 #
coedge $-1 $193 $193 $192 $299 forward $121 $-1 #
coedge $-1 $194 $194 $122 $195 forward $189 $-1 #
edge $-1 $300 1.4631842695337219e-015 $300 6.2831853071796022 $194 $301 forward 7 unknown #
face $-1 $302 $303 $42 $-1 $304 reversed single #
loop $-1 $-1 $305 $123 #
plane-surface $-1 -10.355240338438549 42.988182053989405 169.22986227917116 -1 0 0 0 0.54463904215088732 0.83867056331134215 forward_v I I I I #
coedge $-1 $306 $307 $308 $309 reversed $124 $-1 #
coedge $-1 $201 $126 $310 $311 reversed $79 $-1 #
coedge $-1 $126 $200 $306 $312 reversed $79 $-1 #
coedge $-1 $308 $313 $126 $203 forward $314 $-1 #
edge $-1 $315 -23.612132232444345 $316 -16.993869388633179 $202 $317 forward 7 unknown #
loop $-1 $-1 $209 $127 #
plane-surface $-1 -23.843154289560879 -30.552300080242773 55.987452528058697 0 0.54463904215088732 0.83867056331134215 1 0 0 forward_v I I I I #
loop $-1 $-1 $318 $81 #
coedge $-1 $207 $207 $208 $319 reversed $128 $-1 #
coedge $-1 $208 $208 $207 $319 forward $130 $-1 #
coedge $-1 $209 $209 $131 $210 forward $204 $-1 #
edge $-1 $320 1.4956617692285378e-015 $320 6.2831853071796022 $209 $321 forward 7 unknown #
loop $-1 $-1 $216 $132 #
plane-surface $-1 -23.843154289560879 -30.552300080242773 55.987452528058697 0 0.54463904215088732 0.83867056331134215 1 0 0 forward_v I I I I #
loop $-1 $-1 $322 $84 #
coedge $-1 $214 $214 $215 $323 reversed $133 $-1 #
coedge $-1 $215 $215 $214 $323 forward $135 $-1 #
coedge $-1 $216 $216 $136 $217 forward $211 $-1 #
edge $-1 $324 1.4956617692285378e-015 $324 6.2831853071796022 $216 $325 forward 7 unknown #
face $-1 $326 $327 $45 $-1 $328 forward single #
loop $-1 $-1 $329 $137 #
plane-surface $-1 45.985824696006596 42.988182053989405 169.22986227917116 -1 0 0 0 0.54463904215088732 0.83867056331134215 forward_v I I I I #
coedge $-1 $330 $331 $332 $333 reversed $138 $-1 #
coedge $-1 $223 $140 $334 $335 reversed $88 $-1 #
coedge $-1 $140 $222 $330 $336 reversed $88 $-1 #
coedge $-1 $332 $337 $140 $225 forward $327 $-1 #
edge $-1 $338 -23.612132232444345 $339 -16.993869388633179 $224 $340 forward 7 unknown #
loop $-1 $-1 $231 $141 #
plane-surface $-1 32.497910744884265 -30.552300080242773 55.987452528058697 0 0.54463904215088732 0.83867056331134215 1 0 0 forward_v I I I I #
loop $-1 $-1 $341 $90 #
coedge $-1 $229 $229 $230 $342 reversed $142 $-1 #
coedge $-1 $230 $230 $229 $342 forward $144 $-1 #
coedge $-1 $231 $231 $145 $232 forward $226 $-1 #
edge $-1 $343 1.4956617692285378e-015 $343 6.2831853071796022 $231 $344 forward 7 unknown #
loop $-1 $-1 $238 $146 #
plane-surface $-1 32.497910744884265 -30.552300080242773 55.987452528058697 0 0.54463904215088732 0.83867056331134215 1 0 0 forward_v I I I I #
loop $-1 $-1 $345 $93 #
coedge $-1 $236 $236 $237 $346 reversed $147 $-1 #
coedge $-1 $237 $237 $236 $346 forward $149 $-1 #
coedge $-1 $238 $238 $150 $239 forward $233 $-1 #
edge $-1 $347 1.4956617692285378e-015 $347 6.2831853071796022 $238 $348 forward 7 unknown #
face $-1 $349 $350 $36 $-1 $351 reversed single #
loop $-1 $-1 $352 $151 #
plane-surface $-1 -67.513046662800988 0 0 1 0 0 0 0 -1 forward_v I I I I #
coedge $-1 $353 $251 $354 $355 forward $152 $-1 #
coedge $-1 $356 $154 $353 $357 forward $97 $-1 #
coedge $-1 $154 $356 $358 $359 forward $97 $-1 #
coedge $-1 $254 $253 $154 $247 reversed $255 $-1 #
edge $-1 $360 -45.106223259439048 $361 45.106223259439048 $246 $362 forward 7 unknown #
coedge $-1 $156 $155 $363 $364 forward $61 $-1 #
coedge $-1 $365 $366 $155 $250 reversed $350 $-1 #
edge $-1 $257 -67.513046662800988 $367 67.513046662800988 $249 $368 forward 7 unknown #
coedge $-1 $243 $369 $156 $252 reversed $152 $-1 #
edge $-1 $370 -67.513046662800988 $256 67.513046662800988 $251 $371 forward 7 unknown #
coedge $-1 $246 $157 $369 $372 forward $255 $-1 #
coedge $-1 $157 $246 $365 $373 reversed $255 $-1 #
loop $-1 $-1 $253 $349 #
vertex $-1 $158 $374 #
vertex $-1 $158 $375 #
straight-curve $-1 67.513046662800988 0 11.152182290536805 0 1 0 I I #
face $-1 $376 $271 $37 $-1 $377 reversed single #
loop $-1 $-1 $378 $159 #
plane-surface $-1 -76.167803118124354 -41.99600565862692 0 1 0 0 0 0 -1 forward_v I I I I #
coedge $-1 $379 $380 $381 $382 forward $160 $-1 #
coedge $-1 $383 $162 $379 $384 forward $101 $-1 #
coedge $-1 $162 $383 $269 $385 forward $101 $-1 #
edge $-1 $272 39.524228447255005 $386 44.467782869998835 $162 $387 forward 7 unknown #
coedge $-1 $164 $163 $388 $389 forward $64 $-1 #
coedge $-1 $390 $391 $163 $268 forward $392 $-1 #
edge $-1 $393 -44.467782869998835 $273 -39.524228447255005 $267 $394 forward 7 unknown #
coedge $-1 $395 $165 $264 $385 reversed $271 $-1 #
coedge $-1 $165 $395 $390 $396 reversed $271 $-1 #
loop $-1 $-1 $165 $259 #
vertex $-1 $265 $397 #
vertex $-1 $396 $398 #
straight-curve $-1 -67.513046662800988 -39.524228447255005 0 0 0 1 I I #
face $-1 $-1 $399 $38 $-1 $400 reversed single #
loop $-1 $-1 $173 $167 #
plane-surface $-1 0 0 11.152182290536805 0 0 1 1 0 0 forward_v I I I I #
coedge $-1 $401 $402 $403 $404 reversed $168 $-1 #
coedge $-1 $405 $170 $172 $285 forward $105 $-1 #
coedge $-1 $170 $405 $401 $406 forward $105 $-1 #
coedge $-1 $403 $173 $170 $282 forward $276 $-1 #
edge $-1 $288 -7.2930750507660882 $407 22.24396397289804 $281 $408 forward 7 unknown #
coedge $-1 $409 $410 $171 $284 forward $399 $-1 #
edge $-1 $411 -41.834598159743003 $287 -35.598305937833622 $283 $412 forward 7 unknown #
edge $-1 $288 -8.2631681335999723 $411 6.4836900561353642e-014 $172 $413 forward 7 unknown #
coedge $-1 $173 $403 $409 $414 forward $276 $-1 #
vertex $-1 $174 $415 #
vertex $-1 $174 $416 #
straight-curve $-1 -0.18236941029988785 -73.505855295749569 11.152182290536807 0 1 0 I I #
coedge $-1 $290 $290 $-1 $417 reversed $177 $-1 #
edge $-1 $418 0 $418 6.2831853071796004 $178 $419 forward 7 unknown #
vertex $-1 $181 $420 #
ellipse-curve $-1 -23.812000629231186 -42.395660267775888 8.0340361795821185 0 -0.75470958851134928 0.65605901945558964 1 0 0 1 I I #
coedge $-1 $294 $294 $-1 $421 reversed $184 $-1 #
edge $-1 $422 0 $422 6.2831853071796004 $185 $423 forward 7 unknown #
vertex $-1 $188 $424 #
ellipse-curve $-1 -14.950888922131945 -42.395660267775888 8.0340361795821185 0 -0.75470958851134928 0.65605901945558964 1 0 0 1 I I #
coedge $-1 $298 $298 $-1 $425 reversed $191 $-1 #
edge $-1 $426 0 $426 6.2831853071796004 $192 $427 forward 7 unknown #
vertex $-1 $195 $428 #
ellipse-curve $-1 -6.0897772150327043 -42.395660267775888 8.0340361795821185 0 -0.75470958851134928 0.65605901945558964 1 0 0 1 I I #
face $-1 $-1 $314 $42 $-1 $429 forward single #
loop $-1 $-1 $430 $196 #
plane-surface $-1 0 45.106223259439048 0 0 -1 0 0 0 -1 forward_v I I I I #
coedge $-1 $431 $432 $433 $434 reversed $197 $-1 #
coedge $-1 $435 $199 $201 $312 forward $124 $-1 #
coedge $-1 $199 $435 $431 $436 forward $124 $-1 #
coedge $-1 $433 $202 $199 $309 forward $314 $-1 #
edge $-1 $316 -25.409491095902769 $437 1.5663368063418908 $308 $438 forward 7 unknown #
coedge $-1 $439 $440 $200 $311 forward $303 $-1 #
edge $-1 $441 -77.760699073656795 $315 -73.462748849048779 $310 $442 forward 7 unknown #
edge $-1 $316 82.321072797973756 $441 90.212446518878096 $201 $443 forward 7 unknown #
coedge $-1 $202 $433 $439 $444 forward $314 $-1 #
loop $-1 $-1 $433 $302 #
vertex $-1 $311 $445 #
vertex $-1 $203 $446 #
straight-curve $-1 -37.331068240683209 21.494091026994703 11.1521822905368 0 -1 0 I I #
coedge $-1 $318 $318 $-1 $447 reversed $206 $-1 #
edge $-1 $448 0 $448 6.2831853071796004 $207 $449 forward 7 unknown #
vertex $-1 $210 $450 #
ellipse-curve $-1 -29.623688840041879 41.797091837533465 9.0032071782327865 0 0.54463904215088732 0.83867056331134215 1.5 0 0 1 I I #
coedge $-1 $322 $322 $-1 $451 reversed $213 $-1 #
edge $-1 $452 0 $452 6.2831853071796004 $214 $453 forward 7 unknown #
vertex $-1 $217 $454 #
ellipse-curve $-1 -18.062619739079885 41.797091837533465 9.0032071782327865 0 0.54463904215088732 0.83867056331134215 1.5 0 0 1 I I #
face $-1 $-1 $455 $45 $-1 $456 reversed single #
loop $-1 $-1 $224 $218 #
plane-surface $-1 0 0 11.152182290536805 0 0 1 1 0 0 forward_v I I I I #
coedge $-1 $457 $458 $459 $460 reversed $219 $-1 #
coedge $-1 $461 $221 $223 $336 forward $138 $-1 #
coedge $-1 $221 $461 $457 $462 forward $138 $-1 #
coedge $-1 $459 $224 $221 $333 forward $327 $-1 #
edge $-1 $339 2.7610414213198027 $463 29.736869323564463 $332 $464 forward 7 unknown #
coedge $-1 $465 $466 $222 $335 forward $455 $-1 #
edge $-1 $467 -77.760699073656795 $338 -73.462748849048779 $334 $468 forward 7 unknown #
edge $-1 $339 82.321072797973756 $467 90.212446518878096 $223 $469 forward 7 unknown #
coedge $-1 $224 $459 $465 $470 forward $327 $-1 #
vertex $-1 $225 $471 #
vertex $-1 $225 $472 #
straight-curve $-1 19.009996793761935 21.494091026994703 11.1521822905368 0 -1 0 I I #
coedge $-1 $341 $341 $-1 $473 reversed $228 $-1 #
edge $-1 $474 0 $474 6.2831853071796004 $229 $475 forward 7 unknown #
vertex $-1 $232 $476 #
ellipse-curve $-1 26.717376194403258 41.797091837533465 9.0032071782327865 0 0.54463904215088732 0.83867056331134215 1.5 0 0 1 I I #
coedge $-1 $345 $345 $-1 $477 reversed $235 $-1 #
edge $-1 $478 0 $478 6.2831853071796004 $236 $479 forward 7 unknown #
vertex $-1 $239 $480 #
ellipse-curve $-1 38.278445295365245 41.797091837533465 9.0032071782327865 0 0.54463904215088732 0.83867056331134215 1.5 0 0 1 I I #
face $-1 $-1 $255 $36 $-1 $481 reversed single #
loop $-1 $-1 $365 $240 #
plane-surface $-1 0 45.106223259439048 0 0 -1 0 0 0 -1 forward_v I I I I #
coedge $-1 $482 $363 $366 $483 forward $241 $-1 #
coedge $-1 $369 $243 $244 $357 reversed $152 $-1 #
coedge $-1 $363 $482 $243 $355 reversed $241 $-1 #
edge $-1 $370 -11.152182290536805 $484 11.152182290536805 $354 $485 forward 7 unknown #
coedge $-1 $245 $244 $482 $486 forward $97 $-1 #
edge $-1 $361 -67.513046662800988 $484 67.513046662800988 $353 $487 forward 7 unknown #
coedge $-1 $366 $365 $245 $359 reversed $350 $-1 #
edge $-1 $488 -67.513046662800988 $360 67.513046662800988 $358 $489 forward 7 unknown #
vertex $-1 $247 $490 #
vertex $-1 $372 $491 #
straight-curve $-1 67.513046662800988 0 -11.152182290536805 0 -1 0 I I #
coedge $-1 $352 $354 $248 $364 reversed $241 $-1 #
edge $-1 $367 -45.106223259439048 $370 45.106223259439048 $363 $492 forward 7 unknown #
coedge $-1 $358 $249 $254 $373 forward $350 $-1 #
coedge $-1 $249 $358 $352 $483 reversed $350 $-1 #
vertex $-1 $250 $493 #
straight-curve $-1 0 45.106223259439048 11.152182290536805 -1 0 0 I I #
coedge $-1 $251 $353 $253 $372 reversed $152 $-1 #
vertex $-1 $364 $494 #
straight-curve $-1 0 -45.106223259439048 11.152182290536805 1 0 0 I I #
edge $-1 $256 -11.152182290536805 $361 11.152182290536805 $253 $495 forward 7 unknown #
edge $-1 $257 -11.152182290536805 $360 11.152182290536805 $254 $496 forward 7 unknown #
point $-1 67.513046662800988 -45.106223259439048 11.152182290536805 #
point $-1 67.513046662800988 45.106223259439048 11.152182290536805 #
face $-1 $-1 $392 $37 $-1 $497 forward single #
plane-surface $-1 -71.840424890462671 -39.524228447255005 0 0 -1 0 0 0 -1 forward_v I I I I #
coedge $-1 $498 $499 $395 $500 forward $260 $-1 #
coedge $-1 $388 $262 $263 $384 reversed $160 $-1 #
coedge $-1 $262 $388 $391 $501 reversed $160 $-1 #
coedge $-1 $499 $498 $262 $382 reversed $260 $-1 #
edge $-1 $502 -11.152182290536805 $503 11.152182290536805 $381 $504 forward 7 unknown #
coedge $-1 $264 $263 $498 $505 forward $101 $-1 #
edge $-1 $386 -4.3273782276616828 $503 4.3273782276616828 $379 $506 forward 7 unknown #
edge $-1 $507 -4.3273782276616828 $272 4.3273782276616828 $269 $508 forward 7 unknown #
vertex $-1 $384 $509 #
straight-curve $-1 -67.513046662800988 0 -11.152182290536805 0 -1 0 I I #
coedge $-1 $380 $379 $266 $389 reversed $160 $-1 #
edge $-1 $393 -11.152182290536805 $386 11.152182290536805 $388 $510 forward 7 unknown #
coedge $-1 $511 $267 $270 $396 forward $392 $-1 #
coedge $-1 $267 $511 $380 $501 forward $392 $-1 #
loop $-1 $-1 $267 $376 #
vertex $-1 $268 $512 #
straight-curve $-1 -67.513046662800988 0 11.152182290536805 0 1 0 I I #
coedge $-1 $270 $269 $378 $500 reversed $271 $-1 #
edge $-1 $273 -4.3273782276616828 $513 4.3273782276616828 $270 $514 forward 7 unknown #
point $-1 -67.513046662800988 -39.524228447255005 -11.152182290536805 #
point $-1 -67.513046662800988 -39.524228447255005 11.152182290536805 #
loop $-1 $-1 $283 $275 #
plane-surface $-1 0 -45.106223259439048 0 0 1 0 0 0 1 forward_v I I I I #
coedge $-1 $402 $278 $280 $406 reversed $168 $-1 #
coedge $-1 $278 $401 $515 $516 reversed $168 $-1 #
coedge $-1 $286 $281 $278 $404 forward $276 $-1 #
edge $-1 $407 -33.820758019636834 $517 -28.399632036310521 $403 $518 forward 7 unknown #
coedge $-1 $280 $279 $410 $519 reversed $105 $-1 #
edge $-1 $520 -6.4836900561353642e-014 $407 8.2631681335999723 $401 $521 forward 7 unknown #
vertex $-1 $282 $522 #
straight-curve $-1 -7.475444461065976 -39.685097276112735 11.152182290536803 -1 0 0 I I #
coedge $-1 $515 $283 $286 $414 reversed $399 $-1 #
coedge $-1 $283 $515 $405 $519 forward $399 $-1 #
vertex $-1 $284 $523 #
straight-curve $-1 -0.18236941029988785 -45.106223259439048 46.750488228370429 0 0 1 I I #
straight-curve $-1 -0.18236941029988785 -45.106223259439005 4.9158900686274762 0 -0.65605901945558964 -0.75470958851134928 I I #
edge $-1 $517 -29.719408433964016 $287 -0.18236941029988785 $409 $524 forward 7 unknown #
point $-1 -0.18236941029988785 -45.106223259439048 11.152182290536805 #
point $-1 -0.18236941029988785 -39.685097276112735 11.152182290536805 #
edge $-1 $525 1 $525 0 $290 $-1 forward 7 unknown #
vertex $-1 $291 $526 #
ellipse-curve $-1 -23.812000629231186 -40.988528919439972 6.8108355913195542 0 -0.75470958851134928 0.65605901945558964 1 0 0 1 I I #
point $-1 -22.812000629231186 -42.395660267775916 8.0340361795821451 #
edge $-1 $527 1 $527 0 $294 $-1 forward 7 unknown #
vertex $-1 $295 $528 #
ellipse-curve $-1 -14.950888922131945 -40.988528919439972 6.8108355913195542 0 -0.75470958851134928 0.65605901945558964 1 0 0 1 I I #
point $-1 -13.950888922131945 -42.395660267775916 8.0340361795821451 #
edge $-1 $529 1 $529 0 $298 $-1 forward 7 unknown #
vertex $-1 $299 $530 #
ellipse-curve $-1 -6.0897772150327043 -40.988528919439972 6.8108355913195542 0 -0.75470958851134928 0.65605901945558964 1 0 0 1 I I #
point $-1 -5.0897772150327043 -42.395660267775916 8.0340361795821451 #
plane-surface $-1 0 0 11.152182290536805 0 0 1 1 0 0 forward_v I I I I #
coedge $-1 $440 $439 $432 $531 forward $303 $-1 #
coedge $-1 $432 $305 $307 $436 reversed $197 $-1 #
coedge $-1 $305 $431 $430 $531 reversed $197 $-1 #
coedge $-1 $313 $308 $305 $434 forward $314 $-1 #
edge $-1 $437 16.993869388633179 $532 23.612132232444345 $433 $533 forward 7 unknown #
coedge $-1 $307 $306 $440 $534 reversed $124 $-1 #
edge $-1 $535 -90.212446518878096 $437 -82.321072797973756 $431 $536 forward 7 unknown #
vertex $-1 $309 $537 #
straight-curve $-1 -11.921577144780439 38.487960415627875 11.152182290536807 1 0 0 I I #
coedge $-1 $430 $310 $313 $444 reversed $303 $-1 #
coedge $-1 $310 $430 $435 $534 forward $303 $-1 #
vertex $-1 $311 $538 #
straight-curve $-1 -37.331068240683209 45.106223259439048 84.614931139585579 0 0 1 I I #
straight-curve $-1 -37.331068240683209 -30.552300080242773 55.987452528058697 0 0.83867056331134215 -0.54463904215088732 I I #
edge $-1 $532 10.355240338438549 $315 37.331068240683209 $439 $539 forward 7 unknown #
point $-1 -37.331068240683209 45.106223259439048 11.152182290536805 #
point $-1 -37.331068240683209 38.487960415627882 11.152182290536807 #
edge $-1 $540 1 $540 0 $318 $-1 forward 7 unknown #
vertex $-1 $319 $541 #
ellipse-curve $-1 -29.623688840041879 39.3387863052738 5.2177486892682197 0 0.54463904215088732 0.83867056331134215 1.5 0 0 1 I I #
point $-1 -28.123688840041879 41.797091837533479 9.0032071782328043 #
edge $-1 $542 1 $542 0 $322 $-1 forward 7 unknown #
vertex $-1 $323 $543 #
ellipse-curve $-1 -18.062619739079885 39.3387863052738 5.2177486892682197 0 0.54463904215088732 0.83867056331134215 1.5 0 0 1 I I #
point $-1 -16.562619739079885 41.797091837533479 9.0032071782328043 #
loop $-1 $-1 $334 $326 #
plane-surface $-1 0 45.106223259439048 0 0 -1 0 0 0 -1 forward_v I I I I #
coedge $-1 $458 $329 $331 $462 reversed $219 $-1 #
coedge $-1 $329 $457 $544 $545 reversed $219 $-1 #
coedge $-1 $337 $332 $329 $460 forward $327 $-1 #
edge $-1 $463 16.993869388633179 $546 23.612132232444345 $459 $547 forward 7 unknown #
coedge $-1 $331 $330 $466 $548 reversed $138 $-1 #
edge $-1 $549 -90.212446518878096 $463 -82.321072797973756 $457 $550 forward 7 unknown #
vertex $-1 $333 $551 #
straight-curve $-1 16.248955372442133 38.487960415627875 11.152182290536807 1 0 0 I I #
coedge $-1 $544 $334 $337 $470 reversed $455 $-1 #
coedge $-1 $334 $544 $461 $548 forward $455 $-1 #
vertex $-1 $335 $552 #
straight-curve $-1 19.009996793761935 45.106223259439048 84.614931139585579 0 0 1 I I #
straight-curve $-1 19.009996793761935 -30.552300080242773 55.987452528058697 0 0.83867056331134215 -0.54463904215088732 I I #
edge $-1 $546 -45.985824696006596 $338 -19.009996793761935 $465 $553 forward 7 unknown #
point $-1 19.009996793761935 45.106223259439048 11.152182290536805 #
point $-1 19.009996793761935 38.487960415627882 11.152182290536807 #
edge $-1 $554 1 $554 0 $341 $-1 forward 7 unknown #
vertex $-1 $342 $555 #
ellipse-curve $-1 26.717376194403258 39.3387863052738 5.2177486892682197 0 0.54463904215088732 0.83867056331134215 1.5 0 0 1 I I #
point $-1 28.217376194403258 41.797091837533479 9.0032071782328043 #
edge $-1 $556 1 $556 0 $345 $-1 forward 7 unknown #
vertex $-1 $346 $557 #
ellipse-curve $-1 38.278445295365245 39.3387863052738 5.2177486892682197 0 0.54463904215088732 0.83867056331134215 1.5 0 0 1 I I #
point $-1 39.778445295365245 41.797091837533479 9.0032071782328043 #
plane-surface $-1 67.513046662800988 0 0 -1 0 0 0 0 1 forward_v I I I I #
coedge $-1 $354 $352 $356 $486 reversed $241 $-1 #
edge $-1 $367 -11.152182290536805 $488 11.152182290536805 $366 $558 forward 7 unknown #
vertex $-1 $486 $559 #
straight-curve $-1 -67.513046662800988 -45.106223259439048 0 0 0 -1 I I #
edge $-1 $484 -45.106223259439048 $488 45.106223259439048 $482 $560 forward 7 unknown #
straight-curve $-1 0 -45.106223259439048 -11.152182290536805 -1 0 0 I I #
vertex $-1 $359 $561 #
straight-curve $-1 0 45.106223259439048 -11.152182290536805 1 0 0 I I #
point $-1 67.513046662800988 45.106223259439048 -11.152182290536805 #
point $-1 67.513046662800988 -45.106223259439048 -11.152182290536805 #
straight-curve $-1 -67.513046662800988 0 11.152182290536805 0 -1 0 I I #
point $-1 -67.513046662800988 45.106223259439048 11.152182290536805 #
point $-1 -67.513046662800988 -45.106223259439048 11.152182290536805 #
straight-curve $-1 67.513046662800988 -45.106223259439048 0 0 0 -1 I I #
straight-curve $-1 67.513046662800988 45.106223259439048 0 0 0 -1 I I #
plane-surface $-1 0 0 11.152182290536805 0 0 1 1 0 0 forward_v I I I I #
coedge $-1 $381 $378 $383 $505 reversed $260 $-1 #
coedge $-1 $378 $381 $511 $562 reversed $260 $-1 #
edge $-1 $513 -11.152182290536805 $507 11.152182290536805 $395 $563 forward 7 unknown #
edge $-1 $502 -4.3273782276616828 $393 4.3273782276616828 $380 $564 forward 7 unknown #
vertex $-1 $562 $565 #
vertex $-1 $505 $566 #
straight-curve $-1 -76.167803118124354 -44.467782869998835 0 0 0 -1 I I #
edge $-1 $503 -2.471777211371915 $507 2.471777211371915 $498 $567 forward 7 unknown #
straight-curve $-1 -71.840424890462671 -44.467782869998835 -11.152182290536805 -1 0 0 I I #
vertex $-1 $385 $568 #
straight-curve $-1 -71.840424890462671 -39.524228447255005 -11.152182290536805 1 0 0 I I #
point $-1 -67.513046662800988 -44.467782869998835 -11.152182290536805 #
straight-curve $-1 -67.513046662800988 -44.467782869998835 0 0 0 -1 I I #
coedge $-1 $391 $390 $499 $562 forward $392 $-1 #
point $-1 -67.513046662800988 -44.467782869998835 11.152182290536805 #
vertex $-1 $396 $569 #
straight-curve $-1 -71.840424890462671 -39.524228447255005 11.152182290536805 -1 0 0 I I #
coedge $-1 $410 $409 $402 $516 forward $399 $-1 #
edge $-1 $517 35.598305937833622 $520 41.834598159743003 $515 $570 forward 7 unknown #
vertex $-1 $414 $571 #
straight-curve $-1 -29.719408433964016 -73.505855295749569 11.152182290536807 0 -1 0 I I #
edge $-1 $520 -22.24396397289804 $411 7.2930750507660882 $410 $572 forward 7 unknown #
vertex $-1 $519 $573 #
straight-curve $-1 -29.719408433964016 -45.106223259439005 4.9158900686274762 0 0.65605901945558964 0.75470958851134928 I I #
point $-1 -29.719408433964016 -39.685097276112735 11.152182290536805 #
point $-1 -0.18236941029988785 -45.106223259439048 4.9158900686274274 #
straight-curve $-1 0 -45.106223259439048 11.152182290536805 1 0 0 I I #
vertex $-1 $417 $574 #
point $-1 -22.812000629231186 -40.988528919439972 6.8108355913195542 #
vertex $-1 $421 $575 #
point $-1 -13.950888922131945 -40.988528919439972 6.8108355913195542 #
vertex $-1 $425 $576 #
point $-1 -5.0897772150327043 -40.988528919439972 6.8108355913195542 #
edge $-1 $532 73.462748849048779 $535 77.760699073656795 $430 $577 forward 7 unknown #
vertex $-1 $444 $578 #
straight-curve $-1 -10.355240338438549 21.494091026994703 11.1521822905368 0 1 0 I I #
edge $-1 $535 -1.5663368063418908 $441 25.409491095902769 $440 $579 forward 7 unknown #
vertex $-1 $534 $580 #
straight-curve $-1 -10.355240338438549 -30.552300080242773 55.987452528058697 0 -0.83867056331134215 0.54463904215088732 I I #
point $-1 -10.355240338438549 38.487960415627882 11.152182290536807 #
point $-1 -37.331068240683209 45.106223259439048 6.8542320659287839 #
straight-curve $-1 0 45.106223259439048 11.152182290536805 -1 0 0 I I #
vertex $-1 $447 $581 #
point $-1 -28.123688840041879 39.3387863052738 5.2177486892682197 #
vertex $-1 $451 $582 #
point $-1 -16.562619739079885 39.3387863052738 5.2177486892682197 #
coedge $-1 $466 $465 $458 $545 forward $455 $-1 #
edge $-1 $546 73.462748849048779 $549 77.760699073656795 $544 $583 forward 7 unknown #
vertex $-1 $470 $584 #
straight-curve $-1 45.985824696006596 21.494091026994703 11.1521822905368 0 1 0 I I #
edge $-1 $549 -29.736869323564463 $467 -2.7610414213198027 $466 $585 forward 7 unknown #
vertex $-1 $548 $586 #
straight-curve $-1 45.985824696006596 -30.552300080242773 55.987452528058697 0 -0.83867056331134215 0.54463904215088732 I I #
point $-1 45.985824696006596 38.487960415627882 11.152182290536807 #
point $-1 19.009996793761935 45.106223259439048 6.8542320659287839 #
straight-curve $-1 0 45.106223259439048 11.152182290536805 -1 0 0 I I #
vertex $-1 $473 $587 #
point $-1 28.217376194403258 39.3387863052738 5.2177486892682197 #
vertex $-1 $477 $588 #
point $-1 39.778445295365245 39.3387863052738 5.2177486892682197 #
straight-curve $-1 -67.513046662800988 45.106223259439048 0 0 0 -1 I I #
point $-1 -67.513046662800988 -45.106223259439048 -11.152182290536805 #
straight-curve $-1 -67.513046662800988 0 -11.152182290536805 0 1 0 I I #
point $-1 -67.513046662800988 45.106223259439048 -11.152182290536805 #
edge $-1 $513 -2.471777211371915 $502 2.471777211371915 $499 $589 forward 7 unknown #
straight-curve $-1 -76.167803118124354 -39.524228447255005 0 0 0 -1 I I #
straight-curve $-1 -71.840424890462671 -44.467782869998835 11.152182290536805 1 0 0 I I #
point $-1 -76.167803118124354 -44.467782869998835 11.152182290536805 #
point $-1 -76.167803118124354 -44.467782869998835 -11.152182290536805 #
straight-curve $-1 -76.167803118124354 -41.99600565862692 -11.152182290536805 0 1 0 I I #
point $-1 -76.167803118124354 -39.524228447255005 -11.152182290536805 #
point $-1 -76.167803118124354 -39.524228447255005 11.152182290536805 #
straight-curve $-1 -29.719408433964016 -45.106223259439048 46.750488228370429 0 0 -1 I I #
point $-1 -29.719408433964016 -45.106223259439048 11.152182290536805 #
straight-curve $-1 -7.475444461065976 -45.106223259439048 4.9158900686274283 1 0 0 I I #
point $-1 -29.719408433964016 -45.106223259439048 4.9158900686274274 #
point $-1 -23.812000629231186 -40.233819330928625 6.1547765718639642 #
point $-1 -14.950888922131945 -40.233819330928625 6.1547765718639642 #
point $-1 -6.0897772150327043 -40.233819330928625 6.1547765718639642 #
straight-curve $-1 -10.355240338438549 45.106223259439048 84.614931139585579 0 0 -1 I I #
point $-1 -10.355240338438549 45.106223259439048 11.152182290536805 #
straight-curve $-1 -11.921577144780439 45.106223259439048 6.8542320659287768 -1 0 0 I I #
point $-1 -10.355240338438549 45.106223259439048 6.8542320659287839 #
point $-1 -29.623688840041879 38.521827742047464 3.9597428443012066 #
point $-1 -18.062619739079885 38.521827742047464 3.9597428443012066 #
straight-curve $-1 45.985824696006596 45.106223259439048 84.614931139585579 0 0 -1 I I #
point $-1 45.985824696006596 45.106223259439048 11.152182290536805 #
straight-curve $-1 16.248955372442133 45.106223259439048 6.8542320659287768 -1 0 0 I I #
point $-1 45.985824696006596 45.106223259439048 6.8542320659287839 #
point $-1 26.717376194403258 38.521827742047464 3.9597428443012066 #
point $-1 38.278445295365245 38.521827742047464 3.9597428443012066 #
straight-curve $-1 -76.167803118124354 -41.99600565862692 11.152182290536805 0 -1 0 I I #
End-of-ACIS-data 