500 0 8 0           
7 Unknown 11 ACIS 5.0 NT 24 Thu Mar 25 17:12:50 1999 
-1 9.9999999999999995e-007 1e-010 
body $-1 $8 $-1 $9 #
body $-1 $10 $-1 $11 #
body $-1 $12 $-1 $13 #
body $-1 $14 $-1 $15 #
body $-1 $16 $-1 $17 #
body $-1 $18 $-1 $19 #
body $-1 $20 $-1 $21 #
body $-1 $22 $-1 $23 #
lump $-1 $-1 $24 $0 #
transform $-1 1 0 0 0 1 0 0 0 1 72.541276284066285 34.645228276993272 10.301793043953628 1 rotate no_reflect no_shear #
lump $-1 $-1 $25 $1 #
transform $-1 1 0 0 0 1 0 0 0 1 72.541276284066285 34.645228276993272 10.301793043953628 1 rotate no_reflect no_shear #
lump $-1 $-1 $26 $2 #
transform $-1 1 0 0 0 1 0 0 0 1 72.541276284066285 34.645228276993272 10.301793043953628 1 rotate no_reflect no_shear #
lump $-1 $-1 $27 $3 #
transform $-1 1 0 0 0 1 0 0 0 1 72.541276284066285 34.645228276993272 10.301793043953628 1 rotate no_reflect no_shear #
lump $-1 $-1 $28 $4 #
transform $-1 1 0 0 0 1 0 0 0 1 72.541276284066285 34.645228276993272 10.301793043953628 1 rotate no_reflect no_shear #
lump $-1 $-1 $29 $5 #
transform $-1 1 0 0 0 1 0 0 0 1 72.541276284066285 34.645228276993272 10.301793043953628 1 rotate no_reflect no_shear #
lump $-1 $-1 $30 $6 #
transform $-1 1 0 0 0 1 0 0 0 1 72.541276284066285 34.645228276993272 10.301793043953628 1 rotate no_reflect no_shear #
lump $-1 $-1 $31 $7 #
transform $-1 1 0 0 0 1 0 0 0 1 72.541276284066285 34.645228276993272 10.301793043953628 1 rotate no_reflect no_shear #
shell $-1 $-1 $-1 $32 $-1 $8 #
shell $-1 $-1 $-1 $33 $-1 $10 #
shell $-1 $-1 $-1 $34 $-1 $12 #
shell $-1 $-1 $-1 $35 $-1 $14 #
shell $-1 $-1 $-1 $36 $-1 $16 #
shell $-1 $-1 $-1 $37 $-1 $18 #
shell $-1 $-1 $-1 $38 $-1 $20 #
shell $-1 $-1 $-1 $39 $-1 $22 #
face $-1 $40 $41 $24 $-1 $42 forward single #
face $-1 $43 $44 $25 $-1 $45 forward single #
face $-1 $46 $47 $26 $-1 $48 reversed single #
face $-1 $49 $50 $27 $-1 $51 forward single #
face $-1 $52 $53 $28 $-1 $54 forward single #
face $-1 $55 $56 $29 $-1 $57 forward single #
face $-1 $58 $59 $30 $-1 $60 reversed single #
face $-1 $61 $62 $31 $-1 $63 forward single #
face $-1 $64 $65 $24 $-1 $66 reversed single #
loop $-1 $-1 $67 $32 #
plane-surface $-1 0 0 10.301793043953628 0 0 1 1 0 0 forward_v I I I I #
face $-1 $68 $69 $25 $-1 $70 reversed single #
loop $-1 $-1 $71 $33 #
plane-surface $-1 0 -34.645228276993272 0 0 1 0 0 0 1 forward_v I I I I #
face $-1 $72 $73 $26 $-1 $74 reversed single #
loop $-1 $-1 $75 $34 #
plane-surface $-1 -155.75721083528796 -5.222536107011198 124.8974445155052 0 1 0 -0.57357644374324357 0 0.81915203911291934 forward_v I I I I #
face $-1 $76 $77 $27 $-1 $78 forward single #
loop $-1 $79 $80 $35 #
cone-surface $-1 -69.000083073729286 -3.2310841897738918 7.4530984407640499 0.57357644374324357 0 -0.81915203911291934 0.40957601955645967 0 0.28678822187162178 1 I I 0 1 0.5 forward I I I I #
face $-1 $81 $82 $28 $-1 $83 forward single #
loop $-1 $84 $85 $36 #
cone-surface $-1 -69.000083073729286 -0.2439063139179396 7.4530984407640499 0.57357644374324357 0 -0.81915203911291934 0.40957601955645967 0 0.28678822187162178 1 I I 0 1 0.5 forward I I I I #
face $-1 $86 $87 $29 $-1 $88 forward single #
loop $-1 $89 $90 $37 #
cone-surface $-1 -69.000083073729286 2.7432715619380161 7.4530984407640499 0.57357644374324357 0 -0.81915203911291934 0.40957601955645967 0 0.28678822187162178 1 I I 0 1 0.5 forward I I I I #
face $-1 $91 $92 $30 $-1 $93 reversed single #
loop $-1 $-1 $94 $38 #
plane-surface $-1 19.43737793121754 21.571019580317945 198.79502846831701 0 1 0 0.50000000669873634 0 0.8660253999169214 forward_v I I I I #
face $-1 $95 $96 $31 $-1 $97 forward single #
loop $-1 $98 $99 $39 #
cone-surface $-1 62.526781381576328 28.108123928655608 2.6493962914503211 -0.50000000669873634 0 -0.8660253999169214 2.1650634997923035 0 -1.2500000167468408 1 I I 0 1 2.5 forward I I I I #
face $-1 $100 $101 $24 $-1 $102 reversed single #
loop $-1 $-1 $103 $40 #
plane-surface $-1 0 0 -10.301793043953628 0 0 1 1 0 0 forward_v I I I I #
coedge $-1 $104 $105 $106 $107 forward $41 $-1 #
face $-1 $108 $109 $25 $-1 $110 reversed single #
loop $-1 $-1 $111 $43 #
plane-surface $-1 0 0 -10.301793043953628 0 0 1 1 0 0 forward_v I I I I #
coedge $-1 $112 $113 $114 $115 forward $44 $-1 #
face $-1 $116 $117 $26 $-1 $118 reversed single #
loop $-1 $-1 $119 $46 #
plane-surface $-1 -72.541276284066299 -0.2439063139179396 6.0527757396120876 -0.57357644374324357 0 0.81915203911291934 0.81915203911291934 0 0.57357644374324357 forward_v I I I I #
coedge $-1 $120 $121 $122 $123 reversed $47 $-1 #
face $-1 $-1 $124 $27 $-1 $125 forward single #
loop $-1 $126 $127 $49 #
cone-surface $-1 -68.349608491085192 -3.2310841897738918 6.5241244799670266 0.57357644374324357 0 -0.81915203911291934 0.20478800977822983 0 0.14339411093581089 1 I I -0.70710678118654746 0.70710678118654746 0.25 forward I I I I #
loop $-1 $-1 $128 $35 #
coedge $-1 $80 $80 $129 $130 reversed $50 $-1 #
face $-1 $-1 $131 $28 $-1 $132 forward single #
loop $-1 $133 $134 $52 #
cone-surface $-1 -68.349608491085192 -0.2439063139179396 6.5241244799670266 0.57357644374324357 0 -0.81915203911291934 0.20478800977822983 0 0.14339411093581089 1 I I -0.70710678118654746 0.70710678118654746 0.25 forward I I I I #
loop $-1 $-1 $135 $36 #
coedge $-1 $85 $85 $136 $137 reversed $53 $-1 #
face $-1 $-1 $138 $29 $-1 $139 forward single #
loop $-1 $140 $141 $55 #
cone-surface $-1 -68.349608491085192 2.7432715619380161 6.5241244799670266 0.57357644374324357 0 -0.81915203911291934 0.20478800977822983 0 0.14339411093581089 1 I I -0.70710678118654746 0.70710678118654746 0.25 forward I I I I #
loop $-1 $-1 $142 $37 #
coedge $-1 $90 $90 $143 $144 reversed $56 $-1 #
face $-1 $145 $146 $30 $-1 $147 reversed single #
loop $-1 $-1 $148 $58 #
plane-surface $-1 -53.103899324718512 28.108123928655608 73.149852859532231 0.50000000669873634 0 0.8660253999169214 0.8660253999169214 0 -0.50000000669873634 forward_v I I I I #
coedge $-1 $149 $150 $151 $152 reversed $59 $-1 #
face $-1 $-1 $153 $31 $-1 $154 forward single #
loop $-1 $155 $156 $61 #
cone-surface $-1 60.281858868514107 28.108123928655608 -1.2389234907704374 -0.50000000669873634 0 -0.8660253999169214 1.0825317498961518 0 -0.6250000083734204 1 I I -0.70710678118654746 0.70710678118654746 1.25 forward I I I I #
loop $-1 $-1 $157 $39 #
coedge $-1 $99 $99 $158 $159 reversed $62 $-1 #
face $-1 $160 $161 $24 $-1 $162 reversed single #
loop $-1 $-1 $163 $64 #
plane-surface $-1 0 -34.645228276993272 0 0 1 0 0 0 1 forward_v I I I I #
coedge $-1 $164 $165 $166 $167 forward $65 $-1 #
coedge $-1 $168 $67 $169 $170 forward $41 $-1 #
coedge $-1 $67 $168 $171 $172 forward $41 $-1 #
coedge $-1 $173 $174 $67 $107 reversed $175 $-1 #
edge $-1 $176 -34.645228276993272 $177 34.645228276993272 $106 $178 forward 7 unknown #
face $-1 $179 $180 $25 $-1 $181 forward single #
loop $-1 $-1 $182 $68 #
plane-surface $-1 72.541276284066285 0 0 -1 0 0 0 0 1 forward_v I I I I #
coedge $-1 $183 $184 $185 $186 forward $69 $-1 #
coedge $-1 $185 $71 $182 $187 reversed $44 $-1 #
coedge $-1 $71 $185 $188 $189 reversed $44 $-1 #
coedge $-1 $190 $191 $71 $115 reversed $180 $-1 #
edge $-1 $192 -72.541276284066285 $193 72.541276284066285 $114 $194 forward 7 unknown #
face $-1 $195 $196 $26 $-1 $197 forward single #
loop $-1 $-1 $198 $72 #
plane-surface $-1 -155.75721083528796 4.7347234791753188 124.8974445155052 0 -1 0 0.57357644374324357 0 -0.81915203911291934 forward_v I I I I #
coedge $-1 $199 $200 $201 $202 reversed $73 $-1 #
coedge $-1 $121 $75 $203 $204 reversed $47 $-1 #
coedge $-1 $75 $120 $199 $205 reversed $47 $-1 #
coedge $-1 $201 $206 $75 $123 forward $196 $-1 #
edge $-1 $207 5.3373291335776969 $208 11.405554610835097 $122 $209 forward 7 unknown #
loop $-1 $-1 $129 $76 #
plane-surface $-1 -72.541276284066299 -0.2439063139179396 6.0527757396120876 -0.57357644374324357 0 0.81915203911291934 0.81915203911291934 0 0.57357644374324357 forward_v I I I I #
loop $-1 $-1 $210 $49 #
coedge $-1 $127 $127 $128 $211 reversed $77 $-1 #
coedge $-1 $128 $128 $127 $211 forward $79 $-1 #
coedge $-1 $129 $129 $80 $130 forward $124 $-1 #
edge $-1 $212 0 $212 6.2831853071796004 $129 $213 forward 7 unknown #
loop $-1 $-1 $136 $81 #
plane-surface $-1 -72.541276284066299 -0.2439063139179396 6.0527757396120876 -0.57357644374324357 0 0.81915203911291934 0.81915203911291934 0 0.57357644374324357 forward_v I I I I #
loop $-1 $-1 $214 $52 #
coedge $-1 $134 $134 $135 $215 reversed $82 $-1 #
coedge $-1 $135 $135 $134 $215 forward $84 $-1 #
coedge $-1 $136 $136 $85 $137 forward $131 $-1 #
edge $-1 $216 0 $216 6.2831853071796004 $136 $217 forward 7 unknown #
loop $-1 $-1 $143 $86 #
plane-surface $-1 -72.541276284066299 -0.2439063139179396 6.0527757396120876 -0.57357644374324357 0 0.81915203911291934 0.81915203911291934 0 0.57357644374324357 forward_v I I I I #
loop $-1 $-1 $218 $55 #
coedge $-1 $141 $141 $142 $219 reversed $87 $-1 #
coedge $-1 $142 $142 $141 $219 forward $89 $-1 #
coedge $-1 $143 $143 $90 $144 forward $138 $-1 #
edge $-1 $220 0 $220 6.2831853071796004 $143 $221 forward 7 unknown #
face $-1 $222 $223 $30 $-1 $224 forward single #
loop $-1 $-1 $225 $91 #
plane-surface $-1 0 34.645228276993272 0 0 -1 0 0 0 -1 forward_v I I I I #
coedge $-1 $226 $227 $228 $229 reversed $92 $-1 #
coedge $-1 $150 $94 $230 $231 reversed $59 $-1 #
coedge $-1 $94 $149 $226 $232 reversed $59 $-1 #
coedge $-1 $228 $233 $94 $152 forward $234 $-1 #
edge $-1 $235 89.095721190204884 $236 98.788938630562342 $151 $237 forward 7 unknown #
loop $-1 $-1 $158 $95 #
plane-surface $-1 -53.103899324718512 28.108123928655608 73.149852859532231 0.50000000669873634 0 0.8660253999169214 0.8660253999169214 0 -0.50000000669873634 forward_v I I I I #
loop $-1 $-1 $238 $61 #
coedge $-1 $156 $156 $157 $239 reversed $96 $-1 #
coedge $-1 $157 $157 $156 $239 forward $98 $-1 #
coedge $-1 $158 $158 $99 $159 forward $153 $-1 #
edge $-1 $240 0 $240 6.2831853071796004 $158 $241 forward 7 unknown #
face $-1 $242 $243 $24 $-1 $244 reversed single #
loop $-1 $-1 $245 $100 #
plane-surface $-1 -72.541276284066285 0 0 1 0 0 0 0 -1 forward_v I I I I #
coedge $-1 $246 $171 $247 $248 forward $101 $-1 #
coedge $-1 $249 $103 $246 $250 forward $65 $-1 #
coedge $-1 $103 $249 $251 $252 forward $65 $-1 #
coedge $-1 $174 $173 $103 $167 reversed $175 $-1 #
edge $-1 $253 -34.645228276993272 $254 34.645228276993272 $166 $255 forward 7 unknown #
coedge $-1 $105 $104 $256 $257 forward $41 $-1 #
coedge $-1 $258 $259 $104 $170 reversed $243 $-1 #
edge $-1 $177 -72.541276284066285 $260 72.541276284066285 $169 $261 forward 7 unknown #
coedge $-1 $163 $262 $105 $172 reversed $101 $-1 #
edge $-1 $263 -72.541276284066285 $176 72.541276284066285 $171 $264 forward 7 unknown #
coedge $-1 $166 $106 $262 $265 forward $175 $-1 #
coedge $-1 $106 $166 $258 $266 reversed $175 $-1 #
loop $-1 $-1 $173 $242 #
vertex $-1 $107 $267 #
vertex $-1 $107 $268 #
straight-curve $-1 72.541276284066285 0 10.301793043953628 0 1 0 I I #
face $-1 $269 $270 $25 $-1 $271 reversed single #
loop $-1 $-1 $191 $108 #
plane-surface $-1 0 -39.927268539087407 -7.3017930439536283 0 0 1 1 0 0 forward_v I I I I #
coedge $-1 $272 $273 $112 $187 forward $109 $-1 #
coedge $-1 $274 $111 $273 $275 forward $69 $-1 #
coedge $-1 $111 $274 $276 $277 forward $69 $-1 #
coedge $-1 $113 $112 $111 $186 reversed $44 $-1 #
edge $-1 $278 -72.541276284066285 $279 72.541276284066285 $111 $280 forward 7 unknown #
edge $-1 $279 -10.301793043953628 $193 -7.3017930439536283 $182 $281 forward 7 unknown #
coedge $-1 $276 $282 $113 $189 forward $283 $-1 #
edge $-1 $192 7.3017930439536283 $278 10.301793043953628 $188 $284 forward 7 unknown #
coedge $-1 $285 $114 $282 $286 forward $180 $-1 #
coedge $-1 $114 $285 $272 $287 forward $180 $-1 #
vertex $-1 $189 $288 #
vertex $-1 $287 $289 #
straight-curve $-1 0 -34.645228276993272 -7.3017930439536283 1 0 0 I I #
face $-1 $-1 $290 $26 $-1 $291 reversed single #
loop $-1 $-1 $122 $116 #
plane-surface $-1 0 0 10.301793043953628 0 0 1 1 0 0 forward_v I I I I #
coedge $-1 $292 $293 $294 $295 reversed $117 $-1 #
coedge $-1 $296 $119 $121 $205 forward $73 $-1 #
coedge $-1 $119 $296 $292 $297 forward $73 $-1 #
coedge $-1 $294 $122 $119 $202 forward $196 $-1 #
edge $-1 $208 -5.1005829500522282 $298 4.8566766361342886 $201 $299 forward 7 unknown #
coedge $-1 $300 $301 $120 $204 forward $290 $-1 #
edge $-1 $302 -56.395946518140505 $207 -52.14692921379897 $203 $303 forward 7 unknown #
edge $-1 $208 -7.4079355083201026 $302 -1.7244671030687178e-014 $121 $304 forward 7 unknown #
coedge $-1 $122 $294 $300 $305 forward $196 $-1 #
vertex $-1 $204 $306 #
vertex $-1 $123 $307 #
straight-curve $-1 -77.878605417643982 -5.222536107011198 10.30179304395363 1 0 0 I I #
coedge $-1 $210 $210 $-1 $308 reversed $126 $-1 #
edge $-1 $309 0 $309 6.2831853071796004 $127 $310 forward 7 unknown #
vertex $-1 $130 $311 #
ellipse-curve $-1 -69.507163545437578 -3.2310841897738918 8.1772843917828659 -0.57357644374324357 0 0.81915203911291934 0.40957601955645967 0 0.28678822187162178 1 I I #
coedge $-1 $214 $214 $-1 $312 reversed $133 $-1 #
edge $-1 $313 0 $313 6.2831853071796004 $134 $314 forward 7 unknown #
vertex $-1 $137 $315 #
ellipse-curve $-1 -69.507163545437578 -0.2439063139179396 8.1772843917828659 -0.57357644374324357 0 0.81915203911291934 0.40957601955645967 0 0.28678822187162178 1 I I #
coedge $-1 $218 $218 $-1 $316 reversed $140 $-1 #
edge $-1 $317 0 $317 6.2831853071796004 $141 $318 forward 7 unknown #
vertex $-1 $144 $319 #
ellipse-curve $-1 -69.507163545437578 2.7432715619380161 8.1772843917828659 -0.57357644374324357 0 0.81915203911291934 0.40957601955645967 0 0.28678822187162178 1 I I #
face $-1 $-1 $234 $30 $-1 $320 reversed single #
loop $-1 $-1 $321 $145 #
plane-surface $-1 0 0 10.301793043953628 0 0 1 1 0 0 forward_v I I I I #
coedge $-1 $322 $323 $227 $324 forward $146 $-1 #
coedge $-1 $325 $148 $150 $232 forward $92 $-1 #
coedge $-1 $148 $325 $225 $324 reversed $92 $-1 #
coedge $-1 $326 $151 $148 $229 forward $234 $-1 #
edge $-1 $236 7.5169576159901403 $327 20.591166312665468 $228 $328 forward 7 unknown #
coedge $-1 $329 $321 $149 $231 forward $223 $-1 #
edge $-1 $330 46.033442522855132 $235 62.822587318457515 $230 $331 forward 7 unknown #
edge $-1 $236 -145.0825525681326 $330 -125.6961179471469 $150 $332 forward 7 unknown #
coedge $-1 $151 $326 $329 $333 reversed $234 $-1 #
loop $-1 $-1 $228 $222 #
vertex $-1 $333 $334 #
vertex $-1 $152 $335 #
straight-curve $-1 72.541276284066285 21.571019580317945 99.397514234158507 0 0 -1 I I #
coedge $-1 $238 $238 $-1 $336 reversed $155 $-1 #
edge $-1 $337 0 $337 6.2831853071796004 $156 $338 forward 7 unknown #
vertex $-1 $159 $339 #
ellipse-curve $-1 64.146703886265115 28.108123928655608 5.4551843237748967 0.50000000669873634 0 0.8660253999169214 2.1650634997923035 0 -1.2500000167468408 1 I I #
face $-1 $-1 $175 $24 $-1 $340 reversed single #
loop $-1 $-1 $258 $160 #
plane-surface $-1 0 34.645228276993272 0 0 -1 0 0 0 -1 forward_v I I I I #
coedge $-1 $341 $256 $259 $342 forward $161 $-1 #
coedge $-1 $262 $163 $164 $250 reversed $101 $-1 #
coedge $-1 $256 $341 $163 $248 reversed $161 $-1 #
edge $-1 $263 -10.301793043953628 $343 10.301793043953628 $247 $344 forward 7 unknown #
coedge $-1 $165 $164 $341 $345 forward $65 $-1 #
edge $-1 $254 -72.541276284066285 $343 72.541276284066285 $246 $346 forward 7 unknown #
coedge $-1 $259 $258 $165 $252 reversed $243 $-1 #
edge $-1 $347 -72.541276284066285 $253 72.541276284066285 $251 $348 forward 7 unknown #
vertex $-1 $167 $349 #
vertex $-1 $265 $350 #
straight-curve $-1 72.541276284066285 0 -10.301793043953628 0 -1 0 I I #
coedge $-1 $245 $247 $168 $257 reversed $161 $-1 #
edge $-1 $260 -34.645228276993272 $263 34.645228276993272 $256 $351 forward 7 unknown #
coedge $-1 $251 $169 $174 $266 forward $243 $-1 #
coedge $-1 $169 $251 $245 $342 reversed $243 $-1 #
vertex $-1 $170 $352 #
straight-curve $-1 0 34.645228276993272 10.301793043953628 -1 0 0 I I #
coedge $-1 $171 $246 $173 $265 reversed $101 $-1 #
vertex $-1 $257 $353 #
straight-curve $-1 0 -34.645228276993272 10.301793043953628 1 0 0 I I #
edge $-1 $176 -10.301793043953628 $254 10.301793043953628 $173 $354 forward 7 unknown #
edge $-1 $177 -10.301793043953628 $253 10.301793043953628 $174 $355 forward 7 unknown #
point $-1 72.541276284066285 -34.645228276993272 10.301793043953628 #
point $-1 72.541276284066285 34.645228276993272 10.301793043953628 #
face $-1 $-1 $283 $25 $-1 $356 reversed single #
loop $-1 $-1 $357 $179 #
plane-surface $-1 0 -45.20930880118155 -8.8017930439536283 0 1 0 0 0 1 forward_v I I I I #
coedge $-1 $358 $182 $191 $287 reversed $109 $-1 #
coedge $-1 $182 $358 $183 $275 reversed $109 $-1 #
coedge $-1 $184 $183 $359 $360 forward $69 $-1 #
edge $-1 $279 34.645228276993272 $361 45.20930880118155 $273 $362 forward 7 unknown #
coedge $-1 $363 $188 $184 $277 reversed $283 $-1 #
edge $-1 $364 -45.20930880118155 $278 -34.645228276993272 $276 $365 forward 7 unknown #
vertex $-1 $189 $366 #
vertex $-1 $275 $367 #
straight-curve $-1 0 -34.645228276993272 -10.301793043953628 1 0 0 I I #
straight-curve $-1 72.541276284066285 -34.645228276993272 0 0 0 1 I I #
coedge $-1 $188 $363 $190 $286 reversed $283 $-1 #
loop $-1 $-1 $188 $269 #
straight-curve $-1 -72.541276284066285 -34.645228276993272 0 0 0 -1 I I #
coedge $-1 $191 $190 $368 $369 forward $180 $-1 #
edge $-1 $192 -5.2820402620941422 $370 5.2820402620941422 $282 $371 forward 7 unknown #
edge $-1 $372 -5.2820402620941422 $193 5.2820402620941422 $272 $373 forward 7 unknown #
point $-1 -72.541276284066285 -34.645228276993265 -7.3017930439536283 #
point $-1 72.541276284066285 -34.645228276993265 -7.3017930439536283 #
loop $-1 $-1 $203 $195 #
plane-surface $-1 -72.541276284066285 0 0 1 0 0 0 0 -1 forward_v I I I I #
coedge $-1 $293 $198 $200 $297 reversed $117 $-1 #
coedge $-1 $198 $292 $374 $375 reversed $117 $-1 #
coedge $-1 $206 $201 $198 $295 forward $196 $-1 #
edge $-1 $298 -11.405554610835097 $376 -5.3373291335776969 $294 $377 forward 7 unknown #
coedge $-1 $200 $199 $301 $378 reversed $73 $-1 #
edge $-1 $379 1.7244671030687178e-014 $298 7.4079355083201026 $292 $380 forward 7 unknown #
vertex $-1 $202 $381 #
straight-curve $-1 -66.473050806808885 -0.1219531569589698 10.301793043953632 0 1 0 I I #
coedge $-1 $374 $203 $206 $305 reversed $290 $-1 #
coedge $-1 $203 $374 $296 $378 forward $290 $-1 #
vertex $-1 $204 $382 #
straight-curve $-1 -72.541276284066285 -5.222536107011198 62.4487222577526 0 0 1 I I #
straight-curve $-1 -72.541276284066299 -5.222536107011198 6.0527757396120876 -0.81915203911291934 0 -0.57357644374324357 I I #
edge $-1 $376 -4.7347234791753188 $207 5.222536107011198 $300 $383 forward 7 unknown #
point $-1 -72.541276284066285 -5.222536107011198 10.301793043953628 #
point $-1 -66.473050806808885 -5.222536107011198 10.301793043953628 #
edge $-1 $384 1 $384 0 $210 $-1 forward 7 unknown #
vertex $-1 $211 $385 #
ellipse-curve $-1 -68.493002602021008 -3.2310841897738918 6.7289124897452561 -0.57357644374324357 0 0.81915203911291934 0.40957601955645967 0 0.28678822187162178 1 I I #
point $-1 -69.09758752588111 -3.2310841897738918 8.4640726136544657 #
edge $-1 $386 1 $386 0 $214 $-1 forward 7 unknown #
vertex $-1 $215 $387 #
ellipse-curve $-1 -68.493002602021008 -0.2439063139179396 6.7289124897452561 -0.57357644374324357 0 0.81915203911291934 0.40957601955645967 0 0.28678822187162178 1 I I #
point $-1 -69.09758752588111 -0.2439063139179396 8.4640726136544657 #
edge $-1 $388 1 $388 0 $218 $-1 forward 7 unknown #
vertex $-1 $219 $389 #
ellipse-curve $-1 -68.493002602021008 2.7432715619380161 6.7289124897452561 -0.57357644374324357 0 0.81915203911291934 0.40957601955645967 0 0.28678822187162178 1 I I #
point $-1 -69.09758752588111 2.7432715619380161 8.4640726136544657 #
plane-surface $-1 72.541276284066285 0 0 -1 0 0 0 0 1 forward_v I I I I #
coedge $-1 $230 $390 $325 $391 forward $223 $-1 #
coedge $-1 $323 $225 $390 $392 reversed $146 $-1 #
coedge $-1 $225 $322 $326 $393 forward $146 $-1 #
edge $-1 $327 -103.80042628332511 $394 -84.413991662339413 $225 $395 forward 7 unknown #
coedge $-1 $227 $226 $321 $391 reversed $92 $-1 #
coedge $-1 $233 $228 $323 $393 reversed $234 $-1 #
vertex $-1 $324 $396 #
straight-curve $-1 72.541276284066285 14.054061964327804 0.60857560359616514 0 1 0 I I #
coedge $-1 $390 $230 $233 $333 forward $223 $-1 #
vertex $-1 $231 $397 #
straight-curve $-1 9.71868896560877 21.571019580317945 10.301793043953623 1 0 0 I I #
straight-curve $-1 -53.103899324718512 21.571019580317945 73.149852859532231 -0.8660253999169214 0 0.50000000669873634 I I #
edge $-1 $235 21.571019580317945 $398 34.645228276993272 $233 $399 forward 7 unknown #
point $-1 72.541276284066285 21.571019580317945 10.301793043953628 #
point $-1 72.541276284066299 21.571019580317945 0.60857560359616514 #
edge $-1 $400 1 $400 0 $238 $-1 forward 7 unknown #
vertex $-1 $239 $401 #
ellipse-curve $-1 60.906858876887526 28.108123928655608 -0.15639174087428565 0.50000000669873634 0 0.8660253999169214 2.1650634997923035 0 -1.2500000167468408 1 I I #
point $-1 66.311767386057426 28.108123928655608 4.2051843070280874 #
plane-surface $-1 72.541276284066285 0 0 -1 0 0 0 0 1 forward_v I I I I #
coedge $-1 $247 $245 $249 $345 reversed $161 $-1 #
edge $-1 $260 -10.301793043953628 $347 10.301793043953628 $259 $402 forward 7 unknown #
vertex $-1 $345 $403 #
straight-curve $-1 -72.541276284066285 -34.645228276993272 0 0 0 -1 I I #
edge $-1 $343 -34.645228276993272 $347 34.645228276993272 $341 $404 forward 7 unknown #
straight-curve $-1 0 -34.645228276993272 -10.301793043953628 -1 0 0 I I #
vertex $-1 $252 $405 #
straight-curve $-1 0 34.645228276993272 -10.301793043953628 1 0 0 I I #
point $-1 72.541276284066285 34.645228276993272 -10.301793043953628 #
point $-1 72.541276284066285 -34.645228276993272 -10.301793043953628 #
straight-curve $-1 -72.541276284066285 0 10.301793043953628 0 -1 0 I I #
point $-1 -72.541276284066285 34.645228276993272 10.301793043953628 #
point $-1 -72.541276284066285 -34.645228276993272 10.301793043953628 #
straight-curve $-1 72.541276284066285 -34.645228276993272 0 0 0 -1 I I #
straight-curve $-1 72.541276284066285 34.645228276993272 0 0 0 -1 I I #
plane-surface $-1 -72.541276284066285 0 0 1 0 0 0 0 -1 forward_v I I I I #
coedge $-1 $359 $368 $363 $406 forward $270 $-1 #
coedge $-1 $273 $272 $407 $408 forward $109 $-1 #
coedge $-1 $407 $357 $274 $360 reversed $270 $-1 #
edge $-1 $361 -72.541276284066285 $364 72.541276284066285 $359 $409 forward 7 unknown #
vertex $-1 $408 $410 #
straight-curve $-1 72.541276284066285 0 -10.301793043953628 0 -1 0 I I #
coedge $-1 $282 $276 $357 $406 reversed $283 $-1 #
vertex $-1 $277 $411 #
straight-curve $-1 -72.541276284066285 0 -10.301793043953628 0 1 0 I I #
point $-1 -72.541276284066285 -34.645228276993272 -10.301793043953628 #
point $-1 72.541276284066285 -34.645228276993272 -10.301793043953628 #
coedge $-1 $357 $407 $285 $369 reversed $270 $-1 #
edge $-1 $370 -72.541276284066285 $372 72.541276284066285 $368 $412 forward 7 unknown #
vertex $-1 $286 $413 #
straight-curve $-1 -72.541276284066285 -39.927268539087407 -7.3017930439536283 0 -1 0 I I #
vertex $-1 $287 $414 #
straight-curve $-1 72.541276284066285 -39.927268539087407 -7.3017930439536283 0 1 0 I I #
coedge $-1 $301 $300 $293 $375 forward $290 $-1 #
edge $-1 $376 52.14692921379897 $379 56.395946518140505 $374 $415 forward 7 unknown #
vertex $-1 $305 $416 #
straight-curve $-1 -77.878605417643982 4.7347234791753188 10.30179304395363 -1 0 0 I I #
edge $-1 $379 -4.8566766361342886 $302 5.1005829500522282 $301 $417 forward 7 unknown #
vertex $-1 $378 $418 #
straight-curve $-1 -72.541276284066299 4.7347234791753188 6.0527757396120876 0.81915203911291934 0 0.57357644374324357 I I #
point $-1 -66.473050806808885 4.7347234791753188 10.301793043953628 #
point $-1 -72.541276284066285 -5.222536107011198 6.0527757396120974 #
straight-curve $-1 -72.541276284066285 0 10.301793043953628 0 -1 0 I I #
vertex $-1 $308 $419 #
point $-1 -68.08342658246454 -3.2310841897738918 7.0157007116168781 #
vertex $-1 $312 $420 #
point $-1 -68.08342658246454 -0.2439063139179396 7.0157007116168781 #
vertex $-1 $316 $421 #
point $-1 -68.08342658246454 2.7432715619380161 7.0157007116168781 #
coedge $-1 $321 $329 $322 $392 forward $223 $-1 #
edge $-1 $394 -20.591166312665468 $330 -7.5169576159901403 $321 $422 forward 7 unknown #
edge $-1 $398 -72.541276284066285 $394 -55.752131488463903 $322 $423 forward 7 unknown #
edge $-1 $398 -10.301793043953628 $327 -0.6085756035961678 $326 $424 forward 7 unknown #
vertex $-1 $324 $425 #
straight-curve $-1 -17.352529399497257 34.645228276993272 52.508789440590405 -0.8660253999169214 0 0.50000000669873634 I I #
point $-1 72.541276284066285 34.645228276993272 0.6085756035961678 #
point $-1 55.752131488463903 21.571019580317945 10.30179304395363 #
vertex $-1 $333 $426 #
straight-curve $-1 72.541276284066285 0 10.301793043953628 0 1 0 I I #
vertex $-1 $336 $427 #
point $-1 63.071922376679829 28.108123928655608 -1.4063917576211264 #
straight-curve $-1 -72.541276284066285 34.645228276993272 0 0 0 -1 I I #
point $-1 -72.541276284066285 -34.645228276993272 -10.301793043953628 #
straight-curve $-1 -72.541276284066285 0 -10.301793043953628 0 1 0 I I #
point $-1 -72.541276284066285 34.645228276993272 -10.301793043953628 #
edge $-1 $370 -1.5 $364 1.5 $363 $428 forward 7 unknown #
coedge $-1 $368 $359 $358 $408 reversed $270 $-1 #
edge $-1 $372 -1.5 $361 1.5 $358 $429 forward 7 unknown #
straight-curve $-1 0 -45.20930880118155 -10.301793043953628 -1 0 0 I I #
point $-1 72.541276284066285 -45.20930880118155 -10.301793043953628 #
point $-1 -72.541276284066285 -45.20930880118155 -10.301793043953628 #
straight-curve $-1 0 -45.20930880118155 -7.3017930439536283 1 0 0 I I #
point $-1 -72.541276284066285 -45.20930880118155 -7.3017930439536283 #
point $-1 72.541276284066285 -45.20930880118155 -7.3017930439536283 #
straight-curve $-1 -72.541276284066285 4.7347234791753188 62.4487222577526 0 0 -1 I I #
point $-1 -72.541276284066285 4.7347234791753188 10.301793043953628 #
straight-curve $-1 -72.541276284066285 -0.1219531569589698 6.0527757396121036 0 -1 0 I I #
point $-1 -72.541276284066285 4.7347234791753188 6.0527757396120974 #
point $-1 -68.206214380149376 -3.2310841897738918 6.3193364701887971 #
point $-1 -68.206214380149376 -0.2439063139179396 6.3193364701887971 #
point $-1 -68.206214380149376 2.7432715619380161 6.3193364701887971 #
straight-curve $-1 55.752131488463874 14.054061964327804 10.301793043953637 0 -1 0 I I #
straight-curve $-1 0 34.645228276993272 10.301793043953628 -1 0 0 I I #
straight-curve $-1 72.541276284066285 34.645228276993272 0 0 0 -1 I I #
point $-1 55.752131488463903 34.645228276993272 10.30179304395363 #
point $-1 72.541276284066285 34.645228276993272 10.301793043953628 #
point $-1 59.656858860140687 28.108123928655608 -2.3214552406665891 #
straight-curve $-1 -72.541276284066285 -45.20930880118155 -8.8017930439536283 0 0 -1 I I #
straight-curve $-1 72.541276284066285 -45.20930880118155 -8.8017930439536283 0 0 -1 I I #
End-of-ACIS-data 