500 0 7 0           
7 Unknown 11 ACIS 5.0 NT 24 Thu Mar 25 17:21:10 1999 
-1 9.9999999999999995e-007 1e-010 
body $-1 $7 $-1 $8 #
body $-1 $9 $-1 $10 #
body $-1 $11 $-1 $12 #
body $-1 $13 $-1 $14 #
body $-1 $15 $-1 $16 #
body $-1 $17 $-1 $18 #
body $-1 $19 $-1 $20 #
lump $-1 $-1 $21 $0 #
transform $-1 1 0 0 0 1 0 0 0 1 48.374279000213633 21.340516838031807 7.0953131699653218 1 rotate no_reflect no_shear #
lump $-1 $-1 $22 $1 #
transform $-1 1 0 0 0 1 0 0 0 1 48.374279000213633 21.340516838031807 7.0953131699653218 1 rotate no_reflect no_shear #
lump $-1 $-1 $23 $2 #
transform $-1 1 0 0 0 1 0 0 0 1 48.374279000213633 21.340516838031807 7.0953131699653218 1 rotate no_reflect no_shear #
lump $-1 $-1 $24 $3 #
transform $-1 1 0 0 0 1 0 0 0 1 48.374279000213633 21.340516838031807 7.0953131699653218 1 rotate no_reflect no_shear #
lump $-1 $-1 $25 $4 #
transform $-1 1 0 0 0 1 0 0 0 1 48.374279000213633 21.340516838031807 7.0953131699653218 1 rotate no_reflect no_shear #
lump $-1 $-1 $26 $5 #
transform $-1 1 0 0 0 1 0 0 0 1 48.374279000213633 21.340516838031807 7.0953131699653218 1 rotate no_reflect no_shear #
lump $-1 $-1 $27 $6 #
transform $-1 1 0 0 0 1 0 0 0 1 48.374279000213633 21.340516838031807 7.0953131699653218 1 rotate no_reflect no_shear #
shell $-1 $-1 $-1 $28 $-1 $7 #
shell $-1 $-1 $-1 $29 $-1 $9 #
shell $-1 $-1 $-1 $30 $-1 $11 #
shell $-1 $-1 $-1 $31 $-1 $13 #
shell $-1 $-1 $-1 $32 $-1 $15 #
shell $-1 $-1 $-1 $33 $-1 $17 #
shell $-1 $-1 $-1 $34 $-1 $19 #
face $-1 $35 $36 $21 $-1 $37 forward single #
face $-1 $38 $39 $22 $-1 $40 forward single #
face $-1 $41 $42 $23 $-1 $43 forward single #
face $-1 $44 $45 $24 $-1 $46 reversed single #
face $-1 $47 $48 $25 $-1 $49 forward single #
face $-1 $50 $51 $26 $-1 $52 forward single #
face $-1 $53 $54 $27 $-1 $55 forward single #
face $-1 $56 $57 $21 $-1 $58 reversed single #
loop $-1 $-1 $59 $28 #
plane-surface $-1 0 0 7.0953131699653218 0 0 1 1 0 0 forward_v I I I I #
face $-1 $60 $61 $22 $-1 $62 reversed single #
loop $-1 $-1 $63 $29 #
plane-surface $-1 0 -21.340516838031807 0 0 1 0 0 0 1 forward_v I I I I #
face $-1 $64 $65 $23 $-1 $66 reversed single #
loop $-1 $-1 $67 $30 #
plane-surface $-1 0 21.340516838031807 0 0 -1 0 0 0 -1 forward_v I I I I #
face $-1 $68 $69 $24 $-1 $70 reversed single #
loop $-1 $-1 $71 $31 #
plane-surface $-1 26.970428224173915 5.9111083169942571 138.91046091987184 0 -1 0 -0.5877852598018023 0 -0.80901698891910034 forward_v I I I I #
face $-1 $72 $73 $25 $-1 $74 forward single #
loop $-1 $75 $76 $32 #
cone-surface $-1 45.708554348143828 0.97695586142000934 4.9125524424316831 -0.5877852598018023 0 -0.80901698891910034 0.40450849445955017 0 -0.29389262990090115 1 I I 0 1 0.5 forward I I I I #
face $-1 $77 $78 $26 $-1 $79 forward single #
loop $-1 $80 $81 $33 #
cone-surface $-1 45.708554348143828 2.8272630322603547 4.9125524424316831 -0.5877852598018023 0 -0.80901698891910034 0.40450849445955017 0 -0.29389262990090115 1 I I 0 1 0.5 forward I I I I #
face $-1 $82 $83 $27 $-1 $84 forward single #
loop $-1 $85 $86 $34 #
cone-surface $-1 45.708554348143828 4.6775702031007 4.9125524424316831 -0.5877852598018023 0 -0.80901698891910034 0.40450849445955017 0 -0.29389262990090115 1 I I 0 1 0.5 forward I I I I #
face $-1 $87 $88 $21 $-1 $89 reversed single #
loop $-1 $-1 $90 $35 #
plane-surface $-1 0 0 -7.0953131699653218 0 0 1 1 0 0 forward_v I I I I #
coedge $-1 $91 $92 $93 $94 forward $36 $-1 #
face $-1 $95 $96 $22 $-1 $97 reversed single #
loop $-1 $-1 $98 $38 #
plane-surface $-1 0 0 -7.0953131699653218 0 0 1 1 0 0 forward_v I I I I #
coedge $-1 $99 $100 $101 $102 forward $39 $-1 #
face $-1 $103 $104 $23 $-1 $105 forward single #
loop $-1 $-1 $106 $41 #
plane-surface $-1 -48.374279000213633 0 0 1 0 0 0 0 -1 forward_v I I I I #
coedge $-1 $107 $108 $109 $110 forward $42 $-1 #
face $-1 $111 $112 $24 $-1 $113 reversed single #
loop $-1 $-1 $114 $44 #
plane-surface $-1 -29.896948075556963 2.8272630322603511 60.639233844101241 0.5877852598018023 0 0.80901698891910034 0.80901698891910034 0 -0.5877852598018023 forward_v I I I I #
coedge $-1 $115 $116 $117 $118 reversed $45 $-1 #
face $-1 $-1 $119 $25 $-1 $120 forward single #
loop $-1 $121 $122 $47 #
cone-surface $-1 45.183055454757834 0.97695586142000934 4.1892652804657482 -0.5877852598018023 0 -0.80901698891910034 0.20225424722977509 0 -0.14694631495045057 1 I I -0.70710678118654746 0.70710678118654746 0.25 forward I I I I #
loop $-1 $-1 $123 $32 #
coedge $-1 $76 $76 $124 $125 reversed $48 $-1 #
face $-1 $-1 $126 $26 $-1 $127 forward single #
loop $-1 $128 $129 $50 #
cone-surface $-1 45.183055454757834 2.8272630322603547 4.1892652804657482 -0.5877852598018023 0 -0.80901698891910034 0.20225424722977509 0 -0.14694631495045057 1 I I -0.70710678118654746 0.70710678118654746 0.25 forward I I I I #
loop $-1 $-1 $130 $33 #
coedge $-1 $81 $81 $131 $132 reversed $51 $-1 #
face $-1 $-1 $133 $27 $-1 $134 forward single #
loop $-1 $135 $136 $53 #
cone-surface $-1 45.183055454757834 4.6775702031007 4.1892652804657482 -0.5877852598018023 0 -0.80901698891910034 0.20225424722977509 0 -0.14694631495045057 1 I I -0.70710678118654746 0.70710678118654746 0.25 forward I I I I #
loop $-1 $-1 $137 $34 #
coedge $-1 $86 $86 $138 $139 reversed $54 $-1 #
face $-1 $140 $141 $21 $-1 $142 reversed single #
loop $-1 $-1 $143 $56 #
plane-surface $-1 0 -21.340516838031807 0 0 1 0 0 0 1 forward_v I I I I #
coedge $-1 $144 $145 $146 $147 forward $57 $-1 #
coedge $-1 $148 $59 $149 $150 forward $36 $-1 #
coedge $-1 $59 $148 $151 $152 forward $36 $-1 #
coedge $-1 $153 $154 $59 $94 reversed $155 $-1 #
edge $-1 $156 -21.340516838031807 $157 21.340516838031807 $93 $158 forward 7 unknown #
face $-1 $159 $160 $22 $-1 $161 forward single #
loop $-1 $-1 $162 $60 #
plane-surface $-1 48.374279000213633 0 0 -1 0 0 0 0 1 forward_v I I I I #
coedge $-1 $163 $164 $165 $166 forward $61 $-1 #
coedge $-1 $165 $63 $162 $167 reversed $39 $-1 #
coedge $-1 $63 $165 $168 $169 reversed $39 $-1 #
coedge $-1 $170 $171 $63 $102 reversed $160 $-1 #
edge $-1 $172 -48.374279000213633 $173 48.374279000213633 $101 $174 forward 7 unknown #
face $-1 $175 $176 $23 $-1 $177 reversed single #
loop $-1 $-1 $178 $64 #
plane-surface $-1 0 0 7.0953131699653218 0 0 1 1 0 0 forward_v I I I I #
coedge $-1 $179 $180 $108 $181 forward $65 $-1 #
coedge $-1 $182 $67 $183 $184 reversed $42 $-1 #
coedge $-1 $67 $182 $106 $181 reversed $42 $-1 #
coedge $-1 $185 $186 $67 $110 reversed $176 $-1 #
edge $-1 $187 -48.374279000213633 $188 48.374279000213633 $109 $189 forward 7 unknown #
face $-1 $190 $191 $24 $-1 $192 forward single #
loop $-1 $-1 $193 $68 #
plane-surface $-1 26.970428224173915 -0.25658225247355482 138.91046091987184 0 1 0 0.5877852598018023 0 0.80901698891910034 forward_v I I I I #
coedge $-1 $194 $195 $196 $197 reversed $69 $-1 #
coedge $-1 $116 $71 $198 $199 reversed $45 $-1 #
coedge $-1 $71 $115 $194 $200 reversed $45 $-1 #
coedge $-1 $196 $201 $71 $118 forward $191 $-1 #
edge $-1 $202 -34.889064888126676 $203 -30.314720740858156 $117 $204 forward 7 unknown #
loop $-1 $-1 $124 $72 #
plane-surface $-1 -29.896948075556963 2.8272630322603511 60.639233844101241 0.5877852598018023 0 0.80901698891910034 0.80901698891910034 0 -0.5877852598018023 forward_v I I I I #
loop $-1 $-1 $205 $47 #
coedge $-1 $122 $122 $123 $206 reversed $73 $-1 #
coedge $-1 $123 $123 $122 $206 forward $75 $-1 #
coedge $-1 $124 $124 $76 $125 forward $119 $-1 #
edge $-1 $207 0 $207 6.2831853071796004 $124 $208 forward 7 unknown #
loop $-1 $-1 $131 $77 #
plane-surface $-1 -29.896948075556963 2.8272630322603511 60.639233844101241 0.5877852598018023 0 0.80901698891910034 0.80901698891910034 0 -0.5877852598018023 forward_v I I I I #
loop $-1 $-1 $209 $50 #
coedge $-1 $129 $129 $130 $210 reversed $78 $-1 #
coedge $-1 $130 $130 $129 $210 forward $80 $-1 #
coedge $-1 $131 $131 $81 $132 forward $126 $-1 #
edge $-1 $211 0 $211 6.2831853071796004 $131 $212 forward 7 unknown #
loop $-1 $-1 $138 $82 #
plane-surface $-1 -29.896948075556963 2.8272630322603511 60.639233844101241 0.5877852598018023 0 0.80901698891910034 0.80901698891910034 0 -0.5877852598018023 forward_v I I I I #
loop $-1 $-1 $213 $53 #
coedge $-1 $136 $136 $137 $214 reversed $83 $-1 #
coedge $-1 $137 $137 $136 $214 forward $85 $-1 #
coedge $-1 $138 $138 $86 $139 forward $133 $-1 #
edge $-1 $215 0 $215 6.2831853071796004 $138 $216 forward 7 unknown #
face $-1 $217 $218 $21 $-1 $219 reversed single #
loop $-1 $-1 $220 $87 #
plane-surface $-1 -48.374279000213633 0 0 1 0 0 0 0 -1 forward_v I I I I #
coedge $-1 $151 $221 $153 $222 reversed $88 $-1 #
coedge $-1 $223 $90 $221 $224 forward $57 $-1 #
coedge $-1 $90 $223 $225 $226 forward $57 $-1 #
coedge $-1 $154 $153 $90 $147 reversed $155 $-1 #
edge $-1 $227 -21.340516838031807 $228 21.340516838031807 $146 $229 forward 7 unknown #
coedge $-1 $92 $91 $230 $231 forward $36 $-1 #
coedge $-1 $232 $233 $91 $150 reversed $218 $-1 #
edge $-1 $157 -48.374279000213633 $234 48.374279000213633 $149 $235 forward 7 unknown #
coedge $-1 $236 $143 $92 $152 reversed $88 $-1 #
edge $-1 $237 -48.374279000213633 $156 48.374279000213633 $151 $238 forward 7 unknown #
coedge $-1 $146 $93 $143 $222 forward $155 $-1 #
coedge $-1 $93 $146 $232 $239 reversed $155 $-1 #
loop $-1 $-1 $153 $217 #
vertex $-1 $94 $240 #
vertex $-1 $94 $241 #
straight-curve $-1 48.374279000213633 0 7.0953131699653218 0 1 0 I I #
face $-1 $242 $243 $22 $-1 $244 reversed single #
loop $-1 $-1 $171 $95 #
plane-surface $-1 0 -25.672066185846681 -3.4706771901060276 0 0 1 1 0 0 forward_v I I I I #
coedge $-1 $245 $246 $99 $167 forward $96 $-1 #
coedge $-1 $247 $98 $246 $248 forward $61 $-1 #
coedge $-1 $98 $247 $249 $250 forward $61 $-1 #
coedge $-1 $100 $99 $98 $166 reversed $39 $-1 #
edge $-1 $251 -48.374279000213633 $252 48.374279000213633 $98 $253 forward 7 unknown #
edge $-1 $252 -7.0953131699653218 $173 -3.4706771901060276 $162 $254 forward 7 unknown #
coedge $-1 $249 $255 $100 $169 forward $256 $-1 #
edge $-1 $172 3.4706771901060276 $251 7.0953131699653218 $168 $257 forward 7 unknown #
coedge $-1 $258 $101 $255 $259 forward $160 $-1 #
coedge $-1 $101 $258 $245 $260 forward $160 $-1 #
vertex $-1 $169 $261 #
vertex $-1 $260 $262 #
straight-curve $-1 0 -21.340516838031807 -3.4706771901060276 1 0 0 I I #
face $-1 $263 $264 $23 $-1 $265 reversed single #
loop $-1 $-1 $186 $103 #
plane-surface $-1 0 25.931886259896121 4.0953131699653218 0 0 1 1 0 0 forward_v I I I I #
coedge $-1 $266 $267 $182 $268 forward $104 $-1 #
coedge $-1 $269 $106 $267 $270 reversed $65 $-1 #
coedge $-1 $106 $269 $185 $271 reversed $65 $-1 #
edge $-1 $187 4.0953131699653218 $272 7.0953131699653218 $106 $273 forward 7 unknown #
coedge $-1 $108 $107 $178 $268 reversed $42 $-1 #
coedge $-1 $274 $275 $107 $184 forward $276 $-1 #
edge $-1 $277 -7.0953131699653218 $188 -4.0953131699653218 $183 $278 forward 7 unknown #
coedge $-1 $279 $109 $180 $271 forward $176 $-1 #
coedge $-1 $109 $279 $274 $280 forward $176 $-1 #
vertex $-1 $181 $281 #
vertex $-1 $184 $282 #
straight-curve $-1 0 21.340516838031807 4.0953131699653218 1 0 0 I I #
face $-1 $-1 $283 $24 $-1 $284 reversed single #
loop $-1 $-1 $117 $111 #
plane-surface $-1 0 0 7.0953131699653218 0 0 1 1 0 0 forward_v I I I I #
coedge $-1 $285 $286 $287 $288 reversed $112 $-1 #
coedge $-1 $289 $114 $116 $200 forward $69 $-1 #
coedge $-1 $114 $289 $285 $290 forward $69 $-1 #
coedge $-1 $287 $117 $114 $197 forward $191 $-1 #
edge $-1 $203 -4.4974768008640815 $291 1.6702137686037304 $196 $292 forward 7 unknown #
coedge $-1 $293 $294 $115 $199 forward $283 $-1 #
edge $-1 $295 -65.683372915565542 $202 -62.359917289970596 $198 $296 forward 7 unknown #
edge $-1 $203 91.094357643794268 $295 96.748558000427252 $116 $297 forward 7 unknown #
coedge $-1 $117 $287 $293 $298 forward $191 $-1 #
vertex $-1 $199 $299 #
vertex $-1 $118 $300 #
straight-curve $-1 13.485214112086958 5.9111083169942571 7.0953131699653227 -1 0 0 I I #
coedge $-1 $205 $205 $-1 $301 reversed $121 $-1 #
edge $-1 $302 0 $302 6.2831853071796004 $122 $303 forward 7 unknown #
vertex $-1 $125 $304 #
ellipse-curve $-1 46.087106926579374 0.97695586142000934 5.4335853571678516 0.5877852598018023 0 0.80901698891910034 0.40450849445955017 0 -0.29389262990090115 1 I I #
coedge $-1 $209 $209 $-1 $305 reversed $128 $-1 #
edge $-1 $306 0 $306 6.2831853071796004 $129 $307 forward 7 unknown #
vertex $-1 $132 $308 #
ellipse-curve $-1 46.087106926579374 2.8272630322603547 5.4335853571678516 0.5877852598018023 0 0.80901698891910034 0.40450849445955017 0 -0.29389262990090115 1 I I #
coedge $-1 $213 $213 $-1 $309 reversed $135 $-1 #
edge $-1 $310 0 $310 6.2831853071796004 $136 $311 forward 7 unknown #
vertex $-1 $139 $312 #
ellipse-curve $-1 46.087106926579374 4.6775702031007 5.4335853571678516 0.5877852598018023 0 0.80901698891910034 0.40450849445955017 0 -0.29389262990090115 1 I I #
face $-1 $-1 $155 $21 $-1 $313 reversed single #
loop $-1 $-1 $232 $140 #
plane-surface $-1 0 21.340516838031807 0 0 -1 0 0 0 -1 forward_v I I I I #
coedge $-1 $314 $230 $233 $315 forward $141 $-1 #
coedge $-1 $143 $236 $144 $224 reversed $88 $-1 #
edge $-1 $156 -7.0953131699653218 $228 7.0953131699653218 $153 $316 forward 7 unknown #
coedge $-1 $145 $144 $314 $317 forward $57 $-1 #
edge $-1 $228 -48.374279000213633 $318 48.374279000213633 $221 $319 forward 7 unknown #
coedge $-1 $233 $232 $145 $226 reversed $218 $-1 #
edge $-1 $320 -48.374279000213633 $227 48.374279000213633 $225 $321 forward 7 unknown #
vertex $-1 $147 $322 #
vertex $-1 $222 $323 #
straight-curve $-1 48.374279000213633 0 -7.0953131699653218 0 -1 0 I I #
coedge $-1 $220 $324 $148 $231 reversed $141 $-1 #
edge $-1 $234 -21.340516838031807 $237 21.340516838031807 $230 $325 forward 7 unknown #
coedge $-1 $225 $149 $154 $239 forward $218 $-1 #
coedge $-1 $149 $225 $220 $315 reversed $218 $-1 #
vertex $-1 $150 $326 #
straight-curve $-1 0 21.340516838031807 7.0953131699653218 -1 0 0 I I #
coedge $-1 $221 $151 $324 $327 forward $88 $-1 #
vertex $-1 $231 $328 #
straight-curve $-1 0 -21.340516838031807 7.0953131699653218 1 0 0 I I #
edge $-1 $157 -7.0953131699653218 $227 7.0953131699653218 $154 $329 forward 7 unknown #
point $-1 48.374279000213633 -21.340516838031807 7.0953131699653218 #
point $-1 48.374279000213633 21.340516838031807 7.0953131699653218 #
face $-1 $-1 $256 $22 $-1 $330 reversed single #
loop $-1 $-1 $331 $159 #
plane-surface $-1 0 -30.003615533661556 -5.2829951800356749 0 1 0 0 0 1 forward_v I I I I #
coedge $-1 $332 $162 $171 $260 reversed $96 $-1 #
coedge $-1 $162 $332 $163 $248 reversed $96 $-1 #
coedge $-1 $164 $163 $333 $334 forward $61 $-1 #
edge $-1 $252 21.340516838031807 $335 30.003615533661556 $246 $336 forward 7 unknown #
coedge $-1 $337 $168 $164 $250 reversed $256 $-1 #
edge $-1 $338 -30.003615533661556 $251 -21.340516838031807 $249 $339 forward 7 unknown #
vertex $-1 $169 $340 #
vertex $-1 $248 $341 #
straight-curve $-1 0 -21.340516838031807 -7.0953131699653218 1 0 0 I I #
straight-curve $-1 48.374279000213633 -21.340516838031807 0 0 0 1 I I #
coedge $-1 $168 $337 $170 $259 reversed $256 $-1 #
loop $-1 $-1 $168 $242 #
straight-curve $-1 -48.374279000213633 -21.340516838031807 0 0 0 -1 I I #
coedge $-1 $171 $170 $342 $343 forward $160 $-1 #
edge $-1 $172 -4.3315493478148746 $344 4.3315493478148746 $255 $345 forward 7 unknown #
edge $-1 $346 -4.3315493478148746 $173 4.3315493478148746 $245 $347 forward 7 unknown #
point $-1 -48.374279000213633 -21.340516838031807 -3.4706771901060276 #
point $-1 48.374279000213633 -21.340516838031807 -3.4706771901060276 #
face $-1 $-1 $276 $23 $-1 $348 reversed single #
loop $-1 $-1 $349 $175 #
plane-surface $-1 0 30.523255681760435 5.5953131699653218 0 -1 0 0 0 -1 forward_v I I I I #
coedge $-1 $350 $178 $275 $351 forward $104 $-1 #
coedge $-1 $178 $350 $179 $270 forward $104 $-1 #
edge $-1 $272 -48.374279000213633 $277 48.374279000213633 $178 $352 forward 7 unknown #
coedge $-1 $180 $179 $353 $354 forward $65 $-1 #
edge $-1 $355 -30.523255681760435 $272 -21.340516838031807 $179 $356 forward 7 unknown #
edge $-1 $187 -4.5913694218643144 $357 4.5913694218643144 $180 $358 forward 7 unknown #
vertex $-1 $268 $359 #
straight-curve $-1 -48.374279000213633 21.340516838031807 0 0 0 1 I I #
coedge $-1 $360 $183 $186 $280 reversed $276 $-1 #
coedge $-1 $183 $360 $266 $351 reversed $276 $-1 #
loop $-1 $-1 $183 $263 #
vertex $-1 $351 $361 #
straight-curve $-1 48.374279000213633 21.340516838031807 0 0 0 -1 I I #
coedge $-1 $186 $185 $362 $363 forward $176 $-1 #
edge $-1 $364 -4.5913694218643144 $188 4.5913694218643144 $274 $365 forward 7 unknown #
point $-1 -48.374279000213633 21.340516838031807 4.0953131699653218 #
point $-1 48.374279000213633 21.340516838031807 4.0953131699653218 #
loop $-1 $-1 $198 $190 #
plane-surface $-1 48.374279000213633 0 0 -1 0 0 0 0 1 forward_v I I I I #
coedge $-1 $286 $193 $195 $290 reversed $112 $-1 #
coedge $-1 $193 $285 $366 $367 reversed $112 $-1 #
coedge $-1 $201 $196 $193 $288 forward $191 $-1 #
edge $-1 $291 30.314720740858156 $368 34.889064888126676 $287 $369 forward 7 unknown #
coedge $-1 $195 $194 $294 $370 reversed $69 $-1 #
edge $-1 $371 -96.748558000427252 $291 -91.094357643794268 $285 $372 forward 7 unknown #
vertex $-1 $197 $373 #
straight-curve $-1 43.799934852945114 1.4136315161301756 7.0953131699653227 0 -1 0 I I #
coedge $-1 $366 $198 $201 $298 reversed $283 $-1 #
coedge $-1 $198 $366 $289 $370 forward $283 $-1 #
vertex $-1 $199 $374 #
straight-curve $-1 48.374279000213633 5.9111083169942571 69.455230459935919 0 0 1 I I #
straight-curve $-1 -29.896948075556963 5.9111083169942571 60.639233844101241 0.80901698891910034 0 -0.5877852598018023 I I #
edge $-1 $368 -0.25658225247355482 $202 5.9111083169942571 $293 $375 forward 7 unknown #
point $-1 48.374279000213633 5.9111083169942571 7.0953131699653218 #
point $-1 43.799934852945114 5.9111083169942571 7.0953131699653227 #
edge $-1 $376 1 $376 0 $205 $-1 forward 7 unknown #
vertex $-1 $206 $377 #
ellipse-curve $-1 45.330001769708282 0.97695586142000934 4.3915195276955235 0.5877852598018023 0 0.80901698891910034 0.40450849445955017 0 -0.29389262990090115 1 I I #
point $-1 46.491615421038922 0.97695586142000934 5.1396927272669428 #
edge $-1 $378 1 $378 0 $209 $-1 forward 7 unknown #
vertex $-1 $210 $379 #
ellipse-curve $-1 45.330001769708282 2.8272630322603547 4.3915195276955235 0.5877852598018023 0 0.80901698891910034 0.40450849445955017 0 -0.29389262990090115 1 I I #
point $-1 46.491615421038922 2.8272630322603547 5.1396927272669428 #
edge $-1 $380 1 $380 0 $213 $-1 forward 7 unknown #
vertex $-1 $214 $381 #
ellipse-curve $-1 45.330001769708282 4.6775702031007 4.3915195276955235 0.5877852598018023 0 0.80901698891910034 0.40450849445955017 0 -0.29389262990090115 1 I I #
point $-1 46.491615421038922 4.6775702031007 5.1396927272669428 #
plane-surface $-1 48.374279000213633 0 0 -1 0 0 0 0 1 forward_v I I I I #
coedge $-1 $324 $220 $223 $317 reversed $141 $-1 #
edge $-1 $234 -7.0953131699653218 $320 7.0953131699653218 $233 $382 forward 7 unknown #
straight-curve $-1 48.374279000213633 -21.340516838031807 0 0 0 -1 I I #
edge $-1 $318 -21.340516838031807 $320 21.340516838031807 $314 $383 forward 7 unknown #
vertex $-1 $317 $384 #
straight-curve $-1 0 -21.340516838031807 -7.0953131699653218 -1 0 0 I I #
vertex $-1 $226 $385 #
straight-curve $-1 0 21.340516838031807 -7.0953131699653218 1 0 0 I I #
point $-1 48.374279000213633 21.340516838031807 -7.0953131699653218 #
point $-1 48.374279000213633 -21.340516838031807 -7.0953131699653218 #
coedge $-1 $230 $314 $236 $327 reversed $141 $-1 #
straight-curve $-1 -48.374279000213633 0 7.0953131699653218 0 -1 0 I I #
point $-1 -48.374279000213633 21.340516838031807 7.0953131699653218 #
edge $-1 $237 -7.0953131699653218 $318 7.0953131699653218 $324 $386 forward 7 unknown #
point $-1 -48.374279000213633 -21.340516838031807 7.0953131699653218 #
straight-curve $-1 48.374279000213633 21.340516838031807 0 0 0 -1 I I #
plane-surface $-1 -48.374279000213633 0 0 1 0 0 0 0 -1 forward_v I I I I #
coedge $-1 $333 $342 $337 $387 forward $243 $-1 #
coedge $-1 $246 $245 $388 $389 forward $96 $-1 #
coedge $-1 $388 $331 $247 $334 reversed $243 $-1 #
edge $-1 $335 -48.374279000213633 $338 48.374279000213633 $333 $390 forward 7 unknown #
vertex $-1 $389 $391 #
straight-curve $-1 48.374279000213633 0 -7.0953131699653218 0 -1 0 I I #
coedge $-1 $255 $249 $331 $387 reversed $256 $-1 #
vertex $-1 $250 $392 #
straight-curve $-1 -48.374279000213633 0 -7.0953131699653218 0 1 0 I I #
point $-1 -48.374279000213633 -21.340516838031807 -7.0953131699653218 #
point $-1 48.374279000213633 -21.340516838031807 -7.0953131699653218 #
coedge $-1 $331 $388 $258 $343 reversed $243 $-1 #
edge $-1 $344 -48.374279000213633 $346 48.374279000213633 $342 $393 forward 7 unknown #
vertex $-1 $259 $394 #
straight-curve $-1 -48.374279000213633 -25.672066185846681 -3.4706771901060276 0 -1 0 I I #
vertex $-1 $260 $395 #
straight-curve $-1 48.374279000213633 -25.672066185846681 -3.4706771901060276 0 1 0 I I #
plane-surface $-1 48.374279000213633 0 0 -1 0 0 0 0 1 forward_v I I I I #
coedge $-1 $362 $396 $360 $397 forward $264 $-1 #
coedge $-1 $267 $266 $396 $398 forward $104 $-1 #
edge $-1 $277 21.340516838031807 $399 30.523255681760435 $275 $400 forward 7 unknown #
straight-curve $-1 0 21.340516838031807 7.0953131699653218 1 0 0 I I #
coedge $-1 $396 $362 $269 $354 reversed $264 $-1 #
edge $-1 $355 -1.5 $357 1.5 $353 $401 forward 7 unknown #
vertex $-1 $398 $402 #
straight-curve $-1 -48.374279000213633 0 7.0953131699653218 0 -1 0 I I #
vertex $-1 $363 $403 #
straight-curve $-1 -48.374279000213633 25.931886259896121 4.0953131699653218 0 1 0 I I #
point $-1 -48.374279000213633 21.340516838031807 7.0953131699653218 #
coedge $-1 $275 $274 $349 $397 reversed $276 $-1 #
point $-1 48.374279000213633 21.340516838031807 7.0953131699653218 #
coedge $-1 $353 $349 $279 $363 reversed $264 $-1 #
edge $-1 $357 -48.374279000213633 $364 48.374279000213633 $362 $404 forward 7 unknown #
vertex $-1 $280 $405 #
straight-curve $-1 48.374279000213633 25.931886259896121 4.0953131699653218 0 -1 0 I I #
coedge $-1 $294 $293 $286 $367 forward $283 $-1 #
edge $-1 $368 62.359917289970596 $371 65.683372915565542 $366 $406 forward 7 unknown #
vertex $-1 $298 $407 #
straight-curve $-1 13.485214112086958 -0.25658225247355482 7.0953131699653227 1 0 0 I I #
edge $-1 $371 -1.6702137686037304 $295 4.4974768008640815 $294 $408 forward 7 unknown #
vertex $-1 $370 $409 #
straight-curve $-1 -29.896948075556963 -0.25658225247355482 60.639233844101241 -0.80901698891910034 0 0.5877852598018023 I I #
point $-1 43.799934852945114 -0.25658225247355482 7.0953131699653227 #
point $-1 48.374279000213633 5.9111083169942571 3.7718575443703699 #
straight-curve $-1 48.374279000213633 0 7.0953131699653218 0 1 0 I I #
vertex $-1 $301 $410 #
point $-1 45.734510264167838 0.97695586142000934 4.0976268977946217 #
vertex $-1 $305 $411 #
point $-1 45.734510264167838 2.8272630322603547 4.0976268977946217 #
vertex $-1 $309 $412 #
point $-1 45.734510264167838 4.6775702031007 4.0976268977946217 #
straight-curve $-1 -48.374279000213633 21.340516838031807 0 0 0 -1 I I #
straight-curve $-1 -48.374279000213633 0 -7.0953131699653218 0 1 0 I I #
point $-1 -48.374279000213633 -21.340516838031807 -7.0953131699653218 #
point $-1 -48.374279000213633 21.340516838031807 -7.0953131699653218 #
straight-curve $-1 -48.374279000213633 -21.340516838031807 0 0 0 -1 I I #
edge $-1 $344 -1.8123179899296473 $338 1.8123179899296478 $337 $413 forward 7 unknown #
coedge $-1 $342 $333 $332 $389 reversed $243 $-1 #
edge $-1 $346 -1.8123179899296473 $335 1.8123179899296478 $332 $414 forward 7 unknown #
straight-curve $-1 0 -30.003615533661556 -7.0953131699653227 -1 0 0 I I #
point $-1 48.374279000213633 -30.003615533661556 -7.0953131699653227 #
point $-1 -48.374279000213633 -30.003615533661556 -7.0953131699653227 #
straight-curve $-1 0 -30.003615533661556 -3.4706771901060276 1 0 0 I I #
point $-1 -48.374279000213633 -30.003615533661556 -3.4706771901060276 #
point $-1 48.374279000213633 -30.003615533661556 -3.4706771901060276 #
coedge $-1 $349 $353 $350 $398 reversed $264 $-1 #
edge $-1 $399 -1.5 $364 1.5 $360 $415 forward 7 unknown #
edge $-1 $399 -48.374279000213633 $355 48.374279000213633 $396 $416 forward 7 unknown #
vertex $-1 $351 $417 #
straight-curve $-1 48.374279000213633 0 7.0953131699653218 0 1 0 I I #
straight-curve $-1 -48.374279000213633 30.523255681760435 5.5953131699653218 0 0 -1 I I #
point $-1 -48.374279000213633 30.523255681760435 7.0953131699653218 #
point $-1 -48.374279000213633 30.523255681760435 4.0953131699653218 #
straight-curve $-1 0 30.523255681760435 4.0953131699653218 1 0 0 I I #
point $-1 48.374279000213633 30.523255681760435 4.0953131699653218 #
straight-curve $-1 48.374279000213633 -0.25658225247355482 69.455230459935919 0 0 -1 I I #
point $-1 48.374279000213633 -0.25658225247355482 7.0953131699653218 #
straight-curve $-1 48.374279000213633 1.4136315161301756 3.7718575443703664 0 1 0 I I #
point $-1 48.374279000213633 -0.25658225247355482 3.7718575443703699 #
point $-1 45.036109139807387 0.97695586142000934 3.9870110332359729 #
point $-1 45.036109139807387 2.8272630322603547 3.9870110332359729 #
point $-1 45.036109139807387 4.6775702031007 3.9870110332359729 #
straight-curve $-1 -48.374279000213633 -30.003615533661556 -5.2829951800356749 0 0 -1 I I #
straight-curve $-1 48.374279000213633 -30.003615533661556 -5.2829951800356749 0 0 -1 I I #
straight-curve $-1 48.374279000213633 30.523255681760435 5.5953131699653218 0 0 -1 I I #
straight-curve $-1 0 30.523255681760435 7.0953131699653218 -1 0 0 I I #
point $-1 48.374279000213633 30.523255681760435 7.0953131699653218 #
End-of-ACIS-data 