500 0 5 0           
7 Unknown 11 ACIS 5.0 NT 24 Thu Mar 25 22:35:54 1999 
-1 9.9999999999999995e-007 1e-010 
body $-1 $5 $-1 $6 #
body $-1 $7 $-1 $8 #
body $-1 $9 $-1 $10 #
body $-1 $11 $-1 $12 #
body $-1 $13 $-1 $14 #
lump $-1 $-1 $15 $0 #
transform $-1 1 0 0 0 1 0 0 0 1 74.346751304666284 46.474036935726723 14.852204125487519 1 rotate no_reflect no_shear #
lump $-1 $-1 $16 $1 #
transform $-1 1 0 0 0 1 0 0 0 1 74.346751304666284 46.474036935726723 14.852204125487519 1 rotate no_reflect no_shear #
lump $-1 $-1 $17 $2 #
transform $-1 1 0 0 0 1 0 0 0 1 74.346751304666284 46.474036935726723 14.852204125487519 1 rotate no_reflect no_shear #
lump $-1 $-1 $18 $3 #
transform $-1 1 0 0 0 1 0 0 0 1 74.346751304666284 46.474036935726723 14.852204125487519 1 rotate no_reflect no_shear #
lump $-1 $-1 $19 $4 #
transform $-1 1 0 0 0 1 0 0 0 1 74.346751304666284 46.474036935726723 14.852204125487519 1 rotate no_reflect no_shear #
shell $-1 $-1 $-1 $20 $-1 $5 #
shell $-1 $-1 $-1 $21 $-1 $7 #
shell $-1 $-1 $-1 $22 $-1 $9 #
shell $-1 $-1 $-1 $23 $-1 $11 #
shell $-1 $-1 $-1 $24 $-1 $13 #
face $-1 $25 $26 $15 $-1 $27 forward single #
face $-1 $28 $29 $16 $-1 $30 forward single #
face $-1 $31 $32 $17 $-1 $33 reversed single #
face $-1 $34 $35 $18 $-1 $36 forward single #
face $-1 $37 $38 $19 $-1 $39 forward single #
face $-1 $40 $41 $15 $-1 $42 reversed single #
loop $-1 $-1 $43 $20 #
plane-surface $-1 0 0 14.852204125487519 0 0 1 1 0 0 forward_v I I I I #
face $-1 $44 $45 $16 $-1 $46 reversed single #
loop $-1 $-1 $47 $21 #
plane-surface $-1 0 -46.474036935726723 0 0 1 0 0 0 1 forward_v I I I I #
face $-1 $48 $49 $17 $-1 $50 reversed single #
loop $-1 $-1 $51 $22 #
plane-surface $-1 33.762006268911833 97.71502689993585 176.59247246478898 1 0 0 0 -0.75470958851134928 -0.65605901945558964 forward_v I I I I #
face $-1 $52 $53 $18 $-1 $54 forward single #
loop $-1 $55 $56 $23 #
cone-surface $-1 45.357647707698817 43.050365266871246 11.147886549413915 0 -0.75470958851134928 -0.65605901945558964 1 0 0 1 I I 0 1 1 forward I I I I #
face $-1 $57 $58 $19 $-1 $59 forward single #
loop $-1 $60 $61 $24 #
cone-surface $-1 62.751109865879286 43.050365266871246 11.147886549413915 0 -0.75470958851134928 -0.65605901945558964 1 0 0 1 I I 0 1 1 forward I I I I #
face $-1 $62 $63 $15 $-1 $64 reversed single #
loop $-1 $-1 $65 $25 #
plane-surface $-1 0 0 -14.852204125487519 0 0 1 1 0 0 forward_v I I I I #
coedge $-1 $66 $67 $68 $69 forward $26 $-1 #
face $-1 $70 $71 $16 $-1 $72 reversed single #
loop $-1 $-1 $73 $28 #
plane-surface $-1 0 0 -14.852204125487519 0 0 1 1 0 0 forward_v I I I I #
coedge $-1 $74 $75 $76 $77 forward $29 $-1 #
face $-1 $78 $79 $17 $-1 $80 forward single #
loop $-1 $-1 $81 $31 #
plane-surface $-1 54.054378786789059 -14.505385268664767 79.040758943493103 0 0.75470958851134928 0.65605901945558964 1 0 0 forward_v I I I I #
coedge $-1 $82 $83 $84 $85 reversed $32 $-1 #
face $-1 $-1 $86 $18 $-1 $87 forward single #
loop $-1 $88 $89 $34 #
cone-surface $-1 45.357647707698817 41.839920906391761 10.095663346833289 0 -0.75470958851134928 -0.65605901945558964 0.5 0 0 1 I I -0.70710678118654746 0.70710678118654746 0.5 forward I I I I #
loop $-1 $-1 $90 $23 #
coedge $-1 $56 $56 $91 $92 reversed $35 $-1 #
face $-1 $-1 $93 $19 $-1 $94 forward single #
loop $-1 $95 $96 $37 #
cone-surface $-1 62.751109865879286 41.839920906391761 10.095663346833289 0 -0.75470958851134928 -0.65605901945558964 0.5 0 0 1 I I -0.70710678118654746 0.70710678118654746 0.5 forward I I I I #
loop $-1 $-1 $97 $24 #
coedge $-1 $61 $61 $98 $99 reversed $38 $-1 #
face $-1 $100 $101 $15 $-1 $102 reversed single #
loop $-1 $-1 $103 $40 #
plane-surface $-1 0 -46.474036935726723 0 0 1 0 0 0 1 forward_v I I I I #
coedge $-1 $104 $105 $106 $107 forward $41 $-1 #
coedge $-1 $108 $43 $109 $110 forward $26 $-1 #
coedge $-1 $43 $108 $111 $112 forward $26 $-1 #
coedge $-1 $113 $114 $43 $69 reversed $115 $-1 #
edge $-1 $116 -46.474036935726723 $117 46.474036935726723 $68 $118 forward 7 unknown #
face $-1 $119 $120 $16 $-1 $121 reversed single #
loop $-1 $-1 $122 $44 #
plane-surface $-1 -54.428851808641156 -65.300242513347385 0 0 1 0 0 0 1 forward_v I I I I #
coedge $-1 $123 $124 $75 $125 forward $45 $-1 #
coedge $-1 $126 $47 $127 $128 reversed $29 $-1 #
coedge $-1 $47 $126 $73 $125 reversed $29 $-1 #
coedge $-1 $129 $130 $47 $77 reversed $120 $-1 #
edge $-1 $131 -14.852204125487519 $132 14.852204125487519 $76 $133 forward 7 unknown #
face $-1 $134 $135 $17 $-1 $136 reversed single #
loop $-1 $-1 $84 $48 #
plane-surface $-1 0 0 14.852204125487519 0 0 1 1 0 0 forward_v I I I I #
coedge $-1 $137 $138 $139 $140 reversed $49 $-1 #
coedge $-1 $83 $51 $141 $142 reversed $32 $-1 #
coedge $-1 $51 $82 $137 $143 reversed $32 $-1 #
coedge $-1 $139 $144 $51 $85 forward $79 $-1 #
edge $-1 $145 2.3834765142412024 $146 7.5646407195045384 $84 $147 forward 7 unknown #
loop $-1 $-1 $91 $52 #
plane-surface $-1 54.054378786789059 -14.505385268664767 79.040758943493103 0 0.75470958851134928 0.65605901945558964 1 0 0 forward_v I I I I #
loop $-1 $-1 $148 $34 #
coedge $-1 $89 $89 $90 $149 reversed $53 $-1 #
coedge $-1 $90 $90 $89 $149 forward $55 $-1 #
coedge $-1 $91 $91 $56 $92 forward $86 $-1 #
edge $-1 $150 6.39679087101383e-016 $150 6.2831853071796013 $91 $151 forward 7 unknown #
loop $-1 $-1 $98 $57 #
plane-surface $-1 54.054378786789059 -14.505385268664767 79.040758943493103 0 0.75470958851134928 0.65605901945558964 1 0 0 forward_v I I I I #
loop $-1 $-1 $152 $37 #
coedge $-1 $96 $96 $97 $153 reversed $58 $-1 #
coedge $-1 $97 $97 $96 $153 forward $60 $-1 #
coedge $-1 $98 $98 $61 $99 forward $93 $-1 #
edge $-1 $154 6.39679087101383e-016 $154 6.2831853071796013 $98 $155 forward 7 unknown #
face $-1 $156 $157 $15 $-1 $158 reversed single #
loop $-1 $-1 $159 $62 #
plane-surface $-1 -74.346751304666284 0 0 1 0 0 0 0 -1 forward_v I I I I #
coedge $-1 $160 $111 $161 $162 forward $63 $-1 #
coedge $-1 $163 $65 $160 $164 forward $41 $-1 #
coedge $-1 $65 $163 $165 $166 forward $41 $-1 #
coedge $-1 $114 $113 $65 $107 reversed $115 $-1 #
edge $-1 $167 -46.474036935726723 $168 46.474036935726723 $106 $169 forward 7 unknown #
coedge $-1 $67 $66 $170 $171 forward $26 $-1 #
coedge $-1 $172 $173 $66 $110 reversed $157 $-1 #
edge $-1 $117 -74.346751304666284 $174 74.346751304666284 $109 $175 forward 7 unknown #
coedge $-1 $103 $176 $67 $112 reversed $63 $-1 #
edge $-1 $177 -74.346751304666284 $116 74.346751304666284 $111 $178 forward 7 unknown #
coedge $-1 $106 $68 $176 $179 forward $115 $-1 #
coedge $-1 $68 $106 $172 $180 reversed $115 $-1 #
loop $-1 $-1 $113 $156 #
vertex $-1 $69 $181 #
vertex $-1 $69 $182 #
straight-curve $-1 74.346751304666284 0 14.852204125487519 0 1 0 I I #
face $-1 $183 $184 $16 $-1 $185 reversed single #
loop $-1 $-1 $76 $70 #
plane-surface $-1 -57.222382471985135 -55.887139724537057 0 1 0 0 0 0 -1 forward_v I I I I #
coedge $-1 $186 $187 $188 $189 forward $71 $-1 #
coedge $-1 $190 $73 $191 $192 forward $45 $-1 #
coedge $-1 $73 $190 $129 $193 forward $45 $-1 #
edge $-1 $131 -57.222382471985135 $194 -51.635321145297176 $73 $195 forward 7 unknown #
coedge $-1 $75 $74 $196 $197 forward $29 $-1 #
coedge $-1 $198 $199 $74 $128 forward $200 $-1 #
edge $-1 $201 51.635321145297176 $132 57.222382471985135 $127 $202 forward 7 unknown #
coedge $-1 $188 $76 $124 $193 reversed $120 $-1 #
coedge $-1 $76 $188 $198 $203 reversed $120 $-1 #
vertex $-1 $125 $204 #
vertex $-1 $203 $205 #
straight-curve $-1 -57.222382471985135 -46.474036935726723 0 0 0 1 I I #
face $-1 $-1 $206 $17 $-1 $207 reversed single #
loop $-1 $-1 $208 $78 #
plane-surface $-1 74.346751304666284 0 0 -1 0 0 0 0 1 forward_v I I I I #
coedge $-1 $209 $81 $83 $143 forward $49 $-1 #
coedge $-1 $81 $209 $208 $210 reversed $49 $-1 #
coedge $-1 $211 $84 $81 $140 forward $79 $-1 #
edge $-1 $146 6.7348168755173035 $212 47.319561911271755 $139 $213 forward 7 unknown #
coedge $-1 $214 $215 $82 $142 forward $206 $-1 #
edge $-1 $216 -79.404279873348543 $145 -73.444032106906974 $141 $217 forward 7 unknown #
edge $-1 $146 85.050668224073249 $216 92.948073871453502 $83 $218 forward 7 unknown #
coedge $-1 $84 $211 $214 $219 forward $79 $-1 #
vertex $-1 $142 $220 #
vertex $-1 $85 $221 #
straight-curve $-1 33.762006268911833 48.857513449967925 14.852204125487518 0 -1 0 I I #
coedge $-1 $148 $148 $-1 $222 reversed $88 $-1 #
edge $-1 $223 0 $223 6.2831853071796004 $89 $224 forward 7 unknown #
vertex $-1 $92 $225 #
ellipse-curve $-1 45.357647707698817 43.883454833095044 11.872080242266739 0 0.75470958851134928 0.65605901945558964 1 0 0 1 I I #
coedge $-1 $152 $152 $-1 $226 reversed $95 $-1 #
edge $-1 $227 0 $227 6.2831853071796004 $96 $228 forward 7 unknown #
vertex $-1 $99 $229 #
ellipse-curve $-1 62.751109865879286 43.883454833095044 11.872080242266739 0 0.75470958851134928 0.65605901945558964 1 0 0 1 I I #
face $-1 $-1 $115 $15 $-1 $230 reversed single #
loop $-1 $-1 $172 $100 #
plane-surface $-1 0 46.474036935726723 0 0 -1 0 0 0 -1 forward_v I I I I #
coedge $-1 $231 $170 $173 $232 forward $101 $-1 #
coedge $-1 $176 $103 $104 $164 reversed $63 $-1 #
coedge $-1 $170 $231 $103 $162 reversed $101 $-1 #
edge $-1 $177 -14.852204125487519 $233 14.852204125487519 $161 $234 forward 7 unknown #
coedge $-1 $105 $104 $231 $235 forward $41 $-1 #
edge $-1 $168 -74.346751304666284 $233 74.346751304666284 $160 $236 forward 7 unknown #
coedge $-1 $173 $172 $105 $166 reversed $157 $-1 #
edge $-1 $237 -74.346751304666284 $167 74.346751304666284 $165 $238 forward 7 unknown #
vertex $-1 $107 $239 #
vertex $-1 $179 $240 #
straight-curve $-1 74.346751304666284 0 -14.852204125487519 0 -1 0 I I #
coedge $-1 $159 $161 $108 $171 reversed $101 $-1 #
edge $-1 $174 -46.474036935726723 $177 46.474036935726723 $170 $241 forward 7 unknown #
coedge $-1 $165 $109 $114 $180 forward $157 $-1 #
coedge $-1 $109 $165 $159 $232 reversed $157 $-1 #
vertex $-1 $110 $242 #
straight-curve $-1 0 46.474036935726723 14.852204125487519 -1 0 0 I I #
coedge $-1 $111 $160 $113 $179 reversed $63 $-1 #
vertex $-1 $171 $243 #
straight-curve $-1 0 -46.474036935726723 14.852204125487519 1 0 0 I I #
edge $-1 $116 -14.852204125487519 $168 14.852204125487519 $113 $244 forward 7 unknown #
edge $-1 $117 -14.852204125487519 $167 14.852204125487519 $114 $245 forward 7 unknown #
point $-1 74.346751304666284 -46.474036935726723 14.852204125487519 #
point $-1 74.346751304666284 46.474036935726723 14.852204125487519 #
face $-1 $-1 $200 $16 $-1 $246 forward single #
loop $-1 $-1 $247 $119 #
plane-surface $-1 -51.635321145297176 -55.887139724537057 0 -1 0 0 0 0 1 forward_v I I I I #
coedge $-1 $248 $122 $190 $249 reversed $71 $-1 #
coedge $-1 $122 $248 $250 $251 reversed $71 $-1 #
coedge $-1 $130 $129 $122 $189 reversed $120 $-1 #
edge $-1 $252 -14.852204125487519 $253 14.852204125487519 $188 $254 forward 7 unknown #
coedge $-1 $124 $123 $186 $249 forward $45 $-1 #
coedge $-1 $196 $247 $123 $192 reversed $184 $-1 #
edge $-1 $194 -9.4131027888103347 $255 9.4131027888103276 $191 $256 forward 7 unknown #
edge $-1 $253 -9.4131027888103276 $131 9.4131027888103347 $129 $257 forward 7 unknown #
vertex $-1 $192 $258 #
straight-curve $-1 0 -46.474036935726723 -14.852204125487519 1 0 0 I I #
coedge $-1 $259 $191 $126 $197 reversed $184 $-1 #
edge $-1 $201 -14.852204125487519 $194 14.852204125487519 $196 $260 forward 7 unknown #
coedge $-1 $250 $127 $130 $203 forward $200 $-1 #
coedge $-1 $127 $250 $259 $261 forward $200 $-1 #
loop $-1 $-1 $127 $183 #
vertex $-1 $128 $262 #
straight-curve $-1 0 -46.474036935726723 14.852204125487519 -1 0 0 I I #
edge $-1 $132 -9.4131027888103347 $252 9.4131027888103276 $130 $263 forward 7 unknown #
point $-1 -57.222382471985135 -46.474036935726723 -14.852204125487519 #
point $-1 -57.222382471985135 -46.474036935726723 14.852204125487519 #
loop $-1 $-1 $141 $134 #
plane-surface $-1 0 46.474036935726723 0 0 -1 0 0 0 -1 forward_v I I I I #
coedge $-1 $264 $265 $138 $210 forward $135 $-1 #
coedge $-1 $138 $137 $215 $266 reversed $49 $-1 #
edge $-1 $212 50.466064477046125 $267 58.363470124426392 $208 $268 forward 7 unknown #
coedge $-1 $144 $139 $265 $269 forward $79 $-1 #
vertex $-1 $269 $270 #
straight-curve $-1 27.027189393394529 41.29287273046338 14.852204125487511 1 0 0 I I #
coedge $-1 $271 $141 $144 $219 reversed $206 $-1 #
coedge $-1 $141 $271 $209 $266 forward $206 $-1 #
vertex $-1 $142 $272 #
straight-curve $-1 33.762006268911833 46.474036935726723 88.296236232394492 0 0 1 I I #
straight-curve $-1 33.762006268911833 -14.505385268664767 79.040758943493103 0 0.65605901945558964 -0.75470958851134928 I I #
edge $-1 $273 -74.346751304666284 $145 -33.762006268911833 $214 $274 forward 7 unknown #
point $-1 33.762006268911833 46.474036935726723 14.852204125487519 #
point $-1 33.762006268911833 41.292872730463387 14.852204125487518 #
edge $-1 $275 1 $275 0 $148 $-1 forward 7 unknown #
vertex $-1 $149 $276 #
ellipse-curve $-1 45.357647707698817 42.217275700647434 10.423692856561084 0 0.75470958851134928 0.65605901945558964 1 0 0 1 I I #
point $-1 46.357647707698817 43.883454833095051 11.872080242266744 #
edge $-1 $277 1 $277 0 $152 $-1 forward 7 unknown #
vertex $-1 $153 $278 #
ellipse-curve $-1 62.751109865879286 42.217275700647434 10.423692856561084 0 0.75470958851134928 0.65605901945558964 1 0 0 1 I I #
point $-1 63.751109865879286 43.883454833095051 11.872080242266744 #
plane-surface $-1 74.346751304666284 0 0 -1 0 0 0 0 1 forward_v I I I I #
coedge $-1 $161 $159 $163 $235 reversed $101 $-1 #
edge $-1 $174 -14.852204125487519 $237 14.852204125487519 $173 $279 forward 7 unknown #
vertex $-1 $235 $280 #
straight-curve $-1 -74.346751304666284 -46.474036935726723 0 0 0 -1 I I #
edge $-1 $233 -46.474036935726723 $237 46.474036935726723 $231 $281 forward 7 unknown #
straight-curve $-1 0 -46.474036935726723 -14.852204125487519 -1 0 0 I I #
vertex $-1 $166 $282 #
straight-curve $-1 0 46.474036935726723 -14.852204125487519 1 0 0 I I #
point $-1 74.346751304666284 46.474036935726723 -14.852204125487519 #
point $-1 74.346751304666284 -46.474036935726723 -14.852204125487519 #
straight-curve $-1 -74.346751304666284 0 14.852204125487519 0 -1 0 I I #
point $-1 -74.346751304666284 46.474036935726723 14.852204125487519 #
point $-1 -74.346751304666284 -46.474036935726723 14.852204125487519 #
straight-curve $-1 74.346751304666284 -46.474036935726723 0 0 0 -1 I I #
straight-curve $-1 74.346751304666284 46.474036935726723 0 0 0 -1 I I #
plane-surface $-1 0 0 14.852204125487519 0 0 1 1 0 0 forward_v I I I I #
coedge $-1 $191 $259 $248 $283 forward $184 $-1 #
coedge $-1 $187 $186 $247 $283 reversed $71 $-1 #
edge $-1 $255 -2.7935306633439794 $253 2.7935306633439794 $186 $284 forward 7 unknown #
coedge $-1 $199 $198 $187 $251 forward $200 $-1 #
edge $-1 $252 -2.7935306633439794 $285 2.7935306633439794 $187 $286 forward 7 unknown #
vertex $-1 $203 $287 #
vertex $-1 $193 $288 #
straight-curve $-1 -57.222382471985135 -65.300242513347385 0 0 0 -1 I I #
vertex $-1 $283 $289 #
straight-curve $-1 -51.635321145297176 -55.887139724537057 -14.852204125487519 0 -1 0 I I #
straight-curve $-1 -57.222382471985135 -55.887139724537057 -14.852204125487519 0 1 0 I I #
point $-1 -51.635321145297176 -46.474036935726723 -14.852204125487519 #
coedge $-1 $247 $196 $199 $261 reversed $184 $-1 #
straight-curve $-1 -51.635321145297176 -46.474036935726723 0 0 0 -1 I I #
edge $-1 $285 -9.4131027888103276 $201 9.4131027888103347 $259 $290 forward 7 unknown #
point $-1 -51.635321145297176 -46.474036935726723 14.852204125487519 #
straight-curve $-1 -57.222382471985135 -55.887139724537057 14.852204125487519 0 -1 0 I I #
coedge $-1 $265 $208 $271 $291 reversed $135 $-1 #
coedge $-1 $208 $264 $211 $269 reversed $135 $-1 #
edge $-1 $267 -47.319561911271755 $216 -6.7348168755173035 $215 $292 forward 7 unknown #
vertex $-1 $210 $293 #
straight-curve $-1 74.346751304666284 8.1841559538699418 52.939426880746211 0 0.65605901945558975 -0.75470958851134939 I I #
edge $-1 $212 41.292872730463387 $273 46.474036935726723 $265 $294 forward 7 unknown #
point $-1 74.346751304666284 41.292872730463387 14.852204125487518 #
coedge $-1 $215 $214 $264 $291 forward $206 $-1 #
point $-1 33.762006268911833 46.474036935726723 8.8919563590459489 #
vertex $-1 $269 $295 #
straight-curve $-1 0 46.474036935726723 14.852204125487519 -1 0 0 I I #
vertex $-1 $222 $296 #
point $-1 46.357647707698817 42.217275700647434 10.423692856561084 #
vertex $-1 $226 $297 #
point $-1 63.751109865879286 42.217275700647434 10.423692856561084 #
straight-curve $-1 -74.346751304666284 46.474036935726723 0 0 0 -1 I I #
point $-1 -74.346751304666284 -46.474036935726723 -14.852204125487519 #
straight-curve $-1 -74.346751304666284 0 -14.852204125487519 0 1 0 I I #
point $-1 -74.346751304666284 46.474036935726723 -14.852204125487519 #
edge $-1 $285 -14.852204125487519 $255 14.852204125487519 $247 $298 forward 7 unknown #
straight-curve $-1 -54.428851808641156 -65.300242513347385 -14.852204125487519 -1 0 0 I I #
vertex $-1 $261 $299 #
straight-curve $-1 -54.428851808641156 -65.300242513347385 14.852204125487519 1 0 0 I I #
point $-1 -57.222382471985135 -65.300242513347385 14.852204125487519 #
point $-1 -57.222382471985135 -65.300242513347385 -14.852204125487519 #
point $-1 -51.635321145297176 -65.300242513347385 -14.852204125487519 #
straight-curve $-1 -51.635321145297176 -55.887139724537057 14.852204125487519 0 1 0 I I #
edge $-1 $273 -14.852204125487519 $267 -8.8919563590459489 $264 $300 forward 7 unknown #
straight-curve $-1 27.027189393394529 46.47403693572673 8.8919563590459418 -1 0 0 I I #
point $-1 74.346751304666284 46.474036935726723 8.8919563590459489 #
straight-curve $-1 74.346751304666284 0 14.852204125487519 0 1 0 I I #
point $-1 74.346751304666284 46.474036935726723 14.852204125487519 #
point $-1 45.357647707698817 41.462566112136088 9.7676338371054943 #
point $-1 62.751109865879286 41.462566112136088 9.7676338371054943 #
straight-curve $-1 -51.635321145297176 -65.300242513347385 0 0 0 -1 I I #
point $-1 -51.635321145297176 -65.300242513347385 14.852204125487519 #
straight-curve $-1 74.346751304666284 46.474036935726723 0 0 0 -1 I I #
End-of-ACIS-data 