500 0 5 0           
7 Unknown 11 ACIS 5.0 NT 24 Thu Mar 25 18:35:00 1999 
-1 9.9999999999999995e-007 1e-010 
body $-1 $5 $-1 $6 #
body $-1 $7 $-1 $8 #
body $-1 $9 $-1 $10 #
body $-1 $11 $-1 $12 #
body $-1 $13 $-1 $14 #
lump $-1 $-1 $15 $0 #
transform $-1 1 0 0 0 1 0 0 0 1 67.443464461195717 27.378749216282639 11.219045555803918 1 rotate no_reflect no_shear #
lump $-1 $-1 $16 $1 #
transform $-1 1 0 0 0 0.82903756765294845 -0.55919291073839883 0 0.55919291073839883 0.82903756765294845 13.588930836489769 84.789289525946828 158.63011990955462 1 rotate no_reflect no_shear #
lump $-1 $-1 $17 $2 #
transform $-1 1 0 0 0 -0.82903756765294845 0.55919291073839883 0 -0.55919291073839883 -0.82903756765294845 5.4355723345959079 47.782524553439792 15.843556694697831 1 rotate no_reflect no_shear #
lump $-1 $-1 $18 $3 #
transform $-1 1 0 0 0 -0.82903756765294845 0.55919291073839883 0 -0.55919291073839883 -0.82903756765294845 13.588930836489769 47.782524553439792 15.843556694697831 1 rotate no_reflect no_shear #
lump $-1 $-1 $19 $4 #
transform $-1 1 0 0 0 -0.82903756765294845 0.55919291073839883 0 -0.55919291073839883 -0.82903756765294845 21.742289338383632 47.782524553439792 15.843556694697831 1 rotate no_reflect no_shear #
shell $-1 $-1 $-1 $20 $-1 $5 #
shell $-1 $-1 $-1 $21 $-1 $7 #
shell $-1 $-1 $-1 $22 $-1 $9 #
shell $-1 $-1 $-1 $23 $-1 $11 #
shell $-1 $-1 $-1 $24 $-1 $13 #
face $-1 $25 $26 $15 $-1 $27 forward single #
face $-1 $28 $29 $16 $-1 $30 forward single #
face $-1 $31 $32 $17 $-1 $33 forward single #
face $-1 $34 $35 $18 $-1 $36 forward single #
face $-1 $37 $38 $19 $-1 $39 forward single #
face $-1 $40 $41 $15 $-1 $42 reversed single #
loop $-1 $-1 $43 $20 #
plane-surface $-1 0 0 11.219045555803918 0 0 1 1 0 0 forward_v I I I I #
face $-1 $44 $45 $16 $-1 $46 reversed single #
loop $-1 $-1 $47 $21 #
plane-surface $-1 0 0 134.88692892239143 0 0 1 1 0 0 forward_v I I I I #
face $-1 $48 $49 $17 $-1 $50 forward single #
loop $-1 $51 $52 $22 #
cone-surface $-1 0 0 -2.4662083803827013 0 0 1 1.5 0 0 1 I I 0 1 1.5 forward I I I I #
face $-1 $53 $54 $18 $-1 $55 forward single #
loop $-1 $56 $57 $23 #
cone-surface $-1 0 0 -2.4662083803827013 0 0 1 1.5 0 0 1 I I 0 1 1.5 forward I I I I #
face $-1 $58 $59 $19 $-1 $60 forward single #
loop $-1 $61 $62 $24 #
cone-surface $-1 0 0 -2.4662083803827013 0 0 1 1.5 0 0 1 I I 0 1 1.5 forward I I I I #
face $-1 $63 $64 $15 $-1 $65 reversed single #
loop $-1 $-1 $66 $25 #
plane-surface $-1 0 0 -11.219045555803918 0 0 1 1 0 0 forward_v I I I I #
coedge $-1 $67 $68 $69 $70 forward $26 $-1 #
face $-1 $71 $72 $16 $-1 $73 reversed single #
loop $-1 $-1 $74 $28 #
plane-surface $-1 0 0 -134.88692892239143 0 0 1 1 0 0 forward_v I I I I #
coedge $-1 $75 $76 $77 $78 forward $29 $-1 #
face $-1 $-1 $79 $17 $-1 $80 forward single #
loop $-1 $-1 $81 $31 #
plane-surface $-1 0 0 -4.1824167607654035 0 0 -1 -1 0 0 forward_v I I I I #
loop $-1 $-1 $82 $22 #
coedge $-1 $52 $52 $81 $83 reversed $32 $-1 #
face $-1 $-1 $84 $18 $-1 $85 forward single #
loop $-1 $-1 $86 $34 #
plane-surface $-1 0 0 -4.1824167607654035 0 0 -1 -1 0 0 forward_v I I I I #
loop $-1 $-1 $87 $23 #
coedge $-1 $57 $57 $86 $88 reversed $35 $-1 #
face $-1 $-1 $89 $19 $-1 $90 forward single #
loop $-1 $-1 $91 $37 #
plane-surface $-1 0 0 -4.1824167607654035 0 0 -1 -1 0 0 forward_v I I I I #
loop $-1 $-1 $92 $24 #
coedge $-1 $62 $62 $91 $93 reversed $38 $-1 #
face $-1 $94 $95 $15 $-1 $96 reversed single #
loop $-1 $-1 $97 $40 #
plane-surface $-1 0 -27.378749216282639 0 0 1 0 0 0 1 forward_v I I I I #
coedge $-1 $98 $99 $100 $101 forward $41 $-1 #
coedge $-1 $102 $43 $103 $104 forward $26 $-1 #
coedge $-1 $43 $102 $105 $106 forward $26 $-1 #
coedge $-1 $107 $108 $43 $70 reversed $109 $-1 #
edge $-1 $110 -27.378749216282639 $111 27.378749216282639 $69 $112 forward 7 unknown #
face $-1 $113 $114 $16 $-1 $115 reversed single #
loop $-1 $-1 $116 $44 #
plane-surface $-1 0 -269.77385784478287 0 0 1 0 0 0 1 forward_v I I I I #
coedge $-1 $117 $118 $119 $120 forward $45 $-1 #
coedge $-1 $121 $47 $122 $123 forward $29 $-1 #
coedge $-1 $47 $121 $124 $125 forward $29 $-1 #
coedge $-1 $126 $127 $47 $78 reversed $128 $-1 #
edge $-1 $129 -269.77385784478287 $130 269.77385784478287 $77 $131 forward 7 unknown #
loop $-1 $132 $133 $48 #
cone-surface $-1 0 0 0 0 0 1 0.75 0 0 1 I I -0.70710678118654757 0.70710678118654757 0.75 forward I I I I #
coedge $-1 $81 $81 $52 $83 forward $49 $-1 #
coedge $-1 $82 $82 $133 $134 forward $51 $-1 #
edge $-1 $135 0 $135 6.2831853071796004 $81 $136 forward 7 unknown #
loop $-1 $137 $138 $53 #
cone-surface $-1 0 0 0 0 0 1 0.75 0 0 1 I I -0.70710678118654757 0.70710678118654757 0.75 forward I I I I #
coedge $-1 $86 $86 $57 $88 forward $54 $-1 #
coedge $-1 $87 $87 $138 $139 forward $56 $-1 #
edge $-1 $140 0 $140 6.2831853071796004 $86 $141 forward 7 unknown #
loop $-1 $142 $143 $58 #
cone-surface $-1 0 0 0 0 0 1 0.75 0 0 1 I I -0.70710678118654757 0.70710678118654757 0.75 forward I I I I #
coedge $-1 $91 $91 $62 $93 forward $59 $-1 #
coedge $-1 $92 $92 $143 $144 forward $61 $-1 #
edge $-1 $145 0 $145 6.2831853071796004 $91 $146 forward 7 unknown #
face $-1 $147 $148 $15 $-1 $149 reversed single #
loop $-1 $-1 $150 $63 #
plane-surface $-1 -67.443464461195717 0 0 1 0 0 0 0 -1 forward_v I I I I #
coedge $-1 $151 $105 $152 $153 forward $64 $-1 #
coedge $-1 $154 $66 $151 $155 forward $41 $-1 #
coedge $-1 $66 $154 $156 $157 forward $41 $-1 #
coedge $-1 $108 $107 $66 $101 reversed $109 $-1 #
edge $-1 $158 -27.378749216282639 $159 27.378749216282639 $100 $160 forward 7 unknown #
coedge $-1 $68 $67 $161 $162 forward $26 $-1 #
coedge $-1 $163 $164 $67 $104 reversed $148 $-1 #
edge $-1 $111 -67.443464461195717 $165 67.443464461195717 $103 $166 forward 7 unknown #
coedge $-1 $97 $167 $68 $106 reversed $64 $-1 #
edge $-1 $168 -67.443464461195717 $110 67.443464461195717 $105 $169 forward 7 unknown #
coedge $-1 $100 $69 $167 $170 forward $109 $-1 #
coedge $-1 $69 $100 $163 $171 reversed $109 $-1 #
loop $-1 $-1 $107 $147 #
vertex $-1 $70 $172 #
vertex $-1 $70 $173 #
straight-curve $-1 67.443464461195717 0 11.219045555803918 0 1 0 I I #
face $-1 $174 $175 $16 $-1 $176 reversed single #
loop $-1 $-1 $177 $71 #
plane-surface $-1 -13.588930836489769 0 0 1 0 0 0 0 -1 forward_v I I I I #
coedge $-1 $178 $124 $179 $180 forward $72 $-1 #
coedge $-1 $181 $74 $178 $182 forward $45 $-1 #
coedge $-1 $74 $181 $183 $184 forward $45 $-1 #
coedge $-1 $127 $126 $74 $120 reversed $128 $-1 #
edge $-1 $185 -269.77385784478287 $186 269.77385784478287 $119 $187 forward 7 unknown #
coedge $-1 $76 $75 $188 $189 forward $29 $-1 #
coedge $-1 $190 $191 $75 $123 reversed $175 $-1 #
edge $-1 $130 -13.588930836489769 $192 13.588930836489769 $122 $193 forward 7 unknown #
coedge $-1 $116 $194 $76 $125 reversed $72 $-1 #
edge $-1 $195 -13.588930836489769 $129 13.588930836489769 $124 $196 forward 7 unknown #
coedge $-1 $119 $77 $194 $197 forward $128 $-1 #
coedge $-1 $77 $119 $190 $198 reversed $128 $-1 #
loop $-1 $-1 $126 $174 #
vertex $-1 $78 $199 #
vertex $-1 $78 $200 #
straight-curve $-1 13.588930836489769 0 134.88692892239143 0 1 0 I I #
loop $-1 $-1 $201 $48 #
coedge $-1 $133 $133 $82 $134 reversed $79 $-1 #
edge $-1 $202 0 $202 6.2831853071796004 $133 $203 forward 7 unknown #
vertex $-1 $83 $204 #
ellipse-curve $-1 0 0 -4.1824167607654035 0 0 -1 1.5 0 0 1 I I #
loop $-1 $-1 $205 $53 #
coedge $-1 $138 $138 $87 $139 reversed $84 $-1 #
edge $-1 $206 0 $206 6.2831853071796004 $138 $207 forward 7 unknown #
vertex $-1 $88 $208 #
ellipse-curve $-1 0 0 -4.1824167607654035 0 0 -1 1.5 0 0 1 I I #
loop $-1 $-1 $209 $58 #
coedge $-1 $143 $143 $92 $144 reversed $89 $-1 #
edge $-1 $210 0 $210 6.2831853071796004 $143 $211 forward 7 unknown #
vertex $-1 $93 $212 #
ellipse-curve $-1 0 0 -4.1824167607654035 0 0 -1 1.5 0 0 1 I I #
face $-1 $-1 $109 $15 $-1 $213 reversed single #
loop $-1 $-1 $163 $94 #
plane-surface $-1 0 27.378749216282639 0 0 -1 0 0 0 -1 forward_v I I I I #
coedge $-1 $214 $161 $164 $215 forward $95 $-1 #
coedge $-1 $167 $97 $98 $155 reversed $64 $-1 #
coedge $-1 $161 $214 $97 $153 reversed $95 $-1 #
edge $-1 $168 -11.219045555803918 $216 11.219045555803918 $152 $217 forward 7 unknown #
coedge $-1 $99 $98 $214 $218 forward $41 $-1 #
edge $-1 $159 -67.443464461195717 $216 67.443464461195717 $151 $219 forward 7 unknown #
coedge $-1 $164 $163 $99 $157 reversed $148 $-1 #
edge $-1 $220 -67.443464461195717 $158 67.443464461195717 $156 $221 forward 7 unknown #
vertex $-1 $101 $222 #
vertex $-1 $170 $223 #
straight-curve $-1 67.443464461195717 0 -11.219045555803918 0 -1 0 I I #
coedge $-1 $150 $152 $102 $162 reversed $95 $-1 #
edge $-1 $165 -27.378749216282639 $168 27.378749216282639 $161 $224 forward 7 unknown #
coedge $-1 $156 $103 $108 $171 forward $148 $-1 #
coedge $-1 $103 $156 $150 $215 reversed $148 $-1 #
vertex $-1 $104 $225 #
straight-curve $-1 0 27.378749216282639 11.219045555803918 -1 0 0 I I #
coedge $-1 $105 $151 $107 $170 reversed $64 $-1 #
vertex $-1 $162 $226 #
straight-curve $-1 0 -27.378749216282639 11.219045555803918 1 0 0 I I #
edge $-1 $110 -11.219045555803918 $159 11.219045555803918 $107 $227 forward 7 unknown #
edge $-1 $111 -11.219045555803918 $158 11.219045555803918 $108 $228 forward 7 unknown #
point $-1 67.443464461195717 -27.378749216282639 11.219045555803918 #
point $-1 67.443464461195717 27.378749216282639 11.219045555803918 #
face $-1 $-1 $128 $16 $-1 $229 reversed single #
loop $-1 $-1 $190 $113 #
plane-surface $-1 0 269.77385784478287 0 0 -1 0 0 0 -1 forward_v I I I I #
coedge $-1 $230 $188 $191 $231 forward $114 $-1 #
coedge $-1 $194 $116 $117 $182 reversed $72 $-1 #
coedge $-1 $188 $230 $116 $180 reversed $114 $-1 #
edge $-1 $195 -134.88692892239143 $232 134.88692892239143 $179 $233 forward 7 unknown #
coedge $-1 $118 $117 $230 $234 forward $45 $-1 #
edge $-1 $186 -13.588930836489769 $232 13.588930836489769 $178 $235 forward 7 unknown #
coedge $-1 $191 $190 $118 $184 reversed $175 $-1 #
edge $-1 $236 -13.588930836489769 $185 13.588930836489769 $183 $237 forward 7 unknown #
vertex $-1 $120 $238 #
vertex $-1 $197 $239 #
straight-curve $-1 13.588930836489769 0 -134.88692892239143 0 -1 0 I I #
coedge $-1 $177 $179 $121 $189 reversed $114 $-1 #
edge $-1 $192 -269.77385784478287 $195 269.77385784478287 $188 $240 forward 7 unknown #
coedge $-1 $183 $122 $127 $198 forward $175 $-1 #
coedge $-1 $122 $183 $177 $231 reversed $175 $-1 #
vertex $-1 $123 $241 #
straight-curve $-1 0 269.77385784478287 134.88692892239143 -1 0 0 I I #
coedge $-1 $124 $178 $126 $197 reversed $72 $-1 #
vertex $-1 $189 $242 #
straight-curve $-1 0 -269.77385784478287 134.88692892239143 1 0 0 I I #
edge $-1 $129 -134.88692892239143 $186 134.88692892239143 $126 $243 forward 7 unknown #
edge $-1 $130 -134.88692892239143 $185 134.88692892239143 $127 $244 forward 7 unknown #
point $-1 13.588930836489769 -269.77385784478287 134.88692892239143 #
point $-1 13.588930836489769 269.77385784478287 134.88692892239143 #
coedge $-1 $201 $201 $-1 $245 reversed $132 $-1 #
vertex $-1 $134 $246 #
ellipse-curve $-1 0 0 -0.75 0 0 -1 1.5 0 0 1 I I #
point $-1 1.5 0 -4.1824167607654035 #
coedge $-1 $205 $205 $-1 $247 reversed $137 $-1 #
vertex $-1 $139 $248 #
ellipse-curve $-1 0 0 -0.75 0 0 -1 1.5 0 0 1 I I #
point $-1 1.5 0 -4.1824167607654035 #
coedge $-1 $209 $209 $-1 $249 reversed $142 $-1 #
vertex $-1 $144 $250 #
ellipse-curve $-1 0 0 -0.75 0 0 -1 1.5 0 0 1 I I #
point $-1 1.5 0 -4.1824167607654035 #
plane-surface $-1 67.443464461195717 0 0 -1 0 0 0 0 1 forward_v I I I I #
coedge $-1 $152 $150 $154 $218 reversed $95 $-1 #
edge $-1 $165 -11.219045555803918 $220 11.219045555803918 $164 $251 forward 7 unknown #
vertex $-1 $218 $252 #
straight-curve $-1 -67.443464461195717 -27.378749216282639 0 0 0 -1 I I #
edge $-1 $216 -27.378749216282639 $220 27.378749216282639 $214 $253 forward 7 unknown #
straight-curve $-1 0 -27.378749216282639 -11.219045555803918 -1 0 0 I I #
vertex $-1 $157 $254 #
straight-curve $-1 0 27.378749216282639 -11.219045555803918 1 0 0 I I #
point $-1 67.443464461195717 27.378749216282639 -11.219045555803918 #
point $-1 67.443464461195717 -27.378749216282639 -11.219045555803918 #
straight-curve $-1 -67.443464461195717 0 11.219045555803918 0 -1 0 I I #
point $-1 -67.443464461195717 27.378749216282639 11.219045555803918 #
point $-1 -67.443464461195717 -27.378749216282639 11.219045555803918 #
straight-curve $-1 67.443464461195717 -27.378749216282639 0 0 0 -1 I I #
straight-curve $-1 67.443464461195717 27.378749216282639 0 0 0 -1 I I #
plane-surface $-1 13.588930836489769 0 0 -1 0 0 0 0 1 forward_v I I I I #
coedge $-1 $179 $177 $181 $234 reversed $114 $-1 #
edge $-1 $192 -134.88692892239143 $236 134.88692892239143 $191 $255 forward 7 unknown #
vertex $-1 $234 $256 #
straight-curve $-1 -13.588930836489769 -269.77385784478287 0 0 0 -1 I I #
edge $-1 $232 -269.77385784478287 $236 269.77385784478287 $230 $257 forward 7 unknown #
straight-curve $-1 0 -269.77385784478287 -134.88692892239143 -1 0 0 I I #
vertex $-1 $184 $258 #
straight-curve $-1 0 269.77385784478287 -134.88692892239143 1 0 0 I I #
point $-1 13.588930836489769 269.77385784478287 -134.88692892239143 #
point $-1 13.588930836489769 -269.77385784478287 -134.88692892239143 #
straight-curve $-1 -13.588930836489769 0 134.88692892239143 0 -1 0 I I #
point $-1 -13.588930836489769 269.77385784478287 134.88692892239143 #
point $-1 -13.588930836489769 -269.77385784478287 134.88692892239143 #
straight-curve $-1 13.588930836489769 -269.77385784478287 0 0 0 -1 I I #
straight-curve $-1 13.588930836489769 269.77385784478287 0 0 0 -1 I I #
edge $-1 $259 1 $259 0 $201 $-1 forward 7 unknown #
point $-1 1.5 0 -0.75 #
edge $-1 $260 1 $260 0 $205 $-1 forward 7 unknown #
point $-1 1.5 0 -0.75 #
edge $-1 $261 1 $261 0 $209 $-1 forward 7 unknown #
point $-1 1.5 0 -0.75 #
straight-curve $-1 -67.443464461195717 27.378749216282639 0 0 0 -1 I I #
point $-1 -67.443464461195717 -27.378749216282639 -11.219045555803918 #
straight-curve $-1 -67.443464461195717 0 -11.219045555803918 0 1 0 I I #
point $-1 -67.443464461195717 27.378749216282639 -11.219045555803918 #
straight-curve $-1 -13.588930836489769 269.77385784478287 0 0 0 -1 I I #
point $-1 -13.588930836489769 -269.77385784478287 -134.88692892239143 #
straight-curve $-1 -13.588930836489769 0 -134.88692892239143 0 1 0 I I #
point $-1 -13.588930836489769 269.77385784478287 -134.88692892239143 #
vertex $-1 $245 $262 #
vertex $-1 $247 $263 #
vertex $-1 $249 $264 #
point $-1 0 0 0.75 #
point $-1 0 0 0.75 #
point $-1 0 0 0.75 #
End-of-ACIS-data 