500 0 10 0           
7 Unknown 11 ACIS 5.0 NT 24 Fri Mar 26 20:36:17 1999 
-1 9.9999999999999995e-007 1e-010 
body $-1 $10 $-1 $11 #
body $-1 $12 $-1 $13 #
body $-1 $14 $-1 $15 #
body $-1 $16 $-1 $17 #
body $-1 $18 $-1 $19 #
body $-1 $20 $-1 $21 #
body $-1 $22 $-1 $23 #
body $-1 $24 $-1 $25 #
body $-1 $26 $-1 $27 #
body $-1 $28 $-1 $29 #
lump $-1 $-1 $30 $0 #
transform $-1 1 0 0 0 1 0 0 0 1 46.246528519547105 31.483403638803836 15.503032503813708 1 rotate no_reflect no_shear #
lump $-1 $-1 $31 $1 #
transform $-1 1 0 0 0 1 0 0 0 1 46.246528519547105 31.483403638803836 15.503032503813708 1 rotate no_reflect no_shear #
lump $-1 $-1 $32 $2 #
transform $-1 1 0 0 0 1 0 0 0 1 46.246528519547105 31.483403638803836 15.503032503813708 1 rotate no_reflect no_shear #
lump $-1 $-1 $33 $3 #
transform $-1 1 0 0 0 1 0 0 0 1 46.246528519547105 31.483403638803836 15.503032503813708 1 rotate no_reflect no_shear #
lump $-1 $-1 $34 $4 #
transform $-1 1 0 0 0 1 0 0 0 1 46.246528519547105 31.483403638803836 15.503032503813708 1 rotate no_reflect no_shear #
lump $-1 $-1 $35 $5 #
transform $-1 1 0 0 0 1 0 0 0 1 46.246528519547105 31.483403638803836 15.503032503813708 1 rotate no_reflect no_shear #
lump $-1 $-1 $36 $6 #
transform $-1 1 0 0 0 1 0 0 0 1 46.246528519547105 31.483403638803836 15.503032503813708 1 rotate no_reflect no_shear #
lump $-1 $-1 $37 $7 #
transform $-1 1 0 0 0 1 0 0 0 1 46.246528519547105 31.483403638803836 15.503032503813708 1 rotate no_reflect no_shear #
lump $-1 $-1 $38 $8 #
transform $-1 1 0 0 0 1 0 0 0 1 46.246528519547105 31.483403638803836 15.503032503813708 1 rotate no_reflect no_shear #
lump $-1 $-1 $39 $9 #
transform $-1 1 0 0 0 1 0 0 0 1 46.246528519547105 31.483403638803836 15.503032503813708 1 rotate no_reflect no_shear #
shell $-1 $-1 $-1 $40 $-1 $10 #
shell $-1 $-1 $-1 $41 $-1 $12 #
shell $-1 $-1 $-1 $42 $-1 $14 #
shell $-1 $-1 $-1 $43 $-1 $16 #
shell $-1 $-1 $-1 $44 $-1 $18 #
shell $-1 $-1 $-1 $45 $-1 $20 #
shell $-1 $-1 $-1 $46 $-1 $22 #
shell $-1 $-1 $-1 $47 $-1 $24 #
shell $-1 $-1 $-1 $48 $-1 $26 #
shell $-1 $-1 $-1 $49 $-1 $28 #
face $-1 $50 $51 $30 $-1 $52 reversed single #
face $-1 $53 $54 $31 $-1 $55 reversed single #
face $-1 $56 $57 $32 $-1 $58 forward single #
face $-1 $59 $60 $33 $-1 $61 reversed single #
face $-1 $62 $63 $34 $-1 $64 forward single #
face $-1 $65 $66 $35 $-1 $67 forward single #
face $-1 $68 $69 $36 $-1 $70 reversed single #
face $-1 $71 $72 $37 $-1 $73 forward single #
face $-1 $74 $75 $38 $-1 $76 forward single #
face $-1 $77 $78 $39 $-1 $79 forward single #
face $-1 $80 $81 $30 $-1 $82 forward single #
loop $-1 $-1 $83 $40 #
plane-surface $-1 46.246528519547105 0 0 -1 0 0 0 0 1 forward_v I I I I #
face $-1 $84 $85 $31 $-1 $86 reversed single #
loop $-1 $-1 $87 $41 #
plane-surface $-1 -34.692082957059363 0 11.691170509323035 -1 0 0 0 0 1 forward_v I I I I #
face $-1 $88 $89 $32 $-1 $90 reversed single #
loop $-1 $-1 $91 $42 #
plane-surface $-1 46.246528519547105 0 0 -1 0 0 0 0 1 forward_v I I I I #
face $-1 $92 $93 $33 $-1 $94 reversed single #
loop $-1 $-1 $95 $43 #
plane-surface $-1 -27.581526860603056 -80.497257018813798 82.39967934673173 -1 0 0 0 -0.52991927123019833 0.84804809178421925 forward_v I I I I #
face $-1 $96 $97 $34 $-1 $98 forward single #
loop $-1 $99 $100 $44 #
cone-surface $-1 -32.660495500928988 -21.877482373097681 9.1392158451727568 0 0.52991927123019833 -0.84804809178421925 1 0 0 1 I I 0 1 1 forward I I I I #
face $-1 $101 $102 $35 $-1 $103 forward single #
loop $-1 $104 $105 $45 #
cone-surface $-1 -29.61311431673343 -21.877482373097681 9.1392158451727568 0 0.52991927123019833 -0.84804809178421925 1 0 0 1 I I 0 1 1 forward I I I I #
face $-1 $106 $107 $36 $-1 $108 reversed single #
loop $-1 $-1 $109 $46 #
plane-surface $-1 22.223899603265203 34.908242374811294 114.34826417359641 1 0 0 0 -0.5877852598018023 -0.80901698891910034 forward_v I I I I #
face $-1 $110 $111 $37 $-1 $112 forward single #
loop $-1 $113 $114 $47 #
cone-surface $-1 24.526367375765695 21.473386917416402 7.5366020034321233 0 -0.5877852598018023 -0.80901698891910034 1 0 0 1 I I 0 1 1 forward I I I I #
face $-1 $115 $116 $38 $-1 $117 forward single #
loop $-1 $118 $119 $48 #
cone-surface $-1 27.98006903451644 21.473386917416402 7.5366020034321233 0 -0.5877852598018023 -0.80901698891910034 1 0 0 1 I I 0 1 1 forward I I I I #
face $-1 $120 $121 $39 $-1 $122 forward single #
loop $-1 $123 $124 $49 #
cone-surface $-1 31.433770693267185 21.473386917416402 7.5366020034321233 0 -0.5877852598018023 -0.80901698891910034 1 0 0 1 I I 0 1 1 forward I I I I #
face $-1 $125 $126 $30 $-1 $127 reversed single #
loop $-1 $-1 $128 $50 #
plane-surface $-1 0 0 15.503032503813708 0 0 1 1 0 0 forward_v I I I I #
coedge $-1 $129 $130 $131 $132 reversed $51 $-1 #
face $-1 $133 $134 $31 $-1 $135 reversed single #
loop $-1 $-1 $136 $53 #
plane-surface $-1 -40.469305738303234 0 7.8793085148323616 0 0 1 1 0 0 forward_v I I I I #
coedge $-1 $137 $138 $136 $139 reversed $54 $-1 #
face $-1 $140 $141 $32 $-1 $142 reversed single #
loop $-1 $-1 $143 $56 #
plane-surface $-1 0 0 -15.503032503813708 0 0 1 1 0 0 forward_v I I I I #
coedge $-1 $144 $145 $146 $147 forward $57 $-1 #
face $-1 $148 $149 $33 $-1 $150 reversed single #
loop $-1 $-1 $151 $59 #
plane-surface $-1 -31.136804908831209 -31.483403638803829 3.9611188214389301 0 -0.52991927123019833 0.84804809178421925 1 0 0 forward_v I I I I #
coedge $-1 $152 $153 $154 $155 reversed $60 $-1 #
face $-1 $-1 $156 $34 $-1 $157 forward single #
loop $-1 $158 $159 $62 #
cone-surface $-1 -32.660495500928988 -21.24206280077583 8.1223319818270792 0 0.52991927123019833 -0.84804809178421925 0.5 0 0 1 I I -0.70710678118654746 0.70710678118654746 0.5 forward I I I I #
loop $-1 $-1 $160 $44 #
coedge $-1 $100 $100 $161 $162 reversed $63 $-1 #
face $-1 $-1 $163 $35 $-1 $164 forward single #
loop $-1 $165 $166 $65 #
cone-surface $-1 -29.61311431673343 -21.24206280077583 8.1223319818270792 0 0.52991927123019833 -0.84804809178421925 0.5 0 0 1 I I -0.70710678118654746 0.70710678118654746 0.5 forward I I I I #
loop $-1 $-1 $167 $45 #
coedge $-1 $105 $105 $168 $169 reversed $66 $-1 #
face $-1 $170 $171 $36 $-1 $172 reversed single #
loop $-1 $-1 $173 $68 #
plane-surface $-1 27.98006903451644 -19.457813186775624 39.51980967190579 0 0.5877852598018023 0.80901698891910034 1 0 0 forward_v I I I I #
coedge $-1 $174 $175 $176 $177 reversed $69 $-1 #
face $-1 $-1 $178 $37 $-1 $179 forward single #
loop $-1 $180 $181 $71 #
cone-surface $-1 24.526367375765695 20.111957360464046 5.6627550118242507 0 -0.5877852598018023 -0.80901698891910034 0.5 0 0 1 I I -0.70710678118654746 0.70710678118654746 0.5 forward I I I I #
loop $-1 $-1 $182 $47 #
coedge $-1 $114 $114 $183 $184 reversed $72 $-1 #
face $-1 $-1 $185 $38 $-1 $186 forward single #
loop $-1 $187 $188 $74 #
cone-surface $-1 27.98006903451644 20.111957360464046 5.6627550118242507 0 -0.5877852598018023 -0.80901698891910034 0.5 0 0 1 I I -0.70710678118654746 0.70710678118654746 0.5 forward I I I I #
loop $-1 $-1 $189 $48 #
coedge $-1 $119 $119 $190 $191 reversed $75 $-1 #
face $-1 $-1 $192 $39 $-1 $193 forward single #
loop $-1 $194 $195 $77 #
cone-surface $-1 31.433770693267185 20.111957360464046 5.6627550118242507 0 -0.5877852598018023 -0.80901698891910034 0.5 0 0 1 I I -0.70710678118654746 0.70710678118654746 0.5 forward I I I I #
loop $-1 $-1 $196 $49 #
coedge $-1 $124 $124 $197 $198 reversed $78 $-1 #
face $-1 $199 $200 $30 $-1 $201 reversed single #
loop $-1 $-1 $131 $80 #
plane-surface $-1 0 0 -15.503032503813708 0 0 1 1 0 0 forward_v I I I I #
coedge $-1 $202 $203 $204 $205 forward $81 $-1 #
coedge $-1 $204 $83 $206 $207 reversed $51 $-1 #
coedge $-1 $83 $204 $208 $209 forward $51 $-1 #
coedge $-1 $210 $211 $83 $132 forward $126 $-1 #
edge $-1 $212 -31.483403638803836 $213 31.483403638803836 $83 $214 forward 7 unknown #
face $-1 $215 $216 $31 $-1 $217 reversed single #
loop $-1 $-1 $218 $84 #
plane-surface $-1 0 31.483403638803836 0 0 -1 0 0 0 -1 forward_v I I I I #
coedge $-1 $219 $220 $87 $139 forward $85 $-1 #
coedge $-1 $221 $87 $218 $222 reversed $54 $-1 #
coedge $-1 $87 $221 $223 $224 reversed $54 $-1 #
edge $-1 $225 -31.483403638803836 $226 31.483403638803836 $87 $227 forward 7 unknown #
face $-1 $228 $229 $32 $-1 $230 reversed single #
loop $-1 $-1 $146 $88 #
plane-surface $-1 52.501673546436813 -7.8567385750828613 0 0 1 0 0 0 1 forward_v I I I I #
coedge $-1 $231 $232 $145 $233 forward $89 $-1 #
coedge $-1 $234 $91 $235 $236 reversed $57 $-1 #
coedge $-1 $91 $234 $143 $233 reversed $57 $-1 #
coedge $-1 $237 $238 $91 $147 reversed $141 $-1 #
edge $-1 $239 -15.503032503813708 $240 15.503032503813708 $146 $241 forward 7 unknown #
face $-1 $242 $243 $33 $-1 $244 forward single #
loop $-1 $-1 $245 $92 #
plane-surface $-1 0 -31.483403638803836 0 0 1 0 0 0 1 forward_v I I I I #
coedge $-1 $246 $247 $248 $249 reversed $93 $-1 #
coedge $-1 $153 $95 $250 $251 reversed $60 $-1 #
coedge $-1 $95 $152 $246 $252 reversed $60 $-1 #
coedge $-1 $248 $253 $95 $155 forward $243 $-1 #
edge $-1 $254 8.7652248706030633 $255 27.236147528601908 $154 $256 forward 7 unknown #
loop $-1 $-1 $161 $96 #
plane-surface $-1 -31.136804908831209 -31.483403638803829 3.9611188214389301 0 -0.52991927123019833 0.84804809178421925 1 0 0 forward_v I I I I #
loop $-1 $-1 $257 $62 #
coedge $-1 $159 $159 $160 $258 reversed $97 $-1 #
coedge $-1 $160 $160 $159 $258 forward $99 $-1 #
coedge $-1 $161 $161 $100 $162 forward $156 $-1 #
edge $-1 $259 -1.5080103936493007e-015 $259 6.2831853071795987 $161 $260 forward 7 unknown #
loop $-1 $-1 $168 $101 #
plane-surface $-1 -31.136804908831209 -31.483403638803829 3.9611188214389301 0 -0.52991927123019833 0.84804809178421925 1 0 0 forward_v I I I I #
loop $-1 $-1 $261 $65 #
coedge $-1 $166 $166 $167 $262 reversed $102 $-1 #
coedge $-1 $167 $167 $166 $262 forward $104 $-1 #
coedge $-1 $168 $168 $105 $169 forward $163 $-1 #
edge $-1 $263 -1.5080103936493007e-015 $263 6.2831853071795987 $168 $264 forward 7 unknown #
face $-1 $265 $266 $36 $-1 $267 reversed single #
loop $-1 $-1 $268 $106 #
plane-surface $-1 33.736238465767677 34.908242374811294 114.34826417359641 -1 0 0 0 0.5877852598018023 0.80901698891910034 forward_v I I I I #
coedge $-1 $269 $270 $271 $272 reversed $107 $-1 #
coedge $-1 $175 $109 $273 $274 reversed $69 $-1 #
coedge $-1 $109 $174 $269 $275 reversed $69 $-1 #
coedge $-1 $271 $276 $109 $177 forward $277 $-1 #
edge $-1 $278 -14.029282451398188 $279 3.8556771372738154 $176 $280 forward 7 unknown #
loop $-1 $-1 $183 $110 #
plane-surface $-1 27.98006903451644 -19.457813186775624 39.51980967190579 0 0.5877852598018023 0.80901698891910034 1 0 0 forward_v I I I I #
loop $-1 $-1 $281 $71 #
coedge $-1 $181 $181 $182 $282 reversed $111 $-1 #
coedge $-1 $182 $182 $181 $282 forward $113 $-1 #
coedge $-1 $183 $183 $114 $184 forward $178 $-1 #
edge $-1 $283 7.9751585205580499e-016 $283 6.2831853071796013 $183 $284 forward 7 unknown #
loop $-1 $-1 $190 $115 #
plane-surface $-1 27.98006903451644 -19.457813186775624 39.51980967190579 0 0.5877852598018023 0.80901698891910034 1 0 0 forward_v I I I I #
loop $-1 $-1 $285 $74 #
coedge $-1 $188 $188 $189 $286 reversed $116 $-1 #
coedge $-1 $189 $189 $188 $286 forward $118 $-1 #
coedge $-1 $190 $190 $119 $191 forward $185 $-1 #
edge $-1 $287 7.9751585205580499e-016 $287 6.2831853071796013 $190 $288 forward 7 unknown #
loop $-1 $-1 $197 $120 #
plane-surface $-1 27.98006903451644 -19.457813186775624 39.51980967190579 0 0.5877852598018023 0.80901698891910034 1 0 0 forward_v I I I I #
loop $-1 $-1 $289 $77 #
coedge $-1 $195 $195 $196 $290 reversed $121 $-1 #
coedge $-1 $196 $196 $195 $290 forward $123 $-1 #
coedge $-1 $197 $197 $124 $198 forward $192 $-1 #
edge $-1 $291 7.9751585205580499e-016 $291 6.2831853071796013 $197 $292 forward 7 unknown #
face $-1 $293 $294 $30 $-1 $295 reversed single #
loop $-1 $-1 $296 $125 #
plane-surface $-1 0 -31.483403638803836 0 0 1 0 0 0 1 forward_v I I I I #
coedge $-1 $297 $128 $298 $299 forward $81 $-1 #
coedge $-1 $128 $297 $300 $301 forward $81 $-1 #
coedge $-1 $130 $129 $128 $205 reversed $51 $-1 #
edge $-1 $302 -31.483403638803836 $303 31.483403638803836 $204 $304 forward 7 unknown #
coedge $-1 $305 $298 $129 $207 forward $306 $-1 #
edge $-1 $303 -15.503032503813708 $212 15.503032503813708 $129 $307 forward 7 unknown #
coedge $-1 $300 $308 $130 $209 reversed $200 $-1 #
edge $-1 $302 -15.503032503813708 $213 15.503032503813708 $130 $309 forward 7 unknown #
coedge $-1 $310 $131 $308 $311 forward $126 $-1 #
coedge $-1 $131 $310 $305 $312 forward $126 $-1 #
vertex $-1 $132 $313 #
vertex $-1 $209 $314 #
straight-curve $-1 46.246528519547105 0 -15.503032503813708 0 -1 0 I I #
face $-1 $315 $316 $31 $-1 $317 forward single #
loop $-1 $-1 $318 $133 #
plane-surface $-1 -46.246528519547105 0 0 1 0 0 0 0 -1 forward_v I I I I #
coedge $-1 $319 $320 $137 $222 forward $134 $-1 #
coedge $-1 $321 $136 $322 $323 reversed $85 $-1 #
coedge $-1 $136 $321 $319 $324 reversed $85 $-1 #
coedge $-1 $138 $137 $325 $326 reversed $54 $-1 #
edge $-1 $327 -9.6574472491521917 $225 -2.0337232601708441 $218 $328 forward 7 unknown #
coedge $-1 $329 $322 $138 $224 forward $330 $-1 #
edge $-1 $226 2.0337232601708441 $331 9.6574472491521917 $223 $332 forward 7 unknown #
vertex $-1 $324 $333 #
vertex $-1 $323 $334 #
straight-curve $-1 -34.692082957059363 0 7.8793085148323616 0 -1 0 I I #
face $-1 $335 $336 $32 $-1 $337 reversed single #
loop $-1 $-1 $338 $140 #
plane-surface $-1 52.501673546436813 -0.47733863117641917 0 0 -1 0 0 0 -1 forward_v I I I I #
coedge $-1 $339 $143 $340 $341 forward $89 $-1 #
coedge $-1 $143 $339 $237 $342 forward $89 $-1 #
edge $-1 $239 -7.8567385750828613 $343 -0.47733863117641917 $143 $344 forward 7 unknown #
coedge $-1 $145 $144 $345 $346 forward $57 $-1 #
coedge $-1 $347 $348 $144 $236 forward $349 $-1 #
edge $-1 $350 0.47733863117641917 $240 7.8567385750828613 $235 $351 forward 7 unknown #
coedge $-1 $352 $146 $232 $342 reversed $141 $-1 #
coedge $-1 $146 $352 $347 $353 reversed $141 $-1 #
vertex $-1 $233 $354 #
vertex $-1 $353 $355 #
straight-curve $-1 46.246528519547105 -7.8567385750828613 0 0 0 1 I I #
face $-1 $-1 $356 $33 $-1 $357 forward single #
loop $-1 $-1 $154 $148 #
plane-surface $-1 0 0 15.503032503813708 0 0 1 1 0 0 forward_v I I I I #
coedge $-1 $358 $359 $360 $361 forward $149 $-1 #
coedge $-1 $362 $151 $153 $252 forward $93 $-1 #
coedge $-1 $151 $362 $363 $364 forward $93 $-1 #
coedge $-1 $365 $154 $151 $249 forward $243 $-1 #
edge $-1 $255 12.013124406187451 $366 19.123680502643758 $248 $367 forward 7 unknown #
coedge $-1 $359 $358 $152 $251 forward $149 $-1 #
edge $-1 $368 -37.238720851926942 $254 -25.696807169552159 $250 $369 forward 7 unknown #
edge $-1 $255 -21.780513200775708 $368 8.3790584163743152e-015 $153 $370 forward 7 unknown #
coedge $-1 $154 $365 $359 $371 forward $243 $-1 #
vertex $-1 $155 $372 #
vertex $-1 $155 $373 #
straight-curve $-1 -27.581526860603056 -40.248628509406899 15.503032503813706 0 1 0 I I #
coedge $-1 $257 $257 $-1 $374 reversed $158 $-1 #
edge $-1 $375 0 $375 6.2831853071796004 $159 $376 forward 7 unknown #
vertex $-1 $162 $377 #
ellipse-curve $-1 -32.660495500928988 -22.247942309804422 9.7320756626263112 0 -0.52991927123019833 0.84804809178421925 1 0 0 1 I I #
coedge $-1 $261 $261 $-1 $378 reversed $165 $-1 #
edge $-1 $379 0 $379 6.2831853071796004 $166 $380 forward 7 unknown #
vertex $-1 $169 $381 #
ellipse-curve $-1 -29.61311431673343 -22.247942309804422 9.7320756626263112 0 -0.52991927123019833 0.84804809178421925 1 0 0 1 I I #
face $-1 $-1 $277 $36 $-1 $382 forward single #
loop $-1 $-1 $383 $170 #
plane-surface $-1 0 31.483403638803836 0 0 -1 0 0 0 -1 forward_v I I I I #
coedge $-1 $384 $385 $386 $387 reversed $171 $-1 #
coedge $-1 $388 $173 $175 $275 forward $107 $-1 #
coedge $-1 $173 $388 $384 $389 forward $107 $-1 #
coedge $-1 $386 $176 $173 $272 forward $277 $-1 #
edge $-1 $279 8.2338650860069826 $390 19.746203948509457 $271 $391 forward 7 unknown #
coedge $-1 $392 $393 $174 $274 forward $266 $-1 #
edge $-1 $394 -54.665283589451057 $278 -41.671099582984496 $273 $395 forward 7 unknown #
edge $-1 $279 40.859781302087093 $394 62.966807277607678 $175 $396 forward 7 unknown #
coedge $-1 $176 $386 $392 $397 forward $277 $-1 #
loop $-1 $-1 $386 $265 #
vertex $-1 $274 $398 #
vertex $-1 $177 $399 #
straight-curve $-1 22.223899603265203 17.454121187405647 15.503032503813706 0 -1 0 I I #
coedge $-1 $281 $281 $-1 $400 reversed $180 $-1 #
edge $-1 $401 0 $401 6.2831853071796004 $181 $402 forward 7 unknown #
vertex $-1 $184 $403 #
ellipse-curve $-1 24.526367375765695 22.540923844467837 9.0059405005804205 0 0.5877852598018023 0.80901698891910034 1 0 0 1 I I #
coedge $-1 $285 $285 $-1 $404 reversed $187 $-1 #
edge $-1 $405 0 $405 6.2831853071796004 $188 $406 forward 7 unknown #
vertex $-1 $191 $407 #
ellipse-curve $-1 27.98006903451644 22.540923844467837 9.0059405005804205 0 0.5877852598018023 0.80901698891910034 1 0 0 1 I I #
coedge $-1 $289 $289 $-1 $408 reversed $194 $-1 #
edge $-1 $409 0 $409 6.2831853071796004 $195 $410 forward 7 unknown #
vertex $-1 $198 $411 #
ellipse-curve $-1 31.433770693267185 22.540923844467837 9.0059405005804205 0 0.5877852598018023 0.80901698891910034 1 0 0 1 I I #
face $-1 $-1 $306 $30 $-1 $412 reversed single #
loop $-1 $-1 $413 $199 #
plane-surface $-1 -46.246528519547105 0 0 1 0 0 0 0 -1 forward_v I I I I #
coedge $-1 $308 $300 $414 $415 forward $200 $-1 #
coedge $-1 $203 $202 $416 $417 forward $81 $-1 #
coedge $-1 $206 $418 $202 $299 reversed $306 $-1 #
edge $-1 $303 -46.246528519547105 $419 46.246528519547105 $298 $420 forward 7 unknown #
coedge $-1 $296 $208 $203 $301 reversed $200 $-1 #
edge $-1 $421 -46.246528519547105 $302 46.246528519547105 $300 $422 forward 7 unknown #
vertex $-1 $205 $423 #
vertex $-1 $205 $424 #
straight-curve $-1 46.246528519547105 0 15.503032503813708 0 1 0 I I #
coedge $-1 $418 $206 $211 $312 reversed $306 $-1 #
loop $-1 $-1 $206 $293 #
straight-curve $-1 46.246528519547105 31.483403638803836 0 0 0 -1 I I #
coedge $-1 $208 $296 $210 $311 reversed $200 $-1 #
straight-curve $-1 46.246528519547105 -31.483403638803836 0 0 0 -1 I I #
coedge $-1 $211 $210 $425 $426 forward $126 $-1 #
edge $-1 $213 -46.246528519547105 $427 46.246528519547105 $308 $428 forward 7 unknown #
edge $-1 $429 -46.246528519547105 $212 46.246528519547105 $305 $430 forward 7 unknown #
point $-1 46.246528519547105 31.483403638803836 -15.503032503813708 #
point $-1 46.246528519547105 -31.483403638803836 -15.503032503813708 #
face $-1 $-1 $330 $31 $-1 $431 reversed single #
loop $-1 $-1 $325 $215 #
plane-surface $-1 0 0 15.503032503813708 0 0 1 1 0 0 forward_v I I I I #
coedge $-1 $432 $433 $321 $434 forward $216 $-1 #
coedge $-1 $435 $218 $220 $324 forward $134 $-1 #
coedge $-1 $218 $435 $436 $437 reversed $134 $-1 #
coedge $-1 $220 $219 $318 $434 reversed $85 $-1 #
coedge $-1 $223 $438 $219 $323 forward $330 $-1 #
edge $-1 $439 -26.011875650395488 $226 -14.457430087907746 $322 $440 forward 7 unknown #
edge $-1 $225 14.457430087907746 $441 26.011875650395488 $319 $442 forward 7 unknown #
coedge $-1 $436 $443 $221 $326 forward $316 $-1 #
edge $-1 $331 -31.483403638803836 $327 31.483403638803836 $325 $444 forward 7 unknown #
vertex $-1 $437 $445 #
straight-curve $-1 -34.692082957059363 31.483403638803836 5.8455852546615175 0 0 -1 I I #
coedge $-1 $438 $223 $443 $446 reversed $330 $-1 #
loop $-1 $-1 $223 $315 #
vertex $-1 $224 $447 #
straight-curve $-1 -34.692082957059363 -31.483403638803836 5.8455852546615175 0 0 1 I I #
point $-1 -34.692082957059363 31.483403638803836 7.8793085148323616 #
point $-1 -34.692082957059363 -31.483403638803836 7.8793085148323616 #
face $-1 $-1 $349 $32 $-1 $448 forward single #
loop $-1 $-1 $449 $228 #
plane-surface $-1 58.756818573326527 -4.1670386031296403 0 -1 0 0 0 0 1 forward_v I I I I #
coedge $-1 $340 $450 $451 $452 forward $229 $-1 #
coedge $-1 $232 $231 $453 $454 forward $89 $-1 #
coedge $-1 $345 $338 $231 $341 reversed $229 $-1 #
edge $-1 $343 -6.2551450268897142 $455 6.2551450268897142 $340 $456 forward 7 unknown #
edge $-1 $457 -6.2551450268897142 $239 6.2551450268897142 $237 $458 forward 7 unknown #
vertex $-1 $341 $459 #
straight-curve $-1 46.246528519547105 0 -15.503032503813708 0 1 0 I I #
coedge $-1 $450 $340 $234 $346 reversed $229 $-1 #
edge $-1 $350 -15.503032503813708 $343 15.503032503813708 $345 $460 forward 7 unknown #
coedge $-1 $461 $235 $238 $353 forward $349 $-1 #
coedge $-1 $235 $461 $450 $462 forward $349 $-1 #
loop $-1 $-1 $235 $335 #
vertex $-1 $236 $463 #
straight-curve $-1 46.246528519547105 0 15.503032503813708 0 -1 0 I I #
coedge $-1 $238 $237 $449 $464 reversed $141 $-1 #
edge $-1 $240 -6.2551450268897142 $465 6.2551450268897142 $238 $466 forward 7 unknown #
point $-1 46.246528519547098 -7.8567385750828613 -15.503032503813708 #
point $-1 46.246528519547098 -7.8567385750828613 15.503032503813708 #
loop $-1 $-1 $363 $242 #
plane-surface $-1 -34.692082957059363 0 11.691170509323035 -1 0 0 0 0 1 forward_v I I I I #
coedge $-1 $250 $245 $362 $467 forward $149 $-1 #
coedge $-1 $245 $250 $253 $371 reversed $149 $-1 #
coedge $-1 $468 $363 $245 $361 reversed $356 $-1 #
edge $-1 $469 25.696807169552159 $470 37.238720851926942 $245 $471 forward 7 unknown #
coedge $-1 $247 $246 $358 $467 reversed $93 $-1 #
coedge $-1 $360 $468 $247 $364 reversed $356 $-1 #
edge $-1 $470 -8.3790584163743152e-015 $366 21.780513200775708 $363 $472 forward 7 unknown #
coedge $-1 $253 $248 $468 $473 forward $243 $-1 #
vertex $-1 $473 $474 #
straight-curve $-1 -15.568402454415605 -13.012480980804991 15.503032503813708 -1 0 0 I I #
vertex $-1 $251 $475 #
straight-curve $-1 -27.581526860603056 -31.483403638803836 41.199839673365865 0 0 1 I I #
straight-curve $-1 -27.581526860603056 -31.483403638803829 3.9611188214389301 0 -0.84804809178421925 -0.52991927123019833 I I #
edge $-1 $469 -34.692082957059363 $254 -27.581526860603056 $359 $476 forward 7 unknown #
point $-1 -27.581526860603056 -31.483403638803836 15.503032503813708 #
point $-1 -27.581526860603056 -13.012480980804991 15.503032503813708 #
edge $-1 $477 1 $477 0 $257 $-1 forward 7 unknown #
vertex $-1 $258 $478 #
ellipse-curve $-1 -32.660495500928988 -21.50702243639093 8.5463560277191881 0 -0.52991927123019833 0.84804809178421925 1 0 0 1 I I #
point $-1 -31.660495500928988 -22.247942309804433 9.7320756626263254 #
edge $-1 $479 1 $479 0 $261 $-1 forward 7 unknown #
vertex $-1 $262 $480 #
ellipse-curve $-1 -29.61311431673343 -21.50702243639093 8.5463560277191881 0 -0.52991927123019833 0.84804809178421925 1 0 0 1 I I #
point $-1 -28.61311431673343 -22.247942309804433 9.7320756626263254 #
plane-surface $-1 0 0 15.503032503813708 0 0 1 1 0 0 forward_v I I I I #
coedge $-1 $393 $392 $385 $481 forward $266 $-1 #
coedge $-1 $385 $268 $270 $389 reversed $171 $-1 #
coedge $-1 $268 $384 $383 $481 reversed $171 $-1 #
coedge $-1 $276 $271 $268 $387 forward $277 $-1 #
edge $-1 $390 -3.8556771372738154 $482 14.029282451398188 $386 $483 forward 7 unknown #
coedge $-1 $270 $269 $393 $484 reversed $107 $-1 #
edge $-1 $485 -62.966807277607678 $390 -40.859781302087093 $384 $486 forward 7 unknown #
vertex $-1 $272 $487 #
straight-curve $-1 13.99003451725822 13.598444050131828 15.503032503813708 1 0 0 I I #
coedge $-1 $383 $273 $276 $397 reversed $266 $-1 #
coedge $-1 $273 $383 $388 $484 forward $266 $-1 #
vertex $-1 $274 $488 #
straight-curve $-1 22.223899603265203 31.483403638803836 57.174132086798203 0 0 1 I I #
straight-curve $-1 22.223899603265203 -19.457813186775624 39.51980967190579 0 0.80901698891910034 -0.5877852598018023 I I #
edge $-1 $482 -33.736238465767677 $278 -22.223899603265203 $392 $489 forward 7 unknown #
point $-1 22.223899603265203 31.483403638803836 15.503032503813708 #
point $-1 22.223899603265203 13.598444050131832 15.503032503813703 #
edge $-1 $490 1 $490 0 $281 $-1 forward 7 unknown #
vertex $-1 $282 $491 #
ellipse-curve $-1 24.526367375765695 20.405849990364949 6.0672635062838012 0 0.5877852598018023 0.80901698891910034 1 0 0 1 I I #
point $-1 25.526367375765695 22.540923844467855 9.0059405005804436 #
edge $-1 $492 1 $492 0 $285 $-1 forward 7 unknown #
vertex $-1 $286 $493 #
ellipse-curve $-1 27.98006903451644 20.405849990364949 6.0672635062838012 0 0.5877852598018023 0.80901698891910034 1 0 0 1 I I #
point $-1 28.98006903451644 22.540923844467855 9.0059405005804436 #
edge $-1 $494 1 $494 0 $289 $-1 forward 7 unknown #
vertex $-1 $290 $495 #
ellipse-curve $-1 31.433770693267185 20.405849990364949 6.0672635062838012 0 0.5877852598018023 0.80901698891910034 1 0 0 1 I I #
point $-1 32.433770693267185 22.540923844467855 9.0059405005804436 #
plane-surface $-1 0 31.483403638803836 0 0 -1 0 0 0 -1 forward_v I I I I #
coedge $-1 $425 $416 $418 $496 forward $294 $-1 #
coedge $-1 $416 $425 $296 $415 reversed $294 $-1 #
edge $-1 $421 -15.503032503813708 $427 15.503032503813708 $414 $497 forward 7 unknown #
coedge $-1 $413 $414 $297 $417 reversed $294 $-1 #
edge $-1 $419 -31.483403638803836 $421 31.483403638803836 $416 $498 forward 7 unknown #
coedge $-1 $298 $305 $413 $496 reversed $306 $-1 #
vertex $-1 $299 $499 #
straight-curve $-1 0 31.483403638803836 15.503032503813708 -1 0 0 I I #
vertex $-1 $417 $500 #
straight-curve $-1 0 -31.483403638803836 15.503032503813708 1 0 0 I I #
point $-1 46.246528519547105 -31.483403638803836 15.503032503813708 #
point $-1 46.246528519547105 31.483403638803836 15.503032503813708 #
coedge $-1 $414 $413 $310 $426 reversed $294 $-1 #
edge $-1 $427 -31.483403638803836 $429 31.483403638803836 $425 $501 forward 7 unknown #
vertex $-1 $426 $502 #
straight-curve $-1 0 -31.483403638803836 -15.503032503813708 -1 0 0 I I #
vertex $-1 $312 $503 #
straight-curve $-1 0 31.483403638803836 -15.503032503813708 1 0 0 I I #
plane-surface $-1 0 -31.483403638803836 0 0 1 0 0 0 1 forward_v I I I I #
coedge $-1 $504 $318 $438 $505 reversed $216 $-1 #
coedge $-1 $318 $504 $435 $506 forward $216 $-1 #
edge $-1 $441 -31.483403638803836 $439 31.483403638803836 $318 $507 forward 7 unknown #
coedge $-1 $320 $319 $433 $506 reversed $134 $-1 #
coedge $-1 $508 $325 $320 $437 forward $316 $-1 #
edge $-1 $327 34.692082957059363 $509 46.246528519547105 $320 $510 forward 7 unknown #
coedge $-1 $322 $329 $432 $505 forward $330 $-1 #
vertex $-1 $434 $511 #
straight-curve $-1 -20.234652869151617 -31.483403638803836 7.8793085148323616 1 0 0 I I #
vertex $-1 $434 $512 #
straight-curve $-1 -20.234652869151617 31.483403638803836 7.8793085148323616 -1 0 0 I I #
coedge $-1 $325 $508 $329 $446 forward $316 $-1 #
straight-curve $-1 -34.692082957059363 0 15.503032503813708 0 1 0 I I #
point $-1 -34.692082957059363 31.483403638803836 15.503032503813708 #
edge $-1 $513 -46.246528519547105 $331 -34.692082957059363 $329 $514 forward 7 unknown #
point $-1 -34.692082957059363 -31.483403638803836 15.503032503813708 #
plane-surface $-1 0 0 15.503032503813708 0 0 1 1 0 0 forward_v I I I I #
coedge $-1 $453 $515 $352 $464 forward $336 $-1 #
coedge $-1 $338 $345 $348 $462 reversed $229 $-1 #
coedge $-1 $515 $453 $338 $452 reversed $336 $-1 #
edge $-1 $516 -15.503032503813708 $455 15.503032503813708 $451 $517 forward 7 unknown #
coedge $-1 $451 $449 $339 $454 reversed $336 $-1 #
edge $-1 $455 -3.6896999719532211 $457 3.6896999719532211 $453 $518 forward 7 unknown #
vertex $-1 $454 $519 #
straight-curve $-1 52.501673546436813 -0.47733863117641917 -15.503032503813708 1 0 0 I I #
vertex $-1 $464 $520 #
straight-curve $-1 52.501673546436813 -7.8567385750828613 -15.503032503813708 -1 0 0 I I #
point $-1 46.246528519547098 -0.47733863117641917 -15.503032503813708 #
straight-curve $-1 46.246528519547105 -0.47733863117641917 0 0 0 -1 I I #
coedge $-1 $348 $347 $515 $521 forward $349 $-1 #
edge $-1 $516 -6.2551450268897142 $350 6.2551450268897142 $450 $522 forward 7 unknown #
point $-1 46.246528519547098 -0.47733863117641917 15.503032503813708 #
edge $-1 $465 -15.503032503813708 $457 15.503032503813708 $449 $523 forward 7 unknown #
vertex $-1 $521 $524 #
straight-curve $-1 52.501673546436813 -7.8567385750828613 15.503032503813708 1 0 0 I I #
edge $-1 $470 -19.123680502643758 $368 -12.013124406187451 $358 $525 forward 7 unknown #
coedge $-1 $363 $360 $365 $473 reversed $356 $-1 #
vertex $-1 $371 $526 #
vertex $-1 $361 $527 #
straight-curve $-1 -34.692082957059363 -31.483403638803836 41.199839673365865 0 0 -1 I I #
straight-curve $-1 -34.692082957059363 -31.483403638803829 3.9611188214389301 0 0.84804809178421925 0.52991927123019833 I I #
edge $-1 $366 13.012480980804993 $469 31.483403638803836 $365 $528 forward 7 unknown #
point $-1 -34.692082957059363 -13.012480980804993 15.503032503813708 #
point $-1 -27.581526860603056 -31.483403638803836 3.9611188214389257 #
straight-curve $-1 0 -31.483403638803836 15.503032503813708 1 0 0 I I #
vertex $-1 $374 $529 #
point $-1 -31.660495500928988 -21.50702243639093 8.5463560277191881 #
vertex $-1 $378 $530 #
point $-1 -28.61311431673343 -21.50702243639093 8.5463560277191881 #
edge $-1 $482 41.671099582984496 $485 54.665283589451057 $383 $531 forward 7 unknown #
vertex $-1 $397 $532 #
straight-curve $-1 33.736238465767677 17.454121187405647 15.503032503813706 0 1 0 I I #
edge $-1 $485 -19.746203948509457 $394 -8.2338650860069826 $393 $533 forward 7 unknown #
vertex $-1 $484 $534 #
straight-curve $-1 33.736238465767677 -19.457813186775624 39.51980967190579 0 -0.80901698891910034 0.5877852598018023 I I #
point $-1 33.736238465767677 13.598444050131832 15.503032503813703 #
point $-1 22.223899603265203 31.483403638803836 2.5088484973471452 #
straight-curve $-1 0 31.483403638803836 15.503032503813708 -1 0 0 I I #
vertex $-1 $400 $535 #
point $-1 25.526367375765695 20.405849990364949 6.0672635062838012 #
vertex $-1 $404 $536 #
point $-1 28.98006903451644 20.405849990364949 6.0672635062838012 #
vertex $-1 $408 $537 #
point $-1 32.433770693267185 20.405849990364949 6.0672635062838012 #
edge $-1 $419 -15.503032503813708 $429 15.503032503813708 $418 $538 forward 7 unknown #
straight-curve $-1 -46.246528519547105 -31.483403638803836 0 0 0 -1 I I #
straight-curve $-1 -46.246528519547105 0 15.503032503813708 0 -1 0 I I #
point $-1 -46.246528519547105 31.483403638803836 15.503032503813708 #
point $-1 -46.246528519547105 -31.483403638803836 15.503032503813708 #
straight-curve $-1 -46.246528519547105 0 -15.503032503813708 0 1 0 I I #
point $-1 -46.246528519547105 -31.483403638803836 -15.503032503813708 #
point $-1 -46.246528519547105 31.483403638803836 -15.503032503813708 #
coedge $-1 $433 $432 $508 $539 reversed $216 $-1 #
edge $-1 $513 -15.503032503813708 $439 -7.8793085148323616 $432 $540 forward 7 unknown #
edge $-1 $509 -15.503032503813708 $441 -7.8793085148323616 $435 $541 forward 7 unknown #
straight-curve $-1 -46.246528519547105 0 7.8793085148323616 0 -1 0 I I #
coedge $-1 $443 $436 $504 $539 forward $316 $-1 #
vertex $-1 $437 $542 #
straight-curve $-1 0 31.483403638803836 15.503032503813708 -1 0 0 I I #
point $-1 -46.246528519547105 -31.483403638803836 7.8793085148323616 #
point $-1 -46.246528519547105 31.483403638803836 7.8793085148323616 #
vertex $-1 $539 $543 #
straight-curve $-1 0 -31.483403638803836 15.503032503813708 1 0 0 I I #
coedge $-1 $449 $451 $461 $521 reversed $336 $-1 #
vertex $-1 $521 $544 #
straight-curve $-1 58.756818573326527 -0.47733863117641917 0 0 0 -1 I I #
straight-curve $-1 58.756818573326527 -4.1670386031296403 -15.503032503813708 0 -1 0 I I #
point $-1 58.756818573326527 -0.47733863117641917 -15.503032503813708 #
point $-1 58.756818573326527 -7.8567385750828613 -15.503032503813708 #
edge $-1 $465 -3.6896999719532211 $516 3.6896999719532211 $515 $545 forward 7 unknown #
straight-curve $-1 52.501673546436813 -0.47733863117641917 15.503032503813708 -1 0 0 I I #
straight-curve $-1 58.756818573326527 -7.8567385750828613 0 0 0 -1 I I #
point $-1 58.756818573326527 -7.8567385750828613 15.503032503813708 #
straight-curve $-1 -15.568402454415605 -31.483403638803836 3.9611188214389279 1 0 0 I I #
point $-1 -34.692082957059363 -31.483403638803836 15.503032503813708 #
point $-1 -34.692082957059363 -31.483403638803836 3.9611188214389257 #
straight-curve $-1 -34.692082957059363 0 15.503032503813708 0 -1 0 I I #
point $-1 -32.660495500928988 -20.977103165160731 7.6983079359349693 #
point $-1 -29.61311431673343 -20.977103165160731 7.6983079359349693 #
straight-curve $-1 33.736238465767677 31.483403638803836 57.174132086798203 0 0 -1 I I #
point $-1 33.736238465767677 31.483403638803836 15.503032503813708 #
straight-curve $-1 13.99003451725822 31.483403638803836 2.5088484973471417 -1 0 0 I I #
point $-1 33.736238465767677 31.483403638803836 2.5088484973471452 #
point $-1 24.526367375765695 19.818064730563144 5.2582465173647002 #
point $-1 27.98006903451644 19.818064730563144 5.2582465173647002 #
point $-1 31.433770693267185 19.818064730563144 5.2582465173647002 #
straight-curve $-1 -46.246528519547105 31.483403638803836 0 0 0 -1 I I #
edge $-1 $509 -31.483403638803836 $513 31.483403638803836 $504 $546 forward 7 unknown #
straight-curve $-1 -46.246528519547105 -31.483403638803836 0 0 0 -1 I I #
straight-curve $-1 -46.246528519547105 31.483403638803836 0 0 0 -1 I I #
point $-1 -46.246528519547105 31.483403638803836 15.503032503813708 #
point $-1 -46.246528519547105 -31.483403638803836 15.503032503813708 #
point $-1 58.756818573326527 -0.47733863117641917 15.503032503813708 #
straight-curve $-1 58.756818573326527 -4.1670386031296403 15.503032503813708 0 1 0 I I #
straight-curve $-1 -46.246528519547105 0 15.503032503813708 0 -1 0 I I #
End-of-ACIS-data 