500 0 3 0           
7 Unknown 11 ACIS 5.0 NT 24 Fri Mar 26 20:37:57 1999 
-1 9.9999999999999995e-007 1e-010 
body $-1 $3 $-1 $4 #
body $-1 $5 $-1 $6 #
body $-1 $7 $-1 $8 #
lump $-1 $-1 $9 $0 #
transform $-1 1 0 0 0 1 0 0 0 1 57.649464400158692 26.997796446634577 9.3381214577952711 1 rotate no_reflect no_shear #
lump $-1 $-1 $10 $1 #
transform $-1 1 0 0 0 1 0 0 0 1 57.649464400158692 26.997796446634577 9.3381214577952711 1 rotate no_reflect no_shear #
lump $-1 $-1 $11 $2 #
transform $-1 1 0 0 0 1 0 0 0 1 57.649464400158692 26.997796446634577 9.3381214577952711 1 rotate no_reflect no_shear #
shell $-1 $-1 $-1 $12 $-1 $3 #
shell $-1 $-1 $-1 $13 $-1 $5 #
shell $-1 $-1 $-1 $14 $-1 $7 #
face $-1 $15 $16 $9 $-1 $17 forward single #
face $-1 $18 $19 $10 $-1 $20 forward single #
face $-1 $21 $22 $11 $-1 $23 forward single #
face $-1 $24 $25 $9 $-1 $26 reversed single #
loop $-1 $-1 $27 $12 #
plane-surface $-1 0 0 9.3381214577952711 0 0 1 1 0 0 forward_v I I I I #
face $-1 $28 $29 $10 $-1 $30 forward single #
loop $-1 $-1 $31 $13 #
plane-surface $-1 -57.649464400158692 0 0 1 0 0 0 0 -1 forward_v I I I I #
face $-1 $32 $33 $11 $-1 $34 reversed single #
loop $-1 $-1 $35 $14 #
plane-surface $-1 57.649464400158692 0 0 -1 0 0 0 0 1 forward_v I I I I #
face $-1 $36 $37 $9 $-1 $38 reversed single #
loop $-1 $-1 $39 $15 #
plane-surface $-1 0 0 -9.3381214577952711 0 0 1 1 0 0 forward_v I I I I #
coedge $-1 $40 $41 $42 $43 forward $16 $-1 #
face $-1 $44 $45 $10 $-1 $46 reversed single #
loop $-1 $-1 $47 $18 #
plane-surface $-1 0 0 9.3381214577952711 0 0 1 1 0 0 forward_v I I I I #
coedge $-1 $48 $49 $50 $51 forward $19 $-1 #
face $-1 $52 $53 $11 $-1 $54 reversed single #
loop $-1 $-1 $55 $21 #
plane-surface $-1 0 -26.997796446634577 0 0 1 0 0 0 1 forward_v I I I I #
coedge $-1 $56 $57 $58 $59 forward $22 $-1 #
face $-1 $60 $61 $9 $-1 $62 reversed single #
loop $-1 $-1 $63 $24 #
plane-surface $-1 0 -26.997796446634577 0 0 1 0 0 0 1 forward_v I I I I #
coedge $-1 $64 $65 $66 $67 forward $25 $-1 #
coedge $-1 $68 $27 $69 $70 forward $16 $-1 #
coedge $-1 $27 $68 $71 $72 forward $16 $-1 #
coedge $-1 $73 $74 $27 $43 reversed $75 $-1 #
edge $-1 $76 -26.997796446634577 $77 26.997796446634577 $42 $78 forward 7 unknown #
face $-1 $79 $80 $10 $-1 $81 reversed single #
loop $-1 $-1 $82 $28 #
plane-surface $-1 -64.573450480327068 -25.497796446634577 0 1 0 0 0 0 -1 forward_v I I I I #
coedge $-1 $83 $84 $48 $85 forward $29 $-1 #
coedge $-1 $86 $31 $47 $85 reversed $19 $-1 #
coedge $-1 $31 $86 $87 $88 reversed $19 $-1 #
coedge $-1 $89 $90 $31 $51 reversed $80 $-1 #
edge $-1 $91 -9.3381214577952711 $92 9.3381214577952711 $50 $93 forward 7 unknown #
face $-1 $94 $95 $11 $-1 $96 reversed single #
loop $-1 $-1 $97 $32 #
plane-surface $-1 0 0 -9.3381214577952711 0 0 1 1 0 0 forward_v I I I I #
coedge $-1 $98 $99 $100 $101 forward $33 $-1 #
coedge $-1 $100 $35 $97 $102 reversed $22 $-1 #
coedge $-1 $35 $100 $103 $104 reversed $22 $-1 #
coedge $-1 $105 $106 $35 $59 reversed $95 $-1 #
edge $-1 $107 -9.3381214577952711 $108 9.3381214577952711 $58 $109 forward 7 unknown #
face $-1 $110 $111 $9 $-1 $112 reversed single #
loop $-1 $-1 $113 $36 #
plane-surface $-1 -57.649464400158692 0 0 1 0 0 0 0 -1 forward_v I I I I #
coedge $-1 $114 $71 $115 $116 forward $37 $-1 #
coedge $-1 $117 $39 $114 $118 forward $25 $-1 #
coedge $-1 $39 $117 $119 $120 forward $25 $-1 #
coedge $-1 $74 $73 $39 $67 reversed $75 $-1 #
edge $-1 $121 -26.997796446634577 $122 26.997796446634577 $66 $123 forward 7 unknown #
coedge $-1 $41 $40 $124 $125 forward $16 $-1 #
coedge $-1 $126 $127 $40 $70 reversed $111 $-1 #
edge $-1 $77 -57.649464400158692 $128 57.649464400158692 $69 $129 forward 7 unknown #
coedge $-1 $63 $130 $41 $72 reversed $37 $-1 #
edge $-1 $131 -57.649464400158692 $76 57.649464400158692 $71 $132 forward 7 unknown #
coedge $-1 $66 $42 $130 $133 forward $75 $-1 #
coedge $-1 $42 $66 $126 $134 reversed $75 $-1 #
loop $-1 $-1 $73 $110 #
vertex $-1 $43 $135 #
vertex $-1 $43 $136 #
straight-curve $-1 57.649464400158692 0 9.3381214577952711 0 1 0 I I #
face $-1 $137 $138 $10 $-1 $139 reversed single #
loop $-1 $-1 $50 $44 #
plane-surface $-1 -61.11145744024288 -23.997796446634577 0 0 -1 0 0 0 -1 forward_v I I I I #
coedge $-1 $140 $141 $142 $143 forward $45 $-1 #
coedge $-1 $144 $47 $90 $145 forward $29 $-1 #
coedge $-1 $47 $144 $146 $147 forward $29 $-1 #
edge $-1 $148 -26.997796446634577 $92 -23.997796446634577 $47 $149 forward 7 unknown #
coedge $-1 $49 $48 $150 $151 reversed $19 $-1 #
coedge $-1 $152 $153 $49 $88 forward $138 $-1 #
edge $-1 $91 23.997796446634577 $154 26.997796446634577 $87 $155 forward 7 unknown #
coedge $-1 $142 $50 $153 $156 reversed $80 $-1 #
coedge $-1 $50 $142 $83 $145 reversed $80 $-1 #
vertex $-1 $88 $157 #
vertex $-1 $145 $158 #
straight-curve $-1 -57.649464400158692 -23.997796446634577 0 0 0 1 I I #
face $-1 $159 $160 $11 $-1 $161 reversed single #
loop $-1 $-1 $162 $52 #
plane-surface $-1 61.111457440242887 -23.997796446634577 0 0 -1 0 0 0 -1 forward_v I I I I #
coedge $-1 $163 $164 $56 $102 forward $53 $-1 #
coedge $-1 $165 $55 $164 $166 reversed $33 $-1 #
coedge $-1 $55 $165 $167 $168 reversed $33 $-1 #
coedge $-1 $57 $56 $55 $101 reversed $22 $-1 #
edge $-1 $169 -9.3381214577952711 $170 9.3381214577952711 $55 $171 forward 7 unknown #
edge $-1 $170 -26.997796446634577 $108 -23.997796446634577 $97 $172 forward 7 unknown #
coedge $-1 $167 $173 $57 $104 forward $174 $-1 #
edge $-1 $107 23.997796446634577 $169 26.997796446634577 $103 $175 forward 7 unknown #
coedge $-1 $162 $58 $173 $176 reversed $95 $-1 #
coedge $-1 $58 $162 $163 $177 reversed $95 $-1 #
vertex $-1 $104 $178 #
vertex $-1 $177 $179 #
straight-curve $-1 57.649464400158692 -23.997796446634577 0 0 0 -1 I I #
face $-1 $-1 $75 $9 $-1 $180 reversed single #
loop $-1 $-1 $126 $60 #
plane-surface $-1 0 26.997796446634577 0 0 -1 0 0 0 -1 forward_v I I I I #
coedge $-1 $181 $124 $127 $182 forward $61 $-1 #
coedge $-1 $130 $63 $64 $118 reversed $37 $-1 #
coedge $-1 $124 $181 $63 $116 reversed $61 $-1 #
edge $-1 $131 -9.3381214577952711 $183 9.3381214577952711 $115 $184 forward 7 unknown #
coedge $-1 $65 $64 $181 $185 forward $25 $-1 #
edge $-1 $122 -57.649464400158692 $183 57.649464400158692 $114 $186 forward 7 unknown #
coedge $-1 $127 $126 $65 $120 reversed $111 $-1 #
edge $-1 $187 -57.649464400158692 $121 57.649464400158692 $119 $188 forward 7 unknown #
vertex $-1 $67 $189 #
vertex $-1 $133 $190 #
straight-curve $-1 57.649464400158692 0 -9.3381214577952711 0 -1 0 I I #
coedge $-1 $113 $115 $68 $125 reversed $61 $-1 #
edge $-1 $128 -26.997796446634577 $131 26.997796446634577 $124 $191 forward 7 unknown #
coedge $-1 $119 $69 $74 $134 forward $111 $-1 #
coedge $-1 $69 $119 $113 $182 reversed $111 $-1 #
vertex $-1 $70 $192 #
straight-curve $-1 0 26.997796446634577 9.3381214577952711 -1 0 0 I I #
coedge $-1 $71 $114 $73 $133 reversed $37 $-1 #
vertex $-1 $125 $193 #
straight-curve $-1 0 -26.997796446634577 9.3381214577952711 1 0 0 I I #
edge $-1 $76 -9.3381214577952711 $122 9.3381214577952711 $73 $194 forward 7 unknown #
edge $-1 $77 -9.3381214577952711 $121 9.3381214577952711 $74 $195 forward 7 unknown #
point $-1 57.649464400158692 -26.997796446634577 9.3381214577952711 #
point $-1 57.649464400158692 26.997796446634577 9.3381214577952711 #
face $-1 $-1 $196 $10 $-1 $197 reversed single #
loop $-1 $-1 $87 $79 #
plane-surface $-1 0 0 -9.3381214577952711 0 0 1 1 0 0 forward_v I I I I #
coedge $-1 $198 $82 $199 $200 reversed $45 $-1 #
coedge $-1 $82 $198 $144 $201 reversed $45 $-1 #
coedge $-1 $90 $89 $82 $143 reversed $80 $-1 #
edge $-1 $202 -9.3381214577952711 $203 9.3381214577952711 $142 $204 forward 7 unknown #
coedge $-1 $84 $83 $141 $201 forward $29 $-1 #
edge $-1 $92 -3.4619930400841881 $202 3.4619930400841881 $90 $205 forward 7 unknown #
coedge $-1 $206 $150 $84 $147 reversed $196 $-1 #
edge $-1 $207 -64.573450480327068 $148 -57.649464400158692 $146 $208 forward 7 unknown #
vertex $-1 $151 $209 #
straight-curve $-1 -57.649464400158692 0 9.3381214577952711 0 1 0 I I #
coedge $-1 $146 $210 $86 $151 forward $196 $-1 #
edge $-1 $154 -9.3381214577952711 $148 9.3381214577952711 $150 $211 forward 7 unknown #
coedge $-1 $199 $87 $210 $212 forward $138 $-1 #
coedge $-1 $87 $199 $89 $156 forward $138 $-1 #
vertex $-1 $212 $213 #
straight-curve $-1 -57.649464400158692 0 -9.3381214577952711 0 -1 0 I I #
edge $-1 $203 -3.4619930400841881 $91 3.4619930400841881 $89 $214 forward 7 unknown #
point $-1 -57.649464400158692 -23.997796446634577 -9.3381214577952711 #
point $-1 -57.649464400158692 -23.997796446634577 9.3381214577952711 #
face $-1 $-1 $174 $11 $-1 $215 forward single #
loop $-1 $-1 $216 $94 #
plane-surface $-1 64.573450480327068 -25.497796446634577 0 -1 0 0 0 0 1 forward_v I I I I #
coedge $-1 $106 $105 $217 $218 forward $95 $-1 #
coedge $-1 $219 $97 $106 $177 forward $53 $-1 #
coedge $-1 $97 $219 $98 $166 forward $53 $-1 #
coedge $-1 $99 $98 $216 $220 reversed $33 $-1 #
edge $-1 $221 -3.461993040084181 $170 3.4619930400841952 $98 $222 forward 7 unknown #
coedge $-1 $223 $103 $99 $168 forward $174 $-1 #
edge $-1 $169 -3.4619930400841952 $224 3.461993040084181 $99 $225 forward 7 unknown #
vertex $-1 $168 $226 #
vertex $-1 $102 $227 #
straight-curve $-1 57.649464400158692 -26.997796446634577 0 0 0 -1 I I #
straight-curve $-1 57.649464400158692 0 -9.3381214577952711 0 1 0 I I #
coedge $-1 $103 $223 $105 $176 forward $174 $-1 #
loop $-1 $-1 $103 $159 #
straight-curve $-1 57.649464400158692 0 9.3381214577952711 0 -1 0 I I #
edge $-1 $228 -3.461993040084181 $107 3.4619930400841881 $105 $229 forward 7 unknown #
edge $-1 $108 -3.4619930400841881 $230 3.461993040084181 $106 $231 forward 7 unknown #
point $-1 57.649464400158699 -23.997796446634577 9.3381214577952711 #
point $-1 57.649464400158699 -23.997796446634577 -9.3381214577952711 #
plane-surface $-1 57.649464400158692 0 0 -1 0 0 0 0 1 forward_v I I I I #
coedge $-1 $115 $113 $117 $185 reversed $61 $-1 #
edge $-1 $128 -9.3381214577952711 $187 9.3381214577952711 $127 $232 forward 7 unknown #
vertex $-1 $185 $233 #
straight-curve $-1 -57.649464400158692 -26.997796446634577 0 0 0 -1 I I #
edge $-1 $183 -26.997796446634577 $187 26.997796446634577 $181 $234 forward 7 unknown #
straight-curve $-1 0 -26.997796446634577 -9.3381214577952711 -1 0 0 I I #
vertex $-1 $120 $235 #
straight-curve $-1 0 26.997796446634577 -9.3381214577952711 1 0 0 I I #
point $-1 57.649464400158692 26.997796446634577 -9.3381214577952711 #
point $-1 57.649464400158692 -26.997796446634577 -9.3381214577952711 #
straight-curve $-1 -57.649464400158692 0 9.3381214577952711 0 -1 0 I I #
point $-1 -57.649464400158692 26.997796446634577 9.3381214577952711 #
point $-1 -57.649464400158692 -26.997796446634577 9.3381214577952711 #
straight-curve $-1 57.649464400158692 -26.997796446634577 0 0 0 -1 I I #
straight-curve $-1 57.649464400158692 26.997796446634577 0 0 0 -1 I I #
loop $-1 $-1 $150 $137 #
plane-surface $-1 0 -26.997796446634577 0 0 1 0 0 0 1 forward_v I I I I #
coedge $-1 $141 $140 $206 $236 reversed $45 $-1 #
coedge $-1 $153 $152 $140 $200 forward $138 $-1 #
edge $-1 $237 -1.5 $203 1.5 $140 $238 forward 7 unknown #
edge $-1 $202 -1.5 $207 1.5 $141 $239 forward 7 unknown #
vertex $-1 $145 $240 #
vertex $-1 $156 $241 #
straight-curve $-1 -64.573450480327068 -23.997796446634577 0 0 0 -1 I I #
straight-curve $-1 -61.11145744024288 -23.997796446634577 9.3381214577952711 -1 0 0 I I #
coedge $-1 $210 $146 $198 $236 forward $196 $-1 #
vertex $-1 $201 $242 #
straight-curve $-1 0 -26.997796446634577 9.3381214577952711 1 0 0 I I #
point $-1 -57.649464400158692 -26.997796446634577 9.3381214577952711 #
coedge $-1 $150 $206 $152 $212 reversed $196 $-1 #
straight-curve $-1 -57.649464400158692 -26.997796446634577 0 0 0 1 I I #
edge $-1 $154 -3.4619930400841881 $237 3.4619930400841881 $210 $243 forward 7 unknown #
point $-1 -57.649464400158692 -26.997796446634577 -9.3381214577952711 #
straight-curve $-1 -61.11145744024288 -23.997796446634577 -9.3381214577952711 1 0 0 I I #
plane-surface $-1 0 0 9.3381214577952711 0 0 1 1 0 0 forward_v I I I I #
coedge $-1 $244 $245 $165 $220 forward $160 $-1 #
coedge $-1 $245 $244 $162 $218 reversed $160 $-1 #
edge $-1 $228 -9.3381214577952711 $230 9.3381214577952711 $217 $246 forward 7 unknown #
coedge $-1 $164 $163 $244 $247 forward $53 $-1 #
edge $-1 $224 -9.3381214577952711 $221 9.3381214577952711 $216 $248 forward 7 unknown #
vertex $-1 $220 $249 #
straight-curve $-1 61.111457440242887 -26.997796446634577 -9.3381214577952711 -1 0 0 I I #
coedge $-1 $173 $167 $245 $250 forward $174 $-1 #
vertex $-1 $250 $251 #
straight-curve $-1 61.111457440242887 -26.997796446634577 9.3381214577952711 1 0 0 I I #
point $-1 57.649464400158692 -26.997796446634577 9.3381214577952711 #
point $-1 57.649464400158692 -26.997796446634577 -9.3381214577952711 #
vertex $-1 $250 $252 #
straight-curve $-1 61.111457440242887 -23.997796446634577 9.3381214577952711 -1 0 0 I I #
vertex $-1 $247 $253 #
straight-curve $-1 61.111457440242887 -23.997796446634577 -9.3381214577952711 1 0 0 I I #
straight-curve $-1 -57.649464400158692 26.997796446634577 0 0 0 -1 I I #
point $-1 -57.649464400158692 -26.997796446634577 -9.3381214577952711 #
straight-curve $-1 -57.649464400158692 0 -9.3381214577952711 0 1 0 I I #
point $-1 -57.649464400158692 26.997796446634577 -9.3381214577952711 #
edge $-1 $207 -9.3381214577952711 $237 9.3381214577952711 $198 $254 forward 7 unknown #
vertex $-1 $200 $255 #
straight-curve $-1 -64.573450480327068 -25.497796446634577 -9.3381214577952711 0 1 0 I I #
straight-curve $-1 -64.573450480327068 -25.497796446634577 9.3381214577952711 0 -1 0 I I #
point $-1 -64.573450480327068 -23.997796446634577 9.3381214577952711 #
point $-1 -64.573450480327068 -23.997796446634577 -9.3381214577952711 #
point $-1 -64.573450480327068 -26.997796446634577 9.3381214577952711 #
straight-curve $-1 -61.11145744024288 -26.997796446634577 -9.3381214577952711 -1 0 0 I I #
coedge $-1 $217 $216 $219 $247 reversed $160 $-1 #
coedge $-1 $216 $217 $223 $250 reversed $160 $-1 #
straight-curve $-1 64.573450480327068 -23.997796446634577 0 0 0 -1 I I #
edge $-1 $230 -1.5 $221 1.5 $244 $256 forward 7 unknown #
straight-curve $-1 64.573450480327068 -26.997796446634577 0 0 0 -1 I I #
point $-1 64.573450480327068 -26.997796446634577 -9.3381214577952711 #
edge $-1 $224 -1.5 $228 1.5 $245 $257 forward 7 unknown #
point $-1 64.573450480327068 -26.997796446634577 9.3381214577952711 #
point $-1 64.573450480327068 -23.997796446634577 9.3381214577952711 #
point $-1 64.573450480327068 -23.997796446634577 -9.3381214577952711 #
straight-curve $-1 -64.573450480327068 -26.997796446634577 0 0 0 -1 I I #
point $-1 -64.573450480327068 -26.997796446634577 -9.3381214577952711 #
straight-curve $-1 64.573450480327068 -25.497796446634577 -9.3381214577952711 0 -1 0 I I #
straight-curve $-1 64.573450480327068 -25.497796446634577 9.3381214577952711 0 1 0 I I #
End-of-ACIS-data 