500 0 6 0           
7 Unknown 11 ACIS 5.0 NT 24 Thu Mar 25 21:19:34 1999 
-1 9.9999999999999995e-007 1e-010 
body $-1 $6 $-1 $7 #
body $-1 $8 $-1 $9 #
body $-1 $10 $-1 $11 #
body $-1 $12 $-1 $13 #
body $-1 $14 $-1 $15 #
body $-1 $16 $-1 $17 #
lump $-1 $-1 $18 $0 #
transform $-1 1 0 0 0 1 0 0 0 1 54.320505386516921 25.498990495076491 12.053558872534525 1 rotate no_reflect no_shear #
lump $-1 $-1 $19 $1 #
transform $-1 1 0 0 0 1 0 0 0 1 54.320505386516921 25.498990495076491 12.053558872534525 1 rotate no_reflect no_shear #
lump $-1 $-1 $20 $2 #
transform $-1 1 0 0 0 1 0 0 0 1 54.320505386516921 25.498990495076491 12.053558872534525 1 rotate no_reflect no_shear #
lump $-1 $-1 $21 $3 #
transform $-1 1 0 0 0 1 0 0 0 1 54.320505386516921 25.498990495076491 12.053558872534525 1 rotate no_reflect no_shear #
lump $-1 $-1 $22 $4 #
transform $-1 1 0 0 0 1 0 0 0 1 54.320505386516921 25.498990495076491 12.053558872534525 1 rotate no_reflect no_shear #
lump $-1 $-1 $23 $5 #
transform $-1 1 0 0 0 1 0 0 0 1 54.320505386516921 25.498990495076491 12.053558872534525 1 rotate no_reflect no_shear #
shell $-1 $-1 $-1 $24 $-1 $6 #
shell $-1 $-1 $-1 $25 $-1 $8 #
shell $-1 $-1 $-1 $26 $-1 $10 #
shell $-1 $-1 $-1 $27 $-1 $12 #
shell $-1 $-1 $-1 $28 $-1 $14 #
shell $-1 $-1 $-1 $29 $-1 $16 #
face $-1 $30 $31 $18 $-1 $32 forward single #
face $-1 $33 $34 $19 $-1 $35 reversed single #
face $-1 $36 $37 $20 $-1 $38 reversed single #
face $-1 $39 $40 $21 $-1 $41 forward single #
face $-1 $42 $43 $22 $-1 $44 reversed single #
face $-1 $45 $46 $23 $-1 $47 forward single #
face $-1 $48 $49 $18 $-1 $50 reversed single #
loop $-1 $-1 $51 $24 #
plane-surface $-1 0 0 12.053558872534525 0 0 1 1 0 0 forward_v I I I I #
face $-1 $52 $53 $19 $-1 $54 reversed single #
loop $-1 $-1 $55 $25 #
plane-surface $-1 0 -18.989914204114566 6.2150116844155807 0 0 1 1 0 0 forward_v I I I I #
face $-1 $56 $57 $20 $-1 $58 reversed single #
loop $-1 $-1 $59 $26 #
plane-surface $-1 -137.54434888429751 18.639040329318966 76.770739434227224 0 1 0 -0.7660444514056185 0 0.64278759981090561 forward_v I I I I #
face $-1 $60 $61 $21 $-1 $62 forward single #
loop $-1 $63 $64 $27 #
cone-surface $-1 -51.246780017306378 22.069015412197729 8.7174673398695255 0.7660444514056185 0 -0.64278759981090561 0.64278759981090561 0 0.7660444514056185 1 I I 0 1 1 forward I I I I #
face $-1 $65 $66 $22 $-1 $67 reversed single #
loop $-1 $-1 $68 $28 #
plane-surface $-1 -15.512589169312236 22.069015412197729 90.161488376178667 0.7660444514056185 0 0.64278759981090561 0.64278759981090561 0 -0.7660444514056185 forward_v I I I I #
face $-1 $69 $70 $23 $-1 $71 forward single #
loop $-1 $72 $73 $29 #
cone-surface $-1 51.246780017306378 22.069015412197729 8.7174673398695326 -0.7660444514056185 0 -0.64278759981090561 0.64278759981090561 0 -0.7660444514056185 1 I I 0 1 1 forward I I I I #
face $-1 $74 $75 $18 $-1 $76 reversed single #
loop $-1 $-1 $77 $30 #
plane-surface $-1 0 0 -12.053558872534525 0 0 1 1 0 0 forward_v I I I I #
coedge $-1 $78 $79 $80 $81 forward $31 $-1 #
face $-1 $82 $83 $19 $-1 $84 reversed single #
loop $-1 $-1 $85 $33 #
plane-surface $-1 0 -12.480837913152641 9.134285278475053 0 -1 0 0 0 -1 forward_v I I I I #
coedge $-1 $86 $87 $88 $89 reversed $34 $-1 #
face $-1 $90 $91 $20 $-1 $92 forward single #
loop $-1 $-1 $93 $36 #
plane-surface $-1 -54.320505386516913 22.069015412197729 6.9376448783980607 -0.7660444514056185 0 0.64278759981090561 0.64278759981090561 0 0.7660444514056185 forward_v I I I I #
coedge $-1 $94 $95 $96 $97 reversed $37 $-1 #
face $-1 $-1 $98 $21 $-1 $99 forward single #
loop $-1 $100 $101 $39 #
cone-surface $-1 -49.936413139005502 22.069015412197729 7.6179390043673063 0.7660444514056185 0 -0.64278759981090561 0.3213937999054528 0 0.38302222570280925 1 I I -0.70710678118654691 0.70710678118654813 0.5 forward I I I I #
loop $-1 $-1 $102 $27 #
coedge $-1 $64 $64 $103 $104 reversed $40 $-1 #
face $-1 $105 $106 $22 $-1 $107 forward single #
loop $-1 $-1 $108 $42 #
plane-surface $-1 67.711254328468357 18.639040329318966 159.99458293200783 0 1 0 0.7660444514056185 0 0.64278759981090561 forward_v I I I I #
coedge $-1 $109 $110 $111 $112 reversed $43 $-1 #
face $-1 $-1 $113 $23 $-1 $114 forward single #
loop $-1 $115 $116 $45 #
cone-surface $-1 49.936413139005502 22.069015412197729 7.6179390043673134 -0.7660444514056185 0 -0.64278759981090561 0.3213937999054528 0 -0.38302222570280925 1 I I -0.70710678118654691 0.70710678118654813 0.5 forward I I I I #
loop $-1 $-1 $117 $29 #
coedge $-1 $73 $73 $118 $119 reversed $46 $-1 #
face $-1 $120 $121 $18 $-1 $122 reversed single #
loop $-1 $-1 $123 $48 #
plane-surface $-1 0 -25.498990495076491 0 0 1 0 0 0 1 forward_v I I I I #
coedge $-1 $124 $125 $126 $127 forward $49 $-1 #
coedge $-1 $128 $51 $129 $130 forward $31 $-1 #
coedge $-1 $51 $128 $131 $132 forward $31 $-1 #
coedge $-1 $133 $134 $51 $81 reversed $135 $-1 #
edge $-1 $136 -25.498990495076491 $137 25.498990495076491 $80 $138 forward 7 unknown #
face $-1 $139 $140 $19 $-1 $141 reversed single #
loop $-1 $-1 $142 $52 #
plane-surface $-1 -54.320505386516921 0 0 1 0 0 0 0 -1 forward_v I I I I #
coedge $-1 $143 $144 $145 $146 reversed $53 $-1 #
coedge $-1 $147 $55 $148 $149 reversed $34 $-1 #
coedge $-1 $55 $147 $143 $150 forward $34 $-1 #
coedge $-1 $145 $151 $55 $89 forward $152 $-1 #
edge $-1 $153 -16.004033393019206 $154 -2.9858808110953579 $88 $155 forward 7 unknown #
face $-1 $156 $157 $20 $-1 $158 reversed single #
loop $-1 $-1 $96 $56 #
plane-surface $-1 0 0 12.053558872534525 0 0 1 1 0 0 forward_v I I I I #
coedge $-1 $159 $160 $161 $162 reversed $57 $-1 #
coedge $-1 $95 $59 $163 $164 reversed $37 $-1 #
coedge $-1 $59 $94 $159 $165 reversed $37 $-1 #
coedge $-1 $161 $166 $59 $97 forward $91 $-1 #
edge $-1 $167 14.451669055631832 $168 18.744430488856786 $96 $169 forward 7 unknown #
loop $-1 $-1 $103 $60 #
plane-surface $-1 -54.320505386516913 22.069015412197729 6.9376448783980607 -0.7660444514056185 0 0.64278759981090561 0.64278759981090561 0 0.7660444514056185 forward_v I I I I #
loop $-1 $-1 $170 $39 #
coedge $-1 $101 $101 $102 $171 reversed $61 $-1 #
coedge $-1 $102 $102 $101 $171 forward $63 $-1 #
coedge $-1 $103 $103 $64 $104 forward $98 $-1 #
edge $-1 $172 0 $172 6.2831853071796004 $103 $173 forward 7 unknown #
face $-1 $174 $175 $22 $-1 $176 reversed single #
loop $-1 $-1 $111 $65 #
plane-surface $-1 0 0 12.053558872534525 0 0 1 1 0 0 forward_v I I I I #
coedge $-1 $177 $178 $179 $180 reversed $66 $-1 #
coedge $-1 $181 $68 $182 $183 reversed $43 $-1 #
coedge $-1 $68 $181 $177 $184 forward $43 $-1 #
coedge $-1 $179 $185 $68 $112 forward $106 $-1 #
edge $-1 $186 -14.464482788977627 $187 -7.604532623220102 $111 $188 forward 7 unknown #
loop $-1 $-1 $118 $69 #
plane-surface $-1 -15.512589169312236 22.069015412197729 90.161488376178667 0.7660444514056185 0 0.64278759981090561 0.64278759981090561 0 -0.7660444514056185 forward_v I I I I #
loop $-1 $-1 $189 $45 #
coedge $-1 $116 $116 $117 $190 reversed $70 $-1 #
coedge $-1 $117 $117 $116 $190 forward $72 $-1 #
coedge $-1 $118 $118 $73 $119 forward $113 $-1 #
edge $-1 $191 0 $191 6.2831853071796004 $118 $192 forward 7 unknown #
face $-1 $193 $194 $18 $-1 $195 reversed single #
loop $-1 $-1 $196 $74 #
plane-surface $-1 -54.320505386516921 0 0 1 0 0 0 0 -1 forward_v I I I I #
coedge $-1 $197 $131 $198 $199 forward $75 $-1 #
coedge $-1 $200 $77 $197 $201 forward $49 $-1 #
coedge $-1 $77 $200 $202 $203 forward $49 $-1 #
coedge $-1 $134 $133 $77 $127 reversed $135 $-1 #
edge $-1 $204 -25.498990495076491 $205 25.498990495076491 $126 $206 forward 7 unknown #
coedge $-1 $79 $78 $207 $208 forward $31 $-1 #
coedge $-1 $209 $210 $78 $130 reversed $194 $-1 #
edge $-1 $137 -54.320505386516921 $211 54.320505386516921 $129 $212 forward 7 unknown #
coedge $-1 $123 $213 $79 $132 reversed $75 $-1 #
edge $-1 $214 -54.320505386516921 $136 54.320505386516921 $131 $215 forward 7 unknown #
coedge $-1 $126 $80 $213 $216 forward $135 $-1 #
coedge $-1 $80 $126 $209 $217 reversed $135 $-1 #
loop $-1 $-1 $133 $193 #
vertex $-1 $81 $218 #
vertex $-1 $81 $219 #
straight-curve $-1 54.320505386516921 0 12.053558872534525 0 1 0 I I #
face $-1 $220 $221 $19 $-1 $222 forward single #
loop $-1 $-1 $148 $82 #
plane-surface $-1 0 -25.498990495076491 0 0 1 0 0 0 1 forward_v I I I I #
coedge $-1 $223 $224 $225 $226 forward $83 $-1 #
coedge $-1 $225 $85 $87 $150 reversed $53 $-1 #
coedge $-1 $85 $225 $227 $228 reversed $53 $-1 #
coedge $-1 $229 $88 $85 $146 forward $152 $-1 #
edge $-1 $154 1.6478690451780542 $230 7.4864162332969988 $145 $231 forward 7 unknown #
coedge $-1 $87 $86 $223 $232 reversed $34 $-1 #
coedge $-1 $233 $234 $86 $149 forward $140 $-1 #
edge $-1 $235 -54.320505386516921 $153 54.320505386516921 $148 $236 forward 7 unknown #
edge $-1 $237 -54.320505386516921 $154 54.320505386516921 $143 $238 forward 7 unknown #
coedge $-1 $88 $229 $233 $239 forward $152 $-1 #
loop $-1 $-1 $145 $220 #
vertex $-1 $149 $240 #
vertex $-1 $89 $241 #
straight-curve $-1 54.320505386516921 -9.4949571020572829 6.2150116844155807 0 1 0 I I #
face $-1 $-1 $242 $20 $-1 $243 reversed single #
loop $-1 $-1 $244 $90 #
plane-surface $-1 0 25.498990495076491 0 0 -1 0 0 0 -1 forward_v I I I I #
coedge $-1 $245 $93 $95 $165 forward $57 $-1 #
coedge $-1 $93 $245 $244 $246 reversed $57 $-1 #
coedge $-1 $247 $96 $93 $162 forward $91 $-1 #
edge $-1 $168 7.604532623220102 $248 14.464482788977627 $161 $249 forward 7 unknown #
coedge $-1 $250 $251 $94 $164 forward $242 $-1 #
edge $-1 $252 -31.447724838715558 $167 -26.331810844579088 $163 $253 forward 7 unknown #
edge $-1 $168 -6.6783513473000831 $252 1.1371122099518014e-014 $95 $254 forward 7 unknown #
coedge $-1 $96 $247 $250 $255 forward $91 $-1 #
vertex $-1 $164 $256 #
vertex $-1 $97 $257 #
straight-curve $-1 -68.772174442148753 18.639040329318966 12.053558872534524 1 0 0 I I #
coedge $-1 $170 $170 $-1 $258 reversed $100 $-1 #
edge $-1 $259 0 $259 6.2831853071796004 $101 $260 forward 7 unknown #
vertex $-1 $104 $261 #
ellipse-curve $-1 -52.174124669904444 22.069015412197729 9.4956018754662885 -0.7660444514056185 0 0.64278759981090561 0.64278759981090561 0 0.7660444514056185 1 I I #
face $-1 $-1 $262 $22 $-1 $263 reversed single #
loop $-1 $-1 $264 $105 #
plane-surface $-1 54.320505386516921 0 0 -1 0 0 0 0 1 forward_v I I I I #
coedge $-1 $178 $108 $110 $184 reversed $66 $-1 #
coedge $-1 $108 $177 $265 $266 reversed $66 $-1 #
coedge $-1 $267 $111 $108 $180 forward $106 $-1 #
edge $-1 $187 16.17211678905781 $268 20.464878222282742 $179 $269 forward 7 unknown #
coedge $-1 $110 $109 $264 $270 reversed $43 $-1 #
coedge $-1 $271 $272 $109 $183 forward $262 $-1 #
edge $-1 $273 -69.121506843014473 $186 -62.443155495714421 $182 $274 forward 7 unknown #
edge $-1 $275 -108.64101077303384 $187 -101.9626594257338 $177 $276 forward 7 unknown #
coedge $-1 $111 $267 $271 $277 forward $106 $-1 #
vertex $-1 $183 $278 #
vertex $-1 $112 $279 #
straight-curve $-1 50.027743953291981 11.034507706098864 12.053558872534524 0 -1 0 I I #
coedge $-1 $189 $189 $-1 $280 reversed $115 $-1 #
edge $-1 $281 0 $281 6.2831853071796004 $116 $282 forward 7 unknown #
vertex $-1 $119 $283 #
ellipse-curve $-1 52.174124669904451 22.069015412197729 9.495601875466301 0.7660444514056185 0 0.64278759981090561 0.64278759981090561 0 -0.7660444514056185 1 I I #
face $-1 $-1 $135 $18 $-1 $284 reversed single #
loop $-1 $-1 $209 $120 #
plane-surface $-1 0 25.498990495076491 0 0 -1 0 0 0 -1 forward_v I I I I #
coedge $-1 $285 $207 $210 $286 forward $121 $-1 #
coedge $-1 $213 $123 $124 $201 reversed $75 $-1 #
coedge $-1 $207 $285 $123 $199 reversed $121 $-1 #
edge $-1 $214 -12.053558872534525 $287 12.053558872534525 $198 $288 forward 7 unknown #
coedge $-1 $125 $124 $285 $289 forward $49 $-1 #
edge $-1 $205 -54.320505386516921 $287 54.320505386516921 $197 $290 forward 7 unknown #
coedge $-1 $210 $209 $125 $203 reversed $194 $-1 #
edge $-1 $291 -54.320505386516921 $204 54.320505386516921 $202 $292 forward 7 unknown #
vertex $-1 $127 $293 #
vertex $-1 $216 $294 #
straight-curve $-1 54.320505386516921 0 -12.053558872534525 0 -1 0 I I #
coedge $-1 $196 $198 $128 $208 reversed $121 $-1 #
edge $-1 $211 -25.498990495076491 $214 25.498990495076491 $207 $295 forward 7 unknown #
coedge $-1 $202 $129 $134 $217 forward $194 $-1 #
coedge $-1 $129 $202 $196 $286 reversed $194 $-1 #
vertex $-1 $130 $296 #
straight-curve $-1 0 25.498990495076491 12.053558872534525 -1 0 0 I I #
coedge $-1 $131 $197 $133 $216 reversed $75 $-1 #
vertex $-1 $208 $297 #
straight-curve $-1 0 -25.498990495076491 12.053558872534525 1 0 0 I I #
edge $-1 $136 -12.053558872534525 $205 12.053558872534525 $133 $298 forward 7 unknown #
edge $-1 $137 -12.053558872534525 $204 12.053558872534525 $134 $299 forward 7 unknown #
point $-1 54.320505386516921 -25.498990495076491 12.053558872534525 #
point $-1 54.320505386516921 25.498990495076491 12.053558872534525 #
face $-1 $-1 $152 $19 $-1 $300 reversed single #
loop $-1 $-1 $227 $139 #
plane-surface $-1 0 0 12.053558872534525 0 0 1 1 0 0 forward_v I I I I #
coedge $-1 $301 $142 $147 $232 forward $83 $-1 #
coedge $-1 $142 $301 $302 $303 reversed $83 $-1 #
coedge $-1 $144 $143 $142 $226 reversed $53 $-1 #
edge $-1 $304 -7.4864162332969988 $237 -1.6478690451780542 $142 $305 forward 7 unknown #
coedge $-1 $302 $306 $144 $228 forward $221 $-1 #
edge $-1 $230 -54.320505386516921 $304 54.320505386516921 $227 $307 forward 7 unknown #
coedge $-1 $151 $145 $306 $308 reversed $152 $-1 #
vertex $-1 $146 $309 #
straight-curve $-1 54.320505386516921 -12.480837913152641 4.5671426392375265 0 0 1 I I #
edge $-1 $237 2.9858808110953579 $235 16.004033393019206 $223 $310 forward 7 unknown #
coedge $-1 $311 $148 $151 $239 reversed $140 $-1 #
coedge $-1 $148 $311 $301 $312 forward $140 $-1 #
vertex $-1 $149 $313 #
straight-curve $-1 0 -25.498990495076491 6.2150116844155807 1 0 0 I I #
vertex $-1 $232 $314 #
straight-curve $-1 0 -12.480837913152641 6.2150116844155807 1 0 0 I I #
edge $-1 $315 -12.053558872534525 $153 -6.2150116844155807 $151 $316 forward 7 unknown #
point $-1 54.320505386516921 -25.498990495076491 6.2150116844155807 #
point $-1 54.320505386516921 -12.480837913152641 6.2150116844155807 #
loop $-1 $-1 $163 $156 #
plane-surface $-1 -54.320505386516921 0 0 1 0 0 0 0 -1 forward_v I I I I #
coedge $-1 $317 $318 $160 $246 forward $157 $-1 #
coedge $-1 $160 $159 $251 $319 reversed $57 $-1 #
edge $-1 $248 8.1226501091974903 $320 14.801001456497586 $244 $321 forward 7 unknown #
coedge $-1 $166 $161 $318 $322 forward $91 $-1 #
vertex $-1 $322 $323 #
straight-curve $-1 -50.02774395329196 11.034507706098864 12.053558872534525 0 1 0 I I #
coedge $-1 $324 $163 $166 $255 reversed $242 $-1 #
coedge $-1 $163 $324 $245 $319 forward $242 $-1 #
vertex $-1 $164 $325 #
straight-curve $-1 -54.320505386516921 18.639040329318966 38.385369717113612 0 0 1 I I #
straight-curve $-1 -54.320505386516913 18.639040329318966 6.9376448783980607 -0.64278759981090561 0 -0.7660444514056185 I I #
edge $-1 $326 -25.498990495076491 $167 -18.639040329318966 $250 $327 forward 7 unknown #
point $-1 -54.320505386516921 18.639040329318966 12.053558872534525 #
point $-1 -50.027743953291967 18.639040329318966 12.053558872534525 #
edge $-1 $328 1 $328 0 $170 $-1 forward 7 unknown #
vertex $-1 $171 $329 #
ellipse-curve $-1 -50.319435364708312 22.069015412197729 7.9393328042727598 -0.7660444514056185 0 0.64278759981090561 0.64278759981090561 0 0.7660444514056185 1 I I #
point $-1 -51.531337070093542 22.069015412197729 10.261646326871912 #
loop $-1 $-1 $182 $174 #
plane-surface $-1 0 25.498990495076491 0 0 -1 0 0 0 -1 forward_v I I I I #
coedge $-1 $330 $265 $181 $270 forward $175 $-1 #
coedge $-1 $264 $331 $178 $266 forward $175 $-1 #
edge $-1 $268 67.943732593469392 $275 73.059646587605826 $265 $332 forward 7 unknown #
coedge $-1 $185 $179 $331 $333 forward $106 $-1 #
vertex $-1 $333 $334 #
straight-curve $-1 33.855627164234178 18.639040329318966 12.053558872534524 1 0 0 I I #
edge $-1 $275 7.604532623220102 $273 14.464482788977627 $264 $335 forward 7 unknown #
coedge $-1 $272 $182 $185 $277 reversed $262 $-1 #
coedge $-1 $182 $271 $330 $336 forward $262 $-1 #
vertex $-1 $183 $337 #
straight-curve $-1 9.8900579075825519 25.498990495076491 59.887791668284805 -0.64278759981090572 0 0.76604445140561861 I I #
vertex $-1 $270 $338 #
straight-curve $-1 -15.512589169312236 18.639040329318966 90.161488376178667 -0.64278759981090561 0 0.7660444514056185 I I #
edge $-1 $339 -54.320505386516921 $186 -50.027743953291989 $271 $340 forward 7 unknown #
point $-1 50.027743953291989 25.498990495076491 12.053558872534524 #
point $-1 50.027743953291989 18.639040329318966 12.053558872534524 #
edge $-1 $341 1 $341 0 $189 $-1 forward 7 unknown #
vertex $-1 $190 $342 #
ellipse-curve $-1 50.319435364708312 22.069015412197729 7.9393328042727669 0.7660444514056185 0 0.64278759981090561 0.64278759981090561 0 -0.7660444514056185 1 I I #
point $-1 52.816912269715353 22.069015412197729 8.7295574240606815 #
plane-surface $-1 54.320505386516921 0 0 -1 0 0 0 0 1 forward_v I I I I #
coedge $-1 $198 $196 $200 $289 reversed $121 $-1 #
edge $-1 $211 -12.053558872534525 $291 12.053558872534525 $210 $343 forward 7 unknown #
vertex $-1 $289 $344 #
straight-curve $-1 -54.320505386516921 -25.498990495076491 0 0 0 -1 I I #
edge $-1 $287 -25.498990495076491 $291 25.498990495076491 $285 $345 forward 7 unknown #
straight-curve $-1 0 -25.498990495076491 -12.053558872534525 -1 0 0 I I #
vertex $-1 $203 $346 #
straight-curve $-1 0 25.498990495076491 -12.053558872534525 1 0 0 I I #
point $-1 54.320505386516921 25.498990495076491 -12.053558872534525 #
point $-1 54.320505386516921 -25.498990495076491 -12.053558872534525 #
straight-curve $-1 -54.320505386516921 0 12.053558872534525 0 -1 0 I I #
point $-1 -54.320505386516921 25.498990495076491 12.053558872534525 #
point $-1 -54.320505386516921 -25.498990495076491 12.053558872534525 #
straight-curve $-1 54.320505386516921 -25.498990495076491 0 0 0 -1 I I #
straight-curve $-1 54.320505386516921 25.498990495076491 0 0 0 -1 I I #
plane-surface $-1 54.320505386516921 0 0 -1 0 0 0 0 1 forward_v I I I I #
coedge $-1 $224 $223 $234 $312 reversed $83 $-1 #
coedge $-1 $347 $227 $224 $303 forward $221 $-1 #
edge $-1 $304 12.480837913152641 $348 25.498990495076491 $224 $349 forward 7 unknown #
vertex $-1 $303 $350 #
straight-curve $-1 -54.320505386516921 -12.480837913152641 4.5671426392375265 0 0 -1 I I #
coedge $-1 $227 $347 $229 $308 forward $221 $-1 #
straight-curve $-1 0 -12.480837913152641 12.053558872534525 -1 0 0 I I #
edge $-1 $315 -25.498990495076491 $230 -12.480837913152641 $229 $351 forward 7 unknown #
point $-1 54.320505386516921 -12.480837913152641 12.053558872534525 #
straight-curve $-1 -54.320505386516921 -9.4949571020572829 6.2150116844155807 0 -1 0 I I #
coedge $-1 $234 $233 $347 $352 reversed $140 $-1 #
edge $-1 $348 -12.053558872534525 $235 -6.2150116844155807 $301 $353 forward 7 unknown #
point $-1 -54.320505386516921 -25.498990495076491 6.2150116844155807 #
point $-1 -54.320505386516921 -12.480837913152641 6.2150116844155807 #
vertex $-1 $308 $354 #
straight-curve $-1 54.320505386516921 -25.498990495076491 0 0 0 -1 I I #
coedge $-1 $318 $244 $324 $355 reversed $157 $-1 #
coedge $-1 $244 $317 $247 $322 reversed $157 $-1 #
edge $-1 $320 -14.464482788977627 $252 -7.604532623220102 $251 $356 forward 7 unknown #
vertex $-1 $246 $357 #
straight-curve $-1 -44.806605185497119 25.498990495076491 18.275869919394502 -0.64278759981090572 0 -0.76604445140561861 I I #
edge $-1 $248 50.027743953291967 $326 54.320505386516921 $318 $358 forward 7 unknown #
point $-1 -50.027743953291967 25.498990495076491 12.053558872534525 #
coedge $-1 $251 $250 $317 $355 forward $242 $-1 #
point $-1 -54.320505386516921 18.639040329318966 6.9376448783980518 #
vertex $-1 $322 $359 #
straight-curve $-1 -54.320505386516921 0 12.053558872534525 0 -1 0 I I #
vertex $-1 $258 $360 #
point $-1 -49.676647764897403 22.069015412197729 8.7053772556783784 #
coedge $-1 $331 $264 $272 $336 reversed $175 $-1 #
coedge $-1 $265 $330 $267 $333 reversed $175 $-1 #
straight-curve $-1 54.320505386516921 18.639040329318966 79.997291466003915 0 0 -1 I I #
edge $-1 $268 18.639040329318966 $339 25.498990495076491 $331 $361 forward 7 unknown #
point $-1 54.320505386516921 18.639040329318966 12.053558872534525 #
straight-curve $-1 54.320505386516928 11.034507706098864 6.937644878398082 0 1 0 I I #
edge $-1 $339 -12.053558872534525 $273 -6.9376448783980891 $330 $362 forward 7 unknown #
point $-1 54.320505386516913 25.498990495076491 6.9376448783980891 #
point $-1 54.320505386516913 18.639040329318966 6.9376448783980891 #
vertex $-1 $333 $363 #
straight-curve $-1 0 25.498990495076491 12.053558872534525 -1 0 0 I I #
vertex $-1 $280 $364 #
point $-1 50.962222964519221 22.069015412197729 7.1732883528671483 #
straight-curve $-1 -54.320505386516921 25.498990495076491 0 0 0 -1 I I #
point $-1 -54.320505386516921 -25.498990495076491 -12.053558872534525 #
straight-curve $-1 -54.320505386516921 0 -12.053558872534525 0 1 0 I I #
point $-1 -54.320505386516921 25.498990495076491 -12.053558872534525 #
coedge $-1 $306 $302 $311 $352 forward $221 $-1 #
vertex $-1 $303 $365 #
straight-curve $-1 -54.320505386516921 0 12.053558872534525 0 -1 0 I I #
point $-1 -54.320505386516921 -12.480837913152641 12.053558872534525 #
straight-curve $-1 54.320505386516921 0 12.053558872534525 0 1 0 I I #
edge $-1 $348 -54.320505386516921 $315 54.320505386516921 $311 $366 forward 7 unknown #
straight-curve $-1 -54.320505386516921 -25.498990495076491 0 0 0 -1 I I #
point $-1 54.320505386516921 -25.498990495076491 12.053558872534525 #
edge $-1 $326 -12.053558872534525 $320 -6.9376448783980518 $317 $367 forward 7 unknown #
straight-curve $-1 -54.320505386516921 11.034507706098864 6.9376448783980518 0 -1 0 I I #
point $-1 -54.320505386516921 25.498990495076491 6.9376448783980518 #
straight-curve $-1 0 25.498990495076491 12.053558872534525 -1 0 0 I I #
point $-1 -54.320505386516921 25.498990495076491 12.053558872534525 #
point $-1 -49.553390913302692 22.069015412197729 7.2965452044618528 #
straight-curve $-1 54.320505386516921 0 12.053558872534525 0 1 0 I I #
straight-curve $-1 54.320505386516921 25.498990495076491 0 0 0 -1 I I #
point $-1 54.320505386516921 25.498990495076491 12.053558872534525 #
point $-1 49.553390913302692 22.069015412197729 7.2965452044618599 #
point $-1 -54.320505386516921 -25.498990495076491 12.053558872534525 #
straight-curve $-1 0 -25.498990495076491 12.053558872534525 1 0 0 I I #
straight-curve $-1 -54.320505386516921 25.498990495076491 0 0 0 -1 I I #
End-of-ACIS-data 