500 0 12 0           
7 Unknown 11 ACIS 5.0 NT 24 Thu Mar 25 15:51:35 1999 
-1 9.9999999999999995e-007 1e-010 
body $-1 $12 $-1 $13 #
body $-1 $14 $-1 $15 #
body $-1 $16 $-1 $17 #
body $-1 $18 $-1 $19 #
body $-1 $20 $-1 $21 #
body $-1 $22 $-1 $23 #
body $-1 $24 $-1 $25 #
body $-1 $26 $-1 $27 #
body $-1 $28 $-1 $29 #
body $-1 $30 $-1 $31 #
body $-1 $32 $-1 $33 #
body $-1 $34 $-1 $35 #
lump $-1 $-1 $36 $0 #
transform $-1 1 0 0 0 1 0 0 0 1 79.113742484817038 34.502254710777173 14.346544402427412 1 rotate no_reflect no_shear #
lump $-1 $-1 $37 $1 #
transform $-1 1 0 0 0 1 0 0 0 1 79.113742484817038 34.502254710777173 14.346544402427412 1 rotate no_reflect no_shear #
lump $-1 $-1 $38 $2 #
transform $-1 1 0 0 0 1 0 0 0 1 79.113742484817038 34.502254710777173 14.346544402427412 1 rotate no_reflect no_shear #
lump $-1 $-1 $39 $3 #
transform $-1 1 0 0 0 1 0 0 0 1 79.113742484817038 34.502254710777173 14.346544402427412 1 rotate no_reflect no_shear #
lump $-1 $-1 $40 $4 #
transform $-1 1 0 0 0 1 0 0 0 1 79.113742484817038 34.502254710777173 14.346544402427412 1 rotate no_reflect no_shear #
lump $-1 $-1 $41 $5 #
transform $-1 1 0 0 0 1 0 0 0 1 79.113742484817038 34.502254710777173 14.346544402427412 1 rotate no_reflect no_shear #
lump $-1 $-1 $42 $6 #
transform $-1 1 0 0 0 1 0 0 0 1 79.113742484817038 34.502254710777173 14.346544402427412 1 rotate no_reflect no_shear #
lump $-1 $-1 $43 $7 #
transform $-1 1 0 0 0 1 0 0 0 1 79.113742484817038 34.502254710777173 14.346544402427412 1 rotate no_reflect no_shear #
lump $-1 $-1 $44 $8 #
transform $-1 1 0 0 0 1 0 0 0 1 79.113742484817038 34.502254710777173 14.346544402427412 1 rotate no_reflect no_shear #
lump $-1 $-1 $45 $9 #
transform $-1 1 0 0 0 1 0 0 0 1 79.113742484817038 34.502254710777173 14.346544402427412 1 rotate no_reflect no_shear #
lump $-1 $-1 $46 $10 #
transform $-1 1 0 0 0 1 0 0 0 1 79.113742484817038 34.502254710777173 14.346544402427412 1 rotate no_reflect no_shear #
lump $-1 $-1 $47 $11 #
transform $-1 1 0 0 0 1 0 0 0 1 79.113742484817038 34.502254710777173 14.346544402427412 1 rotate no_reflect no_shear #
shell $-1 $-1 $-1 $48 $-1 $12 #
shell $-1 $-1 $-1 $49 $-1 $14 #
shell $-1 $-1 $-1 $50 $-1 $16 #
shell $-1 $-1 $-1 $51 $-1 $18 #
shell $-1 $-1 $-1 $52 $-1 $20 #
shell $-1 $-1 $-1 $53 $-1 $22 #
shell $-1 $-1 $-1 $54 $-1 $24 #
shell $-1 $-1 $-1 $55 $-1 $26 #
shell $-1 $-1 $-1 $56 $-1 $28 #
shell $-1 $-1 $-1 $57 $-1 $30 #
shell $-1 $-1 $-1 $58 $-1 $32 #
shell $-1 $-1 $-1 $59 $-1 $34 #
face $-1 $60 $61 $36 $-1 $62 forward single #
face $-1 $63 $64 $37 $-1 $65 forward single #
face $-1 $66 $67 $38 $-1 $68 forward single #
face $-1 $69 $70 $39 $-1 $71 reversed single #
face $-1 $72 $73 $40 $-1 $74 forward single #
face $-1 $75 $76 $41 $-1 $77 forward single #
face $-1 $78 $79 $42 $-1 $80 reversed single #
face $-1 $81 $82 $43 $-1 $83 forward single #
face $-1 $84 $85 $44 $-1 $86 forward single #
face $-1 $87 $88 $45 $-1 $89 reversed single #
face $-1 $90 $91 $46 $-1 $92 forward single #
face $-1 $93 $94 $47 $-1 $95 forward single #
face $-1 $96 $97 $36 $-1 $98 reversed single #
loop $-1 $-1 $99 $48 #
plane-surface $-1 0 0 14.346544402427412 0 0 1 1 0 0 forward_v I I I I #
face $-1 $100 $101 $37 $-1 $102 reversed single #
loop $-1 $-1 $103 $49 #
plane-surface $-1 0 -34.502254710777173 0 0 1 0 0 0 1 forward_v I I I I #
face $-1 $104 $105 $38 $-1 $106 reversed single #
loop $-1 $-1 $107 $50 #
plane-surface $-1 0 34.502254710777173 0 0 -1 0 0 0 -1 forward_v I I I I #
face $-1 $108 $109 $39 $-1 $110 reversed single #
loop $-1 $-1 $111 $51 #
plane-surface $-1 -200.32302940567115 -14.227815806954084 112.70796890617794 0 1 0 -0.7660444514056185 0 0.64278759981090561 forward_v I I I I #
face $-1 $112 $113 $40 $-1 $114 forward single #
loop $-1 $115 $116 $52 #
cone-surface $-1 -77.327225141834006 -11.652309638589937 12.352530210523605 0.7660444514056185 0 -0.64278759981090561 0.1606968999527264 0 0.19151111285140462 1 I I 0 1 0.25 forward I I I I #
face $-1 $117 $118 $41 $-1 $119 forward single #
loop $-1 $120 $121 $53 #
cone-surface $-1 -77.327225141834006 -7.7890503860437192 12.352530210523605 0.7660444514056185 0 -0.64278759981090561 0.1606968999527264 0 0.19151111285140462 1 I I 0 1 0.25 forward I I I I #
face $-1 $122 $123 $42 $-1 $124 reversed single #
loop $-1 $-1 $125 $54 #
plane-surface $-1 -200.32302940567115 5.2135442176795692 112.70796890617794 0 1 0 -0.7660444514056185 0 0.64278759981090561 forward_v I I I I #
face $-1 $126 $127 $43 $-1 $128 forward single #
loop $-1 $129 $130 $55 #
cone-surface $-1 -77.327225141834006 7.7890503860437192 12.352530210523605 0.7660444514056185 0 -0.64278759981090561 0.1606968999527264 0 0.19151111285140462 1 I I 0 1 0.25 forward I I I I #
face $-1 $131 $132 $44 $-1 $133 forward single #
loop $-1 $134 $135 $56 #
cone-surface $-1 -77.327225141834006 11.652309638589934 12.352530210523605 0.7660444514056185 0 -0.64278759981090561 0.1606968999527264 0 0.19151111285140462 1 I I 0 1 0.25 forward I I I I #
face $-1 $136 $137 $45 $-1 $138 reversed single #
loop $-1 $-1 $139 $57 #
plane-surface $-1 86.923116759158034 18.416672870927915 228.3017615551091 0 -1 0 -0.73135370988377701 0 -0.68199835119979291 forward_v I I I I #
face $-1 $140 $141 $46 $-1 $142 forward single #
loop $-1 $143 $144 $58 #
cone-surface $-1 73.869119191503657 11.421663919939682 8.8249081339794646 -0.73135370988377701 0 -0.68199835119979291 0.68199835119979291 0 -0.73135370988377701 1 I I 0 1 1 forward I I I I #
face $-1 $145 $146 $47 $-1 $147 forward single #
loop $-1 $148 $149 $59 #
cone-surface $-1 73.869119191503657 15.618669290532623 8.8249081339794646 -0.73135370988377701 0 -0.68199835119979291 0.68199835119979291 0 -0.73135370988377701 1 I I 0 1 1 forward I I I I #
face $-1 $150 $151 $36 $-1 $152 reversed single #
loop $-1 $-1 $153 $60 #
plane-surface $-1 0 0 -14.346544402427412 0 0 1 1 0 0 forward_v I I I I #
coedge $-1 $154 $155 $156 $157 forward $61 $-1 #
face $-1 $158 $159 $37 $-1 $160 reversed single #
loop $-1 $-1 $161 $63 #
plane-surface $-1 0 0 -14.346544402427412 0 0 1 1 0 0 forward_v I I I I #
coedge $-1 $162 $163 $164 $165 forward $64 $-1 #
face $-1 $166 $167 $38 $-1 $168 reversed single #
loop $-1 $-1 $169 $66 #
plane-surface $-1 0 0 -14.346544402427412 0 0 1 1 0 0 forward_v I I I I #
coedge $-1 $170 $171 $172 $173 forward $67 $-1 #
face $-1 $174 $175 $39 $-1 $176 reversed single #
loop $-1 $-1 $177 $69 #
plane-surface $-1 -79.113742484817067 -9.7206800123168264 11.001303618430711 -0.7660444514056185 0 0.64278759981090561 0.64278759981090561 0 0.7660444514056185 forward_v I I I I #
coedge $-1 $178 $179 $180 $181 reversed $70 $-1 #
face $-1 $-1 $182 $40 $-1 $183 forward single #
loop $-1 $184 $185 $72 #
cone-surface $-1 -76.848447359705489 -11.652309638589937 11.95078796064179 0.7660444514056185 0 -0.64278759981090561 0.080348449976363201 0 0.095755556425702312 1 I I -0.70710678118654746 0.70710678118654746 0.125 forward I I I I #
loop $-1 $-1 $186 $52 #
coedge $-1 $116 $116 $187 $188 reversed $73 $-1 #
face $-1 $-1 $189 $41 $-1 $190 forward single #
loop $-1 $191 $192 $75 #
cone-surface $-1 -76.848447359705489 -7.7890503860437192 11.95078796064179 0.7660444514056185 0 -0.64278759981090561 0.080348449976363201 0 0.095755556425702312 1 I I -0.70710678118654746 0.70710678118654746 0.125 forward I I I I #
loop $-1 $-1 $193 $53 #
coedge $-1 $121 $121 $194 $195 reversed $76 $-1 #
face $-1 $196 $197 $42 $-1 $198 reversed single #
loop $-1 $-1 $199 $78 #
plane-surface $-1 -79.113742484817067 9.7206800123168264 11.001303618430711 -0.7660444514056185 0 0.64278759981090561 0.64278759981090561 0 0.7660444514056185 forward_v I I I I #
coedge $-1 $200 $201 $202 $203 reversed $79 $-1 #
face $-1 $-1 $204 $43 $-1 $205 forward single #
loop $-1 $206 $207 $81 #
cone-surface $-1 -76.848447359705489 7.7890503860437192 11.95078796064179 0.7660444514056185 0 -0.64278759981090561 0.080348449976363201 0 0.095755556425702312 1 I I -0.70710678118654746 0.70710678118654746 0.125 forward I I I I #
loop $-1 $-1 $208 $55 #
coedge $-1 $130 $130 $209 $210 reversed $82 $-1 #
face $-1 $-1 $211 $44 $-1 $212 forward single #
loop $-1 $213 $214 $84 #
cone-surface $-1 -76.848447359705489 11.652309638589934 11.95078796064179 0.7660444514056185 0 -0.64278759981090561 0.080348449976363201 0 0.095755556425702312 1 I I -0.70710678118654746 0.70710678118654746 0.125 forward I I I I #
loop $-1 $-1 $215 $56 #
coedge $-1 $135 $135 $216 $217 reversed $85 $-1 #
face $-1 $218 $219 $45 $-1 $220 reversed single #
loop $-1 $-1 $221 $87 #
plane-surface $-1 -28.797141378963417 13.520166605236149 120.39087769132864 0.73135370988377701 0 0.68199835119979291 0.68199835119979291 0 -0.73135370988377701 forward_v I I I I #
coedge $-1 $222 $223 $224 $225 reversed $88 $-1 #
face $-1 $-1 $226 $46 $-1 $227 forward single #
loop $-1 $228 $229 $90 #
cone-surface $-1 72.770291880755394 11.421663919939682 7.8002351145417066 -0.73135370988377701 0 -0.68199835119979291 0.34099917559989645 0 -0.36567685494188851 1 I I -0.70710678118654746 0.70710678118654746 0.5 forward I I I I #
loop $-1 $-1 $230 $58 #
coedge $-1 $144 $144 $231 $232 reversed $91 $-1 #
face $-1 $-1 $233 $47 $-1 $234 forward single #
loop $-1 $235 $236 $93 #
cone-surface $-1 72.770291880755394 15.618669290532623 7.8002351145417066 -0.73135370988377701 0 -0.68199835119979291 0.34099917559989645 0 -0.36567685494188851 1 I I -0.70710678118654746 0.70710678118654746 0.5 forward I I I I #
loop $-1 $-1 $237 $59 #
coedge $-1 $149 $149 $238 $239 reversed $94 $-1 #
face $-1 $240 $241 $36 $-1 $242 reversed single #
loop $-1 $-1 $243 $96 #
plane-surface $-1 0 -34.502254710777173 0 0 1 0 0 0 1 forward_v I I I I #
coedge $-1 $244 $245 $246 $247 forward $97 $-1 #
coedge $-1 $248 $99 $249 $250 forward $61 $-1 #
coedge $-1 $99 $248 $251 $252 forward $61 $-1 #
coedge $-1 $253 $254 $99 $157 reversed $255 $-1 #
edge $-1 $256 -34.502254710777173 $257 34.502254710777173 $156 $258 forward 7 unknown #
face $-1 $259 $260 $37 $-1 $261 reversed single #
loop $-1 $-1 $262 $100 #
plane-surface $-1 -52.957339196010182 -50.587836550626427 0 0 1 0 0 0 1 forward_v I I I I #
coedge $-1 $263 $264 $163 $265 forward $101 $-1 #
coedge $-1 $266 $103 $267 $268 reversed $64 $-1 #
coedge $-1 $103 $266 $161 $265 reversed $64 $-1 #
coedge $-1 $269 $270 $103 $165 reversed $260 $-1 #
edge $-1 $271 -14.346544402427412 $272 14.346544402427412 $164 $273 forward 7 unknown #
face $-1 $274 $275 $38 $-1 $276 reversed single #
loop $-1 $-1 $277 $104 #
plane-surface $-1 -55.494024712058149 42.5450456307018 0 1 0 0 0 0 -1 forward_v I I I I #
coedge $-1 $278 $279 $171 $280 forward $105 $-1 #
coedge $-1 $281 $107 $282 $283 reversed $67 $-1 #
coedge $-1 $107 $281 $169 $280 reversed $67 $-1 #
coedge $-1 $284 $285 $107 $173 reversed $286 $-1 #
edge $-1 $287 -14.346544402427412 $288 14.346544402427412 $172 $289 forward 7 unknown #
face $-1 $290 $291 $39 $-1 $292 reversed single #
loop $-1 $-1 $293 $108 #
plane-surface $-1 -200.32302940567115 -5.2135442176795692 112.70796890617794 0 -1 0 0.7660444514056185 0 -0.64278759981090561 forward_v I I I I #
coedge $-1 $294 $295 $296 $297 reversed $109 $-1 #
coedge $-1 $179 $111 $298 $299 reversed $70 $-1 #
coedge $-1 $111 $178 $294 $300 reversed $70 $-1 #
coedge $-1 $296 $301 $111 $181 forward $302 $-1 #
edge $-1 $303 21.047772218018537 $304 23.854762452578967 $180 $305 forward 7 unknown #
loop $-1 $-1 $187 $112 #
plane-surface $-1 -79.113742484817067 -9.7206800123168264 11.001303618430711 -0.7660444514056185 0 0.64278759981090561 0.64278759981090561 0 0.7660444514056185 forward_v I I I I #
loop $-1 $-1 $306 $72 #
coedge $-1 $185 $185 $186 $307 reversed $113 $-1 #
coedge $-1 $186 $186 $185 $307 forward $115 $-1 #
coedge $-1 $187 $187 $116 $188 forward $182 $-1 #
edge $-1 $308 0 $308 6.2831853071796004 $187 $309 forward 7 unknown #
loop $-1 $-1 $194 $117 #
plane-surface $-1 -79.113742484817067 -9.7206800123168264 11.001303618430711 -0.7660444514056185 0 0.64278759981090561 0.64278759981090561 0 0.7660444514056185 forward_v I I I I #
loop $-1 $-1 $310 $75 #
coedge $-1 $192 $192 $193 $311 reversed $118 $-1 #
coedge $-1 $193 $193 $192 $311 forward $120 $-1 #
coedge $-1 $194 $194 $121 $195 forward $189 $-1 #
edge $-1 $312 0 $312 6.2831853071796004 $194 $313 forward 7 unknown #
face $-1 $314 $315 $42 $-1 $316 forward single #
loop $-1 $-1 $317 $122 #
plane-surface $-1 -200.32302940567115 14.227815806954084 112.70796890617794 0 -1 0 0.7660444514056185 0 -0.64278759981090561 forward_v I I I I #
coedge $-1 $318 $319 $320 $321 reversed $123 $-1 #
coedge $-1 $201 $125 $322 $323 reversed $79 $-1 #
coedge $-1 $125 $200 $318 $324 reversed $79 $-1 #
coedge $-1 $320 $325 $125 $203 forward $315 $-1 #
edge $-1 $326 21.047772218018537 $327 23.854762452578967 $202 $328 forward 7 unknown #
loop $-1 $-1 $209 $126 #
plane-surface $-1 -79.113742484817067 9.7206800123168264 11.001303618430711 -0.7660444514056185 0 0.64278759981090561 0.64278759981090561 0 0.7660444514056185 forward_v I I I I #
loop $-1 $-1 $329 $81 #
coedge $-1 $207 $207 $208 $330 reversed $127 $-1 #
coedge $-1 $208 $208 $207 $330 forward $129 $-1 #
coedge $-1 $209 $209 $130 $210 forward $204 $-1 #
edge $-1 $331 0 $331 6.2831853071796004 $209 $332 forward 7 unknown #
loop $-1 $-1 $216 $131 #
plane-surface $-1 -79.113742484817067 9.7206800123168264 11.001303618430711 -0.7660444514056185 0 0.64278759981090561 0.64278759981090561 0 0.7660444514056185 forward_v I I I I #
loop $-1 $-1 $333 $84 #
coedge $-1 $214 $214 $215 $334 reversed $132 $-1 #
coedge $-1 $215 $215 $214 $334 forward $134 $-1 #
coedge $-1 $216 $216 $135 $217 forward $211 $-1 #
edge $-1 $335 0 $335 6.2831853071796004 $216 $336 forward 7 unknown #
face $-1 $337 $338 $45 $-1 $339 forward single #
loop $-1 $-1 $340 $136 #
plane-surface $-1 86.923116759158034 8.6236603395443829 228.3017615551091 0 1 0 0.73135370988377701 0 0.68199835119979291 forward_v I I I I #
coedge $-1 $341 $342 $343 $344 reversed $137 $-1 #
coedge $-1 $223 $139 $345 $346 reversed $88 $-1 #
coedge $-1 $139 $222 $341 $347 reversed $88 $-1 #
coedge $-1 $343 $348 $139 $225 forward $338 $-1 #
edge $-1 $349 -35.652184105238021 $350 -26.629238430223992 $224 $351 forward 7 unknown #
loop $-1 $-1 $231 $140 #
plane-surface $-1 -28.797141378963417 13.520166605236149 120.39087769132864 0.73135370988377701 0 0.68199835119979291 0.68199835119979291 0 -0.73135370988377701 forward_v I I I I #
loop $-1 $-1 $352 $90 #
coedge $-1 $229 $229 $230 $353 reversed $141 $-1 #
coedge $-1 $230 $230 $229 $353 forward $143 $-1 #
coedge $-1 $231 $231 $144 $232 forward $226 $-1 #
edge $-1 $354 0 $354 6.2831853071796004 $231 $355 forward 7 unknown #
loop $-1 $-1 $238 $145 #
plane-surface $-1 -28.797141378963417 13.520166605236149 120.39087769132864 0.73135370988377701 0 0.68199835119979291 0.68199835119979291 0 -0.73135370988377701 forward_v I I I I #
loop $-1 $-1 $356 $93 #
coedge $-1 $236 $236 $237 $357 reversed $146 $-1 #
coedge $-1 $237 $237 $236 $357 forward $148 $-1 #
coedge $-1 $238 $238 $149 $239 forward $233 $-1 #
edge $-1 $358 0 $358 6.2831853071796004 $238 $359 forward 7 unknown #
face $-1 $360 $361 $36 $-1 $362 reversed single #
loop $-1 $-1 $363 $150 #
plane-surface $-1 -79.113742484817038 0 0 1 0 0 0 0 -1 forward_v I I I I #
coedge $-1 $364 $251 $365 $366 forward $151 $-1 #
coedge $-1 $367 $153 $364 $368 forward $97 $-1 #
coedge $-1 $153 $367 $369 $370 forward $97 $-1 #
coedge $-1 $254 $253 $153 $247 reversed $255 $-1 #
edge $-1 $371 -34.502254710777173 $372 34.502254710777173 $246 $373 forward 7 unknown #
coedge $-1 $155 $154 $374 $375 forward $61 $-1 #
coedge $-1 $376 $377 $154 $250 reversed $361 $-1 #
edge $-1 $257 -79.113742484817038 $378 79.113742484817038 $249 $379 forward 7 unknown #
coedge $-1 $243 $380 $155 $252 reversed $151 $-1 #
edge $-1 $381 -79.113742484817038 $256 79.113742484817038 $251 $382 forward 7 unknown #
coedge $-1 $246 $156 $380 $383 forward $255 $-1 #
coedge $-1 $156 $246 $376 $384 reversed $255 $-1 #
loop $-1 $-1 $253 $360 #
vertex $-1 $157 $385 #
vertex $-1 $157 $386 #
straight-curve $-1 79.113742484817038 0 14.346544402427412 0 1 0 I I #
face $-1 $387 $388 $37 $-1 $389 reversed single #
loop $-1 $-1 $164 $158 #
plane-surface $-1 -55.494024712058149 -42.5450456307018 0 1 0 0 0 0 -1 forward_v I I I I #
coedge $-1 $390 $391 $392 $393 forward $159 $-1 #
coedge $-1 $394 $161 $395 $396 forward $101 $-1 #
coedge $-1 $161 $394 $269 $397 forward $101 $-1 #
edge $-1 $271 -55.494024712058149 $398 -50.420653679962214 $161 $399 forward 7 unknown #
coedge $-1 $163 $162 $400 $401 forward $64 $-1 #
coedge $-1 $402 $403 $162 $268 forward $404 $-1 #
edge $-1 $405 50.420653679962214 $272 55.494024712058149 $267 $406 forward 7 unknown #
coedge $-1 $392 $164 $264 $397 reversed $260 $-1 #
coedge $-1 $164 $392 $402 $407 reversed $260 $-1 #
vertex $-1 $265 $408 #
vertex $-1 $407 $409 #
straight-curve $-1 -55.494024712058149 -34.502254710777173 0 0 0 1 I I #
face $-1 $410 $286 $38 $-1 $411 reversed single #
loop $-1 $-1 $412 $166 #
plane-surface $-1 -52.957339196010182 50.587836550626427 0 0 -1 0 0 0 -1 forward_v I I I I #
coedge $-1 $413 $414 $415 $416 forward $167 $-1 #
coedge $-1 $417 $169 $413 $418 forward $105 $-1 #
coedge $-1 $169 $417 $284 $419 forward $105 $-1 #
edge $-1 $287 50.420653679962214 $420 55.494024712058149 $169 $421 forward 7 unknown #
coedge $-1 $171 $170 $422 $423 forward $67 $-1 #
coedge $-1 $424 $425 $170 $283 forward $426 $-1 #
edge $-1 $427 -55.494024712058149 $288 -50.420653679962214 $282 $428 forward 7 unknown #
coedge $-1 $429 $172 $279 $419 reversed $286 $-1 #
coedge $-1 $172 $429 $424 $430 reversed $286 $-1 #
loop $-1 $-1 $172 $274 #
vertex $-1 $280 $431 #
vertex $-1 $430 $432 #
straight-curve $-1 -50.420653679962214 34.502254710777173 0 0 0 1 I I #
face $-1 $-1 $302 $39 $-1 $433 forward single #
loop $-1 $-1 $434 $174 #
plane-surface $-1 -79.113742484817038 0 0 1 0 0 0 0 -1 forward_v I I I I #
coedge $-1 $435 $436 $437 $438 reversed $175 $-1 #
coedge $-1 $439 $177 $179 $300 forward $109 $-1 #
coedge $-1 $177 $439 $435 $440 forward $109 $-1 #
coedge $-1 $437 $180 $177 $297 forward $302 $-1 #
edge $-1 $304 -9.3674758007956704 $441 -0.353204211521156 $296 $442 forward 7 unknown #
coedge $-1 $443 $444 $178 $299 forward $291 $-1 #
edge $-1 $445 -45.352680834658223 $303 -42.007440050661558 $298 $446 forward 7 unknown #
edge $-1 $304 -4.3669016567622236 $445 -4.4123720097533069e-014 $179 $447 forward 7 unknown #
coedge $-1 $180 $437 $443 $448 forward $302 $-1 #
loop $-1 $-1 $437 $290 #
vertex $-1 $299 $449 #
vertex $-1 $181 $450 #
straight-curve $-1 -100.16151470283558 -14.227815806954084 14.346544402427412 1 0 0 I I #
coedge $-1 $306 $306 $-1 $451 reversed $184 $-1 #
edge $-1 $452 0 $452 6.2831853071796004 $185 $453 forward 7 unknown #
vertex $-1 $188 $454 #
ellipse-curve $-1 -77.710247367536837 -11.652309638589937 12.673924010429072 -0.7660444514056185 0 0.64278759981090561 0.1606968999527264 0 0.19151111285140462 1 I I #
coedge $-1 $310 $310 $-1 $455 reversed $191 $-1 #
edge $-1 $456 0 $456 6.2831853071796004 $192 $457 forward 7 unknown #
vertex $-1 $195 $458 #
ellipse-curve $-1 -77.710247367536837 -7.7890503860437192 12.673924010429072 -0.7660444514056185 0 0.64278759981090561 0.1606968999527264 0 0.19151111285140462 1 I I #
face $-1 $-1 $459 $42 $-1 $460 reversed single #
loop $-1 $-1 $202 $196 #
plane-surface $-1 0 0 14.346544402427412 0 0 1 1 0 0 forward_v I I I I #
coedge $-1 $461 $462 $463 $464 reversed $197 $-1 #
coedge $-1 $465 $199 $201 $324 forward $123 $-1 #
coedge $-1 $199 $465 $461 $466 forward $123 $-1 #
coedge $-1 $463 $202 $199 $321 forward $315 $-1 #
edge $-1 $327 0.353204211521156 $467 9.3674758007956704 $320 $468 forward 7 unknown #
coedge $-1 $469 $470 $200 $323 forward $459 $-1 #
edge $-1 $471 -45.352680834658223 $326 -42.007440050661558 $322 $472 forward 7 unknown #
edge $-1 $327 -4.3669016567622236 $471 -4.4123720097533069e-014 $201 $473 forward 7 unknown #
coedge $-1 $202 $463 $469 $474 forward $315 $-1 #
vertex $-1 $323 $475 #
vertex $-1 $203 $476 #
straight-curve $-1 -100.16151470283558 5.2135442176795692 14.346544402427412 1 0 0 I I #
coedge $-1 $329 $329 $-1 $477 reversed $206 $-1 #
edge $-1 $478 0 $478 6.2831853071796004 $207 $479 forward 7 unknown #
vertex $-1 $210 $480 #
ellipse-curve $-1 -77.710247367536837 7.7890503860437192 12.673924010429072 -0.7660444514056185 0 0.64278759981090561 0.1606968999527264 0 0.19151111285140462 1 I I #
coedge $-1 $333 $333 $-1 $481 reversed $213 $-1 #
edge $-1 $482 0 $482 6.2831853071796004 $214 $483 forward 7 unknown #
vertex $-1 $217 $484 #
ellipse-curve $-1 -77.710247367536837 11.652309638589934 12.673924010429072 -0.7660444514056185 0 0.64278759981090561 0.1606968999527264 0 0.19151111285140462 1 I I #
face $-1 $-1 $485 $45 $-1 $486 reversed single #
loop $-1 $-1 $224 $218 #
plane-surface $-1 0 0 14.346544402427412 0 0 1 1 0 0 forward_v I I I I #
coedge $-1 $487 $488 $489 $490 reversed $219 $-1 #
coedge $-1 $491 $221 $223 $347 forward $137 $-1 #
coedge $-1 $221 $491 $487 $492 forward $137 $-1 #
coedge $-1 $489 $224 $221 $344 forward $338 $-1 #
edge $-1 $350 -11.65658956830984 $493 -1.8635770369263085 $343 $494 forward 7 unknown #
coedge $-1 $495 $496 $222 $346 forward $485 $-1 #
edge $-1 $497 -109.48026122434736 $349 -99.804336375127136 $345 $498 forward 7 unknown #
edge $-1 $350 144.99732736127538 $497 158.22748496963408 $223 $499 forward 7 unknown #
coedge $-1 $224 $489 $495 $500 forward $338 $-1 #
vertex $-1 $225 $501 #
vertex $-1 $225 $502 #
straight-curve $-1 43.461558379579017 18.416672870927915 14.346544402427412 -1 0 0 I I #
coedge $-1 $352 $352 $-1 $503 reversed $228 $-1 #
edge $-1 $504 0 $504 6.2831853071796004 $229 $505 forward 7 unknown #
vertex $-1 $232 $506 #
ellipse-curve $-1 74.60226964731001 11.421663919939682 9.5085819778173057 0.73135370988377701 0 0.68199835119979291 0.68199835119979291 0 -0.73135370988377701 1 I I #
coedge $-1 $356 $356 $-1 $507 reversed $235 $-1 #
edge $-1 $508 0 $508 6.2831853071796004 $236 $509 forward 7 unknown #
vertex $-1 $239 $510 #
ellipse-curve $-1 74.60226964731001 15.618669290532623 9.5085819778173057 0.73135370988377701 0 0.68199835119979291 0.68199835119979291 0 -0.73135370988377701 1 I I #
face $-1 $-1 $255 $36 $-1 $511 reversed single #
loop $-1 $-1 $376 $240 #
plane-surface $-1 0 34.502254710777173 0 0 -1 0 0 0 -1 forward_v I I I I #
coedge $-1 $512 $374 $377 $513 forward $241 $-1 #
coedge $-1 $380 $243 $244 $368 reversed $151 $-1 #
coedge $-1 $374 $512 $243 $366 reversed $241 $-1 #
edge $-1 $381 -14.346544402427412 $514 14.346544402427412 $365 $515 forward 7 unknown #
coedge $-1 $245 $244 $512 $516 forward $97 $-1 #
edge $-1 $372 -79.113742484817038 $514 79.113742484817038 $364 $517 forward 7 unknown #
coedge $-1 $377 $376 $245 $370 reversed $361 $-1 #
edge $-1 $518 -79.113742484817038 $371 79.113742484817038 $369 $519 forward 7 unknown #
vertex $-1 $247 $520 #
vertex $-1 $383 $521 #
straight-curve $-1 79.113742484817038 0 -14.346544402427412 0 -1 0 I I #
coedge $-1 $363 $365 $248 $375 reversed $241 $-1 #
edge $-1 $378 -34.502254710777173 $381 34.502254710777173 $374 $522 forward 7 unknown #
coedge $-1 $369 $249 $254 $384 forward $361 $-1 #
coedge $-1 $249 $369 $363 $513 reversed $361 $-1 #
vertex $-1 $250 $523 #
straight-curve $-1 0 34.502254710777173 14.346544402427412 -1 0 0 I I #
coedge $-1 $251 $364 $253 $383 reversed $151 $-1 #
vertex $-1 $375 $524 #
straight-curve $-1 0 -34.502254710777173 14.346544402427412 1 0 0 I I #
edge $-1 $256 -14.346544402427412 $372 14.346544402427412 $253 $525 forward 7 unknown #
edge $-1 $257 -14.346544402427412 $371 14.346544402427412 $254 $526 forward 7 unknown #
point $-1 79.113742484817038 -34.502254710777173 14.346544402427412 #
point $-1 79.113742484817038 34.502254710777173 14.346544402427412 #
face $-1 $-1 $404 $37 $-1 $527 forward single #
loop $-1 $-1 $528 $259 #
plane-surface $-1 -50.420653679962214 -42.5450456307018 0 -1 0 0 0 0 1 forward_v I I I I #
coedge $-1 $529 $262 $394 $530 reversed $159 $-1 #
coedge $-1 $262 $529 $531 $532 reversed $159 $-1 #
coedge $-1 $270 $269 $262 $393 reversed $260 $-1 #
edge $-1 $533 -14.346544402427412 $534 14.346544402427412 $392 $535 forward 7 unknown #
coedge $-1 $264 $263 $390 $530 forward $101 $-1 #
coedge $-1 $400 $528 $263 $396 reversed $388 $-1 #
edge $-1 $398 -8.0427909199246272 $536 8.0427909199246272 $395 $537 forward 7 unknown #
edge $-1 $534 -8.0427909199246272 $271 8.0427909199246272 $269 $538 forward 7 unknown #
vertex $-1 $396 $539 #
straight-curve $-1 0 -34.502254710777173 -14.346544402427412 1 0 0 I I #
coedge $-1 $540 $395 $266 $401 reversed $388 $-1 #
edge $-1 $405 -14.346544402427412 $398 14.346544402427412 $400 $541 forward 7 unknown #
coedge $-1 $531 $267 $270 $407 forward $404 $-1 #
coedge $-1 $267 $531 $540 $542 forward $404 $-1 #
loop $-1 $-1 $267 $387 #
vertex $-1 $268 $543 #
straight-curve $-1 0 -34.502254710777173 14.346544402427412 -1 0 0 I I #
edge $-1 $272 -8.0427909199246272 $533 8.0427909199246272 $270 $544 forward 7 unknown #
point $-1 -55.494024712058149 -34.502254710777173 -14.346544402427412 #
point $-1 -55.494024712058149 -34.502254710777173 14.346544402427412 #
face $-1 $-1 $426 $38 $-1 $545 forward single #
plane-surface $-1 -50.420653679962214 42.5450456307018 0 -1 0 0 0 0 1 forward_v I I I I #
coedge $-1 $546 $547 $429 $548 forward $275 $-1 #
coedge $-1 $422 $277 $278 $418 reversed $167 $-1 #
coedge $-1 $277 $422 $425 $549 reversed $167 $-1 #
coedge $-1 $547 $546 $277 $416 reversed $275 $-1 #
edge $-1 $550 -14.346544402427412 $551 14.346544402427412 $415 $552 forward 7 unknown #
coedge $-1 $279 $278 $546 $553 forward $105 $-1 #
edge $-1 $420 -8.0427909199246272 $551 8.0427909199246272 $413 $554 forward 7 unknown #
edge $-1 $555 -8.0427909199246272 $287 8.0427909199246272 $284 $556 forward 7 unknown #
vertex $-1 $418 $557 #
straight-curve $-1 0 34.502254710777173 -14.346544402427412 -1 0 0 I I #
coedge $-1 $414 $413 $281 $423 reversed $167 $-1 #
edge $-1 $427 -14.346544402427412 $420 14.346544402427412 $422 $558 forward 7 unknown #
coedge $-1 $559 $282 $285 $430 forward $426 $-1 #
coedge $-1 $282 $559 $414 $549 forward $426 $-1 #
loop $-1 $-1 $282 $410 #
vertex $-1 $283 $560 #
straight-curve $-1 0 34.502254710777173 14.346544402427412 1 0 0 I I #
coedge $-1 $285 $284 $412 $548 reversed $286 $-1 #
edge $-1 $288 -8.0427909199246272 $561 8.0427909199246272 $285 $562 forward 7 unknown #
point $-1 -50.420653679962214 34.502254710777173 -14.346544402427412 #
point $-1 -50.420653679962214 34.502254710777173 14.346544402427412 #
plane-surface $-1 0 0 14.346544402427412 0 0 1 1 0 0 forward_v I I I I #
coedge $-1 $444 $443 $436 $563 forward $291 $-1 #
coedge $-1 $436 $293 $295 $440 reversed $175 $-1 #
coedge $-1 $293 $435 $434 $563 reversed $175 $-1 #
coedge $-1 $301 $296 $293 $438 forward $302 $-1 #
edge $-1 $441 -23.854762452578967 $564 -21.047772218018537 $437 $565 forward 7 unknown #
coedge $-1 $295 $294 $444 $566 reversed $109 $-1 #
edge $-1 $567 4.4123720097533069e-014 $441 4.3669016567622236 $435 $568 forward 7 unknown #
vertex $-1 $297 $569 #
straight-curve $-1 -76.306752250256608 -4.8603400061584132 14.346544402427412 0 1 0 I I #
coedge $-1 $434 $298 $301 $448 reversed $291 $-1 #
coedge $-1 $298 $434 $439 $566 forward $291 $-1 #
vertex $-1 $299 $570 #
straight-curve $-1 -79.113742484817038 -14.227815806954084 56.35398445308897 0 0 1 I I #
straight-curve $-1 -79.113742484817067 -14.227815806954084 11.001303618430711 -0.64278759981090561 0 -0.7660444514056185 I I #
edge $-1 $564 5.2135442176795692 $303 14.227815806954084 $443 $571 forward 7 unknown #
point $-1 -79.113742484817038 -14.227815806954084 14.346544402427412 #
point $-1 -76.306752250256608 -14.227815806954084 14.346544402427412 #
edge $-1 $572 1 $572 0 $306 $-1 forward 7 unknown #
vertex $-1 $307 $573 #
ellipse-curve $-1 -76.944202916131189 -11.652309638589937 12.031136410618153 -0.7660444514056185 0 0.64278759981090561 0.1606968999527264 0 0.19151111285140462 1 I I #
point $-1 -77.549550467584083 -11.652309638589937 12.865435123280463 #
edge $-1 $574 1 $574 0 $310 $-1 forward 7 unknown #
vertex $-1 $311 $575 #
ellipse-curve $-1 -76.944202916131189 -7.7890503860437192 12.031136410618153 -0.7660444514056185 0 0.64278759981090561 0.1606968999527264 0 0.19151111285140462 1 I I #
point $-1 -77.549550467584083 -7.7890503860437192 12.865435123280463 #
loop $-1 $-1 $322 $314 #
plane-surface $-1 -79.113742484817038 0 0 1 0 0 0 0 -1 forward_v I I I I #
coedge $-1 $462 $317 $319 $466 reversed $197 $-1 #
coedge $-1 $317 $461 $576 $577 reversed $197 $-1 #
coedge $-1 $325 $320 $317 $464 forward $315 $-1 #
edge $-1 $467 -23.854762452578967 $578 -21.047772218018537 $463 $579 forward 7 unknown #
coedge $-1 $319 $318 $470 $580 reversed $123 $-1 #
edge $-1 $581 4.4123720097533069e-014 $467 4.3669016567622236 $461 $582 forward 7 unknown #
vertex $-1 $321 $583 #
straight-curve $-1 -76.306752250256608 4.8603400061584132 14.346544402427412 0 1 0 I I #
coedge $-1 $576 $322 $325 $474 reversed $459 $-1 #
coedge $-1 $322 $576 $465 $580 forward $459 $-1 #
vertex $-1 $323 $584 #
straight-curve $-1 -79.113742484817038 5.2135442176795692 56.35398445308897 0 0 1 I I #
straight-curve $-1 -79.113742484817067 5.2135442176795692 11.001303618430711 -0.64278759981090561 0 -0.7660444514056185 I I #
edge $-1 $578 -14.227815806954084 $326 -5.2135442176795692 $469 $585 forward 7 unknown #
point $-1 -79.113742484817038 5.2135442176795692 14.346544402427412 #
point $-1 -76.306752250256608 5.2135442176795692 14.346544402427412 #
edge $-1 $586 1 $586 0 $329 $-1 forward 7 unknown #
vertex $-1 $330 $587 #
ellipse-curve $-1 -76.944202916131189 7.7890503860437192 12.031136410618153 -0.7660444514056185 0 0.64278759981090561 0.1606968999527264 0 0.19151111285140462 1 I I #
point $-1 -77.549550467584083 7.7890503860437192 12.865435123280463 #
edge $-1 $588 1 $588 0 $333 $-1 forward 7 unknown #
vertex $-1 $334 $589 #
ellipse-curve $-1 -76.944202916131189 11.652309638589934 12.031136410618153 -0.7660444514056185 0 0.64278759981090561 0.1606968999527264 0 0.19151111285140462 1 I I #
point $-1 -77.549550467584083 11.652309638589934 12.865435123280463 #
loop $-1 $-1 $345 $337 #
plane-surface $-1 79.113742484817038 0 0 -1 0 0 0 0 1 forward_v I I I I #
coedge $-1 $488 $340 $342 $492 reversed $219 $-1 #
coedge $-1 $340 $487 $590 $591 reversed $219 $-1 #
coedge $-1 $348 $343 $340 $490 forward $338 $-1 #
edge $-1 $493 26.629238430223992 $592 35.652184105238021 $489 $593 forward 7 unknown #
coedge $-1 $342 $341 $496 $594 reversed $137 $-1 #
edge $-1 $595 -158.22748496963408 $493 -144.99732736127538 $487 $596 forward 7 unknown #
vertex $-1 $344 $597 #
straight-curve $-1 70.090796809802995 6.7600833026180744 14.346544402427398 0 -1 0 I I #
coedge $-1 $590 $345 $348 $500 reversed $485 $-1 #
coedge $-1 $345 $590 $491 $594 forward $485 $-1 #
vertex $-1 $346 $598 #
straight-curve $-1 79.113742484817038 18.416672870927915 114.15088077755455 0 0 1 I I #
straight-curve $-1 -28.797141378963417 18.416672870927915 120.39087769132864 0.68199835119979291 0 -0.73135370988377701 I I #
edge $-1 $592 8.6236603395443829 $349 18.416672870927915 $495 $599 forward 7 unknown #
point $-1 79.113742484817038 18.416672870927915 14.346544402427412 #
point $-1 70.09079680980301 18.416672870927915 14.346544402427398 #
edge $-1 $600 1 $600 0 $352 $-1 forward 7 unknown #
vertex $-1 $353 $601 #
ellipse-curve $-1 73.135968735697276 11.421663919939682 8.1412342901416039 0.73135370988377701 0 0.68199835119979291 0.68199835119979291 0 -0.73135370988377701 1 I I #
point $-1 75.284267998509819 11.421663919939682 8.7772282679335483 #
edge $-1 $602 1 $602 0 $356 $-1 forward 7 unknown #
vertex $-1 $357 $603 #
ellipse-curve $-1 73.135968735697276 15.618669290532623 8.1412342901416039 0.73135370988377701 0 0.68199835119979291 0.68199835119979291 0 -0.73135370988377701 1 I I #
point $-1 75.284267998509819 15.618669290532623 8.7772282679335483 #
plane-surface $-1 79.113742484817038 0 0 -1 0 0 0 0 1 forward_v I I I I #
coedge $-1 $365 $363 $367 $516 reversed $241 $-1 #
edge $-1 $378 -14.346544402427412 $518 14.346544402427412 $377 $604 forward 7 unknown #
vertex $-1 $516 $605 #
straight-curve $-1 -79.113742484817038 -34.502254710777173 0 0 0 -1 I I #
edge $-1 $514 -34.502254710777173 $518 34.502254710777173 $512 $606 forward 7 unknown #
straight-curve $-1 0 -34.502254710777173 -14.346544402427412 -1 0 0 I I #
vertex $-1 $370 $607 #
straight-curve $-1 0 34.502254710777173 -14.346544402427412 1 0 0 I I #
point $-1 79.113742484817038 34.502254710777173 -14.346544402427412 #
point $-1 79.113742484817038 -34.502254710777173 -14.346544402427412 #
straight-curve $-1 -79.113742484817038 0 14.346544402427412 0 -1 0 I I #
point $-1 -79.113742484817038 34.502254710777173 14.346544402427412 #
point $-1 -79.113742484817038 -34.502254710777173 14.346544402427412 #
straight-curve $-1 79.113742484817038 -34.502254710777173 0 0 0 -1 I I #
straight-curve $-1 79.113742484817038 34.502254710777173 0 0 0 -1 I I #
plane-surface $-1 0 0 14.346544402427412 0 0 1 1 0 0 forward_v I I I I #
coedge $-1 $395 $540 $529 $608 forward $388 $-1 #
coedge $-1 $391 $390 $528 $608 reversed $159 $-1 #
edge $-1 $536 -2.5366855160479673 $534 2.5366855160479673 $390 $609 forward 7 unknown #
coedge $-1 $403 $402 $391 $532 forward $404 $-1 #
edge $-1 $533 -2.5366855160479673 $610 2.5366855160479673 $391 $611 forward 7 unknown #
vertex $-1 $407 $612 #
vertex $-1 $397 $613 #
straight-curve $-1 -55.494024712058149 -50.587836550626427 0 0 0 -1 I I #
vertex $-1 $608 $614 #
straight-curve $-1 -50.420653679962214 -42.5450456307018 -14.346544402427412 0 -1 0 I I #
straight-curve $-1 -55.494024712058149 -42.5450456307018 -14.346544402427412 0 1 0 I I #
point $-1 -50.420653679962214 -34.502254710777173 -14.346544402427412 #
coedge $-1 $528 $400 $403 $542 reversed $388 $-1 #
straight-curve $-1 -50.420653679962214 -34.502254710777173 0 0 0 -1 I I #
edge $-1 $610 -8.0427909199246272 $405 8.0427909199246272 $540 $615 forward 7 unknown #
point $-1 -50.420653679962214 -34.502254710777173 14.346544402427412 #
straight-curve $-1 -55.494024712058149 -42.5450456307018 14.346544402427412 0 -1 0 I I #
plane-surface $-1 0 0 14.346544402427412 0 0 1 1 0 0 forward_v I I I I #
coedge $-1 $415 $412 $417 $553 reversed $275 $-1 #
coedge $-1 $412 $415 $559 $616 reversed $275 $-1 #
edge $-1 $561 -14.346544402427412 $555 14.346544402427412 $429 $617 forward 7 unknown #
edge $-1 $550 -8.0427909199246272 $427 8.0427909199246272 $414 $618 forward 7 unknown #
vertex $-1 $616 $619 #
vertex $-1 $553 $620 #
straight-curve $-1 -55.494024712058149 50.587836550626427 0 0 0 -1 I I #
edge $-1 $551 -2.5366855160479673 $555 2.5366855160479673 $546 $621 forward 7 unknown #
straight-curve $-1 -55.494024712058149 42.5450456307018 -14.346544402427412 0 1 0 I I #
vertex $-1 $419 $622 #
straight-curve $-1 -50.420653679962214 42.5450456307018 -14.346544402427412 0 -1 0 I I #
point $-1 -55.494024712058149 34.502254710777173 -14.346544402427412 #
straight-curve $-1 -55.494024712058149 34.502254710777173 0 0 0 -1 I I #
coedge $-1 $425 $424 $547 $616 forward $426 $-1 #
point $-1 -55.494024712058149 34.502254710777173 14.346544402427412 #
vertex $-1 $430 $623 #
straight-curve $-1 -50.420653679962214 42.5450456307018 14.346544402427412 0 1 0 I I #
edge $-1 $564 42.007440050661558 $567 45.352680834658223 $434 $624 forward 7 unknown #
vertex $-1 $448 $625 #
straight-curve $-1 -100.16151470283558 -5.2135442176795692 14.346544402427412 -1 0 0 I I #
edge $-1 $567 0.353204211521156 $445 9.3674758007956704 $444 $626 forward 7 unknown #
vertex $-1 $566 $627 #
straight-curve $-1 -79.113742484817067 -5.2135442176795692 11.001303618430711 0.64278759981090561 0 0.7660444514056185 I I #
point $-1 -76.306752250256608 -5.2135442176795692 14.346544402427412 #
point $-1 -79.113742484817038 -14.227815806954084 11.001303618430745 #
straight-curve $-1 -79.113742484817038 0 14.346544402427412 0 -1 0 I I #
vertex $-1 $451 $628 #
point $-1 -76.783506016178464 -11.652309638589937 12.222647523469558 #
vertex $-1 $455 $629 #
point $-1 -76.783506016178464 -7.7890503860437192 12.222647523469558 #
coedge $-1 $470 $469 $462 $577 forward $459 $-1 #
edge $-1 $578 42.007440050661558 $581 45.352680834658223 $576 $630 forward 7 unknown #
vertex $-1 $474 $631 #
straight-curve $-1 -100.16151470283558 14.227815806954084 14.346544402427412 -1 0 0 I I #
edge $-1 $581 -9.3674758007956704 $471 -0.353204211521156 $470 $632 forward 7 unknown #
vertex $-1 $580 $633 #
straight-curve $-1 -79.113742484817067 14.227815806954084 11.001303618430711 0.64278759981090561 0 0.7660444514056185 I I #
point $-1 -76.306752250256608 14.227815806954084 14.346544402427412 #
point $-1 -79.113742484817038 5.2135442176795692 11.001303618430745 #
straight-curve $-1 -79.113742484817038 0 14.346544402427412 0 -1 0 I I #
vertex $-1 $477 $634 #
point $-1 -76.783506016178464 7.7890503860437192 12.222647523469558 #
vertex $-1 $481 $635 #
point $-1 -76.783506016178464 11.652309638589934 12.222647523469558 #
coedge $-1 $496 $495 $488 $591 forward $485 $-1 #
edge $-1 $592 99.804336375127136 $595 109.48026122434736 $590 $636 forward 7 unknown #
vertex $-1 $500 $637 #
straight-curve $-1 43.461558379579017 8.6236603395443829 14.346544402427412 1 0 0 I I #
edge $-1 $595 1.8635770369263085 $497 11.65658956830984 $496 $638 forward 7 unknown #
vertex $-1 $594 $639 #
straight-curve $-1 -28.797141378963417 8.6236603395443829 120.39087769132864 -0.68199835119979291 0 0.73135370988377701 I I #
point $-1 70.09079680980301 8.6236603395443829 14.346544402427398 #
point $-1 79.113742484817038 18.416672870927915 4.6706195532071888 #
straight-curve $-1 79.113742484817038 0 14.346544402427412 0 1 0 I I #
vertex $-1 $503 $640 #
point $-1 73.81796708689707 11.421663919939682 7.409880580257826 #
vertex $-1 $507 $641 #
point $-1 73.81796708689707 15.618669290532623 7.409880580257826 #
straight-curve $-1 -79.113742484817038 34.502254710777173 0 0 0 -1 I I #
point $-1 -79.113742484817038 -34.502254710777173 -14.346544402427412 #
straight-curve $-1 -79.113742484817038 0 -14.346544402427412 0 1 0 I I #
point $-1 -79.113742484817038 34.502254710777173 -14.346544402427412 #
edge $-1 $610 -14.346544402427412 $536 14.346544402427412 $528 $642 forward 7 unknown #
straight-curve $-1 -52.957339196010182 -50.587836550626427 -14.346544402427412 -1 0 0 I I #
vertex $-1 $542 $643 #
straight-curve $-1 -52.957339196010182 -50.587836550626427 14.346544402427412 1 0 0 I I #
point $-1 -55.494024712058149 -50.587836550626427 14.346544402427412 #
point $-1 -55.494024712058149 -50.587836550626427 -14.346544402427412 #
point $-1 -50.420653679962214 -50.587836550626427 -14.346544402427412 #
straight-curve $-1 -50.420653679962214 -42.5450456307018 14.346544402427412 0 1 0 I I #
edge $-1 $561 -2.5366855160479673 $550 2.5366855160479673 $547 $644 forward 7 unknown #
straight-curve $-1 -50.420653679962214 50.587836550626427 0 0 0 -1 I I #
straight-curve $-1 -55.494024712058149 42.5450456307018 14.346544402427412 0 -1 0 I I #
point $-1 -55.494024712058149 50.587836550626427 14.346544402427412 #
point $-1 -55.494024712058149 50.587836550626427 -14.346544402427412 #
straight-curve $-1 -52.957339196010182 50.587836550626427 -14.346544402427412 1 0 0 I I #
point $-1 -50.420653679962214 50.587836550626427 -14.346544402427412 #
point $-1 -50.420653679962214 50.587836550626427 14.346544402427412 #
straight-curve $-1 -79.113742484817038 -5.2135442176795692 56.35398445308897 0 0 -1 I I #
point $-1 -79.113742484817038 -5.2135442176795692 14.346544402427412 #
straight-curve $-1 -79.113742484817038 -4.8603400061584132 11.001303618430736 0 -1 0 I I #
point $-1 -79.113742484817038 -5.2135442176795692 11.001303618430745 #
point $-1 -76.752691803279788 -11.652309638589937 11.870439510665427 #
point $-1 -76.752691803279788 -7.7890503860437192 11.870439510665427 #
straight-curve $-1 -79.113742484817038 14.227815806954084 56.35398445308897 0 0 -1 I I #
point $-1 -79.113742484817038 14.227815806954084 14.346544402427412 #
straight-curve $-1 -79.113742484817038 4.8603400061584132 11.001303618430736 0 -1 0 I I #
point $-1 -79.113742484817038 14.227815806954084 11.001303618430745 #
point $-1 -76.752691803279788 7.7890503860437192 11.870439510665427 #
point $-1 -76.752691803279788 11.652309638589934 11.870439510665427 #
straight-curve $-1 79.113742484817038 8.6236603395443829 114.15088077755455 0 0 -1 I I #
point $-1 79.113742484817038 8.6236603395443829 14.346544402427412 #
straight-curve $-1 79.113742484817038 6.7600833026180744 4.670619553207203 0 1 0 I I #
point $-1 79.113742484817038 8.6236603395443829 4.6706195532071888 #
point $-1 72.404615025813513 11.421663919939682 7.4592359389418101 #
point $-1 72.404615025813513 15.618669290532623 7.4592359389418101 #
straight-curve $-1 -50.420653679962214 -50.587836550626427 0 0 0 -1 I I #
point $-1 -50.420653679962214 -50.587836550626427 14.346544402427412 #
straight-curve $-1 -52.957339196010182 50.587836550626427 14.346544402427412 -1 0 0 I I #
End-of-ACIS-data 