500 0 12 0           
7 Unknown 11 ACIS 5.0 NT 24 Thu Mar 25 21:52:36 1999 
-1 9.9999999999999995e-007 1e-010 
body $-1 $12 $-1 $13 #
body $-1 $14 $-1 $15 #
body $-1 $16 $-1 $17 #
body $-1 $18 $-1 $19 #
body $-1 $20 $-1 $21 #
body $-1 $22 $-1 $23 #
body $-1 $24 $-1 $25 #
body $-1 $26 $-1 $27 #
body $-1 $28 $-1 $29 #
body $-1 $30 $-1 $31 #
body $-1 $32 $-1 $33 #
body $-1 $34 $-1 $35 #
lump $-1 $-1 $36 $0 #
transform $-1 1 0 0 0 1 0 0 0 1 50.53010650959807 27.254212603739447 10.532966744207723 1 rotate no_reflect no_shear #
lump $-1 $-1 $37 $1 #
transform $-1 1 0 0 0 1 0 0 0 1 50.53010650959807 27.254212603739447 10.532966744207723 1 rotate no_reflect no_shear #
lump $-1 $-1 $38 $2 #
transform $-1 1 0 0 0 1 0 0 0 1 50.53010650959807 27.254212603739447 10.532966744207723 1 rotate no_reflect no_shear #
lump $-1 $-1 $39 $3 #
transform $-1 1 0 0 0 1 0 0 0 1 50.53010650959807 27.254212603739447 10.532966744207723 1 rotate no_reflect no_shear #
lump $-1 $-1 $40 $4 #
transform $-1 1 0 0 0 1 0 0 0 1 50.53010650959807 27.254212603739447 10.532966744207723 1 rotate no_reflect no_shear #
lump $-1 $-1 $41 $5 #
transform $-1 1 0 0 0 1 0 0 0 1 50.53010650959807 27.254212603739447 10.532966744207723 1 rotate no_reflect no_shear #
lump $-1 $-1 $42 $6 #
transform $-1 1 0 0 0 1 0 0 0 1 50.53010650959807 27.254212603739447 10.532966744207723 1 rotate no_reflect no_shear #
lump $-1 $-1 $43 $7 #
transform $-1 1 0 0 0 1 0 0 0 1 50.53010650959807 27.254212603739447 10.532966744207723 1 rotate no_reflect no_shear #
lump $-1 $-1 $44 $8 #
transform $-1 1 0 0 0 1 0 0 0 1 50.53010650959807 27.254212603739447 10.532966744207723 1 rotate no_reflect no_shear #
lump $-1 $-1 $45 $9 #
transform $-1 1 0 0 0 1 0 0 0 1 50.53010650959807 27.254212603739447 10.532966744207723 1 rotate no_reflect no_shear #
lump $-1 $-1 $46 $10 #
transform $-1 1 0 0 0 1 0 0 0 1 50.53010650959807 27.254212603739447 10.532966744207723 1 rotate no_reflect no_shear #
lump $-1 $-1 $47 $11 #
transform $-1 1 0 0 0 1 0 0 0 1 50.53010650959807 27.254212603739447 10.532966744207723 1 rotate no_reflect no_shear #
shell $-1 $-1 $-1 $48 $-1 $12 #
shell $-1 $-1 $-1 $49 $-1 $14 #
shell $-1 $-1 $-1 $50 $-1 $16 #
shell $-1 $-1 $-1 $51 $-1 $18 #
shell $-1 $-1 $-1 $52 $-1 $20 #
shell $-1 $-1 $-1 $53 $-1 $22 #
shell $-1 $-1 $-1 $54 $-1 $24 #
shell $-1 $-1 $-1 $55 $-1 $26 #
shell $-1 $-1 $-1 $56 $-1 $28 #
shell $-1 $-1 $-1 $57 $-1 $30 #
shell $-1 $-1 $-1 $58 $-1 $32 #
shell $-1 $-1 $-1 $59 $-1 $34 #
face $-1 $60 $61 $36 $-1 $62 forward single #
face $-1 $63 $64 $37 $-1 $65 forward single #
face $-1 $66 $67 $38 $-1 $68 reversed single #
face $-1 $69 $70 $39 $-1 $71 forward single #
face $-1 $72 $73 $40 $-1 $74 forward single #
face $-1 $75 $76 $41 $-1 $77 forward single #
face $-1 $78 $79 $42 $-1 $80 reversed single #
face $-1 $81 $82 $43 $-1 $83 forward single #
face $-1 $84 $85 $44 $-1 $86 forward single #
face $-1 $87 $88 $45 $-1 $89 forward single #
face $-1 $90 $91 $46 $-1 $92 reversed single #
face $-1 $93 $94 $47 $-1 $95 forward single #
face $-1 $96 $97 $36 $-1 $98 reversed single #
loop $-1 $-1 $99 $48 #
plane-surface $-1 0 0 10.532966744207723 0 0 1 1 0 0 forward_v I I I I #
face $-1 $100 $101 $37 $-1 $102 reversed single #
loop $-1 $-1 $103 $49 #
plane-surface $-1 -50.53010650959807 0 0 1 0 0 0 0 -1 forward_v I I I I #
face $-1 $104 $105 $38 $-1 $106 reversed single #
loop $-1 $-1 $107 $50 #
plane-surface $-1 5.3408477181411911 -99.950846891776209 75.06827784443503 -1 0 0 0 -0.71933980857756763 0.69465836192734942 forward_v I I I I #
face $-1 $108 $109 $39 $-1 $110 forward single #
loop $-1 $111 $112 $51 #
cone-surface $-1 -9.3614452895574161 -23.651578976777714 6.862837532937335 0 0.71933980857756763 -0.69465836192734942 1.5 0 0 1 I I 0 1 1.5 forward I I I I #
face $-1 $113 $114 $40 $-1 $115 forward single #
loop $-1 $116 $117 $52 #
cone-surface $-1 -3.8480854116704393 -23.651578976777714 6.862837532937335 0 0.71933980857756763 -0.69465836192734942 1.5 0 0 1 I I 0 1 1.5 forward I I I I #
face $-1 $118 $119 $41 $-1 $120 forward single #
loop $-1 $121 $122 $53 #
cone-surface $-1 1.6652744662165375 -23.651578976777714 6.862837532937335 0 0.71933980857756763 -0.69465836192734942 1.5 0 0 1 I I 0 1 1.5 forward I I I I #
face $-1 $123 $124 $42 $-1 $125 reversed single #
loop $-1 $-1 $126 $54 #
plane-surface $-1 41.34117337978644 -27.254212603739447 4.8659558124912508 0 -0.71933980857756763 0.69465836192734942 1 0 0 forward_v I I I I #
face $-1 $127 $128 $43 $-1 $129 forward single #
loop $-1 $130 $131 $55 #
cone-surface $-1 35.82781350189947 -23.651578976777714 6.862837532937335 0 0.71933980857756763 -0.69465836192734942 1.5 0 0 1 I I 0 1 1.5 forward I I I I #
face $-1 $132 $133 $44 $-1 $134 forward single #
loop $-1 $135 $136 $56 #
cone-surface $-1 41.34117337978644 -23.651578976777714 6.862837532937335 0 0.71933980857756763 -0.69465836192734942 1.5 0 0 1 I I 0 1 1.5 forward I I I I #
face $-1 $137 $138 $45 $-1 $139 forward single #
loop $-1 $140 $141 $57 #
cone-surface $-1 46.854533257673424 -23.651578976777714 6.862837532937335 0 0.71933980857756763 -0.69465836192734942 1.5 0 0 1 I I 0 1 1.5 forward I I I I #
face $-1 $142 $143 $46 $-1 $144 reversed single #
loop $-1 $-1 $145 $58 #
plane-surface $-1 22.045846126835173 75.160499621585316 108.53646502930334 1 0 0 0 -0.79863551827123203 -0.60181501223851219 forward_v I I I I #
face $-1 $146 $147 $47 $-1 $148 forward single #
loop $-1 $149 $150 $59 #
cone-surface $-1 28.997519969118471 23.953642456949268 6.6740539975130577 0 -0.79863551827123203 -0.60181501223851219 1 0 0 1 I I 0 1 1 forward I I I I #
face $-1 $151 $152 $36 $-1 $153 reversed single #
loop $-1 $-1 $154 $60 #
plane-surface $-1 0 0 -10.532966744207723 0 0 1 1 0 0 forward_v I I I I #
coedge $-1 $155 $156 $157 $158 forward $61 $-1 #
face $-1 $159 $160 $37 $-1 $161 reversed single #
loop $-1 $-1 $162 $63 #
plane-surface $-1 0 0 -10.532966744207723 0 0 1 1 0 0 forward_v I I I I #
coedge $-1 $163 $164 $165 $166 forward $64 $-1 #
face $-1 $167 $168 $38 $-1 $169 reversed single #
loop $-1 $-1 $170 $66 #
plane-surface $-1 -3.8480854116704393 -27.254212603739447 4.8659558124912508 0 -0.71933980857756763 0.69465836192734942 1 0 0 forward_v I I I I #
coedge $-1 $171 $172 $173 $174 reversed $67 $-1 #
face $-1 $-1 $175 $39 $-1 $176 forward single #
loop $-1 $177 $178 $69 #
cone-surface $-1 -9.3614452895574161 -22.245724850170252 5.5052200160796723 0 0.71933980857756763 -0.69465836192734942 0.75 0 0 1 I I -0.70710678118654757 0.70710678118654757 0.75 forward I I I I #
loop $-1 $-1 $179 $51 #
coedge $-1 $112 $112 $180 $181 reversed $70 $-1 #
face $-1 $-1 $182 $40 $-1 $183 forward single #
loop $-1 $184 $185 $72 #
cone-surface $-1 -3.8480854116704393 -22.245724850170252 5.5052200160796723 0 0.71933980857756763 -0.69465836192734942 0.75 0 0 1 I I -0.70710678118654757 0.70710678118654757 0.75 forward I I I I #
loop $-1 $-1 $186 $52 #
coedge $-1 $117 $117 $187 $188 reversed $73 $-1 #
face $-1 $-1 $189 $41 $-1 $190 forward single #
loop $-1 $191 $192 $75 #
cone-surface $-1 1.6652744662165375 -22.245724850170252 5.5052200160796723 0 0.71933980857756763 -0.69465836192734942 0.75 0 0 1 I I -0.70710678118654757 0.70710678118654757 0.75 forward I I I I #
loop $-1 $-1 $193 $53 #
coedge $-1 $122 $122 $194 $195 reversed $76 $-1 #
face $-1 $196 $197 $42 $-1 $198 reversed single #
loop $-1 $-1 $199 $78 #
plane-surface $-1 32.15224024997481 -99.950846891776209 75.06827784443503 1 0 0 0 0.71933980857756763 -0.69465836192734942 forward_v I I I I #
coedge $-1 $200 $201 $202 $203 reversed $79 $-1 #
face $-1 $-1 $204 $43 $-1 $205 forward single #
loop $-1 $206 $207 $81 #
cone-surface $-1 35.82781350189947 -22.245724850170252 5.5052200160796723 0 0.71933980857756763 -0.69465836192734942 0.75 0 0 1 I I -0.70710678118654757 0.70710678118654757 0.75 forward I I I I #
loop $-1 $-1 $208 $55 #
coedge $-1 $131 $131 $209 $210 reversed $82 $-1 #
face $-1 $-1 $211 $44 $-1 $212 forward single #
loop $-1 $213 $214 $84 #
cone-surface $-1 41.34117337978644 -22.245724850170252 5.5052200160796723 0 0.71933980857756763 -0.69465836192734942 0.75 0 0 1 I I -0.70710678118654757 0.70710678118654757 0.75 forward I I I I #
loop $-1 $-1 $215 $56 #
coedge $-1 $136 $136 $216 $217 reversed $85 $-1 #
face $-1 $-1 $218 $45 $-1 $219 forward single #
loop $-1 $220 $221 $87 #
cone-surface $-1 46.854533257673424 -22.245724850170252 5.5052200160796723 0 0.71933980857756763 -0.69465836192734942 0.75 0 0 1 I I -0.70710678118654757 0.70710678118654757 0.75 forward I I I I #
loop $-1 $-1 $222 $57 #
coedge $-1 $141 $141 $223 $224 reversed $88 $-1 #
face $-1 $225 $226 $46 $-1 $227 reversed single #
loop $-1 $-1 $228 $90 #
plane-surface $-1 28.997519969118471 -5.549775979601506 47.71691169432917 0 0.79863551827123203 0.60181501223851219 1 0 0 forward_v I I I I #
coedge $-1 $229 $230 $231 $232 reversed $91 $-1 #
face $-1 $-1 $233 $47 $-1 $234 forward single #
loop $-1 $235 $236 $93 #
cone-surface $-1 28.997519969118471 22.645693083044172 5.6884434775001971 0 -0.79863551827123203 -0.60181501223851219 0.5 0 0 1 I I -0.70710678118654746 0.70710678118654746 0.5 forward I I I I #
loop $-1 $-1 $237 $59 #
coedge $-1 $150 $150 $238 $239 reversed $94 $-1 #
face $-1 $240 $241 $36 $-1 $242 reversed single #
loop $-1 $-1 $243 $96 #
plane-surface $-1 0 -27.254212603739447 0 0 1 0 0 0 1 forward_v I I I I #
coedge $-1 $244 $245 $246 $247 forward $97 $-1 #
coedge $-1 $248 $99 $249 $250 forward $61 $-1 #
coedge $-1 $99 $248 $251 $252 forward $61 $-1 #
coedge $-1 $253 $254 $99 $158 reversed $255 $-1 #
edge $-1 $256 -27.254212603739447 $257 27.254212603739447 $157 $258 forward 7 unknown #
face $-1 $259 $260 $37 $-1 $261 reversed single #
loop $-1 $-1 $262 $100 #
plane-surface $-1 -55.870954227739254 -25.390548792902027 0 0 1 0 0 0 1 forward_v I I I I #
coedge $-1 $263 $264 $164 $265 forward $101 $-1 #
coedge $-1 $266 $103 $267 $268 reversed $64 $-1 #
coedge $-1 $103 $266 $162 $265 reversed $64 $-1 #
coedge $-1 $269 $270 $103 $166 reversed $271 $-1 #
edge $-1 $272 -10.532966744207723 $273 10.532966744207723 $165 $274 forward 7 unknown #
face $-1 $275 $276 $38 $-1 $277 forward single #
loop $-1 $-1 $278 $104 #
plane-surface $-1 -13.03701854148207 -99.950846891776209 75.06827784443503 1 0 0 0 0.71933980857756763 -0.69465836192734942 forward_v I I I I #
coedge $-1 $279 $280 $281 $282 reversed $105 $-1 #
coedge $-1 $172 $107 $283 $284 reversed $67 $-1 #
coedge $-1 $107 $171 $279 $285 reversed $67 $-1 #
coedge $-1 $281 $286 $107 $174 forward $276 $-1 #
edge $-1 $287 22.721210842148658 $288 28.193779555723548 $173 $289 forward 7 unknown #
loop $-1 $-1 $180 $108 #
plane-surface $-1 -3.8480854116704393 -27.254212603739447 4.8659558124912508 0 -0.71933980857756763 0.69465836192734942 1 0 0 forward_v I I I I #
loop $-1 $-1 $290 $69 #
coedge $-1 $178 $178 $179 $291 reversed $109 $-1 #
coedge $-1 $179 $179 $178 $291 forward $111 $-1 #
coedge $-1 $180 $180 $112 $181 forward $175 $-1 #
edge $-1 $292 3.6747732085533313e-016 $292 6.2831853071796004 $180 $293 forward 7 unknown #
loop $-1 $-1 $187 $113 #
plane-surface $-1 -3.8480854116704393 -27.254212603739447 4.8659558124912508 0 -0.71933980857756763 0.69465836192734942 1 0 0 forward_v I I I I #
loop $-1 $-1 $294 $72 #
coedge $-1 $185 $185 $186 $295 reversed $114 $-1 #
coedge $-1 $186 $186 $185 $295 forward $116 $-1 #
coedge $-1 $187 $187 $117 $188 forward $182 $-1 #
edge $-1 $296 3.6747732085533313e-016 $296 6.2831853071796004 $187 $297 forward 7 unknown #
loop $-1 $-1 $194 $118 #
plane-surface $-1 -3.8480854116704393 -27.254212603739447 4.8659558124912508 0 -0.71933980857756763 0.69465836192734942 1 0 0 forward_v I I I I #
loop $-1 $-1 $298 $75 #
coedge $-1 $192 $192 $193 $299 reversed $119 $-1 #
coedge $-1 $193 $193 $192 $299 forward $121 $-1 #
coedge $-1 $194 $194 $122 $195 forward $189 $-1 #
edge $-1 $300 3.6747732085533313e-016 $300 6.2831853071796004 $194 $301 forward 7 unknown #
face $-1 $302 $303 $42 $-1 $304 forward single #
loop $-1 $-1 $305 $123 #
plane-surface $-1 0 -27.254212603739447 0 0 1 0 0 0 1 forward_v I I I I #
coedge $-1 $306 $307 $308 $309 reversed $124 $-1 #
coedge $-1 $310 $126 $311 $312 reversed $79 $-1 #
coedge $-1 $126 $310 $306 $313 forward $79 $-1 #
coedge $-1 $308 $314 $126 $203 forward $303 $-1 #
edge $-1 $315 -29.85951981970485 $316 -11.48165356008159 $202 $317 forward 7 unknown #
loop $-1 $-1 $209 $127 #
plane-surface $-1 41.34117337978644 -27.254212603739447 4.8659558124912508 0 -0.71933980857756763 0.69465836192734942 1 0 0 forward_v I I I I #
loop $-1 $-1 $318 $81 #
coedge $-1 $207 $207 $208 $319 reversed $128 $-1 #
coedge $-1 $208 $208 $207 $319 forward $130 $-1 #
coedge $-1 $209 $209 $131 $210 forward $204 $-1 #
edge $-1 $320 3.6747732085533313e-016 $320 6.2831853071796004 $209 $321 forward 7 unknown #
loop $-1 $-1 $216 $132 #
plane-surface $-1 41.34117337978644 -27.254212603739447 4.8659558124912508 0 -0.71933980857756763 0.69465836192734942 1 0 0 forward_v I I I I #
loop $-1 $-1 $322 $84 #
coedge $-1 $214 $214 $215 $323 reversed $133 $-1 #
coedge $-1 $215 $215 $214 $323 forward $135 $-1 #
coedge $-1 $216 $216 $136 $217 forward $211 $-1 #
edge $-1 $324 3.6747732085533313e-016 $324 6.2831853071796004 $216 $325 forward 7 unknown #
loop $-1 $-1 $223 $137 #
plane-surface $-1 41.34117337978644 -27.254212603739447 4.8659558124912508 0 -0.71933980857756763 0.69465836192734942 1 0 0 forward_v I I I I #
loop $-1 $-1 $326 $87 #
coedge $-1 $221 $221 $222 $327 reversed $138 $-1 #
coedge $-1 $222 $222 $221 $327 forward $140 $-1 #
coedge $-1 $223 $223 $141 $224 forward $218 $-1 #
edge $-1 $328 3.6747732085533313e-016 $328 6.2831853071796004 $223 $329 forward 7 unknown #
face $-1 $330 $331 $46 $-1 $332 forward single #
loop $-1 $-1 $333 $142 #
plane-surface $-1 35.94919381140177 75.160499621585316 108.53646502930334 -1 0 0 0 0.79863551827123203 0.60181501223851219 forward_v I I I I #
coedge $-1 $334 $335 $336 $337 reversed $143 $-1 #
coedge $-1 $230 $145 $338 $339 reversed $91 $-1 #
coedge $-1 $145 $229 $334 $340 reversed $91 $-1 #
coedge $-1 $336 $341 $145 $232 forward $331 $-1 #
edge $-1 $342 10.326037207053211 $343 15.109914271094631 $231 $344 forward 7 unknown #
loop $-1 $-1 $238 $146 #
plane-surface $-1 28.997519969118471 -5.549775979601506 47.71691169432917 0 0.79863551827123203 0.60181501223851219 1 0 0 forward_v I I I I #
loop $-1 $-1 $345 $93 #
coedge $-1 $236 $236 $237 $346 reversed $147 $-1 #
coedge $-1 $237 $237 $236 $346 forward $149 $-1 #
coedge $-1 $238 $238 $150 $239 forward $233 $-1 #
edge $-1 $347 7.5975047495279938e-016 $347 6.2831853071796013 $238 $348 forward 7 unknown #
face $-1 $349 $350 $36 $-1 $351 reversed single #
loop $-1 $-1 $352 $151 #
plane-surface $-1 -50.53010650959807 0 0 1 0 0 0 0 -1 forward_v I I I I #
coedge $-1 $353 $251 $354 $355 forward $152 $-1 #
coedge $-1 $356 $154 $353 $357 forward $97 $-1 #
coedge $-1 $154 $356 $358 $359 forward $97 $-1 #
coedge $-1 $254 $253 $154 $247 reversed $255 $-1 #
edge $-1 $360 -27.254212603739447 $361 27.254212603739447 $246 $362 forward 7 unknown #
coedge $-1 $156 $155 $363 $364 forward $61 $-1 #
coedge $-1 $365 $366 $155 $250 reversed $350 $-1 #
edge $-1 $257 -50.53010650959807 $367 50.53010650959807 $249 $368 forward 7 unknown #
coedge $-1 $243 $369 $156 $252 reversed $152 $-1 #
edge $-1 $370 -50.53010650959807 $256 50.53010650959807 $251 $371 forward 7 unknown #
coedge $-1 $246 $157 $369 $372 forward $255 $-1 #
coedge $-1 $157 $246 $365 $373 reversed $255 $-1 #
loop $-1 $-1 $253 $349 #
vertex $-1 $158 $374 #
vertex $-1 $158 $375 #
straight-curve $-1 50.53010650959807 0 10.532966744207723 0 1 0 I I #
face $-1 $376 $271 $37 $-1 $377 reversed single #
loop $-1 $-1 $378 $159 #
plane-surface $-1 -61.211801945880438 -23.596373131938392 0 1 0 0 0 0 -1 forward_v I I I I #
coedge $-1 $379 $380 $381 $382 forward $160 $-1 #
coedge $-1 $383 $162 $379 $384 forward $101 $-1 #
coedge $-1 $162 $383 $269 $385 forward $101 $-1 #
edge $-1 $272 21.802197470974757 $386 25.390548792902027 $162 $387 forward 7 unknown #
coedge $-1 $164 $163 $388 $389 forward $64 $-1 #
coedge $-1 $390 $391 $163 $268 forward $392 $-1 #
edge $-1 $393 -25.390548792902027 $273 -21.802197470974757 $267 $394 forward 7 unknown #
coedge $-1 $395 $165 $264 $385 reversed $271 $-1 #
coedge $-1 $165 $395 $390 $396 reversed $271 $-1 #
loop $-1 $-1 $165 $259 #
vertex $-1 $265 $397 #
vertex $-1 $396 $398 #
straight-curve $-1 -50.53010650959807 -21.802197470974757 0 0 0 1 I I #
face $-1 $-1 $399 $38 $-1 $400 reversed single #
loop $-1 $-1 $173 $167 #
plane-surface $-1 0 0 10.532966744207723 0 0 1 1 0 0 forward_v I I I I #
coedge $-1 $401 $402 $403 $404 reversed $168 $-1 #
coedge $-1 $405 $170 $172 $285 forward $105 $-1 #
coedge $-1 $170 $405 $401 $406 forward $105 $-1 #
coedge $-1 $403 $173 $170 $282 forward $276 $-1 #
edge $-1 $288 -7.2648904239764107 $407 11.11297583564685 $281 $408 forward 7 unknown #
coedge $-1 $409 $410 $171 $284 forward $399 $-1 #
edge $-1 $411 -32.668183109726264 $287 -27.001172178009792 $283 $412 forward 7 unknown #
edge $-1 $288 -7.8780721769347064 $411 0 $172 $413 forward 7 unknown #
coedge $-1 $173 $403 $409 $414 forward $276 $-1 #
vertex $-1 $174 $415 #
vertex $-1 $174 $416 #
straight-curve $-1 5.3408477181411911 -49.975423445888104 10.53296674420772 0 1 0 I I #
coedge $-1 $290 $290 $-1 $417 reversed $177 $-1 #
edge $-1 $418 0 $418 6.2831853071796004 $178 $419 forward 7 unknown #
vertex $-1 $181 $420 #
ellipse-curve $-1 -9.3614452895574161 -24.517928246952003 7.6994612783494878 0 -0.71933980857756763 0.69465836192734942 1.5 0 0 1 I I #
coedge $-1 $294 $294 $-1 $421 reversed $184 $-1 #
edge $-1 $422 0 $422 6.2831853071796004 $185 $423 forward 7 unknown #
vertex $-1 $188 $424 #
ellipse-curve $-1 -3.8480854116704393 -24.517928246952003 7.6994612783494878 0 -0.71933980857756763 0.69465836192734942 1.5 0 0 1 I I #
coedge $-1 $298 $298 $-1 $425 reversed $191 $-1 #
edge $-1 $426 0 $426 6.2831853071796004 $192 $427 forward 7 unknown #
vertex $-1 $195 $428 #
ellipse-curve $-1 1.6652744662165375 -24.517928246952003 7.6994612783494878 0 -0.71933980857756763 0.69465836192734942 1.5 0 0 1 I I #
face $-1 $-1 $429 $42 $-1 $430 reversed single #
loop $-1 $-1 $308 $196 #
plane-surface $-1 0 0 10.532966744207723 0 0 1 1 0 0 forward_v I I I I #
coedge $-1 $431 $432 $307 $433 forward $197 $-1 #
coedge $-1 $307 $199 $201 $313 reversed $124 $-1 #
coedge $-1 $199 $306 $305 $433 reversed $124 $-1 #
coedge $-1 $434 $202 $199 $309 forward $303 $-1 #
edge $-1 $316 -28.193779555723548 $435 -22.721210842148658 $308 $436 forward 7 unknown #
coedge $-1 $201 $200 $431 $437 reversed $79 $-1 #
coedge $-1 $438 $439 $200 $312 forward $429 $-1 #
edge $-1 $440 -7.716045480114504 $315 0.16202669682020149 $311 $441 forward 7 unknown #
edge $-1 $442 0 $316 7.8780721769347064 $306 $443 forward 7 unknown #
coedge $-1 $202 $434 $438 $444 forward $303 $-1 #
vertex $-1 $312 $445 #
vertex $-1 $203 $446 #
straight-curve $-1 20.67058668989322 -21.781643890164556 10.532966744207723 -1 0 0 I I #
coedge $-1 $318 $318 $-1 $447 reversed $206 $-1 #
edge $-1 $448 0 $448 6.2831853071796004 $207 $449 forward 7 unknown #
vertex $-1 $210 $450 #
ellipse-curve $-1 35.82781350189947 -24.517928246952003 7.6994612783494878 0 -0.71933980857756763 0.69465836192734942 1.5 0 0 1 I I #
coedge $-1 $322 $322 $-1 $451 reversed $213 $-1 #
edge $-1 $452 0 $452 6.2831853071796004 $214 $453 forward 7 unknown #
vertex $-1 $217 $454 #
ellipse-curve $-1 41.34117337978644 -24.517928246952003 7.6994612783494878 0 -0.71933980857756763 0.69465836192734942 1.5 0 0 1 I I #
coedge $-1 $326 $326 $-1 $455 reversed $220 $-1 #
edge $-1 $456 0 $456 6.2831853071796004 $221 $457 forward 7 unknown #
vertex $-1 $224 $458 #
ellipse-curve $-1 46.854533257673424 -24.517928246952003 7.6994612783494878 0 -0.71933980857756763 0.69465836192734942 1.5 0 0 1 I I #
face $-1 $-1 $459 $46 $-1 $460 reversed single #
loop $-1 $-1 $231 $225 #
plane-surface $-1 0 0 10.532966744207723 0 0 1 1 0 0 forward_v I I I I #
coedge $-1 $461 $462 $463 $464 reversed $226 $-1 #
coedge $-1 $465 $228 $230 $340 forward $143 $-1 #
coedge $-1 $228 $465 $461 $466 forward $143 $-1 #
coedge $-1 $463 $231 $228 $337 forward $331 $-1 #
edge $-1 $343 7.547086142275937 $467 21.450433826842534 $336 $468 forward 7 unknown #
coedge $-1 $469 $470 $229 $339 forward $459 $-1 #
edge $-1 $471 -50.083685236046122 $342 -43.735265770443945 $338 $472 forward 7 unknown #
edge $-1 $343 46.559342903520928 $471 54.508425207478922 $230 $473 forward 7 unknown #
coedge $-1 $231 $463 $469 $474 forward $331 $-1 #
vertex $-1 $339 $475 #
vertex $-1 $232 $476 #
straight-curve $-1 22.045846126835173 37.580249810792658 10.532966744207727 0 -1 0 I I #
coedge $-1 $345 $345 $-1 $477 reversed $235 $-1 #
edge $-1 $478 0 $478 6.2831853071796004 $236 $479 forward 7 unknown #
vertex $-1 $239 $480 #
ellipse-curve $-1 28.997519969118471 24.86227407171873 7.3587570114066487 0 0.79863551827123203 0.60181501223851219 1 0 0 1 I I #
face $-1 $-1 $255 $36 $-1 $481 reversed single #
loop $-1 $-1 $365 $240 #
plane-surface $-1 0 27.254212603739447 0 0 -1 0 0 0 -1 forward_v I I I I #
coedge $-1 $482 $363 $366 $483 forward $241 $-1 #
coedge $-1 $369 $243 $244 $357 reversed $152 $-1 #
coedge $-1 $363 $482 $243 $355 reversed $241 $-1 #
edge $-1 $370 -10.532966744207723 $484 10.532966744207723 $354 $485 forward 7 unknown #
coedge $-1 $245 $244 $482 $486 forward $97 $-1 #
edge $-1 $361 -50.53010650959807 $484 50.53010650959807 $353 $487 forward 7 unknown #
coedge $-1 $366 $365 $245 $359 reversed $350 $-1 #
edge $-1 $488 -50.53010650959807 $360 50.53010650959807 $358 $489 forward 7 unknown #
vertex $-1 $247 $490 #
vertex $-1 $372 $491 #
straight-curve $-1 50.53010650959807 0 -10.532966744207723 0 -1 0 I I #
coedge $-1 $352 $354 $248 $364 reversed $241 $-1 #
edge $-1 $367 -27.254212603739447 $370 27.254212603739447 $363 $492 forward 7 unknown #
coedge $-1 $358 $249 $254 $373 forward $350 $-1 #
coedge $-1 $249 $358 $352 $483 reversed $350 $-1 #
vertex $-1 $250 $493 #
straight-curve $-1 0 27.254212603739447 10.532966744207723 -1 0 0 I I #
coedge $-1 $251 $353 $253 $372 reversed $152 $-1 #
vertex $-1 $364 $494 #
straight-curve $-1 0 -27.254212603739447 10.532966744207723 1 0 0 I I #
edge $-1 $256 -10.532966744207723 $361 10.532966744207723 $253 $495 forward 7 unknown #
edge $-1 $257 -10.532966744207723 $360 10.532966744207723 $254 $496 forward 7 unknown #
point $-1 50.53010650959807 -27.254212603739447 10.532966744207723 #
point $-1 50.53010650959807 27.254212603739447 10.532966744207723 #
face $-1 $-1 $392 $37 $-1 $497 forward single #
plane-surface $-1 -55.870954227739254 -21.802197470974757 0 0 -1 0 0 0 -1 forward_v I I I I #
coedge $-1 $498 $499 $395 $500 forward $260 $-1 #
coedge $-1 $388 $262 $263 $384 reversed $160 $-1 #
coedge $-1 $262 $388 $391 $501 reversed $160 $-1 #
coedge $-1 $499 $498 $262 $382 reversed $260 $-1 #
edge $-1 $502 -10.532966744207723 $503 10.532966744207723 $381 $504 forward 7 unknown #
coedge $-1 $264 $263 $498 $505 forward $101 $-1 #
edge $-1 $386 -5.340847718141184 $503 5.340847718141184 $379 $506 forward 7 unknown #
edge $-1 $507 -5.340847718141184 $272 5.340847718141184 $269 $508 forward 7 unknown #
vertex $-1 $384 $509 #
straight-curve $-1 -50.53010650959807 0 -10.532966744207723 0 -1 0 I I #
coedge $-1 $380 $379 $266 $389 reversed $160 $-1 #
edge $-1 $393 -10.532966744207723 $386 10.532966744207723 $388 $510 forward 7 unknown #
coedge $-1 $511 $267 $270 $396 forward $392 $-1 #
coedge $-1 $267 $511 $380 $501 forward $392 $-1 #
loop $-1 $-1 $267 $376 #
vertex $-1 $268 $512 #
straight-curve $-1 -50.53010650959807 0 10.532966744207723 0 1 0 I I #
coedge $-1 $270 $269 $378 $500 reversed $271 $-1 #
edge $-1 $273 -5.340847718141184 $513 5.340847718141184 $270 $514 forward 7 unknown #
point $-1 -50.53010650959807 -21.802197470974757 -10.532966744207723 #
point $-1 -50.53010650959807 -21.802197470974757 10.532966744207723 #
loop $-1 $-1 $283 $275 #
plane-surface $-1 0 -27.254212603739447 0 0 1 0 0 0 1 forward_v I I I I #
coedge $-1 $402 $278 $280 $406 reversed $168 $-1 #
coedge $-1 $278 $401 $515 $516 reversed $168 $-1 #
coedge $-1 $286 $281 $278 $404 forward $276 $-1 #
edge $-1 $407 -28.193779555723548 $517 -22.721210842148658 $403 $518 forward 7 unknown #
coedge $-1 $280 $279 $410 $519 reversed $105 $-1 #
edge $-1 $520 0 $407 7.8780721769347064 $401 $521 forward 7 unknown #
vertex $-1 $282 $522 #
straight-curve $-1 -1.9240427058352196 -21.781643890164556 10.532966744207723 -1 0 0 I I #
coedge $-1 $515 $283 $286 $414 reversed $399 $-1 #
coedge $-1 $283 $515 $405 $519 forward $399 $-1 #
vertex $-1 $284 $523 #
straight-curve $-1 5.3408477181411911 -27.254212603739447 37.534138922217515 0 0 1 I I #
straight-curve $-1 5.3408477181411911 -27.254212603739447 4.8659558124912508 0 -0.69465836192734942 -0.71933980857756763 I I #
edge $-1 $517 -13.03701854148207 $287 5.3408477181411911 $409 $524 forward 7 unknown #
point $-1 5.3408477181411911 -27.254212603739447 10.532966744207723 #
point $-1 5.3408477181411911 -21.781643890164556 10.532966744207723 #
edge $-1 $525 1 $525 0 $290 $-1 forward 7 unknown #
vertex $-1 $291 $526 #
ellipse-curve $-1 -9.3614452895574161 -22.785229706603428 6.026213787525184 0 -0.71933980857756763 0.69465836192734942 1.5 0 0 1 I I #
point $-1 -7.8614452895574161 -24.517928246952 7.6994612783494851 #
edge $-1 $527 1 $527 0 $294 $-1 forward 7 unknown #
vertex $-1 $295 $528 #
ellipse-curve $-1 -3.8480854116704393 -22.785229706603428 6.026213787525184 0 -0.71933980857756763 0.69465836192734942 1.5 0 0 1 I I #
point $-1 -2.3480854116704393 -24.517928246952 7.6994612783494851 #
edge $-1 $529 1 $529 0 $298 $-1 forward 7 unknown #
vertex $-1 $299 $530 #
ellipse-curve $-1 1.6652744662165375 -22.785229706603428 6.026213787525184 0 -0.71933980857756763 0.69465836192734942 1.5 0 0 1 I I #
point $-1 3.1652744662165375 -24.517928246952 7.6994612783494851 #
loop $-1 $-1 $311 $302 #
plane-surface $-1 50.53010650959807 0 0 -1 0 0 0 0 1 forward_v I I I I #
coedge $-1 $531 $305 $310 $437 forward $197 $-1 #
coedge $-1 $305 $531 $434 $532 reversed $197 $-1 #
edge $-1 $435 27.001172178009792 $442 32.668183109726264 $305 $533 forward 7 unknown #
coedge $-1 $314 $308 $432 $532 forward $303 $-1 #
vertex $-1 $532 $534 #
straight-curve $-1 32.15224024997481 -49.975423445888104 10.53296674420772 0 -1 0 I I #
edge $-1 $442 11.48165356008159 $440 29.85951981970485 $431 $535 forward 7 unknown #
coedge $-1 $439 $311 $314 $444 reversed $429 $-1 #
coedge $-1 $311 $438 $531 $536 forward $429 $-1 #
vertex $-1 $437 $537 #
straight-curve $-1 50.53010650959807 -21.894197089966177 10.416414491132624 0 0.69465836192734942 0.71933980857756763 I I #
vertex $-1 $437 $538 #
straight-curve $-1 32.15224024997481 -27.254212603739447 4.8659558124912508 0 0.69465836192734942 0.71933980857756763 I I #
edge $-1 $539 -27.254212603739447 $315 -21.781643890164556 $438 $540 forward 7 unknown #
point $-1 50.53010650959807 -21.781643890164556 10.532966744207723 #
point $-1 32.15224024997481 -21.781643890164556 10.532966744207723 #
edge $-1 $541 1 $541 0 $318 $-1 forward 7 unknown #
vertex $-1 $319 $542 #
ellipse-curve $-1 35.82781350189947 -22.785229706603428 6.026213787525184 0 -0.71933980857756763 0.69465836192734942 1.5 0 0 1 I I #
point $-1 37.32781350189947 -24.517928246952 7.6994612783494851 #
edge $-1 $543 1 $543 0 $322 $-1 forward 7 unknown #
vertex $-1 $323 $544 #
ellipse-curve $-1 41.34117337978644 -22.785229706603428 6.026213787525184 0 -0.71933980857756763 0.69465836192734942 1.5 0 0 1 I I #
point $-1 42.84117337978644 -24.517928246952 7.6994612783494851 #
edge $-1 $545 1 $545 0 $326 $-1 forward 7 unknown #
vertex $-1 $327 $546 #
ellipse-curve $-1 46.854533257673424 -22.785229706603428 6.026213787525184 0 -0.71933980857756763 0.69465836192734942 1.5 0 0 1 I I #
point $-1 48.354533257673424 -24.517928246952 7.6994612783494851 #
loop $-1 $-1 $338 $330 #
plane-surface $-1 0 27.254212603739447 0 0 -1 0 0 0 -1 forward_v I I I I #
coedge $-1 $462 $333 $335 $466 reversed $226 $-1 #
coedge $-1 $333 $461 $547 $548 reversed $226 $-1 #
coedge $-1 $341 $336 $333 $464 forward $331 $-1 #
edge $-1 $467 -15.109914271094631 $549 -10.326037207053211 $463 $550 forward 7 unknown #
coedge $-1 $335 $334 $470 $551 reversed $143 $-1 #
edge $-1 $552 -54.508425207478922 $467 -46.559342903520928 $461 $553 forward 7 unknown #
vertex $-1 $337 $554 #
straight-curve $-1 14.498759984559236 22.470335539698027 10.532966744207723 1 0 0 I I #
coedge $-1 $547 $338 $341 $474 reversed $459 $-1 #
coedge $-1 $338 $547 $465 $551 forward $459 $-1 #
vertex $-1 $339 $555 #
straight-curve $-1 22.045846126835173 27.254212603739447 54.268232514651672 0 0 1 I I #
straight-curve $-1 22.045846126835173 -5.549775979601506 47.71691169432917 0 0.60181501223851219 -0.79863551827123203 I I #
edge $-1 $549 -35.94919381140177 $342 -22.045846126835173 $469 $556 forward 7 unknown #
point $-1 22.045846126835173 27.254212603739447 10.532966744207723 #
point $-1 22.045846126835173 22.470335539698027 10.532966744207727 #
edge $-1 $557 1 $557 0 $345 $-1 forward 7 unknown #
vertex $-1 $346 $558 #
ellipse-curve $-1 28.997519969118471 23.045010842179789 5.9893509836194534 0 0.79863551827123203 0.60181501223851219 1 0 0 1 I I #
point $-1 29.997519969118471 24.862274071718748 7.3587570114066612 #
plane-surface $-1 50.53010650959807 0 0 -1 0 0 0 0 1 forward_v I I I I #
coedge $-1 $354 $352 $356 $486 reversed $241 $-1 #
edge $-1 $367 -10.532966744207723 $488 10.532966744207723 $366 $559 forward 7 unknown #
vertex $-1 $486 $560 #
straight-curve $-1 -50.53010650959807 -27.254212603739447 0 0 0 -1 I I #
edge $-1 $484 -27.254212603739447 $488 27.254212603739447 $482 $561 forward 7 unknown #
straight-curve $-1 0 -27.254212603739447 -10.532966744207723 -1 0 0 I I #
vertex $-1 $359 $562 #
straight-curve $-1 0 27.254212603739447 -10.532966744207723 1 0 0 I I #
point $-1 50.53010650959807 27.254212603739447 -10.532966744207723 #
point $-1 50.53010650959807 -27.254212603739447 -10.532966744207723 #
straight-curve $-1 -50.53010650959807 0 10.532966744207723 0 -1 0 I I #
point $-1 -50.53010650959807 27.254212603739447 10.532966744207723 #
point $-1 -50.53010650959807 -27.254212603739447 10.532966744207723 #
straight-curve $-1 50.53010650959807 -27.254212603739447 0 0 0 -1 I I #
straight-curve $-1 50.53010650959807 27.254212603739447 0 0 0 -1 I I #
plane-surface $-1 0 0 10.532966744207723 0 0 1 1 0 0 forward_v I I I I #
coedge $-1 $381 $378 $383 $505 reversed $260 $-1 #
coedge $-1 $378 $381 $511 $563 reversed $260 $-1 #
edge $-1 $513 -10.532966744207723 $507 10.532966744207723 $395 $564 forward 7 unknown #
edge $-1 $502 -5.340847718141184 $393 5.340847718141184 $380 $565 forward 7 unknown #
vertex $-1 $563 $566 #
vertex $-1 $505 $567 #
straight-curve $-1 -61.211801945880438 -25.390548792902027 0 0 0 -1 I I #
edge $-1 $503 -1.794175660963635 $507 1.794175660963635 $498 $568 forward 7 unknown #
straight-curve $-1 -55.870954227739254 -25.390548792902027 -10.532966744207723 -1 0 0 I I #
vertex $-1 $385 $569 #
straight-curve $-1 -55.870954227739254 -21.802197470974757 -10.532966744207723 1 0 0 I I #
point $-1 -50.53010650959807 -25.390548792902027 -10.532966744207723 #
straight-curve $-1 -50.53010650959807 -25.390548792902027 0 0 0 -1 I I #
coedge $-1 $391 $390 $499 $563 forward $392 $-1 #
point $-1 -50.53010650959807 -25.390548792902027 10.532966744207723 #
vertex $-1 $396 $570 #
straight-curve $-1 -55.870954227739254 -21.802197470974757 10.532966744207723 -1 0 0 I I #
coedge $-1 $410 $409 $402 $516 forward $399 $-1 #
edge $-1 $517 27.001172178009792 $520 32.668183109726264 $515 $571 forward 7 unknown #
vertex $-1 $414 $572 #
straight-curve $-1 -13.03701854148207 -49.975423445888104 10.53296674420772 0 -1 0 I I #
edge $-1 $520 -11.11297583564685 $411 7.2648904239764107 $410 $573 forward 7 unknown #
vertex $-1 $519 $574 #
straight-curve $-1 -13.03701854148207 -27.254212603739447 4.8659558124912508 0 0.69465836192734942 0.71933980857756763 I I #
point $-1 -13.03701854148207 -21.781643890164556 10.532966744207723 #
point $-1 5.3408477181411911 -27.254212603739447 4.8659558124912508 #
straight-curve $-1 0 -27.254212603739447 10.532966744207723 1 0 0 I I #
vertex $-1 $417 $575 #
point $-1 -7.8614452895574161 -22.785229706603428 6.026213787525184 #
vertex $-1 $421 $576 #
point $-1 -2.3480854116704393 -22.785229706603428 6.026213787525184 #
vertex $-1 $425 $577 #
point $-1 3.1652744662165375 -22.785229706603428 6.026213787525184 #
coedge $-1 $432 $431 $439 $536 reversed $197 $-1 #
edge $-1 $435 32.15224024997481 $539 50.53010650959807 $432 $578 forward 7 unknown #
straight-curve $-1 32.15224024997481 -27.254212603739447 37.534138922217515 0 0 -1 I I #
point $-1 32.15224024997481 -27.254212603739447 10.532966744207723 #
straight-curve $-1 20.67058668989322 -27.254212603739447 4.8659558124912508 1 0 0 I I #
edge $-1 $539 -10.532966744207723 $440 -4.8659558124912508 $439 $579 forward 7 unknown #
point $-1 50.53010650959807 -27.254212603739447 4.8659558124912508 #
point $-1 32.15224024997481 -27.254212603739447 4.8659558124912508 #
vertex $-1 $444 $580 #
straight-curve $-1 50.53010650959807 0 10.532966744207723 0 1 0 I I #
vertex $-1 $447 $581 #
point $-1 37.32781350189947 -22.785229706603428 6.026213787525184 #
vertex $-1 $451 $582 #
point $-1 42.84117337978644 -22.785229706603428 6.026213787525184 #
vertex $-1 $455 $583 #
point $-1 48.354533257673424 -22.785229706603428 6.026213787525184 #
coedge $-1 $470 $469 $462 $548 forward $459 $-1 #
edge $-1 $549 43.735265770443945 $552 50.083685236046122 $547 $584 forward 7 unknown #
vertex $-1 $474 $585 #
straight-curve $-1 35.94919381140177 37.580249810792658 10.532966744207727 0 1 0 I I #
edge $-1 $552 -21.450433826842534 $471 -7.547086142275937 $470 $586 forward 7 unknown #
vertex $-1 $551 $587 #
straight-curve $-1 35.94919381140177 -5.549775979601506 47.71691169432917 0 -0.60181501223851219 0.79863551827123203 I I #
point $-1 35.94919381140177 22.470335539698027 10.532966744207727 #
point $-1 22.045846126835173 27.254212603739447 4.1845472786055495 #
straight-curve $-1 0 27.254212603739447 10.532966744207723 -1 0 0 I I #
vertex $-1 $477 $588 #
point $-1 29.997519969118471 23.045010842179789 5.9893509836194534 #
straight-curve $-1 -50.53010650959807 27.254212603739447 0 0 0 -1 I I #
point $-1 -50.53010650959807 -27.254212603739447 -10.532966744207723 #
straight-curve $-1 -50.53010650959807 0 -10.532966744207723 0 1 0 I I #
point $-1 -50.53010650959807 27.254212603739447 -10.532966744207723 #
edge $-1 $513 -1.794175660963635 $502 1.794175660963635 $499 $589 forward 7 unknown #
straight-curve $-1 -61.211801945880438 -21.802197470974757 0 0 0 -1 I I #
straight-curve $-1 -55.870954227739254 -25.390548792902027 10.532966744207723 1 0 0 I I #
point $-1 -61.211801945880438 -25.390548792902027 10.532966744207723 #
point $-1 -61.211801945880438 -25.390548792902027 -10.532966744207723 #
straight-curve $-1 -61.211801945880438 -23.596373131938392 -10.532966744207723 0 1 0 I I #
point $-1 -61.211801945880438 -21.802197470974757 -10.532966744207723 #
point $-1 -61.211801945880438 -21.802197470974757 10.532966744207723 #
straight-curve $-1 -13.03701854148207 -27.254212603739447 37.534138922217515 0 0 -1 I I #
point $-1 -13.03701854148207 -27.254212603739447 10.532966744207723 #
straight-curve $-1 -1.9240427058352196 -27.254212603739447 4.8659558124912508 1 0 0 I I #
point $-1 -13.03701854148207 -27.254212603739447 4.8659558124912508 #
point $-1 -9.3614452895574161 -21.706219993737076 4.9842262446341605 #
point $-1 -3.8480854116704393 -21.706219993737076 4.9842262446341605 #
point $-1 1.6652744662165375 -21.706219993737076 4.9842262446341605 #
straight-curve $-1 0 -27.254212603739447 10.532966744207723 1 0 0 I I #
straight-curve $-1 50.53010650959807 -27.254212603739447 0 0 0 -1 I I #
point $-1 50.53010650959807 -27.254212603739447 10.532966744207723 #
point $-1 35.82781350189947 -21.706219993737076 4.9842262446341605 #
point $-1 41.34117337978644 -21.706219993737076 4.9842262446341605 #
point $-1 46.854533257673424 -21.706219993737076 4.9842262446341605 #
straight-curve $-1 35.94919381140177 27.254212603739447 54.268232514651672 0 0 -1 I I #
point $-1 35.94919381140177 27.254212603739447 10.532966744207723 #
straight-curve $-1 14.498759984559236 27.254212603739447 4.1845472786055566 -1 0 0 I I #
point $-1 35.94919381140177 27.254212603739447 4.1845472786055495 #
point $-1 28.997519969118471 22.246375323908556 5.3875359713809408 #
straight-curve $-1 -61.211801945880438 -23.596373131938392 10.532966744207723 0 -1 0 I I #
End-of-ACIS-data 