500 0 6 0           
7 Unknown 11 ACIS 5.0 NT 24 Fri Mar 26 16:43:11 1999 
-1 9.9999999999999995e-007 1e-010 
body $-1 $6 $-1 $7 #
body $-1 $8 $-1 $9 #
body $-1 $10 $-1 $11 #
body $-1 $12 $-1 $13 #
body $-1 $14 $-1 $15 #
body $-1 $16 $-1 $17 #
lump $-1 $-1 $18 $0 #
transform $-1 1 0 0 0 1 0 0 0 1 69.402752769554738 34.464152705154881 12.729343794492538 1 rotate no_reflect no_shear #
lump $-1 $-1 $19 $1 #
transform $-1 1 0 0 0 1 0 0 0 1 69.402752769554738 34.464152705154881 12.729343794492538 1 rotate no_reflect no_shear #
lump $-1 $-1 $20 $2 #
transform $-1 1 0 0 0 1 0 0 0 1 69.402752769554738 34.464152705154881 12.729343794492538 1 rotate no_reflect no_shear #
lump $-1 $-1 $21 $3 #
transform $-1 1 0 0 0 1 0 0 0 1 69.402752769554738 34.464152705154881 12.729343794492538 1 rotate no_reflect no_shear #
lump $-1 $-1 $22 $4 #
transform $-1 1 0 0 0 1 0 0 0 1 69.402752769554738 34.464152705154881 12.729343794492538 1 rotate no_reflect no_shear #
lump $-1 $-1 $23 $5 #
transform $-1 1 0 0 0 1 0 0 0 1 69.402752769554738 34.464152705154881 12.729343794492538 1 rotate no_reflect no_shear #
shell $-1 $-1 $-1 $24 $-1 $6 #
shell $-1 $-1 $-1 $25 $-1 $8 #
shell $-1 $-1 $-1 $26 $-1 $10 #
shell $-1 $-1 $-1 $27 $-1 $12 #
shell $-1 $-1 $-1 $28 $-1 $14 #
shell $-1 $-1 $-1 $29 $-1 $16 #
face $-1 $30 $31 $18 $-1 $32 forward single #
face $-1 $33 $34 $19 $-1 $35 reversed single #
face $-1 $36 $37 $20 $-1 $38 reversed single #
face $-1 $39 $40 $21 $-1 $41 forward single #
face $-1 $42 $43 $22 $-1 $44 reversed single #
face $-1 $45 $46 $23 $-1 $47 forward single #
face $-1 $48 $49 $18 $-1 $50 reversed single #
loop $-1 $-1 $51 $24 #
plane-surface $-1 0 0 12.729343794492538 0 0 1 1 0 0 forward_v I I I I #
face $-1 $52 $53 $19 $-1 $54 reversed single #
loop $-1 $-1 $55 $25 #
plane-surface $-1 -63.340882075366949 0 8.3417662108334394 0 0 1 1 0 0 forward_v I I I I #
face $-1 $56 $57 $20 $-1 $58 reversed single #
loop $-1 $-1 $59 $26 #
plane-surface $-1 39.76609395274879 120.20909597914087 138.67670237717243 1 0 0 0 -0.86602541151947299 -0.49999998660252726 forward_v I I I I #
face $-1 $60 $61 $21 $-1 $62 forward single #
loop $-1 $63 $64 $27 #
cone-surface $-1 54.584423361151764 32.839623825353122 10.741736142594664 0 -0.86602541151947299 -0.49999998660252726 0.5 0 0 1 I I 0 1 0.5 forward I I I I #
face $-1 $65 $66 $22 $-1 $67 reversed single #
loop $-1 $-1 $68 $28 #
plane-surface $-1 54.584423361151764 -34.464152705154888 9.580287408957247 0 -0.86602541151947299 0.49999998660252726 1 0 0 forward_v I I I I #
face $-1 $69 $70 $23 $-1 $71 forward single #
loop $-1 $72 $73 $29 #
cone-surface $-1 54.584423361151764 -32.839623825353129 10.74173614259465 0 0.86602541151947299 -0.49999998660252726 0.5 0 0 1 I I 0 1 0.5 forward I I I I #
face $-1 $74 $75 $18 $-1 $76 reversed single #
loop $-1 $-1 $77 $30 #
plane-surface $-1 0 0 -12.729343794492538 0 0 1 1 0 0 forward_v I I I I #
coedge $-1 $78 $79 $80 $81 forward $31 $-1 #
face $-1 $82 $83 $19 $-1 $84 reversed single #
loop $-1 $-1 $85 $33 #
plane-surface $-1 -57.27901138117916 0 10.535555002662987 -1 0 0 0 0 1 forward_v I I I I #
coedge $-1 $86 $87 $88 $89 forward $34 $-1 #
face $-1 $90 $91 $20 $-1 $92 forward single #
loop $-1 $-1 $93 $36 #
plane-surface $-1 54.584423361151764 9.2346509461549431e-007 69.273951467260673 0 0.86602541151947299 0.49999998660252726 1 0 0 forward_v I I I I #
coedge $-1 $94 $95 $96 $97 reversed $37 $-1 #
face $-1 $-1 $98 $21 $-1 $99 forward single #
loop $-1 $100 $101 $39 #
cone-surface $-1 54.584423361151764 31.907642836135146 10.203656686813799 0 -0.86602541151947299 -0.49999998660252726 0.25 0 0 1 I I -0.70710678118654746 0.70710678118654746 0.25 forward I I I I #
loop $-1 $-1 $102 $27 #
coedge $-1 $64 $64 $103 $104 reversed $40 $-1 #
face $-1 $105 $106 $22 $-1 $107 forward single #
loop $-1 $-1 $108 $42 #
plane-surface $-1 39.76609395274879 -154.67324776083066 78.983038318869006 1 0 0 0 0.86602541151947299 -0.49999998660252726 forward_v I I I I #
coedge $-1 $109 $110 $111 $112 reversed $43 $-1 #
face $-1 $-1 $113 $23 $-1 $114 forward single #
loop $-1 $115 $116 $45 #
cone-surface $-1 54.584423361151764 -31.907642836135153 10.203656686813785 0 0.86602541151947299 -0.49999998660252726 0.25 0 0 1 I I -0.70710678118654746 0.70710678118654746 0.25 forward I I I I #
loop $-1 $-1 $117 $29 #
coedge $-1 $73 $73 $118 $119 reversed $46 $-1 #
face $-1 $120 $121 $18 $-1 $122 reversed single #
loop $-1 $-1 $123 $48 #
plane-surface $-1 0 -34.464152705154881 0 0 1 0 0 0 1 forward_v I I I I #
coedge $-1 $124 $125 $126 $127 forward $49 $-1 #
coedge $-1 $128 $51 $129 $130 forward $31 $-1 #
coedge $-1 $51 $128 $131 $132 forward $31 $-1 #
coedge $-1 $133 $134 $51 $81 reversed $135 $-1 #
edge $-1 $136 -34.464152705154881 $137 34.464152705154881 $80 $138 forward 7 unknown #
face $-1 $139 $140 $19 $-1 $141 reversed single #
loop $-1 $-1 $142 $52 #
plane-surface $-1 0 34.464152705154881 0 0 -1 0 0 0 -1 forward_v I I I I #
coedge $-1 $88 $143 $144 $145 reversed $53 $-1 #
coedge $-1 $146 $55 $147 $148 reversed $34 $-1 #
coedge $-1 $55 $146 $149 $150 reversed $34 $-1 #
coedge $-1 $151 $85 $55 $89 reversed $53 $-1 #
edge $-1 $152 -34.464152705154881 $153 34.464152705154881 $88 $154 forward 7 unknown #
face $-1 $155 $156 $20 $-1 $157 reversed single #
loop $-1 $-1 $96 $56 #
plane-surface $-1 0 0 12.729343794492538 0 0 1 1 0 0 forward_v I I I I #
coedge $-1 $158 $159 $160 $161 reversed $57 $-1 #
coedge $-1 $95 $59 $162 $163 reversed $37 $-1 #
coedge $-1 $59 $94 $158 $164 reversed $37 $-1 #
coedge $-1 $160 $165 $59 $97 forward $91 $-1 #
edge $-1 $166 25.640395284415554 $167 27.458503771342841 $96 $168 forward 7 unknown #
loop $-1 $-1 $103 $60 #
plane-surface $-1 54.584423361151764 9.2346509461549431e-007 69.273951467260673 0 0.86602541151947299 0.49999998660252726 1 0 0 forward_v I I I I #
loop $-1 $-1 $169 $39 #
coedge $-1 $101 $101 $102 $170 reversed $61 $-1 #
coedge $-1 $102 $102 $101 $170 forward $63 $-1 #
coedge $-1 $103 $103 $64 $104 forward $98 $-1 #
edge $-1 $171 2.124793809870731e-015 $171 6.2831853071796022 $103 $172 forward 7 unknown #
face $-1 $173 $174 $22 $-1 $175 reversed single #
loop $-1 $-1 $111 $65 #
plane-surface $-1 0 0 12.729343794492538 0 0 1 1 0 0 forward_v I I I I #
coedge $-1 $176 $177 $178 $179 reversed $66 $-1 #
coedge $-1 $180 $68 $181 $182 reversed $43 $-1 #
coedge $-1 $68 $180 $176 $183 forward $43 $-1 #
coedge $-1 $178 $184 $68 $112 forward $106 $-1 #
edge $-1 $185 -42.110541088978856 $186 -12.473882272172908 $111 $187 forward 7 unknown #
loop $-1 $-1 $118 $69 #
plane-surface $-1 54.584423361151764 -34.464152705154888 9.580287408957247 0 -0.86602541151947299 0.49999998660252726 1 0 0 forward_v I I I I #
loop $-1 $-1 $188 $45 #
coedge $-1 $116 $116 $117 $189 reversed $70 $-1 #
coedge $-1 $117 $117 $116 $189 forward $72 $-1 #
coedge $-1 $118 $118 $73 $119 forward $113 $-1 #
edge $-1 $190 -5.201534135564796e-015 $190 6.2831853071795951 $118 $191 forward 7 unknown #
face $-1 $192 $193 $18 $-1 $194 reversed single #
loop $-1 $-1 $195 $74 #
plane-surface $-1 -69.402752769554738 0 0 1 0 0 0 0 -1 forward_v I I I I #
coedge $-1 $196 $131 $197 $198 forward $75 $-1 #
coedge $-1 $199 $77 $196 $200 forward $49 $-1 #
coedge $-1 $77 $199 $201 $202 forward $49 $-1 #
coedge $-1 $134 $133 $77 $127 reversed $135 $-1 #
edge $-1 $203 -34.464152705154881 $204 34.464152705154881 $126 $205 forward 7 unknown #
coedge $-1 $79 $78 $206 $207 forward $31 $-1 #
coedge $-1 $208 $209 $78 $130 reversed $193 $-1 #
edge $-1 $137 -69.402752769554738 $210 69.402752769554738 $129 $211 forward 7 unknown #
coedge $-1 $123 $212 $79 $132 reversed $75 $-1 #
edge $-1 $213 -69.402752769554738 $136 69.402752769554738 $131 $214 forward 7 unknown #
coedge $-1 $126 $80 $212 $215 forward $135 $-1 #
coedge $-1 $80 $126 $208 $216 reversed $135 $-1 #
loop $-1 $-1 $133 $192 #
vertex $-1 $81 $217 #
vertex $-1 $81 $218 #
straight-curve $-1 69.402752769554738 0 12.729343794492538 0 1 0 I I #
face $-1 $219 $220 $19 $-1 $221 forward single #
loop $-1 $-1 $222 $82 #
plane-surface $-1 -69.402752769554738 0 0 1 0 0 0 0 -1 forward_v I I I I #
coedge $-1 $149 $223 $151 $224 forward $83 $-1 #
coedge $-1 $85 $151 $225 $226 reversed $53 $-1 #
coedge $-1 $227 $147 $85 $145 forward $228 $-1 #
edge $-1 $153 3.073988709501946 $229 7.4615662931610407 $144 $230 forward 7 unknown #
coedge $-1 $87 $86 $222 $231 reversed $34 $-1 #
coedge $-1 $144 $232 $86 $148 forward $228 $-1 #
edge $-1 $233 -37.732311731871263 $153 -25.608570343495686 $147 $234 forward 7 unknown #
coedge $-1 $235 $142 $87 $150 forward $83 $-1 #
edge $-1 $152 25.608570343495686 $236 37.732311731871263 $149 $237 forward 7 unknown #
coedge $-1 $143 $88 $142 $224 reversed $53 $-1 #
vertex $-1 $150 $238 #
vertex $-1 $148 $239 #
straight-curve $-1 -57.27901138117916 0 8.3417662108334394 0 -1 0 I I #
face $-1 $-1 $240 $20 $-1 $241 reversed single #
loop $-1 $-1 $242 $90 #
plane-surface $-1 69.402752769554738 0 0 -1 0 0 0 0 1 forward_v I I I I #
coedge $-1 $243 $93 $95 $164 forward $57 $-1 #
coedge $-1 $93 $243 $242 $244 reversed $57 $-1 #
coedge $-1 $245 $96 $93 $161 forward $91 $-1 #
edge $-1 $167 12.473882272172908 $246 42.110541088978856 $160 $247 forward 7 unknown #
coedge $-1 $248 $249 $94 $163 forward $240 $-1 #
edge $-1 $250 -59.758063779628969 $166 -56.60900739409368 $162 $251 forward 7 unknown #
edge $-1 $167 65.292088339022953 $250 68.928305410309761 $95 $252 forward 7 unknown #
coedge $-1 $96 $245 $248 $253 forward $91 $-1 #
vertex $-1 $163 $254 #
vertex $-1 $97 $255 #
straight-curve $-1 39.76609395274879 60.104547989570435 12.729343794492536 0 -1 0 I I #
coedge $-1 $169 $169 $-1 $256 reversed $100 $-1 #
edge $-1 $257 0 $257 6.2831853071796004 $101 $258 forward 7 unknown #
vertex $-1 $104 $259 #
ellipse-curve $-1 54.584423361151764 33.555098461691237 11.154815601724902 0 0.86602541151947299 0.49999998660252726 0.5 0 0 1 I I #
face $-1 $-1 $260 $22 $-1 $261 reversed single #
loop $-1 $-1 $262 $105 #
plane-surface $-1 0 -34.464152705154881 0 0 1 0 0 0 1 forward_v I I I I #
coedge $-1 $177 $108 $110 $183 reversed $66 $-1 #
coedge $-1 $108 $176 $263 $264 reversed $66 $-1 #
coedge $-1 $265 $111 $108 $179 forward $106 $-1 #
edge $-1 $186 -44.69057966218773 $266 -42.872471175260451 $178 $267 forward 7 unknown #
coedge $-1 $110 $109 $262 $268 reversed $43 $-1 #
coedge $-1 $269 $270 $109 $182 forward $260 $-1 #
edge $-1 $271 -4.4676517725139231 $185 -0.83143470122712893 $181 $272 forward 7 unknown #
edge $-1 $273 1.4321304723534956e-014 $186 3.6362170712868087 $176 $274 forward 7 unknown #
coedge $-1 $111 $265 $269 $275 forward $106 $-1 #
vertex $-1 $182 $276 #
vertex $-1 $112 $277 #
straight-curve $-1 27.292211680575882 -32.646044218227601 12.729343794492538 -1 0 0 I I #
coedge $-1 $188 $188 $-1 $278 reversed $115 $-1 #
edge $-1 $279 0 $279 6.2831853071796004 $116 $280 forward 7 unknown #
vertex $-1 $119 $281 #
ellipse-curve $-1 54.584423361151764 -33.555098461691244 11.15481560172489 0 -0.86602541151947299 0.49999998660252726 0.5 0 0 1 I I #
face $-1 $-1 $135 $18 $-1 $282 reversed single #
loop $-1 $-1 $208 $120 #
plane-surface $-1 0 34.464152705154881 0 0 -1 0 0 0 -1 forward_v I I I I #
coedge $-1 $283 $206 $209 $284 forward $121 $-1 #
coedge $-1 $212 $123 $124 $200 reversed $75 $-1 #
coedge $-1 $206 $283 $123 $198 reversed $121 $-1 #
edge $-1 $213 -12.729343794492538 $285 12.729343794492538 $197 $286 forward 7 unknown #
coedge $-1 $125 $124 $283 $287 forward $49 $-1 #
edge $-1 $204 -69.402752769554738 $285 69.402752769554738 $196 $288 forward 7 unknown #
coedge $-1 $209 $208 $125 $202 reversed $193 $-1 #
edge $-1 $289 -69.402752769554738 $203 69.402752769554738 $201 $290 forward 7 unknown #
vertex $-1 $127 $291 #
vertex $-1 $215 $292 #
straight-curve $-1 69.402752769554738 0 -12.729343794492538 0 -1 0 I I #
coedge $-1 $195 $197 $128 $207 reversed $121 $-1 #
edge $-1 $210 -34.464152705154881 $213 34.464152705154881 $206 $293 forward 7 unknown #
coedge $-1 $201 $129 $134 $216 forward $193 $-1 #
coedge $-1 $129 $201 $195 $284 reversed $193 $-1 #
vertex $-1 $130 $294 #
straight-curve $-1 0 34.464152705154881 12.729343794492538 -1 0 0 I I #
coedge $-1 $131 $196 $133 $215 reversed $75 $-1 #
vertex $-1 $207 $295 #
straight-curve $-1 0 -34.464152705154881 12.729343794492538 1 0 0 I I #
edge $-1 $136 -12.729343794492538 $204 12.729343794492538 $133 $296 forward 7 unknown #
edge $-1 $137 -12.729343794492538 $203 12.729343794492538 $134 $297 forward 7 unknown #
point $-1 69.402752769554738 -34.464152705154881 12.729343794492538 #
point $-1 69.402752769554738 34.464152705154881 12.729343794492538 #
face $-1 $-1 $228 $19 $-1 $298 reversed single #
loop $-1 $-1 $225 $139 #
plane-surface $-1 0 0 12.729343794492538 0 0 1 1 0 0 forward_v I I I I #
coedge $-1 $299 $300 $146 $231 forward $140 $-1 #
coedge $-1 $142 $235 $301 $302 reversed $83 $-1 #
edge $-1 $303 -7.4615662931610407 $152 -3.073988709501946 $142 $304 forward 7 unknown #
coedge $-1 $301 $305 $143 $226 forward $220 $-1 #
edge $-1 $229 -34.464152705154881 $303 34.464152705154881 $225 $306 forward 7 unknown #
coedge $-1 $232 $144 $305 $307 reversed $228 $-1 #
loop $-1 $-1 $144 $219 #
vertex $-1 $145 $308 #
straight-curve $-1 -57.27901138117916 -34.464152705154881 5.2677775013314934 0 0 1 I I #
edge $-1 $236 -34.464152705154881 $233 34.464152705154881 $222 $309 forward 7 unknown #
coedge $-1 $147 $227 $299 $310 forward $228 $-1 #
vertex $-1 $231 $311 #
straight-curve $-1 -31.670441037683474 -34.464152705154881 8.3417662108334394 1 0 0 I I #
coedge $-1 $223 $149 $300 $312 reversed $83 $-1 #
vertex $-1 $231 $313 #
straight-curve $-1 -31.670441037683474 34.464152705154881 8.3417662108334394 -1 0 0 I I #
point $-1 -57.27901138117916 34.464152705154881 8.3417662108334394 #
point $-1 -57.27901138117916 -34.464152705154881 8.3417662108334394 #
loop $-1 $-1 $162 $155 #
plane-surface $-1 0 34.464152705154881 0 0 -1 0 0 0 -1 forward_v I I I I #
coedge $-1 $314 $315 $159 $244 forward $156 $-1 #
coedge $-1 $159 $158 $249 $316 reversed $57 $-1 #
edge $-1 $246 35.295587406382005 $317 38.931804477668813 $242 $318 forward 7 unknown #
coedge $-1 $165 $160 $315 $319 forward $91 $-1 #
vertex $-1 $319 $320 #
straight-curve $-1 27.292211680575882 32.646044218227601 12.729343794492536 1 0 0 I I #
coedge $-1 $321 $162 $165 $253 reversed $240 $-1 #
coedge $-1 $162 $321 $243 $316 forward $240 $-1 #
vertex $-1 $163 $322 #
straight-curve $-1 39.76609395274879 34.464152705154881 69.338351188586216 0 0 1 I I #
straight-curve $-1 39.76609395274879 9.2346509461549431e-007 69.273951467260673 0 0.49999998660252726 -0.86602541151947299 I I #
edge $-1 $323 -69.402752769554738 $166 -39.76609395274879 $248 $324 forward 7 unknown #
point $-1 39.76609395274879 34.464152705154881 12.729343794492538 #
point $-1 39.76609395274879 32.646044218227594 12.729343794492536 #
edge $-1 $325 1 $325 0 $169 $-1 forward 7 unknown #
vertex $-1 $170 $326 #
ellipse-curve $-1 54.584423361151764 32.124149189015014 10.32865668346443 0 0.86602541151947299 0.49999998660252726 0.5 0 0 1 I I #
point $-1 55.084423361151764 33.55509846169123 11.154815601724897 #
loop $-1 $-1 $181 $173 #
plane-surface $-1 69.402752769554738 0 0 -1 0 0 0 0 1 forward_v I I I I #
coedge $-1 $327 $263 $180 $268 forward $174 $-1 #
coedge $-1 $262 $328 $177 $264 forward $174 $-1 #
edge $-1 $266 26.762175364941967 $273 29.911231750477242 $263 $329 forward 7 unknown #
coedge $-1 $184 $178 $328 $330 forward $106 $-1 #
vertex $-1 $330 $331 #
straight-curve $-1 39.76609395274879 -77.336623880415331 12.729343794492536 0 -1 0 I I #
edge $-1 $273 12.473882272172908 $271 42.110541088978856 $262 $332 forward 7 unknown #
coedge $-1 $270 $181 $184 $275 reversed $260 $-1 #
coedge $-1 $181 $269 $327 $333 forward $260 $-1 #
vertex $-1 $268 $334 #
straight-curve $-1 69.402752769554738 -32.230326878753161 13.449387373774332 0 0.49999998660252726 0.86602541151947299 I I #
vertex $-1 $268 $335 #
straight-curve $-1 39.76609395274879 -34.464152705154888 9.580287408957247 0 0.49999998660252726 0.86602541151947299 I I #
edge $-1 $336 -34.464152705154881 $185 -32.646044218227601 $269 $337 forward 7 unknown #
point $-1 69.402752769554738 -32.646044218227601 12.729343794492538 #
point $-1 39.76609395274879 -32.646044218227601 12.729343794492538 #
edge $-1 $338 1 $338 0 $188 $-1 forward 7 unknown #
vertex $-1 $189 $339 #
ellipse-curve $-1 54.584423361151764 -32.124149189015021 10.328656683464416 0 -0.86602541151947299 0.49999998660252726 0.5 0 0 1 I I #
point $-1 55.084423361151764 -33.555098461691237 11.154815601724883 #
plane-surface $-1 69.402752769554738 0 0 -1 0 0 0 0 1 forward_v I I I I #
coedge $-1 $197 $195 $199 $287 reversed $121 $-1 #
edge $-1 $210 -12.729343794492538 $289 12.729343794492538 $209 $340 forward 7 unknown #
vertex $-1 $287 $341 #
straight-curve $-1 -69.402752769554738 -34.464152705154881 0 0 0 -1 I I #
edge $-1 $285 -34.464152705154881 $289 34.464152705154881 $283 $342 forward 7 unknown #
straight-curve $-1 0 -34.464152705154881 -12.729343794492538 -1 0 0 I I #
vertex $-1 $202 $343 #
straight-curve $-1 0 34.464152705154881 -12.729343794492538 1 0 0 I I #
point $-1 69.402752769554738 34.464152705154881 -12.729343794492538 #
point $-1 69.402752769554738 -34.464152705154881 -12.729343794492538 #
straight-curve $-1 -69.402752769554738 0 12.729343794492538 0 -1 0 I I #
point $-1 -69.402752769554738 34.464152705154881 12.729343794492538 #
point $-1 -69.402752769554738 -34.464152705154881 12.729343794492538 #
straight-curve $-1 69.402752769554738 -34.464152705154881 0 0 0 -1 I I #
straight-curve $-1 69.402752769554738 34.464152705154881 0 0 0 -1 I I #
plane-surface $-1 0 -34.464152705154881 0 0 1 0 0 0 1 forward_v I I I I #
coedge $-1 $344 $222 $232 $310 reversed $140 $-1 #
coedge $-1 $222 $344 $235 $312 forward $140 $-1 #
coedge $-1 $345 $225 $223 $302 forward $220 $-1 #
edge $-1 $303 57.27901138117916 $346 69.402752769554738 $223 $347 forward 7 unknown #
vertex $-1 $302 $348 #
straight-curve $-1 -57.27901138117916 34.464152705154881 5.2677775013314934 0 0 -1 I I #
coedge $-1 $225 $345 $227 $307 forward $220 $-1 #
straight-curve $-1 -57.27901138117916 0 12.729343794492538 0 1 0 I I #
edge $-1 $349 -69.402752769554738 $229 -57.27901138117916 $227 $350 forward 7 unknown #
point $-1 -57.27901138117916 -34.464152705154881 12.729343794492534 #
straight-curve $-1 -69.402752769554738 0 8.3417662108334394 0 -1 0 I I #
edge $-1 $349 -12.729343794492538 $233 -8.3417662108334394 $299 $351 forward 7 unknown #
point $-1 -69.402752769554738 -34.464152705154881 8.3417662108334394 #
edge $-1 $346 -12.729343794492538 $236 -8.3417662108334394 $235 $352 forward 7 unknown #
point $-1 -69.402752769554738 34.464152705154881 8.3417662108334394 #
coedge $-1 $315 $242 $321 $353 reversed $156 $-1 #
coedge $-1 $242 $314 $245 $319 reversed $156 $-1 #
edge $-1 $317 -42.110541088978856 $250 -12.473882272172908 $249 $354 forward 7 unknown #
vertex $-1 $244 $355 #
straight-curve $-1 69.402752769554738 14.998250987908261 43.296219402926042 0 0.49999998660252726 -0.86602541151947299 I I #
edge $-1 $246 32.646044218227594 $323 34.464152705154881 $315 $356 forward 7 unknown #
point $-1 69.402752769554738 32.646044218227594 12.729343794492536 #
coedge $-1 $249 $248 $314 $353 forward $240 $-1 #
point $-1 39.76609395274879 34.464152705154881 9.580287408957247 #
vertex $-1 $319 $357 #
straight-curve $-1 0 34.464152705154881 12.729343794492538 -1 0 0 I I #
vertex $-1 $256 $358 #
point $-1 55.084423361151764 32.124149189015014 10.32865668346443 #
coedge $-1 $328 $262 $270 $333 reversed $174 $-1 #
coedge $-1 $263 $327 $265 $330 reversed $174 $-1 #
straight-curve $-1 39.76609395274879 -34.464152705154881 39.491519159434503 0 0 -1 I I #
edge $-1 $266 39.76609395274879 $336 69.402752769554738 $328 $359 forward 7 unknown #
point $-1 39.76609395274879 -34.464152705154881 12.729343794492538 #
straight-curve $-1 27.292211680575882 -34.464152705154881 9.5802874089572612 1 0 0 I I #
edge $-1 $336 -12.729343794492538 $271 -9.5802874089572594 $270 $360 forward 7 unknown #
point $-1 69.402752769554738 -34.464152705154881 9.5802874089572594 #
point $-1 39.76609395274879 -34.464152705154881 9.5802874089572594 #
vertex $-1 $275 $361 #
straight-curve $-1 69.402752769554738 0 12.729343794492538 0 1 0 I I #
vertex $-1 $278 $362 #
point $-1 55.084423361151764 -32.124149189015021 10.328656683464416 #
straight-curve $-1 -69.402752769554738 34.464152705154881 0 0 0 -1 I I #
point $-1 -69.402752769554738 -34.464152705154881 -12.729343794492538 #
straight-curve $-1 -69.402752769554738 0 -12.729343794492538 0 1 0 I I #
point $-1 -69.402752769554738 34.464152705154881 -12.729343794492538 #
coedge $-1 $300 $299 $345 $363 reversed $140 $-1 #
coedge $-1 $305 $301 $344 $363 forward $220 $-1 #
vertex $-1 $302 $364 #
straight-curve $-1 0 34.464152705154881 12.729343794492538 -1 0 0 I I #
point $-1 -57.27901138117916 34.464152705154881 12.729343794492534 #
vertex $-1 $363 $365 #
straight-curve $-1 0 -34.464152705154881 12.729343794492538 1 0 0 I I #
straight-curve $-1 -69.402752769554738 -34.464152705154881 0 0 0 -1 I I #
straight-curve $-1 -69.402752769554738 34.464152705154881 0 0 0 -1 I I #
edge $-1 $323 -12.729343794492538 $317 -9.580287408957247 $314 $366 forward 7 unknown #
straight-curve $-1 27.292211680575882 34.464152705154881 9.5802874089572434 -1 0 0 I I #
point $-1 69.402752769554738 34.464152705154881 9.580287408957247 #
straight-curve $-1 69.402752769554738 0 12.729343794492538 0 1 0 I I #
point $-1 69.402752769554738 34.464152705154881 12.729343794492538 #
point $-1 54.584423361151764 31.691136483255278 10.078656690163168 #
straight-curve $-1 0 -34.464152705154881 12.729343794492538 1 0 0 I I #
straight-curve $-1 69.402752769554738 -34.464152705154881 0 0 0 -1 I I #
point $-1 69.402752769554738 -34.464152705154881 12.729343794492538 #
point $-1 54.584423361151764 -31.691136483255285 10.078656690163154 #
edge $-1 $346 -34.464152705154881 $349 34.464152705154881 $344 $367 forward 7 unknown #
point $-1 -69.402752769554738 34.464152705154881 12.729343794492538 #
point $-1 -69.402752769554738 -34.464152705154881 12.729343794492538 #
straight-curve $-1 69.402752769554738 34.464152705154881 0 0 0 -1 I I #
straight-curve $-1 -69.402752769554738 0 12.729343794492538 0 -1 0 I I #
End-of-ACIS-data 