500 0 11 0           
7 Unknown 11 ACIS 5.0 NT 24 Thu Mar 25 19:14:01 1999 
-1 9.9999999999999995e-007 1e-010 
body $-1 $11 $-1 $12 #
body $-1 $13 $-1 $14 #
body $-1 $15 $-1 $16 #
body $-1 $17 $-1 $18 #
body $-1 $19 $-1 $20 #
body $-1 $21 $-1 $22 #
body $-1 $23 $-1 $24 #
body $-1 $25 $-1 $26 #
body $-1 $27 $-1 $28 #
body $-1 $29 $-1 $30 #
body $-1 $31 $-1 $32 #
lump $-1 $-1 $33 $0 #
transform $-1 1 0 0 0 1 0 0 0 1 68.515274513992736 42.491932463640346 15.791665626269731 1 rotate no_reflect no_shear #
lump $-1 $-1 $34 $1 #
transform $-1 1 0 0 0 1 0 0 0 1 68.515274513992736 42.491932463640346 15.791665626269731 1 rotate no_reflect no_shear #
lump $-1 $-1 $35 $2 #
transform $-1 1 0 0 0 1 0 0 0 1 68.515274513992736 42.491932463640346 15.791665626269731 1 rotate no_reflect no_shear #
lump $-1 $-1 $36 $3 #
transform $-1 1 0 0 0 1 0 0 0 1 68.515274513992736 42.491932463640346 15.791665626269731 1 rotate no_reflect no_shear #
lump $-1 $-1 $37 $4 #
transform $-1 1 0 0 0 1 0 0 0 1 68.515274513992736 42.491932463640346 15.791665626269731 1 rotate no_reflect no_shear #
lump $-1 $-1 $38 $5 #
transform $-1 1 0 0 0 1 0 0 0 1 68.515274513992736 42.491932463640346 15.791665626269731 1 rotate no_reflect no_shear #
lump $-1 $-1 $39 $6 #
transform $-1 1 0 0 0 1 0 0 0 1 68.515274513992736 42.491932463640346 15.791665626269731 1 rotate no_reflect no_shear #
lump $-1 $-1 $40 $7 #
transform $-1 1 0 0 0 1 0 0 0 1 68.515274513992736 42.491932463640346 15.791665626269731 1 rotate no_reflect no_shear #
lump $-1 $-1 $41 $8 #
transform $-1 1 0 0 0 1 0 0 0 1 68.515274513992736 42.491932463640346 15.791665626269731 1 rotate no_reflect no_shear #
lump $-1 $-1 $42 $9 #
transform $-1 1 0 0 0 1 0 0 0 1 68.515274513992736 42.491932463640346 15.791665626269731 1 rotate no_reflect no_shear #
lump $-1 $-1 $43 $10 #
transform $-1 1 0 0 0 1 0 0 0 1 68.515274513992736 42.491932463640346 15.791665626269731 1 rotate no_reflect no_shear #
shell $-1 $-1 $-1 $44 $-1 $11 #
shell $-1 $-1 $-1 $45 $-1 $13 #
shell $-1 $-1 $-1 $46 $-1 $15 #
shell $-1 $-1 $-1 $47 $-1 $17 #
shell $-1 $-1 $-1 $48 $-1 $19 #
shell $-1 $-1 $-1 $49 $-1 $21 #
shell $-1 $-1 $-1 $50 $-1 $23 #
shell $-1 $-1 $-1 $51 $-1 $25 #
shell $-1 $-1 $-1 $52 $-1 $27 #
shell $-1 $-1 $-1 $53 $-1 $29 #
shell $-1 $-1 $-1 $54 $-1 $31 #
face $-1 $55 $56 $33 $-1 $57 forward single #
face $-1 $58 $59 $34 $-1 $60 forward single #
face $-1 $61 $62 $35 $-1 $63 forward single #
face $-1 $64 $65 $36 $-1 $66 reversed single #
face $-1 $67 $68 $37 $-1 $69 forward single #
face $-1 $70 $71 $38 $-1 $72 reversed single #
face $-1 $73 $74 $39 $-1 $75 forward single #
face $-1 $76 $77 $40 $-1 $78 forward single #
face $-1 $79 $80 $41 $-1 $81 reversed single #
face $-1 $82 $83 $42 $-1 $84 forward single #
face $-1 $85 $86 $43 $-1 $87 forward single #
face $-1 $88 $89 $33 $-1 $90 reversed single #
loop $-1 $-1 $91 $44 #
plane-surface $-1 0 0 15.791665626269731 0 0 1 1 0 0 forward_v I I I I #
face $-1 $92 $93 $34 $-1 $94 reversed single #
loop $-1 $-1 $95 $45 #
plane-surface $-1 -61.270226810218915 0 12.545181759205454 0 0 1 1 0 0 forward_v I I I I #
face $-1 $96 $97 $35 $-1 $98 reversed single #
loop $-1 $-1 $99 $46 #
plane-surface $-1 61.270226810218915 0 12.545181759205454 0 0 1 1 0 0 forward_v I I I I #
face $-1 $100 $101 $36 $-1 $102 reversed single #
loop $-1 $-1 $103 $47 #
plane-surface $-1 45.137165769578317 -1.2779926187812265 73.822908720635738 0 0.85716730853699208 0.51503806187062418 1 0 0 forward_v I I I I #
face $-1 $104 $105 $37 $-1 $106 forward single #
loop $-1 $107 $108 $48 #
cone-surface $-1 45.137165769578317 36.871252933191784 7.6815484090923842 0 -0.85716730853699208 -0.51503806187062418 2 0 0 1 I I 0 1 2 forward I I I I #
face $-1 $109 $110 $38 $-1 $111 reversed single #
loop $-1 $-1 $112 $49 #
plane-surface $-1 -45.578705824044889 -42.491932463640339 9.7490238863745162 0 -0.75470958851134928 0.65605901945558964 1 0 0 forward_v I I I I #
face $-1 $113 $114 $39 $-1 $115 forward single #
loop $-1 $116 $117 $50 #
cone-surface $-1 -49.198622945073545 -37.805541881786525 10.979617176842044 0 0.75470958851134928 -0.65605901945558964 1.5 0 0 1 I I 0 1 1.5 forward I I I I #
face $-1 $118 $119 $40 $-1 $120 forward single #
loop $-1 $121 $122 $51 #
cone-surface $-1 -41.958788703016225 -37.805541881786525 10.979617176842044 0 0.75470958851134928 -0.65605901945558964 1.5 0 0 1 I I 0 1 1.5 forward I I I I #
face $-1 $123 $124 $41 $-1 $125 reversed single #
loop $-1 $-1 $126 $52 #
plane-surface $-1 37.132232541644683 -145.91020173403552 99.649151517135763 1 0 0 0 0.75470958851134928 -0.65605901945558964 forward_v I I I I #
face $-1 $127 $128 $42 $-1 $129 forward single #
loop $-1 $130 $131 $53 #
cone-surface $-1 41.958788703016225 -37.805541881786525 10.979617176842044 0 0.75470958851134928 -0.65605901945558964 1.5 0 0 1 I I 0 1 1.5 forward I I I I #
face $-1 $132 $133 $43 $-1 $134 forward single #
loop $-1 $135 $136 $54 #
cone-surface $-1 49.198622945073552 -37.805541881786525 10.979617176842044 0 0.75470958851134928 -0.65605901945558964 1.5 0 0 1 I I 0 1 1.5 forward I I I I #
face $-1 $137 $138 $33 $-1 $139 reversed single #
loop $-1 $-1 $140 $55 #
plane-surface $-1 0 0 -15.791665626269731 0 0 1 1 0 0 forward_v I I I I #
coedge $-1 $141 $142 $143 $144 forward $56 $-1 #
face $-1 $145 $146 $34 $-1 $147 reversed single #
loop $-1 $-1 $148 $58 #
plane-surface $-1 -61.270226810218915 0 7.2929239898578526 0 0 1 1 0 0 forward_v I I I I #
coedge $-1 $149 $150 $151 $152 forward $59 $-1 #
face $-1 $153 $154 $35 $-1 $155 reversed single #
loop $-1 $-1 $156 $61 #
plane-surface $-1 61.270226810218915 0 7.2929239898578526 0 0 1 1 0 0 forward_v I I I I #
coedge $-1 $157 $158 $159 $160 reversed $62 $-1 #
face $-1 $161 $162 $36 $-1 $163 forward single #
loop $-1 $-1 $164 $64 #
plane-surface $-1 36.24915243271154 116.18011427888342 144.39885710907691 1 0 0 0 -0.85716730853699208 -0.51503806187062418 forward_v I I I I #
coedge $-1 $165 $166 $167 $168 reversed $65 $-1 #
face $-1 $-1 $169 $37 $-1 $170 forward single #
loop $-1 $171 $172 $67 #
cone-surface $-1 45.137165769578317 34.844024911857083 6.4634669672556573 0 -0.85716730853699208 -0.51503806187062418 1 0 0 1 I I -0.70710678118654746 0.70710678118654746 1 forward I I I I #
loop $-1 $-1 $173 $48 #
coedge $-1 $108 $108 $174 $175 reversed $68 $-1 #
face $-1 $176 $177 $38 $-1 $178 forward single #
loop $-1 $-1 $179 $70 #
plane-surface $-1 -37.132232541644683 -145.91020173403552 99.649151517135763 -1 0 0 0 -0.75470958851134928 0.65605901945558964 forward_v I I I I #
coedge $-1 $180 $181 $182 $183 reversed $71 $-1 #
face $-1 $-1 $184 $39 $-1 $185 forward single #
loop $-1 $186 $187 $73 #
cone-surface $-1 -49.198622945073545 -35.179513204466701 8.6968453327702679 0 0.75470958851134928 -0.65605901945558964 0.75 0 0 1 I I -0.70710678118654757 0.70710678118654757 0.75 forward I I I I #
loop $-1 $-1 $188 $50 #
coedge $-1 $117 $117 $189 $190 reversed $74 $-1 #
face $-1 $-1 $191 $40 $-1 $192 forward single #
loop $-1 $193 $194 $76 #
cone-surface $-1 -41.958788703016225 -35.179513204466701 8.6968453327702679 0 0.75470958851134928 -0.65605901945558964 0.75 0 0 1 I I -0.70710678118654757 0.70710678118654757 0.75 forward I I I I #
loop $-1 $-1 $195 $51 #
coedge $-1 $122 $122 $196 $197 reversed $77 $-1 #
face $-1 $198 $199 $41 $-1 $200 reversed single #
loop $-1 $-1 $201 $79 #
plane-surface $-1 45.578705824044889 -42.491932463640339 9.7490238863745162 0 -0.75470958851134928 0.65605901945558964 1 0 0 forward_v I I I I #
coedge $-1 $202 $203 $204 $205 reversed $80 $-1 #
face $-1 $-1 $206 $42 $-1 $207 forward single #
loop $-1 $208 $209 $82 #
cone-surface $-1 41.958788703016225 -35.179513204466701 8.6968453327702679 0 0.75470958851134928 -0.65605901945558964 0.75 0 0 1 I I -0.70710678118654757 0.70710678118654757 0.75 forward I I I I #
loop $-1 $-1 $210 $53 #
coedge $-1 $131 $131 $211 $212 reversed $83 $-1 #
face $-1 $-1 $213 $43 $-1 $214 forward single #
loop $-1 $215 $216 $85 #
cone-surface $-1 49.198622945073552 -35.179513204466701 8.6968453327702679 0 0.75470958851134928 -0.65605901945558964 0.75 0 0 1 I I -0.70710678118654757 0.70710678118654757 0.75 forward I I I I #
loop $-1 $-1 $217 $54 #
coedge $-1 $136 $136 $218 $219 reversed $86 $-1 #
face $-1 $220 $221 $33 $-1 $222 reversed single #
loop $-1 $-1 $223 $88 #
plane-surface $-1 0 -42.491932463640346 0 0 1 0 0 0 1 forward_v I I I I #
coedge $-1 $224 $225 $226 $227 forward $89 $-1 #
coedge $-1 $228 $91 $229 $230 forward $56 $-1 #
coedge $-1 $91 $228 $231 $232 forward $56 $-1 #
coedge $-1 $233 $234 $91 $144 reversed $235 $-1 #
edge $-1 $236 -42.491932463640346 $237 42.491932463640346 $143 $238 forward 7 unknown #
face $-1 $239 $240 $34 $-1 $241 reversed single #
loop $-1 $-1 $242 $92 #
plane-surface $-1 -54.025179106445094 0 9.9190528745316531 -1 0 0 0 0 1 forward_v I I I I #
coedge $-1 $243 $244 $245 $246 forward $93 $-1 #
coedge $-1 $247 $95 $248 $249 reversed $59 $-1 #
coedge $-1 $95 $247 $250 $251 reversed $59 $-1 #
coedge $-1 $242 $252 $95 $152 reversed $146 $-1 #
edge $-1 $253 -42.491932463640346 $254 42.491932463640346 $151 $255 forward 7 unknown #
face $-1 $256 $257 $35 $-1 $258 reversed single #
loop $-1 $-1 $259 $96 #
plane-surface $-1 54.025179106445094 0 9.9190528745316531 1 0 0 0 0 -1 forward_v I I I I #
coedge $-1 $260 $261 $262 $263 reversed $97 $-1 #
coedge $-1 $264 $99 $265 $266 reversed $62 $-1 #
coedge $-1 $99 $264 $267 $268 reversed $62 $-1 #
coedge $-1 $269 $270 $99 $160 forward $271 $-1 #
edge $-1 $272 -42.491932463640346 $273 42.491932463640346 $159 $274 forward 7 unknown #
face $-1 $275 $276 $36 $-1 $277 reversed single #
loop $-1 $-1 $278 $100 #
plane-surface $-1 54.025179106445094 0 9.9190528745316531 1 0 0 0 0 -1 forward_v I I I I #
coedge $-1 $279 $280 $281 $282 reversed $101 $-1 #
coedge $-1 $283 $103 $278 $284 forward $65 $-1 #
coedge $-1 $103 $283 $279 $285 forward $65 $-1 #
coedge $-1 $281 $286 $103 $168 forward $276 $-1 #
edge $-1 $287 -31.456596221655936 $288 -13.680569547922381 $167 $289 forward 7 unknown #
loop $-1 $-1 $174 $104 #
plane-surface $-1 45.137165769578317 -1.2779926187812265 73.822908720635738 0 0.85716730853699208 0.51503806187062418 1 0 0 forward_v I I I I #
loop $-1 $-1 $290 $67 #
coedge $-1 $172 $172 $173 $291 reversed $105 $-1 #
coedge $-1 $173 $173 $172 $291 forward $107 $-1 #
coedge $-1 $174 $174 $108 $175 forward $169 $-1 #
edge $-1 $292 1.6827607749570195e-015 $292 6.2831853071796022 $174 $293 forward 7 unknown #
face $-1 $294 $295 $38 $-1 $296 reversed single #
loop $-1 $-1 $297 $109 #
plane-surface $-1 -54.025179106445094 0 9.9190528745316531 -1 0 0 0 0 1 forward_v I I I I #
coedge $-1 $298 $299 $300 $301 reversed $110 $-1 #
coedge $-1 $302 $112 $297 $303 reversed $71 $-1 #
coedge $-1 $112 $302 $298 $304 forward $71 $-1 #
coedge $-1 $300 $305 $112 $183 forward $295 $-1 #
edge $-1 $306 -31.23582619442265 $307 -14.342879629622239 $182 $308 forward 7 unknown #
loop $-1 $-1 $189 $113 #
plane-surface $-1 -45.578705824044889 -42.491932463640339 9.7490238863745162 0 -0.75470958851134928 0.65605901945558964 1 0 0 forward_v I I I I #
loop $-1 $-1 $309 $73 #
coedge $-1 $187 $187 $188 $310 reversed $114 $-1 #
coedge $-1 $188 $188 $187 $310 forward $116 $-1 #
coedge $-1 $189 $189 $117 $190 forward $184 $-1 #
edge $-1 $311 -1.3202084176096447e-015 $311 6.2831853071795996 $189 $312 forward 7 unknown #
loop $-1 $-1 $196 $118 #
plane-surface $-1 -45.578705824044889 -42.491932463640339 9.7490238863745162 0 -0.75470958851134928 0.65605901945558964 1 0 0 forward_v I I I I #
loop $-1 $-1 $313 $76 #
coedge $-1 $194 $194 $195 $314 reversed $119 $-1 #
coedge $-1 $195 $195 $194 $314 forward $121 $-1 #
coedge $-1 $196 $196 $122 $197 forward $191 $-1 #
edge $-1 $315 -1.3202084176096447e-015 $315 6.2831853071795996 $196 $316 forward 7 unknown #
face $-1 $317 $318 $41 $-1 $319 forward single #
loop $-1 $-1 $204 $123 #
plane-surface $-1 0 -42.491932463640346 0 0 1 0 0 0 1 forward_v I I I I #
coedge $-1 $320 $321 $322 $323 reversed $124 $-1 #
coedge $-1 $203 $126 $324 $325 reversed $80 $-1 #
coedge $-1 $126 $202 $320 $326 reversed $80 $-1 #
coedge $-1 $322 $327 $126 $205 forward $199 $-1 #
edge $-1 $328 34.032910132298149 $329 40.075551872193373 $204 $330 forward 7 unknown #
loop $-1 $-1 $211 $127 #
plane-surface $-1 45.578705824044889 -42.491932463640339 9.7490238863745162 0 -0.75470958851134928 0.65605901945558964 1 0 0 forward_v I I I I #
loop $-1 $-1 $331 $82 #
coedge $-1 $209 $209 $210 $332 reversed $128 $-1 #
coedge $-1 $210 $210 $209 $332 forward $130 $-1 #
coedge $-1 $211 $211 $131 $212 forward $206 $-1 #
edge $-1 $333 -1.3202084176096447e-015 $333 6.2831853071795996 $211 $334 forward 7 unknown #
loop $-1 $-1 $218 $132 #
plane-surface $-1 45.578705824044889 -42.491932463640339 9.7490238863745162 0 -0.75470958851134928 0.65605901945558964 1 0 0 forward_v I I I I #
loop $-1 $-1 $335 $85 #
coedge $-1 $216 $216 $217 $336 reversed $133 $-1 #
coedge $-1 $217 $217 $216 $336 forward $135 $-1 #
coedge $-1 $218 $218 $136 $219 forward $213 $-1 #
edge $-1 $337 -1.3202084176096447e-015 $337 6.2831853071795996 $218 $338 forward 7 unknown #
face $-1 $339 $340 $33 $-1 $341 reversed single #
loop $-1 $-1 $342 $137 #
plane-surface $-1 -68.515274513992736 0 0 1 0 0 0 0 -1 forward_v I I I I #
coedge $-1 $343 $231 $344 $345 forward $138 $-1 #
coedge $-1 $346 $140 $343 $347 forward $89 $-1 #
coedge $-1 $140 $346 $348 $349 forward $89 $-1 #
coedge $-1 $234 $233 $140 $227 reversed $235 $-1 #
edge $-1 $350 -42.491932463640346 $351 42.491932463640346 $226 $352 forward 7 unknown #
coedge $-1 $142 $141 $353 $354 forward $56 $-1 #
coedge $-1 $355 $356 $141 $230 reversed $340 $-1 #
edge $-1 $237 -68.515274513992736 $357 68.515274513992736 $229 $358 forward 7 unknown #
coedge $-1 $223 $359 $142 $232 reversed $138 $-1 #
edge $-1 $360 -68.515274513992736 $236 68.515274513992736 $231 $361 forward 7 unknown #
coedge $-1 $226 $143 $359 $362 forward $235 $-1 #
coedge $-1 $143 $226 $355 $363 reversed $235 $-1 #
loop $-1 $-1 $233 $339 #
vertex $-1 $144 $364 #
vertex $-1 $144 $365 #
straight-curve $-1 68.515274513992736 0 15.791665626269731 0 1 0 I I #
face $-1 $366 $367 $34 $-1 $368 reversed single #
loop $-1 $-1 $369 $145 #
plane-surface $-1 0 -42.491932463640346 0 0 1 0 0 0 1 forward_v I I I I #
coedge $-1 $245 $151 $370 $371 reversed $146 $-1 #
coedge $-1 $372 $148 $369 $373 reversed $93 $-1 #
coedge $-1 $148 $372 $374 $375 reversed $93 $-1 #
coedge $-1 $252 $242 $148 $246 reversed $146 $-1 #
edge $-1 $376 -42.491932463640346 $377 42.491932463640346 $245 $378 forward 7 unknown #
coedge $-1 $150 $149 $379 $380 reversed $59 $-1 #
coedge $-1 $381 $382 $149 $249 forward $383 $-1 #
edge $-1 $384 -37.880161108883279 $254 -23.390065701335637 $248 $385 forward 7 unknown #
coedge $-1 $386 $370 $150 $251 forward $240 $-1 #
edge $-1 $253 23.390065701335637 $387 37.880161108883279 $250 $388 forward 7 unknown #
coedge $-1 $151 $245 $381 $389 reversed $146 $-1 #
vertex $-1 $251 $390 #
vertex $-1 $249 $391 #
straight-curve $-1 -54.025179106445094 0 12.545181759205454 0 1 0 I I #
face $-1 $392 $393 $35 $-1 $394 reversed single #
loop $-1 $-1 $267 $153 #
plane-surface $-1 0 -42.491932463640346 0 0 1 0 0 0 1 forward_v I I I I #
coedge $-1 $395 $396 $264 $397 reversed $154 $-1 #
coedge $-1 $398 $156 $399 $400 reversed $97 $-1 #
coedge $-1 $156 $398 $401 $402 reversed $97 $-1 #
coedge $-1 $270 $269 $156 $263 forward $271 $-1 #
edge $-1 $403 -42.491932463640346 $404 42.491932463640346 $262 $405 forward 7 unknown #
coedge $-1 $158 $157 $259 $397 forward $62 $-1 #
coedge $-1 $406 $407 $157 $266 forward $393 $-1 #
edge $-1 $408 23.390065701335637 $272 37.880161108883279 $265 $409 forward 7 unknown #
coedge $-1 $410 $411 $158 $268 forward $257 $-1 #
edge $-1 $273 -37.880161108883279 $412 -23.390065701335637 $267 $413 forward 7 unknown #
coedge $-1 $262 $159 $411 $414 forward $271 $-1 #
coedge $-1 $159 $262 $406 $415 reversed $271 $-1 #
loop $-1 $-1 $159 $392 #
vertex $-1 $415 $416 #
vertex $-1 $414 $417 #
straight-curve $-1 68.515274513992736 0 12.545181759205454 0 -1 0 I I #
face $-1 $-1 $418 $36 $-1 $419 forward single #
loop $-1 $-1 $286 $161 #
plane-surface $-1 0 42.491932463640346 0 0 -1 0 0 0 -1 forward_v I I I I #
coedge $-1 $420 $421 $165 $284 reversed $162 $-1 #
coedge $-1 $280 $164 $166 $285 reversed $101 $-1 #
coedge $-1 $164 $279 $422 $423 reversed $101 $-1 #
coedge $-1 $424 $167 $164 $282 forward $276 $-1 #
edge $-1 $288 -71.221910602691196 $425 -56.407762928268724 $281 $426 forward 7 unknown #
coedge $-1 $166 $165 $427 $428 reversed $65 $-1 #
edge $-1 $287 -84.98386492728072 $429 -67.701185656990788 $278 $430 forward 7 unknown #
edge $-1 $431 67.701185656990788 $288 84.98386492728072 $279 $432 forward 7 unknown #
coedge $-1 $167 $424 $420 $433 forward $276 $-1 #
vertex $-1 $168 $434 #
vertex $-1 $168 $435 #
straight-curve $-1 22.568582884789159 42.491932463640346 0.97751795184724699 -1 0 0 I I #
coedge $-1 $290 $290 $-1 $436 reversed $171 $-1 #
edge $-1 $437 0 $437 6.2831853071796004 $172 $438 forward 7 unknown #
vertex $-1 $175 $439 #
ellipse-curve $-1 45.137165769578317 38.041313645989476 8.3845917890584776 0 0.85716730853699208 0.51503806187062418 2 0 0 1 I I #
face $-1 $-1 $440 $38 $-1 $441 forward single #
loop $-1 $-1 $305 $176 #
plane-surface $-1 0 -42.491932463640346 0 0 1 0 0 0 1 forward_v I I I I #
coedge $-1 $442 $443 $180 $303 forward $177 $-1 #
coedge $-1 $299 $179 $181 $304 reversed $110 $-1 #
coedge $-1 $179 $298 $444 $445 reversed $110 $-1 #
coedge $-1 $446 $182 $179 $301 forward $295 $-1 #
edge $-1 $307 -40.075551872193373 $447 -34.032910132298149 $300 $448 forward 7 unknown #
coedge $-1 $181 $180 $449 $450 reversed $71 $-1 #
edge $-1 $451 5.9961902956970476 $306 14.002769027278056 $297 $452 forward 7 unknown #
edge $-1 $453 -8.0065787315809995 $307 1.1364747401606058e-014 $298 $454 forward 7 unknown #
coedge $-1 $182 $446 $442 $455 forward $295 $-1 #
vertex $-1 $303 $456 #
vertex $-1 $183 $457 #
straight-curve $-1 -22.789352912022444 -42.491932463640346 9.749023886374502 1 0 0 I I #
coedge $-1 $309 $309 $-1 $458 reversed $186 $-1 #
edge $-1 $459 0 $459 6.2831853071796004 $187 $460 forward 7 unknown #
vertex $-1 $190 $461 #
ellipse-curve $-1 -49.198622945073545 -39.865538367722834 12.770344756322125 0 -0.75470958851134928 0.65605901945558964 1.5 0 0 1 I I #
coedge $-1 $313 $313 $-1 $462 reversed $193 $-1 #
edge $-1 $463 0 $463 6.2831853071796004 $194 $464 forward 7 unknown #
vertex $-1 $197 $465 #
ellipse-curve $-1 -41.958788703016225 -39.865538367722834 12.770344756322125 0 -0.75470958851134928 0.65605901945558964 1.5 0 0 1 I I #
face $-1 $-1 $466 $41 $-1 $467 forward single #
loop $-1 $-1 $468 $198 #
plane-surface $-1 54.025179106445094 0 9.9190528745316531 1 0 0 0 0 -1 forward_v I I I I #
coedge $-1 $469 $201 $203 $326 forward $124 $-1 #
coedge $-1 $201 $469 $468 $470 forward $124 $-1 #
coedge $-1 $471 $204 $201 $323 forward $199 $-1 #
edge $-1 $329 14.342879629622239 $472 31.23582619442265 $322 $473 forward 7 unknown #
coedge $-1 $474 $475 $202 $325 forward $466 $-1 #
edge $-1 $476 -35.715956595212432 $328 -30.463168403377416 $324 $477 forward 7 unknown #
edge $-1 $329 -1.1364747401606058e-014 $476 8.0065787315809995 $203 $478 forward 7 unknown #
coedge $-1 $204 $471 $474 $479 reversed $199 $-1 #
vertex $-1 $479 $480 #
vertex $-1 $205 $481 #
straight-curve $-1 37.132232541644683 -42.491932463640346 49.824575758567882 0 0 -1 I I #
coedge $-1 $331 $331 $-1 $482 reversed $208 $-1 #
edge $-1 $483 0 $483 6.2831853071796004 $209 $484 forward 7 unknown #
vertex $-1 $212 $485 #
ellipse-curve $-1 41.958788703016225 -39.865538367722834 12.770344756322125 0 -0.75470958851134928 0.65605901945558964 1.5 0 0 1 I I #
coedge $-1 $335 $335 $-1 $486 reversed $215 $-1 #
edge $-1 $487 0 $487 6.2831853071796004 $216 $488 forward 7 unknown #
vertex $-1 $219 $489 #
ellipse-curve $-1 49.198622945073552 -39.865538367722834 12.770344756322125 0 -0.75470958851134928 0.65605901945558964 1.5 0 0 1 I I #
face $-1 $-1 $235 $33 $-1 $490 reversed single #
loop $-1 $-1 $355 $220 #
plane-surface $-1 0 42.491932463640346 0 0 -1 0 0 0 -1 forward_v I I I I #
coedge $-1 $491 $353 $356 $492 forward $221 $-1 #
coedge $-1 $359 $223 $224 $347 reversed $138 $-1 #
coedge $-1 $353 $491 $223 $345 reversed $221 $-1 #
edge $-1 $360 -15.791665626269731 $493 15.791665626269731 $344 $494 forward 7 unknown #
coedge $-1 $225 $224 $491 $495 forward $89 $-1 #
edge $-1 $351 -68.515274513992736 $493 68.515274513992736 $343 $496 forward 7 unknown #
coedge $-1 $356 $355 $225 $349 reversed $340 $-1 #
edge $-1 $497 -68.515274513992736 $350 68.515274513992736 $348 $498 forward 7 unknown #
vertex $-1 $227 $499 #
vertex $-1 $362 $500 #
straight-curve $-1 68.515274513992736 0 -15.791665626269731 0 -1 0 I I #
coedge $-1 $342 $344 $228 $354 reversed $221 $-1 #
edge $-1 $357 -42.491932463640346 $360 42.491932463640346 $353 $501 forward 7 unknown #
coedge $-1 $348 $229 $234 $363 forward $340 $-1 #
coedge $-1 $229 $348 $342 $492 reversed $340 $-1 #
vertex $-1 $230 $502 #
straight-curve $-1 0 42.491932463640346 15.791665626269731 -1 0 0 I I #
coedge $-1 $231 $343 $233 $362 reversed $138 $-1 #
vertex $-1 $354 $503 #
straight-curve $-1 0 -42.491932463640346 15.791665626269731 1 0 0 I I #
edge $-1 $236 -15.791665626269731 $351 15.791665626269731 $233 $504 forward 7 unknown #
edge $-1 $237 -15.791665626269731 $350 15.791665626269731 $234 $505 forward 7 unknown #
point $-1 68.515274513992736 -42.491932463640346 15.791665626269731 #
point $-1 68.515274513992736 42.491932463640346 15.791665626269731 #
face $-1 $-1 $383 $34 $-1 $506 reversed single #
loop $-1 $-1 $507 $239 #
plane-surface $-1 -68.515274513992736 0 0 1 0 0 0 0 -1 forward_v I I I I #
coedge $-1 $370 $386 $243 $373 forward $240 $-1 #
coedge $-1 $250 $369 $242 $371 forward $240 $-1 #
edge $-1 $377 2.3333975525920261 $253 7.585655321939627 $370 $508 forward 7 unknown #
coedge $-1 $244 $243 $507 $509 reversed $93 $-1 #
edge $-1 $510 -37.880161108883279 $377 -23.390065701335637 $369 $511 forward 7 unknown #
coedge $-1 $382 $381 $244 $375 forward $383 $-1 #
edge $-1 $376 23.390065701335637 $512 37.880161108883279 $374 $513 forward 7 unknown #
vertex $-1 $375 $514 #
vertex $-1 $373 $515 #
straight-curve $-1 -54.025179106445094 0 7.2929239898578526 0 -1 0 I I #
coedge $-1 $516 $517 $247 $380 forward $367 $-1 #
edge $-1 $387 -42.491932463640346 $384 42.491932463640346 $379 $518 forward 7 unknown #
coedge $-1 $374 $248 $252 $389 forward $383 $-1 #
coedge $-1 $248 $374 $516 $519 reversed $383 $-1 #
loop $-1 $-1 $374 $366 #
vertex $-1 $519 $520 #
straight-curve $-1 -30.635113405109458 42.491932463640346 12.545181759205454 1 0 0 I I #
coedge $-1 $369 $250 $517 $521 forward $240 $-1 #
vertex $-1 $521 $522 #
straight-curve $-1 -30.635113405109458 -42.491932463640346 12.545181759205454 -1 0 0 I I #
edge $-1 $254 -7.585655321939627 $376 -2.3333975525920261 $381 $523 forward 7 unknown #
point $-1 -54.025179106445094 -42.491932463640346 12.545181759205454 #
point $-1 -54.025179106445094 42.491932463640346 12.545181759205454 #
face $-1 $-1 $271 $35 $-1 $524 reversed single #
loop $-1 $-1 $265 $256 #
plane-surface $-1 0 42.491932463640346 0 0 -1 0 0 0 -1 forward_v I I I I #
coedge $-1 $525 $259 $407 $526 reversed $154 $-1 #
coedge $-1 $259 $525 $410 $527 reversed $154 $-1 #
edge $-1 $408 -42.491932463640346 $412 42.491932463640346 $259 $528 forward 7 unknown #
coedge $-1 $261 $260 $525 $529 forward $97 $-1 #
coedge $-1 $411 $410 $260 $400 forward $257 $-1 #
edge $-1 $530 23.390065701335637 $403 37.880161108883279 $399 $531 forward 7 unknown #
coedge $-1 $407 $406 $261 $402 forward $393 $-1 #
edge $-1 $404 -37.880161108883279 $532 -23.390065701335637 $401 $533 forward 7 unknown #
vertex $-1 $263 $534 #
vertex $-1 $263 $535 #
straight-curve $-1 68.515274513992736 0 7.2929239898578526 0 1 0 I I #
coedge $-1 $401 $265 $270 $415 forward $393 $-1 #
coedge $-1 $265 $401 $395 $526 forward $393 $-1 #
vertex $-1 $266 $536 #
straight-curve $-1 30.635113405109458 42.491932463640346 12.545181759205454 1 0 0 I I #
coedge $-1 $399 $267 $396 $527 forward $257 $-1 #
coedge $-1 $267 $399 $269 $414 reversed $257 $-1 #
vertex $-1 $268 $537 #
straight-curve $-1 30.635113405109458 -42.491932463640346 12.545181759205454 -1 0 0 I I #
edge $-1 $273 -12.545181759205454 $403 -7.2929239898578526 $269 $538 forward 7 unknown #
edge $-1 $272 -12.545181759205454 $404 -7.2929239898578526 $270 $539 forward 7 unknown #
point $-1 68.515274513992736 42.491932463640346 12.545181759205454 #
point $-1 68.515274513992736 -42.491932463640346 12.545181759205454 #
loop $-1 $-1 $540 $275 #
plane-surface $-1 0 0 15.791665626269731 0 0 1 1 0 0 forward_v I I I I #
coedge $-1 $421 $278 $286 $433 reversed $162 $-1 #
coedge $-1 $278 $420 $540 $541 reversed $162 $-1 #
coedge $-1 $427 $542 $280 $423 forward $418 $-1 #
edge $-1 $425 15.598124675801365 $431 24.499362311103106 $422 $543 forward 7 unknown #
coedge $-1 $286 $281 $542 $544 reversed $276 $-1 #
vertex $-1 $423 $545 #
straight-curve $-1 36.24915243271154 42.491932463640346 72.199428554538457 0 0 1 I I #
coedge $-1 $540 $422 $283 $428 forward $418 $-1 #
edge $-1 $431 13.680569547922381 $429 31.456596221655936 $427 $546 forward 7 unknown #
vertex $-1 $541 $547 #
straight-curve $-1 54.025179106445094 -1.2779926187812265 73.822908720635738 0 -0.51503806187062418 0.85716730853699208 I I #
vertex $-1 $428 $548 #
straight-curve $-1 36.24915243271154 -1.2779926187812265 73.822908720635738 0 0.51503806187062418 -0.85716730853699208 I I #
edge $-1 $549 56.407762928268724 $287 71.221910602691196 $286 $550 forward 7 unknown #
point $-1 54.025179106445094 42.491932463640346 0.9775179518472612 #
point $-1 36.24915243271154 42.491932463640346 0.9775179518472612 #
edge $-1 $551 1 $551 0 $290 $-1 forward 7 unknown #
vertex $-1 $291 $552 #
ellipse-curve $-1 45.137165769578317 35.701192220394077 6.9785050291262811 0 0.85716730853699208 0.51503806187062418 2 0 0 1 I I #
point $-1 47.137165769578317 38.041313645989497 8.3845917890584865 #
loop $-1 $-1 $553 $294 #
plane-surface $-1 0 0 15.791665626269731 0 0 1 1 0 0 forward_v I I I I #
coedge $-1 $443 $297 $305 $455 reversed $177 $-1 #
coedge $-1 $297 $442 $553 $554 reversed $177 $-1 #
coedge $-1 $449 $555 $299 $445 forward $440 $-1 #
edge $-1 $447 30.463168403377416 $453 35.715956595212432 $444 $556 forward 7 unknown #
coedge $-1 $305 $300 $555 $557 reversed $295 $-1 #
vertex $-1 $445 $558 #
straight-curve $-1 -37.132232541644683 -42.491932463640346 49.824575758567882 0 0 1 I I #
coedge $-1 $553 $444 $302 $450 forward $440 $-1 #
edge $-1 $453 14.342879629622239 $451 31.23582619442265 $449 $559 forward 7 unknown #
vertex $-1 $554 $560 #
straight-curve $-1 -54.025179106445094 -33.3052895459412 20.317047936970994 0 -0.65605901945558975 -0.75470958851134939 I I #
vertex $-1 $450 $561 #
straight-curve $-1 -37.132232541644683 -42.491932463640339 9.7490238863745162 0 -0.65605901945558964 -0.75470958851134928 I I #
edge $-1 $562 34.032910132298149 $306 40.075551872193373 $305 $563 forward 7 unknown #
point $-1 -54.025179106445094 -42.491932463640346 9.7490238863745091 #
point $-1 -37.132232541644683 -42.491932463640346 9.7490238863745073 #
edge $-1 $564 1 $564 0 $309 $-1 forward 7 unknown #
vertex $-1 $310 $565 #
ellipse-curve $-1 -49.198622945073545 -35.745545395850215 9.1888895973619604 0 -0.75470958851134928 0.65605901945558964 1.5 0 0 1 I I #
point $-1 -47.698622945073545 -39.865538367722841 12.770344756322128 #
edge $-1 $566 1 $566 0 $313 $-1 forward 7 unknown #
vertex $-1 $314 $567 #
ellipse-curve $-1 -41.958788703016225 -35.745545395850215 9.1888895973619604 0 -0.75470958851134928 0.65605901945558964 1.5 0 0 1 I I #
point $-1 -40.458788703016225 -39.865538367722841 12.770344756322128 #
loop $-1 $-1 $324 $317 #
plane-surface $-1 0 0 15.791665626269731 0 0 1 1 0 0 forward_v I I I I #
coedge $-1 $568 $569 $321 $470 reversed $318 $-1 #
coedge $-1 $321 $320 $475 $570 reversed $124 $-1 #
edge $-1 $571 -8.0065787315809995 $472 1.0024113862292973e-014 $468 $572 forward 7 unknown #
coedge $-1 $327 $322 $569 $573 forward $199 $-1 #
vertex $-1 $573 $574 #
straight-curve $-1 22.789352912022444 -42.491932463640346 9.749023886374502 1 0 0 I I #
coedge $-1 $575 $324 $327 $479 forward $466 $-1 #
coedge $-1 $324 $575 $469 $570 forward $466 $-1 #
vertex $-1 $325 $576 #
straight-curve $-1 37.132232541644683 -72.955100867017762 15.791665626269733 0 -1 0 I I #
straight-curve $-1 37.132232541644683 -42.491932463640339 9.7490238863745162 0 0.65605901945558964 0.75470958851134928 I I #
edge $-1 $328 37.132232541644683 $577 54.025179106445094 $327 $578 forward 7 unknown #
point $-1 37.132232541644683 -42.491932463640346 15.791665626269731 #
point $-1 37.132232541644683 -42.491932463640346 9.7490238863745073 #
edge $-1 $579 1 $579 0 $331 $-1 forward 7 unknown #
vertex $-1 $332 $580 #
ellipse-curve $-1 41.958788703016225 -35.745545395850215 9.1888895973619604 0 -0.75470958851134928 0.65605901945558964 1.5 0 0 1 I I #
point $-1 43.458788703016225 -39.865538367722841 12.770344756322128 #
edge $-1 $581 1 $581 0 $335 $-1 forward 7 unknown #
vertex $-1 $336 $582 #
ellipse-curve $-1 49.198622945073552 -35.745545395850215 9.1888895973619604 0 -0.75470958851134928 0.65605901945558964 1.5 0 0 1 I I #
point $-1 50.698622945073552 -39.865538367722841 12.770344756322128 #
plane-surface $-1 68.515274513992736 0 0 -1 0 0 0 0 1 forward_v I I I I #
coedge $-1 $344 $342 $346 $495 reversed $221 $-1 #
edge $-1 $357 -15.791665626269731 $497 15.791665626269731 $356 $583 forward 7 unknown #
vertex $-1 $495 $584 #
straight-curve $-1 -68.515274513992736 -42.491932463640346 0 0 0 -1 I I #
edge $-1 $493 -42.491932463640346 $497 42.491932463640346 $491 $585 forward 7 unknown #
straight-curve $-1 0 -42.491932463640346 -15.791665626269731 -1 0 0 I I #
vertex $-1 $349 $586 #
straight-curve $-1 0 42.491932463640346 -15.791665626269731 1 0 0 I I #
point $-1 68.515274513992736 42.491932463640346 -15.791665626269731 #
point $-1 68.515274513992736 -42.491932463640346 -15.791665626269731 #
straight-curve $-1 -68.515274513992736 0 15.791665626269731 0 -1 0 I I #
point $-1 -68.515274513992736 42.491932463640346 15.791665626269731 #
point $-1 -68.515274513992736 -42.491932463640346 15.791665626269731 #
straight-curve $-1 68.515274513992736 -42.491932463640346 0 0 0 -1 I I #
straight-curve $-1 68.515274513992736 42.491932463640346 0 0 0 -1 I I #
plane-surface $-1 0 42.491932463640346 0 0 -1 0 0 0 -1 forward_v I I I I #
coedge $-1 $517 $516 $372 $509 forward $367 $-1 #
straight-curve $-1 -54.025179106445094 -42.491932463640346 4.9595264372658265 0 0 1 I I #
edge $-1 $512 -42.491932463640346 $510 42.491932463640346 $507 $587 forward 7 unknown #
vertex $-1 $373 $588 #
straight-curve $-1 -30.635113405109458 -42.491932463640346 7.2929239898578526 1 0 0 I I #
vertex $-1 $375 $589 #
straight-curve $-1 -30.635113405109458 42.491932463640346 7.2929239898578526 -1 0 0 I I #
point $-1 -54.025179106445094 42.491932463640346 7.2929239898578526 #
point $-1 -54.025179106445094 -42.491932463640346 7.2929239898578526 #
coedge $-1 $507 $379 $382 $519 forward $367 $-1 #
coedge $-1 $379 $507 $386 $521 reversed $367 $-1 #
straight-curve $-1 -68.515274513992736 0 12.545181759205454 0 1 0 I I #
edge $-1 $384 -12.545181759205454 $512 -7.2929239898578526 $382 $590 forward 7 unknown #
point $-1 -68.515274513992736 42.491932463640346 12.545181759205454 #
edge $-1 $387 -12.545181759205454 $510 -7.2929239898578526 $517 $591 forward 7 unknown #
point $-1 -68.515274513992736 -42.491932463640346 12.545181759205454 #
straight-curve $-1 -54.025179106445094 42.491932463640346 4.9595264372658265 0 0 -1 I I #
plane-surface $-1 68.515274513992736 0 0 -1 0 0 0 0 1 forward_v I I I I #
coedge $-1 $396 $395 $398 $529 reversed $154 $-1 #
edge $-1 $532 2.3333975525920261 $408 7.585655321939627 $407 $592 forward 7 unknown #
edge $-1 $412 -7.585655321939627 $530 -2.3333975525920261 $410 $593 forward 7 unknown #
straight-curve $-1 54.025179106445094 0 12.545181759205454 0 -1 0 I I #
edge $-1 $530 -42.491932463640346 $532 42.491932463640346 $525 $594 forward 7 unknown #
vertex $-1 $400 $595 #
straight-curve $-1 30.635113405109458 -42.491932463640346 7.2929239898578526 1 0 0 I I #
vertex $-1 $402 $596 #
straight-curve $-1 30.635113405109458 42.491932463640346 7.2929239898578526 -1 0 0 I I #
point $-1 68.515274513992736 -42.491932463640346 7.2929239898578526 #
point $-1 68.515274513992736 42.491932463640346 7.2929239898578526 #
point $-1 54.025179106445094 42.491932463640346 12.545181759205454 #
point $-1 54.025179106445094 -42.491932463640346 12.545181759205454 #
straight-curve $-1 68.515274513992736 -42.491932463640346 0 0 0 -1 I I #
straight-curve $-1 68.515274513992736 42.491932463640346 0 0 0 -1 I I #
coedge $-1 $542 $427 $421 $541 forward $418 $-1 #
edge $-1 $429 -24.499362311103106 $549 -15.598124675801365 $540 $597 forward 7 unknown #
coedge $-1 $422 $540 $424 $544 forward $418 $-1 #
straight-curve $-1 36.24915243271154 58.090057139441711 15.791665626269733 0 -1 0 I I #
edge $-1 $549 -54.025179106445094 $425 -36.24915243271154 $424 $598 forward 7 unknown #
point $-1 36.24915243271154 42.491932463640346 15.791665626269731 #
straight-curve $-1 22.568582884789159 33.590694828338606 15.791665626269733 1 0 0 I I #
point $-1 54.025179106445094 33.590694828338606 15.79166562626974 #
point $-1 36.24915243271154 33.590694828338606 15.79166562626974 #
vertex $-1 $544 $599 #
straight-curve $-1 54.025179106445094 42.491932463640346 72.199428554538457 0 0 -1 I I #
vertex $-1 $436 $600 #
point $-1 47.137165769578317 35.701192220394077 6.9785050291262811 #
coedge $-1 $555 $449 $443 $554 forward $440 $-1 #
edge $-1 $451 -35.715956595212432 $562 -30.463168403377416 $553 $601 forward 7 unknown #
coedge $-1 $444 $553 $446 $557 forward $440 $-1 #
straight-curve $-1 -37.132232541644683 -72.955100867017762 15.791665626269733 0 1 0 I I #
edge $-1 $562 -54.025179106445094 $447 -37.132232541644683 $446 $602 forward 7 unknown #
point $-1 -37.132232541644683 -42.491932463640346 15.791665626269731 #
straight-curve $-1 -22.789352912022444 -37.23914427180533 15.791665626269729 -1 0 0 I I #
point $-1 -54.025179106445094 -37.23914427180533 15.791665626269731 #
point $-1 -37.132232541644683 -37.23914427180533 15.791665626269731 #
vertex $-1 $557 $603 #
straight-curve $-1 -54.025179106445094 -42.491932463640346 49.824575758567882 0 0 -1 I I #
vertex $-1 $458 $604 #
point $-1 -47.698622945073545 -35.745545395850215 9.1888895973619604 #
vertex $-1 $462 $605 #
point $-1 -40.458788703016225 -35.745545395850215 9.1888895973619604 #
coedge $-1 $569 $468 $575 $606 reversed $318 $-1 #
coedge $-1 $468 $568 $471 $573 reversed $318 $-1 #
edge $-1 $571 -31.23582619442265 $476 -14.342879629622239 $475 $607 forward 7 unknown #
vertex $-1 $570 $608 #
straight-curve $-1 54.025179106445094 -42.491932463640339 9.7490238863745162 0 -0.65605901945558964 -0.75470958851134928 I I #
edge $-1 $472 -40.075551872193373 $577 -34.032910132298149 $471 $609 forward 7 unknown #
point $-1 54.025179106445094 -42.491932463640346 9.7490238863745091 #
coedge $-1 $475 $474 $568 $606 forward $466 $-1 #
point $-1 37.132232541644683 -37.23914427180533 15.791665626269731 #
vertex $-1 $573 $610 #
straight-curve $-1 0 -42.491932463640346 15.791665626269731 1 0 0 I I #
vertex $-1 $482 $611 #
point $-1 43.458788703016225 -35.745545395850215 9.1888895973619604 #
vertex $-1 $486 $612 #
point $-1 50.698622945073552 -35.745545395850215 9.1888895973619604 #
straight-curve $-1 -68.515274513992736 42.491932463640346 0 0 0 -1 I I #
point $-1 -68.515274513992736 -42.491932463640346 -15.791665626269731 #
straight-curve $-1 -68.515274513992736 0 -15.791665626269731 0 1 0 I I #
point $-1 -68.515274513992736 42.491932463640346 -15.791665626269731 #
straight-curve $-1 -68.515274513992736 0 7.2929239898578526 0 -1 0 I I #
point $-1 -68.515274513992736 -42.491932463640346 7.2929239898578526 #
point $-1 -68.515274513992736 42.491932463640346 7.2929239898578526 #
straight-curve $-1 -68.515274513992736 42.491932463640346 0 0 0 -1 I I #
straight-curve $-1 -68.515274513992736 -42.491932463640346 0 0 0 -1 I I #
straight-curve $-1 54.025179106445094 42.491932463640346 4.9595264372658265 0 0 1 I I #
straight-curve $-1 54.025179106445094 -42.491932463640346 4.9595264372658265 0 0 -1 I I #
straight-curve $-1 54.025179106445094 0 7.2929239898578526 0 1 0 I I #
point $-1 54.025179106445094 -42.491932463640346 7.2929239898578526 #
point $-1 54.025179106445094 42.491932463640346 7.2929239898578526 #
straight-curve $-1 54.025179106445094 58.090057139441711 15.791665626269733 0 1 0 I I #
straight-curve $-1 0 42.491932463640346 15.791665626269731 -1 0 0 I I #
point $-1 54.025179106445094 42.491932463640346 15.791665626269731 #
point $-1 45.137165769578317 33.98685760332009 5.9484289053850334 #
straight-curve $-1 -54.025179106445094 -72.955100867017762 15.791665626269733 0 -1 0 I I #
straight-curve $-1 0 -42.491932463640346 15.791665626269731 1 0 0 I I #
point $-1 -54.025179106445094 -42.491932463640346 15.791665626269731 #
point $-1 -49.198622945073545 -34.613481013083188 8.2048010681785755 #
point $-1 -41.958788703016225 -34.613481013083188 8.2048010681785755 #
edge $-1 $577 30.463168403377416 $571 35.715956595212432 $575 $613 forward 7 unknown #
straight-curve $-1 22.789352912022444 -37.23914427180533 15.791665626269729 -1 0 0 I I #
point $-1 54.025179106445094 -37.23914427180533 15.791665626269731 #
straight-curve $-1 54.025179106445094 -42.491932463640346 49.824575758567882 0 0 1 I I #
point $-1 54.025179106445094 -42.491932463640346 15.791665626269731 #
point $-1 41.958788703016225 -34.613481013083188 8.2048010681785755 #
point $-1 49.198622945073552 -34.613481013083188 8.2048010681785755 #
straight-curve $-1 54.025179106445094 -72.955100867017762 15.791665626269733 0 1 0 I I #
End-of-ACIS-data 