500 0 10 0           
7 Unknown 11 ACIS 5.0 NT 24 Thu Mar 25 17:01:58 1999 
-1 9.9999999999999995e-007 1e-010 
body $-1 $10 $-1 $11 #
body $-1 $12 $-1 $13 #
body $-1 $14 $-1 $15 #
body $-1 $16 $-1 $17 #
body $-1 $18 $-1 $19 #
body $-1 $20 $-1 $21 #
body $-1 $22 $-1 $23 #
body $-1 $24 $-1 $25 #
body $-1 $26 $-1 $27 #
body $-1 $28 $-1 $29 #
lump $-1 $-1 $30 $0 #
transform $-1 1 0 0 0 1 0 0 0 1 43.476668599505601 20.749438120450105 6.6098425258665809 1 rotate no_reflect no_shear #
lump $-1 $-1 $31 $1 #
transform $-1 1 0 0 0 1 0 0 0 1 43.476668599505601 20.749438120450105 6.6098425258665809 1 rotate no_reflect no_shear #
lump $-1 $-1 $32 $2 #
transform $-1 1 0 0 0 1 0 0 0 1 43.476668599505601 20.749438120450105 6.6098425258665809 1 rotate no_reflect no_shear #
lump $-1 $-1 $33 $3 #
transform $-1 1 0 0 0 1 0 0 0 1 43.476668599505601 20.749438120450105 6.6098425258665809 1 rotate no_reflect no_shear #
lump $-1 $-1 $34 $4 #
transform $-1 1 0 0 0 1 0 0 0 1 43.476668599505601 20.749438120450105 6.6098425258665809 1 rotate no_reflect no_shear #
lump $-1 $-1 $35 $5 #
transform $-1 1 0 0 0 1 0 0 0 1 43.476668599505601 20.749438120450105 6.6098425258665809 1 rotate no_reflect no_shear #
lump $-1 $-1 $36 $6 #
transform $-1 1 0 0 0 1 0 0 0 1 43.476668599505601 20.749438120450105 6.6098425258665809 1 rotate no_reflect no_shear #
lump $-1 $-1 $37 $7 #
transform $-1 1 0 0 0 1 0 0 0 1 43.476668599505601 20.749438120450105 6.6098425258665809 1 rotate no_reflect no_shear #
lump $-1 $-1 $38 $8 #
transform $-1 1 0 0 0 1 0 0 0 1 43.476668599505601 20.749438120450105 6.6098425258665809 1 rotate no_reflect no_shear #
lump $-1 $-1 $39 $9 #
transform $-1 1 0 0 0 1 0 0 0 1 43.476668599505601 20.749438120450105 6.6098425258665809 1 rotate no_reflect no_shear #
shell $-1 $-1 $-1 $40 $-1 $10 #
shell $-1 $-1 $-1 $41 $-1 $12 #
shell $-1 $-1 $-1 $42 $-1 $14 #
shell $-1 $-1 $-1 $43 $-1 $16 #
shell $-1 $-1 $-1 $44 $-1 $18 #
shell $-1 $-1 $-1 $45 $-1 $20 #
shell $-1 $-1 $-1 $46 $-1 $22 #
shell $-1 $-1 $-1 $47 $-1 $24 #
shell $-1 $-1 $-1 $48 $-1 $26 #
shell $-1 $-1 $-1 $49 $-1 $28 #
face $-1 $50 $51 $30 $-1 $52 forward single #
face $-1 $53 $54 $31 $-1 $55 reversed single #
face $-1 $56 $57 $32 $-1 $58 reversed single #
face $-1 $59 $60 $33 $-1 $61 forward single #
face $-1 $62 $63 $34 $-1 $64 forward single #
face $-1 $65 $66 $35 $-1 $67 forward single #
face $-1 $68 $69 $36 $-1 $70 reversed single #
face $-1 $71 $72 $37 $-1 $73 forward single #
face $-1 $74 $75 $38 $-1 $76 forward single #
face $-1 $77 $78 $39 $-1 $79 forward single #
face $-1 $80 $81 $30 $-1 $82 reversed single #
loop $-1 $-1 $83 $40 #
plane-surface $-1 0 0 6.6098425258665809 0 0 1 1 0 0 forward_v I I I I #
face $-1 $84 $85 $31 $-1 $86 reversed single #
loop $-1 $-1 $87 $41 #
plane-surface $-1 -33.256983547772435 -18.300385257698299 0 1 0 0 0 0 -1 forward_v I I I I #
face $-1 $88 $89 $32 $-1 $90 reversed single #
loop $-1 $-1 $91 $42 #
plane-surface $-1 -18.713467227896444 59.148243402490593 89.714675362831088 1 0 0 0 -0.75470958851134928 -0.65605901945558964 forward_v I I I I #
face $-1 $92 $93 $33 $-1 $94 forward single #
loop $-1 $95 $96 $43 #
cone-surface $-1 -16.488298237506264 17.953120992598588 3.5362680306085408 0 -0.75470958851134928 -0.65605901945558964 0.5 0 0 1 I I 0 1 0.5 forward I I I I #
face $-1 $97 $98 $34 $-1 $99 forward single #
loop $-1 $100 $101 $44 #
cone-surface $-1 -13.150544751921 17.953120992598588 3.5362680306085408 0 -0.75470958851134928 -0.65605901945558964 0.5 0 0 1 I I 0 1 0.5 forward I I I I #
face $-1 $102 $103 $35 $-1 $104 forward single #
loop $-1 $105 $106 $45 #
cone-surface $-1 -9.8127912663357364 17.953120992598588 3.5362680306085408 0 -0.75470958851134928 -0.65605901945558964 0.5 0 0 1 I I 0 1 0.5 forward I I I I #
face $-1 $107 $108 $36 $-1 $109 reversed single #
loop $-1 $-1 $110 $46 #
plane-surface $-1 24.763201371609156 59.148243402490593 89.714675362831088 1 0 0 0 -0.75470958851134928 -0.65605901945558964 forward_v I I I I #
face $-1 $111 $112 $37 $-1 $113 forward single #
loop $-1 $114 $115 $47 #
cone-surface $-1 26.988370361999344 17.953120992598588 3.5362680306085408 0 -0.75470958851134928 -0.65605901945558964 0.5 0 0 1 I I 0 1 0.5 forward I I I I #
face $-1 $116 $117 $38 $-1 $118 forward single #
loop $-1 $119 $120 $48 #
cone-surface $-1 30.326123847584597 17.953120992598588 3.5362680306085408 0 -0.75470958851134928 -0.65605901945558964 0.5 0 0 1 I I 0 1 0.5 forward I I I I #
face $-1 $121 $122 $39 $-1 $123 forward single #
loop $-1 $124 $125 $49 #
cone-surface $-1 33.663877333169864 17.953120992598588 3.5362680306085408 0 -0.75470958851134928 -0.65605901945558964 0.5 0 0 1 I I 0 1 0.5 forward I I I I #
face $-1 $126 $127 $30 $-1 $128 reversed single #
loop $-1 $-1 $129 $50 #
plane-surface $-1 0 0 -6.6098425258665809 0 0 1 1 0 0 forward_v I I I I #
coedge $-1 $130 $131 $132 $133 forward $51 $-1 #
face $-1 $134 $135 $31 $-1 $136 reversed single #
loop $-1 $-1 $137 $53 #
plane-surface $-1 -31.756983547772439 -15.851332394946493 0 0 -1 0 0 0 -1 forward_v I I I I #
coedge $-1 $138 $139 $140 $141 forward $54 $-1 #
face $-1 $142 $143 $32 $-1 $144 reversed single #
loop $-1 $-1 $145 $56 #
plane-surface $-1 -13.150544751921004 -6.4762739346637517 32.66815422165655 0 0.75470958851134928 0.65605901945558964 1 0 0 forward_v I I I I #
coedge $-1 $146 $147 $148 $149 reversed $57 $-1 #
face $-1 $-1 $150 $33 $-1 $151 forward single #
loop $-1 $152 $153 $59 #
cone-surface $-1 -16.488298237506264 17.254910400657518 2.9293228383182264 0 -0.75470958851134928 -0.65605901945558964 0.25 0 0 1 I I -0.70710678118654746 0.70710678118654746 0.25 forward I I I I #
loop $-1 $-1 $154 $43 #
coedge $-1 $96 $96 $155 $156 reversed $60 $-1 #
face $-1 $-1 $157 $34 $-1 $158 forward single #
loop $-1 $159 $160 $62 #
cone-surface $-1 -13.150544751921 17.254910400657518 2.9293228383182264 0 -0.75470958851134928 -0.65605901945558964 0.25 0 0 1 I I -0.70710678118654746 0.70710678118654746 0.25 forward I I I I #
loop $-1 $-1 $161 $44 #
coedge $-1 $101 $101 $162 $163 reversed $63 $-1 #
face $-1 $-1 $164 $35 $-1 $165 forward single #
loop $-1 $166 $167 $65 #
cone-surface $-1 -9.8127912663357364 17.254910400657518 2.9293228383182264 0 -0.75470958851134928 -0.65605901945558964 0.25 0 0 1 I I -0.70710678118654746 0.70710678118654746 0.25 forward I I I I #
loop $-1 $-1 $168 $45 #
coedge $-1 $106 $106 $169 $170 reversed $66 $-1 #
face $-1 $171 $172 $36 $-1 $173 reversed single #
loop $-1 $-1 $174 $68 #
plane-surface $-1 30.326123847584597 -6.4762739346637517 32.66815422165655 0 0.75470958851134928 0.65605901945558964 1 0 0 forward_v I I I I #
coedge $-1 $175 $176 $177 $178 reversed $69 $-1 #
face $-1 $-1 $179 $37 $-1 $180 forward single #
loop $-1 $181 $182 $71 #
cone-surface $-1 26.988370361999344 17.254910400657518 2.9293228383182264 0 -0.75470958851134928 -0.65605901945558964 0.25 0 0 1 I I -0.70710678118654746 0.70710678118654746 0.25 forward I I I I #
loop $-1 $-1 $183 $47 #
coedge $-1 $115 $115 $184 $185 reversed $72 $-1 #
face $-1 $-1 $186 $38 $-1 $187 forward single #
loop $-1 $188 $189 $74 #
cone-surface $-1 30.326123847584597 17.254910400657518 2.9293228383182264 0 -0.75470958851134928 -0.65605901945558964 0.25 0 0 1 I I -0.70710678118654746 0.70710678118654746 0.25 forward I I I I #
loop $-1 $-1 $190 $48 #
coedge $-1 $120 $120 $191 $192 reversed $75 $-1 #
face $-1 $-1 $193 $39 $-1 $194 forward single #
loop $-1 $195 $196 $77 #
cone-surface $-1 33.663877333169864 17.254910400657518 2.9293228383182264 0 -0.75470958851134928 -0.65605901945558964 0.25 0 0 1 I I -0.70710678118654746 0.70710678118654746 0.25 forward I I I I #
loop $-1 $-1 $197 $49 #
coedge $-1 $125 $125 $198 $199 reversed $78 $-1 #
face $-1 $200 $201 $30 $-1 $202 reversed single #
loop $-1 $-1 $203 $80 #
plane-surface $-1 0 -20.749438120450105 0 0 1 0 0 0 1 forward_v I I I I #
coedge $-1 $204 $205 $206 $207 forward $81 $-1 #
coedge $-1 $208 $83 $209 $210 forward $51 $-1 #
coedge $-1 $83 $208 $211 $212 forward $51 $-1 #
coedge $-1 $213 $214 $83 $133 reversed $215 $-1 #
edge $-1 $216 -20.749438120450105 $217 20.749438120450105 $132 $218 forward 7 unknown #
face $-1 $219 $220 $31 $-1 $221 forward single #
loop $-1 $-1 $222 $84 #
plane-surface $-1 -30.256983547772439 -18.300385257698299 0 -1 0 0 0 0 1 forward_v I I I I #
coedge $-1 $223 $224 $225 $226 forward $85 $-1 #
coedge $-1 $227 $87 $228 $229 reversed $54 $-1 #
coedge $-1 $87 $227 $230 $231 reversed $54 $-1 #
coedge $-1 $224 $223 $87 $141 reversed $85 $-1 #
edge $-1 $232 -6.6098425258665809 $233 6.6098425258665809 $140 $234 forward 7 unknown #
face $-1 $235 $236 $32 $-1 $237 reversed single #
loop $-1 $-1 $238 $88 #
plane-surface $-1 -7.5876222759455647 59.148243402490593 89.714675362831088 -1 0 0 0 0.75470958851134928 0.65605901945558964 forward_v I I I I #
coedge $-1 $239 $240 $241 $242 reversed $89 $-1 #
coedge $-1 $147 $91 $243 $244 reversed $57 $-1 #
coedge $-1 $91 $146 $239 $245 reversed $57 $-1 #
coedge $-1 $241 $246 $91 $149 forward $247 $-1 #
edge $-1 $248 8.8246835807951918 $249 13.39825144687175 $148 $250 forward 7 unknown #
loop $-1 $-1 $155 $92 #
plane-surface $-1 -13.150544751921004 -6.4762739346637517 32.66815422165655 0 0.75470958851134928 0.65605901945558964 1 0 0 forward_v I I I I #
loop $-1 $-1 $251 $59 #
coedge $-1 $153 $153 $154 $252 reversed $93 $-1 #
coedge $-1 $154 $154 $153 $252 forward $95 $-1 #
coedge $-1 $155 $155 $96 $156 forward $150 $-1 #
edge $-1 $253 6.1275365110318934e-017 $253 6.2831853071796004 $155 $254 forward 7 unknown #
loop $-1 $-1 $162 $97 #
plane-surface $-1 -13.150544751921004 -6.4762739346637517 32.66815422165655 0 0.75470958851134928 0.65605901945558964 1 0 0 forward_v I I I I #
loop $-1 $-1 $255 $62 #
coedge $-1 $160 $160 $161 $256 reversed $98 $-1 #
coedge $-1 $161 $161 $160 $256 forward $100 $-1 #
coedge $-1 $162 $162 $101 $163 forward $157 $-1 #
edge $-1 $257 6.1275365110318934e-017 $257 6.2831853071796004 $162 $258 forward 7 unknown #
loop $-1 $-1 $169 $102 #
plane-surface $-1 -13.150544751921004 -6.4762739346637517 32.66815422165655 0 0.75470958851134928 0.65605901945558964 1 0 0 forward_v I I I I #
loop $-1 $-1 $259 $65 #
coedge $-1 $167 $167 $168 $260 reversed $103 $-1 #
coedge $-1 $168 $168 $167 $260 forward $105 $-1 #
coedge $-1 $169 $169 $106 $170 forward $164 $-1 #
edge $-1 $261 6.1275365110318934e-017 $261 6.2831853071796004 $169 $262 forward 7 unknown #
face $-1 $263 $264 $36 $-1 $265 forward single #
loop $-1 $-1 $266 $107 #
plane-surface $-1 35.889046323560038 59.148243402490593 89.714675362831088 -1 0 0 0 0.75470958851134928 0.65605901945558964 forward_v I I I I #
coedge $-1 $267 $268 $269 $270 reversed $108 $-1 #
coedge $-1 $176 $110 $271 $272 reversed $69 $-1 #
coedge $-1 $110 $175 $267 $273 reversed $69 $-1 #
coedge $-1 $269 $274 $110 $178 forward $264 $-1 #
edge $-1 $275 8.8246835807951918 $276 13.39825144687175 $177 $277 forward 7 unknown #
loop $-1 $-1 $184 $111 #
plane-surface $-1 30.326123847584597 -6.4762739346637517 32.66815422165655 0 0.75470958851134928 0.65605901945558964 1 0 0 forward_v I I I I #
loop $-1 $-1 $278 $71 #
coedge $-1 $182 $182 $183 $279 reversed $112 $-1 #
coedge $-1 $183 $183 $182 $279 forward $114 $-1 #
coedge $-1 $184 $184 $115 $185 forward $179 $-1 #
edge $-1 $280 6.1275365110318934e-017 $280 6.2831853071796004 $184 $281 forward 7 unknown #
loop $-1 $-1 $191 $116 #
plane-surface $-1 30.326123847584597 -6.4762739346637517 32.66815422165655 0 0.75470958851134928 0.65605901945558964 1 0 0 forward_v I I I I #
loop $-1 $-1 $282 $74 #
coedge $-1 $189 $189 $190 $283 reversed $117 $-1 #
coedge $-1 $190 $190 $189 $283 forward $119 $-1 #
coedge $-1 $191 $191 $120 $192 forward $186 $-1 #
edge $-1 $284 6.1275365110318934e-017 $284 6.2831853071796004 $191 $285 forward 7 unknown #
loop $-1 $-1 $198 $121 #
plane-surface $-1 30.326123847584597 -6.4762739346637517 32.66815422165655 0 0.75470958851134928 0.65605901945558964 1 0 0 forward_v I I I I #
loop $-1 $-1 $286 $77 #
coedge $-1 $196 $196 $197 $287 reversed $122 $-1 #
coedge $-1 $197 $197 $196 $287 forward $124 $-1 #
coedge $-1 $198 $198 $125 $199 forward $193 $-1 #
edge $-1 $288 6.1275365110318934e-017 $288 6.2831853071796004 $198 $289 forward 7 unknown #
face $-1 $290 $291 $30 $-1 $292 reversed single #
loop $-1 $-1 $293 $126 #
plane-surface $-1 -43.476668599505601 0 0 1 0 0 0 0 -1 forward_v I I I I #
coedge $-1 $294 $211 $295 $296 forward $127 $-1 #
coedge $-1 $297 $129 $294 $298 forward $81 $-1 #
coedge $-1 $129 $297 $299 $300 forward $81 $-1 #
coedge $-1 $214 $213 $129 $207 reversed $215 $-1 #
edge $-1 $301 -20.749438120450105 $302 20.749438120450105 $206 $303 forward 7 unknown #
coedge $-1 $131 $130 $304 $305 forward $51 $-1 #
coedge $-1 $306 $307 $130 $210 reversed $291 $-1 #
edge $-1 $217 -43.476668599505601 $308 43.476668599505601 $209 $309 forward 7 unknown #
coedge $-1 $203 $310 $131 $212 reversed $127 $-1 #
edge $-1 $311 -43.476668599505601 $216 43.476668599505601 $211 $312 forward 7 unknown #
coedge $-1 $206 $132 $310 $313 forward $215 $-1 #
coedge $-1 $132 $206 $306 $314 reversed $215 $-1 #
loop $-1 $-1 $213 $290 #
vertex $-1 $133 $315 #
vertex $-1 $133 $316 #
straight-curve $-1 43.476668599505601 0 6.6098425258665809 0 1 0 I I #
face $-1 $317 $318 $31 $-1 $319 reversed single #
loop $-1 $-1 $320 $134 #
plane-surface $-1 0 0 6.6098425258665809 0 0 1 1 0 0 forward_v I I I I #
coedge $-1 $321 $322 $323 $324 reversed $135 $-1 #
coedge $-1 $140 $137 $325 $326 reversed $85 $-1 #
coedge $-1 $137 $140 $327 $328 reversed $85 $-1 #
coedge $-1 $322 $321 $137 $226 reversed $135 $-1 #
edge $-1 $329 -6.6098425258665809 $330 6.6098425258665809 $225 $331 forward 7 unknown #
coedge $-1 $139 $138 $332 $333 reversed $54 $-1 #
coedge $-1 $325 $334 $138 $229 forward $318 $-1 #
edge $-1 $335 -11.599245491600955 $233 -6.7011397660973433 $228 $336 forward 7 unknown #
coedge $-1 $337 $327 $139 $231 forward $220 $-1 #
edge $-1 $232 6.7011397660973433 $338 11.599245491600955 $230 $339 forward 7 unknown #
vertex $-1 $231 $340 #
vertex $-1 $229 $341 #
straight-curve $-1 -33.256983547772435 -15.851332394946493 0 0 0 -1 I I #
face $-1 $-1 $247 $32 $-1 $342 forward single #
loop $-1 $-1 $343 $142 #
plane-surface $-1 0 20.749438120450105 0 0 -1 0 0 0 -1 forward_v I I I I #
coedge $-1 $344 $345 $346 $347 reversed $143 $-1 #
coedge $-1 $348 $145 $147 $245 forward $89 $-1 #
coedge $-1 $145 $348 $344 $349 forward $89 $-1 #
coedge $-1 $346 $148 $145 $242 forward $247 $-1 #
edge $-1 $249 -12.138194851935943 $350 -1.0123498999850629 $241 $351 forward 7 unknown #
coedge $-1 $352 $353 $146 $244 forward $236 $-1 #
edge $-1 $354 -43.508783271212195 $248 -38.247495155548961 $243 $355 forward 7 unknown #
edge $-1 $249 34.52760120245658 $354 41.498876240900216 $147 $356 forward 7 unknown #
coedge $-1 $148 $346 $352 $357 forward $247 $-1 #
loop $-1 $-1 $346 $235 #
vertex $-1 $244 $358 #
vertex $-1 $149 $359 #
straight-curve $-1 -18.713467227896444 29.574121701245296 6.6098425258665827 0 -1 0 I I #
coedge $-1 $251 $251 $-1 $360 reversed $152 $-1 #
edge $-1 $361 0 $361 6.2831853071796004 $153 $362 forward 7 unknown #
vertex $-1 $156 $363 #
ellipse-curve $-1 -16.488298237506264 18.462654187411829 3.9791984680349644 0 0.75470958851134928 0.65605901945558964 0.5 0 0 1 I I #
coedge $-1 $255 $255 $-1 $364 reversed $159 $-1 #
edge $-1 $365 0 $365 6.2831853071796004 $160 $366 forward 7 unknown #
vertex $-1 $163 $367 #
ellipse-curve $-1 -13.150544751921 18.462654187411829 3.9791984680349644 0 0.75470958851134928 0.65605901945558964 0.5 0 0 1 I I #
coedge $-1 $259 $259 $-1 $368 reversed $166 $-1 #
edge $-1 $369 0 $369 6.2831853071796004 $167 $370 forward 7 unknown #
vertex $-1 $170 $371 #
ellipse-curve $-1 -9.8127912663357364 18.462654187411829 3.9791984680349644 0 0.75470958851134928 0.65605901945558964 0.5 0 0 1 I I #
face $-1 $-1 $372 $36 $-1 $373 reversed single #
loop $-1 $-1 $177 $171 #
plane-surface $-1 0 0 6.6098425258665809 0 0 1 1 0 0 forward_v I I I I #
coedge $-1 $374 $375 $376 $377 reversed $172 $-1 #
coedge $-1 $378 $174 $176 $273 forward $108 $-1 #
coedge $-1 $174 $378 $374 $379 forward $108 $-1 #
coedge $-1 $376 $177 $174 $270 forward $264 $-1 #
edge $-1 $276 9.6001394478168578 $380 20.725984399767739 $269 $381 forward 7 unknown #
coedge $-1 $382 $383 $175 $272 forward $372 $-1 #
edge $-1 $384 -43.508783271212195 $275 -38.247495155548961 $271 $385 forward 7 unknown #
edge $-1 $276 34.52760120245658 $384 41.498876240900216 $176 $386 forward 7 unknown #
coedge $-1 $177 $376 $382 $387 forward $264 $-1 #
vertex $-1 $272 $388 #
vertex $-1 $178 $389 #
straight-curve $-1 24.763201371609156 29.574121701245296 6.6098425258665827 0 -1 0 I I #
coedge $-1 $278 $278 $-1 $390 reversed $181 $-1 #
edge $-1 $391 0 $391 6.2831853071796004 $182 $392 forward 7 unknown #
vertex $-1 $185 $393 #
ellipse-curve $-1 26.988370361999344 18.462654187411829 3.9791984680349644 0 0.75470958851134928 0.65605901945558964 0.5 0 0 1 I I #
coedge $-1 $282 $282 $-1 $394 reversed $188 $-1 #
edge $-1 $395 0 $395 6.2831853071796004 $189 $396 forward 7 unknown #
vertex $-1 $192 $397 #
ellipse-curve $-1 30.326123847584597 18.462654187411829 3.9791984680349644 0 0.75470958851134928 0.65605901945558964 0.5 0 0 1 I I #
coedge $-1 $286 $286 $-1 $398 reversed $195 $-1 #
edge $-1 $399 0 $399 6.2831853071796004 $196 $400 forward 7 unknown #
vertex $-1 $199 $401 #
ellipse-curve $-1 33.663877333169864 18.462654187411829 3.9791984680349644 0 0.75470958851134928 0.65605901945558964 0.5 0 0 1 I I #
face $-1 $-1 $215 $30 $-1 $402 reversed single #
loop $-1 $-1 $306 $200 #
plane-surface $-1 0 20.749438120450105 0 0 -1 0 0 0 -1 forward_v I I I I #
coedge $-1 $403 $304 $307 $404 forward $201 $-1 #
coedge $-1 $310 $203 $204 $298 reversed $127 $-1 #
coedge $-1 $304 $403 $203 $296 reversed $201 $-1 #
edge $-1 $311 -6.6098425258665809 $405 6.6098425258665809 $295 $406 forward 7 unknown #
coedge $-1 $205 $204 $403 $407 forward $81 $-1 #
edge $-1 $302 -43.476668599505601 $405 43.476668599505601 $294 $408 forward 7 unknown #
coedge $-1 $307 $306 $205 $300 reversed $291 $-1 #
edge $-1 $409 -43.476668599505601 $301 43.476668599505601 $299 $410 forward 7 unknown #
vertex $-1 $207 $411 #
vertex $-1 $313 $412 #
straight-curve $-1 43.476668599505601 0 -6.6098425258665809 0 -1 0 I I #
coedge $-1 $293 $295 $208 $305 reversed $201 $-1 #
edge $-1 $308 -20.749438120450105 $311 20.749438120450105 $304 $413 forward 7 unknown #
coedge $-1 $299 $209 $214 $314 forward $291 $-1 #
coedge $-1 $209 $299 $293 $404 reversed $291 $-1 #
vertex $-1 $210 $414 #
straight-curve $-1 0 20.749438120450105 6.6098425258665809 -1 0 0 I I #
coedge $-1 $211 $294 $213 $313 reversed $127 $-1 #
vertex $-1 $305 $415 #
straight-curve $-1 0 -20.749438120450105 6.6098425258665809 1 0 0 I I #
edge $-1 $216 -6.6098425258665809 $302 6.6098425258665809 $213 $416 forward 7 unknown #
edge $-1 $217 -6.6098425258665809 $301 6.6098425258665809 $214 $417 forward 7 unknown #
point $-1 43.476668599505601 -20.749438120450105 6.6098425258665809 #
point $-1 43.476668599505601 20.749438120450105 6.6098425258665809 #
face $-1 $-1 $418 $31 $-1 $419 reversed single #
loop $-1 $-1 $420 $219 #
plane-surface $-1 0 0 -6.6098425258665809 0 0 1 1 0 0 forward_v I I I I #
coedge $-1 $327 $337 $322 $421 forward $220 $-1 #
coedge $-1 $225 $222 $420 $422 reversed $135 $-1 #
coedge $-1 $222 $225 $320 $421 reversed $135 $-1 #
coedge $-1 $423 $424 $222 $324 forward $418 $-1 #
edge $-1 $425 -6.6098425258665809 $426 6.6098425258665809 $323 $427 forward 7 unknown #
coedge $-1 $420 $228 $223 $326 forward $318 $-1 #
edge $-1 $233 -17.378491773886218 $330 -14.378491773886219 $325 $428 forward 7 unknown #
coedge $-1 $230 $320 $224 $328 forward $220 $-1 #
edge $-1 $329 14.378491773886219 $232 17.378491773886218 $327 $429 forward 7 unknown #
vertex $-1 $328 $430 #
vertex $-1 $326 $431 #
straight-curve $-1 -30.256983547772439 -15.851332394946493 0 0 0 -1 I I #
coedge $-1 $424 $423 $227 $333 forward $418 $-1 #
edge $-1 $338 -6.6098425258665809 $335 6.6098425258665809 $332 $432 forward 7 unknown #
coedge $-1 $228 $420 $424 $433 forward $318 $-1 #
vertex $-1 $229 $434 #
straight-curve $-1 -33.256983547772435 -9.1501926288491493 -6.6098425258665809 0 1 0 I I #
coedge $-1 $320 $230 $423 $435 forward $220 $-1 #
vertex $-1 $435 $436 #
straight-curve $-1 -33.256983547772435 -9.1501926288491493 6.6098425258665809 0 -1 0 I I #
point $-1 -33.256983547772435 -15.851332394946493 6.6098425258665809 #
point $-1 -33.256983547772435 -15.851332394946493 -6.6098425258665809 #
plane-surface $-1 0 0 6.6098425258665809 0 0 1 1 0 0 forward_v I I I I #
coedge $-1 $353 $352 $345 $437 forward $236 $-1 #
coedge $-1 $345 $238 $240 $349 reversed $143 $-1 #
coedge $-1 $238 $344 $343 $437 reversed $143 $-1 #
coedge $-1 $246 $241 $238 $347 forward $247 $-1 #
edge $-1 $350 -13.39825144687175 $438 -8.8246835807951918 $346 $439 forward 7 unknown #
coedge $-1 $240 $239 $353 $440 reversed $89 $-1 #
edge $-1 $441 -41.498876240900216 $350 -34.52760120245658 $344 $442 forward 7 unknown #
vertex $-1 $242 $443 #
straight-curve $-1 -6.5752723759605018 16.175870254373546 6.6098425258665756 1 0 0 I I #
coedge $-1 $343 $243 $246 $357 reversed $236 $-1 #
coedge $-1 $243 $343 $348 $440 forward $236 $-1 #
vertex $-1 $244 $444 #
straight-curve $-1 -18.713467227896444 20.749438120450105 44.857337681415544 0 0 1 I I #
straight-curve $-1 -18.713467227896444 -6.4762739346637517 32.66815422165655 0 0.65605901945558964 -0.75470958851134928 I I #
edge $-1 $438 7.5876222759455647 $248 18.713467227896444 $352 $445 forward 7 unknown #
point $-1 -18.713467227896444 20.749438120450105 6.6098425258665809 #
point $-1 -18.713467227896444 16.175870254373546 6.6098425258665827 #
edge $-1 $446 1 $446 0 $251 $-1 forward 7 unknown #
vertex $-1 $252 $447 #
ellipse-curve $-1 -16.488298237506264 17.443587797785355 3.0933375931821239 0 0.75470958851134928 0.65605901945558964 0.5 0 0 1 I I #
point $-1 -15.988298237506264 18.462654187411822 3.9791984680349581 #
edge $-1 $448 1 $448 0 $255 $-1 forward 7 unknown #
vertex $-1 $256 $449 #
ellipse-curve $-1 -13.150544751921 17.443587797785355 3.0933375931821239 0 0.75470958851134928 0.65605901945558964 0.5 0 0 1 I I #
point $-1 -12.650544751921 18.462654187411822 3.9791984680349581 #
edge $-1 $450 1 $450 0 $259 $-1 forward 7 unknown #
vertex $-1 $260 $451 #
ellipse-curve $-1 -9.8127912663357364 17.443587797785355 3.0933375931821239 0 0.75470958851134928 0.65605901945558964 0.5 0 0 1 I I #
point $-1 -9.3127912663357364 18.462654187411822 3.9791984680349581 #
loop $-1 $-1 $271 $263 #
plane-surface $-1 0 20.749438120450105 0 0 -1 0 0 0 -1 forward_v I I I I #
coedge $-1 $375 $266 $268 $379 reversed $172 $-1 #
coedge $-1 $266 $374 $452 $453 reversed $172 $-1 #
coedge $-1 $274 $269 $266 $377 forward $264 $-1 #
edge $-1 $380 -13.39825144687175 $454 -8.8246835807951918 $376 $455 forward 7 unknown #
coedge $-1 $268 $267 $383 $456 reversed $108 $-1 #
edge $-1 $457 -41.498876240900216 $380 -34.52760120245658 $374 $458 forward 7 unknown #
vertex $-1 $270 $459 #
straight-curve $-1 15.163061923792299 16.175870254373546 6.6098425258665756 1 0 0 I I #
coedge $-1 $452 $271 $274 $387 reversed $372 $-1 #
coedge $-1 $271 $452 $378 $456 forward $372 $-1 #
vertex $-1 $272 $460 #
straight-curve $-1 24.763201371609156 20.749438120450105 44.857337681415544 0 0 1 I I #
straight-curve $-1 24.763201371609156 -6.4762739346637517 32.66815422165655 0 0.65605901945558964 -0.75470958851134928 I I #
edge $-1 $454 -35.889046323560038 $275 -24.763201371609156 $382 $461 forward 7 unknown #
point $-1 24.763201371609156 20.749438120450105 6.6098425258665809 #
point $-1 24.763201371609156 16.175870254373546 6.6098425258665827 #
edge $-1 $462 1 $462 0 $278 $-1 forward 7 unknown #
vertex $-1 $279 $463 #
ellipse-curve $-1 26.988370361999344 17.443587797785355 3.0933375931821239 0 0.75470958851134928 0.65605901945558964 0.5 0 0 1 I I #
point $-1 27.488370361999344 18.462654187411822 3.9791984680349581 #
edge $-1 $464 1 $464 0 $282 $-1 forward 7 unknown #
vertex $-1 $283 $465 #
ellipse-curve $-1 30.326123847584597 17.443587797785355 3.0933375931821239 0 0.75470958851134928 0.65605901945558964 0.5 0 0 1 I I #
point $-1 30.826123847584597 18.462654187411822 3.9791984680349581 #
edge $-1 $466 1 $466 0 $286 $-1 forward 7 unknown #
vertex $-1 $287 $467 #
ellipse-curve $-1 33.663877333169864 17.443587797785355 3.0933375931821239 0 0.75470958851134928 0.65605901945558964 0.5 0 0 1 I I #
point $-1 34.163877333169864 18.462654187411822 3.9791984680349581 #
plane-surface $-1 43.476668599505601 0 0 -1 0 0 0 0 1 forward_v I I I I #
coedge $-1 $295 $293 $297 $407 reversed $201 $-1 #
edge $-1 $308 -6.6098425258665809 $409 6.6098425258665809 $307 $468 forward 7 unknown #
vertex $-1 $407 $469 #
straight-curve $-1 -43.476668599505601 -20.749438120450105 0 0 0 -1 I I #
edge $-1 $405 -20.749438120450105 $409 20.749438120450105 $403 $470 forward 7 unknown #
straight-curve $-1 0 -20.749438120450105 -6.6098425258665809 -1 0 0 I I #
vertex $-1 $300 $471 #
straight-curve $-1 0 20.749438120450105 -6.6098425258665809 1 0 0 I I #
point $-1 43.476668599505601 20.749438120450105 -6.6098425258665809 #
point $-1 43.476668599505601 -20.749438120450105 -6.6098425258665809 #
straight-curve $-1 -43.476668599505601 0 6.6098425258665809 0 -1 0 I I #
point $-1 -43.476668599505601 20.749438120450105 6.6098425258665809 #
point $-1 -43.476668599505601 -20.749438120450105 6.6098425258665809 #
straight-curve $-1 43.476668599505601 -20.749438120450105 0 0 0 -1 I I #
straight-curve $-1 43.476668599505601 20.749438120450105 0 0 0 -1 I I #
loop $-1 $-1 $323 $317 #
plane-surface $-1 0 -20.749438120450105 0 0 1 0 0 0 1 forward_v I I I I #
coedge $-1 $334 $325 $321 $422 forward $318 $-1 #
edge $-1 $426 -11.599245491600955 $329 -6.7011397660973433 $320 $472 forward 7 unknown #
edge $-1 $330 6.7011397660973433 $425 11.599245491600955 $420 $473 forward 7 unknown #
coedge $-1 $332 $323 $337 $435 reversed $418 $-1 #
coedge $-1 $323 $332 $334 $433 reversed $418 $-1 #
vertex $-1 $433 $474 #
vertex $-1 $324 $475 #
straight-curve $-1 -30.256983547772439 -20.749438120450105 0 0 0 1 I I #
straight-curve $-1 -15.878491773886219 -15.851332394946493 -6.6098425258665809 1 0 0 I I #
straight-curve $-1 -15.878491773886219 -15.851332394946493 6.6098425258665809 -1 0 0 I I #
point $-1 -30.256983547772439 -15.851332394946493 6.6098425258665809 #
point $-1 -30.256983547772439 -15.851332394946493 -6.6098425258665809 #
straight-curve $-1 -33.256983547772435 -20.749438120450105 0 0 0 -1 I I #
edge $-1 $425 30.256983547772439 $335 33.256983547772435 $424 $476 forward 7 unknown #
point $-1 -33.256983547772435 -20.749438120450105 -6.6098425258665809 #
edge $-1 $338 -33.256983547772435 $426 -30.256983547772439 $423 $477 forward 7 unknown #
point $-1 -33.256983547772435 -20.749438120450105 6.6098425258665809 #
edge $-1 $438 38.247495155548961 $441 43.508783271212195 $343 $478 forward 7 unknown #
vertex $-1 $357 $479 #
straight-curve $-1 -7.5876222759455647 29.574121701245296 6.6098425258665827 0 1 0 I I #
edge $-1 $441 1.0123498999850629 $354 12.138194851935943 $353 $480 forward 7 unknown #
vertex $-1 $440 $481 #
straight-curve $-1 -7.5876222759455647 -6.4762739346637517 32.66815422165655 0 -0.65605901945558964 0.75470958851134928 I I #
point $-1 -7.5876222759455647 16.175870254373546 6.6098425258665827 #
point $-1 -18.713467227896444 20.749438120450105 1.3485544102033451 #
straight-curve $-1 0 20.749438120450105 6.6098425258665809 -1 0 0 I I #
vertex $-1 $360 $482 #
point $-1 -15.988298237506264 17.443587797785355 3.0933375931821239 #
vertex $-1 $364 $483 #
point $-1 -12.650544751921 17.443587797785355 3.0933375931821239 #
vertex $-1 $368 $484 #
point $-1 -9.3127912663357364 17.443587797785355 3.0933375931821239 #
coedge $-1 $383 $382 $375 $453 forward $372 $-1 #
edge $-1 $454 38.247495155548961 $457 43.508783271212195 $452 $485 forward 7 unknown #
vertex $-1 $387 $486 #
straight-curve $-1 35.889046323560038 29.574121701245296 6.6098425258665827 0 1 0 I I #
edge $-1 $457 -20.725984399767739 $384 -9.6001394478168578 $383 $487 forward 7 unknown #
vertex $-1 $456 $488 #
straight-curve $-1 35.889046323560038 -6.4762739346637517 32.66815422165655 0 -0.65605901945558964 0.75470958851134928 I I #
point $-1 35.889046323560038 16.175870254373546 6.6098425258665827 #
point $-1 24.763201371609156 20.749438120450105 1.3485544102033451 #
straight-curve $-1 0 20.749438120450105 6.6098425258665809 -1 0 0 I I #
vertex $-1 $390 $489 #
point $-1 27.488370361999344 17.443587797785355 3.0933375931821239 #
vertex $-1 $394 $490 #
point $-1 30.826123847584597 17.443587797785355 3.0933375931821239 #
vertex $-1 $398 $491 #
point $-1 34.163877333169864 17.443587797785355 3.0933375931821239 #
straight-curve $-1 -43.476668599505601 20.749438120450105 0 0 0 -1 I I #
point $-1 -43.476668599505601 -20.749438120450105 -6.6098425258665809 #
straight-curve $-1 -43.476668599505601 0 -6.6098425258665809 0 1 0 I I #
point $-1 -43.476668599505601 20.749438120450105 -6.6098425258665809 #
straight-curve $-1 -30.256983547772439 -9.1501926288491493 6.6098425258665809 0 1 0 I I #
straight-curve $-1 -30.256983547772439 -9.1501926288491493 -6.6098425258665809 0 -1 0 I I #
point $-1 -30.256983547772439 -20.749438120450105 -6.6098425258665809 #
point $-1 -30.256983547772439 -20.749438120450105 6.6098425258665809 #
straight-curve $-1 0 -20.749438120450105 -6.6098425258665809 -1 0 0 I I #
straight-curve $-1 0 -20.749438120450105 6.6098425258665809 1 0 0 I I #
straight-curve $-1 -7.5876222759455647 20.749438120450105 44.857337681415544 0 0 -1 I I #
point $-1 -7.5876222759455647 20.749438120450105 6.6098425258665809 #
straight-curve $-1 -6.5752723759605018 20.749438120450105 1.3485544102033433 -1 0 0 I I #
point $-1 -7.5876222759455647 20.749438120450105 1.3485544102033451 #
point $-1 -16.488298237506264 17.066233003529682 2.7653080834543289 #
point $-1 -13.150544751921 17.066233003529682 2.7653080834543289 #
point $-1 -9.8127912663357364 17.066233003529682 2.7653080834543289 #
straight-curve $-1 35.889046323560038 20.749438120450105 44.857337681415544 0 0 -1 I I #
point $-1 35.889046323560038 20.749438120450105 6.6098425258665809 #
straight-curve $-1 15.163061923792299 20.749438120450105 1.3485544102033433 -1 0 0 I I #
point $-1 35.889046323560038 20.749438120450105 1.3485544102033451 #
point $-1 26.988370361999344 17.066233003529682 2.7653080834543289 #
point $-1 30.326123847584597 17.066233003529682 2.7653080834543289 #
point $-1 33.663877333169864 17.066233003529682 2.7653080834543289 #
End-of-ACIS-data 