500 0 18 0           
7 Unknown 11 ACIS 5.0 NT 24 Thu Mar 25 22:01:59 1999 
-1 9.9999999999999995e-007 1e-010 
body $-1 $18 $-1 $19 #
body $-1 $20 $-1 $21 #
body $-1 $22 $-1 $23 #
body $-1 $24 $-1 $25 #
body $-1 $26 $-1 $27 #
body $-1 $28 $-1 $29 #
body $-1 $30 $-1 $31 #
body $-1 $32 $-1 $33 #
body $-1 $34 $-1 $35 #
body $-1 $36 $-1 $37 #
body $-1 $38 $-1 $39 #
body $-1 $40 $-1 $41 #
body $-1 $42 $-1 $43 #
body $-1 $44 $-1 $45 #
body $-1 $46 $-1 $47 #
body $-1 $48 $-1 $49 #
body $-1 $50 $-1 $51 #
body $-1 $52 $-1 $53 #
lump $-1 $-1 $54 $0 #
transform $-1 1 0 0 0 1 0 0 0 1 79.99755851924192 39.26318355718108 7.9561658431644933 1 rotate no_reflect no_shear #
lump $-1 $-1 $55 $1 #
transform $-1 1 0 0 0 1 0 0 0 1 79.99755851924192 39.26318355718108 7.9561658431644933 1 rotate no_reflect no_shear #
lump $-1 $-1 $56 $2 #
transform $-1 1 0 0 0 1 0 0 0 1 79.99755851924192 39.26318355718108 7.9561658431644933 1 rotate no_reflect no_shear #
lump $-1 $-1 $57 $3 #
transform $-1 1 0 0 0 1 0 0 0 1 79.99755851924192 39.26318355718108 7.9561658431644933 1 rotate no_reflect no_shear #
lump $-1 $-1 $58 $4 #
transform $-1 1 0 0 0 1 0 0 0 1 79.99755851924192 39.26318355718108 7.9561658431644933 1 rotate no_reflect no_shear #
lump $-1 $-1 $59 $5 #
transform $-1 1 0 0 0 1 0 0 0 1 79.99755851924192 39.26318355718108 7.9561658431644933 1 rotate no_reflect no_shear #
lump $-1 $-1 $60 $6 #
transform $-1 1 0 0 0 1 0 0 0 1 79.99755851924192 39.26318355718108 7.9561658431644933 1 rotate no_reflect no_shear #
lump $-1 $-1 $61 $7 #
transform $-1 1 0 0 0 1 0 0 0 1 79.99755851924192 39.26318355718108 7.9561658431644933 1 rotate no_reflect no_shear #
lump $-1 $-1 $62 $8 #
transform $-1 1 0 0 0 1 0 0 0 1 79.99755851924192 39.26318355718108 7.9561658431644933 1 rotate no_reflect no_shear #
lump $-1 $-1 $63 $9 #
transform $-1 1 0 0 0 1 0 0 0 1 79.99755851924192 39.26318355718108 7.9561658431644933 1 rotate no_reflect no_shear #
lump $-1 $-1 $64 $10 #
transform $-1 1 0 0 0 1 0 0 0 1 79.99755851924192 39.26318355718108 7.9561658431644933 1 rotate no_reflect no_shear #
lump $-1 $-1 $65 $11 #
transform $-1 1 0 0 0 1 0 0 0 1 79.99755851924192 39.26318355718108 7.9561658431644933 1 rotate no_reflect no_shear #
lump $-1 $-1 $66 $12 #
transform $-1 1 0 0 0 1 0 0 0 1 79.99755851924192 39.26318355718108 7.9561658431644933 1 rotate no_reflect no_shear #
lump $-1 $-1 $67 $13 #
transform $-1 1 0 0 0 1 0 0 0 1 79.99755851924192 39.26318355718108 7.9561658431644933 1 rotate no_reflect no_shear #
lump $-1 $-1 $68 $14 #
transform $-1 1 0 0 0 1 0 0 0 1 79.99755851924192 39.26318355718108 7.9561658431644933 1 rotate no_reflect no_shear #
lump $-1 $-1 $69 $15 #
transform $-1 1 0 0 0 1 0 0 0 1 79.99755851924192 39.26318355718108 7.9561658431644933 1 rotate no_reflect no_shear #
lump $-1 $-1 $70 $16 #
transform $-1 1 0 0 0 1 0 0 0 1 79.99755851924192 39.26318355718108 7.9561658431644933 1 rotate no_reflect no_shear #
lump $-1 $-1 $71 $17 #
transform $-1 1 0 0 0 1 0 0 0 1 79.99755851924192 39.26318355718108 7.9561658431644933 1 rotate no_reflect no_shear #
shell $-1 $-1 $-1 $72 $-1 $18 #
shell $-1 $-1 $-1 $73 $-1 $20 #
shell $-1 $-1 $-1 $74 $-1 $22 #
shell $-1 $-1 $-1 $75 $-1 $24 #
shell $-1 $-1 $-1 $76 $-1 $26 #
shell $-1 $-1 $-1 $77 $-1 $28 #
shell $-1 $-1 $-1 $78 $-1 $30 #
shell $-1 $-1 $-1 $79 $-1 $32 #
shell $-1 $-1 $-1 $80 $-1 $34 #
shell $-1 $-1 $-1 $81 $-1 $36 #
shell $-1 $-1 $-1 $82 $-1 $38 #
shell $-1 $-1 $-1 $83 $-1 $40 #
shell $-1 $-1 $-1 $84 $-1 $42 #
shell $-1 $-1 $-1 $85 $-1 $44 #
shell $-1 $-1 $-1 $86 $-1 $46 #
shell $-1 $-1 $-1 $87 $-1 $48 #
shell $-1 $-1 $-1 $88 $-1 $50 #
shell $-1 $-1 $-1 $89 $-1 $52 #
face $-1 $90 $91 $54 $-1 $92 forward single #
face $-1 $93 $94 $55 $-1 $95 forward single #
face $-1 $96 $97 $56 $-1 $98 reversed single #
face $-1 $99 $100 $57 $-1 $101 forward single #
face $-1 $102 $103 $58 $-1 $104 forward single #
face $-1 $105 $106 $59 $-1 $107 forward single #
face $-1 $108 $109 $60 $-1 $110 reversed single #
face $-1 $111 $112 $61 $-1 $113 forward single #
face $-1 $114 $115 $62 $-1 $116 forward single #
face $-1 $117 $118 $63 $-1 $119 forward single #
face $-1 $120 $121 $64 $-1 $122 reversed single #
face $-1 $123 $124 $65 $-1 $125 forward single #
face $-1 $126 $127 $66 $-1 $128 forward single #
face $-1 $129 $130 $67 $-1 $131 forward single #
face $-1 $132 $133 $68 $-1 $134 reversed single #
face $-1 $135 $136 $69 $-1 $137 forward single #
face $-1 $138 $139 $70 $-1 $140 forward single #
face $-1 $141 $142 $71 $-1 $143 forward single #
face $-1 $144 $145 $54 $-1 $146 reversed single #
loop $-1 $-1 $147 $72 #
plane-surface $-1 0 0 7.9561658431644933 0 0 1 1 0 0 forward_v I I I I #
face $-1 $148 $149 $55 $-1 $150 reversed single #
loop $-1 $-1 $151 $73 #
plane-surface $-1 -79.99755851924192 0 0 1 0 0 0 0 -1 forward_v I I I I #
face $-1 $152 $153 $56 $-1 $154 reversed single #
loop $-1 $-1 $155 $74 #
plane-surface $-1 -47.092030846078032 -158.1627282109315 111.5583658645899 -1 0 0 0 -0.74314483375859142 0.66913059716165679 forward_v I I I I #
face $-1 $156 $157 $57 $-1 $158 forward single #
loop $-1 $159 $160 $75 #
cone-surface $-1 -63.402958374851849 -36.578866250248467 5.2121868101364139 0 0.74314483375859142 -0.66913059716165679 1 0 0 1 I I 0 1 1 forward I I I I #
face $-1 $161 $162 $58 $-1 $163 forward single #
loop $-1 $164 $165 $76 #
cone-surface $-1 -57.286360551561671 -36.578866250248467 5.2121868101364139 0 0.74314483375859142 -0.66913059716165679 1 0 0 1 I I 0 1 1 forward I I I I #
face $-1 $166 $167 $59 $-1 $168 forward single #
loop $-1 $169 $170 $77 #
cone-surface $-1 -51.169762728271486 -36.578866250248467 5.2121868101364139 0 0.74314483375859142 -0.66913059716165679 1 0 0 1 I I 0 1 1 forward I I I I #
face $-1 $171 $172 $60 $-1 $173 reversed single #
loop $-1 $-1 $174 $78 #
plane-surface $-1 -9.2972760928949914 -158.1627282109315 111.5583658645899 -1 0 0 0 -0.74314483375859142 0.66913059716165679 forward_v I I I I #
face $-1 $175 $176 $61 $-1 $177 forward single #
loop $-1 $178 $179 $79 #
cone-surface $-1 -25.608203621668807 -36.578866250248467 5.2121868101364139 0 0.74314483375859142 -0.66913059716165679 1 0 0 1 I I 0 1 1 forward I I I I #
face $-1 $180 $181 $62 $-1 $182 forward single #
loop $-1 $183 $184 $80 #
cone-surface $-1 -19.491605798378629 -36.578866250248467 5.2121868101364139 0 0.74314483375859142 -0.66913059716165679 1 0 0 1 I I 0 1 1 forward I I I I #
face $-1 $185 $186 $63 $-1 $187 forward single #
loop $-1 $188 $189 $81 #
cone-surface $-1 -13.375007975088437 -36.578866250248467 5.2121868101364139 0 0.74314483375859142 -0.66913059716165679 1 0 0 1 I I 0 1 1 forward I I I I #
face $-1 $190 $191 $64 $-1 $192 reversed single #
loop $-1 $-1 $193 $82 #
plane-surface $-1 28.497478660288053 -158.1627282109315 111.5583658645899 -1 0 0 0 -0.74314483375859142 0.66913059716165679 forward_v I I I I #
face $-1 $194 $195 $65 $-1 $196 forward single #
loop $-1 $197 $198 $83 #
cone-surface $-1 12.186551131514236 -36.578866250248467 5.2121868101364139 0 0.74314483375859142 -0.66913059716165679 1 0 0 1 I I 0 1 1 forward I I I I #
face $-1 $199 $200 $66 $-1 $201 forward single #
loop $-1 $202 $203 $84 #
cone-surface $-1 18.303148954804414 -36.578866250248467 5.2121868101364139 0 0.74314483375859142 -0.66913059716165679 1 0 0 1 I I 0 1 1 forward I I I I #
face $-1 $204 $205 $67 $-1 $206 forward single #
loop $-1 $207 $208 $85 #
cone-surface $-1 24.419746778094606 -36.578866250248467 5.2121868101364139 0 0.74314483375859142 -0.66913059716165679 1 0 0 1 I I 0 1 1 forward I I I I #
face $-1 $209 $210 $68 $-1 $211 reversed single #
loop $-1 $-1 $212 $86 #
plane-surface $-1 66.292233413471095 -158.1627282109315 111.5583658645899 -1 0 0 0 -0.74314483375859142 0.66913059716165679 forward_v I I I I #
face $-1 $213 $214 $69 $-1 $215 forward single #
loop $-1 $216 $217 $87 #
cone-surface $-1 49.981305884697292 -36.578866250248467 5.2121868101364139 0 0.74314483375859142 -0.66913059716165679 1 0 0 1 I I 0 1 1 forward I I I I #
face $-1 $218 $219 $70 $-1 $220 forward single #
loop $-1 $221 $222 $88 #
cone-surface $-1 56.097903707987456 -36.578866250248467 5.2121868101364139 0 0.74314483375859142 -0.66913059716165679 1 0 0 1 I I 0 1 1 forward I I I I #
face $-1 $223 $224 $71 $-1 $225 forward single #
loop $-1 $226 $227 $89 #
cone-surface $-1 62.214501531277648 -36.578866250248467 5.2121868101364139 0 0.74314483375859142 -0.66913059716165679 1 0 0 1 I I 0 1 1 forward I I I I #
face $-1 $228 $229 $54 $-1 $230 reversed single #
loop $-1 $-1 $231 $90 #
plane-surface $-1 0 0 -7.9561658431644933 0 0 1 1 0 0 forward_v I I I I #
coedge $-1 $232 $233 $234 $235 forward $91 $-1 #
face $-1 $236 $237 $55 $-1 $238 reversed single #
loop $-1 $-1 $239 $93 #
plane-surface $-1 0 39.26318355718108 0 0 -1 0 0 0 -1 forward_v I I I I #
coedge $-1 $240 $241 $242 $243 forward $94 $-1 #
face $-1 $244 $245 $56 $-1 $246 reversed single #
loop $-1 $-1 $247 $96 #
plane-surface $-1 -57.286360551561671 -39.263183557181051 4.500737657680034 0 -0.74314483375859142 0.66913059716165679 1 0 0 forward_v I I I I #
coedge $-1 $248 $249 $250 $251 reversed $97 $-1 #
face $-1 $-1 $252 $57 $-1 $253 forward single #
loop $-1 $254 $255 $99 #
cone-surface $-1 -63.402958374851849 -35.078617244214534 3.8613565712697184 0 0.74314483375859142 -0.66913059716165679 0.5 0 0 1 I I -0.70710678118654746 0.70710678118654746 0.5 forward I I I I #
loop $-1 $-1 $256 $75 #
coedge $-1 $160 $160 $257 $258 reversed $100 $-1 #
face $-1 $-1 $259 $58 $-1 $260 forward single #
loop $-1 $261 $262 $102 #
cone-surface $-1 -57.286360551561671 -35.078617244214534 3.8613565712697184 0 0.74314483375859142 -0.66913059716165679 0.5 0 0 1 I I -0.70710678118654746 0.70710678118654746 0.5 forward I I I I #
loop $-1 $-1 $263 $76 #
coedge $-1 $165 $165 $264 $265 reversed $103 $-1 #
face $-1 $-1 $266 $59 $-1 $267 forward single #
loop $-1 $268 $269 $105 #
cone-surface $-1 -51.169762728271486 -35.078617244214534 3.8613565712697184 0 0.74314483375859142 -0.66913059716165679 0.5 0 0 1 I I -0.70710678118654746 0.70710678118654746 0.5 forward I I I I #
loop $-1 $-1 $270 $77 #
coedge $-1 $170 $170 $271 $272 reversed $106 $-1 #
face $-1 $273 $274 $60 $-1 $275 reversed single #
loop $-1 $-1 $276 $108 #
plane-surface $-1 -19.491605798378629 -39.263183557181051 4.500737657680034 0 -0.74314483375859142 0.66913059716165679 1 0 0 forward_v I I I I #
coedge $-1 $277 $278 $279 $280 reversed $109 $-1 #
face $-1 $-1 $281 $61 $-1 $282 forward single #
loop $-1 $283 $284 $111 #
cone-surface $-1 -25.608203621668807 -35.078617244214534 3.8613565712697184 0 0.74314483375859142 -0.66913059716165679 0.5 0 0 1 I I -0.70710678118654746 0.70710678118654746 0.5 forward I I I I #
loop $-1 $-1 $285 $79 #
coedge $-1 $179 $179 $286 $287 reversed $112 $-1 #
face $-1 $-1 $288 $62 $-1 $289 forward single #
loop $-1 $290 $291 $114 #
cone-surface $-1 -19.491605798378629 -35.078617244214534 3.8613565712697184 0 0.74314483375859142 -0.66913059716165679 0.5 0 0 1 I I -0.70710678118654746 0.70710678118654746 0.5 forward I I I I #
loop $-1 $-1 $292 $80 #
coedge $-1 $184 $184 $293 $294 reversed $115 $-1 #
face $-1 $-1 $295 $63 $-1 $296 forward single #
loop $-1 $297 $298 $117 #
cone-surface $-1 -13.375007975088437 -35.078617244214534 3.8613565712697184 0 0.74314483375859142 -0.66913059716165679 0.5 0 0 1 I I -0.70710678118654746 0.70710678118654746 0.5 forward I I I I #
loop $-1 $-1 $299 $81 #
coedge $-1 $189 $189 $300 $301 reversed $118 $-1 #
face $-1 $302 $303 $64 $-1 $304 reversed single #
loop $-1 $-1 $305 $120 #
plane-surface $-1 18.303148954804414 -39.263183557181051 4.500737657680034 0 -0.74314483375859142 0.66913059716165679 1 0 0 forward_v I I I I #
coedge $-1 $306 $307 $308 $309 reversed $121 $-1 #
face $-1 $-1 $310 $65 $-1 $311 forward single #
loop $-1 $312 $313 $123 #
cone-surface $-1 12.186551131514236 -35.078617244214534 3.8613565712697184 0 0.74314483375859142 -0.66913059716165679 0.5 0 0 1 I I -0.70710678118654746 0.70710678118654746 0.5 forward I I I I #
loop $-1 $-1 $314 $83 #
coedge $-1 $198 $198 $315 $316 reversed $124 $-1 #
face $-1 $-1 $317 $66 $-1 $318 forward single #
loop $-1 $319 $320 $126 #
cone-surface $-1 18.303148954804414 -35.078617244214534 3.8613565712697184 0 0.74314483375859142 -0.66913059716165679 0.5 0 0 1 I I -0.70710678118654746 0.70710678118654746 0.5 forward I I I I #
loop $-1 $-1 $321 $84 #
coedge $-1 $203 $203 $322 $323 reversed $127 $-1 #
face $-1 $-1 $324 $67 $-1 $325 forward single #
loop $-1 $326 $327 $129 #
cone-surface $-1 24.419746778094606 -35.078617244214534 3.8613565712697184 0 0.74314483375859142 -0.66913059716165679 0.5 0 0 1 I I -0.70710678118654746 0.70710678118654746 0.5 forward I I I I #
loop $-1 $-1 $328 $85 #
coedge $-1 $208 $208 $329 $330 reversed $130 $-1 #
face $-1 $331 $332 $68 $-1 $333 reversed single #
loop $-1 $-1 $334 $132 #
plane-surface $-1 56.097903707987456 -39.263183557181051 4.500737657680034 0 -0.74314483375859142 0.66913059716165679 1 0 0 forward_v I I I I #
coedge $-1 $335 $336 $337 $338 reversed $133 $-1 #
face $-1 $-1 $339 $69 $-1 $340 forward single #
loop $-1 $341 $342 $135 #
cone-surface $-1 49.981305884697292 -35.078617244214534 3.8613565712697184 0 0.74314483375859142 -0.66913059716165679 0.5 0 0 1 I I -0.70710678118654746 0.70710678118654746 0.5 forward I I I I #
loop $-1 $-1 $343 $87 #
coedge $-1 $217 $217 $344 $345 reversed $136 $-1 #
face $-1 $-1 $346 $70 $-1 $347 forward single #
loop $-1 $348 $349 $138 #
cone-surface $-1 56.097903707987456 -35.078617244214534 3.8613565712697184 0 0.74314483375859142 -0.66913059716165679 0.5 0 0 1 I I -0.70710678118654746 0.70710678118654746 0.5 forward I I I I #
loop $-1 $-1 $350 $88 #
coedge $-1 $222 $222 $351 $352 reversed $139 $-1 #
face $-1 $-1 $353 $71 $-1 $354 forward single #
loop $-1 $355 $356 $141 #
cone-surface $-1 62.214501531277648 -35.078617244214534 3.8613565712697184 0 0.74314483375859142 -0.66913059716165679 0.5 0 0 1 I I -0.70710678118654746 0.70710678118654746 0.5 forward I I I I #
loop $-1 $-1 $357 $89 #
coedge $-1 $227 $227 $358 $359 reversed $142 $-1 #
face $-1 $360 $361 $54 $-1 $362 reversed single #
loop $-1 $-1 $363 $144 #
plane-surface $-1 0 -39.26318355718108 0 0 1 0 0 0 1 forward_v I I I I #
coedge $-1 $364 $365 $366 $367 forward $145 $-1 #
coedge $-1 $368 $147 $369 $370 forward $91 $-1 #
coedge $-1 $147 $368 $371 $372 forward $91 $-1 #
coedge $-1 $373 $374 $147 $235 reversed $375 $-1 #
edge $-1 $376 -39.26318355718108 $377 39.26318355718108 $234 $378 forward 7 unknown #
face $-1 $379 $380 $55 $-1 $381 reversed single #
loop $-1 $-1 $242 $148 #
plane-surface $-1 -84.405607532117756 0 3.3061053535730389 0 0 1 1 0 0 forward_v I I I I #
coedge $-1 $382 $383 $240 $384 forward $149 $-1 #
coedge $-1 $385 $151 $239 $384 reversed $94 $-1 #
coedge $-1 $151 $385 $386 $387 reversed $94 $-1 #
coedge $-1 $388 $389 $151 $243 reversed $237 $-1 #
edge $-1 $390 -39.26318355718108 $391 39.26318355718108 $242 $392 forward 7 unknown #
face $-1 $393 $394 $56 $-1 $395 reversed single #
loop $-1 $-1 $396 $152 #
plane-surface $-1 -67.48069025704531 -158.1627282109315 111.5583658645899 1 0 0 0 0.74314483375859142 -0.66913059716165679 forward_v I I I I #
coedge $-1 $397 $398 $399 $400 reversed $153 $-1 #
coedge $-1 $249 $155 $401 $402 reversed $97 $-1 #
coedge $-1 $155 $248 $397 $403 reversed $97 $-1 #
coedge $-1 $399 $404 $155 $251 forward $405 $-1 #
edge $-1 $406 39.818180548284673 $407 42.929461983840675 $250 $408 forward 7 unknown #
loop $-1 $-1 $257 $156 #
plane-surface $-1 -57.286360551561671 -39.263183557181051 4.500737657680034 0 -0.74314483375859142 0.66913059716165679 1 0 0 forward_v I I I I #
loop $-1 $-1 $409 $99 #
coedge $-1 $255 $255 $256 $410 reversed $157 $-1 #
coedge $-1 $256 $256 $255 $410 forward $159 $-1 #
coedge $-1 $257 $257 $160 $258 forward $252 $-1 #
edge $-1 $411 -2.6508477246090836e-015 $411 6.2831853071795978 $257 $412 forward 7 unknown #
loop $-1 $-1 $264 $161 #
plane-surface $-1 -57.286360551561671 -39.263183557181051 4.500737657680034 0 -0.74314483375859142 0.66913059716165679 1 0 0 forward_v I I I I #
loop $-1 $-1 $413 $102 #
coedge $-1 $262 $262 $263 $414 reversed $162 $-1 #
coedge $-1 $263 $263 $262 $414 forward $164 $-1 #
coedge $-1 $264 $264 $165 $265 forward $259 $-1 #
edge $-1 $415 -2.6508477246090836e-015 $415 6.2831853071795978 $264 $416 forward 7 unknown #
loop $-1 $-1 $271 $166 #
plane-surface $-1 -57.286360551561671 -39.263183557181051 4.500737657680034 0 -0.74314483375859142 0.66913059716165679 1 0 0 forward_v I I I I #
loop $-1 $-1 $417 $105 #
coedge $-1 $269 $269 $270 $418 reversed $167 $-1 #
coedge $-1 $270 $270 $269 $418 forward $169 $-1 #
coedge $-1 $271 $271 $170 $272 forward $266 $-1 #
edge $-1 $419 -2.6508477246090836e-015 $419 6.2831853071795978 $271 $420 forward 7 unknown #
face $-1 $421 $422 $60 $-1 $423 reversed single #
loop $-1 $-1 $424 $171 #
plane-surface $-1 -29.685935503862268 -158.1627282109315 111.5583658645899 1 0 0 0 0.74314483375859142 -0.66913059716165679 forward_v I I I I #
coedge $-1 $425 $426 $427 $428 reversed $172 $-1 #
coedge $-1 $278 $174 $429 $430 reversed $109 $-1 #
coedge $-1 $174 $277 $425 $431 reversed $109 $-1 #
coedge $-1 $427 $432 $174 $280 forward $433 $-1 #
edge $-1 $434 39.818180548284673 $435 42.929461983840675 $279 $436 forward 7 unknown #
loop $-1 $-1 $286 $175 #
plane-surface $-1 -19.491605798378629 -39.263183557181051 4.500737657680034 0 -0.74314483375859142 0.66913059716165679 1 0 0 forward_v I I I I #
loop $-1 $-1 $437 $111 #
coedge $-1 $284 $284 $285 $438 reversed $176 $-1 #
coedge $-1 $285 $285 $284 $438 forward $178 $-1 #
coedge $-1 $286 $286 $179 $287 forward $281 $-1 #
edge $-1 $439 -2.6508477246090836e-015 $439 6.2831853071795978 $286 $440 forward 7 unknown #
loop $-1 $-1 $293 $180 #
plane-surface $-1 -19.491605798378629 -39.263183557181051 4.500737657680034 0 -0.74314483375859142 0.66913059716165679 1 0 0 forward_v I I I I #
loop $-1 $-1 $441 $114 #
coedge $-1 $291 $291 $292 $442 reversed $181 $-1 #
coedge $-1 $292 $292 $291 $442 forward $183 $-1 #
coedge $-1 $293 $293 $184 $294 forward $288 $-1 #
edge $-1 $443 -2.6508477246090836e-015 $443 6.2831853071795978 $293 $444 forward 7 unknown #
loop $-1 $-1 $300 $185 #
plane-surface $-1 -19.491605798378629 -39.263183557181051 4.500737657680034 0 -0.74314483375859142 0.66913059716165679 1 0 0 forward_v I I I I #
loop $-1 $-1 $445 $117 #
coedge $-1 $298 $298 $299 $446 reversed $186 $-1 #
coedge $-1 $299 $299 $298 $446 forward $188 $-1 #
coedge $-1 $300 $300 $189 $301 forward $295 $-1 #
edge $-1 $447 -2.6508477246090836e-015 $447 6.2831853071795978 $300 $448 forward 7 unknown #
face $-1 $449 $450 $64 $-1 $451 reversed single #
loop $-1 $-1 $452 $190 #
plane-surface $-1 8.108819249320776 -158.1627282109315 111.5583658645899 1 0 0 0 0.74314483375859142 -0.66913059716165679 forward_v I I I I #
coedge $-1 $453 $454 $455 $456 reversed $191 $-1 #
coedge $-1 $307 $193 $457 $458 reversed $121 $-1 #
coedge $-1 $193 $306 $453 $459 reversed $121 $-1 #
coedge $-1 $455 $460 $193 $309 forward $461 $-1 #
edge $-1 $462 39.818180548284673 $463 42.929461983840675 $308 $464 forward 7 unknown #
loop $-1 $-1 $315 $194 #
plane-surface $-1 18.303148954804414 -39.263183557181051 4.500737657680034 0 -0.74314483375859142 0.66913059716165679 1 0 0 forward_v I I I I #
loop $-1 $-1 $465 $123 #
coedge $-1 $313 $313 $314 $466 reversed $195 $-1 #
coedge $-1 $314 $314 $313 $466 forward $197 $-1 #
coedge $-1 $315 $315 $198 $316 forward $310 $-1 #
edge $-1 $467 -2.6508477246090836e-015 $467 6.2831853071795978 $315 $468 forward 7 unknown #
loop $-1 $-1 $322 $199 #
plane-surface $-1 18.303148954804414 -39.263183557181051 4.500737657680034 0 -0.74314483375859142 0.66913059716165679 1 0 0 forward_v I I I I #
loop $-1 $-1 $469 $126 #
coedge $-1 $320 $320 $321 $470 reversed $200 $-1 #
coedge $-1 $321 $321 $320 $470 forward $202 $-1 #
coedge $-1 $322 $322 $203 $323 forward $317 $-1 #
edge $-1 $471 -2.6508477246090836e-015 $471 6.2831853071795978 $322 $472 forward 7 unknown #
loop $-1 $-1 $329 $204 #
plane-surface $-1 18.303148954804414 -39.263183557181051 4.500737657680034 0 -0.74314483375859142 0.66913059716165679 1 0 0 forward_v I I I I #
loop $-1 $-1 $473 $129 #
coedge $-1 $327 $327 $328 $474 reversed $205 $-1 #
coedge $-1 $328 $328 $327 $474 forward $207 $-1 #
coedge $-1 $329 $329 $208 $330 forward $324 $-1 #
edge $-1 $475 -2.6508477246090836e-015 $475 6.2831853071795978 $329 $476 forward 7 unknown #
face $-1 $477 $478 $68 $-1 $479 reversed single #
loop $-1 $-1 $480 $209 #
plane-surface $-1 45.903574002503817 -158.1627282109315 111.5583658645899 1 0 0 0 0.74314483375859142 -0.66913059716165679 forward_v I I I I #
coedge $-1 $481 $482 $483 $484 reversed $210 $-1 #
coedge $-1 $336 $212 $485 $486 reversed $133 $-1 #
coedge $-1 $212 $335 $481 $487 reversed $133 $-1 #
coedge $-1 $483 $488 $212 $338 forward $489 $-1 #
edge $-1 $490 39.818180548284673 $491 42.929461983840675 $337 $492 forward 7 unknown #
loop $-1 $-1 $344 $213 #
plane-surface $-1 56.097903707987456 -39.263183557181051 4.500737657680034 0 -0.74314483375859142 0.66913059716165679 1 0 0 forward_v I I I I #
loop $-1 $-1 $493 $135 #
coedge $-1 $342 $342 $343 $494 reversed $214 $-1 #
coedge $-1 $343 $343 $342 $494 forward $216 $-1 #
coedge $-1 $344 $344 $217 $345 forward $339 $-1 #
edge $-1 $495 -2.6508477246090836e-015 $495 6.2831853071795978 $344 $496 forward 7 unknown #
loop $-1 $-1 $351 $218 #
plane-surface $-1 56.097903707987456 -39.263183557181051 4.500737657680034 0 -0.74314483375859142 0.66913059716165679 1 0 0 forward_v I I I I #
loop $-1 $-1 $497 $138 #
coedge $-1 $349 $349 $350 $498 reversed $219 $-1 #
coedge $-1 $350 $350 $349 $498 forward $221 $-1 #
coedge $-1 $351 $351 $222 $352 forward $346 $-1 #
edge $-1 $499 -2.6508477246090836e-015 $499 6.2831853071795978 $351 $500 forward 7 unknown #
loop $-1 $-1 $358 $223 #
plane-surface $-1 56.097903707987456 -39.263183557181051 4.500737657680034 0 -0.74314483375859142 0.66913059716165679 1 0 0 forward_v I I I I #
loop $-1 $-1 $501 $141 #
coedge $-1 $356 $356 $357 $502 reversed $224 $-1 #
coedge $-1 $357 $357 $356 $502 forward $226 $-1 #
coedge $-1 $358 $358 $227 $359 forward $353 $-1 #
edge $-1 $503 -2.6508477246090836e-015 $503 6.2831853071795978 $358 $504 forward 7 unknown #
face $-1 $505 $506 $54 $-1 $507 reversed single #
loop $-1 $-1 $508 $228 #
plane-surface $-1 -79.99755851924192 0 0 1 0 0 0 0 -1 forward_v I I I I #
coedge $-1 $509 $371 $510 $511 forward $229 $-1 #
coedge $-1 $512 $231 $509 $513 forward $145 $-1 #
coedge $-1 $231 $512 $514 $515 forward $145 $-1 #
coedge $-1 $374 $373 $231 $367 reversed $375 $-1 #
edge $-1 $516 -39.26318355718108 $517 39.26318355718108 $366 $518 forward 7 unknown #
coedge $-1 $233 $232 $519 $520 forward $91 $-1 #
coedge $-1 $521 $522 $232 $370 reversed $506 $-1 #
edge $-1 $377 -79.99755851924192 $523 79.99755851924192 $369 $524 forward 7 unknown #
coedge $-1 $363 $525 $233 $372 reversed $229 $-1 #
edge $-1 $526 -79.99755851924192 $376 79.99755851924192 $371 $527 forward 7 unknown #
coedge $-1 $366 $234 $525 $528 forward $375 $-1 #
coedge $-1 $234 $366 $521 $529 reversed $375 $-1 #
loop $-1 $-1 $373 $505 #
vertex $-1 $235 $530 #
vertex $-1 $235 $531 #
straight-curve $-1 79.99755851924192 0 7.9561658431644933 0 1 0 I I #
face $-1 $532 $533 $55 $-1 $534 forward single #
loop $-1 $-1 $535 $236 #
plane-surface $-1 -88.813656544993592 0 5.6311355983687665 1 0 0 0 0 -1 forward_v I I I I #
coedge $-1 $536 $239 $389 $537 reversed $149 $-1 #
coedge $-1 $239 $536 $538 $539 reversed $149 $-1 #
edge $-1 $540 -7.9561658431644933 $391 -3.3061053535730389 $239 $541 forward 7 unknown #
coedge $-1 $241 $240 $542 $543 reversed $94 $-1 #
coedge $-1 $544 $545 $241 $387 forward $546 $-1 #
edge $-1 $390 3.3061053535730389 $547 7.9561658431644933 $386 $548 forward 7 unknown #
coedge $-1 $549 $242 $545 $550 forward $237 $-1 #
coedge $-1 $242 $549 $382 $537 forward $237 $-1 #
vertex $-1 $387 $551 #
vertex $-1 $384 $552 #
straight-curve $-1 -79.99755851924192 0 3.3061053535730389 0 1 0 I I #
face $-1 $-1 $405 $56 $-1 $553 forward single #
loop $-1 $-1 $554 $244 #
plane-surface $-1 0 -39.26318355718108 0 0 1 0 0 0 1 forward_v I I I I #
coedge $-1 $555 $556 $557 $558 reversed $245 $-1 #
coedge $-1 $559 $247 $249 $403 forward $153 $-1 #
coedge $-1 $247 $559 $555 $560 forward $153 $-1 #
coedge $-1 $557 $250 $247 $400 forward $405 $-1 #
edge $-1 $407 18.448850570297196 $561 38.837509981264475 $399 $562 forward 7 unknown #
coedge $-1 $563 $564 $248 $402 forward $394 $-1 #
edge $-1 $565 -51.278445274614953 $406 -47.82301708913046 $401 $566 forward 7 unknown #
edge $-1 $407 -4.6497372093781451 $565 4.2779462749537973e-014 $249 $567 forward 7 unknown #
coedge $-1 $250 $557 $563 $568 forward $405 $-1 #
loop $-1 $-1 $557 $393 #
vertex $-1 $402 $569 #
vertex $-1 $251 $570 #
straight-curve $-1 -47.092030846078032 -79.081364105465752 7.9561658431644915 0 1 0 I I #
coedge $-1 $409 $409 $-1 $571 reversed $254 $-1 #
edge $-1 $572 0 $572 6.2831853071796004 $255 $573 forward 7 unknown #
vertex $-1 $258 $574 #
ellipse-curve $-1 -63.402958374851849 -37.707542839403075 6.2284517504222521 0 -0.74314483375859142 0.66913059716165679 1 0 0 1 I I #
coedge $-1 $413 $413 $-1 $575 reversed $261 $-1 #
edge $-1 $576 0 $576 6.2831853071796004 $262 $577 forward 7 unknown #
vertex $-1 $265 $578 #
ellipse-curve $-1 -57.286360551561671 -37.707542839403075 6.2284517504222521 0 -0.74314483375859142 0.66913059716165679 1 0 0 1 I I #
coedge $-1 $417 $417 $-1 $579 reversed $268 $-1 #
edge $-1 $580 0 $580 6.2831853071796004 $269 $581 forward 7 unknown #
vertex $-1 $272 $582 #
ellipse-curve $-1 -51.169762728271486 -37.707542839403075 6.2284517504222521 0 -0.74314483375859142 0.66913059716165679 1 0 0 1 I I #
face $-1 $-1 $433 $60 $-1 $583 forward single #
loop $-1 $-1 $584 $273 #
plane-surface $-1 0 -39.26318355718108 0 0 1 0 0 0 1 forward_v I I I I #
coedge $-1 $585 $586 $587 $588 reversed $274 $-1 #
coedge $-1 $589 $276 $278 $431 forward $172 $-1 #
coedge $-1 $276 $589 $585 $590 forward $172 $-1 #
coedge $-1 $587 $279 $276 $428 forward $433 $-1 #
edge $-1 $435 -0.44852680629432307 $591 19.940132604672954 $427 $592 forward 7 unknown #
coedge $-1 $593 $594 $277 $430 forward $422 $-1 #
edge $-1 $595 -51.278445274614953 $434 -47.82301708913046 $429 $596 forward 7 unknown #
edge $-1 $435 -4.6497372093781451 $595 4.2779462749537973e-014 $278 $597 forward 7 unknown #
coedge $-1 $279 $587 $593 $598 forward $433 $-1 #
loop $-1 $-1 $587 $421 #
vertex $-1 $430 $599 #
vertex $-1 $280 $600 #
straight-curve $-1 -9.2972760928949914 -79.081364105465752 7.9561658431644915 0 1 0 I I #
coedge $-1 $437 $437 $-1 $601 reversed $283 $-1 #
edge $-1 $602 0 $602 6.2831853071796004 $284 $603 forward 7 unknown #
vertex $-1 $287 $604 #
ellipse-curve $-1 -25.608203621668807 -37.707542839403075 6.2284517504222521 0 -0.74314483375859142 0.66913059716165679 1 0 0 1 I I #
coedge $-1 $441 $441 $-1 $605 reversed $290 $-1 #
edge $-1 $606 0 $606 6.2831853071796004 $291 $607 forward 7 unknown #
vertex $-1 $294 $608 #
ellipse-curve $-1 -19.491605798378629 -37.707542839403075 6.2284517504222521 0 -0.74314483375859142 0.66913059716165679 1 0 0 1 I I #
coedge $-1 $445 $445 $-1 $609 reversed $297 $-1 #
edge $-1 $610 0 $610 6.2831853071796004 $298 $611 forward 7 unknown #
vertex $-1 $301 $612 #
ellipse-curve $-1 -13.375007975088437 -37.707542839403075 6.2284517504222521 0 -0.74314483375859142 0.66913059716165679 1 0 0 1 I I #
face $-1 $-1 $461 $64 $-1 $613 forward single #
loop $-1 $-1 $614 $302 #
plane-surface $-1 0 -39.26318355718108 0 0 1 0 0 0 1 forward_v I I I I #
coedge $-1 $615 $616 $617 $618 reversed $303 $-1 #
coedge $-1 $619 $305 $307 $459 forward $191 $-1 #
coedge $-1 $305 $619 $615 $620 forward $191 $-1 #
coedge $-1 $617 $308 $305 $456 forward $461 $-1 #
edge $-1 $463 -19.345904182885846 $621 1.0427552280814307 $455 $622 forward 7 unknown #
coedge $-1 $623 $624 $306 $458 forward $450 $-1 #
edge $-1 $625 -51.278445274614953 $462 -47.82301708913046 $457 $626 forward 7 unknown #
edge $-1 $463 -4.6497372093781451 $625 4.2779462749537973e-014 $307 $627 forward 7 unknown #
coedge $-1 $308 $617 $623 $628 forward $461 $-1 #
loop $-1 $-1 $617 $449 #
vertex $-1 $458 $629 #
vertex $-1 $309 $630 #
straight-curve $-1 28.497478660288053 -79.081364105465752 7.9561658431644915 0 1 0 I I #
coedge $-1 $465 $465 $-1 $631 reversed $312 $-1 #
edge $-1 $632 0 $632 6.2831853071796004 $313 $633 forward 7 unknown #
vertex $-1 $316 $634 #
ellipse-curve $-1 12.186551131514236 -37.707542839403075 6.2284517504222521 0 -0.74314483375859142 0.66913059716165679 1 0 0 1 I I #
coedge $-1 $469 $469 $-1 $635 reversed $319 $-1 #
edge $-1 $636 0 $636 6.2831853071796004 $320 $637 forward 7 unknown #
vertex $-1 $323 $638 #
ellipse-curve $-1 18.303148954804414 -37.707542839403075 6.2284517504222521 0 -0.74314483375859142 0.66913059716165679 1 0 0 1 I I #
coedge $-1 $473 $473 $-1 $639 reversed $326 $-1 #
edge $-1 $640 0 $640 6.2831853071796004 $327 $641 forward 7 unknown #
vertex $-1 $330 $642 #
ellipse-curve $-1 24.419746778094606 -37.707542839403075 6.2284517504222521 0 -0.74314483375859142 0.66913059716165679 1 0 0 1 I I #
face $-1 $-1 $489 $68 $-1 $643 forward single #
loop $-1 $-1 $644 $331 #
plane-surface $-1 0 -39.26318355718108 0 0 1 0 0 0 1 forward_v I I I I #
coedge $-1 $645 $646 $647 $648 reversed $332 $-1 #
coedge $-1 $649 $334 $336 $487 forward $210 $-1 #
coedge $-1 $334 $649 $645 $650 forward $210 $-1 #
coedge $-1 $647 $337 $334 $484 forward $489 $-1 #
edge $-1 $491 -38.243281559477367 $651 -17.854622148510089 $483 $652 forward 7 unknown #
coedge $-1 $653 $654 $335 $486 forward $478 $-1 #
edge $-1 $655 -51.278445274614953 $490 -47.82301708913046 $485 $656 forward 7 unknown #
edge $-1 $491 -4.6497372093781451 $655 4.2779462749537973e-014 $336 $657 forward 7 unknown #
coedge $-1 $337 $647 $653 $658 forward $489 $-1 #
loop $-1 $-1 $647 $477 #
vertex $-1 $486 $659 #
vertex $-1 $338 $660 #
straight-curve $-1 66.292233413471095 -79.081364105465752 7.9561658431644915 0 1 0 I I #
coedge $-1 $493 $493 $-1 $661 reversed $341 $-1 #
edge $-1 $662 0 $662 6.2831853071796004 $342 $663 forward 7 unknown #
vertex $-1 $345 $664 #
ellipse-curve $-1 49.981305884697292 -37.707542839403075 6.2284517504222521 0 -0.74314483375859142 0.66913059716165679 1 0 0 1 I I #
coedge $-1 $497 $497 $-1 $665 reversed $348 $-1 #
edge $-1 $666 0 $666 6.2831853071796004 $349 $667 forward 7 unknown #
vertex $-1 $352 $668 #
ellipse-curve $-1 56.097903707987456 -37.707542839403075 6.2284517504222521 0 -0.74314483375859142 0.66913059716165679 1 0 0 1 I I #
coedge $-1 $501 $501 $-1 $669 reversed $355 $-1 #
edge $-1 $670 0 $670 6.2831853071796004 $356 $671 forward 7 unknown #
vertex $-1 $359 $672 #
ellipse-curve $-1 62.214501531277648 -37.707542839403075 6.2284517504222521 0 -0.74314483375859142 0.66913059716165679 1 0 0 1 I I #
face $-1 $-1 $375 $54 $-1 $673 reversed single #
loop $-1 $-1 $521 $360 #
plane-surface $-1 0 39.26318355718108 0 0 -1 0 0 0 -1 forward_v I I I I #
coedge $-1 $674 $519 $522 $675 forward $361 $-1 #
coedge $-1 $525 $363 $364 $513 reversed $229 $-1 #
coedge $-1 $519 $674 $363 $511 reversed $361 $-1 #
edge $-1 $526 -7.9561658431644933 $676 7.9561658431644933 $510 $677 forward 7 unknown #
coedge $-1 $365 $364 $674 $678 forward $145 $-1 #
edge $-1 $517 -79.99755851924192 $676 79.99755851924192 $509 $679 forward 7 unknown #
coedge $-1 $522 $521 $365 $515 reversed $506 $-1 #
edge $-1 $680 -79.99755851924192 $516 79.99755851924192 $514 $681 forward 7 unknown #
vertex $-1 $367 $682 #
vertex $-1 $528 $683 #
straight-curve $-1 79.99755851924192 0 -7.9561658431644933 0 -1 0 I I #
coedge $-1 $508 $510 $368 $520 reversed $361 $-1 #
edge $-1 $523 -39.26318355718108 $526 39.26318355718108 $519 $684 forward 7 unknown #
coedge $-1 $514 $369 $374 $529 forward $506 $-1 #
coedge $-1 $369 $514 $508 $675 reversed $506 $-1 #
vertex $-1 $370 $685 #
straight-curve $-1 0 39.26318355718108 7.9561658431644933 -1 0 0 I I #
coedge $-1 $371 $509 $373 $528 reversed $229 $-1 #
vertex $-1 $520 $686 #
straight-curve $-1 0 -39.26318355718108 7.9561658431644933 1 0 0 I I #
edge $-1 $376 -7.9561658431644933 $517 7.9561658431644933 $373 $687 forward 7 unknown #
edge $-1 $377 -7.9561658431644933 $516 7.9561658431644933 $374 $688 forward 7 unknown #
point $-1 79.99755851924192 -39.26318355718108 7.9561658431644933 #
point $-1 79.99755851924192 39.26318355718108 7.9561658431644933 #
face $-1 $-1 $546 $55 $-1 $689 reversed single #
loop $-1 $-1 $542 $379 #
plane-surface $-1 0 0 7.9561658431644933 0 0 1 1 0 0 forward_v I I I I #
coedge $-1 $690 $691 $536 $692 forward $380 $-1 #
coedge $-1 $383 $382 $535 $692 reversed $149 $-1 #
edge $-1 $693 -4.4080490128758356 $391 4.4080490128758356 $382 $694 forward 7 unknown #
coedge $-1 $695 $542 $383 $539 forward $533 $-1 #
edge $-1 $540 79.99755851924192 $696 88.813656544993592 $383 $697 forward 7 unknown #
vertex $-1 $539 $698 #
straight-curve $-1 -79.99755851924192 39.26318355718108 0 0 0 -1 I I #
coedge $-1 $538 $699 $385 $543 forward $533 $-1 #
edge $-1 $547 -39.26318355718108 $540 39.26318355718108 $542 $700 forward 7 unknown #
coedge $-1 $701 $386 $699 $702 reversed $546 $-1 #
coedge $-1 $386 $701 $388 $550 reversed $546 $-1 #
loop $-1 $-1 $386 $532 #
vertex $-1 $387 $703 #
straight-curve $-1 -79.99755851924192 -39.26318355718108 0 0 0 1 I I #
coedge $-1 $389 $388 $690 $704 forward $237 $-1 #
edge $-1 $390 -4.4080490128758356 $705 4.4080490128758356 $545 $706 forward 7 unknown #
point $-1 -79.99755851924192 -39.26318355718108 3.3061053535730389 #
point $-1 -79.99755851924192 39.26318355718108 3.3061053535730389 #
plane-surface $-1 0 0 7.9561658431644933 0 0 1 1 0 0 forward_v I I I I #
coedge $-1 $564 $563 $556 $707 forward $394 $-1 #
coedge $-1 $556 $396 $398 $560 reversed $245 $-1 #
coedge $-1 $396 $555 $554 $707 reversed $245 $-1 #
coedge $-1 $404 $399 $396 $558 forward $405 $-1 #
edge $-1 $561 -42.929461983840675 $708 -39.818180548284673 $557 $709 forward 7 unknown #
coedge $-1 $398 $397 $564 $710 reversed $153 $-1 #
edge $-1 $711 -4.2779462749537973e-014 $561 4.6497372093781451 $555 $712 forward 7 unknown #
vertex $-1 $400 $713 #
straight-curve $-1 -28.643180275780836 -36.151902121625078 7.9561658431644924 -1 0 0 I I #
coedge $-1 $554 $401 $404 $568 reversed $394 $-1 #
coedge $-1 $401 $554 $559 $710 forward $394 $-1 #
vertex $-1 $402 $714 #
straight-curve $-1 -47.092030846078032 -39.26318355718108 55.779182932294951 0 0 1 I I #
straight-curve $-1 -47.092030846078032 -39.263183557181051 4.500737657680034 0 -0.66913059716165679 -0.74314483375859142 I I #
edge $-1 $708 -67.48069025704531 $406 -47.092030846078032 $563 $715 forward 7 unknown #
point $-1 -47.092030846078032 -39.26318355718108 7.9561658431644933 #
point $-1 -47.092030846078032 -36.151902121625078 7.9561658431644933 #
edge $-1 $716 1 $716 0 $409 $-1 forward 7 unknown #
vertex $-1 $410 $717 #
ellipse-curve $-1 -63.402958374851849 -35.45018966109383 4.1959218698505465 0 -0.74314483375859142 0.66913059716165679 1 0 0 1 I I #
point $-1 -62.402958374851849 -37.707542839403111 6.2284517504222805 #
edge $-1 $718 1 $718 0 $413 $-1 forward 7 unknown #
vertex $-1 $414 $719 #
ellipse-curve $-1 -57.286360551561671 -35.45018966109383 4.1959218698505465 0 -0.74314483375859142 0.66913059716165679 1 0 0 1 I I #
point $-1 -56.286360551561671 -37.707542839403111 6.2284517504222805 #
edge $-1 $720 1 $720 0 $417 $-1 forward 7 unknown #
vertex $-1 $418 $721 #
ellipse-curve $-1 -51.169762728271486 -35.45018966109383 4.1959218698505465 0 -0.74314483375859142 0.66913059716165679 1 0 0 1 I I #
point $-1 -50.169762728271486 -37.707542839403111 6.2284517504222805 #
plane-surface $-1 0 0 7.9561658431644933 0 0 1 1 0 0 forward_v I I I I #
coedge $-1 $594 $593 $586 $722 forward $422 $-1 #
coedge $-1 $586 $424 $426 $590 reversed $274 $-1 #
coedge $-1 $424 $585 $584 $722 reversed $274 $-1 #
coedge $-1 $432 $427 $424 $588 forward $433 $-1 #
edge $-1 $591 -42.929461983840675 $723 -39.818180548284673 $587 $724 forward 7 unknown #
coedge $-1 $426 $425 $594 $725 reversed $172 $-1 #
edge $-1 $726 -4.2779462749537973e-014 $591 4.6497372093781451 $585 $727 forward 7 unknown #
vertex $-1 $428 $728 #
straight-curve $-1 -9.7458028991893144 -36.151902121625078 7.9561658431644924 -1 0 0 I I #
coedge $-1 $584 $429 $432 $598 reversed $422 $-1 #
coedge $-1 $429 $584 $589 $725 forward $422 $-1 #
vertex $-1 $430 $729 #
straight-curve $-1 -9.2972760928949914 -39.26318355718108 55.779182932294951 0 0 1 I I #
straight-curve $-1 -9.2972760928949914 -39.263183557181051 4.500737657680034 0 -0.66913059716165679 -0.74314483375859142 I I #
edge $-1 $723 -29.685935503862268 $434 -9.2972760928949914 $593 $730 forward 7 unknown #
point $-1 -9.2972760928949914 -39.26318355718108 7.9561658431644933 #
point $-1 -9.2972760928949914 -36.151902121625078 7.9561658431644933 #
edge $-1 $731 1 $731 0 $437 $-1 forward 7 unknown #
vertex $-1 $438 $732 #
ellipse-curve $-1 -25.608203621668807 -35.45018966109383 4.1959218698505465 0 -0.74314483375859142 0.66913059716165679 1 0 0 1 I I #
point $-1 -24.608203621668807 -37.707542839403111 6.2284517504222805 #
edge $-1 $733 1 $733 0 $441 $-1 forward 7 unknown #
vertex $-1 $442 $734 #
ellipse-curve $-1 -19.491605798378629 -35.45018966109383 4.1959218698505465 0 -0.74314483375859142 0.66913059716165679 1 0 0 1 I I #
point $-1 -18.491605798378629 -37.707542839403111 6.2284517504222805 #
edge $-1 $735 1 $735 0 $445 $-1 forward 7 unknown #
vertex $-1 $446 $736 #
ellipse-curve $-1 -13.375007975088437 -35.45018966109383 4.1959218698505465 0 -0.74314483375859142 0.66913059716165679 1 0 0 1 I I #
point $-1 -12.375007975088437 -37.707542839403111 6.2284517504222805 #
plane-surface $-1 0 0 7.9561658431644933 0 0 1 1 0 0 forward_v I I I I #
coedge $-1 $624 $623 $616 $737 forward $450 $-1 #
coedge $-1 $616 $452 $454 $620 reversed $303 $-1 #
coedge $-1 $452 $615 $614 $737 reversed $303 $-1 #
coedge $-1 $460 $455 $452 $618 forward $461 $-1 #
edge $-1 $621 -42.929461983840675 $738 -39.818180548284673 $617 $739 forward 7 unknown #
coedge $-1 $454 $453 $624 $740 reversed $191 $-1 #
edge $-1 $741 -4.2779462749537973e-014 $621 4.6497372093781451 $615 $742 forward 7 unknown #
vertex $-1 $456 $743 #
straight-curve $-1 9.1515744774022068 -36.151902121625078 7.9561658431644924 -1 0 0 I I #
coedge $-1 $614 $457 $460 $628 reversed $450 $-1 #
coedge $-1 $457 $614 $619 $740 forward $450 $-1 #
vertex $-1 $458 $744 #
straight-curve $-1 28.497478660288053 -39.26318355718108 55.779182932294951 0 0 1 I I #
straight-curve $-1 28.497478660288053 -39.263183557181051 4.500737657680034 0 -0.66913059716165679 -0.74314483375859142 I I #
edge $-1 $738 8.108819249320776 $462 28.497478660288053 $623 $745 forward 7 unknown #
point $-1 28.497478660288053 -39.26318355718108 7.9561658431644933 #
point $-1 28.497478660288053 -36.151902121625078 7.9561658431644933 #
edge $-1 $746 1 $746 0 $465 $-1 forward 7 unknown #
vertex $-1 $466 $747 #
ellipse-curve $-1 12.186551131514236 -35.45018966109383 4.1959218698505465 0 -0.74314483375859142 0.66913059716165679 1 0 0 1 I I #
point $-1 13.186551131514236 -37.707542839403111 6.2284517504222805 #
edge $-1 $748 1 $748 0 $469 $-1 forward 7 unknown #
vertex $-1 $470 $749 #
ellipse-curve $-1 18.303148954804414 -35.45018966109383 4.1959218698505465 0 -0.74314483375859142 0.66913059716165679 1 0 0 1 I I #
point $-1 19.303148954804414 -37.707542839403111 6.2284517504222805 #
edge $-1 $750 1 $750 0 $473 $-1 forward 7 unknown #
vertex $-1 $474 $751 #
ellipse-curve $-1 24.419746778094606 -35.45018966109383 4.1959218698505465 0 -0.74314483375859142 0.66913059716165679 1 0 0 1 I I #
point $-1 25.419746778094606 -37.707542839403111 6.2284517504222805 #
plane-surface $-1 0 0 7.9561658431644933 0 0 1 1 0 0 forward_v I I I I #
coedge $-1 $654 $653 $646 $752 forward $478 $-1 #
coedge $-1 $646 $480 $482 $650 reversed $332 $-1 #
coedge $-1 $480 $645 $644 $752 reversed $332 $-1 #
coedge $-1 $488 $483 $480 $648 forward $489 $-1 #
edge $-1 $651 -42.929461983840675 $753 -39.818180548284673 $647 $754 forward 7 unknown #
coedge $-1 $482 $481 $654 $755 reversed $210 $-1 #
edge $-1 $756 -4.2779462749537973e-014 $651 4.6497372093781451 $645 $757 forward 7 unknown #
vertex $-1 $484 $758 #
straight-curve $-1 28.048951853993728 -36.151902121625078 7.9561658431644924 -1 0 0 I I #
coedge $-1 $644 $485 $488 $658 reversed $478 $-1 #
coedge $-1 $485 $644 $649 $755 forward $478 $-1 #
vertex $-1 $486 $759 #
straight-curve $-1 66.292233413471095 -39.26318355718108 55.779182932294951 0 0 1 I I #
straight-curve $-1 66.292233413471095 -39.263183557181051 4.500737657680034 0 -0.66913059716165679 -0.74314483375859142 I I #
edge $-1 $753 45.903574002503817 $490 66.292233413471095 $653 $760 forward 7 unknown #
point $-1 66.292233413471095 -39.26318355718108 7.9561658431644933 #
point $-1 66.292233413471095 -36.151902121625078 7.9561658431644933 #
edge $-1 $761 1 $761 0 $493 $-1 forward 7 unknown #
vertex $-1 $494 $762 #
ellipse-curve $-1 49.981305884697292 -35.45018966109383 4.1959218698505465 0 -0.74314483375859142 0.66913059716165679 1 0 0 1 I I #
point $-1 50.981305884697292 -37.707542839403111 6.2284517504222805 #
edge $-1 $763 1 $763 0 $497 $-1 forward 7 unknown #
vertex $-1 $498 $764 #
ellipse-curve $-1 56.097903707987456 -35.45018966109383 4.1959218698505465 0 -0.74314483375859142 0.66913059716165679 1 0 0 1 I I #
point $-1 57.097903707987456 -37.707542839403111 6.2284517504222805 #
edge $-1 $765 1 $765 0 $501 $-1 forward 7 unknown #
vertex $-1 $502 $766 #
ellipse-curve $-1 62.214501531277648 -35.45018966109383 4.1959218698505465 0 -0.74314483375859142 0.66913059716165679 1 0 0 1 I I #
point $-1 63.214501531277648 -37.707542839403111 6.2284517504222805 #
plane-surface $-1 79.99755851924192 0 0 -1 0 0 0 0 1 forward_v I I I I #
coedge $-1 $510 $508 $512 $678 reversed $361 $-1 #
edge $-1 $523 -7.9561658431644933 $680 7.9561658431644933 $522 $767 forward 7 unknown #
vertex $-1 $678 $768 #
straight-curve $-1 -79.99755851924192 -39.26318355718108 0 0 0 -1 I I #
edge $-1 $676 -39.26318355718108 $680 39.26318355718108 $674 $769 forward 7 unknown #
straight-curve $-1 0 -39.26318355718108 -7.9561658431644933 -1 0 0 I I #
vertex $-1 $515 $770 #
straight-curve $-1 0 39.26318355718108 -7.9561658431644933 1 0 0 I I #
point $-1 79.99755851924192 39.26318355718108 -7.9561658431644933 #
point $-1 79.99755851924192 -39.26318355718108 -7.9561658431644933 #
straight-curve $-1 -79.99755851924192 0 7.9561658431644933 0 -1 0 I I #
point $-1 -79.99755851924192 39.26318355718108 7.9561658431644933 #
point $-1 -79.99755851924192 -39.26318355718108 7.9561658431644933 #
straight-curve $-1 79.99755851924192 -39.26318355718108 0 0 0 -1 I I #
straight-curve $-1 79.99755851924192 39.26318355718108 0 0 0 -1 I I #
plane-surface $-1 0 -39.26318355718108 0 0 1 0 0 0 1 forward_v I I I I #
coedge $-1 $771 $535 $549 $704 reversed $380 $-1 #
coedge $-1 $535 $771 $695 $772 reversed $380 $-1 #
edge $-1 $696 -2.3250302447957276 $693 2.3250302447957276 $536 $773 forward 7 unknown #
vertex $-1 $537 $774 #
straight-curve $-1 -84.405607532117756 39.26318355718108 3.3061053535730389 1 0 0 I I #
coedge $-1 $699 $538 $691 $772 forward $533 $-1 #
vertex $-1 $539 $775 #
straight-curve $-1 0 39.26318355718108 7.9561658431644933 -1 0 0 I I #
point $-1 -79.99755851924192 39.26318355718108 7.9561658431644933 #
coedge $-1 $542 $695 $544 $702 forward $533 $-1 #
straight-curve $-1 -79.99755851924192 0 7.9561658431644933 0 1 0 I I #
coedge $-1 $545 $544 $771 $776 forward $546 $-1 #
edge $-1 $777 -88.813656544993592 $547 -79.99755851924192 $544 $778 forward 7 unknown #
point $-1 -79.99755851924192 -39.26318355718108 7.9561658431644933 #
edge $-1 $705 -39.26318355718108 $693 39.26318355718108 $690 $779 forward 7 unknown #
vertex $-1 $704 $780 #
straight-curve $-1 -84.405607532117756 -39.26318355718108 3.3061053535730389 -1 0 0 I I #
edge $-1 $708 47.82301708913046 $711 51.278445274614953 $554 $781 forward 7 unknown #
vertex $-1 $568 $782 #
straight-curve $-1 -67.48069025704531 -79.081364105465752 7.9561658431644915 0 -1 0 I I #
edge $-1 $711 -38.837509981264475 $565 -18.448850570297196 $564 $783 forward 7 unknown #
vertex $-1 $710 $784 #
straight-curve $-1 -67.48069025704531 -39.263183557181051 4.500737657680034 0 0.66913059716165679 0.74314483375859142 I I #
point $-1 -67.48069025704531 -36.151902121625078 7.9561658431644933 #
point $-1 -47.092030846078032 -39.26318355718108 4.500737657680002 #
straight-curve $-1 0 -39.26318355718108 7.9561658431644933 1 0 0 I I #
vertex $-1 $571 $785 #
point $-1 -62.402958374851849 -35.45018966109383 4.1959218698505465 #
vertex $-1 $575 $786 #
point $-1 -56.286360551561671 -35.45018966109383 4.1959218698505465 #
vertex $-1 $579 $787 #
point $-1 -50.169762728271486 -35.45018966109383 4.1959218698505465 #
edge $-1 $723 47.82301708913046 $726 51.278445274614953 $584 $788 forward 7 unknown #
vertex $-1 $598 $789 #
straight-curve $-1 -29.685935503862268 -79.081364105465752 7.9561658431644915 0 -1 0 I I #
edge $-1 $726 -19.940132604672954 $595 0.44852680629432307 $594 $790 forward 7 unknown #
vertex $-1 $725 $791 #
straight-curve $-1 -29.685935503862268 -39.263183557181051 4.500737657680034 0 0.66913059716165679 0.74314483375859142 I I #
point $-1 -29.685935503862268 -36.151902121625078 7.9561658431644933 #
point $-1 -9.2972760928949914 -39.26318355718108 4.500737657680002 #
straight-curve $-1 0 -39.26318355718108 7.9561658431644933 1 0 0 I I #
vertex $-1 $601 $792 #
point $-1 -24.608203621668807 -35.45018966109383 4.1959218698505465 #
vertex $-1 $605 $793 #
point $-1 -18.491605798378629 -35.45018966109383 4.1959218698505465 #
vertex $-1 $609 $794 #
point $-1 -12.375007975088437 -35.45018966109383 4.1959218698505465 #
edge $-1 $738 47.82301708913046 $741 51.278445274614953 $614 $795 forward 7 unknown #
vertex $-1 $628 $796 #
straight-curve $-1 8.108819249320776 -79.081364105465752 7.9561658431644915 0 -1 0 I I #
edge $-1 $741 -1.0427552280814307 $625 19.345904182885846 $624 $797 forward 7 unknown #
vertex $-1 $740 $798 #
straight-curve $-1 8.108819249320776 -39.263183557181051 4.500737657680034 0 0.66913059716165679 0.74314483375859142 I I #
point $-1 8.108819249320776 -36.151902121625078 7.9561658431644933 #
point $-1 28.497478660288053 -39.26318355718108 4.500737657680002 #
straight-curve $-1 0 -39.26318355718108 7.9561658431644933 1 0 0 I I #
vertex $-1 $631 $799 #
point $-1 13.186551131514236 -35.45018966109383 4.1959218698505465 #
vertex $-1 $635 $800 #
point $-1 19.303148954804414 -35.45018966109383 4.1959218698505465 #
vertex $-1 $639 $801 #
point $-1 25.419746778094606 -35.45018966109383 4.1959218698505465 #
edge $-1 $753 47.82301708913046 $756 51.278445274614953 $644 $802 forward 7 unknown #
vertex $-1 $658 $803 #
straight-curve $-1 45.903574002503817 -79.081364105465752 7.9561658431644915 0 -1 0 I I #
edge $-1 $756 17.854622148510089 $655 38.243281559477367 $654 $804 forward 7 unknown #
vertex $-1 $755 $805 #
straight-curve $-1 45.903574002503817 -39.263183557181051 4.500737657680034 0 0.66913059716165679 0.74314483375859142 I I #
point $-1 45.903574002503817 -36.151902121625078 7.9561658431644933 #
point $-1 66.292233413471095 -39.26318355718108 4.500737657680002 #
straight-curve $-1 0 -39.26318355718108 7.9561658431644933 1 0 0 I I #
vertex $-1 $661 $806 #
point $-1 50.981305884697292 -35.45018966109383 4.1959218698505465 #
vertex $-1 $665 $807 #
point $-1 57.097903707987456 -35.45018966109383 4.1959218698505465 #
vertex $-1 $669 $808 #
point $-1 63.214501531277648 -35.45018966109383 4.1959218698505465 #
straight-curve $-1 -79.99755851924192 39.26318355718108 0 0 0 -1 I I #
point $-1 -79.99755851924192 -39.26318355718108 -7.9561658431644933 #
straight-curve $-1 -79.99755851924192 0 -7.9561658431644933 0 1 0 I I #
point $-1 -79.99755851924192 39.26318355718108 -7.9561658431644933 #
coedge $-1 $691 $690 $701 $776 reversed $380 $-1 #
edge $-1 $696 -39.26318355718108 $777 39.26318355718108 $691 $809 forward 7 unknown #
straight-curve $-1 -88.813656544993592 39.26318355718108 5.6311355983687665 0 0 -1 I I #
point $-1 -88.813656544993592 39.26318355718108 3.3061053535730389 #
point $-1 -88.813656544993592 39.26318355718108 7.9561658431644942 #
edge $-1 $777 -2.3250302447957276 $705 2.3250302447957276 $771 $810 forward 7 unknown #
vertex $-1 $772 $811 #
straight-curve $-1 0 -39.26318355718108 7.9561658431644933 1 0 0 I I #
straight-curve $-1 -88.813656544993592 0 3.3061053535730389 0 1 0 I I #
point $-1 -88.813656544993592 -39.26318355718108 3.3061053535730389 #
straight-curve $-1 -67.48069025704531 -39.26318355718108 55.779182932294951 0 0 -1 I I #
point $-1 -67.48069025704531 -39.26318355718108 7.9561658431644933 #
straight-curve $-1 -28.643180275780836 -39.26318355718108 4.5007376576800011 1 0 0 I I #
point $-1 -67.48069025704531 -39.26318355718108 4.500737657680002 #
point $-1 -63.402958374851849 -34.707044827335238 3.5267912726888899 #
point $-1 -57.286360551561671 -34.707044827335238 3.5267912726888899 #
point $-1 -51.169762728271486 -34.707044827335238 3.5267912726888899 #
straight-curve $-1 -29.685935503862268 -39.26318355718108 55.779182932294951 0 0 -1 I I #
point $-1 -29.685935503862268 -39.26318355718108 7.9561658431644933 #
straight-curve $-1 -9.7458028991893144 -39.26318355718108 4.5007376576800011 1 0 0 I I #
point $-1 -29.685935503862268 -39.26318355718108 4.500737657680002 #
point $-1 -25.608203621668807 -34.707044827335238 3.5267912726888899 #
point $-1 -19.491605798378629 -34.707044827335238 3.5267912726888899 #
point $-1 -13.375007975088437 -34.707044827335238 3.5267912726888899 #
straight-curve $-1 8.108819249320776 -39.26318355718108 55.779182932294951 0 0 -1 I I #
point $-1 8.108819249320776 -39.26318355718108 7.9561658431644933 #
straight-curve $-1 9.1515744774022068 -39.26318355718108 4.5007376576800011 1 0 0 I I #
point $-1 8.108819249320776 -39.26318355718108 4.500737657680002 #
point $-1 12.186551131514236 -34.707044827335238 3.5267912726888899 #
point $-1 18.303148954804414 -34.707044827335238 3.5267912726888899 #
point $-1 24.419746778094606 -34.707044827335238 3.5267912726888899 #
straight-curve $-1 45.903574002503817 -39.26318355718108 55.779182932294951 0 0 -1 I I #
point $-1 45.903574002503817 -39.26318355718108 7.9561658431644933 #
straight-curve $-1 28.048951853993728 -39.26318355718108 4.5007376576800011 1 0 0 I I #
point $-1 45.903574002503817 -39.26318355718108 4.500737657680002 #
point $-1 49.981305884697292 -34.707044827335238 3.5267912726888899 #
point $-1 56.097903707987456 -34.707044827335238 3.5267912726888899 #
point $-1 62.214501531277648 -34.707044827335238 3.5267912726888899 #
straight-curve $-1 -88.813656544993592 0 7.9561658431644942 0 -1 0 I I #
straight-curve $-1 -88.813656544993592 -39.26318355718108 5.6311355983687665 0 0 -1 I I #
point $-1 -88.813656544993592 -39.26318355718108 7.9561658431644942 #
End-of-ACIS-data 