500 0 14 0           
7 Unknown 11 ACIS 5.0 NT 24 Fri Mar 26 18:15:00 1999 
-1 9.9999999999999995e-007 1e-010 
body $-1 $14 $-1 $15 #
body $-1 $16 $-1 $17 #
body $-1 $18 $-1 $19 #
body $-1 $20 $-1 $21 #
body $-1 $22 $-1 $23 #
body $-1 $24 $-1 $25 #
body $-1 $26 $-1 $27 #
body $-1 $28 $-1 $29 #
body $-1 $30 $-1 $31 #
body $-1 $32 $-1 $33 #
body $-1 $34 $-1 $35 #
body $-1 $36 $-1 $37 #
body $-1 $38 $-1 $39 #
body $-1 $40 $-1 $41 #
lump $-1 $-1 $42 $0 #
transform $-1 1 0 0 0 1 0 0 0 1 43.800164799951169 22.552399683290389 7.1684929478247748 1 rotate no_reflect no_shear #
lump $-1 $-1 $43 $1 #
transform $-1 1 0 0 0 1 0 0 0 1 43.800164799951169 22.552399683290389 7.1684929478247748 1 rotate no_reflect no_shear #
lump $-1 $-1 $44 $2 #
transform $-1 1 0 0 0 1 0 0 0 1 43.800164799951169 22.552399683290389 7.1684929478247748 1 rotate no_reflect no_shear #
lump $-1 $-1 $45 $3 #
transform $-1 1 0 0 0 1 0 0 0 1 43.800164799951169 22.552399683290389 7.1684929478247748 1 rotate no_reflect no_shear #
lump $-1 $-1 $46 $4 #
transform $-1 1 0 0 0 1 0 0 0 1 43.800164799951169 22.552399683290389 7.1684929478247748 1 rotate no_reflect no_shear #
lump $-1 $-1 $47 $5 #
transform $-1 1 0 0 0 1 0 0 0 1 43.800164799951169 22.552399683290389 7.1684929478247748 1 rotate no_reflect no_shear #
lump $-1 $-1 $48 $6 #
transform $-1 1 0 0 0 1 0 0 0 1 43.800164799951169 22.552399683290389 7.1684929478247748 1 rotate no_reflect no_shear #
lump $-1 $-1 $49 $7 #
transform $-1 1 0 0 0 1 0 0 0 1 43.800164799951169 22.552399683290389 7.1684929478247748 1 rotate no_reflect no_shear #
lump $-1 $-1 $50 $8 #
transform $-1 1 0 0 0 1 0 0 0 1 43.800164799951169 22.552399683290389 7.1684929478247748 1 rotate no_reflect no_shear #
lump $-1 $-1 $51 $9 #
transform $-1 1 0 0 0 1 0 0 0 1 43.800164799951169 22.552399683290389 7.1684929478247748 1 rotate no_reflect no_shear #
lump $-1 $-1 $52 $10 #
transform $-1 1 0 0 0 1 0 0 0 1 43.800164799951169 22.552399683290389 7.1684929478247748 1 rotate no_reflect no_shear #
lump $-1 $-1 $53 $11 #
transform $-1 1 0 0 0 1 0 0 0 1 43.800164799951169 22.552399683290389 7.1684929478247748 1 rotate no_reflect no_shear #
lump $-1 $-1 $54 $12 #
transform $-1 1 0 0 0 1 0 0 0 1 43.800164799951169 22.552399683290389 7.1684929478247748 1 rotate no_reflect no_shear #
lump $-1 $-1 $55 $13 #
transform $-1 1 0 0 0 1 0 0 0 1 43.800164799951169 22.552399683290389 7.1684929478247748 1 rotate no_reflect no_shear #
shell $-1 $-1 $-1 $56 $-1 $14 #
shell $-1 $-1 $-1 $57 $-1 $16 #
shell $-1 $-1 $-1 $58 $-1 $18 #
shell $-1 $-1 $-1 $59 $-1 $20 #
shell $-1 $-1 $-1 $60 $-1 $22 #
shell $-1 $-1 $-1 $61 $-1 $24 #
shell $-1 $-1 $-1 $62 $-1 $26 #
shell $-1 $-1 $-1 $63 $-1 $28 #
shell $-1 $-1 $-1 $64 $-1 $30 #
shell $-1 $-1 $-1 $65 $-1 $32 #
shell $-1 $-1 $-1 $66 $-1 $34 #
shell $-1 $-1 $-1 $67 $-1 $36 #
shell $-1 $-1 $-1 $68 $-1 $38 #
shell $-1 $-1 $-1 $69 $-1 $40 #
face $-1 $70 $71 $42 $-1 $72 forward single #
face $-1 $73 $74 $43 $-1 $75 reversed single #
face $-1 $76 $77 $44 $-1 $78 reversed single #
face $-1 $79 $80 $45 $-1 $81 forward single #
face $-1 $82 $83 $46 $-1 $84 reversed single #
face $-1 $85 $86 $47 $-1 $87 forward single #
face $-1 $88 $89 $48 $-1 $90 reversed single #
face $-1 $91 $92 $49 $-1 $93 forward single #
face $-1 $94 $95 $50 $-1 $96 reversed single #
face $-1 $97 $98 $51 $-1 $99 forward single #
face $-1 $100 $101 $52 $-1 $102 reversed single #
face $-1 $103 $104 $53 $-1 $105 forward single #
face $-1 $106 $107 $54 $-1 $108 reversed single #
face $-1 $109 $110 $55 $-1 $111 forward single #
face $-1 $112 $113 $42 $-1 $114 reversed single #
loop $-1 $-1 $115 $56 #
plane-surface $-1 0 0 7.1684929478247748 0 0 1 1 0 0 forward_v I I I I #
face $-1 $116 $117 $43 $-1 $118 reversed single #
loop $-1 $-1 $119 $57 #
plane-surface $-1 -33.071771640604837 -18.872132113771759 0 1 0 0 0 0 -1 forward_v I I I I #
face $-1 $120 $121 $44 $-1 $122 reversed single #
loop $-1 $-1 $123 $58 #
plane-surface $-1 -97.732313636776922 -11.583390884463725 70.059689070038957 0 1 0 -0.61566148304635926 0 0.78801074757464917 forward_v I I I I #
face $-1 $124 $125 $45 $-1 $126 forward single #
loop $-1 $127 $128 $59 #
cone-surface $-1 -38.795590212218976 -8.2673603664751898 2.7219774691661405 0.61566148304635926 0 -0.78801074757464917 0.78801074757464917 0 0.61566148304635926 1 I I 0 1 1 forward I I I I #
face $-1 $129 $130 $46 $-1 $131 reversed single #
loop $-1 $-1 $132 $60 #
plane-surface $-1 -97.732313636776922 0.99803052471744724 70.059689070038957 0 1 0 -0.61566148304635926 0 0.78801074757464917 forward_v I I I I #
face $-1 $133 $134 $47 $-1 $135 forward single #
loop $-1 $136 $137 $61 #
cone-surface $-1 -38.795590212218976 4.3140610427059833 2.7219774691661405 0.61566148304635926 0 -0.78801074757464917 0.78801074757464917 0 0.61566148304635926 1 I I 0 1 1 forward I I I I #
face $-1 $138 $139 $48 $-1 $140 reversed single #
loop $-1 $-1 $141 $62 #
plane-surface $-1 -97.732313636776922 13.579451933898621 70.059689070038957 0 1 0 -0.61566148304635926 0 0.78801074757464917 forward_v I I I I #
face $-1 $142 $143 $49 $-1 $144 forward single #
loop $-1 $145 $146 $63 #
cone-surface $-1 -38.795590212218976 16.895482451887155 2.7219774691661405 0.61566148304635926 0 -0.78801074757464917 0.78801074757464917 0 0.61566148304635926 1 I I 0 1 1 forward I I I I #
face $-1 $147 $148 $50 $-1 $149 reversed single #
loop $-1 $-1 $150 $64 #
plane-surface $-1 28.702312420972227 -4.951329848486659 123.99183790686473 0 -1 0 -0.61566148304635926 0 -0.78801074757464917 forward_v I I I I #
face $-1 $151 $152 $51 $-1 $153 forward single #
loop $-1 $154 $155 $65 #
cone-surface $-1 38.795590212218983 -8.2673603664751898 2.7219774691661422 -0.61566148304635926 0 -0.78801074757464917 0.78801074757464917 0 -0.61566148304635926 1 I I 0 1 1 forward I I I I #
face $-1 $156 $157 $52 $-1 $158 reversed single #
loop $-1 $-1 $159 $66 #
plane-surface $-1 28.702312420972227 7.6300915606945123 123.99183790686473 0 -1 0 -0.61566148304635926 0 -0.78801074757464917 forward_v I I I I #
face $-1 $160 $161 $53 $-1 $162 forward single #
loop $-1 $163 $164 $67 #
cone-surface $-1 38.795590212218983 4.3140610427059833 2.7219774691661422 -0.61566148304635926 0 -0.78801074757464917 0.78801074757464917 0 -0.61566148304635926 1 I I 0 1 1 forward I I I I #
face $-1 $165 $166 $54 $-1 $167 reversed single #
loop $-1 $-1 $168 $68 #
plane-surface $-1 28.702312420972227 20.211512969875688 123.99183790686473 0 -1 0 -0.61566148304635926 0 -0.78801074757464917 forward_v I I I I #
face $-1 $169 $170 $55 $-1 $171 forward single #
loop $-1 $172 $173 $69 #
cone-surface $-1 38.795590212218983 16.895482451887155 2.7219774691661422 -0.61566148304635926 0 -0.78801074757464917 0.78801074757464917 0 -0.61566148304635926 1 I I 0 1 1 forward I I I I #
face $-1 $174 $175 $42 $-1 $176 reversed single #
loop $-1 $-1 $177 $70 #
plane-surface $-1 0 0 -7.1684929478247748 0 0 1 1 0 0 forward_v I I I I #
coedge $-1 $178 $179 $180 $181 forward $71 $-1 #
face $-1 $182 $183 $43 $-1 $184 reversed single #
loop $-1 $-1 $185 $73 #
plane-surface $-1 -31.571771640604837 -15.191864544253129 0 0 -1 0 0 0 -1 forward_v I I I I #
coedge $-1 $186 $187 $188 $189 forward $74 $-1 #
face $-1 $190 $191 $44 $-1 $192 reversed single #
loop $-1 $-1 $193 $76 #
plane-surface $-1 -43.800164799951169 -8.2673603664751916 1.029687854234254 -0.61566148304635926 0 0.78801074757464917 0.78801074757464917 0 0.61566148304635926 forward_v I I I I #
coedge $-1 $194 $195 $196 $197 reversed $77 $-1 #
face $-1 $-1 $198 $45 $-1 $199 forward single #
loop $-1 $200 $201 $79 #
cone-surface $-1 -37.411840909225916 -8.2673603664751898 0.95085916351544331 0.61566148304635926 0 -0.78801074757464917 0.39400537378732459 0 0.30783074152317963 1 I I -0.70710678118654746 0.70710678118654746 0.5 forward I I I I #
loop $-1 $-1 $202 $59 #
coedge $-1 $128 $128 $203 $204 reversed $80 $-1 #
face $-1 $205 $206 $46 $-1 $207 reversed single #
loop $-1 $-1 $208 $82 #
plane-surface $-1 -43.800164799951169 4.3140610427059798 1.029687854234254 -0.61566148304635926 0 0.78801074757464917 0.78801074757464917 0 0.61566148304635926 forward_v I I I I #
coedge $-1 $209 $210 $211 $212 reversed $83 $-1 #
face $-1 $-1 $213 $47 $-1 $214 forward single #
loop $-1 $215 $216 $85 #
cone-surface $-1 -37.411840909225916 4.3140610427059833 0.95085916351544331 0.61566148304635926 0 -0.78801074757464917 0.39400537378732459 0 0.30783074152317963 1 I I -0.70710678118654746 0.70710678118654746 0.5 forward I I I I #
loop $-1 $-1 $217 $61 #
coedge $-1 $137 $137 $218 $219 reversed $86 $-1 #
face $-1 $220 $221 $48 $-1 $222 reversed single #
loop $-1 $-1 $223 $88 #
plane-surface $-1 -43.800164799951169 16.895482451887155 1.029687854234254 -0.61566148304635926 0 0.78801074757464917 0.78801074757464917 0 0.61566148304635926 forward_v I I I I #
coedge $-1 $224 $225 $226 $227 reversed $89 $-1 #
face $-1 $-1 $228 $49 $-1 $229 forward single #
loop $-1 $230 $231 $91 #
cone-surface $-1 -37.411840909225916 16.895482451887155 0.95085916351544331 0.61566148304635926 0 -0.78801074757464917 0.39400537378732459 0 0.30783074152317963 1 I I -0.70710678118654746 0.70710678118654746 0.5 forward I I I I #
loop $-1 $-1 $232 $63 #
coedge $-1 $146 $146 $233 $234 reversed $92 $-1 #
face $-1 $235 $236 $50 $-1 $237 reversed single #
loop $-1 $-1 $238 $94 #
plane-surface $-1 -25.229836415853526 -8.2673603664751916 54.961836691060029 0.61566148304635926 0 0.78801074757464917 0.78801074757464917 0 -0.61566148304635926 forward_v I I I I #
coedge $-1 $239 $240 $241 $242 reversed $95 $-1 #
face $-1 $-1 $243 $51 $-1 $244 forward single #
loop $-1 $245 $246 $97 #
cone-surface $-1 37.411840909225923 -8.2673603664751898 0.95085916351544508 -0.61566148304635926 0 -0.78801074757464917 0.39400537378732459 0 -0.30783074152317963 1 I I -0.70710678118654746 0.70710678118654746 0.5 forward I I I I #
loop $-1 $-1 $247 $65 #
coedge $-1 $155 $155 $248 $249 reversed $98 $-1 #
face $-1 $250 $251 $52 $-1 $252 reversed single #
loop $-1 $-1 $253 $100 #
plane-surface $-1 -25.229836415853526 4.3140610427059798 54.961836691060029 0.61566148304635926 0 0.78801074757464917 0.78801074757464917 0 -0.61566148304635926 forward_v I I I I #
coedge $-1 $254 $255 $256 $257 reversed $101 $-1 #
face $-1 $-1 $258 $53 $-1 $259 forward single #
loop $-1 $260 $261 $103 #
cone-surface $-1 37.411840909225923 4.3140610427059833 0.95085916351544508 -0.61566148304635926 0 -0.78801074757464917 0.39400537378732459 0 -0.30783074152317963 1 I I -0.70710678118654746 0.70710678118654746 0.5 forward I I I I #
loop $-1 $-1 $262 $67 #
coedge $-1 $164 $164 $263 $264 reversed $104 $-1 #
face $-1 $265 $266 $54 $-1 $267 reversed single #
loop $-1 $-1 $268 $106 #
plane-surface $-1 -25.229836415853526 16.895482451887155 54.961836691060029 0.61566148304635926 0 0.78801074757464917 0.78801074757464917 0 -0.61566148304635926 forward_v I I I I #
coedge $-1 $269 $270 $271 $272 reversed $107 $-1 #
face $-1 $-1 $273 $55 $-1 $274 forward single #
loop $-1 $275 $276 $109 #
cone-surface $-1 37.411840909225923 16.895482451887155 0.95085916351544508 -0.61566148304635926 0 -0.78801074757464917 0.39400537378732459 0 -0.30783074152317963 1 I I -0.70710678118654746 0.70710678118654746 0.5 forward I I I I #
loop $-1 $-1 $277 $69 #
coedge $-1 $173 $173 $278 $279 reversed $110 $-1 #
face $-1 $280 $281 $42 $-1 $282 reversed single #
loop $-1 $-1 $283 $112 #
plane-surface $-1 0 -22.552399683290389 0 0 1 0 0 0 1 forward_v I I I I #
coedge $-1 $284 $285 $286 $287 forward $113 $-1 #
coedge $-1 $288 $115 $289 $290 forward $71 $-1 #
coedge $-1 $115 $288 $291 $292 forward $71 $-1 #
coedge $-1 $293 $294 $115 $181 reversed $295 $-1 #
edge $-1 $296 -22.552399683290389 $297 22.552399683290389 $180 $298 forward 7 unknown #
face $-1 $299 $300 $43 $-1 $301 forward single #
loop $-1 $-1 $302 $116 #
plane-surface $-1 -30.071771640604837 -18.872132113771759 0 -1 0 0 0 0 1 forward_v I I I I #
coedge $-1 $303 $304 $305 $306 forward $117 $-1 #
coedge $-1 $307 $119 $308 $309 reversed $74 $-1 #
coedge $-1 $119 $307 $310 $311 reversed $74 $-1 #
coedge $-1 $304 $303 $119 $189 reversed $117 $-1 #
edge $-1 $312 -7.1684929478247748 $313 7.1684929478247748 $188 $314 forward 7 unknown #
face $-1 $315 $316 $44 $-1 $317 reversed single #
loop $-1 $-1 $318 $120 #
plane-surface $-1 -97.732313636776922 -4.951329848486659 70.059689070038957 0 -1 0 0.61566148304635926 0 -0.78801074757464917 forward_v I I I I #
coedge $-1 $319 $320 $321 $322 reversed $121 $-1 #
coedge $-1 $195 $123 $323 $324 reversed $77 $-1 #
coedge $-1 $123 $194 $319 $325 reversed $77 $-1 #
coedge $-1 $321 $326 $123 $197 forward $327 $-1 #
edge $-1 $328 5.0659920184372922 $329 12.923304070961898 $196 $330 forward 7 unknown #
loop $-1 $-1 $203 $124 #
plane-surface $-1 -43.800164799951169 -8.2673603664751916 1.029687854234254 -0.61566148304635926 0 0.78801074757464917 0.78801074757464917 0 0.61566148304635926 forward_v I I I I #
loop $-1 $-1 $331 $79 #
coedge $-1 $201 $201 $202 $332 reversed $125 $-1 #
coedge $-1 $202 $202 $201 $332 forward $127 $-1 #
coedge $-1 $203 $203 $128 $204 forward $198 $-1 #
edge $-1 $333 0 $333 6.2831853071796004 $203 $334 forward 7 unknown #
face $-1 $335 $336 $46 $-1 $337 forward single #
loop $-1 $-1 $338 $129 #
plane-surface $-1 -97.732313636776922 7.6300915606945123 70.059689070038957 0 -1 0 0.61566148304635926 0 -0.78801074757464917 forward_v I I I I #
coedge $-1 $339 $340 $341 $342 reversed $130 $-1 #
coedge $-1 $210 $132 $343 $344 reversed $83 $-1 #
coedge $-1 $132 $209 $339 $345 reversed $83 $-1 #
coedge $-1 $341 $346 $132 $212 forward $336 $-1 #
edge $-1 $347 5.0659920184372922 $348 12.923304070961898 $211 $349 forward 7 unknown #
loop $-1 $-1 $218 $133 #
plane-surface $-1 -43.800164799951169 4.3140610427059798 1.029687854234254 -0.61566148304635926 0 0.78801074757464917 0.78801074757464917 0 0.61566148304635926 forward_v I I I I #
loop $-1 $-1 $350 $85 #
coedge $-1 $216 $216 $217 $351 reversed $134 $-1 #
coedge $-1 $217 $217 $216 $351 forward $136 $-1 #
coedge $-1 $218 $218 $137 $219 forward $213 $-1 #
edge $-1 $352 0 $352 6.2831853071796004 $218 $353 forward 7 unknown #
face $-1 $354 $355 $48 $-1 $356 forward single #
loop $-1 $-1 $357 $138 #
plane-surface $-1 -97.732313636776922 20.211512969875688 70.059689070038957 0 -1 0 0.61566148304635926 0 -0.78801074757464917 forward_v I I I I #
coedge $-1 $358 $359 $360 $361 reversed $139 $-1 #
coedge $-1 $225 $141 $362 $363 reversed $89 $-1 #
coedge $-1 $141 $224 $358 $364 reversed $89 $-1 #
coedge $-1 $360 $365 $141 $227 forward $355 $-1 #
edge $-1 $366 5.0659920184372922 $367 12.923304070961898 $226 $368 forward 7 unknown #
loop $-1 $-1 $233 $142 #
plane-surface $-1 -43.800164799951169 16.895482451887155 1.029687854234254 -0.61566148304635926 0 0.78801074757464917 0.78801074757464917 0 0.61566148304635926 forward_v I I I I #
loop $-1 $-1 $369 $91 #
coedge $-1 $231 $231 $232 $370 reversed $143 $-1 #
coedge $-1 $232 $232 $231 $370 forward $145 $-1 #
coedge $-1 $233 $233 $146 $234 forward $228 $-1 #
edge $-1 $371 0 $371 6.2831853071796004 $233 $372 forward 7 unknown #
face $-1 $373 $374 $50 $-1 $375 forward single #
loop $-1 $-1 $376 $147 #
plane-surface $-1 28.702312420972227 -11.583390884463725 123.99183790686473 0 1 0 0.61566148304635926 0 0.78801074757464917 forward_v I I I I #
coedge $-1 $377 $378 $379 $380 reversed $148 $-1 #
coedge $-1 $240 $150 $381 $382 reversed $95 $-1 #
coedge $-1 $150 $239 $377 $383 reversed $95 $-1 #
coedge $-1 $379 $384 $150 $242 forward $374 $-1 #
edge $-1 $385 -29.449008589465056 $386 -21.591696536940486 $241 $387 forward 7 unknown #
loop $-1 $-1 $248 $151 #
plane-surface $-1 -25.229836415853526 -8.2673603664751916 54.961836691060029 0.61566148304635926 0 0.78801074757464917 0.78801074757464917 0 -0.61566148304635926 forward_v I I I I #
loop $-1 $-1 $388 $97 #
coedge $-1 $246 $246 $247 $389 reversed $152 $-1 #
coedge $-1 $247 $247 $246 $389 forward $154 $-1 #
coedge $-1 $248 $248 $155 $249 forward $243 $-1 #
edge $-1 $390 0 $390 6.2831853071796004 $248 $391 forward 7 unknown #
face $-1 $392 $393 $52 $-1 $394 reversed single #
loop $-1 $-1 $395 $156 #
plane-surface $-1 28.702312420972227 0.99803052471744724 123.99183790686473 0 1 0 0.61566148304635926 0 0.78801074757464917 forward_v I I I I #
coedge $-1 $396 $397 $398 $399 reversed $157 $-1 #
coedge $-1 $255 $159 $400 $401 reversed $101 $-1 #
coedge $-1 $159 $254 $396 $402 reversed $101 $-1 #
coedge $-1 $398 $403 $159 $257 forward $404 $-1 #
edge $-1 $405 -29.449008589465056 $406 -21.591696536940486 $256 $407 forward 7 unknown #
loop $-1 $-1 $263 $160 #
plane-surface $-1 -25.229836415853526 4.3140610427059798 54.961836691060029 0.61566148304635926 0 0.78801074757464917 0.78801074757464917 0 -0.61566148304635926 forward_v I I I I #
loop $-1 $-1 $408 $103 #
coedge $-1 $261 $261 $262 $409 reversed $161 $-1 #
coedge $-1 $262 $262 $261 $409 forward $163 $-1 #
coedge $-1 $263 $263 $164 $264 forward $258 $-1 #
edge $-1 $410 0 $410 6.2831853071796004 $263 $411 forward 7 unknown #
face $-1 $412 $413 $54 $-1 $414 reversed single #
loop $-1 $-1 $415 $165 #
plane-surface $-1 28.702312420972227 13.579451933898621 123.99183790686473 0 1 0 0.61566148304635926 0 0.78801074757464917 forward_v I I I I #
coedge $-1 $416 $417 $418 $419 reversed $166 $-1 #
coedge $-1 $270 $168 $420 $421 reversed $107 $-1 #
coedge $-1 $168 $269 $416 $422 reversed $107 $-1 #
coedge $-1 $418 $423 $168 $272 forward $424 $-1 #
edge $-1 $425 -29.449008589465056 $426 -21.591696536940486 $271 $427 forward 7 unknown #
loop $-1 $-1 $278 $169 #
plane-surface $-1 -25.229836415853526 16.895482451887155 54.961836691060029 0.61566148304635926 0 0.78801074757464917 0.78801074757464917 0 -0.61566148304635926 forward_v I I I I #
loop $-1 $-1 $428 $109 #
coedge $-1 $276 $276 $277 $429 reversed $170 $-1 #
coedge $-1 $277 $277 $276 $429 forward $172 $-1 #
coedge $-1 $278 $278 $173 $279 forward $273 $-1 #
edge $-1 $430 0 $430 6.2831853071796004 $278 $431 forward 7 unknown #
face $-1 $432 $433 $42 $-1 $434 reversed single #
loop $-1 $-1 $435 $174 #
plane-surface $-1 -43.800164799951169 0 0 1 0 0 0 0 -1 forward_v I I I I #
coedge $-1 $436 $291 $437 $438 forward $175 $-1 #
coedge $-1 $439 $177 $436 $440 forward $113 $-1 #
coedge $-1 $177 $439 $441 $442 forward $113 $-1 #
coedge $-1 $294 $293 $177 $287 reversed $295 $-1 #
edge $-1 $443 -22.552399683290389 $444 22.552399683290389 $286 $445 forward 7 unknown #
coedge $-1 $179 $178 $446 $447 forward $71 $-1 #
coedge $-1 $448 $449 $178 $290 reversed $433 $-1 #
edge $-1 $297 -43.800164799951169 $450 43.800164799951169 $289 $451 forward 7 unknown #
coedge $-1 $283 $452 $179 $292 reversed $175 $-1 #
edge $-1 $453 -43.800164799951169 $296 43.800164799951169 $291 $454 forward 7 unknown #
coedge $-1 $286 $180 $452 $455 forward $295 $-1 #
coedge $-1 $180 $286 $448 $456 reversed $295 $-1 #
loop $-1 $-1 $293 $432 #
vertex $-1 $181 $457 #
vertex $-1 $181 $458 #
straight-curve $-1 43.800164799951169 0 7.1684929478247748 0 1 0 I I #
face $-1 $459 $460 $43 $-1 $461 reversed single #
loop $-1 $-1 $462 $182 #
plane-surface $-1 0 0 7.1684929478247748 0 0 1 1 0 0 forward_v I I I I #
coedge $-1 $463 $464 $465 $466 reversed $183 $-1 #
coedge $-1 $188 $185 $467 $468 reversed $117 $-1 #
coedge $-1 $185 $188 $469 $470 reversed $117 $-1 #
coedge $-1 $464 $463 $185 $306 reversed $183 $-1 #
edge $-1 $471 -7.1684929478247748 $472 7.1684929478247748 $305 $473 forward 7 unknown #
coedge $-1 $187 $186 $474 $475 reversed $74 $-1 #
coedge $-1 $467 $476 $186 $309 forward $460 $-1 #
edge $-1 $477 -13.11633362640451 $313 -5.7557984873672492 $308 $478 forward 7 unknown #
coedge $-1 $479 $469 $187 $311 forward $300 $-1 #
edge $-1 $312 5.7557984873672492 $480 13.11633362640451 $310 $481 forward 7 unknown #
vertex $-1 $311 $482 #
vertex $-1 $309 $483 #
straight-curve $-1 -33.071771640604837 -15.191864544253129 0 0 0 -1 I I #
face $-1 $-1 $327 $44 $-1 $484 forward single #
loop $-1 $-1 $485 $190 #
plane-surface $-1 -43.800164799951169 0 0 1 0 0 0 0 -1 forward_v I I I I #
coedge $-1 $486 $487 $488 $489 reversed $191 $-1 #
coedge $-1 $490 $193 $195 $325 forward $121 $-1 #
coedge $-1 $193 $490 $486 $491 forward $121 $-1 #
coedge $-1 $488 $196 $193 $322 forward $327 $-1 #
edge $-1 $329 -7.4497107012261292 $492 -0.81764966524906324 $321 $493 forward 7 unknown #
coedge $-1 $494 $495 $194 $324 forward $316 $-1 #
edge $-1 $496 -34.000156680785224 $328 -27.861351587194704 $323 $497 forward 7 unknown #
edge $-1 $329 -9.9710721924897001 $496 0 $195 $498 forward 7 unknown #
coedge $-1 $196 $488 $494 $499 forward $327 $-1 #
loop $-1 $-1 $488 $315 #
vertex $-1 $324 $500 #
vertex $-1 $197 $501 #
straight-curve $-1 -48.866156818388461 -11.583390884463725 7.1684929478247739 1 0 0 I I #
coedge $-1 $331 $331 $-1 $502 reversed $200 $-1 #
edge $-1 $503 0 $503 6.2831853071796004 $201 $504 forward 7 unknown #
vertex $-1 $204 $505 #
ellipse-curve $-1 -39.871508773688859 -8.2673603664751898 4.0990904010295175 -0.61566148304635926 0 0.78801074757464917 0.78801074757464917 0 0.61566148304635926 1 I I #
face $-1 $-1 $506 $46 $-1 $507 reversed single #
loop $-1 $-1 $211 $205 #
plane-surface $-1 0 0 7.1684929478247748 0 0 1 1 0 0 forward_v I I I I #
coedge $-1 $508 $509 $510 $511 reversed $206 $-1 #
coedge $-1 $512 $208 $210 $345 forward $130 $-1 #
coedge $-1 $208 $512 $508 $513 forward $130 $-1 #
coedge $-1 $510 $211 $208 $342 forward $336 $-1 #
edge $-1 $348 -1.1589999966355427 $514 5.4730610393415224 $341 $515 forward 7 unknown #
coedge $-1 $516 $517 $209 $344 forward $506 $-1 #
edge $-1 $518 -34.000156680785224 $347 -27.861351587194704 $343 $519 forward 7 unknown #
edge $-1 $348 -9.9710721924897001 $518 0 $210 $520 forward 7 unknown #
coedge $-1 $211 $510 $516 $521 forward $336 $-1 #
vertex $-1 $344 $522 #
vertex $-1 $212 $523 #
straight-curve $-1 -48.866156818388461 0.99803052471744724 7.1684929478247739 1 0 0 I I #
coedge $-1 $350 $350 $-1 $524 reversed $215 $-1 #
edge $-1 $525 0 $525 6.2831853071796004 $216 $526 forward 7 unknown #
vertex $-1 $219 $527 #
ellipse-curve $-1 -39.871508773688859 4.3140610427059833 4.0990904010295175 -0.61566148304635926 0 0.78801074757464917 0.78801074757464917 0 0.61566148304635926 1 I I #
face $-1 $-1 $528 $48 $-1 $529 reversed single #
loop $-1 $-1 $226 $220 #
plane-surface $-1 0 0 7.1684929478247748 0 0 1 1 0 0 forward_v I I I I #
coedge $-1 $530 $531 $532 $533 reversed $221 $-1 #
coedge $-1 $534 $223 $225 $364 forward $139 $-1 #
coedge $-1 $223 $534 $530 $535 forward $139 $-1 #
coedge $-1 $532 $226 $223 $361 forward $355 $-1 #
edge $-1 $367 5.1317107079550439 $536 11.763771743932111 $360 $537 forward 7 unknown #
coedge $-1 $538 $539 $224 $363 forward $528 $-1 #
edge $-1 $540 -34.000156680785224 $366 -27.861351587194704 $362 $541 forward 7 unknown #
edge $-1 $367 -9.9710721924897001 $540 0 $225 $542 forward 7 unknown #
coedge $-1 $226 $532 $538 $543 forward $355 $-1 #
vertex $-1 $227 $544 #
vertex $-1 $227 $545 #
straight-curve $-1 -48.866156818388461 13.579451933898621 7.1684929478247739 1 0 0 I I #
coedge $-1 $369 $369 $-1 $546 reversed $230 $-1 #
edge $-1 $547 0 $547 6.2831853071796004 $231 $548 forward 7 unknown #
vertex $-1 $234 $549 #
ellipse-curve $-1 -39.871508773688859 16.895482451887155 4.0990904010295175 -0.61566148304635926 0 0.78801074757464917 0.78801074757464917 0 0.61566148304635926 1 I I #
face $-1 $-1 $550 $50 $-1 $551 reversed single #
loop $-1 $-1 $241 $235 #
plane-surface $-1 0 0 7.1684929478247748 0 0 1 1 0 0 forward_v I I I I #
coedge $-1 $552 $553 $554 $555 reversed $236 $-1 #
coedge $-1 $556 $238 $240 $383 forward $148 $-1 #
coedge $-1 $238 $556 $552 $557 forward $148 $-1 #
coedge $-1 $554 $241 $238 $380 forward $374 $-1 #
edge $-1 $386 0.81764966524906324 $558 7.4497107012261292 $379 $559 forward 7 unknown #
coedge $-1 $560 $561 $239 $382 forward $550 $-1 #
edge $-1 $562 -60.966231099198083 $385 -54.827426005607592 $381 $563 forward 7 unknown #
edge $-1 $386 77.629257407412666 $562 87.600329599902324 $240 $564 forward 7 unknown #
coedge $-1 $241 $554 $560 $565 forward $374 $-1 #
vertex $-1 $382 $566 #
vertex $-1 $242 $567 #
straight-curve $-1 14.351156210486113 -4.951329848486659 7.1684929478247739 -1 0 0 I I #
coedge $-1 $388 $388 $-1 $568 reversed $245 $-1 #
edge $-1 $569 0 $569 6.2831853071796004 $246 $570 forward 7 unknown #
vertex $-1 $249 $571 #
ellipse-curve $-1 39.87150877368888 -8.2673603664751898 4.0990904010295317 0.61566148304635926 0 0.78801074757464917 0.78801074757464917 0 -0.61566148304635926 1 I I #
face $-1 $-1 $404 $52 $-1 $572 forward single #
loop $-1 $-1 $573 $250 #
plane-surface $-1 43.800164799951169 0 0 -1 0 0 0 0 1 forward_v I I I I #
coedge $-1 $574 $575 $576 $577 reversed $251 $-1 #
coedge $-1 $578 $253 $255 $402 forward $157 $-1 #
coedge $-1 $253 $578 $574 $579 forward $157 $-1 #
coedge $-1 $576 $256 $253 $399 forward $404 $-1 #
edge $-1 $406 -5.4730610393415224 $580 1.1589999966355427 $398 $581 forward 7 unknown #
coedge $-1 $582 $583 $254 $401 forward $393 $-1 #
edge $-1 $584 -60.966231099198083 $405 -54.827426005607592 $400 $585 forward 7 unknown #
edge $-1 $406 77.629257407412666 $584 87.600329599902324 $255 $586 forward 7 unknown #
coedge $-1 $256 $576 $582 $587 forward $404 $-1 #
loop $-1 $-1 $576 $392 #
vertex $-1 $401 $588 #
vertex $-1 $257 $589 #
straight-curve $-1 14.351156210486113 7.6300915606945123 7.1684929478247739 -1 0 0 I I #
coedge $-1 $408 $408 $-1 $590 reversed $260 $-1 #
edge $-1 $591 0 $591 6.2831853071796004 $261 $592 forward 7 unknown #
vertex $-1 $264 $593 #
ellipse-curve $-1 39.87150877368888 4.3140610427059833 4.0990904010295317 0.61566148304635926 0 0.78801074757464917 0.78801074757464917 0 -0.61566148304635926 1 I I #
face $-1 $-1 $424 $54 $-1 $594 forward single #
loop $-1 $-1 $595 $265 #
plane-surface $-1 43.800164799951169 0 0 -1 0 0 0 0 1 forward_v I I I I #
coedge $-1 $596 $597 $598 $599 reversed $266 $-1 #
coedge $-1 $600 $268 $270 $422 forward $166 $-1 #
coedge $-1 $268 $600 $596 $601 forward $166 $-1 #
coedge $-1 $598 $271 $268 $419 forward $424 $-1 #
edge $-1 $426 -11.763771743932111 $602 -5.1317107079550439 $418 $603 forward 7 unknown #
coedge $-1 $604 $605 $269 $421 forward $413 $-1 #
edge $-1 $606 -60.966231099198083 $425 -54.827426005607592 $420 $607 forward 7 unknown #
edge $-1 $426 77.629257407412666 $606 87.600329599902324 $270 $608 forward 7 unknown #
coedge $-1 $271 $598 $604 $609 forward $424 $-1 #
loop $-1 $-1 $598 $412 #
vertex $-1 $421 $610 #
vertex $-1 $272 $611 #
straight-curve $-1 14.351156210486113 20.211512969875688 7.1684929478247739 -1 0 0 I I #
coedge $-1 $428 $428 $-1 $612 reversed $275 $-1 #
edge $-1 $613 0 $613 6.2831853071796004 $276 $614 forward 7 unknown #
vertex $-1 $279 $615 #
ellipse-curve $-1 39.87150877368888 16.895482451887155 4.0990904010295317 0.61566148304635926 0 0.78801074757464917 0.78801074757464917 0 -0.61566148304635926 1 I I #
face $-1 $-1 $295 $42 $-1 $616 reversed single #
loop $-1 $-1 $448 $280 #
plane-surface $-1 0 22.552399683290389 0 0 -1 0 0 0 -1 forward_v I I I I #
coedge $-1 $617 $446 $449 $618 forward $281 $-1 #
coedge $-1 $452 $283 $284 $440 reversed $175 $-1 #
coedge $-1 $446 $617 $283 $438 reversed $281 $-1 #
edge $-1 $453 -7.1684929478247748 $619 7.1684929478247748 $437 $620 forward 7 unknown #
coedge $-1 $285 $284 $617 $621 forward $113 $-1 #
edge $-1 $444 -43.800164799951169 $619 43.800164799951169 $436 $622 forward 7 unknown #
coedge $-1 $449 $448 $285 $442 reversed $433 $-1 #
edge $-1 $623 -43.800164799951169 $443 43.800164799951169 $441 $624 forward 7 unknown #
vertex $-1 $287 $625 #
vertex $-1 $455 $626 #
straight-curve $-1 43.800164799951169 0 -7.1684929478247748 0 -1 0 I I #
coedge $-1 $435 $437 $288 $447 reversed $281 $-1 #
edge $-1 $450 -22.552399683290389 $453 22.552399683290389 $446 $627 forward 7 unknown #
coedge $-1 $441 $289 $294 $456 forward $433 $-1 #
coedge $-1 $289 $441 $435 $618 reversed $433 $-1 #
vertex $-1 $290 $628 #
straight-curve $-1 0 22.552399683290389 7.1684929478247748 -1 0 0 I I #
coedge $-1 $291 $436 $293 $455 reversed $175 $-1 #
vertex $-1 $447 $629 #
straight-curve $-1 0 -22.552399683290389 7.1684929478247748 1 0 0 I I #
edge $-1 $296 -7.1684929478247748 $444 7.1684929478247748 $293 $630 forward 7 unknown #
edge $-1 $297 -7.1684929478247748 $443 7.1684929478247748 $294 $631 forward 7 unknown #
point $-1 43.800164799951169 -22.552399683290389 7.1684929478247748 #
point $-1 43.800164799951169 22.552399683290389 7.1684929478247748 #
face $-1 $-1 $632 $43 $-1 $633 reversed single #
loop $-1 $-1 $634 $299 #
plane-surface $-1 0 0 -7.1684929478247748 0 0 1 1 0 0 forward_v I I I I #
coedge $-1 $469 $479 $464 $635 forward $300 $-1 #
coedge $-1 $305 $302 $634 $636 reversed $183 $-1 #
coedge $-1 $302 $305 $462 $635 reversed $183 $-1 #
coedge $-1 $637 $638 $302 $466 forward $632 $-1 #
edge $-1 $639 -7.1684929478247748 $640 7.1684929478247748 $465 $641 forward 7 unknown #
coedge $-1 $634 $308 $303 $468 forward $460 $-1 #
edge $-1 $313 -17.285885820302418 $472 -14.285885820302418 $467 $642 forward 7 unknown #
coedge $-1 $310 $462 $304 $470 forward $300 $-1 #
edge $-1 $471 14.285885820302418 $312 17.285885820302418 $469 $643 forward 7 unknown #
vertex $-1 $470 $644 #
vertex $-1 $468 $645 #
straight-curve $-1 -30.071771640604837 -15.191864544253129 0 0 0 -1 I I #
coedge $-1 $638 $637 $307 $475 forward $632 $-1 #
edge $-1 $480 -7.1684929478247748 $477 7.1684929478247748 $474 $646 forward 7 unknown #
coedge $-1 $308 $634 $638 $647 forward $460 $-1 #
vertex $-1 $309 $648 #
straight-curve $-1 -33.071771640604837 -9.4360660568858794 -7.1684929478247748 0 1 0 I I #
coedge $-1 $462 $310 $637 $649 forward $300 $-1 #
vertex $-1 $649 $650 #
straight-curve $-1 -33.071771640604837 -9.4360660568858794 7.1684929478247748 0 -1 0 I I #
point $-1 -33.071771640604837 -15.191864544253129 7.1684929478247748 #
point $-1 -33.071771640604837 -15.191864544253129 -7.1684929478247748 #
plane-surface $-1 0 0 7.1684929478247748 0 0 1 1 0 0 forward_v I I I I #
coedge $-1 $495 $494 $487 $651 forward $316 $-1 #
coedge $-1 $487 $318 $320 $491 reversed $191 $-1 #
coedge $-1 $318 $486 $485 $651 reversed $191 $-1 #
coedge $-1 $326 $321 $318 $489 forward $327 $-1 #
edge $-1 $492 -12.923304070961898 $652 -5.0659920184372922 $488 $653 forward 7 unknown #
coedge $-1 $320 $319 $495 $654 reversed $121 $-1 #
edge $-1 $655 0 $492 9.9710721924897001 $486 $656 forward 7 unknown #
vertex $-1 $322 $657 #
straight-curve $-1 -35.942852747426564 -4.1336801832375958 7.1684929478247739 0 1 0 I I #
coedge $-1 $485 $323 $326 $499 reversed $316 $-1 #
coedge $-1 $323 $485 $490 $654 forward $316 $-1 #
vertex $-1 $324 $658 #
straight-curve $-1 -43.800164799951169 -11.583390884463725 35.029844535019478 0 0 1 I I #
straight-curve $-1 -43.800164799951169 -11.583390884463725 1.029687854234254 -0.78801074757464917 0 -0.61566148304635926 I I #
edge $-1 $652 4.951329848486659 $328 11.583390884463725 $494 $659 forward 7 unknown #
point $-1 -43.800164799951169 -11.583390884463725 7.1684929478247748 #
point $-1 -35.942852747426564 -11.583390884463725 7.1684929478247748 #
edge $-1 $660 1 $660 0 $331 $-1 forward 7 unknown #
vertex $-1 $332 $661 #
ellipse-curve $-1 -37.719671650749092 -8.2673603664751898 1.3448645373027679 -0.61566148304635926 0 0.78801074757464917 0.78801074757464917 0 0.61566148304635926 1 I I #
point $-1 -39.083498026114214 -8.2673603664751898 4.7147518840758726 #
loop $-1 $-1 $343 $335 #
plane-surface $-1 -43.800164799951169 0 0 1 0 0 0 0 -1 forward_v I I I I #
coedge $-1 $509 $338 $340 $513 reversed $206 $-1 #
coedge $-1 $338 $508 $662 $663 reversed $206 $-1 #
coedge $-1 $346 $341 $338 $511 forward $336 $-1 #
edge $-1 $514 -12.923304070961898 $664 -5.0659920184372922 $510 $665 forward 7 unknown #
coedge $-1 $340 $339 $517 $666 reversed $130 $-1 #
edge $-1 $667 0 $514 9.9710721924897001 $508 $668 forward 7 unknown #
vertex $-1 $342 $669 #
straight-curve $-1 -35.942852747426564 2.1570305213529899 7.1684929478247739 0 1 0 I I #
coedge $-1 $662 $343 $346 $521 reversed $506 $-1 #
coedge $-1 $343 $662 $512 $666 forward $506 $-1 #
vertex $-1 $344 $670 #
straight-curve $-1 -43.800164799951169 0.99803052471744724 35.029844535019478 0 0 1 I I #
straight-curve $-1 -43.800164799951169 0.99803052471744724 1.029687854234254 -0.78801074757464917 0 -0.61566148304635926 I I #
edge $-1 $664 -7.6300915606945123 $347 -0.99803052471744724 $516 $671 forward 7 unknown #
point $-1 -43.800164799951169 0.99803052471744724 7.1684929478247748 #
point $-1 -35.942852747426564 0.99803052471744724 7.1684929478247748 #
edge $-1 $672 1 $672 0 $350 $-1 forward 7 unknown #
vertex $-1 $351 $673 #
ellipse-curve $-1 -37.719671650749092 4.3140610427059833 1.3448645373027679 -0.61566148304635926 0 0.78801074757464917 0.78801074757464917 0 0.61566148304635926 1 I I #
point $-1 -39.083498026114214 4.3140610427059833 4.7147518840758726 #
loop $-1 $-1 $362 $354 #
plane-surface $-1 -43.800164799951169 0 0 1 0 0 0 0 -1 forward_v I I I I #
coedge $-1 $531 $357 $359 $535 reversed $221 $-1 #
coedge $-1 $357 $530 $674 $675 reversed $221 $-1 #
coedge $-1 $365 $360 $357 $533 forward $355 $-1 #
edge $-1 $536 -12.923304070961898 $676 -5.0659920184372922 $532 $677 forward 7 unknown #
coedge $-1 $359 $358 $539 $678 reversed $139 $-1 #
edge $-1 $679 0 $536 9.9710721924897001 $530 $680 forward 7 unknown #
vertex $-1 $361 $681 #
straight-curve $-1 -35.942852747426564 8.4477412259435773 7.1684929478247739 0 1 0 I I #
coedge $-1 $674 $362 $365 $543 reversed $528 $-1 #
coedge $-1 $362 $674 $534 $678 forward $528 $-1 #
vertex $-1 $363 $682 #
straight-curve $-1 -43.800164799951169 13.579451933898621 35.029844535019478 0 0 1 I I #
straight-curve $-1 -43.800164799951169 13.579451933898621 1.029687854234254 -0.78801074757464917 0 -0.61566148304635926 I I #
edge $-1 $676 -20.211512969875688 $366 -13.579451933898621 $538 $683 forward 7 unknown #
point $-1 -43.800164799951169 13.579451933898621 7.1684929478247748 #
point $-1 -35.942852747426564 13.579451933898621 7.1684929478247748 #
edge $-1 $684 1 $684 0 $369 $-1 forward 7 unknown #
vertex $-1 $370 $685 #
ellipse-curve $-1 -37.719671650749092 16.895482451887155 1.3448645373027679 -0.61566148304635926 0 0.78801074757464917 0.78801074757464917 0 0.61566148304635926 1 I I #
point $-1 -39.083498026114214 16.895482451887155 4.7147518840758726 #
loop $-1 $-1 $381 $373 #
plane-surface $-1 43.800164799951169 0 0 -1 0 0 0 0 1 forward_v I I I I #
coedge $-1 $553 $376 $378 $557 reversed $236 $-1 #
coedge $-1 $376 $552 $686 $687 reversed $236 $-1 #
coedge $-1 $384 $379 $376 $555 forward $374 $-1 #
edge $-1 $558 21.591696536940486 $688 29.449008589465056 $554 $689 forward 7 unknown #
coedge $-1 $378 $377 $561 $690 reversed $148 $-1 #
edge $-1 $691 -87.600329599902324 $558 -77.629257407412666 $552 $692 forward 7 unknown #
vertex $-1 $380 $693 #
straight-curve $-1 35.942852747426613 -4.1336801832375958 7.1684929478247668 0 -1 0 I I #
coedge $-1 $686 $381 $384 $565 reversed $550 $-1 #
coedge $-1 $381 $686 $556 $690 forward $550 $-1 #
vertex $-1 $382 $694 #
straight-curve $-1 43.800164799951169 -4.951329848486659 61.995918953432366 0 0 1 I I #
straight-curve $-1 -25.229836415853526 -4.951329848486659 54.961836691060029 0.78801074757464917 0 -0.61566148304635926 I I #
edge $-1 $688 -11.583390884463725 $385 -4.951329848486659 $560 $695 forward 7 unknown #
point $-1 43.800164799951169 -4.951329848486659 7.1684929478247748 #
point $-1 35.942852747426599 -4.951329848486659 7.1684929478247739 #
edge $-1 $696 1 $696 0 $388 $-1 forward 7 unknown #
vertex $-1 $389 $697 #
ellipse-curve $-1 37.719671650749099 -8.2673603664751898 1.3448645373027697 0.61566148304635926 0 0.78801074757464917 0.78801074757464917 0 -0.61566148304635926 1 I I #
point $-1 40.659519521263519 -8.2673603664751898 3.4834289179831561 #
plane-surface $-1 0 0 7.1684929478247748 0 0 1 1 0 0 forward_v I I I I #
coedge $-1 $583 $582 $575 $698 forward $393 $-1 #
coedge $-1 $575 $395 $397 $579 reversed $251 $-1 #
coedge $-1 $395 $574 $573 $698 reversed $251 $-1 #
coedge $-1 $403 $398 $395 $577 forward $404 $-1 #
edge $-1 $580 21.591696536940486 $699 29.449008589465056 $576 $700 forward 7 unknown #
coedge $-1 $397 $396 $583 $701 reversed $157 $-1 #
edge $-1 $702 -87.600329599902324 $580 -77.629257407412666 $574 $703 forward 7 unknown #
vertex $-1 $399 $704 #
straight-curve $-1 35.942852747426613 2.1570305213529899 7.1684929478247668 0 -1 0 I I #
coedge $-1 $573 $400 $403 $587 reversed $393 $-1 #
coedge $-1 $400 $573 $578 $701 forward $393 $-1 #
vertex $-1 $401 $705 #
straight-curve $-1 43.800164799951169 7.6300915606945123 61.995918953432366 0 0 1 I I #
straight-curve $-1 -25.229836415853526 7.6300915606945123 54.961836691060029 0.78801074757464917 0 -0.61566148304635926 I I #
edge $-1 $699 0.99803052471744724 $405 7.6300915606945123 $582 $706 forward 7 unknown #
point $-1 43.800164799951169 7.6300915606945123 7.1684929478247748 #
point $-1 35.942852747426599 7.6300915606945123 7.1684929478247739 #
edge $-1 $707 1 $707 0 $408 $-1 forward 7 unknown #
vertex $-1 $409 $708 #
ellipse-curve $-1 37.719671650749099 4.3140610427059833 1.3448645373027697 0.61566148304635926 0 0.78801074757464917 0.78801074757464917 0 -0.61566148304635926 1 I I #
point $-1 40.659519521263519 4.3140610427059833 3.4834289179831561 #
plane-surface $-1 0 0 7.1684929478247748 0 0 1 1 0 0 forward_v I I I I #
coedge $-1 $605 $604 $597 $709 forward $413 $-1 #
coedge $-1 $597 $415 $417 $601 reversed $266 $-1 #
coedge $-1 $415 $596 $595 $709 reversed $266 $-1 #
coedge $-1 $423 $418 $415 $599 forward $424 $-1 #
edge $-1 $602 21.591696536940486 $710 29.449008589465056 $598 $711 forward 7 unknown #
coedge $-1 $417 $416 $605 $712 reversed $166 $-1 #
edge $-1 $713 -87.600329599902324 $602 -77.629257407412666 $596 $714 forward 7 unknown #
vertex $-1 $419 $715 #
straight-curve $-1 35.942852747426613 8.4477412259435773 7.1684929478247668 0 -1 0 I I #
coedge $-1 $595 $420 $423 $609 reversed $413 $-1 #
coedge $-1 $420 $595 $600 $712 forward $413 $-1 #
vertex $-1 $421 $716 #
straight-curve $-1 43.800164799951169 20.211512969875688 61.995918953432366 0 0 1 I I #
straight-curve $-1 -25.229836415853526 20.211512969875688 54.961836691060029 0.78801074757464917 0 -0.61566148304635926 I I #
edge $-1 $710 13.579451933898621 $425 20.211512969875688 $604 $717 forward 7 unknown #
point $-1 43.800164799951169 20.211512969875688 7.1684929478247748 #
point $-1 35.942852747426599 20.211512969875688 7.1684929478247739 #
edge $-1 $718 1 $718 0 $428 $-1 forward 7 unknown #
vertex $-1 $429 $719 #
ellipse-curve $-1 37.719671650749099 16.895482451887155 1.3448645373027697 0.61566148304635926 0 0.78801074757464917 0.78801074757464917 0 -0.61566148304635926 1 I I #
point $-1 40.659519521263519 16.895482451887155 3.4834289179831561 #
plane-surface $-1 43.800164799951169 0 0 -1 0 0 0 0 1 forward_v I I I I #
coedge $-1 $437 $435 $439 $621 reversed $281 $-1 #
edge $-1 $450 -7.1684929478247748 $623 7.1684929478247748 $449 $720 forward 7 unknown #
vertex $-1 $621 $721 #
straight-curve $-1 -43.800164799951169 -22.552399683290389 0 0 0 -1 I I #
edge $-1 $619 -22.552399683290389 $623 22.552399683290389 $617 $722 forward 7 unknown #
straight-curve $-1 0 -22.552399683290389 -7.1684929478247748 -1 0 0 I I #
vertex $-1 $442 $723 #
straight-curve $-1 0 22.552399683290389 -7.1684929478247748 1 0 0 I I #
point $-1 43.800164799951169 22.552399683290389 -7.1684929478247748 #
point $-1 43.800164799951169 -22.552399683290389 -7.1684929478247748 #
straight-curve $-1 -43.800164799951169 0 7.1684929478247748 0 -1 0 I I #
point $-1 -43.800164799951169 22.552399683290389 7.1684929478247748 #
point $-1 -43.800164799951169 -22.552399683290389 7.1684929478247748 #
straight-curve $-1 43.800164799951169 -22.552399683290389 0 0 0 -1 I I #
straight-curve $-1 43.800164799951169 22.552399683290389 0 0 0 -1 I I #
loop $-1 $-1 $465 $459 #
plane-surface $-1 0 -22.552399683290389 0 0 1 0 0 0 1 forward_v I I I I #
coedge $-1 $476 $467 $463 $636 forward $460 $-1 #
edge $-1 $640 -13.11633362640451 $471 -5.7557984873672492 $462 $724 forward 7 unknown #
edge $-1 $472 5.7557984873672492 $639 13.11633362640451 $634 $725 forward 7 unknown #
coedge $-1 $474 $465 $479 $649 reversed $632 $-1 #
coedge $-1 $465 $474 $476 $647 reversed $632 $-1 #
vertex $-1 $647 $726 #
vertex $-1 $466 $727 #
straight-curve $-1 -30.071771640604837 -22.552399683290389 0 0 0 1 I I #
straight-curve $-1 -15.785885820302418 -15.191864544253129 -7.1684929478247748 1 0 0 I I #
straight-curve $-1 -15.785885820302418 -15.191864544253129 7.1684929478247748 -1 0 0 I I #
point $-1 -30.071771640604837 -15.191864544253129 7.1684929478247748 #
point $-1 -30.071771640604837 -15.191864544253129 -7.1684929478247748 #
straight-curve $-1 -33.071771640604837 -22.552399683290389 0 0 0 -1 I I #
edge $-1 $639 30.071771640604837 $477 33.071771640604837 $638 $728 forward 7 unknown #
point $-1 -33.071771640604837 -22.552399683290389 -7.1684929478247748 #
edge $-1 $480 -33.071771640604837 $640 -30.071771640604837 $637 $729 forward 7 unknown #
point $-1 -33.071771640604837 -22.552399683290389 7.1684929478247748 #
edge $-1 $652 27.861351587194704 $655 34.000156680785224 $485 $730 forward 7 unknown #
vertex $-1 $499 $731 #
straight-curve $-1 -48.866156818388461 -4.951329848486659 7.1684929478247739 -1 0 0 I I #
edge $-1 $655 0.81764966524906324 $496 7.4497107012261292 $495 $732 forward 7 unknown #
vertex $-1 $654 $733 #
straight-curve $-1 -43.800164799951169 -4.951329848486659 1.029687854234254 0.78801074757464917 0 0.61566148304635926 I I #
point $-1 -35.942852747426564 -4.951329848486659 7.1684929478247748 #
point $-1 -43.800164799951169 -11.583390884463725 1.029687854234254 #
straight-curve $-1 -43.800164799951169 0 7.1684929478247748 0 -1 0 I I #
vertex $-1 $502 $734 #
point $-1 -36.931660903174446 -8.2673603664751898 1.960526020349127 #
coedge $-1 $517 $516 $509 $663 forward $506 $-1 #
edge $-1 $664 27.861351587194704 $667 34.000156680785224 $662 $735 forward 7 unknown #
vertex $-1 $521 $736 #
straight-curve $-1 -48.866156818388461 7.6300915606945123 7.1684929478247739 -1 0 0 I I #
edge $-1 $667 -5.4730610393415224 $518 1.1589999966355427 $517 $737 forward 7 unknown #
vertex $-1 $666 $738 #
straight-curve $-1 -43.800164799951169 7.6300915606945123 1.029687854234254 0.78801074757464917 0 0.61566148304635926 I I #
point $-1 -35.942852747426564 7.6300915606945123 7.1684929478247748 #
point $-1 -43.800164799951169 0.99803052471744724 1.029687854234254 #
straight-curve $-1 -43.800164799951169 0 7.1684929478247748 0 -1 0 I I #
vertex $-1 $524 $739 #
point $-1 -36.931660903174446 4.3140610427059833 1.960526020349127 #
coedge $-1 $539 $538 $531 $675 forward $528 $-1 #
edge $-1 $676 27.861351587194704 $679 34.000156680785224 $674 $740 forward 7 unknown #
vertex $-1 $543 $741 #
straight-curve $-1 -48.866156818388461 20.211512969875688 7.1684929478247739 -1 0 0 I I #
edge $-1 $679 -11.763771743932111 $540 -5.1317107079550439 $539 $742 forward 7 unknown #
vertex $-1 $678 $743 #
straight-curve $-1 -43.800164799951169 20.211512969875688 1.029687854234254 0.78801074757464917 0 0.61566148304635926 I I #
point $-1 -35.942852747426564 20.211512969875688 7.1684929478247748 #
point $-1 -43.800164799951169 13.579451933898621 1.029687854234254 #
straight-curve $-1 -43.800164799951169 0 7.1684929478247748 0 -1 0 I I #
vertex $-1 $546 $744 #
point $-1 -36.931660903174446 16.895482451887155 1.960526020349127 #
coedge $-1 $561 $560 $553 $687 forward $550 $-1 #
edge $-1 $688 54.827426005607592 $691 60.966231099198083 $686 $745 forward 7 unknown #
vertex $-1 $565 $746 #
straight-curve $-1 14.351156210486113 -11.583390884463725 7.1684929478247739 1 0 0 I I #
edge $-1 $691 -7.4497107012261292 $562 -0.81764966524906324 $561 $747 forward 7 unknown #
vertex $-1 $690 $748 #
straight-curve $-1 -25.229836415853526 -11.583390884463725 54.961836691060029 -0.78801074757464917 0 0.61566148304635926 I I #
point $-1 35.942852747426599 -11.583390884463725 7.1684929478247739 #
point $-1 43.800164799951176 -4.951329848486659 1.0296878542342824 #
straight-curve $-1 43.800164799951169 0 7.1684929478247748 0 1 0 I I #
vertex $-1 $568 $749 #
point $-1 38.507682398323752 -8.2673603664751898 0.72920305425641041 #
edge $-1 $699 54.827426005607592 $702 60.966231099198083 $573 $750 forward 7 unknown #
vertex $-1 $587 $751 #
straight-curve $-1 14.351156210486113 0.99803052471744724 7.1684929478247739 1 0 0 I I #
edge $-1 $702 -1.1589999966355427 $584 5.4730610393415224 $583 $752 forward 7 unknown #
vertex $-1 $701 $753 #
straight-curve $-1 -25.229836415853526 0.99803052471744724 54.961836691060029 -0.78801074757464917 0 0.61566148304635926 I I #
point $-1 35.942852747426599 0.99803052471744724 7.1684929478247739 #
point $-1 43.800164799951176 7.6300915606945123 1.0296878542342824 #
straight-curve $-1 43.800164799951169 0 7.1684929478247748 0 1 0 I I #
vertex $-1 $590 $754 #
point $-1 38.507682398323752 4.3140610427059833 0.72920305425641041 #
edge $-1 $710 54.827426005607592 $713 60.966231099198083 $595 $755 forward 7 unknown #
vertex $-1 $609 $756 #
straight-curve $-1 14.351156210486113 13.579451933898621 7.1684929478247739 1 0 0 I I #
edge $-1 $713 5.1317107079550439 $606 11.763771743932111 $605 $757 forward 7 unknown #
vertex $-1 $712 $758 #
straight-curve $-1 -25.229836415853526 13.579451933898621 54.961836691060029 -0.78801074757464917 0 0.61566148304635926 I I #
point $-1 35.942852747426599 13.579451933898621 7.1684929478247739 #
point $-1 43.800164799951176 20.211512969875688 1.0296878542342824 #
straight-curve $-1 43.800164799951169 0 7.1684929478247748 0 1 0 I I #
vertex $-1 $612 $759 #
point $-1 38.507682398323752 16.895482451887155 0.72920305425641041 #
straight-curve $-1 -43.800164799951169 22.552399683290389 0 0 0 -1 I I #
point $-1 -43.800164799951169 -22.552399683290389 -7.1684929478247748 #
straight-curve $-1 -43.800164799951169 0 -7.1684929478247748 0 1 0 I I #
point $-1 -43.800164799951169 22.552399683290389 -7.1684929478247748 #
straight-curve $-1 -30.071771640604837 -9.4360660568858794 7.1684929478247748 0 1 0 I I #
straight-curve $-1 -30.071771640604837 -9.4360660568858794 -7.1684929478247748 0 -1 0 I I #
point $-1 -30.071771640604837 -22.552399683290389 -7.1684929478247748 #
point $-1 -30.071771640604837 -22.552399683290389 7.1684929478247748 #
straight-curve $-1 0 -22.552399683290389 -7.1684929478247748 -1 0 0 I I #
straight-curve $-1 0 -22.552399683290389 7.1684929478247748 1 0 0 I I #
straight-curve $-1 -43.800164799951169 -4.951329848486659 35.029844535019478 0 0 -1 I I #
point $-1 -43.800164799951169 -4.951329848486659 7.1684929478247748 #
straight-curve $-1 -43.800164799951169 -4.1336801832375958 1.0296878542342565 0 -1 0 I I #
point $-1 -43.800164799951169 -4.951329848486659 1.029687854234254 #
point $-1 -37.104010167702739 -8.2673603664751898 0.55685378972811872 #
straight-curve $-1 -43.800164799951169 7.6300915606945123 35.029844535019478 0 0 -1 I I #
point $-1 -43.800164799951169 7.6300915606945123 7.1684929478247748 #
straight-curve $-1 -43.800164799951169 2.1570305213529899 1.0296878542342565 0 -1 0 I I #
point $-1 -43.800164799951169 7.6300915606945123 1.029687854234254 #
point $-1 -37.104010167702739 4.3140610427059833 0.55685378972811872 #
straight-curve $-1 -43.800164799951169 20.211512969875688 35.029844535019478 0 0 -1 I I #
point $-1 -43.800164799951169 20.211512969875688 7.1684929478247748 #
straight-curve $-1 -43.800164799951169 8.4477412259435773 1.0296878542342565 0 -1 0 I I #
point $-1 -43.800164799951169 20.211512969875688 1.029687854234254 #
point $-1 -37.104010167702739 16.895482451887155 0.55685378972811872 #
straight-curve $-1 43.800164799951169 -11.583390884463725 61.995918953432366 0 0 -1 I I #
point $-1 43.800164799951169 -11.583390884463725 7.1684929478247748 #
straight-curve $-1 43.800164799951169 -4.1336801832375958 1.0296878542342753 0 1 0 I I #
point $-1 43.800164799951176 -11.583390884463725 1.0296878542342824 #
point $-1 37.104010167702747 -8.2673603664751898 0.5568537897281205 #
straight-curve $-1 43.800164799951169 0.99803052471744724 61.995918953432366 0 0 -1 I I #
point $-1 43.800164799951169 0.99803052471744724 7.1684929478247748 #
straight-curve $-1 43.800164799951169 2.1570305213529899 1.0296878542342753 0 1 0 I I #
point $-1 43.800164799951176 0.99803052471744724 1.0296878542342824 #
point $-1 37.104010167702747 4.3140610427059833 0.5568537897281205 #
straight-curve $-1 43.800164799951169 13.579451933898621 61.995918953432366 0 0 -1 I I #
point $-1 43.800164799951169 13.579451933898621 7.1684929478247748 #
straight-curve $-1 43.800164799951169 8.4477412259435773 1.0296878542342753 0 1 0 I I #
point $-1 43.800164799951176 13.579451933898621 1.0296878542342824 #
point $-1 37.104010167702747 16.895482451887155 0.5568537897281205 #
End-of-ACIS-data 