500 0 13 0           
7 Unknown 11 ACIS 5.0 NT 24 Fri Mar 26 20:33:18 1999 
-1 9.9999999999999995e-007 1e-010 
body $-1 $13 $-1 $14 #
body $-1 $15 $-1 $16 #
body $-1 $17 $-1 $18 #
body $-1 $19 $-1 $20 #
body $-1 $21 $-1 $22 #
body $-1 $23 $-1 $24 #
body $-1 $25 $-1 $26 #
body $-1 $27 $-1 $28 #
body $-1 $29 $-1 $30 #
body $-1 $31 $-1 $32 #
body $-1 $33 $-1 $34 #
body $-1 $35 $-1 $36 #
body $-1 $37 $-1 $38 #
lump $-1 $-1 $39 $0 #
transform $-1 1 0 0 0 1 0 0 0 1 57.716605121005891 35.695977337541812 14.913504152210454 1 rotate no_reflect no_shear #
lump $-1 $-1 $40 $1 #
transform $-1 1 0 0 0 1 0 0 0 1 57.716605121005891 35.695977337541812 14.913504152210454 1 rotate no_reflect no_shear #
lump $-1 $-1 $41 $2 #
transform $-1 1 0 0 0 1 0 0 0 1 57.716605121005891 35.695977337541812 14.913504152210454 1 rotate no_reflect no_shear #
lump $-1 $-1 $42 $3 #
transform $-1 1 0 0 0 1 0 0 0 1 57.716605121005891 35.695977337541812 14.913504152210454 1 rotate no_reflect no_shear #
lump $-1 $-1 $43 $4 #
transform $-1 1 0 0 0 1 0 0 0 1 57.716605121005891 35.695977337541812 14.913504152210454 1 rotate no_reflect no_shear #
lump $-1 $-1 $44 $5 #
transform $-1 1 0 0 0 1 0 0 0 1 57.716605121005891 35.695977337541812 14.913504152210454 1 rotate no_reflect no_shear #
lump $-1 $-1 $45 $6 #
transform $-1 1 0 0 0 1 0 0 0 1 57.716605121005891 35.695977337541812 14.913504152210454 1 rotate no_reflect no_shear #
lump $-1 $-1 $46 $7 #
transform $-1 1 0 0 0 1 0 0 0 1 57.716605121005891 35.695977337541812 14.913504152210454 1 rotate no_reflect no_shear #
lump $-1 $-1 $47 $8 #
transform $-1 1 0 0 0 1 0 0 0 1 57.716605121005891 35.695977337541812 14.913504152210454 1 rotate no_reflect no_shear #
lump $-1 $-1 $48 $9 #
transform $-1 1 0 0 0 1 0 0 0 1 57.716605121005891 35.695977337541812 14.913504152210454 1 rotate no_reflect no_shear #
lump $-1 $-1 $49 $10 #
transform $-1 1 0 0 0 1 0 0 0 1 57.716605121005891 35.695977337541812 14.913504152210454 1 rotate no_reflect no_shear #
lump $-1 $-1 $50 $11 #
transform $-1 1 0 0 0 1 0 0 0 1 57.716605121005891 35.695977337541812 14.913504152210454 1 rotate no_reflect no_shear #
lump $-1 $-1 $51 $12 #
transform $-1 1 0 0 0 1 0 0 0 1 57.716605121005891 35.695977337541812 14.913504152210454 1 rotate no_reflect no_shear #
shell $-1 $-1 $-1 $52 $-1 $13 #
shell $-1 $-1 $-1 $53 $-1 $15 #
shell $-1 $-1 $-1 $54 $-1 $17 #
shell $-1 $-1 $-1 $55 $-1 $19 #
shell $-1 $-1 $-1 $56 $-1 $21 #
shell $-1 $-1 $-1 $57 $-1 $23 #
shell $-1 $-1 $-1 $58 $-1 $25 #
shell $-1 $-1 $-1 $59 $-1 $27 #
shell $-1 $-1 $-1 $60 $-1 $29 #
shell $-1 $-1 $-1 $61 $-1 $31 #
shell $-1 $-1 $-1 $62 $-1 $33 #
shell $-1 $-1 $-1 $63 $-1 $35 #
shell $-1 $-1 $-1 $64 $-1 $37 #
face $-1 $65 $66 $39 $-1 $67 forward single #
face $-1 $68 $69 $40 $-1 $70 forward single #
face $-1 $71 $72 $41 $-1 $73 reversed single #
face $-1 $74 $75 $42 $-1 $76 forward single #
face $-1 $77 $78 $43 $-1 $79 forward single #
face $-1 $80 $81 $44 $-1 $82 forward single #
face $-1 $83 $84 $45 $-1 $85 reversed single #
face $-1 $86 $87 $46 $-1 $88 forward single #
face $-1 $89 $90 $47 $-1 $91 forward single #
face $-1 $92 $93 $48 $-1 $94 forward single #
face $-1 $95 $96 $49 $-1 $97 reversed single #
face $-1 $98 $99 $50 $-1 $100 forward single #
face $-1 $101 $102 $51 $-1 $103 forward single #
face $-1 $104 $105 $39 $-1 $106 reversed single #
loop $-1 $-1 $107 $52 #
plane-surface $-1 0 0 14.913504152210454 0 0 1 1 0 0 forward_v I I I I #
face $-1 $108 $109 $40 $-1 $110 reversed single #
loop $-1 $-1 $111 $53 #
plane-surface $-1 0 -28.488995847961139 8.1051167474035353 0 0 1 1 0 0 forward_v I I I I #
face $-1 $112 $113 $41 $-1 $114 reversed single #
loop $-1 $-1 $115 $54 #
plane-surface $-1 -155.60952021473329 -8.5919026303371666 70.20275767450336 0 1 0 -0.84804810408105047 0 0.52991925155115449 forward_v I I I I #
face $-1 $116 $117 $42 $-1 $118 forward single #
loop $-1 $119 $120 $55 #
cone-surface $-1 -55.4551444109172 -6.9328154111198153 11.70803109978435 0.84804810408105047 0 -0.52991925155115449 0.26495962577557725 0 0.42402405204052523 1 I I 0 1 0.5 forward I I I I #
face $-1 $121 $122 $43 $-1 $123 forward single #
loop $-1 $124 $125 $56 #
cone-surface $-1 -55.4551444109172 -4.4441845822937864 11.70803109978435 0.84804810408105047 0 -0.52991925155115449 0.26495962577557725 0 0.42402405204052523 1 I I 0 1 0.5 forward I I I I #
face $-1 $126 $127 $44 $-1 $128 forward single #
loop $-1 $129 $130 $57 #
cone-surface $-1 -55.4551444109172 -1.9555537534677612 11.70803109978435 0.84804810408105047 0 -0.52991925155115449 0.26495962577557725 0 0.42402405204052523 1 I I 0 1 0.5 forward I I I I #
face $-1 $131 $132 $45 $-1 $133 reversed single #
loop $-1 $-1 $134 $58 #
plane-surface $-1 -155.60952021473329 19.897093217623976 70.20275767450336 0 1 0 -0.84804810408105047 0 0.52991925155115449 forward_v I I I I #
face $-1 $135 $136 $46 $-1 $137 forward single #
loop $-1 $138 $139 $59 #
cone-surface $-1 -55.4551444109172 21.556180436841323 11.70803109978435 0.84804810408105047 0 -0.52991925155115449 0.26495962577557725 0 0.42402405204052523 1 I I 0 1 0.5 forward I I I I #
face $-1 $140 $141 $47 $-1 $142 forward single #
loop $-1 $143 $144 $60 #
cone-surface $-1 -55.4551444109172 24.044811265667356 11.70803109978435 0.84804810408105047 0 -0.52991925155115449 0.26495962577557725 0 0.42402405204052523 1 I I 0 1 0.5 forward I I I I #
face $-1 $145 $146 $48 $-1 $147 forward single #
loop $-1 $148 $149 $61 #
cone-surface $-1 -55.4551444109172 26.533442094493374 11.70803109978435 0.84804810408105047 0 -0.52991925155115449 0.26495962577557725 0 0.42402405204052523 1 I I 0 1 0.5 forward I I I I #
face $-1 $150 $151 $49 $-1 $152 reversed single #
loop $-1 $-1 $153 $62 #
plane-surface $-1 -25.319096377237578 31.589075175154484 82.981868074994992 0.69465837861970381 0 0.71933979245794832 0.71933979245794832 0 -0.69465837861970381 forward_v I I I I #
face $-1 $154 $155 $50 $-1 $156 forward single #
loop $-1 $157 $158 $63 #
cone-surface $-1 51.094851508519355 29.828974248417062 8.4946928845821041 -0.69465837861970381 0 -0.71933979245794832 0.17983494811448708 0 -0.17366459465492595 1 I I 0 1 0.25 forward I I I I #
face $-1 $159 $160 $51 $-1 $161 forward single #
loop $-1 $162 $163 $64 #
cone-surface $-1 51.094851508519355 33.349176101891906 8.4946928845821041 -0.69465837861970381 0 -0.71933979245794832 0.17983494811448708 0 -0.17366459465492595 1 I I 0 1 0.25 forward I I I I #
face $-1 $164 $165 $39 $-1 $166 reversed single #
loop $-1 $-1 $167 $65 #
plane-surface $-1 0 0 -14.913504152210454 0 0 1 1 0 0 forward_v I I I I #
coedge $-1 $168 $169 $170 $171 forward $66 $-1 #
face $-1 $172 $173 $40 $-1 $174 reversed single #
loop $-1 $-1 $175 $68 #
plane-surface $-1 0 -28.488995847961139 4.3066267131154419 0 0 1 1 0 0 forward_v I I I I #
coedge $-1 $176 $177 $178 $179 reversed $69 $-1 #
face $-1 $180 $181 $41 $-1 $182 reversed single #
loop $-1 $-1 $183 $71 #
plane-surface $-1 -57.716605121005912 -4.4441845822937864 9.0324772989094129 -0.84804810408105047 0 0.52991925155115449 0.52991925155115449 0 0.84804810408105047 forward_v I I I I #
coedge $-1 $184 $185 $186 $187 reversed $72 $-1 #
face $-1 $-1 $188 $42 $-1 $189 forward single #
loop $-1 $190 $191 $74 #
cone-surface $-1 -54.819108332856409 -6.9328154111198153 11.310591661120984 0.84804810408105047 0 -0.52991925155115449 0.13247981288778862 0 0.21201202602026262 1 I I -0.70710678118654746 0.70710678118654746 0.25 forward I I I I #
loop $-1 $-1 $192 $55 #
coedge $-1 $120 $120 $193 $194 reversed $75 $-1 #
face $-1 $-1 $195 $43 $-1 $196 forward single #
loop $-1 $197 $198 $77 #
cone-surface $-1 -54.819108332856409 -4.4441845822937864 11.310591661120984 0.84804810408105047 0 -0.52991925155115449 0.13247981288778862 0 0.21201202602026262 1 I I -0.70710678118654746 0.70710678118654746 0.25 forward I I I I #
loop $-1 $-1 $199 $56 #
coedge $-1 $125 $125 $200 $201 reversed $78 $-1 #
face $-1 $-1 $202 $44 $-1 $203 forward single #
loop $-1 $204 $205 $80 #
cone-surface $-1 -54.819108332856409 -1.9555537534677612 11.310591661120984 0.84804810408105047 0 -0.52991925155115449 0.13247981288778862 0 0.21201202602026262 1 I I -0.70710678118654746 0.70710678118654746 0.25 forward I I I I #
loop $-1 $-1 $206 $57 #
coedge $-1 $130 $130 $207 $208 reversed $81 $-1 #
face $-1 $209 $210 $45 $-1 $211 reversed single #
loop $-1 $-1 $212 $83 #
plane-surface $-1 -57.716605121005912 24.044811265667356 9.0324772989094129 -0.84804810408105047 0 0.52991925155115449 0.52991925155115449 0 0.84804810408105047 forward_v I I I I #
coedge $-1 $213 $214 $215 $216 reversed $84 $-1 #
face $-1 $-1 $217 $46 $-1 $218 forward single #
loop $-1 $219 $220 $86 #
cone-surface $-1 -54.819108332856409 21.556180436841323 11.310591661120984 0.84804810408105047 0 -0.52991925155115449 0.13247981288778862 0 0.21201202602026262 1 I I -0.70710678118654746 0.70710678118654746 0.25 forward I I I I #
loop $-1 $-1 $221 $59 #
coedge $-1 $139 $139 $222 $223 reversed $87 $-1 #
face $-1 $-1 $224 $47 $-1 $225 forward single #
loop $-1 $226 $227 $89 #
cone-surface $-1 -54.819108332856409 24.044811265667356 11.310591661120984 0.84804810408105047 0 -0.52991925155115449 0.13247981288778862 0 0.21201202602026262 1 I I -0.70710678118654746 0.70710678118654746 0.25 forward I I I I #
loop $-1 $-1 $228 $60 #
coedge $-1 $144 $144 $229 $230 reversed $90 $-1 #
face $-1 $-1 $231 $48 $-1 $232 forward single #
loop $-1 $233 $234 $92 #
cone-surface $-1 -54.819108332856409 26.533442094493374 11.310591661120984 0.84804810408105047 0 -0.52991925155115449 0.13247981288778862 0 0.21201202602026262 1 I I -0.70710678118654746 0.70710678118654746 0.25 forward I I I I #
loop $-1 $-1 $235 $61 #
coedge $-1 $149 $149 $236 $237 reversed $93 $-1 #
face $-1 $238 $239 $49 $-1 $240 forward single #
loop $-1 $-1 $241 $95 #
plane-surface $-1 54.867550288345718 27.482173012767163 166.01756957323846 0 1 0 0.69465837861970381 0 0.71933979245794832 forward_v I I I I #
coedge $-1 $242 $243 $244 $245 reversed $96 $-1 #
face $-1 $-1 $246 $50 $-1 $247 forward single #
loop $-1 $248 $249 $98 #
cone-surface $-1 50.66069002188204 29.828974248417062 8.0451055142958872 -0.69465837861970381 0 -0.71933979245794832 0.08991747405724354 0 -0.086832297327462976 1 I I -0.70710678118654746 0.70710678118654746 0.125 forward I I I I #
loop $-1 $-1 $250 $63 #
coedge $-1 $158 $158 $251 $252 reversed $99 $-1 #
face $-1 $-1 $253 $51 $-1 $254 forward single #
loop $-1 $255 $256 $101 #
cone-surface $-1 50.66069002188204 33.349176101891906 8.0451055142958872 -0.69465837861970381 0 -0.71933979245794832 0.08991747405724354 0 -0.086832297327462976 1 I I -0.70710678118654746 0.70710678118654746 0.125 forward I I I I #
loop $-1 $-1 $257 $64 #
coedge $-1 $163 $163 $258 $259 reversed $102 $-1 #
face $-1 $260 $261 $39 $-1 $262 reversed single #
loop $-1 $-1 $263 $104 #
plane-surface $-1 0 -35.695977337541812 0 0 1 0 0 0 1 forward_v I I I I #
coedge $-1 $264 $265 $266 $267 forward $105 $-1 #
coedge $-1 $268 $107 $269 $270 forward $66 $-1 #
coedge $-1 $107 $268 $271 $272 forward $66 $-1 #
coedge $-1 $273 $274 $107 $171 reversed $275 $-1 #
edge $-1 $276 -35.695977337541812 $277 35.695977337541812 $170 $278 forward 7 unknown #
face $-1 $279 $280 $40 $-1 $281 reversed single #
loop $-1 $-1 $282 $108 #
plane-surface $-1 0 -21.282014358380465 6.2058717302594886 0 -1 0 0 0 -1 forward_v I I I I #
coedge $-1 $283 $284 $285 $286 reversed $109 $-1 #
coedge $-1 $287 $111 $288 $289 forward $69 $-1 #
coedge $-1 $111 $287 $290 $291 reversed $69 $-1 #
coedge $-1 $292 $293 $111 $179 forward $294 $-1 #
edge $-1 $295 7.0375164343998957 $296 21.451479413561245 $178 $297 forward 7 unknown #
face $-1 $298 $299 $41 $-1 $300 reversed single #
loop $-1 $-1 $301 $112 #
plane-surface $-1 -155.60952021473329 -0.29646653425040626 70.20275767450336 0 -1 0 0.84804810408105047 0 -0.52991925155115449 forward_v I I I I #
coedge $-1 $302 $303 $304 $305 reversed $113 $-1 #
coedge $-1 $185 $115 $306 $307 reversed $72 $-1 #
coedge $-1 $115 $184 $302 $308 reversed $72 $-1 #
coedge $-1 $304 $309 $115 $187 forward $310 $-1 #
edge $-1 $311 20.088154986360756 $312 23.763028302457059 $186 $313 forward 7 unknown #
loop $-1 $-1 $193 $116 #
plane-surface $-1 -57.716605121005912 -4.4441845822937864 9.0324772989094129 -0.84804810408105047 0 0.52991925155115449 0.52991925155115449 0 0.84804810408105047 forward_v I I I I #
loop $-1 $-1 $314 $74 #
coedge $-1 $191 $191 $192 $315 reversed $117 $-1 #
coedge $-1 $192 $192 $191 $315 forward $119 $-1 #
coedge $-1 $193 $193 $120 $194 forward $188 $-1 #
edge $-1 $316 0 $316 6.2831853071796004 $193 $317 forward 7 unknown #
loop $-1 $-1 $200 $121 #
plane-surface $-1 -57.716605121005912 -4.4441845822937864 9.0324772989094129 -0.84804810408105047 0 0.52991925155115449 0.52991925155115449 0 0.84804810408105047 forward_v I I I I #
loop $-1 $-1 $318 $77 #
coedge $-1 $198 $198 $199 $319 reversed $122 $-1 #
coedge $-1 $199 $199 $198 $319 forward $124 $-1 #
coedge $-1 $200 $200 $125 $201 forward $195 $-1 #
edge $-1 $320 0 $320 6.2831853071796004 $200 $321 forward 7 unknown #
loop $-1 $-1 $207 $126 #
plane-surface $-1 -57.716605121005912 -4.4441845822937864 9.0324772989094129 -0.84804810408105047 0 0.52991925155115449 0.52991925155115449 0 0.84804810408105047 forward_v I I I I #
loop $-1 $-1 $322 $80 #
coedge $-1 $205 $205 $206 $323 reversed $127 $-1 #
coedge $-1 $206 $206 $205 $323 forward $129 $-1 #
coedge $-1 $207 $207 $130 $208 forward $202 $-1 #
edge $-1 $324 0 $324 6.2831853071796004 $207 $325 forward 7 unknown #
face $-1 $326 $327 $45 $-1 $328 forward single #
loop $-1 $-1 $329 $131 #
plane-surface $-1 -155.60952021473329 28.192529313710736 70.20275767450336 0 -1 0 0.84804810408105047 0 -0.52991925155115449 forward_v I I I I #
coedge $-1 $330 $331 $332 $333 reversed $132 $-1 #
coedge $-1 $214 $134 $334 $335 reversed $84 $-1 #
coedge $-1 $134 $213 $330 $336 reversed $84 $-1 #
coedge $-1 $332 $337 $134 $216 forward $327 $-1 #
edge $-1 $338 20.088154986360756 $339 23.763028302457059 $215 $340 forward 7 unknown #
loop $-1 $-1 $222 $135 #
plane-surface $-1 -57.716605121005912 24.044811265667356 9.0324772989094129 -0.84804810408105047 0 0.52991925155115449 0.52991925155115449 0 0.84804810408105047 forward_v I I I I #
loop $-1 $-1 $341 $86 #
coedge $-1 $220 $220 $221 $342 reversed $136 $-1 #
coedge $-1 $221 $221 $220 $342 forward $138 $-1 #
coedge $-1 $222 $222 $139 $223 forward $217 $-1 #
edge $-1 $343 0 $343 6.2831853071796004 $222 $344 forward 7 unknown #
loop $-1 $-1 $229 $140 #
plane-surface $-1 -57.716605121005912 24.044811265667356 9.0324772989094129 -0.84804810408105047 0 0.52991925155115449 0.52991925155115449 0 0.84804810408105047 forward_v I I I I #
loop $-1 $-1 $345 $89 #
coedge $-1 $227 $227 $228 $346 reversed $141 $-1 #
coedge $-1 $228 $228 $227 $346 forward $143 $-1 #
coedge $-1 $229 $229 $144 $230 forward $224 $-1 #
edge $-1 $347 0 $347 6.2831853071796004 $229 $348 forward 7 unknown #
loop $-1 $-1 $236 $145 #
plane-surface $-1 -57.716605121005912 24.044811265667356 9.0324772989094129 -0.84804810408105047 0 0.52991925155115449 0.52991925155115449 0 0.84804810408105047 forward_v I I I I #
loop $-1 $-1 $349 $92 #
coedge $-1 $234 $234 $235 $350 reversed $146 $-1 #
coedge $-1 $235 $235 $234 $350 forward $148 $-1 #
coedge $-1 $236 $236 $149 $237 forward $231 $-1 #
edge $-1 $351 0 $351 6.2831853071796004 $236 $352 forward 7 unknown #
face $-1 $353 $354 $49 $-1 $355 reversed single #
loop $-1 $-1 $244 $150 #
plane-surface $-1 0 0 14.913504152210454 0 0 1 1 0 0 forward_v I I I I #
coedge $-1 $356 $357 $358 $359 reversed $151 $-1 #
coedge $-1 $360 $153 $361 $362 reversed $96 $-1 #
coedge $-1 $153 $360 $356 $363 forward $96 $-1 #
coedge $-1 $358 $364 $153 $245 forward $239 $-1 #
edge $-1 $365 -19.901439749964563 $366 -11.687635425189921 $244 $367 forward 7 unknown #
loop $-1 $-1 $251 $154 #
plane-surface $-1 -25.319096377237578 31.589075175154484 82.981868074994992 0.69465837861970381 0 0.71933979245794832 0.71933979245794832 0 -0.69465837861970381 forward_v I I I I #
loop $-1 $-1 $368 $98 #
coedge $-1 $249 $249 $250 $369 reversed $155 $-1 #
coedge $-1 $250 $250 $249 $369 forward $157 $-1 #
coedge $-1 $251 $251 $158 $252 forward $246 $-1 #
edge $-1 $370 0 $370 6.2831853071796004 $251 $371 forward 7 unknown #
loop $-1 $-1 $258 $159 #
plane-surface $-1 -25.319096377237578 31.589075175154484 82.981868074994992 0.69465837861970381 0 0.71933979245794832 0.71933979245794832 0 -0.69465837861970381 forward_v I I I I #
loop $-1 $-1 $372 $101 #
coedge $-1 $256 $256 $257 $373 reversed $160 $-1 #
coedge $-1 $257 $257 $256 $373 forward $162 $-1 #
coedge $-1 $258 $258 $163 $259 forward $253 $-1 #
edge $-1 $374 0 $374 6.2831853071796004 $258 $375 forward 7 unknown #
face $-1 $376 $377 $39 $-1 $378 reversed single #
loop $-1 $-1 $379 $164 #
plane-surface $-1 -57.716605121005891 0 0 1 0 0 0 0 -1 forward_v I I I I #
coedge $-1 $380 $271 $381 $382 forward $165 $-1 #
coedge $-1 $383 $167 $380 $384 forward $105 $-1 #
coedge $-1 $167 $383 $385 $386 forward $105 $-1 #
coedge $-1 $274 $273 $167 $267 reversed $275 $-1 #
edge $-1 $387 -35.695977337541812 $388 35.695977337541812 $266 $389 forward 7 unknown #
coedge $-1 $169 $168 $390 $391 forward $66 $-1 #
coedge $-1 $392 $393 $168 $270 reversed $377 $-1 #
edge $-1 $277 -57.716605121005891 $394 57.716605121005891 $269 $395 forward 7 unknown #
coedge $-1 $263 $396 $169 $272 reversed $165 $-1 #
edge $-1 $397 -57.716605121005891 $276 57.716605121005891 $271 $398 forward 7 unknown #
coedge $-1 $266 $170 $396 $399 forward $275 $-1 #
coedge $-1 $170 $266 $392 $400 reversed $275 $-1 #
loop $-1 $-1 $273 $376 #
vertex $-1 $171 $401 #
vertex $-1 $171 $402 #
straight-curve $-1 57.716605121005891 0 14.913504152210454 0 1 0 I I #
face $-1 $403 $404 $40 $-1 $405 reversed single #
loop $-1 $-1 $406 $172 #
plane-surface $-1 -57.716605121005891 0 0 1 0 0 0 0 -1 forward_v I I I I #
coedge $-1 $407 $288 $293 $408 reversed $173 $-1 #
coedge $-1 $409 $175 $410 $411 reversed $109 $-1 #
coedge $-1 $175 $409 $407 $412 forward $109 $-1 #
coedge $-1 $293 $292 $175 $286 forward $294 $-1 #
edge $-1 $413 -21.451479413561245 $414 -7.0375164343998957 $285 $415 forward 7 unknown #
coedge $-1 $177 $176 $406 $416 reversed $69 $-1 #
coedge $-1 $282 $417 $176 $289 reversed $173 $-1 #
edge $-1 $295 -57.716605121005891 $418 57.716605121005891 $288 $419 forward 7 unknown #
coedge $-1 $420 $421 $177 $291 forward $404 $-1 #
edge $-1 $296 -57.716605121005891 $422 57.716605121005891 $290 $423 forward 7 unknown #
coedge $-1 $285 $178 $421 $424 forward $294 $-1 #
coedge $-1 $178 $285 $282 $408 forward $294 $-1 #
loop $-1 $-1 $178 $403 #
vertex $-1 $179 $425 #
vertex $-1 $424 $426 #
straight-curve $-1 57.716605121005891 -14.244497923980569 8.1051167474035353 0 -1 0 I I #
face $-1 $-1 $310 $41 $-1 $427 forward single #
loop $-1 $-1 $428 $180 #
plane-surface $-1 -57.716605121005891 0 0 1 0 0 0 0 -1 forward_v I I I I #
coedge $-1 $429 $430 $431 $432 reversed $181 $-1 #
coedge $-1 $433 $183 $185 $308 forward $113 $-1 #
coedge $-1 $183 $433 $429 $434 forward $113 $-1 #
coedge $-1 $431 $186 $183 $305 forward $310 $-1 #
edge $-1 $312 -6.3698103391902734 $435 1.925625756896487 $304 $436 forward 7 unknown #
coedge $-1 $437 $438 $184 $307 forward $299 $-1 #
edge $-1 $439 -26.068901538342232 $311 -20.187874685041226 $306 $440 forward 7 unknown #
edge $-1 $312 -6.9347797902027661 $439 -3.9918193188544054e-014 $185 $441 forward 7 unknown #
coedge $-1 $186 $431 $437 $442 forward $310 $-1 #
loop $-1 $-1 $431 $298 #
vertex $-1 $307 $443 #
vertex $-1 $187 $444 #
straight-curve $-1 -77.804760107366647 -8.5919026303371666 14.913504152210454 1 0 0 I I #
coedge $-1 $314 $314 $-1 $445 reversed $190 $-1 #
edge $-1 $446 0 $446 6.2831853071796004 $191 $447 forward 7 unknown #
vertex $-1 $194 $448 #
ellipse-curve $-1 -55.879168462957743 -6.9328154111198153 11.97299072555994 -0.84804810408105047 0 0.52991925155115449 0.26495962577557725 0 0.42402405204052523 1 I I #
coedge $-1 $318 $318 $-1 $449 reversed $197 $-1 #
edge $-1 $450 0 $450 6.2831853071796004 $198 $451 forward 7 unknown #
vertex $-1 $201 $452 #
ellipse-curve $-1 -55.879168462957743 -4.4441845822937864 11.97299072555994 -0.84804810408105047 0 0.52991925155115449 0.26495962577557725 0 0.42402405204052523 1 I I #
coedge $-1 $322 $322 $-1 $453 reversed $204 $-1 #
edge $-1 $454 0 $454 6.2831853071796004 $205 $455 forward 7 unknown #
vertex $-1 $208 $456 #
ellipse-curve $-1 -55.879168462957743 -1.9555537534677612 11.97299072555994 -0.84804810408105047 0 0.52991925155115449 0.26495962577557725 0 0.42402405204052523 1 I I #
face $-1 $-1 $457 $45 $-1 $458 reversed single #
loop $-1 $-1 $215 $209 #
plane-surface $-1 0 0 14.913504152210454 0 0 1 1 0 0 forward_v I I I I #
coedge $-1 $459 $460 $461 $462 reversed $210 $-1 #
coedge $-1 $463 $212 $214 $336 forward $132 $-1 #
coedge $-1 $212 $463 $459 $464 forward $132 $-1 #
coedge $-1 $461 $215 $212 $333 forward $327 $-1 #
edge $-1 $339 7.8746875847902977 $465 16.170123680877058 $332 $466 forward 7 unknown #
coedge $-1 $467 $468 $213 $335 forward $457 $-1 #
edge $-1 $469 -26.068901538342232 $338 -20.187874685041226 $334 $470 forward 7 unknown #
edge $-1 $339 -6.9347797902027661 $469 -3.9918193188544054e-014 $214 $471 forward 7 unknown #
coedge $-1 $215 $461 $467 $472 forward $327 $-1 #
vertex $-1 $216 $473 #
vertex $-1 $216 $474 #
straight-curve $-1 -77.804760107366647 19.897093217623976 14.913504152210454 1 0 0 I I #
coedge $-1 $341 $341 $-1 $475 reversed $219 $-1 #
edge $-1 $476 0 $476 6.2831853071796004 $220 $477 forward 7 unknown #
vertex $-1 $223 $478 #
ellipse-curve $-1 -55.879168462957743 21.556180436841323 11.97299072555994 -0.84804810408105047 0 0.52991925155115449 0.26495962577557725 0 0.42402405204052523 1 I I #
coedge $-1 $345 $345 $-1 $479 reversed $226 $-1 #
edge $-1 $480 0 $480 6.2831853071796004 $227 $481 forward 7 unknown #
vertex $-1 $230 $482 #
ellipse-curve $-1 -55.879168462957743 24.044811265667356 11.97299072555994 -0.84804810408105047 0 0.52991925155115449 0.26495962577557725 0 0.42402405204052523 1 I I #
coedge $-1 $349 $349 $-1 $483 reversed $233 $-1 #
edge $-1 $484 0 $484 6.2831853071796004 $234 $485 forward 7 unknown #
vertex $-1 $237 $486 #
ellipse-curve $-1 -55.879168462957743 26.533442094493374 11.97299072555994 -0.84804810408105047 0 0.52991925155115449 0.26495962577557725 0 0.42402405204052523 1 I I #
face $-1 $-1 $487 $49 $-1 $488 reversed single #
loop $-1 $-1 $489 $238 #
plane-surface $-1 57.716605121005891 0 0 -1 0 0 0 0 1 forward_v I I I I #
coedge $-1 $357 $241 $243 $363 reversed $151 $-1 #
coedge $-1 $241 $356 $490 $491 reversed $151 $-1 #
coedge $-1 $492 $244 $241 $359 forward $239 $-1 #
edge $-1 $366 17.733981130479638 $493 30.282829976833032 $358 $494 forward 7 unknown #
coedge $-1 $243 $242 $489 $495 reversed $96 $-1 #
coedge $-1 $496 $497 $242 $362 forward $487 $-1 #
edge $-1 $498 -77.504668509494252 $365 -60.059715543004515 $361 $499 forward 7 unknown #
edge $-1 $500 -115.43321024201178 $366 -97.988257275522045 $356 $501 forward 7 unknown #
coedge $-1 $244 $492 $496 $502 forward $239 $-1 #
vertex $-1 $362 $503 #
vertex $-1 $245 $504 #
straight-curve $-1 45.167756274652497 15.794537587577242 14.91350415221045 0 -1 0 I I #
coedge $-1 $368 $368 $-1 $505 reversed $248 $-1 #
edge $-1 $506 0 $506 6.2831853071796004 $249 $507 forward 7 unknown #
vertex $-1 $252 $508 #
ellipse-curve $-1 51.442180697829201 29.828974248417062 8.8543627808110728 0.69465837861970381 0 0.71933979245794832 0.17983494811448708 0 -0.17366459465492595 1 I I #
coedge $-1 $372 $372 $-1 $509 reversed $255 $-1 #
edge $-1 $510 0 $510 6.2831853071796004 $256 $511 forward 7 unknown #
vertex $-1 $259 $512 #
ellipse-curve $-1 51.442180697829201 33.349176101891906 8.8543627808110728 0.69465837861970381 0 0.71933979245794832 0.17983494811448708 0 -0.17366459465492595 1 I I #
face $-1 $-1 $275 $39 $-1 $513 reversed single #
loop $-1 $-1 $392 $260 #
plane-surface $-1 0 35.695977337541812 0 0 -1 0 0 0 -1 forward_v I I I I #
coedge $-1 $514 $390 $393 $515 forward $261 $-1 #
coedge $-1 $396 $263 $264 $384 reversed $165 $-1 #
coedge $-1 $390 $514 $263 $382 reversed $261 $-1 #
edge $-1 $397 -14.913504152210454 $516 14.913504152210454 $381 $517 forward 7 unknown #
coedge $-1 $265 $264 $514 $518 forward $105 $-1 #
edge $-1 $388 -57.716605121005891 $516 57.716605121005891 $380 $519 forward 7 unknown #
coedge $-1 $393 $392 $265 $386 reversed $377 $-1 #
edge $-1 $520 -57.716605121005891 $387 57.716605121005891 $385 $521 forward 7 unknown #
vertex $-1 $267 $522 #
vertex $-1 $399 $523 #
straight-curve $-1 57.716605121005891 0 -14.913504152210454 0 -1 0 I I #
coedge $-1 $379 $381 $268 $391 reversed $261 $-1 #
edge $-1 $394 -35.695977337541812 $397 35.695977337541812 $390 $524 forward 7 unknown #
coedge $-1 $385 $269 $274 $400 forward $377 $-1 #
coedge $-1 $269 $385 $379 $515 reversed $377 $-1 #
vertex $-1 $270 $525 #
straight-curve $-1 0 35.695977337541812 14.913504152210454 -1 0 0 I I #
coedge $-1 $271 $380 $273 $399 reversed $165 $-1 #
vertex $-1 $391 $526 #
straight-curve $-1 0 -35.695977337541812 14.913504152210454 1 0 0 I I #
edge $-1 $276 -14.913504152210454 $388 14.913504152210454 $273 $527 forward 7 unknown #
edge $-1 $277 -14.913504152210454 $387 14.913504152210454 $274 $528 forward 7 unknown #
point $-1 57.716605121005891 -35.695977337541812 14.913504152210454 #
point $-1 57.716605121005891 35.695977337541812 14.913504152210454 #
face $-1 $-1 $294 $40 $-1 $529 reversed single #
loop $-1 $-1 $290 $279 #
plane-surface $-1 0 -35.695977337541812 0 0 1 0 0 0 1 forward_v I I I I #
coedge $-1 $530 $531 $287 $416 forward $280 $-1 #
coedge $-1 $417 $282 $284 $412 reversed $173 $-1 #
edge $-1 $414 1.2036908479856976 $295 5.002180882273791 $293 $532 forward 7 unknown #
coedge $-1 $284 $283 $533 $534 reversed $109 $-1 #
coedge $-1 $421 $420 $283 $411 forward $404 $-1 #
edge $-1 $535 -57.716605121005891 $413 57.716605121005891 $410 $536 forward 7 unknown #
edge $-1 $537 -57.716605121005891 $414 57.716605121005891 $407 $538 forward 7 unknown #
vertex $-1 $411 $539 #
vertex $-1 $286 $540 #
straight-curve $-1 57.716605121005891 -14.244497923980569 4.3066267131154419 0 1 0 I I #
edge $-1 $422 -21.451479413561245 $418 -7.0375164343998957 $406 $541 forward 7 unknown #
coedge $-1 $288 $407 $530 $542 reversed $173 $-1 #
vertex $-1 $416 $543 #
straight-curve $-1 0 -21.282014358380465 8.1051167474035353 -1 0 0 I I #
coedge $-1 $410 $290 $531 $544 forward $404 $-1 #
coedge $-1 $290 $410 $292 $424 reversed $404 $-1 #
vertex $-1 $544 $545 #
straight-curve $-1 0 -35.695977337541812 8.1051167474035353 -1 0 0 I I #
edge $-1 $296 -8.1051167474035353 $413 -4.3066267131154419 $292 $546 forward 7 unknown #
point $-1 57.716605121005891 -21.282014358380465 8.1051167474035353 #
point $-1 57.716605121005891 -35.695977337541812 8.1051167474035353 #
plane-surface $-1 0 0 14.913504152210454 0 0 1 1 0 0 forward_v I I I I #
coedge $-1 $438 $437 $430 $547 forward $299 $-1 #
coedge $-1 $430 $301 $303 $434 reversed $181 $-1 #
coedge $-1 $301 $429 $428 $547 reversed $181 $-1 #
coedge $-1 $309 $304 $301 $432 forward $310 $-1 #
edge $-1 $435 -23.763028302457059 $548 -20.088154986360756 $431 $549 forward 7 unknown #
coedge $-1 $303 $302 $438 $550 reversed $113 $-1 #
edge $-1 $551 3.9918193188544054e-014 $435 6.9347797902027661 $429 $552 forward 7 unknown #
vertex $-1 $305 $553 #
straight-curve $-1 -54.041731804909595 -2.2220922911468932 14.913504152210454 0 1 0 I I #
coedge $-1 $428 $306 $309 $442 reversed $299 $-1 #
coedge $-1 $306 $428 $433 $550 forward $299 $-1 #
vertex $-1 $307 $554 #
straight-curve $-1 -57.716605121005891 -8.5919026303371666 35.10137883725168 0 0 1 I I #
straight-curve $-1 -57.716605121005912 -8.5919026303371666 9.0324772989094129 -0.52991925155115449 0 -0.84804810408105047 I I #
edge $-1 $548 0.29646653425040626 $311 8.5919026303371666 $437 $555 forward 7 unknown #
point $-1 -57.716605121005891 -8.5919026303371666 14.913504152210454 #
point $-1 -54.041731804909588 -8.5919026303371666 14.913504152210454 #
edge $-1 $556 1 $556 0 $314 $-1 forward 7 unknown #
vertex $-1 $315 $557 #
ellipse-curve $-1 -55.03112035887667 -6.9328154111198153 11.443071474008773 -0.84804810408105047 0 0.52991925155115449 0.26495962577557725 0 0.42402405204052523 1 I I #
point $-1 -55.614208837182147 -6.9328154111198153 12.397014777600452 #
edge $-1 $558 1 $558 0 $318 $-1 forward 7 unknown #
vertex $-1 $319 $559 #
ellipse-curve $-1 -55.03112035887667 -4.4441845822937864 11.443071474008773 -0.84804810408105047 0 0.52991925155115449 0.26495962577557725 0 0.42402405204052523 1 I I #
point $-1 -55.614208837182147 -4.4441845822937864 12.397014777600452 #
edge $-1 $560 1 $560 0 $322 $-1 forward 7 unknown #
vertex $-1 $323 $561 #
ellipse-curve $-1 -55.03112035887667 -1.9555537534677612 11.443071474008773 -0.84804810408105047 0 0.52991925155115449 0.26495962577557725 0 0.42402405204052523 1 I I #
point $-1 -55.614208837182147 -1.9555537534677612 12.397014777600452 #
loop $-1 $-1 $334 $326 #
plane-surface $-1 -57.716605121005891 0 0 1 0 0 0 0 -1 forward_v I I I I #
coedge $-1 $460 $329 $331 $464 reversed $210 $-1 #
coedge $-1 $329 $459 $562 $563 reversed $210 $-1 #
coedge $-1 $337 $332 $329 $462 forward $327 $-1 #
edge $-1 $465 -23.763028302457059 $564 -20.088154986360756 $461 $565 forward 7 unknown #
coedge $-1 $331 $330 $468 $566 reversed $132 $-1 #
edge $-1 $567 3.9918193188544054e-014 $465 6.9347797902027661 $459 $568 forward 7 unknown #
vertex $-1 $333 $569 #
straight-curve $-1 -54.041731804909595 12.022405632833678 14.913504152210454 0 1 0 I I #
coedge $-1 $562 $334 $337 $472 reversed $457 $-1 #
coedge $-1 $334 $562 $463 $566 forward $457 $-1 #
vertex $-1 $335 $570 #
straight-curve $-1 -57.716605121005891 19.897093217623976 35.10137883725168 0 0 1 I I #
straight-curve $-1 -57.716605121005912 19.897093217623976 9.0324772989094129 -0.52991925155115449 0 -0.84804810408105047 I I #
edge $-1 $564 -28.192529313710736 $338 -19.897093217623976 $467 $571 forward 7 unknown #
point $-1 -57.716605121005891 19.897093217623976 14.913504152210454 #
point $-1 -54.041731804909588 19.897093217623976 14.913504152210454 #
edge $-1 $572 1 $572 0 $341 $-1 forward 7 unknown #
vertex $-1 $342 $573 #
ellipse-curve $-1 -55.03112035887667 21.556180436841323 11.443071474008773 -0.84804810408105047 0 0.52991925155115449 0.26495962577557725 0 0.42402405204052523 1 I I #
point $-1 -55.614208837182147 21.556180436841323 12.397014777600452 #
edge $-1 $574 1 $574 0 $345 $-1 forward 7 unknown #
vertex $-1 $346 $575 #
ellipse-curve $-1 -55.03112035887667 24.044811265667356 11.443071474008773 -0.84804810408105047 0 0.52991925155115449 0.26495962577557725 0 0.42402405204052523 1 I I #
point $-1 -55.614208837182147 24.044811265667356 12.397014777600452 #
edge $-1 $576 1 $576 0 $349 $-1 forward 7 unknown #
vertex $-1 $350 $577 #
ellipse-curve $-1 -55.03112035887667 26.533442094493374 11.443071474008773 -0.84804810408105047 0 0.52991925155115449 0.26495962577557725 0 0.42402405204052523 1 I I #
point $-1 -55.614208837182147 26.533442094493374 12.397014777600452 #
loop $-1 $-1 $361 $353 #
plane-surface $-1 0 35.695977337541812 0 0 -1 0 0 0 -1 forward_v I I I I #
coedge $-1 $578 $490 $360 $495 forward $354 $-1 #
coedge $-1 $489 $579 $357 $491 forward $354 $-1 #
edge $-1 $493 68.09528063440878 $500 80.213563377207535 $490 $580 forward 7 unknown #
coedge $-1 $364 $358 $579 $581 forward $239 $-1 #
vertex $-1 $581 $582 #
straight-curve $-1 27.433775144172859 27.482173012767163 14.91350415221045 1 0 0 I I #
edge $-1 $500 11.687635425189921 $498 19.901439749964563 $489 $583 forward 7 unknown #
coedge $-1 $497 $361 $364 $502 reversed $487 $-1 #
coedge $-1 $361 $496 $578 $584 forward $487 $-1 #
vertex $-1 $362 $585 #
straight-curve $-1 1.9644129608642125 35.695977337541812 56.63448877167459 -0.71933979245794832 0 0.69465837861970381 I I #
vertex $-1 $495 $586 #
straight-curve $-1 -25.319096377237578 27.482173012767163 82.981868074994992 -0.71933979245794832 0 0.69465837861970381 I I #
edge $-1 $587 -57.716605121005891 $365 -45.167756274652497 $496 $588 forward 7 unknown #
point $-1 45.167756274652497 35.695977337541805 14.91350415221045 #
point $-1 45.167756274652497 27.482173012767163 14.91350415221045 #
edge $-1 $589 1 $589 0 $368 $-1 forward 7 unknown #
vertex $-1 $369 $590 #
ellipse-curve $-1 50.747522319209502 29.828974248417062 8.1350229883531302 0.69465837861970381 0 0.71933979245794832 0.17983494811448708 0 -0.17366459465492595 1 I I #
point $-1 51.622015645943691 29.828974248417062 8.6806981861561532 #
edge $-1 $591 1 $591 0 $372 $-1 forward 7 unknown #
vertex $-1 $373 $592 #
ellipse-curve $-1 50.747522319209502 33.349176101891906 8.1350229883531302 0.69465837861970381 0 0.71933979245794832 0.17983494811448708 0 -0.17366459465492595 1 I I #
point $-1 51.622015645943691 33.349176101891906 8.6806981861561532 #
plane-surface $-1 57.716605121005891 0 0 -1 0 0 0 0 1 forward_v I I I I #
coedge $-1 $381 $379 $383 $518 reversed $261 $-1 #
edge $-1 $394 -14.913504152210454 $520 14.913504152210454 $393 $593 forward 7 unknown #
vertex $-1 $518 $594 #
straight-curve $-1 -57.716605121005891 -35.695977337541812 0 0 0 -1 I I #
edge $-1 $516 -35.695977337541812 $520 35.695977337541812 $514 $595 forward 7 unknown #
straight-curve $-1 0 -35.695977337541812 -14.913504152210454 -1 0 0 I I #
vertex $-1 $386 $596 #
straight-curve $-1 0 35.695977337541812 -14.913504152210454 1 0 0 I I #
point $-1 57.716605121005891 35.695977337541812 -14.913504152210454 #
point $-1 57.716605121005891 -35.695977337541812 -14.913504152210454 #
straight-curve $-1 -57.716605121005891 0 14.913504152210454 0 -1 0 I I #
point $-1 -57.716605121005891 35.695977337541812 14.913504152210454 #
point $-1 -57.716605121005891 -35.695977337541812 14.913504152210454 #
straight-curve $-1 57.716605121005891 -35.695977337541812 0 0 0 -1 I I #
straight-curve $-1 57.716605121005891 35.695977337541812 0 0 0 -1 I I #
plane-surface $-1 57.716605121005891 0 0 -1 0 0 0 0 1 forward_v I I I I #
coedge $-1 $533 $406 $417 $542 forward $280 $-1 #
coedge $-1 $406 $533 $420 $544 reversed $280 $-1 #
straight-curve $-1 57.716605121005891 -21.282014358380465 3.1029358651297443 0 0 1 I I #
coedge $-1 $531 $530 $409 $534 forward $280 $-1 #
edge $-1 $537 7.0375164343998957 $535 21.451479413561245 $533 $597 forward 7 unknown #
vertex $-1 $411 $598 #
straight-curve $-1 0 -35.695977337541812 4.3066267131154419 1 0 0 I I #
vertex $-1 $534 $599 #
straight-curve $-1 0 -21.282014358380465 4.3066267131154419 1 0 0 I I #
point $-1 57.716605121005891 -35.695977337541812 4.3066267131154419 #
point $-1 57.716605121005891 -21.282014358380465 4.3066267131154419 #
straight-curve $-1 -57.716605121005891 -14.244497923980569 8.1051167474035353 0 1 0 I I #
edge $-1 $418 -5.002180882273791 $537 -1.2036908479856976 $530 $600 forward 7 unknown #
point $-1 -57.716605121005891 -21.282014358380465 8.1051167474035353 #
edge $-1 $422 -8.1051167474035353 $535 -4.3066267131154419 $531 $601 forward 7 unknown #
point $-1 -57.716605121005891 -35.695977337541812 8.1051167474035353 #
straight-curve $-1 57.716605121005891 -35.695977337541812 0 0 0 -1 I I #
edge $-1 $548 20.187874685041226 $551 26.068901538342232 $428 $602 forward 7 unknown #
vertex $-1 $442 $603 #
straight-curve $-1 -77.804760107366647 -0.29646653425040626 14.913504152210454 -1 0 0 I I #
edge $-1 $551 -1.925625756896487 $439 6.3698103391902734 $438 $604 forward 7 unknown #
vertex $-1 $550 $605 #
straight-curve $-1 -57.716605121005912 -0.29646653425040626 9.0324772989094129 0.52991925155115449 0 0.84804810408105047 I I #
point $-1 -54.041731804909588 -0.29646653425040626 14.913504152210454 #
point $-1 -57.716605121005891 -8.5919026303371666 9.0324772989094466 #
straight-curve $-1 -57.716605121005891 0 14.913504152210454 0 -1 0 I I #
vertex $-1 $445 $606 #
point $-1 -54.766160733101096 -6.9328154111198153 11.867095526049297 #
vertex $-1 $449 $607 #
point $-1 -54.766160733101096 -4.4441845822937864 11.867095526049297 #
vertex $-1 $453 $608 #
point $-1 -54.766160733101096 -1.9555537534677612 11.867095526049297 #
coedge $-1 $468 $467 $460 $563 forward $457 $-1 #
edge $-1 $564 20.187874685041226 $567 26.068901538342232 $562 $609 forward 7 unknown #
vertex $-1 $472 $610 #
straight-curve $-1 -77.804760107366647 28.192529313710736 14.913504152210454 -1 0 0 I I #
edge $-1 $567 -16.170123680877058 $469 -7.8746875847902977 $468 $611 forward 7 unknown #
vertex $-1 $566 $612 #
straight-curve $-1 -57.716605121005912 28.192529313710736 9.0324772989094129 0.52991925155115449 0 0.84804810408105047 I I #
point $-1 -54.041731804909588 28.192529313710736 14.913504152210454 #
point $-1 -57.716605121005891 19.897093217623976 9.0324772989094466 #
straight-curve $-1 -57.716605121005891 0 14.913504152210454 0 -1 0 I I #
vertex $-1 $475 $613 #
point $-1 -54.766160733101096 21.556180436841323 11.867095526049297 #
vertex $-1 $479 $614 #
point $-1 -54.766160733101096 24.044811265667356 11.867095526049297 #
vertex $-1 $483 $615 #
point $-1 -54.766160733101096 26.533442094493374 11.867095526049297 #
coedge $-1 $579 $489 $497 $584 reversed $354 $-1 #
coedge $-1 $490 $578 $492 $581 reversed $354 $-1 #
straight-curve $-1 57.716605121005891 27.482173012767163 83.008784786619231 0 0 -1 I I #
edge $-1 $493 27.482173012767163 $587 35.695977337541812 $579 $616 forward 7 unknown #
point $-1 57.716605121005891 27.482173012767163 14.913504152210454 #
straight-curve $-1 57.716605121005884 15.794537587577242 2.7952214094116954 0 1 0 I I #
edge $-1 $587 -14.913504152210454 $498 -2.7952214094116954 $578 $617 forward 7 unknown #
point $-1 57.716605121005891 35.695977337541805 2.7952214094116954 #
point $-1 57.716605121005891 27.482173012767163 2.7952214094116954 #
vertex $-1 $581 $618 #
straight-curve $-1 0 35.695977337541812 14.913504152210454 -1 0 0 I I #
vertex $-1 $505 $619 #
point $-1 50.927357267323991 29.828974248417062 7.9613583936982044 #
vertex $-1 $509 $620 #
point $-1 50.927357267323991 33.349176101891906 7.9613583936982044 #
straight-curve $-1 -57.716605121005891 35.695977337541812 0 0 0 -1 I I #
point $-1 -57.716605121005891 -35.695977337541812 -14.913504152210454 #
straight-curve $-1 -57.716605121005891 0 -14.913504152210454 0 1 0 I I #
point $-1 -57.716605121005891 35.695977337541812 -14.913504152210454 #
straight-curve $-1 -57.716605121005891 -14.244497923980569 4.3066267131154419 0 -1 0 I I #
point $-1 -57.716605121005891 -35.695977337541812 4.3066267131154419 #
point $-1 -57.716605121005891 -21.282014358380465 4.3066267131154419 #
straight-curve $-1 -57.716605121005891 -21.282014358380465 3.1029358651297443 0 0 -1 I I #
straight-curve $-1 -57.716605121005891 -35.695977337541812 0 0 0 -1 I I #
straight-curve $-1 -57.716605121005891 -0.29646653425040626 35.10137883725168 0 0 -1 I I #
point $-1 -57.716605121005891 -0.29646653425040626 14.913504152210454 #
straight-curve $-1 -57.716605121005891 -2.2220922911468932 9.0324772989094448 0 -1 0 I I #
point $-1 -57.716605121005891 -0.29646653425040626 9.0324772989094466 #
point $-1 -54.607096306836148 -6.9328154111198153 11.178111848233195 #
point $-1 -54.607096306836148 -4.4441845822937864 11.178111848233195 #
point $-1 -54.607096306836148 -1.9555537534677612 11.178111848233195 #
straight-curve $-1 -57.716605121005891 28.192529313710736 35.10137883725168 0 0 -1 I I #
point $-1 -57.716605121005891 28.192529313710736 14.913504152210454 #
straight-curve $-1 -57.716605121005891 12.022405632833678 9.0324772989094448 0 -1 0 I I #
point $-1 -57.716605121005891 28.192529313710736 9.0324772989094466 #
point $-1 -54.607096306836148 21.556180436841323 11.178111848233195 #
point $-1 -54.607096306836148 24.044811265667356 11.178111848233195 #
point $-1 -54.607096306836148 26.533442094493374 11.178111848233195 #
straight-curve $-1 57.716605121005891 0 14.913504152210454 0 1 0 I I #
straight-curve $-1 57.716605121005891 35.695977337541812 0 0 0 -1 I I #
point $-1 57.716605121005891 35.695977337541812 14.913504152210454 #
point $-1 50.573857724554578 29.828974248417062 7.9551880402386432 #
point $-1 50.573857724554578 33.349176101891906 7.9551880402386432 #
End-of-ACIS-data 