500 0 13 0           
7 Unknown 11 ACIS 5.0 NT 24 Fri Mar 26 01:56:55 1999 
-1 9.9999999999999995e-007 1e-010 
body $-1 $13 $-1 $14 #
body $-1 $15 $-1 $16 #
body $-1 $17 $-1 $18 #
body $-1 $19 $-1 $20 #
body $-1 $21 $-1 $22 #
body $-1 $23 $-1 $24 #
body $-1 $25 $-1 $26 #
body $-1 $27 $-1 $28 #
body $-1 $29 $-1 $30 #
body $-1 $31 $-1 $32 #
body $-1 $33 $-1 $34 #
body $-1 $35 $-1 $36 #
body $-1 $37 $-1 $38 #
lump $-1 $-1 $39 $0 #
transform $-1 1 0 0 0 1 0 0 0 1 69.325846125675227 37.096214350692442 13.619644089532159 1 rotate no_reflect no_shear #
lump $-1 $-1 $40 $1 #
transform $-1 1 0 0 0 1 0 0 0 1 69.325846125675227 37.096214350692442 13.619644089532159 1 rotate no_reflect no_shear #
lump $-1 $-1 $41 $2 #
transform $-1 1 0 0 0 1 0 0 0 1 69.325846125675227 37.096214350692442 13.619644089532159 1 rotate no_reflect no_shear #
lump $-1 $-1 $42 $3 #
transform $-1 1 0 0 0 1 0 0 0 1 69.325846125675227 37.096214350692442 13.619644089532159 1 rotate no_reflect no_shear #
lump $-1 $-1 $43 $4 #
transform $-1 1 0 0 0 1 0 0 0 1 69.325846125675227 37.096214350692442 13.619644089532159 1 rotate no_reflect no_shear #
lump $-1 $-1 $44 $5 #
transform $-1 1 0 0 0 1 0 0 0 1 69.325846125675227 37.096214350692442 13.619644089532159 1 rotate no_reflect no_shear #
lump $-1 $-1 $45 $6 #
transform $-1 1 0 0 0 1 0 0 0 1 69.325846125675227 37.096214350692442 13.619644089532159 1 rotate no_reflect no_shear #
lump $-1 $-1 $46 $7 #
transform $-1 1 0 0 0 1 0 0 0 1 69.325846125675227 37.096214350692442 13.619644089532159 1 rotate no_reflect no_shear #
lump $-1 $-1 $47 $8 #
transform $-1 1 0 0 0 1 0 0 0 1 69.325846125675227 37.096214350692442 13.619644089532159 1 rotate no_reflect no_shear #
lump $-1 $-1 $48 $9 #
transform $-1 1 0 0 0 1 0 0 0 1 69.325846125675227 37.096214350692442 13.619644089532159 1 rotate no_reflect no_shear #
lump $-1 $-1 $49 $10 #
transform $-1 1 0 0 0 1 0 0 0 1 69.325846125675227 37.096214350692442 13.619644089532159 1 rotate no_reflect no_shear #
lump $-1 $-1 $50 $11 #
transform $-1 1 0 0 0 1 0 0 0 1 69.325846125675227 37.096214350692442 13.619644089532159 1 rotate no_reflect no_shear #
lump $-1 $-1 $51 $12 #
transform $-1 1 0 0 0 1 0 0 0 1 69.325846125675227 37.096214350692442 13.619644089532159 1 rotate no_reflect no_shear #
shell $-1 $-1 $-1 $52 $-1 $13 #
shell $-1 $-1 $-1 $53 $-1 $15 #
shell $-1 $-1 $-1 $54 $-1 $17 #
shell $-1 $-1 $-1 $55 $-1 $19 #
shell $-1 $-1 $-1 $56 $-1 $21 #
shell $-1 $-1 $-1 $57 $-1 $23 #
shell $-1 $-1 $-1 $58 $-1 $25 #
shell $-1 $-1 $-1 $59 $-1 $27 #
shell $-1 $-1 $-1 $60 $-1 $29 #
shell $-1 $-1 $-1 $61 $-1 $31 #
shell $-1 $-1 $-1 $62 $-1 $33 #
shell $-1 $-1 $-1 $63 $-1 $35 #
shell $-1 $-1 $-1 $64 $-1 $37 #
face $-1 $65 $66 $39 $-1 $67 forward single #
face $-1 $68 $69 $40 $-1 $70 reversed single #
face $-1 $71 $72 $41 $-1 $73 reversed single #
face $-1 $74 $75 $42 $-1 $76 forward single #
face $-1 $77 $78 $43 $-1 $79 forward single #
face $-1 $80 $81 $44 $-1 $82 reversed single #
face $-1 $83 $84 $45 $-1 $85 forward single #
face $-1 $86 $87 $46 $-1 $88 forward single #
face $-1 $89 $90 $47 $-1 $91 forward single #
face $-1 $92 $93 $48 $-1 $94 reversed single #
face $-1 $95 $96 $49 $-1 $97 forward single #
face $-1 $98 $99 $50 $-1 $100 forward single #
face $-1 $101 $102 $51 $-1 $103 forward single #
face $-1 $104 $105 $39 $-1 $106 reversed single #
loop $-1 $-1 $107 $52 #
plane-surface $-1 0 0 13.619644089532159 0 0 1 1 0 0 forward_v I I I I #
face $-1 $108 $109 $40 $-1 $110 reversed single #
loop $-1 $-1 $111 $53 #
plane-surface $-1 -60.619989397269819 0 10.378478872046459 0 0 1 1 0 0 forward_v I I I I #
face $-1 $112 $113 $41 $-1 $114 reversed single #
loop $-1 $-1 $115 $54 #
plane-surface $-1 -39.626591985286822 -133.41177408289371 102.89404763581973 -1 0 0 0 -0.69465837861970381 0.71933979245794832 forward_v I I I I #
face $-1 $116 $117 $42 $-1 $118 forward single #
loop $-1 $119 $120 $55 #
cone-surface $-1 -48.403406759270808 -30.462528482273903 7.1286290972865389 0 0.69465837861970381 -0.71933979245794832 1 0 0 1 I I 0 1 1 forward I I I I #
face $-1 $121 $122 $43 $-1 $123 forward single #
loop $-1 $124 $125 $56 #
cone-surface $-1 -43.137317894880418 -30.462528482273903 7.1286290972865389 0 0.69465837861970381 -0.71933979245794832 1 0 0 1 I I 0 1 1 forward I I I I #
face $-1 $126 $127 $44 $-1 $128 reversed single #
loop $-1 $-1 $129 $57 #
plane-surface $-1 -40.583150886555124 -9.5945931344184316 67.799949869013503 0 0.77714596973225614 0.62932038083071107 1 0 0 forward_v I I I I #
face $-1 $130 $131 $45 $-1 $132 forward single #
loop $-1 $133 $134 $58 #
cone-surface $-1 -47.381739955940695 35.121494699560976 11.421890104969274 0 -0.77714596973225614 -0.62932038083071107 1 0 0 1 I I 0 1 1 forward I I I I #
face $-1 $135 $136 $46 $-1 $137 forward single #
loop $-1 $138 $139 $59 #
cone-surface $-1 -40.583150886555124 35.121494699560976 11.421890104969274 0 -0.77714596973225614 -0.62932038083071107 1 0 0 1 I I 0 1 1 forward I I I I #
face $-1 $140 $141 $47 $-1 $142 forward single #
loop $-1 $143 $144 $60 #
cone-surface $-1 -33.784561817169553 35.121494699560976 11.421890104969274 0 -0.77714596973225614 -0.62932038083071107 1 0 0 1 I I 0 1 1 forward I I I I #
face $-1 $145 $146 $48 $-1 $147 reversed single #
loop $-1 $-1 $148 $61 #
plane-surface $-1 8.7058567284054167 98.158010695275664 155.05628563945592 1 0 0 0 -0.77714596973225614 -0.62932038083071107 forward_v I I I I #
face $-1 $149 $150 $49 $-1 $151 forward single #
loop $-1 $152 $153 $62 #
cone-surface $-1 13.238249441329131 35.121494699560976 11.421890104969274 0 -0.77714596973225614 -0.62932038083071107 1 0 0 1 I I 0 1 1 forward I I I I #
face $-1 $154 $155 $50 $-1 $156 forward single #
loop $-1 $157 $158 $63 #
cone-surface $-1 20.036838510714702 35.121494699560976 11.421890104969274 0 -0.77714596973225614 -0.62932038083071107 1 0 0 1 I I 0 1 1 forward I I I I #
face $-1 $159 $160 $51 $-1 $161 forward single #
loop $-1 $162 $163 $64 #
cone-surface $-1 26.835427580100273 35.121494699560976 11.421890104969274 0 -0.77714596973225614 -0.62932038083071107 1 0 0 1 I I 0 1 1 forward I I I I #
face $-1 $164 $165 $39 $-1 $166 reversed single #
loop $-1 $-1 $167 $65 #
plane-surface $-1 0 0 -13.619644089532159 0 0 1 1 0 0 forward_v I I I I #
coedge $-1 $168 $169 $170 $171 forward $66 $-1 #
face $-1 $172 $173 $40 $-1 $174 reversed single #
loop $-1 $-1 $175 $68 #
plane-surface $-1 -51.914132668864411 0 11.999061480789308 -1 0 0 0 0 1 forward_v I I I I #
coedge $-1 $176 $177 $178 $179 forward $69 $-1 #
face $-1 $180 $181 $41 $-1 $182 forward single #
loop $-1 $-1 $183 $71 #
plane-surface $-1 -45.770362327075617 -37.096214350692463 3.156368107789973 0 -0.69465837861970381 0.71933979245794832 1 0 0 forward_v I I I I #
coedge $-1 $184 $185 $186 $187 reversed $72 $-1 #
face $-1 $-1 $188 $42 $-1 $189 forward single #
loop $-1 $190 $191 $74 #
cone-surface $-1 -48.403406759270808 -28.89903303187554 5.5095821996830452 0 0.69465837861970381 -0.71933979245794832 0.5 0 0 1 I I -0.70710678118654746 0.70710678118654746 0.5 forward I I I I #
loop $-1 $-1 $192 $55 #
coedge $-1 $120 $120 $193 $194 reversed $75 $-1 #
face $-1 $-1 $195 $43 $-1 $196 forward single #
loop $-1 $197 $198 $77 #
cone-surface $-1 -43.137317894880418 -28.89903303187554 5.5095821996830452 0 0.69465837861970381 -0.71933979245794832 0.5 0 0 1 I I -0.70710678118654746 0.70710678118654746 0.5 forward I I I I #
loop $-1 $-1 $199 $56 #
coedge $-1 $125 $125 $200 $201 reversed $78 $-1 #
face $-1 $202 $203 $44 $-1 $204 forward single #
loop $-1 $-1 $205 $80 #
plane-surface $-1 -29.252169104245837 98.158010695275664 155.05628563945592 -1 0 0 0 0.77714596973225614 0.62932038083071107 forward_v I I I I #
coedge $-1 $206 $207 $208 $209 reversed $81 $-1 #
face $-1 $-1 $210 $45 $-1 $211 forward single #
loop $-1 $212 $213 $83 #
cone-surface $-1 -47.381739955940695 34.166433129012454 10.648496515214902 0 -0.77714596973225614 -0.62932038083071107 0.5 0 0 1 I I -0.70710678118654746 0.70710678118654746 0.5 forward I I I I #
loop $-1 $-1 $214 $58 #
coedge $-1 $134 $134 $215 $216 reversed $84 $-1 #
face $-1 $-1 $217 $46 $-1 $218 forward single #
loop $-1 $219 $220 $86 #
cone-surface $-1 -40.583150886555124 34.166433129012454 10.648496515214902 0 -0.77714596973225614 -0.62932038083071107 0.5 0 0 1 I I -0.70710678118654746 0.70710678118654746 0.5 forward I I I I #
loop $-1 $-1 $221 $59 #
coedge $-1 $139 $139 $222 $223 reversed $87 $-1 #
face $-1 $-1 $224 $47 $-1 $225 forward single #
loop $-1 $226 $227 $89 #
cone-surface $-1 -33.784561817169553 34.166433129012454 10.648496515214902 0 -0.77714596973225614 -0.62932038083071107 0.5 0 0 1 I I -0.70710678118654746 0.70710678118654746 0.5 forward I I I I #
loop $-1 $-1 $228 $60 #
coedge $-1 $144 $144 $229 $230 reversed $90 $-1 #
face $-1 $231 $232 $48 $-1 $233 reversed single #
loop $-1 $-1 $234 $92 #
plane-surface $-1 20.036838510714702 -9.5945931344184316 67.799949869013503 0 0.77714596973225614 0.62932038083071107 1 0 0 forward_v I I I I #
coedge $-1 $235 $236 $237 $238 reversed $93 $-1 #
face $-1 $-1 $239 $49 $-1 $240 forward single #
loop $-1 $241 $242 $95 #
cone-surface $-1 13.238249441329131 34.166433129012454 10.648496515214902 0 -0.77714596973225614 -0.62932038083071107 0.5 0 0 1 I I -0.70710678118654746 0.70710678118654746 0.5 forward I I I I #
loop $-1 $-1 $243 $62 #
coedge $-1 $153 $153 $244 $245 reversed $96 $-1 #
face $-1 $-1 $246 $50 $-1 $247 forward single #
loop $-1 $248 $249 $98 #
cone-surface $-1 20.036838510714702 34.166433129012454 10.648496515214902 0 -0.77714596973225614 -0.62932038083071107 0.5 0 0 1 I I -0.70710678118654746 0.70710678118654746 0.5 forward I I I I #
loop $-1 $-1 $250 $63 #
coedge $-1 $158 $158 $251 $252 reversed $99 $-1 #
face $-1 $-1 $253 $51 $-1 $254 forward single #
loop $-1 $255 $256 $101 #
cone-surface $-1 26.835427580100273 34.166433129012454 10.648496515214902 0 -0.77714596973225614 -0.62932038083071107 0.5 0 0 1 I I -0.70710678118654746 0.70710678118654746 0.5 forward I I I I #
loop $-1 $-1 $257 $64 #
coedge $-1 $163 $163 $258 $259 reversed $102 $-1 #
face $-1 $260 $261 $39 $-1 $262 reversed single #
loop $-1 $-1 $263 $104 #
plane-surface $-1 0 -37.096214350692442 0 0 1 0 0 0 1 forward_v I I I I #
coedge $-1 $264 $265 $266 $267 forward $105 $-1 #
coedge $-1 $268 $107 $269 $270 forward $66 $-1 #
coedge $-1 $107 $268 $271 $272 forward $66 $-1 #
coedge $-1 $273 $274 $107 $171 reversed $275 $-1 #
edge $-1 $276 -37.096214350692442 $277 37.096214350692442 $170 $278 forward 7 unknown #
face $-1 $279 $280 $40 $-1 $281 reversed single #
loop $-1 $-1 $282 $108 #
plane-surface $-1 0 37.096214350692442 0 0 -1 0 0 0 -1 forward_v I I I I #
coedge $-1 $283 $284 $285 $286 reversed $109 $-1 #
coedge $-1 $287 $111 $288 $289 reversed $69 $-1 #
coedge $-1 $111 $287 $290 $291 reversed $69 $-1 #
coedge $-1 $284 $283 $111 $179 reversed $109 $-1 #
edge $-1 $292 -37.096214350692442 $293 37.096214350692442 $178 $294 forward 7 unknown #
face $-1 $295 $296 $41 $-1 $297 forward single #
loop $-1 $-1 $298 $112 #
plane-surface $-1 -51.914132668864411 0 11.999061480789308 -1 0 0 0 0 1 forward_v I I I I #
coedge $-1 $299 $300 $301 $302 reversed $113 $-1 #
coedge $-1 $185 $115 $303 $304 reversed $72 $-1 #
coedge $-1 $115 $184 $299 $305 reversed $72 $-1 #
coedge $-1 $301 $306 $115 $187 forward $296 $-1 #
edge $-1 $307 29.609672690754415 $308 40.444711905414444 $186 $309 forward 7 unknown #
loop $-1 $-1 $193 $116 #
plane-surface $-1 -45.770362327075617 -37.096214350692463 3.156368107789973 0 -0.69465837861970381 0.71933979245794832 1 0 0 forward_v I I I I #
loop $-1 $-1 $310 $74 #
coedge $-1 $191 $191 $192 $311 reversed $117 $-1 #
coedge $-1 $192 $192 $191 $311 forward $119 $-1 #
coedge $-1 $193 $193 $120 $194 forward $188 $-1 #
edge $-1 $312 -8.8321717568673142e-016 $312 6.2831853071795996 $193 $313 forward 7 unknown #
loop $-1 $-1 $200 $121 #
plane-surface $-1 -45.770362327075617 -37.096214350692463 3.156368107789973 0 -0.69465837861970381 0.71933979245794832 1 0 0 forward_v I I I I #
loop $-1 $-1 $314 $77 #
coedge $-1 $198 $198 $199 $315 reversed $122 $-1 #
coedge $-1 $199 $199 $198 $315 forward $124 $-1 #
coedge $-1 $200 $200 $125 $201 forward $195 $-1 #
edge $-1 $316 -8.8321717568673142e-016 $316 6.2831853071795996 $200 $317 forward 7 unknown #
face $-1 $318 $319 $44 $-1 $320 reversed single #
loop $-1 $-1 $208 $126 #
plane-surface $-1 0 0 13.619644089532159 0 0 1 1 0 0 forward_v I I I I #
coedge $-1 $321 $322 $323 $324 reversed $127 $-1 #
coedge $-1 $325 $129 $326 $327 reversed $81 $-1 #
coedge $-1 $129 $325 $321 $328 forward $81 $-1 #
coedge $-1 $323 $329 $129 $209 forward $203 $-1 #
edge $-1 $330 -31.622557225586849 $331 -8.960593660968275 $208 $332 forward 7 unknown #
loop $-1 $-1 $215 $130 #
plane-surface $-1 -40.583150886555124 -9.5945931344184316 67.799949869013503 0 0.77714596973225614 0.62932038083071107 1 0 0 forward_v I I I I #
loop $-1 $-1 $333 $83 #
coedge $-1 $213 $213 $214 $334 reversed $131 $-1 #
coedge $-1 $214 $214 $213 $334 forward $133 $-1 #
coedge $-1 $215 $215 $134 $216 forward $210 $-1 #
edge $-1 $335 -1.6506228750585797e-015 $335 6.2831853071795987 $215 $336 forward 7 unknown #
loop $-1 $-1 $222 $135 #
plane-surface $-1 -40.583150886555124 -9.5945931344184316 67.799949869013503 0 0.77714596973225614 0.62932038083071107 1 0 0 forward_v I I I I #
loop $-1 $-1 $337 $86 #
coedge $-1 $220 $220 $221 $338 reversed $136 $-1 #
coedge $-1 $221 $221 $220 $338 forward $138 $-1 #
coedge $-1 $222 $222 $139 $223 forward $217 $-1 #
edge $-1 $339 -1.6506228750585797e-015 $339 6.2831853071795987 $222 $340 forward 7 unknown #
loop $-1 $-1 $229 $140 #
plane-surface $-1 -40.583150886555124 -9.5945931344184316 67.799949869013503 0 0.77714596973225614 0.62932038083071107 1 0 0 forward_v I I I I #
loop $-1 $-1 $341 $89 #
coedge $-1 $227 $227 $228 $342 reversed $141 $-1 #
coedge $-1 $228 $228 $227 $342 forward $143 $-1 #
coedge $-1 $229 $229 $144 $230 forward $224 $-1 #
edge $-1 $343 -1.6506228750585797e-015 $343 6.2831853071795987 $229 $344 forward 7 unknown #
face $-1 $345 $346 $48 $-1 $347 forward single #
loop $-1 $-1 $348 $145 #
plane-surface $-1 31.367820293023989 98.158010695275664 155.05628563945592 -1 0 0 0 0.77714596973225614 0.62932038083071107 forward_v I I I I #
coedge $-1 $349 $350 $351 $352 reversed $146 $-1 #
coedge $-1 $236 $148 $353 $354 reversed $93 $-1 #
coedge $-1 $148 $235 $349 $355 reversed $93 $-1 #
coedge $-1 $351 $356 $148 $238 forward $346 $-1 #
edge $-1 $357 11.98279099694539 $358 14.799253127843514 $237 $359 forward 7 unknown #
loop $-1 $-1 $244 $149 #
plane-surface $-1 20.036838510714702 -9.5945931344184316 67.799949869013503 0 0.77714596973225614 0.62932038083071107 1 0 0 forward_v I I I I #
loop $-1 $-1 $360 $95 #
coedge $-1 $242 $242 $243 $361 reversed $150 $-1 #
coedge $-1 $243 $243 $242 $361 forward $152 $-1 #
coedge $-1 $244 $244 $153 $245 forward $239 $-1 #
edge $-1 $362 -1.6506228750585797e-015 $362 6.2831853071795987 $244 $363 forward 7 unknown #
loop $-1 $-1 $251 $154 #
plane-surface $-1 20.036838510714702 -9.5945931344184316 67.799949869013503 0 0.77714596973225614 0.62932038083071107 1 0 0 forward_v I I I I #
loop $-1 $-1 $364 $98 #
coedge $-1 $249 $249 $250 $365 reversed $155 $-1 #
coedge $-1 $250 $250 $249 $365 forward $157 $-1 #
coedge $-1 $251 $251 $158 $252 forward $246 $-1 #
edge $-1 $366 -1.6506228750585797e-015 $366 6.2831853071795987 $251 $367 forward 7 unknown #
loop $-1 $-1 $258 $159 #
plane-surface $-1 20.036838510714702 -9.5945931344184316 67.799949869013503 0 0.77714596973225614 0.62932038083071107 1 0 0 forward_v I I I I #
loop $-1 $-1 $368 $101 #
coedge $-1 $256 $256 $257 $369 reversed $160 $-1 #
coedge $-1 $257 $257 $256 $369 forward $162 $-1 #
coedge $-1 $258 $258 $163 $259 forward $253 $-1 #
edge $-1 $370 -1.6506228750585797e-015 $370 6.2831853071795987 $258 $371 forward 7 unknown #
face $-1 $372 $373 $39 $-1 $374 reversed single #
loop $-1 $-1 $375 $164 #
plane-surface $-1 -69.325846125675227 0 0 1 0 0 0 0 -1 forward_v I I I I #
coedge $-1 $376 $271 $377 $378 forward $165 $-1 #
coedge $-1 $379 $167 $376 $380 forward $105 $-1 #
coedge $-1 $167 $379 $381 $382 forward $105 $-1 #
coedge $-1 $274 $273 $167 $267 reversed $275 $-1 #
edge $-1 $383 -37.096214350692442 $384 37.096214350692442 $266 $385 forward 7 unknown #
coedge $-1 $169 $168 $386 $387 forward $66 $-1 #
coedge $-1 $388 $389 $168 $270 reversed $373 $-1 #
edge $-1 $277 -69.325846125675227 $390 69.325846125675227 $269 $391 forward 7 unknown #
coedge $-1 $263 $392 $169 $272 reversed $165 $-1 #
edge $-1 $393 -69.325846125675227 $276 69.325846125675227 $271 $394 forward 7 unknown #
coedge $-1 $266 $170 $392 $395 forward $275 $-1 #
coedge $-1 $170 $266 $388 $396 reversed $275 $-1 #
loop $-1 $-1 $273 $372 #
vertex $-1 $171 $397 #
vertex $-1 $171 $398 #
straight-curve $-1 69.325846125675227 0 13.619644089532159 0 1 0 I I #
face $-1 $399 $400 $40 $-1 $401 forward single #
loop $-1 $-1 $402 $172 #
plane-surface $-1 -69.325846125675227 0 0 1 0 0 0 0 -1 forward_v I I I I #
coedge $-1 $290 $403 $284 $404 forward $173 $-1 #
coedge $-1 $178 $175 $405 $406 reversed $109 $-1 #
coedge $-1 $175 $178 $282 $404 reversed $109 $-1 #
coedge $-1 $407 $408 $175 $286 forward $400 $-1 #
edge $-1 $409 -37.096214350692442 $410 37.096214350692442 $285 $411 forward 7 unknown #
coedge $-1 $177 $176 $402 $412 reversed $69 $-1 #
coedge $-1 $405 $413 $176 $289 forward $414 $-1 #
edge $-1 $415 -39.015851427040317 $293 -21.604137970229502 $288 $416 forward 7 unknown #
coedge $-1 $417 $282 $177 $291 forward $173 $-1 #
edge $-1 $292 21.604137970229502 $418 39.015851427040317 $290 $419 forward 7 unknown #
vertex $-1 $291 $420 #
vertex $-1 $289 $421 #
straight-curve $-1 -51.914132668864411 0 10.378478872046459 0 -1 0 I I #
face $-1 $-1 $422 $41 $-1 $423 reversed single #
loop $-1 $-1 $301 $180 #
plane-surface $-1 0 0 13.619644089532159 0 0 1 1 0 0 forward_v I I I I #
coedge $-1 $424 $425 $300 $426 reversed $181 $-1 #
coedge $-1 $427 $183 $185 $305 forward $113 $-1 #
coedge $-1 $183 $427 $298 $426 forward $113 $-1 #
coedge $-1 $428 $186 $183 $302 forward $296 $-1 #
edge $-1 $308 16.741410821749014 $429 29.028951505326603 $301 $430 forward 7 unknown #
coedge $-1 $431 $432 $184 $304 forward $422 $-1 #
edge $-1 $433 -48.290655710119871 $307 -37.827379728377707 $303 $434 forward 7 unknown #
edge $-1 $308 -15.062477188474809 $433 -2.9524203284164893e-014 $185 $435 forward 7 unknown #
coedge $-1 $186 $428 $431 $436 forward $296 $-1 #
vertex $-1 $304 $437 #
vertex $-1 $187 $438 #
straight-curve $-1 -39.626591985286822 -66.705887041446857 13.619644089532159 0 1 0 I I #
coedge $-1 $310 $310 $-1 $439 reversed $190 $-1 #
edge $-1 $440 0 $440 6.2831853071796004 $191 $441 forward 7 unknown #
vertex $-1 $194 $442 #
ellipse-curve $-1 -48.403406759270808 -31.678694743362428 8.3880060986610747 0 -0.69465837861970381 0.71933979245794832 1 0 0 1 I I #
coedge $-1 $314 $314 $-1 $443 reversed $197 $-1 #
edge $-1 $444 0 $444 6.2831853071796004 $198 $445 forward 7 unknown #
vertex $-1 $201 $446 #
ellipse-curve $-1 -43.137317894880418 -31.678694743362428 8.3880060986610747 0 -0.69465837861970381 0.71933979245794832 1 0 0 1 I I #
face $-1 $-1 $447 $44 $-1 $448 forward single #
loop $-1 $-1 $449 $202 #
plane-surface $-1 0 37.096214350692442 0 0 -1 0 0 0 -1 forward_v I I I I #
coedge $-1 $322 $205 $207 $328 reversed $127 $-1 #
coedge $-1 $205 $321 $449 $450 reversed $127 $-1 #
coedge $-1 $451 $208 $205 $324 forward $203 $-1 #
edge $-1 $331 -14.799253127843514 $452 -11.98279099694539 $323 $453 forward 7 unknown #
coedge $-1 $207 $206 $454 $455 reversed $81 $-1 #
coedge $-1 $456 $457 $206 $327 forward $447 $-1 #
edge $-1 $458 -49.490674439556919 $330 -45.015271740568579 $326 $459 forward 7 unknown #
edge $-1 $460 -74.192428701384827 $331 -69.717026002396494 $321 $461 forward 7 unknown #
coedge $-1 $208 $451 $456 $462 forward $203 $-1 #
vertex $-1 $327 $463 #
vertex $-1 $209 $464 #
straight-curve $-1 -20.291575443277562 34.279752219794318 13.619644089532159 1 0 0 I I #
coedge $-1 $333 $333 $-1 $465 reversed $212 $-1 #
edge $-1 $466 0 $466 6.2831853071796004 $213 $467 forward 7 unknown #
vertex $-1 $216 $468 #
ellipse-curve $-1 -47.381739955940695 35.687983285243405 11.880623504308316 0 0.77714596973225614 0.62932038083071107 1 0 0 1 I I #
coedge $-1 $337 $337 $-1 $469 reversed $219 $-1 #
edge $-1 $470 0 $470 6.2831853071796004 $220 $471 forward 7 unknown #
vertex $-1 $223 $472 #
ellipse-curve $-1 -40.583150886555124 35.687983285243405 11.880623504308316 0 0.77714596973225614 0.62932038083071107 1 0 0 1 I I #
coedge $-1 $341 $341 $-1 $473 reversed $226 $-1 #
edge $-1 $474 0 $474 6.2831853071796004 $227 $475 forward 7 unknown #
vertex $-1 $230 $476 #
ellipse-curve $-1 -33.784561817169553 35.687983285243405 11.880623504308316 0 0.77714596973225614 0.62932038083071107 1 0 0 1 I I #
face $-1 $-1 $477 $48 $-1 $478 reversed single #
loop $-1 $-1 $237 $231 #
plane-surface $-1 0 0 13.619644089532159 0 0 1 1 0 0 forward_v I I I I #
coedge $-1 $479 $480 $481 $482 reversed $232 $-1 #
coedge $-1 $483 $234 $236 $355 forward $146 $-1 #
coedge $-1 $234 $483 $479 $484 forward $146 $-1 #
coedge $-1 $481 $237 $234 $352 forward $346 $-1 #
edge $-1 $358 -1.3125625269519343 $485 21.349401037666638 $351 $486 forward 7 unknown #
coedge $-1 $487 $488 $235 $354 forward $477 $-1 #
edge $-1 $489 -67.386539900643442 $357 -63.908498730195802 $353 $490 forward 7 unknown #
edge $-1 $358 69.717026002396494 $489 74.192428701384827 $236 $491 forward 7 unknown #
coedge $-1 $237 $481 $487 $492 forward $346 $-1 #
vertex $-1 $238 $493 #
vertex $-1 $238 $494 #
straight-curve $-1 8.7058567284054167 49.079005347637832 13.619644089532159 0 -1 0 I I #
coedge $-1 $360 $360 $-1 $495 reversed $241 $-1 #
edge $-1 $496 0 $496 6.2831853071796004 $242 $497 forward 7 unknown #
vertex $-1 $245 $498 #
ellipse-curve $-1 13.238249441329131 35.687983285243405 11.880623504308316 0 0.77714596973225614 0.62932038083071107 1 0 0 1 I I #
coedge $-1 $364 $364 $-1 $499 reversed $248 $-1 #
edge $-1 $500 0 $500 6.2831853071796004 $249 $501 forward 7 unknown #
vertex $-1 $252 $502 #
ellipse-curve $-1 20.036838510714702 35.687983285243405 11.880623504308316 0 0.77714596973225614 0.62932038083071107 1 0 0 1 I I #
coedge $-1 $368 $368 $-1 $503 reversed $255 $-1 #
edge $-1 $504 0 $504 6.2831853071796004 $256 $505 forward 7 unknown #
vertex $-1 $259 $506 #
ellipse-curve $-1 26.835427580100273 35.687983285243405 11.880623504308316 0 0.77714596973225614 0.62932038083071107 1 0 0 1 I I #
face $-1 $-1 $275 $39 $-1 $507 reversed single #
loop $-1 $-1 $388 $260 #
plane-surface $-1 0 37.096214350692442 0 0 -1 0 0 0 -1 forward_v I I I I #
coedge $-1 $508 $386 $389 $509 forward $261 $-1 #
coedge $-1 $392 $263 $264 $380 reversed $165 $-1 #
coedge $-1 $386 $508 $263 $378 reversed $261 $-1 #
edge $-1 $393 -13.619644089532159 $510 13.619644089532159 $377 $511 forward 7 unknown #
coedge $-1 $265 $264 $508 $512 forward $105 $-1 #
edge $-1 $384 -69.325846125675227 $510 69.325846125675227 $376 $513 forward 7 unknown #
coedge $-1 $389 $388 $265 $382 reversed $373 $-1 #
edge $-1 $514 -69.325846125675227 $383 69.325846125675227 $381 $515 forward 7 unknown #
vertex $-1 $267 $516 #
vertex $-1 $395 $517 #
straight-curve $-1 69.325846125675227 0 -13.619644089532159 0 -1 0 I I #
coedge $-1 $375 $377 $268 $387 reversed $261 $-1 #
edge $-1 $390 -37.096214350692442 $393 37.096214350692442 $386 $518 forward 7 unknown #
coedge $-1 $381 $269 $274 $396 forward $373 $-1 #
coedge $-1 $269 $381 $375 $509 reversed $373 $-1 #
vertex $-1 $270 $519 #
straight-curve $-1 0 37.096214350692442 13.619644089532159 -1 0 0 I I #
coedge $-1 $271 $376 $273 $395 reversed $165 $-1 #
vertex $-1 $387 $520 #
straight-curve $-1 0 -37.096214350692442 13.619644089532159 1 0 0 I I #
edge $-1 $276 -13.619644089532159 $384 13.619644089532159 $273 $521 forward 7 unknown #
edge $-1 $277 -13.619644089532159 $383 13.619644089532159 $274 $522 forward 7 unknown #
point $-1 69.325846125675227 -37.096214350692442 13.619644089532159 #
point $-1 69.325846125675227 37.096214350692442 13.619644089532159 #
face $-1 $-1 $414 $40 $-1 $523 reversed single #
loop $-1 $-1 $285 $279 #
plane-surface $-1 0 0 13.619644089532159 0 0 1 1 0 0 forward_v I I I I #
coedge $-1 $524 $525 $287 $412 forward $280 $-1 #
coedge $-1 $282 $417 $407 $526 reversed $173 $-1 #
edge $-1 $410 -7.6201133491375028 $292 -4.3789481316518053 $282 $527 forward 7 unknown #
coedge $-1 $528 $288 $283 $406 forward $414 $-1 #
edge $-1 $293 4.3789481316518053 $409 7.6201133491375028 $405 $529 forward 7 unknown #
coedge $-1 $530 $285 $403 $526 forward $400 $-1 #
coedge $-1 $285 $530 $528 $531 forward $400 $-1 #
vertex $-1 $406 $532 #
vertex $-1 $526 $533 #
straight-curve $-1 -51.914132668864411 0 13.619644089532159 0 1 0 I I #
edge $-1 $418 -37.096214350692442 $415 37.096214350692442 $402 $534 forward 7 unknown #
coedge $-1 $288 $528 $524 $535 forward $414 $-1 #
loop $-1 $-1 $405 $399 #
vertex $-1 $412 $536 #
straight-curve $-1 -30.30999469863491 -37.096214350692442 10.378478872046459 1 0 0 I I #
coedge $-1 $403 $290 $525 $537 reversed $173 $-1 #
vertex $-1 $412 $538 #
straight-curve $-1 -30.30999469863491 37.096214350692442 10.378478872046459 -1 0 0 I I #
point $-1 -51.914132668864411 37.096214350692442 10.378478872046459 #
point $-1 -51.914132668864411 -37.096214350692442 10.378478872046459 #
loop $-1 $-1 $303 $295 #
plane-surface $-1 0 -37.096214350692442 0 0 1 0 0 0 1 forward_v I I I I #
coedge $-1 $425 $298 $539 $540 reversed $181 $-1 #
coedge $-1 $298 $424 $428 $541 reversed $181 $-1 #
edge $-1 $542 2.9524203284164893e-014 $429 15.062477188474809 $298 $543 forward 7 unknown #
coedge $-1 $300 $299 $432 $544 reversed $113 $-1 #
coedge $-1 $306 $301 $425 $541 forward $296 $-1 #
vertex $-1 $541 $545 #
straight-curve $-1 -22.885181163537808 -26.26117513603241 13.619644089532159 -1 0 0 I I #
coedge $-1 $539 $303 $306 $436 reversed $422 $-1 #
coedge $-1 $303 $539 $427 $544 forward $422 $-1 #
vertex $-1 $304 $546 #
straight-curve $-1 -39.626591985286822 -37.096214350692442 51.447023817909866 0 0 1 I I #
straight-curve $-1 -39.626591985286822 -37.096214350692463 3.156368107789973 0 -0.71933979245794832 -0.69465837861970381 I I #
edge $-1 $547 -51.914132668864411 $307 -39.626591985286822 $431 $548 forward 7 unknown #
point $-1 -39.626591985286822 -37.096214350692442 13.619644089532159 #
point $-1 -39.626591985286822 -26.261175136032413 13.619644089532159 #
edge $-1 $549 1 $549 0 $310 $-1 forward 7 unknown #
vertex $-1 $311 $550 #
ellipse-curve $-1 -48.403406759270808 -29.246362221185393 5.8692520959120191 0 -0.69465837861970381 0.71933979245794832 1 0 0 1 I I #
point $-1 -47.403406759270808 -31.678694743362414 8.3880060986610587 #
edge $-1 $551 1 $551 0 $314 $-1 forward 7 unknown #
vertex $-1 $315 $552 #
ellipse-curve $-1 -43.137317894880418 -29.246362221185393 5.8692520959120191 0 -0.69465837861970381 0.71933979245794832 1 0 0 1 I I #
point $-1 -42.137317894880418 -31.678694743362414 8.3880060986610587 #
loop $-1 $-1 $326 $318 #
plane-surface $-1 -51.914132668864411 0 11.999061480789308 -1 0 0 0 0 1 forward_v I I I I #
coedge $-1 $454 $553 $322 $450 forward $319 $-1 #
edge $-1 $452 63.908498730195802 $460 67.386539900643442 $449 $554 forward 7 unknown #
coedge $-1 $329 $323 $553 $555 forward $203 $-1 #
vertex $-1 $555 $556 #
straight-curve $-1 -29.252169104245837 49.079005347637832 13.619644089532159 0 1 0 I I #
coedge $-1 $557 $449 $325 $455 forward $319 $-1 #
edge $-1 $460 8.960593660968275 $458 31.622557225586849 $454 $558 forward 7 unknown #
coedge $-1 $457 $326 $329 $462 reversed $447 $-1 #
coedge $-1 $326 $456 $557 $559 reversed $447 $-1 #
vertex $-1 $559 $560 #
straight-curve $-1 -51.914132668864411 5.9507242648217478 48.603081099117361 0 -0.62932038083071107 0.77714596973225614 I I #
vertex $-1 $455 $561 #
straight-curve $-1 -29.252169104245837 -9.5945931344184316 67.799949869013503 0 -0.62932038083071107 0.77714596973225614 I I #
edge $-1 $562 -37.096214350692442 $330 -34.279752219794318 $329 $563 forward 7 unknown #
point $-1 -51.914132668864411 34.279752219794318 13.619644089532166 #
point $-1 -29.252169104245837 34.279752219794318 13.619644089532166 #
edge $-1 $564 1 $564 0 $333 $-1 forward 7 unknown #
vertex $-1 $334 $565 #
ellipse-curve $-1 -47.381739955940695 34.555006113878584 10.963156705630258 0 0.77714596973225614 0.62932038083071107 1 0 0 1 I I #
point $-1 -46.381739955940695 35.687983285243369 11.880623504308289 #
edge $-1 $566 1 $566 0 $337 $-1 forward 7 unknown #
vertex $-1 $338 $567 #
ellipse-curve $-1 -40.583150886555124 34.555006113878584 10.963156705630258 0 0.77714596973225614 0.62932038083071107 1 0 0 1 I I #
point $-1 -39.583150886555124 35.687983285243369 11.880623504308289 #
edge $-1 $568 1 $568 0 $341 $-1 forward 7 unknown #
vertex $-1 $342 $569 #
ellipse-curve $-1 -33.784561817169553 34.555006113878584 10.963156705630258 0 0.77714596973225614 0.62932038083071107 1 0 0 1 I I #
point $-1 -32.784561817169553 35.687983285243369 11.880623504308289 #
loop $-1 $-1 $353 $345 #
plane-surface $-1 0 37.096214350692442 0 0 -1 0 0 0 -1 forward_v I I I I #
coedge $-1 $480 $348 $350 $484 reversed $232 $-1 #
coedge $-1 $348 $479 $570 $571 reversed $232 $-1 #
coedge $-1 $356 $351 $348 $482 forward $346 $-1 #
edge $-1 $485 -14.799253127843514 $572 -11.98279099694539 $481 $573 forward 7 unknown #
coedge $-1 $350 $349 $488 $574 reversed $146 $-1 #
edge $-1 $575 -74.192428701384827 $485 -69.717026002396494 $479 $576 forward 7 unknown #
vertex $-1 $352 $577 #
straight-curve $-1 10.018419255357351 34.279752219794318 13.619644089532159 1 0 0 I I #
coedge $-1 $570 $353 $356 $492 reversed $477 $-1 #
coedge $-1 $353 $570 $483 $574 forward $477 $-1 #
vertex $-1 $354 $578 #
straight-curve $-1 8.7058567284054167 37.096214350692442 77.528142819727961 0 0 1 I I #
straight-curve $-1 8.7058567284054167 -9.5945931344184316 67.799949869013503 0 0.62932038083071107 -0.77714596973225614 I I #
edge $-1 $572 -31.367820293023989 $357 -8.7058567284054167 $487 $579 forward 7 unknown #
point $-1 8.7058567284054167 37.096214350692442 13.619644089532159 #
point $-1 8.7058567284054167 34.279752219794318 13.619644089532166 #
edge $-1 $580 1 $580 0 $360 $-1 forward 7 unknown #
vertex $-1 $361 $581 #
ellipse-curve $-1 13.238249441329131 34.555006113878584 10.963156705630258 0 0.77714596973225614 0.62932038083071107 1 0 0 1 I I #
point $-1 14.238249441329131 35.687983285243369 11.880623504308289 #
edge $-1 $582 1 $582 0 $364 $-1 forward 7 unknown #
vertex $-1 $365 $583 #
ellipse-curve $-1 20.036838510714702 34.555006113878584 10.963156705630258 0 0.77714596973225614 0.62932038083071107 1 0 0 1 I I #
point $-1 21.036838510714702 35.687983285243369 11.880623504308289 #
edge $-1 $584 1 $584 0 $368 $-1 forward 7 unknown #
vertex $-1 $369 $585 #
ellipse-curve $-1 26.835427580100273 34.555006113878584 10.963156705630258 0 0.77714596973225614 0.62932038083071107 1 0 0 1 I I #
point $-1 27.835427580100273 35.687983285243369 11.880623504308289 #
plane-surface $-1 69.325846125675227 0 0 -1 0 0 0 0 1 forward_v I I I I #
coedge $-1 $377 $375 $379 $512 reversed $261 $-1 #
edge $-1 $390 -13.619644089532159 $514 13.619644089532159 $389 $586 forward 7 unknown #
vertex $-1 $512 $587 #
straight-curve $-1 -69.325846125675227 -37.096214350692442 0 0 0 -1 I I #
edge $-1 $510 -37.096214350692442 $514 37.096214350692442 $508 $588 forward 7 unknown #
straight-curve $-1 0 -37.096214350692442 -13.619644089532159 -1 0 0 I I #
vertex $-1 $382 $589 #
straight-curve $-1 0 37.096214350692442 -13.619644089532159 1 0 0 I I #
point $-1 69.325846125675227 37.096214350692442 -13.619644089532159 #
point $-1 69.325846125675227 -37.096214350692442 -13.619644089532159 #
straight-curve $-1 -69.325846125675227 0 13.619644089532159 0 -1 0 I I #
point $-1 -69.325846125675227 37.096214350692442 13.619644089532159 #
point $-1 -69.325846125675227 -37.096214350692442 13.619644089532159 #
straight-curve $-1 69.325846125675227 -37.096214350692442 0 0 0 -1 I I #
straight-curve $-1 69.325846125675227 37.096214350692442 0 0 0 -1 I I #
plane-surface $-1 0 -37.096214350692442 0 0 1 0 0 0 1 forward_v I I I I #
coedge $-1 $590 $402 $413 $535 reversed $280 $-1 #
coedge $-1 $402 $590 $417 $537 forward $280 $-1 #
edge $-1 $410 51.914132668864411 $591 69.325846125675227 $403 $592 forward 7 unknown #
straight-curve $-1 -51.914132668864411 37.096214350692442 5.9995307403946541 0 0 -1 I I #
coedge $-1 $413 $405 $408 $531 reversed $414 $-1 #
straight-curve $-1 -51.914132668864411 -37.096214350692442 5.9995307403946541 0 0 1 I I #
coedge $-1 $408 $407 $590 $593 forward $400 $-1 #
edge $-1 $594 -69.325846125675227 $409 -51.914132668864411 $528 $595 forward 7 unknown #
point $-1 -51.914132668864411 -37.096214350692442 13.619644089532157 #
point $-1 -51.914132668864411 37.096214350692442 13.619644089532157 #
straight-curve $-1 -69.325846125675227 0 10.378478872046459 0 -1 0 I I #
edge $-1 $594 -13.619644089532159 $415 -10.378478872046459 $524 $596 forward 7 unknown #
point $-1 -69.325846125675227 -37.096214350692442 10.378478872046459 #
edge $-1 $591 -13.619644089532159 $418 -10.378478872046459 $417 $597 forward 7 unknown #
point $-1 -69.325846125675227 37.096214350692442 10.378478872046459 #
coedge $-1 $432 $431 $424 $540 forward $422 $-1 #
edge $-1 $547 37.827379728377707 $542 48.290655710119871 $539 $598 forward 7 unknown #
edge $-1 $429 26.261175136032413 $547 37.096214350692442 $428 $599 forward 7 unknown #
vertex $-1 $540 $600 #
straight-curve $-1 -51.914132668864411 -37.096214350692463 3.156368107789973 0 0.71933979245794832 0.69465837861970381 I I #
edge $-1 $542 -29.028951505326603 $433 -16.741410821749014 $432 $601 forward 7 unknown #
point $-1 -51.914132668864411 -26.261175136032413 13.619644089532159 #
point $-1 -39.626591985286822 -37.096214350692442 3.1563681077899934 #
vertex $-1 $436 $602 #
straight-curve $-1 0 -37.096214350692442 13.619644089532159 1 0 0 I I #
vertex $-1 $439 $603 #
point $-1 -47.403406759270808 -29.246362221185393 5.8692520959120191 #
vertex $-1 $443 $604 #
point $-1 -42.137317894880418 -29.246362221185393 5.8692520959120191 #
coedge $-1 $449 $557 $451 $555 reversed $319 $-1 #
straight-curve $-1 -29.252169104245837 37.096214350692442 77.528142819727961 0 0 -1 I I #
edge $-1 $452 29.252169104245837 $562 51.914132668864411 $553 $605 forward 7 unknown #
point $-1 -29.252169104245837 37.096214350692442 13.619644089532159 #
coedge $-1 $553 $454 $457 $559 forward $319 $-1 #
straight-curve $-1 -20.291575443277562 37.096214350692442 10.141602919084526 -1 0 0 I I #
edge $-1 $458 -67.386539900643442 $562 -63.908498730195802 $557 $606 forward 7 unknown #
point $-1 -51.914132668864411 37.096214350692449 10.141602919084519 #
point $-1 -29.252169104245837 37.096214350692449 10.141602919084519 #
vertex $-1 $462 $607 #
straight-curve $-1 -51.914132668864411 0 13.619644089532159 0 -1 0 I I #
vertex $-1 $465 $608 #
point $-1 -46.381739955940695 34.555006113878584 10.963156705630258 #
vertex $-1 $469 $609 #
point $-1 -39.583150886555124 34.555006113878584 10.963156705630258 #
vertex $-1 $473 $610 #
point $-1 -32.784561817169553 34.555006113878584 10.963156705630258 #
coedge $-1 $488 $487 $480 $571 forward $477 $-1 #
edge $-1 $572 63.908498730195802 $575 67.386539900643442 $570 $611 forward 7 unknown #
vertex $-1 $492 $612 #
straight-curve $-1 31.367820293023989 49.079005347637832 13.619644089532159 0 1 0 I I #
edge $-1 $575 -21.349401037666638 $489 1.3125625269519343 $488 $613 forward 7 unknown #
vertex $-1 $574 $614 #
straight-curve $-1 31.367820293023989 -9.5945931344184316 67.799949869013503 0 -0.62932038083071107 0.77714596973225614 I I #
point $-1 31.367820293023989 34.279752219794318 13.619644089532166 #
point $-1 8.7058567284054167 37.096214350692449 10.141602919084519 #
straight-curve $-1 0 37.096214350692442 13.619644089532159 -1 0 0 I I #
vertex $-1 $495 $615 #
point $-1 14.238249441329131 34.555006113878584 10.963156705630258 #
vertex $-1 $499 $616 #
point $-1 21.036838510714702 34.555006113878584 10.963156705630258 #
vertex $-1 $503 $617 #
point $-1 27.835427580100273 34.555006113878584 10.963156705630258 #
straight-curve $-1 -69.325846125675227 37.096214350692442 0 0 0 -1 I I #
point $-1 -69.325846125675227 -37.096214350692442 -13.619644089532159 #
straight-curve $-1 -69.325846125675227 0 -13.619644089532159 0 1 0 I I #
point $-1 -69.325846125675227 37.096214350692442 -13.619644089532159 #
coedge $-1 $525 $524 $530 $593 reversed $280 $-1 #
vertex $-1 $526 $618 #
straight-curve $-1 0 37.096214350692442 13.619644089532159 -1 0 0 I I #
edge $-1 $591 -37.096214350692442 $594 37.096214350692442 $590 $619 forward 7 unknown #
vertex $-1 $593 $620 #
straight-curve $-1 0 -37.096214350692442 13.619644089532159 1 0 0 I I #
straight-curve $-1 -69.325846125675227 -37.096214350692442 0 0 0 -1 I I #
straight-curve $-1 -69.325846125675227 37.096214350692442 0 0 0 -1 I I #
straight-curve $-1 -51.914132668864411 -37.096214350692442 51.447023817909866 0 0 -1 I I #
straight-curve $-1 -51.914132668864411 0 13.619644089532159 0 -1 0 I I #
point $-1 -51.914132668864411 -37.096214350692442 3.1563681077899934 #
straight-curve $-1 -22.885181163537808 -37.096214350692442 3.1563681077899925 1 0 0 I I #
point $-1 -51.914132668864411 -37.096214350692442 13.619644089532157 #
point $-1 -48.403406759270808 -28.551703842565686 5.1499123034540712 #
point $-1 -43.137317894880418 -28.551703842565686 5.1499123034540712 #
straight-curve $-1 0 37.096214350692442 13.619644089532159 -1 0 0 I I #
straight-curve $-1 -51.914132668864411 37.096214350692442 77.528142819727961 0 0 1 I I #
point $-1 -51.914132668864411 37.096214350692442 13.619644089532157 #
point $-1 -47.381739955940695 33.777860144146324 10.333836324799545 #
point $-1 -40.583150886555124 33.777860144146324 10.333836324799545 #
point $-1 -33.784561817169553 33.777860144146324 10.333836324799545 #
straight-curve $-1 31.367820293023989 37.096214350692442 77.528142819727961 0 0 -1 I I #
point $-1 31.367820293023989 37.096214350692442 13.619644089532159 #
straight-curve $-1 10.018419255357351 37.096214350692442 10.141602919084526 -1 0 0 I I #
point $-1 31.367820293023989 37.096214350692449 10.141602919084519 #
point $-1 13.238249441329131 33.777860144146324 10.333836324799545 #
point $-1 20.036838510714702 33.777860144146324 10.333836324799545 #
point $-1 26.835427580100273 33.777860144146324 10.333836324799545 #
point $-1 -69.325846125675227 37.096214350692442 13.619644089532159 #
straight-curve $-1 -69.325846125675227 0 13.619644089532159 0 -1 0 I I #
point $-1 -69.325846125675227 -37.096214350692442 13.619644089532159 #
End-of-ACIS-data 