500 0 8 0           
7 Unknown 11 ACIS 5.0 NT 24 Thu Mar 25 18:02:57 1999 
-1 9.9999999999999995e-007 1e-010 
body $-1 $8 $-1 $9 #
body $-1 $10 $-1 $11 #
body $-1 $12 $-1 $13 #
body $-1 $14 $-1 $15 #
body $-1 $16 $-1 $17 #
body $-1 $18 $-1 $19 #
body $-1 $20 $-1 $21 #
body $-1 $22 $-1 $23 #
lump $-1 $-1 $24 $0 #
transform $-1 1 0 0 0 1 0 0 0 1 56.478774376659445 28.881446072429753 7.464646706833105 1 rotate no_reflect no_shear #
lump $-1 $-1 $25 $1 #
transform $-1 1 0 0 0 1 0 0 0 1 56.478774376659445 28.881446072429753 7.464646706833105 1 rotate no_reflect no_shear #
lump $-1 $-1 $26 $2 #
transform $-1 1 0 0 0 1 0 0 0 1 56.478774376659445 28.881446072429753 7.464646706833105 1 rotate no_reflect no_shear #
lump $-1 $-1 $27 $3 #
transform $-1 1 0 0 0 1 0 0 0 1 56.478774376659445 28.881446072429753 7.464646706833105 1 rotate no_reflect no_shear #
lump $-1 $-1 $28 $4 #
transform $-1 1 0 0 0 1 0 0 0 1 56.478774376659445 28.881446072429753 7.464646706833105 1 rotate no_reflect no_shear #
lump $-1 $-1 $29 $5 #
transform $-1 1 0 0 0 1 0 0 0 1 56.478774376659445 28.881446072429753 7.464646706833105 1 rotate no_reflect no_shear #
lump $-1 $-1 $30 $6 #
transform $-1 1 0 0 0 1 0 0 0 1 56.478774376659445 28.881446072429753 7.464646706833105 1 rotate no_reflect no_shear #
lump $-1 $-1 $31 $7 #
transform $-1 1 0 0 0 1 0 0 0 1 56.478774376659445 28.881446072429753 7.464646706833105 1 rotate no_reflect no_shear #
shell $-1 $-1 $-1 $32 $-1 $8 #
shell $-1 $-1 $-1 $33 $-1 $10 #
shell $-1 $-1 $-1 $34 $-1 $12 #
shell $-1 $-1 $-1 $35 $-1 $14 #
shell $-1 $-1 $-1 $36 $-1 $16 #
shell $-1 $-1 $-1 $37 $-1 $18 #
shell $-1 $-1 $-1 $38 $-1 $20 #
shell $-1 $-1 $-1 $39 $-1 $22 #
face $-1 $40 $41 $24 $-1 $42 forward single #
face $-1 $43 $44 $25 $-1 $45 forward single #
face $-1 $46 $47 $26 $-1 $48 forward single #
face $-1 $49 $50 $27 $-1 $51 reversed single #
face $-1 $52 $53 $28 $-1 $54 forward single #
face $-1 $55 $56 $29 $-1 $57 forward single #
face $-1 $58 $59 $30 $-1 $60 reversed single #
face $-1 $61 $62 $31 $-1 $63 forward single #
face $-1 $64 $65 $24 $-1 $66 reversed single #
loop $-1 $-1 $67 $32 #
plane-surface $-1 0 0 7.464646706833105 0 0 1 1 0 0 forward_v I I I I #
face $-1 $68 $69 $25 $-1 $70 reversed single #
loop $-1 $-1 $71 $33 #
plane-surface $-1 -56.478774376659445 0 0 1 0 0 0 0 -1 forward_v I I I I #
face $-1 $72 $73 $26 $-1 $74 reversed single #
loop $-1 $-1 $75 $34 #
plane-surface $-1 56.478774376659445 0 0 -1 0 0 0 0 1 forward_v I I I I #
face $-1 $76 $77 $27 $-1 $78 reversed single #
loop $-1 $-1 $79 $35 #
plane-surface $-1 27.53044128415128 -99.967935708620459 91.688325864334317 -1 0 0 0 -0.62932039886446345 0.77714595512881146 forward_v I I I I #
face $-1 $80 $81 $28 $-1 $82 forward single #
loop $-1 $83 $84 $36 #
cone-surface $-1 12.124329399056023 -26.029253171554931 4.8771461360540167 0 0.62932039886446345 -0.77714595512881146 1 0 0 1 I I 0 1 1 forward I I I I #
face $-1 $85 $86 $29 $-1 $87 forward single #
loop $-1 $88 $89 $37 #
cone-surface $-1 21.367996530113174 -26.029253171554931 4.8771461360540167 0 0.62932039886446345 -0.77714595512881146 1 0 0 1 I I 0 1 1 forward I I I I #
face $-1 $90 $91 $30 $-1 $92 reversed single #
loop $-1 $-1 $93 $38 #
plane-surface $-1 11.652049361656132 82.330823336792818 115.70955257157578 1 0 0 0 -0.78801076186113728 -0.61566146476048833 forward_v I I I I #
face $-1 $94 $95 $31 $-1 $96 forward single #
loop $-1 $97 $98 $39 #
cone-surface $-1 21.571258469904393 24.643365390034429 2.8256685843306544 0 -0.78801076186113728 -0.61566146476048833 1.5 0 0 1 I I 0 1 1.5 forward I I I I #
face $-1 $99 $100 $24 $-1 $101 reversed single #
loop $-1 $-1 $102 $40 #
plane-surface $-1 0 0 -7.464646706833105 0 0 1 1 0 0 forward_v I I I I #
coedge $-1 $103 $104 $105 $106 forward $41 $-1 #
face $-1 $107 $108 $25 $-1 $109 forward single #
loop $-1 $-1 $110 $43 #
plane-surface $-1 0 28.881446072429753 0 0 -1 0 0 0 -1 forward_v I I I I #
coedge $-1 $111 $112 $113 $114 forward $44 $-1 #
face $-1 $115 $116 $26 $-1 $117 forward single #
loop $-1 $-1 $118 $46 #
plane-surface $-1 0 -28.881446072429753 0 0 1 0 0 0 1 forward_v I I I I #
coedge $-1 $119 $120 $121 $122 forward $47 $-1 #
face $-1 $123 $124 $27 $-1 $125 reversed single #
loop $-1 $-1 $126 $49 #
plane-surface $-1 16.746162964584599 -28.881446072429739 3.9038237494270192 0 -0.62932039886446345 0.77714595512881146 1 0 0 forward_v I I I I #
coedge $-1 $127 $128 $129 $130 reversed $50 $-1 #
face $-1 $-1 $131 $28 $-1 $132 forward single #
loop $-1 $133 $134 $52 #
cone-surface $-1 12.124329399056023 -25.061025098556055 3.6814840664135629 0 0.62932039886446345 -0.77714595512881146 0.5 0 0 1 I I -0.70710678118654746 0.70710678118654746 0.5 forward I I I I #
loop $-1 $-1 $135 $36 #
coedge $-1 $84 $84 $136 $137 reversed $53 $-1 #
face $-1 $-1 $138 $29 $-1 $139 forward single #
loop $-1 $140 $141 $55 #
cone-surface $-1 21.367996530113174 -25.061025098556055 3.6814840664135629 0 0.62932039886446345 -0.77714595512881146 0.5 0 0 1 I I -0.70710678118654746 0.70710678118654746 0.5 forward I I I I #
loop $-1 $-1 $142 $37 #
coedge $-1 $89 $89 $143 $144 reversed $56 $-1 #
face $-1 $145 $146 $30 $-1 $147 reversed single #
loop $-1 $-1 $148 $58 #
plane-surface $-1 21.571258469904379 -6.6809407142765593 46.165942650353202 0 0.78801076186113728 0.61566146476048833 1 0 0 forward_v I I I I #
coedge $-1 $149 $150 $151 $152 reversed $59 $-1 #
face $-1 $-1 $153 $31 $-1 $154 forward single #
loop $-1 $155 $156 $61 #
cone-surface $-1 21.571258469904393 22.477087323475772 1.1331867146845083 0 -0.78801076186113728 -0.61566146476048833 0.75 0 0 1 I I -0.70710678118654757 0.70710678118654757 0.75 forward I I I I #
loop $-1 $-1 $157 $39 #
coedge $-1 $98 $98 $158 $159 reversed $62 $-1 #
face $-1 $160 $161 $24 $-1 $162 reversed single #
loop $-1 $-1 $163 $64 #
plane-surface $-1 0 -28.881446072429753 0 0 1 0 0 0 1 forward_v I I I I #
coedge $-1 $164 $165 $166 $167 forward $65 $-1 #
coedge $-1 $168 $67 $169 $170 forward $41 $-1 #
coedge $-1 $67 $168 $171 $172 forward $41 $-1 #
coedge $-1 $173 $174 $67 $106 reversed $175 $-1 #
edge $-1 $176 -28.881446072429753 $177 28.881446072429753 $105 $178 forward 7 unknown #
face $-1 $179 $180 $25 $-1 $181 reversed single #
loop $-1 $-1 $113 $68 #
plane-surface $-1 -60.026765356565022 0 6.964646706833105 0 0 1 1 0 0 forward_v I I I I #
coedge $-1 $182 $183 $112 $184 forward $69 $-1 #
coedge $-1 $185 $71 $186 $187 reversed $44 $-1 #
coedge $-1 $71 $185 $110 $184 reversed $44 $-1 #
coedge $-1 $188 $189 $71 $114 reversed $108 $-1 #
edge $-1 $190 -28.881446072429753 $191 28.881446072429753 $113 $192 forward 7 unknown #
face $-1 $193 $194 $26 $-1 $195 reversed single #
loop $-1 $-1 $196 $72 #
plane-surface $-1 60.026765356565022 0 6.964646706833105 0 0 1 1 0 0 forward_v I I I I #
coedge $-1 $197 $198 $120 $199 forward $73 $-1 #
coedge $-1 $200 $75 $201 $202 reversed $47 $-1 #
coedge $-1 $75 $200 $118 $199 reversed $47 $-1 #
coedge $-1 $203 $204 $75 $122 reversed $116 $-1 #
edge $-1 $205 -28.881446072429753 $206 28.881446072429753 $121 $207 forward 7 unknown #
face $-1 $208 $209 $27 $-1 $210 forward single #
loop $-1 $-1 $211 $76 #
plane-surface $-1 5.9618846450179177 -99.967935708620459 91.688325864334317 1 0 0 0 0.62932039886446345 -0.77714595512881146 forward_v I I I I #
coedge $-1 $212 $213 $214 $215 reversed $77 $-1 #
coedge $-1 $128 $79 $216 $217 reversed $50 $-1 #
coedge $-1 $79 $127 $212 $218 reversed $50 $-1 #
coedge $-1 $214 $219 $79 $130 forward $209 $-1 #
edge $-1 $220 21.102521781880476 $221 25.499771836496851 $129 $222 forward 7 unknown #
loop $-1 $-1 $136 $80 #
plane-surface $-1 16.746162964584599 -28.881446072429739 3.9038237494270192 0 -0.62932039886446345 0.77714595512881146 1 0 0 forward_v I I I I #
loop $-1 $-1 $223 $52 #
coedge $-1 $134 $134 $135 $224 reversed $81 $-1 #
coedge $-1 $135 $135 $134 $224 forward $83 $-1 #
coedge $-1 $136 $136 $84 $137 forward $131 $-1 #
edge $-1 $225 1.1854314377606828e-015 $225 6.2831853071796013 $136 $226 forward 7 unknown #
loop $-1 $-1 $143 $85 #
plane-surface $-1 16.746162964584599 -28.881446072429739 3.9038237494270192 0 -0.62932039886446345 0.77714595512881146 1 0 0 forward_v I I I I #
loop $-1 $-1 $227 $55 #
coedge $-1 $141 $141 $142 $228 reversed $86 $-1 #
coedge $-1 $142 $142 $141 $228 forward $88 $-1 #
coedge $-1 $143 $143 $89 $144 forward $138 $-1 #
edge $-1 $229 1.1854314377606828e-015 $229 6.2831853071796013 $143 $230 forward 7 unknown #
face $-1 $231 $232 $30 $-1 $233 reversed single #
loop $-1 $-1 $234 $90 #
plane-surface $-1 31.490467578152625 82.330823336792818 115.70955257157578 -1 0 0 0 0.78801076186113728 0.61566146476048833 forward_v I I I I #
coedge $-1 $235 $236 $237 $238 reversed $91 $-1 #
coedge $-1 $150 $93 $239 $240 reversed $59 $-1 #
coedge $-1 $93 $149 $235 $241 reversed $59 $-1 #
coedge $-1 $237 $242 $93 $152 forward $243 $-1 #
edge $-1 $244 12.283965595966656 $245 17.6095869704317 $151 $246 forward 7 unknown #
loop $-1 $-1 $158 $94 #
plane-surface $-1 21.571258469904379 -6.6809407142765593 46.165942650353202 0 0.78801076186113728 0.61566146476048833 1 0 0 forward_v I I I I #
loop $-1 $-1 $247 $61 #
coedge $-1 $156 $156 $157 $248 reversed $95 $-1 #
coedge $-1 $157 $157 $156 $248 forward $97 $-1 #
coedge $-1 $158 $158 $98 $159 forward $153 $-1 #
edge $-1 $249 -4.0820513689408468e-016 $249 6.2831853071796004 $158 $250 forward 7 unknown #
face $-1 $251 $252 $24 $-1 $253 reversed single #
loop $-1 $-1 $254 $99 #
plane-surface $-1 -56.478774376659445 0 0 1 0 0 0 0 -1 forward_v I I I I #
coedge $-1 $255 $171 $256 $257 forward $100 $-1 #
coedge $-1 $258 $102 $255 $259 forward $65 $-1 #
coedge $-1 $102 $258 $260 $261 forward $65 $-1 #
coedge $-1 $174 $173 $102 $167 reversed $175 $-1 #
edge $-1 $262 -28.881446072429753 $263 28.881446072429753 $166 $264 forward 7 unknown #
coedge $-1 $104 $103 $265 $266 forward $41 $-1 #
coedge $-1 $267 $268 $103 $170 reversed $252 $-1 #
edge $-1 $177 -56.478774376659445 $269 56.478774376659445 $169 $270 forward 7 unknown #
coedge $-1 $163 $271 $104 $172 reversed $100 $-1 #
edge $-1 $272 -56.478774376659445 $176 56.478774376659445 $171 $273 forward 7 unknown #
coedge $-1 $166 $105 $271 $274 forward $175 $-1 #
coedge $-1 $105 $166 $267 $275 reversed $175 $-1 #
loop $-1 $-1 $173 $251 #
vertex $-1 $106 $276 #
vertex $-1 $106 $277 #
straight-curve $-1 56.478774376659445 0 7.464646706833105 0 1 0 I I #
face $-1 $278 $279 $25 $-1 $280 reversed single #
loop $-1 $-1 $281 $107 #
plane-surface $-1 -60.026765356565022 0 3.964646706833105 0 0 1 1 0 0 forward_v I I I I #
coedge $-1 $282 $110 $283 $284 reversed $69 $-1 #
coedge $-1 $110 $282 $188 $285 reversed $69 $-1 #
edge $-1 $190 -6.964646706833105 $286 -3.964646706833105 $110 $287 forward 7 unknown #
coedge $-1 $112 $111 $281 $288 forward $44 $-1 #
coedge $-1 $289 $290 $111 $187 forward $291 $-1 #
edge $-1 $292 3.964646706833105 $191 6.964646706833105 $186 $293 forward 7 unknown #
coedge $-1 $294 $113 $183 $285 forward $108 $-1 #
coedge $-1 $113 $294 $289 $295 forward $108 $-1 #
vertex $-1 $184 $296 #
vertex $-1 $295 $297 #
straight-curve $-1 -56.478774376659445 0 6.964646706833105 0 -1 0 I I #
face $-1 $298 $299 $26 $-1 $300 reversed single #
loop $-1 $-1 $301 $115 #
plane-surface $-1 60.026765356565022 0 3.964646706833105 0 0 1 1 0 0 forward_v I I I I #
coedge $-1 $204 $203 $302 $303 forward $116 $-1 #
coedge $-1 $304 $118 $305 $306 reversed $73 $-1 #
coedge $-1 $118 $304 $203 $307 reversed $73 $-1 #
edge $-1 $205 -6.964646706833105 $308 -3.964646706833105 $118 $309 forward 7 unknown #
coedge $-1 $120 $119 $310 $311 forward $47 $-1 #
coedge $-1 $312 $313 $119 $202 forward $314 $-1 #
edge $-1 $315 3.964646706833105 $206 6.964646706833105 $201 $316 forward 7 unknown #
coedge $-1 $196 $121 $198 $307 forward $116 $-1 #
coedge $-1 $121 $196 $312 $317 forward $116 $-1 #
vertex $-1 $199 $318 #
vertex $-1 $317 $319 #
straight-curve $-1 56.478774376659445 0 6.964646706833105 0 1 0 I I #
face $-1 $-1 $320 $27 $-1 $321 reversed single #
loop $-1 $-1 $129 $123 #
plane-surface $-1 0 0 7.464646706833105 0 0 1 1 0 0 forward_v I I I I #
coedge $-1 $322 $323 $324 $325 reversed $124 $-1 #
coedge $-1 $326 $126 $128 $218 forward $77 $-1 #
coedge $-1 $126 $326 $322 $327 forward $77 $-1 #
coedge $-1 $324 $129 $126 $215 forward $209 $-1 #
edge $-1 $221 -19.157359801858981 $328 2.4111968372743817 $214 $329 forward 7 unknown #
coedge $-1 $330 $331 $127 $217 forward $320 $-1 #
edge $-1 $332 -41.940339182740153 $220 -38.379516225334051 $216 $333 forward 7 unknown #
edge $-1 $221 -5.6582036174755865 $332 1.8310242626372826e-014 $128 $334 forward 7 unknown #
coedge $-1 $129 $324 $330 $335 forward $209 $-1 #
vertex $-1 $217 $336 #
vertex $-1 $130 $337 #
straight-curve $-1 27.53044128415128 -49.983967854310229 7.4646467068331077 0 1 0 I I #
coedge $-1 $223 $223 $-1 $338 reversed $133 $-1 #
edge $-1 $339 0 $339 6.2831853071796004 $134 $340 forward 7 unknown #
vertex $-1 $137 $341 #
ellipse-curve $-1 12.124329399056023 -26.682821045121567 5.6842352281300546 0 -0.62932039886446345 0.77714595512881146 1 0 0 1 I I #
coedge $-1 $227 $227 $-1 $342 reversed $140 $-1 #
edge $-1 $343 0 $343 6.2831853071796004 $141 $344 forward 7 unknown #
vertex $-1 $144 $345 #
ellipse-curve $-1 21.367996530113174 -26.682821045121567 5.6842352281300546 0 -0.62932039886446345 0.77714595512881146 1 0 0 1 I I #
face $-1 $-1 $243 $30 $-1 $346 forward single #
loop $-1 $-1 $347 $145 #
plane-surface $-1 0 28.881446072429753 0 0 -1 0 0 0 -1 forward_v I I I I #
coedge $-1 $348 $349 $350 $351 reversed $146 $-1 #
coedge $-1 $352 $148 $150 $241 forward $91 $-1 #
coedge $-1 $148 $352 $348 $353 forward $91 $-1 #
coedge $-1 $350 $151 $148 $238 forward $243 $-1 #
edge $-1 $245 0.86642012670394308 $354 20.704838343200436 $237 $355 forward 7 unknown #
coedge $-1 $356 $357 $149 $240 forward $232 $-1 #
edge $-1 $358 -57.206614281808136 $244 -50.390129578954785 $239 $359 forward 7 unknown #
edge $-1 $245 49.11264898478634 $358 57.762892144859514 $150 $360 forward 7 unknown #
coedge $-1 $151 $350 $356 $361 forward $243 $-1 #
loop $-1 $-1 $350 $231 #
vertex $-1 $240 $362 #
vertex $-1 $152 $363 #
straight-curve $-1 11.652049361656132 41.165411668396409 7.4646467068331077 0 -1 0 I I #
coedge $-1 $247 $247 $-1 $364 reversed $155 $-1 #
edge $-1 $365 0 $365 6.2831853071796004 $156 $366 forward 7 unknown #
vertex $-1 $159 $367 #
ellipse-curve $-1 21.571258469904393 26.218635385197228 4.0564043554064302 0 0.78801076186113728 0.61566146476048833 1.5 0 0 1 I I #
face $-1 $-1 $175 $24 $-1 $368 reversed single #
loop $-1 $-1 $267 $160 #
plane-surface $-1 0 28.881446072429753 0 0 -1 0 0 0 -1 forward_v I I I I #
coedge $-1 $369 $265 $268 $370 forward $161 $-1 #
coedge $-1 $271 $163 $164 $259 reversed $100 $-1 #
coedge $-1 $265 $369 $163 $257 reversed $161 $-1 #
edge $-1 $272 -7.464646706833105 $371 7.464646706833105 $256 $372 forward 7 unknown #
coedge $-1 $165 $164 $369 $373 forward $65 $-1 #
edge $-1 $263 -56.478774376659445 $371 56.478774376659445 $255 $374 forward 7 unknown #
coedge $-1 $268 $267 $165 $261 reversed $252 $-1 #
edge $-1 $375 -56.478774376659445 $262 56.478774376659445 $260 $376 forward 7 unknown #
vertex $-1 $167 $377 #
vertex $-1 $274 $378 #
straight-curve $-1 56.478774376659445 0 -7.464646706833105 0 -1 0 I I #
coedge $-1 $254 $256 $168 $266 reversed $161 $-1 #
edge $-1 $269 -28.881446072429753 $272 28.881446072429753 $265 $379 forward 7 unknown #
coedge $-1 $260 $169 $174 $275 forward $252 $-1 #
coedge $-1 $169 $260 $254 $370 reversed $252 $-1 #
vertex $-1 $170 $380 #
straight-curve $-1 0 28.881446072429753 7.464646706833105 -1 0 0 I I #
coedge $-1 $171 $255 $173 $274 reversed $100 $-1 #
vertex $-1 $266 $381 #
straight-curve $-1 0 -28.881446072429753 7.464646706833105 1 0 0 I I #
edge $-1 $176 -7.464646706833105 $263 7.464646706833105 $173 $382 forward 7 unknown #
edge $-1 $177 -7.464646706833105 $262 7.464646706833105 $174 $383 forward 7 unknown #
point $-1 56.478774376659445 -28.881446072429753 7.464646706833105 #
point $-1 56.478774376659445 28.881446072429753 7.464646706833105 #
face $-1 $-1 $291 $25 $-1 $384 reversed single #
loop $-1 $-1 $385 $179 #
plane-surface $-1 -63.5747563364706 0 5.464646706833105 1 0 0 0 0 -1 forward_v I I I I #
coedge $-1 $386 $283 $185 $288 reversed $180 $-1 #
coedge $-1 $183 $182 $385 $387 reversed $69 $-1 #
coedge $-1 $281 $388 $182 $284 forward $180 $-1 #
edge $-1 $389 -3.5479909799055775 $286 3.5479909799055775 $182 $390 forward 7 unknown #
edge $-1 $190 -3.5479909799055775 $391 3.5479909799055775 $183 $392 forward 7 unknown #
vertex $-1 $184 $393 #
straight-curve $-1 -56.478774376659445 28.881446072429753 0 0 0 -1 I I #
edge $-1 $292 -28.881446072429753 $286 28.881446072429753 $281 $394 forward 7 unknown #
coedge $-1 $395 $186 $189 $295 reversed $291 $-1 #
coedge $-1 $186 $395 $386 $396 reversed $291 $-1 #
loop $-1 $-1 $186 $278 #
vertex $-1 $187 $397 #
straight-curve $-1 -56.478774376659445 -28.881446072429753 0 0 0 1 I I #
coedge $-1 $189 $188 $398 $399 forward $108 $-1 #
edge $-1 $400 -3.5479909799055775 $191 3.5479909799055775 $289 $401 forward 7 unknown #
point $-1 -56.478774376659445 28.881446072429753 6.964646706833105 #
point $-1 -56.478774376659445 -28.881446072429753 6.964646706833105 #
face $-1 $-1 $314 $26 $-1 $402 reversed single #
loop $-1 $-1 $403 $193 #
plane-surface $-1 63.5747563364706 0 5.464646706833105 -1 0 0 0 0 1 forward_v I I I I #
coedge $-1 $305 $404 $405 $406 forward $194 $-1 #
coedge $-1 $403 $407 $196 $303 reversed $299 $-1 #
edge $-1 $408 -28.881446072429753 $409 28.881446072429753 $302 $410 forward 7 unknown #
coedge $-1 $198 $197 $403 $411 reversed $73 $-1 #
coedge $-1 $310 $301 $197 $306 forward $194 $-1 #
edge $-1 $412 -3.5479909799055775 $308 3.5479909799055775 $197 $413 forward 7 unknown #
edge $-1 $205 -3.5479909799055775 $408 3.5479909799055775 $198 $414 forward 7 unknown #
vertex $-1 $199 $415 #
straight-curve $-1 56.478774376659445 -28.881446072429753 0 0 0 -1 I I #
coedge $-1 $404 $305 $200 $311 reversed $194 $-1 #
edge $-1 $315 -28.881446072429753 $308 28.881446072429753 $310 $416 forward 7 unknown #
coedge $-1 $417 $201 $204 $317 reversed $314 $-1 #
coedge $-1 $201 $417 $404 $418 reversed $314 $-1 #
loop $-1 $-1 $201 $298 #
vertex $-1 $202 $419 #
straight-curve $-1 56.478774376659445 28.881446072429753 0 0 0 1 I I #
edge $-1 $409 -3.5479909799055775 $206 3.5479909799055775 $312 $420 forward 7 unknown #
point $-1 56.478774376659445 -28.881446072429753 6.964646706833105 #
point $-1 56.478774376659445 28.881446072429753 6.964646706833105 #
loop $-1 $-1 $216 $208 #
plane-surface $-1 0 -28.881446072429753 0 0 1 0 0 0 1 forward_v I I I I #
coedge $-1 $323 $211 $213 $327 reversed $124 $-1 #
coedge $-1 $211 $322 $421 $422 reversed $124 $-1 #
coedge $-1 $219 $214 $211 $325 forward $209 $-1 #
edge $-1 $328 -25.499771836496851 $423 -21.102521781880476 $324 $424 forward 7 unknown #
coedge $-1 $213 $212 $331 $425 reversed $77 $-1 #
edge $-1 $426 -1.8310242626372826e-014 $328 5.6582036174755865 $322 $427 forward 7 unknown #
vertex $-1 $215 $428 #
straight-curve $-1 8.3730814822922994 -24.484196017813378 7.464646706833105 -1 0 0 I I #
coedge $-1 $421 $216 $219 $335 reversed $320 $-1 #
coedge $-1 $216 $421 $326 $425 forward $320 $-1 #
vertex $-1 $217 $429 #
straight-curve $-1 27.53044128415128 -28.881446072429753 45.844162932167158 0 0 1 I I #
straight-curve $-1 27.53044128415128 -28.881446072429739 3.9038237494270192 0 -0.77714595512881146 -0.62932039886446345 I I #
edge $-1 $423 5.9618846450179177 $220 27.53044128415128 $330 $430 forward 7 unknown #
point $-1 27.53044128415128 -28.881446072429753 7.464646706833105 #
point $-1 27.53044128415128 -24.484196017813378 7.464646706833105 #
edge $-1 $431 1 $431 0 $223 $-1 forward 7 unknown #
vertex $-1 $224 $432 #
ellipse-curve $-1 12.124329399056023 -25.375685297988287 4.0700570439779682 0 -0.62932039886446345 0.77714595512881146 1 0 0 1 I I #
point $-1 13.124329399056023 -26.682821045121575 5.6842352281300652 #
edge $-1 $433 1 $433 0 $227 $-1 forward 7 unknown #
vertex $-1 $228 $434 #
ellipse-curve $-1 21.367996530113174 -25.375685297988287 4.0700570439779682 0 -0.62932039886446345 0.77714595512881146 1 0 0 1 I I #
point $-1 22.367996530113174 -26.682821045121575 5.6842352281300652 #
plane-surface $-1 0 0 7.464646706833105 0 0 1 1 0 0 forward_v I I I I #
coedge $-1 $357 $356 $349 $435 forward $232 $-1 #
coedge $-1 $349 $234 $236 $353 reversed $146 $-1 #
coedge $-1 $234 $348 $347 $435 reversed $146 $-1 #
coedge $-1 $242 $237 $234 $351 forward $243 $-1 #
edge $-1 $354 -17.6095869704317 $436 -12.283965595966656 $350 $437 forward 7 unknown #
coedge $-1 $236 $235 $357 $438 reversed $91 $-1 #
edge $-1 $439 -57.762892144859514 $354 -49.11264898478634 $348 $440 forward 7 unknown #
vertex $-1 $238 $441 #
straight-curve $-1 10.785629234952189 23.555824697964717 7.4646467068331042 1 0 0 I I #
coedge $-1 $347 $239 $242 $361 reversed $232 $-1 #
coedge $-1 $239 $347 $352 $438 forward $232 $-1 #
vertex $-1 $240 $442 #
straight-curve $-1 11.652049361656132 28.881446072429753 57.854776285787892 0 0 1 I I #
straight-curve $-1 11.652049361656132 -6.6809407142765593 46.165942650353202 0 0.61566146476048833 -0.78801076186113728 I I #
edge $-1 $436 -31.490467578152625 $244 -11.652049361656132 $356 $443 forward 7 unknown #
point $-1 11.652049361656132 28.881446072429753 7.464646706833105 #
point $-1 11.652049361656132 23.555824697964709 7.4646467068331077 #
edge $-1 $444 1 $444 0 $247 $-1 forward 7 unknown #
vertex $-1 $248 $445 #
ellipse-curve $-1 21.571258469904393 23.068095394871623 1.5949328132548746 0 0.78801076186113728 0.61566146476048833 1.5 0 0 1 I I #
point $-1 23.071258469904393 26.218635385197231 4.0564043554064337 #
plane-surface $-1 56.478774376659445 0 0 -1 0 0 0 0 1 forward_v I I I I #
coedge $-1 $256 $254 $258 $373 reversed $161 $-1 #
edge $-1 $269 -7.464646706833105 $375 7.464646706833105 $268 $446 forward 7 unknown #
vertex $-1 $373 $447 #
straight-curve $-1 -56.478774376659445 -28.881446072429753 0 0 0 -1 I I #
edge $-1 $371 -28.881446072429753 $375 28.881446072429753 $369 $448 forward 7 unknown #
straight-curve $-1 0 -28.881446072429753 -7.464646706833105 -1 0 0 I I #
vertex $-1 $261 $449 #
straight-curve $-1 0 28.881446072429753 -7.464646706833105 1 0 0 I I #
point $-1 56.478774376659445 28.881446072429753 -7.464646706833105 #
point $-1 56.478774376659445 -28.881446072429753 -7.464646706833105 #
straight-curve $-1 -56.478774376659445 0 7.464646706833105 0 -1 0 I I #
point $-1 -56.478774376659445 28.881446072429753 7.464646706833105 #
point $-1 -56.478774376659445 -28.881446072429753 7.464646706833105 #
straight-curve $-1 56.478774376659445 -28.881446072429753 0 0 0 -1 I I #
straight-curve $-1 56.478774376659445 28.881446072429753 0 0 0 -1 I I #
plane-surface $-1 0 -28.881446072429753 0 0 1 0 0 0 1 forward_v I I I I #
coedge $-1 $450 $398 $282 $387 forward $279 $-1 #
coedge $-1 $388 $281 $290 $396 forward $180 $-1 #
edge $-1 $391 -1.5 $389 1.5 $282 $451 forward 7 unknown #
coedge $-1 $283 $386 $450 $452 forward $180 $-1 #
vertex $-1 $284 $453 #
straight-curve $-1 -60.026765356565022 28.881446072429753 3.964646706833105 1 0 0 I I #
vertex $-1 $285 $454 #
straight-curve $-1 -60.026765356565022 28.881446072429753 6.964646706833105 -1 0 0 I I #
point $-1 -56.478774376659445 28.881446072429753 3.964646706833105 #
straight-curve $-1 -56.478774376659445 0 3.964646706833105 0 1 0 I I #
coedge $-1 $290 $289 $455 $456 forward $291 $-1 #
edge $-1 $292 -3.5479909799055775 $457 3.5479909799055775 $290 $458 forward 7 unknown #
point $-1 -56.478774376659445 -28.881446072429753 3.964646706833105 #
coedge $-1 $385 $455 $294 $399 reversed $279 $-1 #
edge $-1 $391 -28.881446072429753 $400 28.881446072429753 $398 $459 forward 7 unknown #
vertex $-1 $399 $460 #
straight-curve $-1 -60.026765356565022 -28.881446072429753 6.964646706833105 1 0 0 I I #
plane-surface $-1 0 28.881446072429753 0 0 -1 0 0 0 -1 forward_v I I I I #
coedge $-1 $405 $302 $304 $411 forward $299 $-1 #
coedge $-1 $301 $310 $313 $418 forward $194 $-1 #
coedge $-1 $407 $403 $301 $406 reversed $299 $-1 #
edge $-1 $461 -28.881446072429753 $412 28.881446072429753 $405 $462 forward 7 unknown #
coedge $-1 $302 $405 $417 $463 reversed $299 $-1 #
vertex $-1 $303 $464 #
vertex $-1 $303 $465 #
straight-curve $-1 63.5747563364706 0 6.964646706833105 0 1 0 I I #
edge $-1 $408 -1.5 $412 1.5 $403 $466 forward 7 unknown #
vertex $-1 $411 $467 #
straight-curve $-1 60.026765356565022 -28.881446072429753 3.964646706833105 -1 0 0 I I #
straight-curve $-1 60.026765356565022 -28.881446072429753 6.964646706833105 1 0 0 I I #
point $-1 56.478774376659445 -28.881446072429753 3.964646706833105 #
straight-curve $-1 56.478774376659445 0 3.964646706833105 0 -1 0 I I #
coedge $-1 $313 $312 $407 $463 forward $314 $-1 #
edge $-1 $315 -3.5479909799055775 $461 3.5479909799055775 $313 $468 forward 7 unknown #
point $-1 56.478774376659445 28.881446072429753 3.964646706833105 #
straight-curve $-1 60.026765356565022 28.881446072429753 6.964646706833105 -1 0 0 I I #
coedge $-1 $331 $330 $323 $422 forward $320 $-1 #
edge $-1 $423 38.379516225334051 $426 41.940339182740153 $421 $469 forward 7 unknown #
vertex $-1 $335 $470 #
straight-curve $-1 5.9618846450179177 -49.983967854310229 7.4646467068331077 0 -1 0 I I #
edge $-1 $426 -2.4111968372743817 $332 19.157359801858981 $331 $471 forward 7 unknown #
vertex $-1 $425 $472 #
straight-curve $-1 5.9618846450179177 -28.881446072429739 3.9038237494270192 0 0.77714595512881146 0.62932039886446345 I I #
point $-1 5.9618846450179177 -24.484196017813378 7.464646706833105 #
point $-1 27.53044128415128 -28.881446072429753 3.9038237494270076 #
straight-curve $-1 0 -28.881446072429753 7.464646706833105 1 0 0 I I #
vertex $-1 $338 $473 #
point $-1 13.124329399056023 -25.375685297988287 4.0700570439779682 #
vertex $-1 $342 $474 #
point $-1 22.367996530113174 -25.375685297988287 4.0700570439779682 #
edge $-1 $436 50.390129578954785 $439 57.206614281808136 $347 $475 forward 7 unknown #
vertex $-1 $361 $476 #
straight-curve $-1 31.490467578152625 41.165411668396409 7.4646467068331077 0 1 0 I I #
edge $-1 $439 -20.704838343200436 $358 -0.86642012670394308 $357 $477 forward 7 unknown #
vertex $-1 $438 $478 #
straight-curve $-1 31.490467578152625 -6.6809407142765593 46.165942650353202 0 -0.61566146476048833 0.78801076186113728 I I #
point $-1 31.490467578152625 23.555824697964709 7.4646467068331077 #
point $-1 11.652049361656132 28.881446072429753 0.64816200397975621 #
straight-curve $-1 0 28.881446072429753 7.464646706833105 -1 0 0 I I #
vertex $-1 $364 $479 #
point $-1 23.071258469904393 23.068095394871623 1.5949328132548746 #
straight-curve $-1 -56.478774376659445 28.881446072429753 0 0 0 -1 I I #
point $-1 -56.478774376659445 -28.881446072429753 -7.464646706833105 #
straight-curve $-1 -56.478774376659445 0 -7.464646706833105 0 1 0 I I #
point $-1 -56.478774376659445 28.881446072429753 -7.464646706833105 #
coedge $-1 $455 $385 $388 $452 reversed $279 $-1 #
straight-curve $-1 -63.5747563364706 28.881446072429753 5.464646706833105 0 0 -1 I I #
edge $-1 $457 -28.881446072429753 $389 28.881446072429753 $450 $480 forward 7 unknown #
point $-1 -63.5747563364706 28.881446072429753 3.964646706833105 #
point $-1 -63.5747563364706 28.881446072429753 6.964646706833105 #
coedge $-1 $398 $450 $395 $456 reversed $279 $-1 #
edge $-1 $400 -1.5 $457 1.5 $455 $481 forward 7 unknown #
vertex $-1 $452 $482 #
straight-curve $-1 -60.026765356565022 -28.881446072429753 3.964646706833105 -1 0 0 I I #
straight-curve $-1 -63.5747563364706 0 6.964646706833105 0 -1 0 I I #
point $-1 -63.5747563364706 -28.881446072429753 6.964646706833105 #
vertex $-1 $406 $483 #
straight-curve $-1 63.5747563364706 0 3.964646706833105 0 -1 0 I I #
edge $-1 $409 -1.5 $461 1.5 $407 $484 forward 7 unknown #
point $-1 63.5747563364706 -28.881446072429753 6.964646706833105 #
point $-1 63.5747563364706 28.881446072429753 6.964646706833105 #
straight-curve $-1 63.5747563364706 -28.881446072429753 5.464646706833105 0 0 -1 I I #
point $-1 63.5747563364706 -28.881446072429753 3.964646706833105 #
straight-curve $-1 60.026765356565022 28.881446072429753 3.964646706833105 1 0 0 I I #
straight-curve $-1 5.9618846450179177 -28.881446072429753 45.844162932167158 0 0 -1 I I #
point $-1 5.9618846450179177 -28.881446072429753 7.464646706833105 #
straight-curve $-1 8.3730814822922994 -28.881446072429753 3.9038237494270076 1 0 0 I I #
point $-1 5.9618846450179177 -28.881446072429753 3.9038237494270076 #
point $-1 12.124329399056023 -24.746364899123822 3.2929110888491571 #
point $-1 21.367996530113174 -24.746364899123822 3.2929110888491571 #
straight-curve $-1 31.490467578152625 28.881446072429753 57.854776285787892 0 0 -1 I I #
point $-1 31.490467578152625 28.881446072429753 7.464646706833105 #
straight-curve $-1 10.785629234952189 28.881446072429753 0.64816200397975621 -1 0 0 I I #
point $-1 31.490467578152625 28.881446072429753 0.64816200397975621 #
point $-1 21.571258469904393 21.88607925207992 0.67144061611414196 #
straight-curve $-1 -63.5747563364706 0 3.964646706833105 0 1 0 I I #
straight-curve $-1 -63.5747563364706 -28.881446072429753 5.464646706833105 0 0 -1 I I #
point $-1 -63.5747563364706 -28.881446072429753 3.964646706833105 #
point $-1 63.5747563364706 28.881446072429753 3.964646706833105 #
straight-curve $-1 63.5747563364706 28.881446072429753 5.464646706833105 0 0 -1 I I #
End-of-ACIS-data 