500 0 11 0           
7 Unknown 11 ACIS 5.0 NT 24 Fri Mar 26 17:53:27 1999 
-1 9.9999999999999995e-007 1e-010 
body $-1 $11 $-1 $12 #
body $-1 $13 $-1 $14 #
body $-1 $15 $-1 $16 #
body $-1 $17 $-1 $18 #
body $-1 $19 $-1 $20 #
body $-1 $21 $-1 $22 #
body $-1 $23 $-1 $24 #
body $-1 $25 $-1 $26 #
body $-1 $27 $-1 $28 #
body $-1 $29 $-1 $30 #
body $-1 $31 $-1 $32 #
lump $-1 $-1 $33 $0 #
transform $-1 1 0 0 0 1 0 0 0 1 62.860805078279974 32.13580486548306 7.0235470608892161 1 rotate no_reflect no_shear #
lump $-1 $-1 $34 $1 #
transform $-1 1 0 0 0 1 0 0 0 1 62.860805078279974 32.13580486548306 7.0235470608892161 1 rotate no_reflect no_shear #
lump $-1 $-1 $35 $2 #
transform $-1 1 0 0 0 1 0 0 0 1 62.860805078279974 32.13580486548306 7.0235470608892161 1 rotate no_reflect no_shear #
lump $-1 $-1 $36 $3 #
transform $-1 1 0 0 0 1 0 0 0 1 62.860805078279974 32.13580486548306 7.0235470608892161 1 rotate no_reflect no_shear #
lump $-1 $-1 $37 $4 #
transform $-1 1 0 0 0 1 0 0 0 1 62.860805078279974 32.13580486548306 7.0235470608892161 1 rotate no_reflect no_shear #
lump $-1 $-1 $38 $5 #
transform $-1 1 0 0 0 1 0 0 0 1 62.860805078279974 32.13580486548306 7.0235470608892161 1 rotate no_reflect no_shear #
lump $-1 $-1 $39 $6 #
transform $-1 1 0 0 0 1 0 0 0 1 62.860805078279974 32.13580486548306 7.0235470608892161 1 rotate no_reflect no_shear #
lump $-1 $-1 $40 $7 #
transform $-1 1 0 0 0 1 0 0 0 1 62.860805078279974 32.13580486548306 7.0235470608892161 1 rotate no_reflect no_shear #
lump $-1 $-1 $41 $8 #
transform $-1 1 0 0 0 1 0 0 0 1 62.860805078279974 32.13580486548306 7.0235470608892161 1 rotate no_reflect no_shear #
lump $-1 $-1 $42 $9 #
transform $-1 1 0 0 0 1 0 0 0 1 62.860805078279974 32.13580486548306 7.0235470608892161 1 rotate no_reflect no_shear #
lump $-1 $-1 $43 $10 #
transform $-1 1 0 0 0 1 0 0 0 1 62.860805078279974 32.13580486548306 7.0235470608892161 1 rotate no_reflect no_shear #
shell $-1 $-1 $-1 $44 $-1 $11 #
shell $-1 $-1 $-1 $45 $-1 $13 #
shell $-1 $-1 $-1 $46 $-1 $15 #
shell $-1 $-1 $-1 $47 $-1 $17 #
shell $-1 $-1 $-1 $48 $-1 $19 #
shell $-1 $-1 $-1 $49 $-1 $21 #
shell $-1 $-1 $-1 $50 $-1 $23 #
shell $-1 $-1 $-1 $51 $-1 $25 #
shell $-1 $-1 $-1 $52 $-1 $27 #
shell $-1 $-1 $-1 $53 $-1 $29 #
shell $-1 $-1 $-1 $54 $-1 $31 #
face $-1 $55 $56 $33 $-1 $57 forward single #
face $-1 $58 $59 $34 $-1 $60 forward single #
face $-1 $61 $62 $35 $-1 $63 forward single #
face $-1 $64 $65 $36 $-1 $66 reversed single #
face $-1 $67 $68 $37 $-1 $69 forward single #
face $-1 $70 $71 $38 $-1 $72 reversed single #
face $-1 $73 $74 $39 $-1 $75 forward single #
face $-1 $76 $77 $40 $-1 $78 reversed single #
face $-1 $79 $80 $41 $-1 $81 forward single #
face $-1 $82 $83 $42 $-1 $84 forward single #
face $-1 $85 $86 $43 $-1 $87 forward single #
face $-1 $88 $89 $33 $-1 $90 reversed single #
loop $-1 $-1 $91 $44 #
plane-surface $-1 0 0 7.0235470608892161 0 0 1 1 0 0 forward_v I I I I #
face $-1 $92 $93 $34 $-1 $94 reversed single #
loop $-1 $-1 $95 $45 #
plane-surface $-1 0 -29.79943105619364 -2.8647939709953452 0 0 1 1 0 0 forward_v I I I I #
face $-1 $96 $97 $35 $-1 $98 reversed single #
loop $-1 $-1 $99 $46 #
plane-surface $-1 0 29.79943105619364 -2.8647939709953452 0 0 1 1 0 0 forward_v I I I I #
face $-1 $100 $101 $36 $-1 $102 reversed single #
loop $-1 $-1 $103 $47 #
plane-surface $-1 -146.984983326502 -11.820024211711493 94.796168216045231 0 -1 0 0.66913061440640931 0 -0.74314481823134659 forward_v I I I I #
face $-1 $104 $105 $37 $-1 $106 forward single #
loop $-1 $107 $108 $48 #
cone-surface $-1 -58.200651170796483 -17.804379631170775 2.5082337085600463 0.66913061440640931 0 -0.74314481823134659 1.1147172273470198 0 1.003695921609614 1 I I 0 1 1.5 forward I I I I #
face $-1 $109 $110 $38 $-1 $111 reversed single #
loop $-1 $-1 $112 $49 #
plane-surface $-1 -146.984983326502 23.788735050630052 94.796168216045231 0 -1 0 0.66913061440640931 0 -0.74314481823134659 forward_v I I I I #
face $-1 $113 $114 $39 $-1 $115 forward single #
loop $-1 $116 $117 $50 #
cone-surface $-1 -58.200651170796483 17.804379631170768 2.5082337085600463 0.66913061440640931 0 -0.74314481823134659 1.1147172273470198 0 1.003695921609614 1 I I 0 1 1.5 forward I I I I #
face $-1 $118 $119 $40 $-1 $120 reversed single #
loop $-1 $-1 $121 $51 #
plane-surface $-1 16.843503284701747 -5.8562208006119967 173.59136368974603 0 1 0 0.50000000669873634 0 0.8660253999169214 forward_v I I I I #
face $-1 $122 $123 $41 $-1 $124 forward single #
loop $-1 $125 $126 $52 #
cone-surface $-1 57.960928720043114 -3.0415848327934363 3.7078091377349516 -0.50000000669873634 0 -0.8660253999169214 0.8660253999169214 0 -0.50000000669873634 1 I I 0 1 1 forward I I I I #
face $-1 $127 $128 $42 $-1 $129 forward single #
loop $-1 $130 $131 $53 #
cone-surface $-1 57.960928720043114 1.1803691189344079 3.7078091377349516 -0.50000000669873634 0 -0.8660253999169214 0.8660253999169214 0 -0.50000000669873634 1 I I 0 1 1 forward I I I I #
face $-1 $132 $133 $43 $-1 $134 forward single #
loop $-1 $135 $136 $54 #
cone-surface $-1 57.960928720043114 5.4023230706622556 3.7078091377349516 -0.50000000669873634 0 -0.8660253999169214 0.8660253999169214 0 -0.50000000669873634 1 I I 0 1 1 forward I I I I #
face $-1 $137 $138 $33 $-1 $139 reversed single #
loop $-1 $-1 $140 $55 #
plane-surface $-1 0 0 -7.0235470608892161 0 0 1 1 0 0 forward_v I I I I #
coedge $-1 $141 $142 $143 $144 forward $56 $-1 #
face $-1 $145 $146 $34 $-1 $147 reversed single #
loop $-1 $-1 $148 $58 #
plane-surface $-1 0 -29.79943105619364 -5.8647939709953452 0 0 1 1 0 0 forward_v I I I I #
coedge $-1 $149 $150 $151 $152 reversed $59 $-1 #
face $-1 $153 $154 $35 $-1 $155 reversed single #
loop $-1 $-1 $156 $61 #
plane-surface $-1 0 29.79943105619364 -5.8647939709953452 0 0 1 1 0 0 forward_v I I I I #
coedge $-1 $157 $158 $159 $160 reversed $62 $-1 #
face $-1 $161 $162 $36 $-1 $163 reversed single #
loop $-1 $-1 $164 $64 #
plane-surface $-1 -62.860805078279981 -17.804379631170775 1.3668050884962781 -0.66913061440640931 0 0.74314481823134659 0.74314481823134659 0 0.66913061440640931 forward_v I I I I #
coedge $-1 $165 $166 $167 $168 reversed $65 $-1 #
face $-1 $-1 $169 $37 $-1 $170 forward single #
loop $-1 $171 $172 $67 #
cone-surface $-1 -56.179873447950087 -17.804379631170775 0.26393272875383111 0.66913061440640931 0 -0.74314481823134659 0.55735861367350992 0 0.50184796080480698 1 I I -0.70710678118654757 0.70710678118654757 0.75 forward I I I I #
loop $-1 $-1 $173 $48 #
coedge $-1 $108 $108 $174 $175 reversed $68 $-1 #
face $-1 $176 $177 $38 $-1 $178 reversed single #
loop $-1 $-1 $179 $70 #
plane-surface $-1 -62.860805078279981 17.804379631170768 1.3668050884962781 -0.66913061440640931 0 0.74314481823134659 0.74314481823134659 0 0.66913061440640931 forward_v I I I I #
coedge $-1 $180 $181 $182 $183 reversed $71 $-1 #
face $-1 $-1 $184 $39 $-1 $185 forward single #
loop $-1 $186 $187 $73 #
cone-surface $-1 -56.179873447950087 17.804379631170768 0.26393272875383111 0.66913061440640931 0 -0.74314481823134659 0.55735861367350992 0 0.50184796080480698 1 I I -0.70710678118654757 0.70710678118654757 0.75 forward I I I I #
loop $-1 $-1 $188 $50 #
coedge $-1 $117 $117 $189 $190 reversed $74 $-1 #
face $-1 $191 $192 $40 $-1 $193 reversed single #
loop $-1 $-1 $194 $76 #
plane-surface $-1 -46.017302635754156 1.180369118934415 64.713255975711903 0.50000000669873634 0 0.8660253999169214 0.8660253999169214 0 -0.50000000669873634 forward_v I I I I #
coedge $-1 $195 $196 $197 $198 reversed $77 $-1 #
face $-1 $-1 $199 $41 $-1 $200 forward single #
loop $-1 $201 $202 $79 #
cone-surface $-1 57.289353650771652 -3.0415848327934363 2.5446070174388122 -0.50000000669873634 0 -0.8660253999169214 0.4330126999584607 0 -0.25000000334936817 1 I I -0.70710678118654746 0.70710678118654746 0.5 forward I I I I #
loop $-1 $-1 $203 $52 #
coedge $-1 $126 $126 $204 $205 reversed $80 $-1 #
face $-1 $-1 $206 $42 $-1 $207 forward single #
loop $-1 $208 $209 $82 #
cone-surface $-1 57.289353650771652 1.1803691189344079 2.5446070174388122 -0.50000000669873634 0 -0.8660253999169214 0.4330126999584607 0 -0.25000000334936817 1 I I -0.70710678118654746 0.70710678118654746 0.5 forward I I I I #
loop $-1 $-1 $210 $53 #
coedge $-1 $131 $131 $211 $212 reversed $83 $-1 #
face $-1 $-1 $213 $43 $-1 $214 forward single #
loop $-1 $215 $216 $85 #
cone-surface $-1 57.289353650771652 5.4023230706622556 2.5446070174388122 -0.50000000669873634 0 -0.8660253999169214 0.4330126999584607 0 -0.25000000334936817 1 I I -0.70710678118654746 0.70710678118654746 0.5 forward I I I I #
loop $-1 $-1 $217 $54 #
coedge $-1 $136 $136 $218 $219 reversed $86 $-1 #
face $-1 $220 $221 $33 $-1 $222 reversed single #
loop $-1 $-1 $223 $88 #
plane-surface $-1 0 -32.13580486548306 0 0 1 0 0 0 1 forward_v I I I I #
coedge $-1 $224 $225 $226 $227 forward $89 $-1 #
coedge $-1 $228 $91 $229 $230 forward $56 $-1 #
coedge $-1 $91 $228 $231 $232 forward $56 $-1 #
coedge $-1 $233 $234 $91 $144 reversed $235 $-1 #
edge $-1 $236 -32.13580486548306 $237 32.13580486548306 $143 $238 forward 7 unknown #
face $-1 $239 $240 $34 $-1 $241 reversed single #
loop $-1 $-1 $242 $92 #
plane-surface $-1 0 -27.463057246904221 -4.3647939709953452 0 -1 0 0 0 -1 forward_v I I I I #
coedge $-1 $243 $244 $245 $246 reversed $93 $-1 #
coedge $-1 $247 $95 $248 $249 forward $59 $-1 #
coedge $-1 $95 $247 $250 $251 reversed $59 $-1 #
coedge $-1 $252 $253 $95 $152 forward $254 $-1 #
edge $-1 $255 12.563341718807401 $256 17.23608933738624 $151 $257 forward 7 unknown #
face $-1 $258 $259 $35 $-1 $260 reversed single #
loop $-1 $-1 $261 $96 #
plane-surface $-1 0 27.463057246904221 -4.3647939709953452 0 1 0 0 0 1 forward_v I I I I #
coedge $-1 $262 $263 $264 $265 reversed $97 $-1 #
coedge $-1 $266 $99 $267 $268 reversed $62 $-1 #
coedge $-1 $99 $266 $269 $270 forward $62 $-1 #
coedge $-1 $271 $272 $99 $160 forward $259 $-1 #
edge $-1 $273 -17.23608933738624 $274 -12.563341718807401 $159 $275 forward 7 unknown #
face $-1 $276 $277 $36 $-1 $278 reversed single #
loop $-1 $-1 $279 $100 #
plane-surface $-1 -146.984983326502 -23.788735050630059 94.796168216045231 0 1 0 -0.66913061440640931 0 0.74314481823134659 forward_v I I I I #
coedge $-1 $280 $281 $282 $283 reversed $101 $-1 #
coedge $-1 $166 $103 $284 $285 reversed $65 $-1 #
coedge $-1 $103 $165 $280 $286 reversed $65 $-1 #
coedge $-1 $282 $287 $103 $168 forward $277 $-1 #
edge $-1 $288 40.374537047133401 $289 46.03127901952633 $167 $290 forward 7 unknown #
loop $-1 $-1 $174 $104 #
plane-surface $-1 -62.860805078279981 -17.804379631170775 1.3668050884962781 -0.66913061440640931 0 0.74314481823134659 0.74314481823134659 0 0.66913061440640931 forward_v I I I I #
loop $-1 $-1 $291 $67 #
coedge $-1 $172 $172 $173 $292 reversed $105 $-1 #
coedge $-1 $173 $173 $172 $292 forward $107 $-1 #
coedge $-1 $174 $174 $108 $175 forward $169 $-1 #
edge $-1 $293 0 $293 6.2831853071796004 $174 $294 forward 7 unknown #
face $-1 $295 $296 $38 $-1 $297 forward single #
loop $-1 $-1 $298 $109 #
plane-surface $-1 -146.984983326502 11.820024211711486 94.796168216045231 0 1 0 -0.66913061440640931 0 0.74314481823134659 forward_v I I I I #
coedge $-1 $299 $300 $301 $302 reversed $110 $-1 #
coedge $-1 $181 $112 $303 $304 reversed $71 $-1 #
coedge $-1 $112 $180 $299 $305 reversed $71 $-1 #
coedge $-1 $301 $306 $112 $183 forward $307 $-1 #
edge $-1 $308 40.374537047133401 $309 46.03127901952633 $182 $310 forward 7 unknown #
loop $-1 $-1 $189 $113 #
plane-surface $-1 -62.860805078279981 17.804379631170768 1.3668050884962781 -0.66913061440640931 0 0.74314481823134659 0.74314481823134659 0 0.66913061440640931 forward_v I I I I #
loop $-1 $-1 $311 $73 #
coedge $-1 $187 $187 $188 $312 reversed $114 $-1 #
coedge $-1 $188 $188 $187 $312 forward $116 $-1 #
coedge $-1 $189 $189 $117 $190 forward $184 $-1 #
edge $-1 $313 0 $313 6.2831853071796004 $189 $314 forward 7 unknown #
face $-1 $315 $316 $40 $-1 $317 forward single #
loop $-1 $-1 $318 $118 #
plane-surface $-1 16.843503284701747 8.2169590384808266 173.59136368974603 0 -1 0 -0.50000000669873634 0 -0.8660253999169214 forward_v I I I I #
coedge $-1 $319 $320 $321 $322 reversed $119 $-1 #
coedge $-1 $196 $121 $323 $324 reversed $77 $-1 #
coedge $-1 $121 $195 $319 $325 reversed $77 $-1 #
coedge $-1 $321 $326 $121 $198 forward $327 $-1 #
edge $-1 $328 79.772134783983802 $329 84.943231789617016 $197 $330 forward 7 unknown #
loop $-1 $-1 $204 $122 #
plane-surface $-1 -46.017302635754156 1.180369118934415 64.713255975711903 0.50000000669873634 0 0.8660253999169214 0.8660253999169214 0 -0.50000000669873634 forward_v I I I I #
loop $-1 $-1 $331 $79 #
coedge $-1 $202 $202 $203 $332 reversed $123 $-1 #
coedge $-1 $203 $203 $202 $332 forward $125 $-1 #
coedge $-1 $204 $204 $126 $205 forward $199 $-1 #
edge $-1 $333 0 $333 6.2831853071796004 $204 $334 forward 7 unknown #
loop $-1 $-1 $211 $127 #
plane-surface $-1 -46.017302635754156 1.180369118934415 64.713255975711903 0.50000000669873634 0 0.8660253999169214 0.8660253999169214 0 -0.50000000669873634 forward_v I I I I #
loop $-1 $-1 $335 $82 #
coedge $-1 $209 $209 $210 $336 reversed $128 $-1 #
coedge $-1 $210 $210 $209 $336 forward $130 $-1 #
coedge $-1 $211 $211 $131 $212 forward $206 $-1 #
edge $-1 $337 0 $337 6.2831853071796004 $211 $338 forward 7 unknown #
loop $-1 $-1 $218 $132 #
plane-surface $-1 -46.017302635754156 1.180369118934415 64.713255975711903 0.50000000669873634 0 0.8660253999169214 0.8660253999169214 0 -0.50000000669873634 forward_v I I I I #
loop $-1 $-1 $339 $85 #
coedge $-1 $216 $216 $217 $340 reversed $133 $-1 #
coedge $-1 $217 $217 $216 $340 forward $135 $-1 #
coedge $-1 $218 $218 $136 $219 forward $213 $-1 #
edge $-1 $341 0 $341 6.2831853071796004 $218 $342 forward 7 unknown #
face $-1 $343 $344 $33 $-1 $345 reversed single #
loop $-1 $-1 $346 $137 #
plane-surface $-1 -62.860805078279974 0 0 1 0 0 0 0 -1 forward_v I I I I #
coedge $-1 $347 $231 $348 $349 forward $138 $-1 #
coedge $-1 $350 $140 $347 $351 forward $89 $-1 #
coedge $-1 $140 $350 $352 $353 forward $89 $-1 #
coedge $-1 $234 $233 $140 $227 reversed $235 $-1 #
edge $-1 $354 -32.13580486548306 $355 32.13580486548306 $226 $356 forward 7 unknown #
coedge $-1 $142 $141 $357 $358 forward $56 $-1 #
coedge $-1 $359 $360 $141 $230 reversed $344 $-1 #
edge $-1 $237 -62.860805078279974 $361 62.860805078279974 $229 $362 forward 7 unknown #
coedge $-1 $223 $363 $142 $232 reversed $138 $-1 #
edge $-1 $364 -62.860805078279974 $236 62.860805078279974 $231 $365 forward 7 unknown #
coedge $-1 $226 $143 $363 $366 forward $235 $-1 #
coedge $-1 $143 $226 $359 $367 reversed $235 $-1 #
loop $-1 $-1 $233 $343 #
vertex $-1 $144 $368 #
vertex $-1 $144 $369 #
straight-curve $-1 62.860805078279974 0 7.0235470608892161 0 1 0 I I #
face $-1 $370 $371 $34 $-1 $372 reversed single #
loop $-1 $-1 $373 $145 #
plane-surface $-1 -62.860805078279974 0 0 1 0 0 0 0 -1 forward_v I I I I #
coedge $-1 $374 $248 $253 $375 reversed $146 $-1 #
coedge $-1 $376 $148 $377 $378 reversed $93 $-1 #
coedge $-1 $148 $376 $374 $379 forward $93 $-1 #
coedge $-1 $253 $252 $148 $246 forward $254 $-1 #
edge $-1 $380 -17.23608933738624 $381 -12.563341718807401 $245 $382 forward 7 unknown #
coedge $-1 $150 $149 $373 $383 reversed $59 $-1 #
coedge $-1 $242 $384 $149 $249 reversed $146 $-1 #
edge $-1 $255 -62.860805078279974 $385 62.860805078279974 $248 $386 forward 7 unknown #
coedge $-1 $387 $388 $150 $251 forward $371 $-1 #
edge $-1 $256 -62.860805078279974 $389 62.860805078279974 $250 $390 forward 7 unknown #
coedge $-1 $245 $151 $388 $391 forward $254 $-1 #
coedge $-1 $151 $245 $242 $375 forward $254 $-1 #
loop $-1 $-1 $151 $370 #
vertex $-1 $152 $392 #
vertex $-1 $391 $393 #
straight-curve $-1 62.860805078279974 -14.89971552809682 -2.8647939709953452 0 -1 0 I I #
face $-1 $394 $395 $35 $-1 $396 reversed single #
loop $-1 $-1 $159 $153 #
plane-surface $-1 62.860805078279974 0 0 -1 0 0 0 0 1 forward_v I I I I #
coedge $-1 $397 $269 $398 $399 reversed $154 $-1 #
coedge $-1 $400 $156 $397 $401 forward $97 $-1 #
coedge $-1 $156 $400 $402 $403 reversed $97 $-1 #
coedge $-1 $272 $271 $156 $265 forward $259 $-1 #
edge $-1 $404 12.563341718807401 $405 17.23608933738624 $264 $406 forward 7 unknown #
coedge $-1 $158 $157 $407 $408 reversed $62 $-1 #
coedge $-1 $409 $410 $157 $268 forward $411 $-1 #
edge $-1 $412 -62.860805078279974 $273 62.860805078279974 $267 $413 forward 7 unknown #
coedge $-1 $261 $414 $158 $270 reversed $154 $-1 #
edge $-1 $415 -62.860805078279974 $274 62.860805078279974 $269 $416 forward 7 unknown #
coedge $-1 $264 $159 $414 $417 forward $259 $-1 #
coedge $-1 $159 $264 $409 $418 reversed $259 $-1 #
vertex $-1 $418 $419 #
vertex $-1 $160 $420 #
straight-curve $-1 62.860805078279974 14.89971552809682 -2.8647939709953452 0 -1 0 I I #
face $-1 $-1 $421 $36 $-1 $422 forward single #
loop $-1 $-1 $167 $161 #
plane-surface $-1 -62.860805078279974 0 0 1 0 0 0 0 -1 forward_v I I I I #
coedge $-1 $423 $424 $425 $426 reversed $162 $-1 #
coedge $-1 $427 $164 $166 $286 forward $101 $-1 #
coedge $-1 $164 $427 $423 $428 forward $101 $-1 #
coedge $-1 $425 $167 $164 $283 forward $277 $-1 #
edge $-1 $289 2.9178343961261053 $429 14.886545235044672 $282 $430 forward 7 unknown #
coedge $-1 $431 $432 $165 $285 forward $421 $-1 #
edge $-1 $433 -16.914134875854828 $288 -10.631686584971028 $284 $434 forward 7 unknown #
edge $-1 $289 9.5890899667747578e-015 $433 8.4538681247024901 $166 $435 forward 7 unknown #
coedge $-1 $167 $425 $431 $436 reversed $277 $-1 #
vertex $-1 $436 $437 #
vertex $-1 $168 $438 #
straight-curve $-1 -62.860805078279974 -11.820024211711493 47.398084108022616 0 0 -1 I I #
coedge $-1 $291 $291 $-1 $439 reversed $171 $-1 #
edge $-1 $440 0 $440 6.2831853071796004 $172 $441 forward 7 unknown #
vertex $-1 $175 $442 #
ellipse-curve $-1 -59.71958093283807 -17.804379631170775 4.1951760746927516 -0.66913061440640931 0 0.74314481823134659 1.1147172273470198 0 1.003695921609614 1 I I #
face $-1 $-1 $307 $38 $-1 $443 reversed single #
loop $-1 $-1 $444 $176 #
plane-surface $-1 0 0 7.0235470608892161 0 0 1 1 0 0 forward_v I I I I #
coedge $-1 $445 $446 $447 $448 reversed $177 $-1 #
coedge $-1 $449 $179 $181 $305 forward $110 $-1 #
coedge $-1 $179 $449 $445 $450 forward $110 $-1 #
coedge $-1 $447 $182 $179 $302 forward $307 $-1 #
edge $-1 $309 -14.886545235044668 $451 -2.9178343961261017 $301 $452 forward 7 unknown #
coedge $-1 $453 $454 $180 $304 forward $296 $-1 #
edge $-1 $455 -16.914134875854828 $308 -10.631686584971028 $303 $456 forward 7 unknown #
edge $-1 $309 9.5890899667747578e-015 $455 8.4538681247024901 $181 $457 forward 7 unknown #
coedge $-1 $182 $447 $453 $458 reversed $307 $-1 #
loop $-1 $-1 $447 $295 #
vertex $-1 $458 $459 #
vertex $-1 $183 $460 #
straight-curve $-1 -62.860805078279974 23.788735050630052 47.398084108022616 0 0 -1 I I #
coedge $-1 $311 $311 $-1 $461 reversed $186 $-1 #
edge $-1 $462 0 $462 6.2831853071796004 $187 $463 forward 7 unknown #
vertex $-1 $190 $464 #
ellipse-curve $-1 -59.71958093283807 17.804379631170768 4.1951760746927516 -0.66913061440640931 0 0.74314481823134659 1.1147172273470198 0 1.003695921609614 1 I I #
face $-1 $-1 $327 $40 $-1 $465 reversed single #
loop $-1 $-1 $466 $191 #
plane-surface $-1 0 0 7.0235470608892161 0 0 1 1 0 0 forward_v I I I I #
coedge $-1 $467 $468 $469 $470 reversed $192 $-1 #
coedge $-1 $471 $194 $196 $325 forward $119 $-1 #
coedge $-1 $194 $471 $467 $472 forward $119 $-1 #
coedge $-1 $469 $197 $194 $322 forward $327 $-1 #
edge $-1 $329 -6.4464053600792042 $473 7.6267744790136192 $321 $474 forward 7 unknown #
coedge $-1 $475 $476 $195 $324 forward $316 $-1 #
edge $-1 $477 45.482450851299546 $328 54.439053435929097 $323 $478 forward 7 unknown #
edge $-1 $329 -125.72161015655996 $477 -115.37941628385281 $196 $479 forward 7 unknown #
coedge $-1 $197 $469 $475 $480 reversed $327 $-1 #
loop $-1 $-1 $469 $315 #
vertex $-1 $480 $481 #
vertex $-1 $198 $482 #
straight-curve $-1 62.860805078279974 -5.8562208006119967 86.795681844873016 0 0 -1 I I #
coedge $-1 $331 $331 $-1 $483 reversed $201 $-1 #
edge $-1 $484 0 $484 6.2831853071796004 $202 $485 forward 7 unknown #
vertex $-1 $205 $486 #
ellipse-curve $-1 58.382503785965199 -3.0415848327934363 4.4379985580726045 0.50000000669873634 0 0.8660253999169214 0.8660253999169214 0 -0.50000000669873634 1 I I #
coedge $-1 $335 $335 $-1 $487 reversed $208 $-1 #
edge $-1 $488 0 $488 6.2831853071796004 $209 $489 forward 7 unknown #
vertex $-1 $212 $490 #
ellipse-curve $-1 58.382503785965199 1.1803691189344079 4.4379985580726045 0.50000000669873634 0 0.8660253999169214 0.8660253999169214 0 -0.50000000669873634 1 I I #
coedge $-1 $339 $339 $-1 $491 reversed $215 $-1 #
edge $-1 $492 0 $492 6.2831853071796004 $216 $493 forward 7 unknown #
vertex $-1 $219 $494 #
ellipse-curve $-1 58.382503785965199 5.4023230706622556 4.4379985580726045 0.50000000669873634 0 0.8660253999169214 0.8660253999169214 0 -0.50000000669873634 1 I I #
face $-1 $-1 $235 $33 $-1 $495 reversed single #
loop $-1 $-1 $359 $220 #
plane-surface $-1 0 32.13580486548306 0 0 -1 0 0 0 -1 forward_v I I I I #
coedge $-1 $496 $357 $360 $497 forward $221 $-1 #
coedge $-1 $363 $223 $224 $351 reversed $138 $-1 #
coedge $-1 $357 $496 $223 $349 reversed $221 $-1 #
edge $-1 $364 -7.0235470608892161 $498 7.0235470608892161 $348 $499 forward 7 unknown #
coedge $-1 $225 $224 $496 $500 forward $89 $-1 #
edge $-1 $355 -62.860805078279974 $498 62.860805078279974 $347 $501 forward 7 unknown #
coedge $-1 $360 $359 $225 $353 reversed $344 $-1 #
edge $-1 $502 -62.860805078279974 $354 62.860805078279974 $352 $503 forward 7 unknown #
vertex $-1 $227 $504 #
vertex $-1 $366 $505 #
straight-curve $-1 62.860805078279974 0 -7.0235470608892161 0 -1 0 I I #
coedge $-1 $346 $348 $228 $358 reversed $221 $-1 #
edge $-1 $361 -32.13580486548306 $364 32.13580486548306 $357 $506 forward 7 unknown #
coedge $-1 $352 $229 $234 $367 forward $344 $-1 #
coedge $-1 $229 $352 $346 $497 reversed $344 $-1 #
vertex $-1 $230 $507 #
straight-curve $-1 0 32.13580486548306 7.0235470608892161 -1 0 0 I I #
coedge $-1 $231 $347 $233 $366 reversed $138 $-1 #
vertex $-1 $358 $508 #
straight-curve $-1 0 -32.13580486548306 7.0235470608892161 1 0 0 I I #
edge $-1 $236 -7.0235470608892161 $355 7.0235470608892161 $233 $509 forward 7 unknown #
edge $-1 $237 -7.0235470608892161 $354 7.0235470608892161 $234 $510 forward 7 unknown #
point $-1 62.860805078279974 -32.13580486548306 7.0235470608892161 #
point $-1 62.860805078279974 32.13580486548306 7.0235470608892161 #
face $-1 $-1 $254 $34 $-1 $511 reversed single #
loop $-1 $-1 $250 $239 #
plane-surface $-1 0 -32.13580486548306 0 0 1 0 0 0 1 forward_v I I I I #
coedge $-1 $512 $513 $247 $383 forward $240 $-1 #
coedge $-1 $384 $242 $244 $379 reversed $146 $-1 #
edge $-1 $381 -3.6823969854976726 $255 -0.68239698549767258 $253 $514 forward 7 unknown #
coedge $-1 $244 $243 $515 $516 reversed $93 $-1 #
coedge $-1 $388 $387 $243 $378 forward $371 $-1 #
edge $-1 $517 -62.860805078279974 $380 62.860805078279974 $377 $518 forward 7 unknown #
edge $-1 $519 -62.860805078279974 $381 62.860805078279974 $374 $520 forward 7 unknown #
vertex $-1 $378 $521 #
vertex $-1 $246 $522 #
straight-curve $-1 62.860805078279974 -14.89971552809682 -5.8647939709953452 0 1 0 I I #
edge $-1 $389 -17.23608933738624 $385 -12.563341718807401 $373 $523 forward 7 unknown #
coedge $-1 $248 $374 $512 $524 reversed $146 $-1 #
vertex $-1 $383 $525 #
straight-curve $-1 0 -27.463057246904221 -2.8647939709953452 -1 0 0 I I #
coedge $-1 $377 $250 $513 $526 forward $371 $-1 #
coedge $-1 $250 $377 $252 $391 reversed $371 $-1 #
vertex $-1 $526 $527 #
straight-curve $-1 0 -32.13580486548306 -2.8647939709953452 -1 0 0 I I #
edge $-1 $256 2.8647939709953452 $380 5.8647939709953452 $252 $528 forward 7 unknown #
point $-1 62.860805078279974 -27.463057246904221 -2.8647939709953452 #
point $-1 62.860805078279974 -32.13580486548306 -2.8647939709953452 #
face $-1 $-1 $411 $35 $-1 $529 reversed single #
loop $-1 $-1 $407 $258 #
plane-surface $-1 -62.860805078279974 0 0 1 0 0 0 0 -1 forward_v I I I I #
coedge $-1 $414 $261 $262 $401 reversed $154 $-1 #
coedge $-1 $407 $530 $261 $399 forward $395 $-1 #
edge $-1 $531 -3.6823969854976726 $415 -0.68239698549767258 $398 $532 forward 7 unknown #
coedge $-1 $263 $262 $530 $533 reversed $97 $-1 #
edge $-1 $404 -62.860805078279974 $531 62.860805078279974 $397 $534 forward 7 unknown #
coedge $-1 $410 $409 $263 $403 forward $411 $-1 #
edge $-1 $405 -62.860805078279974 $535 62.860805078279974 $402 $536 forward 7 unknown #
vertex $-1 $265 $537 #
vertex $-1 $403 $538 #
straight-curve $-1 62.860805078279974 14.89971552809682 -5.8647939709953452 0 1 0 I I #
coedge $-1 $539 $398 $266 $408 forward $395 $-1 #
edge $-1 $415 12.563341718807401 $412 17.23608933738624 $407 $540 forward 7 unknown #
coedge $-1 $402 $267 $272 $418 forward $411 $-1 #
coedge $-1 $267 $402 $539 $541 reversed $411 $-1 #
loop $-1 $-1 $267 $394 #
vertex $-1 $541 $542 #
straight-curve $-1 0 32.13580486548306 -2.8647939709953452 1 0 0 I I #
coedge $-1 $269 $397 $271 $417 reversed $154 $-1 #
vertex $-1 $408 $543 #
straight-curve $-1 0 27.463057246904221 -2.8647939709953452 1 0 0 I I #
edge $-1 $274 0.68239698549767258 $404 3.6823969854976726 $271 $544 forward 7 unknown #
edge $-1 $273 2.8647939709953452 $405 5.8647939709953452 $272 $545 forward 7 unknown #
point $-1 62.860805078279974 32.13580486548306 -2.8647939709953452 #
point $-1 62.860805078279974 27.463057246904221 -2.8647939709953452 #
loop $-1 $-1 $284 $276 #
plane-surface $-1 0 0 7.0235470608892161 0 0 1 1 0 0 forward_v I I I I #
coedge $-1 $424 $279 $281 $428 reversed $162 $-1 #
coedge $-1 $279 $423 $546 $547 reversed $162 $-1 #
coedge $-1 $287 $282 $279 $426 forward $277 $-1 #
edge $-1 $429 -46.03127901952633 $548 -40.374537047133401 $425 $549 forward 7 unknown #
coedge $-1 $281 $280 $432 $550 reversed $101 $-1 #
edge $-1 $551 -8.4538681247024901 $429 -9.5890899667747578e-015 $423 $552 forward 7 unknown #
vertex $-1 $283 $553 #
straight-curve $-1 -62.860805078279974 -8.9021898155853876 1.3668050884962866 0 -1 0 I I #
coedge $-1 $546 $284 $287 $436 forward $421 $-1 #
coedge $-1 $284 $546 $427 $550 forward $421 $-1 #
vertex $-1 $285 $554 #
straight-curve $-1 -73.492491663251002 -11.820024211711493 7.0235470608892143 -1 0 0 I I #
straight-curve $-1 -62.860805078279981 -11.820024211711493 1.3668050884962781 0.74314481823134659 0 0.66913061440640931 I I #
edge $-1 $288 11.820024211711493 $548 23.788735050630059 $287 $555 forward 7 unknown #
point $-1 -62.860805078279974 -11.820024211711493 7.0235470608892161 #
point $-1 -62.860805078279974 -11.820024211711493 1.3668050884962846 #
edge $-1 $556 1 $556 0 $291 $-1 forward 7 unknown #
vertex $-1 $292 $557 #
ellipse-curve $-1 -56.681721408754896 -17.804379631170775 0.82129134242734103 -0.66913061440640931 0 0.74314481823134659 1.1147172273470198 0 1.003695921609614 1 I I #
point $-1 -58.604863705491049 -17.804379631170775 5.1988719963023655 #
plane-surface $-1 -62.860805078279974 0 0 1 0 0 0 0 -1 forward_v I I I I #
coedge $-1 $454 $453 $446 $558 forward $296 $-1 #
coedge $-1 $446 $298 $300 $450 reversed $177 $-1 #
coedge $-1 $298 $445 $444 $558 reversed $177 $-1 #
coedge $-1 $306 $301 $298 $448 forward $307 $-1 #
edge $-1 $451 -46.03127901952633 $559 -40.374537047133401 $447 $560 forward 7 unknown #
coedge $-1 $300 $299 $454 $561 reversed $110 $-1 #
edge $-1 $562 -8.4538681247024901 $451 -9.5890899667747578e-015 $445 $563 forward 7 unknown #
vertex $-1 $302 $564 #
straight-curve $-1 -62.860805078279974 8.902189815585384 1.3668050884962866 0 -1 0 I I #
coedge $-1 $444 $303 $306 $458 forward $296 $-1 #
coedge $-1 $303 $444 $449 $561 forward $296 $-1 #
vertex $-1 $304 $565 #
straight-curve $-1 -73.492491663251002 23.788735050630052 7.0235470608892143 -1 0 0 I I #
straight-curve $-1 -62.860805078279981 23.788735050630052 1.3668050884962781 0.74314481823134659 0 0.66913061440640931 I I #
edge $-1 $308 -23.788735050630052 $559 -11.820024211711486 $306 $566 forward 7 unknown #
point $-1 -62.860805078279974 23.788735050630052 7.0235470608892161 #
point $-1 -62.860805078279974 23.788735050630052 1.3668050884962846 #
edge $-1 $567 1 $567 0 $311 $-1 forward 7 unknown #
vertex $-1 $312 $568 #
ellipse-curve $-1 -56.681721408754896 17.804379631170768 0.82129134242734103 -0.66913061440640931 0 0.74314481823134659 1.1147172273470198 0 1.003695921609614 1 I I #
point $-1 -58.604863705491049 17.804379631170768 5.1988719963023655 #
plane-surface $-1 62.860805078279974 0 0 -1 0 0 0 0 1 forward_v I I I I #
coedge $-1 $476 $475 $468 $569 forward $316 $-1 #
coedge $-1 $468 $318 $320 $472 reversed $192 $-1 #
coedge $-1 $318 $467 $466 $569 reversed $192 $-1 #
coedge $-1 $326 $321 $318 $470 forward $327 $-1 #
edge $-1 $473 -84.943231789617016 $570 -79.772134783983802 $469 $571 forward 7 unknown #
coedge $-1 $320 $319 $476 $572 reversed $119 $-1 #
edge $-1 $573 115.37941628385281 $473 125.72161015655996 $467 $574 forward 7 unknown #
vertex $-1 $322 $575 #
straight-curve $-1 62.860805078279974 0.59018455946720749 1.8524500552560035 0 1 0 I I #
coedge $-1 $466 $323 $326 $480 forward $316 $-1 #
coedge $-1 $323 $466 $471 $572 forward $316 $-1 #
vertex $-1 $324 $576 #
straight-curve $-1 8.4217516423508734 -5.8562208006119967 7.0235470608892143 1 0 0 I I #
straight-curve $-1 -46.017302635754156 -5.8562208006119967 64.713255975711903 -0.8660253999169214 0 0.50000000669873634 I I #
edge $-1 $328 -5.8562208006119967 $570 8.2169590384808266 $326 $577 forward 7 unknown #
point $-1 62.860805078279974 -5.8562208006119967 7.0235470608892161 #
point $-1 62.860805078279974 -5.8562208006119967 1.8524500552559999 #
edge $-1 $578 1 $578 0 $331 $-1 forward 7 unknown #
vertex $-1 $332 $579 #
ellipse-curve $-1 57.539353654121022 -3.0415848327934363 2.9776197173972729 0.50000000669873634 0 0.8660253999169214 0.8660253999169214 0 -0.50000000669873634 1 I I #
point $-1 59.248529185882134 -3.0415848327934363 3.9379985513738949 #
edge $-1 $580 1 $580 0 $335 $-1 forward 7 unknown #
vertex $-1 $336 $581 #
ellipse-curve $-1 57.539353654121022 1.1803691189344079 2.9776197173972729 0.50000000669873634 0 0.8660253999169214 0.8660253999169214 0 -0.50000000669873634 1 I I #
point $-1 59.248529185882134 1.1803691189344079 3.9379985513738949 #
edge $-1 $582 1 $582 0 $339 $-1 forward 7 unknown #
vertex $-1 $340 $583 #
ellipse-curve $-1 57.539353654121022 5.4023230706622556 2.9776197173972729 0.50000000669873634 0 0.8660253999169214 0.8660253999169214 0 -0.50000000669873634 1 I I #
point $-1 59.248529185882134 5.4023230706622556 3.9379985513738949 #
plane-surface $-1 62.860805078279974 0 0 -1 0 0 0 0 1 forward_v I I I I #
coedge $-1 $348 $346 $350 $500 reversed $221 $-1 #
edge $-1 $361 -7.0235470608892161 $502 7.0235470608892161 $360 $584 forward 7 unknown #
vertex $-1 $500 $585 #
straight-curve $-1 -62.860805078279974 -32.13580486548306 0 0 0 -1 I I #
edge $-1 $498 -32.13580486548306 $502 32.13580486548306 $496 $586 forward 7 unknown #
straight-curve $-1 0 -32.13580486548306 -7.0235470608892161 -1 0 0 I I #
vertex $-1 $353 $587 #
straight-curve $-1 0 32.13580486548306 -7.0235470608892161 1 0 0 I I #
point $-1 62.860805078279974 32.13580486548306 -7.0235470608892161 #
point $-1 62.860805078279974 -32.13580486548306 -7.0235470608892161 #
straight-curve $-1 -62.860805078279974 0 7.0235470608892161 0 -1 0 I I #
point $-1 -62.860805078279974 32.13580486548306 7.0235470608892161 #
point $-1 -62.860805078279974 -32.13580486548306 7.0235470608892161 #
straight-curve $-1 62.860805078279974 -32.13580486548306 0 0 0 -1 I I #
straight-curve $-1 62.860805078279974 32.13580486548306 0 0 0 -1 I I #
plane-surface $-1 62.860805078279974 0 0 -1 0 0 0 0 1 forward_v I I I I #
coedge $-1 $515 $373 $384 $524 forward $240 $-1 #
coedge $-1 $373 $515 $387 $526 reversed $240 $-1 #
straight-curve $-1 62.860805078279974 -27.463057246904221 -2.1823969854976726 0 0 1 I I #
coedge $-1 $513 $512 $376 $516 forward $240 $-1 #
edge $-1 $519 12.563341718807401 $517 17.23608933738624 $515 $588 forward 7 unknown #
vertex $-1 $378 $589 #
straight-curve $-1 0 -32.13580486548306 -5.8647939709953452 1 0 0 I I #
vertex $-1 $516 $590 #
straight-curve $-1 0 -27.463057246904221 -5.8647939709953452 1 0 0 I I #
point $-1 62.860805078279974 -32.13580486548306 -5.8647939709953452 #
point $-1 62.860805078279974 -27.463057246904221 -5.8647939709953452 #
straight-curve $-1 -62.860805078279974 -14.89971552809682 -2.8647939709953452 0 1 0 I I #
edge $-1 $385 0.68239698549767258 $519 3.6823969854976726 $512 $591 forward 7 unknown #
point $-1 -62.860805078279974 -27.463057246904221 -2.8647939709953452 #
edge $-1 $389 2.8647939709953452 $517 5.8647939709953452 $513 $592 forward 7 unknown #
point $-1 -62.860805078279974 -32.13580486548306 -2.8647939709953452 #
straight-curve $-1 62.860805078279974 -32.13580486548306 0 0 0 -1 I I #
plane-surface $-1 0 32.13580486548306 0 0 -1 0 0 0 -1 forward_v I I I I #
coedge $-1 $398 $539 $400 $533 forward $395 $-1 #
vertex $-1 $533 $593 #
straight-curve $-1 -62.860805078279974 27.463057246904221 -2.1823969854976726 0 0 1 I I #
edge $-1 $535 -17.23608933738624 $531 -12.563341718807401 $530 $594 forward 7 unknown #
straight-curve $-1 0 27.463057246904221 -5.8647939709953452 -1 0 0 I I #
vertex $-1 $403 $595 #
straight-curve $-1 0 32.13580486548306 -5.8647939709953452 -1 0 0 I I #
point $-1 62.860805078279974 27.463057246904221 -5.8647939709953452 #
point $-1 62.860805078279974 32.13580486548306 -5.8647939709953452 #
coedge $-1 $530 $407 $410 $541 forward $395 $-1 #
straight-curve $-1 -62.860805078279974 14.89971552809682 -2.8647939709953452 0 1 0 I I #
edge $-1 $412 2.8647939709953452 $535 5.8647939709953452 $410 $596 forward 7 unknown #
point $-1 -62.860805078279974 32.13580486548306 -2.8647939709953452 #
point $-1 -62.860805078279974 27.463057246904221 -2.8647939709953452 #
straight-curve $-1 62.860805078279974 27.463057246904221 -2.1823969854976726 0 0 -1 I I #
straight-curve $-1 62.860805078279974 32.13580486548306 0 0 0 -1 I I #
coedge $-1 $432 $431 $424 $547 forward $421 $-1 #
edge $-1 $548 10.631686584971028 $551 16.914134875854828 $546 $597 forward 7 unknown #
vertex $-1 $547 $598 #
straight-curve $-1 -62.860805078279974 -23.788735050630059 47.398084108022616 0 0 1 I I #
edge $-1 $551 -14.886545235044672 $433 -2.9178343961261053 $432 $599 forward 7 unknown #
vertex $-1 $550 $600 #
straight-curve $-1 -62.860805078279981 -23.788735050630059 1.3668050884962781 -0.74314481823134659 0 -0.66913061440640931 I I #
point $-1 -62.860805078279974 -23.788735050630059 1.3668050884962846 #
point $-1 -56.578356787396174 -11.820024211711493 7.0235470608892161 #
straight-curve $-1 -62.860805078279974 0 7.0235470608892161 0 -1 0 I I #
vertex $-1 $439 $601 #
point $-1 -55.567004181407874 -17.804379631170775 1.8249872640369551 #
edge $-1 $559 10.631686584971028 $562 16.914134875854828 $444 $602 forward 7 unknown #
vertex $-1 $558 $603 #
straight-curve $-1 -62.860805078279974 11.820024211711486 47.398084108022616 0 0 1 I I #
edge $-1 $562 2.9178343961261017 $455 14.886545235044668 $454 $604 forward 7 unknown #
vertex $-1 $561 $605 #
straight-curve $-1 -62.860805078279981 11.820024211711486 1.3668050884962781 -0.74314481823134659 0 -0.66913061440640931 I I #
point $-1 -62.860805078279974 11.820024211711486 1.3668050884962846 #
point $-1 -56.578356787396174 23.788735050630052 7.0235470608892161 #
straight-curve $-1 -62.860805078279974 0 7.0235470608892161 0 -1 0 I I #
vertex $-1 $461 $606 #
point $-1 -55.567004181407874 17.804379631170768 1.8249872640369551 #
edge $-1 $570 -54.439053435929097 $573 -45.482450851299546 $466 $607 forward 7 unknown #
vertex $-1 $470 $608 #
straight-curve $-1 62.860805078279974 8.2169590384808266 86.795681844873016 0 0 1 I I #
edge $-1 $573 -7.6267744790136192 $477 6.4464053600792042 $476 $609 forward 7 unknown #
vertex $-1 $572 $610 #
straight-curve $-1 -46.017302635754156 8.2169590384808266 64.713255975711903 0.8660253999169214 0 -0.50000000669873634 I I #
point $-1 62.860805078279974 8.2169590384808266 1.8524500552559999 #
point $-1 53.904202493650423 -5.8562208006119967 7.0235470608892143 #
straight-curve $-1 62.860805078279974 0 7.0235470608892161 0 1 0 I I #
vertex $-1 $483 $611 #
point $-1 58.405379054037944 -3.0415848327934363 2.4776197106985367 #
vertex $-1 $487 $612 #
point $-1 58.405379054037944 1.1803691189344079 2.4776197106985367 #
vertex $-1 $491 $613 #
point $-1 58.405379054037944 5.4023230706622556 2.4776197106985367 #
straight-curve $-1 -62.860805078279974 32.13580486548306 0 0 0 -1 I I #
point $-1 -62.860805078279974 -32.13580486548306 -7.0235470608892161 #
straight-curve $-1 -62.860805078279974 0 -7.0235470608892161 0 1 0 I I #
point $-1 -62.860805078279974 32.13580486548306 -7.0235470608892161 #
straight-curve $-1 -62.860805078279974 -14.89971552809682 -5.8647939709953452 0 -1 0 I I #
point $-1 -62.860805078279974 -32.13580486548306 -5.8647939709953452 #
point $-1 -62.860805078279974 -27.463057246904221 -5.8647939709953452 #
straight-curve $-1 -62.860805078279974 -27.463057246904221 -2.1823969854976726 0 0 -1 I I #
straight-curve $-1 -62.860805078279974 -32.13580486548306 0 0 0 -1 I I #
point $-1 -62.860805078279974 27.463057246904221 -5.8647939709953452 #
straight-curve $-1 -62.860805078279974 14.89971552809682 -5.8647939709953452 0 -1 0 I I #
point $-1 -62.860805078279974 32.13580486548306 -5.8647939709953452 #
straight-curve $-1 -62.860805078279974 32.13580486548306 0 0 0 -1 I I #
straight-curve $-1 -73.492491663251002 -23.788735050630059 7.0235470608892143 1 0 0 I I #
point $-1 -62.860805078279974 -23.788735050630059 7.0235470608892161 #
straight-curve $-1 -56.578356787396174 -8.9021898155853876 7.0235470608892143 0 1 0 I I #
point $-1 -56.578356787396174 -23.788735050630059 7.0235470608892161 #
point $-1 -55.678025487145277 -17.804379631170775 -0.2934258849196788 #
straight-curve $-1 -73.492491663251002 11.820024211711486 7.0235470608892143 1 0 0 I I #
point $-1 -62.860805078279974 11.820024211711486 7.0235470608892161 #
straight-curve $-1 -56.578356787396174 8.902189815585384 7.0235470608892143 0 1 0 I I #
point $-1 -56.578356787396174 11.820024211711486 7.0235470608892161 #
point $-1 -55.678025487145277 17.804379631170768 -0.2934258849196788 #
straight-curve $-1 8.4217516423508734 8.2169590384808266 7.0235470608892143 -1 0 0 I I #
point $-1 62.860805078279974 8.2169590384808266 7.0235470608892161 #
straight-curve $-1 53.904202493650402 0.59018455946720749 7.0235470608892143 0 -1 0 I I #
point $-1 53.904202493650423 8.2169590384808266 7.0235470608892143 #
point $-1 57.039353647422281 -3.0415848327934363 2.1115943174803515 #
point $-1 57.039353647422281 1.1803691189344079 2.1115943174803515 #
point $-1 57.039353647422281 5.4023230706622556 2.1115943174803515 #
End-of-ACIS-data 