500 0 6 0           
7 Unknown 11 ACIS 5.0 NT 24 Thu Mar 25 23:01:27 1999 
-1 9.9999999999999995e-007 1e-010 
body $-1 $6 $-1 $7 #
body $-1 $8 $-1 $9 #
body $-1 $10 $-1 $11 #
body $-1 $12 $-1 $13 #
body $-1 $14 $-1 $15 #
body $-1 $16 $-1 $17 #
lump $-1 $-1 $18 $0 #
transform $-1 1 0 0 0 1 0 0 0 1 52.480849635303812 32.388629947661997 8.2634646553683382 1 rotate no_reflect no_shear #
lump $-1 $-1 $19 $1 #
transform $-1 1 0 0 0 1 0 0 0 1 52.480849635303812 32.388629947661997 8.2634646553683382 1 rotate no_reflect no_shear #
lump $-1 $-1 $20 $2 #
transform $-1 1 0 0 0 1 0 0 0 1 52.480849635303812 32.388629947661997 8.2634646553683382 1 rotate no_reflect no_shear #
lump $-1 $-1 $21 $3 #
transform $-1 1 0 0 0 1 0 0 0 1 52.480849635303812 32.388629947661997 8.2634646553683382 1 rotate no_reflect no_shear #
lump $-1 $-1 $22 $4 #
transform $-1 1 0 0 0 1 0 0 0 1 52.480849635303812 32.388629947661997 8.2634646553683382 1 rotate no_reflect no_shear #
lump $-1 $-1 $23 $5 #
transform $-1 1 0 0 0 1 0 0 0 1 52.480849635303812 32.388629947661997 8.2634646553683382 1 rotate no_reflect no_shear #
shell $-1 $-1 $-1 $24 $-1 $6 #
shell $-1 $-1 $-1 $25 $-1 $8 #
shell $-1 $-1 $-1 $26 $-1 $10 #
shell $-1 $-1 $-1 $27 $-1 $12 #
shell $-1 $-1 $-1 $28 $-1 $14 #
shell $-1 $-1 $-1 $29 $-1 $16 #
face $-1 $30 $31 $18 $-1 $32 forward single #
face $-1 $33 $34 $19 $-1 $35 reversed single #
face $-1 $36 $37 $20 $-1 $38 reversed single #
face $-1 $39 $40 $21 $-1 $41 forward single #
face $-1 $42 $43 $22 $-1 $44 reversed single #
face $-1 $45 $46 $23 $-1 $47 forward single #
face $-1 $48 $49 $18 $-1 $50 reversed single #
loop $-1 $-1 $51 $24 #
plane-surface $-1 0 0 8.2634646553683382 0 0 1 1 0 0 forward_v I I I I #
face $-1 $52 $53 $19 $-1 $54 reversed single #
loop $-1 $-1 $55 $25 #
plane-surface $-1 0 -27.359592841196541 5.2634646553683382 0 0 1 1 0 0 forward_v I I I I #
face $-1 $56 $57 $20 $-1 $58 reversed single #
loop $-1 $-1 $59 $26 #
plane-surface $-1 -52.480849635303812 -18.227934125773764 4.8159408500197785 -0.85716730853699208 0 0.51503806187062418 0.51503806187062418 0 0.85716730853699208 forward_v I I I I #
face $-1 $60 $61 $21 $-1 $62 forward single #
loop $-1 $63 $64 $27 #
cone-surface $-1 -50.615108326729498 -18.227934125773764 6.0409880352630445 0.85716730853699208 0 -0.51503806187062418 0.51503806187062418 0 0.85716730853699208 1 I I 0 1 1 forward I I I I #
face $-1 $65 $66 $22 $-1 $67 reversed single #
loop $-1 $-1 $68 $28 #
plane-surface $-1 -142.45058689855972 5.0290371064654522 58.875211013000836 0 1 0 -0.85716730853699208 0 0.51503806187062418 forward_v I I I I #
face $-1 $69 $70 $23 $-1 $71 forward single #
loop $-1 $72 $73 $29 #
cone-surface $-1 -50.615108326729498 9.1316587154227733 6.0409880352630445 0.85716730853699208 0 -0.51503806187062418 0.51503806187062418 0 0.85716730853699208 1 I I 0 1 1 forward I I I I #
face $-1 $74 $75 $18 $-1 $76 reversed single #
loop $-1 $-1 $77 $30 #
plane-surface $-1 0 0 -8.2634646553683382 0 0 1 1 0 0 forward_v I I I I #
coedge $-1 $78 $79 $80 $81 forward $31 $-1 #
face $-1 $82 $83 $19 $-1 $84 reversed single #
loop $-1 $-1 $85 $33 #
plane-surface $-1 0 -22.330555734731085 6.7634646553683382 0 -1 0 0 0 -1 forward_v I I I I #
coedge $-1 $86 $87 $88 $89 reversed $34 $-1 #
face $-1 $90 $91 $20 $-1 $92 forward single #
loop $-1 $-1 $93 $36 #
plane-surface $-1 -142.45058689855972 -14.125312516816443 58.875211013000836 0 -1 0 0.85716730853699208 0 -0.51503806187062418 forward_v I I I I #
coedge $-1 $94 $95 $96 $97 reversed $37 $-1 #
face $-1 $-1 $98 $21 $-1 $99 forward single #
loop $-1 $100 $101 $39 #
cone-surface $-1 -49.356523972094294 -18.227934125773764 5.2847542868967157 0.85716730853699208 0 -0.51503806187062418 0.25751903093531209 0 0.42858365426849604 1 I I -0.70710678118654746 0.70710678118654746 0.5 forward I I I I #
loop $-1 $-1 $102 $27 #
coedge $-1 $64 $64 $103 $104 reversed $40 $-1 #
face $-1 $105 $106 $22 $-1 $107 reversed single #
loop $-1 $-1 $108 $42 #
plane-surface $-1 -52.480849635303812 9.1316587154227733 4.8159408500197785 -0.85716730853699208 0 0.51503806187062418 0.51503806187062418 0 0.85716730853699208 forward_v I I I I #
coedge $-1 $109 $110 $111 $112 reversed $43 $-1 #
face $-1 $-1 $113 $23 $-1 $114 forward single #
loop $-1 $115 $116 $45 #
cone-surface $-1 -49.356523972094294 9.1316587154227733 5.2847542868967157 0.85716730853699208 0 -0.51503806187062418 0.25751903093531209 0 0.42858365426849604 1 I I -0.70710678118654746 0.70710678118654746 0.5 forward I I I I #
loop $-1 $-1 $117 $29 #
coedge $-1 $73 $73 $118 $119 reversed $46 $-1 #
face $-1 $120 $121 $18 $-1 $122 reversed single #
loop $-1 $-1 $123 $48 #
plane-surface $-1 0 -32.388629947661997 0 0 1 0 0 0 1 forward_v I I I I #
coedge $-1 $124 $125 $126 $127 forward $49 $-1 #
coedge $-1 $128 $51 $129 $130 forward $31 $-1 #
coedge $-1 $51 $128 $131 $132 forward $31 $-1 #
coedge $-1 $133 $134 $51 $81 reversed $135 $-1 #
edge $-1 $136 -32.388629947661997 $137 32.388629947661997 $80 $138 forward 7 unknown #
face $-1 $139 $140 $19 $-1 $141 reversed single #
loop $-1 $-1 $142 $52 #
plane-surface $-1 -52.480849635303812 0 0 1 0 0 0 0 -1 forward_v I I I I #
coedge $-1 $143 $144 $145 $146 reversed $53 $-1 #
coedge $-1 $147 $55 $148 $149 reversed $34 $-1 #
coedge $-1 $55 $147 $150 $151 forward $34 $-1 #
coedge $-1 $152 $153 $55 $89 forward $154 $-1 #
edge $-1 $155 -18.708833527063724 $156 -8.6507593141328147 $88 $157 forward 7 unknown #
face $-1 $158 $159 $20 $-1 $160 reversed single #
loop $-1 $-1 $96 $56 #
plane-surface $-1 0 0 8.2634646553683382 0 0 1 1 0 0 forward_v I I I I #
coedge $-1 $161 $162 $163 $164 reversed $57 $-1 #
coedge $-1 $165 $59 $166 $167 reversed $37 $-1 #
coedge $-1 $59 $165 $161 $168 forward $37 $-1 #
coedge $-1 $163 $169 $59 $97 forward $91 $-1 #
edge $-1 $170 -13.216588671844203 $171 -5.011345453929561 $96 $172 forward 7 unknown #
loop $-1 $-1 $103 $60 #
plane-surface $-1 -52.480849635303812 -18.227934125773764 4.8159408500197785 -0.85716730853699208 0 0.51503806187062418 0.51503806187062418 0 0.85716730853699208 forward_v I I I I #
loop $-1 $-1 $173 $39 #
coedge $-1 $101 $101 $102 $174 reversed $61 $-1 #
coedge $-1 $102 $102 $101 $174 forward $63 $-1 #
coedge $-1 $103 $103 $64 $104 forward $98 $-1 #
edge $-1 $175 0 $175 6.2831853071796004 $103 $176 forward 7 unknown #
face $-1 $177 $178 $22 $-1 $179 forward single #
loop $-1 $-1 $180 $65 #
plane-surface $-1 -142.45058689855972 13.234280324380094 58.875211013000836 0 -1 0 0.85716730853699208 0 -0.51503806187062418 forward_v I I I I #
coedge $-1 $181 $182 $183 $184 reversed $66 $-1 #
coedge $-1 $110 $68 $185 $186 reversed $43 $-1 #
coedge $-1 $68 $109 $181 $187 reversed $43 $-1 #
coedge $-1 $183 $188 $68 $112 forward $178 $-1 #
edge $-1 $189 18.744443813976048 $190 20.815925030391263 $111 $191 forward 7 unknown #
loop $-1 $-1 $118 $69 #
plane-surface $-1 -52.480849635303812 9.1316587154227733 4.8159408500197785 -0.85716730853699208 0 0.51503806187062418 0.51503806187062418 0 0.85716730853699208 forward_v I I I I #
loop $-1 $-1 $192 $45 #
coedge $-1 $116 $116 $117 $193 reversed $70 $-1 #
coedge $-1 $117 $117 $116 $193 forward $72 $-1 #
coedge $-1 $118 $118 $73 $119 forward $113 $-1 #
edge $-1 $194 0 $194 6.2831853071796004 $118 $195 forward 7 unknown #
face $-1 $196 $197 $18 $-1 $198 reversed single #
loop $-1 $-1 $199 $74 #
plane-surface $-1 -52.480849635303812 0 0 1 0 0 0 0 -1 forward_v I I I I #
coedge $-1 $200 $131 $201 $202 forward $75 $-1 #
coedge $-1 $203 $77 $200 $204 forward $49 $-1 #
coedge $-1 $77 $203 $205 $206 forward $49 $-1 #
coedge $-1 $134 $133 $77 $127 reversed $135 $-1 #
edge $-1 $207 -32.388629947661997 $208 32.388629947661997 $126 $209 forward 7 unknown #
coedge $-1 $79 $78 $210 $211 forward $31 $-1 #
coedge $-1 $212 $213 $78 $130 reversed $197 $-1 #
edge $-1 $137 -52.480849635303812 $214 52.480849635303812 $129 $215 forward 7 unknown #
coedge $-1 $123 $216 $79 $132 reversed $75 $-1 #
edge $-1 $217 -52.480849635303812 $136 52.480849635303812 $131 $218 forward 7 unknown #
coedge $-1 $126 $80 $216 $219 forward $135 $-1 #
coedge $-1 $80 $126 $212 $220 reversed $135 $-1 #
loop $-1 $-1 $133 $196 #
vertex $-1 $81 $221 #
vertex $-1 $81 $222 #
straight-curve $-1 52.480849635303812 0 8.2634646553683382 0 1 0 I I #
face $-1 $223 $224 $19 $-1 $225 forward single #
loop $-1 $-1 $148 $82 #
plane-surface $-1 0 -32.388629947661997 0 0 1 0 0 0 1 forward_v I I I I #
coedge $-1 $226 $227 $144 $228 forward $83 $-1 #
coedge $-1 $150 $85 $152 $229 reversed $53 $-1 #
coedge $-1 $85 $150 $142 $228 reversed $53 $-1 #
coedge $-1 $230 $231 $85 $146 forward $224 $-1 #
edge $-1 $232 -52.480849635303812 $233 52.480849635303812 $145 $234 forward 7 unknown #
coedge $-1 $87 $86 $226 $235 reversed $34 $-1 #
coedge $-1 $236 $237 $86 $149 forward $140 $-1 #
edge $-1 $238 -52.480849635303812 $155 52.480849635303812 $148 $239 forward 7 unknown #
coedge $-1 $144 $143 $87 $151 reversed $53 $-1 #
edge $-1 $240 -52.480849635303812 $156 52.480849635303812 $150 $241 forward 7 unknown #
coedge $-1 $242 $88 $143 $229 forward $154 $-1 #
coedge $-1 $88 $242 $236 $243 forward $154 $-1 #
loop $-1 $-1 $152 $223 #
vertex $-1 $149 $244 #
vertex $-1 $89 $245 #
straight-curve $-1 52.480849635303812 -13.679796420598271 5.2634646553683382 0 1 0 I I #
face $-1 $-1 $246 $20 $-1 $247 forward single #
loop $-1 $-1 $248 $90 #
plane-surface $-1 -52.480849635303812 0 0 1 0 0 0 0 -1 forward_v I I I I #
coedge $-1 $162 $93 $95 $168 reversed $57 $-1 #
coedge $-1 $93 $161 $248 $249 reversed $57 $-1 #
coedge $-1 $250 $96 $93 $164 forward $91 $-1 #
edge $-1 $171 -20.815925030391263 $251 -18.744443813976048 $163 $252 forward 7 unknown #
coedge $-1 $95 $94 $253 $254 reversed $37 $-1 #
coedge $-1 $255 $256 $94 $167 forward $246 $-1 #
edge $-1 $257 -14.349494410016439 $170 -10.327498037764713 $166 $258 forward 7 unknown #
edge $-1 $259 0 $171 4.0219963722517305 $161 $260 forward 7 unknown #
coedge $-1 $96 $250 $255 $261 forward $91 $-1 #
vertex $-1 $167 $262 #
vertex $-1 $97 $263 #
straight-curve $-1 -50.40936841888859 -9.1139670628868821 8.2634646553683382 0 1 0 I I #
coedge $-1 $173 $173 $-1 $264 reversed $100 $-1 #
edge $-1 $265 0 $265 6.2831853071796004 $101 $266 forward 7 unknown #
vertex $-1 $104 $267 #
ellipse-curve $-1 -51.445109027096208 -18.227934125773764 6.5397027526940601 -0.85716730853699208 0 0.51503806187062418 0.51503806187062418 0 0.85716730853699208 1 I I #
face $-1 $-1 $268 $22 $-1 $269 reversed single #
loop $-1 $-1 $111 $105 #
plane-surface $-1 0 0 8.2634646553683382 0 0 1 1 0 0 forward_v I I I I #
coedge $-1 $270 $271 $272 $273 reversed $106 $-1 #
coedge $-1 $274 $108 $110 $187 forward $66 $-1 #
coedge $-1 $108 $274 $270 $275 forward $66 $-1 #
coedge $-1 $272 $111 $108 $184 forward $178 $-1 #
edge $-1 $190 0.46320774875406556 $276 8.6684509666687077 $183 $277 forward 7 unknown #
coedge $-1 $278 $279 $109 $186 forward $268 $-1 #
edge $-1 $280 -24.62166465648064 $189 -21.17414085113208 $185 $281 forward 7 unknown #
edge $-1 $190 -4.0219963722517305 $280 0 $110 $282 forward 7 unknown #
coedge $-1 $111 $272 $278 $283 forward $178 $-1 #
vertex $-1 $112 $284 #
vertex $-1 $112 $285 #
straight-curve $-1 -71.22529344927986 5.0290371064654522 8.2634646553683382 1 0 0 I I #
coedge $-1 $192 $192 $-1 $286 reversed $115 $-1 #
edge $-1 $287 0 $287 6.2831853071796004 $116 $288 forward 7 unknown #
vertex $-1 $119 $289 #
ellipse-curve $-1 -51.445109027096208 9.1316587154227733 6.5397027526940601 -0.85716730853699208 0 0.51503806187062418 0.51503806187062418 0 0.85716730853699208 1 I I #
face $-1 $-1 $135 $18 $-1 $290 reversed single #
loop $-1 $-1 $212 $120 #
plane-surface $-1 0 32.388629947661997 0 0 -1 0 0 0 -1 forward_v I I I I #
coedge $-1 $291 $210 $213 $292 forward $121 $-1 #
coedge $-1 $216 $123 $124 $204 reversed $75 $-1 #
coedge $-1 $210 $291 $123 $202 reversed $121 $-1 #
edge $-1 $217 -8.2634646553683382 $293 8.2634646553683382 $201 $294 forward 7 unknown #
coedge $-1 $125 $124 $291 $295 forward $49 $-1 #
edge $-1 $208 -52.480849635303812 $293 52.480849635303812 $200 $296 forward 7 unknown #
coedge $-1 $213 $212 $125 $206 reversed $197 $-1 #
edge $-1 $297 -52.480849635303812 $207 52.480849635303812 $205 $298 forward 7 unknown #
vertex $-1 $127 $299 #
vertex $-1 $219 $300 #
straight-curve $-1 52.480849635303812 0 -8.2634646553683382 0 -1 0 I I #
coedge $-1 $199 $201 $128 $211 reversed $121 $-1 #
edge $-1 $214 -32.388629947661997 $217 32.388629947661997 $210 $301 forward 7 unknown #
coedge $-1 $205 $129 $134 $220 forward $197 $-1 #
coedge $-1 $129 $205 $199 $292 reversed $197 $-1 #
vertex $-1 $130 $302 #
straight-curve $-1 0 32.388629947661997 8.2634646553683382 -1 0 0 I I #
coedge $-1 $131 $200 $133 $219 reversed $75 $-1 #
vertex $-1 $211 $303 #
straight-curve $-1 0 -32.388629947661997 8.2634646553683382 1 0 0 I I #
edge $-1 $136 -8.2634646553683382 $208 8.2634646553683382 $133 $304 forward 7 unknown #
edge $-1 $137 -8.2634646553683382 $207 8.2634646553683382 $134 $305 forward 7 unknown #
point $-1 52.480849635303812 -32.388629947661997 8.2634646553683382 #
point $-1 52.480849635303812 32.388629947661997 8.2634646553683382 #
face $-1 $-1 $154 $19 $-1 $306 reversed single #
loop $-1 $-1 $145 $139 #
plane-surface $-1 0 0 8.2634646553683382 0 0 1 1 0 0 forward_v I I I I #
coedge $-1 $307 $142 $147 $235 forward $83 $-1 #
coedge $-1 $142 $307 $230 $308 reversed $83 $-1 #
edge $-1 $233 -4.8817323276841691 $240 -1.8817323276841691 $142 $309 forward 7 unknown #
edge $-1 $156 1.8817323276841691 $232 4.8817323276841691 $152 $310 forward 7 unknown #
coedge $-1 $311 $145 $227 $308 forward $224 $-1 #
coedge $-1 $145 $311 $242 $312 forward $224 $-1 #
vertex $-1 $229 $313 #
vertex $-1 $308 $314 #
straight-curve $-1 0 -22.330555734731085 8.2634646553683382 -1 0 0 I I #
edge $-1 $240 8.6507593141328147 $238 18.708833527063724 $226 $315 forward 7 unknown #
coedge $-1 $316 $148 $153 $243 reversed $140 $-1 #
coedge $-1 $148 $316 $307 $317 forward $140 $-1 #
vertex $-1 $149 $318 #
straight-curve $-1 0 -32.388629947661997 5.2634646553683382 1 0 0 I I #
vertex $-1 $235 $319 #
straight-curve $-1 0 -22.330555734731085 5.2634646553683382 1 0 0 I I #
coedge $-1 $153 $152 $231 $312 reversed $154 $-1 #
edge $-1 $320 -8.2634646553683382 $155 -5.2634646553683382 $153 $321 forward 7 unknown #
point $-1 52.480849635303812 -32.388629947661997 5.2634646553683382 #
point $-1 52.480849635303812 -22.330555734731085 5.2634646553683382 #
loop $-1 $-1 $166 $158 #
plane-surface $-1 0 -22.330555734731085 6.7634646553683382 0 -1 0 0 0 -1 forward_v I I I I #
coedge $-1 $253 $322 $162 $249 forward $159 $-1 #
edge $-1 $251 21.17414085113208 $259 24.62166465648064 $248 $323 forward 7 unknown #
coedge $-1 $169 $163 $322 $324 forward $91 $-1 #
vertex $-1 $324 $325 #
straight-curve $-1 -71.22529344927986 -14.125312516816443 8.2634646553683382 -1 0 0 I I #
coedge $-1 $326 $248 $165 $254 forward $159 $-1 #
edge $-1 $259 5.011345453929561 $257 13.216588671844203 $253 $327 forward 7 unknown #
coedge $-1 $256 $166 $169 $261 reversed $246 $-1 #
coedge $-1 $166 $255 $326 $328 reversed $246 $-1 #
vertex $-1 $328 $329 #
straight-curve $-1 -45.090313845545587 -22.330555734731085 17.115858352320181 0.51503806187062429 0 0.85716730853699219 I I #
vertex $-1 $254 $330 #
straight-curve $-1 -52.480849635303812 -14.125312516816443 4.8159408500197785 0.51503806187062418 0 0.85716730853699208 I I #
edge $-1 $331 -52.480849635303812 $170 -50.409368418888604 $169 $332 forward 7 unknown #
point $-1 -50.409368418888604 -22.330555734731085 8.2634646553683382 #
point $-1 -50.409368418888597 -14.125312516816443 8.2634646553683382 #
edge $-1 $333 1 $333 0 $173 $-1 forward 7 unknown #
vertex $-1 $174 $334 #
ellipse-curve $-1 -49.785107626362787 -18.227934125773764 5.542273317832028 -0.85716730853699208 0 0.51503806187062418 0.51503806187062418 0 0.85716730853699208 1 I I #
point $-1 -50.930070965225582 -18.227934125773764 7.3968700612310521 #
loop $-1 $-1 $185 $177 #
plane-surface $-1 -52.480849635303812 0 0 1 0 0 0 0 -1 forward_v I I I I #
coedge $-1 $271 $180 $182 $275 reversed $106 $-1 #
coedge $-1 $180 $270 $335 $336 reversed $106 $-1 #
coedge $-1 $188 $183 $180 $273 forward $178 $-1 #
edge $-1 $276 -20.815925030391263 $337 -18.744443813976048 $272 $338 forward 7 unknown #
coedge $-1 $182 $181 $279 $339 reversed $66 $-1 #
edge $-1 $340 0 $276 4.0219963722517305 $270 $341 forward 7 unknown #
vertex $-1 $184 $342 #
straight-curve $-1 -50.40936841888859 4.5658293577113866 8.2634646553683382 0 1 0 I I #
coedge $-1 $335 $185 $188 $283 reversed $268 $-1 #
coedge $-1 $185 $335 $274 $339 forward $268 $-1 #
vertex $-1 $186 $343 #
straight-curve $-1 -52.480849635303812 5.0290371064654522 29.437605506500418 0 0 1 I I #
straight-curve $-1 -52.480849635303812 5.0290371064654522 4.8159408500197785 -0.51503806187062418 0 -0.85716730853699208 I I #
edge $-1 $337 -13.234280324380094 $189 -5.0290371064654522 $278 $344 forward 7 unknown #
point $-1 -52.480849635303812 5.0290371064654522 8.2634646553683382 #
point $-1 -50.409368418888597 5.0290371064654522 8.2634646553683382 #
edge $-1 $345 1 $345 0 $192 $-1 forward 7 unknown #
vertex $-1 $193 $346 #
ellipse-curve $-1 -49.785107626362787 9.1316587154227733 5.542273317832028 -0.85716730853699208 0 0.51503806187062418 0.51503806187062418 0 0.85716730853699208 1 I I #
point $-1 -50.930070965225582 9.1316587154227733 7.3968700612310521 #
plane-surface $-1 52.480849635303812 0 0 -1 0 0 0 0 1 forward_v I I I I #
coedge $-1 $201 $199 $203 $295 reversed $121 $-1 #
edge $-1 $214 -8.2634646553683382 $297 8.2634646553683382 $213 $347 forward 7 unknown #
vertex $-1 $295 $348 #
straight-curve $-1 -52.480849635303812 -32.388629947661997 0 0 0 -1 I I #
edge $-1 $293 -32.388629947661997 $297 32.388629947661997 $291 $349 forward 7 unknown #
straight-curve $-1 0 -32.388629947661997 -8.2634646553683382 -1 0 0 I I #
vertex $-1 $206 $350 #
straight-curve $-1 0 32.388629947661997 -8.2634646553683382 1 0 0 I I #
point $-1 52.480849635303812 32.388629947661997 -8.2634646553683382 #
point $-1 52.480849635303812 -32.388629947661997 -8.2634646553683382 #
straight-curve $-1 -52.480849635303812 0 8.2634646553683382 0 -1 0 I I #
point $-1 -52.480849635303812 32.388629947661997 8.2634646553683382 #
point $-1 -52.480849635303812 -32.388629947661997 8.2634646553683382 #
straight-curve $-1 52.480849635303812 -32.388629947661997 0 0 0 -1 I I #
straight-curve $-1 52.480849635303812 32.388629947661997 0 0 0 -1 I I #
plane-surface $-1 52.480849635303812 0 0 -1 0 0 0 0 1 forward_v I I I I #
coedge $-1 $227 $226 $237 $317 reversed $83 $-1 #
edge $-1 $233 22.330555734731085 $351 32.388629947661997 $227 $352 forward 7 unknown #
straight-curve $-1 -52.480849635303812 -22.330555734731085 3.3817323276841691 0 0 -1 I I #
straight-curve $-1 52.480849635303812 -22.330555734731085 3.3817323276841691 0 0 1 I I #
coedge $-1 $231 $230 $316 $353 forward $224 $-1 #
edge $-1 $320 -32.388629947661997 $232 -22.330555734731085 $242 $354 forward 7 unknown #
point $-1 52.480849635303812 -22.330555734731085 8.2634646553683382 #
point $-1 -52.480849635303812 -22.330555734731085 8.2634646553683382 #
straight-curve $-1 -52.480849635303812 -13.679796420598271 5.2634646553683382 0 -1 0 I I #
coedge $-1 $237 $236 $311 $353 reversed $140 $-1 #
edge $-1 $351 -8.2634646553683382 $238 -5.2634646553683382 $307 $355 forward 7 unknown #
point $-1 -52.480849635303812 -32.388629947661997 5.2634646553683382 #
point $-1 -52.480849635303812 -22.330555734731085 5.2634646553683382 #
vertex $-1 $312 $356 #
straight-curve $-1 52.480849635303812 -32.388629947661997 0 0 0 -1 I I #
coedge $-1 $248 $326 $250 $324 reversed $159 $-1 #
straight-curve $-1 -52.480849635303812 -14.125312516816443 29.437605506500418 0 0 -1 I I #
edge $-1 $251 14.125312516816443 $331 22.330555734731085 $322 $357 forward 7 unknown #
point $-1 -52.480849635303812 -14.125312516816443 8.2634646553683382 #
coedge $-1 $322 $253 $256 $328 forward $159 $-1 #
straight-curve $-1 -52.480849635303812 -9.1139670628868821 4.8159408500197749 0 -1 0 I I #
edge $-1 $257 -24.62166465648064 $331 -21.17414085113208 $326 $358 forward 7 unknown #
point $-1 -52.480849635303812 -22.330555734731085 4.8159408500197785 #
point $-1 -52.480849635303812 -14.125312516816443 4.8159408500197785 #
vertex $-1 $328 $359 #
straight-curve $-1 0 -22.330555734731085 8.2634646553683382 1 0 0 I I #
vertex $-1 $264 $360 #
point $-1 -49.270069564492168 -18.227934125773764 6.39944062636902 #
coedge $-1 $279 $278 $271 $336 forward $268 $-1 #
edge $-1 $337 21.17414085113208 $340 24.62166465648064 $335 $361 forward 7 unknown #
vertex $-1 $283 $362 #
straight-curve $-1 -71.22529344927986 13.234280324380094 8.2634646553683382 -1 0 0 I I #
edge $-1 $340 -8.6684509666687077 $280 -0.46320774875406556 $279 $363 forward 7 unknown #
vertex $-1 $339 $364 #
straight-curve $-1 -52.480849635303812 13.234280324380094 4.8159408500197785 0.51503806187062418 0 0.85716730853699208 I I #
point $-1 -50.409368418888597 13.234280324380094 8.2634646553683382 #
point $-1 -52.480849635303812 5.0290371064654522 4.8159408500197785 #
straight-curve $-1 -52.480849635303812 0 8.2634646553683382 0 -1 0 I I #
vertex $-1 $286 $365 #
point $-1 -49.270069564492168 9.1316587154227733 6.39944062636902 #
straight-curve $-1 -52.480849635303812 32.388629947661997 0 0 0 -1 I I #
point $-1 -52.480849635303812 -32.388629947661997 -8.2634646553683382 #
straight-curve $-1 -52.480849635303812 0 -8.2634646553683382 0 1 0 I I #
point $-1 -52.480849635303812 32.388629947661997 -8.2634646553683382 #
vertex $-1 $308 $366 #
straight-curve $-1 -52.480849635303812 0 8.2634646553683382 0 -1 0 I I #
edge $-1 $351 -52.480849635303812 $320 52.480849635303812 $316 $367 forward 7 unknown #
straight-curve $-1 52.480849635303812 0 8.2634646553683382 0 1 0 I I #
straight-curve $-1 -52.480849635303812 -32.388629947661997 0 0 0 -1 I I #
point $-1 52.480849635303812 -32.388629947661997 8.2634646553683382 #
straight-curve $-1 -52.480849635303812 0 8.2634646553683382 0 -1 0 I I #
straight-curve $-1 -52.480849635303812 -22.330555734731085 29.437605506500418 0 0 1 I I #
point $-1 -52.480849635303812 -22.330555734731085 8.2634646553683382 #
point $-1 -48.927940317825801 -18.227934125773764 5.0272352559614033 #
straight-curve $-1 -52.480849635303812 13.234280324380094 29.437605506500418 0 0 -1 I I #
point $-1 -52.480849635303812 13.234280324380094 8.2634646553683382 #
straight-curve $-1 -52.480849635303812 4.5658293577113866 4.8159408500197749 0 -1 0 I I #
point $-1 -52.480849635303812 13.234280324380094 4.8159408500197785 #
point $-1 -48.927940317825801 9.1316587154227733 5.0272352559614033 #
point $-1 -52.480849635303812 -32.388629947661997 8.2634646553683382 #
straight-curve $-1 0 -32.388629947661997 8.2634646553683382 1 0 0 I I #
End-of-ACIS-data 