500 0 13 0           
7 Unknown 11 ACIS 5.0 NT 24 Thu Mar 25 16:22:22 1999 
-1 9.9999999999999995e-007 1e-010 
body $-1 $13 $-1 $14 #
body $-1 $15 $-1 $16 #
body $-1 $17 $-1 $18 #
body $-1 $19 $-1 $20 #
body $-1 $21 $-1 $22 #
body $-1 $23 $-1 $24 #
body $-1 $25 $-1 $26 #
body $-1 $27 $-1 $28 #
body $-1 $29 $-1 $30 #
body $-1 $31 $-1 $32 #
body $-1 $33 $-1 $34 #
body $-1 $35 $-1 $36 #
body $-1 $37 $-1 $38 #
lump $-1 $-1 $39 $0 #
transform $-1 1 0 0 0 1 0 0 0 1 67.327494125186931 43.905367037494486 15.93266236862501 1 rotate no_reflect no_shear #
lump $-1 $-1 $40 $1 #
transform $-1 1 0 0 0 1 0 0 0 1 9.1226076754763774 43.905367037494486 28.609016664602393 1 rotate no_reflect no_shear #
lump $-1 $-1 $41 $2 #
transform $-1 1 0 0 0 0.61566146476048833 0.78801076186113728 0 -0.78801076186113728 0.61566146476048833 24.233033940794037 -106.10957987957958 108.85522183857456 1 rotate no_reflect no_shear #
lump $-1 $-1 $42 $3 #
transform $-1 1 0 0 0 -0.61566146476048833 -0.78801076186113728 0 0.78801076186113728 -0.61566146476048833 21.666825973719202 4.2967223476998839 27.356722999948971 1 rotate no_reflect no_shear #
lump $-1 $-1 $43 $4 #
transform $-1 1 0 0 0 -0.61566146476048833 -0.78801076186113728 0 0.78801076186113728 -0.61566146476048833 26.799241907868876 4.2967223476998839 27.356722999948971 1 rotate no_reflect no_shear #
lump $-1 $-1 $44 $5 #
transform $-1 1 0 0 0 0.81915203911291934 -0.57357644374324357 0 0.57357644374324357 0.81915203911291934 39.994164381612691 93.115321494397122 188.51256054833374 1 rotate no_reflect no_shear #
lump $-1 $-1 $45 $6 #
transform $-1 1 0 0 0 -0.81915203911291934 0.57357644374324357 0 -0.57357644374324357 -0.81915203911291934 32.764444967391675 83.140221190205168 27.285707505917674 1 rotate no_reflect no_shear #
lump $-1 $-1 $46 $7 #
transform $-1 1 0 0 0 -0.81915203911291934 0.57357644374324357 0 -0.57357644374324357 -0.81915203911291934 39.994164381612691 83.140221190205168 27.285707505917674 1 rotate no_reflect no_shear #
lump $-1 $-1 $47 $8 #
transform $-1 1 0 0 0 -0.81915203911291934 0.57357644374324357 0 -0.57357644374324357 -0.81915203911291934 47.223883795833707 83.140221190205168 27.285707505917674 1 rotate no_reflect no_shear #
lump $-1 $-1 $48 $9 #
transform $-1 1 0 0 0 0.81915203911291934 -0.57357644374324357 0 0.57357644374324357 0.81915203911291934 98.199050831323248 93.115321494397122 188.51256054833374 1 rotate no_reflect no_shear #
lump $-1 $-1 $49 $10 #
transform $-1 1 0 0 0 -0.81915203911291934 0.57357644374324357 0 -0.57357644374324357 -0.81915203911291934 90.969331417102239 83.140221190205168 27.285707505917674 1 rotate no_reflect no_shear #
lump $-1 $-1 $50 $11 #
transform $-1 1 0 0 0 -0.81915203911291934 0.57357644374324357 0 -0.57357644374324357 -0.81915203911291934 98.199050831323248 83.140221190205168 27.285707505917674 1 rotate no_reflect no_shear #
lump $-1 $-1 $51 $12 #
transform $-1 1 0 0 0 -0.81915203911291934 0.57357644374324357 0 -0.57357644374324357 -0.81915203911291934 105.42877024554426 83.140221190205168 27.285707505917674 1 rotate no_reflect no_shear #
shell $-1 $-1 $-1 $52 $-1 $13 #
shell $-1 $-1 $-1 $53 $-1 $15 #
shell $-1 $-1 $-1 $54 $-1 $17 #
shell $-1 $-1 $-1 $55 $-1 $19 #
shell $-1 $-1 $-1 $56 $-1 $21 #
shell $-1 $-1 $-1 $57 $-1 $23 #
shell $-1 $-1 $-1 $58 $-1 $25 #
shell $-1 $-1 $-1 $59 $-1 $27 #
shell $-1 $-1 $-1 $60 $-1 $29 #
shell $-1 $-1 $-1 $61 $-1 $31 #
shell $-1 $-1 $-1 $62 $-1 $33 #
shell $-1 $-1 $-1 $63 $-1 $35 #
shell $-1 $-1 $-1 $64 $-1 $37 #
face $-1 $65 $66 $39 $-1 $67 forward single #
face $-1 $68 $69 $40 $-1 $70 forward single #
face $-1 $71 $72 $41 $-1 $73 forward single #
face $-1 $74 $75 $42 $-1 $76 forward single #
face $-1 $77 $78 $43 $-1 $79 forward single #
face $-1 $80 $81 $44 $-1 $82 forward single #
face $-1 $83 $84 $45 $-1 $85 forward single #
face $-1 $86 $87 $46 $-1 $88 forward single #
face $-1 $89 $90 $47 $-1 $91 forward single #
face $-1 $92 $93 $48 $-1 $94 forward single #
face $-1 $95 $96 $49 $-1 $97 forward single #
face $-1 $98 $99 $50 $-1 $100 forward single #
face $-1 $101 $102 $51 $-1 $103 forward single #
face $-1 $104 $105 $39 $-1 $106 reversed single #
loop $-1 $-1 $107 $52 #
plane-surface $-1 0 0 15.93266236862501 0 0 1 1 0 0 forward_v I I I I #
face $-1 $108 $109 $40 $-1 $110 reversed single #
loop $-1 $-1 $111 $53 #
plane-surface $-1 0 0 3.2563080726476272 0 0 1 1 0 0 forward_v I I I I #
face $-1 $112 $113 $41 $-1 $114 reversed single #
loop $-1 $-1 $115 $54 #
plane-surface $-1 0 0 134.65498825037386 0 0 1 1 0 0 forward_v I I I I #
face $-1 $116 $117 $42 $-1 $118 forward single #
loop $-1 $119 $120 $55 #
cone-surface $-1 0 0 -1.5109256263924067 0 0 1 1 0 0 1 I I 0 1 1 forward I I I I #
face $-1 $121 $122 $43 $-1 $123 forward single #
loop $-1 $124 $125 $56 #
cone-surface $-1 0 0 -1.5109256263924067 0 0 1 1 0 0 1 I I 0 1 1 forward I I I I #
face $-1 $126 $127 $44 $-1 $128 reversed single #
loop $-1 $-1 $129 $57 #
plane-surface $-1 0 0 134.65498825037383 0 0 1 1 0 0 forward_v I I I I #
face $-1 $130 $131 $45 $-1 $132 forward single #
loop $-1 $133 $134 $58 #
cone-surface $-1 0 0 -1.9428998687704073 0 0 1 1.5 0 0 1 I I 0 1 1.5 forward I I I I #
face $-1 $135 $136 $46 $-1 $137 forward single #
loop $-1 $138 $139 $59 #
cone-surface $-1 0 0 -1.9428998687704073 0 0 1 1.5 0 0 1 I I 0 1 1.5 forward I I I I #
face $-1 $140 $141 $47 $-1 $142 forward single #
loop $-1 $143 $144 $60 #
cone-surface $-1 0 0 -1.9428998687704073 0 0 1 1.5 0 0 1 I I 0 1 1.5 forward I I I I #
face $-1 $145 $146 $48 $-1 $147 reversed single #
loop $-1 $-1 $148 $61 #
plane-surface $-1 0 0 134.65498825037383 0 0 1 1 0 0 forward_v I I I I #
face $-1 $149 $150 $49 $-1 $151 forward single #
loop $-1 $152 $153 $62 #
cone-surface $-1 0 0 -1.9428998687704073 0 0 1 1.5 0 0 1 I I 0 1 1.5 forward I I I I #
face $-1 $154 $155 $50 $-1 $156 forward single #
loop $-1 $157 $158 $63 #
cone-surface $-1 0 0 -1.9428998687704073 0 0 1 1.5 0 0 1 I I 0 1 1.5 forward I I I I #
face $-1 $159 $160 $51 $-1 $161 forward single #
loop $-1 $162 $163 $64 #
cone-surface $-1 0 0 -1.9428998687704073 0 0 1 1.5 0 0 1 I I 0 1 1.5 forward I I I I #
face $-1 $164 $165 $39 $-1 $166 reversed single #
loop $-1 $-1 $167 $65 #
plane-surface $-1 0 0 -15.93266236862501 0 0 1 1 0 0 forward_v I I I I #
coedge $-1 $168 $169 $170 $171 forward $66 $-1 #
face $-1 $172 $173 $40 $-1 $174 reversed single #
loop $-1 $-1 $175 $68 #
plane-surface $-1 0 0 -3.2563080726476272 0 0 1 1 0 0 forward_v I I I I #
coedge $-1 $176 $177 $178 $179 forward $69 $-1 #
face $-1 $180 $181 $41 $-1 $182 reversed single #
loop $-1 $-1 $183 $71 #
plane-surface $-1 0 0 -134.65498825037386 0 0 1 1 0 0 forward_v I I I I #
coedge $-1 $184 $185 $186 $187 forward $72 $-1 #
face $-1 $-1 $188 $42 $-1 $189 forward single #
loop $-1 $-1 $190 $74 #
plane-surface $-1 0 0 -2.5218512527848134 0 0 -1 -1 0 0 forward_v I I I I #
loop $-1 $-1 $191 $55 #
coedge $-1 $120 $120 $190 $192 reversed $75 $-1 #
face $-1 $-1 $193 $43 $-1 $194 forward single #
loop $-1 $-1 $195 $77 #
plane-surface $-1 0 0 -2.5218512527848134 0 0 -1 -1 0 0 forward_v I I I I #
loop $-1 $-1 $196 $56 #
coedge $-1 $125 $125 $195 $197 reversed $78 $-1 #
face $-1 $198 $199 $44 $-1 $200 reversed single #
loop $-1 $-1 $201 $80 #
plane-surface $-1 0 0 -134.65498825037383 0 0 1 1 0 0 forward_v I I I I #
coedge $-1 $202 $203 $204 $205 forward $81 $-1 #
face $-1 $-1 $206 $45 $-1 $207 forward single #
loop $-1 $-1 $208 $83 #
plane-surface $-1 0 0 -3.1357997375408164 0 0 -1 -1 0 0 forward_v I I I I #
loop $-1 $-1 $209 $58 #
coedge $-1 $134 $134 $208 $210 reversed $84 $-1 #
face $-1 $-1 $211 $46 $-1 $212 forward single #
loop $-1 $-1 $213 $86 #
plane-surface $-1 0 0 -3.1357997375408164 0 0 -1 -1 0 0 forward_v I I I I #
loop $-1 $-1 $214 $59 #
coedge $-1 $139 $139 $213 $215 reversed $87 $-1 #
face $-1 $-1 $216 $47 $-1 $217 forward single #
loop $-1 $-1 $218 $89 #
plane-surface $-1 0 0 -3.1357997375408164 0 0 -1 -1 0 0 forward_v I I I I #
loop $-1 $-1 $219 $60 #
coedge $-1 $144 $144 $218 $220 reversed $90 $-1 #
face $-1 $221 $222 $48 $-1 $223 reversed single #
loop $-1 $-1 $224 $92 #
plane-surface $-1 0 0 -134.65498825037383 0 0 1 1 0 0 forward_v I I I I #
coedge $-1 $225 $226 $227 $228 forward $93 $-1 #
face $-1 $-1 $229 $49 $-1 $230 forward single #
loop $-1 $-1 $231 $95 #
plane-surface $-1 0 0 -3.1357997375408164 0 0 -1 -1 0 0 forward_v I I I I #
loop $-1 $-1 $232 $62 #
coedge $-1 $153 $153 $231 $233 reversed $96 $-1 #
face $-1 $-1 $234 $50 $-1 $235 forward single #
loop $-1 $-1 $236 $98 #
plane-surface $-1 0 0 -3.1357997375408164 0 0 -1 -1 0 0 forward_v I I I I #
loop $-1 $-1 $237 $63 #
coedge $-1 $158 $158 $236 $238 reversed $99 $-1 #
face $-1 $-1 $239 $51 $-1 $240 forward single #
loop $-1 $-1 $241 $101 #
plane-surface $-1 0 0 -3.1357997375408164 0 0 -1 -1 0 0 forward_v I I I I #
loop $-1 $-1 $242 $64 #
coedge $-1 $163 $163 $241 $243 reversed $102 $-1 #
face $-1 $244 $245 $39 $-1 $246 reversed single #
loop $-1 $-1 $247 $104 #
plane-surface $-1 0 -43.905367037494486 0 0 1 0 0 0 1 forward_v I I I I #
coedge $-1 $248 $249 $250 $251 forward $105 $-1 #
coedge $-1 $252 $107 $253 $254 forward $66 $-1 #
coedge $-1 $107 $252 $255 $256 forward $66 $-1 #
coedge $-1 $257 $258 $107 $171 reversed $259 $-1 #
edge $-1 $260 -43.905367037494486 $261 43.905367037494486 $170 $262 forward 7 unknown #
face $-1 $263 $264 $40 $-1 $265 reversed single #
loop $-1 $-1 $266 $108 #
plane-surface $-1 0 -43.905367037494486 0 0 1 0 0 0 1 forward_v I I I I #
coedge $-1 $267 $268 $269 $270 forward $109 $-1 #
coedge $-1 $271 $111 $272 $273 forward $69 $-1 #
coedge $-1 $111 $271 $274 $275 forward $69 $-1 #
coedge $-1 $276 $277 $111 $179 reversed $278 $-1 #
edge $-1 $279 -43.905367037494486 $280 43.905367037494486 $178 $281 forward 7 unknown #
face $-1 $282 $283 $41 $-1 $284 reversed single #
loop $-1 $-1 $285 $112 #
plane-surface $-1 0 -269.30997650074772 0 0 1 0 0 0 1 forward_v I I I I #
coedge $-1 $286 $287 $288 $289 forward $113 $-1 #
coedge $-1 $290 $115 $291 $292 forward $72 $-1 #
coedge $-1 $115 $290 $293 $294 forward $72 $-1 #
coedge $-1 $295 $296 $115 $187 reversed $297 $-1 #
edge $-1 $298 -269.30997650074772 $299 269.30997650074772 $186 $300 forward 7 unknown #
loop $-1 $301 $302 $116 #
cone-surface $-1 0 0 0 0 0 1 0.5 0 0 1 I I -0.70710678118654746 0.70710678118654746 0.5 forward I I I I #
coedge $-1 $190 $190 $120 $192 forward $117 $-1 #
coedge $-1 $191 $191 $302 $303 forward $119 $-1 #
edge $-1 $304 0 $304 6.2831853071796004 $190 $305 forward 7 unknown #
loop $-1 $306 $307 $121 #
cone-surface $-1 0 0 0 0 0 1 0.5 0 0 1 I I -0.70710678118654746 0.70710678118654746 0.5 forward I I I I #
coedge $-1 $195 $195 $125 $197 forward $122 $-1 #
coedge $-1 $196 $196 $307 $308 forward $124 $-1 #
edge $-1 $309 0 $309 6.2831853071796004 $195 $310 forward 7 unknown #
face $-1 $311 $312 $44 $-1 $313 reversed single #
loop $-1 $-1 $314 $126 #
plane-surface $-1 0 -269.30997650074772 0 0 1 0 0 0 1 forward_v I I I I #
coedge $-1 $315 $316 $317 $318 forward $127 $-1 #
coedge $-1 $319 $129 $320 $321 forward $81 $-1 #
coedge $-1 $129 $319 $322 $323 forward $81 $-1 #
coedge $-1 $324 $325 $129 $205 reversed $326 $-1 #
edge $-1 $327 -269.30997650074772 $328 269.30997650074772 $204 $329 forward 7 unknown #
loop $-1 $330 $331 $130 #
cone-surface $-1 0 0 0 0 0 1 0.75 0 0 1 I I -0.70710678118654757 0.70710678118654757 0.75 forward I I I I #
coedge $-1 $208 $208 $134 $210 forward $131 $-1 #
coedge $-1 $209 $209 $331 $332 forward $133 $-1 #
edge $-1 $333 0 $333 6.2831853071796004 $208 $334 forward 7 unknown #
loop $-1 $335 $336 $135 #
cone-surface $-1 0 0 0 0 0 1 0.75 0 0 1 I I -0.70710678118654757 0.70710678118654757 0.75 forward I I I I #
coedge $-1 $213 $213 $139 $215 forward $136 $-1 #
coedge $-1 $214 $214 $336 $337 forward $138 $-1 #
edge $-1 $338 0 $338 6.2831853071796004 $213 $339 forward 7 unknown #
loop $-1 $340 $341 $140 #
cone-surface $-1 0 0 0 0 0 1 0.75 0 0 1 I I -0.70710678118654757 0.70710678118654757 0.75 forward I I I I #
coedge $-1 $218 $218 $144 $220 forward $141 $-1 #
coedge $-1 $219 $219 $341 $342 forward $143 $-1 #
edge $-1 $343 0 $343 6.2831853071796004 $218 $344 forward 7 unknown #
face $-1 $345 $346 $48 $-1 $347 reversed single #
loop $-1 $-1 $348 $145 #
plane-surface $-1 0 -269.30997650074772 0 0 1 0 0 0 1 forward_v I I I I #
coedge $-1 $349 $350 $351 $352 forward $146 $-1 #
coedge $-1 $353 $148 $354 $355 forward $93 $-1 #
coedge $-1 $148 $353 $356 $357 forward $93 $-1 #
coedge $-1 $358 $359 $148 $228 reversed $360 $-1 #
edge $-1 $361 -269.30997650074772 $362 269.30997650074772 $227 $363 forward 7 unknown #
loop $-1 $364 $365 $149 #
cone-surface $-1 0 0 0 0 0 1 0.75 0 0 1 I I -0.70710678118654757 0.70710678118654757 0.75 forward I I I I #
coedge $-1 $231 $231 $153 $233 forward $150 $-1 #
coedge $-1 $232 $232 $365 $366 forward $152 $-1 #
edge $-1 $367 0 $367 6.2831853071796004 $231 $368 forward 7 unknown #
loop $-1 $369 $370 $154 #
cone-surface $-1 0 0 0 0 0 1 0.75 0 0 1 I I -0.70710678118654757 0.70710678118654757 0.75 forward I I I I #
coedge $-1 $236 $236 $158 $238 forward $155 $-1 #
coedge $-1 $237 $237 $370 $371 forward $157 $-1 #
edge $-1 $372 0 $372 6.2831853071796004 $236 $373 forward 7 unknown #
loop $-1 $374 $375 $159 #
cone-surface $-1 0 0 0 0 0 1 0.75 0 0 1 I I -0.70710678118654757 0.70710678118654757 0.75 forward I I I I #
coedge $-1 $241 $241 $163 $243 forward $160 $-1 #
coedge $-1 $242 $242 $375 $376 forward $162 $-1 #
edge $-1 $377 0 $377 6.2831853071796004 $241 $378 forward 7 unknown #
face $-1 $379 $380 $39 $-1 $381 reversed single #
loop $-1 $-1 $382 $164 #
plane-surface $-1 -67.327494125186931 0 0 1 0 0 0 0 -1 forward_v I I I I #
coedge $-1 $383 $255 $384 $385 forward $165 $-1 #
coedge $-1 $386 $167 $383 $387 forward $105 $-1 #
coedge $-1 $167 $386 $388 $389 forward $105 $-1 #
coedge $-1 $258 $257 $167 $251 reversed $259 $-1 #
edge $-1 $390 -43.905367037494486 $391 43.905367037494486 $250 $392 forward 7 unknown #
coedge $-1 $169 $168 $393 $394 forward $66 $-1 #
coedge $-1 $395 $396 $168 $254 reversed $380 $-1 #
edge $-1 $261 -67.327494125186931 $397 67.327494125186931 $253 $398 forward 7 unknown #
coedge $-1 $247 $399 $169 $256 reversed $165 $-1 #
edge $-1 $400 -67.327494125186931 $260 67.327494125186931 $255 $401 forward 7 unknown #
coedge $-1 $250 $170 $399 $402 forward $259 $-1 #
coedge $-1 $170 $250 $395 $403 reversed $259 $-1 #
loop $-1 $-1 $257 $379 #
vertex $-1 $171 $404 #
vertex $-1 $171 $405 #
straight-curve $-1 67.327494125186931 0 15.93266236862501 0 1 0 I I #
face $-1 $406 $407 $40 $-1 $408 reversed single #
loop $-1 $-1 $409 $172 #
plane-surface $-1 -9.1226076754763774 0 0 1 0 0 0 0 -1 forward_v I I I I #
coedge $-1 $410 $274 $411 $412 forward $173 $-1 #
coedge $-1 $413 $175 $410 $414 forward $109 $-1 #
coedge $-1 $175 $413 $415 $416 forward $109 $-1 #
coedge $-1 $277 $276 $175 $270 reversed $278 $-1 #
edge $-1 $417 -43.905367037494486 $418 43.905367037494486 $269 $419 forward 7 unknown #
coedge $-1 $177 $176 $420 $421 forward $69 $-1 #
coedge $-1 $422 $423 $176 $273 reversed $407 $-1 #
edge $-1 $280 -9.1226076754763774 $424 9.1226076754763774 $272 $425 forward 7 unknown #
coedge $-1 $266 $426 $177 $275 reversed $173 $-1 #
edge $-1 $427 -9.1226076754763774 $279 9.1226076754763774 $274 $428 forward 7 unknown #
coedge $-1 $269 $178 $426 $429 forward $278 $-1 #
coedge $-1 $178 $269 $422 $430 reversed $278 $-1 #
loop $-1 $-1 $276 $406 #
vertex $-1 $179 $431 #
vertex $-1 $179 $432 #
straight-curve $-1 9.1226076754763774 0 3.2563080726476272 0 1 0 I I #
face $-1 $433 $434 $41 $-1 $435 reversed single #
loop $-1 $-1 $436 $180 #
plane-surface $-1 -5.9878185898412823 0 0 1 0 0 0 0 -1 forward_v I I I I #
coedge $-1 $437 $293 $438 $439 forward $181 $-1 #
coedge $-1 $440 $183 $437 $441 forward $113 $-1 #
coedge $-1 $183 $440 $442 $443 forward $113 $-1 #
coedge $-1 $296 $295 $183 $289 reversed $297 $-1 #
edge $-1 $444 -269.30997650074772 $445 269.30997650074772 $288 $446 forward 7 unknown #
coedge $-1 $185 $184 $447 $448 forward $72 $-1 #
coedge $-1 $449 $450 $184 $292 reversed $434 $-1 #
edge $-1 $299 -5.9878185898412823 $451 5.9878185898412823 $291 $452 forward 7 unknown #
coedge $-1 $285 $453 $185 $294 reversed $181 $-1 #
edge $-1 $454 -5.9878185898412823 $298 5.9878185898412823 $293 $455 forward 7 unknown #
coedge $-1 $288 $186 $453 $456 forward $297 $-1 #
coedge $-1 $186 $288 $449 $457 reversed $297 $-1 #
loop $-1 $-1 $295 $433 #
vertex $-1 $187 $458 #
vertex $-1 $187 $459 #
straight-curve $-1 5.9878185898412823 0 134.65498825037386 0 1 0 I I #
loop $-1 $-1 $460 $116 #
coedge $-1 $302 $302 $191 $303 reversed $188 $-1 #
edge $-1 $461 0 $461 6.2831853071796004 $302 $462 forward 7 unknown #
vertex $-1 $192 $463 #
ellipse-curve $-1 0 0 -2.5218512527848134 0 0 -1 1 0 0 1 I I #
loop $-1 $-1 $464 $121 #
coedge $-1 $307 $307 $196 $308 reversed $193 $-1 #
edge $-1 $465 0 $465 6.2831853071796004 $307 $466 forward 7 unknown #
vertex $-1 $197 $467 #
ellipse-curve $-1 0 0 -2.5218512527848134 0 0 -1 1 0 0 1 I I #
face $-1 $468 $469 $44 $-1 $470 reversed single #
loop $-1 $-1 $471 $198 #
plane-surface $-1 -12.049532357035023 0 0 1 0 0 0 0 -1 forward_v I I I I #
coedge $-1 $472 $322 $473 $474 forward $199 $-1 #
coedge $-1 $475 $201 $472 $476 forward $127 $-1 #
coedge $-1 $201 $475 $477 $478 forward $127 $-1 #
coedge $-1 $325 $324 $201 $318 reversed $326 $-1 #
edge $-1 $479 -269.30997650074772 $480 269.30997650074772 $317 $481 forward 7 unknown #
coedge $-1 $203 $202 $482 $483 forward $81 $-1 #
coedge $-1 $484 $485 $202 $321 reversed $469 $-1 #
edge $-1 $328 -12.049532357035023 $486 12.049532357035023 $320 $487 forward 7 unknown #
coedge $-1 $314 $488 $203 $323 reversed $199 $-1 #
edge $-1 $489 -12.049532357035023 $327 12.049532357035023 $322 $490 forward 7 unknown #
coedge $-1 $317 $204 $488 $491 forward $326 $-1 #
coedge $-1 $204 $317 $484 $492 reversed $326 $-1 #
loop $-1 $-1 $324 $468 #
vertex $-1 $205 $493 #
vertex $-1 $205 $494 #
straight-curve $-1 12.049532357035023 0 134.65498825037383 0 1 0 I I #
loop $-1 $-1 $495 $130 #
coedge $-1 $331 $331 $209 $332 reversed $206 $-1 #
edge $-1 $496 0 $496 6.2831853071796004 $331 $497 forward 7 unknown #
vertex $-1 $210 $498 #
ellipse-curve $-1 0 0 -3.1357997375408164 0 0 -1 1.5 0 0 1 I I #
loop $-1 $-1 $499 $135 #
coedge $-1 $336 $336 $214 $337 reversed $211 $-1 #
edge $-1 $500 0 $500 6.2831853071796004 $336 $501 forward 7 unknown #
vertex $-1 $215 $502 #
ellipse-curve $-1 0 0 -3.1357997375408164 0 0 -1 1.5 0 0 1 I I #
loop $-1 $-1 $503 $140 #
coedge $-1 $341 $341 $219 $342 reversed $216 $-1 #
edge $-1 $504 0 $504 6.2831853071796004 $341 $505 forward 7 unknown #
vertex $-1 $220 $506 #
ellipse-curve $-1 0 0 -3.1357997375408164 0 0 -1 1.5 0 0 1 I I #
face $-1 $507 $508 $48 $-1 $509 reversed single #
loop $-1 $-1 $510 $221 #
plane-surface $-1 -12.049532357035023 0 0 1 0 0 0 0 -1 forward_v I I I I #
coedge $-1 $511 $356 $512 $513 forward $222 $-1 #
coedge $-1 $514 $224 $511 $515 forward $146 $-1 #
coedge $-1 $224 $514 $516 $517 forward $146 $-1 #
coedge $-1 $359 $358 $224 $352 reversed $360 $-1 #
edge $-1 $518 -269.30997650074772 $519 269.30997650074772 $351 $520 forward 7 unknown #
coedge $-1 $226 $225 $521 $522 forward $93 $-1 #
coedge $-1 $523 $524 $225 $355 reversed $508 $-1 #
edge $-1 $362 -12.049532357035023 $525 12.049532357035023 $354 $526 forward 7 unknown #
coedge $-1 $348 $527 $226 $357 reversed $222 $-1 #
edge $-1 $528 -12.049532357035023 $361 12.049532357035023 $356 $529 forward 7 unknown #
coedge $-1 $351 $227 $527 $530 forward $360 $-1 #
coedge $-1 $227 $351 $523 $531 reversed $360 $-1 #
loop $-1 $-1 $358 $507 #
vertex $-1 $228 $532 #
vertex $-1 $228 $533 #
straight-curve $-1 12.049532357035023 0 134.65498825037383 0 1 0 I I #
loop $-1 $-1 $534 $149 #
coedge $-1 $365 $365 $232 $366 reversed $229 $-1 #
edge $-1 $535 0 $535 6.2831853071796004 $365 $536 forward 7 unknown #
vertex $-1 $233 $537 #
ellipse-curve $-1 0 0 -3.1357997375408164 0 0 -1 1.5 0 0 1 I I #
loop $-1 $-1 $538 $154 #
coedge $-1 $370 $370 $237 $371 reversed $234 $-1 #
edge $-1 $539 0 $539 6.2831853071796004 $370 $540 forward 7 unknown #
vertex $-1 $238 $541 #
ellipse-curve $-1 0 0 -3.1357997375408164 0 0 -1 1.5 0 0 1 I I #
loop $-1 $-1 $542 $159 #
coedge $-1 $375 $375 $242 $376 reversed $239 $-1 #
edge $-1 $543 0 $543 6.2831853071796004 $375 $544 forward 7 unknown #
vertex $-1 $243 $545 #
ellipse-curve $-1 0 0 -3.1357997375408164 0 0 -1 1.5 0 0 1 I I #
face $-1 $-1 $259 $39 $-1 $546 reversed single #
loop $-1 $-1 $395 $244 #
plane-surface $-1 0 43.905367037494486 0 0 -1 0 0 0 -1 forward_v I I I I #
coedge $-1 $547 $393 $396 $548 forward $245 $-1 #
coedge $-1 $399 $247 $248 $387 reversed $165 $-1 #
coedge $-1 $393 $547 $247 $385 reversed $245 $-1 #
edge $-1 $400 -15.93266236862501 $549 15.93266236862501 $384 $550 forward 7 unknown #
coedge $-1 $249 $248 $547 $551 forward $105 $-1 #
edge $-1 $391 -67.327494125186931 $549 67.327494125186931 $383 $552 forward 7 unknown #
coedge $-1 $396 $395 $249 $389 reversed $380 $-1 #
edge $-1 $553 -67.327494125186931 $390 67.327494125186931 $388 $554 forward 7 unknown #
vertex $-1 $251 $555 #
vertex $-1 $402 $556 #
straight-curve $-1 67.327494125186931 0 -15.93266236862501 0 -1 0 I I #
coedge $-1 $382 $384 $252 $394 reversed $245 $-1 #
edge $-1 $397 -43.905367037494486 $400 43.905367037494486 $393 $557 forward 7 unknown #
coedge $-1 $388 $253 $258 $403 forward $380 $-1 #
coedge $-1 $253 $388 $382 $548 reversed $380 $-1 #
vertex $-1 $254 $558 #
straight-curve $-1 0 43.905367037494486 15.93266236862501 -1 0 0 I I #
coedge $-1 $255 $383 $257 $402 reversed $165 $-1 #
vertex $-1 $394 $559 #
straight-curve $-1 0 -43.905367037494486 15.93266236862501 1 0 0 I I #
edge $-1 $260 -15.93266236862501 $391 15.93266236862501 $257 $560 forward 7 unknown #
edge $-1 $261 -15.93266236862501 $390 15.93266236862501 $258 $561 forward 7 unknown #
point $-1 67.327494125186931 -43.905367037494486 15.93266236862501 #
point $-1 67.327494125186931 43.905367037494486 15.93266236862501 #
face $-1 $-1 $278 $40 $-1 $562 reversed single #
loop $-1 $-1 $422 $263 #
plane-surface $-1 0 43.905367037494486 0 0 -1 0 0 0 -1 forward_v I I I I #
coedge $-1 $563 $420 $423 $564 forward $264 $-1 #
coedge $-1 $426 $266 $267 $414 reversed $173 $-1 #
coedge $-1 $420 $563 $266 $412 reversed $264 $-1 #
edge $-1 $427 -3.2563080726476272 $565 3.2563080726476272 $411 $566 forward 7 unknown #
coedge $-1 $268 $267 $563 $567 forward $109 $-1 #
edge $-1 $418 -9.1226076754763774 $565 9.1226076754763774 $410 $568 forward 7 unknown #
coedge $-1 $423 $422 $268 $416 reversed $407 $-1 #
edge $-1 $569 -9.1226076754763774 $417 9.1226076754763774 $415 $570 forward 7 unknown #
vertex $-1 $270 $571 #
vertex $-1 $429 $572 #
straight-curve $-1 9.1226076754763774 0 -3.2563080726476272 0 -1 0 I I #
coedge $-1 $409 $411 $271 $421 reversed $264 $-1 #
edge $-1 $424 -43.905367037494486 $427 43.905367037494486 $420 $573 forward 7 unknown #
coedge $-1 $415 $272 $277 $430 forward $407 $-1 #
coedge $-1 $272 $415 $409 $564 reversed $407 $-1 #
vertex $-1 $273 $574 #
straight-curve $-1 0 43.905367037494486 3.2563080726476272 -1 0 0 I I #
coedge $-1 $274 $410 $276 $429 reversed $173 $-1 #
vertex $-1 $421 $575 #
straight-curve $-1 0 -43.905367037494486 3.2563080726476272 1 0 0 I I #
edge $-1 $279 -3.2563080726476272 $418 3.2563080726476272 $276 $576 forward 7 unknown #
edge $-1 $280 -3.2563080726476272 $417 3.2563080726476272 $277 $577 forward 7 unknown #
point $-1 9.1226076754763774 -43.905367037494486 3.2563080726476272 #
point $-1 9.1226076754763774 43.905367037494486 3.2563080726476272 #
face $-1 $-1 $297 $41 $-1 $578 reversed single #
loop $-1 $-1 $449 $282 #
plane-surface $-1 0 269.30997650074772 0 0 -1 0 0 0 -1 forward_v I I I I #
coedge $-1 $579 $447 $450 $580 forward $283 $-1 #
coedge $-1 $453 $285 $286 $441 reversed $181 $-1 #
coedge $-1 $447 $579 $285 $439 reversed $283 $-1 #
edge $-1 $454 -134.65498825037386 $581 134.65498825037386 $438 $582 forward 7 unknown #
coedge $-1 $287 $286 $579 $583 forward $113 $-1 #
edge $-1 $445 -5.9878185898412823 $581 5.9878185898412823 $437 $584 forward 7 unknown #
coedge $-1 $450 $449 $287 $443 reversed $434 $-1 #
edge $-1 $585 -5.9878185898412823 $444 5.9878185898412823 $442 $586 forward 7 unknown #
vertex $-1 $289 $587 #
vertex $-1 $456 $588 #
straight-curve $-1 5.9878185898412823 0 -134.65498825037386 0 -1 0 I I #
coedge $-1 $436 $438 $290 $448 reversed $283 $-1 #
edge $-1 $451 -269.30997650074772 $454 269.30997650074772 $447 $589 forward 7 unknown #
coedge $-1 $442 $291 $296 $457 forward $434 $-1 #
coedge $-1 $291 $442 $436 $580 reversed $434 $-1 #
vertex $-1 $292 $590 #
straight-curve $-1 0 269.30997650074772 134.65498825037386 -1 0 0 I I #
coedge $-1 $293 $437 $295 $456 reversed $181 $-1 #
vertex $-1 $448 $591 #
straight-curve $-1 0 -269.30997650074772 134.65498825037386 1 0 0 I I #
edge $-1 $298 -134.65498825037386 $445 134.65498825037386 $295 $592 forward 7 unknown #
edge $-1 $299 -134.65498825037386 $444 134.65498825037386 $296 $593 forward 7 unknown #
point $-1 5.9878185898412823 -269.30997650074772 134.65498825037386 #
point $-1 5.9878185898412823 269.30997650074772 134.65498825037386 #
coedge $-1 $460 $460 $-1 $594 reversed $301 $-1 #
vertex $-1 $303 $595 #
ellipse-curve $-1 0 0 -0.5 0 0 -1 1 0 0 1 I I #
point $-1 1 0 -2.5218512527848134 #
coedge $-1 $464 $464 $-1 $596 reversed $306 $-1 #
vertex $-1 $308 $597 #
ellipse-curve $-1 0 0 -0.5 0 0 -1 1 0 0 1 I I #
point $-1 1 0 -2.5218512527848134 #
face $-1 $-1 $326 $44 $-1 $598 reversed single #
loop $-1 $-1 $484 $311 #
plane-surface $-1 0 269.30997650074772 0 0 -1 0 0 0 -1 forward_v I I I I #
coedge $-1 $599 $482 $485 $600 forward $312 $-1 #
coedge $-1 $488 $314 $315 $476 reversed $199 $-1 #
coedge $-1 $482 $599 $314 $474 reversed $312 $-1 #
edge $-1 $489 -134.65498825037383 $601 134.65498825037383 $473 $602 forward 7 unknown #
coedge $-1 $316 $315 $599 $603 forward $127 $-1 #
edge $-1 $480 -12.049532357035023 $601 12.049532357035023 $472 $604 forward 7 unknown #
coedge $-1 $485 $484 $316 $478 reversed $469 $-1 #
edge $-1 $605 -12.049532357035023 $479 12.049532357035023 $477 $606 forward 7 unknown #
vertex $-1 $318 $607 #
vertex $-1 $491 $608 #
straight-curve $-1 12.049532357035023 0 -134.65498825037383 0 -1 0 I I #
coedge $-1 $471 $473 $319 $483 reversed $312 $-1 #
edge $-1 $486 -269.30997650074772 $489 269.30997650074772 $482 $609 forward 7 unknown #
coedge $-1 $477 $320 $325 $492 forward $469 $-1 #
coedge $-1 $320 $477 $471 $600 reversed $469 $-1 #
vertex $-1 $321 $610 #
straight-curve $-1 0 269.30997650074772 134.65498825037383 -1 0 0 I I #
coedge $-1 $322 $472 $324 $491 reversed $199 $-1 #
vertex $-1 $483 $611 #
straight-curve $-1 0 -269.30997650074772 134.65498825037383 1 0 0 I I #
edge $-1 $327 -134.65498825037383 $480 134.65498825037383 $324 $612 forward 7 unknown #
edge $-1 $328 -134.65498825037383 $479 134.65498825037383 $325 $613 forward 7 unknown #
point $-1 12.049532357035023 -269.30997650074772 134.65498825037383 #
point $-1 12.049532357035023 269.30997650074772 134.65498825037383 #
coedge $-1 $495 $495 $-1 $614 reversed $330 $-1 #
vertex $-1 $332 $615 #
ellipse-curve $-1 0 0 -0.75 0 0 -1 1.5 0 0 1 I I #
point $-1 1.5 0 -3.1357997375408164 #
coedge $-1 $499 $499 $-1 $616 reversed $335 $-1 #
vertex $-1 $337 $617 #
ellipse-curve $-1 0 0 -0.75 0 0 -1 1.5 0 0 1 I I #
point $-1 1.5 0 -3.1357997375408164 #
coedge $-1 $503 $503 $-1 $618 reversed $340 $-1 #
vertex $-1 $342 $619 #
ellipse-curve $-1 0 0 -0.75 0 0 -1 1.5 0 0 1 I I #
point $-1 1.5 0 -3.1357997375408164 #
face $-1 $-1 $360 $48 $-1 $620 reversed single #
loop $-1 $-1 $523 $345 #
plane-surface $-1 0 269.30997650074772 0 0 -1 0 0 0 -1 forward_v I I I I #
coedge $-1 $621 $521 $524 $622 forward $346 $-1 #
coedge $-1 $527 $348 $349 $515 reversed $222 $-1 #
coedge $-1 $521 $621 $348 $513 reversed $346 $-1 #
edge $-1 $528 -134.65498825037383 $623 134.65498825037383 $512 $624 forward 7 unknown #
coedge $-1 $350 $349 $621 $625 forward $146 $-1 #
edge $-1 $519 -12.049532357035023 $623 12.049532357035023 $511 $626 forward 7 unknown #
coedge $-1 $524 $523 $350 $517 reversed $508 $-1 #
edge $-1 $627 -12.049532357035023 $518 12.049532357035023 $516 $628 forward 7 unknown #
vertex $-1 $352 $629 #
vertex $-1 $530 $630 #
straight-curve $-1 12.049532357035023 0 -134.65498825037383 0 -1 0 I I #
coedge $-1 $510 $512 $353 $522 reversed $346 $-1 #
edge $-1 $525 -269.30997650074772 $528 269.30997650074772 $521 $631 forward 7 unknown #
coedge $-1 $516 $354 $359 $531 forward $508 $-1 #
coedge $-1 $354 $516 $510 $622 reversed $508 $-1 #
vertex $-1 $355 $632 #
straight-curve $-1 0 269.30997650074772 134.65498825037383 -1 0 0 I I #
coedge $-1 $356 $511 $358 $530 reversed $222 $-1 #
vertex $-1 $522 $633 #
straight-curve $-1 0 -269.30997650074772 134.65498825037383 1 0 0 I I #
edge $-1 $361 -134.65498825037383 $519 134.65498825037383 $358 $634 forward 7 unknown #
edge $-1 $362 -134.65498825037383 $518 134.65498825037383 $359 $635 forward 7 unknown #
point $-1 12.049532357035023 -269.30997650074772 134.65498825037383 #
point $-1 12.049532357035023 269.30997650074772 134.65498825037383 #
coedge $-1 $534 $534 $-1 $636 reversed $364 $-1 #
vertex $-1 $366 $637 #
ellipse-curve $-1 0 0 -0.75 0 0 -1 1.5 0 0 1 I I #
point $-1 1.5 0 -3.1357997375408164 #
coedge $-1 $538 $538 $-1 $638 reversed $369 $-1 #
vertex $-1 $371 $639 #
ellipse-curve $-1 0 0 -0.75 0 0 -1 1.5 0 0 1 I I #
point $-1 1.5 0 -3.1357997375408164 #
coedge $-1 $542 $542 $-1 $640 reversed $374 $-1 #
vertex $-1 $376 $641 #
ellipse-curve $-1 0 0 -0.75 0 0 -1 1.5 0 0 1 I I #
point $-1 1.5 0 -3.1357997375408164 #
plane-surface $-1 67.327494125186931 0 0 -1 0 0 0 0 1 forward_v I I I I #
coedge $-1 $384 $382 $386 $551 reversed $245 $-1 #
edge $-1 $397 -15.93266236862501 $553 15.93266236862501 $396 $642 forward 7 unknown #
vertex $-1 $551 $643 #
straight-curve $-1 -67.327494125186931 -43.905367037494486 0 0 0 -1 I I #
edge $-1 $549 -43.905367037494486 $553 43.905367037494486 $547 $644 forward 7 unknown #
straight-curve $-1 0 -43.905367037494486 -15.93266236862501 -1 0 0 I I #
vertex $-1 $389 $645 #
straight-curve $-1 0 43.905367037494486 -15.93266236862501 1 0 0 I I #
point $-1 67.327494125186931 43.905367037494486 -15.93266236862501 #
point $-1 67.327494125186931 -43.905367037494486 -15.93266236862501 #
straight-curve $-1 -67.327494125186931 0 15.93266236862501 0 -1 0 I I #
point $-1 -67.327494125186931 43.905367037494486 15.93266236862501 #
point $-1 -67.327494125186931 -43.905367037494486 15.93266236862501 #
straight-curve $-1 67.327494125186931 -43.905367037494486 0 0 0 -1 I I #
straight-curve $-1 67.327494125186931 43.905367037494486 0 0 0 -1 I I #
plane-surface $-1 9.1226076754763774 0 0 -1 0 0 0 0 1 forward_v I I I I #
coedge $-1 $411 $409 $413 $567 reversed $264 $-1 #
edge $-1 $424 -3.2563080726476272 $569 3.2563080726476272 $423 $646 forward 7 unknown #
vertex $-1 $567 $647 #
straight-curve $-1 -9.1226076754763774 -43.905367037494486 0 0 0 -1 I I #
edge $-1 $565 -43.905367037494486 $569 43.905367037494486 $563 $648 forward 7 unknown #
straight-curve $-1 0 -43.905367037494486 -3.2563080726476272 -1 0 0 I I #
vertex $-1 $416 $649 #
straight-curve $-1 0 43.905367037494486 -3.2563080726476272 1 0 0 I I #
point $-1 9.1226076754763774 43.905367037494486 -3.2563080726476272 #
point $-1 9.1226076754763774 -43.905367037494486 -3.2563080726476272 #
straight-curve $-1 -9.1226076754763774 0 3.2563080726476272 0 -1 0 I I #
point $-1 -9.1226076754763774 43.905367037494486 3.2563080726476272 #
point $-1 -9.1226076754763774 -43.905367037494486 3.2563080726476272 #
straight-curve $-1 9.1226076754763774 -43.905367037494486 0 0 0 -1 I I #
straight-curve $-1 9.1226076754763774 43.905367037494486 0 0 0 -1 I I #
plane-surface $-1 5.9878185898412823 0 0 -1 0 0 0 0 1 forward_v I I I I #
coedge $-1 $438 $436 $440 $583 reversed $283 $-1 #
edge $-1 $451 -134.65498825037386 $585 134.65498825037386 $450 $650 forward 7 unknown #
vertex $-1 $583 $651 #
straight-curve $-1 -5.9878185898412823 -269.30997650074772 0 0 0 -1 I I #
edge $-1 $581 -269.30997650074772 $585 269.30997650074772 $579 $652 forward 7 unknown #
straight-curve $-1 0 -269.30997650074772 -134.65498825037386 -1 0 0 I I #
vertex $-1 $443 $653 #
straight-curve $-1 0 269.30997650074772 -134.65498825037386 1 0 0 I I #
point $-1 5.9878185898412823 269.30997650074772 -134.65498825037386 #
point $-1 5.9878185898412823 -269.30997650074772 -134.65498825037386 #
straight-curve $-1 -5.9878185898412823 0 134.65498825037386 0 -1 0 I I #
point $-1 -5.9878185898412823 269.30997650074772 134.65498825037386 #
point $-1 -5.9878185898412823 -269.30997650074772 134.65498825037386 #
straight-curve $-1 5.9878185898412823 -269.30997650074772 0 0 0 -1 I I #
straight-curve $-1 5.9878185898412823 269.30997650074772 0 0 0 -1 I I #
edge $-1 $654 1 $654 0 $460 $-1 forward 7 unknown #
point $-1 1 0 -0.5 #
edge $-1 $655 1 $655 0 $464 $-1 forward 7 unknown #
point $-1 1 0 -0.5 #
plane-surface $-1 12.049532357035023 0 0 -1 0 0 0 0 1 forward_v I I I I #
coedge $-1 $473 $471 $475 $603 reversed $312 $-1 #
edge $-1 $486 -134.65498825037383 $605 134.65498825037383 $485 $656 forward 7 unknown #
vertex $-1 $603 $657 #
straight-curve $-1 -12.049532357035023 -269.30997650074772 0 0 0 -1 I I #
edge $-1 $601 -269.30997650074772 $605 269.30997650074772 $599 $658 forward 7 unknown #
straight-curve $-1 0 -269.30997650074772 -134.65498825037383 -1 0 0 I I #
vertex $-1 $478 $659 #
straight-curve $-1 0 269.30997650074772 -134.65498825037383 1 0 0 I I #
point $-1 12.049532357035023 269.30997650074772 -134.65498825037383 #
point $-1 12.049532357035023 -269.30997650074772 -134.65498825037383 #
straight-curve $-1 -12.049532357035023 0 134.65498825037383 0 -1 0 I I #
point $-1 -12.049532357035023 269.30997650074772 134.65498825037383 #
point $-1 -12.049532357035023 -269.30997650074772 134.65498825037383 #
straight-curve $-1 12.049532357035023 -269.30997650074772 0 0 0 -1 I I #
straight-curve $-1 12.049532357035023 269.30997650074772 0 0 0 -1 I I #
edge $-1 $660 1 $660 0 $495 $-1 forward 7 unknown #
point $-1 1.5 0 -0.75 #
edge $-1 $661 1 $661 0 $499 $-1 forward 7 unknown #
point $-1 1.5 0 -0.75 #
edge $-1 $662 1 $662 0 $503 $-1 forward 7 unknown #
point $-1 1.5 0 -0.75 #
plane-surface $-1 12.049532357035023 0 0 -1 0 0 0 0 1 forward_v I I I I #
coedge $-1 $512 $510 $514 $625 reversed $346 $-1 #
edge $-1 $525 -134.65498825037383 $627 134.65498825037383 $524 $663 forward 7 unknown #
vertex $-1 $625 $664 #
straight-curve $-1 -12.049532357035023 -269.30997650074772 0 0 0 -1 I I #
edge $-1 $623 -269.30997650074772 $627 269.30997650074772 $621 $665 forward 7 unknown #
straight-curve $-1 0 -269.30997650074772 -134.65498825037383 -1 0 0 I I #
vertex $-1 $517 $666 #
straight-curve $-1 0 269.30997650074772 -134.65498825037383 1 0 0 I I #
point $-1 12.049532357035023 269.30997650074772 -134.65498825037383 #
point $-1 12.049532357035023 -269.30997650074772 -134.65498825037383 #
straight-curve $-1 -12.049532357035023 0 134.65498825037383 0 -1 0 I I #
point $-1 -12.049532357035023 269.30997650074772 134.65498825037383 #
point $-1 -12.049532357035023 -269.30997650074772 134.65498825037383 #
straight-curve $-1 12.049532357035023 -269.30997650074772 0 0 0 -1 I I #
straight-curve $-1 12.049532357035023 269.30997650074772 0 0 0 -1 I I #
edge $-1 $667 1 $667 0 $534 $-1 forward 7 unknown #
point $-1 1.5 0 -0.75 #
edge $-1 $668 1 $668 0 $538 $-1 forward 7 unknown #
point $-1 1.5 0 -0.75 #
edge $-1 $669 1 $669 0 $542 $-1 forward 7 unknown #
point $-1 1.5 0 -0.75 #
straight-curve $-1 -67.327494125186931 43.905367037494486 0 0 0 -1 I I #
point $-1 -67.327494125186931 -43.905367037494486 -15.93266236862501 #
straight-curve $-1 -67.327494125186931 0 -15.93266236862501 0 1 0 I I #
point $-1 -67.327494125186931 43.905367037494486 -15.93266236862501 #
straight-curve $-1 -9.1226076754763774 43.905367037494486 0 0 0 -1 I I #
point $-1 -9.1226076754763774 -43.905367037494486 -3.2563080726476272 #
straight-curve $-1 -9.1226076754763774 0 -3.2563080726476272 0 1 0 I I #
point $-1 -9.1226076754763774 43.905367037494486 -3.2563080726476272 #
straight-curve $-1 -5.9878185898412823 269.30997650074772 0 0 0 -1 I I #
point $-1 -5.9878185898412823 -269.30997650074772 -134.65498825037386 #
straight-curve $-1 -5.9878185898412823 0 -134.65498825037386 0 1 0 I I #
point $-1 -5.9878185898412823 269.30997650074772 -134.65498825037386 #
vertex $-1 $594 $670 #
vertex $-1 $596 $671 #
straight-curve $-1 -12.049532357035023 269.30997650074772 0 0 0 -1 I I #
point $-1 -12.049532357035023 -269.30997650074772 -134.65498825037383 #
straight-curve $-1 -12.049532357035023 0 -134.65498825037383 0 1 0 I I #
point $-1 -12.049532357035023 269.30997650074772 -134.65498825037383 #
vertex $-1 $614 $672 #
vertex $-1 $616 $673 #
vertex $-1 $618 $674 #
straight-curve $-1 -12.049532357035023 269.30997650074772 0 0 0 -1 I I #
point $-1 -12.049532357035023 -269.30997650074772 -134.65498825037383 #
straight-curve $-1 -12.049532357035023 0 -134.65498825037383 0 1 0 I I #
point $-1 -12.049532357035023 269.30997650074772 -134.65498825037383 #
vertex $-1 $636 $675 #
vertex $-1 $638 $676 #
vertex $-1 $640 $677 #
point $-1 0 0 0.5 #
point $-1 0 0 0.5 #
point $-1 0 0 0.75 #
point $-1 0 0 0.75 #
point $-1 0 0 0.75 #
point $-1 0 0 0.75 #
point $-1 0 0 0.75 #
point $-1 0 0 0.75 #
End-of-ACIS-data 