500 0 5 0           
7 Unknown 11 ACIS 5.0 NT 24 Thu Mar 25 18:43:56 1999 
-1 9.9999999999999995e-007 1e-010 
body $-1 $5 $-1 $6 #
body $-1 $7 $-1 $8 #
body $-1 $9 $-1 $10 #
body $-1 $11 $-1 $12 #
body $-1 $13 $-1 $14 #
lump $-1 $-1 $15 $0 #
transform $-1 1 0 0 0 1 0 0 0 1 67.632679219946894 38.730220020719855 7.8201546885306756 1 rotate no_reflect no_shear #
lump $-1 $-1 $16 $1 #
transform $-1 1 0 0 0 1 0 0 0 1 67.632679219946894 38.730220020719855 7.8201546885306756 1 rotate no_reflect no_shear #
lump $-1 $-1 $17 $2 #
transform $-1 1 0 0 0 1 0 0 0 1 67.632679219946894 38.730220020719855 7.8201546885306756 1 rotate no_reflect no_shear #
lump $-1 $-1 $18 $3 #
transform $-1 1 0 0 0 1 0 0 0 1 67.632679219946894 38.730220020719855 7.8201546885306756 1 rotate no_reflect no_shear #
lump $-1 $-1 $19 $4 #
transform $-1 1 0 0 0 1 0 0 0 1 67.632679219946894 38.730220020719855 7.8201546885306756 1 rotate no_reflect no_shear #
shell $-1 $-1 $-1 $20 $-1 $5 #
shell $-1 $-1 $-1 $21 $-1 $7 #
shell $-1 $-1 $-1 $22 $-1 $9 #
shell $-1 $-1 $-1 $23 $-1 $11 #
shell $-1 $-1 $-1 $24 $-1 $13 #
face $-1 $25 $26 $15 $-1 $27 reversed single #
face $-1 $28 $29 $16 $-1 $30 forward single #
face $-1 $31 $32 $17 $-1 $33 forward single #
face $-1 $34 $35 $18 $-1 $36 reversed single #
face $-1 $37 $38 $19 $-1 $39 forward single #
face $-1 $40 $41 $15 $-1 $42 forward single #
loop $-1 $-1 $43 $20 #
plane-surface $-1 67.632679219946894 0 0 -1 0 0 0 0 1 forward_v I I I I #
face $-1 $44 $45 $16 $-1 $46 reversed single #
loop $-1 $-1 $47 $21 #
plane-surface $-1 -67.632679219946894 0 0 1 0 0 0 0 -1 forward_v I I I I #
face $-1 $48 $49 $17 $-1 $50 reversed single #
loop $-1 $-1 $51 $22 #
plane-surface $-1 67.632679219946894 0 0 -1 0 0 0 0 1 forward_v I I I I #
face $-1 $52 $53 $18 $-1 $54 reversed single #
loop $-1 $-1 $55 $23 #
plane-surface $-1 15.251408633860194 84.829149343022735 149.62445326420305 1 0 0 0 -0.73135370988377701 -0.68199835119979291 forward_v I I I I #
face $-1 $56 $57 $19 $-1 $58 forward single #
loop $-1 $59 $60 $24 #
cone-surface $-1 30.573566252889634 34.441728398362514 3.3582634562632601 0 -0.73135370988377701 -0.68199835119979291 1 0 0 1 I I 0 1 1 forward I I I I #
face $-1 $61 $62 $15 $-1 $63 reversed single #
loop $-1 $-1 $64 $25 #
plane-surface $-1 0 0 7.8201546885306756 0 0 1 1 0 0 forward_v I I I I #
coedge $-1 $65 $66 $67 $68 reversed $26 $-1 #
face $-1 $69 $70 $16 $-1 $71 forward single #
loop $-1 $-1 $72 $28 #
plane-surface $-1 0 38.730220020719855 0 0 -1 0 0 0 -1 forward_v I I I I #
coedge $-1 $73 $74 $75 $76 forward $29 $-1 #
face $-1 $77 $78 $17 $-1 $79 forward single #
loop $-1 $-1 $80 $31 #
plane-surface $-1 0 -38.730220020719855 0 0 1 0 0 0 1 forward_v I I I I #
coedge $-1 $81 $82 $83 $84 forward $32 $-1 #
face $-1 $85 $86 $18 $-1 $87 reversed single #
loop $-1 $-1 $88 $34 #
plane-surface $-1 30.573566252889634 -14.097672370752449 57.373701833746495 0 0.73135370988377701 0.68199835119979291 1 0 0 forward_v I I I I #
coedge $-1 $89 $90 $91 $92 reversed $35 $-1 #
face $-1 $-1 $93 $19 $-1 $94 forward single #
loop $-1 $95 $96 $37 #
cone-surface $-1 30.573566252889634 33.096791535869102 2.1040895725564353 0 -0.73135370988377701 -0.68199835119979291 0.5 0 0 1 I I -0.70710678118654746 0.70710678118654746 0.5 forward I I I I #
loop $-1 $-1 $97 $24 #
coedge $-1 $60 $60 $98 $99 reversed $38 $-1 #
face $-1 $100 $101 $15 $-1 $102 reversed single #
loop $-1 $-1 $103 $40 #
plane-surface $-1 0 0 -7.8201546885306756 0 0 1 1 0 0 forward_v I I I I #
coedge $-1 $104 $105 $65 $106 forward $41 $-1 #
coedge $-1 $107 $43 $64 $106 reversed $26 $-1 #
coedge $-1 $43 $107 $103 $108 reversed $26 $-1 #
coedge $-1 $109 $110 $43 $68 forward $111 $-1 #
edge $-1 $112 -7.8201546885306756 $113 7.8201546885306756 $43 $114 forward 7 unknown #
face $-1 $115 $116 $16 $-1 $117 reversed single #
loop $-1 $-1 $75 $44 #
plane-surface $-1 -70.746046832101229 0 -2.0442012513123311 0 0 1 1 0 0 forward_v I I I I #
coedge $-1 $118 $119 $74 $120 forward $45 $-1 #
coedge $-1 $121 $47 $122 $123 reversed $29 $-1 #
coedge $-1 $47 $121 $72 $120 reversed $29 $-1 #
coedge $-1 $124 $125 $47 $76 reversed $70 $-1 #
edge $-1 $126 -38.730220020719855 $127 38.730220020719855 $75 $128 forward 7 unknown #
face $-1 $129 $130 $17 $-1 $131 reversed single #
loop $-1 $-1 $132 $48 #
plane-surface $-1 70.746046832101243 0 -2.0442012513123311 0 0 1 1 0 0 forward_v I I I I #
coedge $-1 $133 $134 $82 $135 forward $49 $-1 #
coedge $-1 $136 $51 $137 $138 reversed $32 $-1 #
coedge $-1 $51 $136 $80 $135 reversed $32 $-1 #
coedge $-1 $139 $140 $51 $84 reversed $78 $-1 #
edge $-1 $141 -38.730220020719855 $142 38.730220020719855 $83 $143 forward 7 unknown #
face $-1 $144 $145 $18 $-1 $146 reversed single #
loop $-1 $-1 $147 $52 #
plane-surface $-1 45.895723871919074 84.829149343022735 149.62445326420305 -1 0 0 0 0.73135370988377701 0.68199835119979291 forward_v I I I I #
coedge $-1 $148 $149 $150 $151 reversed $53 $-1 #
coedge $-1 $90 $55 $152 $153 reversed $35 $-1 #
coedge $-1 $55 $89 $148 $154 reversed $35 $-1 #
coedge $-1 $150 $155 $55 $92 forward $156 $-1 #
edge $-1 $157 3.6843546507915121 $158 10.302817880403154 $91 $159 forward 7 unknown #
loop $-1 $-1 $98 $56 #
plane-surface $-1 30.573566252889634 -14.097672370752449 57.373701833746495 0 0.73135370988377701 0.68199835119979291 1 0 0 forward_v I I I I #
loop $-1 $-1 $160 $37 #
coedge $-1 $96 $96 $97 $161 reversed $57 $-1 #
coedge $-1 $97 $97 $96 $161 forward $59 $-1 #
coedge $-1 $98 $98 $60 $99 forward $93 $-1 #
edge $-1 $162 -3.5069091583739096e-016 $162 6.2831853071796004 $98 $163 forward 7 unknown #
face $-1 $164 $165 $15 $-1 $166 reversed single #
loop $-1 $-1 $167 $61 #
plane-surface $-1 0 -38.730220020719855 0 0 1 0 0 0 1 forward_v I I I I #
coedge $-1 $168 $169 $66 $108 forward $62 $-1 #
coedge $-1 $170 $64 $110 $171 forward $41 $-1 #
coedge $-1 $64 $170 $172 $173 forward $41 $-1 #
edge $-1 $174 -38.730220020719855 $112 38.730220020719855 $65 $175 forward 7 unknown #
coedge $-1 $66 $65 $176 $177 forward $26 $-1 #
edge $-1 $113 -38.730220020719855 $178 38.730220020719855 $66 $179 forward 7 unknown #
coedge $-1 $180 $67 $169 $181 reversed $111 $-1 #
coedge $-1 $67 $180 $104 $171 reversed $111 $-1 #
loop $-1 $-1 $67 $164 #
vertex $-1 $106 $182 #
vertex $-1 $108 $183 #
straight-curve $-1 67.632679219946894 38.730220020719855 0 0 0 -1 I I #
face $-1 $184 $185 $16 $-1 $186 reversed single #
loop $-1 $-1 $187 $69 #
plane-surface $-1 -70.746046832101229 0 -5.0442012513123311 0 0 1 1 0 0 forward_v I I I I #
coedge $-1 $188 $72 $189 $190 reversed $45 $-1 #
coedge $-1 $72 $188 $124 $191 reversed $45 $-1 #
edge $-1 $126 2.0442012513123311 $192 5.0442012513123311 $72 $193 forward 7 unknown #
coedge $-1 $74 $73 $187 $194 forward $29 $-1 #
coedge $-1 $195 $196 $73 $123 forward $197 $-1 #
edge $-1 $198 -5.0442012513123311 $127 -2.0442012513123311 $122 $199 forward 7 unknown #
coedge $-1 $200 $75 $119 $191 forward $70 $-1 #
coedge $-1 $75 $200 $195 $201 forward $70 $-1 #
vertex $-1 $120 $202 #
vertex $-1 $201 $203 #
straight-curve $-1 -67.632679219946894 0 -2.0442012513123311 0 -1 0 I I #
face $-1 $204 $205 $17 $-1 $206 reversed single #
loop $-1 $-1 $207 $77 #
plane-surface $-1 70.746046832101243 0 -5.0442012513123311 0 0 1 1 0 0 forward_v I I I I #
coedge $-1 $140 $139 $208 $209 forward $78 $-1 #
coedge $-1 $210 $80 $211 $212 reversed $49 $-1 #
coedge $-1 $80 $210 $139 $213 reversed $49 $-1 #
edge $-1 $141 2.0442012513123311 $214 5.0442012513123311 $80 $215 forward 7 unknown #
coedge $-1 $82 $81 $216 $217 forward $32 $-1 #
coedge $-1 $218 $219 $81 $138 forward $220 $-1 #
edge $-1 $221 -5.0442012513123311 $142 -2.0442012513123311 $137 $222 forward 7 unknown #
coedge $-1 $132 $83 $134 $213 forward $78 $-1 #
coedge $-1 $83 $132 $218 $223 forward $78 $-1 #
vertex $-1 $135 $224 #
vertex $-1 $223 $225 #
straight-curve $-1 67.632679219946894 0 -2.0442012513123311 0 1 0 I I #
face $-1 $-1 $156 $18 $-1 $226 forward single #
loop $-1 $-1 $227 $85 #
plane-surface $-1 0 38.730220020719855 0 0 -1 0 0 0 -1 forward_v I I I I #
coedge $-1 $228 $229 $230 $231 reversed $86 $-1 #
coedge $-1 $232 $88 $90 $154 forward $53 $-1 #
coedge $-1 $88 $232 $228 $233 forward $53 $-1 #
coedge $-1 $230 $91 $88 $151 forward $156 $-1 #
edge $-1 $158 -0.035374492584622885 $234 30.608940745474257 $150 $235 forward 7 unknown #
coedge $-1 $236 $237 $89 $153 forward $145 $-1 #
edge $-1 $238 -74.089504991891829 $157 -66.992071943570849 $152 $239 forward 7 unknown #
edge $-1 $158 67.755925040826838 $238 77.460440041439711 $90 $240 forward 7 unknown #
coedge $-1 $91 $230 $236 $241 forward $156 $-1 #
loop $-1 $-1 $230 $144 #
vertex $-1 $153 $242 #
vertex $-1 $92 $243 #
straight-curve $-1 15.251408633860194 42.414574671511367 7.8201546885306783 0 -1 0 I I #
coedge $-1 $160 $160 $-1 $244 reversed $95 $-1 #
edge $-1 $245 0 $245 6.2831853071796004 $96 $246 forward 7 unknown #
vertex $-1 $99 $247 #
ellipse-curve $-1 30.573566252889634 35.420988405914031 4.2714381643701813 0 0.73135370988377701 0.68199835119979291 1 0 0 1 I I #
face $-1 $-1 $111 $15 $-1 $248 reversed single #
loop $-1 $-1 $249 $100 #
plane-surface $-1 -67.632679219946894 0 0 1 0 0 0 0 -1 forward_v I I I I #
coedge $-1 $250 $172 $249 $251 forward $101 $-1 #
coedge $-1 $252 $103 $250 $253 forward $62 $-1 #
coedge $-1 $103 $252 $109 $181 forward $62 $-1 #
coedge $-1 $105 $104 $254 $255 forward $41 $-1 #
edge $-1 $112 -67.632679219946894 $256 67.632679219946894 $110 $257 forward 7 unknown #
coedge $-1 $167 $176 $105 $173 reversed $101 $-1 #
edge $-1 $258 -67.632679219946894 $174 67.632679219946894 $172 $259 forward 7 unknown #
vertex $-1 $106 $260 #
straight-curve $-1 67.632679219946894 0 7.8201546885306756 0 1 0 I I #
coedge $-1 $172 $250 $107 $177 reversed $101 $-1 #
edge $-1 $174 -7.8201546885306756 $178 7.8201546885306756 $107 $261 forward 7 unknown #
vertex $-1 $177 $262 #
straight-curve $-1 67.632679219946894 0 -7.8201546885306756 0 -1 0 I I #
coedge $-1 $110 $109 $263 $264 reversed $111 $-1 #
edge $-1 $265 -67.632679219946894 $113 67.632679219946894 $109 $266 forward 7 unknown #
point $-1 67.632679219946894 38.730220020719855 7.8201546885306756 #
point $-1 67.632679219946894 38.730220020719855 -7.8201546885306756 #
face $-1 $-1 $197 $16 $-1 $267 reversed single #
loop $-1 $-1 $268 $115 #
plane-surface $-1 -73.859414444255563 0 -3.5442012513123311 1 0 0 0 0 -1 forward_v I I I I #
coedge $-1 $269 $189 $121 $194 reversed $116 $-1 #
coedge $-1 $119 $118 $268 $270 reversed $45 $-1 #
coedge $-1 $187 $271 $118 $190 forward $116 $-1 #
edge $-1 $272 -3.1133676121543346 $192 3.1133676121543346 $118 $273 forward 7 unknown #
edge $-1 $126 -3.1133676121543346 $274 3.1133676121543346 $119 $275 forward 7 unknown #
vertex $-1 $120 $276 #
straight-curve $-1 -67.632679219946894 38.730220020719855 0 0 0 -1 I I #
edge $-1 $198 -38.730220020719855 $192 38.730220020719855 $187 $277 forward 7 unknown #
coedge $-1 $278 $122 $125 $201 reversed $197 $-1 #
coedge $-1 $122 $278 $269 $279 reversed $197 $-1 #
loop $-1 $-1 $122 $184 #
vertex $-1 $123 $280 #
straight-curve $-1 -67.632679219946894 -38.730220020719855 0 0 0 1 I I #
coedge $-1 $125 $124 $281 $282 forward $70 $-1 #
edge $-1 $283 -3.1133676121543346 $127 3.1133676121543346 $195 $284 forward 7 unknown #
point $-1 -67.632679219946894 38.730220020719855 -2.0442012513123311 #
point $-1 -67.632679219946894 -38.730220020719855 -2.0442012513123311 #
face $-1 $-1 $220 $17 $-1 $285 reversed single #
loop $-1 $-1 $286 $129 #
plane-surface $-1 73.859414444255577 0 -3.5442012513123311 -1 0 0 0 0 1 forward_v I I I I #
coedge $-1 $211 $287 $288 $289 forward $130 $-1 #
coedge $-1 $286 $290 $132 $209 reversed $205 $-1 #
edge $-1 $291 -38.730220020719855 $292 38.730220020719855 $208 $293 forward 7 unknown #
coedge $-1 $134 $133 $286 $294 reversed $49 $-1 #
coedge $-1 $216 $207 $133 $212 forward $130 $-1 #
edge $-1 $295 -3.1133676121543346 $214 3.1133676121543346 $133 $296 forward 7 unknown #
edge $-1 $141 -3.1133676121543346 $291 3.1133676121543346 $134 $297 forward 7 unknown #
vertex $-1 $135 $298 #
straight-curve $-1 67.632679219946894 -38.730220020719855 0 0 0 -1 I I #
coedge $-1 $287 $211 $136 $217 reversed $130 $-1 #
edge $-1 $221 -38.730220020719855 $214 38.730220020719855 $216 $299 forward 7 unknown #
coedge $-1 $300 $137 $140 $223 reversed $220 $-1 #
coedge $-1 $137 $300 $287 $301 reversed $220 $-1 #
loop $-1 $-1 $137 $204 #
vertex $-1 $138 $302 #
straight-curve $-1 67.632679219946894 38.730220020719855 0 0 0 1 I I #
edge $-1 $292 -3.1133676121543346 $142 3.1133676121543346 $218 $303 forward 7 unknown #
point $-1 67.632679219946908 -38.730220020719855 -2.0442012513123311 #
point $-1 67.632679219946908 38.730220020719855 -2.0442012513123311 #
plane-surface $-1 0 0 7.8201546885306756 0 0 1 1 0 0 forward_v I I I I #
coedge $-1 $237 $236 $229 $304 forward $145 $-1 #
coedge $-1 $229 $147 $149 $233 reversed $86 $-1 #
coedge $-1 $147 $228 $227 $304 reversed $86 $-1 #
coedge $-1 $155 $150 $147 $231 forward $156 $-1 #
edge $-1 $234 -10.302817880403154 $305 -3.6843546507915121 $230 $306 forward 7 unknown #
coedge $-1 $149 $148 $237 $307 reversed $53 $-1 #
edge $-1 $308 -77.460440041439711 $234 -67.755925040826838 $228 $309 forward 7 unknown #
vertex $-1 $151 $310 #
straight-curve $-1 15.286783126444817 32.11175679110822 7.8201546885306783 1 0 0 I I #
coedge $-1 $227 $152 $155 $241 reversed $145 $-1 #
coedge $-1 $152 $227 $232 $307 forward $145 $-1 #
vertex $-1 $153 $311 #
straight-curve $-1 15.251408633860194 38.730220020719855 74.812226632101527 0 0 1 I I #
straight-curve $-1 15.251408633860194 -14.097672370752449 57.373701833746495 0 0.68199835119979291 -0.73135370988377701 I I #
edge $-1 $305 -45.895723871919074 $157 -15.251408633860194 $236 $312 forward 7 unknown #
point $-1 15.251408633860194 38.730220020719855 7.8201546885306756 #
point $-1 15.251408633860194 32.111756791108213 7.8201546885306783 #
edge $-1 $313 1 $313 0 $160 $-1 forward 7 unknown #
vertex $-1 $161 $314 #
ellipse-curve $-1 30.573566252889634 33.46246839081099 2.4450887481563317 0 0.73135370988377701 0.68199835119979291 1 0 0 1 I I #
point $-1 31.573566252889634 35.420988405914038 4.2714381643701884 #
plane-surface $-1 0 38.730220020719855 0 0 -1 0 0 0 -1 forward_v I I I I #
coedge $-1 $254 $315 $167 $251 reversed $165 $-1 #
coedge $-1 $176 $167 $168 $253 reversed $101 $-1 #
edge $-1 $258 -7.8201546885306756 $316 7.8201546885306756 $249 $317 forward 7 unknown #
coedge $-1 $169 $168 $315 $318 forward $62 $-1 #
edge $-1 $178 -67.632679219946894 $316 67.632679219946894 $250 $319 forward 7 unknown #
coedge $-1 $263 $249 $170 $255 reversed $165 $-1 #
edge $-1 $256 -38.730220020719855 $258 38.730220020719855 $254 $320 forward 7 unknown #
vertex $-1 $171 $321 #
straight-curve $-1 0 38.730220020719855 7.8201546885306756 -1 0 0 I I #
vertex $-1 $255 $322 #
straight-curve $-1 0 -38.730220020719855 7.8201546885306756 1 0 0 I I #
point $-1 67.632679219946894 -38.730220020719855 7.8201546885306756 #
straight-curve $-1 67.632679219946894 -38.730220020719855 0 0 0 -1 I I #
point $-1 67.632679219946894 -38.730220020719855 -7.8201546885306756 #
coedge $-1 $315 $254 $180 $264 forward $165 $-1 #
edge $-1 $256 -7.8201546885306756 $265 7.8201546885306756 $180 $323 forward 7 unknown #
vertex $-1 $181 $324 #
straight-curve $-1 0 38.730220020719855 -7.8201546885306756 1 0 0 I I #
plane-surface $-1 0 -38.730220020719855 0 0 1 0 0 0 1 forward_v I I I I #
coedge $-1 $325 $281 $188 $270 forward $185 $-1 #
coedge $-1 $271 $187 $196 $279 forward $116 $-1 #
edge $-1 $274 -1.5 $272 1.5 $188 $326 forward 7 unknown #
coedge $-1 $189 $269 $325 $327 forward $116 $-1 #
vertex $-1 $190 $328 #
straight-curve $-1 -70.746046832101229 38.730220020719855 -5.0442012513123311 1 0 0 I I #
vertex $-1 $191 $329 #
straight-curve $-1 -70.746046832101229 38.730220020719855 -2.0442012513123311 -1 0 0 I I #
point $-1 -67.632679219946894 38.730220020719855 -5.0442012513123311 #
straight-curve $-1 -67.632679219946894 0 -5.0442012513123311 0 1 0 I I #
coedge $-1 $196 $195 $330 $331 forward $197 $-1 #
edge $-1 $198 -3.1133676121543346 $332 3.1133676121543346 $196 $333 forward 7 unknown #
point $-1 -67.632679219946894 -38.730220020719855 -5.0442012513123311 #
coedge $-1 $268 $330 $200 $282 reversed $185 $-1 #
edge $-1 $274 -38.730220020719855 $283 38.730220020719855 $281 $334 forward 7 unknown #
vertex $-1 $282 $335 #
straight-curve $-1 -70.746046832101229 -38.730220020719855 -2.0442012513123311 1 0 0 I I #
plane-surface $-1 0 38.730220020719855 0 0 -1 0 0 0 -1 forward_v I I I I #
coedge $-1 $288 $208 $210 $294 forward $205 $-1 #
coedge $-1 $207 $216 $219 $301 forward $130 $-1 #
coedge $-1 $290 $286 $207 $289 reversed $205 $-1 #
edge $-1 $336 -38.730220020719855 $295 38.730220020719855 $288 $337 forward 7 unknown #
coedge $-1 $208 $288 $300 $338 reversed $205 $-1 #
vertex $-1 $209 $339 #
vertex $-1 $209 $340 #
straight-curve $-1 73.859414444255577 0 -2.0442012513123311 0 1 0 I I #
edge $-1 $291 -1.5 $295 1.5 $286 $341 forward 7 unknown #
vertex $-1 $294 $342 #
straight-curve $-1 70.746046832101243 -38.730220020719855 -5.0442012513123311 -1 0 0 I I #
straight-curve $-1 70.746046832101243 -38.730220020719855 -2.0442012513123311 1 0 0 I I #
point $-1 67.632679219946908 -38.730220020719855 -5.0442012513123311 #
straight-curve $-1 67.632679219946894 0 -5.0442012513123311 0 -1 0 I I #
coedge $-1 $219 $218 $290 $338 forward $220 $-1 #
edge $-1 $221 -3.1133676121543346 $336 3.1133676121543346 $219 $343 forward 7 unknown #
point $-1 67.632679219946908 38.730220020719855 -5.0442012513123311 #
straight-curve $-1 70.746046832101243 38.730220020719855 -2.0442012513123311 -1 0 0 I I #
edge $-1 $305 66.992071943570849 $308 74.089504991891829 $227 $344 forward 7 unknown #
vertex $-1 $241 $345 #
straight-curve $-1 45.895723871919074 42.414574671511367 7.8201546885306783 0 1 0 I I #
edge $-1 $308 -30.608940745474257 $238 0.035374492584622885 $237 $346 forward 7 unknown #
vertex $-1 $307 $347 #
straight-curve $-1 45.895723871919074 -14.097672370752449 57.373701833746495 0 -0.68199835119979291 0.73135370988377701 I I #
point $-1 45.895723871919074 32.111756791108213 7.8201546885306783 #
point $-1 15.251408633860194 38.730220020719855 0.72272164020969143 #
straight-curve $-1 0 38.730220020719855 7.8201546885306756 -1 0 0 I I #
vertex $-1 $244 $348 #
point $-1 31.573566252889634 33.46246839081099 2.4450887481563317 #
coedge $-1 $249 $263 $252 $318 reversed $165 $-1 #
vertex $-1 $318 $349 #
straight-curve $-1 -67.632679219946894 -38.730220020719855 0 0 0 -1 I I #
edge $-1 $316 -38.730220020719855 $265 38.730220020719855 $315 $350 forward 7 unknown #
straight-curve $-1 0 -38.730220020719855 -7.8201546885306756 -1 0 0 I I #
straight-curve $-1 -67.632679219946894 0 7.8201546885306756 0 -1 0 I I #
point $-1 -67.632679219946894 38.730220020719855 7.8201546885306756 #
point $-1 -67.632679219946894 -38.730220020719855 7.8201546885306756 #
straight-curve $-1 -67.632679219946894 38.730220020719855 0 0 0 -1 I I #
point $-1 -67.632679219946894 38.730220020719855 -7.8201546885306756 #
coedge $-1 $330 $268 $271 $327 reversed $185 $-1 #
straight-curve $-1 -73.859414444255563 38.730220020719855 -3.5442012513123311 0 0 -1 I I #
edge $-1 $332 -38.730220020719855 $272 38.730220020719855 $325 $351 forward 7 unknown #
point $-1 -73.859414444255563 38.730220020719855 -5.0442012513123311 #
point $-1 -73.859414444255563 38.730220020719855 -2.0442012513123311 #
coedge $-1 $281 $325 $278 $331 reversed $185 $-1 #
edge $-1 $283 -1.5 $332 1.5 $330 $352 forward 7 unknown #
vertex $-1 $327 $353 #
straight-curve $-1 -70.746046832101229 -38.730220020719855 -5.0442012513123311 -1 0 0 I I #
straight-curve $-1 -73.859414444255563 0 -2.0442012513123311 0 -1 0 I I #
point $-1 -73.859414444255563 -38.730220020719855 -2.0442012513123311 #
vertex $-1 $289 $354 #
straight-curve $-1 73.859414444255577 0 -5.0442012513123311 0 -1 0 I I #
edge $-1 $292 -1.5 $336 1.5 $290 $355 forward 7 unknown #
point $-1 73.859414444255577 -38.730220020719855 -2.0442012513123311 #
point $-1 73.859414444255577 38.730220020719855 -2.0442012513123311 #
straight-curve $-1 73.859414444255577 -38.730220020719855 -3.5442012513123311 0 0 -1 I I #
point $-1 73.859414444255577 -38.730220020719855 -5.0442012513123311 #
straight-curve $-1 70.746046832101243 38.730220020719855 -5.0442012513123311 1 0 0 I I #
straight-curve $-1 45.895723871919074 38.730220020719855 74.812226632101527 0 0 -1 I I #
point $-1 45.895723871919074 38.730220020719855 7.8201546885306756 #
straight-curve $-1 15.286783126444817 38.730220020719855 0.72272164020968788 -1 0 0 I I #
point $-1 45.895723871919074 38.730220020719855 0.72272164020969143 #
point $-1 30.573566252889634 32.731114680927213 1.7630903969565388 #
point $-1 -67.632679219946894 -38.730220020719855 -7.8201546885306756 #
straight-curve $-1 -67.632679219946894 0 -7.8201546885306756 0 1 0 I I #
straight-curve $-1 -73.859414444255563 0 -5.0442012513123311 0 1 0 I I #
straight-curve $-1 -73.859414444255563 -38.730220020719855 -3.5442012513123311 0 0 -1 I I #
point $-1 -73.859414444255563 -38.730220020719855 -5.0442012513123311 #
point $-1 73.859414444255577 38.730220020719855 -5.0442012513123311 #
straight-curve $-1 73.859414444255577 38.730220020719855 -3.5442012513123311 0 0 -1 I I #
End-of-ACIS-data 