500 0 7 0           
7 Unknown 11 ACIS 5.0 NT 24 Fri Mar 26 02:23:14 1999 
-1 9.9999999999999995e-007 1e-010 
body $-1 $7 $-1 $8 #
body $-1 $9 $-1 $10 #
body $-1 $11 $-1 $12 #
body $-1 $13 $-1 $14 #
body $-1 $15 $-1 $16 #
body $-1 $17 $-1 $18 #
body $-1 $19 $-1 $20 #
lump $-1 $-1 $21 $0 #
transform $-1 1 0 0 0 1 0 0 0 1 45.742362743003632 18.929327992266021 4 1 rotate no_reflect no_shear #
lump $-1 $-1 $22 $1 #
transform $-1 1 0 0 0 1 0 0 0 1 45.742362743003632 18.929327992266021 4 1 rotate no_reflect no_shear #
lump $-1 $-1 $23 $2 #
transform $-1 1 0 0 0 1 0 0 0 1 45.742362743003632 18.929327992266021 4 1 rotate no_reflect no_shear #
lump $-1 $-1 $24 $3 #
transform $-1 1 0 0 0 1 0 0 0 1 45.742362743003632 18.929327992266021 4 1 rotate no_reflect no_shear #
lump $-1 $-1 $25 $4 #
transform $-1 1 0 0 0 1 0 0 0 1 45.742362743003632 18.929327992266021 4 1 rotate no_reflect no_shear #
lump $-1 $-1 $26 $5 #
transform $-1 1 0 0 0 1 0 0 0 1 45.742362743003632 18.929327992266021 4 1 rotate no_reflect no_shear #
lump $-1 $-1 $27 $6 #
transform $-1 1 0 0 0 1 0 0 0 1 45.742362743003632 18.929327992266021 4 1 rotate no_reflect no_shear #
shell $-1 $-1 $-1 $28 $-1 $7 #
shell $-1 $-1 $-1 $29 $-1 $9 #
shell $-1 $-1 $-1 $30 $-1 $11 #
shell $-1 $-1 $-1 $31 $-1 $13 #
shell $-1 $-1 $-1 $32 $-1 $15 #
shell $-1 $-1 $-1 $33 $-1 $17 #
shell $-1 $-1 $-1 $34 $-1 $19 #
face $-1 $35 $36 $21 $-1 $37 forward single #
face $-1 $38 $39 $22 $-1 $40 forward single #
face $-1 $41 $42 $23 $-1 $43 reversed single #
face $-1 $44 $45 $24 $-1 $46 forward single #
face $-1 $47 $48 $25 $-1 $49 reversed single #
face $-1 $50 $51 $26 $-1 $52 forward single #
face $-1 $53 $54 $27 $-1 $55 forward single #
face $-1 $56 $57 $21 $-1 $58 reversed single #
loop $-1 $-1 $59 $28 #
plane-surface $-1 0 0 4 0 0 1 1 0 0 forward_v I I I I #
face $-1 $60 $61 $22 $-1 $62 reversed single #
loop $-1 $-1 $63 $29 #
plane-surface $-1 0 -17.429327992266021 3.3717764824365979 0 0 1 1 0 0 forward_v I I I I #
face $-1 $64 $65 $23 $-1 $66 reversed single #
loop $-1 $-1 $67 $30 #
plane-surface $-1 68.208781628101917 0.2999462954875618 127.76523030505268 0 1 0 0.81915205242281985 0 0.57357642473473569 forward_v I I I I #
face $-1 $68 $69 $24 $-1 $70 forward single #
loop $-1 $71 $72 $31 #
cone-surface $-1 43.464309016432011 5.1036901813993971 1.4751408860185475 -0.81915205242281985 0 -0.57357642473473569 0.57357642473473569 0 -0.81915205242281985 1 I I 0 1 1 forward I I I I #
face $-1 $73 $74 $25 $-1 $75 reversed single #
loop $-1 $-1 $76 $32 #
plane-surface $-1 -115.82372908992568 11.938146307919265 59.744393206615051 0 1 0 -0.7660444514056185 0 0.64278759981090561 forward_v I I I I #
face $-1 $77 $78 $26 $-1 $79 forward single #
loop $-1 $80 $81 $33 #
cone-surface $-1 -44.075159858321037 13.935626789161194 2.1481792461469786 0.7660444514056185 0 -0.64278759981090561 0.3213937999054528 0 0.38302222570280925 1 I I 0 1 0.5 forward I I I I #
face $-1 $82 $83 $27 $-1 $84 forward single #
loop $-1 $85 $86 $34 #
cone-surface $-1 -44.075159858321037 16.931847511024092 2.1481792461469786 0.7660444514056185 0 -0.64278759981090561 0.3213937999054528 0 0.38302222570280925 1 I I 0 1 0.5 forward I I I I #
face $-1 $87 $88 $21 $-1 $89 reversed single #
loop $-1 $-1 $90 $35 #
plane-surface $-1 0 0 -4 0 0 1 1 0 0 forward_v I I I I #
coedge $-1 $91 $92 $93 $94 forward $36 $-1 #
face $-1 $95 $96 $22 $-1 $97 reversed single #
loop $-1 $-1 $98 $38 #
plane-surface $-1 0 -17.429327992266021 0.37177648243659789 0 0 1 1 0 0 forward_v I I I I #
coedge $-1 $99 $100 $101 $102 reversed $39 $-1 #
face $-1 $103 $104 $23 $-1 $105 reversed single #
loop $-1 $-1 $106 $41 #
plane-surface $-1 -6.7311190190991823 5.1036901813993971 75.291748542949875 0.81915205242281985 0 0.57357642473473569 0.57357642473473569 0 -0.81915205242281985 forward_v I I I I #
coedge $-1 $107 $108 $109 $110 reversed $42 $-1 #
face $-1 $-1 $111 $24 $-1 $112 forward single #
loop $-1 $113 $114 $44 #
cone-surface $-1 42.053911027065745 5.1036901813993971 0.48756961179533675 -0.81915205242281985 0 -0.57357642473473569 0.28678821236736785 0 -0.40957602621140993 1 I I -0.70710678118654746 0.70710678118654746 0.5 forward I I I I #
loop $-1 $-1 $115 $31 #
coedge $-1 $72 $72 $116 $117 reversed $45 $-1 #
face $-1 $118 $119 $25 $-1 $120 forward single #
loop $-1 $-1 $121 $47 #
plane-surface $-1 -45.742362743003639 15.433737150092643 0.93914609210485622 -0.7660444514056185 0 0.64278759981090561 0.64278759981090561 0 0.7660444514056185 forward_v I I I I #
coedge $-1 $122 $123 $124 $125 reversed $48 $-1 #
face $-1 $-1 $126 $26 $-1 $127 forward single #
loop $-1 $128 $129 $50 #
cone-surface $-1 -43.500626519766826 13.935626789161194 1.6660885462887993 0.7660444514056185 0 -0.64278759981090561 0.1606968999527264 0 0.19151111285140462 1 I I -0.70710678118654746 0.70710678118654746 0.25 forward I I I I #
loop $-1 $-1 $130 $33 #
coedge $-1 $81 $81 $131 $132 reversed $51 $-1 #
face $-1 $-1 $133 $27 $-1 $134 forward single #
loop $-1 $135 $136 $53 #
cone-surface $-1 -43.500626519766826 16.931847511024092 1.6660885462887993 0.7660444514056185 0 -0.64278759981090561 0.1606968999527264 0 0.19151111285140462 1 I I -0.70710678118654746 0.70710678118654746 0.25 forward I I I I #
loop $-1 $-1 $137 $34 #
coedge $-1 $86 $86 $138 $139 reversed $54 $-1 #
face $-1 $140 $141 $21 $-1 $142 reversed single #
loop $-1 $-1 $143 $56 #
plane-surface $-1 0 -18.929327992266021 0 0 1 0 0 0 1 forward_v I I I I #
coedge $-1 $144 $145 $146 $147 forward $57 $-1 #
coedge $-1 $148 $59 $149 $150 forward $36 $-1 #
coedge $-1 $59 $148 $151 $152 forward $36 $-1 #
coedge $-1 $153 $154 $59 $94 reversed $155 $-1 #
edge $-1 $156 -18.929327992266021 $157 18.929327992266021 $93 $158 forward 7 unknown #
face $-1 $159 $160 $22 $-1 $161 reversed single #
loop $-1 $-1 $162 $60 #
plane-surface $-1 0 -15.929327992266021 1.8717764824365979 0 -1 0 0 0 -1 forward_v I I I I #
coedge $-1 $163 $164 $165 $166 reversed $61 $-1 #
coedge $-1 $167 $63 $168 $169 forward $39 $-1 #
coedge $-1 $63 $167 $170 $171 reversed $39 $-1 #
coedge $-1 $172 $173 $63 $102 forward $174 $-1 #
edge $-1 $175 7.2146639961330106 $176 10.214663996133011 $101 $177 forward 7 unknown #
face $-1 $178 $179 $23 $-1 $180 forward single #
loop $-1 $-1 $181 $64 #
plane-surface $-1 68.208781628101917 9.9074340673112324 127.76523030505268 0 -1 0 -0.81915205242281985 0 -0.57357642473473569 forward_v I I I I #
coedge $-1 $182 $183 $184 $185 reversed $65 $-1 #
coedge $-1 $108 $67 $186 $187 reversed $42 $-1 #
coedge $-1 $67 $107 $182 $188 reversed $42 $-1 #
coedge $-1 $184 $189 $67 $110 forward $190 $-1 #
edge $-1 $191 59.882615152526341 $192 63.530767256777594 $109 $193 forward 7 unknown #
loop $-1 $-1 $116 $68 #
plane-surface $-1 -6.7311190190991823 5.1036901813993971 75.291748542949875 0.81915205242281985 0 0.57357642473473569 0.57357642473473569 0 -0.81915205242281985 forward_v I I I I #
loop $-1 $-1 $194 $44 #
coedge $-1 $114 $114 $115 $195 reversed $69 $-1 #
coedge $-1 $115 $115 $114 $195 forward $71 $-1 #
coedge $-1 $116 $116 $72 $117 forward $111 $-1 #
edge $-1 $196 0 $196 6.2831853071796004 $116 $197 forward 7 unknown #
face $-1 $198 $199 $25 $-1 $200 reversed single #
loop $-1 $-1 $124 $73 #
plane-surface $-1 0 0 4 0 0 1 1 0 0 forward_v I I I I #
coedge $-1 $201 $202 $203 $204 reversed $74 $-1 #
coedge $-1 $123 $76 $205 $206 reversed $48 $-1 #
coedge $-1 $76 $122 $201 $207 reversed $48 $-1 #
coedge $-1 $203 $208 $76 $125 forward $119 $-1 #
edge $-1 $209 12.169501801959207 $210 14.737863119918771 $124 $211 forward 7 unknown #
loop $-1 $-1 $131 $77 #
plane-surface $-1 -45.742362743003639 15.433737150092643 0.93914609210485622 -0.7660444514056185 0 0.64278759981090561 0.64278759981090561 0 0.7660444514056185 forward_v I I I I #
loop $-1 $-1 $212 $50 #
coedge $-1 $129 $129 $130 $213 reversed $78 $-1 #
coedge $-1 $130 $130 $129 $213 forward $80 $-1 #
coedge $-1 $131 $131 $81 $132 forward $126 $-1 #
edge $-1 $214 0 $214 6.2831853071796004 $131 $215 forward 7 unknown #
loop $-1 $-1 $138 $82 #
plane-surface $-1 -45.742362743003639 15.433737150092643 0.93914609210485622 -0.7660444514056185 0 0.64278759981090561 0.64278759981090561 0 0.7660444514056185 forward_v I I I I #
loop $-1 $-1 $216 $53 #
coedge $-1 $136 $136 $137 $217 reversed $83 $-1 #
coedge $-1 $137 $137 $136 $217 forward $85 $-1 #
coedge $-1 $138 $138 $86 $139 forward $133 $-1 #
edge $-1 $218 0 $218 6.2831853071796004 $138 $219 forward 7 unknown #
face $-1 $220 $221 $21 $-1 $222 reversed single #
loop $-1 $-1 $223 $87 #
plane-surface $-1 -45.742362743003632 0 0 1 0 0 0 0 -1 forward_v I I I I #
coedge $-1 $224 $151 $225 $226 forward $88 $-1 #
coedge $-1 $227 $90 $224 $228 forward $57 $-1 #
coedge $-1 $90 $227 $229 $230 forward $57 $-1 #
coedge $-1 $154 $153 $90 $147 reversed $155 $-1 #
edge $-1 $231 -18.929327992266021 $232 18.929327992266021 $146 $233 forward 7 unknown #
coedge $-1 $92 $91 $234 $235 forward $36 $-1 #
coedge $-1 $236 $237 $91 $150 reversed $221 $-1 #
edge $-1 $157 -45.742362743003632 $238 45.742362743003632 $149 $239 forward 7 unknown #
coedge $-1 $143 $240 $92 $152 reversed $88 $-1 #
edge $-1 $241 -45.742362743003632 $156 45.742362743003632 $151 $242 forward 7 unknown #
coedge $-1 $146 $93 $240 $243 forward $155 $-1 #
coedge $-1 $93 $146 $236 $244 reversed $155 $-1 #
loop $-1 $-1 $153 $220 #
vertex $-1 $94 $245 #
vertex $-1 $94 $246 #
straight-curve $-1 45.742362743003632 0 4 0 1 0 I I #
face $-1 $247 $248 $22 $-1 $249 reversed single #
loop $-1 $-1 $250 $95 #
plane-surface $-1 -45.742362743003632 0 0 1 0 0 0 0 -1 forward_v I I I I #
coedge $-1 $251 $168 $173 $252 reversed $96 $-1 #
coedge $-1 $253 $98 $254 $255 reversed $61 $-1 #
coedge $-1 $98 $253 $251 $256 forward $61 $-1 #
coedge $-1 $173 $172 $98 $166 forward $174 $-1 #
edge $-1 $257 -10.214663996133011 $258 -7.2146639961330106 $165 $259 forward 7 unknown #
coedge $-1 $100 $99 $250 $260 reversed $39 $-1 #
coedge $-1 $162 $261 $99 $169 reversed $96 $-1 #
edge $-1 $175 -45.742362743003632 $262 45.742362743003632 $168 $263 forward 7 unknown #
coedge $-1 $264 $265 $100 $171 forward $248 $-1 #
edge $-1 $176 -45.742362743003632 $266 45.742362743003632 $170 $267 forward 7 unknown #
coedge $-1 $165 $101 $265 $268 forward $174 $-1 #
coedge $-1 $101 $165 $162 $252 forward $174 $-1 #
loop $-1 $-1 $101 $247 #
vertex $-1 $102 $269 #
vertex $-1 $268 $270 #
straight-curve $-1 45.742362743003632 -8.7146639961330106 3.3717764824365979 0 -1 0 I I #
face $-1 $-1 $190 $23 $-1 $271 reversed single #
loop $-1 $-1 $272 $103 #
plane-surface $-1 0 0 4 0 0 1 1 0 0 forward_v I I I I #
coedge $-1 $273 $274 $275 $276 reversed $104 $-1 #
coedge $-1 $277 $106 $108 $188 forward $65 $-1 #
coedge $-1 $106 $277 $273 $278 forward $65 $-1 #
coedge $-1 $275 $109 $106 $185 forward $190 $-1 #
edge $-1 $192 -2.2518987952121368 $279 7.3555889766115339 $184 $280 forward 7 unknown #
coedge $-1 $281 $282 $107 $187 forward $179 $-1 #
edge $-1 $283 9.0835084021191221 $191 11.637971928952673 $186 $284 forward 7 unknown #
edge $-1 $192 -91.484725486007306 $283 -87.031154145422789 $108 $285 forward 7 unknown #
coedge $-1 $109 $275 $281 $286 reversed $190 $-1 #
loop $-1 $-1 $275 $178 #
vertex $-1 $286 $287 #
vertex $-1 $110 $288 #
straight-curve $-1 45.742362743003632 0.2999462954875618 63.882615152526341 0 0 -1 I I #
coedge $-1 $194 $194 $-1 $289 reversed $113 $-1 #
edge $-1 $290 0 $290 6.2831853071796004 $114 $291 forward 7 unknown #
vertex $-1 $117 $292 #
ellipse-curve $-1 44.46513097958686 5.1036901813993971 2.175923947874383 0.81915205242281985 0 0.57357642473473569 0.57357642473473569 0 -0.81915205242281985 1 I I #
face $-1 $-1 $293 $25 $-1 $294 reversed single #
loop $-1 $-1 $295 $118 #
plane-surface $-1 0 18.929327992266021 0 0 -1 0 0 0 -1 forward_v I I I I #
coedge $-1 $296 $121 $123 $207 forward $74 $-1 #
coedge $-1 $121 $296 $295 $297 reversed $74 $-1 #
coedge $-1 $298 $124 $121 $204 forward $119 $-1 #
edge $-1 $210 4.2212777328729434 $299 11.2124594172197 $203 $300 forward 7 unknown #
coedge $-1 $301 $302 $122 $206 forward $293 $-1 #
edge $-1 $303 -28.933050511202662 $209 -25.872196603307525 $205 $304 forward 7 unknown #
edge $-1 $210 -3.9956609597246868 $303 -1.1030930024383267e-014 $123 $305 forward 7 unknown #
coedge $-1 $124 $298 $301 $306 forward $119 $-1 #
vertex $-1 $206 $307 #
vertex $-1 $125 $308 #
straight-curve $-1 -57.911864544962839 11.938146307919265 4 1 0 0 I I #
coedge $-1 $212 $212 $-1 $309 reversed $128 $-1 #
edge $-1 $310 0 $310 6.2831853071796004 $129 $311 forward 7 unknown #
vertex $-1 $132 $312 #
ellipse-curve $-1 -44.458182084023846 13.935626789161194 2.4695730460524339 -0.7660444514056185 0 0.64278759981090561 0.3213937999054528 0 0.38302222570280925 1 I I #
coedge $-1 $216 $216 $-1 $313 reversed $135 $-1 #
edge $-1 $314 0 $314 6.2831853071796004 $136 $315 forward 7 unknown #
vertex $-1 $139 $316 #
ellipse-curve $-1 -44.458182084023846 16.931847511024092 2.4695730460524339 -0.7660444514056185 0 0.64278759981090561 0.3213937999054528 0 0.38302222570280925 1 I I #
face $-1 $-1 $155 $21 $-1 $317 reversed single #
loop $-1 $-1 $236 $140 #
plane-surface $-1 0 18.929327992266021 0 0 -1 0 0 0 -1 forward_v I I I I #
coedge $-1 $318 $234 $237 $319 forward $141 $-1 #
coedge $-1 $240 $143 $144 $228 reversed $88 $-1 #
coedge $-1 $234 $318 $143 $226 reversed $141 $-1 #
edge $-1 $241 -4 $320 4 $225 $321 forward 7 unknown #
coedge $-1 $145 $144 $318 $322 forward $57 $-1 #
edge $-1 $232 -45.742362743003632 $320 45.742362743003632 $224 $323 forward 7 unknown #
coedge $-1 $237 $236 $145 $230 reversed $221 $-1 #
edge $-1 $324 -45.742362743003632 $231 45.742362743003632 $229 $325 forward 7 unknown #
vertex $-1 $147 $326 #
vertex $-1 $243 $327 #
straight-curve $-1 45.742362743003632 0 -4 0 -1 0 I I #
coedge $-1 $223 $225 $148 $235 reversed $141 $-1 #
edge $-1 $238 -18.929327992266021 $241 18.929327992266021 $234 $328 forward 7 unknown #
coedge $-1 $229 $149 $154 $244 forward $221 $-1 #
coedge $-1 $149 $229 $223 $319 reversed $221 $-1 #
vertex $-1 $150 $329 #
straight-curve $-1 0 18.929327992266021 4 -1 0 0 I I #
coedge $-1 $151 $224 $153 $243 reversed $88 $-1 #
vertex $-1 $235 $330 #
straight-curve $-1 0 -18.929327992266021 4 1 0 0 I I #
edge $-1 $156 -4 $232 4 $153 $331 forward 7 unknown #
edge $-1 $157 -4 $231 4 $154 $332 forward 7 unknown #
point $-1 45.742362743003632 -18.929327992266021 4 #
point $-1 45.742362743003632 18.929327992266021 4 #
face $-1 $-1 $174 $22 $-1 $333 reversed single #
loop $-1 $-1 $170 $159 #
plane-surface $-1 0 -18.929327992266021 0 0 1 0 0 0 1 forward_v I I I I #
coedge $-1 $334 $335 $167 $260 forward $160 $-1 #
coedge $-1 $261 $162 $164 $256 reversed $96 $-1 #
edge $-1 $258 -0.56411175878170106 $175 2.4358882412182989 $173 $336 forward 7 unknown #
coedge $-1 $164 $163 $337 $338 reversed $61 $-1 #
coedge $-1 $265 $264 $163 $255 forward $248 $-1 #
edge $-1 $339 -45.742362743003632 $257 45.742362743003632 $254 $340 forward 7 unknown #
edge $-1 $341 -45.742362743003632 $258 45.742362743003632 $251 $342 forward 7 unknown #
vertex $-1 $255 $343 #
vertex $-1 $166 $344 #
straight-curve $-1 45.742362743003632 -8.7146639961330106 0.37177648243659789 0 1 0 I I #
edge $-1 $266 -10.214663996133011 $262 -7.2146639961330106 $250 $345 forward 7 unknown #
coedge $-1 $168 $251 $334 $346 reversed $96 $-1 #
vertex $-1 $260 $347 #
straight-curve $-1 0 -15.929327992266021 3.3717764824365979 -1 0 0 I I #
coedge $-1 $254 $170 $335 $348 forward $248 $-1 #
coedge $-1 $170 $254 $172 $268 reversed $248 $-1 #
vertex $-1 $348 $349 #
straight-curve $-1 0 -18.929327992266021 3.3717764824365979 -1 0 0 I I #
edge $-1 $176 -3.3717764824365979 $257 -0.37177648243659789 $172 $350 forward 7 unknown #
point $-1 45.742362743003632 -15.929327992266021 3.3717764824365979 #
point $-1 45.742362743003632 -18.929327992266021 3.3717764824365979 #
plane-surface $-1 45.742362743003632 0 0 -1 0 0 0 0 1 forward_v I I I I #
coedge $-1 $282 $281 $274 $351 forward $179 $-1 #
coedge $-1 $274 $181 $183 $278 reversed $104 $-1 #
coedge $-1 $181 $273 $272 $351 reversed $104 $-1 #
coedge $-1 $189 $184 $181 $276 forward $190 $-1 #
edge $-1 $279 -63.530767256777594 $352 -59.882615152526341 $275 $353 forward 7 unknown #
coedge $-1 $183 $182 $282 $354 reversed $65 $-1 #
edge $-1 $355 87.031154145422789 $279 91.484725486007306 $273 $356 forward 7 unknown #
vertex $-1 $185 $357 #
straight-curve $-1 45.742362743003639 2.5518450906996986 0.35184789574874742 0 1 0 I I #
coedge $-1 $272 $186 $189 $286 forward $179 $-1 #
coedge $-1 $186 $272 $277 $354 forward $179 $-1 #
vertex $-1 $187 $358 #
straight-curve $-1 34.104390814050959 0.2999462954875618 4 1 0 0 I I #
straight-curve $-1 -6.7311190190991823 0.2999462954875618 75.291748542949875 -0.57357642473473569 0 0.81915205242281985 I I #
edge $-1 $191 0.2999462954875618 $352 9.9074340673112324 $189 $359 forward 7 unknown #
point $-1 45.742362743003632 0.2999462954875618 4 #
point $-1 45.742362743003632 0.2999462954875618 0.35184789574874742 #
edge $-1 $360 1 $360 0 $194 $-1 forward 7 unknown #
vertex $-1 $195 $361 #
ellipse-curve $-1 42.463487053277156 5.1036901813993971 0.7743578241627046 0.81915205242281985 0 0.57357642473473569 0.57357642473473569 0 -0.81915205242281985 1 I I #
point $-1 45.038707404321599 5.1036901813993971 1.3567718954515708 #
loop $-1 $-1 $205 $198 #
plane-surface $-1 -45.742362743003632 0 0 1 0 0 0 0 -1 forward_v I I I I #
coedge $-1 $362 $363 $202 $297 forward $199 $-1 #
coedge $-1 $202 $201 $302 $364 reversed $74 $-1 #
edge $-1 $299 10.34593699244477 $365 14.341597952169446 $295 $366 forward 7 unknown #
coedge $-1 $208 $203 $363 $367 forward $119 $-1 #
vertex $-1 $367 $368 #
straight-curve $-1 -43.174001425044068 7.7168685750463215 4 0 1 0 I I #
coedge $-1 $369 $205 $208 $306 reversed $293 $-1 #
coedge $-1 $205 $369 $296 $364 forward $293 $-1 #
vertex $-1 $206 $370 #
straight-curve $-1 -45.742362743003632 11.938146307919265 29.872196603307525 0 0 1 I I #
straight-curve $-1 -45.742362743003639 11.938146307919265 0.93914609210485622 -0.64278759981090561 0 -0.7660444514056185 I I #
edge $-1 $371 -18.929327992266021 $209 -11.938146307919265 $301 $372 forward 7 unknown #
point $-1 -45.742362743003632 11.938146307919265 4 #
point $-1 -43.174001425044068 11.938146307919265 4 #
edge $-1 $373 1 $373 0 $212 $-1 forward 7 unknown #
vertex $-1 $213 $374 #
ellipse-curve $-1 -43.692137632618227 13.935626789161194 1.8267854462415256 -0.7660444514056185 0 0.64278759981090561 0.3213937999054528 0 0.38302222570280925 1 I I #
point $-1 -44.136788284118396 13.935626789161194 2.8525952717552405 #
edge $-1 $375 1 $375 0 $216 $-1 forward 7 unknown #
vertex $-1 $217 $376 #
ellipse-curve $-1 -43.692137632618227 16.931847511024092 1.8267854462415256 -0.7660444514056185 0 0.64278759981090561 0.3213937999054528 0 0.38302222570280925 1 I I #
point $-1 -44.136788284118396 16.931847511024092 2.8525952717552405 #
plane-surface $-1 45.742362743003632 0 0 -1 0 0 0 0 1 forward_v I I I I #
coedge $-1 $225 $223 $227 $322 reversed $141 $-1 #
edge $-1 $238 -4 $324 4 $237 $377 forward 7 unknown #
vertex $-1 $322 $378 #
straight-curve $-1 -45.742362743003632 -18.929327992266021 0 0 0 -1 I I #
edge $-1 $320 -18.929327992266021 $324 18.929327992266021 $318 $379 forward 7 unknown #
straight-curve $-1 0 -18.929327992266021 -4 -1 0 0 I I #
vertex $-1 $230 $380 #
straight-curve $-1 0 18.929327992266021 -4 1 0 0 I I #
point $-1 45.742362743003632 18.929327992266021 -4 #
point $-1 45.742362743003632 -18.929327992266021 -4 #
straight-curve $-1 -45.742362743003632 0 4 0 -1 0 I I #
point $-1 -45.742362743003632 18.929327992266021 4 #
point $-1 -45.742362743003632 -18.929327992266021 4 #
straight-curve $-1 45.742362743003632 -18.929327992266021 0 0 0 -1 I I #
straight-curve $-1 45.742362743003632 18.929327992266021 0 0 0 -1 I I #
plane-surface $-1 45.742362743003632 0 0 -1 0 0 0 0 1 forward_v I I I I #
coedge $-1 $337 $250 $261 $346 forward $160 $-1 #
coedge $-1 $250 $337 $264 $348 reversed $160 $-1 #
straight-curve $-1 45.742362743003632 -15.929327992266021 0.93588824121829894 0 0 1 I I #
coedge $-1 $335 $334 $253 $338 forward $160 $-1 #
edge $-1 $341 7.2146639961330106 $339 10.214663996133011 $337 $381 forward 7 unknown #
vertex $-1 $255 $382 #
straight-curve $-1 0 -18.929327992266021 0.37177648243659789 1 0 0 I I #
vertex $-1 $338 $383 #
straight-curve $-1 0 -15.929327992266021 0.37177648243659789 1 0 0 I I #
point $-1 45.742362743003632 -18.929327992266021 0.37177648243659789 #
point $-1 45.742362743003632 -15.929327992266021 0.37177648243659789 #
straight-curve $-1 -45.742362743003632 -8.7146639961330106 3.3717764824365979 0 1 0 I I #
edge $-1 $262 -2.4358882412182989 $341 0.56411175878170106 $334 $384 forward 7 unknown #
point $-1 -45.742362743003632 -15.929327992266021 3.3717764824365979 #
edge $-1 $266 -3.3717764824365979 $339 -0.37177648243659789 $335 $385 forward 7 unknown #
point $-1 -45.742362743003632 -18.929327992266021 3.3717764824365979 #
straight-curve $-1 45.742362743003632 -18.929327992266021 0 0 0 -1 I I #
edge $-1 $352 -11.637971928952673 $355 -9.0835084021191221 $272 $386 forward 7 unknown #
vertex $-1 $351 $387 #
straight-curve $-1 45.742362743003632 9.9074340673112324 63.882615152526341 0 0 1 I I #
edge $-1 $355 -7.3555889766115339 $283 2.2518987952121368 $282 $388 forward 7 unknown #
vertex $-1 $354 $389 #
straight-curve $-1 -6.7311190190991823 9.9074340673112324 75.291748542949875 0.57357642473473569 0 -0.81915205242281985 I I #
point $-1 45.742362743003632 9.9074340673112324 0.35184789574874742 #
point $-1 43.187899216170081 0.2999462954875618 4 #
straight-curve $-1 45.742362743003632 0 4 0 1 0 I I #
vertex $-1 $289 $390 #
point $-1 43.037063478011888 5.1036901813993971 -0.044794228260115254 #
coedge $-1 $363 $295 $369 $391 reversed $199 $-1 #
coedge $-1 $295 $362 $298 $367 reversed $199 $-1 #
edge $-1 $365 -11.2124594172197 $303 -4.2212777328729434 $302 $392 forward 7 unknown #
vertex $-1 $297 $393 #
straight-curve $-1 -36.523761417875633 18.929327992266021 11.925447627654448 -0.64278759981090572 0 -0.76604445140561861 I I #
edge $-1 $299 43.174001425044068 $371 45.742362743003632 $363 $394 forward 7 unknown #
point $-1 -43.174001425044068 18.929327992266021 4 #
coedge $-1 $302 $301 $362 $391 forward $293 $-1 #
point $-1 -45.742362743003632 11.938146307919265 0.93914609210486466 #
vertex $-1 $367 $395 #
straight-curve $-1 -45.742362743003632 0 4 0 -1 0 I I #
vertex $-1 $309 $396 #
point $-1 -43.370743832712776 13.935626789161194 2.2098076719443349 #
vertex $-1 $313 $397 #
point $-1 -43.370743832712776 16.931847511024092 2.2098076719443349 #
straight-curve $-1 -45.742362743003632 18.929327992266021 0 0 0 -1 I I #
point $-1 -45.742362743003632 -18.929327992266021 -4 #
straight-curve $-1 -45.742362743003632 0 -4 0 1 0 I I #
point $-1 -45.742362743003632 18.929327992266021 -4 #
straight-curve $-1 -45.742362743003632 -8.7146639961330106 0.37177648243659789 0 -1 0 I I #
point $-1 -45.742362743003632 -18.929327992266021 0.37177648243659789 #
point $-1 -45.742362743003632 -15.929327992266021 0.37177648243659789 #
straight-curve $-1 -45.742362743003632 -15.929327992266021 0.93588824121829894 0 0 -1 I I #
straight-curve $-1 -45.742362743003632 -18.929327992266021 0 0 0 -1 I I #
straight-curve $-1 34.104390814050959 9.9074340673112324 4 -1 0 0 I I #
point $-1 45.742362743003632 9.9074340673112324 4 #
straight-curve $-1 43.187899216170088 2.5518450906996986 4 0 -1 0 I I #
point $-1 43.187899216170081 9.9074340673112324 4 #
point $-1 41.644335000854333 5.1036901813993971 0.20078139942796891 #
edge $-1 $371 -4 $365 -0.93914609210486466 $362 $398 forward 7 unknown #
straight-curve $-1 -45.742362743003632 7.7168685750463215 0.93914609210486555 0 -1 0 I I #
point $-1 -45.742362743003632 18.929327992266021 0.93914609210486466 #
straight-curve $-1 0 18.929327992266021 4 -1 0 0 I I #
point $-1 -45.742362743003632 18.929327992266021 4 #
point $-1 -43.309115406915424 13.935626789161194 1.505391646336073 #
point $-1 -43.309115406915424 16.931847511024092 1.505391646336073 #
straight-curve $-1 -45.742362743003632 18.929327992266021 0 0 0 -1 I I #
End-of-ACIS-data 