500 0 5 0           
7 Unknown 11 ACIS 5.0 NT 24 Fri Mar 26 17:33:45 1999 
-1 9.9999999999999995e-007 1e-010 
body $-1 $5 $-1 $6 #
body $-1 $7 $-1 $8 #
body $-1 $9 $-1 $10 #
body $-1 $11 $-1 $12 #
body $-1 $13 $-1 $14 #
lump $-1 $-1 $15 $0 #
transform $-1 1 0 0 0 1 0 0 0 1 55.833002716147348 30.089365674722472 14.32759596168172 1 rotate no_reflect no_shear #
lump $-1 $-1 $16 $1 #
transform $-1 1 0 0 0 1 0 0 0 1 55.833002716147348 30.089365674722472 14.32759596168172 1 rotate no_reflect no_shear #
lump $-1 $-1 $17 $2 #
transform $-1 1 0 0 0 1 0 0 0 1 55.833002716147348 30.089365674722472 14.32759596168172 1 rotate no_reflect no_shear #
lump $-1 $-1 $18 $3 #
transform $-1 1 0 0 0 1 0 0 0 1 55.833002716147348 30.089365674722472 14.32759596168172 1 rotate no_reflect no_shear #
lump $-1 $-1 $19 $4 #
transform $-1 1 0 0 0 1 0 0 0 1 55.833002716147348 30.089365674722472 14.32759596168172 1 rotate no_reflect no_shear #
shell $-1 $-1 $-1 $20 $-1 $5 #
shell $-1 $-1 $-1 $21 $-1 $7 #
shell $-1 $-1 $-1 $22 $-1 $9 #
shell $-1 $-1 $-1 $23 $-1 $11 #
shell $-1 $-1 $-1 $24 $-1 $13 #
face $-1 $25 $26 $15 $-1 $27 reversed single #
face $-1 $28 $29 $16 $-1 $30 forward single #
face $-1 $31 $32 $17 $-1 $33 forward single #
face $-1 $34 $35 $18 $-1 $36 reversed single #
face $-1 $37 $38 $19 $-1 $39 forward single #
face $-1 $40 $41 $15 $-1 $42 reversed single #
loop $-1 $-1 $43 $20 #
plane-surface $-1 0 30.089365674722472 0 0 -1 0 0 0 -1 forward_v I I I I #
face $-1 $44 $45 $16 $-1 $46 reversed single #
loop $-1 $-1 $47 $21 #
plane-surface $-1 0 -30.089365674722472 0 0 1 0 0 0 1 forward_v I I I I #
face $-1 $48 $49 $17 $-1 $50 reversed single #
loop $-1 $-1 $51 $22 #
plane-surface $-1 0 30.089365674722472 0 0 -1 0 0 0 -1 forward_v I I I I #
face $-1 $52 $53 $18 $-1 $54 reversed single #
loop $-1 $-1 $55 $23 #
plane-surface $-1 -138.81701775961596 -16.648019433765111 78.099062944669285 0 1 0 -0.74314483375859142 0 0.66913059716165679 forward_v I I I I #
face $-1 $56 $57 $19 $-1 $58 forward single #
loop $-1 $59 $60 $24 #
cone-surface $-1 -50.449213573717067 -13.548563910634165 8.4439632263665256 0.74314483375859142 0 -0.66913059716165679 0.66913059716165679 0 0.74314483375859142 1 I I 0 1 1 forward I I I I #
face $-1 $61 $62 $15 $-1 $63 forward single #
loop $-1 $-1 $64 $25 #
plane-surface $-1 0 -30.089365674722472 0 0 1 0 0 0 1 forward_v I I I I #
coedge $-1 $65 $66 $67 $68 reversed $26 $-1 #
face $-1 $69 $70 $16 $-1 $71 reversed single #
loop $-1 $-1 $72 $28 #
plane-surface $-1 0 0 -14.32759596168172 0 0 1 1 0 0 forward_v I I I I #
coedge $-1 $73 $74 $75 $76 forward $29 $-1 #
face $-1 $77 $78 $17 $-1 $79 reversed single #
loop $-1 $-1 $80 $31 #
plane-surface $-1 0 0 -14.32759596168172 0 0 1 1 0 0 forward_v I I I I #
coedge $-1 $81 $82 $83 $84 forward $32 $-1 #
face $-1 $85 $86 $18 $-1 $87 reversed single #
loop $-1 $-1 $88 $34 #
plane-surface $-1 -55.833002716147362 -13.548563910634165 3.3799220471011182 -0.74314483375859142 0 0.66913059716165679 0.66913059716165679 0 0.74314483375859142 forward_v I I I I #
coedge $-1 $89 $90 $91 $92 reversed $35 $-1 #
face $-1 $-1 $93 $19 $-1 $94 forward single #
loop $-1 $95 $96 $37 #
cone-surface $-1 -49.622516825911823 -13.548563910634165 7.6996021497608069 0.74314483375859142 0 -0.66913059716165679 0.3345652985808284 0 0.37157241687929571 1 I I -0.70710678118654746 0.70710678118654746 0.5 forward I I I I #
loop $-1 $-1 $97 $24 #
coedge $-1 $60 $60 $98 $99 reversed $38 $-1 #
face $-1 $100 $101 $15 $-1 $102 reversed single #
loop $-1 $-1 $103 $40 #
plane-surface $-1 0 0 14.32759596168172 0 0 1 1 0 0 forward_v I I I I #
coedge $-1 $104 $105 $106 $107 reversed $41 $-1 #
coedge $-1 $108 $43 $109 $110 reversed $26 $-1 #
coedge $-1 $43 $108 $111 $112 forward $26 $-1 #
coedge $-1 $113 $114 $43 $68 forward $101 $-1 #
edge $-1 $115 -55.833002716147348 $116 55.833002716147348 $43 $117 forward 7 unknown #
face $-1 $118 $119 $16 $-1 $120 reversed single #
loop $-1 $-1 $121 $44 #
plane-surface $-1 -28.888141052011733 -43.530711915679831 0 0 1 0 0 0 1 forward_v I I I I #
coedge $-1 $122 $123 $74 $124 forward $45 $-1 #
coedge $-1 $125 $47 $126 $127 reversed $29 $-1 #
coedge $-1 $47 $125 $72 $124 reversed $29 $-1 #
coedge $-1 $128 $129 $47 $76 reversed $119 $-1 #
edge $-1 $130 -14.32759596168172 $131 14.32759596168172 $75 $132 forward 7 unknown #
face $-1 $133 $134 $17 $-1 $135 reversed single #
loop $-1 $-1 $136 $48 #
plane-surface $-1 -30.598471311239557 36.810038795201152 0 1 0 0 0 0 -1 forward_v I I I I #
coedge $-1 $137 $138 $82 $139 forward $49 $-1 #
coedge $-1 $140 $51 $141 $142 reversed $32 $-1 #
coedge $-1 $51 $140 $80 $139 reversed $32 $-1 #
coedge $-1 $143 $144 $51 $84 reversed $145 $-1 #
edge $-1 $146 -14.32759596168172 $147 14.32759596168172 $83 $148 forward 7 unknown #
face $-1 $149 $150 $18 $-1 $151 reversed single #
loop $-1 $-1 $152 $52 #
plane-surface $-1 -138.81701775961596 -10.44910838750322 78.099062944669285 0 -1 0 0.74314483375859142 0 -0.66913059716165679 forward_v I I I I #
coedge $-1 $153 $154 $155 $156 reversed $53 $-1 #
coedge $-1 $90 $55 $157 $158 reversed $35 $-1 #
coedge $-1 $55 $89 $153 $159 reversed $35 $-1 #
coedge $-1 $155 $160 $55 $92 forward $161 $-1 #
edge $-1 $162 13.575506163660634 $163 23.43283578666928 $91 $164 forward 7 unknown #
loop $-1 $-1 $98 $56 #
plane-surface $-1 -55.833002716147362 -13.548563910634165 3.3799220471011182 -0.74314483375859142 0 0.66913059716165679 0.66913059716165679 0 0.74314483375859142 forward_v I I I I #
loop $-1 $-1 $165 $37 #
coedge $-1 $96 $96 $97 $166 reversed $57 $-1 #
coedge $-1 $97 $97 $96 $166 forward $59 $-1 #
coedge $-1 $98 $98 $60 $99 forward $93 $-1 #
edge $-1 $167 0 $167 6.2831853071796004 $98 $168 forward 7 unknown #
face $-1 $169 $170 $15 $-1 $171 reversed single #
loop $-1 $-1 $113 $61 #
plane-surface $-1 0 0 -14.32759596168172 0 0 1 1 0 0 forward_v I I I I #
coedge $-1 $172 $173 $174 $175 forward $62 $-1 #
coedge $-1 $176 $64 $177 $178 reversed $41 $-1 #
coedge $-1 $64 $176 $179 $180 forward $41 $-1 #
coedge $-1 $114 $113 $64 $107 forward $101 $-1 #
edge $-1 $181 -55.833002716147348 $182 55.833002716147348 $64 $183 forward 7 unknown #
coedge $-1 $66 $65 $172 $184 reversed $26 $-1 #
coedge $-1 $185 $186 $65 $110 forward $170 $-1 #
edge $-1 $187 -14.32759596168172 $115 14.32759596168172 $65 $188 forward 7 unknown #
coedge $-1 $174 $189 $66 $112 reversed $190 $-1 #
edge $-1 $191 -14.32759596168172 $116 14.32759596168172 $111 $192 forward 7 unknown #
coedge $-1 $106 $67 $189 $193 forward $101 $-1 #
coedge $-1 $67 $106 $185 $194 forward $101 $-1 #
vertex $-1 $68 $195 #
vertex $-1 $193 $196 #
straight-curve $-1 0 30.089365674722472 -14.32759596168172 1 0 0 I I #
face $-1 $197 $198 $16 $-1 $199 reversed single #
loop $-1 $-1 $75 $69 #
plane-surface $-1 -30.598471311239557 -36.810038795201152 0 1 0 0 0 0 -1 forward_v I I I I #
coedge $-1 $200 $201 $202 $203 forward $70 $-1 #
coedge $-1 $204 $72 $205 $206 forward $45 $-1 #
coedge $-1 $72 $204 $128 $207 forward $45 $-1 #
edge $-1 $130 -30.598471311239557 $208 -27.177810792783909 $72 $209 forward 7 unknown #
coedge $-1 $74 $73 $210 $211 forward $29 $-1 #
coedge $-1 $212 $213 $73 $127 forward $214 $-1 #
edge $-1 $215 27.177810792783909 $131 30.598471311239557 $126 $216 forward 7 unknown #
coedge $-1 $202 $75 $123 $207 reversed $119 $-1 #
coedge $-1 $75 $202 $212 $217 reversed $119 $-1 #
vertex $-1 $124 $218 #
vertex $-1 $217 $219 #
straight-curve $-1 -30.598471311239557 -30.089365674722472 0 0 0 1 I I #
face $-1 $220 $145 $17 $-1 $221 reversed single #
loop $-1 $-1 $222 $77 #
plane-surface $-1 -28.888141052011733 43.530711915679831 0 0 -1 0 0 0 -1 forward_v I I I I #
coedge $-1 $223 $224 $225 $226 forward $78 $-1 #
coedge $-1 $227 $80 $223 $228 forward $49 $-1 #
coedge $-1 $80 $227 $143 $229 forward $49 $-1 #
edge $-1 $146 27.177810792783909 $230 30.598471311239557 $80 $231 forward 7 unknown #
coedge $-1 $82 $81 $232 $233 forward $32 $-1 #
coedge $-1 $234 $235 $81 $142 forward $236 $-1 #
edge $-1 $237 -30.598471311239557 $147 -27.177810792783909 $141 $238 forward 7 unknown #
coedge $-1 $239 $83 $138 $229 reversed $145 $-1 #
coedge $-1 $83 $239 $234 $240 reversed $145 $-1 #
loop $-1 $-1 $83 $133 #
vertex $-1 $139 $241 #
vertex $-1 $240 $242 #
straight-curve $-1 -27.177810792783909 30.089365674722472 0 0 0 1 I I #
face $-1 $-1 $161 $18 $-1 $243 forward single #
loop $-1 $-1 $244 $85 #
plane-surface $-1 -55.833002716147348 0 0 1 0 0 0 0 -1 forward_v I I I I #
coedge $-1 $245 $246 $247 $248 reversed $86 $-1 #
coedge $-1 $249 $88 $90 $159 forward $53 $-1 #
coedge $-1 $88 $249 $245 $250 forward $53 $-1 #
coedge $-1 $247 $91 $88 $156 forward $161 $-1 #
edge $-1 $163 -9.8737374784480281 $251 -3.674826432186137 $155 $252 forward 7 unknown #
coedge $-1 $253 $254 $89 $158 forward $150 $-1 #
edge $-1 $255 -35.66960942523351 $162 -24.721935510652923 $157 $256 forward 7 unknown #
edge $-1 $163 -14.731548168357342 $255 -2.1389731374768986e-014 $90 $257 forward 7 unknown #
coedge $-1 $91 $247 $253 $258 forward $161 $-1 #
loop $-1 $-1 $247 $149 #
vertex $-1 $158 $259 #
vertex $-1 $92 $260 #
straight-curve $-1 -69.408508879807982 -16.648019433765111 14.32759596168172 1 0 0 I I #
coedge $-1 $165 $165 $-1 $261 reversed $95 $-1 #
edge $-1 $262 0 $262 6.2831853071796004 $96 $263 forward 7 unknown #
vertex $-1 $99 $264 #
ellipse-curve $-1 -50.904337904643029 -13.548563910634165 8.8537590043914243 -0.74314483375859142 0 0.66913059716165679 0.66913059716165679 0 0.74314483375859142 1 I I #
face $-1 $-1 $190 $15 $-1 $265 reversed single #
loop $-1 $-1 $109 $100 #
plane-surface $-1 -55.833002716147348 0 0 1 0 0 0 0 -1 forward_v I I I I #
coedge $-1 $266 $103 $108 $184 forward $62 $-1 #
coedge $-1 $103 $266 $176 $267 forward $62 $-1 #
coedge $-1 $177 $111 $103 $175 reversed $190 $-1 #
edge $-1 $268 -30.089365674722472 $191 30.089365674722472 $174 $269 forward 7 unknown #
coedge $-1 $105 $104 $173 $267 reversed $41 $-1 #
coedge $-1 $189 $174 $104 $178 forward $190 $-1 #
edge $-1 $268 -14.32759596168172 $181 14.32759596168172 $177 $270 forward 7 unknown #
coedge $-1 $186 $185 $105 $180 reversed $170 $-1 #
edge $-1 $271 -14.32759596168172 $182 14.32759596168172 $179 $272 forward 7 unknown #
vertex $-1 $178 $273 #
vertex $-1 $194 $274 #
straight-curve $-1 0 -30.089365674722472 -14.32759596168172 -1 0 0 I I #
edge $-1 $191 -55.833002716147348 $187 55.833002716147348 $108 $275 forward 7 unknown #
coedge $-1 $179 $109 $114 $194 reversed $170 $-1 #
coedge $-1 $109 $179 $266 $276 reversed $170 $-1 #
vertex $-1 $184 $277 #
straight-curve $-1 -55.833002716147348 30.089365674722472 0 0 0 -1 I I #
coedge $-1 $111 $177 $113 $193 reversed $190 $-1 #
loop $-1 $-1 $177 $169 #
vertex $-1 $175 $278 #
straight-curve $-1 55.833002716147348 30.089365674722472 0 0 0 -1 I I #
edge $-1 $116 -30.089365674722472 $181 30.089365674722472 $189 $279 forward 7 unknown #
edge $-1 $182 -30.089365674722472 $115 30.089365674722472 $185 $280 forward 7 unknown #
point $-1 -55.833002716147348 30.089365674722472 -14.32759596168172 #
point $-1 55.833002716147348 30.089365674722472 -14.32759596168172 #
face $-1 $-1 $214 $16 $-1 $281 forward single #
loop $-1 $-1 $282 $118 #
plane-surface $-1 -27.177810792783909 -36.810038795201152 0 -1 0 0 0 0 1 forward_v I I I I #
coedge $-1 $283 $121 $204 $284 reversed $70 $-1 #
coedge $-1 $121 $283 $285 $286 reversed $70 $-1 #
coedge $-1 $129 $128 $121 $203 reversed $119 $-1 #
edge $-1 $287 -14.32759596168172 $288 14.32759596168172 $202 $289 forward 7 unknown #
coedge $-1 $123 $122 $200 $284 forward $45 $-1 #
coedge $-1 $210 $282 $122 $206 reversed $198 $-1 #
edge $-1 $208 -6.7206731204786827 $290 6.7206731204786792 $205 $291 forward 7 unknown #
edge $-1 $288 -6.7206731204786792 $130 6.7206731204786827 $128 $292 forward 7 unknown #
vertex $-1 $206 $293 #
straight-curve $-1 0 -30.089365674722472 -14.32759596168172 1 0 0 I I #
coedge $-1 $294 $205 $125 $211 reversed $198 $-1 #
edge $-1 $215 -14.32759596168172 $208 14.32759596168172 $210 $295 forward 7 unknown #
coedge $-1 $285 $126 $129 $217 forward $214 $-1 #
coedge $-1 $126 $285 $294 $296 forward $214 $-1 #
loop $-1 $-1 $126 $197 #
vertex $-1 $127 $297 #
straight-curve $-1 0 -30.089365674722472 14.32759596168172 -1 0 0 I I #
edge $-1 $131 -6.7206731204786827 $287 6.7206731204786792 $129 $298 forward 7 unknown #
point $-1 -30.598471311239557 -30.089365674722469 -14.32759596168172 #
point $-1 -30.598471311239557 -30.089365674722469 14.32759596168172 #
face $-1 $-1 $236 $17 $-1 $299 forward single #
plane-surface $-1 -27.177810792783909 36.810038795201152 0 -1 0 0 0 0 1 forward_v I I I I #
coedge $-1 $300 $301 $239 $302 forward $134 $-1 #
coedge $-1 $232 $136 $137 $228 reversed $78 $-1 #
coedge $-1 $136 $232 $235 $303 reversed $78 $-1 #
coedge $-1 $301 $300 $136 $226 reversed $134 $-1 #
edge $-1 $304 -14.32759596168172 $305 14.32759596168172 $225 $306 forward 7 unknown #
coedge $-1 $138 $137 $300 $307 forward $49 $-1 #
edge $-1 $230 -6.7206731204786792 $305 6.7206731204786792 $223 $308 forward 7 unknown #
edge $-1 $309 -6.7206731204786792 $146 6.7206731204786792 $143 $310 forward 7 unknown #
vertex $-1 $228 $311 #
straight-curve $-1 0 30.089365674722472 -14.32759596168172 -1 0 0 I I #
coedge $-1 $224 $223 $140 $233 reversed $78 $-1 #
edge $-1 $237 -14.32759596168172 $230 14.32759596168172 $232 $312 forward 7 unknown #
coedge $-1 $313 $141 $144 $240 forward $236 $-1 #
coedge $-1 $141 $313 $224 $303 forward $236 $-1 #
loop $-1 $-1 $141 $220 #
vertex $-1 $142 $314 #
straight-curve $-1 0 30.089365674722472 14.32759596168172 1 0 0 I I #
coedge $-1 $144 $143 $222 $302 reversed $145 $-1 #
edge $-1 $147 -6.7206731204786792 $315 6.7206731204786792 $144 $316 forward 7 unknown #
point $-1 -27.177810792783909 30.089365674722472 -14.32759596168172 #
point $-1 -27.177810792783909 30.089365674722472 14.32759596168172 #
plane-surface $-1 0 0 14.32759596168172 0 0 1 1 0 0 forward_v I I I I #
coedge $-1 $254 $253 $246 $317 forward $150 $-1 #
coedge $-1 $246 $152 $154 $250 reversed $86 $-1 #
coedge $-1 $152 $245 $244 $317 reversed $86 $-1 #
coedge $-1 $160 $155 $152 $248 forward $161 $-1 #
edge $-1 $251 -23.43283578666928 $318 -13.575506163660634 $247 $319 forward 7 unknown #
coedge $-1 $154 $153 $254 $320 reversed $53 $-1 #
edge $-1 $321 2.1389731374768986e-014 $251 14.731548168357342 $245 $322 forward 7 unknown #
vertex $-1 $156 $323 #
straight-curve $-1 -45.975673093138695 -6.7742819553170825 14.32759596168172 0 1 0 I I #
coedge $-1 $244 $157 $160 $258 reversed $150 $-1 #
coedge $-1 $157 $244 $249 $320 forward $150 $-1 #
vertex $-1 $158 $324 #
straight-curve $-1 -55.833002716147348 -16.648019433765111 39.049531472334643 0 0 1 I I #
straight-curve $-1 -55.833002716147362 -16.648019433765111 3.3799220471011182 -0.66913059716165679 0 -0.74314483375859142 I I #
edge $-1 $318 10.44910838750322 $162 16.648019433765111 $253 $325 forward 7 unknown #
point $-1 -55.833002716147348 -16.648019433765111 14.32759596168172 #
point $-1 -45.975673093138703 -16.648019433765111 14.32759596168172 #
edge $-1 $326 1 $326 0 $165 $-1 forward 7 unknown #
vertex $-1 $166 $327 #
ellipse-curve $-1 -49.994089242791119 -13.548563910634165 8.0341674483416359 -0.74314483375859142 0 0.66913059716165679 0.66913059716165679 0 0.74314483375859142 1 I I #
point $-1 -50.23520730748136 -13.548563910634165 9.5969038381500056 #
plane-surface $-1 55.833002716147348 0 0 -1 0 0 0 0 1 forward_v I I I I #
coedge $-1 $173 $172 $186 $276 forward $62 $-1 #
edge $-1 $271 -55.833002716147348 $268 55.833002716147348 $176 $328 forward 7 unknown #
vertex $-1 $175 $329 #
straight-curve $-1 55.833002716147348 0 14.32759596168172 0 1 0 I I #
straight-curve $-1 55.833002716147348 -30.089365674722472 0 0 0 -1 I I #
vertex $-1 $276 $330 #
straight-curve $-1 -55.833002716147348 -30.089365674722472 0 0 0 -1 I I #
point $-1 55.833002716147348 -30.089365674722472 -14.32759596168172 #
point $-1 -55.833002716147348 -30.089365674722472 -14.32759596168172 #
straight-curve $-1 0 30.089365674722472 14.32759596168172 -1 0 0 I I #
edge $-1 $187 -30.089365674722472 $271 30.089365674722472 $186 $331 forward 7 unknown #
point $-1 -55.833002716147348 30.089365674722472 14.32759596168172 #
point $-1 55.833002716147348 30.089365674722472 14.32759596168172 #
straight-curve $-1 55.833002716147348 0 -14.32759596168172 0 -1 0 I I #
straight-curve $-1 -55.833002716147348 0 -14.32759596168172 0 1 0 I I #
plane-surface $-1 0 0 14.32759596168172 0 0 1 1 0 0 forward_v I I I I #
coedge $-1 $205 $294 $283 $332 forward $198 $-1 #
coedge $-1 $201 $200 $282 $332 reversed $70 $-1 #
edge $-1 $290 -1.710330259227824 $288 1.710330259227824 $200 $333 forward 7 unknown #
coedge $-1 $213 $212 $201 $286 forward $214 $-1 #
edge $-1 $287 -1.710330259227824 $334 1.710330259227824 $201 $335 forward 7 unknown #
vertex $-1 $217 $336 #
vertex $-1 $207 $337 #
straight-curve $-1 -30.598471311239557 -43.530711915679831 0 0 0 -1 I I #
vertex $-1 $332 $338 #
straight-curve $-1 -27.177810792783909 -36.810038795201152 -14.32759596168172 0 -1 0 I I #
straight-curve $-1 -30.598471311239557 -36.810038795201152 -14.32759596168172 0 1 0 I I #
point $-1 -27.177810792783909 -30.089365674722469 -14.32759596168172 #
coedge $-1 $282 $210 $213 $296 reversed $198 $-1 #
straight-curve $-1 -27.177810792783909 -30.089365674722472 0 0 0 -1 I I #
edge $-1 $334 -6.7206731204786792 $215 6.7206731204786827 $294 $339 forward 7 unknown #
point $-1 -27.177810792783909 -30.089365674722469 14.32759596168172 #
straight-curve $-1 -30.598471311239557 -36.810038795201152 14.32759596168172 0 -1 0 I I #
plane-surface $-1 0 0 14.32759596168172 0 0 1 1 0 0 forward_v I I I I #
coedge $-1 $225 $222 $227 $307 reversed $134 $-1 #
coedge $-1 $222 $225 $313 $340 reversed $134 $-1 #
edge $-1 $315 -14.32759596168172 $309 14.32759596168172 $239 $341 forward 7 unknown #
edge $-1 $304 -6.7206731204786792 $237 6.7206731204786792 $224 $342 forward 7 unknown #
vertex $-1 $340 $343 #
vertex $-1 $307 $344 #
straight-curve $-1 -30.598471311239557 43.530711915679831 0 0 0 -1 I I #
edge $-1 $305 -1.710330259227824 $309 1.710330259227824 $300 $345 forward 7 unknown #
straight-curve $-1 -30.598471311239557 36.810038795201152 -14.32759596168172 0 1 0 I I #
vertex $-1 $229 $346 #
straight-curve $-1 -27.177810792783909 36.810038795201152 -14.32759596168172 0 -1 0 I I #
point $-1 -30.598471311239557 30.089365674722472 -14.32759596168172 #
straight-curve $-1 -30.598471311239557 30.089365674722472 0 0 0 -1 I I #
coedge $-1 $235 $234 $301 $340 forward $236 $-1 #
point $-1 -30.598471311239557 30.089365674722472 14.32759596168172 #
vertex $-1 $240 $347 #
straight-curve $-1 -27.177810792783909 36.810038795201152 14.32759596168172 0 1 0 I I #
edge $-1 $318 24.721935510652923 $321 35.66960942523351 $244 $348 forward 7 unknown #
vertex $-1 $258 $349 #
straight-curve $-1 -69.408508879807982 -10.44910838750322 14.32759596168172 -1 0 0 I I #
edge $-1 $321 3.674826432186137 $255 9.8737374784480281 $254 $350 forward 7 unknown #
vertex $-1 $320 $351 #
straight-curve $-1 -55.833002716147362 -10.44910838750322 3.3799220471011182 0.66913059716165679 0 0.74314483375859142 I I #
point $-1 -45.975673093138703 -10.44910838750322 14.32759596168172 #
point $-1 -55.833002716147348 -16.648019433765111 3.3799220471011342 #
straight-curve $-1 -55.833002716147348 0 14.32759596168172 0 -1 0 I I #
vertex $-1 $261 $352 #
point $-1 -49.324958645629465 -13.548563910634165 8.7773122821002261 #
straight-curve $-1 0 -30.089365674722472 14.32759596168172 1 0 0 I I #
point $-1 55.833002716147348 -30.089365674722472 14.32759596168172 #
point $-1 -55.833002716147348 -30.089365674722472 14.32759596168172 #
straight-curve $-1 -55.833002716147348 0 14.32759596168172 0 -1 0 I I #
edge $-1 $334 -14.32759596168172 $290 14.32759596168172 $282 $353 forward 7 unknown #
straight-curve $-1 -28.888141052011733 -43.530711915679831 -14.32759596168172 -1 0 0 I I #
vertex $-1 $296 $354 #
straight-curve $-1 -28.888141052011733 -43.530711915679831 14.32759596168172 1 0 0 I I #
point $-1 -30.598471311239557 -43.530711915679831 14.32759596168172 #
point $-1 -30.598471311239557 -43.530711915679831 -14.32759596168172 #
point $-1 -27.177810792783909 -43.530711915679831 -14.32759596168172 #
straight-curve $-1 -27.177810792783909 -36.810038795201152 14.32759596168172 0 1 0 I I #
edge $-1 $315 -1.710330259227824 $304 1.710330259227824 $301 $355 forward 7 unknown #
straight-curve $-1 -27.177810792783909 43.530711915679831 0 0 0 -1 I I #
straight-curve $-1 -30.598471311239557 36.810038795201152 14.32759596168172 0 -1 0 I I #
point $-1 -30.598471311239557 43.530711915679831 14.32759596168172 #
point $-1 -30.598471311239557 43.530711915679831 -14.32759596168172 #
straight-curve $-1 -28.888141052011733 43.530711915679831 -14.32759596168172 1 0 0 I I #
point $-1 -27.177810792783909 43.530711915679831 -14.32759596168172 #
point $-1 -27.177810792783909 43.530711915679831 14.32759596168172 #
straight-curve $-1 -55.833002716147348 -10.44910838750322 39.049531472334643 0 0 -1 I I #
point $-1 -55.833002716147348 -10.44910838750322 14.32759596168172 #
straight-curve $-1 -55.833002716147348 -6.7742819553170825 3.3799220471011351 0 -1 0 I I #
point $-1 -55.833002716147348 -10.44910838750322 3.3799220471011342 #
point $-1 -49.250944409032527 -13.548563910634165 7.3650368511799789 #
straight-curve $-1 -27.177810792783909 -43.530711915679831 0 0 0 -1 I I #
point $-1 -27.177810792783909 -43.530711915679831 14.32759596168172 #
straight-curve $-1 -28.888141052011733 43.530711915679831 14.32759596168172 -1 0 0 I I #
End-of-ACIS-data 