500 0 10 0           
7 Unknown 11 ACIS 5.0 NT 24 Thu Mar 25 22:20:51 1999 
-1 9.9999999999999995e-007 1e-010 
body $-1 $10 $-1 $11 #
body $-1 $12 $-1 $13 #
body $-1 $14 $-1 $15 #
body $-1 $16 $-1 $17 #
body $-1 $18 $-1 $19 #
body $-1 $20 $-1 $21 #
body $-1 $22 $-1 $23 #
body $-1 $24 $-1 $25 #
body $-1 $26 $-1 $27 #
body $-1 $28 $-1 $29 #
lump $-1 $-1 $30 $0 #
transform $-1 1 0 0 0 1 0 0 0 1 64.541764580217901 27.095447052384333 12.407080206264833 1 rotate no_reflect no_shear #
lump $-1 $-1 $31 $1 #
transform $-1 1 0 0 0 1 0 0 0 1 64.541764580217901 27.095447052384333 12.407080206264833 1 rotate no_reflect no_shear #
lump $-1 $-1 $32 $2 #
transform $-1 1 0 0 0 1 0 0 0 1 64.541764580217901 27.095447052384333 12.407080206264833 1 rotate no_reflect no_shear #
lump $-1 $-1 $33 $3 #
transform $-1 1 0 0 0 1 0 0 0 1 64.541764580217901 27.095447052384333 12.407080206264833 1 rotate no_reflect no_shear #
lump $-1 $-1 $34 $4 #
transform $-1 1 0 0 0 1 0 0 0 1 64.541764580217901 27.095447052384333 12.407080206264833 1 rotate no_reflect no_shear #
lump $-1 $-1 $35 $5 #
transform $-1 1 0 0 0 1 0 0 0 1 64.541764580217901 27.095447052384333 12.407080206264833 1 rotate no_reflect no_shear #
lump $-1 $-1 $36 $6 #
transform $-1 1 0 0 0 1 0 0 0 1 64.541764580217901 27.095447052384333 12.407080206264833 1 rotate no_reflect no_shear #
lump $-1 $-1 $37 $7 #
transform $-1 1 0 0 0 1 0 0 0 1 64.541764580217901 27.095447052384333 12.407080206264833 1 rotate no_reflect no_shear #
lump $-1 $-1 $38 $8 #
transform $-1 1 0 0 0 1 0 0 0 1 64.541764580217901 27.095447052384333 12.407080206264833 1 rotate no_reflect no_shear #
lump $-1 $-1 $39 $9 #
transform $-1 1 0 0 0 1 0 0 0 1 64.541764580217901 27.095447052384333 12.407080206264833 1 rotate no_reflect no_shear #
shell $-1 $-1 $-1 $40 $-1 $10 #
shell $-1 $-1 $-1 $41 $-1 $12 #
shell $-1 $-1 $-1 $42 $-1 $14 #
shell $-1 $-1 $-1 $43 $-1 $16 #
shell $-1 $-1 $-1 $44 $-1 $18 #
shell $-1 $-1 $-1 $45 $-1 $20 #
shell $-1 $-1 $-1 $46 $-1 $22 #
shell $-1 $-1 $-1 $47 $-1 $24 #
shell $-1 $-1 $-1 $48 $-1 $26 #
shell $-1 $-1 $-1 $49 $-1 $28 #
face $-1 $50 $51 $30 $-1 $52 forward single #
face $-1 $53 $54 $31 $-1 $55 reversed single #
face $-1 $56 $57 $32 $-1 $58 reversed single #
face $-1 $59 $60 $33 $-1 $61 forward single #
face $-1 $62 $63 $34 $-1 $64 forward single #
face $-1 $65 $66 $35 $-1 $67 reversed single #
face $-1 $68 $69 $36 $-1 $70 forward single #
face $-1 $71 $72 $37 $-1 $73 forward single #
face $-1 $74 $75 $38 $-1 $76 reversed single #
face $-1 $77 $78 $39 $-1 $79 forward single #
face $-1 $80 $81 $30 $-1 $82 reversed single #
loop $-1 $-1 $83 $40 #
plane-surface $-1 0 0 12.407080206264833 0 0 1 1 0 0 forward_v I I I I #
face $-1 $84 $85 $31 $-1 $86 reversed single #
loop $-1 $-1 $87 $41 #
plane-surface $-1 -59.401321208538327 0 7.0549247231399423 0 0 1 1 0 0 forward_v I I I I #
face $-1 $88 $89 $32 $-1 $90 reversed single #
loop $-1 $-1 $91 $42 #
plane-surface $-1 -49.622455284461665 54.351754414437508 145.09725128880575 1 0 0 0 -0.55919291073839883 -0.82903756765294845 forward_v I I I I #
face $-1 $92 $93 $33 $-1 $94 forward single #
loop $-1 $95 $96 $43 #
cone-surface $-1 -45.077614150076109 23.01826036839233 9.1345968375124578 0 -0.55919291073839883 -0.82903756765294845 1 0 0 1 I I 0 1 1 forward I I I I #
face $-1 $97 $98 $34 $-1 $99 forward single #
loop $-1 $100 $101 $44 #
cone-surface $-1 -38.26035244849777 23.01826036839233 9.1345968375124578 0 -0.55919291073839883 -0.82903756765294845 1 0 0 1 I I 0 1 1 forward I I I I #
face $-1 $102 $103 $35 $-1 $104 reversed single #
loop $-1 $-1 $105 $45 #
plane-surface $-1 9.7788659240766584 54.351754414437508 145.09725128880575 1 0 0 0 -0.55919291073839883 -0.82903756765294845 forward_v I I I I #
face $-1 $106 $107 $36 $-1 $108 forward single #
loop $-1 $109 $110 $46 #
cone-surface $-1 14.323707058462219 23.01826036839233 9.1345968375124578 0 -0.55919291073839883 -0.82903756765294845 1 0 0 1 I I 0 1 1 forward I I I I #
face $-1 $111 $112 $37 $-1 $113 forward single #
loop $-1 $114 $115 $47 #
cone-surface $-1 21.140968760040565 23.01826036839233 9.1345968375124578 0 -0.55919291073839883 -0.82903756765294845 1 0 0 1 I I 0 1 1 forward I I I I #
face $-1 $116 $117 $38 $-1 $118 reversed single #
loop $-1 $-1 $119 $48 #
plane-surface $-1 -32.270600862456064 -115.13020329754636 97.240156119248553 -1 0 0 0 -0.68199836817093118 0.7313536940579346 forward_v I I I I #
face $-1 $120 $121 $39 $-1 $122 forward single #
loop $-1 $123 $124 $49 #
cone-surface $-1 -40.810345233837687 -19.607025478572769 5.0945578233192252 0 0.68199836817093118 -0.7313536940579346 2 0 0 1 I I 0 1 2 forward I I I I #
face $-1 $125 $126 $30 $-1 $127 reversed single #
loop $-1 $-1 $128 $50 #
plane-surface $-1 0 0 -12.407080206264833 0 0 1 1 0 0 forward_v I I I I #
coedge $-1 $129 $130 $131 $132 forward $51 $-1 #
face $-1 $133 $134 $31 $-1 $135 reversed single #
loop $-1 $-1 $136 $53 #
plane-surface $-1 -54.260877836858754 0 9.7310024647023887 -1 0 0 0 0 1 forward_v I I I I #
coedge $-1 $137 $138 $139 $140 forward $54 $-1 #
face $-1 $141 $142 $32 $-1 $143 reversed single #
loop $-1 $-1 $144 $56 #
plane-surface $-1 -41.668983299286936 -17.830839985171565 38.082156249579612 0 0.55919291073839883 0.82903756765294845 1 0 0 forward_v I I I I #
coedge $-1 $145 $146 $147 $148 reversed $57 $-1 #
face $-1 $-1 $149 $33 $-1 $150 forward single #
loop $-1 $151 $152 $59 #
cone-surface $-1 -45.077614150076109 22.092188304998697 7.7616385682571938 0 -0.55919291073839883 -0.82903756765294845 0.5 0 0 1 I I -0.70710678118654746 0.70710678118654746 0.5 forward I I I I #
loop $-1 $-1 $153 $43 #
coedge $-1 $96 $96 $154 $155 reversed $60 $-1 #
face $-1 $-1 $156 $34 $-1 $157 forward single #
loop $-1 $158 $159 $62 #
cone-surface $-1 -38.26035244849777 22.092188304998697 7.7616385682571938 0 -0.55919291073839883 -0.82903756765294845 0.5 0 0 1 I I -0.70710678118654746 0.70710678118654746 0.5 forward I I I I #
loop $-1 $-1 $160 $44 #
coedge $-1 $101 $101 $161 $162 reversed $63 $-1 #
face $-1 $163 $164 $35 $-1 $165 reversed single #
loop $-1 $-1 $166 $65 #
plane-surface $-1 17.732337909251385 -17.830839985171565 38.082156249579612 0 0.55919291073839883 0.82903756765294845 1 0 0 forward_v I I I I #
coedge $-1 $167 $168 $169 $170 reversed $66 $-1 #
face $-1 $-1 $171 $36 $-1 $172 forward single #
loop $-1 $173 $174 $68 #
cone-surface $-1 14.323707058462219 22.092188304998697 7.7616385682571938 0 -0.55919291073839883 -0.82903756765294845 0.5 0 0 1 I I -0.70710678118654746 0.70710678118654746 0.5 forward I I I I #
loop $-1 $-1 $175 $46 #
coedge $-1 $110 $110 $176 $177 reversed $69 $-1 #
face $-1 $-1 $178 $37 $-1 $179 forward single #
loop $-1 $180 $181 $71 #
cone-surface $-1 21.140968760040565 22.092188304998697 7.7616385682571938 0 -0.55919291073839883 -0.82903756765294845 0.5 0 0 1 I I -0.70710678118654746 0.70710678118654746 0.5 forward I I I I #
loop $-1 $-1 $182 $47 #
coedge $-1 $115 $115 $183 $184 reversed $72 $-1 #
face $-1 $185 $186 $38 $-1 $187 reversed single #
loop $-1 $-1 $188 $74 #
plane-surface $-1 -40.81034523383768 -27.09544705238433 2.8344402257287129 0 -0.68199836817093118 0.7313536940579346 1 0 0 forward_v I I I I #
coedge $-1 $189 $190 $191 $192 reversed $75 $-1 #
face $-1 $-1 $193 $39 $-1 $194 forward single #
loop $-1 $195 $196 $77 #
cone-surface $-1 -40.810345233837687 -16.569305216230191 1.8370017365837441 0 0.68199836817093118 -0.7313536940579346 1 0 0 1 I I -0.70710678118654779 0.70710678118654713 1 forward I I I I #
loop $-1 $-1 $197 $49 #
coedge $-1 $124 $124 $198 $199 reversed $78 $-1 #
face $-1 $200 $201 $30 $-1 $202 reversed single #
loop $-1 $-1 $203 $80 #
plane-surface $-1 0 -27.095447052384333 0 0 1 0 0 0 1 forward_v I I I I #
coedge $-1 $204 $205 $206 $207 forward $81 $-1 #
coedge $-1 $208 $83 $209 $210 forward $51 $-1 #
coedge $-1 $83 $208 $211 $212 forward $51 $-1 #
coedge $-1 $213 $214 $83 $132 reversed $215 $-1 #
edge $-1 $216 -27.095447052384333 $217 27.095447052384333 $131 $218 forward 7 unknown #
face $-1 $219 $220 $31 $-1 $221 reversed single #
loop $-1 $-1 $222 $84 #
plane-surface $-1 0 27.095447052384333 0 0 -1 0 0 0 -1 forward_v I I I I #
coedge $-1 $139 $223 $224 $225 reversed $85 $-1 #
coedge $-1 $226 $87 $227 $228 reversed $54 $-1 #
coedge $-1 $87 $226 $229 $230 reversed $54 $-1 #
coedge $-1 $231 $136 $87 $140 reversed $85 $-1 #
edge $-1 $232 -27.095447052384333 $233 27.095447052384333 $139 $234 forward 7 unknown #
face $-1 $235 $236 $32 $-1 $237 forward single #
loop $-1 $-1 $238 $88 #
plane-surface $-1 -33.715511314112206 54.351754414437508 145.09725128880575 -1 0 0 0 0.55919291073839883 0.82903756765294845 forward_v I I I I #
coedge $-1 $239 $240 $241 $242 reversed $89 $-1 #
coedge $-1 $146 $91 $243 $244 reversed $57 $-1 #
coedge $-1 $91 $145 $239 $245 reversed $57 $-1 #
coedge $-1 $241 $246 $91 $148 forward $236 $-1 #
edge $-1 $247 0.08043015483442062 $248 6.9418523067695048 $147 $249 forward 7 unknown #
loop $-1 $-1 $154 $92 #
plane-surface $-1 -41.668983299286936 -17.830839985171565 38.082156249579612 0 0.55919291073839883 0.82903756765294845 1 0 0 forward_v I I I I #
loop $-1 $-1 $250 $59 #
coedge $-1 $152 $152 $153 $251 reversed $93 $-1 #
coedge $-1 $153 $153 $152 $251 forward $95 $-1 #
coedge $-1 $154 $154 $96 $155 forward $149 $-1 #
edge $-1 $252 1.1319075425852492e-015 $252 6.2831853071796013 $154 $253 forward 7 unknown #
loop $-1 $-1 $161 $97 #
plane-surface $-1 -41.668983299286936 -17.830839985171565 38.082156249579612 0 0.55919291073839883 0.82903756765294845 1 0 0 forward_v I I I I #
loop $-1 $-1 $254 $62 #
coedge $-1 $159 $159 $160 $255 reversed $98 $-1 #
coedge $-1 $160 $160 $159 $255 forward $100 $-1 #
coedge $-1 $161 $161 $101 $162 forward $156 $-1 #
edge $-1 $256 1.1319075425852492e-015 $256 6.2831853071796013 $161 $257 forward 7 unknown #
face $-1 $258 $259 $35 $-1 $260 forward single #
loop $-1 $-1 $261 $102 #
plane-surface $-1 25.685809894426111 54.351754414437508 145.09725128880575 -1 0 0 0 0.55919291073839883 0.82903756765294845 forward_v I I I I #
coedge $-1 $262 $263 $264 $265 reversed $103 $-1 #
coedge $-1 $168 $105 $266 $267 reversed $66 $-1 #
coedge $-1 $105 $167 $262 $268 reversed $66 $-1 #
coedge $-1 $264 $269 $105 $170 forward $259 $-1 #
edge $-1 $270 0.08043015483442062 $271 6.9418523067695048 $169 $272 forward 7 unknown #
loop $-1 $-1 $176 $106 #
plane-surface $-1 17.732337909251385 -17.830839985171565 38.082156249579612 0 0.55919291073839883 0.82903756765294845 1 0 0 forward_v I I I I #
loop $-1 $-1 $273 $68 #
coedge $-1 $174 $174 $175 $274 reversed $107 $-1 #
coedge $-1 $175 $175 $174 $274 forward $109 $-1 #
coedge $-1 $176 $176 $110 $177 forward $171 $-1 #
edge $-1 $275 1.1319075425852492e-015 $275 6.2831853071796013 $176 $276 forward 7 unknown #
loop $-1 $-1 $183 $111 #
plane-surface $-1 17.732337909251385 -17.830839985171565 38.082156249579612 0 0.55919291073839883 0.82903756765294845 1 0 0 forward_v I I I I #
loop $-1 $-1 $277 $71 #
coedge $-1 $181 $181 $182 $278 reversed $112 $-1 #
coedge $-1 $182 $182 $181 $278 forward $114 $-1 #
coedge $-1 $183 $183 $115 $184 forward $178 $-1 #
edge $-1 $279 1.1319075425852492e-015 $279 6.2831853071796013 $183 $280 forward 7 unknown #
face $-1 $281 $282 $38 $-1 $283 reversed single #
loop $-1 $-1 $284 $116 #
plane-surface $-1 -49.350089605219296 -115.13020329754636 97.240156119248553 1 0 0 0 0.68199836817093118 -0.7313536940579346 forward_v I I I I #
coedge $-1 $285 $286 $287 $288 reversed $117 $-1 #
coedge $-1 $190 $119 $289 $290 reversed $75 $-1 #
coedge $-1 $119 $189 $285 $291 reversed $75 $-1 #
coedge $-1 $287 $292 $119 $192 forward $293 $-1 #
edge $-1 $294 30.469654596388846 $295 40.735053955668675 $191 $296 forward 7 unknown #
loop $-1 $-1 $198 $120 #
plane-surface $-1 -40.81034523383768 -27.09544705238433 2.8344402257287129 0 -0.68199836817093118 0.7313536940579346 1 0 0 forward_v I I I I #
loop $-1 $-1 $297 $77 #
coedge $-1 $196 $196 $197 $298 reversed $121 $-1 #
coedge $-1 $197 $197 $196 $298 forward $123 $-1 #
coedge $-1 $198 $198 $124 $199 forward $193 $-1 #
edge $-1 $299 0 $299 6.2831853071796004 $198 $300 forward 7 unknown #
face $-1 $301 $302 $30 $-1 $303 reversed single #
loop $-1 $-1 $304 $125 #
plane-surface $-1 -64.541764580217901 0 0 1 0 0 0 0 -1 forward_v I I I I #
coedge $-1 $305 $211 $306 $307 forward $126 $-1 #
coedge $-1 $308 $128 $305 $309 forward $81 $-1 #
coedge $-1 $128 $308 $310 $311 forward $81 $-1 #
coedge $-1 $214 $213 $128 $207 reversed $215 $-1 #
edge $-1 $312 -27.095447052384333 $313 27.095447052384333 $206 $314 forward 7 unknown #
coedge $-1 $130 $129 $315 $316 forward $51 $-1 #
coedge $-1 $317 $318 $129 $210 reversed $302 $-1 #
edge $-1 $217 -64.541764580217901 $319 64.541764580217901 $209 $320 forward 7 unknown #
coedge $-1 $203 $321 $130 $212 reversed $126 $-1 #
edge $-1 $322 -64.541764580217901 $216 64.541764580217901 $211 $323 forward 7 unknown #
coedge $-1 $206 $131 $321 $324 forward $215 $-1 #
coedge $-1 $131 $206 $317 $325 reversed $215 $-1 #
loop $-1 $-1 $213 $301 #
vertex $-1 $132 $326 #
vertex $-1 $132 $327 #
straight-curve $-1 64.541764580217901 0 12.407080206264833 0 1 0 I I #
face $-1 $328 $329 $31 $-1 $330 forward single #
loop $-1 $-1 $331 $133 #
plane-surface $-1 -64.541764580217901 0 0 1 0 0 0 0 -1 forward_v I I I I #
coedge $-1 $229 $332 $231 $333 forward $134 $-1 #
coedge $-1 $136 $231 $334 $335 reversed $85 $-1 #
coedge $-1 $336 $227 $136 $225 forward $337 $-1 #
edge $-1 $233 2.189423490788748 $338 7.5415789739136407 $224 $339 forward 7 unknown #
coedge $-1 $138 $137 $331 $340 reversed $54 $-1 #
coedge $-1 $224 $341 $137 $228 forward $337 $-1 #
edge $-1 $342 -34.841103975948741 $233 -24.56021723258959 $227 $343 forward 7 unknown #
coedge $-1 $344 $222 $138 $230 forward $134 $-1 #
edge $-1 $232 24.56021723258959 $345 34.841103975948741 $229 $346 forward 7 unknown #
coedge $-1 $223 $139 $222 $333 reversed $85 $-1 #
vertex $-1 $230 $347 #
vertex $-1 $228 $348 #
straight-curve $-1 -54.260877836858754 0 7.0549247231399423 0 -1 0 I I #
face $-1 $-1 $349 $32 $-1 $350 reversed single #
loop $-1 $-1 $147 $141 #
plane-surface $-1 0 0 12.407080206264833 0 0 1 1 0 0 forward_v I I I I #
coedge $-1 $351 $352 $353 $354 reversed $142 $-1 #
coedge $-1 $355 $144 $146 $245 forward $89 $-1 #
coedge $-1 $144 $355 $351 $356 forward $89 $-1 #
coedge $-1 $353 $147 $144 $242 forward $236 $-1 #
edge $-1 $248 -28.787963634818198 $357 -12.881019664468738 $241 $358 forward 7 unknown #
coedge $-1 $359 $360 $145 $244 forward $349 $-1 #
edge $-1 $361 -64.76963320478518 $247 -60.141545438138039 $243 $362 forward 7 unknown #
edge $-1 $248 45.914523503904135 $361 54.190894104768631 $146 $363 forward 7 unknown #
coedge $-1 $147 $353 $359 $364 forward $236 $-1 #
vertex $-1 $244 $365 #
vertex $-1 $148 $366 #
straight-curve $-1 -49.622455284461665 27.175877207218754 12.407080206264837 0 -1 0 I I #
coedge $-1 $250 $250 $-1 $367 reversed $151 $-1 #
edge $-1 $368 0 $368 6.2831853071796004 $152 $369 forward 7 unknown #
vertex $-1 $155 $370 #
ellipse-curve $-1 -45.077614150076109 23.664735976416779 10.09303632294127 0 0.55919291073839883 0.82903756765294845 1 0 0 1 I I #
coedge $-1 $254 $254 $-1 $371 reversed $158 $-1 #
edge $-1 $372 0 $372 6.2831853071796004 $159 $373 forward 7 unknown #
vertex $-1 $162 $374 #
ellipse-curve $-1 -38.26035244849777 23.664735976416779 10.09303632294127 0 0.55919291073839883 0.82903756765294845 1 0 0 1 I I #
face $-1 $-1 $375 $35 $-1 $376 reversed single #
loop $-1 $-1 $169 $163 #
plane-surface $-1 0 0 12.407080206264833 0 0 1 1 0 0 forward_v I I I I #
coedge $-1 $377 $378 $379 $380 reversed $164 $-1 #
coedge $-1 $381 $166 $168 $268 forward $103 $-1 #
coedge $-1 $166 $381 $377 $382 forward $103 $-1 #
coedge $-1 $379 $169 $166 $265 forward $259 $-1 #
edge $-1 $271 0.91269696945096612 $383 16.819640939800419 $264 $384 forward 7 unknown #
coedge $-1 $385 $386 $167 $267 forward $375 $-1 #
edge $-1 $387 -64.76963320478518 $270 -60.141545438138039 $266 $388 forward 7 unknown #
edge $-1 $271 45.914523503904135 $387 54.190894104768631 $168 $389 forward 7 unknown #
coedge $-1 $169 $379 $385 $390 forward $259 $-1 #
vertex $-1 $170 $391 #
vertex $-1 $170 $392 #
straight-curve $-1 9.7788659240766584 27.175877207218754 12.407080206264837 0 -1 0 I I #
coedge $-1 $273 $273 $-1 $393 reversed $173 $-1 #
edge $-1 $394 0 $394 6.2831853071796004 $174 $395 forward 7 unknown #
vertex $-1 $177 $396 #
ellipse-curve $-1 14.323707058462219 23.664735976416779 10.09303632294127 0 0.55919291073839883 0.82903756765294845 1 0 0 1 I I #
coedge $-1 $277 $277 $-1 $397 reversed $180 $-1 #
edge $-1 $398 0 $398 6.2831853071796004 $181 $399 forward 7 unknown #
vertex $-1 $184 $400 #
ellipse-curve $-1 21.140968760040565 23.664735976416779 10.09303632294127 0 0.55919291073839883 0.82903756765294845 1 0 0 1 I I #
face $-1 $-1 $293 $38 $-1 $401 forward single #
loop $-1 $-1 $402 $185 #
plane-surface $-1 0 -27.095447052384333 0 0 1 0 0 0 1 forward_v I I I I #
coedge $-1 $403 $404 $405 $406 reversed $186 $-1 #
coedge $-1 $407 $188 $190 $291 forward $117 $-1 #
coedge $-1 $188 $407 $403 $408 forward $117 $-1 #
coedge $-1 $405 $191 $188 $288 forward $293 $-1 #
edge $-1 $295 11.865428245537224 $409 28.944916988300456 $287 $410 forward 7 unknown #
coedge $-1 $411 $412 $189 $290 forward $282 $-1 #
edge $-1 $413 -45.785637833895564 $294 -36.21299785335944 $289 $414 forward 7 unknown #
edge $-1 $295 -14.036162588202707 $413 4.7183670880013277e-015 $190 $415 forward 7 unknown #
coedge $-1 $191 $405 $411 $416 forward $293 $-1 #
loop $-1 $-1 $405 $281 #
vertex $-1 $290 $417 #
vertex $-1 $192 $418 #
straight-curve $-1 -32.270600862456064 -57.565101648773179 12.40708020626483 0 1 0 I I #
coedge $-1 $297 $297 $-1 $419 reversed $195 $-1 #
edge $-1 $420 0 $420 6.2831853071796004 $196 $421 forward 7 unknown #
vertex $-1 $199 $422 #
ellipse-curve $-1 -40.810345233837687 -21.962747372744417 7.6207602159967713 0 -0.68199836817093118 0.7313536940579346 2 0 0 1 I I #
face $-1 $-1 $215 $30 $-1 $423 reversed single #
loop $-1 $-1 $317 $200 #
plane-surface $-1 0 27.095447052384333 0 0 -1 0 0 0 -1 forward_v I I I I #
coedge $-1 $424 $315 $318 $425 forward $201 $-1 #
coedge $-1 $321 $203 $204 $309 reversed $126 $-1 #
coedge $-1 $315 $424 $203 $307 reversed $201 $-1 #
edge $-1 $322 -12.407080206264833 $426 12.407080206264833 $306 $427 forward 7 unknown #
coedge $-1 $205 $204 $424 $428 forward $81 $-1 #
edge $-1 $313 -64.541764580217901 $426 64.541764580217901 $305 $429 forward 7 unknown #
coedge $-1 $318 $317 $205 $311 reversed $302 $-1 #
edge $-1 $430 -64.541764580217901 $312 64.541764580217901 $310 $431 forward 7 unknown #
vertex $-1 $207 $432 #
vertex $-1 $324 $433 #
straight-curve $-1 64.541764580217901 0 -12.407080206264833 0 -1 0 I I #
coedge $-1 $304 $306 $208 $316 reversed $201 $-1 #
edge $-1 $319 -27.095447052384333 $322 27.095447052384333 $315 $434 forward 7 unknown #
coedge $-1 $310 $209 $214 $325 forward $302 $-1 #
coedge $-1 $209 $310 $304 $425 reversed $302 $-1 #
vertex $-1 $210 $435 #
straight-curve $-1 0 27.095447052384333 12.407080206264833 -1 0 0 I I #
coedge $-1 $211 $305 $213 $324 reversed $126 $-1 #
vertex $-1 $316 $436 #
straight-curve $-1 0 -27.095447052384333 12.407080206264833 1 0 0 I I #
edge $-1 $216 -12.407080206264833 $313 12.407080206264833 $213 $437 forward 7 unknown #
edge $-1 $217 -12.407080206264833 $312 12.407080206264833 $214 $438 forward 7 unknown #
point $-1 64.541764580217901 -27.095447052384333 12.407080206264833 #
point $-1 64.541764580217901 27.095447052384333 12.407080206264833 #
face $-1 $-1 $337 $31 $-1 $439 reversed single #
loop $-1 $-1 $334 $219 #
plane-surface $-1 0 0 12.407080206264833 0 0 1 1 0 0 forward_v I I I I #
coedge $-1 $440 $441 $226 $340 forward $220 $-1 #
coedge $-1 $222 $344 $442 $443 reversed $134 $-1 #
edge $-1 $444 -7.5415789739136407 $232 -2.189423490788748 $222 $445 forward 7 unknown #
coedge $-1 $442 $446 $223 $335 forward $329 $-1 #
edge $-1 $338 -27.095447052384333 $444 27.095447052384333 $334 $447 forward 7 unknown #
coedge $-1 $341 $224 $446 $448 reversed $337 $-1 #
loop $-1 $-1 $224 $328 #
vertex $-1 $225 $449 #
straight-curve $-1 -54.260877836858754 -27.095447052384333 4.8655012323511944 0 0 1 I I #
edge $-1 $345 -27.095447052384333 $342 27.095447052384333 $331 $450 forward 7 unknown #
coedge $-1 $227 $336 $440 $451 forward $337 $-1 #
vertex $-1 $340 $452 #
straight-curve $-1 -29.700660604269164 -27.095447052384333 7.0549247231399423 1 0 0 I I #
coedge $-1 $332 $229 $441 $453 reversed $134 $-1 #
vertex $-1 $340 $454 #
straight-curve $-1 -29.700660604269164 27.095447052384333 7.0549247231399423 -1 0 0 I I #
point $-1 -54.260877836858754 27.095447052384333 7.0549247231399423 #
point $-1 -54.260877836858754 -27.095447052384333 7.0549247231399423 #
loop $-1 $-1 $243 $235 #
plane-surface $-1 0 27.095447052384333 0 0 -1 0 0 0 -1 forward_v I I I I #
coedge $-1 $352 $238 $240 $356 reversed $142 $-1 #
coedge $-1 $238 $351 $455 $456 reversed $142 $-1 #
coedge $-1 $246 $241 $238 $354 forward $236 $-1 #
edge $-1 $357 -6.9418523067695048 $457 -0.08043015483442062 $353 $458 forward 7 unknown #
coedge $-1 $240 $239 $360 $459 reversed $89 $-1 #
edge $-1 $460 -54.190894104768631 $357 -45.914523503904135 $351 $461 forward 7 unknown #
vertex $-1 $242 $462 #
straight-curve $-1 -20.834491649643468 20.234024900449249 12.407080206264833 1 0 0 I I #
coedge $-1 $455 $243 $246 $364 reversed $349 $-1 #
coedge $-1 $243 $455 $355 $459 forward $349 $-1 #
vertex $-1 $244 $463 #
straight-curve $-1 -49.622455284461665 27.095447052384333 72.548625644402875 0 0 1 I I #
straight-curve $-1 -49.622455284461665 -17.830839985171565 38.082156249579612 0 0.82903756765294845 -0.55919291073839883 I I #
edge $-1 $457 33.715511314112206 $247 49.622455284461665 $359 $464 forward 7 unknown #
point $-1 -49.622455284461665 27.095447052384333 12.407080206264833 #
point $-1 -49.622455284461665 20.234024900449249 12.40708020626483 #
edge $-1 $465 1 $465 0 $250 $-1 forward 7 unknown #
vertex $-1 $251 $466 #
ellipse-curve $-1 -45.077614150076109 22.371784760367895 8.1761573520836688 0 0.55919291073839883 0.82903756765294845 1 0 0 1 I I #
point $-1 -44.077614150076109 23.664735976416765 10.093036322941247 #
edge $-1 $467 1 $467 0 $254 $-1 forward 7 unknown #
vertex $-1 $255 $468 #
ellipse-curve $-1 -38.26035244849777 22.371784760367895 8.1761573520836688 0 0.55919291073839883 0.82903756765294845 1 0 0 1 I I #
point $-1 -37.26035244849777 23.664735976416765 10.093036322941247 #
loop $-1 $-1 $266 $258 #
plane-surface $-1 0 27.095447052384333 0 0 -1 0 0 0 -1 forward_v I I I I #
coedge $-1 $378 $261 $263 $382 reversed $164 $-1 #
coedge $-1 $261 $377 $469 $470 reversed $164 $-1 #
coedge $-1 $269 $264 $261 $380 forward $259 $-1 #
edge $-1 $383 -6.9418523067695048 $471 -0.08043015483442062 $379 $472 forward 7 unknown #
coedge $-1 $263 $262 $386 $473 reversed $103 $-1 #
edge $-1 $474 -54.190894104768631 $383 -45.914523503904135 $377 $475 forward 7 unknown #
vertex $-1 $265 $476 #
straight-curve $-1 8.8661689546256923 20.234024900449249 12.407080206264833 1 0 0 I I #
coedge $-1 $469 $266 $269 $390 reversed $375 $-1 #
coedge $-1 $266 $469 $381 $473 forward $375 $-1 #
vertex $-1 $267 $477 #
straight-curve $-1 9.7788659240766584 27.095447052384333 72.548625644402875 0 0 1 I I #
straight-curve $-1 9.7788659240766584 -17.830839985171565 38.082156249579612 0 0.82903756765294845 -0.55919291073839883 I I #
edge $-1 $471 -25.685809894426111 $270 -9.7788659240766584 $385 $478 forward 7 unknown #
point $-1 9.7788659240766584 27.095447052384333 12.407080206264833 #
point $-1 9.7788659240766584 20.234024900449249 12.40708020626483 #
edge $-1 $479 1 $479 0 $273 $-1 forward 7 unknown #
vertex $-1 $274 $480 #
ellipse-curve $-1 14.323707058462219 22.371784760367895 8.1761573520836688 0 0.55919291073839883 0.82903756765294845 1 0 0 1 I I #
point $-1 15.323707058462219 23.664735976416765 10.093036322941247 #
edge $-1 $481 1 $481 0 $277 $-1 forward 7 unknown #
vertex $-1 $278 $482 #
ellipse-curve $-1 21.140968760040565 22.371784760367895 8.1761573520836688 0 0.55919291073839883 0.82903756765294845 1 0 0 1 I I #
point $-1 22.140968760040565 23.664735976416765 10.093036322941247 #
plane-surface $-1 0 0 12.407080206264833 0 0 1 1 0 0 forward_v I I I I #
coedge $-1 $412 $411 $404 $483 forward $282 $-1 #
coedge $-1 $404 $284 $286 $408 reversed $186 $-1 #
coedge $-1 $284 $403 $402 $483 reversed $186 $-1 #
coedge $-1 $292 $287 $284 $406 forward $293 $-1 #
edge $-1 $409 -40.735053955668675 $484 -30.469654596388846 $405 $485 forward 7 unknown #
coedge $-1 $286 $285 $412 $486 reversed $117 $-1 #
edge $-1 $487 -4.7183670880013277e-015 $409 14.036162588202707 $403 $488 forward 7 unknown #
vertex $-1 $288 $489 #
straight-curve $-1 -20.40517261691884 -16.830047693104497 12.407080206264833 -1 0 0 I I #
coedge $-1 $402 $289 $292 $416 reversed $282 $-1 #
coedge $-1 $289 $402 $407 $486 forward $282 $-1 #
vertex $-1 $290 $490 #
straight-curve $-1 -32.270600862456064 -27.09544705238433 48.620078059624277 0 0 1 I I #
straight-curve $-1 -32.270600862456064 -27.09544705238433 2.8344402257287129 0 -0.7313536940579346 -0.68199836817093118 I I #
edge $-1 $484 -49.350089605219296 $294 -32.270600862456064 $411 $491 forward 7 unknown #
point $-1 -32.270600862456064 -27.095447052384333 12.407080206264833 #
point $-1 -32.270600862456064 -16.8300476931045 12.407080206264833 #
edge $-1 $492 1 $492 0 $297 $-1 forward 7 unknown #
vertex $-1 $298 $493 #
ellipse-curve $-1 -40.810345233837687 -17.251303584401121 2.5683554306416783 0 -0.68199836817093118 0.7313536940579346 2 0 0 1 I I #
point $-1 -38.810345233837687 -21.962747372744417 7.6207602159967713 #
plane-surface $-1 64.541764580217901 0 0 -1 0 0 0 0 1 forward_v I I I I #
coedge $-1 $306 $304 $308 $428 reversed $201 $-1 #
edge $-1 $319 -12.407080206264833 $430 12.407080206264833 $318 $494 forward 7 unknown #
vertex $-1 $428 $495 #
straight-curve $-1 -64.541764580217901 -27.095447052384333 0 0 0 -1 I I #
edge $-1 $426 -27.095447052384333 $430 27.095447052384333 $424 $496 forward 7 unknown #
straight-curve $-1 0 -27.095447052384333 -12.407080206264833 -1 0 0 I I #
vertex $-1 $311 $497 #
straight-curve $-1 0 27.095447052384333 -12.407080206264833 1 0 0 I I #
point $-1 64.541764580217901 27.095447052384333 -12.407080206264833 #
point $-1 64.541764580217901 -27.095447052384333 -12.407080206264833 #
straight-curve $-1 -64.541764580217901 0 12.407080206264833 0 -1 0 I I #
point $-1 -64.541764580217901 27.095447052384333 12.407080206264833 #
point $-1 -64.541764580217901 -27.095447052384333 12.407080206264833 #
straight-curve $-1 64.541764580217901 -27.095447052384333 0 0 0 -1 I I #
straight-curve $-1 64.541764580217901 27.095447052384333 0 0 0 -1 I I #
plane-surface $-1 0 -27.095447052384333 0 0 1 0 0 0 1 forward_v I I I I #
coedge $-1 $498 $331 $341 $451 reversed $220 $-1 #
coedge $-1 $331 $498 $344 $453 forward $220 $-1 #
coedge $-1 $499 $334 $332 $443 forward $329 $-1 #
edge $-1 $444 54.260877836858754 $500 64.541764580217901 $332 $501 forward 7 unknown #
vertex $-1 $443 $502 #
straight-curve $-1 -54.260877836858754 27.095447052384333 4.8655012323511944 0 0 -1 I I #
coedge $-1 $334 $499 $336 $448 forward $329 $-1 #
straight-curve $-1 -54.260877836858754 0 12.407080206264833 0 1 0 I I #
edge $-1 $503 -64.541764580217901 $338 -54.260877836858754 $336 $504 forward 7 unknown #
point $-1 -54.260877836858754 -27.095447052384333 12.407080206264835 #
straight-curve $-1 -64.541764580217901 0 7.0549247231399423 0 -1 0 I I #
edge $-1 $503 -12.407080206264833 $342 -7.0549247231399423 $440 $505 forward 7 unknown #
point $-1 -64.541764580217901 -27.095447052384333 7.0549247231399423 #
edge $-1 $500 -12.407080206264833 $345 -7.0549247231399423 $344 $506 forward 7 unknown #
point $-1 -64.541764580217901 27.095447052384333 7.0549247231399423 #
coedge $-1 $360 $359 $352 $456 forward $349 $-1 #
edge $-1 $457 60.141545438138039 $460 64.76963320478518 $455 $507 forward 7 unknown #
vertex $-1 $364 $508 #
straight-curve $-1 -33.715511314112206 27.175877207218754 12.407080206264837 0 1 0 I I #
edge $-1 $460 12.881019664468738 $361 28.787963634818198 $360 $509 forward 7 unknown #
vertex $-1 $459 $510 #
straight-curve $-1 -33.715511314112206 -17.830839985171565 38.082156249579612 0 -0.82903756765294845 0.55919291073839883 I I #
point $-1 -33.715511314112206 20.234024900449249 12.40708020626483 #
point $-1 -49.622455284461665 27.09544705238433 7.7789924396176993 #
straight-curve $-1 0 27.095447052384333 12.407080206264833 -1 0 0 I I #
vertex $-1 $367 $511 #
point $-1 -44.077614150076109 22.371784760367895 8.1761573520836688 #
vertex $-1 $371 $512 #
point $-1 -37.26035244849777 22.371784760367895 8.1761573520836688 #
coedge $-1 $386 $385 $378 $470 forward $375 $-1 #
edge $-1 $471 60.141545438138039 $474 64.76963320478518 $469 $513 forward 7 unknown #
vertex $-1 $390 $514 #
straight-curve $-1 25.685809894426111 27.175877207218754 12.407080206264837 0 1 0 I I #
edge $-1 $474 -16.819640939800419 $387 -0.91269696945096612 $386 $515 forward 7 unknown #
vertex $-1 $473 $516 #
straight-curve $-1 25.685809894426111 -17.830839985171565 38.082156249579612 0 -0.82903756765294845 0.55919291073839883 I I #
point $-1 25.685809894426111 20.234024900449249 12.40708020626483 #
point $-1 9.7788659240766584 27.09544705238433 7.7789924396176993 #
straight-curve $-1 0 27.095447052384333 12.407080206264833 -1 0 0 I I #
vertex $-1 $393 $517 #
point $-1 15.323707058462219 22.371784760367895 8.1761573520836688 #
vertex $-1 $397 $518 #
point $-1 22.140968760040565 22.371784760367895 8.1761573520836688 #
edge $-1 $484 36.21299785335944 $487 45.785637833895564 $402 $519 forward 7 unknown #
vertex $-1 $416 $520 #
straight-curve $-1 -49.350089605219296 -57.565101648773179 12.40708020626483 0 -1 0 I I #
edge $-1 $487 -28.944916988300456 $413 -11.865428245537224 $412 $521 forward 7 unknown #
vertex $-1 $486 $522 #
straight-curve $-1 -49.350089605219296 -27.09544705238433 2.8344402257287129 0 0.7313536940579346 0.68199836817093118 I I #
point $-1 -49.350089605219296 -16.8300476931045 12.407080206264833 #
point $-1 -32.270600862456064 -27.095447052384333 2.8344402257287098 #
straight-curve $-1 0 -27.095447052384333 12.407080206264833 1 0 0 I I #
vertex $-1 $419 $523 #
point $-1 -38.810345233837687 -17.251303584401121 2.5683554306416783 #
straight-curve $-1 -64.541764580217901 27.095447052384333 0 0 0 -1 I I #
point $-1 -64.541764580217901 -27.095447052384333 -12.407080206264833 #
straight-curve $-1 -64.541764580217901 0 -12.407080206264833 0 1 0 I I #
point $-1 -64.541764580217901 27.095447052384333 -12.407080206264833 #
coedge $-1 $441 $440 $499 $524 reversed $220 $-1 #
coedge $-1 $446 $442 $498 $524 forward $329 $-1 #
vertex $-1 $443 $525 #
straight-curve $-1 0 27.095447052384333 12.407080206264833 -1 0 0 I I #
point $-1 -54.260877836858754 27.095447052384333 12.407080206264835 #
vertex $-1 $524 $526 #
straight-curve $-1 0 -27.095447052384333 12.407080206264833 1 0 0 I I #
straight-curve $-1 -64.541764580217901 -27.095447052384333 0 0 0 -1 I I #
straight-curve $-1 -64.541764580217901 27.095447052384333 0 0 0 -1 I I #
straight-curve $-1 -33.715511314112206 27.095447052384333 72.548625644402875 0 0 -1 I I #
point $-1 -33.715511314112206 27.095447052384333 12.407080206264833 #
straight-curve $-1 -20.834491649643468 27.09544705238433 7.778992439617701 -1 0 0 I I #
point $-1 -33.715511314112206 27.09544705238433 7.7789924396176993 #
point $-1 -45.077614150076109 21.812591849629499 7.3471197844307197 #
point $-1 -38.26035244849777 21.812591849629499 7.3471197844307197 #
straight-curve $-1 25.685809894426111 27.095447052384333 72.548625644402875 0 0 -1 I I #
point $-1 25.685809894426111 27.095447052384333 12.407080206264833 #
straight-curve $-1 8.8661689546256923 27.09544705238433 7.778992439617701 -1 0 0 I I #
point $-1 25.685809894426111 27.09544705238433 7.7789924396176993 #
point $-1 14.323707058462219 21.812591849629499 7.3471197844307197 #
point $-1 21.140968760040565 21.812591849629499 7.3471197844307197 #
straight-curve $-1 -49.350089605219296 -27.09544705238433 48.620078059624277 0 0 -1 I I #
point $-1 -49.350089605219296 -27.095447052384333 12.407080206264833 #
straight-curve $-1 -20.40517261691884 -27.095447052384333 2.8344402257287085 1 0 0 I I #
point $-1 -49.350089605219296 -27.095447052384333 2.8344402257287098 #
point $-1 -40.810345233837687 -15.887306848059261 1.1056480425258102 #
edge $-1 $500 -27.095447052384333 $503 27.095447052384333 $498 $527 forward 7 unknown #
point $-1 -64.541764580217901 27.095447052384333 12.407080206264833 #
point $-1 -64.541764580217901 -27.095447052384333 12.407080206264833 #
straight-curve $-1 -64.541764580217901 0 12.407080206264833 0 -1 0 I I #
End-of-ACIS-data 