500 0 7 0           
7 Unknown 11 ACIS 5.0 NT 24 Fri Mar 26 18:16:13 1999 
-1 9.9999999999999995e-007 1e-010 
body $-1 $7 $-1 $8 #
body $-1 $9 $-1 $10 #
body $-1 $11 $-1 $12 #
body $-1 $13 $-1 $14 #
body $-1 $15 $-1 $16 #
body $-1 $17 $-1 $18 #
body $-1 $19 $-1 $20 #
lump $-1 $-1 $21 $0 #
transform $-1 1 0 0 0 1 0 0 0 1 49.126255073702197 24.144234270223318 10.380834414067817 1 rotate no_reflect no_shear #
lump $-1 $-1 $22 $1 #
transform $-1 1 0 0 0 1 0 0 0 1 49.126255073702197 24.144234270223318 10.380834414067817 1 rotate no_reflect no_shear #
lump $-1 $-1 $23 $2 #
transform $-1 1 0 0 0 1 0 0 0 1 49.126255073702197 24.144234270223318 10.380834414067817 1 rotate no_reflect no_shear #
lump $-1 $-1 $24 $3 #
transform $-1 1 0 0 0 1 0 0 0 1 49.126255073702197 24.144234270223318 10.380834414067817 1 rotate no_reflect no_shear #
lump $-1 $-1 $25 $4 #
transform $-1 1 0 0 0 1 0 0 0 1 49.126255073702197 24.144234270223318 10.380834414067817 1 rotate no_reflect no_shear #
lump $-1 $-1 $26 $5 #
transform $-1 1 0 0 0 1 0 0 0 1 49.126255073702197 24.144234270223318 10.380834414067817 1 rotate no_reflect no_shear #
lump $-1 $-1 $27 $6 #
transform $-1 1 0 0 0 1 0 0 0 1 49.126255073702197 24.144234270223318 10.380834414067817 1 rotate no_reflect no_shear #
shell $-1 $-1 $-1 $28 $-1 $7 #
shell $-1 $-1 $-1 $29 $-1 $9 #
shell $-1 $-1 $-1 $30 $-1 $11 #
shell $-1 $-1 $-1 $31 $-1 $13 #
shell $-1 $-1 $-1 $32 $-1 $15 #
shell $-1 $-1 $-1 $33 $-1 $17 #
shell $-1 $-1 $-1 $34 $-1 $19 #
face $-1 $35 $36 $21 $-1 $37 forward single #
face $-1 $38 $39 $22 $-1 $40 forward single #
face $-1 $41 $42 $23 $-1 $43 forward single #
face $-1 $44 $45 $24 $-1 $46 reversed single #
face $-1 $47 $48 $25 $-1 $49 forward single #
face $-1 $50 $51 $26 $-1 $52 reversed single #
face $-1 $53 $54 $27 $-1 $55 forward single #
face $-1 $56 $57 $21 $-1 $58 reversed single #
loop $-1 $-1 $59 $28 #
plane-surface $-1 0 0 10.380834414067817 0 0 1 1 0 0 forward_v I I I I #
face $-1 $60 $61 $22 $-1 $62 reversed single #
loop $-1 $-1 $63 $29 #
plane-surface $-1 -49.126255073702197 0 0 1 0 0 0 0 -1 forward_v I I I I #
face $-1 $64 $65 $23 $-1 $66 reversed single #
loop $-1 $-1 $67 $30 #
plane-surface $-1 49.126255073702197 0 0 -1 0 0 0 0 1 forward_v I I I I #
face $-1 $68 $69 $24 $-1 $70 reversed single #
loop $-1 $-1 $71 $31 #
plane-surface $-1 -23.172890034257144 48.449355140049633 107.25137526274038 1 0 0 0 -0.62932039886446345 -0.77714595512881146 forward_v I I I I #
face $-1 $72 $73 $25 $-1 $74 forward single #
loop $-1 $75 $76 $32 #
cone-surface $-1 -14.127469904466778 15.414222952720049 2.1921909716435186 0 -0.62932039886446345 -0.77714595512881146 3 0 0 1 I I 0 1 3 forward I I I I #
face $-1 $77 $78 $26 $-1 $79 reversed single #
loop $-1 $-1 $80 $33 #
plane-surface $-1 -5.0820497746764115 -85.9765431456226 76.862456980312416 -1 0 0 0 -0.62932039886446345 0.77714595512881146 forward_v I I I I #
face $-1 $81 $82 $27 $-1 $83 forward single #
loop $-1 $84 $85 $34 #
cone-surface $-1 -14.127469904466778 -15.414222952720046 2.1921909716435186 0 0.62932039886446345 -0.77714595512881146 3 0 0 1 I I 0 1 3 forward I I I I #
face $-1 $86 $87 $21 $-1 $88 reversed single #
loop $-1 $-1 $89 $35 #
plane-surface $-1 0 0 -10.380834414067817 0 0 1 1 0 0 forward_v I I I I #
coedge $-1 $90 $91 $92 $93 forward $36 $-1 #
face $-1 $94 $95 $22 $-1 $96 forward single #
loop $-1 $-1 $97 $38 #
plane-surface $-1 0 24.144234270223318 0 0 -1 0 0 0 -1 forward_v I I I I #
coedge $-1 $98 $99 $100 $101 forward $39 $-1 #
face $-1 $102 $103 $23 $-1 $104 forward single #
loop $-1 $-1 $105 $41 #
plane-surface $-1 0 24.144234270223318 0 0 -1 0 0 0 -1 forward_v I I I I #
coedge $-1 $106 $107 $108 $109 forward $42 $-1 #
face $-1 $110 $111 $24 $-1 $112 reversed single #
loop $-1 $-1 $113 $44 #
plane-surface $-1 -14.127469904466778 -13.382953735349645 30.894834420432559 0 0.62932039886446345 0.77714595512881146 1 0 0 forward_v I I I I #
coedge $-1 $114 $115 $116 $117 reversed $45 $-1 #
face $-1 $-1 $118 $25 $-1 $119 forward single #
loop $-1 $120 $121 $47 #
cone-surface $-1 -14.127469904466778 11.837485161621448 -2.2247122654423812 0 -0.62932039886446345 -0.77714595512881146 1.5 0 0 1 I I -0.70710678118654757 0.70710678118654757 1.5 forward I I I I #
loop $-1 $-1 $122 $32 #
coedge $-1 $76 $76 $123 $124 reversed $48 $-1 #
face $-1 $125 $126 $26 $-1 $127 reversed single #
loop $-1 $-1 $128 $50 #
plane-surface $-1 -14.127469904466778 -24.144234270223322 0.50591613800459356 0 -0.62932039886446345 0.77714595512881146 1 0 0 forward_v I I I I #
coedge $-1 $129 $130 $131 $132 reversed $51 $-1 #
face $-1 $-1 $133 $27 $-1 $134 forward single #
loop $-1 $135 $136 $53 #
cone-surface $-1 -14.127469904466778 -11.837485161621444 -2.2247122654423812 0 0.62932039886446345 -0.77714595512881146 1.5 0 0 1 I I -0.70710678118654757 0.70710678118654757 1.5 forward I I I I #
loop $-1 $-1 $137 $34 #
coedge $-1 $85 $85 $138 $139 reversed $54 $-1 #
face $-1 $140 $141 $21 $-1 $142 reversed single #
loop $-1 $-1 $143 $56 #
plane-surface $-1 0 -24.144234270223318 0 0 1 0 0 0 1 forward_v I I I I #
coedge $-1 $144 $145 $146 $147 forward $57 $-1 #
coedge $-1 $148 $59 $149 $150 forward $36 $-1 #
coedge $-1 $59 $148 $151 $152 forward $36 $-1 #
coedge $-1 $153 $154 $59 $93 reversed $155 $-1 #
edge $-1 $156 -24.144234270223318 $157 24.144234270223318 $92 $158 forward 7 unknown #
face $-1 $159 $160 $22 $-1 $161 reversed single #
loop $-1 $-1 $100 $60 #
plane-surface $-1 -52.669022516877959 0 -6.1782549641219795 0 0 1 1 0 0 forward_v I I I I #
coedge $-1 $162 $163 $99 $164 forward $61 $-1 #
coedge $-1 $165 $63 $166 $167 reversed $39 $-1 #
coedge $-1 $63 $165 $97 $164 reversed $39 $-1 #
coedge $-1 $168 $169 $63 $101 reversed $95 $-1 #
edge $-1 $170 -24.144234270223318 $171 24.144234270223318 $100 $172 forward 7 unknown #
face $-1 $173 $174 $23 $-1 $175 reversed single #
loop $-1 $-1 $176 $64 #
plane-surface $-1 52.669022516877959 0 -6.1782549641219795 0 0 1 1 0 0 forward_v I I I I #
coedge $-1 $177 $178 $106 $179 forward $65 $-1 #
coedge $-1 $180 $67 $105 $179 reversed $42 $-1 #
coedge $-1 $67 $180 $181 $182 reversed $42 $-1 #
coedge $-1 $183 $184 $67 $109 reversed $103 $-1 #
edge $-1 $185 -24.144234270223318 $186 24.144234270223318 $108 $187 forward 7 unknown #
face $-1 $188 $189 $24 $-1 $190 reversed single #
loop $-1 $-1 $191 $68 #
plane-surface $-1 -5.0820497746764115 48.449355140049633 107.25137526274038 -1 0 0 0 0.62932039886446345 0.77714595512881146 forward_v I I I I #
coedge $-1 $192 $193 $194 $195 reversed $69 $-1 #
coedge $-1 $115 $71 $196 $197 reversed $45 $-1 #
coedge $-1 $71 $114 $192 $198 reversed $45 $-1 #
coedge $-1 $194 $199 $71 $117 forward $200 $-1 #
edge $-1 $201 0.080443299801498114 $202 12.274951549204225 $116 $203 forward 7 unknown #
loop $-1 $-1 $123 $72 #
plane-surface $-1 -14.127469904466778 -13.382953735349645 30.894834420432559 0 0.62932039886446345 0.77714595512881146 1 0 0 forward_v I I I I #
loop $-1 $-1 $204 $47 #
coedge $-1 $121 $121 $122 $205 reversed $73 $-1 #
coedge $-1 $122 $122 $121 $205 forward $75 $-1 #
coedge $-1 $123 $123 $76 $124 forward $118 $-1 #
edge $-1 $206 -3.7263253156566105e-016 $206 6.2831853071796004 $123 $207 forward 7 unknown #
face $-1 $208 $209 $26 $-1 $210 forward single #
loop $-1 $-1 $211 $77 #
plane-surface $-1 -23.172890034257144 -85.9765431456226 76.862456980312416 1 0 0 0 0.62932039886446345 -0.77714595512881146 forward_v I I I I #
coedge $-1 $212 $213 $214 $215 reversed $78 $-1 #
coedge $-1 $130 $80 $216 $217 reversed $51 $-1 #
coedge $-1 $80 $129 $212 $218 reversed $51 $-1 #
coedge $-1 $214 $219 $80 $132 forward $209 $-1 #
edge $-1 $220 18.844037302587981 $221 31.038545551990698 $131 $222 forward 7 unknown #
loop $-1 $-1 $138 $81 #
plane-surface $-1 -14.127469904466778 -24.144234270223322 0.50591613800459356 0 -0.62932039886446345 0.77714595512881146 1 0 0 forward_v I I I I #
loop $-1 $-1 $223 $53 #
coedge $-1 $136 $136 $137 $224 reversed $82 $-1 #
coedge $-1 $137 $137 $136 $224 forward $84 $-1 #
coedge $-1 $138 $138 $85 $139 forward $133 $-1 #
edge $-1 $225 -5.7020443785910799e-016 $225 6.2831853071795996 $138 $226 forward 7 unknown #
face $-1 $227 $228 $21 $-1 $229 reversed single #
loop $-1 $-1 $230 $86 #
plane-surface $-1 -49.126255073702197 0 0 1 0 0 0 0 -1 forward_v I I I I #
coedge $-1 $231 $151 $232 $233 forward $87 $-1 #
coedge $-1 $234 $89 $231 $235 forward $57 $-1 #
coedge $-1 $89 $234 $236 $237 forward $57 $-1 #
coedge $-1 $154 $153 $89 $147 reversed $155 $-1 #
edge $-1 $238 -24.144234270223318 $239 24.144234270223318 $146 $240 forward 7 unknown #
coedge $-1 $91 $90 $241 $242 forward $36 $-1 #
coedge $-1 $243 $244 $90 $150 reversed $228 $-1 #
edge $-1 $157 -49.126255073702197 $245 49.126255073702197 $149 $246 forward 7 unknown #
coedge $-1 $143 $247 $91 $152 reversed $87 $-1 #
edge $-1 $248 -49.126255073702197 $156 49.126255073702197 $151 $249 forward 7 unknown #
coedge $-1 $146 $92 $247 $250 forward $155 $-1 #
coedge $-1 $92 $146 $243 $251 reversed $155 $-1 #
loop $-1 $-1 $153 $227 #
vertex $-1 $93 $252 #
vertex $-1 $93 $253 #
straight-curve $-1 49.126255073702197 0 10.380834414067817 0 1 0 I I #
face $-1 $254 $255 $22 $-1 $256 reversed single #
loop $-1 $-1 $257 $94 #
plane-surface $-1 -56.211789960053721 0 -8.279544689094898 1 0 0 0 0 -1 forward_v I I I I #
coedge $-1 $258 $97 $259 $260 reversed $61 $-1 #
coedge $-1 $97 $258 $168 $261 reversed $61 $-1 #
edge $-1 $170 6.1782549641219795 $262 10.380834414067817 $97 $263 forward 7 unknown #
coedge $-1 $99 $98 $264 $265 reversed $39 $-1 #
coedge $-1 $266 $267 $98 $167 forward $268 $-1 #
edge $-1 $269 -10.380834414067817 $171 -6.1782549641219795 $166 $270 forward 7 unknown #
coedge $-1 $271 $100 $163 $261 forward $95 $-1 #
coedge $-1 $100 $271 $266 $272 forward $95 $-1 #
vertex $-1 $164 $273 #
vertex $-1 $272 $274 #
straight-curve $-1 -49.126255073702197 0 -6.1782549641219795 0 -1 0 I I #
face $-1 $275 $276 $23 $-1 $277 reversed single #
loop $-1 $-1 $278 $102 #
plane-surface $-1 56.211789960053721 0 -8.279544689094898 -1 0 0 0 0 1 forward_v I I I I #
coedge $-1 $184 $183 $279 $280 forward $103 $-1 #
coedge $-1 $281 $105 $184 $282 reversed $65 $-1 #
coedge $-1 $105 $281 $283 $284 reversed $65 $-1 #
edge $-1 $285 -10.380834414067817 $186 -6.1782549641219795 $105 $286 forward 7 unknown #
coedge $-1 $107 $106 $287 $288 reversed $42 $-1 #
coedge $-1 $289 $290 $107 $182 forward $291 $-1 #
edge $-1 $185 6.1782549641219795 $292 10.380834414067817 $181 $293 forward 7 unknown #
coedge $-1 $176 $108 $290 $294 forward $103 $-1 #
coedge $-1 $108 $176 $177 $282 forward $103 $-1 #
vertex $-1 $182 $295 #
vertex $-1 $282 $296 #
straight-curve $-1 49.126255073702197 0 -6.1782549641219795 0 1 0 I I #
face $-1 $-1 $200 $24 $-1 $297 forward single #
loop $-1 $-1 $298 $110 #
plane-surface $-1 0 24.144234270223318 0 0 -1 0 0 0 -1 forward_v I I I I #
coedge $-1 $299 $300 $301 $302 reversed $111 $-1 #
coedge $-1 $303 $113 $115 $198 forward $69 $-1 #
coedge $-1 $113 $303 $299 $304 forward $69 $-1 #
coedge $-1 $301 $116 $113 $195 forward $200 $-1 #
edge $-1 $202 -16.109155082023754 $305 1.9816851775569777 $194 $306 forward 7 unknown #
coedge $-1 $307 $308 $114 $197 forward $189 $-1 #
edge $-1 $309 -53.119771493365604 $201 -43.244853217302378 $196 $310 forward 7 unknown #
edge $-1 $202 32.597068271392288 $309 48.288468540446637 $115 $311 forward 7 unknown #
coedge $-1 $116 $301 $307 $312 forward $200 $-1 #
loop $-1 $-1 $301 $188 #
vertex $-1 $197 $313 #
vertex $-1 $117 $314 #
straight-curve $-1 -23.172890034257144 24.224677570024816 10.38083441406782 0 -1 0 I I #
coedge $-1 $204 $204 $-1 $315 reversed $120 $-1 #
edge $-1 $316 0 $316 6.2831853071796004 $121 $317 forward 7 unknown #
vertex $-1 $124 $318 #
ellipse-curve $-1 -14.127469904466778 18.046980145521957 5.4433752760361998 0 0.62932039886446345 0.77714595512881146 3 0 0 1 I I #
face $-1 $-1 $319 $26 $-1 $320 reversed single #
loop $-1 $-1 $131 $125 #
plane-surface $-1 0 0 10.380834414067817 0 0 1 1 0 0 forward_v I I I I #
coedge $-1 $321 $322 $323 $324 reversed $126 $-1 #
coedge $-1 $325 $128 $130 $218 forward $78 $-1 #
coedge $-1 $128 $325 $321 $326 forward $78 $-1 #
coedge $-1 $323 $131 $128 $215 forward $209 $-1 #
edge $-1 $221 -1.9816851775569777 $327 16.109155082023754 $214 $328 forward 7 unknown #
coedge $-1 $329 $330 $129 $217 forward $319 $-1 #
edge $-1 $331 -37.925312352151614 $220 -28.050394076088391 $216 $332 forward 7 unknown #
edge $-1 $221 -15.691400269054334 $331 -4.5775606565932064e-015 $130 $333 forward 7 unknown #
coedge $-1 $131 $323 $329 $334 forward $209 $-1 #
vertex $-1 $217 $335 #
vertex $-1 $132 $336 #
straight-curve $-1 -5.0820497746764115 -42.9882715728113 10.38083441406782 0 1 0 I I #
coedge $-1 $223 $223 $-1 $337 reversed $135 $-1 #
edge $-1 $338 0 $338 6.2831853071796004 $136 $339 forward 7 unknown #
vertex $-1 $139 $340 #
ellipse-curve $-1 -14.127469904466778 -18.046980145521957 5.4433752760362086 0 -0.62932039886446345 0.77714595512881146 3 0 0 1 I I #
face $-1 $-1 $155 $21 $-1 $341 reversed single #
loop $-1 $-1 $243 $140 #
plane-surface $-1 0 24.144234270223318 0 0 -1 0 0 0 -1 forward_v I I I I #
coedge $-1 $342 $241 $244 $343 forward $141 $-1 #
coedge $-1 $247 $143 $144 $235 reversed $87 $-1 #
coedge $-1 $241 $342 $143 $233 reversed $141 $-1 #
edge $-1 $248 -10.380834414067817 $344 10.380834414067817 $232 $345 forward 7 unknown #
coedge $-1 $145 $144 $342 $346 forward $57 $-1 #
edge $-1 $239 -49.126255073702197 $344 49.126255073702197 $231 $347 forward 7 unknown #
coedge $-1 $244 $243 $145 $237 reversed $228 $-1 #
edge $-1 $348 -49.126255073702197 $238 49.126255073702197 $236 $349 forward 7 unknown #
vertex $-1 $147 $350 #
vertex $-1 $250 $351 #
straight-curve $-1 49.126255073702197 0 -10.380834414067817 0 -1 0 I I #
coedge $-1 $230 $232 $148 $242 reversed $141 $-1 #
edge $-1 $245 -24.144234270223318 $248 24.144234270223318 $241 $352 forward 7 unknown #
coedge $-1 $236 $149 $154 $251 forward $228 $-1 #
coedge $-1 $149 $236 $230 $343 reversed $228 $-1 #
vertex $-1 $150 $353 #
straight-curve $-1 0 24.144234270223318 10.380834414067817 -1 0 0 I I #
coedge $-1 $151 $231 $153 $250 reversed $87 $-1 #
vertex $-1 $242 $354 #
straight-curve $-1 0 -24.144234270223318 10.380834414067817 1 0 0 I I #
edge $-1 $156 -10.380834414067817 $239 10.380834414067817 $153 $355 forward 7 unknown #
edge $-1 $157 -10.380834414067817 $238 10.380834414067817 $154 $356 forward 7 unknown #
point $-1 49.126255073702197 -24.144234270223318 10.380834414067817 #
point $-1 49.126255073702197 24.144234270223318 10.380834414067817 #
face $-1 $-1 $268 $22 $-1 $357 reversed single #
loop $-1 $-1 $264 $159 #
plane-surface $-1 0 0 -10.380834414067817 0 0 1 1 0 0 forward_v I I I I #
coedge $-1 $358 $359 $258 $360 forward $160 $-1 #
coedge $-1 $163 $162 $257 $360 reversed $61 $-1 #
coedge $-1 $264 $361 $162 $260 forward $255 $-1 #
edge $-1 $362 -56.211789960053721 $262 -49.126255073702197 $162 $363 forward 7 unknown #
edge $-1 $170 -3.5427674431757623 $364 3.5427674431757623 $163 $365 forward 7 unknown #
vertex $-1 $164 $366 #
straight-curve $-1 -49.126255073702197 24.144234270223318 0 0 0 -1 I I #
coedge $-1 $367 $259 $165 $265 forward $255 $-1 #
edge $-1 $262 -24.144234270223318 $269 24.144234270223318 $264 $368 forward 7 unknown #
coedge $-1 $369 $166 $169 $272 reversed $268 $-1 #
coedge $-1 $166 $369 $367 $370 reversed $268 $-1 #
loop $-1 $-1 $166 $254 #
vertex $-1 $370 $371 #
straight-curve $-1 -49.126255073702197 -24.144234270223318 0 0 0 1 I I #
coedge $-1 $169 $168 $359 $372 forward $95 $-1 #
edge $-1 $373 -3.5427674431757623 $171 3.5427674431757623 $266 $374 forward 7 unknown #
point $-1 -49.126255073702197 24.144234270223318 -6.1782549641219795 #
point $-1 -49.126255073702197 -24.144234270223318 -6.1782549641219795 #
face $-1 $-1 $291 $23 $-1 $375 reversed single #
loop $-1 $-1 $287 $173 #
plane-surface $-1 0 0 -10.380834414067817 0 0 1 1 0 0 forward_v I I I I #
coedge $-1 $376 $279 $377 $378 forward $174 $-1 #
coedge $-1 $278 $379 $176 $280 reversed $174 $-1 #
edge $-1 $380 -24.144234270223318 $381 24.144234270223318 $279 $382 forward 7 unknown #
coedge $-1 $178 $177 $379 $383 forward $65 $-1 #
edge $-1 $381 -3.5427674431757623 $186 3.5427674431757623 $177 $384 forward 7 unknown #
coedge $-1 $385 $287 $178 $284 forward $276 $-1 #
edge $-1 $285 -3.5427674431757623 $386 3.5427674431757623 $178 $387 forward 7 unknown #
vertex $-1 $284 $388 #
straight-curve $-1 49.126255073702197 24.144234270223318 0 0 0 1 I I #
coedge $-1 $283 $389 $180 $288 forward $276 $-1 #
edge $-1 $292 -24.144234270223318 $285 24.144234270223318 $287 $390 forward 7 unknown #
coedge $-1 $377 $181 $389 $391 reversed $291 $-1 #
coedge $-1 $181 $377 $183 $294 reversed $291 $-1 #
loop $-1 $-1 $181 $275 #
vertex $-1 $182 $392 #
straight-curve $-1 49.126255073702197 -24.144234270223318 0 0 0 -1 I I #
edge $-1 $185 -3.5427674431757623 $380 3.5427674431757623 $290 $393 forward 7 unknown #
point $-1 49.126255073702197 -24.144234270223318 -6.1782549641219795 #
point $-1 49.126255073702197 24.144234270223318 -6.1782549641219795 #
plane-surface $-1 0 0 10.380834414067817 0 0 1 1 0 0 forward_v I I I I #
coedge $-1 $308 $307 $300 $394 forward $189 $-1 #
coedge $-1 $300 $191 $193 $304 reversed $111 $-1 #
coedge $-1 $191 $299 $298 $394 reversed $111 $-1 #
coedge $-1 $199 $194 $191 $302 forward $200 $-1 #
edge $-1 $305 -12.274951549204225 $395 -0.080443299801498114 $301 $396 forward 7 unknown #
coedge $-1 $193 $192 $308 $397 reversed $69 $-1 #
edge $-1 $398 -48.288468540446637 $305 -32.597068271392288 $299 $399 forward 7 unknown #
vertex $-1 $195 $400 #
straight-curve $-1 -7.0637349522333892 11.949726020820593 10.380834414067817 1 0 0 I I #
coedge $-1 $298 $196 $199 $312 reversed $189 $-1 #
coedge $-1 $196 $298 $303 $397 forward $189 $-1 #
vertex $-1 $197 $401 #
straight-curve $-1 -23.172890034257144 24.144234270223318 53.625687631370191 0 0 1 I I #
straight-curve $-1 -23.172890034257144 -13.382953735349645 30.894834420432559 0 0.77714595512881146 -0.62932039886446345 I I #
edge $-1 $395 5.0820497746764115 $201 23.172890034257144 $307 $402 forward 7 unknown #
point $-1 -23.172890034257144 24.144234270223318 10.380834414067817 #
point $-1 -23.172890034257144 11.949726020820592 10.38083441406782 #
edge $-1 $403 1 $403 0 $204 $-1 forward 7 unknown #
vertex $-1 $205 $404 #
ellipse-curve $-1 -14.127469904466778 12.781465759918143 -1.0589933327491641 0 0.62932039886446345 0.77714595512881146 3 0 0 1 I I #
point $-1 -11.127469904466778 18.046980145521957 5.4433752760362015 #
loop $-1 $-1 $216 $208 #
plane-surface $-1 0 -24.144234270223318 0 0 1 0 0 0 1 forward_v I I I I #
coedge $-1 $322 $211 $213 $326 reversed $126 $-1 #
coedge $-1 $211 $321 $405 $406 reversed $126 $-1 #
coedge $-1 $219 $214 $211 $324 forward $209 $-1 #
edge $-1 $327 -31.038545551990698 $407 -18.844037302587981 $323 $408 forward 7 unknown #
coedge $-1 $213 $212 $330 $409 reversed $78 $-1 #
edge $-1 $410 4.5775606565932064e-015 $327 15.691400269054334 $321 $411 forward 7 unknown #
vertex $-1 $215 $412 #
straight-curve $-1 -7.0637349522333892 -11.949726020820602 10.380834414067817 -1 0 0 I I #
coedge $-1 $405 $216 $219 $334 reversed $319 $-1 #
coedge $-1 $216 $405 $325 $409 forward $319 $-1 #
vertex $-1 $217 $413 #
straight-curve $-1 -5.0820497746764115 -24.144234270223318 38.431228490156208 0 0 1 I I #
straight-curve $-1 -5.0820497746764115 -24.144234270223322 0.50591613800459356 0 -0.77714595512881146 -0.62932039886446345 I I #
edge $-1 $407 -23.172890034257144 $220 -5.0820497746764115 $329 $414 forward 7 unknown #
point $-1 -5.0820497746764115 -24.144234270223318 10.380834414067817 #
point $-1 -5.0820497746764115 -11.949726020820602 10.380834414067817 #
edge $-1 $415 1 $415 0 $223 $-1 forward 7 unknown #
vertex $-1 $224 $416 #
ellipse-curve $-1 -14.127469904466778 -12.78146575991814 -1.0589933327491641 0 -0.62932039886446345 0.77714595512881146 3 0 0 1 I I #
point $-1 -11.127469904466778 -18.046980145521953 5.4433752760362015 #
plane-surface $-1 49.126255073702197 0 0 -1 0 0 0 0 1 forward_v I I I I #
coedge $-1 $232 $230 $234 $346 reversed $141 $-1 #
edge $-1 $245 -10.380834414067817 $348 10.380834414067817 $244 $417 forward 7 unknown #
vertex $-1 $346 $418 #
straight-curve $-1 -49.126255073702197 -24.144234270223318 0 0 0 -1 I I #
edge $-1 $344 -24.144234270223318 $348 24.144234270223318 $342 $419 forward 7 unknown #
straight-curve $-1 0 -24.144234270223318 -10.380834414067817 -1 0 0 I I #
vertex $-1 $237 $420 #
straight-curve $-1 0 24.144234270223318 -10.380834414067817 1 0 0 I I #
point $-1 49.126255073702197 24.144234270223318 -10.380834414067817 #
point $-1 49.126255073702197 -24.144234270223318 -10.380834414067817 #
straight-curve $-1 -49.126255073702197 0 10.380834414067817 0 -1 0 I I #
point $-1 -49.126255073702197 24.144234270223318 10.380834414067817 #
point $-1 -49.126255073702197 -24.144234270223318 10.380834414067817 #
straight-curve $-1 49.126255073702197 -24.144234270223318 0 0 0 -1 I I #
straight-curve $-1 49.126255073702197 24.144234270223318 0 0 0 -1 I I #
plane-surface $-1 0 -24.144234270223318 0 0 1 0 0 0 1 forward_v I I I I #
coedge $-1 $421 $257 $361 $422 reversed $160 $-1 #
coedge $-1 $257 $421 $271 $372 reversed $160 $-1 #
edge $-1 $364 -2.1012897249729185 $362 2.1012897249729185 $258 $423 forward 7 unknown #
coedge $-1 $259 $367 $358 $422 forward $255 $-1 #
vertex $-1 $260 $424 #
straight-curve $-1 0 24.144234270223318 -10.380834414067817 1 0 0 I I #
vertex $-1 $261 $425 #
straight-curve $-1 -52.669022516877959 24.144234270223318 -6.1782549641219795 -1 0 0 I I #
point $-1 -49.126255073702197 24.144234270223318 -10.380834414067817 #
coedge $-1 $361 $264 $267 $370 forward $255 $-1 #
straight-curve $-1 -49.126255073702197 0 -10.380834414067817 0 -1 0 I I #
coedge $-1 $267 $266 $421 $426 forward $268 $-1 #
edge $-1 $269 -3.5427674431757623 $427 3.5427674431757623 $267 $428 forward 7 unknown #
point $-1 -49.126255073702197 -24.144234270223318 -10.380834414067817 #
edge $-1 $364 -24.144234270223318 $373 24.144234270223318 $359 $429 forward 7 unknown #
vertex $-1 $372 $430 #
straight-curve $-1 -52.669022516877959 -24.144234270223318 -6.1782549641219795 1 0 0 I I #
plane-surface $-1 0 -24.144234270223318 0 0 1 0 0 0 1 forward_v I I I I #
coedge $-1 $379 $278 $385 $431 reversed $174 $-1 #
coedge $-1 $290 $289 $278 $378 reversed $291 $-1 #
edge $-1 $380 -2.1012897249729185 $432 2.1012897249729185 $278 $433 forward 7 unknown #
coedge $-1 $279 $376 $281 $383 reversed $174 $-1 #
vertex $-1 $280 $434 #
vertex $-1 $280 $435 #
straight-curve $-1 56.211789960053721 0 -6.1782549641219795 0 1 0 I I #
edge $-1 $381 -2.1012897249729185 $386 2.1012897249729185 $379 $436 forward 7 unknown #
straight-curve $-1 52.669022516877959 24.144234270223318 -6.1782549641219795 -1 0 0 I I #
coedge $-1 $389 $283 $376 $431 forward $276 $-1 #
vertex $-1 $431 $437 #
straight-curve $-1 52.669022516877959 24.144234270223318 -10.380834414067817 1 0 0 I I #
point $-1 49.126255073702197 24.144234270223318 -10.380834414067817 #
coedge $-1 $287 $385 $289 $391 forward $276 $-1 #
straight-curve $-1 49.126255073702197 0 -10.380834414067817 0 1 0 I I #
edge $-1 $432 -3.5427674431757623 $292 3.5427674431757623 $289 $438 forward 7 unknown #
point $-1 49.126255073702197 -24.144234270223318 -10.380834414067817 #
straight-curve $-1 52.669022516877959 -24.144234270223318 -6.1782549641219795 1 0 0 I I #
edge $-1 $395 43.244853217302378 $398 53.119771493365604 $298 $439 forward 7 unknown #
vertex $-1 $312 $440 #
straight-curve $-1 -5.0820497746764115 24.224677570024816 10.38083441406782 0 1 0 I I #
edge $-1 $398 -1.9816851775569777 $309 16.109155082023754 $308 $441 forward 7 unknown #
vertex $-1 $397 $442 #
straight-curve $-1 -5.0820497746764115 -13.382953735349645 30.894834420432559 0 -0.77714595512881146 0.62932039886446345 I I #
point $-1 -5.0820497746764115 11.949726020820592 10.38083441406782 #
point $-1 -23.172890034257144 24.144234270223322 0.50591613800458646 #
straight-curve $-1 0 24.144234270223318 10.380834414067817 -1 0 0 I I #
vertex $-1 $315 $443 #
point $-1 -11.127469904466778 12.781465759918143 -1.0589933327491641 #
coedge $-1 $330 $329 $322 $406 forward $319 $-1 #
edge $-1 $407 28.050394076088391 $410 37.925312352151614 $405 $444 forward 7 unknown #
vertex $-1 $334 $445 #
straight-curve $-1 -23.172890034257144 -42.9882715728113 10.38083441406782 0 -1 0 I I #
edge $-1 $410 -16.109155082023754 $331 1.9816851775569777 $330 $446 forward 7 unknown #
vertex $-1 $409 $447 #
straight-curve $-1 -23.172890034257144 -24.144234270223322 0.50591613800459356 0 0.77714595512881146 0.62932039886446345 I I #
point $-1 -23.172890034257144 -11.949726020820602 10.380834414067817 #
point $-1 -5.0820497746764115 -24.144234270223318 0.50591613800459645 #
straight-curve $-1 0 -24.144234270223318 10.380834414067817 1 0 0 I I #
vertex $-1 $337 $448 #
point $-1 -11.127469904466778 -12.78146575991814 -1.0589933327491641 #
straight-curve $-1 -49.126255073702197 24.144234270223318 0 0 0 -1 I I #
point $-1 -49.126255073702197 -24.144234270223318 -10.380834414067817 #
straight-curve $-1 -49.126255073702197 0 -10.380834414067817 0 1 0 I I #
point $-1 -49.126255073702197 24.144234270223318 -10.380834414067817 #
coedge $-1 $359 $358 $369 $426 reversed $160 $-1 #
edge $-1 $427 -24.144234270223318 $362 24.144234270223318 $358 $449 forward 7 unknown #
straight-curve $-1 -56.211789960053721 24.144234270223318 -8.279544689094898 0 0 -1 I I #
point $-1 -56.211789960053721 24.144234270223318 -10.380834414067817 #
point $-1 -56.211789960053721 24.144234270223318 -6.1782549641219795 #
edge $-1 $373 -2.1012897249729185 $427 2.1012897249729185 $421 $450 forward 7 unknown #
vertex $-1 $422 $451 #
straight-curve $-1 -52.669022516877959 -24.144234270223318 -10.380834414067817 -1 0 0 I I #
straight-curve $-1 -56.211789960053721 0 -6.1782549641219795 0 -1 0 I I #
point $-1 -56.211789960053721 -24.144234270223318 -6.1782549641219795 #
edge $-1 $386 -24.144234270223318 $432 24.144234270223318 $376 $452 forward 7 unknown #
vertex $-1 $378 $453 #
straight-curve $-1 56.211789960053721 -24.144234270223318 -8.279544689094898 0 0 -1 I I #
point $-1 56.211789960053721 -24.144234270223318 -6.1782549641219795 #
point $-1 56.211789960053721 24.144234270223318 -6.1782549641219795 #
straight-curve $-1 56.211789960053721 24.144234270223318 -8.279544689094898 0 0 -1 I I #
point $-1 56.211789960053721 24.144234270223318 -10.380834414067817 #
straight-curve $-1 52.669022516877959 -24.144234270223318 -10.380834414067817 -1 0 0 I I #
straight-curve $-1 -5.0820497746764115 24.144234270223318 53.625687631370191 0 0 -1 I I #
point $-1 -5.0820497746764115 24.144234270223318 10.380834414067817 #
straight-curve $-1 -7.0637349522333892 24.144234270223315 0.50591613800459001 -1 0 0 I I #
point $-1 -5.0820497746764115 24.144234270223322 0.50591613800458646 #
point $-1 -14.127469904466778 10.893504563324752 -3.3904311981355981 #
straight-curve $-1 -23.172890034257144 -24.144234270223318 38.431228490156208 0 0 -1 I I #
point $-1 -23.172890034257144 -24.144234270223318 10.380834414067817 #
straight-curve $-1 -7.0637349522333892 -24.144234270223318 0.505916138004598 1 0 0 I I #
point $-1 -23.172890034257144 -24.144234270223318 0.50591613800459645 #
point $-1 -14.127469904466778 -10.893504563324749 -3.3904311981355981 #
straight-curve $-1 -56.211789960053721 0 -10.380834414067817 0 1 0 I I #
straight-curve $-1 -56.211789960053721 -24.144234270223318 -8.279544689094898 0 0 -1 I I #
point $-1 -56.211789960053721 -24.144234270223318 -10.380834414067817 #
straight-curve $-1 56.211789960053721 0 -10.380834414067817 0 -1 0 I I #
point $-1 56.211789960053721 -24.144234270223318 -10.380834414067817 #
End-of-ACIS-data 