500 0 5 0           
7 Unknown 11 ACIS 5.0 NT 24 Thu Mar 25 17:42:55 1999 
-1 9.9999999999999995e-007 1e-010 
body $-1 $5 $-1 $6 #
body $-1 $7 $-1 $8 #
body $-1 $9 $-1 $10 #
body $-1 $11 $-1 $12 #
body $-1 $13 $-1 $14 #
lump $-1 $-1 $15 $0 #
transform $-1 1 0 0 0 1 0 0 0 1 58.17804498428297 37.339094327340597 9.0150774572727723 1 rotate no_reflect no_shear #
lump $-1 $-1 $16 $1 #
transform $-1 1 0 0 0 1 0 0 0 1 58.17804498428297 37.339094327340597 9.0150774572727723 1 rotate no_reflect no_shear #
lump $-1 $-1 $17 $2 #
transform $-1 1 0 0 0 1 0 0 0 1 58.17804498428297 37.339094327340597 9.0150774572727723 1 rotate no_reflect no_shear #
lump $-1 $-1 $18 $3 #
transform $-1 1 0 0 0 1 0 0 0 1 58.17804498428297 37.339094327340597 9.0150774572727723 1 rotate no_reflect no_shear #
lump $-1 $-1 $19 $4 #
transform $-1 1 0 0 0 1 0 0 0 1 58.17804498428297 37.339094327340597 9.0150774572727723 1 rotate no_reflect no_shear #
shell $-1 $-1 $-1 $20 $-1 $5 #
shell $-1 $-1 $-1 $21 $-1 $7 #
shell $-1 $-1 $-1 $22 $-1 $9 #
shell $-1 $-1 $-1 $23 $-1 $11 #
shell $-1 $-1 $-1 $24 $-1 $13 #
face $-1 $25 $26 $15 $-1 $27 forward single #
face $-1 $28 $29 $16 $-1 $30 forward single #
face $-1 $31 $32 $17 $-1 $33 reversed single #
face $-1 $34 $35 $18 $-1 $36 forward single #
face $-1 $37 $38 $19 $-1 $39 forward single #
face $-1 $40 $41 $15 $-1 $42 reversed single #
loop $-1 $-1 $43 $20 #
plane-surface $-1 0 0 9.0150774572727723 0 0 1 1 0 0 forward_v I I I I #
face $-1 $44 $45 $16 $-1 $46 reversed single #
loop $-1 $-1 $47 $21 #
plane-surface $-1 0 -37.339094327340597 0 0 1 0 0 0 1 forward_v I I I I #
face $-1 $48 $49 $17 $-1 $50 reversed single #
loop $-1 $-1 $51 $22 #
plane-surface $-1 28.771739352437166 76.160851884796841 133.53682912659173 1 0 0 0 -0.75470958851134928 -0.65605901945558964 forward_v I I I I #
face $-1 $52 $53 $18 $-1 $54 forward single #
loop $-1 $55 $56 $23 #
cone-surface $-1 37.17354096153597 31.364039146026155 2.8222923366576631 0 -0.75470958851134928 -0.65605901945558964 2.5 0 0 1 I I 0 1 2.5 forward I I I I #
face $-1 $57 $58 $19 $-1 $59 forward single #
loop $-1 $60 $61 $24 #
cone-surface $-1 49.776243375184173 31.364039146026155 2.8222923366576631 0 -0.75470958851134928 -0.65605901945558964 2.5 0 0 1 I I 0 1 2.5 forward I I I I #
face $-1 $62 $63 $15 $-1 $64 reversed single #
loop $-1 $-1 $65 $25 #
plane-surface $-1 0 0 -9.0150774572727723 0 0 1 1 0 0 forward_v I I I I #
coedge $-1 $66 $67 $68 $69 forward $26 $-1 #
face $-1 $70 $71 $16 $-1 $72 reversed single #
loop $-1 $-1 $73 $28 #
plane-surface $-1 0 0 -9.0150774572727723 0 0 1 1 0 0 forward_v I I I I #
coedge $-1 $74 $75 $76 $77 forward $29 $-1 #
face $-1 $78 $79 $17 $-1 $80 forward single #
loop $-1 $-1 $81 $31 #
plane-surface $-1 43.474892168360064 -11.654204896169105 57.200366834127976 0 0.75470958851134928 0.65605901945558964 1 0 0 forward_v I I I I #
coedge $-1 $82 $83 $84 $85 reversed $32 $-1 #
face $-1 $-1 $86 $18 $-1 $87 forward single #
loop $-1 $88 $89 $34 #
cone-surface $-1 37.17354096153597 27.998830618652995 -0.10303873153085696 0 -0.75470958851134928 -0.65605901945558964 1.25 0 0 1 I I -0.70710678118654757 0.70710678118654735 1.25 forward I I I I #
loop $-1 $-1 $90 $23 #
coedge $-1 $56 $56 $91 $92 reversed $35 $-1 #
face $-1 $-1 $93 $19 $-1 $94 forward single #
loop $-1 $95 $96 $37 #
cone-surface $-1 49.776243375184173 27.998830618652995 -0.10303873153085696 0 -0.75470958851134928 -0.65605901945558964 1.25 0 0 1 I I -0.70710678118654757 0.70710678118654735 1.25 forward I I I I #
loop $-1 $-1 $97 $24 #
coedge $-1 $61 $61 $98 $99 reversed $38 $-1 #
face $-1 $100 $101 $15 $-1 $102 reversed single #
loop $-1 $-1 $103 $40 #
plane-surface $-1 0 -37.339094327340597 0 0 1 0 0 0 1 forward_v I I I I #
coedge $-1 $104 $105 $106 $107 forward $41 $-1 #
coedge $-1 $108 $43 $109 $110 forward $26 $-1 #
coedge $-1 $43 $108 $111 $112 forward $26 $-1 #
coedge $-1 $113 $114 $43 $69 reversed $115 $-1 #
edge $-1 $116 -37.339094327340597 $117 37.339094327340597 $68 $118 forward 7 unknown #
face $-1 $119 $120 $16 $-1 $121 reversed single #
loop $-1 $-1 $122 $44 #
plane-surface $-1 -49.272305488626074 -48.003683070113432 0 0 1 0 0 0 1 forward_v I I I I #
coedge $-1 $123 $124 $75 $125 forward $45 $-1 #
coedge $-1 $126 $47 $127 $128 reversed $29 $-1 #
coedge $-1 $47 $126 $73 $125 reversed $29 $-1 #
coedge $-1 $129 $130 $47 $77 reversed $120 $-1 #
edge $-1 $131 -9.0150774572727723 $132 9.0150774572727723 $76 $133 forward 7 unknown #
face $-1 $134 $135 $17 $-1 $136 reversed single #
loop $-1 $-1 $84 $48 #
plane-surface $-1 0 0 9.0150774572727723 0 0 1 1 0 0 forward_v I I I I #
coedge $-1 $137 $138 $139 $140 reversed $49 $-1 #
coedge $-1 $83 $51 $141 $142 reversed $32 $-1 #
coedge $-1 $51 $82 $137 $143 reversed $32 $-1 #
coedge $-1 $139 $144 $51 $85 forward $79 $-1 #
edge $-1 $145 0.74133161505782397 $146 7.8477988942188048 $84 $147 forward 7 unknown #
loop $-1 $-1 $91 $52 #
plane-surface $-1 43.474892168360064 -11.654204896169105 57.200366834127976 0 0.75470958851134928 0.65605901945558964 1 0 0 forward_v I I I I #
loop $-1 $-1 $148 $34 #
coedge $-1 $89 $89 $90 $149 reversed $53 $-1 #
coedge $-1 $90 $90 $89 $149 forward $55 $-1 #
coedge $-1 $91 $91 $56 $92 forward $86 $-1 #
edge $-1 $150 -2.4510146044127572e-017 $150 6.2831853071796004 $91 $151 forward 7 unknown #
loop $-1 $-1 $98 $57 #
plane-surface $-1 43.474892168360064 -11.654204896169105 57.200366834127976 0 0.75470958851134928 0.65605901945558964 1 0 0 forward_v I I I I #
loop $-1 $-1 $152 $37 #
coedge $-1 $96 $96 $97 $153 reversed $58 $-1 #
coedge $-1 $97 $97 $96 $153 forward $60 $-1 #
coedge $-1 $98 $98 $61 $99 forward $93 $-1 #
edge $-1 $154 -2.4510146044127572e-017 $154 6.2831853071796004 $98 $155 forward 7 unknown #
face $-1 $156 $157 $15 $-1 $158 reversed single #
loop $-1 $-1 $159 $62 #
plane-surface $-1 -58.17804498428297 0 0 1 0 0 0 0 -1 forward_v I I I I #
coedge $-1 $160 $111 $161 $162 forward $63 $-1 #
coedge $-1 $163 $65 $160 $164 forward $41 $-1 #
coedge $-1 $65 $163 $165 $166 forward $41 $-1 #
coedge $-1 $114 $113 $65 $107 reversed $115 $-1 #
edge $-1 $167 -37.339094327340597 $168 37.339094327340597 $106 $169 forward 7 unknown #
coedge $-1 $67 $66 $170 $171 forward $26 $-1 #
coedge $-1 $172 $173 $66 $110 reversed $157 $-1 #
edge $-1 $117 -58.17804498428297 $174 58.17804498428297 $109 $175 forward 7 unknown #
coedge $-1 $103 $176 $67 $112 reversed $63 $-1 #
edge $-1 $177 -58.17804498428297 $116 58.17804498428297 $111 $178 forward 7 unknown #
coedge $-1 $106 $68 $176 $179 forward $115 $-1 #
coedge $-1 $68 $106 $172 $180 reversed $115 $-1 #
loop $-1 $-1 $113 $156 #
vertex $-1 $69 $181 #
vertex $-1 $69 $182 #
straight-curve $-1 58.17804498428297 0 9.0150774572727723 0 1 0 I I #
face $-1 $183 $184 $16 $-1 $185 reversed single #
loop $-1 $-1 $76 $70 #
plane-surface $-1 -51.049651656469571 -42.671388698727014 0 1 0 0 0 0 -1 forward_v I I I I #
coedge $-1 $186 $187 $188 $189 forward $71 $-1 #
coedge $-1 $190 $73 $191 $192 forward $45 $-1 #
coedge $-1 $73 $190 $129 $193 forward $45 $-1 #
edge $-1 $131 -51.049651656469571 $194 -47.494959320782577 $73 $195 forward 7 unknown #
coedge $-1 $75 $74 $196 $197 forward $29 $-1 #
coedge $-1 $198 $199 $74 $128 forward $200 $-1 #
edge $-1 $201 47.494959320782577 $132 51.049651656469571 $127 $202 forward 7 unknown #
coedge $-1 $188 $76 $124 $193 reversed $120 $-1 #
coedge $-1 $76 $188 $198 $203 reversed $120 $-1 #
vertex $-1 $125 $204 #
vertex $-1 $203 $205 #
straight-curve $-1 -51.049651656469571 -37.339094327340597 0 0 0 1 I I #
face $-1 $-1 $206 $17 $-1 $207 reversed single #
loop $-1 $-1 $208 $78 #
plane-surface $-1 58.17804498428297 0 0 -1 0 0 0 0 1 forward_v I I I I #
coedge $-1 $209 $81 $83 $143 forward $49 $-1 #
coedge $-1 $81 $209 $208 $210 reversed $49 $-1 #
coedge $-1 $211 $84 $81 $140 forward $79 $-1 #
edge $-1 $146 7.0342932682571337 $212 36.440598900102927 $139 $213 forward 7 unknown #
coedge $-1 $214 $215 $82 $142 forward $206 $-1 #
edge $-1 $216 -65.928392759515262 $145 -57.753337106023089 $141 $217 forward 7 unknown #
edge $-1 $146 63.846133811417189 $216 74.67818865468125 $83 $218 forward 7 unknown #
coedge $-1 $84 $211 $214 $219 forward $79 $-1 #
vertex $-1 $142 $220 #
vertex $-1 $85 $221 #
straight-curve $-1 28.771739352437166 38.080425942398421 9.0150774572727741 0 -1 0 I I #
coedge $-1 $148 $148 $-1 $222 reversed $88 $-1 #
edge $-1 $223 0 $223 6.2831853071796004 $89 $224 forward 7 unknown #
vertex $-1 $92 $225 #
ellipse-curve $-1 37.17354096153597 33.785860687760113 4.9275496305266833 0 0.75470958851134928 0.65605901945558964 2.5 0 0 1 I I #
coedge $-1 $152 $152 $-1 $226 reversed $95 $-1 #
edge $-1 $227 0 $227 6.2831853071796004 $96 $228 forward 7 unknown #
vertex $-1 $99 $229 #
ellipse-curve $-1 49.776243375184173 33.785860687760113 4.9275496305266833 0 0.75470958851134928 0.65605901945558964 2.5 0 0 1 I I #
face $-1 $-1 $115 $15 $-1 $230 reversed single #
loop $-1 $-1 $172 $100 #
plane-surface $-1 0 37.339094327340597 0 0 -1 0 0 0 -1 forward_v I I I I #
coedge $-1 $231 $170 $173 $232 forward $101 $-1 #
coedge $-1 $176 $103 $104 $164 reversed $63 $-1 #
coedge $-1 $170 $231 $103 $162 reversed $101 $-1 #
edge $-1 $177 -9.0150774572727723 $233 9.0150774572727723 $161 $234 forward 7 unknown #
coedge $-1 $105 $104 $231 $235 forward $41 $-1 #
edge $-1 $168 -58.17804498428297 $233 58.17804498428297 $160 $236 forward 7 unknown #
coedge $-1 $173 $172 $105 $166 reversed $157 $-1 #
edge $-1 $237 -58.17804498428297 $167 58.17804498428297 $165 $238 forward 7 unknown #
vertex $-1 $107 $239 #
vertex $-1 $179 $240 #
straight-curve $-1 58.17804498428297 0 -9.0150774572727723 0 -1 0 I I #
coedge $-1 $159 $161 $108 $171 reversed $101 $-1 #
edge $-1 $174 -37.339094327340597 $177 37.339094327340597 $170 $241 forward 7 unknown #
coedge $-1 $165 $109 $114 $180 forward $157 $-1 #
coedge $-1 $109 $165 $159 $232 reversed $157 $-1 #
vertex $-1 $110 $242 #
straight-curve $-1 0 37.339094327340597 9.0150774572727723 -1 0 0 I I #
coedge $-1 $111 $160 $113 $179 reversed $63 $-1 #
vertex $-1 $171 $243 #
straight-curve $-1 0 -37.339094327340597 9.0150774572727723 1 0 0 I I #
edge $-1 $116 -9.0150774572727723 $168 9.0150774572727723 $113 $244 forward 7 unknown #
edge $-1 $117 -9.0150774572727723 $167 9.0150774572727723 $114 $245 forward 7 unknown #
point $-1 58.17804498428297 -37.339094327340597 9.0150774572727723 #
point $-1 58.17804498428297 37.339094327340597 9.0150774572727723 #
face $-1 $-1 $200 $16 $-1 $246 forward single #
loop $-1 $-1 $247 $119 #
plane-surface $-1 -47.494959320782577 -42.671388698727014 0 -1 0 0 0 0 1 forward_v I I I I #
coedge $-1 $248 $122 $190 $249 reversed $71 $-1 #
coedge $-1 $122 $248 $250 $251 reversed $71 $-1 #
coedge $-1 $130 $129 $122 $189 reversed $120 $-1 #
edge $-1 $252 -9.0150774572727723 $253 9.0150774572727723 $188 $254 forward 7 unknown #
coedge $-1 $124 $123 $186 $249 forward $45 $-1 #
coedge $-1 $196 $247 $123 $192 reversed $184 $-1 #
edge $-1 $194 -5.3322943713864177 $255 5.3322943713864177 $191 $256 forward 7 unknown #
edge $-1 $253 -5.3322943713864177 $131 5.3322943713864177 $129 $257 forward 7 unknown #
vertex $-1 $192 $258 #
straight-curve $-1 0 -37.339094327340597 -9.0150774572727723 1 0 0 I I #
coedge $-1 $259 $191 $126 $197 reversed $184 $-1 #
edge $-1 $201 -9.0150774572727723 $194 9.0150774572727723 $196 $260 forward 7 unknown #
coedge $-1 $250 $127 $130 $203 forward $200 $-1 #
coedge $-1 $127 $250 $259 $261 forward $200 $-1 #
loop $-1 $-1 $127 $183 #
vertex $-1 $128 $262 #
straight-curve $-1 0 -37.339094327340597 9.0150774572727723 -1 0 0 I I #
edge $-1 $132 -5.3322943713864177 $252 5.3322943713864177 $130 $263 forward 7 unknown #
point $-1 -51.049651656469571 -37.339094327340597 -9.0150774572727723 #
point $-1 -51.049651656469571 -37.339094327340597 9.0150774572727723 #
loop $-1 $-1 $141 $134 #
plane-surface $-1 0 37.339094327340597 0 0 -1 0 0 0 -1 forward_v I I I I #
coedge $-1 $264 $265 $138 $210 forward $135 $-1 #
coedge $-1 $138 $137 $215 $266 reversed $49 $-1 #
edge $-1 $212 38.438378035018076 $267 49.270432878282122 $208 $268 forward 7 unknown #
coedge $-1 $144 $139 $265 $269 forward $79 $-1 #
vertex $-1 $269 $270 #
straight-curve $-1 21.737446084180032 30.232627048179609 9.0150774572727705 1 0 0 I I #
coedge $-1 $271 $141 $144 $219 reversed $206 $-1 #
coedge $-1 $141 $271 $209 $266 forward $206 $-1 #
vertex $-1 $142 $272 #
straight-curve $-1 28.771739352437166 37.339094327340597 66.768414563295863 0 0 1 I I #
straight-curve $-1 28.771739352437166 -11.654204896169105 57.200366834127976 0 0.65605901945558964 -0.75470958851134928 I I #
edge $-1 $273 -58.17804498428297 $145 -28.771739352437166 $214 $274 forward 7 unknown #
point $-1 28.771739352437166 37.339094327340597 9.0150774572727723 #
point $-1 28.771739352437166 30.232627048179616 9.0150774572727741 #
edge $-1 $275 1 $275 0 $148 $-1 forward 7 unknown #
vertex $-1 $149 $276 #
ellipse-curve $-1 37.17354096153597 28.942217604292182 0.71703504278862984 0 0.75470958851134928 0.65605901945558964 2.5 0 0 1 I I #
point $-1 39.67354096153597 33.785860687760128 4.9275496305266957 #
edge $-1 $277 1 $277 0 $152 $-1 forward 7 unknown #
vertex $-1 $153 $278 #
ellipse-curve $-1 49.776243375184173 28.942217604292182 0.71703504278862984 0 0.75470958851134928 0.65605901945558964 2.5 0 0 1 I I #
point $-1 52.276243375184173 33.785860687760128 4.9275496305266957 #
plane-surface $-1 58.17804498428297 0 0 -1 0 0 0 0 1 forward_v I I I I #
coedge $-1 $161 $159 $163 $235 reversed $101 $-1 #
edge $-1 $174 -9.0150774572727723 $237 9.0150774572727723 $173 $279 forward 7 unknown #
vertex $-1 $235 $280 #
straight-curve $-1 -58.17804498428297 -37.339094327340597 0 0 0 -1 I I #
edge $-1 $233 -37.339094327340597 $237 37.339094327340597 $231 $281 forward 7 unknown #
straight-curve $-1 0 -37.339094327340597 -9.0150774572727723 -1 0 0 I I #
vertex $-1 $166 $282 #
straight-curve $-1 0 37.339094327340597 -9.0150774572727723 1 0 0 I I #
point $-1 58.17804498428297 37.339094327340597 -9.0150774572727723 #
point $-1 58.17804498428297 -37.339094327340597 -9.0150774572727723 #
straight-curve $-1 -58.17804498428297 0 9.0150774572727723 0 -1 0 I I #
point $-1 -58.17804498428297 37.339094327340597 9.0150774572727723 #
point $-1 -58.17804498428297 -37.339094327340597 9.0150774572727723 #
straight-curve $-1 58.17804498428297 -37.339094327340597 0 0 0 -1 I I #
straight-curve $-1 58.17804498428297 37.339094327340597 0 0 0 -1 I I #
plane-surface $-1 0 0 9.0150774572727723 0 0 1 1 0 0 forward_v I I I I #
coedge $-1 $191 $259 $248 $283 forward $184 $-1 #
coedge $-1 $187 $186 $247 $283 reversed $71 $-1 #
edge $-1 $255 -1.777346167843497 $253 1.777346167843497 $186 $284 forward 7 unknown #
coedge $-1 $199 $198 $187 $251 forward $200 $-1 #
edge $-1 $252 -1.777346167843497 $285 1.777346167843497 $187 $286 forward 7 unknown #
vertex $-1 $203 $287 #
vertex $-1 $193 $288 #
straight-curve $-1 -51.049651656469571 -48.003683070113432 0 0 0 -1 I I #
vertex $-1 $283 $289 #
straight-curve $-1 -47.494959320782577 -42.671388698727014 -9.0150774572727723 0 -1 0 I I #
straight-curve $-1 -51.049651656469571 -42.671388698727014 -9.0150774572727723 0 1 0 I I #
point $-1 -47.494959320782577 -37.339094327340597 -9.0150774572727723 #
coedge $-1 $247 $196 $199 $261 reversed $184 $-1 #
straight-curve $-1 -47.494959320782577 -37.339094327340597 0 0 0 -1 I I #
edge $-1 $285 -5.3322943713864177 $201 5.3322943713864177 $259 $290 forward 7 unknown #
point $-1 -47.494959320782577 -37.339094327340597 9.0150774572727723 #
straight-curve $-1 -51.049651656469571 -42.671388698727014 9.0150774572727723 0 -1 0 I I #
coedge $-1 $265 $208 $271 $291 reversed $135 $-1 #
coedge $-1 $208 $264 $211 $269 reversed $135 $-1 #
edge $-1 $267 -36.440598900102927 $216 -7.0342932682571337 $215 $292 forward 7 unknown #
vertex $-1 $210 $293 #
straight-curve $-1 58.17804498428297 5.0147824450623784 38.024889927124953 0 0.65605901945558975 -0.75470958851134939 I I #
edge $-1 $212 30.232627048179616 $273 37.339094327340597 $265 $294 forward 7 unknown #
point $-1 58.178044984282963 30.232627048179616 9.0150774572727741 #
coedge $-1 $215 $214 $264 $291 forward $206 $-1 #
point $-1 28.771739352437166 37.339094327340597 0.84002180378060132 #
vertex $-1 $269 $295 #
straight-curve $-1 0 37.339094327340597 9.0150774572727723 -1 0 0 I I #
vertex $-1 $222 $296 #
point $-1 39.67354096153597 28.942217604292182 0.71703504278862984 #
vertex $-1 $226 $297 #
point $-1 52.276243375184173 28.942217604292182 0.71703504278862984 #
straight-curve $-1 -58.17804498428297 37.339094327340597 0 0 0 -1 I I #
point $-1 -58.17804498428297 -37.339094327340597 -9.0150774572727723 #
straight-curve $-1 -58.17804498428297 0 -9.0150774572727723 0 1 0 I I #
point $-1 -58.17804498428297 37.339094327340597 -9.0150774572727723 #
edge $-1 $285 -9.0150774572727723 $255 9.0150774572727723 $247 $298 forward 7 unknown #
straight-curve $-1 -49.272305488626074 -48.003683070113432 -9.0150774572727723 -1 0 0 I I #
vertex $-1 $261 $299 #
straight-curve $-1 -49.272305488626074 -48.003683070113432 9.0150774572727723 1 0 0 I I #
point $-1 -51.049651656469571 -48.003683070113432 9.0150774572727723 #
point $-1 -51.049651656469571 -48.003683070113432 -9.0150774572727723 #
point $-1 -47.494959320782577 -48.003683070113432 -9.0150774572727723 #
straight-curve $-1 -47.494959320782577 -42.671388698727014 9.0150774572727723 0 1 0 I I #
edge $-1 $273 -9.0150774572727723 $267 -0.84002180378060132 $264 $300 forward 7 unknown #
straight-curve $-1 21.737446084180032 37.33909432734059 0.84002180378060132 -1 0 0 I I #
point $-1 58.178044984282963 37.339094327340597 0.84002180378060132 #
straight-curve $-1 58.17804498428297 0 9.0150774572727723 0 1 0 I I #
point $-1 58.17804498428297 37.339094327340597 9.0150774572727723 #
point $-1 37.17354096153597 27.055443633013809 -0.92311250585034377 #
point $-1 49.776243375184173 27.055443633013809 -0.92311250585034377 #
straight-curve $-1 -47.494959320782577 -48.003683070113432 0 0 0 -1 I I #
point $-1 -47.494959320782577 -48.003683070113432 9.0150774572727723 #
straight-curve $-1 58.17804498428297 37.339094327340597 0 0 0 -1 I I #
End-of-ACIS-data 