500 0 14 0           
7 Unknown 11 ACIS 5.0 NT 24 Fri Mar 26 00:52:22 1999 
-1 9.9999999999999995e-007 1e-010 
body $-1 $14 $-1 $15 #
body $-1 $16 $-1 $17 #
body $-1 $18 $-1 $19 #
body $-1 $20 $-1 $21 #
body $-1 $22 $-1 $23 #
body $-1 $24 $-1 $25 #
body $-1 $26 $-1 $27 #
body $-1 $28 $-1 $29 #
body $-1 $30 $-1 $31 #
body $-1 $32 $-1 $33 #
body $-1 $34 $-1 $35 #
body $-1 $36 $-1 $37 #
body $-1 $38 $-1 $39 #
body $-1 $40 $-1 $41 #
lump $-1 $-1 $42 $0 #
transform $-1 1 0 0 0 1 0 0 0 1 58.03643910031434 27.37349658654891 8.2302606592309697 1 rotate no_reflect no_shear #
lump $-1 $-1 $43 $1 #
transform $-1 1 0 0 0 1 0 0 0 1 58.03643910031434 27.37349658654891 8.2302606592309697 1 rotate no_reflect no_shear #
lump $-1 $-1 $44 $2 #
transform $-1 1 0 0 0 1 0 0 0 1 58.03643910031434 27.37349658654891 8.2302606592309697 1 rotate no_reflect no_shear #
lump $-1 $-1 $45 $3 #
transform $-1 1 0 0 0 1 0 0 0 1 58.03643910031434 27.37349658654891 8.2302606592309697 1 rotate no_reflect no_shear #
lump $-1 $-1 $46 $4 #
transform $-1 1 0 0 0 1 0 0 0 1 58.03643910031434 27.37349658654891 8.2302606592309697 1 rotate no_reflect no_shear #
lump $-1 $-1 $47 $5 #
transform $-1 1 0 0 0 1 0 0 0 1 58.03643910031434 27.37349658654891 8.2302606592309697 1 rotate no_reflect no_shear #
lump $-1 $-1 $48 $6 #
transform $-1 1 0 0 0 1 0 0 0 1 58.03643910031434 27.37349658654891 8.2302606592309697 1 rotate no_reflect no_shear #
lump $-1 $-1 $49 $7 #
transform $-1 1 0 0 0 1 0 0 0 1 58.03643910031434 27.37349658654891 8.2302606592309697 1 rotate no_reflect no_shear #
lump $-1 $-1 $50 $8 #
transform $-1 1 0 0 0 1 0 0 0 1 58.03643910031434 27.37349658654891 8.2302606592309697 1 rotate no_reflect no_shear #
lump $-1 $-1 $51 $9 #
transform $-1 1 0 0 0 1 0 0 0 1 58.03643910031434 27.37349658654891 8.2302606592309697 1 rotate no_reflect no_shear #
lump $-1 $-1 $52 $10 #
transform $-1 1 0 0 0 1 0 0 0 1 58.03643910031434 27.37349658654891 8.2302606592309697 1 rotate no_reflect no_shear #
lump $-1 $-1 $53 $11 #
transform $-1 1 0 0 0 1 0 0 0 1 58.03643910031434 27.37349658654891 8.2302606592309697 1 rotate no_reflect no_shear #
lump $-1 $-1 $54 $12 #
transform $-1 1 0 0 0 1 0 0 0 1 58.03643910031434 27.37349658654891 8.2302606592309697 1 rotate no_reflect no_shear #
lump $-1 $-1 $55 $13 #
transform $-1 1 0 0 0 1 0 0 0 1 58.03643910031434 27.37349658654891 8.2302606592309697 1 rotate no_reflect no_shear #
shell $-1 $-1 $-1 $56 $-1 $14 #
shell $-1 $-1 $-1 $57 $-1 $16 #
shell $-1 $-1 $-1 $58 $-1 $18 #
shell $-1 $-1 $-1 $59 $-1 $20 #
shell $-1 $-1 $-1 $60 $-1 $22 #
shell $-1 $-1 $-1 $61 $-1 $24 #
shell $-1 $-1 $-1 $62 $-1 $26 #
shell $-1 $-1 $-1 $63 $-1 $28 #
shell $-1 $-1 $-1 $64 $-1 $30 #
shell $-1 $-1 $-1 $65 $-1 $32 #
shell $-1 $-1 $-1 $66 $-1 $34 #
shell $-1 $-1 $-1 $67 $-1 $36 #
shell $-1 $-1 $-1 $68 $-1 $38 #
shell $-1 $-1 $-1 $69 $-1 $40 #
face $-1 $70 $71 $42 $-1 $72 forward single #
face $-1 $73 $74 $43 $-1 $75 forward single #
face $-1 $76 $77 $44 $-1 $78 reversed single #
face $-1 $79 $80 $45 $-1 $81 forward single #
face $-1 $82 $83 $46 $-1 $84 forward single #
face $-1 $85 $86 $47 $-1 $87 reversed single #
face $-1 $88 $89 $48 $-1 $90 forward single #
face $-1 $91 $92 $49 $-1 $93 forward single #
face $-1 $94 $95 $50 $-1 $96 reversed single #
face $-1 $97 $98 $51 $-1 $99 forward single #
face $-1 $100 $101 $52 $-1 $102 forward single #
face $-1 $103 $104 $53 $-1 $105 reversed single #
face $-1 $106 $107 $54 $-1 $108 forward single #
face $-1 $109 $110 $55 $-1 $111 forward single #
face $-1 $112 $113 $42 $-1 $114 reversed single #
loop $-1 $-1 $115 $56 #
plane-surface $-1 0 0 8.2302606592309697 0 0 1 1 0 0 forward_v I I I I #
face $-1 $116 $117 $43 $-1 $118 reversed single #
loop $-1 $-1 $119 $57 #
plane-surface $-1 0 -27.37349658654891 0 0 1 0 0 0 1 forward_v I I I I #
face $-1 $120 $121 $44 $-1 $122 reversed single #
loop $-1 $-1 $123 $58 #
plane-surface $-1 -44.352347585464841 76.999568126116259 120.52049577894684 -1 0 0 0 0.74314483375859142 0.66913059716165679 forward_v I I I I #
face $-1 $124 $125 $45 $-1 $126 forward single #
loop $-1 $127 $128 $59 #
cone-surface $-1 -54.126698667500193 23.997947049849039 4.6171579538423764 0 -0.74314483375859142 -0.66913059716165679 1 0 0 1 I I 0 1 1 forward I I I I #
face $-1 $129 $130 $46 $-1 $131 forward single #
loop $-1 $132 $133 $60 #
cone-surface $-1 -48.26208801827898 23.997947049849039 4.6171579538423764 0 -0.74314483375859142 -0.66913059716165679 1 0 0 1 I I 0 1 1 forward I I I I #
face $-1 $134 $135 $47 $-1 $136 reversed single #
loop $-1 $-1 $137 $61 #
plane-surface $-1 -15.334128035307671 76.999568126116259 120.52049577894684 -1 0 0 0 0.74314483375859142 0.66913059716165679 forward_v I I I I #
face $-1 $138 $139 $48 $-1 $140 forward single #
loop $-1 $141 $142 $62 #
cone-surface $-1 -25.108479117343023 23.997947049849039 4.6171579538423764 0 -0.74314483375859142 -0.66913059716165679 1 0 0 1 I I 0 1 1 forward I I I I #
face $-1 $143 $144 $49 $-1 $145 forward single #
loop $-1 $146 $147 $63 #
cone-surface $-1 -19.243868468121811 23.997947049849039 4.6171579538423764 0 -0.74314483375859142 -0.66913059716165679 1 0 0 1 I I 0 1 1 forward I I I I #
face $-1 $148 $149 $50 $-1 $150 reversed single #
loop $-1 $-1 $151 $64 #
plane-surface $-1 13.684091514849506 76.999568126116259 120.52049577894684 -1 0 0 0 0.74314483375859142 0.66913059716165679 forward_v I I I I #
face $-1 $152 $153 $51 $-1 $154 forward single #
loop $-1 $155 $156 $65 #
cone-surface $-1 3.9097404328141465 23.997947049849039 4.6171579538423764 0 -0.74314483375859142 -0.66913059716165679 1 0 0 1 I I 0 1 1 forward I I I I #
face $-1 $157 $158 $52 $-1 $159 forward single #
loop $-1 $160 $161 $66 #
cone-surface $-1 9.7743510820353663 23.997947049849039 4.6171579538423764 0 -0.74314483375859142 -0.66913059716165679 1 0 0 1 I I 0 1 1 forward I I I I #
face $-1 $162 $163 $53 $-1 $164 reversed single #
loop $-1 $-1 $165 $67 #
plane-surface $-1 42.702311065006676 76.999568126116259 120.52049577894684 -1 0 0 0 0.74314483375859142 0.66913059716165679 forward_v I I I I #
face $-1 $166 $167 $54 $-1 $168 forward single #
loop $-1 $169 $170 $68 #
cone-surface $-1 32.927959982971316 23.997947049849039 4.6171579538423764 0 -0.74314483375859142 -0.66913059716165679 1 0 0 1 I I 0 1 1 forward I I I I #
face $-1 $171 $172 $55 $-1 $173 forward single #
loop $-1 $174 $175 $69 #
cone-surface $-1 38.792570632192536 23.997947049849039 4.6171579538423764 0 -0.74314483375859142 -0.66913059716165679 1 0 0 1 I I 0 1 1 forward I I I I #
face $-1 $176 $177 $42 $-1 $178 reversed single #
loop $-1 $-1 $179 $70 #
plane-surface $-1 0 0 -8.2302606592309697 0 0 1 1 0 0 forward_v I I I I #
coedge $-1 $180 $181 $182 $183 forward $71 $-1 #
face $-1 $184 $185 $43 $-1 $186 forward single #
loop $-1 $-1 $187 $73 #
plane-surface $-1 -58.03643910031434 0 0 1 0 0 0 0 -1 forward_v I I I I #
coedge $-1 $188 $189 $190 $191 forward $74 $-1 #
face $-1 $192 $193 $44 $-1 $194 forward single #
loop $-1 $-1 $195 $76 #
plane-surface $-1 -51.19439334288959 -9.2593916481711744 42.852581474287916 0 0.74314483375859142 0.66913059716165679 1 0 0 forward_v I I I I #
coedge $-1 $196 $197 $198 $199 reversed $77 $-1 #
face $-1 $-1 $200 $45 $-1 $201 forward single #
loop $-1 $202 $203 $79 #
cone-surface $-1 -54.126698667500193 22.980230759139907 3.7008021125467554 0 -0.74314483375859142 -0.66913059716165679 0.5 0 0 1 I I -0.70710678118654746 0.70710678118654746 0.5 forward I I I I #
loop $-1 $-1 $204 $59 #
coedge $-1 $128 $128 $205 $206 reversed $80 $-1 #
face $-1 $-1 $207 $46 $-1 $208 forward single #
loop $-1 $209 $210 $82 #
cone-surface $-1 -48.26208801827898 22.980230759139907 3.7008021125467554 0 -0.74314483375859142 -0.66913059716165679 0.5 0 0 1 I I -0.70710678118654746 0.70710678118654746 0.5 forward I I I I #
loop $-1 $-1 $211 $60 #
coedge $-1 $133 $133 $212 $213 reversed $83 $-1 #
face $-1 $214 $215 $47 $-1 $216 reversed single #
loop $-1 $-1 $217 $85 #
plane-surface $-1 -22.176173792732421 -9.2593916481711744 42.852581474287916 0 0.74314483375859142 0.66913059716165679 1 0 0 forward_v I I I I #
coedge $-1 $218 $219 $220 $221 reversed $86 $-1 #
face $-1 $-1 $222 $48 $-1 $223 forward single #
loop $-1 $224 $225 $88 #
cone-surface $-1 -25.108479117343023 22.980230759139907 3.7008021125467554 0 -0.74314483375859142 -0.66913059716165679 0.5 0 0 1 I I -0.70710678118654746 0.70710678118654746 0.5 forward I I I I #
loop $-1 $-1 $226 $62 #
coedge $-1 $142 $142 $227 $228 reversed $89 $-1 #
face $-1 $-1 $229 $49 $-1 $230 forward single #
loop $-1 $231 $232 $91 #
cone-surface $-1 -19.243868468121811 22.980230759139907 3.7008021125467554 0 -0.74314483375859142 -0.66913059716165679 0.5 0 0 1 I I -0.70710678118654746 0.70710678118654746 0.5 forward I I I I #
loop $-1 $-1 $233 $63 #
coedge $-1 $147 $147 $234 $235 reversed $92 $-1 #
face $-1 $236 $237 $50 $-1 $238 reversed single #
loop $-1 $-1 $239 $94 #
plane-surface $-1 6.8420457574247564 -9.2593916481711744 42.852581474287916 0 0.74314483375859142 0.66913059716165679 1 0 0 forward_v I I I I #
coedge $-1 $240 $241 $242 $243 reversed $95 $-1 #
face $-1 $-1 $244 $51 $-1 $245 forward single #
loop $-1 $246 $247 $97 #
cone-surface $-1 3.9097404328141465 22.980230759139907 3.7008021125467554 0 -0.74314483375859142 -0.66913059716165679 0.5 0 0 1 I I -0.70710678118654746 0.70710678118654746 0.5 forward I I I I #
loop $-1 $-1 $248 $65 #
coedge $-1 $156 $156 $249 $250 reversed $98 $-1 #
face $-1 $-1 $251 $52 $-1 $252 forward single #
loop $-1 $253 $254 $100 #
cone-surface $-1 9.7743510820353663 22.980230759139907 3.7008021125467554 0 -0.74314483375859142 -0.66913059716165679 0.5 0 0 1 I I -0.70710678118654746 0.70710678118654746 0.5 forward I I I I #
loop $-1 $-1 $255 $66 #
coedge $-1 $161 $161 $256 $257 reversed $101 $-1 #
face $-1 $258 $259 $53 $-1 $260 reversed single #
loop $-1 $-1 $261 $103 #
plane-surface $-1 35.860265307581926 -9.2593916481711744 42.852581474287916 0 0.74314483375859142 0.66913059716165679 1 0 0 forward_v I I I I #
coedge $-1 $262 $263 $264 $265 reversed $104 $-1 #
face $-1 $-1 $266 $54 $-1 $267 forward single #
loop $-1 $268 $269 $106 #
cone-surface $-1 32.927959982971316 22.980230759139907 3.7008021125467554 0 -0.74314483375859142 -0.66913059716165679 0.5 0 0 1 I I -0.70710678118654746 0.70710678118654746 0.5 forward I I I I #
loop $-1 $-1 $270 $68 #
coedge $-1 $170 $170 $271 $272 reversed $107 $-1 #
face $-1 $-1 $273 $55 $-1 $274 forward single #
loop $-1 $275 $276 $109 #
cone-surface $-1 38.792570632192536 22.980230759139907 3.7008021125467554 0 -0.74314483375859142 -0.66913059716165679 0.5 0 0 1 I I -0.70710678118654746 0.70710678118654746 0.5 forward I I I I #
loop $-1 $-1 $277 $69 #
coedge $-1 $175 $175 $278 $279 reversed $110 $-1 #
face $-1 $280 $281 $42 $-1 $282 reversed single #
loop $-1 $-1 $283 $112 #
plane-surface $-1 0 -27.37349658654891 0 0 1 0 0 0 1 forward_v I I I I #
coedge $-1 $284 $285 $286 $287 forward $113 $-1 #
coedge $-1 $288 $115 $289 $290 forward $71 $-1 #
coedge $-1 $115 $288 $291 $292 forward $71 $-1 #
coedge $-1 $293 $294 $115 $183 reversed $295 $-1 #
edge $-1 $296 -27.37349658654891 $297 27.37349658654891 $182 $298 forward 7 unknown #
face $-1 $299 $300 $43 $-1 $301 reversed single #
loop $-1 $-1 $302 $116 #
plane-surface $-1 0 -30.583991487443644 -0.35047362786282221 0 0 1 1 0 0 forward_v I I I I #
coedge $-1 $303 $304 $189 $305 forward $117 $-1 #
coedge $-1 $306 $119 $307 $308 reversed $74 $-1 #
coedge $-1 $119 $306 $187 $305 reversed $74 $-1 #
coedge $-1 $309 $302 $119 $191 reversed $185 $-1 #
edge $-1 $310 -58.03643910031434 $311 58.03643910031434 $190 $312 forward 7 unknown #
face $-1 $313 $314 $44 $-1 $315 reversed single #
loop $-1 $-1 $316 $120 #
plane-surface $-1 0 0 8.2302606592309697 0 0 1 1 0 0 forward_v I I I I #
coedge $-1 $317 $318 $319 $320 reversed $121 $-1 #
coedge $-1 $197 $123 $321 $322 reversed $77 $-1 #
coedge $-1 $123 $196 $317 $323 reversed $77 $-1 #
coedge $-1 $319 $324 $123 $199 forward $314 $-1 #
edge $-1 $325 52.029987230242448 $326 58.092611555590011 $198 $327 forward 7 unknown #
loop $-1 $-1 $205 $124 #
plane-surface $-1 -51.19439334288959 -9.2593916481711744 42.852581474287916 0 0.74314483375859142 0.66913059716165679 1 0 0 forward_v I I I I #
loop $-1 $-1 $328 $79 #
coedge $-1 $203 $203 $204 $329 reversed $125 $-1 #
coedge $-1 $204 $204 $203 $329 forward $127 $-1 #
coedge $-1 $205 $205 $128 $206 forward $200 $-1 #
edge $-1 $330 2.1089445804637554e-015 $330 6.2831853071796022 $205 $331 forward 7 unknown #
loop $-1 $-1 $212 $129 #
plane-surface $-1 -51.19439334288959 -9.2593916481711744 42.852581474287916 0 0.74314483375859142 0.66913059716165679 1 0 0 forward_v I I I I #
loop $-1 $-1 $332 $82 #
coedge $-1 $210 $210 $211 $333 reversed $130 $-1 #
coedge $-1 $211 $211 $210 $333 forward $132 $-1 #
coedge $-1 $212 $212 $133 $213 forward $207 $-1 #
edge $-1 $334 2.1089445804637554e-015 $334 6.2831853071796022 $212 $335 forward 7 unknown #
face $-1 $336 $337 $47 $-1 $338 forward single #
loop $-1 $-1 $339 $134 #
plane-surface $-1 -29.01821955015717 76.999568126116259 120.52049577894684 1 0 0 0 -0.74314483375859142 -0.66913059716165679 forward_v I I I I #
coedge $-1 $340 $341 $342 $343 reversed $135 $-1 #
coedge $-1 $219 $137 $344 $345 reversed $86 $-1 #
coedge $-1 $137 $218 $340 $346 reversed $86 $-1 #
coedge $-1 $342 $347 $137 $221 forward $348 $-1 #
edge $-1 $349 52.029987230242448 $350 58.092611555590011 $220 $351 forward 7 unknown #
loop $-1 $-1 $227 $138 #
plane-surface $-1 -22.176173792732421 -9.2593916481711744 42.852581474287916 0 0.74314483375859142 0.66913059716165679 1 0 0 forward_v I I I I #
loop $-1 $-1 $352 $88 #
coedge $-1 $225 $225 $226 $353 reversed $139 $-1 #
coedge $-1 $226 $226 $225 $353 forward $141 $-1 #
coedge $-1 $227 $227 $142 $228 forward $222 $-1 #
edge $-1 $354 2.1089445804637554e-015 $354 6.2831853071796022 $227 $355 forward 7 unknown #
loop $-1 $-1 $234 $143 #
plane-surface $-1 -22.176173792732421 -9.2593916481711744 42.852581474287916 0 0.74314483375859142 0.66913059716165679 1 0 0 forward_v I I I I #
loop $-1 $-1 $356 $91 #
coedge $-1 $232 $232 $233 $357 reversed $144 $-1 #
coedge $-1 $233 $233 $232 $357 forward $146 $-1 #
coedge $-1 $234 $234 $147 $235 forward $229 $-1 #
edge $-1 $358 2.1089445804637554e-015 $358 6.2831853071796022 $234 $359 forward 7 unknown #
face $-1 $360 $361 $50 $-1 $362 forward single #
loop $-1 $-1 $363 $148 #
plane-surface $-1 6.2172489379008766e-015 76.999568126116259 120.52049577894684 1 0 0 0 -0.74314483375859142 -0.66913059716165679 forward_v I I I I #
coedge $-1 $364 $365 $366 $367 reversed $149 $-1 #
coedge $-1 $241 $151 $368 $369 reversed $95 $-1 #
coedge $-1 $151 $240 $364 $370 reversed $95 $-1 #
coedge $-1 $366 $371 $151 $243 forward $372 $-1 #
edge $-1 $373 52.029987230242448 $374 58.092611555590011 $242 $375 forward 7 unknown #
loop $-1 $-1 $249 $152 #
plane-surface $-1 6.8420457574247564 -9.2593916481711744 42.852581474287916 0 0.74314483375859142 0.66913059716165679 1 0 0 forward_v I I I I #
loop $-1 $-1 $376 $97 #
coedge $-1 $247 $247 $248 $377 reversed $153 $-1 #
coedge $-1 $248 $248 $247 $377 forward $155 $-1 #
coedge $-1 $249 $249 $156 $250 forward $244 $-1 #
edge $-1 $378 2.1089445804637554e-015 $378 6.2831853071796022 $249 $379 forward 7 unknown #
loop $-1 $-1 $256 $157 #
plane-surface $-1 6.8420457574247564 -9.2593916481711744 42.852581474287916 0 0.74314483375859142 0.66913059716165679 1 0 0 forward_v I I I I #
loop $-1 $-1 $380 $100 #
coedge $-1 $254 $254 $255 $381 reversed $158 $-1 #
coedge $-1 $255 $255 $254 $381 forward $160 $-1 #
coedge $-1 $256 $256 $161 $257 forward $251 $-1 #
edge $-1 $382 2.1089445804637554e-015 $382 6.2831853071796022 $256 $383 forward 7 unknown #
face $-1 $384 $385 $53 $-1 $386 forward single #
loop $-1 $-1 $387 $162 #
plane-surface $-1 29.018219550157177 76.999568126116259 120.52049577894684 1 0 0 0 -0.74314483375859142 -0.66913059716165679 forward_v I I I I #
coedge $-1 $388 $389 $390 $391 reversed $163 $-1 #
coedge $-1 $263 $165 $392 $393 reversed $104 $-1 #
coedge $-1 $165 $262 $388 $394 reversed $104 $-1 #
coedge $-1 $390 $395 $165 $265 forward $396 $-1 #
edge $-1 $397 52.029987230242448 $398 58.092611555590011 $264 $399 forward 7 unknown #
loop $-1 $-1 $271 $166 #
plane-surface $-1 35.860265307581926 -9.2593916481711744 42.852581474287916 0 0.74314483375859142 0.66913059716165679 1 0 0 forward_v I I I I #
loop $-1 $-1 $400 $106 #
coedge $-1 $269 $269 $270 $401 reversed $167 $-1 #
coedge $-1 $270 $270 $269 $401 forward $169 $-1 #
coedge $-1 $271 $271 $170 $272 forward $266 $-1 #
edge $-1 $402 2.1089445804637554e-015 $402 6.2831853071796022 $271 $403 forward 7 unknown #
loop $-1 $-1 $278 $171 #
plane-surface $-1 35.860265307581926 -9.2593916481711744 42.852581474287916 0 0.74314483375859142 0.66913059716165679 1 0 0 forward_v I I I I #
loop $-1 $-1 $404 $109 #
coedge $-1 $276 $276 $277 $405 reversed $172 $-1 #
coedge $-1 $277 $277 $276 $405 forward $174 $-1 #
coedge $-1 $278 $278 $175 $279 forward $273 $-1 #
edge $-1 $406 2.1089445804637554e-015 $406 6.2831853071796022 $278 $407 forward 7 unknown #
face $-1 $408 $409 $42 $-1 $410 reversed single #
loop $-1 $-1 $411 $176 #
plane-surface $-1 -58.03643910031434 0 0 1 0 0 0 0 -1 forward_v I I I I #
coedge $-1 $412 $291 $413 $414 forward $177 $-1 #
coedge $-1 $415 $179 $412 $416 forward $113 $-1 #
coedge $-1 $179 $415 $417 $418 forward $113 $-1 #
coedge $-1 $294 $293 $179 $287 reversed $295 $-1 #
edge $-1 $419 -27.37349658654891 $420 27.37349658654891 $286 $421 forward 7 unknown #
coedge $-1 $181 $180 $422 $423 forward $71 $-1 #
coedge $-1 $424 $425 $180 $290 reversed $409 $-1 #
edge $-1 $297 -58.03643910031434 $426 58.03643910031434 $289 $427 forward 7 unknown #
coedge $-1 $283 $428 $181 $292 reversed $177 $-1 #
edge $-1 $429 -58.03643910031434 $296 58.03643910031434 $291 $430 forward 7 unknown #
coedge $-1 $286 $182 $428 $431 forward $295 $-1 #
coedge $-1 $182 $286 $424 $432 reversed $295 $-1 #
loop $-1 $-1 $293 $408 #
vertex $-1 $183 $433 #
vertex $-1 $183 $434 #
straight-curve $-1 58.03643910031434 0 8.2302606592309697 0 1 0 I I #
face $-1 $435 $436 $43 $-1 $437 reversed single #
loop $-1 $-1 $438 $184 #
plane-surface $-1 0 -30.583991487443644 -5.0107296848481901 0 0 1 1 0 0 forward_v I I I I #
coedge $-1 $190 $439 $440 $441 forward $185 $-1 #
coedge $-1 $442 $187 $443 $444 reversed $117 $-1 #
coedge $-1 $187 $442 $309 $445 reversed $117 $-1 #
edge $-1 $310 0.35047362786282221 $446 5.0107296848481901 $187 $447 forward 7 unknown #
coedge $-1 $189 $188 $448 $449 forward $74 $-1 #
coedge $-1 $440 $450 $188 $308 forward $451 $-1 #
edge $-1 $452 -5.0107296848481901 $311 -0.35047362786282221 $307 $453 forward 7 unknown #
coedge $-1 $439 $190 $304 $445 forward $185 $-1 #
vertex $-1 $305 $454 #
vertex $-1 $441 $455 #
straight-curve $-1 0 -27.37349658654891 -0.35047362786282221 1 0 0 I I #
face $-1 $-1 $456 $44 $-1 $457 reversed single #
loop $-1 $-1 $198 $192 #
plane-surface $-1 0 27.37349658654891 0 0 -1 0 0 0 -1 forward_v I I I I #
coedge $-1 $321 $458 $459 $460 forward $193 $-1 #
coedge $-1 $459 $195 $197 $323 forward $121 $-1 #
coedge $-1 $195 $459 $461 $462 reversed $121 $-1 #
coedge $-1 $463 $198 $195 $320 forward $314 $-1 #
edge $-1 $326 18.755150914020046 $464 32.439242428869548 $319 $465 forward 7 unknown #
coedge $-1 $466 $316 $196 $322 forward $193 $-1 #
edge $-1 $467 -16.58509880224927 $325 -11.126287476509219 $321 $468 forward 7 unknown #
edge $-1 $326 -54.746993173097799 $467 -46.588927544511336 $197 $469 forward 7 unknown #
coedge $-1 $198 $463 $466 $470 reversed $314 $-1 #
vertex $-1 $470 $471 #
vertex $-1 $199 $472 #
straight-curve $-1 -44.352347585464841 27.37349658654891 60.260247889473419 0 0 -1 I I #
coedge $-1 $328 $328 $-1 $473 reversed $202 $-1 #
edge $-1 $474 0 $474 6.2831853071796004 $203 $475 forward 7 unknown #
vertex $-1 $206 $476 #
ellipse-curve $-1 -54.126698667500193 24.644090923678888 5.1989484965571808 0 0.74314483375859142 0.66913059716165679 1 0 0 1 I I #
coedge $-1 $332 $332 $-1 $477 reversed $209 $-1 #
edge $-1 $478 0 $478 6.2831853071796004 $210 $479 forward 7 unknown #
vertex $-1 $213 $480 #
ellipse-curve $-1 -48.26208801827898 24.644090923678888 5.1989484965571808 0 0.74314483375859142 0.66913059716165679 1 0 0 1 I I #
face $-1 $-1 $348 $47 $-1 $481 reversed single #
loop $-1 $-1 $482 $214 #
plane-surface $-1 0 0 8.2302606592309697 0 0 1 1 0 0 forward_v I I I I #
coedge $-1 $483 $484 $485 $486 reversed $215 $-1 #
coedge $-1 $487 $217 $219 $346 forward $135 $-1 #
coedge $-1 $217 $487 $483 $488 forward $135 $-1 #
coedge $-1 $485 $220 $217 $343 forward $348 $-1 #
edge $-1 $350 4.246041138941461 $489 17.93013265379096 $342 $490 forward 7 unknown #
coedge $-1 $491 $492 $218 $345 forward $337 $-1 #
edge $-1 $493 -16.58509880224927 $349 -11.126287476509219 $344 $494 forward 7 unknown #
edge $-1 $350 -54.746993173097799 $493 -46.588927544511336 $219 $495 forward 7 unknown #
coedge $-1 $220 $485 $491 $496 reversed $348 $-1 #
loop $-1 $-1 $485 $336 #
vertex $-1 $496 $497 #
vertex $-1 $221 $498 #
straight-curve $-1 -15.334128035307671 27.37349658654891 60.260247889473419 0 0 -1 I I #
coedge $-1 $352 $352 $-1 $499 reversed $224 $-1 #
edge $-1 $500 0 $500 6.2831853071796004 $225 $501 forward 7 unknown #
vertex $-1 $228 $502 #
ellipse-curve $-1 -25.108479117343023 24.644090923678888 5.1989484965571808 0 0.74314483375859142 0.66913059716165679 1 0 0 1 I I #
coedge $-1 $356 $356 $-1 $503 reversed $231 $-1 #
edge $-1 $504 0 $504 6.2831853071796004 $232 $505 forward 7 unknown #
vertex $-1 $235 $506 #
ellipse-curve $-1 -19.243868468121811 24.644090923678888 5.1989484965571808 0 0.74314483375859142 0.66913059716165679 1 0 0 1 I I #
face $-1 $-1 $372 $50 $-1 $507 reversed single #
loop $-1 $-1 $508 $236 #
plane-surface $-1 0 0 8.2302606592309697 0 0 1 1 0 0 forward_v I I I I #
coedge $-1 $509 $510 $511 $512 reversed $237 $-1 #
coedge $-1 $513 $239 $241 $370 forward $149 $-1 #
coedge $-1 $239 $513 $509 $514 forward $149 $-1 #
coedge $-1 $511 $242 $239 $367 forward $372 $-1 #
edge $-1 $374 -10.263068636137127 $515 3.421022878712372 $366 $516 forward 7 unknown #
coedge $-1 $517 $518 $240 $369 forward $361 $-1 #
edge $-1 $519 -16.58509880224927 $373 -11.126287476509219 $368 $520 forward 7 unknown #
edge $-1 $374 -54.746993173097799 $519 -46.588927544511336 $241 $521 forward 7 unknown #
coedge $-1 $242 $511 $517 $522 reversed $372 $-1 #
loop $-1 $-1 $511 $360 #
vertex $-1 $522 $523 #
vertex $-1 $243 $524 #
straight-curve $-1 13.684091514849506 27.37349658654891 60.260247889473419 0 0 -1 I I #
coedge $-1 $376 $376 $-1 $525 reversed $246 $-1 #
edge $-1 $526 0 $526 6.2831853071796004 $247 $527 forward 7 unknown #
vertex $-1 $250 $528 #
ellipse-curve $-1 3.9097404328141465 24.644090923678888 5.1989484965571808 0 0.74314483375859142 0.66913059716165679 1 0 0 1 I I #
coedge $-1 $380 $380 $-1 $529 reversed $253 $-1 #
edge $-1 $530 0 $530 6.2831853071796004 $254 $531 forward 7 unknown #
vertex $-1 $257 $532 #
ellipse-curve $-1 9.7743510820353663 24.644090923678888 5.1989484965571808 0 0.74314483375859142 0.66913059716165679 1 0 0 1 I I #
face $-1 $-1 $396 $53 $-1 $533 reversed single #
loop $-1 $-1 $534 $258 #
plane-surface $-1 0 0 8.2302606592309697 0 0 1 1 0 0 forward_v I I I I #
coedge $-1 $535 $536 $537 $538 reversed $259 $-1 #
coedge $-1 $539 $261 $263 $394 forward $163 $-1 #
coedge $-1 $261 $539 $535 $540 forward $163 $-1 #
coedge $-1 $537 $264 $261 $391 forward $396 $-1 #
edge $-1 $398 -24.772178411215712 $541 -11.088086896366214 $390 $542 forward 7 unknown #
coedge $-1 $543 $544 $262 $393 forward $385 $-1 #
edge $-1 $545 -16.58509880224927 $397 -11.126287476509219 $392 $546 forward 7 unknown #
edge $-1 $398 -54.746993173097799 $545 -46.588927544511336 $263 $547 forward 7 unknown #
coedge $-1 $264 $537 $543 $548 reversed $396 $-1 #
loop $-1 $-1 $537 $384 #
vertex $-1 $548 $549 #
vertex $-1 $265 $550 #
straight-curve $-1 42.702311065006676 27.37349658654891 60.260247889473419 0 0 -1 I I #
coedge $-1 $400 $400 $-1 $551 reversed $268 $-1 #
edge $-1 $552 0 $552 6.2831853071796004 $269 $553 forward 7 unknown #
vertex $-1 $272 $554 #
ellipse-curve $-1 32.927959982971316 24.644090923678888 5.1989484965571808 0 0.74314483375859142 0.66913059716165679 1 0 0 1 I I #
coedge $-1 $404 $404 $-1 $555 reversed $275 $-1 #
edge $-1 $556 0 $556 6.2831853071796004 $276 $557 forward 7 unknown #
vertex $-1 $279 $558 #
ellipse-curve $-1 38.792570632192536 24.644090923678888 5.1989484965571808 0 0.74314483375859142 0.66913059716165679 1 0 0 1 I I #
face $-1 $-1 $295 $42 $-1 $559 reversed single #
loop $-1 $-1 $424 $280 #
plane-surface $-1 0 27.37349658654891 0 0 -1 0 0 0 -1 forward_v I I I I #
coedge $-1 $560 $422 $425 $561 forward $281 $-1 #
coedge $-1 $428 $283 $284 $416 reversed $177 $-1 #
coedge $-1 $422 $560 $283 $414 reversed $281 $-1 #
edge $-1 $429 -8.2302606592309697 $562 8.2302606592309697 $413 $563 forward 7 unknown #
coedge $-1 $285 $284 $560 $564 forward $113 $-1 #
edge $-1 $420 -58.03643910031434 $562 58.03643910031434 $412 $565 forward 7 unknown #
coedge $-1 $425 $424 $285 $418 reversed $409 $-1 #
edge $-1 $566 -58.03643910031434 $419 58.03643910031434 $417 $567 forward 7 unknown #
vertex $-1 $287 $568 #
vertex $-1 $431 $569 #
straight-curve $-1 58.03643910031434 0 -8.2302606592309697 0 -1 0 I I #
coedge $-1 $411 $413 $288 $423 reversed $281 $-1 #
edge $-1 $426 -27.37349658654891 $429 27.37349658654891 $422 $570 forward 7 unknown #
coedge $-1 $417 $289 $294 $432 forward $409 $-1 #
coedge $-1 $289 $417 $411 $561 reversed $409 $-1 #
vertex $-1 $290 $571 #
straight-curve $-1 0 27.37349658654891 8.2302606592309697 -1 0 0 I I #
coedge $-1 $291 $412 $293 $431 reversed $177 $-1 #
vertex $-1 $423 $572 #
straight-curve $-1 0 -27.37349658654891 8.2302606592309697 1 0 0 I I #
edge $-1 $296 -8.2302606592309697 $420 8.2302606592309697 $293 $573 forward 7 unknown #
edge $-1 $297 -8.2302606592309697 $419 8.2302606592309697 $294 $574 forward 7 unknown #
point $-1 58.03643910031434 -27.37349658654891 8.2302606592309697 #
point $-1 58.03643910031434 27.37349658654891 8.2302606592309697 #
face $-1 $-1 $451 $43 $-1 $575 reversed single #
loop $-1 $-1 $576 $299 #
plane-surface $-1 0 -33.794486388338377 -2.6806016563555062 0 1 0 0 0 1 forward_v I I I I #
coedge $-1 $577 $448 $450 $578 forward $300 $-1 #
coedge $-1 $302 $309 $579 $580 forward $185 $-1 #
coedge $-1 $581 $307 $302 $441 reversed $451 $-1 #
edge $-1 $582 -3.2104949008947337 $311 3.2104949008947337 $440 $583 forward 7 unknown #
coedge $-1 $304 $303 $576 $584 reversed $117 $-1 #
coedge $-1 $448 $577 $303 $444 forward $300 $-1 #
edge $-1 $585 -3.2104949008947337 $446 3.2104949008947337 $303 $586 forward 7 unknown #
edge $-1 $310 -3.2104949008947337 $587 3.2104949008947337 $304 $588 forward 7 unknown #
vertex $-1 $305 $589 #
straight-curve $-1 -58.03643910031434 -27.37349658654891 0 0 0 -1 I I #
coedge $-1 $438 $443 $306 $449 reversed $300 $-1 #
edge $-1 $452 -58.03643910031434 $446 58.03643910031434 $448 $590 forward 7 unknown #
coedge $-1 $307 $581 $438 $578 reversed $451 $-1 #
loop $-1 $-1 $307 $435 #
vertex $-1 $308 $591 #
straight-curve $-1 58.03643910031434 -27.37349658654891 0 0 0 1 I I #
point $-1 -58.03643910031434 -27.37349658654891 -0.35047362786282221 #
point $-1 58.03643910031434 -27.37349658654891 -0.35047362786282221 #
loop $-1 $-1 $461 $313 #
plane-surface $-1 -58.03643910031434 0 0 1 0 0 0 0 -1 forward_v I I I I #
coedge $-1 $316 $466 $592 $593 forward $193 $-1 #
coedge $-1 $318 $317 $316 $460 reversed $121 $-1 #
edge $-1 $594 -32.439242428869548 $467 -18.755150914020046 $316 $595 forward 7 unknown #
coedge $-1 $592 $596 $318 $462 forward $456 $-1 #
edge $-1 $464 -35.726284773732488 $594 -27.568219145146024 $461 $597 forward 7 unknown #
coedge $-1 $324 $319 $596 $598 reversed $314 $-1 #
vertex $-1 $320 $599 #
straight-curve $-1 -25.597196671444795 27.37349658654891 2.1676363338834079 -1 0 0 I I #
coedge $-1 $458 $321 $324 $470 forward $193 $-1 #
vertex $-1 $322 $600 #
straight-curve $-1 -44.352347585464841 38.499784063058129 8.2302606592309715 0 1 0 I I #
straight-curve $-1 -44.352347585464841 -9.2593916481711744 42.852581474287916 0 -0.66913059716165679 0.74314483375859142 I I #
edge $-1 $325 44.352347585464841 $601 58.03643910031434 $324 $602 forward 7 unknown #
point $-1 -44.352347585464841 27.37349658654891 8.2302606592309697 #
point $-1 -44.352347585464841 27.37349658654891 2.1676363338834079 #
edge $-1 $603 1 $603 0 $328 $-1 forward 7 unknown #
vertex $-1 $329 $604 #
ellipse-curve $-1 -54.126698667500193 23.351803176019203 4.0353674111275835 0 0.74314483375859142 0.66913059716165679 1 0 0 1 I I #
point $-1 -53.126698667500193 24.644090923678878 5.1989484965571684 #
edge $-1 $605 1 $605 0 $332 $-1 forward 7 unknown #
vertex $-1 $333 $606 #
ellipse-curve $-1 -48.26208801827898 23.351803176019203 4.0353674111275835 0 0.74314483375859142 0.66913059716165679 1 0 0 1 I I #
point $-1 -47.26208801827898 24.644090923678878 5.1989484965571684 #
plane-surface $-1 0 27.37349658654891 0 0 -1 0 0 0 -1 forward_v I I I I #
coedge $-1 $492 $491 $484 $607 forward $337 $-1 #
coedge $-1 $484 $339 $341 $488 reversed $215 $-1 #
coedge $-1 $339 $483 $482 $607 reversed $215 $-1 #
coedge $-1 $347 $342 $339 $486 forward $348 $-1 #
edge $-1 $489 -58.092611555590011 $608 -52.029987230242448 $485 $609 forward 7 unknown #
coedge $-1 $341 $340 $492 $610 reversed $135 $-1 #
edge $-1 $611 46.588927544511336 $489 54.746993173097799 $483 $612 forward 7 unknown #
vertex $-1 $343 $613 #
straight-curve $-1 -11.08808689636621 27.37349658654891 2.1676363338834079 -1 0 0 I I #
coedge $-1 $482 $344 $347 $496 forward $337 $-1 #
coedge $-1 $344 $482 $487 $610 forward $337 $-1 #
vertex $-1 $345 $614 #
straight-curve $-1 -15.334128035307671 38.499784063058129 8.2302606592309715 0 1 0 I I #
straight-curve $-1 -15.334128035307671 -9.2593916481711744 42.852581474287916 0 -0.66913059716165679 0.74314483375859142 I I #
edge $-1 $349 15.334128035307671 $608 29.01821955015717 $347 $615 forward 7 unknown #
point $-1 -15.334128035307671 27.37349658654891 8.2302606592309697 #
point $-1 -15.334128035307671 27.37349658654891 2.1676363338834079 #
edge $-1 $616 1 $616 0 $352 $-1 forward 7 unknown #
vertex $-1 $353 $617 #
ellipse-curve $-1 -25.108479117343023 23.351803176019203 4.0353674111275835 0 0.74314483375859142 0.66913059716165679 1 0 0 1 I I #
point $-1 -24.108479117343023 24.644090923678878 5.1989484965571684 #
edge $-1 $618 1 $618 0 $356 $-1 forward 7 unknown #
vertex $-1 $357 $619 #
ellipse-curve $-1 -19.243868468121811 23.351803176019203 4.0353674111275835 0 0.74314483375859142 0.66913059716165679 1 0 0 1 I I #
point $-1 -18.243868468121811 24.644090923678878 5.1989484965571684 #
plane-surface $-1 0 27.37349658654891 0 0 -1 0 0 0 -1 forward_v I I I I #
coedge $-1 $518 $517 $510 $620 forward $361 $-1 #
coedge $-1 $510 $363 $365 $514 reversed $237 $-1 #
coedge $-1 $363 $509 $508 $620 reversed $237 $-1 #
coedge $-1 $371 $366 $363 $512 forward $372 $-1 #
edge $-1 $515 -58.092611555590011 $621 -52.029987230242448 $511 $622 forward 7 unknown #
coedge $-1 $365 $364 $518 $623 reversed $149 $-1 #
edge $-1 $624 46.588927544511336 $515 54.746993173097799 $509 $625 forward 7 unknown #
vertex $-1 $367 $626 #
straight-curve $-1 3.4210228787123782 27.37349658654891 2.1676363338834079 -1 0 0 I I #
coedge $-1 $508 $368 $371 $522 forward $361 $-1 #
coedge $-1 $368 $508 $513 $623 forward $361 $-1 #
vertex $-1 $369 $627 #
straight-curve $-1 13.684091514849506 38.499784063058129 8.2302606592309715 0 1 0 I I #
straight-curve $-1 13.684091514849506 -9.2593916481711744 42.852581474287916 0 -0.66913059716165679 0.74314483375859142 I I #
edge $-1 $373 -13.684091514849506 $621 -6.2172489379008766e-015 $371 $628 forward 7 unknown #
point $-1 13.684091514849506 27.37349658654891 8.2302606592309697 #
point $-1 13.684091514849506 27.37349658654891 2.1676363338834079 #
edge $-1 $629 1 $629 0 $376 $-1 forward 7 unknown #
vertex $-1 $377 $630 #
ellipse-curve $-1 3.9097404328141465 23.351803176019203 4.0353674111275835 0 0.74314483375859142 0.66913059716165679 1 0 0 1 I I #
point $-1 4.9097404328141465 24.644090923678878 5.1989484965571684 #
edge $-1 $631 1 $631 0 $380 $-1 forward 7 unknown #
vertex $-1 $381 $632 #
ellipse-curve $-1 9.7743510820353663 23.351803176019203 4.0353674111275835 0 0.74314483375859142 0.66913059716165679 1 0 0 1 I I #
point $-1 10.774351082035366 24.644090923678878 5.1989484965571684 #
plane-surface $-1 0 27.37349658654891 0 0 -1 0 0 0 -1 forward_v I I I I #
coedge $-1 $544 $543 $536 $633 forward $385 $-1 #
coedge $-1 $536 $387 $389 $540 reversed $259 $-1 #
coedge $-1 $387 $535 $534 $633 reversed $259 $-1 #
coedge $-1 $395 $390 $387 $538 forward $396 $-1 #
edge $-1 $541 -58.092611555590011 $634 -52.029987230242448 $537 $635 forward 7 unknown #
coedge $-1 $389 $388 $544 $636 reversed $163 $-1 #
edge $-1 $637 46.588927544511336 $541 54.746993173097799 $535 $638 forward 7 unknown #
vertex $-1 $391 $639 #
straight-curve $-1 17.930132653790963 27.37349658654891 2.1676363338834079 -1 0 0 I I #
coedge $-1 $534 $392 $395 $548 forward $385 $-1 #
coedge $-1 $392 $534 $539 $636 forward $385 $-1 #
vertex $-1 $393 $640 #
straight-curve $-1 42.702311065006676 38.499784063058129 8.2302606592309715 0 1 0 I I #
straight-curve $-1 42.702311065006676 -9.2593916481711744 42.852581474287916 0 -0.66913059716165679 0.74314483375859142 I I #
edge $-1 $397 -42.702311065006676 $634 -29.018219550157177 $395 $641 forward 7 unknown #
point $-1 42.702311065006676 27.37349658654891 8.2302606592309697 #
point $-1 42.702311065006676 27.37349658654891 2.1676363338834079 #
edge $-1 $642 1 $642 0 $400 $-1 forward 7 unknown #
vertex $-1 $401 $643 #
ellipse-curve $-1 32.927959982971316 23.351803176019203 4.0353674111275835 0 0.74314483375859142 0.66913059716165679 1 0 0 1 I I #
point $-1 33.927959982971316 24.644090923678878 5.1989484965571684 #
edge $-1 $644 1 $644 0 $404 $-1 forward 7 unknown #
vertex $-1 $405 $645 #
ellipse-curve $-1 38.792570632192536 23.351803176019203 4.0353674111275835 0 0.74314483375859142 0.66913059716165679 1 0 0 1 I I #
point $-1 39.792570632192536 24.644090923678878 5.1989484965571684 #
plane-surface $-1 58.03643910031434 0 0 -1 0 0 0 0 1 forward_v I I I I #
coedge $-1 $413 $411 $415 $564 reversed $281 $-1 #
edge $-1 $426 -8.2302606592309697 $566 8.2302606592309697 $425 $646 forward 7 unknown #
vertex $-1 $564 $647 #
straight-curve $-1 -58.03643910031434 -27.37349658654891 0 0 0 -1 I I #
edge $-1 $562 -27.37349658654891 $566 27.37349658654891 $560 $648 forward 7 unknown #
straight-curve $-1 0 -27.37349658654891 -8.2302606592309697 -1 0 0 I I #
vertex $-1 $418 $649 #
straight-curve $-1 0 27.37349658654891 -8.2302606592309697 1 0 0 I I #
point $-1 58.03643910031434 27.37349658654891 -8.2302606592309697 #
point $-1 58.03643910031434 -27.37349658654891 -8.2302606592309697 #
straight-curve $-1 -58.03643910031434 0 8.2302606592309697 0 -1 0 I I #
point $-1 -58.03643910031434 27.37349658654891 8.2302606592309697 #
point $-1 -58.03643910031434 -27.37349658654891 8.2302606592309697 #
straight-curve $-1 58.03643910031434 -27.37349658654891 0 0 0 -1 I I #
straight-curve $-1 58.03643910031434 27.37349658654891 0 0 0 -1 I I #
plane-surface $-1 58.03643910031434 0 0 -1 0 0 0 0 1 forward_v I I I I #
coedge $-1 $650 $579 $442 $584 forward $436 $-1 #
coedge $-1 $443 $438 $650 $651 forward $300 $-1 #
edge $-1 $452 -3.2104949008947337 $652 3.2104949008947337 $450 $653 forward 7 unknown #
coedge $-1 $576 $654 $439 $580 reversed $436 $-1 #
edge $-1 $587 -58.03643910031434 $582 58.03643910031434 $579 $655 forward 7 unknown #
coedge $-1 $450 $440 $654 $656 forward $451 $-1 #
vertex $-1 $441 $657 #
straight-curve $-1 58.03643910031434 -30.583991487443644 -0.35047362786282221 0 1 0 I I #
edge $-1 $587 -2.330128028492684 $585 2.330128028492684 $442 $658 forward 7 unknown #
vertex $-1 $444 $659 #
straight-curve $-1 -58.03643910031434 -30.583991487443644 -5.0107296848481901 0 1 0 I I #
vertex $-1 $445 $660 #
straight-curve $-1 -58.03643910031434 -30.583991487443644 -0.35047362786282221 0 -1 0 I I #
point $-1 -58.03643910031434 -27.37349658654891 -5.0107296848481901 #
straight-curve $-1 0 -27.37349658654891 -5.0107296848481901 -1 0 0 I I #
point $-1 58.03643910031434 -27.37349658654891 -5.0107296848481901 #
coedge $-1 $596 $461 $458 $593 reversed $456 $-1 #
edge $-1 $601 -27.37349658654891 $594 -21.914685260808859 $592 $661 forward 7 unknown #
vertex $-1 $462 $662 #
straight-curve $-1 -25.597196671444795 21.914685260808866 8.2302606592309715 1 0 0 I I #
coedge $-1 $461 $592 $463 $598 forward $456 $-1 #
straight-curve $-1 -58.03643910031434 3.4679463215338782 28.717440292870936 0 -0.66913059716165679 0.74314483375859142 I I #
edge $-1 $601 -8.2302606592309697 $464 -2.1676363338834048 $463 $663 forward 7 unknown #
point $-1 -58.03643910031434 27.37349658654891 2.1676363338834048 #
point $-1 -44.352347585464841 21.914685260808859 8.2302606592309715 #
vertex $-1 $470 $664 #
straight-curve $-1 0 27.37349658654891 8.2302606592309697 -1 0 0 I I #
vertex $-1 $473 $665 #
point $-1 -53.126698667500193 23.351803176019203 4.0353674111275835 #
vertex $-1 $477 $666 #
point $-1 -47.26208801827898 23.351803176019203 4.0353674111275835 #
edge $-1 $608 11.126287476509219 $611 16.58509880224927 $482 $667 forward 7 unknown #
vertex $-1 $486 $668 #
straight-curve $-1 -29.01821955015717 27.37349658654891 60.260247889473419 0 0 1 I I #
edge $-1 $611 -17.93013265379096 $493 -4.246041138941461 $492 $669 forward 7 unknown #
vertex $-1 $610 $670 #
straight-curve $-1 -29.01821955015717 -9.2593916481711744 42.852581474287916 0 0.66913059716165679 -0.74314483375859142 I I #
point $-1 -29.01821955015717 27.37349658654891 2.1676363338834079 #
point $-1 -15.334128035307671 21.914685260808859 8.2302606592309715 #
straight-curve $-1 0 27.37349658654891 8.2302606592309697 -1 0 0 I I #
vertex $-1 $499 $671 #
point $-1 -24.108479117343023 23.351803176019203 4.0353674111275835 #
vertex $-1 $503 $672 #
point $-1 -18.243868468121811 23.351803176019203 4.0353674111275835 #
edge $-1 $621 11.126287476509219 $624 16.58509880224927 $508 $673 forward 7 unknown #
vertex $-1 $512 $674 #
straight-curve $-1 6.2172489379008766e-015 27.37349658654891 60.260247889473419 0 0 1 I I #
edge $-1 $624 -3.421022878712372 $519 10.263068636137127 $518 $675 forward 7 unknown #
vertex $-1 $623 $676 #
straight-curve $-1 6.2172489379008766e-015 -9.2593916481711744 42.852581474287916 0 0.66913059716165679 -0.74314483375859142 I I #
point $-1 6.2172489379008766e-015 27.37349658654891 2.1676363338834079 #
point $-1 13.684091514849506 21.914685260808859 8.2302606592309715 #
straight-curve $-1 0 27.37349658654891 8.2302606592309697 -1 0 0 I I #
vertex $-1 $525 $677 #
point $-1 4.9097404328141465 23.351803176019203 4.0353674111275835 #
vertex $-1 $529 $678 #
point $-1 10.774351082035366 23.351803176019203 4.0353674111275835 #
edge $-1 $634 11.126287476509219 $637 16.58509880224927 $534 $679 forward 7 unknown #
vertex $-1 $538 $680 #
straight-curve $-1 29.018219550157177 27.37349658654891 60.260247889473419 0 0 1 I I #
edge $-1 $637 11.088086896366214 $545 24.772178411215712 $544 $681 forward 7 unknown #
vertex $-1 $636 $682 #
straight-curve $-1 29.018219550157177 -9.2593916481711744 42.852581474287916 0 0.66913059716165679 -0.74314483375859142 I I #
point $-1 29.018219550157177 27.37349658654891 2.1676363338834079 #
point $-1 42.702311065006676 21.914685260808859 8.2302606592309715 #
straight-curve $-1 0 27.37349658654891 8.2302606592309697 -1 0 0 I I #
vertex $-1 $551 $683 #
point $-1 33.927959982971316 23.351803176019203 4.0353674111275835 #
vertex $-1 $555 $684 #
point $-1 39.792570632192536 23.351803176019203 4.0353674111275835 #
straight-curve $-1 -58.03643910031434 27.37349658654891 0 0 0 -1 I I #
point $-1 -58.03643910031434 -27.37349658654891 -8.2302606592309697 #
straight-curve $-1 -58.03643910031434 0 -8.2302606592309697 0 1 0 I I #
point $-1 -58.03643910031434 27.37349658654891 -8.2302606592309697 #
coedge $-1 $654 $576 $577 $651 reversed $436 $-1 #
edge $-1 $652 -58.03643910031434 $585 58.03643910031434 $650 $685 forward 7 unknown #
vertex $-1 $656 $686 #
straight-curve $-1 58.03643910031434 -30.583991487443644 -5.0107296848481901 0 -1 0 I I #
coedge $-1 $579 $650 $581 $656 reversed $436 $-1 #
straight-curve $-1 0 -33.794486388338377 -0.35047362786282221 1 0 0 I I #
edge $-1 $582 -2.330128028492684 $652 2.330128028492684 $581 $687 forward 7 unknown #
point $-1 58.03643910031434 -33.794486388338377 -0.35047362786282221 #
straight-curve $-1 -58.03643910031434 -33.794486388338377 -2.6806016563555062 0 0 -1 I I #
point $-1 -58.03643910031434 -33.794486388338377 -5.0107296848481901 #
point $-1 -58.03643910031434 -33.794486388338377 -0.35047362786282221 #
straight-curve $-1 -58.03643910031434 0 8.2302606592309697 0 -1 0 I I #
point $-1 -58.03643910031434 21.914685260808859 8.2302606592309715 #
straight-curve $-1 -58.03643910031434 27.37349658654891 0 0 0 -1 I I #
point $-1 -58.03643910031434 27.37349658654891 8.2302606592309697 #
point $-1 -54.126698667500193 22.608658342260611 3.3662368139659269 #
point $-1 -48.26208801827898 22.608658342260611 3.3662368139659269 #
straight-curve $-1 -29.01821955015717 38.499784063058129 8.2302606592309715 0 -1 0 I I #
point $-1 -29.01821955015717 27.37349658654891 8.2302606592309697 #
straight-curve $-1 -11.08808689636621 21.914685260808866 8.2302606592309715 1 0 0 I I #
point $-1 -29.01821955015717 21.914685260808859 8.2302606592309715 #
point $-1 -25.108479117343023 22.608658342260611 3.3662368139659269 #
point $-1 -19.243868468121811 22.608658342260611 3.3662368139659269 #
straight-curve $-1 6.2172489379008766e-015 38.499784063058129 8.2302606592309715 0 -1 0 I I #
point $-1 6.2172489379008766e-015 27.37349658654891 8.2302606592309697 #
straight-curve $-1 3.4210228787123782 21.914685260808866 8.2302606592309715 1 0 0 I I #
point $-1 6.2172489379008766e-015 21.914685260808859 8.2302606592309715 #
point $-1 3.9097404328141465 22.608658342260611 3.3662368139659269 #
point $-1 9.7743510820353663 22.608658342260611 3.3662368139659269 #
straight-curve $-1 29.018219550157177 38.499784063058129 8.2302606592309715 0 -1 0 I I #
point $-1 29.018219550157177 27.37349658654891 8.2302606592309697 #
straight-curve $-1 17.930132653790963 21.914685260808866 8.2302606592309715 1 0 0 I I #
point $-1 29.018219550157177 21.914685260808859 8.2302606592309715 #
point $-1 32.927959982971316 22.608658342260611 3.3662368139659269 #
point $-1 38.792570632192536 22.608658342260611 3.3662368139659269 #
straight-curve $-1 0 -33.794486388338377 -5.0107296848481901 -1 0 0 I I #
point $-1 58.03643910031434 -33.794486388338377 -5.0107296848481901 #
straight-curve $-1 58.03643910031434 -33.794486388338377 -2.6806016563555062 0 0 -1 I I #
End-of-ACIS-data 