500 0 4 0           
7 Unknown 11 ACIS 5.0 NT 24 Fri Mar 26 18:53:29 1999 
-1 9.9999999999999995e-007 1e-010 
body $-1 $4 $-1 $5 #
body $-1 $6 $-1 $7 #
body $-1 $8 $-1 $9 #
body $-1 $10 $-1 $11 #
lump $-1 $-1 $12 $0 #
transform $-1 1 0 0 0 1 0 0 0 1 62.963347270119328 26.092693642413114 9.5601807548251259 1 rotate no_reflect no_shear #
lump $-1 $-1 $13 $1 #
transform $-1 1 0 0 0 1 0 0 0 1 62.963347270119328 26.092693642413114 9.5601807548251259 1 rotate no_reflect no_shear #
lump $-1 $-1 $14 $2 #
transform $-1 1 0 0 0 1 0 0 0 1 62.963347270119328 26.092693642413114 9.5601807548251259 1 rotate no_reflect no_shear #
lump $-1 $-1 $15 $3 #
transform $-1 1 0 0 0 1 0 0 0 1 62.963347270119328 26.092693642413114 9.5601807548251259 1 rotate no_reflect no_shear #
shell $-1 $-1 $-1 $16 $-1 $4 #
shell $-1 $-1 $-1 $17 $-1 $6 #
shell $-1 $-1 $-1 $18 $-1 $8 #
shell $-1 $-1 $-1 $19 $-1 $10 #
face $-1 $20 $21 $12 $-1 $22 forward single #
face $-1 $23 $24 $13 $-1 $25 reversed single #
face $-1 $26 $27 $14 $-1 $28 forward single #
face $-1 $29 $30 $15 $-1 $31 reversed single #
face $-1 $32 $33 $12 $-1 $34 reversed single #
loop $-1 $-1 $35 $16 #
plane-surface $-1 0 0 9.5601807548251259 0 0 1 1 0 0 forward_v I I I I #
face $-1 $36 $37 $13 $-1 $38 reversed single #
loop $-1 $-1 $39 $17 #
plane-surface $-1 -68.137232366810281 0 4.9439733551030827 0 0 1 1 0 0 forward_v I I I I #
face $-1 $40 $41 $14 $-1 $42 forward single #
loop $-1 $-1 $43 $18 #
plane-surface $-1 112.05084570344067 17.294165033959533 175.40720149541414 0 1 0 0.87461971476443456 0 0.48480960649040278 forward_v I I I I #
face $-1 $44 $45 $15 $-1 $46 reversed single #
loop $-1 $47 $48 $19 #
cone-surface $-1 60.393137212957853 21.693429338186323 6.2853784113931255 -0.87461971476443456 0 -0.48480960649040278 0.48480960649040278 0 -0.87461971476443456 1 I I 0 1 1 forward I I I I #
face $-1 $49 $50 $12 $-1 $51 reversed single #
loop $-1 $-1 $52 $20 #
plane-surface $-1 0 0 -9.5601807548251259 0 0 1 1 0 0 forward_v I I I I #
coedge $-1 $53 $54 $55 $56 forward $21 $-1 #
face $-1 $57 $58 $13 $-1 $59 forward single #
loop $-1 $-1 $60 $23 #
plane-surface $-1 -73.311117463501233 0 7.2520770549641043 1 0 0 0 0 -1 forward_v I I I I #
coedge $-1 $61 $62 $63 $64 reversed $24 $-1 #
face $-1 $65 $66 $14 $-1 $67 reversed single #
loop $-1 $-1 $68 $26 #
plane-surface $-1 1.9128760434290655 21.693429338186323 114.35673026872388 0.87461971476443456 0 0.48480960649040278 0.48480960649040278 0 -0.87461971476443456 forward_v I I I I #
coedge $-1 $69 $70 $71 $72 reversed $27 $-1 #
face $-1 $73 $74 $15 $-1 $75 forward single #
loop $-1 $76 $77 $29 #
cone-surface $-1 58.866016010804458 21.693429338186323 5.4388813377723437 -0.87461971476443456 0 -0.48480960649040278 0.24240480324520139 0 -0.43730985738221728 1 I I -0.70710678118654746 0.70710678118654746 0.5 forward I I I I #
loop $-1 $-1 $78 $19 #
coedge $-1 $48 $48 $79 $80 reversed $30 $-1 #
face $-1 $81 $82 $12 $-1 $83 reversed single #
loop $-1 $-1 $84 $32 #
plane-surface $-1 0 -26.092693642413114 0 0 1 0 0 0 1 forward_v I I I I #
coedge $-1 $85 $86 $87 $88 forward $33 $-1 #
coedge $-1 $89 $35 $90 $91 forward $21 $-1 #
coedge $-1 $35 $89 $92 $93 forward $21 $-1 #
coedge $-1 $94 $95 $35 $56 reversed $96 $-1 #
edge $-1 $97 -26.092693642413114 $98 26.092693642413114 $55 $99 forward 7 unknown #
face $-1 $100 $101 $13 $-1 $102 reversed single #
loop $-1 $-1 $103 $36 #
plane-surface $-1 0 0 9.5601807548251259 0 0 1 1 0 0 forward_v I I I I #
coedge $-1 $104 $105 $106 $107 forward $37 $-1 #
coedge $-1 $108 $39 $109 $110 forward $24 $-1 #
coedge $-1 $39 $108 $111 $112 forward $24 $-1 #
coedge $-1 $113 $114 $39 $64 forward $115 $-1 #
edge $-1 $116 -26.092693642413114 $117 26.092693642413114 $63 $118 forward 7 unknown #
face $-1 $119 $120 $14 $-1 $121 forward single #
loop $-1 $-1 $122 $40 #
plane-surface $-1 62.963347270119328 0 0 -1 0 0 0 0 1 forward_v I I I I #
coedge $-1 $123 $124 $122 $125 reversed $41 $-1 #
coedge $-1 $70 $43 $124 $126 forward $27 $-1 #
coedge $-1 $43 $69 $127 $128 reversed $27 $-1 #
coedge $-1 $129 $122 $43 $72 forward $66 $-1 #
edge $-1 $130 -83.484840138994812 $131 -78.143419992881945 $71 $132 forward 7 unknown #
face $-1 $133 $134 $15 $-1 $135 forward single #
loop $-1 $-1 $136 $44 #
plane-surface $-1 112.05084570344067 17.294165033959533 175.40720149541414 0 1 0 0.87461971476443456 0 0.48480960649040278 forward_v I I I I #
loop $-1 $-1 $137 $29 #
coedge $-1 $77 $77 $78 $138 forward $45 $-1 #
coedge $-1 $78 $78 $77 $138 reversed $47 $-1 #
coedge $-1 $79 $79 $48 $80 forward $134 $-1 #
edge $-1 $139 0 $139 6.2831853071796004 $79 $140 forward 7 unknown #
face $-1 $141 $142 $12 $-1 $143 reversed single #
loop $-1 $-1 $144 $49 #
plane-surface $-1 -62.963347270119328 0 0 1 0 0 0 0 -1 forward_v I I I I #
coedge $-1 $145 $92 $146 $147 forward $50 $-1 #
coedge $-1 $148 $52 $145 $149 forward $33 $-1 #
coedge $-1 $52 $148 $150 $151 forward $33 $-1 #
coedge $-1 $95 $94 $52 $88 reversed $96 $-1 #
edge $-1 $152 -26.092693642413114 $153 26.092693642413114 $87 $154 forward 7 unknown #
coedge $-1 $54 $53 $155 $156 forward $21 $-1 #
coedge $-1 $157 $158 $53 $91 reversed $142 $-1 #
edge $-1 $98 -62.963347270119328 $159 62.963347270119328 $90 $160 forward 7 unknown #
coedge $-1 $84 $161 $54 $93 reversed $50 $-1 #
edge $-1 $162 -62.963347270119328 $97 62.963347270119328 $92 $163 forward 7 unknown #
coedge $-1 $87 $55 $161 $164 forward $96 $-1 #
coedge $-1 $55 $87 $157 $165 reversed $96 $-1 #
loop $-1 $-1 $94 $141 #
vertex $-1 $56 $166 #
vertex $-1 $56 $167 #
straight-curve $-1 62.963347270119328 0 9.5601807548251259 0 1 0 I I #
face $-1 $168 $169 $13 $-1 $170 reversed single #
loop $-1 $-1 $171 $57 #
plane-surface $-1 0 0 -9.5601807548251259 0 0 1 1 0 0 forward_v I I I I #
coedge $-1 $172 $173 $174 $175 forward $58 $-1 #
coedge $-1 $176 $60 $108 $177 reversed $37 $-1 #
coedge $-1 $60 $176 $178 $179 reversed $37 $-1 #
coedge $-1 $180 $111 $60 $107 reversed $181 $-1 #
edge $-1 $182 -2.3081036998610216 $183 2.3081036998610216 $106 $184 forward 7 unknown #
coedge $-1 $62 $61 $104 $177 forward $24 $-1 #
coedge $-1 $185 $186 $61 $110 reversed $169 $-1 #
edge $-1 $116 -5.1738850966909524 $187 5.1738850966909524 $109 $188 forward 7 unknown #
coedge $-1 $106 $189 $62 $112 reversed $181 $-1 #
edge $-1 $183 -5.1738850966909524 $117 5.1738850966909524 $111 $190 forward 7 unknown #
coedge $-1 $191 $63 $189 $192 forward $115 $-1 #
coedge $-1 $63 $191 $185 $193 reversed $115 $-1 #
loop $-1 $-1 $63 $168 #
vertex $-1 $193 $194 #
vertex $-1 $192 $195 #
straight-curve $-1 -62.963347270119328 0 4.9439733551030827 0 1 0 I I #
face $-1 $196 $197 $14 $-1 $198 reversed single #
loop $-1 $-1 $127 $65 #
plane-surface $-1 0 0 9.5601807548251259 0 0 1 1 0 0 forward_v I I I I #
coedge $-1 $71 $199 $68 $125 forward $66 $-1 #
coedge $-1 $200 $68 $201 $202 reversed $41 $-1 #
coedge $-1 $68 $200 $69 $126 reversed $41 $-1 #
edge $-1 $203 -15.245978973319952 $130 -6.4474503648663717 $122 $204 forward 7 unknown #
edge $-1 $130 -125.92669454023867 $205 -119.81956014120274 $69 $206 forward 7 unknown #
coedge $-1 $207 $208 $70 $128 forward $120 $-1 #
edge $-1 $131 -6.9379244183989925 $205 -3.9771269936183842 $127 $209 forward 7 unknown #
coedge $-1 $210 $71 $208 $211 reversed $66 $-1 #
vertex $-1 $125 $212 #
vertex $-1 $128 $213 #
straight-curve $-1 62.963347270119328 17.294165033959533 87.703600747707071 0 0 1 I I #
face $-1 $214 $215 $15 $-1 $216 reversed single #
loop $-1 $217 $79 $73 #
plane-surface $-1 1.9128760434290655 21.693429338186323 114.35673026872388 0.87461971476443456 0 0.48480960649040278 0.48480960649040278 0 -0.87461971476443456 forward_v I I I I #
coedge $-1 $218 $219 $220 $221 reversed $74 $-1 #
coedge $-1 $137 $137 $-1 $222 forward $76 $-1 #
edge $-1 $223 0 $223 6.2831853071796004 $77 $224 forward 7 unknown #
vertex $-1 $80 $225 #
ellipse-curve $-1 61.482948557729017 21.693429338186323 6.8894706817686995 -0.87461971476443456 0 -0.48480960649040278 0.48480960649040278 0 -0.87461971476443456 1 I I #
face $-1 $-1 $96 $12 $-1 $226 reversed single #
loop $-1 $-1 $157 $81 #
plane-surface $-1 0 26.092693642413114 0 0 -1 0 0 0 -1 forward_v I I I I #
coedge $-1 $227 $155 $158 $228 forward $82 $-1 #
coedge $-1 $161 $84 $85 $149 reversed $50 $-1 #
coedge $-1 $155 $227 $84 $147 reversed $82 $-1 #
edge $-1 $162 -9.5601807548251259 $229 9.5601807548251259 $146 $230 forward 7 unknown #
coedge $-1 $86 $85 $227 $231 forward $33 $-1 #
edge $-1 $153 -62.963347270119328 $229 62.963347270119328 $145 $232 forward 7 unknown #
coedge $-1 $158 $157 $86 $151 reversed $142 $-1 #
edge $-1 $233 -62.963347270119328 $152 62.963347270119328 $150 $234 forward 7 unknown #
vertex $-1 $88 $235 #
vertex $-1 $164 $236 #
straight-curve $-1 62.963347270119328 0 -9.5601807548251259 0 -1 0 I I #
coedge $-1 $144 $146 $89 $156 reversed $82 $-1 #
edge $-1 $159 -26.092693642413114 $162 26.092693642413114 $155 $237 forward 7 unknown #
coedge $-1 $150 $90 $95 $165 forward $142 $-1 #
coedge $-1 $90 $150 $144 $228 reversed $142 $-1 #
vertex $-1 $91 $238 #
straight-curve $-1 0 26.092693642413114 9.5601807548251259 -1 0 0 I I #
coedge $-1 $92 $145 $94 $164 reversed $50 $-1 #
vertex $-1 $156 $239 #
straight-curve $-1 0 -26.092693642413114 9.5601807548251259 1 0 0 I I #
edge $-1 $97 -9.5601807548251259 $153 9.5601807548251259 $94 $240 forward 7 unknown #
edge $-1 $98 -9.5601807548251259 $152 9.5601807548251259 $95 $241 forward 7 unknown #
point $-1 62.963347270119328 -26.092693642413114 9.5601807548251259 #
point $-1 62.963347270119328 26.092693642413114 9.5601807548251259 #
face $-1 $242 $115 $13 $-1 $243 reversed single #
loop $-1 $-1 $185 $100 #
plane-surface $-1 0 -26.092693642413114 0 0 1 0 0 0 1 forward_v I I I I #
coedge $-1 $244 $245 $246 $247 forward $101 $-1 #
coedge $-1 $178 $103 $180 $248 forward $58 $-1 #
coedge $-1 $103 $178 $249 $250 forward $58 $-1 #
coedge $-1 $251 $252 $103 $175 reversed $253 $-1 #
edge $-1 $254 -26.092693642413114 $255 26.092693642413114 $174 $256 forward 7 unknown #
coedge $-1 $105 $104 $186 $257 reversed $37 $-1 #
edge $-1 $187 -26.092693642413114 $183 26.092693642413114 $104 $258 forward 7 unknown #
coedge $-1 $173 $172 $105 $179 forward $58 $-1 #
edge $-1 $182 -26.092693642413114 $259 26.092693642413114 $105 $260 forward 7 unknown #
coedge $-1 $261 $106 $172 $248 reversed $181 $-1 #
loop $-1 $-1 $261 $242 #
vertex $-1 $248 $262 #
vertex $-1 $112 $263 #
straight-curve $-1 -73.311117463501233 26.092693642413114 7.2520770549641043 0 0 -1 I I #
coedge $-1 $264 $109 $114 $193 forward $169 $-1 #
coedge $-1 $109 $249 $176 $257 forward $169 $-1 #
vertex $-1 $177 $265 #
straight-curve $-1 -68.137232366810281 -26.092693642413114 4.9439733551030827 -1 0 0 I I #
coedge $-1 $111 $266 $113 $192 reversed $181 $-1 #
straight-curve $-1 -68.137232366810281 26.092693642413114 4.9439733551030827 1 0 0 I I #
coedge $-1 $114 $113 $267 $268 reversed $115 $-1 #
edge $-1 $117 -4.9439733551030827 $269 9.5601807548251259 $189 $270 forward 7 unknown #
edge $-1 $116 -4.9439733551030827 $271 9.5601807548251259 $114 $272 forward 7 unknown #
point $-1 -62.963347270119328 -26.092693642413114 4.9439733551030827 #
point $-1 -62.963347270119328 26.092693642413114 4.9439733551030827 #
face $-1 $273 $274 $14 $-1 $275 reversed single #
loop $-1 $-1 $276 $119 #
plane-surface $-1 -68.137232366810281 0 4.9439733551030827 0 0 1 1 0 0 forward_v I I I I #
coedge $-1 $122 $277 $278 $279 reversed $66 $-1 #
coedge $-1 $124 $123 $207 $280 reversed $41 $-1 #
coedge $-1 $278 $281 $123 $202 forward $282 $-1 #
edge $-1 $283 70.273925077630295 $203 76.381059476666238 $201 $284 forward 7 unknown #
vertex $-1 $279 $285 #
straight-curve $-1 62.963347270119328 10.846714669093162 4.2187606087122447 0 -1 0 I I #
vertex $-1 $280 $286 #
straight-curve $-1 1.9128760434290655 17.294165033959533 114.35673026872388 -0.48480960649040278 0 0.87461971476443456 I I #
coedge $-1 $287 $127 $200 $280 forward $120 $-1 #
coedge $-1 $127 $288 $129 $211 forward $120 $-1 #
straight-curve $-1 56.025422851720336 17.294165033959533 9.5601807548251259 -1 0 0 I I #
coedge $-1 $277 $129 $289 $290 forward $66 $-1 #
edge $-1 $291 -26.092693642413114 $131 17.294165033959533 $129 $292 forward 7 unknown #
point $-1 62.963347270119328 17.294165033959533 4.2187606087122589 #
point $-1 62.963347270119328 17.294165033959533 9.5601807548251259 #
face $-1 $293 $294 $15 $-1 $295 forward single #
loop $-1 $-1 $296 $133 #
plane-surface $-1 62.963347270119328 0 0 -1 0 0 0 0 1 forward_v I I I I #
loop $-1 $-1 $297 $73 #
coedge $-1 $219 $136 $298 $299 forward $74 $-1 #
coedge $-1 $136 $218 $300 $301 reversed $74 $-1 #
coedge $-1 $302 $296 $136 $221 forward $215 $-1 #
edge $-1 $303 -83.484840138994812 $304 -78.143419992881945 $220 $305 forward 7 unknown #
edge $-1 $306 1 $306 0 $137 $-1 forward 7 unknown #
vertex $-1 $138 $307 #
ellipse-curve $-1 59.303325868186676 21.693429338186323 5.6812861410175453 0.87461971476443456 0 0.48480960649040278 0.48480960649040278 0 -0.87461971476443456 1 I I #
point $-1 61.967758164219426 21.693429338186323 6.0148509670042722 #
plane-surface $-1 62.963347270119328 0 0 -1 0 0 0 0 1 forward_v I I I I #
coedge $-1 $146 $144 $148 $231 reversed $82 $-1 #
edge $-1 $159 -9.5601807548251259 $233 9.5601807548251259 $158 $308 forward 7 unknown #
vertex $-1 $231 $309 #
straight-curve $-1 -62.963347270119328 -26.092693642413114 0 0 0 -1 I I #
edge $-1 $229 -26.092693642413114 $233 26.092693642413114 $227 $310 forward 7 unknown #
straight-curve $-1 0 -26.092693642413114 -9.5601807548251259 -1 0 0 I I #
vertex $-1 $151 $311 #
straight-curve $-1 0 26.092693642413114 -9.5601807548251259 1 0 0 I I #
point $-1 62.963347270119328 26.092693642413114 -9.5601807548251259 #
point $-1 62.963347270119328 -26.092693642413114 -9.5601807548251259 #
straight-curve $-1 -62.963347270119328 0 9.5601807548251259 0 -1 0 I I #
point $-1 -62.963347270119328 26.092693642413114 9.5601807548251259 #
point $-1 -62.963347270119328 -26.092693642413114 9.5601807548251259 #
straight-curve $-1 62.963347270119328 -26.092693642413114 0 0 0 -1 I I #
straight-curve $-1 62.963347270119328 26.092693642413114 0 0 0 -1 I I #
face $-1 $312 $181 $13 $-1 $313 reversed single #
plane-surface $-1 -62.963347270119328 0 0 1 0 0 0 0 -1 forward_v I I I I #
coedge $-1 $267 $171 $264 $314 forward $101 $-1 #
coedge $-1 $171 $267 $266 $315 forward $101 $-1 #
coedge $-1 $252 $251 $171 $247 reversed $253 $-1 #
edge $-1 $316 -26.092693642413114 $317 26.092693642413114 $246 $318 forward 7 unknown #
edge $-1 $255 -62.963347270119328 $182 73.311117463501233 $180 $319 forward 7 unknown #
coedge $-1 $186 $320 $173 $250 reversed $169 $-1 #
edge $-1 $259 -73.311117463501233 $254 62.963347270119328 $249 $321 forward 7 unknown #
coedge $-1 $246 $174 $320 $322 forward $253 $-1 #
coedge $-1 $174 $246 $261 $323 reversed $253 $-1 #
loop $-1 $-1 $251 $312 #
vertex $-1 $175 $324 #
vertex $-1 $175 $325 #
straight-curve $-1 62.963347270119328 0 9.5601807548251259 0 1 0 I I #
edge $-1 $259 -2.3081036998610216 $187 2.3081036998610216 $176 $326 forward 7 unknown #
straight-curve $-1 -73.311117463501233 0 4.9439733551030827 0 1 0 I I #
vertex $-1 $179 $327 #
straight-curve $-1 -73.311117463501233 0 9.5601807548251259 0 -1 0 I I #
coedge $-1 $266 $180 $252 $323 forward $181 $-1 #
point $-1 -73.311117463501233 26.092693642413114 9.5601807548251259 #
point $-1 -73.311117463501233 26.092693642413114 4.9439733551030827 #
coedge $-1 $320 $185 $244 $314 reversed $169 $-1 #
point $-1 -73.311117463501233 -26.092693642413114 4.9439733551030827 #
coedge $-1 $189 $261 $245 $315 reversed $181 $-1 #
coedge $-1 $245 $244 $191 $268 forward $101 $-1 #
edge $-1 $271 -26.092693642413114 $269 26.092693642413114 $191 $328 forward 7 unknown #
vertex $-1 $315 $329 #
straight-curve $-1 -62.963347270119328 26.092693642413114 0 0 0 -1 I I #
vertex $-1 $268 $330 #
straight-curve $-1 -62.963347270119328 -26.092693642413114 0 0 0 -1 I I #
face $-1 $331 $332 $14 $-1 $333 reversed single #
loop $-1 $-1 $334 $196 #
plane-surface $-1 -73.311117463501233 0 7.2520770549641043 1 0 0 0 0 -1 forward_v I I I I #
coedge $-1 $335 $336 $337 $338 reversed $197 $-1 #
coedge $-1 $199 $210 $339 $340 reversed $66 $-1 #
coedge $-1 $341 $201 $199 $279 forward $282 $-1 #
edge $-1 $203 -4.2187606087122438 $342 9.5601807548251259 $199 $343 forward 7 unknown #
edge $-1 $205 6.4474503648663717 $283 15.245978973319952 $207 $344 forward 7 unknown #
coedge $-1 $201 $345 $287 $346 reversed $282 $-1 #
loop $-1 $-1 $201 $347 #
vertex $-1 $346 $348 #
straight-curve $-1 25.933075881916725 26.092693642413114 71.023141061599375 0.48480960649040278 0 -0.87461971476443456 I I #
point $-1 62.963347270119328 26.092693642413114 4.2187606087122438 #
point $-1 60.00254984533872 17.294165033959533 9.5601807548251259 #
coedge $-1 $349 $207 $281 $346 forward $120 $-1 #
coedge $-1 $208 $349 $350 $351 forward $120 $-1 #
coedge $-1 $350 $352 $210 $290 reversed $353 $-1 #
edge $-1 $291 -9.5601807548251259 $354 9.5601807548251259 $210 $355 forward 7 unknown #
vertex $-1 $211 $356 #
straight-curve $-1 62.963347270119328 0 9.5601807548251259 0 1 0 I I #
face $-1 $357 $358 $15 $-1 $359 reversed single #
loop $-1 $-1 $300 $214 #
plane-surface $-1 0 0 9.5601807548251259 0 0 1 1 0 0 forward_v I I I I #
coedge $-1 $220 $360 $297 $361 forward $215 $-1 #
coedge $-1 $362 $298 $296 $361 reversed $217 $-1 #
coedge $-1 $297 $363 $218 $299 reversed $217 $-1 #
edge $-1 $303 -125.92669454023867 $364 -119.81956014120274 $218 $365 forward 7 unknown #
coedge $-1 $366 $367 $219 $301 forward $294 $-1 #
edge $-1 $304 -6.9379244183989925 $364 -3.9771269936183842 $300 $368 forward 7 unknown #
coedge $-1 $369 $220 $367 $370 reversed $215 $-1 #
vertex $-1 $361 $371 #
vertex $-1 $301 $372 #
straight-curve $-1 62.963347270119328 17.294165033959533 87.703600747707071 0 0 1 I I #
vertex $-1 $222 $373 #
point $-1 59.788135474677077 21.693429338186323 4.8066664262531109 #
straight-curve $-1 -62.963347270119328 26.092693642413114 0 0 0 -1 I I #
point $-1 -62.963347270119328 -26.092693642413114 -9.5601807548251259 #
straight-curve $-1 -62.963347270119328 0 -9.5601807548251259 0 1 0 I I #
point $-1 -62.963347270119328 26.092693642413114 -9.5601807548251259 #
face $-1 $-1 $253 $13 $-1 $374 reversed single #
plane-surface $-1 0 26.092693642413114 0 0 -1 0 0 0 -1 forward_v I I I I #
edge $-1 $317 -62.963347270119328 $271 62.963347270119328 $264 $375 forward 7 unknown #
edge $-1 $269 -62.963347270119328 $316 62.963347270119328 $266 $376 forward 7 unknown #
vertex $-1 $247 $377 #
vertex $-1 $322 $378 #
straight-curve $-1 62.963347270119328 0 -9.5601807548251259 0 -1 0 I I #
straight-curve $-1 0 26.092693642413114 9.5601807548251259 -1 0 0 I I #
coedge $-1 $249 $264 $251 $322 reversed $169 $-1 #
straight-curve $-1 0 -26.092693642413114 9.5601807548251259 1 0 0 I I #
edge $-1 $254 -9.5601807548251259 $317 9.5601807548251259 $251 $379 forward 7 unknown #
edge $-1 $255 -9.5601807548251259 $316 9.5601807548251259 $252 $380 forward 7 unknown #
point $-1 62.963347270119328 -26.092693642413114 9.5601807548251259 #
point $-1 62.963347270119328 26.092693642413114 9.5601807548251259 #
straight-curve $-1 -73.311117463501233 -26.092693642413114 7.2520770549641043 0 0 -1 I I #
point $-1 -73.311117463501233 -26.092693642413114 9.5601807548251259 #
straight-curve $-1 -62.963347270119328 0 -9.5601807548251259 0 1 0 I I #
point $-1 -62.963347270119328 26.092693642413114 -9.5601807548251259 #
point $-1 -62.963347270119328 -26.092693642413114 -9.5601807548251259 #
face $-1 $381 $353 $14 $-1 $382 reversed single #
loop $-1 $-1 $339 $273 #
plane-surface $-1 0 0 -9.5601807548251259 0 0 1 1 0 0 forward_v I I I I #
coedge $-1 $383 $384 $345 $385 forward $274 $-1 #
coedge $-1 $386 $276 $387 $388 forward $197 $-1 #
coedge $-1 $276 $386 $389 $390 forward $197 $-1 #
coedge $-1 $391 $392 $276 $338 forward $393 $-1 #
edge $-1 $394 -26.092693642413114 $395 26.092693642413114 $337 $396 forward 7 unknown #
coedge $-1 $397 $398 $277 $340 forward $332 $-1 #
edge $-1 $342 -26.092693642413114 $354 26.092693642413114 $277 $399 forward 7 unknown #
coedge $-1 $400 $278 $398 $401 reversed $282 $-1 #
vertex $-1 $340 $402 #
straight-curve $-1 62.963347270119328 26.092693642413114 0 0 0 -1 I I #
straight-curve $-1 60.00254984533872 10.846714669093162 9.5601807548251401 0 1 0 I I #
coedge $-1 $281 $389 $334 $385 reversed $282 $-1 #
edge $-1 $283 -60.00254984533872 $403 73.311117463501233 $281 $404 forward 7 unknown #
face $-1 $-1 $282 $14 $-1 $405 reversed single #
point $-1 60.00254984533872 26.092693642413114 9.5601807548251259 #
coedge $-1 $288 $287 $384 $406 forward $120 $-1 #
coedge $-1 $407 $289 $288 $351 reversed $353 $-1 #
edge $-1 $408 -73.311117463501233 $291 62.963347270119328 $350 $409 forward 7 unknown #
coedge $-1 $289 $410 $397 $411 reversed $353 $-1 #
loop $-1 $-1 $410 $331 #
vertex $-1 $290 $412 #
straight-curve $-1 62.963347270119328 -26.092693642413114 0 0 0 -1 I I #
point $-1 62.963347270119328 -26.092693642413114 9.5601807548251259 #
face $-1 $413 $414 $15 $-1 $415 reversed single #
loop $-1 $-1 $416 $293 #
plane-surface $-1 -68.137232366810281 0 4.9439733551030827 0 0 1 1 0 0 forward_v I I I I #
coedge $-1 $296 $417 $418 $419 reversed $215 $-1 #
edge $-1 $420 -15.245978973319952 $303 -6.4474503648663717 $296 $421 forward 7 unknown #
coedge $-1 $363 $297 $422 $423 reversed $217 $-1 #
coedge $-1 $298 $362 $366 $424 reversed $217 $-1 #
vertex $-1 $424 $425 #
straight-curve $-1 1.9128760434290655 17.294165033959533 114.35673026872388 -0.48480960649040278 0 0.87461971476443456 I I #
coedge $-1 $426 $300 $363 $424 forward $294 $-1 #
coedge $-1 $300 $427 $302 $370 forward $294 $-1 #
straight-curve $-1 56.025422851720336 17.294165033959533 9.5601807548251259 -1 0 0 I I #
coedge $-1 $417 $302 $428 $429 forward $215 $-1 #
edge $-1 $430 -26.092693642413114 $304 17.294165033959533 $302 $431 forward 7 unknown #
point $-1 62.963347270119328 17.294165033959533 4.2187606087122589 #
point $-1 62.963347270119328 17.294165033959533 9.5601807548251259 #
point $-1 58.42870615342224 21.693429338186323 5.1964765345271422 #
plane-surface $-1 62.963347270119328 0 0 -1 0 0 0 0 1 forward_v I I I I #
straight-curve $-1 0 -26.092693642413114 -9.5601807548251259 -1 0 0 I I #
straight-curve $-1 0 26.092693642413114 -9.5601807548251259 1 0 0 I I #
point $-1 62.963347270119328 26.092693642413114 -9.5601807548251259 #
point $-1 62.963347270119328 -26.092693642413114 -9.5601807548251259 #
straight-curve $-1 62.963347270119328 -26.092693642413114 0 0 0 -1 I I #
straight-curve $-1 62.963347270119328 26.092693642413114 0 0 0 -1 I I #
face $-1 $347 $393 $14 $-1 $432 reversed single #
plane-surface $-1 0 -26.092693642413114 0 0 1 0 0 0 1 forward_v I I I I #
coedge $-1 $433 $334 $386 $434 reversed $274 $-1 #
coedge $-1 $334 $433 $349 $406 reversed $274 $-1 #
edge $-1 $403 -2.3081036998610216 $435 2.3081036998610216 $345 $436 forward 7 unknown #
coedge $-1 $336 $335 $383 $434 forward $197 $-1 #
coedge $-1 $410 $407 $335 $388 reversed $353 $-1 #
edge $-1 $394 -5.1738850966909524 $437 5.1738850966909524 $387 $438 forward 7 unknown #
coedge $-1 $345 $400 $336 $390 reversed $282 $-1 #
edge $-1 $435 -5.1738850966909524 $395 5.1738850966909524 $389 $439 forward 7 unknown #
coedge $-1 $440 $337 $400 $441 forward $393 $-1 #
coedge $-1 $337 $440 $410 $442 reversed $393 $-1 #
loop $-1 $-1 $337 $381 #
vertex $-1 $442 $443 #
vertex $-1 $441 $444 #
straight-curve $-1 -62.963347270119328 0 4.9439733551030827 0 1 0 I I #
coedge $-1 $445 $339 $352 $411 forward $332 $-1 #
coedge $-1 $339 $445 $341 $401 forward $332 $-1 #
straight-curve $-1 62.963347270119328 0 -9.5601807548251259 0 -1 0 I I #
coedge $-1 $389 $341 $391 $441 reversed $282 $-1 #
edge $-1 $446 -62.963347270119328 $342 62.963347270119328 $341 $447 forward 7 unknown #
point $-1 62.963347270119328 26.092693642413114 -9.5601807548251259 #
vertex $-1 $346 $448 #
straight-curve $-1 0 26.092693642413114 9.5601807548251259 -1 0 0 I I #
plane-surface $-1 0 26.092693642413114 0 0 -1 0 0 0 -1 forward_v I I I I #
edge $-1 $403 -26.092693642413114 $408 26.092693642413114 $384 $449 forward 7 unknown #
coedge $-1 $387 $350 $433 $450 forward $353 $-1 #
vertex $-1 $406 $451 #
straight-curve $-1 0 -26.092693642413114 9.5601807548251259 1 0 0 I I #
coedge $-1 $352 $387 $392 $442 forward $353 $-1 #
edge $-1 $354 -62.963347270119328 $452 62.963347270119328 $352 $453 forward 7 unknown #
point $-1 62.963347270119328 -26.092693642413114 -9.5601807548251259 #
face $-1 $454 $455 $15 $-1 $456 reversed single #
loop $-1 $-1 $457 $357 #
plane-surface $-1 -73.311117463501233 0 7.2520770549641043 1 0 0 0 0 -1 forward_v I I I I #
coedge $-1 $458 $459 $460 $461 reversed $358 $-1 #
coedge $-1 $360 $369 $462 $463 reversed $215 $-1 #
coedge $-1 $464 $422 $360 $419 forward $465 $-1 #
edge $-1 $420 -4.2187606087122438 $466 9.5601807548251259 $360 $467 forward 7 unknown #
vertex $-1 $419 $468 #
straight-curve $-1 62.963347270119328 10.846714669093162 4.2187606087122447 0 -1 0 I I #
coedge $-1 $418 $469 $362 $423 forward $465 $-1 #
edge $-1 $470 70.273925077630295 $420 76.381059476666238 $422 $471 forward 7 unknown #
edge $-1 $364 6.4474503648663717 $470 15.245978973319952 $366 $472 forward 7 unknown #
point $-1 60.00254984533872 17.294165033959533 9.5601807548251259 #
coedge $-1 $473 $366 $469 $474 forward $294 $-1 #
coedge $-1 $367 $473 $475 $476 forward $294 $-1 #
coedge $-1 $475 $477 $369 $429 reversed $478 $-1 #
edge $-1 $430 -9.5601807548251259 $479 9.5601807548251259 $369 $480 forward 7 unknown #
vertex $-1 $370 $481 #
straight-curve $-1 62.963347270119328 0 9.5601807548251259 0 1 0 I I #
plane-surface $-1 -62.963347270119328 0 0 1 0 0 0 0 -1 forward_v I I I I #
coedge $-1 $384 $383 $407 $450 reversed $274 $-1 #
edge $-1 $437 -26.092693642413114 $435 26.092693642413114 $383 $482 forward 7 unknown #
vertex $-1 $390 $483 #
straight-curve $-1 -73.311117463501233 26.092693642413114 7.2520770549641043 0 0 -1 I I #
vertex $-1 $434 $484 #
straight-curve $-1 -68.137232366810281 -26.092693642413114 4.9439733551030827 -1 0 0 I I #
straight-curve $-1 -68.137232366810281 26.092693642413114 4.9439733551030827 1 0 0 I I #
coedge $-1 $392 $391 $445 $485 reversed $393 $-1 #
edge $-1 $395 -4.9439733551030827 $446 9.5601807548251259 $400 $486 forward 7 unknown #
edge $-1 $394 -4.9439733551030827 $452 9.5601807548251259 $392 $487 forward 7 unknown #
point $-1 -62.963347270119328 -26.092693642413114 4.9439733551030827 #
point $-1 -62.963347270119328 26.092693642413114 4.9439733551030827 #
coedge $-1 $398 $397 $440 $485 forward $332 $-1 #
vertex $-1 $401 $488 #
straight-curve $-1 0 26.092693642413114 -9.5601807548251259 1 0 0 I I #
point $-1 -73.311117463501233 26.092693642413114 9.5601807548251259 #
straight-curve $-1 -73.311117463501233 0 9.5601807548251259 0 -1 0 I I #
edge $-1 $408 -2.3081036998610216 $437 2.3081036998610216 $433 $489 forward 7 unknown #
point $-1 -73.311117463501233 -26.092693642413114 9.5601807548251259 #
vertex $-1 $485 $490 #
straight-curve $-1 0 -26.092693642413114 -9.5601807548251259 -1 0 0 I I #
face $-1 $491 $478 $15 $-1 $492 reversed single #
loop $-1 $-1 $462 $413 #
plane-surface $-1 0 0 -9.5601807548251259 0 0 1 1 0 0 forward_v I I I I #
coedge $-1 $493 $494 $495 $496 forward $414 $-1 #
coedge $-1 $497 $416 $498 $499 forward $358 $-1 #
coedge $-1 $416 $497 $500 $501 forward $358 $-1 #
coedge $-1 $502 $503 $416 $461 forward $504 $-1 #
edge $-1 $505 -26.092693642413114 $506 26.092693642413114 $460 $507 forward 7 unknown #
coedge $-1 $508 $509 $417 $463 forward $455 $-1 #
edge $-1 $466 -26.092693642413114 $479 26.092693642413114 $417 $510 forward 7 unknown #
coedge $-1 $511 $418 $509 $512 reversed $465 $-1 #
loop $-1 $-1 $422 $513 #
vertex $-1 $463 $514 #
straight-curve $-1 62.963347270119328 26.092693642413114 0 0 0 -1 I I #
point $-1 62.963347270119328 26.092693642413114 4.2187606087122438 #
coedge $-1 $422 $495 $426 $474 reversed $465 $-1 #
vertex $-1 $474 $515 #
straight-curve $-1 25.933075881916725 26.092693642413114 71.023141061599375 0.48480960649040278 0 -0.87461971476443456 I I #
straight-curve $-1 60.00254984533872 10.846714669093162 9.5601807548251401 0 1 0 I I #
coedge $-1 $427 $426 $494 $516 forward $294 $-1 #
edge $-1 $470 -60.00254984533872 $517 73.311117463501233 $469 $518 forward 7 unknown #
coedge $-1 $519 $428 $427 $476 reversed $478 $-1 #
edge $-1 $520 -73.311117463501233 $430 62.963347270119328 $475 $521 forward 7 unknown #
coedge $-1 $428 $522 $508 $523 reversed $478 $-1 #
loop $-1 $-1 $522 $454 #
vertex $-1 $429 $524 #
straight-curve $-1 62.963347270119328 -26.092693642413114 0 0 0 -1 I I #
point $-1 62.963347270119328 -26.092693642413114 9.5601807548251259 #
straight-curve $-1 -73.311117463501233 0 4.9439733551030827 0 1 0 I I #
point $-1 -73.311117463501233 26.092693642413114 4.9439733551030827 #
point $-1 -73.311117463501233 -26.092693642413114 4.9439733551030827 #
edge $-1 $452 -26.092693642413114 $446 26.092693642413114 $440 $525 forward 7 unknown #
straight-curve $-1 -62.963347270119328 26.092693642413114 0 0 0 -1 I I #
straight-curve $-1 -62.963347270119328 -26.092693642413114 0 0 0 -1 I I #
point $-1 -62.963347270119328 26.092693642413114 -9.5601807548251259 #
straight-curve $-1 -73.311117463501233 -26.092693642413114 7.2520770549641043 0 0 -1 I I #
point $-1 -62.963347270119328 -26.092693642413114 -9.5601807548251259 #
face $-1 $513 $504 $15 $-1 $526 reversed single #
plane-surface $-1 0 -26.092693642413114 0 0 1 0 0 0 1 forward_v I I I I #
coedge $-1 $527 $457 $497 $528 reversed $414 $-1 #
coedge $-1 $457 $527 $473 $516 reversed $414 $-1 #
coedge $-1 $469 $500 $457 $496 reversed $465 $-1 #
edge $-1 $517 -2.3081036998610216 $529 2.3081036998610216 $495 $530 forward 7 unknown #
coedge $-1 $459 $458 $493 $528 forward $358 $-1 #
coedge $-1 $522 $519 $458 $499 reversed $478 $-1 #
edge $-1 $505 -5.1738850966909524 $531 5.1738850966909524 $498 $532 forward 7 unknown #
coedge $-1 $495 $511 $459 $501 reversed $465 $-1 #
edge $-1 $529 -5.1738850966909524 $506 5.1738850966909524 $500 $533 forward 7 unknown #
coedge $-1 $534 $460 $511 $535 forward $504 $-1 #
coedge $-1 $460 $534 $522 $536 reversed $504 $-1 #
loop $-1 $-1 $460 $491 #
vertex $-1 $536 $537 #
vertex $-1 $535 $538 #
straight-curve $-1 -62.963347270119328 0 4.9439733551030827 0 1 0 I I #
coedge $-1 $539 $462 $477 $523 forward $455 $-1 #
coedge $-1 $462 $539 $464 $512 forward $455 $-1 #
straight-curve $-1 62.963347270119328 0 -9.5601807548251259 0 -1 0 I I #
coedge $-1 $500 $464 $502 $535 reversed $465 $-1 #
edge $-1 $540 -62.963347270119328 $466 62.963347270119328 $464 $541 forward 7 unknown #
face $-1 $-1 $465 $15 $-1 $542 reversed single #
point $-1 62.963347270119328 26.092693642413114 -9.5601807548251259 #
point $-1 60.00254984533872 26.092693642413114 9.5601807548251259 #
edge $-1 $517 -26.092693642413114 $520 26.092693642413114 $494 $543 forward 7 unknown #
vertex $-1 $474 $544 #
straight-curve $-1 0 26.092693642413114 9.5601807548251259 -1 0 0 I I #
coedge $-1 $498 $475 $527 $545 forward $478 $-1 #
vertex $-1 $516 $546 #
straight-curve $-1 0 -26.092693642413114 9.5601807548251259 1 0 0 I I #
coedge $-1 $477 $498 $503 $536 forward $478 $-1 #
edge $-1 $479 -62.963347270119328 $547 62.963347270119328 $477 $548 forward 7 unknown #
point $-1 62.963347270119328 -26.092693642413114 -9.5601807548251259 #
straight-curve $-1 -62.963347270119328 0 -9.5601807548251259 0 1 0 I I #
plane-surface $-1 -62.963347270119328 0 0 1 0 0 0 0 -1 forward_v I I I I #
coedge $-1 $494 $493 $519 $545 reversed $414 $-1 #
edge $-1 $531 -26.092693642413114 $529 26.092693642413114 $493 $549 forward 7 unknown #
vertex $-1 $501 $550 #
straight-curve $-1 -73.311117463501233 26.092693642413114 7.2520770549641043 0 0 -1 I I #
vertex $-1 $528 $551 #
straight-curve $-1 -68.137232366810281 -26.092693642413114 4.9439733551030827 -1 0 0 I I #
straight-curve $-1 -68.137232366810281 26.092693642413114 4.9439733551030827 1 0 0 I I #
coedge $-1 $503 $502 $539 $552 reversed $504 $-1 #
edge $-1 $506 -4.9439733551030827 $540 9.5601807548251259 $511 $553 forward 7 unknown #
edge $-1 $505 -4.9439733551030827 $547 9.5601807548251259 $503 $554 forward 7 unknown #
point $-1 -62.963347270119328 -26.092693642413114 4.9439733551030827 #
point $-1 -62.963347270119328 26.092693642413114 4.9439733551030827 #
coedge $-1 $509 $508 $534 $552 forward $455 $-1 #
vertex $-1 $512 $555 #
straight-curve $-1 0 26.092693642413114 -9.5601807548251259 1 0 0 I I #
plane-surface $-1 0 26.092693642413114 0 0 -1 0 0 0 -1 forward_v I I I I #
straight-curve $-1 -73.311117463501233 0 9.5601807548251259 0 -1 0 I I #
point $-1 -73.311117463501233 26.092693642413114 9.5601807548251259 #
edge $-1 $520 -2.3081036998610216 $531 2.3081036998610216 $527 $556 forward 7 unknown #
point $-1 -73.311117463501233 -26.092693642413114 9.5601807548251259 #
vertex $-1 $552 $557 #
straight-curve $-1 0 -26.092693642413114 -9.5601807548251259 -1 0 0 I I #
straight-curve $-1 -73.311117463501233 0 4.9439733551030827 0 1 0 I I #
point $-1 -73.311117463501233 26.092693642413114 4.9439733551030827 #
point $-1 -73.311117463501233 -26.092693642413114 4.9439733551030827 #
edge $-1 $547 -26.092693642413114 $540 26.092693642413114 $534 $558 forward 7 unknown #
straight-curve $-1 -62.963347270119328 26.092693642413114 0 0 0 -1 I I #
straight-curve $-1 -62.963347270119328 -26.092693642413114 0 0 0 -1 I I #
point $-1 -62.963347270119328 26.092693642413114 -9.5601807548251259 #
straight-curve $-1 -73.311117463501233 -26.092693642413114 7.2520770549641043 0 0 -1 I I #
point $-1 -62.963347270119328 -26.092693642413114 -9.5601807548251259 #
straight-curve $-1 -62.963347270119328 0 -9.5601807548251259 0 1 0 I I #
End-of-ACIS-data 