500 0 5 0           
7 Unknown 11 ACIS 5.0 NT 24 Fri Mar 26 18:38:48 1999 
-1 9.9999999999999995e-007 1e-010 
body $-1 $5 $-1 $6 #
body $-1 $7 $-1 $8 #
body $-1 $9 $-1 $10 #
body $-1 $11 $-1 $12 #
body $-1 $13 $-1 $14 #
lump $-1 $-1 $15 $0 #
transform $-1 1 0 0 0 1 0 0 0 1 46.362498855555899 27.12744557964249 10.354824231311333 1 rotate no_reflect no_shear #
lump $-1 $-1 $16 $1 #
transform $-1 1 0 0 0 1 0 0 0 1 46.362498855555899 27.12744557964249 10.354824231311333 1 rotate no_reflect no_shear #
lump $-1 $-1 $17 $2 #
transform $-1 1 0 0 0 1 0 0 0 1 46.362498855555899 27.12744557964249 10.354824231311333 1 rotate no_reflect no_shear #
lump $-1 $-1 $18 $3 #
transform $-1 1 0 0 0 1 0 0 0 1 46.362498855555899 27.12744557964249 10.354824231311333 1 rotate no_reflect no_shear #
lump $-1 $-1 $19 $4 #
transform $-1 1 0 0 0 1 0 0 0 1 46.362498855555899 27.12744557964249 10.354824231311333 1 rotate no_reflect no_shear #
shell $-1 $-1 $-1 $20 $-1 $5 #
shell $-1 $-1 $-1 $21 $-1 $7 #
shell $-1 $-1 $-1 $22 $-1 $9 #
shell $-1 $-1 $-1 $23 $-1 $11 #
shell $-1 $-1 $-1 $24 $-1 $13 #
face $-1 $25 $26 $15 $-1 $27 forward single #
face $-1 $28 $29 $16 $-1 $30 forward single #
face $-1 $31 $32 $17 $-1 $33 forward single #
face $-1 $34 $35 $18 $-1 $36 reversed single #
face $-1 $37 $38 $19 $-1 $39 forward single #
face $-1 $40 $41 $15 $-1 $42 reversed single #
loop $-1 $-1 $43 $20 #
plane-surface $-1 0 0 10.354824231311333 0 0 1 1 0 0 forward_v I I I I #
face $-1 $44 $45 $16 $-1 $46 reversed single #
loop $-1 $-1 $47 $21 #
plane-surface $-1 -46.362498855555899 0 0 1 0 0 0 0 -1 forward_v I I I I #
face $-1 $48 $49 $17 $-1 $50 forward single #
loop $-1 $-1 $51 $22 #
plane-surface $-1 46.362498855555899 0 0 -1 0 0 0 0 1 forward_v I I I I #
face $-1 $52 $53 $18 $-1 $54 reversed single #
loop $-1 $-1 $55 $23 #
plane-surface $-1 32.816352368064273 -108.22655662926795 50.858793439894654 -1 0 0 0 -0.87461971476443456 0.48480960649040278 forward_v I I I I #
face $-1 $56 $57 $19 $-1 $58 forward single #
loop $-1 $59 $60 $24 #
cone-surface $-1 29.220043895562 -25.370195519412245 7.8394146660984925 0 0.87461971476443456 -0.48480960649040278 1 0 0 1 I I 0 1 1 forward I I I I #
face $-1 $61 $62 $15 $-1 $63 reversed single #
loop $-1 $-1 $64 $25 #
plane-surface $-1 0 0 -10.354824231311333 0 0 1 1 0 0 forward_v I I I I #
coedge $-1 $65 $66 $67 $68 forward $26 $-1 #
face $-1 $69 $70 $16 $-1 $71 reversed single #
loop $-1 $-1 $72 $28 #
plane-surface $-1 0 27.12744557964249 0 0 -1 0 0 0 -1 forward_v I I I I #
coedge $-1 $73 $74 $75 $76 forward $29 $-1 #
face $-1 $77 $78 $17 $-1 $79 reversed single #
loop $-1 $-1 $80 $31 #
plane-surface $-1 0 0 10.354824231311333 0 0 1 1 0 0 forward_v I I I I #
coedge $-1 $81 $82 $83 $84 forward $32 $-1 #
face $-1 $85 $86 $18 $-1 $87 reversed single #
loop $-1 $-1 $88 $34 #
plane-surface $-1 29.220043895562 -27.127445579642497 5.9048237877470484 0 -0.87461971476443456 0.48480960649040278 1 0 0 forward_v I I I I #
coedge $-1 $89 $90 $91 $92 reversed $35 $-1 #
face $-1 $-1 $93 $19 $-1 $94 forward single #
loop $-1 $95 $96 $37 #
cone-surface $-1 29.220043895562 -24.408973318471073 7.3066005194225951 0 0.87461971476443456 -0.48480960649040278 0.5 0 0 1 I I -0.70710678118654746 0.70710678118654746 0.5 forward I I I I #
loop $-1 $-1 $97 $24 #
coedge $-1 $60 $60 $98 $99 reversed $38 $-1 #
face $-1 $100 $101 $15 $-1 $102 reversed single #
loop $-1 $-1 $103 $40 #
plane-surface $-1 0 -27.12744557964249 0 0 1 0 0 0 1 forward_v I I I I #
coedge $-1 $104 $105 $106 $107 forward $41 $-1 #
coedge $-1 $108 $43 $109 $110 forward $26 $-1 #
coedge $-1 $43 $108 $111 $112 forward $26 $-1 #
coedge $-1 $113 $114 $43 $68 reversed $115 $-1 #
edge $-1 $116 -27.12744557964249 $117 27.12744557964249 $67 $118 forward 7 unknown #
face $-1 $119 $120 $16 $-1 $121 reversed single #
loop $-1 $-1 $75 $44 #
plane-surface $-1 -53.135572099301704 0 5.3932179406491807 0 0 1 1 0 0 forward_v I I I I #
coedge $-1 $122 $123 $73 $124 forward $45 $-1 #
coedge $-1 $125 $47 $72 $124 reversed $29 $-1 #
coedge $-1 $47 $125 $126 $127 reversed $29 $-1 #
coedge $-1 $128 $129 $47 $76 reversed $70 $-1 #
edge $-1 $130 -27.12744557964249 $131 27.12744557964249 $75 $132 forward 7 unknown #
face $-1 $133 $134 $17 $-1 $135 reversed single #
loop $-1 $-1 $136 $48 #
plane-surface $-1 0 -27.12744557964249 0 0 1 0 0 0 1 forward_v I I I I #
coedge $-1 $137 $138 $139 $140 forward $49 $-1 #
coedge $-1 $139 $51 $136 $141 reversed $32 $-1 #
coedge $-1 $51 $139 $142 $143 reversed $32 $-1 #
coedge $-1 $144 $145 $51 $84 reversed $134 $-1 #
edge $-1 $146 -27.12744557964249 $147 27.12744557964249 $83 $148 forward 7 unknown #
face $-1 $149 $150 $18 $-1 $151 reversed single #
loop $-1 $-1 $152 $52 #
plane-surface $-1 25.623735423059728 -108.22655662926795 50.858793439894654 1 0 0 0 0.87461971476443456 -0.48480960649040278 forward_v I I I I #
coedge $-1 $153 $154 $155 $156 reversed $53 $-1 #
coedge $-1 $90 $55 $157 $158 reversed $35 $-1 #
coedge $-1 $55 $89 $153 $159 reversed $35 $-1 #
coedge $-1 $155 $160 $55 $92 forward $161 $-1 #
edge $-1 $162 26.985832734991483 $163 29.452508168334049 $91 $164 forward 7 unknown #
loop $-1 $-1 $98 $56 #
plane-surface $-1 29.220043895562 -27.127445579642497 5.9048237877470484 0 -0.87461971476443456 0.48480960649040278 1 0 0 forward_v I I I I #
loop $-1 $-1 $165 $37 #
coedge $-1 $96 $96 $97 $166 reversed $57 $-1 #
coedge $-1 $97 $97 $96 $166 forward $59 $-1 #
coedge $-1 $98 $98 $60 $99 forward $93 $-1 #
edge $-1 $167 3.3750601679248526e-016 $167 6.2831853071796004 $98 $168 forward 7 unknown #
face $-1 $169 $170 $15 $-1 $171 reversed single #
loop $-1 $-1 $172 $61 #
plane-surface $-1 -46.362498855555899 0 0 1 0 0 0 0 -1 forward_v I I I I #
coedge $-1 $173 $111 $174 $175 forward $62 $-1 #
coedge $-1 $176 $64 $173 $177 forward $41 $-1 #
coedge $-1 $64 $176 $178 $179 forward $41 $-1 #
coedge $-1 $114 $113 $64 $107 reversed $115 $-1 #
edge $-1 $180 -27.12744557964249 $181 27.12744557964249 $106 $182 forward 7 unknown #
coedge $-1 $66 $65 $183 $184 forward $26 $-1 #
coedge $-1 $185 $186 $65 $110 reversed $170 $-1 #
edge $-1 $117 -46.362498855555899 $187 46.362498855555899 $109 $188 forward 7 unknown #
coedge $-1 $103 $189 $66 $112 reversed $62 $-1 #
edge $-1 $190 -46.362498855555899 $116 46.362498855555899 $111 $191 forward 7 unknown #
coedge $-1 $106 $67 $189 $192 forward $115 $-1 #
coedge $-1 $67 $106 $185 $193 reversed $115 $-1 #
loop $-1 $-1 $113 $169 #
vertex $-1 $68 $194 #
vertex $-1 $68 $195 #
straight-curve $-1 46.362498855555899 0 10.354824231311333 0 1 0 I I #
face $-1 $196 $197 $16 $-1 $198 forward single #
loop $-1 $-1 $199 $69 #
plane-surface $-1 -59.90864534304751 0 7.8740210859802566 1 0 0 0 0 -1 forward_v I I I I #
coedge $-1 $200 $72 $129 $201 reversed $45 $-1 #
coedge $-1 $72 $200 $202 $203 reversed $45 $-1 #
edge $-1 $204 -10.354824231311333 $131 -5.3932179406491807 $72 $205 forward 7 unknown #
coedge $-1 $74 $73 $206 $207 reversed $29 $-1 #
coedge $-1 $208 $209 $74 $127 forward $210 $-1 #
edge $-1 $130 5.3932179406491807 $211 10.354824231311333 $126 $212 forward 7 unknown #
coedge $-1 $213 $75 $209 $214 forward $70 $-1 #
coedge $-1 $75 $213 $122 $201 forward $70 $-1 #
vertex $-1 $127 $215 #
vertex $-1 $124 $216 #
straight-curve $-1 -46.362498855555899 0 5.3932179406491807 0 1 0 I I #
face $-1 $217 $218 $17 $-1 $219 reversed single #
loop $-1 $-1 $220 $77 #
plane-surface $-1 53.135572099301712 0 5.3932179406491807 0 0 1 1 0 0 forward_v I I I I #
coedge $-1 $221 $222 $81 $141 forward $78 $-1 #
coedge $-1 $223 $80 $222 $224 forward $49 $-1 #
coedge $-1 $80 $223 $225 $226 forward $49 $-1 #
coedge $-1 $82 $81 $80 $140 reversed $32 $-1 #
edge $-1 $227 -27.12744557964249 $228 27.12744557964249 $80 $229 forward 7 unknown #
edge $-1 $228 -10.354824231311333 $147 -5.3932179406491807 $136 $230 forward 7 unknown #
coedge $-1 $225 $231 $82 $143 forward $232 $-1 #
edge $-1 $146 5.3932179406491807 $227 10.354824231311333 $142 $233 forward 7 unknown #
coedge $-1 $220 $83 $231 $234 forward $134 $-1 #
coedge $-1 $83 $220 $221 $235 forward $134 $-1 #
vertex $-1 $143 $236 #
vertex $-1 $141 $237 #
straight-curve $-1 46.362498855555899 0 5.3932179406491807 0 -1 0 I I #
face $-1 $-1 $161 $18 $-1 $238 forward single #
loop $-1 $-1 $239 $85 #
plane-surface $-1 0 -27.12744557964249 0 0 1 0 0 0 1 forward_v I I I I #
coedge $-1 $240 $241 $242 $243 reversed $86 $-1 #
coedge $-1 $244 $88 $90 $159 forward $53 $-1 #
coedge $-1 $88 $244 $240 $245 forward $53 $-1 #
coedge $-1 $242 $91 $88 $156 forward $161 $-1 #
edge $-1 $163 -18.206330420283273 $246 -11.013713475278728 $155 $247 forward 7 unknown #
coedge $-1 $248 $249 $89 $158 forward $150 $-1 #
edge $-1 $250 -19.524572932200265 $162 -15.074572488635994 $157 $251 forward 7 unknown #
edge $-1 $163 -5.0879260648301585 $250 -1.4320236426557382e-014 $90 $252 forward 7 unknown #
coedge $-1 $91 $242 $248 $253 forward $161 $-1 #
loop $-1 $-1 $242 $149 #
vertex $-1 $158 $254 #
vertex $-1 $92 $255 #
straight-curve $-1 32.816352368064273 -54.113278314633973 10.354824231311333 0 1 0 I I #
coedge $-1 $165 $165 $-1 $256 reversed $95 $-1 #
edge $-1 $257 0 $257 6.2831853071796004 $96 $258 forward 7 unknown #
vertex $-1 $99 $259 #
ellipse-curve $-1 29.220043895562 -25.894107862971211 8.1298240095291927 0 -0.87461971476443456 0.48480960649040278 1 0 0 1 I I #
face $-1 $-1 $115 $15 $-1 $260 reversed single #
loop $-1 $-1 $185 $100 #
plane-surface $-1 0 27.12744557964249 0 0 -1 0 0 0 -1 forward_v I I I I #
coedge $-1 $261 $183 $186 $262 forward $101 $-1 #
coedge $-1 $189 $103 $104 $177 reversed $62 $-1 #
coedge $-1 $183 $261 $103 $175 reversed $101 $-1 #
edge $-1 $190 -10.354824231311333 $263 10.354824231311333 $174 $264 forward 7 unknown #
coedge $-1 $105 $104 $261 $265 forward $41 $-1 #
edge $-1 $181 -46.362498855555899 $263 46.362498855555899 $173 $266 forward 7 unknown #
coedge $-1 $186 $185 $105 $179 reversed $170 $-1 #
edge $-1 $267 -46.362498855555899 $180 46.362498855555899 $178 $268 forward 7 unknown #
vertex $-1 $107 $269 #
vertex $-1 $192 $270 #
straight-curve $-1 46.362498855555899 0 -10.354824231311333 0 -1 0 I I #
coedge $-1 $172 $174 $108 $184 reversed $101 $-1 #
edge $-1 $187 -27.12744557964249 $190 27.12744557964249 $183 $271 forward 7 unknown #
coedge $-1 $178 $109 $114 $193 forward $170 $-1 #
coedge $-1 $109 $178 $172 $262 reversed $170 $-1 #
vertex $-1 $110 $272 #
straight-curve $-1 0 27.12744557964249 10.354824231311333 -1 0 0 I I #
coedge $-1 $111 $173 $113 $192 reversed $62 $-1 #
vertex $-1 $184 $273 #
straight-curve $-1 0 -27.12744557964249 10.354824231311333 1 0 0 I I #
edge $-1 $116 -10.354824231311333 $181 10.354824231311333 $113 $274 forward 7 unknown #
edge $-1 $117 -10.354824231311333 $180 10.354824231311333 $114 $275 forward 7 unknown #
point $-1 46.362498855555899 -27.12744557964249 10.354824231311333 #
point $-1 46.362498855555899 27.12744557964249 10.354824231311333 #
face $-1 $-1 $210 $16 $-1 $276 reversed single #
loop $-1 $-1 $206 $119 #
plane-surface $-1 0 0 10.354824231311333 0 0 1 1 0 0 forward_v I I I I #
coedge $-1 $277 $278 $200 $279 forward $120 $-1 #
coedge $-1 $123 $122 $199 $279 reversed $45 $-1 #
edge $-1 $280 -6.7730732437458059 $131 6.7730732437458059 $122 $281 forward 7 unknown #
coedge $-1 $282 $206 $123 $203 forward $197 $-1 #
edge $-1 $204 46.362498855555899 $283 59.90864534304751 $123 $284 forward 7 unknown #
vertex $-1 $203 $285 #
straight-curve $-1 -46.362498855555899 27.12744557964249 0 0 0 -1 I I #
coedge $-1 $202 $286 $125 $207 forward $197 $-1 #
edge $-1 $211 -27.12744557964249 $204 27.12744557964249 $206 $287 forward 7 unknown #
coedge $-1 $288 $126 $286 $289 reversed $210 $-1 #
coedge $-1 $126 $288 $128 $214 reversed $210 $-1 #
loop $-1 $-1 $126 $196 #
vertex $-1 $127 $290 #
straight-curve $-1 -46.362498855555899 -27.12744557964249 0 0 0 1 I I #
coedge $-1 $129 $128 $277 $291 forward $70 $-1 #
edge $-1 $130 -6.7730732437458059 $292 6.7730732437458059 $209 $293 forward 7 unknown #
point $-1 -46.362498855555899 -27.12744557964249 5.3932179406491807 #
point $-1 -46.362498855555899 27.12744557964249 5.3932179406491807 #
face $-1 $-1 $232 $17 $-1 $294 reversed single #
loop $-1 $-1 $295 $133 #
plane-surface $-1 59.908645343047517 0 7.8740210859802566 -1 0 0 0 0 1 forward_v I I I I #
coedge $-1 $145 $144 $296 $297 forward $134 $-1 #
coedge $-1 $298 $136 $145 $235 reversed $78 $-1 #
coedge $-1 $136 $298 $137 $224 reversed $78 $-1 #
coedge $-1 $138 $137 $299 $300 forward $49 $-1 #
edge $-1 $228 -6.773073243745813 $301 6.7730732437458059 $222 $302 forward 7 unknown #
coedge $-1 $303 $142 $138 $226 reversed $232 $-1 #
edge $-1 $304 -59.908645343047517 $227 -46.362498855555899 $225 $305 forward 7 unknown #
vertex $-1 $143 $306 #
vertex $-1 $224 $307 #
straight-curve $-1 46.362498855555899 0 10.354824231311333 0 -1 0 I I #
straight-curve $-1 46.362498855555899 -27.12744557964249 0 0 0 -1 I I #
coedge $-1 $142 $303 $144 $234 reversed $232 $-1 #
loop $-1 $-1 $142 $217 #
straight-curve $-1 46.362498855555899 27.12744557964249 0 0 0 1 I I #
edge $-1 $146 -6.7730732437458059 $308 6.7730732437458059 $231 $309 forward 7 unknown #
edge $-1 $310 -6.7730732437458059 $147 6.7730732437458059 $221 $311 forward 7 unknown #
point $-1 46.362498855555906 27.12744557964249 5.3932179406491807 #
point $-1 46.362498855555906 -27.12744557964249 5.3932179406491807 #
plane-surface $-1 0 0 10.354824231311333 0 0 1 1 0 0 forward_v I I I I #
coedge $-1 $249 $248 $241 $312 forward $150 $-1 #
coedge $-1 $241 $152 $154 $245 reversed $86 $-1 #
coedge $-1 $152 $240 $239 $312 reversed $86 $-1 #
coedge $-1 $160 $155 $152 $243 forward $161 $-1 #
edge $-1 $246 -29.452508168334049 $313 -26.985832734991483 $242 $314 forward 7 unknown #
coedge $-1 $154 $153 $249 $315 reversed $53 $-1 #
edge $-1 $316 1.4320236426557382e-014 $246 5.0879260648301585 $240 $317 forward 7 unknown #
vertex $-1 $156 $318 #
straight-curve $-1 14.610021947781 -24.660770146299924 10.354824231311333 -1 0 0 I I #
coedge $-1 $239 $157 $160 $253 reversed $150 $-1 #
coedge $-1 $157 $239 $244 $315 forward $150 $-1 #
vertex $-1 $158 $319 #
straight-curve $-1 32.816352368064273 -27.12744557964249 25.429396719947327 0 0 1 I I #
straight-curve $-1 32.816352368064273 -27.127445579642497 5.9048237877470484 0 -0.48480960649040278 -0.87461971476443456 I I #
edge $-1 $313 -27.511836676241984 $162 -20.319219731237439 $248 $320 forward 7 unknown #
point $-1 32.816352368064273 -27.12744557964249 10.354824231311333 #
point $-1 32.816352368064273 -24.660770146299924 10.354824231311333 #
edge $-1 $321 1 $321 0 $165 $-1 forward 7 unknown #
vertex $-1 $166 $322 #
ellipse-curve $-1 29.220043895562 -24.846283175853291 7.5490053226677967 0 -0.87461971476443456 0.48480960649040278 1 0 0 1 I I #
point $-1 30.220043895562 -25.894107862971204 8.1298240095291892 #
plane-surface $-1 46.362498855555899 0 0 -1 0 0 0 0 1 forward_v I I I I #
coedge $-1 $174 $172 $176 $265 reversed $101 $-1 #
edge $-1 $187 -10.354824231311333 $267 10.354824231311333 $186 $323 forward 7 unknown #
vertex $-1 $265 $324 #
straight-curve $-1 -46.362498855555899 -27.12744557964249 0 0 0 -1 I I #
edge $-1 $263 -27.12744557964249 $267 27.12744557964249 $261 $325 forward 7 unknown #
straight-curve $-1 0 -27.12744557964249 -10.354824231311333 -1 0 0 I I #
vertex $-1 $179 $326 #
straight-curve $-1 0 27.12744557964249 -10.354824231311333 1 0 0 I I #
point $-1 46.362498855555899 27.12744557964249 -10.354824231311333 #
point $-1 46.362498855555899 -27.12744557964249 -10.354824231311333 #
straight-curve $-1 -46.362498855555899 0 10.354824231311333 0 -1 0 I I #
point $-1 -46.362498855555899 27.12744557964249 10.354824231311333 #
point $-1 -46.362498855555899 -27.12744557964249 10.354824231311333 #
straight-curve $-1 46.362498855555899 -27.12744557964249 0 0 0 -1 I I #
straight-curve $-1 46.362498855555899 27.12744557964249 0 0 0 -1 I I #
plane-surface $-1 0 -27.12744557964249 0 0 1 0 0 0 1 forward_v I I I I #
coedge $-1 $327 $199 $213 $291 reversed $120 $-1 #
coedge $-1 $199 $327 $282 $328 reversed $120 $-1 #
edge $-1 $283 -2.4808031453310768 $280 2.4808031453310759 $200 $329 forward 7 unknown #
vertex $-1 $201 $330 #
straight-curve $-1 -53.135572099301704 27.12744557964249 5.3932179406491807 1 0 0 I I #
coedge $-1 $286 $202 $278 $328 forward $197 $-1 #
vertex $-1 $203 $331 #
straight-curve $-1 0 27.12744557964249 10.354824231311333 -1 0 0 I I #
point $-1 -46.362498855555899 27.12744557964249 10.354824231311333 #
coedge $-1 $206 $282 $208 $289 forward $197 $-1 #
straight-curve $-1 -46.362498855555899 0 10.354824231311333 0 1 0 I I #
coedge $-1 $209 $208 $327 $332 forward $210 $-1 #
edge $-1 $333 -59.90864534304751 $211 -46.362498855555899 $208 $334 forward 7 unknown #
point $-1 -46.362498855555899 -27.12744557964249 10.354824231311333 #
edge $-1 $292 -27.12744557964249 $280 27.12744557964249 $277 $335 forward 7 unknown #
vertex $-1 $291 $336 #
straight-curve $-1 -53.135572099301704 -27.12744557964249 5.3932179406491807 -1 0 0 I I #
plane-surface $-1 0 27.12744557964249 0 0 -1 0 0 0 -1 forward_v I I I I #
coedge $-1 $296 $299 $298 $337 forward $218 $-1 #
coedge $-1 $338 $295 $220 $297 reversed $218 $-1 #
edge $-1 $308 -27.12744557964249 $310 27.12744557964249 $296 $339 forward 7 unknown #
coedge $-1 $222 $221 $295 $337 reversed $78 $-1 #
coedge $-1 $295 $338 $223 $300 reversed $218 $-1 #
edge $-1 $301 -27.12744557964249 $304 27.12744557964249 $299 $340 forward 7 unknown #
vertex $-1 $300 $341 #
straight-curve $-1 53.135572099301712 -27.12744557964249 10.354824231311333 1 0 0 I I #
coedge $-1 $231 $225 $338 $342 forward $232 $-1 #
vertex $-1 $300 $343 #
straight-curve $-1 0 27.12744557964249 10.354824231311333 -1 0 0 I I #
point $-1 46.362498855555899 27.12744557964249 10.354824231311333 #
point $-1 46.362498855555899 -27.12744557964249 10.354824231311333 #
vertex $-1 $297 $344 #
straight-curve $-1 53.135572099301712 27.12744557964249 5.3932179406491807 1 0 0 I I #
vertex $-1 $337 $345 #
straight-curve $-1 53.135572099301712 -27.12744557964249 5.3932179406491807 -1 0 0 I I #
edge $-1 $313 15.074572488635994 $316 19.524572932200265 $239 $346 forward 7 unknown #
vertex $-1 $253 $347 #
straight-curve $-1 25.623735423059728 -54.113278314633973 10.354824231311333 0 -1 0 I I #
edge $-1 $316 11.013713475278728 $250 18.206330420283273 $249 $348 forward 7 unknown #
vertex $-1 $315 $349 #
straight-curve $-1 25.623735423059728 -27.127445579642497 5.9048237877470484 0 0.48480960649040278 0.87461971476443456 I I #
point $-1 25.623735423059728 -24.660770146299924 10.354824231311333 #
point $-1 32.816352368064273 -27.12744557964249 5.9048237877470608 #
straight-curve $-1 53.135572099301712 -27.12744557964249 10.354824231311333 1 0 0 I I #
vertex $-1 $256 $350 #
point $-1 30.220043895562 -24.846283175853291 7.5490053226677967 #
straight-curve $-1 -46.362498855555899 27.12744557964249 0 0 0 -1 I I #
point $-1 -46.362498855555899 -27.12744557964249 -10.354824231311333 #
straight-curve $-1 -46.362498855555899 0 -10.354824231311333 0 1 0 I I #
point $-1 -46.362498855555899 27.12744557964249 -10.354824231311333 #
coedge $-1 $278 $277 $288 $332 reversed $120 $-1 #
edge $-1 $283 -27.12744557964249 $333 27.12744557964249 $278 $351 forward 7 unknown #
straight-curve $-1 -59.90864534304751 27.12744557964249 7.8740210859802566 0 0 -1 I I #
point $-1 -59.90864534304751 27.12744557964249 5.3932179406491807 #
point $-1 -59.90864534304751 27.12744557964249 10.354824231311333 #
edge $-1 $333 -2.4808031453310768 $292 2.4808031453310759 $327 $352 forward 7 unknown #
vertex $-1 $328 $353 #
straight-curve $-1 0 -27.12744557964249 10.354824231311333 1 0 0 I I #
straight-curve $-1 -59.90864534304751 0 5.3932179406491807 0 1 0 I I #
point $-1 -59.90864534304751 -27.12744557964249 5.3932179406491807 #
edge $-1 $301 -2.4808031453310768 $310 2.4808031453310759 $295 $354 forward 7 unknown #
coedge $-1 $299 $296 $303 $342 reversed $218 $-1 #
straight-curve $-1 59.908645343047517 0 5.3932179406491807 0 -1 0 I I #
straight-curve $-1 59.908645343047517 0 10.354824231311333 0 1 0 I I #
point $-1 59.908645343047517 -27.12744557964249 10.354824231311333 #
edge $-1 $304 -2.4808031453310768 $308 2.4808031453310759 $338 $355 forward 7 unknown #
point $-1 59.908645343047517 27.12744557964249 10.354824231311333 #
point $-1 59.908645343047517 27.12744557964249 5.3932179406491807 #
point $-1 59.908645343047517 -27.12744557964249 5.3932179406491807 #
straight-curve $-1 25.623735423059728 -27.12744557964249 25.429396719947327 0 0 -1 I I #
point $-1 25.623735423059728 -27.12744557964249 10.354824231311333 #
straight-curve $-1 14.610021947781 -27.12744557964249 5.90482378774706 1 0 0 I I #
point $-1 25.623735423059728 -27.12744557964249 5.9048237877470608 #
point $-1 29.220043895562 -23.971663461088855 7.0641957161773936 #
straight-curve $-1 -59.90864534304751 0 10.354824231311333 0 -1 0 I I #
straight-curve $-1 -59.90864534304751 -27.12744557964249 7.8740210859802566 0 0 -1 I I #
point $-1 -59.90864534304751 -27.12744557964249 10.354824231311333 #
straight-curve $-1 59.908645343047517 -27.12744557964249 7.8740210859802566 0 0 -1 I I #
straight-curve $-1 59.908645343047517 27.12744557964249 7.8740210859802566 0 0 -1 I I #
End-of-ACIS-data 