500 0 8 0           
7 Unknown 11 ACIS 5.0 NT 24 Fri Mar 26 18:36:24 1999 
-1 9.9999999999999995e-007 1e-010 
body $-1 $8 $-1 $9 #
body $-1 $10 $-1 $11 #
body $-1 $12 $-1 $13 #
body $-1 $14 $-1 $15 #
body $-1 $16 $-1 $17 #
body $-1 $18 $-1 $19 #
body $-1 $20 $-1 $21 #
body $-1 $22 $-1 $23 #
lump $-1 $-1 $24 $0 #
transform $-1 1 0 0 0 1 0 0 0 1 42.789391766106142 18.063033685938091 4 1 rotate no_reflect no_shear #
lump $-1 $-1 $25 $1 #
transform $-1 1 0 0 0 1 0 0 0 1 42.789391766106142 18.063033685938091 4 1 rotate no_reflect no_shear #
lump $-1 $-1 $26 $2 #
transform $-1 1 0 0 0 1 0 0 0 1 42.789391766106142 18.063033685938091 4 1 rotate no_reflect no_shear #
lump $-1 $-1 $27 $3 #
transform $-1 1 0 0 0 1 0 0 0 1 42.789391766106142 18.063033685938091 4 1 rotate no_reflect no_shear #
lump $-1 $-1 $28 $4 #
transform $-1 1 0 0 0 1 0 0 0 1 42.789391766106142 18.063033685938091 4 1 rotate no_reflect no_shear #
lump $-1 $-1 $29 $5 #
transform $-1 1 0 0 0 1 0 0 0 1 42.789391766106142 18.063033685938091 4 1 rotate no_reflect no_shear #
lump $-1 $-1 $30 $6 #
transform $-1 1 0 0 0 1 0 0 0 1 42.789391766106142 18.063033685938091 4 1 rotate no_reflect no_shear #
lump $-1 $-1 $31 $7 #
transform $-1 1 0 0 0 1 0 0 0 1 42.789391766106142 18.063033685938091 4 1 rotate no_reflect no_shear #
shell $-1 $-1 $-1 $32 $-1 $8 #
shell $-1 $-1 $-1 $33 $-1 $10 #
shell $-1 $-1 $-1 $34 $-1 $12 #
shell $-1 $-1 $-1 $35 $-1 $14 #
shell $-1 $-1 $-1 $36 $-1 $16 #
shell $-1 $-1 $-1 $37 $-1 $18 #
shell $-1 $-1 $-1 $38 $-1 $20 #
shell $-1 $-1 $-1 $39 $-1 $22 #
face $-1 $40 $41 $24 $-1 $42 forward single #
face $-1 $43 $44 $25 $-1 $45 forward single #
face $-1 $46 $47 $26 $-1 $48 reversed single #
face $-1 $49 $50 $27 $-1 $51 forward single #
face $-1 $52 $53 $28 $-1 $54 forward single #
face $-1 $55 $56 $29 $-1 $57 reversed single #
face $-1 $58 $59 $30 $-1 $60 forward single #
face $-1 $61 $62 $31 $-1 $63 forward single #
face $-1 $64 $65 $24 $-1 $66 reversed single #
loop $-1 $-1 $67 $32 #
plane-surface $-1 0 0 4 0 0 1 1 0 0 forward_v I I I I #
face $-1 $68 $69 $25 $-1 $70 forward single #
loop $-1 $-1 $71 $33 #
plane-surface $-1 0 -18.063033685938091 0 0 1 0 0 0 1 forward_v I I I I #
face $-1 $72 $73 $26 $-1 $74 reversed single #
loop $-1 $-1 $75 $34 #
plane-surface $-1 49.123440098137159 12.062806768398575 121.85760894709077 0 1 0 0.74314483375859142 0 0.66913059716165679 forward_v I I I I #
face $-1 $76 $77 $27 $-1 $78 forward single #
loop $-1 $79 $80 $35 #
cone-surface $-1 40.961438505375966 13.777157316267008 2.0698913794918328 -0.74314483375859142 0 -0.66913059716165679 0.3345652985808284 0 -0.37157241687929571 1 I I 0 1 0.5 forward I I I I #
face $-1 $81 $82 $28 $-1 $83 forward single #
loop $-1 $84 $85 $36 #
cone-surface $-1 40.961438505375966 16.348683138069664 2.0698913794918328 -0.74314483375859142 0 -0.66913059716165679 0.3345652985808284 0 -0.37157241687929571 1 I I 0 1 0.5 forward I I I I #
face $-1 $86 $87 $29 $-1 $88 reversed single #
loop $-1 $-1 $89 $37 #
plane-surface $-1 -106.38682262741452 12.062806768398575 58.260178085782385 0 1 0 -0.74314483375859142 0 0.66913059716165679 forward_v I I I I #
face $-1 $90 $91 $30 $-1 $92 forward single #
loop $-1 $93 $94 $38 #
cone-surface $-1 -40.961438505375959 13.777157316267008 2.0698913794918399 0.74314483375859142 0 -0.66913059716165679 0.3345652985808284 0 0.37157241687929571 1 I I 0 1 0.5 forward I I I I #
face $-1 $95 $96 $31 $-1 $97 forward single #
loop $-1 $98 $99 $39 #
cone-surface $-1 -40.961438505375959 16.348683138069664 2.0698913794918399 0.74314483375859142 0 -0.66913059716165679 0.3345652985808284 0 0.37157241687929571 1 I I 0 1 0.5 forward I I I I #
face $-1 $100 $101 $24 $-1 $102 reversed single #
loop $-1 $-1 $103 $40 #
plane-surface $-1 0 0 -4 0 0 1 1 0 0 forward_v I I I I #
coedge $-1 $104 $105 $106 $107 forward $41 $-1 #
face $-1 $108 $109 $25 $-1 $110 reversed single #
loop $-1 $-1 $111 $43 #
plane-surface $-1 0 0 4 0 0 1 1 0 0 forward_v I I I I #
coedge $-1 $112 $113 $114 $115 forward $44 $-1 #
face $-1 $116 $117 $26 $-1 $118 reversed single #
loop $-1 $-1 $119 $46 #
plane-surface $-1 -14.473990763171223 15.062920227168338 64.594226417813402 0.74314483375859142 0 0.66913059716165679 0.66913059716165679 0 -0.74314483375859142 forward_v I I I I #
coedge $-1 $120 $121 $122 $123 reversed $47 $-1 #
face $-1 $-1 $124 $27 $-1 $125 forward single #
loop $-1 $126 $127 $49 #
cone-surface $-1 40.299747715943802 13.777157316267008 1.4741023314407471 -0.74314483375859142 0 -0.66913059716165679 0.1672826492904142 0 -0.18578620843964785 1 I I -0.70710678118654746 0.70710678118654746 0.25 forward I I I I #
loop $-1 $-1 $128 $35 #
coedge $-1 $80 $80 $129 $130 reversed $50 $-1 #
face $-1 $-1 $131 $28 $-1 $132 forward single #
loop $-1 $133 $134 $52 #
cone-surface $-1 40.299747715943802 16.348683138069664 1.4741023314407471 -0.74314483375859142 0 -0.66913059716165679 0.1672826492904142 0 -0.18578620843964785 1 I I -0.70710678118654746 0.70710678118654746 0.25 forward I I I I #
loop $-1 $-1 $135 $36 #
coedge $-1 $85 $85 $136 $137 reversed $53 $-1 #
face $-1 $138 $139 $29 $-1 $140 reversed single #
loop $-1 $-1 $141 $55 #
plane-surface $-1 -42.789391766106135 15.062920227168338 0.99679555650502039 -0.74314483375859142 0 0.66913059716165679 0.66913059716165679 0 0.74314483375859142 forward_v I I I I #
coedge $-1 $142 $143 $144 $145 reversed $56 $-1 #
face $-1 $-1 $146 $30 $-1 $147 forward single #
loop $-1 $148 $149 $58 #
cone-surface $-1 -40.299747715943795 13.777157316267008 1.4741023314407542 0.74314483375859142 0 -0.66913059716165679 0.1672826492904142 0 0.18578620843964785 1 I I -0.70710678118654746 0.70710678118654746 0.25 forward I I I I #
loop $-1 $-1 $150 $38 #
coedge $-1 $94 $94 $151 $152 reversed $59 $-1 #
face $-1 $-1 $153 $31 $-1 $154 forward single #
loop $-1 $155 $156 $61 #
cone-surface $-1 -40.299747715943795 16.348683138069664 1.4741023314407542 0.74314483375859142 0 -0.66913059716165679 0.1672826492904142 0 0.18578620843964785 1 I I -0.70710678118654746 0.70710678118654746 0.25 forward I I I I #
loop $-1 $-1 $157 $39 #
coedge $-1 $99 $99 $158 $159 reversed $62 $-1 #
face $-1 $160 $161 $24 $-1 $162 reversed single #
loop $-1 $-1 $163 $64 #
plane-surface $-1 0 -18.063033685938091 0 0 1 0 0 0 1 forward_v I I I I #
coedge $-1 $164 $165 $166 $167 forward $65 $-1 #
coedge $-1 $168 $67 $169 $170 forward $41 $-1 #
coedge $-1 $67 $168 $171 $172 forward $41 $-1 #
coedge $-1 $173 $174 $67 $107 reversed $175 $-1 #
edge $-1 $176 -18.063033685938091 $177 18.063033685938091 $106 $178 forward 7 unknown #
face $-1 $179 $180 $25 $-1 $181 reversed single #
loop $-1 $-1 $182 $68 #
plane-surface $-1 -42.789391766106142 0 0 1 0 0 0 0 -1 forward_v I I I I #
coedge $-1 $183 $184 $113 $185 forward $69 $-1 #
coedge $-1 $186 $71 $187 $188 reversed $44 $-1 #
coedge $-1 $71 $186 $111 $185 reversed $44 $-1 #
coedge $-1 $189 $190 $71 $115 reversed $191 $-1 #
edge $-1 $192 -4 $193 4 $114 $194 forward 7 unknown #
face $-1 $195 $196 $26 $-1 $197 forward single #
loop $-1 $-1 $198 $72 #
plane-surface $-1 0 18.063033685938091 0 0 -1 0 0 0 -1 forward_v I I I I #
coedge $-1 $199 $200 $201 $202 reversed $73 $-1 #
coedge $-1 $121 $75 $203 $204 reversed $47 $-1 #
coedge $-1 $75 $120 $199 $205 reversed $47 $-1 #
coedge $-1 $201 $206 $75 $123 forward $207 $-1 #
edge $-1 $208 56.928804473545384 $209 59.932008917040363 $122 $210 forward 7 unknown #
loop $-1 $-1 $129 $76 #
plane-surface $-1 -14.473990763171223 15.062920227168338 64.594226417813402 0.74314483375859142 0 0.66913059716165679 0.66913059716165679 0 -0.74314483375859142 forward_v I I I I #
loop $-1 $-1 $211 $49 #
coedge $-1 $127 $127 $128 $212 reversed $77 $-1 #
coedge $-1 $128 $128 $127 $212 forward $79 $-1 #
coedge $-1 $129 $129 $80 $130 forward $124 $-1 #
edge $-1 $213 0 $213 6.2831853071796004 $129 $214 forward 7 unknown #
loop $-1 $-1 $136 $81 #
plane-surface $-1 -14.473990763171223 15.062920227168338 64.594226417813402 0.74314483375859142 0 0.66913059716165679 0.66913059716165679 0 -0.74314483375859142 forward_v I I I I #
loop $-1 $-1 $215 $52 #
coedge $-1 $134 $134 $135 $216 reversed $82 $-1 #
coedge $-1 $135 $135 $134 $216 forward $84 $-1 #
coedge $-1 $136 $136 $85 $137 forward $131 $-1 #
edge $-1 $217 0 $217 6.2831853071796004 $136 $218 forward 7 unknown #
face $-1 $219 $220 $29 $-1 $221 reversed single #
loop $-1 $-1 $222 $86 #
plane-surface $-1 0 18.063033685938091 0 0 -1 0 0 0 -1 forward_v I I I I #
coedge $-1 $223 $224 $225 $226 reversed $87 $-1 #
coedge $-1 $143 $89 $227 $228 reversed $56 $-1 #
coedge $-1 $89 $142 $223 $229 reversed $56 $-1 #
coedge $-1 $225 $230 $89 $145 forward $231 $-1 #
edge $-1 $232 10.404019547601116 $233 13.10811690707645 $144 $234 forward 7 unknown #
loop $-1 $-1 $151 $90 #
plane-surface $-1 -42.789391766106135 15.062920227168338 0.99679555650502039 -0.74314483375859142 0 0.66913059716165679 0.66913059716165679 0 0.74314483375859142 forward_v I I I I #
loop $-1 $-1 $235 $58 #
coedge $-1 $149 $149 $150 $236 reversed $91 $-1 #
coedge $-1 $150 $150 $149 $236 forward $93 $-1 #
coedge $-1 $151 $151 $94 $152 forward $146 $-1 #
edge $-1 $237 0 $237 6.2831853071796004 $151 $238 forward 7 unknown #
loop $-1 $-1 $158 $95 #
plane-surface $-1 -42.789391766106135 15.062920227168338 0.99679555650502039 -0.74314483375859142 0 0.66913059716165679 0.66913059716165679 0 0.74314483375859142 forward_v I I I I #
loop $-1 $-1 $239 $61 #
coedge $-1 $156 $156 $157 $240 reversed $96 $-1 #
coedge $-1 $157 $157 $156 $240 forward $98 $-1 #
coedge $-1 $158 $158 $99 $159 forward $153 $-1 #
edge $-1 $241 0 $241 6.2831853071796004 $158 $242 forward 7 unknown #
face $-1 $243 $244 $24 $-1 $245 reversed single #
loop $-1 $-1 $246 $100 #
plane-surface $-1 -42.789391766106142 0 0 1 0 0 0 0 -1 forward_v I I I I #
coedge $-1 $247 $171 $248 $249 forward $101 $-1 #
coedge $-1 $250 $103 $247 $251 forward $65 $-1 #
coedge $-1 $103 $250 $252 $253 forward $65 $-1 #
coedge $-1 $174 $173 $103 $167 reversed $175 $-1 #
edge $-1 $254 -18.063033685938091 $255 18.063033685938091 $166 $256 forward 7 unknown #
coedge $-1 $105 $104 $257 $258 forward $41 $-1 #
coedge $-1 $259 $260 $104 $170 reversed $244 $-1 #
edge $-1 $177 -42.789391766106142 $261 42.789391766106142 $169 $262 forward 7 unknown #
coedge $-1 $163 $263 $105 $172 reversed $101 $-1 #
edge $-1 $264 -42.789391766106142 $176 42.789391766106142 $171 $265 forward 7 unknown #
coedge $-1 $166 $106 $263 $266 forward $175 $-1 #
coedge $-1 $106 $166 $259 $267 reversed $175 $-1 #
loop $-1 $-1 $173 $243 #
vertex $-1 $107 $268 #
vertex $-1 $107 $269 #
straight-curve $-1 42.789391766106142 0 4 0 1 0 I I #
face $-1 $270 $191 $25 $-1 $271 reversed single #
loop $-1 $-1 $272 $108 #
plane-surface $-1 -41.289391766106142 -21.796756028538876 0 0 1 0 0 0 1 forward_v I I I I #
coedge $-1 $273 $274 $186 $275 forward $109 $-1 #
coedge $-1 $276 $111 $274 $277 forward $69 $-1 #
coedge $-1 $111 $276 $189 $278 forward $69 $-1 #
edge $-1 $192 39.789391766106142 $279 42.789391766106142 $111 $280 forward 7 unknown #
coedge $-1 $113 $112 $182 $275 reversed $44 $-1 #
coedge $-1 $281 $282 $112 $188 forward $283 $-1 #
edge $-1 $284 -42.789391766106142 $193 -39.789391766106142 $187 $285 forward 7 unknown #
coedge $-1 $286 $114 $184 $278 reversed $191 $-1 #
coedge $-1 $114 $286 $281 $287 reversed $191 $-1 #
loop $-1 $-1 $286 $179 #
vertex $-1 $185 $288 #
vertex $-1 $287 $289 #
straight-curve $-1 -39.789391766106142 -18.063033685938091 0 0 0 -1 I I #
face $-1 $-1 $207 $26 $-1 $290 reversed single #
loop $-1 $-1 $203 $116 #
plane-surface $-1 0 0 4 0 0 1 1 0 0 forward_v I I I I #
coedge $-1 $291 $292 $200 $293 forward $117 $-1 #
coedge $-1 $294 $119 $121 $205 forward $73 $-1 #
coedge $-1 $119 $294 $198 $293 reversed $73 $-1 #
coedge $-1 $295 $122 $119 $202 forward $207 $-1 #
edge $-1 $209 4.5313466548144063 $296 10.531573572353922 $201 $297 forward 7 unknown #
coedge $-1 $298 $299 $120 $204 forward $196 $-1 #
edge $-1 $300 15.523574357562236 $208 18.227671717037563 $203 $301 forward 7 unknown #
edge $-1 $209 -85.57878353221227 $300 -81.537573384379158 $121 $302 forward 7 unknown #
coedge $-1 $122 $295 $298 $303 reversed $207 $-1 #
loop $-1 $-1 $201 $195 #
vertex $-1 $303 $304 #
vertex $-1 $123 $305 #
straight-curve $-1 42.789391766106142 12.062806768398575 60.928804473545384 0 0 -1 I I #
coedge $-1 $211 $211 $-1 $306 reversed $126 $-1 #
edge $-1 $307 0 $307 6.2831853071796004 $127 $308 forward 7 unknown #
vertex $-1 $130 $309 #
ellipse-curve $-1 41.437343086368486 13.777157316267008 2.4983977782525062 0.74314483375859142 0 0.66913059716165679 0.3345652985808284 0 -0.37157241687929571 1 I I #
coedge $-1 $215 $215 $-1 $310 reversed $133 $-1 #
edge $-1 $311 0 $311 6.2831853071796004 $134 $312 forward 7 unknown #
vertex $-1 $137 $313 #
ellipse-curve $-1 41.437343086368486 16.348683138069664 2.4983977782525062 0.74314483375859142 0 0.66913059716165679 0.3345652985808284 0 -0.37157241687929571 1 I I #
face $-1 $-1 $231 $29 $-1 $314 forward single #
loop $-1 $-1 $315 $138 #
plane-surface $-1 -42.789391766106142 0 0 1 0 0 0 0 -1 forward_v I I I I #
coedge $-1 $316 $317 $224 $318 forward $139 $-1 #
coedge $-1 $319 $141 $143 $229 forward $87 $-1 #
coedge $-1 $141 $319 $222 $318 reversed $87 $-1 #
coedge $-1 $320 $144 $141 $226 forward $231 $-1 #
edge $-1 $233 4.5313466548144063 $321 10.531573572353933 $225 $322 forward 7 unknown #
coedge $-1 $323 $315 $142 $228 forward $220 $-1 #
edge $-1 $324 -28.133293486386179 $232 -25.130089042891193 $227 $325 forward 7 unknown #
edge $-1 $233 -4.0412101478331248 $324 1.0612360036877491e-014 $143 $326 forward 7 unknown #
coedge $-1 $144 $320 $323 $327 forward $231 $-1 #
loop $-1 $-1 $225 $219 #
vertex $-1 $228 $328 #
vertex $-1 $145 $329 #
straight-curve $-1 -53.193411313707259 12.062806768398575 4 1 0 0 I I #
coedge $-1 $235 $235 $-1 $330 reversed $148 $-1 #
edge $-1 $331 0 $331 6.2831853071796004 $149 $332 forward 7 unknown #
vertex $-1 $152 $333 #
ellipse-curve $-1 -41.437343086368472 13.777157316267008 2.4983977782525084 -0.74314483375859142 0 0.66913059716165679 0.3345652985808284 0 0.37157241687929571 1 I I #
coedge $-1 $239 $239 $-1 $334 reversed $155 $-1 #
edge $-1 $335 0 $335 6.2831853071796004 $156 $336 forward 7 unknown #
vertex $-1 $159 $337 #
ellipse-curve $-1 -41.437343086368472 16.348683138069664 2.4983977782525084 -0.74314483375859142 0 0.66913059716165679 0.3345652985808284 0 0.37157241687929571 1 I I #
face $-1 $-1 $175 $24 $-1 $338 reversed single #
loop $-1 $-1 $259 $160 #
plane-surface $-1 0 18.063033685938091 0 0 -1 0 0 0 -1 forward_v I I I I #
coedge $-1 $339 $257 $260 $340 forward $161 $-1 #
coedge $-1 $263 $163 $164 $251 reversed $101 $-1 #
coedge $-1 $257 $339 $163 $249 reversed $161 $-1 #
edge $-1 $264 -4 $341 4 $248 $342 forward 7 unknown #
coedge $-1 $165 $164 $339 $343 forward $65 $-1 #
edge $-1 $255 -42.789391766106142 $341 42.789391766106142 $247 $344 forward 7 unknown #
coedge $-1 $260 $259 $165 $253 reversed $244 $-1 #
edge $-1 $345 -42.789391766106142 $254 42.789391766106142 $252 $346 forward 7 unknown #
vertex $-1 $167 $347 #
vertex $-1 $266 $348 #
straight-curve $-1 42.789391766106142 0 -4 0 -1 0 I I #
coedge $-1 $246 $248 $168 $258 reversed $161 $-1 #
edge $-1 $261 -18.063033685938091 $264 18.063033685938091 $257 $349 forward 7 unknown #
coedge $-1 $252 $169 $174 $267 forward $244 $-1 #
coedge $-1 $169 $252 $246 $340 reversed $244 $-1 #
vertex $-1 $170 $350 #
straight-curve $-1 0 18.063033685938091 4 -1 0 0 I I #
coedge $-1 $171 $247 $173 $266 reversed $101 $-1 #
vertex $-1 $258 $351 #
straight-curve $-1 0 -18.063033685938091 4 1 0 0 I I #
edge $-1 $176 -4 $255 4 $173 $352 forward 7 unknown #
edge $-1 $177 -4 $254 4 $174 $353 forward 7 unknown #
point $-1 42.789391766106142 -18.063033685938091 4 #
point $-1 42.789391766106142 18.063033685938091 4 #
face $-1 $-1 $283 $25 $-1 $354 reversed single #
plane-surface $-1 -39.789391766106142 -19.929894857238484 0 -1 0 0 0 0 1 forward_v I I I I #
coedge $-1 $355 $356 $357 $358 forward $180 $-1 #
coedge $-1 $357 $182 $282 $359 reversed $109 $-1 #
coedge $-1 $182 $357 $183 $277 reversed $109 $-1 #
edge $-1 $279 -4 $284 4 $182 $360 forward 7 unknown #
coedge $-1 $184 $183 $356 $361 forward $69 $-1 #
edge $-1 $279 18.063033685938091 $362 21.796756028538876 $274 $363 forward 7 unknown #
edge $-1 $364 -1.8668611713003926 $192 1.8668611713003926 $189 $365 forward 7 unknown #
vertex $-1 $277 $366 #
straight-curve $-1 0 -18.063033685938091 4 -1 0 0 I I #
coedge $-1 $367 $187 $190 $287 forward $283 $-1 #
coedge $-1 $187 $367 $273 $359 forward $283 $-1 #
loop $-1 $-1 $187 $270 #
vertex $-1 $275 $368 #
straight-curve $-1 0 -18.063033685938091 -4 1 0 0 I I #
coedge $-1 $190 $189 $369 $370 forward $191 $-1 #
edge $-1 $193 -1.8668611713003926 $371 1.8668611713003926 $190 $372 forward 7 unknown #
point $-1 -39.789391766106142 -18.063033685938091 4 #
point $-1 -39.789391766106142 -18.063033685938091 -4 #
plane-surface $-1 42.789391766106142 0 0 -1 0 0 0 0 1 forward_v I I I I #
coedge $-1 $292 $198 $373 $374 reversed $117 $-1 #
coedge $-1 $198 $291 $295 $375 forward $117 $-1 #
edge $-1 $296 -56.734855664360367 $376 -52.693645516527241 $198 $377 forward 7 unknown #
coedge $-1 $200 $199 $299 $378 reversed $73 $-1 #
coedge $-1 $206 $201 $292 $375 reversed $207 $-1 #
vertex $-1 $293 $379 #
straight-curve $-1 42.789391766106149 7.5314601135841688 0.99679555650502394 0 1 0 I I #
coedge $-1 $373 $203 $206 $303 forward $196 $-1 #
coedge $-1 $203 $373 $294 $378 forward $196 $-1 #
vertex $-1 $204 $380 #
straight-curve $-1 24.56172004906858 12.062806768398575 4 1 0 0 I I #
straight-curve $-1 -14.473990763171223 12.062806768398575 64.594226417813402 -0.66913059716165679 0 0.74314483375859142 I I #
edge $-1 $208 12.062806768398575 $381 18.063033685938091 $206 $382 forward 7 unknown #
point $-1 42.789391766106142 12.062806768398575 4 #
point $-1 42.789391766106142 12.062806768398575 0.99679555650502039 #
edge $-1 $383 1 $383 0 $211 $-1 forward 7 unknown #
vertex $-1 $212 $384 #
ellipse-curve $-1 40.485533924383446 13.777157316267008 1.6413849807311613 0.74314483375859142 0 0.66913059716165679 0.3345652985808284 0 -0.37157241687929571 1 I I #
point $-1 41.771908384949313 13.777157316267008 2.1268253613732084 #
edge $-1 $385 1 $385 0 $215 $-1 forward 7 unknown #
vertex $-1 $216 $386 #
ellipse-curve $-1 40.485533924383446 16.348683138069664 1.6413849807311613 0.74314483375859142 0 0.66913059716165679 0.3345652985808284 0 -0.37157241687929571 1 I I #
point $-1 41.771908384949313 16.348683138069664 2.1268253613732084 #
plane-surface $-1 0 0 4 0 0 1 1 0 0 forward_v I I I I #
coedge $-1 $227 $387 $319 $388 forward $220 $-1 #
coedge $-1 $317 $222 $387 $389 reversed $139 $-1 #
coedge $-1 $222 $316 $320 $390 reversed $139 $-1 #
edge $-1 $321 9.9042537504210983 $391 13.945463898254234 $222 $392 forward 7 unknown #
coedge $-1 $224 $223 $315 $388 reversed $87 $-1 #
coedge $-1 $230 $225 $317 $390 forward $231 $-1 #
vertex $-1 $390 $393 #
straight-curve $-1 -40.085294406630808 7.5314601135841688 4 0 1 0 I I #
coedge $-1 $387 $227 $230 $327 reversed $220 $-1 #
vertex $-1 $228 $394 #
straight-curve $-1 -42.789391766106142 12.062806768398575 29.130089042891193 0 0 1 I I #
straight-curve $-1 -42.789391766106135 12.062806768398575 0.99679555650502039 -0.66913059716165679 0 -0.74314483375859142 I I #
edge $-1 $395 -18.063033685938091 $232 -12.062806768398575 $323 $396 forward 7 unknown #
point $-1 -42.789391766106142 12.062806768398575 4 #
point $-1 -40.085294406630808 12.062806768398575 4 #
edge $-1 $397 1 $397 0 $235 $-1 forward 7 unknown #
vertex $-1 $236 $398 #
ellipse-curve $-1 -40.485533924383439 13.777157316267008 1.6413849807311685 -0.74314483375859142 0 0.66913059716165679 0.3345652985808284 0 0.37157241687929571 1 I I #
point $-1 -41.102777787787652 13.777157316267008 2.8699701951318071 #
edge $-1 $399 1 $399 0 $239 $-1 forward 7 unknown #
vertex $-1 $240 $400 #
ellipse-curve $-1 -40.485533924383439 16.348683138069664 1.6413849807311685 -0.74314483375859142 0 0.66913059716165679 0.3345652985808284 0 0.37157241687929571 1 I I #
point $-1 -41.102777787787652 16.348683138069664 2.8699701951318071 #
plane-surface $-1 42.789391766106142 0 0 -1 0 0 0 0 1 forward_v I I I I #
coedge $-1 $248 $246 $250 $343 reversed $161 $-1 #
edge $-1 $261 -4 $345 4 $260 $401 forward 7 unknown #
vertex $-1 $343 $402 #
straight-curve $-1 -42.789391766106142 -18.063033685938091 0 0 0 -1 I I #
edge $-1 $341 -18.063033685938091 $345 18.063033685938091 $339 $403 forward 7 unknown #
straight-curve $-1 0 -18.063033685938091 -4 -1 0 0 I I #
vertex $-1 $253 $404 #
straight-curve $-1 0 18.063033685938091 -4 1 0 0 I I #
point $-1 42.789391766106142 18.063033685938091 -4 #
point $-1 42.789391766106142 -18.063033685938091 -4 #
straight-curve $-1 -42.789391766106142 0 4 0 -1 0 I I #
point $-1 -42.789391766106142 18.063033685938091 4 #
point $-1 -42.789391766106142 -18.063033685938091 4 #
straight-curve $-1 42.789391766106142 -18.063033685938091 0 0 0 -1 I I #
straight-curve $-1 42.789391766106142 18.063033685938091 0 0 0 -1 I I #
plane-surface $-1 0 0 -4 0 0 1 1 0 0 forward_v I I I I #
coedge $-1 $369 $272 $367 $405 reversed $180 $-1 #
coedge $-1 $272 $369 $276 $361 reversed $180 $-1 #
coedge $-1 $274 $273 $272 $358 reversed $109 $-1 #
edge $-1 $362 -4 $406 4 $357 $407 forward 7 unknown #
edge $-1 $406 -21.796756028538876 $284 -18.063033685938091 $273 $408 forward 7 unknown #
straight-curve $-1 -42.789391766106142 -18.063033685938091 0 0 0 -1 I I #
edge $-1 $362 -1.5 $364 1.5 $356 $409 forward 7 unknown #
vertex $-1 $277 $410 #
straight-curve $-1 -42.789391766106142 0 4 0 -1 0 I I #
vertex $-1 $278 $411 #
straight-curve $-1 -39.789391766106142 -19.929894857238484 4 0 1 0 I I #
point $-1 -42.789391766106142 -18.063033685938091 4 #
coedge $-1 $282 $281 $355 $405 forward $283 $-1 #
point $-1 -42.789391766106142 -18.063033685938091 -4 #
coedge $-1 $356 $355 $286 $370 reversed $180 $-1 #
edge $-1 $364 -4 $371 4 $286 $412 forward 7 unknown #
vertex $-1 $370 $413 #
straight-curve $-1 -39.789391766106142 -19.929894857238484 -4 0 -1 0 I I #
coedge $-1 $299 $298 $291 $374 forward $196 $-1 #
edge $-1 $381 -42.789391766106142 $376 -40.085294406630815 $291 $414 forward 7 unknown #
edge $-1 $381 -4 $296 -0.99679555650502805 $295 $415 forward 7 unknown #
vertex $-1 $293 $416 #
straight-curve $-1 4.8263639155322817 18.063033685938091 43.159010437513793 -0.66913059716165679 0 0.74314483375859142 I I #
edge $-1 $376 -10.531573572353933 $300 -4.5313466548144063 $299 $417 forward 7 unknown #
point $-1 42.789391766106142 18.063033685938091 0.99679555650502805 #
point $-1 40.085294406630815 12.062806768398575 4.0000000000000071 #
vertex $-1 $303 $418 #
straight-curve $-1 42.789391766106142 0 4 0 1 0 I I #
vertex $-1 $306 $419 #
point $-1 40.820099222964281 13.777157316267008 1.2698125638518656 #
vertex $-1 $310 $420 #
point $-1 40.820099222964281 16.348683138069664 1.2698125638518656 #
coedge $-1 $315 $323 $316 $389 forward $220 $-1 #
edge $-1 $391 -10.531573572353933 $324 -4.5313466548144063 $315 $421 forward 7 unknown #
edge $-1 $395 -4 $391 -0.9967955565050125 $316 $422 forward 7 unknown #
edge $-1 $321 40.085294406630808 $395 42.789391766106142 $317 $423 forward 7 unknown #
vertex $-1 $388 $424 #
straight-curve $-1 -33.458055180170959 18.063033685938091 11.360295006859594 -0.66913059716165679 0 -0.74314483375859142 I I #
point $-1 -40.085294406630808 18.063033685938102 4 #
point $-1 -42.789391766106142 12.062806768398575 0.9967955565050125 #
vertex $-1 $390 $425 #
straight-curve $-1 -42.789391766106142 0 4 0 -1 0 I I #
vertex $-1 $330 $426 #
point $-1 -40.150968625802612 13.777157316267008 2.0129573976104642 #
vertex $-1 $334 $427 #
point $-1 -40.150968625802612 16.348683138069664 2.0129573976104642 #
straight-curve $-1 -42.789391766106142 18.063033685938091 0 0 0 -1 I I #
point $-1 -42.789391766106142 -18.063033685938091 -4 #
straight-curve $-1 -42.789391766106142 0 -4 0 1 0 I I #
point $-1 -42.789391766106142 18.063033685938091 -4 #
edge $-1 $371 -1.5 $406 1.5 $355 $428 forward 7 unknown #
vertex $-1 $359 $429 #
straight-curve $-1 -42.789391766106142 -21.796756028538876 0 0 0 -1 I I #
straight-curve $-1 -42.789391766106142 0 -4 0 1 0 I I #
straight-curve $-1 -41.289391766106142 -21.796756028538876 4 1 0 0 I I #
point $-1 -42.789391766106142 -21.796756028538876 4 #
point $-1 -39.789391766106142 -21.796756028538876 4 #
straight-curve $-1 -39.789391766106142 -21.796756028538876 0 0 0 -1 I I #
point $-1 -39.789391766106142 -21.796756028538876 -4 #
straight-curve $-1 0 18.063033685938091 4 -1 0 0 I I #
straight-curve $-1 42.789391766106142 18.063033685938091 0 0 0 -1 I I #
point $-1 40.085294406630815 18.063033685938102 4.0000000000000071 #
straight-curve $-1 40.085294406630823 7.5314601135841688 4 0 -1 0 I I #
point $-1 42.789391766106142 18.063033685938091 4 #
point $-1 40.113961507504158 13.777157316267008 1.3068196821503328 #
point $-1 40.113961507504158 16.348683138069664 1.3068196821503328 #
straight-curve $-1 -42.789391766106142 7.5314601135841688 0.99679555650501117 0 -1 0 I I #
straight-curve $-1 -42.789391766106142 18.063033685938091 0 0 0 -1 I I #
straight-curve $-1 0 18.063033685938091 4 -1 0 0 I I #
point $-1 -42.789391766106142 18.063033685938102 0.9967955565050125 #
point $-1 -42.789391766106142 18.063033685938091 4 #
point $-1 -40.11396150750415 13.777157316267008 1.3068196821503399 #
point $-1 -40.11396150750415 16.348683138069664 1.3068196821503399 #
straight-curve $-1 -41.289391766106142 -21.796756028538876 -4 -1 0 0 I I #
point $-1 -42.789391766106142 -21.796756028538876 -4 #
End-of-ACIS-data 