500 0 12 0           
7 Unknown 11 ACIS 5.0 NT 24 Thu Mar 25 22:54:48 1999 
-1 9.9999999999999995e-007 1e-010 
body $-1 $12 $-1 $13 #
body $-1 $14 $-1 $15 #
body $-1 $16 $-1 $17 #
body $-1 $18 $-1 $19 #
body $-1 $20 $-1 $21 #
body $-1 $22 $-1 $23 #
body $-1 $24 $-1 $25 #
body $-1 $26 $-1 $27 #
body $-1 $28 $-1 $29 #
body $-1 $30 $-1 $31 #
body $-1 $32 $-1 $33 #
body $-1 $34 $-1 $35 #
lump $-1 $-1 $36 $0 #
transform $-1 1 0 0 0 1 0 0 0 1 77.270424512466803 46.170063185590188 15.9420365577589 1 rotate no_reflect no_shear #
lump $-1 $-1 $37 $1 #
transform $-1 1 0 0 0 1 0 0 0 1 77.270424512466803 46.170063185590188 15.9420365577589 1 rotate no_reflect no_shear #
lump $-1 $-1 $38 $2 #
transform $-1 1 0 0 0 1 0 0 0 1 77.270424512466803 46.170063185590188 15.9420365577589 1 rotate no_reflect no_shear #
lump $-1 $-1 $39 $3 #
transform $-1 1 0 0 0 1 0 0 0 1 77.270424512466803 46.170063185590188 15.9420365577589 1 rotate no_reflect no_shear #
lump $-1 $-1 $40 $4 #
transform $-1 1 0 0 0 1 0 0 0 1 77.270424512466803 46.170063185590188 15.9420365577589 1 rotate no_reflect no_shear #
lump $-1 $-1 $41 $5 #
transform $-1 1 0 0 0 1 0 0 0 1 77.270424512466803 46.170063185590188 15.9420365577589 1 rotate no_reflect no_shear #
lump $-1 $-1 $42 $6 #
transform $-1 1 0 0 0 1 0 0 0 1 77.270424512466803 46.170063185590188 15.9420365577589 1 rotate no_reflect no_shear #
lump $-1 $-1 $43 $7 #
transform $-1 1 0 0 0 1 0 0 0 1 77.270424512466803 46.170063185590188 15.9420365577589 1 rotate no_reflect no_shear #
lump $-1 $-1 $44 $8 #
transform $-1 1 0 0 0 1 0 0 0 1 77.270424512466803 46.170063185590188 15.9420365577589 1 rotate no_reflect no_shear #
lump $-1 $-1 $45 $9 #
transform $-1 1 0 0 0 1 0 0 0 1 77.270424512466803 46.170063185590188 15.9420365577589 1 rotate no_reflect no_shear #
lump $-1 $-1 $46 $10 #
transform $-1 1 0 0 0 1 0 0 0 1 77.270424512466803 46.170063185590188 15.9420365577589 1 rotate no_reflect no_shear #
lump $-1 $-1 $47 $11 #
transform $-1 1 0 0 0 1 0 0 0 1 77.270424512466803 46.170063185590188 15.9420365577589 1 rotate no_reflect no_shear #
shell $-1 $-1 $-1 $48 $-1 $12 #
shell $-1 $-1 $-1 $49 $-1 $14 #
shell $-1 $-1 $-1 $50 $-1 $16 #
shell $-1 $-1 $-1 $51 $-1 $18 #
shell $-1 $-1 $-1 $52 $-1 $20 #
shell $-1 $-1 $-1 $53 $-1 $22 #
shell $-1 $-1 $-1 $54 $-1 $24 #
shell $-1 $-1 $-1 $55 $-1 $26 #
shell $-1 $-1 $-1 $56 $-1 $28 #
shell $-1 $-1 $-1 $57 $-1 $30 #
shell $-1 $-1 $-1 $58 $-1 $32 #
shell $-1 $-1 $-1 $59 $-1 $34 #
face $-1 $60 $61 $36 $-1 $62 reversed single #
face $-1 $63 $64 $37 $-1 $65 forward single #
face $-1 $66 $67 $38 $-1 $68 reversed single #
face $-1 $69 $70 $39 $-1 $71 forward single #
face $-1 $72 $73 $40 $-1 $74 forward single #
face $-1 $75 $76 $41 $-1 $77 reversed single #
face $-1 $78 $79 $42 $-1 $80 forward single #
face $-1 $81 $82 $43 $-1 $83 forward single #
face $-1 $84 $85 $44 $-1 $86 reversed single #
face $-1 $87 $88 $45 $-1 $89 forward single #
face $-1 $90 $91 $46 $-1 $92 reversed single #
face $-1 $93 $94 $47 $-1 $95 forward single #
face $-1 $96 $97 $36 $-1 $98 forward single #
loop $-1 $-1 $99 $48 #
plane-surface $-1 -77.270424512466803 0 0 1 0 0 0 0 -1 forward_v I I I I #
face $-1 $100 $101 $37 $-1 $102 reversed single #
loop $-1 $-1 $103 $49 #
plane-surface $-1 -77.270424512466803 0 0 1 0 0 0 0 -1 forward_v I I I I #
face $-1 $104 $105 $38 $-1 $106 reversed single #
loop $-1 $-1 $107 $50 #
plane-surface $-1 -43.143360345680065 -149.57807644453217 115.48134559579755 -1 0 0 0 -0.66913061440640931 0.74314481823134659 forward_v I I I I #
face $-1 $108 $109 $39 $-1 $110 forward single #
loop $-1 $111 $112 $51 #
cone-surface $-1 -54.603361978056412 -36.912878965537189 7.4476699526507844 0 0.66913061440640931 -0.74314481823134659 1 0 0 1 I I 0 1 1 forward I I I I #
face $-1 $113 $114 $40 $-1 $115 forward single #
loop $-1 $116 $117 $52 #
cone-surface $-1 -47.727360998630601 -36.912878965537189 7.4476699526507844 0 0.66913061440640931 -0.74314481823134659 1 0 0 1 I I 0 1 1 forward I I I I #
face $-1 $118 $119 $41 $-1 $120 reversed single #
loop $-1 $-1 $121 $53 #
plane-surface $-1 71.46460391017726 -149.57807644453217 115.48134559579755 -1 0 0 0 -0.66913061440640931 0.74314481823134659 forward_v I I I I #
face $-1 $122 $123 $42 $-1 $124 forward single #
loop $-1 $125 $126 $54 #
cone-surface $-1 60.004602277800927 -36.912878965537189 7.4476699526507844 0 0.66913061440640931 -0.74314481823134659 1 0 0 1 I I 0 1 1 forward I I I I #
face $-1 $127 $128 $43 $-1 $129 forward single #
loop $-1 $130 $131 $55 #
cone-surface $-1 66.880603257226738 -36.912878965537189 7.4476699526507844 0 0.66913061440640931 -0.74314481823134659 1 0 0 1 I I 0 1 1 forward I I I I #
face $-1 $132 $133 $44 $-1 $134 reversed single #
loop $-1 $-1 $135 $56 #
plane-surface $-1 -25.268552782884075 84.033377505005859 176.90906109265933 1 0 0 0 -0.68199836817093118 -0.7313536940579346 forward_v I I I I #
face $-1 $136 $137 $45 $-1 $138 forward single #
loop $-1 $139 $140 $57 #
cone-surface $-1 -17.567292752382812 36.582529720385175 6.7879358523580624 0 -0.68199836817093118 -0.7313536940579346 3 0 0 1 I I 0 1 3 forward I I I I #
face $-1 $141 $142 $46 $-1 $143 reversed single #
loop $-1 $-1 $144 $58 #
plane-surface $-1 45.86325108999759 84.033377505005859 176.90906109265933 1 0 0 0 -0.68199836817093118 -0.7313536940579346 forward_v I I I I #
face $-1 $145 $146 $47 $-1 $147 forward single #
loop $-1 $148 $149 $59 #
cone-surface $-1 53.56451112049885 36.582529720385175 6.7879358523580624 0 -0.68199836817093118 -0.7313536940579346 3 0 0 1 I I 0 1 3 forward I I I I #
face $-1 $150 $151 $36 $-1 $152 reversed single #
loop $-1 $-1 $153 $60 #
plane-surface $-1 0 0 15.9420365577589 0 0 1 1 0 0 forward_v I I I I #
coedge $-1 $154 $155 $156 $157 reversed $61 $-1 #
face $-1 $158 $159 $37 $-1 $160 reversed single #
loop $-1 $-1 $161 $63 #
plane-surface $-1 0 0 -15.9420365577589 0 0 1 1 0 0 forward_v I I I I #
coedge $-1 $162 $163 $164 $165 forward $64 $-1 #
face $-1 $166 $167 $38 $-1 $168 reversed single #
loop $-1 $-1 $169 $66 #
plane-surface $-1 -51.165361488343514 -46.170063185590209 0.63511443784528865 0 -0.66913061440640931 0.74314481823134659 1 0 0 forward_v I I I I #
coedge $-1 $170 $171 $172 $173 reversed $67 $-1 #
face $-1 $-1 $174 $39 $-1 $175 forward single #
loop $-1 $176 $177 $69 #
cone-surface $-1 -54.603361978056412 -35.821158888118411 6.235191998383808 0 0.66913061440640931 -0.74314481823134659 0.5 0 0 1 I I -0.70710678118654746 0.70710678118654746 0.5 forward I I I I #
loop $-1 $-1 $178 $51 #
coedge $-1 $112 $112 $179 $180 reversed $70 $-1 #
face $-1 $-1 $181 $40 $-1 $182 forward single #
loop $-1 $183 $184 $72 #
cone-surface $-1 -47.727360998630601 -35.821158888118411 6.235191998383808 0 0.66913061440640931 -0.74314481823134659 0.5 0 0 1 I I -0.70710678118654746 0.70710678118654746 0.5 forward I I I I #
loop $-1 $-1 $185 $52 #
coedge $-1 $117 $117 $186 $187 reversed $73 $-1 #
face $-1 $188 $189 $41 $-1 $190 reversed single #
loop $-1 $-1 $191 $75 #
plane-surface $-1 63.442602767513819 -46.170063185590209 0.63511443784528865 0 -0.66913061440640931 0.74314481823134659 1 0 0 forward_v I I I I #
coedge $-1 $192 $193 $194 $195 reversed $76 $-1 #
face $-1 $-1 $196 $42 $-1 $197 forward single #
loop $-1 $198 $199 $78 #
cone-surface $-1 60.004602277800927 -35.821158888118411 6.235191998383808 0 0.66913061440640931 -0.74314481823134659 0.5 0 0 1 I I -0.70710678118654746 0.70710678118654746 0.5 forward I I I I #
loop $-1 $-1 $200 $54 #
coedge $-1 $126 $126 $201 $202 reversed $79 $-1 #
face $-1 $-1 $203 $43 $-1 $204 forward single #
loop $-1 $205 $206 $81 #
cone-surface $-1 66.880603257226738 -35.821158888118411 6.235191998383808 0 0.66913061440640931 -0.74314481823134659 0.5 0 0 1 I I -0.70710678118654746 0.70710678118654746 0.5 forward I I I I #
loop $-1 $-1 $207 $55 #
coedge $-1 $131 $131 $208 $209 reversed $82 $-1 #
face $-1 $210 $211 $44 $-1 $212 reversed single #
loop $-1 $-1 $213 $84 #
plane-surface $-1 -17.567292752382812 -21.363229345749104 63.885040275424572 0 0.68199836817093118 0.7313536940579346 1 0 0 forward_v I I I I #
coedge $-1 $214 $215 $216 $217 reversed $85 $-1 #
face $-1 $-1 $218 $45 $-1 $219 forward single #
loop $-1 $220 $221 $87 #
cone-surface $-1 -17.567292752382812 34.032357014279661 4.0532104979587764 0 -0.68199836817093118 -0.7313536940579346 1.5 0 0 1 I I -0.70710678118654757 0.70710678118654757 1.5 forward I I I I #
loop $-1 $-1 $222 $57 #
coedge $-1 $140 $140 $223 $224 reversed $88 $-1 #
face $-1 $225 $226 $46 $-1 $227 reversed single #
loop $-1 $-1 $228 $90 #
plane-surface $-1 53.56451112049885 -21.363229345749104 63.885040275424572 0 0.68199836817093118 0.7313536940579346 1 0 0 forward_v I I I I #
coedge $-1 $229 $230 $231 $232 reversed $91 $-1 #
face $-1 $-1 $233 $47 $-1 $234 forward single #
loop $-1 $235 $236 $93 #
cone-surface $-1 53.56451112049885 34.032357014279661 4.0532104979587764 0 -0.68199836817093118 -0.7313536940579346 1.5 0 0 1 I I -0.70710678118654757 0.70710678118654757 1.5 forward I I I I #
loop $-1 $-1 $237 $59 #
coedge $-1 $149 $149 $238 $239 reversed $94 $-1 #
face $-1 $240 $241 $36 $-1 $242 reversed single #
loop $-1 $-1 $243 $96 #
plane-surface $-1 0 0 -15.9420365577589 0 0 1 1 0 0 forward_v I I I I #
coedge $-1 $244 $245 $246 $247 forward $97 $-1 #
coedge $-1 $248 $99 $249 $250 reversed $61 $-1 #
coedge $-1 $99 $248 $251 $252 forward $61 $-1 #
coedge $-1 $253 $254 $99 $157 forward $151 $-1 #
edge $-1 $255 -46.170063185590188 $256 46.170063185590188 $99 $257 forward 7 unknown #
face $-1 $258 $259 $37 $-1 $260 reversed single #
loop $-1 $-1 $261 $100 #
plane-surface $-1 -83.409045152051959 -38.069324122620408 0 0 1 0 0 0 1 forward_v I I I I #
coedge $-1 $262 $263 $163 $264 forward $101 $-1 #
coedge $-1 $265 $103 $266 $267 reversed $64 $-1 #
coedge $-1 $103 $265 $161 $264 reversed $64 $-1 #
coedge $-1 $268 $269 $103 $165 reversed $270 $-1 #
edge $-1 $271 -15.9420365577589 $272 15.9420365577589 $164 $273 forward 7 unknown #
face $-1 $274 $275 $38 $-1 $276 forward single #
loop $-1 $-1 $277 $104 #
plane-surface $-1 -59.187362631006962 -149.57807644453217 115.48134559579755 1 0 0 0 0.66913061440640931 -0.74314481823134659 forward_v I I I I #
coedge $-1 $278 $279 $280 $281 reversed $105 $-1 #
coedge $-1 $171 $107 $282 $283 reversed $67 $-1 #
coedge $-1 $107 $170 $278 $284 reversed $67 $-1 #
coedge $-1 $280 $285 $107 $173 forward $275 $-1 #
edge $-1 $286 28.618975036675899 $287 45.619033936350732 $172 $288 forward 7 unknown #
loop $-1 $-1 $179 $108 #
plane-surface $-1 -51.165361488343514 -46.170063185590209 0.63511443784528865 0 -0.66913061440640931 0.74314481823134659 1 0 0 forward_v I I I I #
loop $-1 $-1 $289 $69 #
coedge $-1 $177 $177 $178 $290 reversed $109 $-1 #
coedge $-1 $178 $178 $177 $290 forward $111 $-1 #
coedge $-1 $179 $179 $112 $180 forward $174 $-1 #
edge $-1 $291 -1.3680964593538434e-016 $291 6.2831853071796004 $179 $292 forward 7 unknown #
loop $-1 $-1 $186 $113 #
plane-surface $-1 -51.165361488343514 -46.170063185590209 0.63511443784528865 0 -0.66913061440640931 0.74314481823134659 1 0 0 forward_v I I I I #
loop $-1 $-1 $293 $72 #
coedge $-1 $184 $184 $185 $294 reversed $114 $-1 #
coedge $-1 $185 $185 $184 $294 forward $116 $-1 #
coedge $-1 $186 $186 $117 $187 forward $181 $-1 #
edge $-1 $295 -1.3680964593538434e-016 $295 6.2831853071796004 $186 $296 forward 7 unknown #
face $-1 $297 $298 $41 $-1 $299 reversed single #
loop $-1 $-1 $300 $118 #
plane-surface $-1 55.42060162485037 -149.57807644453217 115.48134559579755 1 0 0 0 0.66913061440640931 -0.74314481823134659 forward_v I I I I #
coedge $-1 $301 $302 $303 $304 reversed $119 $-1 #
coedge $-1 $193 $121 $305 $306 reversed $76 $-1 #
coedge $-1 $121 $192 $301 $307 reversed $76 $-1 #
coedge $-1 $303 $308 $121 $195 forward $309 $-1 #
edge $-1 $310 28.618975036675899 $311 45.619033936350732 $194 $312 forward 7 unknown #
loop $-1 $-1 $201 $122 #
plane-surface $-1 63.442602767513819 -46.170063185590209 0.63511443784528865 0 -0.66913061440640931 0.74314481823134659 1 0 0 forward_v I I I I #
loop $-1 $-1 $313 $78 #
coedge $-1 $199 $199 $200 $314 reversed $123 $-1 #
coedge $-1 $200 $200 $199 $314 forward $125 $-1 #
coedge $-1 $201 $201 $126 $202 forward $196 $-1 #
edge $-1 $315 -1.3680964593538434e-016 $315 6.2831853071796004 $201 $316 forward 7 unknown #
loop $-1 $-1 $208 $127 #
plane-surface $-1 63.442602767513819 -46.170063185590209 0.63511443784528865 0 -0.66913061440640931 0.74314481823134659 1 0 0 forward_v I I I I #
loop $-1 $-1 $317 $81 #
coedge $-1 $206 $206 $207 $318 reversed $128 $-1 #
coedge $-1 $207 $207 $206 $318 forward $130 $-1 #
coedge $-1 $208 $208 $131 $209 forward $203 $-1 #
edge $-1 $319 -1.3680964593538434e-016 $319 6.2831853071796004 $208 $320 forward 7 unknown #
face $-1 $321 $322 $44 $-1 $323 reversed single #
loop $-1 $-1 $324 $132 #
plane-surface $-1 -9.8660327218815489 84.033377505005859 176.90906109265933 -1 0 0 0 0.68199836817093118 0.7313536940579346 forward_v I I I I #
coedge $-1 $325 $326 $327 $328 reversed $133 $-1 #
coedge $-1 $215 $135 $329 $330 reversed $85 $-1 #
coedge $-1 $135 $214 $325 $331 reversed $85 $-1 #
coedge $-1 $327 $332 $135 $217 forward $333 $-1 #
edge $-1 $334 -4.153374433087258 $335 11.967342189624532 $216 $336 forward 7 unknown #
loop $-1 $-1 $223 $136 #
plane-surface $-1 -17.567292752382812 -21.363229345749104 63.885040275424572 0 0.68199836817093118 0.7313536940579346 1 0 0 forward_v I I I I #
loop $-1 $-1 $337 $87 #
coedge $-1 $221 $221 $222 $338 reversed $137 $-1 #
coedge $-1 $222 $222 $221 $338 forward $139 $-1 #
coedge $-1 $223 $223 $140 $224 forward $218 $-1 #
edge $-1 $339 -2.4229449315204878e-015 $339 6.2831853071795978 $223 $340 forward 7 unknown #
face $-1 $341 $342 $46 $-1 $343 forward single #
loop $-1 $-1 $344 $141 #
plane-surface $-1 61.265771151000109 84.033377505005859 176.90906109265933 -1 0 0 0 0.68199836817093118 0.7313536940579346 forward_v I I I I #
coedge $-1 $345 $346 $347 $348 reversed $142 $-1 #
coedge $-1 $230 $144 $349 $350 reversed $91 $-1 #
coedge $-1 $144 $229 $345 $351 reversed $91 $-1 #
coedge $-1 $347 $352 $144 $232 forward $342 $-1 #
edge $-1 $353 -4.153374433087258 $354 11.967342189624532 $231 $355 forward 7 unknown #
loop $-1 $-1 $238 $145 #
plane-surface $-1 53.56451112049885 -21.363229345749104 63.885040275424572 0 0.68199836817093118 0.7313536940579346 1 0 0 forward_v I I I I #
loop $-1 $-1 $356 $93 #
coedge $-1 $236 $236 $237 $357 reversed $146 $-1 #
coedge $-1 $237 $237 $236 $357 forward $148 $-1 #
coedge $-1 $238 $238 $149 $239 forward $233 $-1 #
edge $-1 $358 -2.4229449315204878e-015 $358 6.2831853071795978 $238 $359 forward 7 unknown #
face $-1 $360 $361 $36 $-1 $362 reversed single #
loop $-1 $-1 $249 $150 #
plane-surface $-1 0 -46.170063185590188 0 0 1 0 0 0 1 forward_v I I I I #
coedge $-1 $254 $253 $363 $364 forward $151 $-1 #
coedge $-1 $365 $153 $366 $367 forward $97 $-1 #
coedge $-1 $153 $365 $368 $369 forward $97 $-1 #
coedge $-1 $370 $371 $153 $247 reversed $372 $-1 #
edge $-1 $373 -46.170063185590188 $374 46.170063185590188 $246 $375 forward 7 unknown #
coedge $-1 $155 $154 $365 $376 reversed $61 $-1 #
coedge $-1 $377 $368 $154 $250 forward $241 $-1 #
edge $-1 $378 -15.9420365577589 $255 15.9420365577589 $154 $379 forward 7 unknown #
coedge $-1 $366 $380 $155 $252 reversed $361 $-1 #
edge $-1 $381 -15.9420365577589 $256 15.9420365577589 $251 $382 forward 7 unknown #
coedge $-1 $243 $156 $380 $383 forward $151 $-1 #
coedge $-1 $156 $243 $377 $384 forward $151 $-1 #
vertex $-1 $157 $385 #
vertex $-1 $383 $386 #
straight-curve $-1 -77.270424512466803 0 -15.9420365577589 0 1 0 I I #
face $-1 $387 $270 $37 $-1 $388 reversed single #
loop $-1 $-1 $389 $158 #
plane-surface $-1 -89.547665791637115 -33.501855480371049 0 1 0 0 0 0 -1 forward_v I I I I #
coedge $-1 $390 $391 $392 $393 forward $159 $-1 #
coedge $-1 $394 $161 $390 $395 forward $101 $-1 #
coedge $-1 $161 $394 $268 $396 forward $101 $-1 #
edge $-1 $271 28.934386838121689 $397 38.069324122620408 $161 $398 forward 7 unknown #
coedge $-1 $163 $162 $399 $400 forward $64 $-1 #
coedge $-1 $401 $402 $162 $267 forward $403 $-1 #
edge $-1 $404 -38.069324122620408 $272 -28.934386838121689 $266 $405 forward 7 unknown #
coedge $-1 $406 $164 $263 $396 reversed $270 $-1 #
coedge $-1 $164 $406 $401 $407 reversed $270 $-1 #
loop $-1 $-1 $164 $258 #
vertex $-1 $264 $408 #
vertex $-1 $407 $409 #
straight-curve $-1 -77.270424512466803 -28.934386838121689 0 0 0 1 I I #
face $-1 $-1 $410 $38 $-1 $411 reversed single #
loop $-1 $-1 $172 $166 #
plane-surface $-1 0 0 15.9420365577589 0 0 1 1 0 0 forward_v I I I I #
coedge $-1 $412 $413 $414 $415 reversed $167 $-1 #
coedge $-1 $416 $169 $171 $284 forward $105 $-1 #
coedge $-1 $169 $416 $412 $417 forward $105 $-1 #
coedge $-1 $414 $172 $169 $281 forward $275 $-1 #
edge $-1 $287 17.560679601508308 $418 33.604681886835209 $280 $419 forward 7 unknown #
coedge $-1 $420 $421 $170 $283 forward $410 $-1 #
edge $-1 $422 -57.105558360053465 $286 -41.798636240139871 $282 $423 forward 7 unknown #
edge $-1 $287 -22.875835883689902 $422 -2.8692981478864717e-014 $171 $424 forward 7 unknown #
coedge $-1 $172 $414 $420 $425 forward $275 $-1 #
vertex $-1 $173 $426 #
vertex $-1 $173 $427 #
straight-curve $-1 -43.143360345680065 -74.789038222266086 15.942036557758897 0 1 0 I I #
coedge $-1 $289 $289 $-1 $428 reversed $176 $-1 #
edge $-1 $429 0 $429 6.2831853071796004 $177 $430 forward 7 unknown #
vertex $-1 $180 $431 #
ellipse-curve $-1 -54.603361978056412 -37.670033735752774 8.2885754978021033 0 -0.66913061440640931 0.74314481823134659 1 0 0 1 I I #
coedge $-1 $293 $293 $-1 $432 reversed $183 $-1 #
edge $-1 $433 0 $433 6.2831853071796004 $184 $434 forward 7 unknown #
vertex $-1 $187 $435 #
ellipse-curve $-1 -47.727360998630601 -37.670033735752774 8.2885754978021033 0 -0.66913061440640931 0.74314481823134659 1 0 0 1 I I #
face $-1 $-1 $309 $41 $-1 $436 forward single #
loop $-1 $-1 $437 $188 #
plane-surface $-1 0 -46.170063185590188 0 0 1 0 0 0 1 forward_v I I I I #
coedge $-1 $438 $439 $440 $441 reversed $189 $-1 #
coedge $-1 $442 $191 $193 $307 forward $119 $-1 #
coedge $-1 $191 $442 $438 $443 forward $119 $-1 #
coedge $-1 $440 $194 $191 $304 forward $309 $-1 #
edge $-1 $311 -39.743302526420351 $444 -23.699300241093461 $303 $445 forward 7 unknown #
coedge $-1 $446 $447 $192 $306 forward $298 $-1 #
edge $-1 $448 -57.105558360053465 $310 -41.798636240139871 $305 $449 forward 7 unknown #
edge $-1 $311 -22.875835883689902 $448 -2.8692981478864717e-014 $193 $450 forward 7 unknown #
coedge $-1 $194 $440 $446 $451 forward $309 $-1 #
loop $-1 $-1 $440 $297 #
vertex $-1 $306 $452 #
vertex $-1 $195 $453 #
straight-curve $-1 71.46460391017726 -74.789038222266086 15.942036557758897 0 1 0 I I #
coedge $-1 $313 $313 $-1 $454 reversed $198 $-1 #
edge $-1 $455 0 $455 6.2831853071796004 $199 $456 forward 7 unknown #
vertex $-1 $202 $457 #
ellipse-curve $-1 60.004602277800927 -37.670033735752774 8.2885754978021033 0 -0.66913061440640931 0.74314481823134659 1 0 0 1 I I #
coedge $-1 $317 $317 $-1 $458 reversed $205 $-1 #
edge $-1 $459 0 $459 6.2831853071796004 $206 $460 forward 7 unknown #
vertex $-1 $209 $461 #
ellipse-curve $-1 66.880603257226738 -37.670033735752774 8.2885754978021033 0 -0.66913061440640931 0.74314481823134659 1 0 0 1 I I #
face $-1 $-1 $333 $44 $-1 $462 forward single #
loop $-1 $-1 $463 $210 #
plane-surface $-1 0 46.170063185590188 0 0 -1 0 0 0 -1 forward_v I I I I #
coedge $-1 $464 $465 $466 $467 reversed $211 $-1 #
coedge $-1 $468 $213 $215 $331 forward $133 $-1 #
coedge $-1 $213 $468 $464 $469 forward $133 $-1 #
coedge $-1 $466 $216 $213 $328 forward $333 $-1 #
edge $-1 $335 -16.484906406692669 $470 -1.0823863456901428 $327 $471 forward 7 unknown #
coedge $-1 $472 $473 $214 $330 forward $322 $-1 #
edge $-1 $474 -87.545305772747696 $334 -72.512493988570768 $329 $475 forward 7 unknown #
edge $-1 $335 70.297827612469575 $474 92.340126371180418 $215 $476 forward 7 unknown #
coedge $-1 $216 $466 $472 $477 forward $333 $-1 #
loop $-1 $-1 $466 $321 #
vertex $-1 $330 $478 #
vertex $-1 $217 $479 #
straight-curve $-1 -25.268552782884075 42.01668875250293 15.942036557758897 0 -1 0 I I #
coedge $-1 $337 $337 $-1 $480 reversed $220 $-1 #
edge $-1 $481 0 $481 6.2831853071796004 $221 $482 forward 7 unknown #
vertex $-1 $224 $483 #
ellipse-curve $-1 -17.567292752382812 38.109704874234282 8.4256306656704361 0 0.68199836817093118 0.7313536940579346 3 0 0 1 I I #
face $-1 $-1 $484 $46 $-1 $485 reversed single #
loop $-1 $-1 $231 $225 #
plane-surface $-1 0 0 15.9420365577589 0 0 1 1 0 0 forward_v I I I I #
coedge $-1 $486 $487 $488 $489 reversed $226 $-1 #
coedge $-1 $490 $228 $230 $351 forward $142 $-1 #
coedge $-1 $228 $490 $486 $491 forward $142 $-1 #
coedge $-1 $488 $231 $228 $348 forward $342 $-1 #
edge $-1 $354 19.080995529748165 $492 34.483515590750685 $347 $493 forward 7 unknown #
coedge $-1 $494 $495 $229 $350 forward $484 $-1 #
edge $-1 $496 -87.545305772747696 $353 -72.512493988570768 $349 $497 forward 7 unknown #
edge $-1 $354 70.297827612469575 $496 92.340126371180418 $230 $498 forward 7 unknown #
coedge $-1 $231 $488 $494 $499 forward $342 $-1 #
vertex $-1 $232 $500 #
vertex $-1 $232 $501 #
straight-curve $-1 45.86325108999759 42.01668875250293 15.942036557758897 0 -1 0 I I #
coedge $-1 $356 $356 $-1 $502 reversed $235 $-1 #
edge $-1 $503 0 $503 6.2831853071796004 $236 $504 forward 7 unknown #
vertex $-1 $239 $505 #
ellipse-curve $-1 53.56451112049885 38.109704874234282 8.4256306656704361 0 0.68199836817093118 0.7313536940579346 3 0 0 1 I I #
face $-1 $-1 $372 $36 $-1 $506 reversed single #
loop $-1 $-1 $507 $240 #
plane-surface $-1 0 46.170063185590188 0 0 -1 0 0 0 -1 forward_v I I I I #
coedge $-1 $371 $370 $243 $364 reversed $372 $-1 #
edge $-1 $508 -46.170063185590188 $509 46.170063185590188 $363 $510 forward 7 unknown #
coedge $-1 $245 $244 $248 $376 forward $97 $-1 #
coedge $-1 $507 $251 $244 $367 reversed $361 $-1 #
edge $-1 $374 -77.270424512466803 $381 77.270424512466803 $366 $511 forward 7 unknown #
coedge $-1 $249 $512 $245 $369 reversed $241 $-1 #
edge $-1 $378 -77.270424512466803 $373 77.270424512466803 $368 $513 forward 7 unknown #
coedge $-1 $363 $246 $512 $514 forward $372 $-1 #
coedge $-1 $246 $363 $507 $515 reversed $372 $-1 #
loop $-1 $-1 $370 $360 #
vertex $-1 $247 $516 #
vertex $-1 $247 $517 #
straight-curve $-1 77.270424512466803 0 15.9420365577589 0 1 0 I I #
edge $-1 $381 -46.170063185590188 $378 46.170063185590188 $248 $518 forward 7 unknown #
coedge $-1 $512 $249 $254 $384 reversed $241 $-1 #
vertex $-1 $376 $519 #
straight-curve $-1 -77.270424512466803 -46.170063185590188 0 0 0 -1 I I #
coedge $-1 $251 $507 $253 $383 reversed $361 $-1 #
vertex $-1 $367 $520 #
straight-curve $-1 -77.270424512466803 46.170063185590188 0 0 0 -1 I I #
edge $-1 $256 -77.270424512466803 $508 77.270424512466803 $380 $521 forward 7 unknown #
edge $-1 $509 -77.270424512466803 $255 77.270424512466803 $377 $522 forward 7 unknown #
point $-1 -77.270424512466803 -46.170063185590188 -15.9420365577589 #
point $-1 -77.270424512466803 46.170063185590188 -15.9420365577589 #
face $-1 $-1 $403 $37 $-1 $523 forward single #
plane-surface $-1 -83.409045152051959 -28.934386838121689 0 0 -1 0 0 0 -1 forward_v I I I I #
coedge $-1 $524 $525 $406 $526 forward $259 $-1 #
coedge $-1 $399 $261 $262 $395 reversed $159 $-1 #
coedge $-1 $261 $399 $402 $527 reversed $159 $-1 #
coedge $-1 $525 $524 $261 $393 reversed $259 $-1 #
edge $-1 $528 -15.9420365577589 $529 15.9420365577589 $392 $530 forward 7 unknown #
coedge $-1 $263 $262 $524 $531 forward $101 $-1 #
edge $-1 $397 -6.1386206395851559 $529 6.1386206395851559 $390 $532 forward 7 unknown #
edge $-1 $533 -6.1386206395851559 $271 6.1386206395851559 $268 $534 forward 7 unknown #
vertex $-1 $395 $535 #
straight-curve $-1 -77.270424512466803 0 -15.9420365577589 0 -1 0 I I #
coedge $-1 $391 $390 $265 $400 reversed $159 $-1 #
edge $-1 $404 -15.9420365577589 $397 15.9420365577589 $399 $536 forward 7 unknown #
coedge $-1 $537 $266 $269 $407 forward $403 $-1 #
coedge $-1 $266 $537 $391 $527 forward $403 $-1 #
loop $-1 $-1 $266 $387 #
vertex $-1 $267 $538 #
straight-curve $-1 -77.270424512466803 0 15.9420365577589 0 1 0 I I #
coedge $-1 $269 $268 $389 $526 reversed $270 $-1 #
edge $-1 $272 -6.1386206395851559 $539 6.1386206395851559 $269 $540 forward 7 unknown #
point $-1 -77.270424512466803 -28.934386838121689 -15.9420365577589 #
point $-1 -77.270424512466803 -28.934386838121689 15.9420365577589 #
loop $-1 $-1 $282 $274 #
plane-surface $-1 0 -46.170063185590188 0 0 1 0 0 0 1 forward_v I I I I #
coedge $-1 $413 $277 $279 $417 reversed $167 $-1 #
coedge $-1 $277 $412 $541 $542 reversed $167 $-1 #
coedge $-1 $285 $280 $277 $415 forward $275 $-1 #
edge $-1 $418 -45.619033936350732 $543 -28.618975036675899 $414 $544 forward 7 unknown #
coedge $-1 $279 $278 $421 $545 reversed $105 $-1 #
edge $-1 $546 2.8692981478864717e-014 $418 22.875835883689902 $412 $547 forward 7 unknown #
vertex $-1 $281 $548 #
straight-curve $-1 -25.582680744171757 -29.170004285915354 15.9420365577589 -1 0 0 I I #
coedge $-1 $541 $282 $285 $425 reversed $410 $-1 #
coedge $-1 $282 $541 $416 $545 forward $410 $-1 #
vertex $-1 $283 $549 #
straight-curve $-1 -43.143360345680065 -46.170063185590188 57.740672797898775 0 0 1 I I #
straight-curve $-1 -43.143360345680065 -46.170063185590209 0.63511443784528865 0 -0.74314481823134659 -0.66913061440640931 I I #
edge $-1 $543 -59.187362631006962 $286 -43.143360345680065 $420 $550 forward 7 unknown #
point $-1 -43.143360345680065 -46.170063185590188 15.9420365577589 #
point $-1 -43.143360345680065 -29.170004285915358 15.9420365577589 #
edge $-1 $551 1 $551 0 $289 $-1 forward 7 unknown #
vertex $-1 $290 $552 #
ellipse-curve $-1 -54.603361978056412 -36.155724195321618 6.6067644074994814 0 -0.66913061440640931 0.74314481823134659 1 0 0 1 I I #
point $-1 -53.603361978056412 -37.67003373575276 8.2885754978020874 #
edge $-1 $553 1 $553 0 $293 $-1 forward 7 unknown #
vertex $-1 $294 $554 #
ellipse-curve $-1 -47.727360998630601 -36.155724195321618 6.6067644074994814 0 -0.66913061440640931 0.74314481823134659 1 0 0 1 I I #
point $-1 -46.727360998630601 -37.67003373575276 8.2885754978020874 #
plane-surface $-1 0 0 15.9420365577589 0 0 1 1 0 0 forward_v I I I I #
coedge $-1 $447 $446 $439 $555 forward $298 $-1 #
coedge $-1 $439 $300 $302 $443 reversed $189 $-1 #
coedge $-1 $300 $438 $437 $555 reversed $189 $-1 #
coedge $-1 $308 $303 $300 $441 forward $309 $-1 #
edge $-1 $444 -45.619033936350732 $556 -28.618975036675899 $440 $557 forward 7 unknown #
coedge $-1 $302 $301 $447 $558 reversed $119 $-1 #
edge $-1 $559 2.8692981478864717e-014 $444 22.875835883689902 $438 $560 forward 7 unknown #
vertex $-1 $304 $561 #
straight-curve $-1 31.721301383756909 -29.170004285915354 15.9420365577589 -1 0 0 I I #
coedge $-1 $437 $305 $308 $451 reversed $298 $-1 #
coedge $-1 $305 $437 $442 $558 forward $298 $-1 #
vertex $-1 $306 $562 #
straight-curve $-1 71.46460391017726 -46.170063185590188 57.740672797898775 0 0 1 I I #
straight-curve $-1 71.46460391017726 -46.170063185590209 0.63511443784528865 0 -0.74314481823134659 -0.66913061440640931 I I #
edge $-1 $556 55.42060162485037 $310 71.46460391017726 $446 $563 forward 7 unknown #
point $-1 71.46460391017726 -46.170063185590188 15.9420365577589 #
point $-1 71.46460391017726 -29.170004285915358 15.9420365577589 #
edge $-1 $564 1 $564 0 $313 $-1 forward 7 unknown #
vertex $-1 $314 $565 #
ellipse-curve $-1 60.004602277800927 -36.155724195321618 6.6067644074994814 0 -0.66913061440640931 0.74314481823134659 1 0 0 1 I I #
point $-1 61.004602277800927 -37.67003373575276 8.2885754978020874 #
edge $-1 $566 1 $566 0 $317 $-1 forward 7 unknown #
vertex $-1 $318 $567 #
ellipse-curve $-1 66.880603257226738 -36.155724195321618 6.6067644074994814 0 -0.66913061440640931 0.74314481823134659 1 0 0 1 I I #
point $-1 67.880603257226738 -37.67003373575276 8.2885754978020874 #
plane-surface $-1 0 0 15.9420365577589 0 0 1 1 0 0 forward_v I I I I #
coedge $-1 $473 $472 $465 $568 forward $322 $-1 #
coedge $-1 $465 $324 $326 $469 reversed $211 $-1 #
coedge $-1 $324 $464 $463 $568 reversed $211 $-1 #
coedge $-1 $332 $327 $324 $467 forward $333 $-1 #
edge $-1 $470 -11.967342189624532 $569 4.153374433087258 $466 $570 forward 7 unknown #
coedge $-1 $326 $325 $473 $571 reversed $133 $-1 #
edge $-1 $572 -92.340126371180418 $470 -70.297827612469575 $464 $573 forward 7 unknown #
vertex $-1 $328 $574 #
straight-curve $-1 -8.7836463761914061 30.049346562878402 15.9420365577589 1 0 0 I I #
coedge $-1 $463 $329 $332 $477 reversed $322 $-1 #
coedge $-1 $329 $463 $468 $571 forward $322 $-1 #
vertex $-1 $330 $575 #
straight-curve $-1 -25.268552782884075 46.170063185590188 88.454530546329664 0 0 1 I I #
straight-curve $-1 -25.268552782884075 -21.363229345749104 63.885040275424572 0 0.7313536940579346 -0.68199836817093118 I I #
edge $-1 $569 9.8660327218815489 $334 25.268552782884075 $472 $576 forward 7 unknown #
point $-1 -25.268552782884075 46.170063185590188 15.9420365577589 #
point $-1 -25.268552782884075 30.049346562878398 15.942036557758897 #
edge $-1 $577 1 $577 0 $337 $-1 forward 7 unknown #
vertex $-1 $338 $578 #
ellipse-curve $-1 -17.567292752382812 35.05535456653606 5.1502410390456781 0 0.68199836817093118 0.7313536940579346 3 0 0 1 I I #
point $-1 -14.567292752382812 38.109704874234282 8.4256306656704467 #
loop $-1 $-1 $349 $341 #
plane-surface $-1 0 46.170063185590188 0 0 -1 0 0 0 -1 forward_v I I I I #
coedge $-1 $487 $344 $346 $491 reversed $226 $-1 #
coedge $-1 $344 $486 $579 $580 reversed $226 $-1 #
coedge $-1 $352 $347 $344 $489 forward $342 $-1 #
edge $-1 $492 -11.967342189624532 $581 4.153374433087258 $488 $582 forward 7 unknown #
coedge $-1 $346 $345 $495 $583 reversed $142 $-1 #
edge $-1 $584 -92.340126371180418 $492 -70.297827612469575 $486 $585 forward 7 unknown #
vertex $-1 $348 $586 #
straight-curve $-1 26.782255560249425 30.049346562878402 15.9420365577589 1 0 0 I I #
coedge $-1 $579 $349 $352 $499 reversed $484 $-1 #
coedge $-1 $349 $579 $490 $583 forward $484 $-1 #
vertex $-1 $350 $587 #
straight-curve $-1 45.86325108999759 46.170063185590188 88.454530546329664 0 0 1 I I #
straight-curve $-1 45.86325108999759 -21.363229345749104 63.885040275424572 0 0.7313536940579346 -0.68199836817093118 I I #
edge $-1 $581 -61.265771151000109 $353 -45.86325108999759 $494 $588 forward 7 unknown #
point $-1 45.86325108999759 46.170063185590188 15.9420365577589 #
point $-1 45.86325108999759 30.049346562878398 15.942036557758897 #
edge $-1 $589 1 $589 0 $356 $-1 forward 7 unknown #
vertex $-1 $357 $590 #
ellipse-curve $-1 53.56451112049885 35.05535456653606 5.1502410390456781 0 0.68199836817093118 0.7313536940579346 3 0 0 1 I I #
point $-1 56.56451112049885 38.109704874234282 8.4256306656704467 #
plane-surface $-1 77.270424512466803 0 0 -1 0 0 0 0 1 forward_v I I I I #
coedge $-1 $380 $366 $371 $515 forward $361 $-1 #
vertex $-1 $364 $591 #
vertex $-1 $514 $592 #
straight-curve $-1 77.270424512466803 0 -15.9420365577589 0 -1 0 I I #
straight-curve $-1 0 46.170063185590188 15.9420365577589 -1 0 0 I I #
coedge $-1 $368 $377 $370 $514 reversed $241 $-1 #
straight-curve $-1 0 -46.170063185590188 15.9420365577589 1 0 0 I I #
edge $-1 $373 -15.9420365577589 $509 15.9420365577589 $370 $593 forward 7 unknown #
edge $-1 $374 -15.9420365577589 $508 15.9420365577589 $371 $594 forward 7 unknown #
point $-1 77.270424512466803 -46.170063185590188 15.9420365577589 #
point $-1 77.270424512466803 46.170063185590188 15.9420365577589 #
straight-curve $-1 -77.270424512466803 0 15.9420365577589 0 -1 0 I I #
point $-1 -77.270424512466803 -46.170063185590188 15.9420365577589 #
point $-1 -77.270424512466803 46.170063185590188 15.9420365577589 #
straight-curve $-1 0 46.170063185590188 -15.9420365577589 1 0 0 I I #
straight-curve $-1 0 -46.170063185590188 -15.9420365577589 -1 0 0 I I #
plane-surface $-1 0 0 15.9420365577589 0 0 1 1 0 0 forward_v I I I I #
coedge $-1 $392 $389 $394 $531 reversed $259 $-1 #
coedge $-1 $389 $392 $537 $595 reversed $259 $-1 #
edge $-1 $539 -15.9420365577589 $533 15.9420365577589 $406 $596 forward 7 unknown #
edge $-1 $528 -6.1386206395851559 $404 6.1386206395851559 $391 $597 forward 7 unknown #
vertex $-1 $595 $598 #
vertex $-1 $531 $599 #
straight-curve $-1 -89.547665791637115 -38.069324122620408 0 0 0 -1 I I #
edge $-1 $529 -4.5674686422493593 $533 4.5674686422493593 $524 $600 forward 7 unknown #
straight-curve $-1 -83.409045152051959 -38.069324122620408 -15.9420365577589 -1 0 0 I I #
vertex $-1 $396 $601 #
straight-curve $-1 -83.409045152051959 -28.934386838121689 -15.9420365577589 1 0 0 I I #
point $-1 -77.270424512466803 -38.069324122620408 -15.9420365577589 #
straight-curve $-1 -77.270424512466803 -38.069324122620408 0 0 0 -1 I I #
coedge $-1 $402 $401 $525 $595 forward $403 $-1 #
point $-1 -77.270424512466803 -38.069324122620408 15.9420365577589 #
vertex $-1 $407 $602 #
straight-curve $-1 -83.409045152051959 -28.934386838121689 15.9420365577589 -1 0 0 I I #
coedge $-1 $421 $420 $413 $542 forward $410 $-1 #
edge $-1 $543 41.798636240139871 $546 57.105558360053465 $541 $603 forward 7 unknown #
vertex $-1 $425 $604 #
straight-curve $-1 -59.187362631006962 -74.789038222266086 15.942036557758897 0 -1 0 I I #
edge $-1 $546 -33.604681886835209 $422 -17.560679601508308 $421 $605 forward 7 unknown #
vertex $-1 $545 $606 #
straight-curve $-1 -59.187362631006962 -46.170063185590209 0.63511443784528865 0 0.74314481823134659 0.66913061440640931 I I #
point $-1 -59.187362631006962 -29.170004285915358 15.9420365577589 #
point $-1 -43.143360345680065 -46.170063185590188 0.63511443784530786 #
straight-curve $-1 0 -46.170063185590188 15.9420365577589 1 0 0 I I #
vertex $-1 $428 $607 #
point $-1 -53.603361978056412 -36.155724195321618 6.6067644074994814 #
vertex $-1 $432 $608 #
point $-1 -46.727360998630601 -36.155724195321618 6.6067644074994814 #
edge $-1 $556 41.798636240139871 $559 57.105558360053465 $437 $609 forward 7 unknown #
vertex $-1 $451 $610 #
straight-curve $-1 55.42060162485037 -74.789038222266086 15.942036557758897 0 -1 0 I I #
edge $-1 $559 23.699300241093461 $448 39.743302526420351 $447 $611 forward 7 unknown #
vertex $-1 $558 $612 #
straight-curve $-1 55.42060162485037 -46.170063185590209 0.63511443784528865 0 0.74314481823134659 0.66913061440640931 I I #
point $-1 55.42060162485037 -29.170004285915358 15.9420365577589 #
point $-1 71.46460391017726 -46.170063185590188 0.63511443784530786 #
straight-curve $-1 0 -46.170063185590188 15.9420365577589 1 0 0 I I #
vertex $-1 $454 $613 #
point $-1 61.004602277800927 -36.155724195321618 6.6067644074994814 #
vertex $-1 $458 $614 #
point $-1 67.880603257226738 -36.155724195321618 6.6067644074994814 #
edge $-1 $569 72.512493988570768 $572 87.545305772747696 $463 $615 forward 7 unknown #
vertex $-1 $477 $616 #
straight-curve $-1 -9.8660327218815489 42.01668875250293 15.942036557758897 0 1 0 I I #
edge $-1 $572 1.0823863456901428 $474 16.484906406692669 $473 $617 forward 7 unknown #
vertex $-1 $571 $618 #
straight-curve $-1 -9.8660327218815489 -21.363229345749104 63.885040275424572 0 -0.7313536940579346 0.68199836817093118 I I #
point $-1 -9.8660327218815489 30.049346562878398 15.942036557758897 #
point $-1 -25.268552782884075 46.170063185590195 0.90922477358196119 #
straight-curve $-1 0 46.170063185590188 15.9420365577589 -1 0 0 I I #
vertex $-1 $480 $619 #
point $-1 -14.567292752382812 35.05535456653606 5.1502410390456781 #
coedge $-1 $495 $494 $487 $580 forward $484 $-1 #
edge $-1 $581 72.512493988570768 $584 87.545305772747696 $579 $620 forward 7 unknown #
vertex $-1 $499 $621 #
straight-curve $-1 61.265771151000109 42.01668875250293 15.942036557758897 0 1 0 I I #
edge $-1 $584 -34.483515590750685 $496 -19.080995529748165 $495 $622 forward 7 unknown #
vertex $-1 $583 $623 #
straight-curve $-1 61.265771151000109 -21.363229345749104 63.885040275424572 0 -0.7313536940579346 0.68199836817093118 I I #
point $-1 61.265771151000109 30.049346562878398 15.942036557758897 #
point $-1 45.86325108999759 46.170063185590195 0.90922477358196119 #
straight-curve $-1 0 46.170063185590188 15.9420365577589 -1 0 0 I I #
vertex $-1 $502 $624 #
point $-1 56.56451112049885 35.05535456653606 5.1502410390456781 #
point $-1 77.270424512466803 46.170063185590188 -15.9420365577589 #
point $-1 77.270424512466803 -46.170063185590188 -15.9420365577589 #
straight-curve $-1 77.270424512466803 -46.170063185590188 0 0 0 -1 I I #
straight-curve $-1 77.270424512466803 46.170063185590188 0 0 0 -1 I I #
edge $-1 $539 -4.5674686422493593 $528 4.5674686422493593 $525 $625 forward 7 unknown #
straight-curve $-1 -89.547665791637115 -28.934386838121689 0 0 0 -1 I I #
straight-curve $-1 -83.409045152051959 -38.069324122620408 15.9420365577589 1 0 0 I I #
point $-1 -89.547665791637115 -38.069324122620408 15.9420365577589 #
point $-1 -89.547665791637115 -38.069324122620408 -15.9420365577589 #
straight-curve $-1 -89.547665791637115 -33.501855480371049 -15.9420365577589 0 1 0 I I #
point $-1 -89.547665791637115 -28.934386838121689 -15.9420365577589 #
point $-1 -89.547665791637115 -28.934386838121689 15.9420365577589 #
straight-curve $-1 -59.187362631006962 -46.170063185590188 57.740672797898775 0 0 -1 I I #
point $-1 -59.187362631006962 -46.170063185590188 15.9420365577589 #
straight-curve $-1 -25.582680744171757 -46.170063185590188 0.63511443784530419 1 0 0 I I #
point $-1 -59.187362631006962 -46.170063185590188 0.63511443784530786 #
point $-1 -54.603361978056412 -35.486593580915205 5.8636195892681346 #
point $-1 -47.727360998630601 -35.486593580915205 5.8636195892681346 #
straight-curve $-1 55.42060162485037 -46.170063185590188 57.740672797898775 0 0 -1 I I #
point $-1 55.42060162485037 -46.170063185590188 15.9420365577589 #
straight-curve $-1 31.721301383756909 -46.170063185590188 0.63511443784530419 1 0 0 I I #
point $-1 55.42060162485037 -46.170063185590188 0.63511443784530786 #
point $-1 60.004602277800927 -35.486593580915205 5.8636195892681346 #
point $-1 66.880603257226738 -35.486593580915205 5.8636195892681346 #
straight-curve $-1 -9.8660327218815489 46.170063185590188 88.454530546329664 0 0 -1 I I #
point $-1 -9.8660327218815489 46.170063185590188 15.9420365577589 #
straight-curve $-1 -8.7836463761914061 46.170063185590188 0.90922477358196474 -1 0 0 I I #
point $-1 -9.8660327218815489 46.170063185590195 0.90922477358196119 #
point $-1 -17.567292752382812 33.009359462023262 2.9561799568718747 #
straight-curve $-1 61.265771151000109 46.170063185590188 88.454530546329664 0 0 -1 I I #
point $-1 61.265771151000109 46.170063185590188 15.9420365577589 #
straight-curve $-1 26.782255560249425 46.170063185590188 0.90922477358196474 -1 0 0 I I #
point $-1 61.265771151000109 46.170063185590195 0.90922477358196119 #
point $-1 53.56451112049885 33.009359462023262 2.9561799568718747 #
straight-curve $-1 -89.547665791637115 -33.501855480371049 15.9420365577589 0 -1 0 I I #
End-of-ACIS-data 