500 0 4 0           
7 Unknown 11 ACIS 5.0 NT 24 Thu Mar 25 16:33:13 1999 
-1 9.9999999999999995e-007 1e-010 
body $-1 $4 $-1 $5 #
body $-1 $6 $-1 $7 #
body $-1 $8 $-1 $9 #
body $-1 $10 $-1 $11 #
lump $-1 $-1 $12 $0 #
transform $-1 1 0 0 0 1 0 0 0 1 76.689352092043833 42.345900336819305 12.666033955233386 1 rotate no_reflect no_shear #
lump $-1 $-1 $13 $1 #
transform $-1 1 0 0 0 1 0 0 0 1 76.689352092043833 42.345900336819305 12.666033955233386 1 rotate no_reflect no_shear #
lump $-1 $-1 $14 $2 #
transform $-1 1 0 0 0 1 0 0 0 1 76.689352092043833 42.345900336819305 12.666033955233386 1 rotate no_reflect no_shear #
lump $-1 $-1 $15 $3 #
transform $-1 1 0 0 0 1 0 0 0 1 76.689352092043833 42.345900336819305 12.666033955233386 1 rotate no_reflect no_shear #
shell $-1 $-1 $-1 $16 $-1 $4 #
shell $-1 $-1 $-1 $17 $-1 $6 #
shell $-1 $-1 $-1 $18 $-1 $8 #
shell $-1 $-1 $-1 $19 $-1 $10 #
face $-1 $20 $21 $12 $-1 $22 forward single #
face $-1 $23 $24 $13 $-1 $25 forward single #
face $-1 $26 $27 $14 $-1 $28 reversed single #
face $-1 $29 $30 $15 $-1 $31 forward single #
face $-1 $32 $33 $12 $-1 $34 reversed single #
loop $-1 $-1 $35 $16 #
plane-surface $-1 0 0 12.666033955233386 0 0 1 1 0 0 forward_v I I I I #
face $-1 $36 $37 $13 $-1 $38 reversed single #
loop $-1 $-1 $39 $17 #
plane-surface $-1 0 -37.744647595837719 -9.0872908428232879 0 0 1 1 0 0 forward_v I I I I #
face $-1 $40 $41 $14 $-1 $42 reversed single #
loop $-1 $-1 $43 $18 #
plane-surface $-1 45.004879581540237 63.982536256603318 182.13433686300715 1 0 0 0 -0.5877852598018023 -0.80901698891910034 forward_v I I I I #
face $-1 $44 $45 $15 $-1 $46 forward single #
loop $-1 $47 $48 $19 #
cone-surface $-1 60.847115836792057 38.180453475069584 8.8997527634378155 0 -0.5877852598018023 -0.80901698891910034 1 0 0 1 I I 0 1 1 forward I I I I #
face $-1 $49 $50 $12 $-1 $51 reversed single #
loop $-1 $-1 $52 $20 #
plane-surface $-1 0 0 -12.666033955233386 0 0 1 1 0 0 forward_v I I I I #
coedge $-1 $53 $54 $55 $56 forward $21 $-1 #
face $-1 $57 $58 $13 $-1 $59 reversed single #
loop $-1 $-1 $60 $23 #
plane-surface $-1 0 -33.143394854856126 -10.876662399028337 0 -1 0 0 0 -1 forward_v I I I I #
coedge $-1 $61 $62 $63 $64 reversed $24 $-1 #
face $-1 $65 $66 $14 $-1 $67 reversed single #
loop $-1 $-1 $68 $26 #
plane-surface $-1 60.847115836792028 -26.17120523030443 58.048359439683125 0 0.5877852598018023 0.80901698891910034 1 0 0 forward_v I I I I #
coedge $-1 $69 $70 $71 $72 reversed $27 $-1 #
face $-1 $-1 $73 $15 $-1 $74 forward single #
loop $-1 $75 $76 $29 #
cone-surface $-1 60.847115836792057 36.747961223738592 6.928096365976403 0 -0.5877852598018023 -0.80901698891910034 0.5 0 0 1 I I -0.70710678118654746 0.70710678118654746 0.5 forward I I I I #
loop $-1 $-1 $77 $19 #
coedge $-1 $48 $48 $78 $79 reversed $30 $-1 #
face $-1 $80 $81 $12 $-1 $82 reversed single #
loop $-1 $-1 $83 $32 #
plane-surface $-1 0 -42.345900336819305 0 0 1 0 0 0 1 forward_v I I I I #
coedge $-1 $84 $85 $86 $87 forward $33 $-1 #
coedge $-1 $88 $35 $89 $90 forward $21 $-1 #
coedge $-1 $35 $88 $91 $92 forward $21 $-1 #
coedge $-1 $93 $94 $35 $56 reversed $95 $-1 #
edge $-1 $96 -42.345900336819305 $97 42.345900336819305 $55 $98 forward 7 unknown #
face $-1 $99 $100 $13 $-1 $101 reversed single #
loop $-1 $-1 $102 $36 #
plane-surface $-1 0 0 -12.666033955233386 0 0 1 1 0 0 forward_v I I I I #
coedge $-1 $103 $104 $105 $106 reversed $37 $-1 #
coedge $-1 $107 $39 $104 $108 forward $24 $-1 #
coedge $-1 $39 $107 $109 $110 reversed $24 $-1 #
coedge $-1 $111 $105 $39 $64 forward $100 $-1 #
edge $-1 $112 14.271071056937267 $113 23.473576538900453 $63 $114 forward 7 unknown #
face $-1 $115 $116 $14 $-1 $117 forward single #
loop $-1 $-1 $118 $40 #
plane-surface $-1 76.689352092043833 0 0 -1 0 0 0 0 1 forward_v I I I I #
coedge $-1 $119 $120 $121 $122 reversed $41 $-1 #
coedge $-1 $70 $43 $123 $124 reversed $27 $-1 #
coedge $-1 $43 $69 $119 $125 reversed $27 $-1 #
coedge $-1 $121 $126 $43 $72 forward $116 $-1 #
edge $-1 $127 -10.354632208517646 $128 -4.3009377278784235 $71 $129 forward 7 unknown #
loop $-1 $-1 $78 $44 #
plane-surface $-1 60.847115836792028 -26.17120523030443 58.048359439683125 0 0.5877852598018023 0.80901698891910034 1 0 0 forward_v I I I I #
loop $-1 $-1 $130 $29 #
coedge $-1 $76 $76 $77 $131 reversed $45 $-1 #
coedge $-1 $77 $77 $76 $131 forward $47 $-1 #
coedge $-1 $78 $78 $48 $79 forward $73 $-1 #
edge $-1 $132 -2.6276052086231026e-015 $132 6.2831853071795978 $78 $133 forward 7 unknown #
face $-1 $134 $135 $12 $-1 $136 reversed single #
loop $-1 $-1 $137 $49 #
plane-surface $-1 -76.689352092043833 0 0 1 0 0 0 0 -1 forward_v I I I I #
coedge $-1 $138 $91 $139 $140 forward $50 $-1 #
coedge $-1 $141 $52 $138 $142 forward $33 $-1 #
coedge $-1 $52 $141 $143 $144 forward $33 $-1 #
coedge $-1 $94 $93 $52 $87 reversed $95 $-1 #
edge $-1 $145 -42.345900336819305 $146 42.345900336819305 $86 $147 forward 7 unknown #
coedge $-1 $54 $53 $148 $149 forward $21 $-1 #
coedge $-1 $150 $151 $53 $90 reversed $135 $-1 #
edge $-1 $97 -76.689352092043833 $152 76.689352092043833 $89 $153 forward 7 unknown #
coedge $-1 $83 $154 $54 $92 reversed $50 $-1 #
edge $-1 $155 -76.689352092043833 $96 76.689352092043833 $91 $156 forward 7 unknown #
coedge $-1 $86 $55 $154 $157 forward $95 $-1 #
coedge $-1 $55 $86 $150 $158 reversed $95 $-1 #
loop $-1 $-1 $93 $134 #
vertex $-1 $56 $159 #
vertex $-1 $56 $160 #
straight-curve $-1 76.689352092043833 0 12.666033955233386 0 1 0 I I #
face $-1 $161 $162 $13 $-1 $163 reversed single #
loop $-1 $-1 $105 $57 #
plane-surface $-1 76.689352092043833 0 0 -1 0 0 0 0 1 forward_v I I I I #
coedge $-1 $164 $165 $103 $166 forward $58 $-1 #
coedge $-1 $167 $60 $102 $166 reversed $37 $-1 #
coedge $-1 $60 $167 $61 $108 reversed $37 $-1 #
coedge $-1 $63 $168 $60 $106 forward $100 $-1 #
edge $-1 $169 -7.2277027557192177 $112 -3.6489596433091194 $105 $170 forward 7 unknown #
coedge $-1 $62 $61 $171 $172 reversed $24 $-1 #
edge $-1 $112 -76.689352092043833 $173 76.689352092043833 $104 $174 forward 7 unknown #
coedge $-1 $175 $176 $62 $110 forward $162 $-1 #
edge $-1 $113 -76.689352092043833 $177 76.689352092043833 $109 $178 forward 7 unknown #
coedge $-1 $168 $63 $176 $179 forward $100 $-1 #
vertex $-1 $64 $180 #
vertex $-1 $179 $181 #
straight-curve $-1 76.689352092043833 -18.87232379791886 -9.0872908428232879 0 -1 0 I I #
face $-1 $-1 $182 $14 $-1 $183 reversed single #
loop $-1 $-1 $121 $65 #
plane-surface $-1 0 0 12.666033955233386 0 0 1 1 0 0 forward_v I I I I #
coedge $-1 $184 $185 $120 $186 forward $66 $-1 #
coedge $-1 $187 $68 $70 $125 forward $41 $-1 #
coedge $-1 $68 $187 $118 $186 reversed $41 $-1 #
coedge $-1 $188 $71 $68 $122 forward $116 $-1 #
edge $-1 $128 14.581321663144223 $189 46.265794173647805 $121 $190 forward 7 unknown #
coedge $-1 $191 $192 $69 $124 forward $182 $-1 #
edge $-1 $193 -82.799401053857565 $127 -78.401134476270187 $123 $194 forward 7 unknown #
edge $-1 $128 77.209022730090894 $193 84.691800673638596 $70 $195 forward 7 unknown #
coedge $-1 $71 $188 $191 $196 forward $116 $-1 #
vertex $-1 $124 $197 #
vertex $-1 $72 $198 #
straight-curve $-1 45.004879581540237 31.991268128301659 12.666033955233388 0 -1 0 I I #
coedge $-1 $130 $130 $-1 $199 reversed $75 $-1 #
edge $-1 $200 0 $200 6.2831853071796004 $76 $201 forward 7 unknown #
vertex $-1 $79 $202 #
ellipse-curve $-1 60.847115836792057 39.319053096499694 10.466900666439702 0 0.5877852598018023 0.80901698891910034 1 0 0 1 I I #
face $-1 $-1 $95 $12 $-1 $203 reversed single #
loop $-1 $-1 $150 $80 #
plane-surface $-1 0 42.345900336819305 0 0 -1 0 0 0 -1 forward_v I I I I #
coedge $-1 $204 $148 $151 $205 forward $81 $-1 #
coedge $-1 $154 $83 $84 $142 reversed $50 $-1 #
coedge $-1 $148 $204 $83 $140 reversed $81 $-1 #
edge $-1 $155 -12.666033955233386 $206 12.666033955233386 $139 $207 forward 7 unknown #
coedge $-1 $85 $84 $204 $208 forward $33 $-1 #
edge $-1 $146 -76.689352092043833 $206 76.689352092043833 $138 $209 forward 7 unknown #
coedge $-1 $151 $150 $85 $144 reversed $135 $-1 #
edge $-1 $210 -76.689352092043833 $145 76.689352092043833 $143 $211 forward 7 unknown #
vertex $-1 $87 $212 #
vertex $-1 $157 $213 #
straight-curve $-1 76.689352092043833 0 -12.666033955233386 0 -1 0 I I #
coedge $-1 $137 $139 $88 $149 reversed $81 $-1 #
edge $-1 $152 -42.345900336819305 $155 42.345900336819305 $148 $214 forward 7 unknown #
coedge $-1 $143 $89 $94 $158 forward $135 $-1 #
coedge $-1 $89 $143 $137 $205 reversed $135 $-1 #
vertex $-1 $90 $215 #
straight-curve $-1 0 42.345900336819305 12.666033955233386 -1 0 0 I I #
coedge $-1 $91 $138 $93 $157 reversed $50 $-1 #
vertex $-1 $149 $216 #
straight-curve $-1 0 -42.345900336819305 12.666033955233386 1 0 0 I I #
edge $-1 $96 -12.666033955233386 $146 12.666033955233386 $93 $217 forward 7 unknown #
edge $-1 $97 -12.666033955233386 $145 12.666033955233386 $94 $218 forward 7 unknown #
point $-1 76.689352092043833 -42.345900336819305 12.666033955233386 #
point $-1 76.689352092043833 42.345900336819305 12.666033955233386 #
face $-1 $-1 $219 $13 $-1 $220 reversed single #
loop $-1 $-1 $109 $99 #
plane-surface $-1 0 -42.345900336819305 0 0 1 0 0 0 1 forward_v I I I I #
coedge $-1 $221 $102 $168 $222 forward $58 $-1 #
coedge $-1 $102 $221 $223 $224 forward $58 $-1 #
edge $-1 $225 -76.689352092043833 $169 76.689352092043833 $102 $226 forward 7 unknown #
coedge $-1 $104 $103 $227 $228 reversed $37 $-1 #
coedge $-1 $105 $111 $164 $222 reversed $100 $-1 #
vertex $-1 $222 $229 #
straight-curve $-1 76.689352092043833 -33.143394854856126 -5.4383311995141685 0 0 1 I I #
coedge $-1 $227 $230 $107 $172 forward $219 $-1 #
edge $-1 $177 -23.473576538900453 $173 -14.271071056937267 $171 $231 forward 7 unknown #
vertex $-1 $172 $232 #
straight-curve $-1 0 -33.143394854856126 -9.0872908428232879 -1 0 0 I I #
coedge $-1 $233 $109 $230 $234 forward $162 $-1 #
coedge $-1 $109 $233 $111 $179 reversed $162 $-1 #
vertex $-1 $234 $235 #
straight-curve $-1 0 -42.345900336819305 -9.0872908428232879 -1 0 0 I I #
edge $-1 $113 9.0872908428232879 $236 12.666033955233386 $111 $237 forward 7 unknown #
point $-1 76.689352092043833 -33.143394854856126 -9.0872908428232879 #
point $-1 76.689352092043833 -42.345900336819312 -9.0872908428232879 #
loop $-1 $-1 $123 $115 #
plane-surface $-1 0 42.345900336819305 0 0 -1 0 0 0 -1 forward_v I I I I #
coedge $-1 $185 $118 $238 $239 reversed $66 $-1 #
coedge $-1 $118 $184 $188 $240 reversed $66 $-1 #
edge $-1 $189 49.562562887027269 $241 57.045340830574972 $118 $242 forward 7 unknown #
coedge $-1 $120 $119 $192 $243 reversed $41 $-1 #
coedge $-1 $126 $121 $185 $240 forward $116 $-1 #
vertex $-1 $240 $244 #
straight-curve $-1 30.423557918396014 36.292205856180082 12.666033955233388 1 0 0 I I #
coedge $-1 $238 $123 $126 $196 reversed $182 $-1 #
coedge $-1 $123 $238 $187 $243 forward $182 $-1 #
vertex $-1 $124 $245 #
straight-curve $-1 45.004879581540237 42.345900336819305 91.067168431503575 0 0 1 I I #
straight-curve $-1 45.004879581540237 -26.17120523030443 58.048359439683125 0 0.80901698891910034 -0.5877852598018023 I I #
edge $-1 $246 -76.689352092043833 $127 -45.004879581540237 $191 $247 forward 7 unknown #
point $-1 45.004879581540237 42.345900336819305 12.666033955233386 #
point $-1 45.004879581540237 36.292205856180082 12.666033955233388 #
edge $-1 $248 1 $248 0 $130 $-1 forward 7 unknown #
vertex $-1 $131 $249 #
ellipse-curve $-1 60.847115836792057 37.041853853639495 7.3326048604359535 0 0.5877852598018023 0.80901698891910034 1 0 0 1 I I #
point $-1 61.847115836792057 39.319053096499673 10.466900666439678 #
plane-surface $-1 76.689352092043833 0 0 -1 0 0 0 0 1 forward_v I I I I #
coedge $-1 $139 $137 $141 $208 reversed $81 $-1 #
edge $-1 $152 -12.666033955233386 $210 12.666033955233386 $151 $250 forward 7 unknown #
vertex $-1 $208 $251 #
straight-curve $-1 -76.689352092043833 -42.345900336819305 0 0 0 -1 I I #
edge $-1 $206 -42.345900336819305 $210 42.345900336819305 $204 $252 forward 7 unknown #
straight-curve $-1 0 -42.345900336819305 -12.666033955233386 -1 0 0 I I #
vertex $-1 $144 $253 #
straight-curve $-1 0 42.345900336819305 -12.666033955233386 1 0 0 I I #
point $-1 76.689352092043833 42.345900336819305 -12.666033955233386 #
point $-1 76.689352092043833 -42.345900336819305 -12.666033955233386 #
straight-curve $-1 -76.689352092043833 0 12.666033955233386 0 -1 0 I I #
point $-1 -76.689352092043833 42.345900336819305 12.666033955233386 #
point $-1 -76.689352092043833 -42.345900336819305 12.666033955233386 #
straight-curve $-1 76.689352092043833 -42.345900336819305 0 0 0 -1 I I #
straight-curve $-1 76.689352092043833 42.345900336819305 0 0 0 -1 I I #
loop $-1 $-1 $227 $161 #
plane-surface $-1 -76.689352092043833 0 0 1 0 0 0 0 -1 forward_v I I I I #
coedge $-1 $165 $164 $233 $254 forward $58 $-1 #
edge $-1 $169 33.143394854856126 $236 42.345900336819305 $168 $255 forward 7 unknown #
coedge $-1 $230 $227 $165 $224 reversed $219 $-1 #
edge $-1 $256 -42.345900336819305 $225 -33.143394854856126 $223 $257 forward 7 unknown #
vertex $-1 $228 $258 #
straight-curve $-1 0 -33.143394854856126 -12.666033955233386 1 0 0 I I #
coedge $-1 $223 $171 $167 $228 forward $219 $-1 #
edge $-1 $173 3.6489596433091194 $225 7.2277027557192177 $227 $259 forward 7 unknown #
point $-1 76.689352092043833 -33.143394854856126 -12.666033955233386 #
coedge $-1 $171 $223 $175 $234 reversed $219 $-1 #
straight-curve $-1 -76.689352092043833 -18.87232379791886 -9.0872908428232879 0 1 0 I I #
point $-1 -76.689352092043833 -33.143394854856126 -9.0872908428232879 #
coedge $-1 $176 $175 $221 $254 reversed $162 $-1 #
edge $-1 $177 9.0872908428232879 $256 12.666033955233386 $230 $260 forward 7 unknown #
point $-1 -76.689352092043833 -42.345900336819312 -9.0872908428232879 #
vertex $-1 $179 $261 #
straight-curve $-1 76.689352092043833 -42.345900336819305 0 0 0 -1 I I #
coedge $-1 $192 $191 $184 $239 forward $182 $-1 #
edge $-1 $246 -12.666033955233386 $241 -8.2677673776460097 $184 $262 forward 7 unknown #
edge $-1 $189 36.292205856180082 $246 42.345900336819305 $185 $263 forward 7 unknown #
vertex $-1 $186 $264 #
straight-curve $-1 76.689352092043833 -3.804749533796274 41.798177858227874 0 0.80901698891910034 -0.5877852598018023 I I #
edge $-1 $241 -46.265794173647805 $193 -14.581321663144223 $192 $265 forward 7 unknown #
point $-1 76.689352092043819 36.292205856180082 12.666033955233388 #
point $-1 45.004879581540237 42.345900336819305 8.2677673776460097 #
vertex $-1 $240 $266 #
straight-curve $-1 0 42.345900336819305 12.666033955233386 -1 0 0 I I #
vertex $-1 $199 $267 #
point $-1 61.847115836792057 37.041853853639495 7.3326048604359535 #
straight-curve $-1 -76.689352092043833 42.345900336819305 0 0 0 -1 I I #
point $-1 -76.689352092043833 -42.345900336819305 -12.666033955233386 #
straight-curve $-1 -76.689352092043833 0 -12.666033955233386 0 1 0 I I #
point $-1 -76.689352092043833 42.345900336819305 -12.666033955233386 #
edge $-1 $236 -76.689352092043833 $256 76.689352092043833 $233 $268 forward 7 unknown #
straight-curve $-1 76.689352092043833 0 -12.666033955233386 0 -1 0 I I #
vertex $-1 $224 $269 #
straight-curve $-1 -76.689352092043833 0 -12.666033955233386 0 1 0 I I #
point $-1 -76.689352092043833 -33.143394854856126 -12.666033955233386 #
straight-curve $-1 -76.689352092043833 -33.143394854856126 -5.4383311995141685 0 0 -1 I I #
straight-curve $-1 -76.689352092043833 -42.345900336819305 0 0 0 -1 I I #
point $-1 76.689352092043833 -42.345900336819305 -12.666033955233386 #
straight-curve $-1 76.689352092043833 42.345900336819305 0 0 0 -1 I I #
straight-curve $-1 76.689352092043833 0 12.666033955233386 0 1 0 I I #
point $-1 76.689352092043819 42.345900336819305 8.2677673776460097 #
straight-curve $-1 30.423557918396014 42.345900336819305 8.267767377645999 -1 0 0 I I #
point $-1 76.689352092043833 42.345900336819305 12.666033955233386 #
point $-1 60.847115836792057 36.45406859383769 6.5235878715168525 #
straight-curve $-1 0 -42.345900336819305 -12.666033955233386 -1 0 0 I I #
point $-1 -76.689352092043833 -42.345900336819305 -12.666033955233386 #
End-of-ACIS-data 