500 0 9 0           
7 Unknown 11 ACIS 5.0 NT 24 Thu Mar 25 20:01:54 1999 
-1 9.9999999999999995e-007 1e-010 
body $-1 $9 $-1 $10 #
body $-1 $11 $-1 $12 #
body $-1 $13 $-1 $14 #
body $-1 $15 $-1 $16 #
body $-1 $17 $-1 $18 #
body $-1 $19 $-1 $20 #
body $-1 $21 $-1 $22 #
body $-1 $23 $-1 $24 #
body $-1 $25 $-1 $26 #
lump $-1 $-1 $27 $0 #
transform $-1 1 0 0 0 1 0 0 0 1 50.259102145451216 28.509658601578749 13.818662063722465 1 rotate no_reflect no_shear #
lump $-1 $-1 $28 $1 #
transform $-1 1 0 0 0 1 0 0 0 1 50.259102145451216 28.509658601578749 13.818662063722465 1 rotate no_reflect no_shear #
lump $-1 $-1 $29 $2 #
transform $-1 1 0 0 0 1 0 0 0 1 50.259102145451216 28.509658601578749 13.818662063722465 1 rotate no_reflect no_shear #
lump $-1 $-1 $30 $3 #
transform $-1 1 0 0 0 1 0 0 0 1 50.259102145451216 28.509658601578749 13.818662063722465 1 rotate no_reflect no_shear #
lump $-1 $-1 $31 $4 #
transform $-1 1 0 0 0 1 0 0 0 1 50.259102145451216 28.509658601578749 13.818662063722465 1 rotate no_reflect no_shear #
lump $-1 $-1 $32 $5 #
transform $-1 1 0 0 0 1 0 0 0 1 50.259102145451216 28.509658601578749 13.818662063722465 1 rotate no_reflect no_shear #
lump $-1 $-1 $33 $6 #
transform $-1 1 0 0 0 1 0 0 0 1 50.259102145451216 28.509658601578749 13.818662063722465 1 rotate no_reflect no_shear #
lump $-1 $-1 $34 $7 #
transform $-1 1 0 0 0 1 0 0 0 1 50.259102145451216 28.509658601578749 13.818662063722465 1 rotate no_reflect no_shear #
lump $-1 $-1 $35 $8 #
transform $-1 1 0 0 0 1 0 0 0 1 50.259102145451216 28.509658601578749 13.818662063722465 1 rotate no_reflect no_shear #
shell $-1 $-1 $-1 $36 $-1 $9 #
shell $-1 $-1 $-1 $37 $-1 $11 #
shell $-1 $-1 $-1 $38 $-1 $13 #
shell $-1 $-1 $-1 $39 $-1 $15 #
shell $-1 $-1 $-1 $40 $-1 $17 #
shell $-1 $-1 $-1 $41 $-1 $19 #
shell $-1 $-1 $-1 $42 $-1 $21 #
shell $-1 $-1 $-1 $43 $-1 $23 #
shell $-1 $-1 $-1 $44 $-1 $25 #
face $-1 $45 $46 $27 $-1 $47 forward single #
face $-1 $48 $49 $28 $-1 $50 forward single #
face $-1 $51 $52 $29 $-1 $53 reversed single #
face $-1 $54 $55 $30 $-1 $56 forward single #
face $-1 $57 $58 $31 $-1 $59 forward single #
face $-1 $60 $61 $32 $-1 $62 reversed single #
face $-1 $63 $64 $33 $-1 $65 forward single #
face $-1 $66 $67 $34 $-1 $68 forward single #
face $-1 $69 $70 $35 $-1 $71 forward single #
face $-1 $72 $73 $27 $-1 $74 reversed single #
loop $-1 $-1 $75 $36 #
plane-surface $-1 0 0 13.818662063722465 0 0 1 1 0 0 forward_v I I I I #
face $-1 $76 $77 $28 $-1 $78 reversed single #
loop $-1 $-1 $79 $37 #
plane-surface $-1 0 -23.706510627832795 -5.9760115026634377 0 0 1 1 0 0 forward_v I I I I #
face $-1 $80 $81 $29 $-1 $82 reversed single #
loop $-1 $-1 $83 $38 #
plane-surface $-1 23.134801794906032 21.290140150564508 143.04883429013171 0 1 0 0.55919291073839883 0 0.82903756765294845 forward_v I I I I #
face $-1 $84 $85 $30 $-1 $86 forward single #
loop $-1 $87 $88 $39 #
cone-surface $-1 41.814039297416606 23.352859707997148 7.4753197172032868 -0.55919291073839883 0 -0.82903756765294845 0.82903756765294845 0 -0.55919291073839883 1 I I 0 1 1 forward I I I I #
face $-1 $89 $90 $31 $-1 $91 forward single #
loop $-1 $92 $93 $40 #
cone-surface $-1 41.814039297416606 26.446939044146106 7.4753197172032868 -0.55919291073839883 0 -0.82903756765294845 0.82903756765294845 0 -0.55919291073839883 1 I I 0 1 1 forward I I I I #
face $-1 $94 $95 $32 $-1 $96 reversed single #
loop $-1 $-1 $97 $41 #
plane-surface $-1 -127.26051480775345 -18.903362654086841 69.333608445035495 0 1 0 -0.7660444514056185 0 0.64278759981090561 forward_v I I I I #
face $-1 $98 $99 $33 $-1 $100 forward single #
loop $-1 $101 $102 $42 #
cone-surface $-1 -45.733874872069094 -16.454981346133593 8.6756040762558673 0.7660444514056185 0 -0.64278759981090561 0.3213937999054528 0 0.38302222570280925 1 I I 0 1 0.5 forward I I I I #
face $-1 $103 $104 $34 $-1 $105 forward single #
loop $-1 $106 $107 $43 #
cone-surface $-1 -45.733874872069094 -12.782409384203714 8.6756040762558673 0.7660444514056185 0 -0.64278759981090561 0.3213937999054528 0 0.38302222570280925 1 I I 0 1 0.5 forward I I I I #
face $-1 $108 $109 $35 $-1 $110 forward single #
loop $-1 $111 $112 $44 #
cone-surface $-1 -45.733874872069094 -9.1098374222738343 8.6756040762558673 0.7660444514056185 0 -0.64278759981090561 0.3213937999054528 0 0.38302222570280925 1 I I 0 1 0.5 forward I I I I #
face $-1 $113 $114 $27 $-1 $115 reversed single #
loop $-1 $-1 $116 $45 #
plane-surface $-1 0 0 -13.818662063722465 0 0 1 1 0 0 forward_v I I I I #
coedge $-1 $117 $118 $119 $120 forward $46 $-1 #
face $-1 $121 $122 $28 $-1 $123 reversed single #
loop $-1 $-1 $124 $48 #
plane-surface $-1 0 -18.903362654086841 -9.8973367831929515 0 -1 0 0 0 -1 forward_v I I I I #
coedge $-1 $125 $126 $127 $128 reversed $49 $-1 #
face $-1 $129 $130 $29 $-1 $131 forward single #
loop $-1 $-1 $132 $51 #
plane-surface $-1 -33.074265444720702 24.89989937607163 59.715466699959805 0.55919291073839883 0 0.82903756765294845 0.82903756765294845 0 -0.55919291073839883 forward_v I I I I #
coedge $-1 $133 $134 $135 $136 reversed $52 $-1 #
face $-1 $-1 $137 $30 $-1 $138 forward single #
loop $-1 $139 $140 $54 #
cone-surface $-1 40.733658865881345 23.352859707997148 5.8735898885523508 -0.55919291073839883 0 -0.82903756765294845 0.41451878382647422 0 -0.27959645536919941 1 I I -0.70710678118654746 0.70710678118654746 0.5 forward I I I I #
loop $-1 $-1 $141 $39 #
coedge $-1 $88 $88 $142 $143 reversed $55 $-1 #
face $-1 $-1 $144 $31 $-1 $145 forward single #
loop $-1 $146 $147 $57 #
cone-surface $-1 40.733658865881345 26.446939044146106 5.8735898885523508 -0.55919291073839883 0 -0.82903756765294845 0.41451878382647422 0 -0.27959645536919941 1 I I -0.70710678118654746 0.70710678118654746 0.5 forward I I I I #
loop $-1 $-1 $148 $40 #
coedge $-1 $93 $93 $149 $150 reversed $58 $-1 #
face $-1 $151 $152 $32 $-1 $153 reversed single #
loop $-1 $-1 $154 $60 #
plane-surface $-1 -50.259102145451195 -12.782409384203714 4.7217531715840408 -0.7660444514056185 0 0.64278759981090561 0.64278759981090561 0 0.7660444514056185 forward_v I I I I #
coedge $-1 $155 $156 $157 $158 reversed $61 $-1 #
face $-1 $-1 $159 $33 $-1 $160 forward single #
loop $-1 $161 $162 $63 #
cone-surface $-1 -44.833742834035561 -16.454981346133593 7.9203036349057481 0.7660444514056185 0 -0.64278759981090561 0.1606968999527264 0 0.19151111285140462 1 I I -0.70710678118654746 0.70710678118654746 0.25 forward I I I I #
loop $-1 $-1 $163 $42 #
coedge $-1 $102 $102 $164 $165 reversed $64 $-1 #
face $-1 $-1 $166 $34 $-1 $167 forward single #
loop $-1 $168 $169 $66 #
cone-surface $-1 -44.833742834035561 -12.782409384203714 7.9203036349057481 0.7660444514056185 0 -0.64278759981090561 0.1606968999527264 0 0.19151111285140462 1 I I -0.70710678118654746 0.70710678118654746 0.25 forward I I I I #
loop $-1 $-1 $170 $43 #
coedge $-1 $107 $107 $171 $172 reversed $67 $-1 #
face $-1 $-1 $173 $35 $-1 $174 forward single #
loop $-1 $175 $176 $69 #
cone-surface $-1 -44.833742834035561 -9.1098374222738343 7.9203036349057481 0.7660444514056185 0 -0.64278759981090561 0.1606968999527264 0 0.19151111285140462 1 I I -0.70710678118654746 0.70710678118654746 0.25 forward I I I I #
loop $-1 $-1 $177 $44 #
coedge $-1 $112 $112 $178 $179 reversed $70 $-1 #
face $-1 $180 $181 $27 $-1 $182 reversed single #
loop $-1 $-1 $183 $72 #
plane-surface $-1 0 -28.509658601578749 0 0 1 0 0 0 1 forward_v I I I I #
coedge $-1 $184 $185 $186 $187 forward $73 $-1 #
coedge $-1 $188 $75 $189 $190 forward $46 $-1 #
coedge $-1 $75 $188 $191 $192 forward $46 $-1 #
coedge $-1 $193 $194 $75 $120 reversed $195 $-1 #
edge $-1 $196 -28.509658601578749 $197 28.509658601578749 $119 $198 forward 7 unknown #
face $-1 $199 $200 $28 $-1 $201 reversed single #
loop $-1 $-1 $202 $76 #
plane-surface $-1 0 0 -13.818662063722465 0 0 1 1 0 0 forward_v I I I I #
coedge $-1 $203 $204 $205 $206 reversed $77 $-1 #
coedge $-1 $207 $79 $204 $208 forward $49 $-1 #
coedge $-1 $79 $207 $209 $210 reversed $49 $-1 #
coedge $-1 $211 $205 $79 $128 forward $200 $-1 #
edge $-1 $212 7.0501073401704435 $213 16.65640328766235 $127 $214 forward 7 unknown #
face $-1 $215 $216 $29 $-1 $217 reversed single #
loop $-1 $-1 $218 $80 #
plane-surface $-1 0 0 13.818662063722465 0 0 1 1 0 0 forward_v I I I I #
coedge $-1 $219 $220 $221 $222 reversed $81 $-1 #
coedge $-1 $134 $83 $223 $224 reversed $52 $-1 #
coedge $-1 $83 $133 $219 $225 reversed $52 $-1 #
coedge $-1 $221 $226 $83 $136 forward $227 $-1 #
edge $-1 $228 57.705755081343391 $229 68.018017684732797 $135 $230 forward 7 unknown #
loop $-1 $-1 $142 $84 #
plane-surface $-1 -33.074265444720702 24.89989937607163 59.715466699959805 0.55919291073839883 0 0.82903756765294845 0.82903756765294845 0 -0.55919291073839883 forward_v I I I I #
loop $-1 $-1 $231 $54 #
coedge $-1 $140 $140 $141 $232 reversed $85 $-1 #
coedge $-1 $141 $141 $140 $232 forward $87 $-1 #
coedge $-1 $142 $142 $88 $143 forward $137 $-1 #
edge $-1 $233 0 $233 6.2831853071796004 $142 $234 forward 7 unknown #
loop $-1 $-1 $149 $89 #
plane-surface $-1 -33.074265444720702 24.89989937607163 59.715466699959805 0.55919291073839883 0 0.82903756765294845 0.82903756765294845 0 -0.55919291073839883 forward_v I I I I #
loop $-1 $-1 $235 $57 #
coedge $-1 $147 $147 $148 $236 reversed $90 $-1 #
coedge $-1 $148 $148 $147 $236 forward $92 $-1 #
coedge $-1 $149 $149 $93 $150 forward $144 $-1 #
edge $-1 $237 0 $237 6.2831853071796004 $149 $238 forward 7 unknown #
face $-1 $239 $240 $32 $-1 $241 reversed single #
loop $-1 $-1 $242 $94 #
plane-surface $-1 -127.26051480775345 -6.6614561143205853 69.333608445035495 0 -1 0 0.7660444514056185 0 -0.64278759981090561 forward_v I I I I #
coedge $-1 $243 $244 $245 $246 reversed $95 $-1 #
coedge $-1 $156 $97 $247 $248 reversed $61 $-1 #
coedge $-1 $97 $155 $243 $249 reversed $61 $-1 #
coedge $-1 $245 $250 $97 $158 forward $251 $-1 #
edge $-1 $252 13.37115525842551 $253 21.004367954825533 $157 $254 forward 7 unknown #
loop $-1 $-1 $164 $98 #
plane-surface $-1 -50.259102145451195 -12.782409384203714 4.7217531715840408 -0.7660444514056185 0 0.64278759981090561 0.64278759981090561 0 0.7660444514056185 forward_v I I I I #
loop $-1 $-1 $255 $63 #
coedge $-1 $162 $162 $163 $256 reversed $99 $-1 #
coedge $-1 $163 $163 $162 $256 forward $101 $-1 #
coedge $-1 $164 $164 $102 $165 forward $159 $-1 #
edge $-1 $257 0 $257 6.2831853071796004 $164 $258 forward 7 unknown #
loop $-1 $-1 $171 $103 #
plane-surface $-1 -50.259102145451195 -12.782409384203714 4.7217531715840408 -0.7660444514056185 0 0.64278759981090561 0.64278759981090561 0 0.7660444514056185 forward_v I I I I #
loop $-1 $-1 $259 $66 #
coedge $-1 $169 $169 $170 $260 reversed $104 $-1 #
coedge $-1 $170 $170 $169 $260 forward $106 $-1 #
coedge $-1 $171 $171 $107 $172 forward $166 $-1 #
edge $-1 $261 0 $261 6.2831853071796004 $171 $262 forward 7 unknown #
loop $-1 $-1 $178 $108 #
plane-surface $-1 -50.259102145451195 -12.782409384203714 4.7217531715840408 -0.7660444514056185 0 0.64278759981090561 0.64278759981090561 0 0.7660444514056185 forward_v I I I I #
loop $-1 $-1 $263 $69 #
coedge $-1 $176 $176 $177 $264 reversed $109 $-1 #
coedge $-1 $177 $177 $176 $264 forward $111 $-1 #
coedge $-1 $178 $178 $112 $179 forward $173 $-1 #
edge $-1 $265 0 $265 6.2831853071796004 $178 $266 forward 7 unknown #
face $-1 $267 $268 $27 $-1 $269 reversed single #
loop $-1 $-1 $270 $113 #
plane-surface $-1 -50.259102145451216 0 0 1 0 0 0 0 -1 forward_v I I I I #
coedge $-1 $271 $191 $272 $273 forward $114 $-1 #
coedge $-1 $274 $116 $271 $275 forward $73 $-1 #
coedge $-1 $116 $274 $276 $277 forward $73 $-1 #
coedge $-1 $194 $193 $116 $187 reversed $195 $-1 #
edge $-1 $278 -28.509658601578749 $279 28.509658601578749 $186 $280 forward 7 unknown #
coedge $-1 $118 $117 $281 $282 forward $46 $-1 #
coedge $-1 $283 $284 $117 $190 reversed $268 $-1 #
edge $-1 $197 -50.259102145451216 $285 50.259102145451216 $189 $286 forward 7 unknown #
coedge $-1 $183 $287 $118 $192 reversed $114 $-1 #
edge $-1 $288 -50.259102145451216 $196 50.259102145451216 $191 $289 forward 7 unknown #
coedge $-1 $186 $119 $287 $290 forward $195 $-1 #
coedge $-1 $119 $186 $283 $291 reversed $195 $-1 #
loop $-1 $-1 $193 $267 #
vertex $-1 $120 $292 #
vertex $-1 $120 $293 #
straight-curve $-1 50.259102145451216 0 13.818662063722465 0 1 0 I I #
face $-1 $294 $295 $28 $-1 $296 reversed single #
loop $-1 $-1 $205 $121 #
plane-surface $-1 50.259102145451216 0 0 -1 0 0 0 0 1 forward_v I I I I #
coedge $-1 $297 $298 $203 $299 forward $122 $-1 #
coedge $-1 $300 $124 $202 $299 reversed $77 $-1 #
coedge $-1 $124 $300 $125 $208 reversed $77 $-1 #
coedge $-1 $127 $301 $124 $206 forward $200 $-1 #
edge $-1 $302 -8.8699936721259895 $212 -1.027343111066962 $205 $303 forward 7 unknown #
coedge $-1 $126 $125 $304 $305 reversed $49 $-1 #
edge $-1 $212 -50.259102145451216 $306 50.259102145451216 $204 $307 forward 7 unknown #
coedge $-1 $308 $309 $126 $210 forward $295 $-1 #
edge $-1 $213 -50.259102145451216 $310 50.259102145451216 $209 $311 forward 7 unknown #
coedge $-1 $301 $127 $309 $312 forward $200 $-1 #
vertex $-1 $128 $313 #
vertex $-1 $312 $314 #
straight-curve $-1 50.259102145451216 -11.853255313916398 -5.9760115026634377 0 -1 0 I I #
face $-1 $-1 $227 $29 $-1 $315 reversed single #
loop $-1 $-1 $316 $129 #
plane-surface $-1 0 28.509658601578749 0 0 -1 0 0 0 -1 forward_v I I I I #
coedge $-1 $223 $317 $318 $319 forward $130 $-1 #
coedge $-1 $318 $132 $134 $225 forward $81 $-1 #
coedge $-1 $132 $318 $316 $320 reversed $81 $-1 #
coedge $-1 $321 $135 $132 $222 forward $227 $-1 #
edge $-1 $229 8.8401904625286924 $322 16.059708913542934 $221 $323 forward 7 unknown #
coedge $-1 $324 $218 $133 $224 forward $130 $-1 #
edge $-1 $325 23.403143504261141 $228 38.691701247998196 $223 $326 forward 7 unknown #
edge $-1 $229 -100.51820429090243 $325 -82.076871424624954 $134 $327 forward 7 unknown #
coedge $-1 $135 $321 $324 $328 reversed $227 $-1 #
loop $-1 $-1 $221 $215 #
vertex $-1 $328 $329 #
vertex $-1 $136 $330 #
straight-curve $-1 50.259102145451216 21.290140150564508 71.524417145065854 0 0 -1 I I #
coedge $-1 $231 $231 $-1 $331 reversed $139 $-1 #
edge $-1 $332 0 $332 6.2831853071796004 $140 $333 forward 7 unknown #
vertex $-1 $143 $334 #
ellipse-curve $-1 42.61482327358268 23.352859707997148 8.6625307620277727 0.55919291073839883 0 0.82903756765294845 0.82903756765294845 0 -0.55919291073839883 1 I I #
coedge $-1 $235 $235 $-1 $335 reversed $146 $-1 #
edge $-1 $336 0 $336 6.2831853071796004 $147 $337 forward 7 unknown #
vertex $-1 $150 $338 #
ellipse-curve $-1 42.61482327358268 26.446939044146106 8.6625307620277727 0.55919291073839883 0 0.82903756765294845 0.82903756765294845 0 -0.55919291073839883 1 I I #
face $-1 $-1 $251 $32 $-1 $339 forward single #
loop $-1 $-1 $340 $151 #
plane-surface $-1 -50.259102145451216 0 0 1 0 0 0 0 -1 forward_v I I I I #
coedge $-1 $341 $342 $343 $344 reversed $152 $-1 #
coedge $-1 $345 $154 $156 $249 forward $95 $-1 #
coedge $-1 $154 $345 $341 $346 forward $95 $-1 #
coedge $-1 $343 $157 $154 $246 forward $251 $-1 #
edge $-1 $253 -12.512157961984984 $347 -0.27025142221872844 $245 $348 forward 7 unknown #
coedge $-1 $349 $350 $155 $248 forward $240 $-1 #
edge $-1 $351 -29.945051050933731 $252 -20.848142158795284 $247 $352 forward 7 unknown #
edge $-1 $253 -11.875171049730165 $351 3.3432982148284547e-014 $156 $353 forward 7 unknown #
coedge $-1 $157 $343 $349 $354 forward $251 $-1 #
loop $-1 $-1 $343 $239 #
vertex $-1 $248 $355 #
vertex $-1 $158 $356 #
straight-curve $-1 -63.630257403876726 -18.903362654086841 13.818662063722464 1 0 0 I I #
coedge $-1 $255 $255 $-1 $357 reversed $161 $-1 #
edge $-1 $358 0 $358 6.2831853071796004 $162 $359 forward 7 unknown #
vertex $-1 $165 $360 #
ellipse-curve $-1 -46.442495797251205 -16.454981346133593 9.2702076176532415 -0.7660444514056185 0 0.64278759981090561 0.3213937999054528 0 0.38302222570280925 1 I I #
coedge $-1 $259 $259 $-1 $361 reversed $168 $-1 #
edge $-1 $362 0 $362 6.2831853071796004 $169 $363 forward 7 unknown #
vertex $-1 $172 $364 #
ellipse-curve $-1 -46.442495797251205 -12.782409384203714 9.2702076176532415 -0.7660444514056185 0 0.64278759981090561 0.3213937999054528 0 0.38302222570280925 1 I I #
coedge $-1 $263 $263 $-1 $365 reversed $175 $-1 #
edge $-1 $366 0 $366 6.2831853071796004 $176 $367 forward 7 unknown #
vertex $-1 $179 $368 #
ellipse-curve $-1 -46.442495797251205 -9.1098374222738343 9.2702076176532415 -0.7660444514056185 0 0.64278759981090561 0.3213937999054528 0 0.38302222570280925 1 I I #
face $-1 $-1 $195 $27 $-1 $369 reversed single #
loop $-1 $-1 $283 $180 #
plane-surface $-1 0 28.509658601578749 0 0 -1 0 0 0 -1 forward_v I I I I #
coedge $-1 $370 $281 $284 $371 forward $181 $-1 #
coedge $-1 $287 $183 $184 $275 reversed $114 $-1 #
coedge $-1 $281 $370 $183 $273 reversed $181 $-1 #
edge $-1 $288 -13.818662063722465 $372 13.818662063722465 $272 $373 forward 7 unknown #
coedge $-1 $185 $184 $370 $374 forward $73 $-1 #
edge $-1 $279 -50.259102145451216 $372 50.259102145451216 $271 $375 forward 7 unknown #
coedge $-1 $284 $283 $185 $277 reversed $268 $-1 #
edge $-1 $376 -50.259102145451216 $278 50.259102145451216 $276 $377 forward 7 unknown #
vertex $-1 $187 $378 #
vertex $-1 $290 $379 #
straight-curve $-1 50.259102145451216 0 -13.818662063722465 0 -1 0 I I #
coedge $-1 $270 $272 $188 $282 reversed $181 $-1 #
edge $-1 $285 -28.509658601578749 $288 28.509658601578749 $281 $380 forward 7 unknown #
coedge $-1 $276 $189 $194 $291 forward $268 $-1 #
coedge $-1 $189 $276 $270 $371 reversed $268 $-1 #
vertex $-1 $190 $381 #
straight-curve $-1 0 28.509658601578749 13.818662063722465 -1 0 0 I I #
coedge $-1 $191 $271 $193 $290 reversed $114 $-1 #
vertex $-1 $282 $382 #
straight-curve $-1 0 -28.509658601578749 13.818662063722465 1 0 0 I I #
edge $-1 $196 -13.818662063722465 $279 13.818662063722465 $193 $383 forward 7 unknown #
edge $-1 $197 -13.818662063722465 $278 13.818662063722465 $194 $384 forward 7 unknown #
point $-1 50.259102145451216 -28.509658601578749 13.818662063722465 #
point $-1 50.259102145451216 28.509658601578749 13.818662063722465 #
face $-1 $-1 $385 $28 $-1 $386 reversed single #
loop $-1 $-1 $209 $199 #
plane-surface $-1 0 -28.509658601578749 0 0 1 0 0 0 1 forward_v I I I I #
coedge $-1 $387 $202 $301 $388 forward $122 $-1 #
coedge $-1 $202 $387 $389 $390 forward $122 $-1 #
edge $-1 $391 -50.259102145451216 $302 50.259102145451216 $202 $392 forward 7 unknown #
coedge $-1 $204 $203 $393 $394 reversed $77 $-1 #
coedge $-1 $205 $211 $297 $388 reversed $200 $-1 #
vertex $-1 $388 $395 #
straight-curve $-1 50.259102145451216 -18.903362654086841 -4.9486683915964758 0 0 1 I I #
coedge $-1 $393 $396 $207 $305 forward $385 $-1 #
edge $-1 $310 -16.65640328766235 $306 -7.0501073401704435 $304 $397 forward 7 unknown #
vertex $-1 $305 $398 #
straight-curve $-1 0 -18.903362654086841 -5.9760115026634377 -1 0 0 I I #
coedge $-1 $399 $209 $396 $400 forward $295 $-1 #
coedge $-1 $209 $399 $211 $312 reversed $295 $-1 #
vertex $-1 $400 $401 #
straight-curve $-1 0 -28.509658601578749 -5.9760115026634377 -1 0 0 I I #
edge $-1 $213 5.9760115026634377 $402 13.818662063722465 $211 $403 forward 7 unknown #
point $-1 50.259102145451216 -18.903362654086841 -5.9760115026634377 #
point $-1 50.259102145451216 -28.509658601578749 -5.9760115026634377 #
plane-surface $-1 50.259102145451216 0 0 -1 0 0 0 0 1 forward_v I I I I #
coedge $-1 $404 $405 $220 $320 forward $216 $-1 #
coedge $-1 $218 $324 $404 $406 forward $130 $-1 #
coedge $-1 $220 $219 $218 $319 reversed $81 $-1 #
edge $-1 $407 -16.059708913542938 $325 -8.8401904625286924 $218 $408 forward 7 unknown #
edge $-1 $322 -70.112067182776599 $407 -51.670734316499114 $316 $409 forward 7 unknown #
coedge $-1 $226 $221 $405 $410 reversed $227 $-1 #
vertex $-1 $222 $411 #
straight-curve $-1 50.259102145451216 12.449949688035815 3.5063994603330606 0 1 0 I I #
coedge $-1 $317 $223 $226 $328 forward $130 $-1 #
vertex $-1 $224 $412 #
straight-curve $-1 11.567400897453016 21.290140150564508 13.818662063722471 1 0 0 I I #
straight-curve $-1 -33.074265444720702 21.290140150564508 59.715466699959805 -0.82903756765294845 0 0.55919291073839883 I I #
edge $-1 $228 21.290140150564508 $413 28.509658601578749 $226 $414 forward 7 unknown #
point $-1 50.259102145451216 21.290140150564508 13.818662063722465 #
point $-1 50.259102145451216 21.290140150564508 3.5063994603330642 #
edge $-1 $415 1 $415 0 $231 $-1 forward 7 unknown #
vertex $-1 $232 $416 #
ellipse-curve $-1 41.013255321250547 23.352859707997148 6.2881086723788249 0.55919291073839883 0 0.82903756765294845 0.82903756765294845 0 -0.55919291073839883 1 I I #
point $-1 43.443860841235612 23.352859707997148 8.1033378512893499 #
edge $-1 $417 1 $417 0 $235 $-1 forward 7 unknown #
vertex $-1 $236 $418 #
ellipse-curve $-1 41.013255321250547 26.446939044146106 6.2881086723788249 0.55919291073839883 0 0.82903756765294845 0.82903756765294845 0 -0.55919291073839883 1 I I #
point $-1 43.443860841235612 26.446939044146106 8.1033378512893499 #
plane-surface $-1 0 0 13.818662063722465 0 0 1 1 0 0 forward_v I I I I #
coedge $-1 $350 $349 $342 $419 forward $240 $-1 #
coedge $-1 $342 $242 $244 $346 reversed $152 $-1 #
coedge $-1 $242 $341 $340 $419 reversed $152 $-1 #
coedge $-1 $250 $245 $242 $344 forward $251 $-1 #
edge $-1 $347 -21.004367954825533 $420 -13.37115525842551 $343 $421 forward 7 unknown #
coedge $-1 $244 $243 $350 $422 reversed $95 $-1 #
edge $-1 $423 -3.3432982148284547e-014 $347 11.875171049730165 $341 $424 forward 7 unknown #
vertex $-1 $246 $425 #
straight-curve $-1 -42.625889449051193 -6.3912046921018568 13.818662063722467 0 1 0 I I #
coedge $-1 $340 $247 $250 $354 reversed $240 $-1 #
coedge $-1 $247 $340 $345 $422 forward $240 $-1 #
vertex $-1 $248 $426 #
straight-curve $-1 -50.259102145451216 -18.903362654086841 34.666804222517747 0 0 1 I I #
straight-curve $-1 -50.259102145451195 -18.903362654086841 4.7217531715840408 -0.64278759981090561 0 -0.7660444514056185 I I #
edge $-1 $420 6.6614561143205853 $252 18.903362654086841 $349 $427 forward 7 unknown #
point $-1 -50.259102145451216 -18.903362654086841 13.818662063722465 #
point $-1 -42.625889449051193 -18.903362654086841 13.818662063722465 #
edge $-1 $428 1 $428 0 $255 $-1 forward 7 unknown #
vertex $-1 $256 $429 #
ellipse-curve $-1 -45.025253946886963 -16.454981346133593 8.0810005348584752 -0.7660444514056185 0 0.64278759981090561 0.3213937999054528 0 0.38302222570280925 1 I I #
point $-1 -46.121101997345775 -16.454981346133593 9.6532298433560708 #
edge $-1 $430 1 $430 0 $259 $-1 forward 7 unknown #
vertex $-1 $260 $431 #
ellipse-curve $-1 -45.025253946886963 -12.782409384203714 8.0810005348584752 -0.7660444514056185 0 0.64278759981090561 0.3213937999054528 0 0.38302222570280925 1 I I #
point $-1 -46.121101997345775 -12.782409384203714 9.6532298433560708 #
edge $-1 $432 1 $432 0 $263 $-1 forward 7 unknown #
vertex $-1 $264 $433 #
ellipse-curve $-1 -45.025253946886963 -9.1098374222738343 8.0810005348584752 -0.7660444514056185 0 0.64278759981090561 0.3213937999054528 0 0.38302222570280925 1 I I #
point $-1 -46.121101997345775 -9.1098374222738343 9.6532298433560708 #
plane-surface $-1 50.259102145451216 0 0 -1 0 0 0 0 1 forward_v I I I I #
coedge $-1 $272 $270 $274 $374 reversed $181 $-1 #
edge $-1 $285 -13.818662063722465 $376 13.818662063722465 $284 $434 forward 7 unknown #
vertex $-1 $374 $435 #
straight-curve $-1 -50.259102145451216 -28.509658601578749 0 0 0 -1 I I #
edge $-1 $372 -28.509658601578749 $376 28.509658601578749 $370 $436 forward 7 unknown #
straight-curve $-1 0 -28.509658601578749 -13.818662063722465 -1 0 0 I I #
vertex $-1 $277 $437 #
straight-curve $-1 0 28.509658601578749 -13.818662063722465 1 0 0 I I #
point $-1 50.259102145451216 28.509658601578749 -13.818662063722465 #
point $-1 50.259102145451216 -28.509658601578749 -13.818662063722465 #
straight-curve $-1 -50.259102145451216 0 13.818662063722465 0 -1 0 I I #
point $-1 -50.259102145451216 28.509658601578749 13.818662063722465 #
point $-1 -50.259102145451216 -28.509658601578749 13.818662063722465 #
straight-curve $-1 50.259102145451216 -28.509658601578749 0 0 0 -1 I I #
straight-curve $-1 50.259102145451216 28.509658601578749 0 0 0 -1 I I #
loop $-1 $-1 $393 $294 #
plane-surface $-1 -50.259102145451216 0 0 1 0 0 0 0 -1 forward_v I I I I #
coedge $-1 $298 $297 $399 $438 forward $122 $-1 #
edge $-1 $302 18.903362654086841 $402 28.509658601578749 $301 $439 forward 7 unknown #
coedge $-1 $396 $393 $298 $390 reversed $385 $-1 #
edge $-1 $440 -28.509658601578749 $391 -18.903362654086841 $389 $441 forward 7 unknown #
vertex $-1 $394 $442 #
straight-curve $-1 0 -18.903362654086841 -13.818662063722465 1 0 0 I I #
coedge $-1 $389 $304 $300 $394 forward $385 $-1 #
edge $-1 $306 1.027343111066962 $391 8.8699936721259895 $393 $443 forward 7 unknown #
point $-1 50.259102145451216 -18.903362654086841 -13.818662063722465 #
coedge $-1 $304 $389 $308 $400 reversed $385 $-1 #
straight-curve $-1 -50.259102145451216 -11.853255313916398 -5.9760115026634377 0 1 0 I I #
point $-1 -50.259102145451216 -18.903362654086841 -5.9760115026634377 #
coedge $-1 $309 $308 $387 $438 reversed $295 $-1 #
edge $-1 $310 5.9760115026634377 $440 13.818662063722465 $396 $444 forward 7 unknown #
point $-1 -50.259102145451216 -28.509658601578749 -5.9760115026634377 #
vertex $-1 $312 $445 #
straight-curve $-1 50.259102145451216 -28.509658601578749 0 0 0 -1 I I #
coedge $-1 $405 $316 $317 $406 reversed $216 $-1 #
coedge $-1 $316 $404 $321 $410 forward $216 $-1 #
edge $-1 $413 -50.259102145451216 $407 -34.970544401714157 $404 $446 forward 7 unknown #
vertex $-1 $319 $447 #
straight-curve $-1 34.970544401714164 12.449949688035815 13.81866206372246 0 -1 0 I I #
straight-curve $-1 -7.8664354948780062 28.509658601578749 42.712570386156074 -0.82903756765294845 0 0.55919291073839883 I I #
edge $-1 $413 -13.818662063722465 $322 -3.5063994603330619 $321 $448 forward 7 unknown #
point $-1 50.259102145451216 28.509658601578749 3.5063994603330619 #
point $-1 34.970544401714157 21.290140150564508 13.818662063722464 #
vertex $-1 $328 $449 #
straight-curve $-1 50.259102145451216 0 13.818662063722465 0 1 0 I I #
vertex $-1 $331 $450 #
point $-1 41.842292888903494 23.352859707997148 5.728915761640426 #
vertex $-1 $335 $451 #
point $-1 41.842292888903494 26.446939044146106 5.728915761640426 #
edge $-1 $420 20.848142158795284 $423 29.945051050933731 $340 $452 forward 7 unknown #
vertex $-1 $354 $453 #
straight-curve $-1 -63.630257403876726 -6.6614561143205853 13.818662063722464 -1 0 0 I I #
edge $-1 $423 0.27025142221872844 $351 12.512157961984984 $350 $454 forward 7 unknown #
vertex $-1 $422 $455 #
straight-curve $-1 -50.259102145451195 -6.6614561143205853 4.7217531715840408 0.64278759981090561 0 0.7660444514056185 I I #
point $-1 -42.625889449051193 -6.6614561143205853 13.818662063722465 #
point $-1 -50.259102145451216 -18.903362654086841 4.7217531715840151 #
straight-curve $-1 -50.259102145451216 0 13.818662063722465 0 -1 0 I I #
vertex $-1 $357 $456 #
point $-1 -44.703860146981512 -16.454981346133593 8.4640227605612832 #
vertex $-1 $361 $457 #
point $-1 -44.703860146981512 -12.782409384203714 8.4640227605612832 #
vertex $-1 $365 $458 #
point $-1 -44.703860146981512 -9.1098374222738343 8.4640227605612832 #
straight-curve $-1 -50.259102145451216 28.509658601578749 0 0 0 -1 I I #
point $-1 -50.259102145451216 -28.509658601578749 -13.818662063722465 #
straight-curve $-1 -50.259102145451216 0 -13.818662063722465 0 1 0 I I #
point $-1 -50.259102145451216 28.509658601578749 -13.818662063722465 #
edge $-1 $402 -50.259102145451216 $440 50.259102145451216 $399 $459 forward 7 unknown #
straight-curve $-1 50.259102145451216 0 -13.818662063722465 0 -1 0 I I #
vertex $-1 $390 $460 #
straight-curve $-1 -50.259102145451216 0 -13.818662063722465 0 1 0 I I #
point $-1 -50.259102145451216 -18.903362654086841 -13.818662063722465 #
straight-curve $-1 -50.259102145451216 -18.903362654086841 -4.9486683915964758 0 0 -1 I I #
straight-curve $-1 -50.259102145451216 -28.509658601578749 0 0 0 -1 I I #
point $-1 50.259102145451216 -28.509658601578749 -13.818662063722465 #
straight-curve $-1 0 28.509658601578749 13.818662063722465 -1 0 0 I I #
point $-1 34.970544401714157 28.509658601578753 13.818662063722464 #
straight-curve $-1 50.259102145451216 28.509658601578749 0 0 0 -1 I I #
point $-1 50.259102145451216 28.509658601578749 13.818662063722465 #
point $-1 40.454062410512144 23.352859707997148 5.4590711047258766 #
point $-1 40.454062410512144 26.446939044146106 5.4590711047258766 #
straight-curve $-1 -50.259102145451216 -6.6614561143205853 34.666804222517747 0 0 -1 I I #
point $-1 -50.259102145451216 -6.6614561143205853 13.818662063722465 #
straight-curve $-1 -50.259102145451216 -6.3912046921018568 4.7217531715840213 0 -1 0 I I #
point $-1 -50.259102145451216 -6.6614561143205853 4.7217531715840151 #
point $-1 -44.64223172118416 -16.454981346133593 7.7596067349530218 #
point $-1 -44.64223172118416 -12.782409384203714 7.7596067349530218 #
point $-1 -44.64223172118416 -9.1098374222738343 7.7596067349530218 #
straight-curve $-1 0 -28.509658601578749 -13.818662063722465 -1 0 0 I I #
point $-1 -50.259102145451216 -28.509658601578749 -13.818662063722465 #
End-of-ACIS-data 