500 0 16 0           
7 Unknown 11 ACIS 5.0 NT 24 Fri Mar 26 19:42:34 1999 
-1 9.9999999999999995e-007 1e-010 
body $-1 $16 $-1 $17 #
body $-1 $18 $-1 $19 #
body $-1 $20 $-1 $21 #
body $-1 $22 $-1 $23 #
body $-1 $24 $-1 $25 #
body $-1 $26 $-1 $27 #
body $-1 $28 $-1 $29 #
body $-1 $30 $-1 $31 #
body $-1 $32 $-1 $33 #
body $-1 $34 $-1 $35 #
body $-1 $36 $-1 $37 #
body $-1 $38 $-1 $39 #
body $-1 $40 $-1 $41 #
body $-1 $42 $-1 $43 #
body $-1 $44 $-1 $45 #
body $-1 $46 $-1 $47 #
lump $-1 $-1 $48 $0 #
transform $-1 1 0 0 0 1 0 0 0 1 52.449110385448776 32.972173980830085 14.848999986740234 1 rotate no_reflect no_shear #
lump $-1 $-1 $49 $1 #
transform $-1 1 0 0 0 1 0 0 0 1 52.449110385448776 32.972173980830085 14.848999986740234 1 rotate no_reflect no_shear #
lump $-1 $-1 $50 $2 #
transform $-1 1 0 0 0 1 0 0 0 1 52.449110385448776 32.972173980830085 14.848999986740234 1 rotate no_reflect no_shear #
lump $-1 $-1 $51 $3 #
transform $-1 1 0 0 0 1 0 0 0 1 52.449110385448776 32.972173980830085 14.848999986740234 1 rotate no_reflect no_shear #
lump $-1 $-1 $52 $4 #
transform $-1 1 0 0 0 1 0 0 0 1 52.449110385448776 32.972173980830085 14.848999986740234 1 rotate no_reflect no_shear #
lump $-1 $-1 $53 $5 #
transform $-1 1 0 0 0 1 0 0 0 1 52.449110385448776 32.972173980830085 14.848999986740234 1 rotate no_reflect no_shear #
lump $-1 $-1 $54 $6 #
transform $-1 1 0 0 0 1 0 0 0 1 52.449110385448776 32.972173980830085 14.848999986740234 1 rotate no_reflect no_shear #
lump $-1 $-1 $55 $7 #
transform $-1 1 0 0 0 1 0 0 0 1 52.449110385448776 32.972173980830085 14.848999986740234 1 rotate no_reflect no_shear #
lump $-1 $-1 $56 $8 #
transform $-1 1 0 0 0 1 0 0 0 1 52.449110385448776 32.972173980830085 14.848999986740234 1 rotate no_reflect no_shear #
lump $-1 $-1 $57 $9 #
transform $-1 1 0 0 0 1 0 0 0 1 52.449110385448776 32.972173980830085 14.848999986740234 1 rotate no_reflect no_shear #
lump $-1 $-1 $58 $10 #
transform $-1 1 0 0 0 1 0 0 0 1 52.449110385448776 32.972173980830085 14.848999986740234 1 rotate no_reflect no_shear #
lump $-1 $-1 $59 $11 #
transform $-1 1 0 0 0 1 0 0 0 1 52.449110385448776 32.972173980830085 14.848999986740234 1 rotate no_reflect no_shear #
lump $-1 $-1 $60 $12 #
transform $-1 1 0 0 0 1 0 0 0 1 52.449110385448776 32.972173980830085 14.848999986740234 1 rotate no_reflect no_shear #
lump $-1 $-1 $61 $13 #
transform $-1 1 0 0 0 1 0 0 0 1 52.449110385448776 32.972173980830085 14.848999986740234 1 rotate no_reflect no_shear #
lump $-1 $-1 $62 $14 #
transform $-1 1 0 0 0 1 0 0 0 1 52.449110385448776 32.972173980830085 14.848999986740234 1 rotate no_reflect no_shear #
lump $-1 $-1 $63 $15 #
transform $-1 1 0 0 0 1 0 0 0 1 52.449110385448776 32.972173980830085 14.848999986740234 1 rotate no_reflect no_shear #
shell $-1 $-1 $-1 $64 $-1 $16 #
shell $-1 $-1 $-1 $65 $-1 $18 #
shell $-1 $-1 $-1 $66 $-1 $20 #
shell $-1 $-1 $-1 $67 $-1 $22 #
shell $-1 $-1 $-1 $68 $-1 $24 #
shell $-1 $-1 $-1 $69 $-1 $26 #
shell $-1 $-1 $-1 $70 $-1 $28 #
shell $-1 $-1 $-1 $71 $-1 $30 #
shell $-1 $-1 $-1 $72 $-1 $32 #
shell $-1 $-1 $-1 $73 $-1 $34 #
shell $-1 $-1 $-1 $74 $-1 $36 #
shell $-1 $-1 $-1 $75 $-1 $38 #
shell $-1 $-1 $-1 $76 $-1 $40 #
shell $-1 $-1 $-1 $77 $-1 $42 #
shell $-1 $-1 $-1 $78 $-1 $44 #
shell $-1 $-1 $-1 $79 $-1 $46 #
face $-1 $80 $81 $48 $-1 $82 forward single #
face $-1 $83 $84 $49 $-1 $85 forward single #
face $-1 $86 $87 $50 $-1 $88 reversed single #
face $-1 $89 $90 $51 $-1 $91 forward single #
face $-1 $92 $93 $52 $-1 $94 forward single #
face $-1 $95 $96 $53 $-1 $97 reversed single #
face $-1 $98 $99 $54 $-1 $100 forward single #
face $-1 $101 $102 $55 $-1 $103 forward single #
face $-1 $104 $105 $56 $-1 $106 reversed single #
face $-1 $107 $108 $57 $-1 $109 forward single #
face $-1 $110 $111 $58 $-1 $112 forward single #
face $-1 $113 $114 $59 $-1 $115 forward single #
face $-1 $116 $117 $60 $-1 $118 reversed single #
face $-1 $119 $120 $61 $-1 $121 forward single #
face $-1 $122 $123 $62 $-1 $124 forward single #
face $-1 $125 $126 $63 $-1 $127 forward single #
face $-1 $128 $129 $48 $-1 $130 reversed single #
loop $-1 $-1 $131 $64 #
plane-surface $-1 0 0 14.848999986740234 0 0 1 1 0 0 forward_v I I I I #
face $-1 $132 $133 $49 $-1 $134 forward single #
loop $-1 $-1 $135 $65 #
plane-surface $-1 0 -32.972173980830085 0 0 1 0 0 0 1 forward_v I I I I #
face $-1 $136 $137 $50 $-1 $138 reversed single #
loop $-1 $-1 $139 $66 #
plane-surface $-1 52.449112106669759 1.3887626519684773 150.19344018436692 0 -1 0 -0.70710678939079041 0 -0.70710677298230451 forward_v I I I I #
face $-1 $140 $141 $51 $-1 $142 forward single #
loop $-1 $143 $144 $67 #
cone-surface $-1 44.637600803866157 -6.5938286771713948 7.0374902846642637 -0.70710678939079041 0 -0.70710677298230451 1.0606601594734568 0 -1.0606601840861856 1 I I 0 1 1.5 forward I I I I #
face $-1 $145 $146 $52 $-1 $147 forward single #
loop $-1 $148 $149 $68 #
cone-surface $-1 44.637600803866157 -1.8042738796874715 7.0374902846642637 -0.70710678939079041 0 -0.70710677298230451 1.0606601594734568 0 -1.0606601840861856 1 I I 0 1 1.5 forward I I I I #
face $-1 $150 $151 $53 $-1 $152 reversed single #
loop $-1 $-1 $153 $69 #
plane-surface $-1 52.449112106669759 25.312812440310655 150.19344018436692 0 -1 0 -0.70710678939079041 0 -0.70710677298230451 forward_v I I I I #
face $-1 $154 $155 $54 $-1 $156 forward single #
loop $-1 $157 $158 $70 #
cone-surface $-1 44.637600803866157 17.330221111170779 7.0374902846642637 -0.70710678939079041 0 -0.70710677298230451 1.0606601594734568 0 -1.0606601840861856 1 I I 0 1 1.5 forward I I I I #
face $-1 $159 $160 $55 $-1 $161 forward single #
loop $-1 $162 $163 $71 #
cone-surface $-1 44.637600803866157 22.119775908654709 7.0374902846642637 -0.70710678939079041 0 -0.70710677298230451 1.0606601594734568 0 -1.0606601840861856 1 I I 0 1 1.5 forward I I I I #
face $-1 $164 $165 $56 $-1 $166 reversed single #
loop $-1 $-1 $167 $72 #
plane-surface $-1 -112.61625881021385 -14.875925595854268 92.600089620479679 0 1 0 -0.57357644374324357 0 0.81915203911291934 forward_v I I I I #
face $-1 $168 $169 $57 $-1 $170 forward single #
loop $-1 $171 $172 $73 #
cone-surface $-1 -45.866139590125051 -12.710887977710875 9.6977163785895861 0.57357644374324357 0 -0.81915203911291934 0.81915203911291934 0 0.57357644374324357 1 I I 0 1 1 forward I I I I #
face $-1 $173 $174 $58 $-1 $175 forward single #
loop $-1 $176 $177 $74 #
cone-surface $-1 -45.866139590125051 -9.4633315504957842 9.6977163785895861 0.57357644374324357 0 -0.81915203911291934 0.81915203911291934 0 0.57357644374324357 1 I I 0 1 1 forward I I I I #
face $-1 $178 $179 $59 $-1 $180 forward single #
loop $-1 $181 $182 $75 #
cone-surface $-1 -45.866139590125051 -6.215775123280693 9.6977163785895861 0.57357644374324357 0 -0.81915203911291934 0.81915203911291934 0 0.57357644374324357 1 I I 0 1 1 forward I I I I #
face $-1 $183 $184 $60 $-1 $185 reversed single #
loop $-1 $-1 $186 $76 #
plane-surface $-1 -112.61625881021385 9.0481241924879132 92.600089620479679 0 1 0 -0.57357644374324357 0 0.81915203911291934 forward_v I I I I #
face $-1 $187 $188 $61 $-1 $189 forward single #
loop $-1 $190 $191 $77 #
cone-surface $-1 -45.866139590125051 11.213161810631298 9.6977163785895861 0.57357644374324357 0 -0.81915203911291934 0.81915203911291934 0 0.57357644374324357 1 I I 0 1 1 forward I I I I #
face $-1 $192 $193 $62 $-1 $194 forward single #
loop $-1 $195 $196 $78 #
cone-surface $-1 -45.866139590125051 14.460718237846393 9.6977163785895861 0.57357644374324357 0 -0.81915203911291934 0.81915203911291934 0 0.57357644374324357 1 I I 0 1 1 forward I I I I #
face $-1 $197 $198 $63 $-1 $199 forward single #
loop $-1 $200 $201 $79 #
cone-surface $-1 -45.866139590125051 17.708274665061488 9.6977163785895861 0.57357644374324357 0 -0.81915203911291934 0.81915203911291934 0 0.57357644374324357 1 I I 0 1 1 forward I I I I #
face $-1 $202 $203 $48 $-1 $204 reversed single #
loop $-1 $-1 $205 $80 #
plane-surface $-1 0 0 -14.848999986740234 0 0 1 1 0 0 forward_v I I I I #
coedge $-1 $206 $207 $208 $209 forward $81 $-1 #
face $-1 $210 $211 $49 $-1 $212 reversed single #
loop $-1 $-1 $213 $83 #
plane-surface $-1 0 0 14.848999986740234 0 0 1 1 0 0 forward_v I I I I #
coedge $-1 $214 $215 $216 $217 forward $84 $-1 #
face $-1 $218 $219 $50 $-1 $220 reversed single #
loop $-1 $-1 $221 $86 #
plane-surface $-1 -21.725131995445935 -4.1990512784294332 76.01919780347221 0.70710678939079041 0 0.70710677298230451 0.70710677298230451 0 -0.70710678939079041 forward_v I I I I #
coedge $-1 $222 $223 $224 $225 reversed $87 $-1 #
face $-1 $-1 $226 $51 $-1 $227 forward single #
loop $-1 $228 $229 $89 #
cone-surface $-1 42.797784122052178 -6.5938286771713948 5.1976736455434231 -0.70710678939079041 0 -0.70710677298230451 0.53033007973672841 0 -0.53033009204309278 1 I I -0.70710678118654757 0.70710678118654757 0.75 forward I I I I #
loop $-1 $-1 $230 $67 #
coedge $-1 $144 $144 $231 $232 reversed $90 $-1 #
face $-1 $-1 $233 $52 $-1 $234 forward single #
loop $-1 $235 $236 $92 #
cone-surface $-1 42.797784122052178 -1.8042738796874715 5.1976736455434231 -0.70710678939079041 0 -0.70710677298230451 0.53033007973672841 0 -0.53033009204309278 1 I I -0.70710678118654757 0.70710678118654757 0.75 forward I I I I #
loop $-1 $-1 $237 $68 #
coedge $-1 $149 $149 $238 $239 reversed $93 $-1 #
face $-1 $240 $241 $53 $-1 $242 reversed single #
loop $-1 $-1 $243 $95 #
plane-surface $-1 -21.725131995445935 19.724998509912744 76.01919780347221 0.70710678939079041 0 0.70710677298230451 0.70710677298230451 0 -0.70710678939079041 forward_v I I I I #
coedge $-1 $244 $245 $246 $247 reversed $96 $-1 #
face $-1 $-1 $248 $54 $-1 $249 forward single #
loop $-1 $250 $251 $98 #
cone-surface $-1 42.797784122052178 17.330221111170779 5.1976736455434231 -0.70710678939079041 0 -0.70710677298230451 0.53033007973672841 0 -0.53033009204309278 1 I I -0.70710678118654757 0.70710678118654757 0.75 forward I I I I #
loop $-1 $-1 $252 $70 #
coedge $-1 $158 $158 $253 $254 reversed $99 $-1 #
face $-1 $-1 $255 $55 $-1 $256 forward single #
loop $-1 $257 $258 $101 #
cone-surface $-1 42.797784122052178 22.119775908654709 5.1976736455434231 -0.70710678939079041 0 -0.70710677298230451 0.53033007973672841 0 -0.53033009204309278 1 I I -0.70710678118654757 0.70710678118654757 0.75 forward I I I I #
loop $-1 $-1 $259 $71 #
coedge $-1 $163 $163 $260 $261 reversed $102 $-1 #
face $-1 $262 $263 $56 $-1 $264 reversed single #
loop $-1 $-1 $265 $104 #
plane-surface $-1 -52.449110385448783 -9.4633315504957807 6.6724981766817564 -0.57357644374324357 0 0.81915203911291934 0.81915203911291934 0 0.57357644374324357 forward_v I I I I #
coedge $-1 $266 $267 $268 $269 reversed $105 $-1 #
face $-1 $-1 $270 $57 $-1 $271 forward single #
loop $-1 $272 $273 $107 #
cone-surface $-1 -44.835007841867977 -12.710887977710875 8.2251076559117191 0.57357644374324357 0 -0.81915203911291934 0.40957601955645967 0 0.28678822187162178 1 I I -0.70710678118654746 0.70710678118654746 0.5 forward I I I I #
loop $-1 $-1 $274 $73 #
coedge $-1 $172 $172 $275 $276 reversed $108 $-1 #
face $-1 $-1 $277 $58 $-1 $278 forward single #
loop $-1 $279 $280 $110 #
cone-surface $-1 -44.835007841867977 -9.4633315504957842 8.2251076559117191 0.57357644374324357 0 -0.81915203911291934 0.40957601955645967 0 0.28678822187162178 1 I I -0.70710678118654746 0.70710678118654746 0.5 forward I I I I #
loop $-1 $-1 $281 $74 #
coedge $-1 $177 $177 $282 $283 reversed $111 $-1 #
face $-1 $-1 $284 $59 $-1 $285 forward single #
loop $-1 $286 $287 $113 #
cone-surface $-1 -44.835007841867977 -6.215775123280693 8.2251076559117191 0.57357644374324357 0 -0.81915203911291934 0.40957601955645967 0 0.28678822187162178 1 I I -0.70710678118654746 0.70710678118654746 0.5 forward I I I I #
loop $-1 $-1 $288 $75 #
coedge $-1 $182 $182 $289 $290 reversed $114 $-1 #
face $-1 $291 $292 $60 $-1 $293 reversed single #
loop $-1 $-1 $294 $116 #
plane-surface $-1 -52.449110385448783 14.4607182378464 6.6724981766817564 -0.57357644374324357 0 0.81915203911291934 0.81915203911291934 0 0.57357644374324357 forward_v I I I I #
coedge $-1 $295 $296 $297 $298 reversed $117 $-1 #
face $-1 $-1 $299 $61 $-1 $300 forward single #
loop $-1 $301 $302 $119 #
cone-surface $-1 -44.835007841867977 11.213161810631298 8.2251076559117191 0.57357644374324357 0 -0.81915203911291934 0.40957601955645967 0 0.28678822187162178 1 I I -0.70710678118654746 0.70710678118654746 0.5 forward I I I I #
loop $-1 $-1 $303 $77 #
coedge $-1 $191 $191 $304 $305 reversed $120 $-1 #
face $-1 $-1 $306 $62 $-1 $307 forward single #
loop $-1 $308 $309 $122 #
cone-surface $-1 -44.835007841867977 14.460718237846393 8.2251076559117191 0.57357644374324357 0 -0.81915203911291934 0.40957601955645967 0 0.28678822187162178 1 I I -0.70710678118654746 0.70710678118654746 0.5 forward I I I I #
loop $-1 $-1 $310 $78 #
coedge $-1 $196 $196 $311 $312 reversed $123 $-1 #
face $-1 $-1 $313 $63 $-1 $314 forward single #
loop $-1 $315 $316 $125 #
cone-surface $-1 -44.835007841867977 17.708274665061488 8.2251076559117191 0.57357644374324357 0 -0.81915203911291934 0.40957601955645967 0 0.28678822187162178 1 I I -0.70710678118654746 0.70710678118654746 0.5 forward I I I I #
loop $-1 $-1 $317 $79 #
coedge $-1 $201 $201 $318 $319 reversed $126 $-1 #
face $-1 $320 $321 $48 $-1 $322 reversed single #
loop $-1 $-1 $323 $128 #
plane-surface $-1 0 -32.972173980830085 0 0 1 0 0 0 1 forward_v I I I I #
coedge $-1 $324 $325 $326 $327 forward $129 $-1 #
coedge $-1 $328 $131 $329 $330 forward $81 $-1 #
coedge $-1 $131 $328 $331 $332 forward $81 $-1 #
coedge $-1 $333 $334 $131 $209 reversed $335 $-1 #
edge $-1 $336 -32.972173980830085 $337 32.972173980830085 $208 $338 forward 7 unknown #
face $-1 $339 $340 $49 $-1 $341 reversed single #
loop $-1 $-1 $342 $132 #
plane-surface $-1 -52.449110385448776 0 0 1 0 0 0 0 -1 forward_v I I I I #
coedge $-1 $343 $344 $215 $345 forward $133 $-1 #
coedge $-1 $346 $135 $347 $348 reversed $84 $-1 #
coedge $-1 $135 $346 $213 $345 reversed $84 $-1 #
coedge $-1 $349 $350 $135 $217 reversed $351 $-1 #
edge $-1 $352 -14.848999986740234 $353 14.848999986740234 $216 $354 forward 7 unknown #
face $-1 $355 $356 $50 $-1 $357 forward single #
loop $-1 $-1 $358 $136 #
plane-surface $-1 52.449112106669759 -9.7868652088273436 150.19344018436692 0 1 0 0.70710678939079041 0 0.70710677298230451 forward_v I I I I #
coedge $-1 $359 $360 $361 $362 reversed $137 $-1 #
coedge $-1 $223 $139 $363 $364 reversed $87 $-1 #
coedge $-1 $139 $222 $359 $365 reversed $87 $-1 #
coedge $-1 $361 $366 $139 $225 forward $356 $-1 #
edge $-1 $367 -26.224554332113897 $368 -13.220508348490426 $224 $369 forward 7 unknown #
loop $-1 $-1 $231 $140 #
plane-surface $-1 -21.725131995445935 -4.1990512784294332 76.01919780347221 0.70710678939079041 0 0.70710677298230451 0.70710677298230451 0 -0.70710678939079041 forward_v I I I I #
loop $-1 $-1 $370 $89 #
coedge $-1 $229 $229 $230 $371 reversed $141 $-1 #
coedge $-1 $230 $230 $229 $371 forward $143 $-1 #
coedge $-1 $231 $231 $144 $232 forward $226 $-1 #
edge $-1 $372 0 $372 6.2831853071796004 $231 $373 forward 7 unknown #
loop $-1 $-1 $238 $145 #
plane-surface $-1 -21.725131995445935 -4.1990512784294332 76.01919780347221 0.70710678939079041 0 0.70710677298230451 0.70710677298230451 0 -0.70710678939079041 forward_v I I I I #
loop $-1 $-1 $374 $92 #
coedge $-1 $236 $236 $237 $375 reversed $146 $-1 #
coedge $-1 $237 $237 $236 $375 forward $148 $-1 #
coedge $-1 $238 $238 $149 $239 forward $233 $-1 #
edge $-1 $376 0 $376 6.2831853071796004 $238 $377 forward 7 unknown #
face $-1 $378 $379 $53 $-1 $380 reversed single #
loop $-1 $-1 $381 $150 #
plane-surface $-1 52.449112106669759 14.137184579514834 150.19344018436692 0 1 0 0.70710678939079041 0 0.70710677298230451 forward_v I I I I #
coedge $-1 $382 $383 $384 $385 reversed $151 $-1 #
coedge $-1 $245 $153 $386 $387 reversed $96 $-1 #
coedge $-1 $153 $244 $382 $388 reversed $96 $-1 #
coedge $-1 $384 $389 $153 $247 forward $390 $-1 #
edge $-1 $391 -26.224554332113897 $392 -13.220508348490426 $246 $393 forward 7 unknown #
loop $-1 $-1 $253 $154 #
plane-surface $-1 -21.725131995445935 19.724998509912744 76.01919780347221 0.70710678939079041 0 0.70710677298230451 0.70710677298230451 0 -0.70710678939079041 forward_v I I I I #
loop $-1 $-1 $394 $98 #
coedge $-1 $251 $251 $252 $395 reversed $155 $-1 #
coedge $-1 $252 $252 $251 $395 forward $157 $-1 #
coedge $-1 $253 $253 $158 $254 forward $248 $-1 #
edge $-1 $396 0 $396 6.2831853071796004 $253 $397 forward 7 unknown #
loop $-1 $-1 $260 $159 #
plane-surface $-1 -21.725131995445935 19.724998509912744 76.01919780347221 0.70710678939079041 0 0.70710677298230451 0.70710677298230451 0 -0.70710678939079041 forward_v I I I I #
loop $-1 $-1 $398 $101 #
coedge $-1 $258 $258 $259 $399 reversed $160 $-1 #
coedge $-1 $259 $259 $258 $399 forward $162 $-1 #
coedge $-1 $260 $260 $163 $261 forward $255 $-1 #
edge $-1 $400 0 $400 6.2831853071796004 $260 $401 forward 7 unknown #
face $-1 $402 $403 $56 $-1 $404 reversed single #
loop $-1 $-1 $405 $164 #
plane-surface $-1 -112.61625881021385 -4.0507375051372936 92.600089620479679 0 -1 0 0.57357644374324357 0 -0.81915203911291934 forward_v I I I I #
coedge $-1 $406 $407 $408 $409 reversed $165 $-1 #
coedge $-1 $267 $167 $410 $411 reversed $105 $-1 #
coedge $-1 $167 $266 $406 $412 reversed $105 $-1 #
coedge $-1 $408 $413 $167 $269 forward $414 $-1 #
edge $-1 $415 3.8590190196581489 $416 15.536273557534678 $268 $417 forward 7 unknown #
loop $-1 $-1 $275 $168 #
plane-surface $-1 -52.449110385448783 -9.4633315504957807 6.6724981766817564 -0.57357644374324357 0 0.81915203911291934 0.81915203911291934 0 0.57357644374324357 forward_v I I I I #
loop $-1 $-1 $418 $107 #
coedge $-1 $273 $273 $274 $419 reversed $169 $-1 #
coedge $-1 $274 $274 $273 $419 forward $171 $-1 #
coedge $-1 $275 $275 $172 $276 forward $270 $-1 #
edge $-1 $420 0 $420 6.2831853071796004 $275 $421 forward 7 unknown #
loop $-1 $-1 $282 $173 #
plane-surface $-1 -52.449110385448783 -9.4633315504957807 6.6724981766817564 -0.57357644374324357 0 0.81915203911291934 0.81915203911291934 0 0.57357644374324357 forward_v I I I I #
loop $-1 $-1 $422 $110 #
coedge $-1 $280 $280 $281 $423 reversed $174 $-1 #
coedge $-1 $281 $281 $280 $423 forward $176 $-1 #
coedge $-1 $282 $282 $177 $283 forward $277 $-1 #
edge $-1 $424 0 $424 6.2831853071796004 $282 $425 forward 7 unknown #
loop $-1 $-1 $289 $178 #
plane-surface $-1 -52.449110385448783 -9.4633315504957807 6.6724981766817564 -0.57357644374324357 0 0.81915203911291934 0.81915203911291934 0 0.57357644374324357 forward_v I I I I #
loop $-1 $-1 $426 $113 #
coedge $-1 $287 $287 $288 $427 reversed $179 $-1 #
coedge $-1 $288 $288 $287 $427 forward $181 $-1 #
coedge $-1 $289 $289 $182 $290 forward $284 $-1 #
edge $-1 $428 0 $428 6.2831853071796004 $289 $429 forward 7 unknown #
face $-1 $430 $431 $60 $-1 $432 forward single #
loop $-1 $-1 $433 $183 #
plane-surface $-1 -112.61625881021385 19.873312283204889 92.600089620479679 0 -1 0 0.57357644374324357 0 -0.81915203911291934 forward_v I I I I #
coedge $-1 $434 $435 $436 $437 reversed $184 $-1 #
coedge $-1 $296 $186 $438 $439 reversed $117 $-1 #
coedge $-1 $186 $295 $434 $440 reversed $117 $-1 #
coedge $-1 $436 $441 $186 $298 forward $431 $-1 #
edge $-1 $442 3.8590190196581489 $443 15.536273557534678 $297 $444 forward 7 unknown #
loop $-1 $-1 $304 $187 #
plane-surface $-1 -52.449110385448783 14.4607182378464 6.6724981766817564 -0.57357644374324357 0 0.81915203911291934 0.81915203911291934 0 0.57357644374324357 forward_v I I I I #
loop $-1 $-1 $445 $119 #
coedge $-1 $302 $302 $303 $446 reversed $188 $-1 #
coedge $-1 $303 $303 $302 $446 forward $190 $-1 #
coedge $-1 $304 $304 $191 $305 forward $299 $-1 #
edge $-1 $447 0 $447 6.2831853071796004 $304 $448 forward 7 unknown #
loop $-1 $-1 $311 $192 #
plane-surface $-1 -52.449110385448783 14.4607182378464 6.6724981766817564 -0.57357644374324357 0 0.81915203911291934 0.81915203911291934 0 0.57357644374324357 forward_v I I I I #
loop $-1 $-1 $449 $122 #
coedge $-1 $309 $309 $310 $450 reversed $193 $-1 #
coedge $-1 $310 $310 $309 $450 forward $195 $-1 #
coedge $-1 $311 $311 $196 $312 forward $306 $-1 #
edge $-1 $451 0 $451 6.2831853071796004 $311 $452 forward 7 unknown #
loop $-1 $-1 $318 $197 #
plane-surface $-1 -52.449110385448783 14.4607182378464 6.6724981766817564 -0.57357644374324357 0 0.81915203911291934 0.81915203911291934 0 0.57357644374324357 forward_v I I I I #
loop $-1 $-1 $453 $125 #
coedge $-1 $316 $316 $317 $454 reversed $198 $-1 #
coedge $-1 $317 $317 $316 $454 forward $200 $-1 #
coedge $-1 $318 $318 $201 $319 forward $313 $-1 #
edge $-1 $455 0 $455 6.2831853071796004 $318 $456 forward 7 unknown #
face $-1 $457 $458 $48 $-1 $459 reversed single #
loop $-1 $-1 $460 $202 #
plane-surface $-1 -52.449110385448776 0 0 1 0 0 0 0 -1 forward_v I I I I #
coedge $-1 $461 $331 $462 $463 forward $203 $-1 #
coedge $-1 $464 $205 $461 $465 forward $129 $-1 #
coedge $-1 $205 $464 $466 $467 forward $129 $-1 #
coedge $-1 $334 $333 $205 $327 reversed $335 $-1 #
edge $-1 $468 -32.972173980830085 $469 32.972173980830085 $326 $470 forward 7 unknown #
coedge $-1 $207 $206 $471 $472 forward $81 $-1 #
coedge $-1 $473 $474 $206 $330 reversed $458 $-1 #
edge $-1 $337 -52.449110385448776 $475 52.449110385448776 $329 $476 forward 7 unknown #
coedge $-1 $323 $477 $207 $332 reversed $203 $-1 #
edge $-1 $478 -52.449110385448776 $336 52.449110385448776 $331 $479 forward 7 unknown #
coedge $-1 $326 $208 $477 $480 forward $335 $-1 #
coedge $-1 $208 $326 $473 $481 reversed $335 $-1 #
loop $-1 $-1 $333 $457 #
vertex $-1 $209 $482 #
vertex $-1 $209 $483 #
straight-curve $-1 52.449110385448776 0 14.848999986740234 0 1 0 I I #
face $-1 $484 $351 $49 $-1 $485 reversed single #
loop $-1 $-1 $486 $210 #
plane-surface $-1 -49.225218335347492 -51.068422365805901 0 0 1 0 0 0 1 forward_v I I I I #
coedge $-1 $487 $488 $346 $489 forward $211 $-1 #
coedge $-1 $490 $213 $488 $491 forward $133 $-1 #
coedge $-1 $213 $490 $349 $492 forward $133 $-1 #
edge $-1 $352 46.001326285246208 $493 52.449110385448776 $213 $494 forward 7 unknown #
coedge $-1 $215 $214 $342 $489 reversed $84 $-1 #
coedge $-1 $495 $496 $214 $348 forward $497 $-1 #
edge $-1 $498 -52.449110385448776 $353 -46.001326285246208 $347 $499 forward 7 unknown #
coedge $-1 $500 $216 $344 $492 reversed $351 $-1 #
coedge $-1 $216 $500 $495 $501 reversed $351 $-1 #
loop $-1 $-1 $500 $339 #
vertex $-1 $345 $502 #
vertex $-1 $501 $503 #
straight-curve $-1 -46.001326285246208 -32.972173980830085 0 0 0 -1 I I #
face $-1 $-1 $504 $50 $-1 $505 reversed single #
loop $-1 $-1 $224 $218 #
plane-surface $-1 0 0 14.848999986740234 0 0 1 1 0 0 forward_v I I I I #
coedge $-1 $506 $507 $508 $509 reversed $219 $-1 #
coedge $-1 $510 $221 $223 $365 forward $137 $-1 #
coedge $-1 $221 $510 $506 $511 forward $137 $-1 #
coedge $-1 $508 $224 $221 $362 forward $356 $-1 #
edge $-1 $368 -3.4882882911831938 $512 7.687339569612627 $361 $513 forward 7 unknown #
coedge $-1 $514 $515 $222 $364 forward $504 $-1 #
edge $-1 $516 -73.25176639082693 $367 -60.247720105443229 $363 $517 forward 7 unknown #
edge $-1 $368 86.50772236175716 $516 104.89822077089757 $223 $518 forward 7 unknown #
coedge $-1 $224 $508 $514 $519 forward $356 $-1 #
vertex $-1 $364 $520 #
vertex $-1 $225 $521 #
straight-curve $-1 26.224556053334879 1.3887626519684773 14.848999986740239 -1 0 0 I I #
coedge $-1 $370 $370 $-1 $522 reversed $228 $-1 #
edge $-1 $523 0 $523 6.2831853071796004 $229 $524 forward 7 unknown #
vertex $-1 $232 $525 #
ellipse-curve $-1 45.947087393637048 -6.5938286771713948 8.3469768440483847 0.70710678939079041 0 0.70710677298230451 1.0606601594734568 0 -1.0606601840861856 1 I I #
coedge $-1 $374 $374 $-1 $526 reversed $235 $-1 #
edge $-1 $527 0 $527 6.2831853071796004 $236 $528 forward 7 unknown #
vertex $-1 $239 $529 #
ellipse-curve $-1 45.947087393637048 -1.8042738796874715 8.3469768440483847 0.70710678939079041 0 0.70710677298230451 1.0606601594734568 0 -1.0606601840861856 1 I I #
face $-1 $-1 $390 $53 $-1 $530 forward single #
loop $-1 $-1 $531 $240 #
plane-surface $-1 52.449110385448776 0 0 -1 0 0 0 0 1 forward_v I I I I #
coedge $-1 $532 $533 $534 $535 reversed $241 $-1 #
coedge $-1 $536 $243 $245 $388 forward $151 $-1 #
coedge $-1 $243 $536 $532 $537 forward $151 $-1 #
coedge $-1 $534 $246 $243 $385 forward $390 $-1 #
edge $-1 $392 -15.450313185354283 $538 -4.2746853245584617 $384 $539 forward 7 unknown #
coedge $-1 $540 $541 $244 $387 forward $379 $-1 #
edge $-1 $542 -73.25176639082693 $391 -60.247720105443229 $386 $543 forward 7 unknown #
edge $-1 $392 86.50772236175716 $542 104.89822077089757 $245 $544 forward 7 unknown #
coedge $-1 $246 $534 $540 $545 forward $390 $-1 #
loop $-1 $-1 $534 $378 #
vertex $-1 $387 $546 #
vertex $-1 $247 $547 #
straight-curve $-1 26.224556053334879 25.312812440310655 14.848999986740239 -1 0 0 I I #
coedge $-1 $394 $394 $-1 $548 reversed $250 $-1 #
edge $-1 $549 0 $549 6.2831853071796004 $251 $550 forward 7 unknown #
vertex $-1 $254 $551 #
ellipse-curve $-1 45.947087393637048 17.330221111170779 8.3469768440483847 0.70710678939079041 0 0.70710677298230451 1.0606601594734568 0 -1.0606601840861856 1 I I #
coedge $-1 $398 $398 $-1 $552 reversed $257 $-1 #
edge $-1 $553 0 $553 6.2831853071796004 $258 $554 forward 7 unknown #
vertex $-1 $261 $555 #
ellipse-curve $-1 45.947087393637048 22.119775908654709 8.3469768440483847 0.70710678939079041 0 0.70710677298230451 1.0606601594734568 0 -1.0606601840861856 1 I I #
face $-1 $-1 $414 $56 $-1 $556 forward single #
loop $-1 $-1 $557 $262 #
plane-surface $-1 -52.449110385448776 0 0 1 0 0 0 0 -1 forward_v I I I I #
coedge $-1 $558 $559 $560 $561 reversed $263 $-1 #
coedge $-1 $562 $265 $267 $412 forward $165 $-1 #
coedge $-1 $265 $562 $558 $563 forward $165 $-1 #
coedge $-1 $560 $268 $265 $409 forward $414 $-1 #
edge $-1 $416 -10.144259820606377 $564 0.68092827011059676 $408 $565 forward 7 unknown #
coedge $-1 $566 $567 $266 $411 forward $403 $-1 #
edge $-1 $568 -39.627546633558076 $415 -31.451044823499608 $410 $569 forward 7 unknown #
edge $-1 $416 -14.25529569641569 $568 -8.8770546250341341e-015 $267 $570 forward 7 unknown #
coedge $-1 $268 $560 $566 $571 forward $414 $-1 #
loop $-1 $-1 $560 $402 #
vertex $-1 $411 $572 #
vertex $-1 $269 $573 #
straight-curve $-1 -56.308129405106925 -14.875925595854268 14.848999986740232 1 0 0 I I #
coedge $-1 $418 $418 $-1 $574 reversed $272 $-1 #
edge $-1 $575 0 $575 6.2831853071796004 $273 $576 forward 7 unknown #
vertex $-1 $276 $577 #
ellipse-curve $-1 -46.610483116510508 -12.710887977710875 10.760749081710999 -0.57357644374324357 0 0.81915203911291934 0.81915203911291934 0 0.57357644374324357 1 I I #
coedge $-1 $422 $422 $-1 $578 reversed $279 $-1 #
edge $-1 $579 0 $579 6.2831853071796004 $280 $580 forward 7 unknown #
vertex $-1 $283 $581 #
ellipse-curve $-1 -46.610483116510508 -9.4633315504957842 10.760749081710999 -0.57357644374324357 0 0.81915203911291934 0.81915203911291934 0 0.57357644374324357 1 I I #
coedge $-1 $426 $426 $-1 $582 reversed $286 $-1 #
edge $-1 $583 0 $583 6.2831853071796004 $287 $584 forward 7 unknown #
vertex $-1 $290 $585 #
ellipse-curve $-1 -46.610483116510508 -6.215775123280693 10.760749081710999 -0.57357644374324357 0 0.81915203911291934 0.81915203911291934 0 0.57357644374324357 1 I I #
face $-1 $-1 $586 $60 $-1 $587 reversed single #
loop $-1 $-1 $297 $291 #
plane-surface $-1 0 0 14.848999986740234 0 0 1 1 0 0 forward_v I I I I #
coedge $-1 $588 $589 $590 $591 reversed $292 $-1 #
coedge $-1 $592 $294 $296 $440 forward $184 $-1 #
coedge $-1 $294 $592 $588 $593 forward $184 $-1 #
coedge $-1 $590 $297 $294 $437 forward $431 $-1 #
edge $-1 $443 1.8177650735647131 $594 12.642953164281689 $436 $595 forward 7 unknown #
coedge $-1 $596 $597 $295 $439 forward $586 $-1 #
edge $-1 $598 -39.627546633558076 $442 -31.451044823499608 $438 $599 forward 7 unknown #
edge $-1 $443 -14.25529569641569 $598 -8.8770546250341341e-015 $296 $600 forward 7 unknown #
coedge $-1 $297 $590 $596 $601 forward $431 $-1 #
vertex $-1 $439 $602 #
vertex $-1 $298 $603 #
straight-curve $-1 -56.308129405106925 9.0481241924879132 14.848999986740232 1 0 0 I I #
coedge $-1 $445 $445 $-1 $604 reversed $301 $-1 #
edge $-1 $605 0 $605 6.2831853071796004 $302 $606 forward 7 unknown #
vertex $-1 $305 $607 #
ellipse-curve $-1 -46.610483116510508 11.213161810631298 10.760749081710999 -0.57357644374324357 0 0.81915203911291934 0.81915203911291934 0 0.57357644374324357 1 I I #
coedge $-1 $449 $449 $-1 $608 reversed $308 $-1 #
edge $-1 $609 0 $609 6.2831853071796004 $309 $610 forward 7 unknown #
vertex $-1 $312 $611 #
ellipse-curve $-1 -46.610483116510508 14.460718237846393 10.760749081710999 -0.57357644374324357 0 0.81915203911291934 0.81915203911291934 0 0.57357644374324357 1 I I #
coedge $-1 $453 $453 $-1 $612 reversed $315 $-1 #
edge $-1 $613 0 $613 6.2831853071796004 $316 $614 forward 7 unknown #
vertex $-1 $319 $615 #
ellipse-curve $-1 -46.610483116510508 17.708274665061488 10.760749081710999 -0.57357644374324357 0 0.81915203911291934 0.81915203911291934 0 0.57357644374324357 1 I I #
face $-1 $-1 $335 $48 $-1 $616 reversed single #
loop $-1 $-1 $473 $320 #
plane-surface $-1 0 32.972173980830085 0 0 -1 0 0 0 -1 forward_v I I I I #
coedge $-1 $617 $471 $474 $618 forward $321 $-1 #
coedge $-1 $477 $323 $324 $465 reversed $203 $-1 #
coedge $-1 $471 $617 $323 $463 reversed $321 $-1 #
edge $-1 $478 -14.848999986740234 $619 14.848999986740234 $462 $620 forward 7 unknown #
coedge $-1 $325 $324 $617 $621 forward $129 $-1 #
edge $-1 $469 -52.449110385448776 $619 52.449110385448776 $461 $622 forward 7 unknown #
coedge $-1 $474 $473 $325 $467 reversed $458 $-1 #
edge $-1 $623 -52.449110385448776 $468 52.449110385448776 $466 $624 forward 7 unknown #
vertex $-1 $327 $625 #
vertex $-1 $480 $626 #
straight-curve $-1 52.449110385448776 0 -14.848999986740234 0 -1 0 I I #
coedge $-1 $460 $462 $328 $472 reversed $321 $-1 #
edge $-1 $475 -32.972173980830085 $478 32.972173980830085 $471 $627 forward 7 unknown #
coedge $-1 $466 $329 $334 $481 forward $458 $-1 #
coedge $-1 $329 $466 $460 $618 reversed $458 $-1 #
vertex $-1 $330 $628 #
straight-curve $-1 0 32.972173980830085 14.848999986740234 -1 0 0 I I #
coedge $-1 $331 $461 $333 $480 reversed $203 $-1 #
vertex $-1 $472 $629 #
straight-curve $-1 0 -32.972173980830085 14.848999986740234 1 0 0 I I #
edge $-1 $336 -14.848999986740234 $469 14.848999986740234 $333 $630 forward 7 unknown #
edge $-1 $337 -14.848999986740234 $468 14.848999986740234 $334 $631 forward 7 unknown #
point $-1 52.449110385448776 -32.972173980830085 14.848999986740234 #
point $-1 52.449110385448776 32.972173980830085 14.848999986740234 #
face $-1 $-1 $497 $49 $-1 $632 reversed single #
plane-surface $-1 -46.001326285246208 -42.020298173317997 0 -1 0 0 0 0 1 forward_v I I I I #
coedge $-1 $633 $634 $635 $636 forward $340 $-1 #
coedge $-1 $635 $342 $496 $637 reversed $211 $-1 #
coedge $-1 $342 $635 $343 $491 reversed $211 $-1 #
edge $-1 $493 -14.848999986740234 $498 14.848999986740234 $342 $638 forward 7 unknown #
coedge $-1 $344 $343 $634 $639 forward $133 $-1 #
edge $-1 $493 32.972173980830085 $640 51.068422365805901 $488 $641 forward 7 unknown #
edge $-1 $642 -9.0481241924879043 $352 9.0481241924879043 $349 $643 forward 7 unknown #
vertex $-1 $491 $644 #
straight-curve $-1 0 -32.972173980830085 14.848999986740234 -1 0 0 I I #
coedge $-1 $645 $347 $350 $501 forward $497 $-1 #
coedge $-1 $347 $645 $487 $637 forward $497 $-1 #
loop $-1 $-1 $347 $484 #
vertex $-1 $489 $646 #
straight-curve $-1 0 -32.972173980830085 -14.848999986740234 1 0 0 I I #
coedge $-1 $350 $349 $647 $648 forward $351 $-1 #
edge $-1 $353 -9.0481241924879043 $649 9.0481241924879043 $350 $650 forward 7 unknown #
point $-1 -46.001326285246208 -32.972173980830092 14.848999986740234 #
point $-1 -46.001326285246208 -32.972173980830092 -14.848999986740234 #
loop $-1 $-1 $363 $355 #
plane-surface $-1 52.449110385448776 0 0 -1 0 0 0 0 1 forward_v I I I I #
coedge $-1 $507 $358 $360 $511 reversed $219 $-1 #
coedge $-1 $358 $506 $651 $652 reversed $219 $-1 #
coedge $-1 $366 $361 $358 $509 forward $356 $-1 #
edge $-1 $512 13.220508348490426 $653 26.224554332113897 $508 $654 forward 7 unknown #
coedge $-1 $360 $359 $515 $655 reversed $137 $-1 #
edge $-1 $656 -104.89822077089757 $512 -86.50772236175716 $506 $657 forward 7 unknown #
vertex $-1 $362 $658 #
straight-curve $-1 39.445064401825306 -2.0995256392147166 14.848999986740225 0 -1 0 I I #
coedge $-1 $651 $363 $366 $519 reversed $504 $-1 #
coedge $-1 $363 $651 $510 $655 forward $504 $-1 #
vertex $-1 $364 $659 #
straight-curve $-1 52.449110385448776 1.3887626519684773 75.09672009218346 0 0 1 I I #
straight-curve $-1 -21.725131995445935 1.3887626519684773 76.01919780347221 0.70710677298230451 0 -0.70710678939079041 I I #
edge $-1 $653 -9.7868652088273436 $367 1.3887626519684773 $514 $660 forward 7 unknown #
point $-1 52.449110385448776 1.3887626519684773 14.848999986740234 #
point $-1 39.445064401825306 1.3887626519684773 14.848999986740232 #
edge $-1 $661 1 $661 0 $370 $-1 forward 7 unknown #
vertex $-1 $371 $662 #
ellipse-curve $-1 43.328114214095272 -6.5938286771713948 5.7280037252801517 0.70710678939079041 0 0.70710677298230451 1.0606601594734568 0 -1.0606601840861856 1 I I #
point $-1 47.007747553110491 -6.5938286771713948 7.28631665996219 #
edge $-1 $663 1 $663 0 $374 $-1 forward 7 unknown #
vertex $-1 $375 $664 #
ellipse-curve $-1 43.328114214095272 -1.8042738796874715 5.7280037252801517 0.70710678939079041 0 0.70710677298230451 1.0606601594734568 0 -1.0606601840861856 1 I I #
point $-1 47.007747553110491 -1.8042738796874715 7.28631665996219 #
plane-surface $-1 0 0 14.848999986740234 0 0 1 1 0 0 forward_v I I I I #
coedge $-1 $541 $540 $533 $665 forward $379 $-1 #
coedge $-1 $533 $381 $383 $537 reversed $241 $-1 #
coedge $-1 $381 $532 $531 $665 reversed $241 $-1 #
coedge $-1 $389 $384 $381 $535 forward $390 $-1 #
edge $-1 $538 13.220508348490426 $666 26.224554332113897 $534 $667 forward 7 unknown #
coedge $-1 $383 $382 $541 $668 reversed $151 $-1 #
edge $-1 $669 -104.89822077089757 $538 -86.50772236175716 $532 $670 forward 7 unknown #
vertex $-1 $385 $671 #
straight-curve $-1 39.445064401825306 9.8624992549563721 14.848999986740225 0 -1 0 I I #
coedge $-1 $531 $386 $389 $545 reversed $379 $-1 #
coedge $-1 $386 $531 $536 $668 forward $379 $-1 #
vertex $-1 $387 $672 #
straight-curve $-1 52.449110385448776 25.312812440310655 75.09672009218346 0 0 1 I I #
straight-curve $-1 -21.725131995445935 25.312812440310655 76.01919780347221 0.70710677298230451 0 -0.70710678939079041 I I #
edge $-1 $666 14.137184579514834 $391 25.312812440310655 $540 $673 forward 7 unknown #
point $-1 52.449110385448776 25.312812440310655 14.848999986740234 #
point $-1 39.445064401825306 25.312812440310655 14.848999986740232 #
edge $-1 $674 1 $674 0 $394 $-1 forward 7 unknown #
vertex $-1 $395 $675 #
ellipse-curve $-1 43.328114214095272 17.330221111170779 5.7280037252801517 0.70710678939079041 0 0.70710677298230451 1.0606601594734568 0 -1.0606601840861856 1 I I #
point $-1 47.007747553110491 17.330221111170779 7.28631665996219 #
edge $-1 $676 1 $676 0 $398 $-1 forward 7 unknown #
vertex $-1 $399 $677 #
ellipse-curve $-1 43.328114214095272 22.119775908654709 5.7280037252801517 0.70710678939079041 0 0.70710677298230451 1.0606601594734568 0 -1.0606601840861856 1 I I #
point $-1 47.007747553110491 22.119775908654709 7.28631665996219 #
plane-surface $-1 0 0 14.848999986740234 0 0 1 1 0 0 forward_v I I I I #
coedge $-1 $567 $566 $559 $678 forward $403 $-1 #
coedge $-1 $559 $405 $407 $563 reversed $263 $-1 #
coedge $-1 $405 $558 $557 $678 reversed $263 $-1 #
coedge $-1 $413 $408 $405 $561 forward $414 $-1 #
edge $-1 $564 -15.536273557534678 $679 -3.8590190196581489 $560 $680 forward 7 unknown #
coedge $-1 $407 $406 $567 $681 reversed $165 $-1 #
edge $-1 $682 8.8770546250341341e-015 $564 14.25529569641569 $558 $683 forward 7 unknown #
vertex $-1 $409 $684 #
straight-curve $-1 -40.77185584757224 -4.7316657752478903 14.848999986740235 0 1 0 I I #
coedge $-1 $557 $410 $413 $571 reversed $403 $-1 #
coedge $-1 $410 $557 $562 $681 forward $403 $-1 #
vertex $-1 $411 $685 #
straight-curve $-1 -52.449110385448776 -14.875925595854268 46.300044810239839 0 0 1 I I #
straight-curve $-1 -52.449110385448783 -14.875925595854268 6.6724981766817564 -0.81915203911291934 0 -0.57357644374324357 I I #
edge $-1 $679 4.0507375051372936 $415 14.875925595854268 $566 $686 forward 7 unknown #
point $-1 -52.449110385448776 -14.875925595854268 14.848999986740234 #
point $-1 -40.771855847572247 -14.875925595854268 14.848999986740234 #
edge $-1 $687 1 $687 0 $418 $-1 forward 7 unknown #
vertex $-1 $419 $688 #
ellipse-curve $-1 -45.121796063739602 -12.710887977710875 8.6346836754681782 -0.57357644374324357 0 0.81915203911291934 0.81915203911291934 0 0.57357644374324357 1 I I #
point $-1 -45.791331077397587 -12.710887977710875 11.334325525454236 #
edge $-1 $689 1 $689 0 $422 $-1 forward 7 unknown #
vertex $-1 $423 $690 #
ellipse-curve $-1 -45.121796063739602 -9.4633315504957842 8.6346836754681782 -0.57357644374324357 0 0.81915203911291934 0.81915203911291934 0 0.57357644374324357 1 I I #
point $-1 -45.791331077397587 -9.4633315504957842 11.334325525454236 #
edge $-1 $691 1 $691 0 $426 $-1 forward 7 unknown #
vertex $-1 $427 $692 #
ellipse-curve $-1 -45.121796063739602 -6.215775123280693 8.6346836754681782 -0.57357644374324357 0 0.81915203911291934 0.81915203911291934 0 0.57357644374324357 1 I I #
point $-1 -45.791331077397587 -6.215775123280693 11.334325525454236 #
loop $-1 $-1 $438 $430 #
plane-surface $-1 -52.449110385448776 0 0 1 0 0 0 0 -1 forward_v I I I I #
coedge $-1 $589 $433 $435 $593 reversed $292 $-1 #
coedge $-1 $433 $588 $693 $694 reversed $292 $-1 #
coedge $-1 $441 $436 $433 $591 forward $431 $-1 #
edge $-1 $594 -15.536273557534678 $695 -3.8590190196581489 $590 $696 forward 7 unknown #
coedge $-1 $435 $434 $597 $697 reversed $184 $-1 #
edge $-1 $698 8.8770546250341341e-015 $594 14.25529569641569 $588 $699 forward 7 unknown #
vertex $-1 $437 $700 #
straight-curve $-1 -40.77185584757224 7.2303591189232002 14.848999986740235 0 1 0 I I #
coedge $-1 $693 $438 $441 $601 reversed $586 $-1 #
coedge $-1 $438 $693 $592 $697 forward $586 $-1 #
vertex $-1 $439 $701 #
straight-curve $-1 -52.449110385448776 9.0481241924879132 46.300044810239839 0 0 1 I I #
straight-curve $-1 -52.449110385448783 9.0481241924879132 6.6724981766817564 -0.81915203911291934 0 -0.57357644374324357 I I #
edge $-1 $695 -19.873312283204889 $442 -9.0481241924879132 $596 $702 forward 7 unknown #
point $-1 -52.449110385448776 9.0481241924879132 14.848999986740234 #
point $-1 -40.771855847572247 9.0481241924879132 14.848999986740234 #
edge $-1 $703 1 $703 0 $445 $-1 forward 7 unknown #
vertex $-1 $446 $704 #
ellipse-curve $-1 -45.121796063739602 11.213161810631298 8.6346836754681782 -0.57357644374324357 0 0.81915203911291934 0.81915203911291934 0 0.57357644374324357 1 I I #
point $-1 -45.791331077397587 11.213161810631298 11.334325525454236 #
edge $-1 $705 1 $705 0 $449 $-1 forward 7 unknown #
vertex $-1 $450 $706 #
ellipse-curve $-1 -45.121796063739602 14.460718237846393 8.6346836754681782 -0.57357644374324357 0 0.81915203911291934 0.81915203911291934 0 0.57357644374324357 1 I I #
point $-1 -45.791331077397587 14.460718237846393 11.334325525454236 #
edge $-1 $707 1 $707 0 $453 $-1 forward 7 unknown #
vertex $-1 $454 $708 #
ellipse-curve $-1 -45.121796063739602 17.708274665061488 8.6346836754681782 -0.57357644374324357 0 0.81915203911291934 0.81915203911291934 0 0.57357644374324357 1 I I #
point $-1 -45.791331077397587 17.708274665061488 11.334325525454236 #
plane-surface $-1 52.449110385448776 0 0 -1 0 0 0 0 1 forward_v I I I I #
coedge $-1 $462 $460 $464 $621 reversed $321 $-1 #
edge $-1 $475 -14.848999986740234 $623 14.848999986740234 $474 $709 forward 7 unknown #
vertex $-1 $621 $710 #
straight-curve $-1 -52.449110385448776 -32.972173980830085 0 0 0 -1 I I #
edge $-1 $619 -32.972173980830085 $623 32.972173980830085 $617 $711 forward 7 unknown #
straight-curve $-1 0 -32.972173980830085 -14.848999986740234 -1 0 0 I I #
vertex $-1 $467 $712 #
straight-curve $-1 0 32.972173980830085 -14.848999986740234 1 0 0 I I #
point $-1 52.449110385448776 32.972173980830085 -14.848999986740234 #
point $-1 52.449110385448776 -32.972173980830085 -14.848999986740234 #
straight-curve $-1 -52.449110385448776 0 14.848999986740234 0 -1 0 I I #
point $-1 -52.449110385448776 32.972173980830085 14.848999986740234 #
point $-1 -52.449110385448776 -32.972173980830085 14.848999986740234 #
straight-curve $-1 52.449110385448776 -32.972173980830085 0 0 0 -1 I I #
straight-curve $-1 52.449110385448776 32.972173980830085 0 0 0 -1 I I #
plane-surface $-1 0 0 -14.848999986740234 0 0 1 1 0 0 forward_v I I I I #
coedge $-1 $647 $486 $645 $713 reversed $340 $-1 #
coedge $-1 $486 $647 $490 $639 reversed $340 $-1 #
coedge $-1 $488 $487 $486 $636 reversed $211 $-1 #
edge $-1 $640 -14.848999986740234 $714 14.848999986740234 $635 $715 forward 7 unknown #
edge $-1 $714 -51.068422365805901 $498 -32.972173980830085 $487 $716 forward 7 unknown #
straight-curve $-1 -52.449110385448776 -32.972173980830085 0 0 0 -1 I I #
edge $-1 $640 -3.2238920501012842 $642 3.2238920501012842 $634 $717 forward 7 unknown #
vertex $-1 $491 $718 #
straight-curve $-1 -52.449110385448776 0 14.848999986740234 0 -1 0 I I #
vertex $-1 $492 $719 #
straight-curve $-1 -46.001326285246208 -42.020298173317997 14.848999986740234 0 1 0 I I #
point $-1 -52.449110385448776 -32.972173980830085 14.848999986740234 #
coedge $-1 $496 $495 $633 $713 forward $497 $-1 #
point $-1 -52.449110385448776 -32.972173980830085 -14.848999986740234 #
coedge $-1 $634 $633 $500 $648 reversed $340 $-1 #
edge $-1 $642 -14.848999986740234 $649 14.848999986740234 $500 $720 forward 7 unknown #
vertex $-1 $648 $721 #
straight-curve $-1 -46.001326285246208 -42.020298173317997 -14.848999986740234 0 -1 0 I I #
coedge $-1 $515 $514 $507 $652 forward $504 $-1 #
edge $-1 $653 60.247720105443229 $656 73.25176639082693 $651 $722 forward 7 unknown #
vertex $-1 $519 $723 #
straight-curve $-1 26.224556053334879 -9.7868652088273436 14.848999986740239 1 0 0 I I #
edge $-1 $656 -7.687339569612627 $516 3.4882882911831938 $515 $724 forward 7 unknown #
vertex $-1 $655 $725 #
straight-curve $-1 -21.725131995445935 -9.7868652088273436 76.01919780347221 -0.70710677298230451 0 0.70710678939079041 I I #
point $-1 39.445064401825306 -9.7868652088273436 14.848999986740232 #
point $-1 52.449110385448776 1.3887626519684773 1.8449537013565305 #
straight-curve $-1 52.449110385448776 0 14.848999986740234 0 1 0 I I #
vertex $-1 $522 $726 #
point $-1 44.388774373568729 -6.5938286771713948 4.6673435411939659 #
vertex $-1 $526 $727 #
point $-1 44.388774373568729 -1.8042738796874715 4.6673435411939659 #
edge $-1 $666 60.247720105443229 $669 73.25176639082693 $531 $728 forward 7 unknown #
vertex $-1 $545 $729 #
straight-curve $-1 26.224556053334879 14.137184579514834 14.848999986740239 1 0 0 I I #
edge $-1 $669 4.2746853245584617 $542 15.450313185354283 $541 $730 forward 7 unknown #
vertex $-1 $668 $731 #
straight-curve $-1 -21.725131995445935 14.137184579514834 76.01919780347221 -0.70710677298230451 0 0.70710678939079041 I I #
point $-1 39.445064401825306 14.137184579514834 14.848999986740232 #
point $-1 52.449110385448776 25.312812440310655 1.8449537013565305 #
straight-curve $-1 52.449110385448776 0 14.848999986740234 0 1 0 I I #
vertex $-1 $548 $732 #
point $-1 44.388774373568729 17.330221111170779 4.6673435411939659 #
vertex $-1 $552 $733 #
point $-1 44.388774373568729 22.119775908654709 4.6673435411939659 #
edge $-1 $679 31.451044823499608 $682 39.627546633558076 $557 $734 forward 7 unknown #
vertex $-1 $571 $735 #
straight-curve $-1 -56.308129405106925 -4.0507375051372936 14.848999986740232 -1 0 0 I I #
edge $-1 $682 -0.68092827011059676 $568 10.144259820606377 $567 $736 forward 7 unknown #
vertex $-1 $681 $737 #
straight-curve $-1 -52.449110385448783 -4.0507375051372936 6.6724981766817564 0.81915203911291934 0 0.57357644374324357 I I #
point $-1 -40.771855847572247 -4.0507375051372936 14.848999986740234 #
point $-1 -52.449110385448776 -14.875925595854268 6.6724981766817617 #
straight-curve $-1 -52.449110385448776 0 14.848999986740234 0 -1 0 I I #
vertex $-1 $574 $738 #
point $-1 -44.30264402462668 -12.710887977710875 9.2082601192114222 #
vertex $-1 $578 $739 #
point $-1 -44.30264402462668 -9.4633315504957842 9.2082601192114222 #
vertex $-1 $582 $740 #
point $-1 -44.30264402462668 -6.215775123280693 9.2082601192114222 #
coedge $-1 $597 $596 $589 $694 forward $586 $-1 #
edge $-1 $695 31.451044823499608 $698 39.627546633558076 $693 $741 forward 7 unknown #
vertex $-1 $601 $742 #
straight-curve $-1 -56.308129405106925 19.873312283204889 14.848999986740232 -1 0 0 I I #
edge $-1 $698 -12.642953164281689 $598 -1.8177650735647131 $597 $743 forward 7 unknown #
vertex $-1 $697 $744 #
straight-curve $-1 -52.449110385448783 19.873312283204889 6.6724981766817564 0.81915203911291934 0 0.57357644374324357 I I #
point $-1 -40.771855847572247 19.873312283204889 14.848999986740234 #
point $-1 -52.449110385448776 9.0481241924879132 6.6724981766817617 #
straight-curve $-1 -52.449110385448776 0 14.848999986740234 0 -1 0 I I #
vertex $-1 $604 $745 #
point $-1 -44.30264402462668 11.213161810631298 9.2082601192114222 #
vertex $-1 $608 $746 #
point $-1 -44.30264402462668 14.460718237846393 9.2082601192114222 #
vertex $-1 $612 $747 #
point $-1 -44.30264402462668 17.708274665061488 9.2082601192114222 #
straight-curve $-1 -52.449110385448776 32.972173980830085 0 0 0 -1 I I #
point $-1 -52.449110385448776 -32.972173980830085 -14.848999986740234 #
straight-curve $-1 -52.449110385448776 0 -14.848999986740234 0 1 0 I I #
point $-1 -52.449110385448776 32.972173980830085 -14.848999986740234 #
edge $-1 $649 -3.2238920501012842 $714 3.2238920501012842 $633 $748 forward 7 unknown #
vertex $-1 $637 $749 #
straight-curve $-1 -52.449110385448776 -51.068422365805901 0 0 0 -1 I I #
straight-curve $-1 -52.449110385448776 0 -14.848999986740234 0 1 0 I I #
straight-curve $-1 -49.225218335347492 -51.068422365805901 14.848999986740234 1 0 0 I I #
point $-1 -52.449110385448776 -51.068422365805901 14.848999986740234 #
point $-1 -46.001326285246208 -51.068422365805901 14.848999986740234 #
straight-curve $-1 -46.001326285246208 -51.068422365805901 0 0 0 -1 I I #
point $-1 -46.001326285246208 -51.068422365805901 -14.848999986740234 #
straight-curve $-1 52.449110385448776 -9.7868652088273436 75.09672009218346 0 0 -1 I I #
point $-1 52.449110385448776 -9.7868652088273436 14.848999986740234 #
straight-curve $-1 52.449110385448776 -2.0995256392147166 1.8449537013565092 0 1 0 I I #
point $-1 52.449110385448776 -9.7868652088273436 1.8449537013565305 #
point $-1 42.267454030009084 -6.5938286771713948 4.6673435658066946 #
point $-1 42.267454030009084 -1.8042738796874715 4.6673435658066946 #
straight-curve $-1 52.449110385448776 14.137184579514834 75.09672009218346 0 0 -1 I I #
point $-1 52.449110385448776 14.137184579514834 14.848999986740234 #
straight-curve $-1 52.449110385448776 9.8624992549563721 1.8449537013565092 0 1 0 I I #
point $-1 52.449110385448776 14.137184579514834 1.8449537013565305 #
point $-1 42.267454030009084 17.330221111170779 4.6673435658066946 #
point $-1 42.267454030009084 22.119775908654709 4.6673435658066946 #
straight-curve $-1 -52.449110385448776 -4.0507375051372936 46.300044810239839 0 0 -1 I I #
point $-1 -52.449110385448776 -4.0507375051372936 14.848999986740234 #
straight-curve $-1 -52.449110385448776 -4.7316657752478903 6.6724981766817582 0 -1 0 I I #
point $-1 -52.449110385448776 -4.0507375051372936 6.6724981766817617 #
point $-1 -44.548219619996352 -12.710887977710875 7.8155316363552592 #
point $-1 -44.548219619996352 -9.4633315504957842 7.8155316363552592 #
point $-1 -44.548219619996352 -6.215775123280693 7.8155316363552592 #
straight-curve $-1 -52.449110385448776 19.873312283204889 46.300044810239839 0 0 -1 I I #
point $-1 -52.449110385448776 19.873312283204889 14.848999986740234 #
straight-curve $-1 -52.449110385448776 7.2303591189232002 6.6724981766817582 0 -1 0 I I #
point $-1 -52.449110385448776 19.873312283204889 6.6724981766817617 #
point $-1 -44.548219619996352 11.213161810631298 7.8155316363552592 #
point $-1 -44.548219619996352 14.460718237846393 7.8155316363552592 #
point $-1 -44.548219619996352 17.708274665061488 7.8155316363552592 #
straight-curve $-1 -49.225218335347492 -51.068422365805901 -14.848999986740234 -1 0 0 I I #
point $-1 -52.449110385448776 -51.068422365805901 -14.848999986740234 #
End-of-ACIS-data 