500 0 3 0           
7 Unknown 11 ACIS 5.0 NT 24 Thu Mar 25 18:56:19 1999 
-1 9.9999999999999995e-007 1e-010 
body $-1 $3 $-1 $4 #
body $-1 $5 $-1 $6 #
body $-1 $7 $-1 $8 #
lump $-1 $-1 $9 $0 #
transform $-1 1 0 0 0 1 0 0 0 1 64.26831873531296 26.795889672478367 10.803076904486471 1 rotate no_reflect no_shear #
lump $-1 $-1 $10 $1 #
transform $-1 1 0 0 0 1 0 0 0 1 64.26831873531296 26.795889672478367 10.803076904486471 1 rotate no_reflect no_shear #
lump $-1 $-1 $11 $2 #
transform $-1 1 0 0 0 1 0 0 0 1 64.26831873531296 26.795889672478367 10.803076904486471 1 rotate no_reflect no_shear #
shell $-1 $-1 $-1 $12 $-1 $3 #
shell $-1 $-1 $-1 $13 $-1 $5 #
shell $-1 $-1 $-1 $14 $-1 $7 #
face $-1 $15 $16 $9 $-1 $17 forward single #
face $-1 $18 $19 $10 $-1 $20 reversed single #
face $-1 $21 $22 $11 $-1 $23 reversed single #
face $-1 $24 $25 $9 $-1 $26 reversed single #
loop $-1 $-1 $27 $12 #
plane-surface $-1 0 0 10.803076904486471 0 0 1 1 0 0 forward_v I I I I #
face $-1 $28 $29 $10 $-1 $30 reversed single #
loop $-1 $-1 $31 $13 #
plane-surface $-1 0 -33.083381317193783 4.85810415366036 0 0 1 1 0 0 forward_v I I I I #
face $-1 $32 $33 $11 $-1 $34 forward single #
loop $-1 $-1 $35 $14 #
plane-surface $-1 0 21.510545207888811 -5.9371260382699775 0 0 1 1 0 0 forward_v I I I I #
face $-1 $36 $37 $9 $-1 $38 reversed single #
loop $-1 $-1 $39 $15 #
plane-surface $-1 0 0 -10.803076904486471 0 0 1 1 0 0 forward_v I I I I #
coedge $-1 $40 $41 $42 $43 forward $16 $-1 #
face $-1 $44 $45 $10 $-1 $46 forward single #
loop $-1 $-1 $47 $18 #
plane-surface $-1 0 -39.3708729619092 7.8305905290734152 0 1 0 0 0 1 forward_v I I I I #
coedge $-1 $48 $49 $50 $51 forward $19 $-1 #
face $-1 $52 $53 $11 $-1 $54 reversed single #
loop $-1 $-1 $55 $21 #
plane-surface $-1 0 16.225200743299254 -8.3701014713782236 0 1 0 0 0 1 forward_v I I I I #
coedge $-1 $56 $57 $58 $59 reversed $22 $-1 #
face $-1 $60 $61 $9 $-1 $62 reversed single #
loop $-1 $-1 $63 $24 #
plane-surface $-1 0 -26.795889672478367 0 0 1 0 0 0 1 forward_v I I I I #
coedge $-1 $64 $65 $66 $67 forward $25 $-1 #
coedge $-1 $68 $27 $69 $70 forward $16 $-1 #
coedge $-1 $27 $68 $71 $72 forward $16 $-1 #
coedge $-1 $73 $74 $27 $43 reversed $75 $-1 #
edge $-1 $76 -26.795889672478367 $77 26.795889672478367 $42 $78 forward 7 unknown #
face $-1 $79 $80 $10 $-1 $81 reversed single #
loop $-1 $-1 $82 $28 #
plane-surface $-1 0 0 10.803076904486471 0 0 1 1 0 0 forward_v I I I I #
coedge $-1 $83 $84 $85 $86 forward $29 $-1 #
coedge $-1 $87 $31 $83 $88 forward $19 $-1 #
coedge $-1 $31 $87 $89 $90 reversed $19 $-1 #
coedge $-1 $91 $92 $31 $51 reversed $93 $-1 #
edge $-1 $94 -6.2874916447154163 $95 6.2874916447154163 $50 $96 forward 7 unknown #
face $-1 $97 $98 $11 $-1 $99 reversed single #
loop $-1 $-1 $100 $32 #
plane-surface $-1 0 26.795889672478367 0 0 -1 0 0 0 -1 forward_v I I I I #
coedge $-1 $101 $102 $103 $104 reversed $33 $-1 #
coedge $-1 $105 $35 $101 $106 reversed $22 $-1 #
coedge $-1 $35 $105 $100 $107 reversed $22 $-1 #
coedge $-1 $108 $109 $35 $59 forward $110 $-1 #
edge $-1 $111 5.4699281393548489 $112 16.040617068533962 $58 $113 forward 7 unknown #
face $-1 $114 $115 $9 $-1 $116 reversed single #
loop $-1 $-1 $117 $36 #
plane-surface $-1 -64.26831873531296 0 0 1 0 0 0 0 -1 forward_v I I I I #
coedge $-1 $118 $71 $119 $120 forward $37 $-1 #
coedge $-1 $121 $39 $118 $122 forward $25 $-1 #
coedge $-1 $39 $121 $123 $124 forward $25 $-1 #
coedge $-1 $74 $73 $39 $67 reversed $75 $-1 #
edge $-1 $125 -26.795889672478367 $126 26.795889672478367 $66 $127 forward 7 unknown #
coedge $-1 $41 $40 $128 $129 forward $16 $-1 #
coedge $-1 $130 $131 $40 $70 reversed $115 $-1 #
edge $-1 $77 -64.26831873531296 $132 64.26831873531296 $69 $133 forward 7 unknown #
coedge $-1 $63 $134 $41 $72 reversed $37 $-1 #
edge $-1 $135 -64.26831873531296 $76 64.26831873531296 $71 $136 forward 7 unknown #
coedge $-1 $66 $42 $134 $137 forward $75 $-1 #
coedge $-1 $42 $66 $130 $138 reversed $75 $-1 #
loop $-1 $-1 $73 $114 #
vertex $-1 $43 $139 #
vertex $-1 $43 $140 #
straight-curve $-1 64.26831873531296 0 10.803076904486471 0 1 0 I I #
face $-1 $141 $142 $10 $-1 $143 reversed single #
loop $-1 $-1 $144 $44 #
plane-surface $-1 0 0 -10.803076904486471 0 0 1 1 0 0 forward_v I I I I #
coedge $-1 $145 $146 $147 $148 forward $45 $-1 #
coedge $-1 $149 $47 $48 $88 reversed $29 $-1 #
coedge $-1 $47 $149 $146 $150 reversed $29 $-1 #
coedge $-1 $151 $152 $47 $86 reversed $153 $-1 #
edge $-1 $154 -2.9724863754130553 $155 2.9724863754130553 $85 $156 forward 7 unknown #
coedge $-1 $49 $48 $152 $157 forward $19 $-1 #
edge $-1 $95 -64.26831873531296 $155 64.26831873531296 $83 $158 forward 7 unknown #
coedge $-1 $159 $160 $49 $90 forward $142 $-1 #
edge $-1 $94 -64.26831873531296 $161 64.26831873531296 $89 $162 forward 7 unknown #
coedge $-1 $163 $50 $160 $164 forward $93 $-1 #
coedge $-1 $50 $147 $149 $165 forward $93 $-1 #
loop $-1 $-1 $91 $166 #
vertex $-1 $164 $167 #
vertex $-1 $165 $168 #
straight-curve $-1 64.26831873531296 -33.083381317193783 4.85810415366036 0 -1 0 I I #
face $-1 $169 $170 $11 $-1 $171 reversed single #
loop $-1 $-1 $172 $52 #
plane-surface $-1 -64.26831873531296 0 0 1 0 0 0 0 -1 forward_v I I I I #
coedge $-1 $173 $174 $57 $107 forward $53 $-1 #
coedge $-1 $175 $55 $56 $106 forward $33 $-1 #
coedge $-1 $55 $175 $176 $177 reversed $33 $-1 #
coedge $-1 $178 $172 $55 $104 forward $98 $-1 #
edge $-1 $179 1.7520753025808657 $180 6.6180261687973587 $103 $181 forward 7 unknown #
coedge $-1 $57 $56 $172 $182 reversed $22 $-1 #
edge $-1 $179 -64.26831873531296 $111 64.26831873531296 $101 $183 forward 7 unknown #
edge $-1 $112 -64.26831873531296 $184 64.26831873531296 $100 $185 forward 7 unknown #
coedge $-1 $186 $58 $174 $187 reversed $110 $-1 #
coedge $-1 $58 $188 $175 $189 forward $110 $-1 #
loop $-1 $-1 $58 $190 #
vertex $-1 $59 $191 #
vertex $-1 $107 $192 #
straight-curve $-1 64.26831873531296 10.755272603944405 -5.9371260382699775 0 1 0 I I #
face $-1 $-1 $75 $9 $-1 $193 reversed single #
loop $-1 $-1 $130 $60 #
plane-surface $-1 0 26.795889672478367 0 0 -1 0 0 0 -1 forward_v I I I I #
coedge $-1 $194 $128 $131 $195 forward $61 $-1 #
coedge $-1 $134 $63 $64 $122 reversed $37 $-1 #
coedge $-1 $128 $194 $63 $120 reversed $61 $-1 #
edge $-1 $135 -10.803076904486471 $196 10.803076904486471 $119 $197 forward 7 unknown #
coedge $-1 $65 $64 $194 $198 forward $25 $-1 #
edge $-1 $126 -64.26831873531296 $196 64.26831873531296 $118 $199 forward 7 unknown #
coedge $-1 $131 $130 $65 $124 reversed $115 $-1 #
edge $-1 $200 -64.26831873531296 $125 64.26831873531296 $123 $201 forward 7 unknown #
vertex $-1 $67 $202 #
vertex $-1 $137 $203 #
straight-curve $-1 64.26831873531296 0 -10.803076904486471 0 -1 0 I I #
coedge $-1 $117 $119 $68 $129 reversed $61 $-1 #
edge $-1 $132 -26.795889672478367 $135 26.795889672478367 $128 $204 forward 7 unknown #
coedge $-1 $123 $69 $74 $138 forward $115 $-1 #
coedge $-1 $69 $123 $117 $195 reversed $115 $-1 #
vertex $-1 $70 $205 #
straight-curve $-1 0 26.795889672478367 10.803076904486471 -1 0 0 I I #
coedge $-1 $71 $118 $73 $137 reversed $37 $-1 #
vertex $-1 $129 $206 #
straight-curve $-1 0 -26.795889672478367 10.803076904486471 1 0 0 I I #
edge $-1 $76 -10.803076904486471 $126 10.803076904486471 $73 $207 forward 7 unknown #
edge $-1 $77 -10.803076904486471 $125 10.803076904486471 $74 $208 forward 7 unknown #
point $-1 64.26831873531296 -26.795889672478367 10.803076904486471 #
point $-1 64.26831873531296 26.795889672478367 10.803076904486471 #
face $-1 $209 $153 $10 $-1 $210 reversed single #
loop $-1 $-1 $89 $79 #
plane-surface $-1 0 -26.795889672478367 0 0 1 0 0 0 1 forward_v I I I I #
coedge $-1 $211 $212 $163 $213 forward $80 $-1 #
coedge $-1 $214 $82 $215 $216 forward $45 $-1 #
coedge $-1 $82 $214 $84 $150 forward $45 $-1 #
coedge $-1 $92 $217 $82 $148 reversed $93 $-1 #
edge $-1 $218 -39.3708729619092 $219 26.795889672478367 $147 $220 forward 7 unknown #
coedge $-1 $84 $83 $92 $165 reversed $29 $-1 #
edge $-1 $154 -64.26831873531296 $218 64.26831873531296 $84 $221 forward 7 unknown #
coedge $-1 $222 $85 $214 $223 reversed $153 $-1 #
coedge $-1 $85 $224 $87 $157 reversed $153 $-1 #
loop $-1 $-1 $222 $141 #
vertex $-1 $223 $225 #
vertex $-1 $157 $226 #
straight-curve $-1 -64.26831873531296 -39.3708729619092 7.8305905290734152 0 0 -1 I I #
edge $-1 $155 -6.2874916447154163 $161 6.2874916447154163 $152 $227 forward 7 unknown #
straight-curve $-1 0 -39.3708729619092 4.85810415366036 -1 0 0 I I #
coedge $-1 $228 $89 $224 $229 forward $142 $-1 #
coedge $-1 $89 $228 $91 $164 reversed $142 $-1 #
vertex $-1 $229 $230 #
straight-curve $-1 0 -26.795889672478367 4.85810415366036 -1 0 0 I I #
coedge $-1 $217 $91 $144 $213 reversed $93 $-1 #
edge $-1 $94 -4.85810415366036 $231 10.803076904486471 $91 $232 forward 7 unknown #
edge $-1 $218 -2.9724863754130553 $95 2.9724863754130553 $92 $233 forward 7 unknown #
face $-1 $-1 $93 $10 $-1 $234 reversed single #
point $-1 64.26831873531296 -26.795889672478367 4.85810415366036 #
point $-1 64.26831873531296 -39.3708729619092 4.85810415366036 #
face $-1 $235 $236 $11 $-1 $237 reversed single #
loop $-1 $-1 $238 $97 #
plane-surface $-1 0 -33.083381317193783 4.85810415366036 0 0 1 1 0 0 forward_v I I I I #
coedge $-1 $103 $239 $105 $182 forward $98 $-1 #
coedge $-1 $240 $100 $239 $241 reversed $53 $-1 #
coedge $-1 $100 $240 $108 $187 forward $53 $-1 #
coedge $-1 $102 $101 $109 $189 reversed $33 $-1 #
coedge $-1 $242 $243 $102 $177 forward $244 $-1 #
edge $-1 $180 -64.26831873531296 $245 64.26831873531296 $176 $246 forward 7 unknown #
coedge $-1 $247 $103 $243 $248 reversed $98 $-1 #
vertex $-1 $182 $249 #
vertex $-1 $104 $250 #
straight-curve $-1 -64.26831873531296 16.225200743299254 -4.1850507356891118 0 0 -1 I I #
edge $-1 $184 -16.040617068533962 $179 -5.4699281393548489 $172 $251 forward 7 unknown #
straight-curve $-1 0 16.225200743299254 -5.9371260382699775 1 0 0 I I #
vertex $-1 $182 $252 #
straight-curve $-1 0 26.795889672478367 -5.9371260382699775 -1 0 0 I I #
coedge $-1 $253 $108 $254 $255 reversed $110 $-1 #
edge $-1 $256 -10.803076904486471 $112 5.9371260382699775 $108 $257 forward 7 unknown #
coedge $-1 $109 $258 $242 $259 reversed $110 $-1 #
edge $-1 $245 -6.6180261687973587 $111 -1.7520753025808657 $109 $260 forward 7 unknown #
face $-1 $-1 $110 $11 $-1 $261 reversed single #
point $-1 64.26831873531296 16.225200743299254 -5.9371260382699775 #
point $-1 64.26831873531296 26.795889672478367 -5.9371260382699775 #
plane-surface $-1 64.26831873531296 0 0 -1 0 0 0 0 1 forward_v I I I I #
coedge $-1 $119 $117 $121 $198 reversed $61 $-1 #
edge $-1 $132 -10.803076904486471 $200 10.803076904486471 $131 $262 forward 7 unknown #
vertex $-1 $198 $263 #
straight-curve $-1 -64.26831873531296 -26.795889672478367 0 0 0 -1 I I #
edge $-1 $196 -26.795889672478367 $200 26.795889672478367 $194 $264 forward 7 unknown #
straight-curve $-1 0 -26.795889672478367 -10.803076904486471 -1 0 0 I I #
vertex $-1 $124 $265 #
straight-curve $-1 0 26.795889672478367 -10.803076904486471 1 0 0 I I #
point $-1 64.26831873531296 26.795889672478367 -10.803076904486471 #
point $-1 64.26831873531296 -26.795889672478367 -10.803076904486471 #
straight-curve $-1 -64.26831873531296 0 10.803076904486471 0 -1 0 I I #
point $-1 -64.26831873531296 26.795889672478367 10.803076904486471 #
point $-1 -64.26831873531296 -26.795889672478367 10.803076904486471 #
straight-curve $-1 64.26831873531296 -26.795889672478367 0 0 0 -1 I I #
straight-curve $-1 64.26831873531296 26.795889672478367 0 0 0 -1 I I #
face $-1 $166 $266 $10 $-1 $267 reversed single #
plane-surface $-1 -64.26831873531296 0 0 1 0 0 0 0 -1 forward_v I I I I #
coedge $-1 $268 $144 $228 $269 forward $80 $-1 #
coedge $-1 $144 $268 $270 $271 forward $80 $-1 #
edge $-1 $272 -26.795889672478367 $231 26.795889672478367 $163 $273 forward 7 unknown #
coedge $-1 $146 $145 $151 $223 forward $45 $-1 #
coedge $-1 $274 $275 $145 $216 reversed $266 $-1 #
edge $-1 $219 -64.26831873531296 $276 64.26831873531296 $215 $277 forward 7 unknown #
coedge $-1 $147 $163 $274 $278 reversed $93 $-1 #
vertex $-1 $148 $279 #
vertex $-1 $148 $280 #
straight-curve $-1 64.26831873531296 0 10.803076904486471 0 1 0 I I #
straight-curve $-1 0 -39.3708729619092 10.803076904486471 1 0 0 I I #
coedge $-1 $281 $151 $275 $282 forward $153 $-1 #
edge $-1 $276 -26.795889672478367 $154 39.3708729619092 $151 $283 forward 7 unknown #
coedge $-1 $152 $281 $159 $229 reversed $153 $-1 #
point $-1 -64.26831873531296 -39.3708729619092 10.803076904486471 #
point $-1 -64.26831873531296 -39.3708729619092 4.85810415366036 #
straight-curve $-1 -64.26831873531296 -33.083381317193783 4.85810415366036 0 1 0 I I #
coedge $-1 $160 $159 $211 $269 reversed $142 $-1 #
edge $-1 $161 -4.85810415366036 $284 10.803076904486471 $224 $285 forward 7 unknown #
point $-1 -64.26831873531296 -26.795889672478367 4.85810415366036 #
vertex $-1 $164 $286 #
straight-curve $-1 64.26831873531296 -26.795889672478367 0 0 0 -1 I I #
straight-curve $-1 64.26831873531296 -39.3708729619092 7.8305905290734152 0 0 -1 I I #
plane-surface $-1 64.26831873531296 0 0 -1 0 0 0 0 1 forward_v I I I I #
face $-1 $287 $288 $11 $-1 $289 forward single #
loop $-1 $-1 $290 $169 #
plane-surface $-1 0 -39.3708729619092 7.8305905290734152 0 1 0 0 0 1 forward_v I I I I #
coedge $-1 $291 $292 $293 $294 forward $170 $-1 #
coedge $-1 $172 $295 $173 $241 forward $98 $-1 #
coedge $-1 $174 $173 $296 $297 reversed $53 $-1 #
edge $-1 $298 -10.803076904486471 $184 5.9371260382699775 $173 $299 forward 7 unknown #
coedge $-1 $300 $176 $188 $259 forward $244 $-1 #
coedge $-1 $176 $300 $178 $248 forward $244 $-1 #
loop $-1 $-1 $176 $287 #
vertex $-1 $259 $301 #
straight-curve $-1 0 16.225200743299254 -10.803076904486471 1 0 0 I I #
coedge $-1 $302 $178 $303 $304 reversed $98 $-1 #
edge $-1 $305 -26.795889672478367 $180 16.225200743299254 $178 $306 forward 7 unknown #
point $-1 -64.26831873531296 16.225200743299254 -5.9371260382699775 #
point $-1 -64.26831873531296 16.225200743299254 -10.803076904486471 #
straight-curve $-1 -64.26831873531296 10.755272603944405 -5.9371260382699775 0 -1 0 I I #
point $-1 -64.26831873531296 26.795889672478367 -5.9371260382699775 #
coedge $-1 $293 $186 $307 $308 forward $110 $-1 #
coedge $-1 $296 $309 $186 $255 forward $288 $-1 #
edge $-1 $310 -39.3708729619092 $256 26.795889672478367 $186 $311 forward 7 unknown #
vertex $-1 $255 $312 #
straight-curve $-1 64.26831873531296 26.795889672478367 0 0 0 -1 I I #
coedge $-1 $188 $293 $313 $314 forward $110 $-1 #
edge $-1 $245 -16.225200743299254 $315 26.795889672478367 $188 $316 forward 7 unknown #
straight-curve $-1 64.26831873531296 16.225200743299254 -4.1850507356891118 0 0 1 I I #
plane-surface $-1 64.26831873531296 0 0 -1 0 0 0 0 1 forward_v I I I I #
straight-curve $-1 -64.26831873531296 26.795889672478367 0 0 0 -1 I I #
point $-1 -64.26831873531296 -26.795889672478367 -10.803076904486471 #
straight-curve $-1 -64.26831873531296 0 -10.803076904486471 0 1 0 I I #
point $-1 -64.26831873531296 26.795889672478367 -10.803076904486471 #
loop $-1 $-1 $274 $209 #
plane-surface $-1 0 26.795889672478367 0 0 -1 0 0 0 -1 forward_v I I I I #
coedge $-1 $212 $211 $281 $317 forward $80 $-1 #
edge $-1 $231 -64.26831873531296 $284 64.26831873531296 $228 $318 forward 7 unknown #
coedge $-1 $275 $274 $212 $271 reversed $266 $-1 #
edge $-1 $319 -64.26831873531296 $272 64.26831873531296 $270 $320 forward 7 unknown #
vertex $-1 $213 $321 #
straight-curve $-1 64.26831873531296 0 -10.803076904486471 0 -1 0 I I #
coedge $-1 $270 $215 $217 $278 forward $266 $-1 #
coedge $-1 $215 $270 $222 $282 reversed $266 $-1 #
vertex $-1 $216 $322 #
straight-curve $-1 0 26.795889672478367 10.803076904486471 -1 0 0 I I #
edge $-1 $219 -10.803076904486471 $272 10.803076904486471 $217 $323 forward 7 unknown #
point $-1 64.26831873531296 -39.3708729619092 10.803076904486471 #
point $-1 64.26831873531296 26.795889672478367 10.803076904486471 #
coedge $-1 $224 $222 $268 $317 reversed $153 $-1 #
edge $-1 $276 -10.803076904486471 $319 10.803076904486471 $275 $324 forward 7 unknown #
straight-curve $-1 -64.26831873531296 0 10.803076904486471 0 -1 0 I I #
vertex $-1 $317 $325 #
straight-curve $-1 -64.26831873531296 -26.795889672478367 0 0 0 -1 I I #
point $-1 64.26831873531296 -26.795889672478367 -10.803076904486471 #
face $-1 $326 $244 $11 $-1 $327 reversed single #
loop $-1 $-1 $254 $235 #
plane-surface $-1 0 0 10.803076904486471 0 0 1 1 0 0 forward_v I I I I #
coedge $-1 $328 $329 $330 $331 forward $236 $-1 #
coedge $-1 $332 $238 $328 $333 forward $170 $-1 #
coedge $-1 $238 $332 $334 $335 reversed $170 $-1 #
coedge $-1 $258 $253 $238 $294 reversed $110 $-1 #
edge $-1 $336 -6.2874916447154163 $337 6.2874916447154163 $293 $338 forward 7 unknown #
coedge $-1 $239 $330 $339 $340 reversed $98 $-1 #
coedge $-1 $339 $254 $240 $297 forward $288 $-1 #
edge $-1 $256 -64.26831873531296 $298 64.26831873531296 $240 $341 forward 7 unknown #
vertex $-1 $297 $342 #
straight-curve $-1 -64.26831873531296 26.795889672478367 0 0 0 -1 I I #
coedge $-1 $243 $242 $343 $344 forward $244 $-1 #
point $-1 64.26831873531296 16.225200743299254 -10.803076904486471 #
coedge $-1 $330 $247 $332 $345 reversed $98 $-1 #
coedge $-1 $343 $334 $247 $304 forward $346 $-1 #
edge $-1 $347 -4.85810415366036 $305 10.803076904486471 $247 $348 forward 7 unknown #
vertex $-1 $248 $349 #
straight-curve $-1 -64.26831873531296 0 -10.803076904486471 0 1 0 I I #
coedge $-1 $329 $328 $253 $308 reversed $236 $-1 #
edge $-1 $310 -2.9724863754130553 $337 2.9724863754130553 $253 $350 forward 7 unknown #
coedge $-1 $254 $339 $329 $351 forward $288 $-1 #
vertex $-1 $255 $352 #
straight-curve $-1 64.26831873531296 0 10.803076904486471 0 1 0 I I #
point $-1 64.26831873531296 26.795889672478367 10.803076904486471 #
coedge $-1 $334 $343 $258 $314 reversed $346 $-1 #
edge $-1 $336 -4.85810415366036 $315 10.803076904486471 $258 $353 forward 7 unknown #
vertex $-1 $314 $354 #
straight-curve $-1 64.26831873531296 0 -10.803076904486471 0 -1 0 I I #
edge $-1 $284 -26.795889672478367 $319 26.795889672478367 $281 $355 forward 7 unknown #
straight-curve $-1 0 -26.795889672478367 -10.803076904486471 -1 0 0 I I #
vertex $-1 $271 $356 #
straight-curve $-1 0 26.795889672478367 -10.803076904486471 1 0 0 I I #
point $-1 64.26831873531296 26.795889672478367 -10.803076904486471 #
point $-1 -64.26831873531296 26.795889672478367 10.803076904486471 #
straight-curve $-1 64.26831873531296 26.795889672478367 0 0 0 -1 I I #
straight-curve $-1 -64.26831873531296 26.795889672478367 0 0 0 -1 I I #
point $-1 -64.26831873531296 -26.795889672478367 -10.803076904486471 #
face $-1 $190 $346 $11 $-1 $357 reversed single #
plane-surface $-1 0 0 -10.803076904486471 0 0 1 1 0 0 forward_v I I I I #
coedge $-1 $307 $290 $291 $333 reversed $236 $-1 #
coedge $-1 $290 $307 $309 $351 reversed $236 $-1 #
coedge $-1 $295 $302 $290 $331 reversed $98 $-1 #
edge $-1 $358 -2.9724863754130553 $359 2.9724863754130553 $330 $360 forward 7 unknown #
coedge $-1 $292 $291 $302 $345 forward $170 $-1 #
edge $-1 $337 -64.26831873531296 $359 64.26831873531296 $328 $361 forward 7 unknown #
coedge $-1 $303 $313 $292 $335 forward $346 $-1 #
edge $-1 $336 -64.26831873531296 $347 64.26831873531296 $334 $362 forward 7 unknown #
vertex $-1 $314 $363 #
vertex $-1 $308 $364 #
straight-curve $-1 64.26831873531296 -33.083381317193783 4.85810415366036 0 -1 0 I I #
coedge $-1 $309 $296 $295 $340 forward $288 $-1 #
edge $-1 $298 -26.795889672478367 $358 39.3708729619092 $295 $365 forward 7 unknown #
straight-curve $-1 0 26.795889672478367 10.803076904486471 -1 0 0 I I #
point $-1 -64.26831873531296 26.795889672478367 10.803076904486471 #
coedge $-1 $313 $303 $300 $344 reversed $346 $-1 #
edge $-1 $315 -64.26831873531296 $305 64.26831873531296 $343 $366 forward 7 unknown #
edge $-1 $359 -6.2874916447154163 $347 6.2874916447154163 $302 $367 forward 7 unknown #
loop $-1 $-1 $334 $326 #
vertex $-1 $304 $368 #
straight-curve $-1 -64.26831873531296 -26.795889672478367 0 0 0 -1 I I #
point $-1 -64.26831873531296 -26.795889672478367 -10.803076904486471 #
straight-curve $-1 64.26831873531296 -39.3708729619092 7.8305905290734152 0 0 -1 I I #
edge $-1 $358 -64.26831873531296 $310 64.26831873531296 $329 $369 forward 7 unknown #
point $-1 64.26831873531296 -39.3708729619092 10.803076904486471 #
straight-curve $-1 64.26831873531296 -26.795889672478367 0 0 0 -1 I I #
point $-1 64.26831873531296 -26.795889672478367 -10.803076904486471 #
straight-curve $-1 -64.26831873531296 0 -10.803076904486471 0 1 0 I I #
point $-1 -64.26831873531296 26.795889672478367 -10.803076904486471 #
plane-surface $-1 0 -26.795889672478367 0 0 1 0 0 0 1 forward_v I I I I #
vertex $-1 $340 $370 #
vertex $-1 $345 $371 #
straight-curve $-1 -64.26831873531296 -39.3708729619092 7.8305905290734152 0 0 -1 I I #
straight-curve $-1 0 -39.3708729619092 4.85810415366036 -1 0 0 I I #
straight-curve $-1 0 -26.795889672478367 4.85810415366036 -1 0 0 I I #
point $-1 64.26831873531296 -26.795889672478367 4.85810415366036 #
point $-1 64.26831873531296 -39.3708729619092 4.85810415366036 #
straight-curve $-1 -64.26831873531296 0 10.803076904486471 0 -1 0 I I #
straight-curve $-1 0 -26.795889672478367 -10.803076904486471 -1 0 0 I I #
straight-curve $-1 -64.26831873531296 -33.083381317193783 4.85810415366036 0 1 0 I I #
point $-1 -64.26831873531296 -26.795889672478367 4.85810415366036 #
straight-curve $-1 0 -39.3708729619092 10.803076904486471 1 0 0 I I #
point $-1 -64.26831873531296 -39.3708729619092 10.803076904486471 #
point $-1 -64.26831873531296 -39.3708729619092 4.85810415366036 #
End-of-ACIS-data 