500 0 14 0           
7 Unknown 11 ACIS 5.0 NT 24 Fri Mar 26 01:57:14 1999 
-1 9.9999999999999995e-007 1e-010 
body $-1 $14 $-1 $15 #
body $-1 $16 $-1 $17 #
body $-1 $18 $-1 $19 #
body $-1 $20 $-1 $21 #
body $-1 $22 $-1 $23 #
body $-1 $24 $-1 $25 #
body $-1 $26 $-1 $27 #
body $-1 $28 $-1 $29 #
body $-1 $30 $-1 $31 #
body $-1 $32 $-1 $33 #
body $-1 $34 $-1 $35 #
body $-1 $36 $-1 $37 #
body $-1 $38 $-1 $39 #
body $-1 $40 $-1 $41 #
lump $-1 $-1 $42 $0 #
transform $-1 1 0 0 0 1 0 0 0 1 67.193212683492533 43.957448258410771 13.047046076296269 1 rotate no_reflect no_shear #
lump $-1 $-1 $43 $1 #
transform $-1 1 0 0 0 1 0 0 0 1 67.193212683492533 43.957448258410771 13.047046076296269 1 rotate no_reflect no_shear #
lump $-1 $-1 $44 $2 #
transform $-1 1 0 0 0 1 0 0 0 1 67.193212683492533 43.957448258410771 13.047046076296269 1 rotate no_reflect no_shear #
lump $-1 $-1 $45 $3 #
transform $-1 1 0 0 0 1 0 0 0 1 67.193212683492533 43.957448258410771 13.047046076296269 1 rotate no_reflect no_shear #
lump $-1 $-1 $46 $4 #
transform $-1 1 0 0 0 1 0 0 0 1 67.193212683492533 43.957448258410771 13.047046076296269 1 rotate no_reflect no_shear #
lump $-1 $-1 $47 $5 #
transform $-1 1 0 0 0 1 0 0 0 1 67.193212683492533 43.957448258410771 13.047046076296269 1 rotate no_reflect no_shear #
lump $-1 $-1 $48 $6 #
transform $-1 1 0 0 0 1 0 0 0 1 67.193212683492533 43.957448258410771 13.047046076296269 1 rotate no_reflect no_shear #
lump $-1 $-1 $49 $7 #
transform $-1 1 0 0 0 1 0 0 0 1 67.193212683492533 43.957448258410771 13.047046076296269 1 rotate no_reflect no_shear #
lump $-1 $-1 $50 $8 #
transform $-1 1 0 0 0 1 0 0 0 1 67.193212683492533 43.957448258410771 13.047046076296269 1 rotate no_reflect no_shear #
lump $-1 $-1 $51 $9 #
transform $-1 1 0 0 0 1 0 0 0 1 67.193212683492533 43.957448258410771 13.047046076296269 1 rotate no_reflect no_shear #
lump $-1 $-1 $52 $10 #
transform $-1 1 0 0 0 1 0 0 0 1 67.193212683492533 43.957448258410771 13.047046076296269 1 rotate no_reflect no_shear #
lump $-1 $-1 $53 $11 #
transform $-1 1 0 0 0 1 0 0 0 1 67.193212683492533 43.957448258410771 13.047046076296269 1 rotate no_reflect no_shear #
lump $-1 $-1 $54 $12 #
transform $-1 1 0 0 0 1 0 0 0 1 67.193212683492533 43.957448258410771 13.047046076296269 1 rotate no_reflect no_shear #
lump $-1 $-1 $55 $13 #
transform $-1 1 0 0 0 1 0 0 0 1 67.193212683492533 43.957448258410771 13.047046076296269 1 rotate no_reflect no_shear #
shell $-1 $-1 $-1 $56 $-1 $14 #
shell $-1 $-1 $-1 $57 $-1 $16 #
shell $-1 $-1 $-1 $58 $-1 $18 #
shell $-1 $-1 $-1 $59 $-1 $20 #
shell $-1 $-1 $-1 $60 $-1 $22 #
shell $-1 $-1 $-1 $61 $-1 $24 #
shell $-1 $-1 $-1 $62 $-1 $26 #
shell $-1 $-1 $-1 $63 $-1 $28 #
shell $-1 $-1 $-1 $64 $-1 $30 #
shell $-1 $-1 $-1 $65 $-1 $32 #
shell $-1 $-1 $-1 $66 $-1 $34 #
shell $-1 $-1 $-1 $67 $-1 $36 #
shell $-1 $-1 $-1 $68 $-1 $38 #
shell $-1 $-1 $-1 $69 $-1 $40 #
face $-1 $70 $71 $42 $-1 $72 forward single #
face $-1 $73 $74 $43 $-1 $75 reversed single #
face $-1 $76 $77 $44 $-1 $78 reversed single #
face $-1 $79 $80 $45 $-1 $81 forward single #
face $-1 $82 $83 $46 $-1 $84 reversed single #
face $-1 $85 $86 $47 $-1 $87 forward single #
face $-1 $88 $89 $48 $-1 $90 reversed single #
face $-1 $91 $92 $49 $-1 $93 forward single #
face $-1 $94 $95 $50 $-1 $96 forward single #
face $-1 $97 $98 $51 $-1 $99 forward single #
face $-1 $100 $101 $52 $-1 $102 reversed single #
face $-1 $103 $104 $53 $-1 $105 forward single #
face $-1 $106 $107 $54 $-1 $108 forward single #
face $-1 $109 $110 $55 $-1 $111 forward single #
face $-1 $112 $113 $42 $-1 $114 reversed single #
loop $-1 $-1 $115 $56 #
plane-surface $-1 0 0 13.047046076296269 0 0 1 1 0 0 forward_v I I I I #
face $-1 $116 $117 $43 $-1 $118 reversed single #
loop $-1 $-1 $119 $57 #
plane-surface $-1 -61.241399283006302 0 10.047046076296269 0 0 1 1 0 0 forward_v I I I I #
face $-1 $120 $121 $44 $-1 $122 reversed single #
loop $-1 $-1 $123 $58 #
plane-surface $-1 -33.777825628419976 68.546019840281531 163.55077248522366 1 0 0 0 -0.66913061440640931 -0.74314481823134659 forward_v I I I I #
face $-1 $124 $125 $45 $-1 $126 forward single #
loop $-1 $127 $128 $59 #
cone-surface $-1 -19.476733768812949 37.522233932664783 6.8561989780847199 0 -0.66913061440640931 -0.74314481823134659 2 0 0 1 I I 0 1 2 forward I I I I #
face $-1 $129 $130 $46 $-1 $131 reversed single #
loop $-1 $-1 $132 $60 #
plane-surface $-1 27.463573654586327 68.546019840281531 163.55077248522366 1 0 0 0 -0.66913061440640931 -0.74314481823134659 forward_v I I I I #
face $-1 $133 $134 $47 $-1 $135 forward single #
loop $-1 $136 $137 $61 #
cone-surface $-1 41.764665514193354 37.522233932664783 6.8561989780847199 0 -0.66913061440640931 -0.74314481823134659 2 0 0 1 I I 0 1 2 forward I I I I #
face $-1 $138 $139 $48 $-1 $140 reversed single #
loop $-1 $-1 $141 $62 #
plane-surface $-1 -37.801014412109403 -128.52956707233128 109.21164723698448 -1 0 0 0 -0.62932039886446345 0.77714595512881146 forward_v I I I I #
face $-1 $142 $143 $49 $-1 $144 forward single #
loop $-1 $145 $146 $63 #
cone-surface $-1 -51.791871588437942 -38.057800254484533 7.9331996629454453 0 0.62932039886446345 -0.77714595512881146 1 0 0 1 I I 0 1 1 forward I I I I #
face $-1 $147 $148 $50 $-1 $149 forward single #
loop $-1 $150 $151 $64 #
cone-surface $-1 -46.545300147314741 -38.057800254484533 7.9331996629454453 0 0.62932039886446345 -0.77714595512881146 1 0 0 1 I I 0 1 1 forward I I I I #
face $-1 $152 $153 $51 $-1 $154 forward single #
loop $-1 $155 $156 $65 #
cone-surface $-1 -41.29872870619154 -38.057800254484533 7.9331996629454453 0 0.62932039886446345 -0.77714595512881146 1 0 0 1 I I 0 1 1 forward I I I I #
face $-1 $157 $158 $52 $-1 $159 reversed single #
loop $-1 $-1 $160 $66 #
plane-surface $-1 23.440384870896892 -128.52956707233128 109.21164723698448 -1 0 0 0 -0.62932039886446345 0.77714595512881146 forward_v I I I I #
face $-1 $161 $162 $53 $-1 $163 forward single #
loop $-1 $164 $165 $67 #
cone-surface $-1 9.4495276945683599 -38.057800254484533 7.9331996629454453 0 0.62932039886446345 -0.77714595512881146 1 0 0 1 I I 0 1 1 forward I I I I #
face $-1 $166 $167 $54 $-1 $168 forward single #
loop $-1 $169 $170 $68 #
cone-surface $-1 14.696099135691554 -38.057800254484533 7.9331996629454453 0 0.62932039886446345 -0.77714595512881146 1 0 0 1 I I 0 1 1 forward I I I I #
face $-1 $171 $172 $55 $-1 $173 forward single #
loop $-1 $174 $175 $69 #
cone-surface $-1 19.942670576814763 -38.057800254484533 7.9331996629454453 0 0.62932039886446345 -0.77714595512881146 1 0 0 1 I I 0 1 1 forward I I I I #
face $-1 $176 $177 $42 $-1 $178 reversed single #
loop $-1 $-1 $179 $70 #
plane-surface $-1 0 0 -13.047046076296269 0 0 1 1 0 0 forward_v I I I I #
coedge $-1 $180 $181 $182 $183 forward $71 $-1 #
face $-1 $184 $185 $43 $-1 $186 reversed single #
loop $-1 $-1 $187 $73 #
plane-surface $-1 -55.289585882520072 0 11.547046076296269 -1 0 0 0 0 1 forward_v I I I I #
coedge $-1 $188 $189 $190 $191 forward $74 $-1 #
face $-1 $192 $193 $44 $-1 $194 reversed single #
loop $-1 $-1 $195 $76 #
plane-surface $-1 -19.476733768812949 -21.376051533410262 63.682196833115114 0 0.66913061440640931 0.74314481823134659 1 0 0 forward_v I I I I #
coedge $-1 $196 $197 $198 $199 reversed $77 $-1 #
face $-1 $-1 $200 $45 $-1 $201 forward single #
loop $-1 $202 $203 $79 #
cone-surface $-1 -19.476733768812949 34.96662344036708 4.0179060441207213 0 -0.66913061440640931 -0.74314481823134659 1 0 0 1 I I -0.70710678118654746 0.70710678118654746 1 forward I I I I #
loop $-1 $-1 $204 $59 #
coedge $-1 $128 $128 $205 $206 reversed $80 $-1 #
face $-1 $207 $208 $46 $-1 $209 reversed single #
loop $-1 $-1 $210 $82 #
plane-surface $-1 41.764665514193354 -21.376051533410262 63.682196833115114 0 0.66913061440640931 0.74314481823134659 1 0 0 forward_v I I I I #
coedge $-1 $211 $212 $213 $214 reversed $83 $-1 #
face $-1 $-1 $215 $47 $-1 $216 forward single #
loop $-1 $217 $218 $85 #
cone-surface $-1 41.764665514193354 34.96662344036708 4.0179060441207213 0 -0.66913061440640931 -0.74314481823134659 1 0 0 1 I I -0.70710678118654746 0.70710678118654746 1 forward I I I I #
loop $-1 $-1 $219 $61 #
coedge $-1 $137 $137 $220 $221 reversed $86 $-1 #
face $-1 $222 $223 $48 $-1 $224 forward single #
loop $-1 $-1 $225 $88 #
plane-surface $-1 -46.545300147314741 -43.957448258410778 4.7737803388121307 0 -0.62932039886446345 0.77714595512881146 1 0 0 forward_v I I I I #
coedge $-1 $226 $227 $228 $229 reversed $89 $-1 #
face $-1 $-1 $230 $49 $-1 $231 forward single #
loop $-1 $232 $233 $91 #
cone-surface $-1 -51.791871588437942 -36.951808113336156 6.5674131407722918 0 0.62932039886446345 -0.77714595512881146 0.5 0 0 1 I I -0.70710678118654746 0.70710678118654746 0.5 forward I I I I #
loop $-1 $-1 $234 $63 #
coedge $-1 $146 $146 $235 $236 reversed $92 $-1 #
face $-1 $-1 $237 $50 $-1 $238 forward single #
loop $-1 $239 $240 $94 #
cone-surface $-1 -46.545300147314741 -36.951808113336156 6.5674131407722918 0 0.62932039886446345 -0.77714595512881146 0.5 0 0 1 I I -0.70710678118654746 0.70710678118654746 0.5 forward I I I I #
loop $-1 $-1 $241 $64 #
coedge $-1 $151 $151 $242 $243 reversed $95 $-1 #
face $-1 $-1 $244 $51 $-1 $245 forward single #
loop $-1 $246 $247 $97 #
cone-surface $-1 -41.29872870619154 -36.951808113336156 6.5674131407722918 0 0.62932039886446345 -0.77714595512881146 0.5 0 0 1 I I -0.70710678118654746 0.70710678118654746 0.5 forward I I I I #
loop $-1 $-1 $248 $65 #
coedge $-1 $156 $156 $249 $250 reversed $98 $-1 #
face $-1 $251 $252 $52 $-1 $253 reversed single #
loop $-1 $-1 $254 $100 #
plane-surface $-1 14.696099135691554 -43.957448258410778 4.7737803388121307 0 -0.62932039886446345 0.77714595512881146 1 0 0 forward_v I I I I #
coedge $-1 $255 $256 $257 $258 reversed $101 $-1 #
face $-1 $-1 $259 $53 $-1 $260 forward single #
loop $-1 $261 $262 $103 #
cone-surface $-1 9.4495276945683599 -36.951808113336156 6.5674131407722918 0 0.62932039886446345 -0.77714595512881146 0.5 0 0 1 I I -0.70710678118654746 0.70710678118654746 0.5 forward I I I I #
loop $-1 $-1 $263 $67 #
coedge $-1 $165 $165 $264 $265 reversed $104 $-1 #
face $-1 $-1 $266 $54 $-1 $267 forward single #
loop $-1 $268 $269 $106 #
cone-surface $-1 14.696099135691554 -36.951808113336156 6.5674131407722918 0 0.62932039886446345 -0.77714595512881146 0.5 0 0 1 I I -0.70710678118654746 0.70710678118654746 0.5 forward I I I I #
loop $-1 $-1 $270 $68 #
coedge $-1 $170 $170 $271 $272 reversed $107 $-1 #
face $-1 $-1 $273 $55 $-1 $274 forward single #
loop $-1 $275 $276 $109 #
cone-surface $-1 19.942670576814763 -36.951808113336156 6.5674131407722918 0 0.62932039886446345 -0.77714595512881146 0.5 0 0 1 I I -0.70710678118654746 0.70710678118654746 0.5 forward I I I I #
loop $-1 $-1 $277 $69 #
coedge $-1 $175 $175 $278 $279 reversed $110 $-1 #
face $-1 $280 $281 $42 $-1 $282 reversed single #
loop $-1 $-1 $283 $112 #
plane-surface $-1 0 -43.957448258410771 0 0 1 0 0 0 1 forward_v I I I I #
coedge $-1 $284 $285 $286 $287 forward $113 $-1 #
coedge $-1 $288 $115 $289 $290 forward $71 $-1 #
coedge $-1 $115 $288 $291 $292 forward $71 $-1 #
coedge $-1 $293 $294 $115 $183 reversed $295 $-1 #
edge $-1 $296 -43.957448258410771 $297 43.957448258410771 $182 $298 forward 7 unknown #
face $-1 $299 $300 $43 $-1 $301 reversed single #
loop $-1 $-1 $302 $116 #
plane-surface $-1 0 43.957448258410771 0 0 -1 0 0 0 -1 forward_v I I I I #
coedge $-1 $190 $303 $304 $305 reversed $117 $-1 #
coedge $-1 $306 $119 $307 $308 reversed $74 $-1 #
coedge $-1 $119 $306 $309 $310 reversed $74 $-1 #
coedge $-1 $311 $187 $119 $191 reversed $117 $-1 #
edge $-1 $312 -43.957448258410771 $313 43.957448258410771 $190 $314 forward 7 unknown #
face $-1 $315 $316 $44 $-1 $317 forward single #
loop $-1 $-1 $318 $120 #
plane-surface $-1 -5.1756419092059218 68.546019840281531 163.55077248522366 -1 0 0 0 0.66913061440640931 0.74314481823134659 forward_v I I I I #
coedge $-1 $319 $320 $321 $322 reversed $121 $-1 #
coedge $-1 $197 $123 $323 $324 reversed $77 $-1 #
coedge $-1 $123 $196 $319 $325 reversed $77 $-1 #
coedge $-1 $321 $326 $123 $199 forward $316 $-1 #
edge $-1 $327 -9.6844383382700059 $328 -0.58696944256057293 $198 $329 forward 7 unknown #
loop $-1 $-1 $205 $124 #
plane-surface $-1 -19.476733768812949 -21.376051533410262 63.682196833115114 0 0.66913061440640931 0.74314481823134659 1 0 0 forward_v I I I I #
loop $-1 $-1 $330 $79 #
coedge $-1 $203 $203 $204 $331 reversed $125 $-1 #
coedge $-1 $204 $204 $203 $331 forward $127 $-1 #
coedge $-1 $205 $205 $128 $206 forward $200 $-1 #
edge $-1 $332 1.2614162841899724e-016 $332 6.2831853071796004 $205 $333 forward 7 unknown #
face $-1 $334 $335 $46 $-1 $336 forward single #
loop $-1 $-1 $337 $129 #
plane-surface $-1 56.06575737380038 68.546019840281531 163.55077248522366 -1 0 0 0 0.66913061440640931 0.74314481823134659 forward_v I I I I #
coedge $-1 $338 $339 $340 $341 reversed $130 $-1 #
coedge $-1 $212 $132 $342 $343 reversed $83 $-1 #
coedge $-1 $132 $211 $338 $344 reversed $83 $-1 #
coedge $-1 $340 $345 $132 $214 forward $335 $-1 #
edge $-1 $346 -9.6844383382700059 $347 -0.58696944256057293 $213 $348 forward 7 unknown #
loop $-1 $-1 $220 $133 #
plane-surface $-1 41.764665514193354 -21.376051533410262 63.682196833115114 0 0.66913061440640931 0.74314481823134659 1 0 0 forward_v I I I I #
loop $-1 $-1 $349 $85 #
coedge $-1 $218 $218 $219 $350 reversed $134 $-1 #
coedge $-1 $219 $219 $218 $350 forward $136 $-1 #
coedge $-1 $220 $220 $137 $221 forward $215 $-1 #
edge $-1 $351 1.2614162841899724e-016 $351 6.2831853071796004 $220 $352 forward 7 unknown #
face $-1 $353 $354 $48 $-1 $355 forward single #
loop $-1 $-1 $356 $138 #
plane-surface $-1 -55.289585882520072 0 11.547046076296269 -1 0 0 0 0 1 forward_v I I I I #
coedge $-1 $357 $358 $359 $360 reversed $139 $-1 #
coedge $-1 $227 $141 $361 $362 reversed $89 $-1 #
coedge $-1 $141 $226 $357 $363 reversed $89 $-1 #
coedge $-1 $359 $364 $141 $229 forward $354 $-1 #
edge $-1 $365 20.307335277754866 $366 30.52396740217501 $228 $367 forward 7 unknown #
loop $-1 $-1 $235 $142 #
plane-surface $-1 -46.545300147314741 -43.957448258410778 4.7737803388121307 0 -0.62932039886446345 0.77714595512881146 1 0 0 forward_v I I I I #
loop $-1 $-1 $368 $91 #
coedge $-1 $233 $233 $234 $369 reversed $143 $-1 #
coedge $-1 $234 $234 $233 $369 forward $145 $-1 #
coedge $-1 $235 $235 $146 $236 forward $230 $-1 #
edge $-1 $370 -3.4212266271546477e-015 $370 6.2831853071795969 $235 $371 forward 7 unknown #
loop $-1 $-1 $242 $147 #
plane-surface $-1 -46.545300147314741 -43.957448258410778 4.7737803388121307 0 -0.62932039886446345 0.77714595512881146 1 0 0 forward_v I I I I #
loop $-1 $-1 $372 $94 #
coedge $-1 $240 $240 $241 $373 reversed $148 $-1 #
coedge $-1 $241 $241 $240 $373 forward $150 $-1 #
coedge $-1 $242 $242 $151 $243 forward $237 $-1 #
edge $-1 $374 -3.4212266271546477e-015 $374 6.2831853071795969 $242 $375 forward 7 unknown #
loop $-1 $-1 $249 $152 #
plane-surface $-1 -46.545300147314741 -43.957448258410778 4.7737803388121307 0 -0.62932039886446345 0.77714595512881146 1 0 0 forward_v I I I I #
loop $-1 $-1 $376 $97 #
coedge $-1 $247 $247 $248 $377 reversed $153 $-1 #
coedge $-1 $248 $248 $247 $377 forward $155 $-1 #
coedge $-1 $249 $249 $156 $250 forward $244 $-1 #
edge $-1 $378 -3.4212266271546477e-015 $378 6.2831853071795969 $249 $379 forward 7 unknown #
face $-1 $380 $381 $52 $-1 $382 reversed single #
loop $-1 $-1 $383 $157 #
plane-surface $-1 5.9518134004862162 -128.52956707233128 109.21164723698448 1 0 0 0 0.62932039886446345 -0.77714595512881146 forward_v I I I I #
coedge $-1 $384 $385 $386 $387 reversed $158 $-1 #
coedge $-1 $256 $160 $388 $389 reversed $101 $-1 #
coedge $-1 $160 $255 $384 $390 reversed $101 $-1 #
coedge $-1 $386 $391 $160 $258 forward $392 $-1 #
edge $-1 $393 20.307335277754866 $394 30.52396740217501 $257 $395 forward 7 unknown #
loop $-1 $-1 $264 $161 #
plane-surface $-1 14.696099135691554 -43.957448258410778 4.7737803388121307 0 -0.62932039886446345 0.77714595512881146 1 0 0 forward_v I I I I #
loop $-1 $-1 $396 $103 #
coedge $-1 $262 $262 $263 $397 reversed $162 $-1 #
coedge $-1 $263 $263 $262 $397 forward $164 $-1 #
coedge $-1 $264 $264 $165 $265 forward $259 $-1 #
edge $-1 $398 -3.4212266271546477e-015 $398 6.2831853071795969 $264 $399 forward 7 unknown #
loop $-1 $-1 $271 $166 #
plane-surface $-1 14.696099135691554 -43.957448258410778 4.7737803388121307 0 -0.62932039886446345 0.77714595512881146 1 0 0 forward_v I I I I #
loop $-1 $-1 $400 $106 #
coedge $-1 $269 $269 $270 $401 reversed $167 $-1 #
coedge $-1 $270 $270 $269 $401 forward $169 $-1 #
coedge $-1 $271 $271 $170 $272 forward $266 $-1 #
edge $-1 $402 -3.4212266271546477e-015 $402 6.2831853071795969 $271 $403 forward 7 unknown #
loop $-1 $-1 $278 $171 #
plane-surface $-1 14.696099135691554 -43.957448258410778 4.7737803388121307 0 -0.62932039886446345 0.77714595512881146 1 0 0 forward_v I I I I #
loop $-1 $-1 $404 $109 #
coedge $-1 $276 $276 $277 $405 reversed $172 $-1 #
coedge $-1 $277 $277 $276 $405 forward $174 $-1 #
coedge $-1 $278 $278 $175 $279 forward $273 $-1 #
edge $-1 $406 -3.4212266271546477e-015 $406 6.2831853071795969 $278 $407 forward 7 unknown #
face $-1 $408 $409 $42 $-1 $410 reversed single #
loop $-1 $-1 $411 $176 #
plane-surface $-1 -67.193212683492533 0 0 1 0 0 0 0 -1 forward_v I I I I #
coedge $-1 $412 $291 $413 $414 forward $177 $-1 #
coedge $-1 $415 $179 $412 $416 forward $113 $-1 #
coedge $-1 $179 $415 $417 $418 forward $113 $-1 #
coedge $-1 $294 $293 $179 $287 reversed $295 $-1 #
edge $-1 $419 -43.957448258410771 $420 43.957448258410771 $286 $421 forward 7 unknown #
coedge $-1 $181 $180 $422 $423 forward $71 $-1 #
coedge $-1 $424 $425 $180 $290 reversed $409 $-1 #
edge $-1 $297 -67.193212683492533 $426 67.193212683492533 $289 $427 forward 7 unknown #
coedge $-1 $283 $428 $181 $292 reversed $177 $-1 #
edge $-1 $429 -67.193212683492533 $296 67.193212683492533 $291 $430 forward 7 unknown #
coedge $-1 $286 $182 $428 $431 forward $295 $-1 #
coedge $-1 $182 $286 $424 $432 reversed $295 $-1 #
loop $-1 $-1 $293 $408 #
vertex $-1 $183 $433 #
vertex $-1 $183 $434 #
straight-curve $-1 67.193212683492533 0 13.047046076296269 0 1 0 I I #
face $-1 $435 $436 $43 $-1 $437 forward single #
loop $-1 $-1 $438 $184 #
plane-surface $-1 -67.193212683492533 0 0 1 0 0 0 0 -1 forward_v I I I I #
coedge $-1 $309 $439 $311 $440 forward $185 $-1 #
coedge $-1 $187 $311 $441 $442 reversed $117 $-1 #
coedge $-1 $443 $307 $187 $305 forward $444 $-1 #
edge $-1 $313 4.2735230381481344 $445 7.2735230381481344 $304 $446 forward 7 unknown #
coedge $-1 $189 $188 $438 $447 reversed $74 $-1 #
coedge $-1 $304 $448 $188 $308 forward $444 $-1 #
edge $-1 $449 -36.572513041989382 $313 -24.668886241016921 $307 $450 forward 7 unknown #
coedge $-1 $451 $302 $189 $310 forward $185 $-1 #
edge $-1 $312 24.668886241016921 $452 36.572513041989382 $309 $453 forward 7 unknown #
coedge $-1 $303 $190 $302 $440 reversed $117 $-1 #
vertex $-1 $310 $454 #
vertex $-1 $308 $455 #
straight-curve $-1 -55.289585882520072 0 10.047046076296269 0 -1 0 I I #
face $-1 $-1 $456 $44 $-1 $457 reversed single #
loop $-1 $-1 $198 $192 #
plane-surface $-1 0 0 13.047046076296269 0 0 1 1 0 0 forward_v I I I I #
coedge $-1 $458 $459 $460 $461 reversed $193 $-1 #
coedge $-1 $462 $195 $197 $325 forward $121 $-1 #
coedge $-1 $195 $462 $458 $463 forward $121 $-1 #
coedge $-1 $460 $198 $195 $322 forward $316 $-1 #
edge $-1 $328 -24.039458744013501 $464 4.5627249752005525 $321 $465 forward 7 unknown #
coedge $-1 $466 $467 $196 $324 forward $456 $-1 #
edge $-1 $468 -76.919738131273434 $327 -68.728340166315562 $323 $469 forward 7 unknown #
edge $-1 $328 75.673044494814604 $468 87.914896516821585 $197 $470 forward 7 unknown #
coedge $-1 $198 $460 $466 $471 forward $316 $-1 #
vertex $-1 $324 $472 #
vertex $-1 $199 $473 #
straight-curve $-1 -33.777825628419976 34.273009920140765 13.047046076296269 0 -1 0 I I #
coedge $-1 $330 $330 $-1 $474 reversed $202 $-1 #
edge $-1 $475 0 $475 6.2831853071796004 $203 $476 forward 7 unknown #
vertex $-1 $206 $477 #
ellipse-curve $-1 -19.476733768812949 39.408713810556044 8.9513470938173327 0 0.66913061440640931 0.74314481823134659 2 0 0 1 I I #
face $-1 $-1 $478 $46 $-1 $479 reversed single #
loop $-1 $-1 $213 $207 #
plane-surface $-1 0 0 13.047046076296269 0 0 1 1 0 0 forward_v I I I I #
coedge $-1 $480 $481 $482 $483 reversed $208 $-1 #
coedge $-1 $484 $210 $212 $344 forward $130 $-1 #
coedge $-1 $210 $484 $480 $485 forward $130 $-1 #
coedge $-1 $482 $213 $210 $341 forward $335 $-1 #
edge $-1 $347 6.5812408974896499 $486 35.183424616703704 $340 $487 forward 7 unknown #
coedge $-1 $488 $489 $211 $343 forward $478 $-1 #
edge $-1 $490 -76.919738131273434 $346 -68.728340166315562 $342 $491 forward 7 unknown #
edge $-1 $347 75.673044494814604 $490 87.914896516821585 $212 $492 forward 7 unknown #
coedge $-1 $213 $482 $488 $493 forward $335 $-1 #
vertex $-1 $214 $494 #
vertex $-1 $214 $495 #
straight-curve $-1 27.463573654586327 34.273009920140765 13.047046076296269 0 -1 0 I I #
coedge $-1 $349 $349 $-1 $496 reversed $217 $-1 #
edge $-1 $497 0 $497 6.2831853071796004 $218 $498 forward 7 unknown #
vertex $-1 $221 $499 #
ellipse-curve $-1 41.764665514193354 39.408713810556044 8.9513470938173327 0 0.66913061440640931 0.74314481823134659 2 0 0 1 I I #
face $-1 $-1 $500 $48 $-1 $501 reversed single #
loop $-1 $-1 $359 $222 #
plane-surface $-1 0 0 13.047046076296269 0 0 1 1 0 0 forward_v I I I I #
coedge $-1 $502 $503 $358 $504 reversed $223 $-1 #
coedge $-1 $505 $225 $227 $363 forward $139 $-1 #
coedge $-1 $225 $505 $356 $504 forward $139 $-1 #
coedge $-1 $506 $228 $225 $360 forward $354 $-1 #
edge $-1 $366 14.528364338452032 $507 32.016935808862712 $359 $508 forward 7 unknown #
coedge $-1 $509 $510 $226 $362 forward $500 $-1 #
edge $-1 $511 -49.8320432796801 $365 -41.558777542195969 $361 $512 forward 7 unknown #
edge $-1 $366 -13.146349224357413 $511 -8.8756469145121664e-015 $227 $513 forward 7 unknown #
coedge $-1 $228 $506 $509 $514 forward $354 $-1 #
vertex $-1 $362 $515 #
vertex $-1 $229 $516 #
straight-curve $-1 -37.801014412109403 -64.264783536165638 13.047046076296269 0 1 0 I I #
coedge $-1 $368 $368 $-1 $517 reversed $232 $-1 #
edge $-1 $518 0 $518 6.2831853071796004 $233 $519 forward 7 unknown #
vertex $-1 $236 $520 #
ellipse-curve $-1 -51.791871588437942 -38.849132196200692 8.9104132075542068 0 -0.62932039886446345 0.77714595512881146 1 0 0 1 I I #
coedge $-1 $372 $372 $-1 $521 reversed $239 $-1 #
edge $-1 $522 0 $522 6.2831853071796004 $240 $523 forward 7 unknown #
vertex $-1 $243 $524 #
ellipse-curve $-1 -46.545300147314741 -38.849132196200692 8.9104132075542068 0 -0.62932039886446345 0.77714595512881146 1 0 0 1 I I #
coedge $-1 $376 $376 $-1 $525 reversed $246 $-1 #
edge $-1 $526 0 $526 6.2831853071796004 $247 $527 forward 7 unknown #
vertex $-1 $250 $528 #
ellipse-curve $-1 -41.29872870619154 -38.849132196200692 8.9104132075542068 0 -0.62932039886446345 0.77714595512881146 1 0 0 1 I I #
face $-1 $-1 $392 $52 $-1 $529 forward single #
loop $-1 $-1 $530 $251 #
plane-surface $-1 0 -43.957448258410771 0 0 1 0 0 0 1 forward_v I I I I #
coedge $-1 $531 $532 $533 $534 reversed $252 $-1 #
coedge $-1 $535 $254 $256 $390 forward $158 $-1 #
coedge $-1 $254 $535 $531 $536 forward $158 $-1 #
coedge $-1 $533 $257 $254 $387 forward $392 $-1 #
edge $-1 $394 -16.092335303051115 $537 1.3962361673595609 $386 $538 forward 7 unknown #
coedge $-1 $539 $540 $255 $389 forward $381 $-1 #
edge $-1 $541 -49.8320432796801 $393 -41.558777542195969 $388 $542 forward 7 unknown #
edge $-1 $394 -13.146349224357413 $541 -8.8756469145121664e-015 $256 $543 forward 7 unknown #
coedge $-1 $257 $533 $539 $544 forward $392 $-1 #
loop $-1 $-1 $533 $380 #
vertex $-1 $389 $545 #
vertex $-1 $258 $546 #
straight-curve $-1 23.440384870896892 -64.264783536165638 13.047046076296269 0 1 0 I I #
coedge $-1 $396 $396 $-1 $547 reversed $261 $-1 #
edge $-1 $548 0 $548 6.2831853071796004 $262 $549 forward 7 unknown #
vertex $-1 $265 $550 #
ellipse-curve $-1 9.4495276945683599 -38.849132196200692 8.9104132075542068 0 -0.62932039886446345 0.77714595512881146 1 0 0 1 I I #
coedge $-1 $400 $400 $-1 $551 reversed $268 $-1 #
edge $-1 $552 0 $552 6.2831853071796004 $269 $553 forward 7 unknown #
vertex $-1 $272 $554 #
ellipse-curve $-1 14.696099135691554 -38.849132196200692 8.9104132075542068 0 -0.62932039886446345 0.77714595512881146 1 0 0 1 I I #
coedge $-1 $404 $404 $-1 $555 reversed $275 $-1 #
edge $-1 $556 0 $556 6.2831853071796004 $276 $557 forward 7 unknown #
vertex $-1 $279 $558 #
ellipse-curve $-1 19.942670576814763 -38.849132196200692 8.9104132075542068 0 -0.62932039886446345 0.77714595512881146 1 0 0 1 I I #
face $-1 $-1 $295 $42 $-1 $559 reversed single #
loop $-1 $-1 $424 $280 #
plane-surface $-1 0 43.957448258410771 0 0 -1 0 0 0 -1 forward_v I I I I #
coedge $-1 $560 $422 $425 $561 forward $281 $-1 #
coedge $-1 $428 $283 $284 $416 reversed $177 $-1 #
coedge $-1 $422 $560 $283 $414 reversed $281 $-1 #
edge $-1 $429 -13.047046076296269 $562 13.047046076296269 $413 $563 forward 7 unknown #
coedge $-1 $285 $284 $560 $564 forward $113 $-1 #
edge $-1 $420 -67.193212683492533 $562 67.193212683492533 $412 $565 forward 7 unknown #
coedge $-1 $425 $424 $285 $418 reversed $409 $-1 #
edge $-1 $566 -67.193212683492533 $419 67.193212683492533 $417 $567 forward 7 unknown #
vertex $-1 $287 $568 #
vertex $-1 $431 $569 #
straight-curve $-1 67.193212683492533 0 -13.047046076296269 0 -1 0 I I #
coedge $-1 $411 $413 $288 $423 reversed $281 $-1 #
edge $-1 $426 -43.957448258410771 $429 43.957448258410771 $422 $570 forward 7 unknown #
coedge $-1 $417 $289 $294 $432 forward $409 $-1 #
coedge $-1 $289 $417 $411 $561 reversed $409 $-1 #
vertex $-1 $290 $571 #
straight-curve $-1 0 43.957448258410771 13.047046076296269 -1 0 0 I I #
coedge $-1 $291 $412 $293 $431 reversed $177 $-1 #
vertex $-1 $423 $572 #
straight-curve $-1 0 -43.957448258410771 13.047046076296269 1 0 0 I I #
edge $-1 $296 -13.047046076296269 $420 13.047046076296269 $293 $573 forward 7 unknown #
edge $-1 $297 -13.047046076296269 $419 13.047046076296269 $294 $574 forward 7 unknown #
point $-1 67.193212683492533 -43.957448258410771 13.047046076296269 #
point $-1 67.193212683492533 43.957448258410771 13.047046076296269 #
face $-1 $-1 $444 $43 $-1 $575 reversed single #
loop $-1 $-1 $441 $299 #
plane-surface $-1 0 0 13.047046076296269 0 0 1 1 0 0 forward_v I I I I #
coedge $-1 $576 $577 $306 $447 forward $300 $-1 #
coedge $-1 $302 $451 $578 $579 reversed $185 $-1 #
edge $-1 $580 -7.2735230381481344 $312 -4.2735230381481344 $302 $581 forward 7 unknown #
coedge $-1 $578 $582 $303 $442 forward $436 $-1 #
edge $-1 $445 -43.957448258410771 $580 43.957448258410771 $441 $583 forward 7 unknown #
coedge $-1 $448 $304 $582 $584 reversed $444 $-1 #
loop $-1 $-1 $304 $435 #
vertex $-1 $305 $585 #
straight-curve $-1 -55.289585882520072 -43.957448258410771 5.7735230381481344 0 0 1 I I #
edge $-1 $452 -43.957448258410771 $449 43.957448258410771 $438 $586 forward 7 unknown #
coedge $-1 $307 $443 $576 $587 forward $444 $-1 #
vertex $-1 $447 $588 #
straight-curve $-1 -30.620699641503151 -43.957448258410771 10.047046076296269 1 0 0 I I #
coedge $-1 $439 $309 $577 $589 reversed $185 $-1 #
vertex $-1 $447 $590 #
straight-curve $-1 -30.620699641503151 43.957448258410771 10.047046076296269 -1 0 0 I I #
point $-1 -55.289585882520072 43.957448258410771 10.047046076296269 #
point $-1 -55.289585882520072 -43.957448258410771 10.047046076296269 #
loop $-1 $-1 $323 $315 #
plane-surface $-1 0 43.957448258410771 0 0 -1 0 0 0 -1 forward_v I I I I #
coedge $-1 $459 $318 $320 $463 reversed $193 $-1 #
coedge $-1 $318 $458 $591 $592 reversed $193 $-1 #
coedge $-1 $326 $321 $318 $461 forward $316 $-1 #
edge $-1 $464 0.58696944256057293 $593 9.6844383382700059 $460 $594 forward 7 unknown #
coedge $-1 $320 $319 $467 $595 reversed $121 $-1 #
edge $-1 $596 -87.914896516821585 $464 -75.673044494814604 $458 $597 forward 7 unknown #
vertex $-1 $322 $598 #
straight-curve $-1 -9.7383668844064744 34.859979362701345 13.047046076296269 1 0 0 I I #
coedge $-1 $591 $323 $326 $471 reversed $456 $-1 #
coedge $-1 $323 $591 $462 $595 forward $456 $-1 #
vertex $-1 $324 $599 #
straight-curve $-1 -33.777825628419976 43.957448258410771 81.77538624261183 0 0 1 I I #
straight-curve $-1 -33.777825628419976 -21.376051533410262 63.682196833115114 0 0.74314481823134659 -0.66913061440640931 I I #
edge $-1 $593 5.1756419092059218 $327 33.777825628419976 $466 $600 forward 7 unknown #
point $-1 -33.777825628419976 43.957448258410771 13.047046076296269 #
point $-1 -33.777825628419976 34.859979362701338 13.047046076296269 #
edge $-1 $601 1 $601 0 $330 $-1 forward 7 unknown #
vertex $-1 $331 $602 #
ellipse-curve $-1 -19.476733768812949 35.635754054773486 4.761050862352068 0 0.66913061440640931 0.74314481823134659 2 0 0 1 I I #
point $-1 -17.476733768812949 39.40871381055608 8.9513470938173718 #
loop $-1 $-1 $342 $334 #
plane-surface $-1 0 43.957448258410771 0 0 -1 0 0 0 -1 forward_v I I I I #
coedge $-1 $481 $337 $339 $485 reversed $208 $-1 #
coedge $-1 $337 $480 $603 $604 reversed $208 $-1 #
coedge $-1 $345 $340 $337 $483 forward $335 $-1 #
edge $-1 $486 0.58696944256057293 $605 9.6844383382700059 $482 $606 forward 7 unknown #
coedge $-1 $339 $338 $489 $607 reversed $130 $-1 #
edge $-1 $608 -87.914896516821585 $486 -75.673044494814604 $480 $609 forward 7 unknown #
vertex $-1 $341 $610 #
straight-curve $-1 20.882332757096677 34.859979362701345 13.047046076296269 1 0 0 I I #
coedge $-1 $603 $342 $345 $493 reversed $478 $-1 #
coedge $-1 $342 $603 $484 $607 forward $478 $-1 #
vertex $-1 $343 $611 #
straight-curve $-1 27.463573654586327 43.957448258410771 81.77538624261183 0 0 1 I I #
straight-curve $-1 27.463573654586327 -21.376051533410262 63.682196833115114 0 0.74314481823134659 -0.66913061440640931 I I #
edge $-1 $605 -56.06575737380038 $346 -27.463573654586327 $488 $612 forward 7 unknown #
point $-1 27.463573654586327 43.957448258410771 13.047046076296269 #
point $-1 27.463573654586327 34.859979362701338 13.047046076296269 #
edge $-1 $613 1 $613 0 $349 $-1 forward 7 unknown #
vertex $-1 $350 $614 #
ellipse-curve $-1 41.764665514193354 35.635754054773486 4.761050862352068 0 0.66913061440640931 0.74314481823134659 2 0 0 1 I I #
point $-1 43.764665514193354 39.40871381055608 8.9513470938173718 #
loop $-1 $-1 $361 $353 #
plane-surface $-1 0 -43.957448258410771 0 0 1 0 0 0 1 forward_v I I I I #
coedge $-1 $503 $356 $615 $616 reversed $223 $-1 #
coedge $-1 $356 $502 $506 $617 reversed $223 $-1 #
edge $-1 $618 8.8756469145121664e-015 $507 13.146349224357413 $356 $619 forward 7 unknown #
coedge $-1 $358 $357 $510 $620 reversed $139 $-1 #
coedge $-1 $364 $359 $503 $617 forward $354 $-1 #
vertex $-1 $617 $621 #
straight-curve $-1 -23.27265007365737 -33.740816133990627 13.047046076296269 -1 0 0 I I #
coedge $-1 $615 $361 $364 $514 reversed $500 $-1 #
coedge $-1 $361 $615 $505 $620 forward $500 $-1 #
vertex $-1 $362 $622 #
straight-curve $-1 -37.801014412109403 -43.957448258410771 54.605823618492238 0 0 1 I I #
straight-curve $-1 -37.801014412109403 -43.957448258410778 4.7737803388121307 0 -0.77714595512881146 -0.62932039886446345 I I #
edge $-1 $623 -55.289585882520072 $365 -37.801014412109403 $509 $624 forward 7 unknown #
point $-1 -37.801014412109403 -43.957448258410771 13.047046076296269 #
point $-1 -37.801014412109403 -33.740816133990627 13.047046076296269 #
edge $-1 $625 1 $625 0 $368 $-1 forward 7 unknown #
vertex $-1 $369 $626 #
ellipse-curve $-1 -51.791871588437942 -37.266468312768389 6.9559861183366971 0 -0.62932039886446345 0.77714595512881146 1 0 0 1 I I #
point $-1 -50.791871588437942 -38.849132196200685 8.9104132075541926 #
edge $-1 $627 1 $627 0 $372 $-1 forward 7 unknown #
vertex $-1 $373 $628 #
ellipse-curve $-1 -46.545300147314741 -37.266468312768389 6.9559861183366971 0 -0.62932039886446345 0.77714595512881146 1 0 0 1 I I #
point $-1 -45.545300147314741 -38.849132196200685 8.9104132075541926 #
edge $-1 $629 1 $629 0 $376 $-1 forward 7 unknown #
vertex $-1 $377 $630 #
ellipse-curve $-1 -41.29872870619154 -37.266468312768389 6.9559861183366971 0 -0.62932039886446345 0.77714595512881146 1 0 0 1 I I #
point $-1 -40.29872870619154 -38.849132196200685 8.9104132075541926 #
plane-surface $-1 0 0 13.047046076296269 0 0 1 1 0 0 forward_v I I I I #
coedge $-1 $540 $539 $532 $631 forward $381 $-1 #
coedge $-1 $532 $383 $385 $536 reversed $252 $-1 #
coedge $-1 $383 $531 $530 $631 reversed $252 $-1 #
coedge $-1 $391 $386 $383 $534 forward $392 $-1 #
edge $-1 $537 -30.52396740217501 $632 -20.307335277754866 $533 $633 forward 7 unknown #
coedge $-1 $385 $384 $540 $634 reversed $158 $-1 #
edge $-1 $635 8.8756469145121664e-015 $537 13.146349224357413 $531 $636 forward 7 unknown #
vertex $-1 $387 $637 #
straight-curve $-1 7.3480495678457771 -33.740816133990627 13.047046076296269 -1 0 0 I I #
coedge $-1 $530 $388 $391 $544 reversed $381 $-1 #
coedge $-1 $388 $530 $535 $634 forward $381 $-1 #
vertex $-1 $389 $638 #
straight-curve $-1 23.440384870896892 -43.957448258410771 54.605823618492238 0 0 1 I I #
straight-curve $-1 23.440384870896892 -43.957448258410778 4.7737803388121307 0 -0.77714595512881146 -0.62932039886446345 I I #
edge $-1 $632 5.9518134004862162 $393 23.440384870896892 $539 $639 forward 7 unknown #
point $-1 23.440384870896892 -43.957448258410771 13.047046076296269 #
point $-1 23.440384870896892 -33.740816133990627 13.047046076296269 #
edge $-1 $640 1 $640 0 $396 $-1 forward 7 unknown #
vertex $-1 $397 $641 #
ellipse-curve $-1 9.4495276945683599 -37.266468312768389 6.9559861183366971 0 -0.62932039886446345 0.77714595512881146 1 0 0 1 I I #
point $-1 10.44952769456836 -38.849132196200685 8.9104132075541926 #
edge $-1 $642 1 $642 0 $400 $-1 forward 7 unknown #
vertex $-1 $401 $643 #
ellipse-curve $-1 14.696099135691554 -37.266468312768389 6.9559861183366971 0 -0.62932039886446345 0.77714595512881146 1 0 0 1 I I #
point $-1 15.696099135691554 -38.849132196200685 8.9104132075541926 #
edge $-1 $644 1 $644 0 $404 $-1 forward 7 unknown #
vertex $-1 $405 $645 #
ellipse-curve $-1 19.942670576814763 -37.266468312768389 6.9559861183366971 0 -0.62932039886446345 0.77714595512881146 1 0 0 1 I I #
point $-1 20.942670576814763 -38.849132196200685 8.9104132075541926 #
plane-surface $-1 67.193212683492533 0 0 -1 0 0 0 0 1 forward_v I I I I #
coedge $-1 $413 $411 $415 $564 reversed $281 $-1 #
edge $-1 $426 -13.047046076296269 $566 13.047046076296269 $425 $646 forward 7 unknown #
vertex $-1 $564 $647 #
straight-curve $-1 -67.193212683492533 -43.957448258410771 0 0 0 -1 I I #
edge $-1 $562 -43.957448258410771 $566 43.957448258410771 $560 $648 forward 7 unknown #
straight-curve $-1 0 -43.957448258410771 -13.047046076296269 -1 0 0 I I #
vertex $-1 $418 $649 #
straight-curve $-1 0 43.957448258410771 -13.047046076296269 1 0 0 I I #
point $-1 67.193212683492533 43.957448258410771 -13.047046076296269 #
point $-1 67.193212683492533 -43.957448258410771 -13.047046076296269 #
straight-curve $-1 -67.193212683492533 0 13.047046076296269 0 -1 0 I I #
point $-1 -67.193212683492533 43.957448258410771 13.047046076296269 #
point $-1 -67.193212683492533 -43.957448258410771 13.047046076296269 #
straight-curve $-1 67.193212683492533 -43.957448258410771 0 0 0 -1 I I #
straight-curve $-1 67.193212683492533 43.957448258410771 0 0 0 -1 I I #
plane-surface $-1 0 -43.957448258410771 0 0 1 0 0 0 1 forward_v I I I I #
coedge $-1 $650 $438 $448 $587 reversed $300 $-1 #
coedge $-1 $438 $650 $451 $589 forward $300 $-1 #
coedge $-1 $651 $441 $439 $579 forward $436 $-1 #
edge $-1 $580 55.289585882520072 $652 67.193212683492533 $439 $653 forward 7 unknown #
vertex $-1 $579 $654 #
straight-curve $-1 -55.289585882520072 43.957448258410771 5.7735230381481344 0 0 -1 I I #
coedge $-1 $441 $651 $443 $584 forward $436 $-1 #
straight-curve $-1 -55.289585882520072 0 13.047046076296269 0 1 0 I I #
edge $-1 $655 -67.193212683492533 $445 -55.289585882520072 $443 $656 forward 7 unknown #
point $-1 -55.289585882520072 -43.957448258410771 13.047046076296269 #
straight-curve $-1 -67.193212683492533 0 10.047046076296269 0 -1 0 I I #
edge $-1 $655 -13.047046076296269 $449 -10.047046076296269 $576 $657 forward 7 unknown #
point $-1 -67.193212683492533 -43.957448258410771 10.047046076296269 #
edge $-1 $652 -13.047046076296269 $452 -10.047046076296269 $451 $658 forward 7 unknown #
point $-1 -67.193212683492533 43.957448258410771 10.047046076296269 #
coedge $-1 $467 $466 $459 $592 forward $456 $-1 #
edge $-1 $593 68.728340166315562 $596 76.919738131273434 $591 $659 forward 7 unknown #
vertex $-1 $471 $660 #
straight-curve $-1 -5.1756419092059218 34.273009920140765 13.047046076296269 0 1 0 I I #
edge $-1 $596 -4.5627249752005525 $468 24.039458744013501 $467 $661 forward 7 unknown #
vertex $-1 $595 $662 #
straight-curve $-1 -5.1756419092059218 -21.376051533410262 63.682196833115114 0 -0.74314481823134659 0.66913061440640931 I I #
point $-1 -5.1756419092059218 34.859979362701338 13.047046076296269 #
point $-1 -33.777825628419976 43.957448258410764 4.8556481113383967 #
straight-curve $-1 0 43.957448258410771 13.047046076296269 -1 0 0 I I #
vertex $-1 $474 $663 #
point $-1 -17.476733768812949 35.635754054773486 4.761050862352068 #
coedge $-1 $489 $488 $481 $604 forward $478 $-1 #
edge $-1 $605 68.728340166315562 $608 76.919738131273434 $603 $664 forward 7 unknown #
vertex $-1 $493 $665 #
straight-curve $-1 56.06575737380038 34.273009920140765 13.047046076296269 0 1 0 I I #
edge $-1 $608 -35.183424616703704 $490 -6.5812408974896499 $489 $666 forward 7 unknown #
vertex $-1 $607 $667 #
straight-curve $-1 56.06575737380038 -21.376051533410262 63.682196833115114 0 -0.74314481823134659 0.66913061440640931 I I #
point $-1 56.06575737380038 34.859979362701338 13.047046076296269 #
point $-1 27.463573654586327 43.957448258410764 4.8556481113383967 #
straight-curve $-1 0 43.957448258410771 13.047046076296269 -1 0 0 I I #
vertex $-1 $496 $668 #
point $-1 43.764665514193354 35.635754054773486 4.761050862352068 #
coedge $-1 $510 $509 $502 $616 forward $500 $-1 #
edge $-1 $623 41.558777542195969 $618 49.8320432796801 $615 $669 forward 7 unknown #
edge $-1 $507 33.740816133990627 $623 43.957448258410771 $506 $670 forward 7 unknown #
vertex $-1 $616 $671 #
straight-curve $-1 -55.289585882520079 -43.957448258410778 4.7737803388121307 0 0.77714595512881146 0.62932039886446345 I I #
edge $-1 $618 -32.016935808862712 $511 -14.528364338452032 $510 $672 forward 7 unknown #
point $-1 -55.289585882520079 -33.740816133990627 13.047046076296269 #
point $-1 -37.801014412109403 -43.957448258410771 4.773780338812136 #
vertex $-1 $514 $673 #
straight-curve $-1 0 -43.957448258410771 13.047046076296269 1 0 0 I I #
vertex $-1 $517 $674 #
point $-1 -50.791871588437942 -37.266468312768389 6.9559861183366971 #
vertex $-1 $521 $675 #
point $-1 -45.545300147314741 -37.266468312768389 6.9559861183366971 #
vertex $-1 $525 $676 #
point $-1 -40.29872870619154 -37.266468312768389 6.9559861183366971 #
edge $-1 $632 41.558777542195969 $635 49.8320432796801 $530 $677 forward 7 unknown #
vertex $-1 $544 $678 #
straight-curve $-1 5.9518134004862162 -64.264783536165638 13.047046076296269 0 -1 0 I I #
edge $-1 $635 -1.3962361673595609 $541 16.092335303051115 $540 $679 forward 7 unknown #
vertex $-1 $634 $680 #
straight-curve $-1 5.9518134004862162 -43.957448258410778 4.7737803388121307 0 0.77714595512881146 0.62932039886446345 I I #
point $-1 5.9518134004862162 -33.740816133990627 13.047046076296269 #
point $-1 23.440384870896892 -43.957448258410771 4.773780338812136 #
straight-curve $-1 0 -43.957448258410771 13.047046076296269 1 0 0 I I #
vertex $-1 $547 $681 #
point $-1 10.44952769456836 -37.266468312768389 6.9559861183366971 #
vertex $-1 $551 $682 #
point $-1 15.696099135691554 -37.266468312768389 6.9559861183366971 #
vertex $-1 $555 $683 #
point $-1 20.942670576814763 -37.266468312768389 6.9559861183366971 #
straight-curve $-1 -67.193212683492533 43.957448258410771 0 0 0 -1 I I #
point $-1 -67.193212683492533 -43.957448258410771 -13.047046076296269 #
straight-curve $-1 -67.193212683492533 0 -13.047046076296269 0 1 0 I I #
point $-1 -67.193212683492533 43.957448258410771 -13.047046076296269 #
coedge $-1 $577 $576 $651 $684 reversed $300 $-1 #
coedge $-1 $582 $578 $650 $684 forward $436 $-1 #
vertex $-1 $579 $685 #
straight-curve $-1 0 43.957448258410771 13.047046076296269 -1 0 0 I I #
point $-1 -55.289585882520072 43.957448258410771 13.047046076296269 #
vertex $-1 $684 $686 #
straight-curve $-1 0 -43.957448258410771 13.047046076296269 1 0 0 I I #
straight-curve $-1 -67.193212683492533 -43.957448258410771 0 0 0 -1 I I #
straight-curve $-1 -67.193212683492533 43.957448258410771 0 0 0 -1 I I #
straight-curve $-1 -5.1756419092059218 43.957448258410771 81.77538624261183 0 0 -1 I I #
point $-1 -5.1756419092059218 43.957448258410771 13.047046076296269 #
straight-curve $-1 -9.7383668844064744 43.957448258410764 4.8556481113383931 -1 0 0 I I #
point $-1 -5.1756419092059218 43.957448258410764 4.8556481113383967 #
point $-1 -19.476733768812949 34.297492825960674 3.2747612258893746 #
straight-curve $-1 56.06575737380038 43.957448258410771 81.77538624261183 0 0 -1 I I #
point $-1 56.06575737380038 43.957448258410771 13.047046076296269 #
straight-curve $-1 20.882332757096677 43.957448258410764 4.8556481113383931 -1 0 0 I I #
point $-1 56.06575737380038 43.957448258410764 4.8556481113383967 #
point $-1 41.764665514193354 34.297492825960674 3.2747612258893746 #
straight-curve $-1 -55.289585882520079 -43.957448258410771 54.605823618492238 0 0 -1 I I #
straight-curve $-1 -55.289585882520072 0 13.047046076296269 0 -1 0 I I #
point $-1 -55.289585882520079 -43.957448258410771 4.773780338812136 #
straight-curve $-1 -23.27265007365737 -43.957448258410771 4.7737803388121378 1 0 0 I I #
point $-1 -55.289585882520072 -43.957448258410771 13.047046076296269 #
point $-1 -51.791871588437942 -36.637147913903924 6.1788401632078864 #
point $-1 -46.545300147314741 -36.637147913903924 6.1788401632078864 #
point $-1 -41.29872870619154 -36.637147913903924 6.1788401632078864 #
straight-curve $-1 5.9518134004862162 -43.957448258410771 54.605823618492238 0 0 -1 I I #
point $-1 5.9518134004862162 -43.957448258410771 13.047046076296269 #
straight-curve $-1 7.3480495678457771 -43.957448258410771 4.7737803388121378 1 0 0 I I #
point $-1 5.9518134004862162 -43.957448258410771 4.773780338812136 #
point $-1 9.4495276945683599 -36.637147913903924 6.1788401632078864 #
point $-1 14.696099135691554 -36.637147913903924 6.1788401632078864 #
point $-1 19.942670576814763 -36.637147913903924 6.1788401632078864 #
edge $-1 $652 -43.957448258410771 $655 43.957448258410771 $650 $687 forward 7 unknown #
point $-1 -67.193212683492533 43.957448258410771 13.047046076296269 #
point $-1 -67.193212683492533 -43.957448258410771 13.047046076296269 #
straight-curve $-1 -67.193212683492533 0 13.047046076296269 0 -1 0 I I #
End-of-ACIS-data 