500 0 4 0           
7 Unknown 11 ACIS 5.0 NT 24 Fri Mar 26 19:33:21 1999 
-1 9.9999999999999995e-007 1e-010 
body $-1 $4 $-1 $5 #
body $-1 $6 $-1 $7 #
body $-1 $8 $-1 $9 #
body $-1 $10 $-1 $11 #
lump $-1 $-1 $12 $0 #
transform $-1 1 0 0 0 1 0 0 0 1 79.691152684102917 36.498581978091913 11.205767527018113 1 rotate no_reflect no_shear #
lump $-1 $-1 $13 $1 #
transform $-1 1 0 0 0 1 0 0 0 1 79.691152684102917 36.498581978091913 11.205767527018113 1 rotate no_reflect no_shear #
lump $-1 $-1 $14 $2 #
transform $-1 1 0 0 0 1 0 0 0 1 79.691152684102917 36.498581978091913 11.205767527018113 1 rotate no_reflect no_shear #
lump $-1 $-1 $15 $3 #
transform $-1 1 0 0 0 1 0 0 0 1 79.691152684102917 36.498581978091913 11.205767527018113 1 rotate no_reflect no_shear #
shell $-1 $-1 $-1 $16 $-1 $4 #
shell $-1 $-1 $-1 $17 $-1 $6 #
shell $-1 $-1 $-1 $18 $-1 $8 #
shell $-1 $-1 $-1 $19 $-1 $10 #
face $-1 $20 $21 $12 $-1 $22 forward single #
face $-1 $23 $24 $13 $-1 $25 forward single #
face $-1 $26 $27 $14 $-1 $28 forward single #
face $-1 $29 $30 $15 $-1 $31 reversed single #
face $-1 $32 $33 $12 $-1 $34 reversed single #
loop $-1 $-1 $35 $16 #
plane-surface $-1 0 0 11.205767527018113 0 0 1 1 0 0 forward_v I I I I #
face $-1 $36 $37 $13 $-1 $38 forward single #
loop $-1 $-1 $39 $17 #
plane-surface $-1 -60.279617630066696 -29.450141550214589 0 1 0 0 0 0 -1 forward_v I I I I #
face $-1 $40 $41 $14 $-1 $42 forward single #
loop $-1 $-1 $43 $18 #
plane-surface $-1 -35.062417337197928 80.07166725992596 172.22330461337344 1 0 0 0 -0.62932039886446345 -0.77714595512881146 forward_v I I I I #
face $-1 $44 $45 $15 $-1 $46 reversed single #
loop $-1 $47 $48 $19 #
cone-surface $-1 -15.22000859047742 30.303349439568944 5.8610649947917768 0 -0.62932039886446345 -0.77714595512881146 1.5 0 0 1 I I 0 1 1.5 forward I I I I #
face $-1 $49 $50 $12 $-1 $51 reversed single #
loop $-1 $-1 $52 $20 #
plane-surface $-1 0 0 -11.205767527018113 0 0 1 1 0 0 forward_v I I I I #
coedge $-1 $53 $54 $55 $56 forward $21 $-1 #
face $-1 $57 $58 $13 $-1 $59 forward single #
loop $-1 $-1 $60 $23 #
plane-surface $-1 -58.779617630066696 -22.401701122337265 0 0 -1 0 0 0 -1 forward_v I I I I #
coedge $-1 $61 $62 $63 $64 reversed $24 $-1 #
face $-1 $65 $66 $14 $-1 $67 forward single #
loop $-1 $-1 $68 $26 #
plane-surface $-1 -15.220008590477434 -20.230868726331053 48.359990677367222 0 0.62932039886446345 0.77714595512881146 1 0 0 forward_v I I I I #
coedge $-1 $69 $70 $71 $72 reversed $27 $-1 #
face $-1 $73 $74 $15 $-1 $75 forward single #
loop $-1 $76 $77 $29 #
cone-surface $-1 -15.22000859047742 29.060030164963713 4.3256935894843789 0 -0.62932039886446345 -0.77714595512881146 0.75 0 0 1 I I -0.70710678118654757 0.70710678118654757 0.75 forward I I I I #
loop $-1 $-1 $78 $19 #
coedge $-1 $48 $48 $79 $80 reversed $30 $-1 #
face $-1 $81 $82 $12 $-1 $83 reversed single #
loop $-1 $-1 $84 $32 #
plane-surface $-1 0 -36.498581978091913 0 0 1 0 0 0 1 forward_v I I I I #
coedge $-1 $85 $86 $87 $88 forward $33 $-1 #
coedge $-1 $89 $35 $90 $91 forward $21 $-1 #
coedge $-1 $35 $89 $92 $93 forward $21 $-1 #
coedge $-1 $94 $95 $35 $56 reversed $96 $-1 #
edge $-1 $97 -36.498581978091913 $98 36.498581978091913 $55 $99 forward 7 unknown #
face $-1 $100 $101 $13 $-1 $102 forward single #
loop $-1 $-1 $103 $36 #
plane-surface $-1 -57.279617630066696 -29.450141550214589 0 -1 0 0 0 0 1 forward_v I I I I #
coedge $-1 $104 $105 $106 $107 reversed $37 $-1 #
coedge $-1 $108 $39 $109 $110 reversed $24 $-1 #
coedge $-1 $39 $108 $111 $112 reversed $24 $-1 #
coedge $-1 $105 $104 $39 $64 forward $37 $-1 #
edge $-1 $113 -11.205767527018113 $114 11.205767527018113 $63 $115 forward 7 unknown #
face $-1 $116 $117 $14 $-1 $118 forward single #
loop $-1 $-1 $119 $40 #
plane-surface $-1 4.6224001562430566 80.07166725992596 172.22330461337344 -1 0 0 0 0.62932039886446345 0.77714595512881146 forward_v I I I I #
coedge $-1 $120 $121 $122 $123 reversed $41 $-1 #
coedge $-1 $70 $43 $121 $124 forward $27 $-1 #
coedge $-1 $43 $69 $125 $126 reversed $27 $-1 #
coedge $-1 $127 $122 $43 $72 forward $117 $-1 #
edge $-1 $128 -14.385058778003327 $129 -3.5372516518710668 $71 $130 forward 7 unknown #
face $-1 $131 $132 $15 $-1 $133 forward single #
loop $-1 $-1 $134 $44 #
plane-surface $-1 -35.062417337197928 80.07166725992596 172.22330461337344 1 0 0 0 -0.62932039886446345 -0.77714595512881146 forward_v I I I I #
loop $-1 $-1 $135 $29 #
coedge $-1 $77 $77 $78 $136 forward $45 $-1 #
coedge $-1 $78 $78 $77 $136 reversed $47 $-1 #
coedge $-1 $79 $79 $48 $80 forward $132 $-1 #
edge $-1 $137 -1.4751972135333216e-016 $137 6.2831853071796004 $79 $138 forward 7 unknown #
face $-1 $139 $140 $12 $-1 $141 reversed single #
loop $-1 $-1 $142 $49 #
plane-surface $-1 -79.691152684102917 0 0 1 0 0 0 0 -1 forward_v I I I I #
coedge $-1 $143 $92 $144 $145 forward $50 $-1 #
coedge $-1 $146 $52 $143 $147 forward $33 $-1 #
coedge $-1 $52 $146 $148 $149 forward $33 $-1 #
coedge $-1 $95 $94 $52 $88 reversed $96 $-1 #
edge $-1 $150 -36.498581978091913 $151 36.498581978091913 $87 $152 forward 7 unknown #
coedge $-1 $54 $53 $153 $154 forward $21 $-1 #
coedge $-1 $155 $156 $53 $91 reversed $140 $-1 #
edge $-1 $98 -79.691152684102917 $157 79.691152684102917 $90 $158 forward 7 unknown #
coedge $-1 $84 $159 $54 $93 reversed $50 $-1 #
edge $-1 $160 -79.691152684102917 $97 79.691152684102917 $92 $161 forward 7 unknown #
coedge $-1 $87 $55 $159 $162 forward $96 $-1 #
coedge $-1 $55 $87 $155 $163 reversed $96 $-1 #
loop $-1 $-1 $94 $139 #
vertex $-1 $56 $164 #
vertex $-1 $56 $165 #
straight-curve $-1 79.691152684102917 0 11.205767527018113 0 1 0 I I #
face $-1 $166 $167 $13 $-1 $168 reversed single #
loop $-1 $-1 $109 $57 #
plane-surface $-1 0 0 11.205767527018113 0 0 1 1 0 0 forward_v I I I I #
coedge $-1 $169 $170 $171 $172 reversed $58 $-1 #
coedge $-1 $63 $60 $173 $174 reversed $37 $-1 #
coedge $-1 $60 $63 $175 $176 reversed $37 $-1 #
coedge $-1 $170 $169 $60 $107 forward $58 $-1 #
edge $-1 $177 -11.205767527018113 $178 11.205767527018113 $106 $179 forward 7 unknown #
coedge $-1 $62 $61 $180 $181 reversed $24 $-1 #
coedge $-1 $173 $182 $61 $110 forward $101 $-1 #
edge $-1 $183 -21.773511202984619 $113 -7.6766303472299704 $109 $184 forward 7 unknown #
coedge $-1 $185 $175 $62 $112 forward $186 $-1 #
edge $-1 $114 7.6766303472299704 $187 21.773511202984619 $111 $188 forward 7 unknown #
vertex $-1 $110 $189 #
vertex $-1 $112 $190 #
straight-curve $-1 -60.279617630066696 -22.401701122337265 0 0 0 -1 I I #
face $-1 $191 $192 $14 $-1 $193 forward single #
loop $-1 $-1 $194 $65 #
plane-surface $-1 0 0 11.205767527018113 0 0 1 1 0 0 forward_v I I I I #
coedge $-1 $195 $196 $194 $197 reversed $66 $-1 #
coedge $-1 $198 $68 $196 $199 reversed $41 $-1 #
coedge $-1 $68 $198 $69 $124 reversed $41 $-1 #
coedge $-1 $71 $194 $68 $123 forward $117 $-1 #
edge $-1 $200 -12.232404451481774 $128 27.452413041959211 $122 $201 forward 7 unknown #
edge $-1 $128 59.038644254007409 $202 72.997163956183869 $69 $203 forward 7 unknown #
coedge $-1 $204 $205 $70 $126 forward $206 $-1 #
edge $-1 $129 74.905884779668611 $202 83.690265966199775 $125 $207 forward 7 unknown #
coedge $-1 $208 $71 $205 $209 forward $117 $-1 #
vertex $-1 $123 $210 #
vertex $-1 $209 $211 #
straight-curve $-1 -35.062417337197928 40.03583362996298 11.205767527018111 0 1 0 I I #
face $-1 $212 $213 $15 $-1 $214 forward single #
loop $-1 $215 $79 $73 #
plane-surface $-1 -15.220008590477434 -20.230868726331053 48.359990677367222 0 0.62932039886446345 0.77714595512881146 1 0 0 forward_v I I I I #
coedge $-1 $216 $217 $218 $219 reversed $74 $-1 #
coedge $-1 $135 $135 $-1 $220 forward $76 $-1 #
edge $-1 $221 0 $221 6.2831853071796004 $77 $222 forward 7 unknown #
vertex $-1 $80 $223 #
ellipse-curve $-1 -15.22000859047742 31.074678415025794 6.8135769337525227 0 -0.62932039886446345 -0.77714595512881146 1.5 0 0 1 I I #
face $-1 $-1 $96 $12 $-1 $224 reversed single #
loop $-1 $-1 $155 $81 #
plane-surface $-1 0 36.498581978091913 0 0 -1 0 0 0 -1 forward_v I I I I #
coedge $-1 $225 $153 $156 $226 forward $82 $-1 #
coedge $-1 $159 $84 $85 $147 reversed $50 $-1 #
coedge $-1 $153 $225 $84 $145 reversed $82 $-1 #
edge $-1 $160 -11.205767527018113 $227 11.205767527018113 $144 $228 forward 7 unknown #
coedge $-1 $86 $85 $225 $229 forward $33 $-1 #
edge $-1 $151 -79.691152684102917 $227 79.691152684102917 $143 $230 forward 7 unknown #
coedge $-1 $156 $155 $86 $149 reversed $140 $-1 #
edge $-1 $231 -79.691152684102917 $150 79.691152684102917 $148 $232 forward 7 unknown #
vertex $-1 $88 $233 #
vertex $-1 $162 $234 #
straight-curve $-1 79.691152684102917 0 -11.205767527018113 0 -1 0 I I #
coedge $-1 $142 $144 $89 $154 reversed $82 $-1 #
edge $-1 $157 -36.498581978091913 $160 36.498581978091913 $153 $235 forward 7 unknown #
coedge $-1 $148 $90 $95 $163 forward $140 $-1 #
coedge $-1 $90 $148 $142 $226 reversed $140 $-1 #
vertex $-1 $91 $236 #
straight-curve $-1 0 36.498581978091913 11.205767527018113 -1 0 0 I I #
coedge $-1 $92 $143 $94 $162 reversed $50 $-1 #
vertex $-1 $154 $237 #
straight-curve $-1 0 -36.498581978091913 11.205767527018113 1 0 0 I I #
edge $-1 $97 -11.205767527018113 $151 11.205767527018113 $94 $238 forward 7 unknown #
edge $-1 $98 -11.205767527018113 $150 11.205767527018113 $95 $239 forward 7 unknown #
point $-1 79.691152684102917 -36.498581978091913 11.205767527018113 #
point $-1 79.691152684102917 36.498581978091913 11.205767527018113 #
face $-1 $240 $186 $13 $-1 $241 reversed single #
loop $-1 $-1 $171 $100 #
plane-surface $-1 0 -36.498581978091913 0 0 1 0 0 0 1 forward_v I I I I #
coedge $-1 $106 $103 $242 $243 reversed $58 $-1 #
coedge $-1 $103 $106 $244 $245 reversed $58 $-1 #
coedge $-1 $246 $247 $103 $172 forward $167 $-1 #
edge $-1 $248 -11.205767527018113 $249 11.205767527018113 $171 $250 forward 7 unknown #
coedge $-1 $242 $109 $104 $174 forward $101 $-1 #
edge $-1 $113 -30.889808815033348 $177 -27.889808815033348 $173 $251 forward 7 unknown #
coedge $-1 $111 $244 $105 $176 forward $186 $-1 #
edge $-1 $178 27.889808815033348 $114 30.889808815033348 $175 $252 forward 7 unknown #
vertex $-1 $174 $253 #
vertex $-1 $176 $254 #
straight-curve $-1 -57.279617630066696 -22.401701122337265 0 0 0 -1 I I #
coedge $-1 $255 $256 $108 $181 forward $257 $-1 #
edge $-1 $187 -11.205767527018113 $183 11.205767527018113 $180 $258 forward 7 unknown #
coedge $-1 $109 $259 $255 $260 forward $101 $-1 #
vertex $-1 $181 $261 #
straight-curve $-1 -60.279617630066696 -14.725070775107294 11.205767527018113 0 1 0 I I #
coedge $-1 $262 $111 $256 $263 forward $186 $-1 #
loop $-1 $-1 $111 $166 #
vertex $-1 $263 $264 #
straight-curve $-1 -60.279617630066696 -14.725070775107294 -11.205767527018113 0 -1 0 I I #
point $-1 -60.279617630066696 -22.401701122337265 11.205767527018113 #
point $-1 -60.279617630066696 -22.401701122337265 -11.205767527018113 #
face $-1 $265 $266 $14 $-1 $267 forward single #
loop $-1 $-1 $268 $116 #
plane-surface $-1 -60.279617630066696 -29.450141550214589 0 1 0 0 0 0 -1 forward_v I I I I #
coedge $-1 $122 $269 $119 $197 forward $117 $-1 #
coedge $-1 $196 $119 $270 $271 reversed $66 $-1 #
coedge $-1 $119 $195 $120 $199 forward $66 $-1 #
edge $-1 $272 3.5372516518710668 $200 14.385058778003327 $194 $273 forward 7 unknown #
coedge $-1 $121 $120 $204 $274 reversed $41 $-1 #
edge $-1 $275 -72.997163956183869 $200 -59.038644254007409 $196 $276 forward 7 unknown #
vertex $-1 $123 $277 #
straight-curve $-1 -7.610004295238717 25.650774851959664 11.205767527018111 -1 0 0 I I #
vertex $-1 $274 $278 #
straight-curve $-1 -35.062417337197928 -20.230868726331053 48.359990677367222 0 0.77714595512881146 -0.62932039886446345 I I #
coedge $-1 $270 $125 $198 $274 forward $206 $-1 #
coedge $-1 $125 $279 $127 $209 reversed $206 $-1 #
loop $-1 $-1 $270 $280 #
straight-curve $-1 -35.062417337197928 36.498581978091913 86.111652306686722 0 0 -1 I I #
coedge $-1 $281 $127 $282 $283 forward $117 $-1 #
edge $-1 $129 35.062417337197928 $284 79.691152684102917 $205 $285 forward 7 unknown #
point $-1 -35.062417337197928 25.650774851959653 11.205767527018111 #
point $-1 -35.062417337197928 36.498581978091913 11.205767527018113 #
face $-1 $286 $287 $15 $-1 $288 forward single #
loop $-1 $-1 $289 $131 #
plane-surface $-1 4.6224001562430566 80.07166725992596 172.22330461337344 -1 0 0 0 0.62932039886446345 0.77714595512881146 forward_v I I I I #
loop $-1 $-1 $290 $73 #
coedge $-1 $217 $134 $291 $292 forward $74 $-1 #
coedge $-1 $134 $216 $293 $294 reversed $74 $-1 #
coedge $-1 $295 $296 $134 $219 forward $287 $-1 #
edge $-1 $297 -14.385058778003327 $298 -3.5372516518710668 $218 $299 forward 7 unknown #
edge $-1 $300 1 $300 0 $135 $-1 forward 7 unknown #
vertex $-1 $136 $301 #
ellipse-curve $-1 -15.22000859047742 29.532020464112062 4.9085530558309873 0 0.62932039886446345 0.77714595512881146 1.5 0 0 1 I I #
point $-1 -13.72000859047742 31.074678415025829 6.8135769337525662 #
plane-surface $-1 79.691152684102917 0 0 -1 0 0 0 0 1 forward_v I I I I #
coedge $-1 $144 $142 $146 $229 reversed $82 $-1 #
edge $-1 $157 -11.205767527018113 $231 11.205767527018113 $156 $302 forward 7 unknown #
vertex $-1 $229 $303 #
straight-curve $-1 -79.691152684102917 -36.498581978091913 0 0 0 -1 I I #
edge $-1 $227 -36.498581978091913 $231 36.498581978091913 $225 $304 forward 7 unknown #
straight-curve $-1 0 -36.498581978091913 -11.205767527018113 -1 0 0 I I #
vertex $-1 $149 $305 #
straight-curve $-1 0 36.498581978091913 -11.205767527018113 1 0 0 I I #
point $-1 79.691152684102917 36.498581978091913 -11.205767527018113 #
point $-1 79.691152684102917 -36.498581978091913 -11.205767527018113 #
straight-curve $-1 -79.691152684102917 0 11.205767527018113 0 -1 0 I I #
point $-1 -79.691152684102917 36.498581978091913 11.205767527018113 #
point $-1 -79.691152684102917 -36.498581978091913 11.205767527018113 #
straight-curve $-1 79.691152684102917 -36.498581978091913 0 0 0 -1 I I #
straight-curve $-1 79.691152684102917 36.498581978091913 0 0 0 -1 I I #
face $-1 $306 $257 $13 $-1 $168 reversed single #
plane-surface $-1 0 0 -11.205767527018113 0 0 1 1 0 0 forward_v I I I I #
coedge $-1 $307 $173 $169 $243 forward $101 $-1 #
edge $-1 $177 7.6766303472299704 $248 21.773511202984619 $242 $308 forward 7 unknown #
coedge $-1 $175 $309 $170 $245 forward $186 $-1 #
edge $-1 $249 -21.773511202984619 $178 -7.6766303472299704 $244 $310 forward 7 unknown #
coedge $-1 $311 $171 $309 $312 reversed $167 $-1 #
coedge $-1 $171 $311 $307 $313 reversed $167 $-1 #
vertex $-1 $313 $314 #
vertex $-1 $172 $315 #
straight-curve $-1 -57.279617630066696 -36.498581978091913 0 0 0 -1 I I #
straight-curve $-1 -29.389808815033348 -22.401701122337265 11.205767527018113 1 0 0 I I #
straight-curve $-1 -29.389808815033348 -22.401701122337265 -11.205767527018113 -1 0 0 I I #
point $-1 -57.279617630066696 -22.401701122337265 11.205767527018113 #
point $-1 -57.279617630066696 -22.401701122337265 -11.205767527018113 #
coedge $-1 $316 $180 $182 $260 reversed $257 $-1 #
coedge $-1 $180 $316 $185 $263 reversed $257 $-1 #
loop $-1 $-1 $180 $240 #
straight-curve $-1 -60.279617630066696 -36.498581978091913 0 0 0 1 I I #
coedge $-1 $182 $317 $318 $319 forward $101 $-1 #
edge $-1 $320 -79.691152684102917 $183 -60.279617630066696 $255 $321 forward 7 unknown #
point $-1 -60.279617630066696 -36.498581978091913 11.205767527018113 #
coedge $-1 $322 $185 $323 $324 forward $186 $-1 #
edge $-1 $187 60.279617630066696 $325 79.691152684102917 $256 $326 forward 7 unknown #
point $-1 -60.279617630066696 -36.498581978091913 -11.205767527018113 #
face $-1 $327 $328 $14 $-1 $329 forward single #
loop $-1 $-1 $330 $191 #
plane-surface $-1 -58.779617630066696 -22.401701122337265 0 0 -1 0 0 0 -1 forward_v I I I I #
coedge $-1 $331 $332 $333 $334 reversed $192 $-1 #
coedge $-1 $194 $335 $336 $337 forward $117 $-1 #
coedge $-1 $336 $204 $195 $271 forward $206 $-1 #
edge $-1 $275 -83.690265966199775 $272 -74.905884779668611 $270 $338 forward 7 unknown #
vertex $-1 $271 $339 #
straight-curve $-1 4.6224001562430566 40.03583362996298 11.205767527018111 0 -1 0 I I #
edge $-1 $202 -27.452413041959211 $275 12.232404451481774 $204 $340 forward 7 unknown #
vertex $-1 $274 $341 #
straight-curve $-1 4.6224001562430566 -20.230868726331053 48.359990677367222 0 -0.77714595512881146 0.62932039886446345 I I #
point $-1 4.6224001562430566 25.650774851959653 11.205767527018111 #
point $-1 -35.062417337197928 36.498581978091906 2.4213863404869542 #
coedge $-1 $205 $342 $343 $344 reversed $206 $-1 #
face $-1 $345 $206 $14 $-1 $346 reversed single #
coedge $-1 $347 $208 $348 $349 forward $117 $-1 #
coedge $-1 $343 $350 $208 $283 reversed $351 $-1 #
edge $-1 $284 -36.498581978091913 $352 36.498581978091913 $282 $353 forward 7 unknown #
vertex $-1 $209 $354 #
straight-curve $-1 0 36.498581978091913 11.205767527018113 -1 0 0 I I #
face $-1 $355 $356 $15 $-1 $357 forward single #
loop $-1 $-1 $358 $212 #
plane-surface $-1 0 0 11.205767527018113 0 0 1 1 0 0 forward_v I I I I #
coedge $-1 $359 $360 $358 $361 reversed $213 $-1 #
coedge $-1 $362 $291 $296 $363 reversed $215 $-1 #
coedge $-1 $290 $364 $216 $292 reversed $215 $-1 #
edge $-1 $297 59.038644254007409 $365 72.997163956183869 $216 $366 forward 7 unknown #
coedge $-1 $367 $368 $217 $294 forward $369 $-1 #
edge $-1 $298 74.905884779668611 $365 83.690265966199775 $293 $370 forward 7 unknown #
coedge $-1 $371 $218 $368 $372 forward $287 $-1 #
coedge $-1 $218 $358 $290 $363 forward $287 $-1 #
vertex $-1 $363 $373 #
vertex $-1 $372 $374 #
straight-curve $-1 -35.062417337197928 40.03583362996298 11.205767527018111 0 1 0 I I #
vertex $-1 $220 $375 #
point $-1 -13.72000859047742 29.532020464112062 4.9085530558309873 #
straight-curve $-1 -79.691152684102917 36.498581978091913 0 0 0 -1 I I #
point $-1 -79.691152684102917 -36.498581978091913 -11.205767527018113 #
straight-curve $-1 -79.691152684102917 0 -11.205767527018113 0 1 0 I I #
point $-1 -79.691152684102917 36.498581978091913 -11.205767527018113 #
face $-1 $376 $377 $13 $-1 $378 reversed single #
coedge $-1 $379 $242 $247 $313 forward $101 $-1 #
straight-curve $-1 -57.279617630066696 -14.725070775107294 11.205767527018113 0 -1 0 I I #
coedge $-1 $244 $380 $246 $312 forward $186 $-1 #
straight-curve $-1 -57.279617630066696 -14.725070775107294 -11.205767527018113 0 1 0 I I #
coedge $-1 $247 $246 $381 $382 reversed $167 $-1 #
edge $-1 $383 -79.691152684102917 $249 57.279617630066696 $246 $326 forward 7 unknown #
edge $-1 $248 -57.279617630066696 $384 79.691152684102917 $247 $321 forward 7 unknown #
point $-1 -57.279617630066696 -36.498581978091913 11.205767527018113 #
point $-1 -57.279617630066696 -36.498581978091913 -11.205767527018113 #
coedge $-1 $256 $255 $385 $386 forward $257 $-1 #
coedge $-1 $259 $379 $387 $388 forward $101 $-1 #
coedge $-1 $389 $385 $259 $319 reversed $377 $-1 #
edge $-1 $390 -36.498581978091913 $320 36.498581978091913 $318 $391 forward 7 unknown #
vertex $-1 $319 $392 #
straight-curve $-1 0 -36.498581978091913 11.205767527018113 1 0 0 I I #
coedge $-1 $380 $262 $393 $394 forward $186 $-1 #
coedge $-1 $385 $389 $262 $324 reversed $377 $-1 #
edge $-1 $325 -36.498581978091913 $395 36.498581978091913 $323 $396 forward 7 unknown #
vertex $-1 $324 $397 #
straight-curve $-1 0 -36.498581978091913 -11.205767527018113 -1 0 0 I I #
face $-1 $398 $399 $14 $-1 $400 reversed single #
loop $-1 $-1 $401 $265 #
plane-surface $-1 -57.279617630066696 -29.450141550214589 0 -1 0 0 0 0 1 forward_v I I I I #
coedge $-1 $402 $403 $404 $405 reversed $266 $-1 #
coedge $-1 $406 $268 $347 $407 reversed $192 $-1 #
coedge $-1 $268 $406 $408 $409 reversed $192 $-1 #
coedge $-1 $403 $402 $268 $334 forward $266 $-1 #
edge $-1 $410 -11.205767527018113 $411 11.205767527018113 $333 $412 forward 7 unknown #
coedge $-1 $269 $413 $414 $415 forward $117 $-1 #
coedge $-1 $416 $270 $269 $337 reversed $206 $-1 #
edge $-1 $417 -79.691152684102917 $272 -4.6224001562430566 $336 $285 forward 7 unknown #
straight-curve $-1 4.6224001562430566 36.498581978091913 86.111652306686722 0 0 1 I I #
point $-1 4.6224001562430566 36.498581978091913 11.205767527018113 #
straight-curve $-1 -7.610004295238717 36.498581978091906 2.4213863404869542 1 0 0 I I #
point $-1 4.6224001562430566 36.498581978091906 2.4213863404869542 #
coedge $-1 $279 $416 $418 $419 reversed $206 $-1 #
coedge $-1 $420 $282 $279 $344 forward $351 $-1 #
edge $-1 $284 -11.205767527018113 $421 11.205767527018113 $279 $422 forward 7 unknown #
face $-1 $-1 $423 $14 $-1 $424 reversed single #
plane-surface $-1 0 36.498581978091913 0 0 -1 0 0 0 -1 forward_v I I I I #
coedge $-1 $425 $281 $331 $407 forward $117 $-1 #
coedge $-1 $426 $427 $281 $349 reversed $428 $-1 #
edge $-1 $352 -79.691152684102917 $429 -60.279617630066696 $348 $430 forward 7 unknown #
coedge $-1 $282 $420 $426 $431 reversed $351 $-1 #
loop $-1 $-1 $343 $432 #
vertex $-1 $283 $433 #
straight-curve $-1 -79.691152684102917 0 11.205767527018113 0 -1 0 I I #
point $-1 -79.691152684102917 36.498581978091913 11.205767527018113 #
face $-1 $434 $435 $15 $-1 $436 forward single #
loop $-1 $-1 $437 $286 #
plane-surface $-1 -60.279617630066696 -29.450141550214589 0 1 0 0 0 0 -1 forward_v I I I I #
coedge $-1 $296 $438 $289 $361 forward $287 $-1 #
coedge $-1 $360 $289 $439 $440 reversed $213 $-1 #
coedge $-1 $289 $359 $362 $441 forward $213 $-1 #
edge $-1 $442 3.5372516518710668 $443 14.385058778003327 $358 $444 forward 7 unknown #
coedge $-1 $364 $290 $360 $441 reversed $215 $-1 #
edge $-1 $443 -12.232404451481774 $297 27.452413041959211 $296 $445 forward 7 unknown #
coedge $-1 $291 $362 $367 $446 reversed $215 $-1 #
vertex $-1 $446 $447 #
straight-curve $-1 -35.062417337197928 -20.230868726331053 48.359990677367222 0 0.77714595512881146 -0.62932039886446345 I I #
coedge $-1 $439 $293 $364 $446 forward $369 $-1 #
coedge $-1 $293 $448 $295 $372 reversed $369 $-1 #
loop $-1 $-1 $439 $449 #
straight-curve $-1 -35.062417337197928 36.498581978091913 86.111652306686722 0 0 -1 I I #
coedge $-1 $450 $295 $451 $452 forward $287 $-1 #
edge $-1 $298 35.062417337197928 $453 79.691152684102917 $368 $454 forward 7 unknown #
point $-1 -35.062417337197928 25.650774851959653 11.205767527018111 #
point $-1 -35.062417337197928 36.498581978091913 11.205767527018113 #
point $-1 -15.22000859047742 28.588039865815364 3.7428341231377704 #
face $-1 $455 $456 $13 $-1 $457 reversed single #
loop $-1 $-1 $389 $306 #
plane-surface $-1 -79.691152684102917 0 0 1 0 0 0 0 -1 forward_v I I I I #
coedge $-1 $317 $307 $458 $459 forward $101 $-1 #
coedge $-1 $309 $322 $460 $461 forward $186 $-1 #
coedge $-1 $460 $458 $311 $382 forward $462 $-1 #
edge $-1 $384 -11.205767527018113 $383 11.205767527018113 $381 $463 forward 7 unknown #
vertex $-1 $382 $464 #
vertex $-1 $459 $465 #
coedge $-1 $318 $323 $316 $386 reversed $377 $-1 #
edge $-1 $320 -11.205767527018113 $325 11.205767527018113 $385 $466 forward 7 unknown #
coedge $-1 $467 $468 $317 $388 reversed $456 $-1 #
edge $-1 $469 -79.691152684102917 $390 79.691152684102917 $387 $470 forward 7 unknown #
coedge $-1 $323 $318 $468 $471 forward $377 $-1 #
vertex $-1 $388 $472 #
straight-curve $-1 -79.691152684102917 0 11.205767527018113 0 -1 0 I I #
point $-1 -79.691152684102917 -36.498581978091913 11.205767527018113 #
coedge $-1 $468 $467 $322 $394 reversed $456 $-1 #
edge $-1 $395 -79.691152684102917 $473 79.691152684102917 $393 $474 forward 7 unknown #
vertex $-1 $394 $475 #
straight-curve $-1 -79.691152684102917 0 -11.205767527018113 0 1 0 I I #
point $-1 -79.691152684102917 -36.498581978091913 -11.205767527018113 #
face $-1 $476 $477 $14 $-1 $478 reversed single #
loop $-1 $-1 $479 $327 #
plane-surface $-1 0 -36.498581978091913 0 0 1 0 0 0 1 forward_v I I I I #
coedge $-1 $480 $481 $479 $482 reversed $328 $-1 #
coedge $-1 $333 $330 $425 $483 reversed $266 $-1 #
coedge $-1 $330 $333 $484 $485 reversed $266 $-1 #
coedge $-1 $481 $480 $330 $405 forward $328 $-1 #
edge $-1 $486 -11.205767527018113 $487 11.205767527018113 $404 $488 forward 7 unknown #
coedge $-1 $332 $331 $427 $489 reversed $192 $-1 #
edge $-1 $429 -21.773511202984619 $410 -7.6766303472299704 $347 $490 forward 7 unknown #
coedge $-1 $491 $484 $332 $409 forward $477 $-1 #
edge $-1 $411 7.6766303472299704 $492 21.773511202984619 $408 $493 forward 7 unknown #
vertex $-1 $407 $494 #
vertex $-1 $409 $495 #
straight-curve $-1 -60.279617630066696 -22.401701122337265 0 0 0 -1 I I #
coedge $-1 $335 $496 $497 $498 forward $117 $-1 #
coedge $-1 $499 $500 $335 $415 reversed $423 $-1 #
edge $-1 $501 -36.498581978091913 $417 36.498581978091913 $414 $502 forward 7 unknown #
coedge $-1 $342 $336 $500 $503 forward $206 $-1 #
vertex $-1 $415 $504 #
coedge $-1 $505 $506 $342 $419 forward $477 $-1 #
edge $-1 $421 -79.691152684102917 $507 79.691152684102917 $342 $508 forward 7 unknown #
coedge $-1 $350 $343 $506 $509 reversed $351 $-1 #
vertex $-1 $419 $510 #
straight-curve $-1 -79.691152684102917 36.498581978091913 0 0 0 -1 I I #
loop $-1 $-1 $499 $345 #
plane-surface $-1 79.691152684102917 0 0 -1 0 0 0 0 1 forward_v I I I I #
coedge $-1 $496 $347 $402 $483 forward $117 $-1 #
coedge $-1 $511 $348 $350 $431 forward $428 $-1 #
coedge $-1 $348 $511 $406 $489 forward $428 $-1 #
loop $-1 $-1 $427 $476 #
vertex $-1 $489 $512 #
straight-curve $-1 0 -36.498581978091913 11.205767527018113 1 0 0 I I #
edge $-1 $352 -11.205767527018113 $513 11.205767527018113 $350 $514 forward 7 unknown #
face $-1 $280 $351 $14 $-1 $515 reversed single #
point $-1 -79.691152684102917 -36.498581978091913 11.205767527018113 #
face $-1 $516 $517 $15 $-1 $518 forward single #
loop $-1 $-1 $519 $355 #
plane-surface $-1 -58.779617630066696 -22.401701122337265 0 0 -1 0 0 0 -1 forward_v I I I I #
coedge $-1 $520 $521 $522 $523 reversed $356 $-1 #
coedge $-1 $358 $524 $525 $526 forward $287 $-1 #
coedge $-1 $525 $367 $359 $440 forward $369 $-1 #
edge $-1 $527 -83.690265966199775 $442 -74.905884779668611 $439 $528 forward 7 unknown #
edge $-1 $527 -72.997163956183869 $443 -59.038644254007409 $360 $529 forward 7 unknown #
vertex $-1 $440 $530 #
vertex $-1 $363 $531 #
straight-curve $-1 4.6224001562430566 40.03583362996298 11.205767527018111 0 -1 0 I I #
straight-curve $-1 -7.610004295238717 25.650774851959664 11.205767527018111 -1 0 0 I I #
edge $-1 $365 -27.452413041959211 $527 12.232404451481774 $367 $532 forward 7 unknown #
point $-1 -35.062417337197928 36.498581978091906 2.4213863404869542 #
coedge $-1 $368 $533 $534 $535 reversed $369 $-1 #
face $-1 $536 $369 $15 $-1 $537 reversed single #
coedge $-1 $538 $371 $539 $540 forward $287 $-1 #
coedge $-1 $534 $541 $371 $452 reversed $542 $-1 #
edge $-1 $453 -36.498581978091913 $543 36.498581978091913 $451 $544 forward 7 unknown #
vertex $-1 $372 $545 #
straight-curve $-1 0 36.498581978091913 11.205767527018113 -1 0 0 I I #
face $-1 $-1 $462 $13 $-1 $546 reversed single #
loop $-1 $-1 $467 $376 #
plane-surface $-1 0 36.498581978091913 0 0 -1 0 0 0 -1 forward_v I I I I #
coedge $-1 $381 $547 $379 $459 reversed $462 $-1 #
edge $-1 $384 -36.498581978091913 $469 36.498581978091913 $458 $548 forward 7 unknown #
coedge $-1 $547 $381 $380 $461 reversed $462 $-1 #
edge $-1 $473 -36.498581978091913 $383 36.498581978091913 $460 $549 forward 7 unknown #
loop $-1 $-1 $381 $455 #
straight-curve $-1 79.691152684102917 -36.498581978091913 0 0 0 -1 I I #
point $-1 79.691152684102917 -36.498581978091913 -11.205767527018113 #
point $-1 79.691152684102917 -36.498581978091913 11.205767527018113 #
straight-curve $-1 -79.691152684102917 -36.498581978091913 0 0 0 -1 I I #
coedge $-1 $393 $387 $547 $550 forward $456 $-1 #
coedge $-1 $387 $393 $389 $471 reversed $456 $-1 #
vertex $-1 $459 $551 #
straight-curve $-1 0 36.498581978091913 11.205767527018113 -1 0 0 I I #
edge $-1 $390 -11.205767527018113 $395 11.205767527018113 $468 $552 forward 7 unknown #
point $-1 -79.691152684102917 36.498581978091913 11.205767527018113 #
vertex $-1 $461 $553 #
straight-curve $-1 0 36.498581978091913 -11.205767527018113 1 0 0 I I #
point $-1 -79.691152684102917 36.498581978091913 -11.205767527018113 #
face $-1 $432 $428 $14 $-1 $400 reversed single #
loop $-1 $-1 $408 $398 #
plane-surface $-1 0 0 -11.205767527018113 0 0 1 1 0 0 forward_v I I I I #
coedge $-1 $554 $497 $401 $482 forward $399 $-1 #
coedge $-1 $404 $401 $496 $555 reversed $328 $-1 #
coedge $-1 $401 $404 $556 $557 reversed $328 $-1 #
edge $-1 $558 -11.205767527018113 $559 11.205767527018113 $479 $560 forward 7 unknown #
edge $-1 $410 -30.889808815033348 $486 -27.889808815033348 $425 $561 forward 7 unknown #
coedge $-1 $408 $556 $403 $485 forward $477 $-1 #
edge $-1 $487 27.889808815033348 $411 30.889808815033348 $484 $562 forward 7 unknown #
vertex $-1 $483 $563 #
vertex $-1 $485 $564 #
straight-curve $-1 -57.279617630066696 -22.401701122337265 0 0 0 -1 I I #
edge $-1 $492 -11.205767527018113 $429 11.205767527018113 $427 $565 forward 7 unknown #
straight-curve $-1 -60.279617630066696 -14.725070775107294 11.205767527018113 0 1 0 I I #
coedge $-1 $506 $408 $511 $566 forward $477 $-1 #
vertex $-1 $566 $567 #
straight-curve $-1 -60.279617630066696 -14.725070775107294 -11.205767527018113 0 -1 0 I I #
point $-1 -60.279617630066696 -22.401701122337265 11.205767527018113 #
point $-1 -60.279617630066696 -22.401701122337265 -11.205767527018113 #
coedge $-1 $413 $425 $480 $555 forward $117 $-1 #
coedge $-1 $479 $568 $413 $498 reversed $399 $-1 #
edge $-1 $558 -57.279617630066696 $501 79.691152684102917 $497 $430 forward 7 unknown #
coedge $-1 $569 $414 $568 $570 forward $423 $-1 #
coedge $-1 $414 $569 $416 $503 reversed $423 $-1 #
vertex $-1 $415 $571 #
straight-curve $-1 79.691152684102917 0 11.205767527018113 0 1 0 I I #
edge $-1 $417 -11.205767527018113 $507 11.205767527018113 $500 $572 forward 7 unknown #
point $-1 79.691152684102917 36.498581978091913 11.205767527018113 #
coedge $-1 $573 $418 $569 $574 forward $477 $-1 #
coedge $-1 $418 $491 $420 $509 forward $477 $-1 #
vertex $-1 $574 $575 #
straight-curve $-1 0 36.498581978091913 -11.205767527018113 1 0 0 I I #
edge $-1 $513 -36.498581978091913 $421 36.498581978091913 $420 $576 forward 7 unknown #
point $-1 -79.691152684102917 36.498581978091913 -11.205767527018113 #
coedge $-1 $427 $426 $491 $566 reversed $428 $-1 #
point $-1 -60.279617630066696 -36.498581978091913 11.205767527018113 #
vertex $-1 $509 $577 #
straight-curve $-1 -79.691152684102917 -36.498581978091913 0 0 0 -1 I I #
plane-surface $-1 -79.691152684102917 0 0 1 0 0 0 0 -1 forward_v I I I I #
face $-1 $578 $579 $15 $-1 $580 reversed single #
loop $-1 $-1 $581 $434 #
plane-surface $-1 -57.279617630066696 -29.450141550214589 0 -1 0 0 0 0 1 forward_v I I I I #
coedge $-1 $582 $583 $584 $585 reversed $435 $-1 #
coedge $-1 $586 $437 $538 $587 reversed $356 $-1 #
coedge $-1 $437 $586 $588 $589 reversed $356 $-1 #
coedge $-1 $583 $582 $437 $523 forward $435 $-1 #
edge $-1 $590 -11.205767527018113 $591 11.205767527018113 $522 $592 forward 7 unknown #
coedge $-1 $438 $593 $594 $595 forward $287 $-1 #
coedge $-1 $596 $439 $438 $526 reversed $369 $-1 #
edge $-1 $597 -79.691152684102917 $442 -4.6224001562430566 $525 $454 forward 7 unknown #
vertex $-1 $446 $598 #
straight-curve $-1 4.6224001562430566 36.498581978091913 86.111652306686722 0 0 1 I I #
straight-curve $-1 4.6224001562430566 -20.230868726331053 48.359990677367222 0 -0.77714595512881146 0.62932039886446345 I I #
point $-1 4.6224001562430566 36.498581978091913 11.205767527018113 #
point $-1 4.6224001562430566 25.650774851959653 11.205767527018111 #
straight-curve $-1 -7.610004295238717 36.498581978091906 2.4213863404869542 1 0 0 I I #
coedge $-1 $448 $596 $599 $600 reversed $369 $-1 #
coedge $-1 $601 $451 $448 $535 forward $542 $-1 #
edge $-1 $453 -11.205767527018113 $602 11.205767527018113 $448 $603 forward 7 unknown #
face $-1 $-1 $604 $15 $-1 $605 reversed single #
plane-surface $-1 0 36.498581978091913 0 0 -1 0 0 0 -1 forward_v I I I I #
coedge $-1 $606 $450 $520 $587 forward $287 $-1 #
coedge $-1 $607 $608 $450 $540 reversed $609 $-1 #
edge $-1 $543 -79.691152684102917 $610 -60.279617630066696 $539 $611 forward 7 unknown #
coedge $-1 $451 $601 $607 $612 reversed $542 $-1 #
loop $-1 $-1 $534 $613 #
vertex $-1 $452 $614 #
straight-curve $-1 -79.691152684102917 0 11.205767527018113 0 -1 0 I I #
point $-1 -79.691152684102917 36.498581978091913 11.205767527018113 #
plane-surface $-1 79.691152684102917 0 0 -1 0 0 0 0 1 forward_v I I I I #
coedge $-1 $458 $460 $467 $550 reversed $462 $-1 #
straight-curve $-1 79.691152684102917 0 11.205767527018113 0 1 0 I I #
straight-curve $-1 79.691152684102917 0 -11.205767527018113 0 -1 0 I I #
edge $-1 $469 -11.205767527018113 $473 11.205767527018113 $547 $615 forward 7 unknown #
point $-1 79.691152684102917 36.498581978091913 11.205767527018113 #
straight-curve $-1 -79.691152684102917 36.498581978091913 0 0 0 -1 I I #
point $-1 79.691152684102917 36.498581978091913 -11.205767527018113 #
coedge $-1 $568 $479 $573 $616 reversed $399 $-1 #
edge $-1 $486 7.6766303472299704 $558 21.773511202984619 $496 $617 forward 7 unknown #
coedge $-1 $484 $573 $481 $557 forward $477 $-1 #
edge $-1 $559 -21.773511202984619 $487 -7.6766303472299704 $556 $618 forward 7 unknown #
vertex $-1 $498 $619 #
vertex $-1 $482 $620 #
straight-curve $-1 -57.279617630066696 -36.498581978091913 0 0 0 -1 I I #
straight-curve $-1 -29.389808815033348 -22.401701122337265 11.205767527018113 1 0 0 I I #
straight-curve $-1 -29.389808815033348 -22.401701122337265 -11.205767527018113 -1 0 0 I I #
point $-1 -57.279617630066696 -22.401701122337265 11.205767527018113 #
point $-1 -57.279617630066696 -22.401701122337265 -11.205767527018113 #
straight-curve $-1 -60.279617630066696 -36.498581978091913 0 0 0 1 I I #
edge $-1 $492 60.279617630066696 $513 79.691152684102917 $511 $621 forward 7 unknown #
point $-1 -60.279617630066696 -36.498581978091913 -11.205767527018113 #
coedge $-1 $497 $554 $499 $570 reversed $399 $-1 #
coedge $-1 $500 $499 $505 $574 reversed $423 $-1 #
edge $-1 $501 -11.205767527018113 $622 11.205767527018113 $499 $623 forward 7 unknown #
point $-1 79.691152684102917 -36.498581978091913 11.205767527018113 #
straight-curve $-1 79.691152684102917 36.498581978091913 0 0 0 -1 I I #
coedge $-1 $556 $505 $554 $616 forward $477 $-1 #
edge $-1 $507 -36.498581978091913 $622 36.498581978091913 $569 $624 forward 7 unknown #
point $-1 79.691152684102917 36.498581978091913 -11.205767527018113 #
straight-curve $-1 -79.691152684102917 0 -11.205767527018113 0 1 0 I I #
point $-1 -79.691152684102917 -36.498581978091913 -11.205767527018113 #
face $-1 $625 $626 $15 $-1 $627 reversed single #
loop $-1 $-1 $628 $516 #
plane-surface $-1 0 -36.498581978091913 0 0 1 0 0 0 1 forward_v I I I I #
coedge $-1 $629 $630 $628 $631 reversed $517 $-1 #
coedge $-1 $522 $519 $606 $632 reversed $435 $-1 #
coedge $-1 $519 $522 $633 $634 reversed $435 $-1 #
coedge $-1 $630 $629 $519 $585 forward $517 $-1 #
edge $-1 $635 -11.205767527018113 $636 11.205767527018113 $584 $637 forward 7 unknown #
coedge $-1 $521 $520 $608 $638 reversed $356 $-1 #
edge $-1 $610 -21.773511202984619 $590 -7.6766303472299704 $538 $639 forward 7 unknown #
coedge $-1 $640 $633 $521 $589 forward $626 $-1 #
edge $-1 $591 7.6766303472299704 $641 21.773511202984619 $588 $642 forward 7 unknown #
vertex $-1 $587 $643 #
vertex $-1 $589 $644 #
straight-curve $-1 -60.279617630066696 -22.401701122337265 0 0 0 -1 I I #
coedge $-1 $524 $645 $646 $647 forward $287 $-1 #
coedge $-1 $648 $649 $524 $595 reversed $604 $-1 #
edge $-1 $650 -36.498581978091913 $597 36.498581978091913 $594 $651 forward 7 unknown #
coedge $-1 $533 $525 $649 $652 forward $369 $-1 #
vertex $-1 $595 $653 #
point $-1 4.6224001562430566 36.498581978091906 2.4213863404869542 #
coedge $-1 $654 $655 $533 $600 forward $626 $-1 #
edge $-1 $602 -79.691152684102917 $656 79.691152684102917 $533 $657 forward 7 unknown #
coedge $-1 $541 $534 $655 $658 reversed $542 $-1 #
vertex $-1 $600 $659 #
straight-curve $-1 -79.691152684102917 36.498581978091913 0 0 0 -1 I I #
loop $-1 $-1 $648 $536 #
plane-surface $-1 79.691152684102917 0 0 -1 0 0 0 0 1 forward_v I I I I #
coedge $-1 $645 $538 $582 $632 forward $287 $-1 #
coedge $-1 $660 $539 $541 $612 forward $609 $-1 #
coedge $-1 $539 $660 $586 $638 forward $609 $-1 #
loop $-1 $-1 $608 $625 #
vertex $-1 $638 $661 #
straight-curve $-1 0 -36.498581978091913 11.205767527018113 1 0 0 I I #
edge $-1 $543 -11.205767527018113 $662 11.205767527018113 $541 $663 forward 7 unknown #
face $-1 $449 $542 $15 $-1 $664 reversed single #
point $-1 -79.691152684102917 -36.498581978091913 11.205767527018113 #
straight-curve $-1 79.691152684102917 36.498581978091913 0 0 0 -1 I I #
edge $-1 $622 -79.691152684102917 $559 57.279617630066696 $554 $621 forward 7 unknown #
straight-curve $-1 -57.279617630066696 -14.725070775107294 11.205767527018113 0 -1 0 I I #
straight-curve $-1 -57.279617630066696 -14.725070775107294 -11.205767527018113 0 1 0 I I #
point $-1 -57.279617630066696 -36.498581978091913 11.205767527018113 #
point $-1 -57.279617630066696 -36.498581978091913 -11.205767527018113 #
straight-curve $-1 0 -36.498581978091913 -11.205767527018113 -1 0 0 I I #
vertex $-1 $570 $665 #
straight-curve $-1 79.691152684102917 -36.498581978091913 0 0 0 -1 I I #
straight-curve $-1 79.691152684102917 0 -11.205767527018113 0 -1 0 I I #
face $-1 $613 $609 $15 $-1 $580 reversed single #
loop $-1 $-1 $588 $578 #
plane-surface $-1 0 0 -11.205767527018113 0 0 1 1 0 0 forward_v I I I I #
coedge $-1 $666 $646 $581 $631 forward $579 $-1 #
coedge $-1 $584 $581 $645 $667 reversed $517 $-1 #
coedge $-1 $581 $584 $668 $669 reversed $517 $-1 #
edge $-1 $670 -11.205767527018113 $671 11.205767527018113 $628 $672 forward 7 unknown #
edge $-1 $590 -30.889808815033348 $635 -27.889808815033348 $606 $673 forward 7 unknown #
coedge $-1 $588 $668 $583 $634 forward $626 $-1 #
edge $-1 $636 27.889808815033348 $591 30.889808815033348 $633 $674 forward 7 unknown #
vertex $-1 $632 $675 #
vertex $-1 $634 $676 #
straight-curve $-1 -57.279617630066696 -22.401701122337265 0 0 0 -1 I I #
edge $-1 $641 -11.205767527018113 $610 11.205767527018113 $608 $677 forward 7 unknown #
straight-curve $-1 -60.279617630066696 -14.725070775107294 11.205767527018113 0 1 0 I I #
coedge $-1 $655 $588 $660 $678 forward $626 $-1 #
vertex $-1 $678 $679 #
straight-curve $-1 -60.279617630066696 -14.725070775107294 -11.205767527018113 0 -1 0 I I #
point $-1 -60.279617630066696 -22.401701122337265 11.205767527018113 #
point $-1 -60.279617630066696 -22.401701122337265 -11.205767527018113 #
coedge $-1 $593 $606 $629 $667 forward $287 $-1 #
coedge $-1 $628 $680 $593 $647 reversed $579 $-1 #
edge $-1 $670 -57.279617630066696 $650 79.691152684102917 $646 $611 forward 7 unknown #
coedge $-1 $681 $594 $680 $682 forward $604 $-1 #
coedge $-1 $594 $681 $596 $652 reversed $604 $-1 #
vertex $-1 $595 $683 #
straight-curve $-1 79.691152684102917 0 11.205767527018113 0 1 0 I I #
edge $-1 $597 -11.205767527018113 $656 11.205767527018113 $649 $684 forward 7 unknown #
point $-1 79.691152684102917 36.498581978091913 11.205767527018113 #
coedge $-1 $685 $599 $681 $686 forward $626 $-1 #
coedge $-1 $599 $640 $601 $658 forward $626 $-1 #
vertex $-1 $686 $687 #
straight-curve $-1 0 36.498581978091913 -11.205767527018113 1 0 0 I I #
edge $-1 $662 -36.498581978091913 $602 36.498581978091913 $601 $688 forward 7 unknown #
point $-1 -79.691152684102917 36.498581978091913 -11.205767527018113 #
coedge $-1 $608 $607 $640 $678 reversed $609 $-1 #
point $-1 -60.279617630066696 -36.498581978091913 11.205767527018113 #
vertex $-1 $658 $689 #
straight-curve $-1 -79.691152684102917 -36.498581978091913 0 0 0 -1 I I #
plane-surface $-1 -79.691152684102917 0 0 1 0 0 0 0 -1 forward_v I I I I #
point $-1 79.691152684102917 -36.498581978091913 -11.205767527018113 #
coedge $-1 $680 $628 $685 $690 reversed $579 $-1 #
edge $-1 $635 7.6766303472299704 $670 21.773511202984619 $645 $691 forward 7 unknown #
coedge $-1 $633 $685 $630 $669 forward $626 $-1 #
edge $-1 $671 -21.773511202984619 $636 -7.6766303472299704 $668 $692 forward 7 unknown #
vertex $-1 $647 $693 #
vertex $-1 $631 $694 #
straight-curve $-1 -57.279617630066696 -36.498581978091913 0 0 0 -1 I I #
straight-curve $-1 -29.389808815033348 -22.401701122337265 11.205767527018113 1 0 0 I I #
straight-curve $-1 -29.389808815033348 -22.401701122337265 -11.205767527018113 -1 0 0 I I #
point $-1 -57.279617630066696 -22.401701122337265 11.205767527018113 #
point $-1 -57.279617630066696 -22.401701122337265 -11.205767527018113 #
straight-curve $-1 -60.279617630066696 -36.498581978091913 0 0 0 1 I I #
edge $-1 $641 60.279617630066696 $662 79.691152684102917 $660 $695 forward 7 unknown #
point $-1 -60.279617630066696 -36.498581978091913 -11.205767527018113 #
coedge $-1 $646 $666 $648 $682 reversed $579 $-1 #
coedge $-1 $649 $648 $654 $686 reversed $604 $-1 #
edge $-1 $650 -11.205767527018113 $696 11.205767527018113 $648 $697 forward 7 unknown #
point $-1 79.691152684102917 -36.498581978091913 11.205767527018113 #
straight-curve $-1 79.691152684102917 36.498581978091913 0 0 0 -1 I I #
coedge $-1 $668 $654 $666 $690 forward $626 $-1 #
edge $-1 $656 -36.498581978091913 $696 36.498581978091913 $681 $698 forward 7 unknown #
point $-1 79.691152684102917 36.498581978091913 -11.205767527018113 #
straight-curve $-1 -79.691152684102917 0 -11.205767527018113 0 1 0 I I #
point $-1 -79.691152684102917 -36.498581978091913 -11.205767527018113 #
edge $-1 $696 -79.691152684102917 $671 57.279617630066696 $666 $695 forward 7 unknown #
straight-curve $-1 -57.279617630066696 -14.725070775107294 11.205767527018113 0 -1 0 I I #
straight-curve $-1 -57.279617630066696 -14.725070775107294 -11.205767527018113 0 1 0 I I #
point $-1 -57.279617630066696 -36.498581978091913 11.205767527018113 #
point $-1 -57.279617630066696 -36.498581978091913 -11.205767527018113 #
straight-curve $-1 0 -36.498581978091913 -11.205767527018113 -1 0 0 I I #
vertex $-1 $682 $699 #
straight-curve $-1 79.691152684102917 -36.498581978091913 0 0 0 -1 I I #
straight-curve $-1 79.691152684102917 0 -11.205767527018113 0 -1 0 I I #
point $-1 79.691152684102917 -36.498581978091913 -11.205767527018113 #
End-of-ACIS-data 