500 0 11 0           
7 Unknown 11 ACIS 5.0 NT 24 Fri Mar 26 02:02:04 1999 
-1 9.9999999999999995e-007 1e-010 
body $-1 $11 $-1 $12 #
body $-1 $13 $-1 $14 #
body $-1 $15 $-1 $16 #
body $-1 $17 $-1 $18 #
body $-1 $19 $-1 $20 #
body $-1 $21 $-1 $22 #
body $-1 $23 $-1 $24 #
body $-1 $25 $-1 $26 #
body $-1 $27 $-1 $28 #
body $-1 $29 $-1 $30 #
body $-1 $31 $-1 $32 #
lump $-1 $-1 $33 $0 #
transform $-1 1 0 0 0 1 0 0 0 1 40.84109012115848 21.288669065504525 6.2241761074996163 1 rotate no_reflect no_shear #
lump $-1 $-1 $34 $1 #
transform $-1 1 0 0 0 1 0 0 0 1 40.84109012115848 21.288669065504525 6.2241761074996163 1 rotate no_reflect no_shear #
lump $-1 $-1 $35 $2 #
transform $-1 1 0 0 0 1 0 0 0 1 40.84109012115848 21.288669065504525 6.2241761074996163 1 rotate no_reflect no_shear #
lump $-1 $-1 $36 $3 #
transform $-1 1 0 0 0 1 0 0 0 1 40.84109012115848 21.288669065504525 6.2241761074996163 1 rotate no_reflect no_shear #
lump $-1 $-1 $37 $4 #
transform $-1 1 0 0 0 1 0 0 0 1 40.84109012115848 21.288669065504525 6.2241761074996163 1 rotate no_reflect no_shear #
lump $-1 $-1 $38 $5 #
transform $-1 1 0 0 0 1 0 0 0 1 40.84109012115848 21.288669065504525 6.2241761074996163 1 rotate no_reflect no_shear #
lump $-1 $-1 $39 $6 #
transform $-1 1 0 0 0 1 0 0 0 1 40.84109012115848 21.288669065504525 6.2241761074996163 1 rotate no_reflect no_shear #
lump $-1 $-1 $40 $7 #
transform $-1 1 0 0 0 1 0 0 0 1 40.84109012115848 21.288669065504525 6.2241761074996163 1 rotate no_reflect no_shear #
lump $-1 $-1 $41 $8 #
transform $-1 1 0 0 0 1 0 0 0 1 40.84109012115848 21.288669065504525 6.2241761074996163 1 rotate no_reflect no_shear #
lump $-1 $-1 $42 $9 #
transform $-1 1 0 0 0 1 0 0 0 1 40.84109012115848 21.288669065504525 6.2241761074996163 1 rotate no_reflect no_shear #
lump $-1 $-1 $43 $10 #
transform $-1 1 0 0 0 1 0 0 0 1 40.84109012115848 21.288669065504525 6.2241761074996163 1 rotate no_reflect no_shear #
shell $-1 $-1 $-1 $44 $-1 $11 #
shell $-1 $-1 $-1 $45 $-1 $13 #
shell $-1 $-1 $-1 $46 $-1 $15 #
shell $-1 $-1 $-1 $47 $-1 $17 #
shell $-1 $-1 $-1 $48 $-1 $19 #
shell $-1 $-1 $-1 $49 $-1 $21 #
shell $-1 $-1 $-1 $50 $-1 $23 #
shell $-1 $-1 $-1 $51 $-1 $25 #
shell $-1 $-1 $-1 $52 $-1 $27 #
shell $-1 $-1 $-1 $53 $-1 $29 #
shell $-1 $-1 $-1 $54 $-1 $31 #
face $-1 $55 $56 $33 $-1 $57 forward single #
face $-1 $58 $59 $34 $-1 $60 reversed single #
face $-1 $61 $62 $35 $-1 $63 reversed single #
face $-1 $64 $65 $36 $-1 $66 reversed single #
face $-1 $67 $68 $37 $-1 $69 forward single #
face $-1 $70 $71 $38 $-1 $72 forward single #
face $-1 $73 $74 $39 $-1 $75 forward single #
face $-1 $76 $77 $40 $-1 $78 reversed single #
face $-1 $79 $80 $41 $-1 $81 forward single #
face $-1 $82 $83 $42 $-1 $84 forward single #
face $-1 $85 $86 $43 $-1 $87 forward single #
face $-1 $88 $89 $33 $-1 $90 reversed single #
loop $-1 $-1 $91 $44 #
plane-surface $-1 0 0 6.2241761074996163 0 0 1 1 0 0 forward_v I I I I #
face $-1 $92 $93 $34 $-1 $94 reversed single #
loop $-1 $-1 $95 $45 #
plane-surface $-1 -35.510658923719717 -18.414466222682361 0 1 0 0 0 0 -1 forward_v I I I I #
face $-1 $96 $97 $35 $-1 $98 reversed single #
loop $-1 $-1 $99 $46 #
plane-surface $-1 0 19.126435076576936 3.2241761074996163 0 0 1 1 0 0 forward_v I I I I #
face $-1 $100 $101 $36 $-1 $102 reversed single #
loop $-1 $-1 $103 $47 #
plane-surface $-1 -28.429326966113067 13.256624782451052 46.170553288086637 0.52991927123019833 0 0.84804809178421925 0.84804809178421925 0 -0.52991927123019833 forward_v I I I I #
face $-1 $104 $105 $37 $-1 $106 forward single #
loop $-1 $107 $108 $48 #
cone-surface $-1 37.796018457851204 11.032078999332068 3.9569255778345354 -0.52991927123019833 0 -0.84804809178421925 0.42402404589210962 0 -0.26495963561509916 1 I I 0 1 0.5 forward I I I I #
face $-1 $109 $110 $38 $-1 $111 forward single #
loop $-1 $112 $113 $49 #
cone-surface $-1 37.796018457851204 13.256624782451052 3.9569255778345354 -0.52991927123019833 0 -0.84804809178421925 0.42402404589210962 0 -0.26495963561509916 1 I I 0 1 0.5 forward I I I I #
face $-1 $114 $115 $39 $-1 $116 forward single #
loop $-1 $117 $118 $50 #
cone-surface $-1 37.796018457851204 15.481170565570036 3.9569255778345354 -0.52991927123019833 0 -0.84804809178421925 0.42402404589210962 0 -0.26495963561509916 1 I I 0 1 0.5 forward I I I I #
face $-1 $119 $120 $40 $-1 $121 reversed single #
loop $-1 $-1 $122 $51 #
plane-surface $-1 -93.345384158433092 5.1321749247474138 65.35514347435749 0 1 0 -0.64278761758704617 0 0.76604443648966558 forward_v I I I I #
face $-1 $123 $124 $41 $-1 $125 forward single #
loop $-1 $126 $127 $52 #
cone-surface $-1 -38.469157754022987 6.8613717070706315 4.1205477051972226 0.64278761758704617 0 -0.76604443648966558 0.38302221824483279 0 0.32139380879352308 1 I I 0 1 0.5 forward I I I I #
face $-1 $128 $129 $42 $-1 $130 forward single #
loop $-1 $131 $132 $53 #
cone-surface $-1 -38.469157754022987 9.4551668805554563 4.1205477051972226 0.64278761758704617 0 -0.76604443648966558 0.38302221824483279 0 0.32139380879352308 1 I I 0 1 0.5 forward I I I I #
face $-1 $133 $134 $43 $-1 $135 forward single #
loop $-1 $136 $137 $54 #
cone-surface $-1 -38.469157754022987 12.048962054040285 4.1205477051972226 0.64278761758704617 0 -0.76604443648966558 0.38302221824483279 0 0.32139380879352308 1 I I 0 1 0.5 forward I I I I #
face $-1 $138 $139 $33 $-1 $140 reversed single #
loop $-1 $-1 $141 $55 #
plane-surface $-1 0 0 -6.2241761074996163 0 0 1 1 0 0 forward_v I I I I #
coedge $-1 $142 $143 $144 $145 forward $56 $-1 #
face $-1 $146 $147 $34 $-1 $148 reversed single #
loop $-1 $-1 $149 $58 #
plane-surface $-1 -34.010658923719717 -15.540263379860196 0 0 -1 0 0 0 -1 forward_v I I I I #
coedge $-1 $150 $151 $152 $153 forward $59 $-1 #
face $-1 $154 $155 $35 $-1 $156 reversed single #
loop $-1 $-1 $157 $61 #
plane-surface $-1 0 16.964201087649347 4.7241761074996163 0 1 0 0 0 1 forward_v I I I I #
coedge $-1 $158 $159 $160 $161 reversed $62 $-1 #
face $-1 $162 $163 $36 $-1 $164 reversed single #
loop $-1 $-1 $165 $64 #
plane-surface $-1 14.85563446038924 9.5490484772527466 115.44097037535819 0 1 0 0.52991927123019833 0 0.84804809178421925 forward_v I I I I #
coedge $-1 $166 $167 $168 $169 reversed $65 $-1 #
face $-1 $-1 $170 $37 $-1 $171 forward single #
loop $-1 $172 $173 $67 #
cone-surface $-1 37.289892751115694 11.032078999332068 3.1469551481810427 -0.52991927123019833 0 -0.84804809178421925 0.21201202294605481 0 -0.13247981780754958 1 I I -0.70710678118654746 0.70710678118654746 0.25 forward I I I I #
loop $-1 $-1 $174 $48 #
coedge $-1 $108 $108 $175 $176 reversed $68 $-1 #
face $-1 $-1 $177 $38 $-1 $178 forward single #
loop $-1 $179 $180 $70 #
cone-surface $-1 37.289892751115694 13.256624782451052 3.1469551481810427 -0.52991927123019833 0 -0.84804809178421925 0.21201202294605481 0 -0.13247981780754958 1 I I -0.70710678118654746 0.70710678118654746 0.25 forward I I I I #
loop $-1 $-1 $181 $49 #
coedge $-1 $113 $113 $182 $183 reversed $71 $-1 #
face $-1 $-1 $184 $39 $-1 $185 forward single #
loop $-1 $186 $187 $73 #
cone-surface $-1 37.289892751115694 15.481170565570036 3.1469551481810427 -0.52991927123019833 0 -0.84804809178421925 0.21201202294605481 0 -0.13247981780754958 1 I I -0.70710678118654746 0.70710678118654746 0.25 forward I I I I #
loop $-1 $-1 $188 $50 #
coedge $-1 $118 $118 $189 $190 reversed $74 $-1 #
face $-1 $191 $192 $40 $-1 $193 reversed single #
loop $-1 $-1 $194 $76 #
plane-surface $-1 -40.84109012115848 9.4551668805554563 2.782963739384499 -0.64278761758704617 0 0.76604443648966558 0.76604443648966558 0 0.64278761758704617 forward_v I I I I #
coedge $-1 $195 $196 $197 $198 reversed $77 $-1 #
face $-1 $-1 $199 $41 $-1 $200 forward single #
loop $-1 $201 $202 $79 #
cone-surface $-1 -37.987067040832706 6.8613717070706315 3.5460143778299731 0.64278761758704617 0 -0.76604443648966558 0.1915111091224164 0 0.16069690439676154 1 I I -0.70710678118654746 0.70710678118654746 0.25 forward I I I I #
loop $-1 $-1 $203 $52 #
coedge $-1 $127 $127 $204 $205 reversed $80 $-1 #
face $-1 $-1 $206 $42 $-1 $207 forward single #
loop $-1 $208 $209 $82 #
cone-surface $-1 -37.987067040832706 9.4551668805554563 3.5460143778299731 0.64278761758704617 0 -0.76604443648966558 0.1915111091224164 0 0.16069690439676154 1 I I -0.70710678118654746 0.70710678118654746 0.25 forward I I I I #
loop $-1 $-1 $210 $53 #
coedge $-1 $132 $132 $211 $212 reversed $83 $-1 #
face $-1 $-1 $213 $43 $-1 $214 forward single #
loop $-1 $215 $216 $85 #
cone-surface $-1 -37.987067040832706 12.048962054040285 3.5460143778299731 0.64278761758704617 0 -0.76604443648966558 0.1915111091224164 0 0.16069690439676154 1 I I -0.70710678118654746 0.70710678118654746 0.25 forward I I I I #
loop $-1 $-1 $217 $54 #
coedge $-1 $137 $137 $218 $219 reversed $86 $-1 #
face $-1 $220 $221 $33 $-1 $222 reversed single #
loop $-1 $-1 $223 $88 #
plane-surface $-1 0 -21.288669065504525 0 0 1 0 0 0 1 forward_v I I I I #
coedge $-1 $224 $225 $226 $227 forward $89 $-1 #
coedge $-1 $228 $91 $229 $230 forward $56 $-1 #
coedge $-1 $91 $228 $231 $232 forward $56 $-1 #
coedge $-1 $233 $234 $91 $145 reversed $235 $-1 #
edge $-1 $236 -21.288669065504525 $237 21.288669065504525 $144 $238 forward 7 unknown #
face $-1 $239 $240 $34 $-1 $241 forward single #
loop $-1 $-1 $242 $92 #
plane-surface $-1 -32.510658923719717 -18.414466222682361 0 -1 0 0 0 0 1 forward_v I I I I #
coedge $-1 $243 $244 $245 $246 forward $93 $-1 #
coedge $-1 $247 $95 $248 $249 reversed $59 $-1 #
coedge $-1 $95 $247 $250 $251 reversed $59 $-1 #
coedge $-1 $244 $243 $95 $153 reversed $93 $-1 #
edge $-1 $252 -6.2241761074996163 $253 6.2241761074996163 $152 $254 forward 7 unknown #
face $-1 $255 $256 $35 $-1 $257 reversed single #
loop $-1 $-1 $258 $96 #
plane-surface $-1 40.84109012115848 0 0 -1 0 0 0 0 1 forward_v I I I I #
coedge $-1 $259 $260 $261 $262 reversed $97 $-1 #
coedge $-1 $263 $99 $259 $264 forward $62 $-1 #
coedge $-1 $99 $263 $265 $266 reversed $62 $-1 #
coedge $-1 $267 $258 $99 $161 forward $155 $-1 #
edge $-1 $268 7.4009835493608787 $269 11.725451527216057 $160 $270 forward 7 unknown #
face $-1 $271 $272 $36 $-1 $273 forward single #
loop $-1 $-1 $274 $100 #
plane-surface $-1 40.84109012115848 0 0 -1 0 0 0 0 1 forward_v I I I I #
coedge $-1 $275 $276 $277 $278 reversed $101 $-1 #
coedge $-1 $279 $103 $280 $281 reversed $65 $-1 #
coedge $-1 $103 $279 $275 $282 forward $65 $-1 #
coedge $-1 $277 $283 $103 $169 forward $284 $-1 #
edge $-1 $285 -10.335888696423821 $286 -2.9207360860272207 $168 $287 forward 7 unknown #
loop $-1 $-1 $175 $104 #
plane-surface $-1 -28.429326966113067 13.256624782451052 46.170553288086637 0.52991927123019833 0 0.84804809178421925 0.84804809178421925 0 -0.52991927123019833 forward_v I I I I #
loop $-1 $-1 $288 $67 #
coedge $-1 $173 $173 $174 $289 reversed $105 $-1 #
coedge $-1 $174 $174 $173 $289 forward $107 $-1 #
coedge $-1 $175 $175 $108 $176 forward $170 $-1 #
edge $-1 $290 0 $290 6.2831853071796004 $175 $291 forward 7 unknown #
loop $-1 $-1 $182 $109 #
plane-surface $-1 -28.429326966113067 13.256624782451052 46.170553288086637 0.52991927123019833 0 0.84804809178421925 0.84804809178421925 0 -0.52991927123019833 forward_v I I I I #
loop $-1 $-1 $292 $70 #
coedge $-1 $180 $180 $181 $293 reversed $110 $-1 #
coedge $-1 $181 $181 $180 $293 forward $112 $-1 #
coedge $-1 $182 $182 $113 $183 forward $177 $-1 #
edge $-1 $294 0 $294 6.2831853071796004 $182 $295 forward 7 unknown #
loop $-1 $-1 $189 $114 #
plane-surface $-1 -28.429326966113067 13.256624782451052 46.170553288086637 0.52991927123019833 0 0.84804809178421925 0.84804809178421925 0 -0.52991927123019833 forward_v I I I I #
loop $-1 $-1 $296 $73 #
coedge $-1 $187 $187 $188 $297 reversed $115 $-1 #
coedge $-1 $188 $188 $187 $297 forward $117 $-1 #
coedge $-1 $189 $189 $118 $190 forward $184 $-1 #
edge $-1 $298 0 $298 6.2831853071796004 $189 $299 forward 7 unknown #
face $-1 $300 $301 $40 $-1 $302 reversed single #
loop $-1 $-1 $303 $119 #
plane-surface $-1 -93.345384158433092 13.778158836363499 65.35514347435749 0 -1 0 0.64278761758704617 0 -0.76604443648966558 forward_v I I I I #
coedge $-1 $304 $305 $306 $307 reversed $120 $-1 #
coedge $-1 $196 $122 $308 $309 reversed $77 $-1 #
coedge $-1 $122 $195 $304 $310 reversed $77 $-1 #
coedge $-1 $306 $311 $122 $198 forward $312 $-1 #
edge $-1 $313 5.8316019580580658 $314 9.9326790747419906 $197 $315 forward 7 unknown #
loop $-1 $-1 $204 $123 #
plane-surface $-1 -40.84109012115848 9.4551668805554563 2.782963739384499 -0.64278761758704617 0 0.76604443648966558 0.76604443648966558 0 0.64278761758704617 forward_v I I I I #
loop $-1 $-1 $316 $79 #
coedge $-1 $202 $202 $203 $317 reversed $124 $-1 #
coedge $-1 $203 $203 $202 $317 forward $126 $-1 #
coedge $-1 $204 $204 $127 $205 forward $199 $-1 #
edge $-1 $318 0 $318 6.2831853071796004 $204 $319 forward 7 unknown #
loop $-1 $-1 $211 $128 #
plane-surface $-1 -40.84109012115848 9.4551668805554563 2.782963739384499 -0.64278761758704617 0 0.76604443648966558 0.76604443648966558 0 0.64278761758704617 forward_v I I I I #
loop $-1 $-1 $320 $82 #
coedge $-1 $209 $209 $210 $321 reversed $129 $-1 #
coedge $-1 $210 $210 $209 $321 forward $131 $-1 #
coedge $-1 $211 $211 $132 $212 forward $206 $-1 #
edge $-1 $322 0 $322 6.2831853071796004 $211 $323 forward 7 unknown #
loop $-1 $-1 $218 $133 #
plane-surface $-1 -40.84109012115848 9.4551668805554563 2.782963739384499 -0.64278761758704617 0 0.76604443648966558 0.76604443648966558 0 0.64278761758704617 forward_v I I I I #
loop $-1 $-1 $324 $85 #
coedge $-1 $216 $216 $217 $325 reversed $134 $-1 #
coedge $-1 $217 $217 $216 $325 forward $136 $-1 #
coedge $-1 $218 $218 $137 $219 forward $213 $-1 #
edge $-1 $326 0 $326 6.2831853071796004 $218 $327 forward 7 unknown #
face $-1 $328 $329 $33 $-1 $330 reversed single #
loop $-1 $-1 $331 $138 #
plane-surface $-1 -40.84109012115848 0 0 1 0 0 0 0 -1 forward_v I I I I #
coedge $-1 $332 $231 $333 $334 forward $139 $-1 #
coedge $-1 $335 $141 $332 $336 forward $89 $-1 #
coedge $-1 $141 $335 $337 $338 forward $89 $-1 #
coedge $-1 $234 $233 $141 $227 reversed $235 $-1 #
edge $-1 $339 -21.288669065504525 $340 21.288669065504525 $226 $341 forward 7 unknown #
coedge $-1 $143 $142 $342 $343 forward $56 $-1 #
coedge $-1 $344 $345 $142 $230 reversed $329 $-1 #
edge $-1 $237 -40.84109012115848 $346 40.84109012115848 $229 $347 forward 7 unknown #
coedge $-1 $223 $348 $143 $232 reversed $139 $-1 #
edge $-1 $349 -40.84109012115848 $236 40.84109012115848 $231 $350 forward 7 unknown #
coedge $-1 $226 $144 $348 $351 forward $235 $-1 #
coedge $-1 $144 $226 $344 $352 reversed $235 $-1 #
loop $-1 $-1 $233 $328 #
vertex $-1 $145 $353 #
vertex $-1 $145 $354 #
straight-curve $-1 40.84109012115848 0 6.2241761074996163 0 1 0 I I #
face $-1 $355 $356 $34 $-1 $357 reversed single #
loop $-1 $-1 $358 $146 #
plane-surface $-1 0 0 6.2241761074996163 0 0 1 1 0 0 forward_v I I I I #
coedge $-1 $359 $360 $361 $362 reversed $147 $-1 #
coedge $-1 $152 $149 $363 $364 reversed $93 $-1 #
coedge $-1 $149 $152 $365 $366 reversed $93 $-1 #
coedge $-1 $360 $359 $149 $246 reversed $147 $-1 #
edge $-1 $367 -6.2241761074996163 $368 6.2241761074996163 $245 $369 forward 7 unknown #
coedge $-1 $151 $150 $370 $371 reversed $59 $-1 #
coedge $-1 $363 $372 $150 $249 forward $356 $-1 #
edge $-1 $373 -12.081435954163345 $253 -6.3330302685190158 $248 $374 forward 7 unknown #
coedge $-1 $375 $365 $151 $251 forward $240 $-1 #
edge $-1 $252 6.3330302685190158 $376 12.081435954163345 $250 $377 forward 7 unknown #
vertex $-1 $251 $378 #
vertex $-1 $249 $379 #
straight-curve $-1 -35.510658923719717 -15.540263379860196 0 0 0 -1 I I #
face $-1 $380 $381 $35 $-1 $382 forward single #
loop $-1 $-1 $265 $154 #
plane-surface $-1 0 21.288669065504525 0 0 -1 0 0 0 -1 forward_v I I I I #
coedge $-1 $160 $383 $384 $385 forward $155 $-1 #
coedge $-1 $384 $157 $158 $264 reversed $97 $-1 #
coedge $-1 $157 $384 $386 $387 reversed $97 $-1 #
coedge $-1 $388 $389 $157 $262 forward $390 $-1 #
edge $-1 $391 0.86208805374980813 $392 3.8620880537498081 $261 $393 forward 7 unknown #
coedge $-1 $159 $158 $389 $394 reversed $62 $-1 #
edge $-1 $268 -40.84109012115848 $391 40.84109012115848 $259 $395 forward 7 unknown #
coedge $-1 $396 $397 $159 $266 forward $256 $-1 #
edge $-1 $269 -40.84109012115848 $398 40.84109012115848 $265 $399 forward 7 unknown #
coedge $-1 $383 $160 $397 $400 reversed $155 $-1 #
vertex $-1 $161 $401 #
vertex $-1 $266 $402 #
straight-curve $-1 40.84109012115848 9.5632175382884679 3.2241761074996163 0 1 0 I I #
face $-1 $-1 $284 $36 $-1 $403 forward single #
loop $-1 $-1 $280 $162 #
plane-surface $-1 0 16.964201087649347 4.7241761074996163 0 1 0 0 0 1 forward_v I I I I #
coedge $-1 $404 $405 $276 $406 forward $163 $-1 #
coedge $-1 $276 $165 $167 $282 reversed $101 $-1 #
coedge $-1 $165 $275 $274 $406 reversed $101 $-1 #
coedge $-1 $407 $168 $165 $278 forward $284 $-1 #
edge $-1 $286 28.070421342205229 $408 33.41327289096386 $277 $409 forward 7 unknown #
coedge $-1 $167 $166 $404 $410 reversed $65 $-1 #
coedge $-1 $411 $412 $166 $281 forward $272 $-1 #
edge $-1 $413 -58.645845004821737 $285 -52.345669813674576 $280 $414 forward 7 unknown #
edge $-1 $415 -81.682180242316946 $286 -75.382005051169784 $275 $416 forward 7 unknown #
coedge $-1 $168 $407 $411 $417 forward $284 $-1 #
loop $-1 $-1 $277 $271 #
vertex $-1 $281 $418 #
vertex $-1 $169 $419 #
straight-curve $-1 35.498238572399849 6.628312391225526 6.2241761074996127 0 -1 0 I I #
coedge $-1 $288 $288 $-1 $420 reversed $172 $-1 #
edge $-1 $421 0 $421 6.2831853071796004 $173 $422 forward 7 unknown #
vertex $-1 $176 $423 #
ellipse-curve $-1 38.169664346779165 11.032078999332068 4.5548839845419735 0.52991927123019833 0 0.84804809178421925 0.42402404589210962 0 -0.26495963561509916 1 I I #
coedge $-1 $292 $292 $-1 $424 reversed $179 $-1 #
edge $-1 $425 0 $425 6.2831853071796004 $180 $426 forward 7 unknown #
vertex $-1 $183 $427 #
ellipse-curve $-1 38.169664346779165 13.256624782451052 4.5548839845419735 0.52991927123019833 0 0.84804809178421925 0.42402404589210962 0 -0.26495963561509916 1 I I #
coedge $-1 $296 $296 $-1 $428 reversed $186 $-1 #
edge $-1 $429 0 $429 6.2831853071796004 $187 $430 forward 7 unknown #
vertex $-1 $190 $431 #
ellipse-curve $-1 38.169664346779165 15.481170565570036 4.5548839845419735 0.52991927123019833 0 0.84804809178421925 0.42402404589210962 0 -0.26495963561509916 1 I I #
face $-1 $-1 $312 $40 $-1 $432 forward single #
loop $-1 $-1 $433 $191 #
plane-surface $-1 -40.84109012115848 0 0 1 0 0 0 0 -1 forward_v I I I I #
coedge $-1 $434 $435 $436 $437 reversed $192 $-1 #
coedge $-1 $438 $194 $196 $310 forward $120 $-1 #
coedge $-1 $194 $438 $434 $439 forward $120 $-1 #
coedge $-1 $436 $197 $194 $307 forward $312 $-1 #
edge $-1 $314 0.40459148446968562 $440 9.0505753960857707 $306 $441 forward 7 unknown #
coedge $-1 $442 $443 $195 $309 forward $301 $-1 #
edge $-1 $444 -29.894607997794246 $313 -26.453395629679129 $308 $445 forward 7 unknown #
edge $-1 $314 -5.3535760085625927 $444 0 $196 $446 forward 7 unknown #
coedge $-1 $197 $436 $442 $447 forward $312 $-1 #
loop $-1 $-1 $436 $300 #
vertex $-1 $309 $448 #
vertex $-1 $198 $449 #
straight-curve $-1 -46.672692079216546 5.1321749247474138 6.2241761074996163 1 0 0 I I #
coedge $-1 $316 $316 $-1 $450 reversed $201 $-1 #
edge $-1 $451 0 $451 6.2831853071796004 $202 $452 forward 7 unknown #
vertex $-1 $205 $453 #
ellipse-curve $-1 -38.790551562816518 6.8613717070706315 4.5035699234420603 -0.64278761758704617 0 0.76604443648966558 0.38302221824483279 0 0.32139380879352308 1 I I #
coedge $-1 $320 $320 $-1 $454 reversed $208 $-1 #
edge $-1 $455 0 $455 6.2831853071796004 $209 $456 forward 7 unknown #
vertex $-1 $212 $457 #
ellipse-curve $-1 -38.790551562816518 9.4551668805554563 4.5035699234420603 -0.64278761758704617 0 0.76604443648966558 0.38302221824483279 0 0.32139380879352308 1 I I #
coedge $-1 $324 $324 $-1 $458 reversed $215 $-1 #
edge $-1 $459 0 $459 6.2831853071796004 $216 $460 forward 7 unknown #
vertex $-1 $219 $461 #
ellipse-curve $-1 -38.790551562816518 12.048962054040285 4.5035699234420603 -0.64278761758704617 0 0.76604443648966558 0.38302221824483279 0 0.32139380879352308 1 I I #
face $-1 $-1 $235 $33 $-1 $462 reversed single #
loop $-1 $-1 $344 $220 #
plane-surface $-1 0 21.288669065504525 0 0 -1 0 0 0 -1 forward_v I I I I #
coedge $-1 $463 $342 $345 $464 forward $221 $-1 #
coedge $-1 $348 $223 $224 $336 reversed $139 $-1 #
coedge $-1 $342 $463 $223 $334 reversed $221 $-1 #
edge $-1 $349 -6.2241761074996163 $465 6.2241761074996163 $333 $466 forward 7 unknown #
coedge $-1 $225 $224 $463 $467 forward $89 $-1 #
edge $-1 $340 -40.84109012115848 $465 40.84109012115848 $332 $468 forward 7 unknown #
coedge $-1 $345 $344 $225 $338 reversed $329 $-1 #
edge $-1 $469 -40.84109012115848 $339 40.84109012115848 $337 $470 forward 7 unknown #
vertex $-1 $227 $471 #
vertex $-1 $351 $472 #
straight-curve $-1 40.84109012115848 0 -6.2241761074996163 0 -1 0 I I #
coedge $-1 $331 $333 $228 $343 reversed $221 $-1 #
edge $-1 $346 -21.288669065504525 $349 21.288669065504525 $342 $473 forward 7 unknown #
coedge $-1 $337 $229 $234 $352 forward $329 $-1 #
coedge $-1 $229 $337 $331 $464 reversed $329 $-1 #
vertex $-1 $230 $474 #
straight-curve $-1 0 21.288669065504525 6.2241761074996163 -1 0 0 I I #
coedge $-1 $231 $332 $233 $351 reversed $139 $-1 #
vertex $-1 $343 $475 #
straight-curve $-1 0 -21.288669065504525 6.2241761074996163 1 0 0 I I #
edge $-1 $236 -6.2241761074996163 $340 6.2241761074996163 $233 $476 forward 7 unknown #
edge $-1 $237 -6.2241761074996163 $339 6.2241761074996163 $234 $477 forward 7 unknown #
point $-1 40.84109012115848 -21.288669065504525 6.2241761074996163 #
point $-1 40.84109012115848 21.288669065504525 6.2241761074996163 #
face $-1 $-1 $478 $34 $-1 $479 reversed single #
loop $-1 $-1 $480 $239 #
plane-surface $-1 0 0 -6.2241761074996163 0 0 1 1 0 0 forward_v I I I I #
coedge $-1 $365 $375 $360 $481 forward $240 $-1 #
coedge $-1 $245 $242 $480 $482 reversed $147 $-1 #
coedge $-1 $242 $245 $358 $481 reversed $147 $-1 #
coedge $-1 $483 $484 $242 $362 forward $478 $-1 #
edge $-1 $485 -6.2241761074996163 $486 6.2241761074996163 $361 $487 forward 7 unknown #
coedge $-1 $480 $248 $243 $364 forward $356 $-1 #
edge $-1 $253 -18.505329461859858 $368 -15.505329461859858 $363 $488 forward 7 unknown #
coedge $-1 $250 $358 $244 $366 forward $240 $-1 #
edge $-1 $367 15.505329461859858 $252 18.505329461859858 $365 $489 forward 7 unknown #
vertex $-1 $366 $490 #
vertex $-1 $364 $491 #
straight-curve $-1 -32.510658923719717 -15.540263379860196 0 0 0 -1 I I #
coedge $-1 $484 $483 $247 $371 forward $478 $-1 #
edge $-1 $376 -6.2241761074996163 $373 6.2241761074996163 $370 $492 forward 7 unknown #
coedge $-1 $248 $480 $484 $493 forward $356 $-1 #
vertex $-1 $249 $494 #
straight-curve $-1 -35.510658923719717 -9.2072331113411803 -6.2241761074996163 0 1 0 I I #
coedge $-1 $358 $250 $483 $495 forward $240 $-1 #
vertex $-1 $495 $496 #
straight-curve $-1 -35.510658923719717 -9.2072331113411803 6.2241761074996163 0 -1 0 I I #
point $-1 -35.510658923719717 -15.540263379860196 6.2241761074996163 #
point $-1 -35.510658923719717 -15.540263379860196 -6.2241761074996163 #
face $-1 $-1 $390 $35 $-1 $497 reversed single #
loop $-1 $-1 $386 $255 #
plane-surface $-1 0 0 6.2241761074996163 0 0 1 1 0 0 forward_v I I I I #
coedge $-1 $258 $267 $498 $499 reversed $155 $-1 #
coedge $-1 $260 $259 $258 $385 reversed $97 $-1 #
edge $-1 $500 -3.8620880537498081 $268 -0.86208805374980813 $258 $501 forward 7 unknown #
coedge $-1 $498 $502 $260 $387 forward $381 $-1 #
edge $-1 $392 -40.84109012115848 $500 40.84109012115848 $386 $503 forward 7 unknown #
coedge $-1 $504 $261 $502 $505 reversed $390 $-1 #
coedge $-1 $261 $504 $263 $394 forward $390 $-1 #
loop $-1 $-1 $261 $380 #
vertex $-1 $394 $506 #
vertex $-1 $262 $507 #
straight-curve $-1 -40.84109012115848 16.964201087649347 2.3620880537498081 0 0 1 I I #
edge $-1 $398 -11.725451527216057 $391 -7.4009835493608787 $389 $508 forward 7 unknown #
straight-curve $-1 0 16.964201087649347 3.2241761074996163 -1 0 0 I I #
coedge $-1 $509 $265 $504 $510 reversed $256 $-1 #
coedge $-1 $265 $509 $267 $400 forward $256 $-1 #
vertex $-1 $266 $511 #
straight-curve $-1 0 21.288669065504525 3.2241761074996163 -1 0 0 I I #
edge $-1 $512 -6.2241761074996163 $269 -3.2241761074996163 $267 $513 forward 7 unknown #
point $-1 40.84109012115848 16.964201087649347 3.2241761074996163 #
point $-1 40.84109012115848 21.288669065504525 3.2241761074996163 #
plane-surface $-1 0 0 6.2241761074996163 0 0 1 1 0 0 forward_v I I I I #
coedge $-1 $514 $274 $279 $410 forward $163 $-1 #
coedge $-1 $274 $514 $407 $515 reversed $163 $-1 #
edge $-1 $408 51.496309080179479 $415 54.834893326094758 $274 $516 forward 7 unknown #
coedge $-1 $283 $277 $405 $515 forward $284 $-1 #
vertex $-1 $515 $517 #
straight-curve $-1 7.4278172301946199 9.5490484772527466 6.2241761074996163 1 0 0 I I #
edge $-1 $415 2.9207360860272207 $413 10.335888696423831 $404 $518 forward 7 unknown #
coedge $-1 $412 $280 $283 $417 reversed $272 $-1 #
coedge $-1 $280 $411 $514 $519 reversed $272 $-1 #
vertex $-1 $519 $520 #
straight-curve $-1 -8.8934068262536812 16.964201087649347 33.963155307218642 -0.84804809178421925 0 0.52991927123019833 I I #
vertex $-1 $410 $521 #
straight-curve $-1 -28.429326966113067 9.5490484772527466 46.170553288086637 -0.84804809178421925 0 0.52991927123019833 I I #
edge $-1 $522 -40.84109012115848 $285 -35.498238572399842 $283 $523 forward 7 unknown #
point $-1 35.498238572399842 16.964201087649347 6.2241761074996163 #
point $-1 35.498238572399849 9.5490484772527466 6.2241761074996163 #
edge $-1 $524 1 $524 0 $288 $-1 forward 7 unknown #
vertex $-1 $289 $525 #
ellipse-curve $-1 37.422372568923244 11.032078999332068 3.3589671711270976 0.52991927123019833 0 0.84804809178421925 0.42402404589210962 0 -0.26495963561509916 1 I I #
point $-1 38.593688392671275 11.032078999332068 4.2899243489268732 #
edge $-1 $526 1 $526 0 $292 $-1 forward 7 unknown #
vertex $-1 $293 $527 #
ellipse-curve $-1 37.422372568923244 13.256624782451052 3.3589671711270976 0.52991927123019833 0 0.84804809178421925 0.42402404589210962 0 -0.26495963561509916 1 I I #
point $-1 38.593688392671275 13.256624782451052 4.2899243489268732 #
edge $-1 $528 1 $528 0 $296 $-1 forward 7 unknown #
vertex $-1 $297 $529 #
ellipse-curve $-1 37.422372568923244 15.481170565570036 3.3589671711270976 0.52991927123019833 0 0.84804809178421925 0.42402404589210962 0 -0.26495963561509916 1 I I #
point $-1 38.593688392671275 15.481170565570036 4.2899243489268732 #
plane-surface $-1 0 0 6.2241761074996163 0 0 1 1 0 0 forward_v I I I I #
coedge $-1 $443 $442 $435 $530 forward $301 $-1 #
coedge $-1 $435 $303 $305 $439 reversed $192 $-1 #
coedge $-1 $303 $434 $433 $530 reversed $192 $-1 #
coedge $-1 $311 $306 $303 $437 forward $312 $-1 #
edge $-1 $440 -9.9326790747419906 $531 -5.8316019580580658 $436 $532 forward 7 unknown #
coedge $-1 $305 $304 $443 $533 reversed $120 $-1 #
edge $-1 $534 0 $440 5.3535760085625927 $434 $535 forward 7 unknown #
vertex $-1 $307 $536 #
straight-curve $-1 -36.740013004474555 4.7275834402777281 6.2241761074996171 0 1 0 I I #
coedge $-1 $433 $308 $311 $447 reversed $301 $-1 #
coedge $-1 $308 $433 $438 $533 forward $301 $-1 #
vertex $-1 $309 $537 #
straight-curve $-1 -40.84109012115848 5.1321749247474138 32.677571737178745 0 0 1 I I #
straight-curve $-1 -40.84109012115848 5.1321749247474138 2.782963739384499 -0.76604443648966558 0 -0.64278761758704617 I I #
edge $-1 $531 -13.778158836363499 $313 -5.1321749247474138 $442 $538 forward 7 unknown #
point $-1 -40.84109012115848 5.1321749247474138 6.2241761074996163 #
point $-1 -36.740013004474555 5.1321749247474138 6.2241761074996163 #
edge $-1 $539 1 $539 0 $316 $-1 forward 7 unknown #
vertex $-1 $317 $540 #
ellipse-curve $-1 -38.147763945229464 6.8613717070706315 3.7375254869523893 -0.64278761758704617 0 0.76604443648966558 0.38302221824483279 0 0.32139380879352308 1 I I #
point $-1 -38.407529344571678 6.8613717070706315 4.8249637322355783 #
edge $-1 $541 1 $541 0 $320 $-1 forward 7 unknown #
vertex $-1 $321 $542 #
ellipse-curve $-1 -38.147763945229464 9.4551668805554563 3.7375254869523893 -0.64278761758704617 0 0.76604443648966558 0.38302221824483279 0 0.32139380879352308 1 I I #
point $-1 -38.407529344571678 9.4551668805554563 4.8249637322355783 #
edge $-1 $543 1 $543 0 $324 $-1 forward 7 unknown #
vertex $-1 $325 $544 #
ellipse-curve $-1 -38.147763945229464 12.048962054040285 3.7375254869523893 -0.64278761758704617 0 0.76604443648966558 0.38302221824483279 0 0.32139380879352308 1 I I #
point $-1 -38.407529344571678 12.048962054040285 4.8249637322355783 #
plane-surface $-1 40.84109012115848 0 0 -1 0 0 0 0 1 forward_v I I I I #
coedge $-1 $333 $331 $335 $467 reversed $221 $-1 #
edge $-1 $346 -6.2241761074996163 $469 6.2241761074996163 $345 $545 forward 7 unknown #
vertex $-1 $467 $546 #
straight-curve $-1 -40.84109012115848 -21.288669065504525 0 0 0 -1 I I #
edge $-1 $465 -21.288669065504525 $469 21.288669065504525 $463 $547 forward 7 unknown #
straight-curve $-1 0 -21.288669065504525 -6.2241761074996163 -1 0 0 I I #
vertex $-1 $338 $548 #
straight-curve $-1 0 21.288669065504525 -6.2241761074996163 1 0 0 I I #
point $-1 40.84109012115848 21.288669065504525 -6.2241761074996163 #
point $-1 40.84109012115848 -21.288669065504525 -6.2241761074996163 #
straight-curve $-1 -40.84109012115848 0 6.2241761074996163 0 -1 0 I I #
point $-1 -40.84109012115848 21.288669065504525 6.2241761074996163 #
point $-1 -40.84109012115848 -21.288669065504525 6.2241761074996163 #
straight-curve $-1 40.84109012115848 -21.288669065504525 0 0 0 -1 I I #
straight-curve $-1 40.84109012115848 21.288669065504525 0 0 0 -1 I I #
loop $-1 $-1 $361 $355 #
plane-surface $-1 0 -21.288669065504525 0 0 1 0 0 0 1 forward_v I I I I #
coedge $-1 $372 $363 $359 $482 forward $356 $-1 #
edge $-1 $486 -12.081435954163345 $367 -6.3330302685190158 $358 $549 forward 7 unknown #
edge $-1 $368 6.3330302685190158 $485 12.081435954163345 $480 $550 forward 7 unknown #
coedge $-1 $370 $361 $375 $495 reversed $478 $-1 #
coedge $-1 $361 $370 $372 $493 reversed $478 $-1 #
vertex $-1 $493 $551 #
vertex $-1 $362 $552 #
straight-curve $-1 -32.510658923719717 -21.288669065504525 0 0 0 1 I I #
straight-curve $-1 -17.005329461859858 -15.540263379860196 -6.2241761074996163 1 0 0 I I #
straight-curve $-1 -17.005329461859858 -15.540263379860196 6.2241761074996163 -1 0 0 I I #
point $-1 -32.510658923719717 -15.540263379860196 6.2241761074996163 #
point $-1 -32.510658923719717 -15.540263379860196 -6.2241761074996163 #
straight-curve $-1 -35.510658923719717 -21.288669065504525 0 0 0 -1 I I #
edge $-1 $485 32.510658923719717 $373 35.510658923719717 $484 $553 forward 7 unknown #
point $-1 -35.510658923719717 -21.288669065504525 -6.2241761074996163 #
edge $-1 $376 -35.510658923719717 $486 -32.510658923719717 $483 $554 forward 7 unknown #
point $-1 -35.510658923719717 -21.288669065504525 6.2241761074996163 #
plane-surface $-1 -40.84109012115848 0 0 1 0 0 0 0 -1 forward_v I I I I #
coedge $-1 $555 $386 $383 $499 forward $381 $-1 #
edge $-1 $500 16.964201087649347 $512 21.288669065504525 $383 $556 forward 7 unknown #
vertex $-1 $499 $557 #
straight-curve $-1 40.84109012115848 16.964201087649347 2.3620880537498081 0 0 -1 I I #
coedge $-1 $386 $555 $388 $505 forward $381 $-1 #
straight-curve $-1 0 16.964201087649347 6.2241761074996163 1 0 0 I I #
coedge $-1 $389 $388 $396 $510 forward $390 $-1 #
edge $-1 $558 -21.288669065504525 $392 -16.964201087649347 $388 $559 forward 7 unknown #
point $-1 -40.84109012115848 16.964201087649347 3.2241761074996163 #
point $-1 -40.84109012115848 16.964201087649347 6.2241761074996163 #
straight-curve $-1 -40.84109012115848 9.5632175382884679 3.2241761074996163 0 -1 0 I I #
coedge $-1 $397 $396 $555 $560 reversed $256 $-1 #
edge $-1 $558 -6.2241761074996163 $398 -3.2241761074996163 $396 $561 forward 7 unknown #
point $-1 -40.84109012115848 21.288669065504525 3.2241761074996163 #
vertex $-1 $499 $562 #
straight-curve $-1 40.84109012115848 21.288669065504525 0 0 0 -1 I I #
coedge $-1 $405 $404 $412 $519 forward $163 $-1 #
edge $-1 $408 9.5490484772527466 $522 16.964201087649347 $405 $563 forward 7 unknown #
straight-curve $-1 40.84109012115848 9.5490484772527466 57.720485187679095 0 0 -1 I I #
point $-1 40.84109012115848 9.5490484772527466 6.2241761074996163 #
straight-curve $-1 40.841090121158487 6.628312391225526 2.8855918615843308 0 1 0 I I #
edge $-1 $413 -54.834893326094758 $522 -51.496309080179479 $514 $564 forward 7 unknown #
point $-1 40.841090121158473 16.964201087649357 2.8855918615843379 #
point $-1 40.841090121158473 9.5490484772527466 2.8855918615843379 #
vertex $-1 $417 $565 #
straight-curve $-1 0 16.964201087649347 6.2241761074996163 -1 0 0 I I #
vertex $-1 $420 $566 #
point $-1 37.846396614815355 11.032078999332068 3.0940075355119983 #
vertex $-1 $424 $567 #
point $-1 37.846396614815355 13.256624782451052 3.0940075355119983 #
vertex $-1 $428 $568 #
point $-1 37.846396614815355 15.481170565570036 3.0940075355119983 #
edge $-1 $531 26.453395629679129 $534 29.894607997794246 $433 $569 forward 7 unknown #
vertex $-1 $447 $570 #
straight-curve $-1 -46.672692079216546 13.778158836363499 6.2241761074996163 -1 0 0 I I #
edge $-1 $534 -9.0505753960857707 $444 -0.40459148446968562 $443 $571 forward 7 unknown #
vertex $-1 $533 $572 #
straight-curve $-1 -40.84109012115848 13.778158836363499 2.782963739384499 0.76604443648966558 0 0.64278761758704617 I I #
point $-1 -36.740013004474555 13.778158836363499 6.2241761074996163 #
point $-1 -40.84109012115848 5.1321749247474138 2.782963739384499 #
straight-curve $-1 -40.84109012115848 0 6.2241761074996163 0 -1 0 I I #
vertex $-1 $450 $573 #
point $-1 -37.764741726984631 6.8613717070706315 4.0589192957459126 #
vertex $-1 $454 $574 #
point $-1 -37.764741726984631 9.4551668805554563 4.0589192957459126 #
vertex $-1 $458 $575 #
point $-1 -37.764741726984631 12.048962054040285 4.0589192957459126 #
straight-curve $-1 -40.84109012115848 21.288669065504525 0 0 0 -1 I I #
point $-1 -40.84109012115848 -21.288669065504525 -6.2241761074996163 #
straight-curve $-1 -40.84109012115848 0 -6.2241761074996163 0 1 0 I I #
point $-1 -40.84109012115848 21.288669065504525 -6.2241761074996163 #
straight-curve $-1 -32.510658923719717 -9.2072331113411803 6.2241761074996163 0 1 0 I I #
straight-curve $-1 -32.510658923719717 -9.2072331113411803 -6.2241761074996163 0 -1 0 I I #
point $-1 -32.510658923719717 -21.288669065504525 -6.2241761074996163 #
point $-1 -32.510658923719717 -21.288669065504525 6.2241761074996163 #
straight-curve $-1 0 -21.288669065504525 -6.2241761074996163 -1 0 0 I I #
straight-curve $-1 0 -21.288669065504525 6.2241761074996163 1 0 0 I I #
coedge $-1 $502 $498 $509 $560 forward $381 $-1 #
straight-curve $-1 40.84109012115848 0 6.2241761074996163 0 1 0 I I #
point $-1 40.84109012115848 16.964201087649347 6.2241761074996163 #
vertex $-1 $560 $576 #
straight-curve $-1 -40.84109012115848 0 6.2241761074996163 0 -1 0 I I #
edge $-1 $512 -40.84109012115848 $558 40.84109012115848 $509 $577 forward 7 unknown #
straight-curve $-1 -40.84109012115848 21.288669065504525 0 0 0 -1 I I #
point $-1 40.84109012115848 21.288669065504525 6.2241761074996163 #
straight-curve $-1 40.84109012115848 0 6.2241761074996163 0 1 0 I I #
straight-curve $-1 40.84109012115848 16.964201087649357 57.720485187679095 0 0 1 I I #
point $-1 40.84109012115848 16.964201087649347 6.2241761074996163 #
point $-1 37.157412933308144 11.032078999332068 2.9349431252349878 #
point $-1 37.157412933308144 13.256624782451052 2.9349431252349878 #
point $-1 37.157412933308144 15.481170565570036 2.9349431252349878 #
straight-curve $-1 -40.84109012115848 13.778158836363499 32.677571737178745 0 0 -1 I I #
point $-1 -40.84109012115848 13.778158836363499 6.2241761074996163 #
straight-curve $-1 -40.84109012115848 4.7275834402777281 2.7829637393844999 0 -1 0 I I #
point $-1 -40.84109012115848 13.778158836363499 2.782963739384499 #
point $-1 -37.826370136435948 6.8613717070706315 3.3545032687075569 #
point $-1 -37.826370136435948 9.4551668805554563 3.3545032687075569 #
point $-1 -37.826370136435948 12.048962054040285 3.3545032687075569 #
point $-1 -40.84109012115848 21.288669065504525 6.2241761074996163 #
straight-curve $-1 0 21.288669065504525 6.2241761074996163 -1 0 0 I I #
End-of-ACIS-data 