500 0 5 0           
7 Unknown 11 ACIS 5.0 NT 24 Thu Mar 25 22:20:16 1999 
-1 9.9999999999999995e-007 1e-010 
body $-1 $5 $-1 $6 #
body $-1 $7 $-1 $8 #
body $-1 $9 $-1 $10 #
body $-1 $11 $-1 $12 #
body $-1 $13 $-1 $14 #
lump $-1 $-1 $15 $0 #
transform $-1 1 0 0 0 1 0 0 0 1 54.194769127475816 24.190578730383049 6.0487151601847708 1 rotate no_reflect no_shear #
lump $-1 $-1 $16 $1 #
transform $-1 1 0 0 0 1 0 0 0 1 54.194769127475816 24.190578730383049 6.0487151601847708 1 rotate no_reflect no_shear #
lump $-1 $-1 $17 $2 #
transform $-1 1 0 0 0 1 0 0 0 1 54.194769127475816 24.190578730383049 6.0487151601847708 1 rotate no_reflect no_shear #
lump $-1 $-1 $18 $3 #
transform $-1 1 0 0 0 1 0 0 0 1 54.194769127475816 24.190578730383049 6.0487151601847708 1 rotate no_reflect no_shear #
lump $-1 $-1 $19 $4 #
transform $-1 1 0 0 0 1 0 0 0 1 54.194769127475816 24.190578730383049 6.0487151601847708 1 rotate no_reflect no_shear #
shell $-1 $-1 $-1 $20 $-1 $5 #
shell $-1 $-1 $-1 $21 $-1 $7 #
shell $-1 $-1 $-1 $22 $-1 $9 #
shell $-1 $-1 $-1 $23 $-1 $11 #
shell $-1 $-1 $-1 $24 $-1 $13 #
face $-1 $25 $26 $15 $-1 $27 forward single #
face $-1 $28 $29 $16 $-1 $30 reversed single #
face $-1 $31 $32 $17 $-1 $33 forward single #
face $-1 $34 $35 $18 $-1 $36 reversed single #
face $-1 $37 $38 $19 $-1 $39 reversed single #
face $-1 $40 $41 $15 $-1 $42 reversed single #
loop $-1 $-1 $43 $20 #
plane-surface $-1 0 0 6.0487151601847708 0 0 1 1 0 0 forward_v I I I I #
face $-1 $44 $45 $16 $-1 $46 reversed single #
loop $-1 $-1 $47 $21 #
plane-surface $-1 -56.894926872365879 0 3.0487151601847708 0 0 1 1 0 0 forward_v I I I I #
face $-1 $48 $49 $17 $-1 $50 forward single #
loop $-1 $-1 $51 $22 #
plane-surface $-1 -6.8277096720402373 -83.223753024736865 92.433287825585552 -1 0 0 0 -0.54463904215088732 0.83867056331134215 forward_v I I I I #
face $-1 $52 $53 $18 $-1 $54 reversed single #
loop $-1 $55 $56 $23 #
cone-surface $-1 -18.253470158827625 -19.959546563549715 2.631373677221033 0 0.54463904215088732 -0.83867056331134215 1.5 0 0 1 I I 0 1 1.5 forward I I I I #
face $-1 $57 $58 $19 $-1 $59 reversed single #
loop $-1 $60 $61 $24 #
cone-surface $-1 -11.398013866755193 -19.959546563549715 2.631373677221033 0 0.54463904215088732 -0.83867056331134215 1.5 0 0 1 I I 0 1 1.5 forward I I I I #
face $-1 $62 $63 $15 $-1 $64 reversed single #
loop $-1 $-1 $65 $25 #
plane-surface $-1 0 0 -6.0487151601847708 0 0 1 1 0 0 forward_v I I I I #
coedge $-1 $66 $67 $68 $69 forward $26 $-1 #
face $-1 $70 $71 $16 $-1 $72 forward single #
loop $-1 $-1 $73 $28 #
plane-surface $-1 -59.595084617255942 0 4.5487151601847708 1 0 0 0 0 -1 forward_v I I I I #
coedge $-1 $74 $75 $76 $77 reversed $29 $-1 #
face $-1 $78 $79 $17 $-1 $80 forward single #
loop $-1 $-1 $81 $31 #
plane-surface $-1 -14.825742012791409 -24.190578730383052 1.5301727202489985 0 -0.54463904215088732 0.83867056331134215 1 0 0 forward_v I I I I #
coedge $-1 $82 $83 $84 $85 reversed $32 $-1 #
face $-1 $86 $87 $18 $-1 $88 forward single #
loop $-1 $89 $90 $34 #
cone-surface $-1 -18.253470158827625 -18.799007645681812 0.84430049174167721 0 0.54463904215088732 -0.83867056331134215 0.75 0 0 1 I I -0.70710678118654757 0.70710678118654757 0.75 forward I I I I #
loop $-1 $-1 $91 $23 #
coedge $-1 $56 $56 $92 $93 reversed $35 $-1 #
face $-1 $94 $95 $19 $-1 $96 reversed single #
loop $-1 $97 $98 $37 #
cone-surface $-1 -11.398013866755193 -18.799007645681812 0.84430049174167721 0 0.54463904215088732 -0.83867056331134215 0.75 0 0 1 I I -0.70710678118654757 0.70710678118654757 0.75 forward I I I I #
loop $-1 $-1 $99 $24 #
coedge $-1 $61 $61 $100 $101 reversed $38 $-1 #
face $-1 $102 $103 $15 $-1 $104 reversed single #
loop $-1 $-1 $105 $40 #
plane-surface $-1 0 -24.190578730383049 0 0 1 0 0 0 1 forward_v I I I I #
coedge $-1 $106 $107 $108 $109 forward $41 $-1 #
coedge $-1 $110 $43 $111 $112 forward $26 $-1 #
coedge $-1 $43 $110 $113 $114 forward $26 $-1 #
coedge $-1 $115 $116 $43 $69 reversed $117 $-1 #
edge $-1 $118 -24.190578730383049 $119 24.190578730383049 $68 $120 forward 7 unknown #
face $-1 $121 $122 $16 $-1 $123 reversed single #
loop $-1 $-1 $124 $44 #
plane-surface $-1 0 0 6.0487151601847708 0 0 1 1 0 0 forward_v I I I I #
coedge $-1 $125 $126 $127 $128 forward $45 $-1 #
coedge $-1 $129 $47 $130 $131 forward $29 $-1 #
coedge $-1 $47 $129 $132 $133 forward $29 $-1 #
coedge $-1 $134 $135 $47 $77 forward $136 $-1 #
edge $-1 $137 -24.190578730383049 $138 24.190578730383049 $76 $139 forward 7 unknown #
face $-1 $140 $141 $17 $-1 $142 forward single #
loop $-1 $-1 $143 $48 #
plane-surface $-1 -22.823774353542582 -83.223753024736865 92.433287825585552 1 0 0 0 0.54463904215088732 -0.83867056331134215 forward_v I I I I #
coedge $-1 $144 $145 $146 $147 reversed $49 $-1 #
coedge $-1 $83 $51 $145 $148 forward $32 $-1 #
coedge $-1 $51 $82 $149 $150 reversed $32 $-1 #
coedge $-1 $151 $146 $51 $85 forward $141 $-1 #
edge $-1 $152 -24.379242843142556 $153 -17.421297781985384 $84 $154 forward 7 unknown #
face $-1 $155 $156 $18 $-1 $157 forward single #
loop $-1 $-1 $158 $52 #
plane-surface $-1 -6.8277096720402373 -83.223753024736865 92.433287825585552 -1 0 0 0 -0.54463904215088732 0.83867056331134215 forward_v I I I I #
loop $-1 $-1 $159 $34 #
coedge $-1 $90 $90 $91 $160 forward $53 $-1 #
coedge $-1 $91 $91 $90 $160 reversed $55 $-1 #
coedge $-1 $92 $92 $56 $93 forward $156 $-1 #
edge $-1 $161 2.5799287667443465e-015 $161 6.2831853071796031 $92 $162 forward 7 unknown #
face $-1 $163 $164 $19 $-1 $165 reversed single #
loop $-1 $166 $167 $57 #
cone-surface $-1 -18.253470158827625 -19.959546563549715 2.631373677221033 0 0.54463904215088732 -0.83867056331134215 1.5 0 0 1 I I 0 1 1.5 forward I I I I #
loop $-1 $-1 $168 $37 #
coedge $-1 $98 $98 $99 $169 forward $58 $-1 #
coedge $-1 $99 $99 $98 $169 reversed $60 $-1 #
coedge $-1 $100 $100 $61 $101 forward $170 $-1 #
edge $-1 $171 2.5799287667443465e-015 $171 6.2831853071796031 $100 $172 forward 7 unknown #
face $-1 $173 $174 $15 $-1 $175 reversed single #
loop $-1 $-1 $176 $62 #
plane-surface $-1 -54.194769127475816 0 0 1 0 0 0 0 -1 forward_v I I I I #
coedge $-1 $177 $113 $178 $179 forward $63 $-1 #
coedge $-1 $180 $65 $177 $181 forward $41 $-1 #
coedge $-1 $65 $180 $182 $183 forward $41 $-1 #
coedge $-1 $116 $115 $65 $109 reversed $117 $-1 #
edge $-1 $184 -24.190578730383049 $185 24.190578730383049 $108 $186 forward 7 unknown #
coedge $-1 $67 $66 $187 $188 forward $26 $-1 #
coedge $-1 $189 $190 $66 $112 reversed $174 $-1 #
edge $-1 $119 -54.194769127475816 $191 54.194769127475816 $111 $192 forward 7 unknown #
coedge $-1 $105 $193 $67 $114 reversed $63 $-1 #
edge $-1 $194 -54.194769127475816 $118 54.194769127475816 $113 $195 forward 7 unknown #
coedge $-1 $108 $68 $193 $196 forward $117 $-1 #
coedge $-1 $68 $108 $189 $197 reversed $117 $-1 #
loop $-1 $-1 $115 $173 #
vertex $-1 $69 $198 #
vertex $-1 $69 $199 #
straight-curve $-1 54.194769127475816 0 6.0487151601847708 0 1 0 I I #
face $-1 $200 $201 $16 $-1 $202 reversed single #
loop $-1 $-1 $203 $70 #
plane-surface $-1 0 0 -6.0487151601847708 0 0 1 1 0 0 forward_v I I I I #
coedge $-1 $204 $205 $206 $207 forward $71 $-1 #
coedge $-1 $208 $73 $129 $209 reversed $45 $-1 #
coedge $-1 $73 $208 $210 $211 reversed $45 $-1 #
coedge $-1 $212 $132 $73 $128 reversed $213 $-1 #
edge $-1 $214 -1.5 $215 1.5 $127 $216 forward 7 unknown #
coedge $-1 $75 $74 $125 $209 forward $29 $-1 #
coedge $-1 $217 $218 $74 $131 reversed $201 $-1 #
edge $-1 $137 -2.7001577448900633 $219 2.7001577448900633 $130 $220 forward 7 unknown #
coedge $-1 $127 $221 $75 $133 reversed $213 $-1 #
edge $-1 $215 -2.7001577448900633 $138 2.7001577448900633 $132 $222 forward 7 unknown #
coedge $-1 $223 $76 $221 $224 forward $136 $-1 #
coedge $-1 $76 $223 $217 $225 reversed $136 $-1 #
loop $-1 $-1 $76 $200 #
vertex $-1 $225 $226 #
vertex $-1 $224 $227 #
straight-curve $-1 -54.194769127475816 0 3.0487151601847708 0 1 0 I I #
face $-1 $228 $229 $17 $-1 $230 reversed single #
loop $-1 $-1 $231 $78 #
plane-surface $-1 0 0 6.0487151601847708 0 0 1 1 0 0 forward_v I I I I #
coedge $-1 $232 $233 $231 $234 reversed $79 $-1 #
coedge $-1 $235 $81 $233 $236 reversed $49 $-1 #
coedge $-1 $81 $235 $82 $148 reversed $49 $-1 #
coedge $-1 $84 $231 $81 $147 forward $141 $-1 #
edge $-1 $237 -15.410903347146878 $152 0.58516133435546713 $146 $238 forward 7 unknown #
edge $-1 $152 -8.2963983303348119 $239 -4.1888979916949389e-015 $82 $240 forward 7 unknown #
coedge $-1 $241 $242 $83 $150 forward $243 $-1 #
edge $-1 $153 40.167928752608006 $239 44.686471192543777 $149 $244 forward 7 unknown #
coedge $-1 $245 $84 $242 $246 forward $141 $-1 #
vertex $-1 $147 $247 #
vertex $-1 $246 $248 #
straight-curve $-1 -6.8277096720402373 -41.611876512368433 6.04871516018477 0 -1 0 I I #
face $-1 $249 $250 $18 $-1 $251 forward single #
loop $-1 $252 $92 $86 #
plane-surface $-1 -14.825742012791409 -24.190578730383052 1.5301727202489985 0 -0.54463904215088732 0.83867056331134215 1 0 0 forward_v I I I I #
coedge $-1 $253 $254 $255 $256 reversed $87 $-1 #
coedge $-1 $159 $159 $-1 $257 forward $89 $-1 #
edge $-1 $258 0 $258 6.2831853071796004 $90 $259 forward 7 unknown #
vertex $-1 $93 $260 #
ellipse-curve $-1 -18.253470158827625 -20.711606199804457 3.7894439402168887 0 0.54463904215088732 -0.83867056331134215 1.5 0 0 1 I I #
face $-1 $261 $262 $19 $-1 $263 forward single #
loop $-1 $264 $265 $94 #
cone-surface $-1 -18.253470158827625 -18.799007645681812 0.84430049174167721 0 0.54463904215088732 -0.83867056331134215 0.75 0 0 1 I I -0.70710678118654757 0.70710678118654757 0.75 forward I I I I #
loop $-1 $-1 $266 $57 #
coedge $-1 $167 $167 $267 $268 reversed $95 $-1 #
coedge $-1 $168 $168 $-1 $269 forward $97 $-1 #
edge $-1 $270 0 $270 6.2831853071796004 $98 $271 forward 7 unknown #
loop $-1 $272 $100 $261 #
vertex $-1 $101 $273 #
ellipse-curve $-1 -11.398013866755193 -20.711606199804457 3.7894439402168887 0 0.54463904215088732 -0.83867056331134215 1.5 0 0 1 I I #
face $-1 $-1 $117 $15 $-1 $274 reversed single #
loop $-1 $-1 $189 $102 #
plane-surface $-1 0 24.190578730383049 0 0 -1 0 0 0 -1 forward_v I I I I #
coedge $-1 $275 $187 $190 $276 forward $103 $-1 #
coedge $-1 $193 $105 $106 $181 reversed $63 $-1 #
coedge $-1 $187 $275 $105 $179 reversed $103 $-1 #
edge $-1 $194 -6.0487151601847708 $277 6.0487151601847708 $178 $278 forward 7 unknown #
coedge $-1 $107 $106 $275 $279 forward $41 $-1 #
edge $-1 $185 -54.194769127475816 $277 54.194769127475816 $177 $280 forward 7 unknown #
coedge $-1 $190 $189 $107 $183 reversed $174 $-1 #
edge $-1 $281 -54.194769127475816 $184 54.194769127475816 $182 $282 forward 7 unknown #
vertex $-1 $109 $283 #
vertex $-1 $196 $284 #
straight-curve $-1 54.194769127475816 0 -6.0487151601847708 0 -1 0 I I #
coedge $-1 $176 $178 $110 $188 reversed $103 $-1 #
edge $-1 $191 -24.190578730383049 $194 24.190578730383049 $187 $285 forward 7 unknown #
coedge $-1 $182 $111 $116 $197 forward $174 $-1 #
coedge $-1 $111 $182 $176 $276 reversed $174 $-1 #
vertex $-1 $112 $286 #
straight-curve $-1 0 24.190578730383049 6.0487151601847708 -1 0 0 I I #
coedge $-1 $113 $177 $115 $196 reversed $63 $-1 #
vertex $-1 $188 $287 #
straight-curve $-1 0 -24.190578730383049 6.0487151601847708 1 0 0 I I #
edge $-1 $118 -6.0487151601847708 $185 6.0487151601847708 $115 $288 forward 7 unknown #
edge $-1 $119 -6.0487151601847708 $184 6.0487151601847708 $116 $289 forward 7 unknown #
point $-1 54.194769127475816 -24.190578730383049 6.0487151601847708 #
point $-1 54.194769127475816 24.190578730383049 6.0487151601847708 #
face $-1 $290 $136 $16 $-1 $291 reversed single #
loop $-1 $-1 $217 $121 #
plane-surface $-1 0 -24.190578730383049 0 0 1 0 0 0 1 forward_v I I I I #
coedge $-1 $292 $293 $294 $295 forward $122 $-1 #
coedge $-1 $210 $124 $212 $296 forward $71 $-1 #
coedge $-1 $124 $210 $297 $298 forward $71 $-1 #
coedge $-1 $299 $300 $124 $207 reversed $301 $-1 #
edge $-1 $302 -24.190578730383049 $303 24.190578730383049 $206 $304 forward 7 unknown #
coedge $-1 $126 $125 $218 $305 reversed $45 $-1 #
edge $-1 $219 -24.190578730383049 $215 24.190578730383049 $125 $306 forward 7 unknown #
coedge $-1 $205 $204 $126 $211 forward $71 $-1 #
edge $-1 $214 -24.190578730383049 $307 24.190578730383049 $126 $308 forward 7 unknown #
coedge $-1 $309 $127 $204 $296 reversed $213 $-1 #
loop $-1 $-1 $309 $290 #
vertex $-1 $296 $310 #
vertex $-1 $133 $311 #
straight-curve $-1 -59.595084617255942 24.190578730383049 4.5487151601847708 0 0 -1 I I #
coedge $-1 $312 $130 $135 $225 forward $201 $-1 #
coedge $-1 $130 $297 $208 $305 forward $201 $-1 #
vertex $-1 $209 $313 #
straight-curve $-1 -56.894926872365879 -24.190578730383049 3.0487151601847708 -1 0 0 I I #
coedge $-1 $132 $314 $134 $224 reversed $213 $-1 #
straight-curve $-1 -56.894926872365879 24.190578730383049 3.0487151601847708 1 0 0 I I #
coedge $-1 $135 $134 $315 $316 reversed $136 $-1 #
edge $-1 $138 -3.0487151601847708 $317 6.0487151601847708 $221 $318 forward 7 unknown #
edge $-1 $137 -3.0487151601847708 $319 6.0487151601847708 $135 $320 forward 7 unknown #
point $-1 -54.194769127475816 -24.190578730383049 3.0487151601847708 #
point $-1 -54.194769127475816 24.190578730383049 3.0487151601847708 #
face $-1 $321 $322 $17 $-1 $323 reversed single #
loop $-1 $-1 $324 $140 #
plane-surface $-1 -56.894926872365879 0 3.0487151601847708 0 0 1 1 0 0 forward_v I I I I #
coedge $-1 $146 $325 $143 $234 forward $141 $-1 #
coedge $-1 $233 $143 $326 $327 reversed $79 $-1 #
coedge $-1 $143 $232 $144 $236 forward $79 $-1 #
edge $-1 $328 17.421297781985384 $237 24.379242843142556 $231 $329 forward 7 unknown #
coedge $-1 $145 $144 $241 $330 reversed $49 $-1 #
edge $-1 $331 4.1888979916949389e-015 $237 8.2963983303348119 $233 $332 forward 7 unknown #
vertex $-1 $147 $333 #
straight-curve $-1 -7.4128710063957044 -17.232633669225876 6.0487151601847708 1 0 0 I I #
vertex $-1 $330 $334 #
straight-curve $-1 -6.8277096720402373 -24.190578730383052 1.5301727202489985 0 -0.83867056331134215 -0.54463904215088732 I I #
coedge $-1 $326 $149 $235 $330 forward $243 $-1 #
coedge $-1 $149 $335 $151 $246 reversed $243 $-1 #
loop $-1 $-1 $326 $336 #
straight-curve $-1 -6.8277096720402373 -24.190578730383049 46.216643912792776 0 0 -1 I I #
coedge $-1 $337 $151 $338 $339 forward $141 $-1 #
edge $-1 $153 -6.8277096720402373 $340 54.194769127475816 $242 $341 forward 7 unknown #
point $-1 -6.8277096720402373 -17.232633669225876 6.0487151601847717 #
point $-1 -6.8277096720402373 -24.190578730383049 6.0487151601847708 #
face $-1 $342 $343 $18 $-1 $344 forward single #
loop $-1 $-1 $345 $155 #
plane-surface $-1 -22.823774353542582 -83.223753024736865 92.433287825585552 1 0 0 0 0.54463904215088732 -0.83867056331134215 forward_v I I I I #
loop $-1 $-1 $346 $86 #
coedge $-1 $254 $158 $347 $348 forward $87 $-1 #
coedge $-1 $158 $253 $349 $350 reversed $87 $-1 #
coedge $-1 $351 $352 $158 $256 forward $343 $-1 #
edge $-1 $353 -24.379242843142556 $354 -17.421297781985384 $255 $355 forward 7 unknown #
edge $-1 $356 1 $356 0 $159 $-1 forward 7 unknown #
vertex $-1 $160 $357 #
ellipse-curve $-1 -18.253470158827625 -19.207486927294976 1.473303414225184 0 -0.54463904215088732 0.83867056331134215 1.5 0 0 1 I I #
point $-1 -16.753470158827625 -20.711606199804457 3.7894439402168816 #
face $-1 $358 $170 $19 $-1 $359 forward single #
loop $-1 $-1 $360 $163 #
plane-surface $-1 -6.8277096720402373 -83.223753024736865 92.433287825585552 -1 0 0 0 -0.54463904215088732 0.83867056331134215 forward_v I I I I #
loop $-1 $-1 $361 $94 #
coedge $-1 $265 $265 $266 $362 forward $164 $-1 #
coedge $-1 $266 $266 $265 $362 reversed $166 $-1 #
coedge $-1 $267 $267 $167 $268 forward $272 $-1 #
edge $-1 $363 2.5799287667443465e-015 $363 6.2831853071796031 $267 $364 forward 7 unknown #
edge $-1 $365 1 $365 0 $168 $-1 forward 7 unknown #
vertex $-1 $169 $366 #
ellipse-curve $-1 -11.398013866755193 -19.207486927294976 1.473303414225184 0 -0.54463904215088732 0.83867056331134215 1.5 0 0 1 I I #
loop $-1 $367 $267 $261 #
point $-1 -9.8980138667551927 -20.711606199804457 3.7894439402168816 #
plane-surface $-1 54.194769127475816 0 0 -1 0 0 0 0 1 forward_v I I I I #
coedge $-1 $178 $176 $180 $279 reversed $103 $-1 #
edge $-1 $191 -6.0487151601847708 $281 6.0487151601847708 $190 $368 forward 7 unknown #
vertex $-1 $279 $369 #
straight-curve $-1 -54.194769127475816 -24.190578730383049 0 0 0 -1 I I #
edge $-1 $277 -24.190578730383049 $281 24.190578730383049 $275 $370 forward 7 unknown #
straight-curve $-1 0 -24.190578730383049 -6.0487151601847708 -1 0 0 I I #
vertex $-1 $183 $371 #
straight-curve $-1 0 24.190578730383049 -6.0487151601847708 1 0 0 I I #
point $-1 54.194769127475816 24.190578730383049 -6.0487151601847708 #
point $-1 54.194769127475816 -24.190578730383049 -6.0487151601847708 #
straight-curve $-1 -54.194769127475816 0 6.0487151601847708 0 -1 0 I I #
point $-1 -54.194769127475816 24.190578730383049 6.0487151601847708 #
point $-1 -54.194769127475816 -24.190578730383049 6.0487151601847708 #
straight-curve $-1 54.194769127475816 -24.190578730383049 0 0 0 -1 I I #
straight-curve $-1 54.194769127475816 24.190578730383049 0 0 0 -1 I I #
face $-1 $372 $213 $16 $-1 $373 reversed single #
plane-surface $-1 -54.194769127475816 0 0 1 0 0 0 0 -1 forward_v I I I I #
coedge $-1 $315 $203 $312 $374 forward $122 $-1 #
coedge $-1 $203 $315 $314 $375 forward $122 $-1 #
coedge $-1 $300 $299 $203 $295 reversed $301 $-1 #
edge $-1 $376 -24.190578730383049 $377 24.190578730383049 $294 $378 forward 7 unknown #
edge $-1 $303 -54.194769127475816 $214 59.595084617255942 $212 $379 forward 7 unknown #
coedge $-1 $218 $380 $205 $298 reversed $201 $-1 #
edge $-1 $307 -59.595084617255942 $302 54.194769127475816 $297 $381 forward 7 unknown #
coedge $-1 $294 $206 $380 $382 forward $301 $-1 #
coedge $-1 $206 $294 $309 $383 reversed $301 $-1 #
loop $-1 $-1 $299 $372 #
vertex $-1 $207 $384 #
vertex $-1 $207 $385 #
straight-curve $-1 54.194769127475816 0 6.0487151601847708 0 1 0 I I #
edge $-1 $307 -1.5 $219 1.5 $208 $386 forward 7 unknown #
straight-curve $-1 -59.595084617255942 0 3.0487151601847708 0 1 0 I I #
vertex $-1 $211 $387 #
straight-curve $-1 -59.595084617255942 0 6.0487151601847708 0 -1 0 I I #
coedge $-1 $314 $212 $300 $383 forward $213 $-1 #
point $-1 -59.595084617255942 24.190578730383049 6.0487151601847708 #
point $-1 -59.595084617255942 24.190578730383049 3.0487151601847708 #
coedge $-1 $380 $217 $292 $374 reversed $201 $-1 #
point $-1 -59.595084617255942 -24.190578730383049 3.0487151601847708 #
coedge $-1 $221 $309 $293 $375 reversed $213 $-1 #
coedge $-1 $293 $292 $223 $316 forward $122 $-1 #
edge $-1 $319 -24.190578730383049 $317 24.190578730383049 $223 $388 forward 7 unknown #
vertex $-1 $375 $389 #
straight-curve $-1 -54.194769127475816 24.190578730383049 0 0 0 -1 I I #
vertex $-1 $316 $390 #
straight-curve $-1 -54.194769127475816 -24.190578730383049 0 0 0 -1 I I #
face $-1 $336 $391 $17 $-1 $392 reversed single #
loop $-1 $-1 $393 $228 #
plane-surface $-1 -59.595084617255942 0 4.5487151601847708 1 0 0 0 0 -1 forward_v I I I I #
coedge $-1 $394 $395 $396 $397 reversed $229 $-1 #
coedge $-1 $231 $398 $399 $400 forward $141 $-1 #
coedge $-1 $399 $241 $232 $327 forward $243 $-1 #
edge $-1 $331 -44.686471192543777 $328 -40.167928752608006 $326 $401 forward 7 unknown #
vertex $-1 $327 $402 #
straight-curve $-1 -22.823774353542582 -41.611876512368433 6.04871516018477 0 1 0 I I #
edge $-1 $239 -0.58516133435546713 $331 15.410903347146878 $241 $403 forward 7 unknown #
vertex $-1 $330 $404 #
straight-curve $-1 -22.823774353542582 -24.190578730383052 1.5301727202489985 0 0.83867056331134215 0.54463904215088732 I I #
point $-1 -22.823774353542582 -17.232633669225876 6.0487151601847717 #
point $-1 -6.8277096720402373 -24.190578730383049 1.5301727202490008 #
coedge $-1 $242 $405 $406 $407 reversed $243 $-1 #
face $-1 $408 $243 $17 $-1 $409 reversed single #
coedge $-1 $398 $245 $410 $411 forward $141 $-1 #
coedge $-1 $406 $412 $245 $339 reversed $413 $-1 #
edge $-1 $340 -24.190578730383049 $414 24.190578730383049 $338 $415 forward 7 unknown #
vertex $-1 $339 $416 #
straight-curve $-1 0 -24.190578730383049 6.0487151601847708 1 0 0 I I #
face $-1 $417 $418 $18 $-1 $419 reversed single #
loop $-1 $-1 $420 $249 #
plane-surface $-1 0 0 6.0487151601847708 0 0 1 1 0 0 forward_v I I I I #
coedge $-1 $421 $422 $420 $423 reversed $250 $-1 #
coedge $-1 $424 $347 $352 $425 reversed $252 $-1 #
coedge $-1 $346 $426 $253 $348 reversed $252 $-1 #
edge $-1 $353 -8.2963983303348119 $427 -4.1888979916949389e-015 $253 $428 forward 7 unknown #
coedge $-1 $429 $430 $254 $350 forward $431 $-1 #
edge $-1 $354 40.167928752608006 $427 44.686471192543777 $349 $432 forward 7 unknown #
coedge $-1 $433 $255 $430 $434 forward $343 $-1 #
coedge $-1 $255 $420 $346 $425 forward $343 $-1 #
vertex $-1 $425 $435 #
vertex $-1 $434 $436 #
straight-curve $-1 -6.8277096720402373 -41.611876512368433 6.04871516018477 0 -1 0 I I #
vertex $-1 $257 $437 #
point $-1 -16.753470158827625 -19.207486927294976 1.473303414225184 #
face $-1 $438 $439 $19 $-1 $440 forward single #
plane-surface $-1 -14.825742012791409 -24.190578730383052 1.5301727202489985 0 -0.54463904215088732 0.83867056331134215 1 0 0 forward_v I I I I #
coedge $-1 $441 $442 $443 $444 reversed $262 $-1 #
coedge $-1 $361 $361 $-1 $445 forward $264 $-1 #
edge $-1 $446 0 $446 6.2831853071796004 $265 $447 forward 7 unknown #
vertex $-1 $268 $448 #
ellipse-curve $-1 -18.253470158827625 -20.711606199804457 3.7894439402168887 0 0.54463904215088732 -0.83867056331134215 1.5 0 0 1 I I #
vertex $-1 $269 $449 #
point $-1 -9.8980138667551927 -19.207486927294976 1.473303414225184 #
loop $-1 $-1 $450 $261 #
straight-curve $-1 -54.194769127475816 24.190578730383049 0 0 0 -1 I I #
point $-1 -54.194769127475816 -24.190578730383049 -6.0487151601847708 #
straight-curve $-1 -54.194769127475816 0 -6.0487151601847708 0 1 0 I I #
point $-1 -54.194769127475816 24.190578730383049 -6.0487151601847708 #
face $-1 $-1 $301 $16 $-1 $451 reversed single #
plane-surface $-1 0 24.190578730383049 0 0 -1 0 0 0 -1 forward_v I I I I #
edge $-1 $377 -54.194769127475816 $319 54.194769127475816 $312 $452 forward 7 unknown #
edge $-1 $317 -54.194769127475816 $376 54.194769127475816 $314 $453 forward 7 unknown #
vertex $-1 $295 $454 #
vertex $-1 $382 $455 #
straight-curve $-1 54.194769127475816 0 -6.0487151601847708 0 -1 0 I I #
straight-curve $-1 0 24.190578730383049 6.0487151601847708 -1 0 0 I I #
coedge $-1 $297 $312 $299 $382 reversed $201 $-1 #
straight-curve $-1 0 -24.190578730383049 6.0487151601847708 1 0 0 I I #
edge $-1 $302 -6.0487151601847708 $377 6.0487151601847708 $299 $456 forward 7 unknown #
edge $-1 $303 -6.0487151601847708 $376 6.0487151601847708 $300 $457 forward 7 unknown #
point $-1 54.194769127475816 -24.190578730383049 6.0487151601847708 #
point $-1 54.194769127475816 24.190578730383049 6.0487151601847708 #
straight-curve $-1 -59.595084617255942 -24.190578730383049 4.5487151601847708 0 0 -1 I I #
point $-1 -59.595084617255942 -24.190578730383049 6.0487151601847708 #
straight-curve $-1 -54.194769127475816 0 -6.0487151601847708 0 1 0 I I #
point $-1 -54.194769127475816 24.190578730383049 -6.0487151601847708 #
point $-1 -54.194769127475816 -24.190578730383049 -6.0487151601847708 #
loop $-1 $-1 $458 $321 #
plane-surface $-1 0 0 -6.0487151601847708 0 0 1 1 0 0 forward_v I I I I #
coedge $-1 $459 $460 $461 $462 forward $322 $-1 #
coedge $-1 $463 $324 $464 $465 forward $229 $-1 #
coedge $-1 $324 $463 $466 $467 forward $229 $-1 #
coedge $-1 $468 $469 $324 $397 forward $470 $-1 #
edge $-1 $471 -24.190578730383049 $472 24.190578730383049 $396 $473 forward 7 unknown #
coedge $-1 $325 $337 $460 $474 forward $141 $-1 #
coedge $-1 $475 $326 $325 $400 reversed $243 $-1 #
edge $-1 $476 -59.595084617255942 $328 -22.823774353542582 $399 $341 forward 7 unknown #
straight-curve $-1 -22.823774353542582 -24.190578730383049 46.216643912792776 0 0 1 I I #
point $-1 -22.823774353542582 -24.190578730383049 6.0487151601847708 #
straight-curve $-1 -7.4128710063957044 -24.190578730383049 1.5301727202490021 -1 0 0 I I #
point $-1 -22.823774353542582 -24.190578730383049 1.5301727202490008 #
coedge $-1 $335 $477 $478 $479 reversed $243 $-1 #
coedge $-1 $480 $338 $335 $407 forward $413 $-1 #
edge $-1 $340 -6.0487151601847708 $481 6.0487151601847708 $406 $482 forward 7 unknown #
face $-1 $483 $470 $17 $-1 $484 reversed single #
plane-surface $-1 0 -24.190578730383049 0 0 1 0 0 0 1 forward_v I I I I #
coedge $-1 $485 $461 $337 $411 reversed $486 $-1 #
edge $-1 $414 -54.194769127475816 $487 59.595084617255942 $410 $488 forward 7 unknown #
coedge $-1 $338 $480 $485 $489 reversed $413 $-1 #
loop $-1 $-1 $406 $490 #
vertex $-1 $339 $491 #
straight-curve $-1 54.194769127475816 0 6.0487151601847708 0 1 0 I I #
point $-1 54.194769127475816 -24.190578730383049 6.0487151601847708 #
face $-1 $492 $493 $18 $-1 $494 reversed single #
loop $-1 $-1 $495 $342 #
plane-surface $-1 -56.894926872365879 0 3.0487151601847708 0 0 1 1 0 0 forward_v I I I I #
coedge $-1 $352 $496 $345 $423 forward $343 $-1 #
coedge $-1 $422 $345 $497 $498 reversed $250 $-1 #
coedge $-1 $345 $421 $424 $499 forward $250 $-1 #
edge $-1 $500 17.421297781985384 $501 24.379242843142556 $420 $502 forward 7 unknown #
coedge $-1 $426 $346 $422 $499 reversed $252 $-1 #
edge $-1 $501 -15.410903347146878 $353 0.58516133435546713 $352 $503 forward 7 unknown #
coedge $-1 $347 $424 $429 $504 reversed $252 $-1 #
vertex $-1 $504 $505 #
straight-curve $-1 -6.8277096720402373 -24.190578730383052 1.5301727202489985 0 -0.83867056331134215 -0.54463904215088732 I I #
coedge $-1 $497 $349 $426 $504 forward $431 $-1 #
coedge $-1 $349 $506 $351 $434 reversed $431 $-1 #
loop $-1 $-1 $497 $507 #
straight-curve $-1 -6.8277096720402373 -24.190578730383049 46.216643912792776 0 0 -1 I I #
coedge $-1 $508 $351 $509 $510 forward $343 $-1 #
edge $-1 $354 -6.8277096720402373 $511 54.194769127475816 $430 $512 forward 7 unknown #
point $-1 -6.8277096720402373 -17.232633669225876 6.0487151601847717 #
point $-1 -6.8277096720402373 -24.190578730383049 6.0487151601847708 #
point $-1 -18.253470158827625 -18.390528364068647 0.21529756925817056 #
face $-1 $513 $514 $19 $-1 $515 forward single #
loop $-1 $-1 $516 $358 #
plane-surface $-1 -22.823774353542582 -83.223753024736865 92.433287825585552 1 0 0 0 0.54463904215088732 -0.83867056331134215 forward_v I I I I #
coedge $-1 $442 $360 $517 $518 forward $262 $-1 #
coedge $-1 $360 $441 $519 $520 reversed $262 $-1 #
coedge $-1 $521 $522 $360 $444 forward $514 $-1 #
edge $-1 $523 -24.379242843142556 $524 -17.421297781985384 $443 $525 forward 7 unknown #
edge $-1 $526 1 $526 0 $361 $-1 forward 7 unknown #
vertex $-1 $362 $527 #
ellipse-curve $-1 -18.253470158827625 -19.207486927294976 1.473303414225184 0 -0.54463904215088732 0.83867056331134215 1.5 0 0 1 I I #
point $-1 -16.753470158827625 -20.711606199804457 3.7894439402168816 #
point $-1 -11.398013866755193 -18.390528364068647 0.21529756925817056 #
coedge $-1 $528 $517 $522 $529 reversed $367 $-1 #
plane-surface $-1 54.194769127475816 0 0 -1 0 0 0 0 1 forward_v I I I I #
straight-curve $-1 0 -24.190578730383049 -6.0487151601847708 -1 0 0 I I #
straight-curve $-1 0 24.190578730383049 -6.0487151601847708 1 0 0 I I #
point $-1 54.194769127475816 24.190578730383049 -6.0487151601847708 #
point $-1 54.194769127475816 -24.190578730383049 -6.0487151601847708 #
straight-curve $-1 54.194769127475816 -24.190578730383049 0 0 0 -1 I I #
straight-curve $-1 54.194769127475816 24.190578730383049 0 0 0 -1 I I #
coedge $-1 $478 $530 $480 $531 forward $391 $-1 #
coedge $-1 $532 $393 $463 $533 reversed $322 $-1 #
coedge $-1 $393 $532 $398 $474 reversed $322 $-1 #
coedge $-1 $410 $466 $393 $462 reversed $486 $-1 #
edge $-1 $487 -1.5 $534 1.5 $461 $535 forward 7 unknown #
coedge $-1 $395 $394 $459 $533 forward $229 $-1 #
coedge $-1 $477 $475 $394 $465 reversed $243 $-1 #
edge $-1 $471 -2.7001577448900633 $536 2.7001577448900633 $464 $537 forward 7 unknown #
coedge $-1 $461 $538 $395 $467 reversed $486 $-1 #
edge $-1 $534 -2.7001577448900633 $472 2.7001577448900633 $466 $539 forward 7 unknown #
coedge $-1 $540 $396 $538 $541 forward $470 $-1 #
coedge $-1 $396 $540 $477 $542 reversed $470 $-1 #
loop $-1 $-1 $396 $408 #
vertex $-1 $542 $543 #
vertex $-1 $541 $544 #
straight-curve $-1 -54.194769127475816 0 3.0487151601847708 0 1 0 I I #
edge $-1 $487 -24.190578730383049 $476 24.190578730383049 $460 $545 forward 7 unknown #
coedge $-1 $464 $399 $532 $546 forward $243 $-1 #
vertex $-1 $474 $547 #
coedge $-1 $405 $464 $469 $542 forward $243 $-1 #
coedge $-1 $548 $458 $405 $479 forward $391 $-1 #
edge $-1 $481 -54.194769127475816 $549 54.194769127475816 $405 $550 forward 7 unknown #
coedge $-1 $412 $406 $458 $531 reversed $413 $-1 #
vertex $-1 $407 $551 #
straight-curve $-1 54.194769127475816 -24.190578730383049 0 0 0 -1 I I #
face $-1 $490 $486 $17 $-1 $552 reversed single #
plane-surface $-1 -54.194769127475816 0 0 1 0 0 0 0 -1 forward_v I I I I #
coedge $-1 $553 $410 $412 $489 forward $486 $-1 #
loop $-1 $-1 $485 $483 #
vertex $-1 $411 $554 #
straight-curve $-1 0 24.190578730383049 6.0487151601847708 -1 0 0 I I #
edge $-1 $414 -6.0487151601847708 $555 6.0487151601847708 $412 $556 forward 7 unknown #
face $-1 $-1 $413 $17 $-1 $557 reversed single #
point $-1 54.194769127475816 24.190578730383049 6.0487151601847708 #
face $-1 $507 $558 $18 $-1 $559 reversed single #
loop $-1 $-1 $560 $417 #
plane-surface $-1 -59.595084617255942 0 4.5487151601847708 1 0 0 0 0 -1 forward_v I I I I #
coedge $-1 $561 $562 $563 $564 reversed $418 $-1 #
coedge $-1 $420 $565 $566 $567 forward $343 $-1 #
coedge $-1 $566 $429 $421 $498 forward $431 $-1 #
edge $-1 $568 -44.686471192543777 $500 -40.167928752608006 $497 $569 forward 7 unknown #
edge $-1 $568 4.1888979916949389e-015 $501 8.2963983303348119 $422 $570 forward 7 unknown #
vertex $-1 $498 $571 #
vertex $-1 $425 $572 #
straight-curve $-1 -22.823774353542582 -41.611876512368433 6.04871516018477 0 1 0 I I #
straight-curve $-1 -7.4128710063957044 -17.232633669225876 6.0487151601847708 1 0 0 I I #
edge $-1 $427 -0.58516133435546713 $568 15.410903347146878 $429 $573 forward 7 unknown #
point $-1 -6.8277096720402373 -24.190578730383049 1.5301727202490008 #
coedge $-1 $430 $574 $575 $576 reversed $431 $-1 #
face $-1 $577 $431 $18 $-1 $578 reversed single #
coedge $-1 $565 $433 $579 $580 forward $343 $-1 #
coedge $-1 $575 $581 $433 $510 reversed $582 $-1 #
edge $-1 $511 -24.190578730383049 $583 24.190578730383049 $509 $584 forward 7 unknown #
vertex $-1 $510 $585 #
straight-curve $-1 0 -24.190578730383049 6.0487151601847708 1 0 0 I I #
face $-1 $586 $587 $19 $-1 $588 reversed single #
loop $-1 $-1 $589 $438 #
plane-surface $-1 0 0 6.0487151601847708 0 0 1 1 0 0 forward_v I I I I #
coedge $-1 $590 $591 $589 $592 reversed $439 $-1 #
coedge $-1 $450 $593 $441 $518 reversed $367 $-1 #
edge $-1 $523 -8.2963983303348119 $594 -4.1888979916949389e-015 $441 $595 forward 7 unknown #
coedge $-1 $596 $597 $442 $520 forward $598 $-1 #
edge $-1 $524 40.167928752608006 $594 44.686471192543777 $519 $599 forward 7 unknown #
coedge $-1 $600 $443 $597 $601 forward $514 $-1 #
coedge $-1 $443 $589 $450 $529 forward $514 $-1 #
vertex $-1 $529 $602 #
vertex $-1 $601 $603 #
straight-curve $-1 -6.8277096720402373 -41.611876512368433 6.04871516018477 0 -1 0 I I #
vertex $-1 $445 $604 #
point $-1 -16.753470158827625 -19.207486927294976 1.473303414225184 #
coedge $-1 $593 $450 $591 $605 reversed $367 $-1 #
edge $-1 $606 -15.410903347146878 $523 0.58516133435546713 $522 $607 forward 7 unknown #
coedge $-1 $458 $548 $553 $608 forward $391 $-1 #
edge $-1 $555 -24.190578730383049 $481 24.190578730383049 $480 $609 forward 7 unknown #
coedge $-1 $460 $459 $475 $546 reversed $322 $-1 #
edge $-1 $536 -24.190578730383049 $534 24.190578730383049 $459 $610 forward 7 unknown #
vertex $-1 $467 $611 #
straight-curve $-1 -59.595084617255942 24.190578730383049 4.5487151601847708 0 0 -1 I I #
vertex $-1 $533 $612 #
straight-curve $-1 -56.894926872365879 -24.190578730383049 3.0487151601847708 -1 0 0 I I #
coedge $-1 $466 $553 $468 $541 reversed $486 $-1 #
straight-curve $-1 -56.894926872365879 24.190578730383049 3.0487151601847708 1 0 0 I I #
coedge $-1 $469 $468 $548 $613 reversed $470 $-1 #
edge $-1 $472 -3.0487151601847708 $614 6.0487151601847708 $538 $615 forward 7 unknown #
edge $-1 $471 -3.0487151601847708 $549 6.0487151601847708 $469 $616 forward 7 unknown #
point $-1 -54.194769127475816 -24.190578730383049 3.0487151601847708 #
point $-1 -54.194769127475816 24.190578730383049 3.0487151601847708 #
straight-curve $-1 -59.595084617255942 0 6.0487151601847708 0 -1 0 I I #
edge $-1 $476 -1.5 $536 1.5 $532 $617 forward 7 unknown #
point $-1 -59.595084617255942 -24.190578730383049 6.0487151601847708 #
coedge $-1 $530 $478 $540 $613 forward $391 $-1 #
vertex $-1 $613 $618 #
straight-curve $-1 0 -24.190578730383049 -6.0487151601847708 -1 0 0 I I #
point $-1 54.194769127475816 -24.190578730383049 -6.0487151601847708 #
plane-surface $-1 0 24.190578730383049 0 0 -1 0 0 0 -1 forward_v I I I I #
coedge $-1 $538 $485 $530 $608 reversed $486 $-1 #
point $-1 -59.595084617255942 24.190578730383049 6.0487151601847708 #
vertex $-1 $531 $619 #
straight-curve $-1 54.194769127475816 24.190578730383049 0 0 0 -1 I I #
plane-surface $-1 54.194769127475816 0 0 -1 0 0 0 0 1 forward_v I I I I #
loop $-1 $-1 $620 $492 #
plane-surface $-1 0 0 -6.0487151601847708 0 0 1 1 0 0 forward_v I I I I #
coedge $-1 $621 $622 $623 $624 forward $493 $-1 #
coedge $-1 $625 $495 $626 $627 forward $418 $-1 #
coedge $-1 $495 $625 $628 $629 forward $418 $-1 #
coedge $-1 $630 $631 $495 $564 forward $632 $-1 #
edge $-1 $633 -24.190578730383049 $634 24.190578730383049 $563 $635 forward 7 unknown #
coedge $-1 $496 $508 $622 $636 forward $343 $-1 #
coedge $-1 $637 $497 $496 $567 reversed $431 $-1 #
edge $-1 $638 -59.595084617255942 $500 -22.823774353542582 $566 $512 forward 7 unknown #
vertex $-1 $504 $639 #
straight-curve $-1 -22.823774353542582 -24.190578730383049 46.216643912792776 0 0 1 I I #
straight-curve $-1 -22.823774353542582 -24.190578730383052 1.5301727202489985 0 0.83867056331134215 0.54463904215088732 I I #
point $-1 -22.823774353542582 -24.190578730383049 6.0487151601847708 #
point $-1 -22.823774353542582 -17.232633669225876 6.0487151601847717 #
straight-curve $-1 -7.4128710063957044 -24.190578730383049 1.5301727202490021 -1 0 0 I I #
coedge $-1 $506 $640 $641 $642 reversed $431 $-1 #
coedge $-1 $643 $509 $506 $576 forward $582 $-1 #
edge $-1 $511 -6.0487151601847708 $644 6.0487151601847708 $575 $645 forward 7 unknown #
face $-1 $646 $632 $18 $-1 $647 reversed single #
plane-surface $-1 0 -24.190578730383049 0 0 1 0 0 0 1 forward_v I I I I #
coedge $-1 $648 $623 $508 $580 reversed $649 $-1 #
edge $-1 $583 -54.194769127475816 $650 59.595084617255942 $579 $651 forward 7 unknown #
coedge $-1 $509 $643 $648 $652 reversed $582 $-1 #
loop $-1 $-1 $575 $653 #
vertex $-1 $510 $654 #
straight-curve $-1 54.194769127475816 0 6.0487151601847708 0 1 0 I I #
point $-1 54.194769127475816 -24.190578730383049 6.0487151601847708 #
face $-1 $655 $656 $19 $-1 $657 reversed single #
loop $-1 $-1 $658 $513 #
plane-surface $-1 -56.894926872365879 0 3.0487151601847708 0 0 1 1 0 0 forward_v I I I I #
coedge $-1 $522 $659 $516 $592 forward $514 $-1 #
coedge $-1 $591 $516 $660 $661 reversed $439 $-1 #
coedge $-1 $516 $590 $528 $605 forward $439 $-1 #
edge $-1 $662 17.421297781985384 $606 24.379242843142556 $589 $663 forward 7 unknown #
coedge $-1 $517 $528 $596 $664 reversed $367 $-1 #
vertex $-1 $664 $665 #
straight-curve $-1 -6.8277096720402373 -24.190578730383052 1.5301727202489985 0 -0.83867056331134215 -0.54463904215088732 I I #
coedge $-1 $660 $519 $593 $664 forward $598 $-1 #
coedge $-1 $519 $666 $521 $601 reversed $598 $-1 #
loop $-1 $-1 $660 $667 #
straight-curve $-1 -6.8277096720402373 -24.190578730383049 46.216643912792776 0 0 -1 I I #
coedge $-1 $668 $521 $669 $670 forward $514 $-1 #
edge $-1 $524 -6.8277096720402373 $671 54.194769127475816 $597 $672 forward 7 unknown #
point $-1 -6.8277096720402373 -17.232633669225876 6.0487151601847717 #
point $-1 -6.8277096720402373 -24.190578730383049 6.0487151601847708 #
point $-1 -18.253470158827625 -18.390528364068647 0.21529756925817056 #
edge $-1 $673 4.1888979916949389e-015 $606 8.2963983303348119 $591 $674 forward 7 unknown #
vertex $-1 $529 $675 #
straight-curve $-1 -7.4128710063957044 -17.232633669225876 6.0487151601847708 1 0 0 I I #
edge $-1 $614 -54.194769127475816 $555 54.194769127475816 $553 $676 forward 7 unknown #
straight-curve $-1 54.194769127475816 0 -6.0487151601847708 0 -1 0 I I #
straight-curve $-1 -59.595084617255942 0 3.0487151601847708 0 1 0 I I #
point $-1 -59.595084617255942 24.190578730383049 3.0487151601847708 #
point $-1 -59.595084617255942 -24.190578730383049 3.0487151601847708 #
edge $-1 $549 -24.190578730383049 $614 24.190578730383049 $540 $677 forward 7 unknown #
vertex $-1 $608 $678 #
straight-curve $-1 -54.194769127475816 24.190578730383049 0 0 0 -1 I I #
straight-curve $-1 -54.194769127475816 -24.190578730383049 0 0 0 -1 I I #
straight-curve $-1 -59.595084617255942 -24.190578730383049 4.5487151601847708 0 0 -1 I I #
point $-1 -54.194769127475816 -24.190578730383049 -6.0487151601847708 #
point $-1 54.194769127475816 24.190578730383049 -6.0487151601847708 #
coedge $-1 $641 $679 $643 $680 forward $558 $-1 #
coedge $-1 $681 $560 $625 $682 reversed $493 $-1 #
coedge $-1 $560 $681 $565 $636 reversed $493 $-1 #
coedge $-1 $579 $628 $560 $624 reversed $649 $-1 #
edge $-1 $650 -1.5 $683 1.5 $623 $684 forward 7 unknown #
coedge $-1 $562 $561 $621 $682 forward $418 $-1 #
coedge $-1 $640 $637 $561 $627 reversed $431 $-1 #
edge $-1 $633 -2.7001577448900633 $685 2.7001577448900633 $626 $686 forward 7 unknown #
coedge $-1 $623 $687 $562 $629 reversed $649 $-1 #
edge $-1 $683 -2.7001577448900633 $634 2.7001577448900633 $628 $688 forward 7 unknown #
coedge $-1 $689 $563 $687 $690 forward $632 $-1 #
coedge $-1 $563 $689 $640 $691 reversed $632 $-1 #
loop $-1 $-1 $563 $577 #
vertex $-1 $691 $692 #
vertex $-1 $690 $693 #
straight-curve $-1 -54.194769127475816 0 3.0487151601847708 0 1 0 I I #
edge $-1 $650 -24.190578730383049 $638 24.190578730383049 $622 $694 forward 7 unknown #
coedge $-1 $626 $566 $681 $695 forward $431 $-1 #
vertex $-1 $636 $696 #
point $-1 -22.823774353542582 -24.190578730383049 1.5301727202490008 #
coedge $-1 $574 $626 $631 $691 forward $431 $-1 #
coedge $-1 $697 $620 $574 $642 forward $558 $-1 #
edge $-1 $644 -54.194769127475816 $698 54.194769127475816 $574 $699 forward 7 unknown #
coedge $-1 $581 $575 $620 $680 reversed $582 $-1 #
vertex $-1 $576 $700 #
straight-curve $-1 54.194769127475816 -24.190578730383049 0 0 0 -1 I I #
face $-1 $653 $649 $18 $-1 $701 reversed single #
plane-surface $-1 -54.194769127475816 0 0 1 0 0 0 0 -1 forward_v I I I I #
coedge $-1 $702 $579 $581 $652 forward $649 $-1 #
loop $-1 $-1 $648 $646 #
vertex $-1 $580 $703 #
straight-curve $-1 0 24.190578730383049 6.0487151601847708 -1 0 0 I I #
edge $-1 $583 -6.0487151601847708 $704 6.0487151601847708 $581 $705 forward 7 unknown #
face $-1 $-1 $582 $18 $-1 $706 reversed single #
point $-1 54.194769127475816 24.190578730383049 6.0487151601847708 #
face $-1 $667 $707 $19 $-1 $708 reversed single #
loop $-1 $-1 $709 $586 #
plane-surface $-1 -59.595084617255942 0 4.5487151601847708 1 0 0 0 0 -1 forward_v I I I I #
coedge $-1 $710 $711 $712 $713 reversed $587 $-1 #
coedge $-1 $589 $714 $715 $716 forward $514 $-1 #
coedge $-1 $715 $596 $590 $661 forward $598 $-1 #
edge $-1 $673 -44.686471192543777 $662 -40.167928752608006 $660 $717 forward 7 unknown #
vertex $-1 $661 $718 #
straight-curve $-1 -22.823774353542582 -41.611876512368433 6.04871516018477 0 1 0 I I #
edge $-1 $594 -0.58516133435546713 $673 15.410903347146878 $596 $719 forward 7 unknown #
point $-1 -6.8277096720402373 -24.190578730383049 1.5301727202490008 #
coedge $-1 $597 $720 $721 $722 reversed $598 $-1 #
face $-1 $723 $598 $19 $-1 $724 reversed single #
coedge $-1 $714 $600 $725 $726 forward $514 $-1 #
coedge $-1 $721 $727 $600 $670 reversed $728 $-1 #
edge $-1 $671 -24.190578730383049 $729 24.190578730383049 $669 $730 forward 7 unknown #
vertex $-1 $670 $731 #
straight-curve $-1 0 -24.190578730383049 6.0487151601847708 1 0 0 I I #
vertex $-1 $664 $732 #
straight-curve $-1 -22.823774353542582 -24.190578730383052 1.5301727202489985 0 0.83867056331134215 0.54463904215088732 I I #
point $-1 -22.823774353542582 -17.232633669225876 6.0487151601847717 #
straight-curve $-1 0 24.190578730383049 -6.0487151601847708 1 0 0 I I #
straight-curve $-1 -54.194769127475816 0 -6.0487151601847708 0 1 0 I I #
point $-1 -54.194769127475816 24.190578730383049 -6.0487151601847708 #
coedge $-1 $620 $697 $702 $733 forward $558 $-1 #
edge $-1 $704 -24.190578730383049 $644 24.190578730383049 $643 $734 forward 7 unknown #
coedge $-1 $622 $621 $637 $695 reversed $493 $-1 #
edge $-1 $685 -24.190578730383049 $683 24.190578730383049 $621 $735 forward 7 unknown #
vertex $-1 $629 $736 #
straight-curve $-1 -59.595084617255942 24.190578730383049 4.5487151601847708 0 0 -1 I I #
vertex $-1 $682 $737 #
straight-curve $-1 -56.894926872365879 -24.190578730383049 3.0487151601847708 -1 0 0 I I #
coedge $-1 $628 $702 $630 $690 reversed $649 $-1 #
straight-curve $-1 -56.894926872365879 24.190578730383049 3.0487151601847708 1 0 0 I I #
coedge $-1 $631 $630 $697 $738 reversed $632 $-1 #
edge $-1 $634 -3.0487151601847708 $739 6.0487151601847708 $687 $740 forward 7 unknown #
edge $-1 $633 -3.0487151601847708 $698 6.0487151601847708 $631 $741 forward 7 unknown #
point $-1 -54.194769127475816 -24.190578730383049 3.0487151601847708 #
point $-1 -54.194769127475816 24.190578730383049 3.0487151601847708 #
straight-curve $-1 -59.595084617255942 0 6.0487151601847708 0 -1 0 I I #
edge $-1 $638 -1.5 $685 1.5 $681 $742 forward 7 unknown #
point $-1 -59.595084617255942 -24.190578730383049 6.0487151601847708 #
coedge $-1 $679 $641 $689 $738 forward $558 $-1 #
vertex $-1 $738 $743 #
straight-curve $-1 0 -24.190578730383049 -6.0487151601847708 -1 0 0 I I #
point $-1 54.194769127475816 -24.190578730383049 -6.0487151601847708 #
plane-surface $-1 0 24.190578730383049 0 0 -1 0 0 0 -1 forward_v I I I I #
coedge $-1 $687 $648 $679 $733 reversed $649 $-1 #
point $-1 -59.595084617255942 24.190578730383049 6.0487151601847708 #
vertex $-1 $680 $744 #
straight-curve $-1 54.194769127475816 24.190578730383049 0 0 0 -1 I I #
plane-surface $-1 54.194769127475816 0 0 -1 0 0 0 0 1 forward_v I I I I #
loop $-1 $-1 $745 $655 #
plane-surface $-1 0 0 -6.0487151601847708 0 0 1 1 0 0 forward_v I I I I #
coedge $-1 $746 $747 $748 $749 forward $656 $-1 #
coedge $-1 $750 $658 $751 $752 forward $587 $-1 #
coedge $-1 $658 $750 $753 $754 forward $587 $-1 #
coedge $-1 $755 $756 $658 $713 forward $757 $-1 #
edge $-1 $758 -24.190578730383049 $759 24.190578730383049 $712 $760 forward 7 unknown #
coedge $-1 $659 $668 $747 $761 forward $514 $-1 #
coedge $-1 $762 $660 $659 $716 reversed $598 $-1 #
edge $-1 $763 -59.595084617255942 $662 -22.823774353542582 $715 $672 forward 7 unknown #
straight-curve $-1 -22.823774353542582 -24.190578730383049 46.216643912792776 0 0 1 I I #
point $-1 -22.823774353542582 -24.190578730383049 6.0487151601847708 #
straight-curve $-1 -7.4128710063957044 -24.190578730383049 1.5301727202490021 -1 0 0 I I #
coedge $-1 $666 $764 $765 $766 reversed $598 $-1 #
coedge $-1 $767 $669 $666 $722 forward $728 $-1 #
edge $-1 $671 -6.0487151601847708 $768 6.0487151601847708 $721 $769 forward 7 unknown #
face $-1 $770 $757 $19 $-1 $771 reversed single #
plane-surface $-1 0 -24.190578730383049 0 0 1 0 0 0 1 forward_v I I I I #
coedge $-1 $772 $748 $668 $726 reversed $773 $-1 #
edge $-1 $729 -54.194769127475816 $774 59.595084617255942 $725 $775 forward 7 unknown #
coedge $-1 $669 $767 $772 $776 reversed $728 $-1 #
loop $-1 $-1 $721 $777 #
vertex $-1 $670 $778 #
straight-curve $-1 54.194769127475816 0 6.0487151601847708 0 1 0 I I #
point $-1 54.194769127475816 -24.190578730383049 6.0487151601847708 #
point $-1 -22.823774353542582 -24.190578730383049 1.5301727202490008 #
edge $-1 $739 -54.194769127475816 $704 54.194769127475816 $702 $779 forward 7 unknown #
straight-curve $-1 54.194769127475816 0 -6.0487151601847708 0 -1 0 I I #
straight-curve $-1 -59.595084617255942 0 3.0487151601847708 0 1 0 I I #
point $-1 -59.595084617255942 24.190578730383049 3.0487151601847708 #
point $-1 -59.595084617255942 -24.190578730383049 3.0487151601847708 #
edge $-1 $698 -24.190578730383049 $739 24.190578730383049 $689 $780 forward 7 unknown #
vertex $-1 $733 $781 #
straight-curve $-1 -54.194769127475816 24.190578730383049 0 0 0 -1 I I #
straight-curve $-1 -54.194769127475816 -24.190578730383049 0 0 0 -1 I I #
straight-curve $-1 -59.595084617255942 -24.190578730383049 4.5487151601847708 0 0 -1 I I #
point $-1 -54.194769127475816 -24.190578730383049 -6.0487151601847708 #
point $-1 54.194769127475816 24.190578730383049 -6.0487151601847708 #
coedge $-1 $765 $782 $767 $783 forward $707 $-1 #
coedge $-1 $784 $709 $750 $785 reversed $656 $-1 #
coedge $-1 $709 $784 $714 $761 reversed $656 $-1 #
coedge $-1 $725 $753 $709 $749 reversed $773 $-1 #
edge $-1 $774 -1.5 $786 1.5 $748 $787 forward 7 unknown #
coedge $-1 $711 $710 $746 $785 forward $587 $-1 #
coedge $-1 $764 $762 $710 $752 reversed $598 $-1 #
edge $-1 $758 -2.7001577448900633 $788 2.7001577448900633 $751 $789 forward 7 unknown #
coedge $-1 $748 $790 $711 $754 reversed $773 $-1 #
edge $-1 $786 -2.7001577448900633 $759 2.7001577448900633 $753 $791 forward 7 unknown #
coedge $-1 $792 $712 $790 $793 forward $757 $-1 #
coedge $-1 $712 $792 $764 $794 reversed $757 $-1 #
loop $-1 $-1 $712 $723 #
vertex $-1 $794 $795 #
vertex $-1 $793 $796 #
straight-curve $-1 -54.194769127475816 0 3.0487151601847708 0 1 0 I I #
edge $-1 $774 -24.190578730383049 $763 24.190578730383049 $747 $797 forward 7 unknown #
coedge $-1 $751 $715 $784 $798 forward $598 $-1 #
vertex $-1 $761 $799 #
coedge $-1 $720 $751 $756 $794 forward $598 $-1 #
coedge $-1 $800 $745 $720 $766 forward $707 $-1 #
edge $-1 $768 -54.194769127475816 $801 54.194769127475816 $720 $802 forward 7 unknown #
coedge $-1 $727 $721 $745 $783 reversed $728 $-1 #
vertex $-1 $722 $803 #
straight-curve $-1 54.194769127475816 -24.190578730383049 0 0 0 -1 I I #
face $-1 $777 $773 $19 $-1 $804 reversed single #
plane-surface $-1 -54.194769127475816 0 0 1 0 0 0 0 -1 forward_v I I I I #
coedge $-1 $805 $725 $727 $776 forward $773 $-1 #
loop $-1 $-1 $772 $770 #
vertex $-1 $726 $806 #
straight-curve $-1 0 24.190578730383049 6.0487151601847708 -1 0 0 I I #
edge $-1 $729 -6.0487151601847708 $807 6.0487151601847708 $727 $808 forward 7 unknown #
face $-1 $-1 $728 $19 $-1 $809 reversed single #
point $-1 54.194769127475816 24.190578730383049 6.0487151601847708 #
straight-curve $-1 0 24.190578730383049 -6.0487151601847708 1 0 0 I I #
straight-curve $-1 -54.194769127475816 0 -6.0487151601847708 0 1 0 I I #
point $-1 -54.194769127475816 24.190578730383049 -6.0487151601847708 #
coedge $-1 $745 $800 $805 $810 forward $707 $-1 #
edge $-1 $807 -24.190578730383049 $768 24.190578730383049 $767 $811 forward 7 unknown #
coedge $-1 $747 $746 $762 $798 reversed $656 $-1 #
edge $-1 $788 -24.190578730383049 $786 24.190578730383049 $746 $812 forward 7 unknown #
vertex $-1 $754 $813 #
straight-curve $-1 -59.595084617255942 24.190578730383049 4.5487151601847708 0 0 -1 I I #
vertex $-1 $785 $814 #
straight-curve $-1 -56.894926872365879 -24.190578730383049 3.0487151601847708 -1 0 0 I I #
coedge $-1 $753 $805 $755 $793 reversed $773 $-1 #
straight-curve $-1 -56.894926872365879 24.190578730383049 3.0487151601847708 1 0 0 I I #
coedge $-1 $756 $755 $800 $815 reversed $757 $-1 #
edge $-1 $759 -3.0487151601847708 $816 6.0487151601847708 $790 $817 forward 7 unknown #
edge $-1 $758 -3.0487151601847708 $801 6.0487151601847708 $756 $818 forward 7 unknown #
point $-1 -54.194769127475816 -24.190578730383049 3.0487151601847708 #
point $-1 -54.194769127475816 24.190578730383049 3.0487151601847708 #
straight-curve $-1 -59.595084617255942 0 6.0487151601847708 0 -1 0 I I #
edge $-1 $763 -1.5 $788 1.5 $784 $819 forward 7 unknown #
point $-1 -59.595084617255942 -24.190578730383049 6.0487151601847708 #
coedge $-1 $782 $765 $792 $815 forward $707 $-1 #
vertex $-1 $815 $820 #
straight-curve $-1 0 -24.190578730383049 -6.0487151601847708 -1 0 0 I I #
point $-1 54.194769127475816 -24.190578730383049 -6.0487151601847708 #
plane-surface $-1 0 24.190578730383049 0 0 -1 0 0 0 -1 forward_v I I I I #
coedge $-1 $790 $772 $782 $810 reversed $773 $-1 #
point $-1 -59.595084617255942 24.190578730383049 6.0487151601847708 #
vertex $-1 $783 $821 #
straight-curve $-1 54.194769127475816 24.190578730383049 0 0 0 -1 I I #
plane-surface $-1 54.194769127475816 0 0 -1 0 0 0 0 1 forward_v I I I I #
edge $-1 $816 -54.194769127475816 $807 54.194769127475816 $805 $822 forward 7 unknown #
straight-curve $-1 54.194769127475816 0 -6.0487151601847708 0 -1 0 I I #
straight-curve $-1 -59.595084617255942 0 3.0487151601847708 0 1 0 I I #
point $-1 -59.595084617255942 24.190578730383049 3.0487151601847708 #
point $-1 -59.595084617255942 -24.190578730383049 3.0487151601847708 #
edge $-1 $801 -24.190578730383049 $816 24.190578730383049 $792 $823 forward 7 unknown #
vertex $-1 $810 $824 #
straight-curve $-1 -54.194769127475816 24.190578730383049 0 0 0 -1 I I #
straight-curve $-1 -54.194769127475816 -24.190578730383049 0 0 0 -1 I I #
straight-curve $-1 -59.595084617255942 -24.190578730383049 4.5487151601847708 0 0 -1 I I #
point $-1 -54.194769127475816 -24.190578730383049 -6.0487151601847708 #
point $-1 54.194769127475816 24.190578730383049 -6.0487151601847708 #
straight-curve $-1 0 24.190578730383049 -6.0487151601847708 1 0 0 I I #
straight-curve $-1 -54.194769127475816 0 -6.0487151601847708 0 1 0 I I #
point $-1 -54.194769127475816 24.190578730383049 -6.0487151601847708 #
End-of-ACIS-data 