500 0 6 0           
7 Unknown 11 ACIS 5.0 NT 24 Thu Mar 25 18:46:20 1999 
-1 9.9999999999999995e-007 1e-010 
body $-1 $6 $-1 $7 #
body $-1 $8 $-1 $9 #
body $-1 $10 $-1 $11 #
body $-1 $12 $-1 $13 #
body $-1 $14 $-1 $15 #
body $-1 $16 $-1 $17 #
lump $-1 $-1 $18 $0 #
transform $-1 1 0 0 0 1 0 0 0 1 50.521561326944791 26.517845055997135 7.5124317784908659 1 rotate no_reflect no_shear #
lump $-1 $-1 $19 $1 #
transform $-1 1 0 0 0 1 0 0 0 1 50.521561326944791 26.517845055997135 7.5124317784908659 1 rotate no_reflect no_shear #
lump $-1 $-1 $20 $2 #
transform $-1 1 0 0 0 1 0 0 0 1 50.521561326944791 26.517845055997135 7.5124317784908659 1 rotate no_reflect no_shear #
lump $-1 $-1 $21 $3 #
transform $-1 1 0 0 0 1 0 0 0 1 50.521561326944791 26.517845055997135 7.5124317784908659 1 rotate no_reflect no_shear #
lump $-1 $-1 $22 $4 #
transform $-1 1 0 0 0 1 0 0 0 1 50.521561326944791 26.517845055997135 7.5124317784908659 1 rotate no_reflect no_shear #
lump $-1 $-1 $23 $5 #
transform $-1 1 0 0 0 1 0 0 0 1 50.521561326944791 26.517845055997135 7.5124317784908659 1 rotate no_reflect no_shear #
shell $-1 $-1 $-1 $24 $-1 $6 #
shell $-1 $-1 $-1 $25 $-1 $8 #
shell $-1 $-1 $-1 $26 $-1 $10 #
shell $-1 $-1 $-1 $27 $-1 $12 #
shell $-1 $-1 $-1 $28 $-1 $14 #
shell $-1 $-1 $-1 $29 $-1 $16 #
face $-1 $30 $31 $18 $-1 $32 reversed single #
face $-1 $33 $34 $19 $-1 $35 forward single #
face $-1 $36 $37 $20 $-1 $38 forward single #
face $-1 $39 $40 $21 $-1 $41 reversed single #
face $-1 $42 $43 $22 $-1 $44 forward single #
face $-1 $45 $46 $23 $-1 $47 forward single #
face $-1 $48 $49 $18 $-1 $50 forward single #
loop $-1 $-1 $51 $24 #
plane-surface $-1 -50.521561326944791 0 0 1 0 0 0 0 -1 forward_v I I I I #
face $-1 $52 $53 $19 $-1 $54 reversed single #
loop $-1 $-1 $55 $25 #
plane-surface $-1 -50.521561326944791 0 0 1 0 0 0 0 -1 forward_v I I I I #
face $-1 $56 $57 $20 $-1 $58 reversed single #
loop $-1 $-1 $59 $26 #
plane-surface $-1 50.521561326944791 0 0 -1 0 0 0 0 1 forward_v I I I I #
face $-1 $60 $61 $21 $-1 $62 reversed single #
loop $-1 $-1 $63 $27 #
plane-surface $-1 -25.123107798011532 48.889871259052377 115.04429935063676 1 0 0 0 -0.62932039886446345 -0.77714595512881146 forward_v I I I I #
face $-1 $64 $65 $22 $-1 $66 forward single #
loop $-1 $67 $68 $28 #
cone-surface $-1 -20.421774561751377 23.301073858945696 4.687066616906189 0 -0.62932039886446345 -0.77714595512881146 1 0 0 1 I I 0 1 1 forward I I I I #
face $-1 $69 $70 $23 $-1 $71 forward single #
loop $-1 $72 $73 $29 #
cone-surface $-1 -13.369774707361145 23.301073858945696 4.687066616906189 0 -0.62932039886446345 -0.77714595512881146 1 0 0 1 I I 0 1 1 forward I I I I #
face $-1 $74 $75 $18 $-1 $76 reversed single #
loop $-1 $-1 $77 $30 #
plane-surface $-1 0 0 7.5124317784908659 0 0 1 1 0 0 forward_v I I I I #
coedge $-1 $78 $79 $80 $81 reversed $31 $-1 #
face $-1 $82 $83 $19 $-1 $84 reversed single #
loop $-1 $-1 $85 $33 #
plane-surface $-1 0 0 -7.5124317784908659 0 0 1 1 0 0 forward_v I I I I #
coedge $-1 $86 $87 $88 $89 forward $34 $-1 #
face $-1 $90 $91 $20 $-1 $92 reversed single #
loop $-1 $-1 $93 $36 #
plane-surface $-1 0 -26.517845055997135 0 0 1 0 0 0 1 forward_v I I I I #
coedge $-1 $94 $95 $96 $97 forward $37 $-1 #
face $-1 $98 $99 $21 $-1 $100 reversed single #
loop $-1 $-1 $101 $39 #
plane-surface $-1 -16.895774634556261 -14.698626992004314 36.519045286582099 0 0.62932039886446345 0.77714595512881146 1 0 0 forward_v I I I I #
coedge $-1 $102 $103 $104 $105 reversed $40 $-1 #
face $-1 $-1 $106 $22 $-1 $107 forward single #
loop $-1 $108 $109 $42 #
cone-surface $-1 -20.421774561751377 22.467786583774561 3.6580425513776458 0 -0.62932039886446345 -0.77714595512881146 0.5 0 0 1 I I -0.70710678118654691 0.70710678118654813 0.5 forward I I I I #
loop $-1 $-1 $110 $28 #
coedge $-1 $68 $68 $111 $112 reversed $43 $-1 #
face $-1 $-1 $113 $23 $-1 $114 forward single #
loop $-1 $115 $116 $45 #
cone-surface $-1 -13.369774707361145 22.467786583774561 3.6580425513776458 0 -0.62932039886446345 -0.77714595512881146 0.5 0 0 1 I I -0.70710678118654691 0.70710678118654813 0.5 forward I I I I #
loop $-1 $-1 $117 $29 #
coedge $-1 $73 $73 $118 $119 reversed $46 $-1 #
face $-1 $120 $121 $18 $-1 $122 reversed single #
loop $-1 $-1 $123 $48 #
plane-surface $-1 0 0 -7.5124317784908659 0 0 1 1 0 0 forward_v I I I I #
coedge $-1 $124 $125 $126 $127 forward $49 $-1 #
coedge $-1 $128 $51 $129 $130 reversed $31 $-1 #
coedge $-1 $51 $128 $131 $132 forward $31 $-1 #
coedge $-1 $133 $134 $51 $81 forward $75 $-1 #
edge $-1 $135 -26.517845055997135 $136 26.517845055997135 $51 $137 forward 7 unknown #
face $-1 $138 $139 $19 $-1 $140 reversed single #
loop $-1 $-1 $141 $52 #
plane-surface $-1 -53.733719143769974 -15.977330329491622 0 0 1 0 0 0 1 forward_v I I I I #
coedge $-1 $142 $143 $87 $144 forward $53 $-1 #
coedge $-1 $145 $55 $146 $147 reversed $34 $-1 #
coedge $-1 $55 $145 $85 $144 reversed $34 $-1 #
coedge $-1 $148 $149 $55 $89 reversed $150 $-1 #
edge $-1 $151 -7.5124317784908659 $152 7.5124317784908659 $88 $153 forward 7 unknown #
face $-1 $154 $155 $20 $-1 $156 forward single #
loop $-1 $-1 $157 $56 #
plane-surface $-1 0 0 -7.5124317784908659 0 0 1 1 0 0 forward_v I I I I #
coedge $-1 $158 $159 $95 $160 forward $57 $-1 #
coedge $-1 $161 $59 $162 $163 reversed $37 $-1 #
coedge $-1 $59 $161 $93 $160 reversed $37 $-1 #
coedge $-1 $164 $165 $59 $97 reversed $155 $-1 #
edge $-1 $166 -26.517845055997135 $167 26.517845055997135 $96 $168 forward 7 unknown #
face $-1 $169 $170 $21 $-1 $171 reversed single #
loop $-1 $-1 $172 $60 #
plane-surface $-1 -8.6684414711009907 48.889871259052377 115.04429935063676 -1 0 0 0 0.62932039886446345 0.77714595512881146 forward_v I I I I #
coedge $-1 $173 $174 $175 $176 reversed $61 $-1 #
coedge $-1 $103 $63 $177 $178 reversed $40 $-1 #
coedge $-1 $63 $102 $173 $179 reversed $40 $-1 #
coedge $-1 $175 $180 $63 $105 forward $181 $-1 #
edge $-1 $182 -2.0729094264709467 $183 3.3233788161541362 $104 $184 forward 7 unknown #
loop $-1 $-1 $111 $64 #
plane-surface $-1 -16.895774634556261 -14.698626992004314 36.519045286582099 0 0.62932039886446345 0.77714595512881146 1 0 0 forward_v I I I I #
loop $-1 $-1 $185 $42 #
coedge $-1 $109 $109 $110 $186 reversed $65 $-1 #
coedge $-1 $110 $110 $109 $186 forward $67 $-1 #
coedge $-1 $111 $111 $68 $112 forward $106 $-1 #
edge $-1 $187 -1.6430794705136253e-015 $187 6.2831853071795987 $111 $188 forward 7 unknown #
loop $-1 $-1 $118 $69 #
plane-surface $-1 -16.895774634556261 -14.698626992004314 36.519045286582099 0 0.62932039886446345 0.77714595512881146 1 0 0 forward_v I I I I #
loop $-1 $-1 $189 $45 #
coedge $-1 $116 $116 $117 $190 reversed $70 $-1 #
coedge $-1 $117 $117 $116 $190 forward $72 $-1 #
coedge $-1 $118 $118 $73 $119 forward $113 $-1 #
edge $-1 $191 -1.6430794705136253e-015 $191 6.2831853071795987 $118 $192 forward 7 unknown #
face $-1 $193 $194 $18 $-1 $195 reversed single #
loop $-1 $-1 $129 $74 #
plane-surface $-1 0 -26.517845055997135 0 0 1 0 0 0 1 forward_v I I I I #
coedge $-1 $134 $133 $196 $197 forward $75 $-1 #
coedge $-1 $198 $77 $199 $200 forward $49 $-1 #
coedge $-1 $77 $198 $201 $202 forward $49 $-1 #
coedge $-1 $203 $204 $77 $127 reversed $205 $-1 #
edge $-1 $206 -26.517845055997135 $207 26.517845055997135 $126 $208 forward 7 unknown #
coedge $-1 $79 $78 $198 $209 reversed $31 $-1 #
coedge $-1 $210 $201 $78 $130 forward $121 $-1 #
edge $-1 $211 -7.5124317784908659 $135 7.5124317784908659 $78 $212 forward 7 unknown #
coedge $-1 $199 $213 $79 $132 reversed $194 $-1 #
edge $-1 $214 -7.5124317784908659 $136 7.5124317784908659 $131 $215 forward 7 unknown #
coedge $-1 $123 $80 $213 $216 forward $75 $-1 #
coedge $-1 $80 $123 $210 $217 forward $75 $-1 #
vertex $-1 $81 $218 #
vertex $-1 $216 $219 #
straight-curve $-1 -50.521561326944791 0 -7.5124317784908659 0 1 0 I I #
face $-1 $220 $150 $19 $-1 $221 reversed single #
loop $-1 $-1 $222 $82 #
plane-surface $-1 -56.945876960595157 -13.735155914253513 0 1 0 0 0 0 -1 forward_v I I I I #
coedge $-1 $223 $224 $225 $226 forward $83 $-1 #
coedge $-1 $227 $85 $223 $228 forward $53 $-1 #
coedge $-1 $85 $227 $148 $229 forward $53 $-1 #
edge $-1 $151 11.492981499015404 $230 15.977330329491622 $85 $231 forward 7 unknown #
coedge $-1 $87 $86 $232 $233 forward $34 $-1 #
coedge $-1 $234 $235 $86 $147 forward $236 $-1 #
edge $-1 $237 -15.977330329491622 $152 -11.492981499015404 $146 $238 forward 7 unknown #
coedge $-1 $239 $88 $143 $229 reversed $150 $-1 #
coedge $-1 $88 $239 $234 $240 reversed $150 $-1 #
loop $-1 $-1 $88 $138 #
vertex $-1 $144 $241 #
vertex $-1 $240 $242 #
straight-curve $-1 -50.521561326944791 -11.492981499015404 0 0 0 1 I I #
face $-1 $243 $244 $20 $-1 $245 reversed single #
loop $-1 $-1 $246 $90 #
plane-surface $-1 55.089217057992698 0 -3.7685275926819681 0 0 1 1 0 0 forward_v I I I I #
coedge $-1 $247 $248 $161 $249 forward $91 $-1 #
coedge $-1 $250 $93 $248 $251 reversed $57 $-1 #
coedge $-1 $93 $250 $164 $252 reversed $57 $-1 #
edge $-1 $166 3.7685275926819681 $253 7.5124317784908659 $93 $254 forward 7 unknown #
coedge $-1 $95 $94 $157 $249 reversed $37 $-1 #
coedge $-1 $255 $256 $94 $163 forward $257 $-1 #
edge $-1 $258 -7.5124317784908659 $167 -3.7685275926819681 $162 $259 forward 7 unknown #
coedge $-1 $246 $96 $159 $252 forward $155 $-1 #
coedge $-1 $96 $246 $255 $260 forward $155 $-1 #
vertex $-1 $160 $261 #
vertex $-1 $260 $262 #
straight-curve $-1 50.521561326944791 0 -3.7685275926819681 0 1 0 I I #
face $-1 $-1 $181 $21 $-1 $263 forward single #
loop $-1 $-1 $264 $98 #
plane-surface $-1 0 26.517845055997135 0 0 -1 0 0 0 -1 forward_v I I I I #
coedge $-1 $265 $266 $267 $268 reversed $99 $-1 #
coedge $-1 $269 $101 $103 $179 forward $61 $-1 #
coedge $-1 $101 $269 $265 $270 forward $61 $-1 #
coedge $-1 $267 $104 $101 $176 forward $181 $-1 #
edge $-1 $183 -16.675220480733401 $271 -0.22055415382286014 $175 $272 forward 7 unknown #
coedge $-1 $273 $274 $102 $178 forward $170 $-1 #
edge $-1 $275 -54.379546044068597 $182 -50.009717896827517 $177 $276 forward 7 unknown #
edge $-1 $183 46.091964538938115 $275 53.035690111994271 $103 $277 forward 7 unknown #
coedge $-1 $104 $267 $273 $278 forward $181 $-1 #
loop $-1 $-1 $267 $169 #
vertex $-1 $178 $279 #
vertex $-1 $105 $280 #
straight-curve $-1 -25.123107798011532 24.444935629526189 7.5124317784908641 0 -1 0 I I #
coedge $-1 $185 $185 $-1 $281 reversed $108 $-1 #
edge $-1 $282 0 $282 6.2831853071796004 $109 $283 forward 7 unknown #
vertex $-1 $112 $284 #
ellipse-curve $-1 -20.421774561751377 23.819700934684597 5.3275177048703268 0 0.62932039886446345 0.77714595512881146 1 0 0 1 I I #
coedge $-1 $189 $189 $-1 $285 reversed $115 $-1 #
edge $-1 $286 0 $286 6.2831853071796004 $116 $287 forward 7 unknown #
vertex $-1 $119 $288 #
ellipse-curve $-1 -13.369774707361145 23.819700934684597 5.3275177048703268 0 0.62932039886446345 0.77714595512881146 1 0 0 1 I I #
face $-1 $-1 $205 $18 $-1 $289 reversed single #
loop $-1 $-1 $290 $120 #
plane-surface $-1 0 26.517845055997135 0 0 -1 0 0 0 -1 forward_v I I I I #
coedge $-1 $204 $203 $123 $197 reversed $205 $-1 #
edge $-1 $291 -26.517845055997135 $292 26.517845055997135 $196 $293 forward 7 unknown #
coedge $-1 $125 $124 $128 $209 forward $49 $-1 #
coedge $-1 $290 $131 $124 $200 reversed $194 $-1 #
edge $-1 $207 -50.521561326944791 $214 50.521561326944791 $199 $294 forward 7 unknown #
coedge $-1 $129 $295 $125 $202 reversed $121 $-1 #
edge $-1 $211 -50.521561326944791 $206 50.521561326944791 $201 $296 forward 7 unknown #
coedge $-1 $196 $126 $295 $297 forward $205 $-1 #
coedge $-1 $126 $196 $290 $298 reversed $205 $-1 #
loop $-1 $-1 $204 $193 #
vertex $-1 $127 $299 #
vertex $-1 $127 $300 #
straight-curve $-1 50.521561326944791 0 7.5124317784908659 0 1 0 I I #
edge $-1 $214 -26.517845055997135 $211 26.517845055997135 $128 $301 forward 7 unknown #
coedge $-1 $295 $129 $134 $217 reversed $121 $-1 #
vertex $-1 $209 $302 #
straight-curve $-1 -50.521561326944791 -26.517845055997135 0 0 0 -1 I I #
coedge $-1 $131 $290 $133 $216 reversed $194 $-1 #
vertex $-1 $200 $303 #
straight-curve $-1 -50.521561326944791 26.517845055997135 0 0 0 -1 I I #
edge $-1 $136 -50.521561326944791 $291 50.521561326944791 $213 $304 forward 7 unknown #
edge $-1 $292 -50.521561326944791 $135 50.521561326944791 $210 $305 forward 7 unknown #
point $-1 -50.521561326944791 -26.517845055997135 -7.5124317784908659 #
point $-1 -50.521561326944791 26.517845055997135 -7.5124317784908659 #
face $-1 $-1 $236 $19 $-1 $306 forward single #
plane-surface $-1 -53.733719143769974 -11.492981499015404 0 0 -1 0 0 0 -1 forward_v I I I I #
coedge $-1 $307 $308 $239 $309 forward $139 $-1 #
coedge $-1 $232 $141 $142 $228 reversed $83 $-1 #
coedge $-1 $141 $232 $235 $310 reversed $83 $-1 #
coedge $-1 $308 $307 $141 $226 reversed $139 $-1 #
edge $-1 $311 -7.5124317784908659 $312 7.5124317784908659 $225 $313 forward 7 unknown #
coedge $-1 $143 $142 $307 $314 forward $53 $-1 #
edge $-1 $230 -3.212157816825183 $312 3.212157816825183 $223 $315 forward 7 unknown #
edge $-1 $316 -3.212157816825183 $151 3.212157816825183 $148 $317 forward 7 unknown #
vertex $-1 $228 $318 #
straight-curve $-1 -50.521561326944791 0 -7.5124317784908659 0 -1 0 I I #
coedge $-1 $224 $223 $145 $233 reversed $83 $-1 #
edge $-1 $237 -7.5124317784908659 $230 7.5124317784908659 $232 $319 forward 7 unknown #
coedge $-1 $320 $146 $149 $240 forward $236 $-1 #
coedge $-1 $146 $320 $224 $310 forward $236 $-1 #
loop $-1 $-1 $146 $220 #
vertex $-1 $147 $321 #
straight-curve $-1 -50.521561326944791 0 7.5124317784908659 0 1 0 I I #
coedge $-1 $149 $148 $222 $309 reversed $150 $-1 #
edge $-1 $152 -3.212157816825183 $322 3.212157816825183 $149 $323 forward 7 unknown #
point $-1 -50.521561326944791 -11.492981499015404 -7.5124317784908659 #
point $-1 -50.521561326944791 -11.492981499015404 7.5124317784908659 #
face $-1 $-1 $257 $20 $-1 $324 reversed single #
loop $-1 $-1 $325 $154 #
plane-surface $-1 59.656872789040605 0 -5.640479685586417 -1 0 0 0 0 1 forward_v I I I I #
coedge $-1 $165 $164 $326 $327 forward $155 $-1 #
coedge $-1 $328 $157 $256 $329 forward $91 $-1 #
coedge $-1 $157 $328 $158 $251 forward $91 $-1 #
edge $-1 $253 -26.517845055997135 $258 26.517845055997135 $157 $330 forward 7 unknown #
coedge $-1 $159 $158 $325 $331 reversed $57 $-1 #
edge $-1 $332 -4.5676557310479069 $253 4.5676557310479069 $158 $333 forward 7 unknown #
edge $-1 $166 -4.5676557310479069 $334 4.5676557310479069 $159 $335 forward 7 unknown #
vertex $-1 $249 $336 #
straight-curve $-1 50.521561326944791 -26.517845055997135 0 0 0 -1 I I #
coedge $-1 $337 $162 $165 $260 reversed $257 $-1 #
coedge $-1 $162 $337 $247 $329 reversed $257 $-1 #
loop $-1 $-1 $162 $243 #
vertex $-1 $329 $338 #
straight-curve $-1 50.521561326944791 26.517845055997135 0 0 0 1 I I #
edge $-1 $339 -4.5676557310479069 $167 4.5676557310479069 $255 $340 forward 7 unknown #
point $-1 50.521561326944791 -26.517845055997135 -3.7685275926819681 #
point $-1 50.521561326944791 26.517845055997135 -3.7685275926819681 #
plane-surface $-1 0 0 7.5124317784908659 0 0 1 1 0 0 forward_v I I I I #
coedge $-1 $274 $273 $266 $341 forward $170 $-1 #
coedge $-1 $266 $172 $174 $270 reversed $99 $-1 #
coedge $-1 $172 $265 $264 $341 reversed $99 $-1 #
coedge $-1 $180 $175 $172 $268 forward $181 $-1 #
edge $-1 $271 -3.3233788161541362 $342 2.0729094264709467 $267 $343 forward 7 unknown #
coedge $-1 $174 $173 $274 $344 reversed $61 $-1 #
edge $-1 $345 -53.035690111994271 $271 -46.091964538938115 $265 $346 forward 7 unknown #
vertex $-1 $176 $347 #
straight-curve $-1 -8.4478873172781306 21.121556813372052 7.5124317784908605 1 0 0 I I #
coedge $-1 $264 $177 $180 $278 reversed $170 $-1 #
coedge $-1 $177 $264 $269 $344 forward $170 $-1 #
vertex $-1 $178 $348 #
straight-curve $-1 -25.123107798011532 26.517845055997135 57.522149675318381 0 0 1 I I #
straight-curve $-1 -25.123107798011532 -14.698626992004314 36.519045286582099 0 0.77714595512881146 -0.62932039886446345 I I #
edge $-1 $342 8.6684414711009907 $182 25.123107798011532 $273 $349 forward 7 unknown #
point $-1 -25.123107798011532 26.517845055997135 7.5124317784908659 #
point $-1 -25.123107798011532 21.121556813372052 7.5124317784908641 #
edge $-1 $350 1 $350 0 $185 $-1 forward 7 unknown #
vertex $-1 $186 $351 #
ellipse-curve $-1 -20.421774561751377 22.782446783206794 4.046615528942052 0 0.62932039886446345 0.77714595512881146 1 0 0 1 I I #
point $-1 -19.421774561751377 23.819700934684594 5.3275177048703251 #
edge $-1 $352 1 $352 0 $189 $-1 forward 7 unknown #
vertex $-1 $190 $353 #
ellipse-curve $-1 -13.369774707361145 22.782446783206794 4.046615528942052 0 0.62932039886446345 0.77714595512881146 1 0 0 1 I I #
point $-1 -12.369774707361145 23.819700934684594 5.3275177048703251 #
plane-surface $-1 50.521561326944791 0 0 -1 0 0 0 0 1 forward_v I I I I #
coedge $-1 $213 $199 $204 $298 forward $194 $-1 #
vertex $-1 $197 $354 #
vertex $-1 $297 $355 #
straight-curve $-1 50.521561326944791 0 -7.5124317784908659 0 -1 0 I I #
straight-curve $-1 0 26.517845055997135 7.5124317784908659 -1 0 0 I I #
coedge $-1 $201 $210 $203 $297 reversed $121 $-1 #
straight-curve $-1 0 -26.517845055997135 7.5124317784908659 1 0 0 I I #
edge $-1 $206 -7.5124317784908659 $292 7.5124317784908659 $203 $356 forward 7 unknown #
edge $-1 $207 -7.5124317784908659 $291 7.5124317784908659 $204 $357 forward 7 unknown #
point $-1 50.521561326944791 -26.517845055997135 7.5124317784908659 #
point $-1 50.521561326944791 26.517845055997135 7.5124317784908659 #
straight-curve $-1 -50.521561326944791 0 7.5124317784908659 0 -1 0 I I #
point $-1 -50.521561326944791 -26.517845055997135 7.5124317784908659 #
point $-1 -50.521561326944791 26.517845055997135 7.5124317784908659 #
straight-curve $-1 0 26.517845055997135 -7.5124317784908659 1 0 0 I I #
straight-curve $-1 0 -26.517845055997135 -7.5124317784908659 -1 0 0 I I #
plane-surface $-1 0 0 7.5124317784908659 0 0 1 1 0 0 forward_v I I I I #
coedge $-1 $225 $222 $227 $314 reversed $139 $-1 #
coedge $-1 $222 $225 $320 $358 reversed $139 $-1 #
edge $-1 $322 -7.5124317784908659 $316 7.5124317784908659 $239 $359 forward 7 unknown #
edge $-1 $311 -3.212157816825183 $237 3.212157816825183 $224 $360 forward 7 unknown #
vertex $-1 $358 $361 #
vertex $-1 $314 $362 #
straight-curve $-1 -56.945876960595157 -15.977330329491622 0 0 0 -1 I I #
edge $-1 $312 -2.2421744152381091 $316 2.2421744152381091 $307 $363 forward 7 unknown #
straight-curve $-1 -53.733719143769974 -15.977330329491622 -7.5124317784908659 -1 0 0 I I #
vertex $-1 $229 $364 #
straight-curve $-1 -53.733719143769974 -11.492981499015404 -7.5124317784908659 1 0 0 I I #
point $-1 -50.521561326944791 -15.977330329491622 -7.5124317784908659 #
straight-curve $-1 -50.521561326944791 -15.977330329491622 0 0 0 -1 I I #
coedge $-1 $235 $234 $308 $358 forward $236 $-1 #
point $-1 -50.521561326944791 -15.977330329491622 7.5124317784908659 #
vertex $-1 $240 $365 #
straight-curve $-1 -53.733719143769974 -11.492981499015404 7.5124317784908659 -1 0 0 I I #
plane-surface $-1 0 26.517845055997135 0 0 -1 0 0 0 -1 forward_v I I I I #
coedge $-1 $366 $326 $250 $331 forward $244 $-1 #
coedge $-1 $325 $367 $246 $327 reversed $244 $-1 #
edge $-1 $334 -26.517845055997135 $339 26.517845055997135 $326 $368 forward 7 unknown #
coedge $-1 $248 $247 $366 $369 forward $91 $-1 #
edge $-1 $258 -4.5676557310479069 $370 4.5676557310479069 $256 $371 forward 7 unknown #
straight-curve $-1 50.521561326944791 0 -7.5124317784908659 0 1 0 I I #
edge $-1 $334 -1.8719520929044489 $332 1.8719520929044489 $325 $372 forward 7 unknown #
vertex $-1 $331 $373 #
straight-curve $-1 55.089217057992698 -26.517845055997135 -7.5124317784908659 -1 0 0 I I #
vertex $-1 $327 $374 #
straight-curve $-1 55.089217057992698 -26.517845055997135 -3.7685275926819681 1 0 0 I I #
point $-1 50.521561326944791 -26.517845055997135 -7.5124317784908659 #
coedge $-1 $256 $255 $367 $375 forward $257 $-1 #
point $-1 50.521561326944791 26.517845055997135 -7.5124317784908659 #
vertex $-1 $327 $376 #
straight-curve $-1 55.089217057992698 26.517845055997135 -3.7685275926819681 -1 0 0 I I #
edge $-1 $342 50.009717896827517 $345 54.379546044068597 $264 $377 forward 7 unknown #
vertex $-1 $278 $378 #
straight-curve $-1 -8.6684414711009907 24.444935629526189 7.5124317784908641 0 1 0 I I #
edge $-1 $345 0.22055415382286014 $275 16.675220480733401 $274 $379 forward 7 unknown #
vertex $-1 $344 $380 #
straight-curve $-1 -8.6684414711009907 -14.698626992004314 36.519045286582099 0 -0.77714595512881146 0.62932039886446345 I I #
point $-1 -8.6684414711009907 21.121556813372052 7.5124317784908641 #
point $-1 -25.123107798011532 26.517845055997135 3.1426036312497843 #
straight-curve $-1 0 26.517845055997135 7.5124317784908659 -1 0 0 I I #
vertex $-1 $281 $381 #
point $-1 -19.421774561751377 22.782446783206794 4.046615528942052 #
vertex $-1 $285 $382 #
point $-1 -12.369774707361145 22.782446783206794 4.046615528942052 #
point $-1 50.521561326944791 26.517845055997135 -7.5124317784908659 #
point $-1 50.521561326944791 -26.517845055997135 -7.5124317784908659 #
straight-curve $-1 50.521561326944791 -26.517845055997135 0 0 0 -1 I I #
straight-curve $-1 50.521561326944791 26.517845055997135 0 0 0 -1 I I #
edge $-1 $322 -2.2421744152381091 $311 2.2421744152381091 $308 $383 forward 7 unknown #
straight-curve $-1 -56.945876960595157 -11.492981499015404 0 0 0 -1 I I #
straight-curve $-1 -53.733719143769974 -15.977330329491622 7.5124317784908659 1 0 0 I I #
point $-1 -56.945876960595157 -15.977330329491622 7.5124317784908659 #
point $-1 -56.945876960595157 -15.977330329491622 -7.5124317784908659 #
straight-curve $-1 -56.945876960595157 -13.735155914253513 -7.5124317784908659 0 1 0 I I #
point $-1 -56.945876960595157 -11.492981499015404 -7.5124317784908659 #
point $-1 -56.945876960595157 -11.492981499015404 7.5124317784908659 #
coedge $-1 $367 $325 $328 $369 reversed $244 $-1 #
coedge $-1 $326 $366 $337 $375 reversed $244 $-1 #
straight-curve $-1 59.656872789040605 0 -3.7685275926819681 0 1 0 I I #
edge $-1 $370 -26.517845055997135 $332 26.517845055997135 $366 $384 forward 7 unknown #
vertex $-1 $369 $385 #
straight-curve $-1 55.089217057992698 26.517845055997135 -7.5124317784908659 1 0 0 I I #
straight-curve $-1 59.656872789040605 -26.517845055997135 -5.640479685586417 0 0 -1 I I #
point $-1 59.656872789040605 -26.517845055997135 -7.5124317784908659 #
point $-1 59.656872789040605 -26.517845055997135 -3.7685275926819681 #
edge $-1 $339 -1.8719520929044489 $370 1.8719520929044489 $367 $386 forward 7 unknown #
point $-1 59.656872789040605 26.517845055997135 -3.7685275926819681 #
straight-curve $-1 -8.6684414711009907 26.517845055997135 57.522149675318381 0 0 -1 I I #
point $-1 -8.6684414711009907 26.517845055997135 7.5124317784908659 #
straight-curve $-1 -8.4478873172781306 26.517845055997132 3.1426036312497878 -1 0 0 I I #
point $-1 -8.6684414711009907 26.517845055997135 3.1426036312497843 #
point $-1 -20.421774561751377 22.153126384342329 3.2694695738132395 #
point $-1 -13.369774707361145 22.153126384342329 3.2694695738132395 #
straight-curve $-1 -56.945876960595157 -13.735155914253513 7.5124317784908659 0 -1 0 I I #
straight-curve $-1 59.656872789040605 0 -7.5124317784908659 0 -1 0 I I #
point $-1 59.656872789040605 26.517845055997135 -7.5124317784908659 #
straight-curve $-1 59.656872789040605 26.517845055997135 -5.640479685586417 0 0 -1 I I #
End-of-ACIS-data 