500 0 18 0           
7 Unknown 11 ACIS 5.0 NT 24 Thu Mar 25 20:26:19 1999 
-1 9.9999999999999995e-007 1e-010 
body $-1 $18 $-1 $19 #
body $-1 $20 $-1 $21 #
body $-1 $22 $-1 $23 #
body $-1 $24 $-1 $25 #
body $-1 $26 $-1 $27 #
body $-1 $28 $-1 $29 #
body $-1 $30 $-1 $31 #
body $-1 $32 $-1 $33 #
body $-1 $34 $-1 $35 #
body $-1 $36 $-1 $37 #
body $-1 $38 $-1 $39 #
body $-1 $40 $-1 $41 #
body $-1 $42 $-1 $43 #
body $-1 $44 $-1 $45 #
body $-1 $46 $-1 $47 #
body $-1 $48 $-1 $49 #
body $-1 $50 $-1 $51 #
body $-1 $52 $-1 $53 #
lump $-1 $-1 $54 $0 #
transform $-1 1 0 0 0 1 0 0 0 1 41.073030793176059 21.223050598633456 10.261769529082589 1 rotate no_reflect no_shear #
lump $-1 $-1 $55 $1 #
transform $-1 1 0 0 0 1 0 0 0 1 5.1499038161328707 21.223050598633456 16.739441175617998 1 rotate no_reflect no_shear #
lump $-1 $-1 $56 $2 #
transform $-1 1 0 0 0 0.70710677298230451 -0.70710678939079041 0 0.70710678939079041 0.70710677298230451 52.546395827371938 70.518213423410742 98.439963679281249 1 rotate no_reflect no_shear #
lump $-1 $-1 $57 $3 #
transform $-1 1 0 0 0 -0.70710677298230451 0.70710678939079041 0 -0.70710678939079041 -0.70710677298230451 46.983776302581163 35.278232392890814 13.355670183810169 1 rotate no_reflect no_shear #
lump $-1 $-1 $58 $4 #
transform $-1 1 0 0 0 -0.70710677298230451 0.70710678939079041 0 -0.70710678939079041 -0.70710677298230451 52.546395827371938 35.278232392890814 13.355670183810169 1 rotate no_reflect no_shear #
lump $-1 $-1 $59 $5 #
transform $-1 1 0 0 0 -0.70710677298230451 0.70710678939079041 0 -0.70710678939079041 -0.70710677298230451 58.109015352162714 35.278232392890814 13.355670183810169 1 rotate no_reflect no_shear #
lump $-1 $-1 $60 $6 #
transform $-1 1 0 0 0 0.66913059716165679 0.74314483375859142 0 -0.74314483375859142 0.66913059716165679 20.79256861721095 -61.046421281512643 70.168751366904971 1 rotate no_reflect no_shear #
lump $-1 $-1 $61 $7 #
transform $-1 1 0 0 0 -0.66913059716165679 -0.74314483375859142 0 0.74314483375859142 -0.66913059716165679 18.784575780119429 5.5498837204472986 15.022819835131241 1 rotate no_reflect no_shear #
lump $-1 $-1 $62 $8 #
transform $-1 1 0 0 0 -0.66913059716165679 -0.74314483375859142 0 0.74314483375859142 -0.66913059716165679 22.800561454302471 5.5498837204472986 15.022819835131241 1 rotate no_reflect no_shear #
lump $-1 $-1 $63 $9 #
transform $-1 1 0 0 0 0.66913059716165679 0.74314483375859142 0 -0.74314483375859142 0.66913059716165679 37.746145945276268 -61.046421281512643 70.168751366904971 1 rotate no_reflect no_shear #
lump $-1 $-1 $64 $10 #
transform $-1 1 0 0 0 -0.66913059716165679 -0.74314483375859142 0 0.74314483375859142 -0.66913059716165679 35.738153108184747 5.5498837204472986 15.022819835131241 1 rotate no_reflect no_shear #
lump $-1 $-1 $65 $11 #
transform $-1 1 0 0 0 -0.66913059716165679 -0.74314483375859142 0 0.74314483375859142 -0.66913059716165679 39.754138782367789 5.5498837204472986 15.022819835131241 1 rotate no_reflect no_shear #
lump $-1 $-1 $66 $12 #
transform $-1 1 0 0 0 0.66913059716165679 0.74314483375859142 0 -0.74314483375859142 0.66913059716165679 54.69972327334159 -61.046421281512643 70.168751366904971 1 rotate no_reflect no_shear #
lump $-1 $-1 $67 $13 #
transform $-1 1 0 0 0 -0.66913059716165679 -0.74314483375859142 0 0.74314483375859142 -0.66913059716165679 52.691730436250069 5.5498837204472986 15.022819835131241 1 rotate no_reflect no_shear #
lump $-1 $-1 $68 $14 #
transform $-1 1 0 0 0 -0.66913059716165679 -0.74314483375859142 0 0.74314483375859142 -0.66913059716165679 56.707716110433111 5.5498837204472986 15.022819835131241 1 rotate no_reflect no_shear #
lump $-1 $-1 $69 $15 #
transform $-1 1 0 0 0 0.66913059716165679 0.74314483375859142 0 -0.74314483375859142 0.66913059716165679 71.653300601406912 -61.046421281512643 70.168751366904971 1 rotate no_reflect no_shear #
lump $-1 $-1 $70 $16 #
transform $-1 1 0 0 0 -0.66913059716165679 -0.74314483375859142 0 0.74314483375859142 -0.66913059716165679 69.64530776431539 5.5498837204472986 15.022819835131241 1 rotate no_reflect no_shear #
lump $-1 $-1 $71 $17 #
transform $-1 1 0 0 0 -0.66913059716165679 -0.74314483375859142 0 0.74314483375859142 -0.66913059716165679 73.661293438498433 5.5498837204472986 15.022819835131241 1 rotate no_reflect no_shear #
shell $-1 $-1 $-1 $72 $-1 $18 #
shell $-1 $-1 $-1 $73 $-1 $20 #
shell $-1 $-1 $-1 $74 $-1 $22 #
shell $-1 $-1 $-1 $75 $-1 $24 #
shell $-1 $-1 $-1 $76 $-1 $26 #
shell $-1 $-1 $-1 $77 $-1 $28 #
shell $-1 $-1 $-1 $78 $-1 $30 #
shell $-1 $-1 $-1 $79 $-1 $32 #
shell $-1 $-1 $-1 $80 $-1 $34 #
shell $-1 $-1 $-1 $81 $-1 $36 #
shell $-1 $-1 $-1 $82 $-1 $38 #
shell $-1 $-1 $-1 $83 $-1 $40 #
shell $-1 $-1 $-1 $84 $-1 $42 #
shell $-1 $-1 $-1 $85 $-1 $44 #
shell $-1 $-1 $-1 $86 $-1 $46 #
shell $-1 $-1 $-1 $87 $-1 $48 #
shell $-1 $-1 $-1 $88 $-1 $50 #
shell $-1 $-1 $-1 $89 $-1 $52 #
face $-1 $90 $91 $54 $-1 $92 forward single #
face $-1 $93 $94 $55 $-1 $95 forward single #
face $-1 $96 $97 $56 $-1 $98 forward single #
face $-1 $99 $100 $57 $-1 $101 forward single #
face $-1 $102 $103 $58 $-1 $104 forward single #
face $-1 $105 $106 $59 $-1 $107 forward single #
face $-1 $108 $109 $60 $-1 $110 forward single #
face $-1 $111 $112 $61 $-1 $113 forward single #
face $-1 $114 $115 $62 $-1 $116 forward single #
face $-1 $117 $118 $63 $-1 $119 forward single #
face $-1 $120 $121 $64 $-1 $122 forward single #
face $-1 $123 $124 $65 $-1 $125 forward single #
face $-1 $126 $127 $66 $-1 $128 forward single #
face $-1 $129 $130 $67 $-1 $131 forward single #
face $-1 $132 $133 $68 $-1 $134 forward single #
face $-1 $135 $136 $69 $-1 $137 forward single #
face $-1 $138 $139 $70 $-1 $140 forward single #
face $-1 $141 $142 $71 $-1 $143 forward single #
face $-1 $144 $145 $54 $-1 $146 reversed single #
loop $-1 $-1 $147 $72 #
plane-surface $-1 0 0 10.261769529082589 0 0 1 1 0 0 forward_v I I I I #
face $-1 $148 $149 $55 $-1 $150 reversed single #
loop $-1 $-1 $151 $73 #
plane-surface $-1 0 0 1.5 0 0 1 1 0 0 forward_v I I I I #
face $-1 $152 $153 $56 $-1 $154 reversed single #
loop $-1 $-1 $155 $74 #
plane-surface $-1 0 0 82.146061586352118 0 0 1 1 0 0 forward_v I I I I #
face $-1 $156 $157 $57 $-1 $158 forward single #
loop $-1 $159 $160 $75 #
cone-surface $-1 0 0 -1.7180242316965231 0 0 1 1 0 0 1 I I 0 1 1 forward I I I I #
face $-1 $161 $162 $58 $-1 $163 forward single #
loop $-1 $164 $165 $76 #
cone-surface $-1 0 0 -1.7180242316965231 0 0 1 1 0 0 1 I I 0 1 1 forward I I I I #
face $-1 $166 $167 $59 $-1 $168 forward single #
loop $-1 $169 $170 $77 #
cone-surface $-1 0 0 -1.7180242316965231 0 0 1 1 0 0 1 I I 0 1 1 forward I I I I #
face $-1 $171 $172 $60 $-1 $173 reversed single #
loop $-1 $-1 $174 $78 #
plane-surface $-1 0 0 82.146061586352118 0 0 1 1 0 0 forward_v I I I I #
face $-1 $175 $176 $61 $-1 $177 forward single #
loop $-1 $178 $179 $79 #
cone-surface $-1 0 0 -2.3722342600787378 0 0 1 1 0 0 1 I I 0 1 1 forward I I I I #
face $-1 $180 $181 $62 $-1 $182 forward single #
loop $-1 $183 $184 $80 #
cone-surface $-1 0 0 -2.3722342600787378 0 0 1 1 0 0 1 I I 0 1 1 forward I I I I #
face $-1 $185 $186 $63 $-1 $187 reversed single #
loop $-1 $-1 $188 $81 #
plane-surface $-1 0 0 82.146061586352118 0 0 1 1 0 0 forward_v I I I I #
face $-1 $189 $190 $64 $-1 $191 forward single #
loop $-1 $192 $193 $82 #
cone-surface $-1 0 0 -2.3722342600787378 0 0 1 1 0 0 1 I I 0 1 1 forward I I I I #
face $-1 $194 $195 $65 $-1 $196 forward single #
loop $-1 $197 $198 $83 #
cone-surface $-1 0 0 -2.3722342600787378 0 0 1 1 0 0 1 I I 0 1 1 forward I I I I #
face $-1 $199 $200 $66 $-1 $201 reversed single #
loop $-1 $-1 $202 $84 #
plane-surface $-1 0 0 82.146061586352118 0 0 1 1 0 0 forward_v I I I I #
face $-1 $203 $204 $67 $-1 $205 forward single #
loop $-1 $206 $207 $85 #
cone-surface $-1 0 0 -2.3722342600787378 0 0 1 1 0 0 1 I I 0 1 1 forward I I I I #
face $-1 $208 $209 $68 $-1 $210 forward single #
loop $-1 $211 $212 $86 #
cone-surface $-1 0 0 -2.3722342600787378 0 0 1 1 0 0 1 I I 0 1 1 forward I I I I #
face $-1 $213 $214 $69 $-1 $215 reversed single #
loop $-1 $-1 $216 $87 #
plane-surface $-1 0 0 82.146061586352118 0 0 1 1 0 0 forward_v I I I I #
face $-1 $217 $218 $70 $-1 $219 forward single #
loop $-1 $220 $221 $88 #
cone-surface $-1 0 0 -2.3722342600787378 0 0 1 1 0 0 1 I I 0 1 1 forward I I I I #
face $-1 $222 $223 $71 $-1 $224 forward single #
loop $-1 $225 $226 $89 #
cone-surface $-1 0 0 -2.3722342600787378 0 0 1 1 0 0 1 I I 0 1 1 forward I I I I #
face $-1 $227 $228 $54 $-1 $229 reversed single #
loop $-1 $-1 $230 $90 #
plane-surface $-1 0 0 -10.261769529082589 0 0 1 1 0 0 forward_v I I I I #
coedge $-1 $231 $232 $233 $234 forward $91 $-1 #
face $-1 $235 $236 $55 $-1 $237 reversed single #
loop $-1 $-1 $238 $93 #
plane-surface $-1 0 0 -1.5 0 0 1 1 0 0 forward_v I I I I #
coedge $-1 $239 $240 $241 $242 forward $94 $-1 #
face $-1 $243 $244 $56 $-1 $245 reversed single #
loop $-1 $-1 $246 $96 #
plane-surface $-1 0 0 -82.146061586352118 0 0 1 1 0 0 forward_v I I I I #
coedge $-1 $247 $248 $249 $250 forward $97 $-1 #
face $-1 $-1 $251 $57 $-1 $252 forward single #
loop $-1 $-1 $253 $99 #
plane-surface $-1 0 0 -2.936048463393047 0 0 -1 -1 0 0 forward_v I I I I #
loop $-1 $-1 $254 $75 #
coedge $-1 $160 $160 $253 $255 reversed $100 $-1 #
face $-1 $-1 $256 $58 $-1 $257 forward single #
loop $-1 $-1 $258 $102 #
plane-surface $-1 0 0 -2.936048463393047 0 0 -1 -1 0 0 forward_v I I I I #
loop $-1 $-1 $259 $76 #
coedge $-1 $165 $165 $258 $260 reversed $103 $-1 #
face $-1 $-1 $261 $59 $-1 $262 forward single #
loop $-1 $-1 $263 $105 #
plane-surface $-1 0 0 -2.936048463393047 0 0 -1 -1 0 0 forward_v I I I I #
loop $-1 $-1 $264 $77 #
coedge $-1 $170 $170 $263 $265 reversed $106 $-1 #
face $-1 $266 $267 $60 $-1 $268 reversed single #
loop $-1 $-1 $269 $108 #
plane-surface $-1 0 0 -82.146061586352118 0 0 1 1 0 0 forward_v I I I I #
coedge $-1 $270 $271 $272 $273 forward $109 $-1 #
face $-1 $-1 $274 $61 $-1 $275 forward single #
loop $-1 $-1 $276 $111 #
plane-surface $-1 0 0 -4.2444685201574757 0 0 -1 -1 0 0 forward_v I I I I #
loop $-1 $-1 $277 $79 #
coedge $-1 $179 $179 $276 $278 reversed $112 $-1 #
face $-1 $-1 $279 $62 $-1 $280 forward single #
loop $-1 $-1 $281 $114 #
plane-surface $-1 0 0 -4.2444685201574757 0 0 -1 -1 0 0 forward_v I I I I #
loop $-1 $-1 $282 $80 #
coedge $-1 $184 $184 $281 $283 reversed $115 $-1 #
face $-1 $284 $285 $63 $-1 $286 reversed single #
loop $-1 $-1 $287 $117 #
plane-surface $-1 0 0 -82.146061586352118 0 0 1 1 0 0 forward_v I I I I #
coedge $-1 $288 $289 $290 $291 forward $118 $-1 #
face $-1 $-1 $292 $64 $-1 $293 forward single #
loop $-1 $-1 $294 $120 #
plane-surface $-1 0 0 -4.2444685201574757 0 0 -1 -1 0 0 forward_v I I I I #
loop $-1 $-1 $295 $82 #
coedge $-1 $193 $193 $294 $296 reversed $121 $-1 #
face $-1 $-1 $297 $65 $-1 $298 forward single #
loop $-1 $-1 $299 $123 #
plane-surface $-1 0 0 -4.2444685201574757 0 0 -1 -1 0 0 forward_v I I I I #
loop $-1 $-1 $300 $83 #
coedge $-1 $198 $198 $299 $301 reversed $124 $-1 #
face $-1 $302 $303 $66 $-1 $304 reversed single #
loop $-1 $-1 $305 $126 #
plane-surface $-1 0 0 -82.146061586352118 0 0 1 1 0 0 forward_v I I I I #
coedge $-1 $306 $307 $308 $309 forward $127 $-1 #
face $-1 $-1 $310 $67 $-1 $311 forward single #
loop $-1 $-1 $312 $129 #
plane-surface $-1 0 0 -4.2444685201574757 0 0 -1 -1 0 0 forward_v I I I I #
loop $-1 $-1 $313 $85 #
coedge $-1 $207 $207 $312 $314 reversed $130 $-1 #
face $-1 $-1 $315 $68 $-1 $316 forward single #
loop $-1 $-1 $317 $132 #
plane-surface $-1 0 0 -4.2444685201574757 0 0 -1 -1 0 0 forward_v I I I I #
loop $-1 $-1 $318 $86 #
coedge $-1 $212 $212 $317 $319 reversed $133 $-1 #
face $-1 $320 $321 $69 $-1 $322 reversed single #
loop $-1 $-1 $323 $135 #
plane-surface $-1 0 0 -82.146061586352118 0 0 1 1 0 0 forward_v I I I I #
coedge $-1 $324 $325 $326 $327 forward $136 $-1 #
face $-1 $-1 $328 $70 $-1 $329 forward single #
loop $-1 $-1 $330 $138 #
plane-surface $-1 0 0 -4.2444685201574757 0 0 -1 -1 0 0 forward_v I I I I #
loop $-1 $-1 $331 $88 #
coedge $-1 $221 $221 $330 $332 reversed $139 $-1 #
face $-1 $-1 $333 $71 $-1 $334 forward single #
loop $-1 $-1 $335 $141 #
plane-surface $-1 0 0 -4.2444685201574757 0 0 -1 -1 0 0 forward_v I I I I #
loop $-1 $-1 $336 $89 #
coedge $-1 $226 $226 $335 $337 reversed $142 $-1 #
face $-1 $338 $339 $54 $-1 $340 reversed single #
loop $-1 $-1 $341 $144 #
plane-surface $-1 0 -21.223050598633456 0 0 1 0 0 0 1 forward_v I I I I #
coedge $-1 $342 $343 $344 $345 forward $145 $-1 #
coedge $-1 $346 $147 $347 $348 forward $91 $-1 #
coedge $-1 $147 $346 $349 $350 forward $91 $-1 #
coedge $-1 $351 $352 $147 $234 reversed $353 $-1 #
edge $-1 $354 -21.223050598633456 $355 21.223050598633456 $233 $356 forward 7 unknown #
face $-1 $357 $358 $55 $-1 $359 reversed single #
loop $-1 $-1 $360 $148 #
plane-surface $-1 0 -21.223050598633456 0 0 1 0 0 0 1 forward_v I I I I #
coedge $-1 $361 $362 $363 $364 forward $149 $-1 #
coedge $-1 $365 $151 $366 $367 forward $94 $-1 #
coedge $-1 $151 $365 $368 $369 forward $94 $-1 #
coedge $-1 $370 $371 $151 $242 reversed $372 $-1 #
edge $-1 $373 -21.223050598633456 $374 21.223050598633456 $241 $375 forward 7 unknown #
face $-1 $376 $377 $56 $-1 $378 reversed single #
loop $-1 $-1 $379 $152 #
plane-surface $-1 0 -164.29212317270424 0 0 1 0 0 0 1 forward_v I I I I #
coedge $-1 $380 $381 $382 $383 forward $153 $-1 #
coedge $-1 $384 $155 $385 $386 forward $97 $-1 #
coedge $-1 $155 $384 $387 $388 forward $97 $-1 #
coedge $-1 $389 $390 $155 $250 reversed $391 $-1 #
edge $-1 $392 -164.29212317270424 $393 164.29212317270424 $249 $394 forward 7 unknown #
loop $-1 $395 $396 $156 #
cone-surface $-1 0 0 0 0 0 1 0.5 0 0 1 I I -0.70710678118654746 0.70710678118654746 0.5 forward I I I I #
coedge $-1 $253 $253 $160 $255 forward $157 $-1 #
coedge $-1 $254 $254 $396 $397 forward $159 $-1 #
edge $-1 $398 0 $398 6.2831853071796004 $253 $399 forward 7 unknown #
loop $-1 $400 $401 $161 #
cone-surface $-1 0 0 0 0 0 1 0.5 0 0 1 I I -0.70710678118654746 0.70710678118654746 0.5 forward I I I I #
coedge $-1 $258 $258 $165 $260 forward $162 $-1 #
coedge $-1 $259 $259 $401 $402 forward $164 $-1 #
edge $-1 $403 0 $403 6.2831853071796004 $258 $404 forward 7 unknown #
loop $-1 $405 $406 $166 #
cone-surface $-1 0 0 0 0 0 1 0.5 0 0 1 I I -0.70710678118654746 0.70710678118654746 0.5 forward I I I I #
coedge $-1 $263 $263 $170 $265 forward $167 $-1 #
coedge $-1 $264 $264 $406 $407 forward $169 $-1 #
edge $-1 $408 0 $408 6.2831853071796004 $263 $409 forward 7 unknown #
face $-1 $410 $411 $60 $-1 $412 reversed single #
loop $-1 $-1 $413 $171 #
plane-surface $-1 0 -164.29212317270424 0 0 1 0 0 0 1 forward_v I I I I #
coedge $-1 $414 $415 $416 $417 forward $172 $-1 #
coedge $-1 $418 $174 $419 $420 forward $109 $-1 #
coedge $-1 $174 $418 $421 $422 forward $109 $-1 #
coedge $-1 $423 $424 $174 $273 reversed $425 $-1 #
edge $-1 $426 -164.29212317270424 $427 164.29212317270424 $272 $428 forward 7 unknown #
loop $-1 $429 $430 $175 #
cone-surface $-1 0 0 0 0 0 1 0.5 0 0 1 I I -0.70710678118654746 0.70710678118654746 0.5 forward I I I I #
coedge $-1 $276 $276 $179 $278 forward $176 $-1 #
coedge $-1 $277 $277 $430 $431 forward $178 $-1 #
edge $-1 $432 0 $432 6.2831853071796004 $276 $433 forward 7 unknown #
loop $-1 $434 $435 $180 #
cone-surface $-1 0 0 0 0 0 1 0.5 0 0 1 I I -0.70710678118654746 0.70710678118654746 0.5 forward I I I I #
coedge $-1 $281 $281 $184 $283 forward $181 $-1 #
coedge $-1 $282 $282 $435 $436 forward $183 $-1 #
edge $-1 $437 0 $437 6.2831853071796004 $281 $438 forward 7 unknown #
face $-1 $439 $440 $63 $-1 $441 reversed single #
loop $-1 $-1 $442 $185 #
plane-surface $-1 0 -164.29212317270424 0 0 1 0 0 0 1 forward_v I I I I #
coedge $-1 $443 $444 $445 $446 forward $186 $-1 #
coedge $-1 $447 $188 $448 $449 forward $118 $-1 #
coedge $-1 $188 $447 $450 $451 forward $118 $-1 #
coedge $-1 $452 $453 $188 $291 reversed $454 $-1 #
edge $-1 $455 -164.29212317270424 $456 164.29212317270424 $290 $457 forward 7 unknown #
loop $-1 $458 $459 $189 #
cone-surface $-1 0 0 0 0 0 1 0.5 0 0 1 I I -0.70710678118654746 0.70710678118654746 0.5 forward I I I I #
coedge $-1 $294 $294 $193 $296 forward $190 $-1 #
coedge $-1 $295 $295 $459 $460 forward $192 $-1 #
edge $-1 $461 0 $461 6.2831853071796004 $294 $462 forward 7 unknown #
loop $-1 $463 $464 $194 #
cone-surface $-1 0 0 0 0 0 1 0.5 0 0 1 I I -0.70710678118654746 0.70710678118654746 0.5 forward I I I I #
coedge $-1 $299 $299 $198 $301 forward $195 $-1 #
coedge $-1 $300 $300 $464 $465 forward $197 $-1 #
edge $-1 $466 0 $466 6.2831853071796004 $299 $467 forward 7 unknown #
face $-1 $468 $469 $66 $-1 $470 reversed single #
loop $-1 $-1 $471 $199 #
plane-surface $-1 0 -164.29212317270424 0 0 1 0 0 0 1 forward_v I I I I #
coedge $-1 $472 $473 $474 $475 forward $200 $-1 #
coedge $-1 $476 $202 $477 $478 forward $127 $-1 #
coedge $-1 $202 $476 $479 $480 forward $127 $-1 #
coedge $-1 $481 $482 $202 $309 reversed $483 $-1 #
edge $-1 $484 -164.29212317270424 $485 164.29212317270424 $308 $486 forward 7 unknown #
loop $-1 $487 $488 $203 #
cone-surface $-1 0 0 0 0 0 1 0.5 0 0 1 I I -0.70710678118654746 0.70710678118654746 0.5 forward I I I I #
coedge $-1 $312 $312 $207 $314 forward $204 $-1 #
coedge $-1 $313 $313 $488 $489 forward $206 $-1 #
edge $-1 $490 0 $490 6.2831853071796004 $312 $491 forward 7 unknown #
loop $-1 $492 $493 $208 #
cone-surface $-1 0 0 0 0 0 1 0.5 0 0 1 I I -0.70710678118654746 0.70710678118654746 0.5 forward I I I I #
coedge $-1 $317 $317 $212 $319 forward $209 $-1 #
coedge $-1 $318 $318 $493 $494 forward $211 $-1 #
edge $-1 $495 0 $495 6.2831853071796004 $317 $496 forward 7 unknown #
face $-1 $497 $498 $69 $-1 $499 reversed single #
loop $-1 $-1 $500 $213 #
plane-surface $-1 0 -164.29212317270424 0 0 1 0 0 0 1 forward_v I I I I #
coedge $-1 $501 $502 $503 $504 forward $214 $-1 #
coedge $-1 $505 $216 $506 $507 forward $136 $-1 #
coedge $-1 $216 $505 $508 $509 forward $136 $-1 #
coedge $-1 $510 $511 $216 $327 reversed $512 $-1 #
edge $-1 $513 -164.29212317270424 $514 164.29212317270424 $326 $515 forward 7 unknown #
loop $-1 $516 $517 $217 #
cone-surface $-1 0 0 0 0 0 1 0.5 0 0 1 I I -0.70710678118654746 0.70710678118654746 0.5 forward I I I I #
coedge $-1 $330 $330 $221 $332 forward $218 $-1 #
coedge $-1 $331 $331 $517 $518 forward $220 $-1 #
edge $-1 $519 0 $519 6.2831853071796004 $330 $520 forward 7 unknown #
loop $-1 $521 $522 $222 #
cone-surface $-1 0 0 0 0 0 1 0.5 0 0 1 I I -0.70710678118654746 0.70710678118654746 0.5 forward I I I I #
coedge $-1 $335 $335 $226 $337 forward $223 $-1 #
coedge $-1 $336 $336 $522 $523 forward $225 $-1 #
edge $-1 $524 0 $524 6.2831853071796004 $335 $525 forward 7 unknown #
face $-1 $526 $527 $54 $-1 $528 reversed single #
loop $-1 $-1 $529 $227 #
plane-surface $-1 -41.073030793176059 0 0 1 0 0 0 0 -1 forward_v I I I I #
coedge $-1 $530 $349 $531 $532 forward $228 $-1 #
coedge $-1 $533 $230 $530 $534 forward $145 $-1 #
coedge $-1 $230 $533 $535 $536 forward $145 $-1 #
coedge $-1 $352 $351 $230 $345 reversed $353 $-1 #
edge $-1 $537 -21.223050598633456 $538 21.223050598633456 $344 $539 forward 7 unknown #
coedge $-1 $232 $231 $540 $541 forward $91 $-1 #
coedge $-1 $542 $543 $231 $348 reversed $527 $-1 #
edge $-1 $355 -41.073030793176059 $544 41.073030793176059 $347 $545 forward 7 unknown #
coedge $-1 $341 $546 $232 $350 reversed $228 $-1 #
edge $-1 $547 -41.073030793176059 $354 41.073030793176059 $349 $548 forward 7 unknown #
coedge $-1 $344 $233 $546 $549 forward $353 $-1 #
coedge $-1 $233 $344 $542 $550 reversed $353 $-1 #
loop $-1 $-1 $351 $526 #
vertex $-1 $234 $551 #
vertex $-1 $234 $552 #
straight-curve $-1 41.073030793176059 0 10.261769529082589 0 1 0 I I #
face $-1 $553 $554 $55 $-1 $555 reversed single #
loop $-1 $-1 $556 $235 #
plane-surface $-1 -5.1499038161328707 0 0 1 0 0 0 0 -1 forward_v I I I I #
coedge $-1 $557 $368 $558 $559 forward $236 $-1 #
coedge $-1 $560 $238 $557 $561 forward $149 $-1 #
coedge $-1 $238 $560 $562 $563 forward $149 $-1 #
coedge $-1 $371 $370 $238 $364 reversed $372 $-1 #
edge $-1 $564 -21.223050598633456 $565 21.223050598633456 $363 $566 forward 7 unknown #
coedge $-1 $240 $239 $567 $568 forward $94 $-1 #
coedge $-1 $569 $570 $239 $367 reversed $554 $-1 #
edge $-1 $374 -5.1499038161328707 $571 5.1499038161328707 $366 $572 forward 7 unknown #
coedge $-1 $360 $573 $240 $369 reversed $236 $-1 #
edge $-1 $574 -5.1499038161328707 $373 5.1499038161328707 $368 $575 forward 7 unknown #
coedge $-1 $363 $241 $573 $576 forward $372 $-1 #
coedge $-1 $241 $363 $569 $577 reversed $372 $-1 #
loop $-1 $-1 $370 $553 #
vertex $-1 $242 $578 #
vertex $-1 $242 $579 #
straight-curve $-1 5.1499038161328707 0 1.5 0 1 0 I I #
face $-1 $580 $581 $56 $-1 $582 reversed single #
loop $-1 $-1 $583 $243 #
plane-surface $-1 -9.2710325413179646 0 0 1 0 0 0 0 -1 forward_v I I I I #
coedge $-1 $584 $387 $585 $586 forward $244 $-1 #
coedge $-1 $587 $246 $584 $588 forward $153 $-1 #
coedge $-1 $246 $587 $589 $590 forward $153 $-1 #
coedge $-1 $390 $389 $246 $383 reversed $391 $-1 #
edge $-1 $591 -164.29212317270424 $592 164.29212317270424 $382 $593 forward 7 unknown #
coedge $-1 $248 $247 $594 $595 forward $97 $-1 #
coedge $-1 $596 $597 $247 $386 reversed $581 $-1 #
edge $-1 $393 -9.2710325413179646 $598 9.2710325413179646 $385 $599 forward 7 unknown #
coedge $-1 $379 $600 $248 $388 reversed $244 $-1 #
edge $-1 $601 -9.2710325413179646 $392 9.2710325413179646 $387 $602 forward 7 unknown #
coedge $-1 $382 $249 $600 $603 forward $391 $-1 #
coedge $-1 $249 $382 $596 $604 reversed $391 $-1 #
loop $-1 $-1 $389 $580 #
vertex $-1 $250 $605 #
vertex $-1 $250 $606 #
straight-curve $-1 9.2710325413179646 0 82.146061586352118 0 1 0 I I #
loop $-1 $-1 $607 $156 #
coedge $-1 $396 $396 $254 $397 reversed $251 $-1 #
edge $-1 $608 0 $608 6.2831853071796004 $396 $609 forward 7 unknown #
vertex $-1 $255 $610 #
ellipse-curve $-1 0 0 -2.936048463393047 0 0 -1 1 0 0 1 I I #
loop $-1 $-1 $611 $161 #
coedge $-1 $401 $401 $259 $402 reversed $256 $-1 #
edge $-1 $612 0 $612 6.2831853071796004 $401 $613 forward 7 unknown #
vertex $-1 $260 $614 #
ellipse-curve $-1 0 0 -2.936048463393047 0 0 -1 1 0 0 1 I I #
loop $-1 $-1 $615 $166 #
coedge $-1 $406 $406 $264 $407 reversed $261 $-1 #
edge $-1 $616 0 $616 6.2831853071796004 $406 $617 forward 7 unknown #
vertex $-1 $265 $618 #
ellipse-curve $-1 0 0 -2.936048463393047 0 0 -1 1 0 0 1 I I #
face $-1 $619 $620 $60 $-1 $621 reversed single #
loop $-1 $-1 $622 $266 #
plane-surface $-1 -4.685316619880215 0 0 1 0 0 0 0 -1 forward_v I I I I #
coedge $-1 $623 $421 $624 $625 forward $267 $-1 #
coedge $-1 $626 $269 $623 $627 forward $172 $-1 #
coedge $-1 $269 $626 $628 $629 forward $172 $-1 #
coedge $-1 $424 $423 $269 $417 reversed $425 $-1 #
edge $-1 $630 -164.29212317270424 $631 164.29212317270424 $416 $632 forward 7 unknown #
coedge $-1 $271 $270 $633 $634 forward $109 $-1 #
coedge $-1 $635 $636 $270 $420 reversed $620 $-1 #
edge $-1 $427 -4.685316619880215 $637 4.685316619880215 $419 $638 forward 7 unknown #
coedge $-1 $413 $639 $271 $422 reversed $267 $-1 #
edge $-1 $640 -4.685316619880215 $426 4.685316619880215 $421 $641 forward 7 unknown #
coedge $-1 $416 $272 $639 $642 forward $425 $-1 #
coedge $-1 $272 $416 $635 $643 reversed $425 $-1 #
loop $-1 $-1 $423 $619 #
vertex $-1 $273 $644 #
vertex $-1 $273 $645 #
straight-curve $-1 4.685316619880215 0 82.146061586352118 0 1 0 I I #
loop $-1 $-1 $646 $175 #
coedge $-1 $430 $430 $277 $431 reversed $274 $-1 #
edge $-1 $647 0 $647 6.2831853071796004 $430 $648 forward 7 unknown #
vertex $-1 $278 $649 #
ellipse-curve $-1 0 0 -4.2444685201574757 0 0 -1 1 0 0 1 I I #
loop $-1 $-1 $650 $180 #
coedge $-1 $435 $435 $282 $436 reversed $279 $-1 #
edge $-1 $651 0 $651 6.2831853071796004 $435 $652 forward 7 unknown #
vertex $-1 $283 $653 #
ellipse-curve $-1 0 0 -4.2444685201574757 0 0 -1 1 0 0 1 I I #
face $-1 $654 $655 $63 $-1 $656 reversed single #
loop $-1 $-1 $657 $284 #
plane-surface $-1 -4.685316619880215 0 0 1 0 0 0 0 -1 forward_v I I I I #
coedge $-1 $658 $450 $659 $660 forward $285 $-1 #
coedge $-1 $661 $287 $658 $662 forward $186 $-1 #
coedge $-1 $287 $661 $663 $664 forward $186 $-1 #
coedge $-1 $453 $452 $287 $446 reversed $454 $-1 #
edge $-1 $665 -164.29212317270424 $666 164.29212317270424 $445 $667 forward 7 unknown #
coedge $-1 $289 $288 $668 $669 forward $118 $-1 #
coedge $-1 $670 $671 $288 $449 reversed $655 $-1 #
edge $-1 $456 -4.685316619880215 $672 4.685316619880215 $448 $673 forward 7 unknown #
coedge $-1 $442 $674 $289 $451 reversed $285 $-1 #
edge $-1 $675 -4.685316619880215 $455 4.685316619880215 $450 $676 forward 7 unknown #
coedge $-1 $445 $290 $674 $677 forward $454 $-1 #
coedge $-1 $290 $445 $670 $678 reversed $454 $-1 #
loop $-1 $-1 $452 $654 #
vertex $-1 $291 $679 #
vertex $-1 $291 $680 #
straight-curve $-1 4.685316619880215 0 82.146061586352118 0 1 0 I I #
loop $-1 $-1 $681 $189 #
coedge $-1 $459 $459 $295 $460 reversed $292 $-1 #
edge $-1 $682 0 $682 6.2831853071796004 $459 $683 forward 7 unknown #
vertex $-1 $296 $684 #
ellipse-curve $-1 0 0 -4.2444685201574757 0 0 -1 1 0 0 1 I I #
loop $-1 $-1 $685 $194 #
coedge $-1 $464 $464 $300 $465 reversed $297 $-1 #
edge $-1 $686 0 $686 6.2831853071796004 $464 $687 forward 7 unknown #
vertex $-1 $301 $688 #
ellipse-curve $-1 0 0 -4.2444685201574757 0 0 -1 1 0 0 1 I I #
face $-1 $689 $690 $66 $-1 $691 reversed single #
loop $-1 $-1 $692 $302 #
plane-surface $-1 -4.685316619880215 0 0 1 0 0 0 0 -1 forward_v I I I I #
coedge $-1 $693 $479 $694 $695 forward $303 $-1 #
coedge $-1 $696 $305 $693 $697 forward $200 $-1 #
coedge $-1 $305 $696 $698 $699 forward $200 $-1 #
coedge $-1 $482 $481 $305 $475 reversed $483 $-1 #
edge $-1 $700 -164.29212317270424 $701 164.29212317270424 $474 $702 forward 7 unknown #
coedge $-1 $307 $306 $703 $704 forward $127 $-1 #
coedge $-1 $705 $706 $306 $478 reversed $690 $-1 #
edge $-1 $485 -4.685316619880215 $707 4.685316619880215 $477 $708 forward 7 unknown #
coedge $-1 $471 $709 $307 $480 reversed $303 $-1 #
edge $-1 $710 -4.685316619880215 $484 4.685316619880215 $479 $711 forward 7 unknown #
coedge $-1 $474 $308 $709 $712 forward $483 $-1 #
coedge $-1 $308 $474 $705 $713 reversed $483 $-1 #
loop $-1 $-1 $481 $689 #
vertex $-1 $309 $714 #
vertex $-1 $309 $715 #
straight-curve $-1 4.685316619880215 0 82.146061586352118 0 1 0 I I #
loop $-1 $-1 $716 $203 #
coedge $-1 $488 $488 $313 $489 reversed $310 $-1 #
edge $-1 $717 0 $717 6.2831853071796004 $488 $718 forward 7 unknown #
vertex $-1 $314 $719 #
ellipse-curve $-1 0 0 -4.2444685201574757 0 0 -1 1 0 0 1 I I #
loop $-1 $-1 $720 $208 #
coedge $-1 $493 $493 $318 $494 reversed $315 $-1 #
edge $-1 $721 0 $721 6.2831853071796004 $493 $722 forward 7 unknown #
vertex $-1 $319 $723 #
ellipse-curve $-1 0 0 -4.2444685201574757 0 0 -1 1 0 0 1 I I #
face $-1 $724 $725 $69 $-1 $726 reversed single #
loop $-1 $-1 $727 $320 #
plane-surface $-1 -4.685316619880215 0 0 1 0 0 0 0 -1 forward_v I I I I #
coedge $-1 $728 $508 $729 $730 forward $321 $-1 #
coedge $-1 $731 $323 $728 $732 forward $214 $-1 #
coedge $-1 $323 $731 $733 $734 forward $214 $-1 #
coedge $-1 $511 $510 $323 $504 reversed $512 $-1 #
edge $-1 $735 -164.29212317270424 $736 164.29212317270424 $503 $737 forward 7 unknown #
coedge $-1 $325 $324 $738 $739 forward $136 $-1 #
coedge $-1 $740 $741 $324 $507 reversed $725 $-1 #
edge $-1 $514 -4.685316619880215 $742 4.685316619880215 $506 $743 forward 7 unknown #
coedge $-1 $500 $744 $325 $509 reversed $321 $-1 #
edge $-1 $745 -4.685316619880215 $513 4.685316619880215 $508 $746 forward 7 unknown #
coedge $-1 $503 $326 $744 $747 forward $512 $-1 #
coedge $-1 $326 $503 $740 $748 reversed $512 $-1 #
loop $-1 $-1 $510 $724 #
vertex $-1 $327 $749 #
vertex $-1 $327 $750 #
straight-curve $-1 4.685316619880215 0 82.146061586352118 0 1 0 I I #
loop $-1 $-1 $751 $217 #
coedge $-1 $517 $517 $331 $518 reversed $328 $-1 #
edge $-1 $752 0 $752 6.2831853071796004 $517 $753 forward 7 unknown #
vertex $-1 $332 $754 #
ellipse-curve $-1 0 0 -4.2444685201574757 0 0 -1 1 0 0 1 I I #
loop $-1 $-1 $755 $222 #
coedge $-1 $522 $522 $336 $523 reversed $333 $-1 #
edge $-1 $756 0 $756 6.2831853071796004 $522 $757 forward 7 unknown #
vertex $-1 $337 $758 #
ellipse-curve $-1 0 0 -4.2444685201574757 0 0 -1 1 0 0 1 I I #
face $-1 $-1 $353 $54 $-1 $759 reversed single #
loop $-1 $-1 $542 $338 #
plane-surface $-1 0 21.223050598633456 0 0 -1 0 0 0 -1 forward_v I I I I #
coedge $-1 $760 $540 $543 $761 forward $339 $-1 #
coedge $-1 $546 $341 $342 $534 reversed $228 $-1 #
coedge $-1 $540 $760 $341 $532 reversed $339 $-1 #
edge $-1 $547 -10.261769529082589 $762 10.261769529082589 $531 $763 forward 7 unknown #
coedge $-1 $343 $342 $760 $764 forward $145 $-1 #
edge $-1 $538 -41.073030793176059 $762 41.073030793176059 $530 $765 forward 7 unknown #
coedge $-1 $543 $542 $343 $536 reversed $527 $-1 #
edge $-1 $766 -41.073030793176059 $537 41.073030793176059 $535 $767 forward 7 unknown #
vertex $-1 $345 $768 #
vertex $-1 $549 $769 #
straight-curve $-1 41.073030793176059 0 -10.261769529082589 0 -1 0 I I #
coedge $-1 $529 $531 $346 $541 reversed $339 $-1 #
edge $-1 $544 -21.223050598633456 $547 21.223050598633456 $540 $770 forward 7 unknown #
coedge $-1 $535 $347 $352 $550 forward $527 $-1 #
coedge $-1 $347 $535 $529 $761 reversed $527 $-1 #
vertex $-1 $348 $771 #
straight-curve $-1 0 21.223050598633456 10.261769529082589 -1 0 0 I I #
coedge $-1 $349 $530 $351 $549 reversed $228 $-1 #
vertex $-1 $541 $772 #
straight-curve $-1 0 -21.223050598633456 10.261769529082589 1 0 0 I I #
edge $-1 $354 -10.261769529082589 $538 10.261769529082589 $351 $773 forward 7 unknown #
edge $-1 $355 -10.261769529082589 $537 10.261769529082589 $352 $774 forward 7 unknown #
point $-1 41.073030793176059 -21.223050598633456 10.261769529082589 #
point $-1 41.073030793176059 21.223050598633456 10.261769529082589 #
face $-1 $-1 $372 $55 $-1 $775 reversed single #
loop $-1 $-1 $569 $357 #
plane-surface $-1 0 21.223050598633456 0 0 -1 0 0 0 -1 forward_v I I I I #
coedge $-1 $776 $567 $570 $777 forward $358 $-1 #
coedge $-1 $573 $360 $361 $561 reversed $236 $-1 #
coedge $-1 $567 $776 $360 $559 reversed $358 $-1 #
edge $-1 $574 -1.5 $778 1.5 $558 $779 forward 7 unknown #
coedge $-1 $362 $361 $776 $780 forward $149 $-1 #
edge $-1 $565 -5.1499038161328707 $778 5.1499038161328707 $557 $781 forward 7 unknown #
coedge $-1 $570 $569 $362 $563 reversed $554 $-1 #
edge $-1 $782 -5.1499038161328707 $564 5.1499038161328707 $562 $783 forward 7 unknown #
vertex $-1 $364 $784 #
vertex $-1 $576 $785 #
straight-curve $-1 5.1499038161328707 0 -1.5 0 -1 0 I I #
coedge $-1 $556 $558 $365 $568 reversed $358 $-1 #
edge $-1 $571 -21.223050598633456 $574 21.223050598633456 $567 $786 forward 7 unknown #
coedge $-1 $562 $366 $371 $577 forward $554 $-1 #
coedge $-1 $366 $562 $556 $777 reversed $554 $-1 #
vertex $-1 $367 $787 #
straight-curve $-1 0 21.223050598633456 1.5 -1 0 0 I I #
coedge $-1 $368 $557 $370 $576 reversed $236 $-1 #
vertex $-1 $568 $788 #
straight-curve $-1 0 -21.223050598633456 1.5 1 0 0 I I #
edge $-1 $373 -1.5 $565 1.5 $370 $789 forward 7 unknown #
edge $-1 $374 -1.5 $564 1.5 $371 $790 forward 7 unknown #
point $-1 5.1499038161328707 -21.223050598633456 1.5 #
point $-1 5.1499038161328707 21.223050598633456 1.5 #
face $-1 $-1 $391 $56 $-1 $791 reversed single #
loop $-1 $-1 $596 $376 #
plane-surface $-1 0 164.29212317270424 0 0 -1 0 0 0 -1 forward_v I I I I #
coedge $-1 $792 $594 $597 $793 forward $377 $-1 #
coedge $-1 $600 $379 $380 $588 reversed $244 $-1 #
coedge $-1 $594 $792 $379 $586 reversed $377 $-1 #
edge $-1 $601 -82.146061586352118 $794 82.146061586352118 $585 $795 forward 7 unknown #
coedge $-1 $381 $380 $792 $796 forward $153 $-1 #
edge $-1 $592 -9.2710325413179646 $794 9.2710325413179646 $584 $797 forward 7 unknown #
coedge $-1 $597 $596 $381 $590 reversed $581 $-1 #
edge $-1 $798 -9.2710325413179646 $591 9.2710325413179646 $589 $799 forward 7 unknown #
vertex $-1 $383 $800 #
vertex $-1 $603 $801 #
straight-curve $-1 9.2710325413179646 0 -82.146061586352118 0 -1 0 I I #
coedge $-1 $583 $585 $384 $595 reversed $377 $-1 #
edge $-1 $598 -164.29212317270424 $601 164.29212317270424 $594 $802 forward 7 unknown #
coedge $-1 $589 $385 $390 $604 forward $581 $-1 #
coedge $-1 $385 $589 $583 $793 reversed $581 $-1 #
vertex $-1 $386 $803 #
straight-curve $-1 0 164.29212317270424 82.146061586352118 -1 0 0 I I #
coedge $-1 $387 $584 $389 $603 reversed $244 $-1 #
vertex $-1 $595 $804 #
straight-curve $-1 0 -164.29212317270424 82.146061586352118 1 0 0 I I #
edge $-1 $392 -82.146061586352118 $592 82.146061586352118 $389 $805 forward 7 unknown #
edge $-1 $393 -82.146061586352118 $591 82.146061586352118 $390 $806 forward 7 unknown #
point $-1 9.2710325413179646 -164.29212317270424 82.146061586352118 #
point $-1 9.2710325413179646 164.29212317270424 82.146061586352118 #
coedge $-1 $607 $607 $-1 $807 reversed $395 $-1 #
vertex $-1 $397 $808 #
ellipse-curve $-1 0 0 -0.5 0 0 -1 1 0 0 1 I I #
point $-1 1 0 -2.936048463393047 #
coedge $-1 $611 $611 $-1 $809 reversed $400 $-1 #
vertex $-1 $402 $810 #
ellipse-curve $-1 0 0 -0.5 0 0 -1 1 0 0 1 I I #
point $-1 1 0 -2.936048463393047 #
coedge $-1 $615 $615 $-1 $811 reversed $405 $-1 #
vertex $-1 $407 $812 #
ellipse-curve $-1 0 0 -0.5 0 0 -1 1 0 0 1 I I #
point $-1 1 0 -2.936048463393047 #
face $-1 $-1 $425 $60 $-1 $813 reversed single #
loop $-1 $-1 $635 $410 #
plane-surface $-1 0 164.29212317270424 0 0 -1 0 0 0 -1 forward_v I I I I #
coedge $-1 $814 $633 $636 $815 forward $411 $-1 #
coedge $-1 $639 $413 $414 $627 reversed $267 $-1 #
coedge $-1 $633 $814 $413 $625 reversed $411 $-1 #
edge $-1 $640 -82.146061586352118 $816 82.146061586352118 $624 $817 forward 7 unknown #
coedge $-1 $415 $414 $814 $818 forward $172 $-1 #
edge $-1 $631 -4.685316619880215 $816 4.685316619880215 $623 $819 forward 7 unknown #
coedge $-1 $636 $635 $415 $629 reversed $620 $-1 #
edge $-1 $820 -4.685316619880215 $630 4.685316619880215 $628 $821 forward 7 unknown #
vertex $-1 $417 $822 #
vertex $-1 $642 $823 #
straight-curve $-1 4.685316619880215 0 -82.146061586352118 0 -1 0 I I #
coedge $-1 $622 $624 $418 $634 reversed $411 $-1 #
edge $-1 $637 -164.29212317270424 $640 164.29212317270424 $633 $824 forward 7 unknown #
coedge $-1 $628 $419 $424 $643 forward $620 $-1 #
coedge $-1 $419 $628 $622 $815 reversed $620 $-1 #
vertex $-1 $420 $825 #
straight-curve $-1 0 164.29212317270424 82.146061586352118 -1 0 0 I I #
coedge $-1 $421 $623 $423 $642 reversed $267 $-1 #
vertex $-1 $634 $826 #
straight-curve $-1 0 -164.29212317270424 82.146061586352118 1 0 0 I I #
edge $-1 $426 -82.146061586352118 $631 82.146061586352118 $423 $827 forward 7 unknown #
edge $-1 $427 -82.146061586352118 $630 82.146061586352118 $424 $828 forward 7 unknown #
point $-1 4.685316619880215 -164.29212317270424 82.146061586352118 #
point $-1 4.685316619880215 164.29212317270424 82.146061586352118 #
coedge $-1 $646 $646 $-1 $829 reversed $429 $-1 #
vertex $-1 $431 $830 #
ellipse-curve $-1 0 0 -0.5 0 0 -1 1 0 0 1 I I #
point $-1 1 0 -4.2444685201574757 #
coedge $-1 $650 $650 $-1 $831 reversed $434 $-1 #
vertex $-1 $436 $832 #
ellipse-curve $-1 0 0 -0.5 0 0 -1 1 0 0 1 I I #
point $-1 1 0 -4.2444685201574757 #
face $-1 $-1 $454 $63 $-1 $833 reversed single #
loop $-1 $-1 $670 $439 #
plane-surface $-1 0 164.29212317270424 0 0 -1 0 0 0 -1 forward_v I I I I #
coedge $-1 $834 $668 $671 $835 forward $440 $-1 #
coedge $-1 $674 $442 $443 $662 reversed $285 $-1 #
coedge $-1 $668 $834 $442 $660 reversed $440 $-1 #
edge $-1 $675 -82.146061586352118 $836 82.146061586352118 $659 $837 forward 7 unknown #
coedge $-1 $444 $443 $834 $838 forward $186 $-1 #
edge $-1 $666 -4.685316619880215 $836 4.685316619880215 $658 $839 forward 7 unknown #
coedge $-1 $671 $670 $444 $664 reversed $655 $-1 #
edge $-1 $840 -4.685316619880215 $665 4.685316619880215 $663 $841 forward 7 unknown #
vertex $-1 $446 $842 #
vertex $-1 $677 $843 #
straight-curve $-1 4.685316619880215 0 -82.146061586352118 0 -1 0 I I #
coedge $-1 $657 $659 $447 $669 reversed $440 $-1 #
edge $-1 $672 -164.29212317270424 $675 164.29212317270424 $668 $844 forward 7 unknown #
coedge $-1 $663 $448 $453 $678 forward $655 $-1 #
coedge $-1 $448 $663 $657 $835 reversed $655 $-1 #
vertex $-1 $449 $845 #
straight-curve $-1 0 164.29212317270424 82.146061586352118 -1 0 0 I I #
coedge $-1 $450 $658 $452 $677 reversed $285 $-1 #
vertex $-1 $669 $846 #
straight-curve $-1 0 -164.29212317270424 82.146061586352118 1 0 0 I I #
edge $-1 $455 -82.146061586352118 $666 82.146061586352118 $452 $847 forward 7 unknown #
edge $-1 $456 -82.146061586352118 $665 82.146061586352118 $453 $848 forward 7 unknown #
point $-1 4.685316619880215 -164.29212317270424 82.146061586352118 #
point $-1 4.685316619880215 164.29212317270424 82.146061586352118 #
coedge $-1 $681 $681 $-1 $849 reversed $458 $-1 #
vertex $-1 $460 $850 #
ellipse-curve $-1 0 0 -0.5 0 0 -1 1 0 0 1 I I #
point $-1 1 0 -4.2444685201574757 #
coedge $-1 $685 $685 $-1 $851 reversed $463 $-1 #
vertex $-1 $465 $852 #
ellipse-curve $-1 0 0 -0.5 0 0 -1 1 0 0 1 I I #
point $-1 1 0 -4.2444685201574757 #
face $-1 $-1 $483 $66 $-1 $853 reversed single #
loop $-1 $-1 $705 $468 #
plane-surface $-1 0 164.29212317270424 0 0 -1 0 0 0 -1 forward_v I I I I #
coedge $-1 $854 $703 $706 $855 forward $469 $-1 #
coedge $-1 $709 $471 $472 $697 reversed $303 $-1 #
coedge $-1 $703 $854 $471 $695 reversed $469 $-1 #
edge $-1 $710 -82.146061586352118 $856 82.146061586352118 $694 $857 forward 7 unknown #
coedge $-1 $473 $472 $854 $858 forward $200 $-1 #
edge $-1 $701 -4.685316619880215 $856 4.685316619880215 $693 $859 forward 7 unknown #
coedge $-1 $706 $705 $473 $699 reversed $690 $-1 #
edge $-1 $860 -4.685316619880215 $700 4.685316619880215 $698 $861 forward 7 unknown #
vertex $-1 $475 $862 #
vertex $-1 $712 $863 #
straight-curve $-1 4.685316619880215 0 -82.146061586352118 0 -1 0 I I #
coedge $-1 $692 $694 $476 $704 reversed $469 $-1 #
edge $-1 $707 -164.29212317270424 $710 164.29212317270424 $703 $864 forward 7 unknown #
coedge $-1 $698 $477 $482 $713 forward $690 $-1 #
coedge $-1 $477 $698 $692 $855 reversed $690 $-1 #
vertex $-1 $478 $865 #
straight-curve $-1 0 164.29212317270424 82.146061586352118 -1 0 0 I I #
coedge $-1 $479 $693 $481 $712 reversed $303 $-1 #
vertex $-1 $704 $866 #
straight-curve $-1 0 -164.29212317270424 82.146061586352118 1 0 0 I I #
edge $-1 $484 -82.146061586352118 $701 82.146061586352118 $481 $867 forward 7 unknown #
edge $-1 $485 -82.146061586352118 $700 82.146061586352118 $482 $868 forward 7 unknown #
point $-1 4.685316619880215 -164.29212317270424 82.146061586352118 #
point $-1 4.685316619880215 164.29212317270424 82.146061586352118 #
coedge $-1 $716 $716 $-1 $869 reversed $487 $-1 #
vertex $-1 $489 $870 #
ellipse-curve $-1 0 0 -0.5 0 0 -1 1 0 0 1 I I #
point $-1 1 0 -4.2444685201574757 #
coedge $-1 $720 $720 $-1 $871 reversed $492 $-1 #
vertex $-1 $494 $872 #
ellipse-curve $-1 0 0 -0.5 0 0 -1 1 0 0 1 I I #
point $-1 1 0 -4.2444685201574757 #
face $-1 $-1 $512 $69 $-1 $873 reversed single #
loop $-1 $-1 $740 $497 #
plane-surface $-1 0 164.29212317270424 0 0 -1 0 0 0 -1 forward_v I I I I #
coedge $-1 $874 $738 $741 $875 forward $498 $-1 #
coedge $-1 $744 $500 $501 $732 reversed $321 $-1 #
coedge $-1 $738 $874 $500 $730 reversed $498 $-1 #
edge $-1 $745 -82.146061586352118 $876 82.146061586352118 $729 $877 forward 7 unknown #
coedge $-1 $502 $501 $874 $878 forward $214 $-1 #
edge $-1 $736 -4.685316619880215 $876 4.685316619880215 $728 $879 forward 7 unknown #
coedge $-1 $741 $740 $502 $734 reversed $725 $-1 #
edge $-1 $880 -4.685316619880215 $735 4.685316619880215 $733 $881 forward 7 unknown #
vertex $-1 $504 $882 #
vertex $-1 $747 $883 #
straight-curve $-1 4.685316619880215 0 -82.146061586352118 0 -1 0 I I #
coedge $-1 $727 $729 $505 $739 reversed $498 $-1 #
edge $-1 $742 -164.29212317270424 $745 164.29212317270424 $738 $884 forward 7 unknown #
coedge $-1 $733 $506 $511 $748 forward $725 $-1 #
coedge $-1 $506 $733 $727 $875 reversed $725 $-1 #
vertex $-1 $507 $885 #
straight-curve $-1 0 164.29212317270424 82.146061586352118 -1 0 0 I I #
coedge $-1 $508 $728 $510 $747 reversed $321 $-1 #
vertex $-1 $739 $886 #
straight-curve $-1 0 -164.29212317270424 82.146061586352118 1 0 0 I I #
edge $-1 $513 -82.146061586352118 $736 82.146061586352118 $510 $887 forward 7 unknown #
edge $-1 $514 -82.146061586352118 $735 82.146061586352118 $511 $888 forward 7 unknown #
point $-1 4.685316619880215 -164.29212317270424 82.146061586352118 #
point $-1 4.685316619880215 164.29212317270424 82.146061586352118 #
coedge $-1 $751 $751 $-1 $889 reversed $516 $-1 #
vertex $-1 $518 $890 #
ellipse-curve $-1 0 0 -0.5 0 0 -1 1 0 0 1 I I #
point $-1 1 0 -4.2444685201574757 #
coedge $-1 $755 $755 $-1 $891 reversed $521 $-1 #
vertex $-1 $523 $892 #
ellipse-curve $-1 0 0 -0.5 0 0 -1 1 0 0 1 I I #
point $-1 1 0 -4.2444685201574757 #
plane-surface $-1 41.073030793176059 0 0 -1 0 0 0 0 1 forward_v I I I I #
coedge $-1 $531 $529 $533 $764 reversed $339 $-1 #
edge $-1 $544 -10.261769529082589 $766 10.261769529082589 $543 $893 forward 7 unknown #
vertex $-1 $764 $894 #
straight-curve $-1 -41.073030793176059 -21.223050598633456 0 0 0 -1 I I #
edge $-1 $762 -21.223050598633456 $766 21.223050598633456 $760 $895 forward 7 unknown #
straight-curve $-1 0 -21.223050598633456 -10.261769529082589 -1 0 0 I I #
vertex $-1 $536 $896 #
straight-curve $-1 0 21.223050598633456 -10.261769529082589 1 0 0 I I #
point $-1 41.073030793176059 21.223050598633456 -10.261769529082589 #
point $-1 41.073030793176059 -21.223050598633456 -10.261769529082589 #
straight-curve $-1 -41.073030793176059 0 10.261769529082589 0 -1 0 I I #
point $-1 -41.073030793176059 21.223050598633456 10.261769529082589 #
point $-1 -41.073030793176059 -21.223050598633456 10.261769529082589 #
straight-curve $-1 41.073030793176059 -21.223050598633456 0 0 0 -1 I I #
straight-curve $-1 41.073030793176059 21.223050598633456 0 0 0 -1 I I #
plane-surface $-1 5.1499038161328707 0 0 -1 0 0 0 0 1 forward_v I I I I #
coedge $-1 $558 $556 $560 $780 reversed $358 $-1 #
edge $-1 $571 -1.5 $782 1.5 $570 $897 forward 7 unknown #
vertex $-1 $780 $898 #
straight-curve $-1 -5.1499038161328707 -21.223050598633456 0 0 0 -1 I I #
edge $-1 $778 -21.223050598633456 $782 21.223050598633456 $776 $899 forward 7 unknown #
straight-curve $-1 0 -21.223050598633456 -1.5 -1 0 0 I I #
vertex $-1 $563 $900 #
straight-curve $-1 0 21.223050598633456 -1.5 1 0 0 I I #
point $-1 5.1499038161328707 21.223050598633456 -1.5 #
point $-1 5.1499038161328707 -21.223050598633456 -1.5 #
straight-curve $-1 -5.1499038161328707 0 1.5 0 -1 0 I I #
point $-1 -5.1499038161328707 21.223050598633456 1.5 #
point $-1 -5.1499038161328707 -21.223050598633456 1.5 #
straight-curve $-1 5.1499038161328707 -21.223050598633456 0 0 0 -1 I I #
straight-curve $-1 5.1499038161328707 21.223050598633456 0 0 0 -1 I I #
plane-surface $-1 9.2710325413179646 0 0 -1 0 0 0 0 1 forward_v I I I I #
coedge $-1 $585 $583 $587 $796 reversed $377 $-1 #
edge $-1 $598 -82.146061586352118 $798 82.146061586352118 $597 $901 forward 7 unknown #
vertex $-1 $796 $902 #
straight-curve $-1 -9.2710325413179646 -164.29212317270424 0 0 0 -1 I I #
edge $-1 $794 -164.29212317270424 $798 164.29212317270424 $792 $903 forward 7 unknown #
straight-curve $-1 0 -164.29212317270424 -82.146061586352118 -1 0 0 I I #
vertex $-1 $590 $904 #
straight-curve $-1 0 164.29212317270424 -82.146061586352118 1 0 0 I I #
point $-1 9.2710325413179646 164.29212317270424 -82.146061586352118 #
point $-1 9.2710325413179646 -164.29212317270424 -82.146061586352118 #
straight-curve $-1 -9.2710325413179646 0 82.146061586352118 0 -1 0 I I #
point $-1 -9.2710325413179646 164.29212317270424 82.146061586352118 #
point $-1 -9.2710325413179646 -164.29212317270424 82.146061586352118 #
straight-curve $-1 9.2710325413179646 -164.29212317270424 0 0 0 -1 I I #
straight-curve $-1 9.2710325413179646 164.29212317270424 0 0 0 -1 I I #
edge $-1 $905 1 $905 0 $607 $-1 forward 7 unknown #
point $-1 1 0 -0.5 #
edge $-1 $906 1 $906 0 $611 $-1 forward 7 unknown #
point $-1 1 0 -0.5 #
edge $-1 $907 1 $907 0 $615 $-1 forward 7 unknown #
point $-1 1 0 -0.5 #
plane-surface $-1 4.685316619880215 0 0 -1 0 0 0 0 1 forward_v I I I I #
coedge $-1 $624 $622 $626 $818 reversed $411 $-1 #
edge $-1 $637 -82.146061586352118 $820 82.146061586352118 $636 $908 forward 7 unknown #
vertex $-1 $818 $909 #
straight-curve $-1 -4.685316619880215 -164.29212317270424 0 0 0 -1 I I #
edge $-1 $816 -164.29212317270424 $820 164.29212317270424 $814 $910 forward 7 unknown #
straight-curve $-1 0 -164.29212317270424 -82.146061586352118 -1 0 0 I I #
vertex $-1 $629 $911 #
straight-curve $-1 0 164.29212317270424 -82.146061586352118 1 0 0 I I #
point $-1 4.685316619880215 164.29212317270424 -82.146061586352118 #
point $-1 4.685316619880215 -164.29212317270424 -82.146061586352118 #
straight-curve $-1 -4.685316619880215 0 82.146061586352118 0 -1 0 I I #
point $-1 -4.685316619880215 164.29212317270424 82.146061586352118 #
point $-1 -4.685316619880215 -164.29212317270424 82.146061586352118 #
straight-curve $-1 4.685316619880215 -164.29212317270424 0 0 0 -1 I I #
straight-curve $-1 4.685316619880215 164.29212317270424 0 0 0 -1 I I #
edge $-1 $912 1 $912 0 $646 $-1 forward 7 unknown #
point $-1 1 0 -0.5 #
edge $-1 $913 1 $913 0 $650 $-1 forward 7 unknown #
point $-1 1 0 -0.5 #
plane-surface $-1 4.685316619880215 0 0 -1 0 0 0 0 1 forward_v I I I I #
coedge $-1 $659 $657 $661 $838 reversed $440 $-1 #
edge $-1 $672 -82.146061586352118 $840 82.146061586352118 $671 $914 forward 7 unknown #
vertex $-1 $838 $915 #
straight-curve $-1 -4.685316619880215 -164.29212317270424 0 0 0 -1 I I #
edge $-1 $836 -164.29212317270424 $840 164.29212317270424 $834 $916 forward 7 unknown #
straight-curve $-1 0 -164.29212317270424 -82.146061586352118 -1 0 0 I I #
vertex $-1 $664 $917 #
straight-curve $-1 0 164.29212317270424 -82.146061586352118 1 0 0 I I #
point $-1 4.685316619880215 164.29212317270424 -82.146061586352118 #
point $-1 4.685316619880215 -164.29212317270424 -82.146061586352118 #
straight-curve $-1 -4.685316619880215 0 82.146061586352118 0 -1 0 I I #
point $-1 -4.685316619880215 164.29212317270424 82.146061586352118 #
point $-1 -4.685316619880215 -164.29212317270424 82.146061586352118 #
straight-curve $-1 4.685316619880215 -164.29212317270424 0 0 0 -1 I I #
straight-curve $-1 4.685316619880215 164.29212317270424 0 0 0 -1 I I #
edge $-1 $918 1 $918 0 $681 $-1 forward 7 unknown #
point $-1 1 0 -0.5 #
edge $-1 $919 1 $919 0 $685 $-1 forward 7 unknown #
point $-1 1 0 -0.5 #
plane-surface $-1 4.685316619880215 0 0 -1 0 0 0 0 1 forward_v I I I I #
coedge $-1 $694 $692 $696 $858 reversed $469 $-1 #
edge $-1 $707 -82.146061586352118 $860 82.146061586352118 $706 $920 forward 7 unknown #
vertex $-1 $858 $921 #
straight-curve $-1 -4.685316619880215 -164.29212317270424 0 0 0 -1 I I #
edge $-1 $856 -164.29212317270424 $860 164.29212317270424 $854 $922 forward 7 unknown #
straight-curve $-1 0 -164.29212317270424 -82.146061586352118 -1 0 0 I I #
vertex $-1 $699 $923 #
straight-curve $-1 0 164.29212317270424 -82.146061586352118 1 0 0 I I #
point $-1 4.685316619880215 164.29212317270424 -82.146061586352118 #
point $-1 4.685316619880215 -164.29212317270424 -82.146061586352118 #
straight-curve $-1 -4.685316619880215 0 82.146061586352118 0 -1 0 I I #
point $-1 -4.685316619880215 164.29212317270424 82.146061586352118 #
point $-1 -4.685316619880215 -164.29212317270424 82.146061586352118 #
straight-curve $-1 4.685316619880215 -164.29212317270424 0 0 0 -1 I I #
straight-curve $-1 4.685316619880215 164.29212317270424 0 0 0 -1 I I #
edge $-1 $924 1 $924 0 $716 $-1 forward 7 unknown #
point $-1 1 0 -0.5 #
edge $-1 $925 1 $925 0 $720 $-1 forward 7 unknown #
point $-1 1 0 -0.5 #
plane-surface $-1 4.685316619880215 0 0 -1 0 0 0 0 1 forward_v I I I I #
coedge $-1 $729 $727 $731 $878 reversed $498 $-1 #
edge $-1 $742 -82.146061586352118 $880 82.146061586352118 $741 $926 forward 7 unknown #
vertex $-1 $878 $927 #
straight-curve $-1 -4.685316619880215 -164.29212317270424 0 0 0 -1 I I #
edge $-1 $876 -164.29212317270424 $880 164.29212317270424 $874 $928 forward 7 unknown #
straight-curve $-1 0 -164.29212317270424 -82.146061586352118 -1 0 0 I I #
vertex $-1 $734 $929 #
straight-curve $-1 0 164.29212317270424 -82.146061586352118 1 0 0 I I #
point $-1 4.685316619880215 164.29212317270424 -82.146061586352118 #
point $-1 4.685316619880215 -164.29212317270424 -82.146061586352118 #
straight-curve $-1 -4.685316619880215 0 82.146061586352118 0 -1 0 I I #
point $-1 -4.685316619880215 164.29212317270424 82.146061586352118 #
point $-1 -4.685316619880215 -164.29212317270424 82.146061586352118 #
straight-curve $-1 4.685316619880215 -164.29212317270424 0 0 0 -1 I I #
straight-curve $-1 4.685316619880215 164.29212317270424 0 0 0 -1 I I #
edge $-1 $930 1 $930 0 $751 $-1 forward 7 unknown #
point $-1 1 0 -0.5 #
edge $-1 $931 1 $931 0 $755 $-1 forward 7 unknown #
point $-1 1 0 -0.5 #
straight-curve $-1 -41.073030793176059 21.223050598633456 0 0 0 -1 I I #
point $-1 -41.073030793176059 -21.223050598633456 -10.261769529082589 #
straight-curve $-1 -41.073030793176059 0 -10.261769529082589 0 1 0 I I #
point $-1 -41.073030793176059 21.223050598633456 -10.261769529082589 #
straight-curve $-1 -5.1499038161328707 21.223050598633456 0 0 0 -1 I I #
point $-1 -5.1499038161328707 -21.223050598633456 -1.5 #
straight-curve $-1 -5.1499038161328707 0 -1.5 0 1 0 I I #
point $-1 -5.1499038161328707 21.223050598633456 -1.5 #
straight-curve $-1 -9.2710325413179646 164.29212317270424 0 0 0 -1 I I #
point $-1 -9.2710325413179646 -164.29212317270424 -82.146061586352118 #
straight-curve $-1 -9.2710325413179646 0 -82.146061586352118 0 1 0 I I #
point $-1 -9.2710325413179646 164.29212317270424 -82.146061586352118 #
vertex $-1 $807 $932 #
vertex $-1 $809 $933 #
vertex $-1 $811 $934 #
straight-curve $-1 -4.685316619880215 164.29212317270424 0 0 0 -1 I I #
point $-1 -4.685316619880215 -164.29212317270424 -82.146061586352118 #
straight-curve $-1 -4.685316619880215 0 -82.146061586352118 0 1 0 I I #
point $-1 -4.685316619880215 164.29212317270424 -82.146061586352118 #
vertex $-1 $829 $935 #
vertex $-1 $831 $936 #
straight-curve $-1 -4.685316619880215 164.29212317270424 0 0 0 -1 I I #
point $-1 -4.685316619880215 -164.29212317270424 -82.146061586352118 #
straight-curve $-1 -4.685316619880215 0 -82.146061586352118 0 1 0 I I #
point $-1 -4.685316619880215 164.29212317270424 -82.146061586352118 #
vertex $-1 $849 $937 #
vertex $-1 $851 $938 #
straight-curve $-1 -4.685316619880215 164.29212317270424 0 0 0 -1 I I #
point $-1 -4.685316619880215 -164.29212317270424 -82.146061586352118 #
straight-curve $-1 -4.685316619880215 0 -82.146061586352118 0 1 0 I I #
point $-1 -4.685316619880215 164.29212317270424 -82.146061586352118 #
vertex $-1 $869 $939 #
vertex $-1 $871 $940 #
straight-curve $-1 -4.685316619880215 164.29212317270424 0 0 0 -1 I I #
point $-1 -4.685316619880215 -164.29212317270424 -82.146061586352118 #
straight-curve $-1 -4.685316619880215 0 -82.146061586352118 0 1 0 I I #
point $-1 -4.685316619880215 164.29212317270424 -82.146061586352118 #
vertex $-1 $889 $941 #
vertex $-1 $891 $942 #
point $-1 0 0 0.5 #
point $-1 0 0 0.5 #
point $-1 0 0 0.5 #
point $-1 0 0 0.5 #
point $-1 0 0 0.5 #
point $-1 0 0 0.5 #
point $-1 0 0 0.5 #
point $-1 0 0 0.5 #
point $-1 0 0 0.5 #
point $-1 0 0 0.5 #
point $-1 0 0 0.5 #
End-of-ACIS-data 