500 0 18 0           
7 Unknown 11 ACIS 5.0 NT 24 Fri Mar 26 18:30:38 1999 
-1 9.9999999999999995e-007 1e-010 
body $-1 $18 $-1 $19 #
body $-1 $20 $-1 $21 #
body $-1 $22 $-1 $23 #
body $-1 $24 $-1 $25 #
body $-1 $26 $-1 $27 #
body $-1 $28 $-1 $29 #
body $-1 $30 $-1 $31 #
body $-1 $32 $-1 $33 #
body $-1 $34 $-1 $35 #
body $-1 $36 $-1 $37 #
body $-1 $38 $-1 $39 #
body $-1 $40 $-1 $41 #
body $-1 $42 $-1 $43 #
body $-1 $44 $-1 $45 #
body $-1 $46 $-1 $47 #
body $-1 $48 $-1 $49 #
body $-1 $50 $-1 $51 #
body $-1 $52 $-1 $53 #
lump $-1 $-1 $54 $0 #
transform $-1 1 0 0 0 1 0 0 0 1 42.713705862605671 21.705163799142074 10.63716641241991 1 rotate no_reflect no_shear #
lump $-1 $-1 $55 $1 #
transform $-1 1 0 0 0 1 0 0 0 1 42.713705862605671 21.705163799142074 10.63716641241991 1 rotate no_reflect no_shear #
lump $-1 $-1 $56 $2 #
transform $-1 1 0 0 0 1 0 0 0 1 42.713705862605671 21.705163799142074 10.63716641241991 1 rotate no_reflect no_shear #
lump $-1 $-1 $57 $3 #
transform $-1 1 0 0 0 1 0 0 0 1 42.713705862605671 21.705163799142074 10.63716641241991 1 rotate no_reflect no_shear #
lump $-1 $-1 $58 $4 #
transform $-1 1 0 0 0 1 0 0 0 1 42.713705862605671 21.705163799142074 10.63716641241991 1 rotate no_reflect no_shear #
lump $-1 $-1 $59 $5 #
transform $-1 1 0 0 0 1 0 0 0 1 42.713705862605671 21.705163799142074 10.63716641241991 1 rotate no_reflect no_shear #
lump $-1 $-1 $60 $6 #
transform $-1 1 0 0 0 1 0 0 0 1 42.713705862605671 21.705163799142074 10.63716641241991 1 rotate no_reflect no_shear #
lump $-1 $-1 $61 $7 #
transform $-1 1 0 0 0 1 0 0 0 1 42.713705862605671 21.705163799142074 10.63716641241991 1 rotate no_reflect no_shear #
lump $-1 $-1 $62 $8 #
transform $-1 1 0 0 0 1 0 0 0 1 42.713705862605671 21.705163799142074 10.63716641241991 1 rotate no_reflect no_shear #
lump $-1 $-1 $63 $9 #
transform $-1 1 0 0 0 1 0 0 0 1 42.713705862605671 21.705163799142074 10.63716641241991 1 rotate no_reflect no_shear #
lump $-1 $-1 $64 $10 #
transform $-1 1 0 0 0 1 0 0 0 1 42.713705862605671 21.705163799142074 10.63716641241991 1 rotate no_reflect no_shear #
lump $-1 $-1 $65 $11 #
transform $-1 1 0 0 0 1 0 0 0 1 42.713705862605671 21.705163799142074 10.63716641241991 1 rotate no_reflect no_shear #
lump $-1 $-1 $66 $12 #
transform $-1 1 0 0 0 1 0 0 0 1 42.713705862605671 21.705163799142074 10.63716641241991 1 rotate no_reflect no_shear #
lump $-1 $-1 $67 $13 #
transform $-1 1 0 0 0 1 0 0 0 1 42.713705862605671 21.705163799142074 10.63716641241991 1 rotate no_reflect no_shear #
lump $-1 $-1 $68 $14 #
transform $-1 1 0 0 0 1 0 0 0 1 42.713705862605671 21.705163799142074 10.63716641241991 1 rotate no_reflect no_shear #
lump $-1 $-1 $69 $15 #
transform $-1 1 0 0 0 1 0 0 0 1 42.713705862605671 21.705163799142074 10.63716641241991 1 rotate no_reflect no_shear #
lump $-1 $-1 $70 $16 #
transform $-1 1 0 0 0 1 0 0 0 1 42.713705862605671 21.705163799142074 10.63716641241991 1 rotate no_reflect no_shear #
lump $-1 $-1 $71 $17 #
transform $-1 1 0 0 0 1 0 0 0 1 42.713705862605671 21.705163799142074 10.63716641241991 1 rotate no_reflect no_shear #
shell $-1 $-1 $-1 $72 $-1 $18 #
shell $-1 $-1 $-1 $73 $-1 $20 #
shell $-1 $-1 $-1 $74 $-1 $22 #
shell $-1 $-1 $-1 $75 $-1 $24 #
shell $-1 $-1 $-1 $76 $-1 $26 #
shell $-1 $-1 $-1 $77 $-1 $28 #
shell $-1 $-1 $-1 $78 $-1 $30 #
shell $-1 $-1 $-1 $79 $-1 $32 #
shell $-1 $-1 $-1 $80 $-1 $34 #
shell $-1 $-1 $-1 $81 $-1 $36 #
shell $-1 $-1 $-1 $82 $-1 $38 #
shell $-1 $-1 $-1 $83 $-1 $40 #
shell $-1 $-1 $-1 $84 $-1 $42 #
shell $-1 $-1 $-1 $85 $-1 $44 #
shell $-1 $-1 $-1 $86 $-1 $46 #
shell $-1 $-1 $-1 $87 $-1 $48 #
shell $-1 $-1 $-1 $88 $-1 $50 #
shell $-1 $-1 $-1 $89 $-1 $52 #
face $-1 $90 $91 $54 $-1 $92 forward single #
face $-1 $93 $94 $55 $-1 $95 forward single #
face $-1 $96 $97 $56 $-1 $98 reversed single #
face $-1 $99 $100 $57 $-1 $101 forward single #
face $-1 $102 $103 $58 $-1 $104 forward single #
face $-1 $105 $106 $59 $-1 $107 forward single #
face $-1 $108 $109 $60 $-1 $110 reversed single #
face $-1 $111 $112 $61 $-1 $113 forward single #
face $-1 $114 $115 $62 $-1 $116 forward single #
face $-1 $117 $118 $63 $-1 $119 forward single #
face $-1 $120 $121 $64 $-1 $122 reversed single #
face $-1 $123 $124 $65 $-1 $125 forward single #
face $-1 $126 $127 $66 $-1 $128 forward single #
face $-1 $129 $130 $67 $-1 $131 forward single #
face $-1 $132 $133 $68 $-1 $134 reversed single #
face $-1 $135 $136 $69 $-1 $137 forward single #
face $-1 $138 $139 $70 $-1 $140 forward single #
face $-1 $141 $142 $71 $-1 $143 forward single #
face $-1 $144 $145 $54 $-1 $146 reversed single #
loop $-1 $-1 $147 $72 #
plane-surface $-1 0 0 10.63716641241991 0 0 1 1 0 0 forward_v I I I I #
face $-1 $148 $149 $55 $-1 $150 reversed single #
loop $-1 $-1 $151 $73 #
plane-surface $-1 -42.713705862605671 0 0 1 0 0 0 0 -1 forward_v I I I I #
face $-1 $152 $153 $56 $-1 $154 reversed single #
loop $-1 $-1 $155 $74 #
plane-surface $-1 -2.3810220225232577 72.572777391533833 88.101007304053027 1 0 0 0 -0.85716730853699208 -0.51503806187062418 forward_v I I I I #
face $-1 $156 $157 $57 $-1 $158 forward single #
loop $-1 $159 $160 $75 #
cone-surface $-1 -0.64762706360767197 19.842202697145748 8.3215001225049416 0 -0.85716730853699208 -0.51503806187062418 0.5 0 0 1 I I 0 1 0.5 forward I I I I #
face $-1 $161 $162 $58 $-1 $163 forward single #
loop $-1 $164 $165 $76 #
cone-surface $-1 1.9524653747657084 19.842202697145748 8.3215001225049416 0 -0.85716730853699208 -0.51503806187062418 0.5 0 0 1 I I 0 1 0.5 forward I I I I #
face $-1 $166 $167 $59 $-1 $168 forward single #
loop $-1 $169 $170 $77 #
cone-surface $-1 4.5525578131390887 19.842202697145748 8.3215001225049416 0 -0.85716730853699208 -0.51503806187062418 0.5 0 0 1 I I 0 1 0.5 forward I I I I #
face $-1 $171 $172 $60 $-1 $173 reversed single #
loop $-1 $-1 $174 $78 #
plane-surface $-1 1.9524653747657155 -0.65280719224705308 44.102638738476344 0 0.85716730853699208 0.51503806187062418 1 0 0 forward_v I I I I #
face $-1 $175 $176 $61 $-1 $177 forward single #
loop $-1 $178 $179 $79 #
cone-surface $-1 8.0193477309702814 19.842202697145748 8.3215001225049416 0 -0.85716730853699208 -0.51503806187062418 0.5 0 0 1 I I 0 1 0.5 forward I I I I #
face $-1 $180 $181 $62 $-1 $182 forward single #
loop $-1 $183 $184 $80 #
cone-surface $-1 10.619440169343662 19.842202697145748 8.3215001225049416 0 -0.85716730853699208 -0.51503806187062418 0.5 0 0 1 I I 0 1 0.5 forward I I I I #
face $-1 $185 $186 $63 $-1 $187 forward single #
loop $-1 $188 $189 $81 #
cone-surface $-1 13.219532607717042 19.842202697145748 8.3215001225049416 0 -0.85716730853699208 -0.51503806187062418 0.5 0 0 1 I I 0 1 0.5 forward I I I I #
face $-1 $190 $191 $64 $-1 $192 reversed single #
loop $-1 $-1 $193 $82 #
plane-surface $-1 6.2859527720546886 -94.930748382922957 50.891093633922708 -1 0 0 0 -0.85716730853699208 0.51503806187062418 forward_v I I I I #
face $-1 $194 $195 $65 $-1 $196 forward single #
loop $-1 $197 $198 $83 #
cone-surface $-1 -0.64762706360767197 -19.842202697145744 8.3215001225049345 0 0.85716730853699208 -0.51503806187062418 0.5 0 0 1 I I 0 1 0.5 forward I I I I #
face $-1 $199 $200 $66 $-1 $201 forward single #
loop $-1 $202 $203 $84 #
cone-surface $-1 1.9524653747657084 -19.842202697145744 8.3215001225049345 0 0.85716730853699208 -0.51503806187062418 0.5 0 0 1 I I 0 1 0.5 forward I I I I #
face $-1 $204 $205 $67 $-1 $206 forward single #
loop $-1 $207 $208 $85 #
cone-surface $-1 4.5525578131390887 -19.842202697145744 8.3215001225049345 0 0.85716730853699208 -0.51503806187062418 0.5 0 0 1 I I 0 1 0.5 forward I I I I #
face $-1 $209 $210 $68 $-1 $211 reversed single #
loop $-1 $-1 $212 $86 #
plane-surface $-1 14.952927566632642 -94.930748382922957 50.891093633922708 -1 0 0 0 -0.85716730853699208 0.51503806187062418 forward_v I I I I #
face $-1 $213 $214 $69 $-1 $215 forward single #
loop $-1 $216 $217 $87 #
cone-surface $-1 8.0193477309702814 -19.842202697145744 8.3215001225049345 0 0.85716730853699208 -0.51503806187062418 0.5 0 0 1 I I 0 1 0.5 forward I I I I #
face $-1 $218 $219 $70 $-1 $220 forward single #
loop $-1 $221 $222 $88 #
cone-surface $-1 10.619440169343662 -19.842202697145744 8.3215001225049345 0 0.85716730853699208 -0.51503806187062418 0.5 0 0 1 I I 0 1 0.5 forward I I I I #
face $-1 $223 $224 $71 $-1 $225 forward single #
loop $-1 $226 $227 $89 #
cone-surface $-1 13.219532607717042 -19.842202697145744 8.3215001225049345 0 0.85716730853699208 -0.51503806187062418 0.5 0 0 1 I I 0 1 0.5 forward I I I I #
face $-1 $228 $229 $54 $-1 $230 reversed single #
loop $-1 $-1 $231 $90 #
plane-surface $-1 0 0 -10.63716641241991 0 0 1 1 0 0 forward_v I I I I #
coedge $-1 $232 $233 $234 $235 forward $91 $-1 #
face $-1 $236 $237 $55 $-1 $238 forward single #
loop $-1 $-1 $239 $93 #
plane-surface $-1 0 21.705163799142074 0 0 -1 0 0 0 -1 forward_v I I I I #
coedge $-1 $240 $241 $242 $243 forward $94 $-1 #
face $-1 $244 $245 $56 $-1 $246 reversed single #
loop $-1 $-1 $247 $96 #
plane-surface $-1 1.9524653747657155 -0.65280719224705308 44.102638738476344 0 0.85716730853699208 0.51503806187062418 1 0 0 forward_v I I I I #
coedge $-1 $248 $249 $250 $251 reversed $97 $-1 #
face $-1 $-1 $252 $57 $-1 $253 forward single #
loop $-1 $254 $255 $99 #
cone-surface $-1 -0.64762706360767197 18.889893401208351 7.7492949891592513 0 -0.85716730853699208 -0.51503806187062418 0.25 0 0 1 I I -0.70710678118654746 0.70710678118654746 0.25 forward I I I I #
loop $-1 $-1 $256 $75 #
coedge $-1 $160 $160 $257 $258 reversed $100 $-1 #
face $-1 $-1 $259 $58 $-1 $260 forward single #
loop $-1 $261 $262 $102 #
cone-surface $-1 1.9524653747657084 18.889893401208351 7.7492949891592513 0 -0.85716730853699208 -0.51503806187062418 0.25 0 0 1 I I -0.70710678118654746 0.70710678118654746 0.25 forward I I I I #
loop $-1 $-1 $263 $76 #
coedge $-1 $165 $165 $264 $265 reversed $103 $-1 #
face $-1 $-1 $266 $59 $-1 $267 forward single #
loop $-1 $268 $269 $105 #
cone-surface $-1 4.5525578131390887 18.889893401208351 7.7492949891592513 0 -0.85716730853699208 -0.51503806187062418 0.25 0 0 1 I I -0.70710678118654746 0.70710678118654746 0.25 forward I I I I #
loop $-1 $-1 $270 $77 #
coedge $-1 $170 $170 $271 $272 reversed $106 $-1 #
face $-1 $273 $274 $60 $-1 $275 forward single #
loop $-1 $-1 $276 $108 #
plane-surface $-1 14.952927566632642 72.572777391533833 88.101007304053027 -1 0 0 0 0.85716730853699208 0.51503806187062418 forward_v I I I I #
coedge $-1 $277 $278 $279 $280 reversed $109 $-1 #
face $-1 $-1 $281 $61 $-1 $282 forward single #
loop $-1 $283 $284 $111 #
cone-surface $-1 8.0193477309702814 18.889893401208351 7.7492949891592513 0 -0.85716730853699208 -0.51503806187062418 0.25 0 0 1 I I -0.70710678118654746 0.70710678118654746 0.25 forward I I I I #
loop $-1 $-1 $285 $79 #
coedge $-1 $179 $179 $286 $287 reversed $112 $-1 #
face $-1 $-1 $288 $62 $-1 $289 forward single #
loop $-1 $290 $291 $114 #
cone-surface $-1 10.619440169343662 18.889893401208351 7.7492949891592513 0 -0.85716730853699208 -0.51503806187062418 0.25 0 0 1 I I -0.70710678118654746 0.70710678118654746 0.25 forward I I I I #
loop $-1 $-1 $292 $80 #
coedge $-1 $184 $184 $293 $294 reversed $115 $-1 #
face $-1 $-1 $295 $63 $-1 $296 forward single #
loop $-1 $297 $298 $117 #
cone-surface $-1 13.219532607717042 18.889893401208351 7.7492949891592513 0 -0.85716730853699208 -0.51503806187062418 0.25 0 0 1 I I -0.70710678118654746 0.70710678118654746 0.25 forward I I I I #
loop $-1 $-1 $299 $81 #
coedge $-1 $189 $189 $300 $301 reversed $118 $-1 #
face $-1 $302 $303 $64 $-1 $304 reversed single #
loop $-1 $-1 $305 $120 #
plane-surface $-1 1.9524653747657155 -21.705163799142071 6.8927250683460244 0 -0.85716730853699208 0.51503806187062418 1 0 0 forward_v I I I I #
coedge $-1 $306 $307 $308 $309 reversed $121 $-1 #
face $-1 $-1 $310 $65 $-1 $311 forward single #
loop $-1 $312 $313 $123 #
cone-surface $-1 -0.64762706360767197 -18.889893401208347 7.7492949891592442 0 0.85716730853699208 -0.51503806187062418 0.25 0 0 1 I I -0.70710678118654746 0.70710678118654746 0.25 forward I I I I #
loop $-1 $-1 $314 $83 #
coedge $-1 $198 $198 $315 $316 reversed $124 $-1 #
face $-1 $-1 $317 $66 $-1 $318 forward single #
loop $-1 $319 $320 $126 #
cone-surface $-1 1.9524653747657084 -18.889893401208347 7.7492949891592442 0 0.85716730853699208 -0.51503806187062418 0.25 0 0 1 I I -0.70710678118654746 0.70710678118654746 0.25 forward I I I I #
loop $-1 $-1 $321 $84 #
coedge $-1 $203 $203 $322 $323 reversed $127 $-1 #
face $-1 $-1 $324 $67 $-1 $325 forward single #
loop $-1 $326 $327 $129 #
cone-surface $-1 4.5525578131390887 -18.889893401208347 7.7492949891592442 0 0.85716730853699208 -0.51503806187062418 0.25 0 0 1 I I -0.70710678118654746 0.70710678118654746 0.25 forward I I I I #
loop $-1 $-1 $328 $85 #
coedge $-1 $208 $208 $329 $330 reversed $130 $-1 #
face $-1 $331 $332 $68 $-1 $333 reversed single #
loop $-1 $-1 $334 $132 #
plane-surface $-1 1.9524653747657155 -21.705163799142071 6.8927250683460244 0 -0.85716730853699208 0.51503806187062418 1 0 0 forward_v I I I I #
coedge $-1 $335 $336 $337 $338 reversed $133 $-1 #
face $-1 $-1 $339 $69 $-1 $340 forward single #
loop $-1 $341 $342 $135 #
cone-surface $-1 8.0193477309702814 -18.889893401208347 7.7492949891592442 0 0.85716730853699208 -0.51503806187062418 0.25 0 0 1 I I -0.70710678118654746 0.70710678118654746 0.25 forward I I I I #
loop $-1 $-1 $343 $87 #
coedge $-1 $217 $217 $344 $345 reversed $136 $-1 #
face $-1 $-1 $346 $70 $-1 $347 forward single #
loop $-1 $348 $349 $138 #
cone-surface $-1 10.619440169343662 -18.889893401208347 7.7492949891592442 0 0.85716730853699208 -0.51503806187062418 0.25 0 0 1 I I -0.70710678118654746 0.70710678118654746 0.25 forward I I I I #
loop $-1 $-1 $350 $88 #
coedge $-1 $222 $222 $351 $352 reversed $139 $-1 #
face $-1 $-1 $353 $71 $-1 $354 forward single #
loop $-1 $355 $356 $141 #
cone-surface $-1 13.219532607717042 -18.889893401208347 7.7492949891592442 0 0.85716730853699208 -0.51503806187062418 0.25 0 0 1 I I -0.70710678118654746 0.70710678118654746 0.25 forward I I I I #
loop $-1 $-1 $357 $89 #
coedge $-1 $227 $227 $358 $359 reversed $142 $-1 #
face $-1 $360 $361 $54 $-1 $362 reversed single #
loop $-1 $-1 $363 $144 #
plane-surface $-1 0 -21.705163799142074 0 0 1 0 0 0 1 forward_v I I I I #
coedge $-1 $364 $365 $366 $367 forward $145 $-1 #
coedge $-1 $368 $147 $369 $370 forward $91 $-1 #
coedge $-1 $147 $368 $371 $372 forward $91 $-1 #
coedge $-1 $373 $374 $147 $235 reversed $375 $-1 #
edge $-1 $376 -21.705163799142074 $377 21.705163799142074 $234 $378 forward 7 unknown #
face $-1 $379 $380 $55 $-1 $381 reversed single #
loop $-1 $-1 $242 $148 #
plane-surface $-1 -48.999658634660356 0 -4.8454343049952566 0 0 1 1 0 0 forward_v I I I I #
coedge $-1 $382 $383 $241 $384 forward $149 $-1 #
coedge $-1 $385 $151 $386 $387 reversed $94 $-1 #
coedge $-1 $151 $385 $239 $384 reversed $94 $-1 #
coedge $-1 $388 $389 $151 $243 reversed $237 $-1 #
edge $-1 $390 -21.705163799142074 $391 21.705163799142074 $242 $392 forward 7 unknown #
face $-1 $393 $394 $56 $-1 $395 forward single #
loop $-1 $-1 $396 $152 #
plane-surface $-1 6.2859527720546886 72.572777391533833 88.101007304053027 -1 0 0 0 0.85716730853699208 0.51503806187062418 forward_v I I I I #
coedge $-1 $397 $398 $399 $400 reversed $153 $-1 #
coedge $-1 $249 $155 $401 $402 reversed $97 $-1 #
coedge $-1 $155 $248 $397 $403 reversed $97 $-1 #
coedge $-1 $399 $404 $155 $251 forward $394 $-1 #
edge $-1 $405 14.581224896624843 $406 16.831112163011202 $250 $407 forward 7 unknown #
loop $-1 $-1 $257 $156 #
plane-surface $-1 1.9524653747657155 -0.65280719224705308 44.102638738476344 0 0.85716730853699208 0.51503806187062418 1 0 0 forward_v I I I I #
loop $-1 $-1 $408 $99 #
coedge $-1 $255 $255 $256 $409 reversed $157 $-1 #
coedge $-1 $256 $256 $255 $409 forward $159 $-1 #
coedge $-1 $257 $257 $160 $258 forward $252 $-1 #
edge $-1 $410 6.1429551296134909e-016 $410 6.2831853071796013 $257 $411 forward 7 unknown #
loop $-1 $-1 $264 $161 #
plane-surface $-1 1.9524653747657155 -0.65280719224705308 44.102638738476344 0 0.85716730853699208 0.51503806187062418 1 0 0 forward_v I I I I #
loop $-1 $-1 $412 $102 #
coedge $-1 $262 $262 $263 $413 reversed $162 $-1 #
coedge $-1 $263 $263 $262 $413 forward $164 $-1 #
coedge $-1 $264 $264 $165 $265 forward $259 $-1 #
edge $-1 $414 6.1429551296134909e-016 $414 6.2831853071796013 $264 $415 forward 7 unknown #
loop $-1 $-1 $271 $166 #
plane-surface $-1 1.9524653747657155 -0.65280719224705308 44.102638738476344 0 0.85716730853699208 0.51503806187062418 1 0 0 forward_v I I I I #
loop $-1 $-1 $416 $105 #
coedge $-1 $269 $269 $270 $417 reversed $167 $-1 #
coedge $-1 $270 $270 $269 $417 forward $169 $-1 #
coedge $-1 $271 $271 $170 $272 forward $266 $-1 #
edge $-1 $418 6.1429551296134909e-016 $418 6.2831853071796013 $271 $419 forward 7 unknown #
face $-1 $420 $421 $60 $-1 $422 forward single #
loop $-1 $-1 $423 $171 #
plane-surface $-1 0 0 10.63716641241991 0 0 1 1 0 0 forward_v I I I I #
coedge $-1 $424 $425 $426 $427 reversed $172 $-1 #
coedge $-1 $428 $174 $429 $430 reversed $109 $-1 #
coedge $-1 $174 $428 $423 $431 reversed $109 $-1 #
coedge $-1 $432 $433 $174 $280 forward $421 $-1 #
edge $-1 $434 -43.410327598284134 $435 -39.041937312302665 $279 $436 forward 7 unknown #
loop $-1 $-1 $286 $175 #
plane-surface $-1 1.9524653747657155 -0.65280719224705308 44.102638738476344 0 0.85716730853699208 0.51503806187062418 1 0 0 forward_v I I I I #
loop $-1 $-1 $437 $111 #
coedge $-1 $284 $284 $285 $438 reversed $176 $-1 #
coedge $-1 $285 $285 $284 $438 forward $178 $-1 #
coedge $-1 $286 $286 $179 $287 forward $281 $-1 #
edge $-1 $439 6.1429551296134909e-016 $439 6.2831853071796013 $286 $440 forward 7 unknown #
loop $-1 $-1 $293 $180 #
plane-surface $-1 1.9524653747657155 -0.65280719224705308 44.102638738476344 0 0.85716730853699208 0.51503806187062418 1 0 0 forward_v I I I I #
loop $-1 $-1 $441 $114 #
coedge $-1 $291 $291 $292 $442 reversed $181 $-1 #
coedge $-1 $292 $292 $291 $442 forward $183 $-1 #
coedge $-1 $293 $293 $184 $294 forward $288 $-1 #
edge $-1 $443 6.1429551296134909e-016 $443 6.2831853071796013 $293 $444 forward 7 unknown #
loop $-1 $-1 $300 $185 #
plane-surface $-1 1.9524653747657155 -0.65280719224705308 44.102638738476344 0 0.85716730853699208 0.51503806187062418 1 0 0 forward_v I I I I #
loop $-1 $-1 $445 $117 #
coedge $-1 $298 $298 $299 $446 reversed $186 $-1 #
coedge $-1 $299 $299 $298 $446 forward $188 $-1 #
coedge $-1 $300 $300 $189 $301 forward $295 $-1 #
edge $-1 $447 6.1429551296134909e-016 $447 6.2831853071796013 $300 $448 forward 7 unknown #
face $-1 $449 $450 $64 $-1 $451 reversed single #
loop $-1 $-1 $452 $190 #
plane-surface $-1 -2.3810220225232577 -94.930748382922957 50.891093633922708 1 0 0 0 0.85716730853699208 -0.51503806187062418 forward_v I I I I #
coedge $-1 $453 $454 $455 $456 reversed $191 $-1 #
coedge $-1 $307 $193 $457 $458 reversed $121 $-1 #
coedge $-1 $193 $306 $453 $459 reversed $121 $-1 #
coedge $-1 $455 $460 $193 $309 forward $461 $-1 #
edge $-1 $462 25.760210392319404 $463 28.010097658705771 $308 $464 forward 7 unknown #
loop $-1 $-1 $315 $194 #
plane-surface $-1 1.9524653747657155 -21.705163799142071 6.8927250683460244 0 -0.85716730853699208 0.51503806187062418 1 0 0 forward_v I I I I #
loop $-1 $-1 $465 $123 #
coedge $-1 $313 $313 $314 $466 reversed $195 $-1 #
coedge $-1 $314 $314 $313 $466 forward $197 $-1 #
coedge $-1 $315 $315 $198 $316 forward $310 $-1 #
edge $-1 $467 0 $467 6.2831853071796004 $315 $468 forward 7 unknown #
loop $-1 $-1 $322 $199 #
plane-surface $-1 1.9524653747657155 -21.705163799142071 6.8927250683460244 0 -0.85716730853699208 0.51503806187062418 1 0 0 forward_v I I I I #
loop $-1 $-1 $469 $126 #
coedge $-1 $320 $320 $321 $470 reversed $200 $-1 #
coedge $-1 $321 $321 $320 $470 forward $202 $-1 #
coedge $-1 $322 $322 $203 $323 forward $317 $-1 #
edge $-1 $471 0 $471 6.2831853071796004 $322 $472 forward 7 unknown #
loop $-1 $-1 $329 $204 #
plane-surface $-1 1.9524653747657155 -21.705163799142071 6.8927250683460244 0 -0.85716730853699208 0.51503806187062418 1 0 0 forward_v I I I I #
loop $-1 $-1 $473 $129 #
coedge $-1 $327 $327 $328 $474 reversed $205 $-1 #
coedge $-1 $328 $328 $327 $474 forward $207 $-1 #
coedge $-1 $329 $329 $208 $330 forward $324 $-1 #
edge $-1 $475 0 $475 6.2831853071796004 $329 $476 forward 7 unknown #
face $-1 $477 $478 $68 $-1 $479 forward single #
loop $-1 $-1 $480 $209 #
plane-surface $-1 0 -21.705163799142074 0 0 1 0 0 0 1 forward_v I I I I #
coedge $-1 $481 $482 $483 $484 reversed $210 $-1 #
coedge $-1 $336 $212 $485 $486 reversed $133 $-1 #
coedge $-1 $212 $335 $487 $488 reversed $133 $-1 #
coedge $-1 $489 $480 $212 $338 forward $332 $-1 #
edge $-1 $490 -18.552821748615337 $491 -14.808380404541444 $337 $492 forward 7 unknown #
loop $-1 $-1 $344 $213 #
plane-surface $-1 1.9524653747657155 -21.705163799142071 6.8927250683460244 0 -0.85716730853699208 0.51503806187062418 1 0 0 forward_v I I I I #
loop $-1 $-1 $493 $135 #
coedge $-1 $342 $342 $343 $494 reversed $214 $-1 #
coedge $-1 $343 $343 $342 $494 forward $216 $-1 #
coedge $-1 $344 $344 $217 $345 forward $339 $-1 #
edge $-1 $495 0 $495 6.2831853071796004 $344 $496 forward 7 unknown #
loop $-1 $-1 $351 $218 #
plane-surface $-1 1.9524653747657155 -21.705163799142071 6.8927250683460244 0 -0.85716730853699208 0.51503806187062418 1 0 0 forward_v I I I I #
loop $-1 $-1 $497 $138 #
coedge $-1 $349 $349 $350 $498 reversed $219 $-1 #
coedge $-1 $350 $350 $349 $498 forward $221 $-1 #
coedge $-1 $351 $351 $222 $352 forward $346 $-1 #
edge $-1 $499 0 $499 6.2831853071796004 $351 $500 forward 7 unknown #
loop $-1 $-1 $358 $223 #
plane-surface $-1 1.9524653747657155 -21.705163799142071 6.8927250683460244 0 -0.85716730853699208 0.51503806187062418 1 0 0 forward_v I I I I #
loop $-1 $-1 $501 $141 #
coedge $-1 $356 $356 $357 $502 reversed $224 $-1 #
coedge $-1 $357 $357 $356 $502 forward $226 $-1 #
coedge $-1 $358 $358 $227 $359 forward $353 $-1 #
edge $-1 $503 0 $503 6.2831853071796004 $358 $504 forward 7 unknown #
face $-1 $505 $506 $54 $-1 $507 reversed single #
loop $-1 $-1 $508 $228 #
plane-surface $-1 -42.713705862605671 0 0 1 0 0 0 0 -1 forward_v I I I I #
coedge $-1 $509 $371 $510 $511 forward $229 $-1 #
coedge $-1 $512 $231 $509 $513 forward $145 $-1 #
coedge $-1 $231 $512 $514 $515 forward $145 $-1 #
coedge $-1 $374 $373 $231 $367 reversed $375 $-1 #
edge $-1 $516 -21.705163799142074 $517 21.705163799142074 $366 $518 forward 7 unknown #
coedge $-1 $233 $232 $519 $520 forward $91 $-1 #
coedge $-1 $521 $522 $232 $370 reversed $506 $-1 #
edge $-1 $377 -42.713705862605671 $523 42.713705862605671 $369 $524 forward 7 unknown #
coedge $-1 $363 $525 $233 $372 reversed $229 $-1 #
edge $-1 $526 -42.713705862605671 $376 42.713705862605671 $371 $527 forward 7 unknown #
coedge $-1 $366 $234 $525 $528 forward $375 $-1 #
coedge $-1 $234 $366 $521 $529 reversed $375 $-1 #
loop $-1 $-1 $373 $505 #
vertex $-1 $235 $530 #
vertex $-1 $235 $531 #
straight-curve $-1 42.713705862605671 0 10.63716641241991 0 1 0 I I #
face $-1 $532 $533 $55 $-1 $534 reversed single #
loop $-1 $-1 $535 $236 #
plane-surface $-1 -55.285611406715041 0 -7.7413003587075835 1 0 0 0 0 -1 forward_v I I I I #
coedge $-1 $536 $239 $537 $538 reversed $149 $-1 #
coedge $-1 $239 $536 $388 $539 reversed $149 $-1 #
edge $-1 $390 4.8454343049952566 $540 10.63716641241991 $239 $541 forward 7 unknown #
coedge $-1 $241 $240 $542 $543 reversed $94 $-1 #
coedge $-1 $544 $545 $240 $387 forward $546 $-1 #
edge $-1 $547 -10.63716641241991 $391 -4.8454343049952566 $386 $548 forward 7 unknown #
coedge $-1 $549 $242 $383 $539 forward $237 $-1 #
coedge $-1 $242 $549 $544 $550 forward $237 $-1 #
vertex $-1 $384 $551 #
vertex $-1 $550 $552 #
straight-curve $-1 -42.713705862605671 0 -4.8454343049952566 0 -1 0 I I #
face $-1 $-1 $553 $56 $-1 $554 reversed single #
loop $-1 $-1 $250 $244 #
plane-surface $-1 0 0 10.63716641241991 0 0 1 1 0 0 forward_v I I I I #
coedge $-1 $555 $556 $557 $558 reversed $245 $-1 #
coedge $-1 $559 $247 $249 $403 forward $153 $-1 #
coedge $-1 $247 $559 $555 $560 forward $153 $-1 #
coedge $-1 $557 $250 $247 $400 forward $394 $-1 #
edge $-1 $406 -3.3572547099061154 $561 5.3097200846718309 $399 $562 forward 7 unknown #
coedge $-1 $563 $564 $248 $402 forward $553 $-1 #
edge $-1 $565 -37.157778583680482 $405 -33.413337239606605 $401 $566 forward 7 unknown #
edge $-1 $406 39.041937312302665 $565 43.410327598284134 $249 $567 forward 7 unknown #
coedge $-1 $250 $557 $563 $568 forward $394 $-1 #
vertex $-1 $402 $569 #
vertex $-1 $251 $570 #
straight-curve $-1 -2.3810220225232577 36.286388695766917 10.637166412419909 0 -1 0 I I #
coedge $-1 $408 $408 $-1 $571 reversed $254 $-1 #
edge $-1 $572 0 $572 6.2831853071796004 $255 $573 forward 7 unknown #
vertex $-1 $258 $574 #
ellipse-curve $-1 -0.64762706360767197 20.580220165948891 8.7649457403829718 0 0.85716730853699208 0.51503806187062418 0.5 0 0 1 I I #
coedge $-1 $412 $412 $-1 $575 reversed $261 $-1 #
edge $-1 $576 0 $576 6.2831853071796004 $262 $577 forward 7 unknown #
vertex $-1 $265 $578 #
ellipse-curve $-1 1.9524653747657084 20.580220165948891 8.7649457403829718 0 0.85716730853699208 0.51503806187062418 0.5 0 0 1 I I #
coedge $-1 $416 $416 $-1 $579 reversed $268 $-1 #
edge $-1 $580 0 $580 6.2831853071796004 $269 $581 forward 7 unknown #
vertex $-1 $272 $582 #
ellipse-curve $-1 4.5525578131390887 20.580220165948891 8.7649457403829718 0 0.85716730853699208 0.51503806187062418 0.5 0 0 1 I I #
face $-1 $-1 $583 $60 $-1 $584 reversed single #
loop $-1 $-1 $432 $273 #
plane-surface $-1 6.2859527720546886 72.572777391533833 88.101007304053027 -1 0 0 0 0.85716730853699208 0.51503806187062418 forward_v I I I I #
coedge $-1 $426 $585 $278 $431 forward $274 $-1 #
coedge $-1 $425 $276 $428 $586 reversed $172 $-1 #
coedge $-1 $276 $424 $587 $588 reversed $172 $-1 #
coedge $-1 $589 $423 $276 $427 forward $274 $-1 #
edge $-1 $590 -16.831112163011202 $591 -14.581224896624843 $426 $592 forward 7 unknown #
coedge $-1 $278 $277 $424 $586 forward $109 $-1 #
coedge $-1 $593 $587 $277 $430 forward $583 $-1 #
edge $-1 $594 -13.976694879249784 $434 -5.3097200846718309 $429 $595 forward 7 unknown #
edge $-1 $435 5.3097200846718309 $590 13.976694879249784 $423 $596 forward 7 unknown #
coedge $-1 $433 $279 $585 $597 reversed $421 $-1 #
coedge $-1 $279 $432 $593 $598 reversed $421 $-1 #
vertex $-1 $430 $599 #
vertex $-1 $431 $600 #
straight-curve $-1 6.2859527720546886 -0.65280719224705308 44.102638738476344 0 -0.51503806187062418 0.85716730853699208 I I #
coedge $-1 $437 $437 $-1 $601 reversed $283 $-1 #
edge $-1 $602 0 $602 6.2831853071796004 $284 $603 forward 7 unknown #
vertex $-1 $287 $604 #
ellipse-curve $-1 8.0193477309702814 20.580220165948891 8.7649457403829718 0 0.85716730853699208 0.51503806187062418 0.5 0 0 1 I I #
coedge $-1 $441 $441 $-1 $605 reversed $290 $-1 #
edge $-1 $606 0 $606 6.2831853071796004 $291 $607 forward 7 unknown #
vertex $-1 $294 $608 #
ellipse-curve $-1 10.619440169343662 20.580220165948891 8.7649457403829718 0 0.85716730853699208 0.51503806187062418 0.5 0 0 1 I I #
coedge $-1 $445 $445 $-1 $609 reversed $297 $-1 #
edge $-1 $610 0 $610 6.2831853071796004 $298 $611 forward 7 unknown #
vertex $-1 $301 $612 #
ellipse-curve $-1 13.219532607717042 20.580220165948891 8.7649457403829718 0 0.85716730853699208 0.51503806187062418 0.5 0 0 1 I I #
face $-1 $-1 $461 $64 $-1 $613 forward single #
loop $-1 $-1 $614 $302 #
plane-surface $-1 0 -21.705163799142074 0 0 1 0 0 0 1 forward_v I I I I #
coedge $-1 $615 $616 $617 $618 reversed $303 $-1 #
coedge $-1 $619 $305 $307 $459 forward $191 $-1 #
coedge $-1 $305 $619 $615 $620 forward $191 $-1 #
coedge $-1 $617 $308 $305 $456 forward $461 $-1 #
edge $-1 $463 -5.3097200846718309 $621 3.3572547099061154 $455 $622 forward 7 unknown #
coedge $-1 $623 $624 $306 $458 forward $450 $-1 #
edge $-1 $625 -18.552821748615337 $462 -14.808380404541444 $457 $626 forward 7 unknown #
edge $-1 $463 -4.3683902859814809 $625 7.1590053061156351e-015 $307 $627 forward 7 unknown #
coedge $-1 $308 $617 $623 $628 forward $461 $-1 #
loop $-1 $-1 $617 $449 #
vertex $-1 $458 $629 #
vertex $-1 $309 $630 #
straight-curve $-1 6.2859527720546886 -47.465374191461478 10.637166412419912 0 1 0 I I #
coedge $-1 $465 $465 $-1 $631 reversed $312 $-1 #
edge $-1 $632 0 $632 6.2831853071796004 $313 $633 forward 7 unknown #
vertex $-1 $316 $634 #
ellipse-curve $-1 -0.64762706360767197 -20.580220165948891 8.7649457403829665 0 -0.85716730853699208 0.51503806187062418 0.5 0 0 1 I I #
coedge $-1 $469 $469 $-1 $635 reversed $319 $-1 #
edge $-1 $636 0 $636 6.2831853071796004 $320 $637 forward 7 unknown #
vertex $-1 $323 $638 #
ellipse-curve $-1 1.9524653747657084 -20.580220165948891 8.7649457403829665 0 -0.85716730853699208 0.51503806187062418 0.5 0 0 1 I I #
coedge $-1 $473 $473 $-1 $639 reversed $326 $-1 #
edge $-1 $640 0 $640 6.2831853071796004 $327 $641 forward 7 unknown #
vertex $-1 $330 $642 #
ellipse-curve $-1 4.5525578131390887 -20.580220165948891 8.7649457403829665 0 -0.85716730853699208 0.51503806187062418 0.5 0 0 1 I I #
face $-1 $-1 $643 $68 $-1 $644 forward single #
loop $-1 $-1 $645 $331 #
plane-surface $-1 6.2859527720546886 -94.930748382922957 50.891093633922708 -1 0 0 0 -0.85716730853699208 0.51503806187062418 forward_v I I I I #
coedge $-1 $337 $646 $482 $647 forward $332 $-1 #
coedge $-1 $485 $334 $648 $649 reversed $210 $-1 #
coedge $-1 $334 $485 $480 $647 reversed $210 $-1 #
coedge $-1 $650 $645 $334 $484 forward $478 $-1 #
edge $-1 $651 -4.3683902859814809 $652 7.1590053061156351e-015 $483 $653 forward 7 unknown #
coedge $-1 $482 $481 $335 $486 forward $210 $-1 #
edge $-1 $654 -4.3683902859814809 $490 7.1590053061156351e-015 $335 $655 forward 7 unknown #
coedge $-1 $648 $656 $336 $488 forward $643 $-1 #
edge $-1 $491 25.760210392319404 $654 28.010097658705771 $487 $657 forward 7 unknown #
coedge $-1 $646 $337 $656 $658 reversed $332 $-1 #
vertex $-1 $338 $659 #
vertex $-1 $338 $660 #
straight-curve $-1 14.952927566632642 -21.705163799142071 25.445546816961354 0 0 1 I I #
coedge $-1 $493 $493 $-1 $661 reversed $341 $-1 #
edge $-1 $662 0 $662 6.2831853071796004 $342 $663 forward 7 unknown #
vertex $-1 $345 $664 #
ellipse-curve $-1 8.0193477309702814 -20.580220165948891 8.7649457403829665 0 -0.85716730853699208 0.51503806187062418 0.5 0 0 1 I I #
coedge $-1 $497 $497 $-1 $665 reversed $348 $-1 #
edge $-1 $666 0 $666 6.2831853071796004 $349 $667 forward 7 unknown #
vertex $-1 $352 $668 #
ellipse-curve $-1 10.619440169343662 -20.580220165948891 8.7649457403829665 0 -0.85716730853699208 0.51503806187062418 0.5 0 0 1 I I #
coedge $-1 $501 $501 $-1 $669 reversed $355 $-1 #
edge $-1 $670 0 $670 6.2831853071796004 $356 $671 forward 7 unknown #
vertex $-1 $359 $672 #
ellipse-curve $-1 13.219532607717042 -20.580220165948891 8.7649457403829665 0 -0.85716730853699208 0.51503806187062418 0.5 0 0 1 I I #
face $-1 $-1 $375 $54 $-1 $673 reversed single #
loop $-1 $-1 $521 $360 #
plane-surface $-1 0 21.705163799142074 0 0 -1 0 0 0 -1 forward_v I I I I #
coedge $-1 $674 $519 $522 $675 forward $361 $-1 #
coedge $-1 $525 $363 $364 $513 reversed $229 $-1 #
coedge $-1 $519 $674 $363 $511 reversed $361 $-1 #
edge $-1 $526 -10.63716641241991 $676 10.63716641241991 $510 $677 forward 7 unknown #
coedge $-1 $365 $364 $674 $678 forward $145 $-1 #
edge $-1 $517 -42.713705862605671 $676 42.713705862605671 $509 $679 forward 7 unknown #
coedge $-1 $522 $521 $365 $515 reversed $506 $-1 #
edge $-1 $680 -42.713705862605671 $516 42.713705862605671 $514 $681 forward 7 unknown #
vertex $-1 $367 $682 #
vertex $-1 $528 $683 #
straight-curve $-1 42.713705862605671 0 -10.63716641241991 0 -1 0 I I #
coedge $-1 $508 $510 $368 $520 reversed $361 $-1 #
edge $-1 $523 -21.705163799142074 $526 21.705163799142074 $519 $684 forward 7 unknown #
coedge $-1 $514 $369 $374 $529 forward $506 $-1 #
coedge $-1 $369 $514 $508 $675 reversed $506 $-1 #
vertex $-1 $370 $685 #
straight-curve $-1 0 21.705163799142074 10.63716641241991 -1 0 0 I I #
coedge $-1 $371 $509 $373 $528 reversed $229 $-1 #
vertex $-1 $520 $686 #
straight-curve $-1 0 -21.705163799142074 10.63716641241991 1 0 0 I I #
edge $-1 $376 -10.63716641241991 $517 10.63716641241991 $373 $687 forward 7 unknown #
edge $-1 $377 -10.63716641241991 $516 10.63716641241991 $374 $688 forward 7 unknown #
point $-1 42.713705862605671 -21.705163799142074 10.63716641241991 #
point $-1 42.713705862605671 21.705163799142074 10.63716641241991 #
face $-1 $-1 $546 $55 $-1 $689 reversed single #
loop $-1 $-1 $542 $379 #
plane-surface $-1 0 0 -10.63716641241991 0 0 1 1 0 0 forward_v I I I I #
coedge $-1 $690 $691 $536 $692 forward $380 $-1 #
coedge $-1 $383 $382 $535 $692 reversed $149 $-1 #
coedge $-1 $542 $693 $382 $538 forward $533 $-1 #
edge $-1 $694 -55.285611406715041 $540 -42.713705862605671 $382 $695 forward 7 unknown #
edge $-1 $390 -6.2859527720546851 $696 6.2859527720546851 $383 $697 forward 7 unknown #
vertex $-1 $384 $698 #
straight-curve $-1 -42.713705862605671 21.705163799142074 0 0 0 -1 I I #
coedge $-1 $699 $537 $385 $543 forward $533 $-1 #
edge $-1 $540 -21.705163799142074 $547 21.705163799142074 $542 $700 forward 7 unknown #
coedge $-1 $701 $386 $389 $550 reversed $546 $-1 #
coedge $-1 $386 $701 $699 $702 reversed $546 $-1 #
loop $-1 $-1 $386 $532 #
vertex $-1 $702 $703 #
straight-curve $-1 -42.713705862605671 -21.705163799142074 0 0 0 1 I I #
coedge $-1 $389 $388 $691 $704 forward $237 $-1 #
edge $-1 $705 -6.2859527720546851 $391 6.2859527720546851 $544 $706 forward 7 unknown #
point $-1 -42.713705862605671 21.705163799142074 -4.8454343049952566 #
point $-1 -42.713705862605671 -21.705163799142074 -4.8454343049952566 #
loop $-1 $-1 $401 $393 #
plane-surface $-1 0 21.705163799142074 0 0 -1 0 0 0 -1 forward_v I I I I #
coedge $-1 $556 $396 $398 $560 reversed $245 $-1 #
coedge $-1 $396 $555 $707 $708 reversed $245 $-1 #
coedge $-1 $404 $399 $396 $558 forward $394 $-1 #
edge $-1 $561 -16.831112163011202 $709 -14.581224896624843 $557 $710 forward 7 unknown #
coedge $-1 $398 $397 $564 $711 reversed $153 $-1 #
edge $-1 $712 -43.410327598284134 $561 -39.041937312302665 $555 $713 forward 7 unknown #
vertex $-1 $400 $714 #
straight-curve $-1 0.97623268738285773 19.455276532755711 10.637166412419912 1 0 0 I I #
coedge $-1 $707 $401 $404 $568 reversed $553 $-1 #
coedge $-1 $401 $707 $559 $711 forward $553 $-1 #
vertex $-1 $402 $715 #
straight-curve $-1 -2.3810220225232577 21.705163799142074 44.050503652026514 0 0 1 I I #
straight-curve $-1 -2.3810220225232577 -0.65280719224705308 44.102638738476344 0 0.51503806187062418 -0.85716730853699208 I I #
edge $-1 $709 -6.2859527720546886 $405 2.3810220225232577 $563 $716 forward 7 unknown #
point $-1 -2.3810220225232577 21.705163799142074 10.63716641241991 #
point $-1 -2.3810220225232577 19.455276532755715 10.637166412419909 #
edge $-1 $717 1 $717 0 $408 $-1 forward 7 unknown #
vertex $-1 $409 $718 #
ellipse-curve $-1 -0.64762706360767197 19.104185228342597 7.878054504626907 0 0.85716730853699208 0.51503806187062418 0.5 0 0 1 I I #
point $-1 -0.14762706360767197 20.580220165948894 8.7649457403829736 #
edge $-1 $719 1 $719 0 $412 $-1 forward 7 unknown #
vertex $-1 $413 $720 #
ellipse-curve $-1 1.9524653747657084 19.104185228342597 7.878054504626907 0 0.85716730853699208 0.51503806187062418 0.5 0 0 1 I I #
point $-1 2.4524653747657084 20.580220165948894 8.7649457403829736 #
edge $-1 $721 1 $721 0 $416 $-1 forward 7 unknown #
vertex $-1 $417 $722 #
ellipse-curve $-1 4.5525578131390887 19.104185228342597 7.878054504626907 0 0.85716730853699208 0.51503806187062418 0.5 0 0 1 I I #
point $-1 5.0525578131390887 20.580220165948894 8.7649457403829736 #
loop $-1 $-1 $429 $420 #
plane-surface $-1 0 21.705163799142074 0 0 -1 0 0 0 -1 forward_v I I I I #
coedge $-1 $423 $589 $432 $597 forward $274 $-1 #
edge $-1 $594 -43.410327598284134 $590 -39.041937312302665 $424 $723 forward 7 unknown #
coedge $-1 $429 $724 $425 $588 forward $583 $-1 #
edge $-1 $591 33.413337239606605 $594 37.157778583680482 $587 $725 forward 7 unknown #
coedge $-1 $585 $426 $724 $726 forward $274 $-1 #
vertex $-1 $427 $727 #
vertex $-1 $726 $728 #
straight-curve $-1 14.952927566632642 36.286388695766917 10.637166412419909 0 1 0 I I #
coedge $-1 $724 $429 $433 $598 forward $583 $-1 #
vertex $-1 $588 $729 #
straight-curve $-1 0.97623268738285773 21.705163799142074 6.8927250683460279 -1 0 0 I I #
straight-curve $-1 0.97623268738285773 19.455276532755711 10.637166412419912 1 0 0 I I #
edge $-1 $730 14.581224896624843 $435 16.831112163011202 $585 $731 forward 7 unknown #
edge $-1 $434 -37.157778583680482 $730 -33.413337239606605 $593 $732 forward 7 unknown #
point $-1 6.2859527720546886 21.705163799142074 6.8927250683460315 #
point $-1 6.2859527720546886 19.455276532755715 10.637166412419909 #
edge $-1 $733 1 $733 0 $437 $-1 forward 7 unknown #
vertex $-1 $438 $734 #
ellipse-curve $-1 8.0193477309702814 19.104185228342597 7.878054504626907 0 0.85716730853699208 0.51503806187062418 0.5 0 0 1 I I #
point $-1 8.5193477309702814 20.580220165948894 8.7649457403829736 #
edge $-1 $735 1 $735 0 $441 $-1 forward 7 unknown #
vertex $-1 $442 $736 #
ellipse-curve $-1 10.619440169343662 19.104185228342597 7.878054504626907 0 0.85716730853699208 0.51503806187062418 0.5 0 0 1 I I #
point $-1 11.119440169343662 20.580220165948894 8.7649457403829736 #
edge $-1 $737 1 $737 0 $445 $-1 forward 7 unknown #
vertex $-1 $446 $738 #
ellipse-curve $-1 13.219532607717042 19.104185228342597 7.878054504626907 0 0.85716730853699208 0.51503806187062418 0.5 0 0 1 I I #
point $-1 13.719532607717042 20.580220165948894 8.7649457403829736 #
plane-surface $-1 0 0 10.63716641241991 0 0 1 1 0 0 forward_v I I I I #
coedge $-1 $624 $623 $616 $739 forward $450 $-1 #
coedge $-1 $616 $452 $454 $620 reversed $303 $-1 #
coedge $-1 $452 $615 $614 $739 reversed $303 $-1 #
coedge $-1 $460 $455 $452 $618 forward $461 $-1 #
edge $-1 $621 -28.010097658705771 $740 -25.760210392319404 $617 $741 forward 7 unknown #
coedge $-1 $454 $453 $624 $742 reversed $191 $-1 #
edge $-1 $743 -7.1590053061156351e-015 $621 4.3683902859814809 $615 $744 forward 7 unknown #
vertex $-1 $456 $745 #
straight-curve $-1 0.97623268738285773 -19.455276532755708 10.63716641241991 -1 0 0 I I #
coedge $-1 $614 $457 $460 $628 reversed $450 $-1 #
coedge $-1 $457 $614 $619 $742 forward $450 $-1 #
vertex $-1 $458 $746 #
straight-curve $-1 6.2859527720546886 -21.705163799142071 25.445546816961354 0 0 1 I I #
straight-curve $-1 6.2859527720546886 -21.705163799142071 6.8927250683460244 0 -0.51503806187062418 -0.85716730853699208 I I #
edge $-1 $740 -2.3810220225232577 $462 6.2859527720546886 $623 $747 forward 7 unknown #
point $-1 6.2859527720546886 -21.705163799142074 10.63716641241991 #
point $-1 6.2859527720546886 -19.455276532755708 10.63716641241991 #
edge $-1 $748 1 $748 0 $465 $-1 forward 7 unknown #
vertex $-1 $466 $749 #
ellipse-curve $-1 -0.64762706360767197 -19.104185228342594 7.8780545046268999 0 -0.85716730853699208 0.51503806187062418 0.5 0 0 1 I I #
point $-1 -0.14762706360767197 -20.580220165948891 8.7649457403829665 #
edge $-1 $750 1 $750 0 $469 $-1 forward 7 unknown #
vertex $-1 $470 $751 #
ellipse-curve $-1 1.9524653747657084 -19.104185228342594 7.8780545046268999 0 -0.85716730853699208 0.51503806187062418 0.5 0 0 1 I I #
point $-1 2.4524653747657084 -20.580220165948891 8.7649457403829665 #
edge $-1 $752 1 $752 0 $473 $-1 forward 7 unknown #
vertex $-1 $474 $753 #
ellipse-curve $-1 4.5525578131390887 -19.104185228342594 7.8780545046268999 0 -0.85716730853699208 0.51503806187062418 0.5 0 0 1 I I #
point $-1 5.0525578131390887 -20.580220165948891 8.7649457403829665 #
loop $-1 $-1 $648 $477 #
plane-surface $-1 0 0 10.63716641241991 0 0 1 1 0 0 forward_v I I I I #
coedge $-1 $483 $650 $754 $755 reversed $478 $-1 #
coedge $-1 $480 $489 $650 $756 forward $332 $-1 #
edge $-1 $652 5.3097200846718309 $490 13.976694879249784 $480 $757 forward 7 unknown #
coedge $-1 $754 $487 $481 $649 forward $643 $-1 #
edge $-1 $654 -13.976694879249784 $651 -5.3097200846718309 $648 $758 forward 7 unknown #
coedge $-1 $645 $483 $646 $756 reversed $478 $-1 #
vertex $-1 $649 $759 #
vertex $-1 $647 $760 #
straight-curve $-1 6.2859527720546886 -21.705163799142071 6.8927250683460244 0 -0.51503806187062418 -0.85716730853699208 I I #
vertex $-1 $488 $761 #
straight-curve $-1 14.952927566632642 -21.705163799142071 6.8927250683460244 0 -0.51503806187062418 -0.85716730853699208 I I #
coedge $-1 $487 $754 $489 $658 forward $643 $-1 #
straight-curve $-1 14.952927566632642 -47.465374191461478 10.637166412419912 0 1 0 I I #
edge $-1 $762 6.2859527720546886 $491 14.952927566632642 $489 $763 forward 7 unknown #
point $-1 14.952927566632642 -21.705163799142074 6.8927250683460182 #
point $-1 14.952927566632642 -21.705163799142074 10.63716641241991 #
edge $-1 $764 1 $764 0 $493 $-1 forward 7 unknown #
vertex $-1 $494 $765 #
ellipse-curve $-1 8.0193477309702814 -19.104185228342594 7.8780545046268999 0 -0.85716730853699208 0.51503806187062418 0.5 0 0 1 I I #
point $-1 8.5193477309702814 -20.580220165948891 8.7649457403829665 #
edge $-1 $766 1 $766 0 $497 $-1 forward 7 unknown #
vertex $-1 $498 $767 #
ellipse-curve $-1 10.619440169343662 -19.104185228342594 7.8780545046268999 0 -0.85716730853699208 0.51503806187062418 0.5 0 0 1 I I #
point $-1 11.119440169343662 -20.580220165948891 8.7649457403829665 #
edge $-1 $768 1 $768 0 $501 $-1 forward 7 unknown #
vertex $-1 $502 $769 #
ellipse-curve $-1 13.219532607717042 -19.104185228342594 7.8780545046268999 0 -0.85716730853699208 0.51503806187062418 0.5 0 0 1 I I #
point $-1 13.719532607717042 -20.580220165948891 8.7649457403829665 #
plane-surface $-1 42.713705862605671 0 0 -1 0 0 0 0 1 forward_v I I I I #
coedge $-1 $510 $508 $512 $678 reversed $361 $-1 #
edge $-1 $523 -10.63716641241991 $680 10.63716641241991 $522 $770 forward 7 unknown #
vertex $-1 $678 $771 #
straight-curve $-1 -42.713705862605671 -21.705163799142074 0 0 0 -1 I I #
edge $-1 $676 -21.705163799142074 $680 21.705163799142074 $674 $772 forward 7 unknown #
straight-curve $-1 0 -21.705163799142074 -10.63716641241991 -1 0 0 I I #
vertex $-1 $515 $773 #
straight-curve $-1 0 21.705163799142074 -10.63716641241991 1 0 0 I I #
point $-1 42.713705862605671 21.705163799142074 -10.63716641241991 #
point $-1 42.713705862605671 -21.705163799142074 -10.63716641241991 #
straight-curve $-1 -42.713705862605671 0 10.63716641241991 0 -1 0 I I #
point $-1 -42.713705862605671 21.705163799142074 10.63716641241991 #
point $-1 -42.713705862605671 -21.705163799142074 10.63716641241991 #
straight-curve $-1 42.713705862605671 -21.705163799142074 0 0 0 -1 I I #
straight-curve $-1 42.713705862605671 21.705163799142074 0 0 0 -1 I I #
plane-surface $-1 0 -21.705163799142074 0 0 1 0 0 0 1 forward_v I I I I #
coedge $-1 $774 $535 $693 $775 reversed $380 $-1 #
coedge $-1 $535 $774 $549 $704 reversed $380 $-1 #
edge $-1 $696 -2.8958660537123269 $694 2.8958660537123269 $536 $776 forward 7 unknown #
coedge $-1 $537 $699 $690 $775 forward $533 $-1 #
vertex $-1 $538 $777 #
straight-curve $-1 0 21.705163799142074 -10.63716641241991 1 0 0 I I #
vertex $-1 $539 $778 #
straight-curve $-1 -48.999658634660356 21.705163799142074 -4.8454343049952566 -1 0 0 I I #
point $-1 -42.713705862605671 21.705163799142074 -10.63716641241991 #
coedge $-1 $693 $542 $545 $702 forward $533 $-1 #
straight-curve $-1 -42.713705862605671 0 -10.63716641241991 0 -1 0 I I #
coedge $-1 $545 $544 $774 $779 forward $546 $-1 #
edge $-1 $547 -6.2859527720546851 $780 6.2859527720546851 $545 $781 forward 7 unknown #
point $-1 -42.713705862605671 -21.705163799142074 -10.63716641241991 #
edge $-1 $696 -21.705163799142074 $705 21.705163799142074 $691 $782 forward 7 unknown #
vertex $-1 $704 $783 #
straight-curve $-1 -48.999658634660356 -21.705163799142074 -4.8454343049952566 1 0 0 I I #
coedge $-1 $564 $563 $556 $708 forward $553 $-1 #
edge $-1 $709 33.413337239606605 $712 37.157778583680482 $707 $784 forward 7 unknown #
vertex $-1 $568 $785 #
straight-curve $-1 6.2859527720546886 36.286388695766917 10.637166412419909 0 1 0 I I #
edge $-1 $712 -5.3097200846718309 $565 3.3572547099061154 $564 $786 forward 7 unknown #
vertex $-1 $711 $787 #
straight-curve $-1 6.2859527720546886 -0.65280719224705308 44.102638738476344 0 -0.51503806187062418 0.85716730853699208 I I #
point $-1 6.2859527720546886 19.455276532755715 10.637166412419909 #
point $-1 -2.3810220225232577 21.705163799142074 6.8927250683460315 #
straight-curve $-1 0 21.705163799142074 10.63716641241991 -1 0 0 I I #
vertex $-1 $571 $788 #
point $-1 -0.14762706360767197 19.104185228342597 7.878054504626907 #
vertex $-1 $575 $789 #
point $-1 2.4524653747657084 19.104185228342597 7.878054504626907 #
vertex $-1 $579 $790 #
point $-1 5.0525578131390887 19.104185228342597 7.878054504626907 #
straight-curve $-1 14.952927566632642 -0.65280719224705308 44.102638738476344 0 -0.51503806187062418 0.85716730853699208 I I #
coedge $-1 $587 $593 $589 $726 reversed $583 $-1 #
straight-curve $-1 14.952927566632642 21.705163799142074 44.050503652026514 0 0 -1 I I #
edge $-1 $591 -14.952927566632642 $730 -6.2859527720546886 $724 $791 forward 7 unknown #
point $-1 14.952927566632642 19.455276532755715 10.637166412419909 #
point $-1 14.952927566632642 21.705163799142074 10.63716641241991 #
point $-1 14.952927566632642 21.705163799142074 6.8927250683460315 #
vertex $-1 $598 $792 #
straight-curve $-1 6.2859527720546886 36.286388695766917 10.637166412419909 0 -1 0 I I #
straight-curve $-1 6.2859527720546886 21.705163799142074 44.050503652026514 0 0 1 I I #
vertex $-1 $601 $793 #
point $-1 8.5193477309702814 19.104185228342597 7.878054504626907 #
vertex $-1 $605 $794 #
point $-1 11.119440169343662 19.104185228342597 7.878054504626907 #
vertex $-1 $609 $795 #
point $-1 13.719532607717042 19.104185228342597 7.878054504626907 #
edge $-1 $740 14.808380404541444 $743 18.552821748615337 $614 $796 forward 7 unknown #
vertex $-1 $628 $797 #
straight-curve $-1 -2.3810220225232577 -47.465374191461478 10.637166412419912 0 -1 0 I I #
edge $-1 $743 -3.3572547099061154 $625 5.3097200846718309 $624 $798 forward 7 unknown #
vertex $-1 $742 $799 #
straight-curve $-1 -2.3810220225232577 -21.705163799142071 6.8927250683460244 0 0.51503806187062418 0.85716730853699208 I I #
point $-1 -2.3810220225232577 -19.455276532755708 10.63716641241991 #
point $-1 6.2859527720546886 -21.705163799142074 6.8927250683460182 #
straight-curve $-1 0 -21.705163799142074 10.63716641241991 1 0 0 I I #
vertex $-1 $631 $800 #
point $-1 -0.14762706360767197 -19.104185228342594 7.8780545046268999 #
vertex $-1 $635 $801 #
point $-1 2.4524653747657084 -19.104185228342594 7.8780545046268999 #
vertex $-1 $639 $802 #
point $-1 5.0525578131390887 -19.104185228342594 7.8780545046268999 #
coedge $-1 $656 $648 $645 $755 forward $643 $-1 #
edge $-1 $651 -28.010097658705771 $762 -25.760210392319404 $754 $803 forward 7 unknown #
edge $-1 $762 14.808380404541444 $652 18.552821748615337 $646 $804 forward 7 unknown #
straight-curve $-1 0.97623268738285773 -21.705163799142074 6.8927250683460137 1 0 0 I I #
straight-curve $-1 0.97623268738285773 -19.455276532755708 10.63716641241991 -1 0 0 I I #
point $-1 6.2859527720546886 -19.455276532755708 10.63716641241991 #
point $-1 6.2859527720546886 -21.705163799142074 6.8927250683460182 #
point $-1 14.952927566632642 -19.455276532755708 10.63716641241991 #
vertex $-1 $658 $805 #
straight-curve $-1 0 -21.705163799142074 10.63716641241991 1 0 0 I I #
vertex $-1 $661 $806 #
point $-1 8.5193477309702814 -19.104185228342594 7.8780545046268999 #
vertex $-1 $665 $807 #
point $-1 11.119440169343662 -19.104185228342594 7.8780545046268999 #
vertex $-1 $669 $808 #
point $-1 13.719532607717042 -19.104185228342594 7.8780545046268999 #
straight-curve $-1 -42.713705862605671 21.705163799142074 0 0 0 -1 I I #
point $-1 -42.713705862605671 -21.705163799142074 -10.63716641241991 #
straight-curve $-1 -42.713705862605671 0 -10.63716641241991 0 1 0 I I #
point $-1 -42.713705862605671 21.705163799142074 -10.63716641241991 #
coedge $-1 $691 $690 $701 $779 reversed $380 $-1 #
edge $-1 $780 -21.705163799142074 $694 21.705163799142074 $690 $809 forward 7 unknown #
straight-curve $-1 -55.285611406715041 21.705163799142074 -7.7413003587075835 0 0 -1 I I #
point $-1 -55.285611406715041 21.705163799142074 -10.63716641241991 #
point $-1 -55.285611406715041 21.705163799142074 -4.8454343049952566 #
edge $-1 $705 -2.8958660537123269 $780 2.8958660537123269 $774 $810 forward 7 unknown #
vertex $-1 $775 $811 #
straight-curve $-1 -48.999658634660356 -21.705163799142074 -10.63716641241991 -1 0 0 I I #
straight-curve $-1 -55.285611406715041 0 -4.8454343049952566 0 -1 0 I I #
point $-1 -55.285611406715041 -21.705163799142074 -4.8454343049952566 #
straight-curve $-1 6.2859527720546886 21.705163799142074 44.050503652026514 0 0 -1 I I #
point $-1 6.2859527720546886 21.705163799142074 10.63716641241991 #
straight-curve $-1 0.97623268738285773 21.705163799142074 6.8927250683460279 -1 0 0 I I #
point $-1 6.2859527720546886 21.705163799142074 6.8927250683460315 #
point $-1 -0.64762706360767197 18.675601574074104 7.6205354736915956 #
point $-1 1.9524653747657084 18.675601574074104 7.6205354736915956 #
point $-1 4.5525578131390887 18.675601574074104 7.6205354736915956 #
straight-curve $-1 0 21.705163799142074 10.63716641241991 -1 0 0 I I #
point $-1 6.2859527720546886 21.705163799142074 10.63716641241991 #
point $-1 8.0193477309702814 18.675601574074104 7.6205354736915956 #
point $-1 10.619440169343662 18.675601574074104 7.6205354736915956 #
point $-1 13.219532607717042 18.675601574074104 7.6205354736915956 #
straight-curve $-1 -2.3810220225232577 -21.705163799142071 25.445546816961354 0 0 -1 I I #
point $-1 -2.3810220225232577 -21.705163799142074 10.63716641241991 #
straight-curve $-1 0.97623268738285773 -21.705163799142074 6.8927250683460137 1 0 0 I I #
point $-1 -2.3810220225232577 -21.705163799142074 6.8927250683460182 #
point $-1 -0.64762706360767197 -18.675601574074101 7.6205354736915885 #
point $-1 1.9524653747657084 -18.675601574074101 7.6205354736915885 #
point $-1 4.5525578131390887 -18.675601574074101 7.6205354736915885 #
straight-curve $-1 6.2859527720546886 -47.465374191461478 10.637166412419912 0 -1 0 I I #
straight-curve $-1 6.2859527720546886 -21.705163799142071 25.445546816961354 0 0 -1 I I #
point $-1 6.2859527720546886 -21.705163799142074 10.63716641241991 #
point $-1 8.0193477309702814 -18.675601574074101 7.6205354736915885 #
point $-1 10.619440169343662 -18.675601574074101 7.6205354736915885 #
point $-1 13.219532607717042 -18.675601574074101 7.6205354736915885 #
straight-curve $-1 -55.285611406715041 0 -10.63716641241991 0 1 0 I I #
straight-curve $-1 -55.285611406715041 -21.705163799142074 -7.7413003587075835 0 0 -1 I I #
point $-1 -55.285611406715041 -21.705163799142074 -10.63716641241991 #
End-of-ACIS-data 