500 0 14 0           
7 Unknown 11 ACIS 5.0 NT 24 Fri Mar 26 18:27:41 1999 
-1 9.9999999999999995e-007 1e-010 
body $-1 $14 $-1 $15 #
body $-1 $16 $-1 $17 #
body $-1 $18 $-1 $19 #
body $-1 $20 $-1 $21 #
body $-1 $22 $-1 $23 #
body $-1 $24 $-1 $25 #
body $-1 $26 $-1 $27 #
body $-1 $28 $-1 $29 #
body $-1 $30 $-1 $31 #
body $-1 $32 $-1 $33 #
body $-1 $34 $-1 $35 #
body $-1 $36 $-1 $37 #
body $-1 $38 $-1 $39 #
body $-1 $40 $-1 $41 #
lump $-1 $-1 $42 $0 #
transform $-1 1 0 0 0 1 0 0 0 1 79.01974547563097 42.569907377362227 15.75087872132524 1 rotate no_reflect no_shear #
lump $-1 $-1 $43 $1 #
transform $-1 1 0 0 0 1 0 0 0 1 79.01974547563097 42.569907377362227 15.75087872132524 1 rotate no_reflect no_shear #
lump $-1 $-1 $44 $2 #
transform $-1 1 0 0 0 1 0 0 0 1 79.01974547563097 42.569907377362227 15.75087872132524 1 rotate no_reflect no_shear #
lump $-1 $-1 $45 $3 #
transform $-1 1 0 0 0 1 0 0 0 1 79.01974547563097 42.569907377362227 15.75087872132524 1 rotate no_reflect no_shear #
lump $-1 $-1 $46 $4 #
transform $-1 1 0 0 0 1 0 0 0 1 79.01974547563097 42.569907377362227 15.75087872132524 1 rotate no_reflect no_shear #
lump $-1 $-1 $47 $5 #
transform $-1 1 0 0 0 1 0 0 0 1 79.01974547563097 42.569907377362227 15.75087872132524 1 rotate no_reflect no_shear #
lump $-1 $-1 $48 $6 #
transform $-1 1 0 0 0 1 0 0 0 1 79.01974547563097 42.569907377362227 15.75087872132524 1 rotate no_reflect no_shear #
lump $-1 $-1 $49 $7 #
transform $-1 1 0 0 0 1 0 0 0 1 79.01974547563097 42.569907377362227 15.75087872132524 1 rotate no_reflect no_shear #
lump $-1 $-1 $50 $8 #
transform $-1 1 0 0 0 1 0 0 0 1 79.01974547563097 42.569907377362227 15.75087872132524 1 rotate no_reflect no_shear #
lump $-1 $-1 $51 $9 #
transform $-1 1 0 0 0 1 0 0 0 1 79.01974547563097 42.569907377362227 15.75087872132524 1 rotate no_reflect no_shear #
lump $-1 $-1 $52 $10 #
transform $-1 1 0 0 0 1 0 0 0 1 79.01974547563097 42.569907377362227 15.75087872132524 1 rotate no_reflect no_shear #
lump $-1 $-1 $53 $11 #
transform $-1 1 0 0 0 1 0 0 0 1 79.01974547563097 42.569907377362227 15.75087872132524 1 rotate no_reflect no_shear #
lump $-1 $-1 $54 $12 #
transform $-1 1 0 0 0 1 0 0 0 1 79.01974547563097 42.569907377362227 15.75087872132524 1 rotate no_reflect no_shear #
lump $-1 $-1 $55 $13 #
transform $-1 1 0 0 0 1 0 0 0 1 79.01974547563097 42.569907377362227 15.75087872132524 1 rotate no_reflect no_shear #
shell $-1 $-1 $-1 $56 $-1 $14 #
shell $-1 $-1 $-1 $57 $-1 $16 #
shell $-1 $-1 $-1 $58 $-1 $18 #
shell $-1 $-1 $-1 $59 $-1 $20 #
shell $-1 $-1 $-1 $60 $-1 $22 #
shell $-1 $-1 $-1 $61 $-1 $24 #
shell $-1 $-1 $-1 $62 $-1 $26 #
shell $-1 $-1 $-1 $63 $-1 $28 #
shell $-1 $-1 $-1 $64 $-1 $30 #
shell $-1 $-1 $-1 $65 $-1 $32 #
shell $-1 $-1 $-1 $66 $-1 $34 #
shell $-1 $-1 $-1 $67 $-1 $36 #
shell $-1 $-1 $-1 $68 $-1 $38 #
shell $-1 $-1 $-1 $69 $-1 $40 #
face $-1 $70 $71 $42 $-1 $72 reversed single #
face $-1 $73 $74 $43 $-1 $75 forward single #
face $-1 $76 $77 $44 $-1 $78 reversed single #
face $-1 $79 $80 $45 $-1 $81 forward single #
face $-1 $82 $83 $46 $-1 $84 forward single #
face $-1 $85 $86 $47 $-1 $87 forward single #
face $-1 $88 $89 $48 $-1 $90 reversed single #
face $-1 $91 $92 $49 $-1 $93 forward single #
face $-1 $94 $95 $50 $-1 $96 forward single #
face $-1 $97 $98 $51 $-1 $99 forward single #
face $-1 $100 $101 $52 $-1 $102 reversed single #
face $-1 $103 $104 $53 $-1 $105 forward single #
face $-1 $106 $107 $54 $-1 $108 forward single #
face $-1 $109 $110 $55 $-1 $111 forward single #
face $-1 $112 $113 $42 $-1 $114 forward single #
loop $-1 $-1 $115 $56 #
plane-surface $-1 -79.01974547563097 0 0 1 0 0 0 0 -1 forward_v I I I I #
face $-1 $116 $117 $43 $-1 $118 reversed single #
loop $-1 $-1 $119 $57 #
plane-surface $-1 -79.01974547563097 0 0 1 0 0 0 0 -1 forward_v I I I I #
face $-1 $120 $121 $44 $-1 $122 reversed single #
loop $-1 $-1 $123 $58 #
plane-surface $-1 -31.883036424949708 -121.58965391165806 144.17655631033034 -1 0 0 0 -0.50000000669873634 0.8660253999169214 forward_v I I I I #
face $-1 $124 $125 $45 $-1 $126 forward single #
loop $-1 $127 $128 $59 #
cone-surface $-1 -47.826401225068707 -34.556806127933221 10.312315791447791 0 0.50000000669873634 -0.8660253999169214 1 0 0 1 I I 0 1 1 forward I I I I #
face $-1 $129 $130 $46 $-1 $131 forward single #
loop $-1 $132 $133 $60 #
cone-surface $-1 -41.847639425024084 -34.556806127933221 10.312315791447791 0 0.50000000669873634 -0.8660253999169214 1 0 0 1 I I 0 1 1 forward I I I I #
face $-1 $134 $135 $47 $-1 $136 forward single #
loop $-1 $137 $138 $61 #
cone-surface $-1 -35.868877624979461 -34.556806127933221 10.312315791447791 0 0.50000000669873634 -0.8660253999169214 1 0 0 1 I I 0 1 1 forward I I I I #
face $-1 $139 $140 $48 $-1 $141 reversed single #
loop $-1 $-1 $142 $62 #
plane-surface $-1 -49.116303442739664 60.360365399333872 179.18866876554242 1 0 0 0 -0.55919291073839883 -0.82903756765294845 forward_v I I I I #
face $-1 $143 $144 $49 $-1 $145 forward single #
loop $-1 $146 $147 $63 #
cone-surface $-1 -43.452662133090918 30.560891225896963 7.0469683615081298 0 -0.55919291073839883 -0.82903756765294845 2 0 0 1 I I 0 1 2 forward I I I I #
face $-1 $148 $149 $50 $-1 $150 forward single #
loop $-1 $151 $152 $64 #
cone-surface $-1 -34.957200168617796 30.560891225896963 7.0469683615081298 0 -0.55919291073839883 -0.82903756765294845 2 0 0 1 I I 0 1 2 forward I I I I #
face $-1 $153 $154 $51 $-1 $155 forward single #
loop $-1 $156 $157 $65 #
cone-surface $-1 -26.461738204144673 30.560891225896963 7.0469683615081298 0 -0.55919291073839883 -0.82903756765294845 2 0 0 1 I I 0 1 2 forward I I I I #
face $-1 $158 $159 $52 $-1 $160 reversed single #
loop $-1 $-1 $161 $66 #
plane-surface $-1 23.272599451271439 60.360365399333872 179.18866876554242 1 0 0 0 -0.55919291073839883 -0.82903756765294845 forward_v I I I I #
face $-1 $162 $163 $53 $-1 $164 forward single #
loop $-1 $165 $166 $67 #
cone-surface $-1 28.936240760920185 30.560891225896963 7.0469683615081298 0 -0.55919291073839883 -0.82903756765294845 2 0 0 1 I I 0 1 2 forward I I I I #
face $-1 $167 $168 $54 $-1 $169 forward single #
loop $-1 $170 $171 $68 #
cone-surface $-1 37.431702725393308 30.560891225896963 7.0469683615081298 0 -0.55919291073839883 -0.82903756765294845 2 0 0 1 I I 0 1 2 forward I I I I #
face $-1 $172 $173 $55 $-1 $174 forward single #
loop $-1 $175 $176 $69 #
cone-surface $-1 45.92716468986643 30.560891225896963 7.0469683615081298 0 -0.55919291073839883 -0.82903756765294845 2 0 0 1 I I 0 1 2 forward I I I I #
face $-1 $177 $178 $42 $-1 $179 reversed single #
loop $-1 $-1 $180 $70 #
plane-surface $-1 0 0 15.75087872132524 0 0 1 1 0 0 forward_v I I I I #
coedge $-1 $181 $182 $183 $184 reversed $71 $-1 #
face $-1 $185 $186 $43 $-1 $187 reversed single #
loop $-1 $-1 $188 $73 #
plane-surface $-1 0 0 -15.75087872132524 0 0 1 1 0 0 forward_v I I I I #
coedge $-1 $189 $190 $191 $192 forward $74 $-1 #
face $-1 $193 $194 $44 $-1 $195 reversed single #
loop $-1 $-1 $196 $76 #
plane-surface $-1 -41.847639425024084 -42.569907377362213 7.3103429565970259 0 -0.50000000669873634 0.8660253999169214 1 0 0 forward_v I I I I #
coedge $-1 $197 $198 $199 $200 reversed $77 $-1 #
face $-1 $-1 $201 $45 $-1 $202 forward single #
loop $-1 $203 $204 $79 #
cone-surface $-1 -47.826401225068707 -33.603423138384883 8.6610080439759649 0 0.50000000669873634 -0.8660253999169214 0.5 0 0 1 I I -0.70710678118654746 0.70710678118654746 0.5 forward I I I I #
loop $-1 $-1 $205 $59 #
coedge $-1 $128 $128 $206 $207 reversed $80 $-1 #
face $-1 $-1 $208 $46 $-1 $209 forward single #
loop $-1 $210 $211 $82 #
cone-surface $-1 -41.847639425024084 -33.603423138384883 8.6610080439759649 0 0.50000000669873634 -0.8660253999169214 0.5 0 0 1 I I -0.70710678118654746 0.70710678118654746 0.5 forward I I I I #
loop $-1 $-1 $212 $60 #
coedge $-1 $133 $133 $213 $214 reversed $83 $-1 #
face $-1 $-1 $215 $47 $-1 $216 forward single #
loop $-1 $217 $218 $85 #
cone-surface $-1 -35.868877624979461 -33.603423138384883 8.6610080439759649 0 0.50000000669873634 -0.8660253999169214 0.5 0 0 1 I I -0.70710678118654746 0.70710678118654746 0.5 forward I I I I #
loop $-1 $-1 $219 $61 #
coedge $-1 $138 $138 $220 $221 reversed $86 $-1 #
face $-1 $222 $223 $48 $-1 $224 reversed single #
loop $-1 $-1 $225 $88 #
plane-surface $-1 -34.957200168617796 -28.014197557317132 48.167993594198066 0 0.55919291073839883 0.82903756765294845 1 0 0 forward_v I I I I #
coedge $-1 $226 $227 $228 $229 reversed $89 $-1 #
face $-1 $-1 $230 $49 $-1 $231 forward single #
loop $-1 $232 $233 $91 #
cone-surface $-1 -43.452662133090918 29.254560474278193 5.110253413812881 0 -0.55919291073839883 -0.82903756765294845 1 0 0 1 I I -0.70710678118654746 0.70710678118654746 1 forward I I I I #
loop $-1 $-1 $234 $63 #
coedge $-1 $147 $147 $235 $236 reversed $92 $-1 #
face $-1 $-1 $237 $50 $-1 $238 forward single #
loop $-1 $239 $240 $94 #
cone-surface $-1 -34.957200168617796 29.254560474278193 5.110253413812881 0 -0.55919291073839883 -0.82903756765294845 1 0 0 1 I I -0.70710678118654746 0.70710678118654746 1 forward I I I I #
loop $-1 $-1 $241 $64 #
coedge $-1 $152 $152 $242 $243 reversed $95 $-1 #
face $-1 $-1 $244 $51 $-1 $245 forward single #
loop $-1 $246 $247 $97 #
cone-surface $-1 -26.461738204144673 29.254560474278193 5.110253413812881 0 -0.55919291073839883 -0.82903756765294845 1 0 0 1 I I -0.70710678118654746 0.70710678118654746 1 forward I I I I #
loop $-1 $-1 $248 $65 #
coedge $-1 $157 $157 $249 $250 reversed $98 $-1 #
face $-1 $251 $252 $52 $-1 $253 reversed single #
loop $-1 $-1 $254 $100 #
plane-surface $-1 37.431702725393308 -28.014197557317132 48.167993594198066 0 0.55919291073839883 0.82903756765294845 1 0 0 forward_v I I I I #
coedge $-1 $255 $256 $257 $258 reversed $101 $-1 #
face $-1 $-1 $259 $53 $-1 $260 forward single #
loop $-1 $261 $262 $103 #
cone-surface $-1 28.936240760920185 29.254560474278193 5.110253413812881 0 -0.55919291073839883 -0.82903756765294845 1 0 0 1 I I -0.70710678118654746 0.70710678118654746 1 forward I I I I #
loop $-1 $-1 $263 $67 #
coedge $-1 $166 $166 $264 $265 reversed $104 $-1 #
face $-1 $-1 $266 $54 $-1 $267 forward single #
loop $-1 $268 $269 $106 #
cone-surface $-1 37.431702725393308 29.254560474278193 5.110253413812881 0 -0.55919291073839883 -0.82903756765294845 1 0 0 1 I I -0.70710678118654746 0.70710678118654746 1 forward I I I I #
loop $-1 $-1 $270 $68 #
coedge $-1 $171 $171 $271 $272 reversed $107 $-1 #
face $-1 $-1 $273 $55 $-1 $274 forward single #
loop $-1 $275 $276 $109 #
cone-surface $-1 45.92716468986643 29.254560474278193 5.110253413812881 0 -0.55919291073839883 -0.82903756765294845 1 0 0 1 I I -0.70710678118654746 0.70710678118654746 1 forward I I I I #
loop $-1 $-1 $277 $69 #
coedge $-1 $176 $176 $278 $279 reversed $110 $-1 #
face $-1 $280 $281 $42 $-1 $282 reversed single #
loop $-1 $-1 $283 $112 #
plane-surface $-1 0 0 -15.75087872132524 0 0 1 1 0 0 forward_v I I I I #
coedge $-1 $284 $285 $286 $287 forward $113 $-1 #
coedge $-1 $288 $115 $289 $290 reversed $71 $-1 #
coedge $-1 $115 $288 $291 $292 forward $71 $-1 #
coedge $-1 $293 $294 $115 $184 forward $178 $-1 #
edge $-1 $295 -42.569907377362227 $296 42.569907377362227 $115 $297 forward 7 unknown #
face $-1 $298 $299 $43 $-1 $300 reversed single #
loop $-1 $-1 $301 $116 #
plane-surface $-1 -85.650588057250843 -14.658833057138438 0 0 1 0 0 0 1 forward_v I I I I #
coedge $-1 $302 $303 $190 $304 forward $117 $-1 #
coedge $-1 $305 $119 $306 $307 reversed $74 $-1 #
coedge $-1 $119 $305 $188 $304 reversed $74 $-1 #
coedge $-1 $308 $309 $119 $192 reversed $310 $-1 #
edge $-1 $311 -15.75087872132524 $312 15.75087872132524 $191 $313 forward 7 unknown #
face $-1 $314 $315 $44 $-1 $316 forward single #
loop $-1 $-1 $317 $120 #
plane-surface $-1 -51.812242425098461 -121.58965391165806 144.17655631033034 1 0 0 0 0.50000000669873634 -0.8660253999169214 forward_v I I I I #
coedge $-1 $318 $319 $320 $321 reversed $121 $-1 #
coedge $-1 $198 $123 $322 $323 reversed $77 $-1 #
coedge $-1 $123 $197 $318 $324 reversed $77 $-1 #
coedge $-1 $320 $325 $123 $200 forward $315 $-1 #
edge $-1 $326 18.224919578466803 $327 32.844356104926973 $199 $328 forward 7 unknown #
loop $-1 $-1 $206 $124 #
plane-surface $-1 -41.847639425024084 -42.569907377362213 7.3103429565970259 0 -0.50000000669873634 0.8660253999169214 1 0 0 forward_v I I I I #
loop $-1 $-1 $329 $79 #
coedge $-1 $204 $204 $205 $330 reversed $125 $-1 #
coedge $-1 $205 $205 $204 $330 forward $127 $-1 #
coedge $-1 $206 $206 $128 $207 forward $201 $-1 #
edge $-1 $331 1.9676622199467145e-015 $331 6.2831853071796022 $206 $332 forward 7 unknown #
loop $-1 $-1 $213 $129 #
plane-surface $-1 -41.847639425024084 -42.569907377362213 7.3103429565970259 0 -0.50000000669873634 0.8660253999169214 1 0 0 forward_v I I I I #
loop $-1 $-1 $333 $82 #
coedge $-1 $211 $211 $212 $334 reversed $130 $-1 #
coedge $-1 $212 $212 $211 $334 forward $132 $-1 #
coedge $-1 $213 $213 $133 $214 forward $208 $-1 #
edge $-1 $335 1.9676622199467145e-015 $335 6.2831853071796022 $213 $336 forward 7 unknown #
loop $-1 $-1 $220 $134 #
plane-surface $-1 -41.847639425024084 -42.569907377362213 7.3103429565970259 0 -0.50000000669873634 0.8660253999169214 1 0 0 forward_v I I I I #
loop $-1 $-1 $337 $85 #
coedge $-1 $218 $218 $219 $338 reversed $135 $-1 #
coedge $-1 $219 $219 $218 $338 forward $137 $-1 #
coedge $-1 $220 $220 $138 $221 forward $215 $-1 #
edge $-1 $339 1.9676622199467145e-015 $339 6.2831853071796022 $220 $340 forward 7 unknown #
face $-1 $341 $342 $48 $-1 $343 reversed single #
loop $-1 $-1 $344 $139 #
plane-surface $-1 -20.798096894495927 60.360365399333872 179.18866876554242 -1 0 0 0 0.55919291073839883 0.82903756765294845 forward_v I I I I #
coedge $-1 $345 $346 $347 $348 reversed $140 $-1 #
coedge $-1 $227 $142 $349 $350 reversed $89 $-1 #
coedge $-1 $142 $226 $345 $351 reversed $89 $-1 #
coedge $-1 $347 $352 $142 $229 forward $353 $-1 #
edge $-1 $354 -12.389724677695291 $355 10.134031943474504 $228 $356 forward 7 unknown #
loop $-1 $-1 $235 $143 #
plane-surface $-1 -34.957200168617796 -28.014197557317132 48.167993594198066 0 0.55919291073839883 0.82903756765294845 1 0 0 forward_v I I I I #
loop $-1 $-1 $357 $91 #
coedge $-1 $233 $233 $234 $358 reversed $144 $-1 #
coedge $-1 $234 $234 $233 $358 forward $146 $-1 #
coedge $-1 $235 $235 $147 $236 forward $230 $-1 #
edge $-1 $359 -9.9332615153428852e-016 $359 6.2831853071795996 $235 $360 forward 7 unknown #
loop $-1 $-1 $242 $148 #
plane-surface $-1 -34.957200168617796 -28.014197557317132 48.167993594198066 0 0.55919291073839883 0.82903756765294845 1 0 0 forward_v I I I I #
loop $-1 $-1 $361 $94 #
coedge $-1 $240 $240 $241 $362 reversed $149 $-1 #
coedge $-1 $241 $241 $240 $362 forward $151 $-1 #
coedge $-1 $242 $242 $152 $243 forward $237 $-1 #
edge $-1 $363 -9.9332615153428852e-016 $363 6.2831853071795996 $242 $364 forward 7 unknown #
loop $-1 $-1 $249 $153 #
plane-surface $-1 -34.957200168617796 -28.014197557317132 48.167993594198066 0 0.55919291073839883 0.82903756765294845 1 0 0 forward_v I I I I #
loop $-1 $-1 $365 $97 #
coedge $-1 $247 $247 $248 $366 reversed $154 $-1 #
coedge $-1 $248 $248 $247 $366 forward $156 $-1 #
coedge $-1 $249 $249 $157 $250 forward $244 $-1 #
edge $-1 $367 -9.9332615153428852e-016 $367 6.2831853071795996 $249 $368 forward 7 unknown #
face $-1 $369 $370 $52 $-1 $371 forward single #
loop $-1 $-1 $372 $158 #
plane-surface $-1 51.590805999515176 60.360365399333872 179.18866876554242 -1 0 0 0 0.55919291073839883 0.82903756765294845 forward_v I I I I #
coedge $-1 $373 $374 $375 $376 reversed $159 $-1 #
coedge $-1 $256 $161 $377 $378 reversed $101 $-1 #
coedge $-1 $161 $255 $373 $379 reversed $101 $-1 #
coedge $-1 $375 $380 $161 $258 forward $370 $-1 #
edge $-1 $381 -12.389724677695291 $382 10.134031943474504 $257 $383 forward 7 unknown #
loop $-1 $-1 $264 $162 #
plane-surface $-1 37.431702725393308 -28.014197557317132 48.167993594198066 0 0.55919291073839883 0.82903756765294845 1 0 0 forward_v I I I I #
loop $-1 $-1 $384 $103 #
coedge $-1 $262 $262 $263 $385 reversed $163 $-1 #
coedge $-1 $263 $263 $262 $385 forward $165 $-1 #
coedge $-1 $264 $264 $166 $265 forward $259 $-1 #
edge $-1 $386 -9.9332615153428852e-016 $386 6.2831853071795996 $264 $387 forward 7 unknown #
loop $-1 $-1 $271 $167 #
plane-surface $-1 37.431702725393308 -28.014197557317132 48.167993594198066 0 0.55919291073839883 0.82903756765294845 1 0 0 forward_v I I I I #
loop $-1 $-1 $388 $106 #
coedge $-1 $269 $269 $270 $389 reversed $168 $-1 #
coedge $-1 $270 $270 $269 $389 forward $170 $-1 #
coedge $-1 $271 $271 $171 $272 forward $266 $-1 #
edge $-1 $390 -9.9332615153428852e-016 $390 6.2831853071795996 $271 $391 forward 7 unknown #
loop $-1 $-1 $278 $172 #
plane-surface $-1 37.431702725393308 -28.014197557317132 48.167993594198066 0 0.55919291073839883 0.82903756765294845 1 0 0 forward_v I I I I #
loop $-1 $-1 $392 $109 #
coedge $-1 $276 $276 $277 $393 reversed $173 $-1 #
coedge $-1 $277 $277 $276 $393 forward $175 $-1 #
coedge $-1 $278 $278 $176 $279 forward $273 $-1 #
edge $-1 $394 -9.9332615153428852e-016 $394 6.2831853071795996 $278 $395 forward 7 unknown #
face $-1 $396 $397 $42 $-1 $398 reversed single #
loop $-1 $-1 $289 $177 #
plane-surface $-1 0 -42.569907377362227 0 0 1 0 0 0 1 forward_v I I I I #
coedge $-1 $294 $293 $399 $400 forward $178 $-1 #
coedge $-1 $401 $180 $402 $403 forward $113 $-1 #
coedge $-1 $180 $401 $404 $405 forward $113 $-1 #
coedge $-1 $406 $407 $180 $287 reversed $408 $-1 #
edge $-1 $409 -42.569907377362227 $410 42.569907377362227 $286 $411 forward 7 unknown #
coedge $-1 $182 $181 $401 $412 reversed $71 $-1 #
coedge $-1 $413 $404 $181 $290 forward $281 $-1 #
edge $-1 $414 -15.75087872132524 $295 15.75087872132524 $181 $415 forward 7 unknown #
coedge $-1 $402 $416 $182 $292 reversed $397 $-1 #
edge $-1 $417 -15.75087872132524 $296 15.75087872132524 $291 $418 forward 7 unknown #
coedge $-1 $283 $183 $416 $419 forward $178 $-1 #
coedge $-1 $183 $283 $413 $420 forward $178 $-1 #
vertex $-1 $184 $421 #
vertex $-1 $419 $422 #
straight-curve $-1 -79.01974547563097 0 -15.75087872132524 0 1 0 I I #
face $-1 $423 $310 $43 $-1 $424 reversed single #
loop $-1 $-1 $425 $185 #
plane-surface $-1 -92.281430638870717 -12.863491495925093 0 1 0 0 0 0 -1 forward_v I I I I #
coedge $-1 $426 $427 $428 $429 forward $186 $-1 #
coedge $-1 $430 $188 $426 $431 forward $117 $-1 #
coedge $-1 $188 $430 $308 $432 forward $117 $-1 #
edge $-1 $311 11.068149934711748 $433 14.658833057138438 $188 $434 forward 7 unknown #
coedge $-1 $190 $189 $435 $436 forward $74 $-1 #
coedge $-1 $437 $438 $189 $307 forward $439 $-1 #
edge $-1 $440 -14.658833057138438 $312 -11.068149934711748 $306 $441 forward 7 unknown #
coedge $-1 $442 $191 $303 $432 reversed $310 $-1 #
coedge $-1 $191 $442 $437 $443 reversed $310 $-1 #
loop $-1 $-1 $191 $298 #
vertex $-1 $304 $444 #
vertex $-1 $443 $445 #
straight-curve $-1 -79.01974547563097 -11.068149934711748 0 0 0 1 I I #
face $-1 $-1 $446 $44 $-1 $447 reversed single #
loop $-1 $-1 $199 $193 #
plane-surface $-1 0 0 15.75087872132524 0 0 1 1 0 0 forward_v I I I I #
coedge $-1 $448 $449 $450 $451 reversed $194 $-1 #
coedge $-1 $452 $196 $198 $324 forward $121 $-1 #
coedge $-1 $196 $452 $448 $453 forward $121 $-1 #
coedge $-1 $450 $199 $196 $321 forward $315 $-1 #
edge $-1 $327 10.959216712437666 $454 30.888422712586419 $320 $455 forward 7 unknown #
coedge $-1 $456 $457 $197 $323 forward $446 $-1 #
edge $-1 $458 -64.777935198568159 $326 -56.337399433839934 $322 $459 forward 7 unknown #
edge $-1 $327 -16.881071303292735 $458 1.6303764080091705e-014 $198 $460 forward 7 unknown #
coedge $-1 $199 $450 $456 $461 forward $315 $-1 #
vertex $-1 $200 $462 #
vertex $-1 $200 $463 #
straight-curve $-1 -31.883036424949708 -60.794826955829031 15.750878721325236 0 1 0 I I #
coedge $-1 $329 $329 $-1 $464 reversed $203 $-1 #
edge $-1 $465 0 $465 6.2831853071796004 $204 $466 forward 7 unknown #
vertex $-1 $207 $467 #
ellipse-curve $-1 -47.826401225068707 -35.260189114132167 11.530610838961115 0 -0.50000000669873634 0.8660253999169214 1 0 0 1 I I #
coedge $-1 $333 $333 $-1 $468 reversed $210 $-1 #
edge $-1 $469 0 $469 6.2831853071796004 $211 $470 forward 7 unknown #
vertex $-1 $214 $471 #
ellipse-curve $-1 -41.847639425024084 -35.260189114132167 11.530610838961115 0 -0.50000000669873634 0.8660253999169214 1 0 0 1 I I #
coedge $-1 $337 $337 $-1 $472 reversed $217 $-1 #
edge $-1 $473 0 $473 6.2831853071796004 $218 $474 forward 7 unknown #
vertex $-1 $221 $475 #
ellipse-curve $-1 -35.868877624979461 -35.260189114132167 11.530610838961115 0 -0.50000000669873634 0.8660253999169214 1 0 0 1 I I #
face $-1 $-1 $353 $48 $-1 $476 forward single #
loop $-1 $-1 $477 $222 #
plane-surface $-1 0 42.569907377362227 0 0 -1 0 0 0 -1 forward_v I I I I #
coedge $-1 $478 $479 $480 $481 reversed $223 $-1 #
coedge $-1 $482 $225 $227 $351 forward $140 $-1 #
coedge $-1 $225 $482 $478 $483 forward $140 $-1 #
coedge $-1 $480 $228 $225 $348 forward $353 $-1 #
edge $-1 $355 -31.637703358430766 $484 -3.3194968101870295 $347 $485 forward 7 unknown #
coedge $-1 $486 $487 $226 $350 forward $342 $-1 #
edge $-1 $488 -89.03592162099558 $354 -73.843455661445972 $349 $489 forward 7 unknown #
edge $-1 $355 57.971255089888245 $488 85.139814754724426 $227 $490 forward 7 unknown #
coedge $-1 $228 $480 $486 $491 forward $353 $-1 #
loop $-1 $-1 $480 $341 #
vertex $-1 $350 $492 #
vertex $-1 $229 $493 #
straight-curve $-1 -49.116303442739664 30.180182699666936 15.750878721325236 0 -1 0 I I #
coedge $-1 $357 $357 $-1 $494 reversed $232 $-1 #
edge $-1 $495 0 $495 6.2831853071796004 $233 $496 forward 7 unknown #
vertex $-1 $236 $497 #
ellipse-curve $-1 -43.452662133090918 31.308029066777333 8.1546457415504285 0 0.55919291073839883 0.82903756765294845 2 0 0 1 I I #
coedge $-1 $361 $361 $-1 $498 reversed $239 $-1 #
edge $-1 $499 0 $499 6.2831853071796004 $240 $500 forward 7 unknown #
vertex $-1 $243 $501 #
ellipse-curve $-1 -34.957200168617796 31.308029066777333 8.1546457415504285 0 0.55919291073839883 0.82903756765294845 2 0 0 1 I I #
coedge $-1 $365 $365 $-1 $502 reversed $246 $-1 #
edge $-1 $503 0 $503 6.2831853071796004 $247 $504 forward 7 unknown #
vertex $-1 $250 $505 #
ellipse-curve $-1 -26.461738204144673 31.308029066777333 8.1546457415504285 0 0.55919291073839883 0.82903756765294845 2 0 0 1 I I #
face $-1 $-1 $506 $52 $-1 $507 reversed single #
loop $-1 $-1 $257 $251 #
plane-surface $-1 0 0 15.75087872132524 0 0 1 1 0 0 forward_v I I I I #
coedge $-1 $508 $509 $510 $511 reversed $252 $-1 #
coedge $-1 $512 $254 $256 $379 forward $159 $-1 #
coedge $-1 $254 $512 $508 $513 forward $159 $-1 #
coedge $-1 $510 $257 $254 $376 forward $370 $-1 #
edge $-1 $382 4.5567480885747855 $514 32.874954636818522 $375 $515 forward 7 unknown #
coedge $-1 $516 $517 $255 $378 forward $506 $-1 #
edge $-1 $518 -89.03592162099558 $381 -73.843455661445972 $377 $519 forward 7 unknown #
edge $-1 $382 57.971255089888245 $518 85.139814754724426 $256 $520 forward 7 unknown #
coedge $-1 $257 $510 $516 $521 forward $370 $-1 #
vertex $-1 $258 $522 #
vertex $-1 $258 $523 #
straight-curve $-1 23.272599451271439 30.180182699666936 15.750878721325236 0 -1 0 I I #
coedge $-1 $384 $384 $-1 $524 reversed $261 $-1 #
edge $-1 $525 0 $525 6.2831853071796004 $262 $526 forward 7 unknown #
vertex $-1 $265 $527 #
ellipse-curve $-1 28.936240760920185 31.308029066777333 8.1546457415504285 0 0.55919291073839883 0.82903756765294845 2 0 0 1 I I #
coedge $-1 $388 $388 $-1 $528 reversed $268 $-1 #
edge $-1 $529 0 $529 6.2831853071796004 $269 $530 forward 7 unknown #
vertex $-1 $272 $531 #
ellipse-curve $-1 37.431702725393308 31.308029066777333 8.1546457415504285 0 0.55919291073839883 0.82903756765294845 2 0 0 1 I I #
coedge $-1 $392 $392 $-1 $532 reversed $275 $-1 #
edge $-1 $533 0 $533 6.2831853071796004 $276 $534 forward 7 unknown #
vertex $-1 $279 $535 #
ellipse-curve $-1 45.92716468986643 31.308029066777333 8.1546457415504285 0 0.55919291073839883 0.82903756765294845 2 0 0 1 I I #
face $-1 $-1 $408 $42 $-1 $536 reversed single #
loop $-1 $-1 $537 $280 #
plane-surface $-1 0 42.569907377362227 0 0 -1 0 0 0 -1 forward_v I I I I #
coedge $-1 $407 $406 $283 $400 reversed $408 $-1 #
edge $-1 $538 -42.569907377362227 $539 42.569907377362227 $399 $540 forward 7 unknown #
coedge $-1 $285 $284 $288 $412 forward $113 $-1 #
coedge $-1 $537 $291 $284 $403 reversed $397 $-1 #
edge $-1 $410 -79.01974547563097 $417 79.01974547563097 $402 $541 forward 7 unknown #
coedge $-1 $289 $542 $285 $405 reversed $281 $-1 #
edge $-1 $414 -79.01974547563097 $409 79.01974547563097 $404 $543 forward 7 unknown #
coedge $-1 $399 $286 $542 $544 forward $408 $-1 #
coedge $-1 $286 $399 $537 $545 reversed $408 $-1 #
loop $-1 $-1 $406 $396 #
vertex $-1 $287 $546 #
vertex $-1 $287 $547 #
straight-curve $-1 79.01974547563097 0 15.75087872132524 0 1 0 I I #
edge $-1 $417 -42.569907377362227 $414 42.569907377362227 $288 $548 forward 7 unknown #
coedge $-1 $542 $289 $294 $420 reversed $281 $-1 #
vertex $-1 $412 $549 #
straight-curve $-1 -79.01974547563097 -42.569907377362227 0 0 0 -1 I I #
coedge $-1 $291 $537 $293 $419 reversed $397 $-1 #
vertex $-1 $403 $550 #
straight-curve $-1 -79.01974547563097 42.569907377362227 0 0 0 -1 I I #
edge $-1 $296 -79.01974547563097 $538 79.01974547563097 $416 $551 forward 7 unknown #
edge $-1 $539 -79.01974547563097 $295 79.01974547563097 $413 $552 forward 7 unknown #
point $-1 -79.01974547563097 -42.569907377362227 -15.75087872132524 #
point $-1 -79.01974547563097 42.569907377362227 -15.75087872132524 #
face $-1 $-1 $439 $43 $-1 $553 forward single #
plane-surface $-1 -85.650588057250843 -11.068149934711748 0 0 -1 0 0 0 -1 forward_v I I I I #
coedge $-1 $554 $555 $442 $556 forward $299 $-1 #
coedge $-1 $435 $301 $302 $431 reversed $186 $-1 #
coedge $-1 $301 $435 $438 $557 reversed $186 $-1 #
coedge $-1 $555 $554 $301 $429 reversed $299 $-1 #
edge $-1 $558 -15.75087872132524 $559 15.75087872132524 $428 $560 forward 7 unknown #
coedge $-1 $303 $302 $554 $561 forward $117 $-1 #
edge $-1 $433 -6.6308425816198735 $559 6.6308425816198735 $426 $562 forward 7 unknown #
edge $-1 $563 -6.6308425816198735 $311 6.6308425816198735 $308 $564 forward 7 unknown #
vertex $-1 $431 $565 #
straight-curve $-1 -79.01974547563097 0 -15.75087872132524 0 -1 0 I I #
coedge $-1 $427 $426 $305 $436 reversed $186 $-1 #
edge $-1 $440 -15.75087872132524 $433 15.75087872132524 $435 $566 forward 7 unknown #
coedge $-1 $567 $306 $309 $443 forward $439 $-1 #
coedge $-1 $306 $567 $427 $557 forward $439 $-1 #
loop $-1 $-1 $306 $423 #
vertex $-1 $307 $568 #
straight-curve $-1 -79.01974547563097 0 15.75087872132524 0 1 0 I I #
coedge $-1 $309 $308 $425 $556 reversed $310 $-1 #
edge $-1 $312 -6.6308425816198735 $569 6.6308425816198735 $309 $570 forward 7 unknown #
point $-1 -79.01974547563097 -11.068149934711748 -15.75087872132524 #
point $-1 -79.01974547563097 -11.068149934711748 15.75087872132524 #
loop $-1 $-1 $322 $314 #
plane-surface $-1 0 -42.569907377362227 0 0 1 0 0 0 1 forward_v I I I I #
coedge $-1 $449 $317 $319 $453 reversed $194 $-1 #
coedge $-1 $317 $448 $571 $572 reversed $194 $-1 #
coedge $-1 $325 $320 $317 $451 forward $315 $-1 #
edge $-1 $454 -32.844356104926973 $573 -18.224919578466803 $450 $574 forward 7 unknown #
coedge $-1 $319 $318 $457 $575 reversed $121 $-1 #
edge $-1 $576 -1.6303764080091705e-014 $454 16.881071303292735 $448 $577 forward 7 unknown #
vertex $-1 $321 $578 #
straight-curve $-1 -20.923819712512042 -27.950470850902057 15.75087872132524 -1 0 0 I I #
coedge $-1 $571 $322 $325 $461 reversed $446 $-1 #
coedge $-1 $322 $571 $452 $575 forward $446 $-1 #
vertex $-1 $323 $579 #
straight-curve $-1 -31.883036424949708 -42.569907377362227 72.08827815516517 0 0 1 I I #
straight-curve $-1 -31.883036424949708 -42.569907377362213 7.3103429565970259 0 -0.8660253999169214 -0.50000000669873634 I I #
edge $-1 $573 -51.812242425098461 $326 -31.883036424949708 $456 $580 forward 7 unknown #
point $-1 -31.883036424949708 -42.569907377362227 15.75087872132524 #
point $-1 -31.883036424949708 -27.950470850902057 15.75087872132524 #
edge $-1 $581 1 $581 0 $329 $-1 forward 7 unknown #
vertex $-1 $330 $582 #
ellipse-curve $-1 -47.826401225068707 -33.853423141734254 9.0940207439344256 0 -0.50000000669873634 0.8660253999169214 1 0 0 1 I I #
point $-1 -46.826401225068707 -35.260189114132189 11.530610838961156 #
edge $-1 $583 1 $583 0 $333 $-1 forward 7 unknown #
vertex $-1 $334 $584 #
ellipse-curve $-1 -41.847639425024084 -33.853423141734254 9.0940207439344256 0 -0.50000000669873634 0.8660253999169214 1 0 0 1 I I #
point $-1 -40.847639425024084 -35.260189114132189 11.530610838961156 #
edge $-1 $585 1 $585 0 $337 $-1 forward 7 unknown #
vertex $-1 $338 $586 #
ellipse-curve $-1 -35.868877624979461 -33.853423141734254 9.0940207439344256 0 -0.50000000669873634 0.8660253999169214 1 0 0 1 I I #
point $-1 -34.868877624979461 -35.260189114132189 11.530610838961156 #
plane-surface $-1 0 0 15.75087872132524 0 0 1 1 0 0 forward_v I I I I #
coedge $-1 $487 $486 $479 $587 forward $342 $-1 #
coedge $-1 $479 $344 $346 $483 reversed $223 $-1 #
coedge $-1 $344 $478 $477 $587 reversed $223 $-1 #
coedge $-1 $352 $347 $344 $481 forward $353 $-1 #
edge $-1 $484 -10.134031943474504 $588 12.389724677695291 $480 $589 forward 7 unknown #
coedge $-1 $346 $345 $487 $590 reversed $140 $-1 #
edge $-1 $591 -85.139814754724426 $484 -57.971255089888245 $478 $592 forward 7 unknown #
vertex $-1 $348 $593 #
straight-curve $-1 -17.478600084308898 20.046150756192425 15.750878721325236 1 0 0 I I #
coedge $-1 $477 $349 $352 $491 reversed $342 $-1 #
coedge $-1 $349 $477 $482 $590 forward $342 $-1 #
vertex $-1 $350 $594 #
straight-curve $-1 -49.116303442739664 42.569907377362227 89.594334382771208 0 0 1 I I #
straight-curve $-1 -49.116303442739664 -28.014197557317132 48.167993594198066 0 0.82903756765294845 -0.55919291073839883 I I #
edge $-1 $588 20.798096894495927 $354 49.116303442739664 $486 $595 forward 7 unknown #
point $-1 -49.116303442739664 42.569907377362227 15.75087872132524 #
point $-1 -49.116303442739664 20.046150756192432 15.750878721325236 #
edge $-1 $596 1 $596 0 $357 $-1 forward 7 unknown #
vertex $-1 $358 $597 #
ellipse-curve $-1 -43.452662133090918 29.813753385016593 5.9392909814658292 0 0.55919291073839883 0.82903756765294845 2 0 0 1 I I #
point $-1 -41.452662133090918 31.308029066777333 8.1546457415504321 #
edge $-1 $598 1 $598 0 $361 $-1 forward 7 unknown #
vertex $-1 $362 $599 #
ellipse-curve $-1 -34.957200168617796 29.813753385016593 5.9392909814658292 0 0.55919291073839883 0.82903756765294845 2 0 0 1 I I #
point $-1 -32.957200168617796 31.308029066777333 8.1546457415504321 #
edge $-1 $600 1 $600 0 $365 $-1 forward 7 unknown #
vertex $-1 $366 $601 #
ellipse-curve $-1 -26.461738204144673 29.813753385016593 5.9392909814658292 0 0.55919291073839883 0.82903756765294845 2 0 0 1 I I #
point $-1 -24.461738204144673 31.308029066777333 8.1546457415504321 #
loop $-1 $-1 $377 $369 #
plane-surface $-1 0 42.569907377362227 0 0 -1 0 0 0 -1 forward_v I I I I #
coedge $-1 $509 $372 $374 $513 reversed $252 $-1 #
coedge $-1 $372 $508 $602 $603 reversed $252 $-1 #
coedge $-1 $380 $375 $372 $511 forward $370 $-1 #
edge $-1 $514 -10.134031943474504 $604 12.389724677695291 $510 $605 forward 7 unknown #
coedge $-1 $374 $373 $517 $606 reversed $159 $-1 #
edge $-1 $607 -85.139814754724426 $514 -57.971255089888245 $508 $608 forward 7 unknown #
vertex $-1 $376 $609 #
straight-curve $-1 18.715851362696654 20.046150756192425 15.750878721325236 1 0 0 I I #
coedge $-1 $602 $377 $380 $521 reversed $506 $-1 #
coedge $-1 $377 $602 $512 $606 forward $506 $-1 #
vertex $-1 $378 $610 #
straight-curve $-1 23.272599451271439 42.569907377362227 89.594334382771208 0 0 1 I I #
straight-curve $-1 23.272599451271439 -28.014197557317132 48.167993594198066 0 0.82903756765294845 -0.55919291073839883 I I #
edge $-1 $604 -51.590805999515176 $381 -23.272599451271439 $516 $611 forward 7 unknown #
point $-1 23.272599451271439 42.569907377362227 15.75087872132524 #
point $-1 23.272599451271439 20.046150756192432 15.750878721325236 #
edge $-1 $612 1 $612 0 $384 $-1 forward 7 unknown #
vertex $-1 $385 $613 #
ellipse-curve $-1 28.936240760920185 29.813753385016593 5.9392909814658292 0 0.55919291073839883 0.82903756765294845 2 0 0 1 I I #
point $-1 30.936240760920185 31.308029066777333 8.1546457415504321 #
edge $-1 $614 1 $614 0 $388 $-1 forward 7 unknown #
vertex $-1 $389 $615 #
ellipse-curve $-1 37.431702725393308 29.813753385016593 5.9392909814658292 0 0.55919291073839883 0.82903756765294845 2 0 0 1 I I #
point $-1 39.431702725393308 31.308029066777333 8.1546457415504321 #
edge $-1 $616 1 $616 0 $392 $-1 forward 7 unknown #
vertex $-1 $393 $617 #
ellipse-curve $-1 45.92716468986643 29.813753385016593 5.9392909814658292 0 0.55919291073839883 0.82903756765294845 2 0 0 1 I I #
point $-1 47.92716468986643 31.308029066777333 8.1546457415504321 #
plane-surface $-1 79.01974547563097 0 0 -1 0 0 0 0 1 forward_v I I I I #
coedge $-1 $416 $402 $407 $545 forward $397 $-1 #
vertex $-1 $400 $618 #
vertex $-1 $544 $619 #
straight-curve $-1 79.01974547563097 0 -15.75087872132524 0 -1 0 I I #
straight-curve $-1 0 42.569907377362227 15.75087872132524 -1 0 0 I I #
coedge $-1 $404 $413 $406 $544 reversed $281 $-1 #
straight-curve $-1 0 -42.569907377362227 15.75087872132524 1 0 0 I I #
edge $-1 $409 -15.75087872132524 $539 15.75087872132524 $406 $620 forward 7 unknown #
edge $-1 $410 -15.75087872132524 $538 15.75087872132524 $407 $621 forward 7 unknown #
point $-1 79.01974547563097 -42.569907377362227 15.75087872132524 #
point $-1 79.01974547563097 42.569907377362227 15.75087872132524 #
straight-curve $-1 -79.01974547563097 0 15.75087872132524 0 -1 0 I I #
point $-1 -79.01974547563097 -42.569907377362227 15.75087872132524 #
point $-1 -79.01974547563097 42.569907377362227 15.75087872132524 #
straight-curve $-1 0 42.569907377362227 -15.75087872132524 1 0 0 I I #
straight-curve $-1 0 -42.569907377362227 -15.75087872132524 -1 0 0 I I #
plane-surface $-1 0 0 15.75087872132524 0 0 1 1 0 0 forward_v I I I I #
coedge $-1 $428 $425 $430 $561 reversed $299 $-1 #
coedge $-1 $425 $428 $567 $622 reversed $299 $-1 #
edge $-1 $569 -15.75087872132524 $563 15.75087872132524 $442 $623 forward 7 unknown #
edge $-1 $558 -6.6308425816198735 $440 6.6308425816198735 $427 $624 forward 7 unknown #
vertex $-1 $622 $625 #
vertex $-1 $561 $626 #
straight-curve $-1 -92.281430638870717 -14.658833057138438 0 0 0 -1 I I #
edge $-1 $559 -1.7953415612133448 $563 1.7953415612133448 $554 $627 forward 7 unknown #
straight-curve $-1 -85.650588057250843 -14.658833057138438 -15.75087872132524 -1 0 0 I I #
vertex $-1 $432 $628 #
straight-curve $-1 -85.650588057250843 -11.068149934711748 -15.75087872132524 1 0 0 I I #
point $-1 -79.01974547563097 -14.658833057138438 -15.75087872132524 #
straight-curve $-1 -79.01974547563097 -14.658833057138438 0 0 0 -1 I I #
coedge $-1 $438 $437 $555 $622 forward $439 $-1 #
point $-1 -79.01974547563097 -14.658833057138438 15.75087872132524 #
vertex $-1 $443 $629 #
straight-curve $-1 -85.650588057250843 -11.068149934711748 15.75087872132524 -1 0 0 I I #
coedge $-1 $457 $456 $449 $572 forward $446 $-1 #
edge $-1 $573 56.337399433839934 $576 64.777935198568159 $571 $630 forward 7 unknown #
vertex $-1 $461 $631 #
straight-curve $-1 -51.812242425098461 -60.794826955829031 15.750878721325236 0 -1 0 I I #
edge $-1 $576 -30.888422712586419 $458 -10.959216712437666 $457 $632 forward 7 unknown #
vertex $-1 $575 $633 #
straight-curve $-1 -51.812242425098461 -42.569907377362213 7.3103429565970259 0 0.8660253999169214 0.50000000669873634 I I #
point $-1 -51.812242425098461 -27.950470850902057 15.75087872132524 #
point $-1 -31.883036424949708 -42.569907377362227 7.3103429565970179 #
straight-curve $-1 0 -42.569907377362227 15.75087872132524 1 0 0 I I #
vertex $-1 $464 $634 #
point $-1 -46.826401225068707 -33.853423141734254 9.0940207439344256 #
vertex $-1 $468 $635 #
point $-1 -40.847639425024084 -33.853423141734254 9.0940207439344256 #
vertex $-1 $472 $636 #
point $-1 -34.868877624979461 -33.853423141734254 9.0940207439344256 #
edge $-1 $588 73.843455661445972 $591 89.03592162099558 $477 $637 forward 7 unknown #
vertex $-1 $491 $638 #
straight-curve $-1 -20.798096894495927 30.180182699666936 15.750878721325236 0 1 0 I I #
edge $-1 $591 3.3194968101870295 $488 31.637703358430766 $487 $639 forward 7 unknown #
vertex $-1 $590 $640 #
straight-curve $-1 -20.798096894495927 -28.014197557317132 48.167993594198066 0 -0.82903756765294845 0.55919291073839883 I I #
point $-1 -20.798096894495927 20.046150756192432 15.750878721325236 #
point $-1 -49.116303442739664 42.569907377362227 0.55841276177562804 #
straight-curve $-1 0 42.569907377362227 15.75087872132524 -1 0 0 I I #
vertex $-1 $494 $641 #
point $-1 -41.452662133090918 29.813753385016593 5.9392909814658292 #
vertex $-1 $498 $642 #
point $-1 -32.957200168617796 29.813753385016593 5.9392909814658292 #
vertex $-1 $502 $643 #
point $-1 -24.461738204144673 29.813753385016593 5.9392909814658292 #
coedge $-1 $517 $516 $509 $603 forward $506 $-1 #
edge $-1 $604 73.843455661445972 $607 89.03592162099558 $602 $644 forward 7 unknown #
vertex $-1 $521 $645 #
straight-curve $-1 51.590805999515176 30.180182699666936 15.750878721325236 0 1 0 I I #
edge $-1 $607 -32.874954636818522 $518 -4.5567480885747855 $517 $646 forward 7 unknown #
vertex $-1 $606 $647 #
straight-curve $-1 51.590805999515176 -28.014197557317132 48.167993594198066 0 -0.82903756765294845 0.55919291073839883 I I #
point $-1 51.590805999515176 20.046150756192432 15.750878721325236 #
point $-1 23.272599451271439 42.569907377362227 0.55841276177562804 #
straight-curve $-1 0 42.569907377362227 15.75087872132524 -1 0 0 I I #
vertex $-1 $524 $648 #
point $-1 30.936240760920185 29.813753385016593 5.9392909814658292 #
vertex $-1 $528 $649 #
point $-1 39.431702725393308 29.813753385016593 5.9392909814658292 #
vertex $-1 $532 $650 #
point $-1 47.92716468986643 29.813753385016593 5.9392909814658292 #
point $-1 79.01974547563097 42.569907377362227 -15.75087872132524 #
point $-1 79.01974547563097 -42.569907377362227 -15.75087872132524 #
straight-curve $-1 79.01974547563097 -42.569907377362227 0 0 0 -1 I I #
straight-curve $-1 79.01974547563097 42.569907377362227 0 0 0 -1 I I #
edge $-1 $569 -1.7953415612133448 $558 1.7953415612133448 $555 $651 forward 7 unknown #
straight-curve $-1 -92.281430638870717 -11.068149934711748 0 0 0 -1 I I #
straight-curve $-1 -85.650588057250843 -14.658833057138438 15.75087872132524 1 0 0 I I #
point $-1 -92.281430638870717 -14.658833057138438 15.75087872132524 #
point $-1 -92.281430638870717 -14.658833057138438 -15.75087872132524 #
straight-curve $-1 -92.281430638870717 -12.863491495925093 -15.75087872132524 0 1 0 I I #
point $-1 -92.281430638870717 -11.068149934711748 -15.75087872132524 #
point $-1 -92.281430638870717 -11.068149934711748 15.75087872132524 #
straight-curve $-1 -51.812242425098461 -42.569907377362227 72.08827815516517 0 0 -1 I I #
point $-1 -51.812242425098461 -42.569907377362227 15.75087872132524 #
straight-curve $-1 -20.923819712512042 -42.569907377362227 7.3103429565970188 1 0 0 I I #
point $-1 -51.812242425098461 -42.569907377362227 7.3103429565970179 #
point $-1 -47.826401225068707 -33.353423135035513 8.2279953440175042 #
point $-1 -41.847639425024084 -33.353423135035513 8.2279953440175042 #
point $-1 -35.868877624979461 -33.353423135035513 8.2279953440175042 #
straight-curve $-1 -20.798096894495927 42.569907377362227 89.594334382771208 0 0 -1 I I #
point $-1 -20.798096894495927 42.569907377362227 15.75087872132524 #
straight-curve $-1 -17.478600084308898 42.569907377362227 0.55841276177563159 -1 0 0 I I #
point $-1 -20.798096894495927 42.569907377362227 0.55841276177562804 #
point $-1 -43.452662133090918 28.695367563539794 4.2812158461599328 #
point $-1 -34.957200168617796 28.695367563539794 4.2812158461599328 #
point $-1 -26.461738204144673 28.695367563539794 4.2812158461599328 #
straight-curve $-1 51.590805999515176 42.569907377362227 89.594334382771208 0 0 -1 I I #
point $-1 51.590805999515176 42.569907377362227 15.75087872132524 #
straight-curve $-1 18.715851362696654 42.569907377362227 0.55841276177563159 -1 0 0 I I #
point $-1 51.590805999515176 42.569907377362227 0.55841276177562804 #
point $-1 28.936240760920185 28.695367563539794 4.2812158461599328 #
point $-1 37.431702725393308 28.695367563539794 4.2812158461599328 #
point $-1 45.92716468986643 28.695367563539794 4.2812158461599328 #
straight-curve $-1 -92.281430638870717 -12.863491495925093 15.75087872132524 0 -1 0 I I #
End-of-ACIS-data 