500 0 4 0           
7 Unknown 11 ACIS 5.0 NT 24 Thu Mar 25 16:55:58 1999 
-1 9.9999999999999995e-007 1e-010 
body $-1 $4 $-1 $5 #
body $-1 $6 $-1 $7 #
body $-1 $8 $-1 $9 #
body $-1 $10 $-1 $11 #
lump $-1 $-1 $12 $0 #
transform $-1 1 0 0 0 1 0 0 0 1 48.530533768730734 27.922792844687656 7.2158523200464399 1 rotate no_reflect no_shear #
lump $-1 $-1 $13 $1 #
transform $-1 1 0 0 0 1 0 0 0 1 48.530533768730734 27.922792844687656 7.2158523200464399 1 rotate no_reflect no_shear #
lump $-1 $-1 $14 $2 #
transform $-1 1 0 0 0 1 0 0 0 1 48.530533768730734 27.922792844687656 7.2158523200464399 1 rotate no_reflect no_shear #
lump $-1 $-1 $15 $3 #
transform $-1 1 0 0 0 1 0 0 0 1 48.530533768730734 27.922792844687656 7.2158523200464399 1 rotate no_reflect no_shear #
shell $-1 $-1 $-1 $16 $-1 $4 #
shell $-1 $-1 $-1 $17 $-1 $6 #
shell $-1 $-1 $-1 $18 $-1 $8 #
shell $-1 $-1 $-1 $19 $-1 $10 #
face $-1 $20 $21 $12 $-1 $22 forward single #
face $-1 $23 $24 $13 $-1 $25 forward single #
face $-1 $26 $27 $14 $-1 $28 forward single #
face $-1 $29 $30 $15 $-1 $31 reversed single #
face $-1 $32 $33 $12 $-1 $34 reversed single #
loop $-1 $-1 $35 $16 #
plane-surface $-1 0 0 7.2158523200464399 0 0 1 1 0 0 forward_v I I I I #
face $-1 $36 $37 $13 $-1 $38 forward single #
loop $-1 $-1 $39 $17 #
plane-surface $-1 -45.454125700634982 -16.491088204594774 0 0 1 0 0 0 1 forward_v I I I I #
face $-1 $40 $41 $14 $-1 $42 forward single #
loop $-1 $-1 $43 $18 #
plane-surface $-1 23.350711740602065 -80.786039698433257 82.857164756934651 -1 0 0 0 -0.54463904215088732 0.83867056331134215 forward_v I I I I #
face $-1 $44 $45 $15 $-1 $46 reversed single #
loop $-1 $47 $48 $19 #
cone-surface $-1 13.350304697282638 -22.671914167762942 3.0798681100165446 0 0.54463904215088732 -0.83867056331134215 1.5 0 0 1 I I 0 1 1.5 forward I I I I #
face $-1 $49 $50 $12 $-1 $51 reversed single #
loop $-1 $-1 $52 $20 #
plane-surface $-1 0 0 -7.2158523200464399 0 0 1 1 0 0 forward_v I I I I #
coedge $-1 $53 $54 $55 $56 forward $21 $-1 #
face $-1 $57 $58 $13 $-1 $59 forward single #
loop $-1 $-1 $60 $23 #
plane-surface $-1 -45.454125700634982 -13.491088204594776 0 0 -1 0 0 0 -1 forward_v I I I I #
coedge $-1 $61 $62 $63 $64 reversed $24 $-1 #
face $-1 $65 $66 $14 $-1 $67 forward single #
loop $-1 $-1 $68 $26 #
plane-surface $-1 13.350304697282638 -27.922792844687656 1.454904569691621 0 -0.54463904215088732 0.83867056331134215 1 0 0 forward_v I I I I #
coedge $-1 $69 $70 $71 $72 reversed $27 $-1 #
face $-1 $73 $74 $15 $-1 $75 forward single #
loop $-1 $76 $77 $29 #
cone-surface $-1 13.350304697282638 -21.448096926170912 1.1953548526805564 0 0.54463904215088732 -0.83867056331134215 0.75 0 0 1 I I -0.70710678118654757 0.70710678118654757 0.75 forward I I I I #
loop $-1 $-1 $78 $19 #
coedge $-1 $48 $48 $79 $80 reversed $30 $-1 #
face $-1 $81 $82 $12 $-1 $83 reversed single #
loop $-1 $-1 $84 $32 #
plane-surface $-1 0 -27.922792844687656 0 0 1 0 0 0 1 forward_v I I I I #
coedge $-1 $85 $86 $87 $88 forward $33 $-1 #
coedge $-1 $89 $35 $90 $91 forward $21 $-1 #
coedge $-1 $35 $89 $92 $93 forward $21 $-1 #
coedge $-1 $94 $95 $35 $56 reversed $96 $-1 #
edge $-1 $97 -27.922792844687656 $98 27.922792844687656 $55 $99 forward 7 unknown #
face $-1 $100 $101 $13 $-1 $102 forward single #
loop $-1 $-1 $103 $36 #
plane-surface $-1 -42.37771763253923 -14.991088204594776 0 -1 0 0 0 0 1 forward_v I I I I #
coedge $-1 $104 $105 $106 $107 reversed $37 $-1 #
coedge $-1 $108 $39 $109 $110 reversed $24 $-1 #
coedge $-1 $39 $108 $111 $112 reversed $24 $-1 #
coedge $-1 $113 $114 $39 $64 forward $115 $-1 #
edge $-1 $116 -7.2158523200464399 $117 7.2158523200464399 $63 $118 forward 7 unknown #
face $-1 $119 $120 $14 $-1 $121 forward single #
loop $-1 $-1 $122 $40 #
plane-surface $-1 3.349897653963211 -80.786039698433257 82.857164756934651 1 0 0 0 0.54463904215088732 -0.83867056331134215 forward_v I I I I #
coedge $-1 $123 $124 $125 $126 reversed $41 $-1 #
coedge $-1 $70 $43 $124 $127 forward $27 $-1 #
coedge $-1 $43 $69 $128 $129 reversed $27 $-1 #
coedge $-1 $130 $125 $43 $72 forward $120 $-1 #
edge $-1 $131 -21.341308438420654 $132 -12.470227004528972 $71 $133 forward 7 unknown #
face $-1 $134 $135 $15 $-1 $136 forward single #
loop $-1 $-1 $137 $44 #
plane-surface $-1 23.350711740602065 -80.786039698433257 82.857164756934651 -1 0 0 0 -0.54463904215088732 0.83867056331134215 forward_v I I I I #
loop $-1 $-1 $138 $29 #
coedge $-1 $77 $77 $78 $139 forward $45 $-1 #
coedge $-1 $78 $78 $77 $139 reversed $47 $-1 #
coedge $-1 $79 $79 $48 $80 forward $135 $-1 #
edge $-1 $140 2.7106674937895197e-016 $140 6.2831853071796004 $79 $141 forward 7 unknown #
face $-1 $142 $143 $12 $-1 $144 reversed single #
loop $-1 $-1 $145 $49 #
plane-surface $-1 -48.530533768730734 0 0 1 0 0 0 0 -1 forward_v I I I I #
coedge $-1 $146 $92 $147 $148 forward $50 $-1 #
coedge $-1 $149 $52 $146 $150 forward $33 $-1 #
coedge $-1 $52 $149 $151 $152 forward $33 $-1 #
coedge $-1 $95 $94 $52 $88 reversed $96 $-1 #
edge $-1 $153 -27.922792844687656 $154 27.922792844687656 $87 $155 forward 7 unknown #
coedge $-1 $54 $53 $156 $157 forward $21 $-1 #
coedge $-1 $158 $159 $53 $91 reversed $143 $-1 #
edge $-1 $98 -48.530533768730734 $160 48.530533768730734 $90 $161 forward 7 unknown #
coedge $-1 $84 $162 $54 $93 reversed $50 $-1 #
edge $-1 $163 -48.530533768730734 $97 48.530533768730734 $92 $164 forward 7 unknown #
coedge $-1 $87 $55 $162 $165 forward $96 $-1 #
coedge $-1 $55 $87 $158 $166 reversed $96 $-1 #
loop $-1 $-1 $94 $142 #
vertex $-1 $56 $167 #
vertex $-1 $56 $168 #
straight-curve $-1 48.530533768730734 0 7.2158523200464399 0 1 0 I I #
face $-1 $169 $115 $13 $-1 $170 reversed single #
loop $-1 $-1 $171 $57 #
plane-surface $-1 0 0 7.2158523200464399 0 0 1 1 0 0 forward_v I I I I #
coedge $-1 $172 $173 $108 $174 reversed $58 $-1 #
coedge $-1 $175 $60 $171 $176 reversed $37 $-1 #
coedge $-1 $60 $175 $177 $178 reversed $37 $-1 #
coedge $-1 $173 $172 $60 $107 forward $58 $-1 #
edge $-1 $179 -7.2158523200464399 $180 7.2158523200464399 $106 $181 forward 7 unknown #
coedge $-1 $62 $61 $103 $174 forward $24 $-1 #
coedge $-1 $182 $183 $61 $110 forward $101 $-1 #
edge $-1 $184 19.650654782221739 $116 25.803470918413243 $109 $185 forward 7 unknown #
coedge $-1 $186 $187 $62 $112 forward $188 $-1 #
edge $-1 $117 -25.803470918413243 $189 -19.650654782221739 $111 $190 forward 7 unknown #
coedge $-1 $191 $63 $187 $192 reversed $115 $-1 #
coedge $-1 $63 $191 $182 $193 reversed $115 $-1 #
loop $-1 $-1 $63 $100 #
vertex $-1 $193 $194 #
vertex $-1 $64 $195 #
straight-curve $-1 -48.530533768730734 -16.491088204594774 0 0 0 -1 I I #
face $-1 $196 $197 $14 $-1 $198 forward single #
loop $-1 $-1 $199 $65 #
plane-surface $-1 0 0 7.2158523200464399 0 0 1 1 0 0 forward_v I I I I #
coedge $-1 $200 $201 $199 $202 reversed $66 $-1 #
coedge $-1 $203 $68 $201 $204 reversed $41 $-1 #
coedge $-1 $68 $203 $69 $127 reversed $41 $-1 #
coedge $-1 $71 $199 $68 $126 forward $120 $-1 #
edge $-1 $205 -3.3252546946781081 $131 16.675559391960746 $125 $206 forward 7 unknown #
edge $-1 $131 -10.577551927977284 $207 0 $69 $208 forward 7 unknown #
coedge $-1 $209 $210 $70 $129 forward $211 $-1 #
edge $-1 $132 34.212730058420888 $207 39.973677808775705 $128 $212 forward 7 unknown #
coedge $-1 $213 $71 $210 $214 forward $120 $-1 #
vertex $-1 $126 $215 #
vertex $-1 $214 $216 #
straight-curve $-1 23.350711740602065 -40.393019849216628 7.2158523200464373 0 -1 0 I I #
face $-1 $217 $218 $15 $-1 $219 forward single #
loop $-1 $220 $79 $73 #
plane-surface $-1 13.350304697282638 -27.922792844687656 1.454904569691621 0 -0.54463904215088732 0.83867056331134215 1 0 0 forward_v I I I I #
coedge $-1 $221 $222 $223 $224 reversed $74 $-1 #
coedge $-1 $138 $138 $-1 $225 forward $76 $-1 #
edge $-1 $226 0 $226 6.2831853071796004 $77 $227 forward 7 unknown #
vertex $-1 $80 $228 #
ellipse-curve $-1 13.350304697282638 -23.487252127741812 4.3353784448690327 0 0.54463904215088732 -0.83867056331134215 1.5 0 0 1 I I #
face $-1 $-1 $96 $12 $-1 $229 reversed single #
loop $-1 $-1 $158 $81 #
plane-surface $-1 0 27.922792844687656 0 0 -1 0 0 0 -1 forward_v I I I I #
coedge $-1 $230 $156 $159 $231 forward $82 $-1 #
coedge $-1 $162 $84 $85 $150 reversed $50 $-1 #
coedge $-1 $156 $230 $84 $148 reversed $82 $-1 #
edge $-1 $163 -7.2158523200464399 $232 7.2158523200464399 $147 $233 forward 7 unknown #
coedge $-1 $86 $85 $230 $234 forward $33 $-1 #
edge $-1 $154 -48.530533768730734 $232 48.530533768730734 $146 $235 forward 7 unknown #
coedge $-1 $159 $158 $86 $152 reversed $143 $-1 #
edge $-1 $236 -48.530533768730734 $153 48.530533768730734 $151 $237 forward 7 unknown #
vertex $-1 $88 $238 #
vertex $-1 $165 $239 #
straight-curve $-1 48.530533768730734 0 -7.2158523200464399 0 -1 0 I I #
coedge $-1 $145 $147 $89 $157 reversed $82 $-1 #
edge $-1 $160 -27.922792844687656 $163 27.922792844687656 $156 $240 forward 7 unknown #
coedge $-1 $151 $90 $95 $166 forward $143 $-1 #
coedge $-1 $90 $151 $145 $231 reversed $143 $-1 #
vertex $-1 $91 $241 #
straight-curve $-1 0 27.922792844687656 7.2158523200464399 -1 0 0 I I #
coedge $-1 $92 $146 $94 $165 reversed $50 $-1 #
vertex $-1 $157 $242 #
straight-curve $-1 0 -27.922792844687656 7.2158523200464399 1 0 0 I I #
edge $-1 $97 -7.2158523200464399 $154 7.2158523200464399 $94 $243 forward 7 unknown #
edge $-1 $98 -7.2158523200464399 $153 7.2158523200464399 $95 $244 forward 7 unknown #
point $-1 48.530533768730734 -27.922792844687656 7.2158523200464399 #
point $-1 48.530533768730734 27.922792844687656 7.2158523200464399 #
face $-1 $245 $188 $13 $-1 $246 reversed single #
plane-surface $-1 -48.530533768730734 0 0 1 0 0 0 0 -1 forward_v I I I I #
coedge $-1 $183 $247 $104 $176 forward $101 $-1 #
coedge $-1 $106 $103 $183 $248 reversed $58 $-1 #
coedge $-1 $103 $106 $186 $249 reversed $58 $-1 #
edge $-1 $184 -7.2158523200464399 $189 7.2158523200464399 $103 $250 forward 7 unknown #
coedge $-1 $105 $104 $251 $252 reversed $37 $-1 #
edge $-1 $253 -25.803470918413243 $179 -19.650654782221739 $171 $254 forward 7 unknown #
coedge $-1 $255 $186 $105 $178 forward $188 $-1 #
edge $-1 $180 19.650654782221739 $256 25.803470918413243 $177 $257 forward 7 unknown #
vertex $-1 $176 $258 #
vertex $-1 $178 $259 #
straight-curve $-1 -42.37771763253923 -13.491088204594776 0 0 0 -1 I I #
coedge $-1 $260 $109 $114 $193 forward $101 $-1 #
coedge $-1 $109 $171 $172 $248 forward $101 $-1 #
vertex $-1 $110 $261 #
straight-curve $-1 -22.727062850317491 -16.491088204594774 7.2158523200464399 -1 0 0 I I #
coedge $-1 $177 $111 $173 $249 forward $188 $-1 #
coedge $-1 $111 $262 $113 $192 forward $188 $-1 #
loop $-1 $-1 $177 $169 #
vertex $-1 $112 $263 #
straight-curve $-1 -22.727062850317491 -16.491088204594774 -7.2158523200464399 1 0 0 I I #
coedge $-1 $114 $113 $264 $265 reversed $115 $-1 #
edge $-1 $266 -27.922792844687656 $117 -16.491088204594774 $113 $267 forward 7 unknown #
edge $-1 $116 16.491088204594774 $268 27.922792844687656 $114 $269 forward 7 unknown #
point $-1 -48.530533768730734 -16.491088204594774 7.2158523200464399 #
point $-1 -48.530533768730734 -16.491088204594774 -7.2158523200464399 #
face $-1 $270 $271 $14 $-1 $272 forward single #
loop $-1 $-1 $273 $119 #
plane-surface $-1 -45.454125700634982 -16.491088204594774 0 0 1 0 0 0 1 forward_v I I I I #
coedge $-1 $125 $274 $122 $202 forward $120 $-1 #
coedge $-1 $201 $122 $275 $276 reversed $66 $-1 #
coedge $-1 $122 $200 $123 $204 forward $66 $-1 #
edge $-1 $277 12.470227004528972 $205 21.341308438420654 $199 $278 forward 7 unknown #
coedge $-1 $124 $123 $209 $279 reversed $41 $-1 #
edge $-1 $280 0 $205 10.577551927977284 $201 $281 forward 7 unknown #
vertex $-1 $126 $282 #
straight-curve $-1 6.6751523486413191 -19.051711410795974 7.2158523200464399 1 0 0 I I #
vertex $-1 $279 $283 #
straight-curve $-1 23.350711740602065 -27.922792844687656 1.454904569691621 0 -0.83867056331134215 -0.54463904215088732 I I #
coedge $-1 $275 $128 $203 $279 forward $211 $-1 #
coedge $-1 $128 $284 $130 $214 reversed $211 $-1 #
loop $-1 $-1 $275 $285 #
straight-curve $-1 23.350711740602065 -27.922792844687656 41.428582378467325 0 0 -1 I I #
coedge $-1 $286 $130 $287 $288 forward $120 $-1 #
edge $-1 $132 23.350711740602065 $289 48.530533768730734 $210 $290 forward 7 unknown #
point $-1 23.350711740602065 -19.051711410795974 7.2158523200464408 #
point $-1 23.350711740602065 -27.922792844687656 7.2158523200464399 #
face $-1 $291 $292 $15 $-1 $293 forward single #
loop $-1 $-1 $294 $134 #
plane-surface $-1 3.349897653963211 -80.786039698433257 82.857164756934651 1 0 0 0 0.54463904215088732 -0.83867056331134215 forward_v I I I I #
loop $-1 $-1 $295 $73 #
coedge $-1 $222 $137 $296 $297 forward $74 $-1 #
coedge $-1 $137 $221 $298 $299 reversed $74 $-1 #
coedge $-1 $300 $301 $137 $224 forward $292 $-1 #
edge $-1 $302 -21.341308438420654 $303 -12.470227004528972 $223 $304 forward 7 unknown #
edge $-1 $305 1 $305 0 $138 $-1 forward 7 unknown #
vertex $-1 $139 $306 #
ellipse-curve $-1 13.350304697282638 -21.856576207784077 1.8243577751640632 0 -0.54463904215088732 0.83867056331134215 1.5 0 0 1 I I #
point $-1 14.850304697282638 -23.487252127741808 4.3353784448690265 #
plane-surface $-1 48.530533768730734 0 0 -1 0 0 0 0 1 forward_v I I I I #
coedge $-1 $147 $145 $149 $234 reversed $82 $-1 #
edge $-1 $160 -7.2158523200464399 $236 7.2158523200464399 $159 $307 forward 7 unknown #
vertex $-1 $234 $308 #
straight-curve $-1 -48.530533768730734 -27.922792844687656 0 0 0 -1 I I #
edge $-1 $232 -27.922792844687656 $236 27.922792844687656 $230 $309 forward 7 unknown #
straight-curve $-1 0 -27.922792844687656 -7.2158523200464399 -1 0 0 I I #
vertex $-1 $152 $310 #
straight-curve $-1 0 27.922792844687656 -7.2158523200464399 1 0 0 I I #
point $-1 48.530533768730734 27.922792844687656 -7.2158523200464399 #
point $-1 48.530533768730734 -27.922792844687656 -7.2158523200464399 #
straight-curve $-1 -48.530533768730734 0 7.2158523200464399 0 -1 0 I I #
point $-1 -48.530533768730734 27.922792844687656 7.2158523200464399 #
point $-1 -48.530533768730734 -27.922792844687656 7.2158523200464399 #
straight-curve $-1 48.530533768730734 -27.922792844687656 0 0 0 -1 I I #
straight-curve $-1 48.530533768730734 27.922792844687656 0 0 0 -1 I I #
face $-1 $311 $312 $13 $-1 $313 reversed single #
plane-surface $-1 0 0 -7.2158523200464399 0 0 1 1 0 0 forward_v I I I I #
coedge $-1 $171 $314 $315 $316 forward $101 $-1 #
edge $-1 $179 5.9955441022973881 $184 8.9955441022973872 $183 $317 forward 7 unknown #
edge $-1 $189 -8.9955441022973872 $180 -5.9955441022973881 $186 $318 forward 7 unknown #
straight-curve $-1 -42.37771763253923 -16.491088204594774 0 0 0 -1 I I #
coedge $-1 $315 $319 $175 $252 forward $320 $-1 #
edge $-1 $256 -7.2158523200464399 $253 7.2158523200464399 $251 $321 forward 7 unknown #
vertex $-1 $252 $322 #
straight-curve $-1 -22.727062850317491 -13.491088204594776 7.2158523200464399 1 0 0 I I #
coedge $-1 $323 $177 $319 $324 forward $188 $-1 #
vertex $-1 $324 $325 #
straight-curve $-1 -22.727062850317491 -13.491088204594776 -7.2158523200464399 -1 0 0 I I #
point $-1 -42.37771763253923 -13.491088204594776 7.2158523200464399 #
point $-1 -42.37771763253923 -13.491088204594776 -7.2158523200464399 #
coedge $-1 $326 $182 $327 $328 forward $101 $-1 #
point $-1 -42.37771763253923 -16.491088204594774 7.2158523200464399 #
coedge $-1 $187 $329 $330 $331 forward $188 $-1 #
point $-1 -42.37771763253923 -16.491088204594774 -7.2158523200464399 #
coedge $-1 $330 $327 $191 $265 forward $312 $-1 #
edge $-1 $268 -7.2158523200464399 $266 7.2158523200464399 $191 $332 forward 7 unknown #
vertex $-1 $192 $333 #
straight-curve $-1 -48.530533768730734 0 -7.2158523200464399 0 1 0 I I #
vertex $-1 $193 $334 #
straight-curve $-1 -48.530533768730734 0 7.2158523200464399 0 -1 0 I I #
face $-1 $335 $336 $14 $-1 $337 forward single #
loop $-1 $-1 $338 $196 #
plane-surface $-1 -45.454125700634982 -13.491088204594776 0 0 -1 0 0 0 -1 forward_v I I I I #
coedge $-1 $339 $340 $341 $342 reversed $197 $-1 #
coedge $-1 $199 $343 $344 $345 forward $120 $-1 #
coedge $-1 $344 $209 $200 $276 forward $211 $-1 #
edge $-1 $280 -39.973677808775705 $277 -34.212730058420888 $275 $346 forward 7 unknown #
vertex $-1 $276 $347 #
straight-curve $-1 3.349897653963211 -40.393019849216628 7.2158523200464373 0 1 0 I I #
edge $-1 $207 -16.675559391960746 $280 3.3252546946781081 $209 $348 forward 7 unknown #
vertex $-1 $279 $349 #
straight-curve $-1 3.349897653963211 -27.922792844687656 1.454904569691621 0 0.83867056331134215 0.54463904215088732 I I #
point $-1 3.349897653963211 -19.051711410795974 7.2158523200464408 #
point $-1 23.350711740602065 -27.922792844687656 1.454904569691621 #
coedge $-1 $210 $350 $351 $352 reversed $211 $-1 #
face $-1 $353 $211 $14 $-1 $354 reversed single #
coedge $-1 $355 $213 $356 $357 forward $120 $-1 #
coedge $-1 $351 $358 $213 $288 reversed $359 $-1 #
edge $-1 $289 -27.922792844687656 $360 27.922792844687656 $287 $361 forward 7 unknown #
vertex $-1 $288 $362 #
straight-curve $-1 0 -27.922792844687656 7.2158523200464399 1 0 0 I I #
face $-1 $363 $364 $15 $-1 $365 forward single #
loop $-1 $-1 $366 $217 #
plane-surface $-1 0 0 7.2158523200464399 0 0 1 1 0 0 forward_v I I I I #
coedge $-1 $367 $368 $366 $369 reversed $218 $-1 #
coedge $-1 $370 $296 $301 $371 reversed $220 $-1 #
coedge $-1 $295 $372 $221 $297 reversed $220 $-1 #
edge $-1 $302 -10.577551927977284 $373 0 $221 $374 forward 7 unknown #
coedge $-1 $375 $376 $222 $299 forward $377 $-1 #
edge $-1 $303 34.212730058420888 $373 39.973677808775705 $298 $378 forward 7 unknown #
coedge $-1 $379 $223 $376 $380 forward $292 $-1 #
coedge $-1 $223 $366 $295 $371 forward $292 $-1 #
vertex $-1 $371 $381 #
vertex $-1 $380 $382 #
straight-curve $-1 23.350711740602065 -40.393019849216628 7.2158523200464373 0 -1 0 I I #
vertex $-1 $225 $383 #
point $-1 14.850304697282638 -21.856576207784077 1.8243577751640632 #
straight-curve $-1 -48.530533768730734 27.922792844687656 0 0 0 -1 I I #
point $-1 -48.530533768730734 -27.922792844687656 -7.2158523200464399 #
straight-curve $-1 -48.530533768730734 0 -7.2158523200464399 0 1 0 I I #
point $-1 -48.530533768730734 27.922792844687656 -7.2158523200464399 #
face $-1 $384 $320 $13 $-1 $170 reversed single #
loop $-1 $-1 $264 $245 #
plane-surface $-1 0 -27.922792844687656 0 0 1 0 0 0 1 forward_v I I I I #
coedge $-1 $247 $326 $385 $386 forward $101 $-1 #
coedge $-1 $387 $251 $247 $316 reversed $320 $-1 #
edge $-1 $388 -27.922792844687656 $253 13.491088204594776 $315 $269 forward 7 unknown #
straight-curve $-1 -42.37771763253923 -7.4955441022973881 7.2158523200464399 0 -1 0 I I #
straight-curve $-1 -42.37771763253923 -7.4955441022973881 -7.2158523200464399 0 1 0 I I #
coedge $-1 $251 $387 $255 $324 reversed $320 $-1 #
loop $-1 $-1 $251 $311 #
straight-curve $-1 -48.530533768730734 -13.491088204594776 0 0 0 1 I I #
point $-1 -48.530533768730734 -13.491088204594776 7.2158523200464399 #
coedge $-1 $329 $255 $389 $390 forward $188 $-1 #
edge $-1 $256 -13.491088204594776 $391 27.922792844687656 $319 $267 forward 7 unknown #
point $-1 -48.530533768730734 -13.491088204594776 -7.2158523200464399 #
coedge $-1 $314 $260 $392 $393 forward $101 $-1 #
coedge $-1 $264 $394 $260 $328 reversed $312 $-1 #
edge $-1 $268 -48.530533768730734 $395 48.530533768730734 $327 $396 forward 7 unknown #
coedge $-1 $262 $323 $397 $398 forward $188 $-1 #
coedge $-1 $394 $264 $262 $331 reversed $312 $-1 #
edge $-1 $399 -48.530533768730734 $266 48.530533768730734 $330 $400 forward 7 unknown #
straight-curve $-1 -48.530533768730734 -27.922792844687656 0 0 0 -1 I I #
point $-1 -48.530533768730734 -27.922792844687656 -7.2158523200464399 #
point $-1 -48.530533768730734 -27.922792844687656 7.2158523200464399 #
face $-1 $401 $402 $14 $-1 $403 reversed single #
loop $-1 $-1 $404 $270 #
plane-surface $-1 -42.37771763253923 -14.991088204594776 0 -1 0 0 0 0 1 forward_v I I I I #
coedge $-1 $405 $406 $407 $408 reversed $271 $-1 #
coedge $-1 $409 $273 $410 $411 reversed $197 $-1 #
coedge $-1 $273 $409 $412 $413 reversed $197 $-1 #
coedge $-1 $414 $415 $273 $342 forward $402 $-1 #
edge $-1 $416 -7.2158523200464399 $417 7.2158523200464399 $341 $418 forward 7 unknown #
coedge $-1 $274 $410 $415 $419 forward $120 $-1 #
coedge $-1 $420 $275 $274 $345 reversed $211 $-1 #
edge $-1 $421 -48.530533768730734 $277 3.349897653963211 $344 $290 forward 7 unknown #
straight-curve $-1 3.349897653963211 -27.922792844687656 41.428582378467325 0 0 1 I I #
point $-1 3.349897653963211 -27.922792844687656 7.2158523200464399 #
straight-curve $-1 6.6751523486413191 -27.922792844687656 1.4549045696916199 -1 0 0 I I #
point $-1 3.349897653963211 -27.922792844687656 1.454904569691621 #
coedge $-1 $284 $420 $422 $423 reversed $211 $-1 #
coedge $-1 $424 $287 $284 $352 forward $359 $-1 #
edge $-1 $289 -7.2158523200464399 $425 7.2158523200464399 $351 $426 forward 7 unknown #
face $-1 $427 $428 $14 $-1 $403 reversed single #
plane-surface $-1 0 -27.922792844687656 0 0 1 0 0 0 1 forward_v I I I I #
coedge $-1 $429 $286 $430 $431 forward $120 $-1 #
coedge $-1 $432 $433 $286 $357 reversed $434 $-1 #
edge $-1 $360 -48.530533768730734 $435 48.530533768730734 $356 $436 forward 7 unknown #
coedge $-1 $287 $424 $432 $437 reversed $359 $-1 #
loop $-1 $-1 $351 $438 #
vertex $-1 $288 $439 #
straight-curve $-1 48.530533768730734 0 7.2158523200464399 0 1 0 I I #
point $-1 48.530533768730734 -27.922792844687656 7.2158523200464399 #
face $-1 $440 $441 $15 $-1 $442 forward single #
loop $-1 $-1 $443 $291 #
plane-surface $-1 -45.454125700634982 -16.491088204594774 0 0 1 0 0 0 1 forward_v I I I I #
coedge $-1 $301 $444 $294 $369 forward $292 $-1 #
coedge $-1 $368 $294 $445 $446 reversed $218 $-1 #
coedge $-1 $294 $367 $370 $447 forward $218 $-1 #
edge $-1 $448 12.470227004528972 $449 21.341308438420654 $366 $450 forward 7 unknown #
coedge $-1 $372 $295 $368 $447 reversed $220 $-1 #
edge $-1 $449 -3.3252546946781081 $302 16.675559391960746 $301 $451 forward 7 unknown #
coedge $-1 $296 $370 $375 $452 reversed $220 $-1 #
vertex $-1 $452 $453 #
straight-curve $-1 23.350711740602065 -27.922792844687656 1.454904569691621 0 -0.83867056331134215 -0.54463904215088732 I I #
coedge $-1 $445 $298 $372 $452 forward $377 $-1 #
coedge $-1 $298 $454 $300 $380 reversed $377 $-1 #
loop $-1 $-1 $445 $455 #
straight-curve $-1 23.350711740602065 -27.922792844687656 41.428582378467325 0 0 -1 I I #
coedge $-1 $456 $300 $457 $458 forward $292 $-1 #
edge $-1 $303 23.350711740602065 $459 48.530533768730734 $376 $460 forward 7 unknown #
point $-1 23.350711740602065 -19.051711410795974 7.2158523200464408 #
point $-1 23.350711740602065 -27.922792844687656 7.2158523200464399 #
point $-1 13.350304697282638 -21.039617644557747 0.56635193019704977 #
face $-1 $461 $462 $13 $-1 $463 reversed single #
coedge $-1 $464 $465 $314 $386 reversed $462 $-1 #
edge $-1 $466 -48.530533768730734 $388 48.530533768730734 $385 $467 forward 7 unknown #
coedge $-1 $319 $315 $465 $468 forward $320 $-1 #
vertex $-1 $386 $469 #
coedge $-1 $465 $464 $323 $390 reversed $462 $-1 #
edge $-1 $391 -48.530533768730734 $470 48.530533768730734 $389 $471 forward 7 unknown #
vertex $-1 $390 $472 #
coedge $-1 $473 $474 $326 $393 reversed $475 $-1 #
edge $-1 $395 -27.922792844687656 $466 27.922792844687656 $392 $476 forward 7 unknown #
coedge $-1 $327 $330 $473 $477 reversed $312 $-1 #
vertex $-1 $393 $478 #
straight-curve $-1 0 -27.922792844687656 7.2158523200464399 1 0 0 I I #
coedge $-1 $474 $473 $329 $398 reversed $475 $-1 #
edge $-1 $470 -27.922792844687656 $399 27.922792844687656 $397 $479 forward 7 unknown #
vertex $-1 $477 $480 #
straight-curve $-1 0 -27.922792844687656 -7.2158523200464399 -1 0 0 I I #
face $-1 $285 $481 $14 $-1 $482 reversed single #
loop $-1 $-1 $341 $335 #
plane-surface $-1 -48.530533768730734 0 0 1 0 0 0 0 -1 forward_v I I I I #
coedge $-1 $483 $484 $409 $485 reversed $336 $-1 #
coedge $-1 $486 $338 $429 $487 reversed $271 $-1 #
coedge $-1 $338 $486 $488 $489 reversed $271 $-1 #
coedge $-1 $484 $483 $338 $408 forward $336 $-1 #
edge $-1 $490 -7.2158523200464399 $491 7.2158523200464399 $407 $492 forward 7 unknown #
coedge $-1 $340 $339 $404 $485 forward $197 $-1 #
coedge $-1 $343 $493 $339 $411 forward $120 $-1 #
edge $-1 $494 19.650654782221739 $416 25.803470918413243 $410 $495 forward 7 unknown #
coedge $-1 $496 $497 $340 $413 forward $481 $-1 #
edge $-1 $417 -25.803470918413243 $498 -19.650654782221739 $412 $499 forward 7 unknown #
coedge $-1 $500 $341 $497 $501 reversed $402 $-1 #
coedge $-1 $341 $500 $343 $419 reversed $402 $-1 #
vertex $-1 $419 $502 #
vertex $-1 $342 $503 #
straight-curve $-1 -48.530533768730734 -16.491088204594774 0 0 0 -1 I I #
edge $-1 $416 16.491088204594774 $421 27.922792844687656 $415 $504 forward 7 unknown #
coedge $-1 $350 $344 $500 $505 forward $211 $-1 #
vertex $-1 $419 $506 #
coedge $-1 $497 $507 $350 $423 forward $481 $-1 #
edge $-1 $425 -48.530533768730734 $508 48.530533768730734 $350 $509 forward 7 unknown #
coedge $-1 $358 $351 $507 $510 reversed $359 $-1 #
vertex $-1 $352 $511 #
straight-curve $-1 48.530533768730734 -27.922792844687656 0 0 0 -1 I I #
face $-1 $438 $434 $14 $-1 $512 reversed single #
loop $-1 $-1 $513 $353 #
coedge $-1 $493 $355 $405 $487 forward $120 $-1 #
coedge $-1 $514 $513 $355 $431 reversed $428 $-1 #
edge $-1 $435 -27.922792844687656 $515 13.491088204594776 $430 $504 forward 7 unknown #
coedge $-1 $516 $356 $358 $437 forward $434 $-1 #
coedge $-1 $356 $516 $514 $517 reversed $434 $-1 #
loop $-1 $-1 $432 $427 #
vertex $-1 $357 $518 #
straight-curve $-1 0 27.922792844687656 7.2158523200464399 -1 0 0 I I #
edge $-1 $360 -7.2158523200464399 $519 7.2158523200464399 $358 $520 forward 7 unknown #
face $-1 $-1 $359 $14 $-1 $521 reversed single #
point $-1 48.530533768730734 27.922792844687656 7.2158523200464399 #
face $-1 $522 $523 $15 $-1 $524 forward single #
loop $-1 $-1 $525 $363 #
plane-surface $-1 -45.454125700634982 -13.491088204594776 0 0 -1 0 0 0 -1 forward_v I I I I #
coedge $-1 $526 $527 $528 $529 reversed $364 $-1 #
coedge $-1 $366 $530 $531 $532 forward $292 $-1 #
coedge $-1 $531 $375 $367 $446 forward $377 $-1 #
edge $-1 $533 -39.973677808775705 $448 -34.212730058420888 $445 $534 forward 7 unknown #
edge $-1 $533 0 $449 10.577551927977284 $368 $535 forward 7 unknown #
vertex $-1 $446 $536 #
vertex $-1 $371 $537 #
straight-curve $-1 3.349897653963211 -40.393019849216628 7.2158523200464373 0 1 0 I I #
straight-curve $-1 6.6751523486413191 -19.051711410795974 7.2158523200464399 1 0 0 I I #
edge $-1 $373 -16.675559391960746 $533 3.3252546946781081 $375 $538 forward 7 unknown #
point $-1 23.350711740602065 -27.922792844687656 1.454904569691621 #
coedge $-1 $376 $539 $540 $541 reversed $377 $-1 #
face $-1 $542 $377 $15 $-1 $543 reversed single #
coedge $-1 $544 $379 $545 $546 forward $292 $-1 #
coedge $-1 $540 $547 $379 $458 reversed $548 $-1 #
edge $-1 $459 -27.922792844687656 $549 27.922792844687656 $457 $550 forward 7 unknown #
vertex $-1 $458 $551 #
straight-curve $-1 0 -27.922792844687656 7.2158523200464399 1 0 0 I I #
face $-1 $-1 $475 $13 $-1 $552 reversed single #
loop $-1 $-1 $464 $384 #
plane-surface $-1 0 27.922792844687656 0 0 -1 0 0 0 -1 forward_v I I I I #
coedge $-1 $389 $385 $474 $553 forward $462 $-1 #
coedge $-1 $385 $389 $387 $468 reversed $462 $-1 #
vertex $-1 $393 $554 #
straight-curve $-1 0 27.922792844687656 7.2158523200464399 -1 0 0 I I #
edge $-1 $388 -7.2158523200464399 $391 7.2158523200464399 $465 $555 forward 7 unknown #
point $-1 -48.530533768730734 27.922792844687656 7.2158523200464399 #
vertex $-1 $398 $556 #
straight-curve $-1 0 27.922792844687656 -7.2158523200464399 1 0 0 I I #
point $-1 -48.530533768730734 27.922792844687656 -7.2158523200464399 #
coedge $-1 $397 $392 $394 $477 forward $475 $-1 #
coedge $-1 $392 $397 $464 $553 reversed $475 $-1 #
loop $-1 $-1 $473 $461 #
straight-curve $-1 48.530533768730734 0 7.2158523200464399 0 1 0 I I #
edge $-1 $395 -7.2158523200464399 $399 7.2158523200464399 $473 $557 forward 7 unknown #
point $-1 48.530533768730734 -27.922792844687656 7.2158523200464399 #
straight-curve $-1 48.530533768730734 0 -7.2158523200464399 0 -1 0 I I #
point $-1 48.530533768730734 -27.922792844687656 -7.2158523200464399 #
loop $-1 $-1 $488 $401 #
plane-surface $-1 0 0 -7.2158523200464399 0 0 1 1 0 0 forward_v I I I I #
coedge $-1 $407 $404 $493 $558 reversed $336 $-1 #
coedge $-1 $404 $407 $496 $559 reversed $336 $-1 #
edge $-1 $494 -7.2158523200464399 $498 7.2158523200464399 $404 $560 forward 7 unknown #
coedge $-1 $406 $405 $513 $561 reversed $271 $-1 #
edge $-1 $515 -25.803470918413243 $490 -19.650654782221739 $429 $562 forward 7 unknown #
coedge $-1 $563 $496 $406 $489 forward $481 $-1 #
edge $-1 $491 19.650654782221739 $564 25.803470918413243 $488 $565 forward 7 unknown #
vertex $-1 $487 $566 #
vertex $-1 $489 $567 #
straight-curve $-1 -42.37771763253923 -13.491088204594776 0 0 0 -1 I I #
coedge $-1 $410 $429 $483 $558 forward $120 $-1 #
vertex $-1 $411 $568 #
straight-curve $-1 -22.727062850317491 -16.491088204594774 7.2158523200464399 -1 0 0 I I #
coedge $-1 $488 $412 $484 $559 forward $481 $-1 #
coedge $-1 $412 $422 $414 $501 forward $481 $-1 #
vertex $-1 $413 $569 #
straight-curve $-1 -22.727062850317491 -16.491088204594774 -7.2158523200464399 1 0 0 I I #
coedge $-1 $415 $414 $420 $505 reversed $402 $-1 #
edge $-1 $508 -27.922792844687656 $417 -16.491088204594774 $414 $570 forward 7 unknown #
point $-1 -48.530533768730734 -16.491088204594774 7.2158523200464399 #
point $-1 -48.530533768730734 -16.491088204594774 -7.2158523200464399 #
straight-curve $-1 -48.530533768730734 0 7.2158523200464399 0 -1 0 I I #
edge $-1 $421 -7.2158523200464399 $508 7.2158523200464399 $500 $571 forward 7 unknown #
point $-1 -48.530533768730734 -27.922792844687656 7.2158523200464399 #
coedge $-1 $422 $572 $424 $510 forward $481 $-1 #
vertex $-1 $501 $573 #
straight-curve $-1 0 -27.922792844687656 -7.2158523200464399 -1 0 0 I I #
edge $-1 $519 -27.922792844687656 $425 27.922792844687656 $424 $574 forward 7 unknown #
point $-1 48.530533768730734 -27.922792844687656 -7.2158523200464399 #
plane-surface $-1 0 27.922792844687656 0 0 -1 0 0 0 -1 forward_v I I I I #
coedge $-1 $430 $575 $486 $561 forward $428 $-1 #
coedge $-1 $575 $430 $433 $517 forward $428 $-1 #
vertex $-1 $561 $576 #
coedge $-1 $433 $432 $572 $577 reversed $434 $-1 #
edge $-1 $435 -7.2158523200464399 $578 7.2158523200464399 $433 $579 forward 7 unknown #
point $-1 -48.530533768730734 27.922792844687656 7.2158523200464399 #
vertex $-1 $510 $580 #
straight-curve $-1 48.530533768730734 27.922792844687656 0 0 0 -1 I I #
plane-surface $-1 48.530533768730734 0 0 -1 0 0 0 0 1 forward_v I I I I #
face $-1 $581 $582 $15 $-1 $583 reversed single #
loop $-1 $-1 $584 $440 #
plane-surface $-1 -42.37771763253923 -14.991088204594776 0 -1 0 0 0 0 1 forward_v I I I I #
coedge $-1 $585 $586 $587 $588 reversed $441 $-1 #
coedge $-1 $589 $443 $590 $591 reversed $364 $-1 #
coedge $-1 $443 $589 $592 $593 reversed $364 $-1 #
coedge $-1 $594 $595 $443 $529 forward $582 $-1 #
edge $-1 $596 -7.2158523200464399 $597 7.2158523200464399 $528 $598 forward 7 unknown #
coedge $-1 $444 $590 $595 $599 forward $292 $-1 #
coedge $-1 $600 $445 $444 $532 reversed $377 $-1 #
edge $-1 $601 -48.530533768730734 $448 3.349897653963211 $531 $460 forward 7 unknown #
vertex $-1 $452 $602 #
straight-curve $-1 3.349897653963211 -27.922792844687656 41.428582378467325 0 0 1 I I #
straight-curve $-1 3.349897653963211 -27.922792844687656 1.454904569691621 0 0.83867056331134215 0.54463904215088732 I I #
point $-1 3.349897653963211 -27.922792844687656 7.2158523200464399 #
point $-1 3.349897653963211 -19.051711410795974 7.2158523200464408 #
straight-curve $-1 6.6751523486413191 -27.922792844687656 1.4549045696916199 -1 0 0 I I #
coedge $-1 $454 $600 $603 $604 reversed $377 $-1 #
coedge $-1 $605 $457 $454 $541 forward $548 $-1 #
edge $-1 $459 -7.2158523200464399 $606 7.2158523200464399 $540 $607 forward 7 unknown #
face $-1 $608 $609 $15 $-1 $583 reversed single #
plane-surface $-1 0 -27.922792844687656 0 0 1 0 0 0 1 forward_v I I I I #
coedge $-1 $610 $456 $611 $612 forward $292 $-1 #
coedge $-1 $613 $614 $456 $546 reversed $615 $-1 #
edge $-1 $549 -48.530533768730734 $616 48.530533768730734 $545 $617 forward 7 unknown #
coedge $-1 $457 $605 $613 $618 reversed $548 $-1 #
loop $-1 $-1 $540 $619 #
vertex $-1 $458 $620 #
straight-curve $-1 48.530533768730734 0 7.2158523200464399 0 1 0 I I #
point $-1 48.530533768730734 -27.922792844687656 7.2158523200464399 #
plane-surface $-1 48.530533768730734 0 0 -1 0 0 0 0 1 forward_v I I I I #
edge $-1 $466 -7.2158523200464399 $470 7.2158523200464399 $474 $621 forward 7 unknown #
point $-1 48.530533768730734 27.922792844687656 7.2158523200464399 #
straight-curve $-1 -48.530533768730734 27.922792844687656 0 0 0 -1 I I #
point $-1 48.530533768730734 27.922792844687656 -7.2158523200464399 #
straight-curve $-1 48.530533768730734 -27.922792844687656 0 0 0 -1 I I #
edge $-1 $490 5.9955441022973881 $494 8.9955441022973872 $493 $622 forward 7 unknown #
edge $-1 $498 -8.9955441022973872 $491 -5.9955441022973881 $496 $623 forward 7 unknown #
straight-curve $-1 -42.37771763253923 -16.491088204594774 0 0 0 -1 I I #
edge $-1 $564 -7.2158523200464399 $515 7.2158523200464399 $513 $624 forward 7 unknown #
straight-curve $-1 -22.727062850317491 -13.491088204594776 7.2158523200464399 1 0 0 I I #
coedge $-1 $572 $488 $575 $625 forward $481 $-1 #
vertex $-1 $625 $626 #
straight-curve $-1 -22.727062850317491 -13.491088204594776 -7.2158523200464399 -1 0 0 I I #
point $-1 -42.37771763253923 -13.491088204594776 7.2158523200464399 #
point $-1 -42.37771763253923 -13.491088204594776 -7.2158523200464399 #
point $-1 -42.37771763253923 -16.491088204594774 7.2158523200464399 #
point $-1 -42.37771763253923 -16.491088204594774 -7.2158523200464399 #
straight-curve $-1 -48.530533768730734 0 -7.2158523200464399 0 1 0 I I #
straight-curve $-1 -48.530533768730734 -27.922792844687656 0 0 0 -1 I I #
coedge $-1 $507 $563 $516 $577 forward $481 $-1 #
point $-1 -48.530533768730734 -27.922792844687656 -7.2158523200464399 #
straight-curve $-1 48.530533768730734 0 -7.2158523200464399 0 -1 0 I I #
coedge $-1 $513 $514 $563 $625 reversed $428 $-1 #
point $-1 -48.530533768730734 -13.491088204594776 7.2158523200464399 #
edge $-1 $578 -48.530533768730734 $519 48.530533768730734 $516 $627 forward 7 unknown #
vertex $-1 $577 $628 #
straight-curve $-1 -48.530533768730734 27.922792844687656 0 0 0 -1 I I #
point $-1 48.530533768730734 27.922792844687656 -7.2158523200464399 #
face $-1 $455 $629 $15 $-1 $630 reversed single #
loop $-1 $-1 $528 $522 #
plane-surface $-1 -48.530533768730734 0 0 1 0 0 0 0 -1 forward_v I I I I #
coedge $-1 $631 $632 $589 $633 reversed $523 $-1 #
coedge $-1 $634 $525 $610 $635 reversed $441 $-1 #
coedge $-1 $525 $634 $636 $637 reversed $441 $-1 #
coedge $-1 $632 $631 $525 $588 forward $523 $-1 #
edge $-1 $638 -7.2158523200464399 $639 7.2158523200464399 $587 $640 forward 7 unknown #
coedge $-1 $527 $526 $584 $633 forward $364 $-1 #
coedge $-1 $530 $641 $526 $591 forward $292 $-1 #
edge $-1 $642 19.650654782221739 $596 25.803470918413243 $590 $643 forward 7 unknown #
coedge $-1 $644 $645 $527 $593 forward $629 $-1 #
edge $-1 $597 -25.803470918413243 $646 -19.650654782221739 $592 $647 forward 7 unknown #
coedge $-1 $648 $528 $645 $649 reversed $582 $-1 #
coedge $-1 $528 $648 $530 $599 reversed $582 $-1 #
vertex $-1 $599 $650 #
vertex $-1 $529 $651 #
straight-curve $-1 -48.530533768730734 -16.491088204594774 0 0 0 -1 I I #
edge $-1 $596 16.491088204594774 $601 27.922792844687656 $595 $652 forward 7 unknown #
coedge $-1 $539 $531 $648 $653 forward $377 $-1 #
vertex $-1 $599 $654 #
point $-1 3.349897653963211 -27.922792844687656 1.454904569691621 #
coedge $-1 $645 $655 $539 $604 forward $629 $-1 #
edge $-1 $606 -48.530533768730734 $656 48.530533768730734 $539 $657 forward 7 unknown #
coedge $-1 $547 $540 $655 $658 reversed $548 $-1 #
vertex $-1 $541 $659 #
straight-curve $-1 48.530533768730734 -27.922792844687656 0 0 0 -1 I I #
face $-1 $619 $615 $15 $-1 $660 reversed single #
loop $-1 $-1 $661 $542 #
coedge $-1 $641 $544 $585 $635 forward $292 $-1 #
coedge $-1 $662 $661 $544 $612 reversed $609 $-1 #
edge $-1 $616 -27.922792844687656 $663 13.491088204594776 $611 $652 forward 7 unknown #
coedge $-1 $664 $545 $547 $618 forward $615 $-1 #
coedge $-1 $545 $664 $662 $665 reversed $615 $-1 #
loop $-1 $-1 $613 $608 #
vertex $-1 $546 $666 #
straight-curve $-1 0 27.922792844687656 7.2158523200464399 -1 0 0 I I #
edge $-1 $549 -7.2158523200464399 $667 7.2158523200464399 $547 $668 forward 7 unknown #
face $-1 $-1 $548 $15 $-1 $669 reversed single #
point $-1 48.530533768730734 27.922792844687656 7.2158523200464399 #
straight-curve $-1 48.530533768730734 27.922792844687656 0 0 0 -1 I I #
straight-curve $-1 -42.37771763253923 -7.4955441022973881 7.2158523200464399 0 -1 0 I I #
straight-curve $-1 -42.37771763253923 -7.4955441022973881 -7.2158523200464399 0 1 0 I I #
straight-curve $-1 -48.530533768730734 -13.491088204594776 0 0 0 1 I I #
edge $-1 $564 -13.491088204594776 $578 27.922792844687656 $575 $570 forward 7 unknown #
point $-1 -48.530533768730734 -13.491088204594776 -7.2158523200464399 #
straight-curve $-1 0 27.922792844687656 -7.2158523200464399 1 0 0 I I #
point $-1 -48.530533768730734 27.922792844687656 -7.2158523200464399 #
loop $-1 $-1 $636 $581 #
plane-surface $-1 0 0 -7.2158523200464399 0 0 1 1 0 0 forward_v I I I I #
coedge $-1 $587 $584 $641 $670 reversed $523 $-1 #
coedge $-1 $584 $587 $644 $671 reversed $523 $-1 #
edge $-1 $642 -7.2158523200464399 $646 7.2158523200464399 $584 $672 forward 7 unknown #
coedge $-1 $586 $585 $661 $673 reversed $441 $-1 #
edge $-1 $663 -25.803470918413243 $638 -19.650654782221739 $610 $674 forward 7 unknown #
coedge $-1 $675 $644 $586 $637 forward $629 $-1 #
edge $-1 $639 19.650654782221739 $676 25.803470918413243 $636 $677 forward 7 unknown #
vertex $-1 $635 $678 #
vertex $-1 $637 $679 #
straight-curve $-1 -42.37771763253923 -13.491088204594776 0 0 0 -1 I I #
coedge $-1 $590 $610 $631 $670 forward $292 $-1 #
vertex $-1 $591 $680 #
straight-curve $-1 -22.727062850317491 -16.491088204594774 7.2158523200464399 -1 0 0 I I #
coedge $-1 $636 $592 $632 $671 forward $629 $-1 #
coedge $-1 $592 $603 $594 $649 forward $629 $-1 #
vertex $-1 $593 $681 #
straight-curve $-1 -22.727062850317491 -16.491088204594774 -7.2158523200464399 1 0 0 I I #
coedge $-1 $595 $594 $600 $653 reversed $582 $-1 #
edge $-1 $656 -27.922792844687656 $597 -16.491088204594774 $594 $682 forward 7 unknown #
point $-1 -48.530533768730734 -16.491088204594774 7.2158523200464399 #
point $-1 -48.530533768730734 -16.491088204594774 -7.2158523200464399 #
straight-curve $-1 -48.530533768730734 0 7.2158523200464399 0 -1 0 I I #
edge $-1 $601 -7.2158523200464399 $656 7.2158523200464399 $648 $683 forward 7 unknown #
point $-1 -48.530533768730734 -27.922792844687656 7.2158523200464399 #
coedge $-1 $603 $684 $605 $658 forward $629 $-1 #
vertex $-1 $649 $685 #
straight-curve $-1 0 -27.922792844687656 -7.2158523200464399 -1 0 0 I I #
edge $-1 $667 -27.922792844687656 $606 27.922792844687656 $605 $686 forward 7 unknown #
point $-1 48.530533768730734 -27.922792844687656 -7.2158523200464399 #
plane-surface $-1 0 27.922792844687656 0 0 -1 0 0 0 -1 forward_v I I I I #
coedge $-1 $611 $687 $634 $673 forward $609 $-1 #
coedge $-1 $687 $611 $614 $665 forward $609 $-1 #
vertex $-1 $673 $688 #
coedge $-1 $614 $613 $684 $689 reversed $615 $-1 #
edge $-1 $616 -7.2158523200464399 $690 7.2158523200464399 $614 $691 forward 7 unknown #
point $-1 -48.530533768730734 27.922792844687656 7.2158523200464399 #
vertex $-1 $658 $692 #
straight-curve $-1 48.530533768730734 27.922792844687656 0 0 0 -1 I I #
plane-surface $-1 48.530533768730734 0 0 -1 0 0 0 0 1 forward_v I I I I #
edge $-1 $638 5.9955441022973881 $642 8.9955441022973872 $641 $693 forward 7 unknown #
edge $-1 $646 -8.9955441022973872 $639 -5.9955441022973881 $644 $694 forward 7 unknown #
straight-curve $-1 -42.37771763253923 -16.491088204594774 0 0 0 -1 I I #
edge $-1 $676 -7.2158523200464399 $663 7.2158523200464399 $661 $695 forward 7 unknown #
straight-curve $-1 -22.727062850317491 -13.491088204594776 7.2158523200464399 1 0 0 I I #
coedge $-1 $684 $636 $687 $696 forward $629 $-1 #
vertex $-1 $696 $697 #
straight-curve $-1 -22.727062850317491 -13.491088204594776 -7.2158523200464399 -1 0 0 I I #
point $-1 -42.37771763253923 -13.491088204594776 7.2158523200464399 #
point $-1 -42.37771763253923 -13.491088204594776 -7.2158523200464399 #
point $-1 -42.37771763253923 -16.491088204594774 7.2158523200464399 #
point $-1 -42.37771763253923 -16.491088204594774 -7.2158523200464399 #
straight-curve $-1 -48.530533768730734 0 -7.2158523200464399 0 1 0 I I #
straight-curve $-1 -48.530533768730734 -27.922792844687656 0 0 0 -1 I I #
coedge $-1 $655 $675 $664 $689 forward $629 $-1 #
point $-1 -48.530533768730734 -27.922792844687656 -7.2158523200464399 #
straight-curve $-1 48.530533768730734 0 -7.2158523200464399 0 -1 0 I I #
coedge $-1 $661 $662 $675 $696 reversed $609 $-1 #
point $-1 -48.530533768730734 -13.491088204594776 7.2158523200464399 #
edge $-1 $690 -48.530533768730734 $667 48.530533768730734 $664 $698 forward 7 unknown #
vertex $-1 $689 $699 #
straight-curve $-1 -48.530533768730734 27.922792844687656 0 0 0 -1 I I #
point $-1 48.530533768730734 27.922792844687656 -7.2158523200464399 #
straight-curve $-1 -42.37771763253923 -7.4955441022973881 7.2158523200464399 0 -1 0 I I #
straight-curve $-1 -42.37771763253923 -7.4955441022973881 -7.2158523200464399 0 1 0 I I #
straight-curve $-1 -48.530533768730734 -13.491088204594776 0 0 0 1 I I #
edge $-1 $676 -13.491088204594776 $690 27.922792844687656 $687 $682 forward 7 unknown #
point $-1 -48.530533768730734 -13.491088204594776 -7.2158523200464399 #
straight-curve $-1 0 27.922792844687656 -7.2158523200464399 1 0 0 I I #
point $-1 -48.530533768730734 27.922792844687656 -7.2158523200464399 #
End-of-ACIS-data 