500 0 11 0           
7 Unknown 11 ACIS 5.0 NT 24 Thu Mar 25 16:55:00 1999 
-1 9.9999999999999995e-007 1e-010 
body $-1 $11 $-1 $12 #
body $-1 $13 $-1 $14 #
body $-1 $15 $-1 $16 #
body $-1 $17 $-1 $18 #
body $-1 $19 $-1 $20 #
body $-1 $21 $-1 $22 #
body $-1 $23 $-1 $24 #
body $-1 $25 $-1 $26 #
body $-1 $27 $-1 $28 #
body $-1 $29 $-1 $30 #
body $-1 $31 $-1 $32 #
lump $-1 $-1 $33 $0 #
transform $-1 1 0 0 0 1 0 0 0 1 58.412427137058629 28.841837821380818 7.7021006954688742 1 rotate no_reflect no_shear #
lump $-1 $-1 $34 $1 #
transform $-1 1 0 0 0 1 0 0 0 1 58.412427137058629 28.841837821380818 7.7021006954688742 1 rotate no_reflect no_shear #
lump $-1 $-1 $35 $2 #
transform $-1 1 0 0 0 1 0 0 0 1 58.412427137058629 28.841837821380818 7.7021006954688742 1 rotate no_reflect no_shear #
lump $-1 $-1 $36 $3 #
transform $-1 1 0 0 0 1 0 0 0 1 58.412427137058629 28.841837821380818 7.7021006954688742 1 rotate no_reflect no_shear #
lump $-1 $-1 $37 $4 #
transform $-1 1 0 0 0 1 0 0 0 1 58.412427137058629 28.841837821380818 7.7021006954688742 1 rotate no_reflect no_shear #
lump $-1 $-1 $38 $5 #
transform $-1 1 0 0 0 1 0 0 0 1 58.412427137058629 28.841837821380818 7.7021006954688742 1 rotate no_reflect no_shear #
lump $-1 $-1 $39 $6 #
transform $-1 1 0 0 0 1 0 0 0 1 58.412427137058629 28.841837821380818 7.7021006954688742 1 rotate no_reflect no_shear #
lump $-1 $-1 $40 $7 #
transform $-1 1 0 0 0 1 0 0 0 1 58.412427137058629 28.841837821380818 7.7021006954688742 1 rotate no_reflect no_shear #
lump $-1 $-1 $41 $8 #
transform $-1 1 0 0 0 1 0 0 0 1 58.412427137058629 28.841837821380818 7.7021006954688742 1 rotate no_reflect no_shear #
lump $-1 $-1 $42 $9 #
transform $-1 1 0 0 0 1 0 0 0 1 58.412427137058629 28.841837821380818 7.7021006954688742 1 rotate no_reflect no_shear #
lump $-1 $-1 $43 $10 #
transform $-1 1 0 0 0 1 0 0 0 1 58.412427137058629 28.841837821380818 7.7021006954688742 1 rotate no_reflect no_shear #
shell $-1 $-1 $-1 $44 $-1 $11 #
shell $-1 $-1 $-1 $45 $-1 $13 #
shell $-1 $-1 $-1 $46 $-1 $15 #
shell $-1 $-1 $-1 $47 $-1 $17 #
shell $-1 $-1 $-1 $48 $-1 $19 #
shell $-1 $-1 $-1 $49 $-1 $21 #
shell $-1 $-1 $-1 $50 $-1 $23 #
shell $-1 $-1 $-1 $51 $-1 $25 #
shell $-1 $-1 $-1 $52 $-1 $27 #
shell $-1 $-1 $-1 $53 $-1 $29 #
shell $-1 $-1 $-1 $54 $-1 $31 #
face $-1 $55 $56 $33 $-1 $57 forward single #
face $-1 $58 $59 $34 $-1 $60 reversed single #
face $-1 $61 $62 $35 $-1 $63 forward single #
face $-1 $64 $65 $36 $-1 $66 forward single #
face $-1 $67 $68 $37 $-1 $69 forward single #
face $-1 $70 $71 $38 $-1 $72 reversed single #
face $-1 $73 $74 $39 $-1 $75 forward single #
face $-1 $76 $77 $40 $-1 $78 forward single #
face $-1 $79 $80 $41 $-1 $81 reversed single #
face $-1 $82 $83 $42 $-1 $84 forward single #
face $-1 $85 $86 $43 $-1 $87 forward single #
face $-1 $88 $89 $33 $-1 $90 reversed single #
loop $-1 $-1 $91 $44 #
plane-surface $-1 0 0 7.7021006954688742 0 0 1 1 0 0 forward_v I I I I #
face $-1 $92 $93 $34 $-1 $94 reversed single #
loop $-1 $-1 $95 $45 #
plane-surface $-1 -2.376109090550635 72.808158500077226 126.76155926606218 1 0 0 0 -0.71933980857756763 -0.69465836192734942 forward_v I I I I #
face $-1 $96 $97 $35 $-1 $98 forward single #
loop $-1 $99 $100 $46 #
cone-surface $-1 3.5462446627601949 25.880113303829059 4.7209976148458139 0 -0.71933980857756763 -0.69465836192734942 1 0 0 1 I I 0 1 1 forward I I I I #
face $-1 $101 $102 $36 $-1 $103 forward single #
loop $-1 $104 $105 $47 #
cone-surface $-1 12.429775292726447 25.880113303829059 4.7209976148458139 0 -0.71933980857756763 -0.69465836192734942 1 0 0 1 I I 0 1 1 forward I I I I #
face $-1 $106 $107 $37 $-1 $108 forward single #
loop $-1 $109 $110 $48 #
cone-surface $-1 21.313305922692706 25.880113303829059 4.7209976148458139 0 -0.71933980857756763 -0.69465836192734942 1 0 0 1 I I 0 1 1 forward I I I I #
face $-1 $111 $112 $38 $-1 $113 reversed single #
loop $-1 $-1 $114 $49 #
plane-surface $-1 -31.215196281644086 -122.14231586155159 72.328164163478618 -1 0 0 0 -0.79863551827123203 0.60181501223851219 forward_v I I I I #
face $-1 $115 $116 $39 $-1 $117 forward single #
loop $-1 $118 $119 $50 #
cone-surface $-1 -42.446974274541262 -26.164956563253217 4.4574102747485043 0 0.79863551827123203 -0.60181501223851219 1 0 0 1 I I 0 1 1 forward I I I I #
face $-1 $120 $121 $40 $-1 $122 forward single #
loop $-1 $123 $124 $51 #
cone-surface $-1 -35.707907478802952 -26.164956563253217 4.4574102747485043 0 0.79863551827123203 -0.60181501223851219 1 0 0 1 I I 0 1 1 forward I I I I #
face $-1 $125 $126 $41 $-1 $127 reversed single #
loop $-1 $-1 $128 $52 #
plane-surface $-1 27.197230855414542 -122.14231586155159 72.328164163478618 -1 0 0 0 -0.79863551827123203 0.60181501223851219 forward_v I I I I #
face $-1 $129 $130 $42 $-1 $131 forward single #
loop $-1 $132 $133 $53 #
cone-surface $-1 15.965452862517367 -26.164956563253217 4.4574102747485043 0 0.79863551827123203 -0.60181501223851219 1 0 0 1 I I 0 1 1 forward I I I I #
face $-1 $134 $135 $43 $-1 $136 forward single #
loop $-1 $137 $138 $54 #
cone-surface $-1 22.704519658255677 -26.164956563253217 4.4574102747485043 0 0.79863551827123203 -0.60181501223851219 1 0 0 1 I I 0 1 1 forward I I I I #
face $-1 $139 $140 $33 $-1 $141 reversed single #
loop $-1 $-1 $142 $55 #
plane-surface $-1 0 0 -7.7021006954688742 0 0 1 1 0 0 forward_v I I I I #
coedge $-1 $143 $144 $145 $146 forward $56 $-1 #
face $-1 $147 $148 $34 $-1 $149 reversed single #
loop $-1 $-1 $150 $58 #
plane-surface $-1 12.429775292726461 -11.228609810568514 45.608197363602585 0 0.71933980857756763 0.69465836192734942 1 0 0 forward_v I I I I #
coedge $-1 $151 $152 $153 $154 reversed $59 $-1 #
face $-1 $-1 $155 $35 $-1 $156 forward single #
loop $-1 $157 $158 $61 #
cone-surface $-1 3.5462446627601949 24.291197107798819 3.1865991166495578 0 -0.71933980857756763 -0.69465836192734942 0.5 0 0 1 I I -0.70710678118654724 0.70710678118654791 0.5 forward I I I I #
loop $-1 $-1 $159 $46 #
coedge $-1 $100 $100 $160 $161 reversed $62 $-1 #
face $-1 $-1 $162 $36 $-1 $163 forward single #
loop $-1 $164 $165 $64 #
cone-surface $-1 12.429775292726447 24.291197107798819 3.1865991166495578 0 -0.71933980857756763 -0.69465836192734942 0.5 0 0 1 I I -0.70710678118654724 0.70710678118654791 0.5 forward I I I I #
loop $-1 $-1 $166 $47 #
coedge $-1 $105 $105 $167 $168 reversed $65 $-1 #
face $-1 $-1 $169 $37 $-1 $170 forward single #
loop $-1 $171 $172 $67 #
cone-surface $-1 21.313305922692706 24.291197107798819 3.1865991166495578 0 -0.71933980857756763 -0.69465836192734942 0.5 0 0 1 I I -0.70710678118654724 0.70710678118654791 0.5 forward I I I I #
loop $-1 $-1 $173 $48 #
coedge $-1 $110 $110 $174 $175 reversed $68 $-1 #
face $-1 $176 $177 $38 $-1 $178 reversed single #
loop $-1 $-1 $179 $70 #
plane-surface $-1 -39.077440876672114 -28.841837821380807 2.0212130587383399 0 -0.79863551827123203 0.60181501223851219 1 0 0 forward_v I I I I #
coedge $-1 $180 $181 $182 $183 reversed $71 $-1 #
face $-1 $-1 $184 $39 $-1 $185 forward single #
loop $-1 $186 $187 $73 #
cone-surface $-1 -42.446974274541262 -25.229185428552249 3.7522561662741447 0 0.79863551827123203 -0.60181501223851219 0.5 0 0 1 I I -0.70710678118654779 0.70710678118654713 0.5 forward I I I I #
loop $-1 $-1 $188 $50 #
coedge $-1 $119 $119 $189 $190 reversed $74 $-1 #
face $-1 $-1 $191 $40 $-1 $192 forward single #
loop $-1 $193 $194 $76 #
cone-surface $-1 -35.707907478802952 -25.229185428552249 3.7522561662741447 0 0.79863551827123203 -0.60181501223851219 0.5 0 0 1 I I -0.70710678118654779 0.70710678118654713 0.5 forward I I I I #
loop $-1 $-1 $195 $51 #
coedge $-1 $124 $124 $196 $197 reversed $77 $-1 #
face $-1 $198 $199 $41 $-1 $200 reversed single #
loop $-1 $-1 $201 $79 #
plane-surface $-1 19.334986260386515 -28.841837821380807 2.0212130587383399 0 -0.79863551827123203 0.60181501223851219 1 0 0 forward_v I I I I #
coedge $-1 $202 $203 $204 $205 reversed $80 $-1 #
face $-1 $-1 $206 $42 $-1 $207 forward single #
loop $-1 $208 $209 $82 #
cone-surface $-1 15.965452862517367 -25.229185428552249 3.7522561662741447 0 0.79863551827123203 -0.60181501223851219 0.5 0 0 1 I I -0.70710678118654779 0.70710678118654713 0.5 forward I I I I #
loop $-1 $-1 $210 $53 #
coedge $-1 $133 $133 $211 $212 reversed $83 $-1 #
face $-1 $-1 $213 $43 $-1 $214 forward single #
loop $-1 $215 $216 $85 #
cone-surface $-1 22.704519658255677 -25.229185428552249 3.7522561662741447 0 0.79863551827123203 -0.60181501223851219 0.5 0 0 1 I I -0.70710678118654779 0.70710678118654713 0.5 forward I I I I #
loop $-1 $-1 $217 $54 #
coedge $-1 $138 $138 $218 $219 reversed $86 $-1 #
face $-1 $220 $221 $33 $-1 $222 reversed single #
loop $-1 $-1 $223 $88 #
plane-surface $-1 0 -28.841837821380818 0 0 1 0 0 0 1 forward_v I I I I #
coedge $-1 $224 $225 $226 $227 forward $89 $-1 #
coedge $-1 $228 $91 $229 $230 forward $56 $-1 #
coedge $-1 $91 $228 $231 $232 forward $56 $-1 #
coedge $-1 $233 $234 $91 $146 reversed $235 $-1 #
edge $-1 $236 -28.841837821380818 $237 28.841837821380818 $145 $238 forward 7 unknown #
face $-1 $239 $240 $34 $-1 $241 reversed single #
loop $-1 $-1 $242 $92 #
plane-surface $-1 27.235659676003557 72.808158500077226 126.76155926606218 -1 0 0 0 0.71933980857756763 0.69465836192734942 forward_v I I I I #
coedge $-1 $243 $244 $245 $246 reversed $93 $-1 #
coedge $-1 $152 $95 $247 $248 reversed $59 $-1 #
coedge $-1 $95 $151 $243 $249 reversed $59 $-1 #
coedge $-1 $245 $250 $95 $154 forward $251 $-1 #
edge $-1 $252 7.5622414286577957 $253 11.027197880278379 $153 $254 forward 7 unknown #
loop $-1 $-1 $160 $96 #
plane-surface $-1 12.429775292726461 -11.228609810568514 45.608197363602585 0 0.71933980857756763 0.69465836192734942 1 0 0 forward_v I I I I #
loop $-1 $-1 $255 $61 #
coedge $-1 $158 $158 $159 $256 reversed $97 $-1 #
coedge $-1 $159 $159 $158 $256 forward $99 $-1 #
coedge $-1 $160 $160 $100 $161 forward $155 $-1 #
edge $-1 $257 1.4531764150732595e-015 $257 6.2831853071796022 $160 $258 forward 7 unknown #
loop $-1 $-1 $167 $101 #
plane-surface $-1 12.429775292726461 -11.228609810568514 45.608197363602585 0 0.71933980857756763 0.69465836192734942 1 0 0 forward_v I I I I #
loop $-1 $-1 $259 $64 #
coedge $-1 $165 $165 $166 $260 reversed $102 $-1 #
coedge $-1 $166 $166 $165 $260 forward $104 $-1 #
coedge $-1 $167 $167 $105 $168 forward $162 $-1 #
edge $-1 $261 1.4531764150732595e-015 $261 6.2831853071796022 $167 $262 forward 7 unknown #
loop $-1 $-1 $174 $106 #
plane-surface $-1 12.429775292726461 -11.228609810568514 45.608197363602585 0 0.71933980857756763 0.69465836192734942 1 0 0 forward_v I I I I #
loop $-1 $-1 $263 $67 #
coedge $-1 $172 $172 $173 $264 reversed $107 $-1 #
coedge $-1 $173 $173 $172 $264 forward $109 $-1 #
coedge $-1 $174 $174 $110 $175 forward $169 $-1 #
edge $-1 $265 1.4531764150732595e-015 $265 6.2831853071796022 $174 $266 forward 7 unknown #
face $-1 $267 $268 $38 $-1 $269 reversed single #
loop $-1 $-1 $270 $111 #
plane-surface $-1 -46.939685471700145 -122.14231586155159 72.328164163478618 1 0 0 0 0.79863551827123203 -0.60181501223851219 forward_v I I I I #
coedge $-1 $271 $272 $273 $274 reversed $112 $-1 #
coedge $-1 $181 $114 $275 $276 reversed $71 $-1 #
coedge $-1 $114 $180 $271 $277 reversed $71 $-1 #
coedge $-1 $273 $278 $114 $183 forward $279 $-1 #
edge $-1 $280 32.229320109394976 $281 36.51017587451949 $182 $282 forward 7 unknown #
loop $-1 $-1 $189 $115 #
plane-surface $-1 -39.077440876672114 -28.841837821380807 2.0212130587383399 0 -0.79863551827123203 0.60181501223851219 1 0 0 forward_v I I I I #
loop $-1 $-1 $283 $73 #
coedge $-1 $187 $187 $188 $284 reversed $116 $-1 #
coedge $-1 $188 $188 $187 $284 forward $118 $-1 #
coedge $-1 $189 $189 $119 $190 forward $184 $-1 #
edge $-1 $285 1.4085777365854137e-015 $285 6.2831853071796022 $189 $286 forward 7 unknown #
loop $-1 $-1 $196 $120 #
plane-surface $-1 -39.077440876672114 -28.841837821380807 2.0212130587383399 0 -0.79863551827123203 0.60181501223851219 1 0 0 forward_v I I I I #
loop $-1 $-1 $287 $76 #
coedge $-1 $194 $194 $195 $288 reversed $121 $-1 #
coedge $-1 $195 $195 $194 $288 forward $123 $-1 #
coedge $-1 $196 $196 $124 $197 forward $191 $-1 #
edge $-1 $289 1.4085777365854137e-015 $289 6.2831853071796022 $196 $290 forward 7 unknown #
face $-1 $291 $292 $41 $-1 $293 reversed single #
loop $-1 $-1 $294 $125 #
plane-surface $-1 11.472741665358487 -122.14231586155159 72.328164163478618 1 0 0 0 0.79863551827123203 -0.60181501223851219 forward_v I I I I #
coedge $-1 $295 $296 $297 $298 reversed $126 $-1 #
coedge $-1 $203 $128 $299 $300 reversed $80 $-1 #
coedge $-1 $128 $202 $295 $301 reversed $80 $-1 #
coedge $-1 $297 $302 $128 $205 forward $303 $-1 #
edge $-1 $304 32.229320109394976 $305 36.51017587451949 $204 $306 forward 7 unknown #
loop $-1 $-1 $211 $129 #
plane-surface $-1 19.334986260386515 -28.841837821380807 2.0212130587383399 0 -0.79863551827123203 0.60181501223851219 1 0 0 forward_v I I I I #
loop $-1 $-1 $307 $82 #
coedge $-1 $209 $209 $210 $308 reversed $130 $-1 #
coedge $-1 $210 $210 $209 $308 forward $132 $-1 #
coedge $-1 $211 $211 $133 $212 forward $206 $-1 #
edge $-1 $309 1.4085777365854137e-015 $309 6.2831853071796022 $211 $310 forward 7 unknown #
loop $-1 $-1 $218 $134 #
plane-surface $-1 19.334986260386515 -28.841837821380807 2.0212130587383399 0 -0.79863551827123203 0.60181501223851219 1 0 0 forward_v I I I I #
loop $-1 $-1 $311 $85 #
coedge $-1 $216 $216 $217 $312 reversed $135 $-1 #
coedge $-1 $217 $217 $216 $312 forward $137 $-1 #
coedge $-1 $218 $218 $138 $219 forward $213 $-1 #
edge $-1 $313 1.4085777365854137e-015 $313 6.2831853071796022 $218 $314 forward 7 unknown #
face $-1 $315 $316 $33 $-1 $317 reversed single #
loop $-1 $-1 $318 $139 #
plane-surface $-1 -58.412427137058629 0 0 1 0 0 0 0 -1 forward_v I I I I #
coedge $-1 $319 $231 $320 $321 forward $140 $-1 #
coedge $-1 $322 $142 $319 $323 forward $89 $-1 #
coedge $-1 $142 $322 $324 $325 forward $89 $-1 #
coedge $-1 $234 $233 $142 $227 reversed $235 $-1 #
edge $-1 $326 -28.841837821380818 $327 28.841837821380818 $226 $328 forward 7 unknown #
coedge $-1 $144 $143 $329 $330 forward $56 $-1 #
coedge $-1 $331 $332 $143 $230 reversed $316 $-1 #
edge $-1 $237 -58.412427137058629 $333 58.412427137058629 $229 $334 forward 7 unknown #
coedge $-1 $223 $335 $144 $232 reversed $140 $-1 #
edge $-1 $336 -58.412427137058629 $236 58.412427137058629 $231 $337 forward 7 unknown #
coedge $-1 $226 $145 $335 $338 forward $235 $-1 #
coedge $-1 $145 $226 $331 $339 reversed $235 $-1 #
loop $-1 $-1 $233 $315 #
vertex $-1 $146 $340 #
vertex $-1 $146 $341 #
straight-curve $-1 58.412427137058629 0 7.7021006954688742 0 1 0 I I #
face $-1 $-1 $251 $34 $-1 $342 forward single #
loop $-1 $-1 $343 $147 #
plane-surface $-1 0 28.841837821380818 0 0 -1 0 0 0 -1 forward_v I I I I #
coedge $-1 $344 $345 $346 $347 reversed $148 $-1 #
coedge $-1 $348 $150 $152 $249 forward $93 $-1 #
coedge $-1 $150 $348 $344 $349 forward $93 $-1 #
coedge $-1 $346 $153 $150 $246 forward $251 $-1 #
edge $-1 $253 -8.5909967369138656 $350 21.020772029640327 $245 $351 forward 7 unknown #
coedge $-1 $352 $353 $151 $248 forward $240 $-1 #
edge $-1 $354 -59.266746464343157 $252 -55.678678937562218 $247 $355 forward 7 unknown #
edge $-1 $253 52.695674862051284 $354 57.683675642761628 $152 $356 forward 7 unknown #
coedge $-1 $153 $346 $352 $357 forward $251 $-1 #
loop $-1 $-1 $346 $239 #
vertex $-1 $248 $358 #
vertex $-1 $154 $359 #
straight-curve $-1 -2.376109090550635 36.404079250038613 7.7021006954688715 0 -1 0 I I #
coedge $-1 $255 $255 $-1 $360 reversed $157 $-1 #
edge $-1 $361 0 $361 6.2831853071796004 $158 $362 forward 7 unknown #
vertex $-1 $161 $363 #
ellipse-curve $-1 3.5462446627601949 27.109359595570524 5.9080669320784036 0 0.71933980857756763 0.69465836192734942 1 0 0 1 I I #
coedge $-1 $259 $259 $-1 $364 reversed $164 $-1 #
edge $-1 $365 0 $365 6.2831853071796004 $165 $366 forward 7 unknown #
vertex $-1 $168 $367 #
ellipse-curve $-1 12.429775292726447 27.109359595570524 5.9080669320784036 0 0.71933980857756763 0.69465836192734942 1 0 0 1 I I #
coedge $-1 $263 $263 $-1 $368 reversed $171 $-1 #
edge $-1 $369 0 $369 6.2831853071796004 $172 $370 forward 7 unknown #
vertex $-1 $175 $371 #
ellipse-curve $-1 21.313305922692706 27.109359595570524 5.9080669320784036 0 0.71933980857756763 0.69465836192734942 1 0 0 1 I I #
face $-1 $-1 $279 $38 $-1 $372 forward single #
loop $-1 $-1 $373 $176 #
plane-surface $-1 0 -28.841837821380818 0 0 1 0 0 0 1 forward_v I I I I #
coedge $-1 $374 $375 $376 $377 reversed $177 $-1 #
coedge $-1 $378 $179 $181 $277 forward $112 $-1 #
coedge $-1 $179 $378 $374 $379 forward $112 $-1 #
coedge $-1 $376 $182 $179 $274 forward $279 $-1 #
edge $-1 $281 11.67647584330803 $380 27.400965033364088 $273 $381 forward 7 unknown #
coedge $-1 $382 $383 $180 $276 forward $268 $-1 #
edge $-1 $384 -34.142869023000983 $280 -28.461981386270434 $275 $385 forward 7 unknown #
edge $-1 $281 -7.1132419066806332 $384 1.7763522598814293e-014 $181 $386 forward 7 unknown #
coedge $-1 $182 $376 $382 $387 forward $279 $-1 #
loop $-1 $-1 $376 $267 #
vertex $-1 $276 $388 #
vertex $-1 $183 $389 #
straight-curve $-1 -31.215196281644086 -61.071157930775797 7.7021006954688715 0 1 0 I I #
coedge $-1 $283 $283 $-1 $390 reversed $186 $-1 #
edge $-1 $391 0 $391 6.2831853071796004 $187 $392 forward 7 unknown #
vertex $-1 $190 $393 #
ellipse-curve $-1 -42.446974274541262 -26.701409938818561 4.8616568771036022 0 -0.79863551827123203 0.60181501223851219 1 0 0 1 I I #
coedge $-1 $287 $287 $-1 $394 reversed $193 $-1 #
edge $-1 $395 0 $395 6.2831853071796004 $194 $396 forward 7 unknown #
vertex $-1 $197 $397 #
ellipse-curve $-1 -35.707907478802952 -26.701409938818561 4.8616568771036022 0 -0.79863551827123203 0.60181501223851219 1 0 0 1 I I #
face $-1 $-1 $303 $41 $-1 $398 forward single #
loop $-1 $-1 $399 $198 #
plane-surface $-1 0 -28.841837821380818 0 0 1 0 0 0 1 forward_v I I I I #
coedge $-1 $400 $401 $402 $403 reversed $199 $-1 #
coedge $-1 $404 $201 $203 $301 forward $126 $-1 #
coedge $-1 $201 $404 $400 $405 forward $126 $-1 #
coedge $-1 $402 $204 $201 $298 forward $303 $-1 #
edge $-1 $305 -17.529737725221285 $406 -1.8052485351652301 $297 $407 forward 7 unknown #
coedge $-1 $408 $409 $202 $300 forward $292 $-1 #
edge $-1 $410 -34.142869023000983 $304 -28.461981386270434 $299 $411 forward 7 unknown #
edge $-1 $305 -7.1132419066806332 $410 1.7763522598814293e-014 $203 $412 forward 7 unknown #
coedge $-1 $204 $402 $408 $413 forward $303 $-1 #
loop $-1 $-1 $402 $291 #
vertex $-1 $300 $414 #
vertex $-1 $205 $415 #
straight-curve $-1 27.197230855414542 -61.071157930775797 7.7021006954688715 0 1 0 I I #
coedge $-1 $307 $307 $-1 $416 reversed $208 $-1 #
edge $-1 $417 0 $417 6.2831853071796004 $209 $418 forward 7 unknown #
vertex $-1 $212 $419 #
ellipse-curve $-1 15.965452862517367 -26.701409938818561 4.8616568771036022 0 -0.79863551827123203 0.60181501223851219 1 0 0 1 I I #
coedge $-1 $311 $311 $-1 $420 reversed $215 $-1 #
edge $-1 $421 0 $421 6.2831853071796004 $216 $422 forward 7 unknown #
vertex $-1 $219 $423 #
ellipse-curve $-1 22.704519658255677 -26.701409938818561 4.8616568771036022 0 -0.79863551827123203 0.60181501223851219 1 0 0 1 I I #
face $-1 $-1 $235 $33 $-1 $424 reversed single #
loop $-1 $-1 $331 $220 #
plane-surface $-1 0 28.841837821380818 0 0 -1 0 0 0 -1 forward_v I I I I #
coedge $-1 $425 $329 $332 $426 forward $221 $-1 #
coedge $-1 $335 $223 $224 $323 reversed $140 $-1 #
coedge $-1 $329 $425 $223 $321 reversed $221 $-1 #
edge $-1 $336 -7.7021006954688742 $427 7.7021006954688742 $320 $428 forward 7 unknown #
coedge $-1 $225 $224 $425 $429 forward $89 $-1 #
edge $-1 $327 -58.412427137058629 $427 58.412427137058629 $319 $430 forward 7 unknown #
coedge $-1 $332 $331 $225 $325 reversed $316 $-1 #
edge $-1 $431 -58.412427137058629 $326 58.412427137058629 $324 $432 forward 7 unknown #
vertex $-1 $227 $433 #
vertex $-1 $338 $434 #
straight-curve $-1 58.412427137058629 0 -7.7021006954688742 0 -1 0 I I #
coedge $-1 $318 $320 $228 $330 reversed $221 $-1 #
edge $-1 $333 -28.841837821380818 $336 28.841837821380818 $329 $435 forward 7 unknown #
coedge $-1 $324 $229 $234 $339 forward $316 $-1 #
coedge $-1 $229 $324 $318 $426 reversed $316 $-1 #
vertex $-1 $230 $436 #
straight-curve $-1 0 28.841837821380818 7.7021006954688742 -1 0 0 I I #
coedge $-1 $231 $319 $233 $338 reversed $140 $-1 #
vertex $-1 $330 $437 #
straight-curve $-1 0 -28.841837821380818 7.7021006954688742 1 0 0 I I #
edge $-1 $236 -7.7021006954688742 $327 7.7021006954688742 $233 $438 forward 7 unknown #
edge $-1 $237 -7.7021006954688742 $326 7.7021006954688742 $234 $439 forward 7 unknown #
point $-1 58.412427137058629 -28.841837821380818 7.7021006954688742 #
point $-1 58.412427137058629 28.841837821380818 7.7021006954688742 #
plane-surface $-1 0 0 7.7021006954688742 0 0 1 1 0 0 forward_v I I I I #
coedge $-1 $353 $352 $345 $440 forward $240 $-1 #
coedge $-1 $345 $242 $244 $349 reversed $148 $-1 #
coedge $-1 $242 $344 $343 $440 reversed $148 $-1 #
coedge $-1 $250 $245 $242 $347 forward $251 $-1 #
edge $-1 $350 -11.027197880278379 $441 -7.5622414286577957 $346 $442 forward 7 unknown #
coedge $-1 $244 $243 $353 $443 reversed $93 $-1 #
edge $-1 $444 -57.683675642761628 $350 -52.695674862051284 $344 $445 forward 7 unknown #
vertex $-1 $246 $446 #
straight-curve $-1 6.2148876463632305 25.37688136976023 7.7021006954688787 1 0 0 I I #
coedge $-1 $343 $247 $250 $357 reversed $240 $-1 #
coedge $-1 $247 $343 $348 $443 forward $240 $-1 #
vertex $-1 $248 $447 #
straight-curve $-1 -2.376109090550635 28.841837821380818 63.380779633031089 0 0 1 I I #
straight-curve $-1 -2.376109090550635 -11.228609810568514 45.608197363602585 0 0.69465836192734942 -0.71933980857756763 I I #
edge $-1 $441 -27.235659676003557 $252 2.376109090550635 $352 $448 forward 7 unknown #
point $-1 -2.376109090550635 28.841837821380818 7.7021006954688742 #
point $-1 -2.376109090550635 25.376881369760234 7.7021006954688715 #
edge $-1 $449 1 $449 0 $255 $-1 forward 7 unknown #
vertex $-1 $256 $450 #
ellipse-curve $-1 3.5462446627601949 24.650867012087602 3.5339282976132327 0 0.71933980857756763 0.69465836192734942 1 0 0 1 I I #
point $-1 4.5462446627601949 27.109359595570517 5.9080669320783947 #
edge $-1 $451 1 $451 0 $259 $-1 forward 7 unknown #
vertex $-1 $260 $452 #
ellipse-curve $-1 12.429775292726447 24.650867012087602 3.5339282976132327 0 0.71933980857756763 0.69465836192734942 1 0 0 1 I I #
point $-1 13.429775292726447 27.109359595570517 5.9080669320783947 #
edge $-1 $453 1 $453 0 $263 $-1 forward 7 unknown #
vertex $-1 $264 $454 #
ellipse-curve $-1 21.313305922692706 24.650867012087602 3.5339282976132327 0 0.71933980857756763 0.69465836192734942 1 0 0 1 I I #
point $-1 22.313305922692706 27.109359595570517 5.9080669320783947 #
plane-surface $-1 0 0 7.7021006954688742 0 0 1 1 0 0 forward_v I I I I #
coedge $-1 $383 $382 $375 $455 forward $268 $-1 #
coedge $-1 $375 $270 $272 $379 reversed $177 $-1 #
coedge $-1 $270 $374 $373 $455 reversed $177 $-1 #
coedge $-1 $278 $273 $270 $377 forward $279 $-1 #
edge $-1 $380 -36.51017587451949 $456 -32.229320109394976 $376 $457 forward 7 unknown #
coedge $-1 $272 $271 $383 $458 reversed $112 $-1 #
edge $-1 $459 -1.7763522598814293e-014 $380 7.1132419066806332 $374 $460 forward 7 unknown #
vertex $-1 $274 $461 #
straight-curve $-1 -19.538720438336057 -24.5609820562563 7.7021006954688742 -1 0 0 I I #
coedge $-1 $373 $275 $278 $387 reversed $268 $-1 #
coedge $-1 $275 $373 $378 $458 forward $268 $-1 #
vertex $-1 $276 $462 #
straight-curve $-1 -31.215196281644086 -28.841837821380821 36.164082081739309 0 0 1 I I #
straight-curve $-1 -31.215196281644086 -28.841837821380807 2.0212130587383399 0 -0.60181501223851219 -0.79863551827123203 I I #
edge $-1 $456 -46.939685471700145 $280 -31.215196281644086 $382 $463 forward 7 unknown #
point $-1 -31.215196281644086 -28.841837821380818 7.7021006954688742 #
point $-1 -31.215196281644086 -24.560982056256304 7.7021006954688742 #
edge $-1 $464 1 $464 0 $283 $-1 forward 7 unknown #
vertex $-1 $284 $465 #
ellipse-curve $-1 -42.446974274541262 -25.628503187687866 4.0531636723934001 0 -0.79863551827123203 0.60181501223851219 1 0 0 1 I I #
point $-1 -41.446974274541262 -26.701409938818564 4.8616568771036066 #
edge $-1 $466 1 $466 0 $287 $-1 forward 7 unknown #
vertex $-1 $288 $467 #
ellipse-curve $-1 -35.707907478802952 -25.628503187687866 4.0531636723934001 0 -0.79863551827123203 0.60181501223851219 1 0 0 1 I I #
point $-1 -34.707907478802952 -26.701409938818564 4.8616568771036066 #
plane-surface $-1 0 0 7.7021006954688742 0 0 1 1 0 0 forward_v I I I I #
coedge $-1 $409 $408 $401 $468 forward $292 $-1 #
coedge $-1 $401 $294 $296 $405 reversed $199 $-1 #
coedge $-1 $294 $400 $399 $468 reversed $199 $-1 #
coedge $-1 $302 $297 $294 $403 forward $303 $-1 #
edge $-1 $406 -36.51017587451949 $469 -32.229320109394976 $402 $470 forward 7 unknown #
coedge $-1 $296 $295 $409 $471 reversed $126 $-1 #
edge $-1 $472 -1.7763522598814293e-014 $406 7.1132419066806332 $400 $473 forward 7 unknown #
vertex $-1 $298 $474 #
straight-curve $-1 9.6674931301932574 -24.5609820562563 7.7021006954688742 -1 0 0 I I #
coedge $-1 $399 $299 $302 $413 reversed $292 $-1 #
coedge $-1 $299 $399 $404 $471 forward $292 $-1 #
vertex $-1 $300 $475 #
straight-curve $-1 27.197230855414542 -28.841837821380821 36.164082081739309 0 0 1 I I #
straight-curve $-1 27.197230855414542 -28.841837821380807 2.0212130587383399 0 -0.60181501223851219 -0.79863551827123203 I I #
edge $-1 $469 11.472741665358487 $304 27.197230855414542 $408 $476 forward 7 unknown #
point $-1 27.197230855414542 -28.841837821380818 7.7021006954688742 #
point $-1 27.197230855414542 -24.560982056256304 7.7021006954688742 #
edge $-1 $477 1 $477 0 $307 $-1 forward 7 unknown #
vertex $-1 $308 $478 #
ellipse-curve $-1 15.965452862517367 -25.628503187687866 4.0531636723934001 0 -0.79863551827123203 0.60181501223851219 1 0 0 1 I I #
point $-1 16.965452862517367 -26.701409938818564 4.8616568771036066 #
edge $-1 $479 1 $479 0 $311 $-1 forward 7 unknown #
vertex $-1 $312 $480 #
ellipse-curve $-1 22.704519658255677 -25.628503187687866 4.0531636723934001 0 -0.79863551827123203 0.60181501223851219 1 0 0 1 I I #
point $-1 23.704519658255677 -26.701409938818564 4.8616568771036066 #
plane-surface $-1 58.412427137058629 0 0 -1 0 0 0 0 1 forward_v I I I I #
coedge $-1 $320 $318 $322 $429 reversed $221 $-1 #
edge $-1 $333 -7.7021006954688742 $431 7.7021006954688742 $332 $481 forward 7 unknown #
vertex $-1 $429 $482 #
straight-curve $-1 -58.412427137058629 -28.841837821380818 0 0 0 -1 I I #
edge $-1 $427 -28.841837821380818 $431 28.841837821380818 $425 $483 forward 7 unknown #
straight-curve $-1 0 -28.841837821380818 -7.7021006954688742 -1 0 0 I I #
vertex $-1 $325 $484 #
straight-curve $-1 0 28.841837821380818 -7.7021006954688742 1 0 0 I I #
point $-1 58.412427137058629 28.841837821380818 -7.7021006954688742 #
point $-1 58.412427137058629 -28.841837821380818 -7.7021006954688742 #
straight-curve $-1 -58.412427137058629 0 7.7021006954688742 0 -1 0 I I #
point $-1 -58.412427137058629 28.841837821380818 7.7021006954688742 #
point $-1 -58.412427137058629 -28.841837821380818 7.7021006954688742 #
straight-curve $-1 58.412427137058629 -28.841837821380818 0 0 0 -1 I I #
straight-curve $-1 58.412427137058629 28.841837821380818 0 0 0 -1 I I #
edge $-1 $441 55.678678937562218 $444 59.266746464343157 $343 $485 forward 7 unknown #
vertex $-1 $357 $486 #
straight-curve $-1 27.235659676003557 36.404079250038613 7.7021006954688715 0 1 0 I I #
edge $-1 $444 -21.020772029640327 $354 8.5909967369138656 $353 $487 forward 7 unknown #
vertex $-1 $443 $488 #
straight-curve $-1 27.235659676003557 -11.228609810568514 45.608197363602585 0 -0.69465836192734942 0.71933980857756763 I I #
point $-1 27.235659676003557 25.376881369760234 7.7021006954688715 #
point $-1 -2.376109090550635 28.841837821380821 4.1140331686879321 #
straight-curve $-1 0 28.841837821380818 7.7021006954688742 -1 0 0 I I #
vertex $-1 $360 $489 #
point $-1 4.5462446627601949 24.650867012087602 3.5339282976132327 #
vertex $-1 $364 $490 #
point $-1 13.429775292726447 24.650867012087602 3.5339282976132327 #
vertex $-1 $368 $491 #
point $-1 22.313305922692706 24.650867012087602 3.5339282976132327 #
edge $-1 $456 28.461981386270434 $459 34.142869023000983 $373 $492 forward 7 unknown #
vertex $-1 $387 $493 #
straight-curve $-1 -46.939685471700145 -61.071157930775797 7.7021006954688715 0 -1 0 I I #
edge $-1 $459 -27.400965033364088 $384 -11.67647584330803 $383 $494 forward 7 unknown #
vertex $-1 $458 $495 #
straight-curve $-1 -46.939685471700145 -28.841837821380807 2.0212130587383399 0 0.60181501223851219 0.79863551827123203 I I #
point $-1 -46.939685471700145 -24.560982056256304 7.7021006954688742 #
point $-1 -31.215196281644086 -28.841837821380818 2.0212130587383257 #
straight-curve $-1 0 -28.841837821380818 7.7021006954688742 1 0 0 I I #
vertex $-1 $390 $496 #
point $-1 -41.446974274541262 -25.628503187687866 4.0531636723934001 #
vertex $-1 $394 $497 #
point $-1 -34.707907478802952 -25.628503187687866 4.0531636723934001 #
edge $-1 $469 28.461981386270434 $472 34.142869023000983 $399 $498 forward 7 unknown #
vertex $-1 $413 $499 #
straight-curve $-1 11.472741665358487 -61.071157930775797 7.7021006954688715 0 -1 0 I I #
edge $-1 $472 1.8052485351652301 $410 17.529737725221285 $409 $500 forward 7 unknown #
vertex $-1 $471 $501 #
straight-curve $-1 11.472741665358487 -28.841837821380807 2.0212130587383399 0 0.60181501223851219 0.79863551827123203 I I #
point $-1 11.472741665358487 -24.560982056256304 7.7021006954688742 #
point $-1 27.197230855414542 -28.841837821380818 2.0212130587383257 #
straight-curve $-1 0 -28.841837821380818 7.7021006954688742 1 0 0 I I #
vertex $-1 $416 $502 #
point $-1 16.965452862517367 -25.628503187687866 4.0531636723934001 #
vertex $-1 $420 $503 #
point $-1 23.704519658255677 -25.628503187687866 4.0531636723934001 #
straight-curve $-1 -58.412427137058629 28.841837821380818 0 0 0 -1 I I #
point $-1 -58.412427137058629 -28.841837821380818 -7.7021006954688742 #
straight-curve $-1 -58.412427137058629 0 -7.7021006954688742 0 1 0 I I #
point $-1 -58.412427137058629 28.841837821380818 -7.7021006954688742 #
straight-curve $-1 27.235659676003557 28.841837821380818 63.380779633031089 0 0 -1 I I #
point $-1 27.235659676003557 28.841837821380818 7.7021006954688742 #
straight-curve $-1 6.2148876463632305 28.841837821380814 4.1140331686879392 -1 0 0 I I #
point $-1 27.235659676003557 28.841837821380821 4.1140331686879321 #
point $-1 3.5462446627601949 23.931527203510036 2.8392699356858828 #
point $-1 12.429775292726447 23.931527203510036 2.8392699356858828 #
point $-1 21.313305922692706 23.931527203510036 2.8392699356858828 #
straight-curve $-1 -46.939685471700145 -28.841837821380821 36.164082081739309 0 0 -1 I I #
point $-1 -46.939685471700145 -28.841837821380818 7.7021006954688742 #
straight-curve $-1 -19.538720438336057 -28.841837821380818 2.0212130587383297 1 0 0 I I #
point $-1 -46.939685471700145 -28.841837821380818 2.0212130587383257 #
point $-1 -42.446974274541262 -24.829867669416632 3.4513486601548888 #
point $-1 -35.707907478802952 -24.829867669416632 3.4513486601548888 #
straight-curve $-1 11.472741665358487 -28.841837821380821 36.164082081739309 0 0 -1 I I #
point $-1 11.472741665358487 -28.841837821380818 7.7021006954688742 #
straight-curve $-1 9.6674931301932574 -28.841837821380818 2.0212130587383297 1 0 0 I I #
point $-1 11.472741665358487 -28.841837821380818 2.0212130587383257 #
point $-1 15.965452862517367 -24.829867669416632 3.4513486601548888 #
point $-1 22.704519658255677 -24.829867669416632 3.4513486601548888 #
End-of-ACIS-data 