500 0 8 0           
7 Unknown 11 ACIS 5.0 NT 24 Thu Mar 25 18:03:46 1999 
-1 9.9999999999999995e-007 1e-010 
body $-1 $8 $-1 $9 #
body $-1 $10 $-1 $11 #
body $-1 $12 $-1 $13 #
body $-1 $14 $-1 $15 #
body $-1 $16 $-1 $17 #
body $-1 $18 $-1 $19 #
body $-1 $20 $-1 $21 #
body $-1 $22 $-1 $23 #
lump $-1 $-1 $24 $0 #
transform $-1 1 0 0 0 1 0 0 0 1 64.193853572191529 29.520709328060796 9.8342602866394007 1 rotate no_reflect no_shear #
lump $-1 $-1 $25 $1 #
transform $-1 1 0 0 0 1 0 0 0 1 17.937718374511114 -6.1734796295555396 9.8342602866394007 1 rotate no_reflect no_shear #
lump $-1 $-1 $26 $2 #
transform $-1 1 0 0 0 1 0 0 0 1 17.937718374511114 65.214898285677123 9.8342602866394007 1 rotate no_reflect no_shear #
lump $-1 $-1 $27 $3 #
transform $-1 0.85716729658548041 0 0.51503808176128008 0 1 0 -0.51503808176128008 0 0.85716729658548041 -66.124558409372042 22.134640433557042 124.29695860519898 1 rotate no_reflect no_shear #
lump $-1 $-1 $28 $4 #
transform $-1 0.85716729658548041 0 0.51503808176128008 0 -1 0 0.51503808176128008 0 -0.85716729658548041 7.6087388672728 22.134640433557042 11.802837070312336 1 rotate no_reflect no_shear #
lump $-1 $-1 $29 $5 #
transform $-1 0.71933979245794832 0 -0.69465837861970381 0 1 0 0.69465837861970381 0 0.71933979245794832 125.2189170126092 21.401810184669031 196.20788643752354 1 rotate no_reflect no_shear #
lump $-1 $-1 $30 $6 #
transform $-1 0.71933979245794832 0 -0.69465837861970381 0 -1 0 -0.69465837861970381 0 -0.71933979245794832 122.72354258814673 19.298299838118815 13.983936381224012 1 rotate no_reflect no_shear #
lump $-1 $-1 $31 $7 #
transform $-1 0.71933979245794832 0 -0.69465837861970381 0 -1 0 -0.69465837861970381 0 -0.71933979245794832 122.72354258814673 23.505320531219247 13.983936381224012 1 rotate no_reflect no_shear #
shell $-1 $-1 $-1 $32 $-1 $8 #
shell $-1 $-1 $-1 $33 $-1 $10 #
shell $-1 $-1 $-1 $34 $-1 $12 #
shell $-1 $-1 $-1 $35 $-1 $14 #
shell $-1 $-1 $-1 $36 $-1 $16 #
shell $-1 $-1 $-1 $37 $-1 $18 #
shell $-1 $-1 $-1 $38 $-1 $20 #
shell $-1 $-1 $-1 $39 $-1 $22 #
face $-1 $40 $41 $24 $-1 $42 forward single #
face $-1 $43 $44 $25 $-1 $45 forward single #
face $-1 $46 $47 $26 $-1 $48 forward single #
face $-1 $49 $50 $27 $-1 $51 forward single #
face $-1 $52 $53 $28 $-1 $54 forward single #
face $-1 $55 $56 $29 $-1 $57 forward single #
face $-1 $58 $59 $30 $-1 $60 forward single #
face $-1 $61 $62 $31 $-1 $63 forward single #
face $-1 $64 $65 $24 $-1 $66 reversed single #
loop $-1 $-1 $67 $32 #
plane-surface $-1 0 0 9.8342602866394007 0 0 1 1 0 0 forward_v I I I I #
face $-1 $68 $69 $25 $-1 $70 reversed single #
loop $-1 $-1 $71 $33 #
plane-surface $-1 0 0 9.8342602866394007 0 0 1 1 0 0 forward_v I I I I #
face $-1 $72 $73 $26 $-1 $74 reversed single #
loop $-1 $-1 $75 $34 #
plane-surface $-1 0 0 9.8342602866394007 0 0 1 1 0 0 forward_v I I I I #
face $-1 $76 $77 $27 $-1 $78 reversed single #
loop $-1 $-1 $79 $35 #
plane-surface $-1 0 0 128.38770714438306 0 0 1 1 0 0 forward_v I I I I #
face $-1 $80 $81 $28 $-1 $82 forward single #
loop $-1 $83 $84 $36 #
cone-surface $-1 0 0 -3.3820154423657947 0 0 1 1.5 0 0 1 I I 0 1 1.5 forward I I I I #
face $-1 $85 $86 $29 $-1 $87 reversed single #
loop $-1 $-1 $88 $37 #
plane-surface $-1 0 0 128.38770714438306 0 0 1 1 0 0 forward_v I I I I #
face $-1 $89 $90 $30 $-1 $91 forward single #
loop $-1 $92 $93 $38 #
cone-surface $-1 0 0 -2.4633320108645886 0 0 1 1 0 0 1 I I 0 1 1 forward I I I I #
face $-1 $94 $95 $31 $-1 $96 forward single #
loop $-1 $97 $98 $39 #
cone-surface $-1 0 0 -2.4633320108645886 0 0 1 1 0 0 1 I I 0 1 1 forward I I I I #
face $-1 $99 $100 $24 $-1 $101 reversed single #
loop $-1 $-1 $102 $40 #
plane-surface $-1 0 0 -9.8342602866394007 0 0 1 1 0 0 forward_v I I I I #
coedge $-1 $103 $104 $105 $106 forward $41 $-1 #
face $-1 $107 $108 $25 $-1 $109 reversed single #
loop $-1 $-1 $110 $43 #
plane-surface $-1 0 0 -9.8342602866394007 0 0 1 1 0 0 forward_v I I I I #
coedge $-1 $111 $112 $113 $114 forward $44 $-1 #
face $-1 $115 $116 $26 $-1 $117 reversed single #
loop $-1 $-1 $118 $46 #
plane-surface $-1 0 0 -9.8342602866394007 0 0 1 1 0 0 forward_v I I I I #
coedge $-1 $119 $120 $121 $122 forward $47 $-1 #
face $-1 $123 $124 $27 $-1 $125 reversed single #
loop $-1 $-1 $126 $49 #
plane-surface $-1 0 0 -128.38770714438306 0 0 1 1 0 0 forward_v I I I I #
coedge $-1 $127 $128 $129 $130 forward $50 $-1 #
face $-1 $-1 $131 $28 $-1 $132 forward single #
loop $-1 $-1 $133 $52 #
plane-surface $-1 0 0 -6.0140308847315893 0 0 -1 -1 0 0 forward_v I I I I #
loop $-1 $-1 $134 $36 #
coedge $-1 $84 $84 $133 $135 reversed $53 $-1 #
face $-1 $136 $137 $29 $-1 $138 reversed single #
loop $-1 $-1 $139 $55 #
plane-surface $-1 0 0 -128.38770714438306 0 0 1 1 0 0 forward_v I I I I #
coedge $-1 $140 $141 $142 $143 forward $56 $-1 #
face $-1 $-1 $144 $30 $-1 $145 forward single #
loop $-1 $-1 $146 $58 #
plane-surface $-1 0 0 -4.4266640217291782 0 0 -1 -1 0 0 forward_v I I I I #
loop $-1 $-1 $147 $38 #
coedge $-1 $93 $93 $146 $148 reversed $59 $-1 #
face $-1 $-1 $149 $31 $-1 $150 forward single #
loop $-1 $-1 $151 $61 #
plane-surface $-1 0 0 -4.4266640217291782 0 0 -1 -1 0 0 forward_v I I I I #
loop $-1 $-1 $152 $39 #
coedge $-1 $98 $98 $151 $153 reversed $62 $-1 #
face $-1 $154 $155 $24 $-1 $156 reversed single #
loop $-1 $-1 $157 $64 #
plane-surface $-1 0 -29.520709328060796 0 0 1 0 0 0 1 forward_v I I I I #
coedge $-1 $158 $159 $160 $161 forward $65 $-1 #
coedge $-1 $162 $67 $163 $164 forward $41 $-1 #
coedge $-1 $67 $162 $165 $166 forward $41 $-1 #
coedge $-1 $167 $168 $67 $106 reversed $169 $-1 #
edge $-1 $170 -29.520709328060796 $171 29.520709328060796 $105 $172 forward 7 unknown #
face $-1 $173 $174 $25 $-1 $175 reversed single #
loop $-1 $-1 $176 $68 #
plane-surface $-1 0 -6.1734796295555396 0 0 1 0 0 0 1 forward_v I I I I #
coedge $-1 $177 $178 $179 $180 forward $69 $-1 #
coedge $-1 $181 $71 $182 $183 forward $44 $-1 #
coedge $-1 $71 $181 $184 $185 forward $44 $-1 #
coedge $-1 $186 $187 $71 $114 reversed $188 $-1 #
edge $-1 $189 -6.1734796295555396 $190 6.1734796295555396 $113 $191 forward 7 unknown #
face $-1 $192 $193 $26 $-1 $194 reversed single #
loop $-1 $-1 $195 $72 #
plane-surface $-1 0 -6.173479629555537 0 0 1 0 0 0 1 forward_v I I I I #
coedge $-1 $196 $197 $198 $199 forward $73 $-1 #
coedge $-1 $200 $75 $201 $202 forward $47 $-1 #
coedge $-1 $75 $200 $203 $204 forward $47 $-1 #
coedge $-1 $205 $206 $75 $122 reversed $207 $-1 #
edge $-1 $208 -6.173479629555537 $209 6.173479629555537 $121 $210 forward 7 unknown #
face $-1 $211 $212 $27 $-1 $213 reversed single #
loop $-1 $-1 $214 $76 #
plane-surface $-1 0 -3.2861662256271309 0 0 1 0 0 0 1 forward_v I I I I #
coedge $-1 $215 $216 $217 $218 forward $77 $-1 #
coedge $-1 $219 $79 $220 $221 forward $50 $-1 #
coedge $-1 $79 $219 $222 $223 forward $50 $-1 #
coedge $-1 $224 $225 $79 $130 reversed $226 $-1 #
edge $-1 $227 -3.2861662256271309 $228 3.2861662256271309 $129 $229 forward 7 unknown #
loop $-1 $230 $231 $80 #
cone-surface $-1 0 0 0 0 0 1 0.75 0 0 1 I I -0.70710678118654757 0.70710678118654757 0.75 forward I I I I #
coedge $-1 $133 $133 $84 $135 forward $81 $-1 #
coedge $-1 $134 $134 $231 $232 forward $83 $-1 #
edge $-1 $233 0 $233 6.2831853071796004 $133 $234 forward 7 unknown #
face $-1 $235 $236 $29 $-1 $237 reversed single #
loop $-1 $-1 $238 $85 #
plane-surface $-1 0 -4.9081908086171708 0 0 1 0 0 0 1 forward_v I I I I #
coedge $-1 $239 $240 $241 $242 forward $86 $-1 #
coedge $-1 $243 $88 $244 $245 forward $56 $-1 #
coedge $-1 $88 $243 $246 $247 forward $56 $-1 #
coedge $-1 $248 $249 $88 $143 reversed $250 $-1 #
edge $-1 $251 -4.9081908086171708 $252 4.9081908086171708 $142 $253 forward 7 unknown #
loop $-1 $254 $255 $89 #
cone-surface $-1 0 0 0 0 0 1 0.5 0 0 1 I I -0.70710678118654746 0.70710678118654746 0.5 forward I I I I #
coedge $-1 $146 $146 $93 $148 forward $90 $-1 #
coedge $-1 $147 $147 $255 $256 forward $92 $-1 #
edge $-1 $257 0 $257 6.2831853071796004 $146 $258 forward 7 unknown #
loop $-1 $259 $260 $94 #
cone-surface $-1 0 0 0 0 0 1 0.5 0 0 1 I I -0.70710678118654746 0.70710678118654746 0.5 forward I I I I #
coedge $-1 $151 $151 $98 $153 forward $95 $-1 #
coedge $-1 $152 $152 $260 $261 forward $97 $-1 #
edge $-1 $262 0 $262 6.2831853071796004 $151 $263 forward 7 unknown #
face $-1 $264 $265 $24 $-1 $266 reversed single #
loop $-1 $-1 $267 $99 #
plane-surface $-1 -64.193853572191529 0 0 1 0 0 0 0 -1 forward_v I I I I #
coedge $-1 $268 $165 $269 $270 forward $100 $-1 #
coedge $-1 $271 $102 $268 $272 forward $65 $-1 #
coedge $-1 $102 $271 $273 $274 forward $65 $-1 #
coedge $-1 $168 $167 $102 $161 reversed $169 $-1 #
edge $-1 $275 -29.520709328060796 $276 29.520709328060796 $160 $277 forward 7 unknown #
coedge $-1 $104 $103 $278 $279 forward $41 $-1 #
coedge $-1 $280 $281 $103 $164 reversed $265 $-1 #
edge $-1 $171 -64.193853572191529 $282 64.193853572191529 $163 $283 forward 7 unknown #
coedge $-1 $157 $284 $104 $166 reversed $100 $-1 #
edge $-1 $285 -64.193853572191529 $170 64.193853572191529 $165 $286 forward 7 unknown #
coedge $-1 $160 $105 $284 $287 forward $169 $-1 #
coedge $-1 $105 $160 $280 $288 reversed $169 $-1 #
loop $-1 $-1 $167 $264 #
vertex $-1 $106 $289 #
vertex $-1 $106 $290 #
straight-curve $-1 64.193853572191529 0 9.8342602866394007 0 1 0 I I #
face $-1 $291 $292 $25 $-1 $293 reversed single #
loop $-1 $-1 $294 $107 #
plane-surface $-1 -1.7308021987676856 0 0 1 0 0 0 0 -1 forward_v I I I I #
coedge $-1 $295 $184 $296 $297 forward $108 $-1 #
coedge $-1 $298 $110 $295 $299 forward $69 $-1 #
coedge $-1 $110 $298 $300 $301 forward $69 $-1 #
coedge $-1 $187 $186 $110 $180 reversed $188 $-1 #
edge $-1 $302 -6.1734796295555396 $303 6.1734796295555396 $179 $304 forward 7 unknown #
coedge $-1 $112 $111 $305 $306 forward $44 $-1 #
coedge $-1 $307 $308 $111 $183 reversed $292 $-1 #
edge $-1 $190 -1.7308021987676856 $309 1.7308021987676856 $182 $310 forward 7 unknown #
coedge $-1 $176 $311 $112 $185 reversed $108 $-1 #
edge $-1 $312 -1.7308021987676856 $189 1.7308021987676856 $184 $313 forward 7 unknown #
coedge $-1 $179 $113 $311 $314 forward $188 $-1 #
coedge $-1 $113 $179 $307 $315 reversed $188 $-1 #
loop $-1 $-1 $186 $291 #
vertex $-1 $114 $316 #
vertex $-1 $114 $317 #
straight-curve $-1 1.7308021987676856 0 9.8342602866394007 0 1 0 I I #
face $-1 $318 $319 $26 $-1 $320 reversed single #
loop $-1 $-1 $321 $115 #
plane-surface $-1 -1.7308021987676856 0 0 1 0 0 0 0 -1 forward_v I I I I #
coedge $-1 $322 $203 $323 $324 forward $116 $-1 #
coedge $-1 $325 $118 $322 $326 forward $73 $-1 #
coedge $-1 $118 $325 $327 $328 forward $73 $-1 #
coedge $-1 $206 $205 $118 $199 reversed $207 $-1 #
edge $-1 $329 -6.173479629555537 $330 6.173479629555537 $198 $331 forward 7 unknown #
coedge $-1 $120 $119 $332 $333 forward $47 $-1 #
coedge $-1 $334 $335 $119 $202 reversed $319 $-1 #
edge $-1 $209 -1.7308021987676856 $336 1.7308021987676856 $201 $337 forward 7 unknown #
coedge $-1 $195 $338 $120 $204 reversed $116 $-1 #
edge $-1 $339 -1.7308021987676856 $208 1.7308021987676856 $203 $340 forward 7 unknown #
coedge $-1 $198 $121 $338 $341 forward $207 $-1 #
coedge $-1 $121 $198 $334 $342 reversed $207 $-1 #
loop $-1 $-1 $205 $318 #
vertex $-1 $122 $343 #
vertex $-1 $122 $344 #
straight-curve $-1 1.7308021987676856 0 9.8342602866394007 0 1 0 I I #
face $-1 $345 $346 $27 $-1 $347 reversed single #
loop $-1 $-1 $348 $123 #
plane-surface $-1 -256.77541428876611 0 0 1 0 0 0 0 -1 forward_v I I I I #
coedge $-1 $349 $222 $350 $351 forward $124 $-1 #
coedge $-1 $352 $126 $349 $353 forward $77 $-1 #
coedge $-1 $126 $352 $354 $355 forward $77 $-1 #
coedge $-1 $225 $224 $126 $218 reversed $226 $-1 #
edge $-1 $356 -3.2861662256271309 $357 3.2861662256271309 $217 $358 forward 7 unknown #
coedge $-1 $128 $127 $359 $360 forward $50 $-1 #
coedge $-1 $361 $362 $127 $221 reversed $346 $-1 #
edge $-1 $228 -256.77541428876611 $363 256.77541428876611 $220 $364 forward 7 unknown #
coedge $-1 $214 $365 $128 $223 reversed $124 $-1 #
edge $-1 $366 -256.77541428876611 $227 256.77541428876611 $222 $367 forward 7 unknown #
coedge $-1 $217 $129 $365 $368 forward $226 $-1 #
coedge $-1 $129 $217 $361 $369 reversed $226 $-1 #
loop $-1 $-1 $224 $345 #
vertex $-1 $130 $370 #
vertex $-1 $130 $371 #
straight-curve $-1 256.77541428876611 0 128.38770714438306 0 1 0 I I #
loop $-1 $-1 $372 $80 #
coedge $-1 $231 $231 $134 $232 reversed $131 $-1 #
edge $-1 $373 0 $373 6.2831853071796004 $231 $374 forward 7 unknown #
vertex $-1 $135 $375 #
ellipse-curve $-1 0 0 -6.0140308847315893 0 0 -1 1.5 0 0 1 I I #
face $-1 $376 $377 $29 $-1 $378 reversed single #
loop $-1 $-1 $379 $136 #
plane-surface $-1 -256.77541428876611 0 0 1 0 0 0 0 -1 forward_v I I I I #
coedge $-1 $380 $246 $381 $382 forward $137 $-1 #
coedge $-1 $383 $139 $380 $384 forward $86 $-1 #
coedge $-1 $139 $383 $385 $386 forward $86 $-1 #
coedge $-1 $249 $248 $139 $242 reversed $250 $-1 #
edge $-1 $387 -4.9081908086171708 $388 4.9081908086171708 $241 $389 forward 7 unknown #
coedge $-1 $141 $140 $390 $391 forward $56 $-1 #
coedge $-1 $392 $393 $140 $245 reversed $377 $-1 #
edge $-1 $252 -256.77541428876611 $394 256.77541428876611 $244 $395 forward 7 unknown #
coedge $-1 $238 $396 $141 $247 reversed $137 $-1 #
edge $-1 $397 -256.77541428876611 $251 256.77541428876611 $246 $398 forward 7 unknown #
coedge $-1 $241 $142 $396 $399 forward $250 $-1 #
coedge $-1 $142 $241 $392 $400 reversed $250 $-1 #
loop $-1 $-1 $248 $376 #
vertex $-1 $143 $401 #
vertex $-1 $143 $402 #
straight-curve $-1 256.77541428876611 0 128.38770714438306 0 1 0 I I #
loop $-1 $-1 $403 $89 #
coedge $-1 $255 $255 $147 $256 reversed $144 $-1 #
edge $-1 $404 0 $404 6.2831853071796004 $255 $405 forward 7 unknown #
vertex $-1 $148 $406 #
ellipse-curve $-1 0 0 -4.4266640217291782 0 0 -1 1 0 0 1 I I #
loop $-1 $-1 $407 $94 #
coedge $-1 $260 $260 $152 $261 reversed $149 $-1 #
edge $-1 $408 0 $408 6.2831853071796004 $260 $409 forward 7 unknown #
vertex $-1 $153 $410 #
ellipse-curve $-1 0 0 -4.4266640217291782 0 0 -1 1 0 0 1 I I #
face $-1 $-1 $169 $24 $-1 $411 reversed single #
loop $-1 $-1 $280 $154 #
plane-surface $-1 0 29.520709328060796 0 0 -1 0 0 0 -1 forward_v I I I I #
coedge $-1 $412 $278 $281 $413 forward $155 $-1 #
coedge $-1 $284 $157 $158 $272 reversed $100 $-1 #
coedge $-1 $278 $412 $157 $270 reversed $155 $-1 #
edge $-1 $285 -9.8342602866394007 $414 9.8342602866394007 $269 $415 forward 7 unknown #
coedge $-1 $159 $158 $412 $416 forward $65 $-1 #
edge $-1 $276 -64.193853572191529 $414 64.193853572191529 $268 $417 forward 7 unknown #
coedge $-1 $281 $280 $159 $274 reversed $265 $-1 #
edge $-1 $418 -64.193853572191529 $275 64.193853572191529 $273 $419 forward 7 unknown #
vertex $-1 $161 $420 #
vertex $-1 $287 $421 #
straight-curve $-1 64.193853572191529 0 -9.8342602866394007 0 -1 0 I I #
coedge $-1 $267 $269 $162 $279 reversed $155 $-1 #
edge $-1 $282 -29.520709328060796 $285 29.520709328060796 $278 $422 forward 7 unknown #
coedge $-1 $273 $163 $168 $288 forward $265 $-1 #
coedge $-1 $163 $273 $267 $413 reversed $265 $-1 #
vertex $-1 $164 $423 #
straight-curve $-1 0 29.520709328060796 9.8342602866394007 -1 0 0 I I #
coedge $-1 $165 $268 $167 $287 reversed $100 $-1 #
vertex $-1 $279 $424 #
straight-curve $-1 0 -29.520709328060796 9.8342602866394007 1 0 0 I I #
edge $-1 $170 -9.8342602866394007 $276 9.8342602866394007 $167 $425 forward 7 unknown #
edge $-1 $171 -9.8342602866394007 $275 9.8342602866394007 $168 $426 forward 7 unknown #
point $-1 64.193853572191529 -29.520709328060796 9.8342602866394007 #
point $-1 64.193853572191529 29.520709328060796 9.8342602866394007 #
face $-1 $-1 $188 $25 $-1 $427 reversed single #
loop $-1 $-1 $307 $173 #
plane-surface $-1 0 6.1734796295555396 0 0 -1 0 0 0 -1 forward_v I I I I #
coedge $-1 $428 $305 $308 $429 forward $174 $-1 #
coedge $-1 $311 $176 $177 $299 reversed $108 $-1 #
coedge $-1 $305 $428 $176 $297 reversed $174 $-1 #
edge $-1 $312 -9.8342602866394007 $430 9.8342602866394007 $296 $431 forward 7 unknown #
coedge $-1 $178 $177 $428 $432 forward $69 $-1 #
edge $-1 $303 -1.7308021987676856 $430 1.7308021987676856 $295 $433 forward 7 unknown #
coedge $-1 $308 $307 $178 $301 reversed $292 $-1 #
edge $-1 $434 -1.7308021987676856 $302 1.7308021987676856 $300 $435 forward 7 unknown #
vertex $-1 $180 $436 #
vertex $-1 $314 $437 #
straight-curve $-1 1.7308021987676856 0 -9.8342602866394007 0 -1 0 I I #
coedge $-1 $294 $296 $181 $306 reversed $174 $-1 #
edge $-1 $309 -6.1734796295555396 $312 6.1734796295555396 $305 $438 forward 7 unknown #
coedge $-1 $300 $182 $187 $315 forward $292 $-1 #
coedge $-1 $182 $300 $294 $429 reversed $292 $-1 #
vertex $-1 $183 $439 #
straight-curve $-1 0 6.1734796295555396 9.8342602866394007 -1 0 0 I I #
coedge $-1 $184 $295 $186 $314 reversed $108 $-1 #
vertex $-1 $306 $440 #
straight-curve $-1 0 -6.1734796295555396 9.8342602866394007 1 0 0 I I #
edge $-1 $189 -9.8342602866394007 $303 9.8342602866394007 $186 $441 forward 7 unknown #
edge $-1 $190 -9.8342602866394007 $302 9.8342602866394007 $187 $442 forward 7 unknown #
point $-1 1.7308021987676856 -6.1734796295555396 9.8342602866394007 #
point $-1 1.7308021987676856 6.1734796295555396 9.8342602866394007 #
face $-1 $-1 $207 $26 $-1 $443 reversed single #
loop $-1 $-1 $334 $192 #
plane-surface $-1 0 6.173479629555537 0 0 -1 0 0 0 -1 forward_v I I I I #
coedge $-1 $444 $332 $335 $445 forward $193 $-1 #
coedge $-1 $338 $195 $196 $326 reversed $116 $-1 #
coedge $-1 $332 $444 $195 $324 reversed $193 $-1 #
edge $-1 $339 -9.8342602866394007 $446 9.8342602866394007 $323 $447 forward 7 unknown #
coedge $-1 $197 $196 $444 $448 forward $73 $-1 #
edge $-1 $330 -1.7308021987676856 $446 1.7308021987676856 $322 $449 forward 7 unknown #
coedge $-1 $335 $334 $197 $328 reversed $319 $-1 #
edge $-1 $450 -1.7308021987676856 $329 1.7308021987676856 $327 $451 forward 7 unknown #
vertex $-1 $199 $452 #
vertex $-1 $341 $453 #
straight-curve $-1 1.7308021987676856 0 -9.8342602866394007 0 -1 0 I I #
coedge $-1 $321 $323 $200 $333 reversed $193 $-1 #
edge $-1 $336 -6.173479629555537 $339 6.173479629555537 $332 $454 forward 7 unknown #
coedge $-1 $327 $201 $206 $342 forward $319 $-1 #
coedge $-1 $201 $327 $321 $445 reversed $319 $-1 #
vertex $-1 $202 $455 #
straight-curve $-1 0 6.173479629555537 9.8342602866394007 -1 0 0 I I #
coedge $-1 $203 $322 $205 $341 reversed $116 $-1 #
vertex $-1 $333 $456 #
straight-curve $-1 0 -6.173479629555537 9.8342602866394007 1 0 0 I I #
edge $-1 $208 -9.8342602866394007 $330 9.8342602866394007 $205 $457 forward 7 unknown #
edge $-1 $209 -9.8342602866394007 $329 9.8342602866394007 $206 $458 forward 7 unknown #
point $-1 1.7308021987676856 -6.173479629555537 9.8342602866394007 #
point $-1 1.7308021987676856 6.173479629555537 9.8342602866394007 #
face $-1 $-1 $226 $27 $-1 $459 reversed single #
loop $-1 $-1 $361 $211 #
plane-surface $-1 0 3.2861662256271309 0 0 -1 0 0 0 -1 forward_v I I I I #
coedge $-1 $460 $359 $362 $461 forward $212 $-1 #
coedge $-1 $365 $214 $215 $353 reversed $124 $-1 #
coedge $-1 $359 $460 $214 $351 reversed $212 $-1 #
edge $-1 $366 -128.38770714438306 $462 128.38770714438306 $350 $463 forward 7 unknown #
coedge $-1 $216 $215 $460 $464 forward $77 $-1 #
edge $-1 $357 -256.77541428876611 $462 256.77541428876611 $349 $465 forward 7 unknown #
coedge $-1 $362 $361 $216 $355 reversed $346 $-1 #
edge $-1 $466 -256.77541428876611 $356 256.77541428876611 $354 $467 forward 7 unknown #
vertex $-1 $218 $468 #
vertex $-1 $368 $469 #
straight-curve $-1 256.77541428876611 0 -128.38770714438306 0 -1 0 I I #
coedge $-1 $348 $350 $219 $360 reversed $212 $-1 #
edge $-1 $363 -3.2861662256271309 $366 3.2861662256271309 $359 $470 forward 7 unknown #
coedge $-1 $354 $220 $225 $369 forward $346 $-1 #
coedge $-1 $220 $354 $348 $461 reversed $346 $-1 #
vertex $-1 $221 $471 #
straight-curve $-1 0 3.2861662256271309 128.38770714438306 -1 0 0 I I #
coedge $-1 $222 $349 $224 $368 reversed $124 $-1 #
vertex $-1 $360 $472 #
straight-curve $-1 0 -3.2861662256271309 128.38770714438306 1 0 0 I I #
edge $-1 $227 -128.38770714438306 $357 128.38770714438306 $224 $473 forward 7 unknown #
edge $-1 $228 -128.38770714438306 $356 128.38770714438306 $225 $474 forward 7 unknown #
point $-1 256.77541428876611 -3.2861662256271309 128.38770714438306 #
point $-1 256.77541428876611 3.2861662256271309 128.38770714438306 #
coedge $-1 $372 $372 $-1 $475 reversed $230 $-1 #
vertex $-1 $232 $476 #
ellipse-curve $-1 0 0 -0.75 0 0 -1 1.5 0 0 1 I I #
point $-1 1.5 0 -6.0140308847315893 #
face $-1 $-1 $250 $29 $-1 $477 reversed single #
loop $-1 $-1 $392 $235 #
plane-surface $-1 0 4.9081908086171708 0 0 -1 0 0 0 -1 forward_v I I I I #
coedge $-1 $478 $390 $393 $479 forward $236 $-1 #
coedge $-1 $396 $238 $239 $384 reversed $137 $-1 #
coedge $-1 $390 $478 $238 $382 reversed $236 $-1 #
edge $-1 $397 -128.38770714438306 $480 128.38770714438306 $381 $481 forward 7 unknown #
coedge $-1 $240 $239 $478 $482 forward $86 $-1 #
edge $-1 $388 -256.77541428876611 $480 256.77541428876611 $380 $483 forward 7 unknown #
coedge $-1 $393 $392 $240 $386 reversed $377 $-1 #
edge $-1 $484 -256.77541428876611 $387 256.77541428876611 $385 $485 forward 7 unknown #
vertex $-1 $242 $486 #
vertex $-1 $399 $487 #
straight-curve $-1 256.77541428876611 0 -128.38770714438306 0 -1 0 I I #
coedge $-1 $379 $381 $243 $391 reversed $236 $-1 #
edge $-1 $394 -4.9081908086171708 $397 4.9081908086171708 $390 $488 forward 7 unknown #
coedge $-1 $385 $244 $249 $400 forward $377 $-1 #
coedge $-1 $244 $385 $379 $479 reversed $377 $-1 #
vertex $-1 $245 $489 #
straight-curve $-1 0 4.9081908086171708 128.38770714438306 -1 0 0 I I #
coedge $-1 $246 $380 $248 $399 reversed $137 $-1 #
vertex $-1 $391 $490 #
straight-curve $-1 0 -4.9081908086171708 128.38770714438306 1 0 0 I I #
edge $-1 $251 -128.38770714438306 $388 128.38770714438306 $248 $491 forward 7 unknown #
edge $-1 $252 -128.38770714438306 $387 128.38770714438306 $249 $492 forward 7 unknown #
point $-1 256.77541428876611 -4.9081908086171708 128.38770714438306 #
point $-1 256.77541428876611 4.9081908086171708 128.38770714438306 #
coedge $-1 $403 $403 $-1 $493 reversed $254 $-1 #
vertex $-1 $256 $494 #
ellipse-curve $-1 0 0 -0.5 0 0 -1 1 0 0 1 I I #
point $-1 1 0 -4.4266640217291782 #
coedge $-1 $407 $407 $-1 $495 reversed $259 $-1 #
vertex $-1 $261 $496 #
ellipse-curve $-1 0 0 -0.5 0 0 -1 1 0 0 1 I I #
point $-1 1 0 -4.4266640217291782 #
plane-surface $-1 64.193853572191529 0 0 -1 0 0 0 0 1 forward_v I I I I #
coedge $-1 $269 $267 $271 $416 reversed $155 $-1 #
edge $-1 $282 -9.8342602866394007 $418 9.8342602866394007 $281 $497 forward 7 unknown #
vertex $-1 $416 $498 #
straight-curve $-1 -64.193853572191529 -29.520709328060796 0 0 0 -1 I I #
edge $-1 $414 -29.520709328060796 $418 29.520709328060796 $412 $499 forward 7 unknown #
straight-curve $-1 0 -29.520709328060796 -9.8342602866394007 -1 0 0 I I #
vertex $-1 $274 $500 #
straight-curve $-1 0 29.520709328060796 -9.8342602866394007 1 0 0 I I #
point $-1 64.193853572191529 29.520709328060796 -9.8342602866394007 #
point $-1 64.193853572191529 -29.520709328060796 -9.8342602866394007 #
straight-curve $-1 -64.193853572191529 0 9.8342602866394007 0 -1 0 I I #
point $-1 -64.193853572191529 29.520709328060796 9.8342602866394007 #
point $-1 -64.193853572191529 -29.520709328060796 9.8342602866394007 #
straight-curve $-1 64.193853572191529 -29.520709328060796 0 0 0 -1 I I #
straight-curve $-1 64.193853572191529 29.520709328060796 0 0 0 -1 I I #
plane-surface $-1 1.7308021987676856 0 0 -1 0 0 0 0 1 forward_v I I I I #
coedge $-1 $296 $294 $298 $432 reversed $174 $-1 #
edge $-1 $309 -9.8342602866394007 $434 9.8342602866394007 $308 $501 forward 7 unknown #
vertex $-1 $432 $502 #
straight-curve $-1 -1.7308021987676856 -6.1734796295555396 0 0 0 -1 I I #
edge $-1 $430 -6.1734796295555396 $434 6.1734796295555396 $428 $503 forward 7 unknown #
straight-curve $-1 0 -6.1734796295555396 -9.8342602866394007 -1 0 0 I I #
vertex $-1 $301 $504 #
straight-curve $-1 0 6.1734796295555396 -9.8342602866394007 1 0 0 I I #
point $-1 1.7308021987676856 6.1734796295555396 -9.8342602866394007 #
point $-1 1.7308021987676856 -6.1734796295555396 -9.8342602866394007 #
straight-curve $-1 -1.7308021987676856 0 9.8342602866394007 0 -1 0 I I #
point $-1 -1.7308021987676856 6.1734796295555396 9.8342602866394007 #
point $-1 -1.7308021987676856 -6.1734796295555396 9.8342602866394007 #
straight-curve $-1 1.7308021987676856 -6.1734796295555396 0 0 0 -1 I I #
straight-curve $-1 1.7308021987676856 6.1734796295555396 0 0 0 -1 I I #
plane-surface $-1 1.7308021987676856 0 0 -1 0 0 0 0 1 forward_v I I I I #
coedge $-1 $323 $321 $325 $448 reversed $193 $-1 #
edge $-1 $336 -9.8342602866394007 $450 9.8342602866394007 $335 $505 forward 7 unknown #
vertex $-1 $448 $506 #
straight-curve $-1 -1.7308021987676856 -6.173479629555537 0 0 0 -1 I I #
edge $-1 $446 -6.173479629555537 $450 6.173479629555537 $444 $507 forward 7 unknown #
straight-curve $-1 0 -6.173479629555537 -9.8342602866394007 -1 0 0 I I #
vertex $-1 $328 $508 #
straight-curve $-1 0 6.173479629555537 -9.8342602866394007 1 0 0 I I #
point $-1 1.7308021987676856 6.173479629555537 -9.8342602866394007 #
point $-1 1.7308021987676856 -6.173479629555537 -9.8342602866394007 #
straight-curve $-1 -1.7308021987676856 0 9.8342602866394007 0 -1 0 I I #
point $-1 -1.7308021987676856 6.173479629555537 9.8342602866394007 #
point $-1 -1.7308021987676856 -6.173479629555537 9.8342602866394007 #
straight-curve $-1 1.7308021987676856 -6.173479629555537 0 0 0 -1 I I #
straight-curve $-1 1.7308021987676856 6.173479629555537 0 0 0 -1 I I #
plane-surface $-1 256.77541428876611 0 0 -1 0 0 0 0 1 forward_v I I I I #
coedge $-1 $350 $348 $352 $464 reversed $212 $-1 #
edge $-1 $363 -128.38770714438306 $466 128.38770714438306 $362 $509 forward 7 unknown #
vertex $-1 $464 $510 #
straight-curve $-1 -256.77541428876611 -3.2861662256271309 0 0 0 -1 I I #
edge $-1 $462 -3.2861662256271309 $466 3.2861662256271309 $460 $511 forward 7 unknown #
straight-curve $-1 0 -3.2861662256271309 -128.38770714438306 -1 0 0 I I #
vertex $-1 $355 $512 #
straight-curve $-1 0 3.2861662256271309 -128.38770714438306 1 0 0 I I #
point $-1 256.77541428876611 3.2861662256271309 -128.38770714438306 #
point $-1 256.77541428876611 -3.2861662256271309 -128.38770714438306 #
straight-curve $-1 -256.77541428876611 0 128.38770714438306 0 -1 0 I I #
point $-1 -256.77541428876611 3.2861662256271309 128.38770714438306 #
point $-1 -256.77541428876611 -3.2861662256271309 128.38770714438306 #
straight-curve $-1 256.77541428876611 -3.2861662256271309 0 0 0 -1 I I #
straight-curve $-1 256.77541428876611 3.2861662256271309 0 0 0 -1 I I #
edge $-1 $513 1 $513 0 $372 $-1 forward 7 unknown #
point $-1 1.5 0 -0.75 #
plane-surface $-1 256.77541428876611 0 0 -1 0 0 0 0 1 forward_v I I I I #
coedge $-1 $381 $379 $383 $482 reversed $236 $-1 #
edge $-1 $394 -128.38770714438306 $484 128.38770714438306 $393 $514 forward 7 unknown #
vertex $-1 $482 $515 #
straight-curve $-1 -256.77541428876611 -4.9081908086171708 0 0 0 -1 I I #
edge $-1 $480 -4.9081908086171708 $484 4.9081908086171708 $478 $516 forward 7 unknown #
straight-curve $-1 0 -4.9081908086171708 -128.38770714438306 -1 0 0 I I #
vertex $-1 $386 $517 #
straight-curve $-1 0 4.9081908086171708 -128.38770714438306 1 0 0 I I #
point $-1 256.77541428876611 4.9081908086171708 -128.38770714438306 #
point $-1 256.77541428876611 -4.9081908086171708 -128.38770714438306 #
straight-curve $-1 -256.77541428876611 0 128.38770714438306 0 -1 0 I I #
point $-1 -256.77541428876611 4.9081908086171708 128.38770714438306 #
point $-1 -256.77541428876611 -4.9081908086171708 128.38770714438306 #
straight-curve $-1 256.77541428876611 -4.9081908086171708 0 0 0 -1 I I #
straight-curve $-1 256.77541428876611 4.9081908086171708 0 0 0 -1 I I #
edge $-1 $518 1 $518 0 $403 $-1 forward 7 unknown #
point $-1 1 0 -0.5 #
edge $-1 $519 1 $519 0 $407 $-1 forward 7 unknown #
point $-1 1 0 -0.5 #
straight-curve $-1 -64.193853572191529 29.520709328060796 0 0 0 -1 I I #
point $-1 -64.193853572191529 -29.520709328060796 -9.8342602866394007 #
straight-curve $-1 -64.193853572191529 0 -9.8342602866394007 0 1 0 I I #
point $-1 -64.193853572191529 29.520709328060796 -9.8342602866394007 #
straight-curve $-1 -1.7308021987676856 6.1734796295555396 0 0 0 -1 I I #
point $-1 -1.7308021987676856 -6.1734796295555396 -9.8342602866394007 #
straight-curve $-1 -1.7308021987676856 0 -9.8342602866394007 0 1 0 I I #
point $-1 -1.7308021987676856 6.1734796295555396 -9.8342602866394007 #
straight-curve $-1 -1.7308021987676856 6.173479629555537 0 0 0 -1 I I #
point $-1 -1.7308021987676856 -6.173479629555537 -9.8342602866394007 #
straight-curve $-1 -1.7308021987676856 0 -9.8342602866394007 0 1 0 I I #
point $-1 -1.7308021987676856 6.173479629555537 -9.8342602866394007 #
straight-curve $-1 -256.77541428876611 3.2861662256271309 0 0 0 -1 I I #
point $-1 -256.77541428876611 -3.2861662256271309 -128.38770714438306 #
straight-curve $-1 -256.77541428876611 0 -128.38770714438306 0 1 0 I I #
point $-1 -256.77541428876611 3.2861662256271309 -128.38770714438306 #
vertex $-1 $475 $520 #
straight-curve $-1 -256.77541428876611 4.9081908086171708 0 0 0 -1 I I #
point $-1 -256.77541428876611 -4.9081908086171708 -128.38770714438306 #
straight-curve $-1 -256.77541428876611 0 -128.38770714438306 0 1 0 I I #
point $-1 -256.77541428876611 4.9081908086171708 -128.38770714438306 #
vertex $-1 $493 $521 #
vertex $-1 $495 $522 #
point $-1 0 0 0.75 #
point $-1 0 0 0.5 #
point $-1 0 0 0.5 #
End-of-ACIS-data 