500 0 8 0           
7 Unknown 11 ACIS 5.0 NT 24 Fri Mar 26 00:48:44 1999 
-1 9.9999999999999995e-007 1e-010 
body $-1 $8 $-1 $9 #
body $-1 $10 $-1 $11 #
body $-1 $12 $-1 $13 #
body $-1 $14 $-1 $15 #
body $-1 $16 $-1 $17 #
body $-1 $18 $-1 $19 #
body $-1 $20 $-1 $21 #
body $-1 $22 $-1 $23 #
lump $-1 $-1 $24 $0 #
transform $-1 1 0 0 0 1 0 0 0 1 62.725302896206543 29.732065400952518 10.041048485578191 1 rotate no_reflect no_shear #
lump $-1 $-1 $25 $1 #
transform $-1 1 0 0 0 1 0 0 0 1 62.725302896206543 29.732065400952518 10.041048485578191 1 rotate no_reflect no_shear #
lump $-1 $-1 $26 $2 #
transform $-1 1 0 0 0 1 0 0 0 1 62.725302896206543 29.732065400952518 10.041048485578191 1 rotate no_reflect no_shear #
lump $-1 $-1 $27 $3 #
transform $-1 1 0 0 0 1 0 0 0 1 62.725302896206543 29.732065400952518 10.041048485578191 1 rotate no_reflect no_shear #
lump $-1 $-1 $28 $4 #
transform $-1 1 0 0 0 1 0 0 0 1 62.725302896206543 29.732065400952518 10.041048485578191 1 rotate no_reflect no_shear #
lump $-1 $-1 $29 $5 #
transform $-1 1 0 0 0 1 0 0 0 1 62.725302896206543 29.732065400952518 10.041048485578191 1 rotate no_reflect no_shear #
lump $-1 $-1 $30 $6 #
transform $-1 1 0 0 0 1 0 0 0 1 62.725302896206543 29.732065400952518 10.041048485578191 1 rotate no_reflect no_shear #
lump $-1 $-1 $31 $7 #
transform $-1 1 0 0 0 1 0 0 0 1 62.725302896206543 29.732065400952518 10.041048485578191 1 rotate no_reflect no_shear #
shell $-1 $-1 $-1 $32 $-1 $8 #
shell $-1 $-1 $-1 $33 $-1 $10 #
shell $-1 $-1 $-1 $34 $-1 $12 #
shell $-1 $-1 $-1 $35 $-1 $14 #
shell $-1 $-1 $-1 $36 $-1 $16 #
shell $-1 $-1 $-1 $37 $-1 $18 #
shell $-1 $-1 $-1 $38 $-1 $20 #
shell $-1 $-1 $-1 $39 $-1 $22 #
face $-1 $40 $41 $24 $-1 $42 forward single #
face $-1 $43 $44 $25 $-1 $45 forward single #
face $-1 $46 $47 $26 $-1 $48 reversed single #
face $-1 $49 $50 $27 $-1 $51 forward single #
face $-1 $52 $53 $28 $-1 $54 forward single #
face $-1 $55 $56 $29 $-1 $57 reversed single #
face $-1 $58 $59 $30 $-1 $60 forward single #
face $-1 $61 $62 $31 $-1 $63 forward single #
face $-1 $64 $65 $24 $-1 $66 reversed single #
loop $-1 $-1 $67 $32 #
plane-surface $-1 0 0 10.041048485578191 0 0 1 1 0 0 forward_v I I I I #
face $-1 $68 $69 $25 $-1 $70 reversed single #
loop $-1 $-1 $71 $33 #
plane-surface $-1 0 -24.018127500088653 1.1732016021125715 0 0 1 1 0 0 forward_v I I I I #
face $-1 $72 $73 $26 $-1 $74 reversed single #
loop $-1 $-1 $75 $34 #
plane-surface $-1 -148.28241133268705 16.494250383648538 92.782777619400932 0 1 0 -0.68199836817093118 0 0.7313536940579346 forward_v I I I I #
face $-1 $76 $77 $27 $-1 $78 forward single #
loop $-1 $79 $80 $35 #
cone-surface $-1 -55.981657877496886 20.276483245735395 3.4847879559956727 0.68199836817093118 0 -0.7313536940579346 1.0970305410869019 0 1.0229975522563968 1 I I 0 1 1.5 forward I I I I #
face $-1 $81 $82 $28 $-1 $83 forward single #
loop $-1 $84 $85 $36 #
cone-surface $-1 -55.981657877496886 25.949832538865675 3.4847879559956727 0.68199836817093118 0 -0.7313536940579346 1.0970305410869019 0 1.0229975522563968 1 I I 0 1 1.5 forward I I I I #
face $-1 $86 $87 $29 $-1 $88 reversed single #
loop $-1 $-1 $89 $37 #
plane-surface $-1 68.916962542214193 11.701393761697265 183.17538241999981 0 -1 0 -0.73135370988377701 0 -0.68199835119979291 forward_v I I I I #
face $-1 $90 $91 $30 $-1 $92 forward single #
loop $-1 $93 $94 $38 #
cone-surface $-1 60.414614877603555 6.0266338690264369 7.6142801467443615 -0.73135370988377701 0 -0.68199835119979291 0.34099917559989645 0 -0.36567685494188851 1 I I 0 1 0.5 forward I I I I #
face $-1 $95 $96 $31 $-1 $97 forward single #
loop $-1 $98 $99 $39 #
cone-surface $-1 60.414614877603555 9.431489804628935 7.6142801467443615 -0.73135370988377701 0 -0.68199835119979291 0.34099917559989645 0 -0.36567685494188851 1 I I 0 1 0.5 forward I I I I #
face $-1 $100 $101 $24 $-1 $102 reversed single #
loop $-1 $-1 $103 $40 #
plane-surface $-1 0 0 -10.041048485578191 0 0 1 1 0 0 forward_v I I I I #
coedge $-1 $104 $105 $106 $107 forward $41 $-1 #
face $-1 $108 $109 $25 $-1 $110 reversed single #
loop $-1 $-1 $111 $43 #
plane-surface $-1 0 -24.018127500088653 -2.6230115650690364 0 0 1 1 0 0 forward_v I I I I #
coedge $-1 $112 $113 $114 $115 reversed $44 $-1 #
face $-1 $116 $117 $26 $-1 $118 forward single #
loop $-1 $-1 $119 $46 #
plane-surface $-1 -62.725302896206557 23.113157892300531 1.0340136513138987 -0.68199836817093118 0 0.7313536940579346 0.7313536940579346 0 0.68199836817093118 forward_v I I I I #
coedge $-1 $120 $121 $122 $123 reversed $47 $-1 #
face $-1 $-1 $124 $27 $-1 $125 forward single #
loop $-1 $126 $127 $49 #
cone-surface $-1 -53.555945138494565 20.276483245735395 0.88352957300185331 0.68199836817093118 0 -0.7313536940579346 0.54851527054345095 0 0.51149877612819838 1 I I -0.70710678118654757 0.70710678118654757 0.75 forward I I I I #
loop $-1 $-1 $128 $35 #
coedge $-1 $80 $80 $129 $130 reversed $50 $-1 #
face $-1 $-1 $131 $28 $-1 $132 forward single #
loop $-1 $133 $134 $52 #
cone-surface $-1 -53.555945138494565 25.949832538865675 0.88352957300185331 0.68199836817093118 0 -0.7313536940579346 0.54851527054345095 0 0.51149877612819838 1 I I -0.70710678118654757 0.70710678118654757 0.75 forward I I I I #
loop $-1 $-1 $135 $36 #
coedge $-1 $85 $85 $136 $137 reversed $53 $-1 #
face $-1 $138 $139 $29 $-1 $140 reversed single #
loop $-1 $-1 $141 $55 #
plane-surface $-1 -22.831803411234361 7.729061836827686 97.618276112558888 0.73135370988377701 0 0.68199835119979291 0.68199835119979291 0 -0.73135370988377701 forward_v I I I I #
coedge $-1 $142 $143 $144 $145 reversed $56 $-1 #
face $-1 $-1 $146 $30 $-1 $147 forward single #
loop $-1 $148 $149 $58 #
cone-surface $-1 59.866099595190718 6.0266338690264369 7.1027813833445173 -0.73135370988377701 0 -0.68199835119979291 0.17049958779994823 0 -0.18283842747094425 1 I I -0.70710678118654746 0.70710678118654746 0.25 forward I I I I #
loop $-1 $-1 $150 $38 #
coedge $-1 $94 $94 $151 $152 reversed $59 $-1 #
face $-1 $-1 $153 $31 $-1 $154 forward single #
loop $-1 $155 $156 $61 #
cone-surface $-1 59.866099595190718 9.431489804628935 7.1027813833445173 -0.73135370988377701 0 -0.68199835119979291 0.17049958779994823 0 -0.18283842747094425 1 I I -0.70710678118654746 0.70710678118654746 0.25 forward I I I I #
loop $-1 $-1 $157 $39 #
coedge $-1 $99 $99 $158 $159 reversed $62 $-1 #
face $-1 $160 $161 $24 $-1 $162 reversed single #
loop $-1 $-1 $163 $64 #
plane-surface $-1 0 -29.732065400952518 0 0 1 0 0 0 1 forward_v I I I I #
coedge $-1 $164 $165 $166 $167 forward $65 $-1 #
coedge $-1 $168 $67 $169 $170 forward $41 $-1 #
coedge $-1 $67 $168 $171 $172 forward $41 $-1 #
coedge $-1 $173 $174 $67 $107 reversed $175 $-1 #
edge $-1 $176 -29.732065400952518 $177 29.732065400952518 $106 $178 forward 7 unknown #
face $-1 $179 $180 $25 $-1 $181 reversed single #
loop $-1 $-1 $182 $68 #
plane-surface $-1 0 -18.304189599224785 -0.72490498147823246 0 -1 0 0 0 -1 forward_v I I I I #
coedge $-1 $183 $184 $185 $186 reversed $69 $-1 #
coedge $-1 $187 $71 $188 $189 forward $44 $-1 #
coedge $-1 $71 $187 $190 $191 reversed $44 $-1 #
coedge $-1 $192 $193 $71 $115 forward $194 $-1 #
edge $-1 $195 6.295125849180458 $196 17.723001650908195 $114 $197 forward 7 unknown #
face $-1 $198 $199 $26 $-1 $200 reversed single #
loop $-1 $-1 $122 $72 #
plane-surface $-1 0 0 10.041048485578191 0 0 1 1 0 0 forward_v I I I I #
coedge $-1 $201 $202 $203 $204 reversed $73 $-1 #
coedge $-1 $121 $75 $205 $206 reversed $47 $-1 #
coedge $-1 $75 $120 $201 $207 reversed $47 $-1 #
coedge $-1 $203 $208 $75 $123 forward $117 $-1 #
edge $-1 $209 11.415902770136981 $210 21.074764881808008 $122 $211 forward 7 unknown #
loop $-1 $-1 $129 $76 #
plane-surface $-1 -62.725302896206557 23.113157892300531 1.0340136513138987 -0.68199836817093118 0 0.7313536940579346 0.7313536940579346 0 0.68199836817093118 forward_v I I I I #
loop $-1 $-1 $212 $49 #
coedge $-1 $127 $127 $128 $213 reversed $77 $-1 #
coedge $-1 $128 $128 $127 $213 forward $79 $-1 #
coedge $-1 $129 $129 $80 $130 forward $124 $-1 #
edge $-1 $214 0 $214 6.2831853071796004 $129 $215 forward 7 unknown #
loop $-1 $-1 $136 $81 #
plane-surface $-1 -62.725302896206557 23.113157892300531 1.0340136513138987 -0.68199836817093118 0 0.7313536940579346 0.7313536940579346 0 0.68199836817093118 forward_v I I I I #
loop $-1 $-1 $216 $52 #
coedge $-1 $134 $134 $135 $217 reversed $82 $-1 #
coedge $-1 $135 $135 $134 $217 forward $84 $-1 #
coedge $-1 $136 $136 $85 $137 forward $131 $-1 #
edge $-1 $218 0 $218 6.2831853071796004 $136 $219 forward 7 unknown #
face $-1 $220 $221 $29 $-1 $222 reversed single #
loop $-1 $-1 $223 $86 #
plane-surface $-1 68.916962542214193 3.7567299119581072 183.17538241999981 0 1 0 0.73135370988377701 0 0.68199835119979291 forward_v I I I I #
coedge $-1 $224 $225 $226 $227 reversed $87 $-1 #
coedge $-1 $143 $89 $228 $229 reversed $56 $-1 #
coedge $-1 $89 $142 $224 $230 reversed $56 $-1 #
coedge $-1 $226 $231 $89 $145 forward $232 $-1 #
edge $-1 $233 -28.266821625099446 $234 -24.376799297777247 $144 $235 forward 7 unknown #
loop $-1 $-1 $151 $90 #
plane-surface $-1 -22.831803411234361 7.729061836827686 97.618276112558888 0.73135370988377701 0 0.68199835119979291 0.68199835119979291 0 -0.73135370988377701 forward_v I I I I #
loop $-1 $-1 $236 $58 #
coedge $-1 $149 $149 $150 $237 reversed $91 $-1 #
coedge $-1 $150 $150 $149 $237 forward $93 $-1 #
coedge $-1 $151 $151 $94 $152 forward $146 $-1 #
edge $-1 $238 0 $238 6.2831853071796004 $151 $239 forward 7 unknown #
loop $-1 $-1 $158 $95 #
plane-surface $-1 -22.831803411234361 7.729061836827686 97.618276112558888 0.73135370988377701 0 0.68199835119979291 0.68199835119979291 0 -0.73135370988377701 forward_v I I I I #
loop $-1 $-1 $240 $61 #
coedge $-1 $156 $156 $157 $241 reversed $96 $-1 #
coedge $-1 $157 $157 $156 $241 forward $98 $-1 #
coedge $-1 $158 $158 $99 $159 forward $153 $-1 #
edge $-1 $242 0 $242 6.2831853071796004 $158 $243 forward 7 unknown #
face $-1 $244 $245 $24 $-1 $246 reversed single #
loop $-1 $-1 $247 $100 #
plane-surface $-1 -62.725302896206543 0 0 1 0 0 0 0 -1 forward_v I I I I #
coedge $-1 $248 $171 $249 $250 forward $101 $-1 #
coedge $-1 $251 $103 $248 $252 forward $65 $-1 #
coedge $-1 $103 $251 $253 $254 forward $65 $-1 #
coedge $-1 $174 $173 $103 $167 reversed $175 $-1 #
edge $-1 $255 -29.732065400952518 $256 29.732065400952518 $166 $257 forward 7 unknown #
coedge $-1 $105 $104 $258 $259 forward $41 $-1 #
coedge $-1 $260 $261 $104 $170 reversed $245 $-1 #
edge $-1 $177 -62.725302896206543 $262 62.725302896206543 $169 $263 forward 7 unknown #
coedge $-1 $163 $264 $105 $172 reversed $101 $-1 #
edge $-1 $265 -62.725302896206543 $176 62.725302896206543 $171 $266 forward 7 unknown #
coedge $-1 $166 $106 $264 $267 forward $175 $-1 #
coedge $-1 $106 $166 $260 $268 reversed $175 $-1 #
loop $-1 $-1 $173 $244 #
vertex $-1 $107 $269 #
vertex $-1 $107 $270 #
straight-curve $-1 62.725302896206543 0 10.041048485578191 0 1 0 I I #
face $-1 $271 $272 $25 $-1 $273 reversed single #
loop $-1 $-1 $274 $108 #
plane-surface $-1 -62.725302896206543 0 0 1 0 0 0 0 -1 forward_v I I I I #
coedge $-1 $275 $188 $193 $276 reversed $109 $-1 #
coedge $-1 $277 $111 $278 $279 reversed $69 $-1 #
coedge $-1 $111 $277 $275 $280 forward $69 $-1 #
coedge $-1 $193 $192 $111 $186 forward $194 $-1 #
edge $-1 $281 -17.723001650908195 $282 -6.295125849180458 $185 $283 forward 7 unknown #
coedge $-1 $113 $112 $274 $284 reversed $44 $-1 #
coedge $-1 $182 $285 $112 $189 reversed $109 $-1 #
edge $-1 $195 -62.725302896206543 $286 62.725302896206543 $188 $287 forward 7 unknown #
coedge $-1 $288 $289 $113 $191 forward $272 $-1 #
edge $-1 $196 -62.725302896206543 $290 62.725302896206543 $190 $291 forward 7 unknown #
coedge $-1 $185 $114 $289 $292 forward $194 $-1 #
coedge $-1 $114 $185 $182 $276 forward $194 $-1 #
loop $-1 $-1 $114 $271 #
vertex $-1 $115 $293 #
vertex $-1 $292 $294 #
straight-curve $-1 62.725302896206543 -12.009063750044326 1.1732016021125715 0 -1 0 I I #
face $-1 $-1 $295 $26 $-1 $296 reversed single #
loop $-1 $-1 $297 $116 #
plane-surface $-1 0 29.732065400952518 0 0 -1 0 0 0 -1 forward_v I I I I #
coedge $-1 $298 $119 $121 $207 forward $73 $-1 #
coedge $-1 $119 $298 $297 $299 reversed $73 $-1 #
coedge $-1 $300 $122 $119 $204 forward $117 $-1 #
edge $-1 $210 4.9376714374982722 $301 18.175486454802261 $203 $302 forward 7 unknown #
coedge $-1 $303 $304 $120 $206 forward $295 $-1 #
edge $-1 $305 -45.357375158386553 $209 -36.350340324122271 $205 $306 forward 7 unknown #
edge $-1 $210 -13.206827544793821 $305 -1.9479204584885432e-014 $121 $307 forward 7 unknown #
coedge $-1 $122 $300 $303 $308 forward $117 $-1 #
vertex $-1 $206 $309 #
vertex $-1 $123 $310 #
straight-curve $-1 -74.141205666343524 16.494250383648538 10.041048485578195 1 0 0 I I #
coedge $-1 $212 $212 $-1 $311 reversed $126 $-1 #
edge $-1 $312 0 $312 6.2831853071796004 $127 $313 forward 7 unknown #
vertex $-1 $130 $314 #
ellipse-curve $-1 -57.895871840371022 20.276483245735395 5.5375310684460546 -0.68199836817093118 0 0.7313536940579346 1.0970305410869019 0 1.0229975522563968 1 I I #
coedge $-1 $216 $216 $-1 $315 reversed $133 $-1 #
edge $-1 $316 0 $316 6.2831853071796004 $134 $317 forward 7 unknown #
vertex $-1 $137 $318 #
ellipse-curve $-1 -57.895871840371022 25.949832538865675 5.5375310684460546 -0.68199836817093118 0 0.7313536940579346 1.0970305410869019 0 1.0229975522563968 1 I I #
face $-1 $-1 $232 $29 $-1 $319 forward single #
loop $-1 $-1 $320 $138 #
plane-surface $-1 62.725302896206543 0 0 -1 0 0 0 0 1 forward_v I I I I #
coedge $-1 $321 $322 $323 $324 reversed $139 $-1 #
coedge $-1 $325 $141 $143 $230 forward $87 $-1 #
coedge $-1 $141 $325 $321 $326 forward $87 $-1 #
coedge $-1 $323 $144 $141 $227 forward $232 $-1 #
edge $-1 $234 -7.8368628432834218 $327 0.10780100645573576 $226 $328 forward 7 unknown #
coedge $-1 $329 $330 $142 $229 forward $221 $-1 #
edge $-1 $331 -85.718181050889555 $233 -81.546642724421716 $228 $332 forward 7 unknown #
edge $-1 $234 119.74674694806433 $331 125.45060579241306 $143 $333 forward 7 unknown #
coedge $-1 $144 $323 $329 $334 forward $232 $-1 #
loop $-1 $-1 $323 $220 #
vertex $-1 $229 $335 #
vertex $-1 $145 $336 #
straight-curve $-1 34.458481271107097 11.701393761697265 10.041048485578187 -1 0 0 I I #
coedge $-1 $236 $236 $-1 $337 reversed $148 $-1 #
edge $-1 $338 0 $338 6.2831853071796004 $149 $339 forward 7 unknown #
vertex $-1 $152 $340 #
ellipse-curve $-1 60.780291732545443 6.0266338690264369 7.9552793223442579 0.73135370988377701 0 0.68199835119979291 0.34099917559989645 0 -0.36567685494188851 1 I I #
coedge $-1 $240 $240 $-1 $341 reversed $155 $-1 #
edge $-1 $342 0 $342 6.2831853071796004 $156 $343 forward 7 unknown #
vertex $-1 $159 $344 #
ellipse-curve $-1 60.780291732545443 9.431489804628935 7.9552793223442579 0.73135370988377701 0 0.68199835119979291 0.34099917559989645 0 -0.36567685494188851 1 I I #
face $-1 $-1 $175 $24 $-1 $345 reversed single #
loop $-1 $-1 $260 $160 #
plane-surface $-1 0 29.732065400952518 0 0 -1 0 0 0 -1 forward_v I I I I #
coedge $-1 $346 $258 $261 $347 forward $161 $-1 #
coedge $-1 $264 $163 $164 $252 reversed $101 $-1 #
coedge $-1 $258 $346 $163 $250 reversed $161 $-1 #
edge $-1 $265 -10.041048485578191 $348 10.041048485578191 $249 $349 forward 7 unknown #
coedge $-1 $165 $164 $346 $350 forward $65 $-1 #
edge $-1 $256 -62.725302896206543 $348 62.725302896206543 $248 $351 forward 7 unknown #
coedge $-1 $261 $260 $165 $254 reversed $245 $-1 #
edge $-1 $352 -62.725302896206543 $255 62.725302896206543 $253 $353 forward 7 unknown #
vertex $-1 $167 $354 #
vertex $-1 $267 $355 #
straight-curve $-1 62.725302896206543 0 -10.041048485578191 0 -1 0 I I #
coedge $-1 $247 $249 $168 $259 reversed $161 $-1 #
edge $-1 $262 -29.732065400952518 $265 29.732065400952518 $258 $356 forward 7 unknown #
coedge $-1 $253 $169 $174 $268 forward $245 $-1 #
coedge $-1 $169 $253 $247 $347 reversed $245 $-1 #
vertex $-1 $170 $357 #
straight-curve $-1 0 29.732065400952518 10.041048485578191 -1 0 0 I I #
coedge $-1 $171 $248 $173 $267 reversed $101 $-1 #
vertex $-1 $259 $358 #
straight-curve $-1 0 -29.732065400952518 10.041048485578191 1 0 0 I I #
edge $-1 $176 -10.041048485578191 $256 10.041048485578191 $173 $359 forward 7 unknown #
edge $-1 $177 -10.041048485578191 $255 10.041048485578191 $174 $360 forward 7 unknown #
point $-1 62.725302896206543 -29.732065400952518 10.041048485578191 #
point $-1 62.725302896206543 29.732065400952518 10.041048485578191 #
face $-1 $-1 $194 $25 $-1 $361 reversed single #
loop $-1 $-1 $190 $179 #
plane-surface $-1 0 -29.732065400952518 0 0 1 0 0 0 1 forward_v I I I I #
coedge $-1 $362 $363 $187 $284 forward $180 $-1 #
coedge $-1 $285 $182 $184 $280 reversed $109 $-1 #
edge $-1 $282 -2.2605590743299202 $195 1.5356540928516877 $193 $364 forward 7 unknown #
coedge $-1 $184 $183 $365 $366 reversed $69 $-1 #
coedge $-1 $289 $288 $183 $279 forward $272 $-1 #
edge $-1 $367 -62.725302896206543 $281 62.725302896206543 $278 $368 forward 7 unknown #
edge $-1 $369 -62.725302896206543 $282 62.725302896206543 $275 $370 forward 7 unknown #
vertex $-1 $279 $371 #
vertex $-1 $186 $372 #
straight-curve $-1 62.725302896206543 -12.009063750044326 -2.6230115650690364 0 1 0 I I #
edge $-1 $290 -17.723001650908195 $286 -6.295125849180458 $274 $373 forward 7 unknown #
coedge $-1 $188 $275 $362 $374 reversed $109 $-1 #
vertex $-1 $284 $375 #
straight-curve $-1 0 -18.304189599224785 1.1732016021125715 -1 0 0 I I #
coedge $-1 $278 $190 $363 $376 forward $272 $-1 #
coedge $-1 $190 $278 $192 $292 reversed $272 $-1 #
vertex $-1 $376 $377 #
straight-curve $-1 0 -29.732065400952518 1.1732016021125715 -1 0 0 I I #
edge $-1 $196 -1.1732016021125715 $281 2.6230115650690364 $192 $378 forward 7 unknown #
point $-1 62.725302896206543 -18.304189599224785 1.1732016021125715 #
point $-1 62.725302896206543 -29.732065400952521 1.1732016021125715 #
loop $-1 $-1 $205 $198 #
plane-surface $-1 -62.725302896206543 0 0 1 0 0 0 0 -1 forward_v I I I I #
coedge $-1 $379 $380 $202 $299 forward $199 $-1 #
coedge $-1 $202 $201 $304 $381 reversed $73 $-1 #
edge $-1 $301 9.3777656357966706 $382 22.58459318059047 $297 $383 forward 7 unknown #
coedge $-1 $208 $203 $380 $384 forward $117 $-1 #
vertex $-1 $384 $385 #
straight-curve $-1 -53.066440784535509 11.556578946150266 10.041048485578189 0 1 0 I I #
coedge $-1 $386 $205 $208 $308 reversed $295 $-1 #
coedge $-1 $205 $386 $298 $381 forward $295 $-1 #
vertex $-1 $206 $387 #
straight-curve $-1 -62.725302896206543 16.494250383648538 46.391388809700466 0 0 1 I I #
straight-curve $-1 -62.725302896206557 16.494250383648538 1.0340136513138987 -0.7313536940579346 0 -0.68199836817093118 I I #
edge $-1 $388 -29.732065400952518 $209 -16.494250383648538 $303 $389 forward 7 unknown #
point $-1 -62.725302896206543 16.494250383648538 10.041048485578191 #
point $-1 -53.066440784535516 16.494250383648538 10.041048485578191 #
edge $-1 $390 1 $390 0 $212 $-1 forward 7 unknown #
vertex $-1 $213 $391 #
ellipse-curve $-1 -54.067443914622764 20.276483245735395 1.4320448435453041 -0.68199836817093118 0 0.7313536940579346 1.0970305410869019 0 1.0229975522563968 1 I I #
point $-1 -56.798841299284113 20.276483245735395 6.5605286207024385 #
edge $-1 $392 1 $392 0 $216 $-1 forward 7 unknown #
vertex $-1 $217 $393 #
ellipse-curve $-1 -54.067443914622764 25.949832538865675 1.4320448435453041 -0.68199836817093118 0 0.7313536940579346 1.0970305410869019 0 1.0229975522563968 1 I I #
point $-1 -56.798841299284113 25.949832538865675 6.5605286207024385 #
plane-surface $-1 0 0 10.041048485578191 0 0 1 1 0 0 forward_v I I I I #
coedge $-1 $330 $329 $322 $394 forward $221 $-1 #
coedge $-1 $322 $223 $225 $326 reversed $139 $-1 #
coedge $-1 $223 $321 $320 $394 reversed $139 $-1 #
coedge $-1 $231 $226 $223 $324 forward $232 $-1 #
edge $-1 $327 24.376799297777247 $395 28.266821625099446 $323 $396 forward 7 unknown #
coedge $-1 $225 $224 $330 $397 reversed $87 $-1 #
edge $-1 $398 -125.45060579241306 $327 -119.74674694806433 $321 $399 forward 7 unknown #
vertex $-1 $227 $400 #
straight-curve $-1 58.835280568884336 3.864530918413843 10.041048485578187 0 -1 0 I I #
coedge $-1 $320 $228 $231 $334 reversed $221 $-1 #
coedge $-1 $228 $320 $325 $397 forward $221 $-1 #
vertex $-1 $229 $401 #
straight-curve $-1 62.725302896206543 11.701393761697265 91.587691209999903 0 0 1 I I #
straight-curve $-1 -22.831803411234361 11.701393761697265 97.618276112558888 0.68199835119979291 0 -0.73135370988377701 I I #
edge $-1 $395 3.7567299119581072 $233 11.701393761697265 $329 $402 forward 7 unknown #
point $-1 62.725302896206543 11.701393761697265 10.041048485578191 #
point $-1 58.835280568884343 11.701393761697265 10.041048485578187 #
edge $-1 $403 1 $403 0 $236 $-1 forward 7 unknown #
vertex $-1 $237 $404 #
ellipse-curve $-1 60.048938022661659 6.0266338690264369 7.2732809711444659 0.73135370988377701 0 0.68199835119979291 0.34099917559989645 0 -0.36567685494188851 1 I I #
point $-1 61.121290908145333 6.0266338690264369 7.5896024674023703 #
edge $-1 $405 1 $405 0 $240 $-1 forward 7 unknown #
vertex $-1 $241 $406 #
ellipse-curve $-1 60.048938022661659 9.431489804628935 7.2732809711444659 0.73135370988377701 0 0.68199835119979291 0.34099917559989645 0 -0.36567685494188851 1 I I #
point $-1 61.121290908145333 9.431489804628935 7.5896024674023703 #
plane-surface $-1 62.725302896206543 0 0 -1 0 0 0 0 1 forward_v I I I I #
coedge $-1 $249 $247 $251 $350 reversed $161 $-1 #
edge $-1 $262 -10.041048485578191 $352 10.041048485578191 $261 $407 forward 7 unknown #
vertex $-1 $350 $408 #
straight-curve $-1 -62.725302896206543 -29.732065400952518 0 0 0 -1 I I #
edge $-1 $348 -29.732065400952518 $352 29.732065400952518 $346 $409 forward 7 unknown #
straight-curve $-1 0 -29.732065400952518 -10.041048485578191 -1 0 0 I I #
vertex $-1 $254 $410 #
straight-curve $-1 0 29.732065400952518 -10.041048485578191 1 0 0 I I #
point $-1 62.725302896206543 29.732065400952518 -10.041048485578191 #
point $-1 62.725302896206543 -29.732065400952518 -10.041048485578191 #
straight-curve $-1 -62.725302896206543 0 10.041048485578191 0 -1 0 I I #
point $-1 -62.725302896206543 29.732065400952518 10.041048485578191 #
point $-1 -62.725302896206543 -29.732065400952518 10.041048485578191 #
straight-curve $-1 62.725302896206543 -29.732065400952518 0 0 0 -1 I I #
straight-curve $-1 62.725302896206543 29.732065400952518 0 0 0 -1 I I #
plane-surface $-1 62.725302896206543 0 0 -1 0 0 0 0 1 forward_v I I I I #
coedge $-1 $365 $274 $285 $374 forward $180 $-1 #
coedge $-1 $274 $365 $288 $376 reversed $180 $-1 #
straight-curve $-1 62.725302896206543 -18.304189599224785 -0.36245249073911623 0 0 1 I I #
coedge $-1 $363 $362 $277 $366 forward $180 $-1 #
edge $-1 $369 6.295125849180458 $367 17.723001650908195 $365 $411 forward 7 unknown #
vertex $-1 $279 $412 #
straight-curve $-1 0 -29.732065400952518 -2.6230115650690364 1 0 0 I I #
vertex $-1 $366 $413 #
straight-curve $-1 0 -18.304189599224785 -2.6230115650690364 1 0 0 I I #
point $-1 62.725302896206543 -29.732065400952521 -2.6230115650690364 #
point $-1 62.725302896206543 -18.304189599224785 -2.6230115650690364 #
straight-curve $-1 -62.725302896206543 -12.009063750044326 1.1732016021125715 0 1 0 I I #
edge $-1 $286 -1.5356540928516877 $369 2.2605590743299202 $362 $414 forward 7 unknown #
point $-1 -62.725302896206543 -18.304189599224785 1.1732016021125715 #
edge $-1 $290 -1.1732016021125715 $367 2.6230115650690364 $363 $415 forward 7 unknown #
point $-1 -62.725302896206543 -29.732065400952521 1.1732016021125715 #
straight-curve $-1 62.725302896206543 -29.732065400952518 0 0 0 -1 I I #
coedge $-1 $380 $297 $386 $416 reversed $199 $-1 #
coedge $-1 $297 $379 $300 $384 reversed $199 $-1 #
edge $-1 $382 -18.175486454802261 $305 -4.9376714374982722 $304 $417 forward 7 unknown #
vertex $-1 $299 $418 #
straight-curve $-1 -46.207977244786065 29.732065400952518 16.436669346280954 -0.7313536940579346 0 -0.68199836817093118 I I #
edge $-1 $301 53.066440784535516 $388 62.725302896206543 $380 $419 forward 7 unknown #
point $-1 -53.066440784535516 29.732065400952525 10.041048485578191 #
coedge $-1 $304 $303 $379 $416 forward $295 $-1 #
point $-1 -62.725302896206543 16.494250383648538 1.034013651313912 #
vertex $-1 $384 $420 #
straight-curve $-1 -62.725302896206543 0 10.041048485578191 0 -1 0 I I #
vertex $-1 $311 $421 #
point $-1 -52.970413373535862 20.276483245735395 2.4550423958017009 #
vertex $-1 $315 $422 #
point $-1 -52.970413373535862 25.949832538865675 2.4550423958017009 #
edge $-1 $395 81.546642724421716 $398 85.718181050889555 $320 $423 forward 7 unknown #
vertex $-1 $334 $424 #
straight-curve $-1 34.458481271107097 3.7567299119581072 10.041048485578187 1 0 0 I I #
edge $-1 $398 -0.10780100645573576 $331 7.8368628432834218 $330 $425 forward 7 unknown #
vertex $-1 $397 $426 #
straight-curve $-1 -22.831803411234361 3.7567299119581072 97.618276112558888 -0.68199835119979291 0 0.73135370988377701 I I #
point $-1 58.835280568884343 3.7567299119581072 10.041048485578187 #
point $-1 62.725302896206543 11.701393761697265 5.869510159110348 #
straight-curve $-1 62.725302896206543 0 10.041048485578191 0 1 0 I I #
vertex $-1 $337 $427 #
point $-1 60.389937198261556 6.0266338690264369 6.9076041162025774 #
vertex $-1 $341 $428 #
point $-1 60.389937198261556 9.431489804628935 6.9076041162025774 #
straight-curve $-1 -62.725302896206543 29.732065400952518 0 0 0 -1 I I #
point $-1 -62.725302896206543 -29.732065400952518 -10.041048485578191 #
straight-curve $-1 -62.725302896206543 0 -10.041048485578191 0 1 0 I I #
point $-1 -62.725302896206543 29.732065400952518 -10.041048485578191 #
straight-curve $-1 -62.725302896206543 -12.009063750044326 -2.6230115650690364 0 -1 0 I I #
point $-1 -62.725302896206543 -29.732065400952521 -2.6230115650690364 #
point $-1 -62.725302896206543 -18.304189599224785 -2.6230115650690364 #
straight-curve $-1 -62.725302896206543 -18.304189599224785 -0.36245249073911623 0 0 -1 I I #
straight-curve $-1 -62.725302896206543 -29.732065400952518 0 0 0 -1 I I #
edge $-1 $388 -10.041048485578191 $382 -1.034013651313912 $379 $429 forward 7 unknown #
straight-curve $-1 -62.725302896206543 11.556578946150266 1.034013651313914 0 -1 0 I I #
point $-1 -62.725302896206543 29.732065400952525 1.034013651313912 #
straight-curve $-1 0 29.732065400952518 10.041048485578191 -1 0 0 I I #
point $-1 -62.725302896206543 29.732065400952518 10.041048485578191 #
point $-1 -53.044446362366365 20.276483245735395 0.33501430245840236 #
point $-1 -53.044446362366365 25.949832538865675 0.33501430245840236 #
straight-curve $-1 62.725302896206543 3.7567299119581072 91.587691209999903 0 0 -1 I I #
point $-1 62.725302896206543 3.7567299119581072 10.041048485578191 #
straight-curve $-1 62.725302896206543 3.864530918413843 5.8695101591103409 0 1 0 I I #
point $-1 62.725302896206543 3.7567299119581072 5.869510159110348 #
point $-1 59.683261167719778 6.0266338690264369 6.9322817955445686 #
point $-1 59.683261167719778 9.431489804628935 6.9322817955445686 #
straight-curve $-1 -62.725302896206543 29.732065400952518 0 0 0 -1 I I #
End-of-ACIS-data 