500 0 8 0           
7 Unknown 11 ACIS 5.0 NT 24 Thu Mar 25 15:24:01 1999 
-1 9.9999999999999995e-007 1e-010 
body $-1 $8 $-1 $9 #
body $-1 $10 $-1 $11 #
body $-1 $12 $-1 $13 #
body $-1 $14 $-1 $15 #
body $-1 $16 $-1 $17 #
body $-1 $18 $-1 $19 #
body $-1 $20 $-1 $21 #
body $-1 $22 $-1 $23 #
lump $-1 $-1 $24 $0 #
transform $-1 1 0 0 0 1 0 0 0 1 69.801934873500784 44.833262774977797 21.164277329505648 1 rotate no_reflect no_shear #
lump $-1 $-1 $25 $1 #
transform $-1 1 0 0 0 1 0 0 0 1 69.801934873500784 44.833262774977797 21.164277329505648 1 rotate no_reflect no_shear #
lump $-1 $-1 $26 $2 #
transform $-1 1 0 0 0 1 0 0 0 1 69.801934873500784 44.833262774977797 21.164277329505648 1 rotate no_reflect no_shear #
lump $-1 $-1 $27 $3 #
transform $-1 1 0 0 0 1 0 0 0 1 69.801934873500784 44.833262774977797 21.164277329505648 1 rotate no_reflect no_shear #
lump $-1 $-1 $28 $4 #
transform $-1 1 0 0 0 1 0 0 0 1 69.801934873500784 44.833262774977797 21.164277329505648 1 rotate no_reflect no_shear #
lump $-1 $-1 $29 $5 #
transform $-1 1 0 0 0 1 0 0 0 1 69.801934873500784 44.833262774977797 21.164277329505648 1 rotate no_reflect no_shear #
lump $-1 $-1 $30 $6 #
transform $-1 1 0 0 0 1 0 0 0 1 69.801934873500784 44.833262774977797 21.164277329505648 1 rotate no_reflect no_shear #
lump $-1 $-1 $31 $7 #
transform $-1 1 0 0 0 1 0 0 0 1 69.801934873500784 44.833262774977797 21.164277329505648 1 rotate no_reflect no_shear #
shell $-1 $-1 $-1 $32 $-1 $8 #
shell $-1 $-1 $-1 $33 $-1 $10 #
shell $-1 $-1 $-1 $34 $-1 $12 #
shell $-1 $-1 $-1 $35 $-1 $14 #
shell $-1 $-1 $-1 $36 $-1 $16 #
shell $-1 $-1 $-1 $37 $-1 $18 #
shell $-1 $-1 $-1 $38 $-1 $20 #
shell $-1 $-1 $-1 $39 $-1 $22 #
face $-1 $40 $41 $24 $-1 $42 forward single #
face $-1 $43 $44 $25 $-1 $45 forward single #
face $-1 $46 $47 $26 $-1 $48 forward single #
face $-1 $49 $50 $27 $-1 $51 reversed single #
face $-1 $52 $53 $28 $-1 $54 forward single #
face $-1 $55 $56 $29 $-1 $57 reversed single #
face $-1 $58 $59 $30 $-1 $60 forward single #
face $-1 $61 $62 $31 $-1 $63 forward single #
face $-1 $64 $65 $24 $-1 $66 reversed single #
loop $-1 $-1 $67 $32 #
plane-surface $-1 0 0 21.164277329505648 0 0 1 1 0 0 forward_v I I I I #
face $-1 $68 $69 $25 $-1 $70 reversed single #
loop $-1 $-1 $71 $33 #
plane-surface $-1 0 -33.811393893667841 -12.887299020027116 0 0 1 1 0 0 forward_v I I I I #
face $-1 $72 $73 $26 $-1 $74 reversed single #
loop $-1 $-1 $75 $34 #
plane-surface $-1 0 33.811393893667841 -12.887299020027116 0 0 1 1 0 0 forward_v I I I I #
face $-1 $76 $77 $27 $-1 $78 reversed single #
loop $-1 $-1 $79 $35 #
plane-surface $-1 -155.75066036095052 -1.0606950665016619 120.23371974153501 0 -1 0 0.61566148304635926 0 -0.78801074757464917 forward_v I I I I #
face $-1 $80 $81 $28 $-1 $82 forward single #
loop $-1 $83 $84 $36 #
cone-surface $-1 -62.312282288961612 -6.836670311119434 15.069160123663446 0.61566148304635926 0 -0.78801074757464917 0.78801074757464917 0 0.61566148304635926 1 I I 0 1 1 forward I I I I #
face $-1 $85 $86 $29 $-1 $87 reversed single #
loop $-1 $-1 $88 $37 #
plane-surface $-1 22.039372530539211 22.789525012357885 199.95688079236669 0 -1 0 -0.51503808176128008 0 -0.85716729658548041 forward_v I I I I #
face $-1 $89 $90 $30 $-1 $91 forward single #
loop $-1 $92 $93 $38 #
cone-surface $-1 58.397217049104739 16.616738389086088 13.486260225131669 -0.51503808176128008 0 -0.85716729658548041 0.85716729658548041 0 -0.51503808176128008 1 I I 0 1 1 forward I I I I #
face $-1 $94 $95 $31 $-1 $96 forward single #
loop $-1 $97 $98 $39 #
cone-surface $-1 58.397217049104739 20.320410363049163 13.486260225131669 -0.51503808176128008 0 -0.85716729658548041 0.85716729658548041 0 -0.51503808176128008 1 I I 0 1 1 forward I I I I #
face $-1 $99 $100 $24 $-1 $101 reversed single #
loop $-1 $-1 $102 $40 #
plane-surface $-1 0 0 -21.164277329505648 0 0 1 1 0 0 forward_v I I I I #
coedge $-1 $103 $104 $105 $106 forward $41 $-1 #
face $-1 $107 $108 $25 $-1 $109 reversed single #
loop $-1 $-1 $110 $43 #
plane-surface $-1 0 -22.789525012357885 -17.025788174766383 0 -1 0 0 0 -1 forward_v I I I I #
coedge $-1 $111 $112 $113 $114 reversed $44 $-1 #
face $-1 $115 $116 $26 $-1 $117 reversed single #
loop $-1 $-1 $118 $46 #
plane-surface $-1 0 22.789525012357885 -17.025788174766383 0 1 0 0 0 1 forward_v I I I I #
coedge $-1 $119 $120 $121 $122 reversed $47 $-1 #
face $-1 $123 $124 $27 $-1 $125 reversed single #
loop $-1 $-1 $126 $49 #
plane-surface $-1 -69.80193487350077 -6.836670311119434 10.224369977886354 -0.61566148304635926 0 0.78801074757464917 0.78801074757464917 0 0.61566148304635926 forward_v I I I I #
coedge $-1 $127 $128 $129 $130 reversed $50 $-1 #
face $-1 $-1 $131 $28 $-1 $132 forward single #
loop $-1 $133 $134 $52 #
cone-surface $-1 -61.516020257343776 -6.836670311119434 14.049991219843566 0.61566148304635926 0 -0.78801074757464917 0.39400537378732459 0 0.30783074152317963 1 I I -0.70710678118654746 0.70710678118654746 0.5 forward I I I I #
loop $-1 $-1 $135 $36 #
coedge $-1 $84 $84 $136 $137 reversed $53 $-1 #
face $-1 $138 $139 $29 $-1 $140 reversed single #
loop $-1 $-1 $141 $55 #
plane-surface $-1 -49.861936750408077 18.468574376067629 80.293009168457814 0.51503808176128008 0 0.85716729658548041 0.85716729658548041 0 -0.51503808176128008 forward_v I I I I #
coedge $-1 $142 $143 $144 $145 reversed $56 $-1 #
face $-1 $-1 $146 $30 $-1 $147 forward single #
loop $-1 $148 $149 $58 #
cone-surface $-1 57.363549278120942 16.616738389086088 11.765948193462531 -0.51503808176128008 0 -0.85716729658548041 0.4285836482927402 0 -0.25751904088064004 1 I I -0.70710678118654746 0.70710678118654746 0.5 forward I I I I #
loop $-1 $-1 $150 $38 #
coedge $-1 $93 $93 $151 $152 reversed $59 $-1 #
face $-1 $-1 $153 $31 $-1 $154 forward single #
loop $-1 $155 $156 $61 #
cone-surface $-1 57.363549278120942 20.320410363049163 11.765948193462531 -0.51503808176128008 0 -0.85716729658548041 0.4285836482927402 0 -0.25751904088064004 1 I I -0.70710678118654746 0.70710678118654746 0.5 forward I I I I #
loop $-1 $-1 $157 $39 #
coedge $-1 $98 $98 $158 $159 reversed $62 $-1 #
face $-1 $160 $161 $24 $-1 $162 reversed single #
loop $-1 $-1 $163 $64 #
plane-surface $-1 0 -44.833262774977797 0 0 1 0 0 0 1 forward_v I I I I #
coedge $-1 $164 $165 $166 $167 forward $65 $-1 #
coedge $-1 $168 $67 $169 $170 forward $41 $-1 #
coedge $-1 $67 $168 $171 $172 forward $41 $-1 #
coedge $-1 $173 $174 $67 $106 reversed $175 $-1 #
edge $-1 $176 -44.833262774977797 $177 44.833262774977797 $105 $178 forward 7 unknown #
face $-1 $179 $180 $25 $-1 $181 reversed single #
loop $-1 $-1 $182 $68 #
plane-surface $-1 0 0 -21.164277329505648 0 0 1 1 0 0 forward_v I I I I #
coedge $-1 $183 $184 $185 $186 reversed $69 $-1 #
coedge $-1 $187 $71 $184 $188 forward $44 $-1 #
coedge $-1 $71 $187 $189 $190 reversed $44 $-1 #
coedge $-1 $191 $185 $71 $114 forward $180 $-1 #
edge $-1 $192 5.8838280655239643 $193 27.927565828143877 $113 $194 forward 7 unknown #
face $-1 $195 $196 $26 $-1 $197 reversed single #
loop $-1 $-1 $121 $72 #
plane-surface $-1 69.801934873500784 0 0 -1 0 0 0 0 1 forward_v I I I I #
coedge $-1 $198 $199 $200 $201 reversed $73 $-1 #
coedge $-1 $202 $75 $203 $204 reversed $47 $-1 #
coedge $-1 $75 $202 $199 $205 forward $47 $-1 #
coedge $-1 $206 $207 $75 $122 forward $116 $-1 #
edge $-1 $208 -27.927565828143877 $209 -5.8838280655239643 $121 $210 forward 7 unknown #
face $-1 $211 $212 $27 $-1 $213 reversed single #
loop $-1 $-1 $214 $76 #
plane-surface $-1 -155.75066036095052 -12.612645555737206 120.23371974153501 0 1 0 -0.61566148304635926 0 0.78801074757464917 forward_v I I I I #
coedge $-1 $215 $216 $217 $218 reversed $77 $-1 #
coedge $-1 $128 $79 $219 $220 reversed $50 $-1 #
coedge $-1 $79 $127 $215 $221 reversed $50 $-1 #
coedge $-1 $217 $222 $79 $130 forward $212 $-1 #
edge $-1 $223 38.952582541261862 $224 49.892489892881159 $129 $225 forward 7 unknown #
loop $-1 $-1 $136 $80 #
plane-surface $-1 -69.80193487350077 -6.836670311119434 10.224369977886354 -0.61566148304635926 0 0.78801074757464917 0.78801074757464917 0 0.61566148304635926 forward_v I I I I #
loop $-1 $-1 $226 $52 #
coedge $-1 $134 $134 $135 $227 reversed $81 $-1 #
coedge $-1 $135 $135 $134 $227 forward $83 $-1 #
coedge $-1 $136 $136 $84 $137 forward $131 $-1 #
edge $-1 $228 0 $228 6.2831853071796004 $136 $229 forward 7 unknown #
face $-1 $230 $231 $29 $-1 $232 forward single #
loop $-1 $-1 $233 $85 #
plane-surface $-1 22.039372530539211 14.147623739777373 199.95688079236669 0 1 0 0.51503808176128008 0 0.85716729658548041 forward_v I I I I #
coedge $-1 $234 $235 $236 $237 reversed $86 $-1 #
coedge $-1 $143 $88 $238 $239 reversed $56 $-1 #
coedge $-1 $88 $142 $234 $240 reversed $56 $-1 #
coedge $-1 $236 $241 $88 $145 forward $231 $-1 #
edge $-1 $242 -58.782248608231178 $243 -37.525110419645436 $144 $244 forward 7 unknown #
loop $-1 $-1 $151 $89 #
plane-surface $-1 -49.861936750408077 18.468574376067629 80.293009168457814 0.51503808176128008 0 0.85716729658548041 0.85716729658548041 0 -0.51503808176128008 forward_v I I I I #
loop $-1 $-1 $245 $58 #
coedge $-1 $149 $149 $150 $246 reversed $90 $-1 #
coedge $-1 $150 $150 $149 $246 forward $92 $-1 #
coedge $-1 $151 $151 $93 $152 forward $146 $-1 #
edge $-1 $247 0 $247 6.2831853071796004 $151 $248 forward 7 unknown #
loop $-1 $-1 $158 $94 #
plane-surface $-1 -49.861936750408077 18.468574376067629 80.293009168457814 0.51503808176128008 0 0.85716729658548041 0.85716729658548041 0 -0.51503808176128008 forward_v I I I I #
loop $-1 $-1 $249 $61 #
coedge $-1 $156 $156 $157 $250 reversed $95 $-1 #
coedge $-1 $157 $157 $156 $250 forward $97 $-1 #
coedge $-1 $158 $158 $98 $159 forward $153 $-1 #
edge $-1 $251 0 $251 6.2831853071796004 $158 $252 forward 7 unknown #
face $-1 $253 $254 $24 $-1 $255 reversed single #
loop $-1 $-1 $256 $99 #
plane-surface $-1 -69.801934873500784 0 0 1 0 0 0 0 -1 forward_v I I I I #
coedge $-1 $257 $171 $258 $259 forward $100 $-1 #
coedge $-1 $260 $102 $257 $261 forward $65 $-1 #
coedge $-1 $102 $260 $262 $263 forward $65 $-1 #
coedge $-1 $174 $173 $102 $167 reversed $175 $-1 #
edge $-1 $264 -44.833262774977797 $265 44.833262774977797 $166 $266 forward 7 unknown #
coedge $-1 $104 $103 $267 $268 forward $41 $-1 #
coedge $-1 $269 $270 $103 $170 reversed $254 $-1 #
edge $-1 $177 -69.801934873500784 $271 69.801934873500784 $169 $272 forward 7 unknown #
coedge $-1 $163 $273 $104 $172 reversed $100 $-1 #
edge $-1 $274 -69.801934873500784 $176 69.801934873500784 $171 $275 forward 7 unknown #
coedge $-1 $166 $105 $273 $276 forward $175 $-1 #
coedge $-1 $105 $166 $269 $277 reversed $175 $-1 #
loop $-1 $-1 $173 $253 #
vertex $-1 $106 $278 #
vertex $-1 $106 $279 #
straight-curve $-1 69.801934873500784 0 21.164277329505648 0 1 0 I I #
face $-1 $280 $281 $25 $-1 $282 reversed single #
loop $-1 $-1 $185 $107 #
plane-surface $-1 69.801934873500784 0 0 -1 0 0 0 0 1 forward_v I I I I #
coedge $-1 $283 $284 $183 $285 forward $108 $-1 #
coedge $-1 $286 $110 $182 $285 reversed $69 $-1 #
coedge $-1 $110 $286 $111 $188 reversed $69 $-1 #
coedge $-1 $113 $287 $110 $186 forward $180 $-1 #
edge $-1 $288 -12.65138324212246 $192 -4.3744049326439249 $185 $289 forward 7 unknown #
coedge $-1 $112 $111 $290 $291 reversed $44 $-1 #
edge $-1 $192 -69.801934873500784 $292 69.801934873500784 $184 $293 forward 7 unknown #
coedge $-1 $294 $295 $112 $190 forward $281 $-1 #
edge $-1 $193 -69.801934873500784 $296 69.801934873500784 $189 $297 forward 7 unknown #
coedge $-1 $287 $113 $295 $298 forward $180 $-1 #
vertex $-1 $114 $299 #
vertex $-1 $298 $300 #
straight-curve $-1 69.801934873500784 -16.90569694683392 -12.887299020027116 0 -1 0 I I #
face $-1 $301 $302 $26 $-1 $303 reversed single #
loop $-1 $-1 $304 $115 #
plane-surface $-1 0 0 -21.164277329505648 0 0 1 1 0 0 forward_v I I I I #
coedge $-1 $305 $118 $304 $306 reversed $73 $-1 #
coedge $-1 $118 $305 $120 $205 reversed $73 $-1 #
coedge $-1 $307 $308 $118 $201 forward $302 $-1 #
edge $-1 $309 -12.65138324212246 $310 -4.3744049326439249 $200 $311 forward 7 unknown #
coedge $-1 $120 $119 $307 $312 reversed $47 $-1 #
coedge $-1 $313 $314 $119 $204 forward $315 $-1 #
edge $-1 $316 -69.801934873500784 $208 69.801934873500784 $203 $317 forward 7 unknown #
edge $-1 $310 -69.801934873500784 $209 69.801934873500784 $199 $318 forward 7 unknown #
coedge $-1 $319 $121 $305 $320 forward $116 $-1 #
coedge $-1 $121 $319 $313 $321 reversed $116 $-1 #
vertex $-1 $321 $322 #
vertex $-1 $122 $323 #
straight-curve $-1 69.801934873500784 16.90569694683392 -12.887299020027116 0 -1 0 I I #
face $-1 $-1 $324 $27 $-1 $325 forward single #
loop $-1 $-1 $129 $123 #
plane-surface $-1 -69.801934873500784 0 0 1 0 0 0 0 -1 forward_v I I I I #
coedge $-1 $326 $327 $328 $329 reversed $124 $-1 #
coedge $-1 $330 $126 $128 $221 forward $77 $-1 #
coedge $-1 $126 $330 $326 $331 forward $77 $-1 #
coedge $-1 $328 $129 $126 $218 forward $212 $-1 #
edge $-1 $224 -2.3576400890580551 $332 9.1943104001774891 $217 $333 forward 7 unknown #
coedge $-1 $334 $335 $127 $220 forward $324 $-1 #
edge $-1 $336 -22.075837895863515 $223 -8.0733953069744757 $219 $337 forward 7 unknown #
edge $-1 $224 -1.7760113164789269e-014 $336 17.769354836829251 $128 $338 forward 7 unknown #
coedge $-1 $129 $328 $334 $339 reversed $212 $-1 #
vertex $-1 $339 $340 #
vertex $-1 $130 $341 #
straight-curve $-1 -69.801934873500784 -1.0606950665016619 60.116859870767506 0 0 -1 I I #
coedge $-1 $226 $226 $-1 $342 reversed $133 $-1 #
edge $-1 $343 0 $343 6.2831853071796004 $134 $344 forward 7 unknown #
vertex $-1 $137 $345 #
ellipse-curve $-1 -62.800713579056264 -6.836670311119434 15.694323653695996 -0.61566148304635926 0 0.78801074757464917 0.78801074757464917 0 0.61566148304635926 1 I I #
face $-1 $-1 $346 $29 $-1 $347 reversed single #
loop $-1 $-1 $144 $138 #
plane-surface $-1 0 0 21.164277329505648 0 0 1 1 0 0 forward_v I I I I #
coedge $-1 $348 $349 $350 $351 reversed $139 $-1 #
coedge $-1 $352 $141 $143 $240 forward $86 $-1 #
coedge $-1 $141 $352 $348 $353 forward $86 $-1 #
coedge $-1 $350 $144 $141 $237 forward $231 $-1 #
edge $-1 $243 -13.55523782432407 $354 -4.9133365517435585 $236 $355 forward 7 unknown #
coedge $-1 $356 $357 $142 $239 forward $346 $-1 #
edge $-1 $358 -91.586740508672818 $242 -78.814163066677693 $238 $359 forward 7 unknown #
edge $-1 $243 114.80458228787498 $358 139.60386974700157 $143 $360 forward 7 unknown #
coedge $-1 $144 $350 $356 $361 forward $231 $-1 #
vertex $-1 $145 $362 #
vertex $-1 $145 $363 #
straight-curve $-1 11.019686265269605 22.789525012357885 21.164277329505651 -1 0 0 I I #
coedge $-1 $245 $245 $-1 $364 reversed $148 $-1 #
edge $-1 $365 0 $365 6.2831853071796004 $149 $366 forward 7 unknown #
vertex $-1 $152 $367 #
ellipse-curve $-1 59.173365779207913 16.616738389086088 14.777988608508092 0.51503808176128008 0 0.85716729658548041 0.85716729658548041 0 -0.51503808176128008 1 I I #
coedge $-1 $249 $249 $-1 $368 reversed $155 $-1 #
edge $-1 $369 0 $369 6.2831853071796004 $156 $370 forward 7 unknown #
vertex $-1 $159 $371 #
ellipse-curve $-1 59.173365779207913 20.320410363049163 14.777988608508092 0.51503808176128008 0 0.85716729658548041 0.85716729658548041 0 -0.51503808176128008 1 I I #
face $-1 $-1 $175 $24 $-1 $372 reversed single #
loop $-1 $-1 $269 $160 #
plane-surface $-1 0 44.833262774977797 0 0 -1 0 0 0 -1 forward_v I I I I #
coedge $-1 $373 $267 $270 $374 forward $161 $-1 #
coedge $-1 $273 $163 $164 $261 reversed $100 $-1 #
coedge $-1 $267 $373 $163 $259 reversed $161 $-1 #
edge $-1 $274 -21.164277329505648 $375 21.164277329505648 $258 $376 forward 7 unknown #
coedge $-1 $165 $164 $373 $377 forward $65 $-1 #
edge $-1 $265 -69.801934873500784 $375 69.801934873500784 $257 $378 forward 7 unknown #
coedge $-1 $270 $269 $165 $263 reversed $254 $-1 #
edge $-1 $379 -69.801934873500784 $264 69.801934873500784 $262 $380 forward 7 unknown #
vertex $-1 $167 $381 #
vertex $-1 $276 $382 #
straight-curve $-1 69.801934873500784 0 -21.164277329505648 0 -1 0 I I #
coedge $-1 $256 $258 $168 $268 reversed $161 $-1 #
edge $-1 $271 -44.833262774977797 $274 44.833262774977797 $267 $383 forward 7 unknown #
coedge $-1 $262 $169 $174 $277 forward $254 $-1 #
coedge $-1 $169 $262 $256 $374 reversed $254 $-1 #
vertex $-1 $170 $384 #
straight-curve $-1 0 44.833262774977797 21.164277329505648 -1 0 0 I I #
coedge $-1 $171 $257 $173 $276 reversed $100 $-1 #
vertex $-1 $268 $385 #
straight-curve $-1 0 -44.833262774977797 21.164277329505648 1 0 0 I I #
edge $-1 $176 -21.164277329505648 $265 21.164277329505648 $173 $386 forward 7 unknown #
edge $-1 $177 -21.164277329505648 $264 21.164277329505648 $174 $387 forward 7 unknown #
point $-1 69.801934873500784 -44.833262774977797 21.164277329505648 #
point $-1 69.801934873500784 44.833262774977797 21.164277329505648 #
face $-1 $-1 $388 $25 $-1 $389 reversed single #
loop $-1 $-1 $189 $179 #
plane-surface $-1 0 -44.833262774977797 0 0 1 0 0 0 1 forward_v I I I I #
coedge $-1 $390 $182 $287 $391 forward $108 $-1 #
coedge $-1 $182 $390 $392 $393 forward $108 $-1 #
edge $-1 $394 -69.801934873500784 $288 69.801934873500784 $182 $395 forward 7 unknown #
coedge $-1 $184 $183 $396 $397 reversed $69 $-1 #
coedge $-1 $185 $191 $283 $391 reversed $180 $-1 #
vertex $-1 $391 $398 #
straight-curve $-1 69.801934873500784 -22.789525012357885 -8.5128940873831915 0 0 1 I I #
coedge $-1 $396 $399 $187 $291 forward $388 $-1 #
edge $-1 $296 -27.927565828143877 $292 -5.8838280655239643 $290 $400 forward 7 unknown #
vertex $-1 $291 $401 #
straight-curve $-1 0 -22.789525012357885 -12.887299020027116 -1 0 0 I I #
coedge $-1 $402 $189 $399 $403 forward $281 $-1 #
coedge $-1 $189 $402 $191 $298 reversed $281 $-1 #
vertex $-1 $403 $404 #
straight-curve $-1 0 -44.833262774977797 -12.887299020027116 -1 0 0 I I #
edge $-1 $193 12.887299020027116 $405 21.164277329505648 $191 $406 forward 7 unknown #
point $-1 69.801934873500784 -22.789525012357885 -12.887299020027116 #
point $-1 69.801934873500784 -44.833262774977797 -12.887299020027116 #
face $-1 $-1 $315 $26 $-1 $407 reversed single #
loop $-1 $-1 $307 $195 #
plane-surface $-1 -69.801934873500784 0 0 1 0 0 0 0 -1 forward_v I I I I #
coedge $-1 $408 $409 $198 $306 forward $196 $-1 #
coedge $-1 $199 $198 $206 $320 reversed $73 $-1 #
edge $-1 $410 -69.801934873500784 $309 69.801934873500784 $304 $411 forward 7 unknown #
coedge $-1 $412 $200 $202 $312 forward $302 $-1 #
coedge $-1 $200 $412 $408 $413 reversed $302 $-1 #
vertex $-1 $413 $414 #
vertex $-1 $312 $415 #
straight-curve $-1 -69.801934873500784 22.789525012357885 -8.5128940873831915 0 0 1 I I #
edge $-1 $310 5.8838280655239643 $316 27.927565828143877 $307 $416 forward 7 unknown #
coedge $-1 $417 $203 $207 $321 forward $315 $-1 #
coedge $-1 $203 $417 $412 $418 reversed $315 $-1 #
loop $-1 $-1 $203 $301 #
vertex $-1 $418 $419 #
straight-curve $-1 0 44.833262774977797 -12.887299020027116 1 0 0 I I #
straight-curve $-1 0 22.789525012357885 -12.887299020027116 1 0 0 I I #
coedge $-1 $207 $206 $409 $420 reversed $116 $-1 #
edge $-1 $209 4.3744049326439249 $410 12.65138324212246 $206 $421 forward 7 unknown #
edge $-1 $208 12.887299020027116 $422 21.164277329505648 $207 $423 forward 7 unknown #
point $-1 69.801934873500784 44.833262774977797 -12.887299020027116 #
point $-1 69.801934873500784 22.789525012357885 -12.887299020027116 #
loop $-1 $-1 $219 $211 #
plane-surface $-1 0 0 21.164277329505648 0 0 1 1 0 0 forward_v I I I I #
coedge $-1 $327 $214 $216 $331 reversed $124 $-1 #
coedge $-1 $214 $326 $424 $425 reversed $124 $-1 #
coedge $-1 $222 $217 $214 $329 forward $212 $-1 #
edge $-1 $332 -49.892489892881159 $426 -38.952582541261862 $328 $427 forward 7 unknown #
coedge $-1 $216 $215 $335 $428 reversed $77 $-1 #
edge $-1 $429 -17.769354836829251 $332 1.7760113164789269e-014 $326 $430 forward 7 unknown #
vertex $-1 $218 $431 #
straight-curve $-1 -69.801934873500784 -3.418335155559717 10.224369977886354 0 -1 0 I I #
coedge $-1 $424 $219 $222 $339 forward $324 $-1 #
coedge $-1 $219 $424 $330 $428 forward $324 $-1 #
vertex $-1 $220 $432 #
straight-curve $-1 -77.87533018047526 -1.0606950665016619 21.164277329505651 -1 0 0 I I #
straight-curve $-1 -69.80193487350077 -1.0606950665016619 10.224369977886354 0.78801074757464917 0 0.61566148304635926 I I #
edge $-1 $223 1.0606950665016619 $426 12.612645555737206 $222 $433 forward 7 unknown #
point $-1 -69.801934873500784 -1.0606950665016619 21.164277329505648 #
point $-1 -69.801934873500784 -1.0606950665016619 10.224369977886344 #
edge $-1 $434 1 $434 0 $226 $-1 forward 7 unknown #
vertex $-1 $227 $435 #
ellipse-curve $-1 -61.823850998866952 -6.836670311119434 14.443996593630891 -0.61566148304635926 0 0.78801074757464917 0.78801074757464917 0 0.61566148304635926 1 I I #
point $-1 -62.012702831481619 -6.836670311119434 16.309985136742362 #
loop $-1 $-1 $238 $230 #
plane-surface $-1 69.801934873500784 0 0 -1 0 0 0 0 1 forward_v I I I I #
coedge $-1 $349 $233 $235 $353 reversed $139 $-1 #
coedge $-1 $233 $348 $436 $437 reversed $139 $-1 #
coedge $-1 $241 $236 $233 $351 forward $231 $-1 #
edge $-1 $354 37.525110419645436 $438 58.782248608231178 $350 $439 forward 7 unknown #
coedge $-1 $235 $234 $357 $440 reversed $86 $-1 #
edge $-1 $441 -139.60386974700157 $354 -114.80458228787498 $348 $442 forward 7 unknown #
vertex $-1 $237 $443 #
straight-curve $-1 48.544796684915056 9.2342871880338144 21.164277329505644 0 -1 0 I I #
coedge $-1 $436 $238 $241 $361 reversed $346 $-1 #
coedge $-1 $238 $436 $352 $440 forward $346 $-1 #
vertex $-1 $239 $444 #
straight-curve $-1 69.801934873500784 22.789525012357885 99.978440396183345 0 0 1 I I #
straight-curve $-1 -49.861936750408077 22.789525012357885 80.293009168457814 0.85716729658548041 0 -0.51503808176128008 I I #
edge $-1 $438 14.147623739777373 $242 22.789525012357885 $356 $445 forward 7 unknown #
point $-1 69.801934873500784 22.789525012357885 21.164277329505648 #
point $-1 48.544796684915042 22.789525012357885 21.164277329505651 #
edge $-1 $446 1 $446 0 $245 $-1 forward 7 unknown #
vertex $-1 $246 $447 #
ellipse-curve $-1 57.62106831900158 16.616738389086088 12.194531841755271 0.51503808176128008 0 0.85716729658548041 0.85716729658548041 0 -0.51503808176128008 1 I I #
point $-1 60.030533075793386 16.616738389086088 14.262950526746787 #
edge $-1 $448 1 $448 0 $249 $-1 forward 7 unknown #
vertex $-1 $250 $449 #
ellipse-curve $-1 57.62106831900158 20.320410363049163 12.194531841755271 0.51503808176128008 0 0.85716729658548041 0.85716729658548041 0 -0.51503808176128008 1 I I #
point $-1 60.030533075793386 20.320410363049163 14.262950526746787 #
plane-surface $-1 69.801934873500784 0 0 -1 0 0 0 0 1 forward_v I I I I #
coedge $-1 $258 $256 $260 $377 reversed $161 $-1 #
edge $-1 $271 -21.164277329505648 $379 21.164277329505648 $270 $450 forward 7 unknown #
vertex $-1 $377 $451 #
straight-curve $-1 -69.801934873500784 -44.833262774977797 0 0 0 -1 I I #
edge $-1 $375 -44.833262774977797 $379 44.833262774977797 $373 $452 forward 7 unknown #
straight-curve $-1 0 -44.833262774977797 -21.164277329505648 -1 0 0 I I #
vertex $-1 $263 $453 #
straight-curve $-1 0 44.833262774977797 -21.164277329505648 1 0 0 I I #
point $-1 69.801934873500784 44.833262774977797 -21.164277329505648 #
point $-1 69.801934873500784 -44.833262774977797 -21.164277329505648 #
straight-curve $-1 -69.801934873500784 0 21.164277329505648 0 -1 0 I I #
point $-1 -69.801934873500784 44.833262774977797 21.164277329505648 #
point $-1 -69.801934873500784 -44.833262774977797 21.164277329505648 #
straight-curve $-1 69.801934873500784 -44.833262774977797 0 0 0 -1 I I #
straight-curve $-1 69.801934873500784 44.833262774977797 0 0 0 -1 I I #
loop $-1 $-1 $396 $280 #
plane-surface $-1 -69.801934873500784 0 0 1 0 0 0 0 -1 forward_v I I I I #
coedge $-1 $284 $283 $402 $454 forward $108 $-1 #
edge $-1 $288 22.789525012357885 $405 44.833262774977797 $287 $455 forward 7 unknown #
coedge $-1 $399 $396 $284 $393 reversed $388 $-1 #
edge $-1 $456 -44.833262774977797 $394 -22.789525012357885 $392 $457 forward 7 unknown #
vertex $-1 $397 $458 #
straight-curve $-1 0 -22.789525012357885 -21.164277329505648 1 0 0 I I #
coedge $-1 $392 $290 $286 $397 forward $388 $-1 #
edge $-1 $292 4.3744049326439249 $394 12.65138324212246 $396 $459 forward 7 unknown #
point $-1 69.801934873500784 -22.789525012357885 -21.164277329505651 #
coedge $-1 $290 $392 $294 $403 reversed $388 $-1 #
straight-curve $-1 -69.801934873500784 -16.90569694683392 -12.887299020027116 0 1 0 I I #
point $-1 -69.801934873500784 -22.789525012357885 -12.887299020027116 #
coedge $-1 $295 $294 $390 $454 reversed $281 $-1 #
edge $-1 $296 12.887299020027116 $456 21.164277329505648 $399 $460 forward 7 unknown #
point $-1 -69.801934873500784 -44.833262774977797 -12.887299020027116 #
vertex $-1 $298 $461 #
straight-curve $-1 69.801934873500784 -44.833262774977797 0 0 0 -1 I I #
plane-surface $-1 0 44.833262774977797 0 0 -1 0 0 0 -1 forward_v I I I I #
coedge $-1 $462 $304 $308 $413 forward $196 $-1 #
coedge $-1 $304 $462 $319 $420 forward $196 $-1 #
vertex $-1 $306 $463 #
straight-curve $-1 0 22.789525012357885 -21.164277329505648 -1 0 0 I I #
coedge $-1 $308 $307 $314 $418 forward $302 $-1 #
edge $-1 $309 22.789525012357885 $464 44.833262774977797 $308 $465 forward 7 unknown #
point $-1 -69.801934873500784 22.789525012357885 -21.164277329505651 #
point $-1 -69.801934873500784 22.789525012357885 -12.887299020027116 #
straight-curve $-1 -69.801934873500784 16.90569694683392 -12.887299020027116 0 1 0 I I #
coedge $-1 $314 $313 $462 $466 reversed $315 $-1 #
edge $-1 $316 12.887299020027116 $464 21.164277329505648 $314 $467 forward 7 unknown #
point $-1 -69.801934873500784 44.833262774977797 -12.887299020027116 #
edge $-1 $422 -44.833262774977797 $410 -22.789525012357885 $319 $468 forward 7 unknown #
straight-curve $-1 69.801934873500784 22.789525012357885 -8.5128940873831915 0 0 -1 I I #
vertex $-1 $420 $469 #
straight-curve $-1 69.801934873500784 44.833262774977797 0 0 0 -1 I I #
coedge $-1 $335 $334 $327 $425 forward $324 $-1 #
edge $-1 $426 8.0733953069744757 $429 22.075837895863515 $424 $470 forward 7 unknown #
vertex $-1 $425 $471 #
straight-curve $-1 -69.801934873500784 -12.612645555737206 60.116859870767506 0 0 1 I I #
edge $-1 $429 -9.1943104001774891 $336 2.3576400890580551 $335 $472 forward 7 unknown #
vertex $-1 $428 $473 #
straight-curve $-1 -69.80193487350077 -12.612645555737206 10.224369977886354 -0.78801074757464917 0 -0.61566148304635926 I I #
point $-1 -69.801934873500784 -12.612645555737206 10.224369977886344 #
point $-1 -55.799492284611745 -1.0606950665016619 21.164277329505648 #
straight-curve $-1 -69.801934873500784 0 21.164277329505648 0 -1 0 I I #
vertex $-1 $342 $474 #
point $-1 -61.035840251292306 -6.836670311119434 15.05965807667725 #
coedge $-1 $357 $356 $349 $437 forward $346 $-1 #
edge $-1 $438 78.814163066677693 $441 91.586740508672818 $436 $475 forward 7 unknown #
vertex $-1 $361 $476 #
straight-curve $-1 11.019686265269605 14.147623739777373 21.164277329505651 1 0 0 I I #
edge $-1 $441 4.9133365517435585 $358 13.55523782432407 $357 $477 forward 7 unknown #
vertex $-1 $440 $478 #
straight-curve $-1 -49.861936750408077 14.147623739777373 80.293009168457814 -0.85716729658548041 0 0.51503808176128008 I I #
point $-1 48.544796684915042 14.147623739777373 21.164277329505651 #
point $-1 69.801934873500798 22.789525012357885 8.3916998875105264 #
straight-curve $-1 69.801934873500784 0 21.164277329505648 0 1 0 I I #
vertex $-1 $364 $479 #
point $-1 58.47823561558706 16.616738389086088 11.679493759993992 #
vertex $-1 $368 $480 #
point $-1 58.47823561558706 20.320410363049163 11.679493759993992 #
straight-curve $-1 -69.801934873500784 44.833262774977797 0 0 0 -1 I I #
point $-1 -69.801934873500784 -44.833262774977797 -21.164277329505648 #
straight-curve $-1 -69.801934873500784 0 -21.164277329505648 0 1 0 I I #
point $-1 -69.801934873500784 44.833262774977797 -21.164277329505648 #
edge $-1 $405 -69.801934873500784 $456 69.801934873500784 $402 $481 forward 7 unknown #
straight-curve $-1 69.801934873500784 0 -21.164277329505648 0 -1 0 I I #
vertex $-1 $393 $482 #
straight-curve $-1 -69.801934873500784 0 -21.164277329505648 0 1 0 I I #
point $-1 -69.801934873500784 -22.789525012357885 -21.164277329505651 #
straight-curve $-1 -69.801934873500784 -22.789525012357885 -8.5128940873831915 0 0 -1 I I #
straight-curve $-1 -69.801934873500784 -44.833262774977797 0 0 0 -1 I I #
point $-1 69.801934873500784 -44.833262774977797 -21.164277329505648 #
coedge $-1 $409 $408 $417 $466 forward $196 $-1 #
point $-1 69.801934873500784 22.789525012357885 -21.164277329505651 #
vertex $-1 $466 $483 #
straight-curve $-1 -69.801934873500784 0 -21.164277329505648 0 1 0 I I #
edge $-1 $464 -69.801934873500784 $422 69.801934873500784 $417 $484 forward 7 unknown #
straight-curve $-1 -69.801934873500784 44.833262774977797 0 0 0 -1 I I #
straight-curve $-1 69.801934873500784 0 -21.164277329505648 0 -1 0 I I #
point $-1 69.801934873500784 44.833262774977797 -21.164277329505648 #
straight-curve $-1 -77.87533018047526 -12.612645555737206 21.164277329505651 1 0 0 I I #
point $-1 -69.801934873500784 -12.612645555737206 21.164277329505648 #
straight-curve $-1 -55.799492284611752 -3.418335155559717 21.164277329505648 0 1 0 I I #
point $-1 -55.799492284611745 -12.612645555737206 21.164277329505648 #
point $-1 -61.2081895158206 -6.836670311119434 13.655985846056241 #
straight-curve $-1 69.801934873500784 14.147623739777373 99.978440396183345 0 0 -1 I I #
point $-1 69.801934873500784 14.147623739777373 21.164277329505648 #
straight-curve $-1 69.801934873500784 9.2342871880338144 8.3916998875105264 0 1 0 I I #
point $-1 69.801934873500798 14.147623739777373 8.3916998875105264 #
point $-1 57.106030237240304 16.616738389086088 11.337364545169791 #
point $-1 57.106030237240304 20.320410363049163 11.337364545169791 #
straight-curve $-1 0 -44.833262774977797 -21.164277329505648 -1 0 0 I I #
point $-1 -69.801934873500784 -44.833262774977797 -21.164277329505648 #
point $-1 -69.801934873500784 44.833262774977797 -21.164277329505648 #
straight-curve $-1 0 44.833262774977797 -21.164277329505648 1 0 0 I I #
End-of-ACIS-data 