500 0 5 0           
7 Unknown 11 ACIS 5.0 NT 24 Fri Mar 26 20:09:01 1999 
-1 9.9999999999999995e-007 1e-010 
body $-1 $5 $-1 $6 #
body $-1 $7 $-1 $8 #
body $-1 $9 $-1 $10 #
body $-1 $11 $-1 $12 #
body $-1 $13 $-1 $14 #
lump $-1 $-1 $15 $0 #
transform $-1 1 0 0 0 1 0 0 0 1 45.521408734397411 19.073785618450962 6.7553694107084965 1 rotate no_reflect no_shear #
lump $-1 $-1 $16 $1 #
transform $-1 1 0 0 0 1 0 0 0 1 45.521408734397411 19.073785618450962 6.7553694107084965 1 rotate no_reflect no_shear #
lump $-1 $-1 $17 $2 #
transform $-1 1 0 0 0 1 0 0 0 1 45.521408734397411 19.073785618450962 6.7553694107084965 1 rotate no_reflect no_shear #
lump $-1 $-1 $18 $3 #
transform $-1 1 0 0 0 1 0 0 0 1 45.521408734397411 19.073785618450962 6.7553694107084965 1 rotate no_reflect no_shear #
lump $-1 $-1 $19 $4 #
transform $-1 1 0 0 0 1 0 0 0 1 45.521408734397411 19.073785618450962 6.7553694107084965 1 rotate no_reflect no_shear #
shell $-1 $-1 $-1 $20 $-1 $5 #
shell $-1 $-1 $-1 $21 $-1 $7 #
shell $-1 $-1 $-1 $22 $-1 $9 #
shell $-1 $-1 $-1 $23 $-1 $11 #
shell $-1 $-1 $-1 $24 $-1 $13 #
face $-1 $25 $26 $15 $-1 $27 forward single #
face $-1 $28 $29 $16 $-1 $30 forward single #
face $-1 $31 $32 $17 $-1 $33 reversed single #
face $-1 $34 $35 $18 $-1 $36 forward single #
face $-1 $37 $38 $19 $-1 $39 forward single #
face $-1 $40 $41 $15 $-1 $42 reversed single #
loop $-1 $-1 $43 $20 #
plane-surface $-1 0 0 6.7553694107084965 0 0 1 1 0 0 forward_v I I I I #
face $-1 $44 $45 $16 $-1 $46 reversed single #
loop $-1 $-1 $47 $21 #
plane-surface $-1 0 -19.073785618450962 0 0 1 0 0 0 1 forward_v I I I I #
face $-1 $48 $49 $17 $-1 $50 reversed single #
loop $-1 $-1 $51 $22 #
plane-surface $-1 -31.381389740273946 58.064979161883095 93.229827045528481 -1 0 0 0 0.71933980857756763 0.69465836192734942 forward_v I I I I #
face $-1 $52 $53 $18 $-1 $54 forward single #
loop $-1 $55 $56 $23 #
cone-surface $-1 -41.481403307504991 16.324946546452992 3.9588653368623863 0 -0.71933980857756763 -0.69465836192734942 1 0 0 1 I I 0 1 1 forward I I I I #
face $-1 $57 $58 $19 $-1 $59 forward single #
loop $-1 $60 $61 $24 #
cone-surface $-1 -35.421395167166366 16.324946546452992 3.9588653368623863 0 -0.71933980857756763 -0.69465836192734942 1 0 0 1 I I 0 1 1 forward I I I I #
face $-1 $62 $63 $15 $-1 $64 reversed single #
loop $-1 $-1 $65 $25 #
plane-surface $-1 0 0 -6.7553694107084965 0 0 1 1 0 0 forward_v I I I I #
coedge $-1 $66 $67 $68 $69 forward $26 $-1 #
face $-1 $70 $71 $16 $-1 $72 reversed single #
loop $-1 $-1 $73 $28 #
plane-surface $-1 0 0 -6.7553694107084965 0 0 1 1 0 0 forward_v I I I I #
coedge $-1 $74 $75 $76 $77 forward $29 $-1 #
face $-1 $78 $79 $17 $-1 $80 reversed single #
loop $-1 $-1 $81 $31 #
plane-surface $-1 -38.451399237335679 -7.4257437284822103 29.986172597404796 0 0.71933980857756763 0.69465836192734942 1 0 0 forward_v I I I I #
coedge $-1 $82 $83 $84 $85 reversed $32 $-1 #
face $-1 $-1 $86 $18 $-1 $87 forward single #
loop $-1 $88 $89 $34 #
cone-surface $-1 -41.481403307504991 15.249339576295142 2.9201637843305264 0 -0.71933980857756763 -0.69465836192734942 0.5 0 0 1 I I -0.70710678118654746 0.70710678118654746 0.5 forward I I I I #
loop $-1 $-1 $90 $23 #
coedge $-1 $56 $56 $91 $92 reversed $35 $-1 #
face $-1 $-1 $93 $19 $-1 $94 forward single #
loop $-1 $95 $96 $37 #
cone-surface $-1 -35.421395167166366 15.249339576295142 2.9201637843305264 0 -0.71933980857756763 -0.69465836192734942 0.5 0 0 1 I I -0.70710678118654746 0.70710678118654746 0.5 forward I I I I #
loop $-1 $-1 $97 $24 #
coedge $-1 $61 $61 $98 $99 reversed $38 $-1 #
face $-1 $100 $101 $15 $-1 $102 reversed single #
loop $-1 $-1 $103 $40 #
plane-surface $-1 0 -19.073785618450962 0 0 1 0 0 0 1 forward_v I I I I #
coedge $-1 $104 $105 $106 $107 forward $41 $-1 #
coedge $-1 $108 $43 $109 $110 forward $26 $-1 #
coedge $-1 $43 $108 $111 $112 forward $26 $-1 #
coedge $-1 $113 $114 $43 $69 reversed $115 $-1 #
edge $-1 $116 -19.073785618450962 $117 19.073785618450962 $68 $118 forward 7 unknown #
face $-1 $119 $120 $16 $-1 $121 reversed single #
loop $-1 $-1 $122 $44 #
plane-surface $-1 -34.709074412532217 -25.604646768382658 0 0 1 0 0 0 1 forward_v I I I I #
coedge $-1 $123 $124 $75 $125 forward $45 $-1 #
coedge $-1 $126 $47 $127 $128 reversed $29 $-1 #
coedge $-1 $47 $126 $73 $125 reversed $29 $-1 #
coedge $-1 $129 $130 $47 $77 reversed $120 $-1 #
edge $-1 $131 -6.7553694107084965 $132 6.7553694107084965 $76 $133 forward 7 unknown #
face $-1 $134 $135 $17 $-1 $136 forward single #
loop $-1 $-1 $137 $48 #
plane-surface $-1 -45.521408734397411 0 0 1 0 0 0 0 -1 forward_v I I I I #
coedge $-1 $138 $139 $140 $141 reversed $49 $-1 #
coedge $-1 $83 $51 $142 $143 reversed $32 $-1 #
coedge $-1 $51 $82 $138 $144 reversed $32 $-1 #
coedge $-1 $140 $145 $51 $85 forward $146 $-1 #
edge $-1 $147 39.859544112055744 $148 44.069807516611611 $84 $149 forward 7 unknown #
loop $-1 $-1 $91 $52 #
plane-surface $-1 -38.451399237335679 -7.4257437284822103 29.986172597404796 0 0.71933980857756763 0.69465836192734942 1 0 0 forward_v I I I I #
loop $-1 $-1 $150 $34 #
coedge $-1 $89 $89 $90 $151 reversed $53 $-1 #
coedge $-1 $90 $90 $89 $151 forward $55 $-1 #
coedge $-1 $91 $91 $56 $92 forward $86 $-1 #
edge $-1 $152 -1.3654903019464444e-015 $152 6.2831853071795987 $91 $153 forward 7 unknown #
loop $-1 $-1 $98 $57 #
plane-surface $-1 -38.451399237335679 -7.4257437284822103 29.986172597404796 0 0.71933980857756763 0.69465836192734942 1 0 0 forward_v I I I I #
loop $-1 $-1 $154 $37 #
coedge $-1 $96 $96 $97 $155 reversed $58 $-1 #
coedge $-1 $97 $97 $96 $155 forward $60 $-1 #
coedge $-1 $98 $98 $61 $99 forward $93 $-1 #
edge $-1 $156 -1.3654903019464444e-015 $156 6.2831853071795987 $98 $157 forward 7 unknown #
face $-1 $158 $159 $15 $-1 $160 reversed single #
loop $-1 $-1 $161 $62 #
plane-surface $-1 -45.521408734397411 0 0 1 0 0 0 0 -1 forward_v I I I I #
coedge $-1 $162 $111 $163 $164 forward $63 $-1 #
coedge $-1 $165 $65 $162 $166 forward $41 $-1 #
coedge $-1 $65 $165 $167 $168 forward $41 $-1 #
coedge $-1 $114 $113 $65 $107 reversed $115 $-1 #
edge $-1 $169 -19.073785618450962 $170 19.073785618450962 $106 $171 forward 7 unknown #
coedge $-1 $67 $66 $172 $173 forward $26 $-1 #
coedge $-1 $174 $175 $66 $110 reversed $159 $-1 #
edge $-1 $117 -45.521408734397411 $176 45.521408734397411 $109 $177 forward 7 unknown #
coedge $-1 $103 $178 $67 $112 reversed $63 $-1 #
edge $-1 $179 -45.521408734397411 $116 45.521408734397411 $111 $180 forward 7 unknown #
coedge $-1 $106 $68 $178 $181 forward $115 $-1 #
coedge $-1 $68 $106 $174 $182 reversed $115 $-1 #
loop $-1 $-1 $113 $158 #
vertex $-1 $69 $183 #
vertex $-1 $69 $184 #
straight-curve $-1 45.521408734397411 0 6.7553694107084965 0 1 0 I I #
face $-1 $185 $186 $16 $-1 $187 reversed single #
loop $-1 $-1 $76 $70 #
plane-surface $-1 -36.209074412532217 -22.33921619341681 0 1 0 0 0 0 -1 forward_v I I I I #
coedge $-1 $188 $189 $190 $191 forward $71 $-1 #
coedge $-1 $192 $73 $193 $194 forward $45 $-1 #
coedge $-1 $73 $192 $129 $195 forward $45 $-1 #
edge $-1 $131 -36.209074412532217 $196 -33.209074412532217 $73 $197 forward 7 unknown #
coedge $-1 $75 $74 $198 $199 forward $29 $-1 #
coedge $-1 $200 $201 $74 $128 forward $202 $-1 #
edge $-1 $203 33.209074412532217 $132 36.209074412532217 $127 $204 forward 7 unknown #
coedge $-1 $190 $76 $124 $195 reversed $120 $-1 #
coedge $-1 $76 $190 $200 $205 reversed $120 $-1 #
vertex $-1 $125 $206 #
vertex $-1 $205 $207 #
straight-curve $-1 -36.209074412532217 -19.073785618450962 0 0 0 1 I I #
face $-1 $-1 $146 $17 $-1 $208 reversed single #
loop $-1 $-1 $142 $78 #
plane-surface $-1 0 0 6.7553694107084965 0 0 1 1 0 0 forward_v I I I I #
coedge $-1 $209 $210 $139 $211 forward $79 $-1 #
coedge $-1 $212 $81 $83 $144 forward $49 $-1 #
coedge $-1 $81 $212 $137 $211 reversed $49 $-1 #
coedge $-1 $213 $84 $81 $141 forward $146 $-1 #
edge $-1 $148 12.155690121606106 $214 26.295709115729572 $140 $215 forward 7 unknown #
coedge $-1 $216 $217 $82 $143 forward $135 $-1 #
edge $-1 $218 -14.024507974748403 $147 -9.9587039624905849 $142 $219 forward 7 unknown #
edge $-1 $148 -38.147571236901939 $218 -32.294616410334925 $83 $220 forward 7 unknown #
coedge $-1 $84 $213 $216 $221 reversed $146 $-1 #
loop $-1 $-1 $140 $134 #
vertex $-1 $221 $222 #
vertex $-1 $85 $223 #
straight-curve $-1 -31.381389740273946 19.073785618450962 46.61491352276424 0 0 -1 I I #
coedge $-1 $150 $150 $-1 $224 reversed $88 $-1 #
edge $-1 $225 0 $225 6.2831853071796004 $89 $226 forward 7 unknown #
vertex $-1 $92 $227 #
ellipse-curve $-1 -41.481403307504991 17.040883612322052 4.6502377084305664 0 0.71933980857756763 0.69465836192734942 1 0 0 1 I I #
coedge $-1 $154 $154 $-1 $228 reversed $95 $-1 #
edge $-1 $229 0 $229 6.2831853071796004 $96 $230 forward 7 unknown #
vertex $-1 $99 $231 #
ellipse-curve $-1 -35.421395167166366 17.040883612322052 4.6502377084305664 0 0.71933980857756763 0.69465836192734942 1 0 0 1 I I #
face $-1 $-1 $115 $15 $-1 $232 reversed single #
loop $-1 $-1 $174 $100 #
plane-surface $-1 0 19.073785618450962 0 0 -1 0 0 0 -1 forward_v I I I I #
coedge $-1 $233 $172 $175 $234 forward $101 $-1 #
coedge $-1 $178 $103 $104 $166 reversed $63 $-1 #
coedge $-1 $172 $233 $103 $164 reversed $101 $-1 #
edge $-1 $179 -6.7553694107084965 $235 6.7553694107084965 $163 $236 forward 7 unknown #
coedge $-1 $105 $104 $233 $237 forward $41 $-1 #
edge $-1 $170 -45.521408734397411 $235 45.521408734397411 $162 $238 forward 7 unknown #
coedge $-1 $175 $174 $105 $168 reversed $159 $-1 #
edge $-1 $239 -45.521408734397411 $169 45.521408734397411 $167 $240 forward 7 unknown #
vertex $-1 $107 $241 #
vertex $-1 $181 $242 #
straight-curve $-1 45.521408734397411 0 -6.7553694107084965 0 -1 0 I I #
coedge $-1 $161 $163 $108 $173 reversed $101 $-1 #
edge $-1 $176 -19.073785618450962 $179 19.073785618450962 $172 $243 forward 7 unknown #
coedge $-1 $167 $109 $114 $182 forward $159 $-1 #
coedge $-1 $109 $167 $161 $234 reversed $159 $-1 #
vertex $-1 $110 $244 #
straight-curve $-1 0 19.073785618450962 6.7553694107084965 -1 0 0 I I #
coedge $-1 $111 $162 $113 $181 reversed $63 $-1 #
vertex $-1 $173 $245 #
straight-curve $-1 0 -19.073785618450962 6.7553694107084965 1 0 0 I I #
edge $-1 $116 -6.7553694107084965 $170 6.7553694107084965 $113 $246 forward 7 unknown #
edge $-1 $117 -6.7553694107084965 $169 6.7553694107084965 $114 $247 forward 7 unknown #
point $-1 45.521408734397411 -19.073785618450962 6.7553694107084965 #
point $-1 45.521408734397411 19.073785618450962 6.7553694107084965 #
face $-1 $-1 $202 $16 $-1 $248 forward single #
loop $-1 $-1 $249 $119 #
plane-surface $-1 -33.209074412532217 -22.33921619341681 0 -1 0 0 0 0 1 forward_v I I I I #
coedge $-1 $250 $122 $192 $251 reversed $71 $-1 #
coedge $-1 $122 $250 $252 $253 reversed $71 $-1 #
coedge $-1 $130 $129 $122 $191 reversed $120 $-1 #
edge $-1 $254 -6.7553694107084965 $255 6.7553694107084965 $190 $256 forward 7 unknown #
coedge $-1 $124 $123 $188 $251 forward $45 $-1 #
coedge $-1 $198 $249 $123 $194 reversed $186 $-1 #
edge $-1 $196 -3.2654305749658477 $257 3.2654305749658477 $193 $258 forward 7 unknown #
edge $-1 $255 -3.2654305749658477 $131 3.2654305749658477 $129 $259 forward 7 unknown #
vertex $-1 $194 $260 #
straight-curve $-1 0 -19.073785618450962 -6.7553694107084965 1 0 0 I I #
coedge $-1 $261 $193 $126 $199 reversed $186 $-1 #
edge $-1 $203 -6.7553694107084965 $196 6.7553694107084965 $198 $262 forward 7 unknown #
coedge $-1 $252 $127 $130 $205 forward $202 $-1 #
coedge $-1 $127 $252 $261 $263 forward $202 $-1 #
loop $-1 $-1 $127 $185 #
vertex $-1 $128 $264 #
straight-curve $-1 0 -19.073785618450962 6.7553694107084965 -1 0 0 I I #
edge $-1 $132 -3.2654305749658477 $254 3.2654305749658477 $130 $265 forward 7 unknown #
point $-1 -36.209074412532217 -19.073785618450962 -6.7553694107084965 #
point $-1 -36.209074412532217 -19.073785618450962 6.7553694107084965 #
plane-surface $-1 0 19.073785618450962 0 0 -1 0 0 0 -1 forward_v I I I I #
coedge $-1 $210 $137 $266 $267 reversed $79 $-1 #
coedge $-1 $137 $209 $213 $268 forward $79 $-1 #
edge $-1 $214 -24.783269921546534 $269 -18.93031509497952 $137 $270 forward 7 unknown #
coedge $-1 $139 $138 $217 $271 reversed $49 $-1 #
coedge $-1 $145 $140 $210 $268 reversed $146 $-1 #
vertex $-1 $211 $272 #
straight-curve $-1 -19.225699618667839 19.073785618450962 2.5451060061526309 -1 0 0 I I #
coedge $-1 $266 $142 $145 $221 forward $135 $-1 #
coedge $-1 $142 $266 $212 $271 forward $135 $-1 #
vertex $-1 $143 $273 #
straight-curve $-1 -31.381389740273946 29.032489580941547 6.7553694107084965 0 1 0 I I #
straight-curve $-1 -31.381389740273946 -7.4257437284822103 29.986172597404796 0 -0.69465836192734942 0.71933980857756763 I I #
edge $-1 $147 31.381389740273946 $274 45.521408734397411 $145 $275 forward 7 unknown #
point $-1 -31.381389740273946 19.073785618450962 6.7553694107084965 #
point $-1 -31.381389740273946 19.073785618450962 2.5451060061526292 #
edge $-1 $276 1 $276 0 $150 $-1 forward 7 unknown #
vertex $-1 $151 $277 #
ellipse-curve $-1 -41.481403307504991 15.609009480583927 3.2674929652942009 0 0.71933980857756763 0.69465836192734942 1 0 0 1 I I #
point $-1 -40.481403307504991 17.040883612322055 4.6502377084305717 #
edge $-1 $278 1 $278 0 $154 $-1 forward 7 unknown #
vertex $-1 $155 $279 #
ellipse-curve $-1 -35.421395167166366 15.609009480583927 3.2674929652942009 0 0.71933980857756763 0.69465836192734942 1 0 0 1 I I #
point $-1 -34.421395167166366 17.040883612322055 4.6502377084305717 #
plane-surface $-1 45.521408734397411 0 0 -1 0 0 0 0 1 forward_v I I I I #
coedge $-1 $163 $161 $165 $237 reversed $101 $-1 #
edge $-1 $176 -6.7553694107084965 $239 6.7553694107084965 $175 $280 forward 7 unknown #
vertex $-1 $237 $281 #
straight-curve $-1 -45.521408734397411 -19.073785618450962 0 0 0 -1 I I #
edge $-1 $235 -19.073785618450962 $239 19.073785618450962 $233 $282 forward 7 unknown #
straight-curve $-1 0 -19.073785618450962 -6.7553694107084965 -1 0 0 I I #
vertex $-1 $168 $283 #
straight-curve $-1 0 19.073785618450962 -6.7553694107084965 1 0 0 I I #
point $-1 45.521408734397411 19.073785618450962 -6.7553694107084965 #
point $-1 45.521408734397411 -19.073785618450962 -6.7553694107084965 #
straight-curve $-1 -45.521408734397411 0 6.7553694107084965 0 -1 0 I I #
point $-1 -45.521408734397411 19.073785618450962 6.7553694107084965 #
point $-1 -45.521408734397411 -19.073785618450962 6.7553694107084965 #
straight-curve $-1 45.521408734397411 -19.073785618450962 0 0 0 -1 I I #
straight-curve $-1 45.521408734397411 19.073785618450962 0 0 0 -1 I I #
plane-surface $-1 0 0 6.7553694107084965 0 0 1 1 0 0 forward_v I I I I #
coedge $-1 $193 $261 $250 $284 forward $186 $-1 #
coedge $-1 $189 $188 $249 $284 reversed $71 $-1 #
edge $-1 $257 -1.5 $255 1.5 $188 $285 forward 7 unknown #
coedge $-1 $201 $200 $189 $253 forward $202 $-1 #
edge $-1 $254 -1.5 $286 1.5 $189 $287 forward 7 unknown #
vertex $-1 $205 $288 #
vertex $-1 $195 $289 #
straight-curve $-1 -36.209074412532217 -25.604646768382658 0 0 0 -1 I I #
vertex $-1 $284 $290 #
straight-curve $-1 -33.209074412532217 -22.33921619341681 -6.7553694107084965 0 -1 0 I I #
straight-curve $-1 -36.209074412532217 -22.33921619341681 -6.7553694107084965 0 1 0 I I #
point $-1 -33.209074412532217 -19.073785618450962 -6.7553694107084965 #
coedge $-1 $249 $198 $201 $263 reversed $186 $-1 #
straight-curve $-1 -33.209074412532217 -19.073785618450962 0 0 0 -1 I I #
edge $-1 $286 -3.2654305749658477 $203 3.2654305749658477 $261 $291 forward 7 unknown #
point $-1 -33.209074412532217 -19.073785618450962 6.7553694107084965 #
straight-curve $-1 -36.209074412532217 -22.33921619341681 6.7553694107084965 0 -1 0 I I #
coedge $-1 $217 $216 $209 $267 forward $135 $-1 #
edge $-1 $274 -19.073785618450962 $269 -15.007981606193145 $209 $292 forward 7 unknown #
edge $-1 $274 -6.7553694107084965 $214 -2.5451060061526278 $213 $293 forward 7 unknown #
vertex $-1 $211 $294 #
straight-curve $-1 -45.521408734397411 1.8578799315460968 20.372698647444103 0 -0.69465836192734942 0.71933980857756763 I I #
edge $-1 $269 -26.295709115729572 $218 -12.155690121606106 $217 $295 forward 7 unknown #
point $-1 -45.521408734397411 19.073785618450962 2.5451060061526278 #
point $-1 -31.381389740273946 15.007981606193145 6.7553694107084965 #
vertex $-1 $221 $296 #
straight-curve $-1 0 19.073785618450962 6.7553694107084965 -1 0 0 I I #
vertex $-1 $224 $297 #
point $-1 -40.481403307504991 15.609009480583927 3.2674929652942009 #
vertex $-1 $228 $298 #
point $-1 -34.421395167166366 15.609009480583927 3.2674929652942009 #
straight-curve $-1 -45.521408734397411 19.073785618450962 0 0 0 -1 I I #
point $-1 -45.521408734397411 -19.073785618450962 -6.7553694107084965 #
straight-curve $-1 -45.521408734397411 0 -6.7553694107084965 0 1 0 I I #
point $-1 -45.521408734397411 19.073785618450962 -6.7553694107084965 #
edge $-1 $286 -6.7553694107084965 $257 6.7553694107084965 $249 $299 forward 7 unknown #
straight-curve $-1 -34.709074412532217 -25.604646768382658 -6.7553694107084965 -1 0 0 I I #
vertex $-1 $263 $300 #
straight-curve $-1 -34.709074412532217 -25.604646768382658 6.7553694107084965 1 0 0 I I #
point $-1 -36.209074412532217 -25.604646768382658 6.7553694107084965 #
point $-1 -36.209074412532217 -25.604646768382658 -6.7553694107084965 #
point $-1 -33.209074412532217 -25.604646768382658 -6.7553694107084965 #
straight-curve $-1 -33.209074412532217 -22.33921619341681 6.7553694107084965 0 1 0 I I #
straight-curve $-1 -45.521408734397411 0 6.7553694107084965 0 -1 0 I I #
straight-curve $-1 -45.521408734397411 19.073785618450962 0 0 0 -1 I I #
point $-1 -45.521408734397411 15.007981606193145 6.7553694107084965 #
straight-curve $-1 -19.225699618667839 15.007981606193145 6.7553694107084983 1 0 0 I I #
point $-1 -45.521408734397411 19.073785618450962 6.7553694107084965 #
point $-1 -41.481403307504991 14.889669672006358 2.5728346033668519 #
point $-1 -35.421395167166366 14.889669672006358 2.5728346033668519 #
straight-curve $-1 -33.209074412532217 -25.604646768382658 0 0 0 -1 I I #
point $-1 -33.209074412532217 -25.604646768382658 6.7553694107084965 #
End-of-ACIS-data 