500 0 8 0           
7 Unknown 11 ACIS 5.0 NT 24 Thu Mar 25 15:36:43 1999 
-1 9.9999999999999995e-007 1e-010 
body $-1 $8 $-1 $9 #
body $-1 $10 $-1 $11 #
body $-1 $12 $-1 $13 #
body $-1 $14 $-1 $15 #
body $-1 $16 $-1 $17 #
body $-1 $18 $-1 $19 #
body $-1 $20 $-1 $21 #
body $-1 $22 $-1 $23 #
lump $-1 $-1 $24 $0 #
transform $-1 1 0 0 0 1 0 0 0 1 57.119663075655382 34.706553665915962 12.026704741203327 1 rotate no_reflect no_shear #
lump $-1 $-1 $25 $1 #
transform $-1 1 0 0 0 1 0 0 0 1 57.119663075655382 34.706553665915962 12.026704741203327 1 rotate no_reflect no_shear #
lump $-1 $-1 $26 $2 #
transform $-1 1 0 0 0 1 0 0 0 1 57.119663075655382 34.706553665915962 12.026704741203327 1 rotate no_reflect no_shear #
lump $-1 $-1 $27 $3 #
transform $-1 1 0 0 0 1 0 0 0 1 57.119663075655382 34.706553665915962 12.026704741203327 1 rotate no_reflect no_shear #
lump $-1 $-1 $28 $4 #
transform $-1 1 0 0 0 1 0 0 0 1 57.119663075655382 34.706553665915962 12.026704741203327 1 rotate no_reflect no_shear #
lump $-1 $-1 $29 $5 #
transform $-1 1 0 0 0 1 0 0 0 1 57.119663075655382 34.706553665915962 12.026704741203327 1 rotate no_reflect no_shear #
lump $-1 $-1 $30 $6 #
transform $-1 1 0 0 0 1 0 0 0 1 57.119663075655382 34.706553665915962 12.026704741203327 1 rotate no_reflect no_shear #
lump $-1 $-1 $31 $7 #
transform $-1 1 0 0 0 1 0 0 0 1 57.119663075655382 34.706553665915962 12.026704741203327 1 rotate no_reflect no_shear #
shell $-1 $-1 $-1 $32 $-1 $8 #
shell $-1 $-1 $-1 $33 $-1 $10 #
shell $-1 $-1 $-1 $34 $-1 $12 #
shell $-1 $-1 $-1 $35 $-1 $14 #
shell $-1 $-1 $-1 $36 $-1 $16 #
shell $-1 $-1 $-1 $37 $-1 $18 #
shell $-1 $-1 $-1 $38 $-1 $20 #
shell $-1 $-1 $-1 $39 $-1 $22 #
face $-1 $40 $41 $24 $-1 $42 forward single #
face $-1 $43 $44 $25 $-1 $45 reversed single #
face $-1 $46 $47 $26 $-1 $48 reversed single #
face $-1 $49 $50 $27 $-1 $51 forward single #
face $-1 $52 $53 $28 $-1 $54 forward single #
face $-1 $55 $56 $29 $-1 $57 reversed single #
face $-1 $58 $59 $30 $-1 $60 forward single #
face $-1 $61 $62 $31 $-1 $63 forward single #
face $-1 $64 $65 $24 $-1 $66 reversed single #
loop $-1 $-1 $67 $32 #
plane-surface $-1 0 0 12.026704741203327 0 0 1 1 0 0 forward_v I I I I #
face $-1 $68 $69 $25 $-1 $70 reversed single #
loop $-1 $-1 $71 $33 #
plane-surface $-1 -52.532884822878884 -31.706553665915962 0 0 -1 0 0 0 -1 forward_v I I I I #
face $-1 $72 $73 $26 $-1 $74 reversed single #
loop $-1 $-1 $75 $34 #
plane-surface $-1 -37.420130578873064 -34.706553665915962 3.2977899245260573 0 -0.69465837861970381 0.71933979245794832 1 0 0 forward_v I I I I #
face $-1 $76 $77 $27 $-1 $78 forward single #
loop $-1 $79 $80 $35 #
cone-surface $-1 -41.931263146542776 -28.260947823618906 5.6677352272650907 0 0.69465837861970381 -0.71933979245794832 2 0 0 1 I I 0 1 2 forward I I I I #
face $-1 $81 $82 $28 $-1 $83 forward single #
loop $-1 $84 $85 $36 #
cone-surface $-1 -32.908998011203352 -28.260947823618906 5.6677352272650907 0 0.69465837861970381 -0.71933979245794832 2 0 0 1 I I 0 1 2 forward I I I I #
face $-1 $86 $87 $29 $-1 $88 reversed single #
loop $-1 $-1 $89 $37 #
plane-surface $-1 -41.288023979140775 75.384973363898283 127.82979384017545 1 0 0 0 -0.75470958851134928 -0.65605901945558964 forward_v I I I I #
face $-1 $90 $91 $30 $-1 $92 forward single #
loop $-1 $93 $94 $38 #
cone-surface $-1 -36.939069106552267 27.243796133651259 4.1306354839238431 0 -0.75470958851134928 -0.65605901945558964 2 0 0 1 I I 0 1 2 forward I I I I #
face $-1 $95 $96 $31 $-1 $97 forward single #
loop $-1 $98 $99 $39 #
cone-surface $-1 -30.415636797669507 27.243796133651259 4.1306354839238431 0 -0.75470958851134928 -0.65605901945558964 2 0 0 1 I I 0 1 2 forward I I I I #
face $-1 $100 $101 $24 $-1 $102 reversed single #
loop $-1 $-1 $103 $40 #
plane-surface $-1 0 0 -12.026704741203327 0 0 1 1 0 0 forward_v I I I I #
coedge $-1 $104 $105 $106 $107 forward $41 $-1 #
face $-1 $108 $109 $25 $-1 $110 forward single #
loop $-1 $-1 $111 $43 #
plane-surface $-1 -47.946106570102387 -33.206553665915962 0 -1 0 0 0 0 1 forward_v I I I I #
coedge $-1 $112 $113 $114 $115 forward $44 $-1 #
face $-1 $116 $117 $26 $-1 $118 forward single #
loop $-1 $-1 $119 $46 #
plane-surface $-1 -26.89415458764374 -114.06385874479302 85.474683088745806 -1 0 0 0 -0.69465837861970381 0.71933979245794832 forward_v I I I I #
coedge $-1 $120 $121 $122 $123 reversed $47 $-1 #
face $-1 $-1 $124 $27 $-1 $125 forward single #
loop $-1 $126 $127 $49 #
cone-surface $-1 -41.931263146542776 -25.640211449676592 2.9538833292075459 0 0.69465837861970381 -0.71933979245794832 1 0 0 1 I I -0.70710678118654768 0.70710678118654735 1 forward I I I I #
loop $-1 $-1 $128 $35 #
coedge $-1 $80 $80 $129 $130 reversed $50 $-1 #
face $-1 $-1 $131 $28 $-1 $132 forward single #
loop $-1 $133 $134 $52 #
cone-surface $-1 -32.908998011203352 -25.640211449676592 2.9538833292075459 0 0.69465837861970381 -0.71933979245794832 1 0 0 1 I I -0.70710678118654768 0.70710678118654735 1 forward I I I I #
loop $-1 $-1 $135 $36 #
coedge $-1 $85 $85 $136 $137 reversed $53 $-1 #
face $-1 $138 $139 $29 $-1 $140 reversed single #
loop $-1 $-1 $141 $55 #
plane-surface $-1 -33.677352952110887 -10.832541467571289 52.88205354207922 0 0.75470958851134928 0.65605901945558964 1 0 0 forward_v I I I I #
coedge $-1 $142 $143 $144 $145 reversed $56 $-1 #
face $-1 $-1 $146 $30 $-1 $147 forward single #
loop $-1 $148 $149 $58 #
cone-surface $-1 -36.939069106552267 24.038370591992397 1.344201642601325 0 -0.75470958851134928 -0.65605901945558964 1 0 0 1 I I -0.70710678118654746 0.70710678118654746 1 forward I I I I #
loop $-1 $-1 $150 $38 #
coedge $-1 $94 $94 $151 $152 reversed $59 $-1 #
face $-1 $-1 $153 $31 $-1 $154 forward single #
loop $-1 $155 $156 $61 #
cone-surface $-1 -30.415636797669507 24.038370591992397 1.344201642601325 0 -0.75470958851134928 -0.65605901945558964 1 0 0 1 I I -0.70710678118654746 0.70710678118654746 1 forward I I I I #
loop $-1 $-1 $157 $39 #
coedge $-1 $99 $99 $158 $159 reversed $62 $-1 #
face $-1 $160 $161 $24 $-1 $162 reversed single #
loop $-1 $-1 $163 $64 #
plane-surface $-1 0 -34.706553665915962 0 0 1 0 0 0 1 forward_v I I I I #
coedge $-1 $164 $165 $166 $167 forward $65 $-1 #
coedge $-1 $168 $67 $169 $170 forward $41 $-1 #
coedge $-1 $67 $168 $171 $172 forward $41 $-1 #
coedge $-1 $173 $174 $67 $107 reversed $175 $-1 #
edge $-1 $176 -34.706553665915962 $177 34.706553665915962 $106 $178 forward 7 unknown #
face $-1 $179 $180 $25 $-1 $181 reversed single #
loop $-1 $-1 $182 $68 #
plane-surface $-1 0 0 12.026704741203327 0 0 1 1 0 0 forward_v I I I I #
coedge $-1 $183 $184 $185 $186 reversed $69 $-1 #
coedge $-1 $187 $71 $188 $189 reversed $44 $-1 #
coedge $-1 $71 $187 $190 $191 reversed $44 $-1 #
coedge $-1 $184 $183 $71 $115 reversed $69 $-1 #
edge $-1 $192 -12.026704741203327 $193 12.026704741203327 $114 $194 forward 7 unknown #
face $-1 $195 $196 $26 $-1 $197 forward single #
loop $-1 $-1 $198 $72 #
plane-surface $-1 0 0 12.026704741203327 0 0 1 1 0 0 forward_v I I I I #
coedge $-1 $199 $200 $201 $202 reversed $73 $-1 #
coedge $-1 $203 $75 $204 $205 reversed $47 $-1 #
coedge $-1 $75 $203 $199 $206 forward $47 $-1 #
coedge $-1 $201 $207 $75 $123 forward $208 $-1 #
edge $-1 $209 -29.236041280665855 $210 -8.1840892982072084 $122 $211 forward 7 unknown #
loop $-1 $-1 $129 $76 #
plane-surface $-1 -37.420130578873064 -34.706553665915962 3.2977899245260573 0 -0.69465837861970381 0.71933979245794832 1 0 0 forward_v I I I I #
loop $-1 $-1 $212 $49 #
coedge $-1 $127 $127 $128 $213 reversed $77 $-1 #
coedge $-1 $128 $128 $127 $213 forward $79 $-1 #
coedge $-1 $129 $129 $80 $130 forward $124 $-1 #
edge $-1 $214 4.3842998277633797e-017 $214 6.2831853071796004 $129 $215 forward 7 unknown #
loop $-1 $-1 $136 $81 #
plane-surface $-1 -37.420130578873064 -34.706553665915962 3.2977899245260573 0 -0.69465837861970381 0.71933979245794832 1 0 0 forward_v I I I I #
loop $-1 $-1 $216 $52 #
coedge $-1 $134 $134 $135 $217 reversed $82 $-1 #
coedge $-1 $135 $135 $134 $217 forward $84 $-1 #
coedge $-1 $136 $136 $85 $137 forward $131 $-1 #
edge $-1 $218 4.3842998277633797e-017 $218 6.2831853071796004 $136 $219 forward 7 unknown #
face $-1 $220 $221 $29 $-1 $222 reversed single #
loop $-1 $-1 $223 $86 #
plane-surface $-1 -26.066681925080999 75.384973363898283 127.82979384017545 -1 0 0 0 0.75470958851134928 0.65605901945558964 forward_v I I I I #
coedge $-1 $224 $225 $226 $227 reversed $87 $-1 #
coedge $-1 $143 $89 $228 $229 reversed $56 $-1 #
coedge $-1 $89 $142 $224 $230 reversed $56 $-1 #
coedge $-1 $226 $231 $89 $145 forward $232 $-1 #
edge $-1 $233 2.9859330160331794 $234 13.010016174267555 $144 $235 forward 7 unknown #
loop $-1 $-1 $151 $90 #
plane-surface $-1 -33.677352952110887 -10.832541467571289 52.88205354207922 0 0.75470958851134928 0.65605901945558964 1 0 0 forward_v I I I I #
loop $-1 $-1 $236 $58 #
coedge $-1 $149 $149 $150 $237 reversed $91 $-1 #
coedge $-1 $150 $150 $149 $237 forward $93 $-1 #
coedge $-1 $151 $151 $94 $152 forward $146 $-1 #
edge $-1 $238 1.0054751544848131e-015 $238 6.2831853071796013 $151 $239 forward 7 unknown #
loop $-1 $-1 $158 $95 #
plane-surface $-1 -33.677352952110887 -10.832541467571289 52.88205354207922 0 0.75470958851134928 0.65605901945558964 1 0 0 forward_v I I I I #
loop $-1 $-1 $240 $61 #
coedge $-1 $156 $156 $157 $241 reversed $96 $-1 #
coedge $-1 $157 $157 $156 $241 forward $98 $-1 #
coedge $-1 $158 $158 $99 $159 forward $153 $-1 #
edge $-1 $242 1.0054751544848131e-015 $242 6.2831853071796013 $158 $243 forward 7 unknown #
face $-1 $244 $245 $24 $-1 $246 reversed single #
loop $-1 $-1 $247 $100 #
plane-surface $-1 -57.119663075655382 0 0 1 0 0 0 0 -1 forward_v I I I I #
coedge $-1 $248 $171 $249 $250 forward $101 $-1 #
coedge $-1 $251 $103 $248 $252 forward $65 $-1 #
coedge $-1 $103 $251 $253 $254 forward $65 $-1 #
coedge $-1 $174 $173 $103 $167 reversed $175 $-1 #
edge $-1 $255 -34.706553665915962 $256 34.706553665915962 $166 $257 forward 7 unknown #
coedge $-1 $105 $104 $258 $259 forward $41 $-1 #
coedge $-1 $260 $261 $104 $170 reversed $245 $-1 #
edge $-1 $177 -57.119663075655382 $262 57.119663075655382 $169 $263 forward 7 unknown #
coedge $-1 $163 $264 $105 $172 reversed $101 $-1 #
edge $-1 $265 -57.119663075655382 $176 57.119663075655382 $171 $266 forward 7 unknown #
coedge $-1 $166 $106 $264 $267 forward $175 $-1 #
coedge $-1 $106 $166 $260 $268 reversed $175 $-1 #
loop $-1 $-1 $173 $244 #
vertex $-1 $107 $269 #
vertex $-1 $107 $270 #
straight-curve $-1 57.119663075655382 0 12.026704741203327 0 1 0 I I #
face $-1 $271 $272 $25 $-1 $273 reversed single #
loop $-1 $-1 $274 $108 #
plane-surface $-1 -57.119663075655382 0 0 1 0 0 0 0 -1 forward_v I I I I #
coedge $-1 $190 $275 $184 $276 forward $109 $-1 #
coedge $-1 $114 $111 $277 $278 reversed $69 $-1 #
coedge $-1 $111 $114 $182 $276 reversed $69 $-1 #
coedge $-1 $279 $280 $111 $186 forward $281 $-1 #
edge $-1 $282 -12.026704741203327 $283 12.026704741203327 $185 $284 forward 7 unknown #
coedge $-1 $113 $112 $274 $285 reversed $44 $-1 #
coedge $-1 $277 $286 $112 $189 forward $272 $-1 #
edge $-1 $287 -30.853220664215939 $193 -21.679664158662945 $188 $288 forward 7 unknown #
coedge $-1 $289 $182 $113 $191 forward $109 $-1 #
edge $-1 $192 21.679664158662945 $290 30.853220664215939 $190 $291 forward 7 unknown #
vertex $-1 $191 $292 #
vertex $-1 $189 $293 #
straight-curve $-1 -47.946106570102387 -31.706553665915962 0 0 0 -1 I I #
face $-1 $-1 $208 $26 $-1 $294 reversed single #
loop $-1 $-1 $204 $116 #
plane-surface $-1 -47.946106570102387 -33.206553665915962 0 -1 0 0 0 0 1 forward_v I I I I #
coedge $-1 $295 $296 $200 $297 forward $117 $-1 #
coedge $-1 $200 $119 $121 $206 reversed $73 $-1 #
coedge $-1 $119 $199 $198 $297 reversed $73 $-1 #
coedge $-1 $298 $122 $119 $202 forward $208 $-1 #
edge $-1 $210 -39.439551619846846 $299 -30.710636803169578 $201 $300 forward 7 unknown #
coedge $-1 $121 $120 $295 $301 reversed $47 $-1 #
coedge $-1 $302 $303 $120 $205 forward $196 $-1 #
edge $-1 $304 -13.171680117219942 $209 -0.60591385665637221 $204 $305 forward 7 unknown #
edge $-1 $306 -12.565766260563571 $210 0 $199 $307 forward 7 unknown #
coedge $-1 $122 $298 $302 $308 forward $208 $-1 #
loop $-1 $-1 $201 $195 #
vertex $-1 $205 $309 #
vertex $-1 $123 $310 #
straight-curve $-1 -18.710065289436532 -34.706553665915962 3.2977899245260582 1 0 0 I I #
coedge $-1 $212 $212 $-1 $311 reversed $126 $-1 #
edge $-1 $312 0 $312 6.2831853071796004 $127 $313 forward 7 unknown #
vertex $-1 $130 $314 #
ellipse-curve $-1 -41.931263146542776 -30.187025818941517 7.6622473328646903 0 -0.69465837861970381 0.71933979245794832 2 0 0 1 I I #
coedge $-1 $216 $216 $-1 $315 reversed $133 $-1 #
edge $-1 $316 0 $316 6.2831853071796004 $134 $317 forward 7 unknown #
vertex $-1 $137 $318 #
ellipse-curve $-1 -32.908998011203352 -30.187025818941517 7.6622473328646903 0 -0.69465837861970381 0.71933979245794832 2 0 0 1 I I #
face $-1 $-1 $232 $29 $-1 $319 forward single #
loop $-1 $-1 $320 $138 #
plane-surface $-1 0 34.706553665915962 0 0 -1 0 0 0 -1 forward_v I I I I #
coedge $-1 $321 $322 $323 $324 reversed $139 $-1 #
coedge $-1 $325 $141 $143 $230 forward $87 $-1 #
coedge $-1 $141 $325 $321 $326 forward $87 $-1 #
coedge $-1 $323 $144 $141 $227 forward $232 $-1 #
edge $-1 $234 -24.449347503085331 $327 -9.2280054490255559 $226 $328 forward 7 unknown #
coedge $-1 $329 $330 $142 $229 forward $221 $-1 #
edge $-1 $331 -63.4195810497095 $233 -51.888192178884402 $228 $332 forward 7 unknown #
edge $-1 $234 54.13386741443464 $331 69.413107331831938 $143 $333 forward 7 unknown #
coedge $-1 $144 $323 $329 $334 forward $232 $-1 #
loop $-1 $-1 $323 $220 #
vertex $-1 $229 $335 #
vertex $-1 $145 $336 #
straight-curve $-1 -41.288023979140775 37.692486681949141 12.026704741203325 0 -1 0 I I #
coedge $-1 $236 $236 $-1 $337 reversed $148 $-1 #
edge $-1 $338 0 $338 6.2831853071796004 $149 $339 forward 7 unknown #
vertex $-1 $152 $340 #
ellipse-curve $-1 -36.939069106552267 29.694512086798774 6.2610103057907747 0 0.75470958851134928 0.65605901945558964 2 0 0 1 I I #
coedge $-1 $240 $240 $-1 $341 reversed $155 $-1 #
edge $-1 $342 0 $342 6.2831853071796004 $156 $343 forward 7 unknown #
vertex $-1 $159 $344 #
ellipse-curve $-1 -30.415636797669507 29.694512086798774 6.2610103057907747 0 0.75470958851134928 0.65605901945558964 2 0 0 1 I I #
face $-1 $-1 $175 $24 $-1 $345 reversed single #
loop $-1 $-1 $260 $160 #
plane-surface $-1 0 34.706553665915962 0 0 -1 0 0 0 -1 forward_v I I I I #
coedge $-1 $346 $258 $261 $347 forward $161 $-1 #
coedge $-1 $264 $163 $164 $252 reversed $101 $-1 #
coedge $-1 $258 $346 $163 $250 reversed $161 $-1 #
edge $-1 $265 -12.026704741203327 $348 12.026704741203327 $249 $349 forward 7 unknown #
coedge $-1 $165 $164 $346 $350 forward $65 $-1 #
edge $-1 $256 -57.119663075655382 $348 57.119663075655382 $248 $351 forward 7 unknown #
coedge $-1 $261 $260 $165 $254 reversed $245 $-1 #
edge $-1 $352 -57.119663075655382 $255 57.119663075655382 $253 $353 forward 7 unknown #
vertex $-1 $167 $354 #
vertex $-1 $267 $355 #
straight-curve $-1 57.119663075655382 0 -12.026704741203327 0 -1 0 I I #
coedge $-1 $247 $249 $168 $259 reversed $161 $-1 #
edge $-1 $262 -34.706553665915962 $265 34.706553665915962 $258 $356 forward 7 unknown #
coedge $-1 $253 $169 $174 $268 forward $245 $-1 #
coedge $-1 $169 $253 $247 $347 reversed $245 $-1 #
vertex $-1 $170 $357 #
straight-curve $-1 0 34.706553665915962 12.026704741203327 -1 0 0 I I #
coedge $-1 $171 $248 $173 $267 reversed $101 $-1 #
vertex $-1 $259 $358 #
straight-curve $-1 0 -34.706553665915962 12.026704741203327 1 0 0 I I #
edge $-1 $176 -12.026704741203327 $256 12.026704741203327 $173 $359 forward 7 unknown #
edge $-1 $177 -12.026704741203327 $255 12.026704741203327 $174 $360 forward 7 unknown #
point $-1 57.119663075655382 -34.706553665915962 12.026704741203327 #
point $-1 57.119663075655382 34.706553665915962 12.026704741203327 #
face $-1 $-1 $281 $25 $-1 $361 reversed single #
loop $-1 $-1 $277 $179 #
plane-surface $-1 0 0 -12.026704741203327 0 0 1 1 0 0 forward_v I I I I #
coedge $-1 $362 $363 $187 $285 forward $180 $-1 #
coedge $-1 $182 $289 $279 $364 forward $109 $-1 #
edge $-1 $283 -18.103276832957981 $192 -15.103276832957981 $182 $365 forward 7 unknown #
coedge $-1 $366 $188 $183 $278 forward $272 $-1 #
edge $-1 $193 15.103276832957981 $282 18.103276832957981 $277 $367 forward 7 unknown #
coedge $-1 $368 $185 $275 $364 reversed $281 $-1 #
coedge $-1 $185 $368 $366 $369 reversed $281 $-1 #
loop $-1 $-1 $185 $271 #
vertex $-1 $369 $370 #
vertex $-1 $186 $371 #
straight-curve $-1 -47.946106570102387 -34.706553665915962 0 0 0 1 I I #
edge $-1 $290 -12.026704741203327 $287 12.026704741203327 $274 $372 forward 7 unknown #
coedge $-1 $188 $366 $362 $373 forward $272 $-1 #
vertex $-1 $189 $374 #
straight-curve $-1 -26.266442411439442 -31.706553665915962 -12.026704741203327 1 0 0 I I #
coedge $-1 $275 $190 $363 $375 forward $109 $-1 #
vertex $-1 $375 $376 #
straight-curve $-1 -26.266442411439442 -31.706553665915962 12.026704741203327 -1 0 0 I I #
point $-1 -47.946106570102387 -31.706553665915962 12.026704741203327 #
point $-1 -47.946106570102387 -31.706553665915962 -12.026704741203327 #
plane-surface $-1 0 -34.706553665915962 0 0 1 0 0 0 1 forward_v I I I I #
coedge $-1 $377 $198 $203 $301 forward $117 $-1 #
coedge $-1 $198 $377 $298 $378 forward $117 $-1 #
edge $-1 $299 22.32537570648055 $306 31.364431400429439 $198 $379 forward 7 unknown #
coedge $-1 $207 $201 $296 $378 reversed $208 $-1 #
vertex $-1 $297 $380 #
straight-curve $-1 -26.89415458764374 -34.706553665915962 42.737341544372903 0 0 1 I I #
edge $-1 $306 8.1840892982072084 $304 29.236041280665855 $295 $381 forward 7 unknown #
coedge $-1 $303 $204 $207 $308 reversed $196 $-1 #
coedge $-1 $204 $302 $377 $382 reversed $196 $-1 #
vertex $-1 $382 $383 #
straight-curve $-1 -47.946106570102387 -35.142411613810552 2.8768867872779302 0 -0.71933979245794832 -0.69465837861970381 I I #
vertex $-1 $301 $384 #
straight-curve $-1 -26.89415458764374 -34.706553665915962 3.2977899245260573 0 -0.71933979245794832 -0.69465837861970381 I I #
edge $-1 $385 -12.026704741203327 $209 -3.2977899245260573 $207 $386 forward 7 unknown #
point $-1 -47.946106570102387 -34.706553665915962 3.2977899245260573 #
point $-1 -26.89415458764374 -34.706553665915962 3.2977899245260573 #
edge $-1 $387 1 $387 0 $212 $-1 forward 7 unknown #
vertex $-1 $213 $388 #
ellipse-curve $-1 -41.931263146542776 -26.334869828296295 3.6732231216654938 0 -0.69465837861970381 0.71933979245794832 2 0 0 1 I I #
point $-1 -39.931263146542776 -30.187025818941514 7.6622473328646867 #
edge $-1 $389 1 $389 0 $216 $-1 forward 7 unknown #
vertex $-1 $217 $390 #
ellipse-curve $-1 -32.908998011203352 -26.334869828296295 3.6732231216654938 0 -0.69465837861970381 0.71933979245794832 2 0 0 1 I I #
point $-1 -30.908998011203352 -30.187025818941514 7.6622473328646867 #
plane-surface $-1 0 0 12.026704741203327 0 0 1 1 0 0 forward_v I I I I #
coedge $-1 $330 $329 $322 $391 forward $221 $-1 #
coedge $-1 $322 $223 $225 $326 reversed $139 $-1 #
coedge $-1 $223 $321 $320 $391 reversed $139 $-1 #
coedge $-1 $231 $226 $223 $324 forward $232 $-1 #
edge $-1 $327 -13.010016174267555 $392 -2.9859330160331794 $323 $393 forward 7 unknown #
coedge $-1 $225 $224 $330 $394 reversed $87 $-1 #
edge $-1 $395 -69.413107331831938 $327 -54.13386741443464 $321 $396 forward 7 unknown #
vertex $-1 $227 $397 #
straight-curve $-1 -16.838676476055443 24.682470507681586 12.026704741203321 1 0 0 I I #
coedge $-1 $320 $228 $231 $334 reversed $221 $-1 #
coedge $-1 $228 $320 $325 $394 forward $221 $-1 #
vertex $-1 $229 $398 #
straight-curve $-1 -41.288023979140775 34.706553665915962 63.914896920087727 0 0 1 I I #
straight-curve $-1 -41.288023979140775 -10.832541467571289 52.88205354207922 0 0.65605901945558964 -0.75470958851134928 I I #
edge $-1 $392 26.066681925080999 $233 41.288023979140775 $329 $399 forward 7 unknown #
point $-1 -41.288023979140775 34.706553665915962 12.026704741203327 #
point $-1 -41.288023979140775 24.682470507681586 12.026704741203325 #
edge $-1 $400 1 $400 0 $236 $-1 forward 7 unknown #
vertex $-1 $237 $401 #
ellipse-curve $-1 -36.939069106552267 24.793080180503747 2.0002606620569146 0 0.75470958851134928 0.65605901945558964 2 0 0 1 I I #
point $-1 -34.939069106552267 29.694512086798774 6.261010305790772 #
edge $-1 $402 1 $402 0 $240 $-1 forward 7 unknown #
vertex $-1 $241 $403 #
ellipse-curve $-1 -30.415636797669507 24.793080180503747 2.0002606620569146 0 0.75470958851134928 0.65605901945558964 2 0 0 1 I I #
point $-1 -28.415636797669507 29.694512086798774 6.261010305790772 #
plane-surface $-1 57.119663075655382 0 0 -1 0 0 0 0 1 forward_v I I I I #
coedge $-1 $249 $247 $251 $350 reversed $161 $-1 #
edge $-1 $262 -12.026704741203327 $352 12.026704741203327 $261 $404 forward 7 unknown #
vertex $-1 $350 $405 #
straight-curve $-1 -57.119663075655382 -34.706553665915962 0 0 0 -1 I I #
edge $-1 $348 -34.706553665915962 $352 34.706553665915962 $346 $406 forward 7 unknown #
straight-curve $-1 0 -34.706553665915962 -12.026704741203327 -1 0 0 I I #
vertex $-1 $254 $407 #
straight-curve $-1 0 34.706553665915962 -12.026704741203327 1 0 0 I I #
point $-1 57.119663075655382 34.706553665915962 -12.026704741203327 #
point $-1 57.119663075655382 -34.706553665915962 -12.026704741203327 #
straight-curve $-1 -57.119663075655382 0 12.026704741203327 0 -1 0 I I #
point $-1 -57.119663075655382 34.706553665915962 12.026704741203327 #
point $-1 -57.119663075655382 -34.706553665915962 12.026704741203327 #
straight-curve $-1 57.119663075655382 -34.706553665915962 0 0 0 -1 I I #
straight-curve $-1 57.119663075655382 34.706553665915962 0 0 0 -1 I I #
plane-surface $-1 0 -34.706553665915962 0 0 1 0 0 0 1 forward_v I I I I #
coedge $-1 $408 $274 $286 $373 reversed $180 $-1 #
coedge $-1 $274 $408 $289 $375 reversed $180 $-1 #
edge $-1 $409 -57.119663075655382 $283 -47.946106570102387 $279 $410 forward 7 unknown #
straight-curve $-1 -47.946106570102387 -16.603276832957981 12.026704741203327 0 1 0 I I #
coedge $-1 $286 $277 $280 $369 forward $272 $-1 #
straight-curve $-1 -47.946106570102387 -16.603276832957981 -12.026704741203327 0 -1 0 I I #
coedge $-1 $280 $279 $408 $411 forward $281 $-1 #
edge $-1 $282 47.946106570102387 $412 57.119663075655382 $280 $413 forward 7 unknown #
point $-1 -47.946106570102387 -34.706553665915962 -12.026704741203327 #
point $-1 -47.946106570102387 -34.706553665915962 12.026704741203327 #
straight-curve $-1 -57.119663075655382 -31.706553665915962 0 0 0 -1 I I #
edge $-1 $412 -34.706553665915962 $287 -31.706553665915962 $362 $414 forward 7 unknown #
point $-1 -57.119663075655382 -31.706553665915962 -12.026704741203327 #
edge $-1 $290 31.706553665915962 $409 34.706553665915962 $363 $415 forward 7 unknown #
point $-1 -57.119663075655382 -31.706553665915962 12.026704741203327 #
coedge $-1 $296 $295 $303 $382 forward $117 $-1 #
edge $-1 $385 -47.946106570102387 $299 -26.89415458764374 $298 $416 forward 7 unknown #
straight-curve $-1 -26.89415458764374 -57.031929372396512 12.026704741203325 0 1 0 I I #
point $-1 -26.89415458764374 -34.706553665915962 12.026704741203327 #
straight-curve $-1 -18.710065289436532 -25.667497971967073 12.026704741203327 -1 0 0 I I #
edge $-1 $304 -31.364431400429439 $385 -22.32537570648055 $377 $417 forward 7 unknown #
point $-1 -47.946106570102387 -25.667497971967073 12.026704741203327 #
point $-1 -26.89415458764374 -25.667497971967073 12.026704741203327 #
vertex $-1 $378 $418 #
straight-curve $-1 -47.946106570102387 -34.706553665915962 0 0 0 -1 I I #
vertex $-1 $311 $419 #
point $-1 -39.931263146542776 -26.334869828296295 3.6732231216654938 #
vertex $-1 $315 $420 #
point $-1 -30.908998011203352 -26.334869828296295 3.6732231216654938 #
edge $-1 $392 51.888192178884402 $395 63.4195810497095 $320 $421 forward 7 unknown #
vertex $-1 $334 $422 #
straight-curve $-1 -26.066681925080999 37.692486681949141 12.026704741203325 0 1 0 I I #
edge $-1 $395 9.2280054490255559 $331 24.449347503085331 $330 $423 forward 7 unknown #
vertex $-1 $394 $424 #
straight-curve $-1 -26.066681925080999 -10.832541467571289 52.88205354207922 0 -0.65605901945558964 0.75470958851134928 I I #
point $-1 -26.066681925080999 24.682470507681586 12.026704741203325 #
point $-1 -41.288023979140775 34.706553665915962 0.49531587037822788 #
straight-curve $-1 0 34.706553665915962 12.026704741203327 -1 0 0 I I #
vertex $-1 $337 $425 #
point $-1 -34.939069106552267 24.793080180503747 2.0002606620569146 #
vertex $-1 $341 $426 #
point $-1 -28.415636797669507 24.793080180503747 2.0002606620569146 #
straight-curve $-1 -57.119663075655382 34.706553665915962 0 0 0 -1 I I #
point $-1 -57.119663075655382 -34.706553665915962 -12.026704741203327 #
straight-curve $-1 -57.119663075655382 0 -12.026704741203327 0 1 0 I I #
point $-1 -57.119663075655382 34.706553665915962 -12.026704741203327 #
coedge $-1 $363 $362 $368 $411 reversed $180 $-1 #
vertex $-1 $375 $427 #
straight-curve $-1 0 -34.706553665915962 12.026704741203327 1 0 0 I I #
edge $-1 $409 -12.026704741203327 $412 12.026704741203327 $408 $428 forward 7 unknown #
vertex $-1 $373 $429 #
straight-curve $-1 0 -34.706553665915962 -12.026704741203327 -1 0 0 I I #
straight-curve $-1 -57.119663075655382 0 -12.026704741203327 0 1 0 I I #
straight-curve $-1 -57.119663075655382 0 12.026704741203327 0 -1 0 I I #
straight-curve $-1 0 -34.706553665915962 12.026704741203327 1 0 0 I I #
straight-curve $-1 -47.946106570102387 -57.031929372396512 12.026704741203325 0 -1 0 I I #
point $-1 -47.946106570102387 -34.706553665915962 12.026704741203327 #
point $-1 -41.931263146542776 -24.945553071056889 2.234543536749598 #
point $-1 -32.908998011203352 -24.945553071056889 2.234543536749598 #
straight-curve $-1 -26.066681925080999 34.706553665915962 63.914896920087727 0 0 -1 I I #
point $-1 -26.066681925080999 34.706553665915962 12.026704741203327 #
straight-curve $-1 -16.838676476055443 34.706553665915962 0.49531587037822788 -1 0 0 I I #
point $-1 -26.066681925080999 34.706553665915962 0.49531587037822788 #
point $-1 -36.939069106552267 23.283661003481047 0.68814262314573538 #
point $-1 -30.415636797669507 23.283661003481047 0.68814262314573538 #
point $-1 -57.119663075655382 -34.706553665915962 12.026704741203327 #
straight-curve $-1 -57.119663075655382 -34.706553665915962 0 0 0 -1 I I #
point $-1 -57.119663075655382 -34.706553665915962 -12.026704741203327 #
End-of-ACIS-data 