500 0 5 0           
7 Unknown 11 ACIS 5.0 NT 24 Thu Mar 25 15:27:57 1999 
-1 9.9999999999999995e-007 1e-010 
body $-1 $5 $-1 $6 #
body $-1 $7 $-1 $8 #
body $-1 $9 $-1 $10 #
body $-1 $11 $-1 $12 #
body $-1 $13 $-1 $14 #
lump $-1 $-1 $15 $0 #
transform $-1 1 0 0 0 1 0 0 0 1 58.670003357036038 32.320874587182018 9.2108623583210445 1 rotate no_reflect no_shear #
lump $-1 $-1 $16 $1 #
transform $-1 1 0 0 0 1 0 0 0 1 58.670003357036038 32.320874587182018 9.2108623583210445 1 rotate no_reflect no_shear #
lump $-1 $-1 $17 $2 #
transform $-1 1 0 0 0 1 0 0 0 1 58.670003357036038 32.320874587182018 9.2108623583210445 1 rotate no_reflect no_shear #
lump $-1 $-1 $18 $3 #
transform $-1 1 0 0 0 1 0 0 0 1 58.670003357036038 32.320874587182018 9.2108623583210445 1 rotate no_reflect no_shear #
lump $-1 $-1 $19 $4 #
transform $-1 1 0 0 0 1 0 0 0 1 58.670003357036038 32.320874587182018 9.2108623583210445 1 rotate no_reflect no_shear #
shell $-1 $-1 $-1 $20 $-1 $5 #
shell $-1 $-1 $-1 $21 $-1 $7 #
shell $-1 $-1 $-1 $22 $-1 $9 #
shell $-1 $-1 $-1 $23 $-1 $11 #
shell $-1 $-1 $-1 $24 $-1 $13 #
face $-1 $25 $26 $15 $-1 $27 forward single #
face $-1 $28 $29 $16 $-1 $30 forward single #
face $-1 $31 $32 $17 $-1 $33 reversed single #
face $-1 $34 $35 $18 $-1 $36 forward single #
face $-1 $37 $38 $19 $-1 $39 forward single #
face $-1 $40 $41 $15 $-1 $42 reversed single #
loop $-1 $-1 $43 $20 #
plane-surface $-1 0 0 9.2108623583210445 0 0 1 1 0 0 forward_v I I I I #
face $-1 $44 $45 $16 $-1 $46 forward single #
loop $-1 $-1 $47 $21 #
plane-surface $-1 0 -32.320874587182018 0 0 1 0 0 0 1 forward_v I I I I #
face $-1 $48 $49 $17 $-1 $50 reversed single #
loop $-1 $-1 $51 $22 #
plane-surface $-1 -144.48705258515994 -22.964626431228801 84.890206369976198 0 1 0 -0.73135370988377701 0 0.68199835119979291 forward_v I I I I #
face $-1 $52 $53 $18 $-1 $54 forward single #
loop $-1 $55 $56 $23 #
cone-surface $-1 -56.133310884642846 -20.201551223051066 6.5619425616314961 0.73135370988377701 0 -0.68199835119979291 0.68199835119979291 0 0.73135370988377701 1 I I 0 1 1 forward I I I I #
face $-1 $57 $58 $19 $-1 $59 forward single #
loop $-1 $60 $61 $24 #
cone-surface $-1 -56.133310884642846 -16.056938410784468 6.5619425616314961 0.73135370988377701 0 -0.68199835119979291 0.68199835119979291 0 0.73135370988377701 1 I I 0 1 1 forward I I I I #
face $-1 $62 $63 $15 $-1 $64 reversed single #
loop $-1 $-1 $65 $25 #
plane-surface $-1 0 0 -9.2108623583210445 0 0 1 1 0 0 forward_v I I I I #
coedge $-1 $66 $67 $68 $69 forward $26 $-1 #
face $-1 $70 $71 $16 $-1 $72 reversed single #
loop $-1 $-1 $73 $28 #
plane-surface $-1 0 0 9.2108623583210445 0 0 1 1 0 0 forward_v I I I I #
coedge $-1 $74 $75 $76 $77 forward $29 $-1 #
face $-1 $78 $79 $17 $-1 $80 reversed single #
loop $-1 $-1 $81 $31 #
plane-surface $-1 -58.670003357036023 -18.129244816917769 4.8645152612064066 -0.73135370988377701 0 0.68199835119979291 0.68199835119979291 0 0.73135370988377701 forward_v I I I I #
coedge $-1 $82 $83 $84 $85 reversed $32 $-1 #
face $-1 $-1 $86 $18 $-1 $87 forward single #
loop $-1 $88 $89 $34 #
cone-surface $-1 -55.257458626897268 -20.201551223051066 5.7451971378993552 0.73135370988377701 0 -0.68199835119979291 0.34099917559989645 0 0.36567685494188851 1 I I -0.70710678118654746 0.70710678118654746 0.5 forward I I I I #
loop $-1 $-1 $90 $23 #
coedge $-1 $56 $56 $91 $92 reversed $35 $-1 #
face $-1 $-1 $93 $19 $-1 $94 forward single #
loop $-1 $95 $96 $37 #
cone-surface $-1 -55.257458626897268 -16.056938410784468 5.7451971378993552 0.73135370988377701 0 -0.68199835119979291 0.34099917559989645 0 0.36567685494188851 1 I I -0.70710678118654746 0.70710678118654746 0.5 forward I I I I #
loop $-1 $-1 $97 $24 #
coedge $-1 $61 $61 $98 $99 reversed $38 $-1 #
face $-1 $100 $101 $15 $-1 $102 reversed single #
loop $-1 $-1 $103 $40 #
plane-surface $-1 0 -32.320874587182018 0 0 1 0 0 0 1 forward_v I I I I #
coedge $-1 $104 $105 $106 $107 forward $41 $-1 #
coedge $-1 $108 $43 $109 $110 forward $26 $-1 #
coedge $-1 $43 $108 $111 $112 forward $26 $-1 #
coedge $-1 $113 $114 $43 $69 reversed $115 $-1 #
edge $-1 $116 -32.320874587182018 $117 32.320874587182018 $68 $118 forward 7 unknown #
face $-1 $119 $120 $16 $-1 $121 reversed single #
loop $-1 $-1 $122 $44 #
plane-surface $-1 -58.670003357036038 0 0 1 0 0 0 0 -1 forward_v I I I I #
coedge $-1 $123 $124 $125 $126 forward $45 $-1 #
coedge $-1 $125 $47 $122 $127 reversed $29 $-1 #
coedge $-1 $47 $125 $128 $129 reversed $29 $-1 #
coedge $-1 $130 $131 $47 $77 reversed $120 $-1 #
edge $-1 $132 -58.670003357036038 $133 58.670003357036038 $76 $134 forward 7 unknown #
face $-1 $135 $136 $17 $-1 $137 forward single #
loop $-1 $-1 $138 $48 #
plane-surface $-1 -144.48705258515994 -13.293863202606738 84.890206369976198 0 -1 0 0.73135370988377701 0 -0.68199835119979291 forward_v I I I I #
coedge $-1 $139 $140 $141 $142 reversed $49 $-1 #
coedge $-1 $83 $51 $143 $144 reversed $32 $-1 #
coedge $-1 $51 $82 $139 $145 reversed $32 $-1 #
coedge $-1 $141 $146 $51 $85 forward $136 $-1 #
edge $-1 $147 13.573522935543934 $148 17.626557074722982 $84 $149 forward 7 unknown #
loop $-1 $-1 $91 $52 #
plane-surface $-1 -58.670003357036023 -18.129244816917769 4.8645152612064066 -0.73135370988377701 0 0.68199835119979291 0.68199835119979291 0 0.73135370988377701 forward_v I I I I #
loop $-1 $-1 $150 $34 #
coedge $-1 $89 $89 $90 $151 reversed $53 $-1 #
coedge $-1 $90 $90 $89 $151 forward $55 $-1 #
coedge $-1 $91 $91 $56 $92 forward $86 $-1 #
edge $-1 $152 0 $152 6.2831853071796004 $91 $153 forward 7 unknown #
loop $-1 $-1 $98 $57 #
plane-surface $-1 -58.670003357036023 -18.129244816917769 4.8645152612064066 -0.73135370988377701 0 0.68199835119979291 0.68199835119979291 0 0.73135370988377701 forward_v I I I I #
loop $-1 $-1 $154 $37 #
coedge $-1 $96 $96 $97 $155 reversed $58 $-1 #
coedge $-1 $97 $97 $96 $155 forward $60 $-1 #
coedge $-1 $98 $98 $61 $99 forward $93 $-1 #
edge $-1 $156 0 $156 6.2831853071796004 $98 $157 forward 7 unknown #
face $-1 $158 $159 $15 $-1 $160 reversed single #
loop $-1 $-1 $161 $62 #
plane-surface $-1 -58.670003357036038 0 0 1 0 0 0 0 -1 forward_v I I I I #
coedge $-1 $162 $111 $163 $164 forward $63 $-1 #
coedge $-1 $165 $65 $162 $166 forward $41 $-1 #
coedge $-1 $65 $165 $167 $168 forward $41 $-1 #
coedge $-1 $114 $113 $65 $107 reversed $115 $-1 #
edge $-1 $169 -32.320874587182018 $170 32.320874587182018 $106 $171 forward 7 unknown #
coedge $-1 $67 $66 $172 $173 forward $26 $-1 #
coedge $-1 $174 $175 $66 $110 reversed $159 $-1 #
edge $-1 $117 -58.670003357036038 $176 58.670003357036038 $109 $177 forward 7 unknown #
coedge $-1 $103 $178 $67 $112 reversed $63 $-1 #
edge $-1 $179 -58.670003357036038 $116 58.670003357036038 $111 $180 forward 7 unknown #
coedge $-1 $106 $68 $178 $181 forward $115 $-1 #
coedge $-1 $68 $106 $174 $182 reversed $115 $-1 #
loop $-1 $-1 $113 $158 #
vertex $-1 $69 $183 #
vertex $-1 $69 $184 #
straight-curve $-1 58.670003357036038 0 9.2108623583210445 0 1 0 I I #
face $-1 $185 $186 $16 $-1 $187 reversed single #
loop $-1 $-1 $130 $70 #
plane-surface $-1 0 -35.571496334393984 6.1150883432391137 0 0 1 1 0 0 forward_v I I I I #
coedge $-1 $188 $189 $74 $127 forward $71 $-1 #
coedge $-1 $190 $73 $189 $191 forward $45 $-1 #
coedge $-1 $73 $190 $192 $193 forward $45 $-1 #
coedge $-1 $75 $74 $73 $126 reversed $29 $-1 #
edge $-1 $194 -58.670003357036038 $195 58.670003357036038 $73 $196 forward 7 unknown #
edge $-1 $195 -9.2108623583210445 $133 -6.1150883432391137 $122 $197 forward 7 unknown #
coedge $-1 $192 $198 $75 $129 forward $199 $-1 #
edge $-1 $132 6.1150883432391137 $194 9.2108623583210445 $128 $200 forward 7 unknown #
coedge $-1 $201 $76 $198 $202 forward $120 $-1 #
coedge $-1 $76 $201 $188 $203 forward $120 $-1 #
vertex $-1 $129 $204 #
vertex $-1 $127 $205 #
straight-curve $-1 0 -32.320874587182018 6.1150883432391137 -1 0 0 I I #
face $-1 $-1 $206 $17 $-1 $207 reversed single #
loop $-1 $-1 $84 $78 #
plane-surface $-1 0 0 9.2108623583210445 0 0 1 1 0 0 forward_v I I I I #
coedge $-1 $208 $209 $210 $211 reversed $79 $-1 #
coedge $-1 $212 $81 $83 $145 forward $49 $-1 #
coedge $-1 $81 $212 $208 $213 forward $49 $-1 #
coedge $-1 $210 $84 $81 $142 forward $136 $-1 #
edge $-1 $148 -13.900004022769917 $214 -4.229240794147854 $141 $215 forward 7 unknown #
coedge $-1 $216 $217 $82 $144 forward $206 $-1 #
edge $-1 $218 -37.580587923781707 $147 -33.234240826667055 $143 $219 forward 7 unknown #
edge $-1 $148 -5.9428796741939482 $218 2.0734513383776317e-014 $83 $220 forward 7 unknown #
coedge $-1 $84 $210 $216 $221 forward $136 $-1 #
vertex $-1 $144 $222 #
vertex $-1 $85 $223 #
straight-curve $-1 -72.243526292579972 -22.964626431228801 9.2108623583210445 1 0 0 I I #
coedge $-1 $150 $150 $-1 $224 reversed $88 $-1 #
edge $-1 $225 0 $225 6.2831853071796004 $89 $226 forward 7 unknown #
vertex $-1 $92 $227 #
ellipse-curve $-1 -56.643486287446514 -20.201551223051066 7.0376888097637194 -0.73135370988377701 0 0.68199835119979291 0.68199835119979291 0 0.73135370988377701 1 I I #
coedge $-1 $154 $154 $-1 $228 reversed $95 $-1 #
edge $-1 $229 0 $229 6.2831853071796004 $96 $230 forward 7 unknown #
vertex $-1 $99 $231 #
ellipse-curve $-1 -56.643486287446514 -16.056938410784468 7.0376888097637194 -0.73135370988377701 0 0.68199835119979291 0.68199835119979291 0 0.73135370988377701 1 I I #
face $-1 $-1 $115 $15 $-1 $232 reversed single #
loop $-1 $-1 $174 $100 #
plane-surface $-1 0 32.320874587182018 0 0 -1 0 0 0 -1 forward_v I I I I #
coedge $-1 $233 $172 $175 $234 forward $101 $-1 #
coedge $-1 $178 $103 $104 $166 reversed $63 $-1 #
coedge $-1 $172 $233 $103 $164 reversed $101 $-1 #
edge $-1 $179 -9.2108623583210445 $235 9.2108623583210445 $163 $236 forward 7 unknown #
coedge $-1 $105 $104 $233 $237 forward $41 $-1 #
edge $-1 $170 -58.670003357036038 $235 58.670003357036038 $162 $238 forward 7 unknown #
coedge $-1 $175 $174 $105 $168 reversed $159 $-1 #
edge $-1 $239 -58.670003357036038 $169 58.670003357036038 $167 $240 forward 7 unknown #
vertex $-1 $107 $241 #
vertex $-1 $181 $242 #
straight-curve $-1 58.670003357036038 0 -9.2108623583210445 0 -1 0 I I #
coedge $-1 $161 $163 $108 $173 reversed $101 $-1 #
edge $-1 $176 -32.320874587182018 $179 32.320874587182018 $172 $243 forward 7 unknown #
coedge $-1 $167 $109 $114 $182 forward $159 $-1 #
coedge $-1 $109 $167 $161 $234 reversed $159 $-1 #
vertex $-1 $110 $244 #
straight-curve $-1 0 32.320874587182018 9.2108623583210445 -1 0 0 I I #
coedge $-1 $111 $162 $113 $181 reversed $63 $-1 #
vertex $-1 $173 $245 #
straight-curve $-1 0 -32.320874587182018 9.2108623583210445 1 0 0 I I #
edge $-1 $116 -9.2108623583210445 $170 9.2108623583210445 $113 $246 forward 7 unknown #
edge $-1 $117 -9.2108623583210445 $169 9.2108623583210445 $114 $247 forward 7 unknown #
point $-1 58.670003357036038 -32.320874587182018 9.2108623583210445 #
point $-1 58.670003357036038 32.320874587182018 9.2108623583210445 #
face $-1 $-1 $199 $16 $-1 $248 reversed single #
loop $-1 $-1 $249 $119 #
plane-surface $-1 0 -38.82211808160595 7.66297535078008 0 1 0 0 0 1 forward_v I I I I #
coedge $-1 $250 $122 $131 $203 reversed $71 $-1 #
coedge $-1 $122 $250 $123 $191 reversed $71 $-1 #
coedge $-1 $124 $123 $251 $252 forward $45 $-1 #
edge $-1 $195 32.320874587182018 $253 38.82211808160595 $189 $254 forward 7 unknown #
coedge $-1 $255 $128 $124 $193 reversed $199 $-1 #
edge $-1 $256 -38.82211808160595 $194 -32.320874587182018 $192 $257 forward 7 unknown #
vertex $-1 $129 $258 #
vertex $-1 $191 $259 #
straight-curve $-1 0 -32.320874587182018 9.2108623583210445 -1 0 0 I I #
straight-curve $-1 -58.670003357036038 -32.320874587182018 0 0 0 -1 I I #
coedge $-1 $128 $255 $130 $202 reversed $199 $-1 #
loop $-1 $-1 $128 $185 #
straight-curve $-1 58.670003357036038 -32.320874587182018 0 0 0 1 I I #
coedge $-1 $131 $130 $260 $261 forward $120 $-1 #
edge $-1 $132 -3.2506217472119658 $262 3.2506217472119658 $198 $263 forward 7 unknown #
edge $-1 $264 -3.2506217472119658 $133 3.2506217472119658 $188 $265 forward 7 unknown #
point $-1 58.670003357036038 -32.320874587182018 6.1150883432391137 #
point $-1 -58.670003357036038 -32.320874587182018 6.1150883432391137 #
loop $-1 $-1 $143 $135 #
plane-surface $-1 -58.670003357036038 0 0 1 0 0 0 0 -1 forward_v I I I I #
coedge $-1 $209 $138 $140 $213 reversed $79 $-1 #
coedge $-1 $138 $208 $266 $267 reversed $79 $-1 #
coedge $-1 $146 $141 $138 $211 forward $136 $-1 #
edge $-1 $214 -17.626557074722982 $268 -13.573522935543934 $210 $269 forward 7 unknown #
coedge $-1 $140 $139 $217 $270 reversed $49 $-1 #
edge $-1 $271 -2.0734513383776317e-014 $214 5.9428796741939482 $208 $272 forward 7 unknown #
vertex $-1 $142 $273 #
straight-curve $-1 -54.616969217856983 -9.0646224084588845 9.2108623583210427 0 1 0 I I #
coedge $-1 $266 $143 $146 $221 reversed $206 $-1 #
coedge $-1 $143 $266 $212 $270 forward $206 $-1 #
vertex $-1 $144 $274 #
straight-curve $-1 -58.670003357036038 -22.964626431228801 42.445103184988099 0 0 1 I I #
straight-curve $-1 -58.670003357036023 -22.964626431228801 4.8645152612064066 -0.68199835119979291 0 -0.73135370988377701 I I #
edge $-1 $268 13.293863202606738 $147 22.964626431228801 $216 $275 forward 7 unknown #
point $-1 -58.670003357036038 -22.964626431228801 9.2108623583210445 #
point $-1 -54.61696921785699 -22.964626431228801 9.2108623583210445 #
edge $-1 $276 1 $276 0 $150 $-1 forward 7 unknown #
vertex $-1 $151 $277 #
ellipse-curve $-1 -55.623135481839157 -20.201551223051066 6.0861963134992516 -0.73135370988377701 0 0.68199835119979291 0.68199835119979291 0 0.73135370988377701 1 I I #
point $-1 -55.961487936246741 -20.201551223051066 7.7690425196475177 #
edge $-1 $278 1 $278 0 $154 $-1 forward 7 unknown #
vertex $-1 $155 $279 #
ellipse-curve $-1 -55.623135481839157 -16.056938410784468 6.0861963134992516 -0.73135370988377701 0 0.68199835119979291 0.68199835119979291 0 0.73135370988377701 1 I I #
point $-1 -55.961487936246741 -16.056938410784468 7.7690425196475177 #
plane-surface $-1 58.670003357036038 0 0 -1 0 0 0 0 1 forward_v I I I I #
coedge $-1 $163 $161 $165 $237 reversed $101 $-1 #
edge $-1 $176 -9.2108623583210445 $239 9.2108623583210445 $175 $280 forward 7 unknown #
vertex $-1 $237 $281 #
straight-curve $-1 -58.670003357036038 -32.320874587182018 0 0 0 -1 I I #
edge $-1 $235 -32.320874587182018 $239 32.320874587182018 $233 $282 forward 7 unknown #
straight-curve $-1 0 -32.320874587182018 -9.2108623583210445 -1 0 0 I I #
vertex $-1 $168 $283 #
straight-curve $-1 0 32.320874587182018 -9.2108623583210445 1 0 0 I I #
point $-1 58.670003357036038 32.320874587182018 -9.2108623583210445 #
point $-1 58.670003357036038 -32.320874587182018 -9.2108623583210445 #
straight-curve $-1 -58.670003357036038 0 9.2108623583210445 0 -1 0 I I #
point $-1 -58.670003357036038 32.320874587182018 9.2108623583210445 #
point $-1 -58.670003357036038 -32.320874587182018 9.2108623583210445 #
straight-curve $-1 58.670003357036038 -32.320874587182018 0 0 0 -1 I I #
straight-curve $-1 58.670003357036038 32.320874587182018 0 0 0 -1 I I #
plane-surface $-1 58.670003357036038 0 0 -1 0 0 0 0 1 forward_v I I I I #
coedge $-1 $260 $251 $250 $284 forward $186 $-1 #
coedge $-1 $189 $188 $249 $284 reversed $71 $-1 #
coedge $-1 $249 $285 $190 $252 reversed $186 $-1 #
edge $-1 $253 -58.670003357036038 $256 58.670003357036038 $251 $286 forward 7 unknown #
vertex $-1 $191 $287 #
straight-curve $-1 -58.670003357036038 0 9.2108623583210445 0 -1 0 I I #
coedge $-1 $198 $192 $285 $288 forward $199 $-1 #
vertex $-1 $193 $289 #
straight-curve $-1 58.670003357036038 0 9.2108623583210445 0 1 0 I I #
point $-1 58.670003357036038 -32.320874587182018 9.2108623583210445 #
point $-1 -58.670003357036038 -32.320874587182018 9.2108623583210445 #
coedge $-1 $285 $249 $201 $261 reversed $186 $-1 #
edge $-1 $262 -58.670003357036038 $264 58.670003357036038 $260 $290 forward 7 unknown #
vertex $-1 $288 $291 #
straight-curve $-1 58.670003357036038 -35.571496334393984 6.1150883432391137 0 -1 0 I I #
vertex $-1 $203 $292 #
straight-curve $-1 -58.670003357036038 -35.571496334393984 6.1150883432391137 0 1 0 I I #
coedge $-1 $217 $216 $209 $267 forward $206 $-1 #
edge $-1 $268 33.234240826667055 $271 37.580587923781707 $266 $293 forward 7 unknown #
vertex $-1 $221 $294 #
straight-curve $-1 -72.243526292579972 -13.293863202606738 9.2108623583210445 -1 0 0 I I #
edge $-1 $271 4.229240794147854 $218 13.900004022769917 $217 $295 forward 7 unknown #
vertex $-1 $270 $296 #
straight-curve $-1 -58.670003357036023 -13.293863202606738 4.8645152612064066 0.68199835119979291 0 0.73135370988377701 I I #
point $-1 -54.61696921785699 -13.293863202606738 9.2108623583210445 #
point $-1 -58.670003357036038 -22.964626431228801 4.8645152612063915 #
straight-curve $-1 -58.670003357036038 0 9.2108623583210445 0 -1 0 I I #
vertex $-1 $224 $297 #
point $-1 -54.941137130639362 -20.201551223051066 6.8175500233830286 #
vertex $-1 $228 $298 #
point $-1 -54.941137130639362 -16.056938410784468 6.8175500233830286 #
straight-curve $-1 -58.670003357036038 32.320874587182018 0 0 0 -1 I I #
point $-1 -58.670003357036038 -32.320874587182018 -9.2108623583210445 #
straight-curve $-1 -58.670003357036038 0 -9.2108623583210445 0 1 0 I I #
point $-1 -58.670003357036038 32.320874587182018 -9.2108623583210445 #
edge $-1 $253 -1.5478870075409663 $264 1.5478870075409663 $250 $299 forward 7 unknown #
coedge $-1 $251 $260 $255 $288 reversed $186 $-1 #
straight-curve $-1 0 -38.82211808160595 9.2108623583210463 1 0 0 I I #
point $-1 -58.670003357036038 -38.82211808160595 9.2108623583210463 #
edge $-1 $256 -1.5478870075409663 $262 1.5478870075409663 $255 $300 forward 7 unknown #
point $-1 58.670003357036038 -38.82211808160595 9.2108623583210463 #
straight-curve $-1 0 -38.82211808160595 6.1150883432391137 -1 0 0 I I #
point $-1 58.670003357036038 -38.82211808160595 6.1150883432391137 #
point $-1 -58.670003357036038 -38.82211808160595 6.1150883432391137 #
straight-curve $-1 -58.670003357036038 -13.293863202606738 42.445103184988099 0 0 -1 I I #
point $-1 -58.670003357036038 -13.293863202606738 9.2108623583210445 #
straight-curve $-1 -58.670003357036038 -9.0646224084588845 4.8645152612063907 0 -1 0 I I #
point $-1 -58.670003357036038 -13.293863202606738 4.8645152612063915 #
point $-1 -54.89178177195538 -20.201551223051066 5.4041979622994587 #
point $-1 -54.89178177195538 -16.056938410784468 5.4041979622994587 #
straight-curve $-1 -58.670003357036038 -38.82211808160595 7.66297535078008 0 0 -1 I I #
straight-curve $-1 58.670003357036038 -38.82211808160595 7.66297535078008 0 0 -1 I I #
End-of-ACIS-data 