500 0 9 0           
7 Unknown 11 ACIS 5.0 NT 24 Thu Mar 25 17:32:08 1999 
-1 9.9999999999999995e-007 1e-010 
body $-1 $9 $-1 $10 #
body $-1 $11 $-1 $12 #
body $-1 $13 $-1 $14 #
body $-1 $15 $-1 $16 #
body $-1 $17 $-1 $18 #
body $-1 $19 $-1 $20 #
body $-1 $21 $-1 $22 #
body $-1 $23 $-1 $24 #
body $-1 $25 $-1 $26 #
lump $-1 $-1 $27 $0 #
transform $-1 1 0 0 0 1 0 0 0 1 53.03018280587176 34.638175406330497 14.095127396935606 1 rotate no_reflect no_shear #
lump $-1 $-1 $28 $1 #
transform $-1 1 0 0 0 1 0 0 0 1 53.03018280587176 34.638175406330497 14.095127396935606 1 rotate no_reflect no_shear #
lump $-1 $-1 $29 $2 #
transform $-1 1 0 0 0 1 0 0 0 1 53.03018280587176 34.638175406330497 14.095127396935606 1 rotate no_reflect no_shear #
lump $-1 $-1 $30 $3 #
transform $-1 1 0 0 0 1 0 0 0 1 53.03018280587176 34.638175406330497 14.095127396935606 1 rotate no_reflect no_shear #
lump $-1 $-1 $31 $4 #
transform $-1 1 0 0 0 1 0 0 0 1 53.03018280587176 34.638175406330497 14.095127396935606 1 rotate no_reflect no_shear #
lump $-1 $-1 $32 $5 #
transform $-1 1 0 0 0 1 0 0 0 1 53.03018280587176 34.638175406330497 14.095127396935606 1 rotate no_reflect no_shear #
lump $-1 $-1 $33 $6 #
transform $-1 1 0 0 0 1 0 0 0 1 53.03018280587176 34.638175406330497 14.095127396935606 1 rotate no_reflect no_shear #
lump $-1 $-1 $34 $7 #
transform $-1 1 0 0 0 1 0 0 0 1 53.03018280587176 34.638175406330497 14.095127396935606 1 rotate no_reflect no_shear #
lump $-1 $-1 $35 $8 #
transform $-1 1 0 0 0 1 0 0 0 1 53.03018280587176 34.638175406330497 14.095127396935606 1 rotate no_reflect no_shear #
shell $-1 $-1 $-1 $36 $-1 $9 #
shell $-1 $-1 $-1 $37 $-1 $11 #
shell $-1 $-1 $-1 $38 $-1 $13 #
shell $-1 $-1 $-1 $39 $-1 $15 #
shell $-1 $-1 $-1 $40 $-1 $17 #
shell $-1 $-1 $-1 $41 $-1 $19 #
shell $-1 $-1 $-1 $42 $-1 $21 #
shell $-1 $-1 $-1 $43 $-1 $23 #
shell $-1 $-1 $-1 $44 $-1 $25 #
face $-1 $45 $46 $27 $-1 $47 forward single #
face $-1 $48 $49 $28 $-1 $50 reversed single #
face $-1 $51 $52 $29 $-1 $53 reversed single #
face $-1 $54 $55 $30 $-1 $56 reversed single #
face $-1 $57 $58 $31 $-1 $59 forward single #
face $-1 $60 $61 $32 $-1 $62 forward single #
face $-1 $63 $64 $33 $-1 $65 forward single #
face $-1 $66 $67 $34 $-1 $68 reversed single #
face $-1 $69 $70 $35 $-1 $71 forward single #
face $-1 $72 $73 $27 $-1 $74 reversed single #
loop $-1 $-1 $75 $36 #
plane-surface $-1 0 0 14.095127396935606 0 0 1 1 0 0 forward_v I I I I #
face $-1 $76 $77 $28 $-1 $78 reversed single #
loop $-1 $-1 $79 $37 #
plane-surface $-1 -44.642289367046594 -23.046118329933879 0 0 1 0 0 0 1 forward_v I I I I #
face $-1 $80 $81 $29 $-1 $82 reversed single #
loop $-1 $-1 $83 $38 #
plane-surface $-1 44.642289367046601 -23.046118329933879 0 0 1 0 0 0 1 forward_v I I I I #
face $-1 $84 $85 $30 $-1 $86 reversed single #
loop $-1 $-1 $87 $39 #
plane-surface $-1 36.254395928221435 -119.34175046470165 74.522598626126197 -1 0 0 0 -0.79863551827123203 0.60181501223851219 forward_v I I I I #
face $-1 $88 $89 $31 $-1 $90 forward single #
loop $-1 $91 $92 $40 #
cone-surface $-1 20.443774975456094 -32.623432834992826 11.84197438007835 0 0.79863551827123203 -0.60181501223851219 0.5 0 0 1 I I 0 1 0.5 forward I I I I #
face $-1 $93 $94 $32 $-1 $95 forward single #
loop $-1 $96 $97 $41 #
cone-surface $-1 26.37275783274309 -32.623432834992826 11.84197438007835 0 0.79863551827123203 -0.60181501223851219 0.5 0 0 1 I I 0 1 0.5 forward I I I I #
face $-1 $98 $99 $33 $-1 $100 forward single #
loop $-1 $101 $102 $42 #
cone-surface $-1 32.301740690030087 -32.623432834992826 11.84197438007835 0 0.79863551827123203 -0.60181501223851219 0.5 0 0 1 I I 0 1 0.5 forward I I I I #
face $-1 $103 $104 $34 $-1 $105 reversed single #
loop $-1 $-1 $106 $43 #
plane-surface $-1 -25.021620268989764 34.302755183074844 133.94884443132062 1 0 0 0 -0.54463904215088732 -0.83867056331134215 forward_v I I I I #
face $-1 $107 $108 $35 $-1 $109 forward single #
loop $-1 $110 $111 $44 #
cone-surface $-1 -14.907853133143355 28.342711746589586 9.0812225626931493 0 -0.54463904215088732 -0.83867056331134215 2 0 0 1 I I 0 1 2 forward I I I I #
face $-1 $112 $113 $27 $-1 $114 reversed single #
loop $-1 $-1 $115 $45 #
plane-surface $-1 0 0 -14.095127396935606 0 0 1 1 0 0 forward_v I I I I #
coedge $-1 $116 $117 $118 $119 forward $46 $-1 #
face $-1 $120 $121 $28 $-1 $122 reversed single #
loop $-1 $-1 $123 $48 #
plane-surface $-1 -44.642289367046594 -17.477323498083269 0 0 -1 0 0 0 -1 forward_v I I I I #
coedge $-1 $124 $125 $126 $127 reversed $49 $-1 #
face $-1 $128 $129 $29 $-1 $130 reversed single #
loop $-1 $-1 $131 $51 #
plane-surface $-1 36.254395928221435 -20.261720914008574 0 1 0 0 0 0 -1 forward_v I I I I #
coedge $-1 $132 $133 $134 $135 forward $52 $-1 #
face $-1 $136 $137 $30 $-1 $138 reversed single #
loop $-1 $-1 $139 $54 #
plane-surface $-1 26.372757832743105 -34.638175406330504 10.693878397473689 0 -0.79863551827123203 0.60181501223851219 1 0 0 forward_v I I I I #
coedge $-1 $140 $141 $142 $143 reversed $55 $-1 #
face $-1 $-1 $144 $31 $-1 $145 forward single #
loop $-1 $146 $147 $57 #
cone-surface $-1 20.443774975456094 -31.690543827127872 11.138992109892428 0 0.79863551827123203 -0.60181501223851219 0.25 0 0 1 I I -0.70710678118654746 0.70710678118654746 0.25 forward I I I I #
loop $-1 $-1 $148 $40 #
coedge $-1 $92 $92 $149 $150 reversed $58 $-1 #
face $-1 $-1 $151 $32 $-1 $152 forward single #
loop $-1 $153 $154 $60 #
cone-surface $-1 26.37275783274309 -31.690543827127872 11.138992109892428 0 0.79863551827123203 -0.60181501223851219 0.25 0 0 1 I I -0.70710678118654746 0.70710678118654746 0.25 forward I I I I #
loop $-1 $-1 $155 $41 #
coedge $-1 $97 $97 $156 $157 reversed $61 $-1 #
face $-1 $-1 $158 $33 $-1 $159 forward single #
loop $-1 $160 $161 $63 #
cone-surface $-1 32.301740690030087 -31.690543827127872 11.138992109892428 0 0.79863551827123203 -0.60181501223851219 0.25 0 0 1 I I -0.70710678118654746 0.70710678118654746 0.25 forward I I I I #
loop $-1 $-1 $162 $42 #
coedge $-1 $102 $102 $163 $164 reversed $64 $-1 #
face $-1 $165 $166 $34 $-1 $167 reversed single #
loop $-1 $-1 $168 $66 #
plane-surface $-1 -14.907853133143355 -23.461860753878057 44.999137858712785 0 0.54463904215088732 0.83867056331134215 1 0 0 forward_v I I I I #
coedge $-1 $169 $170 $171 $172 reversed $67 $-1 #
face $-1 $-1 $173 $35 $-1 $174 forward single #
loop $-1 $175 $176 $69 #
cone-surface $-1 -14.907853133143355 26.758626092300027 6.6419446094090269 0 -0.54463904215088732 -0.83867056331134215 1 0 0 1 I I -0.70710678118654724 0.70710678118654791 1 forward I I I I #
loop $-1 $-1 $177 $44 #
coedge $-1 $111 $111 $178 $179 reversed $70 $-1 #
face $-1 $180 $181 $27 $-1 $182 reversed single #
loop $-1 $-1 $183 $72 #
plane-surface $-1 0 -34.638175406330497 0 0 1 0 0 0 1 forward_v I I I I #
coedge $-1 $184 $185 $186 $187 forward $73 $-1 #
coedge $-1 $188 $75 $189 $190 forward $46 $-1 #
coedge $-1 $75 $188 $191 $192 forward $46 $-1 #
coedge $-1 $193 $194 $75 $119 reversed $195 $-1 #
edge $-1 $196 -34.638175406330497 $197 34.638175406330497 $118 $198 forward 7 unknown #
face $-1 $199 $200 $28 $-1 $201 reversed single #
loop $-1 $-1 $202 $76 #
plane-surface $-1 -36.254395928221427 -20.261720914008574 0 -1 0 0 0 0 1 forward_v I I I I #
coedge $-1 $203 $204 $205 $206 forward $77 $-1 #
coedge $-1 $207 $79 $208 $209 reversed $49 $-1 #
coedge $-1 $79 $207 $210 $211 reversed $49 $-1 #
coedge $-1 $212 $213 $79 $127 forward $214 $-1 #
edge $-1 $215 -14.095127396935606 $216 14.095127396935606 $126 $217 forward 7 unknown #
face $-1 $218 $219 $29 $-1 $220 reversed single #
loop $-1 $-1 $221 $80 #
plane-surface $-1 44.642289367046601 -17.477323498083269 0 0 -1 0 0 0 -1 forward_v I I I I #
coedge $-1 $222 $223 $224 $225 forward $81 $-1 #
coedge $-1 $226 $83 $227 $228 reversed $52 $-1 #
coedge $-1 $83 $226 $229 $230 reversed $52 $-1 #
coedge $-1 $223 $222 $83 $135 reversed $81 $-1 #
edge $-1 $231 -14.095127396935606 $232 14.095127396935606 $134 $233 forward 7 unknown #
face $-1 $234 $235 $30 $-1 $236 forward single #
loop $-1 $-1 $237 $84 #
plane-surface $-1 16.491119737264775 -119.34175046470165 74.522598626126197 1 0 0 0 0.79863551827123203 -0.60181501223851219 forward_v I I I I #
coedge $-1 $238 $239 $240 $241 reversed $85 $-1 #
coedge $-1 $141 $87 $242 $243 reversed $55 $-1 #
coedge $-1 $87 $140 $238 $244 reversed $55 $-1 #
coedge $-1 $240 $245 $87 $143 forward $235 $-1 #
edge $-1 $246 25.032699826020327 $247 27.595724712101365 $142 $248 forward 7 unknown #
loop $-1 $-1 $149 $88 #
plane-surface $-1 26.372757832743105 -34.638175406330504 10.693878397473689 0 -0.79863551827123203 0.60181501223851219 1 0 0 forward_v I I I I #
loop $-1 $-1 $249 $57 #
coedge $-1 $147 $147 $148 $250 reversed $89 $-1 #
coedge $-1 $148 $148 $147 $250 forward $91 $-1 #
coedge $-1 $149 $149 $92 $150 forward $144 $-1 #
edge $-1 $251 4.0335713934611979e-017 $251 6.2831853071796004 $149 $252 forward 7 unknown #
loop $-1 $-1 $156 $93 #
plane-surface $-1 26.372757832743105 -34.638175406330504 10.693878397473689 0 -0.79863551827123203 0.60181501223851219 1 0 0 forward_v I I I I #
loop $-1 $-1 $253 $60 #
coedge $-1 $154 $154 $155 $254 reversed $94 $-1 #
coedge $-1 $155 $155 $154 $254 forward $96 $-1 #
coedge $-1 $156 $156 $97 $157 forward $151 $-1 #
edge $-1 $255 4.0335713934611979e-017 $255 6.2831853071796004 $156 $256 forward 7 unknown #
loop $-1 $-1 $163 $98 #
plane-surface $-1 26.372757832743105 -34.638175406330504 10.693878397473689 0 -0.79863551827123203 0.60181501223851219 1 0 0 forward_v I I I I #
loop $-1 $-1 $257 $63 #
coedge $-1 $161 $161 $162 $258 reversed $99 $-1 #
coedge $-1 $162 $162 $161 $258 forward $101 $-1 #
coedge $-1 $163 $163 $102 $164 forward $158 $-1 #
edge $-1 $259 4.0335713934611979e-017 $259 6.2831853071796004 $163 $260 forward 7 unknown #
face $-1 $261 $262 $34 $-1 $263 reversed single #
loop $-1 $-1 $264 $103 #
plane-surface $-1 -4.7940859972969463 34.302755183074844 133.94884443132062 -1 0 0 0 0.54463904215088732 0.83867056331134215 forward_v I I I I #
coedge $-1 $265 $266 $267 $268 reversed $104 $-1 #
coedge $-1 $170 $106 $269 $270 reversed $67 $-1 #
coedge $-1 $106 $169 $265 $271 reversed $67 $-1 #
coedge $-1 $267 $272 $106 $172 forward $273 $-1 #
edge $-1 $274 -17.486797814793075 $275 -6.9747637195886192 $171 $276 forward 7 unknown #
loop $-1 $-1 $178 $107 #
plane-surface $-1 -14.907853133143355 -23.461860753878057 44.999137858712785 0 0.54463904215088732 0.83867056331134215 1 0 0 forward_v I I I I #
loop $-1 $-1 $277 $69 #
coedge $-1 $176 $176 $177 $278 reversed $108 $-1 #
coedge $-1 $177 $177 $176 $278 forward $110 $-1 #
coedge $-1 $178 $178 $111 $179 forward $173 $-1 #
edge $-1 $279 -3.8568259848068461e-017 $279 6.2831853071796004 $178 $280 forward 7 unknown #
face $-1 $281 $282 $27 $-1 $283 reversed single #
loop $-1 $-1 $284 $112 #
plane-surface $-1 -53.03018280587176 0 0 1 0 0 0 0 -1 forward_v I I I I #
coedge $-1 $285 $191 $286 $287 forward $113 $-1 #
coedge $-1 $288 $115 $285 $289 forward $73 $-1 #
coedge $-1 $115 $288 $290 $291 forward $73 $-1 #
coedge $-1 $194 $193 $115 $187 reversed $195 $-1 #
edge $-1 $292 -34.638175406330497 $293 34.638175406330497 $186 $294 forward 7 unknown #
coedge $-1 $117 $116 $295 $296 forward $46 $-1 #
coedge $-1 $297 $298 $116 $190 reversed $282 $-1 #
edge $-1 $197 -53.03018280587176 $299 53.03018280587176 $189 $300 forward 7 unknown #
coedge $-1 $183 $301 $117 $192 reversed $113 $-1 #
edge $-1 $302 -53.03018280587176 $196 53.03018280587176 $191 $303 forward 7 unknown #
coedge $-1 $186 $118 $301 $304 forward $195 $-1 #
coedge $-1 $118 $186 $297 $305 reversed $195 $-1 #
loop $-1 $-1 $193 $281 #
vertex $-1 $119 $306 #
vertex $-1 $119 $307 #
straight-curve $-1 53.03018280587176 0 14.095127396935606 0 1 0 I I #
face $-1 $308 $309 $28 $-1 $310 forward single #
loop $-1 $-1 $311 $120 #
plane-surface $-1 0 0 -14.095127396935606 0 0 1 1 0 0 forward_v I I I I #
coedge $-1 $312 $313 $207 $314 forward $121 $-1 #
coedge $-1 $315 $123 $311 $316 reversed $77 $-1 #
coedge $-1 $123 $315 $317 $318 reversed $77 $-1 #
coedge $-1 $313 $312 $123 $206 reversed $121 $-1 #
edge $-1 $319 -14.095127396935606 $320 14.095127396935606 $205 $321 forward 7 unknown #
coedge $-1 $125 $124 $202 $314 reversed $49 $-1 #
coedge $-1 $322 $323 $124 $209 forward $200 $-1 #
edge $-1 $324 13.93325124469813 $215 30.709038122348463 $208 $325 forward 7 unknown #
coedge $-1 $326 $327 $125 $211 forward $309 $-1 #
edge $-1 $216 -30.709038122348463 $328 -13.93325124469813 $210 $329 forward 7 unknown #
coedge $-1 $330 $126 $327 $331 reversed $214 $-1 #
coedge $-1 $126 $330 $322 $332 reversed $214 $-1 #
loop $-1 $-1 $330 $308 #
vertex $-1 $332 $333 #
vertex $-1 $127 $334 #
straight-curve $-1 -53.03018280587176 -23.046118329933879 0 0 0 1 I I #
face $-1 $335 $336 $29 $-1 $337 forward single #
loop $-1 $-1 $227 $128 #
plane-surface $-1 0 0 -14.095127396935606 0 0 1 1 0 0 forward_v I I I I #
coedge $-1 $338 $339 $340 $341 reversed $129 $-1 #
coedge $-1 $134 $131 $342 $343 reversed $81 $-1 #
coedge $-1 $131 $134 $344 $345 reversed $81 $-1 #
coedge $-1 $339 $338 $131 $225 reversed $129 $-1 #
edge $-1 $346 -14.095127396935606 $347 14.095127396935606 $224 $348 forward 7 unknown #
coedge $-1 $133 $132 $349 $350 reversed $52 $-1 #
coedge $-1 $342 $351 $132 $228 forward $219 $-1 #
edge $-1 $352 -30.709038122348467 $232 -13.933251244698134 $227 $353 forward 7 unknown #
coedge $-1 $354 $344 $133 $230 forward $336 $-1 #
edge $-1 $231 13.933251244698134 $355 30.709038122348467 $229 $356 forward 7 unknown #
vertex $-1 $230 $357 #
vertex $-1 $228 $358 #
straight-curve $-1 36.254395928221435 -23.046118329933879 0 0 0 -1 I I #
face $-1 $-1 $359 $30 $-1 $360 reversed single #
loop $-1 $-1 $142 $136 #
plane-surface $-1 0 0 14.095127396935606 0 0 1 1 0 0 forward_v I I I I #
coedge $-1 $361 $362 $363 $364 reversed $137 $-1 #
coedge $-1 $365 $139 $141 $244 forward $85 $-1 #
coedge $-1 $139 $365 $361 $366 forward $85 $-1 #
coedge $-1 $363 $142 $139 $241 forward $235 $-1 #
edge $-1 $247 -23.068017011849882 $367 -3.3047408208932225 $240 $368 forward 7 unknown #
coedge $-1 $369 $370 $140 $243 forward $359 $-1 #
edge $-1 $371 -26.567420915589402 $246 -23.166171916127492 $242 $372 forward 7 unknown #
edge $-1 $247 -4.2588251106392523 $371 -1.1369461177519839e-014 $141 $373 forward 7 unknown #
coedge $-1 $142 $363 $369 $374 forward $235 $-1 #
vertex $-1 $143 $375 #
vertex $-1 $143 $376 #
straight-curve $-1 36.254395928221435 -59.670875232350824 14.095127396935606 0 1 0 I I #
coedge $-1 $249 $249 $-1 $377 reversed $146 $-1 #
edge $-1 $378 0 $378 6.2831853071796004 $147 $379 forward 7 unknown #
vertex $-1 $150 $380 #
ellipse-curve $-1 20.443774975456094 -33.356662963289978 12.394502897204649 0 -0.79863551827123203 0.60181501223851219 0.5 0 0 1 I I #
coedge $-1 $253 $253 $-1 $381 reversed $153 $-1 #
edge $-1 $382 0 $382 6.2831853071796004 $154 $383 forward 7 unknown #
vertex $-1 $157 $384 #
ellipse-curve $-1 26.37275783274309 -33.356662963289978 12.394502897204649 0 -0.79863551827123203 0.60181501223851219 0.5 0 0 1 I I #
coedge $-1 $257 $257 $-1 $385 reversed $160 $-1 #
edge $-1 $386 0 $386 6.2831853071796004 $161 $387 forward 7 unknown #
vertex $-1 $164 $388 #
ellipse-curve $-1 32.301740690030087 -33.356662963289978 12.394502897204649 0 -0.79863551827123203 0.60181501223851219 0.5 0 0 1 I I #
face $-1 $-1 $273 $34 $-1 $389 forward single #
loop $-1 $-1 $390 $165 #
plane-surface $-1 0 34.638175406330497 0 0 -1 0 0 0 -1 forward_v I I I I #
coedge $-1 $391 $392 $393 $394 reversed $166 $-1 #
coedge $-1 $395 $168 $170 $271 forward $104 $-1 #
coedge $-1 $168 $395 $391 $396 forward $104 $-1 #
coedge $-1 $393 $171 $168 $268 forward $273 $-1 #
edge $-1 $275 -17.567693702418087 $397 2.6598405692747313 $267 $398 forward 7 unknown #
coedge $-1 $399 $400 $169 $270 forward $262 $-1 #
edge $-1 $401 -59.705889707264056 $274 -52.879294818724702 $269 $402 forward 7 unknown #
edge $-1 $275 56.742187155241623 $401 69.276350812660993 $170 $403 forward 7 unknown #
coedge $-1 $171 $393 $399 $404 forward $273 $-1 #
loop $-1 $-1 $393 $261 #
vertex $-1 $270 $405 #
vertex $-1 $172 $406 #
straight-curve $-1 -25.021620268989764 17.151377591537422 14.095127396935609 0 -1 0 I I #
coedge $-1 $277 $277 $-1 $407 reversed $175 $-1 #
edge $-1 $408 0 $408 6.2831853071796004 $176 $409 forward 7 unknown #
vertex $-1 $179 $410 #
ellipse-curve $-1 -14.907853133143355 29.382158358728262 10.681829952665934 0 0.54463904215088732 0.83867056331134215 2 0 0 1 I I #
face $-1 $-1 $195 $27 $-1 $411 reversed single #
loop $-1 $-1 $297 $180 #
plane-surface $-1 0 34.638175406330497 0 0 -1 0 0 0 -1 forward_v I I I I #
coedge $-1 $412 $295 $298 $413 forward $181 $-1 #
coedge $-1 $301 $183 $184 $289 reversed $113 $-1 #
coedge $-1 $295 $412 $183 $287 reversed $181 $-1 #
edge $-1 $302 -14.095127396935606 $414 14.095127396935606 $286 $415 forward 7 unknown #
coedge $-1 $185 $184 $412 $416 forward $73 $-1 #
edge $-1 $293 -53.03018280587176 $414 53.03018280587176 $285 $417 forward 7 unknown #
coedge $-1 $298 $297 $185 $291 reversed $282 $-1 #
edge $-1 $418 -53.03018280587176 $292 53.03018280587176 $290 $419 forward 7 unknown #
vertex $-1 $187 $420 #
vertex $-1 $304 $421 #
straight-curve $-1 53.03018280587176 0 -14.095127396935606 0 -1 0 I I #
coedge $-1 $284 $286 $188 $296 reversed $181 $-1 #
edge $-1 $299 -34.638175406330497 $302 34.638175406330497 $295 $422 forward 7 unknown #
coedge $-1 $290 $189 $194 $305 forward $282 $-1 #
coedge $-1 $189 $290 $284 $413 reversed $282 $-1 #
vertex $-1 $190 $423 #
straight-curve $-1 0 34.638175406330497 14.095127396935606 -1 0 0 I I #
coedge $-1 $191 $285 $193 $304 reversed $113 $-1 #
vertex $-1 $296 $424 #
straight-curve $-1 0 -34.638175406330497 14.095127396935606 1 0 0 I I #
edge $-1 $196 -14.095127396935606 $293 14.095127396935606 $193 $425 forward 7 unknown #
edge $-1 $197 -14.095127396935606 $292 14.095127396935606 $194 $426 forward 7 unknown #
point $-1 53.03018280587176 -34.638175406330497 14.095127396935606 #
point $-1 53.03018280587176 34.638175406330497 14.095127396935606 #
face $-1 $-1 $214 $28 $-1 $427 reversed single #
loop $-1 $-1 $317 $199 #
plane-surface $-1 0 0 14.095127396935606 0 0 1 1 0 0 forward_v I I I I #
coedge $-1 $323 $322 $203 $316 forward $200 $-1 #
coedge $-1 $205 $202 $323 $428 reversed $121 $-1 #
coedge $-1 $202 $205 $326 $429 reversed $121 $-1 #
edge $-1 $328 -14.095127396935606 $324 14.095127396935606 $202 $430 forward 7 unknown #
coedge $-1 $204 $203 $330 $431 reversed $77 $-1 #
edge $-1 $432 -30.709038122348463 $320 -13.93325124469813 $311 $433 forward 7 unknown #
coedge $-1 $327 $326 $204 $318 forward $309 $-1 #
edge $-1 $319 13.93325124469813 $434 30.709038122348463 $317 $435 forward 7 unknown #
vertex $-1 $318 $436 #
vertex $-1 $316 $437 #
straight-curve $-1 -36.254395928221427 -17.477323498083269 0 0 0 -1 I I #
coedge $-1 $311 $208 $213 $332 forward $200 $-1 #
coedge $-1 $208 $311 $312 $428 forward $200 $-1 #
vertex $-1 $209 $438 #
straight-curve $-1 -22.321144683523297 -23.046118329933879 -14.095127396935606 -1 0 0 I I #
coedge $-1 $317 $210 $313 $429 forward $309 $-1 #
coedge $-1 $210 $317 $212 $331 forward $309 $-1 #
vertex $-1 $211 $439 #
straight-curve $-1 -22.321144683523297 -23.046118329933879 14.095127396935606 1 0 0 I I #
coedge $-1 $213 $212 $315 $431 forward $214 $-1 #
edge $-1 $434 17.477323498083269 $216 23.046118329933879 $212 $440 forward 7 unknown #
edge $-1 $215 -23.046118329933879 $432 -17.477323498083269 $213 $441 forward 7 unknown #
point $-1 -53.03018280587176 -23.046118329933879 -14.095127396935606 #
point $-1 -53.03018280587176 -23.046118329933879 14.095127396935606 #
face $-1 $-1 $442 $29 $-1 $443 reversed single #
loop $-1 $-1 $229 $218 #
plane-surface $-1 0 0 14.095127396935606 0 0 1 1 0 0 forward_v I I I I #
coedge $-1 $224 $221 $444 $445 reversed $129 $-1 #
coedge $-1 $221 $224 $446 $447 reversed $129 $-1 #
coedge $-1 $448 $449 $221 $341 forward $442 $-1 #
edge $-1 $450 -14.095127396935606 $451 14.095127396935606 $340 $452 forward 7 unknown #
coedge $-1 $444 $227 $222 $343 forward $219 $-1 #
edge $-1 $232 -12.915257872929592 $347 -7.346463041078982 $342 $453 forward 7 unknown #
coedge $-1 $229 $446 $223 $345 forward $336 $-1 #
edge $-1 $346 7.346463041078982 $231 12.915257872929592 $344 $454 forward 7 unknown #
vertex $-1 $345 $455 #
vertex $-1 $343 $456 #
straight-curve $-1 36.254395928221435 -17.477323498083269 0 0 0 -1 I I #
coedge $-1 $449 $448 $226 $350 forward $442 $-1 #
edge $-1 $355 -14.095127396935606 $352 14.095127396935606 $349 $457 forward 7 unknown #
coedge $-1 $227 $444 $449 $458 forward $219 $-1 #
vertex $-1 $350 $459 #
straight-curve $-1 22.321144683523301 -23.046118329933879 -14.095127396935606 -1 0 0 I I #
coedge $-1 $446 $229 $448 $460 forward $336 $-1 #
vertex $-1 $460 $461 #
straight-curve $-1 22.321144683523301 -23.046118329933879 14.095127396935606 1 0 0 I I #
point $-1 36.254395928221435 -23.046118329933879 14.095127396935606 #
point $-1 36.254395928221435 -23.046118329933879 -14.095127396935606 #
loop $-1 $-1 $242 $234 #
plane-surface $-1 0 -34.638175406330497 0 0 1 0 0 0 1 forward_v I I I I #
coedge $-1 $362 $237 $239 $366 reversed $137 $-1 #
coedge $-1 $237 $361 $462 $463 reversed $137 $-1 #
coedge $-1 $245 $240 $237 $364 forward $235 $-1 #
edge $-1 $367 -27.595724712101365 $464 -25.032699826020327 $363 $465 forward 7 unknown #
coedge $-1 $239 $238 $370 $466 reversed $85 $-1 #
edge $-1 $467 1.1369461177519839e-014 $367 4.2588251106392523 $361 $468 forward 7 unknown #
vertex $-1 $241 $469 #
straight-curve $-1 13.186378916371552 -32.075150520249458 14.095127396935606 -1 0 0 I I #
coedge $-1 $462 $242 $245 $374 reversed $359 $-1 #
coedge $-1 $242 $462 $365 $466 forward $359 $-1 #
vertex $-1 $243 $470 #
straight-curve $-1 36.254395928221435 -34.638175406330497 37.261299313063098 0 0 1 I I #
straight-curve $-1 36.254395928221435 -34.638175406330504 10.693878397473689 0 -0.60181501223851219 -0.79863551827123203 I I #
edge $-1 $464 16.491119737264775 $246 36.254395928221435 $369 $471 forward 7 unknown #
point $-1 36.254395928221435 -34.638175406330497 14.095127396935606 #
point $-1 36.254395928221435 -32.075150520249458 14.095127396935606 #
edge $-1 $472 1 $472 0 $249 $-1 forward 7 unknown #
vertex $-1 $250 $473 #
ellipse-curve $-1 20.443774975456094 -31.890202706695678 11.289445862952055 0 -0.79863551827123203 0.60181501223851219 0.5 0 0 1 I I #
point $-1 20.943774975456094 -33.35666296328997 12.394502897204644 #
edge $-1 $474 1 $474 0 $253 $-1 forward 7 unknown #
vertex $-1 $254 $475 #
ellipse-curve $-1 26.37275783274309 -31.890202706695678 11.289445862952055 0 -0.79863551827123203 0.60181501223851219 0.5 0 0 1 I I #
point $-1 26.87275783274309 -33.35666296328997 12.394502897204644 #
edge $-1 $476 1 $476 0 $257 $-1 forward 7 unknown #
vertex $-1 $258 $477 #
ellipse-curve $-1 32.301740690030087 -31.890202706695678 11.289445862952055 0 -0.79863551827123203 0.60181501223851219 0.5 0 0 1 I I #
point $-1 32.801740690030087 -33.35666296328997 12.394502897204644 #
plane-surface $-1 0 0 14.095127396935606 0 0 1 1 0 0 forward_v I I I I #
coedge $-1 $400 $399 $392 $478 forward $262 $-1 #
coedge $-1 $392 $264 $266 $396 reversed $166 $-1 #
coedge $-1 $264 $391 $390 $478 reversed $166 $-1 #
coedge $-1 $272 $267 $264 $394 forward $273 $-1 #
edge $-1 $397 6.9747637195886192 $479 17.486797814793075 $393 $480 forward 7 unknown #
coedge $-1 $266 $265 $400 $481 reversed $104 $-1 #
edge $-1 $482 -69.276350812660993 $397 -56.742187155241623 $391 $483 forward 7 unknown #
vertex $-1 $268 $484 #
straight-curve $-1 -7.4539265665716776 24.126141311126037 14.095127396935602 1 0 0 I I #
coedge $-1 $390 $269 $272 $404 reversed $262 $-1 #
coedge $-1 $269 $390 $395 $481 forward $262 $-1 #
vertex $-1 $270 $485 #
straight-curve $-1 -25.021620268989764 34.638175406330497 66.974422215660312 0 0 1 I I #
straight-curve $-1 -25.021620268989764 -23.461860753878057 44.999137858712785 0 0.83867056331134215 -0.54463904215088732 I I #
edge $-1 $479 4.7940859972969463 $274 25.021620268989764 $399 $486 forward 7 unknown #
point $-1 -25.021620268989764 34.638175406330497 14.095127396935606 #
point $-1 -25.021620268989764 24.126141311126041 14.095127396935606 #
edge $-1 $487 1 $487 0 $277 $-1 forward 7 unknown #
vertex $-1 $278 $488 #
ellipse-curve $-1 -14.907853133143355 27.303265134450914 7.4806151727203698 0 0.54463904215088732 0.83867056331134215 2 0 0 1 I I #
point $-1 -12.907853133143355 29.382158358728258 10.681829952665929 #
plane-surface $-1 53.03018280587176 0 0 -1 0 0 0 0 1 forward_v I I I I #
coedge $-1 $286 $284 $288 $416 reversed $181 $-1 #
edge $-1 $299 -14.095127396935606 $418 14.095127396935606 $298 $489 forward 7 unknown #
vertex $-1 $416 $490 #
straight-curve $-1 -53.03018280587176 -34.638175406330497 0 0 0 -1 I I #
edge $-1 $414 -34.638175406330497 $418 34.638175406330497 $412 $491 forward 7 unknown #
straight-curve $-1 0 -34.638175406330497 -14.095127396935606 -1 0 0 I I #
vertex $-1 $291 $492 #
straight-curve $-1 0 34.638175406330497 -14.095127396935606 1 0 0 I I #
point $-1 53.03018280587176 34.638175406330497 -14.095127396935606 #
point $-1 53.03018280587176 -34.638175406330497 -14.095127396935606 #
straight-curve $-1 -53.03018280587176 0 14.095127396935606 0 -1 0 I I #
point $-1 -53.03018280587176 34.638175406330497 14.095127396935606 #
point $-1 -53.03018280587176 -34.638175406330497 14.095127396935606 #
straight-curve $-1 53.03018280587176 -34.638175406330497 0 0 0 -1 I I #
straight-curve $-1 53.03018280587176 34.638175406330497 0 0 0 -1 I I #
plane-surface $-1 -53.03018280587176 0 0 1 0 0 0 0 -1 forward_v I I I I #
edge $-1 $320 7.346463041078982 $324 12.915257872929592 $323 $493 forward 7 unknown #
edge $-1 $328 -12.915257872929592 $319 -7.346463041078982 $326 $494 forward 7 unknown #
straight-curve $-1 -36.254395928221427 -23.046118329933879 0 0 0 -1 I I #
edge $-1 $434 -14.095127396935606 $432 14.095127396935606 $330 $495 forward 7 unknown #
vertex $-1 $431 $496 #
straight-curve $-1 -22.321144683523297 -17.477323498083269 -14.095127396935606 1 0 0 I I #
vertex $-1 $331 $497 #
straight-curve $-1 -22.321144683523297 -17.477323498083269 14.095127396935606 -1 0 0 I I #
point $-1 -36.254395928221427 -17.477323498083269 14.095127396935606 #
point $-1 -36.254395928221427 -17.477323498083269 -14.095127396935606 #
point $-1 -36.254395928221427 -23.046118329933879 -14.095127396935606 #
point $-1 -36.254395928221427 -23.046118329933879 14.095127396935606 #
straight-curve $-1 -53.03018280587176 0 14.095127396935606 0 -1 0 I I #
straight-curve $-1 -53.03018280587176 0 -14.095127396935606 0 1 0 I I #
loop $-1 $-1 $349 $335 #
plane-surface $-1 53.03018280587176 0 0 -1 0 0 0 0 1 forward_v I I I I #
coedge $-1 $351 $342 $338 $445 forward $219 $-1 #
edge $-1 $347 13.933251244698134 $450 30.709038122348467 $444 $498 forward 7 unknown #
coedge $-1 $344 $354 $339 $447 forward $336 $-1 #
edge $-1 $451 -30.709038122348467 $346 -13.933251244698134 $446 $499 forward 7 unknown #
coedge $-1 $349 $340 $354 $460 reversed $442 $-1 #
coedge $-1 $340 $349 $351 $458 reversed $442 $-1 #
vertex $-1 $458 $500 #
vertex $-1 $341 $501 #
straight-curve $-1 53.03018280587176 -17.477323498083269 0 0 0 1 I I #
straight-curve $-1 36.254395928221435 -10.130860457004287 -14.095127396935606 0 1 0 I I #
straight-curve $-1 36.254395928221435 -10.130860457004287 14.095127396935606 0 -1 0 I I #
point $-1 36.254395928221435 -17.477323498083269 14.095127396935606 #
point $-1 36.254395928221435 -17.477323498083269 -14.095127396935606 #
straight-curve $-1 53.03018280587176 -23.046118329933879 0 0 0 -1 I I #
edge $-1 $450 17.477323498083269 $352 23.046118329933879 $449 $502 forward 7 unknown #
point $-1 53.030182805871767 -23.046118329933879 -14.095127396935606 #
edge $-1 $355 -23.046118329933879 $451 -17.477323498083269 $448 $503 forward 7 unknown #
point $-1 53.030182805871767 -23.046118329933879 14.095127396935606 #
coedge $-1 $370 $369 $362 $463 forward $359 $-1 #
edge $-1 $464 23.166171916127492 $467 26.567420915589402 $462 $504 forward 7 unknown #
vertex $-1 $374 $505 #
straight-curve $-1 16.491119737264775 -59.670875232350824 14.095127396935606 0 -1 0 I I #
edge $-1 $467 3.3047408208932225 $371 23.068017011849882 $370 $506 forward 7 unknown #
vertex $-1 $466 $507 #
straight-curve $-1 16.491119737264775 -34.638175406330504 10.693878397473689 0 0.60181501223851219 0.79863551827123203 I I #
point $-1 16.491119737264775 -32.075150520249458 14.095127396935606 #
point $-1 36.254395928221435 -34.638175406330497 10.693878397473698 #
straight-curve $-1 0 -34.638175406330497 14.095127396935606 1 0 0 I I #
vertex $-1 $377 $508 #
point $-1 20.943774975456094 -31.890202706695678 11.289445862952055 #
vertex $-1 $381 $509 #
point $-1 26.87275783274309 -31.890202706695678 11.289445862952055 #
vertex $-1 $385 $510 #
point $-1 32.801740690030087 -31.890202706695678 11.289445862952055 #
edge $-1 $479 52.879294818724702 $482 59.705889707264056 $390 $511 forward 7 unknown #
vertex $-1 $404 $512 #
straight-curve $-1 -4.7940859972969463 17.151377591537422 14.095127396935609 0 1 0 I I #
edge $-1 $482 -2.6598405692747313 $401 17.567693702418087 $400 $513 forward 7 unknown #
vertex $-1 $481 $514 #
straight-curve $-1 -4.7940859972969463 -23.461860753878057 44.999137858712785 0 -0.83867056331134215 0.54463904215088732 I I #
point $-1 -4.7940859972969463 24.126141311126041 14.095127396935606 #
point $-1 -25.021620268989764 34.638175406330497 7.2685325083962553 #
straight-curve $-1 0 34.638175406330497 14.095127396935606 -1 0 0 I I #
vertex $-1 $407 $515 #
point $-1 -12.907853133143355 27.303265134450914 7.4806151727203698 #
straight-curve $-1 -53.03018280587176 34.638175406330497 0 0 0 -1 I I #
point $-1 -53.03018280587176 -34.638175406330497 -14.095127396935606 #
straight-curve $-1 -53.03018280587176 0 -14.095127396935606 0 1 0 I I #
point $-1 -53.03018280587176 34.638175406330497 -14.095127396935606 #
straight-curve $-1 -36.254395928221427 -10.130860457004287 -14.095127396935606 0 -1 0 I I #
straight-curve $-1 -36.254395928221427 -10.130860457004287 14.095127396935606 0 1 0 I I #
straight-curve $-1 -53.03018280587176 -17.477323498083269 0 0 0 -1 I I #
point $-1 -53.03018280587176 -17.477323498083269 -14.095127396935606 #
point $-1 -53.03018280587176 -17.477323498083269 14.095127396935606 #
straight-curve $-1 22.321144683523301 -17.477323498083269 -14.095127396935606 1 0 0 I I #
straight-curve $-1 22.321144683523301 -17.477323498083269 14.095127396935606 -1 0 0 I I #
point $-1 53.030182805871767 -17.477323498083269 -14.095127396935606 #
point $-1 53.030182805871767 -17.477323498083269 14.095127396935606 #
straight-curve $-1 53.03018280587176 0 -14.095127396935606 0 -1 0 I I #
straight-curve $-1 53.03018280587176 0 14.095127396935606 0 1 0 I I #
straight-curve $-1 16.491119737264775 -34.638175406330497 37.261299313063098 0 0 -1 I I #
point $-1 16.491119737264775 -34.638175406330497 14.095127396935606 #
straight-curve $-1 13.186378916371552 -34.638175406330497 10.6938783974737 1 0 0 I I #
point $-1 16.491119737264775 -34.638175406330497 10.693878397473698 #
point $-1 20.443774975456094 -31.490884947560065 10.9885383568328 #
point $-1 26.37275783274309 -31.490884947560065 10.9885383568328 #
point $-1 32.301740690030087 -31.490884947560065 10.9885383568328 #
straight-curve $-1 -4.7940859972969463 34.638175406330497 66.974422215660312 0 0 -1 I I #
point $-1 -4.7940859972969463 34.638175406330497 14.095127396935606 #
straight-curve $-1 -7.4539265665716776 34.63817540633049 7.2685325083962589 -1 0 0 I I #
point $-1 -4.7940859972969463 34.638175406330497 7.2685325083962553 #
point $-1 -14.907853133143355 26.213987050149139 5.8032740460976839 #
End-of-ACIS-data 