500 0 9 0           
7 Unknown 11 ACIS 5.0 NT 24 Thu Mar 25 16:39:32 1999 
-1 9.9999999999999995e-007 1e-010 
body $-1 $9 $-1 $10 #
body $-1 $11 $-1 $12 #
body $-1 $13 $-1 $14 #
body $-1 $15 $-1 $16 #
body $-1 $17 $-1 $18 #
body $-1 $19 $-1 $20 #
body $-1 $21 $-1 $22 #
body $-1 $23 $-1 $24 #
body $-1 $25 $-1 $26 #
lump $-1 $-1 $27 $0 #
transform $-1 1 0 0 0 1 0 0 0 1 79.426252021851255 52.947764318189208 19.57469167681241 1 rotate no_reflect no_shear #
lump $-1 $-1 $28 $1 #
transform $-1 1 0 0 0 1 0 0 0 1 79.426252021851255 52.947764318189208 19.57469167681241 1 rotate no_reflect no_shear #
lump $-1 $-1 $29 $2 #
transform $-1 1 0 0 0 1 0 0 0 1 79.426252021851255 52.947764318189208 19.57469167681241 1 rotate no_reflect no_shear #
lump $-1 $-1 $30 $3 #
transform $-1 1 0 0 0 1 0 0 0 1 79.426252021851255 52.947764318189208 19.57469167681241 1 rotate no_reflect no_shear #
lump $-1 $-1 $31 $4 #
transform $-1 1 0 0 0 1 0 0 0 1 79.426252021851255 52.947764318189208 19.57469167681241 1 rotate no_reflect no_shear #
lump $-1 $-1 $32 $5 #
transform $-1 1 0 0 0 1 0 0 0 1 79.426252021851255 52.947764318189208 19.57469167681241 1 rotate no_reflect no_shear #
lump $-1 $-1 $33 $6 #
transform $-1 1 0 0 0 1 0 0 0 1 79.426252021851255 52.947764318189208 19.57469167681241 1 rotate no_reflect no_shear #
lump $-1 $-1 $34 $7 #
transform $-1 1 0 0 0 1 0 0 0 1 79.426252021851255 52.947764318189208 19.57469167681241 1 rotate no_reflect no_shear #
lump $-1 $-1 $35 $8 #
transform $-1 1 0 0 0 1 0 0 0 1 79.426252021851255 52.947764318189208 19.57469167681241 1 rotate no_reflect no_shear #
shell $-1 $-1 $-1 $36 $-1 $9 #
shell $-1 $-1 $-1 $37 $-1 $11 #
shell $-1 $-1 $-1 $38 $-1 $13 #
shell $-1 $-1 $-1 $39 $-1 $15 #
shell $-1 $-1 $-1 $40 $-1 $17 #
shell $-1 $-1 $-1 $41 $-1 $19 #
shell $-1 $-1 $-1 $42 $-1 $21 #
shell $-1 $-1 $-1 $43 $-1 $23 #
shell $-1 $-1 $-1 $44 $-1 $25 #
face $-1 $45 $46 $27 $-1 $47 forward single #
face $-1 $48 $49 $28 $-1 $50 forward single #
face $-1 $51 $52 $29 $-1 $53 reversed single #
face $-1 $54 $55 $30 $-1 $56 forward single #
face $-1 $57 $58 $31 $-1 $59 forward single #
face $-1 $60 $61 $32 $-1 $62 reversed single #
face $-1 $63 $64 $33 $-1 $65 forward single #
face $-1 $66 $67 $34 $-1 $68 reversed single #
face $-1 $69 $70 $35 $-1 $71 forward single #
face $-1 $72 $73 $27 $-1 $74 reversed single #
loop $-1 $-1 $75 $36 #
plane-surface $-1 0 0 19.57469167681241 0 0 1 1 0 0 forward_v I I I I #
face $-1 $76 $77 $28 $-1 $78 reversed single #
loop $-1 $-1 $79 $37 #
plane-surface $-1 0 -45.258758280854821 -13.630059672785176 0 0 1 1 0 0 forward_v I I I I #
face $-1 $80 $81 $29 $-1 $82 reversed single #
loop $-1 $-1 $83 $38 #
plane-surface $-1 133.77433956138935 40.025806640626129 225.63609347548919 0 1 0 0.85716730853699208 0 0.51503806187062418 forward_v I I I I #
face $-1 $84 $85 $30 $-1 $86 forward single #
loop $-1 $87 $88 $39 #
cone-surface $-1 73.306113395841138 43.717794548501296 12.090104956735734 -0.85716730853699208 0 -0.51503806187062418 0.77255709280593621 0 -1.2857509628054882 1 I I 0 1 1.5 forward I I I I #
face $-1 $89 $90 $31 $-1 $91 forward single #
loop $-1 $92 $93 $40 #
cone-surface $-1 73.306113395841138 49.255776410314034 12.090104956735734 -0.85716730853699208 0 -0.51503806187062418 0.77255709280593621 0 -1.2857509628054882 1 I I 0 1 1.5 forward I I I I #
face $-1 $94 $95 $32 $-1 $96 reversed single #
loop $-1 $-1 $97 $41 #
plane-surface $-1 -195.60362017854078 -9.1445945569247797 111.50822473583186 0 1 0 -0.73135370988377701 0 0.68199835119979291 forward_v I I I I #
face $-1 $98 $99 $33 $-1 $100 forward single #
loop $-1 $101 $102 $42 #
cone-surface $-1 -71.164846317723786 -0.7277942597951963 10.801162448149215 0.73135370988377701 0 -0.68199835119979291 1.0229975267996894 0 1.0970305648256655 1 I I 0 1 1.5 forward I I I I #
face $-1 $103 $104 $34 $-1 $105 reversed single #
loop $-1 $-1 $106 $43 #
plane-surface $-1 -79.426252021851255 -0.7277942597951963 3.1710788940683159 -0.73135370988377701 0 0.68199835119979291 0.68199835119979291 0 0.73135370988377701 forward_v I I I I #
face $-1 $107 $108 $35 $-1 $109 forward single #
loop $-1 $110 $111 $44 #
cone-surface $-1 -71.164846317723786 16.105806334463971 10.801162448149215 0.73135370988377701 0 -0.68199835119979291 1.0229975267996894 0 1.0970305648256655 1 I I 0 1 1.5 forward I I I I #
face $-1 $112 $113 $27 $-1 $114 reversed single #
loop $-1 $-1 $115 $45 #
plane-surface $-1 0 0 -19.57469167681241 0 0 1 1 0 0 forward_v I I I I #
coedge $-1 $116 $117 $118 $119 forward $46 $-1 #
face $-1 $120 $121 $28 $-1 $122 reversed single #
loop $-1 $-1 $123 $48 #
plane-surface $-1 0 -37.569752243520433 -16.602375674798793 0 -1 0 0 0 -1 forward_v I I I I #
coedge $-1 $124 $125 $126 $127 reversed $49 $-1 #
face $-1 $128 $129 $29 $-1 $130 forward single #
loop $-1 $-1 $131 $51 #
plane-surface $-1 -2.3888337841127907 46.486785479407665 143.82100766952516 0.85716730853699208 0 0.51503806187062418 0.51503806187062418 0 -0.85716730853699208 forward_v I I I I #
coedge $-1 $132 $133 $134 $135 reversed $52 $-1 #
face $-1 $-1 $136 $30 $-1 $137 forward single #
loop $-1 $138 $139 $54 #
cone-surface $-1 70.123284307992904 43.717794548501296 10.17766836665076 -0.85716730853699208 0 -0.51503806187062418 0.3862785464029681 0 -0.64287548140274409 1 I I -0.70710678118654757 0.70710678118654757 0.75 forward I I I I #
loop $-1 $-1 $140 $39 #
coedge $-1 $88 $88 $141 $142 reversed $55 $-1 #
face $-1 $-1 $143 $31 $-1 $144 forward single #
loop $-1 $145 $146 $57 #
cone-surface $-1 70.123284307992904 49.255776410314034 10.17766836665076 -0.85716730853699208 0 -0.51503806187062418 0.3862785464029681 0 -0.64287548140274409 1 I I -0.70710678118654757 0.70710678118654757 0.75 forward I I I I #
loop $-1 $-1 $147 $40 #
coedge $-1 $93 $93 $148 $149 reversed $58 $-1 #
face $-1 $150 $151 $32 $-1 $152 reversed single #
loop $-1 $-1 $153 $60 #
plane-surface $-1 -79.426252021851255 -0.7277942597951963 3.1710788940683159 -0.73135370988377701 0 0.68199835119979291 0.68199835119979291 0 0.73135370988377701 forward_v I I I I #
coedge $-1 $154 $155 $156 $157 reversed $61 $-1 #
face $-1 $-1 $158 $33 $-1 $159 forward single #
loop $-1 $160 $161 $63 #
cone-surface $-1 -70.0032333388978 -0.7277942597951963 9.7179408474582161 0.73135370988377701 0 -0.68199835119979291 0.51149876339984468 0 0.54851528241283276 1 I I -0.70710678118654757 0.70710678118654757 0.75 forward I I I I #
loop $-1 $-1 $162 $42 #
coedge $-1 $102 $102 $163 $164 reversed $64 $-1 #
face $-1 $165 $166 $34 $-1 $167 reversed single #
loop $-1 $-1 $168 $66 #
plane-surface $-1 -195.60362017854078 24.522606631593554 111.50822473583186 0 -1 0 0.73135370988377701 0 -0.68199835119979291 forward_v I I I I #
coedge $-1 $169 $170 $171 $172 reversed $67 $-1 #
face $-1 $-1 $173 $35 $-1 $174 forward single #
loop $-1 $175 $176 $69 #
cone-surface $-1 -70.0032333388978 16.105806334463971 9.7179408474582161 0.73135370988377701 0 -0.68199835119979291 0.51149876339984468 0 0.54851528241283276 1 I I -0.70710678118654757 0.70710678118654757 0.75 forward I I I I #
loop $-1 $-1 $177 $44 #
coedge $-1 $111 $111 $178 $179 reversed $70 $-1 #
face $-1 $180 $181 $27 $-1 $182 reversed single #
loop $-1 $-1 $183 $72 #
plane-surface $-1 0 -52.947764318189208 0 0 1 0 0 0 1 forward_v I I I I #
coedge $-1 $184 $185 $186 $187 forward $73 $-1 #
coedge $-1 $188 $75 $189 $190 forward $46 $-1 #
coedge $-1 $75 $188 $191 $192 forward $46 $-1 #
coedge $-1 $193 $194 $75 $119 reversed $195 $-1 #
edge $-1 $196 -52.947764318189208 $197 52.947764318189208 $118 $198 forward 7 unknown #
face $-1 $199 $200 $28 $-1 $201 reversed single #
loop $-1 $-1 $202 $76 #
plane-surface $-1 0 0 -19.57469167681241 0 0 1 1 0 0 forward_v I I I I #
coedge $-1 $203 $204 $205 $206 reversed $77 $-1 #
coedge $-1 $207 $79 $204 $208 forward $49 $-1 #
coedge $-1 $79 $207 $209 $210 reversed $49 $-1 #
coedge $-1 $211 $205 $79 $127 forward $200 $-1 #
edge $-1 $212 14.940373103093023 $213 30.318385177761797 $126 $214 forward 7 unknown #
face $-1 $215 $216 $29 $-1 $217 reversed single #
loop $-1 $-1 $218 $80 #
plane-surface $-1 0 0 19.57469167681241 0 0 1 1 0 0 forward_v I I I I #
coedge $-1 $219 $220 $221 $222 reversed $81 $-1 #
coedge $-1 $133 $83 $223 $224 reversed $52 $-1 #
coedge $-1 $83 $132 $219 $225 reversed $52 $-1 #
coedge $-1 $221 $226 $83 $135 forward $227 $-1 #
edge $-1 $228 93.243355060932188 $229 105.16021241372158 $134 $230 forward 7 unknown #
loop $-1 $-1 $141 $84 #
plane-surface $-1 -2.3888337841127907 46.486785479407665 143.82100766952516 0.85716730853699208 0 0.51503806187062418 0.51503806187062418 0 -0.85716730853699208 forward_v I I I I #
loop $-1 $-1 $231 $54 #
coedge $-1 $139 $139 $140 $232 reversed $85 $-1 #
coedge $-1 $140 $140 $139 $232 forward $87 $-1 #
coedge $-1 $141 $141 $88 $142 forward $136 $-1 #
edge $-1 $233 0 $233 6.2831853071796004 $141 $234 forward 7 unknown #
loop $-1 $-1 $148 $89 #
plane-surface $-1 -2.3888337841127907 46.486785479407665 143.82100766952516 0.85716730853699208 0 0.51503806187062418 0.51503806187062418 0 -0.85716730853699208 forward_v I I I I #
loop $-1 $-1 $235 $57 #
coedge $-1 $146 $146 $147 $236 reversed $90 $-1 #
coedge $-1 $147 $147 $146 $236 forward $92 $-1 #
coedge $-1 $148 $148 $93 $149 forward $143 $-1 #
edge $-1 $237 0 $237 6.2831853071796004 $148 $238 forward 7 unknown #
face $-1 $239 $240 $32 $-1 $241 reversed single #
loop $-1 $-1 $242 $94 #
plane-surface $-1 -195.60362017854078 7.6890060373343871 111.50822473583186 0 -1 0 0.73135370988377701 0 -0.68199835119979291 forward_v I I I I #
coedge $-1 $243 $244 $245 $246 reversed $95 $-1 #
coedge $-1 $155 $97 $247 $248 reversed $61 $-1 #
coedge $-1 $97 $154 $243 $249 reversed $61 $-1 #
coedge $-1 $245 $250 $97 $157 forward $251 $-1 #
edge $-1 $252 18.375558067419135 $253 33.672174082847761 $156 $254 forward 7 unknown #
loop $-1 $-1 $163 $98 #
plane-surface $-1 -79.426252021851255 -0.7277942597951963 3.1710788940683159 -0.73135370988377701 0 0.68199835119979291 0.68199835119979291 0 0.73135370988377701 forward_v I I I I #
loop $-1 $-1 $255 $63 #
coedge $-1 $161 $161 $162 $256 reversed $99 $-1 #
coedge $-1 $162 $162 $161 $256 forward $101 $-1 #
coedge $-1 $163 $163 $102 $164 forward $158 $-1 #
edge $-1 $257 0 $257 6.2831853071796004 $163 $258 forward 7 unknown #
face $-1 $259 $260 $34 $-1 $261 forward single #
loop $-1 $-1 $262 $103 #
plane-surface $-1 -79.426252021851255 0 0 1 0 0 0 0 -1 forward_v I I I I #
coedge $-1 $263 $264 $265 $266 reversed $104 $-1 #
coedge $-1 $267 $106 $268 $269 reversed $67 $-1 #
coedge $-1 $106 $267 $270 $271 reversed $67 $-1 #
coedge $-1 $272 $273 $106 $172 forward $260 $-1 #
edge $-1 $274 0 $275 22.42910996561551 $171 $276 forward 7 unknown #
loop $-1 $-1 $178 $107 #
plane-surface $-1 -79.426252021851255 -0.7277942597951963 3.1710788940683159 -0.73135370988377701 0 0.68199835119979291 0.68199835119979291 0 0.73135370988377701 forward_v I I I I #
loop $-1 $-1 $277 $69 #
coedge $-1 $176 $176 $177 $278 reversed $108 $-1 #
coedge $-1 $177 $177 $176 $278 forward $110 $-1 #
coedge $-1 $178 $178 $111 $179 forward $173 $-1 #
edge $-1 $279 0 $279 6.2831853071796004 $178 $280 forward 7 unknown #
face $-1 $281 $282 $27 $-1 $283 reversed single #
loop $-1 $-1 $284 $112 #
plane-surface $-1 -79.426252021851255 0 0 1 0 0 0 0 -1 forward_v I I I I #
coedge $-1 $285 $191 $286 $287 forward $113 $-1 #
coedge $-1 $288 $115 $285 $289 forward $73 $-1 #
coedge $-1 $115 $288 $290 $291 forward $73 $-1 #
coedge $-1 $194 $193 $115 $187 reversed $195 $-1 #
edge $-1 $292 -52.947764318189208 $293 52.947764318189208 $186 $294 forward 7 unknown #
coedge $-1 $117 $116 $295 $296 forward $46 $-1 #
coedge $-1 $297 $298 $116 $190 reversed $282 $-1 #
edge $-1 $197 -79.426252021851255 $299 79.426252021851255 $189 $300 forward 7 unknown #
coedge $-1 $183 $301 $117 $192 reversed $113 $-1 #
edge $-1 $302 -79.426252021851255 $196 79.426252021851255 $191 $303 forward 7 unknown #
coedge $-1 $186 $118 $301 $304 forward $195 $-1 #
coedge $-1 $118 $186 $297 $305 reversed $195 $-1 #
loop $-1 $-1 $193 $281 #
vertex $-1 $119 $306 #
vertex $-1 $119 $307 #
straight-curve $-1 79.426252021851255 0 19.57469167681241 0 1 0 I I #
face $-1 $308 $309 $28 $-1 $310 reversed single #
loop $-1 $-1 $205 $120 #
plane-surface $-1 79.426252021851255 0 0 -1 0 0 0 0 1 forward_v I I I I #
coedge $-1 $311 $312 $203 $313 forward $121 $-1 #
coedge $-1 $314 $123 $202 $313 reversed $77 $-1 #
coedge $-1 $123 $314 $124 $208 reversed $77 $-1 #
coedge $-1 $126 $315 $123 $206 forward $200 $-1 #
edge $-1 $316 -11.273503839413014 $212 -5.3288718353857796 $205 $317 forward 7 unknown #
coedge $-1 $125 $124 $318 $319 reversed $49 $-1 #
edge $-1 $212 -79.426252021851255 $320 79.426252021851255 $204 $321 forward 7 unknown #
coedge $-1 $322 $323 $125 $210 forward $309 $-1 #
edge $-1 $213 -79.426252021851255 $324 79.426252021851255 $209 $325 forward 7 unknown #
coedge $-1 $315 $126 $323 $326 forward $200 $-1 #
vertex $-1 $127 $327 #
vertex $-1 $326 $328 #
straight-curve $-1 79.426252021851255 -22.62937914042741 -13.630059672785176 0 -1 0 I I #
face $-1 $-1 $227 $29 $-1 $329 reversed single #
loop $-1 $-1 $330 $128 #
plane-surface $-1 0 52.947764318189208 0 0 -1 0 0 0 -1 forward_v I I I I #
coedge $-1 $223 $331 $332 $333 forward $129 $-1 #
coedge $-1 $332 $131 $133 $225 forward $81 $-1 #
coedge $-1 $131 $332 $330 $334 reversed $81 $-1 #
coedge $-1 $335 $134 $131 $222 forward $227 $-1 #
edge $-1 $229 16.782413900922297 $336 29.704371578485375 $221 $337 forward 7 unknown #
coedge $-1 $338 $218 $132 $224 forward $129 $-1 #
edge $-1 $339 5.3787122020273159 $228 12.539082241156578 $223 $340 forward 7 unknown #
edge $-1 $229 -158.85250404370257 $339 -144.9499003931632 $133 $341 forward 7 unknown #
coedge $-1 $134 $335 $338 $342 reversed $227 $-1 #
loop $-1 $-1 $221 $215 #
vertex $-1 $342 $343 #
vertex $-1 $135 $344 #
straight-curve $-1 79.426252021851255 40.025806640626129 112.8180467377446 0 0 -1 I I #
coedge $-1 $231 $231 $-1 $345 reversed $138 $-1 #
edge $-1 $346 0 $346 6.2831853071796004 $139 $347 forward 7 unknown #
vertex $-1 $142 $348 #
ellipse-curve $-1 75.846067002286603 43.717794548501296 13.616263000417725 0.85716730853699208 0 0.51503806187062418 0.77255709280593621 0 -1.2857509628054882 1 I I #
coedge $-1 $235 $235 $-1 $349 reversed $145 $-1 #
edge $-1 $350 0 $350 6.2831853071796004 $146 $351 forward 7 unknown #
vertex $-1 $149 $352 #
ellipse-curve $-1 75.846067002286603 49.255776410314034 13.616263000417725 0.85716730853699208 0 0.51503806187062418 0.77255709280593621 0 -1.2857509628054882 1 I I #
face $-1 $-1 $251 $32 $-1 $353 forward single #
loop $-1 $-1 $354 $150 #
plane-surface $-1 -79.426252021851255 0 0 1 0 0 0 0 -1 forward_v I I I I #
coedge $-1 $355 $356 $357 $358 reversed $151 $-1 #
coedge $-1 $359 $153 $155 $249 forward $95 $-1 #
coedge $-1 $153 $359 $355 $360 forward $95 $-1 #
coedge $-1 $357 $156 $153 $246 forward $251 $-1 #
edge $-1 $253 -8.7806974270271816 $361 8.0529031672319853 $245 $362 forward 7 unknown #
coedge $-1 $363 $364 $154 $248 forward $240 $-1 #
edge $-1 $365 -52.583033473847614 $252 -36.179420691103516 $247 $366 forward 7 unknown #
edge $-1 $253 -22.42910996561551 $365 0 $155 $367 forward 7 unknown #
coedge $-1 $156 $357 $363 $368 forward $251 $-1 #
loop $-1 $-1 $357 $239 #
vertex $-1 $248 $369 #
vertex $-1 $157 $370 #
straight-curve $-1 -97.80181008927039 -9.1445945569247797 19.574691676812407 1 0 0 I I #
coedge $-1 $255 $255 $-1 $371 reversed $160 $-1 #
edge $-1 $372 0 $372 6.2831853071796004 $161 $373 forward 7 unknown #
vertex $-1 $164 $374 #
ellipse-curve $-1 -71.777944014136935 -0.7277942597951963 11.372885285440368 -0.73135370988377701 0 0.68199835119979291 1.0229975267996894 0 1.0970305648256655 1 I I #
face $-1 $-1 $375 $34 $-1 $376 forward single #
loop $-1 $-1 $272 $165 #
plane-surface $-1 -195.60362017854078 7.6890060373343871 111.50822473583186 0 -1 0 0.73135370988377701 0 -0.68199835119979291 forward_v I I I I #
coedge $-1 $268 $377 $264 $378 forward $166 $-1 #
coedge $-1 $264 $168 $267 $379 reversed $104 $-1 #
coedge $-1 $168 $263 $262 $378 reversed $104 $-1 #
coedge $-1 $380 $270 $168 $266 forward $375 $-1 #
edge $-1 $381 -33.672174082847761 $382 -18.375558067419135 $265 $383 forward 7 unknown #
coedge $-1 $170 $169 $263 $379 forward $67 $-1 #
coedge $-1 $384 $262 $169 $269 forward $166 $-1 #
edge $-1 $385 -24.886503761491152 $274 -8.0529031672319853 $268 $386 forward 7 unknown #
coedge $-1 $265 $387 $170 $271 forward $375 $-1 #
edge $-1 $275 8.0529031672319853 $381 24.886503761491152 $270 $388 forward 7 unknown #
coedge $-1 $273 $171 $387 $389 reversed $260 $-1 #
coedge $-1 $171 $272 $384 $390 reversed $260 $-1 #
vertex $-1 $269 $391 #
vertex $-1 $271 $392 #
straight-curve $-1 -79.426252021851255 7.6890060373343871 3.1710788940683159 0.68199835119979291 0 0.73135370988377701 I I #
coedge $-1 $277 $277 $-1 $393 reversed $175 $-1 #
edge $-1 $394 0 $394 6.2831853071796004 $176 $395 forward 7 unknown #
vertex $-1 $179 $396 #
ellipse-curve $-1 -71.777944014136935 16.105806334463971 11.372885285440368 -0.73135370988377701 0 0.68199835119979291 1.0229975267996894 0 1.0970305648256655 1 I I #
face $-1 $-1 $195 $27 $-1 $397 reversed single #
loop $-1 $-1 $297 $180 #
plane-surface $-1 0 52.947764318189208 0 0 -1 0 0 0 -1 forward_v I I I I #
coedge $-1 $398 $295 $298 $399 forward $181 $-1 #
coedge $-1 $301 $183 $184 $289 reversed $113 $-1 #
coedge $-1 $295 $398 $183 $287 reversed $181 $-1 #
edge $-1 $302 -19.57469167681241 $400 19.57469167681241 $286 $401 forward 7 unknown #
coedge $-1 $185 $184 $398 $402 forward $73 $-1 #
edge $-1 $293 -79.426252021851255 $400 79.426252021851255 $285 $403 forward 7 unknown #
coedge $-1 $298 $297 $185 $291 reversed $282 $-1 #
edge $-1 $404 -79.426252021851255 $292 79.426252021851255 $290 $405 forward 7 unknown #
vertex $-1 $187 $406 #
vertex $-1 $304 $407 #
straight-curve $-1 79.426252021851255 0 -19.57469167681241 0 -1 0 I I #
coedge $-1 $284 $286 $188 $296 reversed $181 $-1 #
edge $-1 $299 -52.947764318189208 $302 52.947764318189208 $295 $408 forward 7 unknown #
coedge $-1 $290 $189 $194 $305 forward $282 $-1 #
coedge $-1 $189 $290 $284 $399 reversed $282 $-1 #
vertex $-1 $190 $409 #
straight-curve $-1 0 52.947764318189208 19.57469167681241 -1 0 0 I I #
coedge $-1 $191 $285 $193 $304 reversed $113 $-1 #
vertex $-1 $296 $410 #
straight-curve $-1 0 -52.947764318189208 19.57469167681241 1 0 0 I I #
edge $-1 $196 -19.57469167681241 $293 19.57469167681241 $193 $411 forward 7 unknown #
edge $-1 $197 -19.57469167681241 $292 19.57469167681241 $194 $412 forward 7 unknown #
point $-1 79.426252021851255 -52.947764318189208 19.57469167681241 #
point $-1 79.426252021851255 52.947764318189208 19.57469167681241 #
face $-1 $-1 $413 $28 $-1 $414 reversed single #
loop $-1 $-1 $209 $199 #
plane-surface $-1 0 -52.947764318189208 0 0 1 0 0 0 1 forward_v I I I I #
coedge $-1 $415 $202 $315 $416 forward $121 $-1 #
coedge $-1 $202 $415 $417 $418 forward $121 $-1 #
edge $-1 $419 -79.426252021851255 $316 79.426252021851255 $202 $420 forward 7 unknown #
coedge $-1 $204 $203 $421 $422 reversed $77 $-1 #
coedge $-1 $205 $211 $311 $416 reversed $200 $-1 #
vertex $-1 $416 $423 #
straight-curve $-1 79.426252021851255 -37.569752243520433 -8.3011878373993966 0 0 1 I I #
coedge $-1 $421 $424 $207 $319 forward $413 $-1 #
edge $-1 $324 -30.318385177761797 $320 -14.940373103093023 $318 $425 forward 7 unknown #
vertex $-1 $319 $426 #
straight-curve $-1 0 -37.569752243520433 -13.630059672785176 -1 0 0 I I #
coedge $-1 $427 $209 $424 $428 forward $309 $-1 #
coedge $-1 $209 $427 $211 $326 reversed $309 $-1 #
vertex $-1 $428 $429 #
straight-curve $-1 0 -52.947764318189208 -13.630059672785176 -1 0 0 I I #
edge $-1 $213 13.630059672785176 $430 19.57469167681241 $211 $431 forward 7 unknown #
point $-1 79.426252021851255 -37.569752243520433 -13.630059672785176 #
point $-1 79.426252021851255 -52.947764318189208 -13.630059672785176 #
plane-surface $-1 79.426252021851255 0 0 -1 0 0 0 0 1 forward_v I I I I #
coedge $-1 $432 $433 $220 $334 forward $216 $-1 #
coedge $-1 $218 $338 $432 $434 forward $129 $-1 #
coedge $-1 $220 $219 $218 $333 reversed $81 $-1 #
edge $-1 $435 -29.704371578485368 $339 -16.782413900922297 $218 $436 forward 7 unknown #
edge $-1 $336 -96.598000854969797 $435 -82.695397204430421 $330 $437 forward 7 unknown #
coedge $-1 $226 $221 $433 $438 reversed $227 $-1 #
vertex $-1 $222 $439 #
straight-curve $-1 79.426252021851255 23.243392739703832 7.6578343240229998 0 1 0 I I #
coedge $-1 $331 $223 $226 $342 forward $129 $-1 #
vertex $-1 $224 $440 #
straight-curve $-1 66.887169780694677 40.025806640626129 19.574691676812407 1 0 0 I I #
straight-curve $-1 -2.3888337841127907 40.025806640626129 143.82100766952516 -0.51503806187062418 0 0.85716730853699208 I I #
edge $-1 $228 40.025806640626129 $441 52.947764318189208 $226 $442 forward 7 unknown #
point $-1 79.426252021851255 40.025806640626129 19.57469167681241 #
point $-1 79.426252021851255 40.025806640626129 7.657834324023014 #
edge $-1 $443 1 $443 0 $231 $-1 forward 7 unknown #
vertex $-1 $232 $444 #
ellipse-curve $-1 70.766159789395644 43.717794548501296 10.563946913053728 0.85716730853699208 0 0.51503806187062418 0.77255709280593621 0 -1.2857509628054882 1 I I #
point $-1 76.618624095092557 43.717794548501296 12.33051203761225 #
edge $-1 $445 1 $445 0 $235 $-1 forward 7 unknown #
vertex $-1 $236 $446 #
ellipse-curve $-1 70.766159789395644 49.255776410314034 10.563946913053728 0.85716730853699208 0 0.51503806187062418 0.77255709280593621 0 -1.2857509628054882 1 I I #
point $-1 76.618624095092557 49.255776410314034 12.33051203761225 #
plane-surface $-1 0 0 19.57469167681241 0 0 1 1 0 0 forward_v I I I I #
coedge $-1 $364 $363 $356 $447 forward $240 $-1 #
coedge $-1 $356 $242 $244 $360 reversed $151 $-1 #
coedge $-1 $242 $355 $354 $447 reversed $151 $-1 #
coedge $-1 $250 $245 $242 $358 forward $251 $-1 #
edge $-1 $361 -33.672174082847761 $448 -18.375558067419135 $357 $449 forward 7 unknown #
coedge $-1 $244 $243 $364 $450 reversed $95 $-1 #
edge $-1 $451 0 $361 22.42910996561551 $355 $452 forward 7 unknown #
vertex $-1 $246 $453 #
straight-curve $-1 -64.129636006422629 -0.36389712989759815 19.57469167681241 0 1 0 I I #
coedge $-1 $354 $247 $250 $368 reversed $240 $-1 #
coedge $-1 $247 $354 $359 $450 forward $240 $-1 #
vertex $-1 $248 $454 #
straight-curve $-1 -79.426252021851255 -9.1445945569247797 55.75411236791593 0 0 1 I I #
straight-curve $-1 -79.426252021851255 -9.1445945569247797 3.1710788940683159 -0.68199835119979291 0 -0.73135370988377701 I I #
edge $-1 $448 -7.6890060373343871 $252 9.1445945569247797 $363 $455 forward 7 unknown #
point $-1 -79.426252021851255 -9.1445945569247797 19.57469167681241 #
point $-1 -64.129636006422629 -9.1445945569247797 19.57469167681241 #
edge $-1 $456 1 $456 0 $255 $-1 forward 7 unknown #
vertex $-1 $256 $457 #
ellipse-curve $-1 -70.551748621310637 -0.7277942597951963 10.22943961085806 -0.73135370988377701 0 0.68199835119979291 1.0229975267996894 0 1.0970305648256655 1 I I #
point $-1 -70.754946487337264 -0.7277942597951963 12.469915850266037 #
loop $-1 $-1 $265 $259 #
plane-surface $-1 0 0 19.57469167681241 0 0 1 1 0 0 forward_v I I I I #
coedge $-1 $262 $384 $380 $458 reversed $166 $-1 #
edge $-1 $382 36.179420691103516 $385 52.583033473847614 $262 $459 forward 7 unknown #
edge $-1 $385 0 $381 22.42910996561551 $263 $460 forward 7 unknown #
coedge $-1 $387 $265 $377 $458 forward $375 $-1 #
vertex $-1 $266 $461 #
vertex $-1 $458 $462 #
straight-curve $-1 -97.80181008927039 24.522606631593554 19.574691676812407 -1 0 0 I I #
coedge $-1 $377 $268 $273 $390 forward $166 $-1 #
vertex $-1 $378 $463 #
straight-curve $-1 -79.426252021851255 -0.36389712989759815 3.1710788940683088 0 -1 0 I I #
coedge $-1 $270 $380 $272 $389 forward $375 $-1 #
straight-curve $-1 -64.129636006422629 -0.36389712989759815 19.57469167681241 0 1 0 I I #
edge $-1 $464 18.375558067419135 $275 33.672174082847761 $387 $465 forward 7 unknown #
edge $-1 $274 -52.583033473847614 $464 -36.179420691103516 $384 $466 forward 7 unknown #
point $-1 -79.426252021851255 7.6890060373343871 3.1710788940683159 #
point $-1 -64.129636006422629 7.6890060373343871 19.57469167681241 #
edge $-1 $467 1 $467 0 $277 $-1 forward 7 unknown #
vertex $-1 $278 $468 #
ellipse-curve $-1 -70.551748621310637 16.105806334463971 10.22943961085806 -0.73135370988377701 0 0.68199835119979291 1.0229975267996894 0 1.0970305648256655 1 I I #
point $-1 -70.754946487337264 16.105806334463971 12.469915850266037 #
plane-surface $-1 79.426252021851255 0 0 -1 0 0 0 0 1 forward_v I I I I #
coedge $-1 $286 $284 $288 $402 reversed $181 $-1 #
edge $-1 $299 -19.57469167681241 $404 19.57469167681241 $298 $469 forward 7 unknown #
vertex $-1 $402 $470 #
straight-curve $-1 -79.426252021851255 -52.947764318189208 0 0 0 -1 I I #
edge $-1 $400 -52.947764318189208 $404 52.947764318189208 $398 $471 forward 7 unknown #
straight-curve $-1 0 -52.947764318189208 -19.57469167681241 -1 0 0 I I #
vertex $-1 $291 $472 #
straight-curve $-1 0 52.947764318189208 -19.57469167681241 1 0 0 I I #
point $-1 79.426252021851255 52.947764318189208 -19.57469167681241 #
point $-1 79.426252021851255 -52.947764318189208 -19.57469167681241 #
straight-curve $-1 -79.426252021851255 0 19.57469167681241 0 -1 0 I I #
point $-1 -79.426252021851255 52.947764318189208 19.57469167681241 #
point $-1 -79.426252021851255 -52.947764318189208 19.57469167681241 #
straight-curve $-1 79.426252021851255 -52.947764318189208 0 0 0 -1 I I #
straight-curve $-1 79.426252021851255 52.947764318189208 0 0 0 -1 I I #
loop $-1 $-1 $421 $308 #
plane-surface $-1 -79.426252021851255 0 0 1 0 0 0 0 -1 forward_v I I I I #
coedge $-1 $312 $311 $427 $473 forward $121 $-1 #
edge $-1 $316 37.569752243520433 $430 52.947764318189208 $315 $474 forward 7 unknown #
coedge $-1 $424 $421 $312 $418 reversed $413 $-1 #
edge $-1 $475 -52.947764318189208 $419 -37.569752243520433 $417 $476 forward 7 unknown #
vertex $-1 $422 $477 #
straight-curve $-1 0 -37.569752243520433 -19.57469167681241 1 0 0 I I #
coedge $-1 $417 $318 $314 $422 forward $413 $-1 #
edge $-1 $320 5.3288718353857796 $419 11.273503839413014 $421 $478 forward 7 unknown #
point $-1 79.426252021851255 -37.569752243520433 -19.57469167681241 #
coedge $-1 $318 $417 $322 $428 reversed $413 $-1 #
straight-curve $-1 -79.426252021851255 -22.62937914042741 -13.630059672785176 0 1 0 I I #
point $-1 -79.426252021851255 -37.569752243520433 -13.630059672785176 #
coedge $-1 $323 $322 $415 $473 reversed $309 $-1 #
edge $-1 $324 13.630059672785176 $475 19.57469167681241 $424 $479 forward 7 unknown #
point $-1 -79.426252021851255 -52.947764318189208 -13.630059672785176 #
vertex $-1 $326 $480 #
straight-curve $-1 79.426252021851255 -52.947764318189208 0 0 0 -1 I I #
coedge $-1 $433 $330 $331 $434 reversed $216 $-1 #
coedge $-1 $330 $432 $335 $438 forward $216 $-1 #
edge $-1 $441 -79.426252021851255 $435 -72.265881982721993 $432 $481 forward 7 unknown #
vertex $-1 $333 $482 #
straight-curve $-1 72.265881982721993 23.243392739703832 19.574691676812392 0 -1 0 I I #
straight-curve $-1 29.674604880930715 52.947764318189208 90.458482726931507 -0.51503806187062429 0 0.85716730853699219 I I #
edge $-1 $441 -19.57469167681241 $336 -7.6578343240229829 $335 $483 forward 7 unknown #
point $-1 79.426252021851255 52.947764318189208 7.6578343240229829 #
point $-1 72.265881982721993 40.025806640626129 19.574691676812392 #
vertex $-1 $342 $484 #
straight-curve $-1 79.426252021851255 0 19.57469167681241 0 1 0 I I #
vertex $-1 $345 $485 #
point $-1 71.538716882201584 43.717794548501296 9.2781959502482394 #
vertex $-1 $349 $486 #
point $-1 71.538716882201584 49.255776410314034 9.2781959502482394 #
edge $-1 $448 36.179420691103516 $451 52.583033473847614 $354 $487 forward 7 unknown #
vertex $-1 $368 $488 #
straight-curve $-1 -97.80181008927039 7.6890060373343871 19.574691676812407 -1 0 0 I I #
edge $-1 $451 -8.0529031672319853 $365 8.7806974270271816 $364 $489 forward 7 unknown #
vertex $-1 $450 $490 #
straight-curve $-1 -79.426252021851255 7.6890060373343871 3.1710788940683159 0.68199835119979291 0 0.73135370988377701 I I #
point $-1 -64.129636006422629 7.6890060373343871 19.57469167681241 #
point $-1 -79.426252021851255 -9.1445945569247797 3.1710788940683159 #
straight-curve $-1 -79.426252021851255 0 19.57469167681241 0 -1 0 I I #
vertex $-1 $371 $491 #
point $-1 -69.528751094510937 -0.7277942597951963 11.326470175683726 #
edge $-1 $382 -24.522606631593554 $464 -7.6890060373343871 $377 $492 forward 7 unknown #
straight-curve $-1 -79.426252021851255 24.522606631593554 55.75411236791593 0 0 -1 I I #
straight-curve $-1 -79.426252021851255 24.522606631593554 3.1710788940683159 0.68199835119979291 0 0.73135370988377701 I I #
point $-1 -64.129636006422629 24.522606631593554 19.57469167681241 #
point $-1 -79.426252021851255 24.522606631593554 19.57469167681241 #
point $-1 -79.426252021851255 24.522606631593554 3.1710788940683159 #
vertex $-1 $390 $493 #
straight-curve $-1 -97.80181008927039 7.6890060373343871 19.574691676812407 1 0 0 I I #
straight-curve $-1 -79.426252021851255 7.6890060373343871 55.75411236791593 0 0 1 I I #
vertex $-1 $393 $494 #
point $-1 -69.528751094510937 16.105806334463971 11.326470175683726 #
straight-curve $-1 -79.426252021851255 52.947764318189208 0 0 0 -1 I I #
point $-1 -79.426252021851255 -52.947764318189208 -19.57469167681241 #
straight-curve $-1 -79.426252021851255 0 -19.57469167681241 0 1 0 I I #
point $-1 -79.426252021851255 52.947764318189208 -19.57469167681241 #
edge $-1 $430 -79.426252021851255 $475 79.426252021851255 $427 $495 forward 7 unknown #
straight-curve $-1 79.426252021851255 0 -19.57469167681241 0 -1 0 I I #
vertex $-1 $418 $496 #
straight-curve $-1 -79.426252021851255 0 -19.57469167681241 0 1 0 I I #
point $-1 -79.426252021851255 -37.569752243520433 -19.57469167681241 #
straight-curve $-1 -79.426252021851255 -37.569752243520433 -8.3011878373993966 0 0 -1 I I #
straight-curve $-1 -79.426252021851255 -52.947764318189208 0 0 0 -1 I I #
point $-1 79.426252021851255 -52.947764318189208 -19.57469167681241 #
straight-curve $-1 0 52.947764318189208 19.57469167681241 -1 0 0 I I #
point $-1 72.265881982721993 52.947764318189201 19.574691676812392 #
straight-curve $-1 79.426252021851255 52.947764318189208 0 0 0 -1 I I #
point $-1 79.426252021851255 52.947764318189208 19.57469167681241 #
point $-1 69.480408826590164 43.717794548501296 9.791389820247792 #
point $-1 69.480408826590164 49.255776410314034 9.791389820247792 #
straight-curve $-1 -79.426252021851255 7.6890060373343871 55.75411236791593 0 0 -1 I I #
point $-1 -79.426252021851255 7.6890060373343871 19.57469167681241 #
straight-curve $-1 -79.426252021851255 -0.36389712989759815 3.1710788940683088 0 -1 0 I I #
point $-1 -79.426252021851255 7.6890060373343871 3.1710788940683159 #
point $-1 -69.454718056484964 -0.7277942597951963 9.2064420840583718 #
straight-curve $-1 -79.426252021851255 0 19.57469167681241 0 -1 0 I I #
point $-1 -79.426252021851255 7.6890060373343871 19.57469167681241 #
point $-1 -69.454718056484964 16.105806334463971 9.2064420840583718 #
straight-curve $-1 0 -52.947764318189208 -19.57469167681241 -1 0 0 I I #
point $-1 -79.426252021851255 -52.947764318189208 -19.57469167681241 #
End-of-ACIS-data 