500 0 7 0           
7 Unknown 11 ACIS 5.0 NT 24 Fri Mar 26 15:48:15 1999 
-1 9.9999999999999995e-007 1e-010 
body $-1 $7 $-1 $8 #
body $-1 $9 $-1 $10 #
body $-1 $11 $-1 $12 #
body $-1 $13 $-1 $14 #
body $-1 $15 $-1 $16 #
body $-1 $17 $-1 $18 #
body $-1 $19 $-1 $20 #
lump $-1 $-1 $21 $0 #
transform $-1 1 0 0 0 1 0 0 0 1 46.502883999145482 21.023725790781619 8.3458423290557882 1 rotate no_reflect no_shear #
lump $-1 $-1 $22 $1 #
transform $-1 1 0 0 0 1 0 0 0 1 46.502883999145482 21.023725790781619 8.3458423290557882 1 rotate no_reflect no_shear #
lump $-1 $-1 $23 $2 #
transform $-1 1 0 0 0 1 0 0 0 1 46.502883999145482 21.023725790781619 8.3458423290557882 1 rotate no_reflect no_shear #
lump $-1 $-1 $24 $3 #
transform $-1 1 0 0 0 1 0 0 0 1 46.502883999145482 21.023725790781619 8.3458423290557882 1 rotate no_reflect no_shear #
lump $-1 $-1 $25 $4 #
transform $-1 1 0 0 0 1 0 0 0 1 46.502883999145482 21.023725790781619 8.3458423290557882 1 rotate no_reflect no_shear #
lump $-1 $-1 $26 $5 #
transform $-1 1 0 0 0 1 0 0 0 1 46.502883999145482 21.023725790781619 8.3458423290557882 1 rotate no_reflect no_shear #
lump $-1 $-1 $27 $6 #
transform $-1 1 0 0 0 1 0 0 0 1 46.502883999145482 21.023725790781619 8.3458423290557882 1 rotate no_reflect no_shear #
shell $-1 $-1 $-1 $28 $-1 $7 #
shell $-1 $-1 $-1 $29 $-1 $9 #
shell $-1 $-1 $-1 $30 $-1 $11 #
shell $-1 $-1 $-1 $31 $-1 $13 #
shell $-1 $-1 $-1 $32 $-1 $15 #
shell $-1 $-1 $-1 $33 $-1 $17 #
shell $-1 $-1 $-1 $34 $-1 $19 #
face $-1 $35 $36 $21 $-1 $37 forward single #
face $-1 $38 $39 $22 $-1 $40 forward single #
face $-1 $41 $42 $23 $-1 $43 reversed single #
face $-1 $44 $45 $24 $-1 $46 forward single #
face $-1 $47 $48 $25 $-1 $49 reversed single #
face $-1 $50 $51 $26 $-1 $52 forward single #
face $-1 $53 $54 $27 $-1 $55 forward single #
face $-1 $56 $57 $21 $-1 $58 reversed single #
loop $-1 $-1 $59 $28 #
plane-surface $-1 0 0 8.3458423290557882 0 0 1 1 0 0 forward_v I I I I #
face $-1 $60 $61 $22 $-1 $62 forward single #
loop $-1 $-1 $63 $29 #
plane-surface $-1 0 -21.023725790781619 0 0 1 0 0 0 1 forward_v I I I I #
face $-1 $64 $65 $23 $-1 $66 reversed single #
loop $-1 $-1 $67 $30 #
plane-surface $-1 -97.157456396242324 -8.4105680355512771 81.875781260882206 0 1 0 -0.54463904215088732 0 0.83867056331134215 forward_v I I I I #
face $-1 $68 $69 $24 $-1 $70 forward single #
loop $-1 $71 $72 $31 #
cone-surface $-1 -42.41201558178458 -4.8233446396398492 5.1119182475766642 0.54463904215088732 0 -0.83867056331134215 0.83867056331134215 0 0.54463904215088732 1 I I 0 1 1 forward I I I I #
face $-1 $73 $74 $25 $-1 $75 reversed single #
loop $-1 $-1 $76 $32 #
plane-surface $-1 30.473408287751269 12.960197553414314 134.69208285284557 0 1 0 0.61566148304635926 0 0.78801074757464917 forward_v I I I I #
face $-1 $77 $78 $26 $-1 $79 forward single #
loop $-1 $80 $81 $33 #
cone-surface $-1 43.272662024772586 15.264062764090689 5.5527494153826193 -0.61566148304635926 0 -0.78801074757464917 0.39400537378732459 0 -0.30783074152317963 1 I I 0 1 0.5 forward I I I I #
face $-1 $82 $83 $27 $-1 $84 forward single #
loop $-1 $85 $86 $34 #
cone-surface $-1 43.272662024772586 18.719860580105248 5.5527494153826193 -0.61566148304635926 0 -0.78801074757464917 0.39400537378732459 0 -0.30783074152317963 1 I I 0 1 0.5 forward I I I I #
face $-1 $87 $88 $21 $-1 $89 reversed single #
loop $-1 $-1 $90 $35 #
plane-surface $-1 0 0 -8.3458423290557882 0 0 1 1 0 0 forward_v I I I I #
coedge $-1 $91 $92 $93 $94 forward $36 $-1 #
face $-1 $95 $96 $22 $-1 $97 reversed single #
loop $-1 $-1 $98 $38 #
plane-surface $-1 0 0 8.3458423290557882 0 0 1 1 0 0 forward_v I I I I #
coedge $-1 $99 $100 $101 $102 forward $39 $-1 #
face $-1 $103 $104 $23 $-1 $105 reversed single #
loop $-1 $-1 $106 $41 #
plane-surface $-1 -46.502883999145482 -4.8233446396398492 3.8745814225515289 -0.54463904215088732 0 0.83867056331134215 0.83867056331134215 0 0.54463904215088732 forward_v I I I I #
coedge $-1 $107 $108 $109 $110 reversed $42 $-1 #
face $-1 $-1 $111 $24 $-1 $112 forward single #
loop $-1 $113 $114 $44 #
cone-surface $-1 -41.491396586221633 -4.8233446396398492 3.6942893376939985 0.54463904215088732 0 -0.83867056331134215 0.41933528165567108 0 0.27231952107544366 1 I I -0.70710678118654746 0.70710678118654746 0.5 forward I I I I #
loop $-1 $-1 $115 $31 #
coedge $-1 $72 $72 $116 $117 reversed $45 $-1 #
face $-1 $118 $119 $25 $-1 $120 forward single #
loop $-1 $-1 $121 $47 #
plane-surface $-1 -26.786660769942166 16.991961672097965 61.402538083757932 0.61566148304635926 0 0.78801074757464917 0.78801074757464917 0 -0.61566148304635926 forward_v I I I I #
coedge $-1 $122 $123 $124 $125 reversed $48 $-1 #
face $-1 $-1 $126 $26 $-1 $127 forward single #
loop $-1 $128 $129 $50 #
cone-surface $-1 42.578560868385736 15.264062764090689 4.6643404663114261 -0.61566148304635926 0 -0.78801074757464917 0.19700268689366229 0 -0.15391537076158981 1 I I -0.70710678118654746 0.70710678118654746 0.25 forward I I I I #
loop $-1 $-1 $130 $33 #
coedge $-1 $81 $81 $131 $132 reversed $51 $-1 #
face $-1 $-1 $133 $27 $-1 $134 forward single #
loop $-1 $135 $136 $53 #
cone-surface $-1 42.578560868385736 18.719860580105248 4.6643404663114261 -0.61566148304635926 0 -0.78801074757464917 0.19700268689366229 0 -0.15391537076158981 1 I I -0.70710678118654746 0.70710678118654746 0.25 forward I I I I #
loop $-1 $-1 $137 $34 #
coedge $-1 $86 $86 $138 $139 reversed $54 $-1 #
face $-1 $140 $141 $21 $-1 $142 reversed single #
loop $-1 $-1 $143 $56 #
plane-surface $-1 0 -21.023725790781619 0 0 1 0 0 0 1 forward_v I I I I #
coedge $-1 $144 $145 $146 $147 forward $57 $-1 #
coedge $-1 $148 $59 $149 $150 forward $36 $-1 #
coedge $-1 $59 $148 $151 $152 forward $36 $-1 #
coedge $-1 $153 $154 $59 $94 reversed $155 $-1 #
edge $-1 $156 -21.023725790781619 $157 21.023725790781619 $93 $158 forward 7 unknown #
face $-1 $159 $160 $22 $-1 $161 reversed single #
loop $-1 $-1 $162 $60 #
plane-surface $-1 -46.502883999145482 0 0 1 0 0 0 0 -1 forward_v I I I I #
coedge $-1 $163 $164 $100 $165 forward $61 $-1 #
coedge $-1 $166 $63 $167 $168 reversed $39 $-1 #
coedge $-1 $63 $166 $98 $165 reversed $39 $-1 #
coedge $-1 $169 $170 $63 $102 reversed $171 $-1 #
edge $-1 $172 -8.3458423290557882 $173 8.3458423290557882 $101 $174 forward 7 unknown #
face $-1 $175 $176 $23 $-1 $177 reversed single #
loop $-1 $-1 $178 $64 #
plane-surface $-1 -97.157456396242324 -1.2361212437284212 81.875781260882206 0 -1 0 0.54463904215088732 0 -0.83867056331134215 forward_v I I I I #
coedge $-1 $179 $180 $181 $182 reversed $65 $-1 #
coedge $-1 $108 $67 $183 $184 reversed $42 $-1 #
coedge $-1 $67 $107 $179 $185 reversed $42 $-1 #
coedge $-1 $181 $186 $67 $110 forward $187 $-1 #
edge $-1 $188 2.0758441989756804 $189 8.9609820847224526 $109 $190 forward 7 unknown #
loop $-1 $-1 $116 $68 #
plane-surface $-1 -46.502883999145482 -4.8233446396398492 3.8745814225515289 -0.54463904215088732 0 0.83867056331134215 0.83867056331134215 0 0.54463904215088732 forward_v I I I I #
loop $-1 $-1 $191 $44 #
coedge $-1 $114 $114 $115 $192 reversed $69 $-1 #
coedge $-1 $115 $115 $114 $192 forward $71 $-1 #
coedge $-1 $116 $116 $72 $117 forward $111 $-1 #
edge $-1 $193 0 $193 6.2831853071796004 $116 $194 forward 7 unknown #
face $-1 $195 $196 $25 $-1 $197 reversed single #
loop $-1 $-1 $198 $73 #
plane-surface $-1 0 0 8.3458423290557882 0 0 1 1 0 0 forward_v I I I I #
coedge $-1 $199 $200 $201 $202 reversed $74 $-1 #
coedge $-1 $123 $76 $203 $204 reversed $48 $-1 #
coedge $-1 $76 $122 $199 $205 reversed $48 $-1 #
coedge $-1 $201 $206 $76 $125 forward $207 $-1 #
edge $-1 $208 59.000199097367002 $209 63.203572400358297 $124 $210 forward 7 unknown #
loop $-1 $-1 $131 $77 #
plane-surface $-1 -26.786660769942166 16.991961672097965 61.402538083757932 0.61566148304635926 0 0.78801074757464917 0.78801074757464917 0 -0.61566148304635926 forward_v I I I I #
loop $-1 $-1 $211 $50 #
coedge $-1 $129 $129 $130 $212 reversed $78 $-1 #
coedge $-1 $130 $130 $129 $212 forward $80 $-1 #
coedge $-1 $131 $131 $81 $132 forward $126 $-1 #
edge $-1 $213 0 $213 6.2831853071796004 $131 $214 forward 7 unknown #
loop $-1 $-1 $138 $82 #
plane-surface $-1 -26.786660769942166 16.991961672097965 61.402538083757932 0.61566148304635926 0 0.78801074757464917 0.78801074757464917 0 -0.61566148304635926 forward_v I I I I #
loop $-1 $-1 $215 $53 #
coedge $-1 $136 $136 $137 $216 reversed $83 $-1 #
coedge $-1 $137 $137 $136 $216 forward $85 $-1 #
coedge $-1 $138 $138 $86 $139 forward $133 $-1 #
edge $-1 $217 0 $217 6.2831853071796004 $138 $218 forward 7 unknown #
face $-1 $219 $220 $21 $-1 $221 reversed single #
loop $-1 $-1 $222 $87 #
plane-surface $-1 -46.502883999145482 0 0 1 0 0 0 0 -1 forward_v I I I I #
coedge $-1 $223 $151 $224 $225 forward $88 $-1 #
coedge $-1 $226 $90 $223 $227 forward $57 $-1 #
coedge $-1 $90 $226 $228 $229 forward $57 $-1 #
coedge $-1 $154 $153 $90 $147 reversed $155 $-1 #
edge $-1 $230 -21.023725790781619 $231 21.023725790781619 $146 $232 forward 7 unknown #
coedge $-1 $92 $91 $233 $234 forward $36 $-1 #
coedge $-1 $235 $236 $91 $150 reversed $220 $-1 #
edge $-1 $157 -46.502883999145482 $237 46.502883999145482 $149 $238 forward 7 unknown #
coedge $-1 $143 $239 $92 $152 reversed $88 $-1 #
edge $-1 $240 -46.502883999145482 $156 46.502883999145482 $151 $241 forward 7 unknown #
coedge $-1 $146 $93 $239 $242 forward $155 $-1 #
coedge $-1 $93 $146 $235 $243 reversed $155 $-1 #
loop $-1 $-1 $153 $219 #
vertex $-1 $94 $244 #
vertex $-1 $94 $245 #
straight-curve $-1 46.502883999145482 0 8.3458423290557882 0 1 0 I I #
face $-1 $246 $171 $22 $-1 $247 reversed single #
loop $-1 $-1 $248 $95 #
plane-surface $-1 -44.760997921561952 -27.933462783540065 0 0 1 0 0 0 1 forward_v I I I I #
coedge $-1 $249 $250 $166 $251 forward $96 $-1 #
coedge $-1 $252 $98 $250 $253 forward $61 $-1 #
coedge $-1 $98 $252 $169 $254 forward $61 $-1 #
edge $-1 $172 43.019111843978422 $255 46.502883999145482 $98 $256 forward 7 unknown #
coedge $-1 $100 $99 $162 $251 reversed $39 $-1 #
coedge $-1 $257 $258 $99 $168 forward $259 $-1 #
edge $-1 $260 -46.502883999145482 $173 -43.019111843978422 $167 $261 forward 7 unknown #
coedge $-1 $262 $101 $164 $254 reversed $171 $-1 #
coedge $-1 $101 $262 $257 $263 reversed $171 $-1 #
loop $-1 $-1 $262 $159 #
vertex $-1 $165 $264 #
vertex $-1 $263 $265 #
straight-curve $-1 -43.019111843978422 -21.023725790781619 0 0 0 -1 I I #
face $-1 $-1 $187 $23 $-1 $266 forward single #
loop $-1 $-1 $267 $103 #
plane-surface $-1 -46.502883999145482 0 0 1 0 0 0 0 -1 forward_v I I I I #
coedge $-1 $268 $269 $270 $271 reversed $104 $-1 #
coedge $-1 $272 $106 $108 $185 forward $65 $-1 #
coedge $-1 $106 $272 $268 $273 forward $65 $-1 #
coedge $-1 $270 $109 $106 $182 forward $187 $-1 #
edge $-1 $189 -5.9988957157313525 $274 1.1755510760915033 $181 $275 forward 7 unknown #
coedge $-1 $276 $277 $107 $184 forward $176 $-1 #
edge $-1 $278 -37.063309207889574 $188 -32.592048301385319 $183 $279 forward 7 unknown #
edge $-1 $189 -8.2095857264406966 $278 0 $108 $280 forward 7 unknown #
coedge $-1 $109 $270 $276 $281 forward $187 $-1 #
loop $-1 $-1 $270 $175 #
vertex $-1 $184 $282 #
vertex $-1 $110 $283 #
straight-curve $-1 -48.578728198121162 -8.4105680355512771 8.3458423290557846 1 0 0 I I #
coedge $-1 $191 $191 $-1 $284 reversed $113 $-1 #
edge $-1 $285 0 $285 6.2831853071796004 $114 $286 forward 7 unknown #
vertex $-1 $117 $287 #
ellipse-curve $-1 -43.060315056272088 -4.8233446396398492 6.1102118758036621 -0.54463904215088732 0 0.83867056331134215 0.83867056331134215 0 0.54463904215088732 1 I I #
face $-1 $-1 $207 $25 $-1 $288 reversed single #
loop $-1 $-1 $289 $118 #
plane-surface $-1 0 21.023725790781619 0 0 -1 0 0 0 -1 forward_v I I I I #
coedge $-1 $203 $290 $291 $292 forward $119 $-1 #
coedge $-1 $291 $121 $123 $205 forward $74 $-1 #
coedge $-1 $121 $291 $289 $293 reversed $74 $-1 #
coedge $-1 $294 $124 $121 $202 forward $207 $-1 #
edge $-1 $209 4.464216717365332 $295 12.527744954732636 $201 $296 forward 7 unknown #
coedge $-1 $297 $198 $122 $204 forward $119 $-1 #
edge $-1 $298 25.886107477774573 $208 31.266179855269847 $203 $299 forward 7 unknown #
edge $-1 $209 -93.005767998290963 $298 -86.178358100578095 $123 $300 forward 7 unknown #
coedge $-1 $124 $294 $297 $301 reversed $207 $-1 #
loop $-1 $-1 $201 $195 #
vertex $-1 $301 $302 #
vertex $-1 $125 $303 #
straight-curve $-1 46.502883999145482 12.960197553414314 67.346041426422786 0 0 -1 I I #
coedge $-1 $211 $211 $-1 $304 reversed $128 $-1 #
edge $-1 $305 0 $305 6.2831853071796004 $129 $306 forward 7 unknown #
vertex $-1 $132 $307 #
ellipse-curve $-1 43.812847810397841 15.264062764090689 6.2441556775601477 0.61566148304635926 0 0.78801074757464917 0.39400537378732459 0 -0.30783074152317963 1 I I #
coedge $-1 $215 $215 $-1 $308 reversed $135 $-1 #
edge $-1 $309 0 $309 6.2831853071796004 $136 $310 forward 7 unknown #
vertex $-1 $139 $311 #
ellipse-curve $-1 43.812847810397841 18.719860580105248 6.2441556775601477 0.61566148304635926 0 0.78801074757464917 0.39400537378732459 0 -0.30783074152317963 1 I I #
face $-1 $-1 $155 $21 $-1 $312 reversed single #
loop $-1 $-1 $235 $140 #
plane-surface $-1 0 21.023725790781619 0 0 -1 0 0 0 -1 forward_v I I I I #
coedge $-1 $313 $233 $236 $314 forward $141 $-1 #
coedge $-1 $239 $143 $144 $227 reversed $88 $-1 #
coedge $-1 $233 $313 $143 $225 reversed $141 $-1 #
edge $-1 $240 -8.3458423290557882 $315 8.3458423290557882 $224 $316 forward 7 unknown #
coedge $-1 $145 $144 $313 $317 forward $57 $-1 #
edge $-1 $231 -46.502883999145482 $315 46.502883999145482 $223 $318 forward 7 unknown #
coedge $-1 $236 $235 $145 $229 reversed $220 $-1 #
edge $-1 $319 -46.502883999145482 $230 46.502883999145482 $228 $320 forward 7 unknown #
vertex $-1 $147 $321 #
vertex $-1 $242 $322 #
straight-curve $-1 46.502883999145482 0 -8.3458423290557882 0 -1 0 I I #
coedge $-1 $222 $224 $148 $234 reversed $141 $-1 #
edge $-1 $237 -21.023725790781619 $240 21.023725790781619 $233 $323 forward 7 unknown #
coedge $-1 $228 $149 $154 $243 forward $220 $-1 #
coedge $-1 $149 $228 $222 $314 reversed $220 $-1 #
vertex $-1 $150 $324 #
straight-curve $-1 0 21.023725790781619 8.3458423290557882 -1 0 0 I I #
coedge $-1 $151 $223 $153 $242 reversed $88 $-1 #
vertex $-1 $234 $325 #
straight-curve $-1 0 -21.023725790781619 8.3458423290557882 1 0 0 I I #
edge $-1 $156 -8.3458423290557882 $231 8.3458423290557882 $153 $326 forward 7 unknown #
edge $-1 $157 -8.3458423290557882 $230 8.3458423290557882 $154 $327 forward 7 unknown #
point $-1 46.502883999145482 -21.023725790781619 8.3458423290557882 #
point $-1 46.502883999145482 21.023725790781619 8.3458423290557882 #
face $-1 $-1 $259 $22 $-1 $328 reversed single #
plane-surface $-1 -43.019111843978422 -24.478594287160842 0 -1 0 0 0 0 1 forward_v I I I I #
coedge $-1 $329 $330 $331 $332 forward $160 $-1 #
coedge $-1 $331 $162 $258 $333 reversed $96 $-1 #
coedge $-1 $162 $331 $163 $253 reversed $96 $-1 #
edge $-1 $255 -8.3458423290557882 $260 8.3458423290557882 $162 $334 forward 7 unknown #
coedge $-1 $164 $163 $330 $335 forward $61 $-1 #
edge $-1 $255 21.023725790781619 $336 27.933462783540065 $250 $337 forward 7 unknown #
edge $-1 $338 -3.4548684963792233 $172 3.4548684963792233 $169 $339 forward 7 unknown #
vertex $-1 $253 $340 #
straight-curve $-1 0 -21.023725790781619 8.3458423290557882 -1 0 0 I I #
coedge $-1 $341 $167 $170 $263 forward $259 $-1 #
coedge $-1 $167 $341 $249 $333 forward $259 $-1 #
loop $-1 $-1 $167 $246 #
vertex $-1 $251 $342 #
straight-curve $-1 0 -21.023725790781619 -8.3458423290557882 1 0 0 I I #
coedge $-1 $170 $169 $343 $344 forward $171 $-1 #
edge $-1 $173 -3.4548684963792233 $345 3.4548684963792233 $170 $346 forward 7 unknown #
point $-1 -43.019111843978422 -21.023725790781619 8.3458423290557882 #
point $-1 -43.019111843978422 -21.023725790781619 -8.3458423290557882 #
plane-surface $-1 0 0 8.3458423290557882 0 0 1 1 0 0 forward_v I I I I #
coedge $-1 $277 $276 $269 $347 forward $176 $-1 #
coedge $-1 $269 $178 $180 $273 reversed $104 $-1 #
coedge $-1 $178 $268 $267 $347 reversed $104 $-1 #
coedge $-1 $186 $181 $178 $271 forward $187 $-1 #
edge $-1 $274 -8.9609820847224526 $348 -2.0758441989756804 $270 $349 forward 7 unknown #
coedge $-1 $180 $179 $277 $350 reversed $65 $-1 #
edge $-1 $351 0 $274 8.2095857264406966 $268 $352 forward 7 unknown #
vertex $-1 $182 $353 #
straight-curve $-1 -39.617746113398709 -2.4116723198199246 8.3458423290557882 0 1 0 I I #
coedge $-1 $267 $183 $186 $281 reversed $176 $-1 #
coedge $-1 $183 $267 $272 $350 forward $176 $-1 #
vertex $-1 $184 $354 #
straight-curve $-1 -46.502883999145482 -8.4105680355512771 40.937890630441103 0 0 1 I I #
straight-curve $-1 -46.502883999145482 -8.4105680355512771 3.8745814225515289 -0.83867056331134215 0 -0.54463904215088732 I I #
edge $-1 $348 1.2361212437284212 $188 8.4105680355512771 $276 $355 forward 7 unknown #
point $-1 -46.502883999145482 -8.4105680355512771 8.3458423290557882 #
point $-1 -39.617746113398709 -8.4105680355512771 8.3458423290557882 #
edge $-1 $356 1 $356 0 $191 $-1 forward 7 unknown #
vertex $-1 $192 $357 #
ellipse-curve $-1 -41.763716107297078 -4.8233446396398492 4.1136246193496699 -0.54463904215088732 0 0.83867056331134215 0.83867056331134215 0 0.54463904215088732 1 I I #
point $-1 -42.221644492960749 -4.8233446396398492 6.6548509179545459 #
plane-surface $-1 46.502883999145482 0 0 -1 0 0 0 0 1 forward_v I I I I #
coedge $-1 $358 $359 $200 $293 forward $196 $-1 #
coedge $-1 $198 $297 $358 $360 forward $119 $-1 #
coedge $-1 $200 $199 $198 $292 reversed $74 $-1 #
edge $-1 $361 -12.527744954732633 $298 -4.464216717365332 $198 $362 forward 7 unknown #
edge $-1 $295 -63.550090879387156 $361 -56.722680981674287 $289 $363 forward 7 unknown #
coedge $-1 $206 $201 $359 $364 reversed $207 $-1 #
vertex $-1 $202 $365 #
straight-curve $-1 46.502883999145482 8.4959808360489824 4.142469026064493 0 1 0 I I #
coedge $-1 $290 $203 $206 $301 forward $119 $-1 #
vertex $-1 $204 $366 #
straight-curve $-1 15.236704143875635 12.960197553414314 8.3458423290557846 1 0 0 I I #
straight-curve $-1 -26.786660769942166 12.960197553414314 61.402538083757932 -0.78801074757464917 0 0.61566148304635926 I I #
edge $-1 $208 12.960197553414314 $367 21.023725790781619 $206 $368 forward 7 unknown #
point $-1 46.502883999145482 12.960197553414314 8.3458423290557882 #
point $-1 46.502883999145489 12.960197553414314 4.1424690260644894 #
edge $-1 $369 1 $369 0 $211 $-1 forward 7 unknown #
vertex $-1 $212 $370 #
ellipse-curve $-1 42.732476239147324 15.264062764090689 4.8613431532050884 0.61566148304635926 0 0.78801074757464917 0.39400537378732459 0 -0.30783074152317963 1 I I #
point $-1 44.206853184185164 15.264062764090689 5.9363249360369714 #
edge $-1 $371 1 $371 0 $215 $-1 forward 7 unknown #
vertex $-1 $216 $372 #
ellipse-curve $-1 42.732476239147324 18.719860580105248 4.8613431532050884 0.61566148304635926 0 0.78801074757464917 0.39400537378732459 0 -0.30783074152317963 1 I I #
point $-1 44.206853184185164 18.719860580105248 5.9363249360369714 #
plane-surface $-1 46.502883999145482 0 0 -1 0 0 0 0 1 forward_v I I I I #
coedge $-1 $224 $222 $226 $317 reversed $141 $-1 #
edge $-1 $237 -8.3458423290557882 $319 8.3458423290557882 $236 $373 forward 7 unknown #
vertex $-1 $317 $374 #
straight-curve $-1 -46.502883999145482 -21.023725790781619 0 0 0 -1 I I #
edge $-1 $315 -21.023725790781619 $319 21.023725790781619 $313 $375 forward 7 unknown #
straight-curve $-1 0 -21.023725790781619 -8.3458423290557882 -1 0 0 I I #
vertex $-1 $229 $376 #
straight-curve $-1 0 21.023725790781619 -8.3458423290557882 1 0 0 I I #
point $-1 46.502883999145482 21.023725790781619 -8.3458423290557882 #
point $-1 46.502883999145482 -21.023725790781619 -8.3458423290557882 #
straight-curve $-1 -46.502883999145482 0 8.3458423290557882 0 -1 0 I I #
point $-1 -46.502883999145482 21.023725790781619 8.3458423290557882 #
point $-1 -46.502883999145482 -21.023725790781619 8.3458423290557882 #
straight-curve $-1 46.502883999145482 -21.023725790781619 0 0 0 -1 I I #
straight-curve $-1 46.502883999145482 21.023725790781619 0 0 0 -1 I I #
plane-surface $-1 0 0 -8.3458423290557882 0 0 1 1 0 0 forward_v I I I I #
coedge $-1 $343 $248 $341 $377 reversed $160 $-1 #
coedge $-1 $248 $343 $252 $335 reversed $160 $-1 #
coedge $-1 $250 $249 $248 $332 reversed $96 $-1 #
edge $-1 $336 -8.3458423290557882 $378 8.3458423290557882 $331 $379 forward 7 unknown #
edge $-1 $378 -27.933462783540065 $260 -21.023725790781619 $249 $380 forward 7 unknown #
straight-curve $-1 -46.502883999145482 -21.023725790781619 0 0 0 -1 I I #
edge $-1 $336 -1.7418860775835299 $338 1.7418860775835299 $330 $381 forward 7 unknown #
vertex $-1 $253 $382 #
straight-curve $-1 -46.502883999145482 0 8.3458423290557882 0 -1 0 I I #
vertex $-1 $254 $383 #
straight-curve $-1 -43.019111843978422 -24.478594287160842 8.3458423290557882 0 1 0 I I #
point $-1 -46.502883999145482 -21.023725790781619 8.3458423290557882 #
coedge $-1 $258 $257 $329 $377 forward $259 $-1 #
point $-1 -46.502883999145482 -21.023725790781619 -8.3458423290557882 #
coedge $-1 $330 $329 $262 $344 reversed $160 $-1 #
edge $-1 $338 -8.3458423290557882 $345 8.3458423290557882 $262 $384 forward 7 unknown #
vertex $-1 $344 $385 #
straight-curve $-1 -43.019111843978422 -24.478594287160842 -8.3458423290557882 0 -1 0 I I #
edge $-1 $348 32.592048301385319 $351 37.063309207889574 $267 $386 forward 7 unknown #
vertex $-1 $281 $387 #
straight-curve $-1 -48.578728198121162 -1.2361212437284212 8.3458423290557846 -1 0 0 I I #
edge $-1 $351 -1.1755510760915033 $278 5.9988957157313525 $277 $388 forward 7 unknown #
vertex $-1 $350 $389 #
straight-curve $-1 -46.502883999145482 -1.2361212437284212 3.8745814225515289 0.83867056331134215 0 0.54463904215088732 I I #
point $-1 -39.617746113398709 -1.2361212437284212 8.3458423290557882 #
point $-1 -46.502883999145482 -8.4105680355512771 3.8745814225515289 #
straight-curve $-1 -46.502883999145482 0 8.3458423290557882 0 -1 0 I I #
vertex $-1 $284 $390 #
point $-1 -40.925045543985732 -4.8233446396398492 4.6582636615005573 #
coedge $-1 $359 $289 $290 $360 reversed $196 $-1 #
coedge $-1 $289 $358 $294 $364 forward $196 $-1 #
edge $-1 $367 -46.502883999145482 $361 -41.122811621650207 $358 $391 forward 7 unknown #
vertex $-1 $292 $392 #
straight-curve $-1 41.122811621650222 8.4959808360489824 8.3458423290557775 0 -1 0 I I #
straight-curve $-1 -3.5752706231572873 21.023725790781619 43.267812224598899 -0.78801074757464917 0 0.61566148304635926 I I #
edge $-1 $367 -8.3458423290557882 $295 -4.1424690260644947 $294 $393 forward 7 unknown #
point $-1 46.502883999145482 21.023725790781619 4.1424690260644947 #
point $-1 41.122811621650207 12.960197553414314 8.3458423290557846 #
vertex $-1 $301 $394 #
straight-curve $-1 46.502883999145482 0 8.3458423290557882 0 1 0 I I #
vertex $-1 $304 $395 #
point $-1 43.126481612934647 15.264062764090689 4.5535124116819086 #
vertex $-1 $308 $396 #
point $-1 43.126481612934647 18.719860580105248 4.5535124116819086 #
straight-curve $-1 -46.502883999145482 21.023725790781619 0 0 0 -1 I I #
point $-1 -46.502883999145482 -21.023725790781619 -8.3458423290557882 #
straight-curve $-1 -46.502883999145482 0 -8.3458423290557882 0 1 0 I I #
point $-1 -46.502883999145482 21.023725790781619 -8.3458423290557882 #
edge $-1 $345 -1.7418860775835299 $378 1.7418860775835299 $329 $397 forward 7 unknown #
vertex $-1 $333 $398 #
straight-curve $-1 -46.502883999145482 -27.933462783540065 0 0 0 -1 I I #
straight-curve $-1 -46.502883999145482 0 -8.3458423290557882 0 1 0 I I #
straight-curve $-1 -44.760997921561952 -27.933462783540065 8.3458423290557882 1 0 0 I I #
point $-1 -46.502883999145482 -27.933462783540065 8.3458423290557882 #
point $-1 -43.019111843978422 -27.933462783540065 8.3458423290557882 #
straight-curve $-1 -43.019111843978422 -27.933462783540065 0 0 0 -1 I I #
point $-1 -43.019111843978422 -27.933462783540065 -8.3458423290557882 #
straight-curve $-1 -46.502883999145482 -1.2361212437284212 40.937890630441103 0 0 -1 I I #
point $-1 -46.502883999145482 -1.2361212437284212 8.3458423290557882 #
straight-curve $-1 -46.502883999145482 -2.4116723198199246 3.8745814225515267 0 -1 0 I I #
point $-1 -46.502883999145482 -1.2361212437284212 3.8745814225515289 #
point $-1 -41.219077065146188 -4.8233446396398492 3.2749540560383275 #
straight-curve $-1 0 21.023725790781619 8.3458423290557882 -1 0 0 I I #
point $-1 41.122811621650207 21.023725790781615 8.3458423290557846 #
straight-curve $-1 46.502883999145482 21.023725790781619 0 0 0 -1 I I #
point $-1 46.502883999145482 21.023725790781619 8.3458423290557882 #
point $-1 42.424645497624148 15.264062764090689 4.4673377794177638 #
point $-1 42.424645497624148 18.719860580105248 4.4673377794177638 #
straight-curve $-1 -44.760997921561952 -27.933462783540065 -8.3458423290557882 -1 0 0 I I #
point $-1 -46.502883999145482 -27.933462783540065 -8.3458423290557882 #
End-of-ACIS-data 