500 0 10 0           
7 Unknown 11 ACIS 5.0 NT 24 Fri Mar 26 16:57:34 1999 
-1 9.9999999999999995e-007 1e-010 
body $-1 $10 $-1 $11 #
body $-1 $12 $-1 $13 #
body $-1 $14 $-1 $15 #
body $-1 $16 $-1 $17 #
body $-1 $18 $-1 $19 #
body $-1 $20 $-1 $21 #
body $-1 $22 $-1 $23 #
body $-1 $24 $-1 $25 #
body $-1 $26 $-1 $27 #
body $-1 $28 $-1 $29 #
lump $-1 $-1 $30 $0 #
transform $-1 1 0 0 0 1 0 0 0 1 53.086336863307594 23.538339519016798 5.1490252389418814 1 rotate no_reflect no_shear #
lump $-1 $-1 $31 $1 #
transform $-1 1 0 0 0 1 0 0 0 1 53.086336863307594 23.538339519016798 5.1490252389418814 1 rotate no_reflect no_shear #
lump $-1 $-1 $32 $2 #
transform $-1 1 0 0 0 1 0 0 0 1 53.086336863307594 23.538339519016798 5.1490252389418814 1 rotate no_reflect no_shear #
lump $-1 $-1 $33 $3 #
transform $-1 1 0 0 0 1 0 0 0 1 53.086336863307594 23.538339519016798 5.1490252389418814 1 rotate no_reflect no_shear #
lump $-1 $-1 $34 $4 #
transform $-1 1 0 0 0 1 0 0 0 1 53.086336863307594 23.538339519016798 5.1490252389418814 1 rotate no_reflect no_shear #
lump $-1 $-1 $35 $5 #
transform $-1 1 0 0 0 1 0 0 0 1 53.086336863307594 23.538339519016798 5.1490252389418814 1 rotate no_reflect no_shear #
lump $-1 $-1 $36 $6 #
transform $-1 1 0 0 0 1 0 0 0 1 53.086336863307594 23.538339519016798 5.1490252389418814 1 rotate no_reflect no_shear #
lump $-1 $-1 $37 $7 #
transform $-1 1 0 0 0 1 0 0 0 1 53.086336863307594 23.538339519016798 5.1490252389418814 1 rotate no_reflect no_shear #
lump $-1 $-1 $38 $8 #
transform $-1 1 0 0 0 1 0 0 0 1 53.086336863307594 23.538339519016798 5.1490252389418814 1 rotate no_reflect no_shear #
lump $-1 $-1 $39 $9 #
transform $-1 1 0 0 0 1 0 0 0 1 53.086336863307594 23.538339519016798 5.1490252389418814 1 rotate no_reflect no_shear #
shell $-1 $-1 $-1 $40 $-1 $10 #
shell $-1 $-1 $-1 $41 $-1 $12 #
shell $-1 $-1 $-1 $42 $-1 $14 #
shell $-1 $-1 $-1 $43 $-1 $16 #
shell $-1 $-1 $-1 $44 $-1 $18 #
shell $-1 $-1 $-1 $45 $-1 $20 #
shell $-1 $-1 $-1 $46 $-1 $22 #
shell $-1 $-1 $-1 $47 $-1 $24 #
shell $-1 $-1 $-1 $48 $-1 $26 #
shell $-1 $-1 $-1 $49 $-1 $28 #
face $-1 $50 $51 $30 $-1 $52 forward single #
face $-1 $53 $54 $31 $-1 $55 reversed single #
face $-1 $56 $57 $32 $-1 $58 forward single #
face $-1 $59 $60 $33 $-1 $61 forward single #
face $-1 $62 $63 $34 $-1 $64 reversed single #
face $-1 $65 $66 $35 $-1 $67 forward single #
face $-1 $68 $69 $36 $-1 $70 forward single #
face $-1 $71 $72 $37 $-1 $73 reversed single #
face $-1 $74 $75 $38 $-1 $76 forward single #
face $-1 $77 $78 $39 $-1 $79 forward single #
face $-1 $80 $81 $30 $-1 $82 reversed single #
loop $-1 $-1 $83 $40 #
plane-surface $-1 0 0 5.1490252389418814 0 0 1 1 0 0 forward_v I I I I #
face $-1 $84 $85 $31 $-1 $86 reversed single #
loop $-1 $-1 $87 $41 #
plane-surface $-1 79.159757857043274 -5.2335397048816406 148.46646453874877 0 -1 0 -0.81915205242281985 0 -0.57357642473473569 forward_v I I I I #
face $-1 $88 $89 $32 $-1 $90 forward single #
loop $-1 $91 $92 $42 #
cone-surface $-1 50.267955419589242 -13.583496741753073 2.0154066769833769 -0.81915205242281985 0 -0.57357642473473569 0.57357642473473569 0 -0.81915205242281985 1 I I 0 1 1 forward I I I I #
face $-1 $93 $94 $33 $-1 $95 forward single #
loop $-1 $96 $97 $43 #
cone-surface $-1 50.267955419589242 -8.5735225196302114 2.0154066769833769 -0.81915205242281985 0 -0.57357642473473569 0.57357642473473569 0 -0.81915205242281985 1 I I 0 1 1 forward I I I I #
face $-1 $98 $99 $34 $-1 $100 reversed single #
loop $-1 $-1 $101 $44 #
plane-surface $-1 79.159757857043274 18.304799814135155 148.46646453874877 0 -1 0 -0.81915205242281985 0 -0.57357642473473569 forward_v I I I I #
face $-1 $102 $103 $35 $-1 $104 forward single #
loop $-1 $105 $106 $45 #
cone-surface $-1 50.267955419589242 9.9548427772637247 2.0154066769833769 -0.81915205242281985 0 -0.57357642473473569 0.57357642473473569 0 -0.81915205242281985 1 I I 0 1 1 forward I I I I #
face $-1 $107 $108 $36 $-1 $109 forward single #
loop $-1 $110 $111 $46 #
cone-surface $-1 50.267955419589242 14.964816999386588 2.0154066769833769 -0.81915205242281985 0 -0.57357642473473569 0.57357642473473569 0 -0.81915205242281985 1 I I 0 1 1 forward I I I I #
face $-1 $112 $113 $37 $-1 $114 reversed single #
loop $-1 $-1 $115 $47 #
plane-surface $-1 -110.91212018436998 10.154331567478337 89.159325765500796 0 1 0 -0.54463904215088732 0 0.83867056331134215 forward_v I I I I #
face $-1 $116 $117 $38 $-1 $118 forward single #
loop $-1 $119 $120 $48 #
cone-surface $-1 -48.601502949022887 13.978333839346472 1.6939796453104534 0.54463904215088732 0 -0.83867056331134215 0.83867056331134215 0 0.54463904215088732 1 I I 0 1 1 forward I I I I #
face $-1 $121 $122 $39 $-1 $123 forward single #
loop $-1 $124 $125 $49 #
cone-surface $-1 -48.601502949022887 19.714337247148666 1.6939796453104534 0.54463904215088732 0 -0.83867056331134215 0.83867056331134215 0 0.54463904215088732 1 I I 0 1 1 forward I I I I #
face $-1 $126 $127 $30 $-1 $128 reversed single #
loop $-1 $-1 $129 $50 #
plane-surface $-1 0 0 -5.1490252389418814 0 0 1 1 0 0 forward_v I I I I #
coedge $-1 $130 $131 $132 $133 forward $51 $-1 #
face $-1 $134 $135 $31 $-1 $136 reversed single #
loop $-1 $-1 $137 $53 #
plane-surface $-1 -7.8118057373319516 -11.078509630691645 87.568321938109221 0.81915205242281985 0 0.57357642473473569 0.57357642473473569 0 -0.81915205242281985 forward_v I I I I #
coedge $-1 $138 $139 $140 $141 reversed $54 $-1 #
face $-1 $-1 $142 $32 $-1 $143 forward single #
loop $-1 $144 $145 $56 #
cone-surface $-1 48.633763699539998 -13.583496741753073 0.87113335026145222 -0.81915205242281985 0 -0.57357642473473569 0.28678821236736785 0 -0.40957602621140993 1 I I -0.70710678118654746 0.70710678118654746 0.5 forward I I I I #
loop $-1 $-1 $146 $42 #
coedge $-1 $92 $92 $147 $148 reversed $57 $-1 #
face $-1 $-1 $149 $33 $-1 $150 forward single #
loop $-1 $151 $152 $59 #
cone-surface $-1 48.633763699539998 -8.5735225196302114 0.87113335026145222 -0.81915205242281985 0 -0.57357642473473569 0.28678821236736785 0 -0.40957602621140993 1 I I -0.70710678118654746 0.70710678118654746 0.5 forward I I I I #
loop $-1 $-1 $153 $43 #
coedge $-1 $97 $97 $154 $155 reversed $60 $-1 #
face $-1 $156 $157 $34 $-1 $158 reversed single #
loop $-1 $-1 $159 $62 #
plane-surface $-1 -7.8118057373319516 12.459829888325149 87.568321938109221 0.81915205242281985 0 0.57357642473473569 0.57357642473473569 0 -0.81915205242281985 forward_v I I I I #
coedge $-1 $160 $161 $162 $163 reversed $63 $-1 #
face $-1 $-1 $164 $35 $-1 $165 forward single #
loop $-1 $166 $167 $65 #
cone-surface $-1 48.633763699539998 9.9548427772637247 0.87113335026145222 -0.81915205242281985 0 -0.57357642473473569 0.28678821236736785 0 -0.40957602621140993 1 I I -0.70710678118654746 0.70710678118654746 0.5 forward I I I I #
loop $-1 $-1 $168 $45 #
coedge $-1 $106 $106 $169 $170 reversed $66 $-1 #
face $-1 $-1 $171 $36 $-1 $172 forward single #
loop $-1 $173 $174 $68 #
cone-surface $-1 48.633763699539998 14.964816999386588 0.87113335026145222 -0.81915205242281985 0 -0.57357642473473569 0.28678821236736785 0 -0.40957602621140993 1 I I -0.70710678118654746 0.70710678118654746 0.5 forward I I I I #
loop $-1 $-1 $175 $46 #
coedge $-1 $111 $111 $176 $177 reversed $69 $-1 #
face $-1 $178 $179 $37 $-1 $180 forward single #
loop $-1 $-1 $181 $71 #
plane-surface $-1 -53.086336863307608 16.846335543247566 0.11542968292910416 -0.54463904215088732 0 0.83867056331134215 0.83867056331134215 0 0.54463904215088732 forward_v I I I I #
coedge $-1 $182 $183 $184 $185 reversed $72 $-1 #
face $-1 $-1 $186 $38 $-1 $187 forward single #
loop $-1 $188 $189 $74 #
cone-surface $-1 -47.71987816082973 13.978333839346472 0.3363965480297475 0.54463904215088732 0 -0.83867056331134215 0.41933528165567108 0 0.27231952107544366 1 I I -0.70710678118654746 0.70710678118654746 0.5 forward I I I I #
loop $-1 $-1 $190 $48 #
coedge $-1 $120 $120 $191 $192 reversed $75 $-1 #
face $-1 $-1 $193 $39 $-1 $194 forward single #
loop $-1 $195 $196 $77 #
cone-surface $-1 -47.71987816082973 19.714337247148666 0.3363965480297475 0.54463904215088732 0 -0.83867056331134215 0.41933528165567108 0 0.27231952107544366 1 I I -0.70710678118654746 0.70710678118654746 0.5 forward I I I I #
loop $-1 $-1 $197 $49 #
coedge $-1 $125 $125 $198 $199 reversed $78 $-1 #
face $-1 $200 $201 $30 $-1 $202 reversed single #
loop $-1 $-1 $203 $80 #
plane-surface $-1 0 -23.538339519016798 0 0 1 0 0 0 1 forward_v I I I I #
coedge $-1 $204 $205 $206 $207 forward $81 $-1 #
coedge $-1 $208 $83 $209 $210 forward $51 $-1 #
coedge $-1 $83 $208 $211 $212 forward $51 $-1 #
coedge $-1 $213 $214 $83 $133 reversed $215 $-1 #
edge $-1 $216 -23.538339519016798 $217 23.538339519016798 $132 $218 forward 7 unknown #
face $-1 $219 $220 $31 $-1 $221 forward single #
loop $-1 $-1 $222 $84 #
plane-surface $-1 79.159757857043274 -16.92347955650165 148.46646453874877 0 1 0 0.81915205242281985 0 0.57357642473473569 forward_v I I I I #
coedge $-1 $223 $224 $225 $226 reversed $85 $-1 #
coedge $-1 $139 $87 $227 $228 reversed $54 $-1 #
coedge $-1 $87 $138 $223 $229 reversed $54 $-1 #
coedge $-1 $225 $230 $87 $141 forward $220 $-1 #
edge $-1 $231 -13.506457934785956 $232 -10.318926435024927 $140 $233 forward 7 unknown #
loop $-1 $-1 $147 $88 #
plane-surface $-1 -7.8118057373319516 -11.078509630691645 87.568321938109221 0.81915205242281985 0 0.57357642473473569 0.57357642473473569 0 -0.81915205242281985 forward_v I I I I #
loop $-1 $-1 $234 $56 #
coedge $-1 $145 $145 $146 $235 reversed $89 $-1 #
coedge $-1 $146 $146 $145 $235 forward $91 $-1 #
coedge $-1 $147 $147 $92 $148 forward $142 $-1 #
edge $-1 $236 0 $236 6.2831853071796004 $147 $237 forward 7 unknown #
loop $-1 $-1 $154 $93 #
plane-surface $-1 -7.8118057373319516 -11.078509630691645 87.568321938109221 0.81915205242281985 0 0.57357642473473569 0.57357642473473569 0 -0.81915205242281985 forward_v I I I I #
loop $-1 $-1 $238 $59 #
coedge $-1 $152 $152 $153 $239 reversed $94 $-1 #
coedge $-1 $153 $153 $152 $239 forward $96 $-1 #
coedge $-1 $154 $154 $97 $155 forward $149 $-1 #
edge $-1 $240 0 $240 6.2831853071796004 $154 $241 forward 7 unknown #
face $-1 $242 $243 $34 $-1 $244 reversed single #
loop $-1 $-1 $245 $98 #
plane-surface $-1 79.159757857043274 6.614859962515145 148.46646453874877 0 1 0 0.81915205242281985 0 0.57357642473473569 forward_v I I I I #
coedge $-1 $246 $247 $248 $249 reversed $99 $-1 #
coedge $-1 $161 $101 $250 $251 reversed $63 $-1 #
coedge $-1 $101 $160 $246 $252 reversed $63 $-1 #
coedge $-1 $248 $253 $101 $163 forward $254 $-1 #
edge $-1 $255 -13.506457934785956 $256 -10.318926435024927 $162 $257 forward 7 unknown #
loop $-1 $-1 $169 $102 #
plane-surface $-1 -7.8118057373319516 12.459829888325149 87.568321938109221 0.81915205242281985 0 0.57357642473473569 0.57357642473473569 0 -0.81915205242281985 forward_v I I I I #
loop $-1 $-1 $258 $65 #
coedge $-1 $167 $167 $168 $259 reversed $103 $-1 #
coedge $-1 $168 $168 $167 $259 forward $105 $-1 #
coedge $-1 $169 $169 $106 $170 forward $164 $-1 #
edge $-1 $260 0 $260 6.2831853071796004 $169 $261 forward 7 unknown #
loop $-1 $-1 $176 $107 #
plane-surface $-1 -7.8118057373319516 12.459829888325149 87.568321938109221 0.81915205242281985 0 0.57357642473473569 0.57357642473473569 0 -0.81915205242281985 forward_v I I I I #
loop $-1 $-1 $262 $68 #
coedge $-1 $174 $174 $175 $263 reversed $108 $-1 #
coedge $-1 $175 $175 $174 $263 forward $110 $-1 #
coedge $-1 $176 $176 $111 $177 forward $171 $-1 #
edge $-1 $264 0 $264 6.2831853071796004 $176 $265 forward 7 unknown #
face $-1 $266 $267 $37 $-1 $268 reversed single #
loop $-1 $-1 $184 $112 #
plane-surface $-1 0 0 5.1490252389418814 0 0 1 1 0 0 forward_v I I I I #
coedge $-1 $269 $270 $271 $272 reversed $113 $-1 #
coedge $-1 $183 $115 $273 $274 reversed $72 $-1 #
coedge $-1 $115 $182 $269 $275 reversed $72 $-1 #
coedge $-1 $271 $276 $115 $185 forward $179 $-1 #
edge $-1 $277 2.3697232288773975 $278 10.120780523211359 $184 $279 forward 7 unknown #
loop $-1 $-1 $191 $116 #
plane-surface $-1 -53.086336863307608 16.846335543247566 0.11542968292910416 -0.54463904215088732 0 0.83867056331134215 0.83867056331134215 0 0.54463904215088732 forward_v I I I I #
loop $-1 $-1 $280 $74 #
coedge $-1 $189 $189 $190 $281 reversed $117 $-1 #
coedge $-1 $190 $190 $189 $281 forward $119 $-1 #
coedge $-1 $191 $191 $120 $192 forward $186 $-1 #
edge $-1 $282 0 $282 6.2831853071796004 $191 $283 forward 7 unknown #
loop $-1 $-1 $198 $121 #
plane-surface $-1 -53.086336863307608 16.846335543247566 0.11542968292910416 -0.54463904215088732 0 0.83867056331134215 0.83867056331134215 0 0.54463904215088732 forward_v I I I I #
loop $-1 $-1 $284 $77 #
coedge $-1 $196 $196 $197 $285 reversed $122 $-1 #
coedge $-1 $197 $197 $196 $285 forward $124 $-1 #
coedge $-1 $198 $198 $125 $199 forward $193 $-1 #
edge $-1 $286 0 $286 6.2831853071796004 $198 $287 forward 7 unknown #
face $-1 $288 $289 $30 $-1 $290 reversed single #
loop $-1 $-1 $291 $126 #
plane-surface $-1 -53.086336863307594 0 0 1 0 0 0 0 -1 forward_v I I I I #
coedge $-1 $292 $211 $293 $294 forward $127 $-1 #
coedge $-1 $295 $129 $292 $296 forward $81 $-1 #
coedge $-1 $129 $295 $297 $298 forward $81 $-1 #
coedge $-1 $214 $213 $129 $207 reversed $215 $-1 #
edge $-1 $299 -23.538339519016798 $300 23.538339519016798 $206 $301 forward 7 unknown #
coedge $-1 $131 $130 $302 $303 forward $51 $-1 #
coedge $-1 $304 $305 $130 $210 reversed $289 $-1 #
edge $-1 $217 -53.086336863307594 $306 53.086336863307594 $209 $307 forward 7 unknown #
coedge $-1 $203 $308 $131 $212 reversed $127 $-1 #
edge $-1 $309 -53.086336863307594 $216 53.086336863307594 $211 $310 forward 7 unknown #
coedge $-1 $206 $132 $308 $311 forward $215 $-1 #
coedge $-1 $132 $206 $304 $312 reversed $215 $-1 #
loop $-1 $-1 $213 $288 #
vertex $-1 $133 $313 #
vertex $-1 $133 $314 #
straight-curve $-1 53.086336863307594 0 5.1490252389418814 0 1 0 I I #
face $-1 $-1 $315 $31 $-1 $316 reversed single #
loop $-1 $-1 $140 $134 #
plane-surface $-1 0 0 5.1490252389418814 0 0 1 1 0 0 forward_v I I I I #
coedge $-1 $317 $318 $319 $320 reversed $135 $-1 #
coedge $-1 $321 $137 $139 $229 forward $85 $-1 #
coedge $-1 $137 $321 $317 $322 forward $85 $-1 #
coedge $-1 $319 $140 $137 $226 forward $220 $-1 #
edge $-1 $232 -0.30571511046418198 $323 11.384224741155828 $225 $324 forward 7 unknown #
coedge $-1 $325 $326 $138 $228 forward $315 $-1 #
edge $-1 $327 -73.636473925640388 $231 -69.084207030432509 $227 $328 forward 7 unknown #
edge $-1 $232 100.61538203486691 $327 106.1726737266152 $139 $329 forward 7 unknown #
coedge $-1 $140 $319 $325 $330 forward $220 $-1 #
vertex $-1 $228 $331 #
vertex $-1 $141 $332 #
straight-curve $-1 39.579878928521637 -5.2335397048816406 5.1490252389418742 -1 0 0 I I #
coedge $-1 $234 $234 $-1 $333 reversed $144 $-1 #
edge $-1 $334 0 $334 6.2831853071796004 $145 $335 forward 7 unknown #
vertex $-1 $148 $336 #
ellipse-curve $-1 51.492571113427083 -13.583496741753073 2.8728917913379379 0.81915205242281985 0 0.57357642473473569 0.57357642473473569 0 -0.81915205242281985 1 I I #
coedge $-1 $238 $238 $-1 $337 reversed $151 $-1 #
edge $-1 $338 0 $338 6.2831853071796004 $152 $339 forward 7 unknown #
vertex $-1 $155 $340 #
ellipse-curve $-1 51.492571113427083 -8.5735225196302114 2.8728917913379379 0.81915205242281985 0 0.57357642473473569 0.57357642473473569 0 -0.81915205242281985 1 I I #
face $-1 $-1 $254 $34 $-1 $341 forward single #
loop $-1 $-1 $342 $156 #
plane-surface $-1 53.086336863307594 0 0 -1 0 0 0 0 1 forward_v I I I I #
coedge $-1 $343 $344 $345 $346 reversed $157 $-1 #
coedge $-1 $347 $159 $161 $252 forward $99 $-1 #
coedge $-1 $159 $347 $343 $348 forward $99 $-1 #
coedge $-1 $345 $162 $159 $249 forward $254 $-1 #
edge $-1 $256 -12.07488486997258 $349 -0.38494501835257022 $248 $350 forward 7 unknown #
coedge $-1 $351 $352 $160 $251 forward $243 $-1 #
edge $-1 $353 -73.636473925640388 $255 -69.084207030432509 $250 $354 forward 7 unknown #
edge $-1 $256 100.61538203486691 $353 106.1726737266152 $161 $355 forward 7 unknown #
coedge $-1 $162 $345 $351 $356 forward $254 $-1 #
loop $-1 $-1 $345 $242 #
vertex $-1 $251 $357 #
vertex $-1 $163 $358 #
straight-curve $-1 39.579878928521637 18.304799814135155 5.1490252389418742 -1 0 0 I I #
coedge $-1 $258 $258 $-1 $359 reversed $166 $-1 #
edge $-1 $360 0 $360 6.2831853071796004 $167 $361 forward 7 unknown #
vertex $-1 $170 $362 #
ellipse-curve $-1 51.492571113427083 9.9548427772637247 2.8728917913379379 0.81915205242281985 0 0.57357642473473569 0.57357642473473569 0 -0.81915205242281985 1 I I #
coedge $-1 $262 $262 $-1 $363 reversed $173 $-1 #
edge $-1 $364 0 $364 6.2831853071796004 $174 $365 forward 7 unknown #
vertex $-1 $177 $366 #
ellipse-curve $-1 51.492571113427083 14.964816999386588 2.8728917913379379 0.81915205242281985 0 0.57357642473473569 0.57357642473473569 0 -0.81915205242281985 1 I I #
face $-1 $-1 $367 $37 $-1 $368 reversed single #
loop $-1 $-1 $369 $178 #
plane-surface $-1 0 23.538339519016798 0 0 -1 0 0 0 -1 forward_v I I I I #
coedge $-1 $370 $181 $183 $275 forward $113 $-1 #
coedge $-1 $181 $370 $369 $371 reversed $113 $-1 #
coedge $-1 $372 $184 $181 $272 forward $179 $-1 #
edge $-1 $278 1.7311637958545543 $373 15.115171747393012 $271 $374 forward 7 unknown #
coedge $-1 $375 $376 $182 $274 forward $367 $-1 #
edge $-1 $377 -44.464233199821287 $277 -39.430637643808517 $273 $378 forward 7 unknown #
edge $-1 $278 -9.2420762494993234 $377 -1.6944551593250291e-014 $183 $379 forward 7 unknown #
coedge $-1 $184 $372 $375 $380 forward $179 $-1 #
vertex $-1 $274 $381 #
vertex $-1 $185 $382 #
straight-curve $-1 -55.456060092184991 10.154331567478337 5.1490252389418814 1 0 0 I I #
coedge $-1 $280 $280 $-1 $383 reversed $188 $-1 #
edge $-1 $384 0 $384 6.2831853071796004 $189 $385 forward 7 unknown #
vertex $-1 $192 $386 #
ellipse-curve $-1 -49.210808216140606 13.978333839346472 2.6322274609354999 -0.54463904215088732 0 0.83867056331134215 0.83867056331134215 0 0.54463904215088732 1 I I #
coedge $-1 $284 $284 $-1 $387 reversed $195 $-1 #
edge $-1 $388 0 $388 6.2831853071796004 $196 $389 forward 7 unknown #
vertex $-1 $199 $390 #
ellipse-curve $-1 -49.210808216140606 19.714337247148666 2.6322274609354999 -0.54463904215088732 0 0.83867056331134215 0.83867056331134215 0 0.54463904215088732 1 I I #
face $-1 $-1 $215 $30 $-1 $391 reversed single #
loop $-1 $-1 $304 $200 #
plane-surface $-1 0 23.538339519016798 0 0 -1 0 0 0 -1 forward_v I I I I #
coedge $-1 $392 $302 $305 $393 forward $201 $-1 #
coedge $-1 $308 $203 $204 $296 reversed $127 $-1 #
coedge $-1 $302 $392 $203 $294 reversed $201 $-1 #
edge $-1 $309 -5.1490252389418814 $394 5.1490252389418814 $293 $395 forward 7 unknown #
coedge $-1 $205 $204 $392 $396 forward $81 $-1 #
edge $-1 $300 -53.086336863307594 $394 53.086336863307594 $292 $397 forward 7 unknown #
coedge $-1 $305 $304 $205 $298 reversed $289 $-1 #
edge $-1 $398 -53.086336863307594 $299 53.086336863307594 $297 $399 forward 7 unknown #
vertex $-1 $207 $400 #
vertex $-1 $311 $401 #
straight-curve $-1 53.086336863307594 0 -5.1490252389418814 0 -1 0 I I #
coedge $-1 $291 $293 $208 $303 reversed $201 $-1 #
edge $-1 $306 -23.538339519016798 $309 23.538339519016798 $302 $402 forward 7 unknown #
coedge $-1 $297 $209 $214 $312 forward $289 $-1 #
coedge $-1 $209 $297 $291 $393 reversed $289 $-1 #
vertex $-1 $210 $403 #
straight-curve $-1 0 23.538339519016798 5.1490252389418814 -1 0 0 I I #
coedge $-1 $211 $292 $213 $311 reversed $127 $-1 #
vertex $-1 $303 $404 #
straight-curve $-1 0 -23.538339519016798 5.1490252389418814 1 0 0 I I #
edge $-1 $216 -5.1490252389418814 $300 5.1490252389418814 $213 $405 forward 7 unknown #
edge $-1 $217 -5.1490252389418814 $299 5.1490252389418814 $214 $406 forward 7 unknown #
point $-1 53.086336863307594 -23.538339519016798 5.1490252389418814 #
point $-1 53.086336863307594 23.538339519016798 5.1490252389418814 #
loop $-1 $-1 $227 $219 #
plane-surface $-1 53.086336863307594 0 0 -1 0 0 0 0 1 forward_v I I I I #
coedge $-1 $318 $222 $224 $322 reversed $135 $-1 #
coedge $-1 $222 $317 $407 $408 reversed $135 $-1 #
coedge $-1 $230 $225 $222 $320 forward $220 $-1 #
edge $-1 $323 10.318926435024927 $409 13.506457934785956 $319 $410 forward 7 unknown #
coedge $-1 $224 $223 $326 $411 reversed $85 $-1 #
edge $-1 $412 -106.1726737266152 $323 -100.61538203486691 $317 $413 forward 7 unknown #
vertex $-1 $226 $414 #
straight-curve $-1 49.898805363546558 -5.5392548153458225 5.1490252389418885 0 -1 0 I I #
coedge $-1 $407 $227 $230 $330 reversed $315 $-1 #
coedge $-1 $227 $407 $321 $411 forward $315 $-1 #
vertex $-1 $228 $415 #
straight-curve $-1 53.086336863307594 -5.2335397048816406 74.233232269374383 0 0 1 I I #
straight-curve $-1 -7.8118057373319516 -5.2335397048816406 87.568321938109221 0.57357642473473569 0 -0.81915205242281985 I I #
edge $-1 $409 -16.92347955650165 $231 -5.2335397048816406 $325 $416 forward 7 unknown #
point $-1 53.086336863307594 -5.2335397048816406 5.1490252389418814 #
point $-1 49.898805363546565 -5.2335397048816406 5.1490252389418742 #
edge $-1 $417 1 $417 0 $234 $-1 forward 7 unknown #
vertex $-1 $235 $418 #
ellipse-curve $-1 49.043339725751409 -13.583496741753073 1.15792156262882 0.81915205242281985 0 0.57357642473473569 0.57357642473473569 0 -0.81915205242281985 1 I I #
point $-1 52.066147538161808 -13.583496741753073 2.0537397389151142 #
edge $-1 $419 1 $419 0 $238 $-1 forward 7 unknown #
vertex $-1 $239 $420 #
ellipse-curve $-1 49.043339725751409 -8.5735225196302114 1.15792156262882 0.81915205242281985 0 0.57357642473473569 0.57357642473473569 0 -0.81915205242281985 1 I I #
point $-1 52.066147538161808 -8.5735225196302114 2.0537397389151142 #
plane-surface $-1 0 0 5.1490252389418814 0 0 1 1 0 0 forward_v I I I I #
coedge $-1 $352 $351 $344 $421 forward $243 $-1 #
coedge $-1 $344 $245 $247 $348 reversed $157 $-1 #
coedge $-1 $245 $343 $342 $421 reversed $157 $-1 #
coedge $-1 $253 $248 $245 $346 forward $254 $-1 #
edge $-1 $349 10.318926435024927 $422 13.506457934785956 $345 $423 forward 7 unknown #
coedge $-1 $247 $246 $352 $424 reversed $99 $-1 #
edge $-1 $425 -106.1726737266152 $349 -100.61538203486691 $343 $426 forward 7 unknown #
vertex $-1 $249 $427 #
straight-curve $-1 49.898805363546558 6.2299149441625747 5.1490252389418885 0 -1 0 I I #
coedge $-1 $342 $250 $253 $356 reversed $243 $-1 #
coedge $-1 $250 $342 $347 $424 forward $243 $-1 #
vertex $-1 $251 $428 #
straight-curve $-1 53.086336863307594 18.304799814135155 74.233232269374383 0 0 1 I I #
straight-curve $-1 -7.8118057373319516 18.304799814135155 87.568321938109221 0.57357642473473569 0 -0.81915205242281985 I I #
edge $-1 $422 6.614859962515145 $255 18.304799814135155 $351 $429 forward 7 unknown #
point $-1 53.086336863307594 18.304799814135155 5.1490252389418814 #
point $-1 49.898805363546565 18.304799814135155 5.1490252389418742 #
edge $-1 $430 1 $430 0 $258 $-1 forward 7 unknown #
vertex $-1 $259 $431 #
ellipse-curve $-1 49.043339725751409 9.9548427772637247 1.15792156262882 0.81915205242281985 0 0.57357642473473569 0.57357642473473569 0 -0.81915205242281985 1 I I #
point $-1 52.066147538161808 9.9548427772637247 2.0537397389151142 #
edge $-1 $432 1 $432 0 $262 $-1 forward 7 unknown #
vertex $-1 $263 $433 #
ellipse-curve $-1 49.043339725751409 14.964816999386588 1.15792156262882 0.81915205242281985 0 0.57357642473473569 0.57357642473473569 0 -0.81915205242281985 1 I I #
point $-1 52.066147538161808 14.964816999386588 2.0537397389151142 #
loop $-1 $-1 $273 $266 #
plane-surface $-1 -53.086336863307594 0 0 1 0 0 0 0 -1 forward_v I I I I #
coedge $-1 $434 $435 $270 $371 forward $267 $-1 #
coedge $-1 $270 $269 $376 $436 reversed $113 $-1 #
edge $-1 $373 12.98746401517046 $437 22.229540264669769 $369 $438 forward 7 unknown #
coedge $-1 $276 $271 $435 $439 forward $179 $-1 #
vertex $-1 $439 $440 #
straight-curve $-1 -45.335279568973633 8.4231677716237829 5.1490252389418805 0 1 0 I I #
coedge $-1 $441 $273 $276 $380 reversed $367 $-1 #
coedge $-1 $273 $441 $370 $436 forward $367 $-1 #
vertex $-1 $274 $442 #
straight-curve $-1 -53.086336863307594 10.154331567478337 44.579662882750398 0 0 1 I I #
straight-curve $-1 -53.086336863307608 10.154331567478337 0.11542968292910416 -0.83867056331134215 0 -0.54463904215088732 I I #
edge $-1 $443 -23.538339519016798 $277 -10.154331567478337 $375 $444 forward 7 unknown #
point $-1 -53.086336863307594 10.154331567478337 5.1490252389418814 #
point $-1 -45.335279568973633 10.154331567478337 5.1490252389418814 #
edge $-1 $445 1 $445 0 $280 $-1 forward 7 unknown #
vertex $-1 $281 $446 #
ellipse-curve $-1 -47.992197681905175 13.978333839346472 0.75573182968541852 -0.54463904215088732 0 0.83867056331134215 0.83867056331134215 0 0.54463904215088732 1 I I #
point $-1 -48.372137652829259 13.978333839346472 3.1768665030863756 #
edge $-1 $447 1 $447 0 $284 $-1 forward 7 unknown #
vertex $-1 $285 $448 #
ellipse-curve $-1 -47.992197681905175 19.714337247148666 0.75573182968541852 -0.54463904215088732 0 0.83867056331134215 0.83867056331134215 0 0.54463904215088732 1 I I #
point $-1 -48.372137652829259 19.714337247148666 3.1768665030863756 #
plane-surface $-1 53.086336863307594 0 0 -1 0 0 0 0 1 forward_v I I I I #
coedge $-1 $293 $291 $295 $396 reversed $201 $-1 #
edge $-1 $306 -5.1490252389418814 $398 5.1490252389418814 $305 $449 forward 7 unknown #
vertex $-1 $396 $450 #
straight-curve $-1 -53.086336863307594 -23.538339519016798 0 0 0 -1 I I #
edge $-1 $394 -23.538339519016798 $398 23.538339519016798 $392 $451 forward 7 unknown #
straight-curve $-1 0 -23.538339519016798 -5.1490252389418814 -1 0 0 I I #
vertex $-1 $298 $452 #
straight-curve $-1 0 23.538339519016798 -5.1490252389418814 1 0 0 I I #
point $-1 53.086336863307594 23.538339519016798 -5.1490252389418814 #
point $-1 53.086336863307594 -23.538339519016798 -5.1490252389418814 #
straight-curve $-1 -53.086336863307594 0 5.1490252389418814 0 -1 0 I I #
point $-1 -53.086336863307594 23.538339519016798 5.1490252389418814 #
point $-1 -53.086336863307594 -23.538339519016798 5.1490252389418814 #
straight-curve $-1 53.086336863307594 -23.538339519016798 0 0 0 -1 I I #
straight-curve $-1 53.086336863307594 23.538339519016798 0 0 0 -1 I I #
coedge $-1 $326 $325 $318 $408 forward $315 $-1 #
edge $-1 $409 69.084207030432509 $412 73.636473925640388 $407 $453 forward 7 unknown #
vertex $-1 $330 $454 #
straight-curve $-1 39.579878928521637 -16.92347955650165 5.1490252389418742 1 0 0 I I #
edge $-1 $412 -11.384224741155828 $327 0.30571511046418198 $326 $455 forward 7 unknown #
vertex $-1 $411 $456 #
straight-curve $-1 -7.8118057373319516 -16.92347955650165 87.568321938109221 -0.57357642473473569 0 0.81915205242281985 I I #
point $-1 49.898805363546565 -16.92347955650165 5.1490252389418742 #
point $-1 53.086336863307594 -5.2335397048816406 0.59675834373399539 #
straight-curve $-1 53.086336863307594 0 5.1490252389418814 0 1 0 I I #
vertex $-1 $333 $457 #
point $-1 49.616916150486141 -13.583496741753073 0.33876951020600021 #
vertex $-1 $337 $458 #
point $-1 49.616916150486141 -8.5735225196302114 0.33876951020600021 #
edge $-1 $422 69.084207030432509 $425 73.636473925640388 $342 $459 forward 7 unknown #
vertex $-1 $356 $460 #
straight-curve $-1 39.579878928521637 6.614859962515145 5.1490252389418742 1 0 0 I I #
edge $-1 $425 0.38494501835257022 $353 12.07488486997258 $352 $461 forward 7 unknown #
vertex $-1 $424 $462 #
straight-curve $-1 -7.8118057373319516 6.614859962515145 87.568321938109221 -0.57357642473473569 0 0.81915205242281985 I I #
point $-1 49.898805363546565 6.614859962515145 5.1490252389418742 #
point $-1 53.086336863307594 18.304799814135155 0.59675834373399539 #
straight-curve $-1 53.086336863307594 0 5.1490252389418814 0 1 0 I I #
vertex $-1 $359 $463 #
point $-1 49.616916150486141 9.9548427772637247 0.33876951020600021 #
vertex $-1 $363 $464 #
point $-1 49.616916150486141 14.964816999386588 0.33876951020600021 #
coedge $-1 $435 $369 $441 $465 reversed $267 $-1 #
coedge $-1 $369 $434 $372 $439 reversed $267 $-1 #
edge $-1 $437 -15.115171747393012 $377 -1.7311637958545543 $376 $466 forward 7 unknown #
vertex $-1 $371 $467 #
straight-curve $-1 -34.443075807384837 23.538339519016798 12.222505200133439 -0.83867056331134215 0 -0.54463904215088732 I I #
edge $-1 $373 45.335279568973633 $443 53.086336863307594 $435 $468 forward 7 unknown #
point $-1 -45.335279568973633 23.538339519016795 5.1490252389418814 #
coedge $-1 $376 $375 $434 $465 forward $367 $-1 #
point $-1 -53.086336863307594 10.154331567478337 0.11542968292911339 #
vertex $-1 $439 $469 #
straight-curve $-1 -53.086336863307594 0 5.1490252389418814 0 -1 0 I I #
vertex $-1 $383 $470 #
point $-1 -47.153527118593829 13.978333839346472 1.3003708718363058 #
vertex $-1 $387 $471 #
point $-1 -47.153527118593829 19.714337247148666 1.3003708718363058 #
straight-curve $-1 -53.086336863307594 23.538339519016798 0 0 0 -1 I I #
point $-1 -53.086336863307594 -23.538339519016798 -5.1490252389418814 #
straight-curve $-1 -53.086336863307594 0 -5.1490252389418814 0 1 0 I I #
point $-1 -53.086336863307594 23.538339519016798 -5.1490252389418814 #
straight-curve $-1 53.086336863307594 -16.92347955650165 74.233232269374383 0 0 -1 I I #
point $-1 53.086336863307594 -16.92347955650165 5.1490252389418814 #
straight-curve $-1 53.086336863307594 -5.5392548153458225 0.59675834373398828 0 1 0 I I #
point $-1 53.086336863307594 -16.92347955650165 0.59675834373399539 #
point $-1 48.224187673328586 -13.583496741753073 0.58434513789408438 #
point $-1 48.224187673328586 -8.5735225196302114 0.58434513789408438 #
straight-curve $-1 53.086336863307594 6.614859962515145 74.233232269374383 0 0 -1 I I #
point $-1 53.086336863307594 6.614859962515145 5.1490252389418814 #
straight-curve $-1 53.086336863307594 6.2299149441625747 0.59675834373398828 0 1 0 I I #
point $-1 53.086336863307594 6.614859962515145 0.59675834373399539 #
point $-1 48.224187673328586 9.9548427772637247 0.58434513789408438 #
point $-1 48.224187673328586 14.964816999386588 0.58434513789408438 #
edge $-1 $443 -5.1490252389418814 $437 -0.11542968292911339 $434 $472 forward 7 unknown #
straight-curve $-1 -53.086336863307594 8.4231677716237829 0.11542968292911315 0 -1 0 I I #
point $-1 -53.086336863307594 23.538339519016795 0.11542968292911339 #
straight-curve $-1 0 23.538339519016798 5.1490252389418814 -1 0 0 I I #
point $-1 -53.086336863307594 23.538339519016798 5.1490252389418814 #
point $-1 -47.447558639754284 13.978333839346472 -0.082938733625923577 #
point $-1 -47.447558639754284 19.714337247148666 -0.082938733625923577 #
straight-curve $-1 -53.086336863307594 23.538339519016798 0 0 0 -1 I I #
End-of-ACIS-data 