500 0 16 0           
7 Unknown 11 ACIS 5.0 NT 24 Fri Mar 26 19:55:53 1999 
-1 9.9999999999999995e-007 1e-010 
body $-1 $16 $-1 $17 #
body $-1 $18 $-1 $19 #
body $-1 $20 $-1 $21 #
body $-1 $22 $-1 $23 #
body $-1 $24 $-1 $25 #
body $-1 $26 $-1 $27 #
body $-1 $28 $-1 $29 #
body $-1 $30 $-1 $31 #
body $-1 $32 $-1 $33 #
body $-1 $34 $-1 $35 #
body $-1 $36 $-1 $37 #
body $-1 $38 $-1 $39 #
body $-1 $40 $-1 $41 #
body $-1 $42 $-1 $43 #
body $-1 $44 $-1 $45 #
body $-1 $46 $-1 $47 #
lump $-1 $-1 $48 $0 #
transform $-1 1 0 0 0 1 0 0 0 1 61.43498031556139 26.497081188685915 6.5512086410724226 1 rotate no_reflect no_shear #
lump $-1 $-1 $49 $1 #
transform $-1 1 0 0 0 1 0 0 0 1 61.43498031556139 3.357616887587449 11.102417282144845 1 rotate no_reflect no_shear #
lump $-1 $-1 $50 $2 #
transform $-1 0.7313536940579346 0 0.68199836817093118 0 1 0 -0.68199836817093118 0 0.7313536940579346 -83.797112647652312 15.125199797543898 97.485654801173368 1 rotate no_reflect no_shear #
lump $-1 $-1 $51 $3 #
transform $-1 0.7313536940579346 0 0.68199836817093118 0 -1 0 0.68199836817093118 0 -0.7313536940579346 4.4048958306271944 15.125199797543898 8.7895375081794676 1 rotate no_reflect no_shear #
lump $-1 $-1 $52 $4 #
transform $-1 0.7313536940579346 0 0.68199836817093118 0 1 0 -0.68199836817093118 0 0.7313536940579346 -83.797112647652312 26.694931948093128 97.485654801173368 1 rotate no_reflect no_shear #
lump $-1 $-1 $53 $5 #
transform $-1 0.7313536940579346 0 0.68199836817093118 0 -1 0 0.68199836817093118 0 -0.7313536940579346 4.4048958306271944 26.694931948093128 8.7895375081794676 1 rotate no_reflect no_shear #
lump $-1 $-1 $54 $6 #
transform $-1 0.7313536940579346 0 0.68199836817093118 0 1 0 -0.68199836817093118 0 0.7313536940579346 -83.797112647652312 38.264664098642356 97.485654801173368 1 rotate no_reflect no_shear #
lump $-1 $-1 $55 $7 #
transform $-1 0.7313536940579346 0 0.68199836817093118 0 -1 0 0.68199836817093118 0 -0.7313536940579346 4.4048958306271944 38.264664098642356 8.7895375081794676 1 rotate no_reflect no_shear #
lump $-1 $-1 $56 $8 #
transform $-1 0.7313536940579346 0 0.68199836817093118 0 1 0 -0.68199836817093118 0 0.7313536940579346 -83.797112647652312 49.834396249191585 97.485654801173368 1 rotate no_reflect no_shear #
lump $-1 $-1 $57 $9 #
transform $-1 0.7313536940579346 0 0.68199836817093118 0 -1 0 0.68199836817093118 0 -0.7313536940579346 4.4048958306271944 49.834396249191585 8.7895375081794676 1 rotate no_reflect no_shear #
lump $-1 $-1 $58 $10 #
transform $-1 0.83867056331134215 0 -0.54463904215088732 0 1 0 0.54463904215088732 0 0.83867056331134215 86.742319201828565 11.540223222923297 178.29048745358344 1 rotate no_reflect no_shear #
lump $-1 $-1 $59 $11 #
transform $-1 0.83867056331134215 0 -0.54463904215088732 0 -1 0 -0.54463904215088732 0 -0.83867056331134215 117.49293605966447 9.4723706024596979 8.0990566920047158 1 rotate no_reflect no_shear #
lump $-1 $-1 $60 $12 #
transform $-1 0.83867056331134215 0 -0.54463904215088732 0 -1 0 -0.54463904215088732 0 -0.83867056331134215 117.49293605966447 13.608075843386898 8.0990566920047158 1 rotate no_reflect no_shear #
lump $-1 $-1 $61 $13 #
transform $-1 0.83867056331134215 0 -0.54463904215088732 0 1 0 0.54463904215088732 0 0.83867056331134215 86.742319201828565 34.679687524021759 178.29048745358344 1 rotate no_reflect no_shear #
lump $-1 $-1 $62 $14 #
transform $-1 0.83867056331134215 0 -0.54463904215088732 0 -1 0 -0.54463904215088732 0 -0.83867056331134215 117.49293605966447 32.611834903558162 8.0990566920047158 1 rotate no_reflect no_shear #
lump $-1 $-1 $63 $15 #
transform $-1 0.83867056331134215 0 -0.54463904215088732 0 -1 0 -0.54463904215088732 0 -0.83867056331134215 117.49293605966447 36.747540144485363 8.0990566920047158 1 rotate no_reflect no_shear #
shell $-1 $-1 $-1 $64 $-1 $16 #
shell $-1 $-1 $-1 $65 $-1 $18 #
shell $-1 $-1 $-1 $66 $-1 $20 #
shell $-1 $-1 $-1 $67 $-1 $22 #
shell $-1 $-1 $-1 $68 $-1 $24 #
shell $-1 $-1 $-1 $69 $-1 $26 #
shell $-1 $-1 $-1 $70 $-1 $28 #
shell $-1 $-1 $-1 $71 $-1 $30 #
shell $-1 $-1 $-1 $72 $-1 $32 #
shell $-1 $-1 $-1 $73 $-1 $34 #
shell $-1 $-1 $-1 $74 $-1 $36 #
shell $-1 $-1 $-1 $75 $-1 $38 #
shell $-1 $-1 $-1 $76 $-1 $40 #
shell $-1 $-1 $-1 $77 $-1 $42 #
shell $-1 $-1 $-1 $78 $-1 $44 #
shell $-1 $-1 $-1 $79 $-1 $46 #
face $-1 $80 $81 $48 $-1 $82 forward single #
face $-1 $83 $84 $49 $-1 $85 forward single #
face $-1 $86 $87 $50 $-1 $88 forward single #
face $-1 $89 $90 $51 $-1 $91 forward single #
face $-1 $92 $93 $52 $-1 $94 forward single #
face $-1 $95 $96 $53 $-1 $97 forward single #
face $-1 $98 $99 $54 $-1 $100 forward single #
face $-1 $101 $102 $55 $-1 $103 forward single #
face $-1 $104 $105 $56 $-1 $106 forward single #
face $-1 $107 $108 $57 $-1 $109 forward single #
face $-1 $110 $111 $58 $-1 $112 forward single #
face $-1 $113 $114 $59 $-1 $115 forward single #
face $-1 $116 $117 $60 $-1 $118 forward single #
face $-1 $119 $120 $61 $-1 $121 forward single #
face $-1 $122 $123 $62 $-1 $124 forward single #
face $-1 $125 $126 $63 $-1 $127 forward single #
face $-1 $128 $129 $48 $-1 $130 reversed single #
loop $-1 $-1 $131 $64 #
plane-surface $-1 0 0 6.5512086410724226 0 0 1 1 0 0 forward_v I I I I #
face $-1 $132 $133 $49 $-1 $134 reversed single #
loop $-1 $-1 $135 $65 #
plane-surface $-1 0 0 1.5 0 0 1 1 0 0 forward_v I I I I #
face $-1 $136 $137 $50 $-1 $138 reversed single #
loop $-1 $-1 $139 $66 #
plane-surface $-1 0 0 122.86996063112278 0 0 1 1 0 0 forward_v I I I I #
face $-1 $140 $141 $51 $-1 $142 forward single #
loop $-1 $143 $144 $67 #
cone-surface $-1 0 0 -1.2009491256447031 0 0 1 0.5 0 0 1 I I 0 1 0.5 forward I I I I #
face $-1 $145 $146 $52 $-1 $147 reversed single #
loop $-1 $-1 $148 $68 #
plane-surface $-1 0 0 122.86996063112278 0 0 1 1 0 0 forward_v I I I I #
face $-1 $149 $150 $53 $-1 $151 forward single #
loop $-1 $152 $153 $69 #
cone-surface $-1 0 0 -1.2009491256447031 0 0 1 0.5 0 0 1 I I 0 1 0.5 forward I I I I #
face $-1 $154 $155 $54 $-1 $156 reversed single #
loop $-1 $-1 $157 $70 #
plane-surface $-1 0 0 122.86996063112278 0 0 1 1 0 0 forward_v I I I I #
face $-1 $158 $159 $55 $-1 $160 forward single #
loop $-1 $161 $162 $71 #
cone-surface $-1 0 0 -1.2009491256447031 0 0 1 0.5 0 0 1 I I 0 1 0.5 forward I I I I #
face $-1 $163 $164 $56 $-1 $165 reversed single #
loop $-1 $-1 $166 $72 #
plane-surface $-1 0 0 122.86996063112278 0 0 1 1 0 0 forward_v I I I I #
face $-1 $167 $168 $57 $-1 $169 forward single #
loop $-1 $170 $171 $73 #
cone-surface $-1 0 0 -1.2009491256447031 0 0 1 0.5 0 0 1 I I 0 1 0.5 forward I I I I #
face $-1 $172 $173 $58 $-1 $174 reversed single #
loop $-1 $-1 $175 $74 #
plane-surface $-1 0 0 122.86996063112278 0 0 1 1 0 0 forward_v I I I I #
face $-1 $176 $177 $59 $-1 $178 forward single #
loop $-1 $179 $180 $75 #
cone-surface $-1 0 0 -1.8082979827265238 0 0 1 1 0 0 1 I I 0 1 1 forward I I I I #
face $-1 $181 $182 $60 $-1 $183 forward single #
loop $-1 $184 $185 $76 #
cone-surface $-1 0 0 -1.8082979827265238 0 0 1 1 0 0 1 I I 0 1 1 forward I I I I #
face $-1 $186 $187 $61 $-1 $188 reversed single #
loop $-1 $-1 $189 $77 #
plane-surface $-1 0 0 122.86996063112278 0 0 1 1 0 0 forward_v I I I I #
face $-1 $190 $191 $62 $-1 $192 forward single #
loop $-1 $193 $194 $78 #
cone-surface $-1 0 0 -1.8082979827265238 0 0 1 1 0 0 1 I I 0 1 1 forward I I I I #
face $-1 $195 $196 $63 $-1 $197 forward single #
loop $-1 $198 $199 $79 #
cone-surface $-1 0 0 -1.8082979827265238 0 0 1 1 0 0 1 I I 0 1 1 forward I I I I #
face $-1 $200 $201 $48 $-1 $202 reversed single #
loop $-1 $-1 $203 $80 #
plane-surface $-1 0 0 -6.5512086410724226 0 0 1 1 0 0 forward_v I I I I #
coedge $-1 $204 $205 $206 $207 forward $81 $-1 #
face $-1 $208 $209 $49 $-1 $210 reversed single #
loop $-1 $-1 $211 $83 #
plane-surface $-1 0 0 -1.5 0 0 1 1 0 0 forward_v I I I I #
coedge $-1 $212 $213 $214 $215 forward $84 $-1 #
face $-1 $216 $217 $50 $-1 $218 reversed single #
loop $-1 $-1 $219 $86 #
plane-surface $-1 0 0 -122.86996063112278 0 0 1 1 0 0 forward_v I I I I #
coedge $-1 $220 $221 $222 $223 forward $87 $-1 #
face $-1 $-1 $224 $51 $-1 $225 forward single #
loop $-1 $-1 $226 $89 #
plane-surface $-1 0 0 -2.1518982512894067 0 0 -1 -1 0 0 forward_v I I I I #
loop $-1 $-1 $227 $67 #
coedge $-1 $144 $144 $226 $228 reversed $90 $-1 #
face $-1 $229 $230 $52 $-1 $231 reversed single #
loop $-1 $-1 $232 $92 #
plane-surface $-1 0 0 -122.86996063112278 0 0 1 1 0 0 forward_v I I I I #
coedge $-1 $233 $234 $235 $236 forward $93 $-1 #
face $-1 $-1 $237 $53 $-1 $238 forward single #
loop $-1 $-1 $239 $95 #
plane-surface $-1 0 0 -2.1518982512894067 0 0 -1 -1 0 0 forward_v I I I I #
loop $-1 $-1 $240 $69 #
coedge $-1 $153 $153 $239 $241 reversed $96 $-1 #
face $-1 $242 $243 $54 $-1 $244 reversed single #
loop $-1 $-1 $245 $98 #
plane-surface $-1 0 0 -122.86996063112278 0 0 1 1 0 0 forward_v I I I I #
coedge $-1 $246 $247 $248 $249 forward $99 $-1 #
face $-1 $-1 $250 $55 $-1 $251 forward single #
loop $-1 $-1 $252 $101 #
plane-surface $-1 0 0 -2.1518982512894067 0 0 -1 -1 0 0 forward_v I I I I #
loop $-1 $-1 $253 $71 #
coedge $-1 $162 $162 $252 $254 reversed $102 $-1 #
face $-1 $255 $256 $56 $-1 $257 reversed single #
loop $-1 $-1 $258 $104 #
plane-surface $-1 0 0 -122.86996063112278 0 0 1 1 0 0 forward_v I I I I #
coedge $-1 $259 $260 $261 $262 forward $105 $-1 #
face $-1 $-1 $263 $57 $-1 $264 forward single #
loop $-1 $-1 $265 $107 #
plane-surface $-1 0 0 -2.1518982512894067 0 0 -1 -1 0 0 forward_v I I I I #
loop $-1 $-1 $266 $73 #
coedge $-1 $171 $171 $265 $267 reversed $108 $-1 #
face $-1 $268 $269 $58 $-1 $270 reversed single #
loop $-1 $-1 $271 $110 #
plane-surface $-1 0 0 -122.86996063112278 0 0 1 1 0 0 forward_v I I I I #
coedge $-1 $272 $273 $274 $275 forward $111 $-1 #
face $-1 $-1 $276 $59 $-1 $277 forward single #
loop $-1 $-1 $278 $113 #
plane-surface $-1 0 0 -3.1165959654530475 0 0 -1 -1 0 0 forward_v I I I I #
loop $-1 $-1 $279 $75 #
coedge $-1 $180 $180 $278 $280 reversed $114 $-1 #
face $-1 $-1 $281 $60 $-1 $282 forward single #
loop $-1 $-1 $283 $116 #
plane-surface $-1 0 0 -3.1165959654530475 0 0 -1 -1 0 0 forward_v I I I I #
loop $-1 $-1 $284 $76 #
coedge $-1 $185 $185 $283 $285 reversed $117 $-1 #
face $-1 $286 $287 $61 $-1 $288 reversed single #
loop $-1 $-1 $289 $119 #
plane-surface $-1 0 0 -122.86996063112278 0 0 1 1 0 0 forward_v I I I I #
coedge $-1 $290 $291 $292 $293 forward $120 $-1 #
face $-1 $-1 $294 $62 $-1 $295 forward single #
loop $-1 $-1 $296 $122 #
plane-surface $-1 0 0 -3.1165959654530475 0 0 -1 -1 0 0 forward_v I I I I #
loop $-1 $-1 $297 $78 #
coedge $-1 $194 $194 $296 $298 reversed $123 $-1 #
face $-1 $-1 $299 $63 $-1 $300 forward single #
loop $-1 $-1 $301 $125 #
plane-surface $-1 0 0 -3.1165959654530475 0 0 -1 -1 0 0 forward_v I I I I #
loop $-1 $-1 $302 $79 #
coedge $-1 $199 $199 $301 $303 reversed $126 $-1 #
face $-1 $304 $305 $48 $-1 $306 reversed single #
loop $-1 $-1 $307 $128 #
plane-surface $-1 0 -26.497081188685915 0 0 1 0 0 0 1 forward_v I I I I #
coedge $-1 $308 $309 $310 $311 forward $129 $-1 #
coedge $-1 $312 $131 $313 $314 forward $81 $-1 #
coedge $-1 $131 $312 $315 $316 forward $81 $-1 #
coedge $-1 $317 $318 $131 $207 reversed $319 $-1 #
edge $-1 $320 -26.497081188685915 $321 26.497081188685915 $206 $322 forward 7 unknown #
face $-1 $323 $324 $49 $-1 $325 reversed single #
loop $-1 $-1 $326 $132 #
plane-surface $-1 0 -3.357616887587449 0 0 1 0 0 0 1 forward_v I I I I #
coedge $-1 $327 $328 $329 $330 forward $133 $-1 #
coedge $-1 $331 $135 $332 $333 forward $84 $-1 #
coedge $-1 $135 $331 $334 $335 forward $84 $-1 #
coedge $-1 $336 $337 $135 $215 reversed $338 $-1 #
edge $-1 $339 -3.357616887587449 $340 3.357616887587449 $214 $341 forward 7 unknown #
face $-1 $342 $343 $50 $-1 $344 reversed single #
loop $-1 $-1 $345 $136 #
plane-surface $-1 0 -3.1597661281802321 0 0 1 0 0 0 1 forward_v I I I I #
coedge $-1 $346 $347 $348 $349 forward $137 $-1 #
coedge $-1 $350 $139 $351 $352 forward $87 $-1 #
coedge $-1 $139 $350 $353 $354 forward $87 $-1 #
coedge $-1 $355 $356 $139 $223 reversed $357 $-1 #
edge $-1 $358 -3.1597661281802321 $359 3.1597661281802321 $222 $360 forward 7 unknown #
loop $-1 $361 $362 $140 #
cone-surface $-1 0 0 0 0 0 1 0.25 0 0 1 I I -0.70710678118654746 0.70710678118654746 0.25 forward I I I I #
coedge $-1 $226 $226 $144 $228 forward $141 $-1 #
coedge $-1 $227 $227 $362 $363 forward $143 $-1 #
edge $-1 $364 0 $364 6.2831853071796004 $226 $365 forward 7 unknown #
face $-1 $366 $367 $52 $-1 $368 reversed single #
loop $-1 $-1 $369 $145 #
plane-surface $-1 0 -3.1597661281802321 0 0 1 0 0 0 1 forward_v I I I I #
coedge $-1 $370 $371 $372 $373 forward $146 $-1 #
coedge $-1 $374 $148 $375 $376 forward $93 $-1 #
coedge $-1 $148 $374 $377 $378 forward $93 $-1 #
coedge $-1 $379 $380 $148 $236 reversed $381 $-1 #
edge $-1 $382 -3.1597661281802321 $383 3.1597661281802321 $235 $384 forward 7 unknown #
loop $-1 $385 $386 $149 #
cone-surface $-1 0 0 0 0 0 1 0.25 0 0 1 I I -0.70710678118654746 0.70710678118654746 0.25 forward I I I I #
coedge $-1 $239 $239 $153 $241 forward $150 $-1 #
coedge $-1 $240 $240 $386 $387 forward $152 $-1 #
edge $-1 $388 0 $388 6.2831853071796004 $239 $389 forward 7 unknown #
face $-1 $390 $391 $54 $-1 $392 reversed single #
loop $-1 $-1 $393 $154 #
plane-surface $-1 0 -3.1597661281802321 0 0 1 0 0 0 1 forward_v I I I I #
coedge $-1 $394 $395 $396 $397 forward $155 $-1 #
coedge $-1 $398 $157 $399 $400 forward $99 $-1 #
coedge $-1 $157 $398 $401 $402 forward $99 $-1 #
coedge $-1 $403 $404 $157 $249 reversed $405 $-1 #
edge $-1 $406 -3.1597661281802321 $407 3.1597661281802321 $248 $408 forward 7 unknown #
loop $-1 $409 $410 $158 #
cone-surface $-1 0 0 0 0 0 1 0.25 0 0 1 I I -0.70710678118654746 0.70710678118654746 0.25 forward I I I I #
coedge $-1 $252 $252 $162 $254 forward $159 $-1 #
coedge $-1 $253 $253 $410 $411 forward $161 $-1 #
edge $-1 $412 0 $412 6.2831853071796004 $252 $413 forward 7 unknown #
face $-1 $414 $415 $56 $-1 $416 reversed single #
loop $-1 $-1 $417 $163 #
plane-surface $-1 0 -3.1597661281802321 0 0 1 0 0 0 1 forward_v I I I I #
coedge $-1 $418 $419 $420 $421 forward $164 $-1 #
coedge $-1 $422 $166 $423 $424 forward $105 $-1 #
coedge $-1 $166 $422 $425 $426 forward $105 $-1 #
coedge $-1 $427 $428 $166 $262 reversed $429 $-1 #
edge $-1 $430 -3.1597661281802321 $431 3.1597661281802321 $261 $432 forward 7 unknown #
loop $-1 $433 $434 $167 #
cone-surface $-1 0 0 0 0 0 1 0.25 0 0 1 I I -0.70710678118654746 0.70710678118654746 0.25 forward I I I I #
coedge $-1 $265 $265 $171 $267 forward $168 $-1 #
coedge $-1 $266 $266 $434 $435 forward $170 $-1 #
edge $-1 $436 0 $436 6.2831853071796004 $265 $437 forward 7 unknown #
face $-1 $438 $439 $58 $-1 $440 reversed single #
loop $-1 $-1 $441 $172 #
plane-surface $-1 0 -4.8249894477483988 0 0 1 0 0 0 1 forward_v I I I I #
coedge $-1 $442 $443 $444 $445 forward $173 $-1 #
coedge $-1 $446 $175 $447 $448 forward $111 $-1 #
coedge $-1 $175 $446 $449 $450 forward $111 $-1 #
coedge $-1 $451 $452 $175 $275 reversed $453 $-1 #
edge $-1 $454 -4.8249894477483988 $455 4.8249894477483988 $274 $456 forward 7 unknown #
loop $-1 $457 $458 $176 #
cone-surface $-1 0 0 0 0 0 1 0.5 0 0 1 I I -0.70710678118654746 0.70710678118654746 0.5 forward I I I I #
coedge $-1 $278 $278 $180 $280 forward $177 $-1 #
coedge $-1 $279 $279 $458 $459 forward $179 $-1 #
edge $-1 $460 0 $460 6.2831853071796004 $278 $461 forward 7 unknown #
loop $-1 $462 $463 $181 #
cone-surface $-1 0 0 0 0 0 1 0.5 0 0 1 I I -0.70710678118654746 0.70710678118654746 0.5 forward I I I I #
coedge $-1 $283 $283 $185 $285 forward $182 $-1 #
coedge $-1 $284 $284 $463 $464 forward $184 $-1 #
edge $-1 $465 0 $465 6.2831853071796004 $283 $466 forward 7 unknown #
face $-1 $467 $468 $61 $-1 $469 reversed single #
loop $-1 $-1 $470 $186 #
plane-surface $-1 0 -4.8249894477483988 0 0 1 0 0 0 1 forward_v I I I I #
coedge $-1 $471 $472 $473 $474 forward $187 $-1 #
coedge $-1 $475 $189 $476 $477 forward $120 $-1 #
coedge $-1 $189 $475 $478 $479 forward $120 $-1 #
coedge $-1 $480 $481 $189 $293 reversed $482 $-1 #
edge $-1 $483 -4.8249894477483988 $484 4.8249894477483988 $292 $485 forward 7 unknown #
loop $-1 $486 $487 $190 #
cone-surface $-1 0 0 0 0 0 1 0.5 0 0 1 I I -0.70710678118654746 0.70710678118654746 0.5 forward I I I I #
coedge $-1 $296 $296 $194 $298 forward $191 $-1 #
coedge $-1 $297 $297 $487 $488 forward $193 $-1 #
edge $-1 $489 0 $489 6.2831853071796004 $296 $490 forward 7 unknown #
loop $-1 $491 $492 $195 #
cone-surface $-1 0 0 0 0 0 1 0.5 0 0 1 I I -0.70710678118654746 0.70710678118654746 0.5 forward I I I I #
coedge $-1 $301 $301 $199 $303 forward $196 $-1 #
coedge $-1 $302 $302 $492 $493 forward $198 $-1 #
edge $-1 $494 0 $494 6.2831853071796004 $301 $495 forward 7 unknown #
face $-1 $496 $497 $48 $-1 $498 reversed single #
loop $-1 $-1 $499 $200 #
plane-surface $-1 -61.43498031556139 0 0 1 0 0 0 0 -1 forward_v I I I I #
coedge $-1 $500 $315 $501 $502 forward $201 $-1 #
coedge $-1 $503 $203 $500 $504 forward $129 $-1 #
coedge $-1 $203 $503 $505 $506 forward $129 $-1 #
coedge $-1 $318 $317 $203 $311 reversed $319 $-1 #
edge $-1 $507 -26.497081188685915 $508 26.497081188685915 $310 $509 forward 7 unknown #
coedge $-1 $205 $204 $510 $511 forward $81 $-1 #
coedge $-1 $512 $513 $204 $314 reversed $497 $-1 #
edge $-1 $321 -61.43498031556139 $514 61.43498031556139 $313 $515 forward 7 unknown #
coedge $-1 $307 $516 $205 $316 reversed $201 $-1 #
edge $-1 $517 -61.43498031556139 $320 61.43498031556139 $315 $518 forward 7 unknown #
coedge $-1 $310 $206 $516 $519 forward $319 $-1 #
coedge $-1 $206 $310 $512 $520 reversed $319 $-1 #
loop $-1 $-1 $317 $496 #
vertex $-1 $207 $521 #
vertex $-1 $207 $522 #
straight-curve $-1 61.43498031556139 0 6.5512086410724226 0 1 0 I I #
face $-1 $523 $524 $49 $-1 $525 reversed single #
loop $-1 $-1 $526 $208 #
plane-surface $-1 -61.43498031556139 0 0 1 0 0 0 0 -1 forward_v I I I I #
coedge $-1 $527 $334 $528 $529 forward $209 $-1 #
coedge $-1 $530 $211 $527 $531 forward $133 $-1 #
coedge $-1 $211 $530 $532 $533 forward $133 $-1 #
coedge $-1 $337 $336 $211 $330 reversed $338 $-1 #
edge $-1 $534 -3.357616887587449 $535 3.357616887587449 $329 $536 forward 7 unknown #
coedge $-1 $213 $212 $537 $538 forward $84 $-1 #
coedge $-1 $539 $540 $212 $333 reversed $524 $-1 #
edge $-1 $340 -61.43498031556139 $541 61.43498031556139 $332 $542 forward 7 unknown #
coedge $-1 $326 $543 $213 $335 reversed $209 $-1 #
edge $-1 $544 -61.43498031556139 $339 61.43498031556139 $334 $545 forward 7 unknown #
coedge $-1 $329 $214 $543 $546 forward $338 $-1 #
coedge $-1 $214 $329 $539 $547 reversed $338 $-1 #
loop $-1 $-1 $336 $523 #
vertex $-1 $215 $548 #
vertex $-1 $215 $549 #
straight-curve $-1 61.43498031556139 0 1.5 0 1 0 I I #
face $-1 $550 $551 $50 $-1 $552 reversed single #
loop $-1 $-1 $553 $216 #
plane-surface $-1 -245.73992126224556 0 0 1 0 0 0 0 -1 forward_v I I I I #
coedge $-1 $554 $353 $555 $556 forward $217 $-1 #
coedge $-1 $557 $219 $554 $558 forward $137 $-1 #
coedge $-1 $219 $557 $559 $560 forward $137 $-1 #
coedge $-1 $356 $355 $219 $349 reversed $357 $-1 #
edge $-1 $561 -3.1597661281802321 $562 3.1597661281802321 $348 $563 forward 7 unknown #
coedge $-1 $221 $220 $564 $565 forward $87 $-1 #
coedge $-1 $566 $567 $220 $352 reversed $551 $-1 #
edge $-1 $359 -245.73992126224556 $568 245.73992126224556 $351 $569 forward 7 unknown #
coedge $-1 $345 $570 $221 $354 reversed $217 $-1 #
edge $-1 $571 -245.73992126224556 $358 245.73992126224556 $353 $572 forward 7 unknown #
coedge $-1 $348 $222 $570 $573 forward $357 $-1 #
coedge $-1 $222 $348 $566 $574 reversed $357 $-1 #
loop $-1 $-1 $355 $550 #
vertex $-1 $223 $575 #
vertex $-1 $223 $576 #
straight-curve $-1 245.73992126224556 0 122.86996063112278 0 1 0 I I #
loop $-1 $-1 $577 $140 #
coedge $-1 $362 $362 $227 $363 reversed $224 $-1 #
edge $-1 $578 0 $578 6.2831853071796004 $362 $579 forward 7 unknown #
vertex $-1 $228 $580 #
ellipse-curve $-1 0 0 -2.1518982512894067 0 0 -1 0.5 0 0 1 I I #
face $-1 $581 $582 $52 $-1 $583 reversed single #
loop $-1 $-1 $584 $229 #
plane-surface $-1 -245.73992126224556 0 0 1 0 0 0 0 -1 forward_v I I I I #
coedge $-1 $585 $377 $586 $587 forward $230 $-1 #
coedge $-1 $588 $232 $585 $589 forward $146 $-1 #
coedge $-1 $232 $588 $590 $591 forward $146 $-1 #
coedge $-1 $380 $379 $232 $373 reversed $381 $-1 #
edge $-1 $592 -3.1597661281802321 $593 3.1597661281802321 $372 $594 forward 7 unknown #
coedge $-1 $234 $233 $595 $596 forward $93 $-1 #
coedge $-1 $597 $598 $233 $376 reversed $582 $-1 #
edge $-1 $383 -245.73992126224556 $599 245.73992126224556 $375 $600 forward 7 unknown #
coedge $-1 $369 $601 $234 $378 reversed $230 $-1 #
edge $-1 $602 -245.73992126224556 $382 245.73992126224556 $377 $603 forward 7 unknown #
coedge $-1 $372 $235 $601 $604 forward $381 $-1 #
coedge $-1 $235 $372 $597 $605 reversed $381 $-1 #
loop $-1 $-1 $379 $581 #
vertex $-1 $236 $606 #
vertex $-1 $236 $607 #
straight-curve $-1 245.73992126224556 0 122.86996063112278 0 1 0 I I #
loop $-1 $-1 $608 $149 #
coedge $-1 $386 $386 $240 $387 reversed $237 $-1 #
edge $-1 $609 0 $609 6.2831853071796004 $386 $610 forward 7 unknown #
vertex $-1 $241 $611 #
ellipse-curve $-1 0 0 -2.1518982512894067 0 0 -1 0.5 0 0 1 I I #
face $-1 $612 $613 $54 $-1 $614 reversed single #
loop $-1 $-1 $615 $242 #
plane-surface $-1 -245.73992126224556 0 0 1 0 0 0 0 -1 forward_v I I I I #
coedge $-1 $616 $401 $617 $618 forward $243 $-1 #
coedge $-1 $619 $245 $616 $620 forward $155 $-1 #
coedge $-1 $245 $619 $621 $622 forward $155 $-1 #
coedge $-1 $404 $403 $245 $397 reversed $405 $-1 #
edge $-1 $623 -3.1597661281802321 $624 3.1597661281802321 $396 $625 forward 7 unknown #
coedge $-1 $247 $246 $626 $627 forward $99 $-1 #
coedge $-1 $628 $629 $246 $400 reversed $613 $-1 #
edge $-1 $407 -245.73992126224556 $630 245.73992126224556 $399 $631 forward 7 unknown #
coedge $-1 $393 $632 $247 $402 reversed $243 $-1 #
edge $-1 $633 -245.73992126224556 $406 245.73992126224556 $401 $634 forward 7 unknown #
coedge $-1 $396 $248 $632 $635 forward $405 $-1 #
coedge $-1 $248 $396 $628 $636 reversed $405 $-1 #
loop $-1 $-1 $403 $612 #
vertex $-1 $249 $637 #
vertex $-1 $249 $638 #
straight-curve $-1 245.73992126224556 0 122.86996063112278 0 1 0 I I #
loop $-1 $-1 $639 $158 #
coedge $-1 $410 $410 $253 $411 reversed $250 $-1 #
edge $-1 $640 0 $640 6.2831853071796004 $410 $641 forward 7 unknown #
vertex $-1 $254 $642 #
ellipse-curve $-1 0 0 -2.1518982512894067 0 0 -1 0.5 0 0 1 I I #
face $-1 $643 $644 $56 $-1 $645 reversed single #
loop $-1 $-1 $646 $255 #
plane-surface $-1 -245.73992126224556 0 0 1 0 0 0 0 -1 forward_v I I I I #
coedge $-1 $647 $425 $648 $649 forward $256 $-1 #
coedge $-1 $650 $258 $647 $651 forward $164 $-1 #
coedge $-1 $258 $650 $652 $653 forward $164 $-1 #
coedge $-1 $428 $427 $258 $421 reversed $429 $-1 #
edge $-1 $654 -3.1597661281802321 $655 3.1597661281802321 $420 $656 forward 7 unknown #
coedge $-1 $260 $259 $657 $658 forward $105 $-1 #
coedge $-1 $659 $660 $259 $424 reversed $644 $-1 #
edge $-1 $431 -245.73992126224556 $661 245.73992126224556 $423 $662 forward 7 unknown #
coedge $-1 $417 $663 $260 $426 reversed $256 $-1 #
edge $-1 $664 -245.73992126224556 $430 245.73992126224556 $425 $665 forward 7 unknown #
coedge $-1 $420 $261 $663 $666 forward $429 $-1 #
coedge $-1 $261 $420 $659 $667 reversed $429 $-1 #
loop $-1 $-1 $427 $643 #
vertex $-1 $262 $668 #
vertex $-1 $262 $669 #
straight-curve $-1 245.73992126224556 0 122.86996063112278 0 1 0 I I #
loop $-1 $-1 $670 $167 #
coedge $-1 $434 $434 $266 $435 reversed $263 $-1 #
edge $-1 $671 0 $671 6.2831853071796004 $434 $672 forward 7 unknown #
vertex $-1 $267 $673 #
ellipse-curve $-1 0 0 -2.1518982512894067 0 0 -1 0.5 0 0 1 I I #
face $-1 $674 $675 $58 $-1 $676 reversed single #
loop $-1 $-1 $677 $268 #
plane-surface $-1 -245.73992126224556 0 0 1 0 0 0 0 -1 forward_v I I I I #
coedge $-1 $678 $449 $679 $680 forward $269 $-1 #
coedge $-1 $681 $271 $678 $682 forward $173 $-1 #
coedge $-1 $271 $681 $683 $684 forward $173 $-1 #
coedge $-1 $452 $451 $271 $445 reversed $453 $-1 #
edge $-1 $685 -4.8249894477483988 $686 4.8249894477483988 $444 $687 forward 7 unknown #
coedge $-1 $273 $272 $688 $689 forward $111 $-1 #
coedge $-1 $690 $691 $272 $448 reversed $675 $-1 #
edge $-1 $455 -245.73992126224556 $692 245.73992126224556 $447 $693 forward 7 unknown #
coedge $-1 $441 $694 $273 $450 reversed $269 $-1 #
edge $-1 $695 -245.73992126224556 $454 245.73992126224556 $449 $696 forward 7 unknown #
coedge $-1 $444 $274 $694 $697 forward $453 $-1 #
coedge $-1 $274 $444 $690 $698 reversed $453 $-1 #
loop $-1 $-1 $451 $674 #
vertex $-1 $275 $699 #
vertex $-1 $275 $700 #
straight-curve $-1 245.73992126224556 0 122.86996063112278 0 1 0 I I #
loop $-1 $-1 $701 $176 #
coedge $-1 $458 $458 $279 $459 reversed $276 $-1 #
edge $-1 $702 0 $702 6.2831853071796004 $458 $703 forward 7 unknown #
vertex $-1 $280 $704 #
ellipse-curve $-1 0 0 -3.1165959654530475 0 0 -1 1 0 0 1 I I #
loop $-1 $-1 $705 $181 #
coedge $-1 $463 $463 $284 $464 reversed $281 $-1 #
edge $-1 $706 0 $706 6.2831853071796004 $463 $707 forward 7 unknown #
vertex $-1 $285 $708 #
ellipse-curve $-1 0 0 -3.1165959654530475 0 0 -1 1 0 0 1 I I #
face $-1 $709 $710 $61 $-1 $711 reversed single #
loop $-1 $-1 $712 $286 #
plane-surface $-1 -245.73992126224556 0 0 1 0 0 0 0 -1 forward_v I I I I #
coedge $-1 $713 $478 $714 $715 forward $287 $-1 #
coedge $-1 $716 $289 $713 $717 forward $187 $-1 #
coedge $-1 $289 $716 $718 $719 forward $187 $-1 #
coedge $-1 $481 $480 $289 $474 reversed $482 $-1 #
edge $-1 $720 -4.8249894477483988 $721 4.8249894477483988 $473 $722 forward 7 unknown #
coedge $-1 $291 $290 $723 $724 forward $120 $-1 #
coedge $-1 $725 $726 $290 $477 reversed $710 $-1 #
edge $-1 $484 -245.73992126224556 $727 245.73992126224556 $476 $728 forward 7 unknown #
coedge $-1 $470 $729 $291 $479 reversed $287 $-1 #
edge $-1 $730 -245.73992126224556 $483 245.73992126224556 $478 $731 forward 7 unknown #
coedge $-1 $473 $292 $729 $732 forward $482 $-1 #
coedge $-1 $292 $473 $725 $733 reversed $482 $-1 #
loop $-1 $-1 $480 $709 #
vertex $-1 $293 $734 #
vertex $-1 $293 $735 #
straight-curve $-1 245.73992126224556 0 122.86996063112278 0 1 0 I I #
loop $-1 $-1 $736 $190 #
coedge $-1 $487 $487 $297 $488 reversed $294 $-1 #
edge $-1 $737 0 $737 6.2831853071796004 $487 $738 forward 7 unknown #
vertex $-1 $298 $739 #
ellipse-curve $-1 0 0 -3.1165959654530475 0 0 -1 1 0 0 1 I I #
loop $-1 $-1 $740 $195 #
coedge $-1 $492 $492 $302 $493 reversed $299 $-1 #
edge $-1 $741 0 $741 6.2831853071796004 $492 $742 forward 7 unknown #
vertex $-1 $303 $743 #
ellipse-curve $-1 0 0 -3.1165959654530475 0 0 -1 1 0 0 1 I I #
face $-1 $-1 $319 $48 $-1 $744 reversed single #
loop $-1 $-1 $512 $304 #
plane-surface $-1 0 26.497081188685915 0 0 -1 0 0 0 -1 forward_v I I I I #
coedge $-1 $745 $510 $513 $746 forward $305 $-1 #
coedge $-1 $516 $307 $308 $504 reversed $201 $-1 #
coedge $-1 $510 $745 $307 $502 reversed $305 $-1 #
edge $-1 $517 -6.5512086410724226 $747 6.5512086410724226 $501 $748 forward 7 unknown #
coedge $-1 $309 $308 $745 $749 forward $129 $-1 #
edge $-1 $508 -61.43498031556139 $747 61.43498031556139 $500 $750 forward 7 unknown #
coedge $-1 $513 $512 $309 $506 reversed $497 $-1 #
edge $-1 $751 -61.43498031556139 $507 61.43498031556139 $505 $752 forward 7 unknown #
vertex $-1 $311 $753 #
vertex $-1 $519 $754 #
straight-curve $-1 61.43498031556139 0 -6.5512086410724226 0 -1 0 I I #
coedge $-1 $499 $501 $312 $511 reversed $305 $-1 #
edge $-1 $514 -26.497081188685915 $517 26.497081188685915 $510 $755 forward 7 unknown #
coedge $-1 $505 $313 $318 $520 forward $497 $-1 #
coedge $-1 $313 $505 $499 $746 reversed $497 $-1 #
vertex $-1 $314 $756 #
straight-curve $-1 0 26.497081188685915 6.5512086410724226 -1 0 0 I I #
coedge $-1 $315 $500 $317 $519 reversed $201 $-1 #
vertex $-1 $511 $757 #
straight-curve $-1 0 -26.497081188685915 6.5512086410724226 1 0 0 I I #
edge $-1 $320 -6.5512086410724226 $508 6.5512086410724226 $317 $758 forward 7 unknown #
edge $-1 $321 -6.5512086410724226 $507 6.5512086410724226 $318 $759 forward 7 unknown #
point $-1 61.43498031556139 -26.497081188685915 6.5512086410724226 #
point $-1 61.43498031556139 26.497081188685915 6.5512086410724226 #
face $-1 $-1 $338 $49 $-1 $760 reversed single #
loop $-1 $-1 $539 $323 #
plane-surface $-1 0 3.357616887587449 0 0 -1 0 0 0 -1 forward_v I I I I #
coedge $-1 $761 $537 $540 $762 forward $324 $-1 #
coedge $-1 $543 $326 $327 $531 reversed $209 $-1 #
coedge $-1 $537 $761 $326 $529 reversed $324 $-1 #
edge $-1 $544 -1.5 $763 1.5 $528 $764 forward 7 unknown #
coedge $-1 $328 $327 $761 $765 forward $133 $-1 #
edge $-1 $535 -61.43498031556139 $763 61.43498031556139 $527 $766 forward 7 unknown #
coedge $-1 $540 $539 $328 $533 reversed $524 $-1 #
edge $-1 $767 -61.43498031556139 $534 61.43498031556139 $532 $768 forward 7 unknown #
vertex $-1 $330 $769 #
vertex $-1 $546 $770 #
straight-curve $-1 61.43498031556139 0 -1.5 0 -1 0 I I #
coedge $-1 $526 $528 $331 $538 reversed $324 $-1 #
edge $-1 $541 -3.357616887587449 $544 3.357616887587449 $537 $771 forward 7 unknown #
coedge $-1 $532 $332 $337 $547 forward $524 $-1 #
coedge $-1 $332 $532 $526 $762 reversed $524 $-1 #
vertex $-1 $333 $772 #
straight-curve $-1 0 3.357616887587449 1.5 -1 0 0 I I #
coedge $-1 $334 $527 $336 $546 reversed $209 $-1 #
vertex $-1 $538 $773 #
straight-curve $-1 0 -3.357616887587449 1.5 1 0 0 I I #
edge $-1 $339 -1.5 $535 1.5 $336 $774 forward 7 unknown #
edge $-1 $340 -1.5 $534 1.5 $337 $775 forward 7 unknown #
point $-1 61.43498031556139 -3.357616887587449 1.5 #
point $-1 61.43498031556139 3.357616887587449 1.5 #
face $-1 $-1 $357 $50 $-1 $776 reversed single #
loop $-1 $-1 $566 $342 #
plane-surface $-1 0 3.1597661281802321 0 0 -1 0 0 0 -1 forward_v I I I I #
coedge $-1 $777 $564 $567 $778 forward $343 $-1 #
coedge $-1 $570 $345 $346 $558 reversed $217 $-1 #
coedge $-1 $564 $777 $345 $556 reversed $343 $-1 #
edge $-1 $571 -122.86996063112278 $779 122.86996063112278 $555 $780 forward 7 unknown #
coedge $-1 $347 $346 $777 $781 forward $137 $-1 #
edge $-1 $562 -245.73992126224556 $779 245.73992126224556 $554 $782 forward 7 unknown #
coedge $-1 $567 $566 $347 $560 reversed $551 $-1 #
edge $-1 $783 -245.73992126224556 $561 245.73992126224556 $559 $784 forward 7 unknown #
vertex $-1 $349 $785 #
vertex $-1 $573 $786 #
straight-curve $-1 245.73992126224556 0 -122.86996063112278 0 -1 0 I I #
coedge $-1 $553 $555 $350 $565 reversed $343 $-1 #
edge $-1 $568 -3.1597661281802321 $571 3.1597661281802321 $564 $787 forward 7 unknown #
coedge $-1 $559 $351 $356 $574 forward $551 $-1 #
coedge $-1 $351 $559 $553 $778 reversed $551 $-1 #
vertex $-1 $352 $788 #
straight-curve $-1 0 3.1597661281802321 122.86996063112278 -1 0 0 I I #
coedge $-1 $353 $554 $355 $573 reversed $217 $-1 #
vertex $-1 $565 $789 #
straight-curve $-1 0 -3.1597661281802321 122.86996063112278 1 0 0 I I #
edge $-1 $358 -122.86996063112278 $562 122.86996063112278 $355 $790 forward 7 unknown #
edge $-1 $359 -122.86996063112278 $561 122.86996063112278 $356 $791 forward 7 unknown #
point $-1 245.73992126224556 -3.1597661281802321 122.86996063112278 #
point $-1 245.73992126224556 3.1597661281802321 122.86996063112278 #
coedge $-1 $577 $577 $-1 $792 reversed $361 $-1 #
vertex $-1 $363 $793 #
ellipse-curve $-1 0 0 -0.25 0 0 -1 0.5 0 0 1 I I #
point $-1 0.5 0 -2.1518982512894067 #
face $-1 $-1 $381 $52 $-1 $794 reversed single #
loop $-1 $-1 $597 $366 #
plane-surface $-1 0 3.1597661281802321 0 0 -1 0 0 0 -1 forward_v I I I I #
coedge $-1 $795 $595 $598 $796 forward $367 $-1 #
coedge $-1 $601 $369 $370 $589 reversed $230 $-1 #
coedge $-1 $595 $795 $369 $587 reversed $367 $-1 #
edge $-1 $602 -122.86996063112278 $797 122.86996063112278 $586 $798 forward 7 unknown #
coedge $-1 $371 $370 $795 $799 forward $146 $-1 #
edge $-1 $593 -245.73992126224556 $797 245.73992126224556 $585 $800 forward 7 unknown #
coedge $-1 $598 $597 $371 $591 reversed $582 $-1 #
edge $-1 $801 -245.73992126224556 $592 245.73992126224556 $590 $802 forward 7 unknown #
vertex $-1 $373 $803 #
vertex $-1 $604 $804 #
straight-curve $-1 245.73992126224556 0 -122.86996063112278 0 -1 0 I I #
coedge $-1 $584 $586 $374 $596 reversed $367 $-1 #
edge $-1 $599 -3.1597661281802321 $602 3.1597661281802321 $595 $805 forward 7 unknown #
coedge $-1 $590 $375 $380 $605 forward $582 $-1 #
coedge $-1 $375 $590 $584 $796 reversed $582 $-1 #
vertex $-1 $376 $806 #
straight-curve $-1 0 3.1597661281802321 122.86996063112278 -1 0 0 I I #
coedge $-1 $377 $585 $379 $604 reversed $230 $-1 #
vertex $-1 $596 $807 #
straight-curve $-1 0 -3.1597661281802321 122.86996063112278 1 0 0 I I #
edge $-1 $382 -122.86996063112278 $593 122.86996063112278 $379 $808 forward 7 unknown #
edge $-1 $383 -122.86996063112278 $592 122.86996063112278 $380 $809 forward 7 unknown #
point $-1 245.73992126224556 -3.1597661281802321 122.86996063112278 #
point $-1 245.73992126224556 3.1597661281802321 122.86996063112278 #
coedge $-1 $608 $608 $-1 $810 reversed $385 $-1 #
vertex $-1 $387 $811 #
ellipse-curve $-1 0 0 -0.25 0 0 -1 0.5 0 0 1 I I #
point $-1 0.5 0 -2.1518982512894067 #
face $-1 $-1 $405 $54 $-1 $812 reversed single #
loop $-1 $-1 $628 $390 #
plane-surface $-1 0 3.1597661281802321 0 0 -1 0 0 0 -1 forward_v I I I I #
coedge $-1 $813 $626 $629 $814 forward $391 $-1 #
coedge $-1 $632 $393 $394 $620 reversed $243 $-1 #
coedge $-1 $626 $813 $393 $618 reversed $391 $-1 #
edge $-1 $633 -122.86996063112278 $815 122.86996063112278 $617 $816 forward 7 unknown #
coedge $-1 $395 $394 $813 $817 forward $155 $-1 #
edge $-1 $624 -245.73992126224556 $815 245.73992126224556 $616 $818 forward 7 unknown #
coedge $-1 $629 $628 $395 $622 reversed $613 $-1 #
edge $-1 $819 -245.73992126224556 $623 245.73992126224556 $621 $820 forward 7 unknown #
vertex $-1 $397 $821 #
vertex $-1 $635 $822 #
straight-curve $-1 245.73992126224556 0 -122.86996063112278 0 -1 0 I I #
coedge $-1 $615 $617 $398 $627 reversed $391 $-1 #
edge $-1 $630 -3.1597661281802321 $633 3.1597661281802321 $626 $823 forward 7 unknown #
coedge $-1 $621 $399 $404 $636 forward $613 $-1 #
coedge $-1 $399 $621 $615 $814 reversed $613 $-1 #
vertex $-1 $400 $824 #
straight-curve $-1 0 3.1597661281802321 122.86996063112278 -1 0 0 I I #
coedge $-1 $401 $616 $403 $635 reversed $243 $-1 #
vertex $-1 $627 $825 #
straight-curve $-1 0 -3.1597661281802321 122.86996063112278 1 0 0 I I #
edge $-1 $406 -122.86996063112278 $624 122.86996063112278 $403 $826 forward 7 unknown #
edge $-1 $407 -122.86996063112278 $623 122.86996063112278 $404 $827 forward 7 unknown #
point $-1 245.73992126224556 -3.1597661281802321 122.86996063112278 #
point $-1 245.73992126224556 3.1597661281802321 122.86996063112278 #
coedge $-1 $639 $639 $-1 $828 reversed $409 $-1 #
vertex $-1 $411 $829 #
ellipse-curve $-1 0 0 -0.25 0 0 -1 0.5 0 0 1 I I #
point $-1 0.5 0 -2.1518982512894067 #
face $-1 $-1 $429 $56 $-1 $830 reversed single #
loop $-1 $-1 $659 $414 #
plane-surface $-1 0 3.1597661281802321 0 0 -1 0 0 0 -1 forward_v I I I I #
coedge $-1 $831 $657 $660 $832 forward $415 $-1 #
coedge $-1 $663 $417 $418 $651 reversed $256 $-1 #
coedge $-1 $657 $831 $417 $649 reversed $415 $-1 #
edge $-1 $664 -122.86996063112278 $833 122.86996063112278 $648 $834 forward 7 unknown #
coedge $-1 $419 $418 $831 $835 forward $164 $-1 #
edge $-1 $655 -245.73992126224556 $833 245.73992126224556 $647 $836 forward 7 unknown #
coedge $-1 $660 $659 $419 $653 reversed $644 $-1 #
edge $-1 $837 -245.73992126224556 $654 245.73992126224556 $652 $838 forward 7 unknown #
vertex $-1 $421 $839 #
vertex $-1 $666 $840 #
straight-curve $-1 245.73992126224556 0 -122.86996063112278 0 -1 0 I I #
coedge $-1 $646 $648 $422 $658 reversed $415 $-1 #
edge $-1 $661 -3.1597661281802321 $664 3.1597661281802321 $657 $841 forward 7 unknown #
coedge $-1 $652 $423 $428 $667 forward $644 $-1 #
coedge $-1 $423 $652 $646 $832 reversed $644 $-1 #
vertex $-1 $424 $842 #
straight-curve $-1 0 3.1597661281802321 122.86996063112278 -1 0 0 I I #
coedge $-1 $425 $647 $427 $666 reversed $256 $-1 #
vertex $-1 $658 $843 #
straight-curve $-1 0 -3.1597661281802321 122.86996063112278 1 0 0 I I #
edge $-1 $430 -122.86996063112278 $655 122.86996063112278 $427 $844 forward 7 unknown #
edge $-1 $431 -122.86996063112278 $654 122.86996063112278 $428 $845 forward 7 unknown #
point $-1 245.73992126224556 -3.1597661281802321 122.86996063112278 #
point $-1 245.73992126224556 3.1597661281802321 122.86996063112278 #
coedge $-1 $670 $670 $-1 $846 reversed $433 $-1 #
vertex $-1 $435 $847 #
ellipse-curve $-1 0 0 -0.25 0 0 -1 0.5 0 0 1 I I #
point $-1 0.5 0 -2.1518982512894067 #
face $-1 $-1 $453 $58 $-1 $848 reversed single #
loop $-1 $-1 $690 $438 #
plane-surface $-1 0 4.8249894477483988 0 0 -1 0 0 0 -1 forward_v I I I I #
coedge $-1 $849 $688 $691 $850 forward $439 $-1 #
coedge $-1 $694 $441 $442 $682 reversed $269 $-1 #
coedge $-1 $688 $849 $441 $680 reversed $439 $-1 #
edge $-1 $695 -122.86996063112278 $851 122.86996063112278 $679 $852 forward 7 unknown #
coedge $-1 $443 $442 $849 $853 forward $173 $-1 #
edge $-1 $686 -245.73992126224556 $851 245.73992126224556 $678 $854 forward 7 unknown #
coedge $-1 $691 $690 $443 $684 reversed $675 $-1 #
edge $-1 $855 -245.73992126224556 $685 245.73992126224556 $683 $856 forward 7 unknown #
vertex $-1 $445 $857 #
vertex $-1 $697 $858 #
straight-curve $-1 245.73992126224556 0 -122.86996063112278 0 -1 0 I I #
coedge $-1 $677 $679 $446 $689 reversed $439 $-1 #
edge $-1 $692 -4.8249894477483988 $695 4.8249894477483988 $688 $859 forward 7 unknown #
coedge $-1 $683 $447 $452 $698 forward $675 $-1 #
coedge $-1 $447 $683 $677 $850 reversed $675 $-1 #
vertex $-1 $448 $860 #
straight-curve $-1 0 4.8249894477483988 122.86996063112278 -1 0 0 I I #
coedge $-1 $449 $678 $451 $697 reversed $269 $-1 #
vertex $-1 $689 $861 #
straight-curve $-1 0 -4.8249894477483988 122.86996063112278 1 0 0 I I #
edge $-1 $454 -122.86996063112278 $686 122.86996063112278 $451 $862 forward 7 unknown #
edge $-1 $455 -122.86996063112278 $685 122.86996063112278 $452 $863 forward 7 unknown #
point $-1 245.73992126224556 -4.8249894477483988 122.86996063112278 #
point $-1 245.73992126224556 4.8249894477483988 122.86996063112278 #
coedge $-1 $701 $701 $-1 $864 reversed $457 $-1 #
vertex $-1 $459 $865 #
ellipse-curve $-1 0 0 -0.5 0 0 -1 1 0 0 1 I I #
point $-1 1 0 -3.1165959654530475 #
coedge $-1 $705 $705 $-1 $866 reversed $462 $-1 #
vertex $-1 $464 $867 #
ellipse-curve $-1 0 0 -0.5 0 0 -1 1 0 0 1 I I #
point $-1 1 0 -3.1165959654530475 #
face $-1 $-1 $482 $61 $-1 $868 reversed single #
loop $-1 $-1 $725 $467 #
plane-surface $-1 0 4.8249894477483988 0 0 -1 0 0 0 -1 forward_v I I I I #
coedge $-1 $869 $723 $726 $870 forward $468 $-1 #
coedge $-1 $729 $470 $471 $717 reversed $287 $-1 #
coedge $-1 $723 $869 $470 $715 reversed $468 $-1 #
edge $-1 $730 -122.86996063112278 $871 122.86996063112278 $714 $872 forward 7 unknown #
coedge $-1 $472 $471 $869 $873 forward $187 $-1 #
edge $-1 $721 -245.73992126224556 $871 245.73992126224556 $713 $874 forward 7 unknown #
coedge $-1 $726 $725 $472 $719 reversed $710 $-1 #
edge $-1 $875 -245.73992126224556 $720 245.73992126224556 $718 $876 forward 7 unknown #
vertex $-1 $474 $877 #
vertex $-1 $732 $878 #
straight-curve $-1 245.73992126224556 0 -122.86996063112278 0 -1 0 I I #
coedge $-1 $712 $714 $475 $724 reversed $468 $-1 #
edge $-1 $727 -4.8249894477483988 $730 4.8249894477483988 $723 $879 forward 7 unknown #
coedge $-1 $718 $476 $481 $733 forward $710 $-1 #
coedge $-1 $476 $718 $712 $870 reversed $710 $-1 #
vertex $-1 $477 $880 #
straight-curve $-1 0 4.8249894477483988 122.86996063112278 -1 0 0 I I #
coedge $-1 $478 $713 $480 $732 reversed $287 $-1 #
vertex $-1 $724 $881 #
straight-curve $-1 0 -4.8249894477483988 122.86996063112278 1 0 0 I I #
edge $-1 $483 -122.86996063112278 $721 122.86996063112278 $480 $882 forward 7 unknown #
edge $-1 $484 -122.86996063112278 $720 122.86996063112278 $481 $883 forward 7 unknown #
point $-1 245.73992126224556 -4.8249894477483988 122.86996063112278 #
point $-1 245.73992126224556 4.8249894477483988 122.86996063112278 #
coedge $-1 $736 $736 $-1 $884 reversed $486 $-1 #
vertex $-1 $488 $885 #
ellipse-curve $-1 0 0 -0.5 0 0 -1 1 0 0 1 I I #
point $-1 1 0 -3.1165959654530475 #
coedge $-1 $740 $740 $-1 $886 reversed $491 $-1 #
vertex $-1 $493 $887 #
ellipse-curve $-1 0 0 -0.5 0 0 -1 1 0 0 1 I I #
point $-1 1 0 -3.1165959654530475 #
plane-surface $-1 61.43498031556139 0 0 -1 0 0 0 0 1 forward_v I I I I #
coedge $-1 $501 $499 $503 $749 reversed $305 $-1 #
edge $-1 $514 -6.5512086410724226 $751 6.5512086410724226 $513 $888 forward 7 unknown #
vertex $-1 $749 $889 #
straight-curve $-1 -61.43498031556139 -26.497081188685915 0 0 0 -1 I I #
edge $-1 $747 -26.497081188685915 $751 26.497081188685915 $745 $890 forward 7 unknown #
straight-curve $-1 0 -26.497081188685915 -6.5512086410724226 -1 0 0 I I #
vertex $-1 $506 $891 #
straight-curve $-1 0 26.497081188685915 -6.5512086410724226 1 0 0 I I #
point $-1 61.43498031556139 26.497081188685915 -6.5512086410724226 #
point $-1 61.43498031556139 -26.497081188685915 -6.5512086410724226 #
straight-curve $-1 -61.43498031556139 0 6.5512086410724226 0 -1 0 I I #
point $-1 -61.43498031556139 26.497081188685915 6.5512086410724226 #
point $-1 -61.43498031556139 -26.497081188685915 6.5512086410724226 #
straight-curve $-1 61.43498031556139 -26.497081188685915 0 0 0 -1 I I #
straight-curve $-1 61.43498031556139 26.497081188685915 0 0 0 -1 I I #
plane-surface $-1 61.43498031556139 0 0 -1 0 0 0 0 1 forward_v I I I I #
coedge $-1 $528 $526 $530 $765 reversed $324 $-1 #
edge $-1 $541 -1.5 $767 1.5 $540 $892 forward 7 unknown #
vertex $-1 $765 $893 #
straight-curve $-1 -61.43498031556139 -3.357616887587449 0 0 0 -1 I I #
edge $-1 $763 -3.357616887587449 $767 3.357616887587449 $761 $894 forward 7 unknown #
straight-curve $-1 0 -3.357616887587449 -1.5 -1 0 0 I I #
vertex $-1 $533 $895 #
straight-curve $-1 0 3.357616887587449 -1.5 1 0 0 I I #
point $-1 61.43498031556139 3.357616887587449 -1.5 #
point $-1 61.43498031556139 -3.357616887587449 -1.5 #
straight-curve $-1 -61.43498031556139 0 1.5 0 -1 0 I I #
point $-1 -61.43498031556139 3.357616887587449 1.5 #
point $-1 -61.43498031556139 -3.357616887587449 1.5 #
straight-curve $-1 61.43498031556139 -3.357616887587449 0 0 0 -1 I I #
straight-curve $-1 61.43498031556139 3.357616887587449 0 0 0 -1 I I #
plane-surface $-1 245.73992126224556 0 0 -1 0 0 0 0 1 forward_v I I I I #
coedge $-1 $555 $553 $557 $781 reversed $343 $-1 #
edge $-1 $568 -122.86996063112278 $783 122.86996063112278 $567 $896 forward 7 unknown #
vertex $-1 $781 $897 #
straight-curve $-1 -245.73992126224556 -3.1597661281802321 0 0 0 -1 I I #
edge $-1 $779 -3.1597661281802321 $783 3.1597661281802321 $777 $898 forward 7 unknown #
straight-curve $-1 0 -3.1597661281802321 -122.86996063112278 -1 0 0 I I #
vertex $-1 $560 $899 #
straight-curve $-1 0 3.1597661281802321 -122.86996063112278 1 0 0 I I #
point $-1 245.73992126224556 3.1597661281802321 -122.86996063112278 #
point $-1 245.73992126224556 -3.1597661281802321 -122.86996063112278 #
straight-curve $-1 -245.73992126224556 0 122.86996063112278 0 -1 0 I I #
point $-1 -245.73992126224556 3.1597661281802321 122.86996063112278 #
point $-1 -245.73992126224556 -3.1597661281802321 122.86996063112278 #
straight-curve $-1 245.73992126224556 -3.1597661281802321 0 0 0 -1 I I #
straight-curve $-1 245.73992126224556 3.1597661281802321 0 0 0 -1 I I #
edge $-1 $900 1 $900 0 $577 $-1 forward 7 unknown #
point $-1 0.5 0 -0.25 #
plane-surface $-1 245.73992126224556 0 0 -1 0 0 0 0 1 forward_v I I I I #
coedge $-1 $586 $584 $588 $799 reversed $367 $-1 #
edge $-1 $599 -122.86996063112278 $801 122.86996063112278 $598 $901 forward 7 unknown #
vertex $-1 $799 $902 #
straight-curve $-1 -245.73992126224556 -3.1597661281802321 0 0 0 -1 I I #
edge $-1 $797 -3.1597661281802321 $801 3.1597661281802321 $795 $903 forward 7 unknown #
straight-curve $-1 0 -3.1597661281802321 -122.86996063112278 -1 0 0 I I #
vertex $-1 $591 $904 #
straight-curve $-1 0 3.1597661281802321 -122.86996063112278 1 0 0 I I #
point $-1 245.73992126224556 3.1597661281802321 -122.86996063112278 #
point $-1 245.73992126224556 -3.1597661281802321 -122.86996063112278 #
straight-curve $-1 -245.73992126224556 0 122.86996063112278 0 -1 0 I I #
point $-1 -245.73992126224556 3.1597661281802321 122.86996063112278 #
point $-1 -245.73992126224556 -3.1597661281802321 122.86996063112278 #
straight-curve $-1 245.73992126224556 -3.1597661281802321 0 0 0 -1 I I #
straight-curve $-1 245.73992126224556 3.1597661281802321 0 0 0 -1 I I #
edge $-1 $905 1 $905 0 $608 $-1 forward 7 unknown #
point $-1 0.5 0 -0.25 #
plane-surface $-1 245.73992126224556 0 0 -1 0 0 0 0 1 forward_v I I I I #
coedge $-1 $617 $615 $619 $817 reversed $391 $-1 #
edge $-1 $630 -122.86996063112278 $819 122.86996063112278 $629 $906 forward 7 unknown #
vertex $-1 $817 $907 #
straight-curve $-1 -245.73992126224556 -3.1597661281802321 0 0 0 -1 I I #
edge $-1 $815 -3.1597661281802321 $819 3.1597661281802321 $813 $908 forward 7 unknown #
straight-curve $-1 0 -3.1597661281802321 -122.86996063112278 -1 0 0 I I #
vertex $-1 $622 $909 #
straight-curve $-1 0 3.1597661281802321 -122.86996063112278 1 0 0 I I #
point $-1 245.73992126224556 3.1597661281802321 -122.86996063112278 #
point $-1 245.73992126224556 -3.1597661281802321 -122.86996063112278 #
straight-curve $-1 -245.73992126224556 0 122.86996063112278 0 -1 0 I I #
point $-1 -245.73992126224556 3.1597661281802321 122.86996063112278 #
point $-1 -245.73992126224556 -3.1597661281802321 122.86996063112278 #
straight-curve $-1 245.73992126224556 -3.1597661281802321 0 0 0 -1 I I #
straight-curve $-1 245.73992126224556 3.1597661281802321 0 0 0 -1 I I #
edge $-1 $910 1 $910 0 $639 $-1 forward 7 unknown #
point $-1 0.5 0 -0.25 #
plane-surface $-1 245.73992126224556 0 0 -1 0 0 0 0 1 forward_v I I I I #
coedge $-1 $648 $646 $650 $835 reversed $415 $-1 #
edge $-1 $661 -122.86996063112278 $837 122.86996063112278 $660 $911 forward 7 unknown #
vertex $-1 $835 $912 #
straight-curve $-1 -245.73992126224556 -3.1597661281802321 0 0 0 -1 I I #
edge $-1 $833 -3.1597661281802321 $837 3.1597661281802321 $831 $913 forward 7 unknown #
straight-curve $-1 0 -3.1597661281802321 -122.86996063112278 -1 0 0 I I #
vertex $-1 $653 $914 #
straight-curve $-1 0 3.1597661281802321 -122.86996063112278 1 0 0 I I #
point $-1 245.73992126224556 3.1597661281802321 -122.86996063112278 #
point $-1 245.73992126224556 -3.1597661281802321 -122.86996063112278 #
straight-curve $-1 -245.73992126224556 0 122.86996063112278 0 -1 0 I I #
point $-1 -245.73992126224556 3.1597661281802321 122.86996063112278 #
point $-1 -245.73992126224556 -3.1597661281802321 122.86996063112278 #
straight-curve $-1 245.73992126224556 -3.1597661281802321 0 0 0 -1 I I #
straight-curve $-1 245.73992126224556 3.1597661281802321 0 0 0 -1 I I #
edge $-1 $915 1 $915 0 $670 $-1 forward 7 unknown #
point $-1 0.5 0 -0.25 #
plane-surface $-1 245.73992126224556 0 0 -1 0 0 0 0 1 forward_v I I I I #
coedge $-1 $679 $677 $681 $853 reversed $439 $-1 #
edge $-1 $692 -122.86996063112278 $855 122.86996063112278 $691 $916 forward 7 unknown #
vertex $-1 $853 $917 #
straight-curve $-1 -245.73992126224556 -4.8249894477483988 0 0 0 -1 I I #
edge $-1 $851 -4.8249894477483988 $855 4.8249894477483988 $849 $918 forward 7 unknown #
straight-curve $-1 0 -4.8249894477483988 -122.86996063112278 -1 0 0 I I #
vertex $-1 $684 $919 #
straight-curve $-1 0 4.8249894477483988 -122.86996063112278 1 0 0 I I #
point $-1 245.73992126224556 4.8249894477483988 -122.86996063112278 #
point $-1 245.73992126224556 -4.8249894477483988 -122.86996063112278 #
straight-curve $-1 -245.73992126224556 0 122.86996063112278 0 -1 0 I I #
point $-1 -245.73992126224556 4.8249894477483988 122.86996063112278 #
point $-1 -245.73992126224556 -4.8249894477483988 122.86996063112278 #
straight-curve $-1 245.73992126224556 -4.8249894477483988 0 0 0 -1 I I #
straight-curve $-1 245.73992126224556 4.8249894477483988 0 0 0 -1 I I #
edge $-1 $920 1 $920 0 $701 $-1 forward 7 unknown #
point $-1 1 0 -0.5 #
edge $-1 $921 1 $921 0 $705 $-1 forward 7 unknown #
point $-1 1 0 -0.5 #
plane-surface $-1 245.73992126224556 0 0 -1 0 0 0 0 1 forward_v I I I I #
coedge $-1 $714 $712 $716 $873 reversed $468 $-1 #
edge $-1 $727 -122.86996063112278 $875 122.86996063112278 $726 $922 forward 7 unknown #
vertex $-1 $873 $923 #
straight-curve $-1 -245.73992126224556 -4.8249894477483988 0 0 0 -1 I I #
edge $-1 $871 -4.8249894477483988 $875 4.8249894477483988 $869 $924 forward 7 unknown #
straight-curve $-1 0 -4.8249894477483988 -122.86996063112278 -1 0 0 I I #
vertex $-1 $719 $925 #
straight-curve $-1 0 4.8249894477483988 -122.86996063112278 1 0 0 I I #
point $-1 245.73992126224556 4.8249894477483988 -122.86996063112278 #
point $-1 245.73992126224556 -4.8249894477483988 -122.86996063112278 #
straight-curve $-1 -245.73992126224556 0 122.86996063112278 0 -1 0 I I #
point $-1 -245.73992126224556 4.8249894477483988 122.86996063112278 #
point $-1 -245.73992126224556 -4.8249894477483988 122.86996063112278 #
straight-curve $-1 245.73992126224556 -4.8249894477483988 0 0 0 -1 I I #
straight-curve $-1 245.73992126224556 4.8249894477483988 0 0 0 -1 I I #
edge $-1 $926 1 $926 0 $736 $-1 forward 7 unknown #
point $-1 1 0 -0.5 #
edge $-1 $927 1 $927 0 $740 $-1 forward 7 unknown #
point $-1 1 0 -0.5 #
straight-curve $-1 -61.43498031556139 26.497081188685915 0 0 0 -1 I I #
point $-1 -61.43498031556139 -26.497081188685915 -6.5512086410724226 #
straight-curve $-1 -61.43498031556139 0 -6.5512086410724226 0 1 0 I I #
point $-1 -61.43498031556139 26.497081188685915 -6.5512086410724226 #
straight-curve $-1 -61.43498031556139 3.357616887587449 0 0 0 -1 I I #
point $-1 -61.43498031556139 -3.357616887587449 -1.5 #
straight-curve $-1 -61.43498031556139 0 -1.5 0 1 0 I I #
point $-1 -61.43498031556139 3.357616887587449 -1.5 #
straight-curve $-1 -245.73992126224556 3.1597661281802321 0 0 0 -1 I I #
point $-1 -245.73992126224556 -3.1597661281802321 -122.86996063112278 #
straight-curve $-1 -245.73992126224556 0 -122.86996063112278 0 1 0 I I #
point $-1 -245.73992126224556 3.1597661281802321 -122.86996063112278 #
vertex $-1 $792 $928 #
straight-curve $-1 -245.73992126224556 3.1597661281802321 0 0 0 -1 I I #
point $-1 -245.73992126224556 -3.1597661281802321 -122.86996063112278 #
straight-curve $-1 -245.73992126224556 0 -122.86996063112278 0 1 0 I I #
point $-1 -245.73992126224556 3.1597661281802321 -122.86996063112278 #
vertex $-1 $810 $929 #
straight-curve $-1 -245.73992126224556 3.1597661281802321 0 0 0 -1 I I #
point $-1 -245.73992126224556 -3.1597661281802321 -122.86996063112278 #
straight-curve $-1 -245.73992126224556 0 -122.86996063112278 0 1 0 I I #
point $-1 -245.73992126224556 3.1597661281802321 -122.86996063112278 #
vertex $-1 $828 $930 #
straight-curve $-1 -245.73992126224556 3.1597661281802321 0 0 0 -1 I I #
point $-1 -245.73992126224556 -3.1597661281802321 -122.86996063112278 #
straight-curve $-1 -245.73992126224556 0 -122.86996063112278 0 1 0 I I #
point $-1 -245.73992126224556 3.1597661281802321 -122.86996063112278 #
vertex $-1 $846 $931 #
straight-curve $-1 -245.73992126224556 4.8249894477483988 0 0 0 -1 I I #
point $-1 -245.73992126224556 -4.8249894477483988 -122.86996063112278 #
straight-curve $-1 -245.73992126224556 0 -122.86996063112278 0 1 0 I I #
point $-1 -245.73992126224556 4.8249894477483988 -122.86996063112278 #
vertex $-1 $864 $932 #
vertex $-1 $866 $933 #
straight-curve $-1 -245.73992126224556 4.8249894477483988 0 0 0 -1 I I #
point $-1 -245.73992126224556 -4.8249894477483988 -122.86996063112278 #
straight-curve $-1 -245.73992126224556 0 -122.86996063112278 0 1 0 I I #
point $-1 -245.73992126224556 4.8249894477483988 -122.86996063112278 #
vertex $-1 $884 $934 #
vertex $-1 $886 $935 #
point $-1 0 0 0.25 #
point $-1 0 0 0.25 #
point $-1 0 0 0.25 #
point $-1 0 0 0.25 #
point $-1 0 0 0.5 #
point $-1 0 0 0.5 #
point $-1 0 0 0.5 #
point $-1 0 0 0.5 #
End-of-ACIS-data 