500 0 8 0           
7 Unknown 11 ACIS 5.0 NT 24 Fri Mar 26 19:50:08 1999 
-1 9.9999999999999995e-007 1e-010 
body $-1 $8 $-1 $9 #
body $-1 $10 $-1 $11 #
body $-1 $12 $-1 $13 #
body $-1 $14 $-1 $15 #
body $-1 $16 $-1 $17 #
body $-1 $18 $-1 $19 #
body $-1 $20 $-1 $21 #
body $-1 $22 $-1 $23 #
lump $-1 $-1 $24 $0 #
transform $-1 1 0 0 0 1 0 0 0 1 76.813867610705898 49.608438477866031 20.635184629829354 1 rotate no_reflect no_shear #
lump $-1 $-1 $25 $1 #
transform $-1 1 0 0 0 1 0 0 0 1 13.169293340450045 36.7086124035811 20.635184629829354 1 rotate no_reflect no_shear #
lump $-1 $-1 $26 $2 #
transform $-1 1 0 0 0 0.78801074757464917 -0.61566148304635926 0 0.61566148304635926 0.78801074757464917 133.20665068455949 115.61559087729144 210.17866812255056 1 rotate no_reflect no_shear #
lump $-1 $-1 $27 $3 #
transform $-1 1 0 0 0 -0.78801074757464917 0.61566148304635926 0 -0.61566148304635926 -0.78801074757464917 133.20665068455949 83.317154702203624 25.143600628176664 1 rotate no_reflect no_shear #
lump $-1 $-1 $28 $4 #
transform $-1 1 0 0 0 0.49999998660252726 0.86602541151947299 0 -0.86602541151947299 0.49999998660252726 48.344297027206366 -133.04552261592781 106.64203668281893 1 rotate no_reflect no_shear #
lump $-1 $-1 $29 $5 #
transform $-1 1 0 0 0 -0.49999998660252726 -0.86602541151947299 0 0.86602541151947299 -0.49999998660252726 48.344297027206366 10.042975507955497 31.657988674458799 1 rotate no_reflect no_shear #
lump $-1 $-1 $30 $6 #
transform $-1 1 0 0 0 0.49999998660252726 0.86602541151947299 0 -0.86602541151947299 0.49999998660252726 131.62202487510552 -133.04552261592781 106.64203668281893 1 rotate no_reflect no_shear #
lump $-1 $-1 $31 $7 #
transform $-1 1 0 0 0 -0.49999998660252726 -0.86602541151947299 0 0.86602541151947299 -0.49999998660252726 131.62202487510552 10.042975507955497 31.657988674458799 1 rotate no_reflect no_shear #
shell $-1 $-1 $-1 $32 $-1 $8 #
shell $-1 $-1 $-1 $33 $-1 $10 #
shell $-1 $-1 $-1 $34 $-1 $12 #
shell $-1 $-1 $-1 $35 $-1 $14 #
shell $-1 $-1 $-1 $36 $-1 $16 #
shell $-1 $-1 $-1 $37 $-1 $18 #
shell $-1 $-1 $-1 $38 $-1 $20 #
shell $-1 $-1 $-1 $39 $-1 $22 #
face $-1 $40 $41 $24 $-1 $42 forward single #
face $-1 $43 $44 $25 $-1 $45 forward single #
face $-1 $46 $47 $26 $-1 $48 forward single #
face $-1 $49 $50 $27 $-1 $51 forward single #
face $-1 $52 $53 $28 $-1 $54 forward single #
face $-1 $55 $56 $29 $-1 $57 forward single #
face $-1 $58 $59 $30 $-1 $60 forward single #
face $-1 $61 $62 $31 $-1 $63 forward single #
face $-1 $64 $65 $24 $-1 $66 reversed single #
loop $-1 $-1 $67 $32 #
plane-surface $-1 0 0 20.635184629829354 0 0 1 1 0 0 forward_v I I I I #
face $-1 $68 $69 $25 $-1 $70 reversed single #
loop $-1 $-1 $71 $33 #
plane-surface $-1 0 0 20.635184629829354 0 0 1 1 0 0 forward_v I I I I #
face $-1 $72 $73 $26 $-1 $74 reversed single #
loop $-1 $-1 $75 $34 #
plane-surface $-1 0 0 153.6277352214118 0 0 1 1 0 0 forward_v I I I I #
face $-1 $76 $77 $27 $-1 $78 forward single #
loop $-1 $79 $80 $35 #
cone-surface $-1 0 0 -6.783394878994109 0 0 1 3 0 0 1 I I 0 1 3 forward I I I I #
face $-1 $81 $82 $28 $-1 $83 reversed single #
loop $-1 $-1 $84 $36 #
plane-surface $-1 0 0 153.6277352214118 0 0 1 1 0 0 forward_v I I I I #
face $-1 $85 $86 $29 $-1 $87 forward single #
loop $-1 $88 $89 $37 #
cone-surface $-1 0 0 -4.516281624805444 0 0 1 2.5 0 0 1 I I 0 1 2.5 forward I I I I #
face $-1 $90 $91 $30 $-1 $92 reversed single #
loop $-1 $-1 $93 $38 #
plane-surface $-1 0 0 153.6277352214118 0 0 1 1 0 0 forward_v I I I I #
face $-1 $94 $95 $31 $-1 $96 forward single #
loop $-1 $97 $98 $39 #
cone-surface $-1 0 0 -4.516281624805444 0 0 1 2.5 0 0 1 I I 0 1 2.5 forward I I I I #
face $-1 $99 $100 $24 $-1 $101 reversed single #
loop $-1 $-1 $102 $40 #
plane-surface $-1 0 0 -20.635184629829354 0 0 1 1 0 0 forward_v I I I I #
coedge $-1 $103 $104 $105 $106 forward $41 $-1 #
face $-1 $107 $108 $25 $-1 $109 reversed single #
loop $-1 $-1 $110 $43 #
plane-surface $-1 0 0 -20.635184629829354 0 0 1 1 0 0 forward_v I I I I #
coedge $-1 $111 $112 $113 $114 forward $44 $-1 #
face $-1 $115 $116 $26 $-1 $117 reversed single #
loop $-1 $-1 $118 $46 #
plane-surface $-1 0 0 -153.6277352214118 0 0 1 1 0 0 forward_v I I I I #
coedge $-1 $119 $120 $121 $122 forward $47 $-1 #
face $-1 $-1 $123 $27 $-1 $124 forward single #
loop $-1 $-1 $125 $49 #
plane-surface $-1 0 0 -12.066789757988218 0 0 -1 -1 0 0 forward_v I I I I #
loop $-1 $-1 $126 $35 #
coedge $-1 $80 $80 $125 $127 reversed $50 $-1 #
face $-1 $128 $129 $28 $-1 $130 reversed single #
loop $-1 $-1 $131 $52 #
plane-surface $-1 0 0 -153.6277352214118 0 0 1 1 0 0 forward_v I I I I #
coedge $-1 $132 $133 $134 $135 forward $53 $-1 #
face $-1 $-1 $136 $29 $-1 $137 forward single #
loop $-1 $-1 $138 $55 #
plane-surface $-1 0 0 -7.7825632496108899 0 0 -1 -1 0 0 forward_v I I I I #
loop $-1 $-1 $139 $37 #
coedge $-1 $89 $89 $138 $140 reversed $56 $-1 #
face $-1 $141 $142 $30 $-1 $143 reversed single #
loop $-1 $-1 $144 $58 #
plane-surface $-1 0 0 -153.6277352214118 0 0 1 1 0 0 forward_v I I I I #
coedge $-1 $145 $146 $147 $148 forward $59 $-1 #
face $-1 $-1 $149 $31 $-1 $150 forward single #
loop $-1 $-1 $151 $61 #
plane-surface $-1 0 0 -7.7825632496108899 0 0 -1 -1 0 0 forward_v I I I I #
loop $-1 $-1 $152 $39 #
coedge $-1 $98 $98 $151 $153 reversed $62 $-1 #
face $-1 $154 $155 $24 $-1 $156 reversed single #
loop $-1 $-1 $157 $64 #
plane-surface $-1 0 -49.608438477866031 0 0 1 0 0 0 1 forward_v I I I I #
coedge $-1 $158 $159 $160 $161 forward $65 $-1 #
coedge $-1 $162 $67 $163 $164 forward $41 $-1 #
coedge $-1 $67 $162 $165 $166 forward $41 $-1 #
coedge $-1 $167 $168 $67 $106 reversed $169 $-1 #
edge $-1 $170 -49.608438477866031 $171 49.608438477866031 $105 $172 forward 7 unknown #
face $-1 $173 $174 $25 $-1 $175 reversed single #
loop $-1 $-1 $176 $68 #
plane-surface $-1 0 -4.5617568560776043 0 0 1 0 0 0 1 forward_v I I I I #
coedge $-1 $177 $178 $179 $180 forward $69 $-1 #
coedge $-1 $181 $71 $182 $183 forward $44 $-1 #
coedge $-1 $71 $181 $184 $185 forward $44 $-1 #
coedge $-1 $186 $187 $71 $114 reversed $188 $-1 #
edge $-1 $189 -4.5617568560776043 $190 4.5617568560776043 $113 $191 forward 7 unknown #
face $-1 $192 $193 $26 $-1 $194 reversed single #
loop $-1 $-1 $195 $72 #
plane-surface $-1 0 -307.25547044282359 0 0 1 0 0 0 1 forward_v I I I I #
coedge $-1 $196 $197 $198 $199 forward $73 $-1 #
coedge $-1 $200 $75 $201 $202 forward $47 $-1 #
coedge $-1 $75 $200 $203 $204 forward $47 $-1 #
coedge $-1 $205 $206 $75 $122 reversed $207 $-1 #
edge $-1 $208 -307.25547044282359 $209 307.25547044282359 $121 $210 forward 7 unknown #
loop $-1 $211 $212 $76 #
cone-surface $-1 0 0 0 0 0 1 1.5 0 0 1 I I -0.70710678118654724 0.70710678118654768 1.5 forward I I I I #
coedge $-1 $125 $125 $80 $127 forward $77 $-1 #
coedge $-1 $126 $126 $212 $213 forward $79 $-1 #
edge $-1 $214 0 $214 6.2831853071796004 $125 $215 forward 7 unknown #
face $-1 $216 $217 $28 $-1 $218 reversed single #
loop $-1 $-1 $219 $81 #
plane-surface $-1 0 -307.25547044282359 0 0 1 0 0 0 1 forward_v I I I I #
coedge $-1 $220 $221 $222 $223 forward $82 $-1 #
coedge $-1 $224 $84 $225 $226 forward $53 $-1 #
coedge $-1 $84 $224 $227 $228 forward $53 $-1 #
coedge $-1 $229 $230 $84 $135 reversed $231 $-1 #
edge $-1 $232 -307.25547044282359 $233 307.25547044282359 $134 $234 forward 7 unknown #
loop $-1 $235 $236 $85 #
cone-surface $-1 0 0 0 0 0 1 1.25 0 0 1 I I -0.70710678118654746 0.70710678118654746 1.25 forward I I I I #
coedge $-1 $138 $138 $89 $140 forward $86 $-1 #
coedge $-1 $139 $139 $236 $237 forward $88 $-1 #
edge $-1 $238 0 $238 6.2831853071796004 $138 $239 forward 7 unknown #
face $-1 $240 $241 $30 $-1 $242 reversed single #
loop $-1 $-1 $243 $90 #
plane-surface $-1 0 -307.25547044282359 0 0 1 0 0 0 1 forward_v I I I I #
coedge $-1 $244 $245 $246 $247 forward $91 $-1 #
coedge $-1 $248 $93 $249 $250 forward $59 $-1 #
coedge $-1 $93 $248 $251 $252 forward $59 $-1 #
coedge $-1 $253 $254 $93 $148 reversed $255 $-1 #
edge $-1 $256 -307.25547044282359 $257 307.25547044282359 $147 $258 forward 7 unknown #
loop $-1 $259 $260 $94 #
cone-surface $-1 0 0 0 0 0 1 1.25 0 0 1 I I -0.70710678118654746 0.70710678118654746 1.25 forward I I I I #
coedge $-1 $151 $151 $98 $153 forward $95 $-1 #
coedge $-1 $152 $152 $260 $261 forward $97 $-1 #
edge $-1 $262 0 $262 6.2831853071796004 $151 $263 forward 7 unknown #
face $-1 $264 $265 $24 $-1 $266 reversed single #
loop $-1 $-1 $267 $99 #
plane-surface $-1 -76.813867610705898 0 0 1 0 0 0 0 -1 forward_v I I I I #
coedge $-1 $268 $165 $269 $270 forward $100 $-1 #
coedge $-1 $271 $102 $268 $272 forward $65 $-1 #
coedge $-1 $102 $271 $273 $274 forward $65 $-1 #
coedge $-1 $168 $167 $102 $161 reversed $169 $-1 #
edge $-1 $275 -49.608438477866031 $276 49.608438477866031 $160 $277 forward 7 unknown #
coedge $-1 $104 $103 $278 $279 forward $41 $-1 #
coedge $-1 $280 $281 $103 $164 reversed $265 $-1 #
edge $-1 $171 -76.813867610705898 $282 76.813867610705898 $163 $283 forward 7 unknown #
coedge $-1 $157 $284 $104 $166 reversed $100 $-1 #
edge $-1 $285 -76.813867610705898 $170 76.813867610705898 $165 $286 forward 7 unknown #
coedge $-1 $160 $105 $284 $287 forward $169 $-1 #
coedge $-1 $105 $160 $280 $288 reversed $169 $-1 #
loop $-1 $-1 $167 $264 #
vertex $-1 $106 $289 #
vertex $-1 $106 $290 #
straight-curve $-1 76.813867610705898 0 20.635184629829354 0 1 0 I I #
face $-1 $291 $292 $25 $-1 $293 reversed single #
loop $-1 $-1 $294 $107 #
plane-surface $-1 -13.169293340450045 0 0 1 0 0 0 0 -1 forward_v I I I I #
coedge $-1 $295 $184 $296 $297 forward $108 $-1 #
coedge $-1 $298 $110 $295 $299 forward $69 $-1 #
coedge $-1 $110 $298 $300 $301 forward $69 $-1 #
coedge $-1 $187 $186 $110 $180 reversed $188 $-1 #
edge $-1 $302 -4.5617568560776043 $303 4.5617568560776043 $179 $304 forward 7 unknown #
coedge $-1 $112 $111 $305 $306 forward $44 $-1 #
coedge $-1 $307 $308 $111 $183 reversed $292 $-1 #
edge $-1 $190 -13.169293340450045 $309 13.169293340450045 $182 $310 forward 7 unknown #
coedge $-1 $176 $311 $112 $185 reversed $108 $-1 #
edge $-1 $312 -13.169293340450045 $189 13.169293340450045 $184 $313 forward 7 unknown #
coedge $-1 $179 $113 $311 $314 forward $188 $-1 #
coedge $-1 $113 $179 $307 $315 reversed $188 $-1 #
loop $-1 $-1 $186 $291 #
vertex $-1 $114 $316 #
vertex $-1 $114 $317 #
straight-curve $-1 13.169293340450045 0 20.635184629829354 0 1 0 I I #
face $-1 $318 $319 $26 $-1 $320 reversed single #
loop $-1 $-1 $321 $115 #
plane-surface $-1 -11.674419801976768 0 0 1 0 0 0 0 -1 forward_v I I I I #
coedge $-1 $322 $203 $323 $324 forward $116 $-1 #
coedge $-1 $325 $118 $322 $326 forward $73 $-1 #
coedge $-1 $118 $325 $327 $328 forward $73 $-1 #
coedge $-1 $206 $205 $118 $199 reversed $207 $-1 #
edge $-1 $329 -307.25547044282359 $330 307.25547044282359 $198 $331 forward 7 unknown #
coedge $-1 $120 $119 $332 $333 forward $47 $-1 #
coedge $-1 $334 $335 $119 $202 reversed $319 $-1 #
edge $-1 $209 -11.674419801976768 $336 11.674419801976768 $201 $337 forward 7 unknown #
coedge $-1 $195 $338 $120 $204 reversed $116 $-1 #
edge $-1 $339 -11.674419801976768 $208 11.674419801976768 $203 $340 forward 7 unknown #
coedge $-1 $198 $121 $338 $341 forward $207 $-1 #
coedge $-1 $121 $198 $334 $342 reversed $207 $-1 #
loop $-1 $-1 $205 $318 #
vertex $-1 $122 $343 #
vertex $-1 $122 $344 #
straight-curve $-1 11.674419801976768 0 153.6277352214118 0 1 0 I I #
loop $-1 $-1 $345 $76 #
coedge $-1 $212 $212 $126 $213 reversed $123 $-1 #
edge $-1 $346 0 $346 6.2831853071796004 $212 $347 forward 7 unknown #
vertex $-1 $127 $348 #
ellipse-curve $-1 0 0 -12.066789757988218 0 0 -1 3 0 0 1 I I #
face $-1 $349 $350 $28 $-1 $351 reversed single #
loop $-1 $-1 $352 $128 #
plane-surface $-1 -8.445283636801431 0 0 1 0 0 0 0 -1 forward_v I I I I #
coedge $-1 $353 $227 $354 $355 forward $129 $-1 #
coedge $-1 $356 $131 $353 $357 forward $82 $-1 #
coedge $-1 $131 $356 $358 $359 forward $82 $-1 #
coedge $-1 $230 $229 $131 $223 reversed $231 $-1 #
edge $-1 $360 -307.25547044282359 $361 307.25547044282359 $222 $362 forward 7 unknown #
coedge $-1 $133 $132 $363 $364 forward $53 $-1 #
coedge $-1 $365 $366 $132 $226 reversed $350 $-1 #
edge $-1 $233 -8.445283636801431 $367 8.445283636801431 $225 $368 forward 7 unknown #
coedge $-1 $219 $369 $133 $228 reversed $129 $-1 #
edge $-1 $370 -8.445283636801431 $232 8.445283636801431 $227 $371 forward 7 unknown #
coedge $-1 $222 $134 $369 $372 forward $231 $-1 #
coedge $-1 $134 $222 $365 $373 reversed $231 $-1 #
loop $-1 $-1 $229 $349 #
vertex $-1 $135 $374 #
vertex $-1 $135 $375 #
straight-curve $-1 8.445283636801431 0 153.6277352214118 0 1 0 I I #
loop $-1 $-1 $376 $85 #
coedge $-1 $236 $236 $139 $237 reversed $136 $-1 #
edge $-1 $377 0 $377 6.2831853071796004 $236 $378 forward 7 unknown #
vertex $-1 $140 $379 #
ellipse-curve $-1 0 0 -7.7825632496108899 0 0 -1 2.5 0 0 1 I I #
face $-1 $380 $381 $30 $-1 $382 reversed single #
loop $-1 $-1 $383 $141 #
plane-surface $-1 -8.445283636801431 0 0 1 0 0 0 0 -1 forward_v I I I I #
coedge $-1 $384 $251 $385 $386 forward $142 $-1 #
coedge $-1 $387 $144 $384 $388 forward $91 $-1 #
coedge $-1 $144 $387 $389 $390 forward $91 $-1 #
coedge $-1 $254 $253 $144 $247 reversed $255 $-1 #
edge $-1 $391 -307.25547044282359 $392 307.25547044282359 $246 $393 forward 7 unknown #
coedge $-1 $146 $145 $394 $395 forward $59 $-1 #
coedge $-1 $396 $397 $145 $250 reversed $381 $-1 #
edge $-1 $257 -8.445283636801431 $398 8.445283636801431 $249 $399 forward 7 unknown #
coedge $-1 $243 $400 $146 $252 reversed $142 $-1 #
edge $-1 $401 -8.445283636801431 $256 8.445283636801431 $251 $402 forward 7 unknown #
coedge $-1 $246 $147 $400 $403 forward $255 $-1 #
coedge $-1 $147 $246 $396 $404 reversed $255 $-1 #
loop $-1 $-1 $253 $380 #
vertex $-1 $148 $405 #
vertex $-1 $148 $406 #
straight-curve $-1 8.445283636801431 0 153.6277352214118 0 1 0 I I #
loop $-1 $-1 $407 $94 #
coedge $-1 $260 $260 $152 $261 reversed $149 $-1 #
edge $-1 $408 0 $408 6.2831853071796004 $260 $409 forward 7 unknown #
vertex $-1 $153 $410 #
ellipse-curve $-1 0 0 -7.7825632496108899 0 0 -1 2.5 0 0 1 I I #
face $-1 $-1 $169 $24 $-1 $411 reversed single #
loop $-1 $-1 $280 $154 #
plane-surface $-1 0 49.608438477866031 0 0 -1 0 0 0 -1 forward_v I I I I #
coedge $-1 $412 $278 $281 $413 forward $155 $-1 #
coedge $-1 $284 $157 $158 $272 reversed $100 $-1 #
coedge $-1 $278 $412 $157 $270 reversed $155 $-1 #
edge $-1 $285 -20.635184629829354 $414 20.635184629829354 $269 $415 forward 7 unknown #
coedge $-1 $159 $158 $412 $416 forward $65 $-1 #
edge $-1 $276 -76.813867610705898 $414 76.813867610705898 $268 $417 forward 7 unknown #
coedge $-1 $281 $280 $159 $274 reversed $265 $-1 #
edge $-1 $418 -76.813867610705898 $275 76.813867610705898 $273 $419 forward 7 unknown #
vertex $-1 $161 $420 #
vertex $-1 $287 $421 #
straight-curve $-1 76.813867610705898 0 -20.635184629829354 0 -1 0 I I #
coedge $-1 $267 $269 $162 $279 reversed $155 $-1 #
edge $-1 $282 -49.608438477866031 $285 49.608438477866031 $278 $422 forward 7 unknown #
coedge $-1 $273 $163 $168 $288 forward $265 $-1 #
coedge $-1 $163 $273 $267 $413 reversed $265 $-1 #
vertex $-1 $164 $423 #
straight-curve $-1 0 49.608438477866031 20.635184629829354 -1 0 0 I I #
coedge $-1 $165 $268 $167 $287 reversed $100 $-1 #
vertex $-1 $279 $424 #
straight-curve $-1 0 -49.608438477866031 20.635184629829354 1 0 0 I I #
edge $-1 $170 -20.635184629829354 $276 20.635184629829354 $167 $425 forward 7 unknown #
edge $-1 $171 -20.635184629829354 $275 20.635184629829354 $168 $426 forward 7 unknown #
point $-1 76.813867610705898 -49.608438477866031 20.635184629829354 #
point $-1 76.813867610705898 49.608438477866031 20.635184629829354 #
face $-1 $-1 $188 $25 $-1 $427 reversed single #
loop $-1 $-1 $307 $173 #
plane-surface $-1 0 4.5617568560776043 0 0 -1 0 0 0 -1 forward_v I I I I #
coedge $-1 $428 $305 $308 $429 forward $174 $-1 #
coedge $-1 $311 $176 $177 $299 reversed $108 $-1 #
coedge $-1 $305 $428 $176 $297 reversed $174 $-1 #
edge $-1 $312 -20.635184629829354 $430 20.635184629829354 $296 $431 forward 7 unknown #
coedge $-1 $178 $177 $428 $432 forward $69 $-1 #
edge $-1 $303 -13.169293340450045 $430 13.169293340450045 $295 $433 forward 7 unknown #
coedge $-1 $308 $307 $178 $301 reversed $292 $-1 #
edge $-1 $434 -13.169293340450045 $302 13.169293340450045 $300 $435 forward 7 unknown #
vertex $-1 $180 $436 #
vertex $-1 $314 $437 #
straight-curve $-1 13.169293340450045 0 -20.635184629829354 0 -1 0 I I #
coedge $-1 $294 $296 $181 $306 reversed $174 $-1 #
edge $-1 $309 -4.5617568560776043 $312 4.5617568560776043 $305 $438 forward 7 unknown #
coedge $-1 $300 $182 $187 $315 forward $292 $-1 #
coedge $-1 $182 $300 $294 $429 reversed $292 $-1 #
vertex $-1 $183 $439 #
straight-curve $-1 0 4.5617568560776043 20.635184629829354 -1 0 0 I I #
coedge $-1 $184 $295 $186 $314 reversed $108 $-1 #
vertex $-1 $306 $440 #
straight-curve $-1 0 -4.5617568560776043 20.635184629829354 1 0 0 I I #
edge $-1 $189 -20.635184629829354 $303 20.635184629829354 $186 $441 forward 7 unknown #
edge $-1 $190 -20.635184629829354 $302 20.635184629829354 $187 $442 forward 7 unknown #
point $-1 13.169293340450045 -4.5617568560776043 20.635184629829354 #
point $-1 13.169293340450045 4.5617568560776043 20.635184629829354 #
face $-1 $-1 $207 $26 $-1 $443 reversed single #
loop $-1 $-1 $334 $192 #
plane-surface $-1 0 307.25547044282359 0 0 -1 0 0 0 -1 forward_v I I I I #
coedge $-1 $444 $332 $335 $445 forward $193 $-1 #
coedge $-1 $338 $195 $196 $326 reversed $116 $-1 #
coedge $-1 $332 $444 $195 $324 reversed $193 $-1 #
edge $-1 $339 -153.6277352214118 $446 153.6277352214118 $323 $447 forward 7 unknown #
coedge $-1 $197 $196 $444 $448 forward $73 $-1 #
edge $-1 $330 -11.674419801976768 $446 11.674419801976768 $322 $449 forward 7 unknown #
coedge $-1 $335 $334 $197 $328 reversed $319 $-1 #
edge $-1 $450 -11.674419801976768 $329 11.674419801976768 $327 $451 forward 7 unknown #
vertex $-1 $199 $452 #
vertex $-1 $341 $453 #
straight-curve $-1 11.674419801976768 0 -153.6277352214118 0 -1 0 I I #
coedge $-1 $321 $323 $200 $333 reversed $193 $-1 #
edge $-1 $336 -307.25547044282359 $339 307.25547044282359 $332 $454 forward 7 unknown #
coedge $-1 $327 $201 $206 $342 forward $319 $-1 #
coedge $-1 $201 $327 $321 $445 reversed $319 $-1 #
vertex $-1 $202 $455 #
straight-curve $-1 0 307.25547044282359 153.6277352214118 -1 0 0 I I #
coedge $-1 $203 $322 $205 $341 reversed $116 $-1 #
vertex $-1 $333 $456 #
straight-curve $-1 0 -307.25547044282359 153.6277352214118 1 0 0 I I #
edge $-1 $208 -153.6277352214118 $330 153.6277352214118 $205 $457 forward 7 unknown #
edge $-1 $209 -153.6277352214118 $329 153.6277352214118 $206 $458 forward 7 unknown #
point $-1 11.674419801976768 -307.25547044282359 153.6277352214118 #
point $-1 11.674419801976768 307.25547044282359 153.6277352214118 #
coedge $-1 $345 $345 $-1 $459 reversed $211 $-1 #
vertex $-1 $213 $460 #
ellipse-curve $-1 0 0 -1.5000000000000009 0 0 -1 3 0 0 1 I I #
point $-1 3 0 -12.066789757988218 #
face $-1 $-1 $231 $28 $-1 $461 reversed single #
loop $-1 $-1 $365 $216 #
plane-surface $-1 0 307.25547044282359 0 0 -1 0 0 0 -1 forward_v I I I I #
coedge $-1 $462 $363 $366 $463 forward $217 $-1 #
coedge $-1 $369 $219 $220 $357 reversed $129 $-1 #
coedge $-1 $363 $462 $219 $355 reversed $217 $-1 #
edge $-1 $370 -153.6277352214118 $464 153.6277352214118 $354 $465 forward 7 unknown #
coedge $-1 $221 $220 $462 $466 forward $82 $-1 #
edge $-1 $361 -8.445283636801431 $464 8.445283636801431 $353 $467 forward 7 unknown #
coedge $-1 $366 $365 $221 $359 reversed $350 $-1 #
edge $-1 $468 -8.445283636801431 $360 8.445283636801431 $358 $469 forward 7 unknown #
vertex $-1 $223 $470 #
vertex $-1 $372 $471 #
straight-curve $-1 8.445283636801431 0 -153.6277352214118 0 -1 0 I I #
coedge $-1 $352 $354 $224 $364 reversed $217 $-1 #
edge $-1 $367 -307.25547044282359 $370 307.25547044282359 $363 $472 forward 7 unknown #
coedge $-1 $358 $225 $230 $373 forward $350 $-1 #
coedge $-1 $225 $358 $352 $463 reversed $350 $-1 #
vertex $-1 $226 $473 #
straight-curve $-1 0 307.25547044282359 153.6277352214118 -1 0 0 I I #
coedge $-1 $227 $353 $229 $372 reversed $129 $-1 #
vertex $-1 $364 $474 #
straight-curve $-1 0 -307.25547044282359 153.6277352214118 1 0 0 I I #
edge $-1 $232 -153.6277352214118 $361 153.6277352214118 $229 $475 forward 7 unknown #
edge $-1 $233 -153.6277352214118 $360 153.6277352214118 $230 $476 forward 7 unknown #
point $-1 8.445283636801431 -307.25547044282359 153.6277352214118 #
point $-1 8.445283636801431 307.25547044282359 153.6277352214118 #
coedge $-1 $376 $376 $-1 $477 reversed $235 $-1 #
vertex $-1 $237 $478 #
ellipse-curve $-1 0 0 -1.25 0 0 -1 2.5 0 0 1 I I #
point $-1 2.5 0 -7.7825632496108899 #
face $-1 $-1 $255 $30 $-1 $479 reversed single #
loop $-1 $-1 $396 $240 #
plane-surface $-1 0 307.25547044282359 0 0 -1 0 0 0 -1 forward_v I I I I #
coedge $-1 $480 $394 $397 $481 forward $241 $-1 #
coedge $-1 $400 $243 $244 $388 reversed $142 $-1 #
coedge $-1 $394 $480 $243 $386 reversed $241 $-1 #
edge $-1 $401 -153.6277352214118 $482 153.6277352214118 $385 $483 forward 7 unknown #
coedge $-1 $245 $244 $480 $484 forward $91 $-1 #
edge $-1 $392 -8.445283636801431 $482 8.445283636801431 $384 $485 forward 7 unknown #
coedge $-1 $397 $396 $245 $390 reversed $381 $-1 #
edge $-1 $486 -8.445283636801431 $391 8.445283636801431 $389 $487 forward 7 unknown #
vertex $-1 $247 $488 #
vertex $-1 $403 $489 #
straight-curve $-1 8.445283636801431 0 -153.6277352214118 0 -1 0 I I #
coedge $-1 $383 $385 $248 $395 reversed $241 $-1 #
edge $-1 $398 -307.25547044282359 $401 307.25547044282359 $394 $490 forward 7 unknown #
coedge $-1 $389 $249 $254 $404 forward $381 $-1 #
coedge $-1 $249 $389 $383 $481 reversed $381 $-1 #
vertex $-1 $250 $491 #
straight-curve $-1 0 307.25547044282359 153.6277352214118 -1 0 0 I I #
coedge $-1 $251 $384 $253 $403 reversed $142 $-1 #
vertex $-1 $395 $492 #
straight-curve $-1 0 -307.25547044282359 153.6277352214118 1 0 0 I I #
edge $-1 $256 -153.6277352214118 $392 153.6277352214118 $253 $493 forward 7 unknown #
edge $-1 $257 -153.6277352214118 $391 153.6277352214118 $254 $494 forward 7 unknown #
point $-1 8.445283636801431 -307.25547044282359 153.6277352214118 #
point $-1 8.445283636801431 307.25547044282359 153.6277352214118 #
coedge $-1 $407 $407 $-1 $495 reversed $259 $-1 #
vertex $-1 $261 $496 #
ellipse-curve $-1 0 0 -1.25 0 0 -1 2.5 0 0 1 I I #
point $-1 2.5 0 -7.7825632496108899 #
plane-surface $-1 76.813867610705898 0 0 -1 0 0 0 0 1 forward_v I I I I #
coedge $-1 $269 $267 $271 $416 reversed $155 $-1 #
edge $-1 $282 -20.635184629829354 $418 20.635184629829354 $281 $497 forward 7 unknown #
vertex $-1 $416 $498 #
straight-curve $-1 -76.813867610705898 -49.608438477866031 0 0 0 -1 I I #
edge $-1 $414 -49.608438477866031 $418 49.608438477866031 $412 $499 forward 7 unknown #
straight-curve $-1 0 -49.608438477866031 -20.635184629829354 -1 0 0 I I #
vertex $-1 $274 $500 #
straight-curve $-1 0 49.608438477866031 -20.635184629829354 1 0 0 I I #
point $-1 76.813867610705898 49.608438477866031 -20.635184629829354 #
point $-1 76.813867610705898 -49.608438477866031 -20.635184629829354 #
straight-curve $-1 -76.813867610705898 0 20.635184629829354 0 -1 0 I I #
point $-1 -76.813867610705898 49.608438477866031 20.635184629829354 #
point $-1 -76.813867610705898 -49.608438477866031 20.635184629829354 #
straight-curve $-1 76.813867610705898 -49.608438477866031 0 0 0 -1 I I #
straight-curve $-1 76.813867610705898 49.608438477866031 0 0 0 -1 I I #
plane-surface $-1 13.169293340450045 0 0 -1 0 0 0 0 1 forward_v I I I I #
coedge $-1 $296 $294 $298 $432 reversed $174 $-1 #
edge $-1 $309 -20.635184629829354 $434 20.635184629829354 $308 $501 forward 7 unknown #
vertex $-1 $432 $502 #
straight-curve $-1 -13.169293340450045 -4.5617568560776043 0 0 0 -1 I I #
edge $-1 $430 -4.5617568560776043 $434 4.5617568560776043 $428 $503 forward 7 unknown #
straight-curve $-1 0 -4.5617568560776043 -20.635184629829354 -1 0 0 I I #
vertex $-1 $301 $504 #
straight-curve $-1 0 4.5617568560776043 -20.635184629829354 1 0 0 I I #
point $-1 13.169293340450045 4.5617568560776043 -20.635184629829354 #
point $-1 13.169293340450045 -4.5617568560776043 -20.635184629829354 #
straight-curve $-1 -13.169293340450045 0 20.635184629829354 0 -1 0 I I #
point $-1 -13.169293340450045 4.5617568560776043 20.635184629829354 #
point $-1 -13.169293340450045 -4.5617568560776043 20.635184629829354 #
straight-curve $-1 13.169293340450045 -4.5617568560776043 0 0 0 -1 I I #
straight-curve $-1 13.169293340450045 4.5617568560776043 0 0 0 -1 I I #
plane-surface $-1 11.674419801976768 0 0 -1 0 0 0 0 1 forward_v I I I I #
coedge $-1 $323 $321 $325 $448 reversed $193 $-1 #
edge $-1 $336 -153.6277352214118 $450 153.6277352214118 $335 $505 forward 7 unknown #
vertex $-1 $448 $506 #
straight-curve $-1 -11.674419801976768 -307.25547044282359 0 0 0 -1 I I #
edge $-1 $446 -307.25547044282359 $450 307.25547044282359 $444 $507 forward 7 unknown #
straight-curve $-1 0 -307.25547044282359 -153.6277352214118 -1 0 0 I I #
vertex $-1 $328 $508 #
straight-curve $-1 0 307.25547044282359 -153.6277352214118 1 0 0 I I #
point $-1 11.674419801976768 307.25547044282359 -153.6277352214118 #
point $-1 11.674419801976768 -307.25547044282359 -153.6277352214118 #
straight-curve $-1 -11.674419801976768 0 153.6277352214118 0 -1 0 I I #
point $-1 -11.674419801976768 307.25547044282359 153.6277352214118 #
point $-1 -11.674419801976768 -307.25547044282359 153.6277352214118 #
straight-curve $-1 11.674419801976768 -307.25547044282359 0 0 0 -1 I I #
straight-curve $-1 11.674419801976768 307.25547044282359 0 0 0 -1 I I #
edge $-1 $509 1 $509 0 $345 $-1 forward 7 unknown #
point $-1 3 0 -1.5000000000000009 #
plane-surface $-1 8.445283636801431 0 0 -1 0 0 0 0 1 forward_v I I I I #
coedge $-1 $354 $352 $356 $466 reversed $217 $-1 #
edge $-1 $367 -153.6277352214118 $468 153.6277352214118 $366 $510 forward 7 unknown #
vertex $-1 $466 $511 #
straight-curve $-1 -8.445283636801431 -307.25547044282359 0 0 0 -1 I I #
edge $-1 $464 -307.25547044282359 $468 307.25547044282359 $462 $512 forward 7 unknown #
straight-curve $-1 0 -307.25547044282359 -153.6277352214118 -1 0 0 I I #
vertex $-1 $359 $513 #
straight-curve $-1 0 307.25547044282359 -153.6277352214118 1 0 0 I I #
point $-1 8.445283636801431 307.25547044282359 -153.6277352214118 #
point $-1 8.445283636801431 -307.25547044282359 -153.6277352214118 #
straight-curve $-1 -8.445283636801431 0 153.6277352214118 0 -1 0 I I #
point $-1 -8.445283636801431 307.25547044282359 153.6277352214118 #
point $-1 -8.445283636801431 -307.25547044282359 153.6277352214118 #
straight-curve $-1 8.445283636801431 -307.25547044282359 0 0 0 -1 I I #
straight-curve $-1 8.445283636801431 307.25547044282359 0 0 0 -1 I I #
edge $-1 $514 1 $514 0 $376 $-1 forward 7 unknown #
point $-1 2.5 0 -1.25 #
plane-surface $-1 8.445283636801431 0 0 -1 0 0 0 0 1 forward_v I I I I #
coedge $-1 $385 $383 $387 $484 reversed $241 $-1 #
edge $-1 $398 -153.6277352214118 $486 153.6277352214118 $397 $515 forward 7 unknown #
vertex $-1 $484 $516 #
straight-curve $-1 -8.445283636801431 -307.25547044282359 0 0 0 -1 I I #
edge $-1 $482 -307.25547044282359 $486 307.25547044282359 $480 $517 forward 7 unknown #
straight-curve $-1 0 -307.25547044282359 -153.6277352214118 -1 0 0 I I #
vertex $-1 $390 $518 #
straight-curve $-1 0 307.25547044282359 -153.6277352214118 1 0 0 I I #
point $-1 8.445283636801431 307.25547044282359 -153.6277352214118 #
point $-1 8.445283636801431 -307.25547044282359 -153.6277352214118 #
straight-curve $-1 -8.445283636801431 0 153.6277352214118 0 -1 0 I I #
point $-1 -8.445283636801431 307.25547044282359 153.6277352214118 #
point $-1 -8.445283636801431 -307.25547044282359 153.6277352214118 #
straight-curve $-1 8.445283636801431 -307.25547044282359 0 0 0 -1 I I #
straight-curve $-1 8.445283636801431 307.25547044282359 0 0 0 -1 I I #
edge $-1 $519 1 $519 0 $407 $-1 forward 7 unknown #
point $-1 2.5 0 -1.25 #
straight-curve $-1 -76.813867610705898 49.608438477866031 0 0 0 -1 I I #
point $-1 -76.813867610705898 -49.608438477866031 -20.635184629829354 #
straight-curve $-1 -76.813867610705898 0 -20.635184629829354 0 1 0 I I #
point $-1 -76.813867610705898 49.608438477866031 -20.635184629829354 #
straight-curve $-1 -13.169293340450045 4.5617568560776043 0 0 0 -1 I I #
point $-1 -13.169293340450045 -4.5617568560776043 -20.635184629829354 #
straight-curve $-1 -13.169293340450045 0 -20.635184629829354 0 1 0 I I #
point $-1 -13.169293340450045 4.5617568560776043 -20.635184629829354 #
straight-curve $-1 -11.674419801976768 307.25547044282359 0 0 0 -1 I I #
point $-1 -11.674419801976768 -307.25547044282359 -153.6277352214118 #
straight-curve $-1 -11.674419801976768 0 -153.6277352214118 0 1 0 I I #
point $-1 -11.674419801976768 307.25547044282359 -153.6277352214118 #
vertex $-1 $459 $520 #
straight-curve $-1 -8.445283636801431 307.25547044282359 0 0 0 -1 I I #
point $-1 -8.445283636801431 -307.25547044282359 -153.6277352214118 #
straight-curve $-1 -8.445283636801431 0 -153.6277352214118 0 1 0 I I #
point $-1 -8.445283636801431 307.25547044282359 -153.6277352214118 #
vertex $-1 $477 $521 #
straight-curve $-1 -8.445283636801431 307.25547044282359 0 0 0 -1 I I #
point $-1 -8.445283636801431 -307.25547044282359 -153.6277352214118 #
straight-curve $-1 -8.445283636801431 0 -153.6277352214118 0 1 0 I I #
point $-1 -8.445283636801431 307.25547044282359 -153.6277352214118 #
vertex $-1 $495 $522 #
point $-1 0 0 1.5000000000000009 #
point $-1 0 0 1.25 #
point $-1 0 0 1.25 #
End-of-ACIS-data 