500 0 13 0           
7 Unknown 11 ACIS 5.0 NT 24 Thu Mar 25 22:52:02 1999 
-1 9.9999999999999995e-007 1e-010 
body $-1 $13 $-1 $14 #
body $-1 $15 $-1 $16 #
body $-1 $17 $-1 $18 #
body $-1 $19 $-1 $20 #
body $-1 $21 $-1 $22 #
body $-1 $23 $-1 $24 #
body $-1 $25 $-1 $26 #
body $-1 $27 $-1 $28 #
body $-1 $29 $-1 $30 #
body $-1 $31 $-1 $32 #
body $-1 $33 $-1 $34 #
body $-1 $35 $-1 $36 #
body $-1 $37 $-1 $38 #
lump $-1 $-1 $39 $0 #
transform $-1 1 0 0 0 1 0 0 0 1 63.211157567064426 27.741185008137961 6.7384148599741103 1 rotate no_reflect no_shear #
lump $-1 $-1 $40 $1 #
transform $-1 1 0 0 0 1 0 0 0 1 63.211157567064426 27.741185008137961 6.7384148599741103 1 rotate no_reflect no_shear #
lump $-1 $-1 $41 $2 #
transform $-1 1 0 0 0 1 0 0 0 1 63.211157567064426 27.741185008137961 6.7384148599741103 1 rotate no_reflect no_shear #
lump $-1 $-1 $42 $3 #
transform $-1 1 0 0 0 1 0 0 0 1 63.211157567064426 27.741185008137961 6.7384148599741103 1 rotate no_reflect no_shear #
lump $-1 $-1 $43 $4 #
transform $-1 1 0 0 0 1 0 0 0 1 63.211157567064426 27.741185008137961 6.7384148599741103 1 rotate no_reflect no_shear #
lump $-1 $-1 $44 $5 #
transform $-1 1 0 0 0 1 0 0 0 1 63.211157567064426 27.741185008137961 6.7384148599741103 1 rotate no_reflect no_shear #
lump $-1 $-1 $45 $6 #
transform $-1 1 0 0 0 1 0 0 0 1 63.211157567064426 27.741185008137961 6.7384148599741103 1 rotate no_reflect no_shear #
lump $-1 $-1 $46 $7 #
transform $-1 1 0 0 0 1 0 0 0 1 63.211157567064426 27.741185008137961 6.7384148599741103 1 rotate no_reflect no_shear #
lump $-1 $-1 $47 $8 #
transform $-1 1 0 0 0 1 0 0 0 1 63.211157567064426 27.741185008137961 6.7384148599741103 1 rotate no_reflect no_shear #
lump $-1 $-1 $48 $9 #
transform $-1 1 0 0 0 1 0 0 0 1 63.211157567064426 27.741185008137961 6.7384148599741103 1 rotate no_reflect no_shear #
lump $-1 $-1 $49 $10 #
transform $-1 1 0 0 0 1 0 0 0 1 63.211157567064426 27.741185008137961 6.7384148599741103 1 rotate no_reflect no_shear #
lump $-1 $-1 $50 $11 #
transform $-1 1 0 0 0 1 0 0 0 1 63.211157567064426 27.741185008137961 6.7384148599741103 1 rotate no_reflect no_shear #
lump $-1 $-1 $51 $12 #
transform $-1 1 0 0 0 1 0 0 0 1 63.211157567064426 27.741185008137961 6.7384148599741103 1 rotate no_reflect no_shear #
shell $-1 $-1 $-1 $52 $-1 $13 #
shell $-1 $-1 $-1 $53 $-1 $15 #
shell $-1 $-1 $-1 $54 $-1 $17 #
shell $-1 $-1 $-1 $55 $-1 $19 #
shell $-1 $-1 $-1 $56 $-1 $21 #
shell $-1 $-1 $-1 $57 $-1 $23 #
shell $-1 $-1 $-1 $58 $-1 $25 #
shell $-1 $-1 $-1 $59 $-1 $27 #
shell $-1 $-1 $-1 $60 $-1 $29 #
shell $-1 $-1 $-1 $61 $-1 $31 #
shell $-1 $-1 $-1 $62 $-1 $33 #
shell $-1 $-1 $-1 $63 $-1 $35 #
shell $-1 $-1 $-1 $64 $-1 $37 #
face $-1 $65 $66 $39 $-1 $67 forward single #
face $-1 $68 $69 $40 $-1 $70 forward single #
face $-1 $71 $72 $41 $-1 $73 reversed single #
face $-1 $74 $75 $42 $-1 $76 forward single #
face $-1 $77 $78 $43 $-1 $79 forward single #
face $-1 $80 $81 $44 $-1 $82 reversed single #
face $-1 $83 $84 $45 $-1 $85 forward single #
face $-1 $86 $87 $46 $-1 $88 reversed single #
face $-1 $89 $90 $47 $-1 $91 forward single #
face $-1 $92 $93 $48 $-1 $94 reversed single #
face $-1 $95 $96 $49 $-1 $97 forward single #
face $-1 $98 $99 $50 $-1 $100 reversed single #
face $-1 $101 $102 $51 $-1 $103 forward single #
face $-1 $104 $105 $39 $-1 $106 reversed single #
loop $-1 $-1 $107 $52 #
plane-surface $-1 0 0 6.7384148599741103 0 0 1 1 0 0 forward_v I I I I #
face $-1 $108 $109 $40 $-1 $110 reversed single #
loop $-1 $-1 $111 $53 #
plane-surface $-1 -63.211157567064426 0 0 1 0 0 0 0 -1 forward_v I I I I #
face $-1 $112 $113 $41 $-1 $114 reversed single #
loop $-1 $-1 $115 $54 #
plane-surface $-1 41.327516885648713 -92.853491686639728 108.57260534652893 -1 0 0 0 -0.51503808176128008 0.85716729658548041 forward_v I I I I #
face $-1 $116 $117 $42 $-1 $118 forward single #
loop $-1 $119 $120 $55 #
cone-surface $-1 26.714645343461818 -21.004148063247371 1.3053668178148321 0 0.51503808176128008 -0.85716729658548041 2.5 0 0 1 I I 0 1 2.5 forward I I I I #
face $-1 $121 $122 $43 $-1 $123 forward single #
loop $-1 $124 $125 $56 #
cone-surface $-1 35.482368268773961 -21.004148063247371 1.3053668178148321 0 0.51503808176128008 -0.85716729658548041 2.5 0 0 1 I I 0 1 2.5 forward I I I I #
face $-1 $126 $127 $44 $-1 $128 reversed single #
loop $-1 $-1 $129 $57 #
plane-surface $-1 -48.034740165684958 82.361729321822068 127.83265026024665 1 0 0 0 -0.73135370988377701 -0.68199835119979291 forward_v I I I I #
face $-1 $130 $131 $45 $-1 $132 forward single #
loop $-1 $133 $134 $58 #
cone-surface $-1 -40.147204210071436 24.649603007593782 3.4836000749969167 0 -0.73135370988377701 -0.68199835119979291 1 0 0 1 I I 0 1 1 forward I I I I #
face $-1 $135 $136 $46 $-1 $137 reversed single #
loop $-1 $-1 $138 $59 #
plane-surface $-1 -17.86443634405763 82.361729321822068 127.83265026024665 1 0 0 0 -0.73135370988377701 -0.68199835119979291 forward_v I I I I #
face $-1 $139 $140 $47 $-1 $141 forward single #
loop $-1 $142 $143 $60 #
cone-surface $-1 -9.9769003884441076 24.649603007593782 3.4836000749969167 0 -0.73135370988377701 -0.68199835119979291 1 0 0 1 I I 0 1 1 forward I I I I #
face $-1 $144 $145 $48 $-1 $146 reversed single #
loop $-1 $-1 $147 $61 #
plane-surface $-1 12.305867477569691 82.361729321822068 127.83265026024665 1 0 0 0 -0.73135370988377701 -0.68199835119979291 forward_v I I I I #
face $-1 $148 $149 $49 $-1 $150 forward single #
loop $-1 $151 $152 $62 #
cone-surface $-1 20.193403433183214 24.649603007593782 3.4836000749969167 0 -0.73135370988377701 -0.68199835119979291 1 0 0 1 I I 0 1 1 forward I I I I #
face $-1 $153 $154 $50 $-1 $155 reversed single #
loop $-1 $-1 $156 $63 #
plane-surface $-1 42.47617129919702 82.361729321822068 127.83265026024665 1 0 0 0 -0.73135370988377701 -0.68199835119979291 forward_v I I I I #
face $-1 $157 $158 $51 $-1 $159 forward single #
loop $-1 $160 $161 $64 #
cone-surface $-1 50.363707254810542 24.649603007593782 3.4836000749969167 0 -0.73135370988377701 -0.68199835119979291 1 0 0 1 I I 0 1 1 forward I I I I #
face $-1 $162 $163 $39 $-1 $164 reversed single #
loop $-1 $-1 $165 $65 #
plane-surface $-1 0 0 -6.7384148599741103 0 0 1 1 0 0 forward_v I I I I #
coedge $-1 $166 $167 $168 $169 forward $66 $-1 #
face $-1 $170 $171 $40 $-1 $172 reversed single #
loop $-1 $-1 $173 $68 #
plane-surface $-1 0 0 -6.7384148599741103 0 0 1 1 0 0 forward_v I I I I #
coedge $-1 $174 $175 $176 $177 forward $69 $-1 #
face $-1 $178 $179 $41 $-1 $180 reversed single #
loop $-1 $-1 $181 $71 #
plane-surface $-1 31.098506806117889 -27.741185008137961 0.20753125493003211 0 -0.51503808176128008 0.85716729658548041 1 0 0 forward_v I I I I #
coedge $-1 $182 $183 $184 $185 reversed $72 $-1 #
face $-1 $-1 $186 $42 $-1 $187 forward single #
loop $-1 $188 $189 $74 #
cone-surface $-1 26.714645343461818 -19.057921210508894 -1.9336985425542643 0 0.51503808176128008 -0.85716729658548041 1.25 0 0 1 I I -0.70710678118654746 0.70710678118654746 1.25 forward I I I I #
loop $-1 $-1 $190 $55 #
coedge $-1 $120 $120 $191 $192 reversed $75 $-1 #
face $-1 $-1 $193 $43 $-1 $194 forward single #
loop $-1 $195 $196 $77 #
cone-surface $-1 35.482368268773961 -19.057921210508894 -1.9336985425542643 0 0.51503808176128008 -0.85716729658548041 1.25 0 0 1 I I -0.70710678118654746 0.70710678118654746 1.25 forward I I I I #
loop $-1 $-1 $197 $56 #
coedge $-1 $125 $125 $198 $199 reversed $78 $-1 #
face $-1 $200 $201 $44 $-1 $202 reversed single #
loop $-1 $-1 $203 $80 #
plane-surface $-1 -40.147204210071436 -10.097699863619042 41.612839783910147 0 0.73135370988377701 0.68199835119979291 1 0 0 forward_v I I I I #
coedge $-1 $204 $205 $206 $207 reversed $81 $-1 #
face $-1 $-1 $208 $45 $-1 $209 forward single #
loop $-1 $210 $211 $83 #
cone-surface $-1 -40.147204210071436 23.851323302071513 2.7391922247257234 0 -0.73135370988377701 -0.68199835119979291 0.5 0 0 1 I I -0.70710678118654746 0.70710678118654746 0.5 forward I I I I #
loop $-1 $-1 $212 $58 #
coedge $-1 $134 $134 $213 $214 reversed $84 $-1 #
face $-1 $215 $216 $46 $-1 $217 reversed single #
loop $-1 $-1 $218 $86 #
plane-surface $-1 -9.9769003884441076 -10.097699863619042 41.612839783910147 0 0.73135370988377701 0.68199835119979291 1 0 0 forward_v I I I I #
coedge $-1 $219 $220 $221 $222 reversed $87 $-1 #
face $-1 $-1 $223 $47 $-1 $224 forward single #
loop $-1 $225 $226 $89 #
cone-surface $-1 -9.9769003884441076 23.851323302071513 2.7391922247257234 0 -0.73135370988377701 -0.68199835119979291 0.5 0 0 1 I I -0.70710678118654746 0.70710678118654746 0.5 forward I I I I #
loop $-1 $-1 $227 $60 #
coedge $-1 $143 $143 $228 $229 reversed $90 $-1 #
face $-1 $230 $231 $48 $-1 $232 reversed single #
loop $-1 $-1 $233 $92 #
plane-surface $-1 20.193403433183214 -10.097699863619042 41.612839783910147 0 0.73135370988377701 0.68199835119979291 1 0 0 forward_v I I I I #
coedge $-1 $234 $235 $236 $237 reversed $93 $-1 #
face $-1 $-1 $238 $49 $-1 $239 forward single #
loop $-1 $240 $241 $95 #
cone-surface $-1 20.193403433183214 23.851323302071513 2.7391922247257234 0 -0.73135370988377701 -0.68199835119979291 0.5 0 0 1 I I -0.70710678118654746 0.70710678118654746 0.5 forward I I I I #
loop $-1 $-1 $242 $62 #
coedge $-1 $152 $152 $243 $244 reversed $96 $-1 #
face $-1 $245 $246 $50 $-1 $247 reversed single #
loop $-1 $-1 $248 $98 #
plane-surface $-1 50.363707254810542 -10.097699863619042 41.612839783910147 0 0.73135370988377701 0.68199835119979291 1 0 0 forward_v I I I I #
coedge $-1 $249 $250 $251 $252 reversed $99 $-1 #
face $-1 $-1 $253 $51 $-1 $254 forward single #
loop $-1 $255 $256 $101 #
cone-surface $-1 50.363707254810542 23.851323302071513 2.7391922247257234 0 -0.73135370988377701 -0.68199835119979291 0.5 0 0 1 I I -0.70710678118654746 0.70710678118654746 0.5 forward I I I I #
loop $-1 $-1 $257 $64 #
coedge $-1 $161 $161 $258 $259 reversed $102 $-1 #
face $-1 $260 $261 $39 $-1 $262 reversed single #
loop $-1 $-1 $263 $104 #
plane-surface $-1 0 -27.741185008137961 0 0 1 0 0 0 1 forward_v I I I I #
coedge $-1 $264 $265 $266 $267 forward $105 $-1 #
coedge $-1 $268 $107 $269 $270 forward $66 $-1 #
coedge $-1 $107 $268 $271 $272 forward $66 $-1 #
coedge $-1 $273 $274 $107 $169 reversed $275 $-1 #
edge $-1 $276 -27.741185008137961 $277 27.741185008137961 $168 $278 forward 7 unknown #
face $-1 $279 $280 $40 $-1 $281 reversed single #
loop $-1 $-1 $282 $108 #
plane-surface $-1 -66.081707490874194 -24.312322984860739 0 0 1 0 0 0 1 forward_v I I I I #
coedge $-1 $283 $284 $175 $285 forward $109 $-1 #
coedge $-1 $286 $111 $287 $288 reversed $69 $-1 #
coedge $-1 $111 $286 $173 $285 reversed $69 $-1 #
coedge $-1 $289 $290 $111 $177 reversed $291 $-1 #
edge $-1 $292 -6.7384148599741103 $293 6.7384148599741103 $176 $294 forward 7 unknown #
face $-1 $295 $296 $41 $-1 $297 forward single #
loop $-1 $-1 $298 $112 #
plane-surface $-1 20.869496726587066 -92.853491686639728 108.57260534652893 1 0 0 0 0.51503808176128008 -0.85716729658548041 forward_v I I I I #
coedge $-1 $299 $300 $301 $302 reversed $113 $-1 #
coedge $-1 $183 $115 $303 $304 reversed $72 $-1 #
coedge $-1 $115 $182 $299 $305 reversed $72 $-1 #
coedge $-1 $301 $306 $115 $185 forward $296 $-1 #
edge $-1 $307 18.685560835181903 $308 29.554776223889348 $184 $309 forward 7 unknown #
loop $-1 $-1 $191 $116 #
plane-surface $-1 31.098506806117889 -27.741185008137961 0.20753125493003211 0 -0.51503808176128008 0.85716729658548041 1 0 0 forward_v I I I I #
loop $-1 $-1 $310 $74 #
coedge $-1 $189 $189 $190 $311 reversed $117 $-1 #
coedge $-1 $190 $190 $189 $311 forward $119 $-1 #
coedge $-1 $191 $191 $120 $192 forward $186 $-1 #
edge $-1 $312 -5.1494400359445163e-016 $312 6.2831853071795996 $191 $313 forward 7 unknown #
loop $-1 $-1 $198 $121 #
plane-surface $-1 31.098506806117889 -27.741185008137961 0.20753125493003211 0 -0.51503808176128008 0.85716729658548041 1 0 0 forward_v I I I I #
loop $-1 $-1 $314 $77 #
coedge $-1 $196 $196 $197 $315 reversed $122 $-1 #
coedge $-1 $197 $197 $196 $315 forward $124 $-1 #
coedge $-1 $198 $198 $125 $199 forward $193 $-1 #
edge $-1 $316 -5.1494400359445163e-016 $316 6.2831853071795996 $198 $317 forward 7 unknown #
face $-1 $318 $319 $44 $-1 $320 reversed single #
loop $-1 $-1 $321 $126 #
plane-surface $-1 -32.259668254457914 82.361729321822068 127.83265026024665 -1 0 0 0 0.73135370988377701 0.68199835119979291 forward_v I I I I #
coedge $-1 $322 $323 $324 $325 reversed $127 $-1 #
coedge $-1 $205 $129 $326 $327 reversed $81 $-1 #
coedge $-1 $129 $204 $322 $328 reversed $81 $-1 #
coedge $-1 $324 $329 $129 $207 forward $330 $-1 #
edge $-1 $331 13.439679652773073 $332 18.757637952700669 $206 $333 forward 7 unknown #
loop $-1 $-1 $213 $130 #
plane-surface $-1 -40.147204210071436 -10.097699863619042 41.612839783910147 0 0.73135370988377701 0.68199835119979291 1 0 0 forward_v I I I I #
loop $-1 $-1 $334 $83 #
coedge $-1 $211 $211 $212 $335 reversed $131 $-1 #
coedge $-1 $212 $212 $211 $335 forward $133 $-1 #
coedge $-1 $213 $213 $134 $214 forward $208 $-1 #
edge $-1 $336 2.2735040380023892e-015 $336 6.2831853071796031 $213 $337 forward 7 unknown #
face $-1 $338 $339 $46 $-1 $340 forward single #
loop $-1 $-1 $341 $135 #
plane-surface $-1 -2.0893644328305854 82.361729321822068 127.83265026024665 -1 0 0 0 0.73135370988377701 0.68199835119979291 forward_v I I I I #
coedge $-1 $342 $343 $344 $345 reversed $136 $-1 #
coedge $-1 $220 $138 $346 $347 reversed $87 $-1 #
coedge $-1 $138 $219 $342 $348 reversed $87 $-1 #
coedge $-1 $344 $349 $138 $222 forward $339 $-1 #
edge $-1 $350 13.439679652773073 $351 18.757637952700669 $221 $352 forward 7 unknown #
loop $-1 $-1 $228 $139 #
plane-surface $-1 -9.9769003884441076 -10.097699863619042 41.612839783910147 0 0.73135370988377701 0.68199835119979291 1 0 0 forward_v I I I I #
loop $-1 $-1 $353 $89 #
coedge $-1 $226 $226 $227 $354 reversed $140 $-1 #
coedge $-1 $227 $227 $226 $354 forward $142 $-1 #
coedge $-1 $228 $228 $143 $229 forward $223 $-1 #
edge $-1 $355 2.2735040380023892e-015 $355 6.2831853071796031 $228 $356 forward 7 unknown #
face $-1 $357 $358 $48 $-1 $359 forward single #
loop $-1 $-1 $360 $144 #
plane-surface $-1 28.080939388796736 82.361729321822068 127.83265026024665 -1 0 0 0 0.73135370988377701 0.68199835119979291 forward_v I I I I #
coedge $-1 $361 $362 $363 $364 reversed $145 $-1 #
coedge $-1 $235 $147 $365 $366 reversed $93 $-1 #
coedge $-1 $147 $234 $361 $367 reversed $93 $-1 #
coedge $-1 $363 $368 $147 $237 forward $358 $-1 #
edge $-1 $369 13.439679652773073 $370 18.757637952700669 $236 $371 forward 7 unknown #
loop $-1 $-1 $243 $148 #
plane-surface $-1 20.193403433183214 -10.097699863619042 41.612839783910147 0 0.73135370988377701 0.68199835119979291 1 0 0 forward_v I I I I #
loop $-1 $-1 $372 $95 #
coedge $-1 $241 $241 $242 $373 reversed $149 $-1 #
coedge $-1 $242 $242 $241 $373 forward $151 $-1 #
coedge $-1 $243 $243 $152 $244 forward $238 $-1 #
edge $-1 $374 2.2735040380023892e-015 $374 6.2831853071796031 $243 $375 forward 7 unknown #
face $-1 $376 $377 $50 $-1 $378 forward single #
loop $-1 $-1 $379 $153 #
plane-surface $-1 58.251243210424065 82.361729321822068 127.83265026024665 -1 0 0 0 0.73135370988377701 0.68199835119979291 forward_v I I I I #
coedge $-1 $380 $381 $382 $383 reversed $154 $-1 #
coedge $-1 $250 $156 $384 $385 reversed $99 $-1 #
coedge $-1 $156 $249 $380 $386 reversed $99 $-1 #
coedge $-1 $382 $387 $156 $252 forward $377 $-1 #
edge $-1 $388 13.439679652773073 $389 18.757637952700669 $251 $390 forward 7 unknown #
loop $-1 $-1 $258 $157 #
plane-surface $-1 50.363707254810542 -10.097699863619042 41.612839783910147 0 0.73135370988377701 0.68199835119979291 1 0 0 forward_v I I I I #
loop $-1 $-1 $391 $101 #
coedge $-1 $256 $256 $257 $392 reversed $158 $-1 #
coedge $-1 $257 $257 $256 $392 forward $160 $-1 #
coedge $-1 $258 $258 $161 $259 forward $253 $-1 #
edge $-1 $393 2.2735040380023892e-015 $393 6.2831853071796031 $258 $394 forward 7 unknown #
face $-1 $395 $396 $39 $-1 $397 reversed single #
loop $-1 $-1 $398 $162 #
plane-surface $-1 -63.211157567064426 0 0 1 0 0 0 0 -1 forward_v I I I I #
coedge $-1 $399 $271 $400 $401 forward $163 $-1 #
coedge $-1 $402 $165 $399 $403 forward $105 $-1 #
coedge $-1 $165 $402 $404 $405 forward $105 $-1 #
coedge $-1 $274 $273 $165 $267 reversed $275 $-1 #
edge $-1 $406 -27.741185008137961 $407 27.741185008137961 $266 $408 forward 7 unknown #
coedge $-1 $167 $166 $409 $410 forward $66 $-1 #
coedge $-1 $411 $412 $166 $270 reversed $396 $-1 #
edge $-1 $277 -63.211157567064426 $413 63.211157567064426 $269 $414 forward 7 unknown #
coedge $-1 $263 $415 $167 $272 reversed $163 $-1 #
edge $-1 $416 -63.211157567064426 $276 63.211157567064426 $271 $417 forward 7 unknown #
coedge $-1 $266 $168 $415 $418 forward $275 $-1 #
coedge $-1 $168 $266 $411 $419 reversed $275 $-1 #
loop $-1 $-1 $273 $395 #
vertex $-1 $169 $420 #
vertex $-1 $169 $421 #
straight-curve $-1 63.211157567064426 0 6.7384148599741103 0 1 0 I I #
face $-1 $422 $291 $40 $-1 $423 reversed single #
loop $-1 $-1 $424 $170 #
plane-surface $-1 -68.95225741468397 -22.812322984860739 0 1 0 0 0 0 -1 forward_v I I I I #
coedge $-1 $425 $426 $427 $428 forward $171 $-1 #
coedge $-1 $429 $173 $425 $430 forward $109 $-1 #
coedge $-1 $173 $429 $289 $431 forward $109 $-1 #
edge $-1 $292 21.312322984860739 $432 24.312322984860739 $173 $433 forward 7 unknown #
coedge $-1 $175 $174 $434 $435 forward $69 $-1 #
coedge $-1 $436 $437 $174 $288 forward $438 $-1 #
edge $-1 $439 -24.312322984860739 $293 -21.312322984860739 $287 $440 forward 7 unknown #
coedge $-1 $441 $176 $284 $431 reversed $291 $-1 #
coedge $-1 $176 $441 $436 $442 reversed $291 $-1 #
loop $-1 $-1 $176 $279 #
vertex $-1 $285 $443 #
vertex $-1 $442 $444 #
straight-curve $-1 -63.211157567064426 -21.312322984860739 0 0 0 1 I I #
face $-1 $-1 $445 $41 $-1 $446 reversed single #
loop $-1 $-1 $184 $178 #
plane-surface $-1 0 0 6.7384148599741103 0 0 1 1 0 0 forward_v I I I I #
coedge $-1 $447 $448 $449 $450 reversed $179 $-1 #
coedge $-1 $451 $181 $183 $305 forward $113 $-1 #
coedge $-1 $181 $451 $447 $452 forward $113 $-1 #
coedge $-1 $449 $184 $181 $302 forward $296 $-1 #
edge $-1 $308 -25.778263482589768 $453 -5.3202433235281212 $301 $454 forward 7 unknown #
coedge $-1 $455 $456 $182 $304 forward $445 $-1 #
edge $-1 $457 -54.078771418334433 $307 -47.547887813290359 $303 $458 forward 7 unknown #
edge $-1 $308 -12.680389734891758 $457 0 $183 $459 forward 7 unknown #
coedge $-1 $184 $449 $455 $460 forward $296 $-1 #
vertex $-1 $185 $461 #
vertex $-1 $185 $462 #
straight-curve $-1 41.327516885648713 -46.426745843319864 6.7384148599741067 0 1 0 I I #
coedge $-1 $310 $310 $-1 $463 reversed $188 $-1 #
edge $-1 $464 0 $464 6.2831853071796004 $189 $465 forward 7 unknown #
vertex $-1 $192 $466 #
ellipse-curve $-1 26.714645343461818 -22.306577313784242 3.472973057452069 0 -0.51503808176128008 0.85716729658548041 2.5 0 0 1 I I #
coedge $-1 $314 $314 $-1 $467 reversed $195 $-1 #
edge $-1 $468 0 $468 6.2831853071796004 $196 $469 forward 7 unknown #
vertex $-1 $199 $470 #
ellipse-curve $-1 35.482368268773961 -22.306577313784242 3.472973057452069 0 -0.51503808176128008 0.85716729658548041 2.5 0 0 1 I I #
face $-1 $-1 $330 $44 $-1 $471 forward single #
loop $-1 $-1 $472 $200 #
plane-surface $-1 0 27.741185008137961 0 0 -1 0 0 0 -1 forward_v I I I I #
coedge $-1 $473 $474 $475 $476 reversed $201 $-1 #
coedge $-1 $477 $203 $205 $328 forward $127 $-1 #
coedge $-1 $203 $477 $473 $478 forward $127 $-1 #
coedge $-1 $475 $206 $203 $325 forward $330 $-1 #
edge $-1 $332 -27.96113806064924 $479 -12.186066149422196 $324 $480 forward 7 unknown #
coedge $-1 $481 $482 $204 $327 forward $319 $-1 #
edge $-1 $483 -62.880722490761002 $331 -57.177910270149212 $326 $484 forward 7 unknown #
edge $-1 $332 47.684758349661067 $483 55.482370016275908 $205 $485 forward 7 unknown #
coedge $-1 $206 $475 $481 $486 forward $330 $-1 #
loop $-1 $-1 $475 $318 #
vertex $-1 $327 $487 #
vertex $-1 $207 $488 #
straight-curve $-1 -48.034740165684958 41.180864660911034 6.7384148599741138 0 -1 0 I I #
coedge $-1 $334 $334 $-1 $489 reversed $210 $-1 #
edge $-1 $490 0 $490 6.2831853071796004 $211 $491 forward 7 unknown #
vertex $-1 $214 $492 #
ellipse-curve $-1 -40.147204210071436 25.082205858174166 3.8870087496682166 0 0.73135370988377701 0.68199835119979291 1 0 0 1 I I #
face $-1 $-1 $493 $46 $-1 $494 reversed single #
loop $-1 $-1 $221 $215 #
plane-surface $-1 0 0 6.7384148599741103 0 0 1 1 0 0 forward_v I I I I #
coedge $-1 $495 $496 $497 $498 reversed $216 $-1 #
coedge $-1 $499 $218 $220 $348 forward $136 $-1 #
coedge $-1 $218 $499 $495 $500 forward $136 $-1 #
coedge $-1 $497 $221 $218 $345 forward $339 $-1 #
edge $-1 $351 -12.875986149835576 $501 2.8990857613914685 $344 $502 forward 7 unknown #
coedge $-1 $503 $504 $219 $347 forward $493 $-1 #
edge $-1 $505 -62.880722490761002 $350 -57.177910270149212 $346 $506 forward 7 unknown #
edge $-1 $351 47.684758349661067 $505 55.482370016275908 $220 $507 forward 7 unknown #
coedge $-1 $221 $497 $503 $508 forward $339 $-1 #
vertex $-1 $222 $509 #
vertex $-1 $222 $510 #
straight-curve $-1 -17.86443634405763 41.180864660911034 6.7384148599741138 0 -1 0 I I #
coedge $-1 $353 $353 $-1 $511 reversed $225 $-1 #
edge $-1 $512 0 $512 6.2831853071796004 $226 $513 forward 7 unknown #
vertex $-1 $229 $514 #
ellipse-curve $-1 -9.9769003884441076 25.082205858174166 3.8870087496682166 0 0.73135370988377701 0.68199835119979291 1 0 0 1 I I #
face $-1 $-1 $515 $48 $-1 $516 reversed single #
loop $-1 $-1 $236 $230 #
plane-surface $-1 0 0 6.7384148599741103 0 0 1 1 0 0 forward_v I I I I #
coedge $-1 $517 $518 $519 $520 reversed $231 $-1 #
coedge $-1 $521 $233 $235 $367 forward $145 $-1 #
coedge $-1 $233 $521 $517 $522 forward $145 $-1 #
coedge $-1 $519 $236 $233 $364 forward $358 $-1 #
edge $-1 $370 2.2091657609780846 $523 17.984237672205129 $363 $524 forward 7 unknown #
coedge $-1 $525 $526 $234 $366 forward $515 $-1 #
edge $-1 $527 -62.880722490761002 $369 -57.177910270149212 $365 $528 forward 7 unknown #
edge $-1 $370 47.684758349661067 $527 55.482370016275908 $235 $529 forward 7 unknown #
coedge $-1 $236 $519 $525 $530 forward $358 $-1 #
vertex $-1 $237 $531 #
vertex $-1 $237 $532 #
straight-curve $-1 12.305867477569691 41.180864660911034 6.7384148599741138 0 -1 0 I I #
coedge $-1 $372 $372 $-1 $533 reversed $240 $-1 #
edge $-1 $534 0 $534 6.2831853071796004 $241 $535 forward 7 unknown #
vertex $-1 $244 $536 #
ellipse-curve $-1 20.193403433183214 25.082205858174166 3.8870087496682166 0 0.73135370988377701 0.68199835119979291 1 0 0 1 I I #
face $-1 $-1 $537 $50 $-1 $538 reversed single #
loop $-1 $-1 $251 $245 #
plane-surface $-1 0 0 6.7384148599741103 0 0 1 1 0 0 forward_v I I I I #
coedge $-1 $539 $540 $541 $542 reversed $246 $-1 #
coedge $-1 $543 $248 $250 $386 forward $154 $-1 #
coedge $-1 $248 $543 $539 $544 forward $154 $-1 #
coedge $-1 $541 $251 $248 $383 forward $377 $-1 #
edge $-1 $389 17.294317671791749 $545 33.06938958301879 $382 $546 forward 7 unknown #
coedge $-1 $547 $548 $249 $385 forward $537 $-1 #
edge $-1 $549 -62.880722490761002 $388 -57.177910270149212 $384 $550 forward 7 unknown #
edge $-1 $389 47.684758349661067 $549 55.482370016275908 $250 $551 forward 7 unknown #
coedge $-1 $251 $541 $547 $552 forward $377 $-1 #
vertex $-1 $252 $553 #
vertex $-1 $252 $554 #
straight-curve $-1 42.47617129919702 41.180864660911034 6.7384148599741138 0 -1 0 I I #
coedge $-1 $391 $391 $-1 $555 reversed $255 $-1 #
edge $-1 $556 0 $556 6.2831853071796004 $256 $557 forward 7 unknown #
vertex $-1 $259 $558 #
ellipse-curve $-1 50.363707254810542 25.082205858174166 3.8870087496682166 0 0.73135370988377701 0.68199835119979291 1 0 0 1 I I #
face $-1 $-1 $275 $39 $-1 $559 reversed single #
loop $-1 $-1 $411 $260 #
plane-surface $-1 0 27.741185008137961 0 0 -1 0 0 0 -1 forward_v I I I I #
coedge $-1 $560 $409 $412 $561 forward $261 $-1 #
coedge $-1 $415 $263 $264 $403 reversed $163 $-1 #
coedge $-1 $409 $560 $263 $401 reversed $261 $-1 #
edge $-1 $416 -6.7384148599741103 $562 6.7384148599741103 $400 $563 forward 7 unknown #
coedge $-1 $265 $264 $560 $564 forward $105 $-1 #
edge $-1 $407 -63.211157567064426 $562 63.211157567064426 $399 $565 forward 7 unknown #
coedge $-1 $412 $411 $265 $405 reversed $396 $-1 #
edge $-1 $566 -63.211157567064426 $406 63.211157567064426 $404 $567 forward 7 unknown #
vertex $-1 $267 $568 #
vertex $-1 $418 $569 #
straight-curve $-1 63.211157567064426 0 -6.7384148599741103 0 -1 0 I I #
coedge $-1 $398 $400 $268 $410 reversed $261 $-1 #
edge $-1 $413 -27.741185008137961 $416 27.741185008137961 $409 $570 forward 7 unknown #
coedge $-1 $404 $269 $274 $419 forward $396 $-1 #
coedge $-1 $269 $404 $398 $561 reversed $396 $-1 #
vertex $-1 $270 $571 #
straight-curve $-1 0 27.741185008137961 6.7384148599741103 -1 0 0 I I #
coedge $-1 $271 $399 $273 $418 reversed $163 $-1 #
vertex $-1 $410 $572 #
straight-curve $-1 0 -27.741185008137961 6.7384148599741103 1 0 0 I I #
edge $-1 $276 -6.7384148599741103 $407 6.7384148599741103 $273 $573 forward 7 unknown #
edge $-1 $277 -6.7384148599741103 $406 6.7384148599741103 $274 $574 forward 7 unknown #
point $-1 63.211157567064426 -27.741185008137961 6.7384148599741103 #
point $-1 63.211157567064426 27.741185008137961 6.7384148599741103 #
face $-1 $-1 $438 $40 $-1 $575 forward single #
plane-surface $-1 -66.081707490874194 -21.312322984860739 0 0 -1 0 0 0 -1 forward_v I I I I #
coedge $-1 $576 $577 $441 $578 forward $280 $-1 #
coedge $-1 $434 $282 $283 $430 reversed $171 $-1 #
coedge $-1 $282 $434 $437 $579 reversed $171 $-1 #
coedge $-1 $577 $576 $282 $428 reversed $280 $-1 #
edge $-1 $580 -6.7384148599741103 $581 6.7384148599741103 $427 $582 forward 7 unknown #
coedge $-1 $284 $283 $576 $583 forward $109 $-1 #
edge $-1 $432 -2.8705499238097758 $581 2.8705499238097758 $425 $584 forward 7 unknown #
edge $-1 $585 -2.8705499238097758 $292 2.8705499238097758 $289 $586 forward 7 unknown #
vertex $-1 $430 $587 #
straight-curve $-1 -63.211157567064426 0 -6.7384148599741103 0 -1 0 I I #
coedge $-1 $426 $425 $286 $435 reversed $171 $-1 #
edge $-1 $439 -6.7384148599741103 $432 6.7384148599741103 $434 $588 forward 7 unknown #
coedge $-1 $589 $287 $290 $442 forward $438 $-1 #
coedge $-1 $287 $589 $426 $579 forward $438 $-1 #
loop $-1 $-1 $287 $422 #
vertex $-1 $288 $590 #
straight-curve $-1 -63.211157567064426 0 6.7384148599741103 0 1 0 I I #
coedge $-1 $290 $289 $424 $578 reversed $291 $-1 #
edge $-1 $293 -2.8705499238097758 $591 2.8705499238097758 $290 $592 forward 7 unknown #
point $-1 -63.211157567064419 -21.312322984860739 -6.7384148599741103 #
point $-1 -63.211157567064419 -21.312322984860739 6.7384148599741103 #
loop $-1 $-1 $303 $295 #
plane-surface $-1 0 -27.741185008137961 0 0 1 0 0 0 1 forward_v I I I I #
coedge $-1 $448 $298 $300 $452 reversed $179 $-1 #
coedge $-1 $298 $447 $593 $594 reversed $179 $-1 #
coedge $-1 $306 $301 $298 $450 forward $296 $-1 #
edge $-1 $453 -29.554776223889348 $595 -18.685560835181903 $449 $596 forward 7 unknown #
coedge $-1 $300 $299 $456 $597 reversed $113 $-1 #
edge $-1 $598 0 $453 12.680389734891758 $447 $599 forward 7 unknown #
vertex $-1 $302 $600 #
straight-curve $-1 15.549253403058945 -16.871969619430512 6.7384148599741103 -1 0 0 I I #
coedge $-1 $593 $303 $306 $460 reversed $445 $-1 #
coedge $-1 $303 $593 $451 $597 forward $445 $-1 #
vertex $-1 $304 $601 #
straight-curve $-1 41.327516885648713 -27.741185008137961 54.286302673264466 0 0 1 I I #
straight-curve $-1 41.327516885648713 -27.741185008137961 0.20753125493003211 0 -0.85716729658548041 -0.51503808176128008 I I #
edge $-1 $595 20.869496726587066 $307 41.327516885648713 $455 $602 forward 7 unknown #
point $-1 41.327516885648713 -27.741185008137961 6.7384148599741103 #
point $-1 41.327516885648713 -16.871969619430516 6.7384148599741103 #
edge $-1 $603 1 $603 0 $310 $-1 forward 7 unknown #
vertex $-1 $311 $604 #
ellipse-curve $-1 26.714645343461818 -19.701718812710496 -0.86223942182241387 0 -0.51503808176128008 0.85716729658548041 2.5 0 0 1 I I #
point $-1 29.214645343461818 -22.306577313784249 3.4729730574520783 #
edge $-1 $605 1 $605 0 $314 $-1 forward 7 unknown #
vertex $-1 $315 $606 #
ellipse-curve $-1 35.482368268773961 -19.701718812710496 -0.86223942182241387 0 -0.51503808176128008 0.85716729658548041 2.5 0 0 1 I I #
point $-1 37.982368268773961 -22.306577313784249 3.4729730574520783 #
plane-surface $-1 0 0 6.7384148599741103 0 0 1 1 0 0 forward_v I I I I #
coedge $-1 $482 $481 $474 $607 forward $319 $-1 #
coedge $-1 $474 $321 $323 $478 reversed $201 $-1 #
coedge $-1 $321 $473 $472 $607 reversed $201 $-1 #
coedge $-1 $329 $324 $321 $476 forward $330 $-1 #
edge $-1 $479 -18.757637952700669 $608 -13.439679652773073 $475 $609 forward 7 unknown #
coedge $-1 $323 $322 $482 $610 reversed $127 $-1 #
edge $-1 $611 -55.482370016275908 $479 -47.684758349661067 $473 $612 forward 7 unknown #
vertex $-1 $325 $613 #
straight-curve $-1 -20.073602105035718 22.423226708210368 6.7384148599741103 1 0 0 I I #
coedge $-1 $472 $326 $329 $486 reversed $319 $-1 #
coedge $-1 $326 $472 $477 $610 forward $319 $-1 #
vertex $-1 $327 $614 #
straight-curve $-1 -48.034740165684958 27.741185008137961 63.916325130123326 0 0 1 I I #
straight-curve $-1 -48.034740165684958 -10.097699863619042 41.612839783910147 0 0.68199835119979291 -0.73135370988377701 I I #
edge $-1 $608 32.259668254457914 $331 48.034740165684958 $481 $615 forward 7 unknown #
point $-1 -48.034740165684958 27.741185008137961 6.7384148599741103 #
point $-1 -48.034740165684958 22.423226708210365 6.7384148599741138 #
edge $-1 $616 1 $616 0 $334 $-1 forward 7 unknown #
vertex $-1 $335 $617 #
ellipse-curve $-1 -40.147204210071436 24.217000157013402 3.0801914003256199 0 0.73135370988377701 0.68199835119979291 1 0 0 1 I I #
point $-1 -39.147204210071436 25.082205858174166 3.8870087496682135 #
loop $-1 $-1 $346 $338 #
plane-surface $-1 0 27.741185008137961 0 0 -1 0 0 0 -1 forward_v I I I I #
coedge $-1 $496 $341 $343 $500 reversed $216 $-1 #
coedge $-1 $341 $495 $618 $619 reversed $216 $-1 #
coedge $-1 $349 $344 $341 $498 forward $339 $-1 #
edge $-1 $501 -18.757637952700669 $620 -13.439679652773073 $497 $621 forward 7 unknown #
coedge $-1 $343 $342 $504 $622 reversed $136 $-1 #
edge $-1 $623 -55.482370016275908 $501 -47.684758349661067 $495 $624 forward 7 unknown #
vertex $-1 $345 $625 #
straight-curve $-1 -4.9884501942220538 22.423226708210368 6.7384148599741103 1 0 0 I I #
coedge $-1 $618 $346 $349 $508 reversed $493 $-1 #
coedge $-1 $346 $618 $499 $622 forward $493 $-1 #
vertex $-1 $347 $626 #
straight-curve $-1 -17.86443634405763 27.741185008137961 63.916325130123326 0 0 1 I I #
straight-curve $-1 -17.86443634405763 -10.097699863619042 41.612839783910147 0 0.68199835119979291 -0.73135370988377701 I I #
edge $-1 $620 2.0893644328305854 $350 17.86443634405763 $503 $627 forward 7 unknown #
point $-1 -17.86443634405763 27.741185008137961 6.7384148599741103 #
point $-1 -17.86443634405763 22.423226708210365 6.7384148599741138 #
edge $-1 $628 1 $628 0 $353 $-1 forward 7 unknown #
vertex $-1 $354 $629 #
ellipse-curve $-1 -9.9769003884441076 24.217000157013402 3.0801914003256199 0 0.73135370988377701 0.68199835119979291 1 0 0 1 I I #
point $-1 -8.9769003884441076 25.082205858174166 3.8870087496682135 #
loop $-1 $-1 $365 $357 #
plane-surface $-1 0 27.741185008137961 0 0 -1 0 0 0 -1 forward_v I I I I #
coedge $-1 $518 $360 $362 $522 reversed $231 $-1 #
coedge $-1 $360 $517 $630 $631 reversed $231 $-1 #
coedge $-1 $368 $363 $360 $520 forward $358 $-1 #
edge $-1 $523 -18.757637952700669 $632 -13.439679652773073 $519 $633 forward 7 unknown #
coedge $-1 $362 $361 $526 $634 reversed $145 $-1 #
edge $-1 $635 -55.482370016275908 $523 -47.684758349661067 $517 $636 forward 7 unknown #
vertex $-1 $364 $637 #
straight-curve $-1 10.096701716591607 22.423226708210368 6.7384148599741103 1 0 0 I I #
coedge $-1 $630 $365 $368 $530 reversed $515 $-1 #
coedge $-1 $365 $630 $521 $634 forward $515 $-1 #
vertex $-1 $366 $638 #
straight-curve $-1 12.305867477569691 27.741185008137961 63.916325130123326 0 0 1 I I #
straight-curve $-1 12.305867477569691 -10.097699863619042 41.612839783910147 0 0.68199835119979291 -0.73135370988377701 I I #
edge $-1 $632 -28.080939388796736 $369 -12.305867477569691 $525 $639 forward 7 unknown #
point $-1 12.305867477569691 27.741185008137961 6.7384148599741103 #
point $-1 12.305867477569691 22.423226708210365 6.7384148599741138 #
edge $-1 $640 1 $640 0 $372 $-1 forward 7 unknown #
vertex $-1 $373 $641 #
ellipse-curve $-1 20.193403433183214 24.217000157013402 3.0801914003256199 0 0.73135370988377701 0.68199835119979291 1 0 0 1 I I #
point $-1 21.193403433183214 25.082205858174166 3.8870087496682135 #
loop $-1 $-1 $384 $376 #
plane-surface $-1 0 27.741185008137961 0 0 -1 0 0 0 -1 forward_v I I I I #
coedge $-1 $540 $379 $381 $544 reversed $246 $-1 #
coedge $-1 $379 $539 $642 $643 reversed $246 $-1 #
coedge $-1 $387 $382 $379 $542 forward $377 $-1 #
edge $-1 $545 -18.757637952700669 $644 -13.439679652773073 $541 $645 forward 7 unknown #
coedge $-1 $381 $380 $548 $646 reversed $154 $-1 #
edge $-1 $647 -55.482370016275908 $545 -47.684758349661067 $539 $648 forward 7 unknown #
vertex $-1 $383 $649 #
straight-curve $-1 25.181853627405271 22.423226708210368 6.7384148599741103 1 0 0 I I #
coedge $-1 $642 $384 $387 $552 reversed $537 $-1 #
coedge $-1 $384 $642 $543 $646 forward $537 $-1 #
vertex $-1 $385 $650 #
straight-curve $-1 42.47617129919702 27.741185008137961 63.916325130123326 0 0 1 I I #
straight-curve $-1 42.47617129919702 -10.097699863619042 41.612839783910147 0 0.68199835119979291 -0.73135370988377701 I I #
edge $-1 $644 -58.251243210424065 $388 -42.47617129919702 $547 $651 forward 7 unknown #
point $-1 42.47617129919702 27.741185008137961 6.7384148599741103 #
point $-1 42.47617129919702 22.423226708210365 6.7384148599741138 #
edge $-1 $652 1 $652 0 $391 $-1 forward 7 unknown #
vertex $-1 $392 $653 #
ellipse-curve $-1 50.363707254810542 24.217000157013402 3.0801914003256199 0 0.73135370988377701 0.68199835119979291 1 0 0 1 I I #
point $-1 51.363707254810542 25.082205858174166 3.8870087496682135 #
plane-surface $-1 63.211157567064426 0 0 -1 0 0 0 0 1 forward_v I I I I #
coedge $-1 $400 $398 $402 $564 reversed $261 $-1 #
edge $-1 $413 -6.7384148599741103 $566 6.7384148599741103 $412 $654 forward 7 unknown #
vertex $-1 $564 $655 #
straight-curve $-1 -63.211157567064426 -27.741185008137961 0 0 0 -1 I I #
edge $-1 $562 -27.741185008137961 $566 27.741185008137961 $560 $656 forward 7 unknown #
straight-curve $-1 0 -27.741185008137961 -6.7384148599741103 -1 0 0 I I #
vertex $-1 $405 $657 #
straight-curve $-1 0 27.741185008137961 -6.7384148599741103 1 0 0 I I #
point $-1 63.211157567064426 27.741185008137961 -6.7384148599741103 #
point $-1 63.211157567064426 -27.741185008137961 -6.7384148599741103 #
straight-curve $-1 -63.211157567064426 0 6.7384148599741103 0 -1 0 I I #
point $-1 -63.211157567064426 27.741185008137961 6.7384148599741103 #
point $-1 -63.211157567064426 -27.741185008137961 6.7384148599741103 #
straight-curve $-1 63.211157567064426 -27.741185008137961 0 0 0 -1 I I #
straight-curve $-1 63.211157567064426 27.741185008137961 0 0 0 -1 I I #
plane-surface $-1 0 0 6.7384148599741103 0 0 1 1 0 0 forward_v I I I I #
coedge $-1 $427 $424 $429 $583 reversed $280 $-1 #
coedge $-1 $424 $427 $589 $658 reversed $280 $-1 #
edge $-1 $591 -6.7384148599741103 $585 6.7384148599741103 $441 $659 forward 7 unknown #
edge $-1 $580 -2.8705499238097758 $439 2.8705499238097758 $426 $660 forward 7 unknown #
vertex $-1 $658 $661 #
vertex $-1 $583 $662 #
straight-curve $-1 -68.95225741468397 -24.312322984860739 0 0 0 -1 I I #
edge $-1 $581 -1.5 $585 1.5 $576 $663 forward 7 unknown #
straight-curve $-1 -66.081707490874194 -24.312322984860739 -6.7384148599741103 -1 0 0 I I #
vertex $-1 $431 $664 #
straight-curve $-1 -66.081707490874194 -21.312322984860739 -6.7384148599741103 1 0 0 I I #
point $-1 -63.211157567064419 -24.312322984860739 -6.7384148599741103 #
straight-curve $-1 -63.211157567064426 -24.312322984860739 0 0 0 -1 I I #
coedge $-1 $437 $436 $577 $658 forward $438 $-1 #
point $-1 -63.211157567064419 -24.312322984860739 6.7384148599741103 #
vertex $-1 $442 $665 #
straight-curve $-1 -66.081707490874194 -21.312322984860739 6.7384148599741103 -1 0 0 I I #
coedge $-1 $456 $455 $448 $594 forward $445 $-1 #
edge $-1 $595 47.547887813290359 $598 54.078771418334433 $593 $666 forward 7 unknown #
vertex $-1 $460 $667 #
straight-curve $-1 20.869496726587066 -46.426745843319864 6.7384148599741067 0 -1 0 I I #
edge $-1 $598 5.3202433235281212 $457 25.778263482589768 $456 $668 forward 7 unknown #
vertex $-1 $597 $669 #
straight-curve $-1 20.869496726587066 -27.741185008137961 0.20753125493003211 0 0.85716729658548041 0.51503808176128008 I I #
point $-1 20.869496726587066 -16.871969619430516 6.7384148599741103 #
point $-1 41.327516885648713 -27.741185008137961 0.20753125493003211 #
straight-curve $-1 0 -27.741185008137961 6.7384148599741103 1 0 0 I I #
vertex $-1 $463 $670 #
point $-1 29.214645343461818 -19.701718812710496 -0.86223942182241387 #
vertex $-1 $467 $671 #
point $-1 37.982368268773961 -19.701718812710496 -0.86223942182241387 #
edge $-1 $608 57.177910270149212 $611 62.880722490761002 $472 $672 forward 7 unknown #
vertex $-1 $486 $673 #
straight-curve $-1 -32.259668254457914 41.180864660911034 6.7384148599741138 0 1 0 I I #
edge $-1 $611 12.186066149422196 $483 27.96113806064924 $482 $674 forward 7 unknown #
vertex $-1 $610 $675 #
straight-curve $-1 -32.259668254457914 -10.097699863619042 41.612839783910147 0 -0.68199835119979291 0.73135370988377701 I I #
point $-1 -32.259668254457914 22.423226708210365 6.7384148599741138 #
point $-1 -48.034740165684958 27.741185008137961 1.0356026393623239 #
straight-curve $-1 0 27.741185008137961 6.7384148599741103 -1 0 0 I I #
vertex $-1 $489 $676 #
point $-1 -39.147204210071436 24.217000157013402 3.0801914003256199 #
coedge $-1 $504 $503 $496 $619 forward $493 $-1 #
edge $-1 $620 57.177910270149212 $623 62.880722490761002 $618 $677 forward 7 unknown #
vertex $-1 $508 $678 #
straight-curve $-1 -2.0893644328305854 41.180864660911034 6.7384148599741138 0 1 0 I I #
edge $-1 $623 -2.8990857613914685 $505 12.875986149835576 $504 $679 forward 7 unknown #
vertex $-1 $622 $680 #
straight-curve $-1 -2.0893644328305854 -10.097699863619042 41.612839783910147 0 -0.68199835119979291 0.73135370988377701 I I #
point $-1 -2.0893644328305854 22.423226708210365 6.7384148599741138 #
point $-1 -17.86443634405763 27.741185008137961 1.0356026393623239 #
straight-curve $-1 0 27.741185008137961 6.7384148599741103 -1 0 0 I I #
vertex $-1 $511 $681 #
point $-1 -8.9769003884441076 24.217000157013402 3.0801914003256199 #
coedge $-1 $526 $525 $518 $631 forward $515 $-1 #
edge $-1 $632 57.177910270149212 $635 62.880722490761002 $630 $682 forward 7 unknown #
vertex $-1 $530 $683 #
straight-curve $-1 28.080939388796736 41.180864660911034 6.7384148599741138 0 1 0 I I #
edge $-1 $635 -17.984237672205129 $527 -2.2091657609780846 $526 $684 forward 7 unknown #
vertex $-1 $634 $685 #
straight-curve $-1 28.080939388796736 -10.097699863619042 41.612839783910147 0 -0.68199835119979291 0.73135370988377701 I I #
point $-1 28.080939388796736 22.423226708210365 6.7384148599741138 #
point $-1 12.305867477569691 27.741185008137961 1.0356026393623239 #
straight-curve $-1 0 27.741185008137961 6.7384148599741103 -1 0 0 I I #
vertex $-1 $533 $686 #
point $-1 21.193403433183214 24.217000157013402 3.0801914003256199 #
coedge $-1 $548 $547 $540 $643 forward $537 $-1 #
edge $-1 $644 57.177910270149212 $647 62.880722490761002 $642 $687 forward 7 unknown #
vertex $-1 $552 $688 #
straight-curve $-1 58.251243210424065 41.180864660911034 6.7384148599741138 0 1 0 I I #
edge $-1 $647 -33.06938958301879 $549 -17.294317671791749 $548 $689 forward 7 unknown #
vertex $-1 $646 $690 #
straight-curve $-1 58.251243210424065 -10.097699863619042 41.612839783910147 0 -0.68199835119979291 0.73135370988377701 I I #
point $-1 58.251243210424065 22.423226708210365 6.7384148599741138 #
point $-1 42.47617129919702 27.741185008137961 1.0356026393623239 #
straight-curve $-1 0 27.741185008137961 6.7384148599741103 -1 0 0 I I #
vertex $-1 $555 $691 #
point $-1 51.363707254810542 24.217000157013402 3.0801914003256199 #
straight-curve $-1 -63.211157567064426 27.741185008137961 0 0 0 -1 I I #
point $-1 -63.211157567064426 -27.741185008137961 -6.7384148599741103 #
straight-curve $-1 -63.211157567064426 0 -6.7384148599741103 0 1 0 I I #
point $-1 -63.211157567064426 27.741185008137961 -6.7384148599741103 #
edge $-1 $591 -1.5 $580 1.5 $577 $692 forward 7 unknown #
straight-curve $-1 -68.95225741468397 -21.312322984860739 0 0 0 -1 I I #
straight-curve $-1 -66.081707490874194 -24.312322984860739 6.7384148599741103 1 0 0 I I #
point $-1 -68.95225741468397 -24.312322984860739 6.7384148599741103 #
point $-1 -68.95225741468397 -24.312322984860739 -6.7384148599741103 #
straight-curve $-1 -68.95225741468397 -22.812322984860739 -6.7384148599741103 0 1 0 I I #
point $-1 -68.95225741468397 -21.312322984860739 -6.7384148599741103 #
point $-1 -68.95225741468397 -21.312322984860739 6.7384148599741103 #
straight-curve $-1 20.869496726587066 -27.741185008137961 54.286302673264466 0 0 -1 I I #
point $-1 20.869496726587066 -27.741185008137961 6.7384148599741103 #
straight-curve $-1 15.549253403058945 -27.741185008137961 0.20753125493003158 1 0 0 I I #
point $-1 20.869496726587066 -27.741185008137961 0.20753125493003211 #
point $-1 26.714645343461818 -18.414123608307293 -3.0051576632861146 #
point $-1 35.482368268773961 -18.414123608307293 -3.0051576632861146 #
straight-curve $-1 -32.259668254457914 27.741185008137961 63.916325130123326 0 0 -1 I I #
point $-1 -32.259668254457914 27.741185008137961 6.7384148599741103 #
straight-curve $-1 -20.073602105035718 27.741185008137961 1.0356026393623239 -1 0 0 I I #
point $-1 -32.259668254457914 27.741185008137961 1.0356026393623239 #
point $-1 -40.147204210071436 23.485646447129625 2.398193049125827 #
straight-curve $-1 -2.0893644328305854 27.741185008137961 63.916325130123326 0 0 -1 I I #
point $-1 -2.0893644328305854 27.741185008137961 6.7384148599741103 #
straight-curve $-1 -4.9884501942220538 27.741185008137961 1.0356026393623239 -1 0 0 I I #
point $-1 -2.0893644328305854 27.741185008137961 1.0356026393623239 #
point $-1 -9.9769003884441076 23.485646447129625 2.398193049125827 #
straight-curve $-1 28.080939388796736 27.741185008137961 63.916325130123326 0 0 -1 I I #
point $-1 28.080939388796736 27.741185008137961 6.7384148599741103 #
straight-curve $-1 10.096701716591607 27.741185008137961 1.0356026393623239 -1 0 0 I I #
point $-1 28.080939388796736 27.741185008137961 1.0356026393623239 #
point $-1 20.193403433183214 23.485646447129625 2.398193049125827 #
straight-curve $-1 58.251243210424065 27.741185008137961 63.916325130123326 0 0 -1 I I #
point $-1 58.251243210424065 27.741185008137961 6.7384148599741103 #
straight-curve $-1 25.181853627405271 27.741185008137961 1.0356026393623239 -1 0 0 I I #
point $-1 58.251243210424065 27.741185008137961 1.0356026393623239 #
point $-1 50.363707254810542 23.485646447129625 2.398193049125827 #
straight-curve $-1 -68.95225741468397 -22.812322984860739 6.7384148599741103 0 -1 0 I I #
End-of-ACIS-data 