500 0 5 0           
7 Unknown 11 ACIS 5.0 NT 24 Fri Mar 26 03:36:52 1999 
-1 9.9999999999999995e-007 1e-010 
body $-1 $5 $-1 $6 #
body $-1 $7 $-1 $8 #
body $-1 $9 $-1 $10 #
body $-1 $11 $-1 $12 #
body $-1 $13 $-1 $14 #
lump $-1 $-1 $15 $0 #
transform $-1 1 0 0 0 1 0 0 0 1 59.487899410992767 34.840552385524461 10.027490993443573 1 rotate no_reflect no_shear #
lump $-1 $-1 $16 $1 #
transform $-1 1 0 0 0 1 0 0 0 1 59.487899410992767 34.840552385524461 10.027490993443573 1 rotate no_reflect no_shear #
lump $-1 $-1 $17 $2 #
transform $-1 1 0 0 0 1 0 0 0 1 59.487899410992767 34.840552385524461 10.027490993443573 1 rotate no_reflect no_shear #
lump $-1 $-1 $18 $3 #
transform $-1 1 0 0 0 1 0 0 0 1 59.487899410992767 34.840552385524461 10.027490993443573 1 rotate no_reflect no_shear #
lump $-1 $-1 $19 $4 #
transform $-1 1 0 0 0 1 0 0 0 1 59.487899410992767 34.840552385524461 10.027490993443573 1 rotate no_reflect no_shear #
shell $-1 $-1 $-1 $20 $-1 $5 #
shell $-1 $-1 $-1 $21 $-1 $7 #
shell $-1 $-1 $-1 $22 $-1 $9 #
shell $-1 $-1 $-1 $23 $-1 $11 #
shell $-1 $-1 $-1 $24 $-1 $13 #
face $-1 $25 $26 $15 $-1 $27 forward single #
face $-1 $28 $29 $16 $-1 $30 reversed single #
face $-1 $31 $32 $17 $-1 $33 reversed single #
face $-1 $34 $35 $18 $-1 $36 forward single #
face $-1 $37 $38 $19 $-1 $39 forward single #
face $-1 $40 $41 $15 $-1 $42 reversed single #
loop $-1 $-1 $43 $20 #
plane-surface $-1 0 0 10.027490993443573 0 0 1 1 0 0 forward_v I I I I #
face $-1 $44 $45 $16 $-1 $46 reversed single #
loop $-1 $-1 $47 $21 #
plane-surface $-1 -55.302352999490139 0 4.5964816651363405 0 0 1 1 0 0 forward_v I I I I #
face $-1 $48 $49 $17 $-1 $50 reversed single #
loop $-1 $-1 $51 $22 #
plane-surface $-1 -42.494264424346547 -30.509274266000737 63.897443951005869 0.51503808176128008 0 0.85716729658548041 0.85716729658548041 0 -0.51503808176128008 forward_v I I I I #
face $-1 $52 $53 $18 $-1 $54 forward single #
loop $-1 $55 $56 $23 #
cone-surface $-1 52.624929366217451 -32.365536317225192 5.1602430056176285 -0.51503808176128008 0 -0.85716729658548041 0.85716729658548041 0 -0.51503808176128008 1 I I 0 1 1 forward I I I I #
face $-1 $57 $58 $19 $-1 $59 forward single #
loop $-1 $60 $61 $24 #
cone-surface $-1 52.624929366217451 -28.653012214776282 5.1602430056176285 -0.51503808176128008 0 -0.85716729658548041 0.85716729658548041 0 -0.51503808176128008 1 I I 0 1 1 forward I I I I #
face $-1 $62 $63 $15 $-1 $64 reversed single #
loop $-1 $-1 $65 $25 #
plane-surface $-1 0 0 -10.027490993443573 0 0 1 1 0 0 forward_v I I I I #
coedge $-1 $66 $67 $68 $69 forward $26 $-1 #
face $-1 $70 $71 $16 $-1 $72 reversed single #
loop $-1 $-1 $73 $28 #
plane-surface $-1 -51.116806587987512 0 7.3119863292899563 -1 0 0 0 0 1 forward_v I I I I #
coedge $-1 $74 $75 $76 $77 forward $29 $-1 #
face $-1 $78 $79 $17 $-1 $80 forward single #
loop $-1 $-1 $81 $31 #
plane-surface $-1 18.782802776944848 -26.177996146477014 165.87960778634519 0 -1 0 -0.51503808176128008 0 -0.85716729658548041 forward_v I I I I #
coedge $-1 $82 $83 $84 $85 reversed $32 $-1 #
face $-1 $-1 $86 $18 $-1 $87 forward single #
loop $-1 $88 $89 $34 #
cone-surface $-1 51.668194298599246 -32.365536317225192 3.5679684913634997 -0.51503808176128008 0 -0.85716729658548041 0.4285836482927402 0 -0.25751904088064004 1 I I -0.70710678118654746 0.70710678118654746 0.5 forward I I I I #
loop $-1 $-1 $90 $23 #
coedge $-1 $56 $56 $91 $92 reversed $35 $-1 #
face $-1 $-1 $93 $19 $-1 $94 forward single #
loop $-1 $95 $96 $37 #
cone-surface $-1 51.668194298599246 -28.653012214776282 3.5679684913634997 -0.51503808176128008 0 -0.85716729658548041 0.4285836482927402 0 -0.25751904088064004 1 I I -0.70710678118654746 0.70710678118654746 0.5 forward I I I I #
loop $-1 $-1 $97 $24 #
coedge $-1 $61 $61 $98 $99 reversed $38 $-1 #
face $-1 $100 $101 $15 $-1 $102 reversed single #
loop $-1 $-1 $103 $40 #
plane-surface $-1 0 -34.840552385524461 0 0 1 0 0 0 1 forward_v I I I I #
coedge $-1 $104 $105 $106 $107 forward $41 $-1 #
coedge $-1 $108 $43 $109 $110 forward $26 $-1 #
coedge $-1 $43 $108 $111 $112 forward $26 $-1 #
coedge $-1 $113 $114 $43 $69 reversed $115 $-1 #
edge $-1 $116 -34.840552385524461 $117 34.840552385524461 $68 $118 forward 7 unknown #
face $-1 $119 $120 $16 $-1 $121 reversed single #
loop $-1 $-1 $122 $44 #
plane-surface $-1 0 34.840552385524461 0 0 -1 0 0 0 -1 forward_v I I I I #
coedge $-1 $76 $123 $124 $125 reversed $45 $-1 #
coedge $-1 $126 $47 $127 $128 reversed $29 $-1 #
coedge $-1 $47 $126 $129 $130 reversed $29 $-1 #
coedge $-1 $131 $73 $47 $77 reversed $45 $-1 #
edge $-1 $132 -34.840552385524461 $133 34.840552385524461 $76 $134 forward 7 unknown #
face $-1 $135 $136 $17 $-1 $137 reversed single #
loop $-1 $-1 $138 $48 #
plane-surface $-1 0 0 10.027490993443573 0 0 1 1 0 0 forward_v I I I I #
coedge $-1 $139 $140 $141 $142 reversed $49 $-1 #
coedge $-1 $143 $51 $144 $145 reversed $32 $-1 #
coedge $-1 $51 $143 $139 $146 forward $32 $-1 #
coedge $-1 $141 $147 $51 $85 forward $148 $-1 #
edge $-1 $149 -19.585915252524092 $150 -10.923359013476645 $84 $151 forward 7 unknown #
loop $-1 $-1 $91 $52 #
plane-surface $-1 -42.494264424346547 -30.509274266000737 63.897443951005869 0.51503808176128008 0 0.85716729658548041 0.85716729658548041 0 -0.51503808176128008 forward_v I I I I #
loop $-1 $-1 $152 $34 #
coedge $-1 $89 $89 $90 $153 reversed $53 $-1 #
coedge $-1 $90 $90 $89 $153 forward $55 $-1 #
coedge $-1 $91 $91 $56 $92 forward $86 $-1 #
edge $-1 $154 0 $154 6.2831853071796004 $91 $155 forward 7 unknown #
loop $-1 $-1 $98 $57 #
plane-surface $-1 -42.494264424346547 -30.509274266000737 63.897443951005869 0.51503808176128008 0 0.85716729658548041 0.85716729658548041 0 -0.51503808176128008 forward_v I I I I #
loop $-1 $-1 $156 $37 #
coedge $-1 $96 $96 $97 $157 reversed $58 $-1 #
coedge $-1 $97 $97 $96 $157 forward $60 $-1 #
coedge $-1 $98 $98 $61 $99 forward $93 $-1 #
edge $-1 $158 0 $158 6.2831853071796004 $98 $159 forward 7 unknown #
face $-1 $160 $161 $15 $-1 $162 reversed single #
loop $-1 $-1 $163 $62 #
plane-surface $-1 -59.487899410992767 0 0 1 0 0 0 0 -1 forward_v I I I I #
coedge $-1 $164 $111 $165 $166 forward $63 $-1 #
coedge $-1 $167 $65 $164 $168 forward $41 $-1 #
coedge $-1 $65 $167 $169 $170 forward $41 $-1 #
coedge $-1 $114 $113 $65 $107 reversed $115 $-1 #
edge $-1 $171 -34.840552385524461 $172 34.840552385524461 $106 $173 forward 7 unknown #
coedge $-1 $67 $66 $174 $175 forward $26 $-1 #
coedge $-1 $176 $177 $66 $110 reversed $161 $-1 #
edge $-1 $117 -59.487899410992767 $178 59.487899410992767 $109 $179 forward 7 unknown #
coedge $-1 $103 $180 $67 $112 reversed $63 $-1 #
edge $-1 $181 -59.487899410992767 $116 59.487899410992767 $111 $182 forward 7 unknown #
coedge $-1 $106 $68 $180 $183 forward $115 $-1 #
coedge $-1 $68 $106 $176 $184 reversed $115 $-1 #
loop $-1 $-1 $113 $160 #
vertex $-1 $69 $185 #
vertex $-1 $69 $186 #
straight-curve $-1 59.487899410992767 0 10.027490993443573 0 1 0 I I #
face $-1 $187 $188 $16 $-1 $189 forward single #
loop $-1 $-1 $190 $70 #
plane-surface $-1 -59.487899410992767 0 0 1 0 0 0 0 -1 forward_v I I I I #
coedge $-1 $129 $191 $131 $192 forward $71 $-1 #
coedge $-1 $73 $131 $193 $194 reversed $45 $-1 #
coedge $-1 $195 $127 $73 $125 forward $196 $-1 #
edge $-1 $133 0.94048850049136234 $197 6.3714978287985931 $124 $198 forward 7 unknown #
coedge $-1 $75 $74 $190 $199 reversed $29 $-1 #
coedge $-1 $124 $200 $74 $128 forward $196 $-1 #
edge $-1 $201 -31.836722911247698 $133 -23.465630088242442 $127 $202 forward 7 unknown #
coedge $-1 $203 $122 $75 $130 forward $71 $-1 #
edge $-1 $132 23.465630088242442 $204 31.836722911247698 $129 $205 forward 7 unknown #
coedge $-1 $123 $76 $122 $192 reversed $45 $-1 #
vertex $-1 $130 $206 #
vertex $-1 $128 $207 #
straight-curve $-1 -51.116806587987512 0 4.5964816651363405 0 -1 0 I I #
face $-1 $-1 $148 $17 $-1 $208 reversed single #
loop $-1 $-1 $144 $78 #
plane-surface $-1 0 -34.840552385524461 0 0 1 0 0 0 1 forward_v I I I I #
coedge $-1 $209 $210 $140 $211 forward $79 $-1 #
coedge $-1 $140 $81 $83 $146 reversed $49 $-1 #
coedge $-1 $81 $139 $138 $211 reversed $49 $-1 #
coedge $-1 $212 $84 $81 $142 forward $148 $-1 #
edge $-1 $150 -80.319427143458114 $213 -72.912312899729017 $141 $214 forward 7 unknown #
coedge $-1 $83 $82 $209 $215 reversed $32 $-1 #
coedge $-1 $216 $217 $82 $145 forward $136 $-1 #
edge $-1 $218 69.926960814099715 $149 84.308643462495183 $144 $219 forward 7 unknown #
edge $-1 $220 104.59411617359005 $150 118.97579882198553 $139 $221 forward 7 unknown #
coedge $-1 $84 $212 $216 $222 forward $148 $-1 #
loop $-1 $-1 $141 $135 #
vertex $-1 $145 $223 #
vertex $-1 $85 $224 #
straight-curve $-1 59.487899410992767 -15.254637133000369 2.620376749714481 0 1 0 I I #
coedge $-1 $152 $152 $-1 $225 reversed $88 $-1 #
edge $-1 $226 0 $226 6.2831853071796004 $89 $227 forward 7 unknown #
vertex $-1 $92 $228 #
ellipse-curve $-1 53.324145392955025 -32.365536317225192 6.3239338715790323 0.51503808176128008 0 0.85716729658548041 0.85716729658548041 0 -0.51503808176128008 1 I I #
coedge $-1 $156 $156 $-1 $229 reversed $95 $-1 #
edge $-1 $230 0 $230 6.2831853071796004 $96 $231 forward 7 unknown #
vertex $-1 $99 $232 #
ellipse-curve $-1 53.324145392955025 -28.653012214776282 6.3239338715790323 0.51503808176128008 0 0.85716729658548041 0.85716729658548041 0 -0.51503808176128008 1 I I #
face $-1 $-1 $115 $15 $-1 $233 reversed single #
loop $-1 $-1 $176 $100 #
plane-surface $-1 0 34.840552385524461 0 0 -1 0 0 0 -1 forward_v I I I I #
coedge $-1 $234 $174 $177 $235 forward $101 $-1 #
coedge $-1 $180 $103 $104 $168 reversed $63 $-1 #
coedge $-1 $174 $234 $103 $166 reversed $101 $-1 #
edge $-1 $181 -10.027490993443573 $236 10.027490993443573 $165 $237 forward 7 unknown #
coedge $-1 $105 $104 $234 $238 forward $41 $-1 #
edge $-1 $172 -59.487899410992767 $236 59.487899410992767 $164 $239 forward 7 unknown #
coedge $-1 $177 $176 $105 $170 reversed $161 $-1 #
edge $-1 $240 -59.487899410992767 $171 59.487899410992767 $169 $241 forward 7 unknown #
vertex $-1 $107 $242 #
vertex $-1 $183 $243 #
straight-curve $-1 59.487899410992767 0 -10.027490993443573 0 -1 0 I I #
coedge $-1 $163 $165 $108 $175 reversed $101 $-1 #
edge $-1 $178 -34.840552385524461 $181 34.840552385524461 $174 $244 forward 7 unknown #
coedge $-1 $169 $109 $114 $184 forward $161 $-1 #
coedge $-1 $109 $169 $163 $235 reversed $161 $-1 #
vertex $-1 $110 $245 #
straight-curve $-1 0 34.840552385524461 10.027490993443573 -1 0 0 I I #
coedge $-1 $111 $164 $113 $183 reversed $63 $-1 #
vertex $-1 $175 $246 #
straight-curve $-1 0 -34.840552385524461 10.027490993443573 1 0 0 I I #
edge $-1 $116 -10.027490993443573 $172 10.027490993443573 $113 $247 forward 7 unknown #
edge $-1 $117 -10.027490993443573 $171 10.027490993443573 $114 $248 forward 7 unknown #
point $-1 59.487899410992767 -34.840552385524461 10.027490993443573 #
point $-1 59.487899410992767 34.840552385524461 10.027490993443573 #
face $-1 $-1 $196 $16 $-1 $249 reversed single #
loop $-1 $-1 $193 $119 #
plane-surface $-1 0 0 10.027490993443573 0 0 1 1 0 0 forward_v I I I I #
coedge $-1 $250 $251 $126 $199 forward $120 $-1 #
coedge $-1 $122 $203 $252 $253 reversed $71 $-1 #
edge $-1 $254 -6.3714978287985931 $132 -0.94048850049136234 $122 $255 forward 7 unknown #
coedge $-1 $252 $256 $123 $194 forward $188 $-1 #
edge $-1 $197 -34.840552385524461 $254 34.840552385524461 $193 $257 forward 7 unknown #
coedge $-1 $200 $124 $256 $258 reversed $196 $-1 #
loop $-1 $-1 $124 $187 #
vertex $-1 $125 $259 #
straight-curve $-1 -51.116806587987512 -34.840552385524461 3.6559931646449781 0 0 1 I I #
edge $-1 $204 -34.840552385524461 $201 34.840552385524461 $190 $260 forward 7 unknown #
coedge $-1 $127 $195 $250 $261 forward $196 $-1 #
vertex $-1 $199 $262 #
straight-curve $-1 -27.65117649974507 -34.840552385524461 4.5964816651363405 1 0 0 I I #
coedge $-1 $191 $129 $251 $263 reversed $71 $-1 #
vertex $-1 $199 $264 #
straight-curve $-1 -27.65117649974507 34.840552385524461 4.5964816651363405 -1 0 0 I I #
point $-1 -51.116806587987512 34.840552385524461 4.5964816651363405 #
point $-1 -51.116806587987512 -34.840552385524461 4.5964816651363405 #
plane-surface $-1 59.487899410992767 0 0 -1 0 0 0 0 1 forward_v I I I I #
coedge $-1 $265 $138 $143 $215 forward $79 $-1 #
coedge $-1 $138 $265 $212 $266 forward $79 $-1 #
edge $-1 $213 -50.096498022520343 $220 -37.768989986444893 $138 $267 forward 7 unknown #
coedge $-1 $147 $141 $210 $266 reversed $148 $-1 #
vertex $-1 $211 $268 #
straight-curve $-1 59.487899410992767 -26.177996146477014 82.939803893172595 0 0 1 I I #
edge $-1 $220 10.923359013476645 $218 19.585915252524092 $209 $269 forward 7 unknown #
coedge $-1 $217 $144 $147 $222 reversed $136 $-1 #
coedge $-1 $144 $216 $265 $270 reversed $136 $-1 #
vertex $-1 $270 $271 #
straight-curve $-1 -12.778712584543372 -34.840552385524461 46.042538754533687 0.85716729658548041 0 -0.51503808176128008 I I #
vertex $-1 $215 $272 #
straight-curve $-1 -42.494264424346547 -26.177996146477014 63.897443951005869 0.85716729658548041 0 -0.51503808176128008 I I #
edge $-1 $273 -10.027490993443573 $149 -2.6203767497144748 $147 $274 forward 7 unknown #
point $-1 59.487899410992767 -34.840552385524461 2.6203767497144748 #
point $-1 59.487899410992775 -26.177996146477014 2.6203767497144739 #
edge $-1 $275 1 $275 0 $152 $-1 forward 7 unknown #
vertex $-1 $153 $276 #
ellipse-curve $-1 51.925713339479884 -32.365536317225192 3.9965521396562398 0.51503808176128008 0 0.85716729658548041 0.85716729658548041 0 -0.51503808176128008 1 I I #
point $-1 54.181312689540491 -32.365536317225192 5.8088957898177362 #
edge $-1 $277 1 $277 0 $156 $-1 forward 7 unknown #
vertex $-1 $157 $278 #
ellipse-curve $-1 51.925713339479884 -28.653012214776282 3.9965521396562398 0.51503808176128008 0 0.85716729658548041 0.85716729658548041 0 -0.51503808176128008 1 I I #
point $-1 54.181312689540491 -28.653012214776282 5.8088957898177362 #
plane-surface $-1 59.487899410992767 0 0 -1 0 0 0 0 1 forward_v I I I I #
coedge $-1 $165 $163 $167 $238 reversed $101 $-1 #
edge $-1 $178 -10.027490993443573 $240 10.027490993443573 $177 $279 forward 7 unknown #
vertex $-1 $238 $280 #
straight-curve $-1 -59.487899410992767 -34.840552385524461 0 0 0 -1 I I #
edge $-1 $236 -34.840552385524461 $240 34.840552385524461 $234 $281 forward 7 unknown #
straight-curve $-1 0 -34.840552385524461 -10.027490993443573 -1 0 0 I I #
vertex $-1 $170 $282 #
straight-curve $-1 0 34.840552385524461 -10.027490993443573 1 0 0 I I #
point $-1 59.487899410992767 34.840552385524461 -10.027490993443573 #
point $-1 59.487899410992767 -34.840552385524461 -10.027490993443573 #
straight-curve $-1 -59.487899410992767 0 10.027490993443573 0 -1 0 I I #
point $-1 -59.487899410992767 34.840552385524461 10.027490993443573 #
point $-1 -59.487899410992767 -34.840552385524461 10.027490993443573 #
straight-curve $-1 59.487899410992767 -34.840552385524461 0 0 0 -1 I I #
straight-curve $-1 59.487899410992767 34.840552385524461 0 0 0 -1 I I #
plane-surface $-1 0 -34.840552385524461 0 0 1 0 0 0 1 forward_v I I I I #
coedge $-1 $283 $190 $200 $261 reversed $120 $-1 #
coedge $-1 $190 $283 $203 $263 forward $120 $-1 #
coedge $-1 $284 $193 $191 $253 forward $188 $-1 #
edge $-1 $254 51.116806587987512 $285 59.487899410992767 $191 $286 forward 7 unknown #
vertex $-1 $253 $287 #
straight-curve $-1 -51.116806587987512 34.840552385524461 3.6559931646449781 0 0 -1 I I #
coedge $-1 $193 $284 $195 $258 forward $188 $-1 #
straight-curve $-1 -51.116806587987512 0 10.027490993443573 0 1 0 I I #
edge $-1 $288 -59.487899410992767 $197 -51.116806587987512 $195 $289 forward 7 unknown #
point $-1 -51.116806587987512 -34.840552385524461 10.027490993443571 #
straight-curve $-1 -59.487899410992767 0 4.5964816651363405 0 -1 0 I I #
edge $-1 $288 -10.027490993443573 $201 -4.5964816651363405 $250 $290 forward 7 unknown #
point $-1 -59.487899410992767 -34.840552385524461 4.5964816651363405 #
edge $-1 $285 -10.027490993443573 $204 -4.5964816651363405 $203 $291 forward 7 unknown #
point $-1 -59.487899410992767 34.840552385524461 4.5964816651363405 #
coedge $-1 $210 $209 $217 $270 forward $79 $-1 #
edge $-1 $273 -34.840552385524461 $213 -26.177996146477014 $212 $292 forward 7 unknown #
straight-curve $-1 9.3914013884724241 -26.177996146477014 10.027490993443578 -1 0 0 I I #
point $-1 59.487899410992767 -26.177996146477014 10.027490993443573 #
straight-curve $-1 47.16039137491731 -15.254637133000369 10.027490993443571 0 -1 0 I I #
edge $-1 $218 47.160391374917317 $273 59.487899410992767 $217 $293 forward 7 unknown #
point $-1 47.160391374917317 -34.840552385524461 10.027490993443571 #
point $-1 47.160391374917317 -26.177996146477014 10.027490993443571 #
vertex $-1 $266 $294 #
straight-curve $-1 59.487899410992767 -34.840552385524461 0 0 0 -1 I I #
vertex $-1 $225 $295 #
point $-1 52.782880636065364 -32.365536317225192 3.4815140578949597 #
vertex $-1 $229 $296 #
point $-1 52.782880636065364 -28.653012214776282 3.4815140578949597 #
straight-curve $-1 -59.487899410992767 34.840552385524461 0 0 0 -1 I I #
point $-1 -59.487899410992767 -34.840552385524461 -10.027490993443573 #
straight-curve $-1 -59.487899410992767 0 -10.027490993443573 0 1 0 I I #
point $-1 -59.487899410992767 34.840552385524461 -10.027490993443573 #
coedge $-1 $251 $250 $284 $297 reversed $120 $-1 #
coedge $-1 $256 $252 $283 $297 forward $188 $-1 #
vertex $-1 $253 $298 #
straight-curve $-1 0 34.840552385524461 10.027490993443573 -1 0 0 I I #
point $-1 -51.116806587987512 34.840552385524461 10.027490993443571 #
vertex $-1 $297 $299 #
straight-curve $-1 0 -34.840552385524461 10.027490993443573 1 0 0 I I #
straight-curve $-1 -59.487899410992767 -34.840552385524461 0 0 0 -1 I I #
straight-curve $-1 -59.487899410992767 34.840552385524461 0 0 0 -1 I I #
straight-curve $-1 59.487899410992767 0 10.027490993443573 0 1 0 I I #
straight-curve $-1 0 -34.840552385524461 10.027490993443573 1 0 0 I I #
point $-1 59.487899410992767 -34.840552385524461 10.027490993443573 #
point $-1 51.410675257718609 -32.365536317225192 3.1393848430707596 #
point $-1 51.410675257718609 -28.653012214776282 3.1393848430707596 #
edge $-1 $285 -34.840552385524461 $288 34.840552385524461 $283 $300 forward 7 unknown #
point $-1 -59.487899410992767 34.840552385524461 10.027490993443573 #
point $-1 -59.487899410992767 -34.840552385524461 10.027490993443573 #
straight-curve $-1 -59.487899410992767 0 10.027490993443573 0 -1 0 I I #
End-of-ACIS-data 