500 0 5 0           
7 Unknown 11 ACIS 5.0 NT 24 Fri Mar 26 00:06:10 1999 
-1 9.9999999999999995e-007 1e-010 
body $-1 $5 $-1 $6 #
body $-1 $7 $-1 $8 #
body $-1 $9 $-1 $10 #
body $-1 $11 $-1 $12 #
body $-1 $13 $-1 $14 #
lump $-1 $-1 $15 $0 #
transform $-1 1 0 0 0 1 0 0 0 1 55.101779229102448 36.700606731942081 11.468393580422417 1 rotate no_reflect no_shear #
lump $-1 $-1 $16 $1 #
transform $-1 1 0 0 0 1 0 0 0 1 55.101779229102448 36.700606731942081 11.468393580422417 1 rotate no_reflect no_shear #
lump $-1 $-1 $17 $2 #
transform $-1 1 0 0 0 1 0 0 0 1 55.101779229102448 36.700606731942081 11.468393580422417 1 rotate no_reflect no_shear #
lump $-1 $-1 $18 $3 #
transform $-1 1 0 0 0 1 0 0 0 1 55.101779229102448 36.700606731942081 11.468393580422417 1 rotate no_reflect no_shear #
lump $-1 $-1 $19 $4 #
transform $-1 1 0 0 0 1 0 0 0 1 55.101779229102448 36.700606731942081 11.468393580422417 1 rotate no_reflect no_shear #
shell $-1 $-1 $-1 $20 $-1 $5 #
shell $-1 $-1 $-1 $21 $-1 $7 #
shell $-1 $-1 $-1 $22 $-1 $9 #
shell $-1 $-1 $-1 $23 $-1 $11 #
shell $-1 $-1 $-1 $24 $-1 $13 #
face $-1 $25 $26 $15 $-1 $27 forward single #
face $-1 $28 $29 $16 $-1 $30 forward single #
face $-1 $31 $32 $17 $-1 $33 reversed single #
face $-1 $34 $35 $18 $-1 $36 forward single #
face $-1 $37 $38 $19 $-1 $39 forward single #
face $-1 $40 $41 $15 $-1 $42 reversed single #
loop $-1 $-1 $43 $20 #
plane-surface $-1 0 0 11.468393580422417 0 0 1 1 0 0 forward_v I I I I #
face $-1 $44 $45 $16 $-1 $46 reversed single #
loop $-1 $-1 $47 $21 #
plane-surface $-1 -55.101779229102448 0 0 1 0 0 0 0 -1 forward_v I I I I #
face $-1 $48 $49 $17 $-1 $50 reversed single #
loop $-1 $-1 $51 $22 #
plane-surface $-1 -25.085953496380345 89.147923410606836 124.04381419442477 1 0 0 0 -0.83867057594974714 -0.54463902268945019 forward_v I I I I #
face $-1 $52 $53 $18 $-1 $54 forward single #
loop $-1 $55 $56 $23 #
cone-surface $-1 -17.787176335649932 31.660463454988871 5.5915757632357659 0 -0.83867057594974714 -0.54463902268945019 2.5 0 0 1 I I 0 1 2.5 forward I I I I #
face $-1 $57 $58 $19 $-1 $59 forward single #
loop $-1 $60 $61 $24 #
cone-surface $-1 -6.8390105945543027 31.660463454988871 5.5915757632357659 0 -0.83867057594974714 -0.54463902268945019 2.5 0 0 1 I I 0 1 2.5 forward I I I I #
face $-1 $62 $63 $15 $-1 $64 reversed single #
loop $-1 $-1 $65 $25 #
plane-surface $-1 0 0 -11.468393580422417 0 0 1 1 0 0 forward_v I I I I #
coedge $-1 $66 $67 $68 $69 forward $26 $-1 #
face $-1 $70 $71 $16 $-1 $72 forward single #
loop $-1 $-1 $73 $28 #
plane-surface $-1 0 36.700606731942081 0 0 -1 0 0 0 -1 forward_v I I I I #
coedge $-1 $74 $75 $76 $77 forward $29 $-1 #
face $-1 $78 $79 $17 $-1 $80 reversed single #
loop $-1 $-1 $81 $31 #
plane-surface $-1 -12.313093465102114 -3.2765584332474873 64.022655818848364 0 0.83867057594974714 0.54463902268945019 1 0 0 forward_v I I I I #
coedge $-1 $82 $83 $84 $85 reversed $32 $-1 #
face $-1 $-1 $86 $18 $-1 $87 forward single #
loop $-1 $88 $89 $34 #
cone-surface $-1 -17.787176335649932 28.495996613478603 3.536547034057369 0 -0.83867057594974714 -0.54463902268945019 1.25 0 0 1 I I -0.70710678118654746 0.70710678118654768 1.25 forward I I I I #
loop $-1 $-1 $90 $23 #
coedge $-1 $56 $56 $91 $92 reversed $35 $-1 #
face $-1 $-1 $93 $19 $-1 $94 forward single #
loop $-1 $95 $96 $37 #
cone-surface $-1 -6.8390105945543027 28.495996613478603 3.536547034057369 0 -0.83867057594974714 -0.54463902268945019 1.25 0 0 1 I I -0.70710678118654746 0.70710678118654768 1.25 forward I I I I #
loop $-1 $-1 $97 $24 #
coedge $-1 $61 $61 $98 $99 reversed $38 $-1 #
face $-1 $100 $101 $15 $-1 $102 reversed single #
loop $-1 $-1 $103 $40 #
plane-surface $-1 0 -36.700606731942081 0 0 1 0 0 0 1 forward_v I I I I #
coedge $-1 $104 $105 $106 $107 forward $41 $-1 #
coedge $-1 $108 $43 $109 $110 forward $26 $-1 #
coedge $-1 $43 $108 $111 $112 forward $26 $-1 #
coedge $-1 $113 $114 $43 $69 reversed $115 $-1 #
edge $-1 $116 -36.700606731942081 $117 36.700606731942081 $68 $118 forward 7 unknown #
face $-1 $119 $120 $16 $-1 $121 reversed single #
loop $-1 $-1 $76 $44 #
plane-surface $-1 -59.802144105323258 0 8.8954591413821191 0 0 1 1 0 0 forward_v I I I I #
coedge $-1 $122 $123 $75 $124 forward $45 $-1 #
coedge $-1 $125 $47 $126 $127 reversed $29 $-1 #
coedge $-1 $47 $125 $73 $124 reversed $29 $-1 #
coedge $-1 $128 $129 $47 $77 reversed $71 $-1 #
edge $-1 $130 -36.700606731942081 $131 36.700606731942081 $76 $132 forward 7 unknown #
face $-1 $133 $134 $17 $-1 $135 forward single #
loop $-1 $-1 $136 $48 #
plane-surface $-1 0.45976656617611766 89.147923410606836 124.04381419442477 -1 0 0 0 0.83867057594974714 0.54463902268945019 forward_v I I I I #
coedge $-1 $137 $138 $139 $140 reversed $49 $-1 #
coedge $-1 $83 $51 $141 $142 reversed $32 $-1 #
coedge $-1 $51 $82 $137 $143 reversed $32 $-1 #
coedge $-1 $139 $144 $51 $85 forward $134 $-1 #
edge $-1 $145 7.8733549733613373 $146 13.721384284121605 $84 $147 forward 7 unknown #
loop $-1 $-1 $91 $52 #
plane-surface $-1 -12.313093465102114 -3.2765584332474873 64.022655818848364 0 0.83867057594974714 0.54463902268945019 1 0 0 forward_v I I I I #
loop $-1 $-1 $148 $34 #
coedge $-1 $89 $89 $90 $149 reversed $53 $-1 #
coedge $-1 $90 $90 $89 $149 forward $55 $-1 #
coedge $-1 $91 $91 $56 $92 forward $86 $-1 #
edge $-1 $150 8.9386692815524841e-016 $150 6.2831853071796013 $91 $151 forward 7 unknown #
loop $-1 $-1 $98 $57 #
plane-surface $-1 -12.313093465102114 -3.2765584332474873 64.022655818848364 0 0.83867057594974714 0.54463902268945019 1 0 0 forward_v I I I I #
loop $-1 $-1 $152 $37 #
coedge $-1 $96 $96 $97 $153 reversed $58 $-1 #
coedge $-1 $97 $97 $96 $153 forward $60 $-1 #
coedge $-1 $98 $98 $61 $99 forward $93 $-1 #
edge $-1 $154 8.9386692815524841e-016 $154 6.2831853071796013 $98 $155 forward 7 unknown #
face $-1 $156 $157 $15 $-1 $158 reversed single #
loop $-1 $-1 $159 $62 #
plane-surface $-1 -55.101779229102448 0 0 1 0 0 0 0 -1 forward_v I I I I #
coedge $-1 $160 $111 $159 $161 forward $63 $-1 #
coedge $-1 $162 $65 $160 $163 forward $41 $-1 #
coedge $-1 $65 $162 $164 $165 forward $41 $-1 #
coedge $-1 $114 $113 $65 $107 reversed $115 $-1 #
edge $-1 $166 -36.700606731942081 $167 36.700606731942081 $106 $168 forward 7 unknown #
coedge $-1 $67 $66 $169 $170 forward $26 $-1 #
coedge $-1 $171 $172 $66 $110 reversed $157 $-1 #
edge $-1 $117 -55.101779229102448 $173 55.101779229102448 $109 $174 forward 7 unknown #
coedge $-1 $103 $175 $67 $112 reversed $63 $-1 #
edge $-1 $176 -55.101779229102448 $116 55.101779229102448 $111 $177 forward 7 unknown #
coedge $-1 $106 $68 $175 $178 forward $115 $-1 #
coedge $-1 $68 $106 $171 $179 reversed $115 $-1 #
loop $-1 $-1 $113 $156 #
vertex $-1 $69 $180 #
vertex $-1 $69 $181 #
straight-curve $-1 55.101779229102448 0 11.468393580422417 0 1 0 I I #
face $-1 $182 $183 $16 $-1 $184 reversed single #
loop $-1 $-1 $185 $70 #
plane-surface $-1 -59.802144105323258 0 3.7901742571940771 0 0 1 1 0 0 forward_v I I I I #
coedge $-1 $186 $73 $187 $188 reversed $45 $-1 #
coedge $-1 $73 $186 $128 $189 reversed $45 $-1 #
edge $-1 $130 -8.8954591413821191 $190 -3.7901742571940771 $73 $191 forward 7 unknown #
coedge $-1 $75 $74 $185 $192 forward $29 $-1 #
coedge $-1 $193 $194 $74 $127 forward $195 $-1 #
edge $-1 $196 3.7901742571940771 $131 8.8954591413821191 $126 $197 forward 7 unknown #
coedge $-1 $198 $76 $123 $189 forward $71 $-1 #
coedge $-1 $76 $198 $193 $199 forward $71 $-1 #
vertex $-1 $124 $200 #
vertex $-1 $199 $201 #
straight-curve $-1 -55.101779229102448 0 8.8954591413821191 0 -1 0 I I #
face $-1 $-1 $202 $17 $-1 $203 reversed single #
loop $-1 $-1 $84 $78 #
plane-surface $-1 0 0 11.468393580422417 0 0 1 1 0 0 forward_v I I I I #
coedge $-1 $204 $205 $206 $207 reversed $79 $-1 #
coedge $-1 $208 $81 $83 $143 forward $49 $-1 #
coedge $-1 $81 $208 $204 $209 forward $49 $-1 #
coedge $-1 $206 $84 $81 $140 forward $134 $-1 #
edge $-1 $146 -18.929406763829288 $210 6.6163132987271744 $139 $211 forward 7 unknown #
coedge $-1 $212 $213 $82 $142 forward $202 $-1 #
edge $-1 $214 -59.558689249530062 $145 -50.55351351678997 $141 $215 forward 7 unknown #
edge $-1 $146 62.663772577106585 $214 73.401213463884133 $83 $216 forward 7 unknown #
coedge $-1 $84 $206 $212 $217 forward $134 $-1 #
vertex $-1 $142 $218 #
vertex $-1 $85 $219 #
straight-curve $-1 -25.085953496380345 44.573961705303418 11.468393580422415 0 -1 0 I I #
coedge $-1 $148 $148 $-1 $220 reversed $88 $-1 #
edge $-1 $221 0 $221 6.2831853071796004 $89 $222 forward 7 unknown #
vertex $-1 $92 $223 #
ellipse-curve $-1 -17.787176335649932 33.776592076561954 6.9658057140523519 0 0.83867057594974714 0.54463902268945019 2.5 0 0 1 I I #
coedge $-1 $152 $152 $-1 $224 reversed $95 $-1 #
edge $-1 $225 0 $225 6.2831853071796004 $96 $226 forward 7 unknown #
vertex $-1 $99 $227 #
ellipse-curve $-1 -6.8390105945543027 33.776592076561954 6.9658057140523519 0 0.83867057594974714 0.54463902268945019 2.5 0 0 1 I I #
face $-1 $-1 $115 $15 $-1 $228 reversed single #
loop $-1 $-1 $171 $100 #
plane-surface $-1 0 36.700606731942081 0 0 -1 0 0 0 -1 forward_v I I I I #
coedge $-1 $169 $229 $103 $161 reversed $101 $-1 #
coedge $-1 $175 $103 $104 $163 reversed $63 $-1 #
edge $-1 $176 -11.468393580422417 $230 11.468393580422417 $159 $231 forward 7 unknown #
coedge $-1 $105 $104 $229 $232 forward $41 $-1 #
edge $-1 $167 -55.101779229102448 $230 55.101779229102448 $160 $233 forward 7 unknown #
coedge $-1 $172 $171 $105 $165 reversed $157 $-1 #
edge $-1 $234 -55.101779229102448 $166 55.101779229102448 $164 $235 forward 7 unknown #
vertex $-1 $107 $236 #
vertex $-1 $178 $237 #
straight-curve $-1 55.101779229102448 0 -11.468393580422417 0 -1 0 I I #
coedge $-1 $238 $159 $108 $170 reversed $101 $-1 #
edge $-1 $173 -36.700606731942081 $176 36.700606731942081 $169 $239 forward 7 unknown #
coedge $-1 $164 $109 $114 $179 forward $157 $-1 #
coedge $-1 $109 $164 $238 $240 reversed $157 $-1 #
vertex $-1 $110 $241 #
straight-curve $-1 0 36.700606731942081 11.468393580422417 -1 0 0 I I #
coedge $-1 $111 $160 $113 $178 reversed $63 $-1 #
vertex $-1 $170 $242 #
straight-curve $-1 0 -36.700606731942081 11.468393580422417 1 0 0 I I #
edge $-1 $116 -11.468393580422417 $167 11.468393580422417 $113 $243 forward 7 unknown #
edge $-1 $117 -11.468393580422417 $166 11.468393580422417 $114 $244 forward 7 unknown #
point $-1 55.101779229102448 -36.700606731942081 11.468393580422417 #
point $-1 55.101779229102448 36.700606731942081 11.468393580422417 #
face $-1 $-1 $195 $16 $-1 $245 reversed single #
loop $-1 $-1 $246 $119 #
plane-surface $-1 -64.502508981544068 0 6.3428166992880985 1 0 0 0 0 -1 forward_v I I I I #
coedge $-1 $247 $187 $125 $192 reversed $120 $-1 #
coedge $-1 $123 $122 $246 $248 reversed $45 $-1 #
coedge $-1 $185 $249 $122 $188 forward $120 $-1 #
edge $-1 $250 -4.7003648762208101 $190 4.7003648762208101 $122 $251 forward 7 unknown #
edge $-1 $130 -4.7003648762208101 $252 4.7003648762208101 $123 $253 forward 7 unknown #
vertex $-1 $124 $254 #
straight-curve $-1 -55.101779229102448 36.700606731942081 0 0 0 -1 I I #
edge $-1 $196 -36.700606731942081 $190 36.700606731942081 $185 $255 forward 7 unknown #
coedge $-1 $256 $126 $129 $199 reversed $195 $-1 #
coedge $-1 $126 $256 $247 $257 reversed $195 $-1 #
loop $-1 $-1 $126 $182 #
vertex $-1 $127 $258 #
straight-curve $-1 -55.101779229102448 -36.700606731942081 0 0 0 1 I I #
coedge $-1 $129 $128 $259 $260 forward $71 $-1 #
edge $-1 $261 -4.7003648762208101 $131 4.7003648762208101 $193 $262 forward 7 unknown #
point $-1 -55.101779229102448 36.700606731942081 8.8954591413821191 #
point $-1 -55.101779229102448 -36.700606731942081 8.8954591413821191 #
loop $-1 $-1 $141 $133 #
plane-surface $-1 0 36.700606731942081 0 0 -1 0 0 0 -1 forward_v I I I I #
coedge $-1 $205 $136 $138 $209 reversed $79 $-1 #
coedge $-1 $136 $204 $263 $264 reversed $79 $-1 #
coedge $-1 $144 $139 $136 $207 forward $134 $-1 #
edge $-1 $210 -13.721384284121605 $265 -7.8733549733613373 $206 $266 forward 7 unknown #
coedge $-1 $138 $137 $213 $267 reversed $49 $-1 #
edge $-1 $268 -73.401213463884133 $210 -62.663772577106585 $204 $269 forward 7 unknown #
vertex $-1 $140 $270 #
straight-curve $-1 -6.1565467325510568 30.852577421181813 11.468393580422415 1 0 0 I I #
coedge $-1 $263 $141 $144 $217 reversed $202 $-1 #
coedge $-1 $141 $263 $208 $267 forward $202 $-1 #
vertex $-1 $142 $271 #
straight-curve $-1 -25.085953496380345 36.700606731942081 62.021907097212384 0 0 1 I I #
straight-curve $-1 -25.085953496380345 -3.2765584332474873 64.022655818848364 0 0.54463902268945019 -0.83867057594974714 I I #
edge $-1 $265 -0.45976656617611766 $145 25.085953496380345 $212 $272 forward 7 unknown #
point $-1 -25.085953496380345 36.700606731942081 11.468393580422417 #
point $-1 -25.085953496380345 30.852577421181813 11.468393580422415 #
edge $-1 $273 1 $273 0 $148 $-1 forward 7 unknown #
vertex $-1 $149 $274 #
ellipse-curve $-1 -17.787176335649932 29.544334833415789 4.2173458124191825 0 0.83867057594974714 0.54463902268945019 2.5 0 0 1 I I #
point $-1 -15.287176335649932 33.776592076561954 6.9658057140523493 #
edge $-1 $275 1 $275 0 $152 $-1 forward 7 unknown #
vertex $-1 $153 $276 #
ellipse-curve $-1 -6.8390105945543027 29.544334833415789 4.2173458124191825 0 0.83867057594974714 0.54463902268945019 2.5 0 0 1 I I #
point $-1 -4.3390105945543027 33.776592076561954 6.9658057140523493 #
plane-surface $-1 55.101779229102448 0 0 -1 0 0 0 0 1 forward_v I I I I #
coedge $-1 $159 $238 $162 $232 reversed $101 $-1 #
vertex $-1 $232 $277 #
straight-curve $-1 -55.101779229102448 -36.700606731942081 0 0 0 -1 I I #
edge $-1 $230 -36.700606731942081 $234 36.700606731942081 $229 $278 forward 7 unknown #
straight-curve $-1 0 -36.700606731942081 -11.468393580422417 -1 0 0 I I #
vertex $-1 $165 $279 #
straight-curve $-1 0 36.700606731942081 -11.468393580422417 1 0 0 I I #
point $-1 55.101779229102448 36.700606731942081 -11.468393580422417 #
point $-1 55.101779229102448 -36.700606731942081 -11.468393580422417 #
coedge $-1 $229 $169 $172 $240 forward $101 $-1 #
straight-curve $-1 -55.101779229102448 0 11.468393580422417 0 -1 0 I I #
edge $-1 $173 -11.468393580422417 $234 11.468393580422417 $172 $280 forward 7 unknown #
point $-1 -55.101779229102448 36.700606731942081 11.468393580422417 #
point $-1 -55.101779229102448 -36.700606731942081 11.468393580422417 #
straight-curve $-1 55.101779229102448 -36.700606731942081 0 0 0 -1 I I #
straight-curve $-1 55.101779229102448 36.700606731942081 0 0 0 -1 I I #
plane-surface $-1 0 -36.700606731942081 0 0 1 0 0 0 1 forward_v I I I I #
coedge $-1 $281 $259 $186 $248 forward $183 $-1 #
coedge $-1 $249 $185 $194 $257 forward $120 $-1 #
edge $-1 $252 -2.5526424420940206 $250 2.5526424420940215 $186 $282 forward 7 unknown #
coedge $-1 $187 $247 $281 $283 forward $120 $-1 #
vertex $-1 $188 $284 #
straight-curve $-1 -59.802144105323258 36.700606731942081 3.7901742571940771 1 0 0 I I #
vertex $-1 $189 $285 #
straight-curve $-1 -59.802144105323258 36.700606731942081 8.8954591413821191 -1 0 0 I I #
point $-1 -55.101779229102448 36.700606731942081 3.7901742571940771 #
straight-curve $-1 -55.101779229102448 0 3.7901742571940771 0 1 0 I I #
coedge $-1 $194 $193 $286 $287 forward $195 $-1 #
edge $-1 $196 -4.7003648762208101 $288 4.7003648762208101 $194 $289 forward 7 unknown #
point $-1 -55.101779229102448 -36.700606731942081 3.7901742571940771 #
coedge $-1 $246 $286 $198 $260 reversed $183 $-1 #
edge $-1 $252 -36.700606731942081 $261 36.700606731942081 $259 $290 forward 7 unknown #
vertex $-1 $260 $291 #
straight-curve $-1 -59.802144105323258 -36.700606731942081 8.8954591413821191 1 0 0 I I #
coedge $-1 $213 $212 $205 $264 forward $202 $-1 #
edge $-1 $265 50.55351351678997 $268 59.558689249530062 $263 $292 forward 7 unknown #
vertex $-1 $217 $293 #
straight-curve $-1 0.45976656617611766 44.573961705303418 11.468393580422415 0 1 0 I I #
edge $-1 $268 -6.6163132987271744 $214 18.929406763829288 $213 $294 forward 7 unknown #
vertex $-1 $267 $295 #
straight-curve $-1 0.45976656617611766 -3.2765584332474873 64.022655818848364 0 -0.54463902268945019 0.83867057594974714 I I #
point $-1 0.45976656617611766 30.852577421181813 11.468393580422415 #
point $-1 -25.085953496380345 36.700606731942081 2.4632178476823228 #
straight-curve $-1 0 36.700606731942081 11.468393580422417 -1 0 0 I I #
vertex $-1 $220 $296 #
point $-1 -15.287176335649932 29.544334833415789 4.2173458124191825 #
vertex $-1 $224 $297 #
point $-1 -4.3390105945543027 29.544334833415789 4.2173458124191825 #
point $-1 -55.101779229102448 -36.700606731942081 -11.468393580422417 #
straight-curve $-1 -55.101779229102448 0 -11.468393580422417 0 1 0 I I #
point $-1 -55.101779229102448 36.700606731942081 -11.468393580422417 #
straight-curve $-1 -55.101779229102448 36.700606731942081 0 0 0 -1 I I #
coedge $-1 $286 $246 $249 $283 reversed $183 $-1 #
straight-curve $-1 -64.502508981544068 36.700606731942081 6.3428166992880985 0 0 -1 I I #
edge $-1 $288 -36.700606731942081 $250 36.700606731942081 $281 $298 forward 7 unknown #
point $-1 -64.502508981544068 36.700606731942081 3.7901742571940771 #
point $-1 -64.502508981544068 36.700606731942081 8.8954591413821191 #
coedge $-1 $259 $281 $256 $287 reversed $183 $-1 #
edge $-1 $261 -2.5526424420940206 $288 2.5526424420940215 $286 $299 forward 7 unknown #
vertex $-1 $283 $300 #
straight-curve $-1 -59.802144105323258 -36.700606731942081 3.7901742571940771 -1 0 0 I I #
straight-curve $-1 -64.502508981544068 0 8.8954591413821191 0 -1 0 I I #
point $-1 -64.502508981544068 -36.700606731942081 8.8954591413821191 #
straight-curve $-1 0.45976656617611766 36.700606731942081 62.021907097212384 0 0 -1 I I #
point $-1 0.45976656617611766 36.700606731942081 11.468393580422417 #
straight-curve $-1 -6.1565467325510568 36.700606731942081 2.4632178476823263 -1 0 0 I I #
point $-1 0.45976656617611766 36.700606731942081 2.4632178476823228 #
point $-1 -17.787176335649932 27.447658393541417 2.855748255695556 #
point $-1 -6.8390105945543027 27.447658393541417 2.855748255695556 #
straight-curve $-1 -64.502508981544068 0 3.7901742571940771 0 1 0 I I #
straight-curve $-1 -64.502508981544068 -36.700606731942081 6.3428166992880985 0 0 -1 I I #
point $-1 -64.502508981544068 -36.700606731942081 3.7901742571940771 #
End-of-ACIS-data 