500 0 14 0           
7 Unknown 11 ACIS 5.0 NT 24 Fri Mar 26 14:41:42 1999 
-1 9.9999999999999995e-007 1e-010 
body $-1 $14 $-1 $15 #
body $-1 $16 $-1 $17 #
body $-1 $18 $-1 $19 #
body $-1 $20 $-1 $21 #
body $-1 $22 $-1 $23 #
body $-1 $24 $-1 $25 #
body $-1 $26 $-1 $27 #
body $-1 $28 $-1 $29 #
body $-1 $30 $-1 $31 #
body $-1 $32 $-1 $33 #
body $-1 $34 $-1 $35 #
body $-1 $36 $-1 $37 #
body $-1 $38 $-1 $39 #
body $-1 $40 $-1 $41 #
lump $-1 $-1 $42 $0 #
transform $-1 1 0 0 0 1 0 0 0 1 41.547898800622576 20.621284615143438 7.0204375864672111 1 rotate no_reflect no_shear #
lump $-1 $-1 $43 $1 #
transform $-1 1 0 0 0 1 0 0 0 1 41.547898800622576 20.621284615143438 7.0204375864672111 1 rotate no_reflect no_shear #
lump $-1 $-1 $44 $2 #
transform $-1 1 0 0 0 1 0 0 0 1 41.547898800622576 20.621284615143438 7.0204375864672111 1 rotate no_reflect no_shear #
lump $-1 $-1 $45 $3 #
transform $-1 1 0 0 0 1 0 0 0 1 41.547898800622576 20.621284615143438 7.0204375864672111 1 rotate no_reflect no_shear #
lump $-1 $-1 $46 $4 #
transform $-1 1 0 0 0 1 0 0 0 1 41.547898800622576 20.621284615143438 7.0204375864672111 1 rotate no_reflect no_shear #
lump $-1 $-1 $47 $5 #
transform $-1 1 0 0 0 1 0 0 0 1 41.547898800622576 20.621284615143438 7.0204375864672111 1 rotate no_reflect no_shear #
lump $-1 $-1 $48 $6 #
transform $-1 1 0 0 0 1 0 0 0 1 41.547898800622576 20.621284615143438 7.0204375864672111 1 rotate no_reflect no_shear #
lump $-1 $-1 $49 $7 #
transform $-1 1 0 0 0 1 0 0 0 1 41.547898800622576 20.621284615143438 7.0204375864672111 1 rotate no_reflect no_shear #
lump $-1 $-1 $50 $8 #
transform $-1 1 0 0 0 1 0 0 0 1 41.547898800622576 20.621284615143438 7.0204375864672111 1 rotate no_reflect no_shear #
lump $-1 $-1 $51 $9 #
transform $-1 1 0 0 0 1 0 0 0 1 41.547898800622576 20.621284615143438 7.0204375864672111 1 rotate no_reflect no_shear #
lump $-1 $-1 $52 $10 #
transform $-1 1 0 0 0 1 0 0 0 1 41.547898800622576 20.621284615143438 7.0204375864672111 1 rotate no_reflect no_shear #
lump $-1 $-1 $53 $11 #
transform $-1 1 0 0 0 1 0 0 0 1 41.547898800622576 20.621284615143438 7.0204375864672111 1 rotate no_reflect no_shear #
lump $-1 $-1 $54 $12 #
transform $-1 1 0 0 0 1 0 0 0 1 41.547898800622576 20.621284615143438 7.0204375864672111 1 rotate no_reflect no_shear #
lump $-1 $-1 $55 $13 #
transform $-1 1 0 0 0 1 0 0 0 1 41.547898800622576 20.621284615143438 7.0204375864672111 1 rotate no_reflect no_shear #
shell $-1 $-1 $-1 $56 $-1 $14 #
shell $-1 $-1 $-1 $57 $-1 $16 #
shell $-1 $-1 $-1 $58 $-1 $18 #
shell $-1 $-1 $-1 $59 $-1 $20 #
shell $-1 $-1 $-1 $60 $-1 $22 #
shell $-1 $-1 $-1 $61 $-1 $24 #
shell $-1 $-1 $-1 $62 $-1 $26 #
shell $-1 $-1 $-1 $63 $-1 $28 #
shell $-1 $-1 $-1 $64 $-1 $30 #
shell $-1 $-1 $-1 $65 $-1 $32 #
shell $-1 $-1 $-1 $66 $-1 $34 #
shell $-1 $-1 $-1 $67 $-1 $36 #
shell $-1 $-1 $-1 $68 $-1 $38 #
shell $-1 $-1 $-1 $69 $-1 $40 #
face $-1 $70 $71 $42 $-1 $72 forward single #
face $-1 $73 $74 $43 $-1 $75 reversed single #
face $-1 $76 $77 $44 $-1 $78 reversed single #
face $-1 $79 $80 $45 $-1 $81 forward single #
face $-1 $82 $83 $46 $-1 $84 forward single #
face $-1 $85 $86 $47 $-1 $87 forward single #
face $-1 $88 $89 $48 $-1 $90 reversed single #
face $-1 $91 $92 $49 $-1 $93 forward single #
face $-1 $94 $95 $50 $-1 $96 forward single #
face $-1 $97 $98 $51 $-1 $99 forward single #
face $-1 $100 $101 $52 $-1 $102 reversed single #
face $-1 $103 $104 $53 $-1 $105 forward single #
face $-1 $106 $107 $54 $-1 $108 forward single #
face $-1 $109 $110 $55 $-1 $111 forward single #
face $-1 $112 $113 $42 $-1 $114 reversed single #
loop $-1 $-1 $115 $56 #
plane-surface $-1 0 0 7.0204375864672111 0 0 1 1 0 0 forward_v I I I I #
face $-1 $116 $117 $43 $-1 $118 reversed single #
loop $-1 $-1 $119 $57 #
plane-surface $-1 -39.112527353721262 -17.603726266852924 0 1 0 0 0 0 -1 forward_v I I I I #
face $-1 $120 $121 $44 $-1 $122 reversed single #
loop $-1 $-1 $123 $58 #
plane-surface $-1 -110.43743780440236 10.932981003353587 49.25599026667981 0 1 0 -0.82903758062907751 0 0.55919289150049634 forward_v I I I I #
face $-1 $124 $125 $45 $-1 $126 forward single #
loop $-1 $127 $128 $59 #
cone-surface $-1 -39.49111788751123 12.158349189501003 4.4800856228529362 0.82903758062907751 0 -0.55919289150049634 0.27959644575024817 0 0.41451879031453875 1 I I 0 1 0.5 forward I I I I #
face $-1 $129 $130 $46 $-1 $131 forward single #
loop $-1 $132 $133 $60 #
cone-surface $-1 -39.49111788751123 13.996401468722127 4.4800856228529362 0.82903758062907751 0 -0.55919289150049634 0.27959644575024817 0 0.41451879031453875 1 I I 0 1 0.5 forward I I I I #
face $-1 $134 $135 $47 $-1 $136 forward single #
loop $-1 $137 $138 $61 #
cone-surface $-1 -39.49111788751123 15.83445374794325 4.4800856228529362 0.82903758062907751 0 -0.55919289150049634 0.27959644575024817 0 0.41451879031453875 1 I I 0 1 0.5 forward I I I I #
face $-1 $139 $140 $48 $-1 $141 reversed single #
loop $-1 $-1 $142 $62 #
plane-surface $-1 73.939480660680957 0.35223286694726674 116.75839631984763 0 -1 0 -0.87461971476443456 0 -0.48480960649040278 forward_v I I I I #
face $-1 $143 $144 $49 $-1 $145 forward single #
loop $-1 $146 $147 $63 #
cone-surface $-1 39.809110323511895 -5.519088365575497 4.9395986704644006 -0.87461971476443456 0 -0.48480960649040278 0.24240480324520139 0 -0.43730985738221728 1 I I 0 1 0.5 forward I I I I #
face $-1 $148 $149 $50 $-1 $150 forward single #
loop $-1 $151 $152 $64 #
cone-surface $-1 39.809110323511895 -3.3173429033794619 4.9395986704644006 -0.87461971476443456 0 -0.48480960649040278 0.24240480324520139 0 -0.43730985738221728 1 I I 0 1 0.5 forward I I I I #
face $-1 $153 $154 $51 $-1 $155 forward single #
loop $-1 $156 $157 $65 #
cone-surface $-1 39.809110323511895 -1.1155974411834251 4.9395986704644006 -0.87461971476443456 0 -0.48480960649040278 0.24240480324520139 0 -0.43730985738221728 1 I I 0 1 0.5 forward I I I I #
face $-1 $158 $159 $52 $-1 $160 reversed single #
loop $-1 $-1 $161 $66 #
plane-surface $-1 73.939480660680957 13.022035370287218 116.75839631984763 0 -1 0 -0.87461971476443456 0 -0.48480960649040278 forward_v I I I I #
face $-1 $162 $163 $53 $-1 $164 forward single #
loop $-1 $165 $166 $67 #
cone-surface $-1 39.809110323511895 7.150714137764453 4.9395986704644006 -0.87461971476443456 0 -0.48480960649040278 0.24240480324520139 0 -0.43730985738221728 1 I I 0 1 0.5 forward I I I I #
face $-1 $167 $168 $54 $-1 $169 forward single #
loop $-1 $170 $171 $68 #
cone-surface $-1 39.809110323511895 9.3524595999604898 4.9395986704644006 -0.87461971476443456 0 -0.48480960649040278 0.24240480324520139 0 -0.43730985738221728 1 I I 0 1 0.5 forward I I I I #
face $-1 $172 $173 $55 $-1 $174 forward single #
loop $-1 $175 $176 $69 #
cone-surface $-1 39.809110323511895 11.554205062156527 4.9395986704644006 -0.87461971476443456 0 -0.48480960649040278 0.24240480324520139 0 -0.43730985738221728 1 I I 0 1 0.5 forward I I I I #
face $-1 $177 $178 $42 $-1 $179 reversed single #
loop $-1 $-1 $180 $70 #
plane-surface $-1 0 0 -7.0204375864672111 0 0 1 1 0 0 forward_v I I I I #
coedge $-1 $181 $182 $183 $184 forward $71 $-1 #
face $-1 $185 $186 $43 $-1 $187 reversed single #
loop $-1 $-1 $188 $73 #
plane-surface $-1 -37.46219852907204 -14.58616791856241 0 0 -1 0 0 0 -1 forward_v I I I I #
coedge $-1 $189 $190 $191 $192 forward $74 $-1 #
face $-1 $193 $194 $44 $-1 $195 reversed single #
loop $-1 $-1 $196 $76 #
plane-surface $-1 -41.547898800622576 13.996401468722127 2.7894109344995286 -0.82903758062907751 0 0.55919289150049634 0.55919289150049634 0 0.82903758062907751 forward_v I I I I #
coedge $-1 $197 $198 $199 $200 reversed $77 $-1 #
face $-1 $-1 $201 $45 $-1 $202 forward single #
loop $-1 $203 $204 $79 #
cone-surface $-1 -38.654009290670089 12.158349189501003 3.9154487623473839 0.82903758062907751 0 -0.55919289150049634 0.13979822287512408 0 0.20725939515726938 1 I I -0.70710678118654746 0.70710678118654746 0.25 forward I I I I #
loop $-1 $-1 $205 $59 #
coedge $-1 $128 $128 $206 $207 reversed $80 $-1 #
face $-1 $-1 $208 $46 $-1 $209 forward single #
loop $-1 $210 $211 $82 #
cone-surface $-1 -38.654009290670089 13.996401468722127 3.9154487623473839 0.82903758062907751 0 -0.55919289150049634 0.13979822287512408 0 0.20725939515726938 1 I I -0.70710678118654746 0.70710678118654746 0.25 forward I I I I #
loop $-1 $-1 $212 $60 #
coedge $-1 $133 $133 $213 $214 reversed $83 $-1 #
face $-1 $-1 $215 $47 $-1 $216 forward single #
loop $-1 $217 $218 $85 #
cone-surface $-1 -38.654009290670089 15.83445374794325 3.9154487623473839 0.82903758062907751 0 -0.55919289150049634 0.13979822287512408 0 0.20725939515726938 1 I I -0.70710678118654746 0.70710678118654746 0.25 forward I I I I #
loop $-1 $-1 $219 $61 #
coedge $-1 $138 $138 $220 $221 reversed $86 $-1 #
face $-1 $222 $223 $48 $-1 $224 reversed single #
loop $-1 $-1 $225 $88 #
plane-surface $-1 1.2622578645567302 -3.3173429033794619 76.472755383781816 0.87461971476443456 0 0.48480960649040278 0.48480960649040278 0 -0.87461971476443456 forward_v I I I I #
coedge $-1 $226 $227 $228 $229 reversed $89 $-1 #
face $-1 $-1 $230 $49 $-1 $231 forward single #
loop $-1 $232 $233 $91 #
cone-surface $-1 38.74546390001511 -5.519088365575497 4.3500098522438 -0.87461971476443456 0 -0.48480960649040278 0.12120240162260069 0 -0.21865492869110864 1 I I -0.70710678118654746 0.70710678118654746 0.25 forward I I I I #
loop $-1 $-1 $234 $63 #
coedge $-1 $147 $147 $235 $236 reversed $92 $-1 #
face $-1 $-1 $237 $50 $-1 $238 forward single #
loop $-1 $239 $240 $94 #
cone-surface $-1 38.74546390001511 -3.3173429033794619 4.3500098522438 -0.87461971476443456 0 -0.48480960649040278 0.12120240162260069 0 -0.21865492869110864 1 I I -0.70710678118654746 0.70710678118654746 0.25 forward I I I I #
loop $-1 $-1 $241 $64 #
coedge $-1 $152 $152 $242 $243 reversed $95 $-1 #
face $-1 $-1 $244 $51 $-1 $245 forward single #
loop $-1 $246 $247 $97 #
cone-surface $-1 38.74546390001511 -1.1155974411834251 4.3500098522438 -0.87461971476443456 0 -0.48480960649040278 0.12120240162260069 0 -0.21865492869110864 1 I I -0.70710678118654746 0.70710678118654746 0.25 forward I I I I #
loop $-1 $-1 $248 $65 #
coedge $-1 $157 $157 $249 $250 reversed $98 $-1 #
face $-1 $251 $252 $52 $-1 $253 reversed single #
loop $-1 $-1 $254 $100 #
plane-surface $-1 1.2622578645567302 9.3524595999604898 76.472755383781816 0.87461971476443456 0 0.48480960649040278 0.48480960649040278 0 -0.87461971476443456 forward_v I I I I #
coedge $-1 $255 $256 $257 $258 reversed $101 $-1 #
face $-1 $-1 $259 $53 $-1 $260 forward single #
loop $-1 $261 $262 $103 #
cone-surface $-1 38.74546390001511 7.150714137764453 4.3500098522438 -0.87461971476443456 0 -0.48480960649040278 0.12120240162260069 0 -0.21865492869110864 1 I I -0.70710678118654746 0.70710678118654746 0.25 forward I I I I #
loop $-1 $-1 $263 $67 #
coedge $-1 $166 $166 $264 $265 reversed $104 $-1 #
face $-1 $-1 $266 $54 $-1 $267 forward single #
loop $-1 $268 $269 $106 #
cone-surface $-1 38.74546390001511 9.3524595999604898 4.3500098522438 -0.87461971476443456 0 -0.48480960649040278 0.12120240162260069 0 -0.21865492869110864 1 I I -0.70710678118654746 0.70710678118654746 0.25 forward I I I I #
loop $-1 $-1 $270 $68 #
coedge $-1 $171 $171 $271 $272 reversed $107 $-1 #
face $-1 $-1 $273 $55 $-1 $274 forward single #
loop $-1 $275 $276 $109 #
cone-surface $-1 38.74546390001511 11.554205062156527 4.3500098522438 -0.87461971476443456 0 -0.48480960649040278 0.12120240162260069 0 -0.21865492869110864 1 I I -0.70710678118654746 0.70710678118654746 0.25 forward I I I I #
loop $-1 $-1 $277 $69 #
coedge $-1 $176 $176 $278 $279 reversed $110 $-1 #
face $-1 $280 $281 $42 $-1 $282 reversed single #
loop $-1 $-1 $283 $112 #
plane-surface $-1 0 -20.621284615143438 0 0 1 0 0 0 1 forward_v I I I I #
coedge $-1 $284 $285 $286 $287 forward $113 $-1 #
coedge $-1 $288 $115 $289 $290 forward $71 $-1 #
coedge $-1 $115 $288 $291 $292 forward $71 $-1 #
coedge $-1 $293 $294 $115 $184 reversed $295 $-1 #
edge $-1 $296 -20.621284615143438 $297 20.621284615143438 $183 $298 forward 7 unknown #
face $-1 $299 $300 $43 $-1 $301 forward single #
loop $-1 $-1 $302 $116 #
plane-surface $-1 -35.811869704422818 -17.603726266852924 0 -1 0 0 0 0 1 forward_v I I I I #
coedge $-1 $303 $304 $305 $306 forward $117 $-1 #
coedge $-1 $307 $119 $308 $309 reversed $74 $-1 #
coedge $-1 $119 $307 $310 $311 reversed $74 $-1 #
coedge $-1 $304 $303 $119 $192 reversed $117 $-1 #
edge $-1 $312 -7.0204375864672111 $313 7.0204375864672111 $191 $314 forward 7 unknown #
face $-1 $315 $316 $44 $-1 $317 reversed single #
loop $-1 $-1 $318 $120 #
plane-surface $-1 -110.43743780440236 17.059821934090664 49.25599026667981 0 -1 0 0.82903758062907751 0 -0.55919289150049634 forward_v I I I I #
coedge $-1 $319 $320 $321 $322 reversed $121 $-1 #
coedge $-1 $198 $123 $323 $324 reversed $77 $-1 #
coedge $-1 $123 $197 $319 $325 reversed $77 $-1 #
coedge $-1 $321 $326 $123 $200 forward $327 $-1 #
edge $-1 $328 13.670820101578606 $329 16.524683524433541 $199 $330 forward 7 unknown #
loop $-1 $-1 $206 $124 #
plane-surface $-1 -41.547898800622576 13.996401468722127 2.7894109344995286 -0.82903758062907751 0 0.55919289150049634 0.55919289150049634 0 0.82903758062907751 forward_v I I I I #
loop $-1 $-1 $331 $79 #
coedge $-1 $204 $204 $205 $332 reversed $125 $-1 #
coedge $-1 $205 $205 $204 $332 forward $127 $-1 #
coedge $-1 $206 $206 $128 $207 forward $201 $-1 #
edge $-1 $333 0 $333 6.2831853071796004 $206 $334 forward 7 unknown #
loop $-1 $-1 $213 $129 #
plane-surface $-1 -41.547898800622576 13.996401468722127 2.7894109344995286 -0.82903758062907751 0 0.55919289150049634 0.55919289150049634 0 0.82903758062907751 forward_v I I I I #
loop $-1 $-1 $335 $82 #
coedge $-1 $211 $211 $212 $336 reversed $130 $-1 #
coedge $-1 $212 $212 $211 $336 forward $132 $-1 #
coedge $-1 $213 $213 $133 $214 forward $208 $-1 #
edge $-1 $337 0 $337 6.2831853071796004 $213 $338 forward 7 unknown #
loop $-1 $-1 $220 $134 #
plane-surface $-1 -41.547898800622576 13.996401468722127 2.7894109344995286 -0.82903758062907751 0 0.55919289150049634 0.55919289150049634 0 0.82903758062907751 forward_v I I I I #
loop $-1 $-1 $339 $85 #
coedge $-1 $218 $218 $219 $340 reversed $135 $-1 #
coedge $-1 $219 $219 $218 $340 forward $137 $-1 #
coedge $-1 $220 $220 $138 $221 forward $215 $-1 #
edge $-1 $341 0 $341 6.2831853071796004 $220 $342 forward 7 unknown #
face $-1 $343 $344 $48 $-1 $345 forward single #
loop $-1 $-1 $346 $139 #
plane-surface $-1 73.939480660680957 -6.9869186737061906 116.75839631984763 0 1 0 0.87461971476443456 0 0.48480960649040278 forward_v I I I I #
coedge $-1 $347 $348 $349 $350 reversed $140 $-1 #
coedge $-1 $227 $142 $351 $352 reversed $89 $-1 #
coedge $-1 $142 $226 $347 $353 reversed $89 $-1 #
coedge $-1 $349 $354 $142 $229 forward $344 $-1 #
edge $-1 $355 -4.5781584702820979 $356 -2.7905645056720658 $228 $357 forward 7 unknown #
loop $-1 $-1 $235 $143 #
plane-surface $-1 1.2622578645567302 -3.3173429033794619 76.472755383781816 0.87461971476443456 0 0.48480960649040278 0.48480960649040278 0 -0.87461971476443456 forward_v I I I I #
loop $-1 $-1 $358 $91 #
coedge $-1 $233 $233 $234 $359 reversed $144 $-1 #
coedge $-1 $234 $234 $233 $359 forward $146 $-1 #
coedge $-1 $235 $235 $147 $236 forward $230 $-1 #
edge $-1 $360 0 $360 6.2831853071796004 $235 $361 forward 7 unknown #
loop $-1 $-1 $242 $148 #
plane-surface $-1 1.2622578645567302 -3.3173429033794619 76.472755383781816 0.87461971476443456 0 0.48480960649040278 0.48480960649040278 0 -0.87461971476443456 forward_v I I I I #
loop $-1 $-1 $362 $94 #
coedge $-1 $240 $240 $241 $363 reversed $149 $-1 #
coedge $-1 $241 $241 $240 $363 forward $151 $-1 #
coedge $-1 $242 $242 $152 $243 forward $237 $-1 #
edge $-1 $364 0 $364 6.2831853071796004 $242 $365 forward 7 unknown #
loop $-1 $-1 $249 $153 #
plane-surface $-1 1.2622578645567302 -3.3173429033794619 76.472755383781816 0.87461971476443456 0 0.48480960649040278 0.48480960649040278 0 -0.87461971476443456 forward_v I I I I #
loop $-1 $-1 $366 $97 #
coedge $-1 $247 $247 $248 $367 reversed $154 $-1 #
coedge $-1 $248 $248 $247 $367 forward $156 $-1 #
coedge $-1 $249 $249 $157 $250 forward $244 $-1 #
edge $-1 $368 0 $368 6.2831853071796004 $249 $369 forward 7 unknown #
face $-1 $370 $371 $52 $-1 $372 reversed single #
loop $-1 $-1 $373 $158 #
plane-surface $-1 73.939480660680957 5.6828838296337612 116.75839631984763 0 1 0 0.87461971476443456 0 0.48480960649040278 forward_v I I I I #
coedge $-1 $374 $375 $376 $377 reversed $159 $-1 #
coedge $-1 $256 $161 $378 $379 reversed $101 $-1 #
coedge $-1 $161 $255 $374 $380 reversed $101 $-1 #
coedge $-1 $376 $381 $161 $258 forward $382 $-1 #
edge $-1 $383 -4.5781584702820979 $384 -2.7905645056720658 $257 $385 forward 7 unknown #
loop $-1 $-1 $264 $162 #
plane-surface $-1 1.2622578645567302 9.3524595999604898 76.472755383781816 0.87461971476443456 0 0.48480960649040278 0.48480960649040278 0 -0.87461971476443456 forward_v I I I I #
loop $-1 $-1 $386 $103 #
coedge $-1 $262 $262 $263 $387 reversed $163 $-1 #
coedge $-1 $263 $263 $262 $387 forward $165 $-1 #
coedge $-1 $264 $264 $166 $265 forward $259 $-1 #
edge $-1 $388 0 $388 6.2831853071796004 $264 $389 forward 7 unknown #
loop $-1 $-1 $271 $167 #
plane-surface $-1 1.2622578645567302 9.3524595999604898 76.472755383781816 0.87461971476443456 0 0.48480960649040278 0.48480960649040278 0 -0.87461971476443456 forward_v I I I I #
loop $-1 $-1 $390 $106 #
coedge $-1 $269 $269 $270 $391 reversed $168 $-1 #
coedge $-1 $270 $270 $269 $391 forward $170 $-1 #
coedge $-1 $271 $271 $171 $272 forward $266 $-1 #
edge $-1 $392 0 $392 6.2831853071796004 $271 $393 forward 7 unknown #
loop $-1 $-1 $278 $172 #
plane-surface $-1 1.2622578645567302 9.3524595999604898 76.472755383781816 0.87461971476443456 0 0.48480960649040278 0.48480960649040278 0 -0.87461971476443456 forward_v I I I I #
loop $-1 $-1 $394 $109 #
coedge $-1 $276 $276 $277 $395 reversed $173 $-1 #
coedge $-1 $277 $277 $276 $395 forward $175 $-1 #
coedge $-1 $278 $278 $176 $279 forward $273 $-1 #
edge $-1 $396 0 $396 6.2831853071796004 $278 $397 forward 7 unknown #
face $-1 $398 $399 $42 $-1 $400 reversed single #
loop $-1 $-1 $401 $177 #
plane-surface $-1 -41.547898800622576 0 0 1 0 0 0 0 -1 forward_v I I I I #
coedge $-1 $402 $291 $403 $404 forward $178 $-1 #
coedge $-1 $405 $180 $402 $406 forward $113 $-1 #
coedge $-1 $180 $405 $407 $408 forward $113 $-1 #
coedge $-1 $294 $293 $180 $287 reversed $295 $-1 #
edge $-1 $409 -20.621284615143438 $410 20.621284615143438 $286 $411 forward 7 unknown #
coedge $-1 $182 $181 $412 $413 forward $71 $-1 #
coedge $-1 $414 $415 $181 $290 reversed $399 $-1 #
edge $-1 $297 -41.547898800622576 $416 41.547898800622576 $289 $417 forward 7 unknown #
coedge $-1 $283 $418 $182 $292 reversed $178 $-1 #
edge $-1 $419 -41.547898800622576 $296 41.547898800622576 $291 $420 forward 7 unknown #
coedge $-1 $286 $183 $418 $421 forward $295 $-1 #
coedge $-1 $183 $286 $414 $422 reversed $295 $-1 #
loop $-1 $-1 $293 $398 #
vertex $-1 $184 $423 #
vertex $-1 $184 $424 #
straight-curve $-1 41.547898800622576 0 7.0204375864672111 0 1 0 I I #
face $-1 $425 $426 $43 $-1 $427 reversed single #
loop $-1 $-1 $428 $185 #
plane-surface $-1 0 0 7.0204375864672111 0 0 1 1 0 0 forward_v I I I I #
coedge $-1 $429 $430 $431 $432 reversed $186 $-1 #
coedge $-1 $191 $188 $433 $434 reversed $117 $-1 #
coedge $-1 $188 $191 $435 $436 reversed $117 $-1 #
coedge $-1 $430 $429 $188 $306 reversed $186 $-1 #
edge $-1 $437 -7.0204375864672111 $438 7.0204375864672111 $305 $439 forward 7 unknown #
coedge $-1 $190 $189 $440 $441 reversed $74 $-1 #
coedge $-1 $433 $442 $189 $309 forward $426 $-1 #
edge $-1 $443 -11.819421481716976 $313 -5.7843047851359479 $308 $444 forward 7 unknown #
coedge $-1 $445 $435 $190 $311 forward $300 $-1 #
edge $-1 $312 5.7843047851359479 $446 11.819421481716976 $310 $447 forward 7 unknown #
vertex $-1 $311 $448 #
vertex $-1 $309 $449 #
straight-curve $-1 -39.112527353721262 -14.58616791856241 0 0 0 -1 I I #
face $-1 $-1 $327 $44 $-1 $450 forward single #
loop $-1 $-1 $451 $193 #
plane-surface $-1 -41.547898800622576 0 0 1 0 0 0 0 -1 forward_v I I I I #
coedge $-1 $452 $453 $454 $455 reversed $194 $-1 #
coedge $-1 $456 $196 $198 $325 forward $121 $-1 #
coedge $-1 $196 $456 $452 $457 forward $121 $-1 #
coedge $-1 $454 $199 $196 $322 forward $327 $-1 #
edge $-1 $329 3.9347802689925242 $458 10.061621199729601 $321 $459 forward 7 unknown #
coedge $-1 $460 $461 $197 $324 forward $316 $-1 #
edge $-1 $462 -21.838584198840376 $328 -17.607557546872695 $323 $463 forward 7 unknown #
edge $-1 $329 -5.1035402384981881 $462 0 $198 $464 forward 7 unknown #
coedge $-1 $199 $454 $460 $465 forward $327 $-1 #
loop $-1 $-1 $454 $315 #
vertex $-1 $324 $466 #
vertex $-1 $200 $467 #
straight-curve $-1 -55.218718902201182 10.932981003353587 7.0204375864672102 1 0 0 I I #
coedge $-1 $331 $331 $-1 $468 reversed $203 $-1 #
edge $-1 $469 0 $469 6.2831853071796004 $204 $470 forward 7 unknown #
vertex $-1 $207 $471 #
ellipse-curve $-1 -40.120967089195112 12.158349189501003 4.9049242604833694 -0.82903758062907751 0 0.55919289150049634 0.27959644575024817 0 0.41451879031453875 1 I I #
coedge $-1 $335 $335 $-1 $472 reversed $210 $-1 #
edge $-1 $473 0 $473 6.2831853071796004 $211 $474 forward 7 unknown #
vertex $-1 $214 $475 #
ellipse-curve $-1 -40.120967089195112 13.996401468722127 4.9049242604833694 -0.82903758062907751 0 0.55919289150049634 0.27959644575024817 0 0.41451879031453875 1 I I #
coedge $-1 $339 $339 $-1 $476 reversed $217 $-1 #
edge $-1 $477 0 $477 6.2831853071796004 $218 $478 forward 7 unknown #
vertex $-1 $221 $479 #
ellipse-curve $-1 -40.120967089195112 15.83445374794325 4.9049242604833694 -0.82903758062907751 0 0.55919289150049634 0.27959644575024817 0 0.41451879031453875 1 I I #
face $-1 $-1 $480 $48 $-1 $481 reversed single #
loop $-1 $-1 $228 $222 #
plane-surface $-1 0 0 7.0204375864672111 0 0 1 1 0 0 forward_v I I I I #
coedge $-1 $482 $483 $484 $485 reversed $223 $-1 #
coedge $-1 $486 $225 $227 $353 forward $140 $-1 #
coedge $-1 $225 $486 $482 $487 forward $140 $-1 #
coedge $-1 $484 $228 $225 $350 forward $344 $-1 #
edge $-1 $356 -2.0109043186369977 $488 5.3282472220164596 $349 $489 forward 7 unknown #
coedge $-1 $490 $491 $226 $352 forward $480 $-1 #
edge $-1 $492 -54.58366557226627 $355 -51.358760573456607 $351 $493 forward 7 unknown #
edge $-1 $356 79.408589384496693 $492 83.095797601245209 $227 $494 forward 7 unknown #
coedge $-1 $228 $484 $490 $495 forward $344 $-1 #
vertex $-1 $352 $496 #
vertex $-1 $229 $497 #
straight-curve $-1 36.969740330340478 0.35223286694726674 7.0204375864672102 -1 0 0 I I #
coedge $-1 $358 $358 $-1 $498 reversed $232 $-1 #
edge $-1 $499 0 $499 6.2831853071796004 $233 $500 forward 7 unknown #
vertex $-1 $236 $501 #
ellipse-curve $-1 40.65410181831755 -5.519088365575497 5.4079850870623876 0.87461971476443456 0 0.48480960649040278 0.24240480324520139 0 -0.43730985738221728 1 I I #
coedge $-1 $362 $362 $-1 $502 reversed $239 $-1 #
edge $-1 $503 0 $503 6.2831853071796004 $240 $504 forward 7 unknown #
vertex $-1 $243 $505 #
ellipse-curve $-1 40.65410181831755 -3.3173429033794619 5.4079850870623876 0.87461971476443456 0 0.48480960649040278 0.24240480324520139 0 -0.43730985738221728 1 I I #
coedge $-1 $366 $366 $-1 $506 reversed $246 $-1 #
edge $-1 $507 0 $507 6.2831853071796004 $247 $508 forward 7 unknown #
vertex $-1 $250 $509 #
ellipse-curve $-1 40.65410181831755 -1.1155974411834251 5.4079850870623876 0.87461971476443456 0 0.48480960649040278 0.24240480324520139 0 -0.43730985738221728 1 I I #
face $-1 $-1 $382 $52 $-1 $510 forward single #
loop $-1 $-1 $511 $251 #
plane-surface $-1 41.547898800622576 0 0 -1 0 0 0 0 1 forward_v I I I I #
coedge $-1 $512 $513 $514 $515 reversed $252 $-1 #
coedge $-1 $516 $254 $256 $380 forward $159 $-1 #
coedge $-1 $254 $516 $512 $517 forward $159 $-1 #
coedge $-1 $514 $257 $254 $377 forward $382 $-1 #
edge $-1 $384 -8.3458055703069736 $518 -1.0066540296535162 $376 $519 forward 7 unknown #
coedge $-1 $520 $521 $255 $379 forward $371 $-1 #
edge $-1 $522 -54.58366557226627 $383 -51.358760573456607 $378 $523 forward 7 unknown #
edge $-1 $384 79.408589384496693 $522 83.095797601245209 $256 $524 forward 7 unknown #
coedge $-1 $257 $514 $520 $525 forward $382 $-1 #
loop $-1 $-1 $514 $370 #
vertex $-1 $379 $526 #
vertex $-1 $258 $527 #
straight-curve $-1 36.969740330340478 13.022035370287218 7.0204375864672102 -1 0 0 I I #
coedge $-1 $386 $386 $-1 $528 reversed $261 $-1 #
edge $-1 $529 0 $529 6.2831853071796004 $262 $530 forward 7 unknown #
vertex $-1 $265 $531 #
ellipse-curve $-1 40.65410181831755 7.150714137764453 5.4079850870623876 0.87461971476443456 0 0.48480960649040278 0.24240480324520139 0 -0.43730985738221728 1 I I #
coedge $-1 $390 $390 $-1 $532 reversed $268 $-1 #
edge $-1 $533 0 $533 6.2831853071796004 $269 $534 forward 7 unknown #
vertex $-1 $272 $535 #
ellipse-curve $-1 40.65410181831755 9.3524595999604898 5.4079850870623876 0.87461971476443456 0 0.48480960649040278 0.24240480324520139 0 -0.43730985738221728 1 I I #
coedge $-1 $394 $394 $-1 $536 reversed $275 $-1 #
edge $-1 $537 0 $537 6.2831853071796004 $276 $538 forward 7 unknown #
vertex $-1 $279 $539 #
ellipse-curve $-1 40.65410181831755 11.554205062156527 5.4079850870623876 0.87461971476443456 0 0.48480960649040278 0.24240480324520139 0 -0.43730985738221728 1 I I #
face $-1 $-1 $295 $42 $-1 $540 reversed single #
loop $-1 $-1 $414 $280 #
plane-surface $-1 0 20.621284615143438 0 0 -1 0 0 0 -1 forward_v I I I I #
coedge $-1 $541 $412 $415 $542 forward $281 $-1 #
coedge $-1 $418 $283 $284 $406 reversed $178 $-1 #
coedge $-1 $412 $541 $283 $404 reversed $281 $-1 #
edge $-1 $419 -7.0204375864672111 $543 7.0204375864672111 $403 $544 forward 7 unknown #
coedge $-1 $285 $284 $541 $545 forward $113 $-1 #
edge $-1 $410 -41.547898800622576 $543 41.547898800622576 $402 $546 forward 7 unknown #
coedge $-1 $415 $414 $285 $408 reversed $399 $-1 #
edge $-1 $547 -41.547898800622576 $409 41.547898800622576 $407 $548 forward 7 unknown #
vertex $-1 $287 $549 #
vertex $-1 $421 $550 #
straight-curve $-1 41.547898800622576 0 -7.0204375864672111 0 -1 0 I I #
coedge $-1 $401 $403 $288 $413 reversed $281 $-1 #
edge $-1 $416 -20.621284615143438 $419 20.621284615143438 $412 $551 forward 7 unknown #
coedge $-1 $407 $289 $294 $422 forward $399 $-1 #
coedge $-1 $289 $407 $401 $542 reversed $399 $-1 #
vertex $-1 $290 $552 #
straight-curve $-1 0 20.621284615143438 7.0204375864672111 -1 0 0 I I #
coedge $-1 $291 $402 $293 $421 reversed $178 $-1 #
vertex $-1 $413 $553 #
straight-curve $-1 0 -20.621284615143438 7.0204375864672111 1 0 0 I I #
edge $-1 $296 -7.0204375864672111 $410 7.0204375864672111 $293 $554 forward 7 unknown #
edge $-1 $297 -7.0204375864672111 $409 7.0204375864672111 $294 $555 forward 7 unknown #
point $-1 41.547898800622576 -20.621284615143438 7.0204375864672111 #
point $-1 41.547898800622576 20.621284615143438 7.0204375864672111 #
face $-1 $-1 $556 $43 $-1 $557 reversed single #
loop $-1 $-1 $558 $299 #
plane-surface $-1 0 0 -7.0204375864672111 0 0 1 1 0 0 forward_v I I I I #
coedge $-1 $435 $445 $430 $559 forward $300 $-1 #
coedge $-1 $305 $302 $558 $560 reversed $186 $-1 #
coedge $-1 $302 $305 $428 $559 reversed $186 $-1 #
coedge $-1 $561 $562 $302 $432 forward $556 $-1 #
edge $-1 $563 -7.0204375864672111 $564 7.0204375864672111 $431 $565 forward 7 unknown #
coedge $-1 $558 $308 $303 $434 forward $426 $-1 #
edge $-1 $313 -20.381428089185242 $438 -17.080770439886798 $433 $566 forward 7 unknown #
coedge $-1 $310 $428 $304 $436 forward $300 $-1 #
edge $-1 $437 17.080770439886798 $312 20.381428089185242 $435 $567 forward 7 unknown #
vertex $-1 $436 $568 #
vertex $-1 $434 $569 #
straight-curve $-1 -35.811869704422818 -14.58616791856241 0 0 0 -1 I I #
coedge $-1 $562 $561 $307 $441 forward $556 $-1 #
edge $-1 $446 -7.0204375864672111 $443 7.0204375864672111 $440 $570 forward 7 unknown #
coedge $-1 $308 $558 $562 $571 forward $426 $-1 #
vertex $-1 $309 $572 #
straight-curve $-1 -39.112527353721262 -8.8018631334264619 -7.0204375864672111 0 1 0 I I #
coedge $-1 $428 $310 $561 $573 forward $300 $-1 #
vertex $-1 $573 $574 #
straight-curve $-1 -39.112527353721262 -8.8018631334264619 7.0204375864672111 0 -1 0 I I #
point $-1 -39.112527353721262 -14.58616791856241 7.0204375864672111 #
point $-1 -39.112527353721262 -14.58616791856241 -7.0204375864672111 #
plane-surface $-1 0 0 7.0204375864672111 0 0 1 1 0 0 forward_v I I I I #
coedge $-1 $461 $460 $453 $575 forward $316 $-1 #
coedge $-1 $453 $318 $320 $457 reversed $194 $-1 #
coedge $-1 $318 $452 $451 $575 reversed $194 $-1 #
coedge $-1 $326 $321 $318 $455 forward $327 $-1 #
edge $-1 $458 -16.524683524433541 $576 -13.670820101578606 $454 $577 forward 7 unknown #
coedge $-1 $320 $319 $461 $578 reversed $121 $-1 #
edge $-1 $579 0 $458 5.1035402384981881 $452 $580 forward 7 unknown #
vertex $-1 $322 $581 #
straight-curve $-1 -38.694035377767641 6.9982007343610633 7.0204375864672111 0 1 0 I I #
coedge $-1 $451 $323 $326 $465 reversed $316 $-1 #
coedge $-1 $323 $451 $456 $578 forward $316 $-1 #
vertex $-1 $324 $582 #
straight-curve $-1 -41.547898800622576 10.932981003353587 24.627995133339905 0 0 1 I I #
straight-curve $-1 -41.547898800622576 10.932981003353587 2.7894109344995286 -0.55919289150049634 0 -0.82903758062907751 I I #
edge $-1 $576 -17.059821934090664 $328 -10.932981003353587 $460 $583 forward 7 unknown #
point $-1 -41.547898800622576 10.932981003353587 7.0204375864672111 #
point $-1 -38.694035377767641 10.932981003353587 7.0204375864672111 #
edge $-1 $584 1 $584 0 $331 $-1 forward 7 unknown #
vertex $-1 $332 $585 #
ellipse-curve $-1 -38.861268685827362 12.158349189501003 4.0552469852225084 -0.82903758062907751 0 0.55919289150049634 0.27959644575024817 0 0.41451879031453875 1 I I #
point $-1 -39.841370643444854 12.158349189501003 5.3194430507979025 #
edge $-1 $586 1 $586 0 $335 $-1 forward 7 unknown #
vertex $-1 $336 $587 #
ellipse-curve $-1 -38.861268685827362 13.996401468722127 4.0552469852225084 -0.82903758062907751 0 0.55919289150049634 0.27959644575024817 0 0.41451879031453875 1 I I #
point $-1 -39.841370643444854 13.996401468722127 5.3194430507979025 #
edge $-1 $588 1 $588 0 $339 $-1 forward 7 unknown #
vertex $-1 $340 $589 #
ellipse-curve $-1 -38.861268685827362 15.83445374794325 4.0552469852225084 -0.82903758062907751 0 0.55919289150049634 0.27959644575024817 0 0.41451879031453875 1 I I #
point $-1 -39.841370643444854 15.83445374794325 5.3194430507979025 #
loop $-1 $-1 $351 $343 #
plane-surface $-1 41.547898800622576 0 0 -1 0 0 0 0 1 forward_v I I I I #
coedge $-1 $483 $346 $348 $487 reversed $223 $-1 #
coedge $-1 $346 $482 $590 $591 reversed $223 $-1 #
coedge $-1 $354 $349 $346 $485 forward $344 $-1 #
edge $-1 $488 2.7905645056720658 $592 4.5781584702820979 $484 $593 forward 7 unknown #
coedge $-1 $348 $347 $491 $594 reversed $140 $-1 #
edge $-1 $595 -83.095797601245209 $488 -79.408589384496693 $482 $596 forward 7 unknown #
vertex $-1 $350 $597 #
straight-curve $-1 39.760304836012551 -1.658671451689731 7.0204375864672173 0 -1 0 I I #
coedge $-1 $590 $351 $354 $495 reversed $480 $-1 #
coedge $-1 $351 $590 $486 $594 forward $480 $-1 #
vertex $-1 $352 $598 #
straight-curve $-1 41.547898800622576 0.35223286694726674 58.379198159923817 0 0 1 I I #
straight-curve $-1 1.2622578645567302 0.35223286694726674 76.472755383781816 0.48480960649040278 0 -0.87461971476443456 I I #
edge $-1 $592 -6.9869186737061906 $355 0.35223286694726674 $490 $599 forward 7 unknown #
point $-1 41.547898800622576 0.35223286694726674 7.0204375864672111 #
point $-1 39.760304836012544 0.35223286694726674 7.0204375864672102 #
edge $-1 $600 1 $600 0 $358 $-1 forward 7 unknown #
vertex $-1 $359 $601 #
ellipse-curve $-1 38.964118828706219 -5.519088365575497 4.4712122538664003 0.87461971476443456 0 0.48480960649040278 0.24240480324520139 0 -0.43730985738221728 1 I I #
point $-1 40.896506621562779 -5.519088365575497 4.9706752296801842 #
edge $-1 $602 1 $602 0 $362 $-1 forward 7 unknown #
vertex $-1 $363 $603 #
ellipse-curve $-1 38.964118828706219 -3.3173429033794619 4.4712122538664003 0.87461971476443456 0 0.48480960649040278 0.24240480324520139 0 -0.43730985738221728 1 I I #
point $-1 40.896506621562779 -3.3173429033794619 4.9706752296801842 #
edge $-1 $604 1 $604 0 $366 $-1 forward 7 unknown #
vertex $-1 $367 $605 #
ellipse-curve $-1 38.964118828706219 -1.1155974411834251 4.4712122538664003 0.87461971476443456 0 0.48480960649040278 0.24240480324520139 0 -0.43730985738221728 1 I I #
point $-1 40.896506621562779 -1.1155974411834251 4.9706752296801842 #
plane-surface $-1 0 0 7.0204375864672111 0 0 1 1 0 0 forward_v I I I I #
coedge $-1 $521 $520 $513 $606 forward $371 $-1 #
coedge $-1 $513 $373 $375 $517 reversed $252 $-1 #
coedge $-1 $373 $512 $511 $606 reversed $252 $-1 #
coedge $-1 $381 $376 $373 $515 forward $382 $-1 #
edge $-1 $518 2.7905645056720658 $607 4.5781584702820979 $514 $608 forward 7 unknown #
coedge $-1 $375 $374 $521 $609 reversed $159 $-1 #
edge $-1 $610 -83.095797601245209 $518 -79.408589384496693 $512 $611 forward 7 unknown #
vertex $-1 $377 $612 #
straight-curve $-1 39.760304836012551 4.6762297999802449 7.0204375864672173 0 -1 0 I I #
coedge $-1 $511 $378 $381 $525 reversed $371 $-1 #
coedge $-1 $378 $511 $516 $609 forward $371 $-1 #
vertex $-1 $379 $613 #
straight-curve $-1 41.547898800622576 13.022035370287218 58.379198159923817 0 0 1 I I #
straight-curve $-1 1.2622578645567302 13.022035370287218 76.472755383781816 0.48480960649040278 0 -0.87461971476443456 I I #
edge $-1 $607 5.6828838296337612 $383 13.022035370287218 $520 $614 forward 7 unknown #
point $-1 41.547898800622576 13.022035370287218 7.0204375864672111 #
point $-1 39.760304836012544 13.022035370287218 7.0204375864672102 #
edge $-1 $615 1 $615 0 $386 $-1 forward 7 unknown #
vertex $-1 $387 $616 #
ellipse-curve $-1 38.964118828706219 7.150714137764453 4.4712122538664003 0.87461971476443456 0 0.48480960649040278 0.24240480324520139 0 -0.43730985738221728 1 I I #
point $-1 40.896506621562779 7.150714137764453 4.9706752296801842 #
edge $-1 $617 1 $617 0 $390 $-1 forward 7 unknown #
vertex $-1 $391 $618 #
ellipse-curve $-1 38.964118828706219 9.3524595999604898 4.4712122538664003 0.87461971476443456 0 0.48480960649040278 0.24240480324520139 0 -0.43730985738221728 1 I I #
point $-1 40.896506621562779 9.3524595999604898 4.9706752296801842 #
edge $-1 $619 1 $619 0 $394 $-1 forward 7 unknown #
vertex $-1 $395 $620 #
ellipse-curve $-1 38.964118828706219 11.554205062156527 4.4712122538664003 0.87461971476443456 0 0.48480960649040278 0.24240480324520139 0 -0.43730985738221728 1 I I #
point $-1 40.896506621562779 11.554205062156527 4.9706752296801842 #
plane-surface $-1 41.547898800622576 0 0 -1 0 0 0 0 1 forward_v I I I I #
coedge $-1 $403 $401 $405 $545 reversed $281 $-1 #
edge $-1 $416 -7.0204375864672111 $547 7.0204375864672111 $415 $621 forward 7 unknown #
vertex $-1 $545 $622 #
straight-curve $-1 -41.547898800622576 -20.621284615143438 0 0 0 -1 I I #
edge $-1 $543 -20.621284615143438 $547 20.621284615143438 $541 $623 forward 7 unknown #
straight-curve $-1 0 -20.621284615143438 -7.0204375864672111 -1 0 0 I I #
vertex $-1 $408 $624 #
straight-curve $-1 0 20.621284615143438 -7.0204375864672111 1 0 0 I I #
point $-1 41.547898800622576 20.621284615143438 -7.0204375864672111 #
point $-1 41.547898800622576 -20.621284615143438 -7.0204375864672111 #
straight-curve $-1 -41.547898800622576 0 7.0204375864672111 0 -1 0 I I #
point $-1 -41.547898800622576 20.621284615143438 7.0204375864672111 #
point $-1 -41.547898800622576 -20.621284615143438 7.0204375864672111 #
straight-curve $-1 41.547898800622576 -20.621284615143438 0 0 0 -1 I I #
straight-curve $-1 41.547898800622576 20.621284615143438 0 0 0 -1 I I #
loop $-1 $-1 $431 $425 #
plane-surface $-1 0 -20.621284615143438 0 0 1 0 0 0 1 forward_v I I I I #
coedge $-1 $442 $433 $429 $560 forward $426 $-1 #
edge $-1 $564 -11.819421481716976 $437 -5.7843047851359479 $428 $625 forward 7 unknown #
edge $-1 $438 5.7843047851359479 $563 11.819421481716976 $558 $626 forward 7 unknown #
coedge $-1 $440 $431 $445 $573 reversed $556 $-1 #
coedge $-1 $431 $440 $442 $571 reversed $556 $-1 #
vertex $-1 $571 $627 #
vertex $-1 $432 $628 #
straight-curve $-1 -35.811869704422818 -20.621284615143438 0 0 0 1 I I #
straight-curve $-1 -18.73109926453602 -14.58616791856241 -7.0204375864672111 1 0 0 I I #
straight-curve $-1 -18.73109926453602 -14.58616791856241 7.0204375864672111 -1 0 0 I I #
point $-1 -35.811869704422818 -14.58616791856241 7.0204375864672111 #
point $-1 -35.811869704422818 -14.58616791856241 -7.0204375864672111 #
straight-curve $-1 -39.112527353721262 -20.621284615143438 0 0 0 -1 I I #
edge $-1 $563 35.811869704422818 $443 39.112527353721262 $562 $629 forward 7 unknown #
point $-1 -39.112527353721262 -20.621284615143438 -7.0204375864672111 #
edge $-1 $446 -39.112527353721262 $564 -35.811869704422818 $561 $630 forward 7 unknown #
point $-1 -39.112527353721262 -20.621284615143438 7.0204375864672111 #
edge $-1 $576 17.607557546872695 $579 21.838584198840376 $451 $631 forward 7 unknown #
vertex $-1 $465 $632 #
straight-curve $-1 -55.218718902201182 17.059821934090664 7.0204375864672102 -1 0 0 I I #
edge $-1 $579 -10.061621199729601 $462 -3.9347802689925242 $461 $633 forward 7 unknown #
vertex $-1 $578 $634 #
straight-curve $-1 -41.547898800622576 17.059821934090664 2.7894109344995286 0.55919289150049634 0 0.82903758062907751 I I #
point $-1 -38.694035377767641 17.059821934090664 7.0204375864672111 #
point $-1 -41.547898800622576 10.932981003353587 2.7894109344995286 #
straight-curve $-1 -41.547898800622576 0 7.0204375864672111 0 -1 0 I I #
vertex $-1 $468 $635 #
point $-1 -38.581672240077111 12.158349189501003 4.4697657755370468 #
vertex $-1 $472 $636 #
point $-1 -38.581672240077111 13.996401468722127 4.4697657755370468 #
vertex $-1 $476 $637 #
point $-1 -38.581672240077111 15.83445374794325 4.4697657755370468 #
coedge $-1 $491 $490 $483 $591 forward $480 $-1 #
edge $-1 $592 51.358760573456607 $595 54.58366557226627 $590 $638 forward 7 unknown #
vertex $-1 $495 $639 #
straight-curve $-1 36.969740330340478 -6.9869186737061906 7.0204375864672102 1 0 0 I I #
edge $-1 $595 -5.3282472220164596 $492 2.0109043186369977 $491 $640 forward 7 unknown #
vertex $-1 $594 $641 #
straight-curve $-1 1.2622578645567302 -6.9869186737061906 76.472755383781816 -0.48480960649040278 0 0.87461971476443456 I I #
point $-1 39.760304836012544 -6.9869186737061906 7.0204375864672102 #
point $-1 41.547898800622576 0.35223286694726674 3.7955325876575472 #
straight-curve $-1 41.547898800622576 0 7.0204375864672111 0 1 0 I I #
vertex $-1 $498 $642 #
point $-1 39.20652363195142 -5.519088365575497 4.0339023964841836 #
vertex $-1 $502 $643 #
point $-1 39.20652363195142 -3.3173429033794619 4.0339023964841836 #
vertex $-1 $506 $644 #
point $-1 39.20652363195142 -1.1155974411834251 4.0339023964841836 #
edge $-1 $607 51.358760573456607 $610 54.58366557226627 $511 $645 forward 7 unknown #
vertex $-1 $525 $646 #
straight-curve $-1 36.969740330340478 5.6828838296337612 7.0204375864672102 1 0 0 I I #
edge $-1 $610 1.0066540296535162 $522 8.3458055703069736 $521 $647 forward 7 unknown #
vertex $-1 $609 $648 #
straight-curve $-1 1.2622578645567302 5.6828838296337612 76.472755383781816 -0.48480960649040278 0 0.87461971476443456 I I #
point $-1 39.760304836012544 5.6828838296337612 7.0204375864672102 #
point $-1 41.547898800622576 13.022035370287218 3.7955325876575472 #
straight-curve $-1 41.547898800622576 0 7.0204375864672111 0 1 0 I I #
vertex $-1 $528 $649 #
point $-1 39.20652363195142 7.150714137764453 4.0339023964841836 #
vertex $-1 $532 $650 #
point $-1 39.20652363195142 9.3524595999604898 4.0339023964841836 #
vertex $-1 $536 $651 #
point $-1 39.20652363195142 11.554205062156527 4.0339023964841836 #
straight-curve $-1 -41.547898800622576 20.621284615143438 0 0 0 -1 I I #
point $-1 -41.547898800622576 -20.621284615143438 -7.0204375864672111 #
straight-curve $-1 -41.547898800622576 0 -7.0204375864672111 0 1 0 I I #
point $-1 -41.547898800622576 20.621284615143438 -7.0204375864672111 #
straight-curve $-1 -35.811869704422818 -8.8018631334264619 7.0204375864672111 0 1 0 I I #
straight-curve $-1 -35.811869704422818 -8.8018631334264619 -7.0204375864672111 0 -1 0 I I #
point $-1 -35.811869704422818 -20.621284615143438 -7.0204375864672111 #
point $-1 -35.811869704422818 -20.621284615143438 7.0204375864672111 #
straight-curve $-1 0 -20.621284615143438 -7.0204375864672111 -1 0 0 I I #
straight-curve $-1 0 -20.621284615143438 7.0204375864672111 1 0 0 I I #
straight-curve $-1 -41.547898800622576 17.059821934090664 24.627995133339905 0 0 -1 I I #
point $-1 -41.547898800622576 17.059821934090664 7.0204375864672111 #
straight-curve $-1 -41.547898800622576 6.9982007343610633 2.789410934499525 0 -1 0 I I #
point $-1 -41.547898800622576 17.059821934090664 2.7894109344995286 #
point $-1 -38.446749895512816 12.158349189501003 3.7756505394722599 #
point $-1 -38.446749895512816 13.996401468722127 3.7756505394722599 #
point $-1 -38.446749895512816 15.83445374794325 3.7756505394722599 #
straight-curve $-1 41.547898800622576 -6.9869186737061906 58.379198159923817 0 0 -1 I I #
point $-1 41.547898800622576 -6.9869186737061906 7.0204375864672111 #
straight-curve $-1 41.547898800622576 -1.658671451689731 3.7955325876575472 0 1 0 I I #
point $-1 41.547898800622576 -6.9869186737061906 3.7955325876575472 #
point $-1 38.526808971324002 -5.519088365575497 4.2288074506211997 #
point $-1 38.526808971324002 -3.3173429033794619 4.2288074506211997 #
point $-1 38.526808971324002 -1.1155974411834251 4.2288074506211997 #
straight-curve $-1 41.547898800622576 5.6828838296337612 58.379198159923817 0 0 -1 I I #
point $-1 41.547898800622576 5.6828838296337612 7.0204375864672111 #
straight-curve $-1 41.547898800622576 4.6762297999802449 3.7955325876575472 0 1 0 I I #
point $-1 41.547898800622576 5.6828838296337612 3.7955325876575472 #
point $-1 38.526808971324002 7.150714137764453 4.2288074506211997 #
point $-1 38.526808971324002 9.3524595999604898 4.2288074506211997 #
point $-1 38.526808971324002 11.554205062156527 4.2288074506211997 #
End-of-ACIS-data 