500 0 9 0           
7 Unknown 11 ACIS 5.0 NT 24 Fri Mar 26 01:21:57 1999 
-1 9.9999999999999995e-007 1e-010 
body $-1 $9 $-1 $10 #
body $-1 $11 $-1 $12 #
body $-1 $13 $-1 $14 #
body $-1 $15 $-1 $16 #
body $-1 $17 $-1 $18 #
body $-1 $19 $-1 $20 #
body $-1 $21 $-1 $22 #
body $-1 $23 $-1 $24 #
body $-1 $25 $-1 $26 #
lump $-1 $-1 $27 $0 #
transform $-1 1 0 0 0 1 0 0 0 1 71.322977385784469 37.861232366285392 9.9727320300965179 1 rotate no_reflect no_shear #
lump $-1 $-1 $28 $1 #
transform $-1 1 0 0 0 1 0 0 0 1 71.322977385784469 37.861232366285392 9.9727320300965179 1 rotate no_reflect no_shear #
lump $-1 $-1 $29 $2 #
transform $-1 1 0 0 0 1 0 0 0 1 71.322977385784469 37.861232366285392 9.9727320300965179 1 rotate no_reflect no_shear #
lump $-1 $-1 $30 $3 #
transform $-1 1 0 0 0 1 0 0 0 1 71.322977385784469 37.861232366285392 9.9727320300965179 1 rotate no_reflect no_shear #
lump $-1 $-1 $31 $4 #
transform $-1 1 0 0 0 1 0 0 0 1 71.322977385784469 37.861232366285392 9.9727320300965179 1 rotate no_reflect no_shear #
lump $-1 $-1 $32 $5 #
transform $-1 1 0 0 0 1 0 0 0 1 71.322977385784469 37.861232366285392 9.9727320300965179 1 rotate no_reflect no_shear #
lump $-1 $-1 $33 $6 #
transform $-1 1 0 0 0 1 0 0 0 1 71.322977385784469 37.861232366285392 9.9727320300965179 1 rotate no_reflect no_shear #
lump $-1 $-1 $34 $7 #
transform $-1 1 0 0 0 1 0 0 0 1 71.322977385784469 37.861232366285392 9.9727320300965179 1 rotate no_reflect no_shear #
lump $-1 $-1 $35 $8 #
transform $-1 1 0 0 0 1 0 0 0 1 71.322977385784469 37.861232366285392 9.9727320300965179 1 rotate no_reflect no_shear #
shell $-1 $-1 $-1 $36 $-1 $9 #
shell $-1 $-1 $-1 $37 $-1 $11 #
shell $-1 $-1 $-1 $38 $-1 $13 #
shell $-1 $-1 $-1 $39 $-1 $15 #
shell $-1 $-1 $-1 $40 $-1 $17 #
shell $-1 $-1 $-1 $41 $-1 $19 #
shell $-1 $-1 $-1 $42 $-1 $21 #
shell $-1 $-1 $-1 $43 $-1 $23 #
shell $-1 $-1 $-1 $44 $-1 $25 #
face $-1 $45 $46 $27 $-1 $47 forward single #
face $-1 $48 $49 $28 $-1 $50 forward single #
face $-1 $51 $52 $29 $-1 $53 reversed single #
face $-1 $54 $55 $30 $-1 $56 forward single #
face $-1 $57 $58 $31 $-1 $59 reversed single #
face $-1 $60 $61 $32 $-1 $62 forward single #
face $-1 $63 $64 $33 $-1 $65 reversed single #
face $-1 $66 $67 $34 $-1 $68 forward single #
face $-1 $69 $70 $35 $-1 $71 forward single #
face $-1 $72 $73 $27 $-1 $74 reversed single #
loop $-1 $-1 $75 $36 #
plane-surface $-1 0 0 9.9727320300965179 0 0 1 1 0 0 forward_v I I I I #
face $-1 $76 $77 $28 $-1 $78 reversed single #
loop $-1 $-1 $79 $37 #
plane-surface $-1 0 -33.743638709176224 5.9570599079187492 0 0 1 1 0 0 forward_v I I I I #
face $-1 $80 $81 $29 $-1 $82 reversed single #
loop $-1 $-1 $83 $38 #
plane-surface $-1 78.363319648354633 -19.849437539634856 207.59005038115831 0 1 0 0.73135370988377701 0 0.68199835119979291 forward_v I I I I #
face $-1 $84 $85 $30 $-1 $86 forward single #
loop $-1 $87 $88 $39 #
cone-surface $-1 68.141863817812052 -14.264596039112853 6.7460098058799138 -0.73135370988377701 0 -0.68199835119979291 0.68199835119979291 0 -0.73135370988377701 1 I I 0 1 1 forward I I I I #
face $-1 $89 $90 $31 $-1 $91 reversed single #
loop $-1 $-1 $92 $40 #
plane-surface $-1 78.363319648354633 16.914941852809186 207.59005038115831 0 1 0 0.73135370988377701 0 0.68199835119979291 forward_v I I I I #
face $-1 $93 $94 $32 $-1 $95 forward single #
loop $-1 $96 $97 $41 #
cone-surface $-1 68.141863817812052 22.499783353331189 6.7460098058799138 -0.73135370988377701 0 -0.68199835119979291 0.68199835119979291 0 -0.73135370988377701 1 I I 0 1 1 forward I I I I #
face $-1 $98 $99 $33 $-1 $100 reversed single #
loop $-1 $-1 $101 $42 #
plane-surface $-1 -168.6072857661789 -3.834766604466509 110.28190885661984 0 1 0 -0.68199836817093118 0 0.7313536940579346 forward_v I I I I #
face $-1 $102 $103 $34 $-1 $104 forward single #
loop $-1 $105 $106 $43 #
cone-surface $-1 -68.8289465196805 -0.32983810034041738 7.5993206140252116 0.68199836817093118 0 -0.7313536940579346 0.3656768470289673 0 0.34099918408546559 1 I I 0 1 0.5 forward I I I I #
face $-1 $107 $108 $35 $-1 $109 forward single #
loop $-1 $110 $111 $44 #
cone-surface $-1 -68.8289465196805 4.9275546558487235 7.5993206140252116 0.68199836817093118 0 -0.7313536940579346 0.3656768470289673 0 0.34099918408546559 1 I I 0 1 0.5 forward I I I I #
face $-1 $112 $113 $27 $-1 $114 reversed single #
loop $-1 $-1 $115 $45 #
plane-surface $-1 0 0 -9.9727320300965179 0 0 1 1 0 0 forward_v I I I I #
coedge $-1 $116 $117 $118 $119 forward $46 $-1 #
face $-1 $120 $121 $28 $-1 $122 reversed single #
loop $-1 $-1 $123 $48 #
plane-surface $-1 0 -33.743638709176224 2.9570599079187492 0 0 1 1 0 0 forward_v I I I I #
coedge $-1 $124 $125 $126 $127 reversed $49 $-1 #
face $-1 $128 $129 $29 $-1 $130 reversed single #
loop $-1 $-1 $131 $51 #
plane-surface $-1 -25.961328573745774 -14.264596039112853 110.30574442162806 0.73135370988377701 0 0.68199835119979291 0.68199835119979291 0 -0.73135370988377701 forward_v I I I I #
coedge $-1 $132 $133 $134 $135 reversed $52 $-1 #
face $-1 $-1 $136 $30 $-1 $137 forward single #
loop $-1 $138 $139 $54 #
cone-surface $-1 66.456203664866933 -14.264596039112853 5.1741063213478551 -0.73135370988377701 0 -0.68199835119979291 0.34099917559989645 0 -0.36567685494188851 1 I I -0.70710678118654746 0.70710678118654746 0.5 forward I I I I #
loop $-1 $-1 $140 $39 #
coedge $-1 $88 $88 $141 $142 reversed $55 $-1 #
face $-1 $143 $144 $31 $-1 $145 reversed single #
loop $-1 $-1 $146 $57 #
plane-surface $-1 -25.961328573745774 22.499783353331189 110.30574442162806 0.73135370988377701 0 0.68199835119979291 0.68199835119979291 0 -0.73135370988377701 forward_v I I I I #
coedge $-1 $147 $148 $149 $150 reversed $58 $-1 #
face $-1 $-1 $151 $32 $-1 $152 forward single #
loop $-1 $153 $154 $60 #
cone-surface $-1 66.456203664866933 22.499783353331189 5.1741063213478551 -0.73135370988377701 0 -0.68199835119979291 0.34099917559989645 0 -0.36567685494188851 1 I I -0.70710678118654746 0.70710678118654746 0.5 forward I I I I #
loop $-1 $-1 $155 $41 #
coedge $-1 $97 $97 $156 $157 reversed $61 $-1 #
face $-1 $158 $159 $33 $-1 $160 reversed single #
loop $-1 $-1 $161 $63 #
plane-surface $-1 -71.322977385784441 2.2988582777541566 5.9572628920118262 -0.68199836817093118 0 0.7313536940579346 0.7313536940579346 0 0.68199836817093118 forward_v I I I I #
coedge $-1 $162 $163 $164 $165 reversed $64 $-1 #
face $-1 $-1 $166 $34 $-1 $167 forward single #
loop $-1 $168 $169 $66 #
cone-surface $-1 -68.317447743552307 -0.32983810034041738 7.0508053434817608 0.68199836817093118 0 -0.7313536940579346 0.18283842351448365 0 0.17049959204273279 1 I I -0.70710678118654746 0.70710678118654746 0.25 forward I I I I #
loop $-1 $-1 $170 $43 #
coedge $-1 $106 $106 $171 $172 reversed $67 $-1 #
face $-1 $-1 $173 $35 $-1 $174 forward single #
loop $-1 $175 $176 $69 #
cone-surface $-1 -68.317447743552307 4.9275546558487235 7.0508053434817608 0.68199836817093118 0 -0.7313536940579346 0.18283842351448365 0 0.17049959204273279 1 I I -0.70710678118654746 0.70710678118654746 0.25 forward I I I I #
loop $-1 $-1 $177 $44 #
coedge $-1 $111 $111 $178 $179 reversed $70 $-1 #
face $-1 $180 $181 $27 $-1 $182 reversed single #
loop $-1 $-1 $183 $72 #
plane-surface $-1 0 -37.861232366285392 0 0 1 0 0 0 1 forward_v I I I I #
coedge $-1 $184 $185 $186 $187 forward $73 $-1 #
coedge $-1 $188 $75 $189 $190 forward $46 $-1 #
coedge $-1 $75 $188 $191 $192 forward $46 $-1 #
coedge $-1 $193 $194 $75 $119 reversed $195 $-1 #
edge $-1 $196 -37.861232366285392 $197 37.861232366285392 $118 $198 forward 7 unknown #
face $-1 $199 $200 $28 $-1 $201 reversed single #
loop $-1 $-1 $202 $76 #
plane-surface $-1 0 -29.626045052067056 4.4570599079187492 0 -1 0 0 0 -1 forward_v I I I I #
coedge $-1 $203 $204 $205 $206 reversed $77 $-1 #
coedge $-1 $207 $79 $208 $209 forward $49 $-1 #
coedge $-1 $79 $207 $210 $211 reversed $49 $-1 #
coedge $-1 $212 $213 $79 $127 forward $214 $-1 #
edge $-1 $215 12.754225697478944 $216 20.98941301169728 $126 $217 forward 7 unknown #
face $-1 $218 $219 $29 $-1 $220 forward single #
loop $-1 $-1 $221 $80 #
plane-surface $-1 78.363319648354633 -8.6797545385908492 207.59005038115831 0 -1 0 -0.73135370988377701 0 -0.68199835119979291 forward_v I I I I #
coedge $-1 $222 $223 $224 $225 reversed $81 $-1 #
coedge $-1 $133 $83 $226 $227 reversed $52 $-1 #
coedge $-1 $83 $132 $222 $228 reversed $52 $-1 #
coedge $-1 $224 $229 $83 $135 forward $230 $-1 #
edge $-1 $231 93.82229316048263 $232 97.813928991051498 $134 $233 forward 7 unknown #
loop $-1 $-1 $141 $84 #
plane-surface $-1 -25.961328573745774 -14.264596039112853 110.30574442162806 0.73135370988377701 0 0.68199835119979291 0.68199835119979291 0 -0.73135370988377701 forward_v I I I I #
loop $-1 $-1 $234 $54 #
coedge $-1 $139 $139 $140 $235 reversed $85 $-1 #
coedge $-1 $140 $140 $139 $235 forward $87 $-1 #
coedge $-1 $141 $141 $88 $142 forward $136 $-1 #
edge $-1 $236 0 $236 6.2831853071796004 $141 $237 forward 7 unknown #
face $-1 $238 $239 $31 $-1 $240 reversed single #
loop $-1 $-1 $241 $89 #
plane-surface $-1 78.363319648354633 28.084624853853192 207.59005038115831 0 -1 0 -0.73135370988377701 0 -0.68199835119979291 forward_v I I I I #
coedge $-1 $242 $243 $244 $245 reversed $90 $-1 #
coedge $-1 $148 $92 $246 $247 reversed $58 $-1 #
coedge $-1 $92 $147 $242 $248 reversed $58 $-1 #
coedge $-1 $244 $249 $92 $150 forward $239 $-1 #
edge $-1 $250 93.82229316048263 $251 97.813928991051498 $149 $252 forward 7 unknown #
loop $-1 $-1 $156 $93 #
plane-surface $-1 -25.961328573745774 22.499783353331189 110.30574442162806 0.73135370988377701 0 0.68199835119979291 0.68199835119979291 0 -0.73135370988377701 forward_v I I I I #
loop $-1 $-1 $253 $60 #
coedge $-1 $154 $154 $155 $254 reversed $94 $-1 #
coedge $-1 $155 $155 $154 $254 forward $96 $-1 #
coedge $-1 $156 $156 $97 $157 forward $151 $-1 #
edge $-1 $255 0 $255 6.2831853071796004 $156 $256 forward 7 unknown #
face $-1 $257 $258 $33 $-1 $259 reversed single #
loop $-1 $-1 $260 $98 #
plane-surface $-1 -168.6072857661789 8.4324831599748222 110.28190885661984 0 -1 0 0.68199836817093118 0 -0.7313536940579346 forward_v I I I I #
coedge $-1 $261 $262 $263 $264 reversed $99 $-1 #
coedge $-1 $163 $101 $265 $266 reversed $64 $-1 #
coedge $-1 $101 $162 $261 $267 reversed $64 $-1 #
coedge $-1 $263 $268 $101 $165 forward $269 $-1 #
edge $-1 $270 12.980665497304983 $271 17.286728861342027 $164 $272 forward 7 unknown #
loop $-1 $-1 $171 $102 #
plane-surface $-1 -71.322977385784441 2.2988582777541566 5.9572628920118262 -0.68199836817093118 0 0.7313536940579346 0.7313536940579346 0 0.68199836817093118 forward_v I I I I #
loop $-1 $-1 $273 $66 #
coedge $-1 $169 $169 $170 $274 reversed $103 $-1 #
coedge $-1 $170 $170 $169 $274 forward $105 $-1 #
coedge $-1 $171 $171 $106 $172 forward $166 $-1 #
edge $-1 $275 0 $275 6.2831853071796004 $171 $276 forward 7 unknown #
loop $-1 $-1 $178 $107 #
plane-surface $-1 -71.322977385784441 2.2988582777541566 5.9572628920118262 -0.68199836817093118 0 0.7313536940579346 0.7313536940579346 0 0.68199836817093118 forward_v I I I I #
loop $-1 $-1 $277 $69 #
coedge $-1 $176 $176 $177 $278 reversed $108 $-1 #
coedge $-1 $177 $177 $176 $278 forward $110 $-1 #
coedge $-1 $178 $178 $111 $179 forward $173 $-1 #
edge $-1 $279 0 $279 6.2831853071796004 $178 $280 forward 7 unknown #
face $-1 $281 $282 $27 $-1 $283 reversed single #
loop $-1 $-1 $284 $112 #
plane-surface $-1 -71.322977385784469 0 0 1 0 0 0 0 -1 forward_v I I I I #
coedge $-1 $285 $191 $286 $287 forward $113 $-1 #
coedge $-1 $288 $115 $285 $289 forward $73 $-1 #
coedge $-1 $115 $288 $290 $291 forward $73 $-1 #
coedge $-1 $194 $193 $115 $187 reversed $195 $-1 #
edge $-1 $292 -37.861232366285392 $293 37.861232366285392 $186 $294 forward 7 unknown #
coedge $-1 $117 $116 $295 $296 forward $46 $-1 #
coedge $-1 $297 $298 $116 $190 reversed $282 $-1 #
edge $-1 $197 -71.322977385784469 $299 71.322977385784469 $189 $300 forward 7 unknown #
coedge $-1 $183 $301 $117 $192 reversed $113 $-1 #
edge $-1 $302 -71.322977385784469 $196 71.322977385784469 $191 $303 forward 7 unknown #
coedge $-1 $186 $118 $301 $304 forward $195 $-1 #
coedge $-1 $118 $186 $297 $305 reversed $195 $-1 #
loop $-1 $-1 $193 $281 #
vertex $-1 $119 $306 #
vertex $-1 $119 $307 #
straight-curve $-1 71.322977385784469 0 9.9727320300965179 0 1 0 I I #
face $-1 $308 $309 $28 $-1 $310 reversed single #
loop $-1 $-1 $311 $120 #
plane-surface $-1 -71.322977385784469 0 0 1 0 0 0 0 -1 forward_v I I I I #
coedge $-1 $312 $208 $213 $313 reversed $121 $-1 #
coedge $-1 $314 $123 $315 $316 reversed $77 $-1 #
coedge $-1 $123 $314 $312 $317 forward $77 $-1 #
coedge $-1 $213 $212 $123 $206 forward $214 $-1 #
edge $-1 $318 -20.98941301169728 $319 -12.754225697478944 $205 $320 forward 7 unknown #
coedge $-1 $125 $124 $311 $321 reversed $49 $-1 #
coedge $-1 $202 $322 $124 $209 reversed $121 $-1 #
edge $-1 $215 -71.322977385784469 $323 71.322977385784469 $208 $324 forward 7 unknown #
coedge $-1 $325 $326 $125 $211 forward $309 $-1 #
edge $-1 $216 -71.322977385784469 $327 71.322977385784469 $210 $328 forward 7 unknown #
coedge $-1 $205 $126 $326 $329 forward $214 $-1 #
coedge $-1 $126 $205 $202 $313 forward $214 $-1 #
loop $-1 $-1 $126 $308 #
vertex $-1 $127 $330 #
vertex $-1 $329 $331 #
straight-curve $-1 71.322977385784469 -16.871819354588112 5.9570599079187492 0 -1 0 I I #
face $-1 $-1 $230 $29 $-1 $332 reversed single #
loop $-1 $-1 $333 $128 #
plane-surface $-1 0 0 9.9727320300965179 0 0 1 1 0 0 forward_v I I I I #
coedge $-1 $334 $335 $336 $337 reversed $129 $-1 #
coedge $-1 $338 $131 $133 $228 forward $81 $-1 #
coedge $-1 $131 $338 $334 $339 forward $81 $-1 #
coedge $-1 $336 $134 $131 $225 forward $230 $-1 #
edge $-1 $232 -12.71713952007843 $340 -1.5474565190344229 $224 $341 forward 7 unknown #
coedge $-1 $342 $343 $132 $227 forward $219 $-1 #
edge $-1 $344 28.419057021668692 $231 32.141317561607153 $226 $345 forward 7 unknown #
edge $-1 $232 -142.64595477156894 $344 -137.1880815474033 $133 $346 forward 7 unknown #
coedge $-1 $134 $336 $342 $347 reversed $230 $-1 #
loop $-1 $-1 $336 $218 #
vertex $-1 $347 $348 #
vertex $-1 $135 $349 #
straight-curve $-1 71.322977385784469 -19.849437539634856 103.79502519057915 0 0 -1 I I #
coedge $-1 $234 $234 $-1 $350 reversed $138 $-1 #
edge $-1 $351 0 $351 6.2831853071796004 $139 $352 forward 7 unknown #
vertex $-1 $142 $353 #
ellipse-curve $-1 69.461847115815274 -14.264596039112853 7.9769141148120699 0.73135370988377701 0 0.68199835119979291 0.68199835119979291 0 -0.73135370988377701 1 I I #
face $-1 $-1 $354 $31 $-1 $355 forward single #
loop $-1 $-1 $149 $143 #
plane-surface $-1 71.322977385784469 0 0 -1 0 0 0 0 1 forward_v I I I I #
coedge $-1 $356 $357 $358 $359 reversed $144 $-1 #
coedge $-1 $360 $146 $148 $248 forward $90 $-1 #
coedge $-1 $146 $360 $356 $361 forward $90 $-1 #
coedge $-1 $358 $149 $146 $245 forward $239 $-1 #
edge $-1 $251 5.6650501761435912 $362 16.834733177187598 $244 $363 forward 7 unknown #
coedge $-1 $364 $365 $147 $247 forward $354 $-1 #
edge $-1 $366 28.419057021668692 $250 32.141317561607153 $246 $367 forward 7 unknown #
edge $-1 $251 -142.64595477156894 $366 -137.1880815474033 $148 $368 forward 7 unknown #
coedge $-1 $149 $358 $364 $369 reversed $239 $-1 #
vertex $-1 $369 $370 #
vertex $-1 $150 $371 #
straight-curve $-1 71.322977385784469 16.914941852809186 103.79502519057915 0 0 -1 I I #
coedge $-1 $253 $253 $-1 $372 reversed $153 $-1 #
edge $-1 $373 0 $373 6.2831853071796004 $154 $374 forward 7 unknown #
vertex $-1 $157 $375 #
ellipse-curve $-1 69.461847115815274 22.499783353331189 7.9769141148120699 0.73135370988377701 0 0.68199835119979291 0.68199835119979291 0 -0.73135370988377701 1 I I #
face $-1 $-1 $269 $33 $-1 $376 forward single #
loop $-1 $-1 $377 $158 #
plane-surface $-1 -71.322977385784469 0 0 1 0 0 0 0 -1 forward_v I I I I #
coedge $-1 $378 $379 $380 $381 reversed $159 $-1 #
coedge $-1 $382 $161 $163 $267 forward $99 $-1 #
coedge $-1 $161 $382 $378 $383 forward $99 $-1 #
coedge $-1 $380 $164 $161 $264 forward $269 $-1 #
edge $-1 $271 -4.9841957433435873 $384 7.2830540210977439 $263 $385 forward 7 unknown #
coedge $-1 $386 $387 $162 $266 forward $258 $-1 #
edge $-1 $388 -49.18369153629812 $270 -45.168222398213402 $265 $389 forward 7 unknown #
edge $-1 $271 -5.8877987477505034 $388 3.8958409169770864e-014 $163 $390 forward 7 unknown #
coedge $-1 $164 $380 $386 $391 forward $269 $-1 #
loop $-1 $-1 $380 $257 #
vertex $-1 $266 $392 #
vertex $-1 $165 $393 #
straight-curve $-1 -84.303642883089452 -3.834766604466509 9.9727320300965161 1 0 0 I I #
coedge $-1 $273 $273 $-1 $394 reversed $168 $-1 #
edge $-1 $395 0 $395 6.2831853071796004 $169 $396 forward 7 unknown #
vertex $-1 $172 $397 #
ellipse-curve $-1 -69.169945703765947 -0.32983810034041738 7.9649974610541614 -0.68199836817093118 0 0.7313536940579346 0.3656768470289673 0 0.34099918408546559 1 I I #
coedge $-1 $277 $277 $-1 $398 reversed $175 $-1 #
edge $-1 $399 0 $399 6.2831853071796004 $176 $400 forward 7 unknown #
vertex $-1 $179 $401 #
ellipse-curve $-1 -69.169945703765947 4.9275546558487235 7.9649974610541614 -0.68199836817093118 0 0.7313536940579346 0.3656768470289673 0 0.34099918408546559 1 I I #
face $-1 $-1 $195 $27 $-1 $402 reversed single #
loop $-1 $-1 $297 $180 #
plane-surface $-1 0 37.861232366285392 0 0 -1 0 0 0 -1 forward_v I I I I #
coedge $-1 $403 $295 $298 $404 forward $181 $-1 #
coedge $-1 $301 $183 $184 $289 reversed $113 $-1 #
coedge $-1 $295 $403 $183 $287 reversed $181 $-1 #
edge $-1 $302 -9.9727320300965179 $405 9.9727320300965179 $286 $406 forward 7 unknown #
coedge $-1 $185 $184 $403 $407 forward $73 $-1 #
edge $-1 $293 -71.322977385784469 $405 71.322977385784469 $285 $408 forward 7 unknown #
coedge $-1 $298 $297 $185 $291 reversed $282 $-1 #
edge $-1 $409 -71.322977385784469 $292 71.322977385784469 $290 $410 forward 7 unknown #
vertex $-1 $187 $411 #
vertex $-1 $304 $412 #
straight-curve $-1 71.322977385784469 0 -9.9727320300965179 0 -1 0 I I #
coedge $-1 $284 $286 $188 $296 reversed $181 $-1 #
edge $-1 $299 -37.861232366285392 $302 37.861232366285392 $295 $413 forward 7 unknown #
coedge $-1 $290 $189 $194 $305 forward $282 $-1 #
coedge $-1 $189 $290 $284 $404 reversed $282 $-1 #
vertex $-1 $190 $414 #
straight-curve $-1 0 37.861232366285392 9.9727320300965179 -1 0 0 I I #
coedge $-1 $191 $285 $193 $304 reversed $113 $-1 #
vertex $-1 $296 $415 #
straight-curve $-1 0 -37.861232366285392 9.9727320300965179 1 0 0 I I #
edge $-1 $196 -9.9727320300965179 $293 9.9727320300965179 $193 $416 forward 7 unknown #
edge $-1 $197 -9.9727320300965179 $292 9.9727320300965179 $194 $417 forward 7 unknown #
point $-1 71.322977385784469 -37.861232366285392 9.9727320300965179 #
point $-1 71.322977385784469 37.861232366285392 9.9727320300965179 #
face $-1 $-1 $214 $28 $-1 $418 reversed single #
loop $-1 $-1 $210 $199 #
plane-surface $-1 0 -37.861232366285392 0 0 1 0 0 0 1 forward_v I I I I #
coedge $-1 $419 $420 $207 $321 forward $200 $-1 #
coedge $-1 $322 $202 $204 $317 reversed $121 $-1 #
edge $-1 $319 0.72852995395937459 $215 3.7285299539593746 $213 $421 forward 7 unknown #
coedge $-1 $204 $203 $422 $423 reversed $77 $-1 #
coedge $-1 $326 $325 $203 $316 forward $309 $-1 #
edge $-1 $424 -71.322977385784469 $318 71.322977385784469 $315 $425 forward 7 unknown #
edge $-1 $426 -71.322977385784469 $319 71.322977385784469 $312 $427 forward 7 unknown #
vertex $-1 $316 $428 #
vertex $-1 $206 $429 #
straight-curve $-1 71.322977385784469 -16.871819354588112 2.9570599079187492 0 1 0 I I #
edge $-1 $327 -20.98941301169728 $323 -12.754225697478944 $311 $430 forward 7 unknown #
coedge $-1 $208 $312 $419 $431 reversed $121 $-1 #
vertex $-1 $321 $432 #
straight-curve $-1 0 -29.626045052067056 5.9570599079187492 -1 0 0 I I #
coedge $-1 $315 $210 $420 $433 forward $309 $-1 #
coedge $-1 $210 $315 $212 $329 reversed $309 $-1 #
vertex $-1 $433 $434 #
straight-curve $-1 0 -37.861232366285392 5.9570599079187492 -1 0 0 I I #
edge $-1 $216 -5.9570599079187492 $318 -2.9570599079187492 $212 $435 forward 7 unknown #
point $-1 71.322977385784469 -29.626045052067056 5.9570599079187492 #
point $-1 71.322977385784469 -37.861232366285392 5.9570599079187492 #
plane-surface $-1 71.322977385784469 0 0 -1 0 0 0 0 1 forward_v I I I I #
coedge $-1 $343 $342 $335 $436 forward $219 $-1 #
coedge $-1 $335 $221 $223 $339 reversed $129 $-1 #
coedge $-1 $221 $334 $333 $436 reversed $129 $-1 #
coedge $-1 $229 $224 $221 $337 forward $230 $-1 #
edge $-1 $340 -97.813928991051498 $437 -93.82229316048263 $336 $438 forward 7 unknown #
coedge $-1 $223 $222 $343 $439 reversed $81 $-1 #
edge $-1 $440 137.1880815474033 $340 142.64595477156894 $334 $441 forward 7 unknown #
vertex $-1 $225 $442 #
straight-curve $-1 71.322977385784469 -7.1322980195564263 5.9810961995276628 0 1 0 I I #
coedge $-1 $333 $226 $229 $347 forward $219 $-1 #
coedge $-1 $226 $333 $338 $439 forward $219 $-1 #
vertex $-1 $227 $443 #
straight-curve $-1 39.181659824177316 -19.849437539634856 9.9727320300965232 1 0 0 I I #
straight-curve $-1 -25.961328573745774 -19.849437539634856 110.30574442162806 -0.68199835119979291 0 0.73135370988377701 I I #
edge $-1 $231 -19.849437539634856 $437 -8.6797545385908492 $229 $444 forward 7 unknown #
point $-1 71.322977385784469 -19.849437539634856 9.9727320300965179 #
point $-1 71.322977385784469 -19.849437539634856 5.9810961995276557 #
edge $-1 $445 1 $445 0 $234 $-1 forward 7 unknown #
vertex $-1 $235 $446 #
ellipse-curve $-1 66.821880519808815 -14.264596039112853 5.5151054969477515 0.73135370988377701 0 0.68199835119979291 0.68199835119979291 0 -0.73135370988377701 1 I I #
point $-1 70.143845467015069 -14.264596039112853 7.2455604049282982 #
loop $-1 $-1 $246 $238 #
plane-surface $-1 0 0 9.9727320300965179 0 0 1 1 0 0 forward_v I I I I #
coedge $-1 $357 $241 $243 $361 reversed $144 $-1 #
coedge $-1 $241 $356 $447 $448 reversed $144 $-1 #
coedge $-1 $249 $244 $241 $359 forward $239 $-1 #
edge $-1 $362 -97.813928991051498 $449 -93.82229316048263 $358 $450 forward 7 unknown #
coedge $-1 $243 $242 $365 $451 reversed $90 $-1 #
edge $-1 $452 137.1880815474033 $362 142.64595477156894 $356 $453 forward 7 unknown #
vertex $-1 $245 $454 #
straight-curve $-1 71.322977385784469 11.249891676665595 5.9810961995276628 0 1 0 I I #
coedge $-1 $447 $246 $249 $369 forward $354 $-1 #
coedge $-1 $246 $447 $360 $451 forward $354 $-1 #
vertex $-1 $247 $455 #
straight-curve $-1 39.181659824177316 16.914941852809186 9.9727320300965232 1 0 0 I I #
straight-curve $-1 -25.961328573745774 16.914941852809186 110.30574442162806 -0.68199835119979291 0 0.73135370988377701 I I #
edge $-1 $250 16.914941852809186 $449 28.084624853853192 $249 $456 forward 7 unknown #
point $-1 71.322977385784469 16.914941852809186 9.9727320300965179 #
point $-1 71.322977385784469 16.914941852809186 5.9810961995276557 #
edge $-1 $457 1 $457 0 $253 $-1 forward 7 unknown #
vertex $-1 $254 $458 #
ellipse-curve $-1 66.821880519808815 22.499783353331189 5.5151054969477515 0.73135370988377701 0 0.68199835119979291 0.68199835119979291 0 -0.73135370988377701 1 I I #
point $-1 70.143845467015069 22.499783353331189 7.2455604049282982 #
plane-surface $-1 0 0 9.9727320300965179 0 0 1 1 0 0 forward_v I I I I #
coedge $-1 $387 $386 $379 $459 forward $258 $-1 #
coedge $-1 $379 $260 $262 $383 reversed $159 $-1 #
coedge $-1 $260 $378 $377 $459 reversed $159 $-1 #
coedge $-1 $268 $263 $260 $381 forward $269 $-1 #
edge $-1 $384 -17.286728861342027 $460 -12.980665497304983 $380 $461 forward 7 unknown #
coedge $-1 $262 $261 $387 $462 reversed $99 $-1 #
edge $-1 $463 -3.8958409169770864e-014 $384 5.8877987477505034 $378 $464 forward 7 unknown #
vertex $-1 $264 $465 #
straight-curve $-1 -67.016914021747425 1.1494291388770783 9.9727320300965197 0 1 0 I I #
coedge $-1 $377 $265 $268 $391 reversed $258 $-1 #
coedge $-1 $265 $377 $382 $462 forward $258 $-1 #
vertex $-1 $266 $466 #
straight-curve $-1 -71.322977385784469 -3.834766604466509 55.140954428309918 0 0 1 I I #
straight-curve $-1 -71.322977385784441 -3.834766604466509 5.9572628920118262 -0.7313536940579346 0 -0.68199836817093118 I I #
edge $-1 $460 -8.4324831599748222 $270 3.834766604466509 $386 $467 forward 7 unknown #
point $-1 -71.322977385784469 -3.834766604466509 9.9727320300965179 #
point $-1 -67.016914021747425 -3.834766604466509 9.9727320300965179 #
edge $-1 $468 1 $468 0 $273 $-1 forward 7 unknown #
vertex $-1 $274 $469 #
ellipse-curve $-1 -68.487947335595038 -0.32983810034041738 7.2336437669962441 -0.68199836817093118 0 0.7313536940579346 0.3656768470289673 0 0.34099918408546559 1 I I #
point $-1 -68.804268856737011 -0.32983810034041738 8.3059966451396452 #
edge $-1 $470 1 $470 0 $277 $-1 forward 7 unknown #
vertex $-1 $278 $471 #
ellipse-curve $-1 -68.487947335595038 4.9275546558487235 7.2336437669962441 -0.68199836817093118 0 0.7313536940579346 0.3656768470289673 0 0.34099918408546559 1 I I #
point $-1 -68.804268856737011 4.9275546558487235 8.3059966451396452 #
plane-surface $-1 71.322977385784469 0 0 -1 0 0 0 0 1 forward_v I I I I #
coedge $-1 $286 $284 $288 $407 reversed $181 $-1 #
edge $-1 $299 -9.9727320300965179 $409 9.9727320300965179 $298 $472 forward 7 unknown #
vertex $-1 $407 $473 #
straight-curve $-1 -71.322977385784469 -37.861232366285392 0 0 0 -1 I I #
edge $-1 $405 -37.861232366285392 $409 37.861232366285392 $403 $474 forward 7 unknown #
straight-curve $-1 0 -37.861232366285392 -9.9727320300965179 -1 0 0 I I #
vertex $-1 $291 $475 #
straight-curve $-1 0 37.861232366285392 -9.9727320300965179 1 0 0 I I #
point $-1 71.322977385784469 37.861232366285392 -9.9727320300965179 #
point $-1 71.322977385784469 -37.861232366285392 -9.9727320300965179 #
straight-curve $-1 -71.322977385784469 0 9.9727320300965179 0 -1 0 I I #
point $-1 -71.322977385784469 37.861232366285392 9.9727320300965179 #
point $-1 -71.322977385784469 -37.861232366285392 9.9727320300965179 #
straight-curve $-1 71.322977385784469 -37.861232366285392 0 0 0 -1 I I #
straight-curve $-1 71.322977385784469 37.861232366285392 0 0 0 -1 I I #
plane-surface $-1 71.322977385784469 0 0 -1 0 0 0 0 1 forward_v I I I I #
coedge $-1 $422 $311 $322 $431 forward $200 $-1 #
coedge $-1 $311 $422 $325 $433 reversed $200 $-1 #
straight-curve $-1 71.322977385784469 -29.626045052067056 2.2285299539593746 0 0 1 I I #
coedge $-1 $420 $419 $314 $423 forward $200 $-1 #
edge $-1 $426 12.754225697478944 $424 20.98941301169728 $422 $476 forward 7 unknown #
vertex $-1 $316 $477 #
straight-curve $-1 0 -37.861232366285392 2.9570599079187492 1 0 0 I I #
vertex $-1 $423 $478 #
straight-curve $-1 0 -29.626045052067056 2.9570599079187492 1 0 0 I I #
point $-1 71.322977385784469 -37.861232366285392 2.9570599079187492 #
point $-1 71.322977385784469 -29.626045052067056 2.9570599079187492 #
straight-curve $-1 -71.322977385784469 -16.871819354588112 5.9570599079187492 0 1 0 I I #
edge $-1 $323 -3.7285299539593746 $426 -0.72852995395937459 $419 $479 forward 7 unknown #
point $-1 -71.322977385784469 -29.626045052067056 5.9570599079187492 #
edge $-1 $327 -5.9570599079187492 $424 -2.9570599079187492 $420 $480 forward 7 unknown #
point $-1 -71.322977385784469 -37.861232366285392 5.9570599079187492 #
straight-curve $-1 71.322977385784469 -37.861232366285392 0 0 0 -1 I I #
edge $-1 $437 -32.141317561607153 $440 -28.419057021668692 $333 $481 forward 7 unknown #
vertex $-1 $436 $482 #
straight-curve $-1 71.322977385784469 -8.6797545385908492 103.79502519057915 0 0 1 I I #
edge $-1 $440 1.5474565190344229 $344 12.71713952007843 $343 $483 forward 7 unknown #
vertex $-1 $439 $484 #
straight-curve $-1 -25.961328573745774 -8.6797545385908492 110.30574442162806 0.68199835119979291 0 -0.73135370988377701 I I #
point $-1 71.322977385784469 -8.6797545385908492 5.9810961995276557 #
point $-1 67.600716845846009 -19.849437539634856 9.9727320300965232 #
straight-curve $-1 71.322977385784469 0 9.9727320300965179 0 1 0 I I #
vertex $-1 $350 $485 #
point $-1 67.50387887100861 -14.264596039112853 4.7837517870639745 #
coedge $-1 $365 $364 $357 $448 forward $354 $-1 #
edge $-1 $449 -32.141317561607153 $452 -28.419057021668692 $447 $486 forward 7 unknown #
vertex $-1 $448 $487 #
straight-curve $-1 71.322977385784469 28.084624853853192 103.79502519057915 0 0 1 I I #
edge $-1 $452 -16.834733177187598 $366 -5.6650501761435912 $365 $488 forward 7 unknown #
vertex $-1 $451 $489 #
straight-curve $-1 -25.961328573745774 28.084624853853192 110.30574442162806 0.68199835119979291 0 -0.73135370988377701 I I #
point $-1 71.322977385784469 28.084624853853192 5.9810961995276557 #
point $-1 67.600716845846009 16.914941852809186 9.9727320300965232 #
straight-curve $-1 71.322977385784469 0 9.9727320300965179 0 1 0 I I #
vertex $-1 $372 $490 #
point $-1 67.50387887100861 22.499783353331189 4.7837517870639745 #
edge $-1 $460 45.168222398213402 $463 49.18369153629812 $377 $491 forward 7 unknown #
vertex $-1 $391 $492 #
straight-curve $-1 -84.303642883089452 8.4324831599748222 9.9727320300965161 -1 0 0 I I #
edge $-1 $463 -7.2830540210977439 $388 4.9841957433435873 $387 $493 forward 7 unknown #
vertex $-1 $462 $494 #
straight-curve $-1 -71.322977385784441 8.4324831599748222 5.9572628920118262 0.7313536940579346 0 0.68199836817093118 I I #
point $-1 -67.016914021747425 8.4324831599748222 9.9727320300965179 #
point $-1 -71.322977385784469 -3.834766604466509 5.9572628920117996 #
straight-curve $-1 -71.322977385784469 0 9.9727320300965179 0 -1 0 I I #
vertex $-1 $394 $495 #
point $-1 -68.122270488566073 -0.32983810034041738 7.5746429510817102 #
vertex $-1 $398 $496 #
point $-1 -68.122270488566073 4.9275546558487235 7.5746429510817102 #
straight-curve $-1 -71.322977385784469 37.861232366285392 0 0 0 -1 I I #
point $-1 -71.322977385784469 -37.861232366285392 -9.9727320300965179 #
straight-curve $-1 -71.322977385784469 0 -9.9727320300965179 0 1 0 I I #
point $-1 -71.322977385784469 37.861232366285392 -9.9727320300965179 #
straight-curve $-1 -71.322977385784469 -16.871819354588112 2.9570599079187492 0 -1 0 I I #
point $-1 -71.322977385784469 -37.861232366285392 2.9570599079187492 #
point $-1 -71.322977385784469 -29.626045052067056 2.9570599079187492 #
straight-curve $-1 -71.322977385784469 -29.626045052067056 2.2285299539593746 0 0 -1 I I #
straight-curve $-1 -71.322977385784469 -37.861232366285392 0 0 0 -1 I I #
straight-curve $-1 39.181659824177316 -8.6797545385908492 9.9727320300965232 -1 0 0 I I #
point $-1 71.322977385784469 -8.6797545385908492 9.9727320300965179 #
straight-curve $-1 67.600716845846023 -7.1322980195564263 9.9727320300965232 0 -1 0 I I #
point $-1 67.600716845846009 -8.6797545385908492 9.9727320300965232 #
point $-1 66.090526809925052 -14.264596039112853 4.8331071457479586 #
straight-curve $-1 39.181659824177316 28.084624853853192 9.9727320300965232 -1 0 0 I I #
point $-1 71.322977385784469 28.084624853853192 9.9727320300965179 #
straight-curve $-1 67.600716845846023 11.249891676665595 9.9727320300965232 0 -1 0 I I #
point $-1 67.600716845846009 28.084624853853192 9.9727320300965232 #
point $-1 66.090526809925052 22.499783353331189 4.8331071457479586 #
straight-curve $-1 -71.322977385784469 8.4324831599748222 55.140954428309918 0 0 -1 I I #
point $-1 -71.322977385784469 8.4324831599748222 9.9727320300965179 #
straight-curve $-1 -71.322977385784469 1.1494291388770783 5.9572628920118049 0 -1 0 I I #
point $-1 -71.322977385784469 8.4324831599748222 5.9572628920117996 #
point $-1 -68.146948151509577 -0.32983810034041738 6.8679669199672775 #
point $-1 -68.146948151509577 4.9275546558487235 6.8679669199672775 #
End-of-ACIS-data 