500 0 17 0           
7 Unknown 11 ACIS 5.0 NT 24 Thu Mar 25 22:08:00 1999 
-1 9.9999999999999995e-007 1e-010 
body $-1 $17 $-1 $18 #
body $-1 $19 $-1 $20 #
body $-1 $21 $-1 $22 #
body $-1 $23 $-1 $24 #
body $-1 $25 $-1 $26 #
body $-1 $27 $-1 $28 #
body $-1 $29 $-1 $30 #
body $-1 $31 $-1 $32 #
body $-1 $33 $-1 $34 #
body $-1 $35 $-1 $36 #
body $-1 $37 $-1 $38 #
body $-1 $39 $-1 $40 #
body $-1 $41 $-1 $42 #
body $-1 $43 $-1 $44 #
body $-1 $45 $-1 $46 #
body $-1 $47 $-1 $48 #
body $-1 $49 $-1 $50 #
lump $-1 $-1 $51 $0 #
transform $-1 1 0 0 0 1 0 0 0 1 52.427137058626059 28.338365978388481 7.5832177009889135 1 rotate no_reflect no_shear #
lump $-1 $-1 $52 $1 #
transform $-1 1 0 0 0 1 0 0 0 1 3.533399443061755 7.3854996660283376 7.5832177009889135 1 rotate no_reflect no_shear #
lump $-1 $-1 $53 $2 #
transform $-1 1 0 0 0 1 0 0 0 1 101.32087467419036 7.3854996660283376 7.5832177009889135 1 rotate no_reflect no_shear #
lump $-1 $-1 $54 $3 #
transform $-1 1 0 0 0 0.85716729658548041 -0.51503808176128008 0 0.51503808176128008 0.85716729658548041 18.297566329937027 62.099235051907513 129.59881109969695 1 rotate no_reflect no_shear #
lump $-1 $-1 $55 $4 #
transform $-1 1 0 0 0 -0.85716729658548041 0.51503808176128008 0 -0.51503808176128008 -0.85716729658548041 15.01777235404802 50.125182106926616 8.3652420459785937 1 rotate no_reflect no_shear #
lump $-1 $-1 $56 $5 #
transform $-1 1 0 0 0 -0.85716729658548041 0.51503808176128008 0 -0.51503808176128008 -0.85716729658548041 21.577360305826033 50.125182106926616 8.3652420459785937 1 rotate no_reflect no_shear #
lump $-1 $-1 $57 $6 #
transform $-1 1 0 0 0 0.85716729658548041 -0.51503808176128008 0 0.51503808176128008 0.85716729658548041 40.977735416188303 62.099235051907513 129.59881109969695 1 rotate no_reflect no_shear #
lump $-1 $-1 $58 $7 #
transform $-1 1 0 0 0 -0.85716729658548041 0.51503808176128008 0 -0.51503808176128008 -0.85716729658548041 37.697941440299296 50.125182106926616 8.3652420459785937 1 rotate no_reflect no_shear #
lump $-1 $-1 $59 $8 #
transform $-1 1 0 0 0 -0.85716729658548041 0.51503808176128008 0 -0.51503808176128008 -0.85716729658548041 44.257529392077309 50.125182106926616 8.3652420459785937 1 rotate no_reflect no_shear #
lump $-1 $-1 $60 $9 #
transform $-1 1 0 0 0 0.85716729658548041 -0.51503808176128008 0 0.51503808176128008 0.85716729658548041 63.657904502439578 62.099235051907513 129.59881109969695 1 rotate no_reflect no_shear #
lump $-1 $-1 $61 $10 #
transform $-1 1 0 0 0 -0.85716729658548041 0.51503808176128008 0 -0.51503808176128008 -0.85716729658548041 60.378110526550572 50.125182106926616 8.3652420459785937 1 rotate no_reflect no_shear #
lump $-1 $-1 $62 $11 #
transform $-1 1 0 0 0 -0.85716729658548041 0.51503808176128008 0 -0.51503808176128008 -0.85716729658548041 66.937698478328585 50.125182106926616 8.3652420459785937 1 rotate no_reflect no_shear #
lump $-1 $-1 $63 $12 #
transform $-1 1 0 0 0 0.85716729658548041 -0.51503808176128008 0 0.51503808176128008 0.85716729658548041 86.338073588690861 62.099235051907513 129.59881109969695 1 rotate no_reflect no_shear #
lump $-1 $-1 $64 $13 #
transform $-1 1 0 0 0 -0.85716729658548041 0.51503808176128008 0 -0.51503808176128008 -0.85716729658548041 83.05827961280184 50.125182106926616 8.3652420459785937 1 rotate no_reflect no_shear #
lump $-1 $-1 $65 $14 #
transform $-1 1 0 0 0 -0.85716729658548041 0.51503808176128008 0 -0.51503808176128008 -0.85716729658548041 89.617867564579853 50.125182106926616 8.3652420459785937 1 rotate no_reflect no_shear #
lump $-1 $-1 $66 $15 #
transform $-1 1 0 0 0 0.75470957328743171 0.6560590369687036 0 -0.6560590369687036 0.75470957328743171 85.135115149484832 -68.790594099416879 90.626912022265344 1 rotate no_reflect no_shear #
lump $-1 $-1 $67 $16 #
transform $-1 1 0 0 0 -0.75470957328743171 -0.6560590369687036 0 0.6560590369687036 -0.75470957328743171 85.135115149484832 4.4201125485882073 10.675674618225756 1 rotate no_reflect no_shear #
shell $-1 $-1 $-1 $68 $-1 $17 #
shell $-1 $-1 $-1 $69 $-1 $19 #
shell $-1 $-1 $-1 $70 $-1 $21 #
shell $-1 $-1 $-1 $71 $-1 $23 #
shell $-1 $-1 $-1 $72 $-1 $25 #
shell $-1 $-1 $-1 $73 $-1 $27 #
shell $-1 $-1 $-1 $74 $-1 $29 #
shell $-1 $-1 $-1 $75 $-1 $31 #
shell $-1 $-1 $-1 $76 $-1 $33 #
shell $-1 $-1 $-1 $77 $-1 $35 #
shell $-1 $-1 $-1 $78 $-1 $37 #
shell $-1 $-1 $-1 $79 $-1 $39 #
shell $-1 $-1 $-1 $80 $-1 $41 #
shell $-1 $-1 $-1 $81 $-1 $43 #
shell $-1 $-1 $-1 $82 $-1 $45 #
shell $-1 $-1 $-1 $83 $-1 $47 #
shell $-1 $-1 $-1 $84 $-1 $49 #
face $-1 $85 $86 $51 $-1 $87 forward single #
face $-1 $88 $89 $52 $-1 $90 forward single #
face $-1 $91 $92 $53 $-1 $93 forward single #
face $-1 $94 $95 $54 $-1 $96 forward single #
face $-1 $97 $98 $55 $-1 $99 forward single #
face $-1 $100 $101 $56 $-1 $102 forward single #
face $-1 $103 $104 $57 $-1 $105 forward single #
face $-1 $106 $107 $58 $-1 $108 forward single #
face $-1 $109 $110 $59 $-1 $111 forward single #
face $-1 $112 $113 $60 $-1 $114 forward single #
face $-1 $115 $116 $61 $-1 $117 forward single #
face $-1 $118 $119 $62 $-1 $120 forward single #
face $-1 $121 $122 $63 $-1 $123 forward single #
face $-1 $124 $125 $64 $-1 $126 forward single #
face $-1 $127 $128 $65 $-1 $129 forward single #
face $-1 $130 $131 $66 $-1 $132 forward single #
face $-1 $133 $134 $67 $-1 $135 forward single #
face $-1 $136 $137 $51 $-1 $138 reversed single #
loop $-1 $-1 $139 $68 #
plane-surface $-1 0 0 7.5832177009889135 0 0 1 1 0 0 forward_v I I I I #
face $-1 $140 $141 $52 $-1 $142 reversed single #
loop $-1 $-1 $143 $69 #
plane-surface $-1 0 0 7.5832177009889135 0 0 1 1 0 0 forward_v I I I I #
face $-1 $144 $145 $53 $-1 $146 reversed single #
loop $-1 $-1 $147 $70 #
plane-surface $-1 0 0 7.5832177009889135 0 0 1 1 0 0 forward_v I I I I #
face $-1 $148 $149 $54 $-1 $150 reversed single #
loop $-1 $-1 $151 $71 #
plane-surface $-1 0 0 104.85427411725212 0 0 1 1 0 0 forward_v I I I I #
face $-1 $152 $153 $55 $-1 $154 forward single #
loop $-1 $155 $156 $72 #
cone-surface $-1 0 0 -2.9901348918118842 0 0 1 1.5 0 0 1 I I 0 1 1.5 forward I I I I #
face $-1 $157 $158 $56 $-1 $159 forward single #
loop $-1 $160 $161 $73 #
cone-surface $-1 0 0 -2.9901348918118842 0 0 1 1.5 0 0 1 I I 0 1 1.5 forward I I I I #
face $-1 $162 $163 $57 $-1 $164 reversed single #
loop $-1 $-1 $165 $74 #
plane-surface $-1 0 0 104.85427411725212 0 0 1 1 0 0 forward_v I I I I #
face $-1 $166 $167 $58 $-1 $168 forward single #
loop $-1 $169 $170 $75 #
cone-surface $-1 0 0 -2.9901348918118842 0 0 1 1.5 0 0 1 I I 0 1 1.5 forward I I I I #
face $-1 $171 $172 $59 $-1 $173 forward single #
loop $-1 $174 $175 $76 #
cone-surface $-1 0 0 -2.9901348918118842 0 0 1 1.5 0 0 1 I I 0 1 1.5 forward I I I I #
face $-1 $176 $177 $60 $-1 $178 reversed single #
loop $-1 $-1 $179 $77 #
plane-surface $-1 0 0 104.85427411725212 0 0 1 1 0 0 forward_v I I I I #
face $-1 $180 $181 $61 $-1 $182 forward single #
loop $-1 $183 $184 $78 #
cone-surface $-1 0 0 -2.9901348918118842 0 0 1 1.5 0 0 1 I I 0 1 1.5 forward I I I I #
face $-1 $185 $186 $62 $-1 $187 forward single #
loop $-1 $188 $189 $79 #
cone-surface $-1 0 0 -2.9901348918118842 0 0 1 1.5 0 0 1 I I 0 1 1.5 forward I I I I #
face $-1 $190 $191 $63 $-1 $192 reversed single #
loop $-1 $-1 $193 $80 #
plane-surface $-1 0 0 104.85427411725212 0 0 1 1 0 0 forward_v I I I I #
face $-1 $194 $195 $64 $-1 $196 forward single #
loop $-1 $197 $198 $81 #
cone-surface $-1 0 0 -2.9901348918118842 0 0 1 1.5 0 0 1 I I 0 1 1.5 forward I I I I #
face $-1 $199 $200 $65 $-1 $201 forward single #
loop $-1 $202 $203 $82 #
cone-surface $-1 0 0 -2.9901348918118842 0 0 1 1.5 0 0 1 I I 0 1 1.5 forward I I I I #
face $-1 $204 $205 $66 $-1 $206 reversed single #
loop $-1 $-1 $207 $83 #
plane-surface $-1 0 0 104.85427411725212 0 0 1 1 0 0 forward_v I I I I #
face $-1 $208 $209 $67 $-1 $210 forward single #
loop $-1 $211 $212 $84 #
cone-surface $-1 0 0 -2.008117923520615 0 0 1 1 0 0 1 I I 0 1 1 forward I I I I #
face $-1 $213 $214 $51 $-1 $215 reversed single #
loop $-1 $-1 $216 $85 #
plane-surface $-1 0 0 -7.5832177009889135 0 0 1 1 0 0 forward_v I I I I #
coedge $-1 $217 $218 $219 $220 forward $86 $-1 #
face $-1 $221 $222 $52 $-1 $223 reversed single #
loop $-1 $-1 $224 $88 #
plane-surface $-1 0 0 -7.5832177009889135 0 0 1 1 0 0 forward_v I I I I #
coedge $-1 $225 $226 $227 $228 forward $89 $-1 #
face $-1 $229 $230 $53 $-1 $231 reversed single #
loop $-1 $-1 $232 $91 #
plane-surface $-1 0 0 -7.5832177009889135 0 0 1 1 0 0 forward_v I I I I #
coedge $-1 $233 $234 $235 $236 forward $92 $-1 #
face $-1 $237 $238 $54 $-1 $239 reversed single #
loop $-1 $-1 $240 $94 #
plane-surface $-1 0 0 -104.85427411725212 0 0 1 1 0 0 forward_v I I I I #
coedge $-1 $241 $242 $243 $244 forward $95 $-1 #
face $-1 $-1 $245 $55 $-1 $246 forward single #
loop $-1 $-1 $247 $97 #
plane-surface $-1 0 0 -5.2302697836237684 0 0 -1 -1 0 0 forward_v I I I I #
loop $-1 $-1 $248 $72 #
coedge $-1 $156 $156 $247 $249 reversed $98 $-1 #
face $-1 $-1 $250 $56 $-1 $251 forward single #
loop $-1 $-1 $252 $100 #
plane-surface $-1 0 0 -5.2302697836237684 0 0 -1 -1 0 0 forward_v I I I I #
loop $-1 $-1 $253 $73 #
coedge $-1 $161 $161 $252 $254 reversed $101 $-1 #
face $-1 $255 $256 $57 $-1 $257 reversed single #
loop $-1 $-1 $258 $103 #
plane-surface $-1 0 0 -104.85427411725212 0 0 1 1 0 0 forward_v I I I I #
coedge $-1 $259 $260 $261 $262 forward $104 $-1 #
face $-1 $-1 $263 $58 $-1 $264 forward single #
loop $-1 $-1 $265 $106 #
plane-surface $-1 0 0 -5.2302697836237684 0 0 -1 -1 0 0 forward_v I I I I #
loop $-1 $-1 $266 $75 #
coedge $-1 $170 $170 $265 $267 reversed $107 $-1 #
face $-1 $-1 $268 $59 $-1 $269 forward single #
loop $-1 $-1 $270 $109 #
plane-surface $-1 0 0 -5.2302697836237684 0 0 -1 -1 0 0 forward_v I I I I #
loop $-1 $-1 $271 $76 #
coedge $-1 $175 $175 $270 $272 reversed $110 $-1 #
face $-1 $273 $274 $60 $-1 $275 reversed single #
loop $-1 $-1 $276 $112 #
plane-surface $-1 0 0 -104.85427411725212 0 0 1 1 0 0 forward_v I I I I #
coedge $-1 $277 $278 $279 $280 forward $113 $-1 #
face $-1 $-1 $281 $61 $-1 $282 forward single #
loop $-1 $-1 $283 $115 #
plane-surface $-1 0 0 -5.2302697836237684 0 0 -1 -1 0 0 forward_v I I I I #
loop $-1 $-1 $284 $78 #
coedge $-1 $184 $184 $283 $285 reversed $116 $-1 #
face $-1 $-1 $286 $62 $-1 $287 forward single #
loop $-1 $-1 $288 $118 #
plane-surface $-1 0 0 -5.2302697836237684 0 0 -1 -1 0 0 forward_v I I I I #
loop $-1 $-1 $289 $79 #
coedge $-1 $189 $189 $288 $290 reversed $119 $-1 #
face $-1 $291 $292 $63 $-1 $293 reversed single #
loop $-1 $-1 $294 $121 #
plane-surface $-1 0 0 -104.85427411725212 0 0 1 1 0 0 forward_v I I I I #
coedge $-1 $295 $296 $297 $298 forward $122 $-1 #
face $-1 $-1 $299 $64 $-1 $300 forward single #
loop $-1 $-1 $301 $124 #
plane-surface $-1 0 0 -5.2302697836237684 0 0 -1 -1 0 0 forward_v I I I I #
loop $-1 $-1 $302 $81 #
coedge $-1 $198 $198 $301 $303 reversed $125 $-1 #
face $-1 $-1 $304 $65 $-1 $305 forward single #
loop $-1 $-1 $306 $127 #
plane-surface $-1 0 0 -5.2302697836237684 0 0 -1 -1 0 0 forward_v I I I I #
loop $-1 $-1 $307 $82 #
coedge $-1 $203 $203 $306 $308 reversed $128 $-1 #
face $-1 $309 $310 $66 $-1 $311 reversed single #
loop $-1 $-1 $312 $130 #
plane-surface $-1 0 0 -104.85427411725212 0 0 1 1 0 0 forward_v I I I I #
coedge $-1 $313 $314 $315 $316 forward $131 $-1 #
face $-1 $-1 $317 $67 $-1 $318 forward single #
loop $-1 $-1 $319 $133 #
plane-surface $-1 0 0 -3.51623584704123 0 0 -1 -1 0 0 forward_v I I I I #
loop $-1 $-1 $320 $84 #
coedge $-1 $212 $212 $319 $321 reversed $134 $-1 #
face $-1 $322 $323 $51 $-1 $324 reversed single #
loop $-1 $-1 $325 $136 #
plane-surface $-1 0 -28.338365978388481 0 0 1 0 0 0 1 forward_v I I I I #
coedge $-1 $326 $327 $328 $329 forward $137 $-1 #
coedge $-1 $330 $139 $331 $332 forward $86 $-1 #
coedge $-1 $139 $330 $333 $334 forward $86 $-1 #
coedge $-1 $335 $336 $139 $220 reversed $337 $-1 #
edge $-1 $338 -28.338365978388481 $339 28.338365978388481 $219 $340 forward 7 unknown #
face $-1 $341 $342 $52 $-1 $343 reversed single #
loop $-1 $-1 $344 $140 #
plane-surface $-1 0 -1.5 0 0 1 0 0 0 1 forward_v I I I I #
coedge $-1 $345 $346 $347 $348 forward $141 $-1 #
coedge $-1 $349 $143 $350 $351 forward $89 $-1 #
coedge $-1 $143 $349 $352 $353 forward $89 $-1 #
coedge $-1 $354 $355 $143 $228 reversed $356 $-1 #
edge $-1 $357 -1.5 $358 1.5 $227 $359 forward 7 unknown #
face $-1 $360 $361 $53 $-1 $362 reversed single #
loop $-1 $-1 $363 $144 #
plane-surface $-1 0 -1.5 0 0 1 0 0 0 1 forward_v I I I I #
coedge $-1 $364 $365 $366 $367 forward $145 $-1 #
coedge $-1 $368 $147 $369 $370 forward $92 $-1 #
coedge $-1 $147 $368 $371 $372 forward $92 $-1 #
coedge $-1 $373 $374 $147 $236 reversed $375 $-1 #
edge $-1 $376 -1.5 $377 1.5 $235 $378 forward 7 unknown #
face $-1 $379 $380 $54 $-1 $381 reversed single #
loop $-1 $-1 $382 $148 #
plane-surface $-1 0 -209.70854823450424 0 0 1 0 0 0 1 forward_v I I I I #
coedge $-1 $383 $384 $385 $386 forward $149 $-1 #
coedge $-1 $387 $151 $388 $389 forward $95 $-1 #
coedge $-1 $151 $387 $390 $391 forward $95 $-1 #
coedge $-1 $392 $393 $151 $244 reversed $394 $-1 #
edge $-1 $395 -209.70854823450424 $396 209.70854823450424 $243 $397 forward 7 unknown #
loop $-1 $398 $399 $152 #
cone-surface $-1 0 0 0 0 0 1 0.75 0 0 1 I I -0.70710678118654757 0.70710678118654757 0.75 forward I I I I #
coedge $-1 $247 $247 $156 $249 forward $153 $-1 #
coedge $-1 $248 $248 $399 $400 forward $155 $-1 #
edge $-1 $401 0 $401 6.2831853071796004 $247 $402 forward 7 unknown #
loop $-1 $403 $404 $157 #
cone-surface $-1 0 0 0 0 0 1 0.75 0 0 1 I I -0.70710678118654757 0.70710678118654757 0.75 forward I I I I #
coedge $-1 $252 $252 $161 $254 forward $158 $-1 #
coedge $-1 $253 $253 $404 $405 forward $160 $-1 #
edge $-1 $406 0 $406 6.2831853071796004 $252 $407 forward 7 unknown #
face $-1 $408 $409 $57 $-1 $410 reversed single #
loop $-1 $-1 $411 $162 #
plane-surface $-1 0 -209.70854823450424 0 0 1 0 0 0 1 forward_v I I I I #
coedge $-1 $412 $413 $414 $415 forward $163 $-1 #
coedge $-1 $416 $165 $417 $418 forward $104 $-1 #
coedge $-1 $165 $416 $419 $420 forward $104 $-1 #
coedge $-1 $421 $422 $165 $262 reversed $423 $-1 #
edge $-1 $424 -209.70854823450424 $425 209.70854823450424 $261 $426 forward 7 unknown #
loop $-1 $427 $428 $166 #
cone-surface $-1 0 0 0 0 0 1 0.75 0 0 1 I I -0.70710678118654757 0.70710678118654757 0.75 forward I I I I #
coedge $-1 $265 $265 $170 $267 forward $167 $-1 #
coedge $-1 $266 $266 $428 $429 forward $169 $-1 #
edge $-1 $430 0 $430 6.2831853071796004 $265 $431 forward 7 unknown #
loop $-1 $432 $433 $171 #
cone-surface $-1 0 0 0 0 0 1 0.75 0 0 1 I I -0.70710678118654757 0.70710678118654757 0.75 forward I I I I #
coedge $-1 $270 $270 $175 $272 forward $172 $-1 #
coedge $-1 $271 $271 $433 $434 forward $174 $-1 #
edge $-1 $435 0 $435 6.2831853071796004 $270 $436 forward 7 unknown #
face $-1 $437 $438 $60 $-1 $439 reversed single #
loop $-1 $-1 $440 $176 #
plane-surface $-1 0 -209.70854823450424 0 0 1 0 0 0 1 forward_v I I I I #
coedge $-1 $441 $442 $443 $444 forward $177 $-1 #
coedge $-1 $445 $179 $446 $447 forward $113 $-1 #
coedge $-1 $179 $445 $448 $449 forward $113 $-1 #
coedge $-1 $450 $451 $179 $280 reversed $452 $-1 #
edge $-1 $453 -209.70854823450424 $454 209.70854823450424 $279 $455 forward 7 unknown #
loop $-1 $456 $457 $180 #
cone-surface $-1 0 0 0 0 0 1 0.75 0 0 1 I I -0.70710678118654757 0.70710678118654757 0.75 forward I I I I #
coedge $-1 $283 $283 $184 $285 forward $181 $-1 #
coedge $-1 $284 $284 $457 $458 forward $183 $-1 #
edge $-1 $459 0 $459 6.2831853071796004 $283 $460 forward 7 unknown #
loop $-1 $461 $462 $185 #
cone-surface $-1 0 0 0 0 0 1 0.75 0 0 1 I I -0.70710678118654757 0.70710678118654757 0.75 forward I I I I #
coedge $-1 $288 $288 $189 $290 forward $186 $-1 #
coedge $-1 $289 $289 $462 $463 forward $188 $-1 #
edge $-1 $464 0 $464 6.2831853071796004 $288 $465 forward 7 unknown #
face $-1 $466 $467 $63 $-1 $468 reversed single #
loop $-1 $-1 $469 $190 #
plane-surface $-1 0 -209.70854823450424 0 0 1 0 0 0 1 forward_v I I I I #
coedge $-1 $470 $471 $472 $473 forward $191 $-1 #
coedge $-1 $474 $193 $475 $476 forward $122 $-1 #
coedge $-1 $193 $474 $477 $478 forward $122 $-1 #
coedge $-1 $479 $480 $193 $298 reversed $481 $-1 #
edge $-1 $482 -209.70854823450424 $483 209.70854823450424 $297 $484 forward 7 unknown #
loop $-1 $485 $486 $194 #
cone-surface $-1 0 0 0 0 0 1 0.75 0 0 1 I I -0.70710678118654757 0.70710678118654757 0.75 forward I I I I #
coedge $-1 $301 $301 $198 $303 forward $195 $-1 #
coedge $-1 $302 $302 $486 $487 forward $197 $-1 #
edge $-1 $488 0 $488 6.2831853071796004 $301 $489 forward 7 unknown #
loop $-1 $490 $491 $199 #
cone-surface $-1 0 0 0 0 0 1 0.75 0 0 1 I I -0.70710678118654757 0.70710678118654757 0.75 forward I I I I #
coedge $-1 $306 $306 $203 $308 forward $200 $-1 #
coedge $-1 $307 $307 $491 $492 forward $202 $-1 #
edge $-1 $493 0 $493 6.2831853071796004 $306 $494 forward 7 unknown #
face $-1 $495 $496 $66 $-1 $497 reversed single #
loop $-1 $-1 $498 $204 #
plane-surface $-1 0 -209.70854823450424 0 0 1 0 0 0 1 forward_v I I I I #
coedge $-1 $499 $500 $501 $502 forward $205 $-1 #
coedge $-1 $503 $207 $504 $505 forward $131 $-1 #
coedge $-1 $207 $503 $506 $507 forward $131 $-1 #
coedge $-1 $508 $509 $207 $316 reversed $510 $-1 #
edge $-1 $511 -209.70854823450424 $512 209.70854823450424 $315 $513 forward 7 unknown #
loop $-1 $514 $515 $208 #
cone-surface $-1 0 0 0 0 0 1 0.5 0 0 1 I I -0.70710678118654746 0.70710678118654746 0.5 forward I I I I #
coedge $-1 $319 $319 $212 $321 forward $209 $-1 #
coedge $-1 $320 $320 $515 $516 forward $211 $-1 #
edge $-1 $517 0 $517 6.2831853071796004 $319 $518 forward 7 unknown #
face $-1 $519 $520 $51 $-1 $521 reversed single #
loop $-1 $-1 $522 $213 #
plane-surface $-1 -52.427137058626059 0 0 1 0 0 0 0 -1 forward_v I I I I #
coedge $-1 $523 $333 $524 $525 forward $214 $-1 #
coedge $-1 $526 $216 $523 $527 forward $137 $-1 #
coedge $-1 $216 $526 $528 $529 forward $137 $-1 #
coedge $-1 $336 $335 $216 $329 reversed $337 $-1 #
edge $-1 $530 -28.338365978388481 $531 28.338365978388481 $328 $532 forward 7 unknown #
coedge $-1 $218 $217 $533 $534 forward $86 $-1 #
coedge $-1 $535 $536 $217 $332 reversed $520 $-1 #
edge $-1 $339 -52.427137058626059 $537 52.427137058626059 $331 $538 forward 7 unknown #
coedge $-1 $325 $539 $218 $334 reversed $214 $-1 #
edge $-1 $540 -52.427137058626059 $338 52.427137058626059 $333 $541 forward 7 unknown #
coedge $-1 $328 $219 $539 $542 forward $337 $-1 #
coedge $-1 $219 $328 $535 $543 reversed $337 $-1 #
loop $-1 $-1 $335 $519 #
vertex $-1 $220 $544 #
vertex $-1 $220 $545 #
straight-curve $-1 52.427137058626059 0 7.5832177009889135 0 1 0 I I #
face $-1 $546 $547 $52 $-1 $548 reversed single #
loop $-1 $-1 $549 $221 #
plane-surface $-1 -3.533399443061755 0 0 1 0 0 0 0 -1 forward_v I I I I #
coedge $-1 $550 $352 $551 $552 forward $222 $-1 #
coedge $-1 $553 $224 $550 $554 forward $141 $-1 #
coedge $-1 $224 $553 $555 $556 forward $141 $-1 #
coedge $-1 $355 $354 $224 $348 reversed $356 $-1 #
edge $-1 $557 -1.5 $558 1.5 $347 $559 forward 7 unknown #
coedge $-1 $226 $225 $560 $561 forward $89 $-1 #
coedge $-1 $562 $563 $225 $351 reversed $547 $-1 #
edge $-1 $358 -3.533399443061755 $564 3.533399443061755 $350 $565 forward 7 unknown #
coedge $-1 $344 $566 $226 $353 reversed $222 $-1 #
edge $-1 $567 -3.533399443061755 $357 3.533399443061755 $352 $568 forward 7 unknown #
coedge $-1 $347 $227 $566 $569 forward $356 $-1 #
coedge $-1 $227 $347 $562 $570 reversed $356 $-1 #
loop $-1 $-1 $354 $546 #
vertex $-1 $228 $571 #
vertex $-1 $228 $572 #
straight-curve $-1 3.533399443061755 0 7.5832177009889135 0 1 0 I I #
face $-1 $573 $574 $53 $-1 $575 reversed single #
loop $-1 $-1 $576 $229 #
plane-surface $-1 -3.5333994430617537 0 0 1 0 0 0 0 -1 forward_v I I I I #
coedge $-1 $577 $371 $578 $579 forward $230 $-1 #
coedge $-1 $580 $232 $577 $581 forward $145 $-1 #
coedge $-1 $232 $580 $582 $583 forward $145 $-1 #
coedge $-1 $374 $373 $232 $367 reversed $375 $-1 #
edge $-1 $584 -1.5 $585 1.5 $366 $586 forward 7 unknown #
coedge $-1 $234 $233 $587 $588 forward $92 $-1 #
coedge $-1 $589 $590 $233 $370 reversed $574 $-1 #
edge $-1 $377 -3.5333994430617537 $591 3.5333994430617537 $369 $592 forward 7 unknown #
coedge $-1 $363 $593 $234 $372 reversed $230 $-1 #
edge $-1 $594 -3.5333994430617537 $376 3.5333994430617537 $371 $595 forward 7 unknown #
coedge $-1 $366 $235 $593 $596 forward $375 $-1 #
coedge $-1 $235 $366 $589 $597 reversed $375 $-1 #
loop $-1 $-1 $373 $573 #
vertex $-1 $236 $598 #
vertex $-1 $236 $599 #
straight-curve $-1 3.5333994430617537 0 7.5832177009889135 0 1 0 I I #
face $-1 $600 $601 $54 $-1 $602 reversed single #
loop $-1 $-1 $603 $237 #
plane-surface $-1 -7.6528526104076837 0 0 1 0 0 0 0 -1 forward_v I I I I #
coedge $-1 $604 $390 $605 $606 forward $238 $-1 #
coedge $-1 $607 $240 $604 $608 forward $149 $-1 #
coedge $-1 $240 $607 $609 $610 forward $149 $-1 #
coedge $-1 $393 $392 $240 $386 reversed $394 $-1 #
edge $-1 $611 -209.70854823450424 $612 209.70854823450424 $385 $613 forward 7 unknown #
coedge $-1 $242 $241 $614 $615 forward $95 $-1 #
coedge $-1 $616 $617 $241 $389 reversed $601 $-1 #
edge $-1 $396 -7.6528526104076837 $618 7.6528526104076837 $388 $619 forward 7 unknown #
coedge $-1 $382 $620 $242 $391 reversed $238 $-1 #
edge $-1 $621 -7.6528526104076837 $395 7.6528526104076837 $390 $622 forward 7 unknown #
coedge $-1 $385 $243 $620 $623 forward $394 $-1 #
coedge $-1 $243 $385 $616 $624 reversed $394 $-1 #
loop $-1 $-1 $392 $600 #
vertex $-1 $244 $625 #
vertex $-1 $244 $626 #
straight-curve $-1 7.6528526104076837 0 104.85427411725212 0 1 0 I I #
loop $-1 $-1 $627 $152 #
coedge $-1 $399 $399 $248 $400 reversed $245 $-1 #
edge $-1 $628 0 $628 6.2831853071796004 $399 $629 forward 7 unknown #
vertex $-1 $249 $630 #
ellipse-curve $-1 0 0 -5.2302697836237684 0 0 -1 1.5 0 0 1 I I #
loop $-1 $-1 $631 $157 #
coedge $-1 $404 $404 $253 $405 reversed $250 $-1 #
edge $-1 $632 0 $632 6.2831853071796004 $404 $633 forward 7 unknown #
vertex $-1 $254 $634 #
ellipse-curve $-1 0 0 -5.2302697836237684 0 0 -1 1.5 0 0 1 I I #
face $-1 $635 $636 $57 $-1 $637 reversed single #
loop $-1 $-1 $638 $255 #
plane-surface $-1 -7.6528526104076837 0 0 1 0 0 0 0 -1 forward_v I I I I #
coedge $-1 $639 $419 $640 $641 forward $256 $-1 #
coedge $-1 $642 $258 $639 $643 forward $163 $-1 #
coedge $-1 $258 $642 $644 $645 forward $163 $-1 #
coedge $-1 $422 $421 $258 $415 reversed $423 $-1 #
edge $-1 $646 -209.70854823450424 $647 209.70854823450424 $414 $648 forward 7 unknown #
coedge $-1 $260 $259 $649 $650 forward $104 $-1 #
coedge $-1 $651 $652 $259 $418 reversed $636 $-1 #
edge $-1 $425 -7.6528526104076837 $653 7.6528526104076837 $417 $654 forward 7 unknown #
coedge $-1 $411 $655 $260 $420 reversed $256 $-1 #
edge $-1 $656 -7.6528526104076837 $424 7.6528526104076837 $419 $657 forward 7 unknown #
coedge $-1 $414 $261 $655 $658 forward $423 $-1 #
coedge $-1 $261 $414 $651 $659 reversed $423 $-1 #
loop $-1 $-1 $421 $635 #
vertex $-1 $262 $660 #
vertex $-1 $262 $661 #
straight-curve $-1 7.6528526104076837 0 104.85427411725212 0 1 0 I I #
loop $-1 $-1 $662 $166 #
coedge $-1 $428 $428 $266 $429 reversed $263 $-1 #
edge $-1 $663 0 $663 6.2831853071796004 $428 $664 forward 7 unknown #
vertex $-1 $267 $665 #
ellipse-curve $-1 0 0 -5.2302697836237684 0 0 -1 1.5 0 0 1 I I #
loop $-1 $-1 $666 $171 #
coedge $-1 $433 $433 $271 $434 reversed $268 $-1 #
edge $-1 $667 0 $667 6.2831853071796004 $433 $668 forward 7 unknown #
vertex $-1 $272 $669 #
ellipse-curve $-1 0 0 -5.2302697836237684 0 0 -1 1.5 0 0 1 I I #
face $-1 $670 $671 $60 $-1 $672 reversed single #
loop $-1 $-1 $673 $273 #
plane-surface $-1 -7.6528526104076837 0 0 1 0 0 0 0 -1 forward_v I I I I #
coedge $-1 $674 $448 $675 $676 forward $274 $-1 #
coedge $-1 $677 $276 $674 $678 forward $177 $-1 #
coedge $-1 $276 $677 $679 $680 forward $177 $-1 #
coedge $-1 $451 $450 $276 $444 reversed $452 $-1 #
edge $-1 $681 -209.70854823450424 $682 209.70854823450424 $443 $683 forward 7 unknown #
coedge $-1 $278 $277 $684 $685 forward $113 $-1 #
coedge $-1 $686 $687 $277 $447 reversed $671 $-1 #
edge $-1 $454 -7.6528526104076837 $688 7.6528526104076837 $446 $689 forward 7 unknown #
coedge $-1 $440 $690 $278 $449 reversed $274 $-1 #
edge $-1 $691 -7.6528526104076837 $453 7.6528526104076837 $448 $692 forward 7 unknown #
coedge $-1 $443 $279 $690 $693 forward $452 $-1 #
coedge $-1 $279 $443 $686 $694 reversed $452 $-1 #
loop $-1 $-1 $450 $670 #
vertex $-1 $280 $695 #
vertex $-1 $280 $696 #
straight-curve $-1 7.6528526104076837 0 104.85427411725212 0 1 0 I I #
loop $-1 $-1 $697 $180 #
coedge $-1 $457 $457 $284 $458 reversed $281 $-1 #
edge $-1 $698 0 $698 6.2831853071796004 $457 $699 forward 7 unknown #
vertex $-1 $285 $700 #
ellipse-curve $-1 0 0 -5.2302697836237684 0 0 -1 1.5 0 0 1 I I #
loop $-1 $-1 $701 $185 #
coedge $-1 $462 $462 $289 $463 reversed $286 $-1 #
edge $-1 $702 0 $702 6.2831853071796004 $462 $703 forward 7 unknown #
vertex $-1 $290 $704 #
ellipse-curve $-1 0 0 -5.2302697836237684 0 0 -1 1.5 0 0 1 I I #
face $-1 $705 $706 $63 $-1 $707 reversed single #
loop $-1 $-1 $708 $291 #
plane-surface $-1 -7.6528526104076837 0 0 1 0 0 0 0 -1 forward_v I I I I #
coedge $-1 $709 $477 $710 $711 forward $292 $-1 #
coedge $-1 $712 $294 $709 $713 forward $191 $-1 #
coedge $-1 $294 $712 $714 $715 forward $191 $-1 #
coedge $-1 $480 $479 $294 $473 reversed $481 $-1 #
edge $-1 $716 -209.70854823450424 $717 209.70854823450424 $472 $718 forward 7 unknown #
coedge $-1 $296 $295 $719 $720 forward $122 $-1 #
coedge $-1 $721 $722 $295 $476 reversed $706 $-1 #
edge $-1 $483 -7.6528526104076837 $723 7.6528526104076837 $475 $724 forward 7 unknown #
coedge $-1 $469 $725 $296 $478 reversed $292 $-1 #
edge $-1 $726 -7.6528526104076837 $482 7.6528526104076837 $477 $727 forward 7 unknown #
coedge $-1 $472 $297 $725 $728 forward $481 $-1 #
coedge $-1 $297 $472 $721 $729 reversed $481 $-1 #
loop $-1 $-1 $479 $705 #
vertex $-1 $298 $730 #
vertex $-1 $298 $731 #
straight-curve $-1 7.6528526104076837 0 104.85427411725212 0 1 0 I I #
loop $-1 $-1 $732 $194 #
coedge $-1 $486 $486 $302 $487 reversed $299 $-1 #
edge $-1 $733 0 $733 6.2831853071796004 $486 $734 forward 7 unknown #
vertex $-1 $303 $735 #
ellipse-curve $-1 0 0 -5.2302697836237684 0 0 -1 1.5 0 0 1 I I #
loop $-1 $-1 $736 $199 #
coedge $-1 $491 $491 $307 $492 reversed $304 $-1 #
edge $-1 $737 0 $737 6.2831853071796004 $491 $738 forward 7 unknown #
vertex $-1 $308 $739 #
ellipse-curve $-1 0 0 -5.2302697836237684 0 0 -1 1.5 0 0 1 I I #
face $-1 $740 $741 $66 $-1 $742 reversed single #
loop $-1 $-1 $743 $309 #
plane-surface $-1 -12.652360081643778 0 0 1 0 0 0 0 -1 forward_v I I I I #
coedge $-1 $744 $506 $745 $746 forward $310 $-1 #
coedge $-1 $747 $312 $744 $748 forward $205 $-1 #
coedge $-1 $312 $747 $749 $750 forward $205 $-1 #
coedge $-1 $509 $508 $312 $502 reversed $510 $-1 #
edge $-1 $751 -209.70854823450424 $752 209.70854823450424 $501 $753 forward 7 unknown #
coedge $-1 $314 $313 $754 $755 forward $131 $-1 #
coedge $-1 $756 $757 $313 $505 reversed $741 $-1 #
edge $-1 $512 -12.652360081643778 $758 12.652360081643778 $504 $759 forward 7 unknown #
coedge $-1 $498 $760 $314 $507 reversed $310 $-1 #
edge $-1 $761 -12.652360081643778 $511 12.652360081643778 $506 $762 forward 7 unknown #
coedge $-1 $501 $315 $760 $763 forward $510 $-1 #
coedge $-1 $315 $501 $756 $764 reversed $510 $-1 #
loop $-1 $-1 $508 $740 #
vertex $-1 $316 $765 #
vertex $-1 $316 $766 #
straight-curve $-1 12.652360081643778 0 104.85427411725212 0 1 0 I I #
loop $-1 $-1 $767 $208 #
coedge $-1 $515 $515 $320 $516 reversed $317 $-1 #
edge $-1 $768 0 $768 6.2831853071796004 $515 $769 forward 7 unknown #
vertex $-1 $321 $770 #
ellipse-curve $-1 0 0 -3.51623584704123 0 0 -1 1 0 0 1 I I #
face $-1 $-1 $337 $51 $-1 $771 reversed single #
loop $-1 $-1 $535 $322 #
plane-surface $-1 0 28.338365978388481 0 0 -1 0 0 0 -1 forward_v I I I I #
coedge $-1 $772 $533 $536 $773 forward $323 $-1 #
coedge $-1 $539 $325 $326 $527 reversed $214 $-1 #
coedge $-1 $533 $772 $325 $525 reversed $323 $-1 #
edge $-1 $540 -7.5832177009889135 $774 7.5832177009889135 $524 $775 forward 7 unknown #
coedge $-1 $327 $326 $772 $776 forward $137 $-1 #
edge $-1 $531 -52.427137058626059 $774 52.427137058626059 $523 $777 forward 7 unknown #
coedge $-1 $536 $535 $327 $529 reversed $520 $-1 #
edge $-1 $778 -52.427137058626059 $530 52.427137058626059 $528 $779 forward 7 unknown #
vertex $-1 $329 $780 #
vertex $-1 $542 $781 #
straight-curve $-1 52.427137058626059 0 -7.5832177009889135 0 -1 0 I I #
coedge $-1 $522 $524 $330 $534 reversed $323 $-1 #
edge $-1 $537 -28.338365978388481 $540 28.338365978388481 $533 $782 forward 7 unknown #
coedge $-1 $528 $331 $336 $543 forward $520 $-1 #
coedge $-1 $331 $528 $522 $773 reversed $520 $-1 #
vertex $-1 $332 $783 #
straight-curve $-1 0 28.338365978388481 7.5832177009889135 -1 0 0 I I #
coedge $-1 $333 $523 $335 $542 reversed $214 $-1 #
vertex $-1 $534 $784 #
straight-curve $-1 0 -28.338365978388481 7.5832177009889135 1 0 0 I I #
edge $-1 $338 -7.5832177009889135 $531 7.5832177009889135 $335 $785 forward 7 unknown #
edge $-1 $339 -7.5832177009889135 $530 7.5832177009889135 $336 $786 forward 7 unknown #
point $-1 52.427137058626059 -28.338365978388481 7.5832177009889135 #
point $-1 52.427137058626059 28.338365978388481 7.5832177009889135 #
face $-1 $-1 $356 $52 $-1 $787 reversed single #
loop $-1 $-1 $562 $341 #
plane-surface $-1 0 1.5 0 0 -1 0 0 0 -1 forward_v I I I I #
coedge $-1 $788 $560 $563 $789 forward $342 $-1 #
coedge $-1 $566 $344 $345 $554 reversed $222 $-1 #
coedge $-1 $560 $788 $344 $552 reversed $342 $-1 #
edge $-1 $567 -7.5832177009889135 $790 7.5832177009889135 $551 $791 forward 7 unknown #
coedge $-1 $346 $345 $788 $792 forward $141 $-1 #
edge $-1 $558 -3.533399443061755 $790 3.533399443061755 $550 $793 forward 7 unknown #
coedge $-1 $563 $562 $346 $556 reversed $547 $-1 #
edge $-1 $794 -3.533399443061755 $557 3.533399443061755 $555 $795 forward 7 unknown #
vertex $-1 $348 $796 #
vertex $-1 $569 $797 #
straight-curve $-1 3.533399443061755 0 -7.5832177009889135 0 -1 0 I I #
coedge $-1 $549 $551 $349 $561 reversed $342 $-1 #
edge $-1 $564 -1.5 $567 1.5 $560 $798 forward 7 unknown #
coedge $-1 $555 $350 $355 $570 forward $547 $-1 #
coedge $-1 $350 $555 $549 $789 reversed $547 $-1 #
vertex $-1 $351 $799 #
straight-curve $-1 0 1.5 7.5832177009889135 -1 0 0 I I #
coedge $-1 $352 $550 $354 $569 reversed $222 $-1 #
vertex $-1 $561 $800 #
straight-curve $-1 0 -1.5 7.5832177009889135 1 0 0 I I #
edge $-1 $357 -7.5832177009889135 $558 7.5832177009889135 $354 $801 forward 7 unknown #
edge $-1 $358 -7.5832177009889135 $557 7.5832177009889135 $355 $802 forward 7 unknown #
point $-1 3.533399443061755 -1.5 7.5832177009889135 #
point $-1 3.533399443061755 1.5 7.5832177009889135 #
face $-1 $-1 $375 $53 $-1 $803 reversed single #
loop $-1 $-1 $589 $360 #
plane-surface $-1 0 1.5 0 0 -1 0 0 0 -1 forward_v I I I I #
coedge $-1 $804 $587 $590 $805 forward $361 $-1 #
coedge $-1 $593 $363 $364 $581 reversed $230 $-1 #
coedge $-1 $587 $804 $363 $579 reversed $361 $-1 #
edge $-1 $594 -7.5832177009889135 $806 7.5832177009889135 $578 $807 forward 7 unknown #
coedge $-1 $365 $364 $804 $808 forward $145 $-1 #
edge $-1 $585 -3.5333994430617537 $806 3.5333994430617537 $577 $809 forward 7 unknown #
coedge $-1 $590 $589 $365 $583 reversed $574 $-1 #
edge $-1 $810 -3.5333994430617537 $584 3.5333994430617537 $582 $811 forward 7 unknown #
vertex $-1 $367 $812 #
vertex $-1 $596 $813 #
straight-curve $-1 3.5333994430617537 0 -7.5832177009889135 0 -1 0 I I #
coedge $-1 $576 $578 $368 $588 reversed $361 $-1 #
edge $-1 $591 -1.5 $594 1.5 $587 $814 forward 7 unknown #
coedge $-1 $582 $369 $374 $597 forward $574 $-1 #
coedge $-1 $369 $582 $576 $805 reversed $574 $-1 #
vertex $-1 $370 $815 #
straight-curve $-1 0 1.5 7.5832177009889135 -1 0 0 I I #
coedge $-1 $371 $577 $373 $596 reversed $230 $-1 #
vertex $-1 $588 $816 #
straight-curve $-1 0 -1.5 7.5832177009889135 1 0 0 I I #
edge $-1 $376 -7.5832177009889135 $585 7.5832177009889135 $373 $817 forward 7 unknown #
edge $-1 $377 -7.5832177009889135 $584 7.5832177009889135 $374 $818 forward 7 unknown #
point $-1 3.5333994430617537 -1.5 7.5832177009889135 #
point $-1 3.5333994430617537 1.5 7.5832177009889135 #
face $-1 $-1 $394 $54 $-1 $819 reversed single #
loop $-1 $-1 $616 $379 #
plane-surface $-1 0 209.70854823450424 0 0 -1 0 0 0 -1 forward_v I I I I #
coedge $-1 $820 $614 $617 $821 forward $380 $-1 #
coedge $-1 $620 $382 $383 $608 reversed $238 $-1 #
coedge $-1 $614 $820 $382 $606 reversed $380 $-1 #
edge $-1 $621 -104.85427411725212 $822 104.85427411725212 $605 $823 forward 7 unknown #
coedge $-1 $384 $383 $820 $824 forward $149 $-1 #
edge $-1 $612 -7.6528526104076837 $822 7.6528526104076837 $604 $825 forward 7 unknown #
coedge $-1 $617 $616 $384 $610 reversed $601 $-1 #
edge $-1 $826 -7.6528526104076837 $611 7.6528526104076837 $609 $827 forward 7 unknown #
vertex $-1 $386 $828 #
vertex $-1 $623 $829 #
straight-curve $-1 7.6528526104076837 0 -104.85427411725212 0 -1 0 I I #
coedge $-1 $603 $605 $387 $615 reversed $380 $-1 #
edge $-1 $618 -209.70854823450424 $621 209.70854823450424 $614 $830 forward 7 unknown #
coedge $-1 $609 $388 $393 $624 forward $601 $-1 #
coedge $-1 $388 $609 $603 $821 reversed $601 $-1 #
vertex $-1 $389 $831 #
straight-curve $-1 0 209.70854823450424 104.85427411725212 -1 0 0 I I #
coedge $-1 $390 $604 $392 $623 reversed $238 $-1 #
vertex $-1 $615 $832 #
straight-curve $-1 0 -209.70854823450424 104.85427411725212 1 0 0 I I #
edge $-1 $395 -104.85427411725212 $612 104.85427411725212 $392 $833 forward 7 unknown #
edge $-1 $396 -104.85427411725212 $611 104.85427411725212 $393 $834 forward 7 unknown #
point $-1 7.6528526104076837 -209.70854823450424 104.85427411725212 #
point $-1 7.6528526104076837 209.70854823450424 104.85427411725212 #
coedge $-1 $627 $627 $-1 $835 reversed $398 $-1 #
vertex $-1 $400 $836 #
ellipse-curve $-1 0 0 -0.75 0 0 -1 1.5 0 0 1 I I #
point $-1 1.5 0 -5.2302697836237684 #
coedge $-1 $631 $631 $-1 $837 reversed $403 $-1 #
vertex $-1 $405 $838 #
ellipse-curve $-1 0 0 -0.75 0 0 -1 1.5 0 0 1 I I #
point $-1 1.5 0 -5.2302697836237684 #
face $-1 $-1 $423 $57 $-1 $839 reversed single #
loop $-1 $-1 $651 $408 #
plane-surface $-1 0 209.70854823450424 0 0 -1 0 0 0 -1 forward_v I I I I #
coedge $-1 $840 $649 $652 $841 forward $409 $-1 #
coedge $-1 $655 $411 $412 $643 reversed $256 $-1 #
coedge $-1 $649 $840 $411 $641 reversed $409 $-1 #
edge $-1 $656 -104.85427411725212 $842 104.85427411725212 $640 $843 forward 7 unknown #
coedge $-1 $413 $412 $840 $844 forward $163 $-1 #
edge $-1 $647 -7.6528526104076837 $842 7.6528526104076837 $639 $845 forward 7 unknown #
coedge $-1 $652 $651 $413 $645 reversed $636 $-1 #
edge $-1 $846 -7.6528526104076837 $646 7.6528526104076837 $644 $847 forward 7 unknown #
vertex $-1 $415 $848 #
vertex $-1 $658 $849 #
straight-curve $-1 7.6528526104076837 0 -104.85427411725212 0 -1 0 I I #
coedge $-1 $638 $640 $416 $650 reversed $409 $-1 #
edge $-1 $653 -209.70854823450424 $656 209.70854823450424 $649 $850 forward 7 unknown #
coedge $-1 $644 $417 $422 $659 forward $636 $-1 #
coedge $-1 $417 $644 $638 $841 reversed $636 $-1 #
vertex $-1 $418 $851 #
straight-curve $-1 0 209.70854823450424 104.85427411725212 -1 0 0 I I #
coedge $-1 $419 $639 $421 $658 reversed $256 $-1 #
vertex $-1 $650 $852 #
straight-curve $-1 0 -209.70854823450424 104.85427411725212 1 0 0 I I #
edge $-1 $424 -104.85427411725212 $647 104.85427411725212 $421 $853 forward 7 unknown #
edge $-1 $425 -104.85427411725212 $646 104.85427411725212 $422 $854 forward 7 unknown #
point $-1 7.6528526104076837 -209.70854823450424 104.85427411725212 #
point $-1 7.6528526104076837 209.70854823450424 104.85427411725212 #
coedge $-1 $662 $662 $-1 $855 reversed $427 $-1 #
vertex $-1 $429 $856 #
ellipse-curve $-1 0 0 -0.75 0 0 -1 1.5 0 0 1 I I #
point $-1 1.5 0 -5.2302697836237684 #
coedge $-1 $666 $666 $-1 $857 reversed $432 $-1 #
vertex $-1 $434 $858 #
ellipse-curve $-1 0 0 -0.75 0 0 -1 1.5 0 0 1 I I #
point $-1 1.5 0 -5.2302697836237684 #
face $-1 $-1 $452 $60 $-1 $859 reversed single #
loop $-1 $-1 $686 $437 #
plane-surface $-1 0 209.70854823450424 0 0 -1 0 0 0 -1 forward_v I I I I #
coedge $-1 $860 $684 $687 $861 forward $438 $-1 #
coedge $-1 $690 $440 $441 $678 reversed $274 $-1 #
coedge $-1 $684 $860 $440 $676 reversed $438 $-1 #
edge $-1 $691 -104.85427411725212 $862 104.85427411725212 $675 $863 forward 7 unknown #
coedge $-1 $442 $441 $860 $864 forward $177 $-1 #
edge $-1 $682 -7.6528526104076837 $862 7.6528526104076837 $674 $865 forward 7 unknown #
coedge $-1 $687 $686 $442 $680 reversed $671 $-1 #
edge $-1 $866 -7.6528526104076837 $681 7.6528526104076837 $679 $867 forward 7 unknown #
vertex $-1 $444 $868 #
vertex $-1 $693 $869 #
straight-curve $-1 7.6528526104076837 0 -104.85427411725212 0 -1 0 I I #
coedge $-1 $673 $675 $445 $685 reversed $438 $-1 #
edge $-1 $688 -209.70854823450424 $691 209.70854823450424 $684 $870 forward 7 unknown #
coedge $-1 $679 $446 $451 $694 forward $671 $-1 #
coedge $-1 $446 $679 $673 $861 reversed $671 $-1 #
vertex $-1 $447 $871 #
straight-curve $-1 0 209.70854823450424 104.85427411725212 -1 0 0 I I #
coedge $-1 $448 $674 $450 $693 reversed $274 $-1 #
vertex $-1 $685 $872 #
straight-curve $-1 0 -209.70854823450424 104.85427411725212 1 0 0 I I #
edge $-1 $453 -104.85427411725212 $682 104.85427411725212 $450 $873 forward 7 unknown #
edge $-1 $454 -104.85427411725212 $681 104.85427411725212 $451 $874 forward 7 unknown #
point $-1 7.6528526104076837 -209.70854823450424 104.85427411725212 #
point $-1 7.6528526104076837 209.70854823450424 104.85427411725212 #
coedge $-1 $697 $697 $-1 $875 reversed $456 $-1 #
vertex $-1 $458 $876 #
ellipse-curve $-1 0 0 -0.75 0 0 -1 1.5 0 0 1 I I #
point $-1 1.5 0 -5.2302697836237684 #
coedge $-1 $701 $701 $-1 $877 reversed $461 $-1 #
vertex $-1 $463 $878 #
ellipse-curve $-1 0 0 -0.75 0 0 -1 1.5 0 0 1 I I #
point $-1 1.5 0 -5.2302697836237684 #
face $-1 $-1 $481 $63 $-1 $879 reversed single #
loop $-1 $-1 $721 $466 #
plane-surface $-1 0 209.70854823450424 0 0 -1 0 0 0 -1 forward_v I I I I #
coedge $-1 $880 $719 $722 $881 forward $467 $-1 #
coedge $-1 $725 $469 $470 $713 reversed $292 $-1 #
coedge $-1 $719 $880 $469 $711 reversed $467 $-1 #
edge $-1 $726 -104.85427411725212 $882 104.85427411725212 $710 $883 forward 7 unknown #
coedge $-1 $471 $470 $880 $884 forward $191 $-1 #
edge $-1 $717 -7.6528526104076837 $882 7.6528526104076837 $709 $885 forward 7 unknown #
coedge $-1 $722 $721 $471 $715 reversed $706 $-1 #
edge $-1 $886 -7.6528526104076837 $716 7.6528526104076837 $714 $887 forward 7 unknown #
vertex $-1 $473 $888 #
vertex $-1 $728 $889 #
straight-curve $-1 7.6528526104076837 0 -104.85427411725212 0 -1 0 I I #
coedge $-1 $708 $710 $474 $720 reversed $467 $-1 #
edge $-1 $723 -209.70854823450424 $726 209.70854823450424 $719 $890 forward 7 unknown #
coedge $-1 $714 $475 $480 $729 forward $706 $-1 #
coedge $-1 $475 $714 $708 $881 reversed $706 $-1 #
vertex $-1 $476 $891 #
straight-curve $-1 0 209.70854823450424 104.85427411725212 -1 0 0 I I #
coedge $-1 $477 $709 $479 $728 reversed $292 $-1 #
vertex $-1 $720 $892 #
straight-curve $-1 0 -209.70854823450424 104.85427411725212 1 0 0 I I #
edge $-1 $482 -104.85427411725212 $717 104.85427411725212 $479 $893 forward 7 unknown #
edge $-1 $483 -104.85427411725212 $716 104.85427411725212 $480 $894 forward 7 unknown #
point $-1 7.6528526104076837 -209.70854823450424 104.85427411725212 #
point $-1 7.6528526104076837 209.70854823450424 104.85427411725212 #
coedge $-1 $732 $732 $-1 $895 reversed $485 $-1 #
vertex $-1 $487 $896 #
ellipse-curve $-1 0 0 -0.75 0 0 -1 1.5 0 0 1 I I #
point $-1 1.5 0 -5.2302697836237684 #
coedge $-1 $736 $736 $-1 $897 reversed $490 $-1 #
vertex $-1 $492 $898 #
ellipse-curve $-1 0 0 -0.75 0 0 -1 1.5 0 0 1 I I #
point $-1 1.5 0 -5.2302697836237684 #
face $-1 $-1 $510 $66 $-1 $899 reversed single #
loop $-1 $-1 $756 $495 #
plane-surface $-1 0 209.70854823450424 0 0 -1 0 0 0 -1 forward_v I I I I #
coedge $-1 $900 $754 $757 $901 forward $496 $-1 #
coedge $-1 $760 $498 $499 $748 reversed $310 $-1 #
coedge $-1 $754 $900 $498 $746 reversed $496 $-1 #
edge $-1 $761 -104.85427411725212 $902 104.85427411725212 $745 $903 forward 7 unknown #
coedge $-1 $500 $499 $900 $904 forward $205 $-1 #
edge $-1 $752 -12.652360081643778 $902 12.652360081643778 $744 $905 forward 7 unknown #
coedge $-1 $757 $756 $500 $750 reversed $741 $-1 #
edge $-1 $906 -12.652360081643778 $751 12.652360081643778 $749 $907 forward 7 unknown #
vertex $-1 $502 $908 #
vertex $-1 $763 $909 #
straight-curve $-1 12.652360081643778 0 -104.85427411725212 0 -1 0 I I #
coedge $-1 $743 $745 $503 $755 reversed $496 $-1 #
edge $-1 $758 -209.70854823450424 $761 209.70854823450424 $754 $910 forward 7 unknown #
coedge $-1 $749 $504 $509 $764 forward $741 $-1 #
coedge $-1 $504 $749 $743 $901 reversed $741 $-1 #
vertex $-1 $505 $911 #
straight-curve $-1 0 209.70854823450424 104.85427411725212 -1 0 0 I I #
coedge $-1 $506 $744 $508 $763 reversed $310 $-1 #
vertex $-1 $755 $912 #
straight-curve $-1 0 -209.70854823450424 104.85427411725212 1 0 0 I I #
edge $-1 $511 -104.85427411725212 $752 104.85427411725212 $508 $913 forward 7 unknown #
edge $-1 $512 -104.85427411725212 $751 104.85427411725212 $509 $914 forward 7 unknown #
point $-1 12.652360081643778 -209.70854823450424 104.85427411725212 #
point $-1 12.652360081643778 209.70854823450424 104.85427411725212 #
coedge $-1 $767 $767 $-1 $915 reversed $514 $-1 #
vertex $-1 $516 $916 #
ellipse-curve $-1 0 0 -0.5 0 0 -1 1 0 0 1 I I #
point $-1 1 0 -3.51623584704123 #
plane-surface $-1 52.427137058626059 0 0 -1 0 0 0 0 1 forward_v I I I I #
coedge $-1 $524 $522 $526 $776 reversed $323 $-1 #
edge $-1 $537 -7.5832177009889135 $778 7.5832177009889135 $536 $917 forward 7 unknown #
vertex $-1 $776 $918 #
straight-curve $-1 -52.427137058626059 -28.338365978388481 0 0 0 -1 I I #
edge $-1 $774 -28.338365978388481 $778 28.338365978388481 $772 $919 forward 7 unknown #
straight-curve $-1 0 -28.338365978388481 -7.5832177009889135 -1 0 0 I I #
vertex $-1 $529 $920 #
straight-curve $-1 0 28.338365978388481 -7.5832177009889135 1 0 0 I I #
point $-1 52.427137058626059 28.338365978388481 -7.5832177009889135 #
point $-1 52.427137058626059 -28.338365978388481 -7.5832177009889135 #
straight-curve $-1 -52.427137058626059 0 7.5832177009889135 0 -1 0 I I #
point $-1 -52.427137058626059 28.338365978388481 7.5832177009889135 #
point $-1 -52.427137058626059 -28.338365978388481 7.5832177009889135 #
straight-curve $-1 52.427137058626059 -28.338365978388481 0 0 0 -1 I I #
straight-curve $-1 52.427137058626059 28.338365978388481 0 0 0 -1 I I #
plane-surface $-1 3.533399443061755 0 0 -1 0 0 0 0 1 forward_v I I I I #
coedge $-1 $551 $549 $553 $792 reversed $342 $-1 #
edge $-1 $564 -7.5832177009889135 $794 7.5832177009889135 $563 $921 forward 7 unknown #
vertex $-1 $792 $922 #
straight-curve $-1 -3.533399443061755 -1.5 0 0 0 -1 I I #
edge $-1 $790 -1.5 $794 1.5 $788 $923 forward 7 unknown #
straight-curve $-1 0 -1.5 -7.5832177009889135 -1 0 0 I I #
vertex $-1 $556 $924 #
straight-curve $-1 0 1.5 -7.5832177009889135 1 0 0 I I #
point $-1 3.533399443061755 1.5 -7.5832177009889135 #
point $-1 3.533399443061755 -1.5 -7.5832177009889135 #
straight-curve $-1 -3.533399443061755 0 7.5832177009889135 0 -1 0 I I #
point $-1 -3.533399443061755 1.5 7.5832177009889135 #
point $-1 -3.533399443061755 -1.5 7.5832177009889135 #
straight-curve $-1 3.533399443061755 -1.5 0 0 0 -1 I I #
straight-curve $-1 3.533399443061755 1.5 0 0 0 -1 I I #
plane-surface $-1 3.5333994430617537 0 0 -1 0 0 0 0 1 forward_v I I I I #
coedge $-1 $578 $576 $580 $808 reversed $361 $-1 #
edge $-1 $591 -7.5832177009889135 $810 7.5832177009889135 $590 $925 forward 7 unknown #
vertex $-1 $808 $926 #
straight-curve $-1 -3.5333994430617537 -1.5 0 0 0 -1 I I #
edge $-1 $806 -1.5 $810 1.5 $804 $927 forward 7 unknown #
straight-curve $-1 0 -1.5 -7.5832177009889135 -1 0 0 I I #
vertex $-1 $583 $928 #
straight-curve $-1 0 1.5 -7.5832177009889135 1 0 0 I I #
point $-1 3.5333994430617537 1.5 -7.5832177009889135 #
point $-1 3.5333994430617537 -1.5 -7.5832177009889135 #
straight-curve $-1 -3.5333994430617537 0 7.5832177009889135 0 -1 0 I I #
point $-1 -3.5333994430617537 1.5 7.5832177009889135 #
point $-1 -3.5333994430617537 -1.5 7.5832177009889135 #
straight-curve $-1 3.5333994430617537 -1.5 0 0 0 -1 I I #
straight-curve $-1 3.5333994430617537 1.5 0 0 0 -1 I I #
plane-surface $-1 7.6528526104076837 0 0 -1 0 0 0 0 1 forward_v I I I I #
coedge $-1 $605 $603 $607 $824 reversed $380 $-1 #
edge $-1 $618 -104.85427411725212 $826 104.85427411725212 $617 $929 forward 7 unknown #
vertex $-1 $824 $930 #
straight-curve $-1 -7.6528526104076837 -209.70854823450424 0 0 0 -1 I I #
edge $-1 $822 -209.70854823450424 $826 209.70854823450424 $820 $931 forward 7 unknown #
straight-curve $-1 0 -209.70854823450424 -104.85427411725212 -1 0 0 I I #
vertex $-1 $610 $932 #
straight-curve $-1 0 209.70854823450424 -104.85427411725212 1 0 0 I I #
point $-1 7.6528526104076837 209.70854823450424 -104.85427411725212 #
point $-1 7.6528526104076837 -209.70854823450424 -104.85427411725212 #
straight-curve $-1 -7.6528526104076837 0 104.85427411725212 0 -1 0 I I #
point $-1 -7.6528526104076837 209.70854823450424 104.85427411725212 #
point $-1 -7.6528526104076837 -209.70854823450424 104.85427411725212 #
straight-curve $-1 7.6528526104076837 -209.70854823450424 0 0 0 -1 I I #
straight-curve $-1 7.6528526104076837 209.70854823450424 0 0 0 -1 I I #
edge $-1 $933 1 $933 0 $627 $-1 forward 7 unknown #
point $-1 1.5 0 -0.75 #
edge $-1 $934 1 $934 0 $631 $-1 forward 7 unknown #
point $-1 1.5 0 -0.75 #
plane-surface $-1 7.6528526104076837 0 0 -1 0 0 0 0 1 forward_v I I I I #
coedge $-1 $640 $638 $642 $844 reversed $409 $-1 #
edge $-1 $653 -104.85427411725212 $846 104.85427411725212 $652 $935 forward 7 unknown #
vertex $-1 $844 $936 #
straight-curve $-1 -7.6528526104076837 -209.70854823450424 0 0 0 -1 I I #
edge $-1 $842 -209.70854823450424 $846 209.70854823450424 $840 $937 forward 7 unknown #
straight-curve $-1 0 -209.70854823450424 -104.85427411725212 -1 0 0 I I #
vertex $-1 $645 $938 #
straight-curve $-1 0 209.70854823450424 -104.85427411725212 1 0 0 I I #
point $-1 7.6528526104076837 209.70854823450424 -104.85427411725212 #
point $-1 7.6528526104076837 -209.70854823450424 -104.85427411725212 #
straight-curve $-1 -7.6528526104076837 0 104.85427411725212 0 -1 0 I I #
point $-1 -7.6528526104076837 209.70854823450424 104.85427411725212 #
point $-1 -7.6528526104076837 -209.70854823450424 104.85427411725212 #
straight-curve $-1 7.6528526104076837 -209.70854823450424 0 0 0 -1 I I #
straight-curve $-1 7.6528526104076837 209.70854823450424 0 0 0 -1 I I #
edge $-1 $939 1 $939 0 $662 $-1 forward 7 unknown #
point $-1 1.5 0 -0.75 #
edge $-1 $940 1 $940 0 $666 $-1 forward 7 unknown #
point $-1 1.5 0 -0.75 #
plane-surface $-1 7.6528526104076837 0 0 -1 0 0 0 0 1 forward_v I I I I #
coedge $-1 $675 $673 $677 $864 reversed $438 $-1 #
edge $-1 $688 -104.85427411725212 $866 104.85427411725212 $687 $941 forward 7 unknown #
vertex $-1 $864 $942 #
straight-curve $-1 -7.6528526104076837 -209.70854823450424 0 0 0 -1 I I #
edge $-1 $862 -209.70854823450424 $866 209.70854823450424 $860 $943 forward 7 unknown #
straight-curve $-1 0 -209.70854823450424 -104.85427411725212 -1 0 0 I I #
vertex $-1 $680 $944 #
straight-curve $-1 0 209.70854823450424 -104.85427411725212 1 0 0 I I #
point $-1 7.6528526104076837 209.70854823450424 -104.85427411725212 #
point $-1 7.6528526104076837 -209.70854823450424 -104.85427411725212 #
straight-curve $-1 -7.6528526104076837 0 104.85427411725212 0 -1 0 I I #
point $-1 -7.6528526104076837 209.70854823450424 104.85427411725212 #
point $-1 -7.6528526104076837 -209.70854823450424 104.85427411725212 #
straight-curve $-1 7.6528526104076837 -209.70854823450424 0 0 0 -1 I I #
straight-curve $-1 7.6528526104076837 209.70854823450424 0 0 0 -1 I I #
edge $-1 $945 1 $945 0 $697 $-1 forward 7 unknown #
point $-1 1.5 0 -0.75 #
edge $-1 $946 1 $946 0 $701 $-1 forward 7 unknown #
point $-1 1.5 0 -0.75 #
plane-surface $-1 7.6528526104076837 0 0 -1 0 0 0 0 1 forward_v I I I I #
coedge $-1 $710 $708 $712 $884 reversed $467 $-1 #
edge $-1 $723 -104.85427411725212 $886 104.85427411725212 $722 $947 forward 7 unknown #
vertex $-1 $884 $948 #
straight-curve $-1 -7.6528526104076837 -209.70854823450424 0 0 0 -1 I I #
edge $-1 $882 -209.70854823450424 $886 209.70854823450424 $880 $949 forward 7 unknown #
straight-curve $-1 0 -209.70854823450424 -104.85427411725212 -1 0 0 I I #
vertex $-1 $715 $950 #
straight-curve $-1 0 209.70854823450424 -104.85427411725212 1 0 0 I I #
point $-1 7.6528526104076837 209.70854823450424 -104.85427411725212 #
point $-1 7.6528526104076837 -209.70854823450424 -104.85427411725212 #
straight-curve $-1 -7.6528526104076837 0 104.85427411725212 0 -1 0 I I #
point $-1 -7.6528526104076837 209.70854823450424 104.85427411725212 #
point $-1 -7.6528526104076837 -209.70854823450424 104.85427411725212 #
straight-curve $-1 7.6528526104076837 -209.70854823450424 0 0 0 -1 I I #
straight-curve $-1 7.6528526104076837 209.70854823450424 0 0 0 -1 I I #
edge $-1 $951 1 $951 0 $732 $-1 forward 7 unknown #
point $-1 1.5 0 -0.75 #
edge $-1 $952 1 $952 0 $736 $-1 forward 7 unknown #
point $-1 1.5 0 -0.75 #
plane-surface $-1 12.652360081643778 0 0 -1 0 0 0 0 1 forward_v I I I I #
coedge $-1 $745 $743 $747 $904 reversed $496 $-1 #
edge $-1 $758 -104.85427411725212 $906 104.85427411725212 $757 $953 forward 7 unknown #
vertex $-1 $904 $954 #
straight-curve $-1 -12.652360081643778 -209.70854823450424 0 0 0 -1 I I #
edge $-1 $902 -209.70854823450424 $906 209.70854823450424 $900 $955 forward 7 unknown #
straight-curve $-1 0 -209.70854823450424 -104.85427411725212 -1 0 0 I I #
vertex $-1 $750 $956 #
straight-curve $-1 0 209.70854823450424 -104.85427411725212 1 0 0 I I #
point $-1 12.652360081643778 209.70854823450424 -104.85427411725212 #
point $-1 12.652360081643778 -209.70854823450424 -104.85427411725212 #
straight-curve $-1 -12.652360081643778 0 104.85427411725212 0 -1 0 I I #
point $-1 -12.652360081643778 209.70854823450424 104.85427411725212 #
point $-1 -12.652360081643778 -209.70854823450424 104.85427411725212 #
straight-curve $-1 12.652360081643778 -209.70854823450424 0 0 0 -1 I I #
straight-curve $-1 12.652360081643778 209.70854823450424 0 0 0 -1 I I #
edge $-1 $957 1 $957 0 $767 $-1 forward 7 unknown #
point $-1 1 0 -0.5 #
straight-curve $-1 -52.427137058626059 28.338365978388481 0 0 0 -1 I I #
point $-1 -52.427137058626059 -28.338365978388481 -7.5832177009889135 #
straight-curve $-1 -52.427137058626059 0 -7.5832177009889135 0 1 0 I I #
point $-1 -52.427137058626059 28.338365978388481 -7.5832177009889135 #
straight-curve $-1 -3.533399443061755 1.5 0 0 0 -1 I I #
point $-1 -3.533399443061755 -1.5 -7.5832177009889135 #
straight-curve $-1 -3.533399443061755 0 -7.5832177009889135 0 1 0 I I #
point $-1 -3.533399443061755 1.5 -7.5832177009889135 #
straight-curve $-1 -3.5333994430617537 1.5 0 0 0 -1 I I #
point $-1 -3.5333994430617537 -1.5 -7.5832177009889135 #
straight-curve $-1 -3.5333994430617537 0 -7.5832177009889135 0 1 0 I I #
point $-1 -3.5333994430617537 1.5 -7.5832177009889135 #
straight-curve $-1 -7.6528526104076837 209.70854823450424 0 0 0 -1 I I #
point $-1 -7.6528526104076837 -209.70854823450424 -104.85427411725212 #
straight-curve $-1 -7.6528526104076837 0 -104.85427411725212 0 1 0 I I #
point $-1 -7.6528526104076837 209.70854823450424 -104.85427411725212 #
vertex $-1 $835 $958 #
vertex $-1 $837 $959 #
straight-curve $-1 -7.6528526104076837 209.70854823450424 0 0 0 -1 I I #
point $-1 -7.6528526104076837 -209.70854823450424 -104.85427411725212 #
straight-curve $-1 -7.6528526104076837 0 -104.85427411725212 0 1 0 I I #
point $-1 -7.6528526104076837 209.70854823450424 -104.85427411725212 #
vertex $-1 $855 $960 #
vertex $-1 $857 $961 #
straight-curve $-1 -7.6528526104076837 209.70854823450424 0 0 0 -1 I I #
point $-1 -7.6528526104076837 -209.70854823450424 -104.85427411725212 #
straight-curve $-1 -7.6528526104076837 0 -104.85427411725212 0 1 0 I I #
point $-1 -7.6528526104076837 209.70854823450424 -104.85427411725212 #
vertex $-1 $875 $962 #
vertex $-1 $877 $963 #
straight-curve $-1 -7.6528526104076837 209.70854823450424 0 0 0 -1 I I #
point $-1 -7.6528526104076837 -209.70854823450424 -104.85427411725212 #
straight-curve $-1 -7.6528526104076837 0 -104.85427411725212 0 1 0 I I #
point $-1 -7.6528526104076837 209.70854823450424 -104.85427411725212 #
vertex $-1 $895 $964 #
vertex $-1 $897 $965 #
straight-curve $-1 -12.652360081643778 209.70854823450424 0 0 0 -1 I I #
point $-1 -12.652360081643778 -209.70854823450424 -104.85427411725212 #
straight-curve $-1 -12.652360081643778 0 -104.85427411725212 0 1 0 I I #
point $-1 -12.652360081643778 209.70854823450424 -104.85427411725212 #
vertex $-1 $915 $966 #
point $-1 0 0 0.75 #
point $-1 0 0 0.75 #
point $-1 0 0 0.75 #
point $-1 0 0 0.75 #
point $-1 0 0 0.75 #
point $-1 0 0 0.75 #
point $-1 0 0 0.75 #
point $-1 0 0 0.75 #
point $-1 0 0 0.5 #
End-of-ACIS-data 