500 0 8 0           
7 Unknown 11 ACIS 5.0 NT 24 Thu Mar 25 19:43:41 1999 
-1 9.9999999999999995e-007 1e-010 
body $-1 $8 $-1 $9 #
body $-1 $10 $-1 $11 #
body $-1 $12 $-1 $13 #
body $-1 $14 $-1 $15 #
body $-1 $16 $-1 $17 #
body $-1 $18 $-1 $19 #
body $-1 $20 $-1 $21 #
body $-1 $22 $-1 $23 #
lump $-1 $-1 $24 $0 #
transform $-1 1 0 0 0 1 0 0 0 1 40.219733268227181 24.127175664955008 5.9369920159469052 1 rotate no_reflect no_shear #
lump $-1 $-1 $25 $1 #
transform $-1 1 0 0 0 1 0 0 0 1 40.219733268227181 24.127175664955008 5.9369920159469052 1 rotate no_reflect no_shear #
lump $-1 $-1 $26 $2 #
transform $-1 1 0 0 0 1 0 0 0 1 40.219733268227181 24.127175664955008 5.9369920159469052 1 rotate no_reflect no_shear #
lump $-1 $-1 $27 $3 #
transform $-1 1 0 0 0 1 0 0 0 1 40.219733268227181 24.127175664955008 5.9369920159469052 1 rotate no_reflect no_shear #
lump $-1 $-1 $28 $4 #
transform $-1 1 0 0 0 1 0 0 0 1 40.219733268227181 24.127175664955008 5.9369920159469052 1 rotate no_reflect no_shear #
lump $-1 $-1 $29 $5 #
transform $-1 1 0 0 0 1 0 0 0 1 40.219733268227181 24.127175664955008 5.9369920159469052 1 rotate no_reflect no_shear #
lump $-1 $-1 $30 $6 #
transform $-1 1 0 0 0 1 0 0 0 1 40.219733268227181 24.127175664955008 5.9369920159469052 1 rotate no_reflect no_shear #
lump $-1 $-1 $31 $7 #
transform $-1 1 0 0 0 1 0 0 0 1 40.219733268227181 24.127175664955008 5.9369920159469052 1 rotate no_reflect no_shear #
shell $-1 $-1 $-1 $32 $-1 $8 #
shell $-1 $-1 $-1 $33 $-1 $10 #
shell $-1 $-1 $-1 $34 $-1 $12 #
shell $-1 $-1 $-1 $35 $-1 $14 #
shell $-1 $-1 $-1 $36 $-1 $16 #
shell $-1 $-1 $-1 $37 $-1 $18 #
shell $-1 $-1 $-1 $38 $-1 $20 #
shell $-1 $-1 $-1 $39 $-1 $22 #
face $-1 $40 $41 $24 $-1 $42 forward single #
face $-1 $43 $44 $25 $-1 $45 forward single #
face $-1 $46 $47 $26 $-1 $48 reversed single #
face $-1 $49 $50 $27 $-1 $51 forward single #
face $-1 $52 $53 $28 $-1 $54 reversed single #
face $-1 $55 $56 $29 $-1 $57 forward single #
face $-1 $58 $59 $30 $-1 $60 reversed single #
face $-1 $61 $62 $31 $-1 $63 forward single #
face $-1 $64 $65 $24 $-1 $66 reversed single #
loop $-1 $-1 $67 $32 #
plane-surface $-1 0 0 5.9369920159469052 0 0 1 1 0 0 forward_v I I I I #
face $-1 $68 $69 $25 $-1 $70 reversed single #
loop $-1 $-1 $71 $33 #
plane-surface $-1 -37.00256015212522 0 -2.579321986822527 0 0 1 1 0 0 forward_v I I I I #
face $-1 $72 $73 $26 $-1 $74 reversed single #
loop $-1 $-1 $75 $34 #
plane-surface $-1 -17.544786197098844 66.772803013653871 85.554052536514192 1 0 0 0 -0.84804810408105047 -0.52991925155115449 forward_v I I I I #
face $-1 $76 $77 $27 $-1 $78 forward single #
loop $-1 $79 $80 $35 #
cone-surface $-1 -10.033945173269991 21.931427745391709 3.3667753772109821 0 -0.84804810408105047 -0.52991925155115449 1 0 0 1 I I 0 1 1 forward I I I I #
face $-1 $81 $82 $28 $-1 $83 reversed single #
loop $-1 $-1 $84 $36 #
plane-surface $-1 8.9574503816450566 66.772803013653871 85.554052536514192 1 0 0 0 -0.84804810408105047 -0.52991925155115449 forward_v I I I I #
face $-1 $85 $86 $29 $-1 $87 forward single #
loop $-1 $88 $89 $37 #
cone-surface $-1 16.468291405473913 21.931427745391709 3.3667753772109821 0 -0.84804810408105047 -0.52991925155115449 1 0 0 1 I I 0 1 1 forward I I I I #
face $-1 $90 $91 $30 $-1 $92 reversed single #
loop $-1 $-1 $93 $38 #
plane-surface $-1 36.25726238844593 -24.127175664955004 2.6564419195110318 0 -0.69465837861970381 0.71933979245794832 1 0 0 forward_v I I I I #
face $-1 $94 $95 $31 $-1 $96 forward single #
loop $-1 $97 $98 $39 #
cone-surface $-1 36.25726238844593 -21.756869322858559 3.6010975843945596 0 0.69465837861970381 -0.71933979245794832 1 0 0 1 I I 0 1 1 forward I I I I #
face $-1 $99 $100 $24 $-1 $101 reversed single #
loop $-1 $-1 $102 $40 #
plane-surface $-1 0 0 -5.9369920159469052 0 0 1 1 0 0 forward_v I I I I #
coedge $-1 $103 $104 $105 $106 forward $41 $-1 #
face $-1 $107 $108 $25 $-1 $109 reversed single #
loop $-1 $-1 $110 $43 #
plane-surface $-1 -33.785387036023259 0 -4.2581570013847161 -1 0 0 0 0 1 forward_v I I I I #
coedge $-1 $111 $112 $113 $114 forward $44 $-1 #
face $-1 $115 $116 $26 $-1 $117 reversed single #
loop $-1 $-1 $118 $46 #
plane-surface $-1 -10.033945173269988 -1.4437340758773587 42.927630634342158 0 0.84804810408105047 0.52991925155115449 1 0 0 forward_v I I I I #
coedge $-1 $119 $120 $121 $122 reversed $47 $-1 #
face $-1 $-1 $123 $27 $-1 $124 forward single #
loop $-1 $125 $126 $49 #
cone-surface $-1 -10.033945173269991 20.539952838692482 2.4972853829974051 0 -0.84804810408105047 -0.52991925155115449 0.5 0 0 1 I I -0.70710678118654746 0.70710678118654746 0.5 forward I I I I #
loop $-1 $-1 $127 $35 #
coedge $-1 $80 $80 $128 $129 reversed $50 $-1 #
face $-1 $130 $131 $28 $-1 $132 reversed single #
loop $-1 $-1 $133 $52 #
plane-surface $-1 16.468291405473913 -1.4437340758773587 42.927630634342158 0 0.84804810408105047 0.52991925155115449 1 0 0 forward_v I I I I #
coedge $-1 $134 $135 $136 $137 reversed $53 $-1 #
face $-1 $-1 $138 $29 $-1 $139 forward single #
loop $-1 $140 $141 $55 #
cone-surface $-1 16.468291405473913 20.539952838692482 2.4972853829974051 0 -0.84804810408105047 -0.52991925155115449 0.5 0 0 1 I I -0.70710678118654746 0.70710678118654746 0.5 forward I I I I #
loop $-1 $-1 $142 $37 #
coedge $-1 $89 $89 $143 $144 reversed $56 $-1 #
face $-1 $145 $146 $30 $-1 $147 reversed single #
loop $-1 $-1 $148 $58 #
plane-surface $-1 32.29479150866468 -80.005125066202311 60.51975108327219 1 0 0 0 0.69465837861970381 -0.71933979245794832 forward_v I I I I #
coedge $-1 $149 $150 $151 $152 reversed $59 $-1 #
face $-1 $-1 $153 $31 $-1 $154 forward single #
loop $-1 $155 $156 $61 #
cone-surface $-1 36.25726238844593 -20.737788288273485 2.5458083048311702 0 0.69465837861970381 -0.71933979245794832 0.5 0 0 1 I I -0.70710678118654746 0.70710678118654746 0.5 forward I I I I #
loop $-1 $-1 $157 $39 #
coedge $-1 $98 $98 $158 $159 reversed $62 $-1 #
face $-1 $160 $161 $24 $-1 $162 reversed single #
loop $-1 $-1 $163 $64 #
plane-surface $-1 0 -24.127175664955008 0 0 1 0 0 0 1 forward_v I I I I #
coedge $-1 $164 $165 $166 $167 forward $65 $-1 #
coedge $-1 $168 $67 $169 $170 forward $41 $-1 #
coedge $-1 $67 $168 $171 $172 forward $41 $-1 #
coedge $-1 $173 $174 $67 $106 reversed $175 $-1 #
edge $-1 $176 -24.127175664955008 $177 24.127175664955008 $105 $178 forward 7 unknown #
face $-1 $179 $180 $25 $-1 $181 reversed single #
loop $-1 $-1 $182 $68 #
plane-surface $-1 0 0 -5.9369920159469052 0 0 1 1 0 0 forward_v I I I I #
coedge $-1 $183 $113 $184 $185 reversed $69 $-1 #
coedge $-1 $186 $71 $187 $188 reversed $44 $-1 #
coedge $-1 $71 $186 $189 $190 reversed $44 $-1 #
coedge $-1 $110 $191 $71 $114 reversed $69 $-1 #
edge $-1 $192 -24.127175664955008 $193 24.127175664955008 $113 $194 forward 7 unknown #
face $-1 $195 $196 $26 $-1 $197 reversed single #
loop $-1 $-1 $198 $72 #
plane-surface $-1 -2.5231041494411315 66.772803013653871 85.554052536514192 -1 0 0 0 0.84804810408105047 0.52991925155115449 forward_v I I I I #
coedge $-1 $199 $200 $201 $202 reversed $73 $-1 #
coedge $-1 $120 $75 $203 $204 reversed $47 $-1 #
coedge $-1 $75 $119 $199 $205 reversed $47 $-1 #
coedge $-1 $201 $206 $75 $122 forward $207 $-1 #
edge $-1 $208 9.2592258418719275 $209 11.715819971681103 $121 $210 forward 7 unknown #
loop $-1 $-1 $128 $76 #
plane-surface $-1 -10.033945173269988 -1.4437340758773587 42.927630634342158 0 0.84804810408105047 0.52991925155115449 1 0 0 forward_v I I I I #
loop $-1 $-1 $211 $49 #
coedge $-1 $126 $126 $127 $212 reversed $77 $-1 #
coedge $-1 $127 $127 $126 $212 forward $79 $-1 #
coedge $-1 $128 $128 $80 $129 forward $123 $-1 #
edge $-1 $213 1.1302207260040686e-015 $213 6.2831853071796013 $128 $214 forward 7 unknown #
face $-1 $215 $216 $28 $-1 $217 forward single #
loop $-1 $-1 $218 $81 #
plane-surface $-1 23.979132429302769 66.772803013653871 85.554052536514192 -1 0 0 0 0.84804810408105047 0.52991925155115449 forward_v I I I I #
coedge $-1 $219 $220 $221 $222 reversed $82 $-1 #
coedge $-1 $135 $84 $223 $224 reversed $53 $-1 #
coedge $-1 $84 $134 $219 $225 reversed $53 $-1 #
coedge $-1 $221 $226 $84 $137 forward $216 $-1 #
edge $-1 $227 9.2592258418719275 $228 11.715819971681103 $136 $229 forward 7 unknown #
loop $-1 $-1 $143 $85 #
plane-surface $-1 16.468291405473913 -1.4437340758773587 42.927630634342158 0 0.84804810408105047 0.52991925155115449 1 0 0 forward_v I I I I #
loop $-1 $-1 $230 $55 #
coedge $-1 $141 $141 $142 $231 reversed $86 $-1 #
coedge $-1 $142 $142 $141 $231 forward $88 $-1 #
coedge $-1 $143 $143 $89 $144 forward $138 $-1 #
edge $-1 $232 1.1302207260040686e-015 $232 6.2831853071796013 $143 $233 forward 7 unknown #
face $-1 $234 $235 $30 $-1 $236 forward single #
loop $-1 $-1 $237 $90 #
plane-surface $-1 40.219733268227181 0 0 -1 0 0 0 0 1 forward_v I I I I #
coedge $-1 $238 $239 $240 $241 reversed $91 $-1 #
coedge $-1 $242 $93 $237 $243 reversed $59 $-1 #
coedge $-1 $93 $242 $238 $244 forward $59 $-1 #
coedge $-1 $240 $245 $93 $152 forward $235 $-1 #
edge $-1 $246 -22.091102074004215 $247 -14.166160314441715 $151 $248 forward 7 unknown #
loop $-1 $-1 $158 $94 #
plane-surface $-1 36.25726238844593 -24.127175664955004 2.6564419195110318 0 -0.69465837861970381 0.71933979245794832 1 0 0 forward_v I I I I #
loop $-1 $-1 $249 $61 #
coedge $-1 $156 $156 $157 $250 reversed $95 $-1 #
coedge $-1 $157 $157 $156 $250 forward $97 $-1 #
coedge $-1 $158 $158 $98 $159 forward $153 $-1 #
edge $-1 $251 -1.7537199311053519e-016 $251 6.2831853071796004 $158 $252 forward 7 unknown #
face $-1 $253 $254 $24 $-1 $255 reversed single #
loop $-1 $-1 $256 $99 #
plane-surface $-1 -40.219733268227181 0 0 1 0 0 0 0 -1 forward_v I I I I #
coedge $-1 $257 $171 $258 $259 forward $100 $-1 #
coedge $-1 $260 $102 $257 $261 forward $65 $-1 #
coedge $-1 $102 $260 $262 $263 forward $65 $-1 #
coedge $-1 $174 $173 $102 $167 reversed $175 $-1 #
edge $-1 $264 -24.127175664955008 $265 24.127175664955008 $166 $266 forward 7 unknown #
coedge $-1 $104 $103 $267 $268 forward $41 $-1 #
coedge $-1 $269 $270 $103 $170 reversed $254 $-1 #
edge $-1 $177 -40.219733268227181 $271 40.219733268227181 $169 $272 forward 7 unknown #
coedge $-1 $163 $273 $104 $172 reversed $100 $-1 #
edge $-1 $274 -40.219733268227181 $176 40.219733268227181 $171 $275 forward 7 unknown #
coedge $-1 $166 $105 $273 $276 forward $175 $-1 #
coedge $-1 $105 $166 $269 $277 reversed $175 $-1 #
loop $-1 $-1 $173 $253 #
vertex $-1 $106 $278 #
vertex $-1 $106 $279 #
straight-curve $-1 40.219733268227181 0 5.9369920159469052 0 1 0 I I #
face $-1 $280 $281 $25 $-1 $282 reversed single #
loop $-1 $-1 $184 $107 #
plane-surface $-1 0 -24.127175664955008 0 0 1 0 0 0 1 forward_v I I I I #
coedge $-1 $283 $284 $183 $285 forward $108 $-1 #
coedge $-1 $191 $110 $182 $285 reversed $69 $-1 #
coedge $-1 $189 $286 $110 $185 forward $180 $-1 #
edge $-1 $287 -3.8079135152545471 $192 -0.45024348613016896 $184 $288 forward 7 unknown #
coedge $-1 $112 $111 $289 $290 reversed $44 $-1 #
coedge $-1 $291 $292 $111 $188 forward $293 $-1 #
edge $-1 $294 -21.718453192164571 $193 -15.284106959960649 $187 $295 forward 7 unknown #
coedge $-1 $296 $184 $112 $190 forward $180 $-1 #
edge $-1 $192 15.284106959960649 $297 21.718453192164571 $189 $298 forward 7 unknown #
coedge $-1 $113 $183 $291 $299 reversed $69 $-1 #
vertex $-1 $190 $300 #
vertex $-1 $188 $301 #
straight-curve $-1 -33.785387036023259 0 -2.579321986822527 0 1 0 I I #
face $-1 $-1 $207 $26 $-1 $302 forward single #
loop $-1 $-1 $303 $115 #
plane-surface $-1 0 24.127175664955008 0 0 -1 0 0 0 -1 forward_v I I I I #
coedge $-1 $304 $305 $306 $307 reversed $116 $-1 #
coedge $-1 $308 $118 $120 $205 forward $73 $-1 #
coedge $-1 $118 $308 $304 $309 forward $73 $-1 #
coedge $-1 $306 $121 $118 $202 forward $207 $-1 #
edge $-1 $209 -12.52781361046385 $310 2.4938684371938624 $201 $311 forward 7 unknown #
coedge $-1 $312 $313 $119 $204 forward $196 $-1 #
edge $-1 $314 -40.771406792906035 $208 -36.84003425231019 $203 $315 forward 7 unknown #
edge $-1 $209 43.61856177778796 $314 48.254351329910001 $120 $316 forward 7 unknown #
coedge $-1 $121 $306 $312 $317 forward $207 $-1 #
loop $-1 $-1 $306 $195 #
vertex $-1 $204 $318 #
vertex $-1 $122 $319 #
straight-curve $-1 -17.544786197098844 33.386401506826935 5.9369920159469061 0 -1 0 I I #
coedge $-1 $211 $211 $-1 $320 reversed $125 $-1 #
edge $-1 $321 0 $321 6.2831853071796004 $126 $322 forward 7 unknown #
vertex $-1 $129 $323 #
ellipse-curve $-1 -10.033945173269991 22.898878600050416 3.9713057456489853 0 0.84804810408105047 0.52991925155115449 1 0 0 1 I I #
face $-1 $-1 $324 $28 $-1 $325 reversed single #
loop $-1 $-1 $136 $130 #
plane-surface $-1 0 0 5.9369920159469052 0 0 1 1 0 0 forward_v I I I I #
coedge $-1 $326 $327 $328 $329 reversed $131 $-1 #
coedge $-1 $330 $133 $135 $225 forward $82 $-1 #
coedge $-1 $133 $330 $326 $331 forward $82 $-1 #
coedge $-1 $328 $136 $133 $222 forward $216 $-1 #
edge $-1 $228 0.72330467890810013 $332 15.744986726565813 $221 $333 forward 7 unknown #
coedge $-1 $334 $335 $134 $224 forward $324 $-1 #
edge $-1 $336 -40.771406792906035 $227 -36.84003425231019 $223 $337 forward 7 unknown #
edge $-1 $228 43.61856177778796 $336 48.254351329910001 $135 $338 forward 7 unknown #
coedge $-1 $136 $328 $334 $339 forward $216 $-1 #
vertex $-1 $137 $340 #
vertex $-1 $137 $341 #
straight-curve $-1 8.9574503816450566 33.386401506826935 5.9369920159469061 0 -1 0 I I #
coedge $-1 $230 $230 $-1 $342 reversed $140 $-1 #
edge $-1 $343 0 $343 6.2831853071796004 $141 $344 forward 7 unknown #
vertex $-1 $144 $345 #
ellipse-curve $-1 16.468291405473913 22.898878600050416 3.9713057456489853 0 0.84804810408105047 0.52991925155115449 1 0 0 1 I I #
face $-1 $-1 $346 $30 $-1 $347 reversed single #
loop $-1 $-1 $151 $145 #
plane-surface $-1 0 0 5.9369920159469052 0 0 1 1 0 0 forward_v I I I I #
coedge $-1 $348 $349 $149 $243 forward $146 $-1 #
coedge $-1 $239 $148 $150 $244 reversed $91 $-1 #
coedge $-1 $148 $238 $350 $351 reversed $91 $-1 #
coedge $-1 $352 $151 $148 $241 forward $235 $-1 #
edge $-1 $247 -19.27249586178861 $353 -15.875386868146148 $240 $354 forward 7 unknown #
coedge $-1 $150 $149 $355 $356 reversed $59 $-1 #
edge $-1 $357 -7.755158949360129 $246 -3.0326216599454718 $237 $358 forward 7 unknown #
edge $-1 $359 -5.0235306441864656e-015 $247 4.7225372894146522 $238 $360 forward 7 unknown #
coedge $-1 $151 $352 $348 $361 forward $235 $-1 #
vertex $-1 $152 $362 #
vertex $-1 $152 $363 #
straight-curve $-1 18.128631194222965 -20.730066671312546 5.9369920159469043 -1 0 0 I I #
coedge $-1 $249 $249 $-1 $364 reversed $155 $-1 #
edge $-1 $365 0 $365 6.2831853071796004 $156 $366 forward 7 unknown #
vertex $-1 $159 $367 #
ellipse-curve $-1 36.25726238844593 -22.428621168133777 4.2967169677289672 0 -0.69465837861970381 0.71933979245794832 1 0 0 1 I I #
face $-1 $-1 $175 $24 $-1 $368 reversed single #
loop $-1 $-1 $269 $160 #
plane-surface $-1 0 24.127175664955008 0 0 -1 0 0 0 -1 forward_v I I I I #
coedge $-1 $369 $267 $270 $370 forward $161 $-1 #
coedge $-1 $273 $163 $164 $261 reversed $100 $-1 #
coedge $-1 $267 $369 $163 $259 reversed $161 $-1 #
edge $-1 $274 -5.9369920159469052 $371 5.9369920159469052 $258 $372 forward 7 unknown #
coedge $-1 $165 $164 $369 $373 forward $65 $-1 #
edge $-1 $265 -40.219733268227181 $371 40.219733268227181 $257 $374 forward 7 unknown #
coedge $-1 $270 $269 $165 $263 reversed $254 $-1 #
edge $-1 $375 -40.219733268227181 $264 40.219733268227181 $262 $376 forward 7 unknown #
vertex $-1 $167 $377 #
vertex $-1 $276 $378 #
straight-curve $-1 40.219733268227181 0 -5.9369920159469052 0 -1 0 I I #
coedge $-1 $256 $258 $168 $268 reversed $161 $-1 #
edge $-1 $271 -24.127175664955008 $274 24.127175664955008 $267 $379 forward 7 unknown #
coedge $-1 $262 $169 $174 $277 forward $254 $-1 #
coedge $-1 $169 $262 $256 $370 reversed $254 $-1 #
vertex $-1 $170 $380 #
straight-curve $-1 0 24.127175664955008 5.9369920159469052 -1 0 0 I I #
coedge $-1 $171 $257 $173 $276 reversed $100 $-1 #
vertex $-1 $268 $381 #
straight-curve $-1 0 -24.127175664955008 5.9369920159469052 1 0 0 I I #
edge $-1 $176 -5.9369920159469052 $265 5.9369920159469052 $173 $382 forward 7 unknown #
edge $-1 $177 -5.9369920159469052 $264 5.9369920159469052 $174 $383 forward 7 unknown #
point $-1 40.219733268227181 -24.127175664955008 5.9369920159469052 #
point $-1 40.219733268227181 24.127175664955008 5.9369920159469052 #
face $-1 $-1 $293 $25 $-1 $384 reversed single #
loop $-1 $-1 $289 $179 #
plane-surface $-1 -40.219733268227181 0 0 1 0 0 0 0 -1 forward_v I I I I #
coedge $-1 $385 $182 $286 $386 forward $108 $-1 #
coedge $-1 $182 $385 $387 $388 forward $108 $-1 #
edge $-1 $389 -24.127175664955008 $287 24.127175664955008 $182 $390 forward 7 unknown #
coedge $-1 $184 $296 $283 $386 reversed $180 $-1 #
vertex $-1 $386 $391 #
straight-curve $-1 -33.785387036023259 -24.127175664955008 -2.129078500692358 0 0 1 I I #
coedge $-1 $392 $393 $186 $290 forward $281 $-1 #
edge $-1 $297 -24.127175664955008 $294 24.127175664955008 $289 $394 forward 7 unknown #
coedge $-1 $387 $187 $191 $299 forward $293 $-1 #
coedge $-1 $187 $387 $392 $395 reversed $293 $-1 #
loop $-1 $-1 $291 $280 #
vertex $-1 $395 $396 #
straight-curve $-1 -18.50128007606261 24.127175664955008 -2.579321986822527 1 0 0 I I #
coedge $-1 $286 $189 $393 $397 forward $180 $-1 #
vertex $-1 $397 $398 #
straight-curve $-1 -18.50128007606261 -24.127175664955008 -2.579321986822527 -1 0 0 I I #
edge $-1 $193 0.45024348613016896 $389 3.8079135152545471 $291 $399 forward 7 unknown #
point $-1 -33.785387036023259 -24.127175664955008 -2.579321986822527 #
point $-1 -33.785387036023259 24.127175664955008 -2.579321986822527 #
plane-surface $-1 0 0 5.9369920159469052 0 0 1 1 0 0 forward_v I I I I #
coedge $-1 $313 $312 $305 $400 forward $196 $-1 #
coedge $-1 $305 $198 $200 $309 reversed $116 $-1 #
coedge $-1 $198 $304 $303 $400 reversed $116 $-1 #
coedge $-1 $206 $201 $198 $307 forward $207 $-1 #
edge $-1 $310 -11.715819971681103 $401 -9.2592258418719275 $306 $402 forward 7 unknown #
coedge $-1 $200 $199 $313 $403 reversed $73 $-1 #
edge $-1 $404 -48.254351329910001 $310 -43.61856177778796 $304 $405 forward 7 unknown #
vertex $-1 $202 $406 #
straight-curve $-1 -5.0169725866349939 21.670581535145828 5.9369920159469061 1 0 0 I I #
coedge $-1 $303 $203 $206 $317 reversed $196 $-1 #
coedge $-1 $203 $303 $308 $403 forward $196 $-1 #
vertex $-1 $204 $407 #
straight-curve $-1 -17.544786197098844 24.127175664955008 42.777026268257096 0 0 1 I I #
straight-curve $-1 -17.544786197098844 -1.4437340758773587 42.927630634342158 0 0.52991925155115449 -0.84804810408105047 I I #
edge $-1 $401 2.5231041494411315 $208 17.544786197098844 $312 $408 forward 7 unknown #
point $-1 -17.544786197098844 24.127175664955008 5.9369920159469052 #
point $-1 -17.544786197098844 21.670581535145832 5.9369920159469061 #
edge $-1 $409 1 $409 0 $211 $-1 forward 7 unknown #
vertex $-1 $212 $410 #
ellipse-curve $-1 -10.033945173269991 20.963976890733008 2.7622450087729824 0 0.84804810408105047 0.52991925155115449 1 0 0 1 I I #
point $-1 -9.0339451732699914 22.898878600050413 3.9713057456489818 #
loop $-1 $-1 $223 $215 #
plane-surface $-1 0 24.127175664955008 0 0 -1 0 0 0 -1 forward_v I I I I #
coedge $-1 $327 $218 $220 $331 reversed $131 $-1 #
coedge $-1 $218 $326 $411 $412 reversed $131 $-1 #
coedge $-1 $226 $221 $218 $329 forward $216 $-1 #
edge $-1 $332 -11.715819971681103 $413 -9.2592258418719275 $328 $414 forward 7 unknown #
coedge $-1 $220 $219 $335 $415 reversed $82 $-1 #
edge $-1 $416 -48.254351329910001 $332 -43.61856177778796 $326 $417 forward 7 unknown #
vertex $-1 $222 $418 #
straight-curve $-1 8.2341457027369565 21.670581535145828 5.9369920159469061 1 0 0 I I #
coedge $-1 $411 $223 $226 $339 reversed $324 $-1 #
coedge $-1 $223 $411 $330 $415 forward $324 $-1 #
vertex $-1 $224 $419 #
straight-curve $-1 8.9574503816450566 24.127175664955008 42.777026268257096 0 0 1 I I #
straight-curve $-1 8.9574503816450566 -1.4437340758773587 42.927630634342158 0 0.52991925155115449 -0.84804810408105047 I I #
edge $-1 $413 -23.979132429302769 $227 -8.9574503816450566 $334 $420 forward 7 unknown #
point $-1 8.9574503816450566 24.127175664955008 5.9369920159469052 #
point $-1 8.9574503816450566 21.670581535145832 5.9369920159469061 #
edge $-1 $421 1 $421 0 $230 $-1 forward 7 unknown #
vertex $-1 $231 $422 #
ellipse-curve $-1 16.468291405473913 20.963976890733008 2.7622450087729824 0 0.84804810408105047 0.52991925155115449 1 0 0 1 I I #
point $-1 17.468291405473913 22.898878600050413 3.9713057456489818 #
loop $-1 $-1 $355 $234 #
plane-surface $-1 0 -24.127175664955008 0 0 1 0 0 0 1 forward_v I I I I #
coedge $-1 $349 $237 $245 $361 reversed $146 $-1 #
coedge $-1 $237 $348 $423 $424 forward $146 $-1 #
coedge $-1 $355 $425 $239 $351 forward $346 $-1 #
edge $-1 $353 24.322883525689189 $359 27.603433622125067 $350 $426 forward 7 unknown #
coedge $-1 $245 $240 $425 $427 forward $235 $-1 #
vertex $-1 $427 $428 #
straight-curve $-1 32.29479150866468 -40.002562533101155 5.9369920159469061 0 -1 0 I I #
coedge $-1 $423 $350 $242 $356 forward $346 $-1 #
edge $-1 $359 14.166160314441715 $357 22.091102074004215 $355 $429 forward 7 unknown #
vertex $-1 $356 $430 #
straight-curve $-1 40.219733268227181 -18.548581235843891 8.0436280612116207 0 0.71933979245794832 0.69465837861970381 I I #
vertex $-1 $356 $431 #
straight-curve $-1 32.29479150866468 -24.127175664955004 2.6564419195110318 0 0.71933979245794832 0.69465837861970381 I I #
edge $-1 $432 -24.127175664955008 $246 -20.730066671312546 $348 $433 forward 7 unknown #
point $-1 40.219733268227181 -20.730066671312546 5.9369920159469052 #
point $-1 32.29479150866468 -20.730066671312546 5.9369920159469052 #
edge $-1 $434 1 $434 0 $249 $-1 forward 7 unknown #
vertex $-1 $250 $435 #
ellipse-curve $-1 36.25726238844593 -21.085117477583339 2.9054782010601441 0 -0.69465837861970381 0.71933979245794832 1 0 0 1 I I #
point $-1 37.25726238844593 -22.428621168133784 4.2967169677289743 #
plane-surface $-1 40.219733268227181 0 0 -1 0 0 0 0 1 forward_v I I I I #
coedge $-1 $258 $256 $260 $373 reversed $161 $-1 #
edge $-1 $271 -5.9369920159469052 $375 5.9369920159469052 $270 $436 forward 7 unknown #
vertex $-1 $373 $437 #
straight-curve $-1 -40.219733268227181 -24.127175664955008 0 0 0 -1 I I #
edge $-1 $371 -24.127175664955008 $375 24.127175664955008 $369 $438 forward 7 unknown #
straight-curve $-1 0 -24.127175664955008 -5.9369920159469052 -1 0 0 I I #
vertex $-1 $263 $439 #
straight-curve $-1 0 24.127175664955008 -5.9369920159469052 1 0 0 I I #
point $-1 40.219733268227181 24.127175664955008 -5.9369920159469052 #
point $-1 40.219733268227181 -24.127175664955008 -5.9369920159469052 #
straight-curve $-1 -40.219733268227181 0 5.9369920159469052 0 -1 0 I I #
point $-1 -40.219733268227181 24.127175664955008 5.9369920159469052 #
point $-1 -40.219733268227181 -24.127175664955008 5.9369920159469052 #
straight-curve $-1 40.219733268227181 -24.127175664955008 0 0 0 -1 I I #
straight-curve $-1 40.219733268227181 24.127175664955008 0 0 0 -1 I I #
plane-surface $-1 0 24.127175664955008 0 0 -1 0 0 0 -1 forward_v I I I I #
coedge $-1 $284 $283 $440 $441 forward $108 $-1 #
edge $-1 $287 33.785387036023259 $442 40.219733268227181 $286 $443 forward 7 unknown #
coedge $-1 $292 $291 $284 $388 reversed $293 $-1 #
edge $-1 $444 -40.219733268227181 $389 -33.785387036023259 $387 $445 forward 7 unknown #
vertex $-1 $299 $446 #
straight-curve $-1 -33.785387036023259 0 -5.9369920159469052 0 -1 0 I I #
point $-1 -33.785387036023259 -24.127175664955008 -5.9369920159469052 #
coedge $-1 $440 $289 $292 $395 forward $281 $-1 #
coedge $-1 $289 $440 $296 $397 reversed $281 $-1 #
straight-curve $-1 -40.219733268227181 0 -2.579321986822527 0 1 0 I I #
edge $-1 $294 2.579321986822527 $444 5.9369920159469052 $292 $447 forward 7 unknown #
point $-1 -40.219733268227181 24.127175664955008 -2.579321986822527 #
edge $-1 $297 2.579321986822527 $442 5.9369920159469052 $393 $448 forward 7 unknown #
point $-1 -40.219733268227181 -24.127175664955008 -2.579321986822527 #
straight-curve $-1 -33.785387036023259 24.127175664955008 -2.129078500692358 0 0 -1 I I #
edge $-1 $401 36.84003425231019 $404 40.771406792906035 $303 $449 forward 7 unknown #
vertex $-1 $317 $450 #
straight-curve $-1 -2.5231041494411315 33.386401506826935 5.9369920159469061 0 1 0 I I #
edge $-1 $404 -2.4938684371938624 $314 12.52781361046385 $313 $451 forward 7 unknown #
vertex $-1 $403 $452 #
straight-curve $-1 -2.5231041494411315 -1.4437340758773587 42.927630634342158 0 -0.52991925155115449 0.84804810408105047 I I #
point $-1 -2.5231041494411315 21.670581535145832 5.9369920159469061 #
point $-1 -17.544786197098844 24.127175664955008 2.005619475351061 #
straight-curve $-1 0 24.127175664955008 5.9369920159469052 -1 0 0 I I #
vertex $-1 $320 $453 #
point $-1 -9.0339451732699914 20.963976890733008 2.7622450087729824 #
coedge $-1 $335 $334 $327 $412 forward $324 $-1 #
edge $-1 $413 36.84003425231019 $416 40.771406792906035 $411 $454 forward 7 unknown #
vertex $-1 $339 $455 #
straight-curve $-1 23.979132429302769 33.386401506826935 5.9369920159469061 0 1 0 I I #
edge $-1 $416 -15.744986726565813 $336 -0.72330467890810013 $335 $456 forward 7 unknown #
vertex $-1 $415 $457 #
straight-curve $-1 23.979132429302769 -1.4437340758773587 42.927630634342158 0 -0.52991925155115449 0.84804810408105047 I I #
point $-1 23.979132429302769 21.670581535145832 5.9369920159469061 #
point $-1 8.9574503816450566 24.127175664955008 2.005619475351061 #
straight-curve $-1 0 24.127175664955008 5.9369920159469052 -1 0 0 I I #
vertex $-1 $342 $458 #
point $-1 17.468291405473913 20.963976890733008 2.7622450087729824 #
coedge $-1 $425 $355 $349 $424 reversed $346 $-1 #
edge $-1 $432 -5.9369920159469052 $357 -2.6564419195110283 $349 $459 forward 7 unknown #
coedge $-1 $350 $423 $352 $427 reversed $346 $-1 #
straight-curve $-1 32.29479150866468 -24.127175664955008 30.259875541636095 0 0 -1 I I #
edge $-1 $353 32.29479150866468 $432 40.219733268227181 $425 $460 forward 7 unknown #
point $-1 32.29479150866468 -24.127175664955008 5.9369920159469052 #
straight-curve $-1 18.128631194222965 -24.127175664955008 2.6564419195110247 1 0 0 I I #
point $-1 40.219733268227181 -24.127175664955008 2.6564419195110283 #
point $-1 32.29479150866468 -24.127175664955008 2.6564419195110283 #
vertex $-1 $361 $461 #
straight-curve $-1 40.219733268227181 0 5.9369920159469052 0 1 0 I I #
vertex $-1 $364 $462 #
point $-1 37.25726238844593 -21.085117477583339 2.9054782010601441 #
straight-curve $-1 -40.219733268227181 24.127175664955008 0 0 0 -1 I I #
point $-1 -40.219733268227181 -24.127175664955008 -5.9369920159469052 #
straight-curve $-1 -40.219733268227181 0 -5.9369920159469052 0 1 0 I I #
point $-1 -40.219733268227181 24.127175664955008 -5.9369920159469052 #
coedge $-1 $393 $392 $385 $441 reversed $281 $-1 #
edge $-1 $442 -24.127175664955008 $444 24.127175664955008 $440 $463 forward 7 unknown #
vertex $-1 $441 $464 #
straight-curve $-1 0 -24.127175664955008 -5.9369920159469052 -1 0 0 I I #
vertex $-1 $388 $465 #
straight-curve $-1 0 24.127175664955008 -5.9369920159469052 1 0 0 I I #
point $-1 -33.785387036023259 24.127175664955008 -5.9369920159469052 #
straight-curve $-1 -40.219733268227181 24.127175664955008 0 0 0 -1 I I #
straight-curve $-1 -40.219733268227181 -24.127175664955008 0 0 0 -1 I I #
straight-curve $-1 -2.5231041494411315 24.127175664955008 42.777026268257096 0 0 -1 I I #
point $-1 -2.5231041494411315 24.127175664955008 5.9369920159469052 #
straight-curve $-1 -5.0169725866349939 24.127175664955008 2.0056194753510646 -1 0 0 I I #
point $-1 -2.5231041494411315 24.127175664955008 2.005619475351061 #
point $-1 -10.033945173269991 20.115928786651956 2.2323257572218278 #
straight-curve $-1 23.979132429302769 24.127175664955008 42.777026268257096 0 0 -1 I I #
point $-1 23.979132429302769 24.127175664955008 5.9369920159469052 #
straight-curve $-1 8.2341457027369565 24.127175664955008 2.0056194753510646 -1 0 0 I I #
point $-1 23.979132429302769 24.127175664955008 2.005619475351061 #
point $-1 16.468291405473913 20.115928786651956 2.2323257572218278 #
straight-curve $-1 40.219733268227181 -24.127175664955008 0 0 0 -1 I I #
straight-curve $-1 0 -24.127175664955008 5.9369920159469052 1 0 0 I I #
point $-1 40.219733268227181 -24.127175664955008 5.9369920159469052 #
point $-1 36.25726238844593 -20.390459098963632 2.1861384086021962 #
straight-curve $-1 -40.219733268227181 0 -5.9369920159469052 0 1 0 I I #
point $-1 -40.219733268227181 -24.127175664955008 -5.9369920159469052 #
point $-1 -40.219733268227181 24.127175664955008 -5.9369920159469052 #
End-of-ACIS-data 