500 0 20 0           
7 Unknown 11 ACIS 5.0 NT 24 Thu Mar 25 23:49:57 1999 
-1 9.9999999999999995e-007 1e-010 
body $-1 $20 $-1 $21 #
body $-1 $22 $-1 $23 #
body $-1 $24 $-1 $25 #
body $-1 $26 $-1 $27 #
body $-1 $28 $-1 $29 #
body $-1 $30 $-1 $31 #
body $-1 $32 $-1 $33 #
body $-1 $34 $-1 $35 #
body $-1 $36 $-1 $37 #
body $-1 $38 $-1 $39 #
body $-1 $40 $-1 $41 #
body $-1 $42 $-1 $43 #
body $-1 $44 $-1 $45 #
body $-1 $46 $-1 $47 #
body $-1 $48 $-1 $49 #
body $-1 $50 $-1 $51 #
body $-1 $52 $-1 $53 #
body $-1 $54 $-1 $55 #
body $-1 $56 $-1 $57 #
body $-1 $58 $-1 $59 #
lump $-1 $-1 $60 $0 #
transform $-1 1 0 0 0 1 0 0 0 1 55.341044343394266 29.093611376193856 13.952272097060233 1 rotate no_reflect no_shear #
lump $-1 $-1 $61 $1 #
transform $-1 1 0 0 0 1 0 0 0 1 55.341044343394266 29.093611376193856 13.952272097060233 1 rotate no_reflect no_shear #
lump $-1 $-1 $62 $2 #
transform $-1 1 0 0 0 1 0 0 0 1 55.341044343394266 29.093611376193856 13.952272097060233 1 rotate no_reflect no_shear #
lump $-1 $-1 $63 $3 #
transform $-1 1 0 0 0 1 0 0 0 1 55.341044343394266 29.093611376193856 13.952272097060233 1 rotate no_reflect no_shear #
lump $-1 $-1 $64 $4 #
transform $-1 1 0 0 0 1 0 0 0 1 55.341044343394266 29.093611376193856 13.952272097060233 1 rotate no_reflect no_shear #
lump $-1 $-1 $65 $5 #
transform $-1 1 0 0 0 1 0 0 0 1 55.341044343394266 29.093611376193856 13.952272097060233 1 rotate no_reflect no_shear #
lump $-1 $-1 $66 $6 #
transform $-1 1 0 0 0 1 0 0 0 1 55.341044343394266 29.093611376193856 13.952272097060233 1 rotate no_reflect no_shear #
lump $-1 $-1 $67 $7 #
transform $-1 1 0 0 0 1 0 0 0 1 55.341044343394266 29.093611376193856 13.952272097060233 1 rotate no_reflect no_shear #
lump $-1 $-1 $68 $8 #
transform $-1 1 0 0 0 1 0 0 0 1 55.341044343394266 29.093611376193856 13.952272097060233 1 rotate no_reflect no_shear #
lump $-1 $-1 $69 $9 #
transform $-1 1 0 0 0 1 0 0 0 1 55.341044343394266 29.093611376193856 13.952272097060233 1 rotate no_reflect no_shear #
lump $-1 $-1 $70 $10 #
transform $-1 1 0 0 0 1 0 0 0 1 55.341044343394266 29.093611376193856 13.952272097060233 1 rotate no_reflect no_shear #
lump $-1 $-1 $71 $11 #
transform $-1 1 0 0 0 1 0 0 0 1 55.341044343394266 29.093611376193856 13.952272097060233 1 rotate no_reflect no_shear #
lump $-1 $-1 $72 $12 #
transform $-1 1 0 0 0 1 0 0 0 1 55.341044343394266 29.093611376193856 13.952272097060233 1 rotate no_reflect no_shear #
lump $-1 $-1 $73 $13 #
transform $-1 1 0 0 0 1 0 0 0 1 55.341044343394266 29.093611376193856 13.952272097060233 1 rotate no_reflect no_shear #
lump $-1 $-1 $74 $14 #
transform $-1 1 0 0 0 1 0 0 0 1 55.341044343394266 29.093611376193856 13.952272097060233 1 rotate no_reflect no_shear #
lump $-1 $-1 $75 $15 #
transform $-1 1 0 0 0 1 0 0 0 1 55.341044343394266 29.093611376193856 13.952272097060233 1 rotate no_reflect no_shear #
lump $-1 $-1 $76 $16 #
transform $-1 1 0 0 0 1 0 0 0 1 55.341044343394266 29.093611376193856 13.952272097060233 1 rotate no_reflect no_shear #
lump $-1 $-1 $77 $17 #
transform $-1 1 0 0 0 1 0 0 0 1 55.341044343394266 29.093611376193856 13.952272097060233 1 rotate no_reflect no_shear #
lump $-1 $-1 $78 $18 #
transform $-1 1 0 0 0 1 0 0 0 1 55.341044343394266 29.093611376193856 13.952272097060233 1 rotate no_reflect no_shear #
lump $-1 $-1 $79 $19 #
transform $-1 1 0 0 0 1 0 0 0 1 55.341044343394266 29.093611376193856 13.952272097060233 1 rotate no_reflect no_shear #
shell $-1 $-1 $-1 $80 $-1 $20 #
shell $-1 $-1 $-1 $81 $-1 $22 #
shell $-1 $-1 $-1 $82 $-1 $24 #
shell $-1 $-1 $-1 $83 $-1 $26 #
shell $-1 $-1 $-1 $84 $-1 $28 #
shell $-1 $-1 $-1 $85 $-1 $30 #
shell $-1 $-1 $-1 $86 $-1 $32 #
shell $-1 $-1 $-1 $87 $-1 $34 #
shell $-1 $-1 $-1 $88 $-1 $36 #
shell $-1 $-1 $-1 $89 $-1 $38 #
shell $-1 $-1 $-1 $90 $-1 $40 #
shell $-1 $-1 $-1 $91 $-1 $42 #
shell $-1 $-1 $-1 $92 $-1 $44 #
shell $-1 $-1 $-1 $93 $-1 $46 #
shell $-1 $-1 $-1 $94 $-1 $48 #
shell $-1 $-1 $-1 $95 $-1 $50 #
shell $-1 $-1 $-1 $96 $-1 $52 #
shell $-1 $-1 $-1 $97 $-1 $54 #
shell $-1 $-1 $-1 $98 $-1 $56 #
shell $-1 $-1 $-1 $99 $-1 $58 #
face $-1 $100 $101 $60 $-1 $102 forward single #
face $-1 $103 $104 $61 $-1 $105 reversed single #
face $-1 $106 $107 $62 $-1 $108 reversed single #
face $-1 $109 $110 $63 $-1 $111 forward single #
face $-1 $112 $113 $64 $-1 $114 forward single #
face $-1 $115 $116 $65 $-1 $117 forward single #
face $-1 $118 $119 $66 $-1 $120 reversed single #
face $-1 $121 $122 $67 $-1 $123 forward single #
face $-1 $124 $125 $68 $-1 $126 forward single #
face $-1 $127 $128 $69 $-1 $129 forward single #
face $-1 $130 $131 $70 $-1 $132 reversed single #
face $-1 $133 $134 $71 $-1 $135 forward single #
face $-1 $136 $137 $72 $-1 $138 forward single #
face $-1 $139 $140 $73 $-1 $141 forward single #
face $-1 $142 $143 $74 $-1 $144 reversed single #
face $-1 $145 $146 $75 $-1 $147 forward single #
face $-1 $148 $149 $76 $-1 $150 forward single #
face $-1 $151 $152 $77 $-1 $153 forward single #
face $-1 $154 $155 $78 $-1 $156 reversed single #
face $-1 $157 $158 $79 $-1 $159 forward single #
face $-1 $160 $161 $60 $-1 $162 reversed single #
loop $-1 $-1 $163 $80 #
plane-surface $-1 0 0 13.952272097060233 0 0 1 1 0 0 forward_v I I I I #
face $-1 $164 $165 $61 $-1 $166 reversed single #
loop $-1 $-1 $167 $81 #
plane-surface $-1 0 -22.26740040488701 5.9695814048263678 0 0 1 1 0 0 forward_v I I I I #
face $-1 $168 $169 $62 $-1 $170 reversed single #
loop $-1 $-1 $171 $82 #
plane-surface $-1 60.803798530423272 -9.3550037222154732 162.59928143838829 0 -1 0 -0.73135370988377701 0 -0.68199835119979291 forward_v I I I I #
face $-1 $172 $173 $63 $-1 $174 forward single #
loop $-1 $175 $176 $83 #
cone-surface $-1 51.27396415476148 -14.223952291307226 9.6519667847894119 -0.73135370988377701 0 -0.68199835119979291 0.34099917559989645 0 -0.36567685494188851 1 I I 0 1 0.5 forward I I I I #
face $-1 $177 $178 $64 $-1 $179 forward single #
loop $-1 $180 $181 $84 #
cone-surface $-1 51.27396415476148 -12.398096577897821 9.6519667847894119 -0.73135370988377701 0 -0.68199835119979291 0.34099917559989645 0 -0.36567685494188851 1 I I 0 1 0.5 forward I I I I #
face $-1 $182 $183 $65 $-1 $184 forward single #
loop $-1 $185 $186 $85 #
cone-surface $-1 51.27396415476148 -10.572240864488414 9.6519667847894119 -0.73135370988377701 0 -0.68199835119979291 0.34099917559989645 0 -0.36567685494188851 1 I I 0 1 0.5 forward I I I I #
face $-1 $187 $188 $66 $-1 $189 reversed single #
loop $-1 $-1 $190 $86 #
plane-surface $-1 60.803798530423272 -4.3074892311366551 162.59928143838829 0 1 0 0.73135370988377701 0 0.68199835119979291 forward_v I I I I #
face $-1 $191 $192 $67 $-1 $193 forward single #
loop $-1 $194 $195 $87 #
cone-surface $-1 51.27396415476148 -3.0902520888637213 9.6519667847894119 -0.73135370988377701 0 -0.68199835119979291 0.34099917559989645 0 -0.36567685494188851 1 I I 0 1 0.5 forward I I I I #
face $-1 $196 $197 $68 $-1 $198 forward single #
loop $-1 $199 $200 $88 #
cone-surface $-1 51.27396415476148 -1.2643963754543179 9.6519667847894119 -0.73135370988377701 0 -0.68199835119979291 0.34099917559989645 0 -0.36567685494188851 1 I I 0 1 0.5 forward I I I I #
face $-1 $201 $202 $69 $-1 $203 forward single #
loop $-1 $204 $205 $89 #
cone-surface $-1 51.27396415476148 0.56145933795509251 9.6519667847894119 -0.73135370988377701 0 -0.68199835119979291 0.34099917559989645 0 -0.36567685494188851 1 I I 0 1 0.5 forward I I I I #
face $-1 $206 $207 $70 $-1 $208 reversed single #
loop $-1 $-1 $209 $90 #
plane-surface $-1 60.803798530423272 6.8262109713068515 162.59928143838829 0 1 0 0.73135370988377701 0 0.68199835119979291 forward_v I I I I #
face $-1 $210 $211 $71 $-1 $212 forward single #
loop $-1 $213 $214 $91 #
cone-surface $-1 51.27396415476148 8.0434481135797853 9.6519667847894119 -0.73135370988377701 0 -0.68199835119979291 0.34099917559989645 0 -0.36567685494188851 1 I I 0 1 0.5 forward I I I I #
face $-1 $215 $216 $72 $-1 $217 forward single #
loop $-1 $218 $219 $92 #
cone-surface $-1 51.27396415476148 9.8693038269891886 9.6519667847894119 -0.73135370988377701 0 -0.68199835119979291 0.34099917559989645 0 -0.36567685494188851 1 I I 0 1 0.5 forward I I I I #
face $-1 $220 $221 $73 $-1 $222 forward single #
loop $-1 $223 $224 $93 #
cone-surface $-1 51.27396415476148 11.695159540398599 9.6519667847894119 -0.73135370988377701 0 -0.68199835119979291 0.34099917559989645 0 -0.36567685494188851 1 I I 0 1 0.5 forward I I I I #
face $-1 $225 $226 $74 $-1 $227 reversed single #
loop $-1 $-1 $228 $94 #
plane-surface $-1 60.803798530423272 17.959911173750356 162.59928143838829 0 1 0 0.73135370988377701 0 0.68199835119979291 forward_v I I I I #
face $-1 $229 $230 $75 $-1 $231 forward single #
loop $-1 $232 $233 $95 #
cone-surface $-1 51.27396415476148 19.177148316023292 9.6519667847894119 -0.73135370988377701 0 -0.68199835119979291 0.34099917559989645 0 -0.36567685494188851 1 I I 0 1 0.5 forward I I I I #
face $-1 $234 $235 $76 $-1 $236 forward single #
loop $-1 $237 $238 $96 #
cone-surface $-1 51.27396415476148 21.003004029432695 9.6519667847894119 -0.73135370988377701 0 -0.68199835119979291 0.34099917559989645 0 -0.36567685494188851 1 I I 0 1 0.5 forward I I I I #
face $-1 $239 $240 $77 $-1 $241 forward single #
loop $-1 $242 $243 $97 #
cone-surface $-1 51.27396415476148 22.828859742842106 9.6519667847894119 -0.73135370988377701 0 -0.68199835119979291 0.34099917559989645 0 -0.36567685494188851 1 I I 0 1 0.5 forward I I I I #
face $-1 $244 $245 $78 $-1 $246 reversed single #
loop $-1 $-1 $247 $98 #
plane-surface $-1 -117.23368368276516 -10.152208137007698 93.388061068000709 0 1 0 -0.55919291073839883 0 0.82903756765294845 forward_v I I I I #
face $-1 $248 $249 $79 $-1 $250 forward single #
loop $-1 $251 $252 $99 #
cone-surface $-1 -45.630615422345734 -4.8279649901337223 6.9378575520292598 0.55919291073839883 0 -0.82903756765294845 1.2435563514794228 0 0.83878936610759824 1 I I 0 1 1.5 forward I I I I #
face $-1 $253 $254 $60 $-1 $255 reversed single #
loop $-1 $-1 $256 $100 #
plane-surface $-1 0 0 -13.952272097060233 0 0 1 1 0 0 forward_v I I I I #
coedge $-1 $257 $258 $259 $260 forward $101 $-1 #
face $-1 $261 $262 $61 $-1 $263 reversed single #
loop $-1 $-1 $264 $103 #
plane-surface $-1 0 -15.441189433580163 9.9609267509432993 0 -1 0 0 0 -1 forward_v I I I I #
coedge $-1 $265 $266 $267 $268 reversed $104 $-1 #
face $-1 $269 $270 $62 $-1 $271 forward single #
loop $-1 $-1 $272 $106 #
plane-surface $-1 -20.143957648344745 -12.398096577897817 87.114279446649263 0.73135370988377701 0 0.68199835119979291 0.68199835119979291 0 -0.73135370988377701 forward_v I I I I #
coedge $-1 $273 $274 $275 $276 reversed $107 $-1 #
face $-1 $-1 $277 $63 $-1 $278 forward single #
loop $-1 $279 $280 $109 #
cone-surface $-1 50.654209570504669 -14.223952291307226 9.0740362993081458 -0.73135370988377701 0 -0.68199835119979291 0.17049958779994823 0 -0.18283842747094425 1 I I -0.70710678118654746 0.70710678118654746 0.25 forward I I I I #
loop $-1 $-1 $281 $83 #
coedge $-1 $176 $176 $282 $283 reversed $110 $-1 #
face $-1 $-1 $284 $64 $-1 $285 forward single #
loop $-1 $286 $287 $112 #
cone-surface $-1 50.654209570504669 -12.398096577897821 9.0740362993081458 -0.73135370988377701 0 -0.68199835119979291 0.17049958779994823 0 -0.18283842747094425 1 I I -0.70710678118654746 0.70710678118654746 0.25 forward I I I I #
loop $-1 $-1 $288 $84 #
coedge $-1 $181 $181 $289 $290 reversed $113 $-1 #
face $-1 $-1 $291 $65 $-1 $292 forward single #
loop $-1 $293 $294 $115 #
cone-surface $-1 50.654209570504669 -10.572240864488414 9.0740362993081458 -0.73135370988377701 0 -0.68199835119979291 0.17049958779994823 0 -0.18283842747094425 1 I I -0.70710678118654746 0.70710678118654746 0.25 forward I I I I #
loop $-1 $-1 $295 $85 #
coedge $-1 $186 $186 $296 $297 reversed $116 $-1 #
face $-1 $298 $299 $66 $-1 $300 reversed single #
loop $-1 $-1 $301 $118 #
plane-surface $-1 -20.143957648344745 -1.2643963754543108 87.114279446649263 0.73135370988377701 0 0.68199835119979291 0.68199835119979291 0 -0.73135370988377701 forward_v I I I I #
coedge $-1 $302 $303 $304 $305 reversed $119 $-1 #
face $-1 $-1 $306 $67 $-1 $307 forward single #
loop $-1 $308 $309 $121 #
cone-surface $-1 50.654209570504669 -3.0902520888637213 9.0740362993081458 -0.73135370988377701 0 -0.68199835119979291 0.17049958779994823 0 -0.18283842747094425 1 I I -0.70710678118654746 0.70710678118654746 0.25 forward I I I I #
loop $-1 $-1 $310 $87 #
coedge $-1 $195 $195 $311 $312 reversed $122 $-1 #
face $-1 $-1 $313 $68 $-1 $314 forward single #
loop $-1 $315 $316 $124 #
cone-surface $-1 50.654209570504669 -1.2643963754543179 9.0740362993081458 -0.73135370988377701 0 -0.68199835119979291 0.17049958779994823 0 -0.18283842747094425 1 I I -0.70710678118654746 0.70710678118654746 0.25 forward I I I I #
loop $-1 $-1 $317 $88 #
coedge $-1 $200 $200 $318 $319 reversed $125 $-1 #
face $-1 $-1 $320 $69 $-1 $321 forward single #
loop $-1 $322 $323 $127 #
cone-surface $-1 50.654209570504669 0.56145933795509251 9.0740362993081458 -0.73135370988377701 0 -0.68199835119979291 0.17049958779994823 0 -0.18283842747094425 1 I I -0.70710678118654746 0.70710678118654746 0.25 forward I I I I #
loop $-1 $-1 $324 $89 #
coedge $-1 $205 $205 $325 $326 reversed $128 $-1 #
face $-1 $327 $328 $70 $-1 $329 reversed single #
loop $-1 $-1 $330 $130 #
plane-surface $-1 -20.143957648344745 9.8693038269891957 87.114279446649263 0.73135370988377701 0 0.68199835119979291 0.68199835119979291 0 -0.73135370988377701 forward_v I I I I #
coedge $-1 $331 $332 $333 $334 reversed $131 $-1 #
face $-1 $-1 $335 $71 $-1 $336 forward single #
loop $-1 $337 $338 $133 #
cone-surface $-1 50.654209570504669 8.0434481135797853 9.0740362993081458 -0.73135370988377701 0 -0.68199835119979291 0.17049958779994823 0 -0.18283842747094425 1 I I -0.70710678118654746 0.70710678118654746 0.25 forward I I I I #
loop $-1 $-1 $339 $91 #
coedge $-1 $214 $214 $340 $341 reversed $134 $-1 #
face $-1 $-1 $342 $72 $-1 $343 forward single #
loop $-1 $344 $345 $136 #
cone-surface $-1 50.654209570504669 9.8693038269891886 9.0740362993081458 -0.73135370988377701 0 -0.68199835119979291 0.17049958779994823 0 -0.18283842747094425 1 I I -0.70710678118654746 0.70710678118654746 0.25 forward I I I I #
loop $-1 $-1 $346 $92 #
coedge $-1 $219 $219 $347 $348 reversed $137 $-1 #
face $-1 $-1 $349 $73 $-1 $350 forward single #
loop $-1 $351 $352 $139 #
cone-surface $-1 50.654209570504669 11.695159540398599 9.0740362993081458 -0.73135370988377701 0 -0.68199835119979291 0.17049958779994823 0 -0.18283842747094425 1 I I -0.70710678118654746 0.70710678118654746 0.25 forward I I I I #
loop $-1 $-1 $353 $93 #
coedge $-1 $224 $224 $354 $355 reversed $140 $-1 #
face $-1 $356 $357 $74 $-1 $358 reversed single #
loop $-1 $-1 $359 $142 #
plane-surface $-1 -20.143957648344745 21.003004029432702 87.114279446649263 0.73135370988377701 0 0.68199835119979291 0.68199835119979291 0 -0.73135370988377701 forward_v I I I I #
coedge $-1 $360 $361 $362 $363 reversed $143 $-1 #
face $-1 $-1 $364 $75 $-1 $365 forward single #
loop $-1 $366 $367 $145 #
cone-surface $-1 50.654209570504669 19.177148316023292 9.0740362993081458 -0.73135370988377701 0 -0.68199835119979291 0.17049958779994823 0 -0.18283842747094425 1 I I -0.70710678118654746 0.70710678118654746 0.25 forward I I I I #
loop $-1 $-1 $368 $95 #
coedge $-1 $233 $233 $369 $370 reversed $146 $-1 #
face $-1 $-1 $371 $76 $-1 $372 forward single #
loop $-1 $373 $374 $148 #
cone-surface $-1 50.654209570504669 21.003004029432695 9.0740362993081458 -0.73135370988377701 0 -0.68199835119979291 0.17049958779994823 0 -0.18283842747094425 1 I I -0.70710678118654746 0.70710678118654746 0.25 forward I I I I #
loop $-1 $-1 $375 $96 #
coedge $-1 $238 $238 $376 $377 reversed $149 $-1 #
face $-1 $-1 $378 $77 $-1 $379 forward single #
loop $-1 $380 $381 $151 #
cone-surface $-1 50.654209570504669 22.828859742842106 9.0740362993081458 -0.73135370988377701 0 -0.68199835119979291 0.17049958779994823 0 -0.18283842747094425 1 I I -0.70710678118654746 0.70710678118654746 0.25 forward I I I I #
loop $-1 $-1 $382 $97 #
coedge $-1 $243 $243 $383 $384 reversed $152 $-1 #
face $-1 $385 $386 $78 $-1 $387 reversed single #
loop $-1 $-1 $388 $154 #
plane-surface $-1 -55.34104434339428 -4.8279649901337223 1.6284514803576258 -0.55919291073839883 0 0.82903756765294845 0.82903756765294845 0 0.55919291073839883 forward_v I I I I #
coedge $-1 $389 $390 $391 $392 reversed $155 $-1 #
face $-1 $-1 $393 $79 $-1 $394 forward single #
loop $-1 $395 $396 $157 #
cone-surface $-1 -44.636199360133787 -4.8279649901337223 5.4635751396098922 0.55919291073839883 0 -0.82903756765294845 0.62177817573971139 0 0.41939468305379912 1 I I -0.70710678118654757 0.70710678118654757 0.75 forward I I I I #
loop $-1 $-1 $397 $99 #
coedge $-1 $252 $252 $398 $399 reversed $158 $-1 #
face $-1 $400 $401 $60 $-1 $402 reversed single #
loop $-1 $-1 $403 $160 #
plane-surface $-1 0 -29.093611376193856 0 0 1 0 0 0 1 forward_v I I I I #
coedge $-1 $404 $405 $406 $407 forward $161 $-1 #
coedge $-1 $408 $163 $409 $410 forward $101 $-1 #
coedge $-1 $163 $408 $411 $412 forward $101 $-1 #
coedge $-1 $413 $414 $163 $260 reversed $415 $-1 #
edge $-1 $416 -29.093611376193856 $417 29.093611376193856 $259 $418 forward 7 unknown #
face $-1 $419 $420 $61 $-1 $421 reversed single #
loop $-1 $-1 $422 $164 #
plane-surface $-1 -55.341044343394266 0 0 1 0 0 0 0 -1 forward_v I I I I #
coedge $-1 $423 $424 $425 $426 reversed $165 $-1 #
coedge $-1 $427 $167 $428 $429 reversed $104 $-1 #
coedge $-1 $167 $427 $423 $430 forward $104 $-1 #
coedge $-1 $425 $431 $167 $268 forward $432 $-1 #
edge $-1 $433 -17.959911173750349 $434 -4.3074892311366586 $267 $435 forward 7 unknown #
face $-1 $436 $437 $62 $-1 $438 reversed single #
loop $-1 $-1 $439 $168 #
plane-surface $-1 0 -15.441189433580163 9.9609267509432993 0 -1 0 0 0 -1 forward_v I I I I #
coedge $-1 $440 $441 $442 $443 reversed $169 $-1 #
coedge $-1 $274 $171 $444 $445 reversed $107 $-1 #
coedge $-1 $171 $273 $440 $446 reversed $107 $-1 #
coedge $-1 $442 $447 $171 $276 forward $448 $-1 #
edge $-1 $449 -24.93914507818263 $450 -17.678817014488811 $275 $451 forward 7 unknown #
loop $-1 $-1 $282 $172 #
plane-surface $-1 -20.143957648344745 -12.398096577897817 87.114279446649263 0.73135370988377701 0 0.68199835119979291 0.68199835119979291 0 -0.73135370988377701 forward_v I I I I #
loop $-1 $-1 $452 $109 #
coedge $-1 $280 $280 $281 $453 reversed $173 $-1 #
coedge $-1 $281 $281 $280 $453 forward $175 $-1 #
coedge $-1 $282 $282 $176 $283 forward $277 $-1 #
edge $-1 $454 0 $454 6.2831853071796004 $282 $455 forward 7 unknown #
loop $-1 $-1 $289 $177 #
plane-surface $-1 -20.143957648344745 -12.398096577897817 87.114279446649263 0.73135370988377701 0 0.68199835119979291 0.68199835119979291 0 -0.73135370988377701 forward_v I I I I #
loop $-1 $-1 $456 $112 #
coedge $-1 $287 $287 $288 $457 reversed $178 $-1 #
coedge $-1 $288 $288 $287 $457 forward $180 $-1 #
coedge $-1 $289 $289 $181 $290 forward $284 $-1 #
edge $-1 $458 0 $458 6.2831853071796004 $289 $459 forward 7 unknown #
loop $-1 $-1 $296 $182 #
plane-surface $-1 -20.143957648344745 -12.398096577897817 87.114279446649263 0.73135370988377701 0 0.68199835119979291 0.68199835119979291 0 -0.73135370988377701 forward_v I I I I #
loop $-1 $-1 $460 $115 #
coedge $-1 $294 $294 $295 $461 reversed $183 $-1 #
coedge $-1 $295 $295 $294 $461 forward $185 $-1 #
coedge $-1 $296 $296 $186 $297 forward $291 $-1 #
edge $-1 $462 0 $462 6.2831853071796004 $296 $463 forward 7 unknown #
face $-1 $464 $465 $66 $-1 $466 reversed single #
loop $-1 $-1 $467 $187 #
plane-surface $-1 60.803798530423272 1.7786964802280334 162.59928143838829 0 -1 0 -0.73135370988377701 0 -0.68199835119979291 forward_v I I I I #
coedge $-1 $468 $469 $470 $471 reversed $188 $-1 #
coedge $-1 $303 $190 $472 $473 reversed $119 $-1 #
coedge $-1 $190 $302 $468 $474 reversed $119 $-1 #
coedge $-1 $470 $475 $190 $305 forward $465 $-1 #
edge $-1 $476 67.347368622133914 $477 75.133117451312884 $304 $478 forward 7 unknown #
loop $-1 $-1 $311 $191 #
plane-surface $-1 -20.143957648344745 -1.2643963754543108 87.114279446649263 0.73135370988377701 0 0.68199835119979291 0.68199835119979291 0 -0.73135370988377701 forward_v I I I I #
loop $-1 $-1 $479 $121 #
coedge $-1 $309 $309 $310 $480 reversed $192 $-1 #
coedge $-1 $310 $310 $309 $480 forward $194 $-1 #
coedge $-1 $311 $311 $195 $312 forward $306 $-1 #
edge $-1 $481 0 $481 6.2831853071796004 $311 $482 forward 7 unknown #
loop $-1 $-1 $318 $196 #
plane-surface $-1 -20.143957648344745 -1.2643963754543108 87.114279446649263 0.73135370988377701 0 0.68199835119979291 0.68199835119979291 0 -0.73135370988377701 forward_v I I I I #
loop $-1 $-1 $483 $124 #
coedge $-1 $316 $316 $317 $484 reversed $197 $-1 #
coedge $-1 $317 $317 $316 $484 forward $199 $-1 #
coedge $-1 $318 $318 $200 $319 forward $313 $-1 #
edge $-1 $485 0 $485 6.2831853071796004 $318 $486 forward 7 unknown #
loop $-1 $-1 $325 $201 #
plane-surface $-1 -20.143957648344745 -1.2643963754543108 87.114279446649263 0.73135370988377701 0 0.68199835119979291 0.68199835119979291 0 -0.73135370988377701 forward_v I I I I #
loop $-1 $-1 $487 $127 #
coedge $-1 $323 $323 $324 $488 reversed $202 $-1 #
coedge $-1 $324 $324 $323 $488 forward $204 $-1 #
coedge $-1 $325 $325 $205 $326 forward $320 $-1 #
edge $-1 $489 0 $489 6.2831853071796004 $325 $490 forward 7 unknown #
face $-1 $491 $492 $70 $-1 $493 reversed single #
loop $-1 $-1 $494 $206 #
plane-surface $-1 60.803798530423272 12.91239668267154 162.59928143838829 0 -1 0 -0.73135370988377701 0 -0.68199835119979291 forward_v I I I I #
coedge $-1 $495 $496 $497 $498 reversed $207 $-1 #
coedge $-1 $332 $209 $499 $500 reversed $131 $-1 #
coedge $-1 $209 $331 $495 $501 reversed $131 $-1 #
coedge $-1 $497 $502 $209 $334 forward $492 $-1 #
edge $-1 $503 67.347368622133914 $504 75.133117451312884 $333 $505 forward 7 unknown #
loop $-1 $-1 $340 $210 #
plane-surface $-1 -20.143957648344745 9.8693038269891957 87.114279446649263 0.73135370988377701 0 0.68199835119979291 0.68199835119979291 0 -0.73135370988377701 forward_v I I I I #
loop $-1 $-1 $506 $133 #
coedge $-1 $338 $338 $339 $507 reversed $211 $-1 #
coedge $-1 $339 $339 $338 $507 forward $213 $-1 #
coedge $-1 $340 $340 $214 $341 forward $335 $-1 #
edge $-1 $508 0 $508 6.2831853071796004 $340 $509 forward 7 unknown #
loop $-1 $-1 $347 $215 #
plane-surface $-1 -20.143957648344745 9.8693038269891957 87.114279446649263 0.73135370988377701 0 0.68199835119979291 0.68199835119979291 0 -0.73135370988377701 forward_v I I I I #
loop $-1 $-1 $510 $136 #
coedge $-1 $345 $345 $346 $511 reversed $216 $-1 #
coedge $-1 $346 $346 $345 $511 forward $218 $-1 #
coedge $-1 $347 $347 $219 $348 forward $342 $-1 #
edge $-1 $512 0 $512 6.2831853071796004 $347 $513 forward 7 unknown #
loop $-1 $-1 $354 $220 #
plane-surface $-1 -20.143957648344745 9.8693038269891957 87.114279446649263 0.73135370988377701 0 0.68199835119979291 0.68199835119979291 0 -0.73135370988377701 forward_v I I I I #
loop $-1 $-1 $514 $139 #
coedge $-1 $352 $352 $353 $515 reversed $221 $-1 #
coedge $-1 $353 $353 $352 $515 forward $223 $-1 #
coedge $-1 $354 $354 $224 $355 forward $349 $-1 #
edge $-1 $516 0 $516 6.2831853071796004 $354 $517 forward 7 unknown #
face $-1 $518 $519 $74 $-1 $520 reversed single #
loop $-1 $-1 $521 $225 #
plane-surface $-1 60.803798530423272 24.046096885115048 162.59928143838829 0 -1 0 -0.73135370988377701 0 -0.68199835119979291 forward_v I I I I #
coedge $-1 $522 $523 $524 $525 reversed $226 $-1 #
coedge $-1 $361 $228 $526 $527 reversed $143 $-1 #
coedge $-1 $228 $360 $522 $528 reversed $143 $-1 #
coedge $-1 $524 $529 $228 $363 forward $519 $-1 #
edge $-1 $530 67.347368622133914 $531 75.133117451312884 $362 $532 forward 7 unknown #
loop $-1 $-1 $369 $229 #
plane-surface $-1 -20.143957648344745 21.003004029432702 87.114279446649263 0.73135370988377701 0 0.68199835119979291 0.68199835119979291 0 -0.73135370988377701 forward_v I I I I #
loop $-1 $-1 $533 $145 #
coedge $-1 $367 $367 $368 $534 reversed $230 $-1 #
coedge $-1 $368 $368 $367 $534 forward $232 $-1 #
coedge $-1 $369 $369 $233 $370 forward $364 $-1 #
edge $-1 $535 0 $535 6.2831853071796004 $369 $536 forward 7 unknown #
loop $-1 $-1 $376 $234 #
plane-surface $-1 -20.143957648344745 21.003004029432702 87.114279446649263 0.73135370988377701 0 0.68199835119979291 0.68199835119979291 0 -0.73135370988377701 forward_v I I I I #
loop $-1 $-1 $537 $148 #
coedge $-1 $374 $374 $375 $538 reversed $235 $-1 #
coedge $-1 $375 $375 $374 $538 forward $237 $-1 #
coedge $-1 $376 $376 $238 $377 forward $371 $-1 #
edge $-1 $539 0 $539 6.2831853071796004 $376 $540 forward 7 unknown #
loop $-1 $-1 $383 $239 #
plane-surface $-1 -20.143957648344745 21.003004029432702 87.114279446649263 0.73135370988377701 0 0.68199835119979291 0.68199835119979291 0 -0.73135370988377701 forward_v I I I I #
loop $-1 $-1 $541 $151 #
coedge $-1 $381 $381 $382 $542 reversed $240 $-1 #
coedge $-1 $382 $382 $381 $542 forward $242 $-1 #
coedge $-1 $383 $383 $243 $384 forward $378 $-1 #
edge $-1 $543 0 $543 6.2831853071796004 $383 $544 forward 7 unknown #
face $-1 $545 $546 $78 $-1 $547 forward single #
loop $-1 $-1 $548 $244 #
plane-surface $-1 -117.23368368276516 0.496278156740253 93.388061068000709 0 -1 0 0.55919291073839883 0 -0.82903756765294845 forward_v I I I I #
coedge $-1 $549 $550 $551 $552 reversed $245 $-1 #
coedge $-1 $390 $247 $553 $554 reversed $155 $-1 #
coedge $-1 $247 $389 $549 $555 reversed $155 $-1 #
coedge $-1 $551 $556 $247 $392 forward $546 $-1 #
edge $-1 $557 3.2757974979883144 $558 21.546612581769025 $391 $559 forward 7 unknown #
loop $-1 $-1 $398 $248 #
plane-surface $-1 -55.34104434339428 -4.8279649901337223 1.6284514803576258 -0.55919291073839883 0 0.82903756765294845 0.82903756765294845 0 0.55919291073839883 forward_v I I I I #
loop $-1 $-1 $560 $157 #
coedge $-1 $396 $396 $397 $561 reversed $249 $-1 #
coedge $-1 $397 $397 $396 $561 forward $251 $-1 #
coedge $-1 $398 $398 $252 $399 forward $393 $-1 #
edge $-1 $562 0 $562 6.2831853071796004 $398 $563 forward 7 unknown #
face $-1 $564 $565 $60 $-1 $566 reversed single #
loop $-1 $-1 $567 $253 #
plane-surface $-1 -55.341044343394266 0 0 1 0 0 0 0 -1 forward_v I I I I #
coedge $-1 $568 $411 $569 $570 forward $254 $-1 #
coedge $-1 $571 $256 $568 $572 forward $161 $-1 #
coedge $-1 $256 $571 $573 $574 forward $161 $-1 #
coedge $-1 $414 $413 $256 $407 reversed $415 $-1 #
edge $-1 $575 -29.093611376193856 $576 29.093611376193856 $406 $577 forward 7 unknown #
coedge $-1 $258 $257 $578 $579 forward $101 $-1 #
coedge $-1 $580 $581 $257 $410 reversed $565 $-1 #
edge $-1 $417 -55.341044343394266 $582 55.341044343394266 $409 $583 forward 7 unknown #
coedge $-1 $403 $584 $258 $412 reversed $254 $-1 #
edge $-1 $585 -55.341044343394266 $416 55.341044343394266 $411 $586 forward 7 unknown #
coedge $-1 $406 $259 $584 $587 forward $415 $-1 #
coedge $-1 $259 $406 $580 $588 reversed $415 $-1 #
loop $-1 $-1 $413 $564 #
vertex $-1 $260 $589 #
vertex $-1 $260 $590 #
straight-curve $-1 55.341044343394266 0 13.952272097060233 0 1 0 I I #
face $-1 $591 $592 $61 $-1 $593 forward single #
loop $-1 $-1 $428 $261 #
plane-surface $-1 0 -29.093611376193856 0 0 1 0 0 0 1 forward_v I I I I #
coedge $-1 $594 $595 $596 $597 forward $262 $-1 #
coedge $-1 $596 $264 $266 $430 reversed $165 $-1 #
coedge $-1 $264 $596 $598 $599 reversed $165 $-1 #
coedge $-1 $600 $267 $264 $426 forward $432 $-1 #
edge $-1 $434 0.98911802935471815 $601 8.9718087215885802 $425 $602 forward 7 unknown #
coedge $-1 $266 $265 $594 $603 reversed $104 $-1 #
coedge $-1 $604 $605 $265 $429 forward $420 $-1 #
edge $-1 $606 -55.341044343394266 $433 55.341044343394266 $428 $607 forward 7 unknown #
edge $-1 $608 -55.341044343394266 $434 55.341044343394266 $423 $609 forward 7 unknown #
coedge $-1 $267 $600 $604 $610 forward $432 $-1 #
loop $-1 $-1 $425 $591 #
vertex $-1 $429 $611 #
vertex $-1 $268 $612 #
straight-curve $-1 55.341044343394266 -11.133700202443505 5.9695814048263678 0 1 0 I I #
face $-1 $-1 $448 $62 $-1 $613 forward single #
loop $-1 $-1 $614 $269 #
plane-surface $-1 55.341044343394266 0 0 -1 0 0 0 0 1 forward_v I I I I #
coedge $-1 $615 $616 $441 $617 forward $270 $-1 #
coedge $-1 $618 $272 $274 $446 forward $169 $-1 #
coedge $-1 $272 $618 $439 $617 reversed $169 $-1 #
coedge $-1 $619 $275 $272 $443 forward $448 $-1 #
edge $-1 $450 3.1559554332665645 $620 9.2421411446312547 $442 $621 forward 7 unknown #
coedge $-1 $622 $614 $273 $445 forward $437 $-1 #
edge $-1 $623 -75.133117451312884 $449 -67.347368622133914 $444 $624 forward 7 unknown #
edge $-1 $450 100.03642062773642 $623 110.6820886867885 $274 $625 forward 7 unknown #
coedge $-1 $275 $619 $622 $626 forward $448 $-1 #
loop $-1 $-1 $442 $436 #
vertex $-1 $445 $627 #
vertex $-1 $276 $628 #
straight-curve $-1 30.401899265211636 -9.3550037222154732 13.952272097060231 -1 0 0 I I #
coedge $-1 $452 $452 $-1 $629 reversed $279 $-1 #
edge $-1 $630 0 $630 6.2831853071796004 $280 $631 forward 7 unknown #
vertex $-1 $283 $632 #
ellipse-curve $-1 51.710880311547363 -14.223952291307226 10.059397682470747 0.73135370988377701 0 0.68199835119979291 0.34099917559989645 0 -0.36567685494188851 1 I I #
coedge $-1 $456 $456 $-1 $633 reversed $286 $-1 #
edge $-1 $634 0 $634 6.2831853071796004 $287 $635 forward 7 unknown #
vertex $-1 $290 $636 #
ellipse-curve $-1 51.710880311547363 -12.398096577897821 10.059397682470747 0.73135370988377701 0 0.68199835119979291 0.34099917559989645 0 -0.36567685494188851 1 I I #
coedge $-1 $460 $460 $-1 $637 reversed $293 $-1 #
edge $-1 $638 0 $638 6.2831853071796004 $294 $639 forward 7 unknown #
vertex $-1 $297 $640 #
ellipse-curve $-1 51.710880311547363 -10.572240864488414 10.059397682470747 0.73135370988377701 0 0.68199835119979291 0.34099917559989645 0 -0.36567685494188851 1 I I #
face $-1 $-1 $641 $66 $-1 $642 forward single #
loop $-1 $-1 $304 $298 #
plane-surface $-1 55.341044343394266 0 0 -1 0 0 0 0 1 forward_v I I I I #
coedge $-1 $643 $644 $645 $646 reversed $299 $-1 #
coedge $-1 $647 $301 $303 $474 forward $188 $-1 #
coedge $-1 $301 $647 $643 $648 forward $188 $-1 #
coedge $-1 $645 $304 $301 $471 forward $465 $-1 #
edge $-1 $477 -3.6752910434094996 $649 2.4108946679551888 $470 $650 forward 7 unknown #
coedge $-1 $651 $652 $302 $473 forward $641 $-1 #
edge $-1 $653 17.678817014488811 $476 24.93914507818263 $472 $654 forward 7 unknown #
edge $-1 $477 -110.6820886867885 $653 -100.03642062773642 $303 $655 forward 7 unknown #
coedge $-1 $304 $645 $651 $656 reversed $465 $-1 #
vertex $-1 $656 $657 #
vertex $-1 $305 $658 #
straight-curve $-1 55.341044343394266 -4.3074892311366551 81.299640719194144 0 0 -1 I I #
coedge $-1 $479 $479 $-1 $659 reversed $308 $-1 #
edge $-1 $660 0 $660 6.2831853071796004 $309 $661 forward 7 unknown #
vertex $-1 $312 $662 #
ellipse-curve $-1 51.710880311547363 -3.0902520888637213 10.059397682470747 0.73135370988377701 0 0.68199835119979291 0.34099917559989645 0 -0.36567685494188851 1 I I #
coedge $-1 $483 $483 $-1 $663 reversed $315 $-1 #
edge $-1 $664 0 $664 6.2831853071796004 $316 $665 forward 7 unknown #
vertex $-1 $319 $666 #
ellipse-curve $-1 51.710880311547363 -1.2643963754543179 10.059397682470747 0.73135370988377701 0 0.68199835119979291 0.34099917559989645 0 -0.36567685494188851 1 I I #
coedge $-1 $487 $487 $-1 $667 reversed $322 $-1 #
edge $-1 $668 0 $668 6.2831853071796004 $323 $669 forward 7 unknown #
vertex $-1 $326 $670 #
ellipse-curve $-1 51.710880311547363 0.56145933795509251 10.059397682470747 0.73135370988377701 0 0.68199835119979291 0.34099917559989645 0 -0.36567685494188851 1 I I #
face $-1 $-1 $671 $70 $-1 $672 forward single #
loop $-1 $-1 $333 $327 #
plane-surface $-1 55.341044343394266 0 0 -1 0 0 0 0 1 forward_v I I I I #
coedge $-1 $673 $674 $675 $676 reversed $328 $-1 #
coedge $-1 $677 $330 $332 $501 forward $207 $-1 #
coedge $-1 $330 $677 $673 $678 forward $207 $-1 #
coedge $-1 $675 $333 $330 $498 forward $492 $-1 #
edge $-1 $504 1.8915590578122536 $679 7.9777447691769421 $497 $680 forward 7 unknown #
coedge $-1 $681 $682 $331 $500 forward $671 $-1 #
edge $-1 $683 17.678817014488811 $503 24.93914507818263 $499 $684 forward 7 unknown #
edge $-1 $504 -110.6820886867885 $683 -100.03642062773642 $332 $685 forward 7 unknown #
coedge $-1 $333 $675 $681 $686 reversed $492 $-1 #
vertex $-1 $686 $687 #
vertex $-1 $334 $688 #
straight-curve $-1 55.341044343394266 6.8262109713068515 81.299640719194144 0 0 -1 I I #
coedge $-1 $506 $506 $-1 $689 reversed $337 $-1 #
edge $-1 $690 0 $690 6.2831853071796004 $338 $691 forward 7 unknown #
vertex $-1 $341 $692 #
ellipse-curve $-1 51.710880311547363 8.0434481135797853 10.059397682470747 0.73135370988377701 0 0.68199835119979291 0.34099917559989645 0 -0.36567685494188851 1 I I #
coedge $-1 $510 $510 $-1 $693 reversed $344 $-1 #
edge $-1 $694 0 $694 6.2831853071796004 $345 $695 forward 7 unknown #
vertex $-1 $348 $696 #
ellipse-curve $-1 51.710880311547363 9.8693038269891886 10.059397682470747 0.73135370988377701 0 0.68199835119979291 0.34099917559989645 0 -0.36567685494188851 1 I I #
coedge $-1 $514 $514 $-1 $697 reversed $351 $-1 #
edge $-1 $698 0 $698 6.2831853071796004 $352 $699 forward 7 unknown #
vertex $-1 $355 $700 #
ellipse-curve $-1 51.710880311547363 11.695159540398599 10.059397682470747 0.73135370988377701 0 0.68199835119979291 0.34099917559989645 0 -0.36567685494188851 1 I I #
face $-1 $-1 $701 $74 $-1 $702 forward single #
loop $-1 $-1 $362 $356 #
plane-surface $-1 55.341044343394266 0 0 -1 0 0 0 0 1 forward_v I I I I #
coedge $-1 $703 $704 $705 $706 reversed $357 $-1 #
coedge $-1 $707 $359 $361 $528 forward $226 $-1 #
coedge $-1 $359 $707 $703 $708 forward $226 $-1 #
coedge $-1 $705 $362 $359 $525 forward $519 $-1 #
edge $-1 $531 7.4584091590340051 $709 13.544594870398697 $524 $710 forward 7 unknown #
coedge $-1 $711 $712 $360 $527 forward $701 $-1 #
edge $-1 $713 17.678817014488811 $530 24.93914507818263 $526 $714 forward 7 unknown #
edge $-1 $531 -110.6820886867885 $713 -100.03642062773642 $361 $715 forward 7 unknown #
coedge $-1 $362 $705 $711 $716 reversed $519 $-1 #
vertex $-1 $716 $717 #
vertex $-1 $363 $718 #
straight-curve $-1 55.341044343394266 17.959911173750356 81.299640719194144 0 0 -1 I I #
coedge $-1 $533 $533 $-1 $719 reversed $366 $-1 #
edge $-1 $720 0 $720 6.2831853071796004 $367 $721 forward 7 unknown #
vertex $-1 $370 $722 #
ellipse-curve $-1 51.710880311547363 19.177148316023292 10.059397682470747 0.73135370988377701 0 0.68199835119979291 0.34099917559989645 0 -0.36567685494188851 1 I I #
coedge $-1 $537 $537 $-1 $723 reversed $373 $-1 #
edge $-1 $724 0 $724 6.2831853071796004 $374 $725 forward 7 unknown #
vertex $-1 $377 $726 #
ellipse-curve $-1 51.710880311547363 21.003004029432695 10.059397682470747 0.73135370988377701 0 0.68199835119979291 0.34099917559989645 0 -0.36567685494188851 1 I I #
coedge $-1 $541 $541 $-1 $727 reversed $380 $-1 #
edge $-1 $728 0 $728 6.2831853071796004 $381 $729 forward 7 unknown #
vertex $-1 $384 $730 #
ellipse-curve $-1 51.710880311547363 22.828859742842106 10.059397682470747 0.73135370988377701 0 0.68199835119979291 0.34099917559989645 0 -0.36567685494188851 1 I I #
face $-1 $-1 $731 $78 $-1 $732 reversed single #
loop $-1 $-1 $391 $385 #
plane-surface $-1 0 0 13.952272097060233 0 0 1 1 0 0 forward_v I I I I #
coedge $-1 $733 $734 $735 $736 reversed $386 $-1 #
coedge $-1 $737 $388 $390 $555 forward $245 $-1 #
coedge $-1 $388 $737 $733 $738 forward $245 $-1 #
coedge $-1 $735 $391 $388 $552 forward $546 $-1 #
edge $-1 $558 -7.7382256419408364 $739 2.9102606518071141 $551 $740 forward 7 unknown #
coedge $-1 $741 $742 $389 $554 forward $731 $-1 #
edge $-1 $743 -45.065579053642722 $557 -32.741758436940124 $553 $744 forward 7 unknown #
edge $-1 $558 -22.038585218166194 $743 -1.7120460491857305e-014 $390 $745 forward 7 unknown #
coedge $-1 $391 $735 $741 $746 forward $546 $-1 #
vertex $-1 $554 $747 #
vertex $-1 $392 $748 #
straight-curve $-1 -58.61684184138258 -10.152208137007698 13.952272097060231 1 0 0 I I #
coedge $-1 $560 $560 $-1 $749 reversed $395 $-1 #
edge $-1 $750 0 $750 6.2831853071796004 $396 $751 forward 7 unknown #
vertex $-1 $399 $752 #
ellipse-curve $-1 -46.2056368015039 -4.8279649901337223 7.7903617887089407 -0.55919291073839883 0 0.82903756765294845 1.2435563514794228 0 0.83878936610759824 1 I I #
face $-1 $-1 $415 $60 $-1 $753 reversed single #
loop $-1 $-1 $580 $400 #
plane-surface $-1 0 29.093611376193856 0 0 -1 0 0 0 -1 forward_v I I I I #
coedge $-1 $754 $578 $581 $755 forward $401 $-1 #
coedge $-1 $584 $403 $404 $572 reversed $254 $-1 #
coedge $-1 $578 $754 $403 $570 reversed $401 $-1 #
edge $-1 $585 -13.952272097060233 $756 13.952272097060233 $569 $757 forward 7 unknown #
coedge $-1 $405 $404 $754 $758 forward $161 $-1 #
edge $-1 $576 -55.341044343394266 $756 55.341044343394266 $568 $759 forward 7 unknown #
coedge $-1 $581 $580 $405 $574 reversed $565 $-1 #
edge $-1 $760 -55.341044343394266 $575 55.341044343394266 $573 $761 forward 7 unknown #
vertex $-1 $407 $762 #
vertex $-1 $587 $763 #
straight-curve $-1 55.341044343394266 0 -13.952272097060233 0 -1 0 I I #
coedge $-1 $567 $569 $408 $579 reversed $401 $-1 #
edge $-1 $582 -29.093611376193856 $585 29.093611376193856 $578 $764 forward 7 unknown #
coedge $-1 $573 $409 $414 $588 forward $565 $-1 #
coedge $-1 $409 $573 $567 $755 reversed $565 $-1 #
vertex $-1 $410 $765 #
straight-curve $-1 0 29.093611376193856 13.952272097060233 -1 0 0 I I #
coedge $-1 $411 $568 $413 $587 reversed $254 $-1 #
vertex $-1 $579 $766 #
straight-curve $-1 0 -29.093611376193856 13.952272097060233 1 0 0 I I #
edge $-1 $416 -13.952272097060233 $576 13.952272097060233 $413 $767 forward 7 unknown #
edge $-1 $417 -13.952272097060233 $575 13.952272097060233 $414 $768 forward 7 unknown #
point $-1 55.341044343394266 -29.093611376193856 13.952272097060233 #
point $-1 55.341044343394266 29.093611376193856 13.952272097060233 #
face $-1 $-1 $432 $61 $-1 $769 reversed single #
loop $-1 $-1 $598 $419 #
plane-surface $-1 0 0 13.952272097060233 0 0 1 1 0 0 forward_v I I I I #
coedge $-1 $770 $422 $427 $603 forward $262 $-1 #
coedge $-1 $422 $770 $771 $772 reversed $262 $-1 #
coedge $-1 $424 $423 $422 $597 reversed $165 $-1 #
edge $-1 $773 -8.9718087215885802 $608 -0.98911802935471815 $422 $774 forward 7 unknown #
coedge $-1 $771 $775 $424 $599 forward $592 $-1 #
edge $-1 $601 -55.341044343394266 $773 55.341044343394266 $598 $776 forward 7 unknown #
coedge $-1 $431 $425 $775 $777 reversed $432 $-1 #
vertex $-1 $426 $778 #
straight-curve $-1 55.341044343394266 -15.441189433580163 4.9804633754716496 0 0 1 I I #
edge $-1 $608 4.3074892311366586 $606 17.959911173750349 $594 $779 forward 7 unknown #
coedge $-1 $780 $428 $431 $610 reversed $420 $-1 #
coedge $-1 $428 $780 $770 $781 forward $420 $-1 #
vertex $-1 $429 $782 #
straight-curve $-1 0 -29.093611376193856 5.9695814048263678 1 0 0 I I #
vertex $-1 $603 $783 #
straight-curve $-1 0 -15.441189433580163 5.9695814048263678 1 0 0 I I #
edge $-1 $784 -13.952272097060233 $433 -5.9695814048263678 $431 $785 forward 7 unknown #
point $-1 55.341044343394266 -29.093611376193856 5.9695814048263678 #
point $-1 55.341044343394266 -15.441189433580163 5.9695814048263678 #
plane-surface $-1 0 0 13.952272097060233 0 0 1 1 0 0 forward_v I I I I #
coedge $-1 $444 $786 $618 $787 forward $437 $-1 #
coedge $-1 $616 $439 $786 $788 reversed $270 $-1 #
coedge $-1 $439 $615 $619 $789 reversed $270 $-1 #
edge $-1 $620 64.954152314343602 $790 75.599820373395673 $439 $791 forward 7 unknown #
coedge $-1 $441 $440 $614 $787 reversed $169 $-1 #
coedge $-1 $447 $442 $616 $789 forward $448 $-1 #
vertex $-1 $789 $792 #
straight-curve $-1 48.080716279700454 -6.1990482889489087 13.952272097060224 0 -1 0 I I #
coedge $-1 $786 $444 $447 $626 reversed $437 $-1 #
vertex $-1 $445 $793 #
straight-curve $-1 55.341044343394266 -9.3550037222154732 81.299640719194144 0 0 1 I I #
straight-curve $-1 -20.143957648344745 -9.3550037222154732 87.114279446649263 0.68199835119979291 0 -0.73135370988377701 I I #
edge $-1 $794 -15.441189433580163 $449 -9.3550037222154732 $622 $795 forward 7 unknown #
point $-1 55.341044343394266 -9.3550037222154732 13.952272097060233 #
point $-1 48.080716279700447 -9.3550037222154732 13.952272097060231 #
edge $-1 $796 1 $796 0 $452 $-1 forward 7 unknown #
vertex $-1 $453 $797 #
ellipse-curve $-1 50.837047997975617 -14.223952291307226 9.2445358871080945 0.73135370988377701 0 0.68199835119979291 0.34099917559989645 0 -0.36567685494188851 1 I I #
point $-1 52.051879487147239 -14.223952291307226 9.6937208275288427 #
edge $-1 $798 1 $798 0 $456 $-1 forward 7 unknown #
vertex $-1 $457 $799 #
ellipse-curve $-1 50.837047997975617 -12.398096577897821 9.2445358871080945 0.73135370988377701 0 0.68199835119979291 0.34099917559989645 0 -0.36567685494188851 1 I I #
point $-1 52.051879487147239 -12.398096577897821 9.6937208275288427 #
edge $-1 $800 1 $800 0 $460 $-1 forward 7 unknown #
vertex $-1 $461 $801 #
ellipse-curve $-1 50.837047997975617 -10.572240864488414 9.2445358871080945 0.73135370988377701 0 0.68199835119979291 0.34099917559989645 0 -0.36567685494188851 1 I I #
point $-1 52.051879487147239 -10.572240864488414 9.6937208275288427 #
loop $-1 $-1 $472 $464 #
plane-surface $-1 0 0 13.952272097060233 0 0 1 1 0 0 forward_v I I I I #
coedge $-1 $644 $467 $469 $648 reversed $299 $-1 #
coedge $-1 $467 $643 $802 $803 reversed $299 $-1 #
coedge $-1 $475 $470 $467 $646 forward $465 $-1 #
edge $-1 $649 -75.133117451312884 $804 -67.347368622133914 $645 $805 forward 7 unknown #
coedge $-1 $469 $468 $652 $806 reversed $188 $-1 #
edge $-1 $807 100.03642062773642 $649 110.6820886867885 $643 $808 forward 7 unknown #
vertex $-1 $471 $809 #
straight-curve $-1 55.341044343394259 -0.63219818772715541 6.1665232678812671 0 1 0 I I #
coedge $-1 $802 $472 $475 $656 forward $641 $-1 #
coedge $-1 $472 $802 $647 $806 forward $641 $-1 #
vertex $-1 $473 $810 #
straight-curve $-1 30.401899265211636 -4.3074892311366551 13.952272097060231 1 0 0 I I #
straight-curve $-1 -20.143957648344745 -4.3074892311366551 87.114279446649263 -0.68199835119979291 0 0.73135370988377701 I I #
edge $-1 $476 -4.3074892311366551 $804 1.7786964802280334 $475 $811 forward 7 unknown #
point $-1 55.341044343394266 -4.3074892311366551 13.952272097060233 #
point $-1 55.341044343394266 -4.3074892311366551 6.16652326788126 #
edge $-1 $812 1 $812 0 $479 $-1 forward 7 unknown #
vertex $-1 $480 $813 #
ellipse-curve $-1 50.837047997975617 -3.0902520888637213 9.2445358871080945 0.73135370988377701 0 0.68199835119979291 0.34099917559989645 0 -0.36567685494188851 1 I I #
point $-1 52.051879487147239 -3.0902520888637213 9.6937208275288427 #
edge $-1 $814 1 $814 0 $483 $-1 forward 7 unknown #
vertex $-1 $484 $815 #
ellipse-curve $-1 50.837047997975617 -1.2643963754543179 9.2445358871080945 0.73135370988377701 0 0.68199835119979291 0.34099917559989645 0 -0.36567685494188851 1 I I #
point $-1 52.051879487147239 -1.2643963754543179 9.6937208275288427 #
edge $-1 $816 1 $816 0 $487 $-1 forward 7 unknown #
vertex $-1 $488 $817 #
ellipse-curve $-1 50.837047997975617 0.56145933795509251 9.2445358871080945 0.73135370988377701 0 0.68199835119979291 0.34099917559989645 0 -0.36567685494188851 1 I I #
point $-1 52.051879487147239 0.56145933795509251 9.6937208275288427 #
loop $-1 $-1 $499 $491 #
plane-surface $-1 0 0 13.952272097060233 0 0 1 1 0 0 forward_v I I I I #
coedge $-1 $674 $494 $496 $678 reversed $328 $-1 #
coedge $-1 $494 $673 $818 $819 reversed $328 $-1 #
coedge $-1 $502 $497 $494 $676 forward $492 $-1 #
edge $-1 $679 -75.133117451312884 $820 -67.347368622133914 $675 $821 forward 7 unknown #
coedge $-1 $496 $495 $682 $822 reversed $207 $-1 #
edge $-1 $823 100.03642062773642 $679 110.6820886867885 $673 $824 forward 7 unknown #
vertex $-1 $498 $825 #
straight-curve $-1 55.341044343394259 4.9346519134945979 6.1665232678812671 0 1 0 I I #
coedge $-1 $818 $499 $502 $686 forward $671 $-1 #
coedge $-1 $499 $818 $677 $822 forward $671 $-1 #
vertex $-1 $500 $826 #
straight-curve $-1 30.401899265211636 6.8262109713068515 13.952272097060231 1 0 0 I I #
straight-curve $-1 -20.143957648344745 6.8262109713068515 87.114279446649263 -0.68199835119979291 0 0.73135370988377701 I I #
edge $-1 $503 6.8262109713068515 $820 12.91239668267154 $502 $827 forward 7 unknown #
point $-1 55.341044343394266 6.8262109713068515 13.952272097060233 #
point $-1 55.341044343394266 6.8262109713068515 6.16652326788126 #
edge $-1 $828 1 $828 0 $506 $-1 forward 7 unknown #
vertex $-1 $507 $829 #
ellipse-curve $-1 50.837047997975617 8.0434481135797853 9.2445358871080945 0.73135370988377701 0 0.68199835119979291 0.34099917559989645 0 -0.36567685494188851 1 I I #
point $-1 52.051879487147239 8.0434481135797853 9.6937208275288427 #
edge $-1 $830 1 $830 0 $510 $-1 forward 7 unknown #
vertex $-1 $511 $831 #
ellipse-curve $-1 50.837047997975617 9.8693038269891886 9.2445358871080945 0.73135370988377701 0 0.68199835119979291 0.34099917559989645 0 -0.36567685494188851 1 I I #
point $-1 52.051879487147239 9.8693038269891886 9.6937208275288427 #
edge $-1 $832 1 $832 0 $514 $-1 forward 7 unknown #
vertex $-1 $515 $833 #
ellipse-curve $-1 50.837047997975617 11.695159540398599 9.2445358871080945 0.73135370988377701 0 0.68199835119979291 0.34099917559989645 0 -0.36567685494188851 1 I I #
point $-1 52.051879487147239 11.695159540398599 9.6937208275288427 #
loop $-1 $-1 $526 $518 #
plane-surface $-1 0 0 13.952272097060233 0 0 1 1 0 0 forward_v I I I I #
coedge $-1 $704 $521 $523 $708 reversed $357 $-1 #
coedge $-1 $521 $703 $834 $835 reversed $357 $-1 #
coedge $-1 $529 $524 $521 $706 forward $519 $-1 #
edge $-1 $709 -75.133117451312884 $836 -67.347368622133914 $705 $837 forward 7 unknown #
coedge $-1 $523 $522 $712 $838 reversed $226 $-1 #
edge $-1 $839 100.03642062773642 $709 110.6820886867885 $703 $840 forward 7 unknown #
vertex $-1 $525 $841 #
straight-curve $-1 55.341044343394259 10.501502014716351 6.1665232678812671 0 1 0 I I #
coedge $-1 $834 $526 $529 $716 forward $701 $-1 #
coedge $-1 $526 $834 $707 $838 forward $701 $-1 #
vertex $-1 $527 $842 #
straight-curve $-1 30.401899265211636 17.959911173750356 13.952272097060231 1 0 0 I I #
straight-curve $-1 -20.143957648344745 17.959911173750356 87.114279446649263 -0.68199835119979291 0 0.73135370988377701 I I #
edge $-1 $530 17.959911173750356 $836 24.046096885115048 $529 $843 forward 7 unknown #
point $-1 55.341044343394266 17.959911173750356 13.952272097060233 #
point $-1 55.341044343394266 17.959911173750356 6.16652326788126 #
edge $-1 $844 1 $844 0 $533 $-1 forward 7 unknown #
vertex $-1 $534 $845 #
ellipse-curve $-1 50.837047997975617 19.177148316023292 9.2445358871080945 0.73135370988377701 0 0.68199835119979291 0.34099917559989645 0 -0.36567685494188851 1 I I #
point $-1 52.051879487147239 19.177148316023292 9.6937208275288427 #
edge $-1 $846 1 $846 0 $537 $-1 forward 7 unknown #
vertex $-1 $538 $847 #
ellipse-curve $-1 50.837047997975617 21.003004029432695 9.2445358871080945 0.73135370988377701 0 0.68199835119979291 0.34099917559989645 0 -0.36567685494188851 1 I I #
point $-1 52.051879487147239 21.003004029432695 9.6937208275288427 #
edge $-1 $848 1 $848 0 $541 $-1 forward 7 unknown #
vertex $-1 $542 $849 #
ellipse-curve $-1 50.837047997975617 22.828859742842106 9.2445358871080945 0.73135370988377701 0 0.68199835119979291 0.34099917559989645 0 -0.36567685494188851 1 I I #
point $-1 52.051879487147239 22.828859742842106 9.6937208275288427 #
loop $-1 $-1 $553 $545 #
plane-surface $-1 -55.341044343394266 0 0 1 0 0 0 0 -1 forward_v I I I I #
coedge $-1 $734 $548 $550 $738 reversed $386 $-1 #
coedge $-1 $548 $733 $850 $851 reversed $386 $-1 #
coedge $-1 $556 $551 $548 $736 forward $546 $-1 #
edge $-1 $739 -21.546612581769025 $852 -3.2757974979883144 $735 $853 forward 7 unknown #
coedge $-1 $550 $549 $742 $854 reversed $245 $-1 #
edge $-1 $855 1.7120460491857305e-014 $739 22.038585218166194 $733 $856 forward 7 unknown #
vertex $-1 $552 $857 #
straight-curve $-1 -37.070229259613548 -2.4139824950668611 13.952272097060233 0 1 0 I I #
coedge $-1 $850 $553 $556 $746 reversed $731 $-1 #
coedge $-1 $553 $850 $737 $854 forward $731 $-1 #
vertex $-1 $554 $858 #
straight-curve $-1 -55.341044343394266 -10.152208137007698 46.694030534000355 0 0 1 I I #
straight-curve $-1 -55.34104434339428 -10.152208137007698 1.6284514803576258 -0.82903756765294845 0 -0.55919291073839883 I I #
edge $-1 $852 -0.496278156740253 $557 10.152208137007698 $741 $859 forward 7 unknown #
point $-1 -55.341044343394266 -10.152208137007698 13.952272097060233 #
point $-1 -37.070229259613555 -10.152208137007698 13.952272097060233 #
edge $-1 $860 1 $860 0 $560 $-1 forward 7 unknown #
vertex $-1 $561 $861 #
ellipse-curve $-1 -45.05559404318759 -4.8279649901337223 6.0853533153496038 -0.55919291073839883 0 0.82903756765294845 1.2435563514794228 0 0.83878936610759824 1 I I #
point $-1 -44.962080450024459 -4.8279649901337223 8.6291511548165136 #
plane-surface $-1 55.341044343394266 0 0 -1 0 0 0 0 1 forward_v I I I I #
coedge $-1 $569 $567 $571 $758 reversed $401 $-1 #
edge $-1 $582 -13.952272097060233 $760 13.952272097060233 $581 $862 forward 7 unknown #
vertex $-1 $758 $863 #
straight-curve $-1 -55.341044343394266 -29.093611376193856 0 0 0 -1 I I #
edge $-1 $756 -29.093611376193856 $760 29.093611376193856 $754 $864 forward 7 unknown #
straight-curve $-1 0 -29.093611376193856 -13.952272097060233 -1 0 0 I I #
vertex $-1 $574 $865 #
straight-curve $-1 0 29.093611376193856 -13.952272097060233 1 0 0 I I #
point $-1 55.341044343394266 29.093611376193856 -13.952272097060233 #
point $-1 55.341044343394266 -29.093611376193856 -13.952272097060233 #
straight-curve $-1 -55.341044343394266 0 13.952272097060233 0 -1 0 I I #
point $-1 -55.341044343394266 29.093611376193856 13.952272097060233 #
point $-1 -55.341044343394266 -29.093611376193856 13.952272097060233 #
straight-curve $-1 55.341044343394266 -29.093611376193856 0 0 0 -1 I I #
straight-curve $-1 55.341044343394266 29.093611376193856 0 0 0 -1 I I #
plane-surface $-1 55.341044343394266 0 0 -1 0 0 0 0 1 forward_v I I I I #
coedge $-1 $595 $594 $605 $781 reversed $262 $-1 #
coedge $-1 $866 $598 $595 $772 forward $592 $-1 #
edge $-1 $773 15.441189433580163 $867 29.093611376193856 $595 $868 forward 7 unknown #
vertex $-1 $772 $869 #
straight-curve $-1 -55.341044343394266 -15.441189433580163 4.9804633754716496 0 0 -1 I I #
coedge $-1 $598 $866 $600 $777 forward $592 $-1 #
straight-curve $-1 0 -15.441189433580163 13.952272097060233 -1 0 0 I I #
edge $-1 $784 -29.093611376193856 $601 -15.441189433580163 $600 $870 forward 7 unknown #
point $-1 55.341044343394266 -15.441189433580163 13.952272097060231 #
straight-curve $-1 -55.341044343394266 -11.133700202443505 5.9695814048263678 0 -1 0 I I #
coedge $-1 $605 $604 $866 $871 reversed $420 $-1 #
edge $-1 $867 -13.952272097060233 $606 -5.9695814048263678 $770 $872 forward 7 unknown #
point $-1 -55.341044343394266 -29.093611376193856 5.9695814048263678 #
point $-1 -55.341044343394266 -15.441189433580163 5.9695814048263678 #
vertex $-1 $777 $873 #
straight-curve $-1 55.341044343394266 -29.093611376193856 0 0 0 -1 I I #
coedge $-1 $614 $622 $615 $788 forward $437 $-1 #
edge $-1 $790 -9.2421411446312547 $623 -3.1559554332665645 $614 $874 forward 7 unknown #
edge $-1 $794 -8.9718087215885802 $790 -1.1860598924096246 $786 $875 forward 7 unknown #
edge $-1 $620 48.080716279700447 $794 55.341044343394266 $619 $876 forward 7 unknown #
vertex $-1 $617 $877 #
straight-curve $-1 3.7820914977378965 -15.441189433580163 61.456732364511346 0.68199835119979291 0 -0.73135370988377701 I I #
point $-1 48.080716279700447 -15.441189433580163 13.952272097060233 #
point $-1 55.341044343394266 -9.3550037222154732 6.16652326788126 #
vertex $-1 $626 $878 #
straight-curve $-1 55.341044343394266 0 13.952272097060233 0 1 0 I I #
vertex $-1 $629 $879 #
point $-1 51.178047173575507 -14.223952291307226 8.878859032166206 #
vertex $-1 $633 $880 #
point $-1 51.178047173575507 -12.398096577897821 8.878859032166206 #
vertex $-1 $637 $881 #
point $-1 51.178047173575507 -10.572240864488414 8.878859032166206 #
coedge $-1 $652 $651 $644 $803 forward $641 $-1 #
edge $-1 $804 -24.93914507818263 $807 -17.678817014488811 $802 $882 forward 7 unknown #
vertex $-1 $803 $883 #
straight-curve $-1 55.341044343394266 1.7786964802280334 81.299640719194144 0 0 1 I I #
edge $-1 $807 -2.4108946679551888 $653 3.6752910434094996 $652 $884 forward 7 unknown #
vertex $-1 $806 $885 #
straight-curve $-1 -20.143957648344745 1.7786964802280334 87.114279446649263 0.68199835119979291 0 -0.73135370988377701 I I #
point $-1 55.341044343394266 1.7786964802280334 6.16652326788126 #
point $-1 48.080716279700447 -4.3074892311366551 13.952272097060231 #
straight-curve $-1 55.341044343394266 0 13.952272097060233 0 1 0 I I #
vertex $-1 $659 $886 #
point $-1 51.178047173575507 -3.0902520888637213 8.878859032166206 #
vertex $-1 $663 $887 #
point $-1 51.178047173575507 -1.2643963754543179 8.878859032166206 #
vertex $-1 $667 $888 #
point $-1 51.178047173575507 0.56145933795509251 8.878859032166206 #
coedge $-1 $682 $681 $674 $819 forward $671 $-1 #
edge $-1 $820 -24.93914507818263 $823 -17.678817014488811 $818 $889 forward 7 unknown #
vertex $-1 $819 $890 #
straight-curve $-1 55.341044343394266 12.91239668267154 81.299640719194144 0 0 1 I I #
edge $-1 $823 -7.9777447691769421 $683 -1.8915590578122536 $682 $891 forward 7 unknown #
vertex $-1 $822 $892 #
straight-curve $-1 -20.143957648344745 12.91239668267154 87.114279446649263 0.68199835119979291 0 -0.73135370988377701 I I #
point $-1 55.341044343394266 12.91239668267154 6.16652326788126 #
point $-1 48.080716279700447 6.8262109713068515 13.952272097060231 #
straight-curve $-1 55.341044343394266 0 13.952272097060233 0 1 0 I I #
vertex $-1 $689 $893 #
point $-1 51.178047173575507 8.0434481135797853 8.878859032166206 #
vertex $-1 $693 $894 #
point $-1 51.178047173575507 9.8693038269891886 8.878859032166206 #
vertex $-1 $697 $895 #
point $-1 51.178047173575507 11.695159540398599 8.878859032166206 #
coedge $-1 $712 $711 $704 $835 forward $701 $-1 #
edge $-1 $836 -24.93914507818263 $839 -17.678817014488811 $834 $896 forward 7 unknown #
vertex $-1 $835 $897 #
straight-curve $-1 55.341044343394266 24.046096885115048 81.299640719194144 0 0 1 I I #
edge $-1 $839 -13.544594870398697 $713 -7.4584091590340051 $712 $898 forward 7 unknown #
vertex $-1 $838 $899 #
straight-curve $-1 -20.143957648344745 24.046096885115048 87.114279446649263 0.68199835119979291 0 -0.73135370988377701 I I #
point $-1 55.341044343394266 24.046096885115048 6.16652326788126 #
point $-1 48.080716279700447 17.959911173750356 13.952272097060231 #
straight-curve $-1 55.341044343394266 0 13.952272097060233 0 1 0 I I #
vertex $-1 $719 $900 #
point $-1 51.178047173575507 19.177148316023292 8.878859032166206 #
vertex $-1 $723 $901 #
point $-1 51.178047173575507 21.003004029432695 8.878859032166206 #
vertex $-1 $727 $902 #
point $-1 51.178047173575507 22.828859742842106 8.878859032166206 #
coedge $-1 $742 $741 $734 $851 forward $731 $-1 #
edge $-1 $852 32.741758436940124 $855 45.065579053642722 $850 $903 forward 7 unknown #
vertex $-1 $746 $904 #
straight-curve $-1 -58.61684184138258 0.496278156740253 13.952272097060231 -1 0 0 I I #
edge $-1 $855 -2.9102606518071141 $743 7.7382256419408364 $742 $905 forward 7 unknown #
vertex $-1 $854 $906 #
straight-curve $-1 -55.34104434339428 0.496278156740253 1.6284514803576258 0.82903756765294845 0 0.55919291073839883 I I #
point $-1 -37.070229259613555 0.496278156740253 13.952272097060233 #
point $-1 -55.341044343394266 -10.152208137007698 1.6284514803576353 #
straight-curve $-1 -55.341044343394266 0 13.952272097060233 0 -1 0 I I #
vertex $-1 $749 $907 #
point $-1 -43.812037691708163 -4.8279649901337223 6.9241426814572016 #
straight-curve $-1 -55.341044343394266 29.093611376193856 0 0 0 -1 I I #
point $-1 -55.341044343394266 -29.093611376193856 -13.952272097060233 #
straight-curve $-1 -55.341044343394266 0 -13.952272097060233 0 1 0 I I #
point $-1 -55.341044343394266 29.093611376193856 -13.952272097060233 #
coedge $-1 $775 $771 $780 $871 forward $592 $-1 #
vertex $-1 $772 $908 #
straight-curve $-1 -55.341044343394266 0 13.952272097060233 0 -1 0 I I #
point $-1 -55.341044343394266 -15.441189433580163 13.952272097060231 #
straight-curve $-1 55.341044343394266 0 13.952272097060233 0 1 0 I I #
edge $-1 $867 -55.341044343394266 $784 55.341044343394266 $780 $909 forward 7 unknown #
straight-curve $-1 -55.341044343394266 -29.093611376193856 0 0 0 -1 I I #
point $-1 55.341044343394266 -29.093611376193856 13.952272097060233 #
straight-curve $-1 55.341044343394259 -6.1990482889489087 6.1665232678812671 0 1 0 I I #
straight-curve $-1 55.341044343394266 -15.441189433580163 4.9804633754716496 0 0 -1 I I #
straight-curve $-1 0 -15.441189433580163 13.952272097060233 1 0 0 I I #
point $-1 55.341044343394266 -15.441189433580163 6.1665232678812743 #
point $-1 55.341044343394266 -15.441189433580163 13.952272097060231 #
point $-1 50.471371143033721 -14.223952291307226 8.9035367115081971 #
point $-1 50.471371143033721 -12.398096577897821 8.9035367115081971 #
point $-1 50.471371143033721 -10.572240864488414 8.9035367115081971 #
straight-curve $-1 30.401899265211636 1.7786964802280334 13.952272097060231 -1 0 0 I I #
point $-1 55.341044343394266 1.7786964802280334 13.952272097060233 #
straight-curve $-1 48.080716279700454 -0.63219818772715541 13.952272097060224 0 -1 0 I I #
point $-1 48.080716279700447 1.7786964802280334 13.952272097060231 #
point $-1 50.471371143033721 -3.0902520888637213 8.9035367115081971 #
point $-1 50.471371143033721 -1.2643963754543179 8.9035367115081971 #
point $-1 50.471371143033721 0.56145933795509251 8.9035367115081971 #
straight-curve $-1 30.401899265211636 12.91239668267154 13.952272097060231 -1 0 0 I I #
point $-1 55.341044343394266 12.91239668267154 13.952272097060233 #
straight-curve $-1 48.080716279700454 4.9346519134945979 13.952272097060224 0 -1 0 I I #
point $-1 48.080716279700447 12.91239668267154 13.952272097060231 #
point $-1 50.471371143033721 8.0434481135797853 8.9035367115081971 #
point $-1 50.471371143033721 9.8693038269891886 8.9035367115081971 #
point $-1 50.471371143033721 11.695159540398599 8.9035367115081971 #
straight-curve $-1 30.401899265211636 24.046096885115048 13.952272097060231 -1 0 0 I I #
point $-1 55.341044343394266 24.046096885115048 13.952272097060233 #
straight-curve $-1 48.080716279700454 10.501502014716351 13.952272097060224 0 -1 0 I I #
point $-1 48.080716279700447 24.046096885115048 13.952272097060231 #
point $-1 50.471371143033721 19.177148316023292 8.9035367115081971 #
point $-1 50.471371143033721 21.003004029432695 8.9035367115081971 #
point $-1 50.471371143033721 22.828859742842106 8.9035367115081971 #
straight-curve $-1 -55.341044343394266 0.496278156740253 46.694030534000355 0 0 -1 I I #
point $-1 -55.341044343394266 0.496278156740253 13.952272097060233 #
straight-curve $-1 -55.341044343394266 -2.4139824950668611 1.6284514803576369 0 -1 0 I I #
point $-1 -55.341044343394266 0.496278156740253 1.6284514803576353 #
point $-1 -44.216804677079985 -4.8279649901337223 4.8417969638701805 #
point $-1 -55.341044343394266 -29.093611376193856 13.952272097060233 #
straight-curve $-1 0 -29.093611376193856 13.952272097060233 1 0 0 I I #
End-of-ACIS-data 