500 0 5 0           
7 Unknown 11 ACIS 5.0 NT 24 Fri Mar 26 16:55:12 1999 
-1 9.9999999999999995e-007 1e-010 
body $-1 $5 $-1 $6 #
body $-1 $7 $-1 $8 #
body $-1 $9 $-1 $10 #
body $-1 $11 $-1 $12 #
body $-1 $13 $-1 $14 #
lump $-1 $-1 $15 $0 #
transform $-1 1 0 0 0 1 0 0 0 1 69.793389690847505 41.669850760763147 20.52132373245518 1 rotate no_reflect no_shear #
lump $-1 $-1 $16 $1 #
transform $-1 1 0 0 0 1 0 0 0 1 69.793389690847505 41.669850760763147 20.52132373245518 1 rotate no_reflect no_shear #
lump $-1 $-1 $17 $2 #
transform $-1 1 0 0 0 1 0 0 0 1 69.793389690847505 41.669850760763147 20.52132373245518 1 rotate no_reflect no_shear #
lump $-1 $-1 $18 $3 #
transform $-1 1 0 0 0 1 0 0 0 1 69.793389690847505 41.669850760763147 20.52132373245518 1 rotate no_reflect no_shear #
lump $-1 $-1 $19 $4 #
transform $-1 1 0 0 0 1 0 0 0 1 69.793389690847505 41.669850760763147 20.52132373245518 1 rotate no_reflect no_shear #
shell $-1 $-1 $-1 $20 $-1 $5 #
shell $-1 $-1 $-1 $21 $-1 $7 #
shell $-1 $-1 $-1 $22 $-1 $9 #
shell $-1 $-1 $-1 $23 $-1 $11 #
shell $-1 $-1 $-1 $24 $-1 $13 #
face $-1 $25 $26 $15 $-1 $27 reversed single #
face $-1 $28 $29 $16 $-1 $30 forward single #
face $-1 $31 $32 $17 $-1 $33 reversed single #
face $-1 $34 $35 $18 $-1 $36 forward single #
face $-1 $37 $38 $19 $-1 $39 forward single #
face $-1 $40 $41 $15 $-1 $42 forward single #
loop $-1 $-1 $43 $20 #
plane-surface $-1 -69.793389690847505 0 0 1 0 0 0 0 -1 forward_v I I I I #
face $-1 $44 $45 $16 $-1 $46 reversed single #
loop $-1 $-1 $47 $21 #
plane-surface $-1 -69.793389690847505 0 0 1 0 0 0 0 -1 forward_v I I I I #
face $-1 $48 $49 $17 $-1 $50 reversed single #
loop $-1 $-1 $51 $22 #
plane-surface $-1 -25.40456369675772 -31.982154111377561 116.08533173873185 0.73135370988377701 0 0.68199835119979291 0.68199835119979291 0 -0.73135370988377701 forward_v I I I I #
face $-1 $52 $53 $18 $-1 $54 forward single #
loop $-1 $55 $56 $23 #
cone-surface $-1 65.402936121988702 -36.134024103971385 16.00178935670835 -0.73135370988377701 0 -0.68199835119979291 1.0229975267996894 0 -1.0970305648256655 1 I I 0 1 1.5 forward I I I I #
face $-1 $57 $58 $19 $-1 $59 forward single #
loop $-1 $60 $61 $24 #
cone-surface $-1 65.402936121988702 -27.830284118783737 16.00178935670835 -0.73135370988377701 0 -0.68199835119979291 1.0229975267996894 0 -1.0970305648256655 1 I I 0 1 1.5 forward I I I I #
face $-1 $62 $63 $15 $-1 $64 reversed single #
loop $-1 $-1 $65 $25 #
plane-surface $-1 0 0 20.52132373245518 0 0 1 1 0 0 forward_v I I I I #
coedge $-1 $66 $67 $68 $69 reversed $26 $-1 #
face $-1 $70 $71 $16 $-1 $72 reversed single #
loop $-1 $-1 $73 $28 #
plane-surface $-1 0 0 -20.52132373245518 0 0 1 1 0 0 forward_v I I I I #
coedge $-1 $74 $75 $76 $77 forward $29 $-1 #
face $-1 $78 $79 $17 $-1 $80 reversed single #
loop $-1 $-1 $81 $31 #
plane-surface $-1 76.682745254773238 -22.294457461991975 211.28328512633709 0 -1 0 -0.73135370988377701 0 -0.68199835119979291 forward_v I I I I #
coedge $-1 $82 $83 $84 $85 reversed $32 $-1 #
face $-1 $-1 $86 $18 $-1 $87 forward single #
loop $-1 $88 $89 $34 #
cone-surface $-1 63.505505468253858 -36.134024103971385 14.232406690188817 -0.73135370988377701 0 -0.68199835119979291 0.51149876339984468 0 -0.54851528241283276 1 I I -0.70710678118654757 0.70710678118654757 0.75 forward I I I I #
loop $-1 $-1 $90 $23 #
coedge $-1 $56 $56 $91 $92 reversed $35 $-1 #
face $-1 $-1 $93 $19 $-1 $94 forward single #
loop $-1 $95 $96 $37 #
cone-surface $-1 63.505505468253858 -27.830284118783737 14.232406690188817 -0.73135370988377701 0 -0.68199835119979291 0.51149876339984468 0 -0.54851528241283276 1 I I -0.70710678118654757 0.70710678118654757 0.75 forward I I I I #
loop $-1 $-1 $97 $24 #
coedge $-1 $61 $61 $98 $99 reversed $38 $-1 #
face $-1 $100 $101 $15 $-1 $102 reversed single #
loop $-1 $-1 $103 $40 #
plane-surface $-1 0 0 -20.52132373245518 0 0 1 1 0 0 forward_v I I I I #
coedge $-1 $104 $105 $106 $107 forward $41 $-1 #
coedge $-1 $108 $43 $109 $110 reversed $26 $-1 #
coedge $-1 $43 $108 $111 $112 forward $26 $-1 #
coedge $-1 $113 $114 $43 $69 forward $63 $-1 #
edge $-1 $115 -41.669850760763147 $116 41.669850760763147 $43 $117 forward 7 unknown #
face $-1 $118 $119 $16 $-1 $120 reversed single #
loop $-1 $-1 $121 $44 #
plane-surface $-1 -82.264006543943424 -18.673808376401194 0 0 1 0 0 0 1 forward_v I I I I #
coedge $-1 $122 $123 $75 $124 forward $45 $-1 #
coedge $-1 $125 $47 $126 $127 reversed $29 $-1 #
coedge $-1 $47 $125 $73 $124 reversed $29 $-1 #
coedge $-1 $128 $129 $47 $77 reversed $130 $-1 #
edge $-1 $131 -20.52132373245518 $132 20.52132373245518 $76 $133 forward 7 unknown #
face $-1 $134 $135 $17 $-1 $136 reversed single #
loop $-1 $-1 $137 $48 #
plane-surface $-1 0 -41.669850760763147 0 0 1 0 0 0 1 forward_v I I I I #
coedge $-1 $138 $139 $140 $141 reversed $49 $-1 #
coedge $-1 $142 $51 $137 $143 reversed $32 $-1 #
coedge $-1 $51 $142 $138 $144 forward $32 $-1 #
coedge $-1 $140 $145 $51 $85 forward $135 $-1 #
edge $-1 $146 -25.678773705074367 $147 -6.3033804063031944 $84 $148 forward 7 unknown #
loop $-1 $-1 $91 $52 #
plane-surface $-1 -25.40456369675772 -31.982154111377561 116.08533173873185 0.73135370988377701 0 0.68199835119979291 0.68199835119979291 0 -0.73135370988377701 forward_v I I I I #
loop $-1 $-1 $149 $34 #
coedge $-1 $89 $89 $90 $150 reversed $53 $-1 #
coedge $-1 $90 $90 $89 $150 forward $55 $-1 #
coedge $-1 $91 $91 $56 $92 forward $86 $-1 #
edge $-1 $151 0 $151 6.2831853071796004 $91 $152 forward 7 unknown #
loop $-1 $-1 $98 $57 #
plane-surface $-1 -25.40456369675772 -31.982154111377561 116.08533173873185 0.73135370988377701 0 0.68199835119979291 0.68199835119979291 0 -0.73135370988377701 forward_v I I I I #
loop $-1 $-1 $153 $37 #
coedge $-1 $96 $96 $97 $154 reversed $58 $-1 #
coedge $-1 $97 $97 $96 $154 forward $60 $-1 #
coedge $-1 $98 $98 $61 $99 forward $93 $-1 #
edge $-1 $155 0 $155 6.2831853071796004 $98 $156 forward 7 unknown #
face $-1 $157 $158 $15 $-1 $159 reversed single #
loop $-1 $-1 $109 $62 #
plane-surface $-1 0 -41.669850760763147 0 0 1 0 0 0 1 forward_v I I I I #
coedge $-1 $114 $113 $160 $161 forward $63 $-1 #
coedge $-1 $162 $65 $163 $164 forward $41 $-1 #
coedge $-1 $65 $162 $165 $166 forward $41 $-1 #
coedge $-1 $167 $168 $65 $107 reversed $169 $-1 #
edge $-1 $170 -41.669850760763147 $171 41.669850760763147 $106 $172 forward 7 unknown #
coedge $-1 $67 $66 $162 $173 reversed $26 $-1 #
coedge $-1 $174 $165 $66 $110 forward $101 $-1 #
edge $-1 $175 -20.52132373245518 $115 20.52132373245518 $66 $176 forward 7 unknown #
coedge $-1 $163 $177 $67 $112 reversed $158 $-1 #
edge $-1 $178 -20.52132373245518 $116 20.52132373245518 $111 $179 forward 7 unknown #
coedge $-1 $103 $68 $177 $180 forward $63 $-1 #
coedge $-1 $68 $103 $174 $181 forward $63 $-1 #
vertex $-1 $69 $182 #
vertex $-1 $180 $183 #
straight-curve $-1 -69.793389690847505 0 -20.52132373245518 0 1 0 I I #
face $-1 $184 $130 $16 $-1 $185 reversed single #
loop $-1 $-1 $186 $70 #
plane-surface $-1 -94.734623397039343 -15.753776884272764 0 1 0 0 0 0 -1 forward_v I I I I #
coedge $-1 $187 $188 $189 $190 forward $71 $-1 #
coedge $-1 $191 $73 $187 $192 forward $45 $-1 #
coedge $-1 $73 $191 $128 $193 forward $45 $-1 #
edge $-1 $131 12.833745392144333 $194 18.673808376401194 $73 $195 forward 7 unknown #
coedge $-1 $75 $74 $196 $197 forward $29 $-1 #
coedge $-1 $198 $199 $74 $127 forward $200 $-1 #
edge $-1 $201 -18.673808376401194 $132 -12.833745392144333 $126 $202 forward 7 unknown #
coedge $-1 $203 $76 $123 $193 reversed $130 $-1 #
coedge $-1 $76 $203 $198 $204 reversed $130 $-1 #
loop $-1 $-1 $76 $118 #
vertex $-1 $124 $205 #
vertex $-1 $204 $206 #
straight-curve $-1 -69.793389690847505 -12.833745392144333 0 0 0 1 I I #
face $-1 $-1 $207 $17 $-1 $208 forward single #
loop $-1 $-1 $84 $78 #
plane-surface $-1 69.793389690847505 0 0 -1 0 0 0 0 1 forward_v I I I I #
coedge $-1 $209 $210 $82 $143 forward $79 $-1 #
coedge $-1 $139 $81 $83 $144 reversed $49 $-1 #
coedge $-1 $81 $138 $211 $212 reversed $49 $-1 #
coedge $-1 $213 $84 $81 $141 forward $135 $-1 #
edge $-1 $147 -91.643619775967636 $214 -85.120318830713359 $140 $215 forward 7 unknown #
coedge $-1 $83 $82 $216 $217 reversed $32 $-1 #
edge $-1 $218 79.554636670857704 $146 88.474125089520271 $137 $219 forward 7 unknown #
edge $-1 $220 130.6672909630324 $147 139.58677938169495 $138 $221 forward 7 unknown #
coedge $-1 $84 $213 $209 $222 forward $135 $-1 #
vertex $-1 $85 $223 #
vertex $-1 $85 $224 #
straight-curve $-1 69.793389690847505 -15.99107705568878 13.998022787200931 0 1 0 I I #
coedge $-1 $149 $149 $-1 $225 reversed $88 $-1 #
edge $-1 $226 0 $226 6.2831853071796004 $89 $227 forward 7 unknown #
vertex $-1 $92 $228 #
ellipse-curve $-1 66.751851493310724 -36.134024103971385 17.259673259828048 0.73135370988377701 0 0.68199835119979291 1.0229975267996894 0 -1.0970305648256655 1 I I #
coedge $-1 $153 $153 $-1 $229 reversed $95 $-1 #
edge $-1 $230 0 $230 6.2831853071796004 $96 $231 forward 7 unknown #
vertex $-1 $99 $232 #
ellipse-curve $-1 66.751851493310724 -27.830284118783737 17.259673259828048 0.73135370988377701 0 0.68199835119979291 1.0229975267996894 0 -1.0970305648256655 1 I I #
face $-1 $-1 $169 $15 $-1 $233 reversed single #
loop $-1 $-1 $234 $100 #
plane-surface $-1 0 41.669850760763147 0 0 -1 0 0 0 -1 forward_v I I I I #
coedge $-1 $168 $167 $103 $161 reversed $169 $-1 #
edge $-1 $235 -41.669850760763147 $236 41.669850760763147 $160 $237 forward 7 unknown #
coedge $-1 $105 $104 $108 $173 forward $41 $-1 #
coedge $-1 $234 $111 $104 $164 reversed $158 $-1 #
edge $-1 $171 -69.793389690847505 $178 69.793389690847505 $163 $238 forward 7 unknown #
coedge $-1 $109 $239 $105 $166 reversed $101 $-1 #
edge $-1 $175 -69.793389690847505 $170 69.793389690847505 $165 $240 forward 7 unknown #
coedge $-1 $160 $106 $239 $241 forward $169 $-1 #
coedge $-1 $106 $160 $234 $242 reversed $169 $-1 #
loop $-1 $-1 $167 $157 #
vertex $-1 $107 $243 #
vertex $-1 $107 $244 #
straight-curve $-1 69.793389690847505 0 20.52132373245518 0 1 0 I I #
edge $-1 $178 -41.669850760763147 $175 41.669850760763147 $108 $245 forward 7 unknown #
coedge $-1 $239 $109 $114 $181 reversed $101 $-1 #
vertex $-1 $173 $246 #
straight-curve $-1 -69.793389690847505 -41.669850760763147 0 0 0 -1 I I #
coedge $-1 $111 $234 $113 $180 reversed $158 $-1 #
vertex $-1 $164 $247 #
straight-curve $-1 -69.793389690847505 41.669850760763147 0 0 0 -1 I I #
edge $-1 $116 -69.793389690847505 $235 69.793389690847505 $177 $248 forward 7 unknown #
edge $-1 $236 -69.793389690847505 $115 69.793389690847505 $174 $249 forward 7 unknown #
point $-1 -69.793389690847505 -41.669850760763147 -20.52132373245518 #
point $-1 -69.793389690847505 41.669850760763147 -20.52132373245518 #
face $-1 $-1 $200 $16 $-1 $250 forward single #
plane-surface $-1 -82.264006543943424 -12.833745392144333 0 0 -1 0 0 0 -1 forward_v I I I I #
coedge $-1 $251 $252 $203 $253 forward $119 $-1 #
coedge $-1 $196 $121 $122 $192 reversed $71 $-1 #
coedge $-1 $121 $196 $199 $254 reversed $71 $-1 #
coedge $-1 $252 $251 $121 $190 reversed $119 $-1 #
edge $-1 $255 -20.52132373245518 $256 20.52132373245518 $189 $257 forward 7 unknown #
coedge $-1 $123 $122 $251 $258 forward $45 $-1 #
edge $-1 $194 -12.470616853095919 $256 12.470616853095919 $187 $259 forward 7 unknown #
edge $-1 $260 -12.470616853095919 $131 12.470616853095919 $128 $261 forward 7 unknown #
vertex $-1 $192 $262 #
straight-curve $-1 -69.793389690847505 0 -20.52132373245518 0 -1 0 I I #
coedge $-1 $188 $187 $125 $197 reversed $71 $-1 #
edge $-1 $201 -20.52132373245518 $194 20.52132373245518 $196 $263 forward 7 unknown #
coedge $-1 $264 $126 $129 $204 forward $200 $-1 #
coedge $-1 $126 $264 $188 $254 forward $200 $-1 #
loop $-1 $-1 $126 $184 #
vertex $-1 $127 $265 #
straight-curve $-1 -69.793389690847505 0 20.52132373245518 0 1 0 I I #
coedge $-1 $129 $128 $186 $253 reversed $130 $-1 #
edge $-1 $132 -12.470616853095919 $266 12.470616853095919 $129 $267 forward 7 unknown #
point $-1 -69.793389690847505 -12.833745392144333 -20.52132373245518 #
point $-1 -69.793389690847505 -12.833745392144333 20.52132373245518 #
loop $-1 $-1 $216 $134 #
plane-surface $-1 0 0 20.52132373245518 0 0 1 1 0 0 forward_v I I I I #
coedge $-1 $210 $137 $145 $222 reversed $79 $-1 #
coedge $-1 $137 $209 $268 $269 reversed $79 $-1 #
coedge $-1 $216 $270 $139 $212 forward $207 $-1 #
edge $-1 $214 -31.452017063460886 $220 -25.368940668387353 $211 $271 forward 7 unknown #
coedge $-1 $145 $140 $270 $272 reversed $135 $-1 #
vertex $-1 $141 $273 #
straight-curve $-1 69.793389690847505 -22.294457461991975 105.64164256316855 0 0 1 I I #
coedge $-1 $268 $211 $142 $217 forward $207 $-1 #
edge $-1 $220 6.3033804063031944 $218 25.678773705074367 $216 $274 forward 7 unknown #
vertex $-1 $269 $275 #
straight-curve $-1 9.4541822559504425 -41.669850760763147 78.703902400142937 0.68199835119979291 0 -0.73135370988377701 I I #
vertex $-1 $217 $276 #
straight-curve $-1 -25.40456369675772 -22.294457461991975 116.08533173873185 0.68199835119979291 0 -0.73135370988377701 I I #
edge $-1 $277 -20.52132373245518 $146 -13.998022787200927 $145 $278 forward 7 unknown #
point $-1 69.793389690847505 -41.669850760763147 13.998022787200927 #
point $-1 69.793389690847505 -22.294457461991975 13.99802278720091 #
edge $-1 $279 1 $279 0 $149 $-1 forward 7 unknown #
vertex $-1 $150 $280 #
ellipse-curve $-1 64.054020750666695 -36.134024103971385 14.743905453588662 0.73135370988377701 0 0.68199835119979291 1.0229975267996894 0 -1.0970305648256655 1 I I #
point $-1 67.774849020110409 -36.134024103971385 16.162642695002376 #
edge $-1 $281 1 $281 0 $153 $-1 forward 7 unknown #
vertex $-1 $154 $282 #
ellipse-curve $-1 64.054020750666695 -27.830284118783737 14.743905453588662 0.73135370988377701 0 0.68199835119979291 1.0229975267996894 0 -1.0970305648256655 1 I I #
point $-1 67.774849020110409 -27.830284118783737 16.162642695002376 #
plane-surface $-1 69.793389690847505 0 0 -1 0 0 0 0 1 forward_v I I I I #
coedge $-1 $177 $163 $168 $242 forward $158 $-1 #
vertex $-1 $161 $283 #
vertex $-1 $241 $284 #
straight-curve $-1 69.793389690847505 0 -20.52132373245518 0 -1 0 I I #
straight-curve $-1 0 41.669850760763147 20.52132373245518 -1 0 0 I I #
coedge $-1 $165 $174 $167 $241 reversed $101 $-1 #
straight-curve $-1 0 -41.669850760763147 20.52132373245518 1 0 0 I I #
edge $-1 $170 -20.52132373245518 $236 20.52132373245518 $167 $285 forward 7 unknown #
edge $-1 $171 -20.52132373245518 $235 20.52132373245518 $168 $286 forward 7 unknown #
point $-1 69.793389690847505 -41.669850760763147 20.52132373245518 #
point $-1 69.793389690847505 41.669850760763147 20.52132373245518 #
straight-curve $-1 -69.793389690847505 0 20.52132373245518 0 -1 0 I I #
point $-1 -69.793389690847505 -41.669850760763147 20.52132373245518 #
point $-1 -69.793389690847505 41.669850760763147 20.52132373245518 #
straight-curve $-1 0 41.669850760763147 -20.52132373245518 1 0 0 I I #
straight-curve $-1 0 -41.669850760763147 -20.52132373245518 -1 0 0 I I #
plane-surface $-1 0 0 20.52132373245518 0 0 1 1 0 0 forward_v I I I I #
coedge $-1 $189 $186 $191 $258 reversed $119 $-1 #
coedge $-1 $186 $189 $264 $287 reversed $119 $-1 #
edge $-1 $266 -20.52132373245518 $260 20.52132373245518 $203 $288 forward 7 unknown #
edge $-1 $255 -12.470616853095919 $201 12.470616853095919 $188 $289 forward 7 unknown #
vertex $-1 $287 $290 #
vertex $-1 $258 $291 #
straight-curve $-1 -94.734623397039343 -18.673808376401194 0 0 0 -1 I I #
edge $-1 $256 -2.9200314921284303 $260 2.9200314921284303 $251 $292 forward 7 unknown #
straight-curve $-1 -82.264006543943424 -18.673808376401194 -20.52132373245518 -1 0 0 I I #
vertex $-1 $193 $293 #
straight-curve $-1 -82.264006543943424 -12.833745392144333 -20.52132373245518 1 0 0 I I #
point $-1 -69.793389690847505 -18.673808376401194 -20.52132373245518 #
straight-curve $-1 -69.793389690847505 -18.673808376401194 0 0 0 -1 I I #
coedge $-1 $199 $198 $252 $287 forward $200 $-1 #
point $-1 -69.793389690847505 -18.673808376401194 20.52132373245518 #
vertex $-1 $204 $294 #
straight-curve $-1 -82.264006543943424 -12.833745392144333 20.52132373245518 -1 0 0 I I #
coedge $-1 $270 $216 $210 $269 forward $207 $-1 #
edge $-1 $218 63.710313295773972 $277 69.793389690847505 $210 $295 forward 7 unknown #
coedge $-1 $211 $268 $213 $272 forward $207 $-1 #
straight-curve $-1 38.341372627386619 -22.294457461991975 20.521323732455187 -1 0 0 I I #
edge $-1 $277 -41.669850760763147 $214 -22.294457461991975 $213 $296 forward 7 unknown #
point $-1 69.793389690847505 -22.294457461991975 20.52132373245518 #
straight-curve $-1 63.710313295773972 -15.99107705568878 20.52132373245518 0 -1 0 I I #
point $-1 63.710313295773972 -41.669850760763147 20.521323732455173 #
point $-1 63.710313295773972 -22.294457461991975 20.521323732455173 #
vertex $-1 $272 $297 #
straight-curve $-1 69.793389690847505 -41.669850760763147 0 0 0 -1 I I #
vertex $-1 $225 $298 #
point $-1 65.077018277466379 -36.134024103971385 13.646874888762996 #
vertex $-1 $229 $299 #
point $-1 65.077018277466379 -27.830284118783737 13.646874888762996 #
point $-1 69.793389690847505 41.669850760763147 -20.52132373245518 #
point $-1 69.793389690847505 -41.669850760763147 -20.52132373245518 #
straight-curve $-1 69.793389690847505 -41.669850760763147 0 0 0 -1 I I #
straight-curve $-1 69.793389690847505 41.669850760763147 0 0 0 -1 I I #
edge $-1 $266 -2.9200314921284303 $255 2.9200314921284303 $252 $300 forward 7 unknown #
straight-curve $-1 -94.734623397039343 -12.833745392144333 0 0 0 -1 I I #
straight-curve $-1 -82.264006543943424 -18.673808376401194 20.52132373245518 1 0 0 I I #
point $-1 -94.734623397039343 -18.673808376401194 20.52132373245518 #
point $-1 -94.734623397039343 -18.673808376401194 -20.52132373245518 #
straight-curve $-1 -94.734623397039343 -15.753776884272764 -20.52132373245518 0 1 0 I I #
point $-1 -94.734623397039343 -12.833745392144333 -20.52132373245518 #
point $-1 -94.734623397039343 -12.833745392144333 20.52132373245518 #
straight-curve $-1 0 -41.669850760763147 20.52132373245518 1 0 0 I I #
straight-curve $-1 69.793389690847505 0 20.52132373245518 0 1 0 I I #
point $-1 69.793389690847505 -41.669850760763147 20.52132373245518 #
point $-1 62.956990185841022 -36.134024103971385 13.720907926788973 #
point $-1 62.956990185841022 -27.830284118783737 13.720907926788973 #
straight-curve $-1 -94.734623397039343 -15.753776884272764 20.52132373245518 0 -1 0 I I #
End-of-ACIS-data 