500 0 9 0           
7 Unknown 11 ACIS 5.0 NT 24 Fri Mar 26 20:46:43 1999 
-1 9.9999999999999995e-007 1e-010 
body $-1 $9 $-1 $10 #
body $-1 $11 $-1 $12 #
body $-1 $13 $-1 $14 #
body $-1 $15 $-1 $16 #
body $-1 $17 $-1 $18 #
body $-1 $19 $-1 $20 #
body $-1 $21 $-1 $22 #
body $-1 $23 $-1 $24 #
body $-1 $25 $-1 $26 #
lump $-1 $-1 $27 $0 #
transform $-1 1 0 0 0 1 0 0 0 1 61.461836603900267 27.341485679395497 5.7231294283223315 1 rotate no_reflect no_shear #
lump $-1 $-1 $28 $1 #
transform $-1 1 0 0 0 1 0 0 0 1 61.461836603900267 27.341485679395497 5.7231294283223315 1 rotate no_reflect no_shear #
lump $-1 $-1 $29 $2 #
transform $-1 1 0 0 0 1 0 0 0 1 61.461836603900267 27.341485679395497 5.7231294283223315 1 rotate no_reflect no_shear #
lump $-1 $-1 $30 $3 #
transform $-1 1 0 0 0 1 0 0 0 1 61.461836603900267 27.341485679395497 5.7231294283223315 1 rotate no_reflect no_shear #
lump $-1 $-1 $31 $4 #
transform $-1 1 0 0 0 1 0 0 0 1 61.461836603900267 27.341485679395497 5.7231294283223315 1 rotate no_reflect no_shear #
lump $-1 $-1 $32 $5 #
transform $-1 1 0 0 0 1 0 0 0 1 61.461836603900267 27.341485679395497 5.7231294283223315 1 rotate no_reflect no_shear #
lump $-1 $-1 $33 $6 #
transform $-1 1 0 0 0 1 0 0 0 1 61.461836603900267 27.341485679395497 5.7231294283223315 1 rotate no_reflect no_shear #
lump $-1 $-1 $34 $7 #
transform $-1 1 0 0 0 1 0 0 0 1 61.461836603900267 27.341485679395497 5.7231294283223315 1 rotate no_reflect no_shear #
lump $-1 $-1 $35 $8 #
transform $-1 1 0 0 0 1 0 0 0 1 61.461836603900267 27.341485679395497 5.7231294283223315 1 rotate no_reflect no_shear #
shell $-1 $-1 $-1 $36 $-1 $9 #
shell $-1 $-1 $-1 $37 $-1 $11 #
shell $-1 $-1 $-1 $38 $-1 $13 #
shell $-1 $-1 $-1 $39 $-1 $15 #
shell $-1 $-1 $-1 $40 $-1 $17 #
shell $-1 $-1 $-1 $41 $-1 $19 #
shell $-1 $-1 $-1 $42 $-1 $21 #
shell $-1 $-1 $-1 $43 $-1 $23 #
shell $-1 $-1 $-1 $44 $-1 $25 #
face $-1 $45 $46 $27 $-1 $47 forward single #
face $-1 $48 $49 $28 $-1 $50 reversed single #
face $-1 $51 $52 $29 $-1 $53 forward single #
face $-1 $54 $55 $30 $-1 $56 forward single #
face $-1 $57 $58 $31 $-1 $59 forward single #
face $-1 $60 $61 $32 $-1 $62 reversed single #
face $-1 $63 $64 $33 $-1 $65 forward single #
face $-1 $66 $67 $34 $-1 $68 forward single #
face $-1 $69 $70 $35 $-1 $71 forward single #
face $-1 $72 $73 $27 $-1 $74 reversed single #
loop $-1 $-1 $75 $36 #
plane-surface $-1 0 0 5.7231294283223315 0 0 1 1 0 0 forward_v I I I I #
face $-1 $76 $77 $28 $-1 $78 reversed single #
loop $-1 $-1 $79 $37 #
plane-surface $-1 85.655736168060244 -4.8653920998479654 172.33767227354443 0 -1 0 -0.79863551827123203 0 -0.60181501223851219 forward_v I I I I #
face $-1 $80 $81 $29 $-1 $82 forward single #
loop $-1 $83 $84 $38 #
cone-surface $-1 58.586807371598169 -12.707696357127894 2.3608672252705554 -0.79863551827123203 0 -0.60181501223851219 0.3009075061192561 0 -0.39931775913561601 1 I I 0 1 0.5 forward I I I I #
face $-1 $85 $86 $30 $-1 $87 forward single #
loop $-1 $88 $89 $39 #
cone-surface $-1 58.586807371598169 -9.7668322606479201 2.3608672252705554 -0.79863551827123203 0 -0.60181501223851219 0.3009075061192561 0 -0.39931775913561601 1 I I 0 1 0.5 forward I I I I #
face $-1 $90 $91 $31 $-1 $92 forward single #
loop $-1 $93 $94 $40 #
cone-surface $-1 58.586807371598169 -6.8259681641679464 2.3608672252705554 -0.79863551827123203 0 -0.60181501223851219 0.3009075061192561 0 -0.39931775913561601 1 I I 0 1 0.5 forward I I I I #
face $-1 $95 $96 $32 $-1 $97 reversed single #
loop $-1 $-1 $98 $41 #
plane-surface $-1 -159.63304806401561 -14.668272421447874 74.166460813429083 0 1 0 -0.79863551827123203 0 0.60181501223851219 forward_v I I I I #
face $-1 $99 $100 $33 $-1 $101 forward single #
loop $-1 $102 $103 $42 #
cone-surface $-1 -58.586807371598169 -12.707696357127894 2.3608672252705571 0.79863551827123203 0 -0.60181501223851219 0.3009075061192561 0 0.39931775913561601 1 I I 0 1 0.5 forward I I I I #
face $-1 $104 $105 $34 $-1 $106 forward single #
loop $-1 $107 $108 $43 #
cone-surface $-1 -58.586807371598169 -9.7668322606479201 2.3608672252705571 0.79863551827123203 0 -0.60181501223851219 0.3009075061192561 0 0.39931775913561601 1 I I 0 1 0.5 forward I I I I #
face $-1 $109 $110 $35 $-1 $111 forward single #
loop $-1 $112 $113 $44 #
cone-surface $-1 -58.586807371598169 -6.8259681641679464 2.3608672252705571 0.79863551827123203 0 -0.60181501223851219 0.3009075061192561 0 0.39931775913561601 1 I I 0 1 0.5 forward I I I I #
face $-1 $114 $115 $27 $-1 $116 reversed single #
loop $-1 $-1 $117 $45 #
plane-surface $-1 0 0 -5.7231294283223315 0 0 1 1 0 0 forward_v I I I I #
coedge $-1 $118 $119 $120 $121 forward $46 $-1 #
face $-1 $122 $123 $28 $-1 $124 reversed single #
loop $-1 $-1 $125 $48 #
plane-surface $-1 -12.515475292055086 -9.7668322606479201 98.360360377589075 0.79863551827123203 0 0.60181501223851219 0.60181501223851219 0 -0.79863551827123203 forward_v I I I I #
coedge $-1 $126 $127 $128 $129 reversed $49 $-1 #
face $-1 $-1 $130 $29 $-1 $131 forward single #
loop $-1 $132 $133 $51 #
cone-surface $-1 57.597195914015614 -12.707696357127894 1.6151415245834562 -0.79863551827123203 0 -0.60181501223851219 0.15045375305962805 0 -0.19965887956780801 1 I I -0.70710678118654746 0.70710678118654746 0.25 forward I I I I #
loop $-1 $-1 $134 $38 #
coedge $-1 $84 $84 $135 $136 reversed $52 $-1 #
face $-1 $-1 $137 $30 $-1 $138 forward single #
loop $-1 $139 $140 $54 #
cone-surface $-1 57.597195914015614 -9.7668322606479201 1.6151415245834562 -0.79863551827123203 0 -0.60181501223851219 0.15045375305962805 0 -0.19965887956780801 1 I I -0.70710678118654746 0.70710678118654746 0.25 forward I I I I #
loop $-1 $-1 $141 $39 #
coedge $-1 $89 $89 $142 $143 reversed $55 $-1 #
face $-1 $-1 $144 $31 $-1 $145 forward single #
loop $-1 $146 $147 $57 #
cone-surface $-1 57.597195914015614 -6.8259681641679464 1.6151415245834562 -0.79863551827123203 0 -0.60181501223851219 0.15045375305962805 0 -0.19965887956780801 1 I I -0.70710678118654746 0.70710678118654746 0.25 forward I I I I #
loop $-1 $-1 $148 $40 #
coedge $-1 $94 $94 $149 $150 reversed $58 $-1 #
face $-1 $151 $152 $32 $-1 $153 reversed single #
loop $-1 $-1 $154 $60 #
plane-surface $-1 -61.461836603900281 -9.7668322606479201 0.18914891747373019 -0.79863551827123203 0 0.60181501223851219 0.60181501223851219 0 0.79863551827123203 forward_v I I I I #
coedge $-1 $155 $156 $157 $158 reversed $61 $-1 #
face $-1 $-1 $159 $33 $-1 $160 forward single #
loop $-1 $161 $162 $63 #
cone-surface $-1 -57.597195914015614 -12.707696357127894 1.6151415245834579 0.79863551827123203 0 -0.60181501223851219 0.15045375305962805 0 0.19965887956780801 1 I I -0.70710678118654746 0.70710678118654746 0.25 forward I I I I #
loop $-1 $-1 $163 $42 #
coedge $-1 $103 $103 $164 $165 reversed $64 $-1 #
face $-1 $-1 $166 $34 $-1 $167 forward single #
loop $-1 $168 $169 $66 #
cone-surface $-1 -57.597195914015614 -9.7668322606479201 1.6151415245834579 0.79863551827123203 0 -0.60181501223851219 0.15045375305962805 0 0.19965887956780801 1 I I -0.70710678118654746 0.70710678118654746 0.25 forward I I I I #
loop $-1 $-1 $170 $43 #
coedge $-1 $108 $108 $171 $172 reversed $67 $-1 #
face $-1 $-1 $173 $35 $-1 $174 forward single #
loop $-1 $175 $176 $69 #
cone-surface $-1 -57.597195914015614 -6.8259681641679464 1.6151415245834579 0.79863551827123203 0 -0.60181501223851219 0.15045375305962805 0 0.19965887956780801 1 I I -0.70710678118654746 0.70710678118654746 0.25 forward I I I I #
loop $-1 $-1 $177 $44 #
coedge $-1 $113 $113 $178 $179 reversed $70 $-1 #
face $-1 $180 $181 $27 $-1 $182 reversed single #
loop $-1 $-1 $183 $72 #
plane-surface $-1 0 -27.341485679395497 0 0 1 0 0 0 1 forward_v I I I I #
coedge $-1 $184 $185 $186 $187 forward $73 $-1 #
coedge $-1 $188 $75 $189 $190 forward $46 $-1 #
coedge $-1 $75 $188 $191 $192 forward $46 $-1 #
coedge $-1 $193 $194 $75 $121 reversed $195 $-1 #
edge $-1 $196 -27.341485679395497 $197 27.341485679395497 $120 $198 forward 7 unknown #
face $-1 $199 $200 $28 $-1 $201 forward single #
loop $-1 $-1 $202 $76 #
plane-surface $-1 85.655736168060244 -14.668272421447874 172.33767227354443 0 1 0 0.79863551827123203 0 0.60181501223851219 forward_v I I I I #
coedge $-1 $203 $204 $205 $206 reversed $77 $-1 #
coedge $-1 $127 $79 $207 $208 reversed $49 $-1 #
coedge $-1 $79 $126 $203 $209 reversed $49 $-1 #
coedge $-1 $205 $210 $79 $129 forward $200 $-1 #
edge $-1 $211 -18.633968519870145 $212 -14.463815211295461 $128 $213 forward 7 unknown #
loop $-1 $-1 $135 $80 #
plane-surface $-1 -12.515475292055086 -9.7668322606479201 98.360360377589075 0.79863551827123203 0 0.60181501223851219 0.60181501223851219 0 -0.79863551827123203 forward_v I I I I #
loop $-1 $-1 $214 $51 #
coedge $-1 $133 $133 $134 $215 reversed $81 $-1 #
coedge $-1 $134 $134 $133 $215 forward $83 $-1 #
coedge $-1 $135 $135 $84 $136 forward $130 $-1 #
edge $-1 $216 0 $216 6.2831853071796004 $135 $217 forward 7 unknown #
loop $-1 $-1 $142 $85 #
plane-surface $-1 -12.515475292055086 -9.7668322606479201 98.360360377589075 0.79863551827123203 0 0.60181501223851219 0.60181501223851219 0 -0.79863551827123203 forward_v I I I I #
loop $-1 $-1 $218 $54 #
coedge $-1 $140 $140 $141 $219 reversed $86 $-1 #
coedge $-1 $141 $141 $140 $219 forward $88 $-1 #
coedge $-1 $142 $142 $89 $143 forward $137 $-1 #
edge $-1 $220 0 $220 6.2831853071796004 $142 $221 forward 7 unknown #
loop $-1 $-1 $149 $90 #
plane-surface $-1 -12.515475292055086 -9.7668322606479201 98.360360377589075 0.79863551827123203 0 0.60181501223851219 0.60181501223851219 0 -0.79863551827123203 forward_v I I I I #
loop $-1 $-1 $222 $57 #
coedge $-1 $147 $147 $148 $223 reversed $91 $-1 #
coedge $-1 $148 $148 $147 $223 forward $93 $-1 #
coedge $-1 $149 $149 $94 $150 forward $144 $-1 #
edge $-1 $224 0 $224 6.2831853071796004 $149 $225 forward 7 unknown #
face $-1 $226 $227 $32 $-1 $228 reversed single #
loop $-1 $-1 $229 $95 #
plane-surface $-1 -159.63304806401561 -4.8653920998479654 74.166460813429083 0 -1 0 0.79863551827123203 0 -0.60181501223851219 forward_v I I I I #
coedge $-1 $230 $231 $232 $233 reversed $96 $-1 #
coedge $-1 $156 $98 $234 $235 reversed $61 $-1 #
coedge $-1 $98 $155 $230 $236 reversed $61 $-1 #
coedge $-1 $232 $237 $98 $158 forward $238 $-1 #
edge $-1 $239 18.354687428107539 $240 22.524840736682215 $157 $241 forward 7 unknown #
loop $-1 $-1 $164 $99 #
plane-surface $-1 -61.461836603900281 -9.7668322606479201 0.18914891747373019 -0.79863551827123203 0 0.60181501223851219 0.60181501223851219 0 0.79863551827123203 forward_v I I I I #
loop $-1 $-1 $242 $63 #
coedge $-1 $162 $162 $163 $243 reversed $100 $-1 #
coedge $-1 $163 $163 $162 $243 forward $102 $-1 #
coedge $-1 $164 $164 $103 $165 forward $159 $-1 #
edge $-1 $244 0 $244 6.2831853071796004 $164 $245 forward 7 unknown #
loop $-1 $-1 $171 $104 #
plane-surface $-1 -61.461836603900281 -9.7668322606479201 0.18914891747373019 -0.79863551827123203 0 0.60181501223851219 0.60181501223851219 0 0.79863551827123203 forward_v I I I I #
loop $-1 $-1 $246 $66 #
coedge $-1 $169 $169 $170 $247 reversed $105 $-1 #
coedge $-1 $170 $170 $169 $247 forward $107 $-1 #
coedge $-1 $171 $171 $108 $172 forward $166 $-1 #
edge $-1 $248 0 $248 6.2831853071796004 $171 $249 forward 7 unknown #
loop $-1 $-1 $178 $109 #
plane-surface $-1 -61.461836603900281 -9.7668322606479201 0.18914891747373019 -0.79863551827123203 0 0.60181501223851219 0.60181501223851219 0 0.79863551827123203 forward_v I I I I #
loop $-1 $-1 $250 $69 #
coedge $-1 $176 $176 $177 $251 reversed $110 $-1 #
coedge $-1 $177 $177 $176 $251 forward $112 $-1 #
coedge $-1 $178 $178 $113 $179 forward $173 $-1 #
edge $-1 $252 0 $252 6.2831853071796004 $178 $253 forward 7 unknown #
face $-1 $254 $255 $27 $-1 $256 reversed single #
loop $-1 $-1 $257 $114 #
plane-surface $-1 -61.461836603900267 0 0 1 0 0 0 0 -1 forward_v I I I I #
coedge $-1 $258 $191 $259 $260 forward $115 $-1 #
coedge $-1 $261 $117 $258 $262 forward $73 $-1 #
coedge $-1 $117 $261 $263 $264 forward $73 $-1 #
coedge $-1 $194 $193 $117 $187 reversed $195 $-1 #
edge $-1 $265 -27.341485679395497 $266 27.341485679395497 $186 $267 forward 7 unknown #
coedge $-1 $119 $118 $268 $269 forward $46 $-1 #
coedge $-1 $270 $271 $118 $190 reversed $255 $-1 #
edge $-1 $197 -61.461836603900267 $272 61.461836603900267 $189 $273 forward 7 unknown #
coedge $-1 $183 $274 $119 $192 reversed $115 $-1 #
edge $-1 $275 -61.461836603900267 $196 61.461836603900267 $191 $276 forward 7 unknown #
coedge $-1 $186 $120 $274 $277 forward $195 $-1 #
coedge $-1 $120 $186 $270 $278 reversed $195 $-1 #
loop $-1 $-1 $193 $254 #
vertex $-1 $121 $279 #
vertex $-1 $121 $280 #
straight-curve $-1 61.461836603900267 0 5.7231294283223315 0 1 0 I I #
face $-1 $-1 $281 $28 $-1 $282 reversed single #
loop $-1 $-1 $128 $122 #
plane-surface $-1 0 0 5.7231294283223315 0 0 1 1 0 0 forward_v I I I I #
coedge $-1 $283 $284 $285 $286 reversed $123 $-1 #
coedge $-1 $287 $125 $127 $209 forward $77 $-1 #
coedge $-1 $125 $287 $283 $288 forward $77 $-1 #
coedge $-1 $285 $128 $125 $206 forward $200 $-1 #
edge $-1 $212 -0.018024030475994657 $289 9.7848562911239139 $205 $290 forward 7 unknown #
coedge $-1 $291 $292 $126 $208 forward $281 $-1 #
edge $-1 $293 -85.979687219298469 $211 -80.445706708449876 $207 $294 forward 7 unknown #
edge $-1 $212 115.9943789499797 $293 122.92367320780053 $127 $295 forward 7 unknown #
coedge $-1 $128 $285 $291 $296 forward $200 $-1 #
vertex $-1 $208 $297 #
vertex $-1 $129 $298 #
straight-curve $-1 42.827868084030122 -4.8653920998479654 5.7231294283223377 -1 0 0 I I #
coedge $-1 $214 $214 $-1 $299 reversed $132 $-1 #
edge $-1 $300 0 $300 6.2831853071796004 $133 $301 forward 7 unknown #
vertex $-1 $136 $302 #
ellipse-curve $-1 59.376759949612932 -12.707696357127894 2.9561391728980357 0.79863551827123203 0 0.60181501223851219 0.3009075061192561 0 -0.39931775913561601 1 I I #
coedge $-1 $218 $218 $-1 $303 reversed $139 $-1 #
edge $-1 $304 0 $304 6.2831853071796004 $140 $305 forward 7 unknown #
vertex $-1 $143 $306 #
ellipse-curve $-1 59.376759949612932 -9.7668322606479201 2.9561391728980357 0.79863551827123203 0 0.60181501223851219 0.3009075061192561 0 -0.39931775913561601 1 I I #
coedge $-1 $222 $222 $-1 $307 reversed $146 $-1 #
edge $-1 $308 0 $308 6.2831853071796004 $147 $309 forward 7 unknown #
vertex $-1 $150 $310 #
ellipse-curve $-1 59.376759949612932 -6.8259681641679464 2.9561391728980357 0.79863551827123203 0 0.60181501223851219 0.3009075061192561 0 -0.39931775913561601 1 I I #
face $-1 $-1 $238 $32 $-1 $311 forward single #
loop $-1 $-1 $312 $151 #
plane-surface $-1 -61.461836603900267 0 0 1 0 0 0 0 -1 forward_v I I I I #
coedge $-1 $313 $314 $315 $316 reversed $152 $-1 #
coedge $-1 $317 $154 $156 $236 forward $96 $-1 #
coedge $-1 $154 $317 $313 $318 forward $96 $-1 #
coedge $-1 $315 $157 $154 $233 forward $238 $-1 #
edge $-1 $240 -9.7848562911239139 $319 0.018024030475994657 $232 $320 forward 7 unknown #
coedge $-1 $321 $322 $155 $235 forward $227 $-1 #
edge $-1 $323 -36.89408148924079 $239 -31.360100978392211 $234 $324 forward 7 unknown #
edge $-1 $240 -6.9292942578208194 $323 -2.3603419307191141e-014 $156 $325 forward 7 unknown #
coedge $-1 $157 $315 $321 $326 forward $238 $-1 #
loop $-1 $-1 $315 $226 #
vertex $-1 $235 $327 #
vertex $-1 $158 $328 #
straight-curve $-1 -79.816524032007806 -14.668272421447874 5.7231294283223306 1 0 0 I I #
coedge $-1 $242 $242 $-1 $329 reversed $161 $-1 #
edge $-1 $330 0 $330 6.2831853071796004 $162 $331 forward 7 unknown #
vertex $-1 $165 $332 #
ellipse-curve $-1 -59.376759949612932 -12.707696357127894 2.9561391728980375 -0.79863551827123203 0 0.60181501223851219 0.3009075061192561 0 0.39931775913561601 1 I I #
coedge $-1 $246 $246 $-1 $333 reversed $168 $-1 #
edge $-1 $334 0 $334 6.2831853071796004 $169 $335 forward 7 unknown #
vertex $-1 $172 $336 #
ellipse-curve $-1 -59.376759949612932 -9.7668322606479201 2.9561391728980375 -0.79863551827123203 0 0.60181501223851219 0.3009075061192561 0 0.39931775913561601 1 I I #
coedge $-1 $250 $250 $-1 $337 reversed $175 $-1 #
edge $-1 $338 0 $338 6.2831853071796004 $176 $339 forward 7 unknown #
vertex $-1 $179 $340 #
ellipse-curve $-1 -59.376759949612932 -6.8259681641679464 2.9561391728980375 -0.79863551827123203 0 0.60181501223851219 0.3009075061192561 0 0.39931775913561601 1 I I #
face $-1 $-1 $195 $27 $-1 $341 reversed single #
loop $-1 $-1 $270 $180 #
plane-surface $-1 0 27.341485679395497 0 0 -1 0 0 0 -1 forward_v I I I I #
coedge $-1 $342 $268 $271 $343 forward $181 $-1 #
coedge $-1 $274 $183 $184 $262 reversed $115 $-1 #
coedge $-1 $268 $342 $183 $260 reversed $181 $-1 #
edge $-1 $275 -5.7231294283223315 $344 5.7231294283223315 $259 $345 forward 7 unknown #
coedge $-1 $185 $184 $342 $346 forward $73 $-1 #
edge $-1 $266 -61.461836603900267 $344 61.461836603900267 $258 $347 forward 7 unknown #
coedge $-1 $271 $270 $185 $264 reversed $255 $-1 #
edge $-1 $348 -61.461836603900267 $265 61.461836603900267 $263 $349 forward 7 unknown #
vertex $-1 $187 $350 #
vertex $-1 $277 $351 #
straight-curve $-1 61.461836603900267 0 -5.7231294283223315 0 -1 0 I I #
coedge $-1 $257 $259 $188 $269 reversed $181 $-1 #
edge $-1 $272 -27.341485679395497 $275 27.341485679395497 $268 $352 forward 7 unknown #
coedge $-1 $263 $189 $194 $278 forward $255 $-1 #
coedge $-1 $189 $263 $257 $343 reversed $255 $-1 #
vertex $-1 $190 $353 #
straight-curve $-1 0 27.341485679395497 5.7231294283223315 -1 0 0 I I #
coedge $-1 $191 $258 $193 $277 reversed $115 $-1 #
vertex $-1 $269 $354 #
straight-curve $-1 0 -27.341485679395497 5.7231294283223315 1 0 0 I I #
edge $-1 $196 -5.7231294283223315 $266 5.7231294283223315 $193 $355 forward 7 unknown #
edge $-1 $197 -5.7231294283223315 $265 5.7231294283223315 $194 $356 forward 7 unknown #
point $-1 61.461836603900267 -27.341485679395497 5.7231294283223315 #
point $-1 61.461836603900267 27.341485679395497 5.7231294283223315 #
loop $-1 $-1 $207 $199 #
plane-surface $-1 61.461836603900267 0 0 -1 0 0 0 0 1 forward_v I I I I #
coedge $-1 $284 $202 $204 $288 reversed $123 $-1 #
coedge $-1 $202 $283 $357 $358 reversed $123 $-1 #
coedge $-1 $210 $205 $202 $286 forward $200 $-1 #
edge $-1 $289 14.463815211295461 $359 18.633968519870145 $285 $360 forward 7 unknown #
coedge $-1 $204 $203 $292 $361 reversed $77 $-1 #
edge $-1 $362 -122.92367320780053 $289 -115.9943789499797 $283 $363 forward 7 unknown #
vertex $-1 $206 $364 #
straight-curve $-1 57.291683295325583 -4.88341613032396 5.7231294283223377 0 -1 0 I I #
coedge $-1 $357 $207 $210 $296 reversed $281 $-1 #
coedge $-1 $207 $357 $287 $361 forward $281 $-1 #
vertex $-1 $208 $365 #
straight-curve $-1 61.461836603900267 -4.8653920998479654 86.168836136772214 0 0 1 I I #
straight-curve $-1 -12.515475292055086 -4.8653920998479654 98.360360377589075 0.60181501223851219 0 -0.79863551827123203 I I #
edge $-1 $359 -14.668272421447874 $211 -4.8653920998479654 $291 $366 forward 7 unknown #
point $-1 61.461836603900267 -4.8653920998479654 5.7231294283223315 #
point $-1 57.291683295325583 -4.8653920998479654 5.7231294283223377 #
edge $-1 $367 1 $367 0 $214 $-1 forward 7 unknown #
vertex $-1 $215 $368 #
ellipse-curve $-1 57.796854793583421 -12.707696357127894 1.7655952776430843 0.79863551827123203 0 0.60181501223851219 0.3009075061192561 0 -0.39931775913561601 1 I I #
point $-1 59.677667455732177 -12.707696357127894 2.5568214137624108 #
edge $-1 $369 1 $369 0 $218 $-1 forward 7 unknown #
vertex $-1 $219 $370 #
ellipse-curve $-1 57.796854793583421 -9.7668322606479201 1.7655952776430843 0.79863551827123203 0 0.60181501223851219 0.3009075061192561 0 -0.39931775913561601 1 I I #
point $-1 59.677667455732177 -9.7668322606479201 2.5568214137624108 #
edge $-1 $371 1 $371 0 $222 $-1 forward 7 unknown #
vertex $-1 $223 $372 #
ellipse-curve $-1 57.796854793583421 -6.8259681641679464 1.7655952776430843 0.79863551827123203 0 0.60181501223851219 0.3009075061192561 0 -0.39931775913561601 1 I I #
point $-1 59.677667455732177 -6.8259681641679464 2.5568214137624108 #
plane-surface $-1 0 0 5.7231294283223315 0 0 1 1 0 0 forward_v I I I I #
coedge $-1 $322 $321 $314 $373 forward $227 $-1 #
coedge $-1 $314 $229 $231 $318 reversed $152 $-1 #
coedge $-1 $229 $313 $312 $373 reversed $152 $-1 #
coedge $-1 $237 $232 $229 $316 forward $238 $-1 #
edge $-1 $319 -22.524840736682215 $374 -18.354687428107539 $315 $375 forward 7 unknown #
coedge $-1 $231 $230 $322 $376 reversed $96 $-1 #
edge $-1 $377 2.3603419307191141e-014 $319 6.9292942578208194 $313 $378 forward 7 unknown #
vertex $-1 $233 $379 #
straight-curve $-1 -57.291683295325598 -4.88341613032396 5.7231294283223324 0 1 0 I I #
coedge $-1 $312 $234 $237 $326 reversed $227 $-1 #
coedge $-1 $234 $312 $317 $376 forward $227 $-1 #
vertex $-1 $235 $380 #
straight-curve $-1 -61.461836603900267 -14.668272421447874 37.083230406714542 0 0 1 I I #
straight-curve $-1 -61.461836603900281 -14.668272421447874 0.18914891747373019 -0.60181501223851219 0 -0.79863551827123203 I I #
edge $-1 $374 4.8653920998479654 $239 14.668272421447874 $321 $381 forward 7 unknown #
point $-1 -61.461836603900267 -14.668272421447874 5.7231294283223315 #
point $-1 -57.291683295325591 -14.668272421447874 5.7231294283223315 #
edge $-1 $382 1 $382 0 $242 $-1 forward 7 unknown #
vertex $-1 $243 $383 #
ellipse-curve $-1 -57.796854793583421 -12.707696357127894 1.7655952776430861 -0.79863551827123203 0 0.60181501223851219 0.3009075061192561 0 0.39931775913561601 1 I I #
point $-1 -59.075852443493666 -12.707696357127894 3.3554569320336447 #
edge $-1 $384 1 $384 0 $246 $-1 forward 7 unknown #
vertex $-1 $247 $385 #
ellipse-curve $-1 -57.796854793583421 -9.7668322606479201 1.7655952776430861 -0.79863551827123203 0 0.60181501223851219 0.3009075061192561 0 0.39931775913561601 1 I I #
point $-1 -59.075852443493666 -9.7668322606479201 3.3554569320336447 #
edge $-1 $386 1 $386 0 $250 $-1 forward 7 unknown #
vertex $-1 $251 $387 #
ellipse-curve $-1 -57.796854793583421 -6.8259681641679464 1.7655952776430861 -0.79863551827123203 0 0.60181501223851219 0.3009075061192561 0 0.39931775913561601 1 I I #
point $-1 -59.075852443493666 -6.8259681641679464 3.3554569320336447 #
plane-surface $-1 61.461836603900267 0 0 -1 0 0 0 0 1 forward_v I I I I #
coedge $-1 $259 $257 $261 $346 reversed $181 $-1 #
edge $-1 $272 -5.7231294283223315 $348 5.7231294283223315 $271 $388 forward 7 unknown #
vertex $-1 $346 $389 #
straight-curve $-1 -61.461836603900267 -27.341485679395497 0 0 0 -1 I I #
edge $-1 $344 -27.341485679395497 $348 27.341485679395497 $342 $390 forward 7 unknown #
straight-curve $-1 0 -27.341485679395497 -5.7231294283223315 -1 0 0 I I #
vertex $-1 $264 $391 #
straight-curve $-1 0 27.341485679395497 -5.7231294283223315 1 0 0 I I #
point $-1 61.461836603900267 27.341485679395497 -5.7231294283223315 #
point $-1 61.461836603900267 -27.341485679395497 -5.7231294283223315 #
straight-curve $-1 -61.461836603900267 0 5.7231294283223315 0 -1 0 I I #
point $-1 -61.461836603900267 27.341485679395497 5.7231294283223315 #
point $-1 -61.461836603900267 -27.341485679395497 5.7231294283223315 #
straight-curve $-1 61.461836603900267 -27.341485679395497 0 0 0 -1 I I #
straight-curve $-1 61.461836603900267 27.341485679395497 0 0 0 -1 I I #
coedge $-1 $292 $291 $284 $358 forward $281 $-1 #
edge $-1 $359 80.445706708449876 $362 85.979687219298469 $357 $392 forward 7 unknown #
vertex $-1 $296 $393 #
straight-curve $-1 42.827868084030122 -14.668272421447874 5.7231294283223377 1 0 0 I I #
edge $-1 $362 -9.7848562911239139 $293 0.018024030475994657 $292 $394 forward 7 unknown #
vertex $-1 $361 $395 #
straight-curve $-1 -12.515475292055086 -14.668272421447874 98.360360377589075 -0.60181501223851219 0 0.79863551827123203 I I #
point $-1 57.291683295325583 -14.668272421447874 5.7231294283223377 #
point $-1 61.461836603900267 -4.8653920998479654 0.1891489174737444 #
straight-curve $-1 61.461836603900267 0 5.7231294283223315 0 1 0 I I #
vertex $-1 $299 $396 #
point $-1 58.09776229970268 -12.707696357127894 1.3662775185074683 #
vertex $-1 $303 $397 #
point $-1 58.09776229970268 -9.7668322606479201 1.3662775185074683 #
vertex $-1 $307 $398 #
point $-1 58.09776229970268 -6.8259681641679464 1.3662775185074683 #
edge $-1 $374 31.360100978392211 $377 36.89408148924079 $312 $399 forward 7 unknown #
vertex $-1 $326 $400 #
straight-curve $-1 -79.816524032007806 -4.8653920998479654 5.7231294283223306 -1 0 0 I I #
edge $-1 $377 -0.018024030475994657 $323 9.7848562911239139 $322 $401 forward 7 unknown #
vertex $-1 $376 $402 #
straight-curve $-1 -61.461836603900281 -4.8653920998479654 0.18914891747373019 0.60181501223851219 0 0.79863551827123203 I I #
point $-1 -57.291683295325591 -4.8653920998479654 5.7231294283223315 #
point $-1 -61.461836603900267 -14.668272421447874 0.18914891747374904 #
straight-curve $-1 -61.461836603900267 0 5.7231294283223315 0 -1 0 I I #
vertex $-1 $329 $403 #
point $-1 -57.495947287464169 -12.707696357127894 2.1649130367787022 #
vertex $-1 $333 $404 #
point $-1 -57.495947287464169 -9.7668322606479201 2.1649130367787022 #
vertex $-1 $337 $405 #
point $-1 -57.495947287464169 -6.8259681641679464 2.1649130367787022 #
straight-curve $-1 -61.461836603900267 27.341485679395497 0 0 0 -1 I I #
point $-1 -61.461836603900267 -27.341485679395497 -5.7231294283223315 #
straight-curve $-1 -61.461836603900267 0 -5.7231294283223315 0 1 0 I I #
point $-1 -61.461836603900267 27.341485679395497 -5.7231294283223315 #
straight-curve $-1 61.461836603900267 -14.668272421447874 86.168836136772214 0 0 -1 I I #
point $-1 61.461836603900267 -14.668272421447874 5.7231294283223315 #
straight-curve $-1 61.461836603900267 -4.88341613032396 0.1891489174737373 0 1 0 I I #
point $-1 61.461836603900267 -14.668272421447874 0.1891489174737444 #
point $-1 57.397537034447808 -12.707696357127894 1.464687771523828 #
point $-1 57.397537034447808 -9.7668322606479201 1.464687771523828 #
point $-1 57.397537034447808 -6.8259681641679464 1.464687771523828 #
straight-curve $-1 -61.461836603900267 -4.8653920998479654 37.083230406714542 0 0 -1 I I #
point $-1 -61.461836603900267 -4.8653920998479654 5.7231294283223315 #
straight-curve $-1 -61.461836603900267 -4.88341613032396 0.18914891747374485 0 -1 0 I I #
point $-1 -61.461836603900267 -4.8653920998479654 0.18914891747374904 #
point $-1 -57.397537034447808 -12.707696357127894 1.4646877715238298 #
point $-1 -57.397537034447808 -9.7668322606479201 1.4646877715238298 #
point $-1 -57.397537034447808 -6.8259681641679464 1.4646877715238298 #
End-of-ACIS-data 