500 0 13 0           
7 Unknown 11 ACIS 5.0 NT 24 Thu Mar 25 15:08:07 1999 
-1 9.9999999999999995e-007 1e-010 
body $-1 $13 $-1 $14 #
body $-1 $15 $-1 $16 #
body $-1 $17 $-1 $18 #
body $-1 $19 $-1 $20 #
body $-1 $21 $-1 $22 #
body $-1 $23 $-1 $24 #
body $-1 $25 $-1 $26 #
body $-1 $27 $-1 $28 #
body $-1 $29 $-1 $30 #
body $-1 $31 $-1 $32 #
body $-1 $33 $-1 $34 #
body $-1 $35 $-1 $36 #
body $-1 $37 $-1 $38 #
lump $-1 $-1 $39 $0 #
transform $-1 1 0 0 0 1 0 0 0 1 62.149113437299725 39.831992143397336 13.750649907787336 1 rotate no_reflect no_shear #
lump $-1 $-1 $40 $1 #
transform $-1 1 0 0 0 1 0 0 0 1 62.149113437299725 7.5392227984817239 17.941786338914337 1 rotate no_reflect no_shear #
lump $-1 $-1 $41 $2 #
transform $-1 0.49999998660252726 0 -0.86602541151947299 0 1 0 0.86602541151947299 0 0.49999998660252726 169.79453818279762 70.247961881566027 184.34999887860965 1 rotate no_reflect no_shear #
lump $-1 $-1 $42 $3 #
transform $-1 0.49999998660252726 0 -0.86602541151947299 0 -1 0 -0.86602541151947299 0 -0.49999998660252726 110.86765789996085 66.212523707896594 15.431878729156665 1 rotate no_reflect no_shear #
lump $-1 $-1 $43 $4 #
transform $-1 0.49999998660252726 0 -0.86602541151947299 0 -1 0 -0.86602541151947299 0 -0.49999998660252726 110.86765789996085 74.283400055235433 15.431878729156665 1 rotate no_reflect no_shear #
lump $-1 $-1 $44 $5 #
transform $-1 0.65605901945558964 0 0.75470958851134928 0 1 0 -0.75470958851134928 0 0.65605901945558964 -93.809063657219298 23.521364512434523 103.08886648301571 1 rotate no_reflect no_shear #
lump $-1 $-1 $45 $6 #
transform $-1 0.65605901945558964 0 0.75470958851134928 0 -1 0 0.75470958851134928 0 -0.65605901945558964 3.7989101929143949 23.521364512434523 23.470895192704052 1 rotate no_reflect no_shear #
lump $-1 $-1 $46 $7 #
transform $-1 0.65605901945558964 0 0.75470958851134928 0 1 0 -0.75470958851134928 0 0.65605901945558964 -93.809063657219298 39.421264798730881 103.08886648301571 1 rotate no_reflect no_shear #
lump $-1 $-1 $47 $8 #
transform $-1 0.65605901945558964 0 0.75470958851134928 0 -1 0 0.75470958851134928 0 -0.65605901945558964 3.7989101929143949 39.421264798730881 23.470895192704052 1 rotate no_reflect no_shear #
lump $-1 $-1 $48 $9 #
transform $-1 0.65605901945558964 0 0.75470958851134928 0 1 0 -0.75470958851134928 0 0.65605901945558964 -93.809063657219298 55.321165085027239 103.08886648301571 1 rotate no_reflect no_shear #
lump $-1 $-1 $49 $10 #
transform $-1 0.65605901945558964 0 0.75470958851134928 0 -1 0 0.75470958851134928 0 -0.65605901945558964 3.7989101929143949 55.321165085027239 23.470895192704052 1 rotate no_reflect no_shear #
lump $-1 $-1 $50 $11 #
transform $-1 0.65605901945558964 0 0.75470958851134928 0 1 0 -0.75470958851134928 0 0.65605901945558964 -93.809063657219298 71.22106537132359 103.08886648301571 1 rotate no_reflect no_shear #
lump $-1 $-1 $51 $12 #
transform $-1 0.65605901945558964 0 0.75470958851134928 0 -1 0 0.75470958851134928 0 -0.65605901945558964 3.7989101929143949 71.22106537132359 23.470895192704052 1 rotate no_reflect no_shear #
shell $-1 $-1 $-1 $52 $-1 $13 #
shell $-1 $-1 $-1 $53 $-1 $15 #
shell $-1 $-1 $-1 $54 $-1 $17 #
shell $-1 $-1 $-1 $55 $-1 $19 #
shell $-1 $-1 $-1 $56 $-1 $21 #
shell $-1 $-1 $-1 $57 $-1 $23 #
shell $-1 $-1 $-1 $58 $-1 $25 #
shell $-1 $-1 $-1 $59 $-1 $27 #
shell $-1 $-1 $-1 $60 $-1 $29 #
shell $-1 $-1 $-1 $61 $-1 $31 #
shell $-1 $-1 $-1 $62 $-1 $33 #
shell $-1 $-1 $-1 $63 $-1 $35 #
shell $-1 $-1 $-1 $64 $-1 $37 #
face $-1 $65 $66 $39 $-1 $67 forward single #
face $-1 $68 $69 $40 $-1 $70 forward single #
face $-1 $71 $72 $41 $-1 $73 forward single #
face $-1 $74 $75 $42 $-1 $76 forward single #
face $-1 $77 $78 $43 $-1 $79 forward single #
face $-1 $80 $81 $44 $-1 $82 forward single #
face $-1 $83 $84 $45 $-1 $85 forward single #
face $-1 $86 $87 $46 $-1 $88 forward single #
face $-1 $89 $90 $47 $-1 $91 forward single #
face $-1 $92 $93 $48 $-1 $94 forward single #
face $-1 $95 $96 $49 $-1 $97 forward single #
face $-1 $98 $99 $50 $-1 $100 forward single #
face $-1 $101 $102 $51 $-1 $103 forward single #
face $-1 $104 $105 $39 $-1 $106 reversed single #
loop $-1 $-1 $107 $52 #
plane-surface $-1 0 0 13.750649907787336 0 0 1 1 0 0 forward_v I I I I #
face $-1 $108 $109 $40 $-1 $110 reversed single #
loop $-1 $-1 $111 $53 #
plane-surface $-1 0 0 2.6657384993816189 0 0 1 1 0 0 forward_v I I I I #
face $-1 $112 $113 $41 $-1 $114 reversed single #
loop $-1 $-1 $115 $54 #
plane-surface $-1 0 0 124.29822687459946 0 0 1 1 0 0 forward_v I I I I #
face $-1 $116 $117 $42 $-1 $118 forward single #
loop $-1 $119 $120 $55 #
cone-surface $-1 0 0 -6.2215033417767867 0 0 1 2.5 0 0 1 I I 0 1 2.5 forward I I I I #
face $-1 $121 $122 $43 $-1 $123 forward single #
loop $-1 $124 $125 $56 #
cone-surface $-1 0 0 -6.2215033417767867 0 0 1 2.5 0 0 1 I I 0 1 2.5 forward I I I I #
face $-1 $126 $127 $44 $-1 $128 reversed single #
loop $-1 $-1 $129 $57 #
plane-surface $-1 0 0 124.29822687459946 0 0 1 1 0 0 forward_v I I I I #
face $-1 $130 $131 $45 $-1 $132 forward single #
loop $-1 $133 $134 $58 #
cone-surface $-1 0 0 -1.0507675405133234 0 0 1 1 0 0 1 I I 0 1 1 forward I I I I #
face $-1 $135 $136 $46 $-1 $137 reversed single #
loop $-1 $-1 $138 $59 #
plane-surface $-1 0 0 124.29822687459946 0 0 1 1 0 0 forward_v I I I I #
face $-1 $139 $140 $47 $-1 $141 forward single #
loop $-1 $142 $143 $60 #
cone-surface $-1 0 0 -1.0507675405133234 0 0 1 1 0 0 1 I I 0 1 1 forward I I I I #
face $-1 $144 $145 $48 $-1 $146 reversed single #
loop $-1 $-1 $147 $61 #
plane-surface $-1 0 0 124.29822687459946 0 0 1 1 0 0 forward_v I I I I #
face $-1 $148 $149 $49 $-1 $150 forward single #
loop $-1 $151 $152 $62 #
cone-surface $-1 0 0 -1.0507675405133234 0 0 1 1 0 0 1 I I 0 1 1 forward I I I I #
face $-1 $153 $154 $50 $-1 $155 reversed single #
loop $-1 $-1 $156 $63 #
plane-surface $-1 0 0 124.29822687459946 0 0 1 1 0 0 forward_v I I I I #
face $-1 $157 $158 $51 $-1 $159 forward single #
loop $-1 $160 $161 $64 #
cone-surface $-1 0 0 -1.0507675405133234 0 0 1 1 0 0 1 I I 0 1 1 forward I I I I #
face $-1 $162 $163 $39 $-1 $164 reversed single #
loop $-1 $-1 $165 $65 #
plane-surface $-1 0 0 -13.750649907787336 0 0 1 1 0 0 forward_v I I I I #
coedge $-1 $166 $167 $168 $169 forward $66 $-1 #
face $-1 $170 $171 $40 $-1 $172 reversed single #
loop $-1 $-1 $173 $68 #
plane-surface $-1 0 0 -2.6657384993816189 0 0 1 1 0 0 forward_v I I I I #
coedge $-1 $174 $175 $176 $177 forward $69 $-1 #
face $-1 $178 $179 $41 $-1 $180 reversed single #
loop $-1 $-1 $181 $71 #
plane-surface $-1 0 0 -124.29822687459946 0 0 1 1 0 0 forward_v I I I I #
coedge $-1 $182 $183 $184 $185 forward $72 $-1 #
face $-1 $-1 $186 $42 $-1 $187 forward single #
loop $-1 $-1 $188 $74 #
plane-surface $-1 0 0 -11.193006683553573 0 0 -1 -1 0 0 forward_v I I I I #
loop $-1 $-1 $189 $55 #
coedge $-1 $120 $120 $188 $190 reversed $75 $-1 #
face $-1 $-1 $191 $43 $-1 $192 forward single #
loop $-1 $-1 $193 $77 #
plane-surface $-1 0 0 -11.193006683553573 0 0 -1 -1 0 0 forward_v I I I I #
loop $-1 $-1 $194 $56 #
coedge $-1 $125 $125 $193 $195 reversed $78 $-1 #
face $-1 $196 $197 $44 $-1 $198 reversed single #
loop $-1 $-1 $199 $80 #
plane-surface $-1 0 0 -124.29822687459946 0 0 1 1 0 0 forward_v I I I I #
coedge $-1 $200 $201 $202 $203 forward $81 $-1 #
face $-1 $-1 $204 $45 $-1 $205 forward single #
loop $-1 $-1 $206 $83 #
plane-surface $-1 0 0 -1.6015350810266451 0 0 -1 -1 0 0 forward_v I I I I #
loop $-1 $-1 $207 $58 #
coedge $-1 $134 $134 $206 $208 reversed $84 $-1 #
face $-1 $209 $210 $46 $-1 $211 reversed single #
loop $-1 $-1 $212 $86 #
plane-surface $-1 0 0 -124.29822687459946 0 0 1 1 0 0 forward_v I I I I #
coedge $-1 $213 $214 $215 $216 forward $87 $-1 #
face $-1 $-1 $217 $47 $-1 $218 forward single #
loop $-1 $-1 $219 $89 #
plane-surface $-1 0 0 -1.6015350810266451 0 0 -1 -1 0 0 forward_v I I I I #
loop $-1 $-1 $220 $60 #
coedge $-1 $143 $143 $219 $221 reversed $90 $-1 #
face $-1 $222 $223 $48 $-1 $224 reversed single #
loop $-1 $-1 $225 $92 #
plane-surface $-1 0 0 -124.29822687459946 0 0 1 1 0 0 forward_v I I I I #
coedge $-1 $226 $227 $228 $229 forward $93 $-1 #
face $-1 $-1 $230 $49 $-1 $231 forward single #
loop $-1 $-1 $232 $95 #
plane-surface $-1 0 0 -1.6015350810266451 0 0 -1 -1 0 0 forward_v I I I I #
loop $-1 $-1 $233 $62 #
coedge $-1 $152 $152 $232 $234 reversed $96 $-1 #
face $-1 $235 $236 $50 $-1 $237 reversed single #
loop $-1 $-1 $238 $98 #
plane-surface $-1 0 0 -124.29822687459946 0 0 1 1 0 0 forward_v I I I I #
coedge $-1 $239 $240 $241 $242 forward $99 $-1 #
face $-1 $-1 $243 $51 $-1 $244 forward single #
loop $-1 $-1 $245 $101 #
plane-surface $-1 0 0 -1.6015350810266451 0 0 -1 -1 0 0 forward_v I I I I #
loop $-1 $-1 $246 $64 #
coedge $-1 $161 $161 $245 $247 reversed $102 $-1 #
face $-1 $248 $249 $39 $-1 $250 reversed single #
loop $-1 $-1 $251 $104 #
plane-surface $-1 0 -39.831992143397336 0 0 1 0 0 0 1 forward_v I I I I #
coedge $-1 $252 $253 $254 $255 forward $105 $-1 #
coedge $-1 $256 $107 $257 $258 forward $66 $-1 #
coedge $-1 $107 $256 $259 $260 forward $66 $-1 #
coedge $-1 $261 $262 $107 $169 reversed $263 $-1 #
edge $-1 $264 -39.831992143397336 $265 39.831992143397336 $168 $266 forward 7 unknown #
face $-1 $267 $268 $40 $-1 $269 reversed single #
loop $-1 $-1 $270 $108 #
plane-surface $-1 0 -7.5392227984817239 0 0 1 0 0 0 1 forward_v I I I I #
coedge $-1 $271 $272 $273 $274 forward $109 $-1 #
coedge $-1 $275 $111 $276 $277 forward $69 $-1 #
coedge $-1 $111 $275 $278 $279 forward $69 $-1 #
coedge $-1 $280 $281 $111 $177 reversed $282 $-1 #
edge $-1 $283 -7.5392227984817239 $284 7.5392227984817239 $176 $285 forward 7 unknown #
face $-1 $286 $287 $41 $-1 $288 reversed single #
loop $-1 $-1 $289 $112 #
plane-surface $-1 0 -9.4160224052286523 0 0 1 0 0 0 1 forward_v I I I I #
coedge $-1 $290 $291 $292 $293 forward $113 $-1 #
coedge $-1 $294 $115 $295 $296 forward $72 $-1 #
coedge $-1 $115 $294 $297 $298 forward $72 $-1 #
coedge $-1 $299 $300 $115 $185 reversed $301 $-1 #
edge $-1 $302 -9.4160224052286523 $303 9.4160224052286523 $184 $304 forward 7 unknown #
loop $-1 $305 $306 $116 #
cone-surface $-1 0 0 0 0 0 1 1.25 0 0 1 I I -0.70710678118654746 0.70710678118654746 1.25 forward I I I I #
coedge $-1 $188 $188 $120 $190 forward $117 $-1 #
coedge $-1 $189 $189 $306 $307 forward $119 $-1 #
edge $-1 $308 0 $308 6.2831853071796004 $188 $309 forward 7 unknown #
loop $-1 $310 $311 $121 #
cone-surface $-1 0 0 0 0 0 1 1.25 0 0 1 I I -0.70710678118654746 0.70710678118654746 1.25 forward I I I I #
coedge $-1 $193 $193 $125 $195 forward $122 $-1 #
coedge $-1 $194 $194 $311 $312 forward $124 $-1 #
edge $-1 $313 0 $313 6.2831853071796004 $193 $314 forward 7 unknown #
face $-1 $315 $316 $44 $-1 $317 reversed single #
loop $-1 $-1 $318 $126 #
plane-surface $-1 0 -5.6004553470367124 0 0 1 0 0 0 1 forward_v I I I I #
coedge $-1 $319 $320 $321 $322 forward $127 $-1 #
coedge $-1 $323 $129 $324 $325 forward $81 $-1 #
coedge $-1 $129 $323 $326 $327 forward $81 $-1 #
coedge $-1 $328 $329 $129 $203 reversed $330 $-1 #
edge $-1 $331 -5.6004553470367124 $332 5.6004553470367124 $202 $333 forward 7 unknown #
loop $-1 $334 $335 $130 #
cone-surface $-1 0 0 0 0 0 1 0.5 0 0 1 I I -0.70710678118654746 0.70710678118654746 0.5 forward I I I I #
coedge $-1 $206 $206 $134 $208 forward $131 $-1 #
coedge $-1 $207 $207 $335 $336 forward $133 $-1 #
edge $-1 $337 0 $337 6.2831853071796004 $206 $338 forward 7 unknown #
face $-1 $339 $340 $46 $-1 $341 reversed single #
loop $-1 $-1 $342 $135 #
plane-surface $-1 0 -5.6004553470367124 0 0 1 0 0 0 1 forward_v I I I I #
coedge $-1 $343 $344 $345 $346 forward $136 $-1 #
coedge $-1 $347 $138 $348 $349 forward $87 $-1 #
coedge $-1 $138 $347 $350 $351 forward $87 $-1 #
coedge $-1 $352 $353 $138 $216 reversed $354 $-1 #
edge $-1 $355 -5.6004553470367124 $356 5.6004553470367124 $215 $357 forward 7 unknown #
loop $-1 $358 $359 $139 #
cone-surface $-1 0 0 0 0 0 1 0.5 0 0 1 I I -0.70710678118654746 0.70710678118654746 0.5 forward I I I I #
coedge $-1 $219 $219 $143 $221 forward $140 $-1 #
coedge $-1 $220 $220 $359 $360 forward $142 $-1 #
edge $-1 $361 0 $361 6.2831853071796004 $219 $362 forward 7 unknown #
face $-1 $363 $364 $48 $-1 $365 reversed single #
loop $-1 $-1 $366 $144 #
plane-surface $-1 0 -5.6004553470367124 0 0 1 0 0 0 1 forward_v I I I I #
coedge $-1 $367 $368 $369 $370 forward $145 $-1 #
coedge $-1 $371 $147 $372 $373 forward $93 $-1 #
coedge $-1 $147 $371 $374 $375 forward $93 $-1 #
coedge $-1 $376 $377 $147 $229 reversed $378 $-1 #
edge $-1 $379 -5.6004553470367124 $380 5.6004553470367124 $228 $381 forward 7 unknown #
loop $-1 $382 $383 $148 #
cone-surface $-1 0 0 0 0 0 1 0.5 0 0 1 I I -0.70710678118654746 0.70710678118654746 0.5 forward I I I I #
coedge $-1 $232 $232 $152 $234 forward $149 $-1 #
coedge $-1 $233 $233 $383 $384 forward $151 $-1 #
edge $-1 $385 0 $385 6.2831853071796004 $232 $386 forward 7 unknown #
face $-1 $387 $388 $50 $-1 $389 reversed single #
loop $-1 $-1 $390 $153 #
plane-surface $-1 0 -5.6004553470367124 0 0 1 0 0 0 1 forward_v I I I I #
coedge $-1 $391 $392 $393 $394 forward $154 $-1 #
coedge $-1 $395 $156 $396 $397 forward $99 $-1 #
coedge $-1 $156 $395 $398 $399 forward $99 $-1 #
coedge $-1 $400 $401 $156 $242 reversed $402 $-1 #
edge $-1 $403 -5.6004553470367124 $404 5.6004553470367124 $241 $405 forward 7 unknown #
loop $-1 $406 $407 $157 #
cone-surface $-1 0 0 0 0 0 1 0.5 0 0 1 I I -0.70710678118654746 0.70710678118654746 0.5 forward I I I I #
coedge $-1 $245 $245 $161 $247 forward $158 $-1 #
coedge $-1 $246 $246 $407 $408 forward $160 $-1 #
edge $-1 $409 0 $409 6.2831853071796004 $245 $410 forward 7 unknown #
face $-1 $411 $412 $39 $-1 $413 reversed single #
loop $-1 $-1 $414 $162 #
plane-surface $-1 -62.149113437299725 0 0 1 0 0 0 0 -1 forward_v I I I I #
coedge $-1 $415 $259 $416 $417 forward $163 $-1 #
coedge $-1 $418 $165 $415 $419 forward $105 $-1 #
coedge $-1 $165 $418 $420 $421 forward $105 $-1 #
coedge $-1 $262 $261 $165 $255 reversed $263 $-1 #
edge $-1 $422 -39.831992143397336 $423 39.831992143397336 $254 $424 forward 7 unknown #
coedge $-1 $167 $166 $425 $426 forward $66 $-1 #
coedge $-1 $427 $428 $166 $258 reversed $412 $-1 #
edge $-1 $265 -62.149113437299725 $429 62.149113437299725 $257 $430 forward 7 unknown #
coedge $-1 $251 $431 $167 $260 reversed $163 $-1 #
edge $-1 $432 -62.149113437299725 $264 62.149113437299725 $259 $433 forward 7 unknown #
coedge $-1 $254 $168 $431 $434 forward $263 $-1 #
coedge $-1 $168 $254 $427 $435 reversed $263 $-1 #
loop $-1 $-1 $261 $411 #
vertex $-1 $169 $436 #
vertex $-1 $169 $437 #
straight-curve $-1 62.149113437299725 0 13.750649907787336 0 1 0 I I #
face $-1 $438 $439 $40 $-1 $440 reversed single #
loop $-1 $-1 $441 $170 #
plane-surface $-1 -62.149113437299725 0 0 1 0 0 0 0 -1 forward_v I I I I #
coedge $-1 $442 $278 $443 $444 forward $171 $-1 #
coedge $-1 $445 $173 $442 $446 forward $109 $-1 #
coedge $-1 $173 $445 $447 $448 forward $109 $-1 #
coedge $-1 $281 $280 $173 $274 reversed $282 $-1 #
edge $-1 $449 -7.5392227984817239 $450 7.5392227984817239 $273 $451 forward 7 unknown #
coedge $-1 $175 $174 $452 $453 forward $69 $-1 #
coedge $-1 $454 $455 $174 $277 reversed $439 $-1 #
edge $-1 $284 -62.149113437299725 $456 62.149113437299725 $276 $457 forward 7 unknown #
coedge $-1 $270 $458 $175 $279 reversed $171 $-1 #
edge $-1 $459 -62.149113437299725 $283 62.149113437299725 $278 $460 forward 7 unknown #
coedge $-1 $273 $176 $458 $461 forward $282 $-1 #
coedge $-1 $176 $273 $454 $462 reversed $282 $-1 #
loop $-1 $-1 $280 $438 #
vertex $-1 $177 $463 #
vertex $-1 $177 $464 #
straight-curve $-1 62.149113437299725 0 2.6657384993816189 0 1 0 I I #
face $-1 $465 $466 $41 $-1 $467 reversed single #
loop $-1 $-1 $468 $178 #
plane-surface $-1 -248.5964537491989 0 0 1 0 0 0 0 -1 forward_v I I I I #
coedge $-1 $469 $297 $470 $471 forward $179 $-1 #
coedge $-1 $472 $181 $469 $473 forward $113 $-1 #
coedge $-1 $181 $472 $474 $475 forward $113 $-1 #
coedge $-1 $300 $299 $181 $293 reversed $301 $-1 #
edge $-1 $476 -9.4160224052286523 $477 9.4160224052286523 $292 $478 forward 7 unknown #
coedge $-1 $183 $182 $479 $480 forward $72 $-1 #
coedge $-1 $481 $482 $182 $296 reversed $466 $-1 #
edge $-1 $303 -248.5964537491989 $483 248.5964537491989 $295 $484 forward 7 unknown #
coedge $-1 $289 $485 $183 $298 reversed $179 $-1 #
edge $-1 $486 -248.5964537491989 $302 248.5964537491989 $297 $487 forward 7 unknown #
coedge $-1 $292 $184 $485 $488 forward $301 $-1 #
coedge $-1 $184 $292 $481 $489 reversed $301 $-1 #
loop $-1 $-1 $299 $465 #
vertex $-1 $185 $490 #
vertex $-1 $185 $491 #
straight-curve $-1 248.5964537491989 0 124.29822687459946 0 1 0 I I #
loop $-1 $-1 $492 $116 #
coedge $-1 $306 $306 $189 $307 reversed $186 $-1 #
edge $-1 $493 0 $493 6.2831853071796004 $306 $494 forward 7 unknown #
vertex $-1 $190 $495 #
ellipse-curve $-1 0 0 -11.193006683553573 0 0 -1 2.5 0 0 1 I I #
loop $-1 $-1 $496 $121 #
coedge $-1 $311 $311 $194 $312 reversed $191 $-1 #
edge $-1 $497 0 $497 6.2831853071796004 $311 $498 forward 7 unknown #
vertex $-1 $195 $499 #
ellipse-curve $-1 0 0 -11.193006683553573 0 0 -1 2.5 0 0 1 I I #
face $-1 $500 $501 $44 $-1 $502 reversed single #
loop $-1 $-1 $503 $196 #
plane-surface $-1 -248.5964537491989 0 0 1 0 0 0 0 -1 forward_v I I I I #
coedge $-1 $504 $326 $505 $506 forward $197 $-1 #
coedge $-1 $507 $199 $504 $508 forward $127 $-1 #
coedge $-1 $199 $507 $509 $510 forward $127 $-1 #
coedge $-1 $329 $328 $199 $322 reversed $330 $-1 #
edge $-1 $511 -5.6004553470367124 $512 5.6004553470367124 $321 $513 forward 7 unknown #
coedge $-1 $201 $200 $514 $515 forward $81 $-1 #
coedge $-1 $516 $517 $200 $325 reversed $501 $-1 #
edge $-1 $332 -248.5964537491989 $518 248.5964537491989 $324 $519 forward 7 unknown #
coedge $-1 $318 $520 $201 $327 reversed $197 $-1 #
edge $-1 $521 -248.5964537491989 $331 248.5964537491989 $326 $522 forward 7 unknown #
coedge $-1 $321 $202 $520 $523 forward $330 $-1 #
coedge $-1 $202 $321 $516 $524 reversed $330 $-1 #
loop $-1 $-1 $328 $500 #
vertex $-1 $203 $525 #
vertex $-1 $203 $526 #
straight-curve $-1 248.5964537491989 0 124.29822687459946 0 1 0 I I #
loop $-1 $-1 $527 $130 #
coedge $-1 $335 $335 $207 $336 reversed $204 $-1 #
edge $-1 $528 0 $528 6.2831853071796004 $335 $529 forward 7 unknown #
vertex $-1 $208 $530 #
ellipse-curve $-1 0 0 -1.6015350810266451 0 0 -1 1 0 0 1 I I #
face $-1 $531 $532 $46 $-1 $533 reversed single #
loop $-1 $-1 $534 $209 #
plane-surface $-1 -248.5964537491989 0 0 1 0 0 0 0 -1 forward_v I I I I #
coedge $-1 $535 $350 $536 $537 forward $210 $-1 #
coedge $-1 $538 $212 $535 $539 forward $136 $-1 #
coedge $-1 $212 $538 $540 $541 forward $136 $-1 #
coedge $-1 $353 $352 $212 $346 reversed $354 $-1 #
edge $-1 $542 -5.6004553470367124 $543 5.6004553470367124 $345 $544 forward 7 unknown #
coedge $-1 $214 $213 $545 $546 forward $87 $-1 #
coedge $-1 $547 $548 $213 $349 reversed $532 $-1 #
edge $-1 $356 -248.5964537491989 $549 248.5964537491989 $348 $550 forward 7 unknown #
coedge $-1 $342 $551 $214 $351 reversed $210 $-1 #
edge $-1 $552 -248.5964537491989 $355 248.5964537491989 $350 $553 forward 7 unknown #
coedge $-1 $345 $215 $551 $554 forward $354 $-1 #
coedge $-1 $215 $345 $547 $555 reversed $354 $-1 #
loop $-1 $-1 $352 $531 #
vertex $-1 $216 $556 #
vertex $-1 $216 $557 #
straight-curve $-1 248.5964537491989 0 124.29822687459946 0 1 0 I I #
loop $-1 $-1 $558 $139 #
coedge $-1 $359 $359 $220 $360 reversed $217 $-1 #
edge $-1 $559 0 $559 6.2831853071796004 $359 $560 forward 7 unknown #
vertex $-1 $221 $561 #
ellipse-curve $-1 0 0 -1.6015350810266451 0 0 -1 1 0 0 1 I I #
face $-1 $562 $563 $48 $-1 $564 reversed single #
loop $-1 $-1 $565 $222 #
plane-surface $-1 -248.5964537491989 0 0 1 0 0 0 0 -1 forward_v I I I I #
coedge $-1 $566 $374 $567 $568 forward $223 $-1 #
coedge $-1 $569 $225 $566 $570 forward $145 $-1 #
coedge $-1 $225 $569 $571 $572 forward $145 $-1 #
coedge $-1 $377 $376 $225 $370 reversed $378 $-1 #
edge $-1 $573 -5.6004553470367124 $574 5.6004553470367124 $369 $575 forward 7 unknown #
coedge $-1 $227 $226 $576 $577 forward $93 $-1 #
coedge $-1 $578 $579 $226 $373 reversed $563 $-1 #
edge $-1 $380 -248.5964537491989 $580 248.5964537491989 $372 $581 forward 7 unknown #
coedge $-1 $366 $582 $227 $375 reversed $223 $-1 #
edge $-1 $583 -248.5964537491989 $379 248.5964537491989 $374 $584 forward 7 unknown #
coedge $-1 $369 $228 $582 $585 forward $378 $-1 #
coedge $-1 $228 $369 $578 $586 reversed $378 $-1 #
loop $-1 $-1 $376 $562 #
vertex $-1 $229 $587 #
vertex $-1 $229 $588 #
straight-curve $-1 248.5964537491989 0 124.29822687459946 0 1 0 I I #
loop $-1 $-1 $589 $148 #
coedge $-1 $383 $383 $233 $384 reversed $230 $-1 #
edge $-1 $590 0 $590 6.2831853071796004 $383 $591 forward 7 unknown #
vertex $-1 $234 $592 #
ellipse-curve $-1 0 0 -1.6015350810266451 0 0 -1 1 0 0 1 I I #
face $-1 $593 $594 $50 $-1 $595 reversed single #
loop $-1 $-1 $596 $235 #
plane-surface $-1 -248.5964537491989 0 0 1 0 0 0 0 -1 forward_v I I I I #
coedge $-1 $597 $398 $598 $599 forward $236 $-1 #
coedge $-1 $600 $238 $597 $601 forward $154 $-1 #
coedge $-1 $238 $600 $602 $603 forward $154 $-1 #
coedge $-1 $401 $400 $238 $394 reversed $402 $-1 #
edge $-1 $604 -5.6004553470367124 $605 5.6004553470367124 $393 $606 forward 7 unknown #
coedge $-1 $240 $239 $607 $608 forward $99 $-1 #
coedge $-1 $609 $610 $239 $397 reversed $594 $-1 #
edge $-1 $404 -248.5964537491989 $611 248.5964537491989 $396 $612 forward 7 unknown #
coedge $-1 $390 $613 $240 $399 reversed $236 $-1 #
edge $-1 $614 -248.5964537491989 $403 248.5964537491989 $398 $615 forward 7 unknown #
coedge $-1 $393 $241 $613 $616 forward $402 $-1 #
coedge $-1 $241 $393 $609 $617 reversed $402 $-1 #
loop $-1 $-1 $400 $593 #
vertex $-1 $242 $618 #
vertex $-1 $242 $619 #
straight-curve $-1 248.5964537491989 0 124.29822687459946 0 1 0 I I #
loop $-1 $-1 $620 $157 #
coedge $-1 $407 $407 $246 $408 reversed $243 $-1 #
edge $-1 $621 0 $621 6.2831853071796004 $407 $622 forward 7 unknown #
vertex $-1 $247 $623 #
ellipse-curve $-1 0 0 -1.6015350810266451 0 0 -1 1 0 0 1 I I #
face $-1 $-1 $263 $39 $-1 $624 reversed single #
loop $-1 $-1 $427 $248 #
plane-surface $-1 0 39.831992143397336 0 0 -1 0 0 0 -1 forward_v I I I I #
coedge $-1 $625 $425 $428 $626 forward $249 $-1 #
coedge $-1 $431 $251 $252 $419 reversed $163 $-1 #
coedge $-1 $425 $625 $251 $417 reversed $249 $-1 #
edge $-1 $432 -13.750649907787336 $627 13.750649907787336 $416 $628 forward 7 unknown #
coedge $-1 $253 $252 $625 $629 forward $105 $-1 #
edge $-1 $423 -62.149113437299725 $627 62.149113437299725 $415 $630 forward 7 unknown #
coedge $-1 $428 $427 $253 $421 reversed $412 $-1 #
edge $-1 $631 -62.149113437299725 $422 62.149113437299725 $420 $632 forward 7 unknown #
vertex $-1 $255 $633 #
vertex $-1 $434 $634 #
straight-curve $-1 62.149113437299725 0 -13.750649907787336 0 -1 0 I I #
coedge $-1 $414 $416 $256 $426 reversed $249 $-1 #
edge $-1 $429 -39.831992143397336 $432 39.831992143397336 $425 $635 forward 7 unknown #
coedge $-1 $420 $257 $262 $435 forward $412 $-1 #
coedge $-1 $257 $420 $414 $626 reversed $412 $-1 #
vertex $-1 $258 $636 #
straight-curve $-1 0 39.831992143397336 13.750649907787336 -1 0 0 I I #
coedge $-1 $259 $415 $261 $434 reversed $163 $-1 #
vertex $-1 $426 $637 #
straight-curve $-1 0 -39.831992143397336 13.750649907787336 1 0 0 I I #
edge $-1 $264 -13.750649907787336 $423 13.750649907787336 $261 $638 forward 7 unknown #
edge $-1 $265 -13.750649907787336 $422 13.750649907787336 $262 $639 forward 7 unknown #
point $-1 62.149113437299725 -39.831992143397336 13.750649907787336 #
point $-1 62.149113437299725 39.831992143397336 13.750649907787336 #
face $-1 $-1 $282 $40 $-1 $640 reversed single #
loop $-1 $-1 $454 $267 #
plane-surface $-1 0 7.5392227984817239 0 0 -1 0 0 0 -1 forward_v I I I I #
coedge $-1 $641 $452 $455 $642 forward $268 $-1 #
coedge $-1 $458 $270 $271 $446 reversed $171 $-1 #
coedge $-1 $452 $641 $270 $444 reversed $268 $-1 #
edge $-1 $459 -2.6657384993816189 $643 2.6657384993816189 $443 $644 forward 7 unknown #
coedge $-1 $272 $271 $641 $645 forward $109 $-1 #
edge $-1 $450 -62.149113437299725 $643 62.149113437299725 $442 $646 forward 7 unknown #
coedge $-1 $455 $454 $272 $448 reversed $439 $-1 #
edge $-1 $647 -62.149113437299725 $449 62.149113437299725 $447 $648 forward 7 unknown #
vertex $-1 $274 $649 #
vertex $-1 $461 $650 #
straight-curve $-1 62.149113437299725 0 -2.6657384993816189 0 -1 0 I I #
coedge $-1 $441 $443 $275 $453 reversed $268 $-1 #
edge $-1 $456 -7.5392227984817239 $459 7.5392227984817239 $452 $651 forward 7 unknown #
coedge $-1 $447 $276 $281 $462 forward $439 $-1 #
coedge $-1 $276 $447 $441 $642 reversed $439 $-1 #
vertex $-1 $277 $652 #
straight-curve $-1 0 7.5392227984817239 2.6657384993816189 -1 0 0 I I #
coedge $-1 $278 $442 $280 $461 reversed $171 $-1 #
vertex $-1 $453 $653 #
straight-curve $-1 0 -7.5392227984817239 2.6657384993816189 1 0 0 I I #
edge $-1 $283 -2.6657384993816189 $450 2.6657384993816189 $280 $654 forward 7 unknown #
edge $-1 $284 -2.6657384993816189 $449 2.6657384993816189 $281 $655 forward 7 unknown #
point $-1 62.149113437299725 -7.5392227984817239 2.6657384993816189 #
point $-1 62.149113437299725 7.5392227984817239 2.6657384993816189 #
face $-1 $-1 $301 $41 $-1 $656 reversed single #
loop $-1 $-1 $481 $286 #
plane-surface $-1 0 9.4160224052286523 0 0 -1 0 0 0 -1 forward_v I I I I #
coedge $-1 $657 $479 $482 $658 forward $287 $-1 #
coedge $-1 $485 $289 $290 $473 reversed $179 $-1 #
coedge $-1 $479 $657 $289 $471 reversed $287 $-1 #
edge $-1 $486 -124.29822687459946 $659 124.29822687459946 $470 $660 forward 7 unknown #
coedge $-1 $291 $290 $657 $661 forward $113 $-1 #
edge $-1 $477 -248.5964537491989 $659 248.5964537491989 $469 $662 forward 7 unknown #
coedge $-1 $482 $481 $291 $475 reversed $466 $-1 #
edge $-1 $663 -248.5964537491989 $476 248.5964537491989 $474 $664 forward 7 unknown #
vertex $-1 $293 $665 #
vertex $-1 $488 $666 #
straight-curve $-1 248.5964537491989 0 -124.29822687459946 0 -1 0 I I #
coedge $-1 $468 $470 $294 $480 reversed $287 $-1 #
edge $-1 $483 -9.4160224052286523 $486 9.4160224052286523 $479 $667 forward 7 unknown #
coedge $-1 $474 $295 $300 $489 forward $466 $-1 #
coedge $-1 $295 $474 $468 $658 reversed $466 $-1 #
vertex $-1 $296 $668 #
straight-curve $-1 0 9.4160224052286523 124.29822687459946 -1 0 0 I I #
coedge $-1 $297 $469 $299 $488 reversed $179 $-1 #
vertex $-1 $480 $669 #
straight-curve $-1 0 -9.4160224052286523 124.29822687459946 1 0 0 I I #
edge $-1 $302 -124.29822687459946 $477 124.29822687459946 $299 $670 forward 7 unknown #
edge $-1 $303 -124.29822687459946 $476 124.29822687459946 $300 $671 forward 7 unknown #
point $-1 248.5964537491989 -9.4160224052286523 124.29822687459946 #
point $-1 248.5964537491989 9.4160224052286523 124.29822687459946 #
coedge $-1 $492 $492 $-1 $672 reversed $305 $-1 #
vertex $-1 $307 $673 #
ellipse-curve $-1 0 0 -1.25 0 0 -1 2.5 0 0 1 I I #
point $-1 2.5 0 -11.193006683553573 #
coedge $-1 $496 $496 $-1 $674 reversed $310 $-1 #
vertex $-1 $312 $675 #
ellipse-curve $-1 0 0 -1.25 0 0 -1 2.5 0 0 1 I I #
point $-1 2.5 0 -11.193006683553573 #
face $-1 $-1 $330 $44 $-1 $676 reversed single #
loop $-1 $-1 $516 $315 #
plane-surface $-1 0 5.6004553470367124 0 0 -1 0 0 0 -1 forward_v I I I I #
coedge $-1 $677 $514 $517 $678 forward $316 $-1 #
coedge $-1 $520 $318 $319 $508 reversed $197 $-1 #
coedge $-1 $514 $677 $318 $506 reversed $316 $-1 #
edge $-1 $521 -124.29822687459946 $679 124.29822687459946 $505 $680 forward 7 unknown #
coedge $-1 $320 $319 $677 $681 forward $127 $-1 #
edge $-1 $512 -248.5964537491989 $679 248.5964537491989 $504 $682 forward 7 unknown #
coedge $-1 $517 $516 $320 $510 reversed $501 $-1 #
edge $-1 $683 -248.5964537491989 $511 248.5964537491989 $509 $684 forward 7 unknown #
vertex $-1 $322 $685 #
vertex $-1 $523 $686 #
straight-curve $-1 248.5964537491989 0 -124.29822687459946 0 -1 0 I I #
coedge $-1 $503 $505 $323 $515 reversed $316 $-1 #
edge $-1 $518 -5.6004553470367124 $521 5.6004553470367124 $514 $687 forward 7 unknown #
coedge $-1 $509 $324 $329 $524 forward $501 $-1 #
coedge $-1 $324 $509 $503 $678 reversed $501 $-1 #
vertex $-1 $325 $688 #
straight-curve $-1 0 5.6004553470367124 124.29822687459946 -1 0 0 I I #
coedge $-1 $326 $504 $328 $523 reversed $197 $-1 #
vertex $-1 $515 $689 #
straight-curve $-1 0 -5.6004553470367124 124.29822687459946 1 0 0 I I #
edge $-1 $331 -124.29822687459946 $512 124.29822687459946 $328 $690 forward 7 unknown #
edge $-1 $332 -124.29822687459946 $511 124.29822687459946 $329 $691 forward 7 unknown #
point $-1 248.5964537491989 -5.6004553470367124 124.29822687459946 #
point $-1 248.5964537491989 5.6004553470367124 124.29822687459946 #
coedge $-1 $527 $527 $-1 $692 reversed $334 $-1 #
vertex $-1 $336 $693 #
ellipse-curve $-1 0 0 -0.5 0 0 -1 1 0 0 1 I I #
point $-1 1 0 -1.6015350810266451 #
face $-1 $-1 $354 $46 $-1 $694 reversed single #
loop $-1 $-1 $547 $339 #
plane-surface $-1 0 5.6004553470367124 0 0 -1 0 0 0 -1 forward_v I I I I #
coedge $-1 $695 $545 $548 $696 forward $340 $-1 #
coedge $-1 $551 $342 $343 $539 reversed $210 $-1 #
coedge $-1 $545 $695 $342 $537 reversed $340 $-1 #
edge $-1 $552 -124.29822687459946 $697 124.29822687459946 $536 $698 forward 7 unknown #
coedge $-1 $344 $343 $695 $699 forward $136 $-1 #
edge $-1 $543 -248.5964537491989 $697 248.5964537491989 $535 $700 forward 7 unknown #
coedge $-1 $548 $547 $344 $541 reversed $532 $-1 #
edge $-1 $701 -248.5964537491989 $542 248.5964537491989 $540 $702 forward 7 unknown #
vertex $-1 $346 $703 #
vertex $-1 $554 $704 #
straight-curve $-1 248.5964537491989 0 -124.29822687459946 0 -1 0 I I #
coedge $-1 $534 $536 $347 $546 reversed $340 $-1 #
edge $-1 $549 -5.6004553470367124 $552 5.6004553470367124 $545 $705 forward 7 unknown #
coedge $-1 $540 $348 $353 $555 forward $532 $-1 #
coedge $-1 $348 $540 $534 $696 reversed $532 $-1 #
vertex $-1 $349 $706 #
straight-curve $-1 0 5.6004553470367124 124.29822687459946 -1 0 0 I I #
coedge $-1 $350 $535 $352 $554 reversed $210 $-1 #
vertex $-1 $546 $707 #
straight-curve $-1 0 -5.6004553470367124 124.29822687459946 1 0 0 I I #
edge $-1 $355 -124.29822687459946 $543 124.29822687459946 $352 $708 forward 7 unknown #
edge $-1 $356 -124.29822687459946 $542 124.29822687459946 $353 $709 forward 7 unknown #
point $-1 248.5964537491989 -5.6004553470367124 124.29822687459946 #
point $-1 248.5964537491989 5.6004553470367124 124.29822687459946 #
coedge $-1 $558 $558 $-1 $710 reversed $358 $-1 #
vertex $-1 $360 $711 #
ellipse-curve $-1 0 0 -0.5 0 0 -1 1 0 0 1 I I #
point $-1 1 0 -1.6015350810266451 #
face $-1 $-1 $378 $48 $-1 $712 reversed single #
loop $-1 $-1 $578 $363 #
plane-surface $-1 0 5.6004553470367124 0 0 -1 0 0 0 -1 forward_v I I I I #
coedge $-1 $713 $576 $579 $714 forward $364 $-1 #
coedge $-1 $582 $366 $367 $570 reversed $223 $-1 #
coedge $-1 $576 $713 $366 $568 reversed $364 $-1 #
edge $-1 $583 -124.29822687459946 $715 124.29822687459946 $567 $716 forward 7 unknown #
coedge $-1 $368 $367 $713 $717 forward $145 $-1 #
edge $-1 $574 -248.5964537491989 $715 248.5964537491989 $566 $718 forward 7 unknown #
coedge $-1 $579 $578 $368 $572 reversed $563 $-1 #
edge $-1 $719 -248.5964537491989 $573 248.5964537491989 $571 $720 forward 7 unknown #
vertex $-1 $370 $721 #
vertex $-1 $585 $722 #
straight-curve $-1 248.5964537491989 0 -124.29822687459946 0 -1 0 I I #
coedge $-1 $565 $567 $371 $577 reversed $364 $-1 #
edge $-1 $580 -5.6004553470367124 $583 5.6004553470367124 $576 $723 forward 7 unknown #
coedge $-1 $571 $372 $377 $586 forward $563 $-1 #
coedge $-1 $372 $571 $565 $714 reversed $563 $-1 #
vertex $-1 $373 $724 #
straight-curve $-1 0 5.6004553470367124 124.29822687459946 -1 0 0 I I #
coedge $-1 $374 $566 $376 $585 reversed $223 $-1 #
vertex $-1 $577 $725 #
straight-curve $-1 0 -5.6004553470367124 124.29822687459946 1 0 0 I I #
edge $-1 $379 -124.29822687459946 $574 124.29822687459946 $376 $726 forward 7 unknown #
edge $-1 $380 -124.29822687459946 $573 124.29822687459946 $377 $727 forward 7 unknown #
point $-1 248.5964537491989 -5.6004553470367124 124.29822687459946 #
point $-1 248.5964537491989 5.6004553470367124 124.29822687459946 #
coedge $-1 $589 $589 $-1 $728 reversed $382 $-1 #
vertex $-1 $384 $729 #
ellipse-curve $-1 0 0 -0.5 0 0 -1 1 0 0 1 I I #
point $-1 1 0 -1.6015350810266451 #
face $-1 $-1 $402 $50 $-1 $730 reversed single #
loop $-1 $-1 $609 $387 #
plane-surface $-1 0 5.6004553470367124 0 0 -1 0 0 0 -1 forward_v I I I I #
coedge $-1 $731 $607 $610 $732 forward $388 $-1 #
coedge $-1 $613 $390 $391 $601 reversed $236 $-1 #
coedge $-1 $607 $731 $390 $599 reversed $388 $-1 #
edge $-1 $614 -124.29822687459946 $733 124.29822687459946 $598 $734 forward 7 unknown #
coedge $-1 $392 $391 $731 $735 forward $154 $-1 #
edge $-1 $605 -248.5964537491989 $733 248.5964537491989 $597 $736 forward 7 unknown #
coedge $-1 $610 $609 $392 $603 reversed $594 $-1 #
edge $-1 $737 -248.5964537491989 $604 248.5964537491989 $602 $738 forward 7 unknown #
vertex $-1 $394 $739 #
vertex $-1 $616 $740 #
straight-curve $-1 248.5964537491989 0 -124.29822687459946 0 -1 0 I I #
coedge $-1 $596 $598 $395 $608 reversed $388 $-1 #
edge $-1 $611 -5.6004553470367124 $614 5.6004553470367124 $607 $741 forward 7 unknown #
coedge $-1 $602 $396 $401 $617 forward $594 $-1 #
coedge $-1 $396 $602 $596 $732 reversed $594 $-1 #
vertex $-1 $397 $742 #
straight-curve $-1 0 5.6004553470367124 124.29822687459946 -1 0 0 I I #
coedge $-1 $398 $597 $400 $616 reversed $236 $-1 #
vertex $-1 $608 $743 #
straight-curve $-1 0 -5.6004553470367124 124.29822687459946 1 0 0 I I #
edge $-1 $403 -124.29822687459946 $605 124.29822687459946 $400 $744 forward 7 unknown #
edge $-1 $404 -124.29822687459946 $604 124.29822687459946 $401 $745 forward 7 unknown #
point $-1 248.5964537491989 -5.6004553470367124 124.29822687459946 #
point $-1 248.5964537491989 5.6004553470367124 124.29822687459946 #
coedge $-1 $620 $620 $-1 $746 reversed $406 $-1 #
vertex $-1 $408 $747 #
ellipse-curve $-1 0 0 -0.5 0 0 -1 1 0 0 1 I I #
point $-1 1 0 -1.6015350810266451 #
plane-surface $-1 62.149113437299725 0 0 -1 0 0 0 0 1 forward_v I I I I #
coedge $-1 $416 $414 $418 $629 reversed $249 $-1 #
edge $-1 $429 -13.750649907787336 $631 13.750649907787336 $428 $748 forward 7 unknown #
vertex $-1 $629 $749 #
straight-curve $-1 -62.149113437299725 -39.831992143397336 0 0 0 -1 I I #
edge $-1 $627 -39.831992143397336 $631 39.831992143397336 $625 $750 forward 7 unknown #
straight-curve $-1 0 -39.831992143397336 -13.750649907787336 -1 0 0 I I #
vertex $-1 $421 $751 #
straight-curve $-1 0 39.831992143397336 -13.750649907787336 1 0 0 I I #
point $-1 62.149113437299725 39.831992143397336 -13.750649907787336 #
point $-1 62.149113437299725 -39.831992143397336 -13.750649907787336 #
straight-curve $-1 -62.149113437299725 0 13.750649907787336 0 -1 0 I I #
point $-1 -62.149113437299725 39.831992143397336 13.750649907787336 #
point $-1 -62.149113437299725 -39.831992143397336 13.750649907787336 #
straight-curve $-1 62.149113437299725 -39.831992143397336 0 0 0 -1 I I #
straight-curve $-1 62.149113437299725 39.831992143397336 0 0 0 -1 I I #
plane-surface $-1 62.149113437299725 0 0 -1 0 0 0 0 1 forward_v I I I I #
coedge $-1 $443 $441 $445 $645 reversed $268 $-1 #
edge $-1 $456 -2.6657384993816189 $647 2.6657384993816189 $455 $752 forward 7 unknown #
vertex $-1 $645 $753 #
straight-curve $-1 -62.149113437299725 -7.5392227984817239 0 0 0 -1 I I #
edge $-1 $643 -7.5392227984817239 $647 7.5392227984817239 $641 $754 forward 7 unknown #
straight-curve $-1 0 -7.5392227984817239 -2.6657384993816189 -1 0 0 I I #
vertex $-1 $448 $755 #
straight-curve $-1 0 7.5392227984817239 -2.6657384993816189 1 0 0 I I #
point $-1 62.149113437299725 7.5392227984817239 -2.6657384993816189 #
point $-1 62.149113437299725 -7.5392227984817239 -2.6657384993816189 #
straight-curve $-1 -62.149113437299725 0 2.6657384993816189 0 -1 0 I I #
point $-1 -62.149113437299725 7.5392227984817239 2.6657384993816189 #
point $-1 -62.149113437299725 -7.5392227984817239 2.6657384993816189 #
straight-curve $-1 62.149113437299725 -7.5392227984817239 0 0 0 -1 I I #
straight-curve $-1 62.149113437299725 7.5392227984817239 0 0 0 -1 I I #
plane-surface $-1 248.5964537491989 0 0 -1 0 0 0 0 1 forward_v I I I I #
coedge $-1 $470 $468 $472 $661 reversed $287 $-1 #
edge $-1 $483 -124.29822687459946 $663 124.29822687459946 $482 $756 forward 7 unknown #
vertex $-1 $661 $757 #
straight-curve $-1 -248.5964537491989 -9.4160224052286523 0 0 0 -1 I I #
edge $-1 $659 -9.4160224052286523 $663 9.4160224052286523 $657 $758 forward 7 unknown #
straight-curve $-1 0 -9.4160224052286523 -124.29822687459946 -1 0 0 I I #
vertex $-1 $475 $759 #
straight-curve $-1 0 9.4160224052286523 -124.29822687459946 1 0 0 I I #
point $-1 248.5964537491989 9.4160224052286523 -124.29822687459946 #
point $-1 248.5964537491989 -9.4160224052286523 -124.29822687459946 #
straight-curve $-1 -248.5964537491989 0 124.29822687459946 0 -1 0 I I #
point $-1 -248.5964537491989 9.4160224052286523 124.29822687459946 #
point $-1 -248.5964537491989 -9.4160224052286523 124.29822687459946 #
straight-curve $-1 248.5964537491989 -9.4160224052286523 0 0 0 -1 I I #
straight-curve $-1 248.5964537491989 9.4160224052286523 0 0 0 -1 I I #
edge $-1 $760 1 $760 0 $492 $-1 forward 7 unknown #
point $-1 2.5 0 -1.25 #
edge $-1 $761 1 $761 0 $496 $-1 forward 7 unknown #
point $-1 2.5 0 -1.25 #
plane-surface $-1 248.5964537491989 0 0 -1 0 0 0 0 1 forward_v I I I I #
coedge $-1 $505 $503 $507 $681 reversed $316 $-1 #
edge $-1 $518 -124.29822687459946 $683 124.29822687459946 $517 $762 forward 7 unknown #
vertex $-1 $681 $763 #
straight-curve $-1 -248.5964537491989 -5.6004553470367124 0 0 0 -1 I I #
edge $-1 $679 -5.6004553470367124 $683 5.6004553470367124 $677 $764 forward 7 unknown #
straight-curve $-1 0 -5.6004553470367124 -124.29822687459946 -1 0 0 I I #
vertex $-1 $510 $765 #
straight-curve $-1 0 5.6004553470367124 -124.29822687459946 1 0 0 I I #
point $-1 248.5964537491989 5.6004553470367124 -124.29822687459946 #
point $-1 248.5964537491989 -5.6004553470367124 -124.29822687459946 #
straight-curve $-1 -248.5964537491989 0 124.29822687459946 0 -1 0 I I #
point $-1 -248.5964537491989 5.6004553470367124 124.29822687459946 #
point $-1 -248.5964537491989 -5.6004553470367124 124.29822687459946 #
straight-curve $-1 248.5964537491989 -5.6004553470367124 0 0 0 -1 I I #
straight-curve $-1 248.5964537491989 5.6004553470367124 0 0 0 -1 I I #
edge $-1 $766 1 $766 0 $527 $-1 forward 7 unknown #
point $-1 1 0 -0.5 #
plane-surface $-1 248.5964537491989 0 0 -1 0 0 0 0 1 forward_v I I I I #
coedge $-1 $536 $534 $538 $699 reversed $340 $-1 #
edge $-1 $549 -124.29822687459946 $701 124.29822687459946 $548 $767 forward 7 unknown #
vertex $-1 $699 $768 #
straight-curve $-1 -248.5964537491989 -5.6004553470367124 0 0 0 -1 I I #
edge $-1 $697 -5.6004553470367124 $701 5.6004553470367124 $695 $769 forward 7 unknown #
straight-curve $-1 0 -5.6004553470367124 -124.29822687459946 -1 0 0 I I #
vertex $-1 $541 $770 #
straight-curve $-1 0 5.6004553470367124 -124.29822687459946 1 0 0 I I #
point $-1 248.5964537491989 5.6004553470367124 -124.29822687459946 #
point $-1 248.5964537491989 -5.6004553470367124 -124.29822687459946 #
straight-curve $-1 -248.5964537491989 0 124.29822687459946 0 -1 0 I I #
point $-1 -248.5964537491989 5.6004553470367124 124.29822687459946 #
point $-1 -248.5964537491989 -5.6004553470367124 124.29822687459946 #
straight-curve $-1 248.5964537491989 -5.6004553470367124 0 0 0 -1 I I #
straight-curve $-1 248.5964537491989 5.6004553470367124 0 0 0 -1 I I #
edge $-1 $771 1 $771 0 $558 $-1 forward 7 unknown #
point $-1 1 0 -0.5 #
plane-surface $-1 248.5964537491989 0 0 -1 0 0 0 0 1 forward_v I I I I #
coedge $-1 $567 $565 $569 $717 reversed $364 $-1 #
edge $-1 $580 -124.29822687459946 $719 124.29822687459946 $579 $772 forward 7 unknown #
vertex $-1 $717 $773 #
straight-curve $-1 -248.5964537491989 -5.6004553470367124 0 0 0 -1 I I #
edge $-1 $715 -5.6004553470367124 $719 5.6004553470367124 $713 $774 forward 7 unknown #
straight-curve $-1 0 -5.6004553470367124 -124.29822687459946 -1 0 0 I I #
vertex $-1 $572 $775 #
straight-curve $-1 0 5.6004553470367124 -124.29822687459946 1 0 0 I I #
point $-1 248.5964537491989 5.6004553470367124 -124.29822687459946 #
point $-1 248.5964537491989 -5.6004553470367124 -124.29822687459946 #
straight-curve $-1 -248.5964537491989 0 124.29822687459946 0 -1 0 I I #
point $-1 -248.5964537491989 5.6004553470367124 124.29822687459946 #
point $-1 -248.5964537491989 -5.6004553470367124 124.29822687459946 #
straight-curve $-1 248.5964537491989 -5.6004553470367124 0 0 0 -1 I I #
straight-curve $-1 248.5964537491989 5.6004553470367124 0 0 0 -1 I I #
edge $-1 $776 1 $776 0 $589 $-1 forward 7 unknown #
point $-1 1 0 -0.5 #
plane-surface $-1 248.5964537491989 0 0 -1 0 0 0 0 1 forward_v I I I I #
coedge $-1 $598 $596 $600 $735 reversed $388 $-1 #
edge $-1 $611 -124.29822687459946 $737 124.29822687459946 $610 $777 forward 7 unknown #
vertex $-1 $735 $778 #
straight-curve $-1 -248.5964537491989 -5.6004553470367124 0 0 0 -1 I I #
edge $-1 $733 -5.6004553470367124 $737 5.6004553470367124 $731 $779 forward 7 unknown #
straight-curve $-1 0 -5.6004553470367124 -124.29822687459946 -1 0 0 I I #
vertex $-1 $603 $780 #
straight-curve $-1 0 5.6004553470367124 -124.29822687459946 1 0 0 I I #
point $-1 248.5964537491989 5.6004553470367124 -124.29822687459946 #
point $-1 248.5964537491989 -5.6004553470367124 -124.29822687459946 #
straight-curve $-1 -248.5964537491989 0 124.29822687459946 0 -1 0 I I #
point $-1 -248.5964537491989 5.6004553470367124 124.29822687459946 #
point $-1 -248.5964537491989 -5.6004553470367124 124.29822687459946 #
straight-curve $-1 248.5964537491989 -5.6004553470367124 0 0 0 -1 I I #
straight-curve $-1 248.5964537491989 5.6004553470367124 0 0 0 -1 I I #
edge $-1 $781 1 $781 0 $620 $-1 forward 7 unknown #
point $-1 1 0 -0.5 #
straight-curve $-1 -62.149113437299725 39.831992143397336 0 0 0 -1 I I #
point $-1 -62.149113437299725 -39.831992143397336 -13.750649907787336 #
straight-curve $-1 -62.149113437299725 0 -13.750649907787336 0 1 0 I I #
point $-1 -62.149113437299725 39.831992143397336 -13.750649907787336 #
straight-curve $-1 -62.149113437299725 7.5392227984817239 0 0 0 -1 I I #
point $-1 -62.149113437299725 -7.5392227984817239 -2.6657384993816189 #
straight-curve $-1 -62.149113437299725 0 -2.6657384993816189 0 1 0 I I #
point $-1 -62.149113437299725 7.5392227984817239 -2.6657384993816189 #
straight-curve $-1 -248.5964537491989 9.4160224052286523 0 0 0 -1 I I #
point $-1 -248.5964537491989 -9.4160224052286523 -124.29822687459946 #
straight-curve $-1 -248.5964537491989 0 -124.29822687459946 0 1 0 I I #
point $-1 -248.5964537491989 9.4160224052286523 -124.29822687459946 #
vertex $-1 $672 $782 #
vertex $-1 $674 $783 #
straight-curve $-1 -248.5964537491989 5.6004553470367124 0 0 0 -1 I I #
point $-1 -248.5964537491989 -5.6004553470367124 -124.29822687459946 #
straight-curve $-1 -248.5964537491989 0 -124.29822687459946 0 1 0 I I #
point $-1 -248.5964537491989 5.6004553470367124 -124.29822687459946 #
vertex $-1 $692 $784 #
straight-curve $-1 -248.5964537491989 5.6004553470367124 0 0 0 -1 I I #
point $-1 -248.5964537491989 -5.6004553470367124 -124.29822687459946 #
straight-curve $-1 -248.5964537491989 0 -124.29822687459946 0 1 0 I I #
point $-1 -248.5964537491989 5.6004553470367124 -124.29822687459946 #
vertex $-1 $710 $785 #
straight-curve $-1 -248.5964537491989 5.6004553470367124 0 0 0 -1 I I #
point $-1 -248.5964537491989 -5.6004553470367124 -124.29822687459946 #
straight-curve $-1 -248.5964537491989 0 -124.29822687459946 0 1 0 I I #
point $-1 -248.5964537491989 5.6004553470367124 -124.29822687459946 #
vertex $-1 $728 $786 #
straight-curve $-1 -248.5964537491989 5.6004553470367124 0 0 0 -1 I I #
point $-1 -248.5964537491989 -5.6004553470367124 -124.29822687459946 #
straight-curve $-1 -248.5964537491989 0 -124.29822687459946 0 1 0 I I #
point $-1 -248.5964537491989 5.6004553470367124 -124.29822687459946 #
vertex $-1 $746 $787 #
point $-1 0 0 1.25 #
point $-1 0 0 1.25 #
point $-1 0 0 0.5 #
point $-1 0 0 0.5 #
point $-1 0 0 0.5 #
point $-1 0 0 0.5 #
End-of-ACIS-data 