500 0 8 0           
7 Unknown 11 ACIS 5.0 NT 24 Fri Mar 26 20:36:31 1999 
-1 9.9999999999999995e-007 1e-010 
body $-1 $8 $-1 $9 #
body $-1 $10 $-1 $11 #
body $-1 $12 $-1 $13 #
body $-1 $14 $-1 $15 #
body $-1 $16 $-1 $17 #
body $-1 $18 $-1 $19 #
body $-1 $20 $-1 $21 #
body $-1 $22 $-1 $23 #
lump $-1 $-1 $24 $0 #
transform $-1 1 0 0 0 1 0 0 0 1 77.715994750816378 48.904604698781796 24.255740673350079 1 rotate no_reflect no_shear #
lump $-1 $-1 $25 $1 #
transform $-1 1 0 0 0 1 0 0 0 1 77.715994750816378 48.904604698781796 24.255740673350079 1 rotate no_reflect no_shear #
lump $-1 $-1 $26 $2 #
transform $-1 1 0 0 0 1 0 0 0 1 77.715994750816378 48.904604698781796 24.255740673350079 1 rotate no_reflect no_shear #
lump $-1 $-1 $27 $3 #
transform $-1 1 0 0 0 1 0 0 0 1 77.715994750816378 48.904604698781796 24.255740673350079 1 rotate no_reflect no_shear #
lump $-1 $-1 $28 $4 #
transform $-1 1 0 0 0 1 0 0 0 1 77.715994750816378 48.904604698781796 24.255740673350079 1 rotate no_reflect no_shear #
lump $-1 $-1 $29 $5 #
transform $-1 1 0 0 0 1 0 0 0 1 77.715994750816378 48.904604698781796 24.255740673350079 1 rotate no_reflect no_shear #
lump $-1 $-1 $30 $6 #
transform $-1 1 0 0 0 1 0 0 0 1 77.715994750816378 48.904604698781796 24.255740673350079 1 rotate no_reflect no_shear #
lump $-1 $-1 $31 $7 #
transform $-1 1 0 0 0 1 0 0 0 1 77.715994750816378 48.904604698781796 24.255740673350079 1 rotate no_reflect no_shear #
shell $-1 $-1 $-1 $32 $-1 $8 #
shell $-1 $-1 $-1 $33 $-1 $10 #
shell $-1 $-1 $-1 $34 $-1 $12 #
shell $-1 $-1 $-1 $35 $-1 $14 #
shell $-1 $-1 $-1 $36 $-1 $16 #
shell $-1 $-1 $-1 $37 $-1 $18 #
shell $-1 $-1 $-1 $38 $-1 $20 #
shell $-1 $-1 $-1 $39 $-1 $22 #
face $-1 $40 $41 $24 $-1 $42 forward single #
face $-1 $43 $44 $25 $-1 $45 reversed single #
face $-1 $46 $47 $26 $-1 $48 reversed single #
face $-1 $49 $50 $27 $-1 $51 forward single #
face $-1 $52 $53 $28 $-1 $54 forward single #
face $-1 $55 $56 $29 $-1 $57 reversed single #
face $-1 $58 $59 $30 $-1 $60 forward single #
face $-1 $61 $62 $31 $-1 $63 forward single #
face $-1 $64 $65 $24 $-1 $66 reversed single #
loop $-1 $-1 $67 $32 #
plane-surface $-1 0 0 24.255740673350079 0 0 1 1 0 0 forward_v I I I I #
face $-1 $68 $69 $25 $-1 $70 reversed single #
loop $-1 $-1 $71 $33 #
plane-surface $-1 -72.511821843444537 -21.421881529867633 0 0 -1 0 0 0 -1 forward_v I I I I #
face $-1 $72 $73 $26 $-1 $74 reversed single #
loop $-1 $-1 $75 $34 #
plane-surface $-1 -74.347033921905876 54.733562277046047 201.08476616883181 1 0 0 0 -0.55919291073839883 -0.82903756765294845 forward_v I I I I #
face $-1 $76 $77 $27 $-1 $78 forward single #
loop $-1 $79 $80 $35 #
cone-surface $-1 -64.968284928355956 42.159708177509827 18.283742202507728 0 -0.55919291073839883 -0.82903756765294845 3 0 0 1 I I 0 1 3 forward I I I I #
face $-1 $81 $82 $28 $-1 $83 forward single #
loop $-1 $84 $85 $36 #
cone-surface $-1 -50.900161438031105 42.159708177509827 18.283742202507728 0 -0.55919291073839883 -0.82903756765294845 3 0 0 1 I I 0 1 3 forward I I I I #
face $-1 $86 $87 $29 $-1 $88 reversed single #
loop $-1 $-1 $89 $37 #
plane-surface $-1 3.3689608289105095 54.733562277046047 201.08476616883181 1 0 0 0 -0.55919291073839883 -0.82903756765294845 forward_v I I I I #
face $-1 $90 $91 $30 $-1 $92 forward single #
loop $-1 $93 $94 $38 #
cone-surface $-1 12.747709822460422 42.159708177509827 18.283742202507728 0 -0.55919291073839883 -0.82903756765294845 3 0 0 1 I I 0 1 3 forward I I I I #
face $-1 $95 $96 $31 $-1 $97 forward single #
loop $-1 $98 $99 $39 #
cone-surface $-1 26.815833312785273 42.159708177509827 18.283742202507728 0 -0.55919291073839883 -0.82903756765294845 3 0 0 1 I I 0 1 3 forward I I I I #
face $-1 $100 $101 $24 $-1 $102 reversed single #
loop $-1 $-1 $103 $40 #
plane-surface $-1 0 0 -24.255740673350079 0 0 1 1 0 0 forward_v I I I I #
coedge $-1 $104 $105 $106 $107 forward $41 $-1 #
face $-1 $108 $109 $25 $-1 $110 forward single #
loop $-1 $-1 $111 $43 #
plane-surface $-1 -67.307648936072695 -35.163243114324715 0 -1 0 0 0 0 1 forward_v I I I I #
coedge $-1 $112 $113 $114 $115 forward $44 $-1 #
face $-1 $116 $117 $26 $-1 $118 reversed single #
loop $-1 $-1 $119 $46 #
plane-surface $-1 -57.934223183193538 -32.182904354232221 72.225807656939566 0 0.55919291073839883 0.82903756765294845 1 0 0 forward_v I I I I #
coedge $-1 $120 $121 $122 $123 reversed $47 $-1 #
face $-1 $-1 $124 $27 $-1 $125 forward single #
loop $-1 $126 $127 $49 #
cone-surface $-1 -64.968284928355956 39.560503005645842 14.430262138413784 0 -0.55919291073839883 -0.82903756765294845 1.5 0 0 1 I I -0.70710678118654757 0.70710678118654757 1.5 forward I I I I #
loop $-1 $-1 $128 $35 #
coedge $-1 $80 $80 $129 $130 reversed $50 $-1 #
face $-1 $-1 $131 $28 $-1 $132 forward single #
loop $-1 $133 $134 $52 #
cone-surface $-1 -50.900161438031105 39.560503005645842 14.430262138413784 0 -0.55919291073839883 -0.82903756765294845 1.5 0 0 1 I I -0.70710678118654757 0.70710678118654757 1.5 forward I I I I #
loop $-1 $-1 $135 $36 #
coedge $-1 $85 $85 $136 $137 reversed $53 $-1 #
face $-1 $138 $139 $29 $-1 $140 reversed single #
loop $-1 $-1 $141 $55 #
plane-surface $-1 19.78177156762284 -32.182904354232221 72.225807656939566 0 0.55919291073839883 0.82903756765294845 1 0 0 forward_v I I I I #
coedge $-1 $142 $143 $144 $145 reversed $56 $-1 #
face $-1 $-1 $146 $30 $-1 $147 forward single #
loop $-1 $148 $149 $58 #
cone-surface $-1 12.747709822460422 39.560503005645842 14.430262138413784 0 -0.55919291073839883 -0.82903756765294845 1.5 0 0 1 I I -0.70710678118654757 0.70710678118654757 1.5 forward I I I I #
loop $-1 $-1 $150 $38 #
coedge $-1 $94 $94 $151 $152 reversed $59 $-1 #
face $-1 $-1 $153 $31 $-1 $154 forward single #
loop $-1 $155 $156 $61 #
cone-surface $-1 26.815833312785273 39.560503005645842 14.430262138413784 0 -0.55919291073839883 -0.82903756765294845 1.5 0 0 1 I I -0.70710678118654757 0.70710678118654757 1.5 forward I I I I #
loop $-1 $-1 $157 $39 #
coedge $-1 $99 $99 $158 $159 reversed $62 $-1 #
face $-1 $160 $161 $24 $-1 $162 reversed single #
loop $-1 $-1 $163 $64 #
plane-surface $-1 0 -48.904604698781796 0 0 1 0 0 0 1 forward_v I I I I #
coedge $-1 $164 $165 $166 $167 forward $65 $-1 #
coedge $-1 $168 $67 $169 $170 forward $41 $-1 #
coedge $-1 $67 $168 $171 $172 forward $41 $-1 #
coedge $-1 $173 $174 $67 $107 reversed $175 $-1 #
edge $-1 $176 -48.904604698781796 $177 48.904604698781796 $106 $178 forward 7 unknown #
face $-1 $179 $180 $25 $-1 $181 reversed single #
loop $-1 $-1 $182 $68 #
plane-surface $-1 0 0 24.255740673350079 0 0 1 1 0 0 forward_v I I I I #
coedge $-1 $183 $184 $185 $186 reversed $69 $-1 #
coedge $-1 $187 $71 $188 $189 reversed $44 $-1 #
coedge $-1 $71 $187 $190 $191 reversed $44 $-1 #
coedge $-1 $184 $183 $71 $115 reversed $69 $-1 #
edge $-1 $192 -24.255740673350079 $193 24.255740673350079 $114 $194 forward 7 unknown #
face $-1 $195 $196 $26 $-1 $197 reversed single #
loop $-1 $-1 $198 $72 #
plane-surface $-1 -41.521412444481207 54.733562277046047 201.08476616883181 -1 0 0 0 0.55919291073839883 0.82903756765294845 forward_v I I I I #
coedge $-1 $199 $200 $201 $202 reversed $73 $-1 #
coedge $-1 $121 $75 $203 $204 reversed $47 $-1 #
coedge $-1 $75 $120 $199 $205 reversed $47 $-1 #
coedge $-1 $201 $206 $75 $123 forward $207 $-1 #
edge $-1 $208 -21.537823560258772 $209 -11.568862129227639 $122 $210 forward 7 unknown #
loop $-1 $-1 $129 $76 #
plane-surface $-1 -57.934223183193538 -32.182904354232221 72.225807656939566 0 0.55919291073839883 0.82903756765294845 1 0 0 forward_v I I I I #
loop $-1 $-1 $211 $49 #
coedge $-1 $127 $127 $128 $212 reversed $77 $-1 #
coedge $-1 $128 $128 $127 $212 forward $79 $-1 #
coedge $-1 $129 $129 $80 $130 forward $124 $-1 #
edge $-1 $213 4.619379701698703e-017 $213 6.2831853071796004 $129 $214 forward 7 unknown #
loop $-1 $-1 $136 $81 #
plane-surface $-1 -57.934223183193538 -32.182904354232221 72.225807656939566 0 0.55919291073839883 0.82903756765294845 1 0 0 forward_v I I I I #
loop $-1 $-1 $215 $52 #
coedge $-1 $134 $134 $135 $216 reversed $82 $-1 #
coedge $-1 $135 $135 $134 $216 forward $84 $-1 #
coedge $-1 $136 $136 $85 $137 forward $131 $-1 #
edge $-1 $217 4.619379701698703e-017 $217 6.2831853071796004 $136 $218 forward 7 unknown #
face $-1 $219 $220 $29 $-1 $221 forward single #
loop $-1 $-1 $222 $86 #
plane-surface $-1 36.194582306335171 54.733562277046047 201.08476616883181 -1 0 0 0 0.55919291073839883 0.82903756765294845 forward_v I I I I #
coedge $-1 $223 $224 $225 $226 reversed $87 $-1 #
coedge $-1 $143 $89 $227 $228 reversed $56 $-1 #
coedge $-1 $89 $142 $223 $229 reversed $56 $-1 #
coedge $-1 $225 $230 $89 $145 forward $220 $-1 #
edge $-1 $231 -21.537823560258772 $232 -11.568862129227639 $144 $233 forward 7 unknown #
loop $-1 $-1 $151 $90 #
plane-surface $-1 19.78177156762284 -32.182904354232221 72.225807656939566 0 0.55919291073839883 0.82903756765294845 1 0 0 forward_v I I I I #
loop $-1 $-1 $234 $58 #
coedge $-1 $149 $149 $150 $235 reversed $91 $-1 #
coedge $-1 $150 $150 $149 $235 forward $93 $-1 #
coedge $-1 $151 $151 $94 $152 forward $146 $-1 #
edge $-1 $236 4.619379701698703e-017 $236 6.2831853071796004 $151 $237 forward 7 unknown #
loop $-1 $-1 $158 $95 #
plane-surface $-1 19.78177156762284 -32.182904354232221 72.225807656939566 0 0.55919291073839883 0.82903756765294845 1 0 0 forward_v I I I I #
loop $-1 $-1 $238 $61 #
coedge $-1 $156 $156 $157 $239 reversed $96 $-1 #
coedge $-1 $157 $157 $156 $239 forward $98 $-1 #
coedge $-1 $158 $158 $99 $159 forward $153 $-1 #
edge $-1 $240 4.619379701698703e-017 $240 6.2831853071796004 $158 $241 forward 7 unknown #
face $-1 $242 $243 $24 $-1 $244 reversed single #
loop $-1 $-1 $245 $100 #
plane-surface $-1 -77.715994750816378 0 0 1 0 0 0 0 -1 forward_v I I I I #
coedge $-1 $246 $171 $247 $248 forward $101 $-1 #
coedge $-1 $249 $103 $246 $250 forward $65 $-1 #
coedge $-1 $103 $249 $251 $252 forward $65 $-1 #
coedge $-1 $174 $173 $103 $167 reversed $175 $-1 #
edge $-1 $253 -48.904604698781796 $254 48.904604698781796 $166 $255 forward 7 unknown #
coedge $-1 $105 $104 $256 $257 forward $41 $-1 #
coedge $-1 $258 $259 $104 $170 reversed $243 $-1 #
edge $-1 $177 -77.715994750816378 $260 77.715994750816378 $169 $261 forward 7 unknown #
coedge $-1 $163 $262 $105 $172 reversed $101 $-1 #
edge $-1 $263 -77.715994750816378 $176 77.715994750816378 $171 $264 forward 7 unknown #
coedge $-1 $166 $106 $262 $265 forward $175 $-1 #
coedge $-1 $106 $166 $258 $266 reversed $175 $-1 #
loop $-1 $-1 $173 $242 #
vertex $-1 $107 $267 #
vertex $-1 $107 $268 #
straight-curve $-1 77.715994750816378 0 24.255740673350079 0 1 0 I I #
face $-1 $269 $270 $25 $-1 $271 reversed single #
loop $-1 $-1 $272 $108 #
plane-surface $-1 -77.715994750816378 0 0 1 0 0 0 0 -1 forward_v I I I I #
coedge $-1 $190 $273 $184 $274 forward $109 $-1 #
coedge $-1 $114 $111 $275 $276 reversed $69 $-1 #
coedge $-1 $111 $114 $182 $274 reversed $69 $-1 #
coedge $-1 $277 $278 $111 $186 forward $279 $-1 #
edge $-1 $280 -24.255740673350079 $281 24.255740673350079 $185 $282 forward 7 unknown #
coedge $-1 $113 $112 $272 $283 reversed $44 $-1 #
coedge $-1 $275 $284 $112 $189 forward $270 $-1 #
edge $-1 $285 -41.46008382909411 $193 -31.051738014350427 $188 $286 forward 7 unknown #
coedge $-1 $287 $182 $113 $191 forward $109 $-1 #
edge $-1 $192 31.051738014350427 $288 41.46008382909411 $190 $289 forward 7 unknown #
vertex $-1 $191 $290 #
vertex $-1 $189 $291 #
straight-curve $-1 -67.307648936072695 -21.421881529867633 0 0 0 -1 I I #
face $-1 $-1 $207 $26 $-1 $292 forward single #
loop $-1 $-1 $293 $116 #
plane-surface $-1 0 48.904604698781796 0 0 -1 0 0 0 -1 forward_v I I I I #
coedge $-1 $294 $295 $296 $297 reversed $117 $-1 #
coedge $-1 $298 $119 $121 $205 forward $73 $-1 #
coedge $-1 $119 $298 $294 $299 forward $73 $-1 #
coedge $-1 $296 $122 $119 $202 forward $207 $-1 #
edge $-1 $209 -45.379922330309107 $300 -12.554300852884438 $201 $301 forward 7 unknown #
coedge $-1 $302 $303 $120 $204 forward $196 $-1 #
edge $-1 $304 -83.010791927521467 $208 -76.286642411065827 $203 $305 forward 7 unknown #
edge $-1 $209 85.784469120408446 $304 97.809209397563578 $121 $306 forward 7 unknown #
coedge $-1 $122 $296 $302 $307 forward $207 $-1 #
loop $-1 $-1 $296 $195 #
vertex $-1 $204 $308 #
vertex $-1 $123 $309 #
straight-curve $-1 -74.347033921905876 27.366781138523024 24.255740673350076 0 -1 0 I I #
coedge $-1 $211 $211 $-1 $310 reversed $126 $-1 #
edge $-1 $311 0 $311 6.2831853071796004 $127 $312 forward 7 unknown #
vertex $-1 $130 $313 #
ellipse-curve $-1 -64.968284928355956 43.92012398326623 20.893665915122266 0 0.55919291073839883 0.82903756765294845 3 0 0 1 I I #
coedge $-1 $215 $215 $-1 $314 reversed $133 $-1 #
edge $-1 $315 0 $315 6.2831853071796004 $134 $316 forward 7 unknown #
vertex $-1 $137 $317 #
ellipse-curve $-1 -50.900161438031105 43.92012398326623 20.893665915122266 0 0.55919291073839883 0.82903756765294845 3 0 0 1 I I #
face $-1 $-1 $318 $29 $-1 $319 reversed single #
loop $-1 $-1 $144 $138 #
plane-surface $-1 0 0 24.255740673350079 0 0 1 1 0 0 forward_v I I I I #
coedge $-1 $320 $321 $322 $323 reversed $139 $-1 #
coedge $-1 $324 $141 $143 $229 forward $87 $-1 #
coedge $-1 $141 $324 $320 $325 forward $87 $-1 #
coedge $-1 $322 $144 $141 $226 forward $220 $-1 #
edge $-1 $232 -6.5219249549009106 $326 26.303696522523751 $225 $327 forward 7 unknown #
coedge $-1 $328 $329 $142 $228 forward $318 $-1 #
edge $-1 $330 -83.010791927521467 $231 -76.286642411065827 $227 $331 forward 7 unknown #
edge $-1 $232 85.784469120408446 $330 97.809209397563578 $143 $332 forward 7 unknown #
coedge $-1 $144 $322 $328 $333 forward $220 $-1 #
vertex $-1 $228 $334 #
vertex $-1 $145 $335 #
straight-curve $-1 3.3689608289105095 27.366781138523024 24.255740673350076 0 -1 0 I I #
coedge $-1 $234 $234 $-1 $336 reversed $148 $-1 #
edge $-1 $337 0 $337 6.2831853071796004 $149 $338 forward 7 unknown #
vertex $-1 $152 $339 #
ellipse-curve $-1 12.747709822460422 43.92012398326623 20.893665915122266 0 0.55919291073839883 0.82903756765294845 3 0 0 1 I I #
coedge $-1 $238 $238 $-1 $340 reversed $155 $-1 #
edge $-1 $341 0 $341 6.2831853071796004 $156 $342 forward 7 unknown #
vertex $-1 $159 $343 #
ellipse-curve $-1 26.815833312785273 43.92012398326623 20.893665915122266 0 0.55919291073839883 0.82903756765294845 3 0 0 1 I I #
face $-1 $-1 $175 $24 $-1 $344 reversed single #
loop $-1 $-1 $258 $160 #
plane-surface $-1 0 48.904604698781796 0 0 -1 0 0 0 -1 forward_v I I I I #
coedge $-1 $345 $256 $259 $346 forward $161 $-1 #
coedge $-1 $262 $163 $164 $250 reversed $101 $-1 #
coedge $-1 $256 $345 $163 $248 reversed $161 $-1 #
edge $-1 $263 -24.255740673350079 $347 24.255740673350079 $247 $348 forward 7 unknown #
coedge $-1 $165 $164 $345 $349 forward $65 $-1 #
edge $-1 $254 -77.715994750816378 $347 77.715994750816378 $246 $350 forward 7 unknown #
coedge $-1 $259 $258 $165 $252 reversed $243 $-1 #
edge $-1 $351 -77.715994750816378 $253 77.715994750816378 $251 $352 forward 7 unknown #
vertex $-1 $167 $353 #
vertex $-1 $265 $354 #
straight-curve $-1 77.715994750816378 0 -24.255740673350079 0 -1 0 I I #
coedge $-1 $245 $247 $168 $257 reversed $161 $-1 #
edge $-1 $260 -48.904604698781796 $263 48.904604698781796 $256 $355 forward 7 unknown #
coedge $-1 $251 $169 $174 $266 forward $243 $-1 #
coedge $-1 $169 $251 $245 $346 reversed $243 $-1 #
vertex $-1 $170 $356 #
straight-curve $-1 0 48.904604698781796 24.255740673350079 -1 0 0 I I #
coedge $-1 $171 $246 $173 $265 reversed $101 $-1 #
vertex $-1 $257 $357 #
straight-curve $-1 0 -48.904604698781796 24.255740673350079 1 0 0 I I #
edge $-1 $176 -24.255740673350079 $254 24.255740673350079 $173 $358 forward 7 unknown #
edge $-1 $177 -24.255740673350079 $253 24.255740673350079 $174 $359 forward 7 unknown #
point $-1 77.715994750816378 -48.904604698781796 24.255740673350079 #
point $-1 77.715994750816378 48.904604698781796 24.255740673350079 #
face $-1 $-1 $279 $25 $-1 $360 reversed single #
loop $-1 $-1 $275 $179 #
plane-surface $-1 0 0 -24.255740673350079 0 0 1 1 0 0 forward_v I I I I #
coedge $-1 $361 $362 $187 $283 forward $180 $-1 #
coedge $-1 $182 $287 $277 $363 forward $109 $-1 #
edge $-1 $281 -31.322983141619439 $192 -3.840259972705276 $182 $364 forward 7 unknown #
coedge $-1 $365 $188 $183 $276 forward $270 $-1 #
edge $-1 $193 3.840259972705276 $280 31.322983141619439 $275 $366 forward 7 unknown #
coedge $-1 $367 $185 $273 $363 reversed $279 $-1 #
coedge $-1 $185 $367 $365 $368 reversed $279 $-1 #
loop $-1 $-1 $185 $269 #
vertex $-1 $368 $369 #
vertex $-1 $186 $370 #
straight-curve $-1 -67.307648936072695 -48.904604698781796 0 0 0 1 I I #
edge $-1 $288 -24.255740673350079 $285 24.255740673350079 $272 $371 forward 7 unknown #
coedge $-1 $188 $365 $361 $372 forward $270 $-1 #
vertex $-1 $189 $373 #
straight-curve $-1 -36.255910921722268 -21.421881529867633 -24.255740673350079 1 0 0 I I #
coedge $-1 $273 $190 $362 $374 forward $109 $-1 #
vertex $-1 $374 $375 #
straight-curve $-1 -36.255910921722268 -21.421881529867633 24.255740673350079 -1 0 0 I I #
point $-1 -67.307648936072695 -21.421881529867633 24.255740673350079 #
point $-1 -67.307648936072695 -21.421881529867633 -24.255740673350079 #
plane-surface $-1 0 0 24.255740673350079 0 0 1 1 0 0 forward_v I I I I #
coedge $-1 $303 $302 $295 $376 forward $196 $-1 #
coedge $-1 $295 $198 $200 $299 reversed $117 $-1 #
coedge $-1 $198 $294 $293 $376 reversed $117 $-1 #
coedge $-1 $206 $201 $198 $297 forward $207 $-1 #
edge $-1 $300 11.568862129227639 $377 21.537823560258772 $296 $378 forward 7 unknown #
coedge $-1 $200 $199 $303 $379 reversed $73 $-1 #
edge $-1 $380 -97.809209397563578 $300 -85.784469120408446 $294 $381 forward 7 unknown #
vertex $-1 $202 $382 #
straight-curve $-1 -28.967111591596769 38.93564326775067 24.255740673350068 1 0 0 I I #
coedge $-1 $293 $203 $206 $307 reversed $196 $-1 #
coedge $-1 $203 $293 $298 $379 forward $196 $-1 #
vertex $-1 $204 $383 #
straight-curve $-1 -74.347033921905876 48.904604698781796 100.5423830844159 0 0 1 I I #
straight-curve $-1 -74.347033921905876 -32.182904354232221 72.225807656939566 0 0.82903756765294845 -0.55919291073839883 I I #
edge $-1 $377 41.521412444481207 $208 74.347033921905876 $302 $384 forward 7 unknown #
point $-1 -74.347033921905876 48.904604698781796 24.255740673350079 #
point $-1 -74.347033921905876 38.935643267750663 24.255740673350076 #
edge $-1 $385 1 $385 0 $211 $-1 forward 7 unknown #
vertex $-1 $212 $386 #
ellipse-curve $-1 -64.968284928355956 40.39929237175344 15.673818489893208 0 0.55919291073839883 0.82903756765294845 3 0 0 1 I I #
point $-1 -61.968284928355956 43.920123983266215 20.893665915122245 #
edge $-1 $387 1 $387 0 $215 $-1 forward 7 unknown #
vertex $-1 $216 $388 #
ellipse-curve $-1 -50.900161438031105 40.39929237175344 15.673818489893208 0 0.55919291073839883 0.82903756765294845 3 0 0 1 I I #
point $-1 -47.900161438031105 43.920123983266215 20.893665915122245 #
loop $-1 $-1 $227 $219 #
plane-surface $-1 0 48.904604698781796 0 0 -1 0 0 0 -1 forward_v I I I I #
coedge $-1 $321 $222 $224 $325 reversed $139 $-1 #
coedge $-1 $222 $320 $389 $390 reversed $139 $-1 #
coedge $-1 $230 $225 $222 $323 forward $220 $-1 #
edge $-1 $326 11.568862129227639 $391 21.537823560258772 $322 $392 forward 7 unknown #
coedge $-1 $224 $223 $329 $393 reversed $87 $-1 #
edge $-1 $394 -97.809209397563578 $326 -85.784469120408446 $320 $395 forward 7 unknown #
vertex $-1 $226 $396 #
straight-curve $-1 9.8908857838114201 38.93564326775067 24.255740673350068 1 0 0 I I #
coedge $-1 $389 $227 $230 $333 reversed $318 $-1 #
coedge $-1 $227 $389 $324 $393 forward $318 $-1 #
vertex $-1 $228 $397 #
straight-curve $-1 3.3689608289105095 48.904604698781796 100.5423830844159 0 0 1 I I #
straight-curve $-1 3.3689608289105095 -32.182904354232221 72.225807656939566 0 0.82903756765294845 -0.55919291073839883 I I #
edge $-1 $391 -36.194582306335171 $231 -3.3689608289105095 $328 $398 forward 7 unknown #
point $-1 3.3689608289105095 48.904604698781796 24.255740673350079 #
point $-1 3.3689608289105095 38.935643267750663 24.255740673350076 #
edge $-1 $399 1 $399 0 $234 $-1 forward 7 unknown #
vertex $-1 $235 $400 #
ellipse-curve $-1 12.747709822460422 40.39929237175344 15.673818489893208 0 0.55919291073839883 0.82903756765294845 3 0 0 1 I I #
point $-1 15.747709822460422 43.920123983266215 20.893665915122245 #
edge $-1 $401 1 $401 0 $238 $-1 forward 7 unknown #
vertex $-1 $239 $402 #
ellipse-curve $-1 26.815833312785273 40.39929237175344 15.673818489893208 0 0.55919291073839883 0.82903756765294845 3 0 0 1 I I #
point $-1 29.815833312785273 43.920123983266215 20.893665915122245 #
plane-surface $-1 77.715994750816378 0 0 -1 0 0 0 0 1 forward_v I I I I #
coedge $-1 $247 $245 $249 $349 reversed $161 $-1 #
edge $-1 $260 -24.255740673350079 $351 24.255740673350079 $259 $403 forward 7 unknown #
vertex $-1 $349 $404 #
straight-curve $-1 -77.715994750816378 -48.904604698781796 0 0 0 -1 I I #
edge $-1 $347 -48.904604698781796 $351 48.904604698781796 $345 $405 forward 7 unknown #
straight-curve $-1 0 -48.904604698781796 -24.255740673350079 -1 0 0 I I #
vertex $-1 $252 $406 #
straight-curve $-1 0 48.904604698781796 -24.255740673350079 1 0 0 I I #
point $-1 77.715994750816378 48.904604698781796 -24.255740673350079 #
point $-1 77.715994750816378 -48.904604698781796 -24.255740673350079 #
straight-curve $-1 -77.715994750816378 0 24.255740673350079 0 -1 0 I I #
point $-1 -77.715994750816378 48.904604698781796 24.255740673350079 #
point $-1 -77.715994750816378 -48.904604698781796 24.255740673350079 #
straight-curve $-1 77.715994750816378 -48.904604698781796 0 0 0 -1 I I #
straight-curve $-1 77.715994750816378 48.904604698781796 0 0 0 -1 I I #
plane-surface $-1 0 -48.904604698781796 0 0 1 0 0 0 1 forward_v I I I I #
coedge $-1 $407 $272 $284 $372 reversed $180 $-1 #
coedge $-1 $272 $407 $287 $374 reversed $180 $-1 #
edge $-1 $408 -77.715994750816378 $281 -67.307648936072695 $277 $409 forward 7 unknown #
straight-curve $-1 -67.307648936072695 -17.581621557162357 24.255740673350079 0 1 0 I I #
coedge $-1 $284 $275 $278 $368 forward $270 $-1 #
straight-curve $-1 -67.307648936072695 -17.581621557162357 -24.255740673350079 0 -1 0 I I #
coedge $-1 $278 $277 $407 $410 forward $279 $-1 #
edge $-1 $280 67.307648936072695 $411 77.715994750816378 $278 $412 forward 7 unknown #
point $-1 -67.307648936072695 -48.904604698781796 -24.255740673350079 #
point $-1 -67.307648936072695 -48.904604698781796 24.255740673350079 #
straight-curve $-1 -77.715994750816378 -21.421881529867633 0 0 0 -1 I I #
edge $-1 $411 -48.904604698781796 $285 -21.421881529867633 $361 $413 forward 7 unknown #
point $-1 -77.715994750816378 -21.421881529867633 -24.255740673350079 #
edge $-1 $288 21.421881529867633 $408 48.904604698781796 $362 $414 forward 7 unknown #
point $-1 -77.715994750816378 -21.421881529867633 24.255740673350079 #
edge $-1 $377 76.286642411065827 $380 83.010791927521467 $293 $415 forward 7 unknown #
vertex $-1 $307 $416 #
straight-curve $-1 -41.521412444481207 27.366781138523024 24.255740673350076 0 1 0 I I #
edge $-1 $380 12.554300852884438 $304 45.379922330309107 $303 $417 forward 7 unknown #
vertex $-1 $379 $418 #
straight-curve $-1 -41.521412444481207 -32.182904354232221 72.225807656939566 0 -0.82903756765294845 0.55919291073839883 I I #
point $-1 -41.521412444481207 38.935643267750663 24.255740673350076 #
point $-1 -74.347033921905876 48.904604698781796 17.531591156894436 #
straight-curve $-1 0 48.904604698781796 24.255740673350079 -1 0 0 I I #
vertex $-1 $310 $419 #
point $-1 -61.968284928355956 40.39929237175344 15.673818489893208 #
vertex $-1 $314 $420 #
point $-1 -47.900161438031105 40.39929237175344 15.673818489893208 #
coedge $-1 $329 $328 $321 $390 forward $318 $-1 #
edge $-1 $391 76.286642411065827 $394 83.010791927521467 $389 $421 forward 7 unknown #
vertex $-1 $333 $422 #
straight-curve $-1 36.194582306335171 27.366781138523024 24.255740673350076 0 1 0 I I #
edge $-1 $394 -26.303696522523751 $330 6.5219249549009106 $329 $423 forward 7 unknown #
vertex $-1 $393 $424 #
straight-curve $-1 36.194582306335171 -32.182904354232221 72.225807656939566 0 -0.82903756765294845 0.55919291073839883 I I #
point $-1 36.194582306335171 38.935643267750663 24.255740673350076 #
point $-1 3.3689608289105095 48.904604698781796 17.531591156894436 #
straight-curve $-1 0 48.904604698781796 24.255740673350079 -1 0 0 I I #
vertex $-1 $336 $425 #
point $-1 15.747709822460422 40.39929237175344 15.673818489893208 #
vertex $-1 $340 $426 #
point $-1 29.815833312785273 40.39929237175344 15.673818489893208 #
straight-curve $-1 -77.715994750816378 48.904604698781796 0 0 0 -1 I I #
point $-1 -77.715994750816378 -48.904604698781796 -24.255740673350079 #
straight-curve $-1 -77.715994750816378 0 -24.255740673350079 0 1 0 I I #
point $-1 -77.715994750816378 48.904604698781796 -24.255740673350079 #
coedge $-1 $362 $361 $367 $410 reversed $180 $-1 #
vertex $-1 $374 $427 #
straight-curve $-1 0 -48.904604698781796 24.255740673350079 1 0 0 I I #
edge $-1 $408 -24.255740673350079 $411 24.255740673350079 $407 $428 forward 7 unknown #
vertex $-1 $372 $429 #
straight-curve $-1 0 -48.904604698781796 -24.255740673350079 -1 0 0 I I #
straight-curve $-1 -77.715994750816378 0 -24.255740673350079 0 1 0 I I #
straight-curve $-1 -77.715994750816378 0 24.255740673350079 0 -1 0 I I #
straight-curve $-1 -41.521412444481207 48.904604698781796 100.5423830844159 0 0 -1 I I #
point $-1 -41.521412444481207 48.904604698781796 24.255740673350079 #
straight-curve $-1 -28.967111591596769 48.904604698781796 17.531591156894429 -1 0 0 I I #
point $-1 -41.521412444481207 48.904604698781796 17.531591156894436 #
point $-1 -64.968284928355956 38.721713639538244 13.186705786934361 #
point $-1 -50.900161438031105 38.721713639538244 13.186705786934361 #
straight-curve $-1 36.194582306335171 48.904604698781796 100.5423830844159 0 0 -1 I I #
point $-1 36.194582306335171 48.904604698781796 24.255740673350079 #
straight-curve $-1 9.8908857838114201 48.904604698781796 17.531591156894429 -1 0 0 I I #
point $-1 36.194582306335171 48.904604698781796 17.531591156894436 #
point $-1 12.747709822460422 38.721713639538244 13.186705786934361 #
point $-1 26.815833312785273 38.721713639538244 13.186705786934361 #
point $-1 -77.715994750816378 -48.904604698781796 24.255740673350079 #
straight-curve $-1 -77.715994750816378 -48.904604698781796 0 0 0 -1 I I #
point $-1 -77.715994750816378 -48.904604698781796 -24.255740673350079 #
End-of-ACIS-data 