500 0 7 0           
7 Unknown 11 ACIS 5.0 NT 24 Thu Mar 25 20:26:28 1999 
-1 9.9999999999999995e-007 1e-010 
body $-1 $7 $-1 $8 #
body $-1 $9 $-1 $10 #
body $-1 $11 $-1 $12 #
body $-1 $13 $-1 $14 #
body $-1 $15 $-1 $16 #
body $-1 $17 $-1 $18 #
body $-1 $19 $-1 $20 #
lump $-1 $-1 $21 $0 #
transform $-1 1 0 0 0 1 0 0 0 1 62.923062837611013 38.223547507250579 18.005207477634876 1 rotate no_reflect no_shear #
lump $-1 $-1 $22 $1 #
transform $-1 1 0 0 0 1 0 0 0 1 62.923062837611013 38.223547507250579 18.005207477634876 1 rotate no_reflect no_shear #
lump $-1 $-1 $23 $2 #
transform $-1 1 0 0 0 1 0 0 0 1 62.923062837611013 38.223547507250579 18.005207477634876 1 rotate no_reflect no_shear #
lump $-1 $-1 $24 $3 #
transform $-1 1 0 0 0 1 0 0 0 1 62.923062837611013 38.223547507250579 18.005207477634876 1 rotate no_reflect no_shear #
lump $-1 $-1 $25 $4 #
transform $-1 1 0 0 0 1 0 0 0 1 62.923062837611013 38.223547507250579 18.005207477634876 1 rotate no_reflect no_shear #
lump $-1 $-1 $26 $5 #
transform $-1 1 0 0 0 1 0 0 0 1 62.923062837611013 38.223547507250579 18.005207477634876 1 rotate no_reflect no_shear #
lump $-1 $-1 $27 $6 #
transform $-1 1 0 0 0 1 0 0 0 1 62.923062837611013 38.223547507250579 18.005207477634876 1 rotate no_reflect no_shear #
shell $-1 $-1 $-1 $28 $-1 $7 #
shell $-1 $-1 $-1 $29 $-1 $9 #
shell $-1 $-1 $-1 $30 $-1 $11 #
shell $-1 $-1 $-1 $31 $-1 $13 #
shell $-1 $-1 $-1 $32 $-1 $15 #
shell $-1 $-1 $-1 $33 $-1 $17 #
shell $-1 $-1 $-1 $34 $-1 $19 #
face $-1 $35 $36 $21 $-1 $37 forward single #
face $-1 $38 $39 $22 $-1 $40 reversed single #
face $-1 $41 $42 $23 $-1 $43 reversed single #
face $-1 $44 $45 $24 $-1 $46 reversed single #
face $-1 $47 $48 $25 $-1 $49 forward single #
face $-1 $50 $51 $26 $-1 $52 reversed single #
face $-1 $53 $54 $27 $-1 $55 forward single #
face $-1 $56 $57 $21 $-1 $58 reversed single #
loop $-1 $-1 $59 $28 #
plane-surface $-1 0 0 18.005207477634876 0 0 1 1 0 0 forward_v I I I I #
face $-1 $60 $61 $22 $-1 $62 reversed single #
loop $-1 $-1 $63 $29 #
plane-surface $-1 -62.423062837611013 -29.121205458265425 0 1 0 0 0 0 -1 forward_v I I I I #
face $-1 $64 $65 $23 $-1 $66 reversed single #
loop $-1 $-1 $67 $30 #
plane-surface $-1 -57.279542082143585 20.018863409280275 0 0 1 0 0 0 1 forward_v I I I I #
face $-1 $68 $69 $24 $-1 $70 reversed single #
loop $-1 $-1 $71 $31 #
plane-surface $-1 69.134243509301342 -5.1292289772718931 180.28003855468168 0 -1 0 -0.73135370988377701 0 -0.68199835119979291 forward_v I I I I #
face $-1 $72 $73 $25 $-1 $74 forward single #
loop $-1 $75 $76 $32 #
cone-surface $-1 54.569977206969412 -8.5036636258819165 9.1992359969802902 -0.73135370988377701 0 -0.68199835119979291 1.0229975267996894 0 -1.0970305648256655 1 I I 0 1 1.5 forward I I I I #
face $-1 $77 $78 $26 $-1 $79 reversed single #
loop $-1 $-1 $80 $33 #
plane-surface $-1 -154.96109372468467 -11.87809827449194 88.242007667608021 0 1 0 -0.73135370988377701 0 0.68199835119979291 forward_v I I I I #
face $-1 $81 $82 $27 $-1 $83 forward single #
loop $-1 $84 $85 $34 #
cone-surface $-1 -54.569977206969398 -8.5036636258819165 9.1992359969802973 0.73135370988377701 0 -0.68199835119979291 1.0229975267996894 0 1.0970305648256655 1 I I 0 1 1.5 forward I I I I #
face $-1 $86 $87 $21 $-1 $88 reversed single #
loop $-1 $-1 $89 $35 #
plane-surface $-1 0 0 -18.005207477634876 0 0 1 1 0 0 forward_v I I I I #
coedge $-1 $90 $91 $92 $93 forward $36 $-1 #
face $-1 $94 $95 $22 $-1 $96 reversed single #
loop $-1 $-1 $97 $38 #
plane-surface $-1 -57.279542082143585 -20.018863409280272 0 0 -1 0 0 0 -1 forward_v I I I I #
coedge $-1 $98 $99 $100 $101 forward $39 $-1 #
face $-1 $102 $103 $23 $-1 $104 reversed single #
loop $-1 $-1 $105 $41 #
plane-surface $-1 -62.423062837611013 29.121205458265429 0 1 0 0 0 0 -1 forward_v I I I I #
coedge $-1 $106 $107 $108 $109 forward $42 $-1 #
face $-1 $110 $111 $24 $-1 $112 reversed single #
loop $-1 $-1 $113 $44 #
plane-surface $-1 -22.903787377772318 -8.5036636258819165 94.45318833929835 0.73135370988377701 0 0.68199835119979291 0.68199835119979291 0 -0.73135370988377701 forward_v I I I I #
coedge $-1 $114 $115 $116 $117 reversed $45 $-1 #
face $-1 $-1 $118 $25 $-1 $119 forward single #
loop $-1 $120 $121 $47 #
cone-surface $-1 52.937354538478516 -8.5036636258819165 7.6767907656309617 -0.73135370988377701 0 -0.68199835119979291 0.51149876339984468 0 -0.54851528241283276 1 I I -0.70710678118654757 0.70710678118654757 0.75 forward I I I I #
loop $-1 $-1 $122 $32 #
coedge $-1 $76 $76 $123 $124 reversed $48 $-1 #
face $-1 $125 $126 $26 $-1 $127 reversed single #
loop $-1 $-1 $128 $50 #
plane-surface $-1 -62.923062837611013 -8.5036636258819165 2.4151574522246904 -0.73135370988377701 0 0.68199835119979291 0.68199835119979291 0 0.73135370988377701 forward_v I I I I #
coedge $-1 $129 $130 $131 $132 reversed $51 $-1 #
face $-1 $-1 $133 $27 $-1 $134 forward single #
loop $-1 $135 $136 $53 #
cone-surface $-1 -52.937354538478502 -8.5036636258819165 7.6767907656309688 0.73135370988377701 0 -0.68199835119979291 0.51149876339984468 0 0.54851528241283276 1 I I -0.70710678118654757 0.70710678118654757 0.75 forward I I I I #
loop $-1 $-1 $137 $34 #
coedge $-1 $85 $85 $138 $139 reversed $54 $-1 #
face $-1 $140 $141 $21 $-1 $142 reversed single #
loop $-1 $-1 $143 $56 #
plane-surface $-1 0 -38.223547507250579 0 0 1 0 0 0 1 forward_v I I I I #
coedge $-1 $144 $145 $146 $147 forward $57 $-1 #
coedge $-1 $148 $59 $149 $150 forward $36 $-1 #
coedge $-1 $59 $148 $151 $152 forward $36 $-1 #
coedge $-1 $153 $154 $59 $93 reversed $155 $-1 #
edge $-1 $156 -38.223547507250579 $157 38.223547507250579 $92 $158 forward 7 unknown #
face $-1 $159 $160 $22 $-1 $161 forward single #
loop $-1 $-1 $162 $60 #
plane-surface $-1 -52.136021326676158 -29.121205458265425 0 -1 0 0 0 0 1 forward_v I I I I #
coedge $-1 $163 $164 $165 $166 forward $61 $-1 #
coedge $-1 $167 $63 $168 $169 reversed $39 $-1 #
coedge $-1 $63 $167 $170 $171 reversed $39 $-1 #
coedge $-1 $164 $163 $63 $101 reversed $61 $-1 #
edge $-1 $172 -18.005207477634876 $173 18.005207477634876 $100 $174 forward 7 unknown #
face $-1 $175 $176 $23 $-1 $177 reversed single #
loop $-1 $-1 $178 $64 #
plane-surface $-1 -52.136021326676158 29.121205458265429 0 -1 0 0 0 0 1 forward_v I I I I #
coedge $-1 $179 $180 $181 $182 reversed $65 $-1 #
coedge $-1 $183 $67 $184 $185 reversed $42 $-1 #
coedge $-1 $67 $183 $186 $187 reversed $42 $-1 #
coedge $-1 $180 $179 $67 $109 reversed $65 $-1 #
edge $-1 $188 -18.005207477634876 $189 18.005207477634876 $108 $190 forward 7 unknown #
face $-1 $191 $192 $24 $-1 $193 forward single #
loop $-1 $-1 $194 $68 #
plane-surface $-1 69.134243509301342 -11.87809827449194 180.28003855468168 0 1 0 0.73135370988377701 0 0.68199835119979291 forward_v I I I I #
coedge $-1 $195 $196 $197 $198 reversed $69 $-1 #
coedge $-1 $115 $71 $199 $200 reversed $45 $-1 #
coedge $-1 $71 $114 $195 $201 reversed $45 $-1 #
coedge $-1 $197 $202 $71 $117 forward $192 $-1 #
edge $-1 $203 -28.355941082960342 $204 -13.817984593833245 $116 $205 forward 7 unknown #
loop $-1 $-1 $123 $72 #
plane-surface $-1 -22.903787377772318 -8.5036636258819165 94.45318833929835 0.73135370988377701 0 0.68199835119979291 0.68199835119979291 0 -0.73135370988377701 forward_v I I I I #
loop $-1 $-1 $206 $47 #
coedge $-1 $121 $121 $122 $207 reversed $73 $-1 #
coedge $-1 $122 $122 $121 $207 forward $75 $-1 #
coedge $-1 $123 $123 $76 $124 forward $118 $-1 #
edge $-1 $208 0 $208 6.2831853071796004 $123 $209 forward 7 unknown #
face $-1 $210 $211 $26 $-1 $212 reversed single #
loop $-1 $-1 $213 $77 #
plane-surface $-1 -154.96109372468467 -5.1292289772718931 88.242007667608021 0 -1 0 0.73135370988377701 0 -0.68199835119979291 forward_v I I I I #
coedge $-1 $214 $215 $216 $217 reversed $78 $-1 #
coedge $-1 $130 $80 $218 $219 reversed $51 $-1 #
coedge $-1 $80 $129 $214 $220 reversed $51 $-1 #
coedge $-1 $216 $221 $80 $132 forward $222 $-1 #
edge $-1 $223 14.557484024731323 $224 29.095440513858428 $131 $225 forward 7 unknown #
loop $-1 $-1 $138 $81 #
plane-surface $-1 -62.923062837611013 -8.5036636258819165 2.4151574522246904 -0.73135370988377701 0 0.68199835119979291 0.68199835119979291 0 0.73135370988377701 forward_v I I I I #
loop $-1 $-1 $226 $53 #
coedge $-1 $136 $136 $137 $227 reversed $82 $-1 #
coedge $-1 $137 $137 $136 $227 forward $84 $-1 #
coedge $-1 $138 $138 $85 $139 forward $133 $-1 #
edge $-1 $228 0 $228 6.2831853071796004 $138 $229 forward 7 unknown #
face $-1 $230 $231 $21 $-1 $232 reversed single #
loop $-1 $-1 $233 $86 #
plane-surface $-1 -62.923062837611013 0 0 1 0 0 0 0 -1 forward_v I I I I #
coedge $-1 $234 $151 $235 $236 forward $87 $-1 #
coedge $-1 $237 $89 $234 $238 forward $57 $-1 #
coedge $-1 $89 $237 $239 $240 forward $57 $-1 #
coedge $-1 $154 $153 $89 $147 reversed $155 $-1 #
edge $-1 $241 -38.223547507250579 $242 38.223547507250579 $146 $243 forward 7 unknown #
coedge $-1 $91 $90 $244 $245 forward $36 $-1 #
coedge $-1 $246 $247 $90 $150 reversed $231 $-1 #
edge $-1 $157 -62.923062837611013 $248 62.923062837611013 $149 $249 forward 7 unknown #
coedge $-1 $143 $250 $91 $152 reversed $87 $-1 #
edge $-1 $251 -62.923062837611013 $156 62.923062837611013 $151 $252 forward 7 unknown #
coedge $-1 $146 $92 $250 $253 forward $155 $-1 #
coedge $-1 $92 $146 $246 $254 reversed $155 $-1 #
loop $-1 $-1 $153 $230 #
vertex $-1 $93 $255 #
vertex $-1 $93 $256 #
straight-curve $-1 62.923062837611013 0 18.005207477634876 0 1 0 I I #
face $-1 $257 $258 $22 $-1 $259 reversed single #
loop $-1 $-1 $260 $94 #
plane-surface $-1 0 0 18.005207477634876 0 0 1 1 0 0 forward_v I I I I #
coedge $-1 $261 $262 $263 $264 reversed $95 $-1 #
coedge $-1 $100 $97 $265 $266 reversed $61 $-1 #
coedge $-1 $97 $100 $267 $268 reversed $61 $-1 #
coedge $-1 $262 $261 $97 $166 reversed $95 $-1 #
edge $-1 $269 -18.005207477634876 $270 18.005207477634876 $165 $271 forward 7 unknown #
coedge $-1 $99 $98 $272 $273 reversed $39 $-1 #
coedge $-1 $265 $274 $98 $169 forward $258 $-1 #
edge $-1 $275 -23.662944778117868 $173 -5.4582606801475588 $168 $276 forward 7 unknown #
coedge $-1 $277 $267 $99 $171 forward $160 $-1 #
edge $-1 $172 5.4582606801475588 $278 23.662944778117868 $170 $279 forward 7 unknown #
vertex $-1 $171 $280 #
vertex $-1 $169 $281 #
straight-curve $-1 -62.423062837611013 -20.018863409280272 0 0 0 -1 I I #
face $-1 $282 $283 $23 $-1 $284 forward single #
loop $-1 $-1 $285 $102 #
plane-surface $-1 0 0 -18.005207477634876 0 0 1 1 0 0 forward_v I I I I #
coedge $-1 $286 $287 $183 $288 forward $103 $-1 #
coedge $-1 $108 $105 $289 $290 reversed $65 $-1 #
coedge $-1 $105 $108 $291 $292 reversed $65 $-1 #
coedge $-1 $293 $294 $105 $182 forward $295 $-1 #
edge $-1 $296 -18.005207477634876 $297 18.005207477634876 $181 $298 forward 7 unknown #
coedge $-1 $107 $106 $178 $288 reversed $42 $-1 #
coedge $-1 $289 $285 $106 $185 forward $176 $-1 #
edge $-1 $299 23.496250285604365 $189 33.783291796539217 $184 $300 forward 7 unknown #
coedge $-1 $301 $291 $107 $187 forward $283 $-1 #
edge $-1 $188 -33.783291796539217 $302 -23.496250285604365 $186 $303 forward 7 unknown #
vertex $-1 $187 $304 #
vertex $-1 $185 $305 #
straight-curve $-1 -62.423062837611013 20.018863409280275 0 0 0 -1 I I #
face $-1 $-1 $306 $24 $-1 $307 reversed single #
loop $-1 $-1 $116 $110 #
plane-surface $-1 0 0 18.005207477634876 0 0 1 1 0 0 forward_v I I I I #
coedge $-1 $308 $309 $310 $311 reversed $111 $-1 #
coedge $-1 $312 $113 $115 $201 forward $69 $-1 #
coedge $-1 $113 $312 $308 $313 forward $69 $-1 #
coedge $-1 $310 $116 $113 $198 forward $192 $-1 #
edge $-1 $204 0.87739716433093484 $314 7.6262664615509816 $197 $315 forward 7 unknown #
coedge $-1 $316 $317 $114 $200 forward $306 $-1 #
edge $-1 $318 -87.724861825116136 $203 -72.134811799705972 $199 $319 forward 7 unknown #
edge $-1 $204 104.52942239646558 $318 125.84612567522198 $115 $320 forward 7 unknown #
coedge $-1 $116 $310 $316 $321 forward $192 $-1 #
vertex $-1 $117 $322 #
vertex $-1 $117 $323 #
straight-curve $-1 34.567121754650671 -5.1292289772718931 18.005207477634869 -1 0 0 I I #
coedge $-1 $206 $206 $-1 $324 reversed $120 $-1 #
edge $-1 $325 0 $325 6.2831853071796004 $121 $326 forward 7 unknown #
vertex $-1 $124 $327 #
ellipse-curve $-1 55.654084593047472 -8.5036636258819165 10.210182464929774 0.73135370988377701 0 0.68199835119979291 1.0229975267996894 0 -1.0970305648256655 1 I I #
face $-1 $-1 $222 $26 $-1 $328 forward single #
loop $-1 $-1 $329 $125 #
plane-surface $-1 -62.923062837611013 0 0 1 0 0 0 0 -1 forward_v I I I I #
coedge $-1 $330 $331 $332 $333 reversed $126 $-1 #
coedge $-1 $334 $128 $130 $220 forward $78 $-1 #
coedge $-1 $128 $334 $330 $335 forward $78 $-1 #
coedge $-1 $332 $131 $128 $217 forward $222 $-1 #
edge $-1 $224 -7.6262664615509816 $336 -0.87739716433093484 $216 $337 forward 7 unknown #
coedge $-1 $338 $339 $129 $219 forward $211 $-1 #
edge $-1 $340 -41.70584638157932 $223 -26.115796356169135 $218 $341 forward 7 unknown #
edge $-1 $224 -21.316703278756428 $340 0 $130 $342 forward 7 unknown #
coedge $-1 $131 $332 $338 $343 forward $222 $-1 #
loop $-1 $-1 $332 $210 #
vertex $-1 $219 $344 #
vertex $-1 $132 $345 #
straight-curve $-1 -77.480546862342337 -11.87809827449194 18.005207477634876 1 0 0 I I #
coedge $-1 $226 $226 $-1 $346 reversed $135 $-1 #
edge $-1 $347 0 $347 6.2831853071796004 $136 $348 forward 7 unknown #
vertex $-1 $139 $349 #
ellipse-curve $-1 -55.654084593047465 -8.5036636258819165 10.210182464929783 -0.73135370988377701 0 0.68199835119979291 1.0229975267996894 0 1.0970305648256655 1 I I #
face $-1 $-1 $155 $21 $-1 $350 reversed single #
loop $-1 $-1 $246 $140 #
plane-surface $-1 0 38.223547507250579 0 0 -1 0 0 0 -1 forward_v I I I I #
coedge $-1 $351 $244 $247 $352 forward $141 $-1 #
coedge $-1 $250 $143 $144 $238 reversed $87 $-1 #
coedge $-1 $244 $351 $143 $236 reversed $141 $-1 #
edge $-1 $251 -18.005207477634876 $353 18.005207477634876 $235 $354 forward 7 unknown #
coedge $-1 $145 $144 $351 $355 forward $57 $-1 #
edge $-1 $242 -62.923062837611013 $353 62.923062837611013 $234 $356 forward 7 unknown #
coedge $-1 $247 $246 $145 $240 reversed $231 $-1 #
edge $-1 $357 -62.923062837611013 $241 62.923062837611013 $239 $358 forward 7 unknown #
vertex $-1 $147 $359 #
vertex $-1 $253 $360 #
straight-curve $-1 62.923062837611013 0 -18.005207477634876 0 -1 0 I I #
coedge $-1 $233 $235 $148 $245 reversed $141 $-1 #
edge $-1 $248 -38.223547507250579 $251 38.223547507250579 $244 $361 forward 7 unknown #
coedge $-1 $239 $149 $154 $254 forward $231 $-1 #
coedge $-1 $149 $239 $233 $352 reversed $231 $-1 #
vertex $-1 $150 $362 #
straight-curve $-1 0 38.223547507250579 18.005207477634876 -1 0 0 I I #
coedge $-1 $151 $234 $153 $253 reversed $87 $-1 #
vertex $-1 $245 $363 #
straight-curve $-1 0 -38.223547507250579 18.005207477634876 1 0 0 I I #
edge $-1 $156 -18.005207477634876 $242 18.005207477634876 $153 $364 forward 7 unknown #
edge $-1 $157 -18.005207477634876 $241 18.005207477634876 $154 $365 forward 7 unknown #
point $-1 62.923062837611013 -38.223547507250579 18.005207477634876 #
point $-1 62.923062837611013 38.223547507250579 18.005207477634876 #
face $-1 $-1 $366 $22 $-1 $367 reversed single #
loop $-1 $-1 $368 $159 #
plane-surface $-1 0 0 -18.005207477634876 0 0 1 1 0 0 forward_v I I I I #
coedge $-1 $267 $277 $262 $369 forward $160 $-1 #
coedge $-1 $165 $162 $368 $370 reversed $95 $-1 #
coedge $-1 $162 $165 $260 $369 reversed $95 $-1 #
coedge $-1 $371 $372 $162 $264 forward $366 $-1 #
edge $-1 $373 -18.005207477634876 $374 18.005207477634876 $263 $375 forward 7 unknown #
coedge $-1 $368 $168 $163 $266 forward $258 $-1 #
edge $-1 $173 -33.783291796539217 $270 -23.496250285604365 $265 $376 forward 7 unknown #
coedge $-1 $170 $260 $164 $268 forward $160 $-1 #
edge $-1 $269 23.496250285604365 $172 33.783291796539217 $267 $377 forward 7 unknown #
vertex $-1 $268 $378 #
vertex $-1 $266 $379 #
straight-curve $-1 -52.136021326676158 -20.018863409280272 0 0 0 -1 I I #
coedge $-1 $372 $371 $167 $273 forward $366 $-1 #
edge $-1 $278 -18.005207477634876 $275 18.005207477634876 $272 $380 forward 7 unknown #
coedge $-1 $168 $368 $372 $381 forward $258 $-1 #
vertex $-1 $169 $382 #
straight-curve $-1 -62.423062837611013 -14.560602729132713 -18.005207477634876 0 1 0 I I #
coedge $-1 $260 $170 $371 $383 forward $160 $-1 #
vertex $-1 $383 $384 #
straight-curve $-1 -62.423062837611013 -14.560602729132713 18.005207477634876 0 -1 0 I I #
point $-1 -62.423062837611013 -20.018863409280272 18.005207477634876 #
point $-1 -62.423062837611013 -20.018863409280272 -18.005207477634876 #
face $-1 $-1 $295 $23 $-1 $385 reversed single #
loop $-1 $-1 $301 $175 #
plane-surface $-1 0 0 18.005207477634876 0 0 1 1 0 0 forward_v I I I I #
coedge $-1 $184 $386 $286 $387 forward $176 $-1 #
coedge $-1 $388 $178 $285 $387 reversed $103 $-1 #
coedge $-1 $178 $388 $301 $389 reversed $103 $-1 #
edge $-1 $302 -18.005207477634876 $299 18.005207477634876 $178 $390 forward 7 unknown #
coedge $-1 $386 $184 $179 $290 forward $176 $-1 #
edge $-1 $189 5.4582606801475606 $296 23.662944778117872 $289 $391 forward 7 unknown #
coedge $-1 $186 $392 $180 $292 forward $283 $-1 #
edge $-1 $297 -23.662944778117872 $188 -5.4582606801475606 $291 $393 forward 7 unknown #
coedge $-1 $394 $181 $392 $395 reversed $295 $-1 #
coedge $-1 $181 $394 $386 $396 reversed $295 $-1 #
loop $-1 $-1 $394 $282 #
vertex $-1 $396 $397 #
vertex $-1 $182 $398 #
straight-curve $-1 -62.423062837611013 38.223547507250579 0 0 0 1 I I #
vertex $-1 $185 $399 #
straight-curve $-1 -28.639771041071793 20.018863409280275 -18.005207477634876 -1 0 0 I I #
coedge $-1 $392 $186 $287 $389 forward $283 $-1 #
vertex $-1 $187 $400 #
straight-curve $-1 -28.639771041071793 20.018863409280275 18.005207477634876 1 0 0 I I #
point $-1 -62.423062837611013 20.018863409280275 18.005207477634876 #
point $-1 -62.423062837611013 20.018863409280275 -18.005207477634876 #
loop $-1 $-1 $199 $191 #
plane-surface $-1 62.923062837611013 0 0 -1 0 0 0 0 1 forward_v I I I I #
coedge $-1 $309 $194 $196 $313 reversed $111 $-1 #
coedge $-1 $194 $308 $401 $402 reversed $111 $-1 #
coedge $-1 $202 $197 $194 $311 forward $192 $-1 #
edge $-1 $314 13.817984593833245 $403 28.355941082960342 $310 $404 forward 7 unknown #
coedge $-1 $196 $195 $317 $405 reversed $69 $-1 #
edge $-1 $406 -125.84612567522198 $314 -104.52942239646558 $308 $407 forward 7 unknown #
vertex $-1 $198 $408 #
straight-curve $-1 48.385106348483916 -4.2518318129409582 18.005207477634869 0 -1 0 I I #
coedge $-1 $401 $199 $202 $321 reversed $306 $-1 #
coedge $-1 $199 $401 $312 $405 forward $306 $-1 #
vertex $-1 $200 $409 #
straight-curve $-1 62.923062837611013 -5.1292289772718931 90.140019277340841 0 0 1 I I #
straight-curve $-1 -22.903787377772318 -5.1292289772718931 94.45318833929835 0.68199835119979291 0 -0.73135370988377701 I I #
edge $-1 $403 -11.87809827449194 $203 -5.1292289772718931 $316 $410 forward 7 unknown #
point $-1 62.923062837611013 -5.1292289772718931 18.005207477634876 #
point $-1 48.385106348483916 -5.1292289772718931 18.005207477634883 #
edge $-1 $411 1 $411 0 $206 $-1 forward 7 unknown #
vertex $-1 $207 $412 #
ellipse-curve $-1 53.485869820891352 -8.5036636258819165 8.188289529030806 0.73135370988377701 0 0.68199835119979291 1.0229975267996894 0 -1.0970305648256655 1 I I #
point $-1 56.677082119847164 -8.5036636258819165 9.1131519001041106 #
plane-surface $-1 0 0 18.005207477634876 0 0 1 1 0 0 forward_v I I I I #
coedge $-1 $339 $338 $331 $413 forward $211 $-1 #
coedge $-1 $331 $213 $215 $335 reversed $126 $-1 #
coedge $-1 $213 $330 $329 $413 reversed $126 $-1 #
coedge $-1 $221 $216 $213 $333 forward $222 $-1 #
edge $-1 $336 -29.095440513858428 $414 -14.557484024731323 $332 $415 forward 7 unknown #
coedge $-1 $215 $214 $339 $416 reversed $78 $-1 #
edge $-1 $417 0 $336 21.316703278756428 $330 $418 forward 7 unknown #
vertex $-1 $217 $419 #
straight-curve $-1 -48.385106348483902 -4.2518318129409582 18.005207477634876 0 1 0 I I #
coedge $-1 $329 $218 $221 $343 reversed $211 $-1 #
coedge $-1 $218 $329 $334 $416 forward $211 $-1 #
vertex $-1 $219 $420 #
straight-curve $-1 -62.923062837611013 -11.87809827449194 44.121003833804011 0 0 1 I I #
straight-curve $-1 -62.923062837611013 -11.87809827449194 2.4151574522246904 -0.68199835119979291 0 -0.73135370988377701 I I #
edge $-1 $414 5.1292289772718931 $223 11.87809827449194 $338 $421 forward 7 unknown #
point $-1 -62.923062837611013 -11.87809827449194 18.005207477634876 #
point $-1 -48.385106348483909 -11.87809827449194 18.005207477634876 #
edge $-1 $422 1 $422 0 $226 $-1 forward 7 unknown #
vertex $-1 $227 $423 #
ellipse-curve $-1 -53.485869820891338 -8.5036636258819165 8.1882895290308131 -0.73135370988377701 0 0.68199835119979291 1.0229975267996894 0 1.0970305648256655 1 I I #
point $-1 -54.631087066247773 -8.5036636258819165 11.307213029755449 #
plane-surface $-1 62.923062837611013 0 0 -1 0 0 0 0 1 forward_v I I I I #
coedge $-1 $235 $233 $237 $355 reversed $141 $-1 #
edge $-1 $248 -18.005207477634876 $357 18.005207477634876 $247 $424 forward 7 unknown #
vertex $-1 $355 $425 #
straight-curve $-1 -62.923062837611013 -38.223547507250579 0 0 0 -1 I I #
edge $-1 $353 -38.223547507250579 $357 38.223547507250579 $351 $426 forward 7 unknown #
straight-curve $-1 0 -38.223547507250579 -18.005207477634876 -1 0 0 I I #
vertex $-1 $240 $427 #
straight-curve $-1 0 38.223547507250579 -18.005207477634876 1 0 0 I I #
point $-1 62.923062837611013 38.223547507250579 -18.005207477634876 #
point $-1 62.923062837611013 -38.223547507250579 -18.005207477634876 #
straight-curve $-1 -62.923062837611013 0 18.005207477634876 0 -1 0 I I #
point $-1 -62.923062837611013 38.223547507250579 18.005207477634876 #
point $-1 -62.923062837611013 -38.223547507250579 18.005207477634876 #
straight-curve $-1 62.923062837611013 -38.223547507250579 0 0 0 -1 I I #
straight-curve $-1 62.923062837611013 38.223547507250579 0 0 0 -1 I I #
loop $-1 $-1 $263 $257 #
plane-surface $-1 0 -38.223547507250579 0 0 1 0 0 0 1 forward_v I I I I #
coedge $-1 $274 $265 $261 $370 forward $258 $-1 #
edge $-1 $374 -23.662944778117868 $269 -5.4582606801475588 $260 $428 forward 7 unknown #
edge $-1 $270 5.4582606801475588 $373 23.662944778117868 $368 $429 forward 7 unknown #
coedge $-1 $272 $263 $277 $383 reversed $366 $-1 #
coedge $-1 $263 $272 $274 $381 reversed $366 $-1 #
vertex $-1 $381 $430 #
vertex $-1 $264 $431 #
straight-curve $-1 -52.136021326676158 -38.223547507250579 0 0 0 1 I I #
straight-curve $-1 -28.639771041071793 -20.018863409280272 -18.005207477634876 1 0 0 I I #
straight-curve $-1 -28.639771041071793 -20.018863409280272 18.005207477634876 -1 0 0 I I #
point $-1 -52.136021326676158 -20.018863409280272 18.005207477634876 #
point $-1 -52.136021326676158 -20.018863409280272 -18.005207477634876 #
straight-curve $-1 -62.423062837611013 -38.223547507250579 0 0 0 -1 I I #
edge $-1 $373 52.136021326676158 $275 62.423062837611013 $372 $432 forward 7 unknown #
point $-1 -62.423062837611013 -38.223547507250579 -18.005207477634876 #
edge $-1 $278 -62.423062837611013 $374 -52.136021326676158 $371 $433 forward 7 unknown #
point $-1 -62.423062837611013 -38.223547507250579 18.005207477634876 #
plane-surface $-1 0 38.223547507250579 0 0 -1 0 0 0 -1 forward_v I I I I #
coedge $-1 $285 $289 $294 $396 forward $176 $-1 #
edge $-1 $434 -23.662944778117872 $299 -5.4582606801475606 $285 $435 forward 7 unknown #
coedge $-1 $287 $286 $394 $436 reversed $103 $-1 #
edge $-1 $302 5.4582606801475606 $437 23.662944778117872 $301 $438 forward 7 unknown #
straight-curve $-1 -52.136021326676158 20.018863409280275 0 0 0 -1 I I #
straight-curve $-1 -62.423062837611013 14.560602729132714 -18.005207477634876 0 1 0 I I #
coedge $-1 $291 $301 $293 $395 forward $283 $-1 #
straight-curve $-1 -62.423062837611013 14.560602729132714 18.005207477634876 0 -1 0 I I #
coedge $-1 $294 $293 $388 $436 forward $295 $-1 #
edge $-1 $437 52.136021326676158 $297 62.423062837611013 $293 $439 forward 7 unknown #
edge $-1 $296 -62.423062837611013 $434 -52.136021326676158 $294 $440 forward 7 unknown #
point $-1 -62.423062837611013 38.223547507250586 -18.005207477634876 #
point $-1 -62.423062837611013 38.223547507250586 18.005207477634876 #
point $-1 -52.136021326676158 20.018863409280275 -18.005207477634876 #
point $-1 -52.136021326676158 20.018863409280275 18.005207477634876 #
coedge $-1 $317 $316 $309 $402 forward $306 $-1 #
edge $-1 $403 72.134811799705972 $406 87.724861825116136 $401 $441 forward 7 unknown #
vertex $-1 $321 $442 #
straight-curve $-1 34.567121754650671 -11.87809827449194 18.005207477634869 1 0 0 I I #
edge $-1 $406 -7.6262664615509816 $318 -0.87739716433093484 $317 $443 forward 7 unknown #
vertex $-1 $405 $444 #
straight-curve $-1 -22.903787377772318 -11.87809827449194 94.45318833929835 -0.68199835119979291 0 0.73135370988377701 I I #
point $-1 48.385106348483916 -11.87809827449194 18.005207477634883 #
point $-1 62.923062837611013 -5.1292289772718931 2.4151574522247046 #
straight-curve $-1 62.923062837611013 0 18.005207477634876 0 1 0 I I #
vertex $-1 $324 $445 #
point $-1 54.508867347691037 -8.5036636258819165 7.0912589642051405 #
edge $-1 $414 26.115796356169135 $417 41.70584638157932 $329 $446 forward 7 unknown #
vertex $-1 $343 $447 #
straight-curve $-1 -77.480546862342337 -5.1292289772718931 18.005207477634876 -1 0 0 I I #
edge $-1 $417 0.87739716433093484 $340 7.6262664615509816 $339 $448 forward 7 unknown #
vertex $-1 $416 $449 #
straight-curve $-1 -62.923062837611013 -5.1292289772718931 2.4151574522246904 0.68199835119979291 0 0.73135370988377701 I I #
point $-1 -48.385106348483909 -5.1292289772718931 18.005207477634876 #
point $-1 -62.923062837611013 -11.87809827449194 2.4151574522246904 #
straight-curve $-1 -62.923062837611013 0 18.005207477634876 0 -1 0 I I #
vertex $-1 $346 $450 #
point $-1 -52.462872294091646 -8.5036636258819165 9.2853200938564786 #
straight-curve $-1 -62.923062837611013 38.223547507250579 0 0 0 -1 I I #
point $-1 -62.923062837611013 -38.223547507250579 -18.005207477634876 #
straight-curve $-1 -62.923062837611013 0 -18.005207477634876 0 1 0 I I #
point $-1 -62.923062837611013 38.223547507250579 -18.005207477634876 #
straight-curve $-1 -52.136021326676158 -14.560602729132713 18.005207477634876 0 1 0 I I #
straight-curve $-1 -52.136021326676158 -14.560602729132713 -18.005207477634876 0 -1 0 I I #
point $-1 -52.136021326676158 -38.223547507250579 -18.005207477634876 #
point $-1 -52.136021326676158 -38.223547507250579 18.005207477634876 #
straight-curve $-1 0 -38.223547507250579 -18.005207477634876 -1 0 0 I I #
straight-curve $-1 0 -38.223547507250579 18.005207477634876 1 0 0 I I #
vertex $-1 $436 $451 #
straight-curve $-1 -52.136021326676158 14.560602729132714 -18.005207477634876 0 -1 0 I I #
edge $-1 $437 -18.005207477634876 $434 18.005207477634876 $394 $452 forward 7 unknown #
vertex $-1 $395 $453 #
straight-curve $-1 -52.136021326676158 14.560602729132714 18.005207477634876 0 1 0 I I #
straight-curve $-1 0 38.223547507250579 18.005207477634876 -1 0 0 I I #
straight-curve $-1 0 38.223547507250579 -18.005207477634876 1 0 0 I I #
straight-curve $-1 62.923062837611013 -11.87809827449194 90.140019277340841 0 0 -1 I I #
point $-1 62.923062837611013 -11.87809827449194 18.005207477634876 #
straight-curve $-1 62.923062837611006 -4.2518318129409582 2.4151574522247046 0 1 0 I I #
point $-1 62.923062837611013 -11.87809827449194 2.4151574522247046 #
point $-1 52.38883925606568 -8.5036636258819165 7.1652920022311175 #
straight-curve $-1 -62.923062837611013 -5.1292289772718931 44.121003833804011 0 0 -1 I I #
point $-1 -62.923062837611013 -5.1292289772718931 18.005207477634876 #
straight-curve $-1 -62.923062837611013 -4.2518318129409582 2.4151574522246908 0 -1 0 I I #
point $-1 -62.923062837611013 -5.1292289772718931 2.4151574522246904 #
point $-1 -52.388839256065665 -8.5036636258819165 7.1652920022311246 #
point $-1 -52.136021326676158 38.223547507250586 -18.005207477634876 #
straight-curve $-1 -52.136021326676158 38.223547507250579 0 0 0 -1 I I #
point $-1 -52.136021326676158 38.223547507250586 18.005207477634876 #
End-of-ACIS-data 