500 0 14 0           
7 Unknown 11 ACIS 5.0 NT 24 Fri Mar 26 01:36:12 1999 
-1 9.9999999999999995e-007 1e-010 
body $-1 $14 $-1 $15 #
body $-1 $16 $-1 $17 #
body $-1 $18 $-1 $19 #
body $-1 $20 $-1 $21 #
body $-1 $22 $-1 $23 #
body $-1 $24 $-1 $25 #
body $-1 $26 $-1 $27 #
body $-1 $28 $-1 $29 #
body $-1 $30 $-1 $31 #
body $-1 $32 $-1 $33 #
body $-1 $34 $-1 $35 #
body $-1 $36 $-1 $37 #
body $-1 $38 $-1 $39 #
body $-1 $40 $-1 $41 #
lump $-1 $-1 $42 $0 #
transform $-1 1 0 0 0 1 0 0 0 1 77.359538560136713 52.873250827652384 22.80890110245414 1 rotate no_reflect no_shear #
lump $-1 $-1 $43 $1 #
transform $-1 1 0 0 0 1 0 0 0 1 77.359538560136713 52.873250827652384 22.80890110245414 1 rotate no_reflect no_shear #
lump $-1 $-1 $44 $2 #
transform $-1 1 0 0 0 1 0 0 0 1 77.359538560136713 52.873250827652384 22.80890110245414 1 rotate no_reflect no_shear #
lump $-1 $-1 $45 $3 #
transform $-1 1 0 0 0 1 0 0 0 1 77.359538560136713 52.873250827652384 22.80890110245414 1 rotate no_reflect no_shear #
lump $-1 $-1 $46 $4 #
transform $-1 1 0 0 0 1 0 0 0 1 77.359538560136713 52.873250827652384 22.80890110245414 1 rotate no_reflect no_shear #
lump $-1 $-1 $47 $5 #
transform $-1 1 0 0 0 1 0 0 0 1 77.359538560136713 52.873250827652384 22.80890110245414 1 rotate no_reflect no_shear #
lump $-1 $-1 $48 $6 #
transform $-1 1 0 0 0 1 0 0 0 1 77.359538560136713 52.873250827652384 22.80890110245414 1 rotate no_reflect no_shear #
lump $-1 $-1 $49 $7 #
transform $-1 1 0 0 0 1 0 0 0 1 77.359538560136713 52.873250827652384 22.80890110245414 1 rotate no_reflect no_shear #
lump $-1 $-1 $50 $8 #
transform $-1 1 0 0 0 1 0 0 0 1 77.359538560136713 52.873250827652384 22.80890110245414 1 rotate no_reflect no_shear #
lump $-1 $-1 $51 $9 #
transform $-1 1 0 0 0 1 0 0 0 1 77.359538560136713 52.873250827652384 22.80890110245414 1 rotate no_reflect no_shear #
lump $-1 $-1 $52 $10 #
transform $-1 1 0 0 0 1 0 0 0 1 77.359538560136713 52.873250827652384 22.80890110245414 1 rotate no_reflect no_shear #
lump $-1 $-1 $53 $11 #
transform $-1 1 0 0 0 1 0 0 0 1 77.359538560136713 52.873250827652384 22.80890110245414 1 rotate no_reflect no_shear #
lump $-1 $-1 $54 $12 #
transform $-1 1 0 0 0 1 0 0 0 1 77.359538560136713 52.873250827652384 22.80890110245414 1 rotate no_reflect no_shear #
lump $-1 $-1 $55 $13 #
transform $-1 1 0 0 0 1 0 0 0 1 77.359538560136713 52.873250827652384 22.80890110245414 1 rotate no_reflect no_shear #
shell $-1 $-1 $-1 $56 $-1 $14 #
shell $-1 $-1 $-1 $57 $-1 $16 #
shell $-1 $-1 $-1 $58 $-1 $18 #
shell $-1 $-1 $-1 $59 $-1 $20 #
shell $-1 $-1 $-1 $60 $-1 $22 #
shell $-1 $-1 $-1 $61 $-1 $24 #
shell $-1 $-1 $-1 $62 $-1 $26 #
shell $-1 $-1 $-1 $63 $-1 $28 #
shell $-1 $-1 $-1 $64 $-1 $30 #
shell $-1 $-1 $-1 $65 $-1 $32 #
shell $-1 $-1 $-1 $66 $-1 $34 #
shell $-1 $-1 $-1 $67 $-1 $36 #
shell $-1 $-1 $-1 $68 $-1 $38 #
shell $-1 $-1 $-1 $69 $-1 $40 #
face $-1 $70 $71 $42 $-1 $72 forward single #
face $-1 $73 $74 $43 $-1 $75 forward single #
face $-1 $76 $77 $44 $-1 $78 reversed single #
face $-1 $79 $80 $45 $-1 $81 forward single #
face $-1 $82 $83 $46 $-1 $84 forward single #
face $-1 $85 $86 $47 $-1 $87 reversed single #
face $-1 $88 $89 $48 $-1 $90 forward single #
face $-1 $91 $92 $49 $-1 $93 forward single #
face $-1 $94 $95 $50 $-1 $96 reversed single #
face $-1 $97 $98 $51 $-1 $99 forward single #
face $-1 $100 $101 $52 $-1 $102 forward single #
face $-1 $103 $104 $53 $-1 $105 reversed single #
face $-1 $106 $107 $54 $-1 $108 forward single #
face $-1 $109 $110 $55 $-1 $111 forward single #
face $-1 $112 $113 $42 $-1 $114 reversed single #
loop $-1 $-1 $115 $56 #
plane-surface $-1 0 0 22.80890110245414 0 0 1 1 0 0 forward_v I I I I #
face $-1 $116 $117 $43 $-1 $118 reversed single #
loop $-1 $-1 $119 $57 #
plane-surface $-1 -77.359538560136713 0 0 1 0 0 0 0 -1 forward_v I I I I #
face $-1 $120 $121 $44 $-1 $122 reversed single #
loop $-1 $-1 $123 $58 #
plane-surface $-1 -48.481984707312122 51.723239389174523 195.95120882197855 1 0 0 0 -0.55919291073839883 -0.82903756765294845 forward_v I I I I #
face $-1 $124 $125 $45 $-1 $126 forward single #
loop $-1 $127 $128 $59 #
cone-surface $-1 -43.602600884151087 40.886429723083623 13.578345151818299 0 -0.55919291073839883 -0.82903756765294845 2 0 0 1 I I 0 1 2 forward I I I I #
face $-1 $129 $130 $46 $-1 $131 forward single #
loop $-1 $132 $133 $60 #
cone-surface $-1 -36.283525149409535 40.886429723083623 13.578345151818299 0 -0.55919291073839883 -0.82903756765294845 2 0 0 1 I I 0 1 2 forward I I I I #
face $-1 $134 $135 $47 $-1 $136 reversed single #
loop $-1 $-1 $137 $61 #
plane-surface $-1 -15.87236965528955 51.723239389174523 195.95120882197855 1 0 0 0 -0.55919291073839883 -0.82903756765294845 forward_v I I I I #
face $-1 $138 $139 $48 $-1 $140 forward single #
loop $-1 $141 $142 $62 #
cone-surface $-1 -10.992985832128511 40.886429723083623 13.578345151818299 0 -0.55919291073839883 -0.82903756765294845 2 0 0 1 I I 0 1 2 forward I I I I #
face $-1 $143 $144 $49 $-1 $145 forward single #
loop $-1 $146 $147 $63 #
cone-surface $-1 -3.6739100973869654 40.886429723083623 13.578345151818299 0 -0.55919291073839883 -0.82903756765294845 2 0 0 1 I I 0 1 2 forward I I I I #
face $-1 $148 $149 $50 $-1 $150 reversed single #
loop $-1 $-1 $151 $64 #
plane-surface $-1 16.737245396733027 51.723239389174523 195.95120882197855 1 0 0 0 -0.55919291073839883 -0.82903756765294845 forward_v I I I I #
face $-1 $152 $153 $51 $-1 $154 forward single #
loop $-1 $155 $156 $65 #
cone-surface $-1 21.616629219894065 40.886429723083623 13.578345151818299 0 -0.55919291073839883 -0.82903756765294845 2 0 0 1 I I 0 1 2 forward I I I I #
face $-1 $157 $158 $52 $-1 $159 forward single #
loop $-1 $160 $161 $66 #
cone-surface $-1 28.935704954635611 40.886429723083623 13.578345151818299 0 -0.55919291073839883 -0.82903756765294845 2 0 0 1 I I 0 1 2 forward I I I I #
face $-1 $162 $163 $53 $-1 $164 reversed single #
loop $-1 $-1 $165 $67 #
plane-surface $-1 49.346860448755606 51.723239389174523 195.95120882197855 1 0 0 0 -0.55919291073839883 -0.82903756765294845 forward_v I I I I #
face $-1 $166 $167 $54 $-1 $168 forward single #
loop $-1 $169 $170 $68 #
cone-surface $-1 54.226244271916642 40.886429723083623 13.578345151818299 0 -0.55919291073839883 -0.82903756765294845 2 0 0 1 I I 0 1 2 forward I I I I #
face $-1 $171 $172 $55 $-1 $173 forward single #
loop $-1 $174 $175 $69 #
cone-surface $-1 61.545320006658187 40.886429723083623 13.578345151818299 0 -0.55919291073839883 -0.82903756765294845 2 0 0 1 I I 0 1 2 forward I I I I #
face $-1 $176 $177 $42 $-1 $178 reversed single #
loop $-1 $-1 $179 $70 #
plane-surface $-1 0 0 -22.80890110245414 0 0 1 1 0 0 forward_v I I I I #
coedge $-1 $180 $181 $182 $183 forward $71 $-1 #
face $-1 $184 $185 $43 $-1 $186 reversed single #
loop $-1 $-1 $187 $73 #
plane-surface $-1 0 0 -22.80890110245414 0 0 1 1 0 0 forward_v I I I I #
coedge $-1 $188 $189 $190 $191 forward $74 $-1 #
face $-1 $192 $193 $44 $-1 $194 reversed single #
loop $-1 $-1 $195 $76 #
plane-surface $-1 -39.943063016780314 -34.794571692469972 67.683281456678117 0 0.55919291073839883 0.82903756765294845 1 0 0 forward_v I I I I #
coedge $-1 $196 $197 $198 $199 reversed $77 $-1 #
face $-1 $-1 $200 $45 $-1 $201 forward single #
loop $-1 $202 $203 $79 #
cone-surface $-1 -43.602600884151087 38.909825197174825 10.64790848693389 0 -0.55919291073839883 -0.82903756765294845 1 0 0 1 I I -0.70710678118654746 0.70710678118654746 1 forward I I I I #
loop $-1 $-1 $204 $59 #
coedge $-1 $128 $128 $205 $206 reversed $80 $-1 #
face $-1 $-1 $207 $46 $-1 $208 forward single #
loop $-1 $209 $210 $82 #
cone-surface $-1 -36.283525149409535 38.909825197174825 10.64790848693389 0 -0.55919291073839883 -0.82903756765294845 1 0 0 1 I I -0.70710678118654746 0.70710678118654746 1 forward I I I I #
loop $-1 $-1 $211 $60 #
coedge $-1 $133 $133 $212 $213 reversed $83 $-1 #
face $-1 $214 $215 $47 $-1 $216 reversed single #
loop $-1 $-1 $217 $85 #
plane-surface $-1 -7.3334479647577382 -34.794571692469972 67.683281456678117 0 0.55919291073839883 0.82903756765294845 1 0 0 forward_v I I I I #
coedge $-1 $218 $219 $220 $221 reversed $86 $-1 #
face $-1 $-1 $222 $48 $-1 $223 forward single #
loop $-1 $224 $225 $88 #
cone-surface $-1 -10.992985832128511 38.909825197174825 10.64790848693389 0 -0.55919291073839883 -0.82903756765294845 1 0 0 1 I I -0.70710678118654746 0.70710678118654746 1 forward I I I I #
loop $-1 $-1 $226 $62 #
coedge $-1 $142 $142 $227 $228 reversed $89 $-1 #
face $-1 $-1 $229 $49 $-1 $230 forward single #
loop $-1 $231 $232 $91 #
cone-surface $-1 -3.6739100973869654 38.909825197174825 10.64790848693389 0 -0.55919291073839883 -0.82903756765294845 1 0 0 1 I I -0.70710678118654746 0.70710678118654746 1 forward I I I I #
loop $-1 $-1 $233 $63 #
coedge $-1 $147 $147 $234 $235 reversed $92 $-1 #
face $-1 $236 $237 $50 $-1 $238 reversed single #
loop $-1 $-1 $239 $94 #
plane-surface $-1 25.276167087264838 -34.794571692469972 67.683281456678117 0 0.55919291073839883 0.82903756765294845 1 0 0 forward_v I I I I #
coedge $-1 $240 $241 $242 $243 reversed $95 $-1 #
face $-1 $-1 $244 $51 $-1 $245 forward single #
loop $-1 $246 $247 $97 #
cone-surface $-1 21.616629219894065 38.909825197174825 10.64790848693389 0 -0.55919291073839883 -0.82903756765294845 1 0 0 1 I I -0.70710678118654746 0.70710678118654746 1 forward I I I I #
loop $-1 $-1 $248 $65 #
coedge $-1 $156 $156 $249 $250 reversed $98 $-1 #
face $-1 $-1 $251 $52 $-1 $252 forward single #
loop $-1 $253 $254 $100 #
cone-surface $-1 28.935704954635611 38.909825197174825 10.64790848693389 0 -0.55919291073839883 -0.82903756765294845 1 0 0 1 I I -0.70710678118654746 0.70710678118654746 1 forward I I I I #
loop $-1 $-1 $255 $66 #
coedge $-1 $161 $161 $256 $257 reversed $101 $-1 #
face $-1 $258 $259 $53 $-1 $260 reversed single #
loop $-1 $-1 $261 $103 #
plane-surface $-1 57.885782139287414 -34.794571692469972 67.683281456678117 0 0.55919291073839883 0.82903756765294845 1 0 0 forward_v I I I I #
coedge $-1 $262 $263 $264 $265 reversed $104 $-1 #
face $-1 $-1 $266 $54 $-1 $267 forward single #
loop $-1 $268 $269 $106 #
cone-surface $-1 54.226244271916642 38.909825197174825 10.64790848693389 0 -0.55919291073839883 -0.82903756765294845 1 0 0 1 I I -0.70710678118654746 0.70710678118654746 1 forward I I I I #
loop $-1 $-1 $270 $68 #
coedge $-1 $170 $170 $271 $272 reversed $107 $-1 #
face $-1 $-1 $273 $55 $-1 $274 forward single #
loop $-1 $275 $276 $109 #
cone-surface $-1 61.545320006658187 38.909825197174825 10.64790848693389 0 -0.55919291073839883 -0.82903756765294845 1 0 0 1 I I -0.70710678118654746 0.70710678118654746 1 forward I I I I #
loop $-1 $-1 $277 $69 #
coedge $-1 $175 $175 $278 $279 reversed $110 $-1 #
face $-1 $280 $281 $42 $-1 $282 reversed single #
loop $-1 $-1 $283 $112 #
plane-surface $-1 0 -52.873250827652384 0 0 1 0 0 0 1 forward_v I I I I #
coedge $-1 $284 $285 $286 $287 forward $113 $-1 #
coedge $-1 $288 $115 $289 $290 forward $71 $-1 #
coedge $-1 $115 $288 $291 $292 forward $71 $-1 #
coedge $-1 $293 $294 $115 $183 reversed $295 $-1 #
edge $-1 $296 -52.873250827652384 $297 52.873250827652384 $182 $298 forward 7 unknown #
face $-1 $299 $300 $43 $-1 $301 reversed single #
loop $-1 $-1 $302 $116 #
plane-surface $-1 -86.330898121390234 -44.252066165948825 0 0 1 0 0 0 1 forward_v I I I I #
coedge $-1 $303 $304 $189 $305 forward $117 $-1 #
coedge $-1 $306 $119 $307 $308 reversed $74 $-1 #
coedge $-1 $119 $306 $187 $305 reversed $74 $-1 #
coedge $-1 $309 $310 $119 $191 reversed $311 $-1 #
edge $-1 $312 -22.80890110245414 $313 22.80890110245414 $190 $314 forward 7 unknown #
face $-1 $315 $316 $44 $-1 $317 forward single #
loop $-1 $-1 $318 $120 #
plane-surface $-1 -31.404141326248503 51.723239389174523 195.95120882197855 -1 0 0 0 0.55919291073839883 0.82903756765294845 forward_v I I I I #
coedge $-1 $319 $320 $321 $322 reversed $121 $-1 #
coedge $-1 $197 $123 $323 $324 reversed $77 $-1 #
coedge $-1 $123 $196 $319 $325 reversed $77 $-1 #
coedge $-1 $321 $326 $123 $199 forward $316 $-1 #
edge $-1 $327 -27.011631133065123 $328 -5.8728121542683454 $198 $329 forward 7 unknown #
loop $-1 $-1 $205 $124 #
plane-surface $-1 -39.943063016780314 -34.794571692469972 67.683281456678117 0 0.55919291073839883 0.82903756765294845 1 0 0 forward_v I I I I #
loop $-1 $-1 $330 $79 #
coedge $-1 $203 $203 $204 $331 reversed $125 $-1 #
coedge $-1 $204 $204 $203 $331 forward $127 $-1 #
coedge $-1 $205 $205 $128 $206 forward $200 $-1 #
edge $-1 $332 -6.9290695525480548e-017 $332 6.2831853071796004 $205 $333 forward 7 unknown #
loop $-1 $-1 $212 $129 #
plane-surface $-1 -39.943063016780314 -34.794571692469972 67.683281456678117 0 0.55919291073839883 0.82903756765294845 1 0 0 forward_v I I I I #
loop $-1 $-1 $334 $82 #
coedge $-1 $210 $210 $211 $335 reversed $130 $-1 #
coedge $-1 $211 $211 $210 $335 forward $132 $-1 #
coedge $-1 $212 $212 $133 $213 forward $207 $-1 #
edge $-1 $336 -6.9290695525480548e-017 $336 6.2831853071796004 $212 $337 forward 7 unknown #
face $-1 $338 $339 $47 $-1 $340 forward single #
loop $-1 $-1 $341 $134 #
plane-surface $-1 1.2054737257740733 51.723239389174523 195.95120882197855 -1 0 0 0 0.55919291073839883 0.82903756765294845 forward_v I I I I #
coedge $-1 $342 $343 $344 $345 reversed $135 $-1 #
coedge $-1 $219 $137 $346 $347 reversed $86 $-1 #
coedge $-1 $137 $218 $342 $348 reversed $86 $-1 #
coedge $-1 $344 $349 $137 $221 forward $339 $-1 #
edge $-1 $350 -27.011631133065123 $351 -5.8728121542683454 $220 $352 forward 7 unknown #
loop $-1 $-1 $227 $138 #
plane-surface $-1 -7.3334479647577382 -34.794571692469972 67.683281456678117 0 0.55919291073839883 0.82903756765294845 1 0 0 forward_v I I I I #
loop $-1 $-1 $353 $88 #
coedge $-1 $225 $225 $226 $354 reversed $139 $-1 #
coedge $-1 $226 $226 $225 $354 forward $141 $-1 #
coedge $-1 $227 $227 $142 $228 forward $222 $-1 #
edge $-1 $355 -6.9290695525480548e-017 $355 6.2831853071796004 $227 $356 forward 7 unknown #
loop $-1 $-1 $234 $143 #
plane-surface $-1 -7.3334479647577382 -34.794571692469972 67.683281456678117 0 0.55919291073839883 0.82903756765294845 1 0 0 forward_v I I I I #
loop $-1 $-1 $357 $91 #
coedge $-1 $232 $232 $233 $358 reversed $144 $-1 #
coedge $-1 $233 $233 $232 $358 forward $146 $-1 #
coedge $-1 $234 $234 $147 $235 forward $229 $-1 #
edge $-1 $359 -6.9290695525480548e-017 $359 6.2831853071796004 $234 $360 forward 7 unknown #
face $-1 $361 $362 $50 $-1 $363 forward single #
loop $-1 $-1 $364 $148 #
plane-surface $-1 33.815088777796646 51.723239389174523 195.95120882197855 -1 0 0 0 0.55919291073839883 0.82903756765294845 forward_v I I I I #
coedge $-1 $365 $366 $367 $368 reversed $149 $-1 #
coedge $-1 $241 $151 $369 $370 reversed $95 $-1 #
coedge $-1 $151 $240 $365 $371 reversed $95 $-1 #
coedge $-1 $367 $372 $151 $243 forward $362 $-1 #
edge $-1 $373 -27.011631133065123 $374 -5.8728121542683454 $242 $375 forward 7 unknown #
loop $-1 $-1 $249 $152 #
plane-surface $-1 25.276167087264838 -34.794571692469972 67.683281456678117 0 0.55919291073839883 0.82903756765294845 1 0 0 forward_v I I I I #
loop $-1 $-1 $376 $97 #
coedge $-1 $247 $247 $248 $377 reversed $153 $-1 #
coedge $-1 $248 $248 $247 $377 forward $155 $-1 #
coedge $-1 $249 $249 $156 $250 forward $244 $-1 #
edge $-1 $378 -6.9290695525480548e-017 $378 6.2831853071796004 $249 $379 forward 7 unknown #
loop $-1 $-1 $256 $157 #
plane-surface $-1 25.276167087264838 -34.794571692469972 67.683281456678117 0 0.55919291073839883 0.82903756765294845 1 0 0 forward_v I I I I #
loop $-1 $-1 $380 $100 #
coedge $-1 $254 $254 $255 $381 reversed $158 $-1 #
coedge $-1 $255 $255 $254 $381 forward $160 $-1 #
coedge $-1 $256 $256 $161 $257 forward $251 $-1 #
edge $-1 $382 -6.9290695525480548e-017 $382 6.2831853071796004 $256 $383 forward 7 unknown #
face $-1 $384 $385 $53 $-1 $386 forward single #
loop $-1 $-1 $387 $162 #
plane-surface $-1 66.424703829819222 51.723239389174523 195.95120882197855 -1 0 0 0 0.55919291073839883 0.82903756765294845 forward_v I I I I #
coedge $-1 $388 $389 $390 $391 reversed $163 $-1 #
coedge $-1 $263 $165 $392 $393 reversed $104 $-1 #
coedge $-1 $165 $262 $388 $394 reversed $104 $-1 #
coedge $-1 $390 $395 $165 $265 forward $385 $-1 #
edge $-1 $396 -27.011631133065123 $397 -5.8728121542683454 $264 $398 forward 7 unknown #
loop $-1 $-1 $271 $166 #
plane-surface $-1 57.885782139287414 -34.794571692469972 67.683281456678117 0 0.55919291073839883 0.82903756765294845 1 0 0 forward_v I I I I #
loop $-1 $-1 $399 $106 #
coedge $-1 $269 $269 $270 $400 reversed $167 $-1 #
coedge $-1 $270 $270 $269 $400 forward $169 $-1 #
coedge $-1 $271 $271 $170 $272 forward $266 $-1 #
edge $-1 $401 -6.9290695525480548e-017 $401 6.2831853071796004 $271 $402 forward 7 unknown #
loop $-1 $-1 $278 $171 #
plane-surface $-1 57.885782139287414 -34.794571692469972 67.683281456678117 0 0.55919291073839883 0.82903756765294845 1 0 0 forward_v I I I I #
loop $-1 $-1 $403 $109 #
coedge $-1 $276 $276 $277 $404 reversed $172 $-1 #
coedge $-1 $277 $277 $276 $404 forward $174 $-1 #
coedge $-1 $278 $278 $175 $279 forward $273 $-1 #
edge $-1 $405 -6.9290695525480548e-017 $405 6.2831853071796004 $278 $406 forward 7 unknown #
face $-1 $407 $408 $42 $-1 $409 reversed single #
loop $-1 $-1 $410 $176 #
plane-surface $-1 -77.359538560136713 0 0 1 0 0 0 0 -1 forward_v I I I I #
coedge $-1 $411 $291 $412 $413 forward $177 $-1 #
coedge $-1 $414 $179 $411 $415 forward $113 $-1 #
coedge $-1 $179 $414 $416 $417 forward $113 $-1 #
coedge $-1 $294 $293 $179 $287 reversed $295 $-1 #
edge $-1 $418 -52.873250827652384 $419 52.873250827652384 $286 $420 forward 7 unknown #
coedge $-1 $181 $180 $421 $422 forward $71 $-1 #
coedge $-1 $423 $424 $180 $290 reversed $408 $-1 #
edge $-1 $297 -77.359538560136713 $425 77.359538560136713 $289 $426 forward 7 unknown #
coedge $-1 $283 $427 $181 $292 reversed $177 $-1 #
edge $-1 $428 -77.359538560136713 $296 77.359538560136713 $291 $429 forward 7 unknown #
coedge $-1 $286 $182 $427 $430 forward $295 $-1 #
coedge $-1 $182 $286 $423 $431 reversed $295 $-1 #
loop $-1 $-1 $293 $407 #
vertex $-1 $183 $432 #
vertex $-1 $183 $433 #
straight-curve $-1 77.359538560136713 0 22.80890110245414 0 1 0 I I #
face $-1 $434 $311 $43 $-1 $435 reversed single #
loop $-1 $-1 $436 $184 #
plane-surface $-1 -95.302257682643756 -41.684663903423065 0 1 0 0 0 0 -1 forward_v I I I I #
coedge $-1 $437 $438 $439 $440 forward $185 $-1 #
coedge $-1 $441 $187 $437 $442 forward $117 $-1 #
coedge $-1 $187 $441 $309 $443 forward $117 $-1 #
edge $-1 $312 39.117261640897304 $444 44.252066165948825 $187 $445 forward 7 unknown #
coedge $-1 $189 $188 $446 $447 forward $74 $-1 #
coedge $-1 $448 $449 $188 $308 forward $450 $-1 #
edge $-1 $451 -44.252066165948825 $313 -39.117261640897304 $307 $452 forward 7 unknown #
coedge $-1 $453 $190 $304 $443 reversed $311 $-1 #
coedge $-1 $190 $453 $448 $454 reversed $311 $-1 #
loop $-1 $-1 $190 $299 #
vertex $-1 $305 $455 #
vertex $-1 $454 $456 #
straight-curve $-1 -77.359538560136713 -39.117261640897304 0 0 0 1 I I #
face $-1 $-1 $457 $44 $-1 $458 reversed single #
loop $-1 $-1 $198 $192 #
plane-surface $-1 0 0 22.80890110245414 0 0 1 1 0 0 forward_v I I I I #
coedge $-1 $459 $460 $461 $462 reversed $193 $-1 #
coedge $-1 $463 $195 $197 $325 forward $121 $-1 #
coedge $-1 $195 $463 $459 $464 forward $121 $-1 #
coedge $-1 $461 $198 $195 $322 forward $316 $-1 #
edge $-1 $328 -28.510453198921965 $465 -11.432609817858346 $321 $466 forward 7 unknown #
coedge $-1 $467 $468 $196 $324 forward $457 $-1 #
edge $-1 $469 -89.42501701534394 $327 -75.166703308535133 $323 $470 forward 7 unknown #
edge $-1 $328 80.248478642135481 $469 105.74650165530477 $197 $471 forward 7 unknown #
coedge $-1 $198 $461 $467 $472 forward $316 $-1 #
vertex $-1 $324 $473 #
vertex $-1 $199 $474 #
straight-curve $-1 -48.481984707312122 25.861619694587262 22.808901102454143 0 -1 0 I I #
coedge $-1 $330 $330 $-1 $475 reversed $202 $-1 #
edge $-1 $476 0 $476 6.2831853071796004 $203 $477 forward 7 unknown #
vertex $-1 $206 $478 #
ellipse-curve $-1 -43.602600884151087 42.303841338254003 15.679744249049737 0 0.55919291073839883 0.82903756765294845 2 0 0 1 I I #
coedge $-1 $334 $334 $-1 $479 reversed $209 $-1 #
edge $-1 $480 0 $480 6.2831853071796004 $210 $481 forward 7 unknown #
vertex $-1 $213 $482 #
ellipse-curve $-1 -36.283525149409535 42.303841338254003 15.679744249049737 0 0.55919291073839883 0.82903756765294845 2 0 0 1 I I #
face $-1 $-1 $483 $47 $-1 $484 reversed single #
loop $-1 $-1 $220 $214 #
plane-surface $-1 0 0 22.80890110245414 0 0 1 1 0 0 forward_v I I I I #
coedge $-1 $485 $486 $487 $488 reversed $215 $-1 #
coedge $-1 $489 $217 $219 $348 forward $135 $-1 #
coedge $-1 $217 $489 $485 $490 forward $135 $-1 #
coedge $-1 $487 $220 $217 $345 forward $339 $-1 #
edge $-1 $351 -12.205645672910681 $491 4.8721977081529424 $344 $492 forward 7 unknown #
coedge $-1 $493 $494 $218 $347 forward $483 $-1 #
edge $-1 $495 -89.42501701534394 $350 -75.166703308535133 $346 $496 forward 7 unknown #
edge $-1 $351 80.248478642135481 $495 105.74650165530477 $219 $497 forward 7 unknown #
coedge $-1 $220 $487 $493 $498 forward $339 $-1 #
vertex $-1 $221 $499 #
vertex $-1 $221 $500 #
straight-curve $-1 -15.87236965528955 25.861619694587262 22.808901102454143 0 -1 0 I I #
coedge $-1 $353 $353 $-1 $501 reversed $224 $-1 #
edge $-1 $502 0 $502 6.2831853071796004 $225 $503 forward 7 unknown #
vertex $-1 $228 $504 #
ellipse-curve $-1 -10.992985832128511 42.303841338254003 15.679744249049737 0 0.55919291073839883 0.82903756765294845 2 0 0 1 I I #
coedge $-1 $357 $357 $-1 $505 reversed $231 $-1 #
edge $-1 $506 0 $506 6.2831853071796004 $232 $507 forward 7 unknown #
vertex $-1 $235 $508 #
ellipse-curve $-1 -3.6739100973869654 42.303841338254003 15.679744249049737 0 0.55919291073839883 0.82903756765294845 2 0 0 1 I I #
face $-1 $-1 $509 $50 $-1 $510 reversed single #
loop $-1 $-1 $242 $236 #
plane-surface $-1 0 0 22.80890110245414 0 0 1 1 0 0 forward_v I I I I #
coedge $-1 $511 $512 $513 $514 reversed $237 $-1 #
coedge $-1 $515 $239 $241 $371 forward $149 $-1 #
coedge $-1 $239 $515 $511 $516 forward $149 $-1 #
coedge $-1 $513 $242 $239 $368 forward $362 $-1 #
edge $-1 $374 4.0991618531006075 $517 21.177005234164227 $367 $518 forward 7 unknown #
coedge $-1 $519 $520 $240 $370 forward $509 $-1 #
edge $-1 $521 -89.42501701534394 $373 -75.166703308535133 $369 $522 forward 7 unknown #
edge $-1 $374 80.248478642135481 $521 105.74650165530477 $241 $523 forward 7 unknown #
coedge $-1 $242 $513 $519 $524 forward $362 $-1 #
vertex $-1 $243 $525 #
vertex $-1 $243 $526 #
straight-curve $-1 16.737245396733027 25.861619694587262 22.808901102454143 0 -1 0 I I #
coedge $-1 $376 $376 $-1 $527 reversed $246 $-1 #
edge $-1 $528 0 $528 6.2831853071796004 $247 $529 forward 7 unknown #
vertex $-1 $250 $530 #
ellipse-curve $-1 21.616629219894065 42.303841338254003 15.679744249049737 0 0.55919291073839883 0.82903756765294845 2 0 0 1 I I #
coedge $-1 $380 $380 $-1 $531 reversed $253 $-1 #
edge $-1 $532 0 $532 6.2831853071796004 $254 $533 forward 7 unknown #
vertex $-1 $257 $534 #
ellipse-curve $-1 28.935704954635611 42.303841338254003 15.679744249049737 0 0.55919291073839883 0.82903756765294845 2 0 0 1 I I #
face $-1 $-1 $535 $53 $-1 $536 reversed single #
loop $-1 $-1 $264 $258 #
plane-surface $-1 0 0 22.80890110245414 0 0 1 1 0 0 forward_v I I I I #
coedge $-1 $537 $538 $539 $540 reversed $259 $-1 #
coedge $-1 $541 $261 $263 $394 forward $163 $-1 #
coedge $-1 $261 $541 $537 $542 forward $163 $-1 #
coedge $-1 $539 $264 $261 $391 forward $385 $-1 #
edge $-1 $397 20.403969379111899 $543 37.481812760175515 $390 $544 forward 7 unknown #
coedge $-1 $545 $546 $262 $393 forward $535 $-1 #
edge $-1 $547 -89.42501701534394 $396 -75.166703308535133 $392 $548 forward 7 unknown #
edge $-1 $397 80.248478642135481 $547 105.74650165530477 $263 $549 forward 7 unknown #
coedge $-1 $264 $539 $545 $550 forward $385 $-1 #
vertex $-1 $265 $551 #
vertex $-1 $265 $552 #
straight-curve $-1 49.346860448755606 25.861619694587262 22.808901102454143 0 -1 0 I I #
coedge $-1 $399 $399 $-1 $553 reversed $268 $-1 #
edge $-1 $554 0 $554 6.2831853071796004 $269 $555 forward 7 unknown #
vertex $-1 $272 $556 #
ellipse-curve $-1 54.226244271916642 42.303841338254003 15.679744249049737 0 0.55919291073839883 0.82903756765294845 2 0 0 1 I I #
coedge $-1 $403 $403 $-1 $557 reversed $275 $-1 #
edge $-1 $558 0 $558 6.2831853071796004 $276 $559 forward 7 unknown #
vertex $-1 $279 $560 #
ellipse-curve $-1 61.545320006658187 42.303841338254003 15.679744249049737 0 0.55919291073839883 0.82903756765294845 2 0 0 1 I I #
face $-1 $-1 $295 $42 $-1 $561 reversed single #
loop $-1 $-1 $423 $280 #
plane-surface $-1 0 52.873250827652384 0 0 -1 0 0 0 -1 forward_v I I I I #
coedge $-1 $562 $421 $424 $563 forward $281 $-1 #
coedge $-1 $427 $283 $284 $415 reversed $177 $-1 #
coedge $-1 $421 $562 $283 $413 reversed $281 $-1 #
edge $-1 $428 -22.80890110245414 $564 22.80890110245414 $412 $565 forward 7 unknown #
coedge $-1 $285 $284 $562 $566 forward $113 $-1 #
edge $-1 $419 -77.359538560136713 $564 77.359538560136713 $411 $567 forward 7 unknown #
coedge $-1 $424 $423 $285 $417 reversed $408 $-1 #
edge $-1 $568 -77.359538560136713 $418 77.359538560136713 $416 $569 forward 7 unknown #
vertex $-1 $287 $570 #
vertex $-1 $430 $571 #
straight-curve $-1 77.359538560136713 0 -22.80890110245414 0 -1 0 I I #
coedge $-1 $410 $412 $288 $422 reversed $281 $-1 #
edge $-1 $425 -52.873250827652384 $428 52.873250827652384 $421 $572 forward 7 unknown #
coedge $-1 $416 $289 $294 $431 forward $408 $-1 #
coedge $-1 $289 $416 $410 $563 reversed $408 $-1 #
vertex $-1 $290 $573 #
straight-curve $-1 0 52.873250827652384 22.80890110245414 -1 0 0 I I #
coedge $-1 $291 $411 $293 $430 reversed $177 $-1 #
vertex $-1 $422 $574 #
straight-curve $-1 0 -52.873250827652384 22.80890110245414 1 0 0 I I #
edge $-1 $296 -22.80890110245414 $419 22.80890110245414 $293 $575 forward 7 unknown #
edge $-1 $297 -22.80890110245414 $418 22.80890110245414 $294 $576 forward 7 unknown #
point $-1 77.359538560136713 -52.873250827652384 22.80890110245414 #
point $-1 77.359538560136713 52.873250827652384 22.80890110245414 #
face $-1 $-1 $450 $43 $-1 $577 forward single #
plane-surface $-1 -86.330898121390234 -39.117261640897304 0 0 -1 0 0 0 -1 forward_v I I I I #
coedge $-1 $578 $579 $453 $580 forward $300 $-1 #
coedge $-1 $446 $302 $303 $442 reversed $185 $-1 #
coedge $-1 $302 $446 $449 $581 reversed $185 $-1 #
coedge $-1 $579 $578 $302 $440 reversed $300 $-1 #
edge $-1 $582 -22.80890110245414 $583 22.80890110245414 $439 $584 forward 7 unknown #
coedge $-1 $304 $303 $578 $585 forward $117 $-1 #
edge $-1 $444 -8.9713595612535215 $583 8.9713595612535215 $437 $586 forward 7 unknown #
edge $-1 $587 -8.9713595612535215 $312 8.9713595612535215 $309 $588 forward 7 unknown #
vertex $-1 $442 $589 #
straight-curve $-1 -77.359538560136713 0 -22.80890110245414 0 -1 0 I I #
coedge $-1 $438 $437 $306 $447 reversed $185 $-1 #
edge $-1 $451 -22.80890110245414 $444 22.80890110245414 $446 $590 forward 7 unknown #
coedge $-1 $591 $307 $310 $454 forward $450 $-1 #
coedge $-1 $307 $591 $438 $581 forward $450 $-1 #
loop $-1 $-1 $307 $434 #
vertex $-1 $308 $592 #
straight-curve $-1 -77.359538560136713 0 22.80890110245414 0 1 0 I I #
coedge $-1 $310 $309 $436 $580 reversed $311 $-1 #
edge $-1 $313 -8.9713595612535215 $593 8.9713595612535215 $310 $594 forward 7 unknown #
point $-1 -77.359538560136713 -39.117261640897304 -22.80890110245414 #
point $-1 -77.359538560136713 -39.117261640897304 22.80890110245414 #
loop $-1 $-1 $323 $315 #
plane-surface $-1 0 52.873250827652384 0 0 -1 0 0 0 -1 forward_v I I I I #
coedge $-1 $460 $318 $320 $464 reversed $193 $-1 #
coedge $-1 $318 $459 $595 $596 reversed $193 $-1 #
coedge $-1 $326 $321 $318 $462 forward $316 $-1 #
edge $-1 $465 5.8728121542683454 $597 27.011631133065123 $461 $598 forward 7 unknown #
coedge $-1 $320 $319 $468 $599 reversed $121 $-1 #
edge $-1 $600 -105.74650165530477 $465 -80.248478642135481 $459 $601 forward 7 unknown #
vertex $-1 $322 $602 #
straight-curve $-1 -19.971531508390157 31.734431848855621 22.80890110245414 1 0 0 I I #
coedge $-1 $595 $323 $326 $472 reversed $457 $-1 #
coedge $-1 $323 $595 $463 $599 forward $457 $-1 #
vertex $-1 $324 $603 #
straight-curve $-1 -48.481984707312122 52.873250827652384 97.975604410989277 0 0 1 I I #
straight-curve $-1 -48.481984707312122 -34.794571692469972 67.683281456678117 0 0.82903756765294845 -0.55919291073839883 I I #
edge $-1 $597 31.404141326248503 $327 48.481984707312122 $467 $604 forward 7 unknown #
point $-1 -48.481984707312122 52.873250827652384 22.80890110245414 #
point $-1 -48.481984707312122 31.734431848855607 22.808901102454143 #
edge $-1 $605 1 $605 0 $330 $-1 forward 7 unknown #
vertex $-1 $331 $606 #
ellipse-curve $-1 -43.602600884151087 39.469018107913222 11.476946054586838 0 0.55919291073839883 0.82903756765294845 2 0 0 1 I I #
point $-1 -41.602600884151087 42.303841338254017 15.679744249049758 #
edge $-1 $607 1 $607 0 $334 $-1 forward 7 unknown #
vertex $-1 $335 $608 #
ellipse-curve $-1 -36.283525149409535 39.469018107913222 11.476946054586838 0 0.55919291073839883 0.82903756765294845 2 0 0 1 I I #
point $-1 -34.283525149409535 42.303841338254017 15.679744249049758 #
loop $-1 $-1 $346 $338 #
plane-surface $-1 0 52.873250827652384 0 0 -1 0 0 0 -1 forward_v I I I I #
coedge $-1 $486 $341 $343 $490 reversed $215 $-1 #
coedge $-1 $341 $485 $609 $610 reversed $215 $-1 #
coedge $-1 $349 $344 $341 $488 forward $339 $-1 #
edge $-1 $491 5.8728121542683454 $611 27.011631133065123 $487 $612 forward 7 unknown #
coedge $-1 $343 $342 $494 $613 reversed $135 $-1 #
edge $-1 $614 -105.74650165530477 $491 -80.248478642135481 $485 $615 forward 7 unknown #
vertex $-1 $345 $616 #
straight-curve $-1 -3.6667239823788691 31.734431848855621 22.80890110245414 1 0 0 I I #
coedge $-1 $609 $346 $349 $498 reversed $483 $-1 #
coedge $-1 $346 $609 $489 $613 forward $483 $-1 #
vertex $-1 $347 $617 #
straight-curve $-1 -15.87236965528955 52.873250827652384 97.975604410989277 0 0 1 I I #
straight-curve $-1 -15.87236965528955 -34.794571692469972 67.683281456678117 0 0.82903756765294845 -0.55919291073839883 I I #
edge $-1 $611 -1.2054737257740733 $350 15.87236965528955 $493 $618 forward 7 unknown #
point $-1 -15.87236965528955 52.873250827652384 22.80890110245414 #
point $-1 -15.87236965528955 31.734431848855607 22.808901102454143 #
edge $-1 $619 1 $619 0 $353 $-1 forward 7 unknown #
vertex $-1 $354 $620 #
ellipse-curve $-1 -10.992985832128511 39.469018107913222 11.476946054586838 0 0.55919291073839883 0.82903756765294845 2 0 0 1 I I #
point $-1 -8.992985832128511 42.303841338254017 15.679744249049758 #
edge $-1 $621 1 $621 0 $357 $-1 forward 7 unknown #
vertex $-1 $358 $622 #
ellipse-curve $-1 -3.6739100973869654 39.469018107913222 11.476946054586838 0 0.55919291073839883 0.82903756765294845 2 0 0 1 I I #
point $-1 -1.6739100973869654 42.303841338254017 15.679744249049758 #
loop $-1 $-1 $369 $361 #
plane-surface $-1 0 52.873250827652384 0 0 -1 0 0 0 -1 forward_v I I I I #
coedge $-1 $512 $364 $366 $516 reversed $237 $-1 #
coedge $-1 $364 $511 $623 $624 reversed $237 $-1 #
coedge $-1 $372 $367 $364 $514 forward $362 $-1 #
edge $-1 $517 5.8728121542683454 $625 27.011631133065123 $513 $626 forward 7 unknown #
coedge $-1 $366 $365 $520 $627 reversed $149 $-1 #
edge $-1 $628 -105.74650165530477 $517 -80.248478642135481 $511 $629 forward 7 unknown #
vertex $-1 $368 $630 #
straight-curve $-1 12.638083543632419 31.734431848855621 22.80890110245414 1 0 0 I I #
coedge $-1 $623 $369 $372 $524 reversed $509 $-1 #
coedge $-1 $369 $623 $515 $627 forward $509 $-1 #
vertex $-1 $370 $631 #
straight-curve $-1 16.737245396733027 52.873250827652384 97.975604410989277 0 0 1 I I #
straight-curve $-1 16.737245396733027 -34.794571692469972 67.683281456678117 0 0.82903756765294845 -0.55919291073839883 I I #
edge $-1 $625 -33.815088777796646 $373 -16.737245396733027 $519 $632 forward 7 unknown #
point $-1 16.737245396733027 52.873250827652384 22.80890110245414 #
point $-1 16.737245396733027 31.734431848855607 22.808901102454143 #
edge $-1 $633 1 $633 0 $376 $-1 forward 7 unknown #
vertex $-1 $377 $634 #
ellipse-curve $-1 21.616629219894065 39.469018107913222 11.476946054586838 0 0.55919291073839883 0.82903756765294845 2 0 0 1 I I #
point $-1 23.616629219894065 42.303841338254017 15.679744249049758 #
edge $-1 $635 1 $635 0 $380 $-1 forward 7 unknown #
vertex $-1 $381 $636 #
ellipse-curve $-1 28.935704954635611 39.469018107913222 11.476946054586838 0 0.55919291073839883 0.82903756765294845 2 0 0 1 I I #
point $-1 30.935704954635611 42.303841338254017 15.679744249049758 #
loop $-1 $-1 $392 $384 #
plane-surface $-1 0 52.873250827652384 0 0 -1 0 0 0 -1 forward_v I I I I #
coedge $-1 $538 $387 $389 $542 reversed $259 $-1 #
coedge $-1 $387 $537 $637 $638 reversed $259 $-1 #
coedge $-1 $395 $390 $387 $540 forward $385 $-1 #
edge $-1 $543 5.8728121542683454 $639 27.011631133065123 $539 $640 forward 7 unknown #
coedge $-1 $389 $388 $546 $641 reversed $163 $-1 #
edge $-1 $642 -105.74650165530477 $543 -80.248478642135481 $537 $643 forward 7 unknown #
vertex $-1 $391 $644 #
straight-curve $-1 28.942891069643707 31.734431848855621 22.80890110245414 1 0 0 I I #
coedge $-1 $637 $392 $395 $550 reversed $535 $-1 #
coedge $-1 $392 $637 $541 $641 forward $535 $-1 #
vertex $-1 $393 $645 #
straight-curve $-1 49.346860448755606 52.873250827652384 97.975604410989277 0 0 1 I I #
straight-curve $-1 49.346860448755606 -34.794571692469972 67.683281456678117 0 0.82903756765294845 -0.55919291073839883 I I #
edge $-1 $639 -66.424703829819222 $396 -49.346860448755606 $545 $646 forward 7 unknown #
point $-1 49.346860448755606 52.873250827652384 22.80890110245414 #
point $-1 49.346860448755606 31.734431848855607 22.808901102454143 #
edge $-1 $647 1 $647 0 $399 $-1 forward 7 unknown #
vertex $-1 $400 $648 #
ellipse-curve $-1 54.226244271916642 39.469018107913222 11.476946054586838 0 0.55919291073839883 0.82903756765294845 2 0 0 1 I I #
point $-1 56.226244271916642 42.303841338254017 15.679744249049758 #
edge $-1 $649 1 $649 0 $403 $-1 forward 7 unknown #
vertex $-1 $404 $650 #
ellipse-curve $-1 61.545320006658187 39.469018107913222 11.476946054586838 0 0.55919291073839883 0.82903756765294845 2 0 0 1 I I #
point $-1 63.545320006658187 42.303841338254017 15.679744249049758 #
plane-surface $-1 77.359538560136713 0 0 -1 0 0 0 0 1 forward_v I I I I #
coedge $-1 $412 $410 $414 $566 reversed $281 $-1 #
edge $-1 $425 -22.80890110245414 $568 22.80890110245414 $424 $651 forward 7 unknown #
vertex $-1 $566 $652 #
straight-curve $-1 -77.359538560136713 -52.873250827652384 0 0 0 -1 I I #
edge $-1 $564 -52.873250827652384 $568 52.873250827652384 $562 $653 forward 7 unknown #
straight-curve $-1 0 -52.873250827652384 -22.80890110245414 -1 0 0 I I #
vertex $-1 $417 $654 #
straight-curve $-1 0 52.873250827652384 -22.80890110245414 1 0 0 I I #
point $-1 77.359538560136713 52.873250827652384 -22.80890110245414 #
point $-1 77.359538560136713 -52.873250827652384 -22.80890110245414 #
straight-curve $-1 -77.359538560136713 0 22.80890110245414 0 -1 0 I I #
point $-1 -77.359538560136713 52.873250827652384 22.80890110245414 #
point $-1 -77.359538560136713 -52.873250827652384 22.80890110245414 #
straight-curve $-1 77.359538560136713 -52.873250827652384 0 0 0 -1 I I #
straight-curve $-1 77.359538560136713 52.873250827652384 0 0 0 -1 I I #
plane-surface $-1 0 0 22.80890110245414 0 0 1 1 0 0 forward_v I I I I #
coedge $-1 $439 $436 $441 $585 reversed $300 $-1 #
coedge $-1 $436 $439 $591 $655 reversed $300 $-1 #
edge $-1 $593 -22.80890110245414 $587 22.80890110245414 $453 $656 forward 7 unknown #
edge $-1 $582 -8.9713595612535215 $451 8.9713595612535215 $438 $657 forward 7 unknown #
vertex $-1 $655 $658 #
vertex $-1 $585 $659 #
straight-curve $-1 -95.302257682643756 -44.252066165948825 0 0 0 -1 I I #
edge $-1 $583 -2.5674022625257606 $587 2.5674022625257606 $578 $660 forward 7 unknown #
straight-curve $-1 -86.330898121390234 -44.252066165948825 -22.80890110245414 -1 0 0 I I #
vertex $-1 $443 $661 #
straight-curve $-1 -86.330898121390234 -39.117261640897304 -22.80890110245414 1 0 0 I I #
point $-1 -77.359538560136713 -44.252066165948825 -22.80890110245414 #
straight-curve $-1 -77.359538560136713 -44.252066165948825 0 0 0 -1 I I #
coedge $-1 $449 $448 $579 $655 forward $450 $-1 #
point $-1 -77.359538560136713 -44.252066165948825 22.80890110245414 #
vertex $-1 $454 $662 #
straight-curve $-1 -86.330898121390234 -39.117261640897304 22.80890110245414 -1 0 0 I I #
coedge $-1 $468 $467 $460 $596 forward $457 $-1 #
edge $-1 $597 75.166703308535133 $600 89.42501701534394 $595 $663 forward 7 unknown #
vertex $-1 $472 $664 #
straight-curve $-1 -31.404141326248503 25.861619694587262 22.808901102454143 0 1 0 I I #
edge $-1 $600 11.432609817858346 $469 28.510453198921965 $468 $665 forward 7 unknown #
vertex $-1 $599 $666 #
straight-curve $-1 -31.404141326248503 -34.794571692469972 67.683281456678117 0 -0.82903756765294845 0.55919291073839883 I I #
point $-1 -31.404141326248503 31.734431848855607 22.808901102454143 #
point $-1 -48.481984707312122 52.873250827652384 8.55058739564533 #
straight-curve $-1 0 52.873250827652384 22.80890110245414 -1 0 0 I I #
vertex $-1 $475 $667 #
point $-1 -41.602600884151087 39.469018107913222 11.476946054586838 #
vertex $-1 $479 $668 #
point $-1 -34.283525149409535 39.469018107913222 11.476946054586838 #
coedge $-1 $494 $493 $486 $610 forward $483 $-1 #
edge $-1 $611 75.166703308535133 $614 89.42501701534394 $609 $669 forward 7 unknown #
vertex $-1 $498 $670 #
straight-curve $-1 1.2054737257740733 25.861619694587262 22.808901102454143 0 1 0 I I #
edge $-1 $614 -4.8721977081529424 $495 12.205645672910681 $494 $671 forward 7 unknown #
vertex $-1 $613 $672 #
straight-curve $-1 1.2054737257740733 -34.794571692469972 67.683281456678117 0 -0.82903756765294845 0.55919291073839883 I I #
point $-1 1.2054737257740733 31.734431848855607 22.808901102454143 #
point $-1 -15.87236965528955 52.873250827652384 8.55058739564533 #
straight-curve $-1 0 52.873250827652384 22.80890110245414 -1 0 0 I I #
vertex $-1 $501 $673 #
point $-1 -8.992985832128511 39.469018107913222 11.476946054586838 #
vertex $-1 $505 $674 #
point $-1 -1.6739100973869654 39.469018107913222 11.476946054586838 #
coedge $-1 $520 $519 $512 $624 forward $509 $-1 #
edge $-1 $625 75.166703308535133 $628 89.42501701534394 $623 $675 forward 7 unknown #
vertex $-1 $524 $676 #
straight-curve $-1 33.815088777796646 25.861619694587262 22.808901102454143 0 1 0 I I #
edge $-1 $628 -21.177005234164227 $521 -4.0991618531006075 $520 $677 forward 7 unknown #
vertex $-1 $627 $678 #
straight-curve $-1 33.815088777796646 -34.794571692469972 67.683281456678117 0 -0.82903756765294845 0.55919291073839883 I I #
point $-1 33.815088777796646 31.734431848855607 22.808901102454143 #
point $-1 16.737245396733027 52.873250827652384 8.55058739564533 #
straight-curve $-1 0 52.873250827652384 22.80890110245414 -1 0 0 I I #
vertex $-1 $527 $679 #
point $-1 23.616629219894065 39.469018107913222 11.476946054586838 #
vertex $-1 $531 $680 #
point $-1 30.935704954635611 39.469018107913222 11.476946054586838 #
coedge $-1 $546 $545 $538 $638 forward $535 $-1 #
edge $-1 $639 75.166703308535133 $642 89.42501701534394 $637 $681 forward 7 unknown #
vertex $-1 $550 $682 #
straight-curve $-1 66.424703829819222 25.861619694587262 22.808901102454143 0 1 0 I I #
edge $-1 $642 -37.481812760175515 $547 -20.403969379111899 $546 $683 forward 7 unknown #
vertex $-1 $641 $684 #
straight-curve $-1 66.424703829819222 -34.794571692469972 67.683281456678117 0 -0.82903756765294845 0.55919291073839883 I I #
point $-1 66.424703829819222 31.734431848855607 22.808901102454143 #
point $-1 49.346860448755606 52.873250827652384 8.55058739564533 #
straight-curve $-1 0 52.873250827652384 22.80890110245414 -1 0 0 I I #
vertex $-1 $553 $685 #
point $-1 56.226244271916642 39.469018107913222 11.476946054586838 #
vertex $-1 $557 $686 #
point $-1 63.545320006658187 39.469018107913222 11.476946054586838 #
straight-curve $-1 -77.359538560136713 52.873250827652384 0 0 0 -1 I I #
point $-1 -77.359538560136713 -52.873250827652384 -22.80890110245414 #
straight-curve $-1 -77.359538560136713 0 -22.80890110245414 0 1 0 I I #
point $-1 -77.359538560136713 52.873250827652384 -22.80890110245414 #
edge $-1 $593 -2.5674022625257606 $582 2.5674022625257606 $579 $687 forward 7 unknown #
straight-curve $-1 -95.302257682643756 -39.117261640897304 0 0 0 -1 I I #
straight-curve $-1 -86.330898121390234 -44.252066165948825 22.80890110245414 1 0 0 I I #
point $-1 -95.302257682643756 -44.252066165948825 22.80890110245414 #
point $-1 -95.302257682643756 -44.252066165948825 -22.80890110245414 #
straight-curve $-1 -95.302257682643756 -41.684663903423065 -22.80890110245414 0 1 0 I I #
point $-1 -95.302257682643756 -39.117261640897304 -22.80890110245414 #
point $-1 -95.302257682643756 -39.117261640897304 22.80890110245414 #
straight-curve $-1 -31.404141326248503 52.873250827652384 97.975604410989277 0 0 -1 I I #
point $-1 -31.404141326248503 52.873250827652384 22.80890110245414 #
straight-curve $-1 -19.971531508390157 52.873250827652384 8.5505873956453335 -1 0 0 I I #
point $-1 -31.404141326248503 52.873250827652384 8.55058739564533 #
point $-1 -43.602600884151087 38.350632286436429 9.8188709192809416 #
point $-1 -36.283525149409535 38.350632286436429 9.8188709192809416 #
straight-curve $-1 1.2054737257740733 52.873250827652384 97.975604410989277 0 0 -1 I I #
point $-1 1.2054737257740733 52.873250827652384 22.80890110245414 #
straight-curve $-1 -3.6667239823788691 52.873250827652384 8.5505873956453335 -1 0 0 I I #
point $-1 1.2054737257740733 52.873250827652384 8.55058739564533 #
point $-1 -10.992985832128511 38.350632286436429 9.8188709192809416 #
point $-1 -3.6739100973869654 38.350632286436429 9.8188709192809416 #
straight-curve $-1 33.815088777796646 52.873250827652384 97.975604410989277 0 0 -1 I I #
point $-1 33.815088777796646 52.873250827652384 22.80890110245414 #
straight-curve $-1 12.638083543632419 52.873250827652384 8.5505873956453335 -1 0 0 I I #
point $-1 33.815088777796646 52.873250827652384 8.55058739564533 #
point $-1 21.616629219894065 38.350632286436429 9.8188709192809416 #
point $-1 28.935704954635611 38.350632286436429 9.8188709192809416 #
straight-curve $-1 66.424703829819222 52.873250827652384 97.975604410989277 0 0 -1 I I #
point $-1 66.424703829819222 52.873250827652384 22.80890110245414 #
straight-curve $-1 28.942891069643707 52.873250827652384 8.5505873956453335 -1 0 0 I I #
point $-1 66.424703829819222 52.873250827652384 8.55058739564533 #
point $-1 54.226244271916642 38.350632286436429 9.8188709192809416 #
point $-1 61.545320006658187 38.350632286436429 9.8188709192809416 #
straight-curve $-1 -95.302257682643756 -41.684663903423065 22.80890110245414 0 -1 0 I I #
End-of-ACIS-data 