500 0 8 0           
7 Unknown 11 ACIS 5.0 NT 24 Thu Mar 25 16:36:10 1999 
-1 9.9999999999999995e-007 1e-010 
body $-1 $8 $-1 $9 #
body $-1 $10 $-1 $11 #
body $-1 $12 $-1 $13 #
body $-1 $14 $-1 $15 #
body $-1 $16 $-1 $17 #
body $-1 $18 $-1 $19 #
body $-1 $20 $-1 $21 #
body $-1 $22 $-1 $23 #
lump $-1 $-1 $24 $0 #
transform $-1 1 0 0 0 1 0 0 0 1 79.249244666890462 55.293078604998414 25.855973009955985 1 rotate no_reflect no_shear #
lump $-1 $-1 $25 $1 #
transform $-1 1 0 0 0 1 0 0 0 1 79.249244666890462 55.293078604998414 25.855973009955985 1 rotate no_reflect no_shear #
lump $-1 $-1 $26 $2 #
transform $-1 1 0 0 0 1 0 0 0 1 79.249244666890462 55.293078604998414 25.855973009955985 1 rotate no_reflect no_shear #
lump $-1 $-1 $27 $3 #
transform $-1 1 0 0 0 1 0 0 0 1 79.249244666890462 55.293078604998414 25.855973009955985 1 rotate no_reflect no_shear #
lump $-1 $-1 $28 $4 #
transform $-1 1 0 0 0 1 0 0 0 1 79.249244666890462 55.293078604998414 25.855973009955985 1 rotate no_reflect no_shear #
lump $-1 $-1 $29 $5 #
transform $-1 1 0 0 0 1 0 0 0 1 79.249244666890462 55.293078604998414 25.855973009955985 1 rotate no_reflect no_shear #
lump $-1 $-1 $30 $6 #
transform $-1 1 0 0 0 1 0 0 0 1 79.249244666890462 55.293078604998414 25.855973009955985 1 rotate no_reflect no_shear #
lump $-1 $-1 $31 $7 #
transform $-1 1 0 0 0 1 0 0 0 1 79.249244666890462 55.293078604998414 25.855973009955985 1 rotate no_reflect no_shear #
shell $-1 $-1 $-1 $32 $-1 $8 #
shell $-1 $-1 $-1 $33 $-1 $10 #
shell $-1 $-1 $-1 $34 $-1 $12 #
shell $-1 $-1 $-1 $35 $-1 $14 #
shell $-1 $-1 $-1 $36 $-1 $16 #
shell $-1 $-1 $-1 $37 $-1 $18 #
shell $-1 $-1 $-1 $38 $-1 $20 #
shell $-1 $-1 $-1 $39 $-1 $22 #
face $-1 $40 $41 $24 $-1 $42 forward single #
face $-1 $43 $44 $25 $-1 $45 forward single #
face $-1 $46 $47 $26 $-1 $48 reversed single #
face $-1 $49 $50 $27 $-1 $51 forward single #
face $-1 $52 $53 $28 $-1 $54 forward single #
face $-1 $55 $56 $29 $-1 $57 forward single #
face $-1 $58 $59 $30 $-1 $60 reversed single #
face $-1 $61 $62 $31 $-1 $63 forward single #
face $-1 $64 $65 $24 $-1 $66 reversed single #
loop $-1 $-1 $67 $32 #
plane-surface $-1 0 0 25.855973009955985 0 0 1 1 0 0 forward_v I I I I #
face $-1 $68 $69 $25 $-1 $70 reversed single #
loop $-1 $-1 $71 $33 #
plane-surface $-1 0 -55.293078604998414 0 0 1 0 0 0 1 forward_v I I I I #
face $-1 $72 $73 $26 $-1 $74 reversed single #
loop $-1 $-1 $75 $34 #
plane-surface $-1 -160.88200257542172 -33.446702835404672 154.68396990210599 0 1 0 -0.51503808176128008 0 0.85716729658548041 forward_v I I I I #
face $-1 $76 $77 $27 $-1 $78 forward single #
loop $-1 $79 $80 $35 #
cone-surface $-1 -72.918399374412232 -28.546096002076411 21.542142228565673 0.51503808176128008 0 -0.85716729658548041 1.2857509448782207 0 0.77255712264192011 1 I I 0 1 1.5 forward I I I I #
face $-1 $81 $82 $28 $-1 $83 forward single #
loop $-1 $84 $85 $36 #
cone-surface $-1 -72.918399374412232 -21.195185752084029 21.542142228565673 0.51503808176128008 0 -0.85716729658548041 1.2857509448782207 0 0.77255712264192011 1 I I 0 1 1.5 forward I I I I #
face $-1 $86 $87 $29 $-1 $88 forward single #
loop $-1 $89 $90 $37 #
cone-surface $-1 -72.918399374412232 -13.844275502091648 21.542142228565673 0.51503808176128008 0 -0.85716729658548041 1.2857509448782207 0 0.77255712264192011 1 I I 0 1 1.5 forward I I I I #
face $-1 $91 $92 $30 $-1 $93 reversed single #
loop $-1 $-1 $94 $38 #
plane-surface $-1 110.44499754298687 5.0517178455319289 242.94332992490408 0 -1 0 -0.79863551827123203 0 -0.60181501223851219 forward_v I I I I #
face $-1 $95 $96 $31 $-1 $97 forward single #
loop $-1 $98 $99 $39 #
cone-surface $-1 76.477386802374085 -4.0677591597887073 22.712348466325341 -0.79863551827123203 0 -0.60181501223851219 0.90272251835776829 0 -1.197953277406848 1 I I 0 1 1.5 forward I I I I #
face $-1 $100 $101 $24 $-1 $102 reversed single #
loop $-1 $-1 $103 $40 #
plane-surface $-1 0 0 -25.855973009955985 0 0 1 1 0 0 forward_v I I I I #
coedge $-1 $104 $105 $106 $107 forward $41 $-1 #
face $-1 $108 $109 $25 $-1 $110 forward single #
loop $-1 $-1 $111 $43 #
plane-surface $-1 -79.249244666890462 0 0 1 0 0 0 0 -1 forward_v I I I I #
coedge $-1 $112 $113 $114 $115 forward $44 $-1 #
face $-1 $116 $117 $26 $-1 $118 reversed single #
loop $-1 $-1 $119 $46 #
plane-surface $-1 -79.24924466689049 -21.195185752084029 18.824248286986403 -0.51503808176128008 0 0.85716729658548041 0.85716729658548041 0 0.51503808176128008 forward_v I I I I #
coedge $-1 $120 $121 $122 $123 reversed $47 $-1 #
face $-1 $-1 $124 $27 $-1 $125 forward single #
loop $-1 $126 $127 $49 #
cone-surface $-1 -72.052653005661668 -28.546096002076411 20.101298336221067 0.51503808176128008 0 -0.85716729658548041 0.64287547243911036 0 0.38627856132096006 1 I I -0.70710678118654757 0.70710678118654757 0.75 forward I I I I #
loop $-1 $-1 $128 $35 #
coedge $-1 $80 $80 $129 $130 reversed $50 $-1 #
face $-1 $-1 $131 $28 $-1 $132 forward single #
loop $-1 $133 $134 $52 #
cone-surface $-1 -72.052653005661668 -21.195185752084029 20.101298336221067 0.51503808176128008 0 -0.85716729658548041 0.64287547243911036 0 0.38627856132096006 1 I I -0.70710678118654757 0.70710678118654757 0.75 forward I I I I #
loop $-1 $-1 $135 $36 #
coedge $-1 $85 $85 $136 $137 reversed $53 $-1 #
face $-1 $-1 $138 $29 $-1 $139 forward single #
loop $-1 $140 $141 $55 #
cone-surface $-1 -72.052653005661668 -13.844275502091648 20.101298336221067 0.51503808176128008 0 -0.85716729658548041 0.64287547243911036 0 0.38627856132096006 1 I I -0.70710678118654757 0.70710678118654757 0.75 forward I I I I #
loop $-1 $-1 $142 $37 #
coedge $-1 $90 $90 $143 $144 reversed $56 $-1 #
face $-1 $145 $146 $30 $-1 $147 reversed single #
loop $-1 $-1 $148 $58 #
plane-surface $-1 -16.137525631304598 -4.0677591597887073 147.55655962670903 0.79863551827123203 0 0.60181501223851219 0.60181501223851219 0 -0.79863551827123203 forward_v I I I I #
coedge $-1 $149 $150 $151 $152 reversed $59 $-1 #
face $-1 $-1 $153 $31 $-1 $154 forward single #
loop $-1 $155 $156 $61 #
cone-surface $-1 74.945953779495682 -4.0677591597887073 21.558330942285014 -0.79863551827123203 0 -0.60181501223851219 0.45136125917888414 0 -0.59897663870342399 1 I I -0.70710678118654757 0.70710678118654757 0.75 forward I I I I #
loop $-1 $-1 $157 $39 #
coedge $-1 $99 $99 $158 $159 reversed $62 $-1 #
face $-1 $160 $161 $24 $-1 $162 reversed single #
loop $-1 $-1 $163 $64 #
plane-surface $-1 0 -55.293078604998414 0 0 1 0 0 0 1 forward_v I I I I #
coedge $-1 $164 $165 $166 $167 forward $65 $-1 #
coedge $-1 $168 $67 $169 $170 forward $41 $-1 #
coedge $-1 $67 $168 $171 $172 forward $41 $-1 #
coedge $-1 $173 $174 $67 $107 reversed $175 $-1 #
edge $-1 $176 -55.293078604998414 $177 55.293078604998414 $106 $178 forward 7 unknown #
face $-1 $179 $180 $25 $-1 $181 reversed single #
loop $-1 $-1 $182 $68 #
plane-surface $-1 0 -66.216266489795288 -8.6748110340561215 0 0 1 1 0 0 forward_v I I I I #
coedge $-1 $183 $184 $113 $185 forward $69 $-1 #
coedge $-1 $186 $71 $187 $188 reversed $44 $-1 #
coedge $-1 $71 $186 $111 $185 reversed $44 $-1 #
coedge $-1 $189 $182 $71 $115 reversed $109 $-1 #
edge $-1 $190 -79.249244666890462 $191 79.249244666890462 $114 $192 forward 7 unknown #
face $-1 $193 $194 $26 $-1 $195 forward single #
loop $-1 $-1 $196 $72 #
plane-surface $-1 -160.88200257542172 -8.9436686687633884 154.68396990210599 0 -1 0 0.51503808176128008 0 -0.85716729658548041 forward_v I I I I #
coedge $-1 $197 $198 $199 $200 reversed $73 $-1 #
coedge $-1 $121 $75 $201 $202 reversed $47 $-1 #
coedge $-1 $75 $120 $197 $203 reversed $47 $-1 #
coedge $-1 $199 $204 $75 $123 forward $194 $-1 #
edge $-1 $205 1.1917566208203993 $206 12.894511590917517 $122 $207 forward 7 unknown #
loop $-1 $-1 $129 $76 #
plane-surface $-1 -79.24924466689049 -21.195185752084029 18.824248286986403 -0.51503808176128008 0 0.85716729658548041 0.85716729658548041 0 0.51503808176128008 forward_v I I I I #
loop $-1 $-1 $208 $49 #
coedge $-1 $127 $127 $128 $209 reversed $77 $-1 #
coedge $-1 $128 $128 $127 $209 forward $79 $-1 #
coedge $-1 $129 $129 $80 $130 forward $124 $-1 #
edge $-1 $210 0 $210 6.2831853071796004 $129 $211 forward 7 unknown #
loop $-1 $-1 $136 $81 #
plane-surface $-1 -79.24924466689049 -21.195185752084029 18.824248286986403 -0.51503808176128008 0 0.85716729658548041 0.85716729658548041 0 0.51503808176128008 forward_v I I I I #
loop $-1 $-1 $212 $52 #
coedge $-1 $134 $134 $135 $213 reversed $82 $-1 #
coedge $-1 $135 $135 $134 $213 forward $84 $-1 #
coedge $-1 $136 $136 $85 $137 forward $131 $-1 #
edge $-1 $214 0 $214 6.2831853071796004 $136 $215 forward 7 unknown #
loop $-1 $-1 $143 $86 #
plane-surface $-1 -79.24924466689049 -21.195185752084029 18.824248286986403 -0.51503808176128008 0 0.85716729658548041 0.85716729658548041 0 0.51503808176128008 forward_v I I I I #
loop $-1 $-1 $216 $55 #
coedge $-1 $141 $141 $142 $217 reversed $87 $-1 #
coedge $-1 $142 $142 $141 $217 forward $89 $-1 #
coedge $-1 $143 $143 $90 $144 forward $138 $-1 #
edge $-1 $218 0 $218 6.2831853071796004 $143 $219 forward 7 unknown #
face $-1 $220 $221 $30 $-1 $222 reversed single #
loop $-1 $-1 $223 $91 #
plane-surface $-1 110.44499754298687 -13.187236165109343 242.94332992490408 0 1 0 0.79863551827123203 0 0.60181501223851219 forward_v I I I I #
coedge $-1 $224 $225 $226 $227 reversed $92 $-1 #
coedge $-1 $150 $94 $228 $229 reversed $59 $-1 #
coedge $-1 $94 $149 $224 $230 reversed $59 $-1 #
coedge $-1 $226 $231 $94 $152 forward $232 $-1 #
edge $-1 $233 -24.026745895397028 $234 -20.347942934714254 $151 $235 forward 7 unknown #
loop $-1 $-1 $158 $95 #
plane-surface $-1 -16.137525631304598 -4.0677591597887073 147.55655962670903 0.79863551827123203 0 0.60181501223851219 0.60181501223851219 0 -0.79863551827123203 forward_v I I I I #
loop $-1 $-1 $236 $61 #
coedge $-1 $156 $156 $157 $237 reversed $96 $-1 #
coedge $-1 $157 $157 $156 $237 forward $98 $-1 #
coedge $-1 $158 $158 $99 $159 forward $153 $-1 #
edge $-1 $238 0 $238 6.2831853071796004 $158 $239 forward 7 unknown #
face $-1 $240 $241 $24 $-1 $242 reversed single #
loop $-1 $-1 $243 $100 #
plane-surface $-1 -79.249244666890462 0 0 1 0 0 0 0 -1 forward_v I I I I #
coedge $-1 $244 $171 $245 $246 forward $101 $-1 #
coedge $-1 $247 $103 $244 $248 forward $65 $-1 #
coedge $-1 $103 $247 $249 $250 forward $65 $-1 #
coedge $-1 $174 $173 $103 $167 reversed $175 $-1 #
edge $-1 $251 -55.293078604998414 $252 55.293078604998414 $166 $253 forward 7 unknown #
coedge $-1 $105 $104 $254 $255 forward $41 $-1 #
coedge $-1 $256 $257 $104 $170 reversed $241 $-1 #
edge $-1 $177 -79.249244666890462 $258 79.249244666890462 $169 $259 forward 7 unknown #
coedge $-1 $163 $260 $105 $172 reversed $101 $-1 #
edge $-1 $261 -79.249244666890462 $176 79.249244666890462 $171 $262 forward 7 unknown #
coedge $-1 $166 $106 $260 $263 forward $175 $-1 #
coedge $-1 $106 $166 $256 $264 reversed $175 $-1 #
loop $-1 $-1 $173 $240 #
vertex $-1 $107 $265 #
vertex $-1 $107 $266 #
straight-curve $-1 79.249244666890462 0 25.855973009955985 0 1 0 I I #
face $-1 $267 $268 $25 $-1 $269 reversed single #
loop $-1 $-1 $270 $108 #
plane-surface $-1 0 -66.216266489795288 -24.08328861715529 0 0 1 1 0 0 forward_v I I I I #
coedge $-1 $114 $271 $272 $273 forward $109 $-1 #
coedge $-1 $274 $111 $275 $276 reversed $69 $-1 #
coedge $-1 $111 $274 $189 $277 reversed $69 $-1 #
edge $-1 $190 8.6748110340561215 $278 24.08328861715529 $111 $279 forward 7 unknown #
coedge $-1 $113 $112 $280 $281 forward $44 $-1 #
coedge $-1 $272 $282 $112 $188 forward $283 $-1 #
edge $-1 $284 -24.08328861715529 $191 -8.6748110340561215 $187 $285 forward 7 unknown #
coedge $-1 $271 $114 $184 $277 forward $109 $-1 #
vertex $-1 $185 $286 #
vertex $-1 $273 $287 #
straight-curve $-1 0 -55.293078604998414 -8.6748110340561215 1 0 0 I I #
face $-1 $-1 $288 $26 $-1 $289 reversed single #
loop $-1 $-1 $122 $116 #
plane-surface $-1 0 0 25.855973009955985 0 0 1 1 0 0 forward_v I I I I #
coedge $-1 $290 $291 $292 $293 reversed $117 $-1 #
coedge $-1 $294 $119 $121 $203 forward $73 $-1 #
coedge $-1 $119 $294 $290 $295 forward $73 $-1 #
coedge $-1 $292 $122 $119 $200 forward $194 $-1 #
edge $-1 $206 -22.849109959362657 $296 1.6539242072786262 $199 $297 forward 7 unknown #
coedge $-1 $298 $299 $120 $202 forward $288 $-1 #
edge $-1 $300 -58.517736664066575 $205 -51.486011941097004 $201 $301 forward 7 unknown #
edge $-1 $206 -13.652824853112087 $300 -3.3511074027679813e-014 $121 $302 forward 7 unknown #
coedge $-1 $122 $292 $298 $303 forward $194 $-1 #
vertex $-1 $202 $304 #
vertex $-1 $123 $305 #
straight-curve $-1 -80.441001287710861 -33.446702835404672 25.855973009955989 1 0 0 I I #
coedge $-1 $208 $208 $-1 $306 reversed $126 $-1 #
edge $-1 $307 0 $307 6.2831853071796004 $127 $308 forward 7 unknown #
vertex $-1 $130 $309 #
ellipse-curve $-1 -73.397867181841875 -28.546096002076411 22.340110648471221 -0.51503808176128008 0 0.85716729658548041 1.2857509448782207 0 0.77255712264192011 1 I I #
coedge $-1 $212 $212 $-1 $310 reversed $133 $-1 #
edge $-1 $311 0 $311 6.2831853071796004 $134 $312 forward 7 unknown #
vertex $-1 $137 $313 #
ellipse-curve $-1 -73.397867181841875 -21.195185752084029 22.340110648471221 -0.51503808176128008 0 0.85716729658548041 1.2857509448782207 0 0.77255712264192011 1 I I #
coedge $-1 $216 $216 $-1 $314 reversed $140 $-1 #
edge $-1 $315 0 $315 6.2831853071796004 $141 $316 forward 7 unknown #
vertex $-1 $144 $317 #
ellipse-curve $-1 -73.397867181841875 -13.844275502091648 22.340110648471221 -0.51503808176128008 0 0.85716729658548041 1.2857509448782207 0 0.77255712264192011 1 I I #
face $-1 $-1 $232 $30 $-1 $318 forward single #
loop $-1 $-1 $319 $145 #
plane-surface $-1 79.249244666890462 0 0 -1 0 0 0 0 1 forward_v I I I I #
coedge $-1 $320 $321 $322 $323 reversed $146 $-1 #
coedge $-1 $324 $148 $150 $230 forward $92 $-1 #
coedge $-1 $148 $324 $320 $325 forward $92 $-1 #
coedge $-1 $322 $151 $148 $227 forward $232 $-1 #
edge $-1 $234 -7.0855974254262826 $326 11.15335658521499 $226 $327 forward 7 unknown #
coedge $-1 $328 $329 $149 $229 forward $221 $-1 #
edge $-1 $330 -100.49762851003447 $233 -95.61569195249605 $228 $331 forward 7 unknown #
edge $-1 $234 152.38564255217756 $330 158.49848933378092 $150 $332 forward 7 unknown #
coedge $-1 $151 $322 $328 $333 forward $232 $-1 #
loop $-1 $-1 $322 $220 #
vertex $-1 $229 $334 #
vertex $-1 $152 $335 #
straight-curve $-1 55.222498771493434 5.0517178455319289 25.855973009955989 -1 0 0 I I #
coedge $-1 $236 $236 $-1 $336 reversed $155 $-1 #
edge $-1 $337 0 $337 6.2831853071796004 $156 $338 forward 7 unknown #
vertex $-1 $159 $339 #
ellipse-curve $-1 77.409843186549068 -4.0677591597887073 23.41500473118678 0.79863551827123203 0 0.60181501223851219 0.90272251835776829 0 -1.197953277406848 1 I I #
face $-1 $-1 $175 $24 $-1 $340 reversed single #
loop $-1 $-1 $256 $160 #
plane-surface $-1 0 55.293078604998414 0 0 -1 0 0 0 -1 forward_v I I I I #
coedge $-1 $341 $254 $257 $342 forward $161 $-1 #
coedge $-1 $260 $163 $164 $248 reversed $101 $-1 #
coedge $-1 $254 $341 $163 $246 reversed $161 $-1 #
edge $-1 $261 -25.855973009955985 $343 25.855973009955985 $245 $344 forward 7 unknown #
coedge $-1 $165 $164 $341 $345 forward $65 $-1 #
edge $-1 $252 -79.249244666890462 $343 79.249244666890462 $244 $346 forward 7 unknown #
coedge $-1 $257 $256 $165 $250 reversed $241 $-1 #
edge $-1 $347 -79.249244666890462 $251 79.249244666890462 $249 $348 forward 7 unknown #
vertex $-1 $167 $349 #
vertex $-1 $263 $350 #
straight-curve $-1 79.249244666890462 0 -25.855973009955985 0 -1 0 I I #
coedge $-1 $243 $245 $168 $255 reversed $161 $-1 #
edge $-1 $258 -55.293078604998414 $261 55.293078604998414 $254 $351 forward 7 unknown #
coedge $-1 $249 $169 $174 $264 forward $241 $-1 #
coedge $-1 $169 $249 $243 $342 reversed $241 $-1 #
vertex $-1 $170 $352 #
straight-curve $-1 0 55.293078604998414 25.855973009955985 -1 0 0 I I #
coedge $-1 $171 $244 $173 $263 reversed $101 $-1 #
vertex $-1 $255 $353 #
straight-curve $-1 0 -55.293078604998414 25.855973009955985 1 0 0 I I #
edge $-1 $176 -25.855973009955985 $252 25.855973009955985 $173 $354 forward 7 unknown #
edge $-1 $177 -25.855973009955985 $251 25.855973009955985 $174 $355 forward 7 unknown #
point $-1 79.249244666890462 -55.293078604998414 25.855973009955985 #
point $-1 79.249244666890462 55.293078604998414 25.855973009955985 #
face $-1 $-1 $283 $25 $-1 $356 reversed single #
loop $-1 $-1 $357 $179 #
plane-surface $-1 0 -77.139454374592162 -16.379049825605705 0 1 0 0 0 1 forward_v I I I I #
coedge $-1 $358 $280 $282 $359 forward $180 $-1 #
coedge $-1 $182 $189 $360 $361 forward $109 $-1 #
coedge $-1 $362 $187 $182 $273 reversed $283 $-1 #
edge $-1 $363 -10.923187884796874 $191 10.923187884796874 $272 $364 forward 7 unknown #
coedge $-1 $184 $183 $357 $365 reversed $69 $-1 #
coedge $-1 $280 $358 $183 $276 forward $180 $-1 #
edge $-1 $366 -10.923187884796874 $278 10.923187884796874 $183 $367 forward 7 unknown #
edge $-1 $190 -10.923187884796874 $368 10.923187884796874 $184 $369 forward 7 unknown #
vertex $-1 $185 $370 #
straight-curve $-1 -79.249244666890462 -55.293078604998414 0 0 0 -1 I I #
coedge $-1 $270 $275 $186 $281 reversed $180 $-1 #
edge $-1 $284 -79.249244666890462 $278 79.249244666890462 $280 $371 forward 7 unknown #
coedge $-1 $187 $362 $270 $359 reversed $283 $-1 #
loop $-1 $-1 $187 $267 #
vertex $-1 $188 $372 #
straight-curve $-1 79.249244666890462 -55.293078604998414 0 0 0 1 I I #
point $-1 -79.249244666890462 -55.293078604998414 -8.6748110340561215 #
point $-1 79.249244666890462 -55.293078604998414 -8.6748110340561215 #
loop $-1 $-1 $201 $193 #
plane-surface $-1 -79.249244666890462 0 0 1 0 0 0 0 -1 forward_v I I I I #
coedge $-1 $291 $196 $198 $295 reversed $117 $-1 #
coedge $-1 $196 $290 $373 $374 reversed $117 $-1 #
coedge $-1 $204 $199 $196 $293 forward $194 $-1 #
edge $-1 $296 -12.894511590917517 $375 -1.1917566208203993 $292 $376 forward 7 unknown #
coedge $-1 $198 $197 $299 $377 reversed $73 $-1 #
edge $-1 $378 3.3511074027679813e-014 $296 13.652824853112087 $290 $379 forward 7 unknown #
vertex $-1 $200 $380 #
straight-curve $-1 -67.54648969679333 -10.597592876042015 25.855973009955985 0 1 0 I I #
coedge $-1 $373 $201 $204 $303 reversed $288 $-1 #
coedge $-1 $201 $373 $294 $377 forward $288 $-1 #
vertex $-1 $202 $381 #
straight-curve $-1 -79.249244666890462 -33.446702835404672 77.341984951052993 0 0 1 I I #
straight-curve $-1 -79.24924466689049 -33.446702835404672 18.824248286986403 -0.85716729658548041 0 -0.51503808176128008 I I #
edge $-1 $375 8.9436686687633884 $205 33.446702835404672 $298 $382 forward 7 unknown #
point $-1 -79.249244666890462 -33.446702835404672 25.855973009955985 #
point $-1 -67.546489696793344 -33.446702835404672 25.855973009955985 #
edge $-1 $383 1 $383 0 $208 $-1 forward 7 unknown #
vertex $-1 $209 $384 #
ellipse-curve $-1 -72.438931566982632 -28.546096002076411 20.744173808660179 -0.51503808176128008 0 0.85716729658548041 1.2857509448782207 0 0.77255712264192011 1 I I #
point $-1 -72.112116236963629 -28.546096002076411 23.112667771113088 #
edge $-1 $385 1 $385 0 $212 $-1 forward 7 unknown #
vertex $-1 $213 $386 #
ellipse-curve $-1 -72.438931566982632 -21.195185752084029 20.744173808660179 -0.51503808176128008 0 0.85716729658548041 1.2857509448782207 0 0.77255712264192011 1 I I #
point $-1 -72.112116236963629 -21.195185752084029 23.112667771113088 #
edge $-1 $387 1 $387 0 $216 $-1 forward 7 unknown #
vertex $-1 $217 $388 #
ellipse-curve $-1 -72.438931566982632 -13.844275502091648 20.744173808660179 -0.51503808176128008 0 0.85716729658548041 1.2857509448782207 0 0.77255712264192011 1 I I #
point $-1 -72.112116236963629 -13.844275502091648 23.112667771113088 #
plane-surface $-1 0 0 25.855973009955985 0 0 1 1 0 0 forward_v I I I I #
coedge $-1 $329 $328 $321 $389 forward $221 $-1 #
coedge $-1 $321 $223 $225 $325 reversed $146 $-1 #
coedge $-1 $223 $320 $319 $389 reversed $146 $-1 #
coedge $-1 $231 $226 $223 $323 forward $232 $-1 #
edge $-1 $326 20.347942934714254 $390 24.026745895397028 $322 $391 forward 7 unknown #
coedge $-1 $225 $224 $329 $392 reversed $92 $-1 #
edge $-1 $393 -158.49848933378092 $326 -152.38564255217756 $320 $394 forward 7 unknown #
vertex $-1 $227 $395 #
straight-curve $-1 75.570441706207689 -2.0338795798943536 25.855973009955989 0 -1 0 I I #
coedge $-1 $319 $228 $231 $333 reversed $221 $-1 #
coedge $-1 $228 $319 $324 $392 forward $221 $-1 #
vertex $-1 $229 $396 #
straight-curve $-1 79.249244666890462 5.0517178455319289 121.47166496245204 0 0 1 I I #
straight-curve $-1 -16.137525631304598 5.0517178455319289 147.55655962670903 0.60181501223851219 0 -0.79863551827123203 I I #
edge $-1 $390 -13.187236165109343 $233 5.0517178455319289 $328 $397 forward 7 unknown #
point $-1 79.249244666890462 5.0517178455319289 25.855973009955985 #
point $-1 75.570441706207689 5.0517178455319289 25.855973009956003 #
edge $-1 $398 1 $398 0 $236 $-1 forward 7 unknown #
vertex $-1 $237 $399 #
ellipse-curve $-1 75.544930418199101 -4.0677591597887073 22.009692201463899 0.79863551827123203 0 0.60181501223851219 0.90272251835776829 0 -1.197953277406848 1 I I #
point $-1 78.312565704906845 -4.0677591597887073 22.217051453779934 #
plane-surface $-1 79.249244666890462 0 0 -1 0 0 0 0 1 forward_v I I I I #
coedge $-1 $245 $243 $247 $345 reversed $161 $-1 #
edge $-1 $258 -25.855973009955985 $347 25.855973009955985 $257 $400 forward 7 unknown #
vertex $-1 $345 $401 #
straight-curve $-1 -79.249244666890462 -55.293078604998414 0 0 0 -1 I I #
edge $-1 $343 -55.293078604998414 $347 55.293078604998414 $341 $402 forward 7 unknown #
straight-curve $-1 0 -55.293078604998414 -25.855973009955985 -1 0 0 I I #
vertex $-1 $250 $403 #
straight-curve $-1 0 55.293078604998414 -25.855973009955985 1 0 0 I I #
point $-1 79.249244666890462 55.293078604998414 -25.855973009955985 #
point $-1 79.249244666890462 -55.293078604998414 -25.855973009955985 #
straight-curve $-1 -79.249244666890462 0 25.855973009955985 0 -1 0 I I #
point $-1 -79.249244666890462 55.293078604998414 25.855973009955985 #
point $-1 -79.249244666890462 -55.293078604998414 25.855973009955985 #
straight-curve $-1 79.249244666890462 -55.293078604998414 0 0 0 -1 I I #
straight-curve $-1 79.249244666890462 55.293078604998414 0 0 0 -1 I I #
plane-surface $-1 79.249244666890462 0 0 -1 0 0 0 0 1 forward_v I I I I #
coedge $-1 $404 $360 $274 $365 forward $268 $-1 #
coedge $-1 $275 $270 $404 $405 forward $180 $-1 #
edge $-1 $284 -10.923187884796874 $406 10.923187884796874 $282 $407 forward 7 unknown #
coedge $-1 $357 $408 $271 $361 reversed $268 $-1 #
edge $-1 $368 -79.249244666890462 $363 79.249244666890462 $360 $409 forward 7 unknown #
coedge $-1 $282 $272 $408 $410 forward $283 $-1 #
vertex $-1 $273 $411 #
straight-curve $-1 79.249244666890462 -66.216266489795288 -8.6748110340561215 0 1 0 I I #
edge $-1 $368 -7.7042387915495834 $366 7.7042387915495851 $274 $412 forward 7 unknown #
vertex $-1 $276 $413 #
straight-curve $-1 -79.249244666890462 -66.216266489795288 -24.08328861715529 0 1 0 I I #
vertex $-1 $277 $414 #
straight-curve $-1 -79.249244666890462 -66.216266489795288 -8.6748110340561215 0 -1 0 I I #
point $-1 -79.249244666890462 -55.293078604998414 -24.08328861715529 #
straight-curve $-1 0 -55.293078604998414 -24.08328861715529 -1 0 0 I I #
point $-1 79.249244666890462 -55.293078604998414 -24.08328861715529 #
coedge $-1 $299 $298 $291 $374 forward $288 $-1 #
edge $-1 $375 51.486011941097004 $378 58.517736664066575 $373 $415 forward 7 unknown #
vertex $-1 $303 $416 #
straight-curve $-1 -80.441001287710861 -8.9436686687633884 25.855973009955989 -1 0 0 I I #
edge $-1 $378 -1.6539242072786262 $300 22.849109959362657 $299 $417 forward 7 unknown #
vertex $-1 $377 $418 #
straight-curve $-1 -79.24924466689049 -8.9436686687633884 18.824248286986403 0.85716729658548041 0 0.51503808176128008 I I #
point $-1 -67.546489696793344 -8.9436686687633884 25.855973009955985 #
point $-1 -79.249244666890462 -33.446702835404672 18.824248286986421 #
straight-curve $-1 -79.249244666890462 0 25.855973009955985 0 -1 0 I I #
vertex $-1 $306 $419 #
point $-1 -71.153180622104401 -28.546096002076411 21.516730931302096 #
vertex $-1 $310 $420 #
point $-1 -71.153180622104401 -21.195185752084029 21.516730931302096 #
vertex $-1 $314 $421 #
point $-1 -71.153180622104401 -13.844275502091648 21.516730931302096 #
edge $-1 $390 95.61569195249605 $393 100.49762851003447 $319 $422 forward 7 unknown #
vertex $-1 $333 $423 #
straight-curve $-1 55.222498771493434 -13.187236165109343 25.855973009955989 1 0 0 I I #
edge $-1 $393 -11.15335658521499 $330 7.0855974254262826 $329 $424 forward 7 unknown #
vertex $-1 $392 $425 #
straight-curve $-1 -16.137525631304598 -13.187236165109343 147.55655962670903 -0.60181501223851219 0 0.79863551827123203 I I #
point $-1 75.570441706207689 -13.187236165109343 25.855973009956003 #
point $-1 79.249244666890462 5.0517178455319289 20.974036452417565 #
straight-curve $-1 79.249244666890462 0 25.855973009955985 0 1 0 I I #
vertex $-1 $336 $426 #
point $-1 76.447652936556878 -4.0677591597887073 20.81173892405705 #
straight-curve $-1 -79.249244666890462 55.293078604998414 0 0 0 -1 I I #
point $-1 -79.249244666890462 -55.293078604998414 -25.855973009955985 #
straight-curve $-1 -79.249244666890462 0 -25.855973009955985 0 1 0 I I #
point $-1 -79.249244666890462 55.293078604998414 -25.855973009955985 #
coedge $-1 $408 $357 $358 $405 reversed $268 $-1 #
edge $-1 $406 -79.249244666890462 $366 79.249244666890462 $404 $427 forward 7 unknown #
vertex $-1 $410 $428 #
straight-curve $-1 79.249244666890462 -66.216266489795288 -24.08328861715529 0 -1 0 I I #
coedge $-1 $360 $404 $362 $410 reversed $268 $-1 #
straight-curve $-1 0 -77.139454374592162 -8.6748110340561215 1 0 0 I I #
edge $-1 $363 -7.7042387915495834 $406 7.7042387915495851 $362 $429 forward 7 unknown #
point $-1 79.249244666890462 -77.139454374592162 -8.6748110340561215 #
straight-curve $-1 -79.249244666890462 -77.139454374592162 -16.379049825605705 0 0 -1 I I #
point $-1 -79.249244666890462 -77.139454374592162 -24.08328861715529 #
point $-1 -79.249244666890462 -77.139454374592162 -8.6748110340561215 #
straight-curve $-1 -79.249244666890462 -8.9436686687633884 77.341984951052993 0 0 -1 I I #
point $-1 -79.249244666890462 -8.9436686687633884 25.855973009955985 #
straight-curve $-1 -79.249244666890462 -10.597592876042015 18.824248286986418 0 -1 0 I I #
point $-1 -79.249244666890462 -8.9436686687633884 18.824248286986421 #
point $-1 -71.666374444340704 -28.546096002076411 19.458422863781955 #
point $-1 -71.666374444340704 -21.195185752084029 19.458422863781955 #
point $-1 -71.666374444340704 -13.844275502091648 19.458422863781955 #
straight-curve $-1 79.249244666890462 -13.187236165109343 121.47166496245204 0 0 -1 I I #
point $-1 79.249244666890462 -13.187236165109343 25.855973009955985 #
straight-curve $-1 79.249244666890462 -2.0338795798943536 20.974036452417558 0 1 0 I I #
point $-1 79.249244666890462 -13.187236165109343 20.974036452417565 #
point $-1 74.346977140792262 -4.0677591597887073 21.106969683106129 #
straight-curve $-1 0 -77.139454374592162 -24.08328861715529 -1 0 0 I I #
point $-1 79.249244666890462 -77.139454374592162 -24.08328861715529 #
straight-curve $-1 79.249244666890462 -77.139454374592162 -16.379049825605705 0 0 -1 I I #
End-of-ACIS-data 