500 0 8 0           
7 Unknown 11 ACIS 5.0 NT 24 Thu Mar 25 16:26:12 1999 
-1 9.9999999999999995e-007 1e-010 
body $-1 $8 $-1 $9 #
body $-1 $10 $-1 $11 #
body $-1 $12 $-1 $13 #
body $-1 $14 $-1 $15 #
body $-1 $16 $-1 $17 #
body $-1 $18 $-1 $19 #
body $-1 $20 $-1 $21 #
body $-1 $22 $-1 $23 #
lump $-1 $-1 $24 $0 #
transform $-1 1 0 0 0 1 0 0 0 1 61.333658864101082 39.349228694757926 11.172745565059016 1 rotate no_reflect no_shear #
lump $-1 $-1 $25 $1 #
transform $-1 1 0 0 0 1 0 0 0 1 61.333658864101082 39.349228694757926 11.172745565059016 1 rotate no_reflect no_shear #
lump $-1 $-1 $26 $2 #
transform $-1 1 0 0 0 1 0 0 0 1 61.333658864101082 39.349228694757926 11.172745565059016 1 rotate no_reflect no_shear #
lump $-1 $-1 $27 $3 #
transform $-1 1 0 0 0 1 0 0 0 1 61.333658864101082 39.349228694757926 11.172745565059016 1 rotate no_reflect no_shear #
lump $-1 $-1 $28 $4 #
transform $-1 1 0 0 0 1 0 0 0 1 61.333658864101082 39.349228694757926 11.172745565059016 1 rotate no_reflect no_shear #
lump $-1 $-1 $29 $5 #
transform $-1 1 0 0 0 1 0 0 0 1 61.333658864101082 39.349228694757926 11.172745565059016 1 rotate no_reflect no_shear #
lump $-1 $-1 $30 $6 #
transform $-1 1 0 0 0 1 0 0 0 1 61.333658864101082 39.349228694757926 11.172745565059016 1 rotate no_reflect no_shear #
lump $-1 $-1 $31 $7 #
transform $-1 1 0 0 0 1 0 0 0 1 61.333658864101082 39.349228694757926 11.172745565059016 1 rotate no_reflect no_shear #
shell $-1 $-1 $-1 $32 $-1 $8 #
shell $-1 $-1 $-1 $33 $-1 $10 #
shell $-1 $-1 $-1 $34 $-1 $12 #
shell $-1 $-1 $-1 $35 $-1 $14 #
shell $-1 $-1 $-1 $36 $-1 $16 #
shell $-1 $-1 $-1 $37 $-1 $18 #
shell $-1 $-1 $-1 $38 $-1 $20 #
shell $-1 $-1 $-1 $39 $-1 $22 #
face $-1 $40 $41 $24 $-1 $42 forward single #
face $-1 $43 $44 $25 $-1 $45 forward single #
face $-1 $46 $47 $26 $-1 $48 reversed single #
face $-1 $49 $50 $27 $-1 $51 forward single #
face $-1 $52 $53 $28 $-1 $54 forward single #
face $-1 $55 $56 $29 $-1 $57 reversed single #
face $-1 $58 $59 $30 $-1 $60 forward single #
face $-1 $61 $62 $31 $-1 $63 forward single #
face $-1 $64 $65 $24 $-1 $66 reversed single #
loop $-1 $-1 $67 $32 #
plane-surface $-1 0 0 11.172745565059016 0 0 1 1 0 0 forward_v I I I I #
face $-1 $68 $69 $25 $-1 $70 reversed single #
loop $-1 $-1 $71 $33 #
plane-surface $-1 -57.292208752346141 0 1.8166710112960036 0 0 1 1 0 0 forward_v I I I I #
face $-1 $72 $73 $26 $-1 $74 reversed single #
loop $-1 $-1 $75 $34 #
plane-surface $-1 -14.754282962556729 35.06982474627371 151.79688972612465 1 0 0 0 -0.51503808176128008 -0.85716729658548041 forward_v I I I I #
face $-1 $76 $77 $27 $-1 $78 forward single #
loop $-1 $79 $80 $35 #
cone-surface $-1 -9.3840735127533961 33.525226702079514 5.9531889426379045 0 -0.51503808176128008 -0.85716729658548041 2 0 0 1 I I 0 1 2 forward I I I I #
face $-1 $81 $82 $28 $-1 $83 forward single #
loop $-1 $84 $85 $36 #
cone-surface $-1 -1.3287593380483926 33.525226702079514 5.9531889426379045 0 -0.51503808176128008 -0.85716729658548041 2 0 0 1 I I 0 1 2 forward I I I I #
face $-1 $86 $87 $29 $-1 $88 reversed single #
loop $-1 $-1 $89 $37 #
plane-surface $-1 42.537925789789412 35.06982474627371 151.79688972612465 1 0 0 0 -0.51503808176128008 -0.85716729658548041 forward_v I I I I #
face $-1 $90 $91 $30 $-1 $92 forward single #
loop $-1 $93 $94 $38 #
cone-surface $-1 47.908135239592738 33.525226702079514 5.9531889426379045 0 -0.51503808176128008 -0.85716729658548041 2 0 0 1 I I 0 1 2 forward I I I I #
face $-1 $95 $96 $31 $-1 $97 forward single #
loop $-1 $98 $99 $39 #
cone-surface $-1 55.963449414297756 33.525226702079514 5.9531889426379045 0 -0.51503808176128008 -0.85716729658548041 2 0 0 1 I I 0 1 2 forward I I I I #
face $-1 $100 $101 $24 $-1 $102 reversed single #
loop $-1 $-1 $103 $40 #
plane-surface $-1 0 0 -11.172745565059016 0 0 1 1 0 0 forward_v I I I I #
coedge $-1 $104 $105 $106 $107 forward $41 $-1 #
face $-1 $108 $109 $25 $-1 $110 reversed single #
loop $-1 $-1 $111 $43 #
plane-surface $-1 -57.292208752346141 0 -2.322840256410208 0 0 1 1 0 0 forward_v I I I I #
coedge $-1 $112 $113 $114 $115 forward $44 $-1 #
face $-1 $116 $117 $26 $-1 $118 reversed single #
loop $-1 $-1 $119 $46 #
plane-surface $-1 -5.3564164254008944 -28.108515271260991 46.650476609649431 0 0.51503808176128008 0.85716729658548041 1 0 0 forward_v I I I I #
coedge $-1 $120 $121 $122 $123 reversed $47 $-1 #
face $-1 $-1 $124 $27 $-1 $125 forward single #
loop $-1 $126 $127 $49 #
cone-surface $-1 -9.3840735127533961 31.392629216221025 2.4039507670701621 0 -0.51503808176128008 -0.85716729658548041 1 0 0 1 I I -0.70710678118654746 0.70710678118654746 1 forward I I I I #
loop $-1 $-1 $128 $35 #
coedge $-1 $80 $80 $129 $130 reversed $50 $-1 #
face $-1 $-1 $131 $28 $-1 $132 forward single #
loop $-1 $133 $134 $52 #
cone-surface $-1 -1.3287593380483926 31.392629216221025 2.4039507670701621 0 -0.51503808176128008 -0.85716729658548041 1 0 0 1 I I -0.70710678118654746 0.70710678118654746 1 forward I I I I #
loop $-1 $-1 $135 $36 #
coedge $-1 $85 $85 $136 $137 reversed $53 $-1 #
face $-1 $138 $139 $29 $-1 $140 forward single #
loop $-1 $-1 $141 $55 #
plane-surface $-1 51.935792326945247 -28.108515271260991 46.650476609649431 0 0.51503808176128008 0.85716729658548041 1 0 0 forward_v I I I I #
coedge $-1 $142 $143 $144 $145 reversed $56 $-1 #
face $-1 $-1 $146 $30 $-1 $147 forward single #
loop $-1 $148 $149 $58 #
cone-surface $-1 47.908135239592738 31.392629216221025 2.4039507670701621 0 -0.51503808176128008 -0.85716729658548041 1 0 0 1 I I -0.70710678118654746 0.70710678118654746 1 forward I I I I #
loop $-1 $-1 $150 $38 #
coedge $-1 $94 $94 $151 $152 reversed $59 $-1 #
face $-1 $-1 $153 $31 $-1 $154 forward single #
loop $-1 $155 $156 $61 #
cone-surface $-1 55.963449414297756 31.392629216221025 2.4039507670701621 0 -0.51503808176128008 -0.85716729658548041 1 0 0 1 I I -0.70710678118654746 0.70710678118654746 1 forward I I I I #
loop $-1 $-1 $157 $39 #
coedge $-1 $99 $99 $158 $159 reversed $62 $-1 #
face $-1 $160 $161 $24 $-1 $162 reversed single #
loop $-1 $-1 $163 $64 #
plane-surface $-1 0 -39.349228694757926 0 0 1 0 0 0 1 forward_v I I I I #
coedge $-1 $164 $165 $166 $167 forward $65 $-1 #
coedge $-1 $168 $67 $169 $170 forward $41 $-1 #
coedge $-1 $67 $168 $171 $172 forward $41 $-1 #
coedge $-1 $173 $174 $67 $107 reversed $175 $-1 #
edge $-1 $176 -39.349228694757926 $177 39.349228694757926 $106 $178 forward 7 unknown #
face $-1 $179 $180 $25 $-1 $181 reversed single #
loop $-1 $-1 $182 $68 #
plane-surface $-1 -53.250758640591201 0 -0.25308462255710218 -1 0 0 0 0 1 forward_v I I I I #
coedge $-1 $183 $184 $185 $186 forward $69 $-1 #
coedge $-1 $187 $71 $188 $189 reversed $44 $-1 #
coedge $-1 $71 $187 $190 $191 reversed $44 $-1 #
coedge $-1 $182 $192 $71 $115 reversed $109 $-1 #
edge $-1 $193 -39.349228694757926 $194 39.349228694757926 $114 $195 forward 7 unknown #
face $-1 $196 $197 $26 $-1 $198 forward single #
loop $-1 $-1 $199 $72 #
plane-surface $-1 4.0414501117549406 35.06982474627371 151.79688972612465 -1 0 0 0 0.51503808176128008 0.85716729658548041 forward_v I I I I #
coedge $-1 $200 $201 $202 $203 reversed $73 $-1 #
coedge $-1 $121 $75 $204 $205 reversed $47 $-1 #
coedge $-1 $75 $120 $200 $206 reversed $47 $-1 #
coedge $-1 $202 $207 $75 $123 forward $197 $-1 #
edge $-1 $208 -21.814316321621071 $209 -13.401431144458705 $122 $210 forward 7 unknown #
loop $-1 $-1 $129 $76 #
plane-surface $-1 -5.3564164254008944 -28.108515271260991 46.650476609649431 0 0.51503808176128008 0.85716729658548041 1 0 0 forward_v I I I I #
loop $-1 $-1 $211 $49 #
coedge $-1 $127 $127 $128 $212 reversed $77 $-1 #
coedge $-1 $128 $128 $127 $212 forward $79 $-1 #
coedge $-1 $129 $129 $80 $130 forward $124 $-1 #
edge $-1 $213 2.901524244473847e-015 $213 6.2831853071796031 $129 $214 forward 7 unknown #
loop $-1 $-1 $136 $81 #
plane-surface $-1 -5.3564164254008944 -28.108515271260991 46.650476609649431 0 0.51503808176128008 0.85716729658548041 1 0 0 forward_v I I I I #
loop $-1 $-1 $215 $52 #
coedge $-1 $134 $134 $135 $216 reversed $82 $-1 #
coedge $-1 $135 $135 $134 $216 forward $84 $-1 #
coedge $-1 $136 $136 $85 $137 forward $131 $-1 #
edge $-1 $217 2.901524244473847e-015 $217 6.2831853071796031 $136 $218 forward 7 unknown #
face $-1 $219 $220 $29 $-1 $221 reversed single #
loop $-1 $-1 $144 $86 #
plane-surface $-1 0 0 11.172745565059016 0 0 1 1 0 0 forward_v I I I I #
coedge $-1 $222 $223 $224 $225 reversed $87 $-1 #
coedge $-1 $143 $89 $226 $227 reversed $56 $-1 #
coedge $-1 $89 $142 $222 $228 reversed $56 $-1 #
coedge $-1 $224 $229 $89 $145 forward $139 $-1 #
edge $-1 $230 -21.814316321621071 $231 -13.401431144458705 $144 $232 forward 7 unknown #
loop $-1 $-1 $151 $90 #
plane-surface $-1 51.935792326945247 -28.108515271260991 46.650476609649431 0 0.51503808176128008 0.85716729658548041 1 0 0 forward_v I I I I #
loop $-1 $-1 $233 $58 #
coedge $-1 $149 $149 $150 $234 reversed $91 $-1 #
coedge $-1 $150 $150 $149 $234 forward $93 $-1 #
coedge $-1 $151 $151 $94 $152 forward $146 $-1 #
edge $-1 $235 2.901524244473847e-015 $235 6.2831853071796031 $151 $236 forward 7 unknown #
loop $-1 $-1 $158 $95 #
plane-surface $-1 51.935792326945247 -28.108515271260991 46.650476609649431 0 0.51503808176128008 0.85716729658548041 1 0 0 forward_v I I I I #
loop $-1 $-1 $237 $61 #
coedge $-1 $156 $156 $157 $238 reversed $96 $-1 #
coedge $-1 $157 $157 $156 $238 forward $98 $-1 #
coedge $-1 $158 $158 $99 $159 forward $153 $-1 #
edge $-1 $239 2.901524244473847e-015 $239 6.2831853071796031 $158 $240 forward 7 unknown #
face $-1 $241 $242 $24 $-1 $243 reversed single #
loop $-1 $-1 $244 $100 #
plane-surface $-1 -61.333658864101082 0 0 1 0 0 0 0 -1 forward_v I I I I #
coedge $-1 $245 $171 $246 $247 forward $101 $-1 #
coedge $-1 $248 $103 $245 $249 forward $65 $-1 #
coedge $-1 $103 $248 $250 $251 forward $65 $-1 #
coedge $-1 $174 $173 $103 $167 reversed $175 $-1 #
edge $-1 $252 -39.349228694757926 $253 39.349228694757926 $166 $254 forward 7 unknown #
coedge $-1 $105 $104 $255 $256 forward $41 $-1 #
coedge $-1 $257 $258 $104 $170 reversed $242 $-1 #
edge $-1 $177 -61.333658864101082 $259 61.333658864101082 $169 $260 forward 7 unknown #
coedge $-1 $163 $261 $105 $172 reversed $101 $-1 #
edge $-1 $262 -61.333658864101082 $176 61.333658864101082 $171 $263 forward 7 unknown #
coedge $-1 $166 $106 $261 $264 forward $175 $-1 #
coedge $-1 $106 $166 $257 $265 reversed $175 $-1 #
loop $-1 $-1 $173 $241 #
vertex $-1 $107 $266 #
vertex $-1 $107 $267 #
straight-curve $-1 61.333658864101082 0 11.172745565059016 0 1 0 I I #
face $-1 $268 $269 $25 $-1 $270 reversed single #
loop $-1 $-1 $271 $108 #
plane-surface $-1 0 -39.349228694757926 0 0 1 0 0 0 1 forward_v I I I I #
coedge $-1 $185 $114 $272 $273 reversed $109 $-1 #
coedge $-1 $274 $111 $271 $275 reversed $69 $-1 #
coedge $-1 $111 $274 $276 $277 reversed $69 $-1 #
coedge $-1 $192 $182 $111 $186 reversed $109 $-1 #
edge $-1 $278 -39.349228694757926 $279 39.349228694757926 $185 $280 forward 7 unknown #
coedge $-1 $113 $112 $281 $282 reversed $44 $-1 #
coedge $-1 $283 $284 $112 $189 forward $285 $-1 #
edge $-1 $286 -32.687554487928011 $194 -24.60465426441813 $188 $287 forward 7 unknown #
coedge $-1 $288 $272 $113 $191 forward $180 $-1 #
edge $-1 $193 24.60465426441813 $289 32.687554487928011 $190 $290 forward 7 unknown #
coedge $-1 $114 $185 $283 $291 reversed $109 $-1 #
vertex $-1 $191 $292 #
vertex $-1 $189 $293 #
straight-curve $-1 -53.250758640591201 0 1.8166710112960036 0 1 0 I I #
face $-1 $-1 $294 $26 $-1 $295 reversed single #
loop $-1 $-1 $122 $116 #
plane-surface $-1 0 0 11.172745565059016 0 0 1 1 0 0 forward_v I I I I #
coedge $-1 $296 $297 $298 $299 reversed $117 $-1 #
coedge $-1 $300 $119 $121 $206 forward $73 $-1 #
coedge $-1 $119 $300 $296 $301 forward $73 $-1 #
coedge $-1 $298 $122 $119 $203 forward $197 $-1 #
edge $-1 $209 -12.076074749856282 $302 6.7196583244553878 $202 $303 forward 7 unknown #
coedge $-1 $304 $305 $120 $205 forward $294 $-1 #
edge $-1 $306 -69.780670784880968 $208 -64.725699298003306 $204 $307 forward 7 unknown #
edge $-1 $209 68.883704527764081 $306 78.698457389515823 $121 $308 forward 7 unknown #
coedge $-1 $122 $298 $304 $309 forward $197 $-1 #
vertex $-1 $205 $310 #
vertex $-1 $123 $311 #
straight-curve $-1 -14.754282962556729 17.534912373136855 11.172745565059017 0 -1 0 I I #
coedge $-1 $211 $211 $-1 $312 reversed $126 $-1 #
edge $-1 $313 0 $313 6.2831853071796004 $127 $314 forward 7 unknown #
vertex $-1 $130 $315 #
ellipse-curve $-1 -9.3840735127533961 35.142786106176736 8.6452598216201881 0 0.51503808176128008 0.85716729658548041 2 0 0 1 I I #
coedge $-1 $215 $215 $-1 $316 reversed $133 $-1 #
edge $-1 $317 0 $317 6.2831853071796004 $134 $318 forward 7 unknown #
vertex $-1 $137 $319 #
ellipse-curve $-1 -1.3287593380483926 35.142786106176736 8.6452598216201881 0 0.51503808176128008 0.85716729658548041 2 0 0 1 I I #
face $-1 $-1 $320 $29 $-1 $321 reversed single #
loop $-1 $-1 $322 $138 #
plane-surface $-1 61.333658864101082 0 0 -1 0 0 0 0 1 forward_v I I I I #
coedge $-1 $323 $141 $143 $228 forward $87 $-1 #
coedge $-1 $141 $323 $322 $324 reversed $87 $-1 #
coedge $-1 $325 $144 $141 $225 forward $139 $-1 #
edge $-1 $231 16.570029626316789 $326 35.365762700628459 $224 $327 forward 7 unknown #
coedge $-1 $328 $329 $142 $227 forward $320 $-1 #
edge $-1 $330 -69.780670784880968 $230 -64.725699298003306 $226 $331 forward 7 unknown #
edge $-1 $231 68.883704527764081 $330 78.698457389515823 $143 $332 forward 7 unknown #
coedge $-1 $144 $325 $328 $333 forward $139 $-1 #
vertex $-1 $227 $334 #
vertex $-1 $145 $335 #
straight-curve $-1 42.537925789789412 17.534912373136855 11.172745565059017 0 -1 0 I I #
coedge $-1 $233 $233 $-1 $336 reversed $148 $-1 #
edge $-1 $337 0 $337 6.2831853071796004 $149 $338 forward 7 unknown #
vertex $-1 $152 $339 #
ellipse-curve $-1 47.908135239592738 35.142786106176736 8.6452598216201881 0 0.51503808176128008 0.85716729658548041 2 0 0 1 I I #
coedge $-1 $237 $237 $-1 $340 reversed $155 $-1 #
edge $-1 $341 0 $341 6.2831853071796004 $156 $342 forward 7 unknown #
vertex $-1 $159 $343 #
ellipse-curve $-1 55.963449414297756 35.142786106176736 8.6452598216201881 0 0.51503808176128008 0.85716729658548041 2 0 0 1 I I #
face $-1 $-1 $175 $24 $-1 $344 reversed single #
loop $-1 $-1 $257 $160 #
plane-surface $-1 0 39.349228694757926 0 0 -1 0 0 0 -1 forward_v I I I I #
coedge $-1 $345 $255 $258 $346 forward $161 $-1 #
coedge $-1 $261 $163 $164 $249 reversed $101 $-1 #
coedge $-1 $255 $345 $163 $247 reversed $161 $-1 #
edge $-1 $262 -11.172745565059016 $347 11.172745565059016 $246 $348 forward 7 unknown #
coedge $-1 $165 $164 $345 $349 forward $65 $-1 #
edge $-1 $253 -61.333658864101082 $347 61.333658864101082 $245 $350 forward 7 unknown #
coedge $-1 $258 $257 $165 $251 reversed $242 $-1 #
edge $-1 $351 -61.333658864101082 $252 61.333658864101082 $250 $352 forward 7 unknown #
vertex $-1 $167 $353 #
vertex $-1 $264 $354 #
straight-curve $-1 61.333658864101082 0 -11.172745565059016 0 -1 0 I I #
coedge $-1 $244 $246 $168 $256 reversed $161 $-1 #
edge $-1 $259 -39.349228694757926 $262 39.349228694757926 $255 $355 forward 7 unknown #
coedge $-1 $250 $169 $174 $265 forward $242 $-1 #
coedge $-1 $169 $250 $244 $346 reversed $242 $-1 #
vertex $-1 $170 $356 #
straight-curve $-1 0 39.349228694757926 11.172745565059016 -1 0 0 I I #
coedge $-1 $171 $245 $173 $264 reversed $101 $-1 #
vertex $-1 $256 $357 #
straight-curve $-1 0 -39.349228694757926 11.172745565059016 1 0 0 I I #
edge $-1 $176 -11.172745565059016 $253 11.172745565059016 $173 $358 forward 7 unknown #
edge $-1 $177 -11.172745565059016 $252 11.172745565059016 $174 $359 forward 7 unknown #
point $-1 61.333658864101082 -39.349228694757926 11.172745565059016 #
point $-1 61.333658864101082 39.349228694757926 11.172745565059016 #
face $-1 $-1 $285 $25 $-1 $360 reversed single #
loop $-1 $-1 $361 $179 #
plane-surface $-1 -61.333658864101082 0 0 1 0 0 0 0 -1 forward_v I I I I #
coedge $-1 $272 $288 $183 $275 forward $180 $-1 #
coedge $-1 $190 $271 $182 $273 forward $180 $-1 #
edge $-1 $279 -2.1962979451316569 $193 1.9432133225745547 $272 $362 forward 7 unknown #
coedge $-1 $184 $183 $361 $363 reversed $69 $-1 #
edge $-1 $364 -32.687554487928011 $279 -24.60465426441813 $271 $365 forward 7 unknown #
coedge $-1 $284 $283 $184 $277 forward $285 $-1 #
edge $-1 $278 24.60465426441813 $366 32.687554487928011 $276 $367 forward 7 unknown #
vertex $-1 $277 $368 #
vertex $-1 $275 $369 #
straight-curve $-1 -53.250758640591201 0 -2.322840256410208 0 -1 0 I I #
coedge $-1 $370 $371 $187 $282 forward $269 $-1 #
edge $-1 $289 -39.349228694757926 $286 39.349228694757926 $281 $372 forward 7 unknown #
coedge $-1 $276 $188 $192 $291 forward $285 $-1 #
coedge $-1 $188 $276 $370 $373 reversed $285 $-1 #
loop $-1 $-1 $276 $268 #
vertex $-1 $373 $374 #
straight-curve $-1 -28.646104376173071 39.349228694757926 1.8166710112960036 1 0 0 I I #
coedge $-1 $271 $190 $371 $375 forward $180 $-1 #
vertex $-1 $375 $376 #
straight-curve $-1 -28.646104376173071 -39.349228694757926 1.8166710112960036 -1 0 0 I I #
edge $-1 $194 -1.9432133225745547 $278 2.1962979451316569 $283 $377 forward 7 unknown #
point $-1 -53.250758640591201 -39.349228694757926 1.8166710112960036 #
point $-1 -53.250758640591201 39.349228694757926 1.8166710112960036 #
loop $-1 $-1 $204 $196 #
plane-surface $-1 0 39.349228694757926 0 0 -1 0 0 0 -1 forward_v I I I I #
coedge $-1 $297 $199 $201 $301 reversed $117 $-1 #
coedge $-1 $199 $296 $378 $379 reversed $117 $-1 #
coedge $-1 $207 $202 $199 $299 forward $197 $-1 #
edge $-1 $302 13.401431144458705 $380 21.814316321621071 $298 $381 forward 7 unknown #
coedge $-1 $201 $200 $305 $382 reversed $73 $-1 #
edge $-1 $383 -78.698457389515823 $302 -68.883704527764081 $296 $384 forward 7 unknown #
vertex $-1 $203 $385 #
straight-curve $-1 -2.6782082127004472 30.936343517595567 11.172745565059014 1 0 0 I I #
coedge $-1 $378 $204 $207 $309 reversed $294 $-1 #
coedge $-1 $204 $378 $300 $382 forward $294 $-1 #
vertex $-1 $205 $386 #
straight-curve $-1 -14.754282962556729 39.349228694757926 75.898444863062323 0 0 1 I I #
straight-curve $-1 -14.754282962556729 -28.108515271260991 46.650476609649431 0 0.85716729658548041 -0.51503808176128008 I I #
edge $-1 $380 -4.0414501117549406 $208 14.754282962556729 $304 $387 forward 7 unknown #
point $-1 -14.754282962556729 39.349228694757926 11.172745565059016 #
point $-1 -14.754282962556729 30.93634351759556 11.172745565059017 #
edge $-1 $388 1 $388 0 $211 $-1 forward 7 unknown #
vertex $-1 $212 $389 #
ellipse-curve $-1 -9.3840735127533961 31.907667297982304 3.2611180636556423 0 0.51503808176128008 0.85716729658548041 2 0 0 1 I I #
point $-1 -7.3840735127533961 35.142786106176729 8.645259821620165 #
edge $-1 $390 1 $390 0 $215 $-1 forward 7 unknown #
vertex $-1 $216 $391 #
ellipse-curve $-1 -1.3287593380483926 31.907667297982304 3.2611180636556423 0 0.51503808176128008 0.85716729658548041 2 0 0 1 I I #
point $-1 0.67124066195160736 35.142786106176729 8.645259821620165 #
loop $-1 $-1 $226 $219 #
plane-surface $-1 0 39.349228694757926 0 0 -1 0 0 0 -1 forward_v I I I I #
coedge $-1 $392 $393 $223 $324 forward $220 $-1 #
coedge $-1 $223 $222 $329 $394 reversed $87 $-1 #
edge $-1 $326 44.823468511573182 $395 54.638221373324946 $322 $396 forward 7 unknown #
coedge $-1 $229 $224 $393 $397 forward $139 $-1 #
vertex $-1 $397 $398 #
straight-curve $-1 25.967896163472624 30.936343517595567 11.172745565059014 1 0 0 I I #
coedge $-1 $399 $226 $229 $333 reversed $320 $-1 #
coedge $-1 $226 $399 $323 $394 forward $320 $-1 #
vertex $-1 $227 $400 #
straight-curve $-1 42.537925789789412 39.349228694757926 75.898444863062323 0 0 1 I I #
straight-curve $-1 42.537925789789412 -28.108515271260991 46.650476609649431 0 0.85716729658548041 -0.51503808176128008 I I #
edge $-1 $401 -61.333658864101082 $230 -42.537925789789412 $328 $402 forward 7 unknown #
point $-1 42.537925789789412 39.349228694757926 11.172745565059016 #
point $-1 42.537925789789412 30.93634351759556 11.172745565059017 #
edge $-1 $403 1 $403 0 $233 $-1 forward 7 unknown #
vertex $-1 $234 $404 #
ellipse-curve $-1 47.908135239592738 31.907667297982304 3.2611180636556423 0 0.51503808176128008 0.85716729658548041 2 0 0 1 I I #
point $-1 49.908135239592738 35.142786106176729 8.645259821620165 #
edge $-1 $405 1 $405 0 $237 $-1 forward 7 unknown #
vertex $-1 $238 $406 #
ellipse-curve $-1 55.963449414297756 31.907667297982304 3.2611180636556423 0 0.51503808176128008 0.85716729658548041 2 0 0 1 I I #
point $-1 57.963449414297756 35.142786106176729 8.645259821620165 #
plane-surface $-1 61.333658864101082 0 0 -1 0 0 0 0 1 forward_v I I I I #
coedge $-1 $246 $244 $248 $349 reversed $161 $-1 #
edge $-1 $259 -11.172745565059016 $351 11.172745565059016 $258 $407 forward 7 unknown #
vertex $-1 $349 $408 #
straight-curve $-1 -61.333658864101082 -39.349228694757926 0 0 0 -1 I I #
edge $-1 $347 -39.349228694757926 $351 39.349228694757926 $345 $409 forward 7 unknown #
straight-curve $-1 0 -39.349228694757926 -11.172745565059016 -1 0 0 I I #
vertex $-1 $251 $410 #
straight-curve $-1 0 39.349228694757926 -11.172745565059016 1 0 0 I I #
point $-1 61.333658864101082 39.349228694757926 -11.172745565059016 #
point $-1 61.333658864101082 -39.349228694757926 -11.172745565059016 #
straight-curve $-1 -61.333658864101082 0 11.172745565059016 0 -1 0 I I #
point $-1 -61.333658864101082 39.349228694757926 11.172745565059016 #
point $-1 -61.333658864101082 -39.349228694757926 11.172745565059016 #
straight-curve $-1 61.333658864101082 -39.349228694757926 0 0 0 -1 I I #
straight-curve $-1 61.333658864101082 39.349228694757926 0 0 0 -1 I I #
plane-surface $-1 0 39.349228694757926 0 0 -1 0 0 0 -1 forward_v I I I I #
coedge $-1 $371 $370 $274 $363 forward $269 $-1 #
straight-curve $-1 -53.250758640591201 -39.349228694757926 -0.12654231127855109 0 0 1 I I #
edge $-1 $366 -39.349228694757926 $364 39.349228694757926 $361 $411 forward 7 unknown #
vertex $-1 $275 $412 #
straight-curve $-1 -28.646104376173071 -39.349228694757926 -2.322840256410208 1 0 0 I I #
vertex $-1 $277 $413 #
straight-curve $-1 -28.646104376173071 39.349228694757926 -2.322840256410208 -1 0 0 I I #
point $-1 -53.250758640591201 39.349228694757926 -2.322840256410208 #
point $-1 -53.250758640591201 -39.349228694757926 -2.322840256410208 #
coedge $-1 $361 $281 $284 $373 forward $269 $-1 #
coedge $-1 $281 $361 $288 $375 reversed $269 $-1 #
straight-curve $-1 -61.333658864101082 0 1.8166710112960036 0 1 0 I I #
edge $-1 $286 -1.8166710112960036 $366 2.322840256410208 $284 $414 forward 7 unknown #
point $-1 -61.333658864101082 39.349228694757926 1.8166710112960036 #
edge $-1 $289 -1.8166710112960036 $364 2.322840256410208 $371 $415 forward 7 unknown #
point $-1 -61.333658864101082 -39.349228694757926 1.8166710112960036 #
straight-curve $-1 -53.250758640591201 39.349228694757926 -0.12654231127855109 0 0 -1 I I #
coedge $-1 $305 $304 $297 $379 forward $294 $-1 #
edge $-1 $380 64.725699298003306 $383 69.780670784880968 $378 $416 forward 7 unknown #
vertex $-1 $309 $417 #
straight-curve $-1 4.0414501117549406 17.534912373136855 11.172745565059017 0 1 0 I I #
edge $-1 $383 -6.7196583244553878 $306 12.076074749856282 $305 $418 forward 7 unknown #
vertex $-1 $382 $419 #
straight-curve $-1 4.0414501117549406 -28.108515271260991 46.650476609649431 0 -0.85716729658548041 0.51503808176128008 I I #
point $-1 4.0414501117549406 30.93634351759556 11.172745565059017 #
point $-1 -14.754282962556729 39.349228694757919 6.1177740781813554 #
straight-curve $-1 0 39.349228694757926 11.172745565059016 -1 0 0 I I #
vertex $-1 $312 $420 #
point $-1 -7.3840735127533961 31.907667297982304 3.2611180636556423 #
vertex $-1 $316 $421 #
point $-1 0.67124066195160736 31.907667297982304 3.2611180636556423 #
coedge $-1 $393 $322 $399 $422 reversed $220 $-1 #
coedge $-1 $322 $392 $325 $397 reversed $220 $-1 #
edge $-1 $395 -35.365762700628459 $330 -16.570029626316789 $329 $423 forward 7 unknown #
vertex $-1 $324 $424 #
straight-curve $-1 61.333658864101082 -7.4848678100540349 34.258538805146813 0 0.85716729658548041 -0.51503808176128008 I I #
edge $-1 $326 30.93634351759556 $401 39.349228694757926 $393 $425 forward 7 unknown #
point $-1 61.333658864101082 30.93634351759556 11.172745565059017 #
coedge $-1 $329 $328 $392 $422 forward $320 $-1 #
point $-1 42.537925789789412 39.349228694757919 6.1177740781813554 #
vertex $-1 $397 $426 #
straight-curve $-1 0 39.349228694757926 11.172745565059016 -1 0 0 I I #
vertex $-1 $336 $427 #
point $-1 49.908135239592738 31.907667297982304 3.2611180636556423 #
vertex $-1 $340 $428 #
point $-1 57.963449414297756 31.907667297982304 3.2611180636556423 #
straight-curve $-1 -61.333658864101082 39.349228694757926 0 0 0 -1 I I #
point $-1 -61.333658864101082 -39.349228694757926 -11.172745565059016 #
straight-curve $-1 -61.333658864101082 0 -11.172745565059016 0 1 0 I I #
point $-1 -61.333658864101082 39.349228694757926 -11.172745565059016 #
straight-curve $-1 -61.333658864101082 0 -2.322840256410208 0 -1 0 I I #
point $-1 -61.333658864101082 -39.349228694757926 -2.322840256410208 #
point $-1 -61.333658864101082 39.349228694757926 -2.322840256410208 #
straight-curve $-1 -61.333658864101082 39.349228694757926 0 0 0 -1 I I #
straight-curve $-1 -61.333658864101082 -39.349228694757926 0 0 0 -1 I I #
straight-curve $-1 4.0414501117549406 39.349228694757926 75.898444863062323 0 0 -1 I I #
point $-1 4.0414501117549406 39.349228694757926 11.172745565059016 #
straight-curve $-1 -2.6782082127004472 39.349228694757926 6.117774078181359 -1 0 0 I I #
point $-1 4.0414501117549406 39.349228694757919 6.1177740781813554 #
point $-1 -9.3840735127533961 30.877591134459745 1.5467834704846817 #
point $-1 -1.3287593380483926 30.877591134459745 1.5467834704846817 #
edge $-1 $401 -11.172745565059016 $395 -6.1177740781813554 $392 $429 forward 7 unknown #
straight-curve $-1 25.967896163472624 39.349228694757926 6.117774078181359 -1 0 0 I I #
point $-1 61.333658864101082 39.349228694757919 6.1177740781813554 #
straight-curve $-1 61.333658864101082 0 11.172745565059016 0 1 0 I I #
point $-1 61.333658864101082 39.349228694757926 11.172745565059016 #
point $-1 47.908135239592738 30.877591134459745 1.5467834704846817 #
point $-1 55.963449414297756 30.877591134459745 1.5467834704846817 #
straight-curve $-1 61.333658864101082 39.349228694757926 0 0 0 -1 I I #
End-of-ACIS-data 