500 0 13 0           
7 Unknown 11 ACIS 5.0 NT 24 Fri Mar 26 20:34:47 1999 
-1 9.9999999999999995e-007 1e-010 
body $-1 $13 $-1 $14 #
body $-1 $15 $-1 $16 #
body $-1 $17 $-1 $18 #
body $-1 $19 $-1 $20 #
body $-1 $21 $-1 $22 #
body $-1 $23 $-1 $24 #
body $-1 $25 $-1 $26 #
body $-1 $27 $-1 $28 #
body $-1 $29 $-1 $30 #
body $-1 $31 $-1 $32 #
body $-1 $33 $-1 $34 #
body $-1 $35 $-1 $36 #
body $-1 $37 $-1 $38 #
lump $-1 $-1 $39 $0 #
transform $-1 1 0 0 0 1 0 0 0 1 63.491927854243599 32.356720348510926 7.1897349524055674 1 rotate no_reflect no_shear #
lump $-1 $-1 $40 $1 #
transform $-1 1 0 0 0 1 0 0 0 1 -4.2417680859238649 3.8209020469940125 7.1897349524055674 1 rotate no_reflect no_shear #
lump $-1 $-1 $41 $2 #
transform $-1 1 0 0 0 1 0 0 0 1 131.22562379441106 3.8209020469940125 7.1897349524055674 1 rotate no_reflect no_shear #
lump $-1 $-1 $42 $3 #
transform $-1 1 0 0 0 0.62932038083071107 0.77714596973225614 0 -0.77714596973225614 0.62932038083071107 53.244606669852949 -98.684991684913186 88.049204704558221 1 rotate no_reflect no_shear #
lump $-1 $-1 $43 $4 #
transform $-1 1 0 0 0 -0.62932038083071107 -0.77714596973225614 0 0.77714596973225614 -0.62932038083071107 48.852897590828384 4.8288690966704477 9.3944163909714398 1 rotate no_reflect no_shear #
lump $-1 $-1 $44 $5 #
transform $-1 1 0 0 0 -0.62932038083071107 -0.77714596973225614 0 0.77714596973225614 -0.62932038083071107 57.636315748877514 4.8288690966704477 9.3944163909714398 1 rotate no_reflect no_shear #
lump $-1 $-1 $45 $6 #
transform $-1 1 0 0 0 0.62932038083071107 0.77714596973225614 0 -0.77714596973225614 0.62932038083071107 73.739249038634256 -98.684991684913186 88.049204704558221 1 rotate no_reflect no_shear #
lump $-1 $-1 $46 $7 #
transform $-1 1 0 0 0 -0.62932038083071107 -0.77714596973225614 0 0.77714596973225614 -0.62932038083071107 69.347539959609691 4.8288690966704477 9.3944163909714398 1 rotate no_reflect no_shear #
lump $-1 $-1 $47 $8 #
transform $-1 1 0 0 0 -0.62932038083071107 -0.77714596973225614 0 0.77714596973225614 -0.62932038083071107 78.130958117658821 4.8288690966704477 9.3944163909714398 1 rotate no_reflect no_shear #
lump $-1 $-1 $48 $9 #
transform $-1 1 0 0 0 0.74314481823134659 -0.66913061440640931 0 0.66913061440640931 0.74314481823134659 14.738144921232852 101.59076796302338 146.60025981552479 1 rotate no_reflect no_shear #
lump $-1 $-1 $49 $10 #
transform $-1 1 0 0 0 -0.74314481823134659 0.66913061440640931 0 -0.66913061440640931 -0.74314481823134659 10.985379671601779 59.564239683525784 9.2966889812133928 1 rotate no_reflect no_shear #
lump $-1 $-1 $50 $11 #
transform $-1 1 0 0 0 -0.74314481823134659 0.66913061440640931 0 -0.66913061440640931 -0.74314481823134659 14.738144921232852 59.564239683525784 9.2966889812133928 1 rotate no_reflect no_shear #
lump $-1 $-1 $51 $12 #
transform $-1 1 0 0 0 -0.74314481823134659 0.66913061440640931 0 -0.66913061440640931 -0.74314481823134659 18.490910170863927 59.564239683525784 9.2966889812133928 1 rotate no_reflect no_shear #
shell $-1 $-1 $-1 $52 $-1 $13 #
shell $-1 $-1 $-1 $53 $-1 $15 #
shell $-1 $-1 $-1 $54 $-1 $17 #
shell $-1 $-1 $-1 $55 $-1 $19 #
shell $-1 $-1 $-1 $56 $-1 $21 #
shell $-1 $-1 $-1 $57 $-1 $23 #
shell $-1 $-1 $-1 $58 $-1 $25 #
shell $-1 $-1 $-1 $59 $-1 $27 #
shell $-1 $-1 $-1 $60 $-1 $29 #
shell $-1 $-1 $-1 $61 $-1 $31 #
shell $-1 $-1 $-1 $62 $-1 $33 #
shell $-1 $-1 $-1 $63 $-1 $35 #
shell $-1 $-1 $-1 $64 $-1 $37 #
face $-1 $65 $66 $39 $-1 $67 forward single #
face $-1 $68 $69 $40 $-1 $70 forward single #
face $-1 $71 $72 $41 $-1 $73 forward single #
face $-1 $74 $75 $42 $-1 $76 forward single #
face $-1 $77 $78 $43 $-1 $79 forward single #
face $-1 $80 $81 $44 $-1 $82 forward single #
face $-1 $83 $84 $45 $-1 $85 forward single #
face $-1 $86 $87 $46 $-1 $88 forward single #
face $-1 $89 $90 $47 $-1 $91 forward single #
face $-1 $92 $93 $48 $-1 $94 forward single #
face $-1 $95 $96 $49 $-1 $97 forward single #
face $-1 $98 $99 $50 $-1 $100 forward single #
face $-1 $101 $102 $51 $-1 $103 forward single #
face $-1 $104 $105 $39 $-1 $106 reversed single #
loop $-1 $-1 $107 $52 #
plane-surface $-1 0 0 7.1897349524055674 0 0 1 1 0 0 forward_v I I I I #
face $-1 $108 $109 $40 $-1 $110 reversed single #
loop $-1 $-1 $111 $53 #
plane-surface $-1 0 0 7.1897349524055674 0 0 1 1 0 0 forward_v I I I I #
face $-1 $112 $113 $41 $-1 $114 reversed single #
loop $-1 $-1 $115 $54 #
plane-surface $-1 0 0 7.1897349524055674 0 0 1 1 0 0 forward_v I I I I #
face $-1 $116 $117 $42 $-1 $118 reversed single #
loop $-1 $-1 $119 $55 #
plane-surface $-1 0 0 126.9838557084872 0 0 1 1 0 0 forward_v I I I I #
face $-1 $120 $121 $43 $-1 $122 forward single #
loop $-1 $123 $124 $56 #
cone-surface $-1 0 0 -1.7302926725058745 0 0 1 1 0 0 1 I I 0 1 1 forward I I I I #
face $-1 $125 $126 $44 $-1 $127 forward single #
loop $-1 $128 $129 $57 #
cone-surface $-1 0 0 -1.7302926725058745 0 0 1 1 0 0 1 I I 0 1 1 forward I I I I #
face $-1 $130 $131 $45 $-1 $132 reversed single #
loop $-1 $-1 $133 $58 #
plane-surface $-1 0 0 126.9838557084872 0 0 1 1 0 0 forward_v I I I I #
face $-1 $134 $135 $46 $-1 $136 forward single #
loop $-1 $137 $138 $59 #
cone-surface $-1 0 0 -1.7302926725058745 0 0 1 1 0 0 1 I I 0 1 1 forward I I I I #
face $-1 $139 $140 $47 $-1 $141 forward single #
loop $-1 $142 $143 $60 #
cone-surface $-1 0 0 -1.7302926725058745 0 0 1 1 0 0 1 I I 0 1 1 forward I I I I #
face $-1 $144 $145 $48 $-1 $146 reversed single #
loop $-1 $-1 $147 $61 #
plane-surface $-1 0 0 126.9838557084872 0 0 1 1 0 0 forward_v I I I I #
face $-1 $148 $149 $49 $-1 $150 forward single #
loop $-1 $151 $152 $62 #
cone-surface $-1 0 0 -1.8369090853602712 0 0 1 1 0 0 1 I I 0 1 1 forward I I I I #
face $-1 $153 $154 $50 $-1 $155 forward single #
loop $-1 $156 $157 $63 #
cone-surface $-1 0 0 -1.8369090853602712 0 0 1 1 0 0 1 I I 0 1 1 forward I I I I #
face $-1 $158 $159 $51 $-1 $160 forward single #
loop $-1 $161 $162 $64 #
cone-surface $-1 0 0 -1.8369090853602712 0 0 1 1 0 0 1 I I 0 1 1 forward I I I I #
face $-1 $163 $164 $39 $-1 $165 reversed single #
loop $-1 $-1 $166 $65 #
plane-surface $-1 0 0 -7.1897349524055674 0 0 1 1 0 0 forward_v I I I I #
coedge $-1 $167 $168 $169 $170 forward $66 $-1 #
face $-1 $171 $172 $40 $-1 $173 reversed single #
loop $-1 $-1 $174 $68 #
plane-surface $-1 0 0 -7.1897349524055674 0 0 1 1 0 0 forward_v I I I I #
coedge $-1 $175 $176 $177 $178 forward $69 $-1 #
face $-1 $179 $180 $41 $-1 $181 reversed single #
loop $-1 $-1 $182 $71 #
plane-surface $-1 0 0 -7.1897349524055674 0 0 1 1 0 0 forward_v I I I I #
coedge $-1 $183 $184 $185 $186 forward $72 $-1 #
face $-1 $187 $188 $42 $-1 $189 reversed single #
loop $-1 $-1 $190 $74 #
plane-surface $-1 0 0 -126.9838557084872 0 0 1 1 0 0 forward_v I I I I #
coedge $-1 $191 $192 $193 $194 forward $75 $-1 #
face $-1 $-1 $195 $43 $-1 $196 forward single #
loop $-1 $-1 $197 $77 #
plane-surface $-1 0 0 -2.9605853450117494 0 0 -1 -1 0 0 forward_v I I I I #
loop $-1 $-1 $198 $56 #
coedge $-1 $124 $124 $197 $199 reversed $78 $-1 #
face $-1 $-1 $200 $44 $-1 $201 forward single #
loop $-1 $-1 $202 $80 #
plane-surface $-1 0 0 -2.9605853450117494 0 0 -1 -1 0 0 forward_v I I I I #
loop $-1 $-1 $203 $57 #
coedge $-1 $129 $129 $202 $204 reversed $81 $-1 #
face $-1 $205 $206 $45 $-1 $207 reversed single #
loop $-1 $-1 $208 $83 #
plane-surface $-1 0 0 -126.9838557084872 0 0 1 1 0 0 forward_v I I I I #
coedge $-1 $209 $210 $211 $212 forward $84 $-1 #
face $-1 $-1 $213 $46 $-1 $214 forward single #
loop $-1 $-1 $215 $86 #
plane-surface $-1 0 0 -2.9605853450117494 0 0 -1 -1 0 0 forward_v I I I I #
loop $-1 $-1 $216 $59 #
coedge $-1 $138 $138 $215 $217 reversed $87 $-1 #
face $-1 $-1 $218 $47 $-1 $219 forward single #
loop $-1 $-1 $220 $89 #
plane-surface $-1 0 0 -2.9605853450117494 0 0 -1 -1 0 0 forward_v I I I I #
loop $-1 $-1 $221 $60 #
coedge $-1 $143 $143 $220 $222 reversed $90 $-1 #
face $-1 $223 $224 $48 $-1 $225 reversed single #
loop $-1 $-1 $226 $92 #
plane-surface $-1 0 0 -126.9838557084872 0 0 1 1 0 0 forward_v I I I I #
coedge $-1 $227 $228 $229 $230 forward $93 $-1 #
face $-1 $-1 $231 $49 $-1 $232 forward single #
loop $-1 $-1 $233 $95 #
plane-surface $-1 0 0 -3.1738181707205424 0 0 -1 -1 0 0 forward_v I I I I #
loop $-1 $-1 $234 $62 #
coedge $-1 $152 $152 $233 $235 reversed $96 $-1 #
face $-1 $-1 $236 $50 $-1 $237 forward single #
loop $-1 $-1 $238 $98 #
plane-surface $-1 0 0 -3.1738181707205424 0 0 -1 -1 0 0 forward_v I I I I #
loop $-1 $-1 $239 $63 #
coedge $-1 $157 $157 $238 $240 reversed $99 $-1 #
face $-1 $-1 $241 $51 $-1 $242 forward single #
loop $-1 $-1 $243 $101 #
plane-surface $-1 0 0 -3.1738181707205424 0 0 -1 -1 0 0 forward_v I I I I #
loop $-1 $-1 $244 $64 #
coedge $-1 $162 $162 $243 $245 reversed $102 $-1 #
face $-1 $246 $247 $39 $-1 $248 reversed single #
loop $-1 $-1 $249 $104 #
plane-surface $-1 0 -32.356720348510926 0 0 1 0 0 0 1 forward_v I I I I #
coedge $-1 $250 $251 $252 $253 forward $105 $-1 #
coedge $-1 $254 $107 $255 $256 forward $66 $-1 #
coedge $-1 $107 $254 $257 $258 forward $66 $-1 #
coedge $-1 $259 $260 $107 $170 reversed $261 $-1 #
edge $-1 $262 -32.356720348510926 $263 32.356720348510926 $169 $264 forward 7 unknown #
face $-1 $265 $266 $40 $-1 $267 reversed single #
loop $-1 $-1 $268 $108 #
plane-surface $-1 0 -1.4999999999999998 0 0 1 0 0 0 1 forward_v I I I I #
coedge $-1 $269 $270 $271 $272 forward $109 $-1 #
coedge $-1 $273 $111 $274 $275 forward $69 $-1 #
coedge $-1 $111 $273 $276 $277 forward $69 $-1 #
coedge $-1 $278 $279 $111 $178 reversed $280 $-1 #
edge $-1 $281 -1.4999999999999998 $282 1.4999999999999998 $177 $283 forward 7 unknown #
face $-1 $284 $285 $41 $-1 $286 reversed single #
loop $-1 $-1 $287 $112 #
plane-surface $-1 0 -1.4999999999999998 0 0 1 0 0 0 1 forward_v I I I I #
coedge $-1 $288 $289 $290 $291 forward $113 $-1 #
coedge $-1 $292 $115 $293 $294 forward $72 $-1 #
coedge $-1 $115 $292 $295 $296 forward $72 $-1 #
coedge $-1 $297 $298 $115 $186 reversed $299 $-1 #
edge $-1 $300 -1.4999999999999998 $301 1.4999999999999998 $185 $302 forward 7 unknown #
face $-1 $303 $304 $42 $-1 $305 reversed single #
loop $-1 $-1 $306 $116 #
plane-surface $-1 0 -253.9677114169744 0 0 1 0 0 0 1 forward_v I I I I #
coedge $-1 $307 $308 $309 $310 forward $117 $-1 #
coedge $-1 $311 $119 $312 $313 forward $75 $-1 #
coedge $-1 $119 $311 $314 $315 forward $75 $-1 #
coedge $-1 $316 $317 $119 $194 reversed $318 $-1 #
edge $-1 $319 -253.9677114169744 $320 253.9677114169744 $193 $321 forward 7 unknown #
loop $-1 $322 $323 $120 #
cone-surface $-1 0 0 0 0 0 1 0.5 0 0 1 I I -0.70710678118654746 0.70710678118654746 0.5 forward I I I I #
coedge $-1 $197 $197 $124 $199 forward $121 $-1 #
coedge $-1 $198 $198 $323 $324 forward $123 $-1 #
edge $-1 $325 0 $325 6.2831853071796004 $197 $326 forward 7 unknown #
loop $-1 $327 $328 $125 #
cone-surface $-1 0 0 0 0 0 1 0.5 0 0 1 I I -0.70710678118654746 0.70710678118654746 0.5 forward I I I I #
coedge $-1 $202 $202 $129 $204 forward $126 $-1 #
coedge $-1 $203 $203 $328 $329 forward $128 $-1 #
edge $-1 $330 0 $330 6.2831853071796004 $202 $331 forward 7 unknown #
face $-1 $332 $333 $45 $-1 $334 reversed single #
loop $-1 $-1 $335 $130 #
plane-surface $-1 0 -253.9677114169744 0 0 1 0 0 0 1 forward_v I I I I #
coedge $-1 $336 $337 $338 $339 forward $131 $-1 #
coedge $-1 $340 $133 $341 $342 forward $84 $-1 #
coedge $-1 $133 $340 $343 $344 forward $84 $-1 #
coedge $-1 $345 $346 $133 $212 reversed $347 $-1 #
edge $-1 $348 -253.9677114169744 $349 253.9677114169744 $211 $350 forward 7 unknown #
loop $-1 $351 $352 $134 #
cone-surface $-1 0 0 0 0 0 1 0.5 0 0 1 I I -0.70710678118654746 0.70710678118654746 0.5 forward I I I I #
coedge $-1 $215 $215 $138 $217 forward $135 $-1 #
coedge $-1 $216 $216 $352 $353 forward $137 $-1 #
edge $-1 $354 0 $354 6.2831853071796004 $215 $355 forward 7 unknown #
loop $-1 $356 $357 $139 #
cone-surface $-1 0 0 0 0 0 1 0.5 0 0 1 I I -0.70710678118654746 0.70710678118654746 0.5 forward I I I I #
coedge $-1 $220 $220 $143 $222 forward $140 $-1 #
coedge $-1 $221 $221 $357 $358 forward $142 $-1 #
edge $-1 $359 0 $359 6.2831853071796004 $220 $360 forward 7 unknown #
face $-1 $361 $362 $48 $-1 $363 reversed single #
loop $-1 $-1 $364 $144 #
plane-surface $-1 0 -253.9677114169744 0 0 1 0 0 0 1 forward_v I I I I #
coedge $-1 $365 $366 $367 $368 forward $145 $-1 #
coedge $-1 $369 $147 $370 $371 forward $93 $-1 #
coedge $-1 $147 $369 $372 $373 forward $93 $-1 #
coedge $-1 $374 $375 $147 $230 reversed $376 $-1 #
edge $-1 $377 -253.9677114169744 $378 253.9677114169744 $229 $379 forward 7 unknown #
loop $-1 $380 $381 $148 #
cone-surface $-1 0 0 0 0 0 1 0.5 0 0 1 I I -0.70710678118654746 0.70710678118654746 0.5 forward I I I I #
coedge $-1 $233 $233 $152 $235 forward $149 $-1 #
coedge $-1 $234 $234 $381 $382 forward $151 $-1 #
edge $-1 $383 0 $383 6.2831853071796004 $233 $384 forward 7 unknown #
loop $-1 $385 $386 $153 #
cone-surface $-1 0 0 0 0 0 1 0.5 0 0 1 I I -0.70710678118654746 0.70710678118654746 0.5 forward I I I I #
coedge $-1 $238 $238 $157 $240 forward $154 $-1 #
coedge $-1 $239 $239 $386 $387 forward $156 $-1 #
edge $-1 $388 0 $388 6.2831853071796004 $238 $389 forward 7 unknown #
loop $-1 $390 $391 $158 #
cone-surface $-1 0 0 0 0 0 1 0.5 0 0 1 I I -0.70710678118654746 0.70710678118654746 0.5 forward I I I I #
coedge $-1 $243 $243 $162 $245 forward $159 $-1 #
coedge $-1 $244 $244 $391 $392 forward $161 $-1 #
edge $-1 $393 0 $393 6.2831853071796004 $243 $394 forward 7 unknown #
face $-1 $395 $396 $39 $-1 $397 reversed single #
loop $-1 $-1 $398 $163 #
plane-surface $-1 -63.491927854243599 0 0 1 0 0 0 0 -1 forward_v I I I I #
coedge $-1 $399 $257 $400 $401 forward $164 $-1 #
coedge $-1 $402 $166 $399 $403 forward $105 $-1 #
coedge $-1 $166 $402 $404 $405 forward $105 $-1 #
coedge $-1 $260 $259 $166 $253 reversed $261 $-1 #
edge $-1 $406 -32.356720348510926 $407 32.356720348510926 $252 $408 forward 7 unknown #
coedge $-1 $168 $167 $409 $410 forward $66 $-1 #
coedge $-1 $411 $412 $167 $256 reversed $396 $-1 #
edge $-1 $263 -63.491927854243599 $413 63.491927854243599 $255 $414 forward 7 unknown #
coedge $-1 $249 $415 $168 $258 reversed $164 $-1 #
edge $-1 $416 -63.491927854243599 $262 63.491927854243599 $257 $417 forward 7 unknown #
coedge $-1 $252 $169 $415 $418 forward $261 $-1 #
coedge $-1 $169 $252 $411 $419 reversed $261 $-1 #
loop $-1 $-1 $259 $395 #
vertex $-1 $170 $420 #
vertex $-1 $170 $421 #
straight-curve $-1 63.491927854243599 0 7.1897349524055674 0 1 0 I I #
face $-1 $422 $423 $40 $-1 $424 reversed single #
loop $-1 $-1 $425 $171 #
plane-surface $-1 -4.2417680859238649 0 0 1 0 0 0 0 -1 forward_v I I I I #
coedge $-1 $426 $276 $427 $428 forward $172 $-1 #
coedge $-1 $429 $174 $426 $430 forward $109 $-1 #
coedge $-1 $174 $429 $431 $432 forward $109 $-1 #
coedge $-1 $279 $278 $174 $272 reversed $280 $-1 #
edge $-1 $433 -1.4999999999999998 $434 1.4999999999999998 $271 $435 forward 7 unknown #
coedge $-1 $176 $175 $436 $437 forward $69 $-1 #
coedge $-1 $438 $439 $175 $275 reversed $423 $-1 #
edge $-1 $282 -4.2417680859238649 $440 4.2417680859238649 $274 $441 forward 7 unknown #
coedge $-1 $268 $442 $176 $277 reversed $172 $-1 #
edge $-1 $443 -4.2417680859238649 $281 4.2417680859238649 $276 $444 forward 7 unknown #
coedge $-1 $271 $177 $442 $445 forward $280 $-1 #
coedge $-1 $177 $271 $438 $446 reversed $280 $-1 #
loop $-1 $-1 $278 $422 #
vertex $-1 $178 $447 #
vertex $-1 $178 $448 #
straight-curve $-1 4.2417680859238649 0 7.1897349524055674 0 1 0 I I #
face $-1 $449 $450 $41 $-1 $451 reversed single #
loop $-1 $-1 $452 $179 #
plane-surface $-1 -4.2417680859238658 0 0 1 0 0 0 0 -1 forward_v I I I I #
coedge $-1 $453 $295 $454 $455 forward $180 $-1 #
coedge $-1 $456 $182 $453 $457 forward $113 $-1 #
coedge $-1 $182 $456 $458 $459 forward $113 $-1 #
coedge $-1 $298 $297 $182 $291 reversed $299 $-1 #
edge $-1 $460 -1.4999999999999998 $461 1.4999999999999998 $290 $462 forward 7 unknown #
coedge $-1 $184 $183 $463 $464 forward $72 $-1 #
coedge $-1 $465 $466 $183 $294 reversed $450 $-1 #
edge $-1 $301 -4.2417680859238658 $467 4.2417680859238658 $293 $468 forward 7 unknown #
coedge $-1 $287 $469 $184 $296 reversed $180 $-1 #
edge $-1 $470 -4.2417680859238658 $300 4.2417680859238658 $295 $471 forward 7 unknown #
coedge $-1 $290 $185 $469 $472 forward $299 $-1 #
coedge $-1 $185 $290 $465 $473 reversed $299 $-1 #
loop $-1 $-1 $297 $449 #
vertex $-1 $186 $474 #
vertex $-1 $186 $475 #
straight-curve $-1 4.2417680859238658 0 7.1897349524055674 0 1 0 I I #
face $-1 $476 $477 $42 $-1 $478 reversed single #
loop $-1 $-1 $479 $187 #
plane-surface $-1 -10.24732118439065 0 0 1 0 0 0 0 -1 forward_v I I I I #
coedge $-1 $480 $314 $481 $482 forward $188 $-1 #
coedge $-1 $483 $190 $480 $484 forward $117 $-1 #
coedge $-1 $190 $483 $485 $486 forward $117 $-1 #
coedge $-1 $317 $316 $190 $310 reversed $318 $-1 #
edge $-1 $487 -253.9677114169744 $488 253.9677114169744 $309 $489 forward 7 unknown #
coedge $-1 $192 $191 $490 $491 forward $75 $-1 #
coedge $-1 $492 $493 $191 $313 reversed $477 $-1 #
edge $-1 $320 -10.24732118439065 $494 10.24732118439065 $312 $495 forward 7 unknown #
coedge $-1 $306 $496 $192 $315 reversed $188 $-1 #
edge $-1 $497 -10.24732118439065 $319 10.24732118439065 $314 $498 forward 7 unknown #
coedge $-1 $309 $193 $496 $499 forward $318 $-1 #
coedge $-1 $193 $309 $492 $500 reversed $318 $-1 #
loop $-1 $-1 $316 $476 #
vertex $-1 $194 $501 #
vertex $-1 $194 $502 #
straight-curve $-1 10.24732118439065 0 126.9838557084872 0 1 0 I I #
loop $-1 $-1 $503 $120 #
coedge $-1 $323 $323 $198 $324 reversed $195 $-1 #
edge $-1 $504 0 $504 6.2831853071796004 $323 $505 forward 7 unknown #
vertex $-1 $199 $506 #
ellipse-curve $-1 0 0 -2.9605853450117494 0 0 -1 1 0 0 1 I I #
loop $-1 $-1 $507 $125 #
coedge $-1 $328 $328 $203 $329 reversed $200 $-1 #
edge $-1 $508 0 $508 6.2831853071796004 $328 $509 forward 7 unknown #
vertex $-1 $204 $510 #
ellipse-curve $-1 0 0 -2.9605853450117494 0 0 -1 1 0 0 1 I I #
face $-1 $511 $512 $45 $-1 $513 reversed single #
loop $-1 $-1 $514 $205 #
plane-surface $-1 -10.24732118439065 0 0 1 0 0 0 0 -1 forward_v I I I I #
coedge $-1 $515 $343 $516 $517 forward $206 $-1 #
coedge $-1 $518 $208 $515 $519 forward $131 $-1 #
coedge $-1 $208 $518 $520 $521 forward $131 $-1 #
coedge $-1 $346 $345 $208 $339 reversed $347 $-1 #
edge $-1 $522 -253.9677114169744 $523 253.9677114169744 $338 $524 forward 7 unknown #
coedge $-1 $210 $209 $525 $526 forward $84 $-1 #
coedge $-1 $527 $528 $209 $342 reversed $512 $-1 #
edge $-1 $349 -10.24732118439065 $529 10.24732118439065 $341 $530 forward 7 unknown #
coedge $-1 $335 $531 $210 $344 reversed $206 $-1 #
edge $-1 $532 -10.24732118439065 $348 10.24732118439065 $343 $533 forward 7 unknown #
coedge $-1 $338 $211 $531 $534 forward $347 $-1 #
coedge $-1 $211 $338 $527 $535 reversed $347 $-1 #
loop $-1 $-1 $345 $511 #
vertex $-1 $212 $536 #
vertex $-1 $212 $537 #
straight-curve $-1 10.24732118439065 0 126.9838557084872 0 1 0 I I #
loop $-1 $-1 $538 $134 #
coedge $-1 $352 $352 $216 $353 reversed $213 $-1 #
edge $-1 $539 0 $539 6.2831853071796004 $352 $540 forward 7 unknown #
vertex $-1 $217 $541 #
ellipse-curve $-1 0 0 -2.9605853450117494 0 0 -1 1 0 0 1 I I #
loop $-1 $-1 $542 $139 #
coedge $-1 $357 $357 $221 $358 reversed $218 $-1 #
edge $-1 $543 0 $543 6.2831853071796004 $357 $544 forward 7 unknown #
vertex $-1 $222 $545 #
ellipse-curve $-1 0 0 -2.9605853450117494 0 0 -1 1 0 0 1 I I #
face $-1 $546 $547 $48 $-1 $548 reversed single #
loop $-1 $-1 $549 $223 #
plane-surface $-1 -6.2546087493851212 0 0 1 0 0 0 0 -1 forward_v I I I I #
coedge $-1 $550 $372 $551 $552 forward $224 $-1 #
coedge $-1 $553 $226 $550 $554 forward $145 $-1 #
coedge $-1 $226 $553 $555 $556 forward $145 $-1 #
coedge $-1 $375 $374 $226 $368 reversed $376 $-1 #
edge $-1 $557 -253.9677114169744 $558 253.9677114169744 $367 $559 forward 7 unknown #
coedge $-1 $228 $227 $560 $561 forward $93 $-1 #
coedge $-1 $562 $563 $227 $371 reversed $547 $-1 #
edge $-1 $378 -6.2546087493851212 $564 6.2546087493851212 $370 $565 forward 7 unknown #
coedge $-1 $364 $566 $228 $373 reversed $224 $-1 #
edge $-1 $567 -6.2546087493851212 $377 6.2546087493851212 $372 $568 forward 7 unknown #
coedge $-1 $367 $229 $566 $569 forward $376 $-1 #
coedge $-1 $229 $367 $562 $570 reversed $376 $-1 #
loop $-1 $-1 $374 $546 #
vertex $-1 $230 $571 #
vertex $-1 $230 $572 #
straight-curve $-1 6.2546087493851212 0 126.9838557084872 0 1 0 I I #
loop $-1 $-1 $573 $148 #
coedge $-1 $381 $381 $234 $382 reversed $231 $-1 #
edge $-1 $574 0 $574 6.2831853071796004 $381 $575 forward 7 unknown #
vertex $-1 $235 $576 #
ellipse-curve $-1 0 0 -3.1738181707205424 0 0 -1 1 0 0 1 I I #
loop $-1 $-1 $577 $153 #
coedge $-1 $386 $386 $239 $387 reversed $236 $-1 #
edge $-1 $578 0 $578 6.2831853071796004 $386 $579 forward 7 unknown #
vertex $-1 $240 $580 #
ellipse-curve $-1 0 0 -3.1738181707205424 0 0 -1 1 0 0 1 I I #
loop $-1 $-1 $581 $158 #
coedge $-1 $391 $391 $244 $392 reversed $241 $-1 #
edge $-1 $582 0 $582 6.2831853071796004 $391 $583 forward 7 unknown #
vertex $-1 $245 $584 #
ellipse-curve $-1 0 0 -3.1738181707205424 0 0 -1 1 0 0 1 I I #
face $-1 $-1 $261 $39 $-1 $585 reversed single #
loop $-1 $-1 $411 $246 #
plane-surface $-1 0 32.356720348510926 0 0 -1 0 0 0 -1 forward_v I I I I #
coedge $-1 $586 $409 $412 $587 forward $247 $-1 #
coedge $-1 $415 $249 $250 $403 reversed $164 $-1 #
coedge $-1 $409 $586 $249 $401 reversed $247 $-1 #
edge $-1 $416 -7.1897349524055674 $588 7.1897349524055674 $400 $589 forward 7 unknown #
coedge $-1 $251 $250 $586 $590 forward $105 $-1 #
edge $-1 $407 -63.491927854243599 $588 63.491927854243599 $399 $591 forward 7 unknown #
coedge $-1 $412 $411 $251 $405 reversed $396 $-1 #
edge $-1 $592 -63.491927854243599 $406 63.491927854243599 $404 $593 forward 7 unknown #
vertex $-1 $253 $594 #
vertex $-1 $418 $595 #
straight-curve $-1 63.491927854243599 0 -7.1897349524055674 0 -1 0 I I #
coedge $-1 $398 $400 $254 $410 reversed $247 $-1 #
edge $-1 $413 -32.356720348510926 $416 32.356720348510926 $409 $596 forward 7 unknown #
coedge $-1 $404 $255 $260 $419 forward $396 $-1 #
coedge $-1 $255 $404 $398 $587 reversed $396 $-1 #
vertex $-1 $256 $597 #
straight-curve $-1 0 32.356720348510926 7.1897349524055674 -1 0 0 I I #
coedge $-1 $257 $399 $259 $418 reversed $164 $-1 #
vertex $-1 $410 $598 #
straight-curve $-1 0 -32.356720348510926 7.1897349524055674 1 0 0 I I #
edge $-1 $262 -7.1897349524055674 $407 7.1897349524055674 $259 $599 forward 7 unknown #
edge $-1 $263 -7.1897349524055674 $406 7.1897349524055674 $260 $600 forward 7 unknown #
point $-1 63.491927854243599 -32.356720348510926 7.1897349524055674 #
point $-1 63.491927854243599 32.356720348510926 7.1897349524055674 #
face $-1 $-1 $280 $40 $-1 $601 reversed single #
loop $-1 $-1 $438 $265 #
plane-surface $-1 0 1.4999999999999998 0 0 -1 0 0 0 -1 forward_v I I I I #
coedge $-1 $602 $436 $439 $603 forward $266 $-1 #
coedge $-1 $442 $268 $269 $430 reversed $172 $-1 #
coedge $-1 $436 $602 $268 $428 reversed $266 $-1 #
edge $-1 $443 -7.1897349524055674 $604 7.1897349524055674 $427 $605 forward 7 unknown #
coedge $-1 $270 $269 $602 $606 forward $109 $-1 #
edge $-1 $434 -4.2417680859238649 $604 4.2417680859238649 $426 $607 forward 7 unknown #
coedge $-1 $439 $438 $270 $432 reversed $423 $-1 #
edge $-1 $608 -4.2417680859238649 $433 4.2417680859238649 $431 $609 forward 7 unknown #
vertex $-1 $272 $610 #
vertex $-1 $445 $611 #
straight-curve $-1 4.2417680859238649 0 -7.1897349524055674 0 -1 0 I I #
coedge $-1 $425 $427 $273 $437 reversed $266 $-1 #
edge $-1 $440 -1.4999999999999998 $443 1.4999999999999998 $436 $612 forward 7 unknown #
coedge $-1 $431 $274 $279 $446 forward $423 $-1 #
coedge $-1 $274 $431 $425 $603 reversed $423 $-1 #
vertex $-1 $275 $613 #
straight-curve $-1 0 1.4999999999999998 7.1897349524055674 -1 0 0 I I #
coedge $-1 $276 $426 $278 $445 reversed $172 $-1 #
vertex $-1 $437 $614 #
straight-curve $-1 0 -1.4999999999999998 7.1897349524055674 1 0 0 I I #
edge $-1 $281 -7.1897349524055674 $434 7.1897349524055674 $278 $615 forward 7 unknown #
edge $-1 $282 -7.1897349524055674 $433 7.1897349524055674 $279 $616 forward 7 unknown #
point $-1 4.2417680859238649 -1.4999999999999998 7.1897349524055674 #
point $-1 4.2417680859238649 1.4999999999999998 7.1897349524055674 #
face $-1 $-1 $299 $41 $-1 $617 reversed single #
loop $-1 $-1 $465 $284 #
plane-surface $-1 0 1.4999999999999998 0 0 -1 0 0 0 -1 forward_v I I I I #
coedge $-1 $618 $463 $466 $619 forward $285 $-1 #
coedge $-1 $469 $287 $288 $457 reversed $180 $-1 #
coedge $-1 $463 $618 $287 $455 reversed $285 $-1 #
edge $-1 $470 -7.1897349524055674 $620 7.1897349524055674 $454 $621 forward 7 unknown #
coedge $-1 $289 $288 $618 $622 forward $113 $-1 #
edge $-1 $461 -4.2417680859238658 $620 4.2417680859238658 $453 $623 forward 7 unknown #
coedge $-1 $466 $465 $289 $459 reversed $450 $-1 #
edge $-1 $624 -4.2417680859238658 $460 4.2417680859238658 $458 $625 forward 7 unknown #
vertex $-1 $291 $626 #
vertex $-1 $472 $627 #
straight-curve $-1 4.2417680859238658 0 -7.1897349524055674 0 -1 0 I I #
coedge $-1 $452 $454 $292 $464 reversed $285 $-1 #
edge $-1 $467 -1.4999999999999998 $470 1.4999999999999998 $463 $628 forward 7 unknown #
coedge $-1 $458 $293 $298 $473 forward $450 $-1 #
coedge $-1 $293 $458 $452 $619 reversed $450 $-1 #
vertex $-1 $294 $629 #
straight-curve $-1 0 1.4999999999999998 7.1897349524055674 -1 0 0 I I #
coedge $-1 $295 $453 $297 $472 reversed $180 $-1 #
vertex $-1 $464 $630 #
straight-curve $-1 0 -1.4999999999999998 7.1897349524055674 1 0 0 I I #
edge $-1 $300 -7.1897349524055674 $461 7.1897349524055674 $297 $631 forward 7 unknown #
edge $-1 $301 -7.1897349524055674 $460 7.1897349524055674 $298 $632 forward 7 unknown #
point $-1 4.2417680859238658 -1.4999999999999998 7.1897349524055674 #
point $-1 4.2417680859238658 1.4999999999999998 7.1897349524055674 #
face $-1 $-1 $318 $42 $-1 $633 reversed single #
loop $-1 $-1 $492 $303 #
plane-surface $-1 0 253.9677114169744 0 0 -1 0 0 0 -1 forward_v I I I I #
coedge $-1 $634 $490 $493 $635 forward $304 $-1 #
coedge $-1 $496 $306 $307 $484 reversed $188 $-1 #
coedge $-1 $490 $634 $306 $482 reversed $304 $-1 #
edge $-1 $497 -126.9838557084872 $636 126.9838557084872 $481 $637 forward 7 unknown #
coedge $-1 $308 $307 $634 $638 forward $117 $-1 #
edge $-1 $488 -10.24732118439065 $636 10.24732118439065 $480 $639 forward 7 unknown #
coedge $-1 $493 $492 $308 $486 reversed $477 $-1 #
edge $-1 $640 -10.24732118439065 $487 10.24732118439065 $485 $641 forward 7 unknown #
vertex $-1 $310 $642 #
vertex $-1 $499 $643 #
straight-curve $-1 10.24732118439065 0 -126.9838557084872 0 -1 0 I I #
coedge $-1 $479 $481 $311 $491 reversed $304 $-1 #
edge $-1 $494 -253.9677114169744 $497 253.9677114169744 $490 $644 forward 7 unknown #
coedge $-1 $485 $312 $317 $500 forward $477 $-1 #
coedge $-1 $312 $485 $479 $635 reversed $477 $-1 #
vertex $-1 $313 $645 #
straight-curve $-1 0 253.9677114169744 126.9838557084872 -1 0 0 I I #
coedge $-1 $314 $480 $316 $499 reversed $188 $-1 #
vertex $-1 $491 $646 #
straight-curve $-1 0 -253.9677114169744 126.9838557084872 1 0 0 I I #
edge $-1 $319 -126.9838557084872 $488 126.9838557084872 $316 $647 forward 7 unknown #
edge $-1 $320 -126.9838557084872 $487 126.9838557084872 $317 $648 forward 7 unknown #
point $-1 10.24732118439065 -253.9677114169744 126.9838557084872 #
point $-1 10.24732118439065 253.9677114169744 126.9838557084872 #
coedge $-1 $503 $503 $-1 $649 reversed $322 $-1 #
vertex $-1 $324 $650 #
ellipse-curve $-1 0 0 -0.5 0 0 -1 1 0 0 1 I I #
point $-1 1 0 -2.9605853450117494 #
coedge $-1 $507 $507 $-1 $651 reversed $327 $-1 #
vertex $-1 $329 $652 #
ellipse-curve $-1 0 0 -0.5 0 0 -1 1 0 0 1 I I #
point $-1 1 0 -2.9605853450117494 #
face $-1 $-1 $347 $45 $-1 $653 reversed single #
loop $-1 $-1 $527 $332 #
plane-surface $-1 0 253.9677114169744 0 0 -1 0 0 0 -1 forward_v I I I I #
coedge $-1 $654 $525 $528 $655 forward $333 $-1 #
coedge $-1 $531 $335 $336 $519 reversed $206 $-1 #
coedge $-1 $525 $654 $335 $517 reversed $333 $-1 #
edge $-1 $532 -126.9838557084872 $656 126.9838557084872 $516 $657 forward 7 unknown #
coedge $-1 $337 $336 $654 $658 forward $131 $-1 #
edge $-1 $523 -10.24732118439065 $656 10.24732118439065 $515 $659 forward 7 unknown #
coedge $-1 $528 $527 $337 $521 reversed $512 $-1 #
edge $-1 $660 -10.24732118439065 $522 10.24732118439065 $520 $661 forward 7 unknown #
vertex $-1 $339 $662 #
vertex $-1 $534 $663 #
straight-curve $-1 10.24732118439065 0 -126.9838557084872 0 -1 0 I I #
coedge $-1 $514 $516 $340 $526 reversed $333 $-1 #
edge $-1 $529 -253.9677114169744 $532 253.9677114169744 $525 $664 forward 7 unknown #
coedge $-1 $520 $341 $346 $535 forward $512 $-1 #
coedge $-1 $341 $520 $514 $655 reversed $512 $-1 #
vertex $-1 $342 $665 #
straight-curve $-1 0 253.9677114169744 126.9838557084872 -1 0 0 I I #
coedge $-1 $343 $515 $345 $534 reversed $206 $-1 #
vertex $-1 $526 $666 #
straight-curve $-1 0 -253.9677114169744 126.9838557084872 1 0 0 I I #
edge $-1 $348 -126.9838557084872 $523 126.9838557084872 $345 $667 forward 7 unknown #
edge $-1 $349 -126.9838557084872 $522 126.9838557084872 $346 $668 forward 7 unknown #
point $-1 10.24732118439065 -253.9677114169744 126.9838557084872 #
point $-1 10.24732118439065 253.9677114169744 126.9838557084872 #
coedge $-1 $538 $538 $-1 $669 reversed $351 $-1 #
vertex $-1 $353 $670 #
ellipse-curve $-1 0 0 -0.5 0 0 -1 1 0 0 1 I I #
point $-1 1 0 -2.9605853450117494 #
coedge $-1 $542 $542 $-1 $671 reversed $356 $-1 #
vertex $-1 $358 $672 #
ellipse-curve $-1 0 0 -0.5 0 0 -1 1 0 0 1 I I #
point $-1 1 0 -2.9605853450117494 #
face $-1 $-1 $376 $48 $-1 $673 reversed single #
loop $-1 $-1 $562 $361 #
plane-surface $-1 0 253.9677114169744 0 0 -1 0 0 0 -1 forward_v I I I I #
coedge $-1 $674 $560 $563 $675 forward $362 $-1 #
coedge $-1 $566 $364 $365 $554 reversed $224 $-1 #
coedge $-1 $560 $674 $364 $552 reversed $362 $-1 #
edge $-1 $567 -126.9838557084872 $676 126.9838557084872 $551 $677 forward 7 unknown #
coedge $-1 $366 $365 $674 $678 forward $145 $-1 #
edge $-1 $558 -6.2546087493851212 $676 6.2546087493851212 $550 $679 forward 7 unknown #
coedge $-1 $563 $562 $366 $556 reversed $547 $-1 #
edge $-1 $680 -6.2546087493851212 $557 6.2546087493851212 $555 $681 forward 7 unknown #
vertex $-1 $368 $682 #
vertex $-1 $569 $683 #
straight-curve $-1 6.2546087493851212 0 -126.9838557084872 0 -1 0 I I #
coedge $-1 $549 $551 $369 $561 reversed $362 $-1 #
edge $-1 $564 -253.9677114169744 $567 253.9677114169744 $560 $684 forward 7 unknown #
coedge $-1 $555 $370 $375 $570 forward $547 $-1 #
coedge $-1 $370 $555 $549 $675 reversed $547 $-1 #
vertex $-1 $371 $685 #
straight-curve $-1 0 253.9677114169744 126.9838557084872 -1 0 0 I I #
coedge $-1 $372 $550 $374 $569 reversed $224 $-1 #
vertex $-1 $561 $686 #
straight-curve $-1 0 -253.9677114169744 126.9838557084872 1 0 0 I I #
edge $-1 $377 -126.9838557084872 $558 126.9838557084872 $374 $687 forward 7 unknown #
edge $-1 $378 -126.9838557084872 $557 126.9838557084872 $375 $688 forward 7 unknown #
point $-1 6.2546087493851212 -253.9677114169744 126.9838557084872 #
point $-1 6.2546087493851212 253.9677114169744 126.9838557084872 #
coedge $-1 $573 $573 $-1 $689 reversed $380 $-1 #
vertex $-1 $382 $690 #
ellipse-curve $-1 0 0 -0.5 0 0 -1 1 0 0 1 I I #
point $-1 1 0 -3.1738181707205424 #
coedge $-1 $577 $577 $-1 $691 reversed $385 $-1 #
vertex $-1 $387 $692 #
ellipse-curve $-1 0 0 -0.5 0 0 -1 1 0 0 1 I I #
point $-1 1 0 -3.1738181707205424 #
coedge $-1 $581 $581 $-1 $693 reversed $390 $-1 #
vertex $-1 $392 $694 #
ellipse-curve $-1 0 0 -0.5 0 0 -1 1 0 0 1 I I #
point $-1 1 0 -3.1738181707205424 #
plane-surface $-1 63.491927854243599 0 0 -1 0 0 0 0 1 forward_v I I I I #
coedge $-1 $400 $398 $402 $590 reversed $247 $-1 #
edge $-1 $413 -7.1897349524055674 $592 7.1897349524055674 $412 $695 forward 7 unknown #
vertex $-1 $590 $696 #
straight-curve $-1 -63.491927854243599 -32.356720348510926 0 0 0 -1 I I #
edge $-1 $588 -32.356720348510926 $592 32.356720348510926 $586 $697 forward 7 unknown #
straight-curve $-1 0 -32.356720348510926 -7.1897349524055674 -1 0 0 I I #
vertex $-1 $405 $698 #
straight-curve $-1 0 32.356720348510926 -7.1897349524055674 1 0 0 I I #
point $-1 63.491927854243599 32.356720348510926 -7.1897349524055674 #
point $-1 63.491927854243599 -32.356720348510926 -7.1897349524055674 #
straight-curve $-1 -63.491927854243599 0 7.1897349524055674 0 -1 0 I I #
point $-1 -63.491927854243599 32.356720348510926 7.1897349524055674 #
point $-1 -63.491927854243599 -32.356720348510926 7.1897349524055674 #
straight-curve $-1 63.491927854243599 -32.356720348510926 0 0 0 -1 I I #
straight-curve $-1 63.491927854243599 32.356720348510926 0 0 0 -1 I I #
plane-surface $-1 4.2417680859238649 0 0 -1 0 0 0 0 1 forward_v I I I I #
coedge $-1 $427 $425 $429 $606 reversed $266 $-1 #
edge $-1 $440 -7.1897349524055674 $608 7.1897349524055674 $439 $699 forward 7 unknown #
vertex $-1 $606 $700 #
straight-curve $-1 -4.2417680859238649 -1.4999999999999998 0 0 0 -1 I I #
edge $-1 $604 -1.4999999999999998 $608 1.4999999999999998 $602 $701 forward 7 unknown #
straight-curve $-1 0 -1.4999999999999998 -7.1897349524055674 -1 0 0 I I #
vertex $-1 $432 $702 #
straight-curve $-1 0 1.4999999999999998 -7.1897349524055674 1 0 0 I I #
point $-1 4.2417680859238649 1.4999999999999998 -7.1897349524055674 #
point $-1 4.2417680859238649 -1.4999999999999998 -7.1897349524055674 #
straight-curve $-1 -4.2417680859238649 0 7.1897349524055674 0 -1 0 I I #
point $-1 -4.2417680859238649 1.4999999999999998 7.1897349524055674 #
point $-1 -4.2417680859238649 -1.4999999999999998 7.1897349524055674 #
straight-curve $-1 4.2417680859238649 -1.4999999999999998 0 0 0 -1 I I #
straight-curve $-1 4.2417680859238649 1.4999999999999998 0 0 0 -1 I I #
plane-surface $-1 4.2417680859238658 0 0 -1 0 0 0 0 1 forward_v I I I I #
coedge $-1 $454 $452 $456 $622 reversed $285 $-1 #
edge $-1 $467 -7.1897349524055674 $624 7.1897349524055674 $466 $703 forward 7 unknown #
vertex $-1 $622 $704 #
straight-curve $-1 -4.2417680859238658 -1.4999999999999998 0 0 0 -1 I I #
edge $-1 $620 -1.4999999999999998 $624 1.4999999999999998 $618 $705 forward 7 unknown #
straight-curve $-1 0 -1.4999999999999998 -7.1897349524055674 -1 0 0 I I #
vertex $-1 $459 $706 #
straight-curve $-1 0 1.4999999999999998 -7.1897349524055674 1 0 0 I I #
point $-1 4.2417680859238658 1.4999999999999998 -7.1897349524055674 #
point $-1 4.2417680859238658 -1.4999999999999998 -7.1897349524055674 #
straight-curve $-1 -4.2417680859238658 0 7.1897349524055674 0 -1 0 I I #
point $-1 -4.2417680859238658 1.4999999999999998 7.1897349524055674 #
point $-1 -4.2417680859238658 -1.4999999999999998 7.1897349524055674 #
straight-curve $-1 4.2417680859238658 -1.4999999999999998 0 0 0 -1 I I #
straight-curve $-1 4.2417680859238658 1.4999999999999998 0 0 0 -1 I I #
plane-surface $-1 10.24732118439065 0 0 -1 0 0 0 0 1 forward_v I I I I #
coedge $-1 $481 $479 $483 $638 reversed $304 $-1 #
edge $-1 $494 -126.9838557084872 $640 126.9838557084872 $493 $707 forward 7 unknown #
vertex $-1 $638 $708 #
straight-curve $-1 -10.24732118439065 -253.9677114169744 0 0 0 -1 I I #
edge $-1 $636 -253.9677114169744 $640 253.9677114169744 $634 $709 forward 7 unknown #
straight-curve $-1 0 -253.9677114169744 -126.9838557084872 -1 0 0 I I #
vertex $-1 $486 $710 #
straight-curve $-1 0 253.9677114169744 -126.9838557084872 1 0 0 I I #
point $-1 10.24732118439065 253.9677114169744 -126.9838557084872 #
point $-1 10.24732118439065 -253.9677114169744 -126.9838557084872 #
straight-curve $-1 -10.24732118439065 0 126.9838557084872 0 -1 0 I I #
point $-1 -10.24732118439065 253.9677114169744 126.9838557084872 #
point $-1 -10.24732118439065 -253.9677114169744 126.9838557084872 #
straight-curve $-1 10.24732118439065 -253.9677114169744 0 0 0 -1 I I #
straight-curve $-1 10.24732118439065 253.9677114169744 0 0 0 -1 I I #
edge $-1 $711 1 $711 0 $503 $-1 forward 7 unknown #
point $-1 1 0 -0.5 #
edge $-1 $712 1 $712 0 $507 $-1 forward 7 unknown #
point $-1 1 0 -0.5 #
plane-surface $-1 10.24732118439065 0 0 -1 0 0 0 0 1 forward_v I I I I #
coedge $-1 $516 $514 $518 $658 reversed $333 $-1 #
edge $-1 $529 -126.9838557084872 $660 126.9838557084872 $528 $713 forward 7 unknown #
vertex $-1 $658 $714 #
straight-curve $-1 -10.24732118439065 -253.9677114169744 0 0 0 -1 I I #
edge $-1 $656 -253.9677114169744 $660 253.9677114169744 $654 $715 forward 7 unknown #
straight-curve $-1 0 -253.9677114169744 -126.9838557084872 -1 0 0 I I #
vertex $-1 $521 $716 #
straight-curve $-1 0 253.9677114169744 -126.9838557084872 1 0 0 I I #
point $-1 10.24732118439065 253.9677114169744 -126.9838557084872 #
point $-1 10.24732118439065 -253.9677114169744 -126.9838557084872 #
straight-curve $-1 -10.24732118439065 0 126.9838557084872 0 -1 0 I I #
point $-1 -10.24732118439065 253.9677114169744 126.9838557084872 #
point $-1 -10.24732118439065 -253.9677114169744 126.9838557084872 #
straight-curve $-1 10.24732118439065 -253.9677114169744 0 0 0 -1 I I #
straight-curve $-1 10.24732118439065 253.9677114169744 0 0 0 -1 I I #
edge $-1 $717 1 $717 0 $538 $-1 forward 7 unknown #
point $-1 1 0 -0.5 #
edge $-1 $718 1 $718 0 $542 $-1 forward 7 unknown #
point $-1 1 0 -0.5 #
plane-surface $-1 6.2546087493851212 0 0 -1 0 0 0 0 1 forward_v I I I I #
coedge $-1 $551 $549 $553 $678 reversed $362 $-1 #
edge $-1 $564 -126.9838557084872 $680 126.9838557084872 $563 $719 forward 7 unknown #
vertex $-1 $678 $720 #
straight-curve $-1 -6.2546087493851212 -253.9677114169744 0 0 0 -1 I I #
edge $-1 $676 -253.9677114169744 $680 253.9677114169744 $674 $721 forward 7 unknown #
straight-curve $-1 0 -253.9677114169744 -126.9838557084872 -1 0 0 I I #
vertex $-1 $556 $722 #
straight-curve $-1 0 253.9677114169744 -126.9838557084872 1 0 0 I I #
point $-1 6.2546087493851212 253.9677114169744 -126.9838557084872 #
point $-1 6.2546087493851212 -253.9677114169744 -126.9838557084872 #
straight-curve $-1 -6.2546087493851212 0 126.9838557084872 0 -1 0 I I #
point $-1 -6.2546087493851212 253.9677114169744 126.9838557084872 #
point $-1 -6.2546087493851212 -253.9677114169744 126.9838557084872 #
straight-curve $-1 6.2546087493851212 -253.9677114169744 0 0 0 -1 I I #
straight-curve $-1 6.2546087493851212 253.9677114169744 0 0 0 -1 I I #
edge $-1 $723 1 $723 0 $573 $-1 forward 7 unknown #
point $-1 1 0 -0.5 #
edge $-1 $724 1 $724 0 $577 $-1 forward 7 unknown #
point $-1 1 0 -0.5 #
edge $-1 $725 1 $725 0 $581 $-1 forward 7 unknown #
point $-1 1 0 -0.5 #
straight-curve $-1 -63.491927854243599 32.356720348510926 0 0 0 -1 I I #
point $-1 -63.491927854243599 -32.356720348510926 -7.1897349524055674 #
straight-curve $-1 -63.491927854243599 0 -7.1897349524055674 0 1 0 I I #
point $-1 -63.491927854243599 32.356720348510926 -7.1897349524055674 #
straight-curve $-1 -4.2417680859238649 1.4999999999999998 0 0 0 -1 I I #
point $-1 -4.2417680859238649 -1.4999999999999998 -7.1897349524055674 #
straight-curve $-1 -4.2417680859238649 0 -7.1897349524055674 0 1 0 I I #
point $-1 -4.2417680859238649 1.4999999999999998 -7.1897349524055674 #
straight-curve $-1 -4.2417680859238658 1.4999999999999998 0 0 0 -1 I I #
point $-1 -4.2417680859238658 -1.4999999999999998 -7.1897349524055674 #
straight-curve $-1 -4.2417680859238658 0 -7.1897349524055674 0 1 0 I I #
point $-1 -4.2417680859238658 1.4999999999999998 -7.1897349524055674 #
straight-curve $-1 -10.24732118439065 253.9677114169744 0 0 0 -1 I I #
point $-1 -10.24732118439065 -253.9677114169744 -126.9838557084872 #
straight-curve $-1 -10.24732118439065 0 -126.9838557084872 0 1 0 I I #
point $-1 -10.24732118439065 253.9677114169744 -126.9838557084872 #
vertex $-1 $649 $726 #
vertex $-1 $651 $727 #
straight-curve $-1 -10.24732118439065 253.9677114169744 0 0 0 -1 I I #
point $-1 -10.24732118439065 -253.9677114169744 -126.9838557084872 #
straight-curve $-1 -10.24732118439065 0 -126.9838557084872 0 1 0 I I #
point $-1 -10.24732118439065 253.9677114169744 -126.9838557084872 #
vertex $-1 $669 $728 #
vertex $-1 $671 $729 #
straight-curve $-1 -6.2546087493851212 253.9677114169744 0 0 0 -1 I I #
point $-1 -6.2546087493851212 -253.9677114169744 -126.9838557084872 #
straight-curve $-1 -6.2546087493851212 0 -126.9838557084872 0 1 0 I I #
point $-1 -6.2546087493851212 253.9677114169744 -126.9838557084872 #
vertex $-1 $689 $730 #
vertex $-1 $691 $731 #
vertex $-1 $693 $732 #
point $-1 0 0 0.5 #
point $-1 0 0 0.5 #
point $-1 0 0 0.5 #
point $-1 0 0 0.5 #
point $-1 0 0 0.5 #
point $-1 0 0 0.5 #
point $-1 0 0 0.5 #
End-of-ACIS-data 