500 0 5 0           
7 Unknown 11 ACIS 5.0 NT 24 Thu Mar 25 16:30:26 1999 
-1 9.9999999999999995e-007 1e-010 
body $-1 $5 $-1 $6 #
body $-1 $7 $-1 $8 #
body $-1 $9 $-1 $10 #
body $-1 $11 $-1 $12 #
body $-1 $13 $-1 $14 #
lump $-1 $-1 $15 $0 #
transform $-1 1 0 0 0 1 0 0 0 1 55.736564226203193 25.322230007819424 8.9252611172615417 1 rotate no_reflect no_shear #
lump $-1 $-1 $16 $1 #
transform $-1 1 0 0 0 1 0 0 0 1 55.736564226203193 25.322230007819424 8.9252611172615417 1 rotate no_reflect no_shear #
lump $-1 $-1 $17 $2 #
transform $-1 1 0 0 0 1 0 0 0 1 55.736564226203193 25.322230007819424 8.9252611172615417 1 rotate no_reflect no_shear #
lump $-1 $-1 $18 $3 #
transform $-1 1 0 0 0 1 0 0 0 1 55.736564226203193 25.322230007819424 8.9252611172615417 1 rotate no_reflect no_shear #
lump $-1 $-1 $19 $4 #
transform $-1 1 0 0 0 1 0 0 0 1 55.736564226203193 25.322230007819424 8.9252611172615417 1 rotate no_reflect no_shear #
shell $-1 $-1 $-1 $20 $-1 $5 #
shell $-1 $-1 $-1 $21 $-1 $7 #
shell $-1 $-1 $-1 $22 $-1 $9 #
shell $-1 $-1 $-1 $23 $-1 $11 #
shell $-1 $-1 $-1 $24 $-1 $13 #
face $-1 $25 $26 $15 $-1 $27 forward single #
face $-1 $28 $29 $16 $-1 $30 forward single #
face $-1 $31 $32 $17 $-1 $33 reversed single #
face $-1 $34 $35 $18 $-1 $36 forward single #
face $-1 $37 $38 $19 $-1 $39 forward single #
face $-1 $40 $41 $15 $-1 $42 reversed single #
loop $-1 $-1 $43 $20 #
plane-surface $-1 0 0 8.9252611172615417 0 0 1 1 0 0 forward_v I I I I #
face $-1 $44 $45 $16 $-1 $46 reversed single #
loop $-1 $-1 $47 $21 #
plane-surface $-1 0 -20.554878880796927 6.7267112542996745 0 0 1 1 0 0 forward_v I I I I #
face $-1 $48 $49 $17 $-1 $50 reversed single #
loop $-1 $-1 $51 $22 #
plane-surface $-1 52.985249811025561 17.675363533440859 162.45964427532539 0 1 0 0.69465837861970381 0 0.71933979245794832 forward_v I I I I #
face $-1 $52 $53 $18 $-1 $54 forward single #
loop $-1 $55 $56 $23 #
cone-surface $-1 52.463469377552073 19.86018252612045 5.6837154987138785 -0.69465837861970381 0 -0.71933979245794832 0.71933979245794832 0 -0.69465837861970381 1 I I 0 1 1 forward I I I I #
face $-1 $57 $58 $19 $-1 $59 forward single #
loop $-1 $60 $61 $24 #
cone-surface $-1 52.463469377552073 23.137411015139836 5.6837154987138785 -0.69465837861970381 0 -0.71933979245794832 0.71933979245794832 0 -0.69465837861970381 1 I I 0 1 1 forward I I I I #
face $-1 $62 $63 $15 $-1 $64 reversed single #
loop $-1 $-1 $65 $25 #
plane-surface $-1 0 0 -8.9252611172615417 0 0 1 1 0 0 forward_v I I I I #
coedge $-1 $66 $67 $68 $69 forward $26 $-1 #
face $-1 $70 $71 $16 $-1 $72 reversed single #
loop $-1 $-1 $73 $28 #
plane-surface $-1 0 -20.554878880796927 3.7267112542996745 0 0 1 1 0 0 forward_v I I I I #
coedge $-1 $74 $75 $76 $77 reversed $29 $-1 #
face $-1 $78 $79 $17 $-1 $80 forward single #
loop $-1 $-1 $81 $31 #
plane-surface $-1 -24.450492859389037 21.49879677063014 82.272587189733159 0.69465837861970381 0 0.71933979245794832 0.71933979245794832 0 -0.69465837861970381 forward_v I I I I #
coedge $-1 $82 $83 $84 $85 reversed $32 $-1 #
face $-1 $-1 $86 $18 $-1 $87 forward single #
loop $-1 $88 $89 $34 #
cone-surface $-1 50.959884952819145 19.86018252612045 4.1267082829087229 -0.69465837861970381 0 -0.71933979245794832 0.35966989622897416 0 -0.3473291893098519 1 I I -0.70710678118654746 0.70710678118654746 0.5 forward I I I I #
loop $-1 $-1 $90 $23 #
coedge $-1 $56 $56 $91 $92 reversed $35 $-1 #
face $-1 $-1 $93 $19 $-1 $94 forward single #
loop $-1 $95 $96 $37 #
cone-surface $-1 50.959884952819145 23.137411015139836 4.1267082829087229 -0.69465837861970381 0 -0.71933979245794832 0.35966989622897416 0 -0.3473291893098519 1 I I -0.70710678118654746 0.70710678118654746 0.5 forward I I I I #
loop $-1 $-1 $97 $24 #
coedge $-1 $61 $61 $98 $99 reversed $38 $-1 #
face $-1 $100 $101 $15 $-1 $102 reversed single #
loop $-1 $-1 $103 $40 #
plane-surface $-1 0 -25.322230007819424 0 0 1 0 0 0 1 forward_v I I I I #
coedge $-1 $104 $105 $106 $107 forward $41 $-1 #
coedge $-1 $108 $43 $109 $110 forward $26 $-1 #
coedge $-1 $43 $108 $111 $112 forward $26 $-1 #
coedge $-1 $113 $114 $43 $69 reversed $115 $-1 #
edge $-1 $116 -25.322230007819424 $117 25.322230007819424 $68 $118 forward 7 unknown #
face $-1 $119 $120 $16 $-1 $121 reversed single #
loop $-1 $-1 $122 $44 #
plane-surface $-1 0 -15.787527753774432 5.2267112542996745 0 -1 0 0 0 -1 forward_v I I I I #
coedge $-1 $123 $124 $125 $126 reversed $45 $-1 #
coedge $-1 $127 $47 $128 $129 forward $29 $-1 #
coedge $-1 $47 $127 $130 $131 reversed $29 $-1 #
coedge $-1 $132 $133 $47 $77 forward $134 $-1 #
edge $-1 $135 5.5100883133759684 $136 15.044790567420957 $76 $137 forward 7 unknown #
face $-1 $138 $139 $17 $-1 $140 reversed single #
loop $-1 $-1 $141 $48 #
plane-surface $-1 0 0 8.9252611172615417 0 0 1 1 0 0 forward_v I I I I #
coedge $-1 $142 $143 $144 $145 reversed $49 $-1 #
coedge $-1 $83 $51 $146 $147 reversed $32 $-1 #
coedge $-1 $51 $82 $142 $148 reversed $32 $-1 #
coedge $-1 $144 $149 $51 $85 forward $139 $-1 #
edge $-1 $150 72.304561020401152 $151 76.392977618344133 $84 $152 forward 7 unknown #
loop $-1 $-1 $91 $52 #
plane-surface $-1 -24.450492859389037 21.49879677063014 82.272587189733159 0.69465837861970381 0 0.71933979245794832 0.71933979245794832 0 -0.69465837861970381 forward_v I I I I #
loop $-1 $-1 $153 $34 #
coedge $-1 $89 $89 $90 $154 reversed $53 $-1 #
coedge $-1 $90 $90 $89 $154 forward $55 $-1 #
coedge $-1 $91 $91 $56 $92 forward $86 $-1 #
edge $-1 $155 0 $155 6.2831853071796004 $91 $156 forward 7 unknown #
loop $-1 $-1 $98 $57 #
plane-surface $-1 -24.450492859389037 21.49879677063014 82.272587189733159 0.69465837861970381 0 0.71933979245794832 0.71933979245794832 0 -0.69465837861970381 forward_v I I I I #
loop $-1 $-1 $157 $37 #
coedge $-1 $96 $96 $97 $158 reversed $58 $-1 #
coedge $-1 $97 $97 $96 $158 forward $60 $-1 #
coedge $-1 $98 $98 $61 $99 forward $93 $-1 #
edge $-1 $159 0 $159 6.2831853071796004 $98 $160 forward 7 unknown #
face $-1 $161 $162 $15 $-1 $163 reversed single #
loop $-1 $-1 $164 $62 #
plane-surface $-1 -55.736564226203193 0 0 1 0 0 0 0 -1 forward_v I I I I #
coedge $-1 $165 $111 $166 $167 forward $63 $-1 #
coedge $-1 $168 $65 $165 $169 forward $41 $-1 #
coedge $-1 $65 $168 $170 $171 forward $41 $-1 #
coedge $-1 $114 $113 $65 $107 reversed $115 $-1 #
edge $-1 $172 -25.322230007819424 $173 25.322230007819424 $106 $174 forward 7 unknown #
coedge $-1 $67 $66 $175 $176 forward $26 $-1 #
coedge $-1 $177 $178 $66 $110 reversed $162 $-1 #
edge $-1 $117 -55.736564226203193 $179 55.736564226203193 $109 $180 forward 7 unknown #
coedge $-1 $103 $181 $67 $112 reversed $63 $-1 #
edge $-1 $182 -55.736564226203193 $116 55.736564226203193 $111 $183 forward 7 unknown #
coedge $-1 $106 $68 $181 $184 forward $115 $-1 #
coedge $-1 $68 $106 $177 $185 reversed $115 $-1 #
loop $-1 $-1 $113 $161 #
vertex $-1 $69 $186 #
vertex $-1 $69 $187 #
straight-curve $-1 55.736564226203193 0 8.9252611172615417 0 1 0 I I #
face $-1 $188 $189 $16 $-1 $190 reversed single #
loop $-1 $-1 $191 $70 #
plane-surface $-1 -55.736564226203193 0 0 1 0 0 0 0 -1 forward_v I I I I #
coedge $-1 $192 $128 $133 $193 reversed $71 $-1 #
coedge $-1 $194 $73 $195 $196 reversed $45 $-1 #
coedge $-1 $73 $194 $192 $197 forward $45 $-1 #
coedge $-1 $133 $132 $73 $126 forward $134 $-1 #
edge $-1 $198 -15.044790567420957 $199 -5.5100883133759684 $125 $200 forward 7 unknown #
coedge $-1 $75 $74 $191 $201 reversed $29 $-1 #
coedge $-1 $122 $202 $74 $129 reversed $71 $-1 #
edge $-1 $135 -55.736564226203193 $203 55.736564226203193 $128 $204 forward 7 unknown #
coedge $-1 $205 $206 $75 $131 forward $189 $-1 #
edge $-1 $136 -55.736564226203193 $207 55.736564226203193 $130 $208 forward 7 unknown #
coedge $-1 $125 $76 $206 $209 forward $134 $-1 #
coedge $-1 $76 $125 $122 $193 forward $134 $-1 #
loop $-1 $-1 $76 $188 #
vertex $-1 $77 $210 #
vertex $-1 $209 $211 #
straight-curve $-1 55.736564226203193 -10.277439440398464 6.7267112542996745 0 -1 0 I I #
face $-1 $-1 $212 $17 $-1 $213 reversed single #
loop $-1 $-1 $84 $78 #
plane-surface $-1 55.736564226203193 0 0 -1 0 0 0 0 1 forward_v I I I I #
coedge $-1 $146 $214 $215 $216 forward $79 $-1 #
coedge $-1 $215 $81 $83 $148 forward $49 $-1 #
coedge $-1 $81 $215 $217 $218 reversed $49 $-1 #
coedge $-1 $219 $84 $81 $145 forward $139 $-1 #
edge $-1 $151 6.9259651481257887 $220 14.572831622504351 $144 $221 forward 7 unknown #
coedge $-1 $222 $141 $82 $147 forward $79 $-1 #
edge $-1 $223 25.01026009423428 $150 29.243939320690412 $146 $224 forward 7 unknown #
edge $-1 $151 -111.47312845240639 $223 -105.58762167126494 $83 $225 forward 7 unknown #
coedge $-1 $84 $219 $222 $226 reversed $139 $-1 #
vertex $-1 $226 $227 #
vertex $-1 $85 $228 #
straight-curve $-1 55.736564226203193 17.675363533440859 81.229822137662694 0 0 -1 I I #
coedge $-1 $153 $153 $-1 $229 reversed $88 $-1 #
edge $-1 $230 0 $230 6.2831853071796004 $89 $231 forward 7 unknown #
vertex $-1 $92 $232 #
ellipse-curve $-1 53.619724612975133 19.86018252612045 6.8810528182900459 0.69465837861970381 0 0.71933979245794832 0.71933979245794832 0 -0.69465837861970381 1 I I #
coedge $-1 $157 $157 $-1 $233 reversed $95 $-1 #
edge $-1 $234 0 $234 6.2831853071796004 $96 $235 forward 7 unknown #
vertex $-1 $99 $236 #
ellipse-curve $-1 53.619724612975133 23.137411015139836 6.8810528182900459 0.69465837861970381 0 0.71933979245794832 0.71933979245794832 0 -0.69465837861970381 1 I I #
face $-1 $-1 $115 $15 $-1 $237 reversed single #
loop $-1 $-1 $177 $100 #
plane-surface $-1 0 25.322230007819424 0 0 -1 0 0 0 -1 forward_v I I I I #
coedge $-1 $238 $175 $178 $239 forward $101 $-1 #
coedge $-1 $181 $103 $104 $169 reversed $63 $-1 #
coedge $-1 $175 $238 $103 $167 reversed $101 $-1 #
edge $-1 $182 -8.9252611172615417 $240 8.9252611172615417 $166 $241 forward 7 unknown #
coedge $-1 $105 $104 $238 $242 forward $41 $-1 #
edge $-1 $173 -55.736564226203193 $240 55.736564226203193 $165 $243 forward 7 unknown #
coedge $-1 $178 $177 $105 $171 reversed $162 $-1 #
edge $-1 $244 -55.736564226203193 $172 55.736564226203193 $170 $245 forward 7 unknown #
vertex $-1 $107 $246 #
vertex $-1 $184 $247 #
straight-curve $-1 55.736564226203193 0 -8.9252611172615417 0 -1 0 I I #
coedge $-1 $164 $166 $108 $176 reversed $101 $-1 #
edge $-1 $179 -25.322230007819424 $182 25.322230007819424 $175 $248 forward 7 unknown #
coedge $-1 $170 $109 $114 $185 forward $162 $-1 #
coedge $-1 $109 $170 $164 $239 reversed $162 $-1 #
vertex $-1 $110 $249 #
straight-curve $-1 0 25.322230007819424 8.9252611172615417 -1 0 0 I I #
coedge $-1 $111 $165 $113 $184 reversed $63 $-1 #
vertex $-1 $176 $250 #
straight-curve $-1 0 -25.322230007819424 8.9252611172615417 1 0 0 I I #
edge $-1 $116 -8.9252611172615417 $173 8.9252611172615417 $113 $251 forward 7 unknown #
edge $-1 $117 -8.9252611172615417 $172 8.9252611172615417 $114 $252 forward 7 unknown #
point $-1 55.736564226203193 -25.322230007819424 8.9252611172615417 #
point $-1 55.736564226203193 25.322230007819424 8.9252611172615417 #
face $-1 $-1 $134 $16 $-1 $253 reversed single #
loop $-1 $-1 $130 $119 #
plane-surface $-1 0 -25.322230007819424 0 0 1 0 0 0 1 forward_v I I I I #
coedge $-1 $254 $255 $127 $201 forward $120 $-1 #
coedge $-1 $202 $122 $124 $197 reversed $71 $-1 #
edge $-1 $199 1.1133556271498373 $135 4.1133556271498373 $133 $256 forward 7 unknown #
coedge $-1 $124 $123 $257 $258 reversed $45 $-1 #
coedge $-1 $206 $205 $123 $196 forward $189 $-1 #
edge $-1 $259 -55.736564226203193 $198 55.736564226203193 $195 $260 forward 7 unknown #
edge $-1 $261 -55.736564226203193 $199 55.736564226203193 $192 $262 forward 7 unknown #
vertex $-1 $196 $263 #
vertex $-1 $126 $264 #
straight-curve $-1 55.736564226203193 -10.277439440398464 3.7267112542996745 0 1 0 I I #
edge $-1 $207 -15.044790567420957 $203 -5.5100883133759684 $191 $265 forward 7 unknown #
coedge $-1 $128 $192 $254 $266 reversed $71 $-1 #
vertex $-1 $201 $267 #
straight-curve $-1 0 -15.787527753774432 6.7267112542996745 -1 0 0 I I #
coedge $-1 $195 $130 $255 $268 forward $189 $-1 #
coedge $-1 $130 $195 $132 $209 reversed $189 $-1 #
vertex $-1 $268 $269 #
straight-curve $-1 0 -25.322230007819424 6.7267112542996745 -1 0 0 I I #
edge $-1 $136 -6.7267112542996745 $198 -3.7267112542996745 $132 $270 forward 7 unknown #
point $-1 55.736564226203193 -15.787527753774432 6.7267112542996745 #
point $-1 55.736564226203193 -25.322230007819421 6.7267112542996745 #
loop $-1 $-1 $217 $138 #
plane-surface $-1 0 25.322230007819424 0 0 -1 0 0 0 -1 forward_v I I I I #
coedge $-1 $141 $222 $271 $272 forward $79 $-1 #
coedge $-1 $143 $142 $141 $216 reversed $49 $-1 #
edge $-1 $273 -14.572831622504351 $223 -6.9259651481257887 $141 $274 forward 7 unknown #
coedge $-1 $271 $275 $143 $218 forward $212 $-1 #
edge $-1 $220 -74.103351211888537 $273 -68.217844430747093 $217 $276 forward 7 unknown #
coedge $-1 $149 $144 $275 $277 reversed $139 $-1 #
vertex $-1 $218 $278 #
straight-curve $-1 55.736564226203186 10.74939838531507 4.8368445193185678 0 1 0 I I #
coedge $-1 $214 $146 $149 $226 forward $79 $-1 #
vertex $-1 $147 $279 #
straight-curve $-1 26.49262490551278 17.675363533440859 8.9252611172615417 1 0 0 I I #
straight-curve $-1 -24.450492859389037 17.675363533440859 82.272587189733159 -0.71933979245794832 0 0.69465837861970381 I I #
edge $-1 $150 17.675363533440859 $280 25.322230007819424 $149 $281 forward 7 unknown #
point $-1 55.736564226203193 17.675363533440859 8.9252611172615417 #
point $-1 55.736564226203193 17.675363533440859 4.8368445193185607 #
edge $-1 $282 1 $282 0 $153 $-1 forward 7 unknown #
vertex $-1 $154 $283 #
ellipse-curve $-1 51.307214142128998 19.86018252612045 4.4863781791376969 0.69465837861970381 0 0.71933979245794832 0.71933979245794832 0 -0.69465837861970381 1 I I #
point $-1 54.339064405433099 19.86018252612045 6.1863944396703561 #
edge $-1 $284 1 $284 0 $157 $-1 forward 7 unknown #
vertex $-1 $158 $285 #
ellipse-curve $-1 51.307214142128998 23.137411015139836 4.4863781791376969 0.69465837861970381 0 0.71933979245794832 0.71933979245794832 0 -0.69465837861970381 1 I I #
point $-1 54.339064405433099 23.137411015139836 6.1863944396703561 #
plane-surface $-1 55.736564226203193 0 0 -1 0 0 0 0 1 forward_v I I I I #
coedge $-1 $166 $164 $168 $242 reversed $101 $-1 #
edge $-1 $179 -8.9252611172615417 $244 8.9252611172615417 $178 $286 forward 7 unknown #
vertex $-1 $242 $287 #
straight-curve $-1 -55.736564226203193 -25.322230007819424 0 0 0 -1 I I #
edge $-1 $240 -25.322230007819424 $244 25.322230007819424 $238 $288 forward 7 unknown #
straight-curve $-1 0 -25.322230007819424 -8.9252611172615417 -1 0 0 I I #
vertex $-1 $171 $289 #
straight-curve $-1 0 25.322230007819424 -8.9252611172615417 1 0 0 I I #
point $-1 55.736564226203193 25.322230007819424 -8.9252611172615417 #
point $-1 55.736564226203193 -25.322230007819424 -8.9252611172615417 #
straight-curve $-1 -55.736564226203193 0 8.9252611172615417 0 -1 0 I I #
point $-1 -55.736564226203193 25.322230007819424 8.9252611172615417 #
point $-1 -55.736564226203193 -25.322230007819424 8.9252611172615417 #
straight-curve $-1 55.736564226203193 -25.322230007819424 0 0 0 -1 I I #
straight-curve $-1 55.736564226203193 25.322230007819424 0 0 0 -1 I I #
plane-surface $-1 55.736564226203193 0 0 -1 0 0 0 0 1 forward_v I I I I #
coedge $-1 $257 $191 $202 $266 forward $120 $-1 #
coedge $-1 $191 $257 $205 $268 reversed $120 $-1 #
straight-curve $-1 55.736564226203193 -15.787527753774432 2.6133556271498373 0 0 1 I I #
coedge $-1 $255 $254 $194 $258 forward $120 $-1 #
edge $-1 $261 5.5100883133759684 $259 15.044790567420957 $257 $290 forward 7 unknown #
vertex $-1 $196 $291 #
straight-curve $-1 0 -25.322230007819424 3.7267112542996745 1 0 0 I I #
vertex $-1 $258 $292 #
straight-curve $-1 0 -15.787527753774432 3.7267112542996745 1 0 0 I I #
point $-1 55.736564226203193 -25.322230007819421 3.7267112542996745 #
point $-1 55.736564226203193 -15.787527753774432 3.7267112542996745 #
straight-curve $-1 -55.736564226203193 -10.277439440398464 6.7267112542996745 0 1 0 I I #
edge $-1 $203 -4.1133556271498373 $261 -1.1133556271498373 $254 $293 forward 7 unknown #
point $-1 -55.736564226203193 -15.787527753774432 6.7267112542996745 #
edge $-1 $207 -6.7267112542996745 $259 -3.7267112542996745 $255 $294 forward 7 unknown #
point $-1 -55.736564226203193 -25.322230007819421 6.7267112542996745 #
straight-curve $-1 55.736564226203193 -25.322230007819424 0 0 0 -1 I I #
coedge $-1 $275 $217 $214 $272 reversed $212 $-1 #
edge $-1 $280 -55.736564226203193 $273 -51.50288499974706 $271 $295 forward 7 unknown #
vertex $-1 $218 $296 #
straight-curve $-1 51.50288499974706 10.74939838531507 8.9252611172615417 0 -1 0 I I #
coedge $-1 $217 $271 $219 $277 forward $212 $-1 #
straight-curve $-1 2.4310749450048377 25.322230007819424 56.313358322455514 -0.71933979245794832 0 0.69465837861970381 I I #
edge $-1 $280 -8.9252611172615417 $220 -4.8368445193185607 $219 $297 forward 7 unknown #
point $-1 55.736564226203193 25.322230007819421 4.8368445193185607 #
point $-1 51.50288499974706 17.675363533440859 8.9252611172615417 #
vertex $-1 $226 $298 #
straight-curve $-1 55.736564226203193 0 8.9252611172615417 0 1 0 I I #
vertex $-1 $229 $299 #
point $-1 52.026553934586943 19.86018252612045 3.7917198005179933 #
vertex $-1 $233 $300 #
point $-1 52.026553934586943 23.137411015139836 3.7917198005179933 #
straight-curve $-1 -55.736564226203193 25.322230007819424 0 0 0 -1 I I #
point $-1 -55.736564226203193 -25.322230007819424 -8.9252611172615417 #
straight-curve $-1 -55.736564226203193 0 -8.9252611172615417 0 1 0 I I #
point $-1 -55.736564226203193 25.322230007819424 -8.9252611172615417 #
straight-curve $-1 -55.736564226203193 -10.277439440398464 3.7267112542996745 0 -1 0 I I #
point $-1 -55.736564226203193 -25.322230007819421 3.7267112542996745 #
point $-1 -55.736564226203193 -15.787527753774432 3.7267112542996745 #
straight-curve $-1 -55.736564226203193 -15.787527753774432 2.6133556271498373 0 0 -1 I I #
straight-curve $-1 -55.736564226203193 -25.322230007819424 0 0 0 -1 I I #
straight-curve $-1 0 25.322230007819424 8.9252611172615417 -1 0 0 I I #
point $-1 51.50288499974706 25.322230007819421 8.9252611172615417 #
straight-curve $-1 55.736564226203193 25.322230007819424 0 0 0 -1 I I #
point $-1 55.736564226203193 25.322230007819424 8.9252611172615417 #
point $-1 50.612555763509292 19.86018252612045 3.767038386679749 #
point $-1 50.612555763509292 23.137411015139836 3.767038386679749 #
End-of-ACIS-data 