500 0 5 0           
7 Unknown 11 ACIS 5.0 NT 24 Fri Mar 26 01:42:50 1999 
-1 9.9999999999999995e-007 1e-010 
body $-1 $5 $-1 $6 #
body $-1 $7 $-1 $8 #
body $-1 $9 $-1 $10 #
body $-1 $11 $-1 $12 #
body $-1 $13 $-1 $14 #
lump $-1 $-1 $15 $0 #
transform $-1 1 0 0 0 1 0 0 0 1 45.112460707419046 29.05098184579542 10.904469161534216 1 rotate no_reflect no_shear #
lump $-1 $-1 $16 $1 #
transform $-1 1 0 0 0 1 0 0 0 1 45.112460707419046 29.05098184579542 10.904469161534216 1 rotate no_reflect no_shear #
lump $-1 $-1 $17 $2 #
transform $-1 1 0 0 0 1 0 0 0 1 45.112460707419046 29.05098184579542 10.904469161534216 1 rotate no_reflect no_shear #
lump $-1 $-1 $18 $3 #
transform $-1 1 0 0 0 1 0 0 0 1 45.112460707419046 29.05098184579542 10.904469161534216 1 rotate no_reflect no_shear #
lump $-1 $-1 $19 $4 #
transform $-1 1 0 0 0 1 0 0 0 1 45.112460707419046 29.05098184579542 10.904469161534216 1 rotate no_reflect no_shear #
shell $-1 $-1 $-1 $20 $-1 $5 #
shell $-1 $-1 $-1 $21 $-1 $7 #
shell $-1 $-1 $-1 $22 $-1 $9 #
shell $-1 $-1 $-1 $23 $-1 $11 #
shell $-1 $-1 $-1 $24 $-1 $13 #
face $-1 $25 $26 $15 $-1 $27 forward single #
face $-1 $28 $29 $16 $-1 $30 forward single #
face $-1 $31 $32 $17 $-1 $33 reversed single #
face $-1 $34 $35 $18 $-1 $36 forward single #
face $-1 $37 $38 $19 $-1 $39 forward single #
face $-1 $40 $41 $15 $-1 $42 reversed single #
loop $-1 $-1 $43 $20 #
plane-surface $-1 0 0 10.904469161534216 0 0 1 1 0 0 forward_v I I I I #
face $-1 $44 $45 $16 $-1 $46 reversed single #
loop $-1 $-1 $47 $21 #
plane-surface $-1 0 -29.05098184579542 0 0 1 0 0 0 1 forward_v I I I I #
face $-1 $48 $49 $17 $-1 $50 reversed single #
loop $-1 $-1 $51 $22 #
plane-surface $-1 -31.017164506663441 23.845666815639021 114.19103875753467 1 0 0 0 -0.50000000669873634 -0.8660253999169214 forward_v I I I I #
face $-1 $52 $53 $18 $-1 $54 forward single #
loop $-1 $55 $56 $23 #
cone-surface $-1 -27.417356573439029 25.128599968631249 8.0121906656399577 0 -0.50000000669873634 -0.8660253999169214 1 0 0 1 I I 0 1 1 forward I I I I #
face $-1 $57 $58 $19 $-1 $59 forward single #
loop $-1 $60 $61 $24 #
cone-surface $-1 -22.017644673602415 25.128599968631249 8.0121906656399577 0 -0.50000000669873634 -0.8660253999169214 1 0 0 1 I I 0 1 1 forward I I I I #
face $-1 $62 $63 $15 $-1 $64 reversed single #
loop $-1 $-1 $65 $25 #
plane-surface $-1 0 0 -10.904469161534216 0 0 1 1 0 0 forward_v I I I I #
coedge $-1 $66 $67 $68 $69 forward $26 $-1 #
face $-1 $70 $71 $16 $-1 $72 reversed single #
loop $-1 $-1 $73 $28 #
plane-surface $-1 0 0 -10.904469161534216 0 0 1 1 0 0 forward_v I I I I #
coedge $-1 $74 $75 $76 $77 forward $29 $-1 #
face $-1 $78 $79 $17 $-1 $80 reversed single #
loop $-1 $-1 $81 $31 #
plane-surface $-1 -24.717500623520724 -21.266794496172984 36.053965106776701 0 0.50000000669873634 0.8660253999169214 1 0 0 forward_v I I I I #
coedge $-1 $82 $83 $84 $85 reversed $32 $-1 #
face $-1 $-1 $86 $18 $-1 $87 forward single #
loop $-1 $88 $89 $34 #
cone-surface $-1 -27.417356573439029 24.335004267212611 6.6376426146685752 0 -0.50000000669873634 -0.8660253999169214 0.5 0 0 1 I I -0.70710678118654746 0.70710678118654746 0.5 forward I I I I #
loop $-1 $-1 $90 $23 #
coedge $-1 $56 $56 $91 $92 reversed $35 $-1 #
face $-1 $-1 $93 $19 $-1 $94 forward single #
loop $-1 $95 $96 $37 #
cone-surface $-1 -22.017644673602415 24.335004267212611 6.6376426146685752 0 -0.50000000669873634 -0.8660253999169214 0.5 0 0 1 I I -0.70710678118654746 0.70710678118654746 0.5 forward I I I I #
loop $-1 $-1 $97 $24 #
coedge $-1 $61 $61 $98 $99 reversed $38 $-1 #
face $-1 $100 $101 $15 $-1 $102 reversed single #
loop $-1 $-1 $103 $40 #
plane-surface $-1 0 -29.05098184579542 0 0 1 0 0 0 1 forward_v I I I I #
coedge $-1 $104 $105 $106 $107 forward $41 $-1 #
coedge $-1 $108 $43 $109 $110 forward $26 $-1 #
coedge $-1 $43 $108 $111 $112 forward $26 $-1 #
coedge $-1 $113 $114 $43 $69 reversed $115 $-1 #
edge $-1 $116 -29.05098184579542 $117 29.05098184579542 $68 $118 forward 7 unknown #
face $-1 $119 $120 $16 $-1 $121 reversed single #
loop $-1 $-1 $122 $44 #
plane-surface $-1 -33.756194430206484 -41.477344442516312 0 0 1 0 0 0 1 forward_v I I I I #
coedge $-1 $123 $124 $75 $125 forward $45 $-1 #
coedge $-1 $126 $47 $127 $128 reversed $29 $-1 #
coedge $-1 $47 $126 $73 $125 reversed $29 $-1 #
coedge $-1 $129 $130 $47 $77 reversed $120 $-1 #
edge $-1 $131 -10.904469161534216 $132 10.904469161534216 $76 $133 forward 7 unknown #
face $-1 $134 $135 $17 $-1 $136 forward single #
loop $-1 $-1 $137 $48 #
plane-surface $-1 -18.417836740378007 23.845666815639021 114.19103875753467 -1 0 0 0 0.50000000669873634 0.8660253999169214 forward_v I I I I #
coedge $-1 $138 $139 $140 $141 reversed $49 $-1 #
coedge $-1 $83 $51 $142 $143 reversed $32 $-1 #
coedge $-1 $51 $82 $138 $144 reversed $32 $-1 #
coedge $-1 $140 $145 $51 $85 forward $135 $-1 #
edge $-1 $146 -17.128148437975909 $147 -10.37057607978609 $84 $148 forward 7 unknown #
loop $-1 $-1 $91 $52 #
plane-surface $-1 -24.717500623520724 -21.266794496172984 36.053965106776701 0 0.50000000669873634 0.8660253999169214 1 0 0 forward_v I I I I #
loop $-1 $-1 $149 $34 #
coedge $-1 $89 $89 $90 $150 reversed $53 $-1 #
coedge $-1 $90 $90 $89 $150 forward $55 $-1 #
coedge $-1 $91 $91 $56 $92 forward $86 $-1 #
edge $-1 $151 2.1885618528740497e-015 $151 6.2831853071796022 $91 $152 forward 7 unknown #
loop $-1 $-1 $98 $57 #
plane-surface $-1 -24.717500623520724 -21.266794496172984 36.053965106776701 0 0.50000000669873634 0.8660253999169214 1 0 0 forward_v I I I I #
loop $-1 $-1 $153 $37 #
coedge $-1 $96 $96 $97 $154 reversed $58 $-1 #
coedge $-1 $97 $97 $96 $154 forward $60 $-1 #
coedge $-1 $98 $98 $61 $99 forward $93 $-1 #
edge $-1 $155 2.1885618528740497e-015 $155 6.2831853071796022 $98 $156 forward 7 unknown #
face $-1 $157 $158 $15 $-1 $159 reversed single #
loop $-1 $-1 $160 $62 #
plane-surface $-1 -45.112460707419046 0 0 1 0 0 0 0 -1 forward_v I I I I #
coedge $-1 $161 $111 $162 $163 forward $63 $-1 #
coedge $-1 $164 $65 $161 $165 forward $41 $-1 #
coedge $-1 $65 $164 $166 $167 forward $41 $-1 #
coedge $-1 $114 $113 $65 $107 reversed $115 $-1 #
edge $-1 $168 -29.05098184579542 $169 29.05098184579542 $106 $170 forward 7 unknown #
coedge $-1 $67 $66 $171 $172 forward $26 $-1 #
coedge $-1 $173 $174 $66 $110 reversed $158 $-1 #
edge $-1 $117 -45.112460707419046 $175 45.112460707419046 $109 $176 forward 7 unknown #
coedge $-1 $103 $177 $67 $112 reversed $63 $-1 #
edge $-1 $178 -45.112460707419046 $116 45.112460707419046 $111 $179 forward 7 unknown #
coedge $-1 $106 $68 $177 $180 forward $115 $-1 #
coedge $-1 $68 $106 $173 $181 reversed $115 $-1 #
loop $-1 $-1 $113 $157 #
vertex $-1 $69 $182 #
vertex $-1 $69 $183 #
straight-curve $-1 45.112460707419046 0 10.904469161534216 0 1 0 I I #
face $-1 $184 $185 $16 $-1 $186 reversed single #
loop $-1 $-1 $76 $70 #
plane-surface $-1 -36.292073377250979 -35.264163144155866 0 1 0 0 0 0 -1 forward_v I I I I #
coedge $-1 $187 $188 $189 $190 forward $71 $-1 #
coedge $-1 $191 $73 $192 $193 forward $45 $-1 #
coedge $-1 $73 $191 $129 $194 forward $45 $-1 #
edge $-1 $131 -36.292073377250979 $195 -31.220315483161993 $73 $196 forward 7 unknown #
coedge $-1 $75 $74 $197 $198 forward $29 $-1 #
coedge $-1 $199 $200 $74 $128 forward $201 $-1 #
edge $-1 $202 31.220315483161993 $132 36.292073377250979 $127 $203 forward 7 unknown #
coedge $-1 $189 $76 $124 $194 reversed $120 $-1 #
coedge $-1 $76 $189 $199 $204 reversed $120 $-1 #
vertex $-1 $125 $205 #
vertex $-1 $204 $206 #
straight-curve $-1 -36.292073377250979 -29.05098184579542 0 0 0 1 I I #
face $-1 $-1 $207 $17 $-1 $208 reversed single #
loop $-1 $-1 $84 $78 #
plane-surface $-1 0 0 10.904469161534216 0 0 1 1 0 0 forward_v I I I I #
coedge $-1 $209 $210 $211 $212 reversed $79 $-1 #
coedge $-1 $213 $81 $83 $144 forward $49 $-1 #
coedge $-1 $81 $213 $209 $214 forward $49 $-1 #
coedge $-1 $211 $84 $81 $141 forward $135 $-1 #
edge $-1 $147 -18.658414194903081 $215 -6.0590864286176451 $140 $216 forward 7 unknown #
coedge $-1 $217 $218 $82 $143 forward $207 $-1 #
edge $-1 $219 -50.092536506995785 $146 -46.191050217233119 $142 $220 forward 7 unknown #
edge $-1 $147 50.298991216605607 $219 58.101963691590839 $83 $221 forward 7 unknown #
coedge $-1 $84 $211 $217 $222 forward $135 $-1 #
vertex $-1 $143 $223 #
vertex $-1 $85 $224 #
straight-curve $-1 -31.017164506663441 11.92283340781951 10.904469161534216 0 -1 0 I I #
coedge $-1 $149 $149 $-1 $225 reversed $88 $-1 #
edge $-1 $226 0 $226 6.2831853071796004 $89 $227 forward 7 unknown #
vertex $-1 $92 $228 #
ellipse-curve $-1 -27.417356573439029 25.672195666700517 8.9537260166528778 0 0.50000000669873634 0.8660253999169214 1 0 0 1 I I #
coedge $-1 $153 $153 $-1 $229 reversed $95 $-1 #
edge $-1 $230 0 $230 6.2831853071796004 $96 $231 forward 7 unknown #
vertex $-1 $99 $232 #
ellipse-curve $-1 -22.017644673602415 25.672195666700517 8.9537260166528778 0 0.50000000669873634 0.8660253999169214 1 0 0 1 I I #
face $-1 $-1 $115 $15 $-1 $233 reversed single #
loop $-1 $-1 $173 $100 #
plane-surface $-1 0 29.05098184579542 0 0 -1 0 0 0 -1 forward_v I I I I #
coedge $-1 $234 $171 $174 $235 forward $101 $-1 #
coedge $-1 $177 $103 $104 $165 reversed $63 $-1 #
coedge $-1 $171 $234 $103 $163 reversed $101 $-1 #
edge $-1 $178 -10.904469161534216 $236 10.904469161534216 $162 $237 forward 7 unknown #
coedge $-1 $105 $104 $234 $238 forward $41 $-1 #
edge $-1 $169 -45.112460707419046 $236 45.112460707419046 $161 $239 forward 7 unknown #
coedge $-1 $174 $173 $105 $167 reversed $158 $-1 #
edge $-1 $240 -45.112460707419046 $168 45.112460707419046 $166 $241 forward 7 unknown #
vertex $-1 $107 $242 #
vertex $-1 $180 $243 #
straight-curve $-1 45.112460707419046 0 -10.904469161534216 0 -1 0 I I #
coedge $-1 $160 $162 $108 $172 reversed $101 $-1 #
edge $-1 $175 -29.05098184579542 $178 29.05098184579542 $171 $244 forward 7 unknown #
coedge $-1 $166 $109 $114 $181 forward $158 $-1 #
coedge $-1 $109 $166 $160 $235 reversed $158 $-1 #
vertex $-1 $110 $245 #
straight-curve $-1 0 29.05098184579542 10.904469161534216 -1 0 0 I I #
coedge $-1 $111 $161 $113 $180 reversed $63 $-1 #
vertex $-1 $172 $246 #
straight-curve $-1 0 -29.05098184579542 10.904469161534216 1 0 0 I I #
edge $-1 $116 -10.904469161534216 $169 10.904469161534216 $113 $247 forward 7 unknown #
edge $-1 $117 -10.904469161534216 $168 10.904469161534216 $114 $248 forward 7 unknown #
point $-1 45.112460707419046 -29.05098184579542 10.904469161534216 #
point $-1 45.112460707419046 29.05098184579542 10.904469161534216 #
face $-1 $-1 $201 $16 $-1 $249 forward single #
loop $-1 $-1 $250 $119 #
plane-surface $-1 -31.220315483161993 -35.264163144155866 0 -1 0 0 0 0 1 forward_v I I I I #
coedge $-1 $251 $122 $191 $252 reversed $71 $-1 #
coedge $-1 $122 $251 $253 $254 reversed $71 $-1 #
coedge $-1 $130 $129 $122 $190 reversed $120 $-1 #
edge $-1 $255 -10.904469161534216 $256 10.904469161534216 $189 $257 forward 7 unknown #
coedge $-1 $124 $123 $187 $252 forward $45 $-1 #
coedge $-1 $197 $250 $123 $193 reversed $185 $-1 #
edge $-1 $195 -6.2131812983604462 $258 6.2131812983604462 $192 $259 forward 7 unknown #
edge $-1 $256 -6.2131812983604462 $131 6.2131812983604462 $129 $260 forward 7 unknown #
vertex $-1 $193 $261 #
straight-curve $-1 0 -29.05098184579542 -10.904469161534216 1 0 0 I I #
coedge $-1 $262 $192 $126 $198 reversed $185 $-1 #
edge $-1 $202 -10.904469161534216 $195 10.904469161534216 $197 $263 forward 7 unknown #
coedge $-1 $253 $127 $130 $204 forward $201 $-1 #
coedge $-1 $127 $253 $262 $264 forward $201 $-1 #
loop $-1 $-1 $127 $184 #
vertex $-1 $128 $265 #
straight-curve $-1 0 -29.05098184579542 10.904469161534216 -1 0 0 I I #
edge $-1 $132 -6.2131812983604462 $255 6.2131812983604462 $130 $266 forward 7 unknown #
point $-1 -36.292073377250979 -29.05098184579542 -10.904469161534216 #
point $-1 -36.292073377250979 -29.05098184579542 10.904469161534216 #
loop $-1 $-1 $142 $134 #
plane-surface $-1 0 29.05098184579542 0 0 -1 0 0 0 -1 forward_v I I I I #
coedge $-1 $210 $137 $139 $214 reversed $79 $-1 #
coedge $-1 $137 $209 $267 $268 reversed $79 $-1 #
coedge $-1 $145 $140 $137 $212 forward $135 $-1 #
edge $-1 $215 10.37057607978609 $269 17.128148437975909 $211 $270 forward 7 unknown #
coedge $-1 $139 $138 $218 $271 reversed $49 $-1 #
edge $-1 $272 -58.101963691590839 $215 -50.298991216605607 $209 $273 forward 7 unknown #
vertex $-1 $141 $274 #
straight-curve $-1 -12.358750311760362 22.293409487605601 10.90446916153422 1 0 0 I I #
coedge $-1 $267 $142 $145 $222 reversed $207 $-1 #
coedge $-1 $142 $267 $213 $271 forward $207 $-1 #
vertex $-1 $143 $275 #
straight-curve $-1 -31.017164506663441 29.05098184579542 57.095519378767335 0 0 1 I I #
straight-curve $-1 -31.017164506663441 -21.266794496172984 36.053965106776701 0 0.8660253999169214 -0.50000000669873634 I I #
edge $-1 $269 18.417836740378007 $146 31.017164506663441 $217 $276 forward 7 unknown #
point $-1 -31.017164506663441 29.05098184579542 10.904469161534216 #
point $-1 -31.017164506663441 22.293409487605601 10.904469161534216 #
edge $-1 $277 1 $277 0 $149 $-1 forward 7 unknown #
vertex $-1 $150 $278 #
ellipse-curve $-1 -27.417356573439029 24.585004270561978 7.0706553146270359 0 0.50000000669873634 0.8660253999169214 1 0 0 1 I I #
point $-1 -26.417356573439029 25.672195666700521 8.9537260166528796 #
edge $-1 $279 1 $279 0 $153 $-1 forward 7 unknown #
vertex $-1 $154 $280 #
ellipse-curve $-1 -22.017644673602415 24.585004270561978 7.0706553146270359 0 0.50000000669873634 0.8660253999169214 1 0 0 1 I I #
point $-1 -21.017644673602415 25.672195666700521 8.9537260166528796 #
plane-surface $-1 45.112460707419046 0 0 -1 0 0 0 0 1 forward_v I I I I #
coedge $-1 $162 $160 $164 $238 reversed $101 $-1 #
edge $-1 $175 -10.904469161534216 $240 10.904469161534216 $174 $281 forward 7 unknown #
vertex $-1 $238 $282 #
straight-curve $-1 -45.112460707419046 -29.05098184579542 0 0 0 -1 I I #
edge $-1 $236 -29.05098184579542 $240 29.05098184579542 $234 $283 forward 7 unknown #
straight-curve $-1 0 -29.05098184579542 -10.904469161534216 -1 0 0 I I #
vertex $-1 $167 $284 #
straight-curve $-1 0 29.05098184579542 -10.904469161534216 1 0 0 I I #
point $-1 45.112460707419046 29.05098184579542 -10.904469161534216 #
point $-1 45.112460707419046 -29.05098184579542 -10.904469161534216 #
straight-curve $-1 -45.112460707419046 0 10.904469161534216 0 -1 0 I I #
point $-1 -45.112460707419046 29.05098184579542 10.904469161534216 #
point $-1 -45.112460707419046 -29.05098184579542 10.904469161534216 #
straight-curve $-1 45.112460707419046 -29.05098184579542 0 0 0 -1 I I #
straight-curve $-1 45.112460707419046 29.05098184579542 0 0 0 -1 I I #
plane-surface $-1 0 0 10.904469161534216 0 0 1 1 0 0 forward_v I I I I #
coedge $-1 $192 $262 $251 $285 forward $185 $-1 #
coedge $-1 $188 $187 $250 $285 reversed $71 $-1 #
edge $-1 $258 -2.5358789470444911 $256 2.5358789470444947 $187 $286 forward 7 unknown #
coedge $-1 $200 $199 $188 $254 forward $201 $-1 #
edge $-1 $255 -2.5358789470444947 $287 2.5358789470444911 $188 $288 forward 7 unknown #
vertex $-1 $204 $289 #
vertex $-1 $194 $290 #
straight-curve $-1 -36.292073377250979 -41.477344442516312 0 0 0 -1 I I #
vertex $-1 $285 $291 #
straight-curve $-1 -31.220315483161993 -35.264163144155866 -10.904469161534216 0 -1 0 I I #
straight-curve $-1 -36.292073377250979 -35.264163144155866 -10.904469161534216 0 1 0 I I #
point $-1 -31.220315483161993 -29.05098184579542 -10.904469161534216 #
coedge $-1 $250 $197 $200 $264 reversed $185 $-1 #
straight-curve $-1 -31.220315483161993 -29.05098184579542 0 0 0 -1 I I #
edge $-1 $287 -6.2131812983604462 $202 6.2131812983604462 $262 $292 forward 7 unknown #
point $-1 -31.220315483161993 -29.05098184579542 10.904469161534216 #
straight-curve $-1 -36.292073377250979 -35.264163144155866 10.904469161534216 0 -1 0 I I #
coedge $-1 $218 $217 $210 $268 forward $207 $-1 #
edge $-1 $269 46.191050217233119 $272 50.092536506995785 $267 $293 forward 7 unknown #
vertex $-1 $222 $294 #
straight-curve $-1 -18.417836740378007 11.92283340781951 10.904469161534216 0 1 0 I I #
edge $-1 $272 6.0590864286176451 $219 18.658414194903081 $218 $295 forward 7 unknown #
vertex $-1 $271 $296 #
straight-curve $-1 -18.417836740378007 -21.266794496172984 36.053965106776701 0 -0.8660253999169214 0.50000000669873634 I I #
point $-1 -18.417836740378007 22.293409487605601 10.904469161534216 #
point $-1 -31.017164506663441 29.05098184579542 7.0029828717715468 #
straight-curve $-1 0 29.05098184579542 10.904469161534216 -1 0 0 I I #
vertex $-1 $225 $297 #
point $-1 -26.417356573439029 24.585004270561978 7.0706553146270359 #
vertex $-1 $229 $298 #
point $-1 -21.017644673602415 24.585004270561978 7.0706553146270359 #
straight-curve $-1 -45.112460707419046 29.05098184579542 0 0 0 -1 I I #
point $-1 -45.112460707419046 -29.05098184579542 -10.904469161534216 #
straight-curve $-1 -45.112460707419046 0 -10.904469161534216 0 1 0 I I #
point $-1 -45.112460707419046 29.05098184579542 -10.904469161534216 #
edge $-1 $287 -10.904469161534216 $258 10.904469161534216 $250 $299 forward 7 unknown #
straight-curve $-1 -33.756194430206484 -41.477344442516312 -10.904469161534216 -1 0 0 I I #
vertex $-1 $264 $300 #
straight-curve $-1 -33.756194430206484 -41.477344442516312 10.904469161534216 1 0 0 I I #
point $-1 -36.292073377250979 -41.477344442516312 10.904469161534216 #
point $-1 -36.292073377250979 -41.477344442516312 -10.904469161534216 #
point $-1 -31.220315483161993 -41.477344442516312 -10.904469161534216 #
straight-curve $-1 -31.220315483161993 -35.264163144155866 10.904469161534216 0 1 0 I I #
straight-curve $-1 -18.417836740378007 29.05098184579542 57.095519378767335 0 0 -1 I I #
point $-1 -18.417836740378007 29.05098184579542 10.904469161534216 #
straight-curve $-1 -12.358750311760362 29.05098184579542 7.0029828717715414 -1 0 0 I I #
point $-1 -18.417836740378007 29.05098184579542 7.0029828717715468 #
point $-1 -27.417356573439029 24.085004263863244 6.2046299147101145 #
point $-1 -22.017644673602415 24.085004263863244 6.2046299147101145 #
straight-curve $-1 -31.220315483161993 -41.477344442516312 0 0 0 -1 I I #
point $-1 -31.220315483161993 -41.477344442516312 10.904469161534216 #
End-of-ACIS-data 