500 0 10 0           
7 Unknown 11 ACIS 5.0 NT 24 Fri Mar 26 14:40:14 1999 
-1 9.9999999999999995e-007 1e-010 
body $-1 $10 $-1 $11 #
body $-1 $12 $-1 $13 #
body $-1 $14 $-1 $15 #
body $-1 $16 $-1 $17 #
body $-1 $18 $-1 $19 #
body $-1 $20 $-1 $21 #
body $-1 $22 $-1 $23 #
body $-1 $24 $-1 $25 #
body $-1 $26 $-1 $27 #
body $-1 $28 $-1 $29 #
lump $-1 $-1 $30 $0 #
transform $-1 1 0 0 0 1 0 0 0 1 73.680227057710511 48.369864932353003 23.914349372145914 1 rotate no_reflect no_shear #
lump $-1 $-1 $31 $1 #
transform $-1 1 0 0 0 1 0 0 0 1 73.680227057710511 48.369864932353003 23.914349372145914 1 rotate no_reflect no_shear #
lump $-1 $-1 $32 $2 #
transform $-1 1 0 0 0 1 0 0 0 1 73.680227057710511 48.369864932353003 23.914349372145914 1 rotate no_reflect no_shear #
lump $-1 $-1 $33 $3 #
transform $-1 1 0 0 0 1 0 0 0 1 73.680227057710511 48.369864932353003 23.914349372145914 1 rotate no_reflect no_shear #
lump $-1 $-1 $34 $4 #
transform $-1 1 0 0 0 1 0 0 0 1 73.680227057710511 48.369864932353003 23.914349372145914 1 rotate no_reflect no_shear #
lump $-1 $-1 $35 $5 #
transform $-1 1 0 0 0 1 0 0 0 1 73.680227057710511 48.369864932353003 23.914349372145914 1 rotate no_reflect no_shear #
lump $-1 $-1 $36 $6 #
transform $-1 1 0 0 0 1 0 0 0 1 73.680227057710511 48.369864932353003 23.914349372145914 1 rotate no_reflect no_shear #
lump $-1 $-1 $37 $7 #
transform $-1 1 0 0 0 1 0 0 0 1 73.680227057710511 48.369864932353003 23.914349372145914 1 rotate no_reflect no_shear #
lump $-1 $-1 $38 $8 #
transform $-1 1 0 0 0 1 0 0 0 1 73.680227057710511 48.369864932353003 23.914349372145914 1 rotate no_reflect no_shear #
lump $-1 $-1 $39 $9 #
transform $-1 1 0 0 0 1 0 0 0 1 73.680227057710511 48.369864932353003 23.914349372145914 1 rotate no_reflect no_shear #
shell $-1 $-1 $-1 $40 $-1 $10 #
shell $-1 $-1 $-1 $41 $-1 $12 #
shell $-1 $-1 $-1 $42 $-1 $14 #
shell $-1 $-1 $-1 $43 $-1 $16 #
shell $-1 $-1 $-1 $44 $-1 $18 #
shell $-1 $-1 $-1 $45 $-1 $20 #
shell $-1 $-1 $-1 $46 $-1 $22 #
shell $-1 $-1 $-1 $47 $-1 $24 #
shell $-1 $-1 $-1 $48 $-1 $26 #
shell $-1 $-1 $-1 $49 $-1 $28 #
face $-1 $50 $51 $30 $-1 $52 forward single #
face $-1 $53 $54 $31 $-1 $55 reversed single #
face $-1 $56 $57 $32 $-1 $58 reversed single #
face $-1 $59 $60 $33 $-1 $61 forward single #
face $-1 $62 $63 $34 $-1 $64 forward single #
face $-1 $65 $66 $35 $-1 $67 forward single #
face $-1 $68 $69 $36 $-1 $70 reversed single #
face $-1 $71 $72 $37 $-1 $73 forward single #
face $-1 $74 $75 $38 $-1 $76 forward single #
face $-1 $77 $78 $39 $-1 $79 forward single #
face $-1 $80 $81 $30 $-1 $82 reversed single #
loop $-1 $-1 $83 $40 #
plane-surface $-1 0 0 23.914349372145914 0 0 1 1 0 0 forward_v I I I I #
face $-1 $84 $85 $31 $-1 $86 reversed single #
loop $-1 $-1 $87 $41 #
plane-surface $-1 -67.368435692155856 -28.259391072998145 0 0 -1 0 0 0 -1 forward_v I I I I #
face $-1 $88 $89 $32 $-1 $90 reversed single #
loop $-1 $-1 $91 $42 #
plane-surface $-1 -164.40438278079557 -14.903055107618606 123.1222192822884 0 1 0 -0.61566148304635926 0 0.78801074757464917 forward_v I I I I #
face $-1 $92 $93 $33 $-1 $94 forward single #
loop $-1 $95 $96 $43 #
cone-surface $-1 -61.713685210547915 -11.503323224162102 13.995479950055511 0.61566148304635926 0 -0.78801074757464917 0.78801074757464917 0 0.61566148304635926 1 I I 0 1 1 forward I I I I #
face $-1 $97 $98 $34 $-1 $99 forward single #
loop $-1 $100 $101 $44 #
cone-surface $-1 -61.713685210547915 -6.4037253989773504 13.995479950055511 0.61566148304635926 0 -0.78801074757464917 0.78801074757464917 0 0.61566148304635926 1 I I 0 1 1 forward I I I I #
face $-1 $102 $103 $35 $-1 $104 forward single #
loop $-1 $105 $106 $45 #
cone-surface $-1 -61.713685210547915 -1.3041275737925986 13.995479950055511 0.61566148304635926 0 -0.78801074757464917 0.78801074757464917 0 0.61566148304635926 1 I I 0 1 1 forward I I I I #
face $-1 $107 $108 $36 $-1 $109 reversed single #
loop $-1 $-1 $110 $46 #
plane-surface $-1 91.843412681544407 -2.37388201757933 212.06448010457166 0 -1 0 -0.7660444514056185 0 -0.64278759981090561 forward_v I I I I #
face $-1 $111 $112 $37 $-1 $113 forward single #
loop $-1 $114 $115 $47 #
cone-surface $-1 63.41480059001028 -17.436592745438034 12.422003582683189 -0.7660444514056185 0 -0.64278759981090561 0.96418139971635841 0 -1.1490666771084277 1 I I 0 1 1.5 forward I I I I #
face $-1 $116 $117 $38 $-1 $118 forward single #
loop $-1 $119 $120 $48 #
cone-surface $-1 63.41480059001028 -11.788076222491021 12.422003582683189 -0.7660444514056185 0 -0.64278759981090561 0.96418139971635841 0 -1.1490666771084277 1 I I 0 1 1.5 forward I I I I #
face $-1 $121 $122 $39 $-1 $123 forward single #
loop $-1 $124 $125 $49 #
cone-surface $-1 63.41480059001028 -6.1395596995440087 12.422003582683189 -0.7660444514056185 0 -0.64278759981090561 0.96418139971635841 0 -1.1490666771084277 1 I I 0 1 1.5 forward I I I I #
face $-1 $126 $127 $30 $-1 $128 reversed single #
loop $-1 $-1 $129 $50 #
plane-surface $-1 0 0 -23.914349372145914 0 0 1 1 0 0 forward_v I I I I #
coedge $-1 $130 $131 $132 $133 forward $51 $-1 #
face $-1 $134 $135 $31 $-1 $136 forward single #
loop $-1 $-1 $137 $53 #
plane-surface $-1 -61.056644326601194 -38.314628002675576 0 -1 0 0 0 0 1 forward_v I I I I #
coedge $-1 $138 $139 $140 $141 forward $54 $-1 #
face $-1 $142 $143 $32 $-1 $144 reversed single #
loop $-1 $-1 $145 $56 #
plane-surface $-1 -73.680227057710496 -6.4037253989773504 7.0005976718556866 -0.61566148304635926 0 0.78801074757464917 0.78801074757464917 0 0.61566148304635926 forward_v I I I I #
coedge $-1 $146 $147 $148 $149 reversed $57 $-1 #
face $-1 $-1 $150 $33 $-1 $151 forward single #
loop $-1 $152 $153 $59 #
cone-surface $-1 -60.263619882150877 -11.503323224162102 12.139481004322882 0.61566148304635926 0 -0.78801074757464917 0.39400537378732459 0 0.30783074152317963 1 I I -0.70710678118654879 0.70710678118654635 0.5 forward I I I I #
loop $-1 $-1 $154 $43 #
coedge $-1 $96 $96 $155 $156 reversed $60 $-1 #
face $-1 $-1 $157 $34 $-1 $158 forward single #
loop $-1 $159 $160 $62 #
cone-surface $-1 -60.263619882150877 -6.4037253989773504 12.139481004322882 0.61566148304635926 0 -0.78801074757464917 0.39400537378732459 0 0.30783074152317963 1 I I -0.70710678118654879 0.70710678118654635 0.5 forward I I I I #
loop $-1 $-1 $161 $44 #
coedge $-1 $101 $101 $162 $163 reversed $63 $-1 #
face $-1 $-1 $164 $35 $-1 $165 forward single #
loop $-1 $166 $167 $65 #
cone-surface $-1 -60.263619882150877 -1.3041275737925986 12.139481004322882 0.61566148304635926 0 -0.78801074757464917 0.39400537378732459 0 0.30783074152317963 1 I I -0.70710678118654879 0.70710678118654635 0.5 forward I I I I #
loop $-1 $-1 $168 $45 #
coedge $-1 $106 $106 $169 $170 reversed $66 $-1 #
face $-1 $171 $172 $36 $-1 $173 reversed single #
loop $-1 $-1 $174 $68 #
plane-surface $-1 -21.041245550186105 -11.788076222491021 117.34300749667509 0.7660444514056185 0 0.64278759981090561 0.64278759981090561 0 -0.7660444514056185 forward_v I I I I #
coedge $-1 $175 $176 $177 $178 reversed $69 $-1 #
face $-1 $-1 $179 $37 $-1 $180 forward single #
loop $-1 $181 $182 $71 #
cone-surface $-1 60.737601827113849 -17.436592745438034 10.175567146962926 -0.7660444514056185 0 -0.64278759981090561 0.48209069985817921 0 -0.57453333855421385 1 I I -0.70710678118654757 0.70710678118654757 0.75 forward I I I I #
loop $-1 $-1 $183 $47 #
coedge $-1 $115 $115 $184 $185 reversed $72 $-1 #
face $-1 $-1 $186 $38 $-1 $187 forward single #
loop $-1 $188 $189 $74 #
cone-surface $-1 60.737601827113849 -11.788076222491021 10.175567146962926 -0.7660444514056185 0 -0.64278759981090561 0.48209069985817921 0 -0.57453333855421385 1 I I -0.70710678118654757 0.70710678118654757 0.75 forward I I I I #
loop $-1 $-1 $190 $48 #
coedge $-1 $120 $120 $191 $192 reversed $75 $-1 #
face $-1 $-1 $193 $39 $-1 $194 forward single #
loop $-1 $195 $196 $77 #
cone-surface $-1 60.737601827113849 -6.1395596995440087 10.175567146962926 -0.7660444514056185 0 -0.64278759981090561 0.48209069985817921 0 -0.57453333855421385 1 I I -0.70710678118654757 0.70710678118654757 0.75 forward I I I I #
loop $-1 $-1 $197 $49 #
coedge $-1 $125 $125 $198 $199 reversed $78 $-1 #
face $-1 $200 $201 $30 $-1 $202 reversed single #
loop $-1 $-1 $203 $80 #
plane-surface $-1 0 -48.369864932353003 0 0 1 0 0 0 1 forward_v I I I I #
coedge $-1 $204 $205 $206 $207 forward $81 $-1 #
coedge $-1 $208 $83 $209 $210 forward $51 $-1 #
coedge $-1 $83 $208 $211 $212 forward $51 $-1 #
coedge $-1 $213 $214 $83 $133 reversed $215 $-1 #
edge $-1 $216 -48.369864932353003 $217 48.369864932353003 $132 $218 forward 7 unknown #
face $-1 $219 $220 $31 $-1 $221 reversed single #
loop $-1 $-1 $222 $84 #
plane-surface $-1 0 0 23.914349372145914 0 0 1 1 0 0 forward_v I I I I #
coedge $-1 $223 $224 $225 $226 reversed $85 $-1 #
coedge $-1 $227 $87 $228 $229 reversed $54 $-1 #
coedge $-1 $87 $227 $230 $231 reversed $54 $-1 #
coedge $-1 $224 $223 $87 $141 reversed $85 $-1 #
edge $-1 $232 -23.914349372145914 $233 23.914349372145914 $140 $234 forward 7 unknown #
face $-1 $235 $236 $32 $-1 $237 reversed single #
loop $-1 $-1 $238 $88 #
plane-surface $-1 -164.40438278079557 2.095604309663905 123.1222192822884 0 -1 0 0.61566148304635926 0 -0.78801074757464917 forward_v I I I I #
coedge $-1 $239 $240 $241 $242 reversed $89 $-1 #
coedge $-1 $147 $91 $243 $244 reversed $57 $-1 #
coedge $-1 $91 $146 $239 $245 reversed $57 $-1 #
coedge $-1 $241 $246 $91 $149 forward $247 $-1 #
edge $-1 $248 8.5219643326872756 $249 30.1705788532648 $148 $250 forward 7 unknown #
loop $-1 $-1 $155 $92 #
plane-surface $-1 -73.680227057710496 -6.4037253989773504 7.0005976718556866 -0.61566148304635926 0 0.78801074757464917 0.78801074757464917 0 0.61566148304635926 forward_v I I I I #
loop $-1 $-1 $251 $59 #
coedge $-1 $153 $153 $154 $252 reversed $93 $-1 #
coedge $-1 $154 $154 $153 $252 forward $95 $-1 #
coedge $-1 $155 $155 $96 $156 forward $150 $-1 #
edge $-1 $253 0 $253 6.2831853071796004 $155 $254 forward 7 unknown #
loop $-1 $-1 $162 $97 #
plane-surface $-1 -73.680227057710496 -6.4037253989773504 7.0005976718556866 -0.61566148304635926 0 0.78801074757464917 0.78801074757464917 0 0.61566148304635926 forward_v I I I I #
loop $-1 $-1 $255 $62 #
coedge $-1 $160 $160 $161 $256 reversed $98 $-1 #
coedge $-1 $161 $161 $160 $256 forward $100 $-1 #
coedge $-1 $162 $162 $101 $163 forward $157 $-1 #
edge $-1 $257 0 $257 6.2831853071796004 $162 $258 forward 7 unknown #
loop $-1 $-1 $169 $102 #
plane-surface $-1 -73.680227057710496 -6.4037253989773504 7.0005976718556866 -0.61566148304635926 0 0.78801074757464917 0.78801074757464917 0 0.61566148304635926 forward_v I I I I #
loop $-1 $-1 $259 $65 #
coedge $-1 $167 $167 $168 $260 reversed $103 $-1 #
coedge $-1 $168 $168 $167 $260 forward $105 $-1 #
coedge $-1 $169 $169 $106 $170 forward $164 $-1 #
edge $-1 $261 0 $261 6.2831853071796004 $169 $262 forward 7 unknown #
face $-1 $263 $264 $36 $-1 $265 forward single #
loop $-1 $-1 $266 $107 #
plane-surface $-1 91.843412681544407 -21.202270427402713 212.06448010457166 0 1 0 0.7660444514056185 0 0.64278759981090561 forward_v I I I I #
coedge $-1 $267 $268 $269 $270 reversed $108 $-1 #
coedge $-1 $176 $110 $271 $272 reversed $69 $-1 #
coedge $-1 $110 $175 $267 $273 reversed $69 $-1 #
coedge $-1 $269 $274 $110 $178 forward $264 $-1 #
edge $-1 $275 -27.758520716938307 $276 -11.432998630222244 $177 $277 forward 7 unknown #
loop $-1 $-1 $184 $111 #
plane-surface $-1 -21.041245550186105 -11.788076222491021 117.34300749667509 0.7660444514056185 0 0.64278759981090561 0.64278759981090561 0 -0.7660444514056185 forward_v I I I I #
loop $-1 $-1 $278 $71 #
coedge $-1 $182 $182 $183 $279 reversed $112 $-1 #
coedge $-1 $183 $183 $182 $279 forward $114 $-1 #
coedge $-1 $184 $184 $115 $185 forward $179 $-1 #
edge $-1 $280 0 $280 6.2831853071796004 $184 $281 forward 7 unknown #
loop $-1 $-1 $191 $116 #
plane-surface $-1 -21.041245550186105 -11.788076222491021 117.34300749667509 0.7660444514056185 0 0.64278759981090561 0.64278759981090561 0 -0.7660444514056185 forward_v I I I I #
loop $-1 $-1 $282 $74 #
coedge $-1 $189 $189 $190 $283 reversed $117 $-1 #
coedge $-1 $190 $190 $189 $283 forward $119 $-1 #
coedge $-1 $191 $191 $120 $192 forward $186 $-1 #
edge $-1 $284 0 $284 6.2831853071796004 $191 $285 forward 7 unknown #
loop $-1 $-1 $198 $121 #
plane-surface $-1 -21.041245550186105 -11.788076222491021 117.34300749667509 0.7660444514056185 0 0.64278759981090561 0.64278759981090561 0 -0.7660444514056185 forward_v I I I I #
loop $-1 $-1 $286 $77 #
coedge $-1 $196 $196 $197 $287 reversed $122 $-1 #
coedge $-1 $197 $197 $196 $287 forward $124 $-1 #
coedge $-1 $198 $198 $125 $199 forward $193 $-1 #
edge $-1 $288 0 $288 6.2831853071796004 $198 $289 forward 7 unknown #
face $-1 $290 $291 $30 $-1 $292 reversed single #
loop $-1 $-1 $293 $126 #
plane-surface $-1 -73.680227057710511 0 0 1 0 0 0 0 -1 forward_v I I I I #
coedge $-1 $294 $211 $295 $296 forward $127 $-1 #
coedge $-1 $297 $129 $294 $298 forward $81 $-1 #
coedge $-1 $129 $297 $299 $300 forward $81 $-1 #
coedge $-1 $214 $213 $129 $207 reversed $215 $-1 #
edge $-1 $301 -48.369864932353003 $302 48.369864932353003 $206 $303 forward 7 unknown #
coedge $-1 $131 $130 $304 $305 forward $51 $-1 #
coedge $-1 $306 $307 $130 $210 reversed $291 $-1 #
edge $-1 $217 -73.680227057710511 $308 73.680227057710511 $209 $309 forward 7 unknown #
coedge $-1 $203 $310 $131 $212 reversed $127 $-1 #
edge $-1 $311 -73.680227057710511 $216 73.680227057710511 $211 $312 forward 7 unknown #
coedge $-1 $206 $132 $310 $313 forward $215 $-1 #
coedge $-1 $132 $206 $306 $314 reversed $215 $-1 #
loop $-1 $-1 $213 $290 #
vertex $-1 $133 $315 #
vertex $-1 $133 $316 #
straight-curve $-1 73.680227057710511 0 23.914349372145914 0 1 0 I I #
face $-1 $317 $318 $31 $-1 $319 reversed single #
loop $-1 $-1 $320 $134 #
plane-surface $-1 -73.680227057710511 0 0 1 0 0 0 0 -1 forward_v I I I I #
coedge $-1 $230 $321 $224 $322 forward $135 $-1 #
coedge $-1 $140 $137 $323 $324 reversed $85 $-1 #
coedge $-1 $137 $140 $222 $322 reversed $85 $-1 #
coedge $-1 $325 $326 $137 $226 forward $327 $-1 #
edge $-1 $328 -23.914349372145914 $329 23.914349372145914 $225 $330 forward 7 unknown #
coedge $-1 $139 $138 $320 $331 reversed $54 $-1 #
coedge $-1 $323 $332 $138 $229 forward $318 $-1 #
edge $-1 $333 -39.996009211632582 $233 -27.372426480523266 $228 $334 forward 7 unknown #
coedge $-1 $335 $222 $139 $231 forward $135 $-1 #
edge $-1 $232 27.372426480523266 $336 39.996009211632582 $230 $337 forward 7 unknown #
vertex $-1 $231 $338 #
vertex $-1 $229 $339 #
straight-curve $-1 -61.056644326601194 -28.259391072998145 0 0 0 -1 I I #
face $-1 $-1 $247 $32 $-1 $340 forward single #
loop $-1 $-1 $341 $142 #
plane-surface $-1 -73.680227057710511 0 0 1 0 0 0 0 -1 forward_v I I I I #
coedge $-1 $342 $343 $344 $345 reversed $143 $-1 #
coedge $-1 $346 $145 $147 $245 forward $89 $-1 #
coedge $-1 $145 $346 $342 $347 forward $89 $-1 #
coedge $-1 $344 $148 $145 $242 forward $247 $-1 #
edge $-1 $249 -11.701192408129931 $348 5.2974670091525802 $241 $349 forward 7 unknown #
coedge $-1 $350 $351 $146 $244 forward $236 $-1 #
edge $-1 $352 -54.560511969288527 $248 -37.646760268998285 $243 $353 forward 7 unknown #
edge $-1 $249 -27.47248636799425 $352 1.830693040787162e-014 $147 $354 forward 7 unknown #
coedge $-1 $148 $344 $350 $355 forward $247 $-1 #
loop $-1 $-1 $344 $235 #
vertex $-1 $244 $356 #
vertex $-1 $149 $357 #
straight-curve $-1 -82.202191390397786 -14.903055107618606 23.914349372145914 1 0 0 I I #
coedge $-1 $251 $251 $-1 $358 reversed $152 $-1 #
edge $-1 $359 0 $359 6.2831853071796004 $153 $360 forward 7 unknown #
vertex $-1 $156 $361 #
ellipse-curve $-1 -62.855919797421755 -11.503323224162102 15.457473522000791 -0.61566148304635926 0 0.78801074757464917 0.78801074757464917 0 0.61566148304635926 1 I I #
coedge $-1 $255 $255 $-1 $362 reversed $159 $-1 #
edge $-1 $363 0 $363 6.2831853071796004 $160 $364 forward 7 unknown #
vertex $-1 $163 $365 #
ellipse-curve $-1 -62.855919797421755 -6.4037253989773504 15.457473522000791 -0.61566148304635926 0 0.78801074757464917 0.78801074757464917 0 0.61566148304635926 1 I I #
coedge $-1 $259 $259 $-1 $366 reversed $166 $-1 #
edge $-1 $367 0 $367 6.2831853071796004 $167 $368 forward 7 unknown #
vertex $-1 $170 $369 #
ellipse-curve $-1 -62.855919797421755 -1.3041275737925986 15.457473522000791 -0.61566148304635926 0 0.78801074757464917 0.78801074757464917 0 0.61566148304635926 1 I I #
face $-1 $-1 $370 $36 $-1 $371 reversed single #
loop $-1 $-1 $177 $171 #
plane-surface $-1 0 0 23.914349372145914 0 0 1 1 0 0 forward_v I I I I #
coedge $-1 $372 $373 $374 $375 reversed $172 $-1 #
coedge $-1 $376 $174 $176 $273 forward $108 $-1 #
coedge $-1 $174 $376 $372 $377 forward $108 $-1 #
coedge $-1 $374 $177 $174 $270 forward $264 $-1 #
edge $-1 $276 -3.5201560936661807 $378 15.308232316157202 $269 $379 forward 7 unknown #
coedge $-1 $380 $381 $175 $272 forward $370 $-1 #
edge $-1 $382 -101.57389078734131 $275 -82.117890680139908 $271 $383 forward 7 unknown #
edge $-1 $276 121.96245002897221 $382 147.36045411542113 $176 $384 forward 7 unknown #
coedge $-1 $177 $374 $380 $385 forward $264 $-1 #
vertex $-1 $178 $386 #
vertex $-1 $178 $387 #
straight-curve $-1 45.921706340772204 -2.37388201757933 23.914349372145921 -1 0 0 I I #
coedge $-1 $278 $278 $-1 $388 reversed $181 $-1 #
edge $-1 $389 0 $389 6.2831853071796004 $182 $390 forward 7 unknown #
vertex $-1 $185 $391 #
ellipse-curve $-1 65.517466014352451 -17.436592745438034 14.18634931854524 0.7660444514056185 0 0.64278759981090561 0.96418139971635841 0 -1.1490666771084277 1 I I #
coedge $-1 $282 $282 $-1 $392 reversed $188 $-1 #
edge $-1 $393 0 $393 6.2831853071796004 $189 $394 forward 7 unknown #
vertex $-1 $192 $395 #
ellipse-curve $-1 65.517466014352451 -11.788076222491021 14.18634931854524 0.7660444514056185 0 0.64278759981090561 0.96418139971635841 0 -1.1490666771084277 1 I I #
coedge $-1 $286 $286 $-1 $396 reversed $195 $-1 #
edge $-1 $397 0 $397 6.2831853071796004 $196 $398 forward 7 unknown #
vertex $-1 $199 $399 #
ellipse-curve $-1 65.517466014352451 -6.1395596995440087 14.18634931854524 0.7660444514056185 0 0.64278759981090561 0.96418139971635841 0 -1.1490666771084277 1 I I #
face $-1 $-1 $215 $30 $-1 $400 reversed single #
loop $-1 $-1 $306 $200 #
plane-surface $-1 0 48.369864932353003 0 0 -1 0 0 0 -1 forward_v I I I I #
coedge $-1 $401 $304 $307 $402 forward $201 $-1 #
coedge $-1 $310 $203 $204 $298 reversed $127 $-1 #
coedge $-1 $304 $401 $203 $296 reversed $201 $-1 #
edge $-1 $311 -23.914349372145914 $403 23.914349372145914 $295 $404 forward 7 unknown #
coedge $-1 $205 $204 $401 $405 forward $81 $-1 #
edge $-1 $302 -73.680227057710511 $403 73.680227057710511 $294 $406 forward 7 unknown #
coedge $-1 $307 $306 $205 $300 reversed $291 $-1 #
edge $-1 $407 -73.680227057710511 $301 73.680227057710511 $299 $408 forward 7 unknown #
vertex $-1 $207 $409 #
vertex $-1 $313 $410 #
straight-curve $-1 73.680227057710511 0 -23.914349372145914 0 -1 0 I I #
coedge $-1 $293 $295 $208 $305 reversed $201 $-1 #
edge $-1 $308 -48.369864932353003 $311 48.369864932353003 $304 $411 forward 7 unknown #
coedge $-1 $299 $209 $214 $314 forward $291 $-1 #
coedge $-1 $209 $299 $293 $402 reversed $291 $-1 #
vertex $-1 $210 $412 #
straight-curve $-1 0 48.369864932353003 23.914349372145914 -1 0 0 I I #
coedge $-1 $211 $294 $213 $313 reversed $127 $-1 #
vertex $-1 $305 $413 #
straight-curve $-1 0 -48.369864932353003 23.914349372145914 1 0 0 I I #
edge $-1 $216 -23.914349372145914 $302 23.914349372145914 $213 $414 forward 7 unknown #
edge $-1 $217 -23.914349372145914 $301 23.914349372145914 $214 $415 forward 7 unknown #
point $-1 73.680227057710511 -48.369864932353003 23.914349372145914 #
point $-1 73.680227057710511 48.369864932353003 23.914349372145914 #
face $-1 $-1 $327 $31 $-1 $416 reversed single #
loop $-1 $-1 $323 $219 #
plane-surface $-1 0 0 -23.914349372145914 0 0 1 1 0 0 forward_v I I I I #
coedge $-1 $417 $418 $227 $331 forward $220 $-1 #
coedge $-1 $222 $335 $325 $419 forward $135 $-1 #
edge $-1 $329 -29.212550931015222 $232 -9.1020770716603572 $222 $420 forward 7 unknown #
coedge $-1 $421 $228 $223 $324 forward $318 $-1 #
edge $-1 $233 9.1020770716603572 $328 29.212550931015222 $323 $422 forward 7 unknown #
coedge $-1 $423 $225 $321 $419 reversed $327 $-1 #
coedge $-1 $225 $423 $421 $424 reversed $327 $-1 #
loop $-1 $-1 $225 $317 #
vertex $-1 $424 $425 #
vertex $-1 $226 $426 #
straight-curve $-1 -61.056644326601194 -48.369864932353003 0 0 0 1 I I #
edge $-1 $336 -23.914349372145914 $333 23.914349372145914 $320 $427 forward 7 unknown #
coedge $-1 $228 $421 $417 $428 forward $318 $-1 #
vertex $-1 $229 $429 #
straight-curve $-1 -33.684217846077928 -28.259391072998145 -23.914349372145914 1 0 0 I I #
coedge $-1 $321 $230 $418 $430 forward $135 $-1 #
vertex $-1 $430 $431 #
straight-curve $-1 -33.684217846077928 -28.259391072998145 23.914349372145914 -1 0 0 I I #
point $-1 -61.056644326601194 -28.259391072998145 23.914349372145914 #
point $-1 -61.056644326601194 -28.259391072998145 -23.914349372145914 #
plane-surface $-1 0 0 23.914349372145914 0 0 1 1 0 0 forward_v I I I I #
coedge $-1 $351 $350 $343 $432 forward $236 $-1 #
coedge $-1 $343 $238 $240 $347 reversed $143 $-1 #
coedge $-1 $238 $342 $341 $432 reversed $143 $-1 #
coedge $-1 $246 $241 $238 $345 forward $247 $-1 #
edge $-1 $348 -30.1705788532648 $433 -8.5219643326872756 $344 $434 forward 7 unknown #
coedge $-1 $240 $239 $351 $435 reversed $89 $-1 #
edge $-1 $436 -1.830693040787162e-014 $348 27.47248636799425 $342 $437 forward 7 unknown #
vertex $-1 $242 $438 #
straight-curve $-1 -52.031612537132993 -3.2018626994886752 23.914349372145914 0 1 0 I I #
coedge $-1 $341 $243 $246 $355 reversed $236 $-1 #
coedge $-1 $243 $341 $346 $435 forward $236 $-1 #
vertex $-1 $244 $439 #
straight-curve $-1 -73.680227057710511 -14.903055107618606 61.561109641144199 0 0 1 I I #
straight-curve $-1 -73.680227057710496 -14.903055107618606 7.0005976718556866 -0.78801074757464917 0 -0.61566148304635926 I I #
edge $-1 $433 -2.095604309663905 $248 14.903055107618606 $350 $440 forward 7 unknown #
point $-1 -73.680227057710511 -14.903055107618606 23.914349372145914 #
point $-1 -52.031612537132986 -14.903055107618606 23.914349372145914 #
edge $-1 $441 1 $441 0 $251 $-1 forward 7 unknown #
vertex $-1 $252 $442 #
ellipse-curve $-1 -60.571450623674053 -11.503323224162102 12.533486378110204 -0.61566148304635926 0 0.78801074757464917 0.78801074757464917 0 0.61566148304635926 1 I I #
point $-1 -62.067909049847131 -11.503323224162102 16.073135005047178 #
edge $-1 $443 1 $443 0 $255 $-1 forward 7 unknown #
vertex $-1 $256 $444 #
ellipse-curve $-1 -60.571450623674053 -6.4037253989773504 12.533486378110204 -0.61566148304635926 0 0.78801074757464917 0.78801074757464917 0 0.61566148304635926 1 I I #
point $-1 -62.067909049847131 -6.4037253989773504 16.073135005047178 #
edge $-1 $445 1 $445 0 $259 $-1 forward 7 unknown #
vertex $-1 $260 $446 #
ellipse-curve $-1 -60.571450623674053 -1.3041275737925986 12.533486378110204 -0.61566148304635926 0 0.78801074757464917 0.78801074757464917 0 0.61566148304635926 1 I I #
point $-1 -62.067909049847131 -1.3041275737925986 16.073135005047178 #
loop $-1 $-1 $271 $263 #
plane-surface $-1 73.680227057710511 0 0 -1 0 0 0 0 1 forward_v I I I I #
coedge $-1 $373 $266 $268 $377 reversed $172 $-1 #
coedge $-1 $266 $372 $447 $448 reversed $172 $-1 #
coedge $-1 $274 $269 $266 $375 forward $264 $-1 #
edge $-1 $378 11.432998630222244 $449 27.758520716938307 $374 $450 forward 7 unknown #
coedge $-1 $268 $267 $381 $451 reversed $108 $-1 #
edge $-1 $452 -147.36045411542113 $378 -121.96245002897221 $372 $453 forward 7 unknown #
vertex $-1 $270 $454 #
straight-curve $-1 57.354704970994447 -5.8940381112455107 23.914349372145907 0 -1 0 I I #
coedge $-1 $447 $271 $274 $385 reversed $370 $-1 #
coedge $-1 $271 $447 $376 $451 forward $370 $-1 #
vertex $-1 $272 $455 #
straight-curve $-1 73.680227057710511 -2.37388201757933 106.03224005228583 0 0 1 I I #
straight-curve $-1 -21.041245550186105 -2.37388201757933 117.34300749667509 0.64278759981090561 0 -0.7660444514056185 I I #
edge $-1 $449 -21.202270427402713 $275 -2.37388201757933 $380 $456 forward 7 unknown #
point $-1 73.680227057710511 -2.37388201757933 23.914349372145914 #
point $-1 57.354704970994447 -2.37388201757933 23.914349372145921 #
edge $-1 $457 1 $457 0 $278 $-1 forward 7 unknown #
vertex $-1 $279 $458 #
ellipse-curve $-1 61.31213516566806 -17.436592745438034 10.657657846821106 0.7660444514056185 0 0.64278759981090561 0.96418139971635841 0 -1.1490666771084277 1 I I #
point $-1 66.481647414068846 -17.436592745438034 13.037282641436843 #
edge $-1 $459 1 $459 0 $282 $-1 forward 7 unknown #
vertex $-1 $283 $460 #
ellipse-curve $-1 61.31213516566806 -11.788076222491021 10.657657846821106 0.7660444514056185 0 0.64278759981090561 0.96418139971635841 0 -1.1490666771084277 1 I I #
point $-1 66.481647414068846 -11.788076222491021 13.037282641436843 #
edge $-1 $461 1 $461 0 $286 $-1 forward 7 unknown #
vertex $-1 $287 $462 #
ellipse-curve $-1 61.31213516566806 -6.1395596995440087 10.657657846821106 0.7660444514056185 0 0.64278759981090561 0.96418139971635841 0 -1.1490666771084277 1 I I #
point $-1 66.481647414068846 -6.1395596995440087 13.037282641436843 #
plane-surface $-1 73.680227057710511 0 0 -1 0 0 0 0 1 forward_v I I I I #
coedge $-1 $295 $293 $297 $405 reversed $201 $-1 #
edge $-1 $308 -23.914349372145914 $407 23.914349372145914 $307 $463 forward 7 unknown #
vertex $-1 $405 $464 #
straight-curve $-1 -73.680227057710511 -48.369864932353003 0 0 0 -1 I I #
edge $-1 $403 -48.369864932353003 $407 48.369864932353003 $401 $465 forward 7 unknown #
straight-curve $-1 0 -48.369864932353003 -23.914349372145914 -1 0 0 I I #
vertex $-1 $300 $466 #
straight-curve $-1 0 48.369864932353003 -23.914349372145914 1 0 0 I I #
point $-1 73.680227057710511 48.369864932353003 -23.914349372145914 #
point $-1 73.680227057710511 -48.369864932353003 -23.914349372145914 #
straight-curve $-1 -73.680227057710511 0 23.914349372145914 0 -1 0 I I #
point $-1 -73.680227057710511 48.369864932353003 23.914349372145914 #
point $-1 -73.680227057710511 -48.369864932353003 23.914349372145914 #
straight-curve $-1 73.680227057710511 -48.369864932353003 0 0 0 -1 I I #
straight-curve $-1 73.680227057710511 48.369864932353003 0 0 0 -1 I I #
plane-surface $-1 0 -48.369864932353003 0 0 1 0 0 0 1 forward_v I I I I #
coedge $-1 $467 $320 $332 $428 reversed $220 $-1 #
coedge $-1 $320 $467 $335 $430 reversed $220 $-1 #
edge $-1 $468 -73.680227057710511 $329 -61.056644326601194 $325 $469 forward 7 unknown #
straight-curve $-1 -61.056644326601194 -19.157314001337788 23.914349372145914 0 1 0 I I #
coedge $-1 $332 $323 $326 $424 forward $318 $-1 #
straight-curve $-1 -61.056644326601194 -19.157314001337788 -23.914349372145914 0 -1 0 I I #
coedge $-1 $326 $325 $467 $470 forward $327 $-1 #
edge $-1 $328 61.056644326601194 $471 73.680227057710511 $326 $472 forward 7 unknown #
point $-1 -61.056644326601194 -48.369864932353011 -23.914349372145914 #
point $-1 -61.056644326601194 -48.369864932353011 23.914349372145914 #
straight-curve $-1 -73.680227057710511 -28.259391072998145 0 0 0 -1 I I #
edge $-1 $471 -48.369864932353003 $333 -28.259391072998145 $417 $473 forward 7 unknown #
point $-1 -73.680227057710511 -28.259391072998145 -23.914349372145914 #
edge $-1 $336 28.259391072998145 $468 48.369864932353003 $418 $474 forward 7 unknown #
point $-1 -73.680227057710511 -28.259391072998145 23.914349372145914 #
edge $-1 $433 37.646760268998285 $436 54.560511969288527 $341 $475 forward 7 unknown #
vertex $-1 $355 $476 #
straight-curve $-1 -82.202191390397786 2.095604309663905 23.914349372145914 -1 0 0 I I #
edge $-1 $436 -5.2974670091525802 $352 11.701192408129931 $351 $477 forward 7 unknown #
vertex $-1 $435 $478 #
straight-curve $-1 -73.680227057710496 2.095604309663905 7.0005976718556866 0.78801074757464917 0 0.61566148304635926 I I #
point $-1 -52.031612537132986 2.095604309663905 23.914349372145914 #
point $-1 -73.680227057710511 -14.903055107618606 7.0005976718556751 #
straight-curve $-1 -73.680227057710511 0 23.914349372145914 0 -1 0 I I #
vertex $-1 $358 $479 #
point $-1 -59.783439876099408 -11.503323224162102 13.149147861156564 #
vertex $-1 $362 $480 #
point $-1 -59.783439876099408 -6.4037253989773504 13.149147861156564 #
vertex $-1 $366 $481 #
point $-1 -59.783439876099408 -1.3041275737925986 13.149147861156564 #
coedge $-1 $381 $380 $373 $448 forward $370 $-1 #
edge $-1 $449 82.117890680139908 $452 101.57389078734131 $447 $482 forward 7 unknown #
vertex $-1 $385 $483 #
straight-curve $-1 45.921706340772204 -21.202270427402713 23.914349372145921 1 0 0 I I #
edge $-1 $452 -15.308232316157202 $382 3.5201560936661807 $381 $484 forward 7 unknown #
vertex $-1 $451 $485 #
straight-curve $-1 -21.041245550186105 -21.202270427402713 117.34300749667509 -0.64278759981090561 0 0.7660444514056185 I I #
point $-1 57.354704970994447 -21.202270427402713 23.914349372145921 #
point $-1 73.680227057710511 -2.37388201757933 4.4583492649445162 #
straight-curve $-1 73.680227057710511 0 23.914349372145914 0 1 0 I I #
vertex $-1 $388 $486 #
point $-1 62.27631656538442 -17.436592745438034 9.5085911697126786 #
vertex $-1 $392 $487 #
point $-1 62.27631656538442 -11.788076222491021 9.5085911697126786 #
vertex $-1 $396 $488 #
point $-1 62.27631656538442 -6.1395596995440087 9.5085911697126786 #
straight-curve $-1 -73.680227057710511 48.369864932353003 0 0 0 -1 I I #
point $-1 -73.680227057710511 -48.369864932353003 -23.914349372145914 #
straight-curve $-1 -73.680227057710511 0 -23.914349372145914 0 1 0 I I #
point $-1 -73.680227057710511 48.369864932353003 -23.914349372145914 #
coedge $-1 $418 $417 $423 $470 reversed $220 $-1 #
vertex $-1 $430 $489 #
straight-curve $-1 0 -48.369864932353003 23.914349372145914 1 0 0 I I #
edge $-1 $468 -23.914349372145914 $471 23.914349372145914 $467 $490 forward 7 unknown #
vertex $-1 $428 $491 #
straight-curve $-1 0 -48.369864932353003 -23.914349372145914 -1 0 0 I I #
straight-curve $-1 -73.680227057710511 0 -23.914349372145914 0 1 0 I I #
straight-curve $-1 -73.680227057710511 0 23.914349372145914 0 -1 0 I I #
straight-curve $-1 -73.680227057710511 2.095604309663905 61.561109641144199 0 0 -1 I I #
point $-1 -73.680227057710511 2.095604309663905 23.914349372145914 #
straight-curve $-1 -73.680227057710511 -3.2018626994886752 7.0005976718556777 0 -1 0 I I #
point $-1 -73.680227057710511 2.095604309663905 7.0005976718556751 #
point $-1 -59.955789140627701 -11.503323224162102 11.745475630535559 #
point $-1 -59.955789140627701 -6.4037253989773504 11.745475630535559 #
point $-1 -59.955789140627701 -1.3041275737925986 11.745475630535559 #
straight-curve $-1 73.680227057710511 -21.202270427402713 106.03224005228583 0 0 -1 I I #
point $-1 73.680227057710511 -21.202270427402713 23.914349372145914 #
straight-curve $-1 73.680227057710525 -5.8940381112455107 4.458349264944502 0 1 0 I I #
point $-1 73.680227057710511 -21.202270427402713 4.4583492649445162 #
point $-1 60.163068488559638 -17.436592745438034 9.6934764471047465 #
point $-1 60.163068488559638 -11.788076222491021 9.6934764471047465 #
point $-1 60.163068488559638 -6.1395596995440087 9.6934764471047465 #
point $-1 -73.680227057710511 -48.369864932353003 23.914349372145914 #
straight-curve $-1 -73.680227057710511 -48.369864932353003 0 0 0 -1 I I #
point $-1 -73.680227057710511 -48.369864932353003 -23.914349372145914 #
End-of-ACIS-data 