500 0 9 0           
7 Unknown 11 ACIS 5.0 NT 24 Fri Mar 26 20:16:41 1999 
-1 9.9999999999999995e-007 1e-010 
body $-1 $9 $-1 $10 #
body $-1 $11 $-1 $12 #
body $-1 $13 $-1 $14 #
body $-1 $15 $-1 $16 #
body $-1 $17 $-1 $18 #
body $-1 $19 $-1 $20 #
body $-1 $21 $-1 $22 #
body $-1 $23 $-1 $24 #
body $-1 $25 $-1 $26 #
lump $-1 $-1 $27 $0 #
transform $-1 1 0 0 0 1 0 0 0 1 57.897274697103796 32.13054024703343 14.091370238959744 1 rotate no_reflect no_shear #
lump $-1 $-1 $28 $1 #
transform $-1 1 0 0 0 1 0 0 0 1 57.897274697103796 32.13054024703343 14.091370238959744 1 rotate no_reflect no_shear #
lump $-1 $-1 $29 $2 #
transform $-1 1 0 0 0 1 0 0 0 1 57.897274697103796 32.13054024703343 14.091370238959744 1 rotate no_reflect no_shear #
lump $-1 $-1 $30 $3 #
transform $-1 1 0 0 0 1 0 0 0 1 57.897274697103796 32.13054024703343 14.091370238959744 1 rotate no_reflect no_shear #
lump $-1 $-1 $31 $4 #
transform $-1 1 0 0 0 1 0 0 0 1 57.897274697103796 32.13054024703343 14.091370238959744 1 rotate no_reflect no_shear #
lump $-1 $-1 $32 $5 #
transform $-1 1 0 0 0 1 0 0 0 1 57.897274697103796 32.13054024703343 14.091370238959744 1 rotate no_reflect no_shear #
lump $-1 $-1 $33 $6 #
transform $-1 1 0 0 0 1 0 0 0 1 57.897274697103796 32.13054024703343 14.091370238959744 1 rotate no_reflect no_shear #
lump $-1 $-1 $34 $7 #
transform $-1 1 0 0 0 1 0 0 0 1 57.897274697103796 32.13054024703343 14.091370238959744 1 rotate no_reflect no_shear #
lump $-1 $-1 $35 $8 #
transform $-1 1 0 0 0 1 0 0 0 1 57.897274697103796 32.13054024703343 14.091370238959744 1 rotate no_reflect no_shear #
shell $-1 $-1 $-1 $36 $-1 $9 #
shell $-1 $-1 $-1 $37 $-1 $11 #
shell $-1 $-1 $-1 $38 $-1 $13 #
shell $-1 $-1 $-1 $39 $-1 $15 #
shell $-1 $-1 $-1 $40 $-1 $17 #
shell $-1 $-1 $-1 $41 $-1 $19 #
shell $-1 $-1 $-1 $42 $-1 $21 #
shell $-1 $-1 $-1 $43 $-1 $23 #
shell $-1 $-1 $-1 $44 $-1 $25 #
face $-1 $45 $46 $27 $-1 $47 forward single #
face $-1 $48 $49 $28 $-1 $50 forward single #
face $-1 $51 $52 $29 $-1 $53 forward single #
face $-1 $54 $55 $30 $-1 $56 reversed single #
face $-1 $57 $58 $31 $-1 $59 forward single #
face $-1 $60 $61 $32 $-1 $62 forward single #
face $-1 $63 $64 $33 $-1 $65 reversed single #
face $-1 $66 $67 $34 $-1 $68 forward single #
face $-1 $69 $70 $35 $-1 $71 forward single #
face $-1 $72 $73 $27 $-1 $74 reversed single #
loop $-1 $-1 $75 $36 #
plane-surface $-1 0 0 14.091370238959744 0 0 1 1 0 0 forward_v I I I I #
face $-1 $76 $77 $28 $-1 $78 reversed single #
loop $-1 $-1 $79 $37 #
plane-surface $-1 0 -23.059997429209798 13.591370238959742 0 0 1 1 0 0 forward_v I I I I #
face $-1 $80 $81 $29 $-1 $82 reversed single #
loop $-1 $-1 $83 $38 #
plane-surface $-1 0 23.059997429209794 13.591370238959742 0 0 1 1 0 0 forward_v I I I I #
face $-1 $84 $85 $30 $-1 $86 reversed single #
loop $-1 $-1 $87 $39 #
plane-surface $-1 -25.398352431887147 -10.908005184793112 86.580608343475632 0.69465837861970381 0 0.71933979245794832 0.71933979245794832 0 -0.69465837861970381 forward_v I I I I #
face $-1 $88 $89 $31 $-1 $90 forward single #
loop $-1 $91 $92 $40 #
cone-surface $-1 53.158864733758939 -12.228626367618705 9.4720297620259419 -0.69465837861970381 0 -0.71933979245794832 0.35966989622897416 0 -0.3473291893098519 1 I I 0 1 0.5 forward I I I I #
face $-1 $93 $94 $32 $-1 $95 forward single #
loop $-1 $96 $97 $41 #
cone-surface $-1 53.158864733758939 -9.5873840019675178 9.4720297620259419 -0.69465837861970381 0 -0.71933979245794832 0.35966989622897416 0 -0.3473291893098519 1 I I 0 1 0.5 forward I I I I #
face $-1 $98 $99 $33 $-1 $100 reversed single #
loop $-1 $-1 $101 $42 #
plane-surface $-1 55.039301503292307 7.8265557582000671 169.87623547246656 0 1 0 0.69465837861970381 0 0.71933979245794832 forward_v I I I I #
face $-1 $102 $103 $34 $-1 $104 forward single #
loop $-1 $105 $106 $43 #
cone-surface $-1 53.158864733758939 9.5873840019675214 9.4720297620259419 -0.69465837861970381 0 -0.71933979245794832 0.35966989622897416 0 -0.3473291893098519 1 I I 0 1 0.5 forward I I I I #
face $-1 $107 $108 $35 $-1 $109 forward single #
loop $-1 $110 $111 $44 #
cone-surface $-1 53.158864733758939 12.228626367618709 9.4720297620259419 -0.69465837861970381 0 -0.71933979245794832 0.35966989622897416 0 -0.3473291893098519 1 I I 0 1 0.5 forward I I I I #
face $-1 $112 $113 $27 $-1 $114 reversed single #
loop $-1 $-1 $115 $45 #
plane-surface $-1 0 0 -14.091370238959744 0 0 1 1 0 0 forward_v I I I I #
coedge $-1 $116 $117 $118 $119 forward $46 $-1 #
face $-1 $120 $121 $28 $-1 $122 reversed single #
loop $-1 $-1 $123 $48 #
plane-surface $-1 0 -23.059997429209798 7.2150542340445494 0 0 1 1 0 0 forward_v I I I I #
coedge $-1 $124 $125 $126 $127 reversed $49 $-1 #
face $-1 $128 $129 $29 $-1 $130 reversed single #
loop $-1 $-1 $131 $51 #
plane-surface $-1 0 23.059997429209794 7.2150542340445494 0 0 1 1 0 0 forward_v I I I I #
coedge $-1 $132 $133 $134 $135 reversed $52 $-1 #
face $-1 $136 $137 $30 $-1 $138 forward single #
loop $-1 $-1 $139 $54 #
plane-surface $-1 55.039301503292307 -7.82655575820006 169.87623547246656 0 -1 0 -0.69465837861970381 0 -0.71933979245794832 forward_v I I I I #
coedge $-1 $140 $141 $142 $143 reversed $55 $-1 #
face $-1 $-1 $144 $31 $-1 $145 forward single #
loop $-1 $146 $147 $57 #
cone-surface $-1 52.36220285195833 -12.228626367618705 8.6470622523094285 -0.69465837861970381 0 -0.71933979245794832 0.17983494811448708 0 -0.17366459465492595 1 I I -0.70710678118654746 0.70710678118654746 0.25 forward I I I I #
loop $-1 $-1 $148 $40 #
coedge $-1 $92 $92 $149 $150 reversed $58 $-1 #
face $-1 $-1 $151 $32 $-1 $152 forward single #
loop $-1 $153 $154 $60 #
cone-surface $-1 52.36220285195833 -9.5873840019675178 8.6470622523094285 -0.69465837861970381 0 -0.71933979245794832 0.17983494811448708 0 -0.17366459465492595 1 I I -0.70710678118654746 0.70710678118654746 0.25 forward I I I I #
loop $-1 $-1 $155 $41 #
coedge $-1 $97 $97 $156 $157 reversed $61 $-1 #
face $-1 $158 $159 $33 $-1 $160 forward single #
loop $-1 $-1 $161 $63 #
plane-surface $-1 -25.398352431887147 10.908005184793119 86.580608343475632 0.69465837861970381 0 0.71933979245794832 0.71933979245794832 0 -0.69465837861970381 forward_v I I I I #
coedge $-1 $162 $163 $164 $165 reversed $64 $-1 #
face $-1 $-1 $166 $34 $-1 $167 forward single #
loop $-1 $168 $169 $66 #
cone-surface $-1 52.36220285195833 9.5873840019675214 8.6470622523094285 -0.69465837861970381 0 -0.71933979245794832 0.17983494811448708 0 -0.17366459465492595 1 I I -0.70710678118654746 0.70710678118654746 0.25 forward I I I I #
loop $-1 $-1 $170 $43 #
coedge $-1 $106 $106 $171 $172 reversed $67 $-1 #
face $-1 $-1 $173 $35 $-1 $174 forward single #
loop $-1 $175 $176 $69 #
cone-surface $-1 52.36220285195833 12.228626367618709 8.6470622523094285 -0.69465837861970381 0 -0.71933979245794832 0.17983494811448708 0 -0.17366459465492595 1 I I -0.70710678118654746 0.70710678118654746 0.25 forward I I I I #
loop $-1 $-1 $177 $44 #
coedge $-1 $111 $111 $178 $179 reversed $70 $-1 #
face $-1 $180 $181 $27 $-1 $182 reversed single #
loop $-1 $-1 $183 $72 #
plane-surface $-1 0 -32.13054024703343 0 0 1 0 0 0 1 forward_v I I I I #
coedge $-1 $184 $185 $186 $187 forward $73 $-1 #
coedge $-1 $188 $75 $189 $190 forward $46 $-1 #
coedge $-1 $75 $188 $191 $192 forward $46 $-1 #
coedge $-1 $193 $194 $75 $119 reversed $195 $-1 #
edge $-1 $196 -32.13054024703343 $197 32.13054024703343 $118 $198 forward 7 unknown #
face $-1 $199 $200 $28 $-1 $201 reversed single #
loop $-1 $-1 $202 $76 #
plane-surface $-1 0 -13.989454611386165 10.403212236502146 0 -1 0 0 0 -1 forward_v I I I I #
coedge $-1 $203 $204 $205 $206 reversed $77 $-1 #
coedge $-1 $207 $79 $208 $209 forward $49 $-1 #
coedge $-1 $79 $207 $210 $211 reversed $49 $-1 #
coedge $-1 $212 $213 $79 $127 forward $214 $-1 #
edge $-1 $215 2.4594558967812663 $216 20.600541532428529 $126 $217 forward 7 unknown #
face $-1 $218 $219 $29 $-1 $220 reversed single #
loop $-1 $-1 $221 $80 #
plane-surface $-1 0 13.989454611386162 10.403212236502146 0 1 0 0 0 1 forward_v I I I I #
coedge $-1 $222 $223 $224 $225 reversed $81 $-1 #
coedge $-1 $226 $83 $227 $228 reversed $52 $-1 #
coedge $-1 $83 $226 $229 $230 forward $52 $-1 #
coedge $-1 $231 $232 $83 $135 forward $219 $-1 #
edge $-1 $233 -20.600541532428526 $234 -2.4594558967812645 $134 $235 forward 7 unknown #
face $-1 $236 $237 $30 $-1 $238 reversed single #
loop $-1 $-1 $239 $84 #
plane-surface $-1 0 -13.989454611386165 10.403212236502146 0 -1 0 0 0 -1 forward_v I I I I #
coedge $-1 $240 $241 $242 $243 reversed $85 $-1 #
coedge $-1 $244 $87 $239 $245 forward $55 $-1 #
coedge $-1 $87 $244 $240 $246 forward $55 $-1 #
coedge $-1 $242 $247 $87 $143 forward $237 $-1 #
edge $-1 $248 -8.5354520189896075 $249 -2.3725531658035042 $142 $250 forward 7 unknown #
loop $-1 $-1 $149 $88 #
plane-surface $-1 -25.398352431887147 -10.908005184793112 86.580608343475632 0.69465837861970381 0 0.71933979245794832 0.71933979245794832 0 -0.69465837861970381 forward_v I I I I #
loop $-1 $-1 $251 $57 #
coedge $-1 $147 $147 $148 $252 reversed $89 $-1 #
coedge $-1 $148 $148 $147 $252 forward $91 $-1 #
coedge $-1 $149 $149 $92 $150 forward $144 $-1 #
edge $-1 $253 0 $253 6.2831853071796004 $149 $254 forward 7 unknown #
loop $-1 $-1 $156 $93 #
plane-surface $-1 -25.398352431887147 -10.908005184793112 86.580608343475632 0.69465837861970381 0 0.71933979245794832 0.71933979245794832 0 -0.69465837861970381 forward_v I I I I #
loop $-1 $-1 $255 $60 #
coedge $-1 $154 $154 $155 $256 reversed $94 $-1 #
coedge $-1 $155 $155 $154 $256 forward $96 $-1 #
coedge $-1 $156 $156 $97 $157 forward $151 $-1 #
edge $-1 $257 0 $257 6.2831853071796004 $156 $258 forward 7 unknown #
face $-1 $259 $260 $33 $-1 $261 forward single #
loop $-1 $-1 $262 $98 #
plane-surface $-1 0 13.989454611386162 10.403212236502146 0 1 0 0 0 1 forward_v I I I I #
coedge $-1 $263 $264 $265 $266 reversed $99 $-1 #
coedge $-1 $163 $101 $267 $268 reversed $64 $-1 #
coedge $-1 $101 $162 $263 $269 reversed $64 $-1 #
coedge $-1 $265 $270 $101 $165 forward $271 $-1 #
edge $-1 $272 70.84674749727354 $273 78.795163327937118 $164 $274 forward 7 unknown #
loop $-1 $-1 $171 $102 #
plane-surface $-1 -25.398352431887147 10.908005184793119 86.580608343475632 0.69465837861970381 0 0.71933979245794832 0.71933979245794832 0 -0.69465837861970381 forward_v I I I I #
loop $-1 $-1 $275 $66 #
coedge $-1 $169 $169 $170 $276 reversed $103 $-1 #
coedge $-1 $170 $170 $169 $276 forward $105 $-1 #
coedge $-1 $171 $171 $106 $172 forward $166 $-1 #
edge $-1 $277 0 $277 6.2831853071796004 $171 $278 forward 7 unknown #
loop $-1 $-1 $178 $107 #
plane-surface $-1 -25.398352431887147 10.908005184793119 86.580608343475632 0.69465837861970381 0 0.71933979245794832 0.71933979245794832 0 -0.69465837861970381 forward_v I I I I #
loop $-1 $-1 $279 $69 #
coedge $-1 $176 $176 $177 $280 reversed $108 $-1 #
coedge $-1 $177 $177 $176 $280 forward $110 $-1 #
coedge $-1 $178 $178 $111 $179 forward $173 $-1 #
edge $-1 $281 0 $281 6.2831853071796004 $178 $282 forward 7 unknown #
face $-1 $283 $284 $27 $-1 $285 reversed single #
loop $-1 $-1 $286 $112 #
plane-surface $-1 -57.897274697103796 0 0 1 0 0 0 0 -1 forward_v I I I I #
coedge $-1 $287 $191 $288 $289 forward $113 $-1 #
coedge $-1 $290 $115 $287 $291 forward $73 $-1 #
coedge $-1 $115 $290 $292 $293 forward $73 $-1 #
coedge $-1 $194 $193 $115 $187 reversed $195 $-1 #
edge $-1 $294 -32.13054024703343 $295 32.13054024703343 $186 $296 forward 7 unknown #
coedge $-1 $117 $116 $297 $298 forward $46 $-1 #
coedge $-1 $299 $300 $116 $190 reversed $284 $-1 #
edge $-1 $197 -57.897274697103796 $301 57.897274697103796 $189 $302 forward 7 unknown #
coedge $-1 $183 $303 $117 $192 reversed $113 $-1 #
edge $-1 $304 -57.897274697103796 $196 57.897274697103796 $191 $305 forward 7 unknown #
coedge $-1 $186 $118 $303 $306 forward $195 $-1 #
coedge $-1 $118 $186 $299 $307 reversed $195 $-1 #
loop $-1 $-1 $193 $283 #
vertex $-1 $119 $308 #
vertex $-1 $119 $309 #
straight-curve $-1 57.897274697103796 0 14.091370238959744 0 1 0 I I #
face $-1 $310 $311 $28 $-1 $312 reversed single #
loop $-1 $-1 $313 $120 #
plane-surface $-1 -57.897274697103796 0 0 1 0 0 0 0 -1 forward_v I I I I #
coedge $-1 $314 $208 $213 $315 reversed $121 $-1 #
coedge $-1 $316 $123 $317 $318 reversed $77 $-1 #
coedge $-1 $123 $316 $314 $319 forward $77 $-1 #
coedge $-1 $213 $212 $123 $206 forward $214 $-1 #
edge $-1 $320 -20.600541532428529 $321 -2.4594558967812663 $205 $322 forward 7 unknown #
coedge $-1 $125 $124 $313 $323 reversed $49 $-1 #
coedge $-1 $202 $324 $124 $209 reversed $121 $-1 #
edge $-1 $215 -57.897274697103796 $325 57.897274697103796 $208 $326 forward 7 unknown #
coedge $-1 $327 $328 $125 $211 forward $311 $-1 #
edge $-1 $216 -57.897274697103796 $329 57.897274697103796 $210 $330 forward 7 unknown #
coedge $-1 $205 $126 $328 $331 forward $214 $-1 #
coedge $-1 $126 $205 $202 $315 forward $214 $-1 #
loop $-1 $-1 $126 $310 #
vertex $-1 $127 $332 #
vertex $-1 $331 $333 #
straight-curve $-1 57.897274697103796 -11.529998714604899 13.591370238959742 0 -1 0 I I #
face $-1 $334 $335 $29 $-1 $336 reversed single #
loop $-1 $-1 $134 $128 #
plane-surface $-1 57.897274697103796 0 0 -1 0 0 0 0 1 forward_v I I I I #
coedge $-1 $337 $229 $338 $339 reversed $129 $-1 #
coedge $-1 $340 $131 $337 $341 forward $81 $-1 #
coedge $-1 $131 $340 $342 $343 reversed $81 $-1 #
coedge $-1 $232 $231 $131 $225 forward $219 $-1 #
edge $-1 $344 2.4594558967812645 $345 20.600541532428526 $224 $346 forward 7 unknown #
coedge $-1 $133 $132 $347 $348 reversed $52 $-1 #
coedge $-1 $349 $350 $132 $228 forward $351 $-1 #
edge $-1 $352 -57.897274697103796 $233 57.897274697103796 $227 $353 forward 7 unknown #
coedge $-1 $221 $354 $133 $230 reversed $129 $-1 #
edge $-1 $355 -57.897274697103796 $234 57.897274697103796 $229 $356 forward 7 unknown #
coedge $-1 $224 $134 $354 $357 forward $219 $-1 #
coedge $-1 $134 $224 $349 $358 reversed $219 $-1 #
vertex $-1 $358 $359 #
vertex $-1 $135 $360 #
straight-curve $-1 57.897274697103796 11.529998714604897 13.591370238959742 0 -1 0 I I #
face $-1 $-1 $361 $30 $-1 $362 forward single #
loop $-1 $-1 $247 $136 #
plane-surface $-1 57.897274697103796 0 0 -1 0 0 0 0 1 forward_v I I I I #
coedge $-1 $363 $364 $140 $245 reversed $137 $-1 #
coedge $-1 $241 $139 $141 $246 reversed $85 $-1 #
coedge $-1 $139 $240 $365 $366 reversed $85 $-1 #
coedge $-1 $367 $142 $139 $243 forward $237 $-1 #
edge $-1 $249 -78.795163327937118 $368 -70.84674749727354 $242 $369 forward 7 unknown #
coedge $-1 $141 $140 $370 $371 reversed $55 $-1 #
edge $-1 $248 -115.79454939420761 $372 -104.35235553993179 $239 $373 forward 7 unknown #
edge $-1 $374 104.35235553993179 $249 115.79454939420761 $240 $375 forward 7 unknown #
coedge $-1 $142 $367 $363 $376 forward $237 $-1 #
vertex $-1 $143 $377 #
vertex $-1 $143 $378 #
straight-curve $-1 57.897274697103796 -5.4540025923965558 6.142954408296184 0 1 0 I I #
coedge $-1 $251 $251 $-1 $379 reversed $146 $-1 #
edge $-1 $380 0 $380 6.2831853071796004 $147 $381 forward 7 unknown #
vertex $-1 $150 $382 #
ellipse-curve $-1 53.781862020904612 -12.228626367618705 10.11716232362796 0.69465837861970381 0 0.71933979245794832 0.35966989622897416 0 -0.3473291893098519 1 I I #
coedge $-1 $255 $255 $-1 $383 reversed $153 $-1 #
edge $-1 $384 0 $384 6.2831853071796004 $154 $385 forward 7 unknown #
vertex $-1 $157 $386 #
ellipse-curve $-1 53.781862020904612 -9.5873840019675178 10.11716232362796 0.69465837861970381 0 0.71933979245794832 0.35966989622897416 0 -0.3473291893098519 1 I I #
face $-1 $-1 $271 $33 $-1 $387 reversed single #
loop $-1 $-1 $388 $158 #
plane-surface $-1 0 0 14.091370238959744 0 0 1 1 0 0 forward_v I I I I #
coedge $-1 $389 $390 $264 $391 reversed $159 $-1 #
coedge $-1 $392 $161 $163 $269 forward $99 $-1 #
coedge $-1 $161 $392 $262 $391 forward $99 $-1 #
coedge $-1 $393 $164 $161 $266 forward $271 $-1 #
edge $-1 $273 2.3725531658035077 $394 8.535452018989611 $265 $395 forward 7 unknown #
coedge $-1 $396 $397 $162 $268 forward $260 $-1 #
edge $-1 $398 22.146798593059273 $272 30.377623945457643 $267 $399 forward 7 unknown #
edge $-1 $273 -115.79454939420761 $398 -104.35235553993179 $163 $400 forward 7 unknown #
coedge $-1 $164 $393 $396 $401 reversed $271 $-1 #
loop $-1 $-1 $393 $259 #
vertex $-1 $401 $402 #
vertex $-1 $165 $403 #
straight-curve $-1 57.897274697103796 7.8265557582000671 84.938117736233281 0 0 -1 I I #
coedge $-1 $275 $275 $-1 $404 reversed $168 $-1 #
edge $-1 $405 0 $405 6.2831853071796004 $169 $406 forward 7 unknown #
vertex $-1 $172 $407 #
ellipse-curve $-1 53.781862020904612 9.5873840019675214 10.11716232362796 0.69465837861970381 0 0.71933979245794832 0.35966989622897416 0 -0.3473291893098519 1 I I #
coedge $-1 $279 $279 $-1 $408 reversed $175 $-1 #
edge $-1 $409 0 $409 6.2831853071796004 $176 $410 forward 7 unknown #
vertex $-1 $179 $411 #
ellipse-curve $-1 53.781862020904612 12.228626367618709 10.11716232362796 0.69465837861970381 0 0.71933979245794832 0.35966989622897416 0 -0.3473291893098519 1 I I #
face $-1 $-1 $195 $27 $-1 $412 reversed single #
loop $-1 $-1 $299 $180 #
plane-surface $-1 0 32.13054024703343 0 0 -1 0 0 0 -1 forward_v I I I I #
coedge $-1 $413 $297 $300 $414 forward $181 $-1 #
coedge $-1 $303 $183 $184 $291 reversed $113 $-1 #
coedge $-1 $297 $413 $183 $289 reversed $181 $-1 #
edge $-1 $304 -14.091370238959744 $415 14.091370238959744 $288 $416 forward 7 unknown #
coedge $-1 $185 $184 $413 $417 forward $73 $-1 #
edge $-1 $295 -57.897274697103796 $415 57.897274697103796 $287 $418 forward 7 unknown #
coedge $-1 $300 $299 $185 $293 reversed $284 $-1 #
edge $-1 $419 -57.897274697103796 $294 57.897274697103796 $292 $420 forward 7 unknown #
vertex $-1 $187 $421 #
vertex $-1 $306 $422 #
straight-curve $-1 57.897274697103796 0 -14.091370238959744 0 -1 0 I I #
coedge $-1 $286 $288 $188 $298 reversed $181 $-1 #
edge $-1 $301 -32.13054024703343 $304 32.13054024703343 $297 $423 forward 7 unknown #
coedge $-1 $292 $189 $194 $307 forward $284 $-1 #
coedge $-1 $189 $292 $286 $414 reversed $284 $-1 #
vertex $-1 $190 $424 #
straight-curve $-1 0 32.13054024703343 14.091370238959744 -1 0 0 I I #
coedge $-1 $191 $287 $193 $306 reversed $113 $-1 #
vertex $-1 $298 $425 #
straight-curve $-1 0 -32.13054024703343 14.091370238959744 1 0 0 I I #
edge $-1 $196 -14.091370238959744 $295 14.091370238959744 $193 $426 forward 7 unknown #
edge $-1 $197 -14.091370238959744 $294 14.091370238959744 $194 $427 forward 7 unknown #
point $-1 57.897274697103796 -32.13054024703343 14.091370238959744 #
point $-1 57.897274697103796 32.13054024703343 14.091370238959744 #
face $-1 $-1 $214 $28 $-1 $428 reversed single #
loop $-1 $-1 $210 $199 #
plane-surface $-1 0 -32.13054024703343 0 0 1 0 0 0 1 forward_v I I I I #
coedge $-1 $429 $430 $207 $323 forward $200 $-1 #
coedge $-1 $324 $202 $204 $319 reversed $121 $-1 #
edge $-1 $321 2.0134481157934765 $215 8.3897641207086693 $213 $431 forward 7 unknown #
coedge $-1 $204 $203 $432 $433 reversed $77 $-1 #
coedge $-1 $328 $327 $203 $318 forward $311 $-1 #
edge $-1 $434 -57.897274697103796 $320 57.897274697103796 $317 $435 forward 7 unknown #
edge $-1 $436 -57.897274697103796 $321 57.897274697103796 $314 $437 forward 7 unknown #
vertex $-1 $318 $438 #
vertex $-1 $206 $439 #
straight-curve $-1 57.897274697103796 -11.529998714604899 7.2150542340445494 0 1 0 I I #
edge $-1 $329 -20.600541532428529 $325 -2.4594558967812663 $313 $440 forward 7 unknown #
coedge $-1 $208 $314 $429 $441 reversed $121 $-1 #
vertex $-1 $323 $442 #
straight-curve $-1 0 -13.989454611386165 13.591370238959742 -1 0 0 I I #
coedge $-1 $317 $210 $430 $443 forward $311 $-1 #
coedge $-1 $210 $317 $212 $331 reversed $311 $-1 #
vertex $-1 $443 $444 #
straight-curve $-1 0 -32.13054024703343 13.591370238959742 -1 0 0 I I #
edge $-1 $216 -13.591370238959742 $320 -7.2150542340445494 $212 $445 forward 7 unknown #
point $-1 57.897274697103796 -13.989454611386165 13.591370238959742 #
point $-1 57.897274697103796 -32.13054024703343 13.591370238959742 #
face $-1 $-1 $351 $29 $-1 $446 reversed single #
loop $-1 $-1 $347 $218 #
plane-surface $-1 -57.897274697103796 0 0 1 0 0 0 0 -1 forward_v I I I I #
coedge $-1 $354 $221 $222 $341 reversed $129 $-1 #
coedge $-1 $347 $447 $221 $339 forward $335 $-1 #
edge $-1 $448 2.0134481157934765 $355 8.3897641207086693 $338 $449 forward 7 unknown #
coedge $-1 $223 $222 $447 $450 reversed $81 $-1 #
edge $-1 $344 -57.897274697103796 $448 57.897274697103796 $337 $451 forward 7 unknown #
coedge $-1 $350 $349 $223 $343 forward $351 $-1 #
edge $-1 $345 -57.897274697103796 $452 57.897274697103796 $342 $453 forward 7 unknown #
vertex $-1 $225 $454 #
vertex $-1 $343 $455 #
straight-curve $-1 57.897274697103796 11.529998714604897 7.2150542340445494 0 1 0 I I #
coedge $-1 $456 $338 $226 $348 forward $335 $-1 #
edge $-1 $355 2.4594558967812645 $352 20.600541532428526 $347 $457 forward 7 unknown #
coedge $-1 $342 $227 $232 $358 forward $351 $-1 #
coedge $-1 $227 $342 $456 $458 reversed $351 $-1 #
loop $-1 $-1 $227 $334 #
vertex $-1 $458 $459 #
straight-curve $-1 0 32.13054024703343 13.591370238959742 1 0 0 I I #
coedge $-1 $229 $337 $231 $357 reversed $129 $-1 #
vertex $-1 $348 $460 #
straight-curve $-1 0 13.989454611386162 13.591370238959742 1 0 0 I I #
edge $-1 $234 -8.3897641207086693 $344 -2.0134481157934765 $231 $461 forward 7 unknown #
edge $-1 $233 -13.591370238959742 $345 -7.2150542340445494 $232 $462 forward 7 unknown #
point $-1 57.897274697103796 32.130540247033423 13.591370238959742 #
point $-1 57.897274697103796 13.989454611386162 13.591370238959742 #
loop $-1 $-1 $463 $236 #
plane-surface $-1 0 0 14.091370238959744 0 0 1 1 0 0 forward_v I I I I #
coedge $-1 $364 $239 $247 $376 reversed $137 $-1 #
coedge $-1 $239 $363 $463 $464 reversed $137 $-1 #
coedge $-1 $370 $465 $241 $366 forward $361 $-1 #
edge $-1 $368 -30.377623945457643 $374 -22.146798593059273 $365 $466 forward 7 unknown #
coedge $-1 $247 $242 $465 $467 reversed $237 $-1 #
vertex $-1 $366 $468 #
straight-curve $-1 57.897274697103796 -7.82655575820006 84.938117736233281 0 0 1 I I #
coedge $-1 $463 $365 $244 $371 forward $361 $-1 #
edge $-1 $374 2.3725531658035042 $372 8.5354520189896075 $370 $469 forward 7 unknown #
vertex $-1 $464 $470 #
straight-curve $-1 -25.398352431887147 -13.989454611386163 86.580608343475632 -0.71933979245794832 0 0.69465837861970381 I I #
vertex $-1 $371 $471 #
straight-curve $-1 -25.398352431887147 -7.82655575820006 86.580608343475632 0.71933979245794832 0 -0.69465837861970381 I I #
edge $-1 $472 70.84674749727354 $248 78.795163327937118 $247 $473 forward 7 unknown #
point $-1 57.897274697103796 -13.989454611386163 6.1429544082961627 #
point $-1 57.897274697103796 -7.82655575820006 6.1429544082961627 #
edge $-1 $474 1 $474 0 $251 $-1 forward 7 unknown #
vertex $-1 $252 $475 #
ellipse-curve $-1 52.535867446613253 -12.228626367618705 8.8268972004239163 0.69465837861970381 0 0.71933979245794832 0.35966989622897416 0 -0.3473291893098519 1 I I #
point $-1 54.141531917133591 -12.228626367618705 9.769833134318116 #
edge $-1 $476 1 $476 0 $255 $-1 forward 7 unknown #
vertex $-1 $256 $477 #
ellipse-curve $-1 52.535867446613253 -9.5873840019675178 8.8268972004239163 0.69465837861970381 0 0.71933979245794832 0.35966989622897416 0 -0.3473291893098519 1 I I #
point $-1 54.141531917133591 -9.5873840019675178 9.769833134318116 #
plane-surface $-1 57.897274697103796 0 0 -1 0 0 0 0 1 forward_v I I I I #
coedge $-1 $397 $396 $389 $478 forward $260 $-1 #
coedge $-1 $390 $262 $388 $478 reversed $159 $-1 #
coedge $-1 $262 $389 $393 $479 reversed $159 $-1 #
edge $-1 $480 104.35235553993179 $394 115.79454939420761 $262 $481 forward 7 unknown #
coedge $-1 $264 $263 $397 $482 reversed $99 $-1 #
coedge $-1 $270 $265 $390 $479 forward $271 $-1 #
vertex $-1 $479 $483 #
straight-curve $-1 57.897274697103796 5.4540025923965594 6.142954408296184 0 1 0 I I #
coedge $-1 $388 $267 $270 $401 forward $260 $-1 #
coedge $-1 $267 $388 $392 $482 forward $260 $-1 #
vertex $-1 $268 $484 #
straight-curve $-1 27.519650751646154 7.8265557582000671 14.09137023895974 1 0 0 I I #
straight-curve $-1 -25.398352431887147 7.8265557582000671 86.580608343475632 -0.71933979245794832 0 0.69465837861970381 I I #
edge $-1 $272 7.8265557582000671 $485 13.98945461138617 $270 $486 forward 7 unknown #
point $-1 57.897274697103796 7.8265557582000671 14.091370238959744 #
point $-1 57.897274697103796 7.8265557582000671 6.1429544082961627 #
edge $-1 $487 1 $487 0 $275 $-1 forward 7 unknown #
vertex $-1 $276 $488 #
ellipse-curve $-1 52.535867446613253 9.5873840019675214 8.8268972004239163 0.69465837861970381 0 0.71933979245794832 0.35966989622897416 0 -0.3473291893098519 1 I I #
point $-1 54.141531917133591 9.5873840019675214 9.769833134318116 #
edge $-1 $489 1 $489 0 $279 $-1 forward 7 unknown #
vertex $-1 $280 $490 #
ellipse-curve $-1 52.535867446613253 12.228626367618709 8.8268972004239163 0.69465837861970381 0 0.71933979245794832 0.35966989622897416 0 -0.3473291893098519 1 I I #
point $-1 54.141531917133591 12.228626367618709 9.769833134318116 #
plane-surface $-1 57.897274697103796 0 0 -1 0 0 0 0 1 forward_v I I I I #
coedge $-1 $288 $286 $290 $417 reversed $181 $-1 #
edge $-1 $301 -14.091370238959744 $419 14.091370238959744 $300 $491 forward 7 unknown #
vertex $-1 $417 $492 #
straight-curve $-1 -57.897274697103796 -32.13054024703343 0 0 0 -1 I I #
edge $-1 $415 -32.13054024703343 $419 32.13054024703343 $413 $493 forward 7 unknown #
straight-curve $-1 0 -32.13054024703343 -14.091370238959744 -1 0 0 I I #
vertex $-1 $293 $494 #
straight-curve $-1 0 32.13054024703343 -14.091370238959744 1 0 0 I I #
point $-1 57.897274697103796 32.13054024703343 -14.091370238959744 #
point $-1 57.897274697103796 -32.13054024703343 -14.091370238959744 #
straight-curve $-1 -57.897274697103796 0 14.091370238959744 0 -1 0 I I #
point $-1 -57.897274697103796 32.13054024703343 14.091370238959744 #
point $-1 -57.897274697103796 -32.13054024703343 14.091370238959744 #
straight-curve $-1 57.897274697103796 -32.13054024703343 0 0 0 -1 I I #
straight-curve $-1 57.897274697103796 32.13054024703343 0 0 0 -1 I I #
plane-surface $-1 57.897274697103796 0 0 -1 0 0 0 0 1 forward_v I I I I #
coedge $-1 $432 $313 $324 $441 forward $200 $-1 #
coedge $-1 $313 $432 $327 $443 reversed $200 $-1 #
straight-curve $-1 57.897274697103796 -13.989454611386165 5.2016061182510729 0 0 1 I I #
coedge $-1 $430 $429 $316 $433 forward $200 $-1 #
edge $-1 $436 2.4594558967812663 $434 20.600541532428529 $432 $495 forward 7 unknown #
vertex $-1 $318 $496 #
straight-curve $-1 0 -32.13054024703343 7.2150542340445494 1 0 0 I I #
vertex $-1 $433 $497 #
straight-curve $-1 0 -13.989454611386165 7.2150542340445494 1 0 0 I I #
point $-1 57.897274697103796 -32.13054024703343 7.2150542340445494 #
point $-1 57.897274697103796 -13.989454611386165 7.2150542340445494 #
straight-curve $-1 -57.897274697103796 -11.529998714604899 13.591370238959742 0 1 0 I I #
edge $-1 $325 -8.3897641207086693 $436 -2.0134481157934765 $429 $498 forward 7 unknown #
point $-1 -57.897274697103796 -13.989454611386165 13.591370238959742 #
edge $-1 $329 -13.591370238959742 $434 -7.2150542340445494 $430 $499 forward 7 unknown #
point $-1 -57.897274697103796 -32.13054024703343 13.591370238959742 #
straight-curve $-1 57.897274697103796 -32.13054024703343 0 0 0 -1 I I #
plane-surface $-1 0 32.13054024703343 0 0 -1 0 0 0 -1 forward_v I I I I #
coedge $-1 $338 $456 $340 $450 forward $335 $-1 #
vertex $-1 $450 $500 #
straight-curve $-1 -57.897274697103796 13.989454611386162 5.2016061182510729 0 0 1 I I #
edge $-1 $452 -20.600541532428526 $448 -2.4594558967812645 $447 $501 forward 7 unknown #
straight-curve $-1 0 13.989454611386162 7.2150542340445494 -1 0 0 I I #
vertex $-1 $343 $502 #
straight-curve $-1 0 32.13054024703343 7.2150542340445494 -1 0 0 I I #
point $-1 57.897274697103796 13.989454611386162 7.2150542340445494 #
point $-1 57.897274697103796 32.130540247033423 7.2150542340445494 #
coedge $-1 $447 $347 $350 $458 forward $335 $-1 #
straight-curve $-1 -57.897274697103796 11.529998714604897 13.591370238959742 0 1 0 I I #
edge $-1 $352 -13.591370238959742 $452 -7.2150542340445494 $350 $503 forward 7 unknown #
point $-1 -57.897274697103796 32.130540247033423 13.591370238959742 #
point $-1 -57.897274697103796 13.989454611386162 13.591370238959742 #
straight-curve $-1 57.897274697103796 13.989454611386162 5.2016061182510729 0 0 -1 I I #
straight-curve $-1 57.897274697103796 32.13054024703343 0 0 0 -1 I I #
coedge $-1 $465 $370 $364 $464 forward $361 $-1 #
edge $-1 $372 22.146798593059273 $472 30.377623945457643 $463 $504 forward 7 unknown #
coedge $-1 $365 $463 $367 $467 forward $361 $-1 #
straight-curve $-1 27.519650751646154 -7.82655575820006 14.09137023895974 -1 0 0 I I #
edge $-1 $472 -13.989454611386163 $368 -7.82655575820006 $367 $505 forward 7 unknown #
point $-1 57.897274697103796 -7.82655575820006 14.091370238959744 #
straight-curve $-1 49.666449344705427 -5.4540025923965558 14.09137023895974 0 -1 0 I I #
point $-1 49.666449344705427 -13.989454611386163 14.09137023895974 #
point $-1 49.666449344705427 -7.82655575820006 14.09137023895974 #
vertex $-1 $467 $506 #
straight-curve $-1 57.897274697103796 -13.989454611386163 84.938117736233281 0 0 -1 I I #
vertex $-1 $379 $507 #
point $-1 52.895537342842232 -12.228626367618705 8.479568011114063 #
vertex $-1 $383 $508 #
point $-1 52.895537342842232 -9.5873840019675178 8.479568011114063 #
edge $-1 $485 -30.377623945457643 $480 -22.146798593059273 $388 $509 forward 7 unknown #
edge $-1 $394 -78.795163327937118 $485 -70.84674749727354 $393 $510 forward 7 unknown #
vertex $-1 $478 $511 #
straight-curve $-1 -25.398352431887147 13.98945461138617 86.580608343475632 0.71933979245794832 0 -0.69465837861970381 I I #
edge $-1 $480 -8.535452018989611 $398 -2.3725531658035077 $397 $512 forward 7 unknown #
point $-1 57.897274697103796 13.98945461138617 6.1429544082961627 #
point $-1 49.666449344705427 7.8265557582000671 14.09137023895974 #
vertex $-1 $478 $513 #
straight-curve $-1 57.897274697103796 0 14.091370238959744 0 1 0 I I #
vertex $-1 $404 $514 #
point $-1 52.895537342842232 9.5873840019675214 8.479568011114063 #
vertex $-1 $408 $515 #
point $-1 52.895537342842232 12.228626367618709 8.479568011114063 #
straight-curve $-1 -57.897274697103796 32.13054024703343 0 0 0 -1 I I #
point $-1 -57.897274697103796 -32.13054024703343 -14.091370238959744 #
straight-curve $-1 -57.897274697103796 0 -14.091370238959744 0 1 0 I I #
point $-1 -57.897274697103796 32.13054024703343 -14.091370238959744 #
straight-curve $-1 -57.897274697103796 -11.529998714604899 7.2150542340445494 0 -1 0 I I #
point $-1 -57.897274697103796 -32.13054024703343 7.2150542340445494 #
point $-1 -57.897274697103796 -13.989454611386165 7.2150542340445494 #
straight-curve $-1 -57.897274697103796 -13.989454611386165 5.2016061182510729 0 0 -1 I I #
straight-curve $-1 -57.897274697103796 -32.13054024703343 0 0 0 -1 I I #
point $-1 -57.897274697103796 13.989454611386162 7.2150542340445494 #
straight-curve $-1 -57.897274697103796 11.529998714604897 7.2150542340445494 0 -1 0 I I #
point $-1 -57.897274697103796 32.130540247033423 7.2150542340445494 #
straight-curve $-1 -57.897274697103796 32.13054024703343 0 0 0 -1 I I #
straight-curve $-1 27.519650751646154 -13.989454611386163 14.09137023895974 1 0 0 I I #
straight-curve $-1 57.897274697103796 0 14.091370238959744 0 1 0 I I #
point $-1 57.897274697103796 -13.989454611386163 14.091370238959744 #
point $-1 52.188538257303406 -12.228626367618705 8.4672273041949406 #
point $-1 52.188538257303406 -9.5873840019675178 8.4672273041949406 #
straight-curve $-1 27.519650751646154 13.98945461138617 14.09137023895974 -1 0 0 I I #
straight-curve $-1 57.897274697103796 13.98945461138617 84.938117736233281 0 0 1 I I #
point $-1 49.666449344705427 13.98945461138617 14.09137023895974 #
straight-curve $-1 49.666449344705427 5.4540025923965594 14.09137023895974 0 -1 0 I I #
point $-1 57.897274697103796 13.98945461138617 14.091370238959744 #
point $-1 52.188538257303406 9.5873840019675214 8.4672273041949406 #
point $-1 52.188538257303406 12.228626367618709 8.4672273041949406 #
End-of-ACIS-data 