500 0 8 0           
7 Unknown 11 ACIS 5.0 NT 24 Fri Mar 26 18:59:11 1999 
-1 9.9999999999999995e-007 1e-010 
body $-1 $8 $-1 $9 #
body $-1 $10 $-1 $11 #
body $-1 $12 $-1 $13 #
body $-1 $14 $-1 $15 #
body $-1 $16 $-1 $17 #
body $-1 $18 $-1 $19 #
body $-1 $20 $-1 $21 #
body $-1 $22 $-1 $23 #
lump $-1 $-1 $24 $0 #
transform $-1 1 0 0 0 1 0 0 0 1 79.398174993133338 45.556480862175398 21.630812724689392 1 rotate no_reflect no_shear #
lump $-1 $-1 $25 $1 #
transform $-1 1 0 0 0 1 0 0 0 1 79.398174993133338 45.556480862175398 21.630812724689392 1 rotate no_reflect no_shear #
lump $-1 $-1 $26 $2 #
transform $-1 1 0 0 0 1 0 0 0 1 79.398174993133338 45.556480862175398 21.630812724689392 1 rotate no_reflect no_shear #
lump $-1 $-1 $27 $3 #
transform $-1 1 0 0 0 1 0 0 0 1 79.398174993133338 45.556480862175398 21.630812724689392 1 rotate no_reflect no_shear #
lump $-1 $-1 $28 $4 #
transform $-1 1 0 0 0 1 0 0 0 1 79.398174993133338 45.556480862175398 21.630812724689392 1 rotate no_reflect no_shear #
lump $-1 $-1 $29 $5 #
transform $-1 1 0 0 0 1 0 0 0 1 79.398174993133338 45.556480862175398 21.630812724689392 1 rotate no_reflect no_shear #
lump $-1 $-1 $30 $6 #
transform $-1 1 0 0 0 1 0 0 0 1 79.398174993133338 45.556480862175398 21.630812724689392 1 rotate no_reflect no_shear #
lump $-1 $-1 $31 $7 #
transform $-1 1 0 0 0 1 0 0 0 1 79.398174993133338 45.556480862175398 21.630812724689392 1 rotate no_reflect no_shear #
shell $-1 $-1 $-1 $32 $-1 $8 #
shell $-1 $-1 $-1 $33 $-1 $10 #
shell $-1 $-1 $-1 $34 $-1 $12 #
shell $-1 $-1 $-1 $35 $-1 $14 #
shell $-1 $-1 $-1 $36 $-1 $16 #
shell $-1 $-1 $-1 $37 $-1 $18 #
shell $-1 $-1 $-1 $38 $-1 $20 #
shell $-1 $-1 $-1 $39 $-1 $22 #
face $-1 $40 $41 $24 $-1 $42 forward single #
face $-1 $43 $44 $25 $-1 $45 forward single #
face $-1 $46 $47 $26 $-1 $48 reversed single #
face $-1 $49 $50 $27 $-1 $51 forward single #
face $-1 $52 $53 $28 $-1 $54 reversed single #
face $-1 $55 $56 $29 $-1 $57 forward single #
face $-1 $58 $59 $30 $-1 $60 reversed single #
face $-1 $61 $62 $31 $-1 $63 forward single #
face $-1 $64 $65 $24 $-1 $66 reversed single #
loop $-1 $-1 $67 $32 #
plane-surface $-1 0 0 21.630812724689392 0 0 1 1 0 0 forward_v I I I I #
face $-1 $68 $69 $25 $-1 $70 forward single #
loop $-1 $-1 $71 $33 #
plane-surface $-1 0 -45.556480862175398 0 0 1 0 0 0 1 forward_v I I I I #
face $-1 $72 $73 $26 $-1 $74 reversed single #
loop $-1 $-1 $75 $34 #
plane-surface $-1 98.970913137172701 26.39772174776779 236.79938275165773 0 1 0 0.7660444514056185 0 0.64278759981090561 forward_v I I I I #
face $-1 $76 $77 $27 $-1 $78 forward single #
loop $-1 $79 $80 $35 #
cone-surface $-1 71.989801987461149 35.97710130497159 14.149601655146501 -0.7660444514056185 0 -0.64278759981090561 1.606968999527264 0 -1.9151111285140463 1 I I 0 1 2.5 forward I I I I #
face $-1 $81 $82 $28 $-1 $83 reversed single #
loop $-1 $-1 $84 $36 #
plane-surface $-1 -163.54742105187131 -22.697002063098772 135.19288237523517 0 1 0 -0.52991927123019833 0 0.84804809178421925 forward_v I I I I #
face $-1 $85 $86 $29 $-1 $87 forward single #
loop $-1 $88 $89 $37 #
cone-surface $-1 -60.514837538124581 -15.404177715225899 7.8842529347382433 0.52991927123019833 0 -0.84804809178421925 1.6960961835684385 0 1.0598385424603967 1 I I 0 1 2 forward I I I I #
face $-1 $90 $91 $30 $-1 $92 reversed single #
loop $-1 $-1 $93 $38 #
plane-surface $-1 -163.54742105187131 11.429739399538304 135.19288237523517 0 1 0 -0.52991927123019833 0 0.84804809178421925 forward_v I I I I #
face $-1 $94 $95 $31 $-1 $96 forward single #
loop $-1 $97 $98 $39 #
cone-surface $-1 -60.514837538124581 18.722563747411179 7.8842529347382433 0.52991927123019833 0 -0.84804809178421925 1.6960961835684385 0 1.0598385424603967 1 I I 0 1 2 forward I I I I #
face $-1 $99 $100 $24 $-1 $101 reversed single #
loop $-1 $-1 $102 $40 #
plane-surface $-1 0 0 -21.630812724689392 0 0 1 1 0 0 forward_v I I I I #
coedge $-1 $103 $104 $105 $106 forward $41 $-1 #
face $-1 $107 $108 $25 $-1 $109 reversed single #
loop $-1 $-1 $110 $43 #
plane-surface $-1 0 0 21.630812724689392 0 0 1 1 0 0 forward_v I I I I #
coedge $-1 $111 $112 $113 $114 forward $44 $-1 #
face $-1 $115 $116 $26 $-1 $117 reversed single #
loop $-1 $-1 $118 $46 #
plane-surface $-1 -22.674149673271543 35.97710130497159 134.72705808525285 0.7660444514056185 0 0.64278759981090561 0.64278759981090561 0 -0.7660444514056185 forward_v I I I I #
coedge $-1 $119 $120 $121 $122 reversed $47 $-1 #
face $-1 $-1 $123 $27 $-1 $124 forward single #
loop $-1 $125 $126 $49 #
cone-surface $-1 67.21052810822745 35.97710130497159 10.139314810780419 -0.7660444514056185 0 -0.64278759981090561 0.80348449976363201 0 -0.95755556425702315 1 I I -0.70710678118654746 0.70710678118654746 1.25 forward I I I I #
loop $-1 $-1 $127 $35 #
coedge $-1 $80 $80 $128 $129 reversed $50 $-1 #
face $-1 $130 $131 $28 $-1 $132 reversed single #
loop $-1 $-1 $133 $52 #
plane-surface $-1 -79.398174993133352 -15.404177715225899 0.52594078708267489 -0.52991927123019833 0 0.84804809178421925 0.84804809178421925 0 0.52991927123019833 forward_v I I I I #
coedge $-1 $134 $135 $136 $137 reversed $53 $-1 #
face $-1 $-1 $138 $29 $-1 $139 forward single #
loop $-1 $140 $141 $55 #
cone-surface $-1 -57.989008148211717 -15.404177715225899 3.8420810218062407 0.52991927123019833 0 -0.84804809178421925 0.84804809178421925 0 0.52991927123019833 1 I I -0.70710678118654746 0.70710678118654746 1 forward I I I I #
loop $-1 $-1 $142 $37 #
coedge $-1 $89 $89 $143 $144 reversed $56 $-1 #
face $-1 $145 $146 $30 $-1 $147 reversed single #
loop $-1 $-1 $148 $58 #
plane-surface $-1 -79.398174993133352 18.722563747411179 0.52594078708267489 -0.52991927123019833 0 0.84804809178421925 0.84804809178421925 0 0.52991927123019833 forward_v I I I I #
coedge $-1 $149 $150 $151 $152 reversed $59 $-1 #
face $-1 $-1 $153 $31 $-1 $154 forward single #
loop $-1 $155 $156 $61 #
cone-surface $-1 -57.989008148211717 18.722563747411179 3.8420810218062407 0.52991927123019833 0 -0.84804809178421925 0.84804809178421925 0 0.52991927123019833 1 I I -0.70710678118654746 0.70710678118654746 1 forward I I I I #
loop $-1 $-1 $157 $39 #
coedge $-1 $98 $98 $158 $159 reversed $62 $-1 #
face $-1 $160 $161 $24 $-1 $162 reversed single #
loop $-1 $-1 $163 $64 #
plane-surface $-1 0 -45.556480862175398 0 0 1 0 0 0 1 forward_v I I I I #
coedge $-1 $164 $165 $166 $167 forward $65 $-1 #
coedge $-1 $168 $67 $169 $170 forward $41 $-1 #
coedge $-1 $67 $168 $171 $172 forward $41 $-1 #
coedge $-1 $173 $174 $67 $106 reversed $175 $-1 #
edge $-1 $176 -45.556480862175398 $177 45.556480862175398 $105 $178 forward 7 unknown #
face $-1 $179 $180 $25 $-1 $181 reversed single #
loop $-1 $-1 $182 $68 #
plane-surface $-1 -79.398174993133338 0 0 1 0 0 0 0 -1 forward_v I I I I #
coedge $-1 $183 $184 $185 $186 forward $69 $-1 #
coedge $-1 $185 $71 $182 $187 reversed $44 $-1 #
coedge $-1 $71 $185 $188 $189 reversed $44 $-1 #
coedge $-1 $190 $191 $71 $114 reversed $180 $-1 #
edge $-1 $192 -79.398174993133338 $193 79.398174993133338 $113 $194 forward 7 unknown #
face $-1 $195 $196 $26 $-1 $197 forward single #
loop $-1 $-1 $121 $72 #
plane-surface $-1 79.398174993133338 0 0 -1 0 0 0 0 1 forward_v I I I I #
coedge $-1 $198 $199 $200 $201 reversed $73 $-1 #
coedge $-1 $120 $75 $202 $203 reversed $47 $-1 #
coedge $-1 $75 $119 $198 $204 reversed $47 $-1 #
coedge $-1 $200 $205 $75 $122 forward $116 $-1 #
edge $-1 $206 96.768878651139474 $207 105.31769610102026 $121 $208 forward 7 unknown #
loop $-1 $-1 $128 $76 #
plane-surface $-1 -22.674149673271543 35.97710130497159 134.72705808525285 0.7660444514056185 0 0.64278759981090561 0.64278759981090561 0 -0.7660444514056185 forward_v I I I I #
loop $-1 $-1 $209 $49 #
coedge $-1 $126 $126 $127 $210 reversed $77 $-1 #
coedge $-1 $127 $127 $126 $210 forward $79 $-1 #
coedge $-1 $128 $128 $80 $129 forward $123 $-1 #
edge $-1 $211 0 $211 6.2831853071796004 $128 $212 forward 7 unknown #
face $-1 $213 $214 $28 $-1 $215 forward single #
loop $-1 $-1 $216 $81 #
plane-surface $-1 -163.54742105187131 -8.1113533673530238 135.19288237523517 0 -1 0 0.52991927123019833 0 -0.84804809178421925 forward_v I I I I #
coedge $-1 $217 $218 $219 $220 reversed $82 $-1 #
coedge $-1 $135 $84 $221 $222 reversed $53 $-1 #
coedge $-1 $84 $134 $217 $223 reversed $53 $-1 #
coedge $-1 $219 $224 $84 $137 forward $214 $-1 #
edge $-1 $225 2.3755355328023171 $226 36.150390205454464 $136 $227 forward 7 unknown #
loop $-1 $-1 $143 $85 #
plane-surface $-1 -79.398174993133352 -15.404177715225899 0.52594078708267489 -0.52991927123019833 0 0.84804809178421925 0.84804809178421925 0 0.52991927123019833 forward_v I I I I #
loop $-1 $-1 $228 $55 #
coedge $-1 $141 $141 $142 $229 reversed $86 $-1 #
coedge $-1 $142 $142 $141 $229 forward $88 $-1 #
coedge $-1 $143 $143 $89 $144 forward $138 $-1 #
edge $-1 $230 0 $230 6.2831853071796004 $143 $231 forward 7 unknown #
face $-1 $232 $233 $30 $-1 $234 forward single #
loop $-1 $-1 $235 $90 #
plane-surface $-1 -163.54742105187131 26.015388095284052 135.19288237523517 0 -1 0 0.52991927123019833 0 -0.84804809178421925 forward_v I I I I #
coedge $-1 $236 $237 $238 $239 reversed $91 $-1 #
coedge $-1 $150 $93 $240 $241 reversed $59 $-1 #
coedge $-1 $93 $149 $236 $242 reversed $59 $-1 #
coedge $-1 $238 $243 $93 $152 forward $233 $-1 #
edge $-1 $244 2.3755355328023171 $245 36.150390205454464 $151 $246 forward 7 unknown #
loop $-1 $-1 $158 $94 #
plane-surface $-1 -79.398174993133352 18.722563747411179 0.52594078708267489 -0.52991927123019833 0 0.84804809178421925 0.84804809178421925 0 0.52991927123019833 forward_v I I I I #
loop $-1 $-1 $247 $61 #
coedge $-1 $156 $156 $157 $248 reversed $95 $-1 #
coedge $-1 $157 $157 $156 $248 forward $97 $-1 #
coedge $-1 $158 $158 $98 $159 forward $153 $-1 #
edge $-1 $249 0 $249 6.2831853071796004 $158 $250 forward 7 unknown #
face $-1 $251 $252 $24 $-1 $253 reversed single #
loop $-1 $-1 $254 $99 #
plane-surface $-1 -79.398174993133338 0 0 1 0 0 0 0 -1 forward_v I I I I #
coedge $-1 $255 $171 $256 $257 forward $100 $-1 #
coedge $-1 $258 $102 $255 $259 forward $65 $-1 #
coedge $-1 $102 $258 $260 $261 forward $65 $-1 #
coedge $-1 $174 $173 $102 $167 reversed $175 $-1 #
edge $-1 $262 -45.556480862175398 $263 45.556480862175398 $166 $264 forward 7 unknown #
coedge $-1 $104 $103 $265 $266 forward $41 $-1 #
coedge $-1 $267 $268 $103 $170 reversed $252 $-1 #
edge $-1 $177 -79.398174993133338 $269 79.398174993133338 $169 $270 forward 7 unknown #
coedge $-1 $163 $271 $104 $172 reversed $100 $-1 #
edge $-1 $272 -79.398174993133338 $176 79.398174993133338 $171 $273 forward 7 unknown #
coedge $-1 $166 $105 $271 $274 forward $175 $-1 #
coedge $-1 $105 $166 $267 $275 reversed $175 $-1 #
loop $-1 $-1 $173 $251 #
vertex $-1 $106 $276 #
vertex $-1 $106 $277 #
straight-curve $-1 79.398174993133338 0 21.630812724689392 0 1 0 I I #
face $-1 $278 $279 $25 $-1 $280 reversed single #
loop $-1 $-1 $190 $107 #
plane-surface $-1 0 -56.986220261713711 14.15314104105504 0 0 1 1 0 0 forward_v I I I I #
coedge $-1 $281 $282 $111 $187 forward $108 $-1 #
coedge $-1 $283 $110 $282 $284 forward $69 $-1 #
coedge $-1 $110 $283 $285 $286 forward $69 $-1 #
coedge $-1 $112 $111 $110 $186 reversed $44 $-1 #
edge $-1 $287 -79.398174993133338 $288 79.398174993133338 $110 $289 forward 7 unknown #
edge $-1 $288 -21.630812724689392 $193 -14.15314104105504 $182 $290 forward 7 unknown #
coedge $-1 $285 $291 $112 $189 forward $292 $-1 #
edge $-1 $192 14.15314104105504 $287 21.630812724689392 $188 $293 forward 7 unknown #
coedge $-1 $294 $113 $291 $295 forward $180 $-1 #
coedge $-1 $113 $294 $281 $296 forward $180 $-1 #
vertex $-1 $189 $297 #
vertex $-1 $187 $298 #
straight-curve $-1 0 -45.556480862175398 14.15314104105504 -1 0 0 I I #
face $-1 $-1 $299 $26 $-1 $300 reversed single #
loop $-1 $-1 $202 $115 #
plane-surface $-1 0 0 21.630812724689392 0 0 1 1 0 0 forward_v I I I I #
coedge $-1 $301 $118 $120 $204 forward $73 $-1 #
coedge $-1 $118 $301 $302 $303 reversed $73 $-1 #
coedge $-1 $304 $121 $118 $201 forward $116 $-1 #
edge $-1 $207 8.4091710952819945 $305 27.567930209689603 $200 $306 forward 7 unknown #
coedge $-1 $307 $308 $119 $203 forward $196 $-1 #
edge $-1 $309 22.73940904315598 $206 29.912718424546988 $202 $310 forward 7 unknown #
edge $-1 $207 -158.79634998626673 $309 -147.63666149274061 $120 $311 forward 7 unknown #
coedge $-1 $121 $304 $307 $312 reversed $116 $-1 #
vertex $-1 $312 $313 #
vertex $-1 $122 $314 #
straight-curve $-1 79.398174993133338 26.39772174776779 118.39969137582887 0 0 -1 I I #
coedge $-1 $209 $209 $-1 $315 reversed $125 $-1 #
edge $-1 $316 0 $316 6.2831853071796004 $126 $317 forward 7 unknown #
vertex $-1 $129 $318 #
ellipse-curve $-1 75.811520302437856 35.97710130497159 17.356403999748974 0.7660444514056185 0 0.64278759981090561 1.606968999527264 0 -1.9151111285140463 1 I I #
face $-1 $-1 $319 $28 $-1 $320 reversed single #
loop $-1 $-1 $136 $130 #
plane-surface $-1 0 0 21.630812724689392 0 0 1 1 0 0 forward_v I I I I #
coedge $-1 $321 $322 $323 $324 reversed $131 $-1 #
coedge $-1 $325 $133 $135 $223 forward $82 $-1 #
coedge $-1 $133 $325 $321 $326 forward $82 $-1 #
coedge $-1 $323 $136 $133 $220 forward $214 $-1 #
edge $-1 $226 -14.994913205485823 $327 -0.40926450974007444 $219 $328 forward 7 unknown #
coedge $-1 $329 $330 $134 $222 forward $319 $-1 #
edge $-1 $331 -67.070500400534897 $225 -45.965628462928194 $221 $332 forward 7 unknown #
edge $-1 $226 -39.826579412015199 $331 -1.675811683274863e-014 $135 $333 forward 7 unknown #
coedge $-1 $136 $323 $329 $334 forward $214 $-1 #
vertex $-1 $222 $335 #
vertex $-1 $137 $336 #
straight-curve $-1 -81.773710525935655 -22.697002063098772 21.630812724689392 1 0 0 I I #
coedge $-1 $228 $228 $-1 $337 reversed $140 $-1 #
edge $-1 $338 0 $338 6.2831853071796004 $141 $339 forward 7 unknown #
vertex $-1 $144 $340 #
ellipse-curve $-1 -62.510747656807254 -15.404177715225899 11.078376755886042 -0.52991927123019833 0 0.84804809178421925 1.6960961835684385 0 1.0598385424603967 1 I I #
face $-1 $-1 $341 $30 $-1 $342 reversed single #
loop $-1 $-1 $151 $145 #
plane-surface $-1 0 0 21.630812724689392 0 0 1 1 0 0 forward_v I I I I #
coedge $-1 $343 $344 $345 $346 reversed $146 $-1 #
coedge $-1 $347 $148 $150 $242 forward $91 $-1 #
coedge $-1 $148 $347 $343 $348 forward $91 $-1 #
coedge $-1 $345 $151 $148 $239 forward $233 $-1 #
edge $-1 $245 2.0684575258327147 $349 16.654106221578463 $238 $350 forward 7 unknown #
coedge $-1 $351 $352 $149 $241 forward $341 $-1 #
edge $-1 $353 -67.070500400534897 $244 -45.965628462928194 $240 $354 forward 7 unknown #
edge $-1 $245 -39.826579412015199 $353 -1.675811683274863e-014 $150 $355 forward 7 unknown #
coedge $-1 $151 $345 $351 $356 forward $233 $-1 #
vertex $-1 $152 $357 #
vertex $-1 $152 $358 #
straight-curve $-1 -81.773710525935655 11.429739399538304 21.630812724689392 1 0 0 I I #
coedge $-1 $247 $247 $-1 $359 reversed $155 $-1 #
edge $-1 $360 0 $360 6.2831853071796004 $156 $361 forward 7 unknown #
vertex $-1 $159 $362 #
ellipse-curve $-1 -62.510747656807254 18.722563747411179 11.078376755886042 -0.52991927123019833 0 0.84804809178421925 1.6960961835684385 0 1.0598385424603967 1 I I #
face $-1 $-1 $175 $24 $-1 $363 reversed single #
loop $-1 $-1 $267 $160 #
plane-surface $-1 0 45.556480862175398 0 0 -1 0 0 0 -1 forward_v I I I I #
coedge $-1 $364 $265 $268 $365 forward $161 $-1 #
coedge $-1 $271 $163 $164 $259 reversed $100 $-1 #
coedge $-1 $265 $364 $163 $257 reversed $161 $-1 #
edge $-1 $272 -21.630812724689392 $366 21.630812724689392 $256 $367 forward 7 unknown #
coedge $-1 $165 $164 $364 $368 forward $65 $-1 #
edge $-1 $263 -79.398174993133338 $366 79.398174993133338 $255 $369 forward 7 unknown #
coedge $-1 $268 $267 $165 $261 reversed $252 $-1 #
edge $-1 $370 -79.398174993133338 $262 79.398174993133338 $260 $371 forward 7 unknown #
vertex $-1 $167 $372 #
vertex $-1 $274 $373 #
straight-curve $-1 79.398174993133338 0 -21.630812724689392 0 -1 0 I I #
coedge $-1 $254 $256 $168 $266 reversed $161 $-1 #
edge $-1 $269 -45.556480862175398 $272 45.556480862175398 $265 $374 forward 7 unknown #
coedge $-1 $260 $169 $174 $275 forward $252 $-1 #
coedge $-1 $169 $260 $254 $365 reversed $252 $-1 #
vertex $-1 $170 $375 #
straight-curve $-1 0 45.556480862175398 21.630812724689392 -1 0 0 I I #
coedge $-1 $171 $255 $173 $274 reversed $100 $-1 #
vertex $-1 $266 $376 #
straight-curve $-1 0 -45.556480862175398 21.630812724689392 1 0 0 I I #
edge $-1 $176 -21.630812724689392 $263 21.630812724689392 $173 $377 forward 7 unknown #
edge $-1 $177 -21.630812724689392 $262 21.630812724689392 $174 $378 forward 7 unknown #
point $-1 79.398174993133338 -45.556480862175398 21.630812724689392 #
point $-1 79.398174993133338 45.556480862175398 21.630812724689392 #
face $-1 $-1 $292 $25 $-1 $379 reversed single #
loop $-1 $-1 $380 $179 #
plane-surface $-1 0 -68.415959661252018 17.891976882872214 0 1 0 0 0 1 forward_v I I I I #
coedge $-1 $381 $182 $191 $296 reversed $108 $-1 #
coedge $-1 $182 $381 $183 $284 reversed $108 $-1 #
coedge $-1 $184 $183 $382 $383 forward $69 $-1 #
edge $-1 $288 45.556480862175398 $384 68.415959661252018 $282 $385 forward 7 unknown #
coedge $-1 $386 $188 $184 $286 reversed $292 $-1 #
edge $-1 $387 -68.415959661252018 $287 -45.556480862175398 $285 $388 forward 7 unknown #
vertex $-1 $189 $389 #
vertex $-1 $284 $390 #
straight-curve $-1 0 -45.556480862175398 21.630812724689392 -1 0 0 I I #
straight-curve $-1 -79.398174993133338 -45.556480862175398 0 0 0 -1 I I #
coedge $-1 $188 $386 $190 $295 reversed $292 $-1 #
loop $-1 $-1 $188 $278 #
straight-curve $-1 79.398174993133338 -45.556480862175398 0 0 0 1 I I #
coedge $-1 $191 $190 $391 $392 forward $180 $-1 #
edge $-1 $192 -11.429739399538313 $393 11.429739399538306 $291 $394 forward 7 unknown #
edge $-1 $395 -11.429739399538306 $193 11.429739399538313 $281 $396 forward 7 unknown #
point $-1 79.398174993133338 -45.556480862175398 14.15314104105504 #
point $-1 -79.398174993133338 -45.556480862175398 14.15314104105504 #
loop $-1 $-1 $302 $195 #
plane-surface $-1 0 45.556480862175398 0 0 -1 0 0 0 -1 forward_v I I I I #
coedge $-1 $199 $198 $308 $397 reversed $73 $-1 #
coedge $-1 $398 $399 $199 $303 forward $299 $-1 #
edge $-1 $305 -99.905561212943738 $400 -88.745872719417662 $302 $401 forward 7 unknown #
coedge $-1 $205 $200 $399 $402 reversed $116 $-1 #
vertex $-1 $201 $403 #
straight-curve $-1 79.398174993133338 17.988550652485795 13.081995274808619 0 1 0 I I #
coedge $-1 $404 $202 $205 $312 forward $196 $-1 #
coedge $-1 $202 $404 $301 $397 forward $196 $-1 #
vertex $-1 $203 $405 #
straight-curve $-1 49.485456568586351 26.39772174776779 21.630812724689392 1 0 0 I I #
straight-curve $-1 -22.674149673271543 26.39772174776779 134.72705808525285 -0.64278759981090561 0 0.7660444514056185 I I #
edge $-1 $206 26.39772174776779 $406 45.556480862175398 $205 $407 forward 7 unknown #
point $-1 79.398174993133338 26.39772174776779 21.630812724689392 #
point $-1 79.398174993133352 26.39772174776779 13.081995274808605 #
edge $-1 $408 1 $408 0 $209 $-1 forward 7 unknown #
vertex $-1 $210 $409 #
ellipse-curve $-1 68.168083672484471 35.97710130497159 10.942799310544052 0.7660444514056185 0 0.64278759981090561 1.606968999527264 0 -1.9151111285140463 1 I I #
point $-1 77.418489301965081 35.97710130497159 15.441292871234907 #
loop $-1 $-1 $221 $213 #
plane-surface $-1 -79.398174993133338 0 0 1 0 0 0 0 -1 forward_v I I I I #
coedge $-1 $322 $216 $218 $326 reversed $131 $-1 #
coedge $-1 $216 $321 $410 $411 reversed $131 $-1 #
coedge $-1 $224 $219 $216 $324 forward $214 $-1 #
edge $-1 $327 -36.150390205454464 $412 -2.3755355328023171 $323 $413 forward 7 unknown #
coedge $-1 $218 $217 $330 $414 reversed $82 $-1 #
edge $-1 $415 1.675811683274863e-014 $327 39.826579412015199 $321 $416 forward 7 unknown #
vertex $-1 $220 $417 #
straight-curve $-1 -45.623320320481191 -7.7020888576129494 21.630812724689392 0 1 0 I I #
coedge $-1 $410 $221 $224 $334 reversed $319 $-1 #
coedge $-1 $221 $410 $325 $414 forward $319 $-1 #
vertex $-1 $222 $418 #
straight-curve $-1 -79.398174993133338 -22.697002063098772 67.596441187617586 0 0 1 I I #
straight-curve $-1 -79.398174993133352 -22.697002063098772 0.52594078708267489 -0.84804809178421925 0 -0.52991927123019833 I I #
edge $-1 $412 8.1113533673530238 $225 22.697002063098772 $329 $419 forward 7 unknown #
point $-1 -79.398174993133338 -22.697002063098772 21.630812724689392 #
point $-1 -45.623320320481191 -22.697002063098772 21.630812724689392 #
edge $-1 $420 1 $420 0 $228 $-1 forward 7 unknown #
vertex $-1 $229 $421 #
ellipse-curve $-1 -58.518927419441916 -15.404177715225899 4.6901291135904604 -0.52991927123019833 0 0.84804809178421925 1.6960961835684385 0 1.0598385424603967 1 I I #
point $-1 -60.814651473238811 -15.404177715225899 12.138215298346424 #
loop $-1 $-1 $240 $232 #
plane-surface $-1 -79.398174993133338 0 0 1 0 0 0 0 -1 forward_v I I I I #
coedge $-1 $344 $235 $237 $348 reversed $146 $-1 #
coedge $-1 $235 $343 $422 $423 reversed $146 $-1 #
coedge $-1 $243 $238 $235 $346 forward $233 $-1 #
edge $-1 $349 -36.150390205454464 $424 -2.3755355328023171 $345 $425 forward 7 unknown #
coedge $-1 $237 $236 $352 $426 reversed $91 $-1 #
edge $-1 $427 1.675811683274863e-014 $349 39.826579412015199 $343 $428 forward 7 unknown #
vertex $-1 $239 $429 #
straight-curve $-1 -45.623320320481191 9.3612818737055896 21.630812724689392 0 1 0 I I #
coedge $-1 $422 $240 $243 $356 reversed $341 $-1 #
coedge $-1 $240 $422 $347 $426 forward $341 $-1 #
vertex $-1 $241 $430 #
straight-curve $-1 -79.398174993133338 11.429739399538304 67.596441187617586 0 0 1 I I #
straight-curve $-1 -79.398174993133352 11.429739399538304 0.52594078708267489 -0.84804809178421925 0 -0.52991927123019833 I I #
edge $-1 $424 -26.015388095284052 $244 -11.429739399538304 $351 $431 forward 7 unknown #
point $-1 -79.398174993133338 11.429739399538304 21.630812724689392 #
point $-1 -45.623320320481191 11.429739399538304 21.630812724689392 #
edge $-1 $432 1 $432 0 $247 $-1 forward 7 unknown #
vertex $-1 $248 $433 #
ellipse-curve $-1 -58.518927419441916 18.722563747411179 4.6901291135904604 -0.52991927123019833 0 0.84804809178421925 1.6960961835684385 0 1.0598385424603967 1 I I #
point $-1 -60.814651473238811 18.722563747411179 12.138215298346424 #
plane-surface $-1 79.398174993133338 0 0 -1 0 0 0 0 1 forward_v I I I I #
coedge $-1 $256 $254 $258 $368 reversed $161 $-1 #
edge $-1 $269 -21.630812724689392 $370 21.630812724689392 $268 $434 forward 7 unknown #
vertex $-1 $368 $435 #
straight-curve $-1 -79.398174993133338 -45.556480862175398 0 0 0 -1 I I #
edge $-1 $366 -45.556480862175398 $370 45.556480862175398 $364 $436 forward 7 unknown #
straight-curve $-1 0 -45.556480862175398 -21.630812724689392 -1 0 0 I I #
vertex $-1 $261 $437 #
straight-curve $-1 0 45.556480862175398 -21.630812724689392 1 0 0 I I #
point $-1 79.398174993133338 45.556480862175398 -21.630812724689392 #
point $-1 79.398174993133338 -45.556480862175398 -21.630812724689392 #
straight-curve $-1 -79.398174993133338 0 21.630812724689392 0 -1 0 I I #
point $-1 -79.398174993133338 45.556480862175398 21.630812724689392 #
point $-1 -79.398174993133338 -45.556480862175398 21.630812724689392 #
straight-curve $-1 79.398174993133338 -45.556480862175398 0 0 0 -1 I I #
straight-curve $-1 79.398174993133338 45.556480862175398 0 0 0 -1 I I #
plane-surface $-1 79.398174993133338 0 0 -1 0 0 0 0 1 forward_v I I I I #
coedge $-1 $391 $382 $381 $438 forward $279 $-1 #
coedge $-1 $282 $281 $380 $438 reversed $108 $-1 #
coedge $-1 $380 $439 $283 $383 reversed $279 $-1 #
edge $-1 $384 -79.398174993133338 $387 79.398174993133338 $382 $440 forward 7 unknown #
vertex $-1 $284 $441 #
straight-curve $-1 -79.398174993133338 0 21.630812724689392 0 -1 0 I I #
coedge $-1 $291 $285 $439 $442 forward $292 $-1 #
vertex $-1 $286 $443 #
straight-curve $-1 79.398174993133338 0 21.630812724689392 0 1 0 I I #
point $-1 79.398174993133338 -45.556480862175398 21.630812724689392 #
point $-1 -79.398174993133338 -45.556480862175398 21.630812724689392 #
coedge $-1 $439 $380 $294 $392 reversed $279 $-1 #
edge $-1 $393 -79.398174993133338 $395 79.398174993133338 $391 $444 forward 7 unknown #
vertex $-1 $442 $445 #
straight-curve $-1 79.398174993133338 -56.986220261713711 14.15314104105504 0 -1 0 I I #
vertex $-1 $296 $446 #
straight-curve $-1 -79.398174993133338 -56.986220261713711 14.15314104105504 0 1 0 I I #
edge $-1 $400 -27.567930209689596 $309 -8.4091710952819945 $308 $447 forward 7 unknown #
coedge $-1 $399 $302 $404 $448 reversed $299 $-1 #
coedge $-1 $302 $398 $304 $402 forward $299 $-1 #
vertex $-1 $303 $449 #
straight-curve $-1 15.18011909330373 45.556480862175398 89.61409610654853 -0.64278759981090572 0 0.76604445140561861 I I #
edge $-1 $406 -21.630812724689392 $305 -13.081995274808619 $304 $450 forward 7 unknown #
point $-1 79.398174993133338 45.556480862175398 13.081995274808619 #
coedge $-1 $308 $307 $398 $448 forward $196 $-1 #
point $-1 72.224865611742331 26.39772174776779 21.630812724689392 #
vertex $-1 $312 $451 #
straight-curve $-1 79.398174993133338 0 21.630812724689392 0 1 0 I I #
vertex $-1 $315 $452 #
point $-1 69.775052672011739 35.97710130497159 9.0276881820300048 #
coedge $-1 $330 $329 $322 $411 forward $319 $-1 #
edge $-1 $412 45.965628462928194 $415 67.070500400534897 $410 $453 forward 7 unknown #
vertex $-1 $334 $454 #
straight-curve $-1 -81.773710525935655 -8.1113533673530238 21.630812724689392 -1 0 0 I I #
edge $-1 $415 0.40926450974007444 $331 14.994913205485823 $330 $455 forward 7 unknown #
vertex $-1 $414 $456 #
straight-curve $-1 -79.398174993133352 -8.1113533673530238 0.52594078708267489 0.84804809178421925 0 0.52991927123019833 I I #
point $-1 -45.623320320481191 -8.1113533673530238 21.630812724689392 #
point $-1 -79.398174993133338 -22.697002063098772 0.52594078708268377 #
straight-curve $-1 -79.398174993133338 0 21.630812724689392 0 -1 0 I I #
vertex $-1 $337 $457 #
point $-1 -56.82283123587348 -15.404177715225899 5.7499676560508561 #
coedge $-1 $352 $351 $344 $423 forward $341 $-1 #
edge $-1 $424 45.965628462928194 $427 67.070500400534897 $422 $458 forward 7 unknown #
vertex $-1 $356 $459 #
straight-curve $-1 -81.773710525935655 26.015388095284052 21.630812724689392 -1 0 0 I I #
edge $-1 $427 -16.654106221578463 $353 -2.0684575258327147 $352 $460 forward 7 unknown #
vertex $-1 $426 $461 #
straight-curve $-1 -79.398174993133352 26.015388095284052 0.52594078708267489 0.84804809178421925 0 0.52991927123019833 I I #
point $-1 -45.623320320481191 26.015388095284052 21.630812724689392 #
point $-1 -79.398174993133338 11.429739399538304 0.52594078708268377 #
straight-curve $-1 -79.398174993133338 0 21.630812724689392 0 -1 0 I I #
vertex $-1 $359 $462 #
point $-1 -56.82283123587348 18.722563747411179 5.7499676560508561 #
straight-curve $-1 -79.398174993133338 45.556480862175398 0 0 0 -1 I I #
point $-1 -79.398174993133338 -45.556480862175398 -21.630812724689392 #
straight-curve $-1 -79.398174993133338 0 -21.630812724689392 0 1 0 I I #
point $-1 -79.398174993133338 45.556480862175398 -21.630812724689392 #
edge $-1 $384 -3.7388358418171741 $395 3.7388358418171741 $381 $463 forward 7 unknown #
coedge $-1 $382 $391 $386 $442 reversed $279 $-1 #
straight-curve $-1 0 -68.415959661252018 21.630812724689388 1 0 0 I I #
point $-1 -79.398174993133338 -68.415959661252018 21.630812724689388 #
edge $-1 $387 -3.7388358418171741 $393 3.7388358418171741 $386 $464 forward 7 unknown #
point $-1 79.398174993133338 -68.415959661252018 21.630812724689388 #
straight-curve $-1 0 -68.415959661252018 14.15314104105504 -1 0 0 I I #
point $-1 79.398174993133338 -68.415959661252018 14.15314104105504 #
point $-1 -79.398174993133338 -68.415959661252018 14.15314104105504 #
straight-curve $-1 72.224865611742331 17.988550652485795 21.630812724689392 0 -1 0 I I #
edge $-1 $406 -79.398174993133338 $400 -72.224865611742331 $398 $465 forward 7 unknown #
point $-1 72.224865611742331 45.556480862175391 21.630812724689392 #
straight-curve $-1 79.398174993133338 45.556480862175398 0 0 0 -1 I I #
point $-1 79.398174993133338 45.556480862175398 21.630812724689392 #
point $-1 66.252972543970429 35.97710130497159 9.3358303110167871 #
straight-curve $-1 -79.398174993133338 -8.1113533673530238 67.596441187617586 0 0 -1 I I #
point $-1 -79.398174993133338 -8.1113533673530238 21.630812724689392 #
straight-curve $-1 -79.398174993133338 -7.7020888576129494 0.52594078708268466 0 -1 0 I I #
point $-1 -79.398174993133338 -8.1113533673530238 0.52594078708268377 #
point $-1 -57.459088876981518 -15.404177715225899 2.9940329300220214 #
straight-curve $-1 -79.398174993133338 26.015388095284052 67.596441187617586 0 0 -1 I I #
point $-1 -79.398174993133338 26.015388095284052 21.630812724689392 #
straight-curve $-1 -79.398174993133338 9.3612818737055896 0.52594078708268466 0 -1 0 I I #
point $-1 -79.398174993133338 26.015388095284052 0.52594078708268377 #
point $-1 -57.459088876981518 18.722563747411179 2.9940329300220214 #
straight-curve $-1 -79.398174993133338 -68.415959661252018 17.891976882872214 0 0 -1 I I #
straight-curve $-1 79.398174993133338 -68.415959661252018 17.891976882872214 0 0 -1 I I #
straight-curve $-1 0 45.556480862175398 21.630812724689392 -1 0 0 I I #
End-of-ACIS-data 