500 0 5 0           
7 Unknown 11 ACIS 5.0 NT 24 Fri Mar 26 15:01:32 1999 
-1 9.9999999999999995e-007 1e-010 
body $-1 $5 $-1 $6 #
body $-1 $7 $-1 $8 #
body $-1 $9 $-1 $10 #
body $-1 $11 $-1 $12 #
body $-1 $13 $-1 $14 #
lump $-1 $-1 $15 $0 #
transform $-1 1 0 0 0 1 0 0 0 1 56.409192175054173 24.803035895300471 8.3980004803738861 1 rotate no_reflect no_shear #
lump $-1 $-1 $16 $1 #
transform $-1 1 0 0 0 1 0 0 0 1 56.409192175054173 24.803035895300471 8.3980004803738861 1 rotate no_reflect no_shear #
lump $-1 $-1 $17 $2 #
transform $-1 1 0 0 0 1 0 0 0 1 56.409192175054173 24.803035895300471 8.3980004803738861 1 rotate no_reflect no_shear #
lump $-1 $-1 $18 $3 #
transform $-1 1 0 0 0 1 0 0 0 1 56.409192175054173 24.803035895300471 8.3980004803738861 1 rotate no_reflect no_shear #
lump $-1 $-1 $19 $4 #
transform $-1 1 0 0 0 1 0 0 0 1 56.409192175054173 24.803035895300471 8.3980004803738861 1 rotate no_reflect no_shear #
shell $-1 $-1 $-1 $20 $-1 $5 #
shell $-1 $-1 $-1 $21 $-1 $7 #
shell $-1 $-1 $-1 $22 $-1 $9 #
shell $-1 $-1 $-1 $23 $-1 $11 #
shell $-1 $-1 $-1 $24 $-1 $13 #
face $-1 $25 $26 $15 $-1 $27 forward single #
face $-1 $28 $29 $16 $-1 $30 forward single #
face $-1 $31 $32 $17 $-1 $33 reversed single #
face $-1 $34 $35 $18 $-1 $36 forward single #
face $-1 $37 $38 $19 $-1 $39 forward single #
face $-1 $40 $41 $15 $-1 $42 reversed single #
loop $-1 $-1 $43 $20 #
plane-surface $-1 0 0 8.3980004803738861 0 0 1 1 0 0 forward_v I I I I #
face $-1 $44 $45 $16 $-1 $46 reversed single #
loop $-1 $-1 $47 $21 #
plane-surface $-1 0 -19.890878387232004 -3.3885202780577779 0 0 1 1 0 0 forward_v I I I I #
face $-1 $48 $49 $17 $-1 $50 reversed single #
loop $-1 $-1 $51 $22 #
plane-surface $-1 -121.11915985944772 14.465743699784884 94.157029545213902 0 1 0 -0.57357644374324357 0 0.81915203911291934 forward_v I I I I #
face $-1 $52 $53 $18 $-1 $54 forward single #
loop $-1 $55 $56 $23 #
cone-surface $-1 -51.185298882358111 17.419255755646478 4.3975165623223891 0.57357644374324357 0 -0.81915203911291934 0.81915203911291934 0 0.57357644374324357 1 I I 0 1 1 forward I I I I #
face $-1 $57 $58 $19 $-1 $59 forward single #
loop $-1 $60 $61 $24 #
cone-surface $-1 -51.185298882358111 21.84952383943887 4.3975165623223891 0.57357644374324357 0 -0.81915203911291934 0.81915203911291934 0 0.57357644374324357 1 I I 0 1 1 forward I I I I #
face $-1 $62 $63 $15 $-1 $64 reversed single #
loop $-1 $-1 $65 $25 #
plane-surface $-1 0 0 -8.3980004803738861 0 0 1 1 0 0 forward_v I I I I #
coedge $-1 $66 $67 $68 $69 forward $26 $-1 #
face $-1 $70 $71 $16 $-1 $72 reversed single #
loop $-1 $-1 $73 $28 #
plane-surface $-1 0 -14.978720879163536 -5.8932603792158318 0 -1 0 0 0 -1 forward_v I I I I #
coedge $-1 $74 $75 $76 $77 reversed $29 $-1 #
face $-1 $78 $79 $17 $-1 $80 reversed single #
loop $-1 $-1 $81 $31 #
plane-surface $-1 -56.409192175054173 19.634389797542678 1.7416199553975815 -0.57357644374324357 0 0.81915203911291934 0.81915203911291934 0 0.57357644374324357 forward_v I I I I #
coedge $-1 $82 $83 $84 $85 reversed $32 $-1 #
face $-1 $-1 $86 $18 $-1 $87 forward single #
loop $-1 $88 $89 $34 #
cone-surface $-1 -50.427765565929001 17.419255755646478 3.3156468872025826 0.57357644374324357 0 -0.81915203911291934 0.40957601955645967 0 0.28678822187162178 1 I I -0.70710678118654746 0.70710678118654746 0.5 forward I I I I #
loop $-1 $-1 $90 $23 #
coedge $-1 $56 $56 $91 $92 reversed $35 $-1 #
face $-1 $-1 $93 $19 $-1 $94 forward single #
loop $-1 $95 $96 $37 #
cone-surface $-1 -50.427765565929001 21.84952383943887 3.3156468872025826 0.57357644374324357 0 -0.81915203911291934 0.40957601955645967 0 0.28678822187162178 1 I I -0.70710678118654746 0.70710678118654746 0.5 forward I I I I #
loop $-1 $-1 $97 $24 #
coedge $-1 $61 $61 $98 $99 reversed $38 $-1 #
face $-1 $100 $101 $15 $-1 $102 reversed single #
loop $-1 $-1 $103 $40 #
plane-surface $-1 0 -24.803035895300471 0 0 1 0 0 0 1 forward_v I I I I #
coedge $-1 $104 $105 $106 $107 forward $41 $-1 #
coedge $-1 $108 $43 $109 $110 forward $26 $-1 #
coedge $-1 $43 $108 $111 $112 forward $26 $-1 #
coedge $-1 $113 $114 $43 $69 reversed $115 $-1 #
edge $-1 $116 -24.803035895300471 $117 24.803035895300471 $68 $118 forward 7 unknown #
face $-1 $119 $120 $16 $-1 $121 reversed single #
loop $-1 $-1 $122 $44 #
plane-surface $-1 0 0 -8.3980004803738861 0 0 1 1 0 0 forward_v I I I I #
coedge $-1 $123 $124 $125 $126 reversed $45 $-1 #
coedge $-1 $127 $47 $124 $128 forward $29 $-1 #
coedge $-1 $47 $127 $129 $130 reversed $29 $-1 #
coedge $-1 $131 $125 $47 $77 forward $120 $-1 #
edge $-1 $132 5.033281685547534 $133 14.85759670168447 $76 $134 forward 7 unknown #
face $-1 $135 $136 $17 $-1 $137 reversed single #
loop $-1 $-1 $138 $48 #
plane-surface $-1 0 24.803035895300471 0 0 -1 0 0 0 -1 forward_v I I I I #
coedge $-1 $139 $140 $141 $142 reversed $49 $-1 #
coedge $-1 $83 $51 $143 $144 reversed $32 $-1 #
coedge $-1 $51 $82 $139 $145 reversed $32 $-1 #
coedge $-1 $141 $146 $51 $85 forward $147 $-1 #
edge $-1 $148 4.150387754669687 $149 13.656684150946845 $84 $150 forward 7 unknown #
loop $-1 $-1 $91 $52 #
plane-surface $-1 -56.409192175054173 19.634389797542678 1.7416199553975815 -0.57357644374324357 0 0.81915203911291934 0.81915203911291934 0 0.57357644374324357 forward_v I I I I #
loop $-1 $-1 $151 $34 #
coedge $-1 $89 $89 $90 $152 reversed $53 $-1 #
coedge $-1 $90 $90 $89 $152 forward $55 $-1 #
coedge $-1 $91 $91 $56 $92 forward $86 $-1 #
edge $-1 $153 0 $153 6.2831853071796004 $91 $154 forward 7 unknown #
loop $-1 $-1 $98 $57 #
plane-surface $-1 -56.409192175054173 19.634389797542678 1.7416199553975815 -0.57357644374324357 0 0.81915203911291934 0.81915203911291934 0 0.57357644374324357 forward_v I I I I #
loop $-1 $-1 $155 $37 #
coedge $-1 $96 $96 $97 $156 reversed $58 $-1 #
coedge $-1 $97 $97 $96 $156 forward $60 $-1 #
coedge $-1 $98 $98 $61 $99 forward $93 $-1 #
edge $-1 $157 0 $157 6.2831853071796004 $98 $158 forward 7 unknown #
face $-1 $159 $160 $15 $-1 $161 reversed single #
loop $-1 $-1 $162 $62 #
plane-surface $-1 -56.409192175054173 0 0 1 0 0 0 0 -1 forward_v I I I I #
coedge $-1 $163 $111 $164 $165 forward $63 $-1 #
coedge $-1 $166 $65 $163 $167 forward $41 $-1 #
coedge $-1 $65 $166 $168 $169 forward $41 $-1 #
coedge $-1 $114 $113 $65 $107 reversed $115 $-1 #
edge $-1 $170 -24.803035895300471 $171 24.803035895300471 $106 $172 forward 7 unknown #
coedge $-1 $67 $66 $173 $174 forward $26 $-1 #
coedge $-1 $175 $176 $66 $110 reversed $160 $-1 #
edge $-1 $117 -56.409192175054173 $177 56.409192175054173 $109 $178 forward 7 unknown #
coedge $-1 $103 $179 $67 $112 reversed $63 $-1 #
edge $-1 $180 -56.409192175054173 $116 56.409192175054173 $111 $181 forward 7 unknown #
coedge $-1 $106 $68 $179 $182 forward $115 $-1 #
coedge $-1 $68 $106 $175 $183 reversed $115 $-1 #
loop $-1 $-1 $113 $159 #
vertex $-1 $69 $184 #
vertex $-1 $69 $185 #
straight-curve $-1 56.409192175054173 0 8.3980004803738861 0 1 0 I I #
face $-1 $186 $187 $16 $-1 $188 reversed single #
loop $-1 $-1 $125 $70 #
plane-surface $-1 56.409192175054173 0 0 -1 0 0 0 0 1 forward_v I I I I #
coedge $-1 $189 $190 $123 $191 forward $71 $-1 #
coedge $-1 $192 $73 $122 $191 reversed $45 $-1 #
coedge $-1 $73 $192 $74 $128 reversed $45 $-1 #
coedge $-1 $76 $193 $73 $126 forward $120 $-1 #
edge $-1 $194 -5.4513702907659702 $132 -0.441890088449862 $125 $195 forward 7 unknown #
coedge $-1 $75 $74 $196 $197 reversed $29 $-1 #
edge $-1 $132 -56.409192175054173 $198 56.409192175054173 $124 $199 forward 7 unknown #
coedge $-1 $200 $201 $75 $130 forward $187 $-1 #
edge $-1 $133 -56.409192175054173 $202 56.409192175054173 $129 $203 forward 7 unknown #
coedge $-1 $193 $76 $201 $204 forward $120 $-1 #
vertex $-1 $77 $205 #
vertex $-1 $204 $206 #
straight-curve $-1 56.409192175054173 -9.9454391936160018 -3.3885202780577779 0 -1 0 I I #
face $-1 $-1 $147 $17 $-1 $207 forward single #
loop $-1 $-1 $208 $78 #
plane-surface $-1 -56.409192175054173 0 0 1 0 0 0 0 -1 forward_v I I I I #
coedge $-1 $209 $210 $140 $211 forward $79 $-1 #
coedge $-1 $212 $81 $83 $145 forward $49 $-1 #
coedge $-1 $81 $212 $138 $211 reversed $49 $-1 #
coedge $-1 $213 $84 $81 $142 forward $147 $-1 #
edge $-1 $149 4.6485488010135452 $214 14.985840996529133 $141 $215 forward 7 unknown #
coedge $-1 $216 $208 $82 $144 forward $136 $-1 #
edge $-1 $217 -45.33689481720937 $148 -38.680514292233063 $143 $218 forward 7 unknown #
edge $-1 $149 -11.605045147139924 $217 0 $83 $219 forward 7 unknown #
coedge $-1 $84 $213 $216 $220 forward $147 $-1 #
loop $-1 $-1 $141 $135 #
vertex $-1 $144 $221 #
vertex $-1 $85 $222 #
straight-curve $-1 -60.55957992972386 14.465743699784884 8.3980004803738879 1 0 0 I I #
coedge $-1 $151 $151 $-1 $223 reversed $88 $-1 #
edge $-1 $224 0 $224 6.2831853071796004 $89 $225 forward 7 unknown #
vertex $-1 $92 $226 #
ellipse-curve $-1 -51.656043976915598 17.419255755646478 5.0698102178857321 -0.57357644374324357 0 0.81915203911291934 0.81915203911291934 0 0.57357644374324357 1 I I #
coedge $-1 $155 $155 $-1 $227 reversed $95 $-1 #
edge $-1 $228 0 $228 6.2831853071796004 $96 $229 forward 7 unknown #
vertex $-1 $99 $230 #
ellipse-curve $-1 -51.656043976915598 21.84952383943887 5.0698102178857321 -0.57357644374324357 0 0.81915203911291934 0.81915203911291934 0 0.57357644374324357 1 I I #
face $-1 $-1 $115 $15 $-1 $231 reversed single #
loop $-1 $-1 $175 $100 #
plane-surface $-1 0 24.803035895300471 0 0 -1 0 0 0 -1 forward_v I I I I #
coedge $-1 $232 $173 $176 $233 forward $101 $-1 #
coedge $-1 $179 $103 $104 $167 reversed $63 $-1 #
coedge $-1 $173 $232 $103 $165 reversed $101 $-1 #
edge $-1 $180 -8.3980004803738861 $234 8.3980004803738861 $164 $235 forward 7 unknown #
coedge $-1 $105 $104 $232 $236 forward $41 $-1 #
edge $-1 $171 -56.409192175054173 $234 56.409192175054173 $163 $237 forward 7 unknown #
coedge $-1 $176 $175 $105 $169 reversed $160 $-1 #
edge $-1 $238 -56.409192175054173 $170 56.409192175054173 $168 $239 forward 7 unknown #
vertex $-1 $107 $240 #
vertex $-1 $182 $241 #
straight-curve $-1 56.409192175054173 0 -8.3980004803738861 0 -1 0 I I #
coedge $-1 $162 $164 $108 $174 reversed $101 $-1 #
edge $-1 $177 -24.803035895300471 $180 24.803035895300471 $173 $242 forward 7 unknown #
coedge $-1 $168 $109 $114 $183 forward $160 $-1 #
coedge $-1 $109 $168 $162 $233 reversed $160 $-1 #
vertex $-1 $110 $243 #
straight-curve $-1 0 24.803035895300471 8.3980004803738861 -1 0 0 I I #
coedge $-1 $111 $163 $113 $182 reversed $63 $-1 #
vertex $-1 $174 $244 #
straight-curve $-1 0 -24.803035895300471 8.3980004803738861 1 0 0 I I #
edge $-1 $116 -8.3980004803738861 $171 8.3980004803738861 $113 $245 forward 7 unknown #
edge $-1 $117 -8.3980004803738861 $170 8.3980004803738861 $114 $246 forward 7 unknown #
point $-1 56.409192175054173 -24.803035895300471 8.3980004803738861 #
point $-1 56.409192175054173 24.803035895300471 8.3980004803738861 #
face $-1 $-1 $247 $16 $-1 $248 reversed single #
loop $-1 $-1 $129 $119 #
plane-surface $-1 0 -24.803035895300471 0 0 1 0 0 0 1 forward_v I I I I #
coedge $-1 $249 $122 $193 $250 forward $71 $-1 #
coedge $-1 $122 $249 $251 $252 forward $71 $-1 #
edge $-1 $253 -56.409192175054173 $194 56.409192175054173 $122 $254 forward 7 unknown #
coedge $-1 $124 $123 $255 $256 reversed $45 $-1 #
coedge $-1 $125 $131 $189 $250 reversed $120 $-1 #
vertex $-1 $250 $257 #
straight-curve $-1 56.409192175054173 -14.978720879163536 -2.9466301896079159 0 0 1 I I #
coedge $-1 $255 $258 $127 $197 forward $247 $-1 #
edge $-1 $202 -14.85759670168447 $198 -5.033281685547534 $196 $259 forward 7 unknown #
vertex $-1 $197 $260 #
straight-curve $-1 0 -14.978720879163536 -3.3885202780577779 -1 0 0 I I #
coedge $-1 $261 $129 $258 $262 forward $187 $-1 #
coedge $-1 $129 $261 $131 $204 reversed $187 $-1 #
vertex $-1 $262 $263 #
straight-curve $-1 0 -24.803035895300471 -3.3885202780577779 -1 0 0 I I #
edge $-1 $133 3.3885202780577779 $264 8.3980004803738861 $131 $265 forward 7 unknown #
point $-1 56.409192175054173 -14.978720879163536 -3.3885202780577779 #
point $-1 56.409192175054173 -24.803035895300471 -3.3885202780577779 #
plane-surface $-1 0 0 8.3980004803738861 0 0 1 1 0 0 forward_v I I I I #
coedge $-1 $143 $266 $212 $267 forward $136 $-1 #
coedge $-1 $210 $138 $266 $268 reversed $79 $-1 #
coedge $-1 $138 $209 $213 $269 reversed $79 $-1 #
edge $-1 $214 10.99933116012955 $270 22.604376307269472 $138 $271 forward 7 unknown #
coedge $-1 $140 $139 $208 $267 reversed $49 $-1 #
coedge $-1 $146 $141 $210 $269 forward $147 $-1 #
vertex $-1 $269 $272 #
straight-curve $-1 -46.902895778777008 9.8171948987713389 8.3980004803738879 0 1 0 I I #
coedge $-1 $266 $143 $146 $220 reversed $136 $-1 #
vertex $-1 $144 $273 #
straight-curve $-1 -56.409192175054173 14.465743699784884 47.078514772606951 0 0 1 I I #
straight-curve $-1 -56.409192175054173 14.465743699784884 1.7416199553975815 -0.81915203911291934 0 -0.57357644374324357 I I #
edge $-1 $274 -24.803035895300471 $148 -14.465743699784884 $216 $275 forward 7 unknown #
point $-1 -56.409192175054173 14.465743699784884 8.3980004803738861 #
point $-1 -46.902895778777015 14.465743699784884 8.3980004803738861 #
edge $-1 $276 1 $276 0 $151 $-1 forward 7 unknown #
vertex $-1 $152 $277 #
ellipse-curve $-1 -50.714553787800625 17.419255755646478 3.7252229067590421 -0.57357644374324357 0 0.81915203911291934 0.81915203911291934 0 0.57357644374324357 1 I I #
point $-1 -50.836891937802676 17.419255755646478 5.6433866616289787 #
edge $-1 $278 1 $278 0 $155 $-1 forward 7 unknown #
vertex $-1 $156 $279 #
ellipse-curve $-1 -50.714553787800625 21.84952383943887 3.7252229067590421 -0.57357644374324357 0 0.81915203911291934 0.81915203911291934 0 0.57357644374324357 1 I I #
point $-1 -50.836891937802676 21.84952383943887 5.6433866616289787 #
plane-surface $-1 56.409192175054173 0 0 -1 0 0 0 0 1 forward_v I I I I #
coedge $-1 $164 $162 $166 $236 reversed $101 $-1 #
edge $-1 $177 -8.3980004803738861 $238 8.3980004803738861 $176 $280 forward 7 unknown #
vertex $-1 $236 $281 #
straight-curve $-1 -56.409192175054173 -24.803035895300471 0 0 0 -1 I I #
edge $-1 $234 -24.803035895300471 $238 24.803035895300471 $232 $282 forward 7 unknown #
straight-curve $-1 0 -24.803035895300471 -8.3980004803738861 -1 0 0 I I #
vertex $-1 $169 $283 #
straight-curve $-1 0 24.803035895300471 -8.3980004803738861 1 0 0 I I #
point $-1 56.409192175054173 24.803035895300471 -8.3980004803738861 #
point $-1 56.409192175054173 -24.803035895300471 -8.3980004803738861 #
straight-curve $-1 -56.409192175054173 0 8.3980004803738861 0 -1 0 I I #
point $-1 -56.409192175054173 24.803035895300471 8.3980004803738861 #
point $-1 -56.409192175054173 -24.803035895300471 8.3980004803738861 #
straight-curve $-1 56.409192175054173 -24.803035895300471 0 0 0 -1 I I #
straight-curve $-1 56.409192175054173 24.803035895300471 0 0 0 -1 I I #
loop $-1 $-1 $255 $186 #
plane-surface $-1 -56.409192175054173 0 0 1 0 0 0 0 -1 forward_v I I I I #
coedge $-1 $190 $189 $261 $284 forward $71 $-1 #
edge $-1 $194 14.978720879163536 $264 24.803035895300471 $193 $285 forward 7 unknown #
coedge $-1 $258 $255 $190 $252 reversed $247 $-1 #
edge $-1 $286 -24.803035895300471 $253 -14.978720879163536 $251 $287 forward 7 unknown #
vertex $-1 $256 $288 #
straight-curve $-1 0 -14.978720879163536 -8.3980004803738861 1 0 0 I I #
coedge $-1 $251 $196 $192 $256 forward $247 $-1 #
edge $-1 $198 0.441890088449862 $253 5.4513702907659702 $255 $289 forward 7 unknown #
point $-1 56.409192175054173 -14.978720879163536 -8.3980004803738861 #
coedge $-1 $196 $251 $200 $262 reversed $247 $-1 #
straight-curve $-1 -56.409192175054173 -9.9454391936160018 -3.3885202780577779 0 1 0 I I #
point $-1 -56.409192175054173 -14.978720879163536 -3.3885202780577779 #
coedge $-1 $201 $200 $249 $284 reversed $187 $-1 #
edge $-1 $202 3.3885202780577779 $286 8.3980004803738861 $258 $290 forward 7 unknown #
point $-1 -56.409192175054173 -24.803035895300471 -3.3885202780577779 #
vertex $-1 $204 $291 #
straight-curve $-1 56.409192175054173 -24.803035895300471 0 0 0 -1 I I #
coedge $-1 $208 $216 $209 $268 forward $136 $-1 #
edge $-1 $270 -14.985840996529133 $217 -4.6485488010135452 $208 $292 forward 7 unknown #
edge $-1 $274 -8.3980004803738861 $270 -1.7416199553975815 $209 $293 forward 7 unknown #
edge $-1 $214 46.902895778777015 $274 56.409192175054173 $210 $294 forward 7 unknown #
vertex $-1 $211 $295 #
straight-curve $-1 -37.892771230078623 24.803035895300471 14.706957730755239 -0.81915203911291934 0 -0.57357644374324357 I I #
point $-1 -46.902895778777015 24.803035895300471 8.3980004803738861 #
point $-1 -56.409192175054173 14.465743699784884 1.7416199553975815 #
vertex $-1 $269 $296 #
straight-curve $-1 -56.409192175054173 0 8.3980004803738861 0 -1 0 I I #
vertex $-1 $223 $297 #
point $-1 -49.895401748687704 17.419255755646478 4.2987993505022857 #
vertex $-1 $227 $298 #
point $-1 -49.895401748687704 21.84952383943887 4.2987993505022857 #
straight-curve $-1 -56.409192175054173 24.803035895300471 0 0 0 -1 I I #
point $-1 -56.409192175054173 -24.803035895300471 -8.3980004803738861 #
straight-curve $-1 -56.409192175054173 0 -8.3980004803738861 0 1 0 I I #
point $-1 -56.409192175054173 24.803035895300471 -8.3980004803738861 #
edge $-1 $264 -56.409192175054173 $286 56.409192175054173 $261 $299 forward 7 unknown #
straight-curve $-1 56.409192175054173 0 -8.3980004803738861 0 -1 0 I I #
vertex $-1 $252 $300 #
straight-curve $-1 -56.409192175054173 0 -8.3980004803738861 0 1 0 I I #
point $-1 -56.409192175054173 -14.978720879163536 -8.3980004803738861 #
straight-curve $-1 -56.409192175054173 -14.978720879163536 -2.9466301896079159 0 0 -1 I I #
straight-curve $-1 -56.409192175054173 -24.803035895300471 0 0 0 -1 I I #
point $-1 56.409192175054173 -24.803035895300471 -8.3980004803738861 #
straight-curve $-1 -56.409192175054173 9.8171948987713389 1.7416199553975831 0 -1 0 I I #
straight-curve $-1 -56.409192175054173 24.803035895300471 0 0 0 -1 I I #
straight-curve $-1 0 24.803035895300471 8.3980004803738861 -1 0 0 I I #
point $-1 -56.409192175054173 24.803035895300471 1.7416199553975815 #
point $-1 -56.409192175054173 24.803035895300471 8.3980004803738861 #
point $-1 -50.140977344057376 17.419255755646478 2.9060708676461231 #
point $-1 -50.140977344057376 21.84952383943887 2.9060708676461231 #
straight-curve $-1 0 -24.803035895300471 -8.3980004803738861 -1 0 0 I I #
point $-1 -56.409192175054173 -24.803035895300471 -8.3980004803738861 #
End-of-ACIS-data 