500 0 2 0           
7 Unknown 11 ACIS 5.0 NT 24 Fri Mar 26 20:38:15 1999 
-1 9.9999999999999995e-007 1e-010 
body $-1 $2 $-1 $3 #
body $-1 $4 $-1 $5 #
lump $-1 $-1 $6 $0 #
transform $-1 1 0 0 0 1 0 0 0 1 68.576311532944729 40.205470846529977 8.1813415315228113 1 rotate no_reflect no_shear #
lump $-1 $-1 $7 $1 #
transform $-1 1 0 0 0 1 0 0 0 1 68.576311532944729 40.205470846529977 8.1813415315228113 1 rotate no_reflect no_shear #
shell $-1 $-1 $-1 $8 $-1 $2 #
shell $-1 $-1 $-1 $9 $-1 $4 #
face $-1 $10 $11 $6 $-1 $12 forward single #
face $-1 $13 $14 $7 $-1 $15 forward single #
face $-1 $16 $17 $6 $-1 $18 reversed single #
loop $-1 $-1 $19 $8 #
plane-surface $-1 0 0 8.1813415315228113 0 0 1 1 0 0 forward_v I I I I #
face $-1 $20 $21 $7 $-1 $22 reversed single #
loop $-1 $-1 $23 $9 #
plane-surface $-1 0 -40.205470846529977 0 0 1 0 0 0 1 forward_v I I I I #
face $-1 $24 $25 $6 $-1 $26 reversed single #
loop $-1 $-1 $27 $10 #
plane-surface $-1 0 0 -8.1813415315228113 0 0 1 1 0 0 forward_v I I I I #
coedge $-1 $28 $29 $30 $31 forward $11 $-1 #
face $-1 $32 $33 $7 $-1 $34 reversed single #
loop $-1 $-1 $35 $13 #
plane-surface $-1 0 0 -8.1813415315228113 0 0 1 1 0 0 forward_v I I I I #
coedge $-1 $36 $37 $38 $39 forward $14 $-1 #
face $-1 $40 $41 $6 $-1 $42 reversed single #
loop $-1 $-1 $43 $16 #
plane-surface $-1 0 -40.205470846529977 0 0 1 0 0 0 1 forward_v I I I I #
coedge $-1 $44 $45 $46 $47 forward $17 $-1 #
coedge $-1 $48 $19 $49 $50 forward $11 $-1 #
coedge $-1 $19 $48 $51 $52 forward $11 $-1 #
coedge $-1 $53 $54 $19 $31 reversed $55 $-1 #
edge $-1 $56 -40.205470846529977 $57 40.205470846529977 $30 $58 forward 7 unknown #
face $-1 $59 $60 $7 $-1 $61 reversed single #
loop $-1 $-1 $62 $20 #
plane-surface $-1 -64.550749345089827 -45.903426791517504 0 0 1 0 0 0 1 forward_v I I I I #
coedge $-1 $63 $64 $37 $65 forward $21 $-1 #
coedge $-1 $66 $23 $67 $68 reversed $14 $-1 #
coedge $-1 $23 $66 $35 $65 reversed $14 $-1 #
coedge $-1 $69 $70 $23 $39 reversed $60 $-1 #
edge $-1 $71 -8.1813415315228113 $72 8.1813415315228113 $38 $73 forward 7 unknown #
face $-1 $74 $75 $6 $-1 $76 reversed single #
loop $-1 $-1 $77 $24 #
plane-surface $-1 -68.576311532944729 0 0 1 0 0 0 0 -1 forward_v I I I I #
coedge $-1 $78 $51 $79 $80 forward $25 $-1 #
coedge $-1 $81 $27 $78 $82 forward $17 $-1 #
coedge $-1 $27 $81 $83 $84 forward $17 $-1 #
coedge $-1 $54 $53 $27 $47 reversed $55 $-1 #
edge $-1 $85 -40.205470846529977 $86 40.205470846529977 $46 $87 forward 7 unknown #
coedge $-1 $29 $28 $88 $89 forward $11 $-1 #
coedge $-1 $90 $91 $28 $50 reversed $75 $-1 #
edge $-1 $57 -68.576311532944729 $92 68.576311532944729 $49 $93 forward 7 unknown #
coedge $-1 $43 $94 $29 $52 reversed $25 $-1 #
edge $-1 $95 -68.576311532944729 $56 68.576311532944729 $51 $96 forward 7 unknown #
coedge $-1 $46 $30 $94 $97 forward $55 $-1 #
coedge $-1 $30 $46 $90 $98 reversed $55 $-1 #
loop $-1 $-1 $53 $74 #
vertex $-1 $31 $99 #
vertex $-1 $31 $100 #
straight-curve $-1 68.576311532944729 0 8.1813415315228113 0 1 0 I I #
face $-1 $101 $102 $7 $-1 $103 reversed single #
loop $-1 $-1 $38 $32 #
plane-surface $-1 -66.050749345089827 -43.05444881902374 0 1 0 0 0 0 -1 forward_v I I I I #
coedge $-1 $104 $105 $106 $107 forward $33 $-1 #
coedge $-1 $108 $35 $109 $110 forward $21 $-1 #
coedge $-1 $35 $108 $69 $111 forward $21 $-1 #
edge $-1 $71 -66.050749345089827 $112 -63.050749345089827 $35 $113 forward 7 unknown #
coedge $-1 $37 $36 $114 $115 forward $14 $-1 #
coedge $-1 $116 $117 $36 $68 forward $118 $-1 #
edge $-1 $119 63.050749345089827 $72 66.050749345089827 $67 $120 forward 7 unknown #
coedge $-1 $106 $38 $64 $111 reversed $60 $-1 #
coedge $-1 $38 $106 $116 $121 reversed $60 $-1 #
vertex $-1 $65 $122 #
vertex $-1 $121 $123 #
straight-curve $-1 -66.050749345089827 -40.205470846529977 0 0 0 1 I I #
face $-1 $-1 $55 $6 $-1 $124 reversed single #
loop $-1 $-1 $90 $40 #
plane-surface $-1 0 40.205470846529977 0 0 -1 0 0 0 -1 forward_v I I I I #
coedge $-1 $125 $88 $91 $126 forward $41 $-1 #
coedge $-1 $94 $43 $44 $82 reversed $25 $-1 #
coedge $-1 $88 $125 $43 $80 reversed $41 $-1 #
edge $-1 $95 -8.1813415315228113 $127 8.1813415315228113 $79 $128 forward 7 unknown #
coedge $-1 $45 $44 $125 $129 forward $17 $-1 #
edge $-1 $86 -68.576311532944729 $127 68.576311532944729 $78 $130 forward 7 unknown #
coedge $-1 $91 $90 $45 $84 reversed $75 $-1 #
edge $-1 $131 -68.576311532944729 $85 68.576311532944729 $83 $132 forward 7 unknown #
vertex $-1 $47 $133 #
vertex $-1 $97 $134 #
straight-curve $-1 68.576311532944729 0 -8.1813415315228113 0 -1 0 I I #
coedge $-1 $77 $79 $48 $89 reversed $41 $-1 #
edge $-1 $92 -40.205470846529977 $95 40.205470846529977 $88 $135 forward 7 unknown #
coedge $-1 $83 $49 $54 $98 forward $75 $-1 #
coedge $-1 $49 $83 $77 $126 reversed $75 $-1 #
vertex $-1 $50 $136 #
straight-curve $-1 0 40.205470846529977 8.1813415315228113 -1 0 0 I I #
coedge $-1 $51 $78 $53 $97 reversed $25 $-1 #
vertex $-1 $89 $137 #
straight-curve $-1 0 -40.205470846529977 8.1813415315228113 1 0 0 I I #
edge $-1 $56 -8.1813415315228113 $86 8.1813415315228113 $53 $138 forward 7 unknown #
edge $-1 $57 -8.1813415315228113 $85 8.1813415315228113 $54 $139 forward 7 unknown #
point $-1 68.576311532944729 -40.205470846529977 8.1813415315228113 #
point $-1 68.576311532944729 40.205470846529977 8.1813415315228113 #
face $-1 $-1 $118 $7 $-1 $140 forward single #
loop $-1 $-1 $141 $59 #
plane-surface $-1 -63.050749345089827 -43.05444881902374 0 -1 0 0 0 0 1 forward_v I I I I #
coedge $-1 $142 $62 $108 $143 reversed $33 $-1 #
coedge $-1 $62 $142 $144 $145 reversed $33 $-1 #
coedge $-1 $70 $69 $62 $107 reversed $60 $-1 #
edge $-1 $146 -8.1813415315228113 $147 8.1813415315228113 $106 $148 forward 7 unknown #
coedge $-1 $64 $63 $104 $143 forward $21 $-1 #
coedge $-1 $114 $141 $63 $110 reversed $102 $-1 #
edge $-1 $112 -2.8489779724937634 $149 2.8489779724937634 $109 $150 forward 7 unknown #
edge $-1 $147 -2.8489779724937634 $71 2.8489779724937634 $69 $151 forward 7 unknown #
vertex $-1 $110 $152 #
straight-curve $-1 0 -40.205470846529977 -8.1813415315228113 1 0 0 I I #
coedge $-1 $153 $109 $66 $115 reversed $102 $-1 #
edge $-1 $119 -8.1813415315228113 $112 8.1813415315228113 $114 $154 forward 7 unknown #
coedge $-1 $144 $67 $70 $121 forward $118 $-1 #
coedge $-1 $67 $144 $153 $155 forward $118 $-1 #
loop $-1 $-1 $67 $101 #
vertex $-1 $68 $156 #
straight-curve $-1 0 -40.205470846529977 8.1813415315228113 -1 0 0 I I #
edge $-1 $72 -2.8489779724937634 $146 2.8489779724937634 $70 $157 forward 7 unknown #
point $-1 -66.050749345089827 -40.205470846529977 -8.1813415315228113 #
point $-1 -66.050749345089827 -40.205470846529977 8.1813415315228113 #
plane-surface $-1 68.576311532944729 0 0 -1 0 0 0 0 1 forward_v I I I I #
coedge $-1 $79 $77 $81 $129 reversed $41 $-1 #
edge $-1 $92 -8.1813415315228113 $131 8.1813415315228113 $91 $158 forward 7 unknown #
vertex $-1 $129 $159 #
straight-curve $-1 -68.576311532944729 -40.205470846529977 0 0 0 -1 I I #
edge $-1 $127 -40.205470846529977 $131 40.205470846529977 $125 $160 forward 7 unknown #
straight-curve $-1 0 -40.205470846529977 -8.1813415315228113 -1 0 0 I I #
vertex $-1 $84 $161 #
straight-curve $-1 0 40.205470846529977 -8.1813415315228113 1 0 0 I I #
point $-1 68.576311532944729 40.205470846529977 -8.1813415315228113 #
point $-1 68.576311532944729 -40.205470846529977 -8.1813415315228113 #
straight-curve $-1 -68.576311532944729 0 8.1813415315228113 0 -1 0 I I #
point $-1 -68.576311532944729 40.205470846529977 8.1813415315228113 #
point $-1 -68.576311532944729 -40.205470846529977 8.1813415315228113 #
straight-curve $-1 68.576311532944729 -40.205470846529977 0 0 0 -1 I I #
straight-curve $-1 68.576311532944729 40.205470846529977 0 0 0 -1 I I #
plane-surface $-1 0 0 8.1813415315228113 0 0 1 1 0 0 forward_v I I I I #
coedge $-1 $109 $153 $142 $162 forward $102 $-1 #
coedge $-1 $105 $104 $141 $162 reversed $33 $-1 #
edge $-1 $149 -1.5 $147 1.5 $104 $163 forward 7 unknown #
coedge $-1 $117 $116 $105 $145 forward $118 $-1 #
edge $-1 $146 -1.5 $164 1.5 $105 $165 forward 7 unknown #
vertex $-1 $121 $166 #
vertex $-1 $111 $167 #
straight-curve $-1 -66.050749345089827 -45.903426791517504 0 0 0 -1 I I #
vertex $-1 $162 $168 #
straight-curve $-1 -63.050749345089827 -43.05444881902374 -8.1813415315228113 0 -1 0 I I #
straight-curve $-1 -66.050749345089827 -43.05444881902374 -8.1813415315228113 0 1 0 I I #
point $-1 -63.050749345089827 -40.205470846529977 -8.1813415315228113 #
coedge $-1 $141 $114 $117 $155 reversed $102 $-1 #
straight-curve $-1 -63.050749345089827 -40.205470846529977 0 0 0 -1 I I #
edge $-1 $164 -2.8489779724937634 $119 2.8489779724937634 $153 $169 forward 7 unknown #
point $-1 -63.050749345089827 -40.205470846529977 8.1813415315228113 #
straight-curve $-1 -66.050749345089827 -43.05444881902374 8.1813415315228113 0 -1 0 I I #
straight-curve $-1 -68.576311532944729 40.205470846529977 0 0 0 -1 I I #
point $-1 -68.576311532944729 -40.205470846529977 -8.1813415315228113 #
straight-curve $-1 -68.576311532944729 0 -8.1813415315228113 0 1 0 I I #
point $-1 -68.576311532944729 40.205470846529977 -8.1813415315228113 #
edge $-1 $164 -8.1813415315228113 $149 8.1813415315228113 $141 $170 forward 7 unknown #
straight-curve $-1 -64.550749345089827 -45.903426791517504 -8.1813415315228113 -1 0 0 I I #
vertex $-1 $155 $171 #
straight-curve $-1 -64.550749345089827 -45.903426791517504 8.1813415315228113 1 0 0 I I #
point $-1 -66.050749345089827 -45.903426791517504 8.1813415315228113 #
point $-1 -66.050749345089827 -45.903426791517504 -8.1813415315228113 #
point $-1 -63.050749345089827 -45.903426791517504 -8.1813415315228113 #
straight-curve $-1 -63.050749345089827 -43.05444881902374 8.1813415315228113 0 1 0 I I #
straight-curve $-1 -63.050749345089827 -45.903426791517504 0 0 0 -1 I I #
point $-1 -63.050749345089827 -45.903426791517504 8.1813415315228113 #
End-of-ACIS-data 