500 0 11 0           
7 Unknown 11 ACIS 5.0 NT 24 Fri Mar 26 14:57:03 1999 
-1 9.9999999999999995e-007 1e-010 
body $-1 $11 $-1 $12 #
body $-1 $13 $-1 $14 #
body $-1 $15 $-1 $16 #
body $-1 $17 $-1 $18 #
body $-1 $19 $-1 $20 #
body $-1 $21 $-1 $22 #
body $-1 $23 $-1 $24 #
body $-1 $25 $-1 $26 #
body $-1 $27 $-1 $28 #
body $-1 $29 $-1 $30 #
body $-1 $31 $-1 $32 #
lump $-1 $-1 $33 $0 #
transform $-1 1 0 0 0 1 0 0 0 1 70.607623523667101 30.982712257697997 8.1515537697565978 1 rotate no_reflect no_shear #
lump $-1 $-1 $34 $1 #
transform $-1 1 0 0 0 1 0 0 0 1 70.607623523667101 30.982712257697997 8.1515537697565978 1 rotate no_reflect no_shear #
lump $-1 $-1 $35 $2 #
transform $-1 1 0 0 0 1 0 0 0 1 70.607623523667101 30.982712257697997 8.1515537697565978 1 rotate no_reflect no_shear #
lump $-1 $-1 $36 $3 #
transform $-1 1 0 0 0 1 0 0 0 1 70.607623523667101 30.982712257697997 8.1515537697565978 1 rotate no_reflect no_shear #
lump $-1 $-1 $37 $4 #
transform $-1 1 0 0 0 1 0 0 0 1 70.607623523667101 30.982712257697997 8.1515537697565978 1 rotate no_reflect no_shear #
lump $-1 $-1 $38 $5 #
transform $-1 1 0 0 0 1 0 0 0 1 70.607623523667101 30.982712257697997 8.1515537697565978 1 rotate no_reflect no_shear #
lump $-1 $-1 $39 $6 #
transform $-1 1 0 0 0 1 0 0 0 1 70.607623523667101 30.982712257697997 8.1515537697565978 1 rotate no_reflect no_shear #
lump $-1 $-1 $40 $7 #
transform $-1 1 0 0 0 1 0 0 0 1 70.607623523667101 30.982712257697997 8.1515537697565978 1 rotate no_reflect no_shear #
lump $-1 $-1 $41 $8 #
transform $-1 1 0 0 0 1 0 0 0 1 70.607623523667101 30.982712257697997 8.1515537697565978 1 rotate no_reflect no_shear #
lump $-1 $-1 $42 $9 #
transform $-1 1 0 0 0 1 0 0 0 1 70.607623523667101 30.982712257697997 8.1515537697565978 1 rotate no_reflect no_shear #
lump $-1 $-1 $43 $10 #
transform $-1 1 0 0 0 1 0 0 0 1 70.607623523667101 30.982712257697997 8.1515537697565978 1 rotate no_reflect no_shear #
shell $-1 $-1 $-1 $44 $-1 $11 #
shell $-1 $-1 $-1 $45 $-1 $13 #
shell $-1 $-1 $-1 $46 $-1 $15 #
shell $-1 $-1 $-1 $47 $-1 $17 #
shell $-1 $-1 $-1 $48 $-1 $19 #
shell $-1 $-1 $-1 $49 $-1 $21 #
shell $-1 $-1 $-1 $50 $-1 $23 #
shell $-1 $-1 $-1 $51 $-1 $25 #
shell $-1 $-1 $-1 $52 $-1 $27 #
shell $-1 $-1 $-1 $53 $-1 $29 #
shell $-1 $-1 $-1 $54 $-1 $31 #
face $-1 $55 $56 $33 $-1 $57 forward single #
face $-1 $58 $59 $34 $-1 $60 forward single #
face $-1 $61 $62 $35 $-1 $63 forward single #
face $-1 $64 $65 $36 $-1 $66 reversed single #
face $-1 $67 $68 $37 $-1 $69 forward single #
face $-1 $70 $71 $38 $-1 $72 reversed single #
face $-1 $73 $74 $39 $-1 $75 forward single #
face $-1 $76 $77 $40 $-1 $78 reversed single #
face $-1 $79 $80 $41 $-1 $81 forward single #
face $-1 $82 $83 $42 $-1 $84 forward single #
face $-1 $85 $86 $43 $-1 $87 forward single #
face $-1 $88 $89 $33 $-1 $90 reversed single #
loop $-1 $-1 $91 $44 #
plane-surface $-1 0 0 8.1515537697565978 0 0 1 1 0 0 forward_v I I I I #
face $-1 $92 $93 $34 $-1 $94 reversed single #
loop $-1 $-1 $95 $45 #
plane-surface $-1 0 -26.292204181598134 5.7972118824420136 0 0 1 1 0 0 forward_v I I I I #
face $-1 $96 $97 $35 $-1 $98 reversed single #
loop $-1 $-1 $99 $46 #
plane-surface $-1 0 26.292204181598137 5.7972118824420136 0 0 1 1 0 0 forward_v I I I I #
face $-1 $100 $101 $36 $-1 $102 reversed single #
loop $-1 $-1 $103 $47 #
plane-surface $-1 53.201881392065175 -7.3038345537099687 203.8278192043262 0 1 0 0.64278761758704617 0 0.76604443648966558 forward_v I I I I #
face $-1 $104 $105 $37 $-1 $106 forward single #
loop $-1 $107 $108 $48 #
cone-surface $-1 68.040704648968841 -3.6519172768549844 5.7800547838880316 -0.64278761758704617 0 -0.76604443648966558 0.76604443648966558 0 -0.64278761758704617 1 I I 0 1 1 forward I I I I #
face $-1 $109 $110 $38 $-1 $111 reversed single #
loop $-1 $-1 $112 $49 #
plane-surface $-1 53.201881392065175 14.297861551788305 203.8278192043262 0 1 0 0.64278761758704617 0 0.76604443648966558 forward_v I I I I #
face $-1 $113 $114 $39 $-1 $115 forward single #
loop $-1 $116 $117 $50 #
cone-surface $-1 68.040704648968841 17.949778828643289 5.7800547838880316 -0.64278761758704617 0 -0.76604443648966558 0.76604443648966558 0 -0.64278761758704617 1 I I 0 1 1 forward I I I I #
face $-1 $118 $119 $40 $-1 $120 reversed single #
loop $-1 $-1 $121 $51 #
plane-surface $-1 -189.04069609774069 2.1889558894971763 81.914946014737282 0 1 0 -0.83867057594974714 0 0.54463902268945019 forward_v I I I I #
face $-1 $122 $123 $41 $-1 $124 forward single #
loop $-1 $125 $126 $52 #
cone-surface $-1 -69.051832421108386 3.7655268270246793 6.2310313736802367 0.83867057594974714 0 -0.54463902268945019 0.2723195113447251 0 0.41933528797487357 1 I I 0 1 0.5 forward I I I I #
face $-1 $127 $128 $42 $-1 $129 forward single #
loop $-1 $130 $131 $53 #
cone-surface $-1 -69.051832421108386 6.1303832333159392 6.2310313736802367 0.83867057594974714 0 -0.54463902268945019 0.2723195113447251 0 0.41933528797487357 1 I I 0 1 0.5 forward I I I I #
face $-1 $132 $133 $43 $-1 $134 forward single #
loop $-1 $135 $136 $54 #
cone-surface $-1 -69.051832421108386 8.4952396396071919 6.2310313736802367 0.83867057594974714 0 -0.54463902268945019 0.2723195113447251 0 0.41933528797487357 1 I I 0 1 0.5 forward I I I I #
face $-1 $137 $138 $33 $-1 $139 reversed single #
loop $-1 $-1 $140 $55 #
plane-surface $-1 0 0 -8.1515537697565978 0 0 1 1 0 0 forward_v I I I I #
coedge $-1 $141 $142 $143 $144 forward $56 $-1 #
face $-1 $145 $146 $34 $-1 $147 reversed single #
loop $-1 $-1 $148 $58 #
plane-surface $-1 0 -26.292204181598134 2.7972118824420136 0 0 1 1 0 0 forward_v I I I I #
coedge $-1 $149 $150 $151 $152 reversed $59 $-1 #
face $-1 $153 $154 $35 $-1 $155 reversed single #
loop $-1 $-1 $156 $61 #
plane-surface $-1 0 26.292204181598137 2.7972118824420136 0 0 1 1 0 0 forward_v I I I I #
coedge $-1 $157 $158 $159 $160 reversed $62 $-1 #
face $-1 $161 $162 $36 $-1 $163 reversed single #
loop $-1 $-1 $164 $64 #
plane-surface $-1 -37.569530824456933 -3.6519172768549844 95.65066485620217 0.64278761758704617 0 0.76604443648966558 0.76604443648966558 0 -0.64278761758704617 forward_v I I I I #
coedge $-1 $165 $166 $167 $168 reversed $65 $-1 #
face $-1 $-1 $169 $37 $-1 $170 forward single #
loop $-1 $171 $172 $67 #
cone-surface $-1 67.102280238546157 -3.6519172768549844 4.6616841448129147 -0.64278761758704617 0 -0.76604443648966558 0.38302221824483279 0 -0.32139380879352308 1 I I -0.70710678118654746 0.70710678118654746 0.5 forward I I I I #
loop $-1 $-1 $173 $48 #
coedge $-1 $108 $108 $174 $175 reversed $68 $-1 #
face $-1 $176 $177 $38 $-1 $178 reversed single #
loop $-1 $-1 $179 $70 #
plane-surface $-1 -37.569530824456933 17.949778828643289 95.65066485620217 0.64278761758704617 0 0.76604443648966558 0.76604443648966558 0 -0.64278761758704617 forward_v I I I I #
coedge $-1 $180 $181 $182 $183 reversed $71 $-1 #
face $-1 $-1 $184 $39 $-1 $185 forward single #
loop $-1 $186 $187 $73 #
cone-surface $-1 67.102280238546157 17.949778828643289 4.6616841448129147 -0.64278761758704617 0 -0.76604443648966558 0.38302221824483279 0 -0.32139380879352308 1 I I -0.70710678118654746 0.70710678118654746 0.5 forward I I I I #
loop $-1 $-1 $188 $50 #
coedge $-1 $117 $117 $189 $190 reversed $74 $-1 #
face $-1 $191 $192 $40 $-1 $193 reversed single #
loop $-1 $-1 $194 $76 #
plane-surface $-1 -70.607623523667087 6.1303832333159392 5.0036118740279107 -0.83867057594974714 0 0.54463902268945019 0.54463902268945019 0 0.83867057594974714 forward_v I I I I #
coedge $-1 $195 $196 $197 $198 reversed $77 $-1 #
face $-1 $-1 $199 $41 $-1 $200 forward single #
loop $-1 $201 $202 $79 #
cone-surface $-1 -68.308522326690209 3.7655268270246793 5.748320169795841 0.83867057594974714 0 -0.54463902268945019 0.13615975567236255 0 0.20966764398743679 1 I I -0.70710678118654746 0.70710678118654746 0.25 forward I I I I #
loop $-1 $-1 $203 $52 #
coedge $-1 $126 $126 $204 $205 reversed $80 $-1 #
face $-1 $-1 $206 $42 $-1 $207 forward single #
loop $-1 $208 $209 $82 #
cone-surface $-1 -68.308522326690209 6.1303832333159392 5.748320169795841 0.83867057594974714 0 -0.54463902268945019 0.13615975567236255 0 0.20966764398743679 1 I I -0.70710678118654746 0.70710678118654746 0.25 forward I I I I #
loop $-1 $-1 $210 $53 #
coedge $-1 $131 $131 $211 $212 reversed $83 $-1 #
face $-1 $-1 $213 $43 $-1 $214 forward single #
loop $-1 $215 $216 $85 #
cone-surface $-1 -68.308522326690209 8.4952396396071919 5.748320169795841 0.83867057594974714 0 -0.54463902268945019 0.13615975567236255 0 0.20966764398743679 1 I I -0.70710678118654746 0.70710678118654746 0.25 forward I I I I #
loop $-1 $-1 $217 $54 #
coedge $-1 $136 $136 $218 $219 reversed $86 $-1 #
face $-1 $220 $221 $33 $-1 $222 reversed single #
loop $-1 $-1 $223 $88 #
plane-surface $-1 0 -30.982712257697997 0 0 1 0 0 0 1 forward_v I I I I #
coedge $-1 $224 $225 $226 $227 forward $89 $-1 #
coedge $-1 $228 $91 $229 $230 forward $56 $-1 #
coedge $-1 $91 $228 $231 $232 forward $56 $-1 #
coedge $-1 $233 $234 $91 $144 reversed $235 $-1 #
edge $-1 $236 -30.982712257697997 $237 30.982712257697997 $143 $238 forward 7 unknown #
face $-1 $239 $240 $34 $-1 $241 reversed single #
loop $-1 $-1 $242 $92 #
plane-surface $-1 0 -21.60169610549827 4.2972118824420136 0 -1 0 0 0 -1 forward_v I I I I #
coedge $-1 $243 $244 $245 $246 reversed $93 $-1 #
coedge $-1 $247 $95 $248 $249 forward $59 $-1 #
coedge $-1 $95 $247 $250 $251 reversed $59 $-1 #
coedge $-1 $252 $253 $95 $152 forward $254 $-1 #
edge $-1 $255 8.4555940146992032 $256 17.836610166898929 $151 $257 forward 7 unknown #
face $-1 $258 $259 $35 $-1 $260 reversed single #
loop $-1 $-1 $261 $96 #
plane-surface $-1 0 21.601696105498274 4.2972118824420136 0 1 0 0 0 1 forward_v I I I I #
coedge $-1 $262 $263 $264 $265 reversed $97 $-1 #
coedge $-1 $266 $99 $267 $268 reversed $62 $-1 #
coedge $-1 $99 $266 $269 $270 forward $62 $-1 #
coedge $-1 $271 $272 $99 $160 forward $259 $-1 #
edge $-1 $273 -17.836610166898932 $274 -8.455594014699205 $159 $275 forward 7 unknown #
face $-1 $276 $277 $36 $-1 $278 forward single #
loop $-1 $-1 $279 $100 #
plane-surface $-1 53.201881392065175 0 203.8278192043262 0 -1 0 -0.64278761758704617 0 -0.76604443648966558 forward_v I I I I #
coedge $-1 $280 $281 $282 $283 reversed $101 $-1 #
coedge $-1 $166 $103 $284 $285 reversed $65 $-1 #
coedge $-1 $103 $165 $280 $286 reversed $65 $-1 #
coedge $-1 $282 $287 $103 $168 forward $288 $-1 #
edge $-1 $289 93.762355832406499 $290 97.034656962483041 $167 $291 forward 7 unknown #
loop $-1 $-1 $174 $104 #
plane-surface $-1 -37.569530824456933 -3.6519172768549844 95.65066485620217 0.64278761758704617 0 0.76604443648966558 0.76604443648966558 0 -0.64278761758704617 forward_v I I I I #
loop $-1 $-1 $292 $67 #
coedge $-1 $172 $172 $173 $293 reversed $105 $-1 #
coedge $-1 $173 $173 $172 $293 forward $107 $-1 #
coedge $-1 $174 $174 $108 $175 forward $169 $-1 #
edge $-1 $294 0 $294 6.2831853071796004 $174 $295 forward 7 unknown #
face $-1 $296 $297 $38 $-1 $298 forward single #
loop $-1 $-1 $182 $109 #
plane-surface $-1 70.607623523667101 0 0 -1 0 0 0 0 1 forward_v I I I I #
coedge $-1 $299 $300 $301 $302 reversed $110 $-1 #
coedge $-1 $181 $112 $303 $304 reversed $71 $-1 #
coedge $-1 $112 $180 $299 $305 reversed $71 $-1 #
coedge $-1 $301 $306 $112 $183 forward $177 $-1 #
edge $-1 $307 93.762355832406499 $308 97.034656962483041 $182 $309 forward 7 unknown #
loop $-1 $-1 $189 $113 #
plane-surface $-1 -37.569530824456933 17.949778828643289 95.65066485620217 0.64278761758704617 0 0.76604443648966558 0.76604443648966558 0 -0.64278761758704617 forward_v I I I I #
loop $-1 $-1 $310 $73 #
coedge $-1 $187 $187 $188 $311 reversed $114 $-1 #
coedge $-1 $188 $188 $187 $311 forward $116 $-1 #
coedge $-1 $189 $189 $117 $190 forward $184 $-1 #
edge $-1 $312 0 $312 6.2831853071796004 $189 $313 forward 7 unknown #
face $-1 $314 $315 $40 $-1 $316 reversed single #
loop $-1 $-1 $317 $118 #
plane-surface $-1 -189.04069609774069 10.071810577134702 81.914946014737282 0 -1 0 0.83867057594974714 0 -0.54463902268945019 forward_v I I I I #
coedge $-1 $318 $319 $320 $321 reversed $119 $-1 #
coedge $-1 $196 $121 $322 $323 reversed $77 $-1 #
coedge $-1 $121 $195 $318 $324 reversed $77 $-1 #
coedge $-1 $320 $325 $121 $198 forward $326 $-1 #
edge $-1 $327 23.912724525203245 $328 25.957021829459208 $197 $329 forward 7 unknown #
loop $-1 $-1 $204 $122 #
plane-surface $-1 -70.607623523667087 6.1303832333159392 5.0036118740279107 -0.83867057594974714 0 0.54463902268945019 0.54463902268945019 0 0.83867057594974714 forward_v I I I I #
loop $-1 $-1 $330 $79 #
coedge $-1 $202 $202 $203 $331 reversed $123 $-1 #
coedge $-1 $203 $203 $202 $331 forward $125 $-1 #
coedge $-1 $204 $204 $126 $205 forward $199 $-1 #
edge $-1 $332 0 $332 6.2831853071796004 $204 $333 forward 7 unknown #
loop $-1 $-1 $211 $127 #
plane-surface $-1 -70.607623523667087 6.1303832333159392 5.0036118740279107 -0.83867057594974714 0 0.54463902268945019 0.54463902268945019 0 0.83867057594974714 forward_v I I I I #
loop $-1 $-1 $334 $82 #
coedge $-1 $209 $209 $210 $335 reversed $128 $-1 #
coedge $-1 $210 $210 $209 $335 forward $130 $-1 #
coedge $-1 $211 $211 $131 $212 forward $206 $-1 #
edge $-1 $336 0 $336 6.2831853071796004 $211 $337 forward 7 unknown #
loop $-1 $-1 $218 $132 #
plane-surface $-1 -70.607623523667087 6.1303832333159392 5.0036118740279107 -0.83867057594974714 0 0.54463902268945019 0.54463902268945019 0 0.83867057594974714 forward_v I I I I #
loop $-1 $-1 $338 $85 #
coedge $-1 $216 $216 $217 $339 reversed $133 $-1 #
coedge $-1 $217 $217 $216 $339 forward $135 $-1 #
coedge $-1 $218 $218 $136 $219 forward $213 $-1 #
edge $-1 $340 0 $340 6.2831853071796004 $218 $341 forward 7 unknown #
face $-1 $342 $343 $33 $-1 $344 reversed single #
loop $-1 $-1 $345 $137 #
plane-surface $-1 -70.607623523667101 0 0 1 0 0 0 0 -1 forward_v I I I I #
coedge $-1 $346 $231 $347 $348 forward $138 $-1 #
coedge $-1 $349 $140 $346 $350 forward $89 $-1 #
coedge $-1 $140 $349 $351 $352 forward $89 $-1 #
coedge $-1 $234 $233 $140 $227 reversed $235 $-1 #
edge $-1 $353 -30.982712257697997 $354 30.982712257697997 $226 $355 forward 7 unknown #
coedge $-1 $142 $141 $356 $357 forward $56 $-1 #
coedge $-1 $358 $359 $141 $230 reversed $343 $-1 #
edge $-1 $237 -70.607623523667101 $360 70.607623523667101 $229 $361 forward 7 unknown #
coedge $-1 $223 $362 $142 $232 reversed $138 $-1 #
edge $-1 $363 -70.607623523667101 $236 70.607623523667101 $231 $364 forward 7 unknown #
coedge $-1 $226 $143 $362 $365 forward $235 $-1 #
coedge $-1 $143 $226 $358 $366 reversed $235 $-1 #
loop $-1 $-1 $233 $342 #
vertex $-1 $144 $367 #
vertex $-1 $144 $368 #
straight-curve $-1 70.607623523667101 0 8.1515537697565978 0 1 0 I I #
face $-1 $369 $370 $34 $-1 $371 reversed single #
loop $-1 $-1 $372 $145 #
plane-surface $-1 -70.607623523667101 0 0 1 0 0 0 0 -1 forward_v I I I I #
coedge $-1 $373 $248 $253 $374 reversed $146 $-1 #
coedge $-1 $375 $148 $376 $377 reversed $93 $-1 #
coedge $-1 $148 $375 $373 $378 forward $93 $-1 #
coedge $-1 $253 $252 $148 $246 forward $254 $-1 #
edge $-1 $379 -17.836610166898929 $380 -8.4555940146992032 $245 $381 forward 7 unknown #
coedge $-1 $150 $149 $372 $382 reversed $59 $-1 #
coedge $-1 $242 $383 $149 $249 reversed $146 $-1 #
edge $-1 $255 -70.607623523667101 $384 70.607623523667101 $248 $385 forward 7 unknown #
coedge $-1 $386 $387 $150 $251 forward $370 $-1 #
edge $-1 $256 -70.607623523667101 $388 70.607623523667101 $250 $389 forward 7 unknown #
coedge $-1 $245 $151 $387 $390 forward $254 $-1 #
coedge $-1 $151 $245 $242 $374 forward $254 $-1 #
loop $-1 $-1 $151 $369 #
vertex $-1 $152 $391 #
vertex $-1 $390 $392 #
straight-curve $-1 70.607623523667101 -13.146102090799067 5.7972118824420136 0 -1 0 I I #
face $-1 $393 $394 $35 $-1 $395 reversed single #
loop $-1 $-1 $159 $153 #
plane-surface $-1 70.607623523667101 0 0 -1 0 0 0 0 1 forward_v I I I I #
coedge $-1 $396 $269 $397 $398 reversed $154 $-1 #
coedge $-1 $399 $156 $396 $400 forward $97 $-1 #
coedge $-1 $156 $399 $401 $402 reversed $97 $-1 #
coedge $-1 $272 $271 $156 $265 forward $259 $-1 #
edge $-1 $403 8.455594014699205 $404 17.836610166898932 $264 $405 forward 7 unknown #
coedge $-1 $158 $157 $406 $407 reversed $62 $-1 #
coedge $-1 $408 $409 $157 $268 forward $410 $-1 #
edge $-1 $411 -70.607623523667101 $273 70.607623523667101 $267 $412 forward 7 unknown #
coedge $-1 $261 $413 $158 $270 reversed $154 $-1 #
edge $-1 $414 -70.607623523667101 $274 70.607623523667101 $269 $415 forward 7 unknown #
coedge $-1 $264 $159 $413 $416 forward $259 $-1 #
coedge $-1 $159 $264 $408 $417 reversed $259 $-1 #
vertex $-1 $417 $418 #
vertex $-1 $160 $419 #
straight-curve $-1 70.607623523667101 13.146102090799069 5.7972118824420136 0 -1 0 I I #
face $-1 $-1 $288 $36 $-1 $420 reversed single #
loop $-1 $-1 $421 $161 #
plane-surface $-1 0 0 8.1515537697565978 0 0 1 1 0 0 forward_v I I I I #
coedge $-1 $422 $423 $424 $425 reversed $162 $-1 #
coedge $-1 $426 $164 $166 $286 forward $101 $-1 #
coedge $-1 $164 $426 $422 $427 forward $101 $-1 #
coedge $-1 $424 $167 $164 $283 forward $288 $-1 #
edge $-1 $290 -5.4778759152824765 $428 1.8259586384274922 $282 $429 forward 7 unknown #
coedge $-1 $430 $431 $165 $285 forward $277 $-1 #
edge $-1 $432 40.106906281496386 $289 44.006682827634513 $284 $433 forward 7 unknown #
edge $-1 $290 -141.2152470473342 $432 -136.1244502731829 $166 $434 forward 7 unknown #
coedge $-1 $167 $424 $430 $435 reversed $288 $-1 #
loop $-1 $-1 $424 $276 #
vertex $-1 $435 $436 #
vertex $-1 $168 $437 #
straight-curve $-1 70.607623523667101 -7.3038345537099687 101.9139096021631 0 0 -1 I I #
coedge $-1 $292 $292 $-1 $438 reversed $171 $-1 #
edge $-1 $439 0 $439 6.2831853071796004 $172 $440 forward 7 unknown #
vertex $-1 $175 $441 #
ellipse-curve $-1 68.657735250598023 -3.6519172768549844 6.5154032047183392 0.64278761758704617 0 0.76604443648966558 0.76604443648966558 0 -0.64278761758704617 1 I I #
face $-1 $-1 $442 $38 $-1 $443 forward single #
loop $-1 $-1 $444 $176 #
plane-surface $-1 0 21.601696105498274 4.2972118824420136 0 1 0 0 0 1 forward_v I I I I #
coedge $-1 $445 $179 $181 $305 forward $110 $-1 #
coedge $-1 $179 $445 $444 $446 forward $110 $-1 #
coedge $-1 $447 $182 $179 $302 forward $177 $-1 #
edge $-1 $308 5.3229721374666603 $448 12.626806691176629 $301 $449 forward 7 unknown #
coedge $-1 $450 $451 $180 $304 forward $442 $-1 #
edge $-1 $452 40.106906281496386 $307 44.006682827634513 $303 $453 forward 7 unknown #
edge $-1 $308 -141.2152470473342 $452 -136.1244502731829 $181 $454 forward 7 unknown #
coedge $-1 $182 $447 $450 $455 reversed $177 $-1 #
vertex $-1 $455 $456 #
vertex $-1 $183 $457 #
straight-curve $-1 70.607623523667101 14.297861551788305 101.9139096021631 0 0 -1 I I #
coedge $-1 $310 $310 $-1 $458 reversed $186 $-1 #
edge $-1 $459 0 $459 6.2831853071796004 $187 $460 forward 7 unknown #
vertex $-1 $190 $461 #
ellipse-curve $-1 68.657735250598023 17.949778828643289 6.5154032047183392 0.64278761758704617 0 0.76604443648966558 0.76604443648966558 0 -0.64278761758704617 1 I I #
face $-1 $-1 $326 $40 $-1 $462 forward single #
loop $-1 $-1 $463 $191 #
plane-surface $-1 -70.607623523667101 0 0 1 0 0 0 0 -1 forward_v I I I I #
coedge $-1 $464 $465 $466 $467 reversed $192 $-1 #
coedge $-1 $468 $194 $196 $324 forward $119 $-1 #
coedge $-1 $194 $468 $464 $469 forward $119 $-1 #
coedge $-1 $466 $197 $194 $321 forward $326 $-1 #
edge $-1 $328 -0.87623572716079323 $470 7.0066189604767324 $320 $471 forward 7 unknown #
coedge $-1 $472 $473 $195 $323 forward $315 $-1 #
edge $-1 $474 -35.953861133340752 $327 -32.805919237612045 $322 $475 forward 7 unknown #
edge $-1 $328 -3.7534903286237542 $474 2.636201369357039e-014 $196 $476 forward 7 unknown #
coedge $-1 $197 $466 $472 $477 forward $326 $-1 #
loop $-1 $-1 $466 $314 #
vertex $-1 $323 $478 #
vertex $-1 $198 $479 #
straight-curve $-1 -94.520348048870346 2.1889558894971763 8.1515537697565961 1 0 0 I I #
coedge $-1 $330 $330 $-1 $480 reversed $201 $-1 #
edge $-1 $481 0 $481 6.2831853071796004 $202 $482 forward 7 unknown #
vertex $-1 $205 $483 #
ellipse-curve $-1 -69.58547487153912 3.7655268270246793 6.577582821892257 -0.83867057594974714 0 0.54463902268945019 0.2723195113447251 0 0.41933528797487357 1 I I #
coedge $-1 $334 $334 $-1 $484 reversed $208 $-1 #
edge $-1 $485 0 $485 6.2831853071796004 $209 $486 forward 7 unknown #
vertex $-1 $212 $487 #
ellipse-curve $-1 -69.58547487153912 6.1303832333159392 6.577582821892257 -0.83867057594974714 0 0.54463902268945019 0.2723195113447251 0 0.41933528797487357 1 I I #
coedge $-1 $338 $338 $-1 $488 reversed $215 $-1 #
edge $-1 $489 0 $489 6.2831853071796004 $216 $490 forward 7 unknown #
vertex $-1 $219 $491 #
ellipse-curve $-1 -69.58547487153912 8.4952396396071919 6.577582821892257 -0.83867057594974714 0 0.54463902268945019 0.2723195113447251 0 0.41933528797487357 1 I I #
face $-1 $-1 $235 $33 $-1 $492 reversed single #
loop $-1 $-1 $358 $220 #
plane-surface $-1 0 30.982712257697997 0 0 -1 0 0 0 -1 forward_v I I I I #
coedge $-1 $493 $356 $359 $494 forward $221 $-1 #
coedge $-1 $362 $223 $224 $350 reversed $138 $-1 #
coedge $-1 $356 $493 $223 $348 reversed $221 $-1 #
edge $-1 $363 -8.1515537697565978 $495 8.1515537697565978 $347 $496 forward 7 unknown #
coedge $-1 $225 $224 $493 $497 forward $89 $-1 #
edge $-1 $354 -70.607623523667101 $495 70.607623523667101 $346 $498 forward 7 unknown #
coedge $-1 $359 $358 $225 $352 reversed $343 $-1 #
edge $-1 $499 -70.607623523667101 $353 70.607623523667101 $351 $500 forward 7 unknown #
vertex $-1 $227 $501 #
vertex $-1 $365 $502 #
straight-curve $-1 70.607623523667101 0 -8.1515537697565978 0 -1 0 I I #
coedge $-1 $345 $347 $228 $357 reversed $221 $-1 #
edge $-1 $360 -30.982712257697997 $363 30.982712257697997 $356 $503 forward 7 unknown #
coedge $-1 $351 $229 $234 $366 forward $343 $-1 #
coedge $-1 $229 $351 $345 $494 reversed $343 $-1 #
vertex $-1 $230 $504 #
straight-curve $-1 0 30.982712257697997 8.1515537697565978 -1 0 0 I I #
coedge $-1 $231 $346 $233 $365 reversed $138 $-1 #
vertex $-1 $357 $505 #
straight-curve $-1 0 -30.982712257697997 8.1515537697565978 1 0 0 I I #
edge $-1 $236 -8.1515537697565978 $354 8.1515537697565978 $233 $506 forward 7 unknown #
edge $-1 $237 -8.1515537697565978 $353 8.1515537697565978 $234 $507 forward 7 unknown #
point $-1 70.607623523667101 -30.982712257697997 8.1515537697565978 #
point $-1 70.607623523667101 30.982712257697997 8.1515537697565978 #
face $-1 $-1 $254 $34 $-1 $508 reversed single #
loop $-1 $-1 $250 $239 #
plane-surface $-1 0 -30.982712257697997 0 0 1 0 0 0 1 forward_v I I I I #
coedge $-1 $509 $510 $247 $382 forward $240 $-1 #
coedge $-1 $383 $242 $244 $378 reversed $146 $-1 #
edge $-1 $380 0.64860594122100679 $255 3.6486059412210068 $253 $511 forward 7 unknown #
coedge $-1 $244 $243 $512 $513 reversed $93 $-1 #
coedge $-1 $387 $386 $243 $377 forward $370 $-1 #
edge $-1 $514 -70.607623523667101 $379 70.607623523667101 $376 $515 forward 7 unknown #
edge $-1 $516 -70.607623523667101 $380 70.607623523667101 $373 $517 forward 7 unknown #
vertex $-1 $377 $518 #
vertex $-1 $246 $519 #
straight-curve $-1 70.607623523667101 -13.146102090799067 2.7972118824420136 0 1 0 I I #
edge $-1 $388 -17.836610166898929 $384 -8.4555940146992032 $372 $520 forward 7 unknown #
coedge $-1 $248 $373 $509 $521 reversed $146 $-1 #
vertex $-1 $382 $522 #
straight-curve $-1 0 -21.60169610549827 5.7972118824420136 -1 0 0 I I #
coedge $-1 $376 $250 $510 $523 forward $370 $-1 #
coedge $-1 $250 $376 $252 $390 reversed $370 $-1 #
vertex $-1 $523 $524 #
straight-curve $-1 0 -30.982712257697997 5.7972118824420136 -1 0 0 I I #
edge $-1 $256 -5.7972118824420136 $379 -2.7972118824420136 $252 $525 forward 7 unknown #
point $-1 70.607623523667101 -21.60169610549827 5.7972118824420136 #
point $-1 70.607623523667101 -30.982712257697997 5.7972118824420136 #
face $-1 $-1 $410 $35 $-1 $526 reversed single #
loop $-1 $-1 $406 $258 #
plane-surface $-1 -70.607623523667101 0 0 1 0 0 0 0 -1 forward_v I I I I #
coedge $-1 $413 $261 $262 $400 reversed $154 $-1 #
coedge $-1 $406 $527 $261 $398 forward $394 $-1 #
edge $-1 $528 0.64860594122100679 $414 3.6486059412210068 $397 $529 forward 7 unknown #
coedge $-1 $263 $262 $527 $530 reversed $97 $-1 #
edge $-1 $403 -70.607623523667101 $528 70.607623523667101 $396 $531 forward 7 unknown #
coedge $-1 $409 $408 $263 $402 forward $410 $-1 #
edge $-1 $404 -70.607623523667101 $532 70.607623523667101 $401 $533 forward 7 unknown #
vertex $-1 $265 $534 #
vertex $-1 $402 $535 #
straight-curve $-1 70.607623523667101 13.146102090799069 2.7972118824420136 0 1 0 I I #
coedge $-1 $536 $397 $266 $407 forward $394 $-1 #
edge $-1 $414 8.455594014699205 $411 17.836610166898932 $406 $537 forward 7 unknown #
coedge $-1 $401 $267 $272 $417 forward $410 $-1 #
coedge $-1 $267 $401 $536 $538 reversed $410 $-1 #
loop $-1 $-1 $267 $393 #
vertex $-1 $538 $539 #
straight-curve $-1 0 30.982712257697997 5.7972118824420136 1 0 0 I I #
coedge $-1 $269 $396 $271 $416 reversed $154 $-1 #
vertex $-1 $407 $540 #
straight-curve $-1 0 21.601696105498274 5.7972118824420136 1 0 0 I I #
edge $-1 $274 -3.6486059412210068 $403 -0.64860594122100679 $271 $541 forward 7 unknown #
edge $-1 $273 -5.7972118824420136 $404 -2.7972118824420136 $272 $542 forward 7 unknown #
point $-1 70.607623523667101 30.982712257698001 5.7972118824420136 #
point $-1 70.607623523667101 21.601696105498274 5.7972118824420136 #
plane-surface $-1 70.607623523667101 0 0 -1 0 0 0 0 1 forward_v I I I I #
coedge $-1 $431 $430 $423 $543 forward $277 $-1 #
coedge $-1 $423 $279 $281 $427 reversed $162 $-1 #
coedge $-1 $279 $422 $421 $543 reversed $162 $-1 #
coedge $-1 $287 $282 $279 $425 forward $288 $-1 #
edge $-1 $428 -97.034656962483041 $544 -93.762355832406499 $424 $545 forward 7 unknown #
coedge $-1 $281 $280 $431 $546 reversed $101 $-1 #
edge $-1 $547 136.1244502731829 $428 141.2152470473342 $422 $548 forward 7 unknown #
vertex $-1 $283 $549 #
straight-curve $-1 70.607623523667087 -1.8259586384274922 4.8792526396800753 0 1 0 I I #
coedge $-1 $421 $284 $287 $435 forward $277 $-1 #
coedge $-1 $284 $421 $426 $546 forward $277 $-1 #
vertex $-1 $285 $550 #
straight-curve $-1 26.600940696032588 -7.3038345537099687 8.1515537697566032 1 0 0 I I #
straight-curve $-1 -37.569530824456933 -7.3038345537099687 95.65066485620217 -0.76604443648966558 0 0.64278761758704617 I I #
edge $-1 $289 -7.3038345537099687 $544 0 $287 $551 forward 7 unknown #
point $-1 70.607623523667101 -7.3038345537099687 8.1515537697565978 #
point $-1 70.607623523667101 -7.3038345537099687 4.8792526396800611 #
edge $-1 $552 1 $552 0 $292 $-1 forward 7 unknown #
vertex $-1 $293 $553 #
ellipse-curve $-1 67.423674047339674 -3.6519172768549844 5.0447063630577471 0.64278761758704617 0 0.76604443648966558 0.76604443648966558 0 -0.64278761758704617 1 I I #
point $-1 69.423779687087688 -3.6519172768549844 5.8726155871312704 #
loop $-1 $-1 $303 $296 #
plane-surface $-1 0 0 8.1515537697565978 0 0 1 1 0 0 forward_v I I I I #
coedge $-1 $554 $555 $300 $446 reversed $297 $-1 #
coedge $-1 $300 $299 $451 $556 reversed $110 $-1 #
edge $-1 $557 136.1244502731829 $448 141.2152470473342 $444 $558 forward 7 unknown #
coedge $-1 $306 $301 $555 $559 forward $177 $-1 #
vertex $-1 $559 $560 #
straight-curve $-1 70.607623523667087 8.9748894143216447 4.8792526396800753 0 1 0 I I #
coedge $-1 $561 $303 $306 $455 forward $442 $-1 #
coedge $-1 $303 $561 $445 $556 forward $442 $-1 #
vertex $-1 $304 $562 #
straight-curve $-1 26.600940696032588 14.297861551788305 8.1515537697566032 1 0 0 I I #
straight-curve $-1 -37.569530824456933 14.297861551788305 95.65066485620217 -0.76604443648966558 0 0.64278761758704617 I I #
edge $-1 $307 14.297861551788305 $563 21.601696105498274 $306 $564 forward 7 unknown #
point $-1 70.607623523667101 14.297861551788305 8.1515537697565978 #
point $-1 70.607623523667101 14.297861551788305 4.8792526396800611 #
edge $-1 $565 1 $565 0 $310 $-1 forward 7 unknown #
vertex $-1 $311 $566 #
ellipse-curve $-1 67.423674047339674 17.949778828643289 5.0447063630577471 0.64278761758704617 0 0.76604443648966558 0.76604443648966558 0 -0.64278761758704617 1 I I #
point $-1 69.423779687087688 17.949778828643289 5.8726155871312704 #
plane-surface $-1 0 0 8.1515537697565978 0 0 1 1 0 0 forward_v I I I I #
coedge $-1 $473 $472 $465 $567 forward $315 $-1 #
coedge $-1 $465 $317 $319 $469 reversed $192 $-1 #
coedge $-1 $317 $464 $463 $567 reversed $192 $-1 #
coedge $-1 $325 $320 $317 $467 forward $326 $-1 #
edge $-1 $470 -25.957021829459208 $568 -23.912724525203245 $466 $569 forward 7 unknown #
coedge $-1 $319 $318 $473 $570 reversed $119 $-1 #
edge $-1 $571 -2.636201369357039e-014 $470 3.7534903286237542 $464 $572 forward 7 unknown #
vertex $-1 $321 $573 #
straight-curve $-1 -68.563326219411138 3.0651916166579696 8.1515537697565961 0 1 0 I I #
coedge $-1 $463 $322 $325 $477 reversed $315 $-1 #
coedge $-1 $322 $463 $468 $570 forward $315 $-1 #
vertex $-1 $323 $574 #
straight-curve $-1 -70.607623523667101 2.1889558894971763 40.957473007368641 0 0 1 I I #
straight-curve $-1 -70.607623523667087 2.1889558894971763 5.0036118740279107 -0.54463902268945019 0 -0.83867057594974714 I I #
edge $-1 $568 -10.071810577134702 $327 -2.1889558894971763 $472 $575 forward 7 unknown #
point $-1 -70.607623523667101 2.1889558894971763 8.1515537697565978 #
point $-1 -68.563326219411138 2.1889558894971763 8.1515537697565978 #
edge $-1 $576 1 $576 0 $330 $-1 forward 7 unknown #
vertex $-1 $331 $577 #
ellipse-curve $-1 -68.518189970677639 3.7655268270246793 5.8844799254682032 -0.83867057594974714 0 0.54463902268945019 0.2723195113447251 0 0.41933528797487357 1 I I #
point $-1 -69.313155360194415 3.7655268270246793 6.9969181098671429 #
edge $-1 $578 1 $578 0 $334 $-1 forward 7 unknown #
vertex $-1 $335 $579 #
ellipse-curve $-1 -68.518189970677639 6.1303832333159392 5.8844799254682032 -0.83867057594974714 0 0.54463902268945019 0.2723195113447251 0 0.41933528797487357 1 I I #
point $-1 -69.313155360194415 6.1303832333159392 6.9969181098671429 #
edge $-1 $580 1 $580 0 $338 $-1 forward 7 unknown #
vertex $-1 $339 $581 #
ellipse-curve $-1 -68.518189970677639 8.4952396396071919 5.8844799254682032 -0.83867057594974714 0 0.54463902268945019 0.2723195113447251 0 0.41933528797487357 1 I I #
point $-1 -69.313155360194415 8.4952396396071919 6.9969181098671429 #
plane-surface $-1 70.607623523667101 0 0 -1 0 0 0 0 1 forward_v I I I I #
coedge $-1 $347 $345 $349 $497 reversed $221 $-1 #
edge $-1 $360 -8.1515537697565978 $499 8.1515537697565978 $359 $582 forward 7 unknown #
vertex $-1 $497 $583 #
straight-curve $-1 -70.607623523667101 -30.982712257697997 0 0 0 -1 I I #
edge $-1 $495 -30.982712257697997 $499 30.982712257697997 $493 $584 forward 7 unknown #
straight-curve $-1 0 -30.982712257697997 -8.1515537697565978 -1 0 0 I I #
vertex $-1 $352 $585 #
straight-curve $-1 0 30.982712257697997 -8.1515537697565978 1 0 0 I I #
point $-1 70.607623523667101 30.982712257697997 -8.1515537697565978 #
point $-1 70.607623523667101 -30.982712257697997 -8.1515537697565978 #
straight-curve $-1 -70.607623523667101 0 8.1515537697565978 0 -1 0 I I #
point $-1 -70.607623523667101 30.982712257697997 8.1515537697565978 #
point $-1 -70.607623523667101 -30.982712257697997 8.1515537697565978 #
straight-curve $-1 70.607623523667101 -30.982712257697997 0 0 0 -1 I I #
straight-curve $-1 70.607623523667101 30.982712257697997 0 0 0 -1 I I #
plane-surface $-1 70.607623523667101 0 0 -1 0 0 0 0 1 forward_v I I I I #
coedge $-1 $512 $372 $383 $521 forward $240 $-1 #
coedge $-1 $372 $512 $386 $523 reversed $240 $-1 #
straight-curve $-1 70.607623523667101 -21.60169610549827 2.1486059412210068 0 0 1 I I #
coedge $-1 $510 $509 $375 $513 forward $240 $-1 #
edge $-1 $516 8.4555940146992032 $514 17.836610166898929 $512 $586 forward 7 unknown #
vertex $-1 $377 $587 #
straight-curve $-1 0 -30.982712257697997 2.7972118824420136 1 0 0 I I #
vertex $-1 $513 $588 #
straight-curve $-1 0 -21.60169610549827 2.7972118824420136 1 0 0 I I #
point $-1 70.607623523667101 -30.982712257697997 2.7972118824420136 #
point $-1 70.607623523667101 -21.60169610549827 2.7972118824420136 #
straight-curve $-1 -70.607623523667101 -13.146102090799067 5.7972118824420136 0 1 0 I I #
edge $-1 $384 -3.6486059412210068 $516 -0.64860594122100679 $509 $589 forward 7 unknown #
point $-1 -70.607623523667101 -21.60169610549827 5.7972118824420136 #
edge $-1 $388 -5.7972118824420136 $514 -2.7972118824420136 $510 $590 forward 7 unknown #
point $-1 -70.607623523667101 -30.982712257697997 5.7972118824420136 #
straight-curve $-1 70.607623523667101 -30.982712257697997 0 0 0 -1 I I #
plane-surface $-1 0 30.982712257697997 0 0 -1 0 0 0 -1 forward_v I I I I #
coedge $-1 $397 $536 $399 $530 forward $394 $-1 #
vertex $-1 $530 $591 #
straight-curve $-1 -70.607623523667101 21.601696105498274 2.1486059412210068 0 0 1 I I #
edge $-1 $532 -17.836610166898932 $528 -8.455594014699205 $527 $592 forward 7 unknown #
straight-curve $-1 0 21.601696105498274 2.7972118824420136 -1 0 0 I I #
vertex $-1 $402 $593 #
straight-curve $-1 0 30.982712257697997 2.7972118824420136 -1 0 0 I I #
point $-1 70.607623523667101 21.601696105498274 2.7972118824420136 #
point $-1 70.607623523667101 30.982712257698001 2.7972118824420136 #
coedge $-1 $527 $406 $409 $538 forward $394 $-1 #
straight-curve $-1 -70.607623523667101 13.146102090799069 5.7972118824420136 0 1 0 I I #
edge $-1 $411 -5.7972118824420136 $532 -2.7972118824420136 $409 $594 forward 7 unknown #
point $-1 -70.607623523667101 30.982712257698001 5.7972118824420136 #
point $-1 -70.607623523667101 21.601696105498274 5.7972118824420136 #
straight-curve $-1 70.607623523667101 21.601696105498274 2.1486059412210068 0 0 -1 I I #
straight-curve $-1 70.607623523667101 30.982712257697997 0 0 0 -1 I I #
edge $-1 $544 -44.006682827634513 $547 -40.106906281496386 $421 $595 forward 7 unknown #
vertex $-1 $543 $596 #
straight-curve $-1 70.607623523667101 0 101.9139096021631 0 0 1 I I #
edge $-1 $547 -1.8259586384274922 $432 5.4778759152824765 $431 $597 forward 7 unknown #
vertex $-1 $546 $598 #
straight-curve $-1 -37.569530824456933 0 95.65066485620217 0.76604443648966558 0 -0.64278761758704617 I I #
point $-1 70.607623523667101 0 4.8792526396800611 #
point $-1 66.707846977528973 -7.3038345537099687 8.1515537697566032 #
straight-curve $-1 70.607623523667101 0 8.1515537697565978 0 1 0 I I #
vertex $-1 $438 $599 #
point $-1 68.189718483829353 -3.6519172768549844 4.4019187454707014 #
coedge $-1 $555 $444 $561 $600 reversed $297 $-1 #
coedge $-1 $444 $554 $447 $559 reversed $297 $-1 #
edge $-1 $557 -12.626806691176629 $452 -5.3229721374666603 $451 $601 forward 7 unknown #
vertex $-1 $600 $602 #
straight-curve $-1 -37.569530824456933 21.601696105498274 95.65066485620217 0.76604443648966558 0 -0.64278761758704617 I I #
edge $-1 $448 -97.034656962483041 $563 -93.762355832406499 $447 $603 forward 7 unknown #
point $-1 70.607623523667101 21.601696105498274 4.8792526396800611 #
coedge $-1 $451 $450 $554 $600 forward $442 $-1 #
point $-1 66.707846977528973 14.297861551788305 8.1515537697566032 #
vertex $-1 $600 $604 #
straight-curve $-1 70.607623523667101 0 8.1515537697565978 0 1 0 I I #
vertex $-1 $458 $605 #
point $-1 68.189718483829353 17.949778828643289 4.4019187454707014 #
edge $-1 $568 32.805919237612045 $571 35.953861133340752 $463 $606 forward 7 unknown #
vertex $-1 $477 $607 #
straight-curve $-1 -94.520348048870346 10.071810577134702 8.1515537697565961 -1 0 0 I I #
edge $-1 $571 -7.0066189604767324 $474 0.87623572716079323 $473 $608 forward 7 unknown #
vertex $-1 $570 $609 #
straight-curve $-1 -70.607623523667087 10.071810577134702 5.0036118740279107 0.54463902268945019 0 0.83867057594974714 I I #
point $-1 -68.563326219411138 10.071810577134702 8.1515537697565978 #
point $-1 -70.607623523667101 2.1889558894971763 5.0036118740278885 #
straight-curve $-1 -70.607623523667101 0 8.1515537697565978 0 -1 0 I I #
vertex $-1 $480 $610 #
point $-1 -68.24587045933292 3.7655268270246793 6.3038152134430767 #
vertex $-1 $484 $611 #
point $-1 -68.24587045933292 6.1303832333159392 6.3038152134430767 #
vertex $-1 $488 $612 #
point $-1 -68.24587045933292 8.4952396396071919 6.3038152134430767 #
straight-curve $-1 -70.607623523667101 30.982712257697997 0 0 0 -1 I I #
point $-1 -70.607623523667101 -30.982712257697997 -8.1515537697565978 #
straight-curve $-1 -70.607623523667101 0 -8.1515537697565978 0 1 0 I I #
point $-1 -70.607623523667101 30.982712257697997 -8.1515537697565978 #
straight-curve $-1 -70.607623523667101 -13.146102090799067 2.7972118824420136 0 -1 0 I I #
point $-1 -70.607623523667101 -30.982712257697997 2.7972118824420136 #
point $-1 -70.607623523667101 -21.60169610549827 2.7972118824420136 #
straight-curve $-1 -70.607623523667101 -21.60169610549827 2.1486059412210068 0 0 -1 I I #
straight-curve $-1 -70.607623523667101 -30.982712257697997 0 0 0 -1 I I #
point $-1 -70.607623523667101 21.601696105498274 2.7972118824420136 #
straight-curve $-1 -70.607623523667101 13.146102090799069 2.7972118824420136 0 -1 0 I I #
point $-1 -70.607623523667101 30.982712257698001 2.7972118824420136 #
straight-curve $-1 -70.607623523667101 30.982712257697997 0 0 0 -1 I I #
straight-curve $-1 26.600940696032588 0 8.1515537697566032 -1 0 0 I I #
point $-1 70.607623523667101 0 8.1515537697565978 #
straight-curve $-1 66.707846977528959 -1.8259586384274922 8.1515537697565961 0 -1 0 I I #
point $-1 66.707846977528973 0 8.1515537697566032 #
point $-1 66.780886429752641 -3.6519172768549844 4.2786619265680823 #
edge $-1 $563 -44.006682827634513 $557 -40.106906281496386 $561 $613 forward 7 unknown #
straight-curve $-1 66.707846977528959 8.9748894143216447 8.1515537697565961 0 -1 0 I I #
point $-1 66.707846977528973 21.601696105498274 8.1515537697566032 #
straight-curve $-1 70.607623523667101 21.601696105498274 101.9139096021631 0 0 1 I I #
point $-1 70.607623523667101 21.601696105498274 8.1515537697565978 #
point $-1 66.780886429752641 17.949778828643289 4.2786619265680823 #
straight-curve $-1 -70.607623523667101 10.071810577134702 40.957473007368641 0 0 -1 I I #
point $-1 -70.607623523667101 10.071810577134702 8.1515537697565978 #
straight-curve $-1 -70.607623523667101 3.0651916166579696 5.003611874027869 0 -1 0 I I #
point $-1 -70.607623523667101 10.071810577134702 5.0036118740278885 #
point $-1 -68.098854682702779 3.7655268270246793 5.6121604141234789 #
point $-1 -68.098854682702779 6.1303832333159392 5.6121604141234789 #
point $-1 -68.098854682702779 8.4952396396071919 5.6121604141234789 #
straight-curve $-1 26.600940696032588 21.601696105498274 8.1515537697566032 -1 0 0 I I #
End-of-ACIS-data 