500 0 7 0           
7 Unknown 11 ACIS 5.0 NT 24 Fri Mar 26 14:49:43 1999 
-1 9.9999999999999995e-007 1e-010 
body $-1 $7 $-1 $8 #
body $-1 $9 $-1 $10 #
body $-1 $11 $-1 $12 #
body $-1 $13 $-1 $14 #
body $-1 $15 $-1 $16 #
body $-1 $17 $-1 $18 #
body $-1 $19 $-1 $20 #
lump $-1 $-1 $21 $0 #
transform $-1 1 0 0 0 1 0 0 0 1 71.609851374858849 46.414075853732484 21.689978835727366 1 rotate no_reflect no_shear #
lump $-1 $-1 $22 $1 #
transform $-1 1 0 0 0 1 0 0 0 1 71.609851374858849 46.414075853732484 21.689978835727366 1 rotate no_reflect no_shear #
lump $-1 $-1 $23 $2 #
transform $-1 1 0 0 0 1 0 0 0 1 71.609851374858849 46.414075853732484 21.689978835727366 1 rotate no_reflect no_shear #
lump $-1 $-1 $24 $3 #
transform $-1 1 0 0 0 1 0 0 0 1 71.609851374858849 46.414075853732484 21.689978835727366 1 rotate no_reflect no_shear #
lump $-1 $-1 $25 $4 #
transform $-1 1 0 0 0 1 0 0 0 1 71.609851374858849 46.414075853732484 21.689978835727366 1 rotate no_reflect no_shear #
lump $-1 $-1 $26 $5 #
transform $-1 1 0 0 0 1 0 0 0 1 71.609851374858849 46.414075853732484 21.689978835727366 1 rotate no_reflect no_shear #
lump $-1 $-1 $27 $6 #
transform $-1 1 0 0 0 1 0 0 0 1 71.609851374858849 46.414075853732484 21.689978835727366 1 rotate no_reflect no_shear #
shell $-1 $-1 $-1 $28 $-1 $7 #
shell $-1 $-1 $-1 $29 $-1 $9 #
shell $-1 $-1 $-1 $30 $-1 $11 #
shell $-1 $-1 $-1 $31 $-1 $13 #
shell $-1 $-1 $-1 $32 $-1 $15 #
shell $-1 $-1 $-1 $33 $-1 $17 #
shell $-1 $-1 $-1 $34 $-1 $19 #
face $-1 $35 $36 $21 $-1 $37 forward single #
face $-1 $38 $39 $22 $-1 $40 reversed single #
face $-1 $41 $42 $23 $-1 $43 reversed single #
face $-1 $44 $45 $24 $-1 $46 reversed single #
face $-1 $47 $48 $25 $-1 $49 forward single #
face $-1 $50 $51 $26 $-1 $52 reversed single #
face $-1 $53 $54 $27 $-1 $55 forward single #
face $-1 $56 $57 $21 $-1 $58 reversed single #
loop $-1 $-1 $59 $28 #
plane-surface $-1 0 0 21.689978835727366 0 0 1 1 0 0 forward_v I I I I #
face $-1 $60 $61 $22 $-1 $62 reversed single #
loop $-1 $-1 $63 $29 #
plane-surface $-1 -62.839618613515 -19.496991974428802 0 0 1 0 0 0 1 forward_v I I I I #
face $-1 $64 $65 $23 $-1 $66 reversed single #
loop $-1 $-1 $67 $30 #
plane-surface $-1 62.839618613514986 -19.496991974428802 0 0 1 0 0 0 1 forward_v I I I I #
face $-1 $68 $69 $24 $-1 $70 reversed single #
loop $-1 $-1 $71 $31 #
plane-surface $-1 -33.322088920336185 70.316361350454414 169.28834268629132 1 0 0 0 -0.6560590369687036 -0.75470957328743171 forward_v I I I I #
face $-1 $72 $73 $25 $-1 $74 forward single #
loop $-1 $75 $76 $32 #
cone-surface $-1 -21.825228296909202 29.423692397769383 5.6032486509260018 0 -0.6560590369687036 -0.75470957328743171 5 0 0 1 I I 0 1 5 forward I I I I #
face $-1 $77 $78 $26 $-1 $79 reversed single #
loop $-1 $-1 $80 $33 #
plane-surface $-1 10.32836767348223 70.316361350454414 169.28834268629132 1 0 0 0 -0.6560590369687036 -0.75470957328743171 forward_v I I I I #
face $-1 $81 $82 $27 $-1 $83 forward single #
loop $-1 $84 $85 $34 #
cone-surface $-1 21.825228296909216 29.423692397769383 5.6032486509260018 0 -0.6560590369687036 -0.75470957328743171 5 0 0 1 I I 0 1 5 forward I I I I #
face $-1 $86 $87 $21 $-1 $88 reversed single #
loop $-1 $-1 $89 $35 #
plane-surface $-1 0 0 -21.689978835727366 0 0 1 1 0 0 forward_v I I I I #
coedge $-1 $90 $91 $92 $93 forward $36 $-1 #
face $-1 $94 $95 $22 $-1 $96 reversed single #
loop $-1 $-1 $97 $38 #
plane-surface $-1 -62.839618613515 -10.723959182246759 0 0 -1 0 0 0 -1 forward_v I I I I #
coedge $-1 $98 $99 $100 $101 reversed $39 $-1 #
face $-1 $102 $103 $23 $-1 $104 reversed single #
loop $-1 $-1 $105 $41 #
plane-surface $-1 54.069385852171138 -15.11047557833778 0 1 0 0 0 0 -1 forward_v I I I I #
coedge $-1 $106 $107 $108 $109 forward $42 $-1 #
face $-1 $110 $111 $24 $-1 $112 reversed single #
loop $-1 $-1 $113 $44 #
plane-surface $-1 -21.825228296909202 -23.644218910469363 61.199061937699057 0 0.6560590369687036 0.75470957328743171 1 0 0 forward_v I I I I #
coedge $-1 $114 $115 $116 $117 reversed $45 $-1 #
face $-1 $-1 $118 $25 $-1 $119 forward single #
loop $-1 $120 $121 $47 #
cone-surface $-1 -21.825228296909202 23.097308717280058 -1.6744231116876946 0 -0.6560590369687036 -0.75470957328743171 2.5 0 0 1 I I -0.70710678118654746 0.70710678118654746 2.5 forward I I I I #
loop $-1 $-1 $122 $32 #
coedge $-1 $76 $76 $123 $124 reversed $48 $-1 #
face $-1 $125 $126 $26 $-1 $127 reversed single #
loop $-1 $-1 $128 $50 #
plane-surface $-1 21.825228296909216 -23.644218910469363 61.199061937699057 0 0.6560590369687036 0.75470957328743171 1 0 0 forward_v I I I I #
coedge $-1 $129 $130 $131 $132 reversed $51 $-1 #
face $-1 $-1 $133 $27 $-1 $134 forward single #
loop $-1 $135 $136 $53 #
cone-surface $-1 21.825228296909216 23.097308717280058 -1.6744231116876946 0 -0.6560590369687036 -0.75470957328743171 2.5 0 0 1 I I -0.70710678118654746 0.70710678118654746 2.5 forward I I I I #
loop $-1 $-1 $137 $34 #
coedge $-1 $85 $85 $138 $139 reversed $54 $-1 #
face $-1 $140 $141 $21 $-1 $142 reversed single #
loop $-1 $-1 $143 $56 #
plane-surface $-1 0 -46.414075853732484 0 0 1 0 0 0 1 forward_v I I I I #
coedge $-1 $144 $145 $146 $147 forward $57 $-1 #
coedge $-1 $148 $59 $149 $150 forward $36 $-1 #
coedge $-1 $59 $148 $151 $152 forward $36 $-1 #
coedge $-1 $153 $154 $59 $93 reversed $155 $-1 #
edge $-1 $156 -46.414075853732484 $157 46.414075853732484 $92 $158 forward 7 unknown #
face $-1 $159 $160 $22 $-1 $161 reversed single #
loop $-1 $-1 $162 $60 #
plane-surface $-1 -54.069385852171152 -15.11047557833778 0 -1 0 0 0 0 1 forward_v I I I I #
coedge $-1 $163 $164 $165 $166 forward $61 $-1 #
coedge $-1 $167 $63 $168 $169 reversed $39 $-1 #
coedge $-1 $63 $167 $170 $171 reversed $39 $-1 #
coedge $-1 $172 $173 $63 $101 forward $174 $-1 #
edge $-1 $175 -21.689978835727366 $176 21.689978835727366 $100 $177 forward 7 unknown #
face $-1 $178 $179 $23 $-1 $180 reversed single #
loop $-1 $-1 $181 $64 #
plane-surface $-1 62.839618613514986 -10.723959182246759 0 0 -1 0 0 0 -1 forward_v I I I I #
coedge $-1 $182 $183 $184 $185 forward $65 $-1 #
coedge $-1 $186 $67 $187 $188 reversed $42 $-1 #
coedge $-1 $67 $186 $189 $190 reversed $42 $-1 #
coedge $-1 $183 $182 $67 $109 reversed $65 $-1 #
edge $-1 $191 -21.689978835727366 $192 21.689978835727366 $108 $193 forward 7 unknown #
face $-1 $194 $195 $24 $-1 $196 reversed single #
loop $-1 $-1 $197 $68 #
plane-surface $-1 -10.328367673482216 70.316361350454414 169.28834268629132 -1 0 0 0 0.6560590369687036 0.75470957328743171 forward_v I I I I #
coedge $-1 $198 $199 $200 $201 reversed $69 $-1 #
coedge $-1 $115 $71 $202 $203 reversed $45 $-1 #
coedge $-1 $71 $114 $198 $204 reversed $45 $-1 #
coedge $-1 $200 $205 $71 $117 forward $206 $-1 #
edge $-1 $207 -11.255895178505277 $208 13.352399557285779 $116 $209 forward 7 unknown #
loop $-1 $-1 $123 $72 #
plane-surface $-1 -21.825228296909202 -23.644218910469363 61.199061937699057 0 0.6560590369687036 0.75470957328743171 1 0 0 forward_v I I I I #
loop $-1 $-1 $210 $47 #
coedge $-1 $121 $121 $122 $211 reversed $73 $-1 #
coedge $-1 $122 $122 $121 $211 forward $75 $-1 #
coedge $-1 $123 $123 $76 $124 forward $118 $-1 #
edge $-1 $212 -1.4019084392022039e-016 $212 6.2831853071796004 $123 $213 forward 7 unknown #
face $-1 $214 $215 $26 $-1 $216 forward single #
loop $-1 $-1 $217 $77 #
plane-surface $-1 33.322088920336199 70.316361350454414 169.28834268629132 -1 0 0 0 0.6560590369687036 0.75470957328743171 forward_v I I I I #
coedge $-1 $218 $219 $220 $221 reversed $78 $-1 #
coedge $-1 $130 $80 $222 $223 reversed $51 $-1 #
coedge $-1 $80 $129 $218 $224 reversed $51 $-1 #
coedge $-1 $220 $225 $80 $132 forward $215 $-1 #
edge $-1 $226 -11.255895178505277 $227 13.352399557285779 $131 $228 forward 7 unknown #
loop $-1 $-1 $138 $81 #
plane-surface $-1 21.825228296909216 -23.644218910469363 61.199061937699057 0 0.6560590369687036 0.75470957328743171 1 0 0 forward_v I I I I #
loop $-1 $-1 $229 $53 #
coedge $-1 $136 $136 $137 $230 reversed $82 $-1 #
coedge $-1 $137 $137 $136 $230 forward $84 $-1 #
coedge $-1 $138 $138 $85 $139 forward $133 $-1 #
edge $-1 $231 -1.4019084392022039e-016 $231 6.2831853071796004 $138 $232 forward 7 unknown #
face $-1 $233 $234 $21 $-1 $235 reversed single #
loop $-1 $-1 $236 $86 #
plane-surface $-1 -71.609851374858849 0 0 1 0 0 0 0 -1 forward_v I I I I #
coedge $-1 $237 $151 $238 $239 forward $87 $-1 #
coedge $-1 $240 $89 $237 $241 forward $57 $-1 #
coedge $-1 $89 $240 $242 $243 forward $57 $-1 #
coedge $-1 $154 $153 $89 $147 reversed $155 $-1 #
edge $-1 $244 -46.414075853732484 $245 46.414075853732484 $146 $246 forward 7 unknown #
coedge $-1 $91 $90 $247 $248 forward $36 $-1 #
coedge $-1 $249 $250 $90 $150 reversed $234 $-1 #
edge $-1 $157 -71.609851374858849 $251 71.609851374858849 $149 $252 forward 7 unknown #
coedge $-1 $143 $253 $91 $152 reversed $87 $-1 #
edge $-1 $254 -71.609851374858849 $156 71.609851374858849 $151 $255 forward 7 unknown #
coedge $-1 $146 $92 $253 $256 forward $155 $-1 #
coedge $-1 $92 $146 $249 $257 reversed $155 $-1 #
loop $-1 $-1 $153 $233 #
vertex $-1 $93 $258 #
vertex $-1 $93 $259 #
straight-curve $-1 71.609851374858849 0 21.689978835727366 0 1 0 I I #
face $-1 $260 $261 $22 $-1 $262 forward single #
loop $-1 $-1 $263 $94 #
plane-surface $-1 0 0 -21.689978835727366 0 0 1 1 0 0 forward_v I I I I #
coedge $-1 $264 $265 $167 $266 forward $95 $-1 #
coedge $-1 $267 $97 $263 $268 reversed $61 $-1 #
coedge $-1 $97 $267 $269 $270 reversed $61 $-1 #
coedge $-1 $265 $264 $97 $166 reversed $95 $-1 #
edge $-1 $271 -21.689978835727366 $272 21.689978835727366 $165 $273 forward 7 unknown #
coedge $-1 $99 $98 $162 $266 reversed $39 $-1 #
coedge $-1 $274 $275 $98 $169 forward $160 $-1 #
edge $-1 $276 22.649576545413652 $175 40.190042068101349 $168 $277 forward 7 unknown #
coedge $-1 $278 $279 $99 $171 forward $261 $-1 #
edge $-1 $176 -40.190042068101349 $280 -22.649576545413652 $170 $281 forward 7 unknown #
coedge $-1 $282 $100 $279 $283 reversed $174 $-1 #
coedge $-1 $100 $282 $274 $284 reversed $174 $-1 #
loop $-1 $-1 $282 $260 #
vertex $-1 $284 $285 #
vertex $-1 $101 $286 #
straight-curve $-1 -71.609851374858849 -19.496991974428802 0 0 0 1 I I #
face $-1 $287 $288 $23 $-1 $289 forward single #
loop $-1 $-1 $187 $102 #
plane-surface $-1 0 0 -21.689978835727366 0 0 1 1 0 0 forward_v I I I I #
coedge $-1 $290 $291 $292 $293 reversed $103 $-1 #
coedge $-1 $108 $105 $294 $295 reversed $65 $-1 #
coedge $-1 $105 $108 $296 $297 reversed $65 $-1 #
coedge $-1 $291 $290 $105 $185 reversed $103 $-1 #
edge $-1 $298 -21.689978835727366 $299 21.689978835727366 $184 $300 forward 7 unknown #
coedge $-1 $107 $106 $301 $302 reversed $42 $-1 #
coedge $-1 $294 $303 $106 $188 forward $179 $-1 #
edge $-1 $304 -40.190042068101341 $192 -22.649576545413645 $187 $305 forward 7 unknown #
coedge $-1 $306 $296 $107 $190 forward $288 $-1 #
edge $-1 $191 22.649576545413645 $307 40.190042068101341 $189 $308 forward 7 unknown #
vertex $-1 $190 $309 #
vertex $-1 $188 $310 #
straight-curve $-1 54.069385852171138 -19.496991974428802 0 0 0 -1 I I #
face $-1 $-1 $206 $24 $-1 $311 forward single #
loop $-1 $-1 $312 $110 #
plane-surface $-1 0 46.414075853732484 0 0 -1 0 0 0 -1 forward_v I I I I #
coedge $-1 $313 $314 $315 $316 reversed $111 $-1 #
coedge $-1 $317 $113 $115 $204 forward $69 $-1 #
coedge $-1 $113 $317 $313 $318 forward $69 $-1 #
coedge $-1 $315 $116 $113 $201 forward $206 $-1 #
edge $-1 $208 -22.409474771881584 $319 0.58424647497238524 $200 $320 forward 7 unknown #
coedge $-1 $321 $322 $114 $203 forward $195 $-1 #
edge $-1 $323 -84.345857218230776 $207 -62.954192507418291 $202 $324 forward 7 unknown #
edge $-1 $208 60.221841138751699 $323 92.828151707464954 $115 $325 forward 7 unknown #
coedge $-1 $116 $315 $321 $326 forward $206 $-1 #
loop $-1 $-1 $315 $194 #
vertex $-1 $203 $327 #
vertex $-1 $117 $328 #
straight-curve $-1 -33.322088920336185 35.158180675227207 21.689978835727374 0 -1 0 I I #
coedge $-1 $210 $210 $-1 $329 reversed $120 $-1 #
edge $-1 $330 0 $330 6.2831853071796004 $121 $331 forward 7 unknown #
vertex $-1 $124 $332 #
ellipse-curve $-1 -21.825228296909202 34.109928485836953 10.994146480321128 0 0.6560590369687036 0.75470957328743171 5 0 0 1 I I #
face $-1 $-1 $333 $26 $-1 $334 reversed single #
loop $-1 $-1 $131 $125 #
plane-surface $-1 0 0 21.689978835727366 0 0 1 1 0 0 forward_v I I I I #
coedge $-1 $335 $336 $337 $338 reversed $126 $-1 #
coedge $-1 $339 $128 $130 $224 forward $78 $-1 #
coedge $-1 $128 $339 $335 $340 forward $78 $-1 #
coedge $-1 $337 $131 $128 $221 forward $215 $-1 #
edge $-1 $227 -0.58424647497237814 $341 22.409474771881591 $220 $342 forward 7 unknown #
coedge $-1 $343 $344 $129 $223 forward $333 $-1 #
edge $-1 $345 -84.345857218230776 $226 -62.954192507418291 $222 $346 forward 7 unknown #
edge $-1 $227 60.221841138751699 $345 92.828151707464954 $130 $347 forward 7 unknown #
coedge $-1 $131 $337 $343 $348 forward $215 $-1 #
vertex $-1 $223 $349 #
vertex $-1 $132 $350 #
straight-curve $-1 10.32836767348223 35.158180675227207 21.689978835727374 0 -1 0 I I #
coedge $-1 $229 $229 $-1 $351 reversed $135 $-1 #
edge $-1 $352 0 $352 6.2831853071796004 $136 $353 forward 7 unknown #
vertex $-1 $139 $354 #
ellipse-curve $-1 21.825228296909216 34.109928485836953 10.994146480321128 0 0.6560590369687036 0.75470957328743171 5 0 0 1 I I #
face $-1 $-1 $155 $21 $-1 $355 reversed single #
loop $-1 $-1 $249 $140 #
plane-surface $-1 0 46.414075853732484 0 0 -1 0 0 0 -1 forward_v I I I I #
coedge $-1 $356 $247 $250 $357 forward $141 $-1 #
coedge $-1 $253 $143 $144 $241 reversed $87 $-1 #
coedge $-1 $247 $356 $143 $239 reversed $141 $-1 #
edge $-1 $254 -21.689978835727366 $358 21.689978835727366 $238 $359 forward 7 unknown #
coedge $-1 $145 $144 $356 $360 forward $57 $-1 #
edge $-1 $245 -71.609851374858849 $358 71.609851374858849 $237 $361 forward 7 unknown #
coedge $-1 $250 $249 $145 $243 reversed $234 $-1 #
edge $-1 $362 -71.609851374858849 $244 71.609851374858849 $242 $363 forward 7 unknown #
vertex $-1 $147 $364 #
vertex $-1 $256 $365 #
straight-curve $-1 71.609851374858849 0 -21.689978835727366 0 -1 0 I I #
coedge $-1 $236 $238 $148 $248 reversed $141 $-1 #
edge $-1 $251 -46.414075853732484 $254 46.414075853732484 $247 $366 forward 7 unknown #
coedge $-1 $242 $149 $154 $257 forward $234 $-1 #
coedge $-1 $149 $242 $236 $357 reversed $234 $-1 #
vertex $-1 $150 $367 #
straight-curve $-1 0 46.414075853732484 21.689978835727366 -1 0 0 I I #
coedge $-1 $151 $237 $153 $256 reversed $87 $-1 #
vertex $-1 $248 $368 #
straight-curve $-1 0 -46.414075853732484 21.689978835727366 1 0 0 I I #
edge $-1 $156 -21.689978835727366 $245 21.689978835727366 $153 $369 forward 7 unknown #
edge $-1 $157 -21.689978835727366 $244 21.689978835727366 $154 $370 forward 7 unknown #
point $-1 71.609851374858849 -46.414075853732484 21.689978835727366 #
point $-1 71.609851374858849 46.414075853732484 21.689978835727366 #
face $-1 $-1 $174 $22 $-1 $371 reversed single #
loop $-1 $-1 $269 $159 #
plane-surface $-1 0 0 21.689978835727366 0 0 1 1 0 0 forward_v I I I I #
coedge $-1 $275 $274 $163 $268 forward $160 $-1 #
coedge $-1 $165 $162 $275 $372 reversed $95 $-1 #
coedge $-1 $162 $165 $278 $373 reversed $95 $-1 #
edge $-1 $280 -21.689978835727366 $276 21.689978835727366 $162 $374 forward 7 unknown #
coedge $-1 $164 $163 $282 $375 reversed $61 $-1 #
edge $-1 $376 -40.190042068101349 $272 -22.649576545413652 $263 $377 forward 7 unknown #
coedge $-1 $279 $278 $164 $270 forward $261 $-1 #
edge $-1 $271 22.649576545413652 $378 40.190042068101349 $269 $379 forward 7 unknown #
vertex $-1 $270 $380 #
vertex $-1 $268 $381 #
straight-curve $-1 -54.069385852171152 -10.723959182246759 0 0 0 -1 I I #
coedge $-1 $263 $168 $173 $284 forward $160 $-1 #
coedge $-1 $168 $263 $264 $372 forward $160 $-1 #
vertex $-1 $169 $382 #
straight-curve $-1 -31.4198093067575 -19.496991974428802 -21.689978835727366 -1 0 0 I I #
coedge $-1 $269 $170 $265 $373 forward $261 $-1 #
coedge $-1 $170 $269 $172 $283 forward $261 $-1 #
vertex $-1 $171 $383 #
straight-curve $-1 -31.4198093067575 -19.496991974428802 21.689978835727366 1 0 0 I I #
coedge $-1 $173 $172 $267 $375 forward $174 $-1 #
edge $-1 $378 10.723959182246759 $176 19.496991974428802 $172 $384 forward 7 unknown #
edge $-1 $175 -19.496991974428802 $376 -10.723959182246759 $173 $385 forward 7 unknown #
point $-1 -71.609851374858849 -19.496991974428802 -21.689978835727366 #
point $-1 -71.609851374858849 -19.496991974428802 21.689978835727366 #
face $-1 $-1 $386 $23 $-1 $387 reversed single #
loop $-1 $-1 $189 $178 #
plane-surface $-1 0 0 21.689978835727366 0 0 1 1 0 0 forward_v I I I I #
coedge $-1 $184 $181 $388 $389 reversed $103 $-1 #
coedge $-1 $181 $184 $390 $391 reversed $103 $-1 #
coedge $-1 $392 $393 $181 $293 forward $386 $-1 #
edge $-1 $394 -21.689978835727366 $395 21.689978835727366 $292 $396 forward 7 unknown #
coedge $-1 $388 $187 $182 $295 forward $179 $-1 #
edge $-1 $192 -11.941754185259912 $299 -3.1687213930778686 $294 $397 forward 7 unknown #
coedge $-1 $189 $390 $183 $297 forward $288 $-1 #
edge $-1 $298 3.1687213930778686 $191 11.941754185259912 $296 $398 forward 7 unknown #
vertex $-1 $297 $399 #
vertex $-1 $295 $400 #
straight-curve $-1 54.069385852171138 -10.723959182246759 0 0 0 -1 I I #
coedge $-1 $393 $392 $186 $302 forward $386 $-1 #
edge $-1 $307 -21.689978835727366 $304 21.689978835727366 $301 $401 forward 7 unknown #
coedge $-1 $187 $388 $393 $402 forward $179 $-1 #
vertex $-1 $302 $403 #
straight-curve $-1 31.419809306757493 -19.496991974428802 -21.689978835727366 -1 0 0 I I #
coedge $-1 $390 $189 $392 $404 forward $288 $-1 #
vertex $-1 $404 $405 #
straight-curve $-1 31.419809306757493 -19.496991974428802 21.689978835727366 1 0 0 I I #
point $-1 54.069385852171138 -19.496991974428802 21.689978835727366 #
point $-1 54.069385852171138 -19.496991974428802 -21.689978835727366 #
plane-surface $-1 0 0 21.689978835727366 0 0 1 1 0 0 forward_v I I I I #
coedge $-1 $322 $321 $314 $406 forward $195 $-1 #
coedge $-1 $314 $197 $199 $318 reversed $111 $-1 #
coedge $-1 $197 $313 $312 $406 reversed $111 $-1 #
coedge $-1 $205 $200 $197 $316 forward $206 $-1 #
edge $-1 $319 -13.352399557285779 $407 11.255895178505277 $315 $408 forward 7 unknown #
coedge $-1 $199 $198 $322 $409 reversed $69 $-1 #
edge $-1 $410 -92.828151707464954 $319 -60.221841138751699 $313 $411 forward 7 unknown #
vertex $-1 $201 $412 #
straight-curve $-1 -10.912614148454601 21.805781117941422 21.68997883572737 1 0 0 I I #
coedge $-1 $312 $202 $205 $326 reversed $195 $-1 #
coedge $-1 $202 $312 $317 $409 forward $195 $-1 #
vertex $-1 $203 $413 #
straight-curve $-1 -33.322088920336185 46.414075853732484 84.644171343145658 0 0 1 I I #
straight-curve $-1 -33.322088920336185 -23.644218910469363 61.199061937699057 0 0.75470957328743171 -0.6560590369687036 I I #
edge $-1 $407 10.328367673482216 $207 33.322088920336185 $321 $414 forward 7 unknown #
point $-1 -33.322088920336185 46.414075853732484 21.689978835727366 #
point $-1 -33.322088920336185 21.805781117941429 21.689978835727366 #
edge $-1 $415 1 $415 0 $210 $-1 forward 7 unknown #
vertex $-1 $211 $416 #
ellipse-curve $-1 -21.825228296909202 24.737456309701816 0.21235082153088469 0 0.6560590369687036 0.75470957328743171 5 0 0 1 I I #
point $-1 -16.825228296909202 34.109928485836946 10.99414648032112 #
loop $-1 $-1 $222 $214 #
plane-surface $-1 0 46.414075853732484 0 0 -1 0 0 0 -1 forward_v I I I I #
coedge $-1 $336 $217 $219 $340 reversed $126 $-1 #
coedge $-1 $217 $335 $417 $418 reversed $126 $-1 #
coedge $-1 $225 $220 $217 $338 forward $215 $-1 #
edge $-1 $341 -13.352399557285779 $419 11.255895178505277 $337 $420 forward 7 unknown #
coedge $-1 $219 $218 $344 $421 reversed $78 $-1 #
edge $-1 $422 -92.828151707464954 $341 -60.221841138751699 $335 $423 forward 7 unknown #
vertex $-1 $221 $424 #
straight-curve $-1 10.912614148454608 21.805781117941422 21.68997883572737 1 0 0 I I #
coedge $-1 $417 $222 $225 $348 reversed $333 $-1 #
coedge $-1 $222 $417 $339 $421 forward $333 $-1 #
vertex $-1 $223 $425 #
straight-curve $-1 10.32836767348223 46.414075853732484 84.644171343145658 0 0 1 I I #
straight-curve $-1 10.32836767348223 -23.644218910469363 61.199061937699057 0 0.75470957328743171 -0.6560590369687036 I I #
edge $-1 $419 -33.322088920336199 $226 -10.32836767348223 $343 $426 forward 7 unknown #
point $-1 10.32836767348223 46.414075853732484 21.689978835727366 #
point $-1 10.32836767348223 21.805781117941429 21.689978835727366 #
edge $-1 $427 1 $427 0 $229 $-1 forward 7 unknown #
vertex $-1 $230 $428 #
ellipse-curve $-1 21.825228296909216 24.737456309701816 0.21235082153088469 0 0.6560590369687036 0.75470957328743171 5 0 0 1 I I #
point $-1 26.825228296909216 34.109928485836946 10.99414648032112 #
plane-surface $-1 71.609851374858849 0 0 -1 0 0 0 0 1 forward_v I I I I #
coedge $-1 $238 $236 $240 $360 reversed $141 $-1 #
edge $-1 $251 -21.689978835727366 $362 21.689978835727366 $250 $429 forward 7 unknown #
vertex $-1 $360 $430 #
straight-curve $-1 -71.609851374858849 -46.414075853732484 0 0 0 -1 I I #
edge $-1 $358 -46.414075853732484 $362 46.414075853732484 $356 $431 forward 7 unknown #
straight-curve $-1 0 -46.414075853732484 -21.689978835727366 -1 0 0 I I #
vertex $-1 $243 $432 #
straight-curve $-1 0 46.414075853732484 -21.689978835727366 1 0 0 I I #
point $-1 71.609851374858849 46.414075853732484 -21.689978835727366 #
point $-1 71.609851374858849 -46.414075853732484 -21.689978835727366 #
straight-curve $-1 -71.609851374858849 0 21.689978835727366 0 -1 0 I I #
point $-1 -71.609851374858849 46.414075853732484 21.689978835727366 #
point $-1 -71.609851374858849 -46.414075853732484 21.689978835727366 #
straight-curve $-1 71.609851374858849 -46.414075853732484 0 0 0 -1 I I #
straight-curve $-1 71.609851374858849 46.414075853732484 0 0 0 -1 I I #
plane-surface $-1 -71.609851374858849 0 0 1 0 0 0 0 -1 forward_v I I I I #
edge $-1 $272 3.1687213930778686 $276 11.941754185259912 $275 $433 forward 7 unknown #
edge $-1 $280 -11.941754185259912 $271 -3.1687213930778686 $278 $434 forward 7 unknown #
straight-curve $-1 -54.069385852171152 -19.496991974428802 0 0 0 -1 I I #
edge $-1 $378 -21.689978835727366 $376 21.689978835727366 $282 $435 forward 7 unknown #
vertex $-1 $375 $436 #
straight-curve $-1 -31.4198093067575 -10.723959182246759 -21.689978835727366 1 0 0 I I #
vertex $-1 $283 $437 #
straight-curve $-1 -31.4198093067575 -10.723959182246759 21.689978835727366 -1 0 0 I I #
point $-1 -54.069385852171152 -10.723959182246759 21.689978835727366 #
point $-1 -54.069385852171152 -10.723959182246759 -21.689978835727366 #
point $-1 -54.069385852171152 -19.496991974428802 -21.689978835727366 #
point $-1 -54.069385852171152 -19.496991974428802 21.689978835727366 #
straight-curve $-1 -71.609851374858849 0 21.689978835727366 0 -1 0 I I #
straight-curve $-1 -71.609851374858849 0 -21.689978835727366 0 1 0 I I #
loop $-1 $-1 $301 $287 #
plane-surface $-1 71.609851374858849 0 0 -1 0 0 0 0 1 forward_v I I I I #
coedge $-1 $303 $294 $290 $389 forward $179 $-1 #
edge $-1 $299 22.649576545413645 $394 40.190042068101341 $388 $438 forward 7 unknown #
coedge $-1 $296 $306 $291 $391 forward $288 $-1 #
edge $-1 $395 -40.190042068101341 $298 -22.649576545413645 $390 $439 forward 7 unknown #
coedge $-1 $301 $292 $306 $404 reversed $386 $-1 #
coedge $-1 $292 $301 $303 $402 reversed $386 $-1 #
vertex $-1 $402 $440 #
vertex $-1 $293 $441 #
straight-curve $-1 71.609851374858849 -10.723959182246759 0 0 0 1 I I #
straight-curve $-1 54.069385852171138 -7.5552377891688902 -21.689978835727366 0 1 0 I I #
straight-curve $-1 54.069385852171138 -7.5552377891688902 21.689978835727366 0 -1 0 I I #
point $-1 54.069385852171138 -10.723959182246759 21.689978835727366 #
point $-1 54.069385852171138 -10.723959182246759 -21.689978835727366 #
straight-curve $-1 71.609851374858849 -19.496991974428802 0 0 0 -1 I I #
edge $-1 $394 10.723959182246759 $304 19.496991974428802 $393 $442 forward 7 unknown #
point $-1 71.609851374858835 -19.496991974428802 -21.689978835727366 #
edge $-1 $307 -19.496991974428802 $395 -10.723959182246759 $392 $443 forward 7 unknown #
point $-1 71.609851374858835 -19.496991974428802 21.689978835727366 #
edge $-1 $407 62.954192507418291 $410 84.345857218230776 $312 $444 forward 7 unknown #
vertex $-1 $326 $445 #
straight-curve $-1 -10.328367673482216 35.158180675227207 21.689978835727374 0 1 0 I I #
edge $-1 $410 -0.58424647497238524 $323 22.409474771881584 $322 $446 forward 7 unknown #
vertex $-1 $409 $447 #
straight-curve $-1 -10.328367673482216 -23.644218910469363 61.199061937699057 0 -0.75470957328743171 0.6560590369687036 I I #
point $-1 -10.328367673482216 21.805781117941429 21.689978835727366 #
point $-1 -33.322088920336185 46.414075853732484 0.29831412491488152 #
straight-curve $-1 0 46.414075853732484 21.689978835727366 -1 0 0 I I #
vertex $-1 $329 $448 #
point $-1 -16.825228296909202 24.737456309701816 0.21235082153088469 #
coedge $-1 $344 $343 $336 $418 forward $333 $-1 #
edge $-1 $419 62.954192507418291 $422 84.345857218230776 $417 $449 forward 7 unknown #
vertex $-1 $348 $450 #
straight-curve $-1 33.322088920336199 35.158180675227207 21.689978835727374 0 1 0 I I #
edge $-1 $422 -22.409474771881591 $345 0.58424647497237814 $344 $451 forward 7 unknown #
vertex $-1 $421 $452 #
straight-curve $-1 33.322088920336199 -23.644218910469363 61.199061937699057 0 -0.75470957328743171 0.6560590369687036 I I #
point $-1 33.322088920336199 21.805781117941429 21.689978835727366 #
point $-1 10.32836767348223 46.414075853732484 0.29831412491488152 #
straight-curve $-1 0 46.414075853732484 21.689978835727366 -1 0 0 I I #
vertex $-1 $351 $453 #
point $-1 26.825228296909216 24.737456309701816 0.21235082153088469 #
straight-curve $-1 -71.609851374858849 46.414075853732484 0 0 0 -1 I I #
point $-1 -71.609851374858849 -46.414075853732484 -21.689978835727366 #
straight-curve $-1 -71.609851374858849 0 -21.689978835727366 0 1 0 I I #
point $-1 -71.609851374858849 46.414075853732484 -21.689978835727366 #
straight-curve $-1 -54.069385852171152 -7.5552377891688902 -21.689978835727366 0 -1 0 I I #
straight-curve $-1 -54.069385852171152 -7.5552377891688902 21.689978835727366 0 1 0 I I #
straight-curve $-1 -71.609851374858849 -10.723959182246759 0 0 0 -1 I I #
point $-1 -71.609851374858849 -10.723959182246759 -21.689978835727366 #
point $-1 -71.609851374858849 -10.723959182246759 21.689978835727366 #
straight-curve $-1 31.419809306757493 -10.723959182246759 -21.689978835727366 1 0 0 I I #
straight-curve $-1 31.419809306757493 -10.723959182246759 21.689978835727366 -1 0 0 I I #
point $-1 71.609851374858835 -10.723959182246759 -21.689978835727366 #
point $-1 71.609851374858835 -10.723959182246759 21.689978835727366 #
straight-curve $-1 71.609851374858849 0 -21.689978835727366 0 -1 0 I I #
straight-curve $-1 71.609851374858849 0 21.689978835727366 0 1 0 I I #
straight-curve $-1 -10.328367673482216 46.414075853732484 84.644171343145658 0 0 -1 I I #
point $-1 -10.328367673482216 46.414075853732484 21.689978835727366 #
straight-curve $-1 -10.912614148454601 46.414075853732484 0.29831412491488862 -1 0 0 I I #
point $-1 -10.328367673482216 46.414075853732484 0.29831412491488152 #
point $-1 -21.825228296909202 21.457161124858299 -3.5611970449062742 #
straight-curve $-1 33.322088920336199 46.414075853732484 84.644171343145658 0 0 -1 I I #
point $-1 33.322088920336199 46.414075853732484 21.689978835727366 #
straight-curve $-1 10.912614148454608 46.414075853732484 0.29831412491488862 -1 0 0 I I #
point $-1 33.322088920336199 46.414075853732484 0.29831412491488152 #
point $-1 21.825228296909216 21.457161124858299 -3.5611970449062742 #
End-of-ACIS-data 