500 0 5 0           
7 Unknown 11 ACIS 5.0 NT 24 Fri Mar 26 00:22:47 1999 
-1 9.9999999999999995e-007 1e-010 
body $-1 $5 $-1 $6 #
body $-1 $7 $-1 $8 #
body $-1 $9 $-1 $10 #
body $-1 $11 $-1 $12 #
body $-1 $13 $-1 $14 #
lump $-1 $-1 $15 $0 #
transform $-1 1 0 0 0 1 0 0 0 1 47.114474929044462 31.807698512004666 12.617173465666159 1 rotate no_reflect no_shear #
lump $-1 $-1 $16 $1 #
transform $-1 1 0 0 0 1 0 0 0 1 47.114474929044462 31.807698512004666 12.617173465666159 1 rotate no_reflect no_shear #
lump $-1 $-1 $17 $2 #
transform $-1 1 0 0 0 1 0 0 0 1 47.114474929044462 31.807698512004666 12.617173465666159 1 rotate no_reflect no_shear #
lump $-1 $-1 $18 $3 #
transform $-1 1 0 0 0 1 0 0 0 1 47.114474929044462 31.807698512004666 12.617173465666159 1 rotate no_reflect no_shear #
lump $-1 $-1 $19 $4 #
transform $-1 1 0 0 0 1 0 0 0 1 47.114474929044462 31.807698512004666 12.617173465666159 1 rotate no_reflect no_shear #
shell $-1 $-1 $-1 $20 $-1 $5 #
shell $-1 $-1 $-1 $21 $-1 $7 #
shell $-1 $-1 $-1 $22 $-1 $9 #
shell $-1 $-1 $-1 $23 $-1 $11 #
shell $-1 $-1 $-1 $24 $-1 $13 #
face $-1 $25 $26 $15 $-1 $27 forward single #
face $-1 $28 $29 $16 $-1 $30 forward single #
face $-1 $31 $32 $17 $-1 $33 forward single #
face $-1 $34 $35 $18 $-1 $36 reversed single #
face $-1 $37 $38 $19 $-1 $39 reversed single #
face $-1 $40 $41 $15 $-1 $42 reversed single #
loop $-1 $-1 $43 $20 #
plane-surface $-1 0 0 12.617173465666159 0 0 1 1 0 0 forward_v I I I I #
face $-1 $44 $45 $16 $-1 $46 forward single #
loop $-1 $-1 $47 $21 #
plane-surface $-1 -39.539769644386041 -26.963754337579569 0 0 -1 0 0 0 -1 forward_v I I I I #
face $-1 $48 $49 $17 $-1 $50 forward single #
loop $-1 $-1 $51 $22 #
plane-surface $-1 -31.912571528675187 -23.744577501528752 52.633892044754475 0.54463904215088732 0 0.83867056331134215 0.83867056331134215 0 -0.54463904215088732 forward_v I I I I #
face $-1 $52 $53 $18 $-1 $54 reversed single #
loop $-1 $55 $56 $23 #
cone-surface $-1 36.872729626154104 -27.200200791732716 4.5962328928714502 -0.54463904215088732 0 -0.83867056331134215 1.6773411266226843 0 -1.0892780843017746 1 I I 0 1 2 forward I I I I #
face $-1 $57 $58 $19 $-1 $59 reversed single #
loop $-1 $60 $61 $24 #
cone-surface $-1 36.872729626154104 -20.288954211324786 4.5962328928714502 -0.54463904215088732 0 -0.83867056331134215 1.6773411266226843 0 -1.0892780843017746 1 I I 0 1 2 forward I I I I #
face $-1 $62 $63 $15 $-1 $64 reversed single #
loop $-1 $-1 $65 $25 #
plane-surface $-1 0 0 -12.617173465666159 0 0 1 1 0 0 forward_v I I I I #
coedge $-1 $66 $67 $68 $69 forward $26 $-1 #
face $-1 $70 $71 $16 $-1 $72 forward single #
loop $-1 $-1 $73 $28 #
plane-surface $-1 -31.965064359727624 -29.385726424792118 0 -1 0 0 0 0 1 forward_v I I I I #
coedge $-1 $74 $75 $76 $77 reversed $29 $-1 #
face $-1 $78 $79 $17 $-1 $80 reversed single #
loop $-1 $-1 $81 $31 #
plane-surface $-1 19.408193464918355 -15.681456491052836 131.66093850247412 0 -1 0 -0.54463904215088732 0 -0.83867056331134215 forward_v I I I I #
coedge $-1 $82 $83 $84 $85 reversed $32 $-1 #
face $-1 $86 $87 $18 $-1 $88 forward single #
loop $-1 $89 $90 $34 #
cone-surface $-1 34.789697630506311 -27.200200791732716 1.3886449640180096 -0.54463904215088732 0 -0.83867056331134215 0.83867056331134215 0 -0.54463904215088732 1 I I -0.70710678118654735 0.70710678118654768 1 forward I I I I #
loop $-1 $-1 $91 $23 #
coedge $-1 $56 $56 $92 $93 reversed $35 $-1 #
face $-1 $94 $95 $19 $-1 $96 reversed single #
loop $-1 $97 $98 $37 #
cone-surface $-1 34.789697630506311 -20.288954211324786 1.3886449640180096 -0.54463904215088732 0 -0.83867056331134215 0.83867056331134215 0 -0.54463904215088732 1 I I -0.70710678118654735 0.70710678118654768 1 forward I I I I #
loop $-1 $-1 $99 $24 #
coedge $-1 $61 $61 $100 $101 reversed $38 $-1 #
face $-1 $102 $103 $15 $-1 $104 reversed single #
loop $-1 $-1 $105 $40 #
plane-surface $-1 0 -31.807698512004666 0 0 1 0 0 0 1 forward_v I I I I #
coedge $-1 $106 $107 $108 $109 forward $41 $-1 #
coedge $-1 $110 $43 $111 $112 forward $26 $-1 #
coedge $-1 $43 $110 $113 $114 forward $26 $-1 #
coedge $-1 $115 $116 $43 $69 reversed $117 $-1 #
edge $-1 $118 -31.807698512004666 $119 31.807698512004666 $68 $120 forward 7 unknown #
face $-1 $121 $122 $16 $-1 $123 reversed single #
loop $-1 $-1 $124 $44 #
plane-surface $-1 0 0 12.617173465666159 0 0 1 1 0 0 forward_v I I I I #
coedge $-1 $125 $126 $127 $128 reversed $45 $-1 #
coedge $-1 $129 $47 $124 $130 reversed $29 $-1 #
coedge $-1 $47 $129 $131 $132 reversed $29 $-1 #
coedge $-1 $126 $125 $47 $77 forward $45 $-1 #
edge $-1 $133 -12.617173465666159 $134 12.617173465666159 $76 $135 forward 7 unknown #
face $-1 $136 $137 $17 $-1 $138 reversed single #
loop $-1 $-1 $139 $48 #
plane-surface $-1 47.114474929044462 0 0 -1 0 0 0 0 1 forward_v I I I I #
coedge $-1 $140 $141 $139 $142 reversed $49 $-1 #
coedge $-1 $143 $51 $141 $144 reversed $32 $-1 #
coedge $-1 $51 $143 $145 $146 reversed $32 $-1 #
coedge $-1 $147 $139 $51 $85 forward $79 $-1 #
edge $-1 $148 3.8091677402884603 $149 19.93540976124029 $84 $150 forward 7 unknown #
face $-1 $151 $152 $18 $-1 $153 forward single #
loop $-1 $154 $92 $52 #
plane-surface $-1 -31.912571528675187 -23.744577501528752 52.633892044754475 0.54463904215088732 0 0.83867056331134215 0.83867056331134215 0 -0.54463904215088732 forward_v I I I I #
loop $-1 $-1 $155 $34 #
coedge $-1 $90 $90 $91 $156 forward $53 $-1 #
coedge $-1 $91 $91 $90 $156 reversed $55 $-1 #
coedge $-1 $92 $92 $56 $93 forward $87 $-1 #
edge $-1 $157 0 $157 6.2831853071796004 $92 $158 forward 7 unknown #
face $-1 $159 $160 $19 $-1 $161 reversed single #
loop $-1 $162 $163 $57 #
cone-surface $-1 36.872729626154104 -27.200200791732716 4.5962328928714502 -0.54463904215088732 0 -0.83867056331134215 1.6773411266226843 0 -1.0892780843017746 1 I I 0 1 2 forward I I I I #
loop $-1 $-1 $164 $37 #
coedge $-1 $98 $98 $99 $165 forward $58 $-1 #
coedge $-1 $99 $99 $98 $165 reversed $60 $-1 #
coedge $-1 $100 $100 $61 $101 forward $166 $-1 #
edge $-1 $167 0 $167 6.2831853071796004 $100 $168 forward 7 unknown #
face $-1 $169 $170 $15 $-1 $171 reversed single #
loop $-1 $-1 $172 $62 #
plane-surface $-1 -47.114474929044462 0 0 1 0 0 0 0 -1 forward_v I I I I #
coedge $-1 $173 $113 $174 $175 forward $63 $-1 #
coedge $-1 $176 $65 $173 $177 forward $41 $-1 #
coedge $-1 $65 $176 $178 $179 forward $41 $-1 #
coedge $-1 $116 $115 $65 $109 reversed $117 $-1 #
edge $-1 $180 -31.807698512004666 $181 31.807698512004666 $108 $182 forward 7 unknown #
coedge $-1 $67 $66 $183 $184 forward $26 $-1 #
coedge $-1 $185 $186 $66 $112 reversed $170 $-1 #
edge $-1 $119 -47.114474929044462 $187 47.114474929044462 $111 $188 forward 7 unknown #
coedge $-1 $105 $189 $67 $114 reversed $63 $-1 #
edge $-1 $190 -47.114474929044462 $118 47.114474929044462 $113 $191 forward 7 unknown #
coedge $-1 $108 $68 $189 $192 forward $117 $-1 #
coedge $-1 $68 $108 $185 $193 reversed $117 $-1 #
loop $-1 $-1 $115 $169 #
vertex $-1 $69 $194 #
vertex $-1 $69 $195 #
straight-curve $-1 47.114474929044462 0 12.617173465666159 0 1 0 I I #
face $-1 $196 $197 $16 $-1 $198 reversed single #
loop $-1 $-1 $127 $70 #
plane-surface $-1 0 -31.807698512004666 0 0 1 0 0 0 1 forward_v I I I I #
coedge $-1 $199 $200 $74 $130 forward $71 $-1 #
coedge $-1 $76 $73 $199 $201 reversed $45 $-1 #
coedge $-1 $73 $76 $202 $203 reversed $45 $-1 #
coedge $-1 $204 $205 $73 $128 forward $122 $-1 #
edge $-1 $206 -12.617173465666159 $207 12.617173465666159 $127 $208 forward 7 unknown #
coedge $-1 $75 $74 $209 $210 reversed $29 $-1 #
edge $-1 $211 -27.344590106851442 $133 -12.195179537534603 $124 $212 forward 7 unknown #
coedge $-1 $213 $202 $75 $132 forward $197 $-1 #
edge $-1 $134 12.195179537534603 $214 27.344590106851442 $131 $215 forward 7 unknown #
vertex $-1 $130 $216 #
vertex $-1 $132 $217 #
straight-curve $-1 -31.965064359727624 -26.963754337579569 0 0 0 -1 I I #
face $-1 $218 $219 $17 $-1 $220 forward single #
loop $-1 $-1 $145 $78 #
plane-surface $-1 0 -31.807698512004666 0 0 1 0 0 0 1 forward_v I I I I #
coedge $-1 $84 $221 $81 $142 forward $79 $-1 #
coedge $-1 $141 $81 $222 $223 reversed $49 $-1 #
coedge $-1 $81 $140 $82 $144 forward $49 $-1 #
edge $-1 $224 53.213295785570907 $148 64.517342200076129 $139 $225 forward 7 unknown #
coedge $-1 $83 $82 $226 $227 reversed $32 $-1 #
edge $-1 $228 73.473834011337829 $148 94.228949858088924 $141 $229 forward 7 unknown #
coedge $-1 $230 $231 $83 $146 forward $137 $-1 #
edge $-1 $149 -66.513646413791022 $232 -45.758530567039919 $145 $233 forward 7 unknown #
coedge $-1 $234 $84 $231 $235 forward $79 $-1 #
vertex $-1 $85 $236 #
vertex $-1 $235 $237 #
straight-curve $-1 47.114474929044455 -11.872288750764376 1.3131270511609401 0 -1 0 I I #
face $-1 $238 $239 $18 $-1 $240 reversed single #
loop $-1 $-1 $241 $86 #
plane-surface $-1 19.408193464918355 -15.681456491052836 131.66093850247412 0 -1 0 -0.54463904215088732 0 -0.83867056331134215 forward_v I I I I #
loop $-1 $-1 $242 $52 #
coedge $-1 $155 $155 $-1 $243 forward $89 $-1 #
edge $-1 $244 0 $244 6.2831853071796004 $90 $245 forward 7 unknown #
vertex $-1 $93 $246 #
ellipse-curve $-1 38.411122579651014 -27.200200791732716 6.9651502584135478 -0.54463904215088732 0 -0.83867056331134215 1.6773411266226843 0 -1.0892780843017746 1 I I #
face $-1 $247 $166 $19 $-1 $248 forward single #
loop $-1 $249 $250 $94 #
cone-surface $-1 34.789697630506311 -27.200200791732716 1.3886449640180096 -0.54463904215088732 0 -0.83867056331134215 0.83867056331134215 0 -0.54463904215088732 1 I I -0.70710678118654735 0.70710678118654768 1 forward I I I I #
loop $-1 $-1 $251 $57 #
coedge $-1 $163 $163 $252 $253 reversed $95 $-1 #
coedge $-1 $164 $164 $-1 $254 forward $97 $-1 #
edge $-1 $255 0 $255 6.2831853071796004 $98 $256 forward 7 unknown #
loop $-1 $257 $100 $159 #
vertex $-1 $101 $258 #
ellipse-curve $-1 38.411122579651014 -20.288954211324786 6.9651502584135478 -0.54463904215088732 0 -0.83867056331134215 1.6773411266226843 0 -1.0892780843017746 1 I I #
face $-1 $-1 $117 $15 $-1 $259 reversed single #
loop $-1 $-1 $185 $102 #
plane-surface $-1 0 31.807698512004666 0 0 -1 0 0 0 -1 forward_v I I I I #
coedge $-1 $260 $183 $186 $261 forward $103 $-1 #
coedge $-1 $189 $105 $106 $177 reversed $63 $-1 #
coedge $-1 $183 $260 $105 $175 reversed $103 $-1 #
edge $-1 $190 -12.617173465666159 $262 12.617173465666159 $174 $263 forward 7 unknown #
coedge $-1 $107 $106 $260 $264 forward $41 $-1 #
edge $-1 $181 -47.114474929044462 $262 47.114474929044462 $173 $265 forward 7 unknown #
coedge $-1 $186 $185 $107 $179 reversed $170 $-1 #
edge $-1 $266 -47.114474929044462 $180 47.114474929044462 $178 $267 forward 7 unknown #
vertex $-1 $109 $268 #
vertex $-1 $192 $269 #
straight-curve $-1 47.114474929044462 0 -12.617173465666159 0 -1 0 I I #
coedge $-1 $172 $174 $110 $184 reversed $103 $-1 #
edge $-1 $187 -31.807698512004666 $190 31.807698512004666 $183 $270 forward 7 unknown #
coedge $-1 $178 $111 $116 $193 forward $170 $-1 #
coedge $-1 $111 $178 $172 $261 reversed $170 $-1 #
vertex $-1 $112 $271 #
straight-curve $-1 0 31.807698512004666 12.617173465666159 -1 0 0 I I #
coedge $-1 $113 $173 $115 $192 reversed $63 $-1 #
vertex $-1 $184 $272 #
straight-curve $-1 0 -31.807698512004666 12.617173465666159 1 0 0 I I #
edge $-1 $118 -12.617173465666159 $181 12.617173465666159 $115 $273 forward 7 unknown #
edge $-1 $119 -12.617173465666159 $180 12.617173465666159 $116 $274 forward 7 unknown #
point $-1 47.114474929044462 -31.807698512004666 12.617173465666159 #
point $-1 47.114474929044462 31.807698512004666 12.617173465666159 #
face $-1 $275 $276 $16 $-1 $277 reversed single #
loop $-1 $-1 $131 $121 #
plane-surface $-1 0 0 -12.617173465666159 0 0 1 1 0 0 forward_v I I I I #
coedge $-1 $278 $124 $125 $201 forward $71 $-1 #
coedge $-1 $124 $279 $280 $281 forward $71 $-1 #
edge $-1 $133 12.27089112518351 $206 17.114835299608607 $199 $282 forward 7 unknown #
coedge $-1 $131 $283 $126 $203 forward $197 $-1 #
edge $-1 $207 -17.114835299608607 $134 -12.27089112518351 $202 $284 forward 7 unknown #
coedge $-1 $285 $127 $283 $286 reversed $122 $-1 #
coedge $-1 $127 $285 $278 $287 reversed $122 $-1 #
vertex $-1 $287 $288 #
vertex $-1 $128 $289 #
straight-curve $-1 -31.965064359727624 -31.807698512004666 0 0 0 -1 I I #
coedge $-1 $280 $290 $129 $210 forward $276 $-1 #
edge $-1 $214 -12.617173465666159 $211 12.617173465666159 $209 $291 forward 7 unknown #
vertex $-1 $210 $292 #
straight-curve $-1 -19.769884822193021 -26.963754337579569 12.617173465666159 1 0 0 I I #
coedge $-1 $293 $131 $290 $294 forward $197 $-1 #
vertex $-1 $294 $295 #
straight-curve $-1 -19.769884822193021 -26.963754337579569 -12.617173465666159 -1 0 0 I I #
point $-1 -31.965064359727624 -26.963754337579569 12.617173465666159 #
point $-1 -31.965064359727624 -26.963754337579569 -12.617173465666159 #
face $-1 $296 $297 $17 $-1 $298 forward single #
loop $-1 $-1 $299 $136 #
plane-surface $-1 -39.539769644386041 -26.963754337579569 0 0 -1 0 0 0 -1 forward_v I I I I #
coedge $-1 $139 $300 $301 $302 reversed $79 $-1 #
coedge $-1 $301 $226 $140 $223 forward $303 $-1 #
edge $-1 $228 20.003673497798381 $224 37.410378196585285 $222 $304 forward 7 unknown #
vertex $-1 $302 $305 #
straight-curve $-1 47.114474929044462 -15.681456491052836 65.830469251237062 0 0 -1 I I #
coedge $-1 $222 $306 $143 $227 forward $303 $-1 #
edge $-1 $232 -19.935409761240294 $228 -3.8091677402884603 $226 $307 forward 7 unknown #
vertex $-1 $227 $308 #
straight-curve $-1 -31.912571528675187 -15.681456491052836 52.633892044754475 0.83867056331134215 0 -0.54463904215088732 I I #
coedge $-1 $309 $145 $306 $310 reversed $137 $-1 #
coedge $-1 $145 $311 $147 $235 reversed $137 $-1 #
vertex $-1 $227 $312 #
straight-curve $-1 -8.668562376701086 -31.807698512004666 37.539055723930872 -0.83867056331134215 0 0.54463904215088732 I I #
coedge $-1 $300 $147 $313 $314 reversed $79 $-1 #
edge $-1 $149 -1.3131270511609305 $315 12.617173465666159 $147 $316 forward 7 unknown #
point $-1 47.114474929044462 -15.681456491052836 1.313127051160933 #
point $-1 47.114474929044462 -31.807698512004666 1.3131270511609305 #
face $-1 $317 $318 $18 $-1 $319 reversed single #
loop $-1 $-1 $320 $151 #
plane-surface $-1 47.114474929044462 0 0 -1 0 0 0 0 1 forward_v I I I I #
coedge $-1 $321 $322 $320 $323 reversed $152 $-1 #
coedge $-1 $324 $325 $326 $327 reversed $154 $-1 #
edge $-1 $328 1 $328 0 $155 $-1 forward 7 unknown #
vertex $-1 $156 $329 #
ellipse-curve $-1 35.334336672657201 -27.200200791732716 2.2273155273293521 0.54463904215088732 0 0.83867056331134215 1.6773411266226843 0 -1.0892780843017746 1 I I #
point $-1 40.0884637062737 -27.200200791732716 5.875872174111775 #
face $-1 $330 $331 $19 $-1 $332 forward single #
plane-surface $-1 -31.912571528675187 -23.744577501528752 52.633892044754475 0.54463904215088732 0 0.83867056331134215 0.83867056331134215 0 -0.54463904215088732 forward_v I I I I #
loop $-1 $-1 $333 $94 #
coedge $-1 $250 $250 $251 $334 forward $160 $-1 #
coedge $-1 $251 $251 $250 $334 reversed $162 $-1 #
coedge $-1 $252 $252 $163 $253 forward $257 $-1 #
edge $-1 $335 0 $335 6.2831853071796004 $252 $336 forward 7 unknown #
edge $-1 $337 1 $337 0 $164 $-1 forward 7 unknown #
vertex $-1 $165 $338 #
ellipse-curve $-1 35.334336672657201 -20.288954211324786 2.2273155273293521 0.54463904215088732 0 0.83867056331134215 1.6773411266226843 0 -1.0892780843017746 1 I I #
loop $-1 $339 $252 $159 #
point $-1 40.0884637062737 -20.288954211324786 5.875872174111775 #
plane-surface $-1 47.114474929044462 0 0 -1 0 0 0 0 1 forward_v I I I I #
coedge $-1 $174 $172 $176 $264 reversed $103 $-1 #
edge $-1 $187 -12.617173465666159 $266 12.617173465666159 $186 $340 forward 7 unknown #
vertex $-1 $264 $341 #
straight-curve $-1 -47.114474929044462 -31.807698512004666 0 0 0 -1 I I #
edge $-1 $262 -31.807698512004666 $266 31.807698512004666 $260 $342 forward 7 unknown #
straight-curve $-1 0 -31.807698512004666 -12.617173465666159 -1 0 0 I I #
vertex $-1 $179 $343 #
straight-curve $-1 0 31.807698512004666 -12.617173465666159 1 0 0 I I #
point $-1 47.114474929044462 31.807698512004666 -12.617173465666159 #
point $-1 47.114474929044462 -31.807698512004666 -12.617173465666159 #
straight-curve $-1 -47.114474929044462 0 12.617173465666159 0 -1 0 I I #
point $-1 -47.114474929044462 31.807698512004666 12.617173465666159 #
point $-1 -47.114474929044462 -31.807698512004666 12.617173465666159 #
straight-curve $-1 47.114474929044462 -31.807698512004666 0 0 0 -1 I I #
straight-curve $-1 47.114474929044462 31.807698512004666 0 0 0 -1 I I #
face $-1 $344 $345 $16 $-1 $346 reversed single #
loop $-1 $-1 $209 $196 #
plane-surface $-1 -47.114474929044462 0 0 1 0 0 0 0 -1 forward_v I I I I #
coedge $-1 $347 $199 $205 $287 forward $71 $-1 #
coedge $-1 $200 $347 $348 $349 forward $71 $-1 #
coedge $-1 $350 $209 $200 $281 reversed $276 $-1 #
edge $-1 $351 -31.807698512004666 $211 26.963754337579569 $280 $352 forward 7 unknown #
straight-curve $-1 -31.965064359727624 -14.692863212396059 12.617173465666159 0 -1 0 I I #
coedge $-1 $202 $353 $204 $286 forward $197 $-1 #
straight-curve $-1 -31.965064359727624 -14.692863212396059 -12.617173465666159 0 1 0 I I #
coedge $-1 $205 $204 $354 $355 reversed $122 $-1 #
edge $-1 $356 -47.114474929044462 $207 31.965064359727624 $204 $357 forward 7 unknown #
edge $-1 $206 -31.965064359727624 $358 47.114474929044462 $205 $359 forward 7 unknown #
point $-1 -31.965064359727624 -31.807698512004666 12.617173465666159 #
point $-1 -31.965064359727624 -31.807698512004666 -12.617173465666159 #
coedge $-1 $209 $350 $213 $294 reversed $276 $-1 #
straight-curve $-1 -47.114474929044462 -26.963754337579569 0 0 0 1 I I #
point $-1 -47.114474929044462 -26.963754337579569 12.617173465666159 #
coedge $-1 $353 $213 $360 $361 forward $197 $-1 #
edge $-1 $214 -26.963754337579569 $362 31.807698512004666 $290 $363 forward 7 unknown #
point $-1 -47.114474929044462 -26.963754337579569 -12.617173465666159 #
face $-1 $364 $303 $17 $-1 $365 forward single #
loop $-1 $-1 $366 $218 #
plane-surface $-1 -31.965064359727624 -29.385726424792118 0 -1 0 0 0 0 1 forward_v I I I I #
coedge $-1 $367 $368 $369 $370 reversed $219 $-1 #
coedge $-1 $221 $234 $371 $372 reversed $79 $-1 #
coedge $-1 $373 $222 $221 $302 forward $303 $-1 #
edge $-1 $224 -15.681456491052836 $374 31.807698512004666 $221 $375 forward 7 unknown #
loop $-1 $-1 $222 $296 #
straight-curve $-1 9.7040967324591776 -15.681456491052836 12.617173465666156 1 0 0 I I #
point $-1 47.114474929044462 -15.681456491052836 12.617173465666159 #
coedge $-1 $226 $376 $230 $310 forward $303 $-1 #
straight-curve $-1 29.707770230257552 -11.872288750764376 12.617173465666159 0 1 0 I I #
point $-1 29.707770230257559 -15.681456491052836 12.617173465666156 #
coedge $-1 $311 $230 $366 $377 forward $137 $-1 #
edge $-1 $378 -31.965064359727624 $232 29.707770230257559 $230 $379 forward 7 unknown #
coedge $-1 $231 $309 $380 $381 reversed $137 $-1 #
point $-1 29.707770230257559 -31.80769851200467 12.617173465666156 #
coedge $-1 $380 $382 $234 $314 forward $383 $-1 #
edge $-1 $384 -31.807698512004666 $315 31.807698512004666 $234 $385 forward 7 unknown #
vertex $-1 $235 $386 #
straight-curve $-1 47.114474929044462 -31.807698512004666 0 0 0 -1 I I #
face $-1 $387 $388 $18 $-1 $389 forward single #
loop $-1 $-1 $390 $238 #
plane-surface $-1 0 -31.807698512004666 0 0 1 0 0 0 1 forward_v I I I I #
coedge $-1 $326 $391 $241 $323 forward $239 $-1 #
coedge $-1 $322 $241 $392 $393 reversed $152 $-1 #
coedge $-1 $241 $321 $324 $394 forward $152 $-1 #
edge $-1 $395 53.213295785570907 $396 64.517342200076129 $320 $397 forward 7 unknown #
coedge $-1 $398 $242 $322 $394 reversed $154 $-1 #
coedge $-1 $242 $398 $390 $399 reversed $154 $-1 #
coedge $-1 $400 $320 $242 $327 forward $239 $-1 #
edge $-1 $396 3.8091677402884603 $401 19.93540976124029 $326 $402 forward 7 unknown #
vertex $-1 $243 $403 #
point $-1 37.01167779927988 -27.200200791732716 1.1380374430275775 #
face $-1 $404 $405 $19 $-1 $406 reversed single #
loop $-1 $-1 $407 $247 #
plane-surface $-1 19.408193464918355 -15.681456491052836 131.66093850247412 0 -1 0 -0.54463904215088732 0 -0.83867056331134215 forward_v I I I I #
coedge $-1 $333 $333 $-1 $408 forward $249 $-1 #
edge $-1 $409 0 $409 6.2831853071796004 $250 $410 forward 7 unknown #
vertex $-1 $253 $411 #
ellipse-curve $-1 38.411122579651014 -27.200200791732716 6.9651502584135478 -0.54463904215088732 0 -0.83867056331134215 1.6773411266226843 0 -1.0892780843017746 1 I I #
vertex $-1 $254 $412 #
point $-1 37.01167779927988 -20.288954211324786 1.1380374430275775 #
loop $-1 $-1 $413 $159 #
straight-curve $-1 -47.114474929044462 31.807698512004666 0 0 0 -1 I I #
point $-1 -47.114474929044462 -31.807698512004666 -12.617173465666159 #
straight-curve $-1 -47.114474929044462 0 -12.617173465666159 0 1 0 I I #
point $-1 -47.114474929044462 31.807698512004666 -12.617173465666159 #
face $-1 $-1 $414 $16 $-1 $415 reversed single #
loop $-1 $-1 $416 $275 #
plane-surface $-1 0 31.807698512004666 0 0 -1 0 0 0 -1 forward_v I I I I #
coedge $-1 $279 $278 $417 $418 forward $71 $-1 #
coedge $-1 $416 $419 $279 $349 reversed $345 $-1 #
edge $-1 $420 -47.114474929044462 $351 47.114474929044462 $348 $421 forward 7 unknown #
coedge $-1 $290 $280 $419 $422 forward $276 $-1 #
vertex $-1 $349 $423 #
straight-curve $-1 -47.114474929044462 0 12.617173465666159 0 -1 0 I I #
coedge $-1 $283 $293 $424 $425 forward $197 $-1 #
coedge $-1 $424 $417 $285 $355 forward $414 $-1 #
edge $-1 $358 -12.617173465666159 $356 12.617173465666159 $354 $426 forward 7 unknown #
vertex $-1 $355 $427 #
straight-curve $-1 0 -31.807698512004666 -12.617173465666159 -1 0 0 I I #
vertex $-1 $418 $428 #
straight-curve $-1 0 -31.807698512004666 12.617173465666159 1 0 0 I I #
coedge $-1 $419 $416 $293 $361 reversed $345 $-1 #
edge $-1 $362 -47.114474929044462 $429 47.114474929044462 $360 $430 forward 7 unknown #
vertex $-1 $361 $431 #
straight-curve $-1 -47.114474929044462 0 -12.617173465666159 0 1 0 I I #
face $-1 $432 $383 $17 $-1 $433 reversed single #
plane-surface $-1 0 0 12.617173465666159 0 0 1 1 0 0 forward_v I I I I #
coedge $-1 $434 $435 $309 $377 reversed $297 $-1 #
coedge $-1 $436 $299 $437 $438 reversed $219 $-1 #
coedge $-1 $299 $436 $439 $440 reversed $219 $-1 #
coedge $-1 $435 $434 $299 $370 forward $297 $-1 #
edge $-1 $441 -12.617173465666159 $442 12.617173465666159 $369 $443 forward 7 unknown #
coedge $-1 $444 $445 $300 $372 forward $446 $-1 #
edge $-1 $374 -12.617173465666159 $384 12.617173465666159 $300 $447 forward 7 unknown #
coedge $-1 $448 $301 $445 $449 forward $303 $-1 #
vertex $-1 $302 $450 #
straight-curve $-1 47.114474929044462 0 12.617173465666159 0 1 0 I I #
coedge $-1 $306 $437 $434 $451 forward $303 $-1 #
edge $-1 $378 -12.617173465666159 $452 12.617173465666159 $309 $453 forward 7 unknown #
vertex $-1 $310 $454 #
straight-curve $-1 0 -31.807698512004666 12.617173465666159 1 0 0 I I #
coedge $-1 $455 $313 $311 $381 forward $383 $-1 #
edge $-1 $315 -47.114474929044462 $452 31.965064359727624 $311 $456 forward 7 unknown #
coedge $-1 $313 $457 $444 $458 forward $383 $-1 #
loop $-1 $-1 $439 $364 #
vertex $-1 $314 $459 #
straight-curve $-1 47.114474929044462 0 -12.617173465666159 0 -1 0 I I #
point $-1 47.114474929044462 -31.807698512004666 -12.617173465666159 #
face $-1 $460 $461 $18 $-1 $462 forward single #
loop $-1 $-1 $463 $317 #
plane-surface $-1 -39.539769644386041 -26.963754337579569 0 0 -1 0 0 0 -1 forward_v I I I I #
coedge $-1 $464 $465 $325 $399 forward $318 $-1 #
coedge $-1 $320 $466 $467 $468 reversed $239 $-1 #
coedge $-1 $467 $469 $321 $393 forward $470 $-1 #
edge $-1 $471 20.003673497798381 $395 37.410378196585285 $392 $472 forward 7 unknown #
edge $-1 $471 73.473834011337829 $396 94.228949858088924 $322 $473 forward 7 unknown #
vertex $-1 $468 $474 #
vertex $-1 $327 $475 #
straight-curve $-1 47.114474929044462 -15.681456491052836 65.830469251237062 0 0 -1 I I #
coedge $-1 $325 $324 $469 $476 reversed $154 $-1 #
edge $-1 $401 -66.513646413791022 $477 -45.758530567039919 $390 $478 forward 7 unknown #
coedge $-1 $479 $326 $465 $480 forward $239 $-1 #
vertex $-1 $480 $481 #
straight-curve $-1 47.114474929044455 -11.872288750764376 1.3131270511609401 0 -1 0 I I #
point $-1 34.24505858835542 -27.200200791732716 0.54997440070666714 #
face $-1 $482 $483 $19 $-1 $484 reversed single #
loop $-1 $-1 $485 $330 #
plane-surface $-1 47.114474929044462 0 0 -1 0 0 0 0 1 forward_v I I I I #
coedge $-1 $486 $487 $485 $488 reversed $331 $-1 #
edge $-1 $489 1 $489 0 $333 $-1 forward 7 unknown #
vertex $-1 $334 $490 #
ellipse-curve $-1 35.334336672657201 -27.200200791732716 2.2273155273293521 0.54463904215088732 0 0.83867056331134215 1.6773411266226843 0 -1.0892780843017746 1 I I #
point $-1 40.0884637062737 -27.200200791732716 5.875872174111775 #
point $-1 34.24505858835542 -20.288954211324786 0.54997440070666714 #
coedge $-1 $491 $492 $493 $494 reversed $339 $-1 #
loop $-1 $-1 $354 $344 #
plane-surface $-1 47.114474929044462 0 0 -1 0 0 0 0 1 forward_v I I I I #
coedge $-1 $360 $348 $495 $496 forward $345 $-1 #
coedge $-1 $354 $495 $347 $418 reversed $414 $-1 #
edge $-1 $358 -31.807698512004666 $420 31.807698512004666 $417 $497 forward 7 unknown #
coedge $-1 $348 $360 $350 $422 reversed $345 $-1 #
vertex $-1 $418 $498 #
straight-curve $-1 0 31.807698512004666 12.617173465666159 -1 0 0 I I #
edge $-1 $351 -12.617173465666159 $362 12.617173465666159 $419 $499 forward 7 unknown #
point $-1 -47.114474929044462 31.807698512004666 12.617173465666159 #
coedge $-1 $495 $354 $353 $425 reversed $414 $-1 #
edge $-1 $429 -31.807698512004666 $356 31.807698512004666 $424 $500 forward 7 unknown #
straight-curve $-1 47.114474929044462 -31.807698512004666 0 0 0 -1 I I #
point $-1 47.114474929044462 -31.807698512004666 -12.617173465666159 #
point $-1 47.114474929044462 -31.807698512004666 12.617173465666159 #
vertex $-1 $425 $501 #
straight-curve $-1 0 31.807698512004666 -12.617173465666159 1 0 0 I I #
point $-1 -47.114474929044462 31.807698512004666 -12.617173465666159 #
face $-1 $502 $503 $17 $-1 $504 reversed single #
plane-surface $-1 0 0 -12.617173465666159 0 0 1 1 0 0 forward_v I I I I #
coedge $-1 $369 $366 $376 $451 reversed $297 $-1 #
coedge $-1 $366 $369 $455 $505 reversed $297 $-1 #
coedge $-1 $368 $367 $506 $507 reversed $219 $-1 #
coedge $-1 $376 $448 $367 $438 forward $303 $-1 #
edge $-1 $508 -27.344590106851442 $441 -12.195179537534603 $437 $509 forward 7 unknown #
coedge $-1 $457 $455 $368 $440 forward $383 $-1 #
edge $-1 $442 12.195179537534603 $510 27.344590106851442 $439 $511 forward 7 unknown #
vertex $-1 $438 $512 #
vertex $-1 $440 $513 #
straight-curve $-1 -31.965064359727624 -26.963754337579569 0 0 0 -1 I I #
coedge $-1 $514 $371 $382 $458 reversed $446 $-1 #
coedge $-1 $371 $514 $373 $449 reversed $446 $-1 #
loop $-1 $-1 $371 $502 #
straight-curve $-1 47.114474929044462 31.807698512004666 0 0 0 -1 I I #
coedge $-1 $437 $373 $515 $516 forward $303 $-1 #
edge $-1 $374 -47.114474929044462 $517 47.114474929044462 $445 $518 forward 7 unknown #
point $-1 47.114474929044462 31.807698512004666 12.617173465666159 #
edge $-1 $441 12.27089112518351 $378 17.114835299608607 $376 $519 forward 7 unknown #
vertex $-1 $377 $520 #
straight-curve $-1 -31.965064359727624 -31.807698512004666 0 0 0 -1 I I #
point $-1 -31.965064359727624 -31.807698512004666 12.617173465666159 #
coedge $-1 $439 $380 $435 $505 forward $383 $-1 #
straight-curve $-1 0 -31.807698512004666 -12.617173465666159 -1 0 0 I I #
coedge $-1 $382 $439 $521 $522 forward $383 $-1 #
edge $-1 $523 -47.114474929044462 $384 47.114474929044462 $444 $524 forward 7 unknown #
point $-1 47.114474929044462 31.807698512004666 -12.617173465666159 #
face $-1 $525 $470 $18 $-1 $526 forward single #
loop $-1 $-1 $527 $387 #
plane-surface $-1 -31.965064359727624 -29.385726424792118 0 -1 0 0 0 0 1 forward_v I I I I #
coedge $-1 $528 $529 $530 $531 reversed $388 $-1 #
coedge $-1 $532 $390 $533 $534 reversed $318 $-1 #
coedge $-1 $390 $535 $400 $480 reversed $318 $-1 #
coedge $-1 $391 $479 $536 $537 reversed $239 $-1 #
coedge $-1 $538 $392 $391 $468 forward $470 $-1 #
edge $-1 $395 -15.681456491052836 $539 31.807698512004666 $391 $540 forward 7 unknown #
coedge $-1 $392 $533 $398 $476 forward $470 $-1 #
loop $-1 $-1 $392 $460 #
vertex $-1 $476 $541 #
straight-curve $-1 9.7040967324591776 -15.681456491052836 12.617173465666156 1 0 0 I I #
straight-curve $-1 -31.912571528675187 -15.681456491052836 52.633892044754475 0.83867056331134215 0 -0.54463904215088732 I I #
point $-1 47.114474929044462 -15.681456491052836 12.617173465666159 #
point $-1 47.114474929044462 -15.681456491052836 1.313127051160933 #
edge $-1 $477 -19.935409761240294 $471 -3.8091677402884603 $469 $542 forward 7 unknown #
vertex $-1 $476 $543 #
straight-curve $-1 -8.668562376701086 -31.807698512004666 37.539055723930872 -0.83867056331134215 0 0.54463904215088732 I I #
coedge $-1 $466 $400 $544 $545 reversed $239 $-1 #
edge $-1 $401 -1.3131270511609305 $546 12.617173465666159 $400 $547 forward 7 unknown #
point $-1 47.114474929044462 -31.807698512004666 1.3131270511609305 #
face $-1 $548 $549 $19 $-1 $550 forward single #
loop $-1 $-1 $551 $404 #
plane-surface $-1 0 -31.807698512004666 0 0 1 0 0 0 1 forward_v I I I I #
coedge $-1 $493 $552 $407 $488 forward $405 $-1 #
coedge $-1 $487 $407 $553 $554 reversed $331 $-1 #
coedge $-1 $407 $486 $491 $555 forward $331 $-1 #
edge $-1 $556 53.213295785570907 $557 64.517342200076129 $485 $558 forward 7 unknown #
vertex $-1 $408 $559 #
point $-1 37.01167779927988 -27.200200791732716 1.1380374430275775 #
coedge $-1 $560 $413 $487 $555 reversed $339 $-1 #
coedge $-1 $413 $560 $551 $561 reversed $339 $-1 #
coedge $-1 $562 $485 $413 $494 forward $405 $-1 #
edge $-1 $557 3.8091677402884603 $563 19.93540976124029 $493 $564 forward 7 unknown #
coedge $-1 $417 $424 $416 $496 reversed $414 $-1 #
edge $-1 $420 -12.617173465666159 $429 12.617173465666159 $495 $565 forward 7 unknown #
straight-curve $-1 47.114474929044462 0 12.617173465666159 0 1 0 I I #
point $-1 47.114474929044462 31.807698512004666 12.617173465666159 #
straight-curve $-1 -47.114474929044462 31.807698512004666 0 0 0 -1 I I #
straight-curve $-1 47.114474929044462 0 -12.617173465666159 0 -1 0 I I #
point $-1 47.114474929044462 31.807698512004666 -12.617173465666159 #
face $-1 $-1 $446 $17 $-1 $566 reversed single #
loop $-1 $-1 $506 $432 #
plane-surface $-1 -47.114474929044462 0 0 1 0 0 0 0 -1 forward_v I I I I #
edge $-1 $452 -17.114835299608607 $442 -12.27089112518351 $455 $567 forward 7 unknown #
coedge $-1 $515 $521 $436 $507 forward $503 $-1 #
edge $-1 $510 -12.617173465666159 $508 12.617173465666159 $506 $568 forward 7 unknown #
vertex $-1 $507 $569 #
straight-curve $-1 -19.769884822193021 -26.963754337579569 12.617173465666159 1 0 0 I I #
vertex $-1 $522 $570 #
straight-curve $-1 -19.769884822193021 -26.963754337579569 -12.617173465666159 -1 0 0 I I #
point $-1 -31.965064359727624 -26.963754337579569 12.617173465666159 #
point $-1 -31.965064359727624 -26.963754337579569 -12.617173465666159 #
coedge $-1 $445 $444 $571 $572 reversed $446 $-1 #
coedge $-1 $571 $506 $448 $516 reversed $503 $-1 #
edge $-1 $517 -31.807698512004666 $508 26.963754337579569 $515 $573 forward 7 unknown #
vertex $-1 $449 $574 #
straight-curve $-1 0 31.807698512004666 12.617173465666159 -1 0 0 I I #
straight-curve $-1 -31.965064359727624 -14.692863212396059 12.617173465666159 0 -1 0 I I #
point $-1 -31.965064359727624 -31.807698512004666 -12.617173465666159 #
coedge $-1 $506 $571 $457 $522 reversed $503 $-1 #
edge $-1 $510 -26.963754337579569 $523 31.807698512004666 $521 $575 forward 7 unknown #
vertex $-1 $458 $576 #
straight-curve $-1 0 31.807698512004666 -12.617173465666159 1 0 0 I I #
face $-1 $577 $578 $18 $-1 $579 reversed single #
plane-surface $-1 0 0 12.617173465666159 0 0 1 1 0 0 forward_v I I I I #
coedge $-1 $580 $581 $532 $582 reversed $461 $-1 #
coedge $-1 $583 $463 $584 $585 reversed $388 $-1 #
coedge $-1 $463 $583 $586 $587 reversed $388 $-1 #
coedge $-1 $581 $580 $463 $531 forward $461 $-1 #
edge $-1 $588 -12.617173465666159 $589 12.617173465666159 $530 $590 forward 7 unknown #
coedge $-1 $535 $464 $527 $582 forward $318 $-1 #
coedge $-1 $469 $591 $464 $534 forward $470 $-1 #
edge $-1 $592 -31.965064359727624 $477 29.707770230257559 $464 $593 forward 7 unknown #
coedge $-1 $465 $532 $594 $595 reversed $318 $-1 #
coedge $-1 $596 $597 $466 $537 forward $598 $-1 #
edge $-1 $539 -12.617173465666159 $599 12.617173465666159 $466 $600 forward 7 unknown #
coedge $-1 $601 $467 $597 $602 forward $470 $-1 #
vertex $-1 $468 $603 #
straight-curve $-1 47.114474929044462 0 12.617173465666159 0 1 0 I I #
point $-1 29.707770230257559 -15.681456491052836 12.617173465666156 #
straight-curve $-1 29.707770230257552 -11.872288750764376 12.617173465666159 0 1 0 I I #
point $-1 29.707770230257559 -31.80769851200467 12.617173465666156 #
coedge $-1 $594 $604 $479 $545 forward $578 $-1 #
edge $-1 $599 -31.807698512004666 $546 31.807698512004666 $479 $605 forward 7 unknown #
vertex $-1 $480 $606 #
straight-curve $-1 47.114474929044462 -31.807698512004666 0 0 0 -1 I I #
face $-1 $607 $608 $19 $-1 $609 forward single #
loop $-1 $-1 $610 $482 #
plane-surface $-1 -39.539769644386041 -26.963754337579569 0 0 -1 0 0 0 -1 forward_v I I I I #
coedge $-1 $611 $612 $492 $561 forward $483 $-1 #
coedge $-1 $485 $613 $614 $615 reversed $405 $-1 #
coedge $-1 $614 $616 $486 $554 forward $617 $-1 #
edge $-1 $618 20.003673497798381 $556 37.410378196585285 $553 $619 forward 7 unknown #
edge $-1 $618 73.473834011337829 $557 94.228949858088924 $487 $620 forward 7 unknown #
vertex $-1 $615 $621 #
vertex $-1 $494 $622 #
straight-curve $-1 47.114474929044462 -15.681456491052836 65.830469251237062 0 0 -1 I I #
point $-1 34.24505858835542 -27.200200791732716 0.54997440070666714 #
coedge $-1 $492 $491 $616 $623 reversed $339 $-1 #
edge $-1 $563 -66.513646413791022 $624 -45.758530567039919 $551 $625 forward 7 unknown #
coedge $-1 $626 $493 $612 $627 forward $405 $-1 #
vertex $-1 $627 $628 #
straight-curve $-1 47.114474929044455 -11.872288750764376 1.3131270511609401 0 -1 0 I I #
straight-curve $-1 47.114474929044462 31.807698512004666 0 0 0 -1 I I #
plane-surface $-1 0 31.807698512004666 0 0 -1 0 0 0 -1 forward_v I I I I #
straight-curve $-1 -31.965064359727624 -14.692863212396059 -12.617173465666159 0 1 0 I I #
straight-curve $-1 -47.114474929044462 -26.963754337579569 0 0 0 1 I I #
point $-1 -47.114474929044462 -26.963754337579569 12.617173465666159 #
point $-1 -47.114474929044462 -26.963754337579569 -12.617173465666159 #
coedge $-1 $521 $515 $514 $572 forward $503 $-1 #
edge $-1 $517 -12.617173465666159 $523 12.617173465666159 $514 $629 forward 7 unknown #
straight-curve $-1 -47.114474929044462 0 12.617173465666159 0 -1 0 I I #
point $-1 -47.114474929044462 31.807698512004666 12.617173465666159 #
straight-curve $-1 -47.114474929044462 0 -12.617173465666159 0 1 0 I I #
point $-1 -47.114474929044462 31.807698512004666 -12.617173465666159 #
face $-1 $630 $631 $18 $-1 $632 reversed single #
loop $-1 $-1 $586 $525 #
plane-surface $-1 0 0 -12.617173465666159 0 0 1 1 0 0 forward_v I I I I #
coedge $-1 $530 $527 $591 $633 reversed $461 $-1 #
coedge $-1 $527 $530 $634 $635 reversed $461 $-1 #
edge $-1 $592 -12.617173465666159 $636 12.617173465666159 $532 $637 forward 7 unknown #
coedge $-1 $529 $528 $638 $639 reversed $388 $-1 #
coedge $-1 $591 $601 $528 $585 forward $470 $-1 #
edge $-1 $640 -27.344590106851442 $588 -12.195179537534603 $584 $641 forward 7 unknown #
coedge $-1 $642 $634 $529 $587 forward $578 $-1 #
edge $-1 $589 12.195179537534603 $643 27.344590106851442 $586 $644 forward 7 unknown #
vertex $-1 $585 $645 #
vertex $-1 $587 $646 #
straight-curve $-1 -31.965064359727624 -26.963754337579569 0 0 0 -1 I I #
coedge $-1 $533 $584 $580 $633 forward $470 $-1 #
vertex $-1 $534 $647 #
straight-curve $-1 0 -31.807698512004666 12.617173465666159 1 0 0 I I #
coedge $-1 $634 $544 $535 $595 forward $578 $-1 #
edge $-1 $546 -47.114474929044462 $636 31.965064359727624 $535 $648 forward 7 unknown #
coedge $-1 $649 $536 $604 $650 reversed $598 $-1 #
coedge $-1 $536 $649 $538 $602 reversed $598 $-1 #
loop $-1 $-1 $536 $630 #
vertex $-1 $545 $651 #
straight-curve $-1 47.114474929044462 31.807698512004666 0 0 0 -1 I I #
coedge $-1 $584 $538 $652 $653 forward $470 $-1 #
edge $-1 $539 -47.114474929044462 $654 47.114474929044462 $597 $655 forward 7 unknown #
point $-1 47.114474929044462 31.807698512004666 12.617173465666159 #
coedge $-1 $544 $642 $596 $650 forward $578 $-1 #
straight-curve $-1 47.114474929044462 0 -12.617173465666159 0 -1 0 I I #
point $-1 47.114474929044462 -31.807698512004666 -12.617173465666159 #
face $-1 $656 $617 $19 $-1 $657 forward single #
loop $-1 $-1 $658 $548 #
plane-surface $-1 -31.965064359727624 -29.385726424792118 0 -1 0 0 0 0 1 forward_v I I I I #
coedge $-1 $659 $660 $661 $662 reversed $549 $-1 #
coedge $-1 $663 $551 $664 $665 reversed $483 $-1 #
coedge $-1 $551 $666 $562 $627 reversed $483 $-1 #
coedge $-1 $552 $626 $667 $668 reversed $405 $-1 #
coedge $-1 $669 $553 $552 $615 forward $617 $-1 #
edge $-1 $556 -15.681456491052836 $670 31.807698512004666 $552 $671 forward 7 unknown #
coedge $-1 $553 $664 $560 $623 forward $617 $-1 #
loop $-1 $-1 $553 $607 #
vertex $-1 $623 $672 #
straight-curve $-1 9.7040967324591776 -15.681456491052836 12.617173465666156 1 0 0 I I #
straight-curve $-1 -31.912571528675187 -15.681456491052836 52.633892044754475 0.83867056331134215 0 -0.54463904215088732 I I #
point $-1 47.114474929044462 -15.681456491052836 12.617173465666159 #
point $-1 47.114474929044462 -15.681456491052836 1.313127051160933 #
edge $-1 $624 -19.935409761240294 $618 -3.8091677402884603 $616 $673 forward 7 unknown #
vertex $-1 $623 $674 #
straight-curve $-1 -8.668562376701086 -31.807698512004666 37.539055723930872 -0.83867056331134215 0 0.54463904215088732 I I #
coedge $-1 $613 $562 $675 $676 reversed $405 $-1 #
edge $-1 $563 -1.3131270511609305 $677 12.617173465666159 $562 $678 forward 7 unknown #
point $-1 47.114474929044462 -31.807698512004666 1.3131270511609305 #
straight-curve $-1 -47.114474929044462 31.807698512004666 0 0 0 -1 I I #
face $-1 $-1 $598 $18 $-1 $679 reversed single #
loop $-1 $-1 $638 $577 #
plane-surface $-1 -47.114474929044462 0 0 1 0 0 0 0 -1 forward_v I I I I #
edge $-1 $588 12.27089112518351 $592 17.114835299608607 $591 $680 forward 7 unknown #
coedge $-1 $586 $594 $581 $635 forward $578 $-1 #
edge $-1 $636 -17.114835299608607 $589 -12.27089112518351 $634 $681 forward 7 unknown #
vertex $-1 $582 $682 #
straight-curve $-1 -31.965064359727624 -31.807698512004666 0 0 0 -1 I I #
coedge $-1 $652 $683 $583 $639 forward $631 $-1 #
edge $-1 $643 -12.617173465666159 $640 12.617173465666159 $638 $684 forward 7 unknown #
vertex $-1 $639 $685 #
straight-curve $-1 -19.769884822193021 -26.963754337579569 12.617173465666159 1 0 0 I I #
coedge $-1 $604 $586 $683 $686 forward $578 $-1 #
vertex $-1 $686 $687 #
straight-curve $-1 -19.769884822193021 -26.963754337579569 -12.617173465666159 -1 0 0 I I #
point $-1 -31.965064359727624 -26.963754337579569 12.617173465666159 #
point $-1 -31.965064359727624 -26.963754337579569 -12.617173465666159 #
point $-1 -31.965064359727624 -31.807698512004666 12.617173465666159 #
straight-curve $-1 0 -31.807698512004666 -12.617173465666159 -1 0 0 I I #
coedge $-1 $597 $596 $688 $689 reversed $598 $-1 #
edge $-1 $690 -47.114474929044462 $599 47.114474929044462 $596 $691 forward 7 unknown #
point $-1 47.114474929044462 31.807698512004666 -12.617173465666159 #
coedge $-1 $688 $638 $601 $653 reversed $631 $-1 #
edge $-1 $654 -31.807698512004666 $640 26.963754337579569 $652 $692 forward 7 unknown #
vertex $-1 $602 $693 #
straight-curve $-1 0 31.807698512004666 12.617173465666159 -1 0 0 I I #
face $-1 $694 $695 $19 $-1 $696 reversed single #
plane-surface $-1 0 0 12.617173465666159 0 0 1 1 0 0 forward_v I I I I #
coedge $-1 $697 $698 $663 $699 reversed $608 $-1 #
coedge $-1 $700 $610 $701 $702 reversed $549 $-1 #
coedge $-1 $610 $700 $703 $704 reversed $549 $-1 #
coedge $-1 $698 $697 $610 $662 forward $608 $-1 #
edge $-1 $705 -12.617173465666159 $706 12.617173465666159 $661 $707 forward 7 unknown #
coedge $-1 $666 $611 $658 $699 forward $483 $-1 #
coedge $-1 $616 $708 $611 $665 forward $617 $-1 #
edge $-1 $709 -31.965064359727624 $624 29.707770230257559 $611 $710 forward 7 unknown #
coedge $-1 $612 $663 $711 $712 reversed $483 $-1 #
coedge $-1 $713 $714 $613 $668 forward $715 $-1 #
edge $-1 $670 -12.617173465666159 $716 12.617173465666159 $613 $717 forward 7 unknown #
coedge $-1 $718 $614 $714 $719 forward $617 $-1 #
vertex $-1 $615 $720 #
straight-curve $-1 47.114474929044462 0 12.617173465666159 0 1 0 I I #
point $-1 29.707770230257559 -15.681456491052836 12.617173465666156 #
straight-curve $-1 29.707770230257552 -11.872288750764376 12.617173465666159 0 1 0 I I #
point $-1 29.707770230257559 -31.80769851200467 12.617173465666156 #
coedge $-1 $711 $721 $626 $676 forward $695 $-1 #
edge $-1 $716 -31.807698512004666 $677 31.807698512004666 $626 $722 forward 7 unknown #
vertex $-1 $627 $723 #
straight-curve $-1 47.114474929044462 -31.807698512004666 0 0 0 -1 I I #
plane-surface $-1 0 31.807698512004666 0 0 -1 0 0 0 -1 forward_v I I I I #
straight-curve $-1 -31.965064359727624 -14.692863212396059 12.617173465666159 0 -1 0 I I #
straight-curve $-1 -31.965064359727624 -14.692863212396059 -12.617173465666159 0 1 0 I I #
point $-1 -31.965064359727624 -31.807698512004666 -12.617173465666159 #
coedge $-1 $638 $688 $642 $686 reversed $631 $-1 #
straight-curve $-1 -47.114474929044462 -26.963754337579569 0 0 0 1 I I #
point $-1 -47.114474929044462 -26.963754337579569 12.617173465666159 #
edge $-1 $643 -26.963754337579569 $690 31.807698512004666 $683 $724 forward 7 unknown #
point $-1 -47.114474929044462 -26.963754337579569 -12.617173465666159 #
coedge $-1 $683 $652 $649 $689 forward $631 $-1 #
edge $-1 $654 -12.617173465666159 $690 12.617173465666159 $649 $725 forward 7 unknown #
vertex $-1 $650 $726 #
straight-curve $-1 0 31.807698512004666 -12.617173465666159 1 0 0 I I #
straight-curve $-1 -47.114474929044462 0 12.617173465666159 0 -1 0 I I #
point $-1 -47.114474929044462 31.807698512004666 12.617173465666159 #
face $-1 $727 $728 $19 $-1 $729 reversed single #
loop $-1 $-1 $703 $656 #
plane-surface $-1 0 0 -12.617173465666159 0 0 1 1 0 0 forward_v I I I I #
coedge $-1 $661 $658 $708 $730 reversed $608 $-1 #
coedge $-1 $658 $661 $731 $732 reversed $608 $-1 #
edge $-1 $709 -12.617173465666159 $733 12.617173465666159 $663 $734 forward 7 unknown #
coedge $-1 $660 $659 $735 $736 reversed $549 $-1 #
coedge $-1 $708 $718 $659 $702 forward $617 $-1 #
edge $-1 $737 -27.344590106851442 $705 -12.195179537534603 $701 $738 forward 7 unknown #
coedge $-1 $739 $731 $660 $704 forward $695 $-1 #
edge $-1 $706 12.195179537534603 $740 27.344590106851442 $703 $741 forward 7 unknown #
vertex $-1 $702 $742 #
vertex $-1 $704 $743 #
straight-curve $-1 -31.965064359727624 -26.963754337579569 0 0 0 -1 I I #
coedge $-1 $664 $701 $697 $730 forward $617 $-1 #
vertex $-1 $665 $744 #
straight-curve $-1 0 -31.807698512004666 12.617173465666159 1 0 0 I I #
coedge $-1 $731 $675 $666 $712 forward $695 $-1 #
edge $-1 $677 -47.114474929044462 $733 31.965064359727624 $666 $745 forward 7 unknown #
coedge $-1 $746 $667 $721 $747 reversed $715 $-1 #
coedge $-1 $667 $746 $669 $719 reversed $715 $-1 #
loop $-1 $-1 $667 $727 #
vertex $-1 $676 $748 #
straight-curve $-1 47.114474929044462 31.807698512004666 0 0 0 -1 I I #
coedge $-1 $701 $669 $749 $750 forward $617 $-1 #
edge $-1 $670 -47.114474929044462 $751 47.114474929044462 $714 $752 forward 7 unknown #
point $-1 47.114474929044462 31.807698512004666 12.617173465666159 #
coedge $-1 $675 $739 $713 $747 forward $695 $-1 #
straight-curve $-1 47.114474929044462 0 -12.617173465666159 0 -1 0 I I #
point $-1 47.114474929044462 -31.807698512004666 -12.617173465666159 #
straight-curve $-1 -47.114474929044462 0 -12.617173465666159 0 1 0 I I #
straight-curve $-1 -47.114474929044462 31.807698512004666 0 0 0 -1 I I #
point $-1 -47.114474929044462 31.807698512004666 -12.617173465666159 #
face $-1 $-1 $715 $19 $-1 $753 reversed single #
loop $-1 $-1 $735 $694 #
plane-surface $-1 -47.114474929044462 0 0 1 0 0 0 0 -1 forward_v I I I I #
edge $-1 $705 12.27089112518351 $709 17.114835299608607 $708 $754 forward 7 unknown #
coedge $-1 $703 $711 $698 $732 forward $695 $-1 #
edge $-1 $733 -17.114835299608607 $706 -12.27089112518351 $731 $755 forward 7 unknown #
vertex $-1 $699 $756 #
straight-curve $-1 -31.965064359727624 -31.807698512004666 0 0 0 -1 I I #
coedge $-1 $749 $757 $700 $736 forward $728 $-1 #
edge $-1 $740 -12.617173465666159 $737 12.617173465666159 $735 $758 forward 7 unknown #
vertex $-1 $736 $759 #
straight-curve $-1 -19.769884822193021 -26.963754337579569 12.617173465666159 1 0 0 I I #
coedge $-1 $721 $703 $757 $760 forward $695 $-1 #
vertex $-1 $760 $761 #
straight-curve $-1 -19.769884822193021 -26.963754337579569 -12.617173465666159 -1 0 0 I I #
point $-1 -31.965064359727624 -26.963754337579569 12.617173465666159 #
point $-1 -31.965064359727624 -26.963754337579569 -12.617173465666159 #
point $-1 -31.965064359727624 -31.807698512004666 12.617173465666159 #
straight-curve $-1 0 -31.807698512004666 -12.617173465666159 -1 0 0 I I #
coedge $-1 $714 $713 $762 $763 reversed $715 $-1 #
edge $-1 $764 -47.114474929044462 $716 47.114474929044462 $713 $765 forward 7 unknown #
point $-1 47.114474929044462 31.807698512004666 -12.617173465666159 #
coedge $-1 $762 $735 $718 $750 reversed $728 $-1 #
edge $-1 $751 -31.807698512004666 $737 26.963754337579569 $749 $766 forward 7 unknown #
vertex $-1 $719 $767 #
straight-curve $-1 0 31.807698512004666 12.617173465666159 -1 0 0 I I #
plane-surface $-1 0 31.807698512004666 0 0 -1 0 0 0 -1 forward_v I I I I #
straight-curve $-1 -31.965064359727624 -14.692863212396059 12.617173465666159 0 -1 0 I I #
straight-curve $-1 -31.965064359727624 -14.692863212396059 -12.617173465666159 0 1 0 I I #
point $-1 -31.965064359727624 -31.807698512004666 -12.617173465666159 #
coedge $-1 $735 $762 $739 $760 reversed $728 $-1 #
straight-curve $-1 -47.114474929044462 -26.963754337579569 0 0 0 1 I I #
point $-1 -47.114474929044462 -26.963754337579569 12.617173465666159 #
edge $-1 $740 -26.963754337579569 $764 31.807698512004666 $757 $768 forward 7 unknown #
point $-1 -47.114474929044462 -26.963754337579569 -12.617173465666159 #
coedge $-1 $757 $749 $746 $763 forward $728 $-1 #
edge $-1 $751 -12.617173465666159 $764 12.617173465666159 $746 $769 forward 7 unknown #
vertex $-1 $747 $770 #
straight-curve $-1 0 31.807698512004666 -12.617173465666159 1 0 0 I I #
straight-curve $-1 -47.114474929044462 0 12.617173465666159 0 -1 0 I I #
point $-1 -47.114474929044462 31.807698512004666 12.617173465666159 #
straight-curve $-1 -47.114474929044462 0 -12.617173465666159 0 1 0 I I #
straight-curve $-1 -47.114474929044462 31.807698512004666 0 0 0 -1 I I #
point $-1 -47.114474929044462 31.807698512004666 -12.617173465666159 #
End-of-ACIS-data 