500 0 3 0           
7 Unknown 11 ACIS 5.0 NT 24 Thu Mar 25 20:28:15 1999 
-1 9.9999999999999995e-007 1e-010 
body $-1 $3 $-1 $4 #
body $-1 $5 $-1 $6 #
body $-1 $7 $-1 $8 #
lump $-1 $-1 $9 $0 #
transform $-1 1 0 0 0 1 0 0 0 1 45.036774803918576 26.869225459816406 7.4188648183415316 1 rotate no_reflect no_shear #
lump $-1 $-1 $10 $1 #
transform $-1 1 0 0 0 1 0 0 0 1 45.036774803918576 26.869225459816406 7.4188648183415316 1 rotate no_reflect no_shear #
lump $-1 $-1 $11 $2 #
transform $-1 1 0 0 0 1 0 0 0 1 45.036774803918576 26.869225459816406 7.4188648183415316 1 rotate no_reflect no_shear #
shell $-1 $-1 $-1 $12 $-1 $3 #
shell $-1 $-1 $-1 $13 $-1 $5 #
shell $-1 $-1 $-1 $14 $-1 $7 #
face $-1 $15 $16 $9 $-1 $17 forward single #
face $-1 $18 $19 $10 $-1 $20 forward single #
face $-1 $21 $22 $11 $-1 $23 reversed single #
face $-1 $24 $25 $9 $-1 $26 reversed single #
loop $-1 $-1 $27 $12 #
plane-surface $-1 0 0 7.4188648183415316 0 0 1 1 0 0 forward_v I I I I #
face $-1 $28 $29 $10 $-1 $30 forward single #
loop $-1 $-1 $31 $13 #
plane-surface $-1 -105.30774439477682 13.702705919161772 69.779941319989348 0 1 0 -0.66913061440640931 0 0.74314481823134659 forward_v I I I I #
face $-1 $32 $33 $11 $-1 $34 reversed single #
loop $-1 $35 $36 $14 #
cone-surface $-1 -41.433813796137073 19.018022172112374 3.9515998449922609 0.66913061440640931 0 -0.74314481823134659 0.74314481823134659 0 0.66913061440640931 1 I I 0 1 1 forward I I I I #
face $-1 $37 $38 $9 $-1 $39 reversed single #
loop $-1 $-1 $40 $15 #
plane-surface $-1 0 0 -7.4188648183415316 0 0 1 1 0 0 forward_v I I I I #
coedge $-1 $41 $42 $43 $44 forward $16 $-1 #
face $-1 $45 $46 $10 $-1 $47 forward single #
loop $-1 $-1 $48 $18 #
plane-surface $-1 -45.036774803918554 19.018022172112374 2.8422496692210331 -0.66913061440640931 0 0.74314481823134659 0.74314481823134659 0 0.66913061440640931 forward_v I I I I #
coedge $-1 $49 $50 $51 $52 reversed $19 $-1 #
face $-1 $53 $54 $11 $-1 $55 forward single #
loop $-1 $56 $57 $21 #
cone-surface $-1 -40.037710455891833 19.018022172112374 2.4010700370875595 0.66913061440640931 0 -0.74314481823134659 0.3715724091156733 0 0.33456530720320465 1 I I -0.70710678118654746 0.70710678118654746 0.5 forward I I I I #
loop $-1 $-1 $58 $14 #
coedge $-1 $36 $36 $59 $60 reversed $22 $-1 #
face $-1 $61 $62 $9 $-1 $63 reversed single #
loop $-1 $-1 $64 $24 #
plane-surface $-1 0 -26.869225459816406 0 0 1 0 0 0 1 forward_v I I I I #
coedge $-1 $65 $66 $67 $68 forward $25 $-1 #
coedge $-1 $69 $27 $70 $71 forward $16 $-1 #
coedge $-1 $27 $69 $72 $73 forward $16 $-1 #
coedge $-1 $74 $75 $27 $44 reversed $76 $-1 #
edge $-1 $77 -26.869225459816406 $78 26.869225459816406 $43 $79 forward 7 unknown #
face $-1 $80 $81 $10 $-1 $82 forward single #
loop $-1 $-1 $83 $28 #
plane-surface $-1 -105.30774439477682 24.333338425062976 69.779941319989348 0 -1 0 0.66913061440640931 0 -0.74314481823134659 forward_v I I I I #
coedge $-1 $84 $85 $86 $87 reversed $29 $-1 #
coedge $-1 $50 $31 $85 $88 forward $19 $-1 #
coedge $-1 $31 $49 $89 $90 reversed $19 $-1 #
coedge $-1 $91 $86 $31 $52 forward $81 $-1 #
edge $-1 $92 -12.699943342948806 $93 -7.6170973934698338 $51 $94 forward 7 unknown #
face $-1 $95 $96 $11 $-1 $97 forward single #
loop $-1 $-1 $98 $32 #
plane-surface $-1 -105.30774439477682 13.702705919161772 69.779941319989348 0 1 0 -0.66913061440640931 0 0.74314481823134659 forward_v I I I I #
loop $-1 $-1 $99 $21 #
coedge $-1 $57 $57 $58 $100 forward $33 $-1 #
coedge $-1 $58 $58 $57 $100 reversed $35 $-1 #
coedge $-1 $59 $59 $36 $60 forward $96 $-1 #
edge $-1 $101 0 $101 6.2831853071796004 $59 $102 forward 7 unknown #
face $-1 $103 $104 $9 $-1 $105 reversed single #
loop $-1 $-1 $106 $37 #
plane-surface $-1 -45.036774803918576 0 0 1 0 0 0 0 -1 forward_v I I I I #
coedge $-1 $107 $72 $108 $109 forward $38 $-1 #
coedge $-1 $110 $40 $107 $111 forward $25 $-1 #
coedge $-1 $40 $110 $112 $113 forward $25 $-1 #
coedge $-1 $75 $74 $40 $68 reversed $76 $-1 #
edge $-1 $114 -26.869225459816406 $115 26.869225459816406 $67 $116 forward 7 unknown #
coedge $-1 $42 $41 $117 $118 forward $16 $-1 #
coedge $-1 $119 $120 $41 $71 reversed $104 $-1 #
edge $-1 $78 -45.036774803918576 $121 45.036774803918576 $70 $122 forward 7 unknown #
coedge $-1 $64 $123 $42 $73 reversed $38 $-1 #
edge $-1 $124 -45.036774803918576 $77 45.036774803918576 $72 $125 forward 7 unknown #
coedge $-1 $67 $43 $123 $126 forward $76 $-1 #
coedge $-1 $43 $67 $119 $127 reversed $76 $-1 #
loop $-1 $-1 $74 $103 #
vertex $-1 $44 $128 #
vertex $-1 $44 $129 #
straight-curve $-1 45.036774803918576 0 7.4188648183415316 0 1 0 I I #
face $-1 $130 $131 $10 $-1 $132 reversed single #
loop $-1 $-1 $133 $45 #
plane-surface $-1 0 0 7.4188648183415316 0 0 1 1 0 0 forward_v I I I I #
coedge $-1 $134 $135 $133 $136 reversed $46 $-1 #
coedge $-1 $137 $48 $135 $138 reversed $29 $-1 #
coedge $-1 $48 $137 $49 $88 reversed $29 $-1 #
coedge $-1 $51 $133 $48 $87 forward $81 $-1 #
edge $-1 $139 -14.824327339006789 $92 -4.1936948331055852 $86 $140 forward 7 unknown #
edge $-1 $92 -6.8396439358561505 $141 2.8618693057405159e-014 $49 $142 forward 7 unknown #
coedge $-1 $143 $144 $50 $90 forward $145 $-1 #
edge $-1 $93 27.471105841653142 $141 32.047720990773662 $89 $146 forward 7 unknown #
coedge $-1 $147 $51 $144 $148 forward $81 $-1 #
vertex $-1 $87 $149 #
vertex $-1 $148 $150 #
straight-curve $-1 -52.653872197388409 13.702705919161772 7.4188648183415324 -1 0 0 I I #
face $-1 $151 $152 $11 $-1 $153 forward single #
loop $-1 $154 $59 $53 #
plane-surface $-1 -45.036774803918554 19.018022172112374 2.8422496692210331 -0.66913061440640931 0 0.74314481823134659 0.74314481823134659 0 0.66913061440640931 forward_v I I I I #
coedge $-1 $155 $156 $157 $158 reversed $54 $-1 #
coedge $-1 $99 $99 $-1 $159 forward $56 $-1 #
edge $-1 $160 0 $160 6.2831853071796004 $57 $161 forward 7 unknown #
vertex $-1 $60 $162 #
ellipse-curve $-1 -42.495351829179093 19.018022172112374 5.1305572437812703 0.66913061440640931 0 -0.74314481823134659 0.74314481823134659 0 0.66913061440640931 1 I I #
face $-1 $-1 $76 $9 $-1 $163 reversed single #
loop $-1 $-1 $119 $61 #
plane-surface $-1 0 26.869225459816406 0 0 -1 0 0 0 -1 forward_v I I I I #
coedge $-1 $164 $117 $120 $165 forward $62 $-1 #
coedge $-1 $123 $64 $65 $111 reversed $38 $-1 #
coedge $-1 $117 $164 $64 $109 reversed $62 $-1 #
edge $-1 $124 -7.4188648183415316 $166 7.4188648183415316 $108 $167 forward 7 unknown #
coedge $-1 $66 $65 $164 $168 forward $25 $-1 #
edge $-1 $115 -45.036774803918576 $166 45.036774803918576 $107 $169 forward 7 unknown #
coedge $-1 $120 $119 $66 $113 reversed $104 $-1 #
edge $-1 $170 -45.036774803918576 $114 45.036774803918576 $112 $171 forward 7 unknown #
vertex $-1 $68 $172 #
vertex $-1 $126 $173 #
straight-curve $-1 45.036774803918576 0 -7.4188648183415316 0 -1 0 I I #
coedge $-1 $106 $108 $69 $118 reversed $62 $-1 #
edge $-1 $121 -26.869225459816406 $124 26.869225459816406 $117 $174 forward 7 unknown #
coedge $-1 $112 $70 $75 $127 forward $104 $-1 #
coedge $-1 $70 $112 $106 $165 reversed $104 $-1 #
vertex $-1 $71 $175 #
straight-curve $-1 0 26.869225459816406 7.4188648183415316 -1 0 0 I I #
coedge $-1 $72 $107 $74 $126 reversed $38 $-1 #
vertex $-1 $118 $176 #
straight-curve $-1 0 -26.869225459816406 7.4188648183415316 1 0 0 I I #
edge $-1 $77 -7.4188648183415316 $115 7.4188648183415316 $74 $177 forward 7 unknown #
edge $-1 $78 -7.4188648183415316 $114 7.4188648183415316 $75 $178 forward 7 unknown #
point $-1 45.036774803918576 -26.869225459816406 7.4188648183415316 #
point $-1 45.036774803918576 26.869225459816406 7.4188648183415316 #
face $-1 $179 $180 $10 $-1 $181 reversed single #
loop $-1 $-1 $182 $80 #
plane-surface $-1 0 0 -7.4188648183415316 0 0 1 1 0 0 forward_v I I I I #
coedge $-1 $86 $183 $83 $136 forward $81 $-1 #
coedge $-1 $135 $83 $184 $185 reversed $46 $-1 #
coedge $-1 $83 $134 $84 $138 forward $46 $-1 #
edge $-1 $186 7.6170973934698338 $139 12.699943342948806 $133 $187 forward 7 unknown #
coedge $-1 $85 $84 $143 $188 reversed $29 $-1 #
edge $-1 $189 -2.8618693057405159e-014 $139 6.8396439358561505 $135 $190 forward 7 unknown #
vertex $-1 $87 $191 #
straight-curve $-1 -39.953928854439603 9.5090110860561872 7.4188648183415307 0 -1 0 I I #
vertex $-1 $188 $192 #
straight-curve $-1 -45.036774803918554 13.702705919161772 2.8422496692210331 -0.74314481823134659 0 -0.66913061440640931 I I #
coedge $-1 $184 $89 $137 $188 forward $145 $-1 #
coedge $-1 $89 $193 $91 $148 reversed $145 $-1 #
loop $-1 $-1 $184 $179 #
straight-curve $-1 -45.036774803918576 13.702705919161772 34.889970659994674 0 0 -1 I I #
coedge $-1 $194 $91 $195 $196 forward $81 $-1 #
edge $-1 $93 -13.702705919161772 $197 26.869225459816406 $144 $198 forward 7 unknown #
point $-1 -39.953928854439603 13.702705919161772 7.4188648183415316 #
point $-1 -45.036774803918576 13.702705919161772 7.4188648183415316 #
face $-1 $199 $200 $11 $-1 $201 forward single #
loop $-1 $-1 $202 $95 #
plane-surface $-1 -105.30774439477682 24.333338425062976 69.779941319989348 0 -1 0 0.66913061440640931 0 -0.74314481823134659 forward_v I I I I #
loop $-1 $-1 $203 $53 #
coedge $-1 $156 $98 $204 $205 forward $54 $-1 #
coedge $-1 $98 $155 $206 $207 reversed $54 $-1 #
coedge $-1 $208 $209 $98 $158 forward $200 $-1 #
edge $-1 $210 -12.699943342948806 $211 -7.6170973934698338 $157 $212 forward 7 unknown #
edge $-1 $213 1 $213 0 $99 $-1 forward 7 unknown #
vertex $-1 $100 $214 #
ellipse-curve $-1 -40.37227576309504 19.018022172112374 2.7726424462032329 -0.66913061440640931 0 0.74314481823134659 0.74314481823134659 0 0.66913061440640931 1 I I #
point $-1 -41.752207010947764 19.018022172112374 5.7996878581876983 #
plane-surface $-1 45.036774803918576 0 0 -1 0 0 0 0 1 forward_v I I I I #
coedge $-1 $108 $106 $110 $168 reversed $62 $-1 #
edge $-1 $121 -7.4188648183415316 $170 7.4188648183415316 $120 $215 forward 7 unknown #
vertex $-1 $168 $216 #
straight-curve $-1 -45.036774803918576 -26.869225459816406 0 0 0 -1 I I #
edge $-1 $166 -26.869225459816406 $170 26.869225459816406 $164 $217 forward 7 unknown #
straight-curve $-1 0 -26.869225459816406 -7.4188648183415316 -1 0 0 I I #
vertex $-1 $113 $218 #
straight-curve $-1 0 26.869225459816406 -7.4188648183415316 1 0 0 I I #
point $-1 45.036774803918576 26.869225459816406 -7.4188648183415316 #
point $-1 45.036774803918576 -26.869225459816406 -7.4188648183415316 #
straight-curve $-1 -45.036774803918576 0 7.4188648183415316 0 -1 0 I I #
point $-1 -45.036774803918576 26.869225459816406 7.4188648183415316 #
point $-1 -45.036774803918576 -26.869225459816406 7.4188648183415316 #
straight-curve $-1 45.036774803918576 -26.869225459816406 0 0 0 -1 I I #
straight-curve $-1 45.036774803918576 26.869225459816406 0 0 0 -1 I I #
face $-1 $219 $145 $10 $-1 $220 reversed single #
loop $-1 $-1 $221 $130 #
plane-surface $-1 0 -26.869225459816406 0 0 1 0 0 0 1 forward_v I I I I #
coedge $-1 $222 $223 $224 $225 forward $131 $-1 #
coedge $-1 $133 $226 $227 $228 forward $81 $-1 #
coedge $-1 $227 $143 $134 $185 forward $145 $-1 #
edge $-1 $189 -32.047720990773662 $186 -27.471105841653142 $184 $229 forward 7 unknown #
vertex $-1 $185 $230 #
straight-curve $-1 -52.653872197388409 24.333338425062976 7.4188648183415324 1 0 0 I I #
edge $-1 $141 4.1936948331055852 $189 14.824327339006789 $143 $231 forward 7 unknown #
vertex $-1 $188 $232 #
straight-curve $-1 -45.036774803918554 24.333338425062976 2.8422496692210331 0.74314481823134659 0 0.66913061440640931 I I #
point $-1 -39.953928854439603 24.333338425062976 7.4188648183415316 #
point $-1 -45.036774803918576 13.702705919161772 2.842249669221014 #
coedge $-1 $144 $233 $221 $234 reversed $145 $-1 #
coedge $-1 $226 $147 $235 $236 forward $81 $-1 #
coedge $-1 $221 $237 $147 $196 reversed $180 $-1 #
edge $-1 $197 -45.036774803918576 $238 45.036774803918576 $195 $239 forward 7 unknown #
vertex $-1 $148 $240 #
straight-curve $-1 -45.036774803918576 0 7.4188648183415316 0 -1 0 I I #
face $-1 $241 $242 $11 $-1 $243 reversed single #
loop $-1 $-1 $244 $151 #
plane-surface $-1 0 0 7.4188648183415316 0 0 1 1 0 0 forward_v I I I I #
coedge $-1 $245 $246 $244 $247 reversed $152 $-1 #
coedge $-1 $248 $204 $209 $249 reversed $154 $-1 #
coedge $-1 $203 $250 $155 $205 reversed $154 $-1 #
edge $-1 $210 -6.8396439358561505 $251 2.8618693057405159e-014 $155 $252 forward 7 unknown #
coedge $-1 $253 $254 $156 $207 forward $255 $-1 #
edge $-1 $211 27.471105841653142 $251 32.047720990773662 $206 $256 forward 7 unknown #
coedge $-1 $257 $157 $254 $258 forward $200 $-1 #
coedge $-1 $157 $244 $203 $249 forward $200 $-1 #
vertex $-1 $249 $259 #
vertex $-1 $258 $260 #
straight-curve $-1 -52.653872197388409 13.702705919161772 7.4188648183415324 -1 0 0 I I #
vertex $-1 $159 $261 #
point $-1 -39.629130944863689 19.018022172112374 3.4417730606096422 #
straight-curve $-1 -45.036774803918576 26.869225459816406 0 0 0 -1 I I #
point $-1 -45.036774803918576 -26.869225459816406 -7.4188648183415316 #
straight-curve $-1 -45.036774803918576 0 -7.4188648183415316 0 1 0 I I #
point $-1 -45.036774803918576 26.869225459816406 -7.4188648183415316 #
face $-1 $262 $263 $10 $-1 $264 reversed single #
plane-surface $-1 -45.036774803918576 0 0 1 0 0 0 0 -1 forward_v I I I I #
coedge $-1 $265 $195 $193 $234 forward $180 $-1 #
coedge $-1 $266 $182 $265 $267 forward $131 $-1 #
coedge $-1 $182 $266 $268 $269 forward $131 $-1 #
coedge $-1 $270 $271 $182 $225 reversed $272 $-1 #
edge $-1 $273 -26.869225459816406 $274 26.869225459816406 $224 $275 forward 7 unknown #
coedge $-1 $183 $194 $276 $277 forward $81 $-1 #
coedge $-1 $278 $184 $183 $228 reversed $145 $-1 #
edge $-1 $279 -26.869225459816406 $186 -24.333338425062976 $227 $198 forward 7 unknown #
straight-curve $-1 -45.036774803918576 24.333338425062976 34.889970659994674 0 0 1 I I #
point $-1 -45.036774803918576 24.333338425062976 7.4188648183415316 #
straight-curve $-1 -45.036774803918576 9.5090110860561872 2.8422496692210104 0 1 0 I I #
point $-1 -45.036774803918576 24.333338425062976 2.842249669221014 #
coedge $-1 $193 $278 $266 $280 reversed $145 $-1 #
edge $-1 $197 -7.4188648183415316 $281 7.4188648183415316 $193 $282 forward 7 unknown #
coedge $-1 $271 $270 $194 $236 reversed $272 $-1 #
edge $-1 $238 -26.869225459816406 $283 26.869225459816406 $235 $284 forward 7 unknown #
coedge $-1 $195 $265 $271 $285 reversed $180 $-1 #
vertex $-1 $236 $286 #
straight-curve $-1 0 -26.869225459816406 7.4188648183415316 1 0 0 I I #
point $-1 -45.036774803918576 -26.869225459816406 7.4188648183415316 #
face $-1 $287 $288 $11 $-1 $289 reversed single #
loop $-1 $-1 $290 $199 #
plane-surface $-1 0 0 -7.4188648183415316 0 0 1 1 0 0 forward_v I I I I #
coedge $-1 $209 $291 $202 $247 forward $200 $-1 #
coedge $-1 $246 $202 $292 $293 reversed $152 $-1 #
coedge $-1 $202 $245 $248 $294 forward $152 $-1 #
edge $-1 $295 7.6170973934698338 $296 12.699943342948806 $244 $297 forward 7 unknown #
coedge $-1 $250 $203 $246 $294 reversed $154 $-1 #
edge $-1 $296 -14.824327339006789 $210 -4.1936948331055852 $209 $298 forward 7 unknown #
coedge $-1 $204 $248 $253 $299 reversed $154 $-1 #
vertex $-1 $299 $300 #
straight-curve $-1 -45.036774803918554 13.702705919161772 2.8422496692210331 -0.74314481823134659 0 -0.66913061440640931 I I #
coedge $-1 $292 $206 $250 $299 forward $255 $-1 #
coedge $-1 $206 $301 $208 $258 reversed $255 $-1 #
loop $-1 $-1 $292 $287 #
straight-curve $-1 -45.036774803918576 13.702705919161772 34.889970659994674 0 0 -1 I I #
coedge $-1 $302 $208 $303 $304 forward $200 $-1 #
edge $-1 $211 -13.702705919161772 $305 26.869225459816406 $254 $306 forward 7 unknown #
point $-1 -39.953928854439603 13.702705919161772 7.4188648183415316 #
point $-1 -45.036774803918576 13.702705919161772 7.4188648183415316 #
point $-1 -39.703145148688627 19.018022172112374 2.0294976279718862 #
face $-1 $-1 $272 $10 $-1 $307 reversed single #
loop $-1 $-1 $308 $219 #
plane-surface $-1 0 26.869225459816406 0 0 -1 0 0 0 -1 forward_v I I I I #
coedge $-1 $237 $221 $222 $267 reversed $180 $-1 #
coedge $-1 $223 $222 $233 $280 forward $131 $-1 #
edge $-1 $274 -45.036774803918576 $281 45.036774803918576 $265 $309 forward 7 unknown #
coedge $-1 $310 $308 $223 $269 reversed $263 $-1 #
edge $-1 $311 -45.036774803918576 $273 45.036774803918576 $268 $312 forward 7 unknown #
coedge $-1 $235 $224 $308 $313 reversed $272 $-1 #
coedge $-1 $224 $235 $237 $285 forward $272 $-1 #
loop $-1 $-1 $271 $262 #
vertex $-1 $225 $314 #
vertex $-1 $285 $315 #
straight-curve $-1 45.036774803918576 0 -7.4188648183415316 0 -1 0 I I #
coedge $-1 $308 $310 $226 $277 reversed $263 $-1 #
edge $-1 $283 -45.036774803918576 $279 45.036774803918576 $276 $316 forward 7 unknown #
coedge $-1 $233 $227 $310 $317 forward $145 $-1 #
vertex $-1 $277 $318 #
edge $-1 $281 -26.869225459816406 $311 26.869225459816406 $233 $319 forward 7 unknown #
vertex $-1 $280 $320 #
straight-curve $-1 -45.036774803918576 -26.869225459816406 0 0 0 -1 I I #
vertex $-1 $236 $321 #
straight-curve $-1 45.036774803918576 0 7.4188648183415316 0 1 0 I I #
edge $-1 $238 -7.4188648183415316 $274 7.4188648183415316 $271 $322 forward 7 unknown #
point $-1 45.036774803918576 -26.869225459816406 7.4188648183415316 #
face $-1 $323 $255 $11 $-1 $324 reversed single #
loop $-1 $-1 $325 $241 #
plane-surface $-1 0 -26.869225459816406 0 0 1 0 0 0 1 forward_v I I I I #
coedge $-1 $326 $327 $328 $329 forward $242 $-1 #
coedge $-1 $244 $330 $331 $332 forward $200 $-1 #
coedge $-1 $331 $253 $245 $293 forward $255 $-1 #
edge $-1 $333 -32.047720990773662 $295 -27.471105841653142 $292 $334 forward 7 unknown #
edge $-1 $333 -2.8618693057405159e-014 $296 6.8396439358561505 $246 $335 forward 7 unknown #
vertex $-1 $293 $336 #
vertex $-1 $249 $337 #
straight-curve $-1 -52.653872197388409 24.333338425062976 7.4188648183415324 1 0 0 I I #
straight-curve $-1 -39.953928854439603 9.5090110860561872 7.4188648183415307 0 -1 0 I I #
edge $-1 $251 4.1936948331055852 $333 14.824327339006789 $253 $338 forward 7 unknown #
point $-1 -45.036774803918576 13.702705919161772 2.842249669221014 #
coedge $-1 $254 $339 $325 $340 reversed $255 $-1 #
coedge $-1 $330 $257 $341 $342 forward $200 $-1 #
coedge $-1 $325 $343 $257 $304 reversed $288 $-1 #
edge $-1 $305 -45.036774803918576 $344 45.036774803918576 $303 $345 forward 7 unknown #
vertex $-1 $258 $346 #
straight-curve $-1 -45.036774803918576 0 7.4188648183415316 0 -1 0 I I #
plane-surface $-1 45.036774803918576 0 0 -1 0 0 0 0 1 forward_v I I I I #
coedge $-1 $268 $276 $270 $313 forward $263 $-1 #
straight-curve $-1 0 -26.869225459816406 -7.4188648183415316 -1 0 0 I I #
coedge $-1 $276 $268 $278 $317 reversed $263 $-1 #
vertex $-1 $269 $347 #
straight-curve $-1 0 26.869225459816406 -7.4188648183415316 1 0 0 I I #
edge $-1 $283 -7.4188648183415316 $273 7.4188648183415316 $270 $348 forward 7 unknown #
point $-1 45.036774803918576 26.869225459816406 -7.4188648183415316 #
point $-1 45.036774803918576 -26.869225459816406 -7.4188648183415316 #
straight-curve $-1 0 26.869225459816406 7.4188648183415316 -1 0 0 I I #
edge $-1 $279 -7.4188648183415316 $311 7.4188648183415316 $310 $349 forward 7 unknown #
point $-1 -45.036774803918576 26.869225459816406 7.4188648183415316 #
straight-curve $-1 -45.036774803918576 0 -7.4188648183415316 0 1 0 I I #
point $-1 -45.036774803918576 -26.869225459816406 -7.4188648183415316 #
point $-1 45.036774803918576 26.869225459816406 7.4188648183415316 #
straight-curve $-1 45.036774803918576 -26.869225459816406 0 0 0 -1 I I #
face $-1 $350 $351 $11 $-1 $352 reversed single #
plane-surface $-1 -45.036774803918576 0 0 1 0 0 0 0 -1 forward_v I I I I #
coedge $-1 $353 $303 $301 $340 forward $288 $-1 #
coedge $-1 $354 $290 $353 $355 forward $242 $-1 #
coedge $-1 $290 $354 $356 $357 forward $242 $-1 #
coedge $-1 $358 $359 $290 $329 reversed $360 $-1 #
edge $-1 $361 -26.869225459816406 $362 26.869225459816406 $328 $363 forward 7 unknown #
coedge $-1 $291 $302 $364 $365 forward $200 $-1 #
coedge $-1 $366 $292 $291 $332 reversed $255 $-1 #
edge $-1 $367 -26.869225459816406 $295 -24.333338425062976 $331 $306 forward 7 unknown #
vertex $-1 $299 $368 #
straight-curve $-1 -45.036774803918576 24.333338425062976 34.889970659994674 0 0 1 I I #
straight-curve $-1 -45.036774803918554 24.333338425062976 2.8422496692210331 0.74314481823134659 0 0.66913061440640931 I I #
point $-1 -45.036774803918576 24.333338425062976 7.4188648183415316 #
point $-1 -39.953928854439603 24.333338425062976 7.4188648183415316 #
straight-curve $-1 -45.036774803918576 9.5090110860561872 2.8422496692210104 0 1 0 I I #
coedge $-1 $301 $366 $354 $369 reversed $255 $-1 #
edge $-1 $305 -7.4188648183415316 $370 7.4188648183415316 $301 $371 forward 7 unknown #
coedge $-1 $359 $358 $302 $342 reversed $360 $-1 #
edge $-1 $344 -26.869225459816406 $372 26.869225459816406 $341 $373 forward 7 unknown #
coedge $-1 $303 $353 $359 $374 reversed $288 $-1 #
vertex $-1 $342 $375 #
straight-curve $-1 0 -26.869225459816406 7.4188648183415316 1 0 0 I I #
point $-1 -45.036774803918576 -26.869225459816406 7.4188648183415316 #
point $-1 -45.036774803918576 26.869225459816406 -7.4188648183415316 #
straight-curve $-1 45.036774803918576 26.869225459816406 0 0 0 -1 I I #
straight-curve $-1 -45.036774803918576 26.869225459816406 0 0 0 -1 I I #
face $-1 $-1 $360 $11 $-1 $376 reversed single #
loop $-1 $-1 $377 $323 #
plane-surface $-1 0 26.869225459816406 0 0 -1 0 0 0 -1 forward_v I I I I #
coedge $-1 $343 $325 $326 $355 reversed $288 $-1 #
coedge $-1 $327 $326 $339 $369 forward $242 $-1 #
edge $-1 $362 -45.036774803918576 $370 45.036774803918576 $353 $378 forward 7 unknown #
coedge $-1 $379 $377 $327 $357 reversed $351 $-1 #
edge $-1 $380 -45.036774803918576 $361 45.036774803918576 $356 $381 forward 7 unknown #
coedge $-1 $341 $328 $377 $382 reversed $360 $-1 #
coedge $-1 $328 $341 $343 $374 forward $360 $-1 #
loop $-1 $-1 $359 $350 #
vertex $-1 $329 $383 #
vertex $-1 $374 $384 #
straight-curve $-1 45.036774803918576 0 -7.4188648183415316 0 -1 0 I I #
coedge $-1 $377 $379 $330 $365 reversed $351 $-1 #
edge $-1 $372 -45.036774803918576 $367 45.036774803918576 $364 $385 forward 7 unknown #
coedge $-1 $339 $331 $379 $386 forward $255 $-1 #
vertex $-1 $365 $387 #
point $-1 -45.036774803918576 24.333338425062976 2.842249669221014 #
edge $-1 $370 -26.869225459816406 $380 26.869225459816406 $339 $388 forward 7 unknown #
vertex $-1 $369 $389 #
straight-curve $-1 -45.036774803918576 -26.869225459816406 0 0 0 -1 I I #
vertex $-1 $342 $390 #
straight-curve $-1 45.036774803918576 0 7.4188648183415316 0 1 0 I I #
edge $-1 $344 -7.4188648183415316 $362 7.4188648183415316 $359 $391 forward 7 unknown #
point $-1 45.036774803918576 -26.869225459816406 7.4188648183415316 #
plane-surface $-1 45.036774803918576 0 0 -1 0 0 0 0 1 forward_v I I I I #
coedge $-1 $356 $364 $358 $382 forward $351 $-1 #
straight-curve $-1 0 -26.869225459816406 -7.4188648183415316 -1 0 0 I I #
coedge $-1 $364 $356 $366 $386 reversed $351 $-1 #
vertex $-1 $357 $392 #
straight-curve $-1 0 26.869225459816406 -7.4188648183415316 1 0 0 I I #
edge $-1 $372 -7.4188648183415316 $361 7.4188648183415316 $358 $393 forward 7 unknown #
point $-1 45.036774803918576 26.869225459816406 -7.4188648183415316 #
point $-1 45.036774803918576 -26.869225459816406 -7.4188648183415316 #
straight-curve $-1 0 26.869225459816406 7.4188648183415316 -1 0 0 I I #
edge $-1 $367 -7.4188648183415316 $380 7.4188648183415316 $379 $394 forward 7 unknown #
point $-1 -45.036774803918576 26.869225459816406 7.4188648183415316 #
straight-curve $-1 -45.036774803918576 0 -7.4188648183415316 0 1 0 I I #
point $-1 -45.036774803918576 -26.869225459816406 -7.4188648183415316 #
point $-1 45.036774803918576 26.869225459816406 7.4188648183415316 #
straight-curve $-1 45.036774803918576 -26.869225459816406 0 0 0 -1 I I #
point $-1 -45.036774803918576 26.869225459816406 -7.4188648183415316 #
straight-curve $-1 45.036774803918576 26.869225459816406 0 0 0 -1 I I #
straight-curve $-1 -45.036774803918576 26.869225459816406 0 0 0 -1 I I #
End-of-ACIS-data 