500 0 6 0           
7 Unknown 11 ACIS 5.0 NT 24 Fri Mar 26 18:04:40 1999 
-1 9.9999999999999995e-007 1e-010 
body $-1 $6 $-1 $7 #
body $-1 $8 $-1 $9 #
body $-1 $10 $-1 $11 #
body $-1 $12 $-1 $13 #
body $-1 $14 $-1 $15 #
body $-1 $16 $-1 $17 #
lump $-1 $-1 $18 $0 #
transform $-1 1 0 0 0 1 0 0 0 1 70.683309427167572 28.955414363257862 13.123296842123779 1 rotate no_reflect no_shear #
lump $-1 $-1 $19 $1 #
transform $-1 1 0 0 0 1 0 0 0 1 70.683309427167572 28.955414363257862 13.123296842123779 1 rotate no_reflect no_shear #
lump $-1 $-1 $20 $2 #
transform $-1 1 0 0 0 1 0 0 0 1 70.683309427167572 28.955414363257862 13.123296842123779 1 rotate no_reflect no_shear #
lump $-1 $-1 $21 $3 #
transform $-1 1 0 0 0 1 0 0 0 1 70.683309427167572 28.955414363257862 13.123296842123779 1 rotate no_reflect no_shear #
lump $-1 $-1 $22 $4 #
transform $-1 1 0 0 0 1 0 0 0 1 70.683309427167572 28.955414363257862 13.123296842123779 1 rotate no_reflect no_shear #
lump $-1 $-1 $23 $5 #
transform $-1 1 0 0 0 1 0 0 0 1 70.683309427167572 28.955414363257862 13.123296842123779 1 rotate no_reflect no_shear #
shell $-1 $-1 $-1 $24 $-1 $6 #
shell $-1 $-1 $-1 $25 $-1 $8 #
shell $-1 $-1 $-1 $26 $-1 $10 #
shell $-1 $-1 $-1 $27 $-1 $12 #
shell $-1 $-1 $-1 $28 $-1 $14 #
shell $-1 $-1 $-1 $29 $-1 $16 #
face $-1 $30 $31 $18 $-1 $32 forward single #
face $-1 $33 $34 $19 $-1 $35 reversed single #
face $-1 $36 $37 $20 $-1 $38 reversed single #
face $-1 $39 $40 $21 $-1 $41 forward single #
face $-1 $42 $43 $22 $-1 $44 reversed single #
face $-1 $45 $46 $23 $-1 $47 forward single #
face $-1 $48 $49 $18 $-1 $50 reversed single #
loop $-1 $-1 $51 $24 #
plane-surface $-1 0 0 13.123296842123779 0 0 1 1 0 0 forward_v I I I I #
face $-1 $52 $53 $19 $-1 $54 reversed single #
loop $-1 $-1 $55 $25 #
plane-surface $-1 0 -20.495195314789921 8.339603426745656 0 0 1 1 0 0 forward_v I I I I #
face $-1 $56 $57 $20 $-1 $58 reversed single #
loop $-1 $-1 $59 $26 #
plane-surface $-1 -149.73452050556907 19.974915981280684 122.36075776272375 0 1 0 -0.55919291073839883 0 0.82903756765294845 forward_v I I I I #
face $-1 $60 $61 $21 $-1 $62 forward single #
loop $-1 $63 $64 $27 #
cone-surface $-1 -63.984224034337963 24.46516517226927 7.9599479029047986 0.55919291073839883 0 -0.82903756765294845 0.82903756765294845 0 0.55919291073839883 1 I I 0 1 1 forward I I I I #
face $-1 $65 $66 $22 $-1 $67 reversed single #
loop $-1 $-1 $68 $28 #
plane-surface $-1 -46.514928415151857 24.46516517226927 84.213730998805786 0.55919291073839883 0 0.82903756765294845 0.82903756765294845 0 -0.55919291073839883 forward_v I I I I #
face $-1 $69 $70 $23 $-1 $71 forward single #
loop $-1 $72 $73 $29 #
cone-surface $-1 63.984224034337956 24.46516517226927 7.9599479029047915 -0.55919291073839883 0 -0.82903756765294845 0.82903756765294845 0 -0.55919291073839883 1 I I 0 1 1 forward I I I I #
face $-1 $74 $75 $18 $-1 $76 reversed single #
loop $-1 $-1 $77 $30 #
plane-surface $-1 0 0 -13.123296842123779 0 0 1 1 0 0 forward_v I I I I #
coedge $-1 $78 $79 $80 $81 forward $31 $-1 #
face $-1 $82 $83 $19 $-1 $84 reversed single #
loop $-1 $-1 $85 $33 #
plane-surface $-1 0 -12.03497626632198 10.731450134434716 0 -1 0 0 0 -1 forward_v I I I I #
coedge $-1 $86 $87 $88 $89 reversed $34 $-1 #
face $-1 $90 $91 $20 $-1 $92 forward single #
loop $-1 $-1 $93 $36 #
plane-surface $-1 -70.683309427167586 24.46516517226927 5.1625199204043071 -0.55919291073839883 0 0.82903756765294845 0.82903756765294845 0 0.55919291073839883 forward_v I I I I #
coedge $-1 $94 $95 $96 $97 reversed $37 $-1 #
face $-1 $-1 $98 $21 $-1 $99 forward single #
loop $-1 $100 $101 $39 #
cone-surface $-1 -62.906710646139111 24.46516517226927 6.3624686407190794 0.55919291073839883 0 -0.82903756765294845 0.41451878382647422 0 0.27959645536919941 1 I I -0.70710678118654746 0.70710678118654746 0.5 forward I I I I #
loop $-1 $-1 $102 $27 #
coedge $-1 $64 $64 $103 $104 reversed $40 $-1 #
face $-1 $105 $106 $22 $-1 $107 forward single #
loop $-1 $-1 $108 $42 #
plane-surface $-1 32.536282663249622 19.974915981280684 201.41196884112523 0 1 0 0.55919291073839883 0 0.82903756765294845 forward_v I I I I #
coedge $-1 $109 $110 $111 $112 reversed $43 $-1 #
face $-1 $-1 $113 $23 $-1 $114 forward single #
loop $-1 $115 $116 $45 #
cone-surface $-1 62.906710646139103 24.46516517226927 6.3624686407190723 -0.55919291073839883 0 -0.82903756765294845 0.41451878382647422 0 -0.27959645536919941 1 I I -0.70710678118654746 0.70710678118654746 0.5 forward I I I I #
loop $-1 $-1 $117 $29 #
coedge $-1 $73 $73 $118 $119 reversed $46 $-1 #
face $-1 $120 $121 $18 $-1 $122 reversed single #
loop $-1 $-1 $123 $48 #
plane-surface $-1 0 -28.955414363257862 0 0 1 0 0 0 1 forward_v I I I I #
coedge $-1 $124 $125 $126 $127 forward $49 $-1 #
coedge $-1 $128 $51 $129 $130 forward $31 $-1 #
coedge $-1 $51 $128 $131 $132 forward $31 $-1 #
coedge $-1 $133 $134 $51 $81 reversed $135 $-1 #
edge $-1 $136 -28.955414363257862 $137 28.955414363257862 $80 $138 forward 7 unknown #
face $-1 $139 $140 $19 $-1 $141 reversed single #
loop $-1 $-1 $142 $52 #
plane-surface $-1 -70.683309427167572 0 0 1 0 0 0 0 -1 forward_v I I I I #
coedge $-1 $143 $144 $145 $146 reversed $53 $-1 #
coedge $-1 $147 $55 $148 $149 reversed $34 $-1 #
coedge $-1 $55 $147 $143 $150 forward $34 $-1 #
coedge $-1 $145 $151 $55 $89 forward $152 $-1 #
edge $-1 $153 -18.707816705862903 $154 -1.7873786089270194 $88 $155 forward 7 unknown #
face $-1 $156 $157 $20 $-1 $158 reversed single #
loop $-1 $-1 $96 $56 #
plane-surface $-1 0 0 13.123296842123779 0 0 1 1 0 0 forward_v I I I I #
coedge $-1 $159 $160 $161 $162 reversed $57 $-1 #
coedge $-1 $95 $59 $163 $164 reversed $37 $-1 #
coedge $-1 $59 $94 $159 $165 reversed $37 $-1 #
coedge $-1 $161 $166 $59 $97 forward $91 $-1 #
edge $-1 $167 4.1839508256169609 $168 15.986287745616892 $96 $169 forward 7 unknown #
loop $-1 $-1 $103 $60 #
plane-surface $-1 -70.683309427167586 24.46516517226927 5.1625199204043071 -0.55919291073839883 0 0.82903756765294845 0.82903756765294845 0 0.55919291073839883 forward_v I I I I #
loop $-1 $-1 $170 $39 #
coedge $-1 $101 $101 $102 $171 reversed $61 $-1 #
coedge $-1 $102 $102 $101 $171 forward $63 $-1 #
coedge $-1 $103 $103 $64 $104 forward $98 $-1 #
edge $-1 $172 0 $172 6.2831853071796004 $103 $173 forward 7 unknown #
face $-1 $174 $175 $22 $-1 $176 reversed single #
loop $-1 $-1 $111 $65 #
plane-surface $-1 0 0 13.123296842123779 0 0 1 1 0 0 forward_v I I I I #
coedge $-1 $177 $178 $179 $180 reversed $66 $-1 #
coedge $-1 $181 $68 $182 $183 reversed $43 $-1 #
coedge $-1 $68 $181 $177 $184 forward $43 $-1 #
coedge $-1 $179 $185 $68 $112 forward $106 $-1 #
edge $-1 $186 -16.722831777123218 $187 -7.7423333951460496 $111 $188 forward 7 unknown #
loop $-1 $-1 $118 $69 #
plane-surface $-1 -46.514928415151857 24.46516517226927 84.213730998805786 0.55919291073839883 0 0.82903756765294845 0.82903756765294845 0 -0.55919291073839883 forward_v I I I I #
loop $-1 $-1 $189 $45 #
coedge $-1 $116 $116 $117 $190 reversed $70 $-1 #
coedge $-1 $117 $117 $116 $190 forward $72 $-1 #
coedge $-1 $118 $118 $73 $119 forward $113 $-1 #
edge $-1 $191 0 $191 6.2831853071796004 $118 $192 forward 7 unknown #
face $-1 $193 $194 $18 $-1 $195 reversed single #
loop $-1 $-1 $196 $74 #
plane-surface $-1 -70.683309427167572 0 0 1 0 0 0 0 -1 forward_v I I I I #
coedge $-1 $197 $131 $198 $199 forward $75 $-1 #
coedge $-1 $200 $77 $197 $201 forward $49 $-1 #
coedge $-1 $77 $200 $202 $203 forward $49 $-1 #
coedge $-1 $134 $133 $77 $127 reversed $135 $-1 #
edge $-1 $204 -28.955414363257862 $205 28.955414363257862 $126 $206 forward 7 unknown #
coedge $-1 $79 $78 $207 $208 forward $31 $-1 #
coedge $-1 $209 $210 $78 $130 reversed $194 $-1 #
edge $-1 $137 -70.683309427167572 $211 70.683309427167572 $129 $212 forward 7 unknown #
coedge $-1 $123 $213 $79 $132 reversed $75 $-1 #
edge $-1 $214 -70.683309427167572 $136 70.683309427167572 $131 $215 forward 7 unknown #
coedge $-1 $126 $80 $213 $216 forward $135 $-1 #
coedge $-1 $80 $126 $209 $217 reversed $135 $-1 #
loop $-1 $-1 $133 $193 #
vertex $-1 $81 $218 #
vertex $-1 $81 $219 #
straight-curve $-1 70.683309427167572 0 13.123296842123779 0 1 0 I I #
face $-1 $220 $221 $19 $-1 $222 forward single #
loop $-1 $-1 $148 $82 #
plane-surface $-1 0 -28.955414363257862 0 0 1 0 0 0 1 forward_v I I I I #
coedge $-1 $223 $224 $225 $226 forward $83 $-1 #
coedge $-1 $225 $85 $87 $150 reversed $53 $-1 #
coedge $-1 $85 $225 $227 $228 reversed $53 $-1 #
coedge $-1 $229 $88 $85 $146 forward $152 $-1 #
edge $-1 $154 2.9738783595282978 $230 7.7575717749064186 $145 $231 forward 7 unknown #
coedge $-1 $87 $86 $223 $232 reversed $34 $-1 #
coedge $-1 $233 $234 $86 $149 forward $140 $-1 #
edge $-1 $235 -70.683309427167572 $153 70.683309427167572 $148 $236 forward 7 unknown #
edge $-1 $237 -70.683309427167572 $154 70.683309427167572 $143 $238 forward 7 unknown #
coedge $-1 $88 $229 $233 $239 forward $152 $-1 #
loop $-1 $-1 $145 $220 #
vertex $-1 $149 $240 #
vertex $-1 $89 $241 #
straight-curve $-1 70.683309427167572 -10.247597657394961 8.339603426745656 0 1 0 I I #
face $-1 $-1 $242 $20 $-1 $243 reversed single #
loop $-1 $-1 $244 $90 #
plane-surface $-1 0 28.955414363257862 0 0 -1 0 0 0 -1 forward_v I I I I #
coedge $-1 $245 $93 $95 $165 forward $57 $-1 #
coedge $-1 $93 $245 $244 $246 reversed $57 $-1 #
coedge $-1 $247 $96 $93 $162 forward $91 $-1 #
edge $-1 $168 7.7423333951460496 $248 16.722831777123218 $161 $249 forward 7 unknown #
coedge $-1 $250 $251 $94 $164 forward $242 $-1 #
edge $-1 $252 -56.017858960957561 $167 -48.057082039238097 $163 $253 forward 7 unknown #
edge $-1 $168 -14.236190711372727 $252 -1.7244626260799089e-014 $95 $254 forward 7 unknown #
coedge $-1 $96 $247 $250 $255 forward $91 $-1 #
vertex $-1 $164 $256 #
vertex $-1 $97 $257 #
straight-curve $-1 -74.867260252784533 19.974915981280684 13.123296842123779 1 0 0 I I #
coedge $-1 $170 $170 $-1 $258 reversed $100 $-1 #
edge $-1 $259 0 $259 6.2831853071796004 $101 $260 forward 7 unknown #
vertex $-1 $104 $261 #
ellipse-curve $-1 -64.782140967167621 24.46516517226927 9.1429083812640428 -0.55919291073839883 0 0.82903756765294845 0.82903756765294845 0 0.55919291073839883 1 I I #
face $-1 $-1 $262 $22 $-1 $263 reversed single #
loop $-1 $-1 $264 $105 #
plane-surface $-1 70.683309427167572 0 0 -1 0 0 0 0 1 forward_v I I I I #
coedge $-1 $178 $108 $110 $184 reversed $66 $-1 #
coedge $-1 $108 $177 $265 $266 reversed $66 $-1 #
coedge $-1 $267 $111 $108 $180 forward $106 $-1 #
edge $-1 $187 42.61283117554283 $268 54.415168095542761 $179 $269 forward 7 unknown #
coedge $-1 $110 $109 $264 $270 reversed $43 $-1 #
coedge $-1 $271 $272 $109 $183 forward $262 $-1 #
edge $-1 $273 -98.539446617229487 $186 -84.303255905856787 $182 $274 forward 7 unknown #
edge $-1 $275 -141.36661885433512 $187 -127.1304281429624 $177 $276 forward 7 unknown #
coedge $-1 $111 $267 $271 $277 forward $106 $-1 #
vertex $-1 $183 $278 #
vertex $-1 $112 $279 #
straight-curve $-1 58.880972507167641 12.232582586134635 13.123296842123779 0 -1 0 I I #
coedge $-1 $189 $189 $-1 $280 reversed $115 $-1 #
edge $-1 $281 0 $281 6.2831853071796004 $116 $282 forward 7 unknown #
vertex $-1 $119 $283 #
ellipse-curve $-1 64.782140967167607 24.46516517226927 9.1429083812640464 0.55919291073839883 0 0.82903756765294845 0.82903756765294845 0 -0.55919291073839883 1 I I #
face $-1 $-1 $135 $18 $-1 $284 reversed single #
loop $-1 $-1 $209 $120 #
plane-surface $-1 0 28.955414363257862 0 0 -1 0 0 0 -1 forward_v I I I I #
coedge $-1 $285 $207 $210 $286 forward $121 $-1 #
coedge $-1 $213 $123 $124 $201 reversed $75 $-1 #
coedge $-1 $207 $285 $123 $199 reversed $121 $-1 #
edge $-1 $214 -13.123296842123779 $287 13.123296842123779 $198 $288 forward 7 unknown #
coedge $-1 $125 $124 $285 $289 forward $49 $-1 #
edge $-1 $205 -70.683309427167572 $287 70.683309427167572 $197 $290 forward 7 unknown #
coedge $-1 $210 $209 $125 $203 reversed $194 $-1 #
edge $-1 $291 -70.683309427167572 $204 70.683309427167572 $202 $292 forward 7 unknown #
vertex $-1 $127 $293 #
vertex $-1 $216 $294 #
straight-curve $-1 70.683309427167572 0 -13.123296842123779 0 -1 0 I I #
coedge $-1 $196 $198 $128 $208 reversed $121 $-1 #
edge $-1 $211 -28.955414363257862 $214 28.955414363257862 $207 $295 forward 7 unknown #
coedge $-1 $202 $129 $134 $217 forward $194 $-1 #
coedge $-1 $129 $202 $196 $286 reversed $194 $-1 #
vertex $-1 $130 $296 #
straight-curve $-1 0 28.955414363257862 13.123296842123779 -1 0 0 I I #
coedge $-1 $131 $197 $133 $216 reversed $75 $-1 #
vertex $-1 $208 $297 #
straight-curve $-1 0 -28.955414363257862 13.123296842123779 1 0 0 I I #
edge $-1 $136 -13.123296842123779 $205 13.123296842123779 $133 $298 forward 7 unknown #
edge $-1 $137 -13.123296842123779 $204 13.123296842123779 $134 $299 forward 7 unknown #
point $-1 70.683309427167572 -28.955414363257862 13.123296842123779 #
point $-1 70.683309427167572 28.955414363257862 13.123296842123779 #
face $-1 $-1 $152 $19 $-1 $300 reversed single #
loop $-1 $-1 $227 $139 #
plane-surface $-1 0 0 13.123296842123779 0 0 1 1 0 0 forward_v I I I I #
coedge $-1 $301 $142 $147 $232 forward $83 $-1 #
coedge $-1 $142 $301 $302 $303 reversed $83 $-1 #
coedge $-1 $144 $143 $142 $226 reversed $53 $-1 #
edge $-1 $304 -7.7575717749064186 $237 -2.9738783595282978 $142 $305 forward 7 unknown #
coedge $-1 $302 $306 $144 $228 forward $221 $-1 #
edge $-1 $230 -70.683309427167572 $304 70.683309427167572 $227 $307 forward 7 unknown #
coedge $-1 $151 $145 $306 $308 reversed $152 $-1 #
vertex $-1 $146 $309 #
straight-curve $-1 70.683309427167572 -12.03497626632198 5.3657250672173582 0 0 1 I I #
edge $-1 $237 1.7873786089270194 $235 18.707816705862903 $223 $310 forward 7 unknown #
coedge $-1 $311 $148 $151 $239 reversed $140 $-1 #
coedge $-1 $148 $311 $301 $312 forward $140 $-1 #
vertex $-1 $149 $313 #
straight-curve $-1 0 -28.955414363257862 8.339603426745656 1 0 0 I I #
vertex $-1 $232 $314 #
straight-curve $-1 0 -12.03497626632198 8.339603426745656 1 0 0 I I #
edge $-1 $315 -13.123296842123779 $153 -8.339603426745656 $151 $316 forward 7 unknown #
point $-1 70.683309427167572 -28.955414363257862 8.339603426745656 #
point $-1 70.683309427167572 -12.03497626632198 8.339603426745656 #
loop $-1 $-1 $163 $156 #
plane-surface $-1 -70.683309427167572 0 0 1 0 0 0 0 -1 forward_v I I I I #
coedge $-1 $317 $318 $160 $246 forward $157 $-1 #
coedge $-1 $160 $159 $251 $319 reversed $57 $-1 #
edge $-1 $248 13.619946478689215 $320 27.856137190061922 $244 $321 forward 7 unknown #
coedge $-1 $166 $161 $318 $322 forward $91 $-1 #
vertex $-1 $322 $323 #
straight-curve $-1 -58.880972507167634 12.232582586134635 13.123296842123779 0 1 0 I I #
coedge $-1 $324 $163 $166 $255 reversed $242 $-1 #
coedge $-1 $163 $324 $245 $319 forward $242 $-1 #
vertex $-1 $164 $325 #
straight-curve $-1 -70.683309427167572 19.974915981280684 61.180378881361875 0 0 1 I I #
straight-curve $-1 -70.683309427167586 19.974915981280684 5.1625199204043071 -0.82903756765294845 0 -0.55919291073839883 I I #
edge $-1 $326 -28.955414363257862 $167 -19.974915981280684 $250 $327 forward 7 unknown #
point $-1 -70.683309427167572 19.974915981280684 13.123296842123779 #
point $-1 -58.880972507167641 19.974915981280684 13.123296842123779 #
edge $-1 $328 1 $328 0 $170 $-1 forward 7 unknown #
vertex $-1 $171 $329 #
ellipse-curve $-1 -63.186307101508312 24.46516517226927 6.7769874245455535 -0.55919291073839883 0 0.82903756765294845 0.82903756765294845 0 0.55919291073839883 1 I I #
point $-1 -63.953103399514667 24.46516517226927 9.7021012920024443 #
loop $-1 $-1 $182 $174 #
plane-surface $-1 0 28.955414363257862 0 0 -1 0 0 0 -1 forward_v I I I I #
coedge $-1 $330 $265 $181 $270 forward $175 $-1 #
coedge $-1 $264 $331 $178 $266 forward $175 $-1 #
edge $-1 $268 87.582687578438836 $275 95.543464500158294 $265 $332 forward 7 unknown #
coedge $-1 $185 $179 $331 $333 forward $106 $-1 #
vertex $-1 $333 $334 #
straight-curve $-1 16.268141331624811 19.974915981280684 13.123296842123779 1 0 0 I I #
edge $-1 $275 7.7423333951460496 $273 16.722831777123218 $264 $335 forward 7 unknown #
coedge $-1 $272 $182 $185 $277 reversed $262 $-1 #
coedge $-1 $182 $271 $330 $336 forward $262 $-1 #
vertex $-1 $183 $337 #
straight-curve $-1 -11.009593714247929 28.955414363257862 60.265079896843943 -0.82903756765294845 0 0.55919291073839883 I I #
vertex $-1 $270 $338 #
straight-curve $-1 -46.514928415151857 19.974915981280684 84.213730998805786 -0.82903756765294845 0 0.55919291073839883 I I #
edge $-1 $339 -70.683309427167572 $186 -58.880972507167641 $271 $340 forward 7 unknown #
point $-1 58.880972507167641 28.955414363257855 13.123296842123779 #
point $-1 58.880972507167641 19.974915981280684 13.123296842123779 #
edge $-1 $341 1 $341 0 $189 $-1 forward 7 unknown #
vertex $-1 $190 $342 #
ellipse-curve $-1 63.186307101508305 24.46516517226927 6.7769874245455464 0.55919291073839883 0 0.82903756765294845 0.82903756765294845 0 -0.55919291073839883 1 I I #
point $-1 65.611178534820553 24.46516517226927 8.5837154705256395 #
plane-surface $-1 70.683309427167572 0 0 -1 0 0 0 0 1 forward_v I I I I #
coedge $-1 $198 $196 $200 $289 reversed $121 $-1 #
edge $-1 $211 -13.123296842123779 $291 13.123296842123779 $210 $343 forward 7 unknown #
vertex $-1 $289 $344 #
straight-curve $-1 -70.683309427167572 -28.955414363257862 0 0 0 -1 I I #
edge $-1 $287 -28.955414363257862 $291 28.955414363257862 $285 $345 forward 7 unknown #
straight-curve $-1 0 -28.955414363257862 -13.123296842123779 -1 0 0 I I #
vertex $-1 $203 $346 #
straight-curve $-1 0 28.955414363257862 -13.123296842123779 1 0 0 I I #
point $-1 70.683309427167572 28.955414363257862 -13.123296842123779 #
point $-1 70.683309427167572 -28.955414363257862 -13.123296842123779 #
straight-curve $-1 -70.683309427167572 0 13.123296842123779 0 -1 0 I I #
point $-1 -70.683309427167572 28.955414363257862 13.123296842123779 #
point $-1 -70.683309427167572 -28.955414363257862 13.123296842123779 #
straight-curve $-1 70.683309427167572 -28.955414363257862 0 0 0 -1 I I #
straight-curve $-1 70.683309427167572 28.955414363257862 0 0 0 -1 I I #
plane-surface $-1 70.683309427167572 0 0 -1 0 0 0 0 1 forward_v I I I I #
coedge $-1 $224 $223 $234 $312 reversed $83 $-1 #
coedge $-1 $347 $227 $224 $303 forward $221 $-1 #
edge $-1 $304 12.03497626632198 $348 28.955414363257862 $224 $349 forward 7 unknown #
vertex $-1 $303 $350 #
straight-curve $-1 -70.683309427167572 -12.03497626632198 5.3657250672173582 0 0 -1 I I #
coedge $-1 $227 $347 $229 $308 forward $221 $-1 #
straight-curve $-1 0 -12.03497626632198 13.123296842123779 -1 0 0 I I #
edge $-1 $315 -28.955414363257862 $230 -12.03497626632198 $229 $351 forward 7 unknown #
point $-1 70.683309427167572 -12.03497626632198 13.123296842123777 #
straight-curve $-1 -70.683309427167572 -10.247597657394961 8.339603426745656 0 -1 0 I I #
coedge $-1 $234 $233 $347 $352 reversed $140 $-1 #
edge $-1 $348 -13.123296842123779 $235 -8.339603426745656 $301 $353 forward 7 unknown #
point $-1 -70.683309427167572 -28.955414363257862 8.339603426745656 #
point $-1 -70.683309427167572 -12.03497626632198 8.339603426745656 #
vertex $-1 $308 $354 #
straight-curve $-1 70.683309427167572 -28.955414363257862 0 0 0 -1 I I #
coedge $-1 $318 $244 $324 $355 reversed $157 $-1 #
coedge $-1 $244 $317 $247 $322 reversed $157 $-1 #
edge $-1 $320 -16.722831777123218 $252 -7.7423333951460496 $251 $356 forward 7 unknown #
vertex $-1 $246 $357 #
straight-curve $-1 -47.589525206911794 28.955414363257862 20.739474357643207 -0.82903756765294845 0 -0.55919291073839883 I I #
edge $-1 $248 58.880972507167641 $326 70.683309427167572 $318 $358 forward 7 unknown #
point $-1 -58.880972507167641 28.955414363257855 13.123296842123779 #
coedge $-1 $251 $250 $317 $355 forward $242 $-1 #
point $-1 -70.683309427167572 19.974915981280684 5.1625199204043168 #
vertex $-1 $322 $359 #
straight-curve $-1 -70.683309427167572 0 13.123296842123779 0 -1 0 I I #
vertex $-1 $258 $360 #
point $-1 -62.357269533855359 24.46516517226927 7.3361803352839523 #
coedge $-1 $331 $264 $272 $336 reversed $175 $-1 #
coedge $-1 $265 $330 $267 $333 reversed $175 $-1 #
straight-curve $-1 70.683309427167572 19.974915981280684 100.70598442056261 0 0 -1 I I #
edge $-1 $268 19.974915981280684 $339 28.955414363257862 $331 $361 forward 7 unknown #
point $-1 70.683309427167572 19.974915981280684 13.123296842123779 #
straight-curve $-1 70.683309427167586 12.232582586134635 5.1625199204043142 0 1 0 I I #
edge $-1 $339 -13.123296842123779 $273 -5.1625199204043213 $330 $362 forward 7 unknown #
point $-1 70.683309427167572 28.955414363257855 5.1625199204043213 #
point $-1 70.683309427167572 19.974915981280684 5.1625199204043213 #
vertex $-1 $333 $363 #
straight-curve $-1 0 28.955414363257862 13.123296842123779 -1 0 0 I I #
vertex $-1 $280 $364 #
point $-1 64.015344669161252 24.46516517226927 6.2177945138071475 #
straight-curve $-1 -70.683309427167572 28.955414363257862 0 0 0 -1 I I #
point $-1 -70.683309427167572 -28.955414363257862 -13.123296842123779 #
straight-curve $-1 -70.683309427167572 0 -13.123296842123779 0 1 0 I I #
point $-1 -70.683309427167572 28.955414363257862 -13.123296842123779 #
coedge $-1 $306 $302 $311 $352 forward $221 $-1 #
vertex $-1 $303 $365 #
straight-curve $-1 -70.683309427167572 0 13.123296842123779 0 -1 0 I I #
point $-1 -70.683309427167572 -12.03497626632198 13.123296842123777 #
straight-curve $-1 70.683309427167572 0 13.123296842123779 0 1 0 I I #
edge $-1 $348 -70.683309427167572 $315 70.683309427167572 $311 $366 forward 7 unknown #
straight-curve $-1 -70.683309427167572 -28.955414363257862 0 0 0 -1 I I #
point $-1 70.683309427167572 -28.955414363257862 13.123296842123779 #
edge $-1 $326 -13.123296842123779 $320 -5.1625199204043168 $317 $367 forward 7 unknown #
straight-curve $-1 -70.683309427167572 12.232582586134635 5.162519920404316 0 -1 0 I I #
point $-1 -70.683309427167572 28.955414363257855 5.1625199204043168 #
straight-curve $-1 0 28.955414363257862 13.123296842123779 -1 0 0 I I #
point $-1 -70.683309427167572 28.955414363257862 13.123296842123779 #
point $-1 -62.627114190769909 24.46516517226927 5.9479498568926052 #
straight-curve $-1 70.683309427167572 0 13.123296842123779 0 1 0 I I #
straight-curve $-1 70.683309427167572 28.955414363257862 0 0 0 -1 I I #
point $-1 70.683309427167572 28.955414363257862 13.123296842123779 #
point $-1 62.627114190769902 24.46516517226927 5.9479498568925981 #
point $-1 -70.683309427167572 -28.955414363257862 13.123296842123779 #
straight-curve $-1 0 -28.955414363257862 13.123296842123779 1 0 0 I I #
straight-curve $-1 -70.683309427167572 28.955414363257862 0 0 0 -1 I I #
End-of-ACIS-data 