500 0 2 0           
7 Unknown 11 ACIS 5.0 NT 24 Thu Mar 25 15:40:10 1999 
-1 9.9999999999999995e-007 1e-010 
body $-1 $2 $-1 $3 #
body $-1 $4 $-1 $5 #
lump $-1 $-1 $6 $0 #
transform $-1 1 0 0 0 1 0 0 0 1 54.728232673116246 35.844512118121287 7.7937501460849914 1 rotate no_reflect no_shear #
lump $-1 $-1 $7 $1 #
transform $-1 1 0 0 0 1 0 0 0 1 54.728232673116246 35.844512118121287 7.7937501460849914 1 rotate no_reflect no_shear #
shell $-1 $-1 $-1 $8 $-1 $2 #
shell $-1 $-1 $-1 $9 $-1 $4 #
face $-1 $10 $11 $6 $-1 $12 forward single #
face $-1 $13 $14 $7 $-1 $15 forward single #
face $-1 $16 $17 $6 $-1 $18 reversed single #
loop $-1 $-1 $19 $8 #
plane-surface $-1 0 0 7.7937501460849914 0 0 1 1 0 0 forward_v I I I I #
face $-1 $20 $21 $7 $-1 $22 reversed single #
loop $-1 $-1 $23 $9 #
plane-surface $-1 0 -40.045152450390034 -1.5177040481320017 0 0 1 1 0 0 forward_v I I I I #
face $-1 $24 $25 $6 $-1 $26 reversed single #
loop $-1 $-1 $27 $10 #
plane-surface $-1 0 0 -7.7937501460849914 0 0 1 1 0 0 forward_v I I I I #
coedge $-1 $28 $29 $30 $31 forward $11 $-1 #
face $-1 $32 $33 $7 $-1 $34 reversed single #
loop $-1 $-1 $35 $13 #
plane-surface $-1 0 -40.045152450390034 -4.5177040481320017 0 0 1 1 0 0 forward_v I I I I #
coedge $-1 $36 $37 $38 $39 forward $14 $-1 #
face $-1 $40 $41 $6 $-1 $42 reversed single #
loop $-1 $-1 $43 $16 #
plane-surface $-1 0 -35.844512118121287 0 0 1 0 0 0 1 forward_v I I I I #
coedge $-1 $44 $45 $46 $47 forward $17 $-1 #
coedge $-1 $48 $19 $49 $50 forward $11 $-1 #
coedge $-1 $19 $48 $51 $52 forward $11 $-1 #
coedge $-1 $53 $54 $19 $31 reversed $55 $-1 #
edge $-1 $56 -35.844512118121287 $57 35.844512118121287 $30 $58 forward 7 unknown #
face $-1 $59 $60 $7 $-1 $61 reversed single #
loop $-1 $-1 $62 $20 #
plane-surface $-1 0 -44.245792782658782 -3.0177040481320017 0 1 0 0 0 1 forward_v I I I I #
coedge $-1 $63 $64 $65 $66 forward $21 $-1 #
coedge $-1 $67 $23 $68 $69 reversed $14 $-1 #
coedge $-1 $23 $67 $70 $71 forward $14 $-1 #
coedge $-1 $72 $73 $23 $39 reversed $74 $-1 #
edge $-1 $75 -4.2006403322687476 $76 4.2006403322687476 $38 $77 forward 7 unknown #
face $-1 $78 $79 $6 $-1 $80 reversed single #
loop $-1 $-1 $81 $24 #
plane-surface $-1 -54.728232673116246 0 0 1 0 0 0 0 -1 forward_v I I I I #
coedge $-1 $82 $51 $83 $84 forward $25 $-1 #
coedge $-1 $85 $27 $82 $86 forward $17 $-1 #
coedge $-1 $27 $85 $87 $88 forward $17 $-1 #
coedge $-1 $54 $53 $27 $47 reversed $55 $-1 #
edge $-1 $89 -35.844512118121287 $90 35.844512118121287 $46 $91 forward 7 unknown #
coedge $-1 $29 $28 $92 $93 forward $11 $-1 #
coedge $-1 $94 $95 $28 $50 reversed $79 $-1 #
edge $-1 $57 -54.728232673116246 $96 54.728232673116246 $49 $97 forward 7 unknown #
coedge $-1 $43 $98 $29 $52 reversed $25 $-1 #
edge $-1 $99 -54.728232673116246 $56 54.728232673116246 $51 $100 forward 7 unknown #
coedge $-1 $46 $30 $98 $101 forward $55 $-1 #
coedge $-1 $30 $46 $94 $102 reversed $55 $-1 #
loop $-1 $-1 $53 $78 #
vertex $-1 $31 $103 #
vertex $-1 $31 $104 #
straight-curve $-1 54.728232673116246 0 7.7937501460849914 0 1 0 I I #
face $-1 $105 $106 $7 $-1 $61 reversed single #
loop $-1 $-1 $107 $32 #
plane-surface $-1 0 -35.844512118121287 0 0 1 0 0 0 1 forward_v I I I I #
coedge $-1 $108 $70 $109 $110 forward $33 $-1 #
coedge $-1 $111 $35 $108 $112 forward $21 $-1 #
coedge $-1 $35 $111 $107 $113 reversed $21 $-1 #
coedge $-1 $114 $72 $35 $66 reversed $74 $-1 #
edge $-1 $115 -4.2006403322687476 $116 4.2006403322687476 $65 $117 forward 7 unknown #
coedge $-1 $37 $36 $118 $119 forward $14 $-1 #
coedge $-1 $120 $121 $36 $69 forward $106 $-1 #
edge $-1 $122 -54.728232673116246 $76 54.728232673116246 $68 $123 forward 7 unknown #
coedge $-1 $62 $124 $37 $71 reversed $33 $-1 #
edge $-1 $125 -54.728232673116246 $75 54.728232673116246 $70 $126 forward 7 unknown #
coedge $-1 $65 $38 $124 $127 forward $74 $-1 #
coedge $-1 $38 $128 $120 $129 forward $74 $-1 #
loop $-1 $-1 $73 $130 #
vertex $-1 $39 $131 #
vertex $-1 $39 $132 #
straight-curve $-1 54.728232673116246 -40.045152450390034 -1.5177040481320017 0 1 0 I I #
face $-1 $-1 $55 $6 $-1 $133 reversed single #
loop $-1 $-1 $94 $40 #
plane-surface $-1 0 35.844512118121287 0 0 -1 0 0 0 -1 forward_v I I I I #
coedge $-1 $134 $92 $95 $135 forward $41 $-1 #
coedge $-1 $98 $43 $44 $86 reversed $25 $-1 #
coedge $-1 $92 $134 $43 $84 reversed $41 $-1 #
edge $-1 $99 -7.7937501460849914 $136 7.7937501460849914 $83 $137 forward 7 unknown #
coedge $-1 $45 $44 $134 $138 forward $17 $-1 #
edge $-1 $90 -54.728232673116246 $136 54.728232673116246 $82 $139 forward 7 unknown #
coedge $-1 $95 $94 $45 $88 reversed $79 $-1 #
edge $-1 $140 -54.728232673116246 $89 54.728232673116246 $87 $141 forward 7 unknown #
vertex $-1 $47 $142 #
vertex $-1 $101 $143 #
straight-curve $-1 54.728232673116246 0 -7.7937501460849914 0 -1 0 I I #
coedge $-1 $81 $83 $48 $93 reversed $41 $-1 #
edge $-1 $96 -35.844512118121287 $99 35.844512118121287 $92 $144 forward 7 unknown #
coedge $-1 $87 $49 $54 $102 forward $79 $-1 #
coedge $-1 $49 $87 $81 $135 reversed $79 $-1 #
vertex $-1 $50 $145 #
straight-curve $-1 0 35.844512118121287 7.7937501460849914 -1 0 0 I I #
coedge $-1 $51 $82 $53 $101 reversed $25 $-1 #
vertex $-1 $93 $146 #
straight-curve $-1 0 -35.844512118121287 7.7937501460849914 1 0 0 I I #
edge $-1 $56 -7.7937501460849914 $90 7.7937501460849914 $53 $147 forward 7 unknown #
edge $-1 $57 -7.7937501460849914 $89 7.7937501460849914 $54 $148 forward 7 unknown #
point $-1 54.728232673116246 -35.844512118121287 7.7937501460849914 #
point $-1 54.728232673116246 35.844512118121287 7.7937501460849914 #
face $-1 $149 $150 $7 $-1 $151 forward single #
loop $-1 $-1 $68 $59 #
coedge $-1 $152 $153 $64 $113 forward $60 $-1 #
coedge $-1 $124 $62 $63 $112 reversed $33 $-1 #
coedge $-1 $118 $154 $62 $110 reversed $155 $-1 #
edge $-1 $125 -1.5 $156 1.5 $109 $157 forward 7 unknown #
coedge $-1 $64 $63 $154 $158 forward $21 $-1 #
edge $-1 $116 -54.728232673116246 $156 54.728232673116246 $108 $159 forward 7 unknown #
edge $-1 $115 -54.728232673116246 $160 54.728232673116246 $107 $161 forward 7 unknown #
coedge $-1 $162 $65 $153 $163 forward $74 $-1 #
vertex $-1 $163 $164 #
vertex $-1 $127 $165 #
straight-curve $-1 54.728232673116246 -40.045152450390034 -4.5177040481320017 0 -1 0 I I #
coedge $-1 $166 $109 $67 $119 reversed $155 $-1 #
edge $-1 $122 -4.2006403322687476 $125 4.2006403322687476 $118 $167 forward 7 unknown #
coedge $-1 $168 $68 $73 $129 reversed $106 $-1 #
coedge $-1 $68 $168 $166 $169 forward $106 $-1 #
vertex $-1 $169 $170 #
straight-curve $-1 0 -35.844512118121287 -1.5177040481320017 1 0 0 I I #
coedge $-1 $70 $108 $72 $127 reversed $33 $-1 #
vertex $-1 $119 $171 #
straight-curve $-1 0 -44.245792782658782 -1.5177040481320017 1 0 0 I I #
edge $-1 $75 -1.5 $116 1.5 $72 $172 forward 7 unknown #
coedge $-1 $73 $173 $174 $175 reversed $74 $-1 #
edge $-1 $176 -7.7937501460849914 $76 1.5177040481320017 $73 $177 forward 7 unknown #
face $-1 $-1 $74 $7 $-1 $178 reversed single #
point $-1 54.728232673116246 -44.245792782658782 -1.5177040481320017 #
point $-1 54.728232673116246 -35.844512118121287 -1.5177040481320017 #
plane-surface $-1 54.728232673116246 0 0 -1 0 0 0 0 1 forward_v I I I I #
coedge $-1 $83 $81 $85 $138 reversed $41 $-1 #
edge $-1 $96 -7.7937501460849914 $140 7.7937501460849914 $95 $179 forward 7 unknown #
vertex $-1 $138 $180 #
straight-curve $-1 -54.728232673116246 -35.844512118121287 0 0 0 -1 I I #
edge $-1 $136 -35.844512118121287 $140 35.844512118121287 $134 $181 forward 7 unknown #
straight-curve $-1 0 -35.844512118121287 -7.7937501460849914 -1 0 0 I I #
vertex $-1 $88 $182 #
straight-curve $-1 0 35.844512118121287 -7.7937501460849914 1 0 0 I I #
point $-1 54.728232673116246 35.844512118121287 -7.7937501460849914 #
point $-1 54.728232673116246 -35.844512118121287 -7.7937501460849914 #
straight-curve $-1 -54.728232673116246 0 7.7937501460849914 0 -1 0 I I #
point $-1 -54.728232673116246 35.844512118121287 7.7937501460849914 #
point $-1 -54.728232673116246 -35.844512118121287 7.7937501460849914 #
straight-curve $-1 54.728232673116246 -35.844512118121287 0 0 0 -1 I I #
straight-curve $-1 54.728232673116246 35.844512118121287 0 0 0 -1 I I #
face $-1 $183 $184 $7 $-1 $185 reversed single #
loop $-1 $-1 $174 $105 #
plane-surface $-1 0 0 7.7937501460849914 0 0 1 1 0 0 forward_v I I I I #
coedge $-1 $186 $107 $187 $188 forward $60 $-1 #
coedge $-1 $107 $186 $114 $163 reversed $60 $-1 #
coedge $-1 $109 $187 $111 $158 reversed $155 $-1 #
loop $-1 $-1 $189 $183 #
vertex $-1 $158 $190 #
straight-curve $-1 -54.728232673116246 -44.245792782658782 -3.0177040481320017 0 0 -1 I I #
edge $-1 $156 -4.2006403322687476 $160 4.2006403322687476 $154 $191 forward 7 unknown #
straight-curve $-1 0 -44.245792782658782 -4.5177040481320017 -1 0 0 I I #
vertex $-1 $188 $192 #
straight-curve $-1 0 -35.844512118121287 -4.5177040481320017 -1 0 0 I I #
coedge $-1 $173 $114 $193 $194 reversed $74 $-1 #
edge $-1 $115 4.5177040481320017 $195 7.7937501460849914 $114 $177 forward 7 unknown #
point $-1 54.728232673116246 -35.844512118121287 -4.5177040481320017 #
point $-1 54.728232673116246 -44.245792782658782 -4.5177040481320017 #
coedge $-1 $196 $118 $121 $169 reversed $155 $-1 #
straight-curve $-1 -54.728232673116246 -40.045152450390034 -1.5177040481320017 0 -1 0 I I #
coedge $-1 $121 $120 $197 $198 reversed $106 $-1 #
edge $-1 $199 -7.7937501460849914 $122 1.5177040481320017 $166 $200 forward 7 unknown #
point $-1 -54.728232673116246 -35.844512118121287 -1.5177040481320017 #
point $-1 -54.728232673116246 -44.245792782658782 -1.5177040481320017 #
straight-curve $-1 54.728232673116246 -44.245792782658782 -3.0177040481320017 0 0 -1 I I #
coedge $-1 $128 $162 $201 $202 reversed $74 $-1 #
coedge $-1 $203 $197 $128 $175 forward $150 $-1 #
edge $-1 $176 -35.844512118121287 $204 35.844512118121287 $128 $205 forward 7 unknown #
vertex $-1 $175 $206 #
straight-curve $-1 54.728232673116246 -35.844512118121287 0 0 0 -1 I I #
plane-surface $-1 54.728232673116246 0 0 -1 0 0 0 0 1 forward_v I I I I #
straight-curve $-1 -54.728232673116246 35.844512118121287 0 0 0 -1 I I #
point $-1 -54.728232673116246 -35.844512118121287 -7.7937501460849914 #
straight-curve $-1 -54.728232673116246 0 -7.7937501460849914 0 1 0 I I #
point $-1 -54.728232673116246 35.844512118121287 -7.7937501460849914 #
face $-1 $207 $155 $7 $-1 $208 reversed single #
loop $-1 $-1 $193 $149 #
plane-surface $-1 0 0 -7.7937501460849914 0 0 1 1 0 0 forward_v I I I I #
coedge $-1 $153 $152 $209 $210 reversed $60 $-1 #
coedge $-1 $154 $211 $152 $188 reversed $155 $-1 #
edge $-1 $160 4.5177040481320017 $212 7.7937501460849914 $187 $200 forward 7 unknown #
coedge $-1 $211 $196 $213 $214 forward $155 $-1 #
point $-1 -54.728232673116246 -44.245792782658782 -4.5177040481320017 #
straight-curve $-1 -54.728232673116246 -40.045152450390034 -4.5177040481320017 0 1 0 I I #
point $-1 -54.728232673116246 -35.844512118121287 -4.5177040481320017 #
coedge $-1 $209 $215 $162 $194 forward $184 $-1 #
edge $-1 $216 -35.844512118121287 $195 35.844512118121287 $162 $217 forward 7 unknown #
vertex $-1 $163 $218 #
coedge $-1 $189 $166 $219 $220 reversed $155 $-1 #
coedge $-1 $174 $219 $168 $198 forward $150 $-1 #
edge $-1 $199 -54.728232673116246 $176 54.728232673116246 $168 $221 forward 7 unknown #
vertex $-1 $220 $222 #
straight-curve $-1 -54.728232673116246 -35.844512118121287 0 0 0 -1 I I #
coedge $-1 $223 $224 $173 $202 forward $225 $-1 #
edge $-1 $204 -7.7937501460849914 $216 7.7937501460849914 $173 $226 forward 7 unknown #
coedge $-1 $219 $174 $224 $227 forward $150 $-1 #
vertex $-1 $175 $228 #
straight-curve $-1 54.728232673116246 0 7.7937501460849914 0 1 0 I I #
point $-1 54.728232673116246 -35.844512118121287 7.7937501460849914 #
face $-1 $130 $225 $7 $-1 $229 reversed single #
plane-surface $-1 -54.728232673116246 0 0 1 0 0 0 0 -1 forward_v I I I I #
coedge $-1 $230 $193 $186 $210 forward $184 $-1 #
edge $-1 $195 -54.728232673116246 $212 54.728232673116246 $186 $231 forward 7 unknown #
coedge $-1 $187 $189 $230 $232 reversed $155 $-1 #
vertex $-1 $232 $233 #
coedge $-1 $224 $223 $189 $214 reversed $225 $-1 #
edge $-1 $234 -7.7937501460849914 $235 7.7937501460849914 $213 $236 forward 7 unknown #
coedge $-1 $193 $230 $223 $237 forward $184 $-1 #
vertex $-1 $194 $238 #
straight-curve $-1 54.728232673116246 0 -7.7937501460849914 0 -1 0 I I #
point $-1 54.728232673116246 -35.844512118121287 -7.7937501460849914 #
coedge $-1 $197 $203 $196 $220 forward $150 $-1 #
edge $-1 $234 -35.844512118121287 $199 35.844512118121287 $196 $239 forward 7 unknown #
straight-curve $-1 0 -35.844512118121287 7.7937501460849914 1 0 0 I I #
point $-1 -54.728232673116246 -35.844512118121287 7.7937501460849914 #
coedge $-1 $213 $201 $215 $237 reversed $225 $-1 #
coedge $-1 $201 $213 $203 $227 reversed $225 $-1 #
loop $-1 $-1 $201 $207 #
straight-curve $-1 54.728232673116246 35.844512118121287 0 0 0 -1 I I #
edge $-1 $204 -54.728232673116246 $234 54.728232673116246 $224 $240 forward 7 unknown #
point $-1 54.728232673116246 35.844512118121287 7.7937501460849914 #
plane-surface $-1 0 35.844512118121287 0 0 -1 0 0 0 -1 forward_v I I I I #
coedge $-1 $215 $209 $211 $232 forward $184 $-1 #
straight-curve $-1 0 -35.844512118121287 -7.7937501460849914 -1 0 0 I I #
edge $-1 $212 -35.844512118121287 $235 35.844512118121287 $211 $241 forward 7 unknown #
point $-1 -54.728232673116246 -35.844512118121287 -7.7937501460849914 #
vertex $-1 $227 $242 #
vertex $-1 $237 $243 #
straight-curve $-1 -54.728232673116246 35.844512118121287 0 0 0 -1 I I #
edge $-1 $235 -54.728232673116246 $216 54.728232673116246 $223 $244 forward 7 unknown #
point $-1 54.728232673116246 35.844512118121287 -7.7937501460849914 #
straight-curve $-1 -54.728232673116246 0 7.7937501460849914 0 -1 0 I I #
straight-curve $-1 0 35.844512118121287 7.7937501460849914 -1 0 0 I I #
straight-curve $-1 -54.728232673116246 0 -7.7937501460849914 0 1 0 I I #
point $-1 -54.728232673116246 35.844512118121287 7.7937501460849914 #
point $-1 -54.728232673116246 35.844512118121287 -7.7937501460849914 #
straight-curve $-1 0 35.844512118121287 -7.7937501460849914 1 0 0 I I #
End-of-ACIS-data 