500 0 9 0           
7 Unknown 11 ACIS 5.0 NT 24 Fri Mar 26 16:56:22 1999 
-1 9.9999999999999995e-007 1e-010 
body $-1 $9 $-1 $10 #
body $-1 $11 $-1 $12 #
body $-1 $13 $-1 $14 #
body $-1 $15 $-1 $16 #
body $-1 $17 $-1 $18 #
body $-1 $19 $-1 $20 #
body $-1 $21 $-1 $22 #
body $-1 $23 $-1 $24 #
body $-1 $25 $-1 $26 #
lump $-1 $-1 $27 $0 #
transform $-1 1 0 0 0 1 0 0 0 1 50.744956816309092 33.365734431339391 15.667140414459299 1 rotate no_reflect no_shear #
lump $-1 $-1 $28 $1 #
transform $-1 1 0 0 0 1 0 0 0 1 50.744956816309092 33.365734431339391 15.667140414459299 1 rotate no_reflect no_shear #
lump $-1 $-1 $29 $2 #
transform $-1 1 0 0 0 1 0 0 0 1 50.744956816309092 33.365734431339391 15.667140414459299 1 rotate no_reflect no_shear #
lump $-1 $-1 $30 $3 #
transform $-1 1 0 0 0 1 0 0 0 1 50.744956816309092 33.365734431339391 15.667140414459299 1 rotate no_reflect no_shear #
lump $-1 $-1 $31 $4 #
transform $-1 1 0 0 0 1 0 0 0 1 50.744956816309092 33.365734431339391 15.667140414459299 1 rotate no_reflect no_shear #
lump $-1 $-1 $32 $5 #
transform $-1 1 0 0 0 1 0 0 0 1 50.744956816309092 33.365734431339391 15.667140414459299 1 rotate no_reflect no_shear #
lump $-1 $-1 $33 $6 #
transform $-1 1 0 0 0 1 0 0 0 1 50.744956816309092 33.365734431339391 15.667140414459299 1 rotate no_reflect no_shear #
lump $-1 $-1 $34 $7 #
transform $-1 1 0 0 0 1 0 0 0 1 50.744956816309092 33.365734431339391 15.667140414459299 1 rotate no_reflect no_shear #
lump $-1 $-1 $35 $8 #
transform $-1 1 0 0 0 1 0 0 0 1 50.744956816309092 33.365734431339391 15.667140414459299 1 rotate no_reflect no_shear #
shell $-1 $-1 $-1 $36 $-1 $9 #
shell $-1 $-1 $-1 $37 $-1 $11 #
shell $-1 $-1 $-1 $38 $-1 $13 #
shell $-1 $-1 $-1 $39 $-1 $15 #
shell $-1 $-1 $-1 $40 $-1 $17 #
shell $-1 $-1 $-1 $41 $-1 $19 #
shell $-1 $-1 $-1 $42 $-1 $21 #
shell $-1 $-1 $-1 $43 $-1 $23 #
shell $-1 $-1 $-1 $44 $-1 $25 #
face $-1 $45 $46 $27 $-1 $47 forward single #
face $-1 $48 $49 $28 $-1 $50 forward single #
face $-1 $51 $52 $29 $-1 $53 reversed single #
face $-1 $54 $55 $30 $-1 $56 forward single #
face $-1 $57 $58 $31 $-1 $59 forward single #
face $-1 $60 $61 $32 $-1 $62 forward single #
face $-1 $63 $64 $33 $-1 $65 reversed single #
face $-1 $66 $67 $34 $-1 $68 forward single #
face $-1 $69 $70 $35 $-1 $71 forward single #
face $-1 $72 $73 $27 $-1 $74 reversed single #
loop $-1 $-1 $75 $36 #
plane-surface $-1 0 0 15.667140414459299 0 0 1 1 0 0 forward_v I I I I #
face $-1 $76 $77 $28 $-1 $78 reversed single #
loop $-1 $-1 $79 $37 #
plane-surface $-1 0 -33.365734431339391 0 0 1 0 0 0 1 forward_v I I I I #
face $-1 $80 $81 $29 $-1 $82 reversed single #
loop $-1 $-1 $83 $38 #
plane-surface $-1 85.467624511671488 27.243606756855559 140.41044772014462 0 1 0 0.85716730853699208 0 0.51503806187062418 forward_v I I I I #
face $-1 $84 $85 $30 $-1 $86 forward single #
loop $-1 $87 $88 $39 #
cone-surface $-1 45.799823804876283 28.46803229175233 8.0563655095651256 -0.85716730853699208 0 -0.51503806187062418 0.25751903093531209 0 -0.42858365426849604 1 I I 0 1 0.5 forward I I I I #
face $-1 $89 $90 $31 $-1 $91 forward single #
loop $-1 $92 $93 $40 #
cone-surface $-1 45.799823804876283 30.30467059409748 8.0563655095651256 -0.85716730853699208 0 -0.51503806187062418 0.25751903093531209 0 -0.42858365426849604 1 I I 0 1 0.5 forward I I I I #
face $-1 $94 $95 $32 $-1 $96 forward single #
loop $-1 $97 $98 $41 #
cone-surface $-1 45.799823804876283 32.141308896442624 8.0563655095651256 -0.85716730853699208 0 -0.51503806187062418 0.25751903093531209 0 -0.42858365426849604 1 I I 0 1 0.5 forward I I I I #
face $-1 $99 $100 $33 $-1 $101 reversed single #
loop $-1 $-1 $102 $42 #
plane-surface $-1 -126.16666181099492 -16.678884823376514 72.262149426527159 0 1 0 -0.74314483375859142 0 0.66913059716165679 forward_v I I I I #
face $-1 $103 $104 $34 $-1 $105 forward single #
loop $-1 $106 $107 $43 #
cone-surface $-1 -44.525885685022146 -14.291743009837134 8.9966542721574392 0.74314483375859142 0 -0.66913059716165679 0.66913059716165679 0 0.74314483375859142 1 I I 0 1 1 forward I I I I #
face $-1 $108 $109 $35 $-1 $110 forward single #
loop $-1 $111 $112 $44 #
cone-surface $-1 -44.525885685022146 -10.711030289528058 8.9966542721574392 0.74314483375859142 0 -0.66913059716165679 0.66913059716165679 0 0.74314483375859142 1 I I 0 1 1 forward I I I I #
face $-1 $113 $114 $27 $-1 $115 reversed single #
loop $-1 $-1 $116 $45 #
plane-surface $-1 0 0 -15.667140414459299 0 0 1 1 0 0 forward_v I I I I #
coedge $-1 $117 $118 $119 $120 forward $46 $-1 #
face $-1 $121 $122 $28 $-1 $123 reversed single #
loop $-1 $-1 $124 $48 #
plane-surface $-1 0 0 -15.667140414459299 0 0 1 1 0 0 forward_v I I I I #
coedge $-1 $125 $126 $127 $128 forward $49 $-1 #
face $-1 $129 $130 $29 $-1 $131 forward single #
loop $-1 $-1 $132 $51 #
plane-surface $-1 -1.5262116004516173 30.304670594097473 88.139279303383915 0.85716730853699208 0 0.51503806187062418 0.51503806187062418 0 -0.85716730853699208 forward_v I I I I #
coedge $-1 $133 $134 $135 $136 reversed $52 $-1 #
face $-1 $-1 $137 $30 $-1 $138 forward single #
loop $-1 $139 $140 $54 #
cone-surface $-1 45.003156807408935 28.46803229175233 7.5776797008025465 -0.85716730853699208 0 -0.51503806187062418 0.12875951546765604 0 -0.21429182713424802 1 I I -0.70710678118654746 0.70710678118654746 0.25 forward I I I I #
loop $-1 $-1 $141 $39 #
coedge $-1 $88 $88 $142 $143 reversed $55 $-1 #
face $-1 $-1 $144 $31 $-1 $145 forward single #
loop $-1 $146 $147 $57 #
cone-surface $-1 45.003156807408935 30.30467059409748 7.5776797008025465 -0.85716730853699208 0 -0.51503806187062418 0.12875951546765604 0 -0.21429182713424802 1 I I -0.70710678118654746 0.70710678118654746 0.25 forward I I I I #
loop $-1 $-1 $148 $40 #
coedge $-1 $93 $93 $149 $150 reversed $58 $-1 #
face $-1 $-1 $151 $32 $-1 $152 forward single #
loop $-1 $153 $154 $60 #
cone-surface $-1 45.003156807408935 32.141308896442624 7.5776797008025465 -0.85716730853699208 0 -0.51503806187062418 0.12875951546765604 0 -0.21429182713424802 1 I I -0.70710678118654746 0.70710678118654746 0.25 forward I I I I #
loop $-1 $-1 $155 $41 #
coedge $-1 $98 $98 $156 $157 reversed $61 $-1 #
face $-1 $158 $159 $33 $-1 $160 reversed single #
loop $-1 $-1 $161 $63 #
plane-surface $-1 -50.744956816309085 -12.501386649682594 4.3521429116483858 -0.74314483375859142 0 0.66913059716165679 0.66913059716165679 0 0.74314483375859142 forward_v I I I I #
coedge $-1 $162 $163 $164 $165 reversed $64 $-1 #
face $-1 $-1 $166 $34 $-1 $167 forward single #
loop $-1 $168 $169 $66 #
cone-surface $-1 -43.02927676644871 -14.291743009837134 7.6491015826802045 0.74314483375859142 0 -0.66913059716165679 0.3345652985808284 0 0.37157241687929571 1 I I -0.70710678118654746 0.70710678118654746 0.5 forward I I I I #
loop $-1 $-1 $170 $43 #
coedge $-1 $107 $107 $171 $172 reversed $67 $-1 #
face $-1 $-1 $173 $35 $-1 $174 forward single #
loop $-1 $175 $176 $69 #
cone-surface $-1 -43.02927676644871 -10.711030289528058 7.6491015826802045 0.74314483375859142 0 -0.66913059716165679 0.3345652985808284 0 0.37157241687929571 1 I I -0.70710678118654746 0.70710678118654746 0.5 forward I I I I #
loop $-1 $-1 $177 $44 #
coedge $-1 $112 $112 $178 $179 reversed $70 $-1 #
face $-1 $180 $181 $27 $-1 $182 reversed single #
loop $-1 $-1 $183 $72 #
plane-surface $-1 0 -33.365734431339391 0 0 1 0 0 0 1 forward_v I I I I #
coedge $-1 $184 $185 $186 $187 forward $73 $-1 #
coedge $-1 $188 $75 $189 $190 forward $46 $-1 #
coedge $-1 $75 $188 $191 $192 forward $46 $-1 #
coedge $-1 $193 $194 $75 $120 reversed $195 $-1 #
edge $-1 $196 -33.365734431339391 $197 33.365734431339391 $119 $198 forward 7 unknown #
face $-1 $199 $200 $28 $-1 $201 forward single #
loop $-1 $-1 $202 $76 #
plane-surface $-1 50.744956816309092 0 0 -1 0 0 0 0 1 forward_v I I I I #
coedge $-1 $203 $204 $205 $206 forward $77 $-1 #
coedge $-1 $205 $79 $202 $207 reversed $49 $-1 #
coedge $-1 $79 $205 $208 $209 reversed $49 $-1 #
coedge $-1 $210 $211 $79 $128 reversed $200 $-1 #
edge $-1 $212 -50.744956816309092 $213 50.744956816309092 $127 $214 forward 7 unknown #
face $-1 $215 $216 $29 $-1 $217 reversed single #
loop $-1 $-1 $218 $80 #
plane-surface $-1 0 0 15.667140414459299 0 0 1 1 0 0 forward_v I I I I #
coedge $-1 $219 $220 $221 $222 reversed $81 $-1 #
coedge $-1 $134 $83 $223 $224 reversed $52 $-1 #
coedge $-1 $83 $133 $219 $225 reversed $52 $-1 #
coedge $-1 $221 $226 $83 $136 forward $227 $-1 #
edge $-1 $228 54.538083445613012 $229 69.059780668811499 $135 $230 forward 7 unknown #
loop $-1 $-1 $142 $84 #
plane-surface $-1 -1.5262116004516173 30.304670594097473 88.139279303383915 0.85716730853699208 0 0.51503806187062418 0.51503806187062418 0 -0.85716730853699208 forward_v I I I I #
loop $-1 $-1 $231 $54 #
coedge $-1 $140 $140 $141 $232 reversed $85 $-1 #
coedge $-1 $141 $141 $140 $232 forward $87 $-1 #
coedge $-1 $142 $142 $88 $143 forward $137 $-1 #
edge $-1 $233 0 $233 6.2831853071796004 $142 $234 forward 7 unknown #
loop $-1 $-1 $149 $89 #
plane-surface $-1 -1.5262116004516173 30.304670594097473 88.139279303383915 0.85716730853699208 0 0.51503806187062418 0.51503806187062418 0 -0.85716730853699208 forward_v I I I I #
loop $-1 $-1 $235 $57 #
coedge $-1 $147 $147 $148 $236 reversed $90 $-1 #
coedge $-1 $148 $148 $147 $236 forward $92 $-1 #
coedge $-1 $149 $149 $93 $150 forward $144 $-1 #
edge $-1 $237 0 $237 6.2831853071796004 $149 $238 forward 7 unknown #
loop $-1 $-1 $156 $94 #
plane-surface $-1 -1.5262116004516173 30.304670594097473 88.139279303383915 0.85716730853699208 0 0.51503806187062418 0.51503806187062418 0 -0.85716730853699208 forward_v I I I I #
loop $-1 $-1 $239 $60 #
coedge $-1 $154 $154 $155 $240 reversed $95 $-1 #
coedge $-1 $155 $155 $154 $240 forward $97 $-1 #
coedge $-1 $156 $156 $98 $157 forward $151 $-1 #
edge $-1 $241 0 $241 6.2831853071796004 $156 $242 forward 7 unknown #
face $-1 $243 $244 $33 $-1 $245 reversed single #
loop $-1 $-1 $246 $99 #
plane-surface $-1 -126.16666181099492 -8.3238884759886727 72.262149426527159 0 -1 0 0.74314483375859142 0 -0.66913059716165679 forward_v I I I I #
coedge $-1 $247 $248 $249 $250 reversed $100 $-1 #
coedge $-1 $163 $102 $251 $252 reversed $64 $-1 #
coedge $-1 $102 $162 $247 $253 reversed $64 $-1 #
coedge $-1 $249 $254 $102 $165 forward $255 $-1 #
edge $-1 $256 12.33837408918837 $257 22.526443348374009 $164 $258 forward 7 unknown #
loop $-1 $-1 $171 $103 #
plane-surface $-1 -50.744956816309085 -12.501386649682594 4.3521429116483858 -0.74314483375859142 0 0.66913059716165679 0.66913059716165679 0 0.74314483375859142 forward_v I I I I #
loop $-1 $-1 $259 $66 #
coedge $-1 $169 $169 $170 $260 reversed $104 $-1 #
coedge $-1 $170 $170 $169 $260 forward $106 $-1 #
coedge $-1 $171 $171 $107 $172 forward $166 $-1 #
edge $-1 $261 0 $261 6.2831853071796004 $171 $262 forward 7 unknown #
loop $-1 $-1 $178 $108 #
plane-surface $-1 -50.744956816309085 -12.501386649682594 4.3521429116483858 -0.74314483375859142 0 0.66913059716165679 0.66913059716165679 0 0.74314483375859142 forward_v I I I I #
loop $-1 $-1 $263 $69 #
coedge $-1 $176 $176 $177 $264 reversed $109 $-1 #
coedge $-1 $177 $177 $176 $264 forward $111 $-1 #
coedge $-1 $178 $178 $112 $179 forward $173 $-1 #
edge $-1 $265 0 $265 6.2831853071796004 $178 $266 forward 7 unknown #
face $-1 $267 $268 $27 $-1 $269 reversed single #
loop $-1 $-1 $270 $113 #
plane-surface $-1 -50.744956816309092 0 0 1 0 0 0 0 -1 forward_v I I I I #
coedge $-1 $191 $271 $193 $272 reversed $114 $-1 #
coedge $-1 $273 $116 $271 $274 forward $73 $-1 #
coedge $-1 $116 $273 $275 $276 forward $73 $-1 #
coedge $-1 $194 $193 $116 $187 reversed $195 $-1 #
edge $-1 $277 -33.365734431339391 $278 33.365734431339391 $186 $279 forward 7 unknown #
coedge $-1 $118 $117 $280 $281 forward $46 $-1 #
coedge $-1 $282 $283 $117 $190 reversed $268 $-1 #
edge $-1 $197 -50.744956816309092 $284 50.744956816309092 $189 $285 forward 7 unknown #
coedge $-1 $286 $183 $118 $192 reversed $114 $-1 #
edge $-1 $287 -50.744956816309092 $196 50.744956816309092 $191 $288 forward 7 unknown #
coedge $-1 $186 $119 $183 $272 forward $195 $-1 #
coedge $-1 $119 $186 $282 $289 reversed $195 $-1 #
loop $-1 $-1 $193 $267 #
vertex $-1 $120 $290 #
vertex $-1 $120 $291 #
straight-curve $-1 50.744956816309092 0 15.667140414459299 0 1 0 I I #
face $-1 $292 $293 $28 $-1 $294 reversed single #
loop $-1 $-1 $211 $121 #
plane-surface $-1 0 -39.087035397901388 -9.0848089459179189 0 0 1 1 0 0 forward_v I I I I #
coedge $-1 $295 $296 $125 $207 forward $122 $-1 #
coedge $-1 $297 $124 $296 $298 forward $77 $-1 #
coedge $-1 $124 $297 $299 $300 forward $77 $-1 #
coedge $-1 $126 $125 $124 $206 reversed $49 $-1 #
edge $-1 $301 -50.744956816309092 $302 50.744956816309092 $124 $303 forward 7 unknown #
edge $-1 $302 -15.667140414459299 $213 -9.0848089459179189 $202 $304 forward 7 unknown #
coedge $-1 $299 $305 $126 $209 forward $306 $-1 #
edge $-1 $212 9.0848089459179189 $301 15.667140414459299 $208 $307 forward 7 unknown #
coedge $-1 $308 $127 $305 $309 forward $200 $-1 #
coedge $-1 $127 $308 $295 $310 forward $200 $-1 #
vertex $-1 $209 $311 #
vertex $-1 $310 $312 #
straight-curve $-1 0 -33.365734431339391 -9.0848089459179189 1 0 0 I I #
face $-1 $-1 $227 $29 $-1 $313 reversed single #
loop $-1 $-1 $314 $129 #
plane-surface $-1 0 33.365734431339391 0 0 -1 0 0 0 -1 forward_v I I I I #
coedge $-1 $223 $315 $316 $317 forward $130 $-1 #
coedge $-1 $316 $132 $134 $225 forward $81 $-1 #
coedge $-1 $132 $316 $314 $318 reversed $81 $-1 #
coedge $-1 $319 $135 $132 $222 forward $227 $-1 #
edge $-1 $229 12.091271459806823 $320 18.213399134290654 $221 $321 forward 7 unknown #
coedge $-1 $322 $218 $133 $224 forward $130 $-1 #
edge $-1 $323 -0.7143711217260531 $228 8.0111445604733476 $223 $324 forward 7 unknown #
edge $-1 $229 -101.4899136326182 $323 -84.548416822638316 $134 $325 forward 7 unknown #
coedge $-1 $135 $319 $322 $326 reversed $227 $-1 #
loop $-1 $-1 $221 $215 #
vertex $-1 $326 $327 #
vertex $-1 $136 $328 #
straight-curve $-1 50.744956816309092 27.243606756855559 70.205223860072309 0 0 -1 I I #
coedge $-1 $231 $231 $-1 $329 reversed $139 $-1 #
edge $-1 $330 0 $330 6.2831853071796004 $140 $331 forward 7 unknown #
vertex $-1 $143 $332 #
ellipse-curve $-1 46.382198975209384 28.46803229175233 8.40629180286005 0.85716730853699208 0 0.51503806187062418 0.25751903093531209 0 -0.42858365426849604 1 I I #
coedge $-1 $235 $235 $-1 $333 reversed $146 $-1 #
edge $-1 $334 0 $334 6.2831853071796004 $147 $335 forward 7 unknown #
vertex $-1 $150 $336 #
ellipse-curve $-1 46.382198975209384 30.30467059409748 8.40629180286005 0.85716730853699208 0 0.51503806187062418 0.25751903093531209 0 -0.42858365426849604 1 I I #
coedge $-1 $239 $239 $-1 $337 reversed $153 $-1 #
edge $-1 $338 0 $338 6.2831853071796004 $154 $339 forward 7 unknown #
vertex $-1 $157 $340 #
ellipse-curve $-1 46.382198975209384 32.141308896442624 8.40629180286005 0.85716730853699208 0 0.51503806187062418 0.25751903093531209 0 -0.42858365426849604 1 I I #
face $-1 $-1 $255 $33 $-1 $341 forward single #
loop $-1 $-1 $342 $158 #
plane-surface $-1 -50.744956816309092 0 0 1 0 0 0 0 -1 forward_v I I I I #
coedge $-1 $343 $344 $345 $346 reversed $159 $-1 #
coedge $-1 $347 $161 $163 $253 forward $100 $-1 #
coedge $-1 $161 $347 $343 $348 forward $100 $-1 #
coedge $-1 $345 $164 $161 $250 forward $255 $-1 #
edge $-1 $257 -10.428191498535217 $349 -2.0731951511473756 $249 $350 forward 7 unknown #
coedge $-1 $351 $352 $162 $252 forward $244 $-1 #
edge $-1 $353 -31.778931801615201 $256 -20.463934298804283 $251 $354 forward 7 unknown #
edge $-1 $257 -15.225830805528492 $353 1.0694865687384493e-014 $163 $355 forward 7 unknown #
coedge $-1 $164 $345 $351 $356 forward $255 $-1 #
loop $-1 $-1 $345 $243 #
vertex $-1 $252 $357 #
vertex $-1 $165 $358 #
straight-curve $-1 -63.083330905497462 -16.678884823376514 15.667140414459297 1 0 0 I I #
coedge $-1 $259 $259 $-1 $359 reversed $168 $-1 #
edge $-1 $360 0 $360 6.2831853071796004 $169 $361 forward 7 unknown #
vertex $-1 $172 $362 #
ellipse-curve $-1 -45.650922186716272 -14.291743009837134 10.009641663053836 -0.74314483375859142 0 0.66913059716165679 0.66913059716165679 0 0.74314483375859142 1 I I #
coedge $-1 $263 $263 $-1 $363 reversed $175 $-1 #
edge $-1 $364 0 $364 6.2831853071796004 $176 $365 forward 7 unknown #
vertex $-1 $179 $366 #
ellipse-curve $-1 -45.650922186716272 -10.711030289528058 10.009641663053836 -0.74314483375859142 0 0.66913059716165679 0.66913059716165679 0 0.74314483375859142 1 I I #
face $-1 $-1 $195 $27 $-1 $367 reversed single #
loop $-1 $-1 $282 $180 #
plane-surface $-1 0 33.365734431339391 0 0 -1 0 0 0 -1 forward_v I I I I #
coedge $-1 $368 $280 $283 $369 forward $181 $-1 #
coedge $-1 $183 $286 $184 $274 reversed $114 $-1 #
edge $-1 $196 -15.667140414459299 $278 15.667140414459299 $193 $370 forward 7 unknown #
coedge $-1 $185 $184 $368 $371 forward $73 $-1 #
edge $-1 $278 -50.744956816309092 $372 50.744956816309092 $271 $373 forward 7 unknown #
coedge $-1 $283 $282 $185 $276 reversed $268 $-1 #
edge $-1 $374 -50.744956816309092 $277 50.744956816309092 $275 $375 forward 7 unknown #
vertex $-1 $187 $376 #
vertex $-1 $272 $377 #
straight-curve $-1 50.744956816309092 0 -15.667140414459299 0 -1 0 I I #
coedge $-1 $270 $378 $188 $281 reversed $181 $-1 #
edge $-1 $284 -33.365734431339391 $287 33.365734431339391 $280 $379 forward 7 unknown #
coedge $-1 $275 $189 $194 $289 forward $268 $-1 #
coedge $-1 $189 $275 $270 $369 reversed $268 $-1 #
vertex $-1 $190 $380 #
straight-curve $-1 0 33.365734431339391 15.667140414459299 -1 0 0 I I #
coedge $-1 $271 $191 $378 $381 forward $114 $-1 #
vertex $-1 $281 $382 #
straight-curve $-1 0 -33.365734431339391 15.667140414459299 1 0 0 I I #
edge $-1 $197 -15.667140414459299 $277 15.667140414459299 $194 $383 forward 7 unknown #
point $-1 50.744956816309092 -33.365734431339391 15.667140414459299 #
point $-1 50.744956816309092 33.365734431339391 15.667140414459299 #
face $-1 $-1 $306 $28 $-1 $384 reversed single #
loop $-1 $-1 $385 $199 #
plane-surface $-1 0 -44.808336364463386 -12.375974680188609 0 1 0 0 0 1 forward_v I I I I #
coedge $-1 $386 $202 $211 $310 reversed $122 $-1 #
coedge $-1 $202 $386 $203 $298 reversed $122 $-1 #
coedge $-1 $204 $203 $387 $388 forward $77 $-1 #
edge $-1 $302 33.365734431339391 $389 44.808336364463386 $296 $390 forward 7 unknown #
coedge $-1 $391 $208 $204 $300 reversed $306 $-1 #
edge $-1 $392 -44.808336364463386 $301 -33.365734431339391 $299 $393 forward 7 unknown #
vertex $-1 $209 $394 #
vertex $-1 $298 $395 #
straight-curve $-1 0 -33.365734431339391 -15.667140414459299 1 0 0 I I #
straight-curve $-1 50.744956816309092 -33.365734431339391 0 0 0 1 I I #
coedge $-1 $208 $391 $210 $309 reversed $306 $-1 #
loop $-1 $-1 $208 $292 #
straight-curve $-1 -50.744956816309092 -33.365734431339391 0 0 0 -1 I I #
coedge $-1 $211 $210 $396 $397 forward $200 $-1 #
edge $-1 $212 -5.7213009665619978 $398 5.7213009665619978 $305 $399 forward 7 unknown #
edge $-1 $400 -5.7213009665619978 $213 5.7213009665619978 $295 $401 forward 7 unknown #
point $-1 -50.744956816309092 -33.365734431339391 -9.0848089459179189 #
point $-1 50.744956816309092 -33.365734431339391 -9.0848089459179189 #
plane-surface $-1 50.744956816309092 0 0 -1 0 0 0 0 1 forward_v I I I I #
coedge $-1 $402 $403 $220 $318 forward $216 $-1 #
coedge $-1 $218 $322 $402 $404 forward $130 $-1 #
coedge $-1 $220 $219 $218 $317 reversed $81 $-1 #
edge $-1 $405 -18.213399134290654 $323 -12.091271459806823 $218 $406 forward 7 unknown #
edge $-1 $320 -63.321830691831735 $405 -46.380333881851868 $314 $407 forward 7 unknown #
coedge $-1 $226 $221 $403 $408 reversed $227 $-1 #
vertex $-1 $222 $409 #
straight-curve $-1 50.744956816309092 15.152335297048737 1.1454431912608101 0 1 0 I I #
coedge $-1 $315 $223 $226 $326 forward $130 $-1 #
vertex $-1 $224 $410 #
straight-curve $-1 42.733812255835744 27.243606756855559 15.667140414459297 1 0 0 I I #
straight-curve $-1 -1.5262116004516173 27.243606756855559 88.139279303383915 -0.51503806187062418 0 0.85716730853699208 I I #
edge $-1 $228 27.243606756855559 $411 33.365734431339391 $226 $412 forward 7 unknown #
point $-1 50.744956816309092 27.243606756855559 15.667140414459299 #
point $-1 50.744956816309092 27.243606756855559 1.1454431912608101 #
edge $-1 $413 1 $413 0 $231 $-1 forward 7 unknown #
vertex $-1 $232 $414 #
ellipse-curve $-1 45.217448634543182 28.46803229175233 7.7064392162702022 0.85716730853699208 0 0.51503806187062418 0.25751903093531209 0 -0.42858365426849604 1 I I #
point $-1 46.639718006144697 28.46803229175233 7.977708148591554 #
edge $-1 $415 1 $415 0 $235 $-1 forward 7 unknown #
vertex $-1 $236 $416 #
ellipse-curve $-1 45.217448634543182 30.30467059409748 7.7064392162702022 0.85716730853699208 0 0.51503806187062418 0.25751903093531209 0 -0.42858365426849604 1 I I #
point $-1 46.639718006144697 30.30467059409748 7.977708148591554 #
edge $-1 $417 1 $417 0 $239 $-1 forward 7 unknown #
vertex $-1 $240 $418 #
ellipse-curve $-1 45.217448634543182 32.141308896442624 7.7064392162702022 0.85716730853699208 0 0.51503806187062418 0.25751903093531209 0 -0.42858365426849604 1 I I #
point $-1 46.639718006144697 32.141308896442624 7.977708148591554 #
plane-surface $-1 0 0 15.667140414459299 0 0 1 1 0 0 forward_v I I I I #
coedge $-1 $352 $351 $344 $419 forward $244 $-1 #
coedge $-1 $344 $246 $248 $348 reversed $159 $-1 #
coedge $-1 $246 $343 $342 $419 reversed $159 $-1 #
coedge $-1 $254 $249 $246 $346 forward $255 $-1 #
edge $-1 $349 -22.526443348374009 $420 -12.33837408918837 $345 $421 forward 7 unknown #
coedge $-1 $248 $247 $352 $422 reversed $100 $-1 #
edge $-1 $423 -1.0694865687384493e-014 $349 15.225830805528492 $343 $424 forward 7 unknown #
vertex $-1 $250 $425 #
straight-curve $-1 -40.556887557123453 -6.250693324841297 15.667140414459299 0 1 0 I I #
coedge $-1 $342 $251 $254 $356 reversed $244 $-1 #
coedge $-1 $251 $342 $347 $422 forward $244 $-1 #
vertex $-1 $252 $426 #
straight-curve $-1 -50.744956816309092 -16.678884823376514 36.13107471326358 0 0 1 I I #
straight-curve $-1 -50.744956816309085 -16.678884823376514 4.3521429116483858 -0.66913059716165679 0 -0.74314483375859142 I I #
edge $-1 $420 8.3238884759886727 $256 16.678884823376514 $351 $427 forward 7 unknown #
point $-1 -50.744956816309092 -16.678884823376514 15.667140414459299 #
point $-1 -40.556887557123453 -16.678884823376514 15.667140414459299 #
edge $-1 $428 1 $428 0 $259 $-1 forward 7 unknown #
vertex $-1 $260 $429 #
ellipse-curve $-1 -43.400849183328006 -14.291743009837134 7.9836668812610325 -0.74314483375859142 0 0.66913059716165679 0.66913059716165679 0 0.74314483375859142 1 I I #
point $-1 -44.981791589554625 -14.291743009837134 10.752786496812437 #
edge $-1 $430 1 $430 0 $263 $-1 forward 7 unknown #
vertex $-1 $264 $431 #
ellipse-curve $-1 -43.400849183328006 -10.711030289528058 7.9836668812610325 -0.74314483375859142 0 0.66913059716165679 0.66913059716165679 0 0.74314483375859142 1 I I #
point $-1 -44.981791589554625 -10.711030289528058 10.752786496812437 #
plane-surface $-1 50.744956816309092 0 0 -1 0 0 0 0 1 forward_v I I I I #
coedge $-1 $378 $270 $273 $371 reversed $181 $-1 #
edge $-1 $284 -15.667140414459299 $374 15.667140414459299 $283 $432 forward 7 unknown #
straight-curve $-1 50.744956816309092 -33.365734431339391 0 0 0 -1 I I #
edge $-1 $372 -33.365734431339391 $374 33.365734431339391 $368 $433 forward 7 unknown #
vertex $-1 $371 $434 #
straight-curve $-1 0 -33.365734431339391 -15.667140414459299 -1 0 0 I I #
vertex $-1 $276 $435 #
straight-curve $-1 0 33.365734431339391 -15.667140414459299 1 0 0 I I #
point $-1 50.744956816309092 33.365734431339391 -15.667140414459299 #
point $-1 50.744956816309092 -33.365734431339391 -15.667140414459299 #
coedge $-1 $280 $368 $286 $381 reversed $181 $-1 #
straight-curve $-1 -50.744956816309092 0 15.667140414459299 0 -1 0 I I #
point $-1 -50.744956816309092 33.365734431339391 15.667140414459299 #
edge $-1 $287 -15.667140414459299 $372 15.667140414459299 $378 $436 forward 7 unknown #
point $-1 -50.744956816309092 -33.365734431339391 15.667140414459299 #
straight-curve $-1 50.744956816309092 33.365734431339391 0 0 0 -1 I I #
plane-surface $-1 -50.744956816309092 0 0 1 0 0 0 0 -1 forward_v I I I I #
coedge $-1 $387 $396 $391 $437 forward $293 $-1 #
coedge $-1 $296 $295 $438 $439 forward $122 $-1 #
coedge $-1 $438 $385 $297 $388 reversed $293 $-1 #
edge $-1 $389 -50.744956816309092 $392 50.744956816309092 $387 $440 forward 7 unknown #
vertex $-1 $439 $441 #
straight-curve $-1 50.744956816309092 0 -15.667140414459299 0 -1 0 I I #
coedge $-1 $305 $299 $385 $437 reversed $306 $-1 #
vertex $-1 $300 $442 #
straight-curve $-1 -50.744956816309092 0 -15.667140414459299 0 1 0 I I #
point $-1 -50.744956816309092 -33.365734431339391 -15.667140414459299 #
point $-1 50.744956816309092 -33.365734431339391 -15.667140414459299 #
coedge $-1 $385 $438 $308 $397 reversed $293 $-1 #
edge $-1 $398 -50.744956816309092 $400 50.744956816309092 $396 $443 forward 7 unknown #
vertex $-1 $309 $444 #
straight-curve $-1 -50.744956816309092 -39.087035397901388 -9.0848089459179189 0 -1 0 I I #
vertex $-1 $310 $445 #
straight-curve $-1 50.744956816309092 -39.087035397901388 -9.0848089459179189 0 1 0 I I #
coedge $-1 $403 $314 $315 $404 reversed $216 $-1 #
coedge $-1 $314 $402 $319 $408 forward $216 $-1 #
edge $-1 $411 -50.744956816309092 $405 -42.019441134109691 $402 $446 forward 7 unknown #
vertex $-1 $317 $447 #
straight-curve $-1 42.019441134109691 15.152335297048737 15.667140414459297 0 -1 0 I I #
straight-curve $-1 18.131803862688262 33.365734431339391 55.422846377013322 -0.51503806187062429 0 0.85716730853699219 I I #
edge $-1 $411 -15.667140414459299 $320 -1.1454431912608147 $319 $448 forward 7 unknown #
point $-1 50.744956816309092 33.365734431339391 1.1454431912608147 #
point $-1 42.019441134109691 27.243606756855559 15.667140414459297 #
vertex $-1 $326 $449 #
straight-curve $-1 50.744956816309092 0 15.667140414459299 0 1 0 I I #
vertex $-1 $329 $450 #
point $-1 45.474967665478495 28.46803229175233 7.2778555620017062 #
vertex $-1 $333 $451 #
point $-1 45.474967665478495 30.30467059409748 7.2778555620017062 #
vertex $-1 $337 $452 #
point $-1 45.474967665478495 32.141308896442624 7.2778555620017062 #
edge $-1 $420 20.463934298804283 $423 31.778931801615201 $342 $453 forward 7 unknown #
vertex $-1 $356 $454 #
straight-curve $-1 -63.083330905497462 -8.3238884759886727 15.667140414459297 -1 0 0 I I #
edge $-1 $423 2.0731951511473756 $353 10.428191498535217 $352 $455 forward 7 unknown #
vertex $-1 $422 $456 #
straight-curve $-1 -50.744956816309085 -8.3238884759886727 4.3521429116483858 0.66913059716165679 0 0.74314483375859142 I I #
point $-1 -40.556887557123453 -8.3238884759886727 15.667140414459299 #
point $-1 -50.744956816309092 -16.678884823376514 4.3521429116483779 #
straight-curve $-1 -50.744956816309092 0 15.667140414459299 0 -1 0 I I #
vertex $-1 $359 $457 #
point $-1 -42.731718586166352 -14.291743009837134 8.7268117150196236 #
vertex $-1 $363 $458 #
point $-1 -42.731718586166352 -10.711030289528058 8.7268117150196236 #
straight-curve $-1 -50.744956816309092 33.365734431339391 0 0 0 -1 I I #
straight-curve $-1 -50.744956816309092 0 -15.667140414459299 0 1 0 I I #
point $-1 -50.744956816309092 -33.365734431339391 -15.667140414459299 #
point $-1 -50.744956816309092 33.365734431339391 -15.667140414459299 #
straight-curve $-1 -50.744956816309092 -33.365734431339391 0 0 0 -1 I I #
edge $-1 $398 -3.2911657342706899 $392 3.2911657342706899 $391 $459 forward 7 unknown #
coedge $-1 $396 $387 $386 $439 reversed $293 $-1 #
edge $-1 $400 -3.2911657342706899 $389 3.2911657342706899 $386 $460 forward 7 unknown #
straight-curve $-1 0 -44.808336364463386 -15.667140414459299 -1 0 0 I I #
point $-1 50.744956816309092 -44.808336364463386 -15.667140414459299 #
point $-1 -50.744956816309092 -44.808336364463386 -15.667140414459299 #
straight-curve $-1 0 -44.808336364463386 -9.0848089459179189 1 0 0 I I #
point $-1 -50.744956816309092 -44.808336364463386 -9.0848089459179189 #
point $-1 50.744956816309092 -44.808336364463386 -9.0848089459179189 #
straight-curve $-1 0 33.365734431339391 15.667140414459299 -1 0 0 I I #
point $-1 42.019441134109691 33.365734431339391 15.667140414459297 #
straight-curve $-1 50.744956816309092 33.365734431339391 0 0 0 -1 I I #
point $-1 50.744956816309092 33.365734431339391 15.667140414459299 #
point $-1 44.788864980274688 28.46803229175233 7.4489201853348908 #
point $-1 44.788864980274688 30.30467059409748 7.4489201853348908 #
point $-1 44.788864980274688 32.141308896442624 7.4489201853348908 #
straight-curve $-1 -50.744956816309092 -8.3238884759886727 36.13107471326358 0 0 -1 I I #
point $-1 -50.744956816309092 -8.3238884759886727 15.667140414459299 #
straight-curve $-1 -50.744956816309092 -6.250693324841297 4.3521429116483743 0 -1 0 I I #
point $-1 -50.744956816309092 -8.3238884759886727 4.3521429116483779 #
point $-1 -42.657704349569414 -14.291743009837134 7.3145362840993764 #
point $-1 -42.657704349569414 -10.711030289528058 7.3145362840993764 #
straight-curve $-1 -50.744956816309092 -44.808336364463386 -12.375974680188609 0 0 -1 I I #
straight-curve $-1 50.744956816309092 -44.808336364463386 -12.375974680188609 0 0 -1 I I #
End-of-ACIS-data 