500 0 5 0           
7 Unknown 11 ACIS 5.0 NT 24 Fri Mar 26 16:43:54 1999 
-1 9.9999999999999995e-007 1e-010 
body $-1 $5 $-1 $6 #
body $-1 $7 $-1 $8 #
body $-1 $9 $-1 $10 #
body $-1 $11 $-1 $12 #
body $-1 $13 $-1 $14 #
lump $-1 $-1 $15 $0 #
transform $-1 1 0 0 0 1 0 0 0 1 77.220374156926169 40.950105578796105 8.4108494996751517 1 rotate no_reflect no_shear #
lump $-1 $-1 $16 $1 #
transform $-1 1 0 0 0 1 0 0 0 1 77.220374156926169 40.950105578796105 8.4108494996751517 1 rotate no_reflect no_shear #
lump $-1 $-1 $17 $2 #
transform $-1 1 0 0 0 1 0 0 0 1 77.220374156926169 40.950105578796105 8.4108494996751517 1 rotate no_reflect no_shear #
lump $-1 $-1 $18 $3 #
transform $-1 1 0 0 0 1 0 0 0 1 77.220374156926169 40.950105578796105 8.4108494996751517 1 rotate no_reflect no_shear #
lump $-1 $-1 $19 $4 #
transform $-1 1 0 0 0 1 0 0 0 1 77.220374156926169 40.950105578796105 8.4108494996751517 1 rotate no_reflect no_shear #
shell $-1 $-1 $-1 $20 $-1 $5 #
shell $-1 $-1 $-1 $21 $-1 $7 #
shell $-1 $-1 $-1 $22 $-1 $9 #
shell $-1 $-1 $-1 $23 $-1 $11 #
shell $-1 $-1 $-1 $24 $-1 $13 #
face $-1 $25 $26 $15 $-1 $27 forward single #
face $-1 $28 $29 $16 $-1 $30 forward single #
face $-1 $31 $32 $17 $-1 $33 forward single #
face $-1 $34 $35 $18 $-1 $36 reversed single #
face $-1 $37 $38 $19 $-1 $39 forward single #
face $-1 $40 $41 $15 $-1 $42 reversed single #
loop $-1 $-1 $43 $20 #
plane-surface $-1 0 0 8.4108494996751517 0 0 1 1 0 0 forward_v I I I I #
face $-1 $44 $45 $16 $-1 $46 reversed single #
loop $-1 $-1 $47 $21 #
plane-surface $-1 -77.220374156926169 0 0 1 0 0 0 0 -1 forward_v I I I I #
face $-1 $48 $49 $17 $-1 $50 reversed single #
loop $-1 $-1 $51 $22 #
plane-surface $-1 77.220374156926169 0 0 -1 0 0 0 0 1 forward_v I I I I #
face $-1 $52 $53 $18 $-1 $54 reversed single #
loop $-1 $-1 $55 $23 #
plane-surface $-1 -36.734441575910303 -142.27235418630801 117.74289175710665 -1 0 0 0 -0.6560590369687036 0.75470957328743171 forward_v I I I I #
face $-1 $56 $57 $19 $-1 $58 forward single #
loop $-1 $59 $60 $24 #
cone-surface $-1 -52.855755352144307 -35.504707012836036 3.3148681926437518 0 0.6560590369687036 -0.75470957328743171 1.5 0 0 1 I I 0 1 1.5 forward I I I I #
face $-1 $61 $62 $15 $-1 $63 reversed single #
loop $-1 $-1 $64 $25 #
plane-surface $-1 0 0 -8.4108494996751517 0 0 1 1 0 0 forward_v I I I I #
coedge $-1 $65 $66 $67 $68 forward $26 $-1 #
face $-1 $69 $70 $16 $-1 $71 forward single #
loop $-1 $-1 $72 $28 #
plane-surface $-1 0 40.950105578796105 0 0 -1 0 0 0 -1 forward_v I I I I #
coedge $-1 $73 $74 $75 $76 forward $29 $-1 #
face $-1 $77 $78 $17 $-1 $79 forward single #
loop $-1 $-1 $80 $31 #
plane-surface $-1 0 40.950105578796105 0 0 -1 0 0 0 -1 forward_v I I I I #
coedge $-1 $81 $82 $83 $84 forward $32 $-1 #
face $-1 $85 $86 $18 $-1 $87 reversed single #
loop $-1 $-1 $88 $34 #
plane-surface $-1 -52.855755352144307 -40.950105578796112 1.184980498967505 0 -0.6560590369687036 0.75470957328743171 1 0 0 forward_v I I I I #
coedge $-1 $89 $90 $91 $92 reversed $35 $-1 #
face $-1 $-1 $93 $19 $-1 $94 forward single #
loop $-1 $95 $96 $37 #
cone-surface $-1 -52.855755352144307 -33.723469786979443 1.2657892060005924 0 0.6560590369687036 -0.75470957328743171 0.75 0 0 1 I I -0.70710678118654757 0.70710678118654757 0.75 forward I I I I #
loop $-1 $-1 $97 $24 #
coedge $-1 $60 $60 $98 $99 reversed $38 $-1 #
face $-1 $100 $101 $15 $-1 $102 reversed single #
loop $-1 $-1 $103 $40 #
plane-surface $-1 0 -40.950105578796105 0 0 1 0 0 0 1 forward_v I I I I #
coedge $-1 $104 $105 $106 $107 forward $41 $-1 #
coedge $-1 $108 $43 $109 $110 forward $26 $-1 #
coedge $-1 $43 $108 $111 $112 forward $26 $-1 #
coedge $-1 $113 $114 $43 $68 reversed $115 $-1 #
edge $-1 $116 -40.950105578796105 $117 40.950105578796105 $67 $118 forward 7 unknown #
face $-1 $119 $120 $16 $-1 $121 reversed single #
loop $-1 $-1 $75 $44 #
plane-surface $-1 -81.342026671200102 0 -5.4108494996751517 0 0 1 1 0 0 forward_v I I I I #
coedge $-1 $122 $123 $74 $124 forward $45 $-1 #
coedge $-1 $125 $47 $126 $127 reversed $29 $-1 #
coedge $-1 $47 $125 $72 $124 reversed $29 $-1 #
coedge $-1 $128 $129 $47 $76 reversed $70 $-1 #
edge $-1 $130 -40.950105578796105 $131 40.950105578796105 $75 $132 forward 7 unknown #
face $-1 $133 $134 $17 $-1 $135 reversed single #
loop $-1 $-1 $136 $48 #
plane-surface $-1 81.342026671200102 0 -5.4108494996751517 0 0 1 1 0 0 forward_v I I I I #
coedge $-1 $137 $138 $81 $139 forward $49 $-1 #
coedge $-1 $140 $51 $80 $139 reversed $32 $-1 #
coedge $-1 $51 $140 $141 $142 reversed $32 $-1 #
coedge $-1 $143 $144 $51 $84 reversed $78 $-1 #
edge $-1 $145 -40.950105578796105 $146 40.950105578796105 $83 $147 forward 7 unknown #
face $-1 $148 $149 $18 $-1 $150 forward single #
loop $-1 $-1 $151 $52 #
plane-surface $-1 -68.977069128378304 -142.27235418630801 117.74289175710665 1 0 0 0 0.6560590369687036 -0.75470957328743171 forward_v I I I I #
coedge $-1 $152 $153 $154 $155 reversed $53 $-1 #
coedge $-1 $90 $55 $156 $157 reversed $35 $-1 #
coedge $-1 $55 $89 $152 $158 reversed $35 $-1 #
coedge $-1 $154 $159 $55 $92 forward $149 $-1 #
edge $-1 $160 30.186071514357899 $161 38.498482750017921 $91 $162 forward 7 unknown #
loop $-1 $-1 $98 $56 #
plane-surface $-1 -52.855755352144307 -40.950105578796112 1.184980498967505 0 -0.6560590369687036 0.75470957328743171 1 0 0 forward_v I I I I #
loop $-1 $-1 $163 $37 #
coedge $-1 $96 $96 $97 $164 reversed $57 $-1 #
coedge $-1 $97 $97 $96 $164 forward $59 $-1 #
coedge $-1 $98 $98 $60 $99 forward $93 $-1 #
edge $-1 $165 -8.5576779885730057e-016 $165 6.2831853071795996 $98 $166 forward 7 unknown #
face $-1 $167 $168 $15 $-1 $169 reversed single #
loop $-1 $-1 $170 $61 #
plane-surface $-1 -77.220374156926169 0 0 1 0 0 0 0 -1 forward_v I I I I #
coedge $-1 $171 $111 $170 $172 forward $62 $-1 #
coedge $-1 $173 $64 $171 $174 forward $41 $-1 #
coedge $-1 $64 $173 $175 $176 forward $41 $-1 #
coedge $-1 $114 $113 $64 $107 reversed $115 $-1 #
edge $-1 $177 -40.950105578796105 $178 40.950105578796105 $106 $179 forward 7 unknown #
coedge $-1 $66 $65 $180 $181 forward $26 $-1 #
coedge $-1 $182 $183 $65 $110 reversed $168 $-1 #
edge $-1 $117 -77.220374156926169 $184 77.220374156926169 $109 $185 forward 7 unknown #
coedge $-1 $103 $186 $66 $112 reversed $62 $-1 #
edge $-1 $187 -77.220374156926169 $116 77.220374156926169 $111 $188 forward 7 unknown #
coedge $-1 $106 $67 $186 $189 forward $115 $-1 #
coedge $-1 $67 $106 $182 $190 reversed $115 $-1 #
loop $-1 $-1 $114 $167 #
vertex $-1 $68 $191 #
vertex $-1 $68 $192 #
straight-curve $-1 77.220374156926169 0 8.4108494996751517 0 1 0 I I #
face $-1 $193 $194 $16 $-1 $195 reversed single #
loop $-1 $-1 $196 $69 #
plane-surface $-1 -85.463679185474035 0 -6.9108494996751517 1 0 0 0 0 -1 forward_v I I I I #
coedge $-1 $197 $72 $198 $199 reversed $45 $-1 #
coedge $-1 $72 $197 $128 $200 reversed $45 $-1 #
edge $-1 $130 5.4108494996751517 $201 8.4108494996751517 $72 $202 forward 7 unknown #
coedge $-1 $74 $73 $203 $204 reversed $29 $-1 #
coedge $-1 $205 $206 $73 $127 forward $207 $-1 #
edge $-1 $208 -8.4108494996751517 $131 -5.4108494996751517 $126 $209 forward 7 unknown #
coedge $-1 $210 $75 $123 $200 forward $70 $-1 #
coedge $-1 $75 $210 $205 $211 forward $70 $-1 #
vertex $-1 $124 $212 #
vertex $-1 $211 $213 #
straight-curve $-1 -77.220374156926169 0 -5.4108494996751517 0 -1 0 I I #
face $-1 $214 $215 $17 $-1 $216 reversed single #
loop $-1 $-1 $217 $77 #
plane-surface $-1 85.463679185474035 0 -6.9108494996751517 -1 0 0 0 0 1 forward_v I I I I #
coedge $-1 $144 $143 $218 $219 forward $78 $-1 #
coedge $-1 $220 $80 $144 $221 reversed $49 $-1 #
coedge $-1 $80 $220 $222 $223 reversed $49 $-1 #
edge $-1 $224 -8.4108494996751517 $146 -5.4108494996751517 $80 $225 forward 7 unknown #
coedge $-1 $82 $81 $226 $227 reversed $32 $-1 #
coedge $-1 $228 $229 $82 $142 forward $230 $-1 #
edge $-1 $145 5.4108494996751517 $231 8.4108494996751517 $141 $232 forward 7 unknown #
coedge $-1 $136 $83 $229 $233 forward $78 $-1 #
coedge $-1 $83 $136 $137 $221 forward $78 $-1 #
vertex $-1 $142 $234 #
vertex $-1 $221 $235 #
straight-curve $-1 77.220374156926169 0 -5.4108494996751517 0 1 0 I I #
face $-1 $-1 $236 $18 $-1 $237 reversed single #
loop $-1 $-1 $91 $85 #
plane-surface $-1 0 0 8.4108494996751517 0 0 1 1 0 0 forward_v I I I I #
coedge $-1 $238 $239 $240 $241 reversed $86 $-1 #
coedge $-1 $242 $88 $90 $158 forward $53 $-1 #
coedge $-1 $88 $242 $238 $243 forward $53 $-1 #
coedge $-1 $240 $91 $88 $155 forward $149 $-1 #
edge $-1 $161 10.306563899838149 $244 42.549191452306147 $154 $245 forward 7 unknown #
coedge $-1 $246 $247 $89 $157 forward $236 $-1 #
edge $-1 $248 -57.686465379585812 $160 -50.460596378878172 $156 $249 forward 7 unknown #
edge $-1 $161 -11.014052994520901 $248 -9.44141639987384e-015 $90 $250 forward 7 unknown #
coedge $-1 $91 $240 $246 $251 forward $149 $-1 #
vertex $-1 $157 $252 #
vertex $-1 $92 $253 #
straight-curve $-1 -36.734441575910303 -71.136177093154004 8.4108494996751517 0 1 0 I I #
coedge $-1 $163 $163 $-1 $254 reversed $95 $-1 #
edge $-1 $255 0 $255 6.2831853071796004 $96 $256 forward 7 unknown #
vertex $-1 $99 $257 #
ellipse-curve $-1 -52.855755352144307 -36.793899960966094 4.797914999321331 0 -0.6560590369687036 0.75470957328743171 1.5 0 0 1 I I #
face $-1 $-1 $115 $15 $-1 $258 reversed single #
loop $-1 $-1 $182 $100 #
plane-surface $-1 0 40.950105578796105 0 0 -1 0 0 0 -1 forward_v I I I I #
coedge $-1 $180 $259 $103 $172 reversed $101 $-1 #
coedge $-1 $186 $103 $104 $174 reversed $62 $-1 #
edge $-1 $187 -8.4108494996751517 $260 8.4108494996751517 $170 $261 forward 7 unknown #
coedge $-1 $105 $104 $259 $262 forward $41 $-1 #
edge $-1 $178 -77.220374156926169 $260 77.220374156926169 $171 $263 forward 7 unknown #
coedge $-1 $183 $182 $105 $176 reversed $168 $-1 #
edge $-1 $264 -77.220374156926169 $177 77.220374156926169 $175 $265 forward 7 unknown #
vertex $-1 $107 $266 #
vertex $-1 $189 $267 #
straight-curve $-1 77.220374156926169 0 -8.4108494996751517 0 -1 0 I I #
coedge $-1 $268 $170 $108 $181 reversed $101 $-1 #
edge $-1 $184 -40.950105578796105 $187 40.950105578796105 $180 $269 forward 7 unknown #
coedge $-1 $175 $109 $114 $190 forward $168 $-1 #
coedge $-1 $109 $175 $268 $270 reversed $168 $-1 #
vertex $-1 $110 $271 #
straight-curve $-1 0 40.950105578796105 8.4108494996751517 -1 0 0 I I #
coedge $-1 $111 $171 $113 $189 reversed $62 $-1 #
vertex $-1 $181 $272 #
straight-curve $-1 0 -40.950105578796105 8.4108494996751517 1 0 0 I I #
edge $-1 $116 -8.4108494996751517 $178 8.4108494996751517 $113 $273 forward 7 unknown #
edge $-1 $117 -8.4108494996751517 $177 8.4108494996751517 $114 $274 forward 7 unknown #
point $-1 77.220374156926169 -40.950105578796105 8.4108494996751517 #
point $-1 77.220374156926169 40.950105578796105 8.4108494996751517 #
face $-1 $-1 $207 $16 $-1 $275 reversed single #
loop $-1 $-1 $203 $119 #
plane-surface $-1 0 0 -8.4108494996751517 0 0 1 1 0 0 forward_v I I I I #
coedge $-1 $276 $277 $197 $278 forward $120 $-1 #
coedge $-1 $123 $122 $196 $278 reversed $45 $-1 #
coedge $-1 $203 $279 $122 $199 forward $194 $-1 #
edge $-1 $280 -85.463679185474035 $201 -77.220374156926169 $122 $281 forward 7 unknown #
edge $-1 $130 -4.1216525142739329 $282 4.1216525142739329 $123 $283 forward 7 unknown #
vertex $-1 $124 $284 #
straight-curve $-1 -77.220374156926169 40.950105578796105 0 0 0 -1 I I #
coedge $-1 $285 $198 $125 $204 forward $194 $-1 #
edge $-1 $201 -40.950105578796105 $208 40.950105578796105 $203 $286 forward 7 unknown #
coedge $-1 $287 $126 $129 $211 reversed $207 $-1 #
coedge $-1 $126 $287 $285 $288 reversed $207 $-1 #
loop $-1 $-1 $126 $193 #
vertex $-1 $288 $289 #
straight-curve $-1 -77.220374156926169 -40.950105578796105 0 0 0 1 I I #
coedge $-1 $129 $128 $277 $290 forward $70 $-1 #
edge $-1 $291 -4.1216525142739329 $131 4.1216525142739329 $205 $292 forward 7 unknown #
point $-1 -77.220374156926169 40.950105578796105 -5.4108494996751517 #
point $-1 -77.220374156926169 -40.950105578796105 -5.4108494996751517 #
face $-1 $-1 $230 $17 $-1 $293 reversed single #
loop $-1 $-1 $226 $133 #
plane-surface $-1 0 0 -8.4108494996751517 0 0 1 1 0 0 forward_v I I I I #
coedge $-1 $294 $218 $295 $296 forward $134 $-1 #
coedge $-1 $217 $297 $136 $219 reversed $134 $-1 #
edge $-1 $298 -40.950105578796105 $299 40.950105578796105 $218 $300 forward 7 unknown #
coedge $-1 $138 $137 $297 $301 forward $49 $-1 #
edge $-1 $299 -4.1216525142739329 $146 4.1216525142739329 $137 $302 forward 7 unknown #
coedge $-1 $303 $226 $138 $223 forward $215 $-1 #
edge $-1 $224 -4.1216525142739329 $304 4.1216525142739329 $138 $305 forward 7 unknown #
vertex $-1 $223 $306 #
straight-curve $-1 77.220374156926169 40.950105578796105 0 0 0 1 I I #
coedge $-1 $222 $307 $140 $227 forward $215 $-1 #
edge $-1 $231 -40.950105578796105 $224 40.950105578796105 $226 $308 forward 7 unknown #
coedge $-1 $295 $141 $307 $309 reversed $230 $-1 #
coedge $-1 $141 $295 $143 $233 reversed $230 $-1 #
loop $-1 $-1 $141 $214 #
vertex $-1 $142 $310 #
straight-curve $-1 77.220374156926169 -40.950105578796105 0 0 0 -1 I I #
edge $-1 $145 -4.1216525142739329 $298 4.1216525142739329 $229 $311 forward 7 unknown #
point $-1 77.220374156926169 -40.950105578796105 -5.4108494996751517 #
point $-1 77.220374156926169 40.950105578796105 -5.4108494996751517 #
loop $-1 $-1 $156 $148 #
plane-surface $-1 0 -40.950105578796105 0 0 1 0 0 0 1 forward_v I I I I #
coedge $-1 $239 $151 $153 $243 reversed $86 $-1 #
coedge $-1 $151 $238 $312 $313 reversed $86 $-1 #
coedge $-1 $159 $154 $151 $241 forward $149 $-1 #
edge $-1 $244 -38.498482750017921 $314 -30.186071514357899 $240 $315 forward 7 unknown #
coedge $-1 $153 $152 $247 $316 reversed $53 $-1 #
edge $-1 $317 9.44141639987384e-015 $244 11.014052994520901 $238 $318 forward 7 unknown #
vertex $-1 $155 $319 #
straight-curve $-1 -26.427877676072153 -32.637694343136083 8.4108494996751517 -1 0 0 I I #
coedge $-1 $312 $156 $159 $251 reversed $236 $-1 #
coedge $-1 $156 $312 $242 $316 forward $236 $-1 #
vertex $-1 $157 $320 #
straight-curve $-1 -36.734441575910303 -40.950105578796105 58.871445878553324 0 0 1 I I #
straight-curve $-1 -36.734441575910303 -40.950105578796112 1.184980498967505 0 -0.75470957328743171 -0.6560590369687036 I I #
edge $-1 $314 -68.977069128378304 $160 -36.734441575910303 $246 $321 forward 7 unknown #
point $-1 -36.734441575910303 -40.950105578796105 8.4108494996751517 #
point $-1 -36.734441575910303 -32.637694343136083 8.4108494996751517 #
edge $-1 $322 1 $322 0 $163 $-1 forward 7 unknown #
vertex $-1 $164 $323 #
ellipse-curve $-1 -52.855755352144307 -34.215514064705971 1.8318213859661663 0 -0.6560590369687036 0.75470957328743171 1.5 0 0 1 I I #
point $-1 -51.355755352144307 -36.793899960966101 4.7979149993213372 #
plane-surface $-1 77.220374156926169 0 0 -1 0 0 0 0 1 forward_v I I I I #
coedge $-1 $170 $268 $173 $262 reversed $101 $-1 #
vertex $-1 $262 $324 #
straight-curve $-1 -77.220374156926169 -40.950105578796105 0 0 0 -1 I I #
edge $-1 $260 -40.950105578796105 $264 40.950105578796105 $259 $325 forward 7 unknown #
straight-curve $-1 0 -40.950105578796105 -8.4108494996751517 -1 0 0 I I #
vertex $-1 $176 $326 #
straight-curve $-1 0 40.950105578796105 -8.4108494996751517 1 0 0 I I #
point $-1 77.220374156926169 40.950105578796105 -8.4108494996751517 #
point $-1 77.220374156926169 -40.950105578796105 -8.4108494996751517 #
coedge $-1 $259 $180 $183 $270 forward $101 $-1 #
straight-curve $-1 -77.220374156926169 0 8.4108494996751517 0 -1 0 I I #
edge $-1 $184 -8.4108494996751517 $264 8.4108494996751517 $183 $327 forward 7 unknown #
point $-1 -77.220374156926169 40.950105578796105 8.4108494996751517 #
point $-1 -77.220374156926169 -40.950105578796105 8.4108494996751517 #
straight-curve $-1 77.220374156926169 -40.950105578796105 0 0 0 -1 I I #
straight-curve $-1 77.220374156926169 40.950105578796105 0 0 0 -1 I I #
plane-surface $-1 0 -40.950105578796105 0 0 1 0 0 0 1 forward_v I I I I #
coedge $-1 $328 $196 $279 $329 reversed $120 $-1 #
coedge $-1 $196 $328 $210 $290 reversed $120 $-1 #
edge $-1 $282 -1.5 $280 1.5 $197 $330 forward 7 unknown #
coedge $-1 $198 $285 $276 $329 forward $194 $-1 #
vertex $-1 $199 $331 #
straight-curve $-1 0 40.950105578796105 -8.4108494996751517 1 0 0 I I #
vertex $-1 $200 $332 #
straight-curve $-1 -81.342026671200102 40.950105578796105 -5.4108494996751517 -1 0 0 I I #
point $-1 -77.220374156926169 40.950105578796105 -8.4108494996751517 #
coedge $-1 $279 $203 $206 $288 forward $194 $-1 #
straight-curve $-1 -77.220374156926169 0 -8.4108494996751517 0 -1 0 I I #
coedge $-1 $206 $205 $328 $333 forward $207 $-1 #
edge $-1 $208 -4.1216525142739329 $334 4.1216525142739329 $206 $335 forward 7 unknown #
point $-1 -77.220374156926169 -40.950105578796105 -8.4108494996751517 #
edge $-1 $282 -40.950105578796105 $291 40.950105578796105 $277 $336 forward 7 unknown #
vertex $-1 $290 $337 #
straight-curve $-1 -81.342026671200102 -40.950105578796105 -5.4108494996751517 1 0 0 I I #
plane-surface $-1 0 -40.950105578796105 0 0 1 0 0 0 1 forward_v I I I I #
coedge $-1 $297 $217 $303 $338 reversed $134 $-1 #
coedge $-1 $229 $228 $217 $296 reversed $230 $-1 #
edge $-1 $298 -1.5 $339 1.5 $217 $340 forward 7 unknown #
coedge $-1 $218 $294 $220 $301 reversed $134 $-1 #
vertex $-1 $219 $341 #
vertex $-1 $219 $342 #
straight-curve $-1 85.463679185474035 0 -5.4108494996751517 0 1 0 I I #
edge $-1 $299 -1.5 $304 1.5 $297 $343 forward 7 unknown #
straight-curve $-1 81.342026671200102 40.950105578796105 -5.4108494996751517 -1 0 0 I I #
coedge $-1 $307 $222 $294 $338 forward $215 $-1 #
vertex $-1 $338 $344 #
straight-curve $-1 81.342026671200102 40.950105578796105 -8.4108494996751517 1 0 0 I I #
point $-1 77.220374156926169 40.950105578796105 -8.4108494996751517 #
coedge $-1 $226 $303 $228 $309 forward $215 $-1 #
straight-curve $-1 77.220374156926169 0 -8.4108494996751517 0 1 0 I I #
edge $-1 $339 -4.1216525142739329 $231 4.1216525142739329 $228 $345 forward 7 unknown #
point $-1 77.220374156926169 -40.950105578796105 -8.4108494996751517 #
straight-curve $-1 81.342026671200102 -40.950105578796105 -5.4108494996751517 1 0 0 I I #
coedge $-1 $247 $246 $239 $313 forward $236 $-1 #
edge $-1 $314 50.460596378878172 $317 57.686465379585812 $312 $346 forward 7 unknown #
vertex $-1 $251 $347 #
straight-curve $-1 -68.977069128378304 -71.136177093154004 8.4108494996751517 0 -1 0 I I #
edge $-1 $317 -42.549191452306147 $248 -10.306563899838149 $247 $348 forward 7 unknown #
vertex $-1 $316 $349 #
straight-curve $-1 -68.977069128378304 -40.950105578796112 1.184980498967505 0 0.75470957328743171 0.6560590369687036 I I #
point $-1 -68.977069128378304 -32.637694343136083 8.4108494996751517 #
point $-1 -36.734441575910303 -40.950105578796105 1.1849804989675112 #
straight-curve $-1 0 -40.950105578796105 8.4108494996751517 1 0 0 I I #
vertex $-1 $254 $350 #
point $-1 -51.355755352144307 -34.215514064705971 1.8318213859661663 #
point $-1 -77.220374156926169 -40.950105578796105 -8.4108494996751517 #
straight-curve $-1 -77.220374156926169 0 -8.4108494996751517 0 1 0 I I #
point $-1 -77.220374156926169 40.950105578796105 -8.4108494996751517 #
straight-curve $-1 -77.220374156926169 40.950105578796105 0 0 0 -1 I I #
coedge $-1 $277 $276 $287 $333 reversed $120 $-1 #
edge $-1 $334 -40.950105578796105 $280 40.950105578796105 $276 $351 forward 7 unknown #
straight-curve $-1 -85.463679185474035 40.950105578796105 -6.9108494996751517 0 0 -1 I I #
point $-1 -85.463679185474035 40.950105578796105 -8.4108494996751517 #
point $-1 -85.463679185474035 40.950105578796105 -5.4108494996751517 #
edge $-1 $291 -1.5 $334 1.5 $328 $352 forward 7 unknown #
vertex $-1 $329 $353 #
straight-curve $-1 -81.342026671200102 -40.950105578796105 -8.4108494996751517 -1 0 0 I I #
straight-curve $-1 -85.463679185474035 0 -5.4108494996751517 0 -1 0 I I #
point $-1 -85.463679185474035 -40.950105578796105 -5.4108494996751517 #
edge $-1 $304 -40.950105578796105 $339 40.950105578796105 $294 $354 forward 7 unknown #
vertex $-1 $296 $355 #
straight-curve $-1 85.463679185474035 -40.950105578796105 -6.9108494996751517 0 0 -1 I I #
point $-1 85.463679185474035 -40.950105578796105 -5.4108494996751517 #
point $-1 85.463679185474035 40.950105578796105 -5.4108494996751517 #
straight-curve $-1 85.463679185474035 40.950105578796105 -6.9108494996751517 0 0 -1 I I #
point $-1 85.463679185474035 40.950105578796105 -8.4108494996751517 #
straight-curve $-1 81.342026671200102 -40.950105578796105 -8.4108494996751517 -1 0 0 I I #
straight-curve $-1 -68.977069128378304 -40.950105578796105 58.871445878553324 0 0 -1 I I #
point $-1 -68.977069128378304 -40.950105578796105 8.4108494996751517 #
straight-curve $-1 -26.427877676072153 -40.950105578796105 1.1849804989675141 1 0 0 I I #
point $-1 -68.977069128378304 -40.950105578796105 1.1849804989675112 #
point $-1 -52.855755352144307 -33.231425509252915 0.69975702603501866 #
straight-curve $-1 -85.463679185474035 0 -8.4108494996751517 0 1 0 I I #
straight-curve $-1 -85.463679185474035 -40.950105578796105 -6.9108494996751517 0 0 -1 I I #
point $-1 -85.463679185474035 -40.950105578796105 -8.4108494996751517 #
straight-curve $-1 85.463679185474035 0 -8.4108494996751517 0 -1 0 I I #
point $-1 85.463679185474035 -40.950105578796105 -8.4108494996751517 #
End-of-ACIS-data 