500 0 11 0           
7 Unknown 11 ACIS 5.0 NT 24 Fri Mar 26 02:43:43 1999 
-1 9.9999999999999995e-007 1e-010 
body $-1 $11 $-1 $12 #
body $-1 $13 $-1 $14 #
body $-1 $15 $-1 $16 #
body $-1 $17 $-1 $18 #
body $-1 $19 $-1 $20 #
body $-1 $21 $-1 $22 #
body $-1 $23 $-1 $24 #
body $-1 $25 $-1 $26 #
body $-1 $27 $-1 $28 #
body $-1 $29 $-1 $30 #
body $-1 $31 $-1 $32 #
lump $-1 $-1 $33 $0 #
transform $-1 1 0 0 0 1 0 0 0 1 72.103030487990964 38.594826582782069 8.5274460736114275 1 rotate no_reflect no_shear #
lump $-1 $-1 $34 $1 #
transform $-1 1 0 0 0 1 0 0 0 1 72.103030487990964 38.594826582782069 8.5274460736114275 1 rotate no_reflect no_shear #
lump $-1 $-1 $35 $2 #
transform $-1 1 0 0 0 1 0 0 0 1 72.103030487990964 38.594826582782069 8.5274460736114275 1 rotate no_reflect no_shear #
lump $-1 $-1 $36 $3 #
transform $-1 1 0 0 0 1 0 0 0 1 72.103030487990964 38.594826582782069 8.5274460736114275 1 rotate no_reflect no_shear #
lump $-1 $-1 $37 $4 #
transform $-1 1 0 0 0 1 0 0 0 1 72.103030487990964 38.594826582782069 8.5274460736114275 1 rotate no_reflect no_shear #
lump $-1 $-1 $38 $5 #
transform $-1 1 0 0 0 1 0 0 0 1 72.103030487990964 38.594826582782069 8.5274460736114275 1 rotate no_reflect no_shear #
lump $-1 $-1 $39 $6 #
transform $-1 1 0 0 0 1 0 0 0 1 72.103030487990964 38.594826582782069 8.5274460736114275 1 rotate no_reflect no_shear #
lump $-1 $-1 $40 $7 #
transform $-1 1 0 0 0 1 0 0 0 1 72.103030487990964 38.594826582782069 8.5274460736114275 1 rotate no_reflect no_shear #
lump $-1 $-1 $41 $8 #
transform $-1 1 0 0 0 1 0 0 0 1 72.103030487990964 38.594826582782069 8.5274460736114275 1 rotate no_reflect no_shear #
lump $-1 $-1 $42 $9 #
transform $-1 1 0 0 0 1 0 0 0 1 72.103030487990964 38.594826582782069 8.5274460736114275 1 rotate no_reflect no_shear #
lump $-1 $-1 $43 $10 #
transform $-1 1 0 0 0 1 0 0 0 1 72.103030487990964 38.594826582782069 8.5274460736114275 1 rotate no_reflect no_shear #
shell $-1 $-1 $-1 $44 $-1 $11 #
shell $-1 $-1 $-1 $45 $-1 $13 #
shell $-1 $-1 $-1 $46 $-1 $15 #
shell $-1 $-1 $-1 $47 $-1 $17 #
shell $-1 $-1 $-1 $48 $-1 $19 #
shell $-1 $-1 $-1 $49 $-1 $21 #
shell $-1 $-1 $-1 $50 $-1 $23 #
shell $-1 $-1 $-1 $51 $-1 $25 #
shell $-1 $-1 $-1 $52 $-1 $27 #
shell $-1 $-1 $-1 $53 $-1 $29 #
shell $-1 $-1 $-1 $54 $-1 $31 #
face $-1 $55 $56 $33 $-1 $57 forward single #
face $-1 $58 $59 $34 $-1 $60 forward single #
face $-1 $61 $62 $35 $-1 $63 reversed single #
face $-1 $64 $65 $36 $-1 $66 reversed single #
face $-1 $67 $68 $37 $-1 $69 forward single #
face $-1 $70 $71 $38 $-1 $72 forward single #
face $-1 $73 $74 $39 $-1 $75 reversed single #
face $-1 $76 $77 $40 $-1 $78 forward single #
face $-1 $79 $80 $41 $-1 $81 forward single #
face $-1 $82 $83 $42 $-1 $84 reversed single #
face $-1 $85 $86 $43 $-1 $87 forward single #
face $-1 $88 $89 $33 $-1 $90 reversed single #
loop $-1 $-1 $91 $44 #
plane-surface $-1 0 0 8.5274460736114275 0 0 1 1 0 0 forward_v I I I I #
face $-1 $92 $93 $34 $-1 $94 reversed single #
loop $-1 $-1 $95 $45 #
plane-surface $-1 0 -34.394309235477927 -5.5274460736114275 0 0 1 1 0 0 forward_v I I I I #
face $-1 $96 $97 $35 $-1 $98 reversed single #
loop $-1 $-1 $99 $46 #
plane-surface $-1 -65.52316087223241 28.51241696994434 0 0 1 0 0 0 1 forward_v I I I I #
face $-1 $100 $101 $36 $-1 $102 reversed single #
loop $-1 $-1 $103 $47 #
plane-surface $-1 93.420376374937632 -3.2536957470642918 207.17973811383951 0 -1 0 -0.77714596973225614 0 -0.62932038083071107 forward_v I I I I #
face $-1 $104 $105 $37 $-1 $106 forward single #
loop $-1 $107 $108 $48 #
cone-surface $-1 70.024991267324623 -12.823781336698037 6.1271493487346982 -0.77714596973225614 0 -0.62932038083071107 0.62932038083071107 0 -0.77714596973225614 1 I I 0 1 1 forward I I I I #
face $-1 $109 $110 $38 $-1 $111 forward single #
loop $-1 $112 $113 $49 #
cone-surface $-1 70.024991267324623 -7.0817299829177891 6.1271493487346982 -0.77714596973225614 0 -0.62932038083071107 0.62932038083071107 0 -0.77714596973225614 1 I I 0 1 1 forward I I I I #
face $-1 $114 $115 $39 $-1 $116 reversed single #
loop $-1 $-1 $117 $50 #
plane-surface $-1 93.420376374937632 14.970440654322083 207.17973811383951 0 -1 0 -0.77714596973225614 0 -0.62932038083071107 forward_v I I I I #
face $-1 $118 $119 $40 $-1 $120 forward single #
loop $-1 $121 $122 $51 #
cone-surface $-1 70.024991267324623 5.400355064688334 6.1271493487346982 -0.77714596973225614 0 -0.62932038083071107 0.62932038083071107 0 -0.77714596973225614 1 I I 0 1 1 forward I I I I #
face $-1 $123 $124 $41 $-1 $125 forward single #
loop $-1 $126 $127 $52 #
cone-surface $-1 70.024991267324623 11.142406418468582 6.1271493487346982 -0.77714596973225614 0 -0.62932038083071107 0.62932038083071107 0 -0.77714596973225614 1 I I 0 1 1 forward I I I I #
face $-1 $128 $129 $42 $-1 $130 reversed single #
loop $-1 $-1 $131 $53 #
plane-surface $-1 -156.86522750375303 -27.329660312132106 116.9176812894903 0 1 0 -0.5877852598018023 0 0.80901698891910034 forward_v I I I I #
face $-1 $132 $133 $43 $-1 $134 forward single #
loop $-1 $135 $136 $54 #
cone-surface $-1 -65.575179022423441 -19.832796662987327 3.2432850459227964 0.5877852598018023 0 -0.80901698891910034 1.6180339778382007 0 1.1755705196036046 1 I I 0 1 2 forward I I I I #
face $-1 $137 $138 $33 $-1 $139 reversed single #
loop $-1 $-1 $140 $55 #
plane-surface $-1 0 0 -8.5274460736114275 0 0 1 1 0 0 forward_v I I I I #
coedge $-1 $141 $142 $143 $144 forward $56 $-1 #
face $-1 $145 $146 $34 $-1 $147 reversed single #
loop $-1 $-1 $148 $58 #
plane-surface $-1 0 -30.193791888173784 -7.0274460736114275 0 -1 0 0 0 -1 forward_v I I I I #
coedge $-1 $149 $150 $151 $152 reversed $59 $-1 #
face $-1 $153 $154 $35 $-1 $155 reversed single #
loop $-1 $-1 $156 $61 #
plane-surface $-1 -67.02316087223241 33.553621776363208 0 1 0 0 0 0 -1 forward_v I I I I #
coedge $-1 $157 $158 $159 $160 forward $62 $-1 #
face $-1 $161 $162 $36 $-1 $163 reversed single #
loop $-1 $-1 $164 $64 #
plane-surface $-1 -18.648782723510706 -9.952755659807913 116.42792490233782 0.77714596973225614 0 0.62932038083071107 0.62932038083071107 0 -0.77714596973225614 forward_v I I I I #
coedge $-1 $165 $166 $167 $168 reversed $65 $-1 #
face $-1 $-1 $169 $37 $-1 $170 forward single #
loop $-1 $171 $172 $67 #
cone-surface $-1 69.246244377369067 -12.823781336698037 5.4965325683035946 -0.77714596973225614 0 -0.62932038083071107 0.31466019041535553 0 -0.38857298486612807 1 I I -0.70710678118654746 0.70710678118654746 0.5 forward I I I I #
loop $-1 $-1 $173 $48 #
coedge $-1 $108 $108 $174 $175 reversed $68 $-1 #
face $-1 $-1 $176 $38 $-1 $177 forward single #
loop $-1 $178 $179 $70 #
cone-surface $-1 69.246244377369067 -7.0817299829177891 5.4965325683035946 -0.77714596973225614 0 -0.62932038083071107 0.31466019041535553 0 -0.38857298486612807 1 I I -0.70710678118654746 0.70710678118654746 0.5 forward I I I I #
loop $-1 $-1 $180 $49 #
coedge $-1 $113 $113 $181 $182 reversed $71 $-1 #
face $-1 $183 $184 $39 $-1 $185 reversed single #
loop $-1 $-1 $186 $73 #
plane-surface $-1 -18.648782723510706 8.2713807415784615 116.42792490233782 0.77714596973225614 0 0.62932038083071107 0.62932038083071107 0 -0.77714596973225614 forward_v I I I I #
coedge $-1 $187 $188 $189 $190 reversed $74 $-1 #
face $-1 $-1 $191 $40 $-1 $192 forward single #
loop $-1 $193 $194 $76 #
cone-surface $-1 69.246244377369067 5.400355064688334 5.4965325683035946 -0.77714596973225614 0 -0.62932038083071107 0.31466019041535553 0 -0.38857298486612807 1 I I -0.70710678118654746 0.70710678118654746 0.5 forward I I I I #
loop $-1 $-1 $195 $51 #
coedge $-1 $122 $122 $196 $197 reversed $77 $-1 #
face $-1 $-1 $198 $41 $-1 $199 forward single #
loop $-1 $200 $201 $79 #
cone-surface $-1 69.246244377369067 11.142406418468582 5.4965325683035946 -0.77714596973225614 0 -0.62932038083071107 0.31466019041535553 0 -0.38857298486612807 1 I I -0.70710678118654746 0.70710678118654746 0.5 forward I I I I #
loop $-1 $-1 $202 $52 #
coedge $-1 $127 $127 $203 $204 reversed $80 $-1 #
face $-1 $205 $206 $42 $-1 $207 reversed single #
loop $-1 $-1 $208 $82 #
plane-surface $-1 -72.103030487990949 -19.832796662987327 0.25252805481721907 -0.5877852598018023 0 0.80901698891910034 0.80901698891910034 0 0.5877852598018023 forward_v I I I I #
coedge $-1 $209 $210 $211 $212 reversed $83 $-1 #
face $-1 $-1 $213 $43 $-1 $214 forward single #
loop $-1 $215 $216 $85 #
cone-surface $-1 -64.154265963121077 -19.832796662987327 1.2875660387121624 0.5877852598018023 0 -0.80901698891910034 0.80901698891910034 0 0.5877852598018023 1 I I -0.70710678118654746 0.70710678118654746 1 forward I I I I #
loop $-1 $-1 $217 $54 #
coedge $-1 $136 $136 $218 $219 reversed $86 $-1 #
face $-1 $220 $221 $33 $-1 $222 reversed single #
loop $-1 $-1 $223 $88 #
plane-surface $-1 0 -38.594826582782069 0 0 1 0 0 0 1 forward_v I I I I #
coedge $-1 $224 $225 $226 $227 forward $89 $-1 #
coedge $-1 $228 $91 $229 $230 forward $56 $-1 #
coedge $-1 $91 $228 $231 $232 forward $56 $-1 #
coedge $-1 $233 $234 $91 $144 reversed $235 $-1 #
edge $-1 $236 -38.594826582782069 $237 38.594826582782069 $143 $238 forward 7 unknown #
face $-1 $239 $240 $34 $-1 $241 reversed single #
loop $-1 $-1 $242 $92 #
plane-surface $-1 0 0 -8.5274460736114275 0 0 1 1 0 0 forward_v I I I I #
coedge $-1 $243 $244 $245 $246 reversed $93 $-1 #
coedge $-1 $247 $95 $244 $248 forward $59 $-1 #
coedge $-1 $95 $247 $249 $250 reversed $59 $-1 #
coedge $-1 $251 $245 $95 $152 forward $240 $-1 #
edge $-1 $252 12.996637270434821 $253 21.397671965043106 $151 $254 forward 7 unknown #
face $-1 $255 $256 $35 $-1 $257 reversed single #
loop $-1 $-1 $258 $96 #
plane-surface $-1 -64.02316087223241 33.553621776363208 0 -1 0 0 0 0 1 forward_v I I I I #
coedge $-1 $259 $260 $261 $262 reversed $97 $-1 #
coedge $-1 $263 $99 $264 $265 reversed $62 $-1 #
coedge $-1 $99 $263 $266 $267 reversed $62 $-1 #
coedge $-1 $260 $259 $99 $160 reversed $97 $-1 #
edge $-1 $268 -8.5274460736114275 $269 8.5274460736114275 $159 $270 forward 7 unknown #
face $-1 $271 $272 $36 $-1 $273 forward single #
loop $-1 $-1 $274 $100 #
plane-surface $-1 93.420376374937632 -16.651815572551534 207.17973811383951 0 1 0 0.77714596973225614 0 0.62932038083071107 forward_v I I I I #
coedge $-1 $275 $276 $277 $278 reversed $101 $-1 #
coedge $-1 $166 $103 $279 $280 reversed $65 $-1 #
coedge $-1 $103 $165 $275 $281 reversed $65 $-1 #
coedge $-1 $277 $282 $103 $168 forward $272 $-1 #
edge $-1 $283 -25.392842300522148 $284 -22.01711166936839 $167 $285 forward 7 unknown #
loop $-1 $-1 $174 $104 #
plane-surface $-1 -18.648782723510706 -9.952755659807913 116.42792490233782 0.77714596973225614 0 0.62932038083071107 0.62932038083071107 0 -0.77714596973225614 forward_v I I I I #
loop $-1 $-1 $286 $67 #
coedge $-1 $172 $172 $173 $287 reversed $105 $-1 #
coedge $-1 $173 $173 $172 $287 forward $107 $-1 #
coedge $-1 $174 $174 $108 $175 forward $169 $-1 #
edge $-1 $288 0 $288 6.2831853071796004 $174 $289 forward 7 unknown #
loop $-1 $-1 $181 $109 #
plane-surface $-1 -18.648782723510706 -9.952755659807913 116.42792490233782 0.77714596973225614 0 0.62932038083071107 0.62932038083071107 0 -0.77714596973225614 forward_v I I I I #
loop $-1 $-1 $290 $70 #
coedge $-1 $179 $179 $180 $291 reversed $110 $-1 #
coedge $-1 $180 $180 $179 $291 forward $112 $-1 #
coedge $-1 $181 $181 $113 $182 forward $176 $-1 #
edge $-1 $292 0 $292 6.2831853071796004 $181 $293 forward 7 unknown #
face $-1 $294 $295 $39 $-1 $296 reversed single #
loop $-1 $-1 $297 $114 #
plane-surface $-1 93.420376374937632 1.5723208288348403 207.17973811383951 0 1 0 0.77714596973225614 0 0.62932038083071107 forward_v I I I I #
coedge $-1 $298 $299 $300 $301 reversed $115 $-1 #
coedge $-1 $188 $117 $302 $303 reversed $74 $-1 #
coedge $-1 $117 $187 $298 $304 reversed $74 $-1 #
coedge $-1 $300 $305 $117 $190 forward $306 $-1 #
edge $-1 $307 -25.392842300522148 $308 -22.01711166936839 $189 $309 forward 7 unknown #
loop $-1 $-1 $196 $118 #
plane-surface $-1 -18.648782723510706 8.2713807415784615 116.42792490233782 0.77714596973225614 0 0.62932038083071107 0.62932038083071107 0 -0.77714596973225614 forward_v I I I I #
loop $-1 $-1 $310 $76 #
coedge $-1 $194 $194 $195 $311 reversed $119 $-1 #
coedge $-1 $195 $195 $194 $311 forward $121 $-1 #
coedge $-1 $196 $196 $122 $197 forward $191 $-1 #
edge $-1 $312 0 $312 6.2831853071796004 $196 $313 forward 7 unknown #
loop $-1 $-1 $203 $123 #
plane-surface $-1 -18.648782723510706 8.2713807415784615 116.42792490233782 0.77714596973225614 0 0.62932038083071107 0.62932038083071107 0 -0.77714596973225614 forward_v I I I I #
loop $-1 $-1 $314 $79 #
coedge $-1 $201 $201 $202 $315 reversed $124 $-1 #
coedge $-1 $202 $202 $201 $315 forward $126 $-1 #
coedge $-1 $203 $203 $127 $204 forward $198 $-1 #
edge $-1 $316 0 $316 6.2831853071796004 $203 $317 forward 7 unknown #
face $-1 $318 $319 $42 $-1 $320 reversed single #
loop $-1 $-1 $321 $128 #
plane-surface $-1 -156.86522750375303 -12.335933013842549 116.9176812894903 0 -1 0 0.5877852598018023 0 -0.80901698891910034 forward_v I I I I #
coedge $-1 $322 $323 $324 $325 reversed $129 $-1 #
coedge $-1 $210 $131 $326 $327 reversed $83 $-1 #
coedge $-1 $131 $209 $322 $328 reversed $83 $-1 #
coedge $-1 $324 $329 $131 $212 forward $330 $-1 #
edge $-1 $331 6.3295832638855529 $332 17.719030596019515 $211 $333 forward 7 unknown #
loop $-1 $-1 $218 $132 #
plane-surface $-1 -72.103030487990949 -19.832796662987327 0.25252805481721907 -0.5877852598018023 0 0.80901698891910034 0.80901698891910034 0 0.5877852598018023 forward_v I I I I #
loop $-1 $-1 $334 $85 #
coedge $-1 $216 $216 $217 $335 reversed $133 $-1 #
coedge $-1 $217 $217 $216 $335 forward $135 $-1 #
coedge $-1 $218 $218 $136 $219 forward $213 $-1 #
edge $-1 $336 0 $336 6.2831853071796004 $218 $337 forward 7 unknown #
face $-1 $338 $339 $33 $-1 $340 reversed single #
loop $-1 $-1 $341 $137 #
plane-surface $-1 -72.103030487990964 0 0 1 0 0 0 0 -1 forward_v I I I I #
coedge $-1 $342 $231 $343 $344 forward $138 $-1 #
coedge $-1 $345 $140 $342 $346 forward $89 $-1 #
coedge $-1 $140 $345 $347 $348 forward $89 $-1 #
coedge $-1 $234 $233 $140 $227 reversed $235 $-1 #
edge $-1 $349 -38.594826582782069 $350 38.594826582782069 $226 $351 forward 7 unknown #
coedge $-1 $142 $141 $352 $353 forward $56 $-1 #
coedge $-1 $354 $355 $141 $230 reversed $339 $-1 #
edge $-1 $237 -72.103030487990964 $356 72.103030487990964 $229 $357 forward 7 unknown #
coedge $-1 $223 $358 $142 $232 reversed $138 $-1 #
edge $-1 $359 -72.103030487990964 $236 72.103030487990964 $231 $360 forward 7 unknown #
coedge $-1 $226 $143 $358 $361 forward $235 $-1 #
coedge $-1 $143 $226 $354 $362 reversed $235 $-1 #
loop $-1 $-1 $233 $338 #
vertex $-1 $144 $363 #
vertex $-1 $144 $364 #
straight-curve $-1 72.103030487990964 0 8.5274460736114275 0 1 0 I I #
face $-1 $365 $366 $34 $-1 $367 reversed single #
loop $-1 $-1 $245 $145 #
plane-surface $-1 72.103030487990964 0 0 -1 0 0 0 0 1 forward_v I I I I #
coedge $-1 $368 $369 $243 $370 forward $146 $-1 #
coedge $-1 $371 $148 $242 $370 reversed $93 $-1 #
coedge $-1 $148 $371 $149 $248 reversed $93 $-1 #
coedge $-1 $151 $372 $148 $246 forward $240 $-1 #
edge $-1 $373 -5.0137230368057137 $252 -2.0137230368057137 $245 $374 forward 7 unknown #
coedge $-1 $150 $149 $375 $376 reversed $59 $-1 #
edge $-1 $252 -72.103030487990964 $377 72.103030487990964 $244 $378 forward 7 unknown #
coedge $-1 $379 $380 $150 $250 forward $366 $-1 #
edge $-1 $253 -72.103030487990964 $381 72.103030487990964 $249 $382 forward 7 unknown #
coedge $-1 $372 $151 $380 $383 forward $240 $-1 #
vertex $-1 $152 $384 #
vertex $-1 $383 $385 #
straight-curve $-1 72.103030487990964 -17.197154617738963 -5.5274460736114275 0 -1 0 I I #
face $-1 $386 $387 $35 $-1 $388 forward single #
loop $-1 $-1 $389 $153 #
plane-surface $-1 0 0 -8.5274460736114275 0 0 1 1 0 0 forward_v I I I I #
coedge $-1 $390 $391 $263 $392 forward $154 $-1 #
coedge $-1 $159 $156 $393 $394 reversed $97 $-1 #
coedge $-1 $156 $159 $395 $396 reversed $97 $-1 #
coedge $-1 $397 $398 $156 $262 forward $399 $-1 #
edge $-1 $400 -8.5274460736114275 $401 8.5274460736114275 $261 $402 forward 7 unknown #
coedge $-1 $158 $157 $258 $392 reversed $62 $-1 #
coedge $-1 $393 $389 $157 $265 forward $256 $-1 #
edge $-1 $403 31.261580436116205 $269 34.261580436116205 $264 $404 forward 7 unknown #
coedge $-1 $405 $395 $158 $267 forward $387 $-1 #
edge $-1 $268 -34.261580436116205 $406 -31.261580436116205 $266 $407 forward 7 unknown #
vertex $-1 $267 $408 #
vertex $-1 $265 $409 #
straight-curve $-1 -67.02316087223241 28.51241696994434 0 0 0 -1 I I #
face $-1 $-1 $410 $36 $-1 $411 reversed single #
loop $-1 $-1 $167 $161 #
plane-surface $-1 0 0 8.5274460736114275 0 0 1 1 0 0 forward_v I I I I #
coedge $-1 $412 $413 $414 $415 reversed $162 $-1 #
coedge $-1 $416 $164 $166 $281 forward $101 $-1 #
coedge $-1 $164 $416 $412 $417 forward $101 $-1 #
coedge $-1 $414 $167 $164 $278 forward $272 $-1 #
edge $-1 $284 -1.7226820828396647 $418 11.675437742647578 $277 $419 forward 7 unknown #
coedge $-1 $420 $421 $165 $280 forward $410 $-1 #
edge $-1 $422 -99.231103253030241 $283 -95.062422983308323 $279 $423 forward 7 unknown #
edge $-1 $284 138.84197181888555 $422 144.2060609759819 $166 $424 forward 7 unknown #
coedge $-1 $167 $414 $420 $425 forward $272 $-1 #
vertex $-1 $168 $426 #
vertex $-1 $168 $427 #
straight-curve $-1 46.710188187468816 -3.2536957470642918 8.5274460736114293 -1 0 0 I I #
coedge $-1 $286 $286 $-1 $428 reversed $171 $-1 #
edge $-1 $429 0 $429 6.2831853071796004 $172 $430 forward 7 unknown #
vertex $-1 $175 $431 #
ellipse-curve $-1 70.415165172414078 -12.823781336698037 6.4431059387504641 0.77714596973225614 0 0.62932038083071107 0.62932038083071107 0 -0.77714596973225614 1 I I #
coedge $-1 $290 $290 $-1 $432 reversed $178 $-1 #
edge $-1 $433 0 $433 6.2831853071796004 $179 $434 forward 7 unknown #
vertex $-1 $182 $435 #
ellipse-curve $-1 70.415165172414078 -7.0817299829177891 6.4431059387504641 0.77714596973225614 0 0.62932038083071107 0.62932038083071107 0 -0.77714596973225614 1 I I #
face $-1 $-1 $306 $39 $-1 $436 forward single #
loop $-1 $-1 $437 $183 #
plane-surface $-1 72.103030487990964 0 0 -1 0 0 0 0 1 forward_v I I I I #
coedge $-1 $438 $439 $440 $441 reversed $184 $-1 #
coedge $-1 $442 $186 $188 $304 forward $115 $-1 #
coedge $-1 $186 $442 $438 $443 forward $115 $-1 #
coedge $-1 $440 $189 $186 $301 forward $306 $-1 #
edge $-1 $308 -10.834750283532852 $444 2.5633695419543905 $300 $445 forward 7 unknown #
coedge $-1 $446 $447 $187 $303 forward $295 $-1 #
edge $-1 $448 -99.231103253030241 $307 -95.062422983308323 $302 $449 forward 7 unknown #
edge $-1 $308 138.84197181888555 $448 144.2060609759819 $188 $450 forward 7 unknown #
coedge $-1 $189 $440 $446 $451 forward $306 $-1 #
loop $-1 $-1 $440 $294 #
vertex $-1 $303 $452 #
vertex $-1 $190 $453 #
straight-curve $-1 46.710188187468816 14.970440654322083 8.5274460736114293 -1 0 0 I I #
coedge $-1 $310 $310 $-1 $454 reversed $193 $-1 #
edge $-1 $455 0 $455 6.2831853071796004 $194 $456 forward 7 unknown #
vertex $-1 $197 $457 #
ellipse-curve $-1 70.415165172414078 5.400355064688334 6.4431059387504641 0.77714596973225614 0 0.62932038083071107 0.62932038083071107 0 -0.77714596973225614 1 I I #
coedge $-1 $314 $314 $-1 $458 reversed $200 $-1 #
edge $-1 $459 0 $459 6.2831853071796004 $201 $460 forward 7 unknown #
vertex $-1 $204 $461 #
ellipse-curve $-1 70.415165172414078 11.142406418468582 6.4431059387504641 0.77714596973225614 0 0.62932038083071107 0.62932038083071107 0 -0.77714596973225614 1 I I #
face $-1 $-1 $330 $42 $-1 $462 forward single #
loop $-1 $-1 $463 $205 #
plane-surface $-1 -72.103030487990964 0 0 1 0 0 0 0 -1 forward_v I I I I #
coedge $-1 $464 $465 $466 $467 reversed $206 $-1 #
coedge $-1 $468 $208 $210 $328 forward $129 $-1 #
coedge $-1 $208 $468 $464 $469 forward $129 $-1 #
coedge $-1 $466 $211 $208 $325 forward $330 $-1 #
edge $-1 $332 -17.413261980638442 $470 -2.4195346823488855 $324 $471 forward 7 unknown #
coedge $-1 $472 $473 $209 $327 forward $319 $-1 #
edge $-1 $474 -58.20631258992794 $331 -49.931394571133723 $326 $475 forward 7 unknown #
edge $-1 $332 -14.078131223611257 $474 1.756574927105486e-014 $210 $476 forward 7 unknown #
coedge $-1 $211 $466 $472 $477 forward $330 $-1 #
loop $-1 $-1 $466 $318 #
vertex $-1 $327 $478 #
vertex $-1 $212 $479 #
straight-curve $-1 -78.432613751876517 -27.329660312132106 8.5274460736114293 1 0 0 I I #
coedge $-1 $334 $334 $-1 $480 reversed $215 $-1 #
edge $-1 $481 0 $481 6.2831853071796004 $216 $482 forward 7 unknown #
vertex $-1 $219 $483 #
ellipse-curve $-1 -66.408306821923986 -19.832796662987327 4.3899870642143117 -0.5877852598018023 0 0.80901698891910034 1.6180339778382007 0 1.1755705196036046 1 I I #
face $-1 $-1 $235 $33 $-1 $484 reversed single #
loop $-1 $-1 $354 $220 #
plane-surface $-1 0 38.594826582782069 0 0 -1 0 0 0 -1 forward_v I I I I #
coedge $-1 $485 $352 $355 $486 forward $221 $-1 #
coedge $-1 $358 $223 $224 $346 reversed $138 $-1 #
coedge $-1 $352 $485 $223 $344 reversed $221 $-1 #
edge $-1 $359 -8.5274460736114275 $487 8.5274460736114275 $343 $488 forward 7 unknown #
coedge $-1 $225 $224 $485 $489 forward $89 $-1 #
edge $-1 $350 -72.103030487990964 $487 72.103030487990964 $342 $490 forward 7 unknown #
coedge $-1 $355 $354 $225 $348 reversed $339 $-1 #
edge $-1 $491 -72.103030487990964 $349 72.103030487990964 $347 $492 forward 7 unknown #
vertex $-1 $227 $493 #
vertex $-1 $361 $494 #
straight-curve $-1 72.103030487990964 0 -8.5274460736114275 0 -1 0 I I #
coedge $-1 $341 $343 $228 $353 reversed $221 $-1 #
edge $-1 $356 -38.594826582782069 $359 38.594826582782069 $352 $495 forward 7 unknown #
coedge $-1 $347 $229 $234 $362 forward $339 $-1 #
coedge $-1 $229 $347 $341 $486 reversed $339 $-1 #
vertex $-1 $230 $496 #
straight-curve $-1 0 38.594826582782069 8.5274460736114275 -1 0 0 I I #
coedge $-1 $231 $342 $233 $361 reversed $138 $-1 #
vertex $-1 $353 $497 #
straight-curve $-1 0 -38.594826582782069 8.5274460736114275 1 0 0 I I #
edge $-1 $236 -8.5274460736114275 $350 8.5274460736114275 $233 $498 forward 7 unknown #
edge $-1 $237 -8.5274460736114275 $349 8.5274460736114275 $234 $499 forward 7 unknown #
point $-1 72.103030487990964 -38.594826582782069 8.5274460736114275 #
point $-1 72.103030487990964 38.594826582782069 8.5274460736114275 #
face $-1 $-1 $500 $34 $-1 $501 reversed single #
loop $-1 $-1 $249 $239 #
plane-surface $-1 0 -38.594826582782069 0 0 1 0 0 0 1 forward_v I I I I #
coedge $-1 $502 $242 $372 $503 forward $146 $-1 #
coedge $-1 $242 $502 $504 $505 forward $146 $-1 #
edge $-1 $506 -72.103030487990964 $373 72.103030487990964 $242 $507 forward 7 unknown #
coedge $-1 $244 $243 $508 $509 reversed $93 $-1 #
coedge $-1 $245 $251 $368 $503 reversed $240 $-1 #
vertex $-1 $503 $510 #
straight-curve $-1 72.103030487990964 -30.193791888173784 -3.5137230368057137 0 0 1 I I #
coedge $-1 $508 $511 $247 $376 forward $500 $-1 #
edge $-1 $381 -21.397671965043106 $377 -12.996637270434821 $375 $512 forward 7 unknown #
vertex $-1 $376 $513 #
straight-curve $-1 0 -30.193791888173784 -5.5274460736114275 -1 0 0 I I #
coedge $-1 $514 $249 $511 $515 forward $366 $-1 #
coedge $-1 $249 $514 $251 $383 reversed $366 $-1 #
vertex $-1 $515 $516 #
straight-curve $-1 0 -38.594826582782069 -5.5274460736114275 -1 0 0 I I #
edge $-1 $253 5.5274460736114275 $517 8.5274460736114275 $251 $518 forward 7 unknown #
point $-1 72.103030487990964 -30.193791888173784 -5.5274460736114275 #
point $-1 72.103030487990964 -38.594826582782069 -5.5274460736114275 #
face $-1 $-1 $399 $35 $-1 $519 reversed single #
loop $-1 $-1 $405 $255 #
plane-surface $-1 0 0 8.5274460736114275 0 0 1 1 0 0 forward_v I I I I #
coedge $-1 $264 $520 $390 $521 forward $256 $-1 #
coedge $-1 $522 $258 $389 $521 reversed $154 $-1 #
coedge $-1 $258 $522 $405 $523 reversed $154 $-1 #
edge $-1 $406 -8.5274460736114275 $403 8.5274460736114275 $258 $524 forward 7 unknown #
coedge $-1 $520 $264 $259 $394 forward $256 $-1 #
edge $-1 $269 11.735606081762736 $400 21.818015694600472 $393 $525 forward 7 unknown #
coedge $-1 $266 $526 $260 $396 forward $387 $-1 #
edge $-1 $401 -21.818015694600472 $268 -11.735606081762736 $395 $527 forward 7 unknown #
coedge $-1 $528 $261 $526 $529 reversed $399 $-1 #
coedge $-1 $261 $528 $520 $530 reversed $399 $-1 #
loop $-1 $-1 $528 $386 #
vertex $-1 $530 $531 #
vertex $-1 $262 $532 #
straight-curve $-1 -67.02316087223241 38.594826582782069 0 0 0 1 I I #
vertex $-1 $265 $533 #
straight-curve $-1 -32.761580436116205 28.51241696994434 -8.5274460736114275 -1 0 0 I I #
coedge $-1 $526 $266 $391 $523 forward $387 $-1 #
vertex $-1 $267 $534 #
straight-curve $-1 -32.761580436116205 28.51241696994434 8.5274460736114275 1 0 0 I I #
point $-1 -67.02316087223241 28.51241696994434 8.5274460736114275 #
point $-1 -67.02316087223241 28.51241696994434 -8.5274460736114275 #
loop $-1 $-1 $279 $271 #
plane-surface $-1 72.103030487990964 0 0 -1 0 0 0 0 1 forward_v I I I I #
coedge $-1 $413 $274 $276 $417 reversed $162 $-1 #
coedge $-1 $274 $412 $535 $536 reversed $162 $-1 #
coedge $-1 $282 $277 $274 $415 forward $272 $-1 #
edge $-1 $418 22.01711166936839 $537 25.392842300522148 $414 $538 forward 7 unknown #
coedge $-1 $276 $275 $421 $539 reversed $101 $-1 #
edge $-1 $540 -144.2060609759819 $418 -138.84197181888555 $412 $541 forward 7 unknown #
vertex $-1 $278 $542 #
straight-curve $-1 68.72729985683722 -4.9763778299039565 8.5274460736114293 0 -1 0 I I #
coedge $-1 $535 $279 $282 $425 reversed $410 $-1 #
coedge $-1 $279 $535 $416 $539 forward $410 $-1 #
vertex $-1 $280 $543 #
straight-curve $-1 72.103030487990964 -3.2536957470642918 103.58986905691975 0 0 1 I I #
straight-curve $-1 -18.648782723510706 -3.2536957470642918 116.42792490233782 0.62932038083071107 0 -0.77714596973225614 I I #
edge $-1 $537 -16.651815572551534 $283 -3.2536957470642918 $420 $544 forward 7 unknown #
point $-1 72.103030487990964 -3.2536957470642918 8.5274460736114275 #
point $-1 68.727299856837206 -3.2536957470642918 8.5274460736114293 #
edge $-1 $545 1 $545 0 $286 $-1 forward 7 unknown #
vertex $-1 $287 $546 #
ellipse-curve $-1 69.634817362235196 -12.823781336698037 5.81119275871895 0.77714596973225614 0 0.62932038083071107 0.62932038083071107 0 -0.77714596973225614 1 I I #
point $-1 71.044485553244769 -12.823781336698037 5.665959969018191 #
edge $-1 $547 1 $547 0 $290 $-1 forward 7 unknown #
vertex $-1 $291 $548 #
ellipse-curve $-1 69.634817362235196 -7.0817299829177891 5.81119275871895 0.77714596973225614 0 0.62932038083071107 0.62932038083071107 0 -0.77714596973225614 1 I I #
point $-1 71.044485553244769 -7.0817299829177891 5.665959969018191 #
plane-surface $-1 0 0 8.5274460736114275 0 0 1 1 0 0 forward_v I I I I #
coedge $-1 $447 $446 $439 $549 forward $295 $-1 #
coedge $-1 $439 $297 $299 $443 reversed $184 $-1 #
coedge $-1 $297 $438 $437 $549 reversed $184 $-1 #
coedge $-1 $305 $300 $297 $441 forward $306 $-1 #
edge $-1 $444 22.01711166936839 $550 25.392842300522148 $440 $551 forward 7 unknown #
coedge $-1 $299 $298 $447 $552 reversed $115 $-1 #
edge $-1 $553 -144.2060609759819 $444 -138.84197181888555 $438 $554 forward 7 unknown #
vertex $-1 $301 $555 #
straight-curve $-1 68.72729985683722 4.1356903707892307 8.5274460736114293 0 -1 0 I I #
coedge $-1 $437 $302 $305 $451 reversed $295 $-1 #
coedge $-1 $302 $437 $442 $552 forward $295 $-1 #
vertex $-1 $303 $556 #
straight-curve $-1 72.103030487990964 14.970440654322083 103.58986905691975 0 0 1 I I #
straight-curve $-1 -18.648782723510706 14.970440654322083 116.42792490233782 0.62932038083071107 0 -0.77714596973225614 I I #
edge $-1 $550 1.5723208288348403 $307 14.970440654322083 $446 $557 forward 7 unknown #
point $-1 72.103030487990964 14.970440654322083 8.5274460736114275 #
point $-1 68.727299856837206 14.970440654322083 8.5274460736114293 #
edge $-1 $558 1 $558 0 $310 $-1 forward 7 unknown #
vertex $-1 $311 $559 #
ellipse-curve $-1 69.634817362235196 5.400355064688334 5.81119275871895 0.77714596973225614 0 0.62932038083071107 0.62932038083071107 0 -0.77714596973225614 1 I I #
point $-1 71.044485553244769 5.400355064688334 5.665959969018191 #
edge $-1 $560 1 $560 0 $314 $-1 forward 7 unknown #
vertex $-1 $315 $561 #
ellipse-curve $-1 69.634817362235196 11.142406418468582 5.81119275871895 0.77714596973225614 0 0.62932038083071107 0.62932038083071107 0 -0.77714596973225614 1 I I #
point $-1 71.044485553244769 11.142406418468582 5.665959969018191 #
plane-surface $-1 0 0 8.5274460736114275 0 0 1 1 0 0 forward_v I I I I #
coedge $-1 $473 $472 $465 $562 forward $319 $-1 #
coedge $-1 $465 $321 $323 $469 reversed $206 $-1 #
coedge $-1 $321 $464 $463 $562 reversed $206 $-1 #
coedge $-1 $329 $324 $321 $467 forward $330 $-1 #
edge $-1 $470 -17.719030596019515 $563 -6.3295832638855529 $466 $564 forward 7 unknown #
coedge $-1 $323 $322 $473 $565 reversed $129 $-1 #
edge $-1 $566 -1.756574927105486e-014 $470 14.078131223611257 $464 $567 forward 7 unknown #
vertex $-1 $325 $568 #
straight-curve $-1 -60.713583155857002 -9.9163983314936637 8.5274460736114275 0 1 0 I I #
coedge $-1 $463 $326 $329 $477 reversed $319 $-1 #
coedge $-1 $326 $463 $468 $565 forward $319 $-1 #
vertex $-1 $327 $569 #
straight-curve $-1 -72.103030487990964 -27.329660312132106 58.458840644745152 0 0 1 I I #
straight-curve $-1 -72.103030487990949 -27.329660312132106 0.25252805481721907 -0.80901698891910034 0 -0.5877852598018023 I I #
edge $-1 $563 12.335933013842549 $331 27.329660312132106 $472 $570 forward 7 unknown #
point $-1 -72.103030487990964 -27.329660312132106 8.5274460736114275 #
point $-1 -60.713583155857002 -27.329660312132106 8.5274460736114275 #
edge $-1 $571 1 $571 0 $334 $-1 forward 7 unknown #
vertex $-1 $335 $572 #
ellipse-curve $-1 -64.742051222922882 -19.832796662987327 2.0965830276312625 -0.5877852598018023 0 0.80901698891910034 1.6180339778382007 0 1.1755705196036046 1 I I #
point $-1 -64.790272844085806 -19.832796662987327 5.5655575838179345 #
plane-surface $-1 72.103030487990964 0 0 -1 0 0 0 0 1 forward_v I I I I #
coedge $-1 $343 $341 $345 $489 reversed $221 $-1 #
edge $-1 $356 -8.5274460736114275 $491 8.5274460736114275 $355 $573 forward 7 unknown #
vertex $-1 $489 $574 #
straight-curve $-1 -72.103030487990964 -38.594826582782069 0 0 0 -1 I I #
edge $-1 $487 -38.594826582782069 $491 38.594826582782069 $485 $575 forward 7 unknown #
straight-curve $-1 0 -38.594826582782069 -8.5274460736114275 -1 0 0 I I #
vertex $-1 $348 $576 #
straight-curve $-1 0 38.594826582782069 -8.5274460736114275 1 0 0 I I #
point $-1 72.103030487990964 38.594826582782069 -8.5274460736114275 #
point $-1 72.103030487990964 -38.594826582782069 -8.5274460736114275 #
straight-curve $-1 -72.103030487990964 0 8.5274460736114275 0 -1 0 I I #
point $-1 -72.103030487990964 38.594826582782069 8.5274460736114275 #
point $-1 -72.103030487990964 -38.594826582782069 8.5274460736114275 #
straight-curve $-1 72.103030487990964 -38.594826582782069 0 0 0 -1 I I #
straight-curve $-1 72.103030487990964 38.594826582782069 0 0 0 -1 I I #
loop $-1 $-1 $508 $365 #
plane-surface $-1 -72.103030487990964 0 0 1 0 0 0 0 -1 forward_v I I I I #
coedge $-1 $369 $368 $514 $577 forward $146 $-1 #
edge $-1 $373 30.193791888173784 $517 38.594826582782069 $372 $578 forward 7 unknown #
coedge $-1 $511 $508 $369 $505 reversed $500 $-1 #
edge $-1 $579 -38.594826582782069 $506 -30.193791888173784 $504 $580 forward 7 unknown #
vertex $-1 $509 $581 #
straight-curve $-1 0 -30.193791888173784 -8.5274460736114275 1 0 0 I I #
coedge $-1 $504 $375 $371 $509 forward $500 $-1 #
edge $-1 $377 2.0137230368057137 $506 5.0137230368057137 $508 $582 forward 7 unknown #
point $-1 72.103030487990964 -30.193791888173784 -8.5274460736114275 #
coedge $-1 $375 $504 $379 $515 reversed $500 $-1 #
straight-curve $-1 -72.103030487990964 -17.197154617738963 -5.5274460736114275 0 1 0 I I #
point $-1 -72.103030487990964 -30.193791888173784 -5.5274460736114275 #
coedge $-1 $380 $379 $502 $577 reversed $366 $-1 #
edge $-1 $381 5.5274460736114275 $579 8.5274460736114275 $511 $583 forward 7 unknown #
point $-1 -72.103030487990964 -38.594826582782069 -5.5274460736114275 #
vertex $-1 $383 $584 #
straight-curve $-1 72.103030487990964 -38.594826582782069 0 0 0 -1 I I #
plane-surface $-1 0 38.594826582782069 0 0 -1 0 0 0 -1 forward_v I I I I #
coedge $-1 $389 $393 $398 $530 forward $256 $-1 #
edge $-1 $585 -21.818015694600472 $403 -11.735606081762736 $389 $586 forward 7 unknown #
coedge $-1 $391 $390 $528 $587 reversed $154 $-1 #
edge $-1 $406 11.735606081762736 $588 21.818015694600472 $405 $589 forward 7 unknown #
straight-curve $-1 -64.02316087223241 28.51241696994434 0 0 0 -1 I I #
straight-curve $-1 -67.02316087223241 16.776810888181604 -8.5274460736114275 0 1 0 I I #
coedge $-1 $395 $405 $397 $529 forward $387 $-1 #
straight-curve $-1 -67.02316087223241 16.776810888181604 8.5274460736114275 0 -1 0 I I #
coedge $-1 $398 $397 $522 $587 forward $399 $-1 #
edge $-1 $588 64.02316087223241 $401 67.02316087223241 $397 $590 forward 7 unknown #
edge $-1 $400 -67.02316087223241 $585 -64.02316087223241 $398 $591 forward 7 unknown #
point $-1 -67.02316087223241 38.594826582782076 -8.5274460736114275 #
point $-1 -67.02316087223241 38.594826582782076 8.5274460736114275 #
point $-1 -64.02316087223241 28.51241696994434 -8.5274460736114275 #
point $-1 -64.02316087223241 28.51241696994434 8.5274460736114275 #
coedge $-1 $421 $420 $413 $536 forward $410 $-1 #
edge $-1 $537 95.062422983308323 $540 99.231103253030241 $535 $592 forward 7 unknown #
vertex $-1 $425 $593 #
straight-curve $-1 46.710188187468816 -16.651815572551534 8.5274460736114293 1 0 0 I I #
edge $-1 $540 -11.675437742647578 $422 1.7226820828396647 $421 $594 forward 7 unknown #
vertex $-1 $539 $595 #
straight-curve $-1 -18.648782723510706 -16.651815572551534 116.42792490233782 -0.62932038083071107 0 0.77714596973225614 I I #
point $-1 68.727299856837206 -16.651815572551534 8.5274460736114293 #
point $-1 72.103030487990964 -3.2536957470642918 4.3587658038895114 #
straight-curve $-1 72.103030487990964 0 8.5274460736114275 0 1 0 I I #
vertex $-1 $428 $596 #
point $-1 70.264137743065902 -12.823781336698037 5.0340467889866938 #
vertex $-1 $432 $597 #
point $-1 70.264137743065902 -7.0817299829177891 5.0340467889866938 #
edge $-1 $550 95.062422983308323 $553 99.231103253030241 $437 $598 forward 7 unknown #
vertex $-1 $451 $599 #
straight-curve $-1 46.710188187468816 1.5723208288348403 8.5274460736114293 1 0 0 I I #
edge $-1 $553 -2.5633695419543905 $448 10.834750283532852 $447 $600 forward 7 unknown #
vertex $-1 $552 $601 #
straight-curve $-1 -18.648782723510706 1.5723208288348403 116.42792490233782 -0.62932038083071107 0 0.77714596973225614 I I #
point $-1 68.727299856837206 1.5723208288348403 8.5274460736114293 #
point $-1 72.103030487990964 14.970440654322083 4.3587658038895114 #
straight-curve $-1 72.103030487990964 0 8.5274460736114275 0 1 0 I I #
vertex $-1 $454 $602 #
point $-1 70.264137743065902 5.400355064688334 5.0340467889866938 #
vertex $-1 $458 $603 #
point $-1 70.264137743065902 11.142406418468582 5.0340467889866938 #
edge $-1 $563 49.931394571133723 $566 58.20631258992794 $463 $604 forward 7 unknown #
vertex $-1 $477 $605 #
straight-curve $-1 -78.432613751876517 -12.335933013842549 8.5274460736114293 -1 0 0 I I #
edge $-1 $566 2.4195346823488855 $474 17.413261980638442 $473 $606 forward 7 unknown #
vertex $-1 $565 $607 #
straight-curve $-1 -72.103030487990949 -12.335933013842549 0.25252805481721907 0.80901698891910034 0 0.5877852598018023 I I #
point $-1 -60.713583155857002 -12.335933013842549 8.5274460736114275 #
point $-1 -72.103030487990964 -27.329660312132106 0.25252805481720875 #
straight-curve $-1 -72.103030487990964 0 8.5274460736114275 0 -1 0 I I #
vertex $-1 $480 $608 #
point $-1 -63.12401724508468 -19.832796662987327 3.2721535472348675 #
straight-curve $-1 -72.103030487990964 38.594826582782069 0 0 0 -1 I I #
point $-1 -72.103030487990964 -38.594826582782069 -8.5274460736114275 #
straight-curve $-1 -72.103030487990964 0 -8.5274460736114275 0 1 0 I I #
point $-1 -72.103030487990964 38.594826582782069 -8.5274460736114275 #
edge $-1 $517 -72.103030487990964 $579 72.103030487990964 $514 $609 forward 7 unknown #
straight-curve $-1 72.103030487990964 0 -8.5274460736114275 0 -1 0 I I #
vertex $-1 $505 $610 #
straight-curve $-1 -72.103030487990964 0 -8.5274460736114275 0 1 0 I I #
point $-1 -72.103030487990964 -30.193791888173784 -8.5274460736114275 #
straight-curve $-1 -72.103030487990964 -30.193791888173784 -3.5137230368057137 0 0 -1 I I #
straight-curve $-1 -72.103030487990964 -38.594826582782069 0 0 0 -1 I I #
point $-1 72.103030487990964 -38.594826582782069 -8.5274460736114275 #
vertex $-1 $587 $611 #
straight-curve $-1 -64.02316087223241 16.776810888181604 -8.5274460736114275 0 -1 0 I I #
edge $-1 $588 -8.5274460736114275 $585 8.5274460736114275 $528 $612 forward 7 unknown #
vertex $-1 $529 $613 #
straight-curve $-1 -64.02316087223241 16.776810888181604 8.5274460736114275 0 1 0 I I #
straight-curve $-1 0 38.594826582782069 8.5274460736114275 -1 0 0 I I #
straight-curve $-1 0 38.594826582782069 -8.5274460736114275 1 0 0 I I #
straight-curve $-1 72.103030487990964 -16.651815572551534 103.58986905691975 0 0 -1 I I #
point $-1 72.103030487990964 -16.651815572551534 8.5274460736114275 #
straight-curve $-1 72.103030487990964 -4.9763778299039565 4.3587658038895114 0 1 0 I I #
point $-1 72.103030487990964 -16.651815572551534 4.3587658038895114 #
point $-1 68.857671392502937 -12.823781336698037 5.1818723778882392 #
point $-1 68.857671392502937 -7.0817299829177891 5.1818723778882392 #
straight-curve $-1 72.103030487990964 1.5723208288348403 103.58986905691975 0 0 -1 I I #
point $-1 72.103030487990964 1.5723208288348403 8.5274460736114275 #
straight-curve $-1 72.103030487990964 4.1356903707892307 4.3587658038895114 0 1 0 I I #
point $-1 72.103030487990964 1.5723208288348403 4.3587658038895114 #
point $-1 68.857671392502937 5.400355064688334 5.1818723778882392 #
point $-1 68.857671392502937 11.142406418468582 5.1818723778882392 #
straight-curve $-1 -72.103030487990964 -12.335933013842549 58.458840644745152 0 0 -1 I I #
point $-1 -72.103030487990964 -12.335933013842549 8.5274460736114275 #
straight-curve $-1 -72.103030487990964 -9.9163983314936637 0.25252805481721669 0 -1 0 I I #
point $-1 -72.103030487990964 -12.335933013842549 0.25252805481720875 #
point $-1 -63.566480703319272 -19.832796662987327 0.47854904979306201 #
straight-curve $-1 0 -38.594826582782069 -8.5274460736114275 -1 0 0 I I #
point $-1 -72.103030487990964 -38.594826582782069 -8.5274460736114275 #
point $-1 -64.02316087223241 38.594826582782076 -8.5274460736114275 #
straight-curve $-1 -64.02316087223241 38.594826582782069 0 0 0 -1 I I #
point $-1 -64.02316087223241 38.594826582782076 8.5274460736114275 #
End-of-ACIS-data 