500 0 6 0           
7 Unknown 11 ACIS 5.0 NT 24 Thu Mar 25 17:44:37 1999 
-1 9.9999999999999995e-007 1e-010 
body $-1 $6 $-1 $7 #
body $-1 $8 $-1 $9 #
body $-1 $10 $-1 $11 #
body $-1 $12 $-1 $13 #
body $-1 $14 $-1 $15 #
body $-1 $16 $-1 $17 #
lump $-1 $-1 $18 $0 #
transform $-1 1 0 0 0 1 0 0 0 1 60.195928830835896 28.280714963241589 9.9804591088728536 1 rotate no_reflect no_shear #
lump $-1 $-1 $19 $1 #
transform $-1 1 0 0 0 1 0 0 0 1 60.195928830835896 28.280714963241589 9.9804591088728536 1 rotate no_reflect no_shear #
lump $-1 $-1 $20 $2 #
transform $-1 1 0 0 0 1 0 0 0 1 60.195928830835896 28.280714963241589 9.9804591088728536 1 rotate no_reflect no_shear #
lump $-1 $-1 $21 $3 #
transform $-1 1 0 0 0 1 0 0 0 1 60.195928830835896 28.280714963241589 9.9804591088728536 1 rotate no_reflect no_shear #
lump $-1 $-1 $22 $4 #
transform $-1 1 0 0 0 1 0 0 0 1 60.195928830835896 28.280714963241589 9.9804591088728536 1 rotate no_reflect no_shear #
lump $-1 $-1 $23 $5 #
transform $-1 1 0 0 0 1 0 0 0 1 60.195928830835896 28.280714963241589 9.9804591088728536 1 rotate no_reflect no_shear #
shell $-1 $-1 $-1 $24 $-1 $6 #
shell $-1 $-1 $-1 $25 $-1 $8 #
shell $-1 $-1 $-1 $26 $-1 $10 #
shell $-1 $-1 $-1 $27 $-1 $12 #
shell $-1 $-1 $-1 $28 $-1 $14 #
shell $-1 $-1 $-1 $29 $-1 $16 #
face $-1 $30 $31 $18 $-1 $32 forward single #
face $-1 $33 $34 $19 $-1 $35 forward single #
face $-1 $36 $37 $20 $-1 $38 reversed single #
face $-1 $39 $40 $21 $-1 $41 forward single #
face $-1 $42 $43 $22 $-1 $44 reversed single #
face $-1 $45 $46 $23 $-1 $47 forward single #
face $-1 $48 $49 $18 $-1 $50 reversed single #
loop $-1 $-1 $51 $24 #
plane-surface $-1 0 0 9.9804591088728536 0 0 1 1 0 0 forward_v I I I I #
face $-1 $52 $53 $19 $-1 $54 reversed single #
loop $-1 $-1 $55 $25 #
plane-surface $-1 0 -22.642768324275259 -4.2691553696061515 0 0 1 1 0 0 forward_v I I I I #
face $-1 $56 $57 $20 $-1 $58 reversed single #
loop $-1 $-1 $59 $26 #
plane-surface $-1 -134.31655846552695 -17.004821685308926 100.5550819321776 0 1 0 -0.61566148304635926 0 0.78801074757464917 forward_v I I I I #
face $-1 $60 $61 $21 $-1 $62 forward single #
loop $-1 $63 $64 $27 #
cone-surface $-1 -56.997284254808747 -10.845846585319947 7.2571689955810648 0.61566148304635926 0 -0.78801074757464917 0.78801074757464917 0 0.61566148304635926 1 I I 0 1 1 forward I I I I #
face $-1 $65 $66 $22 $-1 $67 reversed single #
loop $-1 $-1 $68 $28 #
plane-surface $-1 80.945380875466412 13.028458730024003 174.18104797765122 0 -1 0 -0.78801076186113728 0 -0.61566146476048833 forward_v I I I I #
face $-1 $69 $70 $23 $-1 $71 forward single #
loop $-1 $72 $73 $29 #
cone-surface $-1 57.003251949089389 8.8465198217396797 6.5529688612969252 -0.78801076186113728 0 -0.61566146476048833 0.61566146476048833 0 -0.78801076186113728 1 I I 0 1 1 forward I I I I #
face $-1 $74 $75 $18 $-1 $76 reversed single #
loop $-1 $-1 $77 $30 #
plane-surface $-1 0 0 -9.9804591088728536 0 0 1 1 0 0 forward_v I I I I #
coedge $-1 $78 $79 $80 $81 forward $31 $-1 #
face $-1 $82 $83 $19 $-1 $84 reversed single #
loop $-1 $-1 $85 $33 #
plane-surface $-1 0 -22.642768324275259 -7.2691553696061515 0 0 1 1 0 0 forward_v I I I I #
coedge $-1 $86 $87 $88 $89 reversed $34 $-1 #
face $-1 $90 $91 $20 $-1 $92 reversed single #
loop $-1 $-1 $93 $36 #
plane-surface $-1 -60.195928830835896 -10.845846585319951 5.685004174302847 -0.61566148304635926 0 0.78801074757464917 0.78801074757464917 0 0.61566148304635926 forward_v I I I I #
coedge $-1 $94 $95 $96 $97 reversed $37 $-1 #
face $-1 $-1 $98 $21 $-1 $99 forward single #
loop $-1 $100 $101 $39 #
cone-surface $-1 -56.239774681724896 -10.845846585319947 6.2876009757869618 0.61566148304635926 0 -0.78801074757464917 0.39400537378732459 0 0.30783074152317963 1 I I -0.70710678118654691 0.70710678118654813 0.5 forward I I I I #
loop $-1 $-1 $102 $27 #
coedge $-1 $64 $64 $103 $104 reversed $40 $-1 #
face $-1 $105 $106 $22 $-1 $107 reversed single #
loop $-1 $-1 $108 $42 #
plane-surface $-1 -13.924698602385178 8.8465198217396797 100.06042054443014 0.78801076186113728 0 0.61566146476048833 0.61566146476048833 0 -0.78801076186113728 forward_v I I I I #
coedge $-1 $109 $110 $111 $112 reversed $43 $-1 #
face $-1 $-1 $113 $23 $-1 $114 forward single #
loop $-1 $115 $116 $45 #
cone-surface $-1 55.287794822557245 8.8465198217396797 5.2127069024879056 -0.78801076186113728 0 -0.61566146476048833 0.30783073238024417 0 -0.39400538093056864 1 I I -0.70710678118654746 0.70710678118654746 0.5 forward I I I I #
loop $-1 $-1 $117 $29 #
coedge $-1 $73 $73 $118 $119 reversed $46 $-1 #
face $-1 $120 $121 $18 $-1 $122 reversed single #
loop $-1 $-1 $123 $48 #
plane-surface $-1 0 -28.280714963241589 0 0 1 0 0 0 1 forward_v I I I I #
coedge $-1 $124 $125 $126 $127 forward $49 $-1 #
coedge $-1 $128 $51 $129 $130 forward $31 $-1 #
coedge $-1 $51 $128 $131 $132 forward $31 $-1 #
coedge $-1 $133 $134 $51 $81 reversed $135 $-1 #
edge $-1 $136 -28.280714963241589 $137 28.280714963241589 $80 $138 forward 7 unknown #
face $-1 $139 $140 $19 $-1 $141 reversed single #
loop $-1 $-1 $142 $52 #
plane-surface $-1 0 -17.004821685308926 -5.7691553696061515 0 -1 0 0 0 -1 forward_v I I I I #
coedge $-1 $143 $144 $145 $146 reversed $53 $-1 #
coedge $-1 $147 $55 $148 $149 forward $34 $-1 #
coedge $-1 $55 $147 $150 $151 reversed $34 $-1 #
coedge $-1 $152 $153 $55 $89 forward $154 $-1 #
edge $-1 $155 5.6834375231712961 $156 16.959330801103963 $88 $157 forward 7 unknown #
face $-1 $158 $159 $20 $-1 $160 reversed single #
loop $-1 $-1 $161 $56 #
plane-surface $-1 -134.31655846552695 -4.6868714853309736 100.5550819321776 0 -1 0 0.61566148304635926 0 -0.78801074757464917 forward_v I I I I #
coedge $-1 $162 $163 $164 $165 reversed $57 $-1 #
coedge $-1 $95 $59 $166 $167 reversed $37 $-1 #
coedge $-1 $59 $94 $162 $168 reversed $37 $-1 #
coedge $-1 $164 $169 $59 $97 forward $170 $-1 #
edge $-1 $171 6.9623504019275799 $172 12.460281890860514 $96 $173 forward 7 unknown #
loop $-1 $-1 $103 $60 #
plane-surface $-1 -60.195928830835896 -10.845846585319951 5.685004174302847 -0.61566148304635926 0 0.78801074757464917 0.78801074757464917 0 0.61566148304635926 forward_v I I I I #
loop $-1 $-1 $174 $39 #
coedge $-1 $101 $101 $102 $175 reversed $61 $-1 #
coedge $-1 $102 $102 $101 $175 forward $63 $-1 #
coedge $-1 $103 $103 $64 $104 forward $98 $-1 #
edge $-1 $176 0 $176 6.2831853071796004 $103 $177 forward 7 unknown #
face $-1 $178 $179 $22 $-1 $180 forward single #
loop $-1 $-1 $181 $65 #
plane-surface $-1 80.945380875466412 4.6645809134553566 174.18104797765122 0 1 0 0.78801076186113728 0 0.61566146476048833 forward_v I I I I #
coedge $-1 $182 $183 $184 $185 reversed $66 $-1 #
coedge $-1 $110 $68 $186 $187 reversed $43 $-1 #
coedge $-1 $68 $109 $182 $188 reversed $43 $-1 #
coedge $-1 $184 $189 $68 $112 forward $179 $-1 #
edge $-1 $190 -19.72323839310269 $191 -15.980788120812846 $111 $192 forward 7 unknown #
loop $-1 $-1 $118 $69 #
plane-surface $-1 -13.924698602385178 8.8465198217396797 100.06042054443014 0.78801076186113728 0 0.61566146476048833 0.61566146476048833 0 -0.78801076186113728 forward_v I I I I #
loop $-1 $-1 $193 $45 #
coedge $-1 $116 $116 $117 $194 reversed $70 $-1 #
coedge $-1 $117 $117 $116 $194 forward $72 $-1 #
coedge $-1 $118 $118 $73 $119 forward $113 $-1 #
edge $-1 $195 0 $195 6.2831853071796004 $118 $196 forward 7 unknown #
face $-1 $197 $198 $18 $-1 $199 reversed single #
loop $-1 $-1 $200 $74 #
plane-surface $-1 -60.195928830835896 0 0 1 0 0 0 0 -1 forward_v I I I I #
coedge $-1 $201 $131 $202 $203 forward $75 $-1 #
coedge $-1 $204 $77 $201 $205 forward $49 $-1 #
coedge $-1 $77 $204 $206 $207 forward $49 $-1 #
coedge $-1 $134 $133 $77 $127 reversed $135 $-1 #
edge $-1 $208 -28.280714963241589 $209 28.280714963241589 $126 $210 forward 7 unknown #
coedge $-1 $79 $78 $211 $212 forward $31 $-1 #
coedge $-1 $213 $214 $78 $130 reversed $198 $-1 #
edge $-1 $137 -60.195928830835896 $215 60.195928830835896 $129 $216 forward 7 unknown #
coedge $-1 $123 $217 $79 $132 reversed $75 $-1 #
edge $-1 $218 -60.195928830835896 $136 60.195928830835896 $131 $219 forward 7 unknown #
coedge $-1 $126 $80 $217 $220 forward $135 $-1 #
coedge $-1 $80 $126 $213 $221 reversed $135 $-1 #
loop $-1 $-1 $133 $197 #
vertex $-1 $81 $222 #
vertex $-1 $81 $223 #
straight-curve $-1 60.195928830835896 0 9.9804591088728536 0 1 0 I I #
face $-1 $224 $225 $19 $-1 $226 reversed single #
loop $-1 $-1 $227 $82 #
plane-surface $-1 -60.195928830835896 0 0 1 0 0 0 0 -1 forward_v I I I I #
coedge $-1 $228 $148 $153 $229 reversed $83 $-1 #
coedge $-1 $230 $85 $231 $232 reversed $53 $-1 #
coedge $-1 $85 $230 $228 $233 forward $53 $-1 #
coedge $-1 $153 $152 $85 $146 forward $154 $-1 #
edge $-1 $234 -16.959330801103963 $235 -5.6834375231712961 $145 $236 forward 7 unknown #
coedge $-1 $87 $86 $227 $237 reversed $34 $-1 #
coedge $-1 $142 $238 $86 $149 reversed $83 $-1 #
edge $-1 $155 -60.195928830835896 $239 60.195928830835896 $148 $240 forward 7 unknown #
coedge $-1 $241 $242 $87 $151 forward $225 $-1 #
edge $-1 $156 -60.195928830835896 $243 60.195928830835896 $150 $244 forward 7 unknown #
coedge $-1 $145 $88 $242 $245 forward $154 $-1 #
coedge $-1 $88 $145 $142 $229 forward $154 $-1 #
loop $-1 $-1 $88 $224 #
vertex $-1 $89 $246 #
vertex $-1 $245 $247 #
straight-curve $-1 60.195928830835896 -11.32138416213763 -4.2691553696061515 0 -1 0 I I #
face $-1 $-1 $170 $20 $-1 $248 forward single #
loop $-1 $-1 $249 $90 #
plane-surface $-1 -60.195928830835896 0 0 1 0 0 0 0 -1 forward_v I I I I #
coedge $-1 $250 $251 $252 $253 reversed $91 $-1 #
coedge $-1 $254 $93 $95 $168 forward $57 $-1 #
coedge $-1 $93 $254 $250 $255 forward $57 $-1 #
coedge $-1 $252 $96 $93 $165 forward $170 $-1 #
edge $-1 $172 -11.58189839264895 $256 0.73605180732900166 $164 $257 forward 7 unknown #
coedge $-1 $258 $259 $94 $167 forward $159 $-1 #
edge $-1 $260 -44.592536791785953 $171 -40.297081857215943 $166 $261 forward 7 unknown #
edge $-1 $172 -6.9769752580844182 $260 0 $95 $262 forward 7 unknown #
coedge $-1 $96 $252 $258 $263 forward $170 $-1 #
loop $-1 $-1 $252 $158 #
vertex $-1 $167 $264 #
vertex $-1 $97 $265 #
straight-curve $-1 -67.158279232763476 -17.004821685308926 9.9804591088728571 1 0 0 I I #
coedge $-1 $174 $174 $-1 $266 reversed $100 $-1 #
edge $-1 $267 0 $267 6.2831853071796004 $101 $268 forward 7 unknown #
vertex $-1 $104 $269 #
ellipse-curve $-1 -57.446963086369429 -10.845846585319947 7.832731641587853 -0.61566148304635926 0 0.78801074757464917 0.78801074757464917 0 0.61566148304635926 1 I I #
face $-1 $-1 $270 $22 $-1 $271 reversed single #
loop $-1 $-1 $111 $105 #
plane-surface $-1 0 0 9.9804591088728536 0 0 1 1 0 0 forward_v I I I I #
coedge $-1 $272 $273 $274 $275 reversed $106 $-1 #
coedge $-1 $276 $108 $110 $188 forward $66 $-1 #
coedge $-1 $108 $276 $272 $277 forward $66 $-1 #
coedge $-1 $274 $111 $108 $185 forward $179 $-1 #
edge $-1 $191 -8.6051988191541628 $278 -0.24132100258551681 $184 $279 forward 7 unknown #
coedge $-1 $280 $281 $109 $187 forward $270 $-1 #
edge $-1 $282 -81.900182922247055 $190 -77.110064879952759 $186 $283 forward 7 unknown #
edge $-1 $191 114.31311067732744 $282 120.39185766167179 $110 $284 forward 7 unknown #
coedge $-1 $111 $274 $280 $285 forward $179 $-1 #
vertex $-1 $187 $286 #
vertex $-1 $112 $287 #
straight-curve $-1 40.472690437733206 13.028458730024003 9.98045910887285 -1 0 0 I I #
coedge $-1 $193 $193 $-1 $288 reversed $115 $-1 #
edge $-1 $289 0 $289 6.2831853071796004 $116 $290 forward 7 unknown #
vertex $-1 $119 $291 #
ellipse-curve $-1 58.324703694690967 8.8465198217396797 7.5854000877257066 0.78801076186113728 0 0.61566146476048833 0.61566146476048833 0 -0.78801076186113728 1 I I #
face $-1 $-1 $135 $18 $-1 $292 reversed single #
loop $-1 $-1 $213 $120 #
plane-surface $-1 0 28.280714963241589 0 0 -1 0 0 0 -1 forward_v I I I I #
coedge $-1 $293 $211 $214 $294 forward $121 $-1 #
coedge $-1 $217 $123 $124 $205 reversed $75 $-1 #
coedge $-1 $211 $293 $123 $203 reversed $121 $-1 #
edge $-1 $218 -9.9804591088728536 $295 9.9804591088728536 $202 $296 forward 7 unknown #
coedge $-1 $125 $124 $293 $297 forward $49 $-1 #
edge $-1 $209 -60.195928830835896 $295 60.195928830835896 $201 $298 forward 7 unknown #
coedge $-1 $214 $213 $125 $207 reversed $198 $-1 #
edge $-1 $299 -60.195928830835896 $208 60.195928830835896 $206 $300 forward 7 unknown #
vertex $-1 $127 $301 #
vertex $-1 $220 $302 #
straight-curve $-1 60.195928830835896 0 -9.9804591088728536 0 -1 0 I I #
coedge $-1 $200 $202 $128 $212 reversed $121 $-1 #
edge $-1 $215 -28.280714963241589 $218 28.280714963241589 $211 $303 forward 7 unknown #
coedge $-1 $206 $129 $134 $221 forward $198 $-1 #
coedge $-1 $129 $206 $200 $294 reversed $198 $-1 #
vertex $-1 $130 $304 #
straight-curve $-1 0 28.280714963241589 9.9804591088728536 -1 0 0 I I #
coedge $-1 $131 $201 $133 $220 reversed $75 $-1 #
vertex $-1 $212 $305 #
straight-curve $-1 0 -28.280714963241589 9.9804591088728536 1 0 0 I I #
edge $-1 $136 -9.9804591088728536 $209 9.9804591088728536 $133 $306 forward 7 unknown #
edge $-1 $137 -9.9804591088728536 $208 9.9804591088728536 $134 $307 forward 7 unknown #
point $-1 60.195928830835896 -28.280714963241589 9.9804591088728536 #
point $-1 60.195928830835896 28.280714963241589 9.9804591088728536 #
face $-1 $-1 $154 $19 $-1 $308 reversed single #
loop $-1 $-1 $150 $139 #
plane-surface $-1 0 -28.280714963241589 0 0 1 0 0 0 1 forward_v I I I I #
coedge $-1 $309 $310 $147 $237 forward $140 $-1 #
coedge $-1 $238 $142 $144 $233 reversed $83 $-1 #
edge $-1 $235 -4.3845776848030757 $155 -1.3845776848030757 $153 $311 forward 7 unknown #
coedge $-1 $144 $143 $312 $313 reversed $53 $-1 #
coedge $-1 $242 $241 $143 $232 forward $225 $-1 #
edge $-1 $314 -60.195928830835896 $234 60.195928830835896 $231 $315 forward 7 unknown #
edge $-1 $316 -60.195928830835896 $235 60.195928830835896 $228 $317 forward 7 unknown #
vertex $-1 $232 $318 #
vertex $-1 $146 $319 #
straight-curve $-1 60.195928830835896 -11.32138416213763 -7.2691553696061515 0 1 0 I I #
edge $-1 $243 -16.959330801103963 $239 -5.6834375231712961 $227 $320 forward 7 unknown #
coedge $-1 $148 $228 $309 $321 reversed $83 $-1 #
vertex $-1 $237 $322 #
straight-curve $-1 0 -17.004821685308926 -4.2691553696061515 -1 0 0 I I #
coedge $-1 $231 $150 $310 $323 forward $225 $-1 #
coedge $-1 $150 $231 $152 $245 reversed $225 $-1 #
vertex $-1 $323 $324 #
straight-curve $-1 0 -28.280714963241589 -4.2691553696061515 -1 0 0 I I #
edge $-1 $156 4.2691553696061515 $234 7.2691553696061515 $152 $325 forward 7 unknown #
point $-1 60.195928830835896 -17.004821685308926 -4.2691553696061515 #
point $-1 60.195928830835896 -28.280714963241593 -4.2691553696061515 #
plane-surface $-1 0 0 9.9804591088728536 0 0 1 1 0 0 forward_v I I I I #
coedge $-1 $259 $258 $251 $326 forward $159 $-1 #
coedge $-1 $251 $161 $163 $255 reversed $91 $-1 #
coedge $-1 $161 $250 $249 $326 reversed $91 $-1 #
coedge $-1 $169 $164 $161 $253 forward $170 $-1 #
edge $-1 $256 -12.460281890860514 $327 -6.9623504019275799 $252 $328 forward 7 unknown #
coedge $-1 $163 $162 $259 $329 reversed $57 $-1 #
edge $-1 $330 0 $256 6.9769752580844182 $250 $331 forward 7 unknown #
vertex $-1 $165 $332 #
straight-curve $-1 -54.697997341902962 -5.4229232926599753 9.9804591088728518 0 1 0 I I #
coedge $-1 $249 $166 $169 $263 reversed $159 $-1 #
coedge $-1 $166 $249 $254 $329 forward $159 $-1 #
vertex $-1 $167 $333 #
straight-curve $-1 -60.195928830835896 -17.004821685308926 50.2775409660888 0 0 1 I I #
straight-curve $-1 -60.195928830835896 -17.004821685308926 5.685004174302847 -0.78801074757464917 0 -0.61566148304635926 I I #
edge $-1 $327 4.6868714853309736 $171 17.004821685308926 $258 $334 forward 7 unknown #
point $-1 -60.195928830835896 -17.004821685308926 9.9804591088728536 #
point $-1 -54.697997341902962 -17.004821685308926 9.9804591088728536 #
edge $-1 $335 1 $335 0 $174 $-1 forward 7 unknown #
vertex $-1 $175 $336 #
ellipse-curve $-1 -56.547605423248079 -10.845846585319947 6.6816063495742872 -0.61566148304635926 0 0.78801074757464917 0.78801074757464917 0 0.61566148304635926 1 I I #
point $-1 -56.658952338794769 -10.845846585319947 8.448393124634201 #
loop $-1 $-1 $186 $178 #
plane-surface $-1 60.195928830835896 0 0 -1 0 0 0 0 1 forward_v I I I I #
coedge $-1 $273 $181 $183 $277 reversed $106 $-1 #
coedge $-1 $181 $272 $337 $338 reversed $106 $-1 #
coedge $-1 $189 $184 $181 $275 forward $179 $-1 #
edge $-1 $278 15.980788120812846 $339 19.72323839310269 $274 $340 forward 7 unknown #
coedge $-1 $183 $182 $281 $341 reversed $66 $-1 #
edge $-1 $342 -120.39185766167179 $278 -114.31311067732744 $272 $343 forward 7 unknown #
vertex $-1 $185 $344 #
straight-curve $-1 56.453478558546045 4.4232599108698398 9.98045910887285 0 -1 0 I I #
coedge $-1 $337 $186 $189 $285 reversed $270 $-1 #
coedge $-1 $186 $337 $276 $341 forward $270 $-1 #
vertex $-1 $187 $345 #
straight-curve $-1 60.195928830835896 13.028458730024003 87.090523988825609 0 0 1 I I #
straight-curve $-1 -13.924698602385178 13.028458730024003 100.06042054443014 0.61566146476048833 0 -0.78801076186113728 I I #
edge $-1 $339 4.6645809134553566 $190 13.028458730024003 $280 $346 forward 7 unknown #
point $-1 60.195928830835896 13.028458730024003 9.9804591088728536 #
point $-1 56.453478558546053 13.028458730024003 9.98045910887285 #
edge $-1 $347 1 $347 0 $193 $-1 forward 7 unknown #
vertex $-1 $194 $348 #
ellipse-curve $-1 55.681800203487811 8.8465198217396797 5.5205376348681501 0.78801076186113728 0 0.61566146476048833 0.61566146476048833 0 -0.78801076186113728 1 I I #
point $-1 58.940365159451446 8.8465198217396797 6.7973893258645646 #
plane-surface $-1 60.195928830835896 0 0 -1 0 0 0 0 1 forward_v I I I I #
coedge $-1 $202 $200 $204 $297 reversed $121 $-1 #
edge $-1 $215 -9.9804591088728536 $299 9.9804591088728536 $214 $349 forward 7 unknown #
vertex $-1 $297 $350 #
straight-curve $-1 -60.195928830835896 -28.280714963241589 0 0 0 -1 I I #
edge $-1 $295 -28.280714963241589 $299 28.280714963241589 $293 $351 forward 7 unknown #
straight-curve $-1 0 -28.280714963241589 -9.9804591088728536 -1 0 0 I I #
vertex $-1 $207 $352 #
straight-curve $-1 0 28.280714963241589 -9.9804591088728536 1 0 0 I I #
point $-1 60.195928830835896 28.280714963241589 -9.9804591088728536 #
point $-1 60.195928830835896 -28.280714963241589 -9.9804591088728536 #
straight-curve $-1 -60.195928830835896 0 9.9804591088728536 0 -1 0 I I #
point $-1 -60.195928830835896 28.280714963241589 9.9804591088728536 #
point $-1 -60.195928830835896 -28.280714963241589 9.9804591088728536 #
straight-curve $-1 60.195928830835896 -28.280714963241589 0 0 0 -1 I I #
straight-curve $-1 60.195928830835896 28.280714963241589 0 0 0 -1 I I #
plane-surface $-1 60.195928830835896 0 0 -1 0 0 0 0 1 forward_v I I I I #
coedge $-1 $312 $227 $238 $321 forward $140 $-1 #
coedge $-1 $227 $312 $241 $323 reversed $140 $-1 #
straight-curve $-1 60.195928830835896 -17.004821685308926 -2.8845776848030757 0 0 1 I I #
coedge $-1 $310 $309 $230 $313 forward $140 $-1 #
edge $-1 $316 5.6834375231712961 $314 16.959330801103963 $312 $353 forward 7 unknown #
vertex $-1 $232 $354 #
straight-curve $-1 0 -28.280714963241589 -7.2691553696061515 1 0 0 I I #
vertex $-1 $313 $355 #
straight-curve $-1 0 -17.004821685308926 -7.2691553696061515 1 0 0 I I #
point $-1 60.195928830835896 -28.280714963241593 -7.2691553696061515 #
point $-1 60.195928830835896 -17.004821685308926 -7.2691553696061515 #
straight-curve $-1 -60.195928830835896 -11.32138416213763 -4.2691553696061515 0 1 0 I I #
edge $-1 $239 1.3845776848030757 $316 4.3845776848030757 $309 $356 forward 7 unknown #
point $-1 -60.195928830835896 -17.004821685308926 -4.2691553696061515 #
edge $-1 $243 4.2691553696061515 $314 7.2691553696061515 $310 $357 forward 7 unknown #
point $-1 -60.195928830835896 -28.280714963241593 -4.2691553696061515 #
straight-curve $-1 60.195928830835896 -28.280714963241589 0 0 0 -1 I I #
edge $-1 $327 40.297081857215943 $330 44.592536791785953 $249 $358 forward 7 unknown #
vertex $-1 $263 $359 #
straight-curve $-1 -67.158279232763476 -4.6868714853309736 9.9804591088728571 -1 0 0 I I #
edge $-1 $330 -0.73605180732900166 $260 11.58189839264895 $259 $360 forward 7 unknown #
vertex $-1 $329 $361 #
straight-curve $-1 -60.195928830835896 -4.6868714853309736 5.685004174302847 0.78801074757464917 0 0.61566148304635926 I I #
point $-1 -54.697997341902962 -4.6868714853309736 9.9804591088728536 #
point $-1 -60.195928830835896 -17.004821685308926 5.685004174302847 #
straight-curve $-1 -60.195928830835896 0 9.9804591088728536 0 -1 0 I I #
vertex $-1 $266 $362 #
point $-1 -55.759594675673426 -10.845846585319947 7.2972678326206459 #
coedge $-1 $281 $280 $273 $338 forward $270 $-1 #
edge $-1 $339 77.110064879952759 $342 81.900182922247055 $337 $363 forward 7 unknown #
vertex $-1 $285 $364 #
straight-curve $-1 40.472690437733206 4.6645809134553566 9.98045910887285 1 0 0 I I #
edge $-1 $342 0.24132100258551681 $282 8.6051988191541628 $281 $365 forward 7 unknown #
vertex $-1 $341 $366 #
straight-curve $-1 -13.924698602385178 4.6645809134553566 100.06042054443014 -0.61566146476048833 0 0.78801076186113728 I I #
point $-1 56.453478558546053 4.6645809134553566 9.98045910887285 #
point $-1 60.195928830835896 13.028458730024003 5.1903410665785543 #
straight-curve $-1 60.195928830835896 0 9.9804591088728536 0 1 0 I I #
vertex $-1 $288 $367 #
point $-1 56.297461668248303 8.8465198217396797 4.7325268730070125 #
straight-curve $-1 -60.195928830835896 28.280714963241589 0 0 0 -1 I I #
point $-1 -60.195928830835896 -28.280714963241589 -9.9804591088728536 #
straight-curve $-1 -60.195928830835896 0 -9.9804591088728536 0 1 0 I I #
point $-1 -60.195928830835896 28.280714963241589 -9.9804591088728536 #
straight-curve $-1 -60.195928830835896 -11.32138416213763 -7.2691553696061515 0 -1 0 I I #
point $-1 -60.195928830835896 -28.280714963241593 -7.2691553696061515 #
point $-1 -60.195928830835896 -17.004821685308926 -7.2691553696061515 #
straight-curve $-1 -60.195928830835896 -17.004821685308926 -2.8845776848030757 0 0 -1 I I #
straight-curve $-1 -60.195928830835896 -28.280714963241589 0 0 0 -1 I I #
straight-curve $-1 -60.195928830835896 -4.6868714853309736 50.2775409660888 0 0 -1 I I #
point $-1 -60.195928830835896 -4.6868714853309736 9.9804591088728536 #
straight-curve $-1 -60.195928830835896 -5.4229232926599753 5.6850041743028479 0 -1 0 I I #
point $-1 -60.195928830835896 -4.6868714853309736 5.685004174302847 #
point $-1 -55.931943940201712 -10.845846585319947 5.8935956019996363 #
straight-curve $-1 60.195928830835896 4.6645809134553566 87.090523988825609 0 0 -1 I I #
point $-1 60.195928830835896 4.6645809134553566 9.9804591088728536 #
straight-curve $-1 60.195928830835896 4.4232599108698398 5.1903410665785472 0 1 0 I I #
point $-1 60.195928830835896 4.6645809134553566 5.1903410665785543 #
point $-1 54.89378944162668 8.8465198217396797 4.9048761701076611 #
End-of-ACIS-data 