500 0 5 0           
7 Unknown 11 ACIS 5.0 NT 24 Thu Mar 25 19:18:02 1999 
-1 9.9999999999999995e-007 1e-010 
body $-1 $5 $-1 $6 #
body $-1 $7 $-1 $8 #
body $-1 $9 $-1 $10 #
body $-1 $11 $-1 $12 #
body $-1 $13 $-1 $14 #
lump $-1 $-1 $15 $0 #
transform $-1 1 0 0 0 1 0 0 0 1 58.307443464461194 26.656254863052116 11.036716161871867 1 rotate no_reflect no_shear #
lump $-1 $-1 $16 $1 #
transform $-1 1 0 0 0 1 0 0 0 1 58.307443464461194 26.656254863052116 11.036716161871867 1 rotate no_reflect no_shear #
lump $-1 $-1 $17 $2 #
transform $-1 1 0 0 0 1 0 0 0 1 58.307443464461194 26.656254863052116 11.036716161871867 1 rotate no_reflect no_shear #
lump $-1 $-1 $18 $3 #
transform $-1 1 0 0 0 1 0 0 0 1 58.307443464461194 26.656254863052116 11.036716161871867 1 rotate no_reflect no_shear #
lump $-1 $-1 $19 $4 #
transform $-1 1 0 0 0 1 0 0 0 1 58.307443464461194 26.656254863052116 11.036716161871867 1 rotate no_reflect no_shear #
shell $-1 $-1 $-1 $20 $-1 $5 #
shell $-1 $-1 $-1 $21 $-1 $7 #
shell $-1 $-1 $-1 $22 $-1 $9 #
shell $-1 $-1 $-1 $23 $-1 $11 #
shell $-1 $-1 $-1 $24 $-1 $13 #
face $-1 $25 $26 $15 $-1 $27 forward single #
face $-1 $28 $29 $16 $-1 $30 reversed single #
face $-1 $31 $32 $17 $-1 $33 reversed single #
face $-1 $34 $35 $18 $-1 $36 forward single #
face $-1 $37 $38 $19 $-1 $39 forward single #
face $-1 $40 $41 $15 $-1 $42 reversed single #
loop $-1 $-1 $43 $20 #
plane-surface $-1 0 0 11.036716161871867 0 0 1 1 0 0 forward_v I I I I #
face $-1 $44 $45 $16 $-1 $46 reversed single #
loop $-1 $-1 $47 $21 #
plane-surface $-1 0 -19.732710312368312 6.4955859199336725 0 0 1 1 0 0 forward_v I I I I #
face $-1 $48 $49 $17 $-1 $50 reversed single #
loop $-1 $-1 $51 $22 #
plane-surface $-1 -157.20247723215991 2.1919478733841338 65.34232172732716 0 1 0 -0.84804810408105047 0 0.52991925155115449 forward_v I I I I #
face $-1 $52 $53 $18 $-1 $54 forward single #
loop $-1 $55 $56 $23 #
cone-surface $-1 -54.193717483460105 5.1940782879759197 6.1831894044663658 0.84804810408105047 0 -0.52991925155115449 0.79487887732673168 0 1.2720721561215758 1 I I 0 1 1.5 forward I I I I #
face $-1 $57 $58 $19 $-1 $59 forward single #
loop $-1 $60 $61 $24 #
cone-surface $-1 -54.193717483460105 9.6972739098636005 6.1831894044663658 0.84804810408105047 0 -0.52991925155115449 0.79487887732673168 0 1.2720721561215758 1 I I 0 1 1.5 forward I I I I #
face $-1 $62 $63 $15 $-1 $64 reversed single #
loop $-1 $-1 $65 $25 #
plane-surface $-1 0 0 -11.036716161871867 0 0 1 1 0 0 forward_v I I I I #
coedge $-1 $66 $67 $68 $69 forward $26 $-1 #
face $-1 $70 $71 $16 $-1 $72 reversed single #
loop $-1 $-1 $73 $28 #
plane-surface $-1 0 -12.809165761684509 8.7661510409027716 0 -1 0 0 0 -1 forward_v I I I I #
coedge $-1 $74 $75 $76 $77 reversed $29 $-1 #
face $-1 $78 $79 $17 $-1 $80 reversed single #
loop $-1 $-1 $81 $31 #
plane-surface $-1 -58.307443464461201 7.4456760989197583 3.5458481262300978 -0.84804810408105047 0 0.52991925155115449 0.52991925155115449 0 0.84804810408105047 forward_v I I I I #
coedge $-1 $82 $83 $84 $85 reversed $32 $-1 #
face $-1 $-1 $86 $18 $-1 $87 forward single #
loop $-1 $88 $89 $34 #
cone-surface $-1 -51.784362273852352 5.1940782879759197 4.6776572262183844 0.84804810408105047 0 -0.52991925155115449 0.39743943866336584 0 0.63603607806078788 1 I I -0.70710678118654757 0.70710678118654757 0.75 forward I I I I #
loop $-1 $-1 $90 $23 #
coedge $-1 $56 $56 $91 $92 reversed $35 $-1 #
face $-1 $-1 $93 $19 $-1 $94 forward single #
loop $-1 $95 $96 $37 #
cone-surface $-1 -51.784362273852352 9.6972739098636005 4.6776572262183844 0.84804810408105047 0 -0.52991925155115449 0.39743943866336584 0 0.63603607806078788 1 I I -0.70710678118654757 0.70710678118654757 0.75 forward I I I I #
loop $-1 $-1 $97 $24 #
coedge $-1 $61 $61 $98 $99 reversed $38 $-1 #
face $-1 $100 $101 $15 $-1 $102 reversed single #
loop $-1 $-1 $103 $40 #
plane-surface $-1 0 -26.656254863052116 0 0 1 0 0 0 1 forward_v I I I I #
coedge $-1 $104 $105 $106 $107 forward $41 $-1 #
coedge $-1 $108 $43 $109 $110 forward $26 $-1 #
coedge $-1 $43 $108 $111 $112 forward $26 $-1 #
coedge $-1 $113 $114 $43 $69 reversed $115 $-1 #
edge $-1 $116 -26.656254863052116 $117 26.656254863052116 $68 $118 forward 7 unknown #
face $-1 $119 $120 $16 $-1 $121 reversed single #
loop $-1 $-1 $122 $44 #
plane-surface $-1 -58.307443464461194 0 0 1 0 0 0 0 -1 forward_v I I I I #
coedge $-1 $123 $124 $125 $126 reversed $45 $-1 #
coedge $-1 $127 $47 $128 $129 reversed $29 $-1 #
coedge $-1 $47 $127 $123 $130 forward $29 $-1 #
coedge $-1 $125 $131 $47 $77 forward $132 $-1 #
edge $-1 $133 -16.789899706867956 $134 -2.9428106055003536 $76 $135 forward 7 unknown #
face $-1 $136 $137 $17 $-1 $138 forward single #
loop $-1 $-1 $139 $48 #
plane-surface $-1 -157.20247723215991 12.699404324455383 65.34232172732716 0 -1 0 0.84804810408105047 0 -0.52991925155115449 forward_v I I I I #
coedge $-1 $140 $141 $142 $143 reversed $49 $-1 #
coedge $-1 $83 $51 $144 $145 reversed $32 $-1 #
coedge $-1 $51 $82 $140 $146 reversed $32 $-1 #
coedge $-1 $142 $147 $51 $85 forward $137 $-1 #
edge $-1 $148 20.29379515161876 $149 24.974608850527005 $84 $150 forward 7 unknown #
loop $-1 $-1 $91 $52 #
plane-surface $-1 -58.307443464461201 7.4456760989197583 3.5458481262300978 -0.84804810408105047 0 0.52991925155115449 0.52991925155115449 0 0.84804810408105047 forward_v I I I I #
loop $-1 $-1 $151 $34 #
coedge $-1 $89 $89 $90 $152 reversed $53 $-1 #
coedge $-1 $90 $90 $89 $152 forward $55 $-1 #
coedge $-1 $91 $91 $56 $92 forward $86 $-1 #
edge $-1 $153 0 $153 6.2831853071796004 $91 $154 forward 7 unknown #
loop $-1 $-1 $98 $57 #
plane-surface $-1 -58.307443464461201 7.4456760989197583 3.5458481262300978 -0.84804810408105047 0 0.52991925155115449 0.52991925155115449 0 0.84804810408105047 forward_v I I I I #
loop $-1 $-1 $155 $37 #
coedge $-1 $96 $96 $97 $156 reversed $58 $-1 #
coedge $-1 $97 $97 $96 $156 forward $60 $-1 #
coedge $-1 $98 $98 $61 $99 forward $93 $-1 #
edge $-1 $157 0 $157 6.2831853071796004 $98 $158 forward 7 unknown #
face $-1 $159 $160 $15 $-1 $161 reversed single #
loop $-1 $-1 $162 $62 #
plane-surface $-1 -58.307443464461194 0 0 1 0 0 0 0 -1 forward_v I I I I #
coedge $-1 $163 $111 $164 $165 forward $63 $-1 #
coedge $-1 $166 $65 $163 $167 forward $41 $-1 #
coedge $-1 $65 $166 $168 $169 forward $41 $-1 #
coedge $-1 $114 $113 $65 $107 reversed $115 $-1 #
edge $-1 $170 -26.656254863052116 $171 26.656254863052116 $106 $172 forward 7 unknown #
coedge $-1 $67 $66 $173 $174 forward $26 $-1 #
coedge $-1 $175 $176 $66 $110 reversed $160 $-1 #
edge $-1 $117 -58.307443464461194 $177 58.307443464461194 $109 $178 forward 7 unknown #
coedge $-1 $103 $179 $67 $112 reversed $63 $-1 #
edge $-1 $180 -58.307443464461194 $116 58.307443464461194 $111 $181 forward 7 unknown #
coedge $-1 $106 $68 $179 $182 forward $115 $-1 #
coedge $-1 $68 $106 $175 $183 reversed $115 $-1 #
loop $-1 $-1 $113 $159 #
vertex $-1 $69 $184 #
vertex $-1 $69 $185 #
straight-curve $-1 58.307443464461194 0 11.036716161871867 0 1 0 I I #
face $-1 $186 $187 $16 $-1 $188 forward single #
loop $-1 $-1 $128 $70 #
plane-surface $-1 0 -26.656254863052116 0 0 1 0 0 0 1 forward_v I I I I #
coedge $-1 $189 $190 $191 $192 forward $71 $-1 #
coedge $-1 $191 $73 $75 $130 reversed $45 $-1 #
coedge $-1 $73 $191 $193 $194 reversed $45 $-1 #
coedge $-1 $195 $76 $73 $126 forward $132 $-1 #
edge $-1 $134 2.1125103994822867 $196 6.6536406414204849 $125 $197 forward 7 unknown #
coedge $-1 $75 $74 $189 $198 reversed $29 $-1 #
coedge $-1 $199 $200 $74 $129 forward $120 $-1 #
edge $-1 $201 -58.307443464461194 $133 58.307443464461194 $128 $202 forward 7 unknown #
edge $-1 $203 -58.307443464461194 $134 58.307443464461194 $123 $204 forward 7 unknown #
coedge $-1 $76 $195 $199 $205 forward $132 $-1 #
loop $-1 $-1 $125 $186 #
vertex $-1 $129 $206 #
vertex $-1 $77 $207 #
straight-curve $-1 58.307443464461194 -9.8663551561841558 6.4955859199336725 0 1 0 I I #
face $-1 $-1 $208 $17 $-1 $209 reversed single #
loop $-1 $-1 $84 $78 #
plane-surface $-1 0 0 11.036716161871867 0 0 1 1 0 0 forward_v I I I I #
coedge $-1 $210 $211 $212 $213 reversed $79 $-1 #
coedge $-1 $214 $81 $83 $146 forward $49 $-1 #
coedge $-1 $81 $214 $210 $215 forward $49 $-1 #
coedge $-1 $212 $84 $81 $143 forward $137 $-1 #
edge $-1 $149 -1.5308901760757454 $216 8.9765662749955037 $142 $217 forward 7 unknown #
coedge $-1 $218 $219 $82 $145 forward $208 $-1 #
edge $-1 $220 -29.125312737433472 $148 -21.634444701791715 $144 $221 forward 7 unknown #
edge $-1 $149 -8.8330697275231991 $220 -1.3557137071152151e-014 $83 $222 forward 7 unknown #
coedge $-1 $84 $212 $218 $223 forward $137 $-1 #
vertex $-1 $145 $224 #
vertex $-1 $85 $225 #
straight-curve $-1 -78.601238616079954 2.1919478733841338 11.036716161871865 1 0 0 I I #
coedge $-1 $151 $151 $-1 $226 reversed $88 $-1 #
edge $-1 $227 0 $227 6.2831853071796004 $89 $228 forward 7 unknown #
vertex $-1 $92 $229 #
ellipse-curve $-1 -55.967036615007075 5.1940782879759197 7.2912821440509843 -0.84804810408105047 0 0.52991925155115449 0.79487887732673168 0 1.2720721561215758 1 I I #
coedge $-1 $155 $155 $-1 $230 reversed $95 $-1 #
edge $-1 $231 0 $231 6.2831853071796004 $96 $232 forward 7 unknown #
vertex $-1 $99 $233 #
ellipse-curve $-1 -55.967036615007075 9.6972739098636005 7.2912821440509843 -0.84804810408105047 0 0.52991925155115449 0.79487887732673168 0 1.2720721561215758 1 I I #
face $-1 $-1 $115 $15 $-1 $234 reversed single #
loop $-1 $-1 $175 $100 #
plane-surface $-1 0 26.656254863052116 0 0 -1 0 0 0 -1 forward_v I I I I #
coedge $-1 $235 $173 $176 $236 forward $101 $-1 #
coedge $-1 $179 $103 $104 $167 reversed $63 $-1 #
coedge $-1 $173 $235 $103 $165 reversed $101 $-1 #
edge $-1 $180 -11.036716161871867 $237 11.036716161871867 $164 $238 forward 7 unknown #
coedge $-1 $105 $104 $235 $239 forward $41 $-1 #
edge $-1 $171 -58.307443464461194 $237 58.307443464461194 $163 $240 forward 7 unknown #
coedge $-1 $176 $175 $105 $169 reversed $160 $-1 #
edge $-1 $241 -58.307443464461194 $170 58.307443464461194 $168 $242 forward 7 unknown #
vertex $-1 $107 $243 #
vertex $-1 $182 $244 #
straight-curve $-1 58.307443464461194 0 -11.036716161871867 0 -1 0 I I #
coedge $-1 $162 $164 $108 $174 reversed $101 $-1 #
edge $-1 $177 -26.656254863052116 $180 26.656254863052116 $173 $245 forward 7 unknown #
coedge $-1 $168 $109 $114 $183 forward $160 $-1 #
coedge $-1 $109 $168 $162 $236 reversed $160 $-1 #
vertex $-1 $110 $246 #
straight-curve $-1 0 26.656254863052116 11.036716161871867 -1 0 0 I I #
coedge $-1 $111 $163 $113 $182 reversed $63 $-1 #
vertex $-1 $174 $247 #
straight-curve $-1 0 -26.656254863052116 11.036716161871867 1 0 0 I I #
edge $-1 $116 -11.036716161871867 $171 11.036716161871867 $113 $248 forward 7 unknown #
edge $-1 $117 -11.036716161871867 $170 11.036716161871867 $114 $249 forward 7 unknown #
point $-1 58.307443464461194 -26.656254863052116 11.036716161871867 #
point $-1 58.307443464461194 26.656254863052116 11.036716161871867 #
face $-1 $-1 $132 $16 $-1 $250 reversed single #
loop $-1 $-1 $193 $119 #
plane-surface $-1 0 0 11.036716161871867 0 0 1 1 0 0 forward_v I I I I #
coedge $-1 $251 $122 $127 $198 forward $71 $-1 #
coedge $-1 $122 $251 $252 $253 reversed $71 $-1 #
coedge $-1 $124 $123 $122 $192 reversed $45 $-1 #
edge $-1 $254 -6.6536406414204849 $203 -2.1125103994822867 $122 $255 forward 7 unknown #
coedge $-1 $252 $256 $124 $194 forward $187 $-1 #
edge $-1 $196 -58.307443464461194 $254 58.307443464461194 $193 $257 forward 7 unknown #
coedge $-1 $131 $125 $256 $258 reversed $132 $-1 #
vertex $-1 $126 $259 #
straight-curve $-1 58.307443464461194 -12.809165761684509 4.3830755204513858 0 0 1 I I #
edge $-1 $203 2.9428106055003536 $201 16.789899706867956 $189 $260 forward 7 unknown #
coedge $-1 $261 $128 $131 $205 reversed $120 $-1 #
coedge $-1 $128 $261 $251 $262 forward $120 $-1 #
vertex $-1 $129 $263 #
straight-curve $-1 0 -26.656254863052116 6.4955859199336725 1 0 0 I I #
vertex $-1 $198 $264 #
straight-curve $-1 0 -12.809165761684509 6.4955859199336725 1 0 0 I I #
edge $-1 $265 -11.036716161871867 $133 -6.4955859199336725 $131 $266 forward 7 unknown #
point $-1 58.307443464461194 -26.656254863052112 6.4955859199336725 #
point $-1 58.307443464461194 -12.809165761684509 6.4955859199336725 #
loop $-1 $-1 $144 $136 #
plane-surface $-1 -58.307443464461194 0 0 1 0 0 0 0 -1 forward_v I I I I #
coedge $-1 $211 $139 $141 $215 reversed $79 $-1 #
coedge $-1 $139 $210 $267 $268 reversed $79 $-1 #
coedge $-1 $147 $142 $139 $213 forward $137 $-1 #
edge $-1 $216 -24.974608850527005 $269 -20.29379515161876 $212 $270 forward 7 unknown #
coedge $-1 $141 $140 $219 $271 reversed $49 $-1 #
edge $-1 $272 1.3557137071152151e-014 $216 8.8330697275231991 $210 $273 forward 7 unknown #
vertex $-1 $143 $274 #
straight-curve $-1 -53.626629765552948 3.7228380494598792 11.036716161871867 0 1 0 I I #
coedge $-1 $267 $144 $147 $223 reversed $208 $-1 #
coedge $-1 $144 $267 $214 $271 forward $208 $-1 #
vertex $-1 $145 $275 #
straight-curve $-1 -58.307443464461194 2.1919478733841338 32.67116086366358 0 0 1 I I #
straight-curve $-1 -58.307443464461201 2.1919478733841338 3.5458481262300978 -0.52991925155115449 0 -0.84804810408105047 I I #
edge $-1 $269 -12.699404324455383 $148 -2.1919478733841338 $218 $276 forward 7 unknown #
point $-1 -58.307443464461194 2.1919478733841338 11.036716161871867 #
point $-1 -53.626629765552948 2.1919478733841338 11.036716161871869 #
edge $-1 $277 1 $277 0 $151 $-1 forward 7 unknown #
vertex $-1 $152 $278 #
ellipse-curve $-1 -52.420398351913143 5.1940782879759197 5.0750966648817499 -0.84804810408105047 0 0.52991925155115449 0.79487887732673168 0 1.2720721561215758 1 I I #
point $-1 -55.172157737680337 5.1940782879759197 8.5633543001725574 #
edge $-1 $279 1 $279 0 $155 $-1 forward 7 unknown #
vertex $-1 $156 $280 #
ellipse-curve $-1 -52.420398351913143 9.6972739098636005 5.0750966648817499 -0.84804810408105047 0 0.52991925155115449 0.79487887732673168 0 1.2720721561215758 1 I I #
point $-1 -55.172157737680337 9.6972739098636005 8.5633543001725574 #
plane-surface $-1 58.307443464461194 0 0 -1 0 0 0 0 1 forward_v I I I I #
coedge $-1 $164 $162 $166 $239 reversed $101 $-1 #
edge $-1 $177 -11.036716161871867 $241 11.036716161871867 $176 $281 forward 7 unknown #
vertex $-1 $239 $282 #
straight-curve $-1 -58.307443464461194 -26.656254863052116 0 0 0 -1 I I #
edge $-1 $237 -26.656254863052116 $241 26.656254863052116 $235 $283 forward 7 unknown #
straight-curve $-1 0 -26.656254863052116 -11.036716161871867 -1 0 0 I I #
vertex $-1 $169 $284 #
straight-curve $-1 0 26.656254863052116 -11.036716161871867 1 0 0 I I #
point $-1 58.307443464461194 26.656254863052116 -11.036716161871867 #
point $-1 58.307443464461194 -26.656254863052116 -11.036716161871867 #
straight-curve $-1 -58.307443464461194 0 11.036716161871867 0 -1 0 I I #
point $-1 -58.307443464461194 26.656254863052116 11.036716161871867 #
point $-1 -58.307443464461194 -26.656254863052116 11.036716161871867 #
straight-curve $-1 58.307443464461194 -26.656254863052116 0 0 0 -1 I I #
straight-curve $-1 58.307443464461194 26.656254863052116 0 0 0 -1 I I #
plane-surface $-1 58.307443464461194 0 0 -1 0 0 0 0 1 forward_v I I I I #
coedge $-1 $190 $189 $200 $262 reversed $71 $-1 #
coedge $-1 $285 $193 $190 $253 forward $187 $-1 #
edge $-1 $254 12.809165761684509 $286 26.656254863052116 $190 $287 forward 7 unknown #
vertex $-1 $253 $288 #
straight-curve $-1 -58.307443464461194 -12.809165761684509 4.3830755204513858 0 0 -1 I I #
coedge $-1 $193 $285 $195 $258 forward $187 $-1 #
straight-curve $-1 0 -12.809165761684509 11.036716161871867 -1 0 0 I I #
edge $-1 $265 -26.656254863052116 $196 -12.809165761684509 $195 $289 forward 7 unknown #
point $-1 58.307443464461194 -12.809165761684509 11.036716161871871 #
straight-curve $-1 -58.307443464461194 -9.8663551561841558 6.4955859199336725 0 -1 0 I I #
coedge $-1 $200 $199 $285 $290 reversed $120 $-1 #
edge $-1 $286 -11.036716161871867 $201 -6.4955859199336725 $251 $291 forward 7 unknown #
point $-1 -58.307443464461194 -26.656254863052112 6.4955859199336725 #
point $-1 -58.307443464461194 -12.809165761684509 6.4955859199336725 #
vertex $-1 $258 $292 #
straight-curve $-1 58.307443464461194 -26.656254863052116 0 0 0 -1 I I #
coedge $-1 $219 $218 $211 $268 forward $208 $-1 #
edge $-1 $269 21.634444701791715 $272 29.125312737433472 $267 $293 forward 7 unknown #
vertex $-1 $223 $294 #
straight-curve $-1 -78.601238616079954 12.699404324455383 11.036716161871865 -1 0 0 I I #
edge $-1 $272 -8.9765662749955037 $220 1.5308901760757454 $219 $295 forward 7 unknown #
vertex $-1 $271 $296 #
straight-curve $-1 -58.307443464461201 12.699404324455383 3.5458481262300978 0.52991925155115449 0 0.84804810408105047 I I #
point $-1 -53.626629765552948 12.699404324455383 11.036716161871869 #
point $-1 -58.307443464461194 2.1919478733841338 3.5458481262301094 #
straight-curve $-1 -58.307443464461194 0 11.036716161871867 0 -1 0 I I #
vertex $-1 $226 $297 #
point $-1 -51.625519474586412 5.1940782879759197 6.3471688210033257 #
vertex $-1 $230 $298 #
point $-1 -51.625519474586412 9.6972739098636005 6.3471688210033257 #
straight-curve $-1 -58.307443464461194 26.656254863052116 0 0 0 -1 I I #
point $-1 -58.307443464461194 -26.656254863052116 -11.036716161871867 #
straight-curve $-1 -58.307443464461194 0 -11.036716161871867 0 1 0 I I #
point $-1 -58.307443464461194 26.656254863052116 -11.036716161871867 #
coedge $-1 $256 $252 $261 $290 forward $187 $-1 #
vertex $-1 $253 $299 #
straight-curve $-1 -58.307443464461194 0 11.036716161871867 0 -1 0 I I #
point $-1 -58.307443464461194 -12.809165761684509 11.036716161871871 #
straight-curve $-1 58.307443464461194 0 11.036716161871867 0 1 0 I I #
edge $-1 $286 -58.307443464461194 $265 58.307443464461194 $261 $300 forward 7 unknown #
straight-curve $-1 -58.307443464461194 -26.656254863052116 0 0 0 -1 I I #
point $-1 58.307443464461194 -26.656254863052116 11.036716161871867 #
straight-curve $-1 -58.307443464461194 12.699404324455383 32.67116086366358 0 0 -1 I I #
point $-1 -58.307443464461194 12.699404324455383 11.036716161871867 #
straight-curve $-1 -58.307443464461194 3.7228380494598792 3.5458481262301138 0 -1 0 I I #
point $-1 -58.307443464461194 12.699404324455383 3.5458481262301094 #
point $-1 -51.148326195791562 5.1940782879759197 4.2802177875550189 #
point $-1 -51.148326195791562 9.6972739098636005 4.2802177875550189 #
point $-1 -58.307443464461194 -26.656254863052116 11.036716161871867 #
straight-curve $-1 0 -26.656254863052116 11.036716161871867 1 0 0 I I #
End-of-ACIS-data 