500 0 9 0           
7 Unknown 11 ACIS 5.0 NT 24 Fri Mar 26 02:16:41 1999 
-1 9.9999999999999995e-007 1e-010 
body $-1 $9 $-1 $10 #
body $-1 $11 $-1 $12 #
body $-1 $13 $-1 $14 #
body $-1 $15 $-1 $16 #
body $-1 $17 $-1 $18 #
body $-1 $19 $-1 $20 #
body $-1 $21 $-1 $22 #
body $-1 $23 $-1 $24 #
body $-1 $25 $-1 $26 #
lump $-1 $-1 $27 $0 #
transform $-1 1 0 0 0 1 0 0 0 1 66.486404004028444 44.691192095423091 12.264811419992144 1 rotate no_reflect no_shear #
lump $-1 $-1 $28 $1 #
transform $-1 1 0 0 0 1 0 0 0 1 66.486404004028444 44.691192095423091 12.264811419992144 1 rotate no_reflect no_shear #
lump $-1 $-1 $29 $2 #
transform $-1 1 0 0 0 1 0 0 0 1 66.486404004028444 44.691192095423091 12.264811419992144 1 rotate no_reflect no_shear #
lump $-1 $-1 $30 $3 #
transform $-1 1 0 0 0 1 0 0 0 1 66.486404004028444 44.691192095423091 12.264811419992144 1 rotate no_reflect no_shear #
lump $-1 $-1 $31 $4 #
transform $-1 1 0 0 0 1 0 0 0 1 66.486404004028444 44.691192095423091 12.264811419992144 1 rotate no_reflect no_shear #
lump $-1 $-1 $32 $5 #
transform $-1 1 0 0 0 1 0 0 0 1 66.486404004028444 44.691192095423091 12.264811419992144 1 rotate no_reflect no_shear #
lump $-1 $-1 $33 $6 #
transform $-1 1 0 0 0 1 0 0 0 1 66.486404004028444 44.691192095423091 12.264811419992144 1 rotate no_reflect no_shear #
lump $-1 $-1 $34 $7 #
transform $-1 1 0 0 0 1 0 0 0 1 66.486404004028444 44.691192095423091 12.264811419992144 1 rotate no_reflect no_shear #
lump $-1 $-1 $35 $8 #
transform $-1 1 0 0 0 1 0 0 0 1 66.486404004028444 44.691192095423091 12.264811419992144 1 rotate no_reflect no_shear #
shell $-1 $-1 $-1 $36 $-1 $9 #
shell $-1 $-1 $-1 $37 $-1 $11 #
shell $-1 $-1 $-1 $38 $-1 $13 #
shell $-1 $-1 $-1 $39 $-1 $15 #
shell $-1 $-1 $-1 $40 $-1 $17 #
shell $-1 $-1 $-1 $41 $-1 $19 #
shell $-1 $-1 $-1 $42 $-1 $21 #
shell $-1 $-1 $-1 $43 $-1 $23 #
shell $-1 $-1 $-1 $44 $-1 $25 #
face $-1 $45 $46 $27 $-1 $47 forward single #
face $-1 $48 $49 $28 $-1 $50 forward single #
face $-1 $51 $52 $29 $-1 $53 forward single #
face $-1 $54 $55 $30 $-1 $56 reversed single #
face $-1 $57 $58 $31 $-1 $59 forward single #
face $-1 $60 $61 $32 $-1 $62 reversed single #
face $-1 $63 $64 $33 $-1 $65 forward single #
face $-1 $66 $67 $34 $-1 $68 reversed single #
face $-1 $69 $70 $35 $-1 $71 forward single #
face $-1 $72 $73 $27 $-1 $74 reversed single #
loop $-1 $-1 $75 $36 #
plane-surface $-1 0 0 12.264811419992144 0 0 1 1 0 0 forward_v I I I I #
face $-1 $76 $77 $28 $-1 $78 reversed single #
loop $-1 $-1 $79 $37 #
plane-surface $-1 0 -40.629846539483189 -6.5277079146731483 0 0 1 1 0 0 forward_v I I I I #
face $-1 $80 $81 $29 $-1 $82 reversed single #
loop $-1 $-1 $83 $38 #
plane-surface $-1 0 39.529034143055682 -8.9254978239254346 0 0 1 1 0 0 forward_v I I I I #
face $-1 $84 $85 $30 $-1 $86 reversed single #
loop $-1 $-1 $87 $39 #
plane-surface $-1 20.992521607262802 -26.164378667478402 186.3054406071447 0 -1 0 -0.51503808176128008 0 -0.85716729658548041 forward_v I I I I #
face $-1 $88 $89 $31 $-1 $90 forward single #
loop $-1 $91 $92 $40 #
cone-surface $-1 59.019755877313244 -31.366439825510845 7.2939449836280632 -0.51503808176128008 0 -0.85716729658548041 1.2857509448782207 0 -0.77255712264192011 1 I I 0 1 1.5 forward I I I I #
face $-1 $93 $94 $32 $-1 $95 reversed single #
loop $-1 $-1 $96 $41 #
plane-surface $-1 20.992521607262802 34.366876190688281 186.3054406071447 0 -1 0 -0.51503808176128008 0 -0.85716729658548041 forward_v I I I I #
face $-1 $97 $98 $33 $-1 $99 forward single #
loop $-1 $100 $101 $42 #
cone-surface $-1 59.019755877313244 29.164815032655838 7.2939449836280632 -0.51503808176128008 0 -0.85716729658548041 1.2857509448782207 0 -0.77255712264192011 1 I I 0 1 1.5 forward I I I I #
face $-1 $102 $103 $34 $-1 $104 reversed single #
loop $-1 $-1 $105 $43 #
plane-surface $-1 -148.35264018710754 4.4846406848747868 112.31500108780011 0 1 0 -0.61566148304635926 0 0.78801074757464917 forward_v I I I I #
face $-1 $106 $107 $35 $-1 $108 forward single #
loop $-1 $109 $110 $44 #
cone-surface $-1 -62.46063073225595 14.984881984872771 8.622735743454955 0.61566148304635926 0 -0.78801074757464917 0.78801074757464917 0 0.61566148304635926 1 I I 0 1 1 forward I I I I #
face $-1 $111 $112 $27 $-1 $113 reversed single #
loop $-1 $-1 $114 $45 #
plane-surface $-1 0 0 -12.264811419992144 0 0 1 1 0 0 forward_v I I I I #
coedge $-1 $115 $116 $117 $118 forward $46 $-1 #
face $-1 $119 $120 $28 $-1 $121 reversed single #
loop $-1 $-1 $122 $48 #
plane-surface $-1 0 -36.568500983543288 -9.3962596673326466 0 -1 0 0 0 -1 forward_v I I I I #
coedge $-1 $123 $124 $125 $126 reversed $49 $-1 #
face $-1 $127 $128 $29 $-1 $129 reversed single #
loop $-1 $-1 $130 $51 #
plane-surface $-1 0 34.366876190688274 -10.595154621958789 0 1 0 0 0 1 forward_v I I I I #
coedge $-1 $131 $132 $133 $134 reversed $52 $-1 #
face $-1 $135 $136 $30 $-1 $137 reversed single #
loop $-1 $-1 $138 $54 #
plane-surface $-1 -47.493538355617815 -31.366439825510845 72.32549824749843 0.51503808176128008 0 0.85716729658548041 0.85716729658548041 0 -0.51503808176128008 forward_v I I I I #
coedge $-1 $139 $140 $141 $142 reversed $55 $-1 #
face $-1 $-1 $143 $31 $-1 $144 forward single #
loop $-1 $145 $146 $57 #
cone-surface $-1 58.177916882516925 -31.366439825510845 5.8928896425120225 -0.51503808176128008 0 -0.85716729658548041 0.64287547243911036 0 -0.38627856132096006 1 I I -0.70710678118654757 0.70710678118654757 0.75 forward I I I I #
loop $-1 $-1 $147 $40 #
coedge $-1 $92 $92 $148 $149 reversed $58 $-1 #
face $-1 $150 $151 $32 $-1 $152 reversed single #
loop $-1 $-1 $153 $60 #
plane-surface $-1 -47.493538355617815 29.164815032655838 72.32549824749843 0.51503808176128008 0 0.85716729658548041 0.85716729658548041 0 -0.51503808176128008 forward_v I I I I #
coedge $-1 $154 $155 $156 $157 reversed $61 $-1 #
face $-1 $-1 $158 $33 $-1 $159 forward single #
loop $-1 $160 $161 $63 #
cone-surface $-1 58.177916882516925 29.164815032655838 5.8928896425120225 -0.51503808176128008 0 -0.85716729658548041 0.64287547243911036 0 -0.38627856132096006 1 I I -0.70710678118654757 0.70710678118654757 0.75 forward I I I I #
loop $-1 $-1 $162 $42 #
coedge $-1 $101 $101 $163 $164 reversed $64 $-1 #
face $-1 $165 $166 $34 $-1 $167 reversed single #
loop $-1 $-1 $168 $66 #
plane-surface $-1 -66.486404004028458 14.984881984872771 7.5309992422709371 -0.61566148304635926 0 0.78801074757464917 0.78801074757464917 0 0.61566148304635926 forward_v I I I I #
coedge $-1 $169 $170 $171 $172 reversed $67 $-1 #
face $-1 $-1 $173 $35 $-1 $174 forward single #
loop $-1 $175 $176 $69 #
cone-surface $-1 -61.156528300402556 14.984881984872771 6.9535607819910599 0.61566148304635926 0 -0.78801074757464917 0.39400537378732459 0 0.30783074152317963 1 I I -0.70710678118654746 0.70710678118654746 0.5 forward I I I I #
loop $-1 $-1 $177 $44 #
coedge $-1 $110 $110 $178 $179 reversed $70 $-1 #
face $-1 $180 $181 $27 $-1 $182 reversed single #
loop $-1 $-1 $183 $72 #
plane-surface $-1 0 -44.691192095423091 0 0 1 0 0 0 1 forward_v I I I I #
coedge $-1 $184 $185 $186 $187 forward $73 $-1 #
coedge $-1 $188 $75 $189 $190 forward $46 $-1 #
coedge $-1 $75 $188 $191 $192 forward $46 $-1 #
coedge $-1 $193 $194 $75 $118 reversed $195 $-1 #
edge $-1 $196 -44.691192095423091 $197 44.691192095423091 $117 $198 forward 7 unknown #
face $-1 $199 $200 $28 $-1 $201 reversed single #
loop $-1 $-1 $202 $76 #
plane-surface $-1 0 0 -12.264811419992144 0 0 1 1 0 0 forward_v I I I I #
coedge $-1 $203 $204 $205 $206 reversed $77 $-1 #
coedge $-1 $207 $79 $204 $208 forward $49 $-1 #
coedge $-1 $79 $207 $209 $210 reversed $49 $-1 #
coedge $-1 $211 $205 $79 $126 forward $200 $-1 #
edge $-1 $212 16.253577713801693 $213 24.376268825681496 $125 $214 forward 7 unknown #
face $-1 $215 $216 $29 $-1 $217 reversed single #
loop $-1 $-1 $133 $80 #
plane-surface $-1 66.486404004028444 0 0 -1 0 0 0 0 1 forward_v I I I I #
coedge $-1 $218 $219 $220 $221 reversed $81 $-1 #
coedge $-1 $222 $83 $223 $224 reversed $52 $-1 #
coedge $-1 $83 $222 $219 $225 forward $52 $-1 #
coedge $-1 $226 $227 $83 $134 forward $128 $-1 #
edge $-1 $228 -24.92667502389525 $229 -14.602359119160432 $133 $230 forward 7 unknown #
face $-1 $231 $232 $30 $-1 $233 forward single #
loop $-1 $-1 $234 $84 #
plane-surface $-1 20.992521607262802 -36.568500983543288 186.3054406071447 0 1 0 0.51503808176128008 0 0.85716729658548041 forward_v I I I I #
coedge $-1 $235 $236 $237 $238 reversed $85 $-1 #
coedge $-1 $140 $87 $239 $240 reversed $55 $-1 #
coedge $-1 $87 $139 $235 $241 reversed $55 $-1 #
coedge $-1 $237 $242 $87 $142 forward $232 $-1 #
edge $-1 $243 -55.990143200397043 $244 -41.96796781391734 $141 $245 forward 7 unknown #
loop $-1 $-1 $148 $88 #
plane-surface $-1 -47.493538355617815 -31.366439825510845 72.32549824749843 0.51503808176128008 0 0.85716729658548041 0.85716729658548041 0 -0.51503808176128008 forward_v I I I I #
loop $-1 $-1 $246 $57 #
coedge $-1 $146 $146 $147 $247 reversed $89 $-1 #
coedge $-1 $147 $147 $146 $247 forward $91 $-1 #
coedge $-1 $148 $148 $92 $149 forward $143 $-1 #
edge $-1 $248 0 $248 6.2831853071796004 $148 $249 forward 7 unknown #
face $-1 $250 $251 $32 $-1 $252 reversed single #
loop $-1 $-1 $253 $93 #
plane-surface $-1 20.992521607262802 23.962753874623395 186.3054406071447 0 1 0 0.51503808176128008 0 0.85716729658548041 forward_v I I I I #
coedge $-1 $254 $255 $256 $257 reversed $94 $-1 #
coedge $-1 $155 $96 $258 $259 reversed $61 $-1 #
coedge $-1 $96 $154 $254 $260 reversed $61 $-1 #
coedge $-1 $256 $261 $96 $157 forward $262 $-1 #
edge $-1 $263 -55.990143200397043 $264 -41.96796781391734 $156 $265 forward 7 unknown #
loop $-1 $-1 $163 $97 #
plane-surface $-1 -47.493538355617815 29.164815032655838 72.32549824749843 0.51503808176128008 0 0.85716729658548041 0.85716729658548041 0 -0.51503808176128008 forward_v I I I I #
loop $-1 $-1 $266 $63 #
coedge $-1 $161 $161 $162 $267 reversed $98 $-1 #
coedge $-1 $162 $162 $161 $267 forward $100 $-1 #
coedge $-1 $163 $163 $101 $164 forward $158 $-1 #
edge $-1 $268 0 $268 6.2831853071796004 $163 $269 forward 7 unknown #
face $-1 $270 $271 $34 $-1 $272 reversed single #
loop $-1 $-1 $273 $102 #
plane-surface $-1 -148.35264018710754 25.485123284870756 112.31500108780011 0 -1 0 0.61566148304635926 0 -0.78801074757464917 forward_v I I I I #
coedge $-1 $274 $275 $276 $277 reversed $103 $-1 #
coedge $-1 $170 $105 $278 $279 reversed $67 $-1 #
coedge $-1 $105 $169 $274 $280 reversed $67 $-1 #
coedge $-1 $276 $281 $105 $172 forward $282 $-1 #
edge $-1 $283 7.689916089525326 $284 13.748919252409834 $171 $285 forward 7 unknown #
loop $-1 $-1 $178 $106 #
plane-surface $-1 -66.486404004028458 14.984881984872771 7.5309992422709371 -0.61566148304635926 0 0.78801074757464917 0.78801074757464917 0 0.61566148304635926 forward_v I I I I #
loop $-1 $-1 $286 $69 #
coedge $-1 $176 $176 $177 $287 reversed $107 $-1 #
coedge $-1 $177 $177 $176 $287 forward $109 $-1 #
coedge $-1 $178 $178 $110 $179 forward $173 $-1 #
edge $-1 $288 0 $288 6.2831853071796004 $178 $289 forward 7 unknown #
face $-1 $290 $291 $27 $-1 $292 reversed single #
loop $-1 $-1 $293 $111 #
plane-surface $-1 -66.486404004028444 0 0 1 0 0 0 0 -1 forward_v I I I I #
coedge $-1 $294 $191 $295 $296 forward $112 $-1 #
coedge $-1 $297 $114 $294 $298 forward $73 $-1 #
coedge $-1 $114 $297 $299 $300 forward $73 $-1 #
coedge $-1 $194 $193 $114 $187 reversed $195 $-1 #
edge $-1 $301 -44.691192095423091 $302 44.691192095423091 $186 $303 forward 7 unknown #
coedge $-1 $116 $115 $304 $305 forward $46 $-1 #
coedge $-1 $306 $307 $115 $190 reversed $291 $-1 #
edge $-1 $197 -66.486404004028444 $308 66.486404004028444 $189 $309 forward 7 unknown #
coedge $-1 $183 $310 $116 $192 reversed $112 $-1 #
edge $-1 $311 -66.486404004028444 $196 66.486404004028444 $191 $312 forward 7 unknown #
coedge $-1 $186 $117 $310 $313 forward $195 $-1 #
coedge $-1 $117 $186 $306 $314 reversed $195 $-1 #
loop $-1 $-1 $193 $290 #
vertex $-1 $118 $315 #
vertex $-1 $118 $316 #
straight-curve $-1 66.486404004028444 0 12.264811419992144 0 1 0 I I #
face $-1 $317 $318 $28 $-1 $319 reversed single #
loop $-1 $-1 $205 $119 #
plane-surface $-1 66.486404004028444 0 0 -1 0 0 0 0 1 forward_v I I I I #
coedge $-1 $320 $321 $203 $322 forward $120 $-1 #
coedge $-1 $323 $122 $202 $322 reversed $77 $-1 #
coedge $-1 $122 $323 $123 $208 reversed $77 $-1 #
coedge $-1 $125 $324 $122 $206 forward $200 $-1 #
edge $-1 $325 -7.5666815863258226 $212 -1.829578081006825 $205 $326 forward 7 unknown #
coedge $-1 $124 $123 $327 $328 reversed $49 $-1 #
edge $-1 $212 -66.486404004028444 $329 66.486404004028444 $204 $330 forward 7 unknown #
coedge $-1 $331 $332 $124 $210 forward $318 $-1 #
edge $-1 $213 -66.486404004028444 $333 66.486404004028444 $209 $334 forward 7 unknown #
coedge $-1 $324 $125 $332 $335 forward $200 $-1 #
vertex $-1 $126 $336 #
vertex $-1 $335 $337 #
straight-curve $-1 66.486404004028444 -20.314923269741595 -6.5277079146731483 0 -1 0 I I #
face $-1 $338 $339 $29 $-1 $340 reversed single #
loop $-1 $-1 $341 $127 #
plane-surface $-1 0 0 -12.264811419992144 0 0 1 1 0 0 forward_v I I I I #
coedge $-1 $342 $130 $341 $343 reversed $81 $-1 #
coedge $-1 $130 $342 $132 $225 reversed $81 $-1 #
coedge $-1 $344 $345 $130 $221 forward $339 $-1 #
edge $-1 $346 -6.9672341090127494 $347 -3.6279205129460399 $220 $348 forward 7 unknown #
coedge $-1 $132 $131 $344 $349 reversed $52 $-1 #
coedge $-1 $350 $351 $131 $224 forward $352 $-1 #
edge $-1 $353 -66.486404004028444 $228 66.486404004028444 $223 $354 forward 7 unknown #
edge $-1 $347 -66.486404004028444 $229 66.486404004028444 $219 $355 forward 7 unknown #
coedge $-1 $356 $133 $342 $357 forward $128 $-1 #
coedge $-1 $133 $356 $350 $358 reversed $128 $-1 #
vertex $-1 $358 $359 #
vertex $-1 $134 $360 #
straight-curve $-1 66.486404004028444 19.764517071527841 -8.9254978239254346 0 -1 0 I I #
face $-1 $-1 $361 $30 $-1 $362 reversed single #
loop $-1 $-1 $141 $135 #
plane-surface $-1 0 0 12.264811419992144 0 0 1 1 0 0 forward_v I I I I #
coedge $-1 $363 $364 $365 $366 reversed $136 $-1 #
coedge $-1 $367 $138 $140 $241 forward $85 $-1 #
coedge $-1 $138 $367 $363 $368 forward $85 $-1 #
coedge $-1 $365 $141 $138 $238 forward $232 $-1 #
edge $-1 $244 10.48115875472298 $369 20.885281070787865 $237 $370 forward 7 unknown #
coedge $-1 $371 $372 $139 $240 forward $361 $-1 #
edge $-1 $373 -89.313282018954538 $243 -80.887908883580209 $239 $374 forward 7 unknown #
edge $-1 $244 116.61406982201441 $373 132.97280800805692 $140 $375 forward 7 unknown #
coedge $-1 $141 $365 $371 $376 forward $232 $-1 #
vertex $-1 $240 $377 #
vertex $-1 $142 $378 #
straight-curve $-1 10.496260803631401 -26.164378667478402 12.264811419992142 -1 0 0 I I #
coedge $-1 $246 $246 $-1 $379 reversed $145 $-1 #
edge $-1 $380 0 $380 6.2831853071796004 $146 $381 forward 7 unknown #
vertex $-1 $149 $382 #
ellipse-curve $-1 59.475316310788592 -31.366439825510845 8.0521248523049724 0.51503808176128008 0 0.85716729658548041 1.2857509448782207 0 -0.77255712264192011 1 I I #
face $-1 $-1 $262 $32 $-1 $383 forward single #
loop $-1 $-1 $384 $150 #
plane-surface $-1 66.486404004028444 0 0 -1 0 0 0 0 1 forward_v I I I I #
coedge $-1 $385 $386 $387 $388 reversed $151 $-1 #
coedge $-1 $389 $153 $155 $260 forward $94 $-1 #
coedge $-1 $153 $389 $385 $390 forward $94 $-1 #
coedge $-1 $387 $156 $153 $257 forward $262 $-1 #
edge $-1 $264 -19.784468674360362 $391 -9.3803463582954763 $256 $392 forward 7 unknown #
coedge $-1 $393 $394 $154 $259 forward $251 $-1 #
edge $-1 $395 -89.313282018954538 $263 -80.887908883580209 $258 $396 forward 7 unknown #
edge $-1 $264 116.61406982201441 $395 132.97280800805692 $155 $397 forward 7 unknown #
coedge $-1 $156 $387 $393 $398 forward $262 $-1 #
loop $-1 $-1 $387 $250 #
vertex $-1 $259 $399 #
vertex $-1 $157 $400 #
straight-curve $-1 10.496260803631401 34.366876190688281 12.264811419992142 -1 0 0 I I #
coedge $-1 $266 $266 $-1 $401 reversed $160 $-1 #
edge $-1 $402 0 $402 6.2831853071796004 $161 $403 forward 7 unknown #
vertex $-1 $164 $404 #
ellipse-curve $-1 59.475316310788592 29.164815032655838 8.0521248523049724 0.51503808176128008 0 0.85716729658548041 1.2857509448782207 0 -0.77255712264192011 1 I I #
face $-1 $-1 $282 $34 $-1 $405 forward single #
loop $-1 $-1 $406 $165 #
plane-surface $-1 -66.486404004028444 0 0 1 0 0 0 0 -1 forward_v I I I I #
coedge $-1 $407 $408 $409 $410 reversed $166 $-1 #
coedge $-1 $411 $168 $170 $280 forward $103 $-1 #
coedge $-1 $168 $411 $407 $412 forward $103 $-1 #
coedge $-1 $409 $171 $168 $277 forward $282 $-1 #
edge $-1 $284 -3.0078003075615989 $413 17.99268229243437 $276 $414 forward 7 unknown #
coedge $-1 $415 $416 $169 $279 forward $271 $-1 #
edge $-1 $417 -48.626501301629105 $283 -43.892689123907914 $278 $418 forward 7 unknown #
edge $-1 $284 -7.6889854377405502 $417 -1.830693040787162e-014 $170 $419 forward 7 unknown #
coedge $-1 $171 $409 $415 $420 forward $282 $-1 #
loop $-1 $-1 $409 $270 #
vertex $-1 $279 $421 #
vertex $-1 $172 $422 #
straight-curve $-1 -74.17632009355377 4.4846406848747868 12.264811419992142 1 0 0 I I #
coedge $-1 $286 $286 $-1 $423 reversed $175 $-1 #
edge $-1 $424 0 $424 6.2831853071796004 $176 $425 forward 7 unknown #
vertex $-1 $179 $426 #
ellipse-curve $-1 -63.456902422586182 14.984881984872771 9.8979053311315504 -0.61566148304635926 0 0.78801074757464917 0.78801074757464917 0 0.61566148304635926 1 I I #
face $-1 $-1 $195 $27 $-1 $427 reversed single #
loop $-1 $-1 $306 $180 #
plane-surface $-1 0 44.691192095423091 0 0 -1 0 0 0 -1 forward_v I I I I #
coedge $-1 $428 $304 $307 $429 forward $181 $-1 #
coedge $-1 $310 $183 $184 $298 reversed $112 $-1 #
coedge $-1 $304 $428 $183 $296 reversed $181 $-1 #
edge $-1 $311 -12.264811419992144 $430 12.264811419992144 $295 $431 forward 7 unknown #
coedge $-1 $185 $184 $428 $432 forward $73 $-1 #
edge $-1 $302 -66.486404004028444 $430 66.486404004028444 $294 $433 forward 7 unknown #
coedge $-1 $307 $306 $185 $300 reversed $291 $-1 #
edge $-1 $434 -66.486404004028444 $301 66.486404004028444 $299 $435 forward 7 unknown #
vertex $-1 $187 $436 #
vertex $-1 $313 $437 #
straight-curve $-1 66.486404004028444 0 -12.264811419992144 0 -1 0 I I #
coedge $-1 $293 $295 $188 $305 reversed $181 $-1 #
edge $-1 $308 -44.691192095423091 $311 44.691192095423091 $304 $438 forward 7 unknown #
coedge $-1 $299 $189 $194 $314 forward $291 $-1 #
coedge $-1 $189 $299 $293 $429 reversed $291 $-1 #
vertex $-1 $190 $439 #
straight-curve $-1 0 44.691192095423091 12.264811419992144 -1 0 0 I I #
coedge $-1 $191 $294 $193 $313 reversed $112 $-1 #
vertex $-1 $305 $440 #
straight-curve $-1 0 -44.691192095423091 12.264811419992144 1 0 0 I I #
edge $-1 $196 -12.264811419992144 $302 12.264811419992144 $193 $441 forward 7 unknown #
edge $-1 $197 -12.264811419992144 $301 12.264811419992144 $194 $442 forward 7 unknown #
point $-1 66.486404004028444 -44.691192095423091 12.264811419992144 #
point $-1 66.486404004028444 44.691192095423091 12.264811419992144 #
face $-1 $-1 $443 $28 $-1 $444 reversed single #
loop $-1 $-1 $209 $199 #
plane-surface $-1 0 -44.691192095423091 0 0 1 0 0 0 1 forward_v I I I I #
coedge $-1 $445 $202 $324 $446 forward $120 $-1 #
coedge $-1 $202 $445 $447 $448 forward $120 $-1 #
edge $-1 $449 -66.486404004028444 $325 66.486404004028444 $202 $450 forward 7 unknown #
coedge $-1 $204 $203 $451 $452 reversed $77 $-1 #
coedge $-1 $205 $211 $320 $446 reversed $200 $-1 #
vertex $-1 $446 $453 #
straight-curve $-1 66.486404004028444 -36.568500983543288 -4.6981298336663233 0 0 1 I I #
coedge $-1 $451 $454 $207 $328 forward $443 $-1 #
edge $-1 $333 -24.376268825681496 $329 -16.253577713801693 $327 $455 forward 7 unknown #
vertex $-1 $328 $456 #
straight-curve $-1 0 -36.568500983543288 -6.5277079146731483 -1 0 0 I I #
coedge $-1 $457 $209 $454 $458 forward $318 $-1 #
coedge $-1 $209 $457 $211 $335 reversed $318 $-1 #
vertex $-1 $458 $459 #
straight-curve $-1 0 -44.691192095423091 -6.5277079146731483 -1 0 0 I I #
edge $-1 $213 6.5277079146731483 $460 12.264811419992144 $211 $461 forward 7 unknown #
point $-1 66.486404004028444 -36.568500983543288 -6.5277079146731483 #
point $-1 66.486404004028444 -44.691192095423091 -6.5277079146731483 #
face $-1 $-1 $352 $29 $-1 $462 reversed single #
loop $-1 $-1 $344 $215 #
plane-surface $-1 -66.486404004028444 0 0 1 0 0 0 0 -1 forward_v I I I I #
coedge $-1 $463 $464 $218 $343 forward $216 $-1 #
coedge $-1 $219 $218 $226 $357 reversed $81 $-1 #
edge $-1 $465 -66.486404004028444 $346 66.486404004028444 $341 $466 forward 7 unknown #
coedge $-1 $467 $220 $222 $349 forward $339 $-1 #
coedge $-1 $220 $467 $463 $468 reversed $339 $-1 #
vertex $-1 $468 $469 #
vertex $-1 $349 $470 #
straight-curve $-1 -66.486404004028444 34.366876190688274 -5.2975773109793947 0 0 1 I I #
edge $-1 $347 14.602359119160432 $353 24.92667502389525 $344 $471 forward 7 unknown #
coedge $-1 $472 $223 $227 $358 forward $352 $-1 #
coedge $-1 $223 $472 $467 $473 reversed $352 $-1 #
loop $-1 $-1 $223 $338 #
vertex $-1 $473 $474 #
straight-curve $-1 0 44.691192095423091 -8.9254978239254346 1 0 0 I I #
straight-curve $-1 0 34.366876190688274 -8.9254978239254346 1 0 0 I I #
coedge $-1 $227 $226 $464 $475 reversed $128 $-1 #
edge $-1 $229 3.6279205129460399 $465 6.9672341090127494 $226 $476 forward 7 unknown #
edge $-1 $228 8.9254978239254346 $477 12.264811419992144 $227 $478 forward 7 unknown #
point $-1 66.486404004028444 44.691192095423091 -8.9254978239254346 #
point $-1 66.486404004028444 34.366876190688274 -8.9254978239254346 #
loop $-1 $-1 $239 $231 #
plane-surface $-1 66.486404004028444 0 0 -1 0 0 0 0 1 forward_v I I I I #
coedge $-1 $364 $234 $236 $368 reversed $136 $-1 #
coedge $-1 $234 $363 $479 $480 reversed $136 $-1 #
coedge $-1 $242 $237 $234 $366 forward $232 $-1 #
edge $-1 $369 41.96796781391734 $481 55.990143200397043 $365 $482 forward 7 unknown #
coedge $-1 $236 $235 $372 $483 reversed $85 $-1 #
edge $-1 $484 -132.97280800805692 $369 -116.61406982201441 $363 $485 forward 7 unknown #
vertex $-1 $238 $486 #
straight-curve $-1 52.464228617548741 -15.683219912755423 12.264811419992142 0 -1 0 I I #
coedge $-1 $479 $239 $242 $376 reversed $361 $-1 #
coedge $-1 $239 $479 $367 $483 forward $361 $-1 #
vertex $-1 $240 $487 #
straight-curve $-1 66.486404004028444 -26.164378667478402 93.152720303572352 0 0 1 I I #
straight-curve $-1 -47.493538355617815 -26.164378667478402 72.32549824749843 0.85716729658548041 0 -0.51503808176128008 I I #
edge $-1 $481 -36.568500983543288 $243 -26.164378667478402 $371 $488 forward 7 unknown #
point $-1 66.486404004028444 -26.164378667478402 12.264811419992144 #
point $-1 52.464228617548741 -26.164378667478402 12.264811419992142 #
edge $-1 $489 1 $489 0 $246 $-1 forward 7 unknown #
vertex $-1 $247 $490 #
ellipse-curve $-1 58.564195443837882 -31.366439825510845 6.5357651149511327 0.51503808176128008 0 0.85716729658548041 1.2857509448782207 0 -0.77255712264192011 1 I I #
point $-1 60.761067255666831 -31.366439825510845 7.2795677296630732 #
plane-surface $-1 0 0 12.264811419992144 0 0 1 1 0 0 forward_v I I I I #
coedge $-1 $394 $393 $386 $491 forward $251 $-1 #
coedge $-1 $386 $253 $255 $390 reversed $151 $-1 #
coedge $-1 $253 $385 $384 $491 reversed $151 $-1 #
coedge $-1 $261 $256 $253 $388 forward $262 $-1 #
edge $-1 $391 41.96796781391734 $492 55.990143200397043 $387 $493 forward 7 unknown #
coedge $-1 $255 $254 $394 $494 reversed $94 $-1 #
edge $-1 $495 -132.97280800805692 $391 -116.61406982201441 $385 $496 forward 7 unknown #
vertex $-1 $257 $497 #
straight-curve $-1 52.464228617548741 14.582407516327919 12.264811419992142 0 -1 0 I I #
coedge $-1 $384 $258 $261 $398 reversed $251 $-1 #
coedge $-1 $258 $384 $389 $494 forward $251 $-1 #
vertex $-1 $259 $498 #
straight-curve $-1 66.486404004028444 34.366876190688281 93.152720303572352 0 0 1 I I #
straight-curve $-1 -47.493538355617815 34.366876190688281 72.32549824749843 0.85716729658548041 0 -0.51503808176128008 I I #
edge $-1 $492 23.962753874623395 $263 34.366876190688281 $393 $499 forward 7 unknown #
point $-1 66.486404004028444 34.366876190688281 12.264811419992144 #
point $-1 52.464228617548741 34.366876190688281 12.264811419992142 #
edge $-1 $500 1 $500 0 $266 $-1 forward 7 unknown #
vertex $-1 $267 $501 #
ellipse-curve $-1 58.564195443837882 29.164815032655838 6.5357651149511327 0.51503808176128008 0 0.85716729658548041 1.2857509448782207 0 -0.77255712264192011 1 I I #
point $-1 60.761067255666831 29.164815032655838 7.2795677296630732 #
plane-surface $-1 0 0 12.264811419992144 0 0 1 1 0 0 forward_v I I I I #
coedge $-1 $416 $415 $408 $502 forward $271 $-1 #
coedge $-1 $408 $273 $275 $412 reversed $166 $-1 #
coedge $-1 $273 $407 $406 $502 reversed $166 $-1 #
coedge $-1 $281 $276 $273 $410 forward $282 $-1 #
edge $-1 $413 -13.748919252409834 $503 -7.689916089525326 $409 $504 forward 7 unknown #
coedge $-1 $275 $274 $416 $505 reversed $103 $-1 #
edge $-1 $506 1.830693040787162e-014 $413 7.6889854377405502 $407 $507 forward 7 unknown #
vertex $-1 $277 $508 #
straight-curve $-1 -60.427400841143935 7.4924409924363857 12.264811419992142 0 1 0 I I #
coedge $-1 $406 $278 $281 $420 reversed $271 $-1 #
coedge $-1 $278 $406 $411 $505 forward $271 $-1 #
vertex $-1 $279 $509 #
straight-curve $-1 -66.486404004028444 4.4846406848747868 56.157500543900056 0 0 1 I I #
straight-curve $-1 -66.486404004028458 4.4846406848747868 7.5309992422709371 -0.78801074757464917 0 -0.61566148304635926 I I #
edge $-1 $503 -25.485123284870756 $283 -4.4846406848747868 $415 $510 forward 7 unknown #
point $-1 -66.486404004028444 4.4846406848747868 12.264811419992144 #
point $-1 -60.427400841143935 4.4846406848747868 12.264811419992144 #
edge $-1 $511 1 $511 0 $286 $-1 forward 7 unknown #
vertex $-1 $287 $512 #
ellipse-curve $-1 -61.464359041925732 14.984881984872771 7.3475661557783845 -0.61566148304635926 0 0.78801074757464917 0.78801074757464917 0 0.61566148304635926 1 I I #
point $-1 -62.668891675011515 14.984881984872771 10.513566814177885 #
plane-surface $-1 66.486404004028444 0 0 -1 0 0 0 0 1 forward_v I I I I #
coedge $-1 $295 $293 $297 $432 reversed $181 $-1 #
edge $-1 $308 -12.264811419992144 $434 12.264811419992144 $307 $513 forward 7 unknown #
vertex $-1 $432 $514 #
straight-curve $-1 -66.486404004028444 -44.691192095423091 0 0 0 -1 I I #
edge $-1 $430 -44.691192095423091 $434 44.691192095423091 $428 $515 forward 7 unknown #
straight-curve $-1 0 -44.691192095423091 -12.264811419992144 -1 0 0 I I #
vertex $-1 $300 $516 #
straight-curve $-1 0 44.691192095423091 -12.264811419992144 1 0 0 I I #
point $-1 66.486404004028444 44.691192095423091 -12.264811419992144 #
point $-1 66.486404004028444 -44.691192095423091 -12.264811419992144 #
straight-curve $-1 -66.486404004028444 0 12.264811419992144 0 -1 0 I I #
point $-1 -66.486404004028444 44.691192095423091 12.264811419992144 #
point $-1 -66.486404004028444 -44.691192095423091 12.264811419992144 #
straight-curve $-1 66.486404004028444 -44.691192095423091 0 0 0 -1 I I #
straight-curve $-1 66.486404004028444 44.691192095423091 0 0 0 -1 I I #
loop $-1 $-1 $451 $317 #
plane-surface $-1 -66.486404004028444 0 0 1 0 0 0 0 -1 forward_v I I I I #
coedge $-1 $321 $320 $457 $517 forward $120 $-1 #
edge $-1 $325 36.568500983543288 $460 44.691192095423091 $324 $518 forward 7 unknown #
coedge $-1 $454 $451 $321 $448 reversed $443 $-1 #
edge $-1 $519 -44.691192095423091 $449 -36.568500983543288 $447 $520 forward 7 unknown #
vertex $-1 $452 $521 #
straight-curve $-1 0 -36.568500983543288 -12.264811419992144 1 0 0 I I #
coedge $-1 $447 $327 $323 $452 forward $443 $-1 #
edge $-1 $329 1.829578081006825 $449 7.5666815863258226 $451 $522 forward 7 unknown #
point $-1 66.486404004028444 -36.568500983543288 -12.264811419992146 #
coedge $-1 $327 $447 $331 $458 reversed $443 $-1 #
straight-curve $-1 -66.486404004028444 -20.314923269741595 -6.5277079146731483 0 1 0 I I #
point $-1 -66.486404004028444 -36.568500983543288 -6.5277079146731483 #
coedge $-1 $332 $331 $445 $517 reversed $318 $-1 #
edge $-1 $333 6.5277079146731483 $519 12.264811419992144 $454 $523 forward 7 unknown #
point $-1 -66.486404004028444 -44.691192095423091 -6.5277079146731483 #
vertex $-1 $335 $524 #
straight-curve $-1 66.486404004028444 -44.691192095423091 0 0 0 -1 I I #
plane-surface $-1 0 44.691192095423091 0 0 -1 0 0 0 -1 forward_v I I I I #
coedge $-1 $525 $341 $345 $468 forward $216 $-1 #
coedge $-1 $341 $525 $356 $475 forward $216 $-1 #
vertex $-1 $343 $526 #
straight-curve $-1 0 34.366876190688274 -12.264811419992144 -1 0 0 I I #
coedge $-1 $345 $344 $351 $473 forward $339 $-1 #
edge $-1 $346 34.366876190688274 $527 44.691192095423091 $345 $528 forward 7 unknown #
point $-1 -66.486404004028444 34.366876190688274 -12.264811419992144 #
point $-1 -66.486404004028444 34.366876190688274 -8.9254978239254346 #
straight-curve $-1 -66.486404004028444 19.764517071527841 -8.9254978239254346 0 1 0 I I #
coedge $-1 $351 $350 $525 $529 reversed $352 $-1 #
edge $-1 $353 8.9254978239254346 $527 12.264811419992144 $351 $530 forward 7 unknown #
point $-1 -66.486404004028444 44.691192095423091 -8.9254978239254346 #
edge $-1 $477 -44.691192095423091 $465 -34.366876190688274 $356 $531 forward 7 unknown #
straight-curve $-1 66.486404004028444 34.366876190688274 -5.2975773109793947 0 0 -1 I I #
vertex $-1 $475 $532 #
straight-curve $-1 66.486404004028444 44.691192095423091 0 0 0 -1 I I #
coedge $-1 $372 $371 $364 $480 forward $361 $-1 #
edge $-1 $481 80.887908883580209 $484 89.313282018954538 $479 $533 forward 7 unknown #
vertex $-1 $376 $534 #
straight-curve $-1 10.496260803631401 -36.568500983543288 12.264811419992142 1 0 0 I I #
edge $-1 $484 -20.885281070787865 $373 -10.48115875472298 $372 $535 forward 7 unknown #
vertex $-1 $483 $536 #
straight-curve $-1 -47.493538355617815 -36.568500983543288 72.32549824749843 -0.85716729658548041 0 0.51503808176128008 I I #
point $-1 52.464228617548741 -36.568500983543288 12.264811419992142 #
point $-1 66.486404004028458 -26.164378667478402 3.8394382846178132 #
straight-curve $-1 66.486404004028444 0 12.264811419992144 0 1 0 I I #
vertex $-1 $379 $537 #
point $-1 59.849946388716106 -31.366439825510845 5.763207992309213 #
edge $-1 $492 80.887908883580209 $495 89.313282018954538 $384 $538 forward 7 unknown #
vertex $-1 $398 $539 #
straight-curve $-1 10.496260803631401 23.962753874623395 12.264811419992142 1 0 0 I I #
edge $-1 $495 9.3803463582954763 $395 19.784468674360362 $394 $540 forward 7 unknown #
vertex $-1 $494 $541 #
straight-curve $-1 -47.493538355617815 23.962753874623395 72.32549824749843 -0.85716729658548041 0 0.51503808176128008 I I #
point $-1 52.464228617548741 23.962753874623395 12.264811419992142 #
point $-1 66.486404004028458 34.366876190688281 3.8394382846178132 #
straight-curve $-1 66.486404004028444 0 12.264811419992144 0 1 0 I I #
vertex $-1 $401 $542 #
point $-1 59.849946388716106 29.164815032655838 5.763207992309213 #
edge $-1 $503 43.892689123907914 $506 48.626501301629105 $406 $543 forward 7 unknown #
vertex $-1 $420 $544 #
straight-curve $-1 -74.17632009355377 25.485123284870756 12.264811419992142 -1 0 0 I I #
edge $-1 $506 -17.99268229243437 $417 3.0078003075615989 $416 $545 forward 7 unknown #
vertex $-1 $505 $546 #
straight-curve $-1 -66.486404004028458 25.485123284870756 7.5309992422709371 0.78801074757464917 0 0.61566148304635926 I I #
point $-1 -60.427400841143935 25.485123284870756 12.264811419992144 #
point $-1 -66.486404004028444 4.4846406848747868 7.5309992422709486 #
straight-curve $-1 -66.486404004028444 0 12.264811419992144 0 -1 0 I I #
vertex $-1 $423 $547 #
point $-1 -60.676348294351087 14.984881984872771 7.963227638824744 #
straight-curve $-1 -66.486404004028444 44.691192095423091 0 0 0 -1 I I #
point $-1 -66.486404004028444 -44.691192095423091 -12.264811419992144 #
straight-curve $-1 -66.486404004028444 0 -12.264811419992144 0 1 0 I I #
point $-1 -66.486404004028444 44.691192095423091 -12.264811419992144 #
edge $-1 $460 -66.486404004028444 $519 66.486404004028444 $457 $548 forward 7 unknown #
straight-curve $-1 66.486404004028444 0 -12.264811419992144 0 -1 0 I I #
vertex $-1 $448 $549 #
straight-curve $-1 -66.486404004028444 0 -12.264811419992144 0 1 0 I I #
point $-1 -66.486404004028444 -36.568500983543288 -12.264811419992146 #
straight-curve $-1 -66.486404004028444 -36.568500983543288 -4.6981298336663233 0 0 -1 I I #
straight-curve $-1 -66.486404004028444 -44.691192095423091 0 0 0 -1 I I #
point $-1 66.486404004028444 -44.691192095423091 -12.264811419992144 #
coedge $-1 $464 $463 $472 $529 forward $216 $-1 #
point $-1 66.486404004028444 34.366876190688274 -12.264811419992144 #
vertex $-1 $529 $550 #
straight-curve $-1 -66.486404004028444 0 -12.264811419992144 0 1 0 I I #
edge $-1 $527 -66.486404004028444 $477 66.486404004028444 $472 $551 forward 7 unknown #
straight-curve $-1 -66.486404004028444 44.691192095423091 0 0 0 -1 I I #
straight-curve $-1 66.486404004028444 0 -12.264811419992144 0 -1 0 I I #
point $-1 66.486404004028444 44.691192095423091 -12.264811419992144 #
straight-curve $-1 66.486404004028444 -36.568500983543288 93.152720303572352 0 0 -1 I I #
point $-1 66.486404004028444 -36.568500983543288 12.264811419992144 #
straight-curve $-1 66.486404004028444 -15.683219912755423 3.8394382846178203 0 1 0 I I #
point $-1 66.486404004028458 -36.568500983543288 3.8394382846178132 #
point $-1 57.791638321195968 -31.366439825510845 5.2500141700729124 #
straight-curve $-1 66.486404004028444 23.962753874623395 93.152720303572352 0 0 -1 I I #
point $-1 66.486404004028444 23.962753874623395 12.264811419992144 #
straight-curve $-1 66.486404004028444 14.582407516327919 3.8394382846178203 0 1 0 I I #
point $-1 66.486404004028458 23.962753874623395 3.8394382846178132 #
point $-1 57.791638321195968 29.164815032655838 5.2500141700729124 #
straight-curve $-1 -66.486404004028444 25.485123284870756 56.157500543900056 0 0 -1 I I #
point $-1 -66.486404004028444 25.485123284870756 12.264811419992144 #
straight-curve $-1 -66.486404004028444 7.4924409924363857 7.5309992422709593 0 -1 0 I I #
point $-1 -66.486404004028444 25.485123284870756 7.5309992422709486 #
point $-1 -60.84869755887938 14.984881984872771 6.5595554082037353 #
straight-curve $-1 0 -44.691192095423091 -12.264811419992144 -1 0 0 I I #
point $-1 -66.486404004028444 -44.691192095423091 -12.264811419992144 #
point $-1 -66.486404004028444 44.691192095423091 -12.264811419992144 #
straight-curve $-1 0 44.691192095423091 -12.264811419992144 1 0 0 I I #
End-of-ACIS-data 