500 0 11 0           
7 Unknown 11 ACIS 5.0 NT 24 Thu Mar 25 22:54:23 1999 
-1 9.9999999999999995e-007 1e-010 
body $-1 $11 $-1 $12 #
body $-1 $13 $-1 $14 #
body $-1 $15 $-1 $16 #
body $-1 $17 $-1 $18 #
body $-1 $19 $-1 $20 #
body $-1 $21 $-1 $22 #
body $-1 $23 $-1 $24 #
body $-1 $25 $-1 $26 #
body $-1 $27 $-1 $28 #
body $-1 $29 $-1 $30 #
body $-1 $31 $-1 $32 #
lump $-1 $-1 $33 $0 #
transform $-1 1 0 0 0 1 0 0 0 1 46.551713614307076 26.971779014484689 5.417815249959923 1 rotate no_reflect no_shear #
lump $-1 $-1 $34 $1 #
transform $-1 1 0 0 0 1 0 0 0 1 46.551713614307076 26.971779014484689 5.417815249959923 1 rotate no_reflect no_shear #
lump $-1 $-1 $35 $2 #
transform $-1 1 0 0 0 1 0 0 0 1 46.551713614307076 26.971779014484689 5.417815249959923 1 rotate no_reflect no_shear #
lump $-1 $-1 $36 $3 #
transform $-1 1 0 0 0 1 0 0 0 1 46.551713614307076 26.971779014484689 5.417815249959923 1 rotate no_reflect no_shear #
lump $-1 $-1 $37 $4 #
transform $-1 1 0 0 0 1 0 0 0 1 46.551713614307076 26.971779014484689 5.417815249959923 1 rotate no_reflect no_shear #
lump $-1 $-1 $38 $5 #
transform $-1 1 0 0 0 1 0 0 0 1 46.551713614307076 26.971779014484689 5.417815249959923 1 rotate no_reflect no_shear #
lump $-1 $-1 $39 $6 #
transform $-1 1 0 0 0 1 0 0 0 1 46.551713614307076 26.971779014484689 5.417815249959923 1 rotate no_reflect no_shear #
lump $-1 $-1 $40 $7 #
transform $-1 1 0 0 0 1 0 0 0 1 46.551713614307076 26.971779014484689 5.417815249959923 1 rotate no_reflect no_shear #
lump $-1 $-1 $41 $8 #
transform $-1 1 0 0 0 1 0 0 0 1 46.551713614307076 26.971779014484689 5.417815249959923 1 rotate no_reflect no_shear #
lump $-1 $-1 $42 $9 #
transform $-1 1 0 0 0 1 0 0 0 1 46.551713614307076 26.971779014484689 5.417815249959923 1 rotate no_reflect no_shear #
lump $-1 $-1 $43 $10 #
transform $-1 1 0 0 0 1 0 0 0 1 46.551713614307076 26.971779014484689 5.417815249959923 1 rotate no_reflect no_shear #
shell $-1 $-1 $-1 $44 $-1 $11 #
shell $-1 $-1 $-1 $45 $-1 $13 #
shell $-1 $-1 $-1 $46 $-1 $15 #
shell $-1 $-1 $-1 $47 $-1 $17 #
shell $-1 $-1 $-1 $48 $-1 $19 #
shell $-1 $-1 $-1 $49 $-1 $21 #
shell $-1 $-1 $-1 $50 $-1 $23 #
shell $-1 $-1 $-1 $51 $-1 $25 #
shell $-1 $-1 $-1 $52 $-1 $27 #
shell $-1 $-1 $-1 $53 $-1 $29 #
shell $-1 $-1 $-1 $54 $-1 $31 #
face $-1 $55 $56 $33 $-1 $57 forward single #
face $-1 $58 $59 $34 $-1 $60 forward single #
face $-1 $61 $62 $35 $-1 $63 forward single #
face $-1 $64 $65 $36 $-1 $66 reversed single #
face $-1 $67 $68 $37 $-1 $69 forward single #
face $-1 $70 $71 $38 $-1 $72 forward single #
face $-1 $73 $74 $39 $-1 $75 forward single #
face $-1 $76 $77 $40 $-1 $78 reversed single #
face $-1 $79 $80 $41 $-1 $81 forward single #
face $-1 $82 $83 $42 $-1 $84 forward single #
face $-1 $85 $86 $43 $-1 $87 forward single #
face $-1 $88 $89 $33 $-1 $90 reversed single #
loop $-1 $-1 $91 $44 #
plane-surface $-1 0 0 5.417815249959923 0 0 1 1 0 0 forward_v I I I I #
face $-1 $92 $93 $34 $-1 $94 forward single #
loop $-1 $-1 $95 $45 #
plane-surface $-1 0 -26.971779014484689 0 0 1 0 0 0 1 forward_v I I I I #
face $-1 $96 $97 $35 $-1 $98 reversed single #
loop $-1 $-1 $99 $46 #
plane-surface $-1 0 26.971779014484689 0 0 -1 0 0 0 -1 forward_v I I I I #
face $-1 $100 $101 $36 $-1 $102 reversed single #
loop $-1 $-1 $103 $47 #
plane-surface $-1 55.736419691451374 -8.7199202034485239 133.10605842354943 0 -1 0 -0.75470958851134928 0 -0.65605901945558964 forward_v I I I I #
face $-1 $104 $105 $37 $-1 $106 forward single #
loop $-1 $107 $108 $48 #
cone-surface $-1 44.583933901243881 -17.665845035043862 3.2602111128952922 -0.75470958851134928 0 -0.65605901945558964 0.32802950972779482 0 -0.37735479425567464 1 I I 0 1 0.5 forward I I I I #
face $-1 $109 $110 $38 $-1 $111 forward single #
loop $-1 $112 $113 $49 #
cone-surface $-1 44.583933901243881 -14.31112322319561 3.2602111128952922 -0.75470958851134928 0 -0.65605901945558964 0.32802950972779482 0 -0.37735479425567464 1 I I 0 1 0.5 forward I I I I #
face $-1 $114 $115 $39 $-1 $116 forward single #
loop $-1 $117 $118 $50 #
cone-surface $-1 44.583933901243881 -10.956401411347358 3.2602111128952922 -0.75470958851134928 0 -0.65605901945558964 0.32802950972779482 0 -0.37735479425567464 1 I I 0 1 0.5 forward I I I I #
face $-1 $119 $120 $40 $-1 $121 reversed single #
loop $-1 $-1 $122 $51 #
plane-surface $-1 -116.81776286701081 -19.902326242942696 62.840009170845697 0 1 0 -0.75470958851134928 0 0.65605901945558964 forward_v I I I I #
face $-1 $123 $124 $41 $-1 $125 forward single #
loop $-1 $126 $127 $52 #
cone-surface $-1 -44.583933901243867 -17.665845035043862 3.2602111128952957 0.75470958851134928 0 -0.65605901945558964 0.32802950972779482 0 0.37735479425567464 1 I I 0 1 0.5 forward I I I I #
face $-1 $128 $129 $42 $-1 $130 forward single #
loop $-1 $131 $132 $53 #
cone-surface $-1 -44.583933901243867 -14.31112322319561 3.2602111128952957 0.75470958851134928 0 -0.65605901945558964 0.32802950972779482 0 0.37735479425567464 1 I I 0 1 0.5 forward I I I I #
face $-1 $133 $134 $43 $-1 $135 forward single #
loop $-1 $136 $137 $54 #
cone-surface $-1 -44.583933901243867 -10.956401411347358 3.2602111128952957 0.75470958851134928 0 -0.65605901945558964 0.32802950972779482 0 0.37735479425567464 1 I I 0 1 0.5 forward I I I I #
face $-1 $138 $139 $33 $-1 $140 reversed single #
loop $-1 $-1 $141 $55 #
plane-surface $-1 0 0 -5.417815249959923 0 0 1 1 0 0 forward_v I I I I #
coedge $-1 $142 $143 $144 $145 forward $56 $-1 #
face $-1 $146 $147 $34 $-1 $148 reversed single #
loop $-1 $-1 $149 $58 #
plane-surface $-1 0 0 5.417815249959923 0 0 1 1 0 0 forward_v I I I I #
coedge $-1 $150 $151 $152 $153 forward $59 $-1 #
face $-1 $154 $155 $35 $-1 $156 reversed single #
loop $-1 $-1 $157 $61 #
plane-surface $-1 0 0 -5.417815249959923 0 0 1 1 0 0 forward_v I I I I #
coedge $-1 $158 $159 $160 $161 forward $62 $-1 #
face $-1 $162 $163 $36 $-1 $164 reversed single #
loop $-1 $-1 $165 $64 #
plane-surface $-1 -14.529629561252364 -14.31112322319561 72.024715247989974 0.75470958851134928 0 0.65605901945558964 0.65605901945558964 0 -0.75470958851134928 forward_v I I I I #
coedge $-1 $166 $167 $168 $169 reversed $65 $-1 #
face $-1 $-1 $170 $37 $-1 $171 forward single #
loop $-1 $172 $173 $67 #
cone-surface $-1 44.017901709860368 -17.665845035043862 2.7681668483035997 -0.75470958851134928 0 -0.65605901945558964 0.16401475486389741 0 -0.18867739712783732 1 I I -0.70710678118654746 0.70710678118654746 0.25 forward I I I I #
loop $-1 $-1 $174 $48 #
coedge $-1 $108 $108 $175 $176 reversed $68 $-1 #
face $-1 $-1 $177 $38 $-1 $178 forward single #
loop $-1 $179 $180 $70 #
cone-surface $-1 44.017901709860368 -14.31112322319561 2.7681668483035997 -0.75470958851134928 0 -0.65605901945558964 0.16401475486389741 0 -0.18867739712783732 1 I I -0.70710678118654746 0.70710678118654746 0.25 forward I I I I #
loop $-1 $-1 $181 $49 #
coedge $-1 $113 $113 $182 $183 reversed $71 $-1 #
face $-1 $-1 $184 $39 $-1 $185 forward single #
loop $-1 $186 $187 $73 #
cone-surface $-1 44.017901709860368 -10.956401411347358 2.7681668483035997 -0.75470958851134928 0 -0.65605901945558964 0.16401475486389741 0 -0.18867739712783732 1 I I -0.70710678118654746 0.70710678118654746 0.25 forward I I I I #
loop $-1 $-1 $188 $50 #
coedge $-1 $118 $118 $189 $190 reversed $74 $-1 #
face $-1 $191 $192 $40 $-1 $193 reversed single #
loop $-1 $-1 $194 $76 #
plane-surface $-1 -46.551713614307076 -14.31112322319561 1.7586659952862504 -0.75470958851134928 0 0.65605901945558964 0.65605901945558964 0 0.75470958851134928 forward_v I I I I #
coedge $-1 $195 $196 $197 $198 reversed $77 $-1 #
face $-1 $-1 $199 $41 $-1 $200 forward single #
loop $-1 $201 $202 $79 #
cone-surface $-1 -44.017901709860354 -17.665845035043862 2.7681668483036033 0.75470958851134928 0 -0.65605901945558964 0.16401475486389741 0 0.18867739712783732 1 I I -0.70710678118654746 0.70710678118654746 0.25 forward I I I I #
loop $-1 $-1 $203 $52 #
coedge $-1 $127 $127 $204 $205 reversed $80 $-1 #
face $-1 $-1 $206 $42 $-1 $207 forward single #
loop $-1 $208 $209 $82 #
cone-surface $-1 -44.017901709860354 -14.31112322319561 2.7681668483036033 0.75470958851134928 0 -0.65605901945558964 0.16401475486389741 0 0.18867739712783732 1 I I -0.70710678118654746 0.70710678118654746 0.25 forward I I I I #
loop $-1 $-1 $210 $53 #
coedge $-1 $132 $132 $211 $212 reversed $83 $-1 #
face $-1 $-1 $213 $43 $-1 $214 forward single #
loop $-1 $215 $216 $85 #
cone-surface $-1 -44.017901709860354 -10.956401411347358 2.7681668483036033 0.75470958851134928 0 -0.65605901945558964 0.16401475486389741 0 0.18867739712783732 1 I I -0.70710678118654746 0.70710678118654746 0.25 forward I I I I #
loop $-1 $-1 $217 $54 #
coedge $-1 $137 $137 $218 $219 reversed $86 $-1 #
face $-1 $220 $221 $33 $-1 $222 reversed single #
loop $-1 $-1 $223 $88 #
plane-surface $-1 0 -26.971779014484689 0 0 1 0 0 0 1 forward_v I I I I #
coedge $-1 $224 $225 $226 $227 forward $89 $-1 #
coedge $-1 $228 $91 $229 $230 forward $56 $-1 #
coedge $-1 $91 $228 $231 $232 forward $56 $-1 #
coedge $-1 $233 $234 $91 $145 reversed $235 $-1 #
edge $-1 $236 -26.971779014484689 $237 26.971779014484689 $144 $238 forward 7 unknown #
face $-1 $239 $240 $34 $-1 $241 reversed single #
loop $-1 $-1 $242 $92 #
plane-surface $-1 -46.551713614307076 0 0 1 0 0 0 0 -1 forward_v I I I I #
coedge $-1 $243 $244 $245 $246 forward $93 $-1 #
coedge $-1 $245 $95 $242 $247 reversed $59 $-1 #
coedge $-1 $95 $245 $248 $249 reversed $59 $-1 #
coedge $-1 $250 $251 $95 $153 reversed $240 $-1 #
edge $-1 $252 -46.551713614307076 $253 46.551713614307076 $152 $254 forward 7 unknown #
face $-1 $255 $256 $35 $-1 $257 reversed single #
loop $-1 $-1 $258 $96 #
plane-surface $-1 -38.716083114387231 29.131343949535015 0 1 0 0 0 0 -1 forward_v I I I I #
coedge $-1 $259 $260 $159 $261 forward $97 $-1 #
coedge $-1 $262 $99 $263 $264 reversed $62 $-1 #
coedge $-1 $99 $262 $157 $261 reversed $62 $-1 #
coedge $-1 $265 $266 $99 $161 reversed $267 $-1 #
edge $-1 $268 -5.417815249959923 $269 5.417815249959923 $160 $270 forward 7 unknown #
face $-1 $271 $272 $36 $-1 $273 reversed single #
loop $-1 $-1 $274 $100 #
plane-surface $-1 55.736419691451374 -19.902326242942696 133.10605842354943 0 1 0 0.75470958851134928 0 0.65605901945558964 forward_v I I I I #
coedge $-1 $275 $276 $277 $278 reversed $101 $-1 #
coedge $-1 $167 $103 $279 $280 reversed $65 $-1 #
coedge $-1 $103 $166 $275 $281 reversed $65 $-1 #
coedge $-1 $277 $282 $103 $169 forward $283 $-1 #
edge $-1 $284 -18.683503768581389 $285 -15.502653930966311 $168 $286 forward 7 unknown #
loop $-1 $-1 $175 $104 #
plane-surface $-1 -14.529629561252364 -14.31112322319561 72.024715247989974 0.75470958851134928 0 0.65605901945558964 0.65605901945558964 0 -0.75470958851134928 forward_v I I I I #
loop $-1 $-1 $287 $67 #
coedge $-1 $173 $173 $174 $288 reversed $105 $-1 #
coedge $-1 $174 $174 $173 $288 forward $107 $-1 #
coedge $-1 $175 $175 $108 $176 forward $170 $-1 #
edge $-1 $289 0 $289 6.2831853071796004 $175 $290 forward 7 unknown #
loop $-1 $-1 $182 $109 #
plane-surface $-1 -14.529629561252364 -14.31112322319561 72.024715247989974 0.75470958851134928 0 0.65605901945558964 0.65605901945558964 0 -0.75470958851134928 forward_v I I I I #
loop $-1 $-1 $291 $70 #
coedge $-1 $180 $180 $181 $292 reversed $110 $-1 #
coedge $-1 $181 $181 $180 $292 forward $112 $-1 #
coedge $-1 $182 $182 $113 $183 forward $177 $-1 #
edge $-1 $293 0 $293 6.2831853071796004 $182 $294 forward 7 unknown #
loop $-1 $-1 $189 $114 #
plane-surface $-1 -14.529629561252364 -14.31112322319561 72.024715247989974 0.75470958851134928 0 0.65605901945558964 0.65605901945558964 0 -0.75470958851134928 forward_v I I I I #
loop $-1 $-1 $295 $73 #
coedge $-1 $187 $187 $188 $296 reversed $115 $-1 #
coedge $-1 $188 $188 $187 $296 forward $117 $-1 #
coedge $-1 $189 $189 $118 $190 forward $184 $-1 #
edge $-1 $297 0 $297 6.2831853071796004 $189 $298 forward 7 unknown #
face $-1 $299 $300 $40 $-1 $301 forward single #
loop $-1 $-1 $302 $119 #
plane-surface $-1 -116.81776286701081 -8.7199202034485239 62.840009170845697 0 -1 0 0.75470958851134928 0 -0.65605901945558964 forward_v I I I I #
coedge $-1 $303 $304 $305 $306 reversed $120 $-1 #
coedge $-1 $196 $122 $307 $308 reversed $77 $-1 #
coedge $-1 $122 $195 $303 $309 reversed $77 $-1 #
coedge $-1 $305 $310 $122 $198 forward $300 $-1 #
edge $-1 $311 11.857167819198331 $312 15.038017656813402 $197 $313 forward 7 unknown #
loop $-1 $-1 $204 $123 #
plane-surface $-1 -46.551713614307076 -14.31112322319561 1.7586659952862504 -0.75470958851134928 0 0.65605901945558964 0.65605901945558964 0 0.75470958851134928 forward_v I I I I #
loop $-1 $-1 $314 $79 #
coedge $-1 $202 $202 $203 $315 reversed $124 $-1 #
coedge $-1 $203 $203 $202 $315 forward $126 $-1 #
coedge $-1 $204 $204 $127 $205 forward $199 $-1 #
edge $-1 $316 0 $316 6.2831853071796004 $204 $317 forward 7 unknown #
loop $-1 $-1 $211 $128 #
plane-surface $-1 -46.551713614307076 -14.31112322319561 1.7586659952862504 -0.75470958851134928 0 0.65605901945558964 0.65605901945558964 0 0.75470958851134928 forward_v I I I I #
loop $-1 $-1 $318 $82 #
coedge $-1 $209 $209 $210 $319 reversed $129 $-1 #
coedge $-1 $210 $210 $209 $319 forward $131 $-1 #
coedge $-1 $211 $211 $132 $212 forward $206 $-1 #
edge $-1 $320 0 $320 6.2831853071796004 $211 $321 forward 7 unknown #
loop $-1 $-1 $218 $133 #
plane-surface $-1 -46.551713614307076 -14.31112322319561 1.7586659952862504 -0.75470958851134928 0 0.65605901945558964 0.65605901945558964 0 0.75470958851134928 forward_v I I I I #
loop $-1 $-1 $322 $85 #
coedge $-1 $216 $216 $217 $323 reversed $134 $-1 #
coedge $-1 $217 $217 $216 $323 forward $136 $-1 #
coedge $-1 $218 $218 $137 $219 forward $213 $-1 #
edge $-1 $324 0 $324 6.2831853071796004 $218 $325 forward 7 unknown #
face $-1 $326 $327 $33 $-1 $328 reversed single #
loop $-1 $-1 $329 $138 #
plane-surface $-1 -46.551713614307076 0 0 1 0 0 0 0 -1 forward_v I I I I #
coedge $-1 $330 $231 $331 $332 forward $139 $-1 #
coedge $-1 $333 $141 $330 $334 forward $89 $-1 #
coedge $-1 $141 $333 $335 $336 forward $89 $-1 #
coedge $-1 $234 $233 $141 $227 reversed $235 $-1 #
edge $-1 $337 -26.971779014484689 $338 26.971779014484689 $226 $339 forward 7 unknown #
coedge $-1 $143 $142 $340 $341 forward $56 $-1 #
coedge $-1 $342 $343 $142 $230 reversed $327 $-1 #
edge $-1 $237 -46.551713614307076 $344 46.551713614307076 $229 $345 forward 7 unknown #
coedge $-1 $223 $346 $143 $232 reversed $139 $-1 #
edge $-1 $347 -46.551713614307076 $236 46.551713614307076 $231 $348 forward 7 unknown #
coedge $-1 $226 $144 $346 $349 forward $235 $-1 #
coedge $-1 $144 $226 $342 $350 reversed $235 $-1 #
loop $-1 $-1 $233 $326 #
vertex $-1 $145 $351 #
vertex $-1 $145 $352 #
straight-curve $-1 46.551713614307076 0 5.417815249959923 0 1 0 I I #
face $-1 $353 $354 $34 $-1 $355 reversed single #
loop $-1 $-1 $250 $146 #
plane-surface $-1 0 -30.506505400255683 2.417815249959923 0 0 1 1 0 0 forward_v I I I I #
coedge $-1 $356 $357 $150 $247 forward $147 $-1 #
coedge $-1 $358 $149 $357 $359 forward $93 $-1 #
coedge $-1 $149 $358 $360 $361 forward $93 $-1 #
coedge $-1 $151 $150 $149 $246 reversed $59 $-1 #
edge $-1 $362 -46.551713614307076 $363 46.551713614307076 $149 $364 forward 7 unknown #
edge $-1 $363 -5.417815249959923 $253 -2.417815249959923 $242 $365 forward 7 unknown #
coedge $-1 $360 $366 $151 $249 forward $367 $-1 #
edge $-1 $252 2.417815249959923 $362 5.417815249959923 $248 $368 forward 7 unknown #
coedge $-1 $369 $152 $366 $370 forward $240 $-1 #
coedge $-1 $152 $369 $356 $371 forward $240 $-1 #
vertex $-1 $249 $372 #
vertex $-1 $247 $373 #
straight-curve $-1 0 -26.971779014484689 2.417815249959923 -1 0 0 I I #
face $-1 $374 $267 $35 $-1 $375 reversed single #
loop $-1 $-1 $376 $154 #
plane-surface $-1 -37.216083114387231 31.290908884585342 0 0 -1 0 0 0 -1 forward_v I I I I #
coedge $-1 $377 $378 $379 $380 forward $155 $-1 #
coedge $-1 $381 $157 $377 $382 forward $97 $-1 #
coedge $-1 $157 $381 $265 $383 forward $97 $-1 #
edge $-1 $268 35.716083114387231 $384 38.716083114387231 $157 $385 forward 7 unknown #
coedge $-1 $159 $158 $386 $387 forward $62 $-1 #
coedge $-1 $388 $389 $158 $264 forward $390 $-1 #
edge $-1 $391 -38.716083114387231 $269 -35.716083114387231 $263 $392 forward 7 unknown #
coedge $-1 $393 $160 $260 $383 reversed $267 $-1 #
coedge $-1 $160 $393 $388 $394 reversed $267 $-1 #
loop $-1 $-1 $160 $255 #
vertex $-1 $261 $395 #
vertex $-1 $394 $396 #
straight-curve $-1 -35.716083114387231 26.971779014484689 0 0 0 1 I I #
face $-1 $-1 $283 $36 $-1 $397 forward single #
loop $-1 $-1 $398 $162 #
plane-surface $-1 46.551713614307076 0 0 -1 0 0 0 0 1 forward_v I I I I #
coedge $-1 $399 $400 $401 $402 reversed $163 $-1 #
coedge $-1 $403 $165 $167 $281 forward $101 $-1 #
coedge $-1 $165 $403 $399 $404 forward $101 $-1 #
coedge $-1 $401 $168 $165 $278 forward $283 $-1 #
edge $-1 $285 1.564358591850719 $405 12.746764631344892 $277 $406 forward 7 unknown #
coedge $-1 $407 $408 $166 $280 forward $272 $-1 #
edge $-1 $409 -64.794363216488463 $284 -61.135213961814792 $279 $410 forward 7 unknown #
edge $-1 $285 88.255006974816553 $409 93.103427228614152 $167 $411 forward 7 unknown #
coedge $-1 $168 $401 $407 $412 forward $283 $-1 #
loop $-1 $-1 $401 $271 #
vertex $-1 $280 $413 #
vertex $-1 $169 $414 #
straight-curve $-1 27.868209845725687 -8.7199202034485239 5.4178152499599221 -1 0 0 I I #
coedge $-1 $287 $287 $-1 $415 reversed $172 $-1 #
edge $-1 $416 0 $416 6.2831853071796004 $173 $417 forward 7 unknown #
vertex $-1 $176 $418 #
ellipse-curve $-1 44.961288695499547 -17.665845035043862 3.5882406226230779 0.75470958851134928 0 0.65605901945558964 0.32802950972779482 0 -0.37735479425567464 1 I I #
coedge $-1 $291 $291 $-1 $419 reversed $179 $-1 #
edge $-1 $420 0 $420 6.2831853071796004 $180 $421 forward 7 unknown #
vertex $-1 $183 $422 #
ellipse-curve $-1 44.961288695499547 -14.31112322319561 3.5882406226230779 0.75470958851134928 0 0.65605901945558964 0.32802950972779482 0 -0.37735479425567464 1 I I #
coedge $-1 $295 $295 $-1 $423 reversed $186 $-1 #
edge $-1 $424 0 $424 6.2831853071796004 $187 $425 forward 7 unknown #
vertex $-1 $190 $426 #
ellipse-curve $-1 44.961288695499547 -10.956401411347358 3.5882406226230779 0.75470958851134928 0 0.65605901945558964 0.32802950972779482 0 -0.37735479425567464 1 I I #
face $-1 $-1 $427 $40 $-1 $428 reversed single #
loop $-1 $-1 $197 $191 #
plane-surface $-1 0 0 5.417815249959923 0 0 1 1 0 0 forward_v I I I I #
coedge $-1 $429 $430 $431 $432 reversed $192 $-1 #
coedge $-1 $433 $194 $196 $309 forward $120 $-1 #
coedge $-1 $194 $433 $429 $434 forward $120 $-1 #
coedge $-1 $431 $197 $194 $306 forward $300 $-1 #
edge $-1 $312 -12.746764631344892 $435 -1.564358591850719 $305 $436 forward 7 unknown #
coedge $-1 $437 $438 $195 $308 forward $427 $-1 #
edge $-1 $439 -29.661338590136598 $311 -26.002189335462926 $307 $440 forward 7 unknown #
edge $-1 $312 -4.8484202537975944 $439 0 $196 $441 forward 7 unknown #
coedge $-1 $197 $431 $437 $442 forward $300 $-1 #
vertex $-1 $308 $443 #
vertex $-1 $198 $444 #
straight-curve $-1 -58.408881433505407 -19.902326242942696 5.4178152499599221 1 0 0 I I #
coedge $-1 $314 $314 $-1 $445 reversed $201 $-1 #
edge $-1 $446 0 $446 6.2831853071796004 $202 $447 forward 7 unknown #
vertex $-1 $205 $448 #
ellipse-curve $-1 -44.96128869549954 -17.665845035043862 3.5882406226230885 -0.75470958851134928 0 0.65605901945558964 0.32802950972779482 0 0.37735479425567464 1 I I #
coedge $-1 $318 $318 $-1 $449 reversed $208 $-1 #
edge $-1 $450 0 $450 6.2831853071796004 $209 $451 forward 7 unknown #
vertex $-1 $212 $452 #
ellipse-curve $-1 -44.96128869549954 -14.31112322319561 3.5882406226230885 -0.75470958851134928 0 0.65605901945558964 0.32802950972779482 0 0.37735479425567464 1 I I #
coedge $-1 $322 $322 $-1 $453 reversed $215 $-1 #
edge $-1 $454 0 $454 6.2831853071796004 $216 $455 forward 7 unknown #
vertex $-1 $219 $456 #
ellipse-curve $-1 -44.96128869549954 -10.956401411347358 3.5882406226230885 -0.75470958851134928 0 0.65605901945558964 0.32802950972779482 0 0.37735479425567464 1 I I #
face $-1 $-1 $235 $33 $-1 $457 reversed single #
loop $-1 $-1 $342 $220 #
plane-surface $-1 0 26.971779014484689 0 0 -1 0 0 0 -1 forward_v I I I I #
coedge $-1 $458 $340 $343 $459 forward $221 $-1 #
coedge $-1 $346 $223 $224 $334 reversed $139 $-1 #
coedge $-1 $340 $458 $223 $332 reversed $221 $-1 #
edge $-1 $347 -5.417815249959923 $460 5.417815249959923 $331 $461 forward 7 unknown #
coedge $-1 $225 $224 $458 $462 forward $89 $-1 #
edge $-1 $338 -46.551713614307076 $460 46.551713614307076 $330 $463 forward 7 unknown #
coedge $-1 $343 $342 $225 $336 reversed $327 $-1 #
edge $-1 $464 -46.551713614307076 $337 46.551713614307076 $335 $465 forward 7 unknown #
vertex $-1 $227 $466 #
vertex $-1 $349 $467 #
straight-curve $-1 46.551713614307076 0 -5.417815249959923 0 -1 0 I I #
coedge $-1 $329 $331 $228 $341 reversed $221 $-1 #
edge $-1 $344 -26.971779014484689 $347 26.971779014484689 $340 $468 forward 7 unknown #
coedge $-1 $335 $229 $234 $350 forward $327 $-1 #
coedge $-1 $229 $335 $329 $459 reversed $327 $-1 #
vertex $-1 $230 $469 #
straight-curve $-1 0 26.971779014484689 5.417815249959923 -1 0 0 I I #
coedge $-1 $231 $330 $233 $349 reversed $139 $-1 #
vertex $-1 $341 $470 #
straight-curve $-1 0 -26.971779014484689 5.417815249959923 1 0 0 I I #
edge $-1 $236 -5.417815249959923 $338 5.417815249959923 $233 $471 forward 7 unknown #
edge $-1 $237 -5.417815249959923 $337 5.417815249959923 $234 $472 forward 7 unknown #
point $-1 46.551713614307076 -26.971779014484689 5.417815249959923 #
point $-1 46.551713614307076 26.971779014484689 5.417815249959923 #
face $-1 $-1 $367 $34 $-1 $473 reversed single #
loop $-1 $-1 $474 $239 #
plane-surface $-1 0 -34.041231786026678 3.917815249959923 0 1 0 0 0 1 forward_v I I I I #
coedge $-1 $475 $242 $251 $371 reversed $147 $-1 #
coedge $-1 $242 $475 $243 $359 reversed $147 $-1 #
coedge $-1 $244 $243 $476 $477 forward $93 $-1 #
edge $-1 $363 26.971779014484689 $478 34.041231786026678 $357 $479 forward 7 unknown #
coedge $-1 $480 $248 $244 $361 reversed $367 $-1 #
edge $-1 $481 -34.041231786026678 $362 -26.971779014484689 $360 $482 forward 7 unknown #
vertex $-1 $249 $483 #
vertex $-1 $359 $484 #
straight-curve $-1 0 -26.971779014484689 5.417815249959923 -1 0 0 I I #
straight-curve $-1 -46.551713614307076 -26.971779014484689 0 0 0 -1 I I #
coedge $-1 $248 $480 $250 $370 reversed $367 $-1 #
loop $-1 $-1 $248 $353 #
straight-curve $-1 46.551713614307076 -26.971779014484689 0 0 0 1 I I #
coedge $-1 $251 $250 $485 $486 forward $240 $-1 #
edge $-1 $252 -3.5347263857709947 $487 3.5347263857709947 $366 $488 forward 7 unknown #
edge $-1 $489 -3.5347263857709947 $253 3.5347263857709947 $356 $490 forward 7 unknown #
point $-1 46.551713614307076 -26.971779014484689 2.417815249959923 #
point $-1 -46.551713614307076 -26.971779014484689 2.417815249959923 #
face $-1 $-1 $390 $35 $-1 $491 forward single #
plane-surface $-1 -35.716083114387231 29.131343949535015 0 -1 0 0 0 0 1 forward_v I I I I #
coedge $-1 $492 $493 $393 $494 forward $256 $-1 #
coedge $-1 $386 $258 $259 $382 reversed $155 $-1 #
coedge $-1 $258 $386 $389 $495 reversed $155 $-1 #
coedge $-1 $493 $492 $258 $380 reversed $256 $-1 #
edge $-1 $496 -5.417815249959923 $497 5.417815249959923 $379 $498 forward 7 unknown #
coedge $-1 $260 $259 $492 $499 forward $97 $-1 #
edge $-1 $384 -2.1595649350503265 $497 2.1595649350503265 $377 $500 forward 7 unknown #
edge $-1 $501 -2.1595649350503265 $268 2.1595649350503265 $265 $502 forward 7 unknown #
vertex $-1 $382 $503 #
straight-curve $-1 0 26.971779014484689 -5.417815249959923 -1 0 0 I I #
coedge $-1 $378 $377 $262 $387 reversed $155 $-1 #
edge $-1 $391 -5.417815249959923 $384 5.417815249959923 $386 $504 forward 7 unknown #
coedge $-1 $505 $263 $266 $394 forward $390 $-1 #
coedge $-1 $263 $505 $378 $495 forward $390 $-1 #
loop $-1 $-1 $263 $374 #
vertex $-1 $264 $506 #
straight-curve $-1 0 26.971779014484689 5.417815249959923 1 0 0 I I #
coedge $-1 $266 $265 $376 $494 reversed $267 $-1 #
edge $-1 $269 -2.1595649350503265 $507 2.1595649350503265 $266 $508 forward 7 unknown #
point $-1 -35.716083114387231 26.971779014484689 -5.417815249959923 #
point $-1 -35.716083114387231 26.971779014484689 5.417815249959923 #
plane-surface $-1 0 0 5.417815249959923 0 0 1 1 0 0 forward_v I I I I #
coedge $-1 $408 $407 $400 $509 forward $272 $-1 #
coedge $-1 $400 $274 $276 $404 reversed $163 $-1 #
coedge $-1 $274 $399 $398 $509 reversed $163 $-1 #
coedge $-1 $282 $277 $274 $402 forward $283 $-1 #
edge $-1 $405 15.502653930966311 $510 18.683503768581389 $401 $511 forward 7 unknown #
coedge $-1 $276 $275 $408 $512 reversed $101 $-1 #
edge $-1 $513 -93.103427228614152 $405 -88.255006974816553 $399 $514 forward 7 unknown #
vertex $-1 $278 $515 #
straight-curve $-1 43.370863776692005 -7.1555616115978049 5.4178152499599221 0 -1 0 I I #
coedge $-1 $398 $279 $282 $412 reversed $272 $-1 #
coedge $-1 $279 $398 $403 $512 forward $272 $-1 #
vertex $-1 $280 $516 #
straight-curve $-1 46.551713614307076 -8.7199202034485239 66.553029211774714 0 0 1 I I #
straight-curve $-1 -14.529629561252364 -8.7199202034485239 72.024715247989974 0.65605901945558964 0 -0.75470958851134928 I I #
edge $-1 $510 -19.902326242942696 $284 -8.7199202034485239 $407 $517 forward 7 unknown #
point $-1 46.551713614307076 -8.7199202034485239 5.417815249959923 #
point $-1 43.370863776691998 -8.7199202034485239 5.4178152499599292 #
edge $-1 $518 1 $518 0 $287 $-1 forward 7 unknown #
vertex $-1 $288 $519 #
ellipse-curve $-1 44.206579106988208 -17.665845035043862 2.9321816031674972 0.75470958851134928 0 0.65605901945558964 0.32802950972779482 0 -0.37735479425567464 1 I I #
point $-1 45.289318205227346 -17.665845035043862 3.2108858283674122 #
edge $-1 $520 1 $520 0 $291 $-1 forward 7 unknown #
vertex $-1 $292 $521 #
ellipse-curve $-1 44.206579106988208 -14.31112322319561 2.9321816031674972 0.75470958851134928 0 0.65605901945558964 0.32802950972779482 0 -0.37735479425567464 1 I I #
point $-1 45.289318205227346 -14.31112322319561 3.2108858283674122 #
edge $-1 $522 1 $522 0 $295 $-1 forward 7 unknown #
vertex $-1 $296 $523 #
ellipse-curve $-1 44.206579106988208 -10.956401411347358 2.9321816031674972 0.75470958851134928 0 0.65605901945558964 0.32802950972779482 0 -0.37735479425567464 1 I I #
point $-1 45.289318205227346 -10.956401411347358 3.2108858283674122 #
loop $-1 $-1 $307 $299 #
plane-surface $-1 -46.551713614307076 0 0 1 0 0 0 0 -1 forward_v I I I I #
coedge $-1 $430 $302 $304 $434 reversed $192 $-1 #
coedge $-1 $302 $429 $524 $525 reversed $192 $-1 #
coedge $-1 $310 $305 $302 $432 forward $300 $-1 #
edge $-1 $435 -15.038017656813402 $526 -11.857167819198331 $431 $527 forward 7 unknown #
coedge $-1 $304 $303 $438 $528 reversed $120 $-1 #
edge $-1 $529 0 $435 4.8484202537975944 $429 $530 forward 7 unknown #
vertex $-1 $306 $531 #
straight-curve $-1 -43.370863776692005 -7.1555616115978049 5.4178152499599221 0 1 0 I I #
coedge $-1 $524 $307 $310 $442 reversed $427 $-1 #
coedge $-1 $307 $524 $433 $528 forward $427 $-1 #
vertex $-1 $308 $532 #
straight-curve $-1 -46.551713614307076 -19.902326242942696 31.420004585422848 0 0 1 I I #
straight-curve $-1 -46.551713614307076 -19.902326242942696 1.7586659952862504 -0.65605901945558964 0 -0.75470958851134928 I I #
edge $-1 $526 8.7199202034485239 $311 19.902326242942696 $437 $533 forward 7 unknown #
point $-1 -46.551713614307076 -19.902326242942696 5.417815249959923 #
point $-1 -43.370863776692005 -19.902326242942696 5.417815249959923 #
edge $-1 $534 1 $534 0 $314 $-1 forward 7 unknown #
vertex $-1 $315 $535 #
ellipse-curve $-1 -44.206579106988194 -17.665845035043862 2.9321816031675008 -0.75470958851134928 0 0.65605901945558964 0.32802950972779482 0 0.37735479425567464 1 I I #
point $-1 -44.633259185771749 -17.665845035043862 3.9655954168787648 #
edge $-1 $536 1 $536 0 $318 $-1 forward 7 unknown #
vertex $-1 $319 $537 #
ellipse-curve $-1 -44.206579106988194 -14.31112322319561 2.9321816031675008 -0.75470958851134928 0 0.65605901945558964 0.32802950972779482 0 0.37735479425567464 1 I I #
point $-1 -44.633259185771749 -14.31112322319561 3.9655954168787648 #
edge $-1 $538 1 $538 0 $322 $-1 forward 7 unknown #
vertex $-1 $323 $539 #
ellipse-curve $-1 -44.206579106988194 -10.956401411347358 2.9321816031675008 -0.75470958851134928 0 0.65605901945558964 0.32802950972779482 0 0.37735479425567464 1 I I #
point $-1 -44.633259185771749 -10.956401411347358 3.9655954168787648 #
plane-surface $-1 46.551713614307076 0 0 -1 0 0 0 0 1 forward_v I I I I #
coedge $-1 $331 $329 $333 $462 reversed $221 $-1 #
edge $-1 $344 -5.417815249959923 $464 5.417815249959923 $343 $540 forward 7 unknown #
vertex $-1 $462 $541 #
straight-curve $-1 -46.551713614307076 -26.971779014484689 0 0 0 -1 I I #
edge $-1 $460 -26.971779014484689 $464 26.971779014484689 $458 $542 forward 7 unknown #
straight-curve $-1 0 -26.971779014484689 -5.417815249959923 -1 0 0 I I #
vertex $-1 $336 $543 #
straight-curve $-1 0 26.971779014484689 -5.417815249959923 1 0 0 I I #
point $-1 46.551713614307076 26.971779014484689 -5.417815249959923 #
point $-1 46.551713614307076 -26.971779014484689 -5.417815249959923 #
straight-curve $-1 -46.551713614307076 0 5.417815249959923 0 -1 0 I I #
point $-1 -46.551713614307076 26.971779014484689 5.417815249959923 #
point $-1 -46.551713614307076 -26.971779014484689 5.417815249959923 #
straight-curve $-1 46.551713614307076 -26.971779014484689 0 0 0 -1 I I #
straight-curve $-1 46.551713614307076 26.971779014484689 0 0 0 -1 I I #
plane-surface $-1 46.551713614307076 0 0 -1 0 0 0 0 1 forward_v I I I I #
coedge $-1 $485 $476 $475 $544 forward $354 $-1 #
coedge $-1 $357 $356 $474 $544 reversed $147 $-1 #
coedge $-1 $474 $545 $358 $477 reversed $354 $-1 #
edge $-1 $478 -46.551713614307076 $481 46.551713614307076 $476 $546 forward 7 unknown #
vertex $-1 $359 $547 #
straight-curve $-1 -46.551713614307076 0 5.417815249959923 0 -1 0 I I #
coedge $-1 $366 $360 $545 $548 forward $367 $-1 #
vertex $-1 $361 $549 #
straight-curve $-1 46.551713614307076 0 5.417815249959923 0 1 0 I I #
point $-1 46.551713614307076 -26.971779014484689 5.417815249959923 #
point $-1 -46.551713614307076 -26.971779014484689 5.417815249959923 #
coedge $-1 $545 $474 $369 $486 reversed $354 $-1 #
edge $-1 $487 -46.551713614307076 $489 46.551713614307076 $485 $550 forward 7 unknown #
vertex $-1 $548 $551 #
straight-curve $-1 46.551713614307076 -30.506505400255683 2.417815249959923 0 -1 0 I I #
vertex $-1 $371 $552 #
straight-curve $-1 -46.551713614307076 -30.506505400255683 2.417815249959923 0 1 0 I I #
plane-surface $-1 0 0 5.417815249959923 0 0 1 1 0 0 forward_v I I I I #
coedge $-1 $379 $376 $381 $499 reversed $256 $-1 #
coedge $-1 $376 $379 $505 $553 reversed $256 $-1 #
edge $-1 $507 -5.417815249959923 $501 5.417815249959923 $393 $554 forward 7 unknown #
edge $-1 $496 -2.1595649350503265 $391 2.1595649350503265 $378 $555 forward 7 unknown #
vertex $-1 $553 $556 #
vertex $-1 $499 $557 #
straight-curve $-1 -38.716083114387231 31.290908884585342 0 0 0 -1 I I #
edge $-1 $497 -1.5 $501 1.5 $492 $558 forward 7 unknown #
straight-curve $-1 -38.716083114387231 29.131343949535015 -5.417815249959923 0 1 0 I I #
vertex $-1 $383 $559 #
straight-curve $-1 -35.716083114387231 29.131343949535015 -5.417815249959923 0 -1 0 I I #
point $-1 -38.716083114387231 26.971779014484689 -5.417815249959923 #
straight-curve $-1 -38.716083114387231 26.971779014484689 0 0 0 -1 I I #
coedge $-1 $389 $388 $493 $553 forward $390 $-1 #
point $-1 -38.716083114387231 26.971779014484689 5.417815249959923 #
vertex $-1 $394 $560 #
straight-curve $-1 -35.716083114387231 29.131343949535015 5.417815249959923 0 1 0 I I #
edge $-1 $510 61.135213961814792 $513 64.794363216488463 $398 $561 forward 7 unknown #
vertex $-1 $412 $562 #
straight-curve $-1 27.868209845725687 -19.902326242942696 5.4178152499599221 1 0 0 I I #
edge $-1 $513 -12.746764631344892 $409 -1.564358591850719 $408 $563 forward 7 unknown #
vertex $-1 $512 $564 #
straight-curve $-1 -14.529629561252364 -19.902326242942696 72.024715247989974 -0.65605901945558964 0 0.75470958851134928 I I #
point $-1 43.370863776691998 -19.902326242942696 5.4178152499599292 #
point $-1 46.551713614307076 -8.7199202034485239 1.7586659952862504 #
straight-curve $-1 46.551713614307076 0 5.417815249959923 0 1 0 I I #
vertex $-1 $415 $565 #
point $-1 44.534608616716 -17.665845035043862 2.5548268089118227 #
vertex $-1 $419 $566 #
point $-1 44.534608616716 -14.31112322319561 2.5548268089118227 #
vertex $-1 $423 $567 #
point $-1 44.534608616716 -10.956401411347358 2.5548268089118227 #
coedge $-1 $438 $437 $430 $525 forward $427 $-1 #
edge $-1 $526 26.002189335462926 $529 29.661338590136598 $524 $568 forward 7 unknown #
vertex $-1 $442 $569 #
straight-curve $-1 -58.408881433505407 -8.7199202034485239 5.4178152499599221 -1 0 0 I I #
edge $-1 $529 1.564358591850719 $439 12.746764631344892 $438 $570 forward 7 unknown #
vertex $-1 $528 $571 #
straight-curve $-1 -46.551713614307076 -8.7199202034485239 1.7586659952862504 0.65605901945558964 0 0.75470958851134928 I I #
point $-1 -43.370863776692005 -8.7199202034485239 5.417815249959923 #
point $-1 -46.551713614307076 -19.902326242942696 1.7586659952862504 #
straight-curve $-1 -46.551713614307076 0 5.417815249959923 0 -1 0 I I #
vertex $-1 $445 $572 #
point $-1 -43.878549597260395 -17.665845035043862 3.3095363974231753 #
vertex $-1 $449 $573 #
point $-1 -43.878549597260395 -14.31112322319561 3.3095363974231753 #
vertex $-1 $453 $574 #
point $-1 -43.878549597260395 -10.956401411347358 3.3095363974231753 #
straight-curve $-1 -46.551713614307076 26.971779014484689 0 0 0 -1 I I #
point $-1 -46.551713614307076 -26.971779014484689 -5.417815249959923 #
straight-curve $-1 -46.551713614307076 0 -5.417815249959923 0 1 0 I I #
point $-1 -46.551713614307076 26.971779014484689 -5.417815249959923 #
edge $-1 $478 -1.5 $489 1.5 $475 $575 forward 7 unknown #
coedge $-1 $476 $485 $480 $548 reversed $354 $-1 #
straight-curve $-1 0 -34.041231786026678 5.417815249959923 1 0 0 I I #
point $-1 -46.551713614307076 -34.041231786026678 5.417815249959923 #
edge $-1 $481 -1.5 $487 1.5 $480 $576 forward 7 unknown #
point $-1 46.551713614307076 -34.041231786026678 5.417815249959923 #
straight-curve $-1 0 -34.041231786026678 2.417815249959923 -1 0 0 I I #
point $-1 46.551713614307076 -34.041231786026678 2.417815249959923 #
point $-1 -46.551713614307076 -34.041231786026678 2.417815249959923 #
edge $-1 $507 -1.5 $496 1.5 $493 $577 forward 7 unknown #
straight-curve $-1 -35.716083114387231 31.290908884585342 0 0 0 -1 I I #
straight-curve $-1 -38.716083114387231 29.131343949535015 5.417815249959923 0 -1 0 I I #
point $-1 -38.716083114387231 31.290908884585342 5.417815249959923 #
point $-1 -38.716083114387231 31.290908884585342 -5.417815249959923 #
straight-curve $-1 -37.216083114387231 31.290908884585342 -5.417815249959923 1 0 0 I I #
point $-1 -35.716083114387231 31.290908884585342 -5.417815249959923 #
point $-1 -35.716083114387231 31.290908884585342 5.417815249959923 #
straight-curve $-1 46.551713614307076 -19.902326242942696 66.553029211774714 0 0 -1 I I #
point $-1 46.551713614307076 -19.902326242942696 5.417815249959923 #
straight-curve $-1 46.551713614307076 -7.1555616115978049 1.7586659952862362 0 1 0 I I #
point $-1 46.551713614307076 -19.902326242942696 1.7586659952862504 #
point $-1 43.829224312732528 -17.665845035043862 2.6041520934397022 #
point $-1 43.829224312732528 -14.31112322319561 2.6041520934397022 #
point $-1 43.829224312732528 -10.956401411347358 2.6041520934397022 #
straight-curve $-1 -46.551713614307076 -8.7199202034485239 31.420004585422848 0 0 -1 I I #
point $-1 -46.551713614307076 -8.7199202034485239 5.417815249959923 #
straight-curve $-1 -46.551713614307076 -7.1555616115978049 1.7586659952862536 0 -1 0 I I #
point $-1 -46.551713614307076 -8.7199202034485239 1.7586659952862504 #
point $-1 -43.829224312732514 -17.665845035043862 2.6041520934397058 #
point $-1 -43.829224312732514 -14.31112322319561 2.6041520934397058 #
point $-1 -43.829224312732514 -10.956401411347358 2.6041520934397058 #
straight-curve $-1 -46.551713614307076 -34.041231786026678 3.917815249959923 0 0 -1 I I #
straight-curve $-1 46.551713614307076 -34.041231786026678 3.917815249959923 0 0 -1 I I #
straight-curve $-1 -37.216083114387231 31.290908884585342 5.417815249959923 -1 0 0 I I #
End-of-ACIS-data 