500 0 11 0           
7 Unknown 11 ACIS 5.0 NT 24 Fri Mar 26 02:40:06 1999 
-1 9.9999999999999995e-007 1e-010 
body $-1 $11 $-1 $12 #
body $-1 $13 $-1 $14 #
body $-1 $15 $-1 $16 #
body $-1 $17 $-1 $18 #
body $-1 $19 $-1 $20 #
body $-1 $21 $-1 $22 #
body $-1 $23 $-1 $24 #
body $-1 $25 $-1 $26 #
body $-1 $27 $-1 $28 #
body $-1 $29 $-1 $30 #
body $-1 $31 $-1 $32 #
lump $-1 $-1 $33 $0 #
transform $-1 1 0 0 0 1 0 0 0 1 51.006195257423627 20.97407376014057 7.9013631548562637 1 rotate no_reflect no_shear #
lump $-1 $-1 $34 $1 #
transform $-1 1 0 0 0 1 0 0 0 1 51.006195257423627 20.97407376014057 7.9013631548562637 1 rotate no_reflect no_shear #
lump $-1 $-1 $35 $2 #
transform $-1 1 0 0 0 1 0 0 0 1 51.006195257423627 20.97407376014057 7.9013631548562637 1 rotate no_reflect no_shear #
lump $-1 $-1 $36 $3 #
transform $-1 1 0 0 0 1 0 0 0 1 51.006195257423627 20.97407376014057 7.9013631548562637 1 rotate no_reflect no_shear #
lump $-1 $-1 $37 $4 #
transform $-1 1 0 0 0 1 0 0 0 1 51.006195257423627 20.97407376014057 7.9013631548562637 1 rotate no_reflect no_shear #
lump $-1 $-1 $38 $5 #
transform $-1 1 0 0 0 1 0 0 0 1 51.006195257423627 20.97407376014057 7.9013631548562637 1 rotate no_reflect no_shear #
lump $-1 $-1 $39 $6 #
transform $-1 1 0 0 0 1 0 0 0 1 51.006195257423627 20.97407376014057 7.9013631548562637 1 rotate no_reflect no_shear #
lump $-1 $-1 $40 $7 #
transform $-1 1 0 0 0 1 0 0 0 1 51.006195257423627 20.97407376014057 7.9013631548562637 1 rotate no_reflect no_shear #
lump $-1 $-1 $41 $8 #
transform $-1 1 0 0 0 1 0 0 0 1 51.006195257423627 20.97407376014057 7.9013631548562637 1 rotate no_reflect no_shear #
lump $-1 $-1 $42 $9 #
transform $-1 1 0 0 0 1 0 0 0 1 51.006195257423627 20.97407376014057 7.9013631548562637 1 rotate no_reflect no_shear #
lump $-1 $-1 $43 $10 #
transform $-1 1 0 0 0 1 0 0 0 1 51.006195257423627 20.97407376014057 7.9013631548562637 1 rotate no_reflect no_shear #
shell $-1 $-1 $-1 $44 $-1 $11 #
shell $-1 $-1 $-1 $45 $-1 $13 #
shell $-1 $-1 $-1 $46 $-1 $15 #
shell $-1 $-1 $-1 $47 $-1 $17 #
shell $-1 $-1 $-1 $48 $-1 $19 #
shell $-1 $-1 $-1 $49 $-1 $21 #
shell $-1 $-1 $-1 $50 $-1 $23 #
shell $-1 $-1 $-1 $51 $-1 $25 #
shell $-1 $-1 $-1 $52 $-1 $27 #
shell $-1 $-1 $-1 $53 $-1 $29 #
shell $-1 $-1 $-1 $54 $-1 $31 #
face $-1 $55 $56 $33 $-1 $57 forward single #
face $-1 $58 $59 $34 $-1 $60 forward single #
face $-1 $61 $62 $35 $-1 $63 reversed single #
face $-1 $64 $65 $36 $-1 $66 forward single #
face $-1 $67 $68 $37 $-1 $69 forward single #
face $-1 $70 $71 $38 $-1 $72 reversed single #
face $-1 $73 $74 $39 $-1 $75 forward single #
face $-1 $76 $77 $40 $-1 $78 forward single #
face $-1 $79 $80 $41 $-1 $81 reversed single #
face $-1 $82 $83 $42 $-1 $84 forward single #
face $-1 $85 $86 $43 $-1 $87 forward single #
face $-1 $88 $89 $33 $-1 $90 reversed single #
loop $-1 $-1 $91 $44 #
plane-surface $-1 0 0 7.9013631548562637 0 0 1 1 0 0 forward_v I I I I #
face $-1 $92 $93 $34 $-1 $94 reversed single #
loop $-1 $-1 $95 $45 #
plane-surface $-1 -48.02712791218736 0 0.47494575415720686 0 0 1 1 0 0 forward_v I I I I #
face $-1 $96 $97 $35 $-1 $98 reversed single #
loop $-1 $-1 $99 $46 #
plane-surface $-1 25.790890459165496 -79.485977929393641 88.061896567071926 1 0 0 0 0.57357644374324357 -0.81915203911291934 forward_v I I I I #
face $-1 $100 $101 $36 $-1 $102 forward single #
loop $-1 $103 $104 $47 #
cone-surface $-1 32.995263258667819 -18.065684094930806 5.5167076556067212 0 0.57357644374324357 -0.81915203911291934 1 0 0 1 I I 0 1 1 forward I I I I #
face $-1 $105 $106 $37 $-1 $107 forward single #
loop $-1 $108 $109 $48 #
cone-surface $-1 43.801822457921304 -18.065684094930806 5.5167076556067212 0 0.57357644374324357 -0.81915203911291934 1 0 0 1 I I 0 1 1 forward I I I I #
face $-1 $110 $111 $38 $-1 $112 reversed single #
loop $-1 $-1 $113 $49 #
plane-surface $-1 -45.048060566951094 46.998689224320898 109.95054066012166 1 0 0 0 -0.5877852598018023 -0.80901698891910034 forward_v I I I I #
face $-1 $114 $115 $39 $-1 $116 forward single #
loop $-1 $117 $118 $50 #
cone-surface $-1 -40.372551016827067 17.076730920430023 4.8345038883970295 0 -0.5877852598018023 -0.80901698891910034 1 0 0 1 I I 0 1 1 forward I I I I #
face $-1 $119 $120 $40 $-1 $121 forward single #
loop $-1 $122 $123 $51 #
cone-surface $-1 -33.359286691641039 17.076730920430023 4.8345038883970295 0 -0.5877852598018023 -0.80901698891910034 1 0 0 1 I I 0 1 1 forward I I I I #
face $-1 $124 $125 $41 $-1 $126 reversed single #
loop $-1 $-1 $127 $52 #
plane-surface $-1 2.9790673452362704 46.998689224320898 109.95054066012166 1 0 0 0 -0.5877852598018023 -0.80901698891910034 forward_v I I I I #
face $-1 $128 $129 $42 $-1 $130 forward single #
loop $-1 $131 $132 $53 #
cone-surface $-1 7.6545768953602931 17.076730920430023 4.8345038883970295 0 -0.5877852598018023 -0.80901698891910034 1 0 0 1 I I 0 1 1 forward I I I I #
face $-1 $133 $134 $43 $-1 $135 forward single #
loop $-1 $136 $137 $54 #
cone-surface $-1 14.667841220546322 17.076730920430023 4.8345038883970295 0 -0.5877852598018023 -0.80901698891910034 1 0 0 1 I I 0 1 1 forward I I I I #
face $-1 $138 $139 $33 $-1 $140 reversed single #
loop $-1 $-1 $141 $55 #
plane-surface $-1 0 0 -7.9013631548562637 0 0 1 1 0 0 forward_v I I I I #
coedge $-1 $142 $143 $144 $145 forward $56 $-1 #
face $-1 $146 $147 $34 $-1 $148 reversed single #
loop $-1 $-1 $149 $58 #
plane-surface $-1 -48.02712791218736 0 -2.5250542458427931 0 0 1 1 0 0 forward_v I I I I #
coedge $-1 $150 $151 $152 $153 forward $59 $-1 #
face $-1 $154 $155 $35 $-1 $156 forward single #
loop $-1 $-1 $157 $61 #
plane-surface $-1 38.398542858294562 -20.974073760140563 4.498238862051366 0 -0.57357644374324357 0.81915203911291934 1 0 0 forward_v I I I I #
coedge $-1 $158 $159 $160 $161 reversed $62 $-1 #
face $-1 $-1 $162 $36 $-1 $163 forward single #
loop $-1 $164 $165 $64 #
cone-surface $-1 32.995263258667819 -17.300588748907987 4.4240382832031608 0 0.57357644374324357 -0.81915203911291934 0.5 0 0 1 I I -0.70710678118654746 0.70710678118654746 0.5 forward I I I I #
loop $-1 $-1 $166 $47 #
coedge $-1 $104 $104 $167 $168 reversed $65 $-1 #
face $-1 $-1 $169 $37 $-1 $170 forward single #
loop $-1 $171 $172 $67 #
cone-surface $-1 43.801822457921304 -17.300588748907987 4.4240382832031608 0 0.57357644374324357 -0.81915203911291934 0.5 0 0 1 I I -0.70710678118654746 0.70710678118654746 0.5 forward I I I I #
loop $-1 $-1 $173 $48 #
coedge $-1 $109 $109 $174 $175 reversed $68 $-1 #
face $-1 $176 $177 $38 $-1 $178 reversed single #
loop $-1 $-1 $179 $70 #
plane-surface $-1 -36.865918854234053 -12.962690237451504 27.420783653360544 0 0.5877852598018023 0.80901698891910034 1 0 0 forward_v I I I I #
coedge $-1 $180 $181 $182 $183 reversed $71 $-1 #
face $-1 $-1 $184 $39 $-1 $185 forward single #
loop $-1 $186 $187 $73 #
cone-surface $-1 -40.372551016827067 16.420788975713002 3.9316772724324833 0 -0.5877852598018023 -0.80901698891910034 0.5 0 0 1 I I -0.70710678118654746 0.70710678118654746 0.5 forward I I I I #
loop $-1 $-1 $188 $50 #
coedge $-1 $118 $118 $189 $190 reversed $74 $-1 #
face $-1 $-1 $191 $40 $-1 $192 forward single #
loop $-1 $193 $194 $76 #
cone-surface $-1 -33.359286691641039 16.420788975713002 3.9316772724324833 0 -0.5877852598018023 -0.80901698891910034 0.5 0 0 1 I I -0.70710678118654746 0.70710678118654746 0.5 forward I I I I #
loop $-1 $-1 $195 $51 #
coedge $-1 $123 $123 $196 $197 reversed $77 $-1 #
face $-1 $198 $199 $41 $-1 $200 reversed single #
loop $-1 $-1 $201 $79 #
plane-surface $-1 11.161209057953307 -12.962690237451504 27.420783653360544 0 0.5877852598018023 0.80901698891910034 1 0 0 forward_v I I I I #
coedge $-1 $202 $203 $204 $205 reversed $80 $-1 #
face $-1 $-1 $206 $42 $-1 $207 forward single #
loop $-1 $208 $209 $82 #
cone-surface $-1 7.6545768953602931 16.420788975713002 3.9316772724324833 0 -0.5877852598018023 -0.80901698891910034 0.5 0 0 1 I I -0.70710678118654746 0.70710678118654746 0.5 forward I I I I #
loop $-1 $-1 $210 $53 #
coedge $-1 $132 $132 $211 $212 reversed $83 $-1 #
face $-1 $-1 $213 $43 $-1 $214 forward single #
loop $-1 $215 $216 $85 #
cone-surface $-1 14.667841220546322 16.420788975713002 3.9316772724324833 0 -0.5877852598018023 -0.80901698891910034 0.5 0 0 1 I I -0.70710678118654746 0.70710678118654746 0.5 forward I I I I #
loop $-1 $-1 $217 $54 #
coedge $-1 $137 $137 $218 $219 reversed $86 $-1 #
face $-1 $220 $221 $33 $-1 $222 reversed single #
loop $-1 $-1 $223 $88 #
plane-surface $-1 0 -20.97407376014057 0 0 1 0 0 0 1 forward_v I I I I #
coedge $-1 $224 $225 $226 $227 forward $89 $-1 #
coedge $-1 $228 $91 $229 $230 forward $56 $-1 #
coedge $-1 $91 $228 $231 $232 forward $56 $-1 #
coedge $-1 $233 $234 $91 $145 reversed $235 $-1 #
edge $-1 $236 -20.97407376014057 $237 20.97407376014057 $144 $238 forward 7 unknown #
face $-1 $239 $240 $34 $-1 $241 reversed single #
loop $-1 $-1 $242 $92 #
plane-surface $-1 -45.048060566951094 0 -1.0250542458427931 -1 0 0 0 0 1 forward_v I I I I #
coedge $-1 $243 $244 $245 $246 forward $93 $-1 #
coedge $-1 $247 $95 $248 $249 reversed $59 $-1 #
coedge $-1 $95 $247 $250 $251 reversed $59 $-1 #
coedge $-1 $242 $252 $95 $153 reversed $147 $-1 #
edge $-1 $253 -20.97407376014057 $254 20.97407376014057 $152 $255 forward 7 unknown #
face $-1 $256 $257 $35 $-1 $258 reversed single #
loop $-1 $-1 $259 $96 #
plane-surface $-1 0 0 7.9013631548562637 0 0 1 1 0 0 forward_v I I I I #
coedge $-1 $260 $261 $262 $263 reversed $97 $-1 #
coedge $-1 $159 $99 $264 $265 reversed $62 $-1 #
coedge $-1 $99 $158 $260 $266 reversed $62 $-1 #
coedge $-1 $262 $267 $99 $161 forward $257 $-1 #
edge $-1 $268 36.1295851286797 $269 39.532709421484604 $160 $270 forward 7 unknown #
loop $-1 $-1 $167 $100 #
plane-surface $-1 38.398542858294562 -20.974073760140563 4.498238862051366 0 -0.57357644374324357 0.81915203911291934 1 0 0 forward_v I I I I #
loop $-1 $-1 $271 $64 #
coedge $-1 $165 $165 $166 $272 reversed $101 $-1 #
coedge $-1 $166 $166 $165 $272 forward $103 $-1 #
coedge $-1 $167 $167 $104 $168 forward $162 $-1 #
edge $-1 $273 8.0227154320661095e-016 $273 6.2831853071796013 $167 $274 forward 7 unknown #
loop $-1 $-1 $174 $105 #
plane-surface $-1 38.398542858294562 -20.974073760140563 4.498238862051366 0 -0.57357644374324357 0.81915203911291934 1 0 0 forward_v I I I I #
loop $-1 $-1 $275 $67 #
coedge $-1 $172 $172 $173 $276 reversed $106 $-1 #
coedge $-1 $173 $173 $172 $276 forward $108 $-1 #
coedge $-1 $174 $174 $109 $175 forward $169 $-1 #
edge $-1 $277 8.0227154320661095e-016 $277 6.2831853071796013 $174 $278 forward 7 unknown #
face $-1 $279 $280 $38 $-1 $281 reversed single #
loop $-1 $-1 $282 $110 #
plane-surface $-1 -28.683777141517016 46.998689224320898 109.95054066012166 -1 0 0 0 0.5877852598018023 0.80901698891910034 forward_v I I I I #
coedge $-1 $283 $284 $285 $286 reversed $111 $-1 #
coedge $-1 $181 $113 $287 $288 reversed $71 $-1 #
coedge $-1 $113 $180 $283 $289 reversed $71 $-1 #
coedge $-1 $285 $290 $113 $183 forward $291 $-1 #
edge $-1 $292 2.5252708520198794 $293 9.5958579018087455 $182 $294 forward 7 unknown #
loop $-1 $-1 $189 $114 #
plane-surface $-1 -36.865918854234053 -12.962690237451504 27.420783653360544 0 0.5877852598018023 0.80901698891910034 1 0 0 forward_v I I I I #
loop $-1 $-1 $295 $73 #
coedge $-1 $187 $187 $188 $296 reversed $115 $-1 #
coedge $-1 $188 $188 $187 $296 forward $117 $-1 #
coedge $-1 $189 $189 $118 $190 forward $184 $-1 #
edge $-1 $297 -1.0383449354295376e-015 $297 6.2831853071795996 $189 $298 forward 7 unknown #
loop $-1 $-1 $196 $119 #
plane-surface $-1 -36.865918854234053 -12.962690237451504 27.420783653360544 0 0.5877852598018023 0.80901698891910034 1 0 0 forward_v I I I I #
loop $-1 $-1 $299 $76 #
coedge $-1 $194 $194 $195 $300 reversed $120 $-1 #
coedge $-1 $195 $195 $194 $300 forward $122 $-1 #
coedge $-1 $196 $196 $123 $197 forward $191 $-1 #
edge $-1 $301 -1.0383449354295376e-015 $301 6.2831853071795996 $196 $302 forward 7 unknown #
face $-1 $303 $304 $41 $-1 $305 forward single #
loop $-1 $-1 $306 $124 #
plane-surface $-1 19.343350770670344 46.998689224320898 109.95054066012166 -1 0 0 0 0.5877852598018023 0.80901698891910034 forward_v I I I I #
coedge $-1 $307 $308 $309 $310 reversed $125 $-1 #
coedge $-1 $203 $127 $311 $312 reversed $80 $-1 #
coedge $-1 $127 $202 $307 $313 reversed $80 $-1 #
coedge $-1 $309 $314 $127 $205 forward $304 $-1 #
edge $-1 $315 2.5252708520198794 $316 9.5958579018087455 $204 $317 forward 7 unknown #
loop $-1 $-1 $211 $128 #
plane-surface $-1 11.161209057953307 -12.962690237451504 27.420783653360544 0 0.5877852598018023 0.80901698891910034 1 0 0 forward_v I I I I #
loop $-1 $-1 $318 $82 #
coedge $-1 $209 $209 $210 $319 reversed $129 $-1 #
coedge $-1 $210 $210 $209 $319 forward $131 $-1 #
coedge $-1 $211 $211 $132 $212 forward $206 $-1 #
edge $-1 $320 -1.0383449354295376e-015 $320 6.2831853071795996 $211 $321 forward 7 unknown #
loop $-1 $-1 $218 $133 #
plane-surface $-1 11.161209057953307 -12.962690237451504 27.420783653360544 0 0.5877852598018023 0.80901698891910034 1 0 0 forward_v I I I I #
loop $-1 $-1 $322 $85 #
coedge $-1 $216 $216 $217 $323 reversed $134 $-1 #
coedge $-1 $217 $217 $216 $323 forward $136 $-1 #
coedge $-1 $218 $218 $137 $219 forward $213 $-1 #
edge $-1 $324 -1.0383449354295376e-015 $324 6.2831853071795996 $218 $325 forward 7 unknown #
face $-1 $326 $327 $33 $-1 $328 reversed single #
loop $-1 $-1 $329 $138 #
plane-surface $-1 -51.006195257423627 0 0 1 0 0 0 0 -1 forward_v I I I I #
coedge $-1 $330 $231 $331 $332 forward $139 $-1 #
coedge $-1 $333 $141 $330 $334 forward $89 $-1 #
coedge $-1 $141 $333 $335 $336 forward $89 $-1 #
coedge $-1 $234 $233 $141 $227 reversed $235 $-1 #
edge $-1 $337 -20.97407376014057 $338 20.97407376014057 $226 $339 forward 7 unknown #
coedge $-1 $143 $142 $340 $341 forward $56 $-1 #
coedge $-1 $342 $343 $142 $230 reversed $327 $-1 #
edge $-1 $237 -51.006195257423627 $344 51.006195257423627 $229 $345 forward 7 unknown #
coedge $-1 $223 $346 $143 $232 reversed $139 $-1 #
edge $-1 $347 -51.006195257423627 $236 51.006195257423627 $231 $348 forward 7 unknown #
coedge $-1 $226 $144 $346 $349 forward $235 $-1 #
coedge $-1 $144 $226 $342 $350 reversed $235 $-1 #
loop $-1 $-1 $233 $326 #
vertex $-1 $145 $351 #
vertex $-1 $145 $352 #
straight-curve $-1 51.006195257423627 0 7.9013631548562637 0 1 0 I I #
face $-1 $353 $354 $34 $-1 $355 reversed single #
loop $-1 $-1 $356 $146 #
plane-surface $-1 0 -20.97407376014057 0 0 1 0 0 0 1 forward_v I I I I #
coedge $-1 $245 $152 $357 $358 reversed $147 $-1 #
coedge $-1 $359 $149 $356 $360 reversed $93 $-1 #
coedge $-1 $149 $359 $361 $362 reversed $93 $-1 #
coedge $-1 $252 $242 $149 $246 reversed $147 $-1 #
edge $-1 $363 -20.97407376014057 $364 20.97407376014057 $245 $365 forward 7 unknown #
coedge $-1 $151 $150 $366 $367 reversed $59 $-1 #
coedge $-1 $368 $369 $150 $249 forward $370 $-1 #
edge $-1 $371 -26.992631301329947 $254 -21.034496610857413 $248 $372 forward 7 unknown #
coedge $-1 $373 $357 $151 $251 forward $240 $-1 #
edge $-1 $253 21.034496610857413 $374 26.992631301329947 $250 $375 forward 7 unknown #
coedge $-1 $152 $245 $368 $376 reversed $147 $-1 #
vertex $-1 $251 $377 #
vertex $-1 $249 $378 #
straight-curve $-1 -45.048060566951094 0 0.47494575415720686 0 1 0 I I #
face $-1 $-1 $379 $35 $-1 $380 reversed single #
loop $-1 $-1 $160 $154 #
plane-surface $-1 0 -20.97407376014057 0 0 1 0 0 0 1 forward_v I I I I #
coedge $-1 $264 $381 $382 $383 forward $155 $-1 #
coedge $-1 $382 $157 $159 $266 forward $97 $-1 #
coedge $-1 $157 $382 $384 $385 reversed $97 $-1 #
coedge $-1 $386 $160 $157 $263 forward $257 $-1 #
edge $-1 $269 6.5916190300182151 $387 31.806923828276346 $262 $388 forward 7 unknown #
coedge $-1 $389 $259 $158 $265 forward $155 $-1 #
edge $-1 $390 -23.629080286673407 $268 -18.768915204556251 $264 $391 forward 7 unknown #
edge $-1 $269 -8.8770546250341341e-015 $390 5.9331660669249455 $159 $392 forward 7 unknown #
coedge $-1 $160 $386 $389 $393 reversed $257 $-1 #
vertex $-1 $393 $394 #
vertex $-1 $161 $395 #
straight-curve $-1 25.790890459165496 -20.97407376014057 44.030948283535963 0 0 -1 I I #
coedge $-1 $271 $271 $-1 $396 reversed $164 $-1 #
edge $-1 $397 0 $397 6.2831853071796004 $165 $398 forward 7 unknown #
vertex $-1 $168 $399 #
ellipse-curve $-1 32.995263258667819 -18.543991219081995 6.1998010084538109 0 -0.57357644374324357 0.81915203911291934 1 0 0 1 I I #
coedge $-1 $275 $275 $-1 $400 reversed $171 $-1 #
edge $-1 $401 0 $401 6.2831853071796004 $172 $402 forward 7 unknown #
vertex $-1 $175 $403 #
ellipse-curve $-1 43.801822457921304 -18.543991219081995 6.1998010084538109 0 -0.57357644374324357 0.81915203911291934 1 0 0 1 I I #
face $-1 $-1 $291 $38 $-1 $404 forward single #
loop $-1 $-1 $405 $176 #
plane-surface $-1 0 20.97407376014057 0 0 -1 0 0 0 -1 forward_v I I I I #
coedge $-1 $406 $407 $408 $409 reversed $177 $-1 #
coedge $-1 $410 $179 $181 $289 forward $111 $-1 #
coedge $-1 $179 $410 $406 $411 forward $111 $-1 #
coedge $-1 $408 $182 $179 $286 forward $291 $-1 #
edge $-1 $293 -26.615101139834067 $412 -10.250817714399989 $285 $413 forward 7 unknown #
coedge $-1 $414 $415 $180 $288 forward $280 $-1 #
edge $-1 $416 -52.210989465113066 $292 -47.073907175204567 $287 $417 forward 7 unknown #
edge $-1 $293 33.208421226973464 $416 41.94814752028114 $181 $418 forward 7 unknown #
coedge $-1 $182 $408 $414 $419 forward $291 $-1 #
loop $-1 $-1 $408 $279 #
vertex $-1 $288 $420 #
vertex $-1 $183 $421 #
straight-curve $-1 -45.048060566951094 23.499344612160449 7.9013631548562628 0 -1 0 I I #
coedge $-1 $295 $295 $-1 $422 reversed $186 $-1 #
edge $-1 $423 0 $423 6.2831853071796004 $187 $424 forward 7 unknown #
vertex $-1 $190 $425 #
ellipse-curve $-1 -40.372551016827067 17.438780235246135 5.3328220099020145 0 0.5877852598018023 0.80901698891910034 1 0 0 1 I I #
coedge $-1 $299 $299 $-1 $426 reversed $193 $-1 #
edge $-1 $427 0 $427 6.2831853071796004 $194 $428 forward 7 unknown #
vertex $-1 $197 $429 #
ellipse-curve $-1 -33.359286691641039 17.438780235246135 5.3328220099020145 0 0.5877852598018023 0.80901698891910034 1 0 0 1 I I #
face $-1 $-1 $430 $41 $-1 $431 reversed single #
loop $-1 $-1 $204 $198 #
plane-surface $-1 0 0 7.9013631548562637 0 0 1 1 0 0 forward_v I I I I #
coedge $-1 $432 $433 $434 $435 reversed $199 $-1 #
coedge $-1 $436 $201 $203 $313 forward $125 $-1 #
coedge $-1 $201 $436 $432 $437 forward $125 $-1 #
coedge $-1 $434 $204 $201 $310 forward $304 $-1 #
edge $-1 $316 -2.6015371837403833 $438 13.762746241693691 $309 $439 forward 7 unknown #
coedge $-1 $440 $441 $202 $312 forward $430 $-1 #
edge $-1 $442 -52.210989465113066 $315 -47.073907175204567 $311 $443 forward 7 unknown #
edge $-1 $316 33.208421226973464 $442 41.94814752028114 $203 $444 forward 7 unknown #
coedge $-1 $204 $434 $440 $445 forward $304 $-1 #
vertex $-1 $205 $446 #
vertex $-1 $205 $447 #
straight-curve $-1 2.9790673452362704 23.499344612160449 7.9013631548562628 0 -1 0 I I #
coedge $-1 $318 $318 $-1 $448 reversed $208 $-1 #
edge $-1 $449 0 $449 6.2831853071796004 $209 $450 forward 7 unknown #
vertex $-1 $212 $451 #
ellipse-curve $-1 7.6545768953602931 17.438780235246135 5.3328220099020145 0 0.5877852598018023 0.80901698891910034 1 0 0 1 I I #
coedge $-1 $322 $322 $-1 $452 reversed $215 $-1 #
edge $-1 $453 0 $453 6.2831853071796004 $216 $454 forward 7 unknown #
vertex $-1 $219 $455 #
ellipse-curve $-1 14.667841220546322 17.438780235246135 5.3328220099020145 0 0.5877852598018023 0.80901698891910034 1 0 0 1 I I #
face $-1 $-1 $235 $33 $-1 $456 reversed single #
loop $-1 $-1 $342 $220 #
plane-surface $-1 0 20.97407376014057 0 0 -1 0 0 0 -1 forward_v I I I I #
coedge $-1 $457 $340 $343 $458 forward $221 $-1 #
coedge $-1 $346 $223 $224 $334 reversed $139 $-1 #
coedge $-1 $340 $457 $223 $332 reversed $221 $-1 #
edge $-1 $347 -7.9013631548562637 $459 7.9013631548562637 $331 $460 forward 7 unknown #
coedge $-1 $225 $224 $457 $461 forward $89 $-1 #
edge $-1 $338 -51.006195257423627 $459 51.006195257423627 $330 $462 forward 7 unknown #
coedge $-1 $343 $342 $225 $336 reversed $327 $-1 #
edge $-1 $463 -51.006195257423627 $337 51.006195257423627 $335 $464 forward 7 unknown #
vertex $-1 $227 $465 #
vertex $-1 $349 $466 #
straight-curve $-1 51.006195257423627 0 -7.9013631548562637 0 -1 0 I I #
coedge $-1 $329 $331 $228 $341 reversed $221 $-1 #
edge $-1 $344 -20.97407376014057 $347 20.97407376014057 $340 $467 forward 7 unknown #
coedge $-1 $335 $229 $234 $350 forward $327 $-1 #
coedge $-1 $229 $335 $329 $458 reversed $327 $-1 #
vertex $-1 $230 $468 #
straight-curve $-1 0 20.97407376014057 7.9013631548562637 -1 0 0 I I #
coedge $-1 $231 $330 $233 $349 reversed $139 $-1 #
vertex $-1 $341 $469 #
straight-curve $-1 0 -20.97407376014057 7.9013631548562637 1 0 0 I I #
edge $-1 $236 -7.9013631548562637 $338 7.9013631548562637 $233 $470 forward 7 unknown #
edge $-1 $237 -7.9013631548562637 $337 7.9013631548562637 $234 $471 forward 7 unknown #
point $-1 51.006195257423627 -20.97407376014057 7.9013631548562637 #
point $-1 51.006195257423627 20.97407376014057 7.9013631548562637 #
face $-1 $-1 $370 $34 $-1 $472 reversed single #
loop $-1 $-1 $473 $239 #
plane-surface $-1 -51.006195257423627 0 0 1 0 0 0 0 -1 forward_v I I I I #
coedge $-1 $357 $373 $243 $360 forward $240 $-1 #
coedge $-1 $250 $356 $242 $358 forward $240 $-1 #
edge $-1 $364 -2.0125271229213966 $253 0.98747287707860343 $357 $474 forward 7 unknown #
coedge $-1 $244 $243 $473 $475 reversed $93 $-1 #
edge $-1 $476 -26.992631301329947 $364 -21.034496610857413 $356 $477 forward 7 unknown #
coedge $-1 $369 $368 $244 $362 forward $370 $-1 #
edge $-1 $363 21.034496610857413 $478 26.992631301329947 $361 $479 forward 7 unknown #
vertex $-1 $362 $480 #
vertex $-1 $360 $481 #
straight-curve $-1 -45.048060566951094 0 -2.5250542458427931 0 -1 0 I I #
coedge $-1 $482 $483 $247 $367 forward $354 $-1 #
edge $-1 $374 -20.97407376014057 $371 20.97407376014057 $366 $484 forward 7 unknown #
coedge $-1 $361 $248 $252 $376 forward $370 $-1 #
coedge $-1 $248 $361 $482 $485 reversed $370 $-1 #
loop $-1 $-1 $361 $353 #
vertex $-1 $485 $486 #
straight-curve $-1 -24.01356395609368 20.97407376014057 0.47494575415720686 1 0 0 I I #
coedge $-1 $356 $250 $483 $487 forward $240 $-1 #
vertex $-1 $487 $488 #
straight-curve $-1 -24.01356395609368 -20.97407376014057 0.47494575415720686 -1 0 0 I I #
edge $-1 $254 -0.98747287707860343 $363 2.0125271229213966 $368 $489 forward 7 unknown #
point $-1 -45.048060566951094 -20.97407376014057 0.47494575415720686 #
point $-1 -45.048060566951094 20.97407376014057 0.47494575415720686 #
loop $-1 $-1 $384 $256 #
plane-surface $-1 51.006195257423627 0 0 -1 0 0 0 0 1 forward_v I I I I #
coedge $-1 $259 $389 $490 $491 forward $155 $-1 #
coedge $-1 $261 $260 $259 $383 reversed $97 $-1 #
edge $-1 $492 -31.806923828276346 $390 -6.5916190300182151 $259 $493 forward 7 unknown #
coedge $-1 $490 $494 $261 $385 forward $379 $-1 #
edge $-1 $387 -7.3004357197604293 $492 -1.3672696528354751 $384 $495 forward 7 unknown #
coedge $-1 $267 $262 $494 $496 reversed $257 $-1 #
vertex $-1 $263 $497 #
straight-curve $-1 19.199271429147281 -20.97407376014057 4.4982388620513616 1 0 0 I I #
coedge $-1 $381 $264 $267 $393 forward $155 $-1 #
vertex $-1 $265 $498 #
straight-curve $-1 25.790890459165496 -39.742988964696821 7.9013631548562628 0 -1 0 I I #
straight-curve $-1 25.790890459165496 -20.974073760140563 4.498238862051366 0 0.81915203911291934 0.57357644374324357 I I #
edge $-1 $268 25.790890459165496 $499 51.006195257423627 $267 $500 forward 7 unknown #
point $-1 25.790890459165496 -20.97407376014057 7.9013631548562637 #
point $-1 25.790890459165496 -20.97407376014057 4.4982388620513607 #
edge $-1 $501 1 $501 0 $271 $-1 forward 7 unknown #
vertex $-1 $272 $502 #
ellipse-curve $-1 32.995263258667819 -17.587376970779609 4.8336143027596208 0 -0.57357644374324357 0.81915203911291934 1 0 0 1 I I #
point $-1 33.995263258667819 -18.543991219082002 6.1998010084538224 #
edge $-1 $503 1 $503 0 $275 $-1 forward 7 unknown #
vertex $-1 $276 $504 #
ellipse-curve $-1 43.801822457921304 -17.587376970779609 4.8336143027596208 0 -0.57357644374324357 0.81915203911291934 1 0 0 1 I I #
point $-1 44.801822457921304 -18.543991219082002 6.1998010084538224 #
plane-surface $-1 0 0 7.9013631548562637 0 0 1 1 0 0 forward_v I I I I #
coedge $-1 $415 $414 $407 $505 forward $280 $-1 #
coedge $-1 $407 $282 $284 $411 reversed $177 $-1 #
coedge $-1 $282 $406 $405 $505 reversed $177 $-1 #
coedge $-1 $290 $285 $282 $409 forward $291 $-1 #
edge $-1 $412 -9.5958579018087455 $506 -2.5252708520198794 $408 $507 forward 7 unknown #
coedge $-1 $284 $283 $415 $508 reversed $111 $-1 #
edge $-1 $509 -41.94814752028114 $412 -33.208421226973464 $406 $510 forward 7 unknown #
vertex $-1 $286 $511 #
straight-curve $-1 -18.432959427117027 13.903486710351704 7.9013631548562628 1 0 0 I I #
coedge $-1 $405 $287 $290 $419 reversed $280 $-1 #
coedge $-1 $287 $405 $410 $508 forward $280 $-1 #
vertex $-1 $288 $512 #
straight-curve $-1 -45.048060566951094 20.97407376014057 54.97527033006083 0 0 1 I I #
straight-curve $-1 -45.048060566951094 -12.962690237451504 27.420783653360544 0 0.80901698891910034 -0.5877852598018023 I I #
edge $-1 $506 28.683777141517016 $292 45.048060566951094 $414 $513 forward 7 unknown #
point $-1 -45.048060566951094 20.97407376014057 7.9013631548562637 #
point $-1 -45.048060566951094 13.903486710351704 7.9013631548562593 #
edge $-1 $514 1 $514 0 $295 $-1 forward 7 unknown #
vertex $-1 $296 $515 #
ellipse-curve $-1 -40.372551016827067 16.714681605613904 4.3361857668920338 0 0.5877852598018023 0.80901698891910034 1 0 0 1 I I #
point $-1 -39.372551016827067 17.438780235246142 5.332822009902026 #
edge $-1 $516 1 $516 0 $299 $-1 forward 7 unknown #
vertex $-1 $300 $517 #
ellipse-curve $-1 -33.359286691641039 16.714681605613904 4.3361857668920338 0 0.5877852598018023 0.80901698891910034 1 0 0 1 I I #
point $-1 -32.359286691641039 17.438780235246142 5.332822009902026 #
loop $-1 $-1 $311 $303 #
plane-surface $-1 0 20.97407376014057 0 0 -1 0 0 0 -1 forward_v I I I I #
coedge $-1 $433 $306 $308 $437 reversed $199 $-1 #
coedge $-1 $306 $432 $518 $519 reversed $199 $-1 #
coedge $-1 $314 $309 $306 $435 forward $304 $-1 #
edge $-1 $438 -9.5958579018087455 $520 -2.5252708520198794 $434 $521 forward 7 unknown #
coedge $-1 $308 $307 $441 $522 reversed $125 $-1 #
edge $-1 $523 -41.94814752028114 $438 -33.208421226973464 $432 $524 forward 7 unknown #
vertex $-1 $310 $525 #
straight-curve $-1 5.5806045289766537 13.903486710351704 7.9013631548562628 1 0 0 I I #
coedge $-1 $518 $311 $314 $445 reversed $430 $-1 #
coedge $-1 $311 $518 $436 $522 forward $430 $-1 #
vertex $-1 $312 $526 #
straight-curve $-1 2.9790673452362704 20.97407376014057 54.97527033006083 0 0 1 I I #
straight-curve $-1 2.9790673452362704 -12.962690237451504 27.420783653360544 0 0.80901698891910034 -0.5877852598018023 I I #
edge $-1 $520 -19.343350770670344 $315 -2.9790673452362704 $440 $527 forward 7 unknown #
point $-1 2.9790673452362704 20.97407376014057 7.9013631548562637 #
point $-1 2.9790673452362704 13.903486710351704 7.9013631548562593 #
edge $-1 $528 1 $528 0 $318 $-1 forward 7 unknown #
vertex $-1 $319 $529 #
ellipse-curve $-1 7.6545768953602931 16.714681605613904 4.3361857668920338 0 0.5877852598018023 0.80901698891910034 1 0 0 1 I I #
point $-1 8.6545768953602931 17.438780235246142 5.332822009902026 #
edge $-1 $530 1 $530 0 $322 $-1 forward 7 unknown #
vertex $-1 $323 $531 #
ellipse-curve $-1 14.667841220546322 16.714681605613904 4.3361857668920338 0 0.5877852598018023 0.80901698891910034 1 0 0 1 I I #
point $-1 15.667841220546322 17.438780235246142 5.332822009902026 #
plane-surface $-1 51.006195257423627 0 0 -1 0 0 0 0 1 forward_v I I I I #
coedge $-1 $331 $329 $333 $461 reversed $221 $-1 #
edge $-1 $344 -7.9013631548562637 $463 7.9013631548562637 $343 $532 forward 7 unknown #
vertex $-1 $461 $533 #
straight-curve $-1 -51.006195257423627 -20.97407376014057 0 0 0 -1 I I #
edge $-1 $459 -20.97407376014057 $463 20.97407376014057 $457 $534 forward 7 unknown #
straight-curve $-1 0 -20.97407376014057 -7.9013631548562637 -1 0 0 I I #
vertex $-1 $336 $535 #
straight-curve $-1 0 20.97407376014057 -7.9013631548562637 1 0 0 I I #
point $-1 51.006195257423627 20.97407376014057 -7.9013631548562637 #
point $-1 51.006195257423627 -20.97407376014057 -7.9013631548562637 #
straight-curve $-1 -51.006195257423627 0 7.9013631548562637 0 -1 0 I I #
point $-1 -51.006195257423627 20.97407376014057 7.9013631548562637 #
point $-1 -51.006195257423627 -20.97407376014057 7.9013631548562637 #
straight-curve $-1 51.006195257423627 -20.97407376014057 0 0 0 -1 I I #
straight-curve $-1 51.006195257423627 20.97407376014057 0 0 0 -1 I I #
plane-surface $-1 0 20.97407376014057 0 0 -1 0 0 0 -1 forward_v I I I I #
coedge $-1 $483 $482 $359 $475 forward $354 $-1 #
straight-curve $-1 -45.048060566951094 -20.97407376014057 -0.51252712292139657 0 0 1 I I #
edge $-1 $478 -20.97407376014057 $476 20.97407376014057 $473 $536 forward 7 unknown #
vertex $-1 $360 $537 #
straight-curve $-1 -24.01356395609368 -20.97407376014057 -2.5250542458427931 1 0 0 I I #
vertex $-1 $362 $538 #
straight-curve $-1 -24.01356395609368 20.97407376014057 -2.5250542458427931 -1 0 0 I I #
point $-1 -45.048060566951094 20.97407376014057 -2.5250542458427931 #
point $-1 -45.048060566951094 -20.97407376014057 -2.5250542458427931 #
coedge $-1 $473 $366 $369 $485 forward $354 $-1 #
coedge $-1 $366 $473 $373 $487 reversed $354 $-1 #
straight-curve $-1 -51.006195257423627 0 0.47494575415720686 0 1 0 I I #
edge $-1 $371 -0.47494575415720686 $478 2.5250542458427931 $369 $539 forward 7 unknown #
point $-1 -51.006195257423627 20.97407376014057 0.47494575415720686 #
edge $-1 $374 -0.47494575415720686 $476 2.5250542458427931 $483 $540 forward 7 unknown #
point $-1 -51.006195257423627 -20.97407376014057 0.47494575415720686 #
straight-curve $-1 -45.048060566951094 20.97407376014057 -0.51252712292139657 0 0 -1 I I #
coedge $-1 $494 $384 $381 $491 reversed $379 $-1 #
edge $-1 $499 -20.97407376014057 $492 -16.113908678023414 $490 $541 forward 7 unknown #
vertex $-1 $385 $542 #
straight-curve $-1 19.199271429147281 -16.113908678023414 7.9013631548562646 -1 0 0 I I #
coedge $-1 $384 $490 $386 $496 forward $379 $-1 #
straight-curve $-1 51.006195257423627 -14.993906953886022 8.6855968199676958 0 0.81915203911291934 0.57357644374324357 I I #
edge $-1 $499 -7.9013631548562637 $387 -4.4982388620513607 $494 $543 forward 7 unknown #
point $-1 51.006195257423627 -20.97407376014057 4.4982388620513607 #
point $-1 25.790890459165496 -16.113908678023414 7.9013631548562637 #
vertex $-1 $491 $544 #
straight-curve $-1 0 -20.97407376014057 7.9013631548562637 1 0 0 I I #
vertex $-1 $396 $545 #
point $-1 33.995263258667819 -17.587376970779609 4.8336143027596208 #
vertex $-1 $400 $546 #
point $-1 44.801822457921304 -17.587376970779609 4.8336143027596208 #
edge $-1 $506 47.073907175204567 $509 52.210989465113066 $405 $547 forward 7 unknown #
vertex $-1 $419 $548 #
straight-curve $-1 -28.683777141517016 23.499344612160449 7.9013631548562628 0 1 0 I I #
edge $-1 $509 10.250817714399989 $416 26.615101139834067 $415 $549 forward 7 unknown #
vertex $-1 $508 $550 #
straight-curve $-1 -28.683777141517016 -12.962690237451504 27.420783653360544 0 -0.80901698891910034 0.5877852598018023 I I #
point $-1 -28.683777141517016 13.903486710351704 7.9013631548562593 #
point $-1 -45.048060566951094 20.97407376014057 2.7642808649477644 #
straight-curve $-1 0 20.97407376014057 7.9013631548562637 -1 0 0 I I #
vertex $-1 $422 $551 #
point $-1 -39.372551016827067 16.714681605613904 4.3361857668920338 #
vertex $-1 $426 $552 #
point $-1 -32.359286691641039 16.714681605613904 4.3361857668920338 #
coedge $-1 $441 $440 $433 $519 forward $430 $-1 #
edge $-1 $520 47.073907175204567 $523 52.210989465113066 $518 $553 forward 7 unknown #
vertex $-1 $445 $554 #
straight-curve $-1 19.343350770670344 23.499344612160449 7.9013631548562628 0 1 0 I I #
edge $-1 $523 -13.762746241693691 $442 2.6015371837403833 $441 $555 forward 7 unknown #
vertex $-1 $522 $556 #
straight-curve $-1 19.343350770670344 -12.962690237451504 27.420783653360544 0 -0.80901698891910034 0.5877852598018023 I I #
point $-1 19.343350770670344 13.903486710351704 7.9013631548562593 #
point $-1 2.9790673452362704 20.97407376014057 2.7642808649477644 #
straight-curve $-1 0 20.97407376014057 7.9013631548562637 -1 0 0 I I #
vertex $-1 $448 $557 #
point $-1 8.6545768953602931 16.714681605613904 4.3361857668920338 #
vertex $-1 $452 $558 #
point $-1 15.667841220546322 16.714681605613904 4.3361857668920338 #
straight-curve $-1 -51.006195257423627 20.97407376014057 0 0 0 -1 I I #
point $-1 -51.006195257423627 -20.97407376014057 -7.9013631548562637 #
straight-curve $-1 -51.006195257423627 0 -7.9013631548562637 0 1 0 I I #
point $-1 -51.006195257423627 20.97407376014057 -7.9013631548562637 #
straight-curve $-1 -51.006195257423627 0 -2.5250542458427931 0 -1 0 I I #
point $-1 -51.006195257423627 -20.97407376014057 -2.5250542458427931 #
point $-1 -51.006195257423627 20.97407376014057 -2.5250542458427931 #
straight-curve $-1 -51.006195257423627 20.97407376014057 0 0 0 -1 I I #
straight-curve $-1 -51.006195257423627 -20.97407376014057 0 0 0 -1 I I #
straight-curve $-1 51.006195257423627 0 7.9013631548562637 0 1 0 I I #
point $-1 51.006195257423627 -16.113908678023414 7.9013631548562637 #
straight-curve $-1 51.006195257423627 -20.97407376014057 0 0 0 -1 I I #
point $-1 51.006195257423627 -20.97407376014057 7.9013631548562637 #
point $-1 32.995263258667819 -17.013800527036366 4.0144622636467009 #
point $-1 43.801822457921304 -17.013800527036366 4.0144622636467009 #
straight-curve $-1 -28.683777141517016 20.97407376014057 54.97527033006083 0 0 -1 I I #
point $-1 -28.683777141517016 20.97407376014057 7.9013631548562637 #
straight-curve $-1 -18.432959427117027 20.97407376014057 2.7642808649477644 -1 0 0 I I #
point $-1 -28.683777141517016 20.97407376014057 2.7642808649477644 #
point $-1 -40.372551016827067 16.126896345812099 3.5271687779729333 #
point $-1 -33.359286691641039 16.126896345812099 3.5271687779729333 #
straight-curve $-1 19.343350770670344 20.97407376014057 54.97527033006083 0 0 -1 I I #
point $-1 19.343350770670344 20.97407376014057 7.9013631548562637 #
straight-curve $-1 5.5806045289766537 20.97407376014057 2.7642808649477644 -1 0 0 I I #
point $-1 19.343350770670344 20.97407376014057 2.7642808649477644 #
point $-1 7.6545768953602931 16.126896345812099 3.5271687779729333 #
point $-1 14.667841220546322 16.126896345812099 3.5271687779729333 #
End-of-ACIS-data 