500 0 8 0           
7 Unknown 11 ACIS 5.0 NT 24 Fri Mar 26 20:13:23 1999 
-1 9.9999999999999995e-007 1e-010 
body $-1 $8 $-1 $9 #
body $-1 $10 $-1 $11 #
body $-1 $12 $-1 $13 #
body $-1 $14 $-1 $15 #
body $-1 $16 $-1 $17 #
body $-1 $18 $-1 $19 #
body $-1 $20 $-1 $21 #
body $-1 $22 $-1 $23 #
lump $-1 $-1 $24 $0 #
transform $-1 1 0 0 0 1 0 0 0 1 57.858211004974521 25.055587710757393 7.8818010769189408 1 rotate no_reflect no_shear #
lump $-1 $-1 $25 $1 #
transform $-1 1 0 0 0 1 0 0 0 1 57.858211004974521 25.055587710757393 7.8818010769189408 1 rotate no_reflect no_shear #
lump $-1 $-1 $26 $2 #
transform $-1 1 0 0 0 1 0 0 0 1 57.858211004974521 25.055587710757393 7.8818010769189408 1 rotate no_reflect no_shear #
lump $-1 $-1 $27 $3 #
transform $-1 1 0 0 0 1 0 0 0 1 57.858211004974521 25.055587710757393 7.8818010769189408 1 rotate no_reflect no_shear #
lump $-1 $-1 $28 $4 #
transform $-1 1 0 0 0 1 0 0 0 1 57.858211004974521 25.055587710757393 7.8818010769189408 1 rotate no_reflect no_shear #
lump $-1 $-1 $29 $5 #
transform $-1 1 0 0 0 1 0 0 0 1 57.858211004974521 25.055587710757393 7.8818010769189408 1 rotate no_reflect no_shear #
lump $-1 $-1 $30 $6 #
transform $-1 1 0 0 0 1 0 0 0 1 57.858211004974521 25.055587710757393 7.8818010769189408 1 rotate no_reflect no_shear #
lump $-1 $-1 $31 $7 #
transform $-1 1 0 0 0 1 0 0 0 1 57.858211004974521 25.055587710757393 7.8818010769189408 1 rotate no_reflect no_shear #
shell $-1 $-1 $-1 $32 $-1 $8 #
shell $-1 $-1 $-1 $33 $-1 $10 #
shell $-1 $-1 $-1 $34 $-1 $12 #
shell $-1 $-1 $-1 $35 $-1 $14 #
shell $-1 $-1 $-1 $36 $-1 $16 #
shell $-1 $-1 $-1 $37 $-1 $18 #
shell $-1 $-1 $-1 $38 $-1 $20 #
shell $-1 $-1 $-1 $39 $-1 $22 #
face $-1 $40 $41 $24 $-1 $42 forward single #
face $-1 $43 $44 $25 $-1 $45 forward single #
face $-1 $46 $47 $26 $-1 $48 reversed single #
face $-1 $49 $50 $27 $-1 $51 forward single #
face $-1 $52 $53 $28 $-1 $54 reversed single #
face $-1 $55 $56 $29 $-1 $57 forward single #
face $-1 $58 $59 $30 $-1 $60 reversed single #
face $-1 $61 $62 $31 $-1 $63 forward single #
face $-1 $64 $65 $24 $-1 $66 reversed single #
loop $-1 $-1 $67 $32 #
plane-surface $-1 0 0 7.8818010769189408 0 0 1 1 0 0 forward_v I I I I #
face $-1 $68 $69 $25 $-1 $70 reversed single #
loop $-1 $-1 $71 $33 #
plane-surface $-1 0 -20.717871790951701 7.1557244017654691 0 0 1 1 0 0 forward_v I I I I #
face $-1 $72 $73 $26 $-1 $74 reversed single #
loop $-1 $-1 $75 $34 #
plane-surface $-1 83.458358884212004 -8.915571766149009 163.72575428608613 0 1 0 0.80901700255871778 0 0.5877852410284794 forward_v I I I I #
face $-1 $76 $77 $27 $-1 $78 forward single #
loop $-1 $79 $80 $35 #
cone-surface $-1 54.912636628110612 -3.7897807077761314 4.3751173707346611 -0.80901700255871778 0 -0.5877852410284794 0.5877852410284794 0 -0.80901700255871778 1 I I 0 1 1 forward I I I I #
face $-1 $81 $82 $28 $-1 $83 reversed single #
loop $-1 $-1 $84 $36 #
plane-surface $-1 83.458358884212004 11.802300024802696 163.72575428608613 0 1 0 0.80901700255871778 0 0.5877852410284794 forward_v I I I I #
face $-1 $85 $86 $29 $-1 $87 forward single #
loop $-1 $88 $89 $37 #
cone-surface $-1 54.912636628110612 16.928091083175573 4.3751173707346611 -0.80901700255871778 0 -0.5877852410284794 0.5877852410284794 0 -0.80901700255871778 1 I I 0 1 1 forward I I I I #
face $-1 $90 $91 $30 $-1 $92 reversed single #
loop $-1 $-1 $93 $38 #
plane-surface $-1 -151.47476388628314 -5.6282417305935439 68.511930084679619 0 1 0 -0.80901700255871778 0 0.5877852410284794 forward_v I I I I #
face $-1 $94 $95 $31 $-1 $96 forward single #
loop $-1 $97 $98 $39 #
cone-surface $-1 -52.958259965006654 -0.30977049302389403 2.5781150160825907 0.80901700255871778 0 -0.5877852410284794 0.8816778615427191 0 1.2135255038380768 1 I I 0 1 1.5 forward I I I I #
face $-1 $99 $100 $24 $-1 $101 reversed single #
loop $-1 $-1 $102 $40 #
plane-surface $-1 0 0 -7.8818010769189408 0 0 1 1 0 0 forward_v I I I I #
coedge $-1 $103 $104 $105 $106 forward $41 $-1 #
face $-1 $107 $108 $25 $-1 $109 reversed single #
loop $-1 $-1 $110 $43 #
plane-surface $-1 0 -20.717871790951701 4.1557244017654691 0 0 1 1 0 0 forward_v I I I I #
coedge $-1 $111 $112 $113 $114 reversed $44 $-1 #
face $-1 $115 $116 $26 $-1 $117 reversed single #
loop $-1 $-1 $118 $46 #
plane-surface $-1 -10.158193997096603 -3.7897807077761314 95.709349284014991 0.80901700255871778 0 0.5877852410284794 0.5877852410284794 0 -0.80901700255871778 forward_v I I I I #
coedge $-1 $119 $120 $121 $122 reversed $47 $-1 #
face $-1 $-1 $123 $27 $-1 $124 forward single #
loop $-1 $125 $126 $49 #
cone-surface $-1 53.665532733712524 -3.7897807077761314 3.4690433811424191 -0.80901700255871778 0 -0.5877852410284794 0.2938926205142397 0 -0.40450850127935889 1 I I -0.70710678118654746 0.70710678118654746 0.5 forward I I I I #
loop $-1 $-1 $127 $35 #
coedge $-1 $80 $80 $128 $129 reversed $50 $-1 #
face $-1 $130 $131 $28 $-1 $132 reversed single #
loop $-1 $-1 $133 $52 #
plane-surface $-1 -10.158193997096603 16.928091083175573 95.709349284014991 0.80901700255871778 0 0.5877852410284794 0.5877852410284794 0 -0.80901700255871778 forward_v I I I I #
coedge $-1 $134 $135 $136 $137 reversed $53 $-1 #
face $-1 $-1 $138 $29 $-1 $139 forward single #
loop $-1 $140 $141 $55 #
cone-surface $-1 53.665532733712524 16.928091083175573 3.4690433811424191 -0.80901700255871778 0 -0.5877852410284794 0.2938926205142397 0 -0.40450850127935889 1 I I -0.70710678118654746 0.70710678118654746 0.5 forward I I I I #
loop $-1 $-1 $142 $37 #
coedge $-1 $89 $89 $143 $144 reversed $56 $-1 #
face $-1 $145 $146 $30 $-1 $147 reversed single #
loop $-1 $-1 $148 $58 #
plane-surface $-1 -57.858211004974535 -0.30977049302389403 0.49552508260848072 -0.80901700255871778 0 0.5877852410284794 0.5877852410284794 0 0.80901700255871778 forward_v I I I I #
coedge $-1 $149 $150 $151 $152 reversed $59 $-1 #
face $-1 $-1 $153 $31 $-1 $154 forward single #
loop $-1 $155 $156 $61 #
cone-surface $-1 -50.134767911283113 -0.30977049302389403 0.52672802163010513 0.80901700255871778 0 -0.5877852410284794 0.44083893077135955 0 0.60676275191903839 1 I I -0.70710678118654757 0.70710678118654757 0.75 forward I I I I #
loop $-1 $-1 $157 $39 #
coedge $-1 $98 $98 $158 $159 reversed $62 $-1 #
face $-1 $160 $161 $24 $-1 $162 reversed single #
loop $-1 $-1 $163 $64 #
plane-surface $-1 0 -25.055587710757393 0 0 1 0 0 0 1 forward_v I I I I #
coedge $-1 $164 $165 $166 $167 forward $65 $-1 #
coedge $-1 $168 $67 $169 $170 forward $41 $-1 #
coedge $-1 $67 $168 $171 $172 forward $41 $-1 #
coedge $-1 $173 $174 $67 $106 reversed $175 $-1 #
edge $-1 $176 -25.055587710757393 $177 25.055587710757393 $105 $178 forward 7 unknown #
face $-1 $179 $180 $25 $-1 $181 reversed single #
loop $-1 $-1 $182 $68 #
plane-surface $-1 0 -16.380155871146009 5.6557244017654691 0 -1 0 0 0 -1 forward_v I I I I #
coedge $-1 $183 $184 $185 $186 reversed $69 $-1 #
coedge $-1 $187 $71 $188 $189 forward $44 $-1 #
coedge $-1 $71 $187 $190 $191 reversed $44 $-1 #
coedge $-1 $192 $193 $71 $114 forward $194 $-1 #
edge $-1 $195 6.0212199756701583 $196 14.696651815281543 $113 $197 forward 7 unknown #
face $-1 $198 $199 $26 $-1 $200 forward single #
loop $-1 $-1 $201 $72 #
plane-surface $-1 83.458358884212004 1.3360103505967462 163.72575428608613 0 -1 0 -0.80901700255871778 0 -0.5877852410284794 forward_v I I I I #
coedge $-1 $202 $203 $204 $205 reversed $73 $-1 #
coedge $-1 $120 $75 $206 $207 reversed $47 $-1 #
coedge $-1 $75 $119 $202 $208 reversed $47 $-1 #
coedge $-1 $204 $209 $75 $122 forward $210 $-1 #
edge $-1 $211 73.981076066124118 $212 79.770080740336667 $121 $213 forward 7 unknown #
loop $-1 $-1 $128 $76 #
plane-surface $-1 -10.158193997096603 -3.7897807077761314 95.709349284014991 0.80901700255871778 0 0.5877852410284794 0.5877852410284794 0 -0.80901700255871778 forward_v I I I I #
loop $-1 $-1 $214 $49 #
coedge $-1 $126 $126 $127 $215 reversed $77 $-1 #
coedge $-1 $127 $127 $126 $215 forward $79 $-1 #
coedge $-1 $128 $128 $80 $129 forward $123 $-1 #
edge $-1 $216 0 $216 6.2831853071796004 $128 $217 forward 7 unknown #
face $-1 $218 $219 $28 $-1 $220 reversed single #
loop $-1 $-1 $221 $81 #
plane-surface $-1 83.458358884212004 22.053882141548449 163.72575428608613 0 -1 0 -0.80901700255871778 0 -0.5877852410284794 forward_v I I I I #
coedge $-1 $222 $223 $224 $225 reversed $82 $-1 #
coedge $-1 $135 $84 $226 $227 reversed $53 $-1 #
coedge $-1 $84 $134 $222 $228 reversed $53 $-1 #
coedge $-1 $224 $229 $84 $137 forward $219 $-1 #
edge $-1 $230 73.981076066124118 $231 79.770080740336667 $136 $232 forward 7 unknown #
loop $-1 $-1 $143 $85 #
plane-surface $-1 -10.158193997096603 16.928091083175573 95.709349284014991 0.80901700255871778 0 0.5877852410284794 0.5877852410284794 0 -0.80901700255871778 forward_v I I I I #
loop $-1 $-1 $233 $55 #
coedge $-1 $141 $141 $142 $234 reversed $86 $-1 #
coedge $-1 $142 $142 $141 $234 forward $88 $-1 #
coedge $-1 $143 $143 $89 $144 forward $138 $-1 #
edge $-1 $235 0 $235 6.2831853071796004 $143 $236 forward 7 unknown #
face $-1 $237 $238 $30 $-1 $239 reversed single #
loop $-1 $-1 $240 $90 #
plane-surface $-1 -151.47476388628314 5.0087007445457559 68.511930084679619 0 -1 0 0.80901700255871778 0 -0.5877852410284794 forward_v I I I I #
coedge $-1 $241 $242 $243 $244 reversed $91 $-1 #
coedge $-1 $150 $93 $245 $246 reversed $59 $-1 #
coedge $-1 $93 $149 $241 $247 reversed $59 $-1 #
coedge $-1 $243 $248 $93 $152 forward $249 $-1 #
edge $-1 $250 17.87917093816705 $251 23.24561441449378 $151 $252 forward 7 unknown #
loop $-1 $-1 $158 $94 #
plane-surface $-1 -57.858211004974535 -0.30977049302389403 0.49552508260848072 -0.80901700255871778 0 0.5877852410284794 0.5877852410284794 0 0.80901700255871778 forward_v I I I I #
loop $-1 $-1 $253 $61 #
coedge $-1 $156 $156 $157 $254 reversed $95 $-1 #
coedge $-1 $157 $157 $156 $254 forward $97 $-1 #
coedge $-1 $158 $158 $98 $159 forward $153 $-1 #
edge $-1 $255 0 $255 6.2831853071796004 $158 $256 forward 7 unknown #
face $-1 $257 $258 $24 $-1 $259 reversed single #
loop $-1 $-1 $260 $99 #
plane-surface $-1 -57.858211004974521 0 0 1 0 0 0 0 -1 forward_v I I I I #
coedge $-1 $261 $171 $262 $263 forward $100 $-1 #
coedge $-1 $264 $102 $261 $265 forward $65 $-1 #
coedge $-1 $102 $264 $266 $267 forward $65 $-1 #
coedge $-1 $174 $173 $102 $167 reversed $175 $-1 #
edge $-1 $268 -25.055587710757393 $269 25.055587710757393 $166 $270 forward 7 unknown #
coedge $-1 $104 $103 $271 $272 forward $41 $-1 #
coedge $-1 $273 $274 $103 $170 reversed $258 $-1 #
edge $-1 $177 -57.858211004974521 $275 57.858211004974521 $169 $276 forward 7 unknown #
coedge $-1 $163 $277 $104 $172 reversed $100 $-1 #
edge $-1 $278 -57.858211004974521 $176 57.858211004974521 $171 $279 forward 7 unknown #
coedge $-1 $166 $105 $277 $280 forward $175 $-1 #
coedge $-1 $105 $166 $273 $281 reversed $175 $-1 #
loop $-1 $-1 $173 $257 #
vertex $-1 $106 $282 #
vertex $-1 $106 $283 #
straight-curve $-1 57.858211004974521 0 7.8818010769189408 0 1 0 I I #
face $-1 $284 $285 $25 $-1 $286 reversed single #
loop $-1 $-1 $287 $107 #
plane-surface $-1 -57.858211004974521 0 0 1 0 0 0 0 -1 forward_v I I I I #
coedge $-1 $288 $188 $193 $289 reversed $108 $-1 #
coedge $-1 $290 $110 $291 $292 reversed $69 $-1 #
coedge $-1 $110 $290 $288 $293 forward $69 $-1 #
coedge $-1 $193 $192 $110 $186 forward $194 $-1 #
edge $-1 $294 -14.696651815281543 $295 -6.0212199756701583 $185 $296 forward 7 unknown #
coedge $-1 $112 $111 $287 $297 reversed $44 $-1 #
coedge $-1 $182 $298 $111 $189 reversed $108 $-1 #
edge $-1 $195 -57.858211004974521 $299 57.858211004974521 $188 $300 forward 7 unknown #
coedge $-1 $301 $302 $112 $191 forward $285 $-1 #
edge $-1 $196 -57.858211004974521 $303 57.858211004974521 $190 $304 forward 7 unknown #
coedge $-1 $185 $113 $302 $305 forward $194 $-1 #
coedge $-1 $113 $185 $182 $289 forward $194 $-1 #
loop $-1 $-1 $113 $284 #
vertex $-1 $114 $306 #
vertex $-1 $305 $307 #
straight-curve $-1 57.858211004974521 -10.358935895475851 7.1557244017654691 0 -1 0 I I #
face $-1 $-1 $210 $26 $-1 $308 reversed single #
loop $-1 $-1 $309 $115 #
plane-surface $-1 0 0 7.8818010769189408 0 0 1 1 0 0 forward_v I I I I #
coedge $-1 $310 $311 $312 $313 reversed $116 $-1 #
coedge $-1 $314 $118 $120 $208 forward $73 $-1 #
coedge $-1 $118 $314 $310 $315 forward $73 $-1 #
coedge $-1 $312 $121 $118 $205 forward $210 $-1 #
edge $-1 $212 -7.0206814122609433 $316 3.2309007044848119 $204 $317 forward 7 unknown #
coedge $-1 $318 $319 $119 $207 forward $199 $-1 #
edge $-1 $320 11.923073595378142 $211 16.129031562868519 $206 $321 forward 7 unknown #
edge $-1 $212 -115.71642200994901 $320 -108.56081878294219 $120 $322 forward 7 unknown #
coedge $-1 $121 $312 $318 $323 reversed $210 $-1 #
loop $-1 $-1 $312 $198 #
vertex $-1 $323 $324 #
vertex $-1 $122 $325 #
straight-curve $-1 57.858211004974521 -8.915571766149009 81.862877143043065 0 0 -1 I I #
coedge $-1 $214 $214 $-1 $326 reversed $125 $-1 #
edge $-1 $327 0 $327 6.2831853071796004 $126 $328 forward 7 unknown #
vertex $-1 $129 $329 #
ellipse-curve $-1 55.755232021229347 -3.7897807077761314 4.9872987398126716 0.80901700255871778 0 0.5877852410284794 0.5877852410284794 0 -0.80901700255871778 1 I I #
face $-1 $-1 $330 $28 $-1 $331 forward single #
loop $-1 $-1 $136 $130 #
plane-surface $-1 57.858211004974521 0 0 -1 0 0 0 0 1 forward_v I I I I #
coedge $-1 $332 $333 $334 $335 reversed $131 $-1 #
coedge $-1 $336 $133 $135 $228 forward $82 $-1 #
coedge $-1 $133 $336 $332 $337 forward $82 $-1 #
coedge $-1 $334 $136 $133 $225 forward $219 $-1 #
edge $-1 $231 3.338254483214909 $338 13.589836599960663 $224 $339 forward 7 unknown #
coedge $-1 $340 $341 $134 $227 forward $330 $-1 #
edge $-1 $342 11.923073595378142 $230 16.129031562868519 $226 $343 forward 7 unknown #
edge $-1 $231 -115.71642200994901 $342 -108.56081878294219 $135 $344 forward 7 unknown #
coedge $-1 $136 $334 $340 $345 reversed $219 $-1 #
vertex $-1 $345 $346 #
vertex $-1 $137 $347 #
straight-curve $-1 57.858211004974521 11.802300024802696 81.862877143043065 0 0 -1 I I #
coedge $-1 $233 $233 $-1 $348 reversed $140 $-1 #
edge $-1 $349 0 $349 6.2831853071796004 $141 $350 forward 7 unknown #
vertex $-1 $144 $351 #
ellipse-curve $-1 55.755232021229347 16.928091083175573 4.9872987398126716 0.80901700255871778 0 0.5877852410284794 0.5877852410284794 0 -0.80901700255871778 1 I I #
face $-1 $-1 $249 $30 $-1 $352 forward single #
loop $-1 $-1 $353 $145 #
plane-surface $-1 -57.858211004974521 0 0 1 0 0 0 0 -1 forward_v I I I I #
coedge $-1 $354 $355 $356 $357 reversed $146 $-1 #
coedge $-1 $358 $148 $150 $247 forward $91 $-1 #
coedge $-1 $148 $358 $354 $359 forward $91 $-1 #
coedge $-1 $356 $151 $148 $244 forward $249 $-1 #
edge $-1 $251 -5.4733564840815969 $360 5.1635859910577029 $243 $361 forward 7 unknown #
coedge $-1 $362 $363 $149 $246 forward $238 $-1 #
edge $-1 $364 -33.760439959731308 $250 -26.37416396542087 $245 $365 forward 7 unknown #
edge $-1 $251 -9.1299391371868879 $364 -2.4161062406544664e-014 $150 $366 forward 7 unknown #
coedge $-1 $151 $356 $362 $367 forward $249 $-1 #
loop $-1 $-1 $356 $237 #
vertex $-1 $246 $368 #
vertex $-1 $152 $369 #
straight-curve $-1 -75.737381943141571 -5.6282417305935439 7.8818010769189399 1 0 0 I I #
coedge $-1 $253 $253 $-1 $370 reversed $155 $-1 #
edge $-1 $371 0 $371 6.2831853071796004 $156 $372 forward 7 unknown #
vertex $-1 $159 $373 #
ellipse-curve $-1 -55.17498926681116 -0.30977049302389403 4.1886630797637192 -0.80901700255871778 0 0.5877852410284794 0.8816778615427191 0 1.2135255038380768 1 I I #
face $-1 $-1 $175 $24 $-1 $374 reversed single #
loop $-1 $-1 $273 $160 #
plane-surface $-1 0 25.055587710757393 0 0 -1 0 0 0 -1 forward_v I I I I #
coedge $-1 $375 $271 $274 $376 forward $161 $-1 #
coedge $-1 $277 $163 $164 $265 reversed $100 $-1 #
coedge $-1 $271 $375 $163 $263 reversed $161 $-1 #
edge $-1 $278 -7.8818010769189408 $377 7.8818010769189408 $262 $378 forward 7 unknown #
coedge $-1 $165 $164 $375 $379 forward $65 $-1 #
edge $-1 $269 -57.858211004974521 $377 57.858211004974521 $261 $380 forward 7 unknown #
coedge $-1 $274 $273 $165 $267 reversed $258 $-1 #
edge $-1 $381 -57.858211004974521 $268 57.858211004974521 $266 $382 forward 7 unknown #
vertex $-1 $167 $383 #
vertex $-1 $280 $384 #
straight-curve $-1 57.858211004974521 0 -7.8818010769189408 0 -1 0 I I #
coedge $-1 $260 $262 $168 $272 reversed $161 $-1 #
edge $-1 $275 -25.055587710757393 $278 25.055587710757393 $271 $385 forward 7 unknown #
coedge $-1 $266 $169 $174 $281 forward $258 $-1 #
coedge $-1 $169 $266 $260 $376 reversed $258 $-1 #
vertex $-1 $170 $386 #
straight-curve $-1 0 25.055587710757393 7.8818010769189408 -1 0 0 I I #
coedge $-1 $171 $261 $173 $280 reversed $100 $-1 #
vertex $-1 $272 $387 #
straight-curve $-1 0 -25.055587710757393 7.8818010769189408 1 0 0 I I #
edge $-1 $176 -7.8818010769189408 $269 7.8818010769189408 $173 $388 forward 7 unknown #
edge $-1 $177 -7.8818010769189408 $268 7.8818010769189408 $174 $389 forward 7 unknown #
point $-1 57.858211004974521 -25.055587710757393 7.8818010769189408 #
point $-1 57.858211004974521 25.055587710757393 7.8818010769189408 #
face $-1 $-1 $194 $25 $-1 $390 reversed single #
loop $-1 $-1 $190 $179 #
plane-surface $-1 0 -25.055587710757393 0 0 1 0 0 0 1 forward_v I I I I #
coedge $-1 $391 $392 $187 $297 forward $180 $-1 #
coedge $-1 $298 $182 $184 $293 reversed $108 $-1 #
edge $-1 $295 1.3278622008827345 $195 4.3278622008827341 $193 $393 forward 7 unknown #
coedge $-1 $184 $183 $394 $395 reversed $69 $-1 #
coedge $-1 $302 $301 $183 $292 forward $285 $-1 #
edge $-1 $396 -57.858211004974521 $294 57.858211004974521 $291 $397 forward 7 unknown #
edge $-1 $398 -57.858211004974521 $295 57.858211004974521 $288 $399 forward 7 unknown #
vertex $-1 $292 $400 #
vertex $-1 $186 $401 #
straight-curve $-1 57.858211004974521 -10.358935895475851 4.1557244017654691 0 1 0 I I #
edge $-1 $303 -14.696651815281543 $299 -6.0212199756701583 $287 $402 forward 7 unknown #
coedge $-1 $188 $288 $391 $403 reversed $108 $-1 #
vertex $-1 $297 $404 #
straight-curve $-1 0 -16.380155871146009 7.1557244017654691 -1 0 0 I I #
coedge $-1 $291 $190 $392 $405 forward $285 $-1 #
coedge $-1 $190 $291 $192 $305 reversed $285 $-1 #
vertex $-1 $405 $406 #
straight-curve $-1 0 -25.055587710757393 7.1557244017654691 -1 0 0 I I #
edge $-1 $196 -7.1557244017654691 $294 -4.1557244017654691 $192 $407 forward 7 unknown #
point $-1 57.858211004974521 -16.380155871146009 7.1557244017654691 #
point $-1 57.858211004974521 -25.055587710757393 7.1557244017654691 #
plane-surface $-1 57.858211004974521 0 0 -1 0 0 0 0 1 forward_v I I I I #
coedge $-1 $319 $318 $311 $408 forward $199 $-1 #
coedge $-1 $311 $201 $203 $315 reversed $116 $-1 #
coedge $-1 $201 $310 $309 $408 reversed $116 $-1 #
coedge $-1 $209 $204 $201 $313 forward $210 $-1 #
edge $-1 $316 -79.770080740336667 $409 -73.981076066124118 $312 $410 forward 7 unknown #
coedge $-1 $203 $202 $319 $411 reversed $73 $-1 #
edge $-1 $412 108.56081878294219 $316 115.71642200994901 $310 $413 forward 7 unknown #
vertex $-1 $205 $414 #
straight-curve $-1 57.858211004974521 -1.8948903538880657 2.0927964027063908 0 1 0 I I #
coedge $-1 $309 $206 $209 $323 forward $199 $-1 #
coedge $-1 $206 $309 $314 $411 forward $199 $-1 #
vertex $-1 $207 $415 #
straight-curve $-1 41.729179442106002 -8.915571766149009 7.881801076918947 1 0 0 I I #
straight-curve $-1 -10.158193997096603 -8.915571766149009 95.709349284014991 -0.5877852410284794 0 0.80901700255871778 I I #
edge $-1 $211 -8.915571766149009 $409 1.3360103505967462 $209 $416 forward 7 unknown #
point $-1 57.858211004974521 -8.915571766149009 7.8818010769189408 #
point $-1 57.858211004974521 -8.915571766149009 2.0927964027063979 #
edge $-1 $417 1 $417 0 $214 $-1 forward 7 unknown #
vertex $-1 $215 $418 #
ellipse-curve $-1 54.070041234991884 -3.7897807077761314 3.7629360016566586 0.80901700255871778 0 0.5877852410284794 0.5877852410284794 0 -0.80901700255871778 1 I I #
point $-1 56.343017262257817 -3.7897807077761314 4.1782817372539469 #
loop $-1 $-1 $226 $218 #
plane-surface $-1 0 0 7.8818010769189408 0 0 1 1 0 0 forward_v I I I I #
coedge $-1 $333 $221 $223 $337 reversed $131 $-1 #
coedge $-1 $221 $332 $419 $420 reversed $131 $-1 #
coedge $-1 $229 $224 $221 $335 forward $219 $-1 #
edge $-1 $338 -79.770080740336667 $421 -73.981076066124118 $334 $422 forward 7 unknown #
coedge $-1 $223 $222 $341 $423 reversed $82 $-1 #
edge $-1 $424 108.56081878294219 $338 115.71642200994901 $332 $425 forward 7 unknown #
vertex $-1 $225 $426 #
straight-curve $-1 57.858211004974521 8.4640455415877867 2.0927964027063908 0 1 0 I I #
coedge $-1 $419 $226 $229 $345 forward $330 $-1 #
coedge $-1 $226 $419 $336 $423 forward $330 $-1 #
vertex $-1 $227 $427 #
straight-curve $-1 41.729179442106002 11.802300024802696 7.881801076918947 1 0 0 I I #
straight-curve $-1 -10.158193997096603 11.802300024802696 95.709349284014991 -0.5877852410284794 0 0.80901700255871778 I I #
edge $-1 $230 11.802300024802696 $421 22.053882141548449 $229 $428 forward 7 unknown #
point $-1 57.858211004974521 11.802300024802696 7.8818010769189408 #
point $-1 57.858211004974521 11.802300024802696 2.0927964027063979 #
edge $-1 $429 1 $429 0 $233 $-1 forward 7 unknown #
vertex $-1 $234 $430 #
ellipse-curve $-1 54.070041234991884 16.928091083175573 3.7629360016566586 0.80901700255871778 0 0.5877852410284794 0.5877852410284794 0 -0.80901700255871778 1 I I #
point $-1 56.343017262257817 16.928091083175573 4.1782817372539469 #
plane-surface $-1 0 0 7.8818010769189408 0 0 1 1 0 0 forward_v I I I I #
coedge $-1 $363 $362 $355 $431 forward $238 $-1 #
coedge $-1 $355 $240 $242 $359 reversed $146 $-1 #
coedge $-1 $240 $354 $353 $431 reversed $146 $-1 #
coedge $-1 $248 $243 $240 $357 forward $249 $-1 #
edge $-1 $360 -23.24561441449378 $432 -17.87917093816705 $356 $433 forward 7 unknown #
coedge $-1 $242 $241 $363 $434 reversed $91 $-1 #
edge $-1 $435 2.4161062406544664e-014 $360 9.1299391371868879 $354 $436 forward 7 unknown #
vertex $-1 $244 $437 #
straight-curve $-1 -52.491767528647792 -0.15488524651194702 7.8818010769189417 0 1 0 I I #
coedge $-1 $353 $245 $248 $367 reversed $238 $-1 #
coedge $-1 $245 $353 $358 $434 forward $238 $-1 #
vertex $-1 $246 $438 #
straight-curve $-1 -57.858211004974521 -5.6282417305935439 34.25596504233981 0 0 1 I I #
straight-curve $-1 -57.858211004974535 -5.6282417305935439 0.49552508260848072 -0.5877852410284794 0 -0.80901700255871778 I I #
edge $-1 $432 -5.0087007445457559 $250 5.6282417305935439 $362 $439 forward 7 unknown #
point $-1 -57.858211004974521 -5.6282417305935439 7.8818010769189408 #
point $-1 -52.491767528647792 -5.6282417305935439 7.8818010769189417 #
edge $-1 $440 1 $440 0 $253 $-1 forward 7 unknown #
vertex $-1 $254 $441 #
ellipse-curve $-1 -50.741530663202148 -0.30977049302389403 0.96756695240146473 -0.80901700255871778 0 0.5877852410284794 0.8816778615427191 0 1.2135255038380768 1 I I #
point $-1 -54.293311405268433 -0.30977049302389403 5.4021885836017933 #
plane-surface $-1 57.858211004974521 0 0 -1 0 0 0 0 1 forward_v I I I I #
coedge $-1 $262 $260 $264 $379 reversed $161 $-1 #
edge $-1 $275 -7.8818010769189408 $381 7.8818010769189408 $274 $442 forward 7 unknown #
vertex $-1 $379 $443 #
straight-curve $-1 -57.858211004974521 -25.055587710757393 0 0 0 -1 I I #
edge $-1 $377 -25.055587710757393 $381 25.055587710757393 $375 $444 forward 7 unknown #
straight-curve $-1 0 -25.055587710757393 -7.8818010769189408 -1 0 0 I I #
vertex $-1 $267 $445 #
straight-curve $-1 0 25.055587710757393 -7.8818010769189408 1 0 0 I I #
point $-1 57.858211004974521 25.055587710757393 -7.8818010769189408 #
point $-1 57.858211004974521 -25.055587710757393 -7.8818010769189408 #
straight-curve $-1 -57.858211004974521 0 7.8818010769189408 0 -1 0 I I #
point $-1 -57.858211004974521 25.055587710757393 7.8818010769189408 #
point $-1 -57.858211004974521 -25.055587710757393 7.8818010769189408 #
straight-curve $-1 57.858211004974521 -25.055587710757393 0 0 0 -1 I I #
straight-curve $-1 57.858211004974521 25.055587710757393 0 0 0 -1 I I #
plane-surface $-1 57.858211004974521 0 0 -1 0 0 0 0 1 forward_v I I I I #
coedge $-1 $394 $287 $298 $403 forward $180 $-1 #
coedge $-1 $287 $394 $301 $405 reversed $180 $-1 #
straight-curve $-1 57.858211004974521 -16.380155871146009 2.8278622008827345 0 0 1 I I #
coedge $-1 $392 $391 $290 $395 forward $180 $-1 #
edge $-1 $398 6.0212199756701583 $396 14.696651815281543 $394 $446 forward 7 unknown #
vertex $-1 $292 $447 #
straight-curve $-1 0 -25.055587710757393 4.1557244017654691 1 0 0 I I #
vertex $-1 $395 $448 #
straight-curve $-1 0 -16.380155871146009 4.1557244017654691 1 0 0 I I #
point $-1 57.858211004974521 -25.055587710757393 4.1557244017654691 #
point $-1 57.858211004974521 -16.380155871146009 4.1557244017654691 #
straight-curve $-1 -57.858211004974521 -10.358935895475851 7.1557244017654691 0 1 0 I I #
edge $-1 $299 -4.3278622008827341 $398 -1.3278622008827345 $391 $449 forward 7 unknown #
point $-1 -57.858211004974521 -16.380155871146009 7.1557244017654691 #
edge $-1 $303 -7.1557244017654691 $396 -4.1557244017654691 $392 $450 forward 7 unknown #
point $-1 -57.858211004974521 -25.055587710757393 7.1557244017654691 #
straight-curve $-1 57.858211004974521 -25.055587710757393 0 0 0 -1 I I #
edge $-1 $409 -16.129031562868519 $412 -11.923073595378142 $309 $451 forward 7 unknown #
vertex $-1 $408 $452 #
straight-curve $-1 57.858211004974521 1.3360103505967462 81.862877143043065 0 0 1 I I #
edge $-1 $412 -3.2309007044848119 $320 7.0206814122609433 $319 $453 forward 7 unknown #
vertex $-1 $411 $454 #
straight-curve $-1 -10.158193997096603 1.3360103505967462 95.709349284014991 0.5877852410284794 0 -0.80901700255871778 I I #
point $-1 57.858211004974521 1.3360103505967462 2.0927964027063979 #
point $-1 53.652253037484144 -8.915571766149009 7.881801076918947 #
straight-curve $-1 57.858211004974521 0 7.8818010769189408 0 1 0 I I #
vertex $-1 $326 $455 #
point $-1 54.657826476020361 -3.7897807077761314 2.9539189990979411 #
coedge $-1 $341 $340 $333 $420 forward $330 $-1 #
edge $-1 $421 -16.129031562868519 $424 -11.923073595378142 $419 $456 forward 7 unknown #
vertex $-1 $420 $457 #
straight-curve $-1 57.858211004974521 22.053882141548449 81.862877143043065 0 0 1 I I #
edge $-1 $424 -13.589836599960663 $342 -3.338254483214909 $341 $458 forward 7 unknown #
vertex $-1 $423 $459 #
straight-curve $-1 -10.158193997096603 22.053882141548449 95.709349284014991 0.5877852410284794 0 -0.80901700255871778 I I #
point $-1 57.858211004974521 22.053882141548449 2.0927964027063979 #
point $-1 53.652253037484144 11.802300024802696 7.881801076918947 #
straight-curve $-1 57.858211004974521 0 7.8818010769189408 0 1 0 I I #
vertex $-1 $348 $460 #
point $-1 54.657826476020361 16.928091083175573 2.9539189990979411 #
edge $-1 $432 26.37416396542087 $435 33.760439959731308 $353 $461 forward 7 unknown #
vertex $-1 $367 $462 #
straight-curve $-1 -75.737381943141571 5.0087007445457559 7.8818010769189399 -1 0 0 I I #
edge $-1 $435 -5.1635859910577029 $364 5.4733564840815969 $363 $463 forward 7 unknown #
vertex $-1 $434 $464 #
straight-curve $-1 -57.858211004974535 5.0087007445457559 0.49552508260848072 0.5877852410284794 0 0.80901700255871778 I I #
point $-1 -52.491767528647792 5.0087007445457559 7.8818010769189417 #
point $-1 -57.858211004974521 -5.6282417305935439 0.49552508260850026 #
straight-curve $-1 -57.858211004974521 0 7.8818010769189408 0 -1 0 I I #
vertex $-1 $370 $465 #
point $-1 -49.859852801659436 -0.30977049302389403 2.1810924562395417 #
straight-curve $-1 -57.858211004974521 25.055587710757393 0 0 0 -1 I I #
point $-1 -57.858211004974521 -25.055587710757393 -7.8818010769189408 #
straight-curve $-1 -57.858211004974521 0 -7.8818010769189408 0 1 0 I I #
point $-1 -57.858211004974521 25.055587710757393 -7.8818010769189408 #
straight-curve $-1 -57.858211004974521 -10.358935895475851 4.1557244017654691 0 -1 0 I I #
point $-1 -57.858211004974521 -25.055587710757393 4.1557244017654691 #
point $-1 -57.858211004974521 -16.380155871146009 4.1557244017654691 #
straight-curve $-1 -57.858211004974521 -16.380155871146009 2.8278622008827345 0 0 -1 I I #
straight-curve $-1 -57.858211004974521 -25.055587710757393 0 0 0 -1 I I #
straight-curve $-1 41.729179442106002 1.3360103505967462 7.881801076918947 -1 0 0 I I #
point $-1 57.858211004974521 1.3360103505967462 7.8818010769189408 #
straight-curve $-1 53.652253037484158 -1.8948903538880657 7.8818010769189399 0 -1 0 I I #
point $-1 53.652253037484144 1.3360103505967462 7.881801076918947 #
point $-1 53.261024232433165 -3.7897807077761314 3.1751507606281795 #
straight-curve $-1 41.729179442106002 22.053882141548449 7.881801076918947 -1 0 0 I I #
point $-1 57.858211004974521 22.053882141548449 7.8818010769189408 #
straight-curve $-1 53.652253037484158 8.4640455415877867 7.8818010769189399 0 -1 0 I I #
point $-1 53.652253037484144 22.053882141548449 7.881801076918947 #
point $-1 53.261024232433165 16.928091083175573 3.1751507606281795 #
straight-curve $-1 -57.858211004974521 5.0087007445457559 34.25596504233981 0 0 -1 I I #
point $-1 -57.858211004974521 5.0087007445457559 7.8818010769189408 #
straight-curve $-1 -57.858211004974521 -0.15488524651194702 0.4955250826084967 0 -1 0 I I #
point $-1 -57.858211004974521 5.0087007445457559 0.49552508260850026 #
point $-1 -49.528005159364078 -0.30977049302389403 0.085889090858745576 #
End-of-ACIS-data 