500 0 9 0           
7 Unknown 11 ACIS 5.0 NT 24 Thu Mar 25 17:42:20 1999 
-1 9.9999999999999995e-007 1e-010 
body $-1 $9 $-1 $10 #
body $-1 $11 $-1 $12 #
body $-1 $13 $-1 $14 #
body $-1 $15 $-1 $16 #
body $-1 $17 $-1 $18 #
body $-1 $19 $-1 $20 #
body $-1 $21 $-1 $22 #
body $-1 $23 $-1 $24 #
body $-1 $25 $-1 $26 #
lump $-1 $-1 $27 $0 #
transform $-1 1 0 0 0 1 0 0 0 1 56.9670705282754 29.686090355675166 14.007283028324037 1 rotate no_reflect no_shear #
lump $-1 $-1 $28 $1 #
transform $-1 1 0 0 0 1 0 0 0 1 56.9670705282754 29.686090355675166 14.007283028324037 1 rotate no_reflect no_shear #
lump $-1 $-1 $29 $2 #
transform $-1 1 0 0 0 1 0 0 0 1 56.9670705282754 29.686090355675166 14.007283028324037 1 rotate no_reflect no_shear #
lump $-1 $-1 $30 $3 #
transform $-1 1 0 0 0 1 0 0 0 1 56.9670705282754 29.686090355675166 14.007283028324037 1 rotate no_reflect no_shear #
lump $-1 $-1 $31 $4 #
transform $-1 1 0 0 0 1 0 0 0 1 56.9670705282754 29.686090355675166 14.007283028324037 1 rotate no_reflect no_shear #
lump $-1 $-1 $32 $5 #
transform $-1 1 0 0 0 1 0 0 0 1 56.9670705282754 29.686090355675166 14.007283028324037 1 rotate no_reflect no_shear #
lump $-1 $-1 $33 $6 #
transform $-1 1 0 0 0 1 0 0 0 1 56.9670705282754 29.686090355675166 14.007283028324037 1 rotate no_reflect no_shear #
lump $-1 $-1 $34 $7 #
transform $-1 1 0 0 0 1 0 0 0 1 56.9670705282754 29.686090355675166 14.007283028324037 1 rotate no_reflect no_shear #
lump $-1 $-1 $35 $8 #
transform $-1 1 0 0 0 1 0 0 0 1 56.9670705282754 29.686090355675166 14.007283028324037 1 rotate no_reflect no_shear #
shell $-1 $-1 $-1 $36 $-1 $9 #
shell $-1 $-1 $-1 $37 $-1 $11 #
shell $-1 $-1 $-1 $38 $-1 $13 #
shell $-1 $-1 $-1 $39 $-1 $15 #
shell $-1 $-1 $-1 $40 $-1 $17 #
shell $-1 $-1 $-1 $41 $-1 $19 #
shell $-1 $-1 $-1 $42 $-1 $21 #
shell $-1 $-1 $-1 $43 $-1 $23 #
shell $-1 $-1 $-1 $44 $-1 $25 #
face $-1 $45 $46 $27 $-1 $47 forward single #
face $-1 $48 $49 $28 $-1 $50 reversed single #
face $-1 $51 $52 $29 $-1 $53 reversed single #
face $-1 $54 $55 $30 $-1 $56 reversed single #
face $-1 $57 $58 $31 $-1 $59 forward single #
face $-1 $60 $61 $32 $-1 $62 reversed single #
face $-1 $63 $64 $33 $-1 $65 forward single #
face $-1 $66 $67 $34 $-1 $68 reversed single #
face $-1 $69 $70 $35 $-1 $71 forward single #
face $-1 $72 $73 $27 $-1 $74 reversed single #
loop $-1 $-1 $75 $36 #
plane-surface $-1 0 0 14.007283028324037 0 0 1 1 0 0 forward_v I I I I #
face $-1 $76 $77 $28 $-1 $78 reversed single #
loop $-1 $-1 $79 $37 #
plane-surface $-1 -42.769125389324067 -21.486039548544866 0 1 0 0 0 0 -1 forward_v I I I I #
face $-1 $80 $81 $29 $-1 $82 reversed single #
loop $-1 $-1 $83 $38 #
plane-surface $-1 -39.368382609233542 13.285988741414563 0 0 1 0 0 0 1 forward_v I I I I #
face $-1 $84 $85 $30 $-1 $86 reversed single #
loop $-1 $-1 $87 $39 #
plane-surface $-1 79.391645825429009 -6.271061079359681 167.34152294865572 0 -1 0 -0.79863551827123203 0 -0.60181501223851219 forward_v I I I I #
face $-1 $88 $89 $31 $-1 $90 forward single #
loop $-1 $91 $92 $40 #
cone-surface $-1 53.052482525599977 -8.7912997363420295 9.7123670258247348 -0.79863551827123203 0 -0.60181501223851219 0.60181501223851219 0 -0.79863551827123203 1 I I 0 1 1 forward I I I I #
face $-1 $93 $94 $32 $-1 $95 reversed single #
loop $-1 $-1 $96 $41 #
plane-surface $-1 79.391645825429009 2.5202386569823449 167.34152294865572 0 -1 0 -0.79863551827123203 0 -0.60181501223851219 forward_v I I I I #
face $-1 $97 $98 $33 $-1 $99 forward single #
loop $-1 $100 $101 $42 #
cone-surface $-1 53.052482525599977 -3.5527136788005009e-015 9.7123670258247348 -0.79863551827123203 0 -0.60181501223851219 0.60181501223851219 0 -0.79863551827123203 1 I I 0 1 1 forward I I I I #
face $-1 $102 $103 $34 $-1 $104 reversed single #
loop $-1 $-1 $105 $43 #
plane-surface $-1 79.391645825429009 11.311538393324371 167.34152294865572 0 -1 0 -0.79863551827123203 0 -0.60181501223851219 forward_v I I I I #
face $-1 $106 $107 $35 $-1 $108 forward single #
loop $-1 $109 $110 $44 #
cone-surface $-1 53.052482525599977 8.7912997363420224 9.7123670258247348 -0.79863551827123203 0 -0.60181501223851219 0.60181501223851219 0 -0.79863551827123203 1 I I 0 1 1 forward I I I I #
face $-1 $111 $112 $27 $-1 $113 reversed single #
loop $-1 $-1 $114 $45 #
plane-surface $-1 0 0 -14.007283028324037 0 0 1 1 0 0 forward_v I I I I #
coedge $-1 $115 $116 $117 $118 forward $46 $-1 #
face $-1 $119 $120 $28 $-1 $121 reversed single #
loop $-1 $-1 $122 $48 #
plane-surface $-1 -39.368382609233542 -13.285988741414569 0 0 -1 0 0 0 -1 forward_v I I I I #
coedge $-1 $123 $124 $125 $126 forward $49 $-1 #
face $-1 $127 $128 $29 $-1 $129 reversed single #
loop $-1 $-1 $130 $51 #
plane-surface $-1 -42.769125389324067 21.486039548544863 0 1 0 0 0 0 -1 forward_v I I I I #
coedge $-1 $131 $132 $133 $134 forward $52 $-1 #
face $-1 $135 $136 $30 $-1 $137 reversed single #
loop $-1 $-1 $138 $54 #
plane-surface $-1 -11.600205966057089 -8.7912997363420295 98.774246454323233 0.79863551827123203 0 0.60181501223851219 0.60181501223851219 0 -0.79863551827123203 forward_v I I I I #
coedge $-1 $139 $140 $141 $142 reversed $55 $-1 #
face $-1 $-1 $143 $31 $-1 $144 forward single #
loop $-1 $145 $146 $57 #
cone-surface $-1 51.083971616730224 -8.7912997363420295 8.228987699949629 -0.79863551827123203 0 -0.60181501223851219 0.3009075061192561 0 -0.39931775913561601 1 I I -0.70710678118654746 0.70710678118654746 0.5 forward I I I I #
loop $-1 $-1 $147 $40 #
coedge $-1 $92 $92 $148 $149 reversed $58 $-1 #
face $-1 $150 $151 $32 $-1 $152 reversed single #
loop $-1 $-1 $153 $60 #
plane-surface $-1 -11.600205966057089 -3.5527136788005009e-015 98.774246454323233 0.79863551827123203 0 0.60181501223851219 0.60181501223851219 0 -0.79863551827123203 forward_v I I I I #
coedge $-1 $154 $155 $156 $157 reversed $61 $-1 #
face $-1 $-1 $158 $33 $-1 $159 forward single #
loop $-1 $160 $161 $63 #
cone-surface $-1 51.083971616730224 -3.5527136788005009e-015 8.228987699949629 -0.79863551827123203 0 -0.60181501223851219 0.3009075061192561 0 -0.39931775913561601 1 I I -0.70710678118654746 0.70710678118654746 0.5 forward I I I I #
loop $-1 $-1 $162 $42 #
coedge $-1 $101 $101 $163 $164 reversed $64 $-1 #
face $-1 $165 $166 $34 $-1 $167 reversed single #
loop $-1 $-1 $168 $66 #
plane-surface $-1 -11.600205966057089 8.7912997363420224 98.774246454323233 0.79863551827123203 0 0.60181501223851219 0.60181501223851219 0 -0.79863551827123203 forward_v I I I I #
coedge $-1 $169 $170 $171 $172 reversed $67 $-1 #
face $-1 $-1 $173 $35 $-1 $174 forward single #
loop $-1 $175 $176 $69 #
cone-surface $-1 51.083971616730224 8.7912997363420224 8.228987699949629 -0.79863551827123203 0 -0.60181501223851219 0.3009075061192561 0 -0.39931775913561601 1 I I -0.70710678118654746 0.70710678118654746 0.5 forward I I I I #
loop $-1 $-1 $177 $44 #
coedge $-1 $110 $110 $178 $179 reversed $70 $-1 #
face $-1 $180 $181 $27 $-1 $182 reversed single #
loop $-1 $-1 $183 $72 #
plane-surface $-1 0 -29.686090355675166 0 0 1 0 0 0 1 forward_v I I I I #
coedge $-1 $184 $185 $186 $187 forward $73 $-1 #
coedge $-1 $188 $75 $189 $190 forward $46 $-1 #
coedge $-1 $75 $188 $191 $192 forward $46 $-1 #
coedge $-1 $193 $194 $75 $118 reversed $195 $-1 #
edge $-1 $196 -29.686090355675166 $197 29.686090355675166 $117 $198 forward 7 unknown #
face $-1 $199 $200 $28 $-1 $201 forward single #
loop $-1 $-1 $202 $76 #
plane-surface $-1 -35.967639829143017 -21.486039548544866 0 -1 0 0 0 0 1 forward_v I I I I #
coedge $-1 $203 $204 $205 $206 forward $77 $-1 #
coedge $-1 $207 $79 $208 $209 reversed $49 $-1 #
coedge $-1 $79 $207 $210 $211 reversed $49 $-1 #
coedge $-1 $204 $203 $79 $126 reversed $77 $-1 #
edge $-1 $212 -14.007283028324037 $213 14.007283028324037 $125 $214 forward 7 unknown #
face $-1 $215 $216 $29 $-1 $217 reversed single #
loop $-1 $-1 $218 $80 #
plane-surface $-1 -35.967639829143017 21.486039548544863 0 -1 0 0 0 0 1 forward_v I I I I #
coedge $-1 $219 $220 $221 $222 reversed $81 $-1 #
coedge $-1 $223 $83 $224 $225 reversed $52 $-1 #
coedge $-1 $83 $223 $226 $227 reversed $52 $-1 #
coedge $-1 $220 $219 $83 $134 reversed $81 $-1 #
edge $-1 $228 -14.007283028324037 $229 14.007283028324037 $133 $230 forward 7 unknown #
face $-1 $231 $232 $30 $-1 $233 forward single #
loop $-1 $-1 $234 $84 #
plane-surface $-1 79.391645825429009 -11.311538393324378 167.34152294865572 0 1 0 0.79863551827123203 0 0.60181501223851219 forward_v I I I I #
coedge $-1 $235 $236 $237 $238 reversed $85 $-1 #
coedge $-1 $140 $87 $239 $240 reversed $55 $-1 #
coedge $-1 $87 $139 $235 $241 reversed $55 $-1 #
coedge $-1 $237 $242 $87 $142 forward $232 $-1 #
edge $-1 $243 -17.271247615560895 $244 -12.580457909678337 $141 $245 forward 7 unknown #
loop $-1 $-1 $148 $88 #
plane-surface $-1 -11.600205966057089 -8.7912997363420295 98.774246454323233 0.79863551827123203 0 0.60181501223851219 0.60181501223851219 0 -0.79863551827123203 forward_v I I I I #
loop $-1 $-1 $246 $57 #
coedge $-1 $146 $146 $147 $247 reversed $89 $-1 #
coedge $-1 $147 $147 $146 $247 forward $91 $-1 #
coedge $-1 $148 $148 $92 $149 forward $143 $-1 #
edge $-1 $248 0 $248 6.2831853071796004 $148 $249 forward 7 unknown #
face $-1 $250 $251 $32 $-1 $252 reversed single #
loop $-1 $-1 $253 $93 #
plane-surface $-1 79.391645825429009 -2.5202386569823521 167.34152294865572 0 1 0 0.79863551827123203 0 0.60181501223851219 forward_v I I I I #
coedge $-1 $254 $255 $256 $257 reversed $94 $-1 #
coedge $-1 $155 $96 $258 $259 reversed $61 $-1 #
coedge $-1 $96 $154 $254 $260 reversed $61 $-1 #
coedge $-1 $256 $261 $96 $157 forward $262 $-1 #
edge $-1 $263 -17.271247615560895 $264 -12.580457909678337 $156 $265 forward 7 unknown #
loop $-1 $-1 $163 $97 #
plane-surface $-1 -11.600205966057089 -3.5527136788005009e-015 98.774246454323233 0.79863551827123203 0 0.60181501223851219 0.60181501223851219 0 -0.79863551827123203 forward_v I I I I #
loop $-1 $-1 $266 $63 #
coedge $-1 $161 $161 $162 $267 reversed $98 $-1 #
coedge $-1 $162 $162 $161 $267 forward $100 $-1 #
coedge $-1 $163 $163 $101 $164 forward $158 $-1 #
edge $-1 $268 0 $268 6.2831853071796004 $163 $269 forward 7 unknown #
face $-1 $270 $271 $34 $-1 $272 reversed single #
loop $-1 $-1 $273 $102 #
plane-surface $-1 79.391645825429009 6.2710610793596739 167.34152294865572 0 1 0 0.79863551827123203 0 0.60181501223851219 forward_v I I I I #
coedge $-1 $274 $275 $276 $277 reversed $103 $-1 #
coedge $-1 $170 $105 $278 $279 reversed $67 $-1 #
coedge $-1 $105 $169 $274 $280 reversed $67 $-1 #
coedge $-1 $276 $281 $105 $172 forward $282 $-1 #
edge $-1 $283 -17.271247615560895 $284 -12.580457909678337 $171 $285 forward 7 unknown #
loop $-1 $-1 $178 $106 #
plane-surface $-1 -11.600205966057089 8.7912997363420224 98.774246454323233 0.79863551827123203 0 0.60181501223851219 0.60181501223851219 0 -0.79863551827123203 forward_v I I I I #
loop $-1 $-1 $286 $69 #
coedge $-1 $176 $176 $177 $287 reversed $107 $-1 #
coedge $-1 $177 $177 $176 $287 forward $109 $-1 #
coedge $-1 $178 $178 $110 $179 forward $173 $-1 #
edge $-1 $288 0 $288 6.2831853071796004 $178 $289 forward 7 unknown #
face $-1 $290 $291 $27 $-1 $292 reversed single #
loop $-1 $-1 $293 $111 #
plane-surface $-1 -56.9670705282754 0 0 1 0 0 0 0 -1 forward_v I I I I #
coedge $-1 $294 $191 $295 $296 forward $112 $-1 #
coedge $-1 $297 $114 $294 $298 forward $73 $-1 #
coedge $-1 $114 $297 $299 $300 forward $73 $-1 #
coedge $-1 $194 $193 $114 $187 reversed $195 $-1 #
edge $-1 $301 -29.686090355675166 $302 29.686090355675166 $186 $303 forward 7 unknown #
coedge $-1 $116 $115 $304 $305 forward $46 $-1 #
coedge $-1 $306 $307 $115 $190 reversed $291 $-1 #
edge $-1 $197 -56.9670705282754 $308 56.9670705282754 $189 $309 forward 7 unknown #
coedge $-1 $183 $310 $116 $192 reversed $112 $-1 #
edge $-1 $311 -56.9670705282754 $196 56.9670705282754 $191 $312 forward 7 unknown #
coedge $-1 $186 $117 $310 $313 forward $195 $-1 #
coedge $-1 $117 $186 $306 $314 reversed $195 $-1 #
loop $-1 $-1 $193 $290 #
vertex $-1 $118 $315 #
vertex $-1 $118 $316 #
straight-curve $-1 56.9670705282754 0 14.007283028324037 0 1 0 I I #
face $-1 $317 $318 $28 $-1 $319 reversed single #
loop $-1 $-1 $320 $119 #
plane-surface $-1 0 0 14.007283028324037 0 0 1 1 0 0 forward_v I I I I #
coedge $-1 $321 $322 $323 $324 reversed $120 $-1 #
coedge $-1 $125 $122 $325 $326 reversed $77 $-1 #
coedge $-1 $122 $125 $327 $328 reversed $77 $-1 #
coedge $-1 $322 $321 $122 $206 reversed $120 $-1 #
edge $-1 $329 -14.007283028324037 $330 14.007283028324037 $205 $331 forward 7 unknown #
coedge $-1 $124 $123 $332 $333 reversed $49 $-1 #
coedge $-1 $325 $334 $123 $209 forward $318 $-1 #
edge $-1 $335 -18.943070581402729 $213 -2.5429689671421354 $208 $336 forward 7 unknown #
coedge $-1 $337 $327 $124 $211 forward $200 $-1 #
edge $-1 $212 2.5429689671421354 $338 18.943070581402729 $210 $339 forward 7 unknown #
vertex $-1 $211 $340 #
vertex $-1 $209 $341 #
straight-curve $-1 -42.769125389324067 -13.285988741414569 0 0 0 -1 I I #
face $-1 $342 $343 $29 $-1 $344 forward single #
loop $-1 $-1 $345 $127 #
plane-surface $-1 0 0 -14.007283028324037 0 0 1 1 0 0 forward_v I I I I #
coedge $-1 $346 $347 $223 $348 forward $128 $-1 #
coedge $-1 $133 $130 $349 $350 reversed $81 $-1 #
coedge $-1 $130 $133 $351 $352 reversed $81 $-1 #
coedge $-1 $353 $354 $130 $222 forward $355 $-1 #
edge $-1 $356 -14.007283028324037 $357 14.007283028324037 $221 $358 forward 7 unknown #
coedge $-1 $132 $131 $218 $348 reversed $52 $-1 #
coedge $-1 $349 $345 $131 $225 forward $216 $-1 #
edge $-1 $359 16.283448524526246 $229 23.084934084707296 $224 $360 forward 7 unknown #
coedge $-1 $361 $351 $132 $227 forward $343 $-1 #
edge $-1 $228 -23.084934084707296 $362 -16.283448524526246 $226 $363 forward 7 unknown #
vertex $-1 $227 $364 #
vertex $-1 $225 $365 #
straight-curve $-1 -42.769125389324067 13.285988741414563 0 0 0 -1 I I #
face $-1 $-1 $366 $30 $-1 $367 reversed single #
loop $-1 $-1 $141 $135 #
plane-surface $-1 0 0 14.007283028324037 0 0 1 1 0 0 forward_v I I I I #
coedge $-1 $368 $369 $370 $371 reversed $136 $-1 #
coedge $-1 $372 $138 $140 $241 forward $85 $-1 #
coedge $-1 $138 $372 $368 $373 forward $85 $-1 #
coedge $-1 $370 $141 $138 $238 forward $232 $-1 #
edge $-1 $244 1.8754112111886663 $374 6.9158885251533633 $237 $375 forward 7 unknown #
coedge $-1 $376 $377 $139 $240 forward $366 $-1 #
edge $-1 $378 -75.888366811490727 $243 -69.663478446003822 $239 $379 forward 7 unknown #
edge $-1 $244 106.13973644634561 $378 113.9341410565508 $140 $380 forward 7 unknown #
coedge $-1 $141 $370 $376 $381 forward $232 $-1 #
vertex $-1 $142 $382 #
vertex $-1 $142 $383 #
straight-curve $-1 39.695822912714505 -6.271061079359681 14.007283028324039 -1 0 0 I I #
coedge $-1 $246 $246 $-1 $384 reversed $145 $-1 #
edge $-1 $385 0 $385 6.2831853071796004 $146 $386 forward 7 unknown #
vertex $-1 $149 $387 #
ellipse-curve $-1 54.621675675334117 -8.7912997363420295 10.894838845580583 0.79863551827123203 0 0.60181501223851219 0.60181501223851219 0 -0.79863551827123203 1 I I #
face $-1 $-1 $262 $32 $-1 $388 forward single #
loop $-1 $-1 $389 $150 #
plane-surface $-1 56.9670705282754 0 0 -1 0 0 0 0 1 forward_v I I I I #
coedge $-1 $390 $391 $392 $393 reversed $151 $-1 #
coedge $-1 $394 $153 $155 $260 forward $94 $-1 #
coedge $-1 $153 $394 $390 $395 forward $94 $-1 #
coedge $-1 $392 $156 $153 $257 forward $262 $-1 #
edge $-1 $264 -2.5202386569823467 $396 2.5202386569823503 $256 $397 forward 7 unknown #
coedge $-1 $398 $399 $154 $259 forward $251 $-1 #
edge $-1 $400 -75.888366811490727 $263 -69.663478446003822 $258 $401 forward 7 unknown #
edge $-1 $264 106.13973644634561 $400 113.9341410565508 $155 $402 forward 7 unknown #
coedge $-1 $156 $392 $398 $403 forward $262 $-1 #
loop $-1 $-1 $392 $250 #
vertex $-1 $259 $404 #
vertex $-1 $157 $405 #
straight-curve $-1 39.695822912714505 2.5202386569823449 14.007283028324039 -1 0 0 I I #
coedge $-1 $266 $266 $-1 $406 reversed $160 $-1 #
edge $-1 $407 0 $407 6.2831853071796004 $161 $408 forward 7 unknown #
vertex $-1 $164 $409 #
ellipse-curve $-1 54.621675675334117 -3.5527136788005009e-015 10.894838845580583 0.79863551827123203 0 0.60181501223851219 0.60181501223851219 0 -0.79863551827123203 1 I I #
face $-1 $-1 $282 $34 $-1 $410 forward single #
loop $-1 $-1 $411 $165 #
plane-surface $-1 56.9670705282754 0 0 -1 0 0 0 0 1 forward_v I I I I #
coedge $-1 $412 $413 $414 $415 reversed $166 $-1 #
coedge $-1 $416 $168 $170 $280 forward $103 $-1 #
coedge $-1 $168 $416 $412 $417 forward $103 $-1 #
coedge $-1 $414 $171 $168 $277 forward $282 $-1 #
edge $-1 $284 -6.9158885251533597 $418 -1.8754112111886627 $276 $419 forward 7 unknown #
coedge $-1 $420 $421 $169 $279 forward $271 $-1 #
edge $-1 $422 -75.888366811490727 $283 -69.663478446003822 $278 $423 forward 7 unknown #
edge $-1 $284 106.13973644634561 $422 113.9341410565508 $170 $424 forward 7 unknown #
coedge $-1 $171 $414 $420 $425 forward $282 $-1 #
loop $-1 $-1 $414 $270 #
vertex $-1 $279 $426 #
vertex $-1 $172 $427 #
straight-curve $-1 39.695822912714505 11.311538393324371 14.007283028324039 -1 0 0 I I #
coedge $-1 $286 $286 $-1 $428 reversed $175 $-1 #
edge $-1 $429 0 $429 6.2831853071796004 $176 $430 forward 7 unknown #
vertex $-1 $179 $431 #
ellipse-curve $-1 54.621675675334117 8.7912997363420224 10.894838845580583 0.79863551827123203 0 0.60181501223851219 0.60181501223851219 0 -0.79863551827123203 1 I I #
face $-1 $-1 $195 $27 $-1 $432 reversed single #
loop $-1 $-1 $306 $180 #
plane-surface $-1 0 29.686090355675166 0 0 -1 0 0 0 -1 forward_v I I I I #
coedge $-1 $433 $304 $307 $434 forward $181 $-1 #
coedge $-1 $310 $183 $184 $298 reversed $112 $-1 #
coedge $-1 $304 $433 $183 $296 reversed $181 $-1 #
edge $-1 $311 -14.007283028324037 $435 14.007283028324037 $295 $436 forward 7 unknown #
coedge $-1 $185 $184 $433 $437 forward $73 $-1 #
edge $-1 $302 -56.9670705282754 $435 56.9670705282754 $294 $438 forward 7 unknown #
coedge $-1 $307 $306 $185 $300 reversed $291 $-1 #
edge $-1 $439 -56.9670705282754 $301 56.9670705282754 $299 $440 forward 7 unknown #
vertex $-1 $187 $441 #
vertex $-1 $313 $442 #
straight-curve $-1 56.9670705282754 0 -14.007283028324037 0 -1 0 I I #
coedge $-1 $293 $295 $188 $305 reversed $181 $-1 #
edge $-1 $308 -29.686090355675166 $311 29.686090355675166 $304 $443 forward 7 unknown #
coedge $-1 $299 $189 $194 $314 forward $291 $-1 #
coedge $-1 $189 $299 $293 $434 reversed $291 $-1 #
vertex $-1 $190 $444 #
straight-curve $-1 0 29.686090355675166 14.007283028324037 -1 0 0 I I #
coedge $-1 $191 $294 $193 $313 reversed $112 $-1 #
vertex $-1 $305 $445 #
straight-curve $-1 0 -29.686090355675166 14.007283028324037 1 0 0 I I #
edge $-1 $196 -14.007283028324037 $302 14.007283028324037 $193 $446 forward 7 unknown #
edge $-1 $197 -14.007283028324037 $301 14.007283028324037 $194 $447 forward 7 unknown #
point $-1 56.9670705282754 -29.686090355675166 14.007283028324037 #
point $-1 56.9670705282754 29.686090355675166 14.007283028324037 #
face $-1 $-1 $448 $28 $-1 $449 reversed single #
loop $-1 $-1 $450 $199 #
plane-surface $-1 0 0 -14.007283028324037 0 0 1 1 0 0 forward_v I I I I #
coedge $-1 $327 $337 $322 $451 forward $200 $-1 #
coedge $-1 $205 $202 $450 $452 reversed $120 $-1 #
coedge $-1 $202 $205 $320 $451 reversed $120 $-1 #
coedge $-1 $453 $454 $202 $324 forward $448 $-1 #
edge $-1 $455 -14.007283028324037 $456 14.007283028324037 $323 $457 forward 7 unknown #
coedge $-1 $450 $208 $203 $326 forward $318 $-1 #
edge $-1 $213 -23.084934084707296 $330 -16.283448524526246 $325 $458 forward 7 unknown #
coedge $-1 $210 $320 $204 $328 forward $200 $-1 #
edge $-1 $329 16.283448524526246 $212 23.084934084707296 $327 $459 forward 7 unknown #
vertex $-1 $328 $460 #
vertex $-1 $326 $461 #
straight-curve $-1 -35.967639829143017 -13.285988741414569 0 0 0 -1 I I #
coedge $-1 $454 $453 $207 $333 forward $448 $-1 #
edge $-1 $338 -14.007283028324037 $335 14.007283028324037 $332 $462 forward 7 unknown #
coedge $-1 $208 $450 $454 $463 forward $318 $-1 #
vertex $-1 $209 $464 #
straight-curve $-1 -42.769125389324067 -10.743019774272433 -14.007283028324037 0 1 0 I I #
coedge $-1 $320 $210 $453 $465 forward $200 $-1 #
vertex $-1 $465 $466 #
straight-curve $-1 -42.769125389324067 -10.743019774272433 14.007283028324037 0 -1 0 I I #
point $-1 -42.769125389324067 -13.285988741414569 14.007283028324037 #
point $-1 -42.769125389324067 -13.285988741414569 -14.007283028324037 #
face $-1 $-1 $355 $29 $-1 $467 reversed single #
loop $-1 $-1 $361 $215 #
plane-surface $-1 0 0 14.007283028324037 0 0 1 1 0 0 forward_v I I I I #
coedge $-1 $224 $468 $346 $469 forward $216 $-1 #
coedge $-1 $470 $218 $345 $469 reversed $128 $-1 #
coedge $-1 $218 $470 $361 $471 reversed $128 $-1 #
edge $-1 $362 -14.007283028324037 $359 14.007283028324037 $218 $472 forward 7 unknown #
coedge $-1 $468 $224 $219 $350 forward $216 $-1 #
edge $-1 $229 2.5429689671421318 $356 18.943070581402729 $349 $473 forward 7 unknown #
coedge $-1 $226 $474 $220 $352 forward $343 $-1 #
edge $-1 $357 -18.943070581402729 $228 -2.5429689671421318 $351 $475 forward 7 unknown #
coedge $-1 $476 $221 $474 $477 reversed $355 $-1 #
coedge $-1 $221 $476 $468 $478 reversed $355 $-1 #
loop $-1 $-1 $476 $342 #
vertex $-1 $478 $479 #
vertex $-1 $222 $480 #
straight-curve $-1 -42.769125389324067 29.686090355675166 0 0 0 1 I I #
vertex $-1 $225 $481 #
straight-curve $-1 -19.684191304616771 13.285988741414563 -14.007283028324037 -1 0 0 I I #
coedge $-1 $474 $226 $347 $471 forward $343 $-1 #
vertex $-1 $227 $482 #
straight-curve $-1 -19.684191304616771 13.285988741414563 14.007283028324037 1 0 0 I I #
point $-1 -42.769125389324067 13.285988741414563 14.007283028324037 #
point $-1 -42.769125389324067 13.285988741414563 -14.007283028324037 #
loop $-1 $-1 $239 $231 #
plane-surface $-1 56.9670705282754 0 0 -1 0 0 0 0 1 forward_v I I I I #
coedge $-1 $369 $234 $236 $373 reversed $136 $-1 #
coedge $-1 $234 $368 $483 $484 reversed $136 $-1 #
coedge $-1 $242 $237 $234 $371 forward $232 $-1 #
edge $-1 $374 12.580457909678337 $485 17.271247615560895 $370 $486 forward 7 unknown #
coedge $-1 $236 $235 $377 $487 reversed $85 $-1 #
edge $-1 $488 -113.9341410565508 $374 -106.13973644634561 $368 $489 forward 7 unknown #
vertex $-1 $238 $490 #
straight-curve $-1 52.276280822392849 -4.3956498681710148 14.007283028324039 0 -1 0 I I #
coedge $-1 $483 $239 $242 $381 reversed $366 $-1 #
coedge $-1 $239 $483 $372 $487 forward $366 $-1 #
vertex $-1 $240 $491 #
straight-curve $-1 56.9670705282754 -6.271061079359681 83.670761474327861 0 0 1 I I #
straight-curve $-1 -11.600205966057089 -6.271061079359681 98.774246454323233 0.60181501223851219 0 -0.79863551827123203 I I #
edge $-1 $485 -11.311538393324378 $243 -6.271061079359681 $376 $492 forward 7 unknown #
point $-1 56.9670705282754 -6.271061079359681 14.007283028324037 #
point $-1 52.276280822392842 -6.271061079359681 14.007283028324039 #
edge $-1 $493 1 $493 0 $246 $-1 forward 7 unknown #
vertex $-1 $247 $494 #
ellipse-curve $-1 51.483289375865837 -8.7912997363420295 8.5298952060688844 0.79863551827123203 0 0.60181501223851219 0.60181501223851219 0 -0.79863551827123203 1 I I #
point $-1 55.223490687572628 -8.7912997363420295 10.09620332730935 #
plane-surface $-1 0 0 14.007283028324037 0 0 1 1 0 0 forward_v I I I I #
coedge $-1 $399 $398 $391 $495 forward $251 $-1 #
coedge $-1 $391 $253 $255 $395 reversed $151 $-1 #
coedge $-1 $253 $390 $389 $495 reversed $151 $-1 #
coedge $-1 $261 $256 $253 $393 forward $262 $-1 #
edge $-1 $396 12.580457909678337 $496 17.271247615560895 $392 $497 forward 7 unknown #
coedge $-1 $255 $254 $399 $498 reversed $94 $-1 #
edge $-1 $499 -113.9341410565508 $396 -106.13973644634561 $390 $500 forward 7 unknown #
vertex $-1 $257 $501 #
straight-curve $-1 52.276280822392849 -1.7763568394002505e-015 14.007283028324039 0 -1 0 I I #
coedge $-1 $389 $258 $261 $403 reversed $251 $-1 #
coedge $-1 $258 $389 $394 $498 forward $251 $-1 #
vertex $-1 $259 $502 #
straight-curve $-1 56.9670705282754 2.5202386569823449 83.670761474327861 0 0 1 I I #
straight-curve $-1 -11.600205966057089 2.5202386569823449 98.774246454323233 0.60181501223851219 0 -0.79863551827123203 I I #
edge $-1 $496 -2.5202386569823521 $263 2.5202386569823449 $398 $503 forward 7 unknown #
point $-1 56.9670705282754 2.5202386569823449 14.007283028324037 #
point $-1 52.276280822392842 2.5202386569823449 14.007283028324039 #
edge $-1 $504 1 $504 0 $266 $-1 forward 7 unknown #
vertex $-1 $267 $505 #
ellipse-curve $-1 51.483289375865837 -3.5527136788005009e-015 8.5298952060688844 0.79863551827123203 0 0.60181501223851219 0.60181501223851219 0 -0.79863551827123203 1 I I #
point $-1 55.223490687572628 -3.5527136788005009e-015 10.09620332730935 #
plane-surface $-1 0 0 14.007283028324037 0 0 1 1 0 0 forward_v I I I I #
coedge $-1 $421 $420 $413 $506 forward $271 $-1 #
coedge $-1 $413 $273 $275 $417 reversed $166 $-1 #
coedge $-1 $273 $412 $411 $506 reversed $166 $-1 #
coedge $-1 $281 $276 $273 $415 forward $282 $-1 #
edge $-1 $418 12.580457909678337 $507 17.271247615560895 $414 $508 forward 7 unknown #
coedge $-1 $275 $274 $421 $509 reversed $103 $-1 #
edge $-1 $510 -113.9341410565508 $418 -106.13973644634561 $412 $511 forward 7 unknown #
vertex $-1 $277 $512 #
straight-curve $-1 52.276280822392849 4.3956498681710112 14.007283028324039 0 -1 0 I I #
coedge $-1 $411 $278 $281 $425 reversed $271 $-1 #
coedge $-1 $278 $411 $416 $509 forward $271 $-1 #
vertex $-1 $279 $513 #
straight-curve $-1 56.9670705282754 11.311538393324371 83.670761474327861 0 0 1 I I #
straight-curve $-1 -11.600205966057089 11.311538393324371 98.774246454323233 0.60181501223851219 0 -0.79863551827123203 I I #
edge $-1 $507 6.2710610793596739 $283 11.311538393324371 $420 $514 forward 7 unknown #
point $-1 56.9670705282754 11.311538393324371 14.007283028324037 #
point $-1 52.276280822392842 11.311538393324371 14.007283028324039 #
edge $-1 $515 1 $515 0 $286 $-1 forward 7 unknown #
vertex $-1 $287 $516 #
ellipse-curve $-1 51.483289375865837 8.7912997363420224 8.5298952060688844 0.79863551827123203 0 0.60181501223851219 0.60181501223851219 0 -0.79863551827123203 1 I I #
point $-1 55.223490687572628 8.7912997363420224 10.09620332730935 #
plane-surface $-1 56.9670705282754 0 0 -1 0 0 0 0 1 forward_v I I I I #
coedge $-1 $295 $293 $297 $437 reversed $181 $-1 #
edge $-1 $308 -14.007283028324037 $439 14.007283028324037 $307 $517 forward 7 unknown #
vertex $-1 $437 $518 #
straight-curve $-1 -56.9670705282754 -29.686090355675166 0 0 0 -1 I I #
edge $-1 $435 -29.686090355675166 $439 29.686090355675166 $433 $519 forward 7 unknown #
straight-curve $-1 0 -29.686090355675166 -14.007283028324037 -1 0 0 I I #
vertex $-1 $300 $520 #
straight-curve $-1 0 29.686090355675166 -14.007283028324037 1 0 0 I I #
point $-1 56.9670705282754 29.686090355675166 -14.007283028324037 #
point $-1 56.9670705282754 -29.686090355675166 -14.007283028324037 #
straight-curve $-1 -56.9670705282754 0 14.007283028324037 0 -1 0 I I #
point $-1 -56.9670705282754 29.686090355675166 14.007283028324037 #
point $-1 -56.9670705282754 -29.686090355675166 14.007283028324037 #
straight-curve $-1 56.9670705282754 -29.686090355675166 0 0 0 -1 I I #
straight-curve $-1 56.9670705282754 29.686090355675166 0 0 0 -1 I I #
loop $-1 $-1 $323 $317 #
plane-surface $-1 0 -29.686090355675166 0 0 1 0 0 0 1 forward_v I I I I #
coedge $-1 $334 $325 $321 $452 forward $318 $-1 #
edge $-1 $456 -18.943070581402729 $329 -2.5429689671421354 $320 $521 forward 7 unknown #
edge $-1 $330 2.5429689671421354 $455 18.943070581402729 $450 $522 forward 7 unknown #
coedge $-1 $332 $323 $337 $465 reversed $448 $-1 #
coedge $-1 $323 $332 $334 $463 reversed $448 $-1 #
vertex $-1 $463 $523 #
vertex $-1 $324 $524 #
straight-curve $-1 -35.967639829143017 -29.686090355675166 0 0 0 1 I I #
straight-curve $-1 -19.684191304616771 -13.285988741414569 -14.007283028324037 1 0 0 I I #
straight-curve $-1 -19.684191304616771 -13.285988741414569 14.007283028324037 -1 0 0 I I #
point $-1 -35.967639829143017 -13.285988741414569 14.007283028324037 #
point $-1 -35.967639829143017 -13.285988741414569 -14.007283028324037 #
straight-curve $-1 -42.769125389324067 -29.686090355675166 0 0 0 -1 I I #
edge $-1 $455 35.967639829143017 $335 42.769125389324067 $454 $525 forward 7 unknown #
point $-1 -42.769125389324067 -29.686090355675162 -14.007283028324037 #
edge $-1 $338 -42.769125389324067 $456 -35.967639829143017 $453 $526 forward 7 unknown #
point $-1 -42.769125389324067 -29.686090355675162 14.007283028324037 #
plane-surface $-1 0 29.686090355675166 0 0 -1 0 0 0 -1 forward_v I I I I #
coedge $-1 $345 $349 $354 $478 forward $216 $-1 #
edge $-1 $527 -18.943070581402729 $359 -2.5429689671421318 $345 $528 forward 7 unknown #
coedge $-1 $347 $346 $476 $529 reversed $128 $-1 #
edge $-1 $362 2.5429689671421318 $530 18.943070581402729 $361 $531 forward 7 unknown #
straight-curve $-1 -35.967639829143017 13.285988741414563 0 0 0 -1 I I #
straight-curve $-1 -42.769125389324067 10.743019774272431 -14.007283028324037 0 1 0 I I #
coedge $-1 $351 $361 $353 $477 forward $343 $-1 #
straight-curve $-1 -42.769125389324067 10.743019774272431 14.007283028324037 0 -1 0 I I #
coedge $-1 $354 $353 $470 $529 forward $355 $-1 #
edge $-1 $530 35.967639829143017 $357 42.769125389324067 $353 $532 forward 7 unknown #
edge $-1 $356 -42.769125389324067 $527 -35.967639829143017 $354 $533 forward 7 unknown #
point $-1 -42.769125389324067 29.686090355675162 -14.007283028324037 #
point $-1 -42.769125389324067 29.686090355675162 14.007283028324037 #
point $-1 -35.967639829143017 13.285988741414563 -14.007283028324037 #
point $-1 -35.967639829143017 13.285988741414563 14.007283028324037 #
coedge $-1 $377 $376 $369 $484 forward $366 $-1 #
edge $-1 $485 69.663478446003822 $488 75.888366811490727 $483 $534 forward 7 unknown #
vertex $-1 $381 $535 #
straight-curve $-1 39.695822912714505 -11.311538393324378 14.007283028324039 1 0 0 I I #
edge $-1 $488 -6.9158885251533633 $378 -1.8754112111886663 $377 $536 forward 7 unknown #
vertex $-1 $487 $537 #
straight-curve $-1 -11.600205966057089 -11.311538393324378 98.774246454323233 -0.60181501223851219 0 0.79863551827123203 I I #
point $-1 52.276280822392842 -11.311538393324378 14.007283028324039 #
point $-1 56.9670705282754 -6.271061079359681 7.7823946628371345 #
straight-curve $-1 56.9670705282754 0 14.007283028324037 0 1 0 I I #
vertex $-1 $384 $538 #
point $-1 52.085104388104355 -8.7912997363420295 7.7312596877976532 #
edge $-1 $496 69.663478446003822 $499 75.888366811490727 $389 $539 forward 7 unknown #
vertex $-1 $403 $540 #
straight-curve $-1 39.695822912714505 -2.5202386569823521 14.007283028324039 1 0 0 I I #
edge $-1 $499 -2.5202386569823503 $400 2.5202386569823467 $399 $541 forward 7 unknown #
vertex $-1 $498 $542 #
straight-curve $-1 -11.600205966057089 -2.5202386569823521 98.774246454323233 -0.60181501223851219 0 0.79863551827123203 I I #
point $-1 52.276280822392842 -2.5202386569823521 14.007283028324039 #
point $-1 56.9670705282754 2.5202386569823449 7.7823946628371345 #
straight-curve $-1 56.9670705282754 0 14.007283028324037 0 1 0 I I #
vertex $-1 $406 $543 #
point $-1 52.085104388104355 -3.5527136788005009e-015 7.7312596877976532 #
edge $-1 $507 69.663478446003822 $510 75.888366811490727 $411 $544 forward 7 unknown #
vertex $-1 $425 $545 #
straight-curve $-1 39.695822912714505 6.2710610793596739 14.007283028324039 1 0 0 I I #
edge $-1 $510 1.8754112111886627 $422 6.9158885251533597 $421 $546 forward 7 unknown #
vertex $-1 $509 $547 #
straight-curve $-1 -11.600205966057089 6.2710610793596739 98.774246454323233 -0.60181501223851219 0 0.79863551827123203 I I #
point $-1 52.276280822392842 6.2710610793596739 14.007283028324039 #
point $-1 56.9670705282754 11.311538393324371 7.7823946628371345 #
straight-curve $-1 56.9670705282754 0 14.007283028324037 0 1 0 I I #
vertex $-1 $428 $548 #
point $-1 52.085104388104355 8.7912997363420224 7.7312596877976532 #
straight-curve $-1 -56.9670705282754 29.686090355675166 0 0 0 -1 I I #
point $-1 -56.9670705282754 -29.686090355675166 -14.007283028324037 #
straight-curve $-1 -56.9670705282754 0 -14.007283028324037 0 1 0 I I #
point $-1 -56.9670705282754 29.686090355675166 -14.007283028324037 #
straight-curve $-1 -35.967639829143017 -10.743019774272433 14.007283028324037 0 1 0 I I #
straight-curve $-1 -35.967639829143017 -10.743019774272433 -14.007283028324037 0 -1 0 I I #
point $-1 -35.967639829143017 -29.686090355675162 -14.007283028324037 #
point $-1 -35.967639829143017 -29.686090355675162 14.007283028324037 #
straight-curve $-1 0 -29.686090355675166 -14.007283028324037 -1 0 0 I I #
straight-curve $-1 0 -29.686090355675166 14.007283028324037 1 0 0 I I #
vertex $-1 $529 $549 #
straight-curve $-1 -35.967639829143017 10.743019774272431 -14.007283028324037 0 -1 0 I I #
edge $-1 $530 -14.007283028324037 $527 14.007283028324037 $476 $550 forward 7 unknown #
vertex $-1 $477 $551 #
straight-curve $-1 -35.967639829143017 10.743019774272431 14.007283028324037 0 1 0 I I #
straight-curve $-1 0 29.686090355675166 14.007283028324037 -1 0 0 I I #
straight-curve $-1 0 29.686090355675166 -14.007283028324037 1 0 0 I I #
straight-curve $-1 56.9670705282754 -11.311538393324378 83.670761474327861 0 0 -1 I I #
point $-1 56.9670705282754 -11.311538393324378 14.007283028324037 #
straight-curve $-1 56.9670705282754 -4.3956498681710148 7.7823946628371274 0 1 0 I I #
point $-1 56.9670705282754 -11.311538393324378 7.7823946628371345 #
point $-1 50.684653857594611 -8.7912997363420295 7.9280801938303727 #
straight-curve $-1 56.9670705282754 -2.5202386569823521 83.670761474327861 0 0 -1 I I #
point $-1 56.9670705282754 -2.5202386569823521 14.007283028324037 #
straight-curve $-1 56.9670705282754 -1.7763568394002505e-015 7.7823946628371274 0 1 0 I I #
point $-1 56.9670705282754 -2.5202386569823521 7.7823946628371345 #
point $-1 50.684653857594611 -3.5527136788005009e-015 7.9280801938303727 #
straight-curve $-1 56.9670705282754 6.2710610793596739 83.670761474327861 0 0 -1 I I #
point $-1 56.9670705282754 6.2710610793596739 14.007283028324037 #
straight-curve $-1 56.9670705282754 4.3956498681710112 7.7823946628371274 0 1 0 I I #
point $-1 56.9670705282754 6.2710610793596739 7.7823946628371345 #
point $-1 50.684653857594611 8.7912997363420224 7.9280801938303727 #
point $-1 -35.967639829143017 29.686090355675162 -14.007283028324037 #
straight-curve $-1 -35.967639829143017 29.686090355675166 0 0 0 -1 I I #
point $-1 -35.967639829143017 29.686090355675162 14.007283028324037 #
End-of-ACIS-data 