500 0 4 0           
7 Unknown 11 ACIS 5.0 NT 24 Thu Mar 25 23:42:48 1999 
-1 9.9999999999999995e-007 1e-010 
body $-1 $4 $-1 $5 #
body $-1 $6 $-1 $7 #
body $-1 $8 $-1 $9 #
body $-1 $10 $-1 $11 #
lump $-1 $-1 $12 $0 #
transform $-1 1 0 0 0 1 0 0 0 1 66.911221655934327 36.11229283652365 10.036433520748618 1 rotate no_reflect no_shear #
lump $-1 $-1 $13 $1 #
transform $-1 1 0 0 0 1 0 0 0 1 66.911221655934327 36.11229283652365 10.036433520748618 1 rotate no_reflect no_shear #
lump $-1 $-1 $14 $2 #
transform $-1 1 0 0 0 1 0 0 0 1 66.911221655934327 36.11229283652365 10.036433520748618 1 rotate no_reflect no_shear #
lump $-1 $-1 $15 $3 #
transform $-1 1 0 0 0 1 0 0 0 1 66.911221655934327 36.11229283652365 10.036433520748618 1 rotate no_reflect no_shear #
shell $-1 $-1 $-1 $16 $-1 $4 #
shell $-1 $-1 $-1 $17 $-1 $6 #
shell $-1 $-1 $-1 $18 $-1 $8 #
shell $-1 $-1 $-1 $19 $-1 $10 #
face $-1 $20 $21 $12 $-1 $22 forward single #
face $-1 $23 $24 $13 $-1 $25 reversed single #
face $-1 $26 $27 $14 $-1 $28 reversed single #
face $-1 $29 $30 $15 $-1 $31 forward single #
face $-1 $32 $33 $12 $-1 $34 reversed single #
loop $-1 $-1 $35 $16 #
plane-surface $-1 0 0 10.036433520748618 0 0 1 1 0 0 forward_v I I I I #
face $-1 $36 $37 $13 $-1 $38 reversed single #
loop $-1 $-1 $39 $17 #
plane-surface $-1 0 -30.793871331802258 7.0364335207486182 0 0 1 1 0 0 forward_v I I I I #
face $-1 $40 $41 $14 $-1 $42 reversed single #
loop $-1 $-1 $43 $18 #
plane-surface $-1 -54.538832114348764 61.587867001308723 150.88597044965277 1 0 0 0 -0.61566148304635926 -0.78801074757464917 forward_v I I I I #
face $-1 $44 $45 $15 $-1 $46 forward single #
loop $-1 $47 $48 $19 #
cone-surface $-1 -45.017455326265484 28.278416111127115 2.9039572550040553 0 -0.61566148304635926 -0.78801074757464917 3 0 0 1 I I 0 1 3 forward I I I I #
face $-1 $49 $50 $12 $-1 $51 reversed single #
loop $-1 $-1 $52 $20 #
plane-surface $-1 0 0 -10.036433520748618 0 0 1 1 0 0 forward_v I I I I #
coedge $-1 $53 $54 $55 $56 forward $21 $-1 #
face $-1 $57 $58 $13 $-1 $59 reversed single #
loop $-1 $-1 $60 $23 #
plane-surface $-1 0 -25.475449827080865 8.5364335207486182 0 -1 0 0 0 -1 forward_v I I I I #
coedge $-1 $61 $62 $63 $64 reversed $24 $-1 #
face $-1 $65 $66 $14 $-1 $67 reversed single #
loop $-1 $-1 $68 $26 #
plane-surface $-1 -45.017455326265484 -20.801456912963673 45.432446853201043 0 0.61566148304635926 0.78801074757464917 1 0 0 forward_v I I I I #
coedge $-1 $69 $70 $71 $72 reversed $27 $-1 #
face $-1 $-1 $73 $15 $-1 $74 forward single #
loop $-1 $75 $76 $29 #
cone-surface $-1 -45.017455326265484 25.325506954443597 -0.87559403439013472 0 -0.61566148304635926 -0.78801074757464917 1.5 0 0 1 I I -0.70710678118654757 0.70710678118654757 1.5 forward I I I I #
loop $-1 $-1 $77 $19 #
coedge $-1 $48 $48 $78 $79 reversed $30 $-1 #
face $-1 $80 $81 $12 $-1 $82 reversed single #
loop $-1 $-1 $83 $32 #
plane-surface $-1 0 -36.11229283652365 0 0 1 0 0 0 1 forward_v I I I I #
coedge $-1 $84 $85 $86 $87 forward $33 $-1 #
coedge $-1 $88 $35 $89 $90 forward $21 $-1 #
coedge $-1 $35 $88 $91 $92 forward $21 $-1 #
coedge $-1 $93 $94 $35 $56 reversed $95 $-1 #
edge $-1 $96 -36.11229283652365 $97 36.11229283652365 $55 $98 forward 7 unknown #
face $-1 $99 $100 $13 $-1 $101 reversed single #
loop $-1 $-1 $102 $36 #
plane-surface $-1 -66.911221655934327 0 0 1 0 0 0 0 -1 forward_v I I I I #
coedge $-1 $103 $104 $105 $106 reversed $37 $-1 #
coedge $-1 $107 $39 $108 $109 reversed $24 $-1 #
coedge $-1 $39 $107 $103 $110 forward $24 $-1 #
coedge $-1 $105 $111 $39 $64 forward $112 $-1 #
edge $-1 $113 -20.715357170622521 $114 -10.078514161179736 $63 $115 forward 7 unknown #
face $-1 $116 $117 $14 $-1 $118 forward single #
loop $-1 $-1 $119 $40 #
plane-surface $-1 -35.496078538182203 61.587867001308723 150.88597044965277 -1 0 0 0 0.61566148304635926 0.78801074757464917 forward_v I I I I #
coedge $-1 $120 $121 $122 $123 reversed $41 $-1 #
coedge $-1 $70 $43 $124 $125 reversed $27 $-1 #
coedge $-1 $43 $69 $120 $126 reversed $27 $-1 #
coedge $-1 $122 $127 $43 $72 forward $117 $-1 #
edge $-1 $128 -5.3183593358692889 $129 6.2905602506958758 $71 $130 forward 7 unknown #
loop $-1 $-1 $78 $44 #
plane-surface $-1 -45.017455326265484 -20.801456912963673 45.432446853201043 0 0.61566148304635926 0.78801074757464917 1 0 0 forward_v I I I I #
loop $-1 $-1 $131 $29 #
coedge $-1 $76 $76 $77 $132 reversed $45 $-1 #
coedge $-1 $77 $77 $76 $132 forward $47 $-1 #
coedge $-1 $78 $78 $48 $79 forward $73 $-1 #
edge $-1 $133 6.9962805167220876e-016 $133 6.2831853071796013 $78 $134 forward 7 unknown #
face $-1 $135 $136 $12 $-1 $137 reversed single #
loop $-1 $-1 $138 $49 #
plane-surface $-1 -66.911221655934327 0 0 1 0 0 0 0 -1 forward_v I I I I #
coedge $-1 $139 $91 $140 $141 forward $50 $-1 #
coedge $-1 $142 $52 $139 $143 forward $33 $-1 #
coedge $-1 $52 $142 $144 $145 forward $33 $-1 #
coedge $-1 $94 $93 $52 $87 reversed $95 $-1 #
edge $-1 $146 -36.11229283652365 $147 36.11229283652365 $86 $148 forward 7 unknown #
coedge $-1 $54 $53 $149 $150 forward $21 $-1 #
coedge $-1 $151 $152 $53 $90 reversed $136 $-1 #
edge $-1 $97 -66.911221655934327 $153 66.911221655934327 $89 $154 forward 7 unknown #
coedge $-1 $83 $155 $54 $92 reversed $50 $-1 #
edge $-1 $156 -66.911221655934327 $96 66.911221655934327 $91 $157 forward 7 unknown #
coedge $-1 $86 $55 $155 $158 forward $95 $-1 #
coedge $-1 $55 $86 $151 $159 reversed $95 $-1 #
loop $-1 $-1 $93 $135 #
vertex $-1 $56 $160 #
vertex $-1 $56 $161 #
straight-curve $-1 66.911221655934327 0 10.036433520748618 0 1 0 I I #
face $-1 $162 $163 $13 $-1 $164 forward single #
loop $-1 $-1 $108 $57 #
plane-surface $-1 0 -36.11229283652365 0 0 1 0 0 0 1 forward_v I I I I #
coedge $-1 $165 $166 $167 $168 forward $58 $-1 #
coedge $-1 $167 $60 $62 $110 reversed $37 $-1 #
coedge $-1 $60 $167 $169 $170 reversed $37 $-1 #
coedge $-1 $171 $63 $60 $106 forward $112 $-1 #
edge $-1 $114 2.7682167603743091 $172 5.7682167603743091 $105 $173 forward 7 unknown #
coedge $-1 $62 $61 $165 $174 reversed $24 $-1 #
coedge $-1 $175 $176 $61 $109 forward $100 $-1 #
edge $-1 $177 -66.911221655934327 $113 66.911221655934327 $108 $178 forward 7 unknown #
edge $-1 $179 -66.911221655934327 $114 66.911221655934327 $103 $180 forward 7 unknown #
coedge $-1 $63 $171 $175 $181 forward $112 $-1 #
loop $-1 $-1 $105 $162 #
vertex $-1 $109 $182 #
vertex $-1 $64 $183 #
straight-curve $-1 66.911221655934327 -15.396935665901129 7.0364335207486182 0 1 0 I I #
face $-1 $-1 $184 $14 $-1 $185 reversed single #
loop $-1 $-1 $71 $65 #
plane-surface $-1 0 0 10.036433520748618 0 0 1 1 0 0 forward_v I I I I #
coedge $-1 $186 $187 $188 $189 reversed $66 $-1 #
coedge $-1 $190 $68 $70 $126 forward $41 $-1 #
coedge $-1 $68 $190 $186 $191 forward $41 $-1 #
coedge $-1 $188 $71 $68 $123 forward $117 $-1 #
edge $-1 $129 -32.030104451216019 $192 -12.987350875049462 $122 $193 forward 7 unknown #
coedge $-1 $194 $195 $69 $125 forward $184 $-1 #
edge $-1 $196 -74.476433899502496 $128 -65.406551704077771 $124 $197 forward 7 unknown #
edge $-1 $129 57.492655147613171 $196 72.224585673047329 $70 $198 forward 7 unknown #
coedge $-1 $71 $188 $194 $199 forward $117 $-1 #
vertex $-1 $125 $200 #
vertex $-1 $72 $201 #
straight-curve $-1 -54.538832114348764 30.793933500654362 10.036433520748616 0 -1 0 I I #
coedge $-1 $131 $131 $-1 $202 reversed $75 $-1 #
edge $-1 $203 0 $203 6.2831853071796004 $76 $204 forward 7 unknown #
vertex $-1 $79 $205 #
ellipse-curve $-1 -45.017455326265484 30.307833043241072 5.5014924230362432 0 0.61566148304635926 0.78801074757464917 3 0 0 1 I I #
face $-1 $-1 $95 $12 $-1 $206 reversed single #
loop $-1 $-1 $151 $80 #
plane-surface $-1 0 36.11229283652365 0 0 -1 0 0 0 -1 forward_v I I I I #
coedge $-1 $207 $149 $152 $208 forward $81 $-1 #
coedge $-1 $155 $83 $84 $143 reversed $50 $-1 #
coedge $-1 $149 $207 $83 $141 reversed $81 $-1 #
edge $-1 $156 -10.036433520748618 $209 10.036433520748618 $140 $210 forward 7 unknown #
coedge $-1 $85 $84 $207 $211 forward $33 $-1 #
edge $-1 $147 -66.911221655934327 $209 66.911221655934327 $139 $212 forward 7 unknown #
coedge $-1 $152 $151 $85 $145 reversed $136 $-1 #
edge $-1 $213 -66.911221655934327 $146 66.911221655934327 $144 $214 forward 7 unknown #
vertex $-1 $87 $215 #
vertex $-1 $158 $216 #
straight-curve $-1 66.911221655934327 0 -10.036433520748618 0 -1 0 I I #
coedge $-1 $138 $140 $88 $150 reversed $81 $-1 #
edge $-1 $153 -36.11229283652365 $156 36.11229283652365 $149 $217 forward 7 unknown #
coedge $-1 $144 $89 $94 $159 forward $136 $-1 #
coedge $-1 $89 $144 $138 $208 reversed $136 $-1 #
vertex $-1 $90 $218 #
straight-curve $-1 0 36.11229283652365 10.036433520748618 -1 0 0 I I #
coedge $-1 $91 $139 $93 $158 reversed $50 $-1 #
vertex $-1 $150 $219 #
straight-curve $-1 0 -36.11229283652365 10.036433520748618 1 0 0 I I #
edge $-1 $96 -10.036433520748618 $147 10.036433520748618 $93 $220 forward 7 unknown #
edge $-1 $97 -10.036433520748618 $146 10.036433520748618 $94 $221 forward 7 unknown #
point $-1 66.911221655934327 -36.11229283652365 10.036433520748618 #
point $-1 66.911221655934327 36.11229283652365 10.036433520748618 #
face $-1 $-1 $112 $13 $-1 $222 reversed single #
loop $-1 $-1 $169 $99 #
plane-surface $-1 0 0 10.036433520748618 0 0 1 1 0 0 forward_v I I I I #
coedge $-1 $223 $102 $107 $174 forward $58 $-1 #
coedge $-1 $102 $223 $224 $225 reversed $58 $-1 #
coedge $-1 $104 $103 $102 $168 reversed $37 $-1 #
edge $-1 $226 -5.7682167603743091 $179 -2.7682167603743091 $102 $227 forward 7 unknown #
coedge $-1 $224 $228 $104 $170 forward $163 $-1 #
edge $-1 $172 -66.911221655934327 $226 66.911221655934327 $169 $229 forward 7 unknown #
coedge $-1 $111 $105 $228 $230 reversed $112 $-1 #
vertex $-1 $106 $231 #
straight-curve $-1 66.911221655934327 -25.475449827080865 4.2682167603743091 0 0 1 I I #
edge $-1 $179 10.078514161179736 $177 20.715357170622521 $165 $232 forward 7 unknown #
coedge $-1 $233 $108 $111 $181 reversed $100 $-1 #
coedge $-1 $108 $233 $223 $234 forward $100 $-1 #
vertex $-1 $109 $235 #
straight-curve $-1 0 -36.11229283652365 7.0364335207486182 1 0 0 I I #
vertex $-1 $174 $236 #
straight-curve $-1 0 -25.475449827080865 7.0364335207486182 1 0 0 I I #
edge $-1 $237 -10.036433520748618 $113 -7.0364335207486182 $111 $238 forward 7 unknown #
point $-1 66.911221655934327 -36.11229283652365 7.0364335207486182 #
point $-1 66.911221655934327 -25.475449827080865 7.0364335207486182 #
loop $-1 $-1 $124 $116 #
plane-surface $-1 0 36.11229283652365 0 0 -1 0 0 0 -1 forward_v I I I I #
coedge $-1 $187 $119 $121 $191 reversed $66 $-1 #
coedge $-1 $119 $186 $239 $240 reversed $66 $-1 #
coedge $-1 $127 $122 $119 $189 forward $117 $-1 #
edge $-1 $192 -6.2905602506958758 $241 5.3183593358692889 $188 $242 forward 7 unknown #
coedge $-1 $121 $120 $195 $243 reversed $41 $-1 #
edge $-1 $244 -72.224585673047329 $192 -57.492655147613171 $186 $245 forward 7 unknown #
vertex $-1 $123 $246 #
straight-curve $-1 -22.508727663132742 24.503373249958486 10.036433520748613 1 0 0 I I #
coedge $-1 $239 $124 $127 $199 reversed $184 $-1 #
coedge $-1 $124 $239 $190 $243 forward $184 $-1 #
vertex $-1 $125 $247 #
straight-curve $-1 -54.538832114348764 36.11229283652365 75.442985224826387 0 0 1 I I #
straight-curve $-1 -54.538832114348764 -20.801456912963673 45.432446853201043 0 0.78801074757464917 -0.61566148304635926 I I #
edge $-1 $241 35.496078538182203 $128 54.538832114348764 $194 $248 forward 7 unknown #
point $-1 -54.538832114348764 36.11229283652365 10.036433520748618 #
point $-1 -54.538832114348764 24.503373249958486 10.036433520748616 #
edge $-1 $249 1 $249 0 $131 $-1 forward 7 unknown #
vertex $-1 $132 $250 #
ellipse-curve $-1 -45.017455326265484 26.248999179013136 0.30642208697183904 0 0.61566148304635926 0.78801074757464917 3 0 0 1 I I #
point $-1 -42.017455326265484 30.307833043241097 5.5014924230362716 #
plane-surface $-1 66.911221655934327 0 0 -1 0 0 0 0 1 forward_v I I I I #
coedge $-1 $140 $138 $142 $211 reversed $81 $-1 #
edge $-1 $153 -10.036433520748618 $213 10.036433520748618 $152 $251 forward 7 unknown #
vertex $-1 $211 $252 #
straight-curve $-1 -66.911221655934327 -36.11229283652365 0 0 0 -1 I I #
edge $-1 $209 -36.11229283652365 $213 36.11229283652365 $207 $253 forward 7 unknown #
straight-curve $-1 0 -36.11229283652365 -10.036433520748618 -1 0 0 I I #
vertex $-1 $145 $254 #
straight-curve $-1 0 36.11229283652365 -10.036433520748618 1 0 0 I I #
point $-1 66.911221655934327 36.11229283652365 -10.036433520748618 #
point $-1 66.911221655934327 -36.11229283652365 -10.036433520748618 #
straight-curve $-1 -66.911221655934327 0 10.036433520748618 0 -1 0 I I #
point $-1 -66.911221655934327 36.11229283652365 10.036433520748618 #
point $-1 -66.911221655934327 -36.11229283652365 10.036433520748618 #
straight-curve $-1 66.911221655934327 -36.11229283652365 0 0 0 -1 I I #
straight-curve $-1 66.911221655934327 36.11229283652365 0 0 0 -1 I I #
plane-surface $-1 66.911221655934327 0 0 -1 0 0 0 0 1 forward_v I I I I #
coedge $-1 $166 $165 $176 $234 reversed $58 $-1 #
coedge $-1 $255 $169 $166 $225 forward $163 $-1 #
edge $-1 $226 25.475449827080865 $256 36.11229283652365 $166 $257 forward 7 unknown #
vertex $-1 $225 $258 #
straight-curve $-1 -66.911221655934327 -25.475449827080865 4.2682167603743091 0 0 -1 I I #
coedge $-1 $169 $255 $171 $230 forward $163 $-1 #
straight-curve $-1 0 -25.475449827080865 10.036433520748618 -1 0 0 I I #
edge $-1 $237 -36.11229283652365 $172 -25.475449827080865 $171 $259 forward 7 unknown #
point $-1 66.911221655934327 -25.475449827080865 10.036433520748618 #
straight-curve $-1 -66.911221655934327 -15.396935665901129 7.0364335207486182 0 -1 0 I I #
coedge $-1 $176 $175 $255 $260 reversed $100 $-1 #
edge $-1 $256 -10.036433520748618 $177 -7.0364335207486182 $223 $261 forward 7 unknown #
point $-1 -66.911221655934327 -36.11229283652365 7.0364335207486182 #
point $-1 -66.911221655934327 -25.475449827080865 7.0364335207486182 #
vertex $-1 $230 $262 #
straight-curve $-1 66.911221655934327 -36.11229283652365 0 0 0 -1 I I #
coedge $-1 $195 $194 $187 $240 forward $184 $-1 #
edge $-1 $241 65.406551704077771 $244 74.476433899502496 $239 $263 forward 7 unknown #
vertex $-1 $199 $264 #
straight-curve $-1 -35.496078538182203 30.793933500654362 10.036433520748616 0 1 0 I I #
edge $-1 $244 12.987350875049462 $196 32.030104451216019 $195 $265 forward 7 unknown #
vertex $-1 $243 $266 #
straight-curve $-1 -35.496078538182203 -20.801456912963673 45.432446853201043 0 -0.78801074757464917 0.61566148304635926 I I #
point $-1 -35.496078538182203 24.503373249958486 10.036433520748616 #
point $-1 -54.538832114348764 36.11229283652365 0.96655132532389132 #
straight-curve $-1 0 36.11229283652365 10.036433520748618 -1 0 0 I I #
vertex $-1 $202 $267 #
point $-1 -42.017455326265484 26.248999179013136 0.30642208697183904 #
straight-curve $-1 -66.911221655934327 36.11229283652365 0 0 0 -1 I I #
point $-1 -66.911221655934327 -36.11229283652365 -10.036433520748618 #
straight-curve $-1 -66.911221655934327 0 -10.036433520748618 0 1 0 I I #
point $-1 -66.911221655934327 36.11229283652365 -10.036433520748618 #
coedge $-1 $228 $224 $233 $260 forward $163 $-1 #
vertex $-1 $225 $268 #
straight-curve $-1 -66.911221655934327 0 10.036433520748618 0 -1 0 I I #
point $-1 -66.911221655934327 -25.475449827080865 10.036433520748618 #
straight-curve $-1 66.911221655934327 0 10.036433520748618 0 1 0 I I #
edge $-1 $256 -66.911221655934327 $237 66.911221655934327 $233 $269 forward 7 unknown #
straight-curve $-1 -66.911221655934327 -36.11229283652365 0 0 0 -1 I I #
point $-1 66.911221655934327 -36.11229283652365 10.036433520748618 #
straight-curve $-1 -35.496078538182203 36.11229283652365 75.442985224826387 0 0 -1 I I #
point $-1 -35.496078538182203 36.11229283652365 10.036433520748618 #
straight-curve $-1 -22.508727663132742 36.11229283652365 0.96655132532389487 -1 0 0 I I #
point $-1 -35.496078538182203 36.11229283652365 0.96655132532389132 #
point $-1 -45.017455326265484 24.402014729874058 -2.0576101557521085 #
point $-1 -66.911221655934327 -36.11229283652365 10.036433520748618 #
straight-curve $-1 0 -36.11229283652365 10.036433520748618 1 0 0 I I #
End-of-ACIS-data 