500 0 14 0           
7 Unknown 11 ACIS 5.0 NT 24 Fri Mar 26 14:53:43 1999 
-1 9.9999999999999995e-007 1e-010 
body $-1 $14 $-1 $15 #
body $-1 $16 $-1 $17 #
body $-1 $18 $-1 $19 #
body $-1 $20 $-1 $21 #
body $-1 $22 $-1 $23 #
body $-1 $24 $-1 $25 #
body $-1 $26 $-1 $27 #
body $-1 $28 $-1 $29 #
body $-1 $30 $-1 $31 #
body $-1 $32 $-1 $33 #
body $-1 $34 $-1 $35 #
body $-1 $36 $-1 $37 #
body $-1 $38 $-1 $39 #
body $-1 $40 $-1 $41 #
lump $-1 $-1 $42 $0 #
transform $-1 1 0 0 0 1 0 0 0 1 59.922482985930969 32.394752284596649 12.478410729872188 1 rotate no_reflect no_shear #
lump $-1 $-1 $43 $1 #
transform $-1 1 0 0 0 1 0 0 0 1 59.922482985930969 32.394752284596649 12.478410729872188 1 rotate no_reflect no_shear #
lump $-1 $-1 $44 $2 #
transform $-1 1 0 0 0 1 0 0 0 1 59.922482985930969 32.394752284596649 12.478410729872188 1 rotate no_reflect no_shear #
lump $-1 $-1 $45 $3 #
transform $-1 1 0 0 0 1 0 0 0 1 59.922482985930969 32.394752284596649 12.478410729872188 1 rotate no_reflect no_shear #
lump $-1 $-1 $46 $4 #
transform $-1 1 0 0 0 1 0 0 0 1 59.922482985930969 32.394752284596649 12.478410729872188 1 rotate no_reflect no_shear #
lump $-1 $-1 $47 $5 #
transform $-1 1 0 0 0 1 0 0 0 1 59.922482985930969 32.394752284596649 12.478410729872188 1 rotate no_reflect no_shear #
lump $-1 $-1 $48 $6 #
transform $-1 1 0 0 0 1 0 0 0 1 59.922482985930969 32.394752284596649 12.478410729872188 1 rotate no_reflect no_shear #
lump $-1 $-1 $49 $7 #
transform $-1 1 0 0 0 1 0 0 0 1 59.922482985930969 32.394752284596649 12.478410729872188 1 rotate no_reflect no_shear #
lump $-1 $-1 $50 $8 #
transform $-1 1 0 0 0 1 0 0 0 1 59.922482985930969 32.394752284596649 12.478410729872188 1 rotate no_reflect no_shear #
lump $-1 $-1 $51 $9 #
transform $-1 1 0 0 0 1 0 0 0 1 59.922482985930969 32.394752284596649 12.478410729872188 1 rotate no_reflect no_shear #
lump $-1 $-1 $52 $10 #
transform $-1 1 0 0 0 1 0 0 0 1 59.922482985930969 32.394752284596649 12.478410729872188 1 rotate no_reflect no_shear #
lump $-1 $-1 $53 $11 #
transform $-1 1 0 0 0 1 0 0 0 1 59.922482985930969 32.394752284596649 12.478410729872188 1 rotate no_reflect no_shear #
lump $-1 $-1 $54 $12 #
transform $-1 1 0 0 0 1 0 0 0 1 59.922482985930969 32.394752284596649 12.478410729872188 1 rotate no_reflect no_shear #
lump $-1 $-1 $55 $13 #
transform $-1 1 0 0 0 1 0 0 0 1 59.922482985930969 32.394752284596649 12.478410729872188 1 rotate no_reflect no_shear #
shell $-1 $-1 $-1 $56 $-1 $14 #
shell $-1 $-1 $-1 $57 $-1 $16 #
shell $-1 $-1 $-1 $58 $-1 $18 #
shell $-1 $-1 $-1 $59 $-1 $20 #
shell $-1 $-1 $-1 $60 $-1 $22 #
shell $-1 $-1 $-1 $61 $-1 $24 #
shell $-1 $-1 $-1 $62 $-1 $26 #
shell $-1 $-1 $-1 $63 $-1 $28 #
shell $-1 $-1 $-1 $64 $-1 $30 #
shell $-1 $-1 $-1 $65 $-1 $32 #
shell $-1 $-1 $-1 $66 $-1 $34 #
shell $-1 $-1 $-1 $67 $-1 $36 #
shell $-1 $-1 $-1 $68 $-1 $38 #
shell $-1 $-1 $-1 $69 $-1 $40 #
face $-1 $70 $71 $42 $-1 $72 forward single #
face $-1 $73 $74 $43 $-1 $75 forward single #
face $-1 $76 $77 $44 $-1 $78 reversed single #
face $-1 $79 $80 $45 $-1 $81 forward single #
face $-1 $82 $83 $46 $-1 $84 reversed single #
face $-1 $85 $86 $47 $-1 $87 forward single #
face $-1 $88 $89 $48 $-1 $90 reversed single #
face $-1 $91 $92 $49 $-1 $93 forward single #
face $-1 $94 $95 $50 $-1 $96 reversed single #
face $-1 $97 $98 $51 $-1 $99 forward single #
face $-1 $100 $101 $52 $-1 $102 reversed single #
face $-1 $103 $104 $53 $-1 $105 forward single #
face $-1 $106 $107 $54 $-1 $108 forward single #
face $-1 $109 $110 $55 $-1 $111 forward single #
face $-1 $112 $113 $42 $-1 $114 reversed single #
loop $-1 $-1 $115 $56 #
plane-surface $-1 0 0 12.478410729872188 0 0 1 1 0 0 forward_v I I I I #
face $-1 $116 $117 $43 $-1 $118 reversed single #
loop $-1 $-1 $119 $57 #
plane-surface $-1 -55.728827576573217 0 9.4315139380554918 0 0 1 1 0 0 forward_v I I I I #
face $-1 $120 $121 $44 $-1 $122 reversed single #
loop $-1 $-1 $123 $58 #
plane-surface $-1 -43.657460956813537 -32.394752284596649 4.8891902876765982 0 -0.7660444514056185 0.64278759981090561 1 0 0 forward_v I I I I #
face $-1 $124 $125 $45 $-1 $126 forward single #
loop $-1 $127 $128 $59 #
cone-surface $-1 -43.657460956813537 -26.534648960919267 6.4383302063373407 0 0.7660444514056185 -0.64278759981090561 2 0 0 1 I I 0 1 2 forward I I I I #
face $-1 $129 $130 $46 $-1 $131 reversed single #
loop $-1 $-1 $132 $60 #
plane-surface $-1 -19.634427923101274 -124.20132349623664 81.924048314149388 1 0 0 0 0.7660444514056185 -0.64278759981090561 forward_v I I I I #
face $-1 $133 $134 $47 $-1 $135 forward single #
loop $-1 $136 $137 $61 #
cone-surface $-1 -11.756716712699344 -26.534648960919267 6.4383302063373407 0 0.7660444514056185 -0.64278759981090561 2 0 0 1 I I 0 1 2 forward I I I I #
face $-1 $138 $139 $48 $-1 $140 reversed single #
loop $-1 $-1 $141 $62 #
plane-surface $-1 12.266316321012919 -124.20132349623664 81.924048314149388 1 0 0 0 0.7660444514056185 -0.64278759981090561 forward_v I I I I #
face $-1 $142 $143 $49 $-1 $144 forward single #
loop $-1 $145 $146 $63 #
cone-surface $-1 20.144027531414849 -26.534648960919267 6.4383302063373407 0 0.7660444514056185 -0.64278759981090561 2 0 0 1 I I 0 1 2 forward I I I I #
face $-1 $147 $148 $50 $-1 $149 reversed single #
loop $-1 $-1 $150 $64 #
plane-surface $-1 44.167060565127116 -124.20132349623664 81.924048314149388 1 0 0 0 0.7660444514056185 -0.64278759981090561 forward_v I I I I #
face $-1 $151 $152 $51 $-1 $153 forward single #
loop $-1 $154 $155 $65 #
cone-surface $-1 52.044771775529043 -26.534648960919267 6.4383302063373407 0 0.7660444514056185 -0.64278759981090561 2 0 0 1 I I 0 1 2 forward I I I I #
face $-1 $156 $157 $52 $-1 $158 reversed single #
loop $-1 $-1 $159 $66 #
plane-surface $-1 -31.270518189214471 105.80294802396116 116.8919668753955 1 0 0 0 -0.87461971476443456 -0.48480960649040278 forward_v I I I I #
face $-1 $160 $161 $53 $-1 $162 forward single #
loop $-1 $163 $164 $67 #
cone-surface $-1 -25.66637544892653 25.620872810702657 5.1370532216229527 0 -0.87461971476443456 -0.48480960649040278 2.5 0 0 1 I I 0 1 2.5 forward I I I I #
face $-1 $165 $166 $54 $-1 $167 forward single #
loop $-1 $168 $169 $68 #
cone-surface $-1 -17.260161338494626 25.620872810702657 5.1370532216229527 0 -0.87461971476443456 -0.48480960649040278 2.5 0 0 1 I I 0 1 2.5 forward I I I I #
face $-1 $170 $171 $55 $-1 $172 forward single #
loop $-1 $173 $174 $69 #
cone-surface $-1 -8.8539472280627223 25.620872810702657 5.1370532216229527 0 -0.87461971476443456 -0.48480960649040278 2.5 0 0 1 I I 0 1 2.5 forward I I I I #
face $-1 $175 $176 $42 $-1 $177 reversed single #
loop $-1 $-1 $178 $70 #
plane-surface $-1 0 0 -12.478410729872188 0 0 1 1 0 0 forward_v I I I I #
coedge $-1 $179 $180 $181 $182 forward $71 $-1 #
face $-1 $183 $184 $43 $-1 $185 reversed single #
loop $-1 $-1 $186 $73 #
plane-surface $-1 -55.728827576573217 0 6.4315139380554918 0 0 1 1 0 0 forward_v I I I I #
coedge $-1 $187 $188 $189 $190 forward $74 $-1 #
face $-1 $191 $192 $44 $-1 $193 reversed single #
loop $-1 $-1 $194 $76 #
plane-surface $-1 -35.779749746411611 -124.20132349623664 81.924048314149388 -1 0 0 0 -0.7660444514056185 0.64278759981090561 forward_v I I I I #
coedge $-1 $195 $196 $197 $198 reversed $77 $-1 #
face $-1 $-1 $199 $45 $-1 $200 forward single #
loop $-1 $201 $202 $79 #
cone-surface $-1 -43.657460956813537 -23.092557139458545 3.550072304089376 0 0.7660444514056185 -0.64278759981090561 1 0 0 1 I I -0.70710678118654746 0.70710678118654746 1 forward I I I I #
loop $-1 $-1 $203 $59 #
coedge $-1 $128 $128 $204 $205 reversed $80 $-1 #
face $-1 $206 $207 $46 $-1 $208 reversed single #
loop $-1 $-1 $209 $82 #
plane-surface $-1 -11.756716712699344 -32.394752284596649 4.8891902876765982 0 -0.7660444514056185 0.64278759981090561 1 0 0 forward_v I I I I #
coedge $-1 $210 $211 $212 $213 reversed $83 $-1 #
face $-1 $-1 $214 $47 $-1 $215 forward single #
loop $-1 $216 $217 $85 #
cone-surface $-1 -11.756716712699344 -23.092557139458545 3.550072304089376 0 0.7660444514056185 -0.64278759981090561 1 0 0 1 I I -0.70710678118654746 0.70710678118654746 1 forward I I I I #
loop $-1 $-1 $218 $61 #
coedge $-1 $137 $137 $219 $220 reversed $86 $-1 #
face $-1 $221 $222 $48 $-1 $223 reversed single #
loop $-1 $-1 $224 $88 #
plane-surface $-1 20.144027531414849 -32.394752284596649 4.8891902876765982 0 -0.7660444514056185 0.64278759981090561 1 0 0 forward_v I I I I #
coedge $-1 $225 $226 $227 $228 reversed $89 $-1 #
face $-1 $-1 $229 $49 $-1 $230 forward single #
loop $-1 $231 $232 $91 #
cone-surface $-1 20.144027531414849 -23.092557139458545 3.550072304089376 0 0.7660444514056185 -0.64278759981090561 1 0 0 1 I I -0.70710678118654746 0.70710678118654746 1 forward I I I I #
loop $-1 $-1 $233 $63 #
coedge $-1 $146 $146 $234 $235 reversed $92 $-1 #
face $-1 $236 $237 $50 $-1 $238 reversed single #
loop $-1 $-1 $239 $94 #
plane-surface $-1 52.044771775529043 -32.394752284596649 4.8891902876765982 0 -0.7660444514056185 0.64278759981090561 1 0 0 forward_v I I I I #
coedge $-1 $240 $241 $242 $243 reversed $95 $-1 #
face $-1 $-1 $244 $51 $-1 $245 forward single #
loop $-1 $246 $247 $97 #
cone-surface $-1 52.044771775529043 -23.092557139458545 3.550072304089376 0 0.7660444514056185 -0.64278759981090561 1 0 0 1 I I -0.70710678118654746 0.70710678118654746 1 forward I I I I #
loop $-1 $-1 $248 $65 #
coedge $-1 $155 $155 $249 $250 reversed $98 $-1 #
face $-1 $251 $252 $52 $-1 $253 reversed single #
loop $-1 $-1 $254 $100 #
plane-surface $-1 -17.260161338494626 0.98417806969790433 58.789976082721395 0 0.87461971476443456 0.48480960649040278 1 0 0 forward_v I I I I #
coedge $-1 $255 $256 $257 $258 reversed $101 $-1 #
face $-1 $-1 $259 $53 $-1 $260 forward single #
loop $-1 $261 $262 $103 #
cone-surface $-1 -25.66637544892653 20.623546345880094 2.3669900318545487 0 -0.87461971476443456 -0.48480960649040278 1.25 0 0 1 I I -0.70710678118654746 0.70710678118654746 1.25 forward I I I I #
loop $-1 $-1 $263 $67 #
coedge $-1 $164 $164 $264 $265 reversed $104 $-1 #
face $-1 $-1 $266 $54 $-1 $267 forward single #
loop $-1 $268 $269 $106 #
cone-surface $-1 -17.260161338494626 20.623546345880094 2.3669900318545487 0 -0.87461971476443456 -0.48480960649040278 1.25 0 0 1 I I -0.70710678118654746 0.70710678118654746 1.25 forward I I I I #
loop $-1 $-1 $270 $68 #
coedge $-1 $169 $169 $271 $272 reversed $107 $-1 #
face $-1 $-1 $273 $55 $-1 $274 forward single #
loop $-1 $275 $276 $109 #
cone-surface $-1 -8.8539472280627223 20.623546345880094 2.3669900318545487 0 -0.87461971476443456 -0.48480960649040278 1.25 0 0 1 I I -0.70710678118654746 0.70710678118654746 1.25 forward I I I I #
loop $-1 $-1 $277 $69 #
coedge $-1 $174 $174 $278 $279 reversed $110 $-1 #
face $-1 $280 $281 $42 $-1 $282 reversed single #
loop $-1 $-1 $283 $112 #
plane-surface $-1 0 -32.394752284596649 0 0 1 0 0 0 1 forward_v I I I I #
coedge $-1 $284 $285 $286 $287 forward $113 $-1 #
coedge $-1 $288 $115 $289 $290 forward $71 $-1 #
coedge $-1 $115 $288 $291 $292 forward $71 $-1 #
coedge $-1 $293 $294 $115 $182 reversed $295 $-1 #
edge $-1 $296 -32.394752284596649 $297 32.394752284596649 $181 $298 forward 7 unknown #
face $-1 $299 $300 $43 $-1 $301 reversed single #
loop $-1 $-1 $302 $116 #
plane-surface $-1 -51.535172167215464 0 7.9315139380554918 -1 0 0 0 0 1 forward_v I I I I #
coedge $-1 $303 $304 $305 $306 forward $117 $-1 #
coedge $-1 $307 $119 $308 $309 reversed $74 $-1 #
coedge $-1 $119 $307 $310 $311 reversed $74 $-1 #
coedge $-1 $302 $312 $119 $190 reversed $184 $-1 #
edge $-1 $313 -32.394752284596649 $314 32.394752284596649 $189 $315 forward 7 unknown #
face $-1 $316 $317 $44 $-1 $318 forward single #
loop $-1 $-1 $319 $120 #
plane-surface $-1 0 -32.394752284596649 0 0 1 0 0 0 1 forward_v I I I I #
coedge $-1 $320 $321 $322 $323 reversed $121 $-1 #
coedge $-1 $324 $123 $325 $326 forward $77 $-1 #
coedge $-1 $123 $324 $320 $327 forward $77 $-1 #
coedge $-1 $322 $319 $123 $198 forward $192 $-1 #
edge $-1 $328 -29.706441688808695 $329 -13.951019268004842 $197 $330 forward 7 unknown #
loop $-1 $-1 $204 $124 #
plane-surface $-1 -43.657460956813537 -32.394752284596649 4.8891902876765982 0 -0.7660444514056185 0.64278759981090561 1 0 0 forward_v I I I I #
loop $-1 $-1 $331 $79 #
coedge $-1 $202 $202 $203 $332 reversed $125 $-1 #
coedge $-1 $203 $203 $202 $332 forward $127 $-1 #
coedge $-1 $204 $204 $128 $205 forward $199 $-1 #
edge $-1 $333 -7.039238465393535e-016 $333 6.2831853071795996 $204 $334 forward 7 unknown #
face $-1 $335 $336 $46 $-1 $337 forward single #
loop $-1 $-1 $338 $129 #
plane-surface $-1 -3.8790055022974146 -124.20132349623664 81.924048314149388 -1 0 0 0 -0.7660444514056185 0.64278759981090561 forward_v I I I I #
coedge $-1 $339 $340 $341 $342 reversed $130 $-1 #
coedge $-1 $211 $132 $343 $344 reversed $83 $-1 #
coedge $-1 $132 $210 $339 $345 reversed $83 $-1 #
coedge $-1 $341 $346 $132 $213 forward $347 $-1 #
edge $-1 $348 28.483613427202506 $349 36.072833869398096 $212 $350 forward 7 unknown #
loop $-1 $-1 $219 $133 #
plane-surface $-1 -11.756716712699344 -32.394752284596649 4.8891902876765982 0 -0.7660444514056185 0.64278759981090561 1 0 0 forward_v I I I I #
loop $-1 $-1 $351 $85 #
coedge $-1 $217 $217 $218 $352 reversed $134 $-1 #
coedge $-1 $218 $218 $217 $352 forward $136 $-1 #
coedge $-1 $219 $219 $137 $220 forward $214 $-1 #
edge $-1 $353 -7.039238465393535e-016 $353 6.2831853071795996 $219 $354 forward 7 unknown #
face $-1 $355 $356 $48 $-1 $357 reversed single #
loop $-1 $-1 $358 $138 #
plane-surface $-1 28.02173874181678 -124.20132349623664 81.924048314149388 -1 0 0 0 -0.7660444514056185 0.64278759981090561 forward_v I I I I #
coedge $-1 $359 $360 $361 $362 reversed $139 $-1 #
coedge $-1 $226 $141 $363 $364 reversed $89 $-1 #
coedge $-1 $141 $225 $359 $365 reversed $89 $-1 #
coedge $-1 $361 $366 $141 $228 forward $356 $-1 #
edge $-1 $367 28.483613427202506 $368 36.072833869398096 $227 $369 forward 7 unknown #
loop $-1 $-1 $234 $142 #
plane-surface $-1 20.144027531414849 -32.394752284596649 4.8891902876765982 0 -0.7660444514056185 0.64278759981090561 1 0 0 forward_v I I I I #
loop $-1 $-1 $370 $91 #
coedge $-1 $232 $232 $233 $371 reversed $143 $-1 #
coedge $-1 $233 $233 $232 $371 forward $145 $-1 #
coedge $-1 $234 $234 $146 $235 forward $229 $-1 #
edge $-1 $372 -7.039238465393535e-016 $372 6.2831853071795996 $234 $373 forward 7 unknown #
face $-1 $374 $375 $50 $-1 $376 reversed single #
loop $-1 $-1 $242 $147 #
plane-surface $-1 0 -32.394752284596649 0 0 1 0 0 0 1 forward_v I I I I #
coedge $-1 $377 $378 $379 $380 reversed $148 $-1 #
coedge $-1 $241 $150 $381 $382 reversed $95 $-1 #
coedge $-1 $150 $240 $377 $383 reversed $95 $-1 #
coedge $-1 $379 $384 $150 $243 forward $237 $-1 #
edge $-1 $385 28.483613427202506 $386 36.072833869398096 $242 $387 forward 7 unknown #
loop $-1 $-1 $249 $151 #
plane-surface $-1 52.044771775529043 -32.394752284596649 4.8891902876765982 0 -0.7660444514056185 0.64278759981090561 1 0 0 forward_v I I I I #
loop $-1 $-1 $388 $97 #
coedge $-1 $247 $247 $248 $389 reversed $152 $-1 #
coedge $-1 $248 $248 $247 $389 forward $154 $-1 #
coedge $-1 $249 $249 $155 $250 forward $244 $-1 #
edge $-1 $390 -7.039238465393535e-016 $390 6.2831853071795996 $249 $391 forward 7 unknown #
face $-1 $392 $393 $52 $-1 $394 reversed single #
loop $-1 $-1 $395 $156 #
plane-surface $-1 -3.2498044877747816 105.80294802396116 116.8919668753955 -1 0 0 0 0.87461971476443456 0.48480960649040278 forward_v I I I I #
coedge $-1 $396 $397 $398 $399 reversed $157 $-1 #
coedge $-1 $256 $159 $400 $401 reversed $101 $-1 #
coedge $-1 $159 $255 $396 $402 reversed $101 $-1 #
coedge $-1 $398 $403 $159 $258 forward $404 $-1 #
edge $-1 $405 20.506721727383933 $406 26.24637703243787 $257 $407 forward 7 unknown #
loop $-1 $-1 $264 $160 #
plane-surface $-1 -17.260161338494626 0.98417806969790433 58.789976082721395 0 0.87461971476443456 0.48480960649040278 1 0 0 forward_v I I I I #
loop $-1 $-1 $408 $103 #
coedge $-1 $262 $262 $263 $409 reversed $161 $-1 #
coedge $-1 $263 $263 $262 $409 forward $163 $-1 #
coedge $-1 $264 $264 $164 $265 forward $259 $-1 #
edge $-1 $410 -8.9145949831242811e-016 $410 6.2831853071795996 $264 $411 forward 7 unknown #
loop $-1 $-1 $271 $165 #
plane-surface $-1 -17.260161338494626 0.98417806969790433 58.789976082721395 0 0.87461971476443456 0.48480960649040278 1 0 0 forward_v I I I I #
loop $-1 $-1 $412 $106 #
coedge $-1 $269 $269 $270 $413 reversed $166 $-1 #
coedge $-1 $270 $270 $269 $413 forward $168 $-1 #
coedge $-1 $271 $271 $169 $272 forward $266 $-1 #
edge $-1 $414 -8.9145949831242811e-016 $414 6.2831853071795996 $271 $415 forward 7 unknown #
loop $-1 $-1 $278 $170 #
plane-surface $-1 -17.260161338494626 0.98417806969790433 58.789976082721395 0 0.87461971476443456 0.48480960649040278 1 0 0 forward_v I I I I #
loop $-1 $-1 $416 $109 #
coedge $-1 $276 $276 $277 $417 reversed $171 $-1 #
coedge $-1 $277 $277 $276 $417 forward $173 $-1 #
coedge $-1 $278 $278 $174 $279 forward $273 $-1 #
edge $-1 $418 -8.9145949831242811e-016 $418 6.2831853071795996 $278 $419 forward 7 unknown #
face $-1 $420 $421 $42 $-1 $422 reversed single #
loop $-1 $-1 $423 $175 #
plane-surface $-1 -59.922482985930969 0 0 1 0 0 0 0 -1 forward_v I I I I #
coedge $-1 $424 $291 $425 $426 forward $176 $-1 #
coedge $-1 $427 $178 $424 $428 forward $113 $-1 #
coedge $-1 $178 $427 $429 $430 forward $113 $-1 #
coedge $-1 $294 $293 $178 $287 reversed $295 $-1 #
edge $-1 $431 -32.394752284596649 $432 32.394752284596649 $286 $433 forward 7 unknown #
coedge $-1 $180 $179 $434 $435 forward $71 $-1 #
coedge $-1 $436 $437 $179 $290 reversed $421 $-1 #
edge $-1 $297 -59.922482985930969 $438 59.922482985930969 $289 $439 forward 7 unknown #
coedge $-1 $283 $440 $180 $292 reversed $176 $-1 #
edge $-1 $441 -59.922482985930969 $296 59.922482985930969 $291 $442 forward 7 unknown #
coedge $-1 $286 $181 $440 $443 forward $295 $-1 #
coedge $-1 $181 $286 $436 $444 reversed $295 $-1 #
loop $-1 $-1 $293 $420 #
vertex $-1 $182 $445 #
vertex $-1 $182 $446 #
straight-curve $-1 59.922482985930969 0 12.478410729872188 0 1 0 I I #
face $-1 $447 $448 $43 $-1 $449 reversed single #
loop $-1 $-1 $450 $183 #
plane-surface $-1 0 -32.394752284596649 0 0 1 0 0 0 1 forward_v I I I I #
coedge $-1 $305 $189 $451 $452 reversed $184 $-1 #
coedge $-1 $453 $186 $450 $454 reversed $117 $-1 #
coedge $-1 $186 $453 $455 $456 reversed $117 $-1 #
coedge $-1 $312 $302 $186 $306 reversed $184 $-1 #
edge $-1 $457 -32.394752284596649 $458 32.394752284596649 $305 $459 forward 7 unknown #
coedge $-1 $188 $187 $460 $461 reversed $74 $-1 #
coedge $-1 $462 $463 $187 $309 forward $464 $-1 #
edge $-1 $465 -32.058069197644357 $314 -23.670758378928856 $308 $466 forward 7 unknown #
coedge $-1 $467 $451 $188 $311 forward $300 $-1 #
edge $-1 $313 23.670758378928856 $468 32.058069197644357 $310 $469 forward 7 unknown #
coedge $-1 $189 $305 $462 $470 reversed $184 $-1 #
vertex $-1 $311 $471 #
vertex $-1 $309 $472 #
straight-curve $-1 -51.535172167215464 0 9.4315139380554918 0 1 0 I I #
face $-1 $-1 $473 $44 $-1 $474 forward single #
loop $-1 $-1 $325 $191 #
plane-surface $-1 -51.535172167215464 0 7.9315139380554918 -1 0 0 0 0 1 forward_v I I I I #
coedge $-1 $197 $475 $476 $477 forward $192 $-1 #
coedge $-1 $321 $194 $196 $327 reversed $121 $-1 #
coedge $-1 $194 $320 $478 $479 reversed $121 $-1 #
coedge $-1 $475 $197 $194 $323 forward $192 $-1 #
edge $-1 $329 -36.072833869398096 $480 -28.483613427202506 $322 $481 forward 7 unknown #
coedge $-1 $196 $195 $482 $483 reversed $77 $-1 #
coedge $-1 $476 $484 $195 $326 reversed $317 $-1 #
edge $-1 $328 0 $485 9.9070235784230238 $325 $486 forward 7 unknown #
edge $-1 $487 -9.9070235784230238 $329 0 $320 $488 forward 7 unknown #
vertex $-1 $198 $489 #
vertex $-1 $198 $490 #
straight-curve $-1 -21.828730478406769 -32.394752284596649 4.8891902876765965 1 0 0 I I #
coedge $-1 $331 $331 $-1 $491 reversed $201 $-1 #
edge $-1 $492 0 $492 6.2831853071796004 $202 $493 forward 7 unknown #
vertex $-1 $205 $494 #
ellipse-curve $-1 -43.657460956813537 -29.210696330974358 8.683800508774393 0 -0.7660444514056185 0.64278759981090561 2 0 0 1 I I #
face $-1 $-1 $347 $46 $-1 $495 reversed single #
loop $-1 $-1 $496 $206 #
plane-surface $-1 0 0 12.478410729872188 0 0 1 1 0 0 forward_v I I I I #
coedge $-1 $497 $498 $499 $500 reversed $207 $-1 #
coedge $-1 $501 $209 $211 $345 forward $130 $-1 #
coedge $-1 $209 $501 $497 $502 forward $130 $-1 #
coedge $-1 $499 $212 $209 $342 forward $347 $-1 #
edge $-1 $349 -13.756069566751602 $503 1.9993528540522574 $341 $504 forward 7 unknown #
coedge $-1 $505 $506 $210 $344 forward $336 $-1 #
edge $-1 $507 -36.074021370766253 $348 -29.705909463521671 $343 $508 forward 7 unknown #
edge $-1 $349 0 $507 9.9070235784230238 $211 $509 forward 7 unknown #
coedge $-1 $212 $499 $505 $510 reversed $347 $-1 #
loop $-1 $-1 $499 $335 #
vertex $-1 $510 $511 #
vertex $-1 $213 $512 #
straight-curve $-1 -19.634427923101274 -32.394752284596649 40.962024157074694 0 0 -1 I I #
coedge $-1 $351 $351 $-1 $513 reversed $216 $-1 #
edge $-1 $514 0 $514 6.2831853071796004 $217 $515 forward 7 unknown #
vertex $-1 $220 $516 #
ellipse-curve $-1 -11.756716712699344 -29.210696330974358 8.683800508774393 0 -0.7660444514056185 0.64278759981090561 2 0 0 1 I I #
face $-1 $-1 $517 $48 $-1 $518 forward single #
loop $-1 $-1 $227 $221 #
plane-surface $-1 0 -32.394752284596649 0 0 1 0 0 0 1 forward_v I I I I #
coedge $-1 $519 $520 $521 $522 reversed $222 $-1 #
coedge $-1 $523 $224 $226 $365 forward $139 $-1 #
coedge $-1 $224 $523 $519 $524 forward $139 $-1 #
coedge $-1 $521 $227 $224 $362 forward $356 $-1 #
edge $-1 $368 2.1943025553054945 $525 17.949724976109355 $361 $526 forward 7 unknown #
coedge $-1 $527 $528 $225 $364 forward $517 $-1 #
edge $-1 $529 -36.074021370766253 $367 -29.705909463521671 $363 $530 forward 7 unknown #
edge $-1 $368 0 $529 9.9070235784230238 $226 $531 forward 7 unknown #
coedge $-1 $227 $521 $527 $532 reversed $356 $-1 #
vertex $-1 $532 $533 #
vertex $-1 $228 $534 #
straight-curve $-1 12.266316321012919 -32.394752284596649 40.962024157074694 0 0 -1 I I #
coedge $-1 $370 $370 $-1 $535 reversed $231 $-1 #
edge $-1 $536 0 $536 6.2831853071796004 $232 $537 forward 7 unknown #
vertex $-1 $235 $538 #
ellipse-curve $-1 20.144027531414849 -29.210696330974358 8.683800508774393 0 -0.7660444514056185 0.64278759981090561 2 0 0 1 I I #
face $-1 $-1 $539 $50 $-1 $540 forward single #
loop $-1 $-1 $541 $236 #
plane-surface $-1 59.922482985930969 0 0 -1 0 0 0 0 1 forward_v I I I I #
coedge $-1 $542 $239 $241 $383 forward $148 $-1 #
coedge $-1 $239 $542 $541 $543 reversed $148 $-1 #
coedge $-1 $544 $242 $239 $380 forward $237 $-1 #
edge $-1 $386 18.144674677362595 $545 33.900097098166448 $379 $546 forward 7 unknown #
coedge $-1 $547 $548 $240 $382 forward $539 $-1 #
edge $-1 $549 -36.074021370766253 $385 -29.705909463521671 $381 $550 forward 7 unknown #
edge $-1 $386 0 $549 9.9070235784230238 $241 $551 forward 7 unknown #
coedge $-1 $242 $544 $547 $552 reversed $237 $-1 #
vertex $-1 $552 $553 #
vertex $-1 $243 $554 #
straight-curve $-1 44.167060565127116 -32.394752284596649 40.962024157074694 0 0 -1 I I #
coedge $-1 $388 $388 $-1 $555 reversed $246 $-1 #
edge $-1 $556 0 $556 6.2831853071796004 $247 $557 forward 7 unknown #
vertex $-1 $250 $558 #
ellipse-curve $-1 52.044771775529043 -29.210696330974358 8.683800508774393 0 -0.7660444514056185 0.64278759981090561 2 0 0 1 I I #
face $-1 $-1 $404 $52 $-1 $559 forward single #
loop $-1 $-1 $560 $251 #
plane-surface $-1 0 32.394752284596649 0 0 -1 0 0 0 -1 forward_v I I I I #
coedge $-1 $561 $562 $563 $564 reversed $252 $-1 #
coedge $-1 $565 $254 $256 $402 forward $157 $-1 #
coedge $-1 $254 $565 $561 $566 forward $157 $-1 #
coedge $-1 $563 $257 $254 $399 forward $404 $-1 #
edge $-1 $406 -22.640437519967158 $567 5.3802761814725315 $398 $568 forward 7 unknown #
coedge $-1 $569 $570 $255 $401 forward $393 $-1 #
edge $-1 $571 -56.322185361013197 $405 -45.96757270782556 $400 $572 forward 7 unknown #
edge $-1 $406 52.950516174132346 $571 64.789504569193269 $256 $573 forward 7 unknown #
coedge $-1 $257 $563 $569 $574 forward $404 $-1 #
loop $-1 $-1 $563 $392 #
vertex $-1 $401 $575 #
vertex $-1 $258 $576 #
straight-curve $-1 -31.270518189214471 52.901474011980582 12.478410729872188 0 -1 0 I I #
coedge $-1 $408 $408 $-1 $577 reversed $261 $-1 #
edge $-1 $578 0 $578 6.2831853071796004 $262 $579 forward 7 unknown #
vertex $-1 $265 $580 #
ellipse-curve $-1 -25.66637544892653 29.524924632069688 7.3011044032783596 0 0.87461971476443456 0.48480960649040278 2.5 0 0 1 I I #
coedge $-1 $412 $412 $-1 $581 reversed $268 $-1 #
edge $-1 $582 0 $582 6.2831853071796004 $269 $583 forward 7 unknown #
vertex $-1 $272 $584 #
ellipse-curve $-1 -17.260161338494626 29.524924632069688 7.3011044032783596 0 0.87461971476443456 0.48480960649040278 2.5 0 0 1 I I #
coedge $-1 $416 $416 $-1 $585 reversed $275 $-1 #
edge $-1 $586 0 $586 6.2831853071796004 $276 $587 forward 7 unknown #
vertex $-1 $279 $588 #
ellipse-curve $-1 -8.8539472280627223 29.524924632069688 7.3011044032783596 0 0.87461971476443456 0.48480960649040278 2.5 0 0 1 I I #
face $-1 $-1 $295 $42 $-1 $589 reversed single #
loop $-1 $-1 $436 $280 #
plane-surface $-1 0 32.394752284596649 0 0 -1 0 0 0 -1 forward_v I I I I #
coedge $-1 $590 $434 $437 $591 forward $281 $-1 #
coedge $-1 $440 $283 $284 $428 reversed $176 $-1 #
coedge $-1 $434 $590 $283 $426 reversed $281 $-1 #
edge $-1 $441 -12.478410729872188 $592 12.478410729872188 $425 $593 forward 7 unknown #
coedge $-1 $285 $284 $590 $594 forward $113 $-1 #
edge $-1 $432 -59.922482985930969 $592 59.922482985930969 $424 $595 forward 7 unknown #
coedge $-1 $437 $436 $285 $430 reversed $421 $-1 #
edge $-1 $596 -59.922482985930969 $431 59.922482985930969 $429 $597 forward 7 unknown #
vertex $-1 $287 $598 #
vertex $-1 $443 $599 #
straight-curve $-1 59.922482985930969 0 -12.478410729872188 0 -1 0 I I #
coedge $-1 $423 $425 $288 $435 reversed $281 $-1 #
edge $-1 $438 -32.394752284596649 $441 32.394752284596649 $434 $600 forward 7 unknown #
coedge $-1 $429 $289 $294 $444 forward $421 $-1 #
coedge $-1 $289 $429 $423 $591 reversed $421 $-1 #
vertex $-1 $290 $601 #
straight-curve $-1 0 32.394752284596649 12.478410729872188 -1 0 0 I I #
coedge $-1 $291 $424 $293 $443 reversed $176 $-1 #
vertex $-1 $435 $602 #
straight-curve $-1 0 -32.394752284596649 12.478410729872188 1 0 0 I I #
edge $-1 $296 -12.478410729872188 $432 12.478410729872188 $293 $603 forward 7 unknown #
edge $-1 $297 -12.478410729872188 $431 12.478410729872188 $294 $604 forward 7 unknown #
point $-1 59.922482985930969 -32.394752284596649 12.478410729872188 #
point $-1 59.922482985930969 32.394752284596649 12.478410729872188 #
face $-1 $-1 $464 $43 $-1 $605 reversed single #
loop $-1 $-1 $606 $299 #
plane-surface $-1 -59.922482985930969 0 0 1 0 0 0 0 -1 forward_v I I I I #
coedge $-1 $451 $467 $303 $454 forward $300 $-1 #
coedge $-1 $310 $450 $302 $452 forward $300 $-1 #
edge $-1 $458 2.4657569690277459 $313 5.4657569690277459 $451 $607 forward 7 unknown #
coedge $-1 $304 $303 $606 $608 reversed $117 $-1 #
edge $-1 $609 -32.058069197644357 $458 -23.670758378928856 $450 $610 forward 7 unknown #
coedge $-1 $463 $462 $304 $456 forward $464 $-1 #
edge $-1 $457 23.670758378928856 $611 32.058069197644357 $455 $612 forward 7 unknown #
vertex $-1 $456 $613 #
vertex $-1 $454 $614 #
straight-curve $-1 -51.535172167215464 0 6.4315139380554918 0 -1 0 I I #
coedge $-1 $615 $616 $307 $461 forward $448 $-1 #
edge $-1 $468 -32.394752284596649 $465 32.394752284596649 $460 $617 forward 7 unknown #
coedge $-1 $455 $308 $312 $470 forward $464 $-1 #
coedge $-1 $308 $455 $615 $618 reversed $464 $-1 #
loop $-1 $-1 $455 $447 #
vertex $-1 $618 $619 #
straight-curve $-1 -27.864413788286608 32.394752284596649 9.4315139380554918 1 0 0 I I #
coedge $-1 $450 $310 $616 $620 forward $300 $-1 #
vertex $-1 $620 $621 #
straight-curve $-1 -27.864413788286608 -32.394752284596649 9.4315139380554918 -1 0 0 I I #
edge $-1 $314 -5.4657569690277459 $457 -2.4657569690277459 $462 $622 forward 7 unknown #
point $-1 -51.535172167215464 -32.394752284596649 9.4315139380554918 #
point $-1 -51.535172167215464 32.394752284596649 9.4315139380554918 #
loop $-1 $-1 $623 $316 #
plane-surface $-1 0 0 12.478410729872188 0 0 1 1 0 0 forward_v I I I I #
coedge $-1 $319 $322 $624 $625 reversed $192 $-1 #
coedge $-1 $484 $325 $319 $477 reversed $317 $-1 #
edge $-1 $626 28.483613427202506 $328 36.072833869398096 $319 $627 forward 7 unknown #
coedge $-1 $482 $624 $321 $479 forward $473 $-1 #
edge $-1 $480 29.705909463521671 $487 36.074021370766253 $478 $628 forward 7 unknown #
vertex $-1 $323 $629 #
straight-curve $-1 -35.779749746411611 -32.394752284596649 40.962024157074694 0 0 1 I I #
coedge $-1 $623 $478 $324 $483 forward $473 $-1 #
edge $-1 $487 13.951019268004842 $485 29.706441688808695 $482 $630 forward 7 unknown #
coedge $-1 $325 $476 $623 $631 reversed $317 $-1 #
vertex $-1 $631 $632 #
straight-curve $-1 -51.535172167215464 -32.394752284596649 4.8891902876765982 0 0.64278759981090561 0.7660444514056185 I I #
vertex $-1 $483 $633 #
straight-curve $-1 -35.779749746411611 -32.394752284596649 4.8891902876765982 0 -0.64278759981090561 -0.7660444514056185 I I #
point $-1 -51.535172167215464 -32.394752284596649 4.8891902876765982 #
point $-1 -35.779749746411611 -32.394752284596649 4.8891902876765982 #
edge $-1 $634 1 $634 0 $331 $-1 forward 7 unknown #
vertex $-1 $332 $635 #
ellipse-curve $-1 -43.657460956813537 -23.858601590864165 4.1928599039002812 0 -0.7660444514056185 0.64278759981090561 2 0 0 1 I I #
point $-1 -41.657460956813537 -29.210696330974368 8.6838005087744001 #
plane-surface $-1 0 -32.394752284596649 0 0 1 0 0 0 1 forward_v I I I I #
coedge $-1 $506 $505 $498 $636 forward $336 $-1 #
coedge $-1 $498 $338 $340 $502 reversed $207 $-1 #
coedge $-1 $338 $497 $496 $636 reversed $207 $-1 #
coedge $-1 $346 $341 $338 $500 forward $347 $-1 #
edge $-1 $503 -36.072833869398096 $637 -28.483613427202506 $499 $638 forward 7 unknown #
coedge $-1 $340 $339 $506 $639 reversed $130 $-1 #
edge $-1 $640 -9.9070235784230238 $503 0 $497 $641 forward 7 unknown #
vertex $-1 $342 $642 #
straight-curve $-1 -5.878358356349672 -32.394752284596649 4.8891902876765965 1 0 0 I I #
coedge $-1 $496 $343 $346 $510 forward $336 $-1 #
coedge $-1 $343 $496 $501 $639 forward $336 $-1 #
vertex $-1 $344 $643 #
straight-curve $-1 -19.634427923101274 -62.10066174811832 12.478410729872188 0 -1 0 I I #
straight-curve $-1 -19.634427923101274 -32.394752284596649 4.8891902876765982 0 0.64278759981090561 0.7660444514056185 I I #
edge $-1 $348 -19.634427923101274 $637 -3.8790055022974146 $346 $644 forward 7 unknown #
point $-1 -19.634427923101274 -32.394752284596649 12.478410729872188 #
point $-1 -19.634427923101274 -32.394752284596649 4.8891902876765982 #
edge $-1 $645 1 $645 0 $351 $-1 forward 7 unknown #
vertex $-1 $352 $646 #
ellipse-curve $-1 -11.756716712699344 -23.858601590864165 4.1928599039002812 0 -0.7660444514056185 0.64278759981090561 2 0 0 1 I I #
point $-1 -9.7567167126993439 -29.210696330974368 8.6838005087744001 #
loop $-1 $-1 $363 $355 #
plane-surface $-1 0 0 12.478410729872188 0 0 1 1 0 0 forward_v I I I I #
coedge $-1 $520 $358 $360 $524 reversed $222 $-1 #
coedge $-1 $358 $519 $647 $648 reversed $222 $-1 #
coedge $-1 $366 $361 $358 $522 forward $356 $-1 #
edge $-1 $525 -36.072833869398096 $649 -28.483613427202506 $521 $650 forward 7 unknown #
coedge $-1 $360 $359 $528 $651 reversed $139 $-1 #
edge $-1 $652 -9.9070235784230238 $525 0 $519 $653 forward 7 unknown #
vertex $-1 $362 $654 #
straight-curve $-1 10.072013765707425 -32.394752284596649 4.8891902876765965 1 0 0 I I #
coedge $-1 $647 $363 $366 $532 forward $517 $-1 #
coedge $-1 $363 $647 $523 $651 forward $517 $-1 #
vertex $-1 $364 $655 #
straight-curve $-1 12.266316321012919 -62.10066174811832 12.478410729872188 0 -1 0 I I #
straight-curve $-1 12.266316321012919 -32.394752284596649 4.8891902876765982 0 0.64278759981090561 0.7660444514056185 I I #
edge $-1 $367 12.266316321012919 $649 28.02173874181678 $366 $656 forward 7 unknown #
point $-1 12.266316321012919 -32.394752284596649 12.478410729872188 #
point $-1 12.266316321012919 -32.394752284596649 4.8891902876765982 #
edge $-1 $657 1 $657 0 $370 $-1 forward 7 unknown #
vertex $-1 $371 $658 #
ellipse-curve $-1 20.144027531414849 -23.858601590864165 4.1928599039002812 0 -0.7660444514056185 0.64278759981090561 2 0 0 1 I I #
point $-1 22.144027531414849 -29.210696330974368 8.6838005087744001 #
loop $-1 $-1 $381 $374 #
plane-surface $-1 0 0 12.478410729872188 0 0 1 1 0 0 forward_v I I I I #
coedge $-1 $659 $660 $378 $543 forward $375 $-1 #
coedge $-1 $378 $377 $548 $661 reversed $148 $-1 #
edge $-1 $545 -8.5388039878719191 $662 1.3682195905511023 $541 $663 forward 7 unknown #
coedge $-1 $384 $379 $660 $664 reversed $237 $-1 #
vertex $-1 $543 $665 #
straight-curve $-1 26.022385887764521 -32.394752284596649 4.8891902876765965 1 0 0 I I #
coedge $-1 $666 $381 $384 $552 forward $539 $-1 #
coedge $-1 $381 $666 $542 $661 forward $539 $-1 #
vertex $-1 $382 $667 #
straight-curve $-1 44.167060565127116 -62.10066174811832 12.478410729872188 0 -1 0 I I #
straight-curve $-1 44.167060565127116 -32.394752284596649 4.8891902876765982 0 0.64278759981090561 0.7660444514056185 I I #
edge $-1 $385 44.167060565127116 $668 59.922482985930969 $384 $669 forward 7 unknown #
point $-1 44.167060565127116 -32.394752284596649 12.478410729872188 #
point $-1 44.167060565127116 -32.394752284596649 4.8891902876765982 #
edge $-1 $670 1 $670 0 $388 $-1 forward 7 unknown #
vertex $-1 $389 $671 #
ellipse-curve $-1 52.044771775529043 -23.858601590864165 4.1928599039002812 0 -0.7660444514056185 0.64278759981090561 2 0 0 1 I I #
point $-1 54.044771775529043 -29.210696330974368 8.6838005087744001 #
plane-surface $-1 0 0 12.478410729872188 0 0 1 1 0 0 forward_v I I I I #
coedge $-1 $570 $569 $562 $672 forward $393 $-1 #
coedge $-1 $562 $395 $397 $566 reversed $252 $-1 #
coedge $-1 $395 $561 $560 $672 reversed $252 $-1 #
coedge $-1 $403 $398 $395 $564 forward $404 $-1 #
edge $-1 $567 -26.24637703243787 $673 -20.506721727383933 $563 $674 forward 7 unknown #
coedge $-1 $397 $396 $570 $675 reversed $157 $-1 #
edge $-1 $676 -64.789504569193269 $567 -52.950516174132346 $561 $677 forward 7 unknown #
vertex $-1 $399 $678 #
straight-curve $-1 -8.6300806692473131 26.655096979542712 12.478410729872188 1 0 0 I I #
coedge $-1 $560 $400 $403 $574 reversed $393 $-1 #
coedge $-1 $400 $560 $565 $675 forward $393 $-1 #
vertex $-1 $401 $679 #
straight-curve $-1 -31.270518189214471 32.394752284596649 58.445983437697748 0 0 1 I I #
straight-curve $-1 -31.270518189214471 0.98417806969790433 58.789976082721395 0 0.48480960649040278 -0.87461971476443456 I I #
edge $-1 $673 3.2498044877747816 $405 31.270518189214471 $569 $680 forward 7 unknown #
point $-1 -31.270518189214471 32.394752284596649 12.478410729872188 #
point $-1 -31.270518189214471 26.655096979542712 12.478410729872188 #
edge $-1 $681 1 $681 0 $408 $-1 forward 7 unknown #
vertex $-1 $409 $682 #
ellipse-curve $-1 -25.66637544892653 21.716820989335638 2.9730020399675521 0 0.87461971476443456 0.48480960649040278 2.5 0 0 1 I I #
point $-1 -23.16637544892653 29.524924632069673 7.3011044032783543 #
edge $-1 $683 1 $683 0 $412 $-1 forward 7 unknown #
vertex $-1 $413 $684 #
ellipse-curve $-1 -17.260161338494626 21.716820989335638 2.9730020399675521 0 0.87461971476443456 0.48480960649040278 2.5 0 0 1 I I #
point $-1 -14.760161338494626 29.524924632069673 7.3011044032783543 #
edge $-1 $685 1 $685 0 $416 $-1 forward 7 unknown #
vertex $-1 $417 $686 #
ellipse-curve $-1 -8.8539472280627223 21.716820989335638 2.9730020399675521 0 0.87461971476443456 0.48480960649040278 2.5 0 0 1 I I #
point $-1 -6.3539472280627223 29.524924632069673 7.3011044032783543 #
plane-surface $-1 59.922482985930969 0 0 -1 0 0 0 0 1 forward_v I I I I #
coedge $-1 $425 $423 $427 $594 reversed $281 $-1 #
edge $-1 $438 -12.478410729872188 $596 12.478410729872188 $437 $687 forward 7 unknown #
vertex $-1 $594 $688 #
straight-curve $-1 -59.922482985930969 -32.394752284596649 0 0 0 -1 I I #
edge $-1 $592 -32.394752284596649 $596 32.394752284596649 $590 $689 forward 7 unknown #
straight-curve $-1 0 -32.394752284596649 -12.478410729872188 -1 0 0 I I #
vertex $-1 $430 $690 #
straight-curve $-1 0 32.394752284596649 -12.478410729872188 1 0 0 I I #
point $-1 59.922482985930969 32.394752284596649 -12.478410729872188 #
point $-1 59.922482985930969 -32.394752284596649 -12.478410729872188 #
straight-curve $-1 -59.922482985930969 0 12.478410729872188 0 -1 0 I I #
point $-1 -59.922482985930969 32.394752284596649 12.478410729872188 #
point $-1 -59.922482985930969 -32.394752284596649 12.478410729872188 #
straight-curve $-1 59.922482985930969 -32.394752284596649 0 0 0 -1 I I #
straight-curve $-1 59.922482985930969 32.394752284596649 0 0 0 -1 I I #
plane-surface $-1 0 32.394752284596649 0 0 -1 0 0 0 -1 forward_v I I I I #
coedge $-1 $616 $615 $453 $608 forward $448 $-1 #
straight-curve $-1 -51.535172167215464 -32.394752284596649 3.9657569690277459 0 0 1 I I #
edge $-1 $611 -32.394752284596649 $609 32.394752284596649 $606 $691 forward 7 unknown #
vertex $-1 $454 $692 #
straight-curve $-1 -27.864413788286608 -32.394752284596649 6.4315139380554918 1 0 0 I I #
vertex $-1 $456 $693 #
straight-curve $-1 -27.864413788286608 32.394752284596649 6.4315139380554918 -1 0 0 I I #
point $-1 -51.535172167215464 32.394752284596649 6.4315139380554918 #
point $-1 -51.535172167215464 -32.394752284596649 6.4315139380554918 #
coedge $-1 $606 $460 $463 $618 forward $448 $-1 #
coedge $-1 $460 $606 $467 $620 reversed $448 $-1 #
straight-curve $-1 -59.922482985930969 0 9.4315139380554918 0 1 0 I I #
edge $-1 $465 -9.4315139380554918 $611 -6.4315139380554918 $463 $694 forward 7 unknown #
point $-1 -59.922482985930969 32.394752284596649 9.4315139380554918 #
edge $-1 $468 -9.4315139380554918 $609 -6.4315139380554918 $616 $695 forward 7 unknown #
point $-1 -59.922482985930969 -32.394752284596649 9.4315139380554918 #
straight-curve $-1 -51.535172167215464 32.394752284596649 3.9657569690277459 0 0 -1 I I #
coedge $-1 $624 $482 $484 $631 forward $473 $-1 #
coedge $-1 $478 $623 $475 $625 forward $473 $-1 #
edge $-1 $626 -51.535172167215464 $480 -35.779749746411611 $475 $696 forward 7 unknown #
vertex $-1 $625 $697 #
straight-curve $-1 -51.535172167215464 -32.394752284596649 40.962024157074694 0 0 -1 I I #
straight-curve $-1 -35.779749746411611 -62.10066174811832 12.478410729872188 0 1 0 I I #
point $-1 -35.779749746411611 -32.394752284596649 12.478410729872188 #
straight-curve $-1 -21.828730478406769 -26.026640377352066 12.478410729872188 -1 0 0 I I #
edge $-1 $485 -36.074021370766253 $626 -29.705909463521671 $623 $698 forward 7 unknown #
point $-1 -51.535172167215464 -26.026640377352066 12.478410729872188 #
point $-1 -35.779749746411611 -26.026640377352066 12.478410729872188 #
vertex $-1 $491 $699 #
point $-1 -41.657460956813537 -23.858601590864165 4.1928599039002812 #
edge $-1 $637 29.705909463521671 $640 36.074021370766253 $496 $700 forward 7 unknown #
vertex $-1 $636 $701 #
straight-curve $-1 -3.8790055022974146 -32.394752284596649 40.962024157074694 0 0 1 I I #
edge $-1 $640 -1.9993528540522574 $507 13.756069566751602 $506 $702 forward 7 unknown #
vertex $-1 $639 $703 #
straight-curve $-1 -3.8790055022974146 -32.394752284596649 4.8891902876765982 0 -0.64278759981090561 -0.7660444514056185 I I #
point $-1 -3.8790055022974146 -32.394752284596649 4.8891902876765982 #
point $-1 -19.634427923101274 -26.026640377352066 12.478410729872188 #
straight-curve $-1 0 -32.394752284596649 12.478410729872188 1 0 0 I I #
vertex $-1 $513 $704 #
point $-1 -9.7567167126993439 -23.858601590864165 4.1928599039002812 #
coedge $-1 $528 $527 $520 $648 forward $517 $-1 #
edge $-1 $649 29.705909463521671 $652 36.074021370766253 $647 $705 forward 7 unknown #
vertex $-1 $648 $706 #
straight-curve $-1 28.02173874181678 -32.394752284596649 40.962024157074694 0 0 1 I I #
edge $-1 $652 -17.949724976109355 $529 -2.1943025553054945 $528 $707 forward 7 unknown #
vertex $-1 $651 $708 #
straight-curve $-1 28.02173874181678 -32.394752284596649 4.8891902876765982 0 -0.64278759981090561 -0.7660444514056185 I I #
point $-1 28.02173874181678 -32.394752284596649 4.8891902876765982 #
point $-1 12.266316321012919 -26.026640377352066 12.478410729872188 #
straight-curve $-1 0 -32.394752284596649 12.478410729872188 1 0 0 I I #
vertex $-1 $535 $709 #
point $-1 22.144027531414849 -23.858601590864165 4.1928599039002812 #
coedge $-1 $660 $541 $666 $710 reversed $375 $-1 #
coedge $-1 $541 $659 $544 $664 forward $375 $-1 #
edge $-1 $662 -33.900097098166448 $549 -18.144674677362595 $548 $711 forward 7 unknown #
vertex $-1 $543 $712 #
straight-curve $-1 59.922482985930969 -26.90611496397667 11.430293704226049 0 0.64278759981090572 0.76604445140561861 I I #
edge $-1 $668 -12.478410729872188 $545 -4.8891902876765982 $660 $713 forward 7 unknown #
point $-1 59.922482985930969 -32.394752284596649 4.8891902876765982 #
coedge $-1 $548 $547 $659 $710 forward $539 $-1 #
point $-1 44.167060565127116 -26.026640377352066 12.478410729872188 #
vertex $-1 $710 $714 #
straight-curve $-1 0 -32.394752284596649 12.478410729872188 1 0 0 I I #
vertex $-1 $555 $715 #
point $-1 54.044771775529043 -23.858601590864165 4.1928599039002812 #
edge $-1 $673 45.96757270782556 $676 56.322185361013197 $560 $716 forward 7 unknown #
vertex $-1 $574 $717 #
straight-curve $-1 -3.2498044877747816 52.901474011980582 12.478410729872188 0 1 0 I I #
edge $-1 $676 -5.3802761814725315 $571 22.640437519967158 $570 $718 forward 7 unknown #
vertex $-1 $675 $719 #
straight-curve $-1 -3.2498044877747816 0.98417806969790433 58.789976082721395 0 -0.48480960649040278 0.87461971476443456 I I #
point $-1 -3.2498044877747816 26.655096979542712 12.478410729872188 #
point $-1 -31.270518189214471 32.394752284596649 2.123798076684551 #
straight-curve $-1 0 32.394752284596649 12.478410729872188 -1 0 0 I I #
vertex $-1 $577 $720 #
point $-1 -23.16637544892653 21.716820989335638 2.9730020399675521 #
vertex $-1 $581 $721 #
point $-1 -14.760161338494626 21.716820989335638 2.9730020399675521 #
vertex $-1 $585 $722 #
point $-1 -6.3539472280627223 21.716820989335638 2.9730020399675521 #
straight-curve $-1 -59.922482985930969 32.394752284596649 0 0 0 -1 I I #
point $-1 -59.922482985930969 -32.394752284596649 -12.478410729872188 #
straight-curve $-1 -59.922482985930969 0 -12.478410729872188 0 1 0 I I #
point $-1 -59.922482985930969 32.394752284596649 -12.478410729872188 #
straight-curve $-1 -59.922482985930969 0 6.4315139380554918 0 -1 0 I I #
point $-1 -59.922482985930969 -32.394752284596649 6.4315139380554918 #
point $-1 -59.922482985930969 32.394752284596649 6.4315139380554918 #
straight-curve $-1 -59.922482985930969 32.394752284596649 0 0 0 -1 I I #
straight-curve $-1 -59.922482985930969 -32.394752284596649 0 0 0 -1 I I #
straight-curve $-1 0 -32.394752284596649 12.478410729872188 1 0 0 I I #
point $-1 -51.535172167215464 -32.394752284596649 12.478410729872188 #
straight-curve $-1 -51.535172167215464 -62.10066174811832 12.478410729872188 0 -1 0 I I #
point $-1 -43.657460956813537 -22.326512688052926 2.9072847042784704 #
straight-curve $-1 -3.8790055022974146 -62.10066174811832 12.478410729872188 0 1 0 I I #
point $-1 -3.8790055022974146 -32.394752284596649 12.478410729872188 #
straight-curve $-1 -5.878358356349672 -26.026640377352066 12.478410729872188 -1 0 0 I I #
point $-1 -3.8790055022974146 -26.026640377352066 12.478410729872188 #
point $-1 -11.756716712699344 -22.326512688052926 2.9072847042784704 #
straight-curve $-1 28.02173874181678 -62.10066174811832 12.478410729872188 0 1 0 I I #
point $-1 28.02173874181678 -32.394752284596649 12.478410729872188 #
straight-curve $-1 10.072013765707425 -26.026640377352066 12.478410729872188 -1 0 0 I I #
point $-1 28.02173874181678 -26.026640377352066 12.478410729872188 #
point $-1 20.144027531414849 -22.326512688052926 2.9072847042784704 #
edge $-1 $668 -32.394752284596649 $662 -26.026640377352066 $659 $723 forward 7 unknown #
straight-curve $-1 26.022385887764521 -26.026640377352066 12.478410729872188 -1 0 0 I I #
point $-1 59.922482985930969 -26.026640377352066 12.478410729872188 #
straight-curve $-1 59.922482985930969 -32.394752284596649 0 0 0 -1 I I #
point $-1 59.922482985930969 -32.394752284596649 12.478410729872188 #
point $-1 52.044771775529043 -22.326512688052926 2.9072847042784704 #
straight-curve $-1 -3.2498044877747816 32.394752284596649 58.445983437697748 0 0 -1 I I #
point $-1 -3.2498044877747816 32.394752284596649 12.478410729872188 #
straight-curve $-1 -8.6300806692473131 32.394752284596649 2.123798076684551 -1 0 0 I I #
point $-1 -3.2498044877747816 32.394752284596649 2.123798076684551 #
point $-1 -25.66637544892653 19.53027170242455 1.7609780237415453 #
point $-1 -17.260161338494626 19.53027170242455 1.7609780237415453 #
point $-1 -8.8539472280627223 19.53027170242455 1.7609780237415453 #
straight-curve $-1 59.922482985930969 0 12.478410729872188 0 1 0 I I #
End-of-ACIS-data 