500 0 4 0           
7 Unknown 11 ACIS 5.0 NT 24 Fri Mar 26 20:38:58 1999 
-1 9.9999999999999995e-007 1e-010 
body $-1 $4 $-1 $5 #
body $-1 $6 $-1 $7 #
body $-1 $8 $-1 $9 #
body $-1 $10 $-1 $11 #
lump $-1 $-1 $12 $0 #
transform $-1 1 0 0 0 1 0 0 0 1 49.513229773857844 26.296848509430014 6.7778568097900687 1 rotate no_reflect no_shear #
lump $-1 $-1 $13 $1 #
transform $-1 1 0 0 0 1 0 0 0 1 49.513229773857844 26.296848509430014 6.7778568097900687 1 rotate no_reflect no_shear #
lump $-1 $-1 $14 $2 #
transform $-1 1 0 0 0 1 0 0 0 1 49.513229773857844 26.296848509430014 6.7778568097900687 1 rotate no_reflect no_shear #
lump $-1 $-1 $15 $3 #
transform $-1 1 0 0 0 1 0 0 0 1 49.513229773857844 26.296848509430014 6.7778568097900687 1 rotate no_reflect no_shear #
shell $-1 $-1 $-1 $16 $-1 $4 #
shell $-1 $-1 $-1 $17 $-1 $6 #
shell $-1 $-1 $-1 $18 $-1 $8 #
shell $-1 $-1 $-1 $19 $-1 $10 #
face $-1 $20 $21 $12 $-1 $22 forward single #
face $-1 $23 $24 $13 $-1 $25 reversed single #
face $-1 $26 $27 $14 $-1 $28 forward single #
face $-1 $29 $30 $15 $-1 $31 reversed single #
face $-1 $32 $33 $12 $-1 $34 reversed single #
loop $-1 $-1 $35 $16 #
plane-surface $-1 0 0 6.7778568097900687 0 0 1 1 0 0 forward_v I I I I #
face $-1 $36 $37 $13 $-1 $38 forward single #
loop $-1 $-1 $39 $17 #
plane-surface $-1 -46.751340518030268 0 -0.81638107796230952 0 0 1 1 0 0 forward_v I I I I #
face $-1 $40 $41 $14 $-1 $42 forward single #
loop $-1 $-1 $43 $18 #
plane-surface $-1 -34.018399482146322 49.660721524465352 111.90334358501232 1 0 0 0 -0.64278761758704617 -0.76604443648966558 forward_v I I I I #
face $-1 $44 $45 $15 $-1 $46 reversed single #
loop $-1 $47 $48 $19 #
cone-surface $-1 -21.385535805865555 23.167740933002804 4.0027088184876547 0 -0.64278761758704617 -0.76604443648966558 1 0 0 1 I I 0 1 1 forward I I I I #
face $-1 $49 $50 $12 $-1 $51 reversed single #
loop $-1 $-1 $52 $20 #
plane-surface $-1 0 0 -6.7778568097900687 0 0 1 1 0 0 forward_v I I I I #
coedge $-1 $53 $54 $55 $56 forward $21 $-1 #
face $-1 $57 $58 $13 $-1 $59 forward single #
loop $-1 $-1 $60 $23 #
plane-surface $-1 -46.751340518030268 0 -3.8163810779623093 0 0 1 1 0 0 forward_v I I I I #
coedge $-1 $61 $62 $63 $64 reversed $24 $-1 #
face $-1 $65 $66 $14 $-1 $67 forward single #
loop $-1 $-1 $68 $26 #
plane-surface $-1 -21.385535805865555 -13.992260486290817 36.044675183215787 0 0.64278761758704617 0.76604443648966558 1 0 0 forward_v I I I I #
coedge $-1 $69 $70 $71 $72 reversed $27 $-1 #
face $-1 $73 $74 $15 $-1 $75 forward single #
loop $-1 $76 $77 $29 #
cone-surface $-1 -21.385535805865555 22.422376440744209 3.1144180256515286 0 -0.64278761758704617 -0.76604443648966558 0.5 0 0 1 I I -0.70710678118654746 0.70710678118654746 0.5 forward I I I I #
loop $-1 $-1 $78 $19 #
coedge $-1 $48 $48 $79 $80 reversed $30 $-1 #
face $-1 $81 $82 $12 $-1 $83 reversed single #
loop $-1 $-1 $84 $32 #
plane-surface $-1 0 -26.296848509430014 0 0 1 0 0 0 1 forward_v I I I I #
coedge $-1 $85 $86 $87 $88 forward $33 $-1 #
coedge $-1 $89 $35 $90 $91 forward $21 $-1 #
coedge $-1 $35 $89 $92 $93 forward $21 $-1 #
coedge $-1 $94 $95 $35 $56 reversed $96 $-1 #
edge $-1 $97 -26.296848509430014 $98 26.296848509430014 $55 $99 forward 7 unknown #
face $-1 $100 $101 $13 $-1 $102 reversed single #
loop $-1 $-1 $103 $36 #
plane-surface $-1 -43.989451262202692 0 -2.3163810779623093 -1 0 0 0 0 1 forward_v I I I I #
coedge $-1 $104 $105 $106 $107 reversed $37 $-1 #
coedge $-1 $108 $39 $109 $110 reversed $24 $-1 #
coedge $-1 $39 $108 $111 $112 reversed $24 $-1 #
coedge $-1 $113 $103 $39 $64 forward $58 $-1 #
edge $-1 $114 -26.296848509430014 $115 26.296848509430014 $63 $116 forward 7 unknown #
face $-1 $117 $118 $14 $-1 $119 forward single #
loop $-1 $-1 $120 $40 #
plane-surface $-1 -8.7526721295847878 49.660721524465352 111.90334358501232 -1 0 0 0 0.64278761758704617 0.76604443648966558 forward_v I I I I #
coedge $-1 $121 $122 $123 $124 reversed $41 $-1 #
coedge $-1 $70 $43 $122 $125 forward $27 $-1 #
coedge $-1 $43 $69 $126 $127 reversed $27 $-1 #
coedge $-1 $128 $123 $43 $72 forward $118 $-1 #
edge $-1 $129 -3.9437860387269588 $130 1.4664877471973377 $71 $131 forward 7 unknown #
face $-1 $132 $133 $15 $-1 $134 forward single #
loop $-1 $-1 $135 $44 #
plane-surface $-1 -34.018399482146322 49.660721524465352 111.90334358501232 1 0 0 0 -0.64278761758704617 -0.76604443648966558 forward_v I I I I #
loop $-1 $-1 $136 $29 #
coedge $-1 $77 $77 $78 $137 forward $45 $-1 #
coedge $-1 $78 $78 $77 $137 reversed $47 $-1 #
coedge $-1 $79 $79 $48 $80 forward $133 $-1 #
edge $-1 $138 1.2748340846530415e-015 $138 6.2831853071796013 $79 $139 forward 7 unknown #
face $-1 $140 $141 $12 $-1 $142 reversed single #
loop $-1 $-1 $143 $49 #
plane-surface $-1 -49.513229773857844 0 0 1 0 0 0 0 -1 forward_v I I I I #
coedge $-1 $144 $92 $145 $146 forward $50 $-1 #
coedge $-1 $147 $52 $144 $148 forward $33 $-1 #
coedge $-1 $52 $147 $149 $150 forward $33 $-1 #
coedge $-1 $95 $94 $52 $88 reversed $96 $-1 #
edge $-1 $151 -26.296848509430014 $152 26.296848509430014 $87 $153 forward 7 unknown #
coedge $-1 $54 $53 $154 $155 forward $21 $-1 #
coedge $-1 $156 $157 $53 $91 reversed $141 $-1 #
edge $-1 $98 -49.513229773857844 $158 49.513229773857844 $90 $159 forward 7 unknown #
coedge $-1 $84 $160 $54 $93 reversed $50 $-1 #
edge $-1 $161 -49.513229773857844 $97 49.513229773857844 $92 $162 forward 7 unknown #
coedge $-1 $87 $55 $160 $163 forward $96 $-1 #
coedge $-1 $55 $87 $156 $164 reversed $96 $-1 #
loop $-1 $-1 $94 $140 #
vertex $-1 $56 $165 #
vertex $-1 $56 $166 #
straight-curve $-1 49.513229773857844 0 6.7778568097900687 0 1 0 I I #
face $-1 $167 $168 $13 $-1 $102 reversed single #
loop $-1 $-1 $169 $57 #
plane-surface $-1 -49.513229773857844 0 0 1 0 0 0 0 -1 forward_v I I I I #
coedge $-1 $63 $106 $170 $171 reversed $58 $-1 #
coedge $-1 $172 $60 $173 $174 reversed $37 $-1 #
coedge $-1 $60 $172 $175 $176 reversed $37 $-1 #
coedge $-1 $103 $113 $60 $107 forward $58 $-1 #
edge $-1 $177 -26.296848509430014 $178 26.296848509430014 $106 $179 forward 7 unknown #
coedge $-1 $62 $61 $180 $181 reversed $24 $-1 #
coedge $-1 $170 $182 $61 $110 forward $183 $-1 #
edge $-1 $184 -26.13755951484271 $114 -20.613781003187558 $109 $185 forward 7 unknown #
coedge $-1 $186 $187 $62 $112 forward $188 $-1 #
edge $-1 $115 20.613781003187558 $189 26.13755951484271 $111 $190 forward 7 unknown #
coedge $-1 $106 $63 $187 $191 reversed $58 $-1 #
vertex $-1 $110 $192 #
vertex $-1 $112 $193 #
straight-curve $-1 -43.989451262202692 0 -0.81638107796230952 0 1 0 I I #
face $-1 $194 $195 $14 $-1 $196 reversed single #
loop $-1 $-1 $197 $65 #
plane-surface $-1 0 0 6.7778568097900687 0 0 1 1 0 0 forward_v I I I I #
coedge $-1 $198 $199 $197 $200 reversed $66 $-1 #
coedge $-1 $201 $68 $199 $202 reversed $41 $-1 #
coedge $-1 $68 $201 $69 $125 reversed $41 $-1 #
coedge $-1 $71 $197 $68 $124 forward $118 $-1 #
edge $-1 $203 -1.9400957733479895 $129 23.325631579213542 $123 $204 forward 7 unknown #
edge $-1 $129 45.531086120311599 $205 52.59369701886002 $69 $206 forward 7 unknown #
coedge $-1 $207 $208 $70 $127 forward $209 $-1 #
edge $-1 $130 49.173814982716095 $205 53.713573816138336 $126 $210 forward 7 unknown #
coedge $-1 $211 $71 $208 $212 forward $118 $-1 #
vertex $-1 $124 $213 #
vertex $-1 $212 $214 #
straight-curve $-1 -34.018399482146322 24.830360762232676 6.777856809790066 0 1 0 I I #
face $-1 $215 $216 $15 $-1 $217 forward single #
loop $-1 $218 $79 $73 #
plane-surface $-1 -21.385535805865555 -13.992260486290817 36.044675183215787 0 0.64278761758704617 0.76604443648966558 1 0 0 forward_v I I I I #
coedge $-1 $219 $220 $221 $222 reversed $74 $-1 #
coedge $-1 $136 $136 $-1 $223 forward $76 $-1 #
edge $-1 $224 0 $224 6.2831853071796004 $77 $225 forward 7 unknown #
vertex $-1 $80 $226 #
ellipse-curve $-1 -21.385535805865555 23.591711616467872 4.5079773930789413 0 -0.64278761758704617 -0.76604443648966558 1 0 0 1 I I #
face $-1 $-1 $96 $12 $-1 $227 reversed single #
loop $-1 $-1 $156 $81 #
plane-surface $-1 0 26.296848509430014 0 0 -1 0 0 0 -1 forward_v I I I I #
coedge $-1 $228 $154 $157 $229 forward $82 $-1 #
coedge $-1 $160 $84 $85 $148 reversed $50 $-1 #
coedge $-1 $154 $228 $84 $146 reversed $82 $-1 #
edge $-1 $161 -6.7778568097900687 $230 6.7778568097900687 $145 $231 forward 7 unknown #
coedge $-1 $86 $85 $228 $232 forward $33 $-1 #
edge $-1 $152 -49.513229773857844 $230 49.513229773857844 $144 $233 forward 7 unknown #
coedge $-1 $157 $156 $86 $150 reversed $141 $-1 #
edge $-1 $234 -49.513229773857844 $151 49.513229773857844 $149 $235 forward 7 unknown #
vertex $-1 $88 $236 #
vertex $-1 $163 $237 #
straight-curve $-1 49.513229773857844 0 -6.7778568097900687 0 -1 0 I I #
coedge $-1 $143 $145 $89 $155 reversed $82 $-1 #
edge $-1 $158 -26.296848509430014 $161 26.296848509430014 $154 $238 forward 7 unknown #
coedge $-1 $149 $90 $95 $164 forward $141 $-1 #
coedge $-1 $90 $149 $143 $229 reversed $141 $-1 #
vertex $-1 $91 $239 #
straight-curve $-1 0 26.296848509430014 6.7778568097900687 -1 0 0 I I #
coedge $-1 $92 $144 $94 $163 reversed $50 $-1 #
vertex $-1 $155 $240 #
straight-curve $-1 0 -26.296848509430014 6.7778568097900687 1 0 0 I I #
edge $-1 $97 -6.7778568097900687 $152 6.7778568097900687 $94 $241 forward 7 unknown #
edge $-1 $98 -6.7778568097900687 $151 6.7778568097900687 $95 $242 forward 7 unknown #
point $-1 49.513229773857844 -26.296848509430014 6.7778568097900687 #
point $-1 49.513229773857844 26.296848509430014 6.7778568097900687 #
face $-1 $243 $183 $13 $-1 $244 reversed single #
loop $-1 $-1 $180 $100 #
coedge $-1 $245 $246 $172 $247 forward $101 $-1 #
coedge $-1 $175 $109 $103 $171 forward $183 $-1 #
edge $-1 $114 -0.34180946101884513 $178 2.6581905389811546 $170 $248 forward 7 unknown #
coedge $-1 $105 $104 $169 $247 reversed $37 $-1 #
coedge $-1 $187 $249 $104 $174 forward $188 $-1 #
edge $-1 $250 -26.13755951484271 $177 -20.613781003187558 $173 $251 forward 7 unknown #
coedge $-1 $252 $170 $105 $176 forward $183 $-1 #
edge $-1 $178 20.613781003187558 $253 26.13755951484271 $175 $254 forward 7 unknown #
vertex $-1 $174 $255 #
vertex $-1 $176 $256 #
straight-curve $-1 -43.989451262202692 0 -3.8163810779623093 0 -1 0 I I #
coedge $-1 $257 $258 $108 $181 forward $168 $-1 #
edge $-1 $189 -26.296848509430014 $184 26.296848509430014 $180 $259 forward 7 unknown #
coedge $-1 $109 $260 $257 $261 forward $183 $-1 #
loop $-1 $-1 $109 $167 #
vertex $-1 $110 $262 #
straight-curve $-1 -23.375670259015134 -26.296848509430014 -0.81638107796230952 1 0 0 I I #
coedge $-1 $263 $111 $258 $264 reversed $188 $-1 #
coedge $-1 $111 $173 $113 $191 forward $188 $-1 #
loop $-1 $-1 $111 $265 #
vertex $-1 $181 $266 #
straight-curve $-1 -23.375670259015134 26.296848509430014 -0.81638107796230952 -1 0 0 I I #
edge $-1 $177 -2.6581905389811546 $115 0.34180946101884513 $187 $267 forward 7 unknown #
point $-1 -43.989451262202692 -26.296848509430014 -0.81638107796230952 #
point $-1 -43.989451262202692 26.296848509430014 -0.81638107796230952 #
face $-1 $268 $269 $14 $-1 $270 forward single #
loop $-1 $-1 $271 $117 #
plane-surface $-1 -46.751340518030268 0 -0.81638107796230952 0 0 1 1 0 0 forward_v I I I I #
coedge $-1 $123 $272 $120 $200 forward $118 $-1 #
coedge $-1 $199 $120 $273 $274 reversed $66 $-1 #
coedge $-1 $120 $198 $121 $202 forward $66 $-1 #
edge $-1 $275 -1.4664877471973377 $203 3.9437860387269588 $197 $276 forward 7 unknown #
coedge $-1 $122 $121 $207 $277 reversed $41 $-1 #
edge $-1 $278 -52.59369701886002 $203 -45.531086120311599 $199 $279 forward 7 unknown #
vertex $-1 $124 $280 #
straight-curve $-1 -10.692767902932777 20.886574723505714 6.7778568097900731 -1 0 0 I I #
vertex $-1 $277 $281 #
straight-curve $-1 -34.018399482146322 -13.992260486290817 36.044675183215787 0 0.76604443648966558 -0.64278761758704617 I I #
coedge $-1 $273 $126 $201 $277 forward $209 $-1 #
coedge $-1 $126 $282 $128 $212 reversed $209 $-1 #
loop $-1 $-1 $273 $283 #
straight-curve $-1 -34.018399482146322 26.296848509430014 55.951671792506161 0 0 -1 I I #
coedge $-1 $284 $128 $285 $286 forward $118 $-1 #
edge $-1 $130 34.018399482146322 $287 49.513229773857844 $208 $288 forward 7 unknown #
point $-1 -34.018399482146322 20.886574723505717 6.7778568097900695 #
point $-1 -34.018399482146322 26.296848509430014 6.7778568097900687 #
face $-1 $289 $290 $15 $-1 $291 forward single #
loop $-1 $-1 $292 $132 #
plane-surface $-1 -8.7526721295847878 49.660721524465352 111.90334358501232 -1 0 0 0 0.64278761758704617 0.76604443648966558 forward_v I I I I #
loop $-1 $-1 $293 $73 #
coedge $-1 $220 $135 $294 $295 forward $74 $-1 #
coedge $-1 $135 $219 $296 $297 reversed $74 $-1 #
coedge $-1 $298 $299 $135 $222 forward $290 $-1 #
edge $-1 $300 -3.9437860387269588 $301 1.4664877471973377 $221 $302 forward 7 unknown #
edge $-1 $303 1 $303 0 $136 $-1 forward 7 unknown #
vertex $-1 $137 $304 #
ellipse-curve $-1 -21.385535805865555 22.743770249537732 3.4974402438963614 0 0.64278761758704617 0.76604443648966558 1 0 0 1 I I #
point $-1 -20.385535805865555 23.591711616467876 4.5079773930789475 #
plane-surface $-1 49.513229773857844 0 0 -1 0 0 0 0 1 forward_v I I I I #
coedge $-1 $145 $143 $147 $232 reversed $82 $-1 #
edge $-1 $158 -6.7778568097900687 $234 6.7778568097900687 $157 $305 forward 7 unknown #
vertex $-1 $232 $306 #
straight-curve $-1 -49.513229773857844 -26.296848509430014 0 0 0 -1 I I #
edge $-1 $230 -26.296848509430014 $234 26.296848509430014 $228 $307 forward 7 unknown #
straight-curve $-1 0 -26.296848509430014 -6.7778568097900687 -1 0 0 I I #
vertex $-1 $150 $308 #
straight-curve $-1 0 26.296848509430014 -6.7778568097900687 1 0 0 I I #
point $-1 49.513229773857844 26.296848509430014 -6.7778568097900687 #
point $-1 49.513229773857844 -26.296848509430014 -6.7778568097900687 #
straight-curve $-1 -49.513229773857844 0 6.7778568097900687 0 -1 0 I I #
point $-1 -49.513229773857844 26.296848509430014 6.7778568097900687 #
point $-1 -49.513229773857844 -26.296848509430014 6.7778568097900687 #
straight-curve $-1 49.513229773857844 -26.296848509430014 0 0 0 -1 I I #
straight-curve $-1 49.513229773857844 26.296848509430014 0 0 0 -1 I I #
face $-1 $309 $310 $13 $-1 $311 forward single #
plane-surface $-1 0 -26.296848509430014 0 0 1 0 0 0 1 forward_v I I I I #
coedge $-1 $312 $169 $249 $313 forward $101 $-1 #
coedge $-1 $169 $312 $252 $314 reversed $101 $-1 #
edge $-1 $253 -26.296848509430014 $250 26.296848509430014 $169 $315 forward 7 unknown #
straight-curve $-1 -43.989451262202692 -26.296848509430014 -1.1581905389811546 0 0 -1 I I #
coedge $-1 $173 $316 $245 $313 reversed $188 $-1 #
vertex $-1 $313 $317 #
straight-curve $-1 -23.375670259015134 26.296848509430014 -3.8163810779623093 1 0 0 I I #
coedge $-1 $318 $175 $246 $314 forward $183 $-1 #
vertex $-1 $314 $319 #
straight-curve $-1 -23.375670259015134 -26.296848509430014 -3.8163810779623093 -1 0 0 I I #
point $-1 -43.989451262202692 26.296848509430014 -3.8163810779623093 #
point $-1 -43.989451262202692 -26.296848509430014 -3.8163810779623093 #
coedge $-1 $320 $180 $182 $261 reversed $168 $-1 #
coedge $-1 $180 $320 $186 $264 forward $168 $-1 #
straight-curve $-1 -49.513229773857844 0 -0.81638107796230952 0 -1 0 I I #
coedge $-1 $182 $321 $322 $323 reversed $183 $-1 #
edge $-1 $324 -6.7778568097900687 $184 0.81638107796230952 $257 $325 forward 7 unknown #
point $-1 -49.513229773857844 -26.296848509430014 -0.81638107796230952 #
coedge $-1 $326 $186 $327 $328 reversed $188 $-1 #
edge $-1 $329 -6.7778568097900687 $189 0.81638107796230952 $186 $330 forward 7 unknown #
face $-1 $331 $188 $13 $-1 $332 reversed single #
point $-1 -49.513229773857844 26.296848509430014 -0.81638107796230952 #
straight-curve $-1 -43.989451262202692 26.296848509430014 -1.1581905389811546 0 0 1 I I #
face $-1 $333 $334 $14 $-1 $335 forward single #
loop $-1 $-1 $336 $194 #
plane-surface $-1 -46.751340518030268 0 -3.8163810779623093 0 0 1 1 0 0 forward_v I I I I #
coedge $-1 $337 $338 $339 $340 reversed $195 $-1 #
coedge $-1 $197 $341 $342 $343 forward $118 $-1 #
coedge $-1 $342 $207 $198 $274 forward $209 $-1 #
edge $-1 $278 -53.713573816138336 $275 -49.173814982716095 $273 $344 forward 7 unknown #
vertex $-1 $274 $345 #
straight-curve $-1 -8.7526721295847878 24.830360762232676 6.777856809790066 0 -1 0 I I #
edge $-1 $205 -23.325631579213542 $278 1.9400957733479895 $207 $346 forward 7 unknown #
vertex $-1 $277 $347 #
straight-curve $-1 -8.7526721295847878 -13.992260486290817 36.044675183215787 0 -0.76604443648966558 0.64278761758704617 I I #
point $-1 -8.7526721295847878 20.886574723505717 6.7778568097900695 #
point $-1 -34.018399482146322 26.296848509430014 2.2380979763678255 #
coedge $-1 $208 $348 $349 $350 reversed $209 $-1 #
face $-1 $351 $209 $14 $-1 $352 reversed single #
coedge $-1 $341 $211 $353 $354 forward $118 $-1 #
coedge $-1 $349 $355 $211 $286 reversed $356 $-1 #
edge $-1 $287 -26.296848509430014 $357 26.296848509430014 $285 $358 forward 7 unknown #
vertex $-1 $212 $359 #
straight-curve $-1 0 26.296848509430014 6.7778568097900687 -1 0 0 I I #
face $-1 $360 $361 $15 $-1 $362 reversed single #
loop $-1 $-1 $363 $215 #
plane-surface $-1 0 0 6.7778568097900687 0 0 1 1 0 0 forward_v I I I I #
coedge $-1 $364 $365 $363 $366 reversed $216 $-1 #
coedge $-1 $367 $294 $299 $368 reversed $218 $-1 #
coedge $-1 $293 $369 $219 $295 reversed $218 $-1 #
edge $-1 $300 45.531086120311599 $370 52.59369701886002 $219 $371 forward 7 unknown #
coedge $-1 $372 $373 $220 $297 forward $374 $-1 #
edge $-1 $301 49.173814982716095 $370 53.713573816138336 $296 $375 forward 7 unknown #
coedge $-1 $376 $221 $373 $377 forward $290 $-1 #
coedge $-1 $221 $363 $293 $368 forward $290 $-1 #
vertex $-1 $368 $378 #
vertex $-1 $377 $379 #
straight-curve $-1 -34.018399482146322 24.830360762232676 6.777856809790066 0 1 0 I I #
vertex $-1 $223 $380 #
point $-1 -20.385535805865555 22.743770249537732 3.4974402438963614 #
straight-curve $-1 -49.513229773857844 26.296848509430014 0 0 0 -1 I I #
point $-1 -49.513229773857844 -26.296848509430014 -6.7778568097900687 #
straight-curve $-1 -49.513229773857844 0 -6.7778568097900687 0 1 0 I I #
point $-1 -49.513229773857844 26.296848509430014 -6.7778568097900687 #
face $-1 $265 $381 $13 $-1 $382 reversed single #
loop $-1 $-1 $383 $243 #
plane-surface $-1 0 0 6.7778568097900687 0 0 1 1 0 0 forward_v I I I I #
coedge $-1 $246 $245 $384 $385 reversed $101 $-1 #
edge $-1 $250 3.8163810779623093 $386 6.7778568097900687 $249 $330 forward 7 unknown #
edge $-1 $253 3.8163810779623093 $387 6.7778568097900687 $246 $325 forward 7 unknown #
straight-curve $-1 -49.513229773857844 0 -3.8163810779623093 0 1 0 I I #
coedge $-1 $249 $326 $388 $389 reversed $188 $-1 #
point $-1 -49.513229773857844 26.296848509430014 -3.8163810779623093 #
coedge $-1 $321 $252 $390 $391 reversed $183 $-1 #
point $-1 -49.513229773857844 -26.296848509430014 -3.8163810779623093 #
coedge $-1 $258 $257 $392 $393 reversed $168 $-1 #
coedge $-1 $260 $318 $394 $395 reversed $183 $-1 #
coedge $-1 $383 $392 $260 $323 forward $310 $-1 #
edge $-1 $324 -49.513229773857844 $396 49.513229773857844 $260 $397 forward 7 unknown #
vertex $-1 $393 $398 #
straight-curve $-1 -49.513229773857844 -26.296848509430014 0 0 0 -1 I I #
coedge $-1 $316 $263 $399 $400 forward $188 $-1 #
coedge $-1 $392 $383 $263 $328 forward $310 $-1 #
edge $-1 $401 -49.513229773857844 $329 49.513229773857844 $263 $402 forward 7 unknown #
vertex $-1 $328 $403 #
straight-curve $-1 -49.513229773857844 26.296848509430014 0 0 0 -1 I I #
face $-1 $-1 $404 $13 $-1 $405 reversed single #
plane-surface $-1 0 26.296848509430014 0 0 -1 0 0 0 -1 forward_v I I I I #
face $-1 $406 $407 $14 $-1 $408 reversed single #
loop $-1 $-1 $409 $268 #
plane-surface $-1 -43.989451262202692 0 -2.3163810779623093 -1 0 0 0 0 1 forward_v I I I I #
coedge $-1 $410 $411 $412 $413 reversed $269 $-1 #
coedge $-1 $414 $271 $415 $416 reversed $195 $-1 #
coedge $-1 $271 $414 $348 $417 reversed $195 $-1 #
coedge $-1 $418 $409 $271 $340 forward $334 $-1 #
edge $-1 $419 -26.296848509430014 $420 26.296848509430014 $339 $421 forward 7 unknown #
coedge $-1 $272 $284 $422 $423 forward $118 $-1 #
coedge $-1 $424 $273 $272 $343 reversed $209 $-1 #
edge $-1 $425 -49.513229773857844 $275 8.7526721295847878 $342 $288 forward 7 unknown #
straight-curve $-1 -8.7526721295847878 26.296848509430014 55.951671792506161 0 0 1 I I #
point $-1 -8.7526721295847878 26.296848509430014 6.7778568097900687 #
straight-curve $-1 -10.692767902932777 26.29684850943001 2.2380979763678219 1 0 0 I I #
point $-1 -8.7526721295847878 26.296848509430014 2.2380979763678255 #
coedge $-1 $282 $426 $338 $417 forward $209 $-1 #
coedge $-1 $427 $285 $282 $350 forward $356 $-1 #
edge $-1 $287 -6.7778568097900687 $428 0.81638107796230952 $282 $429 forward 7 unknown #
face $-1 $-1 $430 $14 $-1 $431 reversed single #
plane-surface $-1 0 26.296848509430014 0 0 -1 0 0 0 -1 forward_v I I I I #
coedge $-1 $432 $433 $284 $354 reversed $434 $-1 #
edge $-1 $357 -49.513229773857844 $435 49.513229773857844 $353 $436 forward 7 unknown #
coedge $-1 $285 $427 $432 $437 reversed $356 $-1 #
loop $-1 $-1 $427 $406 #
vertex $-1 $286 $438 #
straight-curve $-1 -49.513229773857844 0 6.7778568097900687 0 -1 0 I I #
point $-1 -49.513229773857844 26.296848509430014 6.7778568097900687 #
face $-1 $439 $440 $15 $-1 $441 forward single #
loop $-1 $-1 $442 $289 #
plane-surface $-1 -46.751340518030268 0 -0.81638107796230952 0 0 1 1 0 0 forward_v I I I I #
coedge $-1 $299 $443 $292 $366 forward $290 $-1 #
coedge $-1 $365 $292 $444 $445 reversed $216 $-1 #
coedge $-1 $292 $364 $367 $446 forward $216 $-1 #
edge $-1 $447 -1.4664877471973377 $448 3.9437860387269588 $363 $449 forward 7 unknown #
coedge $-1 $369 $293 $365 $446 reversed $218 $-1 #
edge $-1 $448 -1.9400957733479895 $300 23.325631579213542 $299 $450 forward 7 unknown #
coedge $-1 $294 $367 $372 $451 reversed $218 $-1 #
vertex $-1 $451 $452 #
straight-curve $-1 -34.018399482146322 -13.992260486290817 36.044675183215787 0 0.76604443648966558 -0.64278761758704617 I I #
coedge $-1 $444 $296 $369 $451 forward $374 $-1 #
coedge $-1 $296 $453 $298 $377 reversed $374 $-1 #
loop $-1 $-1 $444 $454 #
straight-curve $-1 -34.018399482146322 26.296848509430014 55.951671792506161 0 0 -1 I I #
coedge $-1 $455 $298 $456 $457 forward $290 $-1 #
edge $-1 $301 34.018399482146322 $458 49.513229773857844 $373 $459 forward 7 unknown #
point $-1 -34.018399482146322 20.886574723505717 6.7778568097900695 #
point $-1 -34.018399482146322 26.296848509430014 6.7778568097900687 #
point $-1 -21.385535805865555 22.100982631950686 2.7313958074066957 #
loop $-1 $-1 $460 $309 #
plane-surface $-1 0 0 -6.7778568097900687 0 0 1 1 0 0 forward_v I I I I #
coedge $-1 $327 $322 $461 $462 forward $310 $-1 #
coedge $-1 $388 $390 $312 $385 forward $381 $-1 #
edge $-1 $387 -26.296848509430014 $386 26.296848509430014 $312 $463 forward 7 unknown #
vertex $-1 $389 $464 #
vertex $-1 $385 $465 #
coedge $-1 $460 $384 $316 $389 forward $381 $-1 #
edge $-1 $386 -49.513229773857844 $466 49.513229773857844 $316 $467 forward 7 unknown #
coedge $-1 $384 $460 $318 $391 forward $381 $-1 #
edge $-1 $468 -49.513229773857844 $387 49.513229773857844 $318 $469 forward 7 unknown #
coedge $-1 $322 $327 $320 $393 forward $310 $-1 #
edge $-1 $329 -26.296848509430014 $324 26.296848509430014 $320 $470 forward 7 unknown #
coedge $-1 $471 $461 $321 $395 forward $404 $-1 #
edge $-1 $396 -6.7778568097900687 $468 6.7778568097900687 $394 $472 forward 7 unknown #
vertex $-1 $462 $473 #
straight-curve $-1 0 -26.296848509430014 6.7778568097900687 1 0 0 I I #
point $-1 -49.513229773857844 -26.296848509430014 6.7778568097900687 #
coedge $-1 $461 $471 $326 $400 reversed $404 $-1 #
edge $-1 $401 -6.7778568097900687 $466 6.7778568097900687 $399 $474 forward 7 unknown #
vertex $-1 $462 $475 #
straight-curve $-1 0 26.296848509430014 6.7778568097900687 -1 0 0 I I #
point $-1 -49.513229773857844 26.296848509430014 6.7778568097900687 #
loop $-1 $-1 $394 $331 #
plane-surface $-1 49.513229773857844 0 0 -1 0 0 0 0 1 forward_v I I I I #
face $-1 $476 $356 $14 $-1 $408 reversed single #
loop $-1 $-1 $477 $333 #
plane-surface $-1 -49.513229773857844 0 0 1 0 0 0 0 -1 forward_v I I I I #
coedge $-1 $339 $412 $478 $479 reversed $334 $-1 #
coedge $-1 $480 $336 $481 $482 reversed $269 $-1 #
coedge $-1 $336 $480 $483 $484 reversed $269 $-1 #
coedge $-1 $409 $418 $336 $413 forward $334 $-1 #
edge $-1 $485 -26.296848509430014 $486 26.296848509430014 $412 $487 forward 7 unknown #
coedge $-1 $338 $337 $427 $488 reversed $195 $-1 #
coedge $-1 $478 $432 $337 $416 forward $434 $-1 #
edge $-1 $489 -26.13755951484271 $419 -20.613781003187558 $415 $490 forward 7 unknown #
edge $-1 $420 20.613781003187558 $428 26.13755951484271 $348 $491 forward 7 unknown #
coedge $-1 $412 $339 $426 $492 reversed $334 $-1 #
vertex $-1 $416 $493 #
vertex $-1 $417 $494 #
straight-curve $-1 -43.989451262202692 0 -0.81638107796230952 0 1 0 I I #
coedge $-1 $495 $496 $341 $423 reversed $430 $-1 #
edge $-1 $435 -26.296848509430014 $425 26.296848509430014 $422 $497 forward 7 unknown #
coedge $-1 $498 $342 $496 $499 forward $209 $-1 #
vertex $-1 $423 $500 #
coedge $-1 $348 $481 $418 $492 forward $209 $-1 #
coedge $-1 $355 $349 $414 $488 forward $356 $-1 #
vertex $-1 $488 $501 #
straight-curve $-1 -49.513229773857844 26.296848509430014 0 0 0 -1 I I #
loop $-1 $-1 $495 $351 #
plane-surface $-1 49.513229773857844 0 0 -1 0 0 0 0 1 forward_v I I I I #
coedge $-1 $415 $353 $355 $437 forward $434 $-1 #
coedge $-1 $353 $502 $495 $503 reversed $434 $-1 #
loop $-1 $-1 $415 $476 #
vertex $-1 $423 $504 #
straight-curve $-1 0 -26.296848509430014 6.7778568097900687 1 0 0 I I #
edge $-1 $357 -6.7778568097900687 $489 0.81638107796230952 $355 $505 forward 7 unknown #
point $-1 -49.513229773857844 -26.296848509430014 6.7778568097900687 #
face $-1 $506 $507 $15 $-1 $508 forward single #
loop $-1 $-1 $509 $360 #
plane-surface $-1 -46.751340518030268 0 -3.8163810779623093 0 0 1 1 0 0 forward_v I I I I #
coedge $-1 $510 $511 $512 $513 reversed $361 $-1 #
coedge $-1 $363 $514 $515 $516 forward $290 $-1 #
coedge $-1 $515 $372 $364 $445 forward $374 $-1 #
edge $-1 $517 -53.713573816138336 $447 -49.173814982716095 $444 $518 forward 7 unknown #
edge $-1 $517 -52.59369701886002 $448 -45.531086120311599 $365 $519 forward 7 unknown #
vertex $-1 $445 $520 #
vertex $-1 $368 $521 #
straight-curve $-1 -8.7526721295847878 24.830360762232676 6.777856809790066 0 -1 0 I I #
straight-curve $-1 -10.692767902932777 20.886574723505714 6.7778568097900731 -1 0 0 I I #
edge $-1 $370 -23.325631579213542 $517 1.9400957733479895 $372 $522 forward 7 unknown #
point $-1 -34.018399482146322 26.296848509430014 2.2380979763678255 #
coedge $-1 $373 $523 $524 $525 reversed $374 $-1 #
face $-1 $526 $374 $15 $-1 $527 reversed single #
coedge $-1 $514 $376 $528 $529 forward $290 $-1 #
coedge $-1 $524 $530 $376 $457 reversed $531 $-1 #
edge $-1 $458 -26.296848509430014 $532 26.296848509430014 $456 $533 forward 7 unknown #
vertex $-1 $377 $534 #
straight-curve $-1 0 26.296848509430014 6.7778568097900687 -1 0 0 I I #
coedge $-1 $390 $388 $471 $535 forward $381 $-1 #
coedge $-1 $394 $399 $383 $462 reversed $404 $-1 #
edge $-1 $396 -26.296848509430014 $401 26.296848509430014 $461 $536 forward 7 unknown #
straight-curve $-1 -49.513229773857844 0 -6.7778568097900687 0 1 0 I I #
point $-1 -49.513229773857844 26.296848509430014 -6.7778568097900687 #
point $-1 -49.513229773857844 -26.296848509430014 -6.7778568097900687 #
vertex $-1 $535 $537 #
straight-curve $-1 0 26.296848509430014 -6.7778568097900687 1 0 0 I I #
vertex $-1 $395 $538 #
straight-curve $-1 0 -26.296848509430014 -6.7778568097900687 -1 0 0 I I #
straight-curve $-1 -49.513229773857844 0 6.7778568097900687 0 -1 0 I I #
coedge $-1 $399 $394 $460 $535 reversed $404 $-1 #
straight-curve $-1 49.513229773857844 -26.296848509430014 0 0 0 -1 I I #
point $-1 49.513229773857844 -26.296848509430014 6.7778568097900687 #
straight-curve $-1 49.513229773857844 26.296848509430014 0 0 0 -1 I I #
point $-1 49.513229773857844 26.296848509430014 6.7778568097900687 #
face $-1 $539 $434 $14 $-1 $540 reversed single #
coedge $-1 $541 $542 $480 $543 forward $407 $-1 #
coedge $-1 $483 $415 $409 $479 forward $434 $-1 #
edge $-1 $419 -0.34180946101884513 $486 2.6581905389811546 $478 $544 forward 7 unknown #
coedge $-1 $411 $410 $477 $543 reversed $269 $-1 #
coedge $-1 $426 $545 $410 $482 forward $209 $-1 #
edge $-1 $546 -26.13755951484271 $485 -20.613781003187558 $481 $547 forward 7 unknown #
coedge $-1 $548 $478 $411 $484 forward $434 $-1 #
edge $-1 $486 20.613781003187558 $549 26.13755951484271 $483 $550 forward 7 unknown #
vertex $-1 $482 $551 #
vertex $-1 $484 $552 #
straight-curve $-1 -43.989451262202692 0 -3.8163810779623093 0 -1 0 I I #
edge $-1 $428 -26.296848509430014 $489 26.296848509430014 $427 $553 forward 7 unknown #
vertex $-1 $416 $554 #
straight-curve $-1 -23.375670259015134 -26.296848509430014 -0.81638107796230952 1 0 0 I I #
straight-curve $-1 -23.375670259015134 26.296848509430014 -0.81638107796230952 -1 0 0 I I #
edge $-1 $485 -2.6581905389811546 $420 0.34180946101884513 $426 $555 forward 7 unknown #
point $-1 -43.989451262202692 -26.296848509430014 -0.81638107796230952 #
point $-1 -43.989451262202692 26.296848509430014 -0.81638107796230952 #
coedge $-1 $556 $422 $433 $503 forward $430 $-1 #
coedge $-1 $422 $556 $424 $499 reversed $430 $-1 #
straight-curve $-1 49.513229773857844 0 6.7778568097900687 0 1 0 I I #
coedge $-1 $545 $424 $557 $558 reversed $209 $-1 #
edge $-1 $425 -6.7778568097900687 $559 6.7778568097900687 $496 $560 forward 7 unknown #
point $-1 49.513229773857844 26.296848509430014 6.7778568097900687 #
point $-1 -49.513229773857844 26.296848509430014 -0.81638107796230952 #
coedge $-1 $433 $548 $561 $562 reversed $434 $-1 #
edge $-1 $435 -6.7778568097900687 $563 6.7778568097900687 $495 $564 forward 7 unknown #
point $-1 49.513229773857844 -26.296848509430014 6.7778568097900687 #
straight-curve $-1 -49.513229773857844 -26.296848509430014 0 0 0 -1 I I #
face $-1 $565 $566 $15 $-1 $567 reversed single #
loop $-1 $-1 $568 $439 #
plane-surface $-1 -43.989451262202692 0 -2.3163810779623093 -1 0 0 0 0 1 forward_v I I I I #
coedge $-1 $569 $570 $571 $572 reversed $440 $-1 #
coedge $-1 $573 $442 $574 $575 reversed $361 $-1 #
coedge $-1 $442 $573 $523 $576 reversed $361 $-1 #
coedge $-1 $577 $568 $442 $513 forward $507 $-1 #
edge $-1 $578 -26.296848509430014 $579 26.296848509430014 $512 $580 forward 7 unknown #
coedge $-1 $443 $455 $581 $582 forward $290 $-1 #
coedge $-1 $583 $444 $443 $516 reversed $374 $-1 #
edge $-1 $584 -49.513229773857844 $447 8.7526721295847878 $515 $459 forward 7 unknown #
vertex $-1 $451 $585 #
straight-curve $-1 -8.7526721295847878 26.296848509430014 55.951671792506161 0 0 1 I I #
straight-curve $-1 -8.7526721295847878 -13.992260486290817 36.044675183215787 0 -0.76604443648966558 0.64278761758704617 I I #
point $-1 -8.7526721295847878 26.296848509430014 6.7778568097900687 #
point $-1 -8.7526721295847878 20.886574723505717 6.7778568097900695 #
straight-curve $-1 -10.692767902932777 26.29684850943001 2.2380979763678219 1 0 0 I I #
coedge $-1 $453 $586 $511 $576 forward $374 $-1 #
coedge $-1 $587 $456 $453 $525 forward $531 $-1 #
edge $-1 $458 -6.7778568097900687 $588 0.81638107796230952 $453 $589 forward 7 unknown #
face $-1 $-1 $590 $15 $-1 $591 reversed single #
plane-surface $-1 0 26.296848509430014 0 0 -1 0 0 0 -1 forward_v I I I I #
coedge $-1 $592 $593 $455 $529 reversed $594 $-1 #
edge $-1 $532 -49.513229773857844 $595 49.513229773857844 $528 $596 forward 7 unknown #
coedge $-1 $456 $587 $592 $597 reversed $531 $-1 #
loop $-1 $-1 $587 $565 #
vertex $-1 $457 $598 #
straight-curve $-1 -49.513229773857844 0 6.7778568097900687 0 -1 0 I I #
point $-1 -49.513229773857844 26.296848509430014 6.7778568097900687 #
edge $-1 $466 -26.296848509430014 $468 26.296848509430014 $471 $599 forward 7 unknown #
straight-curve $-1 49.513229773857844 0 6.7778568097900687 0 1 0 I I #
point $-1 49.513229773857844 26.296848509430014 -6.7778568097900687 #
point $-1 49.513229773857844 -26.296848509430014 -6.7778568097900687 #
face $-1 $283 $600 $14 $-1 $601 reversed single #
plane-surface $-1 0 -26.296848509430014 0 0 1 0 0 0 1 forward_v I I I I #
coedge $-1 $602 $477 $545 $603 forward $407 $-1 #
coedge $-1 $477 $602 $548 $604 reversed $407 $-1 #
edge $-1 $549 -26.296848509430014 $546 26.296848509430014 $477 $605 forward 7 unknown #
straight-curve $-1 -43.989451262202692 -26.296848509430014 -1.1581905389811546 0 0 -1 I I #
coedge $-1 $481 $498 $541 $603 reversed $209 $-1 #
vertex $-1 $603 $606 #
straight-curve $-1 -23.375670259015134 26.296848509430014 -3.8163810779623093 1 0 0 I I #
coedge $-1 $502 $483 $542 $604 forward $434 $-1 #
vertex $-1 $604 $607 #
straight-curve $-1 -23.375670259015134 -26.296848509430014 -3.8163810779623093 -1 0 0 I I #
point $-1 -43.989451262202692 26.296848509430014 -3.8163810779623093 #
point $-1 -43.989451262202692 -26.296848509430014 -3.8163810779623093 #
straight-curve $-1 -49.513229773857844 0 -0.81638107796230952 0 -1 0 I I #
point $-1 -49.513229773857844 -26.296848509430014 -0.81638107796230952 #
straight-curve $-1 -43.989451262202692 26.296848509430014 -1.1581905389811546 0 0 1 I I #
coedge $-1 $496 $495 $608 $609 reversed $430 $-1 #
coedge $-1 $608 $610 $498 $558 forward $600 $-1 #
edge $-1 $611 -49.513229773857844 $559 49.513229773857844 $498 $612 forward 7 unknown #
vertex $-1 $609 $613 #
straight-curve $-1 49.513229773857844 26.296848509430014 0 0 0 -1 I I #
coedge $-1 $610 $608 $502 $562 forward $600 $-1 #
edge $-1 $563 -49.513229773857844 $614 49.513229773857844 $502 $615 forward 7 unknown #
vertex $-1 $503 $616 #
straight-curve $-1 49.513229773857844 -26.296848509430014 0 0 0 -1 I I #
face $-1 $617 $531 $15 $-1 $567 reversed single #
loop $-1 $-1 $618 $506 #
plane-surface $-1 -49.513229773857844 0 0 1 0 0 0 0 -1 forward_v I I I I #
coedge $-1 $512 $571 $619 $620 reversed $507 $-1 #
coedge $-1 $621 $509 $622 $623 reversed $440 $-1 #
coedge $-1 $509 $621 $624 $625 reversed $440 $-1 #
coedge $-1 $568 $577 $509 $572 forward $507 $-1 #
edge $-1 $626 -26.296848509430014 $627 26.296848509430014 $571 $628 forward 7 unknown #
coedge $-1 $511 $510 $587 $629 reversed $361 $-1 #
coedge $-1 $619 $592 $510 $575 forward $594 $-1 #
edge $-1 $630 -26.13755951484271 $578 -20.613781003187558 $574 $631 forward 7 unknown #
edge $-1 $579 20.613781003187558 $588 26.13755951484271 $523 $632 forward 7 unknown #
coedge $-1 $571 $512 $586 $633 reversed $507 $-1 #
vertex $-1 $575 $634 #
vertex $-1 $576 $635 #
straight-curve $-1 -43.989451262202692 0 -0.81638107796230952 0 1 0 I I #
coedge $-1 $636 $637 $514 $582 reversed $590 $-1 #
edge $-1 $595 -26.296848509430014 $584 26.296848509430014 $581 $638 forward 7 unknown #
coedge $-1 $639 $515 $637 $640 forward $374 $-1 #
vertex $-1 $582 $641 #
point $-1 -8.7526721295847878 26.296848509430014 2.2380979763678255 #
coedge $-1 $523 $622 $577 $633 forward $374 $-1 #
coedge $-1 $530 $524 $573 $629 forward $531 $-1 #
vertex $-1 $629 $642 #
straight-curve $-1 -49.513229773857844 26.296848509430014 0 0 0 -1 I I #
loop $-1 $-1 $636 $526 #
plane-surface $-1 49.513229773857844 0 0 -1 0 0 0 0 1 forward_v I I I I #
coedge $-1 $574 $528 $530 $597 forward $594 $-1 #
coedge $-1 $528 $643 $636 $644 reversed $594 $-1 #
loop $-1 $-1 $574 $617 #
vertex $-1 $582 $645 #
straight-curve $-1 0 -26.296848509430014 6.7778568097900687 1 0 0 I I #
edge $-1 $532 -6.7778568097900687 $630 0.81638107796230952 $530 $646 forward 7 unknown #
point $-1 -49.513229773857844 -26.296848509430014 6.7778568097900687 #
straight-curve $-1 49.513229773857844 0 -6.7778568097900687 0 -1 0 I I #
loop $-1 $-1 $608 $539 #
plane-surface $-1 0 0 -6.7778568097900687 0 0 1 1 0 0 forward_v I I I I #
coedge $-1 $542 $541 $610 $647 reversed $407 $-1 #
edge $-1 $546 3.8163810779623093 $611 6.7778568097900687 $545 $429 forward 7 unknown #
edge $-1 $549 3.8163810779623093 $614 6.7778568097900687 $542 $505 forward 7 unknown #
straight-curve $-1 -49.513229773857844 0 -3.8163810779623093 0 1 0 I I #
point $-1 -49.513229773857844 26.296848509430014 -3.8163810779623093 #
point $-1 -49.513229773857844 -26.296848509430014 -3.8163810779623093 #
coedge $-1 $561 $557 $556 $609 forward $600 $-1 #
edge $-1 $559 -26.296848509430014 $563 26.296848509430014 $556 $648 forward 7 unknown #
coedge $-1 $557 $561 $602 $647 forward $600 $-1 #
vertex $-1 $558 $649 #
straight-curve $-1 0 26.296848509430014 -6.7778568097900687 1 0 0 I I #
point $-1 49.513229773857844 26.296848509430014 -6.7778568097900687 #
vertex $-1 $647 $650 #
straight-curve $-1 0 -26.296848509430014 -6.7778568097900687 -1 0 0 I I #
point $-1 49.513229773857844 -26.296848509430014 -6.7778568097900687 #
face $-1 $651 $594 $15 $-1 $652 reversed single #
coedge $-1 $653 $654 $621 $655 forward $566 $-1 #
coedge $-1 $624 $574 $568 $620 forward $594 $-1 #
edge $-1 $578 -0.34180946101884513 $627 2.6581905389811546 $619 $656 forward 7 unknown #
coedge $-1 $570 $569 $618 $655 reversed $440 $-1 #
coedge $-1 $586 $657 $569 $623 forward $374 $-1 #
edge $-1 $658 -26.13755951484271 $626 -20.613781003187558 $622 $659 forward 7 unknown #
coedge $-1 $660 $619 $570 $625 forward $594 $-1 #
edge $-1 $627 20.613781003187558 $661 26.13755951484271 $624 $662 forward 7 unknown #
vertex $-1 $623 $663 #
vertex $-1 $625 $664 #
straight-curve $-1 -43.989451262202692 0 -3.8163810779623093 0 -1 0 I I #
edge $-1 $588 -26.296848509430014 $630 26.296848509430014 $587 $665 forward 7 unknown #
vertex $-1 $575 $666 #
straight-curve $-1 -23.375670259015134 -26.296848509430014 -0.81638107796230952 1 0 0 I I #
straight-curve $-1 -23.375670259015134 26.296848509430014 -0.81638107796230952 -1 0 0 I I #
edge $-1 $626 -2.6581905389811546 $579 0.34180946101884513 $586 $667 forward 7 unknown #
point $-1 -43.989451262202692 -26.296848509430014 -0.81638107796230952 #
point $-1 -43.989451262202692 26.296848509430014 -0.81638107796230952 #
coedge $-1 $668 $581 $593 $644 forward $590 $-1 #
coedge $-1 $581 $668 $583 $640 reversed $590 $-1 #
straight-curve $-1 49.513229773857844 0 6.7778568097900687 0 1 0 I I #
coedge $-1 $657 $583 $669 $670 reversed $374 $-1 #
edge $-1 $584 -6.7778568097900687 $671 6.7778568097900687 $637 $672 forward 7 unknown #
point $-1 49.513229773857844 26.296848509430014 6.7778568097900687 #
point $-1 -49.513229773857844 26.296848509430014 -0.81638107796230952 #
coedge $-1 $593 $660 $673 $674 reversed $594 $-1 #
edge $-1 $595 -6.7778568097900687 $675 6.7778568097900687 $636 $676 forward 7 unknown #
point $-1 49.513229773857844 -26.296848509430014 6.7778568097900687 #
straight-curve $-1 -49.513229773857844 -26.296848509430014 0 0 0 -1 I I #
edge $-1 $614 -26.296848509430014 $611 26.296848509430014 $602 $677 forward 7 unknown #
straight-curve $-1 49.513229773857844 0 -6.7778568097900687 0 -1 0 I I #
point $-1 -49.513229773857844 26.296848509430014 -6.7778568097900687 #
point $-1 -49.513229773857844 -26.296848509430014 -6.7778568097900687 #
face $-1 $454 $678 $15 $-1 $679 reversed single #
plane-surface $-1 0 -26.296848509430014 0 0 1 0 0 0 1 forward_v I I I I #
coedge $-1 $680 $618 $657 $681 forward $566 $-1 #
coedge $-1 $618 $680 $660 $682 reversed $566 $-1 #
edge $-1 $661 -26.296848509430014 $658 26.296848509430014 $618 $683 forward 7 unknown #
straight-curve $-1 -43.989451262202692 -26.296848509430014 -1.1581905389811546 0 0 -1 I I #
coedge $-1 $622 $639 $653 $681 reversed $374 $-1 #
vertex $-1 $681 $684 #
straight-curve $-1 -23.375670259015134 26.296848509430014 -3.8163810779623093 1 0 0 I I #
coedge $-1 $643 $624 $654 $682 forward $594 $-1 #
vertex $-1 $682 $685 #
straight-curve $-1 -23.375670259015134 -26.296848509430014 -3.8163810779623093 -1 0 0 I I #
point $-1 -43.989451262202692 26.296848509430014 -3.8163810779623093 #
point $-1 -43.989451262202692 -26.296848509430014 -3.8163810779623093 #
straight-curve $-1 -49.513229773857844 0 -0.81638107796230952 0 -1 0 I I #
point $-1 -49.513229773857844 -26.296848509430014 -0.81638107796230952 #
straight-curve $-1 -43.989451262202692 26.296848509430014 -1.1581905389811546 0 0 1 I I #
coedge $-1 $637 $636 $686 $687 reversed $590 $-1 #
coedge $-1 $686 $688 $639 $670 forward $678 $-1 #
edge $-1 $689 -49.513229773857844 $671 49.513229773857844 $639 $690 forward 7 unknown #
vertex $-1 $687 $691 #
straight-curve $-1 49.513229773857844 26.296848509430014 0 0 0 -1 I I #
coedge $-1 $688 $686 $643 $674 forward $678 $-1 #
edge $-1 $675 -49.513229773857844 $692 49.513229773857844 $643 $693 forward 7 unknown #
vertex $-1 $644 $694 #
straight-curve $-1 49.513229773857844 -26.296848509430014 0 0 0 -1 I I #
straight-curve $-1 -49.513229773857844 0 -6.7778568097900687 0 1 0 I I #
loop $-1 $-1 $686 $651 #
plane-surface $-1 0 0 -6.7778568097900687 0 0 1 1 0 0 forward_v I I I I #
coedge $-1 $654 $653 $688 $695 reversed $566 $-1 #
edge $-1 $658 3.8163810779623093 $689 6.7778568097900687 $657 $589 forward 7 unknown #
edge $-1 $661 3.8163810779623093 $692 6.7778568097900687 $654 $646 forward 7 unknown #
straight-curve $-1 -49.513229773857844 0 -3.8163810779623093 0 1 0 I I #
point $-1 -49.513229773857844 26.296848509430014 -3.8163810779623093 #
point $-1 -49.513229773857844 -26.296848509430014 -3.8163810779623093 #
coedge $-1 $673 $669 $668 $687 forward $678 $-1 #
edge $-1 $671 -26.296848509430014 $675 26.296848509430014 $668 $696 forward 7 unknown #
coedge $-1 $669 $673 $680 $695 forward $678 $-1 #
vertex $-1 $670 $697 #
straight-curve $-1 0 26.296848509430014 -6.7778568097900687 1 0 0 I I #
point $-1 49.513229773857844 26.296848509430014 -6.7778568097900687 #
vertex $-1 $695 $698 #
straight-curve $-1 0 -26.296848509430014 -6.7778568097900687 -1 0 0 I I #
point $-1 49.513229773857844 -26.296848509430014 -6.7778568097900687 #
edge $-1 $692 -26.296848509430014 $689 26.296848509430014 $680 $699 forward 7 unknown #
straight-curve $-1 49.513229773857844 0 -6.7778568097900687 0 -1 0 I I #
point $-1 -49.513229773857844 26.296848509430014 -6.7778568097900687 #
point $-1 -49.513229773857844 -26.296848509430014 -6.7778568097900687 #
straight-curve $-1 -49.513229773857844 0 -6.7778568097900687 0 1 0 I I #
End-of-ACIS-data 