500 0 9 0           
7 Unknown 11 ACIS 5.0 NT 24 Thu Mar 25 20:25:57 1999 
-1 9.9999999999999995e-007 1e-010 
body $-1 $9 $-1 $10 #
body $-1 $11 $-1 $12 #
body $-1 $13 $-1 $14 #
body $-1 $15 $-1 $16 #
body $-1 $17 $-1 $18 #
body $-1 $19 $-1 $20 #
body $-1 $21 $-1 $22 #
body $-1 $23 $-1 $24 #
body $-1 $25 $-1 $26 #
lump $-1 $-1 $27 $0 #
transform $-1 1 0 0 0 1 0 0 0 1 45.293130283516952 18.855803690007725 7.5292587377675737 1 rotate no_reflect no_shear #
lump $-1 $-1 $28 $1 #
transform $-1 1 0 0 0 1 0 0 0 1 45.293130283516952 18.855803690007725 7.5292587377675737 1 rotate no_reflect no_shear #
lump $-1 $-1 $29 $2 #
transform $-1 1 0 0 0 1 0 0 0 1 45.293130283516952 18.855803690007725 7.5292587377675737 1 rotate no_reflect no_shear #
lump $-1 $-1 $30 $3 #
transform $-1 1 0 0 0 1 0 0 0 1 45.293130283516952 18.855803690007725 7.5292587377675737 1 rotate no_reflect no_shear #
lump $-1 $-1 $31 $4 #
transform $-1 1 0 0 0 1 0 0 0 1 45.293130283516952 18.855803690007725 7.5292587377675737 1 rotate no_reflect no_shear #
lump $-1 $-1 $32 $5 #
transform $-1 1 0 0 0 1 0 0 0 1 45.293130283516952 18.855803690007725 7.5292587377675737 1 rotate no_reflect no_shear #
lump $-1 $-1 $33 $6 #
transform $-1 1 0 0 0 1 0 0 0 1 45.293130283516952 18.855803690007725 7.5292587377675737 1 rotate no_reflect no_shear #
lump $-1 $-1 $34 $7 #
transform $-1 1 0 0 0 1 0 0 0 1 45.293130283516952 18.855803690007725 7.5292587377675737 1 rotate no_reflect no_shear #
lump $-1 $-1 $35 $8 #
transform $-1 1 0 0 0 1 0 0 0 1 45.293130283516952 18.855803690007725 7.5292587377675737 1 rotate no_reflect no_shear #
shell $-1 $-1 $-1 $36 $-1 $9 #
shell $-1 $-1 $-1 $37 $-1 $11 #
shell $-1 $-1 $-1 $38 $-1 $13 #
shell $-1 $-1 $-1 $39 $-1 $15 #
shell $-1 $-1 $-1 $40 $-1 $17 #
shell $-1 $-1 $-1 $41 $-1 $19 #
shell $-1 $-1 $-1 $42 $-1 $21 #
shell $-1 $-1 $-1 $43 $-1 $23 #
shell $-1 $-1 $-1 $44 $-1 $25 #
face $-1 $45 $46 $27 $-1 $47 forward single #
face $-1 $48 $49 $28 $-1 $50 forward single #
face $-1 $51 $52 $29 $-1 $53 reversed single #
face $-1 $54 $55 $30 $-1 $56 forward single #
face $-1 $57 $58 $31 $-1 $59 forward single #
face $-1 $60 $61 $32 $-1 $62 forward single #
face $-1 $63 $64 $33 $-1 $65 reversed single #
face $-1 $66 $67 $34 $-1 $68 forward single #
face $-1 $69 $70 $35 $-1 $71 forward single #
face $-1 $72 $73 $27 $-1 $74 reversed single #
loop $-1 $-1 $75 $36 #
plane-surface $-1 0 0 7.5292587377675737 0 0 1 1 0 0 forward_v I I I I #
face $-1 $76 $77 $28 $-1 $78 reversed single #
loop $-1 $-1 $79 $37 #
plane-surface $-1 -42.342891109823704 0 -4.1271560423838292 0 0 1 1 0 0 forward_v I I I I #
face $-1 $80 $81 $29 $-1 $82 reversed single #
loop $-1 $-1 $83 $38 #
plane-surface $-1 -19.763132262133634 -84.01810702605556 63.868100428141375 1 0 0 0 0.71933980857756763 -0.69465836192734942 forward_v I I I I #
face $-1 $84 $85 $30 $-1 $86 forward single #
loop $-1 $87 $88 $39 #
cone-surface $-1 -15.871158036706621 -13.960137687209212 2.5794159522525235 0 0.71933980857756763 -0.69465836192734942 1.5 0 0 1 I I 0 1 1.5 forward I I I I #
face $-1 $89 $90 $31 $-1 $91 forward single #
loop $-1 $92 $93 $40 #
cone-surface $-1 -10.033196698566094 -13.960137687209212 2.5794159522525235 0 0.71933980857756763 -0.69465836192734942 1.5 0 0 1 I I 0 1 1.5 forward I I I I #
face $-1 $94 $95 $32 $-1 $96 forward single #
loop $-1 $97 $98 $41 #
cone-surface $-1 -4.1952353604255705 -13.960137687209212 2.5794159522525235 0 0.71933980857756763 -0.69465836192734942 1.5 0 0 1 I I 0 1 1.5 forward I I I I #
face $-1 $99 $100 $33 $-1 $101 reversed single #
loop $-1 $-1 $102 $42 #
plane-surface $-1 15.333579643661864 44.909123290564125 96.272653689449982 1 0 0 0 -0.61566148304635926 -0.78801074757464917 forward_v I I I I #
face $-1 $103 $104 $34 $-1 $105 forward single #
loop $-1 $106 $107 $43 #
cone-surface $-1 17.782119640454191 14.71186008658511 4.094412968769209 0 -0.61566148304635926 -0.78801074757464917 0.5 0 0 1 I I 0 1 0.5 forward I I I I #
face $-1 $108 $109 $35 $-1 $110 forward single #
loop $-1 $111 $112 $44 #
cone-surface $-1 21.454929635642678 14.71186008658511 4.094412968769209 0 -0.61566148304635926 -0.78801074757464917 0.5 0 0 1 I I 0 1 0.5 forward I I I I #
face $-1 $113 $114 $27 $-1 $115 reversed single #
loop $-1 $-1 $116 $45 #
plane-surface $-1 0 0 -7.5292587377675737 0 0 1 1 0 0 forward_v I I I I #
coedge $-1 $117 $118 $119 $120 forward $46 $-1 #
face $-1 $121 $122 $28 $-1 $123 reversed single #
loop $-1 $-1 $124 $48 #
plane-surface $-1 -39.392651936130456 0 -5.8282073900757014 -1 0 0 0 0 1 forward_v I I I I #
coedge $-1 $125 $126 $127 $128 forward $49 $-1 #
face $-1 $129 $130 $29 $-1 $131 reversed single #
loop $-1 $-1 $132 $51 #
plane-surface $-1 -10.033196698566094 -18.855803690007733 0.94159704952155465 0 -0.71933980857756763 0.69465836192734942 1 0 0 forward_v I I I I #
coedge $-1 $133 $134 $135 $136 reversed $52 $-1 #
face $-1 $-1 $137 $30 $-1 $138 forward single #
loop $-1 $139 $140 $54 #
cone-surface $-1 -15.871158036706621 -11.705782224763031 0.40241023941497112 0 0.71933980857756763 -0.69465836192734942 0.75 0 0 1 I I -0.70710678118654757 0.70710678118654757 0.75 forward I I I I #
loop $-1 $-1 $141 $39 #
coedge $-1 $88 $88 $142 $143 reversed $55 $-1 #
face $-1 $-1 $144 $31 $-1 $145 forward single #
loop $-1 $146 $147 $57 #
cone-surface $-1 -10.033196698566094 -11.705782224763031 0.40241023941497112 0 0.71933980857756763 -0.69465836192734942 0.75 0 0 1 I I -0.70710678118654757 0.70710678118654757 0.75 forward I I I I #
loop $-1 $-1 $148 $40 #
coedge $-1 $93 $93 $149 $150 reversed $58 $-1 #
face $-1 $-1 $151 $32 $-1 $152 forward single #
loop $-1 $153 $154 $60 #
cone-surface $-1 -4.1952353604255705 -11.705782224763031 0.40241023941497112 0 0.71933980857756763 -0.69465836192734942 0.75 0 0 1 I I -0.70710678118654757 0.70710678118654757 0.75 forward I I I I #
loop $-1 $-1 $155 $41 #
coedge $-1 $98 $98 $156 $157 reversed $61 $-1 #
face $-1 $158 $159 $33 $-1 $160 reversed single #
loop $-1 $-1 $161 $63 #
plane-surface $-1 19.61852463804842 -10.861348233759898 24.889706780029627 0 0.61566148304635926 0.78801074757464917 1 0 0 forward_v I I I I #
coedge $-1 $162 $163 $164 $165 reversed $64 $-1 #
face $-1 $-1 $166 $34 $-1 $167 forward single #
loop $-1 $168 $169 $66 #
cone-surface $-1 17.782119640454191 14.162397197250201 3.3911325555673244 0 -0.61566148304635926 -0.78801074757464917 0.25 0 0 1 I I -0.70710678118654746 0.70710678118654746 0.25 forward I I I I #
loop $-1 $-1 $170 $43 #
coedge $-1 $107 $107 $171 $172 reversed $67 $-1 #
face $-1 $-1 $173 $35 $-1 $174 forward single #
loop $-1 $175 $176 $69 #
cone-surface $-1 21.454929635642678 14.162397197250201 3.3911325555673244 0 -0.61566148304635926 -0.78801074757464917 0.25 0 0 1 I I -0.70710678118654746 0.70710678118654746 0.25 forward I I I I #
loop $-1 $-1 $177 $44 #
coedge $-1 $112 $112 $178 $179 reversed $70 $-1 #
face $-1 $180 $181 $27 $-1 $182 reversed single #
loop $-1 $-1 $183 $72 #
plane-surface $-1 0 -18.855803690007725 0 0 1 0 0 0 1 forward_v I I I I #
coedge $-1 $184 $185 $186 $187 forward $73 $-1 #
coedge $-1 $188 $75 $189 $190 forward $46 $-1 #
coedge $-1 $75 $188 $191 $192 forward $46 $-1 #
coedge $-1 $193 $194 $75 $120 reversed $195 $-1 #
edge $-1 $196 -18.855803690007725 $197 18.855803690007725 $119 $198 forward 7 unknown #
face $-1 $199 $200 $28 $-1 $201 reversed single #
loop $-1 $-1 $202 $76 #
plane-surface $-1 0 0 -7.5292587377675737 0 0 1 1 0 0 forward_v I I I I #
coedge $-1 $203 $127 $204 $205 reversed $77 $-1 #
coedge $-1 $206 $79 $207 $208 reversed $49 $-1 #
coedge $-1 $79 $206 $209 $210 reversed $49 $-1 #
coedge $-1 $124 $211 $79 $128 reversed $77 $-1 #
edge $-1 $212 -18.855803690007725 $213 18.855803690007725 $127 $214 forward 7 unknown #
face $-1 $215 $216 $29 $-1 $217 forward single #
loop $-1 $-1 $218 $80 #
plane-surface $-1 -0.30326113499855367 -84.01810702605556 63.868100428141375 -1 0 0 0 -0.71933980857756763 0.69465836192734942 forward_v I I I I #
coedge $-1 $219 $220 $221 $222 reversed $81 $-1 #
coedge $-1 $134 $83 $223 $224 reversed $52 $-1 #
coedge $-1 $83 $133 $219 $225 reversed $52 $-1 #
coedge $-1 $221 $226 $83 $136 forward $227 $-1 #
edge $-1 $228 24.404791476303114 $229 30.992453164549126 $135 $230 forward 7 unknown #
loop $-1 $-1 $142 $84 #
plane-surface $-1 -10.033196698566094 -18.855803690007733 0.94159704952155465 0 -0.71933980857756763 0.69465836192734942 1 0 0 forward_v I I I I #
loop $-1 $-1 $231 $54 #
coedge $-1 $140 $140 $141 $232 reversed $85 $-1 #
coedge $-1 $141 $141 $140 $232 forward $87 $-1 #
coedge $-1 $142 $142 $88 $143 forward $137 $-1 #
edge $-1 $233 3.6747732085533313e-016 $233 6.2831853071796004 $142 $234 forward 7 unknown #
loop $-1 $-1 $149 $89 #
plane-surface $-1 -10.033196698566094 -18.855803690007733 0.94159704952155465 0 -0.71933980857756763 0.69465836192734942 1 0 0 forward_v I I I I #
loop $-1 $-1 $235 $57 #
coedge $-1 $147 $147 $148 $236 reversed $90 $-1 #
coedge $-1 $148 $148 $147 $236 forward $92 $-1 #
coedge $-1 $149 $149 $93 $150 forward $144 $-1 #
edge $-1 $237 3.6747732085533313e-016 $237 6.2831853071796004 $149 $238 forward 7 unknown #
loop $-1 $-1 $156 $94 #
plane-surface $-1 -10.033196698566094 -18.855803690007733 0.94159704952155465 0 -0.71933980857756763 0.69465836192734942 1 0 0 forward_v I I I I #
loop $-1 $-1 $239 $60 #
coedge $-1 $154 $154 $155 $240 reversed $95 $-1 #
coedge $-1 $155 $155 $154 $240 forward $97 $-1 #
coedge $-1 $156 $156 $98 $157 forward $151 $-1 #
edge $-1 $241 3.6747732085533313e-016 $241 6.2831853071796004 $156 $242 forward 7 unknown #
face $-1 $243 $244 $33 $-1 $245 reversed single #
loop $-1 $-1 $246 $99 #
plane-surface $-1 23.903469632434977 44.909123290564125 96.272653689449982 -1 0 0 0 0.61566148304635926 0.78801074757464917 forward_v I I I I #
coedge $-1 $247 $248 $249 $250 reversed $100 $-1 #
coedge $-1 $163 $102 $251 $252 reversed $64 $-1 #
coedge $-1 $102 $162 $247 $253 reversed $64 $-1 #
coedge $-1 $249 $254 $102 $165 forward $255 $-1 #
edge $-1 $256 3.598757955274337 $257 11.095550124972927 $164 $258 forward 7 unknown #
loop $-1 $-1 $171 $103 #
plane-surface $-1 19.61852463804842 -10.861348233759898 24.889706780029627 0 0.61566148304635926 0.78801074757464917 1 0 0 forward_v I I I I #
loop $-1 $-1 $259 $66 #
coedge $-1 $169 $169 $170 $260 reversed $104 $-1 #
coedge $-1 $170 $170 $169 $260 forward $106 $-1 #
coedge $-1 $171 $171 $107 $172 forward $166 $-1 #
edge $-1 $261 -2.3182496654064245e-015 $261 6.2831853071795978 $171 $262 forward 7 unknown #
loop $-1 $-1 $178 $108 #
plane-surface $-1 19.61852463804842 -10.861348233759898 24.889706780029627 0 0.61566148304635926 0.78801074757464917 1 0 0 forward_v I I I I #
loop $-1 $-1 $263 $69 #
coedge $-1 $176 $176 $177 $264 reversed $109 $-1 #
coedge $-1 $177 $177 $176 $264 forward $111 $-1 #
coedge $-1 $178 $178 $112 $179 forward $173 $-1 #
edge $-1 $265 -2.3182496654064245e-015 $265 6.2831853071795978 $178 $266 forward 7 unknown #
face $-1 $267 $268 $27 $-1 $269 reversed single #
loop $-1 $-1 $270 $113 #
plane-surface $-1 -45.293130283516952 0 0 1 0 0 0 0 -1 forward_v I I I I #
coedge $-1 $271 $191 $272 $273 forward $114 $-1 #
coedge $-1 $274 $116 $271 $275 forward $73 $-1 #
coedge $-1 $116 $274 $276 $277 forward $73 $-1 #
coedge $-1 $194 $193 $116 $187 reversed $195 $-1 #
edge $-1 $278 -18.855803690007725 $279 18.855803690007725 $186 $280 forward 7 unknown #
coedge $-1 $118 $117 $281 $282 forward $46 $-1 #
coedge $-1 $283 $284 $117 $190 reversed $268 $-1 #
edge $-1 $197 -45.293130283516952 $285 45.293130283516952 $189 $286 forward 7 unknown #
coedge $-1 $183 $287 $118 $192 reversed $114 $-1 #
edge $-1 $288 -45.293130283516952 $196 45.293130283516952 $191 $289 forward 7 unknown #
coedge $-1 $186 $119 $287 $290 forward $195 $-1 #
coedge $-1 $119 $186 $283 $291 reversed $195 $-1 #
loop $-1 $-1 $193 $267 #
vertex $-1 $120 $292 #
vertex $-1 $120 $293 #
straight-curve $-1 45.293130283516952 0 7.5292587377675737 0 1 0 I I #
face $-1 $294 $295 $28 $-1 $296 reversed single #
loop $-1 $-1 $204 $121 #
plane-surface $-1 0 -18.855803690007725 0 0 1 0 0 0 1 forward_v I I I I #
coedge $-1 $297 $298 $203 $299 forward $122 $-1 #
coedge $-1 $211 $124 $202 $299 reversed $77 $-1 #
coedge $-1 $209 $300 $124 $205 forward $200 $-1 #
edge $-1 $301 -4.6151550427297234 $212 -1.2130523473459784 $204 $302 forward 7 unknown #
coedge $-1 $126 $125 $303 $304 reversed $49 $-1 #
coedge $-1 $305 $306 $125 $208 forward $307 $-1 #
edge $-1 $308 -24.1216847286051 $213 -18.221206381218604 $207 $309 forward 7 unknown #
coedge $-1 $310 $204 $126 $210 forward $200 $-1 #
edge $-1 $212 18.221206381218604 $311 24.1216847286051 $209 $312 forward 7 unknown #
coedge $-1 $127 $203 $305 $313 reversed $77 $-1 #
vertex $-1 $210 $314 #
vertex $-1 $208 $315 #
straight-curve $-1 -39.392651936130456 0 -4.1271560423838292 0 1 0 I I #
face $-1 $-1 $227 $29 $-1 $316 reversed single #
loop $-1 $-1 $317 $129 #
plane-surface $-1 0 0 7.5292587377675737 0 0 1 1 0 0 forward_v I I I I #
coedge $-1 $318 $319 $320 $321 reversed $130 $-1 #
coedge $-1 $322 $132 $134 $225 forward $81 $-1 #
coedge $-1 $132 $322 $318 $323 forward $81 $-1 #
coedge $-1 $320 $135 $132 $222 forward $227 $-1 #
edge $-1 $229 -14.746533912850587 $324 4.7133372142844934 $221 $325 forward 7 unknown #
coedge $-1 $326 $327 $133 $224 forward $216 $-1 #
edge $-1 $328 -29.514880616591068 $228 -23.153249823020055 $223 $329 forward 7 unknown #
edge $-1 $229 1.0206786807905858e-014 $328 9.1579273240452963 $134 $330 forward 7 unknown #
coedge $-1 $135 $320 $326 $331 reversed $227 $-1 #
loop $-1 $-1 $320 $215 #
vertex $-1 $331 $332 #
vertex $-1 $136 $333 #
straight-curve $-1 -19.763132262133634 -18.855803690007725 31.934050214070687 0 0 -1 I I #
coedge $-1 $231 $231 $-1 $334 reversed $139 $-1 #
edge $-1 $335 0 $335 6.2831853071796004 $140 $336 forward 7 unknown #
vertex $-1 $143 $337 #
ellipse-curve $-1 -15.871158036706621 -15.674988293222221 4.2354278936445668 0 -0.71933980857756763 0.69465836192734942 1.5 0 0 1 I I #
coedge $-1 $235 $235 $-1 $338 reversed $146 $-1 #
edge $-1 $339 0 $339 6.2831853071796004 $147 $340 forward 7 unknown #
vertex $-1 $150 $341 #
ellipse-curve $-1 -10.033196698566094 -15.674988293222221 4.2354278936445668 0 -0.71933980857756763 0.69465836192734942 1.5 0 0 1 I I #
coedge $-1 $239 $239 $-1 $342 reversed $153 $-1 #
edge $-1 $343 0 $343 6.2831853071796004 $154 $344 forward 7 unknown #
vertex $-1 $157 $345 #
ellipse-curve $-1 -4.1952353604255705 -15.674988293222221 4.2354278936445668 0 -0.71933980857756763 0.69465836192734942 1.5 0 0 1 I I #
face $-1 $-1 $255 $33 $-1 $346 forward single #
loop $-1 $-1 $347 $158 #
plane-surface $-1 0 18.855803690007725 0 0 -1 0 0 0 -1 forward_v I I I I #
coedge $-1 $348 $349 $350 $351 reversed $159 $-1 #
coedge $-1 $352 $161 $163 $253 forward $100 $-1 #
coedge $-1 $161 $352 $348 $353 forward $100 $-1 #
coedge $-1 $350 $164 $161 $250 forward $255 $-1 #
edge $-1 $257 5.5243173246376536 $354 14.094207313410767 $249 $355 forward 7 unknown #
coedge $-1 $356 $357 $162 $252 forward $244 $-1 #
edge $-1 $358 -46.464204192337689 $256 -40.607068106957414 $251 $359 forward 7 unknown #
edge $-1 $257 28.198041489229908 $358 37.711607380015437 $163 $360 forward 7 unknown #
coedge $-1 $164 $350 $356 $361 forward $255 $-1 #
loop $-1 $-1 $350 $243 #
vertex $-1 $252 $362 #
vertex $-1 $165 $363 #
straight-curve $-1 15.333579643661864 22.454561645282062 7.5292587377675773 0 -1 0 I I #
coedge $-1 $259 $259 $-1 $364 reversed $168 $-1 #
edge $-1 $365 0 $365 6.2831853071796004 $169 $366 forward 7 unknown #
vertex $-1 $172 $367 #
ellipse-curve $-1 17.782119640454191 15.107407605158432 4.600690695077434 0 0.61566148304635926 0.78801074757464917 0.5 0 0 1 I I #
coedge $-1 $263 $263 $-1 $368 reversed $175 $-1 #
edge $-1 $369 0 $369 6.2831853071796004 $176 $370 forward 7 unknown #
vertex $-1 $179 $371 #
ellipse-curve $-1 21.454929635642678 15.107407605158432 4.600690695077434 0 0.61566148304635926 0.78801074757464917 0.5 0 0 1 I I #
face $-1 $-1 $195 $27 $-1 $372 reversed single #
loop $-1 $-1 $283 $180 #
plane-surface $-1 0 18.855803690007725 0 0 -1 0 0 0 -1 forward_v I I I I #
coedge $-1 $373 $281 $284 $374 forward $181 $-1 #
coedge $-1 $287 $183 $184 $275 reversed $114 $-1 #
coedge $-1 $281 $373 $183 $273 reversed $181 $-1 #
edge $-1 $288 -7.5292587377675737 $375 7.5292587377675737 $272 $376 forward 7 unknown #
coedge $-1 $185 $184 $373 $377 forward $73 $-1 #
edge $-1 $279 -45.293130283516952 $375 45.293130283516952 $271 $378 forward 7 unknown #
coedge $-1 $284 $283 $185 $277 reversed $268 $-1 #
edge $-1 $379 -45.293130283516952 $278 45.293130283516952 $276 $380 forward 7 unknown #
vertex $-1 $187 $381 #
vertex $-1 $290 $382 #
straight-curve $-1 45.293130283516952 0 -7.5292587377675737 0 -1 0 I I #
coedge $-1 $270 $272 $188 $282 reversed $181 $-1 #
edge $-1 $285 -18.855803690007725 $288 18.855803690007725 $281 $383 forward 7 unknown #
coedge $-1 $276 $189 $194 $291 forward $268 $-1 #
coedge $-1 $189 $276 $270 $374 reversed $268 $-1 #
vertex $-1 $190 $384 #
straight-curve $-1 0 18.855803690007725 7.5292587377675737 -1 0 0 I I #
coedge $-1 $191 $271 $193 $290 reversed $114 $-1 #
vertex $-1 $282 $385 #
straight-curve $-1 0 -18.855803690007725 7.5292587377675737 1 0 0 I I #
edge $-1 $196 -7.5292587377675737 $279 7.5292587377675737 $193 $386 forward 7 unknown #
edge $-1 $197 -7.5292587377675737 $278 7.5292587377675737 $194 $387 forward 7 unknown #
point $-1 45.293130283516952 -18.855803690007725 7.5292587377675737 #
point $-1 45.293130283516952 18.855803690007725 7.5292587377675737 #
face $-1 $-1 $307 $28 $-1 $388 reversed single #
loop $-1 $-1 $303 $199 #
plane-surface $-1 -45.293130283516952 0 0 1 0 0 0 0 -1 forward_v I I I I #
coedge $-1 $389 $202 $300 $390 forward $122 $-1 #
coedge $-1 $202 $389 $391 $392 forward $122 $-1 #
edge $-1 $393 -18.855803690007725 $301 18.855803690007725 $202 $394 forward 7 unknown #
coedge $-1 $204 $310 $297 $390 reversed $200 $-1 #
vertex $-1 $390 $395 #
straight-curve $-1 -39.392651936130456 -18.855803690007725 -2.9141036950378507 0 0 1 I I #
coedge $-1 $396 $397 $206 $304 forward $295 $-1 #
edge $-1 $311 -18.855803690007725 $308 18.855803690007725 $303 $398 forward 7 unknown #
coedge $-1 $391 $207 $211 $313 forward $307 $-1 #
coedge $-1 $207 $391 $396 $399 reversed $307 $-1 #
loop $-1 $-1 $305 $294 #
vertex $-1 $399 $400 #
straight-curve $-1 -21.171445554911852 18.855803690007725 -4.1271560423838292 1 0 0 I I #
coedge $-1 $300 $209 $397 $401 forward $200 $-1 #
vertex $-1 $401 $402 #
straight-curve $-1 -21.171445554911852 -18.855803690007725 -4.1271560423838292 -1 0 0 I I #
edge $-1 $213 1.2130523473459784 $393 4.6151550427297234 $305 $403 forward 7 unknown #
point $-1 -39.392651936130456 -18.855803690007725 -4.1271560423838292 #
point $-1 -39.392651936130456 18.855803690007725 -4.1271560423838292 #
plane-surface $-1 0 -18.855803690007725 0 0 1 0 0 0 1 forward_v I I I I #
coedge $-1 $327 $326 $319 $404 forward $216 $-1 #
coedge $-1 $319 $218 $220 $323 reversed $130 $-1 #
coedge $-1 $218 $318 $317 $404 reversed $130 $-1 #
coedge $-1 $226 $221 $218 $321 forward $227 $-1 #
edge $-1 $324 -30.992453164549126 $405 -24.404791476303114 $320 $406 forward 7 unknown #
coedge $-1 $220 $219 $327 $407 reversed $81 $-1 #
edge $-1 $408 -9.1579273240452963 $324 -1.0206786807905858e-014 $318 $409 forward 7 unknown #
vertex $-1 $222 $410 #
straight-curve $-1 -5.016598349283047 -18.855803690007725 0.94159704952156176 1 0 0 I I #
coedge $-1 $317 $223 $226 $331 forward $216 $-1 #
coedge $-1 $223 $317 $322 $407 forward $216 $-1 #
vertex $-1 $224 $411 #
straight-curve $-1 -19.763132262133634 -42.00905351302778 7.5292587377675737 0 -1 0 I I #
straight-curve $-1 -19.763132262133634 -18.855803690007733 0.94159704952155465 0 0.69465836192734942 0.71933980857756763 I I #
edge $-1 $228 -19.763132262133634 $405 -0.30326113499855367 $226 $412 forward 7 unknown #
point $-1 -19.763132262133634 -18.855803690007725 7.5292587377675737 #
point $-1 -19.763132262133634 -18.855803690007725 0.94159704952156198 #
edge $-1 $413 1 $413 0 $231 $-1 forward 7 unknown #
vertex $-1 $232 $414 #
ellipse-curve $-1 -15.871158036706621 -12.245287081196206 0.92340401086048318 0 -0.71933980857756763 0.69465836192734942 1.5 0 0 1 I I #
point $-1 -14.371158036706621 -15.674988293222217 4.2354278936445642 #
edge $-1 $415 1 $415 0 $235 $-1 forward 7 unknown #
vertex $-1 $236 $416 #
ellipse-curve $-1 -10.033196698566094 -12.245287081196206 0.92340401086048318 0 -0.71933980857756763 0.69465836192734942 1.5 0 0 1 I I #
point $-1 -8.5331966985660941 -15.674988293222217 4.2354278936445642 #
edge $-1 $417 1 $417 0 $239 $-1 forward 7 unknown #
vertex $-1 $240 $418 #
ellipse-curve $-1 -4.1952353604255705 -12.245287081196206 0.92340401086048318 0 -0.71933980857756763 0.69465836192734942 1.5 0 0 1 I I #
point $-1 -2.6952353604255705 -15.674988293222217 4.2354278936445642 #
plane-surface $-1 0 0 7.5292587377675737 0 0 1 1 0 0 forward_v I I I I #
coedge $-1 $357 $356 $349 $419 forward $244 $-1 #
coedge $-1 $349 $246 $248 $353 reversed $159 $-1 #
coedge $-1 $246 $348 $347 $419 reversed $159 $-1 #
coedge $-1 $254 $249 $246 $351 forward $255 $-1 #
edge $-1 $354 -11.095550124972927 $420 -3.598757955274337 $350 $421 forward 7 unknown #
coedge $-1 $248 $247 $357 $422 reversed $100 $-1 #
edge $-1 $423 -37.711607380015437 $354 -28.198041489229908 $348 $424 forward 7 unknown #
vertex $-1 $250 $425 #
straight-curve $-1 9.8092623190242101 11.359011520309139 7.5292587377675719 1 0 0 I I #
coedge $-1 $347 $251 $254 $361 reversed $244 $-1 #
coedge $-1 $251 $347 $352 $422 forward $244 $-1 #
vertex $-1 $252 $426 #
straight-curve $-1 15.333579643661864 18.855803690007725 48.136326844724991 0 0 1 I I #
straight-curve $-1 15.333579643661864 -10.861348233759898 24.889706780029627 0 0.78801074757464917 -0.61566148304635926 I I #
edge $-1 $420 -23.903469632434977 $256 -15.333579643661864 $356 $427 forward 7 unknown #
point $-1 15.333579643661864 18.855803690007725 7.5292587377675737 #
point $-1 15.333579643661864 11.359011520309135 7.5292587377675737 #
edge $-1 $428 1 $428 0 $259 $-1 forward 7 unknown #
vertex $-1 $260 $429 #
ellipse-curve $-1 17.782119640454191 14.31631256801179 3.5881352424609867 0 0.61566148304635926 0.78801074757464917 0.5 0 0 1 I I #
point $-1 18.282119640454191 15.107407605158429 4.6006906950774313 #
edge $-1 $430 1 $430 0 $263 $-1 forward 7 unknown #
vertex $-1 $264 $431 #
ellipse-curve $-1 21.454929635642678 14.31631256801179 3.5881352424609867 0 0.61566148304635926 0.78801074757464917 0.5 0 0 1 I I #
point $-1 21.954929635642678 15.107407605158429 4.6006906950774313 #
plane-surface $-1 45.293130283516952 0 0 -1 0 0 0 0 1 forward_v I I I I #
coedge $-1 $272 $270 $274 $377 reversed $181 $-1 #
edge $-1 $285 -7.5292587377675737 $379 7.5292587377675737 $284 $432 forward 7 unknown #
vertex $-1 $377 $433 #
straight-curve $-1 -45.293130283516952 -18.855803690007725 0 0 0 -1 I I #
edge $-1 $375 -18.855803690007725 $379 18.855803690007725 $373 $434 forward 7 unknown #
straight-curve $-1 0 -18.855803690007725 -7.5292587377675737 -1 0 0 I I #
vertex $-1 $277 $435 #
straight-curve $-1 0 18.855803690007725 -7.5292587377675737 1 0 0 I I #
point $-1 45.293130283516952 18.855803690007725 -7.5292587377675737 #
point $-1 45.293130283516952 -18.855803690007725 -7.5292587377675737 #
straight-curve $-1 -45.293130283516952 0 7.5292587377675737 0 -1 0 I I #
point $-1 -45.293130283516952 18.855803690007725 7.5292587377675737 #
point $-1 -45.293130283516952 -18.855803690007725 7.5292587377675737 #
straight-curve $-1 45.293130283516952 -18.855803690007725 0 0 0 -1 I I #
straight-curve $-1 45.293130283516952 18.855803690007725 0 0 0 -1 I I #
plane-surface $-1 0 18.855803690007725 0 0 -1 0 0 0 -1 forward_v I I I I #
coedge $-1 $298 $297 $436 $437 forward $122 $-1 #
edge $-1 $301 39.392651936130456 $438 45.293130283516952 $300 $439 forward 7 unknown #
coedge $-1 $306 $305 $298 $392 reversed $307 $-1 #
edge $-1 $440 -45.293130283516952 $393 -39.392651936130456 $391 $441 forward 7 unknown #
vertex $-1 $313 $442 #
straight-curve $-1 -39.392651936130456 0 -7.5292587377675737 0 -1 0 I I #
point $-1 -39.392651936130456 -18.855803690007725 -7.5292587377675737 #
coedge $-1 $436 $303 $306 $399 forward $295 $-1 #
coedge $-1 $303 $436 $310 $401 reversed $295 $-1 #
straight-curve $-1 -45.293130283516952 0 -4.1271560423838292 0 1 0 I I #
edge $-1 $308 4.1271560423838292 $440 7.5292587377675737 $306 $443 forward 7 unknown #
point $-1 -45.293130283516952 18.855803690007725 -4.1271560423838292 #
edge $-1 $311 4.1271560423838292 $438 7.5292587377675737 $397 $444 forward 7 unknown #
point $-1 -45.293130283516952 -18.855803690007725 -4.1271560423838292 #
straight-curve $-1 -39.392651936130456 18.855803690007725 -2.9141036950378507 0 0 -1 I I #
edge $-1 $405 23.153249823020055 $408 29.514880616591068 $317 $445 forward 7 unknown #
vertex $-1 $321 $446 #
straight-curve $-1 -0.30326113499855367 -18.855803690007725 31.934050214070687 0 0 1 I I #
edge $-1 $408 -4.7133372142844934 $328 14.746533912850587 $327 $447 forward 7 unknown #
vertex $-1 $407 $448 #
straight-curve $-1 -0.30326113499855367 -18.855803690007733 0.94159704952155465 0 -0.69465836192734942 -0.71933980857756763 I I #
point $-1 -0.30326113499855367 -18.855803690007725 0.94159704952156198 #
point $-1 -19.763132262133634 -12.494172896436712 7.5292587377675746 #
straight-curve $-1 0 -18.855803690007725 7.5292587377675737 1 0 0 I I #
vertex $-1 $334 $449 #
point $-1 -14.371158036706621 -12.245287081196206 0.92340401086048318 #
vertex $-1 $338 $450 #
point $-1 -8.5331966985660941 -12.245287081196206 0.92340401086048318 #
vertex $-1 $342 $451 #
point $-1 -2.6952353604255705 -12.245287081196206 0.92340401086048318 #
edge $-1 $420 40.607068106957414 $423 46.464204192337689 $347 $452 forward 7 unknown #
vertex $-1 $361 $453 #
straight-curve $-1 23.903469632434977 22.454561645282062 7.5292587377675773 0 1 0 I I #
edge $-1 $423 -14.094207313410767 $358 -5.5243173246376536 $357 $454 forward 7 unknown #
vertex $-1 $422 $455 #
straight-curve $-1 23.903469632434977 -10.861348233759898 24.889706780029627 0 -0.78801074757464917 0.61566148304635926 I I #
point $-1 23.903469632434977 11.359011520309135 7.5292587377675737 #
point $-1 15.333579643661864 18.855803690007722 1.6721226523872978 #
straight-curve $-1 0 18.855803690007725 7.5292587377675737 -1 0 0 I I #
vertex $-1 $364 $456 #
point $-1 18.282119640454191 14.31631256801179 3.5881352424609867 #
vertex $-1 $368 $457 #
point $-1 21.954929635642678 14.31631256801179 3.5881352424609867 #
straight-curve $-1 -45.293130283516952 18.855803690007725 0 0 0 -1 I I #
point $-1 -45.293130283516952 -18.855803690007725 -7.5292587377675737 #
straight-curve $-1 -45.293130283516952 0 -7.5292587377675737 0 1 0 I I #
point $-1 -45.293130283516952 18.855803690007725 -7.5292587377675737 #
coedge $-1 $397 $396 $389 $437 reversed $295 $-1 #
edge $-1 $438 -18.855803690007725 $440 18.855803690007725 $436 $458 forward 7 unknown #
vertex $-1 $437 $459 #
straight-curve $-1 0 -18.855803690007725 -7.5292587377675737 -1 0 0 I I #
vertex $-1 $392 $460 #
straight-curve $-1 0 18.855803690007725 -7.5292587377675737 1 0 0 I I #
point $-1 -39.392651936130456 18.855803690007725 -7.5292587377675737 #
straight-curve $-1 -45.293130283516952 18.855803690007725 0 0 0 -1 I I #
straight-curve $-1 -45.293130283516952 -18.855803690007725 0 0 0 -1 I I #
straight-curve $-1 -0.30326113499855367 -42.00905351302778 7.5292587377675737 0 1 0 I I #
point $-1 -0.30326113499855367 -18.855803690007725 7.5292587377675737 #
straight-curve $-1 -5.016598349283047 -12.494172896436714 7.5292587377675737 -1 0 0 I I #
point $-1 -0.30326113499855367 -12.494172896436712 7.5292587377675746 #
point $-1 -15.871158036706621 -11.166277368329855 -0.11858353203054095 #
point $-1 -10.033196698566094 -11.166277368329855 -0.11858353203054095 #
point $-1 -4.1952353604255705 -11.166277368329855 -0.11858353203054095 #
straight-curve $-1 23.903469632434977 18.855803690007725 48.136326844724991 0 0 -1 I I #
point $-1 23.903469632434977 18.855803690007725 7.5292587377675737 #
straight-curve $-1 9.8092623190242101 18.855803690007725 1.6721226523872943 -1 0 0 I I #
point $-1 23.903469632434977 18.855803690007722 1.6721226523872978 #
point $-1 17.782119640454191 14.008481826488611 3.1941298686736621 #
point $-1 21.454929635642678 14.008481826488611 3.1941298686736621 #
straight-curve $-1 -45.293130283516952 0 -7.5292587377675737 0 1 0 I I #
point $-1 -45.293130283516952 -18.855803690007725 -7.5292587377675737 #
point $-1 -45.293130283516952 18.855803690007725 -7.5292587377675737 #
End-of-ACIS-data 