500 0 8 0           
7 Unknown 11 ACIS 5.0 NT 24 Fri Mar 26 02:58:04 1999 
-1 9.9999999999999995e-007 1e-010 
body $-1 $8 $-1 $9 #
body $-1 $10 $-1 $11 #
body $-1 $12 $-1 $13 #
body $-1 $14 $-1 $15 #
body $-1 $16 $-1 $17 #
body $-1 $18 $-1 $19 #
body $-1 $20 $-1 $21 #
body $-1 $22 $-1 $23 #
lump $-1 $-1 $24 $0 #
transform $-1 1 0 0 0 1 0 0 0 1 55.957518234809413 37.469865996081424 15.599045870105469 1 rotate no_reflect no_shear #
lump $-1 $-1 $25 $1 #
transform $-1 1 0 0 0 1 0 0 0 1 55.957518234809413 37.469865996081424 15.599045870105469 1 rotate no_reflect no_shear #
lump $-1 $-1 $26 $2 #
transform $-1 1 0 0 0 1 0 0 0 1 55.957518234809413 37.469865996081424 15.599045870105469 1 rotate no_reflect no_shear #
lump $-1 $-1 $27 $3 #
transform $-1 1 0 0 0 1 0 0 0 1 55.957518234809413 37.469865996081424 15.599045870105469 1 rotate no_reflect no_shear #
lump $-1 $-1 $28 $4 #
transform $-1 1 0 0 0 1 0 0 0 1 55.957518234809413 37.469865996081424 15.599045870105469 1 rotate no_reflect no_shear #
lump $-1 $-1 $29 $5 #
transform $-1 1 0 0 0 1 0 0 0 1 55.957518234809413 37.469865996081424 15.599045870105469 1 rotate no_reflect no_shear #
lump $-1 $-1 $30 $6 #
transform $-1 1 0 0 0 1 0 0 0 1 55.957518234809413 37.469865996081424 15.599045870105469 1 rotate no_reflect no_shear #
lump $-1 $-1 $31 $7 #
transform $-1 1 0 0 0 1 0 0 0 1 55.957518234809413 37.469865996081424 15.599045870105469 1 rotate no_reflect no_shear #
shell $-1 $-1 $-1 $32 $-1 $8 #
shell $-1 $-1 $-1 $33 $-1 $10 #
shell $-1 $-1 $-1 $34 $-1 $12 #
shell $-1 $-1 $-1 $35 $-1 $14 #
shell $-1 $-1 $-1 $36 $-1 $16 #
shell $-1 $-1 $-1 $37 $-1 $18 #
shell $-1 $-1 $-1 $38 $-1 $20 #
shell $-1 $-1 $-1 $39 $-1 $22 #
face $-1 $40 $41 $24 $-1 $42 forward single #
face $-1 $43 $44 $25 $-1 $45 forward single #
face $-1 $46 $47 $26 $-1 $48 reversed single #
face $-1 $49 $50 $27 $-1 $51 forward single #
face $-1 $52 $53 $28 $-1 $54 forward single #
face $-1 $55 $56 $29 $-1 $57 reversed single #
face $-1 $58 $59 $30 $-1 $60 forward single #
face $-1 $61 $62 $31 $-1 $63 forward single #
face $-1 $64 $65 $24 $-1 $66 reversed single #
loop $-1 $-1 $67 $32 #
plane-surface $-1 0 0 15.599045870105469 0 0 1 1 0 0 forward_v I I I I #
face $-1 $68 $69 $25 $-1 $70 forward single #
loop $-1 $-1 $71 $33 #
plane-surface $-1 0 -37.469865996081424 0 0 1 0 0 0 1 forward_v I I I I #
face $-1 $72 $73 $26 $-1 $74 reversed single #
loop $-1 $-1 $75 $34 #
plane-surface $-1 86.157196459767533 -8.8418720195794673 160.26629120150298 0 -1 0 -0.82903758062907751 0 -0.55919289150049634 forward_v I I I I #
face $-1 $76 $77 $27 $-1 $78 forward single #
loop $-1 $79 $80 $35 #
cone-surface $-1 51.641243558928629 -15.02197313831828 9.772648584730204 -0.82903758062907751 0 -0.55919289150049634 0.55919289150049634 0 -0.82903758062907751 1 I I 0 1 1 forward I I I I #
face $-1 $81 $82 $28 $-1 $83 forward single #
loop $-1 $84 $85 $36 #
cone-surface $-1 51.641243558928629 -11.313912467074992 9.772648584730204 -0.82903758062907751 0 -0.55919289150049634 0.55919289150049634 0 -0.82903758062907751 1 I I 0 1 1 forward I I I I #
face $-1 $86 $87 $29 $-1 $88 reversed single #
loop $-1 $-1 $89 $37 #
plane-surface $-1 -121.73952702183249 -17.494013585813804 92.033041730430625 0 1 0 -0.5877852598018023 0 0.80901698891910034 forward_v I I I I #
face $-1 $90 $91 $30 $-1 $92 forward single #
loop $-1 $93 $94 $38 #
cone-surface $-1 -45.940350501378809 -15.379402890567398 8.1205152546874526 0.5877852598018023 0 -0.80901698891910034 0.40450849445955017 0 0.29389262990090115 1 I I 0 1 0.5 forward I I I I #
face $-1 $95 $96 $31 $-1 $97 forward single #
loop $-1 $98 $99 $39 #
cone-surface $-1 -45.940350501378809 -12.207486847697787 8.1205152546874526 0.5877852598018023 0 -0.80901698891910034 0.40450849445955017 0 0.29389262990090115 1 I I 0 1 0.5 forward I I I I #
face $-1 $100 $101 $24 $-1 $102 reversed single #
loop $-1 $-1 $103 $40 #
plane-surface $-1 0 0 -15.599045870105469 0 0 1 1 0 0 forward_v I I I I #
coedge $-1 $104 $105 $106 $107 forward $41 $-1 #
face $-1 $108 $109 $25 $-1 $110 reversed single #
loop $-1 $-1 $111 $43 #
plane-surface $-1 0 0 15.599045870105469 0 0 1 1 0 0 forward_v I I I I #
coedge $-1 $112 $113 $114 $115 forward $44 $-1 #
face $-1 $116 $117 $26 $-1 $118 reversed single #
loop $-1 $-1 $119 $46 #
plane-surface $-1 -6.6245746110202361 -13.167942802696636 97.684198355673331 0.82903758062907751 0 0.55919289150049634 0.55919289150049634 0 -0.82903758062907751 forward_v I I I I #
coedge $-1 $120 $121 $122 $123 reversed $47 $-1 #
face $-1 $-1 $124 $27 $-1 $125 forward single #
loop $-1 $126 $127 $49 #
cone-surface $-1 50.517930148950001 -15.02197313831828 9.0149641462146537 -0.82903758062907751 0 -0.55919289150049634 0.27959644575024817 0 -0.41451879031453875 1 I I -0.70710678118654746 0.70710678118654746 0.5 forward I I I I #
loop $-1 $-1 $128 $35 #
coedge $-1 $80 $80 $129 $130 reversed $50 $-1 #
face $-1 $-1 $131 $28 $-1 $132 forward single #
loop $-1 $133 $134 $52 #
cone-surface $-1 50.517930148950001 -11.313912467074992 9.0149641462146537 -0.82903758062907751 0 -0.55919289150049634 0.27959644575024817 0 -0.41451879031453875 1 I I -0.70710678118654746 0.70710678118654746 0.5 forward I I I I #
loop $-1 $-1 $135 $36 #
coedge $-1 $85 $85 $136 $137 reversed $53 $-1 #
face $-1 $138 $139 $29 $-1 $140 reversed single #
loop $-1 $-1 $141 $55 #
plane-surface $-1 -55.957518234809413 -13.793444869132593 1.4918759110083073 -0.5877852598018023 0 0.80901698891910034 0.80901698891910034 0 0.5877852598018023 forward_v I I I I #
coedge $-1 $142 $143 $144 $145 reversed $56 $-1 #
face $-1 $-1 $146 $30 $-1 $147 forward single #
loop $-1 $148 $149 $58 #
cone-surface $-1 -45.484663103852483 -15.379402890567398 7.4933153715882401 0.5877852598018023 0 -0.80901698891910034 0.20225424722977509 0 0.14694631495045057 1 I I -0.70710678118654624 0.70710678118654879 0.25 forward I I I I #
loop $-1 $-1 $150 $38 #
coedge $-1 $94 $94 $151 $152 reversed $59 $-1 #
face $-1 $-1 $153 $31 $-1 $154 forward single #
loop $-1 $155 $156 $61 #
cone-surface $-1 -45.484663103852483 -12.207486847697787 7.4933153715882401 0.5877852598018023 0 -0.80901698891910034 0.20225424722977509 0 0.14694631495045057 1 I I -0.70710678118654624 0.70710678118654879 0.25 forward I I I I #
loop $-1 $-1 $157 $39 #
coedge $-1 $99 $99 $158 $159 reversed $62 $-1 #
face $-1 $160 $161 $24 $-1 $162 reversed single #
loop $-1 $-1 $163 $64 #
plane-surface $-1 0 -37.469865996081424 0 0 1 0 0 0 1 forward_v I I I I #
coedge $-1 $164 $165 $166 $167 forward $65 $-1 #
coedge $-1 $168 $67 $169 $170 forward $41 $-1 #
coedge $-1 $67 $168 $171 $172 forward $41 $-1 #
coedge $-1 $173 $174 $67 $107 reversed $175 $-1 #
edge $-1 $176 -37.469865996081424 $177 37.469865996081424 $106 $178 forward 7 unknown #
face $-1 $179 $180 $25 $-1 $181 reversed single #
loop $-1 $-1 $182 $68 #
plane-surface $-1 -55.957518234809413 0 0 1 0 0 0 0 -1 forward_v I I I I #
coedge $-1 $183 $184 $113 $185 forward $69 $-1 #
coedge $-1 $186 $71 $187 $188 reversed $44 $-1 #
coedge $-1 $71 $186 $111 $185 reversed $44 $-1 #
coedge $-1 $189 $190 $71 $115 reversed $191 $-1 #
edge $-1 $192 -15.599045870105469 $193 15.599045870105469 $114 $194 forward 7 unknown #
face $-1 $195 $196 $26 $-1 $197 forward single #
loop $-1 $-1 $198 $72 #
plane-surface $-1 86.157196459767533 -17.494013585813804 160.26629120150298 0 1 0 0.82903758062907751 0 0.55919289150049634 forward_v I I I I #
coedge $-1 $199 $200 $201 $202 reversed $73 $-1 #
coedge $-1 $121 $75 $203 $204 reversed $47 $-1 #
coedge $-1 $75 $120 $199 $205 reversed $47 $-1 #
coedge $-1 $201 $206 $75 $123 forward $196 $-1 #
edge $-1 $207 -12.878920004925646 $208 -5.6639598924922723 $122 $209 forward 7 unknown #
loop $-1 $-1 $129 $76 #
plane-surface $-1 -6.6245746110202361 -13.167942802696636 97.684198355673331 0.82903758062907751 0 0.55919289150049634 0.55919289150049634 0 -0.82903758062907751 forward_v I I I I #
loop $-1 $-1 $210 $49 #
coedge $-1 $127 $127 $128 $211 reversed $77 $-1 #
coedge $-1 $128 $128 $127 $211 forward $79 $-1 #
coedge $-1 $129 $129 $80 $130 forward $124 $-1 #
edge $-1 $212 0 $212 6.2831853071796004 $129 $213 forward 7 unknown #
loop $-1 $-1 $136 $81 #
plane-surface $-1 -6.6245746110202361 -13.167942802696636 97.684198355673331 0.82903758062907751 0 0.55919289150049634 0.55919289150049634 0 -0.82903758062907751 forward_v I I I I #
loop $-1 $-1 $214 $52 #
coedge $-1 $134 $134 $135 $215 reversed $82 $-1 #
coedge $-1 $135 $135 $134 $215 forward $84 $-1 #
coedge $-1 $136 $136 $85 $137 forward $131 $-1 #
edge $-1 $216 0 $216 6.2831853071796004 $136 $217 forward 7 unknown #
face $-1 $218 $219 $29 $-1 $220 reversed single #
loop $-1 $-1 $221 $86 #
plane-surface $-1 -121.73952702183249 -10.09287615245138 92.033041730430625 0 -1 0 0.5877852598018023 0 -0.80901698891910034 forward_v I I I I #
coedge $-1 $222 $223 $224 $225 reversed $87 $-1 #
coedge $-1 $143 $89 $226 $227 reversed $56 $-1 #
coedge $-1 $89 $142 $222 $228 reversed $56 $-1 #
coedge $-1 $224 $229 $89 $145 forward $230 $-1 #
edge $-1 $231 4.9122452761068303 $232 24.329098577816282 $144 $233 forward 7 unknown #
loop $-1 $-1 $151 $90 #
plane-surface $-1 -55.957518234809413 -13.793444869132593 1.4918759110083073 -0.5877852598018023 0 0.80901698891910034 0.80901698891910034 0 0.5877852598018023 forward_v I I I I #
loop $-1 $-1 $234 $58 #
coedge $-1 $149 $149 $150 $235 reversed $91 $-1 #
coedge $-1 $150 $150 $149 $235 forward $93 $-1 #
coedge $-1 $151 $151 $94 $152 forward $146 $-1 #
edge $-1 $236 0 $236 6.2831853071796004 $151 $237 forward 7 unknown #
loop $-1 $-1 $158 $95 #
plane-surface $-1 -55.957518234809413 -13.793444869132593 1.4918759110083073 -0.5877852598018023 0 0.80901698891910034 0.80901698891910034 0 0.5877852598018023 forward_v I I I I #
loop $-1 $-1 $238 $61 #
coedge $-1 $156 $156 $157 $239 reversed $96 $-1 #
coedge $-1 $157 $157 $156 $239 forward $98 $-1 #
coedge $-1 $158 $158 $99 $159 forward $153 $-1 #
edge $-1 $240 0 $240 6.2831853071796004 $158 $241 forward 7 unknown #
face $-1 $242 $243 $24 $-1 $244 reversed single #
loop $-1 $-1 $245 $100 #
plane-surface $-1 -55.957518234809413 0 0 1 0 0 0 0 -1 forward_v I I I I #
coedge $-1 $246 $171 $247 $248 forward $101 $-1 #
coedge $-1 $249 $103 $246 $250 forward $65 $-1 #
coedge $-1 $103 $249 $251 $252 forward $65 $-1 #
coedge $-1 $174 $173 $103 $167 reversed $175 $-1 #
edge $-1 $253 -37.469865996081424 $254 37.469865996081424 $166 $255 forward 7 unknown #
coedge $-1 $105 $104 $256 $257 forward $41 $-1 #
coedge $-1 $258 $259 $104 $170 reversed $243 $-1 #
edge $-1 $177 -55.957518234809413 $260 55.957518234809413 $169 $261 forward 7 unknown #
coedge $-1 $163 $262 $105 $172 reversed $101 $-1 #
edge $-1 $263 -55.957518234809413 $176 55.957518234809413 $171 $264 forward 7 unknown #
coedge $-1 $166 $106 $262 $265 forward $175 $-1 #
coedge $-1 $106 $166 $258 $266 reversed $175 $-1 #
loop $-1 $-1 $173 $242 #
vertex $-1 $107 $267 #
vertex $-1 $107 $268 #
straight-curve $-1 55.957518234809413 0 15.599045870105469 0 1 0 I I #
face $-1 $269 $191 $25 $-1 $270 reversed single #
loop $-1 $-1 $271 $108 #
plane-surface $-1 -51.864881208511321 -57.445718406349044 0 0 1 0 0 0 1 forward_v I I I I #
coedge $-1 $272 $273 $186 $274 forward $109 $-1 #
coedge $-1 $275 $111 $273 $276 forward $69 $-1 #
coedge $-1 $111 $275 $189 $277 forward $69 $-1 #
edge $-1 $192 47.772244182213228 $278 55.957518234809413 $111 $279 forward 7 unknown #
coedge $-1 $113 $112 $182 $274 reversed $44 $-1 #
coedge $-1 $280 $281 $112 $188 forward $282 $-1 #
edge $-1 $283 -55.957518234809413 $193 -47.772244182213228 $187 $284 forward 7 unknown #
coedge $-1 $285 $114 $184 $277 reversed $191 $-1 #
coedge $-1 $114 $285 $280 $286 reversed $191 $-1 #
loop $-1 $-1 $285 $179 #
vertex $-1 $185 $287 #
vertex $-1 $286 $288 #
straight-curve $-1 -47.772244182213228 -37.469865996081424 0 0 0 -1 I I #
face $-1 $-1 $289 $26 $-1 $290 reversed single #
loop $-1 $-1 $122 $116 #
plane-surface $-1 0 0 15.599045870105469 0 0 1 1 0 0 forward_v I I I I #
coedge $-1 $291 $292 $293 $294 reversed $117 $-1 #
coedge $-1 $295 $119 $121 $205 forward $73 $-1 #
coedge $-1 $119 $295 $291 $296 forward $73 $-1 #
coedge $-1 $293 $122 $119 $202 forward $196 $-1 #
edge $-1 $208 2.2579006182311492 $297 10.910042184465485 $201 $298 forward 7 unknown #
coedge $-1 $299 $300 $120 $204 forward $289 $-1 #
edge $-1 $301 -75.230718315865929 $207 -64.53409973064602 $203 $302 forward 7 unknown #
edge $-1 $208 99.012583269483741 $301 111.91503646961883 $121 $303 forward 7 unknown #
coedge $-1 $122 $293 $299 $304 forward $196 $-1 #
vertex $-1 $204 $305 #
vertex $-1 $123 $306 #
straight-curve $-1 43.078598229883767 -8.8418720195794673 15.599045870105471 -1 0 0 I I #
coedge $-1 $210 $210 $-1 $307 reversed $126 $-1 #
edge $-1 $308 0 $308 6.2831853071796004 $127 $309 forward 7 unknown #
vertex $-1 $130 $310 #
ellipse-curve $-1 52.350038178592733 -15.02197313831828 10.250736577495513 0.82903758062907751 0 0.55919289150049634 0.55919289150049634 0 -0.82903758062907751 1 I I #
coedge $-1 $214 $214 $-1 $311 reversed $133 $-1 #
edge $-1 $312 0 $312 6.2831853071796004 $134 $313 forward 7 unknown #
vertex $-1 $137 $314 #
ellipse-curve $-1 52.350038178592733 -11.313912467074992 10.250736577495513 0.82903758062907751 0 0.55919289150049634 0.55919289150049634 0 -0.82903758062907751 1 I I #
face $-1 $-1 $230 $29 $-1 $315 forward single #
loop $-1 $-1 $316 $138 #
plane-surface $-1 -55.957518234809413 0 0 1 0 0 0 0 -1 forward_v I I I I #
coedge $-1 $317 $318 $319 $320 reversed $139 $-1 #
coedge $-1 $321 $141 $143 $228 forward $87 $-1 #
coedge $-1 $141 $321 $317 $322 forward $87 $-1 #
coedge $-1 $319 $144 $141 $225 forward $230 $-1 #
edge $-1 $232 -10.597291151247507 $323 -3.1961537178850836 $224 $324 forward 7 unknown #
coedge $-1 $325 $326 $142 $227 forward $219 $-1 #
edge $-1 $327 -44.524644954207005 $231 -30.417474995109842 $226 $328 forward 7 unknown #
edge $-1 $232 -24.000550751908978 $327 0 $143 $329 forward 7 unknown #
coedge $-1 $144 $319 $325 $330 forward $230 $-1 #
loop $-1 $-1 $319 $218 #
vertex $-1 $227 $331 #
vertex $-1 $145 $332 #
straight-curve $-1 -60.869763510916243 -17.494013585813804 15.599045870105471 1 0 0 I I #
coedge $-1 $234 $234 $-1 $333 reversed $148 $-1 #
edge $-1 $334 0 $334 6.2831853071796004 $149 $335 forward 7 unknown #
vertex $-1 $152 $336 #
ellipse-curve $-1 -46.249091583954687 -15.379402890567398 8.545460890556889 -0.5877852598018023 0 0.80901698891910034 0.40450849445955017 0 0.29389262990090115 1 I I #
coedge $-1 $238 $238 $-1 $337 reversed $155 $-1 #
edge $-1 $338 0 $338 6.2831853071796004 $156 $339 forward 7 unknown #
vertex $-1 $159 $340 #
ellipse-curve $-1 -46.249091583954687 -12.207486847697787 8.545460890556889 -0.5877852598018023 0 0.80901698891910034 0.40450849445955017 0 0.29389262990090115 1 I I #
face $-1 $-1 $175 $24 $-1 $341 reversed single #
loop $-1 $-1 $258 $160 #
plane-surface $-1 0 37.469865996081424 0 0 -1 0 0 0 -1 forward_v I I I I #
coedge $-1 $342 $256 $259 $343 forward $161 $-1 #
coedge $-1 $262 $163 $164 $250 reversed $101 $-1 #
coedge $-1 $256 $342 $163 $248 reversed $161 $-1 #
edge $-1 $263 -15.599045870105469 $344 15.599045870105469 $247 $345 forward 7 unknown #
coedge $-1 $165 $164 $342 $346 forward $65 $-1 #
edge $-1 $254 -55.957518234809413 $344 55.957518234809413 $246 $347 forward 7 unknown #
coedge $-1 $259 $258 $165 $252 reversed $243 $-1 #
edge $-1 $348 -55.957518234809413 $253 55.957518234809413 $251 $349 forward 7 unknown #
vertex $-1 $167 $350 #
vertex $-1 $265 $351 #
straight-curve $-1 55.957518234809413 0 -15.599045870105469 0 -1 0 I I #
coedge $-1 $245 $247 $168 $257 reversed $161 $-1 #
edge $-1 $260 -37.469865996081424 $263 37.469865996081424 $256 $352 forward 7 unknown #
coedge $-1 $251 $169 $174 $266 forward $243 $-1 #
coedge $-1 $169 $251 $245 $343 reversed $243 $-1 #
vertex $-1 $170 $353 #
straight-curve $-1 0 37.469865996081424 15.599045870105469 -1 0 0 I I #
coedge $-1 $171 $246 $173 $265 reversed $101 $-1 #
vertex $-1 $257 $354 #
straight-curve $-1 0 -37.469865996081424 15.599045870105469 1 0 0 I I #
edge $-1 $176 -15.599045870105469 $254 15.599045870105469 $173 $355 forward 7 unknown #
edge $-1 $177 -15.599045870105469 $253 15.599045870105469 $174 $356 forward 7 unknown #
point $-1 55.957518234809413 -37.469865996081424 15.599045870105469 #
point $-1 55.957518234809413 37.469865996081424 15.599045870105469 #
face $-1 $-1 $282 $25 $-1 $357 reversed single #
plane-surface $-1 -47.772244182213228 -47.457792201215234 0 -1 0 0 0 0 1 forward_v I I I I #
coedge $-1 $358 $359 $360 $361 forward $180 $-1 #
coedge $-1 $360 $182 $281 $362 reversed $109 $-1 #
coedge $-1 $182 $360 $183 $276 reversed $109 $-1 #
edge $-1 $278 -15.599045870105469 $283 15.599045870105469 $182 $363 forward 7 unknown #
coedge $-1 $184 $183 $359 $364 forward $69 $-1 #
edge $-1 $278 37.469865996081424 $365 57.445718406349044 $273 $366 forward 7 unknown #
edge $-1 $367 -9.9879262051338102 $192 9.9879262051338102 $189 $368 forward 7 unknown #
vertex $-1 $276 $369 #
straight-curve $-1 0 -37.469865996081424 15.599045870105469 -1 0 0 I I #
coedge $-1 $370 $187 $190 $286 forward $282 $-1 #
coedge $-1 $187 $370 $272 $362 forward $282 $-1 #
loop $-1 $-1 $187 $269 #
vertex $-1 $274 $371 #
straight-curve $-1 0 -37.469865996081424 -15.599045870105469 1 0 0 I I #
coedge $-1 $190 $189 $372 $373 forward $191 $-1 #
edge $-1 $193 -9.9879262051338102 $374 9.9879262051338102 $190 $375 forward 7 unknown #
point $-1 -47.772244182213228 -37.469865996081424 15.599045870105469 #
point $-1 -47.772244182213228 -37.469865996081424 -15.599045870105469 #
loop $-1 $-1 $203 $195 #
plane-surface $-1 55.957518234809413 0 0 -1 0 0 0 0 1 forward_v I I I I #
coedge $-1 $292 $198 $200 $296 reversed $117 $-1 #
coedge $-1 $198 $291 $376 $377 reversed $117 $-1 #
coedge $-1 $206 $201 $198 $294 forward $196 $-1 #
edge $-1 $297 5.6639598924922723 $378 12.878920004925646 $293 $379 forward 7 unknown #
coedge $-1 $200 $199 $300 $380 reversed $73 $-1 #
edge $-1 $381 -111.91503646961883 $297 -99.012583269483741 $291 $382 forward 7 unknown #
vertex $-1 $202 $383 #
straight-curve $-1 48.742558122376032 -6.5839714013483182 15.599045870105478 0 -1 0 I I #
coedge $-1 $376 $203 $206 $304 reversed $289 $-1 #
coedge $-1 $203 $376 $295 $380 forward $289 $-1 #
vertex $-1 $204 $384 #
straight-curve $-1 55.957518234809413 -8.8418720195794673 80.13314560075149 0 0 1 I I #
straight-curve $-1 -6.6245746110202361 -8.8418720195794673 97.684198355673331 0.55919289150049634 0 -0.82903758062907751 I I #
edge $-1 $378 -17.494013585813804 $207 -8.8418720195794673 $299 $385 forward 7 unknown #
point $-1 55.957518234809413 -8.8418720195794673 15.599045870105469 #
point $-1 48.742558122376039 -8.8418720195794673 15.599045870105471 #
edge $-1 $386 1 $386 0 $210 $-1 forward 7 unknown #
vertex $-1 $211 $387 #
ellipse-curve $-1 50.932448939264539 -15.02197313831828 9.2945605919649026 0.82903758062907751 0 0.55919289150049634 0.55919289150049634 0 -0.82903758062907751 1 I I #
point $-1 52.90923107009322 -15.02197313831828 9.4216989968664286 #
edge $-1 $388 1 $388 0 $214 $-1 forward 7 unknown #
vertex $-1 $215 $389 #
ellipse-curve $-1 50.932448939264539 -11.313912467074992 9.2945605919649026 0.82903758062907751 0 0.55919289150049634 0.55919289150049634 0 -0.82903758062907751 1 I I #
point $-1 52.90923107009322 -11.313912467074992 9.4216989968664286 #
plane-surface $-1 0 0 15.599045870105469 0 0 1 1 0 0 forward_v I I I I #
coedge $-1 $326 $325 $318 $390 forward $219 $-1 #
coedge $-1 $318 $221 $223 $322 reversed $139 $-1 #
coedge $-1 $221 $317 $316 $390 reversed $139 $-1 #
coedge $-1 $229 $224 $221 $320 forward $230 $-1 #
edge $-1 $323 -24.329098577816282 $391 -4.9122452761068303 $319 $392 forward 7 unknown #
coedge $-1 $223 $222 $326 $393 reversed $87 $-1 #
edge $-1 $394 0 $323 24.000550751908978 $317 $395 forward 7 unknown #
vertex $-1 $225 $396 #
straight-curve $-1 -36.540664933099954 -6.8967224345662963 15.599045870105469 0 1 0 I I #
coedge $-1 $316 $226 $229 $330 reversed $219 $-1 #
coedge $-1 $226 $316 $321 $393 forward $219 $-1 #
vertex $-1 $227 $397 #
straight-curve $-1 -55.957518234809413 -17.494013585813804 46.016520865215313 0 0 1 I I #
straight-curve $-1 -55.957518234809413 -17.494013585813804 1.4918759110083073 -0.80901698891910034 0 -0.5877852598018023 I I #
edge $-1 $391 10.09287615245138 $231 17.494013585813804 $325 $398 forward 7 unknown #
point $-1 -55.957518234809413 -17.494013585813804 15.599045870105469 #
point $-1 -36.540664933099961 -17.494013585813804 15.599045870105469 #
edge $-1 $399 1 $399 0 $234 $-1 forward 7 unknown #
vertex $-1 $235 $400 #
ellipse-curve $-1 -45.631609418802931 -15.379402890567398 7.6955696188180163 -0.5877852598018023 0 0.80901698891910034 0.40450849445955017 0 0.29389262990090115 1 I I #
point $-1 -45.844583089495138 -15.379402890567398 8.8393535204577915 #
edge $-1 $401 1 $401 0 $238 $-1 forward 7 unknown #
vertex $-1 $239 $402 #
ellipse-curve $-1 -45.631609418802931 -12.207486847697787 7.6955696188180163 -0.5877852598018023 0 0.80901698891910034 0.40450849445955017 0 0.29389262990090115 1 I I #
point $-1 -45.844583089495138 -12.207486847697787 8.8393535204577915 #
plane-surface $-1 55.957518234809413 0 0 -1 0 0 0 0 1 forward_v I I I I #
coedge $-1 $247 $245 $249 $346 reversed $161 $-1 #
edge $-1 $260 -15.599045870105469 $348 15.599045870105469 $259 $403 forward 7 unknown #
vertex $-1 $346 $404 #
straight-curve $-1 -55.957518234809413 -37.469865996081424 0 0 0 -1 I I #
edge $-1 $344 -37.469865996081424 $348 37.469865996081424 $342 $405 forward 7 unknown #
straight-curve $-1 0 -37.469865996081424 -15.599045870105469 -1 0 0 I I #
vertex $-1 $252 $406 #
straight-curve $-1 0 37.469865996081424 -15.599045870105469 1 0 0 I I #
point $-1 55.957518234809413 37.469865996081424 -15.599045870105469 #
point $-1 55.957518234809413 -37.469865996081424 -15.599045870105469 #
straight-curve $-1 -55.957518234809413 0 15.599045870105469 0 -1 0 I I #
point $-1 -55.957518234809413 37.469865996081424 15.599045870105469 #
point $-1 -55.957518234809413 -37.469865996081424 15.599045870105469 #
straight-curve $-1 55.957518234809413 -37.469865996081424 0 0 0 -1 I I #
straight-curve $-1 55.957518234809413 37.469865996081424 0 0 0 -1 I I #
plane-surface $-1 0 0 -15.599045870105469 0 0 1 1 0 0 forward_v I I I I #
coedge $-1 $372 $271 $370 $407 reversed $180 $-1 #
coedge $-1 $271 $372 $275 $364 reversed $180 $-1 #
coedge $-1 $273 $272 $271 $361 reversed $109 $-1 #
edge $-1 $365 -15.599045870105469 $408 15.599045870105469 $360 $409 forward 7 unknown #
edge $-1 $408 -57.445718406349044 $283 -37.469865996081424 $272 $410 forward 7 unknown #
straight-curve $-1 -55.957518234809413 -37.469865996081424 0 0 0 -1 I I #
edge $-1 $365 -4.0926370262980925 $367 4.0926370262980925 $359 $411 forward 7 unknown #
vertex $-1 $276 $412 #
straight-curve $-1 -55.957518234809413 0 15.599045870105469 0 -1 0 I I #
vertex $-1 $277 $413 #
straight-curve $-1 -47.772244182213228 -47.457792201215234 15.599045870105469 0 1 0 I I #
point $-1 -55.957518234809413 -37.469865996081424 15.599045870105469 #
coedge $-1 $281 $280 $358 $407 forward $282 $-1 #
point $-1 -55.957518234809413 -37.469865996081424 -15.599045870105469 #
coedge $-1 $359 $358 $285 $373 reversed $180 $-1 #
edge $-1 $367 -15.599045870105469 $374 15.599045870105469 $285 $414 forward 7 unknown #
vertex $-1 $373 $415 #
straight-curve $-1 -47.772244182213228 -47.457792201215234 -15.599045870105469 0 -1 0 I I #
coedge $-1 $300 $299 $292 $377 forward $289 $-1 #
edge $-1 $378 64.53409973064602 $381 75.230718315865929 $376 $416 forward 7 unknown #
vertex $-1 $304 $417 #
straight-curve $-1 43.078598229883767 -17.494013585813804 15.599045870105471 1 0 0 I I #
edge $-1 $381 -10.910042184465485 $301 -2.2579006182311492 $300 $418 forward 7 unknown #
vertex $-1 $380 $419 #
straight-curve $-1 -6.6245746110202361 -17.494013585813804 97.684198355673331 -0.55919289150049634 0 0.82903758062907751 I I #
point $-1 48.742558122376039 -17.494013585813804 15.599045870105471 #
point $-1 55.957518234809413 -8.8418720195794673 4.9024272848855617 #
straight-curve $-1 55.957518234809413 0 15.599045870105469 0 1 0 I I #
vertex $-1 $307 $420 #
point $-1 51.491641830765033 -15.02197313831828 8.465523011335824 #
vertex $-1 $311 $421 #
point $-1 51.491641830765033 -11.313912467074992 8.465523011335824 #
edge $-1 $391 30.417474995109842 $394 44.524644954207005 $316 $422 forward 7 unknown #
vertex $-1 $330 $423 #
straight-curve $-1 -60.869763510916243 -10.09287615245138 15.599045870105471 -1 0 0 I I #
edge $-1 $394 3.1961537178850836 $327 10.597291151247507 $326 $424 forward 7 unknown #
vertex $-1 $393 $425 #
straight-curve $-1 -55.957518234809413 -10.09287615245138 1.4918759110083073 0.80901698891910034 0 0.5877852598018023 I I #
point $-1 -36.540664933099961 -10.09287615245138 15.599045870105469 #
point $-1 -55.957518234809413 -17.494013585813804 1.4918759110083073 #
straight-curve $-1 -55.957518234809413 0 15.599045870105469 0 -1 0 I I #
vertex $-1 $333 $426 #
point $-1 -45.227100924343382 -15.379402890567398 7.9894622487189171 #
vertex $-1 $337 $427 #
point $-1 -45.227100924343382 -12.207486847697787 7.9894622487189171 #
straight-curve $-1 -55.957518234809413 37.469865996081424 0 0 0 -1 I I #
point $-1 -55.957518234809413 -37.469865996081424 -15.599045870105469 #
straight-curve $-1 -55.957518234809413 0 -15.599045870105469 0 1 0 I I #
point $-1 -55.957518234809413 37.469865996081424 -15.599045870105469 #
edge $-1 $374 -4.0926370262980925 $408 4.0926370262980925 $358 $428 forward 7 unknown #
vertex $-1 $362 $429 #
straight-curve $-1 -55.957518234809413 -57.445718406349044 0 0 0 -1 I I #
straight-curve $-1 -55.957518234809413 0 -15.599045870105469 0 1 0 I I #
straight-curve $-1 -51.864881208511321 -57.445718406349044 15.599045870105469 1 0 0 I I #
point $-1 -55.957518234809413 -57.445718406349044 15.599045870105469 #
point $-1 -47.772244182213228 -57.445718406349044 15.599045870105469 #
straight-curve $-1 -47.772244182213228 -57.445718406349044 0 0 0 -1 I I #
point $-1 -47.772244182213228 -57.445718406349044 -15.599045870105469 #
straight-curve $-1 55.957518234809413 -17.494013585813804 80.13314560075149 0 0 -1 I I #
point $-1 55.957518234809413 -17.494013585813804 15.599045870105469 #
straight-curve $-1 55.957518234809413 -6.5839714013483182 4.9024272848855617 0 1 0 I I #
point $-1 55.957518234809413 -17.494013585813804 4.9024272848855617 #
point $-1 50.103411358635462 -15.02197313831828 8.7353677004644048 #
point $-1 50.103411358635462 -11.313912467074992 8.7353677004644048 #
straight-curve $-1 -55.957518234809413 -10.09287615245138 46.016520865215313 0 0 -1 I I #
point $-1 -55.957518234809413 -10.09287615245138 15.599045870105469 #
straight-curve $-1 -55.957518234809413 -6.8967224345662963 1.491875911008308 0 -1 0 I I #
point $-1 -55.957518234809413 -10.09287615245138 1.4918759110083073 #
point $-1 -45.337716788902036 -15.379402890567398 7.291061124358464 #
point $-1 -45.337716788902036 -12.207486847697787 7.291061124358464 #
straight-curve $-1 -51.864881208511321 -57.445718406349044 -15.599045870105469 -1 0 0 I I #
point $-1 -55.957518234809413 -57.445718406349044 -15.599045870105469 #
End-of-ACIS-data 