500 0 5 0           
7 Unknown 11 ACIS 5.0 NT 24 Fri Mar 26 00:56:57 1999 
-1 9.9999999999999995e-007 1e-010 
body $-1 $5 $-1 $6 #
body $-1 $7 $-1 $8 #
body $-1 $9 $-1 $10 #
body $-1 $11 $-1 $12 #
body $-1 $13 $-1 $14 #
lump $-1 $-1 $15 $0 #
transform $-1 1 0 0 0 1 0 0 0 1 73.145542771691026 45.612664876498911 18.855332141641075 1 rotate no_reflect no_shear #
lump $-1 $-1 $16 $1 #
transform $-1 1 0 0 0 1 0 0 0 1 73.145542771691026 45.612664876498911 18.855332141641075 1 rotate no_reflect no_shear #
lump $-1 $-1 $17 $2 #
transform $-1 1 0 0 0 1 0 0 0 1 73.145542771691026 45.612664876498911 18.855332141641075 1 rotate no_reflect no_shear #
lump $-1 $-1 $18 $3 #
transform $-1 1 0 0 0 1 0 0 0 1 73.145542771691026 45.612664876498911 18.855332141641075 1 rotate no_reflect no_shear #
lump $-1 $-1 $19 $4 #
transform $-1 1 0 0 0 1 0 0 0 1 73.145542771691026 45.612664876498911 18.855332141641075 1 rotate no_reflect no_shear #
shell $-1 $-1 $-1 $20 $-1 $5 #
shell $-1 $-1 $-1 $21 $-1 $7 #
shell $-1 $-1 $-1 $22 $-1 $9 #
shell $-1 $-1 $-1 $23 $-1 $11 #
shell $-1 $-1 $-1 $24 $-1 $13 #
face $-1 $25 $26 $15 $-1 $27 forward single #
face $-1 $28 $29 $16 $-1 $30 reversed single #
face $-1 $31 $32 $17 $-1 $33 reversed single #
face $-1 $34 $35 $18 $-1 $36 forward single #
face $-1 $37 $38 $19 $-1 $39 forward single #
face $-1 $40 $41 $15 $-1 $42 reversed single #
loop $-1 $-1 $43 $20 #
plane-surface $-1 0 0 18.855332141641075 0 0 1 1 0 0 forward_v I I I I #
face $-1 $44 $45 $16 $-1 $46 reversed single #
loop $-1 $-1 $47 $21 #
plane-surface $-1 -64.350977838464871 0 9.2046843756734127 0 0 1 1 0 0 forward_v I I I I #
face $-1 $48 $49 $17 $-1 $50 reversed single #
loop $-1 $-1 $51 $22 #
plane-surface $-1 59.958178011795184 -45.61266487649894 6.0862565287503543 0 -0.55919291073839883 0.82903756765294845 1 0 0 forward_v I I I I #
face $-1 $52 $53 $18 $-1 $54 forward single #
loop $-1 $55 $56 $23 #
cone-surface $-1 54.30645025755409 -34.871406881292138 10.579355510652238 0 0.55919291073839883 -0.82903756765294845 2.5 0 0 1 I I 0 1 2.5 forward I I I I #
face $-1 $57 $58 $19 $-1 $59 forward single #
loop $-1 $60 $61 $24 #
cone-surface $-1 65.609905766036263 -34.871406881292138 10.579355510652238 0 0.55919291073839883 -0.82903756765294845 2.5 0 0 1 I I 0 1 2.5 forward I I I I #
face $-1 $62 $63 $15 $-1 $64 reversed single #
loop $-1 $-1 $65 $25 #
plane-surface $-1 0 0 -18.855332141641075 0 0 1 1 0 0 forward_v I I I I #
coedge $-1 $66 $67 $68 $69 forward $26 $-1 #
face $-1 $70 $71 $16 $-1 $72 reversed single #
loop $-1 $-1 $73 $28 #
plane-surface $-1 -55.556412905238709 0 14.030008258657244 -1 0 0 0 0 1 forward_v I I I I #
coedge $-1 $74 $75 $76 $77 forward $29 $-1 #
face $-1 $78 $79 $17 $-1 $80 reversed single #
loop $-1 $-1 $81 $31 #
plane-surface $-1 46.770813251899327 -127.41760281658284 127.36706225694522 1 0 0 0 0.55919291073839883 -0.82903756765294845 forward_v I I I I #
coedge $-1 $82 $83 $84 $85 reversed $32 $-1 #
face $-1 $-1 $86 $18 $-1 $87 forward single #
loop $-1 $88 $89 $34 #
cone-surface $-1 54.30645025755409 -32.896624122503347 7.6516197265426023 0 0.55919291073839883 -0.82903756765294845 1.25 0 0 1 I I -0.70710678118654746 0.70710678118654746 1.25 forward I I I I #
loop $-1 $-1 $90 $23 #
coedge $-1 $56 $56 $91 $92 reversed $35 $-1 #
face $-1 $-1 $93 $19 $-1 $94 forward single #
loop $-1 $95 $96 $37 #
cone-surface $-1 65.609905766036263 -32.896624122503347 7.6516197265426023 0 0.55919291073839883 -0.82903756765294845 1.25 0 0 1 I I -0.70710678118654746 0.70710678118654746 1.25 forward I I I I #
loop $-1 $-1 $97 $24 #
coedge $-1 $61 $61 $98 $99 reversed $38 $-1 #
face $-1 $100 $101 $15 $-1 $102 reversed single #
loop $-1 $-1 $103 $40 #
plane-surface $-1 0 -45.612664876498911 0 0 1 0 0 0 1 forward_v I I I I #
coedge $-1 $104 $105 $106 $107 forward $41 $-1 #
coedge $-1 $108 $43 $109 $110 forward $26 $-1 #
coedge $-1 $43 $108 $111 $112 forward $26 $-1 #
coedge $-1 $113 $114 $43 $69 reversed $115 $-1 #
edge $-1 $116 -45.612664876498911 $117 45.612664876498911 $68 $118 forward 7 unknown #
face $-1 $119 $120 $16 $-1 $121 reversed single #
loop $-1 $-1 $122 $44 #
plane-surface $-1 0 45.612664876498911 0 0 -1 0 0 0 -1 forward_v I I I I #
coedge $-1 $76 $123 $124 $125 reversed $45 $-1 #
coedge $-1 $126 $47 $127 $128 reversed $29 $-1 #
coedge $-1 $47 $126 $129 $130 reversed $29 $-1 #
coedge $-1 $131 $73 $47 $77 reversed $45 $-1 #
edge $-1 $132 -45.612664876498911 $133 45.612664876498911 $76 $134 forward 7 unknown #
face $-1 $135 $136 $17 $-1 $137 forward single #
loop $-1 $-1 $138 $48 #
plane-surface $-1 73.145542771691026 0 0 -1 0 0 0 0 1 forward_v I I I I #
coedge $-1 $139 $140 $141 $142 reversed $49 $-1 #
coedge $-1 $143 $51 $138 $144 reversed $32 $-1 #
coedge $-1 $51 $143 $139 $145 forward $32 $-1 #
coedge $-1 $141 $146 $51 $85 forward $136 $-1 #
edge $-1 $147 -43.166453765793449 $148 -16.791724246001735 $84 $149 forward 7 unknown #
loop $-1 $-1 $91 $52 #
plane-surface $-1 59.958178011795184 -45.61266487649894 6.0862565287503543 0 -0.55919291073839883 0.82903756765294845 1 0 0 forward_v I I I I #
loop $-1 $-1 $150 $34 #
coedge $-1 $89 $89 $90 $151 reversed $53 $-1 #
coedge $-1 $90 $90 $89 $151 forward $55 $-1 #
coedge $-1 $91 $91 $56 $92 forward $86 $-1 #
edge $-1 $152 2.2454013726313318e-015 $152 6.2831853071796031 $91 $153 forward 7 unknown #
loop $-1 $-1 $98 $57 #
plane-surface $-1 59.958178011795184 -45.61266487649894 6.0862565287503543 0 -0.55919291073839883 0.82903756765294845 1 0 0 forward_v I I I I #
loop $-1 $-1 $154 $37 #
coedge $-1 $96 $96 $97 $155 reversed $58 $-1 #
coedge $-1 $97 $97 $96 $155 forward $60 $-1 #
coedge $-1 $98 $98 $61 $99 forward $93 $-1 #
edge $-1 $156 2.2454013726313318e-015 $156 6.2831853071796031 $98 $157 forward 7 unknown #
face $-1 $158 $159 $15 $-1 $160 reversed single #
loop $-1 $-1 $161 $62 #
plane-surface $-1 -73.145542771691026 0 0 1 0 0 0 0 -1 forward_v I I I I #
coedge $-1 $162 $111 $163 $164 forward $63 $-1 #
coedge $-1 $165 $65 $162 $166 forward $41 $-1 #
coedge $-1 $65 $165 $167 $168 forward $41 $-1 #
coedge $-1 $114 $113 $65 $107 reversed $115 $-1 #
edge $-1 $169 -45.612664876498911 $170 45.612664876498911 $106 $171 forward 7 unknown #
coedge $-1 $67 $66 $172 $173 forward $26 $-1 #
coedge $-1 $174 $175 $66 $110 reversed $159 $-1 #
edge $-1 $117 -73.145542771691026 $176 73.145542771691026 $109 $177 forward 7 unknown #
coedge $-1 $103 $178 $67 $112 reversed $63 $-1 #
edge $-1 $179 -73.145542771691026 $116 73.145542771691026 $111 $180 forward 7 unknown #
coedge $-1 $106 $68 $178 $181 forward $115 $-1 #
coedge $-1 $68 $106 $174 $182 reversed $115 $-1 #
loop $-1 $-1 $113 $158 #
vertex $-1 $69 $183 #
vertex $-1 $69 $184 #
straight-curve $-1 73.145542771691026 0 18.855332141641075 0 1 0 I I #
face $-1 $185 $186 $16 $-1 $187 forward single #
loop $-1 $-1 $188 $70 #
plane-surface $-1 -73.145542771691026 0 0 1 0 0 0 0 -1 forward_v I I I I #
coedge $-1 $129 $189 $131 $190 forward $71 $-1 #
coedge $-1 $73 $131 $191 $192 reversed $45 $-1 #
coedge $-1 $193 $127 $73 $125 forward $194 $-1 #
edge $-1 $133 2.1896802463447909 $195 11.840328012312453 $124 $196 forward 7 unknown #
coedge $-1 $75 $74 $188 $197 reversed $29 $-1 #
coedge $-1 $124 $198 $74 $128 forward $194 $-1 #
edge $-1 $199 -40.970053852458591 $133 -23.380923986006273 $127 $200 forward 7 unknown #
coedge $-1 $201 $122 $75 $130 forward $71 $-1 #
edge $-1 $132 23.380923986006273 $202 40.970053852458591 $129 $203 forward 7 unknown #
coedge $-1 $123 $76 $122 $190 reversed $45 $-1 #
vertex $-1 $130 $204 #
vertex $-1 $128 $205 #
straight-curve $-1 -55.556412905238709 0 9.2046843756734127 0 -1 0 I I #
face $-1 $-1 $206 $17 $-1 $207 reversed single #
loop $-1 $-1 $84 $78 #
plane-surface $-1 0 0 18.855332141641075 0 0 1 1 0 0 forward_v I I I I #
coedge $-1 $208 $209 $82 $144 forward $79 $-1 #
coedge $-1 $140 $81 $83 $145 reversed $49 $-1 #
coedge $-1 $81 $139 $210 $211 reversed $49 $-1 #
coedge $-1 $212 $84 $81 $142 forward $136 $-1 #
edge $-1 $148 -37.027069281474382 $213 -18.09613653179251 $141 $214 forward 7 unknown #
coedge $-1 $83 $82 $215 $216 reversed $32 $-1 #
edge $-1 $217 -17.205610619784597 $147 5.6292203798242628 $138 $218 forward 7 unknown #
edge $-1 $219 3.4489252521598177e-014 $148 22.834830999608894 $139 $220 forward 7 unknown #
coedge $-1 $84 $212 $208 $221 forward $136 $-1 #
vertex $-1 $85 $222 #
vertex $-1 $85 $223 #
straight-curve $-1 29.979089005897592 -26.681732126817032 18.855332141641075 -1 0 0 I I #
coedge $-1 $150 $150 $-1 $224 reversed $88 $-1 #
edge $-1 $225 0 $225 6.2831853071796004 $89 $226 forward 7 unknown #
vertex $-1 $92 $227 #
ellipse-curve $-1 54.30645025755409 -36.147198501657961 12.470794335195734 0 -0.55919291073839883 0.82903756765294845 2.5 0 0 1 I I #
coedge $-1 $154 $154 $-1 $228 reversed $95 $-1 #
edge $-1 $229 0 $229 6.2831853071796004 $96 $230 forward 7 unknown #
vertex $-1 $99 $231 #
ellipse-curve $-1 65.609905766036263 -36.147198501657961 12.470794335195734 0 -0.55919291073839883 0.82903756765294845 2.5 0 0 1 I I #
face $-1 $-1 $115 $15 $-1 $232 reversed single #
loop $-1 $-1 $174 $100 #
plane-surface $-1 0 45.612664876498911 0 0 -1 0 0 0 -1 forward_v I I I I #
coedge $-1 $233 $172 $175 $234 forward $101 $-1 #
coedge $-1 $178 $103 $104 $166 reversed $63 $-1 #
coedge $-1 $172 $233 $103 $164 reversed $101 $-1 #
edge $-1 $179 -18.855332141641075 $235 18.855332141641075 $163 $236 forward 7 unknown #
coedge $-1 $105 $104 $233 $237 forward $41 $-1 #
edge $-1 $170 -73.145542771691026 $235 73.145542771691026 $162 $238 forward 7 unknown #
coedge $-1 $175 $174 $105 $168 reversed $159 $-1 #
edge $-1 $239 -73.145542771691026 $169 73.145542771691026 $167 $240 forward 7 unknown #
vertex $-1 $107 $241 #
vertex $-1 $181 $242 #
straight-curve $-1 73.145542771691026 0 -18.855332141641075 0 -1 0 I I #
coedge $-1 $161 $163 $108 $173 reversed $101 $-1 #
edge $-1 $176 -45.612664876498911 $179 45.612664876498911 $172 $243 forward 7 unknown #
coedge $-1 $167 $109 $114 $182 forward $159 $-1 #
coedge $-1 $109 $167 $161 $234 reversed $159 $-1 #
vertex $-1 $110 $244 #
straight-curve $-1 0 45.612664876498911 18.855332141641075 -1 0 0 I I #
coedge $-1 $111 $162 $113 $181 reversed $63 $-1 #
vertex $-1 $173 $245 #
straight-curve $-1 0 -45.612664876498911 18.855332141641075 1 0 0 I I #
edge $-1 $116 -18.855332141641075 $170 18.855332141641075 $113 $246 forward 7 unknown #
edge $-1 $117 -18.855332141641075 $169 18.855332141641075 $114 $247 forward 7 unknown #
point $-1 73.145542771691026 -45.612664876498911 18.855332141641075 #
point $-1 73.145542771691026 45.612664876498911 18.855332141641075 #
face $-1 $-1 $194 $16 $-1 $248 reversed single #
loop $-1 $-1 $191 $119 #
plane-surface $-1 0 0 18.855332141641075 0 0 1 1 0 0 forward_v I I I I #
coedge $-1 $249 $250 $126 $197 forward $120 $-1 #
coedge $-1 $122 $201 $251 $252 reversed $71 $-1 #
edge $-1 $253 -11.840328012312453 $132 -2.1896802463447909 $122 $254 forward 7 unknown #
coedge $-1 $251 $255 $123 $192 forward $186 $-1 #
edge $-1 $195 -45.612664876498911 $253 45.612664876498911 $191 $256 forward 7 unknown #
coedge $-1 $198 $124 $255 $257 reversed $194 $-1 #
loop $-1 $-1 $124 $185 #
vertex $-1 $125 $258 #
straight-curve $-1 -55.556412905238709 -45.612664876498911 7.0150041293286218 0 0 1 I I #
edge $-1 $202 -45.612664876498911 $199 45.612664876498911 $188 $259 forward 7 unknown #
coedge $-1 $127 $193 $249 $260 forward $194 $-1 #
vertex $-1 $197 $261 #
straight-curve $-1 -32.175488919232436 -45.612664876498911 9.2046843756734127 1 0 0 I I #
coedge $-1 $189 $129 $250 $262 reversed $71 $-1 #
vertex $-1 $197 $263 #
straight-curve $-1 -32.175488919232436 45.612664876498911 9.2046843756734127 -1 0 0 I I #
point $-1 -55.556412905238709 45.612664876498911 9.2046843756734127 #
point $-1 -55.556412905238709 -45.612664876498911 9.2046843756734127 #
loop $-1 $-1 $215 $135 #
plane-surface $-1 0 -45.612664876498911 0 0 1 0 0 0 1 forward_v I I I I #
coedge $-1 $209 $138 $146 $221 reversed $79 $-1 #
coedge $-1 $138 $208 $264 $265 forward $79 $-1 #
coedge $-1 $215 $266 $140 $211 forward $206 $-1 #
edge $-1 $213 44.828198986831538 $219 57.597274599722233 $210 $267 forward 7 unknown #
coedge $-1 $146 $141 $266 $268 forward $136 $-1 #
vertex $-1 $268 $269 #
straight-curve $-1 46.770813251899327 -63.708801408291421 18.855332141641071 0 -1 0 I I #
coedge $-1 $264 $210 $143 $216 forward $206 $-1 #
edge $-1 $219 16.791724246001735 $217 43.166453765793449 $215 $270 forward 7 unknown #
vertex $-1 $216 $271 #
straight-curve $-1 73.145542771691026 -31.348567298288948 15.70751201225923 0 0.82903756765294845 0.55919291073839883 I I #
vertex $-1 $216 $272 #
straight-curve $-1 46.770813251899327 -45.61266487649894 6.0862565287503543 0 0.82903756765294845 0.55919291073839883 I I #
edge $-1 $273 -45.612664876498911 $147 -26.681732126817035 $208 $274 forward 7 unknown #
point $-1 73.145542771691041 -26.681732126817035 18.855332141641075 #
point $-1 46.770813251899327 -26.681732126817035 18.855332141641075 #
edge $-1 $275 1 $275 0 $150 $-1 forward 7 unknown #
vertex $-1 $151 $276 #
ellipse-curve $-1 54.30645025755409 -33.595615260926344 8.6879166861087871 0 -0.55919291073839883 0.82903756765294845 2.5 0 0 1 I I #
point $-1 56.80645025755409 -36.147198501657925 12.470794335195691 #
edge $-1 $277 1 $277 0 $154 $-1 forward 7 unknown #
vertex $-1 $155 $278 #
ellipse-curve $-1 65.609905766036263 -33.595615260926344 8.6879166861087871 0 -0.55919291073839883 0.82903756765294845 2.5 0 0 1 I I #
point $-1 68.109905766036263 -36.147198501657925 12.470794335195691 #
plane-surface $-1 73.145542771691026 0 0 -1 0 0 0 0 1 forward_v I I I I #
coedge $-1 $163 $161 $165 $237 reversed $101 $-1 #
edge $-1 $176 -18.855332141641075 $239 18.855332141641075 $175 $279 forward 7 unknown #
vertex $-1 $237 $280 #
straight-curve $-1 -73.145542771691026 -45.612664876498911 0 0 0 -1 I I #
edge $-1 $235 -45.612664876498911 $239 45.612664876498911 $233 $281 forward 7 unknown #
straight-curve $-1 0 -45.612664876498911 -18.855332141641075 -1 0 0 I I #
vertex $-1 $168 $282 #
straight-curve $-1 0 45.612664876498911 -18.855332141641075 1 0 0 I I #
point $-1 73.145542771691026 45.612664876498911 -18.855332141641075 #
point $-1 73.145542771691026 -45.612664876498911 -18.855332141641075 #
straight-curve $-1 -73.145542771691026 0 18.855332141641075 0 -1 0 I I #
point $-1 -73.145542771691026 45.612664876498911 18.855332141641075 #
point $-1 -73.145542771691026 -45.612664876498911 18.855332141641075 #
straight-curve $-1 73.145542771691026 -45.612664876498911 0 0 0 -1 I I #
straight-curve $-1 73.145542771691026 45.612664876498911 0 0 0 -1 I I #
plane-surface $-1 0 -45.612664876498911 0 0 1 0 0 0 1 forward_v I I I I #
coedge $-1 $283 $188 $198 $260 reversed $120 $-1 #
coedge $-1 $188 $283 $201 $262 forward $120 $-1 #
coedge $-1 $284 $191 $189 $252 forward $186 $-1 #
edge $-1 $253 55.556412905238709 $285 73.145542771691026 $189 $286 forward 7 unknown #
vertex $-1 $252 $287 #
straight-curve $-1 -55.556412905238709 45.612664876498911 7.0150041293286218 0 0 -1 I I #
coedge $-1 $191 $284 $193 $257 forward $186 $-1 #
straight-curve $-1 -55.556412905238709 0 18.855332141641075 0 1 0 I I #
edge $-1 $288 -73.145542771691026 $195 -55.556412905238709 $193 $289 forward 7 unknown #
point $-1 -55.556412905238709 -45.612664876498911 18.855332141641075 #
straight-curve $-1 -73.145542771691026 0 9.2046843756734127 0 -1 0 I I #
edge $-1 $288 -18.855332141641075 $199 -9.2046843756734127 $249 $290 forward 7 unknown #
point $-1 -73.145542771691026 -45.612664876498911 9.2046843756734127 #
edge $-1 $285 -18.855332141641075 $202 -9.2046843756734127 $201 $291 forward 7 unknown #
point $-1 -73.145542771691026 45.612664876498911 9.2046843756734127 #
coedge $-1 $266 $215 $209 $265 reversed $206 $-1 #
edge $-1 $273 -18.855332141641075 $217 -6.0862565287503738 $209 $292 forward 7 unknown #
coedge $-1 $210 $264 $212 $268 reversed $206 $-1 #
straight-curve $-1 46.770813251899327 -45.612664876498911 63.683531128472609 0 0 -1 I I #
edge $-1 $213 46.770813251899327 $273 73.145542771691026 $266 $293 forward 7 unknown #
point $-1 46.770813251899327 -45.612664876498911 18.855332141641075 #
straight-curve $-1 29.979089005897592 -45.612664876498911 6.0862565287503738 1 0 0 I I #
point $-1 73.145542771691041 -45.612664876498911 6.0862565287503738 #
point $-1 46.770813251899327 -45.612664876498911 6.0862565287503738 #
vertex $-1 $221 $294 #
straight-curve $-1 73.145542771691026 0 18.855332141641075 0 1 0 I I #
vertex $-1 $224 $295 #
point $-1 56.80645025755409 -33.595615260926344 8.6879166861087871 #
vertex $-1 $228 $296 #
point $-1 68.109905766036263 -33.595615260926344 8.6879166861087871 #
straight-curve $-1 -73.145542771691026 45.612664876498911 0 0 0 -1 I I #
point $-1 -73.145542771691026 -45.612664876498911 -18.855332141641075 #
straight-curve $-1 -73.145542771691026 0 -18.855332141641075 0 1 0 I I #
point $-1 -73.145542771691026 45.612664876498911 -18.855332141641075 #
coedge $-1 $250 $249 $284 $297 reversed $120 $-1 #
coedge $-1 $255 $251 $283 $297 forward $186 $-1 #
vertex $-1 $252 $298 #
straight-curve $-1 0 45.612664876498911 18.855332141641075 -1 0 0 I I #
point $-1 -55.556412905238709 45.612664876498911 18.855332141641075 #
vertex $-1 $297 $299 #
straight-curve $-1 0 -45.612664876498911 18.855332141641075 1 0 0 I I #
straight-curve $-1 -73.145542771691026 -45.612664876498911 0 0 0 -1 I I #
straight-curve $-1 -73.145542771691026 45.612664876498911 0 0 0 -1 I I #
straight-curve $-1 73.145542771691026 -45.612664876498911 0 0 0 -1 I I #
straight-curve $-1 0 -45.612664876498911 18.855332141641075 1 0 0 I I #
point $-1 73.145542771691026 -45.612664876498911 18.855332141641075 #
point $-1 54.30645025755409 -32.19763298408035 6.6153227669764165 #
point $-1 65.609905766036263 -32.19763298408035 6.6153227669764165 #
edge $-1 $285 -45.612664876498911 $288 45.612664876498911 $283 $300 forward 7 unknown #
point $-1 -73.145542771691026 45.612664876498911 18.855332141641075 #
point $-1 -73.145542771691026 -45.612664876498911 18.855332141641075 #
straight-curve $-1 -73.145542771691026 0 18.855332141641075 0 -1 0 I I #
End-of-ACIS-data 