500 0 11 0           
7 Unknown 11 ACIS 5.0 NT 24 Thu Mar 25 20:47:17 1999 
-1 9.9999999999999995e-007 1e-010 
body $-1 $11 $-1 $12 #
body $-1 $13 $-1 $14 #
body $-1 $15 $-1 $16 #
body $-1 $17 $-1 $18 #
body $-1 $19 $-1 $20 #
body $-1 $21 $-1 $22 #
body $-1 $23 $-1 $24 #
body $-1 $25 $-1 $26 #
body $-1 $27 $-1 $28 #
body $-1 $29 $-1 $30 #
body $-1 $31 $-1 $32 #
lump $-1 $-1 $33 $0 #
transform $-1 1 0 0 0 1 0 0 0 1 56.121097445600753 26.762982774596782 6.5280049997242591 1 rotate no_reflect no_shear #
lump $-1 $-1 $34 $1 #
transform $-1 1 0 0 0 1 0 0 0 1 56.121097445600753 26.762982774596782 6.5280049997242591 1 rotate no_reflect no_shear #
lump $-1 $-1 $35 $2 #
transform $-1 1 0 0 0 1 0 0 0 1 56.121097445600753 26.762982774596782 6.5280049997242591 1 rotate no_reflect no_shear #
lump $-1 $-1 $36 $3 #
transform $-1 1 0 0 0 1 0 0 0 1 56.121097445600753 26.762982774596782 6.5280049997242591 1 rotate no_reflect no_shear #
lump $-1 $-1 $37 $4 #
transform $-1 1 0 0 0 1 0 0 0 1 56.121097445600753 26.762982774596782 6.5280049997242591 1 rotate no_reflect no_shear #
lump $-1 $-1 $38 $5 #
transform $-1 1 0 0 0 1 0 0 0 1 56.121097445600753 26.762982774596782 6.5280049997242591 1 rotate no_reflect no_shear #
lump $-1 $-1 $39 $6 #
transform $-1 1 0 0 0 1 0 0 0 1 56.121097445600753 26.762982774596782 6.5280049997242591 1 rotate no_reflect no_shear #
lump $-1 $-1 $40 $7 #
transform $-1 1 0 0 0 1 0 0 0 1 56.121097445600753 26.762982774596782 6.5280049997242591 1 rotate no_reflect no_shear #
lump $-1 $-1 $41 $8 #
transform $-1 1 0 0 0 1 0 0 0 1 56.121097445600753 26.762982774596782 6.5280049997242591 1 rotate no_reflect no_shear #
lump $-1 $-1 $42 $9 #
transform $-1 1 0 0 0 1 0 0 0 1 56.121097445600753 26.762982774596782 6.5280049997242591 1 rotate no_reflect no_shear #
lump $-1 $-1 $43 $10 #
transform $-1 1 0 0 0 1 0 0 0 1 56.121097445600753 26.762982774596782 6.5280049997242591 1 rotate no_reflect no_shear #
shell $-1 $-1 $-1 $44 $-1 $11 #
shell $-1 $-1 $-1 $45 $-1 $13 #
shell $-1 $-1 $-1 $46 $-1 $15 #
shell $-1 $-1 $-1 $47 $-1 $17 #
shell $-1 $-1 $-1 $48 $-1 $19 #
shell $-1 $-1 $-1 $49 $-1 $21 #
shell $-1 $-1 $-1 $50 $-1 $23 #
shell $-1 $-1 $-1 $51 $-1 $25 #
shell $-1 $-1 $-1 $52 $-1 $27 #
shell $-1 $-1 $-1 $53 $-1 $29 #
shell $-1 $-1 $-1 $54 $-1 $31 #
face $-1 $55 $56 $33 $-1 $57 forward single #
face $-1 $58 $59 $34 $-1 $60 reversed single #
face $-1 $61 $62 $35 $-1 $63 reversed single #
face $-1 $64 $65 $36 $-1 $66 forward single #
face $-1 $67 $68 $37 $-1 $69 forward single #
face $-1 $70 $71 $38 $-1 $72 reversed single #
face $-1 $73 $74 $39 $-1 $75 forward single #
face $-1 $76 $77 $40 $-1 $78 forward single #
face $-1 $79 $80 $41 $-1 $81 reversed single #
face $-1 $82 $83 $42 $-1 $84 forward single #
face $-1 $85 $86 $43 $-1 $87 forward single #
face $-1 $88 $89 $33 $-1 $90 reversed single #
loop $-1 $-1 $91 $44 #
plane-surface $-1 0 0 6.5280049997242591 0 0 1 1 0 0 forward_v I I I I #
face $-1 $92 $93 $34 $-1 $94 reversed single #
loop $-1 $-1 $95 $45 #
plane-surface $-1 -54.621097445600753 -18.368626185843414 0 0 -1 0 0 0 -1 forward_v I I I I #
face $-1 $96 $97 $35 $-1 $98 reversed single #
loop $-1 $-1 $99 $46 #
plane-surface $-1 72.713366004994612 -5.2046846224480303 159.34650958451212 0 -1 0 -0.77714596973225614 0 -0.62932038083071107 forward_v I I I I #
face $-1 $100 $101 $36 $-1 $102 forward single #
loop $-1 $103 $104 $47 #
cone-surface $-1 53.689291353980565 -10.396260402538317 3.6901619878000793 -0.77714596973225614 0 -0.62932038083071107 0.31466019041535553 0 -0.38857298486612807 1 I I 0 1 0.5 forward I I I I #
face $-1 $105 $106 $37 $-1 $107 forward single #
loop $-1 $108 $109 $48 #
cone-surface $-1 53.689291353980565 -7.281314934484147 3.6901619878000793 -0.77714596973225614 0 -0.62932038083071107 0.31466019041535553 0 -0.38857298486612807 1 I I 0 1 0.5 forward I I I I #
face $-1 $110 $111 $38 $-1 $112 reversed single #
loop $-1 $-1 $113 $49 #
plane-surface $-1 72.713366004994612 20.867247303327808 159.34650958451212 0 -1 0 -0.77714596973225614 0 -0.62932038083071107 forward_v I I I I #
face $-1 $114 $115 $39 $-1 $116 forward single #
loop $-1 $117 $118 $50 #
cone-surface $-1 53.689291353980565 15.675671523237522 3.6901619878000793 -0.77714596973225614 0 -0.62932038083071107 0.31466019041535553 0 -0.38857298486612807 1 I I 0 1 0.5 forward I I I I #
face $-1 $119 $120 $40 $-1 $121 forward single #
loop $-1 $122 $123 $51 #
cone-surface $-1 53.689291353980565 18.790616991291696 3.6901619878000793 -0.77714596973225614 0 -0.62932038083071107 0.31466019041535553 0 -0.38857298486612807 1 I I 0 1 0.5 forward I I I I #
face $-1 $124 $125 $41 $-1 $126 reversed single #
loop $-1 $-1 $127 $52 #
plane-surface $-1 -138.20984308477887 10.840882093085717 78.032892266086179 0 1 0 -0.73135370988377701 0 0.68199835119979291 forward_v I I I I #
face $-1 $128 $129 $42 $-1 $130 forward single #
loop $-1 $131 $132 $53 #
cone-surface $-1 -53.40356883725515 13.595651852774825 3.6649535318827016 0.73135370988377701 0 -0.68199835119979291 0.34099917559989645 0 0.36567685494188851 1 I I 0 1 0.5 forward I I I I #
face $-1 $133 $134 $43 $-1 $135 forward single #
loop $-1 $136 $137 $54 #
cone-surface $-1 -53.40356883725515 17.727806492308499 3.6649535318827016 0.73135370988377701 0 -0.68199835119979291 0.34099917559989645 0 0.36567685494188851 1 I I 0 1 0.5 forward I I I I #
face $-1 $138 $139 $33 $-1 $140 reversed single #
loop $-1 $-1 $141 $55 #
plane-surface $-1 0 0 -6.5280049997242591 0 0 1 1 0 0 forward_v I I I I #
coedge $-1 $142 $143 $144 $145 forward $56 $-1 #
face $-1 $146 $147 $34 $-1 $148 forward single #
loop $-1 $-1 $149 $58 #
plane-surface $-1 -53.121097445600753 -22.565804480220098 0 -1 0 0 0 0 1 forward_v I I I I #
coedge $-1 $150 $151 $152 $153 forward $59 $-1 #
face $-1 $154 $155 $35 $-1 $156 reversed single #
loop $-1 $-1 $157 $61 #
plane-surface $-1 -14.515203388605073 -8.8387876685112303 88.710208750306293 0.77714596973225614 0 0.62932038083071107 0.62932038083071107 0 -0.77714596973225614 forward_v I I I I #
coedge $-1 $158 $159 $160 $161 reversed $62 $-1 #
face $-1 $-1 $162 $36 $-1 $163 forward single #
loop $-1 $164 $165 $64 #
cone-surface $-1 53.10643187668137 -10.396260402538317 3.2181717021770462 -0.77714596973225614 0 -0.62932038083071107 0.15733009520767777 0 -0.19428649243306403 1 I I -0.70710678118654746 0.70710678118654746 0.25 forward I I I I #
loop $-1 $-1 $166 $47 #
coedge $-1 $104 $104 $167 $168 reversed $65 $-1 #
face $-1 $-1 $169 $37 $-1 $170 forward single #
loop $-1 $171 $172 $67 #
cone-surface $-1 53.10643187668137 -7.281314934484147 3.2181717021770462 -0.77714596973225614 0 -0.62932038083071107 0.15733009520767777 0 -0.19428649243306403 1 I I -0.70710678118654746 0.70710678118654746 0.25 forward I I I I #
loop $-1 $-1 $173 $48 #
coedge $-1 $109 $109 $174 $175 reversed $68 $-1 #
face $-1 $176 $177 $38 $-1 $178 reversed single #
loop $-1 $-1 $179 $70 #
plane-surface $-1 -14.515203388605073 17.233144257264609 88.710208750306293 0.77714596973225614 0 0.62932038083071107 0.62932038083071107 0 -0.77714596973225614 forward_v I I I I #
coedge $-1 $180 $181 $182 $183 reversed $71 $-1 #
face $-1 $-1 $184 $39 $-1 $185 forward single #
loop $-1 $186 $187 $73 #
cone-surface $-1 53.10643187668137 15.675671523237522 3.2181717021770462 -0.77714596973225614 0 -0.62932038083071107 0.15733009520767777 0 -0.19428649243306403 1 I I -0.70710678118654746 0.70710678118654746 0.25 forward I I I I #
loop $-1 $-1 $188 $50 #
coedge $-1 $118 $118 $189 $190 reversed $74 $-1 #
face $-1 $-1 $191 $40 $-1 $192 forward single #
loop $-1 $193 $194 $76 #
cone-surface $-1 53.10643187668137 18.790616991291696 3.2181717021770462 -0.77714596973225614 0 -0.62932038083071107 0.15733009520767777 0 -0.19428649243306403 1 I I -0.70710678118654746 0.70710678118654746 0.25 forward I I I I #
loop $-1 $-1 $195 $51 #
coedge $-1 $123 $123 $196 $197 reversed $77 $-1 #
face $-1 $198 $199 $41 $-1 $200 reversed single #
loop $-1 $-1 $201 $79 #
plane-surface $-1 -56.121097445600725 15.661729172541666 1.4839004152409387 -0.73135370988377701 0 0.68199835119979291 0.68199835119979291 0 0.73135370988377701 forward_v I I I I #
coedge $-1 $202 $203 $204 $205 reversed $80 $-1 #
face $-1 $-1 $206 $42 $-1 $207 forward single #
loop $-1 $208 $209 $82 #
cone-surface $-1 -52.855053554842321 13.595651852774825 3.1534547684828569 0.73135370988377701 0 -0.68199835119979291 0.17049958779994823 0 0.18283842747094425 1 I I -0.70710678118654746 0.70710678118654746 0.25 forward I I I I #
loop $-1 $-1 $210 $53 #
coedge $-1 $132 $132 $211 $212 reversed $83 $-1 #
face $-1 $-1 $213 $43 $-1 $214 forward single #
loop $-1 $215 $216 $85 #
cone-surface $-1 -52.855053554842321 17.727806492308499 3.1534547684828569 0.73135370988377701 0 -0.68199835119979291 0.17049958779994823 0 0.18283842747094425 1 I I -0.70710678118654746 0.70710678118654746 0.25 forward I I I I #
loop $-1 $-1 $217 $54 #
coedge $-1 $137 $137 $218 $219 reversed $86 $-1 #
face $-1 $220 $221 $33 $-1 $222 reversed single #
loop $-1 $-1 $223 $88 #
plane-surface $-1 0 -26.762982774596782 0 0 1 0 0 0 1 forward_v I I I I #
coedge $-1 $224 $225 $226 $227 forward $89 $-1 #
coedge $-1 $228 $91 $229 $230 forward $56 $-1 #
coedge $-1 $91 $228 $231 $232 forward $56 $-1 #
coedge $-1 $233 $234 $91 $145 reversed $235 $-1 #
edge $-1 $236 -26.762982774596782 $237 26.762982774596782 $144 $238 forward 7 unknown #
face $-1 $239 $240 $34 $-1 $241 reversed single #
loop $-1 $-1 $242 $92 #
plane-surface $-1 0 0 6.5280049997242591 0 0 1 1 0 0 forward_v I I I I #
coedge $-1 $243 $244 $245 $246 reversed $93 $-1 #
coedge $-1 $247 $95 $248 $249 reversed $59 $-1 #
coedge $-1 $95 $247 $250 $251 reversed $59 $-1 #
coedge $-1 $244 $243 $95 $153 reversed $93 $-1 #
edge $-1 $252 -6.5280049997242591 $253 6.5280049997242591 $152 $254 forward 7 unknown #
face $-1 $255 $256 $35 $-1 $257 reversed single #
loop $-1 $-1 $258 $96 #
plane-surface $-1 72.713366004994612 -12.472890714574429 159.34650958451212 0 1 0 0.77714596973225614 0 0.62932038083071107 forward_v I I I I #
coedge $-1 $259 $260 $261 $262 reversed $97 $-1 #
coedge $-1 $159 $99 $263 $264 reversed $62 $-1 #
coedge $-1 $99 $158 $259 $265 reversed $62 $-1 #
coedge $-1 $261 $266 $99 $161 forward $267 $-1 #
edge $-1 $268 -19.764414443103448 $269 -15.677948229595302 $160 $270 forward 7 unknown #
loop $-1 $-1 $167 $100 #
plane-surface $-1 -14.515203388605073 -8.8387876685112303 88.710208750306293 0.77714596973225614 0 0.62932038083071107 0.62932038083071107 0 -0.77714596973225614 forward_v I I I I #
loop $-1 $-1 $271 $64 #
coedge $-1 $165 $165 $166 $272 reversed $101 $-1 #
coedge $-1 $166 $166 $165 $272 forward $103 $-1 #
coedge $-1 $167 $167 $104 $168 forward $162 $-1 #
edge $-1 $273 0 $273 6.2831853071796004 $167 $274 forward 7 unknown #
loop $-1 $-1 $174 $105 #
plane-surface $-1 -14.515203388605073 -8.8387876685112303 88.710208750306293 0.77714596973225614 0 0.62932038083071107 0.62932038083071107 0 -0.77714596973225614 forward_v I I I I #
loop $-1 $-1 $275 $67 #
coedge $-1 $172 $172 $173 $276 reversed $106 $-1 #
coedge $-1 $173 $173 $172 $276 forward $108 $-1 #
coedge $-1 $174 $174 $109 $175 forward $169 $-1 #
edge $-1 $277 0 $277 6.2831853071796004 $174 $278 forward 7 unknown #
face $-1 $279 $280 $38 $-1 $281 reversed single #
loop $-1 $-1 $282 $110 #
plane-surface $-1 72.713366004994612 13.59904121120141 159.34650958451212 0 1 0 0.77714596973225614 0 0.62932038083071107 forward_v I I I I #
coedge $-1 $283 $284 $285 $286 reversed $111 $-1 #
coedge $-1 $181 $113 $287 $288 reversed $71 $-1 #
coedge $-1 $113 $180 $283 $289 reversed $71 $-1 #
coedge $-1 $285 $290 $113 $183 forward $291 $-1 #
edge $-1 $292 -19.764414443103448 $293 -15.677948229595302 $182 $294 forward 7 unknown #
loop $-1 $-1 $189 $114 #
plane-surface $-1 -14.515203388605073 17.233144257264609 88.710208750306293 0.77714596973225614 0 0.62932038083071107 0.62932038083071107 0 -0.77714596973225614 forward_v I I I I #
loop $-1 $-1 $295 $73 #
coedge $-1 $187 $187 $188 $296 reversed $115 $-1 #
coedge $-1 $188 $188 $187 $296 forward $117 $-1 #
coedge $-1 $189 $189 $118 $190 forward $184 $-1 #
edge $-1 $297 0 $297 6.2831853071796004 $189 $298 forward 7 unknown #
loop $-1 $-1 $196 $119 #
plane-surface $-1 -14.515203388605073 17.233144257264609 88.710208750306293 0.77714596973225614 0 0.62932038083071107 0.62932038083071107 0 -0.77714596973225614 forward_v I I I I #
loop $-1 $-1 $299 $76 #
coedge $-1 $194 $194 $195 $300 reversed $120 $-1 #
coedge $-1 $195 $195 $194 $300 forward $122 $-1 #
coedge $-1 $196 $196 $123 $197 forward $191 $-1 #
edge $-1 $301 0 $301 6.2831853071796004 $196 $302 forward 7 unknown #
face $-1 $303 $304 $41 $-1 $305 reversed single #
loop $-1 $-1 $306 $124 #
plane-surface $-1 -138.20984308477887 20.482576251997614 78.032892266086179 0 -1 0 0.73135370988377701 0 -0.68199835119979291 forward_v I I I I #
coedge $-1 $307 $308 $309 $310 reversed $125 $-1 #
coedge $-1 $203 $127 $311 $312 reversed $80 $-1 #
coedge $-1 $127 $202 $307 $313 reversed $80 $-1 #
coedge $-1 $309 $314 $127 $205 forward $315 $-1 #
edge $-1 $316 12.98382409678868 $317 17.687527603596131 $204 $318 forward 7 unknown #
loop $-1 $-1 $211 $128 #
plane-surface $-1 -56.121097445600725 15.661729172541666 1.4839004152409387 -0.73135370988377701 0 0.68199835119979291 0.68199835119979291 0 0.73135370988377701 forward_v I I I I #
loop $-1 $-1 $319 $82 #
coedge $-1 $209 $209 $210 $320 reversed $129 $-1 #
coedge $-1 $210 $210 $209 $320 forward $131 $-1 #
coedge $-1 $211 $211 $132 $212 forward $206 $-1 #
edge $-1 $321 0 $321 6.2831853071796004 $211 $322 forward 7 unknown #
loop $-1 $-1 $218 $133 #
plane-surface $-1 -56.121097445600725 15.661729172541666 1.4839004152409387 -0.73135370988377701 0 0.68199835119979291 0.68199835119979291 0 0.73135370988377701 forward_v I I I I #
loop $-1 $-1 $323 $85 #
coedge $-1 $216 $216 $217 $324 reversed $134 $-1 #
coedge $-1 $217 $217 $216 $324 forward $136 $-1 #
coedge $-1 $218 $218 $137 $219 forward $213 $-1 #
edge $-1 $325 0 $325 6.2831853071796004 $218 $326 forward 7 unknown #
face $-1 $327 $328 $33 $-1 $329 reversed single #
loop $-1 $-1 $330 $138 #
plane-surface $-1 -56.121097445600753 0 0 1 0 0 0 0 -1 forward_v I I I I #
coedge $-1 $331 $231 $332 $333 forward $139 $-1 #
coedge $-1 $334 $141 $331 $335 forward $89 $-1 #
coedge $-1 $141 $334 $336 $337 forward $89 $-1 #
coedge $-1 $234 $233 $141 $227 reversed $235 $-1 #
edge $-1 $338 -26.762982774596782 $339 26.762982774596782 $226 $340 forward 7 unknown #
coedge $-1 $143 $142 $341 $342 forward $56 $-1 #
coedge $-1 $343 $344 $142 $230 reversed $328 $-1 #
edge $-1 $237 -56.121097445600753 $345 56.121097445600753 $229 $346 forward 7 unknown #
coedge $-1 $223 $347 $143 $232 reversed $139 $-1 #
edge $-1 $348 -56.121097445600753 $236 56.121097445600753 $231 $349 forward 7 unknown #
coedge $-1 $226 $144 $347 $350 forward $235 $-1 #
coedge $-1 $144 $226 $343 $351 reversed $235 $-1 #
loop $-1 $-1 $233 $327 #
vertex $-1 $145 $352 #
vertex $-1 $145 $353 #
straight-curve $-1 56.121097445600753 0 6.5280049997242591 0 1 0 I I #
face $-1 $354 $355 $34 $-1 $356 reversed single #
loop $-1 $-1 $357 $146 #
plane-surface $-1 -56.121097445600753 0 0 1 0 0 0 0 -1 forward_v I I I I #
coedge $-1 $250 $358 $244 $359 forward $147 $-1 #
coedge $-1 $152 $149 $360 $361 reversed $93 $-1 #
coedge $-1 $149 $152 $242 $359 reversed $93 $-1 #
coedge $-1 $362 $363 $149 $246 forward $364 $-1 #
edge $-1 $365 -6.5280049997242591 $366 6.5280049997242591 $245 $367 forward 7 unknown #
coedge $-1 $151 $150 $357 $368 reversed $59 $-1 #
coedge $-1 $360 $369 $150 $249 forward $355 $-1 #
edge $-1 $370 -28.810548722800377 $253 -25.810548722800377 $248 $371 forward 7 unknown #
coedge $-1 $372 $242 $151 $251 forward $147 $-1 #
edge $-1 $252 25.810548722800377 $373 28.810548722800377 $250 $374 forward 7 unknown #
vertex $-1 $251 $375 #
vertex $-1 $249 $376 #
straight-curve $-1 -53.121097445600753 -18.368626185843414 0 0 0 -1 I I #
face $-1 $-1 $267 $35 $-1 $377 forward single #
loop $-1 $-1 $378 $154 #
plane-surface $-1 56.121097445600753 0 0 -1 0 0 0 0 1 forward_v I I I I #
coedge $-1 $379 $380 $381 $382 reversed $155 $-1 #
coedge $-1 $383 $157 $159 $265 forward $97 $-1 #
coedge $-1 $157 $383 $379 $384 forward $97 $-1 #
coedge $-1 $381 $160 $157 $262 forward $267 $-1 #
edge $-1 $269 0.78529078819241516 $385 8.0534968803188143 $261 $386 forward 7 unknown #
coedge $-1 $387 $388 $158 $264 forward $256 $-1 #
edge $-1 $389 -78.191615435549451 $268 -73.1452497925318 $263 $390 forward 7 unknown #
edge $-1 $269 105.74873569619824 $389 112.24219489120151 $159 $391 forward 7 unknown #
coedge $-1 $160 $381 $387 $392 forward $267 $-1 #
loop $-1 $-1 $381 $255 #
vertex $-1 $264 $393 #
vertex $-1 $161 $394 #
straight-curve $-1 36.356683002497306 -5.2046846224480303 6.52800499972426 -1 0 0 I I #
coedge $-1 $271 $271 $-1 $395 reversed $164 $-1 #
edge $-1 $396 0 $396 6.2831853071796004 $165 $397 forward 7 unknown #
vertex $-1 $168 $398 #
ellipse-curve $-1 54.077864338846688 -10.396260402538317 4.0048221782154307 0.77714596973225614 0 0.62932038083071107 0.31466019041535553 0 -0.38857298486612807 1 I I #
coedge $-1 $275 $275 $-1 $399 reversed $171 $-1 #
edge $-1 $400 0 $400 6.2831853071796004 $172 $401 forward 7 unknown #
vertex $-1 $175 $402 #
ellipse-curve $-1 54.077864338846688 -7.281314934484147 4.0048221782154307 0.77714596973225614 0 0.62932038083071107 0.31466019041535553 0 -0.38857298486612807 1 I I #
face $-1 $-1 $291 $38 $-1 $403 forward single #
loop $-1 $-1 $404 $176 #
plane-surface $-1 56.121097445600753 0 0 -1 0 0 0 0 1 forward_v I I I I #
coedge $-1 $405 $406 $407 $408 reversed $177 $-1 #
coedge $-1 $409 $179 $181 $289 forward $111 $-1 #
coedge $-1 $179 $409 $405 $410 forward $111 $-1 #
coedge $-1 $407 $182 $179 $286 forward $291 $-1 #
edge $-1 $293 -12.250675174695504 $411 -4.9824690825691054 $285 $412 forward 7 unknown #
coedge $-1 $413 $414 $180 $288 forward $280 $-1 #
edge $-1 $415 -78.191615435549451 $292 -73.1452497925318 $287 $416 forward 7 unknown #
edge $-1 $293 105.74873569619824 $415 112.24219489120151 $181 $417 forward 7 unknown #
coedge $-1 $182 $407 $413 $418 forward $291 $-1 #
loop $-1 $-1 $407 $279 #
vertex $-1 $288 $419 #
vertex $-1 $183 $420 #
straight-curve $-1 36.356683002497306 20.867247303327808 6.52800499972426 -1 0 0 I I #
coedge $-1 $295 $295 $-1 $421 reversed $186 $-1 #
edge $-1 $422 0 $422 6.2831853071796004 $187 $423 forward 7 unknown #
vertex $-1 $190 $424 #
ellipse-curve $-1 54.077864338846688 15.675671523237522 4.0048221782154307 0.77714596973225614 0 0.62932038083071107 0.31466019041535553 0 -0.38857298486612807 1 I I #
coedge $-1 $299 $299 $-1 $425 reversed $193 $-1 #
edge $-1 $426 0 $426 6.2831853071796004 $194 $427 forward 7 unknown #
vertex $-1 $197 $428 #
ellipse-curve $-1 54.077864338846688 18.790616991291696 4.0048221782154307 0.77714596973225614 0 0.62932038083071107 0.31466019041535553 0 -0.38857298486612807 1 I I #
face $-1 $-1 $315 $41 $-1 $429 forward single #
loop $-1 $-1 $430 $198 #
plane-surface $-1 -56.121097445600753 0 0 1 0 0 0 0 -1 forward_v I I I I #
coedge $-1 $431 $432 $433 $434 reversed $199 $-1 #
coedge $-1 $435 $201 $203 $313 forward $125 $-1 #
coedge $-1 $201 $435 $431 $436 forward $125 $-1 #
coedge $-1 $433 $204 $201 $310 forward $315 $-1 #
edge $-1 $317 3.0100175068148847 $437 12.651711665726781 $309 $438 forward 7 unknown #
coedge $-1 $439 $440 $202 $312 forward $304 $-1 #
edge $-1 $441 -37.532545717802179 $316 -32.48844113331883 $311 $442 forward 7 unknown #
edge $-1 $317 -6.8969426370789897 $441 4.163141991312423e-014 $203 $443 forward 7 unknown #
coedge $-1 $204 $433 $439 $444 forward $315 $-1 #
loop $-1 $-1 $433 $303 #
vertex $-1 $312 $445 #
vertex $-1 $205 $446 #
straight-curve $-1 -69.104921542389434 10.840882093085717 6.52800499972426 1 0 0 I I #
coedge $-1 $319 $319 $-1 $447 reversed $208 $-1 #
edge $-1 $448 0 $448 6.2831853071796004 $209 $449 forward 7 unknown #
vertex $-1 $212 $450 #
ellipse-curve $-1 -53.769245692197025 13.595651852774825 4.0059527074825851 -0.73135370988377701 0 0.68199835119979291 0.34099917559989645 0 0.36567685494188851 1 I I #
coedge $-1 $323 $323 $-1 $451 reversed $215 $-1 #
edge $-1 $452 0 $452 6.2831853071796004 $216 $453 forward 7 unknown #
vertex $-1 $219 $454 #
ellipse-curve $-1 -53.769245692197025 17.727806492308499 4.0059527074825851 -0.73135370988377701 0 0.68199835119979291 0.34099917559989645 0 0.36567685494188851 1 I I #
face $-1 $-1 $235 $33 $-1 $455 reversed single #
loop $-1 $-1 $343 $220 #
plane-surface $-1 0 26.762982774596782 0 0 -1 0 0 0 -1 forward_v I I I I #
coedge $-1 $456 $341 $344 $457 forward $221 $-1 #
coedge $-1 $347 $223 $224 $335 reversed $139 $-1 #
coedge $-1 $341 $456 $223 $333 reversed $221 $-1 #
edge $-1 $348 -6.5280049997242591 $458 6.5280049997242591 $332 $459 forward 7 unknown #
coedge $-1 $225 $224 $456 $460 forward $89 $-1 #
edge $-1 $339 -56.121097445600753 $458 56.121097445600753 $331 $461 forward 7 unknown #
coedge $-1 $344 $343 $225 $337 reversed $328 $-1 #
edge $-1 $462 -56.121097445600753 $338 56.121097445600753 $336 $463 forward 7 unknown #
vertex $-1 $227 $464 #
vertex $-1 $350 $465 #
straight-curve $-1 56.121097445600753 0 -6.5280049997242591 0 -1 0 I I #
coedge $-1 $330 $332 $228 $342 reversed $221 $-1 #
edge $-1 $345 -26.762982774596782 $348 26.762982774596782 $341 $466 forward 7 unknown #
coedge $-1 $336 $229 $234 $351 forward $328 $-1 #
coedge $-1 $229 $336 $330 $457 reversed $328 $-1 #
vertex $-1 $230 $467 #
straight-curve $-1 0 26.762982774596782 6.5280049997242591 -1 0 0 I I #
coedge $-1 $231 $331 $233 $350 reversed $139 $-1 #
vertex $-1 $342 $468 #
straight-curve $-1 0 -26.762982774596782 6.5280049997242591 1 0 0 I I #
edge $-1 $236 -6.5280049997242591 $339 6.5280049997242591 $233 $469 forward 7 unknown #
edge $-1 $237 -6.5280049997242591 $338 6.5280049997242591 $234 $470 forward 7 unknown #
point $-1 56.121097445600753 -26.762982774596782 6.5280049997242591 #
point $-1 56.121097445600753 26.762982774596782 6.5280049997242591 #
face $-1 $-1 $364 $34 $-1 $471 reversed single #
loop $-1 $-1 $360 $239 #
plane-surface $-1 0 0 -6.5280049997242591 0 0 1 1 0 0 forward_v I I I I #
coedge $-1 $472 $473 $247 $368 forward $240 $-1 #
coedge $-1 $242 $372 $362 $474 forward $147 $-1 #
edge $-1 $366 -15.480080534486733 $252 -7.0857239457333652 $242 $475 forward 7 unknown #
coedge $-1 $476 $248 $243 $361 forward $355 $-1 #
edge $-1 $253 7.0857239457333652 $365 15.480080534486733 $360 $477 forward 7 unknown #
coedge $-1 $478 $245 $358 $474 reversed $364 $-1 #
coedge $-1 $245 $478 $476 $479 reversed $364 $-1 #
loop $-1 $-1 $245 $354 #
vertex $-1 $479 $480 #
vertex $-1 $246 $481 #
straight-curve $-1 -53.121097445600753 -26.762982774596782 0 0 0 1 I I #
edge $-1 $373 -6.5280049997242591 $370 6.5280049997242591 $357 $482 forward 7 unknown #
coedge $-1 $248 $476 $472 $483 forward $355 $-1 #
vertex $-1 $249 $484 #
straight-curve $-1 -27.310548722800377 -18.368626185843414 -6.5280049997242591 1 0 0 I I #
coedge $-1 $358 $250 $473 $485 forward $147 $-1 #
vertex $-1 $485 $486 #
straight-curve $-1 -27.310548722800377 -18.368626185843414 6.5280049997242591 -1 0 0 I I #
point $-1 -53.121097445600753 -18.368626185843414 6.5280049997242591 #
point $-1 -53.121097445600753 -18.368626185843414 -6.5280049997242591 #
plane-surface $-1 0 0 6.5280049997242591 0 0 1 1 0 0 forward_v I I I I #
coedge $-1 $388 $387 $380 $487 forward $256 $-1 #
coedge $-1 $380 $258 $260 $384 reversed $155 $-1 #
coedge $-1 $258 $379 $378 $487 reversed $155 $-1 #
coedge $-1 $266 $261 $258 $382 forward $267 $-1 #
edge $-1 $385 15.677948229595302 $488 19.764414443103448 $381 $489 forward 7 unknown #
coedge $-1 $260 $259 $388 $490 reversed $97 $-1 #
edge $-1 $491 -112.24219489120151 $385 -105.74873569619824 $379 $492 forward 7 unknown #
vertex $-1 $262 $493 #
straight-curve $-1 52.034631232092615 -4.4193938342556152 6.5280049997242671 0 -1 0 I I #
coedge $-1 $378 $263 $266 $392 reversed $256 $-1 #
coedge $-1 $263 $378 $383 $490 forward $256 $-1 #
vertex $-1 $264 $494 #
straight-curve $-1 56.121097445600753 -5.2046846224480303 79.67325479225606 0 0 1 I I #
straight-curve $-1 -14.515203388605073 -5.2046846224480303 88.710208750306293 0.62932038083071107 0 -0.77714596973225614 I I #
edge $-1 $488 -12.472890714574429 $268 -5.2046846224480303 $387 $495 forward 7 unknown #
point $-1 56.121097445600753 -5.2046846224480303 6.5280049997242591 #
point $-1 52.034631232092607 -5.2046846224480303 6.52800499972426 #
edge $-1 $496 1 $496 0 $271 $-1 forward 7 unknown #
vertex $-1 $272 $497 #
ellipse-curve $-1 53.300718369114435 -10.396260402538317 3.3755017973847239 0.77714596973225614 0 0.62932038083071107 0.31466019041535553 0 -0.38857298486612807 1 I I #
point $-1 54.392524529262047 -10.396260402538317 3.6162491933493071 #
edge $-1 $498 1 $498 0 $275 $-1 forward 7 unknown #
vertex $-1 $276 $499 #
ellipse-curve $-1 53.300718369114435 -7.281314934484147 3.3755017973847239 0.77714596973225614 0 0.62932038083071107 0.31466019041535553 0 -0.38857298486612807 1 I I #
point $-1 54.392524529262047 -7.281314934484147 3.6162491933493071 #
plane-surface $-1 0 0 6.5280049997242591 0 0 1 1 0 0 forward_v I I I I #
coedge $-1 $414 $413 $406 $500 forward $280 $-1 #
coedge $-1 $406 $282 $284 $410 reversed $177 $-1 #
coedge $-1 $282 $405 $404 $500 reversed $177 $-1 #
coedge $-1 $290 $285 $282 $408 forward $291 $-1 #
edge $-1 $411 15.677948229595302 $501 19.764414443103448 $407 $502 forward 7 unknown #
coedge $-1 $284 $283 $414 $503 reversed $111 $-1 #
edge $-1 $504 -112.24219489120151 $411 -105.74873569619824 $405 $505 forward 7 unknown #
vertex $-1 $286 $506 #
straight-curve $-1 52.034631232092615 8.6165721286323045 6.5280049997242671 0 -1 0 I I #
coedge $-1 $404 $287 $290 $418 reversed $280 $-1 #
coedge $-1 $287 $404 $409 $503 forward $280 $-1 #
vertex $-1 $288 $507 #
straight-curve $-1 56.121097445600753 20.867247303327808 79.67325479225606 0 0 1 I I #
straight-curve $-1 -14.515203388605073 20.867247303327808 88.710208750306293 0.62932038083071107 0 -0.77714596973225614 I I #
edge $-1 $501 13.59904121120141 $292 20.867247303327808 $413 $508 forward 7 unknown #
point $-1 56.121097445600753 20.867247303327808 6.5280049997242591 #
point $-1 52.034631232092607 20.867247303327808 6.52800499972426 #
edge $-1 $509 1 $509 0 $295 $-1 forward 7 unknown #
vertex $-1 $296 $510 #
ellipse-curve $-1 53.300718369114435 15.675671523237522 3.3755017973847239 0.77714596973225614 0 0.62932038083071107 0.31466019041535553 0 -0.38857298486612807 1 I I #
point $-1 54.392524529262047 15.675671523237522 3.6162491933493071 #
edge $-1 $511 1 $511 0 $299 $-1 forward 7 unknown #
vertex $-1 $300 $512 #
ellipse-curve $-1 53.300718369114435 18.790616991291696 3.3755017973847239 0.77714596973225614 0 0.62932038083071107 0.31466019041535553 0 -0.38857298486612807 1 I I #
point $-1 54.392524529262047 18.790616991291696 3.6162491933493071 #
plane-surface $-1 0 0 6.5280049997242591 0 0 1 1 0 0 forward_v I I I I #
coedge $-1 $440 $439 $432 $513 forward $304 $-1 #
coedge $-1 $432 $306 $308 $436 reversed $199 $-1 #
coedge $-1 $306 $431 $430 $513 reversed $199 $-1 #
coedge $-1 $314 $309 $306 $434 forward $315 $-1 #
edge $-1 $437 -17.687527603596131 $514 -12.98382409678868 $433 $515 forward 7 unknown #
coedge $-1 $308 $307 $440 $516 reversed $125 $-1 #
edge $-1 $517 -4.163141991312423e-014 $437 6.8969426370789897 $431 $518 forward 7 unknown #
vertex $-1 $310 $519 #
straight-curve $-1 -51.417393938793303 7.8308645862708328 6.5280049997242582 0 1 0 I I #
coedge $-1 $430 $311 $314 $444 reversed $304 $-1 #
coedge $-1 $311 $430 $435 $516 forward $304 $-1 #
vertex $-1 $312 $520 #
straight-curve $-1 -56.121097445600753 10.840882093085717 39.01644613304309 0 0 1 I I #
straight-curve $-1 -56.121097445600725 10.840882093085717 1.4839004152409387 -0.68199835119979291 0 -0.73135370988377701 I I #
edge $-1 $514 -20.482576251997614 $316 -10.840882093085717 $439 $521 forward 7 unknown #
point $-1 -56.121097445600753 10.840882093085717 6.5280049997242591 #
point $-1 -51.417393938793303 10.840882093085717 6.5280049997242591 #
edge $-1 $522 1 $522 0 $319 $-1 forward 7 unknown #
vertex $-1 $320 $523 #
ellipse-curve $-1 -53.037891982313269 13.595651852774825 3.3239543562828051 -0.73135370988377701 0 0.68199835119979291 0.34099917559989645 0 0.36567685494188851 1 I I #
point $-1 -53.428246516597149 13.595651852774825 4.3716295624244861 #
edge $-1 $524 1 $524 0 $323 $-1 forward 7 unknown #
vertex $-1 $324 $525 #
ellipse-curve $-1 -53.037891982313269 17.727806492308499 3.3239543562828051 -0.73135370988377701 0 0.68199835119979291 0.34099917559989645 0 0.36567685494188851 1 I I #
point $-1 -53.428246516597149 17.727806492308499 4.3716295624244861 #
plane-surface $-1 56.121097445600753 0 0 -1 0 0 0 0 1 forward_v I I I I #
coedge $-1 $332 $330 $334 $460 reversed $221 $-1 #
edge $-1 $345 -6.5280049997242591 $462 6.5280049997242591 $344 $526 forward 7 unknown #
vertex $-1 $460 $527 #
straight-curve $-1 -56.121097445600753 -26.762982774596782 0 0 0 -1 I I #
edge $-1 $458 -26.762982774596782 $462 26.762982774596782 $456 $528 forward 7 unknown #
straight-curve $-1 0 -26.762982774596782 -6.5280049997242591 -1 0 0 I I #
vertex $-1 $337 $529 #
straight-curve $-1 0 26.762982774596782 -6.5280049997242591 1 0 0 I I #
point $-1 56.121097445600753 26.762982774596782 -6.5280049997242591 #
point $-1 56.121097445600753 -26.762982774596782 -6.5280049997242591 #
straight-curve $-1 -56.121097445600753 0 6.5280049997242591 0 -1 0 I I #
point $-1 -56.121097445600753 26.762982774596782 6.5280049997242591 #
point $-1 -56.121097445600753 -26.762982774596782 6.5280049997242591 #
straight-curve $-1 56.121097445600753 -26.762982774596782 0 0 0 -1 I I #
straight-curve $-1 56.121097445600753 26.762982774596782 0 0 0 -1 I I #
plane-surface $-1 0 -26.762982774596782 0 0 1 0 0 0 1 forward_v I I I I #
coedge $-1 $530 $357 $369 $483 reversed $240 $-1 #
coedge $-1 $357 $530 $372 $485 reversed $240 $-1 #
edge $-1 $531 -56.121097445600753 $366 -53.121097445600753 $362 $532 forward 7 unknown #
straight-curve $-1 -53.121097445600753 -11.282902240110049 6.5280049997242591 0 1 0 I I #
coedge $-1 $369 $360 $363 $479 forward $355 $-1 #
straight-curve $-1 -53.121097445600753 -11.282902240110049 -6.5280049997242591 0 -1 0 I I #
coedge $-1 $363 $362 $530 $533 forward $364 $-1 #
edge $-1 $365 53.121097445600753 $534 56.121097445600753 $363 $535 forward 7 unknown #
point $-1 -53.121097445600753 -26.762982774596782 -6.5280049997242591 #
point $-1 -53.121097445600753 -26.762982774596782 6.5280049997242591 #
straight-curve $-1 -56.121097445600753 -18.368626185843414 0 0 0 -1 I I #
edge $-1 $534 -26.762982774596782 $370 -18.368626185843414 $472 $536 forward 7 unknown #
point $-1 -56.121097445600753 -18.368626185843414 -6.5280049997242591 #
edge $-1 $373 18.368626185843414 $531 26.762982774596782 $473 $537 forward 7 unknown #
point $-1 -56.121097445600753 -18.368626185843414 6.5280049997242591 #
edge $-1 $488 73.1452497925318 $491 78.191615435549451 $378 $538 forward 7 unknown #
vertex $-1 $392 $539 #
straight-curve $-1 36.356683002497306 -12.472890714574429 6.52800499972426 1 0 0 I I #
edge $-1 $491 -8.0534968803188143 $389 -0.78529078819241516 $388 $540 forward 7 unknown #
vertex $-1 $490 $541 #
straight-curve $-1 -14.515203388605073 -12.472890714574429 88.710208750306293 -0.62932038083071107 0 0.77714596973225614 I I #
point $-1 52.034631232092607 -12.472890714574429 6.52800499972426 #
point $-1 56.121097445600753 -5.2046846224480303 1.4816393567066086 #
straight-curve $-1 56.121097445600753 0 6.5280049997242591 0 1 0 I I #
vertex $-1 $395 $542 #
point $-1 53.615378559529788 -10.396260402538317 2.9869288125185958 #
vertex $-1 $399 $543 #
point $-1 53.615378559529788 -7.281314934484147 2.9869288125185958 #
edge $-1 $501 73.1452497925318 $504 78.191615435549451 $404 $544 forward 7 unknown #
vertex $-1 $418 $545 #
straight-curve $-1 36.356683002497306 13.59904121120141 6.52800499972426 1 0 0 I I #
edge $-1 $504 4.9824690825691054 $415 12.250675174695504 $414 $546 forward 7 unknown #
vertex $-1 $503 $547 #
straight-curve $-1 -14.515203388605073 13.59904121120141 88.710208750306293 -0.62932038083071107 0 0.77714596973225614 I I #
point $-1 52.034631232092607 13.59904121120141 6.52800499972426 #
point $-1 56.121097445600753 20.867247303327808 1.4816393567066086 #
straight-curve $-1 56.121097445600753 0 6.5280049997242591 0 1 0 I I #
vertex $-1 $421 $548 #
point $-1 53.615378559529788 15.675671523237522 2.9869288125185958 #
vertex $-1 $425 $549 #
point $-1 53.615378559529788 18.790616991291696 2.9869288125185958 #
edge $-1 $514 32.48844113331883 $517 37.532545717802179 $430 $550 forward 7 unknown #
vertex $-1 $444 $551 #
straight-curve $-1 -69.104921542389434 20.482576251997614 6.52800499972426 -1 0 0 I I #
edge $-1 $517 -12.651711665726781 $441 -3.0100175068148847 $440 $552 forward 7 unknown #
vertex $-1 $516 $553 #
straight-curve $-1 -56.121097445600725 20.482576251997614 1.4839004152409387 0.68199835119979291 0 0.73135370988377701 I I #
point $-1 -51.417393938793303 20.482576251997614 6.5280049997242591 #
point $-1 -56.121097445600753 10.840882093085717 1.4839004152409083 #
straight-curve $-1 -56.121097445600753 0 6.5280049997242591 0 -1 0 I I #
vertex $-1 $447 $554 #
point $-1 -52.696892806713372 13.595651852774825 3.6896312112246936 #
vertex $-1 $451 $555 #
point $-1 -52.696892806713372 17.727806492308499 3.6896312112246936 #
straight-curve $-1 -56.121097445600753 26.762982774596782 0 0 0 -1 I I #
point $-1 -56.121097445600753 -26.762982774596782 -6.5280049997242591 #
straight-curve $-1 -56.121097445600753 0 -6.5280049997242591 0 1 0 I I #
point $-1 -56.121097445600753 26.762982774596782 -6.5280049997242591 #
coedge $-1 $473 $472 $478 $533 reversed $240 $-1 #
vertex $-1 $485 $556 #
straight-curve $-1 0 -26.762982774596782 6.5280049997242591 1 0 0 I I #
edge $-1 $531 -6.5280049997242591 $534 6.5280049997242591 $530 $557 forward 7 unknown #
vertex $-1 $483 $558 #
straight-curve $-1 0 -26.762982774596782 -6.5280049997242591 -1 0 0 I I #
straight-curve $-1 -56.121097445600753 0 -6.5280049997242591 0 1 0 I I #
straight-curve $-1 -56.121097445600753 0 6.5280049997242591 0 -1 0 I I #
straight-curve $-1 56.121097445600753 -12.472890714574429 79.67325479225606 0 0 -1 I I #
point $-1 56.121097445600753 -12.472890714574429 6.5280049997242591 #
straight-curve $-1 56.121097445600753 -4.4193938342556152 1.4816393567066086 0 1 0 I I #
point $-1 56.121097445600753 -12.472890714574429 1.4816393567066086 #
point $-1 52.912145384248305 -10.396260402538317 3.0608416069693685 #
point $-1 52.912145384248305 -7.281314934484147 3.0608416069693685 #
straight-curve $-1 56.121097445600753 13.59904121120141 79.67325479225606 0 0 -1 I I #
point $-1 56.121097445600753 13.59904121120141 6.5280049997242591 #
straight-curve $-1 56.121097445600753 8.6165721286323045 1.4816393567066086 0 1 0 I I #
point $-1 56.121097445600753 13.59904121120141 1.4816393567066086 #
point $-1 52.912145384248305 15.675671523237522 3.0608416069693685 #
point $-1 52.912145384248305 18.790616991291696 3.0608416069693685 #
straight-curve $-1 -56.121097445600753 20.482576251997614 39.01644613304309 0 0 -1 I I #
point $-1 -56.121097445600753 20.482576251997614 6.5280049997242591 #
straight-curve $-1 -56.121097445600753 7.8308645862708328 1.4839004152409068 0 -1 0 I I #
point $-1 -56.121097445600753 20.482576251997614 1.4839004152409083 #
point $-1 -52.672215127371373 13.595651852774825 2.9829551806829087 #
point $-1 -52.672215127371373 17.727806492308499 2.9829551806829087 #
point $-1 -56.121097445600753 -26.762982774596782 6.5280049997242591 #
straight-curve $-1 -56.121097445600753 -26.762982774596782 0 0 0 -1 I I #
point $-1 -56.121097445600753 -26.762982774596782 -6.5280049997242591 #
End-of-ACIS-data 