500 0 10 0           
7 Unknown 11 ACIS 5.0 NT 24 Thu Mar 25 15:40:09 1999 
-1 9.9999999999999995e-007 1e-010 
body $-1 $10 $-1 $11 #
body $-1 $12 $-1 $13 #
body $-1 $14 $-1 $15 #
body $-1 $16 $-1 $17 #
body $-1 $18 $-1 $19 #
body $-1 $20 $-1 $21 #
body $-1 $22 $-1 $23 #
body $-1 $24 $-1 $25 #
body $-1 $26 $-1 $27 #
body $-1 $28 $-1 $29 #
lump $-1 $-1 $30 $0 #
transform $-1 1 0 0 0 1 0 0 0 1 57.985168004394666 25.927600604766639 5.8848460712842323 1 rotate no_reflect no_shear #
lump $-1 $-1 $31 $1 #
transform $-1 1 0 0 0 1 0 0 0 1 57.985168004394666 25.927600604766639 5.8848460712842323 1 rotate no_reflect no_shear #
lump $-1 $-1 $32 $2 #
transform $-1 1 0 0 0 1 0 0 0 1 57.985168004394666 25.927600604766639 5.8848460712842323 1 rotate no_reflect no_shear #
lump $-1 $-1 $33 $3 #
transform $-1 1 0 0 0 1 0 0 0 1 57.985168004394666 25.927600604766639 5.8848460712842323 1 rotate no_reflect no_shear #
lump $-1 $-1 $34 $4 #
transform $-1 1 0 0 0 1 0 0 0 1 57.985168004394666 25.927600604766639 5.8848460712842323 1 rotate no_reflect no_shear #
lump $-1 $-1 $35 $5 #
transform $-1 1 0 0 0 1 0 0 0 1 57.985168004394666 25.927600604766639 5.8848460712842323 1 rotate no_reflect no_shear #
lump $-1 $-1 $36 $6 #
transform $-1 1 0 0 0 1 0 0 0 1 57.985168004394666 25.927600604766639 5.8848460712842323 1 rotate no_reflect no_shear #
lump $-1 $-1 $37 $7 #
transform $-1 1 0 0 0 1 0 0 0 1 57.985168004394666 25.927600604766639 5.8848460712842323 1 rotate no_reflect no_shear #
lump $-1 $-1 $38 $8 #
transform $-1 1 0 0 0 1 0 0 0 1 57.985168004394666 25.927600604766639 5.8848460712842323 1 rotate no_reflect no_shear #
lump $-1 $-1 $39 $9 #
transform $-1 1 0 0 0 1 0 0 0 1 57.985168004394666 25.927600604766639 5.8848460712842323 1 rotate no_reflect no_shear #
shell $-1 $-1 $-1 $40 $-1 $10 #
shell $-1 $-1 $-1 $41 $-1 $12 #
shell $-1 $-1 $-1 $42 $-1 $14 #
shell $-1 $-1 $-1 $43 $-1 $16 #
shell $-1 $-1 $-1 $44 $-1 $18 #
shell $-1 $-1 $-1 $45 $-1 $20 #
shell $-1 $-1 $-1 $46 $-1 $22 #
shell $-1 $-1 $-1 $47 $-1 $24 #
shell $-1 $-1 $-1 $48 $-1 $26 #
shell $-1 $-1 $-1 $49 $-1 $28 #
face $-1 $50 $51 $30 $-1 $52 forward single #
face $-1 $53 $54 $31 $-1 $55 reversed single #
face $-1 $56 $57 $32 $-1 $58 reversed single #
face $-1 $59 $60 $33 $-1 $61 forward single #
face $-1 $62 $63 $34 $-1 $64 reversed single #
face $-1 $65 $66 $35 $-1 $67 forward single #
face $-1 $68 $69 $36 $-1 $70 reversed single #
face $-1 $71 $72 $37 $-1 $73 forward single #
face $-1 $74 $75 $38 $-1 $76 reversed single #
face $-1 $77 $78 $39 $-1 $79 forward single #
face $-1 $80 $81 $30 $-1 $82 reversed single #
loop $-1 $-1 $83 $40 #
plane-surface $-1 0 0 5.8848460712842323 0 0 1 1 0 0 forward_v I I I I #
face $-1 $84 $85 $31 $-1 $86 reversed single #
loop $-1 $-1 $87 $41 #
plane-surface $-1 -49.215475861826199 -22.864330521044266 0 1 0 0 0 0 -1 forward_v I I I I #
face $-1 $88 $89 $32 $-1 $90 reversed single #
loop $-1 $-1 $91 $42 #
plane-surface $-1 26.691192471837866 0.34919974289641686 162.74451846531022 0 -1 0 -0.55919291073839883 0 -0.82903756765294845 forward_v I I I I #
face $-1 $92 $93 $33 $-1 $94 forward single #
loop $-1 $95 $96 $43 #
cone-surface $-1 54.335864964433611 -4.5694734539984125 2.9507006375819289 -0.55919291073839883 0 -0.82903756765294845 0.82903756765294845 0 -0.55919291073839883 1 I I 0 1 1 forward I I I I #
face $-1 $97 $98 $34 $-1 $99 reversed single #
loop $-1 $-1 $100 $44 #
plane-surface $-1 26.691192471837866 15.614686818337979 162.74451846531022 0 -1 0 -0.55919291073839883 0 -0.82903756765294845 forward_v I I I I #
face $-1 $101 $102 $35 $-1 $103 forward single #
loop $-1 $104 $105 $45 #
cone-surface $-1 54.335864964433611 10.69601362144315 2.9507006375819289 -0.55919291073839883 0 -0.82903756765294845 0.82903756765294845 0 -0.55919291073839883 1 I I 0 1 1 forward I I I I #
face $-1 $106 $107 $36 $-1 $108 reversed single #
loop $-1 $-1 $109 $46 #
plane-surface $-1 -122.83495775645972 -9.4881466508932419 97.894728713245186 0 1 0 -0.55919291073839883 0 0.82903756765294845 forward_v I I I I #
face $-1 $110 $111 $37 $-1 $112 forward single #
loop $-1 $113 $114 $47 #
cone-surface $-1 -54.335864964433611 -4.5694734539984125 2.9507006375819271 0.55919291073839883 0 -0.82903756765294845 0.82903756765294845 0 0.55919291073839883 1 I I 0 1 1 forward I I I I #
face $-1 $115 $116 $38 $-1 $117 reversed single #
loop $-1 $-1 $118 $48 #
plane-surface $-1 -122.83495775645972 5.7773404245483206 97.894728713245186 0 1 0 -0.55919291073839883 0 0.82903756765294845 forward_v I I I I #
face $-1 $119 $120 $39 $-1 $121 forward single #
loop $-1 $122 $123 $49 #
cone-surface $-1 -54.335864964433611 10.69601362144315 2.9507006375819271 0.55919291073839883 0 -0.82903756765294845 0.82903756765294845 0 0.55919291073839883 1 I I 0 1 1 forward I I I I #
face $-1 $124 $125 $30 $-1 $126 reversed single #
loop $-1 $-1 $127 $50 #
plane-surface $-1 0 0 -5.8848460712842323 0 0 1 1 0 0 forward_v I I I I #
coedge $-1 $128 $129 $130 $131 forward $51 $-1 #
face $-1 $132 $133 $31 $-1 $134 reversed single #
loop $-1 $-1 $135 $53 #
plane-surface $-1 -47.715475861826199 -19.801060437321894 0 0 -1 0 0 0 -1 forward_v I I I I #
coedge $-1 $136 $137 $138 $139 forward $54 $-1 #
face $-1 $140 $141 $32 $-1 $142 reversed single #
loop $-1 $-1 $143 $56 #
plane-surface $-1 -38.158597280227184 -4.5694734539984125 66.600753180688372 0.55919291073839883 0 0.82903756765294845 0.82903756765294845 0 -0.55919291073839883 forward_v I I I I #
coedge $-1 $144 $145 $146 $147 reversed $57 $-1 #
face $-1 $-1 $148 $33 $-1 $149 forward single #
loop $-1 $150 $151 $59 #
cone-surface $-1 53.471331938367854 -4.5694734539984125 1.6689777413835971 -0.55919291073839883 0 -0.82903756765294845 0.41451878382647422 0 -0.27959645536919941 1 I I -0.70710678118654746 0.70710678118654746 0.5 forward I I I I #
loop $-1 $-1 $152 $43 #
coedge $-1 $96 $96 $153 $154 reversed $60 $-1 #
face $-1 $155 $156 $34 $-1 $157 reversed single #
loop $-1 $-1 $158 $62 #
plane-surface $-1 -38.158597280227184 10.69601362144315 66.600753180688372 0.55919291073839883 0 0.82903756765294845 0.82903756765294845 0 -0.55919291073839883 forward_v I I I I #
coedge $-1 $159 $160 $161 $162 reversed $63 $-1 #
face $-1 $-1 $163 $35 $-1 $164 forward single #
loop $-1 $165 $166 $65 #
cone-surface $-1 53.471331938367854 10.69601362144315 1.6689777413835971 -0.55919291073839883 0 -0.82903756765294845 0.41451878382647422 0 -0.27959645536919941 1 I I -0.70710678118654746 0.70710678118654746 0.5 forward I I I I #
loop $-1 $-1 $167 $45 #
coedge $-1 $105 $105 $168 $169 reversed $66 $-1 #
face $-1 $170 $171 $36 $-1 $172 reversed single #
loop $-1 $-1 $173 $68 #
plane-surface $-1 -57.985168004394666 -4.5694734539984125 1.7509634286233364 -0.55919291073839883 0 0.82903756765294845 0.82903756765294845 0 0.55919291073839883 forward_v I I I I #
coedge $-1 $174 $175 $176 $177 reversed $69 $-1 #
face $-1 $-1 $178 $37 $-1 $179 forward single #
loop $-1 $180 $181 $71 #
cone-surface $-1 -53.471331938367854 -4.5694734539984125 1.6689777413835953 0.55919291073839883 0 -0.82903756765294845 0.41451878382647422 0 0.27959645536919941 1 I I -0.70710678118654746 0.70710678118654746 0.5 forward I I I I #
loop $-1 $-1 $182 $47 #
coedge $-1 $114 $114 $183 $184 reversed $72 $-1 #
face $-1 $185 $186 $38 $-1 $187 reversed single #
loop $-1 $-1 $188 $74 #
plane-surface $-1 -57.985168004394666 10.69601362144315 1.7509634286233364 -0.55919291073839883 0 0.82903756765294845 0.82903756765294845 0 0.55919291073839883 forward_v I I I I #
coedge $-1 $189 $190 $191 $192 reversed $75 $-1 #
face $-1 $-1 $193 $39 $-1 $194 forward single #
loop $-1 $195 $196 $77 #
cone-surface $-1 -53.471331938367854 10.69601362144315 1.6689777413835953 0.55919291073839883 0 -0.82903756765294845 0.41451878382647422 0 0.27959645536919941 1 I I -0.70710678118654746 0.70710678118654746 0.5 forward I I I I #
loop $-1 $-1 $197 $49 #
coedge $-1 $123 $123 $198 $199 reversed $78 $-1 #
face $-1 $200 $201 $30 $-1 $202 reversed single #
loop $-1 $-1 $203 $80 #
plane-surface $-1 0 -25.927600604766639 0 0 1 0 0 0 1 forward_v I I I I #
coedge $-1 $204 $205 $206 $207 forward $81 $-1 #
coedge $-1 $208 $83 $209 $210 forward $51 $-1 #
coedge $-1 $83 $208 $211 $212 forward $51 $-1 #
coedge $-1 $213 $214 $83 $131 reversed $215 $-1 #
edge $-1 $216 -25.927600604766639 $217 25.927600604766639 $130 $218 forward 7 unknown #
face $-1 $219 $220 $31 $-1 $221 forward single #
loop $-1 $-1 $222 $84 #
plane-surface $-1 -46.215475861826199 -22.864330521044266 0 -1 0 0 0 0 1 forward_v I I I I #
coedge $-1 $223 $224 $225 $226 forward $85 $-1 #
coedge $-1 $227 $87 $228 $229 reversed $54 $-1 #
coedge $-1 $87 $227 $230 $231 reversed $54 $-1 #
coedge $-1 $224 $223 $87 $139 reversed $85 $-1 #
edge $-1 $232 -5.8848460712842323 $233 5.8848460712842323 $138 $234 forward 7 unknown #
face $-1 $235 $236 $32 $-1 $237 reversed single #
loop $-1 $-1 $238 $88 #
plane-surface $-1 26.691192471837866 -9.4881466508932419 162.74451846531022 0 1 0 0.55919291073839883 0 0.82903756765294845 forward_v I I I I #
coedge $-1 $239 $240 $241 $242 reversed $89 $-1 #
coedge $-1 $145 $91 $243 $244 reversed $57 $-1 #
coedge $-1 $91 $144 $239 $245 reversed $57 $-1 #
coedge $-1 $241 $246 $91 $147 forward $247 $-1 #
edge $-1 $248 -44.639571768475733 $249 -38.510838829946707 $146 $250 forward 7 unknown #
loop $-1 $-1 $153 $92 #
plane-surface $-1 -38.158597280227184 -4.5694734539984125 66.600753180688372 0.55919291073839883 0 0.82903756765294845 0.82903756765294845 0 -0.55919291073839883 forward_v I I I I #
loop $-1 $-1 $251 $59 #
coedge $-1 $151 $151 $152 $252 reversed $93 $-1 #
coedge $-1 $152 $152 $151 $252 forward $95 $-1 #
coedge $-1 $153 $153 $96 $154 forward $148 $-1 #
edge $-1 $253 0 $253 6.2831853071796004 $153 $254 forward 7 unknown #
face $-1 $255 $256 $34 $-1 $257 reversed single #
loop $-1 $-1 $258 $97 #
plane-surface $-1 26.691192471837866 5.7773404245483206 162.74451846531022 0 1 0 0.55919291073839883 0 0.82903756765294845 forward_v I I I I #
coedge $-1 $259 $260 $261 $262 reversed $98 $-1 #
coedge $-1 $160 $100 $263 $264 reversed $63 $-1 #
coedge $-1 $100 $159 $259 $265 reversed $63 $-1 #
coedge $-1 $261 $266 $100 $162 forward $267 $-1 #
edge $-1 $268 -44.639571768475733 $269 -38.510838829946707 $161 $270 forward 7 unknown #
loop $-1 $-1 $168 $101 #
plane-surface $-1 -38.158597280227184 10.69601362144315 66.600753180688372 0.55919291073839883 0 0.82903756765294845 0.82903756765294845 0 -0.55919291073839883 forward_v I I I I #
loop $-1 $-1 $271 $65 #
coedge $-1 $166 $166 $167 $272 reversed $102 $-1 #
coedge $-1 $167 $167 $166 $272 forward $104 $-1 #
coedge $-1 $168 $168 $105 $169 forward $163 $-1 #
edge $-1 $273 0 $273 6.2831853071796004 $168 $274 forward 7 unknown #
face $-1 $275 $276 $36 $-1 $277 reversed single #
loop $-1 $-1 $278 $106 #
plane-surface $-1 -122.83495775645972 0.34919974289641686 97.894728713245186 0 -1 0 0.55919291073839883 0 -0.82903756765294845 forward_v I I I I #
coedge $-1 $279 $280 $281 $282 reversed $107 $-1 #
coedge $-1 $175 $109 $283 $284 reversed $69 $-1 #
coedge $-1 $109 $174 $279 $285 reversed $69 $-1 #
coedge $-1 $281 $286 $109 $177 forward $287 $-1 #
edge $-1 $288 3.432310873835192 $289 9.5610438123641899 $176 $290 forward 7 unknown #
loop $-1 $-1 $183 $110 #
plane-surface $-1 -57.985168004394666 -4.5694734539984125 1.7509634286233364 -0.55919291073839883 0 0.82903756765294845 0.82903756765294845 0 0.55919291073839883 forward_v I I I I #
loop $-1 $-1 $291 $71 #
coedge $-1 $181 $181 $182 $292 reversed $111 $-1 #
coedge $-1 $182 $182 $181 $292 forward $113 $-1 #
coedge $-1 $183 $183 $114 $184 forward $178 $-1 #
edge $-1 $293 0 $293 6.2831853071796004 $183 $294 forward 7 unknown #
face $-1 $295 $296 $38 $-1 $297 forward single #
loop $-1 $-1 $298 $115 #
plane-surface $-1 -122.83495775645972 15.614686818337979 97.894728713245186 0 -1 0 0.55919291073839883 0 -0.82903756765294845 forward_v I I I I #
coedge $-1 $299 $300 $301 $302 reversed $116 $-1 #
coedge $-1 $190 $118 $303 $304 reversed $75 $-1 #
coedge $-1 $118 $189 $299 $305 reversed $75 $-1 #
coedge $-1 $301 $306 $118 $192 forward $296 $-1 #
edge $-1 $307 3.432310873835192 $308 9.5610438123641899 $191 $309 forward 7 unknown #
loop $-1 $-1 $198 $119 #
plane-surface $-1 -57.985168004394666 10.69601362144315 1.7509634286233364 -0.55919291073839883 0 0.82903756765294845 0.82903756765294845 0 0.55919291073839883 forward_v I I I I #
loop $-1 $-1 $310 $77 #
coedge $-1 $196 $196 $197 $311 reversed $120 $-1 #
coedge $-1 $197 $197 $196 $311 forward $122 $-1 #
coedge $-1 $198 $198 $123 $199 forward $193 $-1 #
edge $-1 $312 0 $312 6.2831853071796004 $198 $313 forward 7 unknown #
face $-1 $314 $315 $30 $-1 $316 reversed single #
loop $-1 $-1 $317 $124 #
plane-surface $-1 -57.985168004394666 0 0 1 0 0 0 0 -1 forward_v I I I I #
coedge $-1 $318 $211 $319 $320 forward $125 $-1 #
coedge $-1 $321 $127 $318 $322 forward $81 $-1 #
coedge $-1 $127 $321 $323 $324 forward $81 $-1 #
coedge $-1 $214 $213 $127 $207 reversed $215 $-1 #
edge $-1 $325 -25.927600604766639 $326 25.927600604766639 $206 $327 forward 7 unknown #
coedge $-1 $129 $128 $328 $329 forward $51 $-1 #
coedge $-1 $330 $331 $128 $210 reversed $315 $-1 #
edge $-1 $217 -57.985168004394666 $332 57.985168004394666 $209 $333 forward 7 unknown #
coedge $-1 $203 $334 $129 $212 reversed $125 $-1 #
edge $-1 $335 -57.985168004394666 $216 57.985168004394666 $211 $336 forward 7 unknown #
coedge $-1 $206 $130 $334 $337 forward $215 $-1 #
coedge $-1 $130 $206 $330 $338 reversed $215 $-1 #
loop $-1 $-1 $213 $314 #
vertex $-1 $131 $339 #
vertex $-1 $131 $340 #
straight-curve $-1 57.985168004394666 0 5.8848460712842323 0 1 0 I I #
face $-1 $341 $342 $31 $-1 $343 reversed single #
loop $-1 $-1 $344 $132 #
plane-surface $-1 0 0 5.8848460712842323 0 0 1 1 0 0 forward_v I I I I #
coedge $-1 $345 $346 $347 $348 reversed $133 $-1 #
coedge $-1 $138 $135 $349 $350 reversed $85 $-1 #
coedge $-1 $135 $138 $351 $352 reversed $85 $-1 #
coedge $-1 $346 $345 $135 $226 reversed $133 $-1 #
edge $-1 $353 -5.8848460712842323 $354 5.8848460712842323 $225 $355 forward 7 unknown #
coedge $-1 $137 $136 $356 $357 reversed $54 $-1 #
coedge $-1 $349 $358 $136 $229 forward $342 $-1 #
edge $-1 $359 -14.495435344244505 $233 -8.3688951767997608 $228 $360 forward 7 unknown #
coedge $-1 $361 $351 $137 $231 forward $220 $-1 #
edge $-1 $232 8.3688951767997608 $362 14.495435344244505 $230 $363 forward 7 unknown #
vertex $-1 $231 $364 #
vertex $-1 $229 $365 #
straight-curve $-1 -49.215475861826199 -19.801060437321894 0 0 0 -1 I I #
face $-1 $-1 $247 $32 $-1 $366 forward single #
loop $-1 $-1 $367 $140 #
plane-surface $-1 57.985168004394666 0 0 -1 0 0 0 0 1 forward_v I I I I #
coedge $-1 $368 $369 $370 $371 reversed $141 $-1 #
coedge $-1 $372 $143 $145 $245 forward $89 $-1 #
coedge $-1 $143 $372 $368 $373 forward $89 $-1 #
coedge $-1 $370 $146 $143 $242 forward $247 $-1 #
edge $-1 $249 -2.6339364698956231 $374 7.2034099238940357 $241 $375 forward 7 unknown #
coedge $-1 $376 $377 $144 $244 forward $236 $-1 #
edge $-1 $378 -79.621295804031789 $248 -75.487413161370881 $243 $379 forward 7 unknown #
edge $-1 $249 108.57774829303622 $378 115.97033600878933 $145 $380 forward 7 unknown #
coedge $-1 $146 $370 $376 $381 forward $247 $-1 #
loop $-1 $-1 $370 $235 #
vertex $-1 $244 $382 #
vertex $-1 $147 $383 #
straight-curve $-1 13.345596235918933 0.34919974289641686 5.8848460712842297 -1 0 0 I I #
coedge $-1 $251 $251 $-1 $384 reversed $150 $-1 #
edge $-1 $385 0 $385 6.2831853071796004 $151 $386 forward 7 unknown #
vertex $-1 $154 $387 #
ellipse-curve $-1 54.920801535130153 -4.5694734539984125 3.8179047499537671 0.55919291073839883 0 0.82903756765294845 0.82903756765294845 0 -0.55919291073839883 1 I I #
face $-1 $-1 $267 $34 $-1 $388 forward single #
loop $-1 $-1 $389 $155 #
plane-surface $-1 57.985168004394666 0 0 -1 0 0 0 0 1 forward_v I I I I #
coedge $-1 $390 $391 $392 $393 reversed $156 $-1 #
coedge $-1 $394 $158 $160 $265 forward $98 $-1 #
coedge $-1 $158 $394 $390 $395 forward $98 $-1 #
coedge $-1 $392 $161 $158 $262 forward $267 $-1 #
edge $-1 $269 -10.266680007616404 $396 -0.42933361382674562 $261 $397 forward 7 unknown #
coedge $-1 $398 $399 $159 $264 forward $256 $-1 #
edge $-1 $400 -79.621295804031789 $268 -75.487413161370881 $263 $401 forward 7 unknown #
edge $-1 $269 108.57774829303622 $400 115.97033600878933 $160 $402 forward 7 unknown #
coedge $-1 $161 $392 $398 $403 forward $267 $-1 #
loop $-1 $-1 $392 $255 #
vertex $-1 $264 $404 #
vertex $-1 $162 $405 #
straight-curve $-1 13.345596235918933 15.614686818337979 5.8848460712842297 -1 0 0 I I #
coedge $-1 $271 $271 $-1 $406 reversed $165 $-1 #
edge $-1 $407 0 $407 6.2831853071796004 $166 $408 forward 7 unknown #
vertex $-1 $169 $409 #
ellipse-curve $-1 54.920801535130153 10.69601362144315 3.8179047499537671 0.55919291073839883 0 0.82903756765294845 0.82903756765294845 0 -0.55919291073839883 1 I I #
face $-1 $-1 $287 $36 $-1 $410 forward single #
loop $-1 $-1 $411 $170 #
plane-surface $-1 -57.985168004394666 0 0 1 0 0 0 0 -1 forward_v I I I I #
coedge $-1 $412 $413 $414 $415 reversed $171 $-1 #
coedge $-1 $416 $173 $175 $285 forward $107 $-1 #
coedge $-1 $173 $416 $412 $417 forward $107 $-1 #
coedge $-1 $414 $176 $173 $282 forward $287 $-1 #
edge $-1 $289 -7.2034099238940357 $418 2.6339364698956231 $281 $419 forward 7 unknown #
coedge $-1 $420 $421 $174 $284 forward $276 $-1 #
edge $-1 $422 -47.196400927999257 $288 -43.062518285338363 $283 $423 forward 7 unknown #
edge $-1 $289 -7.3925877157530788 $422 0 $175 $424 forward 7 unknown #
coedge $-1 $176 $414 $420 $425 forward $287 $-1 #
loop $-1 $-1 $414 $275 #
vertex $-1 $284 $426 #
vertex $-1 $177 $427 #
straight-curve $-1 -61.417478878229858 -9.4881466508932419 5.8848460712842297 1 0 0 I I #
coedge $-1 $291 $291 $-1 $428 reversed $180 $-1 #
edge $-1 $429 0 $429 6.2831853071796004 $181 $430 forward 7 unknown #
vertex $-1 $184 $431 #
ellipse-curve $-1 -54.920801535130167 -4.5694734539984125 3.8179047499537844 -0.55919291073839883 0 0.82903756765294845 0.82903756765294845 0 0.55919291073839883 1 I I #
face $-1 $-1 $432 $38 $-1 $433 reversed single #
loop $-1 $-1 $191 $185 #
plane-surface $-1 0 0 5.8848460712842323 0 0 1 1 0 0 forward_v I I I I #
coedge $-1 $434 $435 $436 $437 reversed $186 $-1 #
coedge $-1 $438 $188 $190 $305 forward $116 $-1 #
coedge $-1 $188 $438 $434 $439 forward $116 $-1 #
coedge $-1 $436 $191 $188 $302 forward $296 $-1 #
edge $-1 $308 0.42933361382674562 $440 10.266680007616404 $301 $441 forward 7 unknown #
coedge $-1 $442 $443 $189 $304 forward $432 $-1 #
edge $-1 $444 -47.196400927999257 $307 -43.062518285338363 $303 $445 forward 7 unknown #
edge $-1 $308 -7.3925877157530788 $444 0 $190 $446 forward 7 unknown #
coedge $-1 $191 $436 $442 $447 forward $296 $-1 #
vertex $-1 $304 $448 #
vertex $-1 $192 $449 #
straight-curve $-1 -61.417478878229858 5.7773404245483206 5.8848460712842297 1 0 0 I I #
coedge $-1 $310 $310 $-1 $450 reversed $195 $-1 #
edge $-1 $451 0 $451 6.2831853071796004 $196 $452 forward 7 unknown #
vertex $-1 $199 $453 #
ellipse-curve $-1 -54.920801535130167 10.69601362144315 3.8179047499537844 -0.55919291073839883 0 0.82903756765294845 0.82903756765294845 0 0.55919291073839883 1 I I #
face $-1 $-1 $215 $30 $-1 $454 reversed single #
loop $-1 $-1 $330 $200 #
plane-surface $-1 0 25.927600604766639 0 0 -1 0 0 0 -1 forward_v I I I I #
coedge $-1 $455 $328 $331 $456 forward $201 $-1 #
coedge $-1 $334 $203 $204 $322 reversed $125 $-1 #
coedge $-1 $328 $455 $203 $320 reversed $201 $-1 #
edge $-1 $335 -5.8848460712842323 $457 5.8848460712842323 $319 $458 forward 7 unknown #
coedge $-1 $205 $204 $455 $459 forward $81 $-1 #
edge $-1 $326 -57.985168004394666 $457 57.985168004394666 $318 $460 forward 7 unknown #
coedge $-1 $331 $330 $205 $324 reversed $315 $-1 #
edge $-1 $461 -57.985168004394666 $325 57.985168004394666 $323 $462 forward 7 unknown #
vertex $-1 $207 $463 #
vertex $-1 $337 $464 #
straight-curve $-1 57.985168004394666 0 -5.8848460712842323 0 -1 0 I I #
coedge $-1 $317 $319 $208 $329 reversed $201 $-1 #
edge $-1 $332 -25.927600604766639 $335 25.927600604766639 $328 $465 forward 7 unknown #
coedge $-1 $323 $209 $214 $338 forward $315 $-1 #
coedge $-1 $209 $323 $317 $456 reversed $315 $-1 #
vertex $-1 $210 $466 #
straight-curve $-1 0 25.927600604766639 5.8848460712842323 -1 0 0 I I #
coedge $-1 $211 $318 $213 $337 reversed $125 $-1 #
vertex $-1 $329 $467 #
straight-curve $-1 0 -25.927600604766639 5.8848460712842323 1 0 0 I I #
edge $-1 $216 -5.8848460712842323 $326 5.8848460712842323 $213 $468 forward 7 unknown #
edge $-1 $217 -5.8848460712842323 $325 5.8848460712842323 $214 $469 forward 7 unknown #
point $-1 57.985168004394666 -25.927600604766639 5.8848460712842323 #
point $-1 57.985168004394666 25.927600604766639 5.8848460712842323 #
face $-1 $-1 $470 $31 $-1 $471 reversed single #
loop $-1 $-1 $472 $219 #
plane-surface $-1 0 0 -5.8848460712842323 0 0 1 1 0 0 forward_v I I I I #
coedge $-1 $351 $361 $346 $473 forward $220 $-1 #
coedge $-1 $225 $222 $472 $474 reversed $133 $-1 #
coedge $-1 $222 $225 $344 $473 reversed $133 $-1 #
coedge $-1 $475 $476 $222 $348 forward $470 $-1 #
edge $-1 $477 -5.8848460712842323 $478 5.8848460712842323 $347 $479 forward 7 unknown #
coedge $-1 $472 $228 $223 $350 forward $342 $-1 #
edge $-1 $233 -25.3577379309131 $354 -22.3577379309131 $349 $480 forward 7 unknown #
coedge $-1 $230 $344 $224 $352 forward $220 $-1 #
edge $-1 $353 22.3577379309131 $232 25.3577379309131 $351 $481 forward 7 unknown #
vertex $-1 $352 $482 #
vertex $-1 $350 $483 #
straight-curve $-1 -46.215475861826199 -19.801060437321894 0 0 0 -1 I I #
coedge $-1 $476 $475 $227 $357 forward $470 $-1 #
edge $-1 $362 -5.8848460712842323 $359 5.8848460712842323 $356 $484 forward 7 unknown #
coedge $-1 $228 $472 $476 $485 forward $342 $-1 #
vertex $-1 $229 $486 #
straight-curve $-1 -49.215475861826199 -11.432165260522133 -5.8848460712842323 0 1 0 I I #
coedge $-1 $344 $230 $475 $487 forward $220 $-1 #
vertex $-1 $487 $488 #
straight-curve $-1 -49.215475861826199 -11.432165260522133 5.8848460712842323 0 -1 0 I I #
point $-1 -49.215475861826199 -19.801060437321894 5.8848460712842323 #
point $-1 -49.215475861826199 -19.801060437321894 -5.8848460712842323 #
plane-surface $-1 0 0 5.8848460712842323 0 0 1 1 0 0 forward_v I I I I #
coedge $-1 $377 $376 $369 $489 forward $236 $-1 #
coedge $-1 $369 $238 $240 $373 reversed $141 $-1 #
coedge $-1 $238 $368 $367 $489 reversed $141 $-1 #
coedge $-1 $246 $241 $238 $371 forward $247 $-1 #
edge $-1 $374 38.510838829946707 $490 44.639571768475733 $370 $491 forward 7 unknown #
coedge $-1 $240 $239 $377 $492 reversed $89 $-1 #
edge $-1 $493 -115.97033600878933 $374 -108.57774829303622 $368 $494 forward 7 unknown #
vertex $-1 $242 $495 #
straight-curve $-1 51.856435065865639 -2.2847367269992063 5.8848460712842297 0 -1 0 I I #
coedge $-1 $367 $243 $246 $381 reversed $236 $-1 #
coedge $-1 $243 $367 $372 $492 forward $236 $-1 #
vertex $-1 $244 $496 #
straight-curve $-1 57.985168004394666 0.34919974289641686 81.372259232655111 0 0 1 I I #
straight-curve $-1 -38.158597280227184 0.34919974289641686 66.600753180688372 0.82903756765294845 0 -0.55919291073839883 I I #
edge $-1 $490 -9.4881466508932419 $248 0.34919974289641686 $376 $497 forward 7 unknown #
point $-1 57.985168004394666 0.34919974289641686 5.8848460712842323 #
point $-1 51.856435065865639 0.34919974289641686 5.8848460712842297 #
edge $-1 $498 1 $498 0 $251 $-1 forward 7 unknown #
vertex $-1 $252 $499 #
ellipse-curve $-1 53.750928393737055 -4.5694734539984125 2.0834965252100712 0.55919291073839883 0 0.82903756765294845 0.82903756765294845 0 -0.55919291073839883 1 I I #
point $-1 55.749839102783113 -4.5694734539984125 3.2587118392153869 #
plane-surface $-1 0 0 5.8848460712842323 0 0 1 1 0 0 forward_v I I I I #
coedge $-1 $399 $398 $391 $500 forward $256 $-1 #
coedge $-1 $391 $258 $260 $395 reversed $156 $-1 #
coedge $-1 $258 $390 $389 $500 reversed $156 $-1 #
coedge $-1 $266 $261 $258 $393 forward $267 $-1 #
edge $-1 $396 38.510838829946707 $501 44.639571768475733 $392 $502 forward 7 unknown #
coedge $-1 $260 $259 $399 $503 reversed $98 $-1 #
edge $-1 $504 -115.97033600878933 $396 -108.57774829303622 $390 $505 forward 7 unknown #
vertex $-1 $262 $506 #
straight-curve $-1 51.856435065865639 5.348006810721575 5.8848460712842297 0 -1 0 I I #
coedge $-1 $389 $263 $266 $403 reversed $256 $-1 #
coedge $-1 $263 $389 $394 $503 forward $256 $-1 #
vertex $-1 $264 $507 #
straight-curve $-1 57.985168004394666 15.614686818337979 81.372259232655111 0 0 1 I I #
straight-curve $-1 -38.158597280227184 15.614686818337979 66.600753180688372 0.82903756765294845 0 -0.55919291073839883 I I #
edge $-1 $501 5.7773404245483206 $268 15.614686818337979 $398 $508 forward 7 unknown #
point $-1 57.985168004394666 15.614686818337979 5.8848460712842323 #
point $-1 51.856435065865639 15.614686818337979 5.8848460712842297 #
edge $-1 $509 1 $509 0 $271 $-1 forward 7 unknown #
vertex $-1 $272 $510 #
ellipse-curve $-1 53.750928393737055 10.69601362144315 2.0834965252100712 0.55919291073839883 0 0.82903756765294845 0.82903756765294845 0 -0.55919291073839883 1 I I #
point $-1 55.749839102783113 10.69601362144315 3.2587118392153869 #
plane-surface $-1 0 0 5.8848460712842323 0 0 1 1 0 0 forward_v I I I I #
coedge $-1 $421 $420 $413 $511 forward $276 $-1 #
coedge $-1 $413 $278 $280 $417 reversed $171 $-1 #
coedge $-1 $278 $412 $411 $511 reversed $171 $-1 #
coedge $-1 $286 $281 $278 $415 forward $287 $-1 #
edge $-1 $418 -9.5610438123641899 $512 -3.432310873835192 $414 $513 forward 7 unknown #
coedge $-1 $280 $279 $421 $514 reversed $107 $-1 #
edge $-1 $515 0 $418 7.3925877157530788 $412 $516 forward 7 unknown #
vertex $-1 $282 $517 #
straight-curve $-1 -51.856435065865668 -2.2847367269992063 5.8848460712842314 0 1 0 I I #
coedge $-1 $411 $283 $286 $425 reversed $276 $-1 #
coedge $-1 $283 $411 $416 $514 forward $276 $-1 #
vertex $-1 $284 $518 #
straight-curve $-1 -57.985168004394666 -9.4881466508932419 48.947364356622593 0 0 1 I I #
straight-curve $-1 -57.985168004394666 -9.4881466508932419 1.7509634286233364 -0.82903756765294845 0 -0.55919291073839883 I I #
edge $-1 $512 -0.34919974289641686 $288 9.4881466508932419 $420 $519 forward 7 unknown #
point $-1 -57.985168004394666 -9.4881466508932419 5.8848460712842323 #
point $-1 -51.856435065865668 -9.4881466508932419 5.8848460712842323 #
edge $-1 $520 1 $520 0 $291 $-1 forward 7 unknown #
vertex $-1 $292 $521 #
ellipse-curve $-1 -53.750928393737055 -4.5694734539984125 2.0834965252100694 -0.55919291073839883 0 0.82903756765294845 0.82903756765294845 0 0.55919291073839883 1 I I #
point $-1 -54.091763967477213 -4.5694734539984125 4.3770976606921828 #
loop $-1 $-1 $303 $295 #
plane-surface $-1 -57.985168004394666 0 0 1 0 0 0 0 -1 forward_v I I I I #
coedge $-1 $435 $298 $300 $439 reversed $186 $-1 #
coedge $-1 $298 $434 $522 $523 reversed $186 $-1 #
coedge $-1 $306 $301 $298 $437 forward $296 $-1 #
edge $-1 $440 -9.5610438123641899 $524 -3.432310873835192 $436 $525 forward 7 unknown #
coedge $-1 $300 $299 $443 $526 reversed $116 $-1 #
edge $-1 $527 0 $440 7.3925877157530788 $434 $528 forward 7 unknown #
vertex $-1 $302 $529 #
straight-curve $-1 -51.856435065865668 5.348006810721575 5.8848460712842314 0 1 0 I I #
coedge $-1 $522 $303 $306 $447 reversed $432 $-1 #
coedge $-1 $303 $522 $438 $526 forward $432 $-1 #
vertex $-1 $304 $530 #
straight-curve $-1 -57.985168004394666 5.7773404245483206 48.947364356622593 0 0 1 I I #
straight-curve $-1 -57.985168004394666 5.7773404245483206 1.7509634286233364 -0.82903756765294845 0 -0.55919291073839883 I I #
edge $-1 $524 -15.614686818337979 $307 -5.7773404245483206 $442 $531 forward 7 unknown #
point $-1 -57.985168004394666 5.7773404245483206 5.8848460712842323 #
point $-1 -51.856435065865668 5.7773404245483206 5.8848460712842323 #
edge $-1 $532 1 $532 0 $310 $-1 forward 7 unknown #
vertex $-1 $311 $533 #
ellipse-curve $-1 -53.750928393737055 10.69601362144315 2.0834965252100694 -0.55919291073839883 0 0.82903756765294845 0.82903756765294845 0 0.55919291073839883 1 I I #
point $-1 -54.091763967477213 10.69601362144315 4.3770976606921828 #
plane-surface $-1 57.985168004394666 0 0 -1 0 0 0 0 1 forward_v I I I I #
coedge $-1 $319 $317 $321 $459 reversed $201 $-1 #
edge $-1 $332 -5.8848460712842323 $461 5.8848460712842323 $331 $534 forward 7 unknown #
vertex $-1 $459 $535 #
straight-curve $-1 -57.985168004394666 -25.927600604766639 0 0 0 -1 I I #
edge $-1 $457 -25.927600604766639 $461 25.927600604766639 $455 $536 forward 7 unknown #
straight-curve $-1 0 -25.927600604766639 -5.8848460712842323 -1 0 0 I I #
vertex $-1 $324 $537 #
straight-curve $-1 0 25.927600604766639 -5.8848460712842323 1 0 0 I I #
point $-1 57.985168004394666 25.927600604766639 -5.8848460712842323 #
point $-1 57.985168004394666 -25.927600604766639 -5.8848460712842323 #
straight-curve $-1 -57.985168004394666 0 5.8848460712842323 0 -1 0 I I #
point $-1 -57.985168004394666 25.927600604766639 5.8848460712842323 #
point $-1 -57.985168004394666 -25.927600604766639 5.8848460712842323 #
straight-curve $-1 57.985168004394666 -25.927600604766639 0 0 0 -1 I I #
straight-curve $-1 57.985168004394666 25.927600604766639 0 0 0 -1 I I #
loop $-1 $-1 $347 $341 #
plane-surface $-1 0 -25.927600604766639 0 0 1 0 0 0 1 forward_v I I I I #
coedge $-1 $358 $349 $345 $474 forward $342 $-1 #
edge $-1 $478 -14.495435344244505 $353 -8.3688951767997608 $344 $538 forward 7 unknown #
edge $-1 $354 8.3688951767997608 $477 14.495435344244505 $472 $539 forward 7 unknown #
coedge $-1 $356 $347 $361 $487 reversed $470 $-1 #
coedge $-1 $347 $356 $358 $485 reversed $470 $-1 #
vertex $-1 $485 $540 #
vertex $-1 $348 $541 #
straight-curve $-1 -46.215475861826199 -25.927600604766639 0 0 0 1 I I #
straight-curve $-1 -23.8577379309131 -19.801060437321894 -5.8848460712842323 1 0 0 I I #
straight-curve $-1 -23.8577379309131 -19.801060437321894 5.8848460712842323 -1 0 0 I I #
point $-1 -46.215475861826199 -19.801060437321894 5.8848460712842323 #
point $-1 -46.215475861826199 -19.801060437321894 -5.8848460712842323 #
straight-curve $-1 -49.215475861826199 -25.927600604766639 0 0 0 -1 I I #
edge $-1 $477 46.215475861826199 $359 49.215475861826199 $476 $542 forward 7 unknown #
point $-1 -49.215475861826199 -25.927600604766639 -5.8848460712842323 #
edge $-1 $362 -49.215475861826199 $478 -46.215475861826199 $475 $543 forward 7 unknown #
point $-1 -49.215475861826199 -25.927600604766639 5.8848460712842323 #
edge $-1 $490 75.487413161370881 $493 79.621295804031789 $367 $544 forward 7 unknown #
vertex $-1 $381 $545 #
straight-curve $-1 13.345596235918933 -9.4881466508932419 5.8848460712842297 1 0 0 I I #
edge $-1 $493 -7.2034099238940357 $378 2.6339364698956231 $377 $546 forward 7 unknown #
vertex $-1 $492 $547 #
straight-curve $-1 -38.158597280227184 -9.4881466508932419 66.600753180688372 -0.82903756765294845 0 0.55919291073839883 I I #
point $-1 51.856435065865639 -9.4881466508932419 5.8848460712842297 #
point $-1 57.985168004394666 0.34919974289641686 1.7509634286233222 #
straight-curve $-1 57.985168004394666 0 5.8848460712842323 0 1 0 I I #
vertex $-1 $384 $548 #
point $-1 54.579965961390002 -4.5694734539984125 1.5243036144716724 #
edge $-1 $501 75.487413161370881 $504 79.621295804031789 $389 $549 forward 7 unknown #
vertex $-1 $403 $550 #
straight-curve $-1 13.345596235918933 5.7773404245483206 5.8848460712842297 1 0 0 I I #
edge $-1 $504 0.42933361382674562 $400 10.266680007616404 $399 $551 forward 7 unknown #
vertex $-1 $503 $552 #
straight-curve $-1 -38.158597280227184 5.7773404245483206 66.600753180688372 -0.82903756765294845 0 0.55919291073839883 I I #
point $-1 51.856435065865639 5.7773404245483206 5.8848460712842297 #
point $-1 57.985168004394666 15.614686818337979 1.7509634286233222 #
straight-curve $-1 57.985168004394666 0 5.8848460712842323 0 1 0 I I #
vertex $-1 $406 $553 #
point $-1 54.579965961390002 10.69601362144315 1.5243036144716724 #
edge $-1 $512 43.062518285338363 $515 47.196400927999257 $411 $554 forward 7 unknown #
vertex $-1 $425 $555 #
straight-curve $-1 -61.417478878229858 0.34919974289641686 5.8848460712842297 -1 0 0 I I #
edge $-1 $515 -2.6339364698956231 $422 7.2034099238940357 $421 $556 forward 7 unknown #
vertex $-1 $514 $557 #
straight-curve $-1 -57.985168004394666 0.34919974289641686 1.7509634286233364 0.82903756765294845 0 0.55919291073839883 I I #
point $-1 -51.856435065865668 0.34919974289641686 5.8848460712842323 #
point $-1 -57.985168004394666 -9.4881466508932419 1.7509634286233364 #
straight-curve $-1 -57.985168004394666 0 5.8848460712842323 0 -1 0 I I #
vertex $-1 $428 $558 #
point $-1 -52.921890826084102 -4.5694734539984125 2.6426894359484683 #
coedge $-1 $443 $442 $435 $523 forward $432 $-1 #
edge $-1 $524 43.062518285338363 $527 47.196400927999257 $522 $559 forward 7 unknown #
vertex $-1 $447 $560 #
straight-curve $-1 -61.417478878229858 15.614686818337979 5.8848460712842297 -1 0 0 I I #
edge $-1 $527 -10.266680007616404 $444 -0.42933361382674562 $443 $561 forward 7 unknown #
vertex $-1 $526 $562 #
straight-curve $-1 -57.985168004394666 15.614686818337979 1.7509634286233364 0.82903756765294845 0 0.55919291073839883 I I #
point $-1 -51.856435065865668 15.614686818337979 5.8848460712842323 #
point $-1 -57.985168004394666 5.7773404245483206 1.7509634286233364 #
straight-curve $-1 -57.985168004394666 0 5.8848460712842323 0 -1 0 I I #
vertex $-1 $450 $563 #
point $-1 -52.921890826084102 10.69601362144315 2.6426894359484683 #
straight-curve $-1 -57.985168004394666 25.927600604766639 0 0 0 -1 I I #
point $-1 -57.985168004394666 -25.927600604766639 -5.8848460712842323 #
straight-curve $-1 -57.985168004394666 0 -5.8848460712842323 0 1 0 I I #
point $-1 -57.985168004394666 25.927600604766639 -5.8848460712842323 #
straight-curve $-1 -46.215475861826199 -11.432165260522133 5.8848460712842323 0 1 0 I I #
straight-curve $-1 -46.215475861826199 -11.432165260522133 -5.8848460712842323 0 -1 0 I I #
point $-1 -46.215475861826199 -25.927600604766639 -5.8848460712842323 #
point $-1 -46.215475861826199 -25.927600604766639 5.8848460712842323 #
straight-curve $-1 0 -25.927600604766639 -5.8848460712842323 -1 0 0 I I #
straight-curve $-1 0 -25.927600604766639 5.8848460712842323 1 0 0 I I #
straight-curve $-1 57.985168004394666 -9.4881466508932419 81.372259232655111 0 0 -1 I I #
point $-1 57.985168004394666 -9.4881466508932419 5.8848460712842323 #
straight-curve $-1 57.985168004394666 -2.2847367269992063 1.7509634286233151 0 1 0 I I #
point $-1 57.985168004394666 -9.4881466508932419 1.7509634286233222 #
point $-1 53.191735482998652 -4.5694734539984125 1.254458957557123 #
straight-curve $-1 57.985168004394666 5.7773404245483206 81.372259232655111 0 0 -1 I I #
point $-1 57.985168004394666 5.7773404245483206 5.8848460712842323 #
straight-curve $-1 57.985168004394666 5.348006810721575 1.7509634286233151 0 1 0 I I #
point $-1 57.985168004394666 5.7773404245483206 1.7509634286233222 #
point $-1 53.191735482998652 10.69601362144315 1.254458957557123 #
straight-curve $-1 -57.985168004394666 0.34919974289641686 48.947364356622593 0 0 -1 I I #
point $-1 -57.985168004394666 0.34919974289641686 5.8848460712842323 #
straight-curve $-1 -57.985168004394666 -2.2847367269992063 1.7509634286233358 0 -1 0 I I #
point $-1 -57.985168004394666 0.34919974289641686 1.7509634286233364 #
point $-1 -53.191735482998652 -4.5694734539984125 1.2544589575571212 #
straight-curve $-1 -57.985168004394666 15.614686818337979 48.947364356622593 0 0 -1 I I #
point $-1 -57.985168004394666 15.614686818337979 5.8848460712842323 #
straight-curve $-1 -57.985168004394666 5.348006810721575 1.7509634286233358 0 -1 0 I I #
point $-1 -57.985168004394666 15.614686818337979 1.7509634286233364 #
point $-1 -53.191735482998652 10.69601362144315 1.2544589575571212 #
End-of-ACIS-data 