500 0 11 0           
7 Unknown 11 ACIS 5.0 NT 24 Thu Mar 25 21:36:01 1999 
-1 9.9999999999999995e-007 1e-010 
body $-1 $11 $-1 $12 #
body $-1 $13 $-1 $14 #
body $-1 $15 $-1 $16 #
body $-1 $17 $-1 $18 #
body $-1 $19 $-1 $20 #
body $-1 $21 $-1 $22 #
body $-1 $23 $-1 $24 #
body $-1 $25 $-1 $26 #
body $-1 $27 $-1 $28 #
body $-1 $29 $-1 $30 #
body $-1 $31 $-1 $32 #
lump $-1 $-1 $33 $0 #
transform $-1 1 0 0 0 1 0 0 0 1 57.877742851039159 35.319253600467661 14.671713015618323 1 rotate no_reflect no_shear #
lump $-1 $-1 $34 $1 #
transform $-1 1 0 0 0 1 0 0 0 1 57.877742851039159 35.319253600467661 14.671713015618323 1 rotate no_reflect no_shear #
lump $-1 $-1 $35 $2 #
transform $-1 1 0 0 0 1 0 0 0 1 57.877742851039159 35.319253600467661 14.671713015618323 1 rotate no_reflect no_shear #
lump $-1 $-1 $36 $3 #
transform $-1 1 0 0 0 1 0 0 0 1 57.877742851039159 35.319253600467661 14.671713015618323 1 rotate no_reflect no_shear #
lump $-1 $-1 $37 $4 #
transform $-1 1 0 0 0 1 0 0 0 1 57.877742851039159 35.319253600467661 14.671713015618323 1 rotate no_reflect no_shear #
lump $-1 $-1 $38 $5 #
transform $-1 1 0 0 0 1 0 0 0 1 57.877742851039159 35.319253600467661 14.671713015618323 1 rotate no_reflect no_shear #
lump $-1 $-1 $39 $6 #
transform $-1 1 0 0 0 1 0 0 0 1 57.877742851039159 35.319253600467661 14.671713015618323 1 rotate no_reflect no_shear #
lump $-1 $-1 $40 $7 #
transform $-1 1 0 0 0 1 0 0 0 1 57.877742851039159 35.319253600467661 14.671713015618323 1 rotate no_reflect no_shear #
lump $-1 $-1 $41 $8 #
transform $-1 1 0 0 0 1 0 0 0 1 57.877742851039159 35.319253600467661 14.671713015618323 1 rotate no_reflect no_shear #
lump $-1 $-1 $42 $9 #
transform $-1 1 0 0 0 1 0 0 0 1 57.877742851039159 35.319253600467661 14.671713015618323 1 rotate no_reflect no_shear #
lump $-1 $-1 $43 $10 #
transform $-1 1 0 0 0 1 0 0 0 1 57.877742851039159 35.319253600467661 14.671713015618323 1 rotate no_reflect no_shear #
shell $-1 $-1 $-1 $44 $-1 $11 #
shell $-1 $-1 $-1 $45 $-1 $13 #
shell $-1 $-1 $-1 $46 $-1 $15 #
shell $-1 $-1 $-1 $47 $-1 $17 #
shell $-1 $-1 $-1 $48 $-1 $19 #
shell $-1 $-1 $-1 $49 $-1 $21 #
shell $-1 $-1 $-1 $50 $-1 $23 #
shell $-1 $-1 $-1 $51 $-1 $25 #
shell $-1 $-1 $-1 $52 $-1 $27 #
shell $-1 $-1 $-1 $53 $-1 $29 #
shell $-1 $-1 $-1 $54 $-1 $31 #
face $-1 $55 $56 $33 $-1 $57 forward single #
face $-1 $58 $59 $34 $-1 $60 reversed single #
face $-1 $61 $62 $35 $-1 $63 reversed single #
face $-1 $64 $65 $36 $-1 $66 forward single #
face $-1 $67 $68 $37 $-1 $69 forward single #
face $-1 $70 $71 $38 $-1 $72 reversed single #
face $-1 $73 $74 $39 $-1 $75 forward single #
face $-1 $76 $77 $40 $-1 $78 forward single #
face $-1 $79 $80 $41 $-1 $81 reversed single #
face $-1 $82 $83 $42 $-1 $84 forward single #
face $-1 $85 $86 $43 $-1 $87 forward single #
face $-1 $88 $89 $33 $-1 $90 reversed single #
loop $-1 $-1 $91 $44 #
plane-surface $-1 0 0 14.671713015618323 0 0 1 1 0 0 forward_v I I I I #
face $-1 $92 $93 $34 $-1 $94 reversed single #
loop $-1 $-1 $95 $45 #
plane-surface $-1 -52.150697190012039 -27.832815803948748 0 0 -1 0 0 0 -1 forward_v I I I I #
face $-1 $96 $97 $35 $-1 $98 reversed single #
loop $-1 $-1 $99 $46 #
plane-surface $-1 39.584016124715838 60.280152275238905 144.62778384700891 1 0 0 0 -0.66913061440640931 -0.74314481823134659 forward_v I I I I #
face $-1 $100 $101 $36 $-1 $102 forward single #
loop $-1 $103 $104 $47 #
cone-surface $-1 44.810795189379633 33.133626971076765 12.633437469465102 0 -0.66913061440640931 -0.74314481823134659 0.5 0 0 1 I I 0 1 0.5 forward I I I I #
face $-1 $105 $106 $37 $-1 $107 forward single #
loop $-1 $108 $109 $48 #
cone-surface $-1 52.650963786375343 33.133626971076765 12.633437469465102 0 -0.66913061440640931 -0.74314481823134659 0.5 0 0 1 I I 0 1 0.5 forward I I I I #
face $-1 $110 $111 $38 $-1 $112 reversed single #
loop $-1 $-1 $113 $49 #
plane-surface $-1 -2.3797866481480199 -109.72544647753796 98.7408630352259 -1 0 0 0 -0.64278761758704617 0.76604443648966558 forward_v I I I I #
face $-1 $114 $115 $39 $-1 $116 forward single #
loop $-1 $117 $118 $50 #
cone-surface $-1 -20.785400151181385 -31.962903569285672 11.639393759884397 0 0.64278761758704617 -0.76604443648966558 1.5 0 0 1 I I 0 1 1.5 forward I I I I #
face $-1 $119 $120 $40 $-1 $121 forward single #
loop $-1 $122 $123 $51 #
cone-surface $-1 -9.7420320493613701 -31.962903569285672 11.639393759884397 0 0.64278761758704617 -0.76604443648966558 1.5 0 0 1 I I 0 1 1.5 forward I I I I #
face $-1 $124 $125 $41 $-1 $126 reversed single #
loop $-1 $-1 $127 $52 #
plane-surface $-1 49.770910541864012 -109.72544647753796 98.7408630352259 -1 0 0 0 -0.64278761758704617 0.76604443648966558 forward_v I I I I #
face $-1 $128 $129 $42 $-1 $130 forward single #
loop $-1 $131 $132 $53 #
cone-surface $-1 31.365297038830647 -31.962903569285672 11.639393759884397 0 0.64278761758704617 -0.76604443648966558 1.5 0 0 1 I I 0 1 1.5 forward I I I I #
face $-1 $133 $134 $43 $-1 $135 forward single #
loop $-1 $136 $137 $54 #
cone-surface $-1 42.408665140650669 -31.962903569285672 11.639393759884397 0 0.64278761758704617 -0.76604443648966558 1.5 0 0 1 I I 0 1 1.5 forward I I I I #
face $-1 $138 $139 $33 $-1 $140 reversed single #
loop $-1 $-1 $141 $55 #
plane-surface $-1 0 0 -14.671713015618323 0 0 1 1 0 0 forward_v I I I I #
coedge $-1 $142 $143 $144 $145 forward $56 $-1 #
face $-1 $146 $147 $34 $-1 $148 forward single #
loop $-1 $-1 $149 $58 #
plane-surface $-1 -46.423651528984919 -31.576034702208204 0 -1 0 0 0 0 1 forward_v I I I I #
coedge $-1 $150 $151 $152 $153 forward $59 $-1 #
face $-1 $154 $155 $35 $-1 $156 forward single #
loop $-1 $-1 $157 $61 #
plane-surface $-1 48.730879487877502 -17.175386993505086 58.604694465656678 0 0.66913061440640931 0.74314481823134659 1 0 0 forward_v I I I I #
coedge $-1 $158 $159 $160 $161 reversed $62 $-1 #
face $-1 $-1 $162 $36 $-1 $163 forward single #
loop $-1 $164 $165 $64 #
cone-surface $-1 44.810795189379633 32.631779010271956 12.076078855791593 0 -0.66913061440640931 -0.74314481823134659 0.25 0 0 1 I I -0.70710678118654746 0.70710678118654746 0.25 forward I I I I #
loop $-1 $-1 $166 $47 #
coedge $-1 $104 $104 $167 $168 reversed $65 $-1 #
face $-1 $-1 $169 $37 $-1 $170 forward single #
loop $-1 $171 $172 $67 #
cone-surface $-1 52.650963786375343 32.631779010271956 12.076078855791593 0 -0.66913061440640931 -0.74314481823134659 0.25 0 0 1 I I -0.70710678118654746 0.70710678118654746 0.25 forward I I I I #
loop $-1 $-1 $173 $48 #
coedge $-1 $109 $109 $174 $175 reversed $68 $-1 #
face $-1 $176 $177 $38 $-1 $178 reversed single #
loop $-1 $-1 $179 $70 #
plane-surface $-1 -15.263716100271374 -35.319253600467647 10.067017219989779 0 -0.64278761758704617 0.76604443648966558 1 0 0 forward_v I I I I #
coedge $-1 $180 $181 $182 $183 reversed $71 $-1 #
face $-1 $-1 $184 $39 $-1 $185 forward single #
loop $-1 $186 $187 $73 #
cone-surface $-1 -20.785400151181385 -30.86829414606585 10.334889074597495 0 0.64278761758704617 -0.76604443648966558 0.75 0 0 1 I I -0.70710678118654757 0.70710678118654757 0.75 forward I I I I #
loop $-1 $-1 $188 $50 #
coedge $-1 $118 $118 $189 $190 reversed $74 $-1 #
face $-1 $-1 $191 $40 $-1 $192 forward single #
loop $-1 $193 $194 $76 #
cone-surface $-1 -9.7420320493613701 -30.86829414606585 10.334889074597495 0 0.64278761758704617 -0.76604443648966558 0.75 0 0 1 I I -0.70710678118654757 0.70710678118654757 0.75 forward I I I I #
loop $-1 $-1 $195 $51 #
coedge $-1 $123 $123 $196 $197 reversed $77 $-1 #
face $-1 $198 $199 $41 $-1 $200 reversed single #
loop $-1 $-1 $201 $79 #
plane-surface $-1 36.886981089740658 -35.319253600467647 10.067017219989779 0 -0.64278761758704617 0.76604443648966558 1 0 0 forward_v I I I I #
coedge $-1 $202 $203 $204 $205 reversed $80 $-1 #
face $-1 $-1 $206 $42 $-1 $207 forward single #
loop $-1 $208 $209 $82 #
cone-surface $-1 31.365297038830647 -30.86829414606585 10.334889074597495 0 0.64278761758704617 -0.76604443648966558 0.75 0 0 1 I I -0.70710678118654757 0.70710678118654757 0.75 forward I I I I #
loop $-1 $-1 $210 $53 #
coedge $-1 $132 $132 $211 $212 reversed $83 $-1 #
face $-1 $-1 $213 $43 $-1 $214 forward single #
loop $-1 $215 $216 $85 #
cone-surface $-1 42.408665140650669 -30.86829414606585 10.334889074597495 0 0.64278761758704617 -0.76604443648966558 0.75 0 0 1 I I -0.70710678118654757 0.70710678118654757 0.75 forward I I I I #
loop $-1 $-1 $217 $54 #
coedge $-1 $137 $137 $218 $219 reversed $86 $-1 #
face $-1 $220 $221 $33 $-1 $222 reversed single #
loop $-1 $-1 $223 $88 #
plane-surface $-1 0 -35.319253600467661 0 0 1 0 0 0 1 forward_v I I I I #
coedge $-1 $224 $225 $226 $227 forward $89 $-1 #
coedge $-1 $228 $91 $229 $230 forward $56 $-1 #
coedge $-1 $91 $228 $231 $232 forward $56 $-1 #
coedge $-1 $233 $234 $91 $145 reversed $235 $-1 #
edge $-1 $236 -35.319253600467661 $237 35.319253600467661 $144 $238 forward 7 unknown #
face $-1 $239 $240 $34 $-1 $241 reversed single #
loop $-1 $-1 $242 $92 #
plane-surface $-1 0 0 14.671713015618323 0 0 1 1 0 0 forward_v I I I I #
coedge $-1 $243 $244 $245 $246 reversed $93 $-1 #
coedge $-1 $247 $95 $248 $249 reversed $59 $-1 #
coedge $-1 $95 $247 $250 $251 reversed $59 $-1 #
coedge $-1 $244 $243 $95 $153 reversed $93 $-1 #
edge $-1 $252 -14.671713015618323 $253 14.671713015618323 $152 $254 forward 7 unknown #
face $-1 $255 $256 $35 $-1 $257 reversed single #
loop $-1 $-1 $160 $96 #
plane-surface $-1 0 0 14.671713015618323 0 0 1 1 0 0 forward_v I I I I #
coedge $-1 $258 $259 $260 $261 reversed $97 $-1 #
coedge $-1 $159 $99 $262 $263 reversed $62 $-1 #
coedge $-1 $99 $158 $258 $264 reversed $62 $-1 #
coedge $-1 $260 $265 $99 $161 forward $155 $-1 #
edge $-1 $266 -5.1791774628482088 $267 -1.4770548184728796 $160 $268 forward 7 unknown #
loop $-1 $-1 $167 $100 #
plane-surface $-1 48.730879487877502 -17.175386993505086 58.604694465656678 0 0.66913061440640931 0.74314481823134659 1 0 0 forward_v I I I I #
loop $-1 $-1 $269 $64 #
coedge $-1 $165 $165 $166 $270 reversed $101 $-1 #
coedge $-1 $166 $166 $165 $270 forward $103 $-1 #
coedge $-1 $167 $167 $104 $168 forward $162 $-1 #
edge $-1 $271 -3.1554152922525962e-015 $271 6.2831853071795969 $167 $272 forward 7 unknown #
loop $-1 $-1 $174 $105 #
plane-surface $-1 48.730879487877502 -17.175386993505086 58.604694465656678 0 0.66913061440640931 0.74314481823134659 1 0 0 forward_v I I I I #
loop $-1 $-1 $273 $67 #
coedge $-1 $172 $172 $173 $274 reversed $106 $-1 #
coedge $-1 $173 $173 $172 $274 forward $108 $-1 #
coedge $-1 $174 $174 $109 $175 forward $169 $-1 #
edge $-1 $275 -3.1554152922525962e-015 $275 6.2831853071795969 $174 $276 forward 7 unknown #
face $-1 $277 $278 $38 $-1 $279 reversed single #
loop $-1 $-1 $280 $110 #
plane-surface $-1 -28.147645552394728 -109.72544647753796 98.7408630352259 1 0 0 0 0.64278761758704617 -0.76604443648966558 forward_v I I I I #
coedge $-1 $281 $282 $283 $284 reversed $111 $-1 #
coedge $-1 $181 $113 $285 $286 reversed $71 $-1 #
coedge $-1 $113 $180 $281 $287 reversed $71 $-1 #
coedge $-1 $283 $288 $113 $183 forward $289 $-1 #
edge $-1 $290 19.543469638301318 $291 25.031132280606229 $182 $292 forward 7 unknown #
loop $-1 $-1 $189 $114 #
plane-surface $-1 -15.263716100271374 -35.319253600467647 10.067017219989779 0 -0.64278761758704617 0.76604443648966558 1 0 0 forward_v I I I I #
loop $-1 $-1 $293 $73 #
coedge $-1 $187 $187 $188 $294 reversed $115 $-1 #
coedge $-1 $188 $188 $187 $294 forward $117 $-1 #
coedge $-1 $189 $189 $118 $190 forward $184 $-1 #
edge $-1 $295 -5.8386158202769635e-016 $295 6.2831853071795996 $189 $296 forward 7 unknown #
loop $-1 $-1 $196 $119 #
plane-surface $-1 -15.263716100271374 -35.319253600467647 10.067017219989779 0 -0.64278761758704617 0.76604443648966558 1 0 0 forward_v I I I I #
loop $-1 $-1 $297 $76 #
coedge $-1 $194 $194 $195 $298 reversed $120 $-1 #
coedge $-1 $195 $195 $194 $298 forward $122 $-1 #
coedge $-1 $196 $196 $123 $197 forward $191 $-1 #
edge $-1 $299 -5.8386158202769635e-016 $299 6.2831853071795996 $196 $300 forward 7 unknown #
face $-1 $301 $302 $41 $-1 $303 reversed single #
loop $-1 $-1 $304 $124 #
plane-surface $-1 24.003051637617304 -109.72544647753796 98.7408630352259 1 0 0 0 0.64278761758704617 -0.76604443648966558 forward_v I I I I #
coedge $-1 $305 $306 $307 $308 reversed $125 $-1 #
coedge $-1 $203 $127 $309 $310 reversed $80 $-1 #
coedge $-1 $127 $202 $305 $311 reversed $80 $-1 #
coedge $-1 $307 $312 $127 $205 forward $313 $-1 #
edge $-1 $314 19.543469638301318 $315 25.031132280606229 $204 $316 forward 7 unknown #
loop $-1 $-1 $211 $128 #
plane-surface $-1 36.886981089740658 -35.319253600467647 10.067017219989779 0 -0.64278761758704617 0.76604443648966558 1 0 0 forward_v I I I I #
loop $-1 $-1 $317 $82 #
coedge $-1 $209 $209 $210 $318 reversed $129 $-1 #
coedge $-1 $210 $210 $209 $318 forward $131 $-1 #
coedge $-1 $211 $211 $132 $212 forward $206 $-1 #
edge $-1 $319 -5.8386158202769635e-016 $319 6.2831853071795996 $211 $320 forward 7 unknown #
loop $-1 $-1 $218 $133 #
plane-surface $-1 36.886981089740658 -35.319253600467647 10.067017219989779 0 -0.64278761758704617 0.76604443648966558 1 0 0 forward_v I I I I #
loop $-1 $-1 $321 $85 #
coedge $-1 $216 $216 $217 $322 reversed $134 $-1 #
coedge $-1 $217 $217 $216 $322 forward $136 $-1 #
coedge $-1 $218 $218 $137 $219 forward $213 $-1 #
edge $-1 $323 -5.8386158202769635e-016 $323 6.2831853071795996 $218 $324 forward 7 unknown #
face $-1 $325 $326 $33 $-1 $327 reversed single #
loop $-1 $-1 $328 $138 #
plane-surface $-1 -57.877742851039159 0 0 1 0 0 0 0 -1 forward_v I I I I #
coedge $-1 $329 $231 $330 $331 forward $139 $-1 #
coedge $-1 $332 $141 $329 $333 forward $89 $-1 #
coedge $-1 $141 $332 $334 $335 forward $89 $-1 #
coedge $-1 $234 $233 $141 $227 reversed $235 $-1 #
edge $-1 $336 -35.319253600467661 $337 35.319253600467661 $226 $338 forward 7 unknown #
coedge $-1 $143 $142 $339 $340 forward $56 $-1 #
coedge $-1 $341 $342 $142 $230 reversed $326 $-1 #
edge $-1 $237 -57.877742851039159 $343 57.877742851039159 $229 $344 forward 7 unknown #
coedge $-1 $223 $345 $143 $232 reversed $139 $-1 #
edge $-1 $346 -57.877742851039159 $236 57.877742851039159 $231 $347 forward 7 unknown #
coedge $-1 $226 $144 $345 $348 forward $235 $-1 #
coedge $-1 $144 $226 $341 $349 reversed $235 $-1 #
loop $-1 $-1 $233 $325 #
vertex $-1 $145 $350 #
vertex $-1 $145 $351 #
straight-curve $-1 57.877742851039159 0 14.671713015618323 0 1 0 I I #
face $-1 $352 $353 $34 $-1 $354 reversed single #
loop $-1 $-1 $355 $146 #
plane-surface $-1 -57.877742851039159 0 0 1 0 0 0 0 -1 forward_v I I I I #
coedge $-1 $250 $356 $244 $357 forward $147 $-1 #
coedge $-1 $152 $149 $358 $359 reversed $93 $-1 #
coedge $-1 $149 $152 $242 $357 reversed $93 $-1 #
coedge $-1 $360 $361 $149 $246 forward $362 $-1 #
edge $-1 $363 -14.671713015618323 $364 14.671713015618323 $245 $365 forward 7 unknown #
coedge $-1 $151 $150 $355 $366 reversed $59 $-1 #
coedge $-1 $358 $367 $150 $249 forward $353 $-1 #
edge $-1 $368 -31.802394256033139 $253 -20.3483029339789 $248 $369 forward 7 unknown #
coedge $-1 $370 $242 $151 $251 forward $147 $-1 #
edge $-1 $252 20.3483029339789 $371 31.802394256033139 $250 $372 forward 7 unknown #
vertex $-1 $251 $373 #
vertex $-1 $249 $374 #
straight-curve $-1 -46.423651528984919 -27.832815803948748 0 0 0 -1 I I #
face $-1 $-1 $375 $35 $-1 $376 reversed single #
loop $-1 $-1 $377 $154 #
plane-surface $-1 57.877742851039159 0 0 -1 0 0 0 0 1 forward_v I I I I #
coedge $-1 $378 $157 $159 $264 forward $97 $-1 #
coedge $-1 $157 $378 $377 $379 reversed $97 $-1 #
coedge $-1 $380 $160 $157 $261 forward $155 $-1 #
edge $-1 $267 15.218576380777087 $381 33.512303107100415 $260 $382 forward 7 unknown #
coedge $-1 $383 $384 $158 $263 forward $375 $-1 #
edge $-1 $385 -60.9755851819612 $266 -57.642178907886134 $262 $386 forward 7 unknown #
edge $-1 $267 65.656809753072835 $385 70.638507200935322 $159 $387 forward 7 unknown #
coedge $-1 $160 $380 $383 $388 forward $155 $-1 #
vertex $-1 $263 $389 #
vertex $-1 $161 $390 #
straight-curve $-1 39.584016124715838 30.140076137619452 14.671713015618323 0 -1 0 I I #
coedge $-1 $269 $269 $-1 $391 reversed $164 $-1 #
edge $-1 $392 0 $392 6.2831853071796004 $165 $393 forward 7 unknown #
vertex $-1 $168 $394 #
ellipse-curve $-1 44.810795189379633 33.468192278279986 13.005009878580797 0 0.66913061440640931 0.74314481823134659 0.5 0 0 1 I I #
coedge $-1 $273 $273 $-1 $395 reversed $171 $-1 #
edge $-1 $396 0 $396 6.2831853071796004 $172 $397 forward 7 unknown #
vertex $-1 $175 $398 #
ellipse-curve $-1 52.650963786375343 33.468192278279986 13.005009878580797 0 0.66913061440640931 0.74314481823134659 0.5 0 0 1 I I #
face $-1 $-1 $289 $38 $-1 $399 forward single #
loop $-1 $-1 $400 $176 #
plane-surface $-1 0 -35.319253600467661 0 0 1 0 0 0 1 forward_v I I I I #
coedge $-1 $401 $402 $403 $404 reversed $177 $-1 #
coedge $-1 $405 $179 $181 $287 forward $111 $-1 #
coedge $-1 $179 $405 $401 $406 forward $111 $-1 #
coedge $-1 $403 $182 $179 $284 forward $289 $-1 #
edge $-1 $291 -5.2520714019876671 $407 20.515787502259041 $283 $408 forward 7 unknown #
coedge $-1 $409 $410 $180 $286 forward $278 $-1 #
edge $-1 $411 -39.303414297623185 $290 -34.698718501994627 $285 $412 forward 7 unknown #
edge $-1 $291 -7.1636348766550046 $411 1.8878887457821222e-014 $181 $413 forward 7 unknown #
coedge $-1 $182 $403 $409 $414 forward $289 $-1 #
loop $-1 $-1 $403 $277 #
vertex $-1 $286 $415 #
vertex $-1 $183 $416 #
straight-curve $-1 -2.3797866481480199 -54.862723238768979 14.671713015618323 0 1 0 I I #
coedge $-1 $293 $293 $-1 $417 reversed $186 $-1 #
edge $-1 $418 0 $418 6.2831853071796004 $187 $419 forward 7 unknown #
vertex $-1 $190 $420 #
ellipse-curve $-1 -20.785400151181385 -32.575422279315205 12.369365117804044 0 -0.64278761758704617 0.76604443648966558 1.5 0 0 1 I I #
coedge $-1 $297 $297 $-1 $421 reversed $193 $-1 #
edge $-1 $422 0 $422 6.2831853071796004 $194 $423 forward 7 unknown #
vertex $-1 $197 $424 #
ellipse-curve $-1 -9.7420320493613701 -32.575422279315205 12.369365117804044 0 -0.64278761758704617 0.76604443648966558 1.5 0 0 1 I I #
face $-1 $-1 $313 $41 $-1 $425 forward single #
loop $-1 $-1 $426 $198 #
plane-surface $-1 0 -35.319253600467661 0 0 1 0 0 0 1 forward_v I I I I #
coedge $-1 $427 $428 $429 $430 reversed $199 $-1 #
coedge $-1 $431 $201 $203 $311 forward $125 $-1 #
coedge $-1 $201 $431 $427 $432 forward $125 $-1 #
coedge $-1 $429 $204 $201 $308 forward $313 $-1 #
edge $-1 $315 -31.327419996993683 $433 -5.559561092746975 $307 $434 forward 7 unknown #
coedge $-1 $435 $436 $202 $310 forward $302 $-1 #
edge $-1 $437 -39.303414297623185 $314 -34.698718501994627 $309 $438 forward 7 unknown #
edge $-1 $315 -7.1636348766550046 $437 1.8878887457821222e-014 $203 $439 forward 7 unknown #
coedge $-1 $204 $429 $435 $440 forward $313 $-1 #
loop $-1 $-1 $429 $301 #
vertex $-1 $310 $441 #
vertex $-1 $205 $442 #
straight-curve $-1 49.770910541864012 -54.862723238768979 14.671713015618323 0 1 0 I I #
coedge $-1 $317 $317 $-1 $443 reversed $208 $-1 #
edge $-1 $444 0 $444 6.2831853071796004 $209 $445 forward 7 unknown #
vertex $-1 $212 $446 #
ellipse-curve $-1 31.365297038830647 -32.575422279315205 12.369365117804044 0 -0.64278761758704617 0.76604443648966558 1.5 0 0 1 I I #
coedge $-1 $321 $321 $-1 $447 reversed $215 $-1 #
edge $-1 $448 0 $448 6.2831853071796004 $216 $449 forward 7 unknown #
vertex $-1 $219 $450 #
ellipse-curve $-1 42.408665140650669 -32.575422279315205 12.369365117804044 0 -0.64278761758704617 0.76604443648966558 1.5 0 0 1 I I #
face $-1 $-1 $235 $33 $-1 $451 reversed single #
loop $-1 $-1 $341 $220 #
plane-surface $-1 0 35.319253600467661 0 0 -1 0 0 0 -1 forward_v I I I I #
coedge $-1 $452 $339 $342 $453 forward $221 $-1 #
coedge $-1 $345 $223 $224 $333 reversed $139 $-1 #
coedge $-1 $339 $452 $223 $331 reversed $221 $-1 #
edge $-1 $346 -14.671713015618323 $454 14.671713015618323 $330 $455 forward 7 unknown #
coedge $-1 $225 $224 $452 $456 forward $89 $-1 #
edge $-1 $337 -57.877742851039159 $454 57.877742851039159 $329 $457 forward 7 unknown #
coedge $-1 $342 $341 $225 $335 reversed $326 $-1 #
edge $-1 $458 -57.877742851039159 $336 57.877742851039159 $334 $459 forward 7 unknown #
vertex $-1 $227 $460 #
vertex $-1 $348 $461 #
straight-curve $-1 57.877742851039159 0 -14.671713015618323 0 -1 0 I I #
coedge $-1 $328 $330 $228 $340 reversed $221 $-1 #
edge $-1 $343 -35.319253600467661 $346 35.319253600467661 $339 $462 forward 7 unknown #
coedge $-1 $334 $229 $234 $349 forward $326 $-1 #
coedge $-1 $229 $334 $328 $453 reversed $326 $-1 #
vertex $-1 $230 $463 #
straight-curve $-1 0 35.319253600467661 14.671713015618323 -1 0 0 I I #
coedge $-1 $231 $329 $233 $348 reversed $139 $-1 #
vertex $-1 $340 $464 #
straight-curve $-1 0 -35.319253600467661 14.671713015618323 1 0 0 I I #
edge $-1 $236 -14.671713015618323 $337 14.671713015618323 $233 $465 forward 7 unknown #
edge $-1 $237 -14.671713015618323 $336 14.671713015618323 $234 $466 forward 7 unknown #
point $-1 57.877742851039159 -35.319253600467661 14.671713015618323 #
point $-1 57.877742851039159 35.319253600467661 14.671713015618323 #
face $-1 $-1 $362 $34 $-1 $467 reversed single #
loop $-1 $-1 $358 $239 #
plane-surface $-1 0 0 -14.671713015618323 0 0 1 1 0 0 forward_v I I I I #
coedge $-1 $468 $469 $247 $366 forward $240 $-1 #
coedge $-1 $242 $370 $360 $470 forward $147 $-1 #
edge $-1 $364 -19.531236249363559 $252 -12.044798452844645 $242 $471 forward 7 unknown #
coedge $-1 $472 $248 $243 $359 forward $353 $-1 #
edge $-1 $253 12.044798452844645 $363 19.531236249363559 $358 $473 forward 7 unknown #
coedge $-1 $474 $245 $356 $470 reversed $362 $-1 #
coedge $-1 $245 $474 $472 $475 reversed $362 $-1 #
loop $-1 $-1 $245 $352 #
vertex $-1 $475 $476 #
vertex $-1 $246 $477 #
straight-curve $-1 -46.423651528984919 -35.319253600467661 0 0 0 1 I I #
edge $-1 $371 -14.671713015618323 $368 14.671713015618323 $355 $478 forward 7 unknown #
coedge $-1 $248 $472 $468 $479 forward $353 $-1 #
vertex $-1 $249 $480 #
straight-curve $-1 -26.07534859500602 -27.832815803948748 -14.671713015618323 1 0 0 I I #
coedge $-1 $356 $250 $469 $481 forward $147 $-1 #
vertex $-1 $481 $482 #
straight-curve $-1 -26.07534859500602 -27.832815803948748 14.671713015618323 -1 0 0 I I #
point $-1 -46.423651528984919 -27.832815803948748 14.671713015618323 #
point $-1 -46.423651528984919 -27.832815803948748 -14.671713015618323 #
loop $-1 $-1 $262 $255 #
plane-surface $-1 0 35.319253600467661 0 0 -1 0 0 0 -1 forward_v I I I I #
coedge $-1 $483 $484 $259 $379 forward $256 $-1 #
coedge $-1 $259 $258 $384 $485 reversed $97 $-1 #
edge $-1 $381 39.667812222949777 $486 44.649509670812265 $377 $487 forward 7 unknown #
coedge $-1 $265 $260 $484 $488 forward $155 $-1 #
vertex $-1 $488 $489 #
straight-curve $-1 24.365439743938751 31.617130956092328 14.67171301561832 1 0 0 I I #
coedge $-1 $490 $262 $265 $388 reversed $375 $-1 #
coedge $-1 $262 $490 $378 $485 forward $375 $-1 #
vertex $-1 $263 $491 #
straight-curve $-1 39.584016124715838 35.319253600467661 72.313891923504457 0 0 1 I I #
straight-curve $-1 39.584016124715838 -17.175386993505086 58.604694465656678 0 0.74314481823134659 -0.66913061440640931 I I #
edge $-1 $492 -57.877742851039159 $266 -39.584016124715838 $383 $493 forward 7 unknown #
point $-1 39.584016124715838 35.319253600467661 14.671713015618323 #
point $-1 39.584016124715838 31.617130956092332 14.671713015618323 #
edge $-1 $494 1 $494 0 $269 $-1 forward 7 unknown #
vertex $-1 $270 $495 #
ellipse-curve $-1 44.810795189379633 32.799061663873559 12.261865060349429 0 0.66913061440640931 0.74314481823134659 0.5 0 0 1 I I #
point $-1 45.310795189379633 33.468192278279965 13.005009878580776 #
edge $-1 $496 1 $496 0 $273 $-1 forward 7 unknown #
vertex $-1 $274 $497 #
ellipse-curve $-1 52.650963786375343 32.799061663873559 12.261865060349429 0 0.66913061440640931 0.74314481823134659 0.5 0 0 1 I I #
point $-1 53.150963786375343 33.468192278279965 13.005009878580776 #
plane-surface $-1 0 0 14.671713015618323 0 0 1 1 0 0 forward_v I I I I #
coedge $-1 $410 $409 $402 $498 forward $278 $-1 #
coedge $-1 $402 $280 $282 $406 reversed $177 $-1 #
coedge $-1 $280 $401 $400 $498 reversed $177 $-1 #
coedge $-1 $288 $283 $280 $404 forward $289 $-1 #
edge $-1 $407 -25.031132280606229 $499 -19.543469638301318 $403 $500 forward 7 unknown #
coedge $-1 $282 $281 $410 $501 reversed $111 $-1 #
edge $-1 $502 -1.8878887457821222e-014 $407 7.1636348766550046 $401 $503 forward 7 unknown #
vertex $-1 $284 $504 #
straight-curve $-1 -7.631858050135687 -29.831590958162746 14.671713015618323 -1 0 0 I I #
coedge $-1 $400 $285 $288 $414 reversed $278 $-1 #
coedge $-1 $285 $400 $405 $501 forward $278 $-1 #
vertex $-1 $286 $505 #
straight-curve $-1 -2.3797866481480199 -35.319253600467661 49.37043151761295 0 0 1 I I #
straight-curve $-1 -2.3797866481480199 -35.319253600467647 10.067017219989779 0 -0.76604443648966558 -0.64278761758704617 I I #
edge $-1 $499 -28.147645552394728 $290 -2.3797866481480199 $409 $506 forward 7 unknown #
point $-1 -2.3797866481480199 -35.319253600467661 14.671713015618323 #
point $-1 -2.3797866481480199 -29.831590958162749 14.671713015618323 #
edge $-1 $507 1 $507 0 $293 $-1 forward 7 unknown #
vertex $-1 $294 $508 #
ellipse-curve $-1 -20.785400151181385 -31.350384859256135 10.909422401964743 0 -0.64278761758704617 0.76604443648966558 1.5 0 0 1 I I #
point $-1 -19.285400151181385 -32.575422279315212 12.369365117804051 #
edge $-1 $509 1 $509 0 $297 $-1 forward 7 unknown #
vertex $-1 $298 $510 #
ellipse-curve $-1 -9.7420320493613701 -31.350384859256135 10.909422401964743 0 -0.64278761758704617 0.76604443648966558 1.5 0 0 1 I I #
point $-1 -8.2420320493613701 -32.575422279315212 12.369365117804051 #
plane-surface $-1 0 0 14.671713015618323 0 0 1 1 0 0 forward_v I I I I #
coedge $-1 $436 $435 $428 $511 forward $302 $-1 #
coedge $-1 $428 $304 $306 $432 reversed $199 $-1 #
coedge $-1 $304 $427 $426 $511 reversed $199 $-1 #
coedge $-1 $312 $307 $304 $430 forward $313 $-1 #
edge $-1 $433 -25.031132280606229 $512 -19.543469638301318 $429 $513 forward 7 unknown #
coedge $-1 $306 $305 $436 $514 reversed $125 $-1 #
edge $-1 $515 -1.8878887457821222e-014 $433 7.1636348766550046 $427 $516 forward 7 unknown #
vertex $-1 $308 $517 #
straight-curve $-1 18.443490544870329 -29.831590958162746 14.671713015618323 -1 0 0 I I #
coedge $-1 $426 $309 $312 $440 reversed $302 $-1 #
coedge $-1 $309 $426 $431 $514 forward $302 $-1 #
vertex $-1 $310 $518 #
straight-curve $-1 49.770910541864012 -35.319253600467661 49.37043151761295 0 0 1 I I #
straight-curve $-1 49.770910541864012 -35.319253600467647 10.067017219989779 0 -0.76604443648966558 -0.64278761758704617 I I #
edge $-1 $512 24.003051637617304 $314 49.770910541864012 $435 $519 forward 7 unknown #
point $-1 49.770910541864012 -35.319253600467661 14.671713015618323 #
point $-1 49.770910541864012 -29.831590958162749 14.671713015618323 #
edge $-1 $520 1 $520 0 $317 $-1 forward 7 unknown #
vertex $-1 $318 $521 #
ellipse-curve $-1 31.365297038830647 -31.350384859256135 10.909422401964743 0 -0.64278761758704617 0.76604443648966558 1.5 0 0 1 I I #
point $-1 32.865297038830647 -32.575422279315212 12.369365117804051 #
edge $-1 $522 1 $522 0 $321 $-1 forward 7 unknown #
vertex $-1 $322 $523 #
ellipse-curve $-1 42.408665140650669 -31.350384859256135 10.909422401964743 0 -0.64278761758704617 0.76604443648966558 1.5 0 0 1 I I #
point $-1 43.908665140650669 -32.575422279315212 12.369365117804051 #
plane-surface $-1 57.877742851039159 0 0 -1 0 0 0 0 1 forward_v I I I I #
coedge $-1 $330 $328 $332 $456 reversed $221 $-1 #
edge $-1 $343 -14.671713015618323 $458 14.671713015618323 $342 $524 forward 7 unknown #
vertex $-1 $456 $525 #
straight-curve $-1 -57.877742851039159 -35.319253600467661 0 0 0 -1 I I #
edge $-1 $454 -35.319253600467661 $458 35.319253600467661 $452 $526 forward 7 unknown #
straight-curve $-1 0 -35.319253600467661 -14.671713015618323 -1 0 0 I I #
vertex $-1 $335 $527 #
straight-curve $-1 0 35.319253600467661 -14.671713015618323 1 0 0 I I #
point $-1 57.877742851039159 35.319253600467661 -14.671713015618323 #
point $-1 57.877742851039159 -35.319253600467661 -14.671713015618323 #
straight-curve $-1 -57.877742851039159 0 14.671713015618323 0 -1 0 I I #
point $-1 -57.877742851039159 35.319253600467661 14.671713015618323 #
point $-1 -57.877742851039159 -35.319253600467661 14.671713015618323 #
straight-curve $-1 57.877742851039159 -35.319253600467661 0 0 0 -1 I I #
straight-curve $-1 57.877742851039159 35.319253600467661 0 0 0 -1 I I #
plane-surface $-1 0 -35.319253600467661 0 0 1 0 0 0 1 forward_v I I I I #
coedge $-1 $528 $355 $367 $479 reversed $240 $-1 #
coedge $-1 $355 $528 $370 $481 reversed $240 $-1 #
edge $-1 $529 -57.877742851039159 $364 -46.423651528984919 $360 $530 forward 7 unknown #
straight-curve $-1 -46.423651528984919 -15.788017351104102 14.671713015618323 0 1 0 I I #
coedge $-1 $367 $358 $361 $475 forward $353 $-1 #
straight-curve $-1 -46.423651528984919 -15.788017351104102 -14.671713015618323 0 -1 0 I I #
coedge $-1 $361 $360 $528 $531 forward $362 $-1 #
edge $-1 $363 46.423651528984919 $532 57.877742851039159 $361 $533 forward 7 unknown #
point $-1 -46.423651528984919 -35.319253600467661 -14.671713015618323 #
point $-1 -46.423651528984919 -35.319253600467661 14.671713015618323 #
straight-curve $-1 -57.877742851039159 -27.832815803948748 0 0 0 -1 I I #
edge $-1 $532 -35.319253600467661 $368 -27.832815803948748 $468 $534 forward 7 unknown #
point $-1 -57.877742851039159 -27.832815803948748 -14.671713015618323 #
edge $-1 $371 27.832815803948748 $529 35.319253600467661 $469 $535 forward 7 unknown #
point $-1 -57.877742851039159 -27.832815803948748 14.671713015618323 #
coedge $-1 $484 $377 $490 $536 reversed $256 $-1 #
coedge $-1 $377 $483 $380 $488 reversed $256 $-1 #
edge $-1 $486 -33.512303107100415 $385 -15.218576380777087 $384 $537 forward 7 unknown #
vertex $-1 $379 $538 #
straight-curve $-1 57.877742851039159 2.1382018520331325 41.214660580518782 0 0.74314481823134659 -0.66913061440640931 I I #
edge $-1 $381 31.617130956092332 $492 35.319253600467661 $484 $539 forward 7 unknown #
point $-1 57.877742851039166 31.617130956092332 14.671713015618323 #
coedge $-1 $384 $383 $483 $536 forward $375 $-1 #
point $-1 39.584016124715838 35.319253600467661 11.338306741543256 #
vertex $-1 $488 $540 #
straight-curve $-1 0 35.319253600467661 14.671713015618323 -1 0 0 I I #
vertex $-1 $391 $541 #
point $-1 45.310795189379633 32.799061663873559 12.261865060349429 #
vertex $-1 $395 $542 #
point $-1 53.150963786375343 32.799061663873559 12.261865060349429 #
edge $-1 $499 34.698718501994627 $502 39.303414297623185 $400 $543 forward 7 unknown #
vertex $-1 $414 $544 #
straight-curve $-1 -28.147645552394728 -54.862723238768979 14.671713015618323 0 -1 0 I I #
edge $-1 $502 -20.515787502259041 $411 5.2520714019876671 $410 $545 forward 7 unknown #
vertex $-1 $501 $546 #
straight-curve $-1 -28.147645552394728 -35.319253600467647 10.067017219989779 0 0.76604443648966558 0.64278761758704617 I I #
point $-1 -28.147645552394728 -29.831590958162749 14.671713015618323 #
point $-1 -2.3797866481480199 -35.319253600467661 10.067017219989767 #
straight-curve $-1 0 -35.319253600467661 14.671713015618323 1 0 0 I I #
vertex $-1 $417 $547 #
point $-1 -19.285400151181385 -31.350384859256135 10.909422401964743 #
vertex $-1 $421 $548 #
point $-1 -8.2420320493613701 -31.350384859256135 10.909422401964743 #
edge $-1 $512 34.698718501994627 $515 39.303414297623185 $426 $549 forward 7 unknown #
vertex $-1 $440 $550 #
straight-curve $-1 24.003051637617304 -54.862723238768979 14.671713015618323 0 -1 0 I I #
edge $-1 $515 5.559561092746975 $437 31.327419996993683 $436 $551 forward 7 unknown #
vertex $-1 $514 $552 #
straight-curve $-1 24.003051637617304 -35.319253600467647 10.067017219989779 0 0.76604443648966558 0.64278761758704617 I I #
point $-1 24.003051637617304 -29.831590958162749 14.671713015618323 #
point $-1 49.770910541864012 -35.319253600467661 10.067017219989767 #
straight-curve $-1 0 -35.319253600467661 14.671713015618323 1 0 0 I I #
vertex $-1 $443 $553 #
point $-1 32.865297038830647 -31.350384859256135 10.909422401964743 #
vertex $-1 $447 $554 #
point $-1 43.908665140650669 -31.350384859256135 10.909422401964743 #
straight-curve $-1 -57.877742851039159 35.319253600467661 0 0 0 -1 I I #
point $-1 -57.877742851039159 -35.319253600467661 -14.671713015618323 #
straight-curve $-1 -57.877742851039159 0 -14.671713015618323 0 1 0 I I #
point $-1 -57.877742851039159 35.319253600467661 -14.671713015618323 #
coedge $-1 $469 $468 $474 $531 reversed $240 $-1 #
vertex $-1 $481 $555 #
straight-curve $-1 0 -35.319253600467661 14.671713015618323 1 0 0 I I #
edge $-1 $529 -14.671713015618323 $532 14.671713015618323 $528 $556 forward 7 unknown #
vertex $-1 $479 $557 #
straight-curve $-1 0 -35.319253600467661 -14.671713015618323 -1 0 0 I I #
straight-curve $-1 -57.877742851039159 0 -14.671713015618323 0 1 0 I I #
straight-curve $-1 -57.877742851039159 0 14.671713015618323 0 -1 0 I I #
edge $-1 $492 -14.671713015618323 $486 -11.338306741543256 $483 $558 forward 7 unknown #
straight-curve $-1 24.365439743938751 35.319253600467654 11.338306741543263 -1 0 0 I I #
point $-1 57.877742851039166 35.319253600467661 11.338306741543256 #
straight-curve $-1 57.877742851039159 0 14.671713015618323 0 1 0 I I #
point $-1 57.877742851039159 35.319253600467661 14.671713015618323 #
point $-1 44.810795189379633 32.464496356670352 11.890292651233757 #
point $-1 52.650963786375343 32.464496356670352 11.890292651233757 #
straight-curve $-1 -28.147645552394728 -35.319253600467661 49.37043151761295 0 0 -1 I I #
point $-1 -28.147645552394728 -35.319253600467661 14.671713015618323 #
straight-curve $-1 -7.631858050135687 -35.319253600467661 10.06701721998977 1 0 0 I I #
point $-1 -28.147645552394728 -35.319253600467661 10.067017219989767 #
point $-1 -20.785400151181385 -30.386203432875565 9.7603557472302462 #
point $-1 -9.7420320493613701 -30.386203432875565 9.7603557472302462 #
straight-curve $-1 24.003051637617304 -35.319253600467661 49.37043151761295 0 0 -1 I I #
point $-1 24.003051637617304 -35.319253600467661 14.671713015618323 #
straight-curve $-1 18.443490544870329 -35.319253600467661 10.06701721998977 1 0 0 I I #
point $-1 24.003051637617304 -35.319253600467661 10.067017219989767 #
point $-1 31.365297038830647 -30.386203432875565 9.7603557472302462 #
point $-1 42.408665140650669 -30.386203432875565 9.7603557472302462 #
point $-1 -57.877742851039159 -35.319253600467661 14.671713015618323 #
straight-curve $-1 -57.877742851039159 -35.319253600467661 0 0 0 -1 I I #
point $-1 -57.877742851039159 -35.319253600467661 -14.671713015618323 #
straight-curve $-1 57.877742851039159 35.319253600467661 0 0 0 -1 I I #
End-of-ACIS-data 