500 0 8 0           
7 Unknown 11 ACIS 5.0 NT 24 Thu Mar 25 19:02:42 1999 
-1 9.9999999999999995e-007 1e-010 
body $-1 $8 $-1 $9 #
body $-1 $10 $-1 $11 #
body $-1 $12 $-1 $13 #
body $-1 $14 $-1 $15 #
body $-1 $16 $-1 $17 #
body $-1 $18 $-1 $19 #
body $-1 $20 $-1 $21 #
body $-1 $22 $-1 $23 #
lump $-1 $-1 $24 $0 #
transform $-1 1 0 0 0 1 0 0 0 1 56.501968443861202 31.086687432658767 11.65463791116794 1 rotate no_reflect no_shear #
lump $-1 $-1 $25 $1 #
transform $-1 1 0 0 0 1 0 0 0 1 56.501968443861202 31.086687432658767 11.65463791116794 1 rotate no_reflect no_shear #
lump $-1 $-1 $26 $2 #
transform $-1 1 0 0 0 1 0 0 0 1 56.501968443861202 31.086687432658767 11.65463791116794 1 rotate no_reflect no_shear #
lump $-1 $-1 $27 $3 #
transform $-1 1 0 0 0 1 0 0 0 1 56.501968443861202 31.086687432658767 11.65463791116794 1 rotate no_reflect no_shear #
lump $-1 $-1 $28 $4 #
transform $-1 1 0 0 0 1 0 0 0 1 56.501968443861202 31.086687432658767 11.65463791116794 1 rotate no_reflect no_shear #
lump $-1 $-1 $29 $5 #
transform $-1 1 0 0 0 1 0 0 0 1 56.501968443861202 31.086687432658767 11.65463791116794 1 rotate no_reflect no_shear #
lump $-1 $-1 $30 $6 #
transform $-1 1 0 0 0 1 0 0 0 1 56.501968443861202 31.086687432658767 11.65463791116794 1 rotate no_reflect no_shear #
lump $-1 $-1 $31 $7 #
transform $-1 1 0 0 0 1 0 0 0 1 56.501968443861202 31.086687432658767 11.65463791116794 1 rotate no_reflect no_shear #
shell $-1 $-1 $-1 $32 $-1 $8 #
shell $-1 $-1 $-1 $33 $-1 $10 #
shell $-1 $-1 $-1 $34 $-1 $12 #
shell $-1 $-1 $-1 $35 $-1 $14 #
shell $-1 $-1 $-1 $36 $-1 $16 #
shell $-1 $-1 $-1 $37 $-1 $18 #
shell $-1 $-1 $-1 $38 $-1 $20 #
shell $-1 $-1 $-1 $39 $-1 $22 #
face $-1 $40 $41 $24 $-1 $42 reversed single #
face $-1 $43 $44 $25 $-1 $45 forward single #
face $-1 $46 $47 $26 $-1 $48 reversed single #
face $-1 $49 $50 $27 $-1 $51 forward single #
face $-1 $52 $53 $28 $-1 $54 forward single #
face $-1 $55 $56 $29 $-1 $57 reversed single #
face $-1 $58 $59 $30 $-1 $60 forward single #
face $-1 $61 $62 $31 $-1 $63 forward single #
face $-1 $64 $65 $24 $-1 $66 forward single #
loop $-1 $-1 $67 $32 #
plane-surface $-1 -56.501968443861202 0 0 1 0 0 0 0 -1 forward_v I I I I #
face $-1 $68 $69 $25 $-1 $70 reversed single #
loop $-1 $-1 $71 $33 #
plane-surface $-1 -56.501968443861202 0 0 1 0 0 0 0 -1 forward_v I I I I #
face $-1 $72 $73 $26 $-1 $74 reversed single #
loop $-1 $-1 $75 $34 #
plane-surface $-1 23.231719313568327 -89.288018318784054 103.92444092269295 -1 0 0 0 -0.51503808176128008 0.85716729658548041 forward_v I I I I #
face $-1 $76 $77 $27 $-1 $78 forward single #
loop $-1 $79 $80 $35 #
cone-surface $-1 11.680137812138483 -26.26203426959324 7.6898936992712699 0 0.51503808176128008 -0.85716729658548041 2 0 0 1 I I 0 1 2 forward I I I I #
face $-1 $81 $82 $28 $-1 $83 forward single #
loop $-1 $84 $85 $36 #
cone-surface $-1 18.611086712996382 -26.26203426959324 7.6898936992712699 0 0.51503808176128008 -0.85716729658548041 2 0 0 1 I I 0 1 2 forward I I I I #
face $-1 $86 $87 $29 $-1 $88 reversed single #
loop $-1 $-1 $89 $37 #
plane-surface $-1 43.785475278778627 53.884583274806047 127.34450788851866 1 0 0 0 -0.62932039886446345 -0.77714595512881146 forward_v I I I I #
face $-1 $90 $91 $30 $-1 $92 forward single #
loop $-1 $93 $94 $38 #
cone-surface $-1 47.418759040230782 22.644098756175854 4.1838802980784902 0 -0.62932039886446345 -0.77714595512881146 1.5 0 0 1 I I 0 1 1.5 forward I I I I #
face $-1 $95 $96 $31 $-1 $97 forward single #
loop $-1 $98 $99 $39 #
cone-surface $-1 52.868684682409025 22.644098756175854 4.1838802980784902 0 -0.62932039886446345 -0.77714595512881146 1.5 0 0 1 I I 0 1 1.5 forward I I I I #
face $-1 $100 $101 $24 $-1 $102 reversed single #
loop $-1 $-1 $103 $40 #
plane-surface $-1 0 0 11.65463791116794 0 0 1 1 0 0 forward_v I I I I #
coedge $-1 $104 $105 $106 $107 reversed $41 $-1 #
face $-1 $108 $109 $25 $-1 $110 reversed single #
loop $-1 $-1 $111 $43 #
plane-surface $-1 0 0 -11.65463791116794 0 0 1 1 0 0 forward_v I I I I #
coedge $-1 $112 $113 $114 $115 forward $44 $-1 #
face $-1 $116 $117 $26 $-1 $118 reversed single #
loop $-1 $-1 $119 $46 #
plane-surface $-1 15.14561226256744 -31.086687432658749 7.061161837127699 0 -0.51503808176128008 0.85716729658548041 1 0 0 forward_v I I I I #
coedge $-1 $120 $121 $122 $123 reversed $47 $-1 #
face $-1 $-1 $124 $27 $-1 $125 forward single #
loop $-1 $126 $127 $49 #
cone-surface $-1 11.680137812138483 -24.744756946908332 5.164720227809239 0 0.51503808176128008 -0.85716729658548041 1 0 0 1 I I -0.70710678118654746 0.70710678118654746 1 forward I I I I #
loop $-1 $-1 $128 $35 #
coedge $-1 $80 $80 $129 $130 reversed $50 $-1 #
face $-1 $-1 $131 $28 $-1 $132 forward single #
loop $-1 $133 $134 $52 #
cone-surface $-1 18.611086712996382 -24.744756946908332 5.164720227809239 0 0.51503808176128008 -0.85716729658548041 1 0 0 1 I I -0.70710678118654746 0.70710678118654746 1 forward I I I I #
loop $-1 $-1 $135 $36 #
coedge $-1 $85 $85 $136 $137 reversed $53 $-1 #
face $-1 $138 $139 $29 $-1 $140 reversed single #
loop $-1 $-1 $141 $55 #
plane-surface $-1 50.143721861319918 -17.231099360630068 39.523955422593701 0 0.62932039886446345 0.77714595512881146 1 0 0 forward_v I I I I #
coedge $-1 $142 $143 $144 $145 reversed $56 $-1 #
face $-1 $-1 $146 $30 $-1 $147 forward single #
loop $-1 $148 $149 $58 #
cone-surface $-1 47.418759040230782 20.680543056273326 1.7590909974252629 0 -0.62932039886446345 -0.77714595512881146 0.75 0 0 1 I I -0.70710678118654757 0.70710678118654757 0.75 forward I I I I #
loop $-1 $-1 $150 $38 #
coedge $-1 $94 $94 $151 $152 reversed $59 $-1 #
face $-1 $-1 $153 $31 $-1 $154 forward single #
loop $-1 $155 $156 $61 #
cone-surface $-1 52.868684682409025 20.680543056273326 1.7590909974252629 0 -0.62932039886446345 -0.77714595512881146 0.75 0 0 1 I I -0.70710678118654757 0.70710678118654757 0.75 forward I I I I #
loop $-1 $-1 $157 $39 #
coedge $-1 $99 $99 $158 $159 reversed $62 $-1 #
face $-1 $160 $161 $24 $-1 $162 reversed single #
loop $-1 $-1 $163 $64 #
plane-surface $-1 0 0 -11.65463791116794 0 0 1 1 0 0 forward_v I I I I #
coedge $-1 $164 $165 $166 $167 forward $65 $-1 #
coedge $-1 $168 $67 $169 $170 reversed $41 $-1 #
coedge $-1 $67 $168 $171 $172 forward $41 $-1 #
coedge $-1 $173 $174 $67 $107 forward $101 $-1 #
edge $-1 $175 -31.086687432658767 $176 31.086687432658767 $67 $177 forward 7 unknown #
face $-1 $178 $179 $25 $-1 $180 reversed single #
loop $-1 $-1 $181 $68 #
plane-surface $-1 -62.043717292748845 -18.920708400735826 0 0 1 0 0 0 1 forward_v I I I I #
coedge $-1 $182 $183 $113 $184 forward $69 $-1 #
coedge $-1 $185 $71 $186 $187 reversed $44 $-1 #
coedge $-1 $71 $185 $111 $184 reversed $44 $-1 #
coedge $-1 $188 $189 $71 $115 reversed $190 $-1 #
edge $-1 $191 -11.65463791116794 $192 11.65463791116794 $114 $193 forward 7 unknown #
face $-1 $194 $195 $26 $-1 $196 forward single #
loop $-1 $-1 $197 $72 #
plane-surface $-1 7.0595052115665524 -89.288018318784054 103.92444092269295 1 0 0 0 0.51503808176128008 -0.85716729658548041 forward_v I I I I #
coedge $-1 $198 $199 $200 $201 reversed $73 $-1 #
coedge $-1 $121 $75 $202 $203 reversed $47 $-1 #
coedge $-1 $75 $120 $198 $204 reversed $47 $-1 #
coedge $-1 $200 $205 $75 $123 forward $195 $-1 #
edge $-1 $206 13.55732172673326 $207 21.202149571017095 $122 $208 forward 7 unknown #
loop $-1 $-1 $129 $76 #
plane-surface $-1 15.14561226256744 -31.086687432658749 7.061161837127699 0 -0.51503808176128008 0.85716729658548041 1 0 0 forward_v I I I I #
loop $-1 $-1 $209 $49 #
coedge $-1 $127 $127 $128 $210 reversed $77 $-1 #
coedge $-1 $128 $128 $127 $210 forward $79 $-1 #
coedge $-1 $129 $129 $80 $130 forward $124 $-1 #
edge $-1 $211 6.1429569675325867e-016 $211 6.2831853071796013 $129 $212 forward 7 unknown #
loop $-1 $-1 $136 $81 #
plane-surface $-1 15.14561226256744 -31.086687432658749 7.061161837127699 0 -0.51503808176128008 0.85716729658548041 1 0 0 forward_v I I I I #
loop $-1 $-1 $213 $52 #
coedge $-1 $134 $134 $135 $214 reversed $82 $-1 #
coedge $-1 $135 $135 $134 $214 forward $84 $-1 #
coedge $-1 $136 $136 $85 $137 forward $131 $-1 #
edge $-1 $215 6.1429569675325867e-016 $215 6.2831853071796013 $136 $216 forward 7 unknown #
face $-1 $217 $218 $29 $-1 $219 forward single #
loop $-1 $-1 $220 $86 #
plane-surface $-1 0 31.086687432658767 0 0 -1 0 0 0 -1 forward_v I I I I #
coedge $-1 $221 $222 $223 $224 reversed $87 $-1 #
coedge $-1 $143 $89 $225 $226 reversed $56 $-1 #
coedge $-1 $89 $142 $221 $227 reversed $56 $-1 #
coedge $-1 $223 $228 $89 $145 forward $218 $-1 #
edge $-1 $229 -4.1443957952557433 $230 9.7576507562017198 $144 $231 forward 7 unknown #
loop $-1 $-1 $151 $90 #
plane-surface $-1 50.143721861319918 -17.231099360630068 39.523955422593701 0 0.62932039886446345 0.77714595512881146 1 0 0 forward_v I I I I #
loop $-1 $-1 $232 $58 #
coedge $-1 $149 $149 $150 $233 reversed $91 $-1 #
coedge $-1 $150 $150 $149 $233 forward $93 $-1 #
coedge $-1 $151 $151 $94 $152 forward $146 $-1 #
edge $-1 $234 -1.1178975946969835e-015 $234 6.2831853071795996 $151 $235 forward 7 unknown #
loop $-1 $-1 $158 $95 #
plane-surface $-1 50.143721861319918 -17.231099360630068 39.523955422593701 0 0.62932039886446345 0.77714595512881146 1 0 0 forward_v I I I I #
loop $-1 $-1 $236 $61 #
coedge $-1 $156 $156 $157 $237 reversed $96 $-1 #
coedge $-1 $157 $157 $156 $237 forward $98 $-1 #
coedge $-1 $158 $158 $99 $159 forward $153 $-1 #
edge $-1 $238 -1.1178975946969835e-015 $238 6.2831853071795996 $158 $239 forward 7 unknown #
face $-1 $240 $241 $24 $-1 $242 reversed single #
loop $-1 $-1 $169 $100 #
plane-surface $-1 0 -31.086687432658767 0 0 1 0 0 0 1 forward_v I I I I #
coedge $-1 $174 $173 $243 $244 forward $101 $-1 #
coedge $-1 $245 $103 $246 $247 forward $65 $-1 #
coedge $-1 $103 $245 $248 $249 forward $65 $-1 #
coedge $-1 $250 $251 $103 $167 reversed $252 $-1 #
edge $-1 $253 -31.086687432658767 $254 31.086687432658767 $166 $255 forward 7 unknown #
coedge $-1 $105 $104 $245 $256 reversed $41 $-1 #
coedge $-1 $257 $248 $104 $170 forward $161 $-1 #
edge $-1 $258 -11.65463791116794 $175 11.65463791116794 $104 $259 forward 7 unknown #
coedge $-1 $246 $260 $105 $172 reversed $241 $-1 #
edge $-1 $261 -11.65463791116794 $176 11.65463791116794 $171 $262 forward 7 unknown #
coedge $-1 $163 $106 $260 $263 forward $101 $-1 #
coedge $-1 $106 $163 $257 $264 forward $101 $-1 #
vertex $-1 $107 $265 #
vertex $-1 $263 $266 #
straight-curve $-1 -56.501968443861202 0 -11.65463791116794 0 1 0 I I #
face $-1 $267 $190 $25 $-1 $268 reversed single #
loop $-1 $-1 $269 $108 #
plane-surface $-1 -67.585466141636488 -16.821721166470397 0 1 0 0 0 0 -1 forward_v I I I I #
coedge $-1 $270 $271 $272 $273 forward $109 $-1 #
coedge $-1 $274 $111 $270 $275 forward $69 $-1 #
coedge $-1 $111 $274 $188 $276 forward $69 $-1 #
edge $-1 $191 14.722733932204966 $277 18.920708400735826 $111 $278 forward 7 unknown #
coedge $-1 $113 $112 $279 $280 forward $44 $-1 #
coedge $-1 $281 $282 $112 $187 forward $283 $-1 #
edge $-1 $284 -18.920708400735826 $192 -14.722733932204966 $186 $285 forward 7 unknown #
coedge $-1 $286 $114 $183 $276 reversed $190 $-1 #
coedge $-1 $114 $286 $281 $287 reversed $190 $-1 #
loop $-1 $-1 $114 $178 #
vertex $-1 $184 $288 #
vertex $-1 $287 $289 #
straight-curve $-1 -56.501968443861202 -14.722733932204966 0 0 0 1 I I #
face $-1 $-1 $290 $26 $-1 $291 reversed single #
loop $-1 $-1 $122 $116 #
plane-surface $-1 0 0 11.65463791116794 0 0 1 1 0 0 forward_v I I I I #
coedge $-1 $292 $293 $294 $295 reversed $117 $-1 #
coedge $-1 $296 $119 $121 $204 forward $73 $-1 #
coedge $-1 $119 $296 $292 $297 forward $73 $-1 #
coedge $-1 $294 $122 $119 $201 forward $195 $-1 #
edge $-1 $207 -15.658913182284607 $298 0.5133009197171674 $200 $299 forward 7 unknown #
coedge $-1 $300 $301 $120 $203 forward $290 $-1 #
edge $-1 $302 -44.901058624218791 $206 -40.307582550178537 $202 $303 forward 7 unknown #
edge $-1 $207 -8.9187115219361885 $302 2.0715698412527822e-014 $121 $304 forward 7 unknown #
coedge $-1 $122 $294 $300 $305 forward $195 $-1 #
vertex $-1 $123 $306 #
vertex $-1 $123 $307 #
straight-curve $-1 23.231719313568327 -44.644009159392027 11.654637911167939 0 1 0 I I #
coedge $-1 $209 $209 $-1 $308 reversed $126 $-1 #
edge $-1 $309 0 $309 6.2831853071796004 $127 $310 forward 7 unknown #
vertex $-1 $130 $311 #
ellipse-curve $-1 11.680137812138483 -27.264273510516858 9.3578998741478081 0 -0.51503808176128008 0.85716729658548041 2 0 0 1 I I #
coedge $-1 $213 $213 $-1 $312 reversed $133 $-1 #
edge $-1 $313 0 $313 6.2831853071796004 $134 $314 forward 7 unknown #
vertex $-1 $137 $315 #
ellipse-curve $-1 18.611086712996382 -27.264273510516858 9.3578998741478081 0 -0.51503808176128008 0.85716729658548041 2 0 0 1 I I #
face $-1 $-1 $316 $29 $-1 $317 reversed single #
loop $-1 $-1 $223 $138 #
plane-surface $-1 0 0 11.65463791116794 0 0 1 1 0 0 forward_v I I I I #
coedge $-1 $225 $318 $319 $320 forward $139 $-1 #
coedge $-1 $319 $141 $143 $227 forward $87 $-1 #
coedge $-1 $141 $319 $321 $322 reversed $87 $-1 #
coedge $-1 $323 $144 $141 $224 forward $218 $-1 #
edge $-1 $230 18.713614348118668 $324 31.43010751320125 $223 $325 forward 7 unknown #
coedge $-1 $326 $220 $142 $226 forward $139 $-1 #
edge $-1 $327 -63.27527159065707 $229 -52.017616033091393 $225 $328 forward 7 unknown #
edge $-1 $230 44.28478333407395 $327 62.173374865317541 $143 $329 forward 7 unknown #
coedge $-1 $144 $323 $326 $330 forward $218 $-1 #
vertex $-1 $226 $331 #
vertex $-1 $145 $332 #
straight-curve $-1 43.785475278778627 26.942291637403024 11.654637911167939 0 -1 0 I I #
coedge $-1 $232 $232 $-1 $333 reversed $148 $-1 #
edge $-1 $334 0 $334 6.2831853071796004 $149 $335 forward 7 unknown #
vertex $-1 $152 $336 #
ellipse-curve $-1 47.418759040230782 24.135664156930034 6.0258101323851063 0 0.62932039886446345 0.77714595512881146 1.5 0 0 1 I I #
coedge $-1 $236 $236 $-1 $337 reversed $155 $-1 #
edge $-1 $338 0 $338 6.2831853071796004 $156 $339 forward 7 unknown #
vertex $-1 $159 $340 #
ellipse-curve $-1 52.868684682409025 24.135664156930034 6.0258101323851063 0 0.62932039886446345 0.77714595512881146 1.5 0 0 1 I I #
face $-1 $-1 $252 $24 $-1 $341 reversed single #
loop $-1 $-1 $342 $160 #
plane-surface $-1 0 31.086687432658767 0 0 -1 0 0 0 -1 forward_v I I I I #
coedge $-1 $251 $250 $163 $244 reversed $252 $-1 #
edge $-1 $343 -31.086687432658767 $344 31.086687432658767 $243 $345 forward 7 unknown #
coedge $-1 $165 $164 $168 $256 forward $65 $-1 #
coedge $-1 $342 $171 $164 $247 reversed $241 $-1 #
edge $-1 $254 -56.501968443861202 $261 56.501968443861202 $246 $346 forward 7 unknown #
coedge $-1 $169 $347 $165 $249 reversed $161 $-1 #
edge $-1 $258 -56.501968443861202 $253 56.501968443861202 $248 $348 forward 7 unknown #
coedge $-1 $243 $166 $347 $349 forward $252 $-1 #
coedge $-1 $166 $243 $342 $350 reversed $252 $-1 #
loop $-1 $-1 $250 $240 #
vertex $-1 $167 $351 #
vertex $-1 $167 $352 #
straight-curve $-1 56.501968443861202 0 11.65463791116794 0 1 0 I I #
edge $-1 $261 -31.086687432658767 $258 31.086687432658767 $168 $353 forward 7 unknown #
coedge $-1 $347 $169 $174 $264 reversed $161 $-1 #
vertex $-1 $256 $354 #
straight-curve $-1 -56.501968443861202 -31.086687432658767 0 0 0 -1 I I #
coedge $-1 $171 $342 $173 $263 reversed $241 $-1 #
vertex $-1 $247 $355 #
straight-curve $-1 -56.501968443861202 31.086687432658767 0 0 0 -1 I I #
edge $-1 $176 -56.501968443861202 $343 56.501968443861202 $260 $356 forward 7 unknown #
edge $-1 $344 -56.501968443861202 $175 56.501968443861202 $257 $357 forward 7 unknown #
point $-1 -56.501968443861202 -31.086687432658767 -11.65463791116794 #
point $-1 -56.501968443861202 31.086687432658767 -11.65463791116794 #
face $-1 $-1 $283 $25 $-1 $358 forward single #
plane-surface $-1 -62.043717292748845 -14.722733932204966 0 0 -1 0 0 0 -1 forward_v I I I I #
coedge $-1 $359 $360 $286 $361 forward $179 $-1 #
coedge $-1 $279 $181 $182 $275 reversed $109 $-1 #
coedge $-1 $181 $279 $282 $362 reversed $109 $-1 #
coedge $-1 $360 $359 $181 $273 reversed $179 $-1 #
edge $-1 $363 -11.65463791116794 $364 11.65463791116794 $272 $365 forward 7 unknown #
coedge $-1 $183 $182 $359 $366 forward $69 $-1 #
edge $-1 $277 -5.541748848887643 $364 5.541748848887643 $270 $367 forward 7 unknown #
edge $-1 $368 -5.541748848887643 $191 5.541748848887643 $188 $369 forward 7 unknown #
vertex $-1 $275 $370 #
straight-curve $-1 -56.501968443861202 0 -11.65463791116794 0 -1 0 I I #
coedge $-1 $271 $270 $185 $280 reversed $109 $-1 #
edge $-1 $284 -11.65463791116794 $277 11.65463791116794 $279 $371 forward 7 unknown #
coedge $-1 $372 $186 $189 $287 forward $283 $-1 #
coedge $-1 $186 $372 $271 $362 forward $283 $-1 #
loop $-1 $-1 $186 $267 #
vertex $-1 $187 $373 #
straight-curve $-1 -56.501968443861202 0 11.65463791116794 0 1 0 I I #
coedge $-1 $189 $188 $269 $361 reversed $190 $-1 #
edge $-1 $192 -5.541748848887643 $374 5.541748848887643 $189 $375 forward 7 unknown #
point $-1 -56.501968443861202 -14.722733932204966 -11.65463791116794 #
point $-1 -56.501968443861202 -14.722733932204966 11.65463791116794 #
loop $-1 $-1 $202 $194 #
plane-surface $-1 0 -31.086687432658767 0 0 1 0 0 0 1 forward_v I I I I #
coedge $-1 $293 $197 $199 $297 reversed $117 $-1 #
coedge $-1 $197 $292 $376 $377 reversed $117 $-1 #
coedge $-1 $205 $200 $197 $295 forward $195 $-1 #
edge $-1 $298 -21.202149571017095 $378 -13.55732172673326 $294 $379 forward 7 unknown #
coedge $-1 $199 $198 $301 $380 reversed $73 $-1 #
edge $-1 $381 -2.0715698412527822e-014 $298 8.9187115219361885 $292 $382 forward 7 unknown #
vertex $-1 $201 $383 #
straight-curve $-1 7.5728061312837198 -23.441859588374928 11.65463791116794 -1 0 0 I I #
coedge $-1 $376 $202 $205 $305 reversed $290 $-1 #
coedge $-1 $202 $376 $296 $380 forward $290 $-1 #
vertex $-1 $203 $384 #
straight-curve $-1 23.231719313568327 -31.086687432658767 51.962220461346476 0 0 1 I I #
straight-curve $-1 23.231719313568327 -31.086687432658749 7.061161837127699 0 -0.85716729658548041 -0.51503808176128008 I I #
edge $-1 $378 7.0595052115665524 $206 23.231719313568327 $300 $385 forward 7 unknown #
point $-1 23.231719313568327 -31.086687432658767 11.65463791116794 #
point $-1 23.231719313568327 -23.441859588374932 11.65463791116794 #
edge $-1 $386 1 $386 0 $209 $-1 forward 7 unknown #
vertex $-1 $210 $387 #
ellipse-curve $-1 11.680137812138483 -25.259795028669611 6.0218875243947192 0 -0.51503808176128008 0.85716729658548041 2 0 0 1 I I #
point $-1 13.680137812138483 -27.264273510516865 9.3578998741478223 #
edge $-1 $388 1 $388 0 $213 $-1 forward 7 unknown #
vertex $-1 $214 $389 #
ellipse-curve $-1 18.611086712996382 -25.259795028669611 6.0218875243947192 0 -0.51503808176128008 0.85716729658548041 2 0 0 1 I I #
point $-1 20.611086712996382 -27.264273510516865 9.3578998741478223 #
loop $-1 $-1 $321 $217 #
plane-surface $-1 56.501968443861202 0 0 -1 0 0 0 0 1 forward_v I I I I #
coedge $-1 $220 $326 $390 $391 forward $139 $-1 #
coedge $-1 $222 $221 $220 $320 reversed $87 $-1 #
edge $-1 $392 -31.43010751320125 $327 -18.713614348118668 $220 $393 forward 7 unknown #
coedge $-1 $390 $394 $222 $322 forward $316 $-1 #
edge $-1 $324 25.152628053181829 $392 43.041219584425413 $321 $395 forward 7 unknown #
coedge $-1 $228 $223 $394 $396 forward $218 $-1 #
vertex $-1 $396 $397 #
straight-curve $-1 25.071860930659959 17.184640881201304 11.654637911167935 1 0 0 I I #
coedge $-1 $318 $225 $228 $330 reversed $139 $-1 #
vertex $-1 $226 $398 #
straight-curve $-1 43.785475278778627 31.086687432658767 63.672253944259332 0 0 1 I I #
straight-curve $-1 43.785475278778627 -17.231099360630068 39.523955422593701 0 0.77714595512881146 -0.62932039886446345 I I #
edge $-1 $399 -56.501968443861202 $229 -43.785475278778627 $326 $400 forward 7 unknown #
point $-1 43.785475278778627 31.086687432658767 11.65463791116794 #
point $-1 43.785475278778627 17.184640881201304 11.654637911167939 #
edge $-1 $401 1 $401 0 $232 $-1 forward 7 unknown #
vertex $-1 $233 $402 #
ellipse-curve $-1 47.418759040230782 21.152533355421674 2.3419504637718713 0 0.62932039886446345 0.77714595512881146 1.5 0 0 1 I I #
point $-1 48.918759040230782 24.135664156930034 6.025810132385109 #
edge $-1 $403 1 $403 0 $236 $-1 forward 7 unknown #
vertex $-1 $237 $404 #
ellipse-curve $-1 52.868684682409025 21.152533355421674 2.3419504637718713 0 0.62932039886446345 0.77714595512881146 1.5 0 0 1 I I #
point $-1 54.368684682409025 24.135664156930034 6.025810132385109 #
plane-surface $-1 56.501968443861202 0 0 -1 0 0 0 0 1 forward_v I I I I #
coedge $-1 $260 $246 $251 $350 forward $241 $-1 #
vertex $-1 $244 $405 #
vertex $-1 $349 $406 #
straight-curve $-1 56.501968443861202 0 -11.65463791116794 0 -1 0 I I #
straight-curve $-1 0 31.086687432658767 11.65463791116794 -1 0 0 I I #
coedge $-1 $248 $257 $250 $349 reversed $161 $-1 #
straight-curve $-1 0 -31.086687432658767 11.65463791116794 1 0 0 I I #
edge $-1 $253 -11.65463791116794 $344 11.65463791116794 $250 $407 forward 7 unknown #
edge $-1 $254 -11.65463791116794 $343 11.65463791116794 $251 $408 forward 7 unknown #
point $-1 56.501968443861202 -31.086687432658767 11.65463791116794 #
point $-1 56.501968443861202 31.086687432658767 11.65463791116794 #
straight-curve $-1 -56.501968443861202 0 11.65463791116794 0 -1 0 I I #
point $-1 -56.501968443861202 -31.086687432658767 11.65463791116794 #
point $-1 -56.501968443861202 31.086687432658767 11.65463791116794 #
straight-curve $-1 0 31.086687432658767 -11.65463791116794 1 0 0 I I #
straight-curve $-1 0 -31.086687432658767 -11.65463791116794 -1 0 0 I I #
plane-surface $-1 0 0 11.65463791116794 0 0 1 1 0 0 forward_v I I I I #
coedge $-1 $272 $269 $274 $366 reversed $179 $-1 #
coedge $-1 $269 $272 $372 $409 reversed $179 $-1 #
edge $-1 $374 -11.65463791116794 $368 11.65463791116794 $286 $410 forward 7 unknown #
edge $-1 $363 -5.541748848887643 $284 5.541748848887643 $271 $411 forward 7 unknown #
vertex $-1 $409 $412 #
vertex $-1 $366 $413 #
straight-curve $-1 -67.585466141636488 -18.920708400735826 0 0 0 -1 I I #
edge $-1 $364 -2.0989872342654294 $368 2.0989872342654312 $359 $414 forward 7 unknown #
straight-curve $-1 -62.043717292748845 -18.920708400735826 -11.65463791116794 -1 0 0 I I #
vertex $-1 $276 $415 #
straight-curve $-1 -62.043717292748845 -14.722733932204966 -11.65463791116794 1 0 0 I I #
point $-1 -56.501968443861202 -18.920708400735826 -11.65463791116794 #
straight-curve $-1 -56.501968443861202 -18.920708400735826 0 0 0 -1 I I #
coedge $-1 $282 $281 $360 $409 forward $283 $-1 #
point $-1 -56.501968443861202 -18.920708400735826 11.65463791116794 #
vertex $-1 $287 $416 #
straight-curve $-1 -62.043717292748845 -14.722733932204966 11.65463791116794 -1 0 0 I I #
coedge $-1 $301 $300 $293 $377 forward $290 $-1 #
edge $-1 $378 40.307582550178537 $381 44.901058624218791 $376 $417 forward 7 unknown #
vertex $-1 $305 $418 #
straight-curve $-1 7.0595052115665524 -44.644009159392027 11.654637911167939 0 -1 0 I I #
edge $-1 $381 -0.5133009197171674 $302 15.658913182284607 $301 $419 forward 7 unknown #
vertex $-1 $380 $420 #
straight-curve $-1 7.0595052115665524 -31.086687432658749 7.061161837127699 0 0.85716729658548041 0.51503808176128008 I I #
point $-1 7.0595052115665524 -23.441859588374932 11.65463791116794 #
point $-1 23.231719313568327 -31.086687432658767 7.0611618371276883 #
straight-curve $-1 0 -31.086687432658767 11.65463791116794 1 0 0 I I #
vertex $-1 $308 $421 #
point $-1 13.680137812138483 -25.259795028669611 6.0218875243947192 #
vertex $-1 $312 $422 #
point $-1 20.611086712996382 -25.259795028669611 6.0218875243947192 #
coedge $-1 $394 $321 $318 $391 reversed $316 $-1 #
edge $-1 $399 -11.65463791116794 $392 -0.39698235360226164 $390 $423 forward 7 unknown #
vertex $-1 $322 $424 #
straight-curve $-1 25.071860930659959 31.086687432658763 0.3969823536022723 -1 0 0 I I #
coedge $-1 $321 $390 $323 $396 reversed $316 $-1 #
straight-curve $-1 56.501968443861202 -2.3626222711884246 27.483699830085818 0 0.77714595512881146 -0.62932039886446345 I I #
edge $-1 $324 17.184640881201304 $399 31.086687432658767 $394 $425 forward 7 unknown #
point $-1 56.501968443861209 17.184640881201304 11.654637911167939 #
point $-1 43.785475278778627 31.086687432658763 0.39698235360226164 #
vertex $-1 $396 $426 #
straight-curve $-1 0 31.086687432658767 11.65463791116794 -1 0 0 I I #
vertex $-1 $333 $427 #
point $-1 48.918759040230782 21.152533355421674 2.3419504637718713 #
vertex $-1 $337 $428 #
point $-1 54.368684682409025 21.152533355421674 2.3419504637718713 #
point $-1 56.501968443861202 31.086687432658767 -11.65463791116794 #
point $-1 56.501968443861202 -31.086687432658767 -11.65463791116794 #
straight-curve $-1 56.501968443861202 -31.086687432658767 0 0 0 -1 I I #
straight-curve $-1 56.501968443861202 31.086687432658767 0 0 0 -1 I I #
edge $-1 $374 -2.0989872342654312 $363 2.0989872342654294 $360 $429 forward 7 unknown #
straight-curve $-1 -67.585466141636488 -14.722733932204966 0 0 0 -1 I I #
straight-curve $-1 -62.043717292748845 -18.920708400735826 11.65463791116794 1 0 0 I I #
point $-1 -67.585466141636488 -18.920708400735826 11.65463791116794 #
point $-1 -67.585466141636488 -18.920708400735826 -11.65463791116794 #
straight-curve $-1 -67.585466141636488 -16.821721166470397 -11.65463791116794 0 1 0 I I #
point $-1 -67.585466141636488 -14.722733932204966 -11.65463791116794 #
point $-1 -67.585466141636488 -14.722733932204966 11.65463791116794 #
straight-curve $-1 7.0595052115665524 -31.086687432658767 51.962220461346476 0 0 -1 I I #
point $-1 7.0595052115665524 -31.086687432658767 11.65463791116794 #
straight-curve $-1 7.5728061312837198 -31.086687432658767 7.0611618371276865 1 0 0 I I #
point $-1 7.0595052115665524 -31.086687432658767 7.0611618371276883 #
point $-1 11.680137812138483 -24.229718865147053 4.3075529312237588 #
point $-1 18.611086712996382 -24.229718865147053 4.3075529312237588 #
straight-curve $-1 56.501968443861202 31.086687432658767 0 0 0 -1 I I #
point $-1 56.501968443861209 31.086687432658763 0.39698235360226164 #
straight-curve $-1 56.501968443861202 0 11.65463791116794 0 1 0 I I #
point $-1 56.501968443861202 31.086687432658767 11.65463791116794 #
point $-1 47.418759040230782 20.208552757124977 1.1762315310786544 #
point $-1 52.868684682409025 20.208552757124977 1.1762315310786544 #
straight-curve $-1 -67.585466141636488 -16.821721166470397 11.65463791116794 0 -1 0 I I #
End-of-ACIS-data 