500 0 10 0           
7 Unknown 11 ACIS 5.0 NT 24 Fri Mar 26 16:32:29 1999 
-1 9.9999999999999995e-007 1e-010 
body $-1 $10 $-1 $11 #
body $-1 $12 $-1 $13 #
body $-1 $14 $-1 $15 #
body $-1 $16 $-1 $17 #
body $-1 $18 $-1 $19 #
body $-1 $20 $-1 $21 #
body $-1 $22 $-1 $23 #
body $-1 $24 $-1 $25 #
body $-1 $26 $-1 $27 #
body $-1 $28 $-1 $29 #
lump $-1 $-1 $30 $0 #
transform $-1 1 0 0 0 1 0 0 0 1 52.815332499160739 34.604221589548388 14.254294897455653 1 rotate no_reflect no_shear #
lump $-1 $-1 $31 $1 #
transform $-1 1 0 0 0 1 0 0 0 1 52.815332499160739 34.604221589548388 14.254294897455653 1 rotate no_reflect no_shear #
lump $-1 $-1 $32 $2 #
transform $-1 1 0 0 0 1 0 0 0 1 52.815332499160739 34.604221589548388 14.254294897455653 1 rotate no_reflect no_shear #
lump $-1 $-1 $33 $3 #
transform $-1 1 0 0 0 1 0 0 0 1 52.815332499160739 34.604221589548388 14.254294897455653 1 rotate no_reflect no_shear #
lump $-1 $-1 $34 $4 #
transform $-1 1 0 0 0 1 0 0 0 1 52.815332499160739 34.604221589548388 14.254294897455653 1 rotate no_reflect no_shear #
lump $-1 $-1 $35 $5 #
transform $-1 1 0 0 0 1 0 0 0 1 52.815332499160739 34.604221589548388 14.254294897455653 1 rotate no_reflect no_shear #
lump $-1 $-1 $36 $6 #
transform $-1 1 0 0 0 1 0 0 0 1 52.815332499160739 34.604221589548388 14.254294897455653 1 rotate no_reflect no_shear #
lump $-1 $-1 $37 $7 #
transform $-1 1 0 0 0 1 0 0 0 1 52.815332499160739 34.604221589548388 14.254294897455653 1 rotate no_reflect no_shear #
lump $-1 $-1 $38 $8 #
transform $-1 1 0 0 0 1 0 0 0 1 52.815332499160739 34.604221589548388 14.254294897455653 1 rotate no_reflect no_shear #
lump $-1 $-1 $39 $9 #
transform $-1 1 0 0 0 1 0 0 0 1 52.815332499160739 34.604221589548388 14.254294897455653 1 rotate no_reflect no_shear #
shell $-1 $-1 $-1 $40 $-1 $10 #
shell $-1 $-1 $-1 $41 $-1 $12 #
shell $-1 $-1 $-1 $42 $-1 $14 #
shell $-1 $-1 $-1 $43 $-1 $16 #
shell $-1 $-1 $-1 $44 $-1 $18 #
shell $-1 $-1 $-1 $45 $-1 $20 #
shell $-1 $-1 $-1 $46 $-1 $22 #
shell $-1 $-1 $-1 $47 $-1 $24 #
shell $-1 $-1 $-1 $48 $-1 $26 #
shell $-1 $-1 $-1 $49 $-1 $28 #
face $-1 $50 $51 $30 $-1 $52 forward single #
face $-1 $53 $54 $31 $-1 $55 reversed single #
face $-1 $56 $57 $32 $-1 $58 reversed single #
face $-1 $59 $60 $33 $-1 $61 forward single #
face $-1 $62 $63 $34 $-1 $64 forward single #
face $-1 $65 $66 $35 $-1 $67 forward single #
face $-1 $68 $69 $36 $-1 $70 reversed single #
face $-1 $71 $72 $37 $-1 $73 forward single #
face $-1 $74 $75 $38 $-1 $76 forward single #
face $-1 $77 $78 $39 $-1 $79 forward single #
face $-1 $80 $81 $30 $-1 $82 reversed single #
loop $-1 $-1 $83 $40 #
plane-surface $-1 0 0 14.254294897455653 0 0 1 1 0 0 forward_v I I I I #
face $-1 $84 $85 $31 $-1 $86 reversed single #
loop $-1 $-1 $87 $41 #
plane-surface $-1 -43.521194650628544 0 9.9301107445063863 0 0 1 1 0 0 forward_v I I I I #
face $-1 $88 $89 $32 $-1 $90 reversed single #
loop $-1 $-1 $91 $42 #
plane-surface $-1 27.130867399855596 -106.64416274721394 87.501321534736405 -1 0 0 0 -0.68199836817093118 0.7313536940579346 forward_v I I I I #
face $-1 $92 $93 $33 $-1 $94 forward single #
loop $-1 $95 $96 $43 #
cone-surface $-1 7.6602762559108371 -31.130889395806882 10.830027614866641 0 0.68199836817093118 -0.7313536940579346 1 0 0 1 I I 0 1 1 forward I I I I #
face $-1 $97 $98 $34 $-1 $99 forward single #
loop $-1 $100 $101 $44 #
cone-surface $-1 14.96174793489012 -31.130889395806882 10.830027614866641 0 0.68199836817093118 -0.7313536940579346 1 0 0 1 I I 0 1 1 forward I I I I #
face $-1 $102 $103 $35 $-1 $104 forward single #
loop $-1 $105 $106 $45 #
cone-surface $-1 22.263219613869403 -31.130889395806882 10.830027614866641 0 0.68199836817093118 -0.7313536940579346 1 0 0 1 I I 0 1 1 forward I I I I #
face $-1 $107 $108 $36 $-1 $109 reversed single #
loop $-1 $-1 $110 $46 #
plane-surface $-1 2.7926284699246438 56.02831216818285 134.70136684653102 1 0 0 0 -0.68199836817093118 -0.7313536940579346 forward_v I I I I #
face $-1 $111 $112 $37 $-1 $113 forward single #
loop $-1 $114 $115 $47 #
cone-surface $-1 7.6602762559108371 31.130889395806896 10.83002761486663 0 -0.68199836817093118 -0.7313536940579346 1 0 0 1 I I 0 1 1 forward I I I I #
face $-1 $116 $117 $38 $-1 $118 forward single #
loop $-1 $119 $120 $48 #
cone-surface $-1 14.96174793489012 31.130889395806896 10.83002761486663 0 -0.68199836817093118 -0.7313536940579346 1 0 0 1 I I 0 1 1 forward I I I I #
face $-1 $121 $122 $39 $-1 $123 forward single #
loop $-1 $124 $125 $49 #
cone-surface $-1 22.263219613869403 31.130889395806896 10.83002761486663 0 -0.68199836817093118 -0.7313536940579346 1 0 0 1 I I 0 1 1 forward I I I I #
face $-1 $126 $127 $30 $-1 $128 reversed single #
loop $-1 $-1 $129 $50 #
plane-surface $-1 0 0 -14.254294897455653 0 0 1 1 0 0 forward_v I I I I #
coedge $-1 $130 $131 $132 $133 forward $51 $-1 #
face $-1 $134 $135 $31 $-1 $136 reversed single #
loop $-1 $-1 $137 $53 #
plane-surface $-1 -34.227056802096349 0 12.09220282098102 -1 0 0 0 0 1 forward_v I I I I #
coedge $-1 $138 $139 $140 $141 forward $54 $-1 #
face $-1 $142 $143 $32 $-1 $144 reversed single #
loop $-1 $-1 $145 $56 #
plane-surface $-1 14.96174793489012 -34.604221589548402 10.247944482417822 0 -0.68199836817093118 0.7313536940579346 1 0 0 forward_v I I I I #
coedge $-1 $146 $147 $148 $149 reversed $57 $-1 #
face $-1 $-1 $150 $33 $-1 $151 forward single #
loop $-1 $152 $153 $59 #
cone-surface $-1 7.6602762559108371 -29.46470038347168 9.0432586927675818 0 0.68199836817093118 -0.7313536940579346 0.5 0 0 1 I I -0.70710678118654746 0.70710678118654746 0.5 forward I I I I #
loop $-1 $-1 $154 $43 #
coedge $-1 $96 $96 $155 $156 reversed $60 $-1 #
face $-1 $-1 $157 $34 $-1 $158 forward single #
loop $-1 $159 $160 $62 #
cone-surface $-1 14.96174793489012 -29.46470038347168 9.0432586927675818 0 0.68199836817093118 -0.7313536940579346 0.5 0 0 1 I I -0.70710678118654746 0.70710678118654746 0.5 forward I I I I #
loop $-1 $-1 $161 $44 #
coedge $-1 $101 $101 $162 $163 reversed $63 $-1 #
face $-1 $-1 $164 $35 $-1 $165 forward single #
loop $-1 $166 $167 $65 #
cone-surface $-1 22.263219613869403 -29.46470038347168 9.0432586927675818 0 0.68199836817093118 -0.7313536940579346 0.5 0 0 1 I I -0.70710678118654746 0.70710678118654746 0.5 forward I I I I #
loop $-1 $-1 $168 $45 #
coedge $-1 $106 $106 $169 $170 reversed $66 $-1 #
face $-1 $171 $172 $36 $-1 $173 reversed single #
loop $-1 $-1 $174 $68 #
plane-surface $-1 14.96174793489012 -16.011628989482688 57.447989794212432 0 0.68199836817093118 0.7313536940579346 1 0 0 forward_v I I I I #
coedge $-1 $175 $176 $177 $178 reversed $69 $-1 #
face $-1 $-1 $179 $37 $-1 $180 forward single #
loop $-1 $181 $182 $71 #
cone-surface $-1 7.6602762559108371 29.464700383471694 9.0432586927675711 0 -0.68199836817093118 -0.7313536940579346 0.5 0 0 1 I I -0.70710678118654746 0.70710678118654746 0.5 forward I I I I #
loop $-1 $-1 $183 $47 #
coedge $-1 $115 $115 $184 $185 reversed $72 $-1 #
face $-1 $-1 $186 $38 $-1 $187 forward single #
loop $-1 $188 $189 $74 #
cone-surface $-1 14.96174793489012 29.464700383471694 9.0432586927675711 0 -0.68199836817093118 -0.7313536940579346 0.5 0 0 1 I I -0.70710678118654746 0.70710678118654746 0.5 forward I I I I #
loop $-1 $-1 $190 $48 #
coedge $-1 $120 $120 $191 $192 reversed $75 $-1 #
face $-1 $-1 $193 $39 $-1 $194 forward single #
loop $-1 $195 $196 $77 #
cone-surface $-1 22.263219613869403 29.464700383471694 9.0432586927675711 0 -0.68199836817093118 -0.7313536940579346 0.5 0 0 1 I I -0.70710678118654746 0.70710678118654746 0.5 forward I I I I #
loop $-1 $-1 $197 $49 #
coedge $-1 $125 $125 $198 $199 reversed $78 $-1 #
face $-1 $200 $201 $30 $-1 $202 reversed single #
loop $-1 $-1 $203 $80 #
plane-surface $-1 0 -34.604221589548388 0 0 1 0 0 0 1 forward_v I I I I #
coedge $-1 $204 $205 $206 $207 forward $81 $-1 #
coedge $-1 $208 $83 $209 $210 forward $51 $-1 #
coedge $-1 $83 $208 $211 $212 forward $51 $-1 #
coedge $-1 $213 $214 $83 $133 reversed $215 $-1 #
edge $-1 $216 -34.604221589548388 $217 34.604221589548388 $132 $218 forward 7 unknown #
face $-1 $219 $220 $31 $-1 $221 reversed single #
loop $-1 $-1 $222 $84 #
plane-surface $-1 0 34.604221589548388 0 0 -1 0 0 0 -1 forward_v I I I I #
coedge $-1 $140 $223 $224 $225 reversed $85 $-1 #
coedge $-1 $226 $87 $227 $228 reversed $54 $-1 #
coedge $-1 $87 $226 $229 $230 reversed $54 $-1 #
coedge $-1 $231 $137 $87 $141 reversed $85 $-1 #
edge $-1 $232 -34.604221589548388 $233 34.604221589548388 $140 $234 forward 7 unknown #
face $-1 $235 $236 $32 $-1 $237 reversed single #
loop $-1 $-1 $238 $88 #
plane-surface $-1 2.7926284699246438 -106.64416274721394 87.501321534736405 1 0 0 0 0.68199836817093118 -0.7313536940579346 forward_v I I I I #
coedge $-1 $239 $240 $241 $242 reversed $89 $-1 #
coedge $-1 $147 $91 $243 $244 reversed $57 $-1 #
coedge $-1 $91 $146 $239 $245 reversed $57 $-1 #
coedge $-1 $241 $246 $91 $149 forward $247 $-1 #
edge $-1 $248 18.717859784058582 $249 23.014144515042101 $148 $250 forward 7 unknown #
loop $-1 $-1 $155 $92 #
plane-surface $-1 14.96174793489012 -34.604221589548402 10.247944482417822 0 -0.68199836817093118 0.7313536940579346 1 0 0 forward_v I I I I #
loop $-1 $-1 $251 $59 #
coedge $-1 $153 $153 $154 $252 reversed $93 $-1 #
coedge $-1 $154 $154 $153 $252 forward $95 $-1 #
coedge $-1 $155 $155 $96 $156 forward $150 $-1 #
edge $-1 $253 3.1243262971221418e-015 $253 6.283185307179604 $155 $254 forward 7 unknown #
loop $-1 $-1 $162 $97 #
plane-surface $-1 14.96174793489012 -34.604221589548402 10.247944482417822 0 -0.68199836817093118 0.7313536940579346 1 0 0 forward_v I I I I #
loop $-1 $-1 $255 $62 #
coedge $-1 $160 $160 $161 $256 reversed $98 $-1 #
coedge $-1 $161 $161 $160 $256 forward $100 $-1 #
coedge $-1 $162 $162 $101 $163 forward $157 $-1 #
edge $-1 $257 3.1243262971221418e-015 $257 6.283185307179604 $162 $258 forward 7 unknown #
loop $-1 $-1 $169 $102 #
plane-surface $-1 14.96174793489012 -34.604221589548402 10.247944482417822 0 -0.68199836817093118 0.7313536940579346 1 0 0 forward_v I I I I #
loop $-1 $-1 $259 $65 #
coedge $-1 $167 $167 $168 $260 reversed $103 $-1 #
coedge $-1 $168 $168 $167 $260 forward $105 $-1 #
coedge $-1 $169 $169 $106 $170 forward $164 $-1 #
edge $-1 $261 3.1243262971221418e-015 $261 6.283185307179604 $169 $262 forward 7 unknown #
face $-1 $263 $264 $36 $-1 $265 forward single #
loop $-1 $-1 $266 $107 #
plane-surface $-1 27.130867399855596 56.02831216818285 134.70136684653102 -1 0 0 0 0.68199836817093118 0.7313536940579346 forward_v I I I I #
coedge $-1 $267 $268 $269 $270 reversed $108 $-1 #
coedge $-1 $176 $110 $271 $272 reversed $69 $-1 #
coedge $-1 $110 $175 $267 $273 reversed $69 $-1 #
coedge $-1 $269 $274 $110 $178 forward $264 $-1 #
edge $-1 $275 -6.5900655054569626 $276 -2.2937807744734471 $177 $277 forward 7 unknown #
loop $-1 $-1 $184 $111 #
plane-surface $-1 14.96174793489012 -16.011628989482688 57.447989794212432 0 0.68199836817093118 0.7313536940579346 1 0 0 forward_v I I I I #
loop $-1 $-1 $278 $71 #
coedge $-1 $182 $182 $183 $279 reversed $112 $-1 #
coedge $-1 $183 $183 $182 $279 forward $114 $-1 #
coedge $-1 $184 $184 $115 $185 forward $179 $-1 #
edge $-1 $280 -3.1243262971221418e-015 $280 6.2831853071795969 $184 $281 forward 7 unknown #
loop $-1 $-1 $191 $116 #
plane-surface $-1 14.96174793489012 -16.011628989482688 57.447989794212432 0 0.68199836817093118 0.7313536940579346 1 0 0 forward_v I I I I #
loop $-1 $-1 $282 $74 #
coedge $-1 $189 $189 $190 $283 reversed $117 $-1 #
coedge $-1 $190 $190 $189 $283 forward $119 $-1 #
coedge $-1 $191 $191 $120 $192 forward $186 $-1 #
edge $-1 $284 -3.1243262971221418e-015 $284 6.2831853071795969 $191 $285 forward 7 unknown #
loop $-1 $-1 $198 $121 #
plane-surface $-1 14.96174793489012 -16.011628989482688 57.447989794212432 0 0.68199836817093118 0.7313536940579346 1 0 0 forward_v I I I I #
loop $-1 $-1 $286 $77 #
coedge $-1 $196 $196 $197 $287 reversed $122 $-1 #
coedge $-1 $197 $197 $196 $287 forward $124 $-1 #
coedge $-1 $198 $198 $125 $199 forward $193 $-1 #
edge $-1 $288 -3.1243262971221418e-015 $288 6.2831853071795969 $198 $289 forward 7 unknown #
face $-1 $290 $291 $30 $-1 $292 reversed single #
loop $-1 $-1 $293 $126 #
plane-surface $-1 -52.815332499160739 0 0 1 0 0 0 0 -1 forward_v I I I I #
coedge $-1 $294 $211 $295 $296 forward $127 $-1 #
coedge $-1 $297 $129 $294 $298 forward $81 $-1 #
coedge $-1 $129 $297 $299 $300 forward $81 $-1 #
coedge $-1 $214 $213 $129 $207 reversed $215 $-1 #
edge $-1 $301 -34.604221589548388 $302 34.604221589548388 $206 $303 forward 7 unknown #
coedge $-1 $131 $130 $304 $305 forward $51 $-1 #
coedge $-1 $306 $307 $130 $210 reversed $291 $-1 #
edge $-1 $217 -52.815332499160739 $308 52.815332499160739 $209 $309 forward 7 unknown #
coedge $-1 $203 $310 $131 $212 reversed $127 $-1 #
edge $-1 $311 -52.815332499160739 $216 52.815332499160739 $211 $312 forward 7 unknown #
coedge $-1 $206 $132 $310 $313 forward $215 $-1 #
coedge $-1 $132 $206 $306 $314 reversed $215 $-1 #
loop $-1 $-1 $213 $290 #
vertex $-1 $133 $315 #
vertex $-1 $133 $316 #
straight-curve $-1 52.815332499160739 0 14.254294897455653 0 1 0 I I #
face $-1 $317 $318 $31 $-1 $319 forward single #
loop $-1 $-1 $320 $134 #
plane-surface $-1 -52.815332499160739 0 0 1 0 0 0 0 -1 forward_v I I I I #
coedge $-1 $229 $321 $231 $322 forward $135 $-1 #
coedge $-1 $137 $231 $323 $324 reversed $85 $-1 #
coedge $-1 $325 $227 $137 $225 forward $326 $-1 #
edge $-1 $233 3.8840093340158761 $327 8.2081934869651434 $224 $328 forward 7 unknown #
coedge $-1 $139 $138 $320 $329 reversed $54 $-1 #
coedge $-1 $224 $330 $138 $228 forward $326 $-1 #
edge $-1 $331 -31.054735173846467 $233 -12.466459476782077 $227 $332 forward 7 unknown #
coedge $-1 $333 $222 $139 $230 forward $135 $-1 #
edge $-1 $232 12.466459476782077 $334 31.054735173846467 $229 $335 forward 7 unknown #
coedge $-1 $223 $140 $222 $322 reversed $85 $-1 #
vertex $-1 $230 $336 #
vertex $-1 $228 $337 #
straight-curve $-1 -34.227056802096349 0 9.9301107445063863 0 -1 0 I I #
face $-1 $-1 $247 $32 $-1 $338 forward single #
loop $-1 $-1 $339 $142 #
plane-surface $-1 0 -34.604221589548388 0 0 1 0 0 0 1 forward_v I I I I #
coedge $-1 $340 $341 $342 $343 reversed $143 $-1 #
coedge $-1 $344 $145 $147 $245 forward $89 $-1 #
coedge $-1 $145 $344 $340 $345 forward $89 $-1 #
coedge $-1 $342 $148 $145 $242 forward $247 $-1 #
edge $-1 $249 -19.649993432410536 $346 4.6882454975204162 $241 $347 forward 7 unknown #
coedge $-1 $348 $349 $146 $244 forward $236 $-1 #
edge $-1 $350 -33.502716284950367 $248 -29.496365869912552 $243 $351 forward 7 unknown #
edge $-1 $249 -5.8744281541062406 $350 -1.8873468352005311e-014 $147 $352 forward 7 unknown #
coedge $-1 $148 $342 $348 $353 forward $247 $-1 #
loop $-1 $-1 $342 $235 #
vertex $-1 $244 $354 #
vertex $-1 $149 $355 #
straight-curve $-1 27.130867399855596 -53.32208137360697 14.254294897455651 0 1 0 I I #
coedge $-1 $251 $251 $-1 $356 reversed $152 $-1 #
edge $-1 $357 0 $357 6.2831853071796004 $153 $358 forward 7 unknown #
vertex $-1 $156 $359 #
ellipse-curve $-1 7.6602762559108371 -32.45607922405663 12.251119689936743 0 -0.68199836817093118 0.7313536940579346 1 0 0 1 I I #
coedge $-1 $255 $255 $-1 $360 reversed $159 $-1 #
edge $-1 $361 0 $361 6.2831853071796004 $160 $362 forward 7 unknown #
vertex $-1 $163 $363 #
ellipse-curve $-1 14.96174793489012 -32.45607922405663 12.251119689936743 0 -0.68199836817093118 0.7313536940579346 1 0 0 1 I I #
coedge $-1 $259 $259 $-1 $364 reversed $166 $-1 #
edge $-1 $365 0 $365 6.2831853071796004 $167 $366 forward 7 unknown #
vertex $-1 $170 $367 #
ellipse-curve $-1 22.263219613869403 -32.45607922405663 12.251119689936743 0 -0.68199836817093118 0.7313536940579346 1 0 0 1 I I #
face $-1 $-1 $368 $36 $-1 $369 reversed single #
loop $-1 $-1 $177 $171 #
plane-surface $-1 0 0 14.254294897455653 0 0 1 1 0 0 forward_v I I I I #
coedge $-1 $370 $371 $372 $373 reversed $172 $-1 #
coedge $-1 $374 $174 $176 $273 forward $108 $-1 #
coedge $-1 $174 $374 $370 $375 forward $108 $-1 #
coedge $-1 $372 $177 $174 $270 forward $264 $-1 #
edge $-1 $276 -4.6882454975204162 $376 19.649993432410536 $269 $377 forward 7 unknown #
coedge $-1 $378 $379 $175 $272 forward $368 $-1 #
edge $-1 $380 -57.102738940847672 $275 -53.096388525809857 $271 $381 forward 7 unknown #
edge $-1 $276 63.334015024990535 $380 69.208443179096747 $176 $382 forward 7 unknown #
coedge $-1 $177 $372 $378 $383 forward $264 $-1 #
vertex $-1 $272 $384 #
vertex $-1 $178 $385 #
straight-curve $-1 2.7926284699246438 28.014156084091425 14.254294897455651 0 -1 0 I I #
coedge $-1 $278 $278 $-1 $386 reversed $181 $-1 #
edge $-1 $387 0 $387 6.2831853071796004 $182 $388 forward 7 unknown #
vertex $-1 $185 $389 #
ellipse-curve $-1 7.6602762559108371 32.456079224056644 12.251119689936733 0 0.68199836817093118 0.7313536940579346 1 0 0 1 I I #
coedge $-1 $282 $282 $-1 $390 reversed $188 $-1 #
edge $-1 $391 0 $391 6.2831853071796004 $189 $392 forward 7 unknown #
vertex $-1 $192 $393 #
ellipse-curve $-1 14.96174793489012 32.456079224056644 12.251119689936733 0 0.68199836817093118 0.7313536940579346 1 0 0 1 I I #
coedge $-1 $286 $286 $-1 $394 reversed $195 $-1 #
edge $-1 $395 0 $395 6.2831853071796004 $196 $396 forward 7 unknown #
vertex $-1 $199 $397 #
ellipse-curve $-1 22.263219613869403 32.456079224056644 12.251119689936733 0 0.68199836817093118 0.7313536940579346 1 0 0 1 I I #
face $-1 $-1 $215 $30 $-1 $398 reversed single #
loop $-1 $-1 $306 $200 #
plane-surface $-1 0 34.604221589548388 0 0 -1 0 0 0 -1 forward_v I I I I #
coedge $-1 $399 $304 $307 $400 forward $201 $-1 #
coedge $-1 $310 $203 $204 $298 reversed $127 $-1 #
coedge $-1 $304 $399 $203 $296 reversed $201 $-1 #
edge $-1 $311 -14.254294897455653 $401 14.254294897455653 $295 $402 forward 7 unknown #
coedge $-1 $205 $204 $399 $403 forward $81 $-1 #
edge $-1 $302 -52.815332499160739 $401 52.815332499160739 $294 $404 forward 7 unknown #
coedge $-1 $307 $306 $205 $300 reversed $291 $-1 #
edge $-1 $405 -52.815332499160739 $301 52.815332499160739 $299 $406 forward 7 unknown #
vertex $-1 $207 $407 #
vertex $-1 $313 $408 #
straight-curve $-1 52.815332499160739 0 -14.254294897455653 0 -1 0 I I #
coedge $-1 $293 $295 $208 $305 reversed $201 $-1 #
edge $-1 $308 -34.604221589548388 $311 34.604221589548388 $304 $409 forward 7 unknown #
coedge $-1 $299 $209 $214 $314 forward $291 $-1 #
coedge $-1 $209 $299 $293 $400 reversed $291 $-1 #
vertex $-1 $210 $410 #
straight-curve $-1 0 34.604221589548388 14.254294897455653 -1 0 0 I I #
coedge $-1 $211 $294 $213 $313 reversed $127 $-1 #
vertex $-1 $305 $411 #
straight-curve $-1 0 -34.604221589548388 14.254294897455653 1 0 0 I I #
edge $-1 $216 -14.254294897455653 $302 14.254294897455653 $213 $412 forward 7 unknown #
edge $-1 $217 -14.254294897455653 $301 14.254294897455653 $214 $413 forward 7 unknown #
point $-1 52.815332499160739 -34.604221589548388 14.254294897455653 #
point $-1 52.815332499160739 34.604221589548388 14.254294897455653 #
face $-1 $-1 $326 $31 $-1 $414 reversed single #
loop $-1 $-1 $323 $219 #
plane-surface $-1 0 0 14.254294897455653 0 0 1 1 0 0 forward_v I I I I #
coedge $-1 $415 $416 $226 $329 forward $220 $-1 #
coedge $-1 $222 $333 $417 $418 reversed $135 $-1 #
edge $-1 $419 -8.2081934869651434 $232 -3.8840093340158761 $222 $420 forward 7 unknown #
coedge $-1 $417 $421 $223 $324 forward $318 $-1 #
edge $-1 $327 -34.604221589548388 $419 34.604221589548388 $323 $422 forward 7 unknown #
coedge $-1 $330 $224 $421 $423 reversed $326 $-1 #
loop $-1 $-1 $224 $317 #
vertex $-1 $225 $424 #
straight-curve $-1 -34.227056802096349 -34.604221589548388 6.0461014104905102 0 0 1 I I #
edge $-1 $334 -34.604221589548388 $331 34.604221589548388 $320 $425 forward 7 unknown #
coedge $-1 $227 $325 $415 $426 forward $326 $-1 #
vertex $-1 $329 $427 #
straight-curve $-1 -21.760597325314272 -34.604221589548388 9.9301107445063863 1 0 0 I I #
coedge $-1 $321 $229 $416 $428 reversed $135 $-1 #
vertex $-1 $329 $429 #
straight-curve $-1 -21.760597325314272 34.604221589548388 9.9301107445063863 -1 0 0 I I #
point $-1 -34.227056802096349 34.604221589548388 9.9301107445063863 #
point $-1 -34.227056802096349 -34.604221589548388 9.9301107445063863 #
plane-surface $-1 0 0 14.254294897455653 0 0 1 1 0 0 forward_v I I I I #
coedge $-1 $349 $348 $341 $430 forward $236 $-1 #
coedge $-1 $341 $238 $240 $345 reversed $143 $-1 #
coedge $-1 $238 $340 $339 $430 reversed $143 $-1 #
coedge $-1 $246 $241 $238 $343 forward $247 $-1 #
edge $-1 $346 -23.014144515042101 $431 -18.717859784058582 $342 $432 forward 7 unknown #
coedge $-1 $240 $239 $349 $433 reversed $89 $-1 #
edge $-1 $434 1.8873468352005311e-014 $346 5.8744281541062406 $340 $435 forward 7 unknown #
vertex $-1 $242 $436 #
straight-curve $-1 7.4808739674450599 -30.307936858564869 14.254294897455654 -1 0 0 I I #
coedge $-1 $339 $243 $246 $353 reversed $236 $-1 #
coedge $-1 $243 $339 $344 $433 forward $236 $-1 #
vertex $-1 $244 $437 #
straight-curve $-1 27.130867399855596 -34.604221589548388 43.750660767368203 0 0 1 I I #
straight-curve $-1 27.130867399855596 -34.604221589548402 10.247944482417822 0 -0.7313536940579346 -0.68199836817093118 I I #
edge $-1 $431 2.7926284699246438 $248 27.130867399855596 $348 $438 forward 7 unknown #
point $-1 27.130867399855596 -34.604221589548388 14.254294897455653 #
point $-1 27.130867399855596 -30.307936858564869 14.254294897455653 #
edge $-1 $439 1 $439 0 $251 $-1 forward 7 unknown #
vertex $-1 $252 $440 #
ellipse-curve $-1 7.6602762559108371 -29.805699567557145 9.4089355397965484 0 -0.68199836817093118 0.7313536940579346 1 0 0 1 I I #
point $-1 8.6602762559108371 -32.456079224056616 12.251119689936733 #
edge $-1 $441 1 $441 0 $255 $-1 forward 7 unknown #
vertex $-1 $256 $442 #
ellipse-curve $-1 14.96174793489012 -29.805699567557145 9.4089355397965484 0 -0.68199836817093118 0.7313536940579346 1 0 0 1 I I #
point $-1 15.96174793489012 -32.456079224056616 12.251119689936733 #
edge $-1 $443 1 $443 0 $259 $-1 forward 7 unknown #
vertex $-1 $260 $444 #
ellipse-curve $-1 22.263219613869403 -29.805699567557145 9.4089355397965484 0 -0.68199836817093118 0.7313536940579346 1 0 0 1 I I #
point $-1 23.263219613869403 -32.456079224056616 12.251119689936733 #
loop $-1 $-1 $271 $263 #
plane-surface $-1 0 34.604221589548388 0 0 -1 0 0 0 -1 forward_v I I I I #
coedge $-1 $371 $266 $268 $375 reversed $172 $-1 #
coedge $-1 $266 $370 $445 $446 reversed $172 $-1 #
coedge $-1 $274 $269 $266 $373 forward $264 $-1 #
edge $-1 $376 2.2937807744734471 $447 6.5900655054569626 $372 $448 forward 7 unknown #
coedge $-1 $268 $267 $379 $449 reversed $108 $-1 #
edge $-1 $450 -69.208443179096747 $376 -63.334015024990535 $370 $451 forward 7 unknown #
vertex $-1 $270 $452 #
straight-curve $-1 7.4808739674450599 30.307936858564872 14.254294897455654 1 0 0 I I #
coedge $-1 $445 $271 $274 $383 reversed $368 $-1 #
coedge $-1 $271 $445 $374 $449 forward $368 $-1 #
vertex $-1 $272 $453 #
straight-curve $-1 2.7926284699246438 34.604221589548388 67.350683423265508 0 0 1 I I #
straight-curve $-1 2.7926284699246438 -16.011628989482688 57.447989794212432 0 0.7313536940579346 -0.68199836817093118 I I #
edge $-1 $447 -27.130867399855596 $275 -2.7926284699246438 $378 $454 forward 7 unknown #
point $-1 2.7926284699246438 34.604221589548388 14.254294897455653 #
point $-1 2.7926284699246438 30.307936858564872 14.254294897455651 #
edge $-1 $455 1 $455 0 $278 $-1 forward 7 unknown #
vertex $-1 $279 $456 #
ellipse-curve $-1 7.6602762559108371 29.805699567557159 9.4089355397965377 0 0.68199836817093118 0.7313536940579346 1 0 0 1 I I #
point $-1 8.6602762559108371 32.45607922405663 12.251119689936722 #
edge $-1 $457 1 $457 0 $282 $-1 forward 7 unknown #
vertex $-1 $283 $458 #
ellipse-curve $-1 14.96174793489012 29.805699567557159 9.4089355397965377 0 0.68199836817093118 0.7313536940579346 1 0 0 1 I I #
point $-1 15.96174793489012 32.45607922405663 12.251119689936722 #
edge $-1 $459 1 $459 0 $286 $-1 forward 7 unknown #
vertex $-1 $287 $460 #
ellipse-curve $-1 22.263219613869403 29.805699567557159 9.4089355397965377 0 0.68199836817093118 0.7313536940579346 1 0 0 1 I I #
point $-1 23.263219613869403 32.45607922405663 12.251119689936722 #
plane-surface $-1 52.815332499160739 0 0 -1 0 0 0 0 1 forward_v I I I I #
coedge $-1 $295 $293 $297 $403 reversed $201 $-1 #
edge $-1 $308 -14.254294897455653 $405 14.254294897455653 $307 $461 forward 7 unknown #
vertex $-1 $403 $462 #
straight-curve $-1 -52.815332499160739 -34.604221589548388 0 0 0 -1 I I #
edge $-1 $401 -34.604221589548388 $405 34.604221589548388 $399 $463 forward 7 unknown #
straight-curve $-1 0 -34.604221589548388 -14.254294897455653 -1 0 0 I I #
vertex $-1 $300 $464 #
straight-curve $-1 0 34.604221589548388 -14.254294897455653 1 0 0 I I #
point $-1 52.815332499160739 34.604221589548388 -14.254294897455653 #
point $-1 52.815332499160739 -34.604221589548388 -14.254294897455653 #
straight-curve $-1 -52.815332499160739 0 14.254294897455653 0 -1 0 I I #
point $-1 -52.815332499160739 34.604221589548388 14.254294897455653 #
point $-1 -52.815332499160739 -34.604221589548388 14.254294897455653 #
straight-curve $-1 52.815332499160739 -34.604221589548388 0 0 0 -1 I I #
straight-curve $-1 52.815332499160739 34.604221589548388 0 0 0 -1 I I #
plane-surface $-1 0 -34.604221589548388 0 0 1 0 0 0 1 forward_v I I I I #
coedge $-1 $465 $320 $330 $426 reversed $220 $-1 #
coedge $-1 $320 $465 $333 $428 forward $220 $-1 #
coedge $-1 $466 $323 $321 $418 forward $318 $-1 #
edge $-1 $419 34.227056802096349 $467 52.815332499160739 $321 $468 forward 7 unknown #
vertex $-1 $418 $469 #
straight-curve $-1 -34.227056802096349 34.604221589548388 6.0461014104905102 0 0 -1 I I #
coedge $-1 $323 $466 $325 $423 forward $318 $-1 #
straight-curve $-1 -34.227056802096349 0 14.254294897455653 0 1 0 I I #
edge $-1 $470 -52.815332499160739 $327 -34.227056802096349 $325 $471 forward 7 unknown #
point $-1 -34.227056802096349 -34.604221589548388 14.254294897455654 #
straight-curve $-1 -52.815332499160739 0 9.9301107445063863 0 -1 0 I I #
edge $-1 $470 -14.254294897455653 $331 -9.9301107445063863 $415 $472 forward 7 unknown #
point $-1 -52.815332499160739 -34.604221589548388 9.9301107445063863 #
edge $-1 $467 -14.254294897455653 $334 -9.9301107445063863 $333 $473 forward 7 unknown #
point $-1 -52.815332499160739 34.604221589548388 9.9301107445063863 #
edge $-1 $431 29.496365869912552 $434 33.502716284950367 $339 $474 forward 7 unknown #
vertex $-1 $353 $475 #
straight-curve $-1 2.7926284699246438 -53.32208137360697 14.254294897455651 0 -1 0 I I #
edge $-1 $434 -4.6882454975204162 $350 19.649993432410536 $349 $476 forward 7 unknown #
vertex $-1 $433 $477 #
straight-curve $-1 2.7926284699246438 -34.604221589548402 10.247944482417822 0 0.7313536940579346 0.68199836817093118 I I #
point $-1 2.7926284699246438 -30.307936858564869 14.254294897455653 #
point $-1 27.130867399855596 -34.604221589548388 10.247944482417834 #
straight-curve $-1 0 -34.604221589548388 14.254294897455653 1 0 0 I I #
vertex $-1 $356 $478 #
point $-1 8.6602762559108371 -29.805699567557145 9.4089355397965484 #
vertex $-1 $360 $479 #
point $-1 15.96174793489012 -29.805699567557145 9.4089355397965484 #
vertex $-1 $364 $480 #
point $-1 23.263219613869403 -29.805699567557145 9.4089355397965484 #
coedge $-1 $379 $378 $371 $446 forward $368 $-1 #
edge $-1 $447 53.096388525809857 $450 57.102738940847672 $445 $481 forward 7 unknown #
vertex $-1 $383 $482 #
straight-curve $-1 27.130867399855596 28.014156084091425 14.254294897455651 0 1 0 I I #
edge $-1 $450 -19.649993432410536 $380 4.6882454975204162 $379 $483 forward 7 unknown #
vertex $-1 $449 $484 #
straight-curve $-1 27.130867399855596 -16.011628989482688 57.447989794212432 0 -0.7313536940579346 0.68199836817093118 I I #
point $-1 27.130867399855596 30.307936858564872 14.254294897455651 #
point $-1 2.7926284699246438 34.604221589548388 10.247944482417836 #
straight-curve $-1 0 34.604221589548388 14.254294897455653 -1 0 0 I I #
vertex $-1 $386 $485 #
point $-1 8.6602762559108371 29.805699567557159 9.4089355397965377 #
vertex $-1 $390 $486 #
point $-1 15.96174793489012 29.805699567557159 9.4089355397965377 #
vertex $-1 $394 $487 #
point $-1 23.263219613869403 29.805699567557159 9.4089355397965377 #
straight-curve $-1 -52.815332499160739 34.604221589548388 0 0 0 -1 I I #
point $-1 -52.815332499160739 -34.604221589548388 -14.254294897455653 #
straight-curve $-1 -52.815332499160739 0 -14.254294897455653 0 1 0 I I #
point $-1 -52.815332499160739 34.604221589548388 -14.254294897455653 #
coedge $-1 $416 $415 $466 $488 reversed $220 $-1 #
coedge $-1 $421 $417 $465 $488 forward $318 $-1 #
vertex $-1 $418 $489 #
straight-curve $-1 0 34.604221589548388 14.254294897455653 -1 0 0 I I #
point $-1 -34.227056802096349 34.604221589548388 14.254294897455654 #
vertex $-1 $488 $490 #
straight-curve $-1 0 -34.604221589548388 14.254294897455653 1 0 0 I I #
straight-curve $-1 -52.815332499160739 -34.604221589548388 0 0 0 -1 I I #
straight-curve $-1 -52.815332499160739 34.604221589548388 0 0 0 -1 I I #
straight-curve $-1 2.7926284699246438 -34.604221589548388 43.750660767368203 0 0 -1 I I #
point $-1 2.7926284699246438 -34.604221589548388 14.254294897455653 #
straight-curve $-1 7.4808739674450599 -34.604221589548388 10.247944482417836 1 0 0 I I #
point $-1 2.7926284699246438 -34.604221589548388 10.247944482417834 #
point $-1 7.6602762559108371 -29.123701199386215 8.6775818457386151 #
point $-1 14.96174793489012 -29.123701199386215 8.6775818457386151 #
point $-1 22.263219613869403 -29.123701199386215 8.6775818457386151 #
straight-curve $-1 27.130867399855596 34.604221589548388 67.350683423265508 0 0 -1 I I #
point $-1 27.130867399855596 34.604221589548388 14.254294897455653 #
straight-curve $-1 7.4808739674450599 34.604221589548381 10.247944482417836 -1 0 0 I I #
point $-1 27.130867399855596 34.604221589548388 10.247944482417836 #
point $-1 7.6602762559108371 29.123701199386229 8.6775818457386045 #
point $-1 14.96174793489012 29.123701199386229 8.6775818457386045 #
point $-1 22.263219613869403 29.123701199386229 8.6775818457386045 #
edge $-1 $467 -34.604221589548388 $470 34.604221589548388 $465 $491 forward 7 unknown #
point $-1 -52.815332499160739 34.604221589548388 14.254294897455653 #
point $-1 -52.815332499160739 -34.604221589548388 14.254294897455653 #
straight-curve $-1 -52.815332499160739 0 14.254294897455653 0 -1 0 I I #
End-of-ACIS-data 