500 0 8 0           
7 Unknown 11 ACIS 5.0 NT 24 Thu Mar 25 16:54:53 1999 
-1 9.9999999999999995e-007 1e-010 
body $-1 $8 $-1 $9 #
body $-1 $10 $-1 $11 #
body $-1 $12 $-1 $13 #
body $-1 $14 $-1 $15 #
body $-1 $16 $-1 $17 #
body $-1 $18 $-1 $19 #
body $-1 $20 $-1 $21 #
body $-1 $22 $-1 $23 #
lump $-1 $-1 $24 $0 #
transform $-1 1 0 0 0 1 0 0 0 1 54.758751182592242 27.899606288129551 12.056764579032931 1 rotate no_reflect no_shear #
lump $-1 $-1 $25 $1 #
transform $-1 1 0 0 0 1 0 0 0 1 54.758751182592242 27.899606288129551 12.056764579032931 1 rotate no_reflect no_shear #
lump $-1 $-1 $26 $2 #
transform $-1 1 0 0 0 1 0 0 0 1 54.758751182592242 27.899606288129551 12.056764579032931 1 rotate no_reflect no_shear #
lump $-1 $-1 $27 $3 #
transform $-1 1 0 0 0 1 0 0 0 1 54.758751182592242 27.899606288129551 12.056764579032931 1 rotate no_reflect no_shear #
lump $-1 $-1 $28 $4 #
transform $-1 1 0 0 0 1 0 0 0 1 54.758751182592242 27.899606288129551 12.056764579032931 1 rotate no_reflect no_shear #
lump $-1 $-1 $29 $5 #
transform $-1 1 0 0 0 1 0 0 0 1 54.758751182592242 27.899606288129551 12.056764579032931 1 rotate no_reflect no_shear #
lump $-1 $-1 $30 $6 #
transform $-1 1 0 0 0 1 0 0 0 1 54.758751182592242 27.899606288129551 12.056764579032931 1 rotate no_reflect no_shear #
lump $-1 $-1 $31 $7 #
transform $-1 1 0 0 0 1 0 0 0 1 54.758751182592242 27.899606288129551 12.056764579032931 1 rotate no_reflect no_shear #
shell $-1 $-1 $-1 $32 $-1 $8 #
shell $-1 $-1 $-1 $33 $-1 $10 #
shell $-1 $-1 $-1 $34 $-1 $12 #
shell $-1 $-1 $-1 $35 $-1 $14 #
shell $-1 $-1 $-1 $36 $-1 $16 #
shell $-1 $-1 $-1 $37 $-1 $18 #
shell $-1 $-1 $-1 $38 $-1 $20 #
shell $-1 $-1 $-1 $39 $-1 $22 #
face $-1 $40 $41 $24 $-1 $42 forward single #
face $-1 $43 $44 $25 $-1 $45 reversed single #
face $-1 $46 $47 $26 $-1 $48 forward single #
face $-1 $49 $50 $27 $-1 $51 reversed single #
face $-1 $52 $53 $28 $-1 $54 forward single #
face $-1 $55 $56 $29 $-1 $57 reversed single #
face $-1 $58 $59 $30 $-1 $60 forward single #
face $-1 $61 $62 $31 $-1 $63 forward single #
face $-1 $64 $65 $24 $-1 $66 reversed single #
loop $-1 $-1 $67 $32 #
plane-surface $-1 0 0 12.056764579032931 0 0 1 1 0 0 forward_v I I I I #
face $-1 $68 $69 $25 $-1 $70 reversed single #
loop $-1 $-1 $71 $33 #
plane-surface $-1 -35.933684642056477 -22.740623173993598 0 1 0 0 0 0 -1 forward_v I I I I #
face $-1 $72 $73 $26 $-1 $74 reversed single #
loop $-1 $-1 $75 $34 #
plane-surface $-1 0 20.689026716337349 1.1917031452194546 0 0 1 1 0 0 forward_v I I I I #
face $-1 $76 $77 $27 $-1 $78 reversed single #
loop $-1 $-1 $79 $35 #
plane-surface $-1 35.883490196977441 5.6442747363720365 161.15047638616809 0 -1 0 -0.61566148304635926 0 -0.78801074757464917 forward_v I I I I #
face $-1 $80 $81 $28 $-1 $82 forward single #
loop $-1 $83 $84 $36 #
cone-surface $-1 51.449944138386584 0.99999516218069218 9.3001809354352147 -0.61566148304635926 0 -0.78801074757464917 0.39400537378732459 0 -0.30783074152317963 1 I I 0 1 0.5 forward I I I I #
face $-1 $85 $86 $29 $-1 $87 reversed single #
loop $-1 $-1 $88 $37 #
plane-surface $-1 -122.18445910827489 -6.297318804691276 88.75235124875411 0 1 0 -0.61566148304635926 0 0.78801074757464917 forward_v I I I I #
face $-1 $89 $90 $30 $-1 $91 forward single #
loop $-1 $92 $93 $38 #
cone-surface $-1 -47.488517260021936 -3.670987812190301 5.8166097780358825 0.61566148304635926 0 -0.78801074757464917 0.78801074757464917 0 0.61566148304635926 1 I I 0 1 1 forward I I I I #
face $-1 $94 $95 $31 $-1 $96 forward single #
loop $-1 $97 $98 $39 #
cone-surface $-1 -47.488517260021936 0.26850867656116151 5.8166097780358825 0.61566148304635926 0 -0.78801074757464917 0.78801074757464917 0 0.61566148304635926 1 I I 0 1 1 forward I I I I #
face $-1 $99 $100 $24 $-1 $101 reversed single #
loop $-1 $-1 $102 $40 #
plane-surface $-1 0 0 -12.056764579032931 0 0 1 1 0 0 forward_v I I I I #
coedge $-1 $103 $104 $105 $106 forward $41 $-1 #
face $-1 $107 $108 $25 $-1 $109 reversed single #
loop $-1 $-1 $110 $43 #
plane-surface $-1 -33.289453333291426 -17.581640059857644 0 0 -1 0 0 0 -1 forward_v I I I I #
coedge $-1 $111 $112 $113 $114 forward $44 $-1 #
face $-1 $115 $116 $26 $-1 $117 reversed single #
loop $-1 $-1 $118 $46 #
plane-surface $-1 0 20.689026716337349 -2.4163849345278852 0 0 1 1 0 0 forward_v I I I I #
coedge $-1 $119 $120 $121 $122 reversed $47 $-1 #
face $-1 $123 $124 $27 $-1 $125 reversed single #
loop $-1 $-1 $126 $49 #
plane-surface $-1 -31.542217728705189 0.99999516218069218 74.849507474870663 0.61566148304635926 0 0.78801074757464917 0.78801074757464917 0 -0.61566148304635926 forward_v I I I I #
coedge $-1 $127 $128 $129 $130 reversed $50 $-1 #
face $-1 $-1 $131 $28 $-1 $132 forward single #
loop $-1 $133 $134 $52 #
cone-surface $-1 50.952184074637564 0.99999516218069218 8.663077119866271 -0.61566148304635926 0 -0.78801074757464917 0.19700268689366229 0 -0.15391537076158981 1 I I -0.70710678118654746 0.70710678118654746 0.25 forward I I I I #
loop $-1 $-1 $135 $36 #
coedge $-1 $84 $84 $136 $137 reversed $53 $-1 #
face $-1 $138 $139 $29 $-1 $140 reversed single #
loop $-1 $-1 $141 $55 #
plane-surface $-1 -54.758751182592263 -1.7012395678145715 2.4513823374566783 -0.61566148304635926 0 0.78801074757464917 0.78801074757464917 0 0.61566148304635926 forward_v I I I I #
coedge $-1 $142 $143 $144 $145 reversed $56 $-1 #
face $-1 $-1 $146 $30 $-1 $147 forward single #
loop $-1 $148 $149 $58 #
cone-surface $-1 -46.05761678384534 -3.670987812190301 3.9851407240396366 0.61566148304635926 0 -0.78801074757464917 0.39400537378732459 0 0.30783074152317963 1 I I -0.70710678118654746 0.70710678118654746 0.5 forward I I I I #
loop $-1 $-1 $150 $38 #
coedge $-1 $93 $93 $151 $152 reversed $59 $-1 #
face $-1 $-1 $153 $31 $-1 $154 forward single #
loop $-1 $155 $156 $61 #
cone-surface $-1 -46.05761678384534 0.26850867656116151 3.9851407240396366 0.61566148304635926 0 -0.78801074757464917 0.39400537378732459 0 0.30783074152317963 1 I I -0.70710678118654746 0.70710678118654746 0.5 forward I I I I #
loop $-1 $-1 $157 $39 #
coedge $-1 $98 $98 $158 $159 reversed $62 $-1 #
face $-1 $160 $161 $24 $-1 $162 reversed single #
loop $-1 $-1 $163 $64 #
plane-surface $-1 0 -27.899606288129551 0 0 1 0 0 0 1 forward_v I I I I #
coedge $-1 $164 $165 $166 $167 forward $65 $-1 #
coedge $-1 $168 $67 $169 $170 forward $41 $-1 #
coedge $-1 $67 $168 $171 $172 forward $41 $-1 #
coedge $-1 $173 $174 $67 $106 reversed $175 $-1 #
edge $-1 $176 -27.899606288129551 $177 27.899606288129551 $105 $178 forward 7 unknown #
face $-1 $179 $180 $25 $-1 $181 forward single #
loop $-1 $-1 $182 $68 #
plane-surface $-1 -30.645222024526376 -22.740623173993598 0 -1 0 0 0 0 1 forward_v I I I I #
coedge $-1 $183 $184 $185 $186 forward $69 $-1 #
coedge $-1 $187 $71 $188 $189 reversed $44 $-1 #
coedge $-1 $71 $187 $190 $191 reversed $44 $-1 #
coedge $-1 $184 $183 $71 $114 reversed $69 $-1 #
edge $-1 $192 -12.056764579032931 $193 12.056764579032931 $113 $194 forward 7 unknown #
face $-1 $195 $196 $26 $-1 $197 reversed single #
loop $-1 $-1 $198 $72 #
plane-surface $-1 0 13.478447144545143 -0.61234089465421526 0 1 0 0 0 1 forward_v I I I I #
coedge $-1 $199 $200 $201 $202 reversed $73 $-1 #
coedge $-1 $203 $75 $204 $205 reversed $47 $-1 #
coedge $-1 $75 $203 $206 $207 forward $47 $-1 #
coedge $-1 $208 $209 $75 $122 forward $210 $-1 #
edge $-1 $211 -17.555092929960878 $212 -3.1339337863764687 $121 $213 forward 7 unknown #
face $-1 $214 $215 $27 $-1 $216 forward single #
loop $-1 $-1 $217 $76 #
plane-surface $-1 35.883490196977441 -3.6442844120106521 161.15047638616809 0 1 0 0.61566148304635926 0 0.78801074757464917 forward_v I I I I #
coedge $-1 $218 $219 $220 $221 reversed $77 $-1 #
coedge $-1 $128 $79 $222 $223 reversed $50 $-1 #
coedge $-1 $79 $127 $218 $224 reversed $50 $-1 #
coedge $-1 $220 $225 $79 $130 forward $215 $-1 #
edge $-1 $226 -36.817006084103525 $227 -30.887081381667041 $129 $228 forward 7 unknown #
loop $-1 $-1 $136 $80 #
plane-surface $-1 -31.542217728705189 0.99999516218069218 74.849507474870663 0.61566148304635926 0 0.78801074757464917 0.78801074757464917 0 -0.61566148304635926 forward_v I I I I #
loop $-1 $-1 $229 $52 #
coedge $-1 $134 $134 $135 $230 reversed $81 $-1 #
coedge $-1 $135 $135 $134 $230 forward $83 $-1 #
coedge $-1 $136 $136 $84 $137 forward $131 $-1 #
edge $-1 $231 0 $231 6.2831853071796004 $136 $232 forward 7 unknown #
face $-1 $233 $234 $29 $-1 $235 reversed single #
loop $-1 $-1 $236 $85 #
plane-surface $-1 -122.18445910827489 2.894839669062133 88.75235124875411 0 -1 0 0.61566148304635926 0 -0.78801074757464917 forward_v I I I I #
coedge $-1 $237 $238 $239 $240 reversed $86 $-1 #
coedge $-1 $143 $88 $241 $242 reversed $56 $-1 #
coedge $-1 $88 $142 $237 $243 reversed $56 $-1 #
coedge $-1 $239 $244 $88 $145 forward $245 $-1 #
edge $-1 $246 6.3334783715452048 $247 18.627806747378962 $144 $248 forward 7 unknown #
loop $-1 $-1 $151 $89 #
plane-surface $-1 -54.758751182592263 -1.7012395678145715 2.4513823374566783 -0.61566148304635926 0 0.78801074757464917 0.78801074757464917 0 0.61566148304635926 forward_v I I I I #
loop $-1 $-1 $249 $58 #
coedge $-1 $149 $149 $150 $250 reversed $90 $-1 #
coedge $-1 $150 $150 $149 $250 forward $92 $-1 #
coedge $-1 $151 $151 $93 $152 forward $146 $-1 #
edge $-1 $251 0 $251 6.2831853071796004 $151 $252 forward 7 unknown #
loop $-1 $-1 $158 $94 #
plane-surface $-1 -54.758751182592263 -1.7012395678145715 2.4513823374566783 -0.61566148304635926 0 0.78801074757464917 0.78801074757464917 0 0.61566148304635926 forward_v I I I I #
loop $-1 $-1 $253 $61 #
coedge $-1 $156 $156 $157 $254 reversed $95 $-1 #
coedge $-1 $157 $157 $156 $254 forward $97 $-1 #
coedge $-1 $158 $158 $98 $159 forward $153 $-1 #
edge $-1 $255 0 $255 6.2831853071796004 $158 $256 forward 7 unknown #
face $-1 $257 $258 $24 $-1 $259 reversed single #
loop $-1 $-1 $260 $99 #
plane-surface $-1 -54.758751182592242 0 0 1 0 0 0 0 -1 forward_v I I I I #
coedge $-1 $261 $171 $262 $263 forward $100 $-1 #
coedge $-1 $264 $102 $261 $265 forward $65 $-1 #
coedge $-1 $102 $264 $266 $267 forward $65 $-1 #
coedge $-1 $174 $173 $102 $167 reversed $175 $-1 #
edge $-1 $268 -27.899606288129551 $269 27.899606288129551 $166 $270 forward 7 unknown #
coedge $-1 $104 $103 $271 $272 forward $41 $-1 #
coedge $-1 $273 $274 $103 $170 reversed $258 $-1 #
edge $-1 $177 -54.758751182592242 $275 54.758751182592242 $169 $276 forward 7 unknown #
coedge $-1 $163 $277 $104 $172 reversed $100 $-1 #
edge $-1 $278 -54.758751182592242 $176 54.758751182592242 $171 $279 forward 7 unknown #
coedge $-1 $166 $105 $277 $280 forward $175 $-1 #
coedge $-1 $105 $166 $273 $281 reversed $175 $-1 #
loop $-1 $-1 $173 $257 #
vertex $-1 $106 $282 #
vertex $-1 $106 $283 #
straight-curve $-1 54.758751182592242 0 12.056764579032931 0 1 0 I I #
face $-1 $284 $285 $25 $-1 $286 reversed single #
loop $-1 $-1 $287 $107 #
plane-surface $-1 0 0 12.056764579032931 0 0 1 1 0 0 forward_v I I I I #
coedge $-1 $288 $289 $290 $291 reversed $108 $-1 #
coedge $-1 $113 $110 $292 $293 reversed $69 $-1 #
coedge $-1 $110 $113 $294 $295 reversed $69 $-1 #
coedge $-1 $289 $288 $110 $186 reversed $108 $-1 #
edge $-1 $296 -12.056764579032931 $297 12.056764579032931 $185 $298 forward 7 unknown #
coedge $-1 $112 $111 $299 $300 reversed $44 $-1 #
coedge $-1 $292 $301 $111 $189 forward $285 $-1 #
edge $-1 $302 -16.529294701132752 $193 -6.2113284728608456 $188 $303 forward 7 unknown #
coedge $-1 $304 $294 $112 $191 forward $180 $-1 #
edge $-1 $192 6.2113284728608456 $305 16.529294701132752 $190 $306 forward 7 unknown #
vertex $-1 $191 $307 #
vertex $-1 $189 $308 #
straight-curve $-1 -35.933684642056477 -17.581640059857644 0 0 0 -1 I I #
face $-1 $309 $210 $26 $-1 $310 reversed single #
loop $-1 $-1 $311 $115 #
plane-surface $-1 -54.758751182592242 0 0 1 0 0 0 0 -1 forward_v I I I I #
coedge $-1 $312 $206 $313 $314 reversed $116 $-1 #
coedge $-1 $315 $118 $312 $316 forward $73 $-1 #
coedge $-1 $118 $315 $317 $318 reversed $73 $-1 #
coedge $-1 $209 $208 $118 $202 forward $210 $-1 #
edge $-1 $319 3.1339337863764687 $320 17.555092929960878 $201 $321 forward 7 unknown #
coedge $-1 $120 $119 $322 $323 reversed $47 $-1 #
coedge $-1 $324 $325 $119 $205 forward $326 $-1 #
edge $-1 $327 -54.758751182592242 $211 54.758751182592242 $204 $328 forward 7 unknown #
coedge $-1 $198 $329 $120 $207 reversed $116 $-1 #
edge $-1 $330 -54.758751182592242 $212 54.758751182592242 $206 $331 forward 7 unknown #
coedge $-1 $201 $121 $329 $332 forward $210 $-1 #
coedge $-1 $121 $201 $324 $333 reversed $210 $-1 #
loop $-1 $-1 $121 $195 #
vertex $-1 $333 $334 #
vertex $-1 $122 $335 #
straight-curve $-1 54.758751182592242 10.344513358168674 1.1917031452194546 0 -1 0 I I #
face $-1 $-1 $336 $27 $-1 $337 reversed single #
loop $-1 $-1 $129 $123 #
plane-surface $-1 0 0 12.056764579032931 0 0 1 1 0 0 forward_v I I I I #
coedge $-1 $338 $339 $340 $341 reversed $124 $-1 #
coedge $-1 $342 $126 $128 $224 forward $77 $-1 #
coedge $-1 $126 $342 $338 $343 forward $77 $-1 #
coedge $-1 $340 $129 $126 $221 forward $215 $-1 #
edge $-1 $227 -5.1442771552816904 $344 4.1442819931009982 $220 $345 forward 7 unknown #
coedge $-1 $346 $347 $127 $223 forward $336 $-1 #
edge $-1 $348 -73.151438643896014 $226 -68.518473614051118 $222 $349 forward 7 unknown #
edge $-1 $227 101.9923198461799 $348 109.51750236518447 $128 $350 forward 7 unknown #
coedge $-1 $129 $340 $346 $351 forward $215 $-1 #
vertex $-1 $223 $352 #
vertex $-1 $130 $353 #
straight-curve $-1 17.94174509848872 5.6442747363720365 12.056764579032929 -1 0 0 I I #
coedge $-1 $229 $229 $-1 $354 reversed $133 $-1 #
edge $-1 $355 0 $355 6.2831853071796004 $134 $356 forward 7 unknown #
vertex $-1 $137 $357 #
ellipse-curve $-1 51.793788831374002 0.99999516218069218 9.7402820641104793 0.61566148304635926 0 0.78801074757464917 0.39400537378732459 0 -0.30783074152317963 1 I I #
face $-1 $-1 $245 $29 $-1 $358 forward single #
loop $-1 $-1 $359 $138 #
plane-surface $-1 -54.758751182592242 0 0 1 0 0 0 0 -1 forward_v I I I I #
coedge $-1 $360 $361 $362 $363 reversed $139 $-1 #
coedge $-1 $364 $141 $143 $243 forward $86 $-1 #
coedge $-1 $141 $364 $360 $365 forward $86 $-1 #
coedge $-1 $362 $144 $141 $240 forward $245 $-1 #
edge $-1 $247 -5.4466990207839903 $366 3.7454594529694187 $239 $367 forward 7 unknown #
coedge $-1 $368 $369 $142 $242 forward $234 $-1 #
edge $-1 $370 -41.924793286920362 $246 -32.319411045344125 $241 $371 forward 7 unknown #
edge $-1 $247 -15.601726770444998 $370 -2.7186986990266253e-014 $143 $372 forward 7 unknown #
coedge $-1 $144 $362 $368 $373 forward $245 $-1 #
loop $-1 $-1 $362 $233 #
vertex $-1 $242 $374 #
vertex $-1 $145 $375 #
straight-curve $-1 -61.092229554137447 -6.297318804691276 12.056764579032929 1 0 0 I I #
coedge $-1 $249 $249 $-1 $376 reversed $148 $-1 #
edge $-1 $377 0 $377 6.2831853071796004 $149 $378 forward 7 unknown #
vertex $-1 $152 $379 #
ellipse-curve $-1 -48.611586994675363 -3.670987812190301 7.2540734582448145 -0.61566148304635926 0 0.78801074757464917 0.78801074757464917 0 0.61566148304635926 1 I I #
coedge $-1 $253 $253 $-1 $380 reversed $155 $-1 #
edge $-1 $381 0 $381 6.2831853071796004 $156 $382 forward 7 unknown #
vertex $-1 $159 $383 #
ellipse-curve $-1 -48.611586994675363 0.26850867656116151 7.2540734582448145 -0.61566148304635926 0 0.78801074757464917 0.78801074757464917 0 0.61566148304635926 1 I I #
face $-1 $-1 $175 $24 $-1 $384 reversed single #
loop $-1 $-1 $273 $160 #
plane-surface $-1 0 27.899606288129551 0 0 -1 0 0 0 -1 forward_v I I I I #
coedge $-1 $385 $271 $274 $386 forward $161 $-1 #
coedge $-1 $277 $163 $164 $265 reversed $100 $-1 #
coedge $-1 $271 $385 $163 $263 reversed $161 $-1 #
edge $-1 $278 -12.056764579032931 $387 12.056764579032931 $262 $388 forward 7 unknown #
coedge $-1 $165 $164 $385 $389 forward $65 $-1 #
edge $-1 $269 -54.758751182592242 $387 54.758751182592242 $261 $390 forward 7 unknown #
coedge $-1 $274 $273 $165 $267 reversed $258 $-1 #
edge $-1 $391 -54.758751182592242 $268 54.758751182592242 $266 $392 forward 7 unknown #
vertex $-1 $167 $393 #
vertex $-1 $280 $394 #
straight-curve $-1 54.758751182592242 0 -12.056764579032931 0 -1 0 I I #
coedge $-1 $260 $262 $168 $272 reversed $161 $-1 #
edge $-1 $275 -27.899606288129551 $278 27.899606288129551 $271 $395 forward 7 unknown #
coedge $-1 $266 $169 $174 $281 forward $258 $-1 #
coedge $-1 $169 $266 $260 $386 reversed $258 $-1 #
vertex $-1 $170 $396 #
straight-curve $-1 0 27.899606288129551 12.056764579032931 -1 0 0 I I #
coedge $-1 $171 $261 $173 $280 reversed $100 $-1 #
vertex $-1 $272 $397 #
straight-curve $-1 0 -27.899606288129551 12.056764579032931 1 0 0 I I #
edge $-1 $176 -12.056764579032931 $269 12.056764579032931 $173 $398 forward 7 unknown #
edge $-1 $177 -12.056764579032931 $268 12.056764579032931 $174 $399 forward 7 unknown #
point $-1 54.758751182592242 -27.899606288129551 12.056764579032931 #
point $-1 54.758751182592242 27.899606288129551 12.056764579032931 #
face $-1 $-1 $400 $25 $-1 $401 reversed single #
loop $-1 $-1 $402 $179 #
plane-surface $-1 0 0 -12.056764579032931 0 0 1 1 0 0 forward_v I I I I #
coedge $-1 $294 $304 $289 $403 forward $180 $-1 #
coedge $-1 $185 $182 $402 $404 reversed $108 $-1 #
coedge $-1 $182 $185 $287 $403 reversed $108 $-1 #
coedge $-1 $405 $406 $182 $291 forward $400 $-1 #
edge $-1 $407 -12.056764579032931 $408 12.056764579032931 $290 $409 forward 7 unknown #
coedge $-1 $402 $188 $183 $293 forward $285 $-1 #
edge $-1 $193 -19.288957975410764 $297 -14.000495357880663 $292 $410 forward 7 unknown #
coedge $-1 $190 $287 $184 $295 forward $180 $-1 #
edge $-1 $296 14.000495357880663 $192 19.288957975410764 $294 $411 forward 7 unknown #
vertex $-1 $295 $412 #
vertex $-1 $293 $413 #
straight-curve $-1 -30.645222024526376 -17.581640059857644 0 0 0 -1 I I #
coedge $-1 $406 $405 $187 $300 forward $400 $-1 #
edge $-1 $305 -12.056764579032931 $302 12.056764579032931 $299 $414 forward 7 unknown #
coedge $-1 $188 $402 $406 $415 forward $285 $-1 #
vertex $-1 $189 $416 #
straight-curve $-1 -35.933684642056477 -11.370311586996799 -12.056764579032931 0 1 0 I I #
coedge $-1 $287 $190 $405 $417 forward $180 $-1 #
vertex $-1 $417 $418 #
straight-curve $-1 -35.933684642056477 -11.370311586996799 12.056764579032931 0 -1 0 I I #
point $-1 -35.933684642056477 -17.581640059857644 12.056764579032931 #
point $-1 -35.933684642056477 -17.581640059857644 -12.056764579032931 #
face $-1 $-1 $326 $26 $-1 $419 reversed single #
plane-surface $-1 54.758751182592242 0 0 -1 0 0 0 0 1 forward_v I I I I #
coedge $-1 $313 $420 $315 $421 forward $196 $-1 #
coedge $-1 $329 $198 $199 $316 reversed $116 $-1 #
coedge $-1 $322 $311 $198 $314 forward $196 $-1 #
edge $-1 $422 -2.1102144872007775 $330 1.4978735925465623 $313 $423 forward 7 unknown #
coedge $-1 $200 $199 $311 $421 reversed $73 $-1 #
edge $-1 $319 -54.758751182592242 $422 54.758751182592242 $312 $424 forward 7 unknown #
coedge $-1 $325 $324 $200 $318 forward $326 $-1 #
edge $-1 $320 -54.758751182592242 $425 54.758751182592242 $317 $426 forward 7 unknown #
vertex $-1 $202 $427 #
vertex $-1 $202 $428 #
straight-curve $-1 54.758751182592242 10.344513358168674 -2.4163849345278852 0 1 0 I I #
coedge $-1 $420 $313 $203 $323 forward $196 $-1 #
edge $-1 $330 3.1339337863764687 $327 17.555092929960878 $322 $429 forward 7 unknown #
coedge $-1 $317 $204 $209 $333 forward $326 $-1 #
coedge $-1 $204 $317 $420 $430 reversed $326 $-1 #
loop $-1 $-1 $317 $309 #
vertex $-1 $430 $431 #
straight-curve $-1 0 27.899606288129551 1.1917031452194546 1 0 0 I I #
coedge $-1 $206 $312 $208 $332 reversed $116 $-1 #
vertex $-1 $323 $432 #
straight-curve $-1 0 13.478447144545143 1.1917031452194546 1 0 0 I I #
edge $-1 $212 -1.4978735925465623 $319 2.1102144872007775 $208 $433 forward 7 unknown #
edge $-1 $211 -1.1917031452194546 $320 2.4163849345278852 $209 $434 forward 7 unknown #
point $-1 54.758751182592242 27.899606288129554 1.1917031452194546 #
point $-1 54.758751182592242 13.478447144545143 1.1917031452194546 #
loop $-1 $-1 $222 $214 #
plane-surface $-1 54.758751182592242 0 0 -1 0 0 0 0 1 forward_v I I I I #
coedge $-1 $339 $217 $219 $343 reversed $124 $-1 #
coedge $-1 $217 $338 $435 $436 reversed $124 $-1 #
coedge $-1 $225 $220 $217 $341 forward $215 $-1 #
edge $-1 $344 30.887081381667041 $437 36.817006084103525 $340 $438 forward 7 unknown #
coedge $-1 $219 $218 $347 $439 reversed $77 $-1 #
edge $-1 $440 -109.51750236518447 $344 -101.9923198461799 $338 $441 forward 7 unknown #
vertex $-1 $221 $442 #
straight-curve $-1 48.828826480155762 0.49999758109034609 12.056764579032922 0 -1 0 I I #
coedge $-1 $435 $222 $225 $351 reversed $336 $-1 #
coedge $-1 $222 $435 $342 $439 forward $336 $-1 #
vertex $-1 $223 $443 #
straight-curve $-1 54.758751182592242 5.6442747363720365 80.575238193084047 0 0 1 I I #
straight-curve $-1 -31.542217728705189 5.6442747363720365 74.849507474870663 0.78801074757464917 0 -0.61566148304635926 I I #
edge $-1 $437 -3.6442844120106521 $226 5.6442747363720365 $346 $444 forward 7 unknown #
point $-1 54.758751182592242 5.6442747363720365 12.056764579032931 #
point $-1 48.828826480155762 5.6442747363720365 12.056764579032929 #
edge $-1 $445 1 $445 0 $229 $-1 forward 7 unknown #
vertex $-1 $230 $446 #
ellipse-curve $-1 51.106099445399153 0.99999516218069218 8.8600798067599342 0.61566148304635926 0 0.78801074757464917 0.39400537378732459 0 -0.30783074152317963 1 I I #
point $-1 52.187794205161339 0.99999516218069218 9.4324513225873172 #
plane-surface $-1 0 0 12.056764579032931 0 0 1 1 0 0 forward_v I I I I #
coedge $-1 $369 $368 $361 $447 forward $234 $-1 #
coedge $-1 $361 $236 $238 $365 reversed $139 $-1 #
coedge $-1 $236 $360 $359 $447 reversed $139 $-1 #
coedge $-1 $244 $239 $236 $363 forward $245 $-1 #
edge $-1 $366 -18.627806747378962 $448 -6.3334783715452048 $362 $449 forward 7 unknown #
coedge $-1 $238 $237 $369 $450 reversed $86 $-1 #
edge $-1 $451 2.7186986990266253e-014 $366 15.601726770444998 $360 $452 forward 7 unknown #
vertex $-1 $240 $453 #
straight-curve $-1 -42.464422806758485 -0.85061978390728576 12.056764579032929 0 1 0 I I #
coedge $-1 $359 $241 $244 $373 reversed $234 $-1 #
coedge $-1 $241 $359 $364 $450 forward $234 $-1 #
vertex $-1 $242 $454 #
straight-curve $-1 -54.758751182592242 -6.297318804691276 44.376175624377055 0 0 1 I I #
straight-curve $-1 -54.758751182592263 -6.297318804691276 2.4513823374566783 -0.78801074757464917 0 -0.61566148304635926 I I #
edge $-1 $448 -2.894839669062133 $246 6.297318804691276 $368 $455 forward 7 unknown #
point $-1 -54.758751182592242 -6.297318804691276 12.056764579032931 #
point $-1 -42.464422806758485 -6.297318804691276 12.056764579032931 #
edge $-1 $456 1 $456 0 $249 $-1 forward 7 unknown #
vertex $-1 $250 $457 #
ellipse-curve $-1 -46.365447525368516 -3.670987812190301 4.3791460978269612 -0.61566148304635926 0 0.78801074757464917 0.78801074757464917 0 0.61566148304635926 1 I I #
point $-1 -47.823576247100704 -3.670987812190301 7.8697349412911617 #
edge $-1 $458 1 $458 0 $253 $-1 forward 7 unknown #
vertex $-1 $254 $459 #
ellipse-curve $-1 -46.365447525368516 0.26850867656116151 4.3791460978269612 -0.61566148304635926 0 0.78801074757464917 0.78801074757464917 0 0.61566148304635926 1 I I #
point $-1 -47.823576247100704 0.26850867656116151 7.8697349412911617 #
plane-surface $-1 54.758751182592242 0 0 -1 0 0 0 0 1 forward_v I I I I #
coedge $-1 $262 $260 $264 $389 reversed $161 $-1 #
edge $-1 $275 -12.056764579032931 $391 12.056764579032931 $274 $460 forward 7 unknown #
vertex $-1 $389 $461 #
straight-curve $-1 -54.758751182592242 -27.899606288129551 0 0 0 -1 I I #
edge $-1 $387 -27.899606288129551 $391 27.899606288129551 $385 $462 forward 7 unknown #
straight-curve $-1 0 -27.899606288129551 -12.056764579032931 -1 0 0 I I #
vertex $-1 $267 $463 #
straight-curve $-1 0 27.899606288129551 -12.056764579032931 1 0 0 I I #
point $-1 54.758751182592242 27.899606288129551 -12.056764579032931 #
point $-1 54.758751182592242 -27.899606288129551 -12.056764579032931 #
straight-curve $-1 -54.758751182592242 0 12.056764579032931 0 -1 0 I I #
point $-1 -54.758751182592242 27.899606288129551 12.056764579032931 #
point $-1 -54.758751182592242 -27.899606288129551 12.056764579032931 #
straight-curve $-1 54.758751182592242 -27.899606288129551 0 0 0 -1 I I #
straight-curve $-1 54.758751182592242 27.899606288129551 0 0 0 -1 I I #
loop $-1 $-1 $290 $284 #
plane-surface $-1 0 -27.899606288129551 0 0 1 0 0 0 1 forward_v I I I I #
coedge $-1 $301 $292 $288 $404 forward $285 $-1 #
edge $-1 $408 -16.529294701132752 $296 -6.2113284728608456 $287 $464 forward 7 unknown #
edge $-1 $297 6.2113284728608456 $407 16.529294701132752 $402 $465 forward 7 unknown #
coedge $-1 $299 $290 $304 $417 reversed $400 $-1 #
coedge $-1 $290 $299 $301 $415 reversed $400 $-1 #
vertex $-1 $415 $466 #
vertex $-1 $291 $467 #
straight-curve $-1 -30.645222024526376 -27.899606288129551 0 0 0 1 I I #
straight-curve $-1 -16.644726666645713 -17.581640059857644 -12.056764579032931 1 0 0 I I #
straight-curve $-1 -16.644726666645713 -17.581640059857644 12.056764579032931 -1 0 0 I I #
point $-1 -30.645222024526376 -17.581640059857644 12.056764579032931 #
point $-1 -30.645222024526376 -17.581640059857644 -12.056764579032931 #
straight-curve $-1 -35.933684642056477 -27.899606288129551 0 0 0 -1 I I #
edge $-1 $407 30.645222024526376 $302 35.933684642056477 $406 $468 forward 7 unknown #
point $-1 -35.933684642056477 -27.899606288129551 -12.056764579032931 #
edge $-1 $305 -35.933684642056477 $408 -30.645222024526376 $405 $469 forward 7 unknown #
point $-1 -35.933684642056477 -27.899606288129551 12.056764579032931 #
plane-surface $-1 0 27.899606288129551 0 0 -1 0 0 0 -1 forward_v I I I I #
coedge $-1 $311 $322 $325 $430 forward $196 $-1 #
edge $-1 $425 -17.555092929960878 $422 -3.1339337863764687 $311 $470 forward 7 unknown #
vertex $-1 $421 $471 #
straight-curve $-1 -54.758751182592242 13.478447144545143 -0.30617044732710763 0 0 1 I I #
straight-curve $-1 0 13.478447144545143 -2.4163849345278852 -1 0 0 I I #
vertex $-1 $318 $472 #
straight-curve $-1 0 27.899606288129551 -2.4163849345278852 -1 0 0 I I #
point $-1 54.758751182592242 13.478447144545143 -2.4163849345278852 #
point $-1 54.758751182592242 27.899606288129554 -2.4163849345278852 #
straight-curve $-1 -54.758751182592242 10.344513358168674 1.1917031452194546 0 1 0 I I #
edge $-1 $327 -1.1917031452194546 $425 2.4163849345278852 $325 $473 forward 7 unknown #
point $-1 -54.758751182592242 27.899606288129554 1.1917031452194546 #
point $-1 -54.758751182592242 13.478447144545143 1.1917031452194546 #
straight-curve $-1 54.758751182592242 13.478447144545143 -0.30617044732710763 0 0 -1 I I #
straight-curve $-1 54.758751182592242 27.899606288129551 0 0 0 -1 I I #
coedge $-1 $347 $346 $339 $436 forward $336 $-1 #
edge $-1 $437 68.518473614051118 $440 73.151438643896014 $435 $474 forward 7 unknown #
vertex $-1 $351 $475 #
straight-curve $-1 17.94174509848872 -3.6442844120106521 12.056764579032929 1 0 0 I I #
edge $-1 $440 -4.1442819931009982 $348 5.1442771552816904 $347 $476 forward 7 unknown #
vertex $-1 $439 $477 #
straight-curve $-1 -31.542217728705189 -3.6442844120106521 74.849507474870663 -0.78801074757464917 0 0.61566148304635926 I I #
point $-1 48.828826480155762 -3.6442844120106521 12.056764579032929 #
point $-1 54.758751182592242 5.6442747363720365 7.4237995491880326 #
straight-curve $-1 54.758751182592242 0 12.056764579032931 0 1 0 I I #
vertex $-1 $354 $478 #
point $-1 51.500104819186475 0.99999516218069218 8.5522490652367544 #
edge $-1 $448 32.319411045344125 $451 41.924793286920362 $359 $479 forward 7 unknown #
vertex $-1 $373 $480 #
straight-curve $-1 -61.092229554137447 2.894839669062133 12.056764579032929 -1 0 0 I I #
edge $-1 $451 -3.7454594529694187 $370 5.4466990207839903 $369 $481 forward 7 unknown #
vertex $-1 $450 $482 #
straight-curve $-1 -54.758751182592263 2.894839669062133 2.4513823374566783 0.78801074757464917 0 0.61566148304635926 I I #
point $-1 -42.464422806758485 2.894839669062133 12.056764579032931 #
point $-1 -54.758751182592242 -6.297318804691276 2.4513823374566952 #
straight-curve $-1 -54.758751182592242 0 12.056764579032931 0 -1 0 I I #
vertex $-1 $376 $483 #
point $-1 -45.577436777793871 -3.670987812190301 4.9948075808733208 #
vertex $-1 $380 $484 #
point $-1 -45.577436777793871 0.26850867656116151 4.9948075808733208 #
straight-curve $-1 -54.758751182592242 27.899606288129551 0 0 0 -1 I I #
point $-1 -54.758751182592242 -27.899606288129551 -12.056764579032931 #
straight-curve $-1 -54.758751182592242 0 -12.056764579032931 0 1 0 I I #
point $-1 -54.758751182592242 27.899606288129551 -12.056764579032931 #
straight-curve $-1 -30.645222024526376 -11.370311586996799 12.056764579032931 0 1 0 I I #
straight-curve $-1 -30.645222024526376 -11.370311586996799 -12.056764579032931 0 -1 0 I I #
point $-1 -30.645222024526376 -27.899606288129551 -12.056764579032931 #
point $-1 -30.645222024526376 -27.899606288129551 12.056764579032931 #
straight-curve $-1 0 -27.899606288129551 -12.056764579032931 -1 0 0 I I #
straight-curve $-1 0 -27.899606288129551 12.056764579032931 1 0 0 I I #
straight-curve $-1 -54.758751182592242 10.344513358168674 -2.4163849345278852 0 -1 0 I I #
point $-1 -54.758751182592242 13.478447144545143 -2.4163849345278852 #
point $-1 -54.758751182592242 27.899606288129554 -2.4163849345278852 #
straight-curve $-1 -54.758751182592242 27.899606288129551 0 0 0 -1 I I #
straight-curve $-1 54.758751182592242 -3.6442844120106521 80.575238193084047 0 0 -1 I I #
point $-1 54.758751182592242 -3.6442844120106521 12.056764579032931 #
straight-curve $-1 54.758751182592235 0.49999758109034609 7.4237995491880326 0 1 0 I I #
point $-1 54.758751182592242 -3.6442844120106521 7.4237995491880326 #
point $-1 50.798268703875976 0.99999516218069218 8.4660744329726079 #
straight-curve $-1 -54.758751182592242 2.894839669062133 44.376175624377055 0 0 -1 I I #
point $-1 -54.758751182592242 2.894839669062133 12.056764579032931 #
straight-curve $-1 -54.758751182592242 -0.85061978390728576 2.4513823374566908 0 -1 0 I I #
point $-1 -54.758751182592242 2.894839669062133 2.4513823374566952 #
point $-1 -45.749786042322164 -3.670987812190301 3.591135350252312 #
point $-1 -45.749786042322164 0.26850867656116151 3.591135350252312 #
End-of-ACIS-data 