500 0 4 0           
7 Unknown 11 ACIS 5.0 NT 24 Thu Mar 25 19:12:26 1999 
-1 9.9999999999999995e-007 1e-010 
body $-1 $4 $-1 $5 #
body $-1 $6 $-1 $7 #
body $-1 $8 $-1 $9 #
body $-1 $10 $-1 $11 #
lump $-1 $-1 $12 $0 #
transform $-1 1 0 0 0 1 0 0 0 1 79.940183721427047 47.378836937321992 22.111762626432171 1 rotate no_reflect no_shear #
lump $-1 $-1 $13 $1 #
transform $-1 1 0 0 0 1 0 0 0 1 79.940183721427047 47.378836937321992 22.111762626432171 1 rotate no_reflect no_shear #
lump $-1 $-1 $14 $2 #
transform $-1 1 0 0 0 1 0 0 0 1 79.940183721427047 47.378836937321992 22.111762626432171 1 rotate no_reflect no_shear #
lump $-1 $-1 $15 $3 #
transform $-1 1 0 0 0 1 0 0 0 1 79.940183721427047 47.378836937321992 22.111762626432171 1 rotate no_reflect no_shear #
shell $-1 $-1 $-1 $16 $-1 $4 #
shell $-1 $-1 $-1 $17 $-1 $6 #
shell $-1 $-1 $-1 $18 $-1 $8 #
shell $-1 $-1 $-1 $19 $-1 $10 #
face $-1 $20 $21 $12 $-1 $22 forward single #
face $-1 $23 $24 $13 $-1 $25 forward single #
face $-1 $26 $27 $14 $-1 $28 reversed single #
face $-1 $29 $30 $15 $-1 $31 forward single #
face $-1 $32 $33 $12 $-1 $34 reversed single #
loop $-1 $-1 $35 $16 #
plane-surface $-1 0 0 22.111762626432171 0 0 1 1 0 0 forward_v I I I I #
face $-1 $36 $37 $13 $-1 $38 reversed single #
loop $-1 $-1 $39 $17 #
plane-surface $-1 0 -47.378836937321992 0 0 1 0 0 0 1 forward_v I I I I #
face $-1 $40 $41 $14 $-1 $42 reversed single #
loop $-1 $-1 $43 $18 #
plane-surface $-1 55.971546708898231 87.115611807359457 197.94218626361373 1 0 0 0 -0.68199836817093118 -0.7313536940579346 forward_v I I I I #
face $-1 $44 $45 $15 $-1 $46 forward single #
loop $-1 $47 $48 $19 #
cone-surface $-1 67.955865215162646 42.981941896782175 17.825841329690796 0 -0.68199836817093118 -0.7313536940579346 1.5 0 0 1 I I 0 1 1.5 forward I I I I #
face $-1 $49 $50 $12 $-1 $51 reversed single #
loop $-1 $-1 $52 $20 #
plane-surface $-1 0 0 -22.111762626432171 0 0 1 1 0 0 forward_v I I I I #
coedge $-1 $53 $54 $55 $56 forward $21 $-1 #
face $-1 $57 $58 $13 $-1 $59 reversed single #
loop $-1 $-1 $60 $23 #
plane-surface $-1 0 0 -22.111762626432171 0 0 1 1 0 0 forward_v I I I I #
coedge $-1 $61 $62 $63 $64 forward $24 $-1 #
face $-1 $65 $66 $14 $-1 $67 forward single #
loop $-1 $-1 $68 $26 #
plane-surface $-1 67.955865215162646 -21.922537891235905 81.013088926942459 0 0.68199836817093118 0.7313536940579346 1 0 0 forward_v I I I I #
coedge $-1 $69 $70 $71 $72 reversed $27 $-1 #
face $-1 $-1 $73 $15 $-1 $74 forward single #
loop $-1 $75 $76 $29 #
cone-surface $-1 67.955865215162646 41.142266544583791 15.853031089241068 0 -0.68199836817093118 -0.7313536940579346 0.75 0 0 1 I I -0.70710678118654757 0.70710678118654757 0.75 forward I I I I #
loop $-1 $-1 $77 $19 #
coedge $-1 $48 $48 $78 $79 reversed $30 $-1 #
face $-1 $80 $81 $12 $-1 $82 reversed single #
loop $-1 $-1 $83 $32 #
plane-surface $-1 0 -47.378836937321992 0 0 1 0 0 0 1 forward_v I I I I #
coedge $-1 $84 $85 $86 $87 forward $33 $-1 #
coedge $-1 $88 $35 $89 $90 forward $21 $-1 #
coedge $-1 $35 $88 $91 $92 forward $21 $-1 #
coedge $-1 $93 $94 $35 $56 reversed $95 $-1 #
edge $-1 $96 -47.378836937321992 $97 47.378836937321992 $55 $98 forward 7 unknown #
face $-1 $99 $100 $13 $-1 $101 forward single #
loop $-1 $-1 $102 $36 #
plane-surface $-1 79.940183721427047 0 0 -1 0 0 0 0 1 forward_v I I I I #
coedge $-1 $103 $104 $105 $106 forward $37 $-1 #
coedge $-1 $105 $39 $102 $107 reversed $24 $-1 #
coedge $-1 $39 $105 $108 $109 reversed $24 $-1 #
coedge $-1 $110 $111 $39 $64 reversed $100 $-1 #
edge $-1 $112 -79.940183721427047 $113 79.940183721427047 $63 $114 forward 7 unknown #
face $-1 $115 $116 $14 $-1 $117 reversed single #
loop $-1 $-1 $71 $40 #
plane-surface $-1 0 0 22.111762626432171 0 0 1 1 0 0 forward_v I I I I #
coedge $-1 $118 $119 $120 $121 reversed $41 $-1 #
coedge $-1 $70 $43 $122 $123 reversed $27 $-1 #
coedge $-1 $43 $69 $118 $124 reversed $27 $-1 #
coedge $-1 $120 $125 $43 $72 forward $66 $-1 #
edge $-1 $126 -3.8210310336422637 $127 2.3164058952969384 $71 $128 forward 7 unknown #
loop $-1 $-1 $78 $44 #
plane-surface $-1 67.955865215162646 -21.922537891235905 81.013088926942459 0 0.68199836817093118 0.7313536940579346 1 0 0 forward_v I I I I #
loop $-1 $-1 $129 $29 #
coedge $-1 $76 $76 $77 $130 reversed $45 $-1 #
coedge $-1 $77 $77 $76 $130 forward $47 $-1 #
coedge $-1 $78 $78 $48 $79 forward $73 $-1 #
edge $-1 $131 -7.0138136560165516e-016 $131 6.2831853071795996 $78 $132 forward 7 unknown #
face $-1 $133 $134 $12 $-1 $135 reversed single #
loop $-1 $-1 $136 $49 #
plane-surface $-1 -79.940183721427047 0 0 1 0 0 0 0 -1 forward_v I I I I #
coedge $-1 $91 $137 $93 $138 reversed $50 $-1 #
coedge $-1 $139 $52 $137 $140 forward $33 $-1 #
coedge $-1 $52 $139 $141 $142 forward $33 $-1 #
coedge $-1 $94 $93 $52 $87 reversed $95 $-1 #
edge $-1 $143 -47.378836937321992 $144 47.378836937321992 $86 $145 forward 7 unknown #
coedge $-1 $54 $53 $146 $147 forward $21 $-1 #
coedge $-1 $148 $149 $53 $90 reversed $134 $-1 #
edge $-1 $97 -79.940183721427047 $150 79.940183721427047 $89 $151 forward 7 unknown #
coedge $-1 $152 $83 $54 $92 reversed $50 $-1 #
edge $-1 $153 -79.940183721427047 $96 79.940183721427047 $91 $154 forward 7 unknown #
coedge $-1 $86 $55 $83 $138 forward $95 $-1 #
coedge $-1 $55 $86 $148 $155 reversed $95 $-1 #
loop $-1 $-1 $93 $133 #
vertex $-1 $56 $156 #
vertex $-1 $56 $157 #
straight-curve $-1 79.940183721427047 0 22.111762626432171 0 1 0 I I #
face $-1 $158 $159 $13 $-1 $160 reversed single #
loop $-1 $-1 $111 $57 #
plane-surface $-1 0 -55.815891159775063 -9.9611240113922701 0 0 1 1 0 0 forward_v I I I I #
coedge $-1 $161 $162 $61 $107 forward $58 $-1 #
coedge $-1 $163 $60 $162 $164 forward $37 $-1 #
coedge $-1 $60 $163 $165 $166 forward $37 $-1 #
coedge $-1 $62 $61 $60 $106 reversed $24 $-1 #
edge $-1 $167 -79.940183721427047 $168 79.940183721427047 $60 $169 forward 7 unknown #
edge $-1 $168 -22.111762626432171 $113 -9.9611240113922701 $102 $170 forward 7 unknown #
coedge $-1 $165 $171 $62 $109 forward $172 $-1 #
edge $-1 $112 9.9611240113922701 $167 22.111762626432171 $108 $173 forward 7 unknown #
coedge $-1 $174 $63 $171 $175 forward $100 $-1 #
coedge $-1 $63 $174 $161 $176 forward $100 $-1 #
vertex $-1 $109 $177 #
vertex $-1 $176 $178 #
straight-curve $-1 0 -47.378836937321992 -9.9611240113922701 1 0 0 I I #
face $-1 $-1 $179 $14 $-1 $180 reversed single #
loop $-1 $-1 $181 $65 #
plane-surface $-1 79.940183721427047 0 0 -1 0 0 0 0 1 forward_v I I I I #
coedge $-1 $182 $68 $70 $124 forward $41 $-1 #
coedge $-1 $68 $182 $181 $183 reversed $41 $-1 #
coedge $-1 $184 $71 $68 $121 forward $66 $-1 #
edge $-1 $127 21.993614101316908 $185 45.962251113845738 $120 $186 forward 7 unknown #
coedge $-1 $187 $188 $69 $123 forward $179 $-1 #
edge $-1 $189 -82.582583159044859 $126 -76.8593305053747 $122 $190 forward 7 unknown #
edge $-1 $127 86.365787734183684 $189 94.757673874643956 $70 $191 forward 7 unknown #
coedge $-1 $71 $184 $187 $192 forward $66 $-1 #
vertex $-1 $123 $193 #
vertex $-1 $72 $194 #
straight-curve $-1 55.971546708898231 43.557805903679728 22.111762626432167 0 -1 0 I I #
coedge $-1 $129 $129 $-1 $195 reversed $75 $-1 #
edge $-1 $196 0 $196 6.2831853071796004 $76 $197 forward 7 unknown #
vertex $-1 $79 $198 #
ellipse-curve $-1 67.955865215162646 44.310118472852373 19.250136299597095 0 0.68199836817093118 0.7313536940579346 1.5 0 0 1 I I #
face $-1 $-1 $95 $12 $-1 $199 reversed single #
loop $-1 $-1 $148 $80 #
plane-surface $-1 0 47.378836937321992 0 0 -1 0 0 0 -1 forward_v I I I I #
coedge $-1 $200 $146 $149 $201 forward $81 $-1 #
coedge $-1 $83 $152 $84 $140 reversed $50 $-1 #
edge $-1 $96 -22.111762626432171 $144 22.111762626432171 $93 $202 forward 7 unknown #
coedge $-1 $85 $84 $200 $203 forward $33 $-1 #
edge $-1 $144 -79.940183721427047 $204 79.940183721427047 $137 $205 forward 7 unknown #
coedge $-1 $149 $148 $85 $142 reversed $134 $-1 #
edge $-1 $206 -79.940183721427047 $143 79.940183721427047 $141 $207 forward 7 unknown #
vertex $-1 $87 $208 #
vertex $-1 $138 $209 #
straight-curve $-1 79.940183721427047 0 -22.111762626432171 0 -1 0 I I #
coedge $-1 $136 $210 $88 $147 reversed $81 $-1 #
edge $-1 $150 -47.378836937321992 $153 47.378836937321992 $146 $211 forward 7 unknown #
coedge $-1 $141 $89 $94 $155 forward $134 $-1 #
coedge $-1 $89 $141 $136 $201 reversed $134 $-1 #
vertex $-1 $90 $212 #
straight-curve $-1 0 47.378836937321992 22.111762626432171 -1 0 0 I I #
coedge $-1 $137 $91 $210 $213 forward $50 $-1 #
vertex $-1 $147 $214 #
straight-curve $-1 0 -47.378836937321992 22.111762626432171 1 0 0 I I #
edge $-1 $97 -22.111762626432171 $143 22.111762626432171 $94 $215 forward 7 unknown #
point $-1 79.940183721427047 -47.378836937321992 22.111762626432171 #
point $-1 79.940183721427047 47.378836937321992 22.111762626432171 #
face $-1 $-1 $172 $13 $-1 $216 reversed single #
loop $-1 $-1 $217 $99 #
plane-surface $-1 0 -64.252945382228134 -16.03644331891222 0 1 0 0 0 1 forward_v I I I I #
coedge $-1 $218 $102 $111 $176 reversed $58 $-1 #
coedge $-1 $102 $218 $103 $164 reversed $58 $-1 #
coedge $-1 $104 $103 $219 $220 forward $37 $-1 #
edge $-1 $168 47.378836937321992 $221 64.252945382228134 $162 $222 forward 7 unknown #
coedge $-1 $223 $108 $104 $166 reversed $172 $-1 #
edge $-1 $224 -64.252945382228134 $167 -47.378836937321992 $165 $225 forward 7 unknown #
vertex $-1 $109 $226 #
vertex $-1 $164 $227 #
straight-curve $-1 0 -47.378836937321992 -22.111762626432171 1 0 0 I I #
straight-curve $-1 79.940183721427047 -47.378836937321992 0 0 0 1 I I #
coedge $-1 $108 $223 $110 $175 reversed $172 $-1 #
loop $-1 $-1 $108 $158 #
straight-curve $-1 -79.940183721427047 -47.378836937321992 0 0 0 -1 I I #
coedge $-1 $111 $110 $228 $229 forward $100 $-1 #
edge $-1 $112 -8.4370542224530709 $230 8.4370542224530709 $171 $231 forward 7 unknown #
edge $-1 $232 -8.4370542224530709 $113 8.4370542224530709 $161 $233 forward 7 unknown #
point $-1 -79.940183721427047 -47.378836937321992 -9.9611240113922701 #
point $-1 79.940183721427047 -47.378836937321992 -9.9611240113922701 #
loop $-1 $-1 $122 $115 #
plane-surface $-1 0 47.378836937321992 0 0 -1 0 0 0 -1 forward_v I I I I #
coedge $-1 $234 $235 $119 $183 forward $116 $-1 #
coedge $-1 $119 $118 $188 $236 reversed $41 $-1 #
edge $-1 $185 50.723825974912828 $237 59.115712115373093 $181 $238 forward 7 unknown #
coedge $-1 $125 $120 $235 $239 forward $66 $-1 #
vertex $-1 $239 $240 #
straight-curve $-1 33.977932607581323 41.241400008382776 22.111762626432181 1 0 0 I I #
coedge $-1 $241 $122 $125 $192 reversed $179 $-1 #
coedge $-1 $122 $241 $182 $236 forward $179 $-1 #
vertex $-1 $123 $242 #
straight-curve $-1 55.971546708898231 47.378836937321992 98.971093131806867 0 0 1 I I #
straight-curve $-1 55.971546708898231 -21.922537891235905 81.013088926942459 0 0.7313536940579346 -0.68199836817093118 I I #
edge $-1 $243 -79.940183721427047 $126 -55.971546708898231 $187 $244 forward 7 unknown #
point $-1 55.971546708898231 47.378836937321992 22.111762626432171 #
point $-1 55.971546708898231 41.24140000838279 22.11176262643216 #
edge $-1 $245 1 $245 0 $129 $-1 forward 7 unknown #
vertex $-1 $130 $246 #
ellipse-curve $-1 67.955865215162646 41.65376532071199 16.401546359784518 0 0.68199836817093118 0.7313536940579346 1.5 0 0 1 I I #
point $-1 69.455865215162646 44.310118472852352 19.250136299597074 #
plane-surface $-1 79.940183721427047 0 0 -1 0 0 0 0 1 forward_v I I I I #
coedge $-1 $210 $136 $139 $203 reversed $81 $-1 #
edge $-1 $150 -22.111762626432171 $206 22.111762626432171 $149 $247 forward 7 unknown #
straight-curve $-1 79.940183721427047 -47.378836937321992 0 0 0 -1 I I #
edge $-1 $204 -47.378836937321992 $206 47.378836937321992 $200 $248 forward 7 unknown #
vertex $-1 $203 $249 #
straight-curve $-1 0 -47.378836937321992 -22.111762626432171 -1 0 0 I I #
vertex $-1 $142 $250 #
straight-curve $-1 0 47.378836937321992 -22.111762626432171 1 0 0 I I #
point $-1 79.940183721427047 47.378836937321992 -22.111762626432171 #
point $-1 79.940183721427047 -47.378836937321992 -22.111762626432171 #
coedge $-1 $146 $200 $152 $213 reversed $81 $-1 #
straight-curve $-1 -79.940183721427047 0 22.111762626432171 0 -1 0 I I #
point $-1 -79.940183721427047 47.378836937321992 22.111762626432171 #
edge $-1 $153 -22.111762626432171 $204 22.111762626432171 $210 $251 forward 7 unknown #
point $-1 -79.940183721427047 -47.378836937321992 22.111762626432171 #
straight-curve $-1 79.940183721427047 47.378836937321992 0 0 0 -1 I I #
plane-surface $-1 -79.940183721427047 0 0 1 0 0 0 0 -1 forward_v I I I I #
coedge $-1 $219 $228 $223 $252 forward $159 $-1 #
coedge $-1 $162 $161 $253 $254 forward $58 $-1 #
coedge $-1 $253 $217 $163 $220 reversed $159 $-1 #
edge $-1 $221 -79.940183721427047 $224 79.940183721427047 $219 $255 forward 7 unknown #
vertex $-1 $254 $256 #
straight-curve $-1 79.940183721427047 0 -22.111762626432171 0 -1 0 I I #
coedge $-1 $171 $165 $217 $252 reversed $172 $-1 #
vertex $-1 $166 $257 #
straight-curve $-1 -79.940183721427047 0 -22.111762626432171 0 1 0 I I #
point $-1 -79.940183721427047 -47.378836937321992 -22.111762626432171 #
point $-1 79.940183721427047 -47.378836937321992 -22.111762626432171 #
coedge $-1 $217 $253 $174 $229 reversed $159 $-1 #
edge $-1 $230 -79.940183721427047 $232 79.940183721427047 $228 $258 forward 7 unknown #
vertex $-1 $175 $259 #
straight-curve $-1 -79.940183721427047 -55.815891159775063 -9.9611240113922701 0 -1 0 I I #
vertex $-1 $176 $260 #
straight-curve $-1 79.940183721427047 -55.815891159775063 -9.9611240113922701 0 1 0 I I #
coedge $-1 $235 $181 $241 $261 reversed $116 $-1 #
coedge $-1 $181 $234 $184 $239 reversed $116 $-1 #
edge $-1 $237 -45.962251113845738 $189 -21.993614101316908 $188 $262 forward 7 unknown #
vertex $-1 $183 $263 #
straight-curve $-1 79.940183721427047 4.1443425048784768 56.705329168709 0 0.7313536940579346 -0.68199836817093118 I I #
edge $-1 $185 41.24140000838279 $243 47.378836937321992 $235 $264 forward 7 unknown #
point $-1 79.940183721427061 41.24140000838279 22.11176262643216 #
coedge $-1 $188 $187 $234 $261 forward $179 $-1 #
point $-1 55.971546708898231 47.378836937321992 16.388509972762009 #
vertex $-1 $239 $265 #
straight-curve $-1 0 47.378836937321992 22.111762626432171 -1 0 0 I I #
vertex $-1 $195 $266 #
point $-1 69.455865215162646 41.65376532071199 16.401546359784518 #
straight-curve $-1 -79.940183721427047 47.378836937321992 0 0 0 -1 I I #
straight-curve $-1 -79.940183721427047 0 -22.111762626432171 0 1 0 I I #
point $-1 -79.940183721427047 -47.378836937321992 -22.111762626432171 #
point $-1 -79.940183721427047 47.378836937321992 -22.111762626432171 #
straight-curve $-1 -79.940183721427047 -47.378836937321992 0 0 0 -1 I I #
edge $-1 $230 -6.0753193075199494 $224 6.0753193075199476 $223 $267 forward 7 unknown #
coedge $-1 $228 $219 $218 $254 reversed $159 $-1 #
edge $-1 $232 -6.0753193075199494 $221 6.0753193075199476 $218 $268 forward 7 unknown #
straight-curve $-1 0 -64.252945382228134 -22.111762626432167 -1 0 0 I I #
point $-1 79.940183721427047 -64.252945382228134 -22.111762626432167 #
point $-1 -79.940183721427047 -64.252945382228134 -22.111762626432167 #
straight-curve $-1 0 -64.252945382228134 -9.9611240113922701 1 0 0 I I #
point $-1 -79.940183721427047 -64.252945382228134 -9.9611240113922701 #
point $-1 79.940183721427047 -64.252945382228134 -9.9611240113922701 #
edge $-1 $243 -22.111762626432171 $237 -16.388509972762009 $234 $269 forward 7 unknown #
straight-curve $-1 33.977932607581323 47.378836937321992 16.388509972762012 -1 0 0 I I #
point $-1 79.940183721427061 47.378836937321992 16.388509972762009 #
straight-curve $-1 79.940183721427047 0 22.111762626432171 0 1 0 I I #
point $-1 79.940183721427047 47.378836937321992 22.111762626432171 #
point $-1 67.955865215162646 40.630767768455591 15.304515818697617 #
straight-curve $-1 -79.940183721427047 -64.252945382228134 -16.03644331891222 0 0 -1 I I #
straight-curve $-1 79.940183721427047 -64.252945382228134 -16.03644331891222 0 0 -1 I I #
straight-curve $-1 79.940183721427047 47.378836937321992 0 0 0 -1 I I #
End-of-ACIS-data 