500 0 13 0           
7 Unknown 11 ACIS 5.0 NT 24 Fri Mar 26 18:39:21 1999 
-1 9.9999999999999995e-007 1e-010 
body $-1 $13 $-1 $14 #
body $-1 $15 $-1 $16 #
body $-1 $17 $-1 $18 #
body $-1 $19 $-1 $20 #
body $-1 $21 $-1 $22 #
body $-1 $23 $-1 $24 #
body $-1 $25 $-1 $26 #
body $-1 $27 $-1 $28 #
body $-1 $29 $-1 $30 #
body $-1 $31 $-1 $32 #
body $-1 $33 $-1 $34 #
body $-1 $35 $-1 $36 #
body $-1 $37 $-1 $38 #
lump $-1 $-1 $39 $0 #
transform $-1 1 0 0 0 1 0 0 0 1 76.771141697439504 32.35952707157157 16.107770081288347 1 rotate no_reflect no_shear #
lump $-1 $-1 $40 $1 #
transform $-1 1 0 0 0 1 0 0 0 1 76.771141697439504 32.35952707157157 16.107770081288347 1 rotate no_reflect no_shear #
lump $-1 $-1 $41 $2 #
transform $-1 1 0 0 0 1 0 0 0 1 76.771141697439504 32.35952707157157 16.107770081288347 1 rotate no_reflect no_shear #
lump $-1 $-1 $42 $3 #
transform $-1 1 0 0 0 1 0 0 0 1 76.771141697439504 32.35952707157157 16.107770081288347 1 rotate no_reflect no_shear #
lump $-1 $-1 $43 $4 #
transform $-1 1 0 0 0 1 0 0 0 1 76.771141697439504 32.35952707157157 16.107770081288347 1 rotate no_reflect no_shear #
lump $-1 $-1 $44 $5 #
transform $-1 1 0 0 0 1 0 0 0 1 76.771141697439504 32.35952707157157 16.107770081288347 1 rotate no_reflect no_shear #
lump $-1 $-1 $45 $6 #
transform $-1 1 0 0 0 1 0 0 0 1 76.771141697439504 32.35952707157157 16.107770081288347 1 rotate no_reflect no_shear #
lump $-1 $-1 $46 $7 #
transform $-1 1 0 0 0 1 0 0 0 1 76.771141697439504 32.35952707157157 16.107770081288347 1 rotate no_reflect no_shear #
lump $-1 $-1 $47 $8 #
transform $-1 1 0 0 0 1 0 0 0 1 76.771141697439504 32.35952707157157 16.107770081288347 1 rotate no_reflect no_shear #
lump $-1 $-1 $48 $9 #
transform $-1 1 0 0 0 1 0 0 0 1 76.771141697439504 32.35952707157157 16.107770081288347 1 rotate no_reflect no_shear #
lump $-1 $-1 $49 $10 #
transform $-1 1 0 0 0 1 0 0 0 1 76.771141697439504 32.35952707157157 16.107770081288347 1 rotate no_reflect no_shear #
lump $-1 $-1 $50 $11 #
transform $-1 1 0 0 0 1 0 0 0 1 76.771141697439504 32.35952707157157 16.107770081288347 1 rotate no_reflect no_shear #
lump $-1 $-1 $51 $12 #
transform $-1 1 0 0 0 1 0 0 0 1 76.771141697439504 32.35952707157157 16.107770081288347 1 rotate no_reflect no_shear #
shell $-1 $-1 $-1 $52 $-1 $13 #
shell $-1 $-1 $-1 $53 $-1 $15 #
shell $-1 $-1 $-1 $54 $-1 $17 #
shell $-1 $-1 $-1 $55 $-1 $19 #
shell $-1 $-1 $-1 $56 $-1 $21 #
shell $-1 $-1 $-1 $57 $-1 $23 #
shell $-1 $-1 $-1 $58 $-1 $25 #
shell $-1 $-1 $-1 $59 $-1 $27 #
shell $-1 $-1 $-1 $60 $-1 $29 #
shell $-1 $-1 $-1 $61 $-1 $31 #
shell $-1 $-1 $-1 $62 $-1 $33 #
shell $-1 $-1 $-1 $63 $-1 $35 #
shell $-1 $-1 $-1 $64 $-1 $37 #
face $-1 $65 $66 $39 $-1 $67 forward single #
face $-1 $68 $69 $40 $-1 $70 reversed single #
face $-1 $71 $72 $41 $-1 $73 reversed single #
face $-1 $74 $75 $42 $-1 $76 forward single #
face $-1 $77 $78 $43 $-1 $79 forward single #
face $-1 $80 $81 $44 $-1 $82 forward single #
face $-1 $83 $84 $45 $-1 $85 reversed single #
face $-1 $86 $87 $46 $-1 $88 forward single #
face $-1 $89 $90 $47 $-1 $91 forward single #
face $-1 $92 $93 $48 $-1 $94 forward single #
face $-1 $95 $96 $49 $-1 $97 reversed single #
face $-1 $98 $99 $50 $-1 $100 forward single #
face $-1 $101 $102 $51 $-1 $103 forward single #
face $-1 $104 $105 $39 $-1 $106 reversed single #
loop $-1 $-1 $107 $52 #
plane-surface $-1 0 0 16.107770081288347 0 0 1 1 0 0 forward_v I I I I #
face $-1 $108 $109 $40 $-1 $110 reversed single #
loop $-1 $-1 $111 $53 #
plane-surface $-1 -52.455472953067712 -23.997575459238142 0 1 0 0 0 0 -1 forward_v I I I I #
face $-1 $112 $113 $41 $-1 $114 reversed single #
loop $-1 $-1 $115 $54 #
plane-surface $-1 -183.43057533009323 -6.0866941934698389 119.29612902459203 0 1 0 -0.69465837861970381 0 0.71933979245794832 forward_v I I I I #
face $-1 $116 $117 $42 $-1 $118 forward single #
loop $-1 $119 $120 $55 #
cone-surface $-1 -72.235836230039624 -3.9682116335925564 11.673882186410973 0.69465837861970381 0 -0.71933979245794832 0.71933979245794832 0 0.69465837861970381 1 I I 0 1 1 forward I I I I #
face $-1 $121 $122 $43 $-1 $123 forward single #
loop $-1 $124 $125 $56 #
cone-surface $-1 -72.235836230039624 -0.79048779377663436 11.673882186410973 0.69465837861970381 0 -0.71933979245794832 0.71933979245794832 0 0.69465837861970381 1 I I 0 1 1 forward I I I I #
face $-1 $126 $127 $44 $-1 $128 forward single #
loop $-1 $129 $130 $57 #
cone-surface $-1 -72.235836230039624 2.3872360460392912 11.673882186410973 0.69465837861970381 0 -0.71933979245794832 0.71933979245794832 0 0.69465837861970381 1 I I 0 1 1 forward I I I I #
face $-1 $131 $132 $45 $-1 $133 reversed single #
loop $-1 $-1 $134 $58 #
plane-surface $-1 -183.43057533009323 12.218184618750279 119.29612902459203 0 1 0 -0.69465837861970381 0 0.71933979245794832 forward_v I I I I #
face $-1 $135 $136 $46 $-1 $137 forward single #
loop $-1 $138 $139 $59 #
cone-surface $-1 -72.235836230039624 14.336667178627565 11.673882186410973 0.69465837861970381 0 -0.71933979245794832 0.71933979245794832 0 0.69465837861970381 1 I I 0 1 1 forward I I I I #
face $-1 $140 $141 $47 $-1 $142 forward single #
loop $-1 $143 $144 $60 #
cone-surface $-1 -72.235836230039624 17.514391018443483 11.673882186410973 0.69465837861970381 0 -0.71933979245794832 0.71933979245794832 0 0.69465837861970381 1 I I 0 1 1 forward I I I I #
face $-1 $145 $146 $48 $-1 $147 forward single #
loop $-1 $148 $149 $61 #
cone-surface $-1 -72.235836230039624 20.692114858259409 11.673882186410973 0.69465837861970381 0 -0.71933979245794832 0.71933979245794832 0 0.69465837861970381 1 I I 0 1 1 forward I I I I #
face $-1 $150 $151 $49 $-1 $152 reversed single #
loop $-1 $-1 $153 $62 #
plane-surface $-1 91.918175328465026 23.463532992865559 218.99040938376427 0 -1 0 -0.75470958851134928 0 -0.65605901945558964 forward_v I I I I #
face $-1 $154 $155 $50 $-1 $156 forward single #
loop $-1 $157 $158 $63 #
cone-surface $-1 69.356616836263342 15.328575469872284 7.9850245763941068 -0.75470958851134928 0 -0.65605901945558964 0.98408852918338452 0 -1.132064382767024 1 I I 0 1 1.5 forward I I I I #
face $-1 $159 $160 $51 $-1 $161 forward single #
loop $-1 $162 $163 $64 #
cone-surface $-1 69.356616836263342 20.209549983668254 7.9850245763941068 -0.75470958851134928 0 -0.65605901945558964 0.98408852918338452 0 -1.132064382767024 1 I I 0 1 1.5 forward I I I I #
face $-1 $164 $165 $39 $-1 $166 reversed single #
loop $-1 $-1 $167 $65 #
plane-surface $-1 0 0 -16.107770081288347 0 0 1 1 0 0 forward_v I I I I #
coedge $-1 $168 $169 $170 $171 forward $66 $-1 #
face $-1 $172 $173 $40 $-1 $174 reversed single #
loop $-1 $-1 $175 $68 #
plane-surface $-1 -48.505537243965264 -15.635623846904714 0 0 -1 0 0 0 -1 forward_v I I I I #
coedge $-1 $176 $177 $178 $179 forward $69 $-1 #
face $-1 $180 $181 $41 $-1 $182 reversed single #
loop $-1 $-1 $183 $71 #
plane-surface $-1 -76.771141697439518 -0.79048779377663436 8.8470547538002791 -0.69465837861970381 0 0.71933979245794832 0.71933979245794832 0 0.69465837861970381 forward_v I I I I #
coedge $-1 $184 $185 $186 $187 reversed $72 $-1 #
face $-1 $-1 $188 $42 $-1 $189 forward single #
loop $-1 $190 $191 $74 #
cone-surface $-1 -71.112546898689359 -3.9682116335925564 10.510682059048669 0.69465837861970381 0 -0.71933979245794832 0.35966989622897416 0 0.3473291893098519 1 I I -0.70710678118654746 0.70710678118654746 0.5 forward I I I I #
loop $-1 $-1 $192 $55 #
coedge $-1 $120 $120 $193 $194 reversed $75 $-1 #
face $-1 $-1 $195 $43 $-1 $196 forward single #
loop $-1 $197 $198 $77 #
cone-surface $-1 -71.112546898689359 -0.79048779377663436 10.510682059048669 0.69465837861970381 0 -0.71933979245794832 0.35966989622897416 0 0.3473291893098519 1 I I -0.70710678118654746 0.70710678118654746 0.5 forward I I I I #
loop $-1 $-1 $199 $56 #
coedge $-1 $125 $125 $200 $201 reversed $78 $-1 #
face $-1 $-1 $202 $44 $-1 $203 forward single #
loop $-1 $204 $205 $80 #
cone-surface $-1 -71.112546898689359 2.3872360460392912 10.510682059048669 0.69465837861970381 0 -0.71933979245794832 0.35966989622897416 0 0.3473291893098519 1 I I -0.70710678118654746 0.70710678118654746 0.5 forward I I I I #
loop $-1 $-1 $206 $57 #
coedge $-1 $130 $130 $207 $208 reversed $81 $-1 #
face $-1 $209 $210 $45 $-1 $211 reversed single #
loop $-1 $-1 $212 $83 #
plane-surface $-1 -76.771141697439518 17.514391018443483 8.8470547538002791 -0.69465837861970381 0 0.71933979245794832 0.71933979245794832 0 0.69465837861970381 forward_v I I I I #
coedge $-1 $213 $214 $215 $216 reversed $84 $-1 #
face $-1 $-1 $217 $46 $-1 $218 forward single #
loop $-1 $219 $220 $86 #
cone-surface $-1 -71.112546898689359 14.336667178627565 10.510682059048669 0.69465837861970381 0 -0.71933979245794832 0.35966989622897416 0 0.3473291893098519 1 I I -0.70710678118654746 0.70710678118654746 0.5 forward I I I I #
loop $-1 $-1 $221 $59 #
coedge $-1 $139 $139 $222 $223 reversed $87 $-1 #
face $-1 $-1 $224 $47 $-1 $225 forward single #
loop $-1 $226 $227 $89 #
cone-surface $-1 -71.112546898689359 17.514391018443483 10.510682059048669 0.69465837861970381 0 -0.71933979245794832 0.35966989622897416 0 0.3473291893098519 1 I I -0.70710678118654746 0.70710678118654746 0.5 forward I I I I #
loop $-1 $-1 $228 $60 #
coedge $-1 $144 $144 $229 $230 reversed $90 $-1 #
face $-1 $-1 $231 $48 $-1 $232 forward single #
loop $-1 $233 $234 $92 #
cone-surface $-1 -71.112546898689359 20.692114858259409 10.510682059048669 0.69465837861970381 0 -0.71933979245794832 0.35966989622897416 0 0.3473291893098519 1 I I -0.70710678118654746 0.70710678118654746 0.5 forward I I I I #
loop $-1 $-1 $235 $61 #
coedge $-1 $149 $149 $236 $237 reversed $93 $-1 #
face $-1 $238 $239 $49 $-1 $240 reversed single #
loop $-1 $-1 $241 $95 #
plane-surface $-1 -23.961658191577087 17.769062726770265 118.25760949474768 0.75470958851134928 0 0.65605901945558964 0.65605901945558964 0 -0.75470958851134928 forward_v I I I I #
coedge $-1 $242 $243 $244 $245 reversed $96 $-1 #
face $-1 $-1 $246 $50 $-1 $247 forward single #
loop $-1 $248 $249 $98 #
cone-surface $-1 67.343710525006173 15.328575469872284 6.2352318601995513 -0.75470958851134928 0 -0.65605901945558964 0.49204426459169226 0 -0.56603219138351202 1 I I -0.70710678118654757 0.70710678118654757 0.75 forward I I I I #
loop $-1 $-1 $250 $63 #
coedge $-1 $158 $158 $251 $252 reversed $99 $-1 #
face $-1 $-1 $253 $51 $-1 $254 forward single #
loop $-1 $255 $256 $101 #
cone-surface $-1 67.343710525006173 20.209549983668254 6.2352318601995513 -0.75470958851134928 0 -0.65605901945558964 0.49204426459169226 0 -0.56603219138351202 1 I I -0.70710678118654757 0.70710678118654757 0.75 forward I I I I #
loop $-1 $-1 $257 $64 #
coedge $-1 $163 $163 $258 $259 reversed $102 $-1 #
face $-1 $260 $261 $39 $-1 $262 reversed single #
loop $-1 $-1 $263 $104 #
plane-surface $-1 0 -32.35952707157157 0 0 1 0 0 0 1 forward_v I I I I #
coedge $-1 $264 $265 $266 $267 forward $105 $-1 #
coedge $-1 $268 $107 $269 $270 forward $66 $-1 #
coedge $-1 $107 $268 $271 $272 forward $66 $-1 #
coedge $-1 $273 $274 $107 $171 reversed $275 $-1 #
edge $-1 $276 -32.35952707157157 $277 32.35952707157157 $170 $278 forward 7 unknown #
face $-1 $279 $280 $40 $-1 $281 forward single #
loop $-1 $-1 $282 $108 #
plane-surface $-1 -44.555601534862816 -23.997575459238142 0 -1 0 0 0 0 1 forward_v I I I I #
coedge $-1 $283 $284 $285 $286 forward $109 $-1 #
coedge $-1 $287 $111 $288 $289 reversed $69 $-1 #
coedge $-1 $111 $287 $290 $291 reversed $69 $-1 #
coedge $-1 $284 $283 $111 $179 reversed $109 $-1 #
edge $-1 $292 -16.107770081288347 $293 16.107770081288347 $178 $294 forward 7 unknown #
face $-1 $295 $296 $41 $-1 $297 reversed single #
loop $-1 $-1 $298 $112 #
plane-surface $-1 -183.43057533009323 4.5057186059165701 119.29612902459203 0 -1 0 0.69465837861970381 0 -0.71933979245794832 forward_v I I I I #
coedge $-1 $299 $300 $301 $302 reversed $113 $-1 #
coedge $-1 $185 $115 $303 $304 reversed $72 $-1 #
coedge $-1 $115 $184 $299 $305 reversed $72 $-1 #
coedge $-1 $301 $306 $115 $187 forward $307 $-1 #
edge $-1 $308 14.944145967607113 $309 22.462836618325994 $186 $310 forward 7 unknown #
loop $-1 $-1 $193 $116 #
plane-surface $-1 -76.771141697439518 -0.79048779377663436 8.8470547538002791 -0.69465837861970381 0 0.71933979245794832 0.71933979245794832 0 0.69465837861970381 forward_v I I I I #
loop $-1 $-1 $311 $74 #
coedge $-1 $191 $191 $192 $312 reversed $117 $-1 #
coedge $-1 $192 $192 $191 $312 forward $119 $-1 #
coedge $-1 $193 $193 $120 $194 forward $188 $-1 #
edge $-1 $313 0 $313 6.2831853071796004 $193 $314 forward 7 unknown #
loop $-1 $-1 $200 $121 #
plane-surface $-1 -76.771141697439518 -0.79048779377663436 8.8470547538002791 -0.69465837861970381 0 0.71933979245794832 0.71933979245794832 0 0.69465837861970381 forward_v I I I I #
loop $-1 $-1 $315 $77 #
coedge $-1 $198 $198 $199 $316 reversed $122 $-1 #
coedge $-1 $199 $199 $198 $316 forward $124 $-1 #
coedge $-1 $200 $200 $125 $201 forward $195 $-1 #
edge $-1 $317 0 $317 6.2831853071796004 $200 $318 forward 7 unknown #
loop $-1 $-1 $207 $126 #
plane-surface $-1 -76.771141697439518 -0.79048779377663436 8.8470547538002791 -0.69465837861970381 0 0.71933979245794832 0.71933979245794832 0 0.69465837861970381 forward_v I I I I #
loop $-1 $-1 $319 $80 #
coedge $-1 $205 $205 $206 $320 reversed $127 $-1 #
coedge $-1 $206 $206 $205 $320 forward $129 $-1 #
coedge $-1 $207 $207 $130 $208 forward $202 $-1 #
edge $-1 $321 0 $321 6.2831853071796004 $207 $322 forward 7 unknown #
face $-1 $323 $324 $45 $-1 $325 forward single #
loop $-1 $-1 $326 $131 #
plane-surface $-1 -183.43057533009323 22.810597418136688 119.29612902459203 0 -1 0 0.69465837861970381 0 -0.71933979245794832 forward_v I I I I #
coedge $-1 $327 $328 $329 $330 reversed $132 $-1 #
coedge $-1 $214 $134 $331 $332 reversed $84 $-1 #
coedge $-1 $134 $213 $327 $333 reversed $84 $-1 #
coedge $-1 $329 $334 $134 $216 forward $324 $-1 #
edge $-1 $335 14.944145967607113 $336 22.462836618325994 $215 $337 forward 7 unknown #
loop $-1 $-1 $222 $135 #
plane-surface $-1 -76.771141697439518 17.514391018443483 8.8470547538002791 -0.69465837861970381 0 0.71933979245794832 0.71933979245794832 0 0.69465837861970381 forward_v I I I I #
loop $-1 $-1 $338 $86 #
coedge $-1 $220 $220 $221 $339 reversed $136 $-1 #
coedge $-1 $221 $221 $220 $339 forward $138 $-1 #
coedge $-1 $222 $222 $139 $223 forward $217 $-1 #
edge $-1 $340 0 $340 6.2831853071796004 $222 $341 forward 7 unknown #
loop $-1 $-1 $229 $140 #
plane-surface $-1 -76.771141697439518 17.514391018443483 8.8470547538002791 -0.69465837861970381 0 0.71933979245794832 0.71933979245794832 0 0.69465837861970381 forward_v I I I I #
loop $-1 $-1 $342 $89 #
coedge $-1 $227 $227 $228 $343 reversed $141 $-1 #
coedge $-1 $228 $228 $227 $343 forward $143 $-1 #
coedge $-1 $229 $229 $144 $230 forward $224 $-1 #
edge $-1 $344 0 $344 6.2831853071796004 $229 $345 forward 7 unknown #
loop $-1 $-1 $236 $145 #
plane-surface $-1 -76.771141697439518 17.514391018443483 8.8470547538002791 -0.69465837861970381 0 0.71933979245794832 0.71933979245794832 0 0.69465837861970381 forward_v I I I I #
loop $-1 $-1 $346 $92 #
coedge $-1 $234 $234 $235 $347 reversed $146 $-1 #
coedge $-1 $235 $235 $234 $347 forward $148 $-1 #
coedge $-1 $236 $236 $149 $237 forward $231 $-1 #
edge $-1 $348 0 $348 6.2831853071796004 $236 $349 forward 7 unknown #
face $-1 $350 $351 $49 $-1 $352 forward single #
loop $-1 $-1 $353 $150 #
plane-surface $-1 91.918175328465026 12.074592460674971 218.99040938376427 0 1 0 0.75470958851134928 0 0.65605901945558964 forward_v I I I I #
coedge $-1 $354 $355 $356 $357 reversed $151 $-1 #
coedge $-1 $243 $153 $358 $359 reversed $96 $-1 #
coedge $-1 $153 $242 $354 $360 reversed $96 $-1 #
coedge $-1 $356 $361 $153 $245 forward $351 $-1 #
edge $-1 $362 -30.812054033206991 $363 -18.876752550601978 $244 $364 forward 7 unknown #
loop $-1 $-1 $251 $154 #
plane-surface $-1 -23.961658191577087 17.769062726770265 118.25760949474768 0.75470958851134928 0 0.65605901945558964 0.65605901945558964 0 -0.75470958851134928 forward_v I I I I #
loop $-1 $-1 $365 $98 #
coedge $-1 $249 $249 $250 $366 reversed $155 $-1 #
coedge $-1 $250 $250 $249 $366 forward $157 $-1 #
coedge $-1 $251 $251 $158 $252 forward $246 $-1 #
edge $-1 $367 0 $367 6.2831853071796004 $251 $368 forward 7 unknown #
loop $-1 $-1 $258 $159 #
plane-surface $-1 -23.961658191577087 17.769062726770265 118.25760949474768 0.75470958851134928 0 0.65605901945558964 0.65605901945558964 0 -0.75470958851134928 forward_v I I I I #
loop $-1 $-1 $369 $101 #
coedge $-1 $256 $256 $257 $370 reversed $160 $-1 #
coedge $-1 $257 $257 $256 $370 forward $162 $-1 #
coedge $-1 $258 $258 $163 $259 forward $253 $-1 #
edge $-1 $371 0 $371 6.2831853071796004 $258 $372 forward 7 unknown #
face $-1 $373 $374 $39 $-1 $375 reversed single #
loop $-1 $-1 $376 $164 #
plane-surface $-1 -76.771141697439504 0 0 1 0 0 0 0 -1 forward_v I I I I #
coedge $-1 $377 $271 $378 $379 forward $165 $-1 #
coedge $-1 $380 $167 $377 $381 forward $105 $-1 #
coedge $-1 $167 $380 $382 $383 forward $105 $-1 #
coedge $-1 $274 $273 $167 $267 reversed $275 $-1 #
edge $-1 $384 -32.35952707157157 $385 32.35952707157157 $266 $386 forward 7 unknown #
coedge $-1 $169 $168 $387 $388 forward $66 $-1 #
coedge $-1 $389 $390 $168 $270 reversed $374 $-1 #
edge $-1 $277 -76.771141697439504 $391 76.771141697439504 $269 $392 forward 7 unknown #
coedge $-1 $263 $393 $169 $272 reversed $165 $-1 #
edge $-1 $394 -76.771141697439504 $276 76.771141697439504 $271 $395 forward 7 unknown #
coedge $-1 $266 $170 $393 $396 forward $275 $-1 #
coedge $-1 $170 $266 $389 $397 reversed $275 $-1 #
loop $-1 $-1 $273 $373 #
vertex $-1 $171 $398 #
vertex $-1 $171 $399 #
straight-curve $-1 76.771141697439504 0 16.107770081288347 0 1 0 I I #
face $-1 $400 $401 $40 $-1 $402 reversed single #
loop $-1 $-1 $403 $172 #
plane-surface $-1 0 0 16.107770081288347 0 0 1 1 0 0 forward_v I I I I #
coedge $-1 $404 $405 $406 $407 reversed $173 $-1 #
coedge $-1 $178 $175 $408 $409 reversed $109 $-1 #
coedge $-1 $175 $178 $410 $411 reversed $109 $-1 #
coedge $-1 $405 $404 $175 $286 reversed $173 $-1 #
edge $-1 $412 -16.107770081288347 $413 16.107770081288347 $285 $414 forward 7 unknown #
coedge $-1 $177 $176 $415 $416 reversed $69 $-1 #
coedge $-1 $408 $417 $176 $289 forward $401 $-1 #
edge $-1 $418 -20.360739341952499 $293 -3.6368361172856432 $288 $419 forward 7 unknown #
coedge $-1 $420 $410 $177 $291 forward $280 $-1 #
edge $-1 $292 3.6368361172856432 $421 20.360739341952499 $290 $422 forward 7 unknown #
vertex $-1 $291 $423 #
vertex $-1 $289 $424 #
straight-curve $-1 -52.455472953067712 -15.635623846904714 0 0 0 -1 I I #
face $-1 $-1 $307 $41 $-1 $425 forward single #
loop $-1 $-1 $426 $180 #
plane-surface $-1 -76.771141697439504 0 0 1 0 0 0 0 -1 forward_v I I I I #
coedge $-1 $427 $428 $429 $430 reversed $181 $-1 #
coedge $-1 $431 $183 $185 $305 forward $113 $-1 #
coedge $-1 $183 $431 $427 $432 forward $113 $-1 #
coedge $-1 $429 $186 $183 $302 forward $307 $-1 #
edge $-1 $309 -5.6914502965815217 $433 4.9009625028048873 $301 $434 forward 7 unknown #
coedge $-1 $435 $436 $184 $304 forward $296 $-1 #
edge $-1 $437 -50.801009758495724 $308 -43.540294431007666 $303 $438 forward 7 unknown #
edge $-1 $309 -10.45221010925574 $437 -2.0094122576745862e-014 $185 $439 forward 7 unknown #
coedge $-1 $186 $429 $435 $440 forward $307 $-1 #
loop $-1 $-1 $429 $295 #
vertex $-1 $304 $441 #
vertex $-1 $187 $442 #
straight-curve $-1 -91.715287665046617 -6.0866941934698389 16.107770081288351 1 0 0 I I #
coedge $-1 $311 $311 $-1 $443 reversed $190 $-1 #
edge $-1 $444 0 $444 6.2831853071796004 $191 $445 forward 7 unknown #
vertex $-1 $194 $446 #
ellipse-curve $-1 -73.011796372080056 -3.9682116335925564 12.477412417544322 -0.69465837861970381 0 0.71933979245794832 0.71933979245794832 0 0.69465837861970381 1 I I #
coedge $-1 $315 $315 $-1 $447 reversed $197 $-1 #
edge $-1 $448 0 $448 6.2831853071796004 $198 $449 forward 7 unknown #
vertex $-1 $201 $450 #
ellipse-curve $-1 -73.011796372080056 -0.79048779377663436 12.477412417544322 -0.69465837861970381 0 0.71933979245794832 0.71933979245794832 0 0.69465837861970381 1 I I #
coedge $-1 $319 $319 $-1 $451 reversed $204 $-1 #
edge $-1 $452 0 $452 6.2831853071796004 $205 $453 forward 7 unknown #
vertex $-1 $208 $454 #
ellipse-curve $-1 -73.011796372080056 2.3872360460392912 12.477412417544322 -0.69465837861970381 0 0.71933979245794832 0.71933979245794832 0 0.69465837861970381 1 I I #
face $-1 $-1 $455 $45 $-1 $456 reversed single #
loop $-1 $-1 $215 $209 #
plane-surface $-1 0 0 16.107770081288347 0 0 1 1 0 0 forward_v I I I I #
coedge $-1 $457 $458 $459 $460 reversed $210 $-1 #
coedge $-1 $461 $212 $214 $333 forward $132 $-1 #
coedge $-1 $212 $461 $457 $462 forward $132 $-1 #
coedge $-1 $459 $215 $212 $330 forward $324 $-1 #
edge $-1 $336 3.460989109528537 $463 14.053401908914946 $329 $464 forward 7 unknown #
coedge $-1 $465 $466 $213 $332 forward $455 $-1 #
edge $-1 $467 -50.801009758495724 $335 -43.540294431007666 $331 $468 forward 7 unknown #
edge $-1 $336 -10.45221010925574 $467 -2.0094122576745862e-014 $214 $469 forward 7 unknown #
coedge $-1 $215 $459 $465 $470 forward $324 $-1 #
vertex $-1 $332 $471 #
vertex $-1 $216 $472 #
straight-curve $-1 -91.715287665046617 12.218184618750279 16.107770081288351 1 0 0 I I #
coedge $-1 $338 $338 $-1 $473 reversed $219 $-1 #
edge $-1 $474 0 $474 6.2831853071796004 $220 $475 forward 7 unknown #
vertex $-1 $223 $476 #
ellipse-curve $-1 -73.011796372080056 14.336667178627565 12.477412417544322 -0.69465837861970381 0 0.71933979245794832 0.71933979245794832 0 0.69465837861970381 1 I I #
coedge $-1 $342 $342 $-1 $477 reversed $226 $-1 #
edge $-1 $478 0 $478 6.2831853071796004 $227 $479 forward 7 unknown #
vertex $-1 $230 $480 #
ellipse-curve $-1 -73.011796372080056 17.514391018443483 12.477412417544322 -0.69465837861970381 0 0.71933979245794832 0.71933979245794832 0 0.69465837861970381 1 I I #
coedge $-1 $346 $346 $-1 $481 reversed $233 $-1 #
edge $-1 $482 0 $482 6.2831853071796004 $234 $483 forward 7 unknown #
vertex $-1 $237 $484 #
ellipse-curve $-1 -73.011796372080056 20.692114858259409 12.477412417544322 -0.69465837861970381 0 0.71933979245794832 0.71933979245794832 0 0.69465837861970381 1 I I #
face $-1 $-1 $485 $49 $-1 $486 reversed single #
loop $-1 $-1 $244 $238 #
plane-surface $-1 0 0 16.107770081288347 0 0 1 1 0 0 forward_v I I I I #
coedge $-1 $487 $488 $489 $490 reversed $239 $-1 #
coedge $-1 $491 $241 $243 $360 forward $151 $-1 #
coedge $-1 $241 $491 $487 $492 forward $151 $-1 #
coedge $-1 $489 $244 $241 $357 forward $351 $-1 #
edge $-1 $363 -14.579001629480427 $493 -3.1900610972898384 $356 $494 forward 7 unknown #
coedge $-1 $495 $496 $242 $359 forward $485 $-1 #
edge $-1 $497 -107.11742871717657 $362 -93.387434610593786 $358 $498 forward 7 unknown #
edge $-1 $363 135.34986300485201 $497 153.54228339487904 $243 $499 forward 7 unknown #
coedge $-1 $244 $489 $495 $500 forward $351 $-1 #
vertex $-1 $359 $501 #
vertex $-1 $245 $502 #
straight-curve $-1 45.959087664232513 23.463532992865559 16.107770081288351 -1 0 0 I I #
coedge $-1 $365 $365 $-1 $503 reversed $248 $-1 #
edge $-1 $504 0 $504 6.2831853071796004 $249 $505 forward 7 unknown #
vertex $-1 $252 $506 #
ellipse-curve $-1 70.803490956136983 15.328575469872284 9.2427730279969502 0.75470958851134928 0 0.65605901945558964 0.98408852918338452 0 -1.132064382767024 1 I I #
coedge $-1 $369 $369 $-1 $507 reversed $255 $-1 #
edge $-1 $508 0 $508 6.2831853071796004 $256 $509 forward 7 unknown #
vertex $-1 $259 $510 #
ellipse-curve $-1 70.803490956136983 20.209549983668254 9.2427730279969502 0.75470958851134928 0 0.65605901945558964 0.98408852918338452 0 -1.132064382767024 1 I I #
face $-1 $-1 $275 $39 $-1 $511 reversed single #
loop $-1 $-1 $389 $260 #
plane-surface $-1 0 32.35952707157157 0 0 -1 0 0 0 -1 forward_v I I I I #
coedge $-1 $512 $387 $390 $513 forward $261 $-1 #
coedge $-1 $393 $263 $264 $381 reversed $165 $-1 #
coedge $-1 $387 $512 $263 $379 reversed $261 $-1 #
edge $-1 $394 -16.107770081288347 $514 16.107770081288347 $378 $515 forward 7 unknown #
coedge $-1 $265 $264 $512 $516 forward $105 $-1 #
edge $-1 $385 -76.771141697439504 $514 76.771141697439504 $377 $517 forward 7 unknown #
coedge $-1 $390 $389 $265 $383 reversed $374 $-1 #
edge $-1 $518 -76.771141697439504 $384 76.771141697439504 $382 $519 forward 7 unknown #
vertex $-1 $267 $520 #
vertex $-1 $396 $521 #
straight-curve $-1 76.771141697439504 0 -16.107770081288347 0 -1 0 I I #
coedge $-1 $376 $378 $268 $388 reversed $261 $-1 #
edge $-1 $391 -32.35952707157157 $394 32.35952707157157 $387 $522 forward 7 unknown #
coedge $-1 $382 $269 $274 $397 forward $374 $-1 #
coedge $-1 $269 $382 $376 $513 reversed $374 $-1 #
vertex $-1 $270 $523 #
straight-curve $-1 0 32.35952707157157 16.107770081288347 -1 0 0 I I #
coedge $-1 $271 $377 $273 $396 reversed $165 $-1 #
vertex $-1 $388 $524 #
straight-curve $-1 0 -32.35952707157157 16.107770081288347 1 0 0 I I #
edge $-1 $276 -16.107770081288347 $385 16.107770081288347 $273 $525 forward 7 unknown #
edge $-1 $277 -16.107770081288347 $384 16.107770081288347 $274 $526 forward 7 unknown #
point $-1 76.771141697439504 -32.35952707157157 16.107770081288347 #
point $-1 76.771141697439504 32.35952707157157 16.107770081288347 #
face $-1 $-1 $527 $40 $-1 $528 reversed single #
loop $-1 $-1 $529 $279 #
plane-surface $-1 0 0 -16.107770081288347 0 0 1 1 0 0 forward_v I I I I #
coedge $-1 $410 $420 $405 $530 forward $280 $-1 #
coedge $-1 $285 $282 $529 $531 reversed $173 $-1 #
coedge $-1 $282 $285 $403 $530 reversed $173 $-1 #
coedge $-1 $532 $533 $282 $407 forward $527 $-1 #
edge $-1 $534 -16.107770081288347 $535 16.107770081288347 $406 $536 forward 7 unknown #
coedge $-1 $529 $288 $283 $409 forward $401 $-1 #
edge $-1 $293 -28.20270433108508 $413 -20.302832912880184 $408 $537 forward 7 unknown #
coedge $-1 $290 $403 $284 $411 forward $280 $-1 #
edge $-1 $412 20.302832912880184 $292 28.20270433108508 $410 $538 forward 7 unknown #
vertex $-1 $411 $539 #
vertex $-1 $409 $540 #
straight-curve $-1 -44.555601534862816 -15.635623846904714 0 0 0 -1 I I #
coedge $-1 $533 $532 $287 $416 forward $527 $-1 #
edge $-1 $421 -16.107770081288347 $418 16.107770081288347 $415 $541 forward 7 unknown #
coedge $-1 $288 $529 $533 $542 forward $401 $-1 #
vertex $-1 $289 $543 #
straight-curve $-1 -52.455472953067712 -11.998787729619071 -16.107770081288347 0 1 0 I I #
coedge $-1 $403 $290 $532 $544 forward $280 $-1 #
vertex $-1 $544 $545 #
straight-curve $-1 -52.455472953067712 -11.998787729619071 16.107770081288347 0 -1 0 I I #
point $-1 -52.455472953067712 -15.635623846904714 16.107770081288347 #
point $-1 -52.455472953067712 -15.635623846904714 -16.107770081288347 #
plane-surface $-1 0 0 16.107770081288347 0 0 1 1 0 0 forward_v I I I I #
coedge $-1 $436 $435 $428 $546 forward $296 $-1 #
coedge $-1 $428 $298 $300 $432 reversed $181 $-1 #
coedge $-1 $298 $427 $426 $546 reversed $181 $-1 #
coedge $-1 $306 $301 $298 $430 forward $307 $-1 #
edge $-1 $433 -22.462836618325994 $547 -14.944145967607113 $429 $548 forward 7 unknown #
coedge $-1 $300 $299 $436 $549 reversed $113 $-1 #
edge $-1 $550 2.0094122576745862e-014 $433 10.45221010925574 $427 $551 forward 7 unknown #
vertex $-1 $302 $552 #
straight-curve $-1 -69.252451046720623 -0.39524389688831718 16.107770081288347 0 1 0 I I #
coedge $-1 $426 $303 $306 $440 reversed $296 $-1 #
coedge $-1 $303 $426 $431 $549 forward $296 $-1 #
vertex $-1 $304 $553 #
straight-curve $-1 -76.771141697439504 -6.0866941934698389 59.648064512296017 0 0 1 I I #
straight-curve $-1 -76.771141697439518 -6.0866941934698389 8.8470547538002791 -0.71933979245794832 0 -0.69465837861970381 I I #
edge $-1 $547 -4.5057186059165701 $308 6.0866941934698389 $435 $554 forward 7 unknown #
point $-1 -76.771141697439504 -6.0866941934698389 16.107770081288347 #
point $-1 -69.252451046720623 -6.0866941934698389 16.107770081288347 #
edge $-1 $555 1 $555 0 $311 $-1 forward 7 unknown #
vertex $-1 $312 $556 #
ellipse-curve $-1 -71.459876087999206 -3.9682116335925564 10.870351955277643 -0.69465837861970381 0 0.71933979245794832 0.71933979245794832 0 0.69465837861970381 1 I I #
point $-1 -72.292456579622097 -3.9682116335925564 13.172070796164007 #
edge $-1 $557 1 $557 0 $315 $-1 forward 7 unknown #
vertex $-1 $316 $558 #
ellipse-curve $-1 -71.459876087999206 -0.79048779377663436 10.870351955277643 -0.69465837861970381 0 0.71933979245794832 0.71933979245794832 0 0.69465837861970381 1 I I #
point $-1 -72.292456579622097 -0.79048779377663436 13.172070796164007 #
edge $-1 $559 1 $559 0 $319 $-1 forward 7 unknown #
vertex $-1 $320 $560 #
ellipse-curve $-1 -71.459876087999206 2.3872360460392912 10.870351955277643 -0.69465837861970381 0 0.71933979245794832 0.71933979245794832 0 0.69465837861970381 1 I I #
point $-1 -72.292456579622097 2.3872360460392912 13.172070796164007 #
loop $-1 $-1 $331 $323 #
plane-surface $-1 -76.771141697439504 0 0 1 0 0 0 0 -1 forward_v I I I I #
coedge $-1 $458 $326 $328 $462 reversed $210 $-1 #
coedge $-1 $326 $457 $561 $562 reversed $210 $-1 #
coedge $-1 $334 $329 $326 $460 forward $324 $-1 #
edge $-1 $463 -22.462836618325994 $563 -14.944145967607113 $459 $564 forward 7 unknown #
coedge $-1 $328 $327 $466 $565 reversed $132 $-1 #
edge $-1 $566 2.0094122576745862e-014 $463 10.45221010925574 $457 $567 forward 7 unknown #
vertex $-1 $330 $568 #
straight-curve $-1 -69.252451046720623 8.7571955092217415 16.107770081288347 0 1 0 I I #
coedge $-1 $561 $331 $334 $470 reversed $455 $-1 #
coedge $-1 $331 $561 $461 $565 forward $455 $-1 #
vertex $-1 $332 $569 #
straight-curve $-1 -76.771141697439504 12.218184618750279 59.648064512296017 0 0 1 I I #
straight-curve $-1 -76.771141697439518 12.218184618750279 8.8470547538002791 -0.71933979245794832 0 -0.69465837861970381 I I #
edge $-1 $563 -22.810597418136688 $335 -12.218184618750279 $465 $570 forward 7 unknown #
point $-1 -76.771141697439504 12.218184618750279 16.107770081288347 #
point $-1 -69.252451046720623 12.218184618750279 16.107770081288347 #
edge $-1 $571 1 $571 0 $338 $-1 forward 7 unknown #
vertex $-1 $339 $572 #
ellipse-curve $-1 -71.459876087999206 14.336667178627565 10.870351955277643 -0.69465837861970381 0 0.71933979245794832 0.71933979245794832 0 0.69465837861970381 1 I I #
point $-1 -72.292456579622097 14.336667178627565 13.172070796164007 #
edge $-1 $573 1 $573 0 $342 $-1 forward 7 unknown #
vertex $-1 $343 $574 #
ellipse-curve $-1 -71.459876087999206 17.514391018443483 10.870351955277643 -0.69465837861970381 0 0.71933979245794832 0.71933979245794832 0 0.69465837861970381 1 I I #
point $-1 -72.292456579622097 17.514391018443483 13.172070796164007 #
edge $-1 $575 1 $575 0 $346 $-1 forward 7 unknown #
vertex $-1 $347 $576 #
ellipse-curve $-1 -71.459876087999206 20.692114858259409 10.870351955277643 -0.69465837861970381 0 0.71933979245794832 0.71933979245794832 0 0.69465837861970381 1 I I #
point $-1 -72.292456579622097 20.692114858259409 13.172070796164007 #
loop $-1 $-1 $358 $350 #
plane-surface $-1 76.771141697439504 0 0 -1 0 0 0 0 1 forward_v I I I I #
coedge $-1 $488 $353 $355 $492 reversed $239 $-1 #
coedge $-1 $353 $487 $577 $578 reversed $239 $-1 #
coedge $-1 $361 $356 $353 $490 forward $351 $-1 #
edge $-1 $493 18.876752550601978 $579 30.812054033206991 $489 $580 forward 7 unknown #
coedge $-1 $355 $354 $496 $581 reversed $151 $-1 #
edge $-1 $582 -153.54228339487904 $493 -135.34986300485201 $487 $583 forward 7 unknown #
vertex $-1 $357 $584 #
straight-curve $-1 64.835840214834477 8.8845313633851326 16.107770081288336 0 -1 0 I I #
coedge $-1 $577 $358 $361 $500 reversed $485 $-1 #
coedge $-1 $358 $577 $491 $581 forward $485 $-1 #
vertex $-1 $359 $585 #
straight-curve $-1 76.771141697439504 23.463532992865559 109.49520469188214 0 0 1 I I #
straight-curve $-1 -23.961658191577087 23.463532992865559 118.25760949474768 0.65605901945558964 0 -0.75470958851134928 I I #
edge $-1 $579 12.074592460674971 $362 23.463532992865559 $495 $586 forward 7 unknown #
point $-1 76.771141697439504 23.463532992865559 16.107770081288347 #
point $-1 64.835840214834491 23.463532992865559 16.107770081288351 #
edge $-1 $587 1 $587 0 $365 $-1 forward 7 unknown #
vertex $-1 $366 $588 #
ellipse-curve $-1 67.909742716389687 15.328575469872284 6.7272761247912438 0.75470958851134928 0 0.65605901945558964 0.98408852918338452 0 -1.132064382767024 1 I I #
point $-1 71.787579485320393 15.328575469872284 8.1107086452299448 #
edge $-1 $589 1 $589 0 $369 $-1 forward 7 unknown #
vertex $-1 $370 $590 #
ellipse-curve $-1 67.909742716389687 20.209549983668254 6.7272761247912438 0.75470958851134928 0 0.65605901945558964 0.98408852918338452 0 -1.132064382767024 1 I I #
point $-1 71.787579485320393 20.209549983668254 8.1107086452299448 #
plane-surface $-1 76.771141697439504 0 0 -1 0 0 0 0 1 forward_v I I I I #
coedge $-1 $378 $376 $380 $516 reversed $261 $-1 #
edge $-1 $391 -16.107770081288347 $518 16.107770081288347 $390 $591 forward 7 unknown #
vertex $-1 $516 $592 #
straight-curve $-1 -76.771141697439504 -32.35952707157157 0 0 0 -1 I I #
edge $-1 $514 -32.35952707157157 $518 32.35952707157157 $512 $593 forward 7 unknown #
straight-curve $-1 0 -32.35952707157157 -16.107770081288347 -1 0 0 I I #
vertex $-1 $383 $594 #
straight-curve $-1 0 32.35952707157157 -16.107770081288347 1 0 0 I I #
point $-1 76.771141697439504 32.35952707157157 -16.107770081288347 #
point $-1 76.771141697439504 -32.35952707157157 -16.107770081288347 #
straight-curve $-1 -76.771141697439504 0 16.107770081288347 0 -1 0 I I #
point $-1 -76.771141697439504 32.35952707157157 16.107770081288347 #
point $-1 -76.771141697439504 -32.35952707157157 16.107770081288347 #
straight-curve $-1 76.771141697439504 -32.35952707157157 0 0 0 -1 I I #
straight-curve $-1 76.771141697439504 32.35952707157157 0 0 0 -1 I I #
loop $-1 $-1 $406 $400 #
plane-surface $-1 0 -32.35952707157157 0 0 1 0 0 0 1 forward_v I I I I #
coedge $-1 $417 $408 $404 $531 forward $401 $-1 #
edge $-1 $535 -20.360739341952499 $412 -3.6368361172856432 $403 $595 forward 7 unknown #
edge $-1 $413 3.6368361172856432 $534 20.360739341952499 $529 $596 forward 7 unknown #
coedge $-1 $415 $406 $420 $544 reversed $527 $-1 #
coedge $-1 $406 $415 $417 $542 reversed $527 $-1 #
vertex $-1 $542 $597 #
vertex $-1 $407 $598 #
straight-curve $-1 -44.555601534862816 -32.35952707157157 0 0 0 1 I I #
straight-curve $-1 -24.252768621982632 -15.635623846904714 -16.107770081288347 1 0 0 I I #
straight-curve $-1 -24.252768621982632 -15.635623846904714 16.107770081288347 -1 0 0 I I #
point $-1 -44.555601534862816 -15.635623846904714 16.107770081288347 #
point $-1 -44.555601534862816 -15.635623846904714 -16.107770081288347 #
straight-curve $-1 -52.455472953067712 -32.35952707157157 0 0 0 -1 I I #
edge $-1 $534 44.555601534862816 $418 52.455472953067712 $533 $599 forward 7 unknown #
point $-1 -52.455472953067712 -32.35952707157157 -16.107770081288347 #
edge $-1 $421 -52.455472953067712 $535 -44.555601534862816 $532 $600 forward 7 unknown #
point $-1 -52.455472953067712 -32.35952707157157 16.107770081288347 #
edge $-1 $547 43.540294431007666 $550 50.801009758495724 $426 $601 forward 7 unknown #
vertex $-1 $440 $602 #
straight-curve $-1 -91.715287665046617 4.5057186059165701 16.107770081288351 -1 0 0 I I #
edge $-1 $550 -4.9009625028048873 $437 5.6914502965815217 $436 $603 forward 7 unknown #
vertex $-1 $549 $604 #
straight-curve $-1 -76.771141697439518 4.5057186059165701 8.8470547538002791 0.71933979245794832 0 0.69465837861970381 I I #
point $-1 -69.252451046720623 4.5057186059165701 16.107770081288347 #
point $-1 -76.771141697439504 -6.0866941934698389 8.8470547538002933 #
straight-curve $-1 -76.771141697439504 0 16.107770081288347 0 -1 0 I I #
vertex $-1 $443 $605 #
point $-1 -70.740536295541261 -3.9682116335925564 11.565010333897348 #
vertex $-1 $447 $606 #
point $-1 -70.740536295541261 -0.79048779377663436 11.565010333897348 #
vertex $-1 $451 $607 #
point $-1 -70.740536295541261 2.3872360460392912 11.565010333897348 #
coedge $-1 $466 $465 $458 $562 forward $455 $-1 #
edge $-1 $563 43.540294431007666 $566 50.801009758495724 $561 $608 forward 7 unknown #
vertex $-1 $470 $609 #
straight-curve $-1 -91.715287665046617 22.810597418136688 16.107770081288351 -1 0 0 I I #
edge $-1 $566 -14.053401908914946 $467 -3.460989109528537 $466 $610 forward 7 unknown #
vertex $-1 $565 $611 #
straight-curve $-1 -76.771141697439518 22.810597418136688 8.8470547538002791 0.71933979245794832 0 0.69465837861970381 I I #
point $-1 -69.252451046720623 22.810597418136688 16.107770081288347 #
point $-1 -76.771141697439504 12.218184618750279 8.8470547538002933 #
straight-curve $-1 -76.771141697439504 0 16.107770081288347 0 -1 0 I I #
vertex $-1 $473 $612 #
point $-1 -70.740536295541261 14.336667178627565 11.565010333897348 #
vertex $-1 $477 $613 #
point $-1 -70.740536295541261 17.514391018443483 11.565010333897348 #
vertex $-1 $481 $614 #
point $-1 -70.740536295541261 20.692114858259409 11.565010333897348 #
coedge $-1 $496 $495 $488 $578 forward $485 $-1 #
edge $-1 $579 93.387434610593786 $582 107.11742871717657 $577 $615 forward 7 unknown #
vertex $-1 $500 $616 #
straight-curve $-1 45.959087664232513 12.074592460674971 16.107770081288351 1 0 0 I I #
edge $-1 $582 3.1900610972898384 $497 14.579001629480427 $496 $617 forward 7 unknown #
vertex $-1 $581 $618 #
straight-curve $-1 -23.961658191577087 12.074592460674971 118.25760949474768 -0.65605901945558964 0 0.75470958851134928 I I #
point $-1 64.835840214834491 12.074592460674971 16.107770081288351 #
point $-1 76.771141697439504 23.463532992865559 2.3777759747055711 #
straight-curve $-1 76.771141697439504 0 16.107770081288347 0 1 0 I I #
vertex $-1 $503 $619 #
point $-1 68.893831245573068 15.328575469872284 5.5952117420242198 #
vertex $-1 $507 $620 #
point $-1 68.893831245573068 20.209549983668254 5.5952117420242198 #
straight-curve $-1 -76.771141697439504 32.35952707157157 0 0 0 -1 I I #
point $-1 -76.771141697439504 -32.35952707157157 -16.107770081288347 #
straight-curve $-1 -76.771141697439504 0 -16.107770081288347 0 1 0 I I #
point $-1 -76.771141697439504 32.35952707157157 -16.107770081288347 #
straight-curve $-1 -44.555601534862816 -11.998787729619071 16.107770081288347 0 1 0 I I #
straight-curve $-1 -44.555601534862816 -11.998787729619071 -16.107770081288347 0 -1 0 I I #
point $-1 -44.555601534862816 -32.35952707157157 -16.107770081288347 #
point $-1 -44.555601534862816 -32.35952707157157 16.107770081288347 #
straight-curve $-1 0 -32.35952707157157 -16.107770081288347 -1 0 0 I I #
straight-curve $-1 0 -32.35952707157157 16.107770081288347 1 0 0 I I #
straight-curve $-1 -76.771141697439504 4.5057186059165701 59.648064512296017 0 0 -1 I I #
point $-1 -76.771141697439504 4.5057186059165701 16.107770081288347 #
straight-curve $-1 -76.771141697439504 -0.39524389688831718 8.8470547538002879 0 -1 0 I I #
point $-1 -76.771141697439504 4.5057186059165701 8.8470547538002933 #
point $-1 -70.765217709379513 -3.9682116335925564 10.151012162819695 #
point $-1 -70.765217709379513 -0.79048779377663436 10.151012162819695 #
point $-1 -70.765217709379513 2.3872360460392912 10.151012162819695 #
straight-curve $-1 -76.771141697439504 22.810597418136688 59.648064512296017 0 0 -1 I I #
point $-1 -76.771141697439504 22.810597418136688 16.107770081288347 #
straight-curve $-1 -76.771141697439504 8.7571955092217415 8.8470547538002879 0 -1 0 I I #
point $-1 -76.771141697439504 22.810597418136688 8.8470547538002933 #
point $-1 -70.765217709379513 14.336667178627565 10.151012162819695 #
point $-1 -70.765217709379513 17.514391018443483 10.151012162819695 #
point $-1 -70.765217709379513 20.692114858259409 10.151012162819695 #
straight-curve $-1 76.771141697439504 12.074592460674971 109.49520469188214 0 0 -1 I I #
point $-1 76.771141697439504 12.074592460674971 16.107770081288347 #
straight-curve $-1 76.771141697439504 8.8845313633851326 2.377775974705564 0 1 0 I I #
point $-1 76.771141697439504 12.074592460674971 2.3777759747055711 #
point $-1 66.77767833362266 15.328575469872284 5.7431875956078589 #
point $-1 66.77767833362266 20.209549983668254 5.7431875956078589 #
End-of-ACIS-data 