500 0 5 0           
7 Unknown 11 ACIS 5.0 NT 24 Fri Mar 26 20:42:32 1999 
-1 9.9999999999999995e-007 1e-010 
body $-1 $5 $-1 $6 #
body $-1 $7 $-1 $8 #
body $-1 $9 $-1 $10 #
body $-1 $11 $-1 $12 #
body $-1 $13 $-1 $14 #
lump $-1 $-1 $15 $0 #
transform $-1 1 0 0 0 1 0 0 0 1 75.025482955412457 32.401291294605464 15.013742057077355 1 rotate no_reflect no_shear #
lump $-1 $-1 $16 $1 #
transform $-1 1 0 0 0 1 0 0 0 1 75.025482955412457 32.401291294605464 15.013742057077355 1 rotate no_reflect no_shear #
lump $-1 $-1 $17 $2 #
transform $-1 1 0 0 0 1 0 0 0 1 75.025482955412457 32.401291294605464 15.013742057077355 1 rotate no_reflect no_shear #
lump $-1 $-1 $18 $3 #
transform $-1 1 0 0 0 1 0 0 0 1 75.025482955412457 32.401291294605464 15.013742057077355 1 rotate no_reflect no_shear #
lump $-1 $-1 $19 $4 #
transform $-1 1 0 0 0 1 0 0 0 1 75.025482955412457 32.401291294605464 15.013742057077355 1 rotate no_reflect no_shear #
shell $-1 $-1 $-1 $20 $-1 $5 #
shell $-1 $-1 $-1 $21 $-1 $7 #
shell $-1 $-1 $-1 $22 $-1 $9 #
shell $-1 $-1 $-1 $23 $-1 $11 #
shell $-1 $-1 $-1 $24 $-1 $13 #
face $-1 $25 $26 $15 $-1 $27 forward single #
face $-1 $28 $29 $16 $-1 $30 reversed single #
face $-1 $31 $32 $17 $-1 $33 reversed single #
face $-1 $34 $35 $18 $-1 $36 reversed single #
face $-1 $37 $38 $19 $-1 $39 forward single #
face $-1 $40 $41 $15 $-1 $42 reversed single #
loop $-1 $-1 $43 $20 #
plane-surface $-1 0 0 15.013742057077355 0 0 1 1 0 0 forward_v I I I I #
face $-1 $44 $45 $16 $-1 $46 reversed single #
loop $-1 $-1 $47 $21 #
plane-surface $-1 -72.362384285005334 -22.5895975695883 0 1 0 0 0 0 -1 forward_v I I I I #
face $-1 $48 $49 $17 $-1 $50 reversed single #
loop $-1 $-1 $51 $22 #
plane-surface $-1 0 27.373724391279517 6.6841782625398842 0 0 1 1 0 0 forward_v I I I I #
face $-1 $52 $53 $18 $-1 $54 reversed single #
loop $-1 $-1 $55 $23 #
plane-surface $-1 -179.25964364534656 -3.1165271610138419 111.62421096706311 0 1 0 -0.69465837861970381 0 0.71933979245794832 forward_v I I I I #
face $-1 $56 $57 $19 $-1 $58 forward single #
loop $-1 $59 $60 $24 #
cone-surface $-1 -67.968017869890986 0.34367503484155293 8.1151302471962694 0.69465837861970381 0 -0.71933979245794832 1.0790096886869225 0 1.0419875679295556 1 I I 0 1 1.5 forward I I I I #
face $-1 $61 $62 $15 $-1 $63 reversed single #
loop $-1 $-1 $64 $25 #
plane-surface $-1 0 0 -15.013742057077355 0 0 1 1 0 0 forward_v I I I I #
coedge $-1 $65 $66 $67 $68 forward $26 $-1 #
face $-1 $69 $70 $16 $-1 $71 reversed single #
loop $-1 $-1 $72 $28 #
plane-surface $-1 -69.546259523598948 -12.777903844571137 0 0 -1 0 0 0 -1 forward_v I I I I #
coedge $-1 $73 $74 $75 $76 forward $29 $-1 #
face $-1 $77 $78 $17 $-1 $79 reversed single #
loop $-1 $-1 $80 $31 #
plane-surface $-1 0 22.346157487953569 10.84896015980862 0 1 0 0 0 1 forward_v I I I I #
coedge $-1 $81 $82 $83 $84 reversed $32 $-1 #
face $-1 $85 $86 $18 $-1 $87 reversed single #
loop $-1 $-1 $88 $34 #
plane-surface $-1 -75.025482955412471 0.34367503484155293 3.6865802906556411 -0.69465837861970381 0 0.71933979245794832 0.71933979245794832 0 0.69465837861970381 forward_v I I I I #
coedge $-1 $89 $90 $91 $92 reversed $35 $-1 #
face $-1 $-1 $93 $19 $-1 $94 forward single #
loop $-1 $95 $96 $37 #
cone-surface $-1 -66.254368556424026 0.34367503484155293 6.3405944761825914 0.69465837861970381 0 -0.71933979245794832 0.53950484434346124 0 0.5209937839647778 1 I I -0.70710678118654757 0.70710678118654757 0.75 forward I I I I #
loop $-1 $-1 $97 $24 #
coedge $-1 $60 $60 $98 $99 reversed $38 $-1 #
face $-1 $100 $101 $15 $-1 $102 reversed single #
loop $-1 $-1 $103 $40 #
plane-surface $-1 0 -32.401291294605464 0 0 1 0 0 0 1 forward_v I I I I #
coedge $-1 $104 $105 $106 $107 forward $41 $-1 #
coedge $-1 $108 $43 $109 $110 forward $26 $-1 #
coedge $-1 $43 $108 $111 $112 forward $26 $-1 #
coedge $-1 $113 $114 $43 $68 reversed $115 $-1 #
edge $-1 $116 -32.401291294605464 $117 32.401291294605464 $67 $118 forward 7 unknown #
face $-1 $119 $120 $16 $-1 $121 forward single #
loop $-1 $-1 $122 $44 #
plane-surface $-1 -66.730134762192563 -22.5895975695883 0 -1 0 0 0 0 1 forward_v I I I I #
coedge $-1 $123 $124 $125 $126 forward $45 $-1 #
coedge $-1 $127 $47 $128 $129 reversed $29 $-1 #
coedge $-1 $47 $127 $130 $131 reversed $29 $-1 #
coedge $-1 $124 $123 $47 $76 reversed $45 $-1 #
edge $-1 $132 -15.013742057077355 $133 15.013742057077355 $75 $134 forward 7 unknown #
face $-1 $135 $136 $17 $-1 $137 reversed single #
loop $-1 $-1 $138 $48 #
plane-surface $-1 75.025482955412457 0 0 -1 0 0 0 0 1 forward_v I I I I #
coedge $-1 $139 $140 $141 $142 reversed $49 $-1 #
coedge $-1 $143 $51 $139 $144 forward $32 $-1 #
coedge $-1 $51 $143 $145 $146 reversed $32 $-1 #
coedge $-1 $147 $138 $51 $84 forward $78 $-1 #
edge $-1 $148 8.6592952923138107 $149 18.714429098965706 $83 $150 forward 7 unknown #
face $-1 $151 $152 $18 $-1 $153 reversed single #
loop $-1 $-1 $154 $52 #
plane-surface $-1 -179.25964364534656 3.8038772306969477 111.62421096706311 0 -1 0 0.69465837861970381 0 -0.71933979245794832 forward_v I I I I #
coedge $-1 $155 $156 $157 $158 reversed $53 $-1 #
coedge $-1 $90 $55 $159 $160 reversed $35 $-1 #
coedge $-1 $55 $89 $155 $161 reversed $35 $-1 #
coedge $-1 $157 $162 $55 $92 forward $163 $-1 #
edge $-1 $164 14.604338867260822 $165 26.333957979299377 $91 $166 forward 7 unknown #
loop $-1 $-1 $98 $56 #
plane-surface $-1 -75.025482955412471 0.34367503484155293 3.6865802906556411 -0.69465837861970381 0 0.71933979245794832 0.71933979245794832 0 0.69465837861970381 forward_v I I I I #
loop $-1 $-1 $167 $37 #
coedge $-1 $96 $96 $97 $168 reversed $57 $-1 #
coedge $-1 $97 $97 $96 $168 forward $59 $-1 #
coedge $-1 $98 $98 $60 $99 forward $93 $-1 #
edge $-1 $169 0 $169 6.2831853071796004 $98 $170 forward 7 unknown #
face $-1 $171 $172 $15 $-1 $173 reversed single #
loop $-1 $-1 $174 $61 #
plane-surface $-1 -75.025482955412457 0 0 1 0 0 0 0 -1 forward_v I I I I #
coedge $-1 $175 $111 $176 $177 forward $62 $-1 #
coedge $-1 $178 $64 $175 $179 forward $41 $-1 #
coedge $-1 $64 $178 $180 $181 forward $41 $-1 #
coedge $-1 $114 $113 $64 $107 reversed $115 $-1 #
edge $-1 $182 -32.401291294605464 $183 32.401291294605464 $106 $184 forward 7 unknown #
coedge $-1 $66 $65 $185 $186 forward $26 $-1 #
coedge $-1 $187 $188 $65 $110 reversed $172 $-1 #
edge $-1 $117 -75.025482955412457 $189 75.025482955412457 $109 $190 forward 7 unknown #
coedge $-1 $103 $191 $66 $112 reversed $62 $-1 #
edge $-1 $192 -75.025482955412457 $116 75.025482955412457 $111 $193 forward 7 unknown #
coedge $-1 $106 $67 $191 $194 forward $115 $-1 #
coedge $-1 $67 $106 $187 $195 reversed $115 $-1 #
loop $-1 $-1 $113 $171 #
vertex $-1 $68 $196 #
vertex $-1 $68 $197 #
straight-curve $-1 75.025482955412457 0 15.013742057077355 0 1 0 I I #
face $-1 $198 $199 $16 $-1 $200 reversed single #
loop $-1 $-1 $201 $69 #
plane-surface $-1 0 0 15.013742057077355 0 0 1 1 0 0 forward_v I I I I #
coedge $-1 $202 $203 $204 $205 reversed $70 $-1 #
coedge $-1 $75 $72 $206 $207 reversed $45 $-1 #
coedge $-1 $72 $75 $208 $209 reversed $45 $-1 #
coedge $-1 $203 $202 $72 $126 reversed $70 $-1 #
edge $-1 $210 -15.013742057077355 $211 15.013742057077355 $125 $212 forward 7 unknown #
coedge $-1 $74 $73 $213 $214 reversed $29 $-1 #
coedge $-1 $206 $215 $73 $129 forward $199 $-1 #
edge $-1 $216 -21.106492509811314 $133 -1.483105059776987 $128 $217 forward 7 unknown #
coedge $-1 $218 $208 $74 $131 forward $120 $-1 #
edge $-1 $132 1.483105059776987 $219 21.106492509811314 $130 $220 forward 7 unknown #
vertex $-1 $131 $221 #
vertex $-1 $129 $222 #
straight-curve $-1 -72.362384285005334 -12.777903844571137 0 0 0 -1 I I #
face $-1 $223 $224 $17 $-1 $225 forward single #
loop $-1 $-1 $145 $77 #
plane-surface $-1 0 32.401291294605464 0 0 -1 0 0 0 -1 forward_v I I I I #
coedge $-1 $83 $226 $227 $228 forward $78 $-1 #
coedge $-1 $227 $80 $81 $144 reversed $49 $-1 #
coedge $-1 $80 $227 $229 $230 reversed $49 $-1 #
coedge $-1 $231 $232 $80 $142 forward $233 $-1 #
edge $-1 $234 1.2596981826355744 $235 9.5892619771730452 $141 $236 forward 7 unknown #
coedge $-1 $82 $81 $232 $237 reversed $32 $-1 #
edge $-1 $148 -75.025482955412457 $234 75.025482955412457 $139 $238 forward 7 unknown #
coedge $-1 $239 $240 $82 $146 forward $136 $-1 #
edge $-1 $149 -75.025482955412457 $241 75.025482955412457 $145 $242 forward 7 unknown #
coedge $-1 $226 $83 $240 $243 reversed $78 $-1 #
vertex $-1 $84 $244 #
vertex $-1 $146 $245 #
straight-curve $-1 75.025482955412457 13.686862195639758 6.6841782625398842 0 1 0 I I #
face $-1 $-1 $163 $18 $-1 $246 forward single #
loop $-1 $-1 $247 $85 #
plane-surface $-1 -75.025482955412457 0 0 1 0 0 0 0 -1 forward_v I I I I #
coedge $-1 $248 $249 $250 $251 reversed $86 $-1 #
coedge $-1 $252 $88 $90 $161 forward $53 $-1 #
coedge $-1 $88 $252 $248 $253 forward $53 $-1 #
coedge $-1 $250 $91 $88 $158 forward $163 $-1 #
edge $-1 $165 -3.2883646784346183 $254 3.6320397132761713 $157 $255 forward 7 unknown #
coedge $-1 $256 $257 $89 $160 forward $152 $-1 #
edge $-1 $258 -52.125525192875898 $164 -40.798363426454202 $159 $259 forward 7 unknown #
edge $-1 $165 -16.306089604690218 $258 -1.9785632286268914e-014 $90 $260 forward 7 unknown #
coedge $-1 $91 $250 $256 $261 forward $163 $-1 #
loop $-1 $-1 $250 $151 #
vertex $-1 $160 $262 #
vertex $-1 $92 $263 #
straight-curve $-1 -89.629821822673279 -3.1165271610138419 15.013742057077359 1 0 0 I I #
coedge $-1 $167 $167 $-1 $264 reversed $95 $-1 #
edge $-1 $265 0 $265 6.2831853071796004 $96 $266 forward 7 unknown #
vertex $-1 $99 $267 #
ellipse-curve $-1 -69.160673399393175 0.34367503484155293 9.3501611738665016 -0.69465837861970381 0 0.71933979245794832 1.0790096886869225 0 1.0419875679295556 1 I I #
face $-1 $-1 $115 $15 $-1 $268 reversed single #
loop $-1 $-1 $187 $100 #
plane-surface $-1 0 32.401291294605464 0 0 -1 0 0 0 -1 forward_v I I I I #
coedge $-1 $269 $185 $188 $270 forward $101 $-1 #
coedge $-1 $191 $103 $104 $179 reversed $62 $-1 #
coedge $-1 $185 $269 $103 $177 reversed $101 $-1 #
edge $-1 $192 -15.013742057077355 $271 15.013742057077355 $176 $272 forward 7 unknown #
coedge $-1 $105 $104 $269 $273 forward $41 $-1 #
edge $-1 $183 -75.025482955412457 $271 75.025482955412457 $175 $274 forward 7 unknown #
coedge $-1 $188 $187 $105 $181 reversed $172 $-1 #
edge $-1 $275 -75.025482955412457 $182 75.025482955412457 $180 $276 forward 7 unknown #
vertex $-1 $107 $277 #
vertex $-1 $194 $278 #
straight-curve $-1 75.025482955412457 0 -15.013742057077355 0 -1 0 I I #
coedge $-1 $174 $176 $108 $186 reversed $101 $-1 #
edge $-1 $189 -32.401291294605464 $192 32.401291294605464 $185 $279 forward 7 unknown #
coedge $-1 $180 $109 $114 $195 forward $172 $-1 #
coedge $-1 $109 $180 $174 $270 reversed $172 $-1 #
vertex $-1 $110 $280 #
straight-curve $-1 0 32.401291294605464 15.013742057077355 -1 0 0 I I #
coedge $-1 $111 $175 $113 $194 reversed $62 $-1 #
vertex $-1 $186 $281 #
straight-curve $-1 0 -32.401291294605464 15.013742057077355 1 0 0 I I #
edge $-1 $116 -15.013742057077355 $183 15.013742057077355 $113 $282 forward 7 unknown #
edge $-1 $117 -15.013742057077355 $182 15.013742057077355 $114 $283 forward 7 unknown #
point $-1 75.025482955412457 -32.401291294605464 15.013742057077355 #
point $-1 75.025482955412457 32.401291294605464 15.013742057077355 #
face $-1 $-1 $284 $16 $-1 $285 reversed single #
loop $-1 $-1 $286 $119 #
plane-surface $-1 0 0 -15.013742057077355 0 0 1 1 0 0 forward_v I I I I #
coedge $-1 $208 $218 $203 $287 forward $120 $-1 #
coedge $-1 $125 $122 $286 $288 reversed $70 $-1 #
coedge $-1 $122 $125 $201 $287 reversed $70 $-1 #
coedge $-1 $289 $290 $122 $205 forward $284 $-1 #
edge $-1 $291 -15.013742057077355 $292 15.013742057077355 $204 $293 forward 7 unknown #
coedge $-1 $286 $128 $123 $207 forward $199 $-1 #
edge $-1 $133 -37.589254523205859 $211 -31.957005000393089 $206 $294 forward 7 unknown #
coedge $-1 $130 $201 $124 $209 forward $120 $-1 #
edge $-1 $210 31.957005000393089 $132 37.589254523205859 $208 $295 forward 7 unknown #
vertex $-1 $209 $296 #
vertex $-1 $207 $297 #
straight-curve $-1 -66.730134762192563 -12.777903844571137 0 0 0 -1 I I #
coedge $-1 $290 $289 $127 $214 forward $284 $-1 #
edge $-1 $219 -15.013742057077355 $216 15.013742057077355 $213 $298 forward 7 unknown #
coedge $-1 $128 $286 $290 $299 forward $199 $-1 #
vertex $-1 $129 $300 #
straight-curve $-1 -72.362384285005334 -11.29479878479415 -15.013742057077355 0 1 0 I I #
coedge $-1 $201 $130 $289 $301 forward $120 $-1 #
vertex $-1 $301 $302 #
straight-curve $-1 -72.362384285005334 -11.29479878479415 15.013742057077355 0 -1 0 I I #
point $-1 -72.362384285005334 -12.777903844571137 15.013742057077355 #
point $-1 -72.362384285005334 -12.777903844571137 -15.013742057077355 #
face $-1 $-1 $233 $17 $-1 $303 reversed single #
loop $-1 $-1 $229 $135 #
plane-surface $-1 0 0 15.013742057077355 0 0 1 1 0 0 forward_v I I I I #
coedge $-1 $138 $147 $304 $305 reversed $78 $-1 #
coedge $-1 $140 $139 $138 $228 reversed $49 $-1 #
edge $-1 $306 -9.5892619771730452 $148 -1.2596981826355744 $138 $307 forward 7 unknown #
coedge $-1 $304 $308 $140 $230 forward $224 $-1 #
edge $-1 $235 -75.025482955412457 $306 75.025482955412457 $229 $309 forward 7 unknown #
coedge $-1 $310 $141 $308 $311 reversed $233 $-1 #
coedge $-1 $141 $310 $143 $237 forward $233 $-1 #
loop $-1 $-1 $141 $223 #
vertex $-1 $237 $312 #
vertex $-1 $142 $313 #
straight-curve $-1 -75.025482955412457 22.346157487953569 5.4244800799043098 0 0 1 I I #
edge $-1 $241 -18.714429098965706 $234 -8.6592952923138107 $232 $314 forward 7 unknown #
straight-curve $-1 0 22.346157487953569 6.6841782625398842 -1 0 0 I I #
coedge $-1 $315 $145 $310 $316 reversed $136 $-1 #
coedge $-1 $145 $315 $147 $243 forward $136 $-1 #
vertex $-1 $146 $317 #
straight-curve $-1 0 32.401291294605464 6.6841782625398842 -1 0 0 I I #
edge $-1 $318 -15.013742057077355 $149 -6.6841782625398842 $147 $319 forward 7 unknown #
point $-1 75.025482955412457 22.346157487953569 6.6841782625398842 #
point $-1 75.025482955412457 32.401291294605464 6.6841782625398842 #
plane-surface $-1 0 0 15.013742057077355 0 0 1 1 0 0 forward_v I I I I #
coedge $-1 $257 $256 $249 $320 forward $152 $-1 #
coedge $-1 $249 $154 $156 $253 reversed $86 $-1 #
coedge $-1 $154 $248 $247 $320 reversed $86 $-1 #
coedge $-1 $162 $157 $154 $251 forward $163 $-1 #
edge $-1 $254 -26.333957979299377 $321 -14.604338867260822 $250 $322 forward 7 unknown #
coedge $-1 $156 $155 $257 $323 reversed $53 $-1 #
edge $-1 $324 1.9785632286268914e-014 $254 16.306089604690218 $248 $325 forward 7 unknown #
vertex $-1 $158 $326 #
straight-curve $-1 -63.295863843373894 0.17183751742077646 15.013742057077353 0 1 0 I I #
coedge $-1 $247 $159 $162 $261 reversed $152 $-1 #
coedge $-1 $159 $247 $252 $323 forward $152 $-1 #
vertex $-1 $160 $327 #
straight-curve $-1 -75.025482955412457 -3.1165271610138419 55.812105483531553 0 0 1 I I #
straight-curve $-1 -75.025482955412471 -3.1165271610138419 3.6865802906556411 -0.71933979245794832 0 -0.69465837861970381 I I #
edge $-1 $321 -3.8038772306969477 $164 3.1165271610138419 $256 $328 forward 7 unknown #
point $-1 -75.025482955412457 -3.1165271610138419 15.013742057077355 #
point $-1 -63.295863843373901 -3.1165271610138419 15.013742057077355 #
edge $-1 $329 1 $329 0 $167 $-1 forward 7 unknown #
vertex $-1 $168 $330 #
ellipse-curve $-1 -66.77536234038881 0.34367503484155293 6.8800993205260523 -0.69465837861970381 0 0.71933979245794832 1.0790096886869225 0 1.0419875679295556 1 I I #
point $-1 -68.081663710706238 0.34367503484155293 10.392148741796044 #
plane-surface $-1 75.025482955412457 0 0 -1 0 0 0 0 1 forward_v I I I I #
coedge $-1 $176 $174 $178 $273 reversed $101 $-1 #
edge $-1 $189 -15.013742057077355 $275 15.013742057077355 $188 $331 forward 7 unknown #
vertex $-1 $273 $332 #
straight-curve $-1 -75.025482955412457 -32.401291294605464 0 0 0 -1 I I #
edge $-1 $271 -32.401291294605464 $275 32.401291294605464 $269 $333 forward 7 unknown #
straight-curve $-1 0 -32.401291294605464 -15.013742057077355 -1 0 0 I I #
vertex $-1 $181 $334 #
straight-curve $-1 0 32.401291294605464 -15.013742057077355 1 0 0 I I #
point $-1 75.025482955412457 32.401291294605464 -15.013742057077355 #
point $-1 75.025482955412457 -32.401291294605464 -15.013742057077355 #
straight-curve $-1 -75.025482955412457 0 15.013742057077355 0 -1 0 I I #
point $-1 -75.025482955412457 32.401291294605464 15.013742057077355 #
point $-1 -75.025482955412457 -32.401291294605464 15.013742057077355 #
straight-curve $-1 75.025482955412457 -32.401291294605464 0 0 0 -1 I I #
straight-curve $-1 75.025482955412457 32.401291294605464 0 0 0 -1 I I #
loop $-1 $-1 $204 $198 #
plane-surface $-1 0 -32.401291294605464 0 0 1 0 0 0 1 forward_v I I I I #
coedge $-1 $215 $206 $202 $288 forward $199 $-1 #
edge $-1 $292 -21.106492509811314 $210 -1.483105059776987 $201 $335 forward 7 unknown #
edge $-1 $211 1.483105059776987 $291 21.106492509811314 $286 $336 forward 7 unknown #
coedge $-1 $213 $204 $218 $301 reversed $284 $-1 #
coedge $-1 $204 $213 $215 $299 reversed $284 $-1 #
vertex $-1 $299 $337 #
vertex $-1 $205 $338 #
straight-curve $-1 -66.730134762192563 -32.401291294605464 0 0 0 1 I I #
straight-curve $-1 -34.773129761799474 -12.777903844571137 -15.013742057077355 1 0 0 I I #
straight-curve $-1 -34.773129761799474 -12.777903844571137 15.013742057077355 -1 0 0 I I #
point $-1 -66.730134762192563 -12.777903844571137 15.013742057077355 #
point $-1 -66.730134762192563 -12.777903844571137 -15.013742057077355 #
straight-curve $-1 -72.362384285005334 -32.401291294605464 0 0 0 -1 I I #
edge $-1 $291 66.730134762192563 $216 72.362384285005334 $290 $339 forward 7 unknown #
point $-1 -72.362384285005334 -32.401291294605464 -15.013742057077355 #
edge $-1 $219 -72.362384285005334 $292 -66.730134762192563 $289 $340 forward 7 unknown #
point $-1 -72.362384285005334 -32.401291294605464 15.013742057077355 #
plane-surface $-1 -75.025482955412457 0 0 1 0 0 0 0 -1 forward_v I I I I #
coedge $-1 $341 $229 $226 $305 forward $224 $-1 #
edge $-1 $306 22.346157487953569 $318 32.401291294605464 $226 $342 forward 7 unknown #
vertex $-1 $305 $343 #
straight-curve $-1 75.025482955412457 22.346157487953569 5.4244800799043098 0 0 -1 I I #
coedge $-1 $229 $341 $231 $311 forward $224 $-1 #
straight-curve $-1 0 22.346157487953569 15.013742057077355 1 0 0 I I #
coedge $-1 $232 $231 $239 $316 forward $233 $-1 #
edge $-1 $344 -32.401291294605464 $235 -22.346157487953569 $231 $345 forward 7 unknown #
point $-1 -75.025482955412457 22.346157487953569 6.6841782625398842 #
point $-1 -75.025482955412457 22.346157487953569 15.013742057077355 #
straight-curve $-1 -75.025482955412457 13.686862195639758 6.6841782625398842 0 -1 0 I I #
coedge $-1 $240 $239 $341 $346 reversed $136 $-1 #
edge $-1 $344 -15.013742057077355 $241 -6.6841782625398842 $239 $347 forward 7 unknown #
point $-1 -75.025482955412457 32.401291294605464 6.6841782625398842 #
vertex $-1 $305 $348 #
straight-curve $-1 75.025482955412457 32.401291294605464 0 0 0 -1 I I #
edge $-1 $321 40.798363426454202 $324 52.125525192875898 $247 $349 forward 7 unknown #
vertex $-1 $261 $350 #
straight-curve $-1 -89.629821822673279 3.8038772306969477 15.013742057077359 -1 0 0 I I #
edge $-1 $324 -3.6320397132761713 $258 3.2883646784346183 $257 $351 forward 7 unknown #
vertex $-1 $323 $352 #
straight-curve $-1 -75.025482955412471 3.8038772306969477 3.6865802906556411 0.71933979245794832 0 0.69465837861970381 I I #
point $-1 -63.295863843373901 3.8038772306969477 15.013742057077355 #
point $-1 -75.025482955412457 -3.1165271610138419 3.6865802906556548 #
straight-curve $-1 -75.025482955412457 0 15.013742057077355 0 -1 0 I I #
vertex $-1 $264 $353 #
point $-1 -65.696352651701886 0.34367503484155293 7.9220868884556079 #
straight-curve $-1 -75.025482955412457 32.401291294605464 0 0 0 -1 I I #
point $-1 -75.025482955412457 -32.401291294605464 -15.013742057077355 #
straight-curve $-1 -75.025482955412457 0 -15.013742057077355 0 1 0 I I #
point $-1 -75.025482955412457 32.401291294605464 -15.013742057077355 #
straight-curve $-1 -66.730134762192563 -11.29479878479415 15.013742057077355 0 1 0 I I #
straight-curve $-1 -66.730134762192563 -11.29479878479415 -15.013742057077355 0 -1 0 I I #
point $-1 -66.730134762192563 -32.401291294605464 -15.013742057077355 #
point $-1 -66.730134762192563 -32.401291294605464 15.013742057077355 #
straight-curve $-1 0 -32.401291294605464 -15.013742057077355 -1 0 0 I I #
straight-curve $-1 0 -32.401291294605464 15.013742057077355 1 0 0 I I #
coedge $-1 $308 $304 $315 $346 forward $224 $-1 #
straight-curve $-1 75.025482955412457 0 15.013742057077355 0 1 0 I I #
point $-1 75.025482955412457 22.346157487953569 15.013742057077355 #
vertex $-1 $346 $354 #
straight-curve $-1 -75.025482955412457 0 15.013742057077355 0 -1 0 I I #
edge $-1 $318 -75.025482955412457 $344 75.025482955412457 $315 $355 forward 7 unknown #
straight-curve $-1 -75.025482955412457 32.401291294605464 0 0 0 -1 I I #
point $-1 75.025482955412457 32.401291294605464 15.013742057077355 #
straight-curve $-1 -75.025482955412457 3.8038772306969477 55.812105483531553 0 0 -1 I I #
point $-1 -75.025482955412457 3.8038772306969477 15.013742057077355 #
straight-curve $-1 -75.025482955412457 0.17183751742077646 3.6865802906556526 0 -1 0 I I #
point $-1 -75.025482955412457 3.8038772306969477 3.6865802906556548 #
point $-1 -65.733374772459243 0.34367503484155293 5.8010896318391305 #
point $-1 -75.025482955412457 32.401291294605464 15.013742057077355 #
straight-curve $-1 0 32.401291294605464 15.013742057077355 -1 0 0 I I #
End-of-ACIS-data 