500 0 13 0           
7 Unknown 11 ACIS 5.0 NT 24 Fri Mar 26 19:05:11 1999 
-1 9.9999999999999995e-007 1e-010 
body $-1 $13 $-1 $14 #
body $-1 $15 $-1 $16 #
body $-1 $17 $-1 $18 #
body $-1 $19 $-1 $20 #
body $-1 $21 $-1 $22 #
body $-1 $23 $-1 $24 #
body $-1 $25 $-1 $26 #
body $-1 $27 $-1 $28 #
body $-1 $29 $-1 $30 #
body $-1 $31 $-1 $32 #
body $-1 $33 $-1 $34 #
body $-1 $35 $-1 $36 #
body $-1 $37 $-1 $38 #
lump $-1 $-1 $39 $0 #
transform $-1 1 0 0 0 1 0 0 0 1 72.165288247321996 44.19730230253785 17.294637604691001 1 rotate no_reflect no_shear #
lump $-1 $-1 $40 $1 #
transform $-1 1 0 0 0 1 0 0 0 1 72.165288247321996 44.19730230253785 17.294637604691001 1 rotate no_reflect no_shear #
lump $-1 $-1 $41 $2 #
transform $-1 1 0 0 0 1 0 0 0 1 72.165288247321996 44.19730230253785 17.294637604691001 1 rotate no_reflect no_shear #
lump $-1 $-1 $42 $3 #
transform $-1 1 0 0 0 1 0 0 0 1 72.165288247321996 44.19730230253785 17.294637604691001 1 rotate no_reflect no_shear #
lump $-1 $-1 $43 $4 #
transform $-1 1 0 0 0 1 0 0 0 1 72.165288247321996 44.19730230253785 17.294637604691001 1 rotate no_reflect no_shear #
lump $-1 $-1 $44 $5 #
transform $-1 1 0 0 0 1 0 0 0 1 72.165288247321996 44.19730230253785 17.294637604691001 1 rotate no_reflect no_shear #
lump $-1 $-1 $45 $6 #
transform $-1 1 0 0 0 1 0 0 0 1 72.165288247321996 44.19730230253785 17.294637604691001 1 rotate no_reflect no_shear #
lump $-1 $-1 $46 $7 #
transform $-1 1 0 0 0 1 0 0 0 1 72.165288247321996 44.19730230253785 17.294637604691001 1 rotate no_reflect no_shear #
lump $-1 $-1 $47 $8 #
transform $-1 1 0 0 0 1 0 0 0 1 72.165288247321996 44.19730230253785 17.294637604691001 1 rotate no_reflect no_shear #
lump $-1 $-1 $48 $9 #
transform $-1 1 0 0 0 1 0 0 0 1 72.165288247321996 44.19730230253785 17.294637604691001 1 rotate no_reflect no_shear #
lump $-1 $-1 $49 $10 #
transform $-1 1 0 0 0 1 0 0 0 1 72.165288247321996 44.19730230253785 17.294637604691001 1 rotate no_reflect no_shear #
lump $-1 $-1 $50 $11 #
transform $-1 1 0 0 0 1 0 0 0 1 72.165288247321996 44.19730230253785 17.294637604691001 1 rotate no_reflect no_shear #
lump $-1 $-1 $51 $12 #
transform $-1 1 0 0 0 1 0 0 0 1 72.165288247321996 44.19730230253785 17.294637604691001 1 rotate no_reflect no_shear #
shell $-1 $-1 $-1 $52 $-1 $13 #
shell $-1 $-1 $-1 $53 $-1 $15 #
shell $-1 $-1 $-1 $54 $-1 $17 #
shell $-1 $-1 $-1 $55 $-1 $19 #
shell $-1 $-1 $-1 $56 $-1 $21 #
shell $-1 $-1 $-1 $57 $-1 $23 #
shell $-1 $-1 $-1 $58 $-1 $25 #
shell $-1 $-1 $-1 $59 $-1 $27 #
shell $-1 $-1 $-1 $60 $-1 $29 #
shell $-1 $-1 $-1 $61 $-1 $31 #
shell $-1 $-1 $-1 $62 $-1 $33 #
shell $-1 $-1 $-1 $63 $-1 $35 #
shell $-1 $-1 $-1 $64 $-1 $37 #
face $-1 $65 $66 $39 $-1 $67 forward single #
face $-1 $68 $69 $40 $-1 $70 reversed single #
face $-1 $71 $72 $41 $-1 $73 reversed single #
face $-1 $74 $75 $42 $-1 $76 forward single #
face $-1 $77 $78 $43 $-1 $79 forward single #
face $-1 $80 $81 $44 $-1 $82 reversed single #
face $-1 $83 $84 $45 $-1 $85 forward single #
face $-1 $86 $87 $46 $-1 $88 reversed single #
face $-1 $89 $90 $47 $-1 $91 forward single #
face $-1 $92 $93 $48 $-1 $94 reversed single #
face $-1 $95 $96 $49 $-1 $97 forward single #
face $-1 $98 $99 $50 $-1 $100 reversed single #
face $-1 $101 $102 $51 $-1 $103 forward single #
face $-1 $104 $105 $39 $-1 $106 reversed single #
loop $-1 $-1 $107 $52 #
plane-surface $-1 0 0 17.294637604691001 0 0 1 1 0 0 forward_v I I I I #
face $-1 $108 $109 $40 $-1 $110 reversed single #
loop $-1 $-1 $111 $53 #
plane-surface $-1 -64.080901533275181 -24.354573925162327 0 0 1 0 0 0 1 forward_v I I I I #
face $-1 $112 $113 $41 $-1 $114 reversed single #
loop $-1 $-1 $115 $54 #
plane-surface $-1 -26.516059478689556 66.331968846439977 169.90067154001895 1 0 0 0 -0.62932039886446345 -0.77714595512881146 forward_v I I I I #
face $-1 $116 $117 $42 $-1 $118 forward single #
loop $-1 $119 $120 $55 #
cone-surface $-1 -19.69708650386049 33.19876489391109 7.6993141309585429 0 -0.62932039886446345 -0.77714595512881146 1.5 0 0 1 I I 0 1 1.5 forward I I I I #
face $-1 $121 $122 $43 $-1 $123 forward single #
loop $-1 $124 $125 $56 #
cone-surface $-1 -9.4686270416168981 33.19876489391109 7.6993141309585429 0 -0.62932039886446345 -0.77714595512881146 1.5 0 0 1 I I 0 1 1.5 forward I I I I #
face $-1 $126 $127 $44 $-1 $128 reversed single #
loop $-1 $-1 $129 $57 #
plane-surface $-1 -32.4735080634198 -165.24311001845996 85.03840435553785 -1 0 0 0 -0.83867057594974714 0.54463902268945019 forward_v I I I I #
face $-1 $130 $131 $45 $-1 $132 forward single #
loop $-1 $133 $134 $58 #
cone-surface $-1 -41.791904122589884 -37.876546468693221 10.048643340953362 0 0.83867057594974714 -0.54463902268945019 2 0 0 1 I I 0 1 2 forward I I I I #
face $-1 $135 $136 $46 $-1 $137 reversed single #
loop $-1 $-1 $138 $59 #
plane-surface $-1 -0.4330572967822075 -165.24311001845996 85.03840435553785 -1 0 0 0 -0.83867057594974714 0.54463902268945019 forward_v I I I I #
face $-1 $139 $140 $47 $-1 $141 forward single #
loop $-1 $142 $143 $60 #
cone-surface $-1 -9.7514533559522931 -37.876546468693221 10.048643340953362 0 0.83867057594974714 -0.54463902268945019 2 0 0 1 I I 0 1 2 forward I I I I #
face $-1 $144 $145 $48 $-1 $146 reversed single #
loop $-1 $-1 $147 $61 #
plane-surface $-1 31.607393469855381 -165.24311001845996 85.03840435553785 -1 0 0 0 -0.83867057594974714 0.54463902268945019 forward_v I I I I #
face $-1 $148 $149 $49 $-1 $150 forward single #
loop $-1 $151 $152 $62 #
cone-surface $-1 22.288997410685297 -37.876546468693221 10.048643340953362 0 0.83867057594974714 -0.54463902268945019 2 0 0 1 I I 0 1 2 forward I I I I #
face $-1 $153 $154 $50 $-1 $155 reversed single #
loop $-1 $-1 $156 $63 #
plane-surface $-1 63.647844236492972 -165.24311001845996 85.03840435553785 -1 0 0 0 -0.83867057594974714 0.54463902268945019 forward_v I I I I #
face $-1 $157 $158 $51 $-1 $159 forward single #
loop $-1 $160 $161 $64 #
cone-surface $-1 54.329448177322888 -37.876546468693221 10.048643340953362 0 0.83867057594974714 -0.54463902268945019 2 0 0 1 I I 0 1 2 forward I I I I #
face $-1 $162 $163 $39 $-1 $164 reversed single #
loop $-1 $-1 $165 $65 #
plane-surface $-1 0 0 -17.294637604691001 0 0 1 1 0 0 forward_v I I I I #
coedge $-1 $166 $167 $168 $169 forward $66 $-1 #
face $-1 $170 $171 $40 $-1 $172 reversed single #
loop $-1 $-1 $173 $68 #
plane-surface $-1 -64.080901533275181 -16.604790180856227 0 0 -1 0 0 0 -1 forward_v I I I I #
coedge $-1 $174 $175 $176 $177 reversed $69 $-1 #
face $-1 $178 $179 $41 $-1 $180 reversed single #
loop $-1 $-1 $181 $71 #
plane-surface $-1 -14.582856772738694 -24.498207121507335 57.734747815796851 0 0.62932039886446345 0.77714595512881146 1 0 0 forward_v I I I I #
coedge $-1 $182 $183 $184 $185 reversed $72 $-1 #
face $-1 $-1 $186 $42 $-1 $187 forward single #
loop $-1 $188 $189 $74 #
cone-surface $-1 -19.69708650386049 31.106303856715598 5.1153399990929422 0 -0.62932039886446345 -0.77714595512881146 0.75 0 0 1 I I -0.70710678118654757 0.70710678118654757 0.75 forward I I I I #
loop $-1 $-1 $190 $55 #
coedge $-1 $120 $120 $191 $192 reversed $75 $-1 #
face $-1 $-1 $193 $43 $-1 $194 forward single #
loop $-1 $195 $196 $77 #
cone-surface $-1 -9.4686270416168981 31.106303856715598 5.1153399990929422 0 -0.62932039886446345 -0.77714595512881146 0.75 0 0 1 I I -0.70710678118654757 0.70710678118654757 0.75 forward I I I I #
loop $-1 $-1 $197 $56 #
coedge $-1 $125 $125 $198 $199 reversed $78 $-1 #
face $-1 $200 $201 $44 $-1 $202 reversed single #
loop $-1 $-1 $203 $80 #
plane-surface $-1 -41.791904122589884 -44.19730230253785 6.4303402292900103 0 -0.83867057594974714 0.54463902268945019 1 0 0 forward_v I I I I #
coedge $-1 $204 $205 $206 $207 reversed $81 $-1 #
face $-1 $-1 $208 $45 $-1 $209 forward single #
loop $-1 $210 $211 $83 #
cone-surface $-1 -41.791904122589884 -34.244798550567133 7.690158742226771 0 0.83867057594974714 -0.54463902268945019 1 0 0 1 I I -0.70710678118654746 0.70710678118654746 1 forward I I I I #
loop $-1 $-1 $212 $58 #
coedge $-1 $134 $134 $213 $214 reversed $84 $-1 #
face $-1 $215 $216 $46 $-1 $217 reversed single #
loop $-1 $-1 $218 $86 #
plane-surface $-1 -9.7514533559522931 -44.19730230253785 6.4303402292900103 0 -0.83867057594974714 0.54463902268945019 1 0 0 forward_v I I I I #
coedge $-1 $219 $220 $221 $222 reversed $87 $-1 #
face $-1 $-1 $223 $47 $-1 $224 forward single #
loop $-1 $225 $226 $89 #
cone-surface $-1 -9.7514533559522931 -34.244798550567133 7.690158742226771 0 0.83867057594974714 -0.54463902268945019 1 0 0 1 I I -0.70710678118654746 0.70710678118654746 1 forward I I I I #
loop $-1 $-1 $227 $60 #
coedge $-1 $143 $143 $228 $229 reversed $90 $-1 #
face $-1 $230 $231 $48 $-1 $232 reversed single #
loop $-1 $-1 $233 $92 #
plane-surface $-1 22.288997410685297 -44.19730230253785 6.4303402292900103 0 -0.83867057594974714 0.54463902268945019 1 0 0 forward_v I I I I #
coedge $-1 $234 $235 $236 $237 reversed $93 $-1 #
face $-1 $-1 $238 $49 $-1 $239 forward single #
loop $-1 $240 $241 $95 #
cone-surface $-1 22.288997410685297 -34.244798550567133 7.690158742226771 0 0.83867057594974714 -0.54463902268945019 1 0 0 1 I I -0.70710678118654746 0.70710678118654746 1 forward I I I I #
loop $-1 $-1 $242 $62 #
coedge $-1 $152 $152 $243 $244 reversed $96 $-1 #
face $-1 $245 $246 $50 $-1 $247 reversed single #
loop $-1 $-1 $248 $98 #
plane-surface $-1 54.329448177322888 -44.19730230253785 6.4303402292900103 0 -0.83867057594974714 0.54463902268945019 1 0 0 forward_v I I I I #
coedge $-1 $249 $250 $251 $252 reversed $99 $-1 #
face $-1 $-1 $253 $51 $-1 $254 forward single #
loop $-1 $255 $256 $101 #
cone-surface $-1 54.329448177322888 -34.244798550567133 7.690158742226771 0 0.83867057594974714 -0.54463902268945019 1 0 0 1 I I -0.70710678118654746 0.70710678118654746 1 forward I I I I #
loop $-1 $-1 $257 $64 #
coedge $-1 $161 $161 $258 $259 reversed $102 $-1 #
face $-1 $260 $261 $39 $-1 $262 reversed single #
loop $-1 $-1 $263 $104 #
plane-surface $-1 0 -44.19730230253785 0 0 1 0 0 0 1 forward_v I I I I #
coedge $-1 $264 $265 $266 $267 forward $105 $-1 #
coedge $-1 $268 $107 $269 $270 forward $66 $-1 #
coedge $-1 $107 $268 $271 $272 forward $66 $-1 #
coedge $-1 $273 $274 $107 $169 reversed $275 $-1 #
edge $-1 $276 -44.19730230253785 $277 44.19730230253785 $168 $278 forward 7 unknown #
face $-1 $279 $280 $40 $-1 $281 reversed single #
loop $-1 $-1 $282 $108 #
plane-surface $-1 -55.996514819228366 -20.479682053009277 0 -1 0 0 0 0 1 forward_v I I I I #
coedge $-1 $283 $284 $285 $286 forward $109 $-1 #
coedge $-1 $287 $111 $288 $289 reversed $69 $-1 #
coedge $-1 $111 $287 $290 $291 reversed $69 $-1 #
coedge $-1 $292 $293 $111 $177 forward $294 $-1 #
edge $-1 $295 -17.294637604691001 $296 17.294637604691001 $176 $297 forward 7 unknown #
face $-1 $298 $299 $41 $-1 $300 reversed single #
loop $-1 $-1 $301 $112 #
plane-surface $-1 -2.6496540667878321 66.331968846439977 169.90067154001895 -1 0 0 0 0.62932039886446345 0.77714595512881146 forward_v I I I I #
coedge $-1 $302 $303 $304 $305 reversed $113 $-1 #
coedge $-1 $183 $115 $306 $307 reversed $72 $-1 #
coedge $-1 $115 $182 $302 $308 reversed $72 $-1 #
coedge $-1 $304 $309 $115 $185 forward $310 $-1 #
edge $-1 $311 -11.031317879317861 $312 7.724815461841338 $184 $313 forward 7 unknown #
loop $-1 $-1 $191 $116 #
plane-surface $-1 -14.582856772738694 -24.498207121507335 57.734747815796851 0 0.62932039886446345 0.77714595512881146 1 0 0 forward_v I I I I #
loop $-1 $-1 $314 $74 #
coedge $-1 $189 $189 $190 $315 reversed $117 $-1 #
coedge $-1 $190 $190 $189 $315 forward $119 $-1 #
coedge $-1 $191 $191 $120 $192 forward $186 $-1 #
edge $-1 $316 -6.5521993904639076e-016 $316 6.2831853071795996 $191 $317 forward 7 unknown #
loop $-1 $-1 $198 $121 #
plane-surface $-1 -14.582856772738694 -24.498207121507335 57.734747815796851 0 0.62932039886446345 0.77714595512881146 1 0 0 forward_v I I I I #
loop $-1 $-1 $318 $77 #
coedge $-1 $196 $196 $197 $319 reversed $122 $-1 #
coedge $-1 $197 $197 $196 $319 forward $124 $-1 #
coedge $-1 $198 $198 $125 $199 forward $193 $-1 #
edge $-1 $320 -6.5521993904639076e-016 $320 6.2831853071795996 $198 $321 forward 7 unknown #
face $-1 $322 $323 $44 $-1 $324 forward single #
loop $-1 $-1 $325 $126 #
plane-surface $-1 -51.110300181759968 -165.24311001845996 85.03840435553785 1 0 0 0 0.83867057594974714 -0.54463902268945019 forward_v I I I I #
coedge $-1 $326 $327 $328 $329 reversed $127 $-1 #
coedge $-1 $205 $129 $330 $331 reversed $81 $-1 #
coedge $-1 $129 $204 $326 $332 reversed $81 $-1 #
coedge $-1 $328 $333 $129 $207 forward $323 $-1 #
edge $-1 $334 38.42425270669213 $335 45.479609690028703 $206 $336 forward 7 unknown #
loop $-1 $-1 $213 $130 #
plane-surface $-1 -41.791904122589884 -44.19730230253785 6.4303402292900103 0 -0.83867057594974714 0.54463902268945019 1 0 0 forward_v I I I I #
loop $-1 $-1 $337 $83 #
coedge $-1 $211 $211 $212 $338 reversed $131 $-1 #
coedge $-1 $212 $212 $211 $338 forward $133 $-1 #
coedge $-1 $213 $213 $134 $214 forward $208 $-1 #
edge $-1 $339 4.4516829232526574e-016 $339 6.2831853071796013 $213 $340 forward 7 unknown #
face $-1 $341 $342 $46 $-1 $343 reversed single #
loop $-1 $-1 $344 $135 #
plane-surface $-1 -19.069849415122377 -165.24311001845996 85.03840435553785 1 0 0 0 0.83867057594974714 -0.54463902268945019 forward_v I I I I #
coedge $-1 $345 $346 $347 $348 reversed $136 $-1 #
coedge $-1 $220 $138 $349 $350 reversed $87 $-1 #
coedge $-1 $138 $219 $345 $351 reversed $87 $-1 #
coedge $-1 $347 $352 $138 $222 forward $353 $-1 #
edge $-1 $354 38.42425270669213 $355 45.479609690028703 $221 $356 forward 7 unknown #
loop $-1 $-1 $228 $139 #
plane-surface $-1 -9.7514533559522931 -44.19730230253785 6.4303402292900103 0 -0.83867057594974714 0.54463902268945019 1 0 0 forward_v I I I I #
loop $-1 $-1 $357 $89 #
coedge $-1 $226 $226 $227 $358 reversed $140 $-1 #
coedge $-1 $227 $227 $226 $358 forward $142 $-1 #
coedge $-1 $228 $228 $143 $229 forward $223 $-1 #
edge $-1 $359 4.4516829232526574e-016 $359 6.2831853071796013 $228 $360 forward 7 unknown #
face $-1 $361 $362 $48 $-1 $363 reversed single #
loop $-1 $-1 $364 $144 #
plane-surface $-1 12.970601351515212 -165.24311001845996 85.03840435553785 1 0 0 0 0.83867057594974714 -0.54463902268945019 forward_v I I I I #
coedge $-1 $365 $366 $367 $368 reversed $145 $-1 #
coedge $-1 $235 $147 $369 $370 reversed $93 $-1 #
coedge $-1 $147 $234 $365 $371 reversed $93 $-1 #
coedge $-1 $367 $372 $147 $237 forward $373 $-1 #
edge $-1 $374 38.42425270669213 $375 45.479609690028703 $236 $376 forward 7 unknown #
loop $-1 $-1 $243 $148 #
plane-surface $-1 22.288997410685297 -44.19730230253785 6.4303402292900103 0 -0.83867057594974714 0.54463902268945019 1 0 0 forward_v I I I I #
loop $-1 $-1 $377 $95 #
coedge $-1 $241 $241 $242 $378 reversed $149 $-1 #
coedge $-1 $242 $242 $241 $378 forward $151 $-1 #
coedge $-1 $243 $243 $152 $244 forward $238 $-1 #
edge $-1 $379 4.4516829232526574e-016 $379 6.2831853071796013 $243 $380 forward 7 unknown #
face $-1 $381 $382 $50 $-1 $383 reversed single #
loop $-1 $-1 $384 $153 #
plane-surface $-1 45.011052118152804 -165.24311001845996 85.03840435553785 1 0 0 0 0.83867057594974714 -0.54463902268945019 forward_v I I I I #
coedge $-1 $385 $386 $387 $388 reversed $154 $-1 #
coedge $-1 $250 $156 $389 $390 reversed $99 $-1 #
coedge $-1 $156 $249 $385 $391 reversed $99 $-1 #
coedge $-1 $387 $392 $156 $252 forward $393 $-1 #
edge $-1 $394 38.42425270669213 $395 45.479609690028703 $251 $396 forward 7 unknown #
loop $-1 $-1 $258 $157 #
plane-surface $-1 54.329448177322888 -44.19730230253785 6.4303402292900103 0 -0.83867057594974714 0.54463902268945019 1 0 0 forward_v I I I I #
loop $-1 $-1 $397 $101 #
coedge $-1 $256 $256 $257 $398 reversed $158 $-1 #
coedge $-1 $257 $257 $256 $398 forward $160 $-1 #
coedge $-1 $258 $258 $161 $259 forward $253 $-1 #
edge $-1 $399 4.4516829232526574e-016 $399 6.2831853071796013 $258 $400 forward 7 unknown #
face $-1 $401 $402 $39 $-1 $403 reversed single #
loop $-1 $-1 $404 $162 #
plane-surface $-1 -72.165288247321996 0 0 1 0 0 0 0 -1 forward_v I I I I #
coedge $-1 $405 $271 $406 $407 forward $163 $-1 #
coedge $-1 $408 $165 $405 $409 forward $105 $-1 #
coedge $-1 $165 $408 $410 $411 forward $105 $-1 #
coedge $-1 $274 $273 $165 $267 reversed $275 $-1 #
edge $-1 $412 -44.19730230253785 $413 44.19730230253785 $266 $414 forward 7 unknown #
coedge $-1 $167 $166 $415 $416 forward $66 $-1 #
coedge $-1 $417 $418 $166 $270 reversed $402 $-1 #
edge $-1 $277 -72.165288247321996 $419 72.165288247321996 $269 $420 forward 7 unknown #
coedge $-1 $263 $421 $167 $272 reversed $163 $-1 #
edge $-1 $422 -72.165288247321996 $276 72.165288247321996 $271 $423 forward 7 unknown #
coedge $-1 $266 $168 $421 $424 forward $275 $-1 #
coedge $-1 $168 $266 $417 $425 reversed $275 $-1 #
loop $-1 $-1 $273 $401 #
vertex $-1 $169 $426 #
vertex $-1 $169 $427 #
straight-curve $-1 72.165288247321996 0 17.294637604691001 0 1 0 I I #
face $-1 $428 $429 $40 $-1 $430 forward single #
loop $-1 $-1 $431 $170 #
plane-surface $-1 0 0 -17.294637604691001 0 0 1 1 0 0 forward_v I I I I #
coedge $-1 $432 $433 $287 $434 forward $171 $-1 #
coedge $-1 $435 $173 $431 $436 reversed $109 $-1 #
coedge $-1 $173 $435 $437 $438 reversed $109 $-1 #
coedge $-1 $433 $432 $173 $286 reversed $171 $-1 #
edge $-1 $439 -17.294637604691001 $440 17.294637604691001 $285 $441 forward 7 unknown #
coedge $-1 $175 $174 $282 $434 reversed $69 $-1 #
coedge $-1 $442 $443 $174 $289 forward $280 $-1 #
edge $-1 $444 23.956064052590776 $295 40.124837480684405 $288 $445 forward 7 unknown #
coedge $-1 $446 $447 $175 $291 forward $429 $-1 #
edge $-1 $296 -40.124837480684405 $448 -23.956064052590776 $290 $449 forward 7 unknown #
coedge $-1 $450 $176 $447 $451 reversed $294 $-1 #
coedge $-1 $176 $450 $442 $452 reversed $294 $-1 #
loop $-1 $-1 $450 $428 #
vertex $-1 $452 $453 #
vertex $-1 $177 $454 #
straight-curve $-1 -72.165288247321996 -24.354573925162327 0 0 0 1 I I #
face $-1 $-1 $310 $41 $-1 $455 forward single #
loop $-1 $-1 $456 $178 #
plane-surface $-1 0 44.19730230253785 0 0 -1 0 0 0 -1 forward_v I I I I #
coedge $-1 $457 $458 $459 $460 reversed $179 $-1 #
coedge $-1 $461 $181 $183 $308 forward $113 $-1 #
coedge $-1 $181 $461 $457 $462 forward $113 $-1 #
coedge $-1 $459 $184 $181 $305 forward $310 $-1 #
edge $-1 $312 -19.224631092320209 $463 4.6417743195815149 $304 $464 forward 7 unknown #
coedge $-1 $465 $466 $182 $307 forward $299 $-1 #
edge $-1 $467 -82.844115781745387 $311 -67.655698165318469 $306 $468 forward 7 unknown #
edge $-1 $312 64.259970412647348 $467 88.394604605075699 $183 $469 forward 7 unknown #
coedge $-1 $184 $459 $465 $470 forward $310 $-1 #
loop $-1 $-1 $459 $298 #
vertex $-1 $307 $471 #
vertex $-1 $185 $472 #
straight-curve $-1 -26.516059478689556 33.165984423219989 17.294637604691005 0 -1 0 I I #
coedge $-1 $314 $314 $-1 $473 reversed $188 $-1 #
edge $-1 $474 0 $474 6.2831853071796004 $189 $475 forward 7 unknown #
vertex $-1 $192 $476 #
ellipse-curve $-1 -19.69708650386049 34.81923563195825 9.7004287964775493 0 0.62932039886446345 0.77714595512881146 1.5 0 0 1 I I #
coedge $-1 $318 $318 $-1 $477 reversed $195 $-1 #
edge $-1 $478 0 $478 6.2831853071796004 $196 $479 forward 7 unknown #
vertex $-1 $199 $480 #
ellipse-curve $-1 -9.4686270416168981 34.81923563195825 9.7004287964775493 0 0.62932039886446345 0.77714595512881146 1.5 0 0 1 I I #
face $-1 $-1 $481 $44 $-1 $482 reversed single #
loop $-1 $-1 $206 $200 #
plane-surface $-1 0 0 17.294637604691001 0 0 1 1 0 0 forward_v I I I I #
coedge $-1 $483 $484 $485 $486 reversed $201 $-1 #
coedge $-1 $487 $203 $205 $332 forward $127 $-1 #
coedge $-1 $203 $487 $483 $488 forward $127 $-1 #
coedge $-1 $485 $206 $203 $329 forward $323 $-1 #
edge $-1 $335 11.577556002124858 $489 30.214348120465026 $328 $490 forward 7 unknown #
coedge $-1 $491 $492 $204 $331 forward $481 $-1 #
edge $-1 $493 -36.088861948478915 $334 -25.224564573077924 $330 $494 forward 7 unknown #
edge $-1 $335 -12.954189269246495 $493 0 $205 $495 forward 7 unknown #
coedge $-1 $206 $485 $491 $496 forward $323 $-1 #
vertex $-1 $331 $497 #
vertex $-1 $207 $498 #
straight-curve $-1 -32.4735080634198 -82.621555009229979 17.294637604691005 0 1 0 I I #
coedge $-1 $337 $337 $-1 $499 reversed $210 $-1 #
edge $-1 $500 0 $500 6.2831853071796004 $211 $501 forward 7 unknown #
vertex $-1 $214 $502 #
ellipse-curve $-1 -41.791904122589884 -40.669623810869567 11.862488916990504 0 -0.83867057594974714 0.54463902268945019 2 0 0 1 I I #
face $-1 $-1 $353 $46 $-1 $503 forward single #
loop $-1 $-1 $504 $215 #
plane-surface $-1 0 -44.19730230253785 0 0 1 0 0 0 1 forward_v I I I I #
coedge $-1 $505 $506 $507 $508 reversed $216 $-1 #
coedge $-1 $509 $218 $220 $351 forward $136 $-1 #
coedge $-1 $218 $509 $505 $510 forward $136 $-1 #
coedge $-1 $507 $221 $218 $348 forward $353 $-1 #
edge $-1 $355 -4.4426693811939391 $511 14.19412273714623 $347 $512 forward 7 unknown #
coedge $-1 $513 $514 $219 $350 forward $342 $-1 #
edge $-1 $515 -36.088861948478915 $354 -25.224564573077924 $349 $516 forward 7 unknown #
edge $-1 $355 -12.954189269246495 $515 0 $220 $517 forward 7 unknown #
coedge $-1 $221 $507 $513 $518 forward $353 $-1 #
loop $-1 $-1 $507 $341 #
vertex $-1 $350 $519 #
vertex $-1 $222 $520 #
straight-curve $-1 -0.4330572967822075 -82.621555009229979 17.294637604691005 0 1 0 I I #
coedge $-1 $357 $357 $-1 $521 reversed $225 $-1 #
edge $-1 $522 0 $522 6.2831853071796004 $226 $523 forward 7 unknown #
vertex $-1 $229 $524 #
ellipse-curve $-1 -9.7514533559522931 -40.669623810869567 11.862488916990504 0 -0.83867057594974714 0.54463902268945019 2 0 0 1 I I #
face $-1 $-1 $373 $48 $-1 $525 forward single #
loop $-1 $-1 $526 $230 #
plane-surface $-1 0 -44.19730230253785 0 0 1 0 0 0 1 forward_v I I I I #
coedge $-1 $527 $528 $529 $530 reversed $231 $-1 #
coedge $-1 $531 $233 $235 $371 forward $145 $-1 #
coedge $-1 $233 $531 $527 $532 forward $145 $-1 #
coedge $-1 $529 $236 $233 $368 forward $373 $-1 #
edge $-1 $375 -20.462894764512733 $533 -1.8261026461725631 $367 $534 forward 7 unknown #
coedge $-1 $535 $536 $234 $370 forward $362 $-1 #
edge $-1 $537 -36.088861948478915 $374 -25.224564573077924 $369 $538 forward 7 unknown #
edge $-1 $375 -12.954189269246495 $537 0 $235 $539 forward 7 unknown #
coedge $-1 $236 $529 $535 $540 forward $373 $-1 #
loop $-1 $-1 $529 $361 #
vertex $-1 $370 $541 #
vertex $-1 $237 $542 #
straight-curve $-1 31.607393469855381 -82.621555009229979 17.294637604691005 0 1 0 I I #
coedge $-1 $377 $377 $-1 $543 reversed $240 $-1 #
edge $-1 $544 0 $544 6.2831853071796004 $241 $545 forward 7 unknown #
vertex $-1 $244 $546 #
ellipse-curve $-1 22.288997410685297 -40.669623810869567 11.862488916990504 0 -0.83867057594974714 0.54463902268945019 2 0 0 1 I I #
face $-1 $-1 $393 $50 $-1 $547 forward single #
loop $-1 $-1 $548 $245 #
plane-surface $-1 0 -44.19730230253785 0 0 1 0 0 0 1 forward_v I I I I #
coedge $-1 $549 $550 $551 $552 reversed $246 $-1 #
coedge $-1 $553 $248 $250 $391 forward $154 $-1 #
coedge $-1 $248 $553 $549 $554 forward $154 $-1 #
coedge $-1 $551 $251 $248 $388 forward $393 $-1 #
edge $-1 $395 -36.483120147831528 $555 -17.84632802949136 $387 $556 forward 7 unknown #
coedge $-1 $557 $558 $249 $390 forward $382 $-1 #
edge $-1 $559 -36.088861948478915 $394 -25.224564573077924 $389 $560 forward 7 unknown #
edge $-1 $395 -12.954189269246495 $559 0 $250 $561 forward 7 unknown #
coedge $-1 $251 $551 $557 $562 forward $393 $-1 #
loop $-1 $-1 $551 $381 #
vertex $-1 $390 $563 #
vertex $-1 $252 $564 #
straight-curve $-1 63.647844236492972 -82.621555009229979 17.294637604691005 0 1 0 I I #
coedge $-1 $397 $397 $-1 $565 reversed $255 $-1 #
edge $-1 $566 0 $566 6.2831853071796004 $256 $567 forward 7 unknown #
vertex $-1 $259 $568 #
ellipse-curve $-1 54.329448177322888 -40.669623810869567 11.862488916990504 0 -0.83867057594974714 0.54463902268945019 2 0 0 1 I I #
face $-1 $-1 $275 $39 $-1 $569 reversed single #
loop $-1 $-1 $417 $260 #
plane-surface $-1 0 44.19730230253785 0 0 -1 0 0 0 -1 forward_v I I I I #
coedge $-1 $570 $415 $418 $571 forward $261 $-1 #
coedge $-1 $421 $263 $264 $409 reversed $163 $-1 #
coedge $-1 $415 $570 $263 $407 reversed $261 $-1 #
edge $-1 $422 -17.294637604691001 $572 17.294637604691001 $406 $573 forward 7 unknown #
coedge $-1 $265 $264 $570 $574 forward $105 $-1 #
edge $-1 $413 -72.165288247321996 $572 72.165288247321996 $405 $575 forward 7 unknown #
coedge $-1 $418 $417 $265 $411 reversed $402 $-1 #
edge $-1 $576 -72.165288247321996 $412 72.165288247321996 $410 $577 forward 7 unknown #
vertex $-1 $267 $578 #
vertex $-1 $424 $579 #
straight-curve $-1 72.165288247321996 0 -17.294637604691001 0 -1 0 I I #
coedge $-1 $404 $406 $268 $416 reversed $261 $-1 #
edge $-1 $419 -44.19730230253785 $422 44.19730230253785 $415 $580 forward 7 unknown #
coedge $-1 $410 $269 $274 $425 forward $402 $-1 #
coedge $-1 $269 $410 $404 $571 reversed $402 $-1 #
vertex $-1 $270 $581 #
straight-curve $-1 0 44.19730230253785 17.294637604691001 -1 0 0 I I #
coedge $-1 $271 $405 $273 $424 reversed $163 $-1 #
vertex $-1 $416 $582 #
straight-curve $-1 0 -44.19730230253785 17.294637604691001 1 0 0 I I #
edge $-1 $276 -17.294637604691001 $413 17.294637604691001 $273 $583 forward 7 unknown #
edge $-1 $277 -17.294637604691001 $412 17.294637604691001 $274 $584 forward 7 unknown #
point $-1 72.165288247321996 -44.19730230253785 17.294637604691001 #
point $-1 72.165288247321996 44.19730230253785 17.294637604691001 #
face $-1 $-1 $294 $40 $-1 $585 reversed single #
loop $-1 $-1 $437 $279 #
plane-surface $-1 0 0 17.294637604691001 0 0 1 1 0 0 forward_v I I I I #
coedge $-1 $443 $442 $283 $436 forward $280 $-1 #
coedge $-1 $285 $282 $443 $586 reversed $171 $-1 #
coedge $-1 $282 $285 $446 $587 reversed $171 $-1 #
edge $-1 $448 -17.294637604691001 $444 17.294637604691001 $282 $588 forward 7 unknown #
coedge $-1 $284 $283 $450 $589 reversed $109 $-1 #
edge $-1 $590 -40.124837480684405 $440 -23.956064052590776 $431 $591 forward 7 unknown #
coedge $-1 $447 $446 $284 $438 forward $429 $-1 #
edge $-1 $439 23.956064052590776 $592 40.124837480684405 $437 $593 forward 7 unknown #
vertex $-1 $438 $594 #
vertex $-1 $436 $595 #
straight-curve $-1 -55.996514819228366 -16.604790180856227 0 0 0 -1 I I #
coedge $-1 $431 $288 $293 $452 forward $280 $-1 #
coedge $-1 $288 $431 $432 $586 forward $280 $-1 #
vertex $-1 $289 $596 #
straight-curve $-1 -32.040450766637591 -24.354573925162327 -17.294637604691001 -1 0 0 I I #
coedge $-1 $437 $290 $433 $587 forward $429 $-1 #
coedge $-1 $290 $437 $292 $451 forward $429 $-1 #
vertex $-1 $291 $597 #
straight-curve $-1 -32.040450766637591 -24.354573925162327 17.294637604691001 1 0 0 I I #
coedge $-1 $293 $292 $435 $589 forward $294 $-1 #
edge $-1 $592 16.604790180856227 $296 24.354573925162327 $292 $598 forward 7 unknown #
edge $-1 $295 -24.354573925162327 $590 -16.604790180856227 $293 $599 forward 7 unknown #
point $-1 -72.165288247321996 -24.354573925162327 -17.294637604691001 #
point $-1 -72.165288247321996 -24.354573925162327 17.294637604691001 #
plane-surface $-1 0 0 17.294637604691001 0 0 1 1 0 0 forward_v I I I I #
coedge $-1 $466 $465 $458 $600 forward $299 $-1 #
coedge $-1 $458 $301 $303 $462 reversed $179 $-1 #
coedge $-1 $301 $457 $456 $600 reversed $179 $-1 #
coedge $-1 $309 $304 $301 $460 forward $310 $-1 #
edge $-1 $463 -7.724815461841338 $601 11.031317879317861 $459 $602 forward 7 unknown #
coedge $-1 $303 $302 $466 $603 reversed $113 $-1 #
edge $-1 $604 -88.394604605075699 $463 -64.259970412647348 $457 $605 forward 7 unknown #
vertex $-1 $305 $606 #
straight-curve $-1 -7.291428386369347 25.441168961378654 17.294637604691001 1 0 0 I I #
coedge $-1 $456 $306 $309 $470 reversed $299 $-1 #
coedge $-1 $306 $456 $461 $603 forward $299 $-1 #
vertex $-1 $307 $607 #
straight-curve $-1 -26.516059478689556 44.19730230253785 84.950335770009474 0 0 1 I I #
straight-curve $-1 -26.516059478689556 -24.498207121507335 57.734747815796851 0 0.77714595512881146 -0.62932039886446345 I I #
edge $-1 $601 2.6496540667878321 $311 26.516059478689556 $465 $608 forward 7 unknown #
point $-1 -26.516059478689556 44.19730230253785 17.294637604691001 #
point $-1 -26.516059478689556 25.441168961378651 17.294637604691005 #
edge $-1 $609 1 $609 0 $314 $-1 forward 7 unknown #
vertex $-1 $315 $610 #
ellipse-curve $-1 -19.69708650386049 31.578294155863947 5.6981994654395507 0 0.62932039886446345 0.77714595512881146 1.5 0 0 1 I I #
point $-1 -18.19708650386049 34.819235631958236 9.7004287964775333 #
edge $-1 $611 1 $611 0 $318 $-1 forward 7 unknown #
vertex $-1 $319 $612 #
ellipse-curve $-1 -9.4686270416168981 31.578294155863947 5.6981994654395507 0 0.62932039886446345 0.77714595512881146 1.5 0 0 1 I I #
point $-1 -7.9686270416168981 34.819235631958236 9.7004287964775333 #
loop $-1 $-1 $330 $322 #
plane-surface $-1 0 -44.19730230253785 0 0 1 0 0 0 1 forward_v I I I I #
coedge $-1 $484 $325 $327 $488 reversed $201 $-1 #
coedge $-1 $325 $483 $613 $614 reversed $201 $-1 #
coedge $-1 $333 $328 $325 $486 forward $323 $-1 #
edge $-1 $489 -45.479609690028703 $615 -38.42425270669213 $485 $616 forward 7 unknown #
coedge $-1 $327 $326 $492 $617 reversed $127 $-1 #
edge $-1 $618 0 $489 12.954189269246495 $483 $619 forward 7 unknown #
vertex $-1 $329 $620 #
straight-curve $-1 -20.895952061294942 -37.141945319201284 17.294637604691001 -1 0 0 I I #
coedge $-1 $613 $330 $333 $496 reversed $481 $-1 #
coedge $-1 $330 $613 $487 $617 forward $481 $-1 #
vertex $-1 $331 $621 #
straight-curve $-1 -32.4735080634198 -44.19730230253785 42.519202177768925 0 0 1 I I #
straight-curve $-1 -32.4735080634198 -44.19730230253785 6.4303402292900103 0 -0.54463902268945019 -0.83867057594974714 I I #
edge $-1 $615 -51.110300181759968 $334 -32.4735080634198 $491 $622 forward 7 unknown #
point $-1 -32.4735080634198 -44.19730230253785 17.294637604691001 #
point $-1 -32.4735080634198 -37.141945319201277 17.294637604691001 #
edge $-1 $623 1 $623 0 $337 $-1 forward 7 unknown #
vertex $-1 $338 $624 #
ellipse-curve $-1 -41.791904122589884 -35.083469126516881 8.2347977649162214 0 -0.83867057594974714 0.54463902268945019 2 0 0 1 I I #
point $-1 -39.791904122589884 -40.66962381086956 11.8624889169905 #
plane-surface $-1 0 0 17.294637604691001 0 0 1 1 0 0 forward_v I I I I #
coedge $-1 $514 $513 $506 $625 forward $342 $-1 #
coedge $-1 $506 $344 $346 $510 reversed $216 $-1 #
coedge $-1 $344 $505 $504 $625 reversed $216 $-1 #
coedge $-1 $352 $347 $344 $508 forward $353 $-1 #
edge $-1 $511 -45.479609690028703 $626 -38.42425270669213 $507 $627 forward 7 unknown #
coedge $-1 $346 $345 $514 $628 reversed $136 $-1 #
edge $-1 $629 0 $511 12.954189269246495 $505 $630 forward 7 unknown #
vertex $-1 $348 $631 #
straight-curve $-1 -4.8757266779761466 -37.141945319201284 17.294637604691001 -1 0 0 I I #
coedge $-1 $504 $349 $352 $518 reversed $342 $-1 #
coedge $-1 $349 $504 $509 $628 forward $342 $-1 #
vertex $-1 $350 $632 #
straight-curve $-1 -0.4330572967822075 -44.19730230253785 42.519202177768925 0 0 1 I I #
straight-curve $-1 -0.4330572967822075 -44.19730230253785 6.4303402292900103 0 -0.54463902268945019 -0.83867057594974714 I I #
edge $-1 $626 -19.069849415122377 $354 -0.4330572967822075 $513 $633 forward 7 unknown #
point $-1 -0.4330572967822075 -44.19730230253785 17.294637604691001 #
point $-1 -0.4330572967822075 -37.141945319201277 17.294637604691001 #
edge $-1 $634 1 $634 0 $357 $-1 forward 7 unknown #
vertex $-1 $358 $635 #
ellipse-curve $-1 -9.7514533559522931 -35.083469126516881 8.2347977649162214 0 -0.83867057594974714 0.54463902268945019 2 0 0 1 I I #
point $-1 -7.7514533559522931 -40.66962381086956 11.8624889169905 #
plane-surface $-1 0 0 17.294637604691001 0 0 1 1 0 0 forward_v I I I I #
coedge $-1 $536 $535 $528 $636 forward $362 $-1 #
coedge $-1 $528 $364 $366 $532 reversed $231 $-1 #
coedge $-1 $364 $527 $526 $636 reversed $231 $-1 #
coedge $-1 $372 $367 $364 $530 forward $373 $-1 #
edge $-1 $533 -45.479609690028703 $637 -38.42425270669213 $529 $638 forward 7 unknown #
coedge $-1 $366 $365 $536 $639 reversed $145 $-1 #
edge $-1 $640 0 $533 12.954189269246495 $527 $641 forward 7 unknown #
vertex $-1 $368 $642 #
straight-curve $-1 11.144498705342649 -37.141945319201284 17.294637604691001 -1 0 0 I I #
coedge $-1 $526 $369 $372 $540 reversed $362 $-1 #
coedge $-1 $369 $526 $531 $639 forward $362 $-1 #
vertex $-1 $370 $643 #
straight-curve $-1 31.607393469855381 -44.19730230253785 42.519202177768925 0 0 1 I I #
straight-curve $-1 31.607393469855381 -44.19730230253785 6.4303402292900103 0 -0.54463902268945019 -0.83867057594974714 I I #
edge $-1 $637 12.970601351515212 $374 31.607393469855381 $535 $644 forward 7 unknown #
point $-1 31.607393469855381 -44.19730230253785 17.294637604691001 #
point $-1 31.607393469855381 -37.141945319201277 17.294637604691001 #
edge $-1 $645 1 $645 0 $377 $-1 forward 7 unknown #
vertex $-1 $378 $646 #
ellipse-curve $-1 22.288997410685297 -35.083469126516881 8.2347977649162214 0 -0.83867057594974714 0.54463902268945019 2 0 0 1 I I #
point $-1 24.288997410685297 -40.66962381086956 11.8624889169905 #
plane-surface $-1 0 0 17.294637604691001 0 0 1 1 0 0 forward_v I I I I #
coedge $-1 $558 $557 $550 $647 forward $382 $-1 #
coedge $-1 $550 $384 $386 $554 reversed $246 $-1 #
coedge $-1 $384 $549 $548 $647 reversed $246 $-1 #
coedge $-1 $392 $387 $384 $552 forward $393 $-1 #
edge $-1 $555 -45.479609690028703 $648 -38.42425270669213 $551 $649 forward 7 unknown #
coedge $-1 $386 $385 $558 $650 reversed $154 $-1 #
edge $-1 $651 0 $555 12.954189269246495 $549 $652 forward 7 unknown #
vertex $-1 $388 $653 #
straight-curve $-1 27.164724088661444 -37.141945319201284 17.294637604691001 -1 0 0 I I #
coedge $-1 $548 $389 $392 $562 reversed $382 $-1 #
coedge $-1 $389 $548 $553 $650 forward $382 $-1 #
vertex $-1 $390 $654 #
straight-curve $-1 63.647844236492972 -44.19730230253785 42.519202177768925 0 0 1 I I #
straight-curve $-1 63.647844236492972 -44.19730230253785 6.4303402292900103 0 -0.54463902268945019 -0.83867057594974714 I I #
edge $-1 $648 45.011052118152804 $394 63.647844236492972 $557 $655 forward 7 unknown #
point $-1 63.647844236492972 -44.19730230253785 17.294637604691001 #
point $-1 63.647844236492972 -37.141945319201277 17.294637604691001 #
edge $-1 $656 1 $656 0 $397 $-1 forward 7 unknown #
vertex $-1 $398 $657 #
ellipse-curve $-1 54.329448177322888 -35.083469126516881 8.2347977649162214 0 -0.83867057594974714 0.54463902268945019 2 0 0 1 I I #
point $-1 56.329448177322888 -40.66962381086956 11.8624889169905 #
plane-surface $-1 72.165288247321996 0 0 -1 0 0 0 0 1 forward_v I I I I #
coedge $-1 $406 $404 $408 $574 reversed $261 $-1 #
edge $-1 $419 -17.294637604691001 $576 17.294637604691001 $418 $658 forward 7 unknown #
vertex $-1 $574 $659 #
straight-curve $-1 -72.165288247321996 -44.19730230253785 0 0 0 -1 I I #
edge $-1 $572 -44.19730230253785 $576 44.19730230253785 $570 $660 forward 7 unknown #
straight-curve $-1 0 -44.19730230253785 -17.294637604691001 -1 0 0 I I #
vertex $-1 $411 $661 #
straight-curve $-1 0 44.19730230253785 -17.294637604691001 1 0 0 I I #
point $-1 72.165288247321996 44.19730230253785 -17.294637604691001 #
point $-1 72.165288247321996 -44.19730230253785 -17.294637604691001 #
straight-curve $-1 -72.165288247321996 0 17.294637604691001 0 -1 0 I I #
point $-1 -72.165288247321996 44.19730230253785 17.294637604691001 #
point $-1 -72.165288247321996 -44.19730230253785 17.294637604691001 #
straight-curve $-1 72.165288247321996 -44.19730230253785 0 0 0 -1 I I #
straight-curve $-1 72.165288247321996 44.19730230253785 0 0 0 -1 I I #
plane-surface $-1 -72.165288247321996 0 0 1 0 0 0 0 -1 forward_v I I I I #
edge $-1 $440 6.3649491543515886 $444 14.114732898657689 $443 $662 forward 7 unknown #
edge $-1 $448 -14.114732898657689 $439 -6.3649491543515886 $446 $663 forward 7 unknown #
straight-curve $-1 -55.996514819228366 -24.354573925162327 0 0 0 -1 I I #
edge $-1 $592 -17.294637604691001 $590 17.294637604691001 $450 $664 forward 7 unknown #
vertex $-1 $589 $665 #
straight-curve $-1 -32.040450766637591 -16.604790180856227 -17.294637604691001 1 0 0 I I #
vertex $-1 $451 $666 #
straight-curve $-1 -32.040450766637591 -16.604790180856227 17.294637604691001 -1 0 0 I I #
point $-1 -55.996514819228366 -16.604790180856227 17.294637604691001 #
point $-1 -55.996514819228366 -16.604790180856227 -17.294637604691001 #
point $-1 -55.996514819228366 -24.354573925162327 -17.294637604691001 #
point $-1 -55.996514819228366 -24.354573925162327 17.294637604691001 #
straight-curve $-1 -72.165288247321996 0 17.294637604691001 0 -1 0 I I #
straight-curve $-1 -72.165288247321996 0 -17.294637604691001 0 1 0 I I #
edge $-1 $601 67.655698165318469 $604 82.844115781745387 $456 $667 forward 7 unknown #
vertex $-1 $470 $668 #
straight-curve $-1 -2.6496540667878321 33.165984423219989 17.294637604691005 0 1 0 I I #
edge $-1 $604 -4.6417743195815149 $467 19.224631092320209 $466 $669 forward 7 unknown #
vertex $-1 $603 $670 #
straight-curve $-1 -2.6496540667878321 -24.498207121507335 57.734747815796851 0 -0.77714595512881146 0.62932039886446345 I I #
point $-1 -2.6496540667878321 25.441168961378651 17.294637604691005 #
point $-1 -26.516059478689556 44.19730230253785 2.1062199882640869 #
straight-curve $-1 0 44.19730230253785 17.294637604691001 -1 0 0 I I #
vertex $-1 $473 $671 #
point $-1 -18.19708650386049 31.578294155863947 5.6981994654395507 #
vertex $-1 $477 $672 #
point $-1 -7.9686270416168981 31.578294155863947 5.6981994654395507 #
coedge $-1 $492 $491 $484 $614 forward $481 $-1 #
edge $-1 $615 25.224564573077924 $618 36.088861948478915 $613 $673 forward 7 unknown #
vertex $-1 $496 $674 #
straight-curve $-1 -51.110300181759968 -82.621555009229979 17.294637604691005 0 -1 0 I I #
edge $-1 $618 -30.214348120465026 $493 -11.577556002124858 $492 $675 forward 7 unknown #
vertex $-1 $617 $676 #
straight-curve $-1 -51.110300181759968 -44.19730230253785 6.4303402292900103 0 0.54463902268945019 0.83867057594974714 I I #
point $-1 -51.110300181759968 -37.141945319201277 17.294637604691001 #
point $-1 -32.4735080634198 -44.19730230253785 6.4303402292900103 #
straight-curve $-1 0 -44.19730230253785 17.294637604691001 1 0 0 I I #
vertex $-1 $499 $677 #
point $-1 -39.791904122589884 -35.083469126516881 8.2347977649162214 #
edge $-1 $626 25.224564573077924 $629 36.088861948478915 $504 $678 forward 7 unknown #
vertex $-1 $518 $679 #
straight-curve $-1 -19.069849415122377 -82.621555009229979 17.294637604691005 0 -1 0 I I #
edge $-1 $629 -14.19412273714623 $515 4.4426693811939391 $514 $680 forward 7 unknown #
vertex $-1 $628 $681 #
straight-curve $-1 -19.069849415122377 -44.19730230253785 6.4303402292900103 0 0.54463902268945019 0.83867057594974714 I I #
point $-1 -19.069849415122377 -37.141945319201277 17.294637604691001 #
point $-1 -0.4330572967822075 -44.19730230253785 6.4303402292900103 #
straight-curve $-1 0 -44.19730230253785 17.294637604691001 1 0 0 I I #
vertex $-1 $521 $682 #
point $-1 -7.7514533559522931 -35.083469126516881 8.2347977649162214 #
edge $-1 $637 25.224564573077924 $640 36.088861948478915 $526 $683 forward 7 unknown #
vertex $-1 $540 $684 #
straight-curve $-1 12.970601351515212 -82.621555009229979 17.294637604691005 0 -1 0 I I #
edge $-1 $640 1.8261026461725631 $537 20.462894764512733 $536 $685 forward 7 unknown #
vertex $-1 $639 $686 #
straight-curve $-1 12.970601351515212 -44.19730230253785 6.4303402292900103 0 0.54463902268945019 0.83867057594974714 I I #
point $-1 12.970601351515212 -37.141945319201277 17.294637604691001 #
point $-1 31.607393469855381 -44.19730230253785 6.4303402292900103 #
straight-curve $-1 0 -44.19730230253785 17.294637604691001 1 0 0 I I #
vertex $-1 $543 $687 #
point $-1 24.288997410685297 -35.083469126516881 8.2347977649162214 #
edge $-1 $648 25.224564573077924 $651 36.088861948478915 $548 $688 forward 7 unknown #
vertex $-1 $562 $689 #
straight-curve $-1 45.011052118152804 -82.621555009229979 17.294637604691005 0 -1 0 I I #
edge $-1 $651 17.84632802949136 $559 36.483120147831528 $558 $690 forward 7 unknown #
vertex $-1 $650 $691 #
straight-curve $-1 45.011052118152804 -44.19730230253785 6.4303402292900103 0 0.54463902268945019 0.83867057594974714 I I #
point $-1 45.011052118152804 -37.141945319201277 17.294637604691001 #
point $-1 63.647844236492972 -44.19730230253785 6.4303402292900103 #
straight-curve $-1 0 -44.19730230253785 17.294637604691001 1 0 0 I I #
vertex $-1 $565 $692 #
point $-1 56.329448177322888 -35.083469126516881 8.2347977649162214 #
straight-curve $-1 -72.165288247321996 44.19730230253785 0 0 0 -1 I I #
point $-1 -72.165288247321996 -44.19730230253785 -17.294637604691001 #
straight-curve $-1 -72.165288247321996 0 -17.294637604691001 0 1 0 I I #
point $-1 -72.165288247321996 44.19730230253785 -17.294637604691001 #
straight-curve $-1 -55.996514819228366 -10.239841026504639 -17.294637604691001 0 -1 0 I I #
straight-curve $-1 -55.996514819228366 -10.239841026504639 17.294637604691001 0 1 0 I I #
straight-curve $-1 -72.165288247321996 -16.604790180856227 0 0 0 -1 I I #
point $-1 -72.165288247321996 -16.604790180856227 -17.294637604691001 #
point $-1 -72.165288247321996 -16.604790180856227 17.294637604691001 #
straight-curve $-1 -2.6496540667878321 44.19730230253785 84.950335770009474 0 0 -1 I I #
point $-1 -2.6496540667878321 44.19730230253785 17.294637604691001 #
straight-curve $-1 -7.291428386369347 44.19730230253785 2.1062199882640833 -1 0 0 I I #
point $-1 -2.6496540667878321 44.19730230253785 2.1062199882640869 #
point $-1 -19.69708650386049 30.63431355756725 4.5324805327463338 #
point $-1 -9.4686270416168981 30.63431355756725 4.5324805327463338 #
straight-curve $-1 -51.110300181759968 -44.19730230253785 42.519202177768925 0 0 -1 I I #
point $-1 -51.110300181759968 -44.19730230253785 17.294637604691001 #
straight-curve $-1 -20.895952061294942 -44.19730230253785 6.430340229290012 1 0 0 I I #
point $-1 -51.110300181759968 -44.19730230253785 6.4303402292900103 #
point $-1 -41.791904122589884 -33.406127974617384 7.1455197195373206 #
straight-curve $-1 -19.069849415122377 -44.19730230253785 42.519202177768925 0 0 -1 I I #
point $-1 -19.069849415122377 -44.19730230253785 17.294637604691001 #
straight-curve $-1 -4.8757266779761466 -44.19730230253785 6.430340229290012 1 0 0 I I #
point $-1 -19.069849415122377 -44.19730230253785 6.4303402292900103 #
point $-1 -9.7514533559522931 -33.406127974617384 7.1455197195373206 #
straight-curve $-1 12.970601351515212 -44.19730230253785 42.519202177768925 0 0 -1 I I #
point $-1 12.970601351515212 -44.19730230253785 17.294637604691001 #
straight-curve $-1 11.144498705342649 -44.19730230253785 6.430340229290012 1 0 0 I I #
point $-1 12.970601351515212 -44.19730230253785 6.4303402292900103 #
point $-1 22.288997410685297 -33.406127974617384 7.1455197195373206 #
straight-curve $-1 45.011052118152804 -44.19730230253785 42.519202177768925 0 0 -1 I I #
point $-1 45.011052118152804 -44.19730230253785 17.294637604691001 #
straight-curve $-1 27.164724088661444 -44.19730230253785 6.430340229290012 1 0 0 I I #
point $-1 45.011052118152804 -44.19730230253785 6.4303402292900103 #
point $-1 54.329448177322888 -33.406127974617384 7.1455197195373206 #
End-of-ACIS-data 