500 0 9 0           
7 Unknown 11 ACIS 5.0 NT 24 Fri Mar 26 16:49:44 1999 
-1 9.9999999999999995e-007 1e-010 
body $-1 $9 $-1 $10 #
body $-1 $11 $-1 $12 #
body $-1 $13 $-1 $14 #
body $-1 $15 $-1 $16 #
body $-1 $17 $-1 $18 #
body $-1 $19 $-1 $20 #
body $-1 $21 $-1 $22 #
body $-1 $23 $-1 $24 #
body $-1 $25 $-1 $26 #
lump $-1 $-1 $27 $0 #
transform $-1 1 0 0 0 1 0 0 0 1 71.502426221503342 35.50092079569059 15.701142740292001 1 rotate no_reflect no_shear #
lump $-1 $-1 $28 $1 #
transform $-1 1 0 0 0 1 0 0 0 1 71.502426221503342 35.50092079569059 15.701142740292001 1 rotate no_reflect no_shear #
lump $-1 $-1 $29 $2 #
transform $-1 1 0 0 0 1 0 0 0 1 71.502426221503342 35.50092079569059 15.701142740292001 1 rotate no_reflect no_shear #
lump $-1 $-1 $30 $3 #
transform $-1 1 0 0 0 1 0 0 0 1 71.502426221503342 35.50092079569059 15.701142740292001 1 rotate no_reflect no_shear #
lump $-1 $-1 $31 $4 #
transform $-1 1 0 0 0 1 0 0 0 1 71.502426221503342 35.50092079569059 15.701142740292001 1 rotate no_reflect no_shear #
lump $-1 $-1 $32 $5 #
transform $-1 1 0 0 0 1 0 0 0 1 71.502426221503342 35.50092079569059 15.701142740292001 1 rotate no_reflect no_shear #
lump $-1 $-1 $33 $6 #
transform $-1 1 0 0 0 1 0 0 0 1 71.502426221503342 35.50092079569059 15.701142740292001 1 rotate no_reflect no_shear #
lump $-1 $-1 $34 $7 #
transform $-1 1 0 0 0 1 0 0 0 1 71.502426221503342 35.50092079569059 15.701142740292001 1 rotate no_reflect no_shear #
lump $-1 $-1 $35 $8 #
transform $-1 1 0 0 0 1 0 0 0 1 71.502426221503342 35.50092079569059 15.701142740292001 1 rotate no_reflect no_shear #
shell $-1 $-1 $-1 $36 $-1 $9 #
shell $-1 $-1 $-1 $37 $-1 $11 #
shell $-1 $-1 $-1 $38 $-1 $13 #
shell $-1 $-1 $-1 $39 $-1 $15 #
shell $-1 $-1 $-1 $40 $-1 $17 #
shell $-1 $-1 $-1 $41 $-1 $19 #
shell $-1 $-1 $-1 $42 $-1 $21 #
shell $-1 $-1 $-1 $43 $-1 $23 #
shell $-1 $-1 $-1 $44 $-1 $25 #
face $-1 $45 $46 $27 $-1 $47 forward single #
face $-1 $48 $49 $28 $-1 $50 forward single #
face $-1 $51 $52 $29 $-1 $53 reversed single #
face $-1 $54 $55 $30 $-1 $56 forward single #
face $-1 $57 $58 $31 $-1 $59 forward single #
face $-1 $60 $61 $32 $-1 $62 reversed single #
face $-1 $63 $64 $33 $-1 $65 forward single #
face $-1 $66 $67 $34 $-1 $68 reversed single #
face $-1 $69 $70 $35 $-1 $71 forward single #
face $-1 $72 $73 $27 $-1 $74 reversed single #
loop $-1 $-1 $75 $36 #
plane-surface $-1 0 0 15.701142740292001 0 0 1 1 0 0 forward_v I I I I #
face $-1 $76 $77 $28 $-1 $78 forward single #
loop $-1 $-1 $79 $37 #
plane-surface $-1 0 -35.50092079569059 0 0 1 0 0 0 1 forward_v I I I I #
face $-1 $80 $81 $29 $-1 $82 reversed single #
loop $-1 $-1 $83 $38 #
plane-surface $-1 120.42856865746428 -17.656801212278637 197.24332695334471 0 -1 0 -0.85716730853699208 0 -0.51503806187062418 forward_v I I I I #
face $-1 $84 $85 $30 $-1 $86 forward single #
loop $-1 $87 $88 $39 #
cone-surface $-1 66.028543007541387 -22.975107260853875 7.7189431321085928 -0.85716730853699208 0 -0.51503806187062418 0.51503806187062418 0 -0.85716730853699208 1 I I 0 1 1 forward I I I I #
face $-1 $89 $90 $31 $-1 $91 forward single #
loop $-1 $92 $93 $40 #
cone-surface $-1 66.028543007541387 -19.784123631708731 7.7189431321085928 -0.85716730853699208 0 -0.51503806187062418 0.51503806187062418 0 -0.85716730853699208 1 I I 0 1 1 forward I I I I #
face $-1 $94 $95 $32 $-1 $96 reversed single #
loop $-1 $-1 $97 $41 #
plane-surface $-1 -143.0048534009585 -7.4857988017473858 131.05789122509171 0 1 0 -0.50000000669873634 0 0.8660253999169214 forward_v I I I I #
face $-1 $98 $99 $33 $-1 $100 forward single #
loop $-1 $101 $102 $42 #
cone-surface $-1 -63.326143603800091 -2.1919527070905644 10.028491669649327 0.50000000669873634 0 -0.8660253999169214 1.7320507998338428 0 1.0000000133974727 1 I I 0 1 2 forward I I I I #
face $-1 $103 $104 $34 $-1 $105 reversed single #
loop $-1 $-1 $106 $43 #
plane-surface $-1 -143.0048534009585 7.2965977278403642 131.05789122509171 0 1 0 -0.50000000669873634 0 0.8660253999169214 forward_v I I I I #
face $-1 $107 $108 $35 $-1 $109 forward single #
loop $-1 $110 $111 $44 #
cone-surface $-1 -63.326143603800091 12.590443822497186 10.028491669649327 0.50000000669873634 0 -0.8660253999169214 1.7320507998338428 0 1.0000000133974727 1 I I 0 1 2 forward I I I I #
face $-1 $112 $113 $27 $-1 $114 reversed single #
loop $-1 $-1 $115 $45 #
plane-surface $-1 0 0 -15.701142740292001 0 0 1 1 0 0 forward_v I I I I #
coedge $-1 $116 $117 $118 $119 forward $46 $-1 #
face $-1 $120 $121 $28 $-1 $122 reversed single #
loop $-1 $-1 $123 $48 #
plane-surface $-1 0 0 15.701142740292001 0 0 1 1 0 0 forward_v I I I I #
coedge $-1 $124 $125 $126 $127 forward $49 $-1 #
face $-1 $128 $129 $29 $-1 $130 reversed single #
loop $-1 $-1 $131 $51 #
plane-surface $-1 -2.150515818837448 -21.379615446281306 123.59038491300394 0.85716730853699208 0 0.51503806187062418 0.51503806187062418 0 -0.85716730853699208 forward_v I I I I #
coedge $-1 $132 $133 $134 $135 reversed $52 $-1 #
face $-1 $-1 $136 $30 $-1 $137 forward single #
loop $-1 $138 $139 $54 #
cone-surface $-1 64.539349857215157 -22.975107260853875 6.8241456447847622 -0.85716730853699208 0 -0.51503806187062418 0.25751903093531209 0 -0.42858365426849604 1 I I -0.70710678118654746 0.70710678118654746 0.5 forward I I I I #
loop $-1 $-1 $140 $39 #
coedge $-1 $88 $88 $141 $142 reversed $55 $-1 #
face $-1 $-1 $143 $31 $-1 $144 forward single #
loop $-1 $145 $146 $57 #
cone-surface $-1 64.539349857215157 -19.784123631708731 6.8241456447847622 -0.85716730853699208 0 -0.51503806187062418 0.25751903093531209 0 -0.42858365426849604 1 I I -0.70710678118654746 0.70710678118654746 0.5 forward I I I I #
loop $-1 $-1 $147 $40 #
coedge $-1 $93 $93 $148 $149 reversed $58 $-1 #
face $-1 $150 $151 $32 $-1 $152 reversed single #
loop $-1 $-1 $153 $60 #
plane-surface $-1 -71.502426221503356 -2.1919527070905644 7.2120566980765091 -0.50000000669873634 0 0.8660253999169214 0.8660253999169214 0 0.50000000669873634 forward_v I I I I #
coedge $-1 $154 $155 $156 $157 reversed $61 $-1 #
face $-1 $-1 $158 $33 $-1 $159 forward single #
loop $-1 $160 $161 $63 #
cone-surface $-1 -62.001625015541876 -2.1919527070905644 7.7343582201974801 0.50000000669873634 0 -0.8660253999169214 0.8660253999169214 0 0.50000000669873634 1 I I -0.70710678118654746 0.70710678118654746 1 forward I I I I #
loop $-1 $-1 $162 $42 #
coedge $-1 $102 $102 $163 $164 reversed $64 $-1 #
face $-1 $165 $166 $34 $-1 $167 reversed single #
loop $-1 $-1 $168 $66 #
plane-surface $-1 -71.502426221503356 12.590443822497186 7.2120566980765091 -0.50000000669873634 0 0.8660253999169214 0.8660253999169214 0 0.50000000669873634 forward_v I I I I #
coedge $-1 $169 $170 $171 $172 reversed $67 $-1 #
face $-1 $-1 $173 $35 $-1 $174 forward single #
loop $-1 $175 $176 $69 #
cone-surface $-1 -62.001625015541876 12.590443822497186 7.7343582201974801 0.50000000669873634 0 -0.8660253999169214 0.8660253999169214 0 0.50000000669873634 1 I I -0.70710678118654746 0.70710678118654746 1 forward I I I I #
loop $-1 $-1 $177 $44 #
coedge $-1 $111 $111 $178 $179 reversed $70 $-1 #
face $-1 $180 $181 $27 $-1 $182 reversed single #
loop $-1 $-1 $183 $72 #
plane-surface $-1 0 -35.50092079569059 0 0 1 0 0 0 1 forward_v I I I I #
coedge $-1 $184 $185 $186 $187 forward $73 $-1 #
coedge $-1 $188 $75 $189 $190 forward $46 $-1 #
coedge $-1 $75 $188 $191 $192 forward $46 $-1 #
coedge $-1 $193 $194 $75 $119 reversed $195 $-1 #
edge $-1 $196 -35.50092079569059 $197 35.50092079569059 $118 $198 forward 7 unknown #
face $-1 $199 $200 $28 $-1 $201 reversed single #
loop $-1 $-1 $202 $76 #
plane-surface $-1 -71.502426221503342 0 0 1 0 0 0 0 -1 forward_v I I I I #
coedge $-1 $203 $204 $125 $205 forward $77 $-1 #
coedge $-1 $206 $79 $207 $208 reversed $49 $-1 #
coedge $-1 $79 $206 $123 $205 reversed $49 $-1 #
coedge $-1 $209 $210 $79 $127 reversed $211 $-1 #
edge $-1 $212 -15.701142740292001 $213 15.701142740292001 $126 $214 forward 7 unknown #
face $-1 $215 $216 $29 $-1 $217 forward single #
loop $-1 $-1 $218 $80 #
plane-surface $-1 120.42856865746428 -25.102429680283976 197.24332695334471 0 1 0 0.85716730853699208 0 0.51503806187062418 forward_v I I I I #
coedge $-1 $219 $220 $221 $222 reversed $81 $-1 #
coedge $-1 $133 $83 $223 $224 reversed $52 $-1 #
coedge $-1 $83 $132 $219 $225 reversed $52 $-1 #
coedge $-1 $221 $226 $83 $135 forward $216 $-1 #
edge $-1 $227 -11.288141892771201 $228 -2.4615944569627501 $134 $229 forward 7 unknown #
loop $-1 $-1 $141 $84 #
plane-surface $-1 -2.150515818837448 -21.379615446281306 123.59038491300394 0.85716730853699208 0 0.51503806187062418 0.51503806187062418 0 -0.85716730853699208 forward_v I I I I #
loop $-1 $-1 $230 $54 #
coedge $-1 $139 $139 $140 $231 reversed $85 $-1 #
coedge $-1 $140 $140 $139 $231 forward $87 $-1 #
coedge $-1 $141 $141 $88 $142 forward $136 $-1 #
edge $-1 $232 0 $232 6.2831853071796004 $141 $233 forward 7 unknown #
loop $-1 $-1 $148 $89 #
plane-surface $-1 -2.150515818837448 -21.379615446281306 123.59038491300394 0.85716730853699208 0 0.51503806187062418 0.51503806187062418 0 -0.85716730853699208 forward_v I I I I #
loop $-1 $-1 $234 $57 #
coedge $-1 $146 $146 $147 $235 reversed $90 $-1 #
coedge $-1 $147 $147 $146 $235 forward $92 $-1 #
coedge $-1 $148 $148 $93 $149 forward $143 $-1 #
edge $-1 $236 0 $236 6.2831853071796004 $148 $237 forward 7 unknown #
face $-1 $238 $239 $32 $-1 $240 reversed single #
loop $-1 $-1 $241 $94 #
plane-surface $-1 -143.0048534009585 3.1018933875662569 131.05789122509171 0 -1 0 0.50000000669873634 0 -0.8660253999169214 forward_v I I I I #
coedge $-1 $242 $243 $244 $245 reversed $95 $-1 #
coedge $-1 $155 $97 $246 $247 reversed $61 $-1 #
coedge $-1 $97 $154 $242 $248 reversed $61 $-1 #
coedge $-1 $244 $249 $97 $157 forward $250 $-1 #
edge $-1 $251 4.7897590604861762e-007 $252 14.703528551263432 $156 $253 forward 7 unknown #
loop $-1 $-1 $163 $98 #
plane-surface $-1 -71.502426221503356 -2.1919527070905644 7.2120566980765091 -0.50000000669873634 0 0.8660253999169214 0.8660253999169214 0 0.50000000669873634 forward_v I I I I #
loop $-1 $-1 $254 $63 #
coedge $-1 $161 $161 $162 $255 reversed $99 $-1 #
coedge $-1 $162 $162 $161 $255 forward $101 $-1 #
coedge $-1 $163 $163 $102 $164 forward $158 $-1 #
edge $-1 $256 0 $256 6.2831853071796004 $163 $257 forward 7 unknown #
face $-1 $258 $259 $34 $-1 $260 forward single #
loop $-1 $-1 $261 $103 #
plane-surface $-1 -143.0048534009585 17.884289917154007 131.05789122509171 0 -1 0 0.50000000669873634 0 -0.8660253999169214 forward_v I I I I #
coedge $-1 $262 $263 $264 $265 reversed $104 $-1 #
coedge $-1 $170 $106 $266 $267 reversed $67 $-1 #
coedge $-1 $106 $169 $262 $268 reversed $67 $-1 #
coedge $-1 $264 $269 $106 $172 forward $259 $-1 #
edge $-1 $270 4.7897590604861762e-007 $271 14.703528551263432 $171 $272 forward 7 unknown #
loop $-1 $-1 $178 $107 #
plane-surface $-1 -71.502426221503356 12.590443822497186 7.2120566980765091 -0.50000000669873634 0 0.8660253999169214 0.8660253999169214 0 0.50000000669873634 forward_v I I I I #
loop $-1 $-1 $273 $69 #
coedge $-1 $176 $176 $177 $274 reversed $108 $-1 #
coedge $-1 $177 $177 $176 $274 forward $110 $-1 #
coedge $-1 $178 $178 $111 $179 forward $173 $-1 #
edge $-1 $275 0 $275 6.2831853071796004 $178 $276 forward 7 unknown #
face $-1 $277 $278 $27 $-1 $279 reversed single #
loop $-1 $-1 $280 $112 #
plane-surface $-1 -71.502426221503342 0 0 1 0 0 0 0 -1 forward_v I I I I #
coedge $-1 $281 $191 $282 $283 forward $113 $-1 #
coedge $-1 $284 $115 $281 $285 forward $73 $-1 #
coedge $-1 $115 $284 $286 $287 forward $73 $-1 #
coedge $-1 $194 $193 $115 $187 reversed $195 $-1 #
edge $-1 $288 -35.50092079569059 $289 35.50092079569059 $186 $290 forward 7 unknown #
coedge $-1 $117 $116 $291 $292 forward $46 $-1 #
coedge $-1 $293 $294 $116 $190 reversed $278 $-1 #
edge $-1 $197 -71.502426221503342 $295 71.502426221503342 $189 $296 forward 7 unknown #
coedge $-1 $183 $297 $117 $192 reversed $113 $-1 #
edge $-1 $298 -71.502426221503342 $196 71.502426221503342 $191 $299 forward 7 unknown #
coedge $-1 $186 $118 $297 $300 forward $195 $-1 #
coedge $-1 $118 $186 $293 $301 reversed $195 $-1 #
loop $-1 $-1 $193 $277 #
vertex $-1 $119 $302 #
vertex $-1 $119 $303 #
straight-curve $-1 71.502426221503342 0 15.701142740292001 0 1 0 I I #
face $-1 $304 $211 $28 $-1 $305 reversed single #
loop $-1 $-1 $306 $120 #
plane-surface $-1 -67.626998744448386 -45.899411911097204 0 0 1 0 0 0 1 forward_v I I I I #
coedge $-1 $307 $308 $206 $309 forward $121 $-1 #
coedge $-1 $310 $123 $308 $311 forward $77 $-1 #
coedge $-1 $123 $310 $209 $312 forward $77 $-1 #
edge $-1 $212 63.75157126739343 $313 71.502426221503342 $123 $314 forward 7 unknown #
coedge $-1 $125 $124 $202 $309 reversed $49 $-1 #
coedge $-1 $315 $316 $124 $208 forward $317 $-1 #
edge $-1 $318 -71.502426221503342 $213 -63.75157126739343 $207 $319 forward 7 unknown #
coedge $-1 $320 $126 $204 $312 reversed $211 $-1 #
coedge $-1 $126 $320 $315 $321 reversed $211 $-1 #
loop $-1 $-1 $320 $199 #
vertex $-1 $205 $322 #
vertex $-1 $321 $323 #
straight-curve $-1 -63.75157126739343 -35.50092079569059 0 0 0 -1 I I #
face $-1 $-1 $324 $29 $-1 $325 reversed single #
loop $-1 $-1 $134 $128 #
plane-surface $-1 0 0 15.701142740292001 0 0 1 1 0 0 forward_v I I I I #
coedge $-1 $326 $327 $328 $329 reversed $129 $-1 #
coedge $-1 $330 $131 $133 $225 forward $81 $-1 #
coedge $-1 $131 $330 $326 $331 forward $81 $-1 #
coedge $-1 $328 $134 $131 $222 forward $216 $-1 #
edge $-1 $228 6.9669934891379839 $332 14.412621957143323 $221 $333 forward 7 unknown #
coedge $-1 $334 $335 $132 $224 forward $324 $-1 #
edge $-1 $336 -97.610363039970181 $227 -82.920520736380354 $223 $337 forward 7 unknown #
edge $-1 $228 125.8671919684579 $336 143.00485244300677 $133 $338 forward 7 unknown #
coedge $-1 $134 $328 $334 $339 forward $216 $-1 #
vertex $-1 $224 $340 #
vertex $-1 $135 $341 #
straight-curve $-1 60.214284328732141 -17.656801212278637 15.701142740291999 -1 0 0 I I #
coedge $-1 $230 $230 $-1 $342 reversed $138 $-1 #
edge $-1 $343 0 $343 6.2831853071796004 $139 $344 forward 7 unknown #
vertex $-1 $142 $345 #
ellipse-curve $-1 67.089152503599109 -22.975107260853875 8.3562215884971014 0.85716730853699208 0 0.51503806187062418 0.51503806187062418 0 -0.85716730853699208 1 I I #
coedge $-1 $234 $234 $-1 $346 reversed $145 $-1 #
edge $-1 $347 0 $347 6.2831853071796004 $146 $348 forward 7 unknown #
vertex $-1 $149 $349 #
ellipse-curve $-1 67.089152503599109 -19.784123631708731 8.3562215884971014 0.85716730853699208 0 0.51503806187062418 0.51503806187062418 0 -0.85716730853699208 1 I I #
face $-1 $-1 $250 $32 $-1 $350 forward single #
loop $-1 $-1 $351 $150 #
plane-surface $-1 -71.502426221503342 0 0 1 0 0 0 0 -1 forward_v I I I I #
coedge $-1 $352 $353 $354 $355 reversed $151 $-1 #
coedge $-1 $356 $153 $155 $248 forward $95 $-1 #
coedge $-1 $153 $356 $352 $357 forward $95 $-1 #
coedge $-1 $354 $156 $153 $245 forward $250 $-1 #
edge $-1 $252 -6.3898224482021035 $358 4.1978697411115391 $244 $359 forward 7 unknown #
coedge $-1 $360 $361 $154 $247 forward $239 $-1 #
edge $-1 $362 -58.316888914469338 $251 -49.827802872253855 $246 $363 forward 7 unknown #
edge $-1 $252 -16.978171856966391 $362 -1.6303764080091705e-014 $155 $364 forward 7 unknown #
coedge $-1 $156 $354 $360 $365 forward $250 $-1 #
loop $-1 $-1 $354 $238 #
vertex $-1 $247 $366 #
vertex $-1 $157 $367 #
straight-curve $-1 -71.502426700479248 -7.4857988017473858 15.701142740291999 1 0 0 I I #
coedge $-1 $254 $254 $-1 $368 reversed $160 $-1 #
edge $-1 $369 0 $369 6.2831853071796004 $161 $370 forward 7 unknown #
vertex $-1 $164 $371 #
ellipse-curve $-1 -64.150662185359579 -2.1919527070905644 11.456599719184261 -0.50000000669873634 0 0.8660253999169214 1.7320507998338428 0 1.0000000133974727 1 I I #
face $-1 $-1 $372 $34 $-1 $373 reversed single #
loop $-1 $-1 $171 $165 #
plane-surface $-1 0 0 15.701142740292001 0 0 1 1 0 0 forward_v I I I I #
coedge $-1 $374 $375 $376 $377 reversed $166 $-1 #
coedge $-1 $378 $168 $170 $268 forward $104 $-1 #
coedge $-1 $168 $378 $374 $379 forward $104 $-1 #
coedge $-1 $376 $171 $168 $265 forward $259 $-1 #
edge $-1 $271 1.0013758165917714 $380 11.589068005905414 $264 $381 forward 7 unknown #
coedge $-1 $382 $383 $169 $267 forward $372 $-1 #
edge $-1 $384 -58.316888914469338 $270 -49.827802872253855 $266 $385 forward 7 unknown #
edge $-1 $271 -16.978171856966391 $384 -1.6303764080091705e-014 $170 $386 forward 7 unknown #
coedge $-1 $171 $376 $382 $387 forward $259 $-1 #
vertex $-1 $267 $388 #
vertex $-1 $172 $389 #
straight-curve $-1 -71.502426700479248 7.2965977278403642 15.701142740291999 1 0 0 I I #
coedge $-1 $273 $273 $-1 $390 reversed $175 $-1 #
edge $-1 $391 0 $391 6.2831853071796004 $176 $392 forward 7 unknown #
vertex $-1 $179 $393 #
ellipse-curve $-1 -64.150662185359579 12.590443822497186 11.456599719184261 -0.50000000669873634 0 0.8660253999169214 1.7320507998338428 0 1.0000000133974727 1 I I #
face $-1 $-1 $195 $27 $-1 $394 reversed single #
loop $-1 $-1 $293 $180 #
plane-surface $-1 0 35.50092079569059 0 0 -1 0 0 0 -1 forward_v I I I I #
coedge $-1 $395 $291 $294 $396 forward $181 $-1 #
coedge $-1 $297 $183 $184 $285 reversed $113 $-1 #
coedge $-1 $291 $395 $183 $283 reversed $181 $-1 #
edge $-1 $298 -15.701142740292001 $397 15.701142740292001 $282 $398 forward 7 unknown #
coedge $-1 $185 $184 $395 $399 forward $73 $-1 #
edge $-1 $289 -71.502426221503342 $397 71.502426221503342 $281 $400 forward 7 unknown #
coedge $-1 $294 $293 $185 $287 reversed $278 $-1 #
edge $-1 $401 -71.502426221503342 $288 71.502426221503342 $286 $402 forward 7 unknown #
vertex $-1 $187 $403 #
vertex $-1 $300 $404 #
straight-curve $-1 71.502426221503342 0 -15.701142740292001 0 -1 0 I I #
coedge $-1 $280 $282 $188 $292 reversed $181 $-1 #
edge $-1 $295 -35.50092079569059 $298 35.50092079569059 $291 $405 forward 7 unknown #
coedge $-1 $286 $189 $194 $301 forward $278 $-1 #
coedge $-1 $189 $286 $280 $396 reversed $278 $-1 #
vertex $-1 $190 $406 #
straight-curve $-1 0 35.50092079569059 15.701142740292001 -1 0 0 I I #
coedge $-1 $191 $281 $193 $300 reversed $113 $-1 #
vertex $-1 $292 $407 #
straight-curve $-1 0 -35.50092079569059 15.701142740292001 1 0 0 I I #
edge $-1 $196 -15.701142740292001 $289 15.701142740292001 $193 $408 forward 7 unknown #
edge $-1 $197 -15.701142740292001 $288 15.701142740292001 $194 $409 forward 7 unknown #
point $-1 71.502426221503342 -35.50092079569059 15.701142740292001 #
point $-1 71.502426221503342 35.50092079569059 15.701142740292001 #
face $-1 $-1 $317 $28 $-1 $410 reversed single #
plane-surface $-1 -63.75157126739343 -40.700166353393897 0 -1 0 0 0 0 1 forward_v I I I I #
coedge $-1 $411 $412 $413 $414 forward $200 $-1 #
coedge $-1 $413 $202 $316 $415 reversed $121 $-1 #
coedge $-1 $202 $413 $203 $311 reversed $121 $-1 #
edge $-1 $313 -15.701142740292001 $318 15.701142740292001 $202 $416 forward 7 unknown #
coedge $-1 $204 $203 $412 $417 forward $77 $-1 #
edge $-1 $313 35.50092079569059 $418 45.899411911097204 $308 $419 forward 7 unknown #
edge $-1 $420 -5.199245557703307 $212 5.199245557703307 $209 $421 forward 7 unknown #
vertex $-1 $311 $422 #
straight-curve $-1 0 -35.50092079569059 15.701142740292001 -1 0 0 I I #
coedge $-1 $423 $207 $210 $321 forward $317 $-1 #
coedge $-1 $207 $423 $307 $415 forward $317 $-1 #
loop $-1 $-1 $207 $304 #
vertex $-1 $309 $424 #
straight-curve $-1 0 -35.50092079569059 -15.701142740292001 1 0 0 I I #
coedge $-1 $210 $209 $425 $426 forward $211 $-1 #
edge $-1 $213 -5.199245557703307 $427 5.199245557703307 $210 $428 forward 7 unknown #
point $-1 -63.75157126739343 -35.50092079569059 15.701142740292001 #
point $-1 -63.75157126739343 -35.50092079569059 -15.701142740292001 #
loop $-1 $-1 $223 $215 #
plane-surface $-1 71.502426221503342 0 0 -1 0 0 0 0 1 forward_v I I I I #
coedge $-1 $327 $218 $220 $331 reversed $129 $-1 #
coedge $-1 $218 $326 $429 $430 reversed $129 $-1 #
coedge $-1 $226 $221 $218 $329 forward $216 $-1 #
edge $-1 $332 2.4615944569627501 $431 11.288141892771201 $328 $432 forward 7 unknown #
coedge $-1 $220 $219 $335 $433 reversed $81 $-1 #
edge $-1 $434 -143.00485244300677 $332 -125.8671919684579 $326 $435 forward 7 unknown #
vertex $-1 $222 $436 #
straight-curve $-1 62.675878785694884 -10.689807723140653 15.701142740291999 0 -1 0 I I #
coedge $-1 $429 $223 $226 $339 reversed $324 $-1 #
coedge $-1 $223 $429 $330 $433 forward $324 $-1 #
vertex $-1 $224 $437 #
straight-curve $-1 71.502426221503342 -17.656801212278637 98.621663476672353 0 0 1 I I #
straight-curve $-1 -2.150515818837448 -17.656801212278637 123.59038491300394 0.51503806187062418 0 -0.85716730853699208 I I #
edge $-1 $431 -25.102429680283976 $227 -17.656801212278637 $334 $438 forward 7 unknown #
point $-1 71.502426221503342 -17.656801212278637 15.701142740292001 #
point $-1 62.675878785694891 -17.656801212278637 15.701142740291999 #
edge $-1 $439 1 $439 0 $230 $-1 forward 7 unknown #
vertex $-1 $231 $440 #
ellipse-curve $-1 64.96793351148365 -22.975107260853875 7.0816646757200745 0.85716730853699208 0 0.51503806187062418 0.51503806187062418 0 -0.85716730853699208 1 I I #
point $-1 67.60419056546975 -22.975107260853875 7.4990542799601192 #
edge $-1 $441 1 $441 0 $234 $-1 forward 7 unknown #
vertex $-1 $235 $442 #
ellipse-curve $-1 64.96793351148365 -19.784123631708731 7.0816646757200745 0.85716730853699208 0 0.51503806187062418 0.51503806187062418 0 -0.85716730853699208 1 I I #
point $-1 67.60419056546975 -19.784123631708731 7.4990542799601192 #
plane-surface $-1 0 0 15.701142740292001 0 0 1 1 0 0 forward_v I I I I #
coedge $-1 $361 $360 $353 $443 forward $239 $-1 #
coedge $-1 $353 $241 $243 $357 reversed $151 $-1 #
coedge $-1 $241 $352 $351 $443 reversed $151 $-1 #
coedge $-1 $249 $244 $241 $355 forward $250 $-1 #
edge $-1 $358 -14.703528551263432 $444 -4.7897590604861762e-007 $354 $445 forward 7 unknown #
coedge $-1 $243 $242 $361 $446 reversed $95 $-1 #
edge $-1 $447 1.6303764080091705e-014 $358 16.978171856966391 $352 $448 forward 7 unknown #
vertex $-1 $245 $449 #
straight-curve $-1 -56.798898149215816 -1.0959763535452822 15.701142740292001 0 1 0 I I #
coedge $-1 $351 $246 $249 $365 reversed $239 $-1 #
coedge $-1 $246 $351 $356 $446 forward $239 $-1 #
vertex $-1 $247 $450 #
straight-curve $-1 -71.502426221503342 -7.4857988017473858 65.528945612545854 0 0 1 I I #
straight-curve $-1 -71.502426221503356 -7.4857988017473858 7.2120566980765091 -0.8660253999169214 0 -0.50000000669873634 I I #
edge $-1 $444 -3.1018933875662569 $251 7.4857988017473858 $360 $451 forward 7 unknown #
point $-1 -71.502426221503342 -7.4857988017473858 15.701142740292001 #
point $-1 -56.798898149215816 -7.4857988017473858 15.701142740292001 #
edge $-1 $452 1 $452 0 $254 $-1 forward 7 unknown #
vertex $-1 $255 $453 #
ellipse-curve $-1 -62.50162502224061 -2.1919527070905644 8.6003836201144015 -0.50000000669873634 0 0.8660253999169214 1.7320507998338428 0 1.0000000133974727 1 I I #
point $-1 -62.418611385525729 -2.1919527070905644 12.456599732581726 #
loop $-1 $-1 $266 $258 #
plane-surface $-1 -71.502426221503342 0 0 1 0 0 0 0 -1 forward_v I I I I #
coedge $-1 $375 $261 $263 $379 reversed $166 $-1 #
coedge $-1 $261 $374 $454 $455 reversed $166 $-1 #
coedge $-1 $269 $264 $261 $377 forward $259 $-1 #
edge $-1 $380 -14.703528551263432 $456 -4.7897590604861762e-007 $376 $457 forward 7 unknown #
coedge $-1 $263 $262 $383 $458 reversed $104 $-1 #
edge $-1 $459 1.6303764080091705e-014 $380 16.978171856966391 $374 $460 forward 7 unknown #
vertex $-1 $265 $461 #
straight-curve $-1 -56.798898149215816 6.2952219112485928 15.701142740292001 0 1 0 I I #
coedge $-1 $454 $266 $269 $387 reversed $372 $-1 #
coedge $-1 $266 $454 $378 $458 forward $372 $-1 #
vertex $-1 $267 $462 #
straight-curve $-1 -71.502426221503342 7.2965977278403642 65.528945612545854 0 0 1 I I #
straight-curve $-1 -71.502426221503356 7.2965977278403642 7.2120566980765091 -0.8660253999169214 0 -0.50000000669873634 I I #
edge $-1 $456 -17.884289917154007 $270 -7.2965977278403642 $382 $463 forward 7 unknown #
point $-1 -71.502426221503342 7.2965977278403642 15.701142740292001 #
point $-1 -56.798898149215816 7.2965977278403642 15.701142740292001 #
edge $-1 $464 1 $464 0 $273 $-1 forward 7 unknown #
vertex $-1 $274 $465 #
ellipse-curve $-1 -62.50162502224061 12.590443822497186 8.6003836201144015 -0.50000000669873634 0 0.8660253999169214 1.7320507998338428 0 1.0000000133974727 1 I I #
point $-1 -62.418611385525729 12.590443822497186 12.456599732581726 #
plane-surface $-1 71.502426221503342 0 0 -1 0 0 0 0 1 forward_v I I I I #
coedge $-1 $282 $280 $284 $399 reversed $181 $-1 #
edge $-1 $295 -15.701142740292001 $401 15.701142740292001 $294 $466 forward 7 unknown #
vertex $-1 $399 $467 #
straight-curve $-1 -71.502426221503342 -35.50092079569059 0 0 0 -1 I I #
edge $-1 $397 -35.50092079569059 $401 35.50092079569059 $395 $468 forward 7 unknown #
straight-curve $-1 0 -35.50092079569059 -15.701142740292001 -1 0 0 I I #
vertex $-1 $287 $469 #
straight-curve $-1 0 35.50092079569059 -15.701142740292001 1 0 0 I I #
point $-1 71.502426221503342 35.50092079569059 -15.701142740292001 #
point $-1 71.502426221503342 -35.50092079569059 -15.701142740292001 #
straight-curve $-1 -71.502426221503342 0 15.701142740292001 0 -1 0 I I #
point $-1 -71.502426221503342 35.50092079569059 15.701142740292001 #
point $-1 -71.502426221503342 -35.50092079569059 15.701142740292001 #
straight-curve $-1 71.502426221503342 -35.50092079569059 0 0 0 -1 I I #
straight-curve $-1 71.502426221503342 35.50092079569059 0 0 0 -1 I I #
plane-surface $-1 0 0 -15.701142740292001 0 0 1 1 0 0 forward_v I I I I #
coedge $-1 $425 $306 $423 $470 reversed $200 $-1 #
coedge $-1 $306 $425 $310 $417 reversed $200 $-1 #
coedge $-1 $308 $307 $306 $414 reversed $121 $-1 #
edge $-1 $418 -15.701142740292001 $471 15.701142740292001 $413 $472 forward 7 unknown #
edge $-1 $471 -45.899411911097204 $318 -35.50092079569059 $307 $473 forward 7 unknown #
straight-curve $-1 -71.502426221503342 -35.50092079569059 0 0 0 -1 I I #
edge $-1 $418 -3.8754274770549557 $420 3.8754274770549557 $412 $474 forward 7 unknown #
vertex $-1 $311 $475 #
straight-curve $-1 -71.502426221503342 0 15.701142740292001 0 -1 0 I I #
vertex $-1 $312 $476 #
straight-curve $-1 -63.75157126739343 -40.700166353393897 15.701142740292001 0 1 0 I I #
point $-1 -71.502426221503342 -35.50092079569059 15.701142740292001 #
coedge $-1 $316 $315 $411 $470 forward $317 $-1 #
point $-1 -71.502426221503342 -35.50092079569059 -15.701142740292001 #
coedge $-1 $412 $411 $320 $426 reversed $200 $-1 #
edge $-1 $420 -15.701142740292001 $427 15.701142740292001 $320 $477 forward 7 unknown #
vertex $-1 $426 $478 #
straight-curve $-1 -63.75157126739343 -40.700166353393897 -15.701142740292001 0 -1 0 I I #
coedge $-1 $335 $334 $327 $430 forward $324 $-1 #
edge $-1 $431 82.920520736380354 $434 97.610363039970181 $429 $479 forward 7 unknown #
vertex $-1 $339 $480 #
straight-curve $-1 60.214284328732141 -25.102429680283976 15.701142740291999 1 0 0 I I #
edge $-1 $434 -14.412621957143323 $336 -6.9669934891379839 $335 $481 forward 7 unknown #
vertex $-1 $433 $482 #
straight-curve $-1 -2.150515818837448 -25.102429680283976 123.59038491300394 -0.51503806187062418 0 0.85716730853699208 I I #
point $-1 62.675878785694891 -25.102429680283976 15.701142740291999 #
point $-1 71.502426221503342 -17.656801212278637 1.0113004367021716 #
straight-curve $-1 71.502426221503342 0 15.701142740292001 0 1 0 I I #
vertex $-1 $342 $483 #
point $-1 65.482971573354277 -22.975107260853875 6.2244973671830817 #
vertex $-1 $346 $484 #
point $-1 65.482971573354277 -19.784123631708731 6.2244973671830817 #
edge $-1 $444 49.827802872253855 $447 58.316888914469338 $351 $485 forward 7 unknown #
vertex $-1 $365 $486 #
straight-curve $-1 -71.502426700479248 3.1018933875662569 15.701142740291999 -1 0 0 I I #
edge $-1 $447 -4.1978697411115391 $362 6.3898224482021035 $361 $487 forward 7 unknown #
vertex $-1 $446 $488 #
straight-curve $-1 -71.502426221503356 3.1018933875662569 7.2120566980765091 0.8660253999169214 0 0.50000000669873634 I I #
point $-1 -56.798898149215816 3.1018933875662569 15.701142740292001 #
point $-1 -71.502426221503342 -7.4857988017473858 7.2120566980765171 #
straight-curve $-1 -71.502426221503342 0 15.701142740292001 0 -1 0 I I #
vertex $-1 $368 $489 #
point $-1 -60.769574222406767 -2.1919527070905644 9.6003836335118748 #
coedge $-1 $383 $382 $375 $455 forward $372 $-1 #
edge $-1 $456 49.827802872253855 $459 58.316888914469338 $454 $490 forward 7 unknown #
vertex $-1 $387 $491 #
straight-curve $-1 -71.502426700479248 17.884289917154007 15.701142740291999 -1 0 0 I I #
edge $-1 $459 -11.589068005905414 $384 -1.0013758165917714 $383 $492 forward 7 unknown #
vertex $-1 $458 $493 #
straight-curve $-1 -71.502426221503356 17.884289917154007 7.2120566980765091 0.8660253999169214 0 0.50000000669873634 I I #
point $-1 -56.798898149215816 17.884289917154007 15.701142740292001 #
point $-1 -71.502426221503342 7.2965977278403642 7.2120566980765171 #
straight-curve $-1 -71.502426221503342 0 15.701142740292001 0 -1 0 I I #
vertex $-1 $390 $494 #
point $-1 -60.769574222406767 12.590443822497186 9.6003836335118748 #
straight-curve $-1 -71.502426221503342 35.50092079569059 0 0 0 -1 I I #
point $-1 -71.502426221503342 -35.50092079569059 -15.701142740292001 #
straight-curve $-1 -71.502426221503342 0 -15.701142740292001 0 1 0 I I #
point $-1 -71.502426221503342 35.50092079569059 -15.701142740292001 #
edge $-1 $427 -3.8754274770549557 $471 3.8754274770549557 $411 $495 forward 7 unknown #
vertex $-1 $415 $496 #
straight-curve $-1 -71.502426221503342 -45.899411911097204 0 0 0 -1 I I #
straight-curve $-1 -71.502426221503342 0 -15.701142740292001 0 1 0 I I #
straight-curve $-1 -67.626998744448386 -45.899411911097204 15.701142740292001 1 0 0 I I #
point $-1 -71.502426221503342 -45.899411911097204 15.701142740292001 #
point $-1 -63.75157126739343 -45.899411911097204 15.701142740292001 #
straight-curve $-1 -63.75157126739343 -45.899411911097204 0 0 0 -1 I I #
point $-1 -63.75157126739343 -45.899411911097204 -15.701142740292001 #
straight-curve $-1 71.502426221503342 -25.102429680283976 98.621663476672353 0 0 -1 I I #
point $-1 71.502426221503342 -25.102429680283976 15.701142740292001 #
straight-curve $-1 71.502426221503342 -10.689807723140653 1.0113004367021645 0 1 0 I I #
point $-1 71.502426221503342 -25.102429680283976 1.0113004367021716 #
point $-1 64.110766202946664 -22.975107260853875 6.5666266138494498 #
point $-1 64.110766202946664 -19.784123631708731 6.5666266138494498 #
straight-curve $-1 -71.502426221503342 3.1018933875662569 65.528945612545854 0 0 -1 I I #
point $-1 -71.502426221503342 3.1018933875662569 15.701142740292001 #
straight-curve $-1 -71.502426221503342 -1.0959763535452822 7.2120566980765224 0 -1 0 I I #
point $-1 -71.502426221503342 3.1018933875662569 7.2120566980765171 #
point $-1 -61.501625008843142 -2.1919527070905644 6.8683328202805587 #
straight-curve $-1 -71.502426221503342 17.884289917154007 65.528945612545854 0 0 -1 I I #
point $-1 -71.502426221503342 17.884289917154007 15.701142740292001 #
straight-curve $-1 -71.502426221503342 6.2952219112485928 7.2120566980765224 0 -1 0 I I #
point $-1 -71.502426221503342 17.884289917154007 7.2120566980765171 #
point $-1 -61.501625008843142 12.590443822497186 6.8683328202805587 #
straight-curve $-1 -67.626998744448386 -45.899411911097204 -15.701142740292001 -1 0 0 I I #
point $-1 -71.502426221503342 -45.899411911097204 -15.701142740292001 #
End-of-ACIS-data 