500 0 11 0           
7 Unknown 11 ACIS 5.0 NT 24 Thu Mar 25 17:17:13 1999 
-1 9.9999999999999995e-007 1e-010 
body $-1 $11 $-1 $12 #
body $-1 $13 $-1 $14 #
body $-1 $15 $-1 $16 #
body $-1 $17 $-1 $18 #
body $-1 $19 $-1 $20 #
body $-1 $21 $-1 $22 #
body $-1 $23 $-1 $24 #
body $-1 $25 $-1 $26 #
body $-1 $27 $-1 $28 #
body $-1 $29 $-1 $30 #
body $-1 $31 $-1 $32 #
lump $-1 $-1 $33 $0 #
transform $-1 1 0 0 0 1 0 0 0 1 54.143498031556135 23.584733912290016 10.43588667015295 1 rotate no_reflect no_shear #
lump $-1 $-1 $34 $1 #
transform $-1 1 0 0 0 1 0 0 0 1 54.143498031556135 4.962130824552669 2.619274744834891 1 rotate no_reflect no_shear #
lump $-1 $-1 $35 $2 #
transform $-1 1 0 0 0 1 0 0 0 1 54.143498031556135 42.207337000027366 2.619274744834891 1 rotate no_reflect no_shear #
lump $-1 $-1 $36 $3 #
transform $-1 0.70710677298230451 0 0.70710678939079041 0 1 0 -0.70710678939079041 0 0.70710677298230451 -76.570470118960472 15.616019642123039 90.933189417034214 1 rotate no_reflect no_shear #
lump $-1 $-1 $37 $4 #
transform $-1 0.70710677298230451 0 0.70710678939079041 0 -1 0 0.70710678939079041 0 -0.70710677298230451 4.1922620477479038 14.243368536661599 16.679511238796643 1 rotate no_reflect no_shear #
lump $-1 $-1 $38 $5 #
transform $-1 0.70710677298230451 0 0.70710678939079041 0 -1 0 0.70710678939079041 0 -0.70710677298230451 4.1922620477479038 16.988670747584479 16.679511238796643 1 rotate no_reflect no_shear #
lump $-1 $-1 $39 $6 #
transform $-1 0.70710677298230451 0 0.70710678939079041 0 1 0 -0.70710678939079041 0 0.70710677298230451 -76.570470118960472 31.553448182456997 90.933189417034214 1 rotate no_reflect no_shear #
lump $-1 $-1 $40 $7 #
transform $-1 0.70710677298230451 0 0.70710678939079041 0 -1 0 0.70710678939079041 0 -0.70710677298230451 4.1922620477479038 30.180797076995553 16.679511238796643 1 rotate no_reflect no_shear #
lump $-1 $-1 $41 $8 #
transform $-1 0.70710677298230451 0 0.70710678939079041 0 -1 0 0.70710678939079041 0 -0.70710677298230451 4.1922620477479038 32.926099287918433 16.679511238796643 1 rotate no_reflect no_shear #
lump $-1 $-1 $42 $9 #
transform $-1 0.85716729658548041 0 -0.51503808176128008 0 1 0 0.51503808176128008 0 0.85716729658548041 71.238851124368395 28.855774299953762 166.44312091494271 1 rotate no_reflect no_shear #
lump $-1 $-1 $43 $10 #
transform $-1 0.85716729658548041 0 -0.51503808176128008 0 -1 0 -0.51503808176128008 0 -0.85716729658548041 103.99832893740481 28.855774299953762 16.407246095500497 1 rotate no_reflect no_shear #
shell $-1 $-1 $-1 $44 $-1 $11 #
shell $-1 $-1 $-1 $45 $-1 $13 #
shell $-1 $-1 $-1 $46 $-1 $15 #
shell $-1 $-1 $-1 $47 $-1 $17 #
shell $-1 $-1 $-1 $48 $-1 $19 #
shell $-1 $-1 $-1 $49 $-1 $21 #
shell $-1 $-1 $-1 $50 $-1 $23 #
shell $-1 $-1 $-1 $51 $-1 $25 #
shell $-1 $-1 $-1 $52 $-1 $27 #
shell $-1 $-1 $-1 $53 $-1 $29 #
shell $-1 $-1 $-1 $54 $-1 $31 #
face $-1 $55 $56 $33 $-1 $57 forward single #
face $-1 $58 $59 $34 $-1 $60 forward single #
face $-1 $61 $62 $35 $-1 $63 forward single #
face $-1 $64 $65 $36 $-1 $66 forward single #
face $-1 $67 $68 $37 $-1 $69 forward single #
face $-1 $70 $71 $38 $-1 $72 forward single #
face $-1 $73 $74 $39 $-1 $75 forward single #
face $-1 $76 $77 $40 $-1 $78 forward single #
face $-1 $79 $80 $41 $-1 $81 forward single #
face $-1 $82 $83 $42 $-1 $84 forward single #
face $-1 $85 $86 $43 $-1 $87 forward single #
face $-1 $88 $89 $33 $-1 $90 reversed single #
loop $-1 $-1 $91 $44 #
plane-surface $-1 0 0 10.43588667015295 0 0 1 1 0 0 forward_v I I I I #
face $-1 $92 $93 $34 $-1 $94 reversed single #
loop $-1 $-1 $95 $45 #
plane-surface $-1 0 0 2.619274744834891 0 0 1 1 0 0 forward_v I I I I #
face $-1 $96 $97 $35 $-1 $98 reversed single #
loop $-1 $-1 $99 $46 #
plane-surface $-1 0 0 2.619274744834891 0 0 1 1 0 0 forward_v I I I I #
face $-1 $100 $101 $36 $-1 $102 reversed single #
loop $-1 $-1 $103 $47 #
plane-surface $-1 0 0 108.28699606311227 0 0 1 1 0 0 forward_v I I I I #
face $-1 $104 $105 $37 $-1 $106 forward single #
loop $-1 $107 $108 $48 #
cone-surface $-1 0 0 -0.78807947019867619 0 0 1 0.5 0 0 1 I I 0 1 0.5 forward I I I I #
face $-1 $109 $110 $38 $-1 $111 forward single #
loop $-1 $112 $113 $49 #
cone-surface $-1 0 0 -0.78807947019867619 0 0 1 0.5 0 0 1 I I 0 1 0.5 forward I I I I #
face $-1 $114 $115 $39 $-1 $116 reversed single #
loop $-1 $-1 $117 $50 #
plane-surface $-1 0 0 108.28699606311227 0 0 1 1 0 0 forward_v I I I I #
face $-1 $118 $119 $40 $-1 $120 forward single #
loop $-1 $121 $122 $51 #
cone-surface $-1 0 0 -0.78807947019867619 0 0 1 0.5 0 0 1 I I 0 1 0.5 forward I I I I #
face $-1 $123 $124 $41 $-1 $125 forward single #
loop $-1 $126 $127 $52 #
cone-surface $-1 0 0 -0.78807947019867619 0 0 1 0.5 0 0 1 I I 0 1 0.5 forward I I I I #
face $-1 $128 $129 $42 $-1 $130 reversed single #
loop $-1 $-1 $131 $53 #
plane-surface $-1 0 0 108.28699606311227 0 0 1 1 0 0 forward_v I I I I #
face $-1 $132 $133 $43 $-1 $134 forward single #
loop $-1 $135 $136 $54 #
cone-surface $-1 0 0 -1.9732352671895494 0 0 1 1 0 0 1 I I 0 1 1 forward I I I I #
face $-1 $137 $138 $33 $-1 $139 reversed single #
loop $-1 $-1 $140 $55 #
plane-surface $-1 0 0 -10.43588667015295 0 0 1 1 0 0 forward_v I I I I #
coedge $-1 $141 $142 $143 $144 forward $56 $-1 #
face $-1 $145 $146 $34 $-1 $147 reversed single #
loop $-1 $-1 $148 $58 #
plane-surface $-1 0 0 -2.619274744834891 0 0 1 1 0 0 forward_v I I I I #
coedge $-1 $149 $150 $151 $152 forward $59 $-1 #
face $-1 $153 $154 $35 $-1 $155 reversed single #
loop $-1 $-1 $156 $61 #
plane-surface $-1 0 0 -2.619274744834891 0 0 1 1 0 0 forward_v I I I I #
coedge $-1 $157 $158 $159 $160 forward $62 $-1 #
face $-1 $161 $162 $36 $-1 $163 reversed single #
loop $-1 $-1 $164 $64 #
plane-surface $-1 0 0 -108.28699606311227 0 0 1 1 0 0 forward_v I I I I #
coedge $-1 $165 $166 $167 $168 forward $65 $-1 #
face $-1 $-1 $169 $37 $-1 $170 forward single #
loop $-1 $-1 $171 $67 #
plane-surface $-1 0 0 -1.3261589403973515 0 0 -1 -1 0 0 forward_v I I I I #
loop $-1 $-1 $172 $48 #
coedge $-1 $108 $108 $171 $173 reversed $68 $-1 #
face $-1 $-1 $174 $38 $-1 $175 forward single #
loop $-1 $-1 $176 $70 #
plane-surface $-1 0 0 -1.3261589403973515 0 0 -1 -1 0 0 forward_v I I I I #
loop $-1 $-1 $177 $49 #
coedge $-1 $113 $113 $176 $178 reversed $71 $-1 #
face $-1 $179 $180 $39 $-1 $181 reversed single #
loop $-1 $-1 $182 $73 #
plane-surface $-1 0 0 -108.28699606311227 0 0 1 1 0 0 forward_v I I I I #
coedge $-1 $183 $184 $185 $186 forward $74 $-1 #
face $-1 $-1 $187 $40 $-1 $188 forward single #
loop $-1 $-1 $189 $76 #
plane-surface $-1 0 0 -1.3261589403973515 0 0 -1 -1 0 0 forward_v I I I I #
loop $-1 $-1 $190 $51 #
coedge $-1 $122 $122 $189 $191 reversed $77 $-1 #
face $-1 $-1 $192 $41 $-1 $193 forward single #
loop $-1 $-1 $194 $79 #
plane-surface $-1 0 0 -1.3261589403973515 0 0 -1 -1 0 0 forward_v I I I I #
loop $-1 $-1 $195 $52 #
coedge $-1 $127 $127 $194 $196 reversed $80 $-1 #
face $-1 $197 $198 $42 $-1 $199 reversed single #
loop $-1 $-1 $200 $82 #
plane-surface $-1 0 0 -108.28699606311227 0 0 1 1 0 0 forward_v I I I I #
coedge $-1 $201 $202 $203 $204 forward $83 $-1 #
face $-1 $-1 $205 $43 $-1 $206 forward single #
loop $-1 $-1 $207 $85 #
plane-surface $-1 0 0 -3.4464705343790998 0 0 -1 -1 0 0 forward_v I I I I #
loop $-1 $-1 $208 $54 #
coedge $-1 $136 $136 $207 $209 reversed $86 $-1 #
face $-1 $210 $211 $33 $-1 $212 reversed single #
loop $-1 $-1 $213 $88 #
plane-surface $-1 0 -23.584733912290016 0 0 1 0 0 0 1 forward_v I I I I #
coedge $-1 $214 $215 $216 $217 forward $89 $-1 #
coedge $-1 $218 $91 $219 $220 forward $56 $-1 #
coedge $-1 $91 $218 $221 $222 forward $56 $-1 #
coedge $-1 $223 $224 $91 $144 reversed $225 $-1 #
edge $-1 $226 -23.584733912290016 $227 23.584733912290016 $143 $228 forward 7 unknown #
face $-1 $229 $230 $34 $-1 $231 reversed single #
loop $-1 $-1 $232 $92 #
plane-surface $-1 0 -4.962130824552669 0 0 1 0 0 0 1 forward_v I I I I #
coedge $-1 $233 $234 $235 $236 forward $93 $-1 #
coedge $-1 $237 $95 $238 $239 forward $59 $-1 #
coedge $-1 $95 $237 $240 $241 forward $59 $-1 #
coedge $-1 $242 $243 $95 $152 reversed $244 $-1 #
edge $-1 $245 -4.962130824552669 $246 4.962130824552669 $151 $247 forward 7 unknown #
face $-1 $248 $249 $35 $-1 $250 reversed single #
loop $-1 $-1 $251 $96 #
plane-surface $-1 0 -4.9621308245526698 0 0 1 0 0 0 1 forward_v I I I I #
coedge $-1 $252 $253 $254 $255 forward $97 $-1 #
coedge $-1 $256 $99 $257 $258 forward $62 $-1 #
coedge $-1 $99 $256 $259 $260 forward $62 $-1 #
coedge $-1 $261 $262 $99 $160 reversed $263 $-1 #
edge $-1 $264 -4.9621308245526698 $265 4.9621308245526698 $159 $266 forward 7 unknown #
face $-1 $267 $268 $36 $-1 $269 reversed single #
loop $-1 $-1 $270 $100 #
plane-surface $-1 0 -3.2028525794100249 0 0 1 0 0 0 1 forward_v I I I I #
coedge $-1 $271 $272 $273 $274 forward $101 $-1 #
coedge $-1 $275 $103 $276 $277 forward $65 $-1 #
coedge $-1 $103 $275 $278 $279 forward $65 $-1 #
coedge $-1 $280 $281 $103 $168 reversed $282 $-1 #
edge $-1 $283 -3.2028525794100249 $284 3.2028525794100249 $167 $285 forward 7 unknown #
loop $-1 $286 $287 $104 #
cone-surface $-1 0 0 0 0 0 1 0.25 0 0 1 I I -0.70710678118654746 0.70710678118654746 0.25 forward I I I I #
coedge $-1 $171 $171 $108 $173 forward $105 $-1 #
coedge $-1 $172 $172 $287 $288 forward $107 $-1 #
edge $-1 $289 0 $289 6.2831853071796004 $171 $290 forward 7 unknown #
loop $-1 $291 $292 $109 #
cone-surface $-1 0 0 0 0 0 1 0.25 0 0 1 I I -0.70710678118654746 0.70710678118654746 0.25 forward I I I I #
coedge $-1 $176 $176 $113 $178 forward $110 $-1 #
coedge $-1 $177 $177 $292 $293 forward $112 $-1 #
edge $-1 $294 0 $294 6.2831853071796004 $176 $295 forward 7 unknown #
face $-1 $296 $297 $39 $-1 $298 reversed single #
loop $-1 $-1 $299 $114 #
plane-surface $-1 0 -3.2028525794100249 0 0 1 0 0 0 1 forward_v I I I I #
coedge $-1 $300 $301 $302 $303 forward $115 $-1 #
coedge $-1 $304 $117 $305 $306 forward $74 $-1 #
coedge $-1 $117 $304 $307 $308 forward $74 $-1 #
coedge $-1 $309 $310 $117 $186 reversed $311 $-1 #
edge $-1 $312 -3.2028525794100249 $313 3.2028525794100249 $185 $314 forward 7 unknown #
loop $-1 $315 $316 $118 #
cone-surface $-1 0 0 0 0 0 1 0.25 0 0 1 I I -0.70710678118654746 0.70710678118654746 0.25 forward I I I I #
coedge $-1 $189 $189 $122 $191 forward $119 $-1 #
coedge $-1 $190 $190 $316 $317 forward $121 $-1 #
edge $-1 $318 0 $318 6.2831853071796004 $189 $319 forward 7 unknown #
loop $-1 $320 $321 $123 #
cone-surface $-1 0 0 0 0 0 1 0.25 0 0 1 I I -0.70710678118654746 0.70710678118654746 0.25 forward I I I I #
coedge $-1 $194 $194 $127 $196 forward $124 $-1 #
coedge $-1 $195 $195 $321 $322 forward $126 $-1 #
edge $-1 $323 0 $323 6.2831853071796004 $194 $324 forward 7 unknown #
face $-1 $325 $326 $42 $-1 $327 reversed single #
loop $-1 $-1 $328 $128 #
plane-surface $-1 0 -4.0198537990140046 0 0 1 0 0 0 1 forward_v I I I I #
coedge $-1 $329 $330 $331 $332 forward $129 $-1 #
coedge $-1 $333 $131 $334 $335 forward $83 $-1 #
coedge $-1 $131 $333 $336 $337 forward $83 $-1 #
coedge $-1 $338 $339 $131 $204 reversed $340 $-1 #
edge $-1 $341 -4.0198537990140046 $342 4.0198537990140046 $203 $343 forward 7 unknown #
loop $-1 $344 $345 $132 #
cone-surface $-1 0 0 0 0 0 1 0.5 0 0 1 I I -0.70710678118654746 0.70710678118654746 0.5 forward I I I I #
coedge $-1 $207 $207 $136 $209 forward $133 $-1 #
coedge $-1 $208 $208 $345 $346 forward $135 $-1 #
edge $-1 $347 0 $347 6.2831853071796004 $207 $348 forward 7 unknown #
face $-1 $349 $350 $33 $-1 $351 reversed single #
loop $-1 $-1 $352 $137 #
plane-surface $-1 -54.143498031556135 0 0 1 0 0 0 0 -1 forward_v I I I I #
coedge $-1 $353 $221 $354 $355 forward $138 $-1 #
coedge $-1 $356 $140 $353 $357 forward $89 $-1 #
coedge $-1 $140 $356 $358 $359 forward $89 $-1 #
coedge $-1 $224 $223 $140 $217 reversed $225 $-1 #
edge $-1 $360 -23.584733912290016 $361 23.584733912290016 $216 $362 forward 7 unknown #
coedge $-1 $142 $141 $363 $364 forward $56 $-1 #
coedge $-1 $365 $366 $141 $220 reversed $350 $-1 #
edge $-1 $227 -54.143498031556135 $367 54.143498031556135 $219 $368 forward 7 unknown #
coedge $-1 $213 $369 $142 $222 reversed $138 $-1 #
edge $-1 $370 -54.143498031556135 $226 54.143498031556135 $221 $371 forward 7 unknown #
coedge $-1 $216 $143 $369 $372 forward $225 $-1 #
coedge $-1 $143 $216 $365 $373 reversed $225 $-1 #
loop $-1 $-1 $223 $349 #
vertex $-1 $144 $374 #
vertex $-1 $144 $375 #
straight-curve $-1 54.143498031556135 0 10.43588667015295 0 1 0 I I #
face $-1 $376 $377 $34 $-1 $378 reversed single #
loop $-1 $-1 $379 $145 #
plane-surface $-1 -54.143498031556135 0 0 1 0 0 0 0 -1 forward_v I I I I #
coedge $-1 $380 $240 $381 $382 forward $146 $-1 #
coedge $-1 $383 $148 $380 $384 forward $93 $-1 #
coedge $-1 $148 $383 $385 $386 forward $93 $-1 #
coedge $-1 $243 $242 $148 $236 reversed $244 $-1 #
edge $-1 $387 -4.962130824552669 $388 4.962130824552669 $235 $389 forward 7 unknown #
coedge $-1 $150 $149 $390 $391 forward $59 $-1 #
coedge $-1 $392 $393 $149 $239 reversed $377 $-1 #
edge $-1 $246 -54.143498031556135 $394 54.143498031556135 $238 $395 forward 7 unknown #
coedge $-1 $232 $396 $150 $241 reversed $146 $-1 #
edge $-1 $397 -54.143498031556135 $245 54.143498031556135 $240 $398 forward 7 unknown #
coedge $-1 $235 $151 $396 $399 forward $244 $-1 #
coedge $-1 $151 $235 $392 $400 reversed $244 $-1 #
loop $-1 $-1 $242 $376 #
vertex $-1 $152 $401 #
vertex $-1 $152 $402 #
straight-curve $-1 54.143498031556135 0 2.619274744834891 0 1 0 I I #
face $-1 $403 $404 $35 $-1 $405 reversed single #
loop $-1 $-1 $406 $153 #
plane-surface $-1 -54.143498031556135 0 0 1 0 0 0 0 -1 forward_v I I I I #
coedge $-1 $407 $259 $408 $409 forward $154 $-1 #
coedge $-1 $410 $156 $407 $411 forward $97 $-1 #
coedge $-1 $156 $410 $412 $413 forward $97 $-1 #
coedge $-1 $262 $261 $156 $255 reversed $263 $-1 #
edge $-1 $414 -4.9621308245526698 $415 4.9621308245526698 $254 $416 forward 7 unknown #
coedge $-1 $158 $157 $417 $418 forward $62 $-1 #
coedge $-1 $419 $420 $157 $258 reversed $404 $-1 #
edge $-1 $265 -54.143498031556135 $421 54.143498031556135 $257 $422 forward 7 unknown #
coedge $-1 $251 $423 $158 $260 reversed $154 $-1 #
edge $-1 $424 -54.143498031556135 $264 54.143498031556135 $259 $425 forward 7 unknown #
coedge $-1 $254 $159 $423 $426 forward $263 $-1 #
coedge $-1 $159 $254 $419 $427 reversed $263 $-1 #
loop $-1 $-1 $261 $403 #
vertex $-1 $160 $428 #
vertex $-1 $160 $429 #
straight-curve $-1 54.143498031556135 0 2.619274744834891 0 1 0 I I #
face $-1 $430 $431 $36 $-1 $432 reversed single #
loop $-1 $-1 $433 $161 #
plane-surface $-1 -216.57399212622454 0 0 1 0 0 0 0 -1 forward_v I I I I #
coedge $-1 $434 $278 $435 $436 forward $162 $-1 #
coedge $-1 $437 $164 $434 $438 forward $101 $-1 #
coedge $-1 $164 $437 $439 $440 forward $101 $-1 #
coedge $-1 $281 $280 $164 $274 reversed $282 $-1 #
edge $-1 $441 -3.2028525794100249 $442 3.2028525794100249 $273 $443 forward 7 unknown #
coedge $-1 $166 $165 $444 $445 forward $65 $-1 #
coedge $-1 $446 $447 $165 $277 reversed $431 $-1 #
edge $-1 $284 -216.57399212622454 $448 216.57399212622454 $276 $449 forward 7 unknown #
coedge $-1 $270 $450 $166 $279 reversed $162 $-1 #
edge $-1 $451 -216.57399212622454 $283 216.57399212622454 $278 $452 forward 7 unknown #
coedge $-1 $273 $167 $450 $453 forward $282 $-1 #
coedge $-1 $167 $273 $446 $454 reversed $282 $-1 #
loop $-1 $-1 $280 $430 #
vertex $-1 $168 $455 #
vertex $-1 $168 $456 #
straight-curve $-1 216.57399212622454 0 108.28699606311227 0 1 0 I I #
loop $-1 $-1 $457 $104 #
coedge $-1 $287 $287 $172 $288 reversed $169 $-1 #
edge $-1 $458 0 $458 6.2831853071796004 $287 $459 forward 7 unknown #
vertex $-1 $173 $460 #
ellipse-curve $-1 0 0 -1.3261589403973515 0 0 -1 0.5 0 0 1 I I #
loop $-1 $-1 $461 $109 #
coedge $-1 $292 $292 $177 $293 reversed $174 $-1 #
edge $-1 $462 0 $462 6.2831853071796004 $292 $463 forward 7 unknown #
vertex $-1 $178 $464 #
ellipse-curve $-1 0 0 -1.3261589403973515 0 0 -1 0.5 0 0 1 I I #
face $-1 $465 $466 $39 $-1 $467 reversed single #
loop $-1 $-1 $468 $179 #
plane-surface $-1 -216.57399212622454 0 0 1 0 0 0 0 -1 forward_v I I I I #
coedge $-1 $469 $307 $470 $471 forward $180 $-1 #
coedge $-1 $472 $182 $469 $473 forward $115 $-1 #
coedge $-1 $182 $472 $474 $475 forward $115 $-1 #
coedge $-1 $310 $309 $182 $303 reversed $311 $-1 #
edge $-1 $476 -3.2028525794100249 $477 3.2028525794100249 $302 $478 forward 7 unknown #
coedge $-1 $184 $183 $479 $480 forward $74 $-1 #
coedge $-1 $481 $482 $183 $306 reversed $466 $-1 #
edge $-1 $313 -216.57399212622454 $483 216.57399212622454 $305 $484 forward 7 unknown #
coedge $-1 $299 $485 $184 $308 reversed $180 $-1 #
edge $-1 $486 -216.57399212622454 $312 216.57399212622454 $307 $487 forward 7 unknown #
coedge $-1 $302 $185 $485 $488 forward $311 $-1 #
coedge $-1 $185 $302 $481 $489 reversed $311 $-1 #
loop $-1 $-1 $309 $465 #
vertex $-1 $186 $490 #
vertex $-1 $186 $491 #
straight-curve $-1 216.57399212622454 0 108.28699606311227 0 1 0 I I #
loop $-1 $-1 $492 $118 #
coedge $-1 $316 $316 $190 $317 reversed $187 $-1 #
edge $-1 $493 0 $493 6.2831853071796004 $316 $494 forward 7 unknown #
vertex $-1 $191 $495 #
ellipse-curve $-1 0 0 -1.3261589403973515 0 0 -1 0.5 0 0 1 I I #
loop $-1 $-1 $496 $123 #
coedge $-1 $321 $321 $195 $322 reversed $192 $-1 #
edge $-1 $497 0 $497 6.2831853071796004 $321 $498 forward 7 unknown #
vertex $-1 $196 $499 #
ellipse-curve $-1 0 0 -1.3261589403973515 0 0 -1 0.5 0 0 1 I I #
face $-1 $500 $501 $42 $-1 $502 reversed single #
loop $-1 $-1 $503 $197 #
plane-surface $-1 -216.57399212622454 0 0 1 0 0 0 0 -1 forward_v I I I I #
coedge $-1 $504 $336 $505 $506 forward $198 $-1 #
coedge $-1 $507 $200 $504 $508 forward $129 $-1 #
coedge $-1 $200 $507 $509 $510 forward $129 $-1 #
coedge $-1 $339 $338 $200 $332 reversed $340 $-1 #
edge $-1 $511 -4.0198537990140046 $512 4.0198537990140046 $331 $513 forward 7 unknown #
coedge $-1 $202 $201 $514 $515 forward $83 $-1 #
coedge $-1 $516 $517 $201 $335 reversed $501 $-1 #
edge $-1 $342 -216.57399212622454 $518 216.57399212622454 $334 $519 forward 7 unknown #
coedge $-1 $328 $520 $202 $337 reversed $198 $-1 #
edge $-1 $521 -216.57399212622454 $341 216.57399212622454 $336 $522 forward 7 unknown #
coedge $-1 $331 $203 $520 $523 forward $340 $-1 #
coedge $-1 $203 $331 $516 $524 reversed $340 $-1 #
loop $-1 $-1 $338 $500 #
vertex $-1 $204 $525 #
vertex $-1 $204 $526 #
straight-curve $-1 216.57399212622454 0 108.28699606311227 0 1 0 I I #
loop $-1 $-1 $527 $132 #
coedge $-1 $345 $345 $208 $346 reversed $205 $-1 #
edge $-1 $528 0 $528 6.2831853071796004 $345 $529 forward 7 unknown #
vertex $-1 $209 $530 #
ellipse-curve $-1 0 0 -3.4464705343790998 0 0 -1 1 0 0 1 I I #
face $-1 $-1 $225 $33 $-1 $531 reversed single #
loop $-1 $-1 $365 $210 #
plane-surface $-1 0 23.584733912290016 0 0 -1 0 0 0 -1 forward_v I I I I #
coedge $-1 $532 $363 $366 $533 forward $211 $-1 #
coedge $-1 $369 $213 $214 $357 reversed $138 $-1 #
coedge $-1 $363 $532 $213 $355 reversed $211 $-1 #
edge $-1 $370 -10.43588667015295 $534 10.43588667015295 $354 $535 forward 7 unknown #
coedge $-1 $215 $214 $532 $536 forward $89 $-1 #
edge $-1 $361 -54.143498031556135 $534 54.143498031556135 $353 $537 forward 7 unknown #
coedge $-1 $366 $365 $215 $359 reversed $350 $-1 #
edge $-1 $538 -54.143498031556135 $360 54.143498031556135 $358 $539 forward 7 unknown #
vertex $-1 $217 $540 #
vertex $-1 $372 $541 #
straight-curve $-1 54.143498031556135 0 -10.43588667015295 0 -1 0 I I #
coedge $-1 $352 $354 $218 $364 reversed $211 $-1 #
edge $-1 $367 -23.584733912290016 $370 23.584733912290016 $363 $542 forward 7 unknown #
coedge $-1 $358 $219 $224 $373 forward $350 $-1 #
coedge $-1 $219 $358 $352 $533 reversed $350 $-1 #
vertex $-1 $220 $543 #
straight-curve $-1 0 23.584733912290016 10.43588667015295 -1 0 0 I I #
coedge $-1 $221 $353 $223 $372 reversed $138 $-1 #
vertex $-1 $364 $544 #
straight-curve $-1 0 -23.584733912290016 10.43588667015295 1 0 0 I I #
edge $-1 $226 -10.43588667015295 $361 10.43588667015295 $223 $545 forward 7 unknown #
edge $-1 $227 -10.43588667015295 $360 10.43588667015295 $224 $546 forward 7 unknown #
point $-1 54.143498031556135 -23.584733912290016 10.43588667015295 #
point $-1 54.143498031556135 23.584733912290016 10.43588667015295 #
face $-1 $-1 $244 $34 $-1 $547 reversed single #
loop $-1 $-1 $392 $229 #
plane-surface $-1 0 4.962130824552669 0 0 -1 0 0 0 -1 forward_v I I I I #
coedge $-1 $548 $390 $393 $549 forward $230 $-1 #
coedge $-1 $396 $232 $233 $384 reversed $146 $-1 #
coedge $-1 $390 $548 $232 $382 reversed $230 $-1 #
edge $-1 $397 -2.619274744834891 $550 2.619274744834891 $381 $551 forward 7 unknown #
coedge $-1 $234 $233 $548 $552 forward $93 $-1 #
edge $-1 $388 -54.143498031556135 $550 54.143498031556135 $380 $553 forward 7 unknown #
coedge $-1 $393 $392 $234 $386 reversed $377 $-1 #
edge $-1 $554 -54.143498031556135 $387 54.143498031556135 $385 $555 forward 7 unknown #
vertex $-1 $236 $556 #
vertex $-1 $399 $557 #
straight-curve $-1 54.143498031556135 0 -2.619274744834891 0 -1 0 I I #
coedge $-1 $379 $381 $237 $391 reversed $230 $-1 #
edge $-1 $394 -4.962130824552669 $397 4.962130824552669 $390 $558 forward 7 unknown #
coedge $-1 $385 $238 $243 $400 forward $377 $-1 #
coedge $-1 $238 $385 $379 $549 reversed $377 $-1 #
vertex $-1 $239 $559 #
straight-curve $-1 0 4.962130824552669 2.619274744834891 -1 0 0 I I #
coedge $-1 $240 $380 $242 $399 reversed $146 $-1 #
vertex $-1 $391 $560 #
straight-curve $-1 0 -4.962130824552669 2.619274744834891 1 0 0 I I #
edge $-1 $245 -2.619274744834891 $388 2.619274744834891 $242 $561 forward 7 unknown #
edge $-1 $246 -2.619274744834891 $387 2.619274744834891 $243 $562 forward 7 unknown #
point $-1 54.143498031556135 -4.962130824552669 2.619274744834891 #
point $-1 54.143498031556135 4.962130824552669 2.619274744834891 #
face $-1 $-1 $263 $35 $-1 $563 reversed single #
loop $-1 $-1 $419 $248 #
plane-surface $-1 0 4.9621308245526698 0 0 -1 0 0 0 -1 forward_v I I I I #
coedge $-1 $564 $417 $420 $565 forward $249 $-1 #
coedge $-1 $423 $251 $252 $411 reversed $154 $-1 #
coedge $-1 $417 $564 $251 $409 reversed $249 $-1 #
edge $-1 $424 -2.619274744834891 $566 2.619274744834891 $408 $567 forward 7 unknown #
coedge $-1 $253 $252 $564 $568 forward $97 $-1 #
edge $-1 $415 -54.143498031556135 $566 54.143498031556135 $407 $569 forward 7 unknown #
coedge $-1 $420 $419 $253 $413 reversed $404 $-1 #
edge $-1 $570 -54.143498031556135 $414 54.143498031556135 $412 $571 forward 7 unknown #
vertex $-1 $255 $572 #
vertex $-1 $426 $573 #
straight-curve $-1 54.143498031556135 0 -2.619274744834891 0 -1 0 I I #
coedge $-1 $406 $408 $256 $418 reversed $249 $-1 #
edge $-1 $421 -4.9621308245526698 $424 4.9621308245526698 $417 $574 forward 7 unknown #
coedge $-1 $412 $257 $262 $427 forward $404 $-1 #
coedge $-1 $257 $412 $406 $565 reversed $404 $-1 #
vertex $-1 $258 $575 #
straight-curve $-1 0 4.9621308245526698 2.619274744834891 -1 0 0 I I #
coedge $-1 $259 $407 $261 $426 reversed $154 $-1 #
vertex $-1 $418 $576 #
straight-curve $-1 0 -4.9621308245526698 2.619274744834891 1 0 0 I I #
edge $-1 $264 -2.619274744834891 $415 2.619274744834891 $261 $577 forward 7 unknown #
edge $-1 $265 -2.619274744834891 $414 2.619274744834891 $262 $578 forward 7 unknown #
point $-1 54.143498031556135 -4.9621308245526698 2.619274744834891 #
point $-1 54.143498031556135 4.9621308245526698 2.619274744834891 #
face $-1 $-1 $282 $36 $-1 $579 reversed single #
loop $-1 $-1 $446 $267 #
plane-surface $-1 0 3.2028525794100249 0 0 -1 0 0 0 -1 forward_v I I I I #
coedge $-1 $580 $444 $447 $581 forward $268 $-1 #
coedge $-1 $450 $270 $271 $438 reversed $162 $-1 #
coedge $-1 $444 $580 $270 $436 reversed $268 $-1 #
edge $-1 $451 -108.28699606311227 $582 108.28699606311227 $435 $583 forward 7 unknown #
coedge $-1 $272 $271 $580 $584 forward $101 $-1 #
edge $-1 $442 -216.57399212622454 $582 216.57399212622454 $434 $585 forward 7 unknown #
coedge $-1 $447 $446 $272 $440 reversed $431 $-1 #
edge $-1 $586 -216.57399212622454 $441 216.57399212622454 $439 $587 forward 7 unknown #
vertex $-1 $274 $588 #
vertex $-1 $453 $589 #
straight-curve $-1 216.57399212622454 0 -108.28699606311227 0 -1 0 I I #
coedge $-1 $433 $435 $275 $445 reversed $268 $-1 #
edge $-1 $448 -3.2028525794100249 $451 3.2028525794100249 $444 $590 forward 7 unknown #
coedge $-1 $439 $276 $281 $454 forward $431 $-1 #
coedge $-1 $276 $439 $433 $581 reversed $431 $-1 #
vertex $-1 $277 $591 #
straight-curve $-1 0 3.2028525794100249 108.28699606311227 -1 0 0 I I #
coedge $-1 $278 $434 $280 $453 reversed $162 $-1 #
vertex $-1 $445 $592 #
straight-curve $-1 0 -3.2028525794100249 108.28699606311227 1 0 0 I I #
edge $-1 $283 -108.28699606311227 $442 108.28699606311227 $280 $593 forward 7 unknown #
edge $-1 $284 -108.28699606311227 $441 108.28699606311227 $281 $594 forward 7 unknown #
point $-1 216.57399212622454 -3.2028525794100249 108.28699606311227 #
point $-1 216.57399212622454 3.2028525794100249 108.28699606311227 #
coedge $-1 $457 $457 $-1 $595 reversed $286 $-1 #
vertex $-1 $288 $596 #
ellipse-curve $-1 0 0 -0.25 0 0 -1 0.5 0 0 1 I I #
point $-1 0.5 0 -1.3261589403973515 #
coedge $-1 $461 $461 $-1 $597 reversed $291 $-1 #
vertex $-1 $293 $598 #
ellipse-curve $-1 0 0 -0.25 0 0 -1 0.5 0 0 1 I I #
point $-1 0.5 0 -1.3261589403973515 #
face $-1 $-1 $311 $39 $-1 $599 reversed single #
loop $-1 $-1 $481 $296 #
plane-surface $-1 0 3.2028525794100249 0 0 -1 0 0 0 -1 forward_v I I I I #
coedge $-1 $600 $479 $482 $601 forward $297 $-1 #
coedge $-1 $485 $299 $300 $473 reversed $180 $-1 #
coedge $-1 $479 $600 $299 $471 reversed $297 $-1 #
edge $-1 $486 -108.28699606311227 $602 108.28699606311227 $470 $603 forward 7 unknown #
coedge $-1 $301 $300 $600 $604 forward $115 $-1 #
edge $-1 $477 -216.57399212622454 $602 216.57399212622454 $469 $605 forward 7 unknown #
coedge $-1 $482 $481 $301 $475 reversed $466 $-1 #
edge $-1 $606 -216.57399212622454 $476 216.57399212622454 $474 $607 forward 7 unknown #
vertex $-1 $303 $608 #
vertex $-1 $488 $609 #
straight-curve $-1 216.57399212622454 0 -108.28699606311227 0 -1 0 I I #
coedge $-1 $468 $470 $304 $480 reversed $297 $-1 #
edge $-1 $483 -3.2028525794100249 $486 3.2028525794100249 $479 $610 forward 7 unknown #
coedge $-1 $474 $305 $310 $489 forward $466 $-1 #
coedge $-1 $305 $474 $468 $601 reversed $466 $-1 #
vertex $-1 $306 $611 #
straight-curve $-1 0 3.2028525794100249 108.28699606311227 -1 0 0 I I #
coedge $-1 $307 $469 $309 $488 reversed $180 $-1 #
vertex $-1 $480 $612 #
straight-curve $-1 0 -3.2028525794100249 108.28699606311227 1 0 0 I I #
edge $-1 $312 -108.28699606311227 $477 108.28699606311227 $309 $613 forward 7 unknown #
edge $-1 $313 -108.28699606311227 $476 108.28699606311227 $310 $614 forward 7 unknown #
point $-1 216.57399212622454 -3.2028525794100249 108.28699606311227 #
point $-1 216.57399212622454 3.2028525794100249 108.28699606311227 #
coedge $-1 $492 $492 $-1 $615 reversed $315 $-1 #
vertex $-1 $317 $616 #
ellipse-curve $-1 0 0 -0.25 0 0 -1 0.5 0 0 1 I I #
point $-1 0.5 0 -1.3261589403973515 #
coedge $-1 $496 $496 $-1 $617 reversed $320 $-1 #
vertex $-1 $322 $618 #
ellipse-curve $-1 0 0 -0.25 0 0 -1 0.5 0 0 1 I I #
point $-1 0.5 0 -1.3261589403973515 #
face $-1 $-1 $340 $42 $-1 $619 reversed single #
loop $-1 $-1 $516 $325 #
plane-surface $-1 0 4.0198537990140046 0 0 -1 0 0 0 -1 forward_v I I I I #
coedge $-1 $620 $514 $517 $621 forward $326 $-1 #
coedge $-1 $520 $328 $329 $508 reversed $198 $-1 #
coedge $-1 $514 $620 $328 $506 reversed $326 $-1 #
edge $-1 $521 -108.28699606311227 $622 108.28699606311227 $505 $623 forward 7 unknown #
coedge $-1 $330 $329 $620 $624 forward $129 $-1 #
edge $-1 $512 -216.57399212622454 $622 216.57399212622454 $504 $625 forward 7 unknown #
coedge $-1 $517 $516 $330 $510 reversed $501 $-1 #
edge $-1 $626 -216.57399212622454 $511 216.57399212622454 $509 $627 forward 7 unknown #
vertex $-1 $332 $628 #
vertex $-1 $523 $629 #
straight-curve $-1 216.57399212622454 0 -108.28699606311227 0 -1 0 I I #
coedge $-1 $503 $505 $333 $515 reversed $326 $-1 #
edge $-1 $518 -4.0198537990140046 $521 4.0198537990140046 $514 $630 forward 7 unknown #
coedge $-1 $509 $334 $339 $524 forward $501 $-1 #
coedge $-1 $334 $509 $503 $621 reversed $501 $-1 #
vertex $-1 $335 $631 #
straight-curve $-1 0 4.0198537990140046 108.28699606311227 -1 0 0 I I #
coedge $-1 $336 $504 $338 $523 reversed $198 $-1 #
vertex $-1 $515 $632 #
straight-curve $-1 0 -4.0198537990140046 108.28699606311227 1 0 0 I I #
edge $-1 $341 -108.28699606311227 $512 108.28699606311227 $338 $633 forward 7 unknown #
edge $-1 $342 -108.28699606311227 $511 108.28699606311227 $339 $634 forward 7 unknown #
point $-1 216.57399212622454 -4.0198537990140046 108.28699606311227 #
point $-1 216.57399212622454 4.0198537990140046 108.28699606311227 #
coedge $-1 $527 $527 $-1 $635 reversed $344 $-1 #
vertex $-1 $346 $636 #
ellipse-curve $-1 0 0 -0.5 0 0 -1 1 0 0 1 I I #
point $-1 1 0 -3.4464705343790998 #
plane-surface $-1 54.143498031556135 0 0 -1 0 0 0 0 1 forward_v I I I I #
coedge $-1 $354 $352 $356 $536 reversed $211 $-1 #
edge $-1 $367 -10.43588667015295 $538 10.43588667015295 $366 $637 forward 7 unknown #
vertex $-1 $536 $638 #
straight-curve $-1 -54.143498031556135 -23.584733912290016 0 0 0 -1 I I #
edge $-1 $534 -23.584733912290016 $538 23.584733912290016 $532 $639 forward 7 unknown #
straight-curve $-1 0 -23.584733912290016 -10.43588667015295 -1 0 0 I I #
vertex $-1 $359 $640 #
straight-curve $-1 0 23.584733912290016 -10.43588667015295 1 0 0 I I #
point $-1 54.143498031556135 23.584733912290016 -10.43588667015295 #
point $-1 54.143498031556135 -23.584733912290016 -10.43588667015295 #
straight-curve $-1 -54.143498031556135 0 10.43588667015295 0 -1 0 I I #
point $-1 -54.143498031556135 23.584733912290016 10.43588667015295 #
point $-1 -54.143498031556135 -23.584733912290016 10.43588667015295 #
straight-curve $-1 54.143498031556135 -23.584733912290016 0 0 0 -1 I I #
straight-curve $-1 54.143498031556135 23.584733912290016 0 0 0 -1 I I #
plane-surface $-1 54.143498031556135 0 0 -1 0 0 0 0 1 forward_v I I I I #
coedge $-1 $381 $379 $383 $552 reversed $230 $-1 #
edge $-1 $394 -2.619274744834891 $554 2.619274744834891 $393 $641 forward 7 unknown #
vertex $-1 $552 $642 #
straight-curve $-1 -54.143498031556135 -4.962130824552669 0 0 0 -1 I I #
edge $-1 $550 -4.962130824552669 $554 4.962130824552669 $548 $643 forward 7 unknown #
straight-curve $-1 0 -4.962130824552669 -2.619274744834891 -1 0 0 I I #
vertex $-1 $386 $644 #
straight-curve $-1 0 4.962130824552669 -2.619274744834891 1 0 0 I I #
point $-1 54.143498031556135 4.962130824552669 -2.619274744834891 #
point $-1 54.143498031556135 -4.962130824552669 -2.619274744834891 #
straight-curve $-1 -54.143498031556135 0 2.619274744834891 0 -1 0 I I #
point $-1 -54.143498031556135 4.962130824552669 2.619274744834891 #
point $-1 -54.143498031556135 -4.962130824552669 2.619274744834891 #
straight-curve $-1 54.143498031556135 -4.962130824552669 0 0 0 -1 I I #
straight-curve $-1 54.143498031556135 4.962130824552669 0 0 0 -1 I I #
plane-surface $-1 54.143498031556135 0 0 -1 0 0 0 0 1 forward_v I I I I #
coedge $-1 $408 $406 $410 $568 reversed $249 $-1 #
edge $-1 $421 -2.619274744834891 $570 2.619274744834891 $420 $645 forward 7 unknown #
vertex $-1 $568 $646 #
straight-curve $-1 -54.143498031556135 -4.9621308245526698 0 0 0 -1 I I #
edge $-1 $566 -4.9621308245526698 $570 4.9621308245526698 $564 $647 forward 7 unknown #
straight-curve $-1 0 -4.9621308245526698 -2.619274744834891 -1 0 0 I I #
vertex $-1 $413 $648 #
straight-curve $-1 0 4.9621308245526698 -2.619274744834891 1 0 0 I I #
point $-1 54.143498031556135 4.9621308245526698 -2.619274744834891 #
point $-1 54.143498031556135 -4.9621308245526698 -2.619274744834891 #
straight-curve $-1 -54.143498031556135 0 2.619274744834891 0 -1 0 I I #
point $-1 -54.143498031556135 4.9621308245526698 2.619274744834891 #
point $-1 -54.143498031556135 -4.9621308245526698 2.619274744834891 #
straight-curve $-1 54.143498031556135 -4.9621308245526698 0 0 0 -1 I I #
straight-curve $-1 54.143498031556135 4.9621308245526698 0 0 0 -1 I I #
plane-surface $-1 216.57399212622454 0 0 -1 0 0 0 0 1 forward_v I I I I #
coedge $-1 $435 $433 $437 $584 reversed $268 $-1 #
edge $-1 $448 -108.28699606311227 $586 108.28699606311227 $447 $649 forward 7 unknown #
vertex $-1 $584 $650 #
straight-curve $-1 -216.57399212622454 -3.2028525794100249 0 0 0 -1 I I #
edge $-1 $582 -3.2028525794100249 $586 3.2028525794100249 $580 $651 forward 7 unknown #
straight-curve $-1 0 -3.2028525794100249 -108.28699606311227 -1 0 0 I I #
vertex $-1 $440 $652 #
straight-curve $-1 0 3.2028525794100249 -108.28699606311227 1 0 0 I I #
point $-1 216.57399212622454 3.2028525794100249 -108.28699606311227 #
point $-1 216.57399212622454 -3.2028525794100249 -108.28699606311227 #
straight-curve $-1 -216.57399212622454 0 108.28699606311227 0 -1 0 I I #
point $-1 -216.57399212622454 3.2028525794100249 108.28699606311227 #
point $-1 -216.57399212622454 -3.2028525794100249 108.28699606311227 #
straight-curve $-1 216.57399212622454 -3.2028525794100249 0 0 0 -1 I I #
straight-curve $-1 216.57399212622454 3.2028525794100249 0 0 0 -1 I I #
edge $-1 $653 1 $653 0 $457 $-1 forward 7 unknown #
point $-1 0.5 0 -0.25 #
edge $-1 $654 1 $654 0 $461 $-1 forward 7 unknown #
point $-1 0.5 0 -0.25 #
plane-surface $-1 216.57399212622454 0 0 -1 0 0 0 0 1 forward_v I I I I #
coedge $-1 $470 $468 $472 $604 reversed $297 $-1 #
edge $-1 $483 -108.28699606311227 $606 108.28699606311227 $482 $655 forward 7 unknown #
vertex $-1 $604 $656 #
straight-curve $-1 -216.57399212622454 -3.2028525794100249 0 0 0 -1 I I #
edge $-1 $602 -3.2028525794100249 $606 3.2028525794100249 $600 $657 forward 7 unknown #
straight-curve $-1 0 -3.2028525794100249 -108.28699606311227 -1 0 0 I I #
vertex $-1 $475 $658 #
straight-curve $-1 0 3.2028525794100249 -108.28699606311227 1 0 0 I I #
point $-1 216.57399212622454 3.2028525794100249 -108.28699606311227 #
point $-1 216.57399212622454 -3.2028525794100249 -108.28699606311227 #
straight-curve $-1 -216.57399212622454 0 108.28699606311227 0 -1 0 I I #
point $-1 -216.57399212622454 3.2028525794100249 108.28699606311227 #
point $-1 -216.57399212622454 -3.2028525794100249 108.28699606311227 #
straight-curve $-1 216.57399212622454 -3.2028525794100249 0 0 0 -1 I I #
straight-curve $-1 216.57399212622454 3.2028525794100249 0 0 0 -1 I I #
edge $-1 $659 1 $659 0 $492 $-1 forward 7 unknown #
point $-1 0.5 0 -0.25 #
edge $-1 $660 1 $660 0 $496 $-1 forward 7 unknown #
point $-1 0.5 0 -0.25 #
plane-surface $-1 216.57399212622454 0 0 -1 0 0 0 0 1 forward_v I I I I #
coedge $-1 $505 $503 $507 $624 reversed $326 $-1 #
edge $-1 $518 -108.28699606311227 $626 108.28699606311227 $517 $661 forward 7 unknown #
vertex $-1 $624 $662 #
straight-curve $-1 -216.57399212622454 -4.0198537990140046 0 0 0 -1 I I #
edge $-1 $622 -4.0198537990140046 $626 4.0198537990140046 $620 $663 forward 7 unknown #
straight-curve $-1 0 -4.0198537990140046 -108.28699606311227 -1 0 0 I I #
vertex $-1 $510 $664 #
straight-curve $-1 0 4.0198537990140046 -108.28699606311227 1 0 0 I I #
point $-1 216.57399212622454 4.0198537990140046 -108.28699606311227 #
point $-1 216.57399212622454 -4.0198537990140046 -108.28699606311227 #
straight-curve $-1 -216.57399212622454 0 108.28699606311227 0 -1 0 I I #
point $-1 -216.57399212622454 4.0198537990140046 108.28699606311227 #
point $-1 -216.57399212622454 -4.0198537990140046 108.28699606311227 #
straight-curve $-1 216.57399212622454 -4.0198537990140046 0 0 0 -1 I I #
straight-curve $-1 216.57399212622454 4.0198537990140046 0 0 0 -1 I I #
edge $-1 $665 1 $665 0 $527 $-1 forward 7 unknown #
point $-1 1 0 -0.5 #
straight-curve $-1 -54.143498031556135 23.584733912290016 0 0 0 -1 I I #
point $-1 -54.143498031556135 -23.584733912290016 -10.43588667015295 #
straight-curve $-1 -54.143498031556135 0 -10.43588667015295 0 1 0 I I #
point $-1 -54.143498031556135 23.584733912290016 -10.43588667015295 #
straight-curve $-1 -54.143498031556135 4.962130824552669 0 0 0 -1 I I #
point $-1 -54.143498031556135 -4.962130824552669 -2.619274744834891 #
straight-curve $-1 -54.143498031556135 0 -2.619274744834891 0 1 0 I I #
point $-1 -54.143498031556135 4.962130824552669 -2.619274744834891 #
straight-curve $-1 -54.143498031556135 4.9621308245526698 0 0 0 -1 I I #
point $-1 -54.143498031556135 -4.9621308245526698 -2.619274744834891 #
straight-curve $-1 -54.143498031556135 0 -2.619274744834891 0 1 0 I I #
point $-1 -54.143498031556135 4.9621308245526698 -2.619274744834891 #
straight-curve $-1 -216.57399212622454 3.2028525794100249 0 0 0 -1 I I #
point $-1 -216.57399212622454 -3.2028525794100249 -108.28699606311227 #
straight-curve $-1 -216.57399212622454 0 -108.28699606311227 0 1 0 I I #
point $-1 -216.57399212622454 3.2028525794100249 -108.28699606311227 #
vertex $-1 $595 $666 #
vertex $-1 $597 $667 #
straight-curve $-1 -216.57399212622454 3.2028525794100249 0 0 0 -1 I I #
point $-1 -216.57399212622454 -3.2028525794100249 -108.28699606311227 #
straight-curve $-1 -216.57399212622454 0 -108.28699606311227 0 1 0 I I #
point $-1 -216.57399212622454 3.2028525794100249 -108.28699606311227 #
vertex $-1 $615 $668 #
vertex $-1 $617 $669 #
straight-curve $-1 -216.57399212622454 4.0198537990140046 0 0 0 -1 I I #
point $-1 -216.57399212622454 -4.0198537990140046 -108.28699606311227 #
straight-curve $-1 -216.57399212622454 0 -108.28699606311227 0 1 0 I I #
point $-1 -216.57399212622454 4.0198537990140046 -108.28699606311227 #
vertex $-1 $635 $670 #
point $-1 0 0 0.25 #
point $-1 0 0 0.25 #
point $-1 0 0 0.25 #
point $-1 0 0 0.25 #
point $-1 0 0 0.5 #
End-of-ACIS-data 