500 0 10 0           
7 Unknown 11 ACIS 5.0 NT 24 Fri Mar 26 03:17:23 1999 
-1 9.9999999999999995e-007 1e-010 
body $-1 $10 $-1 $11 #
body $-1 $12 $-1 $13 #
body $-1 $14 $-1 $15 #
body $-1 $16 $-1 $17 #
body $-1 $18 $-1 $19 #
body $-1 $20 $-1 $21 #
body $-1 $22 $-1 $23 #
body $-1 $24 $-1 $25 #
body $-1 $26 $-1 $27 #
body $-1 $28 $-1 $29 #
lump $-1 $-1 $30 $0 #
transform $-1 1 0 0 0 1 0 0 0 1 55.657216101565595 28.342087357020883 10.061540481942494 1 rotate no_reflect no_shear #
lump $-1 $-1 $31 $1 #
transform $-1 1 0 0 0 1 0 0 0 1 55.657216101565595 28.342087357020883 10.061540481942494 1 rotate no_reflect no_shear #
lump $-1 $-1 $32 $2 #
transform $-1 1 0 0 0 1 0 0 0 1 55.657216101565595 28.342087357020883 10.061540481942494 1 rotate no_reflect no_shear #
lump $-1 $-1 $33 $3 #
transform $-1 1 0 0 0 1 0 0 0 1 55.657216101565595 28.342087357020883 10.061540481942494 1 rotate no_reflect no_shear #
lump $-1 $-1 $34 $4 #
transform $-1 1 0 0 0 1 0 0 0 1 55.657216101565595 28.342087357020883 10.061540481942494 1 rotate no_reflect no_shear #
lump $-1 $-1 $35 $5 #
transform $-1 1 0 0 0 1 0 0 0 1 55.657216101565595 28.342087357020883 10.061540481942494 1 rotate no_reflect no_shear #
lump $-1 $-1 $36 $6 #
transform $-1 1 0 0 0 1 0 0 0 1 55.657216101565595 28.342087357020883 10.061540481942494 1 rotate no_reflect no_shear #
lump $-1 $-1 $37 $7 #
transform $-1 1 0 0 0 1 0 0 0 1 55.657216101565595 28.342087357020883 10.061540481942494 1 rotate no_reflect no_shear #
lump $-1 $-1 $38 $8 #
transform $-1 1 0 0 0 1 0 0 0 1 55.657216101565595 28.342087357020883 10.061540481942494 1 rotate no_reflect no_shear #
lump $-1 $-1 $39 $9 #
transform $-1 1 0 0 0 1 0 0 0 1 55.657216101565595 28.342087357020883 10.061540481942494 1 rotate no_reflect no_shear #
shell $-1 $-1 $-1 $40 $-1 $10 #
shell $-1 $-1 $-1 $41 $-1 $12 #
shell $-1 $-1 $-1 $42 $-1 $14 #
shell $-1 $-1 $-1 $43 $-1 $16 #
shell $-1 $-1 $-1 $44 $-1 $18 #
shell $-1 $-1 $-1 $45 $-1 $20 #
shell $-1 $-1 $-1 $46 $-1 $22 #
shell $-1 $-1 $-1 $47 $-1 $24 #
shell $-1 $-1 $-1 $48 $-1 $26 #
shell $-1 $-1 $-1 $49 $-1 $28 #
face $-1 $50 $51 $30 $-1 $52 forward single #
face $-1 $53 $54 $31 $-1 $55 reversed single #
face $-1 $56 $57 $32 $-1 $58 reversed single #
face $-1 $59 $60 $33 $-1 $61 forward single #
face $-1 $62 $63 $34 $-1 $64 forward single #
face $-1 $65 $66 $35 $-1 $67 forward single #
face $-1 $68 $69 $36 $-1 $70 reversed single #
face $-1 $71 $72 $37 $-1 $73 forward single #
face $-1 $74 $75 $38 $-1 $76 reversed single #
face $-1 $77 $78 $39 $-1 $79 forward single #
face $-1 $80 $81 $30 $-1 $82 reversed single #
loop $-1 $-1 $83 $40 #
plane-surface $-1 0 0 10.061540481942494 0 0 1 1 0 0 forward_v I I I I #
face $-1 $84 $85 $31 $-1 $86 reversed single #
loop $-1 $-1 $87 $41 #
plane-surface $-1 -51.633671559421309 -21.960909874527765 0 0 1 0 0 0 1 forward_v I I I I #
face $-1 $88 $89 $32 $-1 $90 reversed single #
loop $-1 $-1 $91 $42 #
plane-surface $-1 -45.607616413224193 96.401127716197863 106.28005654337915 1 0 0 0 -0.86602541151947299 -0.49999998660252726 forward_v I I I I #
face $-1 $92 $93 $33 $-1 $94 forward single #
loop $-1 $95 $96 $43 #
cone-surface $-1 -42.207140389225387 24.231840883418808 4.845610463131802 0 -0.86602541151947299 -0.49999998660252726 1 0 0 1 I I 0 1 1 forward I I I I #
face $-1 $97 $98 $34 $-1 $99 forward single #
loop $-1 $100 $101 $44 #
cone-surface $-1 -37.106426353227185 24.231840883418808 4.845610463131802 0 -0.86602541151947299 -0.49999998660252726 1 0 0 1 I I 0 1 1 forward I I I I #
face $-1 $102 $103 $35 $-1 $104 forward single #
loop $-1 $105 $106 $45 #
cone-surface $-1 -32.005712317228983 24.231840883418808 4.845610463131802 0 -0.86602541151947299 -0.49999998660252726 1 0 0 1 I I 0 1 1 forward I I I I #
face $-1 $107 $108 $36 $-1 $109 reversed single #
loop $-1 $-1 $110 $46 #
plane-surface $-1 -15.595527166334612 -92.189423517391262 96.714880004029794 -1 0 0 0 -0.57357644374324357 0.81915203911291934 forward_v I I I I #
face $-1 $111 $112 $37 $-1 $113 forward single #
loop $-1 $114 $115 $47 #
cone-surface $-1 -26.636878930295584 -24.64292786918784 7.1333567696586364 0 0.57357644374324357 -0.81915203911291934 1.5 0 0 1 I I 0 1 1.5 forward I I I I #
face $-1 $116 $117 $38 $-1 $118 reversed single #
loop $-1 $-1 $119 $48 #
plane-surface $-1 45.725319778545142 -92.189423517391262 96.714880004029794 -1 0 0 0 -0.57357644374324357 0.81915203911291934 forward_v I I I I #
face $-1 $120 $121 $39 $-1 $122 forward single #
loop $-1 $123 $124 $49 #
cone-surface $-1 34.683968014584167 -24.64292786918784 7.1333567696586364 0 0.57357644374324357 -0.81915203911291934 1.5 0 0 1 I I 0 1 1.5 forward I I I I #
face $-1 $125 $126 $30 $-1 $127 reversed single #
loop $-1 $-1 $128 $50 #
plane-surface $-1 0 0 -10.061540481942494 0 0 1 1 0 0 forward_v I I I I #
coedge $-1 $129 $130 $131 $132 forward $51 $-1 #
face $-1 $133 $134 $31 $-1 $135 reversed single #
loop $-1 $-1 $136 $53 #
plane-surface $-1 -51.633671559421309 -17.618360425273117 0 0 -1 0 0 0 -1 forward_v I I I I #
coedge $-1 $137 $138 $139 $140 reversed $54 $-1 #
face $-1 $141 $142 $32 $-1 $143 reversed single #
loop $-1 $-1 $144 $56 #
plane-surface $-1 -37.106426353227185 7.5942469379697286e-007 50.622841933145622 0 0.86602541151947299 0.49999998660252726 1 0 0 forward_v I I I I #
coedge $-1 $145 $146 $147 $148 reversed $57 $-1 #
face $-1 $-1 $149 $33 $-1 $150 forward single #
loop $-1 $151 $152 $59 #
cone-surface $-1 -42.207140389225387 22.150586265412333 3.6439975921031476 0 -0.86602541151947299 -0.49999998660252726 0.5 0 0 1 I I -0.70710678118654746 0.70710678118654746 0.5 forward I I I I #
loop $-1 $-1 $153 $43 #
coedge $-1 $96 $96 $154 $155 reversed $60 $-1 #
face $-1 $-1 $156 $34 $-1 $157 forward single #
loop $-1 $158 $159 $62 #
cone-surface $-1 -37.106426353227185 22.150586265412333 3.6439975921031476 0 -0.86602541151947299 -0.49999998660252726 0.5 0 0 1 I I -0.70710678118654746 0.70710678118654746 0.5 forward I I I I #
loop $-1 $-1 $160 $44 #
coedge $-1 $101 $101 $161 $162 reversed $63 $-1 #
face $-1 $-1 $163 $35 $-1 $164 forward single #
loop $-1 $165 $166 $65 #
cone-surface $-1 -32.005712317228983 22.150586265412333 3.6439975921031476 0 -0.86602541151947299 -0.49999998660252726 0.5 0 0 1 I I -0.70710678118654746 0.70710678118654746 0.5 forward I I I I #
loop $-1 $-1 $167 $45 #
coedge $-1 $106 $106 $168 $169 reversed $66 $-1 #
face $-1 $170 $171 $36 $-1 $172 reversed single #
loop $-1 $-1 $173 $68 #
plane-surface $-1 -26.636878930295584 -28.342087357020887 5.5314358821380694 0 -0.57357644374324357 0.81915203911291934 1 0 0 forward_v I I I I #
coedge $-1 $174 $175 $176 $177 reversed $69 $-1 #
face $-1 $-1 $178 $37 $-1 $179 forward single #
loop $-1 $180 $181 $71 #
cone-surface $-1 -26.636878930295584 -23.748415913688881 5.8558613279423035 0 0.57357644374324357 -0.81915203911291934 0.75 0 0 1 I I -0.70710678118654757 0.70710678118654757 0.75 forward I I I I #
loop $-1 $-1 $182 $47 #
coedge $-1 $115 $115 $183 $184 reversed $72 $-1 #
face $-1 $185 $186 $38 $-1 $187 reversed single #
loop $-1 $-1 $188 $74 #
plane-surface $-1 34.683968014584167 -28.342087357020887 5.5314358821380694 0 -0.57357644374324357 0.81915203911291934 1 0 0 forward_v I I I I #
coedge $-1 $189 $190 $191 $192 reversed $75 $-1 #
face $-1 $-1 $193 $39 $-1 $194 forward single #
loop $-1 $195 $196 $77 #
cone-surface $-1 34.683968014584167 -23.748415913688881 5.8558613279423035 0 0.57357644374324357 -0.81915203911291934 0.75 0 0 1 I I -0.70710678118654757 0.70710678118654757 0.75 forward I I I I #
loop $-1 $-1 $197 $49 #
coedge $-1 $124 $124 $198 $199 reversed $78 $-1 #
face $-1 $200 $201 $30 $-1 $202 reversed single #
loop $-1 $-1 $203 $80 #
plane-surface $-1 0 -28.342087357020883 0 0 1 0 0 0 1 forward_v I I I I #
coedge $-1 $204 $205 $206 $207 forward $81 $-1 #
coedge $-1 $208 $83 $209 $210 forward $51 $-1 #
coedge $-1 $83 $208 $211 $212 forward $51 $-1 #
coedge $-1 $213 $214 $83 $132 reversed $215 $-1 #
edge $-1 $216 -28.342087357020883 $217 28.342087357020883 $131 $218 forward 7 unknown #
face $-1 $219 $220 $31 $-1 $221 reversed single #
loop $-1 $-1 $222 $84 #
plane-surface $-1 -47.610127017277023 -19.789635149900441 0 -1 0 0 0 0 1 forward_v I I I I #
coedge $-1 $223 $224 $225 $226 forward $85 $-1 #
coedge $-1 $227 $87 $228 $229 reversed $54 $-1 #
coedge $-1 $87 $227 $230 $231 reversed $54 $-1 #
coedge $-1 $232 $233 $87 $140 forward $234 $-1 #
edge $-1 $235 -10.061540481942494 $236 10.061540481942494 $139 $237 forward 7 unknown #
face $-1 $238 $239 $32 $-1 $240 reversed single #
loop $-1 $-1 $241 $88 #
plane-surface $-1 -28.605236293230178 96.401127716197863 106.28005654337915 -1 0 0 0 0.86602541151947299 0.49999998660252726 forward_v I I I I #
coedge $-1 $242 $243 $244 $245 reversed $89 $-1 #
coedge $-1 $146 $91 $246 $247 reversed $57 $-1 #
coedge $-1 $91 $145 $242 $248 reversed $57 $-1 #
coedge $-1 $244 $249 $91 $148 forward $250 $-1 #
edge $-1 $251 19.858476501078048 $252 24.78248562378872 $147 $253 forward 7 unknown #
loop $-1 $-1 $154 $92 #
plane-surface $-1 -37.106426353227185 7.5942469379697286e-007 50.622841933145622 0 0.86602541151947299 0.49999998660252726 1 0 0 forward_v I I I I #
loop $-1 $-1 $254 $59 #
coedge $-1 $152 $152 $153 $255 reversed $93 $-1 #
coedge $-1 $153 $153 $152 $255 forward $95 $-1 #
coedge $-1 $154 $154 $96 $155 forward $149 $-1 #
edge $-1 $256 5.3119845246768275e-016 $256 6.2831853071796013 $154 $257 forward 7 unknown #
loop $-1 $-1 $161 $97 #
plane-surface $-1 -37.106426353227185 7.5942469379697286e-007 50.622841933145622 0 0.86602541151947299 0.49999998660252726 1 0 0 forward_v I I I I #
loop $-1 $-1 $258 $62 #
coedge $-1 $159 $159 $160 $259 reversed $98 $-1 #
coedge $-1 $160 $160 $159 $259 forward $100 $-1 #
coedge $-1 $161 $161 $101 $162 forward $156 $-1 #
edge $-1 $260 5.3119845246768275e-016 $260 6.2831853071796013 $161 $261 forward 7 unknown #
loop $-1 $-1 $168 $102 #
plane-surface $-1 -37.106426353227185 7.5942469379697286e-007 50.622841933145622 0 0.86602541151947299 0.49999998660252726 1 0 0 forward_v I I I I #
loop $-1 $-1 $262 $65 #
coedge $-1 $166 $166 $167 $263 reversed $103 $-1 #
coedge $-1 $167 $167 $166 $263 forward $105 $-1 #
coedge $-1 $168 $168 $106 $169 forward $163 $-1 #
edge $-1 $264 5.3119845246768275e-016 $264 6.2831853071796013 $168 $265 forward 7 unknown #
face $-1 $266 $267 $36 $-1 $268 forward single #
loop $-1 $-1 $269 $107 #
plane-surface $-1 -37.678230694256555 -92.189423517391262 96.714880004029794 1 0 0 0 0.57357644374324357 -0.81915203911291934 forward_v I I I I #
coedge $-1 $270 $271 $272 $273 reversed $108 $-1 #
coedge $-1 $175 $110 $274 $275 reversed $69 $-1 #
coedge $-1 $110 $174 $270 $276 reversed $69 $-1 #
coedge $-1 $272 $277 $110 $177 forward $267 $-1 #
edge $-1 $278 17.752624401674748 $279 24.222284131957768 $176 $280 forward 7 unknown #
loop $-1 $-1 $183 $111 #
plane-surface $-1 -26.636878930295584 -28.342087357020887 5.5314358821380694 0 -0.57357644374324357 0.81915203911291934 1 0 0 forward_v I I I I #
loop $-1 $-1 $281 $71 #
coedge $-1 $181 $181 $182 $282 reversed $112 $-1 #
coedge $-1 $182 $182 $181 $282 forward $114 $-1 #
coedge $-1 $183 $183 $115 $184 forward $178 $-1 #
edge $-1 $283 -1.6981273979369729e-015 $283 6.2831853071795987 $183 $284 forward 7 unknown #
face $-1 $285 $286 $38 $-1 $287 reversed single #
loop $-1 $-1 $288 $116 #
plane-surface $-1 23.642616250623195 -92.189423517391262 96.714880004029794 1 0 0 0 0.57357644374324357 -0.81915203911291934 forward_v I I I I #
coedge $-1 $289 $290 $291 $292 reversed $117 $-1 #
coedge $-1 $190 $119 $293 $294 reversed $75 $-1 #
coedge $-1 $119 $189 $289 $295 reversed $75 $-1 #
coedge $-1 $291 $296 $119 $192 forward $297 $-1 #
edge $-1 $298 17.752624401674748 $299 24.222284131957768 $191 $300 forward 7 unknown #
loop $-1 $-1 $198 $120 #
plane-surface $-1 34.683968014584167 -28.342087357020887 5.5314358821380694 0 -0.57357644374324357 0.81915203911291934 1 0 0 forward_v I I I I #
loop $-1 $-1 $301 $77 #
coedge $-1 $196 $196 $197 $302 reversed $121 $-1 #
coedge $-1 $197 $197 $196 $302 forward $123 $-1 #
coedge $-1 $198 $198 $124 $199 forward $193 $-1 #
edge $-1 $303 -1.6981273979369729e-015 $303 6.2831853071795987 $198 $304 forward 7 unknown #
face $-1 $305 $306 $30 $-1 $307 reversed single #
loop $-1 $-1 $308 $125 #
plane-surface $-1 -55.657216101565595 0 0 1 0 0 0 0 -1 forward_v I I I I #
coedge $-1 $309 $211 $310 $311 forward $126 $-1 #
coedge $-1 $312 $128 $309 $313 forward $81 $-1 #
coedge $-1 $128 $312 $314 $315 forward $81 $-1 #
coedge $-1 $214 $213 $128 $207 reversed $215 $-1 #
edge $-1 $316 -28.342087357020883 $317 28.342087357020883 $206 $318 forward 7 unknown #
coedge $-1 $130 $129 $319 $320 forward $51 $-1 #
coedge $-1 $321 $322 $129 $210 reversed $306 $-1 #
edge $-1 $217 -55.657216101565595 $323 55.657216101565595 $209 $324 forward 7 unknown #
coedge $-1 $203 $325 $130 $212 reversed $126 $-1 #
edge $-1 $326 -55.657216101565595 $216 55.657216101565595 $211 $327 forward 7 unknown #
coedge $-1 $206 $131 $325 $328 forward $215 $-1 #
coedge $-1 $131 $206 $321 $329 reversed $215 $-1 #
loop $-1 $-1 $213 $305 #
vertex $-1 $132 $330 #
vertex $-1 $132 $331 #
straight-curve $-1 55.657216101565595 0 10.061540481942494 0 1 0 I I #
face $-1 $332 $333 $31 $-1 $334 forward single #
loop $-1 $-1 $335 $133 #
plane-surface $-1 0 0 -10.061540481942494 0 0 1 1 0 0 forward_v I I I I #
coedge $-1 $336 $337 $227 $338 forward $134 $-1 #
coedge $-1 $339 $136 $335 $340 reversed $85 $-1 #
coedge $-1 $136 $339 $341 $342 reversed $85 $-1 #
coedge $-1 $337 $336 $136 $226 reversed $134 $-1 #
edge $-1 $343 -10.061540481942494 $344 10.061540481942494 $225 $345 forward 7 unknown #
coedge $-1 $138 $137 $222 $338 reversed $54 $-1 #
coedge $-1 $346 $347 $137 $229 forward $220 $-1 #
edge $-1 $348 21.793291237566368 $235 29.840380321854941 $228 $349 forward 7 unknown #
coedge $-1 $350 $351 $138 $231 forward $333 $-1 #
edge $-1 $236 -29.840380321854941 $352 -21.793291237566368 $230 $353 forward 7 unknown #
coedge $-1 $354 $139 $351 $355 reversed $234 $-1 #
coedge $-1 $139 $354 $346 $356 reversed $234 $-1 #
loop $-1 $-1 $354 $332 #
vertex $-1 $356 $357 #
vertex $-1 $140 $358 #
straight-curve $-1 -55.657216101565595 -21.960909874527765 0 0 0 1 I I #
face $-1 $-1 $250 $32 $-1 $359 forward single #
loop $-1 $-1 $360 $141 #
plane-surface $-1 0 28.342087357020883 0 0 -1 0 0 0 -1 forward_v I I I I #
coedge $-1 $361 $362 $363 $364 reversed $142 $-1 #
coedge $-1 $365 $144 $146 $248 forward $89 $-1 #
coedge $-1 $144 $365 $361 $366 forward $89 $-1 #
coedge $-1 $363 $147 $144 $245 forward $250 $-1 #
edge $-1 $252 -27.0544032366106 $367 -10.052023116616585 $244 $368 forward 7 unknown #
coedge $-1 $369 $370 $145 $247 forward $239 $-1 #
edge $-1 $371 -51.607122071913665 $251 -43.078487789747079 $246 $372 forward 7 unknown #
edge $-1 $252 46.83615620474329 $371 56.684174714041752 $146 $373 forward 7 unknown #
coedge $-1 $147 $363 $369 $374 forward $250 $-1 #
loop $-1 $-1 $363 $238 #
vertex $-1 $247 $375 #
vertex $-1 $148 $376 #
straight-curve $-1 -45.607616413224193 48.200563858098931 10.061540481942494 0 -1 0 I I #
coedge $-1 $254 $254 $-1 $377 reversed $151 $-1 #
edge $-1 $378 0 $378 6.2831853071796004 $152 $379 forward 7 unknown #
vertex $-1 $155 $380 #
ellipse-curve $-1 -42.207140389225387 25.880082795665551 5.7972233408591958 0 0.86602541151947299 0.49999998660252726 1 0 0 1 I I #
coedge $-1 $258 $258 $-1 $381 reversed $158 $-1 #
edge $-1 $382 0 $382 6.2831853071796004 $159 $383 forward 7 unknown #
vertex $-1 $162 $384 #
ellipse-curve $-1 -37.106426353227185 25.880082795665551 5.7972233408591958 0 0.86602541151947299 0.49999998660252726 1 0 0 1 I I #
coedge $-1 $262 $262 $-1 $385 reversed $165 $-1 #
edge $-1 $386 0 $386 6.2831853071796004 $166 $387 forward 7 unknown #
vertex $-1 $169 $388 #
ellipse-curve $-1 -32.005712317228983 25.880082795665551 5.7972233408591958 0 0.86602541151947299 0.49999998660252726 1 0 0 1 I I #
face $-1 $-1 $389 $36 $-1 $390 reversed single #
loop $-1 $-1 $176 $170 #
plane-surface $-1 0 0 10.061540481942494 0 0 1 1 0 0 forward_v I I I I #
coedge $-1 $391 $392 $393 $394 reversed $171 $-1 #
coedge $-1 $395 $173 $175 $276 forward $108 $-1 #
coedge $-1 $173 $395 $391 $396 forward $108 $-1 #
coedge $-1 $393 $176 $173 $273 forward $267 $-1 #
edge $-1 $279 2.2770877011868205 $397 24.359791229108765 $272 $398 forward 7 unknown #
coedge $-1 $399 $400 $174 $275 forward $389 $-1 #
edge $-1 $401 -42.826004119876828 $278 -38.295899520072403 $274 $402 forward 7 unknown #
edge $-1 $279 -7.8979962465688098 $401 -4.4385273125170671e-015 $175 $403 forward 7 unknown #
coedge $-1 $176 $393 $399 $404 forward $267 $-1 #
vertex $-1 $275 $405 #
vertex $-1 $177 $406 #
straight-curve $-1 -15.595527166334612 -46.094711758695631 10.061540481942494 0 1 0 I I #
coedge $-1 $281 $281 $-1 $407 reversed $180 $-1 #
edge $-1 $408 0 $408 6.2831853071796004 $181 $409 forward 7 unknown #
vertex $-1 $184 $410 #
ellipse-curve $-1 -26.636878930295584 -25.10725749187937 7.7964881820402843 0 -0.57357644374324357 0.81915203911291934 1.5 0 0 1 I I #
face $-1 $-1 $297 $38 $-1 $411 forward single #
loop $-1 $-1 $412 $185 #
plane-surface $-1 0 -28.342087357020883 0 0 1 0 0 0 1 forward_v I I I I #
coedge $-1 $413 $414 $415 $416 reversed $186 $-1 #
coedge $-1 $417 $188 $190 $295 forward $117 $-1 #
coedge $-1 $188 $417 $413 $418 forward $117 $-1 #
coedge $-1 $415 $191 $188 $292 forward $297 $-1 #
edge $-1 $299 -28.383335771253059 $419 -6.3006322433311119 $291 $420 forward 7 unknown #
coedge $-1 $421 $422 $189 $294 forward $286 $-1 #
edge $-1 $423 -42.826004119876828 $298 -38.295899520072403 $293 $424 forward 7 unknown #
edge $-1 $299 -7.8979962465688098 $423 -4.4385273125170671e-015 $190 $425 forward 7 unknown #
coedge $-1 $191 $415 $421 $426 forward $297 $-1 #
loop $-1 $-1 $415 $285 #
vertex $-1 $294 $427 #
vertex $-1 $192 $428 #
straight-curve $-1 45.725319778545142 -46.094711758695631 10.061540481942494 0 1 0 I I #
coedge $-1 $301 $301 $-1 $429 reversed $195 $-1 #
edge $-1 $430 0 $430 6.2831853071796004 $196 $431 forward 7 unknown #
vertex $-1 $199 $432 #
ellipse-curve $-1 34.683968014584167 -25.10725749187937 7.7964881820402843 0 -0.57357644374324357 0.81915203911291934 1.5 0 0 1 I I #
face $-1 $-1 $215 $30 $-1 $433 reversed single #
loop $-1 $-1 $321 $200 #
plane-surface $-1 0 28.342087357020883 0 0 -1 0 0 0 -1 forward_v I I I I #
coedge $-1 $434 $319 $322 $435 forward $201 $-1 #
coedge $-1 $325 $203 $204 $313 reversed $126 $-1 #
coedge $-1 $319 $434 $203 $311 reversed $201 $-1 #
edge $-1 $326 -10.061540481942494 $436 10.061540481942494 $310 $437 forward 7 unknown #
coedge $-1 $205 $204 $434 $438 forward $81 $-1 #
edge $-1 $317 -55.657216101565595 $436 55.657216101565595 $309 $439 forward 7 unknown #
coedge $-1 $322 $321 $205 $315 reversed $306 $-1 #
edge $-1 $440 -55.657216101565595 $316 55.657216101565595 $314 $441 forward 7 unknown #
vertex $-1 $207 $442 #
vertex $-1 $328 $443 #
straight-curve $-1 55.657216101565595 0 -10.061540481942494 0 -1 0 I I #
coedge $-1 $308 $310 $208 $320 reversed $201 $-1 #
edge $-1 $323 -28.342087357020883 $326 28.342087357020883 $319 $444 forward 7 unknown #
coedge $-1 $314 $209 $214 $329 forward $306 $-1 #
coedge $-1 $209 $314 $308 $435 reversed $306 $-1 #
vertex $-1 $210 $445 #
straight-curve $-1 0 28.342087357020883 10.061540481942494 -1 0 0 I I #
coedge $-1 $211 $309 $213 $328 reversed $126 $-1 #
vertex $-1 $320 $446 #
straight-curve $-1 0 -28.342087357020883 10.061540481942494 1 0 0 I I #
edge $-1 $216 -10.061540481942494 $317 10.061540481942494 $213 $447 forward 7 unknown #
edge $-1 $217 -10.061540481942494 $316 10.061540481942494 $214 $448 forward 7 unknown #
point $-1 55.657216101565595 -28.342087357020883 10.061540481942494 #
point $-1 55.657216101565595 28.342087357020883 10.061540481942494 #
face $-1 $-1 $234 $31 $-1 $449 reversed single #
loop $-1 $-1 $341 $219 #
plane-surface $-1 0 0 10.061540481942494 0 0 1 1 0 0 forward_v I I I I #
coedge $-1 $347 $346 $223 $340 forward $220 $-1 #
coedge $-1 $225 $222 $347 $450 reversed $134 $-1 #
coedge $-1 $222 $225 $350 $451 reversed $134 $-1 #
edge $-1 $352 -10.061540481942494 $348 10.061540481942494 $222 $452 forward 7 unknown #
coedge $-1 $224 $223 $354 $453 reversed $85 $-1 #
edge $-1 $454 -29.840380321854941 $344 -21.793291237566368 $335 $455 forward 7 unknown #
coedge $-1 $351 $350 $224 $342 forward $333 $-1 #
edge $-1 $343 21.793291237566368 $456 29.840380321854941 $341 $457 forward 7 unknown #
vertex $-1 $342 $458 #
vertex $-1 $340 $459 #
straight-curve $-1 -47.610127017277023 -17.618360425273117 0 0 0 -1 I I #
coedge $-1 $335 $228 $233 $356 forward $220 $-1 #
coedge $-1 $228 $335 $336 $450 forward $220 $-1 #
vertex $-1 $229 $460 #
straight-curve $-1 -25.816835779710654 -21.960909874527765 -10.061540481942494 -1 0 0 I I #
coedge $-1 $341 $230 $337 $451 forward $333 $-1 #
coedge $-1 $230 $341 $232 $355 forward $333 $-1 #
vertex $-1 $231 $461 #
straight-curve $-1 -25.816835779710654 -21.960909874527765 10.061540481942494 1 0 0 I I #
coedge $-1 $233 $232 $339 $453 forward $234 $-1 #
edge $-1 $456 17.618360425273117 $236 21.960909874527765 $232 $462 forward 7 unknown #
edge $-1 $235 -21.960909874527765 $454 -17.618360425273117 $233 $463 forward 7 unknown #
point $-1 -55.657216101565595 -21.960909874527765 -10.061540481942494 #
point $-1 -55.657216101565595 -21.960909874527765 10.061540481942494 #
plane-surface $-1 0 0 10.061540481942494 0 0 1 1 0 0 forward_v I I I I #
coedge $-1 $370 $369 $362 $464 forward $239 $-1 #
coedge $-1 $362 $241 $243 $366 reversed $142 $-1 #
coedge $-1 $241 $361 $360 $464 reversed $142 $-1 #
coedge $-1 $249 $244 $241 $364 forward $250 $-1 #
edge $-1 $367 -24.78248562378872 $465 -19.858476501078048 $363 $466 forward 7 unknown #
coedge $-1 $243 $242 $370 $467 reversed $89 $-1 #
edge $-1 $468 -56.684174714041752 $367 -46.83615620474329 $361 $469 forward 7 unknown #
vertex $-1 $245 $470 #
straight-curve $-1 -18.553213176613593 23.418078234310215 10.061540481942494 1 0 0 I I #
coedge $-1 $360 $246 $249 $374 reversed $239 $-1 #
coedge $-1 $246 $360 $365 $467 forward $239 $-1 #
vertex $-1 $247 $471 #
straight-curve $-1 -45.607616413224193 28.342087357020887 53.140028271689573 0 0 1 I I #
straight-curve $-1 -45.607616413224193 7.5942469379697286e-007 50.622841933145622 0 0.49999998660252726 -0.86602541151947299 I I #
edge $-1 $465 28.605236293230178 $251 45.607616413224193 $369 $472 forward 7 unknown #
point $-1 -45.607616413224193 28.342087357020883 10.061540481942494 #
point $-1 -45.607616413224193 23.418078234310212 10.061540481942494 #
edge $-1 $473 1 $473 0 $254 $-1 forward 7 unknown #
vertex $-1 $255 $474 #
ellipse-curve $-1 -42.207140389225387 22.583598971172069 3.8939975854044113 0 0.86602541151947299 0.49999998660252726 1 0 0 1 I I #
point $-1 -41.207140389225387 25.880082795665547 5.7972233408591931 #
edge $-1 $475 1 $475 0 $258 $-1 forward 7 unknown #
vertex $-1 $259 $476 #
ellipse-curve $-1 -37.106426353227185 22.583598971172069 3.8939975854044113 0 0.86602541151947299 0.49999998660252726 1 0 0 1 I I #
point $-1 -36.106426353227185 25.880082795665547 5.7972233408591931 #
edge $-1 $477 1 $477 0 $262 $-1 forward 7 unknown #
vertex $-1 $263 $478 #
ellipse-curve $-1 -32.005712317228983 22.583598971172069 3.8939975854044113 0 0.86602541151947299 0.49999998660252726 1 0 0 1 I I #
point $-1 -31.005712317228983 25.880082795665547 5.7972233408591931 #
loop $-1 $-1 $274 $266 #
plane-surface $-1 0 -28.342087357020883 0 0 1 0 0 0 1 forward_v I I I I #
coedge $-1 $392 $269 $271 $396 reversed $171 $-1 #
coedge $-1 $269 $391 $479 $480 reversed $171 $-1 #
coedge $-1 $277 $272 $269 $394 forward $267 $-1 #
edge $-1 $397 -24.222284131957768 $481 -17.752624401674748 $393 $482 forward 7 unknown #
coedge $-1 $271 $270 $400 $483 reversed $108 $-1 #
edge $-1 $484 4.4385273125170671e-015 $397 7.8979962465688098 $391 $485 forward 7 unknown #
vertex $-1 $273 $486 #
straight-curve $-1 -13.318439465147792 -21.87242762673786 10.061540481942494 -1 0 0 I I #
coedge $-1 $479 $274 $277 $404 reversed $389 $-1 #
coedge $-1 $274 $479 $395 $483 forward $389 $-1 #
vertex $-1 $275 $487 #
straight-curve $-1 -15.595527166334612 -28.342087357020883 48.357440002014897 0 0 1 I I #
straight-curve $-1 -15.595527166334612 -28.342087357020887 5.5314358821380694 0 -0.81915203911291934 -0.57357644374324357 I I #
edge $-1 $481 -37.678230694256555 $278 -15.595527166334612 $399 $488 forward 7 unknown #
point $-1 -15.595527166334612 -28.342087357020883 10.061540481942494 #
point $-1 -15.595527166334612 -21.872427626737863 10.061540481942494 #
edge $-1 $489 1 $489 0 $281 $-1 forward 7 unknown #
vertex $-1 $282 $490 #
ellipse-curve $-1 -26.636878930295584 -24.178598246496314 6.470225357276993 0 -0.57357644374324357 0.81915203911291934 1.5 0 0 1 I I #
point $-1 -25.136878930295584 -25.10725749187937 7.7964881820402798 #
plane-surface $-1 0 0 10.061540481942494 0 0 1 1 0 0 forward_v I I I I #
coedge $-1 $422 $421 $414 $491 forward $286 $-1 #
coedge $-1 $414 $288 $290 $418 reversed $186 $-1 #
coedge $-1 $288 $413 $412 $491 reversed $186 $-1 #
coedge $-1 $296 $291 $288 $416 forward $297 $-1 #
edge $-1 $419 -24.222284131957768 $492 -17.752624401674748 $415 $493 forward 7 unknown #
coedge $-1 $290 $289 $422 $494 reversed $117 $-1 #
edge $-1 $495 4.4385273125170671e-015 $419 7.8979962465688098 $413 $496 forward 7 unknown #
vertex $-1 $292 $497 #
straight-curve $-1 17.341984007292083 -21.87242762673786 10.061540481942494 -1 0 0 I I #
coedge $-1 $412 $293 $296 $426 reversed $286 $-1 #
coedge $-1 $293 $412 $417 $494 forward $286 $-1 #
vertex $-1 $294 $498 #
straight-curve $-1 45.725319778545142 -28.342087357020883 48.357440002014897 0 0 1 I I #
straight-curve $-1 45.725319778545142 -28.342087357020887 5.5314358821380694 0 -0.81915203911291934 -0.57357644374324357 I I #
edge $-1 $492 23.642616250623195 $298 45.725319778545142 $421 $499 forward 7 unknown #
point $-1 45.725319778545142 -28.342087357020883 10.061540481942494 #
point $-1 45.725319778545142 -21.872427626737863 10.061540481942494 #
edge $-1 $500 1 $500 0 $301 $-1 forward 7 unknown #
vertex $-1 $302 $501 #
ellipse-curve $-1 34.683968014584167 -24.178598246496314 6.470225357276993 0 -0.57357644374324357 0.81915203911291934 1.5 0 0 1 I I #
point $-1 36.183968014584167 -25.10725749187937 7.7964881820402798 #
plane-surface $-1 55.657216101565595 0 0 -1 0 0 0 0 1 forward_v I I I I #
coedge $-1 $310 $308 $312 $438 reversed $201 $-1 #
edge $-1 $323 -10.061540481942494 $440 10.061540481942494 $322 $502 forward 7 unknown #
vertex $-1 $438 $503 #
straight-curve $-1 -55.657216101565595 -28.342087357020883 0 0 0 -1 I I #
edge $-1 $436 -28.342087357020883 $440 28.342087357020883 $434 $504 forward 7 unknown #
straight-curve $-1 0 -28.342087357020883 -10.061540481942494 -1 0 0 I I #
vertex $-1 $315 $505 #
straight-curve $-1 0 28.342087357020883 -10.061540481942494 1 0 0 I I #
point $-1 55.657216101565595 28.342087357020883 -10.061540481942494 #
point $-1 55.657216101565595 -28.342087357020883 -10.061540481942494 #
straight-curve $-1 -55.657216101565595 0 10.061540481942494 0 -1 0 I I #
point $-1 -55.657216101565595 28.342087357020883 10.061540481942494 #
point $-1 -55.657216101565595 -28.342087357020883 10.061540481942494 #
straight-curve $-1 55.657216101565595 -28.342087357020883 0 0 0 -1 I I #
straight-curve $-1 55.657216101565595 28.342087357020883 0 0 0 -1 I I #
plane-surface $-1 -55.657216101565595 0 0 1 0 0 0 0 -1 forward_v I I I I #
edge $-1 $344 7.7235428503228967 $348 12.066092299577544 $347 $506 forward 7 unknown #
edge $-1 $352 -12.066092299577544 $343 -7.7235428503228967 $350 $507 forward 7 unknown #
straight-curve $-1 -47.610127017277023 -21.960909874527765 0 0 0 -1 I I #
edge $-1 $456 -10.061540481942494 $454 10.061540481942494 $354 $508 forward 7 unknown #
vertex $-1 $453 $509 #
straight-curve $-1 -25.816835779710654 -17.618360425273117 -10.061540481942494 1 0 0 I I #
vertex $-1 $355 $510 #
straight-curve $-1 -25.816835779710654 -17.618360425273117 10.061540481942494 -1 0 0 I I #
point $-1 -47.610127017277023 -17.618360425273117 10.061540481942494 #
point $-1 -47.610127017277023 -17.618360425273117 -10.061540481942494 #
point $-1 -47.610127017277023 -21.960909874527765 -10.061540481942494 #
point $-1 -47.610127017277023 -21.960909874527765 10.061540481942494 #
straight-curve $-1 -55.657216101565595 0 10.061540481942494 0 -1 0 I I #
straight-curve $-1 -55.657216101565595 0 -10.061540481942494 0 1 0 I I #
edge $-1 $465 43.078487789747079 $468 51.607122071913665 $360 $511 forward 7 unknown #
vertex $-1 $374 $512 #
straight-curve $-1 -28.605236293230178 48.200563858098931 10.061540481942494 0 1 0 I I #
edge $-1 $468 10.052023116616585 $371 27.0544032366106 $370 $513 forward 7 unknown #
vertex $-1 $467 $514 #
straight-curve $-1 -28.605236293230178 7.5942469379697286e-007 50.622841933145622 0 -0.49999998660252726 0.86602541151947299 I I #
point $-1 -28.605236293230178 23.418078234310212 10.061540481942494 #
point $-1 -45.607616413224193 28.342087357020883 1.5329061997759084 #
straight-curve $-1 0 28.342087357020883 10.061540481942494 -1 0 0 I I #
vertex $-1 $377 $515 #
point $-1 -41.207140389225387 22.583598971172069 3.8939975854044113 #
vertex $-1 $381 $516 #
point $-1 -36.106426353227185 22.583598971172069 3.8939975854044113 #
vertex $-1 $385 $517 #
point $-1 -31.005712317228983 22.583598971172069 3.8939975854044113 #
coedge $-1 $400 $399 $392 $480 forward $389 $-1 #
edge $-1 $481 38.295899520072403 $484 42.826004119876828 $479 $518 forward 7 unknown #
vertex $-1 $404 $519 #
straight-curve $-1 -37.678230694256555 -46.094711758695631 10.061540481942494 0 -1 0 I I #
edge $-1 $484 -24.359791229108765 $401 -2.2770877011868205 $400 $520 forward 7 unknown #
vertex $-1 $483 $521 #
straight-curve $-1 -37.678230694256555 -28.342087357020887 5.5314358821380694 0 0.81915203911291934 0.57357644374324357 I I #
point $-1 -37.678230694256555 -21.872427626737863 10.061540481942494 #
point $-1 -15.595527166334612 -28.342087357020883 5.531435882138072 #
straight-curve $-1 0 -28.342087357020883 10.061540481942494 1 0 0 I I #
vertex $-1 $407 $522 #
point $-1 -25.136878930295584 -24.178598246496314 6.470225357276993 #
edge $-1 $492 38.295899520072403 $495 42.826004119876828 $412 $523 forward 7 unknown #
vertex $-1 $426 $524 #
straight-curve $-1 23.642616250623195 -46.094711758695631 10.061540481942494 0 -1 0 I I #
edge $-1 $495 6.3006322433311119 $423 28.383335771253059 $422 $525 forward 7 unknown #
vertex $-1 $494 $526 #
straight-curve $-1 23.642616250623195 -28.342087357020887 5.5314358821380694 0 0.81915203911291934 0.57357644374324357 I I #
point $-1 23.642616250623195 -21.872427626737863 10.061540481942494 #
point $-1 45.725319778545142 -28.342087357020883 5.531435882138072 #
straight-curve $-1 0 -28.342087357020883 10.061540481942494 1 0 0 I I #
vertex $-1 $429 $527 #
point $-1 36.183968014584167 -24.178598246496314 6.470225357276993 #
straight-curve $-1 -55.657216101565595 28.342087357020883 0 0 0 -1 I I #
point $-1 -55.657216101565595 -28.342087357020883 -10.061540481942494 #
straight-curve $-1 -55.657216101565595 0 -10.061540481942494 0 1 0 I I #
point $-1 -55.657216101565595 28.342087357020883 -10.061540481942494 #
straight-curve $-1 -47.610127017277023 -9.8948175749502205 -10.061540481942494 0 -1 0 I I #
straight-curve $-1 -47.610127017277023 -9.8948175749502205 10.061540481942494 0 1 0 I I #
straight-curve $-1 -55.657216101565595 -17.618360425273117 0 0 0 -1 I I #
point $-1 -55.657216101565595 -17.618360425273117 -10.061540481942494 #
point $-1 -55.657216101565595 -17.618360425273117 10.061540481942494 #
straight-curve $-1 -28.605236293230178 28.342087357020887 53.140028271689573 0 0 -1 I I #
point $-1 -28.605236293230178 28.342087357020883 10.061540481942494 #
straight-curve $-1 -18.553213176613593 28.342087357020883 1.5329061997759084 -1 0 0 I I #
point $-1 -28.605236293230178 28.342087357020883 1.5329061997759084 #
point $-1 -42.207140389225387 21.717573559652596 3.3939975988018838 #
point $-1 -37.106426353227185 21.717573559652596 3.3939975988018838 #
point $-1 -32.005712317228983 21.717573559652596 3.3939975988018838 #
straight-curve $-1 -37.678230694256555 -28.342087357020883 48.357440002014897 0 0 -1 I I #
point $-1 -37.678230694256555 -28.342087357020883 10.061540481942494 #
straight-curve $-1 -13.318439465147792 -28.342087357020883 5.5314358821380738 1 0 0 I I #
point $-1 -37.678230694256555 -28.342087357020883 5.531435882138072 #
point $-1 -26.636878930295584 -23.318233580881447 5.241497298607614 #
straight-curve $-1 23.642616250623195 -28.342087357020883 48.357440002014897 0 0 -1 I I #
point $-1 23.642616250623195 -28.342087357020883 10.061540481942494 #
straight-curve $-1 17.341984007292083 -28.342087357020883 5.5314358821380738 1 0 0 I I #
point $-1 23.642616250623195 -28.342087357020883 5.531435882138072 #
point $-1 34.683968014584167 -23.318233580881447 5.241497298607614 #
End-of-ACIS-data 