500 0 19 0           
7 Unknown 11 ACIS 5.0 NT 24 Fri Mar 26 01:20:58 1999 
-1 9.9999999999999995e-007 1e-010 
body $-1 $19 $-1 $20 #
body $-1 $21 $-1 $22 #
body $-1 $23 $-1 $24 #
body $-1 $25 $-1 $26 #
body $-1 $27 $-1 $28 #
body $-1 $29 $-1 $30 #
body $-1 $31 $-1 $32 #
body $-1 $33 $-1 $34 #
body $-1 $35 $-1 $36 #
body $-1 $37 $-1 $38 #
body $-1 $39 $-1 $40 #
body $-1 $41 $-1 $42 #
body $-1 $43 $-1 $44 #
body $-1 $45 $-1 $46 #
body $-1 $47 $-1 $48 #
body $-1 $49 $-1 $50 #
body $-1 $51 $-1 $52 #
body $-1 $53 $-1 $54 #
body $-1 $55 $-1 $56 #
lump $-1 $-1 $57 $0 #
transform $-1 1 0 0 0 1 0 0 0 1 48.021485030671101 32.696583005196644 15.504708285563096 1 rotate no_reflect no_shear #
lump $-1 $-1 $58 $1 #
transform $-1 1 0 0 0 1 0 0 0 1 48.021485030671101 32.696583005196644 15.504708285563096 1 rotate no_reflect no_shear #
lump $-1 $-1 $59 $2 #
transform $-1 1 0 0 0 1 0 0 0 1 48.021485030671101 32.696583005196644 15.504708285563096 1 rotate no_reflect no_shear #
lump $-1 $-1 $60 $3 #
transform $-1 1 0 0 0 1 0 0 0 1 48.021485030671101 32.696583005196644 15.504708285563096 1 rotate no_reflect no_shear #
lump $-1 $-1 $61 $4 #
transform $-1 1 0 0 0 1 0 0 0 1 48.021485030671101 32.696583005196644 15.504708285563096 1 rotate no_reflect no_shear #
lump $-1 $-1 $62 $5 #
transform $-1 1 0 0 0 1 0 0 0 1 48.021485030671101 32.696583005196644 15.504708285563096 1 rotate no_reflect no_shear #
lump $-1 $-1 $63 $6 #
transform $-1 1 0 0 0 1 0 0 0 1 48.021485030671101 32.696583005196644 15.504708285563096 1 rotate no_reflect no_shear #
lump $-1 $-1 $64 $7 #
transform $-1 1 0 0 0 1 0 0 0 1 48.021485030671101 32.696583005196644 15.504708285563096 1 rotate no_reflect no_shear #
lump $-1 $-1 $65 $8 #
transform $-1 1 0 0 0 1 0 0 0 1 48.021485030671101 32.696583005196644 15.504708285563096 1 rotate no_reflect no_shear #
lump $-1 $-1 $66 $9 #
transform $-1 1 0 0 0 1 0 0 0 1 48.021485030671101 32.696583005196644 15.504708285563096 1 rotate no_reflect no_shear #
lump $-1 $-1 $67 $10 #
transform $-1 1 0 0 0 1 0 0 0 1 48.021485030671101 32.696583005196644 15.504708285563096 1 rotate no_reflect no_shear #
lump $-1 $-1 $68 $11 #
transform $-1 1 0 0 0 1 0 0 0 1 48.021485030671101 32.696583005196644 15.504708285563096 1 rotate no_reflect no_shear #
lump $-1 $-1 $69 $12 #
transform $-1 1 0 0 0 1 0 0 0 1 48.021485030671101 32.696583005196644 15.504708285563096 1 rotate no_reflect no_shear #
lump $-1 $-1 $70 $13 #
transform $-1 1 0 0 0 1 0 0 0 1 48.021485030671101 32.696583005196644 15.504708285563096 1 rotate no_reflect no_shear #
lump $-1 $-1 $71 $14 #
transform $-1 1 0 0 0 1 0 0 0 1 48.021485030671101 32.696583005196644 15.504708285563096 1 rotate no_reflect no_shear #
lump $-1 $-1 $72 $15 #
transform $-1 1 0 0 0 1 0 0 0 1 48.021485030671101 32.696583005196644 15.504708285563096 1 rotate no_reflect no_shear #
lump $-1 $-1 $73 $16 #
transform $-1 1 0 0 0 1 0 0 0 1 48.021485030671101 32.696583005196644 15.504708285563096 1 rotate no_reflect no_shear #
lump $-1 $-1 $74 $17 #
transform $-1 1 0 0 0 1 0 0 0 1 48.021485030671101 32.696583005196644 15.504708285563096 1 rotate no_reflect no_shear #
lump $-1 $-1 $75 $18 #
transform $-1 1 0 0 0 1 0 0 0 1 48.021485030671101 32.696583005196644 15.504708285563096 1 rotate no_reflect no_shear #
shell $-1 $-1 $-1 $76 $-1 $19 #
shell $-1 $-1 $-1 $77 $-1 $21 #
shell $-1 $-1 $-1 $78 $-1 $23 #
shell $-1 $-1 $-1 $79 $-1 $25 #
shell $-1 $-1 $-1 $80 $-1 $27 #
shell $-1 $-1 $-1 $81 $-1 $29 #
shell $-1 $-1 $-1 $82 $-1 $31 #
shell $-1 $-1 $-1 $83 $-1 $33 #
shell $-1 $-1 $-1 $84 $-1 $35 #
shell $-1 $-1 $-1 $85 $-1 $37 #
shell $-1 $-1 $-1 $86 $-1 $39 #
shell $-1 $-1 $-1 $87 $-1 $41 #
shell $-1 $-1 $-1 $88 $-1 $43 #
shell $-1 $-1 $-1 $89 $-1 $45 #
shell $-1 $-1 $-1 $90 $-1 $47 #
shell $-1 $-1 $-1 $91 $-1 $49 #
shell $-1 $-1 $-1 $92 $-1 $51 #
shell $-1 $-1 $-1 $93 $-1 $53 #
shell $-1 $-1 $-1 $94 $-1 $55 #
face $-1 $95 $96 $57 $-1 $97 forward single #
face $-1 $98 $99 $58 $-1 $100 reversed single #
face $-1 $101 $102 $59 $-1 $103 forward single #
face $-1 $104 $105 $60 $-1 $106 reversed single #
face $-1 $107 $108 $61 $-1 $109 forward single #
face $-1 $110 $111 $62 $-1 $112 forward single #
face $-1 $113 $114 $63 $-1 $115 forward single #
face $-1 $116 $117 $64 $-1 $118 reversed single #
face $-1 $119 $120 $65 $-1 $121 forward single #
face $-1 $122 $123 $66 $-1 $124 forward single #
face $-1 $125 $126 $67 $-1 $127 forward single #
face $-1 $128 $129 $68 $-1 $130 reversed single #
face $-1 $131 $132 $69 $-1 $133 forward single #
face $-1 $134 $135 $70 $-1 $136 forward single #
face $-1 $137 $138 $71 $-1 $139 forward single #
face $-1 $140 $141 $72 $-1 $142 reversed single #
face $-1 $143 $144 $73 $-1 $145 forward single #
face $-1 $146 $147 $74 $-1 $148 forward single #
face $-1 $149 $150 $75 $-1 $151 forward single #
face $-1 $152 $153 $57 $-1 $154 reversed single #
loop $-1 $-1 $155 $76 #
plane-surface $-1 0 0 15.504708285563096 0 0 1 1 0 0 forward_v I I I I #
face $-1 $156 $157 $58 $-1 $158 reversed single #
loop $-1 $-1 $159 $77 #
plane-surface $-1 -46.213793235165355 -21.495348056264106 0 0 -1 0 0 0 -1 forward_v I I I I #
face $-1 $160 $161 $59 $-1 $162 reversed single #
loop $-1 $-1 $163 $78 #
plane-surface $-1 0 23.877566256572393 -9.3385027875777151 0 0 1 1 0 0 forward_v I I I I #
face $-1 $164 $165 $60 $-1 $166 reversed single #
loop $-1 $-1 $167 $79 #
plane-surface $-1 17.467448242551171 -13.933438150111506 135.49630117312063 0 -1 0 -0.52991927123019833 0 -0.84804809178421925 forward_v I I I I #
face $-1 $168 $169 $61 $-1 $170 forward single #
loop $-1 $171 $172 $80 #
cone-surface $-1 37.718603455046313 -19.982966075033588 8.658201725726915 -0.52991927123019833 0 -0.84804809178421925 0.42402404589210962 0 -0.26495963561509916 1 I I 0 1 0.5 forward I I I I #
face $-1 $173 $174 $62 $-1 $175 forward single #
loop $-1 $176 $177 $81 #
cone-surface $-1 37.718603455046313 -17.714393103187806 8.658201725726915 -0.52991927123019833 0 -0.84804809178421925 0.42402404589210962 0 -0.26495963561509916 1 I I 0 1 0.5 forward I I I I #
face $-1 $178 $179 $63 $-1 $180 forward single #
loop $-1 $181 $182 $82 #
cone-surface $-1 37.718603455046313 -15.445820131342025 8.658201725726915 -0.52991927123019833 0 -0.84804809178421925 0.42402404589210962 0 -0.26495963561509916 1 I I 0 1 0.5 forward I I I I #
face $-1 $183 $184 $64 $-1 $185 reversed single #
loop $-1 $-1 $186 $83 #
plane-surface $-1 17.467448242551171 15.05854950794814 135.49630117312063 0 -1 0 -0.52991927123019833 0 -0.84804809178421925 forward_v I I I I #
face $-1 $187 $188 $65 $-1 $189 forward single #
loop $-1 $190 $191 $84 #
cone-surface $-1 37.718603455046313 9.0090215830260618 8.658201725726915 -0.52991927123019833 0 -0.84804809178421925 0.42402404589210962 0 -0.26495963561509916 1 I I 0 1 0.5 forward I I I I #
face $-1 $192 $193 $66 $-1 $194 forward single #
loop $-1 $195 $196 $85 #
cone-surface $-1 37.718603455046313 11.27759455487184 8.658201725726915 -0.52991927123019833 0 -0.84804809178421925 0.42402404589210962 0 -0.26495963561509916 1 I I 0 1 0.5 forward I I I I #
face $-1 $197 $198 $67 $-1 $199 forward single #
loop $-1 $200 $201 $86 #
cone-surface $-1 37.718603455046313 13.546167526717625 8.658201725726915 -0.52991927123019833 0 -0.84804809178421925 0.42402404589210962 0 -0.26495963561509916 1 I I 0 1 0.5 forward I I I I #
face $-1 $202 $203 $68 $-1 $204 reversed single #
loop $-1 $-1 $205 $87 #
plane-surface $-1 -48.021485030671101 -17.714393103187806 3.1522229816202412 -0.52991927123019833 0 0.84804809178421925 0.84804809178421925 0 0.52991927123019833 forward_v I I I I #
face $-1 $206 $207 $69 $-1 $208 forward single #
loop $-1 $209 $210 $88 #
cone-surface $-1 -37.718603455046313 -19.982966075033588 8.658201725726915 0.52991927123019833 0 -0.84804809178421925 0.42402404589210962 0 0.26495963561509916 1 I I 0 1 0.5 forward I I I I #
face $-1 $211 $212 $70 $-1 $213 forward single #
loop $-1 $214 $215 $89 #
cone-surface $-1 -37.718603455046313 -17.714393103187806 8.658201725726915 0.52991927123019833 0 -0.84804809178421925 0.42402404589210962 0 0.26495963561509916 1 I I 0 1 0.5 forward I I I I #
face $-1 $216 $217 $71 $-1 $218 forward single #
loop $-1 $219 $220 $90 #
cone-surface $-1 -37.718603455046313 -15.445820131342025 8.658201725726915 0.52991927123019833 0 -0.84804809178421925 0.42402404589210962 0 0.26495963561509916 1 I I 0 1 0.5 forward I I I I #
face $-1 $221 $222 $72 $-1 $223 reversed single #
loop $-1 $-1 $224 $91 #
plane-surface $-1 -98.916505732361315 7.4966396017955397 84.6012804714304 0 1 0 -0.52991927123019833 0 0.84804809178421925 forward_v I I I I #
face $-1 $225 $226 $73 $-1 $227 forward single #
loop $-1 $228 $229 $92 #
cone-surface $-1 -37.718603455046313 9.0090215830260618 8.658201725726915 0.52991927123019833 0 -0.84804809178421925 0.42402404589210962 0 0.26495963561509916 1 I I 0 1 0.5 forward I I I I #
face $-1 $230 $231 $74 $-1 $232 forward single #
loop $-1 $233 $234 $93 #
cone-surface $-1 -37.718603455046313 11.27759455487184 8.658201725726915 0.52991927123019833 0 -0.84804809178421925 0.42402404589210962 0 0.26495963561509916 1 I I 0 1 0.5 forward I I I I #
face $-1 $235 $236 $75 $-1 $237 forward single #
loop $-1 $238 $239 $94 #
cone-surface $-1 -37.718603455046313 13.546167526717625 8.658201725726915 0.52991927123019833 0 -0.84804809178421925 0.42402404589210962 0 0.26495963561509916 1 I I 0 1 0.5 forward I I I I #
face $-1 $240 $241 $57 $-1 $242 reversed single #
loop $-1 $-1 $243 $95 #
plane-surface $-1 0 0 -15.504708285563096 0 0 1 1 0 0 forward_v I I I I #
coedge $-1 $244 $245 $246 $247 forward $96 $-1 #
face $-1 $248 $249 $58 $-1 $250 forward single #
loop $-1 $-1 $251 $98 #
plane-surface $-1 -44.406101439659608 -27.095965530730375 0 -1 0 0 0 0 1 forward_v I I I I #
coedge $-1 $252 $253 $254 $255 forward $99 $-1 #
face $-1 $256 $257 $59 $-1 $258 reversed single #
loop $-1 $-1 $259 $101 #
plane-surface $-1 0 15.058549507948143 -12.421605536570405 0 1 0 0 0 1 forward_v I I I I #
coedge $-1 $260 $261 $262 $263 reversed $102 $-1 #
face $-1 $264 $265 $60 $-1 $266 reversed single #
loop $-1 $-1 $267 $104 #
plane-surface $-1 -33.427572459139043 -17.714393103187806 54.047243683310469 0.52991927123019833 0 0.84804809178421925 0.84804809178421925 0 -0.52991927123019833 forward_v I I I I #
coedge $-1 $268 $269 $270 $271 reversed $105 $-1 #
face $-1 $-1 $272 $61 $-1 $273 forward single #
loop $-1 $274 $275 $107 #
cone-surface $-1 37.167296255833634 -19.982966075033588 7.7759257949160929 -0.52991927123019833 0 -0.84804809178421925 0.21201202294605481 0 -0.13247981780754958 1 I I -0.70710678118654746 0.70710678118654746 0.25 forward I I I I #
loop $-1 $-1 $276 $80 #
coedge $-1 $172 $172 $277 $278 reversed $108 $-1 #
face $-1 $-1 $279 $62 $-1 $280 forward single #
loop $-1 $281 $282 $110 #
cone-surface $-1 37.167296255833634 -17.714393103187806 7.7759257949160929 -0.52991927123019833 0 -0.84804809178421925 0.21201202294605481 0 -0.13247981780754958 1 I I -0.70710678118654746 0.70710678118654746 0.25 forward I I I I #
loop $-1 $-1 $283 $81 #
coedge $-1 $177 $177 $284 $285 reversed $111 $-1 #
face $-1 $-1 $286 $63 $-1 $287 forward single #
loop $-1 $288 $289 $113 #
cone-surface $-1 37.167296255833634 -15.445820131342025 7.7759257949160929 -0.52991927123019833 0 -0.84804809178421925 0.21201202294605481 0 -0.13247981780754958 1 I I -0.70710678118654746 0.70710678118654746 0.25 forward I I I I #
loop $-1 $-1 $290 $82 #
coedge $-1 $182 $182 $291 $292 reversed $114 $-1 #
face $-1 $293 $294 $64 $-1 $295 reversed single #
loop $-1 $-1 $296 $116 #
plane-surface $-1 -33.427572459139043 11.27759455487184 54.047243683310469 0.52991927123019833 0 0.84804809178421925 0.84804809178421925 0 -0.52991927123019833 forward_v I I I I #
coedge $-1 $297 $298 $299 $300 reversed $117 $-1 #
face $-1 $-1 $301 $65 $-1 $302 forward single #
loop $-1 $303 $304 $119 #
cone-surface $-1 37.167296255833634 9.0090215830260618 7.7759257949160929 -0.52991927123019833 0 -0.84804809178421925 0.21201202294605481 0 -0.13247981780754958 1 I I -0.70710678118654746 0.70710678118654746 0.25 forward I I I I #
loop $-1 $-1 $305 $84 #
coedge $-1 $191 $191 $306 $307 reversed $120 $-1 #
face $-1 $-1 $308 $66 $-1 $309 forward single #
loop $-1 $310 $311 $122 #
cone-surface $-1 37.167296255833634 11.27759455487184 7.7759257949160929 -0.52991927123019833 0 -0.84804809178421925 0.21201202294605481 0 -0.13247981780754958 1 I I -0.70710678118654746 0.70710678118654746 0.25 forward I I I I #
loop $-1 $-1 $312 $85 #
coedge $-1 $196 $196 $313 $314 reversed $123 $-1 #
face $-1 $-1 $315 $67 $-1 $316 forward single #
loop $-1 $317 $318 $125 #
cone-surface $-1 37.167296255833634 13.546167526717625 7.7759257949160929 -0.52991927123019833 0 -0.84804809178421925 0.21201202294605481 0 -0.13247981780754958 1 I I -0.70710678118654746 0.70710678118654746 0.25 forward I I I I #
loop $-1 $-1 $319 $86 #
coedge $-1 $201 $201 $320 $321 reversed $126 $-1 #
face $-1 $322 $323 $68 $-1 $324 forward single #
loop $-1 $-1 $325 $128 #
plane-surface $-1 -98.916505732361315 -13.933438150111506 84.6012804714304 0 -1 0 0.52991927123019833 0 -0.84804809178421925 forward_v I I I I #
coedge $-1 $326 $327 $328 $329 reversed $129 $-1 #
face $-1 $-1 $330 $69 $-1 $331 forward single #
loop $-1 $332 $333 $131 #
cone-surface $-1 -37.167296255833634 -19.982966075033588 7.7759257949160929 0.52991927123019833 0 -0.84804809178421925 0.21201202294605481 0 0.13247981780754958 1 I I -0.70710678118654746 0.70710678118654746 0.25 forward I I I I #
loop $-1 $-1 $334 $88 #
coedge $-1 $210 $210 $335 $336 reversed $132 $-1 #
face $-1 $-1 $337 $70 $-1 $338 forward single #
loop $-1 $339 $340 $134 #
cone-surface $-1 -37.167296255833634 -17.714393103187806 7.7759257949160929 0.52991927123019833 0 -0.84804809178421925 0.21201202294605481 0 0.13247981780754958 1 I I -0.70710678118654746 0.70710678118654746 0.25 forward I I I I #
loop $-1 $-1 $341 $89 #
coedge $-1 $215 $215 $342 $343 reversed $135 $-1 #
face $-1 $-1 $344 $71 $-1 $345 forward single #
loop $-1 $346 $347 $137 #
cone-surface $-1 -37.167296255833634 -15.445820131342025 7.7759257949160929 0.52991927123019833 0 -0.84804809178421925 0.21201202294605481 0 0.13247981780754958 1 I I -0.70710678118654746 0.70710678118654746 0.25 forward I I I I #
loop $-1 $-1 $348 $90 #
coedge $-1 $220 $220 $349 $350 reversed $138 $-1 #
face $-1 $351 $352 $72 $-1 $353 reversed single #
loop $-1 $-1 $354 $140 #
plane-surface $-1 -48.021485030671101 11.27759455487184 3.1522229816202412 -0.52991927123019833 0 0.84804809178421925 0.84804809178421925 0 0.52991927123019833 forward_v I I I I #
coedge $-1 $355 $356 $357 $358 reversed $141 $-1 #
face $-1 $-1 $359 $73 $-1 $360 forward single #
loop $-1 $361 $362 $143 #
cone-surface $-1 -37.167296255833634 9.0090215830260618 7.7759257949160929 0.52991927123019833 0 -0.84804809178421925 0.21201202294605481 0 0.13247981780754958 1 I I -0.70710678118654746 0.70710678118654746 0.25 forward I I I I #
loop $-1 $-1 $363 $92 #
coedge $-1 $229 $229 $364 $365 reversed $144 $-1 #
face $-1 $-1 $366 $74 $-1 $367 forward single #
loop $-1 $368 $369 $146 #
cone-surface $-1 -37.167296255833634 11.27759455487184 7.7759257949160929 0.52991927123019833 0 -0.84804809178421925 0.21201202294605481 0 0.13247981780754958 1 I I -0.70710678118654746 0.70710678118654746 0.25 forward I I I I #
loop $-1 $-1 $370 $93 #
coedge $-1 $234 $234 $371 $372 reversed $147 $-1 #
face $-1 $-1 $373 $75 $-1 $374 forward single #
loop $-1 $375 $376 $149 #
cone-surface $-1 -37.167296255833634 13.546167526717625 7.7759257949160929 0.52991927123019833 0 -0.84804809178421925 0.21201202294605481 0 0.13247981780754958 1 I I -0.70710678118654746 0.70710678118654746 0.25 forward I I I I #
loop $-1 $-1 $377 $94 #
coedge $-1 $239 $239 $378 $379 reversed $150 $-1 #
face $-1 $380 $381 $57 $-1 $382 reversed single #
loop $-1 $-1 $383 $152 #
plane-surface $-1 0 -32.696583005196644 0 0 1 0 0 0 1 forward_v I I I I #
coedge $-1 $384 $385 $386 $387 forward $153 $-1 #
coedge $-1 $388 $155 $389 $390 forward $96 $-1 #
coedge $-1 $155 $388 $391 $392 forward $96 $-1 #
coedge $-1 $393 $394 $155 $247 reversed $395 $-1 #
edge $-1 $396 -32.696583005196644 $397 32.696583005196644 $246 $398 forward 7 unknown #
face $-1 $399 $400 $58 $-1 $401 reversed single #
loop $-1 $-1 $402 $156 #
plane-surface $-1 0 0 15.504708285563096 0 0 1 1 0 0 forward_v I I I I #
coedge $-1 $403 $404 $405 $406 reversed $157 $-1 #
coedge $-1 $407 $159 $408 $409 reversed $99 $-1 #
coedge $-1 $159 $407 $410 $411 reversed $99 $-1 #
coedge $-1 $404 $403 $159 $255 reversed $157 $-1 #
edge $-1 $412 -15.504708285563096 $413 15.504708285563096 $254 $414 forward 7 unknown #
face $-1 $415 $416 $59 $-1 $417 reversed single #
loop $-1 $-1 $262 $160 #
plane-surface $-1 48.021485030671101 0 0 -1 0 0 0 0 1 forward_v I I I I #
coedge $-1 $418 $419 $420 $421 reversed $161 $-1 #
coedge $-1 $422 $163 $423 $424 reversed $102 $-1 #
coedge $-1 $163 $422 $419 $425 forward $102 $-1 #
coedge $-1 $426 $427 $163 $263 forward $257 $-1 #
edge $-1 $428 -20.757799876910447 $429 -3.1197663796619466 $262 $430 forward 7 unknown #
face $-1 $431 $432 $60 $-1 $433 reversed single #
loop $-1 $-1 $434 $164 #
plane-surface $-1 17.467448242551171 -21.495348056264106 135.49630117312063 0 1 0 0.52991927123019833 0 0.84804809178421925 forward_v I I I I #
coedge $-1 $435 $436 $437 $438 reversed $165 $-1 #
coedge $-1 $269 $167 $439 $440 reversed $105 $-1 #
coedge $-1 $167 $268 $435 $441 reversed $105 $-1 #
coedge $-1 $437 $442 $167 $271 forward $443 $-1 #
edge $-1 $444 -39.287760909395516 $445 -19.5196525209562 $270 $446 forward 7 unknown #
loop $-1 $-1 $277 $168 #
plane-surface $-1 -33.427572459139043 -17.714393103187806 54.047243683310469 0.52991927123019833 0 0.84804809178421925 0.84804809178421925 0 -0.52991927123019833 forward_v I I I I #
loop $-1 $-1 $447 $107 #
coedge $-1 $275 $275 $276 $448 reversed $169 $-1 #
coedge $-1 $276 $276 $275 $448 forward $171 $-1 #
coedge $-1 $277 $277 $172 $278 forward $272 $-1 #
edge $-1 $449 0 $449 6.2831853071796004 $277 $450 forward 7 unknown #
loop $-1 $-1 $284 $173 #
plane-surface $-1 -33.427572459139043 -17.714393103187806 54.047243683310469 0.52991927123019833 0 0.84804809178421925 0.84804809178421925 0 -0.52991927123019833 forward_v I I I I #
loop $-1 $-1 $451 $110 #
coedge $-1 $282 $282 $283 $452 reversed $174 $-1 #
coedge $-1 $283 $283 $282 $452 forward $176 $-1 #
coedge $-1 $284 $284 $177 $285 forward $279 $-1 #
edge $-1 $453 0 $453 6.2831853071796004 $284 $454 forward 7 unknown #
loop $-1 $-1 $291 $178 #
plane-surface $-1 -33.427572459139043 -17.714393103187806 54.047243683310469 0.52991927123019833 0 0.84804809178421925 0.84804809178421925 0 -0.52991927123019833 forward_v I I I I #
loop $-1 $-1 $455 $113 #
coedge $-1 $289 $289 $290 $456 reversed $179 $-1 #
coedge $-1 $290 $290 $289 $456 forward $181 $-1 #
coedge $-1 $291 $291 $182 $292 forward $286 $-1 #
edge $-1 $457 0 $457 6.2831853071796004 $291 $458 forward 7 unknown #
face $-1 $459 $460 $64 $-1 $461 reversed single #
loop $-1 $-1 $462 $183 #
plane-surface $-1 17.467448242551171 7.4966396017955397 135.49630117312063 0 1 0 0.52991927123019833 0 0.84804809178421925 forward_v I I I I #
coedge $-1 $463 $464 $465 $466 reversed $184 $-1 #
coedge $-1 $298 $186 $467 $468 reversed $117 $-1 #
coedge $-1 $186 $297 $463 $469 reversed $117 $-1 #
coedge $-1 $465 $470 $186 $300 forward $471 $-1 #
edge $-1 $472 -39.287760909395516 $473 -19.5196525209562 $299 $474 forward 7 unknown #
loop $-1 $-1 $306 $187 #
plane-surface $-1 -33.427572459139043 11.27759455487184 54.047243683310469 0.52991927123019833 0 0.84804809178421925 0.84804809178421925 0 -0.52991927123019833 forward_v I I I I #
loop $-1 $-1 $475 $119 #
coedge $-1 $304 $304 $305 $476 reversed $188 $-1 #
coedge $-1 $305 $305 $304 $476 forward $190 $-1 #
coedge $-1 $306 $306 $191 $307 forward $301 $-1 #
edge $-1 $477 0 $477 6.2831853071796004 $306 $478 forward 7 unknown #
loop $-1 $-1 $313 $192 #
plane-surface $-1 -33.427572459139043 11.27759455487184 54.047243683310469 0.52991927123019833 0 0.84804809178421925 0.84804809178421925 0 -0.52991927123019833 forward_v I I I I #
loop $-1 $-1 $479 $122 #
coedge $-1 $311 $311 $312 $480 reversed $193 $-1 #
coedge $-1 $312 $312 $311 $480 forward $195 $-1 #
coedge $-1 $313 $313 $196 $314 forward $308 $-1 #
edge $-1 $481 0 $481 6.2831853071796004 $313 $482 forward 7 unknown #
loop $-1 $-1 $320 $197 #
plane-surface $-1 -33.427572459139043 11.27759455487184 54.047243683310469 0.52991927123019833 0 0.84804809178421925 0.84804809178421925 0 -0.52991927123019833 forward_v I I I I #
loop $-1 $-1 $483 $125 #
coedge $-1 $318 $318 $319 $484 reversed $198 $-1 #
coedge $-1 $319 $319 $318 $484 forward $200 $-1 #
coedge $-1 $320 $320 $201 $321 forward $315 $-1 #
edge $-1 $485 0 $485 6.2831853071796004 $320 $486 forward 7 unknown #
face $-1 $487 $488 $68 $-1 $489 reversed single #
loop $-1 $-1 $490 $202 #
plane-surface $-1 0 0 15.504708285563096 0 0 1 1 0 0 forward_v I I I I #
coedge $-1 $491 $492 $493 $494 reversed $203 $-1 #
coedge $-1 $495 $205 $496 $497 reversed $129 $-1 #
coedge $-1 $205 $495 $491 $498 forward $129 $-1 #
coedge $-1 $493 $490 $205 $329 forward $323 $-1 #
edge $-1 $499 -12.638151504670203 $500 -5.076241598517603 $328 $501 forward 7 unknown #
loop $-1 $-1 $335 $206 #
plane-surface $-1 -48.021485030671101 -17.714393103187806 3.1522229816202412 -0.52991927123019833 0 0.84804809178421925 0.84804809178421925 0 0.52991927123019833 forward_v I I I I #
loop $-1 $-1 $502 $131 #
coedge $-1 $333 $333 $334 $503 reversed $207 $-1 #
coedge $-1 $334 $334 $333 $503 forward $209 $-1 #
coedge $-1 $335 $335 $210 $336 forward $330 $-1 #
edge $-1 $504 0 $504 6.2831853071796004 $335 $505 forward 7 unknown #
loop $-1 $-1 $342 $211 #
plane-surface $-1 -48.021485030671101 -17.714393103187806 3.1522229816202412 -0.52991927123019833 0 0.84804809178421925 0.84804809178421925 0 0.52991927123019833 forward_v I I I I #
loop $-1 $-1 $506 $134 #
coedge $-1 $340 $340 $341 $507 reversed $212 $-1 #
coedge $-1 $341 $341 $340 $507 forward $214 $-1 #
coedge $-1 $342 $342 $215 $343 forward $337 $-1 #
edge $-1 $508 0 $508 6.2831853071796004 $342 $509 forward 7 unknown #
loop $-1 $-1 $349 $216 #
plane-surface $-1 -48.021485030671101 -17.714393103187806 3.1522229816202412 -0.52991927123019833 0 0.84804809178421925 0.84804809178421925 0 0.52991927123019833 forward_v I I I I #
loop $-1 $-1 $510 $137 #
coedge $-1 $347 $347 $348 $511 reversed $217 $-1 #
coedge $-1 $348 $348 $347 $511 forward $219 $-1 #
coedge $-1 $349 $349 $220 $350 forward $344 $-1 #
edge $-1 $512 0 $512 6.2831853071796004 $349 $513 forward 7 unknown #
face $-1 $514 $515 $72 $-1 $516 forward single #
loop $-1 $-1 $517 $221 #
plane-surface $-1 -98.916505732361315 15.05854950794814 84.6012804714304 0 -1 0 0.52991927123019833 0 -0.84804809178421925 forward_v I I I I #
coedge $-1 $518 $519 $520 $521 reversed $222 $-1 #
coedge $-1 $356 $224 $522 $523 reversed $141 $-1 #
coedge $-1 $224 $355 $518 $524 reversed $141 $-1 #
coedge $-1 $520 $525 $224 $358 forward $515 $-1 #
edge $-1 $526 1.4367678355095563 $527 21.204876223948904 $357 $528 forward 7 unknown #
loop $-1 $-1 $364 $225 #
plane-surface $-1 -48.021485030671101 11.27759455487184 3.1522229816202412 -0.52991927123019833 0 0.84804809178421925 0.84804809178421925 0 0.52991927123019833 forward_v I I I I #
loop $-1 $-1 $529 $143 #
coedge $-1 $362 $362 $363 $530 reversed $226 $-1 #
coedge $-1 $363 $363 $362 $530 forward $228 $-1 #
coedge $-1 $364 $364 $229 $365 forward $359 $-1 #
edge $-1 $531 0 $531 6.2831853071796004 $364 $532 forward 7 unknown #
loop $-1 $-1 $371 $230 #
plane-surface $-1 -48.021485030671101 11.27759455487184 3.1522229816202412 -0.52991927123019833 0 0.84804809178421925 0.84804809178421925 0 0.52991927123019833 forward_v I I I I #
loop $-1 $-1 $533 $146 #
coedge $-1 $369 $369 $370 $534 reversed $231 $-1 #
coedge $-1 $370 $370 $369 $534 forward $233 $-1 #
coedge $-1 $371 $371 $234 $372 forward $366 $-1 #
edge $-1 $535 0 $535 6.2831853071796004 $371 $536 forward 7 unknown #
loop $-1 $-1 $378 $235 #
plane-surface $-1 -48.021485030671101 11.27759455487184 3.1522229816202412 -0.52991927123019833 0 0.84804809178421925 0.84804809178421925 0 0.52991927123019833 forward_v I I I I #
loop $-1 $-1 $537 $149 #
coedge $-1 $376 $376 $377 $538 reversed $236 $-1 #
coedge $-1 $377 $377 $376 $538 forward $238 $-1 #
coedge $-1 $378 $378 $239 $379 forward $373 $-1 #
edge $-1 $539 0 $539 6.2831853071796004 $378 $540 forward 7 unknown #
face $-1 $541 $542 $57 $-1 $543 reversed single #
loop $-1 $-1 $544 $240 #
plane-surface $-1 -48.021485030671101 0 0 1 0 0 0 0 -1 forward_v I I I I #
coedge $-1 $545 $391 $546 $547 forward $241 $-1 #
coedge $-1 $548 $243 $545 $549 forward $153 $-1 #
coedge $-1 $243 $548 $550 $551 forward $153 $-1 #
coedge $-1 $394 $393 $243 $387 reversed $395 $-1 #
edge $-1 $552 -32.696583005196644 $553 32.696583005196644 $386 $554 forward 7 unknown #
coedge $-1 $245 $244 $555 $556 forward $96 $-1 #
coedge $-1 $557 $558 $244 $390 reversed $542 $-1 #
edge $-1 $397 -48.021485030671101 $559 48.021485030671101 $389 $560 forward 7 unknown #
coedge $-1 $383 $561 $245 $392 reversed $241 $-1 #
edge $-1 $562 -48.021485030671101 $396 48.021485030671101 $391 $563 forward 7 unknown #
coedge $-1 $386 $246 $561 $564 forward $395 $-1 #
coedge $-1 $246 $386 $557 $565 reversed $395 $-1 #
loop $-1 $-1 $393 $541 #
vertex $-1 $247 $566 #
vertex $-1 $247 $567 #
straight-curve $-1 48.021485030671101 0 15.504708285563096 0 1 0 I I #
face $-1 $568 $569 $58 $-1 $570 reversed single #
loop $-1 $-1 $571 $248 #
plane-surface $-1 -48.021485030671101 0 0 1 0 0 0 0 -1 forward_v I I I I #
coedge $-1 $410 $572 $404 $573 forward $249 $-1 #
coedge $-1 $254 $251 $574 $575 reversed $157 $-1 #
coedge $-1 $251 $254 $402 $573 reversed $157 $-1 #
coedge $-1 $576 $577 $251 $406 forward $578 $-1 #
edge $-1 $579 -15.504708285563096 $580 15.504708285563096 $405 $581 forward 7 unknown #
coedge $-1 $253 $252 $571 $582 reversed $99 $-1 #
coedge $-1 $574 $583 $252 $409 forward $569 $-1 #
edge $-1 $584 -24.914588413088424 $413 -21.299204822076931 $408 $585 forward 7 unknown #
coedge $-1 $586 $402 $253 $411 forward $249 $-1 #
edge $-1 $412 21.299204822076931 $587 24.914588413088424 $410 $588 forward 7 unknown #
vertex $-1 $411 $589 #
vertex $-1 $409 $590 #
straight-curve $-1 -44.406101439659608 -21.495348056264106 0 0 0 -1 I I #
face $-1 $591 $592 $59 $-1 $593 reversed single #
loop $-1 $-1 $594 $256 #
plane-surface $-1 0 0 -15.504708285563096 0 0 1 1 0 0 forward_v I I I I #
coedge $-1 $595 $259 $594 $596 reversed $161 $-1 #
coedge $-1 $259 $595 $261 $425 reversed $161 $-1 #
coedge $-1 $597 $598 $259 $421 forward $592 $-1 #
edge $-1 $599 -9.2939055172778922 $600 -3.1277000192925124 $420 $601 forward 7 unknown #
coedge $-1 $261 $260 $597 $602 reversed $102 $-1 #
coedge $-1 $603 $604 $260 $424 forward $605 $-1 #
edge $-1 $606 -48.021485030671101 $428 48.021485030671101 $423 $607 forward 7 unknown #
edge $-1 $600 -48.021485030671101 $429 48.021485030671101 $419 $608 forward 7 unknown #
coedge $-1 $609 $262 $595 $610 forward $257 $-1 #
coedge $-1 $262 $609 $603 $611 reversed $257 $-1 #
vertex $-1 $611 $612 #
vertex $-1 $263 $613 #
straight-curve $-1 48.021485030671101 11.938783128286197 -9.3385027875777151 0 -1 0 I I #
face $-1 $-1 $443 $60 $-1 $614 forward single #
loop $-1 $-1 $615 $264 #
plane-surface $-1 48.021485030671101 0 0 -1 0 0 0 0 1 forward_v I I I I #
coedge $-1 $616 $617 $618 $619 reversed $265 $-1 #
coedge $-1 $620 $267 $269 $441 forward $165 $-1 #
coedge $-1 $267 $620 $616 $621 forward $165 $-1 #
coedge $-1 $618 $270 $267 $438 forward $443 $-1 #
edge $-1 $445 5.076241598517603 $622 12.638151504670203 $437 $623 forward 7 unknown #
coedge $-1 $624 $625 $268 $440 forward $432 $-1 #
edge $-1 $626 -64.595927604940044 $444 -52.243442300997216 $439 $627 forward 7 unknown #
edge $-1 $445 72.732843454195489 $626 96.042970061342203 $269 $628 forward 7 unknown #
coedge $-1 $270 $618 $624 $629 forward $443 $-1 #
loop $-1 $-1 $618 $431 #
vertex $-1 $440 $630 #
vertex $-1 $271 $631 #
straight-curve $-1 8.7337241212755856 -13.933438150111506 15.504708285563098 -1 0 0 I I #
coedge $-1 $447 $447 $-1 $632 reversed $274 $-1 #
edge $-1 $633 0 $633 6.2831853071796004 $275 $634 forward 7 unknown #
vertex $-1 $278 $635 #
ellipse-curve $-1 38.137430836451443 -19.982966075033588 9.32846563359168 0.52991927123019833 0 0.84804809178421925 0.42402404589210962 0 -0.26495963561509916 1 I I #
coedge $-1 $451 $451 $-1 $636 reversed $281 $-1 #
edge $-1 $637 0 $637 6.2831853071796004 $282 $638 forward 7 unknown #
vertex $-1 $285 $639 #
ellipse-curve $-1 38.137430836451443 -17.714393103187806 9.32846563359168 0.52991927123019833 0 0.84804809178421925 0.42402404589210962 0 -0.26495963561509916 1 I I #
coedge $-1 $455 $455 $-1 $640 reversed $288 $-1 #
edge $-1 $641 0 $641 6.2831853071796004 $289 $642 forward 7 unknown #
vertex $-1 $292 $643 #
ellipse-curve $-1 38.137430836451443 -15.445820131342025 9.32846563359168 0.52991927123019833 0 0.84804809178421925 0.42402404589210962 0 -0.26495963561509916 1 I I #
face $-1 $-1 $471 $64 $-1 $644 forward single #
loop $-1 $-1 $645 $293 #
plane-surface $-1 48.021485030671101 0 0 -1 0 0 0 0 1 forward_v I I I I #
coedge $-1 $646 $647 $648 $649 reversed $294 $-1 #
coedge $-1 $650 $296 $298 $469 forward $184 $-1 #
coedge $-1 $296 $650 $646 $651 forward $184 $-1 #
coedge $-1 $648 $299 $296 $466 forward $471 $-1 #
edge $-1 $473 -9.4197522305122199 $652 -1.8578423243596198 $465 $653 forward 7 unknown #
coedge $-1 $654 $655 $297 $468 forward $460 $-1 #
edge $-1 $656 -64.595927604940044 $472 -52.243442300997216 $467 $657 forward 7 unknown #
edge $-1 $473 72.732843454195489 $656 96.042970061342203 $298 $658 forward 7 unknown #
coedge $-1 $299 $648 $654 $659 forward $471 $-1 #
loop $-1 $-1 $648 $459 #
vertex $-1 $468 $660 #
vertex $-1 $300 $661 #
straight-curve $-1 8.7337241212755856 15.05854950794814 15.504708285563098 -1 0 0 I I #
coedge $-1 $475 $475 $-1 $662 reversed $303 $-1 #
edge $-1 $663 0 $663 6.2831853071796004 $304 $664 forward 7 unknown #
vertex $-1 $307 $665 #
ellipse-curve $-1 38.137430836451443 9.0090215830260618 9.32846563359168 0.52991927123019833 0 0.84804809178421925 0.42402404589210962 0 -0.26495963561509916 1 I I #
coedge $-1 $479 $479 $-1 $666 reversed $310 $-1 #
edge $-1 $667 0 $667 6.2831853071796004 $311 $668 forward 7 unknown #
vertex $-1 $314 $669 #
ellipse-curve $-1 38.137430836451443 11.27759455487184 9.32846563359168 0.52991927123019833 0 0.84804809178421925 0.42402404589210962 0 -0.26495963561509916 1 I I #
coedge $-1 $483 $483 $-1 $670 reversed $317 $-1 #
edge $-1 $671 0 $671 6.2831853071796004 $318 $672 forward 7 unknown #
vertex $-1 $321 $673 #
ellipse-curve $-1 38.137430836451443 13.546167526717625 9.32846563359168 0.52991927123019833 0 0.84804809178421925 0.42402404589210962 0 -0.26495963561509916 1 I I #
face $-1 $-1 $674 $68 $-1 $675 forward single #
loop $-1 $-1 $676 $322 #
plane-surface $-1 -48.021485030671101 0 0 1 0 0 0 0 -1 forward_v I I I I #
coedge $-1 $328 $677 $678 $679 forward $323 $-1 #
coedge $-1 $492 $325 $327 $498 reversed $203 $-1 #
coedge $-1 $325 $491 $680 $681 reversed $203 $-1 #
coedge $-1 $677 $328 $325 $494 forward $323 $-1 #
edge $-1 $500 -21.204876223948904 $682 -1.4367678355095563 $493 $683 forward 7 unknown #
coedge $-1 $327 $326 $676 $684 reversed $129 $-1 #
coedge $-1 $678 $685 $326 $497 forward $674 $-1 #
edge $-1 $686 0.068707063731323154 $499 23.378833670878059 $496 $687 forward 7 unknown #
edge $-1 $688 0 $500 23.310126607146739 $491 $689 forward 7 unknown #
vertex $-1 $679 $690 #
vertex $-1 $329 $691 #
straight-curve $-1 -28.253376642231757 -8.8571965515939031 15.504708285563096 0 1 0 I I #
coedge $-1 $502 $502 $-1 $692 reversed $332 $-1 #
edge $-1 $693 0 $693 6.2831853071796004 $333 $694 forward 7 unknown #
vertex $-1 $336 $695 #
ellipse-curve $-1 -38.137430836451436 -19.982966075033588 9.3284656335916658 -0.52991927123019833 0 0.84804809178421925 0.42402404589210962 0 0.26495963561509916 1 I I #
coedge $-1 $506 $506 $-1 $696 reversed $339 $-1 #
edge $-1 $697 0 $697 6.2831853071796004 $340 $698 forward 7 unknown #
vertex $-1 $343 $699 #
ellipse-curve $-1 -38.137430836451436 -17.714393103187806 9.3284656335916658 -0.52991927123019833 0 0.84804809178421925 0.42402404589210962 0 0.26495963561509916 1 I I #
coedge $-1 $510 $510 $-1 $700 reversed $346 $-1 #
edge $-1 $701 0 $701 6.2831853071796004 $347 $702 forward 7 unknown #
vertex $-1 $350 $703 #
ellipse-curve $-1 -38.137430836451436 -15.445820131342025 9.3284656335916658 -0.52991927123019833 0 0.84804809178421925 0.42402404589210962 0 0.26495963561509916 1 I I #
face $-1 $-1 $704 $72 $-1 $705 reversed single #
loop $-1 $-1 $357 $351 #
plane-surface $-1 0 0 15.504708285563096 0 0 1 1 0 0 forward_v I I I I #
coedge $-1 $706 $707 $708 $709 reversed $352 $-1 #
coedge $-1 $710 $354 $356 $524 forward $222 $-1 #
coedge $-1 $354 $710 $706 $711 forward $222 $-1 #
coedge $-1 $708 $357 $354 $521 forward $515 $-1 #
edge $-1 $527 1.8578423243596198 $712 9.4197522305122199 $520 $713 forward 7 unknown #
coedge $-1 $714 $715 $355 $523 forward $704 $-1 #
edge $-1 $716 -39.148417254094959 $526 -26.795931950152102 $522 $717 forward 7 unknown #
edge $-1 $527 -23.310126607146739 $716 0 $356 $718 forward 7 unknown #
coedge $-1 $357 $708 $714 $719 forward $515 $-1 #
vertex $-1 $358 $720 #
vertex $-1 $358 $721 #
straight-curve $-1 -49.458252866180658 7.4966396017955397 15.504708285563098 1 0 0 I I #
coedge $-1 $529 $529 $-1 $722 reversed $361 $-1 #
edge $-1 $723 0 $723 6.2831853071796004 $362 $724 forward 7 unknown #
vertex $-1 $365 $725 #
ellipse-curve $-1 -38.137430836451436 9.0090215830260618 9.3284656335916658 -0.52991927123019833 0 0.84804809178421925 0.42402404589210962 0 0.26495963561509916 1 I I #
coedge $-1 $533 $533 $-1 $726 reversed $368 $-1 #
edge $-1 $727 0 $727 6.2831853071796004 $369 $728 forward 7 unknown #
vertex $-1 $372 $729 #
ellipse-curve $-1 -38.137430836451436 11.27759455487184 9.3284656335916658 -0.52991927123019833 0 0.84804809178421925 0.42402404589210962 0 0.26495963561509916 1 I I #
coedge $-1 $537 $537 $-1 $730 reversed $375 $-1 #
edge $-1 $731 0 $731 6.2831853071796004 $376 $732 forward 7 unknown #
vertex $-1 $379 $733 #
ellipse-curve $-1 -38.137430836451436 13.546167526717625 9.3284656335916658 -0.52991927123019833 0 0.84804809178421925 0.42402404589210962 0 0.26495963561509916 1 I I #
face $-1 $-1 $395 $57 $-1 $734 reversed single #
loop $-1 $-1 $557 $380 #
plane-surface $-1 0 32.696583005196644 0 0 -1 0 0 0 -1 forward_v I I I I #
coedge $-1 $735 $555 $558 $736 forward $381 $-1 #
coedge $-1 $561 $383 $384 $549 reversed $241 $-1 #
coedge $-1 $555 $735 $383 $547 reversed $381 $-1 #
edge $-1 $562 -15.504708285563096 $737 15.504708285563096 $546 $738 forward 7 unknown #
coedge $-1 $385 $384 $735 $739 forward $153 $-1 #
edge $-1 $553 -48.021485030671101 $737 48.021485030671101 $545 $740 forward 7 unknown #
coedge $-1 $558 $557 $385 $551 reversed $542 $-1 #
edge $-1 $741 -48.021485030671101 $552 48.021485030671101 $550 $742 forward 7 unknown #
vertex $-1 $387 $743 #
vertex $-1 $564 $744 #
straight-curve $-1 48.021485030671101 0 -15.504708285563096 0 -1 0 I I #
coedge $-1 $544 $546 $388 $556 reversed $381 $-1 #
edge $-1 $559 -32.696583005196644 $562 32.696583005196644 $555 $745 forward 7 unknown #
coedge $-1 $550 $389 $394 $565 forward $542 $-1 #
coedge $-1 $389 $550 $544 $736 reversed $542 $-1 #
vertex $-1 $390 $746 #
straight-curve $-1 0 32.696583005196644 15.504708285563096 -1 0 0 I I #
coedge $-1 $391 $545 $393 $564 reversed $241 $-1 #
vertex $-1 $556 $747 #
straight-curve $-1 0 -32.696583005196644 15.504708285563096 1 0 0 I I #
edge $-1 $396 -15.504708285563096 $553 15.504708285563096 $393 $748 forward 7 unknown #
edge $-1 $397 -15.504708285563096 $552 15.504708285563096 $394 $749 forward 7 unknown #
point $-1 48.021485030671101 -32.696583005196644 15.504708285563096 #
point $-1 48.021485030671101 32.696583005196644 15.504708285563096 #
face $-1 $-1 $578 $58 $-1 $750 reversed single #
loop $-1 $-1 $574 $399 #
plane-surface $-1 0 0 -15.504708285563096 0 0 1 1 0 0 forward_v I I I I #
coedge $-1 $751 $752 $407 $582 forward $400 $-1 #
coedge $-1 $402 $586 $576 $753 forward $249 $-1 #
edge $-1 $580 -19.148600239831456 $412 -7.9473652908989187 $402 $754 forward 7 unknown #
coedge $-1 $755 $408 $403 $575 forward $569 $-1 #
edge $-1 $413 7.9473652908989187 $579 19.148600239831456 $574 $756 forward 7 unknown #
coedge $-1 $757 $405 $572 $753 reversed $578 $-1 #
coedge $-1 $405 $757 $755 $758 reversed $578 $-1 #
loop $-1 $-1 $405 $568 #
vertex $-1 $758 $759 #
vertex $-1 $406 $760 #
straight-curve $-1 -44.406101439659608 -32.696583005196644 0 0 0 1 I I #
edge $-1 $587 -15.504708285563096 $584 15.504708285563096 $571 $761 forward 7 unknown #
coedge $-1 $408 $755 $751 $762 forward $569 $-1 #
vertex $-1 $409 $763 #
straight-curve $-1 -23.106896617582677 -21.495348056264106 -15.504708285563096 1 0 0 I I #
coedge $-1 $572 $410 $752 $764 forward $249 $-1 #
vertex $-1 $764 $765 #
straight-curve $-1 -23.106896617582677 -21.495348056264106 15.504708285563096 -1 0 0 I I #
point $-1 -44.406101439659608 -21.495348056264106 15.504708285563096 #
point $-1 -44.406101439659608 -21.495348056264106 -15.504708285563096 #
face $-1 $-1 $605 $59 $-1 $766 reversed single #
loop $-1 $-1 $597 $415 #
plane-surface $-1 -48.021485030671101 0 0 1 0 0 0 0 -1 forward_v I I I I #
coedge $-1 $767 $768 $418 $596 forward $416 $-1 #
coedge $-1 $419 $418 $426 $610 reversed $161 $-1 #
edge $-1 $769 -48.021485030671101 $599 48.021485030671101 $594 $770 forward 7 unknown #
coedge $-1 $771 $420 $422 $602 forward $592 $-1 #
coedge $-1 $420 $771 $767 $772 reversed $592 $-1 #
vertex $-1 $772 $773 #
vertex $-1 $602 $774 #
straight-curve $-1 -48.021485030671101 15.058549507948143 -6.2108027682852027 0 0 1 I I #
edge $-1 $600 3.1197663796619466 $606 20.757799876910447 $597 $775 forward 7 unknown #
coedge $-1 $776 $423 $427 $611 forward $605 $-1 #
coedge $-1 $423 $776 $771 $777 reversed $605 $-1 #
loop $-1 $-1 $423 $591 #
vertex $-1 $777 $778 #
straight-curve $-1 0 32.696583005196644 -9.3385027875777151 1 0 0 I I #
straight-curve $-1 0 15.058549507948143 -9.3385027875777151 1 0 0 I I #
coedge $-1 $427 $426 $768 $779 reversed $257 $-1 #
edge $-1 $429 3.1277000192925124 $769 9.2939055172778922 $426 $780 forward 7 unknown #
edge $-1 $428 9.3385027875777151 $781 15.504708285563096 $427 $782 forward 7 unknown #
point $-1 48.021485030671101 32.696583005196644 -9.3385027875777151 #
point $-1 48.021485030671101 15.058549507948143 -9.3385027875777151 #
plane-surface $-1 0 0 15.504708285563096 0 0 1 1 0 0 forward_v I I I I #
coedge $-1 $625 $624 $617 $783 forward $432 $-1 #
coedge $-1 $617 $434 $436 $621 reversed $265 $-1 #
coedge $-1 $434 $616 $615 $783 reversed $265 $-1 #
coedge $-1 $442 $437 $434 $619 forward $443 $-1 #
edge $-1 $622 19.5196525209562 $784 39.287760909395516 $618 $785 forward 7 unknown #
coedge $-1 $436 $435 $625 $786 reversed $165 $-1 #
edge $-1 $787 -96.042970061342203 $622 -72.732843454195489 $616 $788 forward 7 unknown #
vertex $-1 $438 $789 #
straight-curve $-1 28.253376642231778 -8.8571965515939031 15.504708285563094 0 -1 0 I I #
coedge $-1 $615 $439 $442 $629 reversed $432 $-1 #
coedge $-1 $439 $615 $620 $786 forward $432 $-1 #
vertex $-1 $440 $790 #
straight-curve $-1 48.021485030671101 -13.933438150111506 67.748150586560314 0 0 1 I I #
straight-curve $-1 -33.427572459139043 -13.933438150111506 54.047243683310469 0.84804809178421925 0 -0.52991927123019833 I I #
edge $-1 $784 -21.495348056264106 $444 -13.933438150111506 $624 $791 forward 7 unknown #
point $-1 48.021485030671101 -13.933438150111506 15.504708285563096 #
point $-1 28.253376642231785 -13.933438150111506 15.504708285563098 #
edge $-1 $792 1 $792 0 $447 $-1 forward 7 unknown #
vertex $-1 $448 $793 #
ellipse-curve $-1 37.299776073641183 -19.982966075033588 7.9879378178621474 0.52991927123019833 0 0.84804809178421925 0.42402404589210962 0 -0.26495963561509916 1 I I #
point $-1 38.561454882343554 -19.982966075033588 9.0635059979765824 #
edge $-1 $794 1 $794 0 $451 $-1 forward 7 unknown #
vertex $-1 $452 $795 #
ellipse-curve $-1 37.299776073641183 -17.714393103187806 7.9879378178621474 0.52991927123019833 0 0.84804809178421925 0.42402404589210962 0 -0.26495963561509916 1 I I #
point $-1 38.561454882343554 -17.714393103187806 9.0635059979765824 #
edge $-1 $796 1 $796 0 $455 $-1 forward 7 unknown #
vertex $-1 $456 $797 #
ellipse-curve $-1 37.299776073641183 -15.445820131342025 7.9879378178621474 0.52991927123019833 0 0.84804809178421925 0.42402404589210962 0 -0.26495963561509916 1 I I #
point $-1 38.561454882343554 -15.445820131342025 9.0635059979765824 #
plane-surface $-1 0 0 15.504708285563096 0 0 1 1 0 0 forward_v I I I I #
coedge $-1 $655 $654 $647 $798 forward $460 $-1 #
coedge $-1 $647 $462 $464 $651 reversed $294 $-1 #
coedge $-1 $462 $646 $645 $798 reversed $294 $-1 #
coedge $-1 $470 $465 $462 $649 forward $471 $-1 #
edge $-1 $652 19.5196525209562 $799 39.287760909395516 $648 $800 forward 7 unknown #
coedge $-1 $464 $463 $655 $801 reversed $184 $-1 #
edge $-1 $802 -96.042970061342203 $652 -72.732843454195489 $646 $803 forward 7 unknown #
vertex $-1 $466 $804 #
straight-curve $-1 28.253376642231778 5.6387972774359199 15.504708285563094 0 -1 0 I I #
coedge $-1 $645 $467 $470 $659 reversed $460 $-1 #
coedge $-1 $467 $645 $650 $801 forward $460 $-1 #
vertex $-1 $468 $805 #
straight-curve $-1 48.021485030671101 15.05854950794814 67.748150586560314 0 0 1 I I #
straight-curve $-1 -33.427572459139043 15.05854950794814 54.047243683310469 0.84804809178421925 0 -0.52991927123019833 I I #
edge $-1 $799 7.4966396017955397 $472 15.05854950794814 $654 $806 forward 7 unknown #
point $-1 48.021485030671101 15.05854950794814 15.504708285563096 #
point $-1 28.253376642231785 15.05854950794814 15.504708285563098 #
edge $-1 $807 1 $807 0 $475 $-1 forward 7 unknown #
vertex $-1 $476 $808 #
ellipse-curve $-1 37.299776073641183 9.0090215830260618 7.9879378178621474 0.52991927123019833 0 0.84804809178421925 0.42402404589210962 0 -0.26495963561509916 1 I I #
point $-1 38.561454882343554 9.0090215830260618 9.0635059979765824 #
edge $-1 $809 1 $809 0 $479 $-1 forward 7 unknown #
vertex $-1 $480 $810 #
ellipse-curve $-1 37.299776073641183 11.27759455487184 7.9879378178621474 0.52991927123019833 0 0.84804809178421925 0.42402404589210962 0 -0.26495963561509916 1 I I #
point $-1 38.561454882343554 11.27759455487184 9.0635059979765824 #
edge $-1 $811 1 $811 0 $483 $-1 forward 7 unknown #
vertex $-1 $484 $812 #
ellipse-curve $-1 37.299776073641183 13.546167526717625 7.9879378178621474 0.52991927123019833 0 0.84804809178421925 0.42402404589210962 0 -0.26495963561509916 1 I I #
point $-1 38.561454882343554 13.546167526717625 9.0635059979765824 #
loop $-1 $-1 $496 $487 #
plane-surface $-1 -46.213793235165355 -21.495348056264106 0 0 -1 0 0 0 -1 forward_v I I I I #
coedge $-1 $813 $680 $495 $684 forward $488 $-1 #
coedge $-1 $490 $493 $814 $815 forward $323 $-1 #
coedge $-1 $685 $496 $490 $679 reversed $674 $-1 #
edge $-1 $816 -24.914588413088424 $499 -5.1464800246490761 $490 $817 forward 7 unknown #
coedge $-1 $676 $814 $492 $681 forward $488 $-1 #
edge $-1 $682 26.795931950152102 $688 39.148417254094959 $680 $818 forward 7 unknown #
vertex $-1 $815 $819 #
straight-curve $-1 -49.458252866180658 -13.933438150111506 15.504708285563098 -1 0 0 I I #
edge $-1 $688 5.076241598517603 $686 12.638151504670203 $676 $820 forward 7 unknown #
coedge $-1 $496 $678 $813 $821 reversed $674 $-1 #
vertex $-1 $821 $822 #
straight-curve $-1 -48.079751924960547 -21.495348056264106 3.1158137844793723 0.84804809178421925 0 0.52991927123019833 I I #
vertex $-1 $684 $823 #
straight-curve $-1 -48.021485030671101 -13.933438150111506 3.1522229816202412 0.84804809178421925 0 0.52991927123019833 I I #
point $-1 -28.253376642231753 -21.495348056264106 15.504708285563096 #
point $-1 -28.253376642231753 -13.933438150111506 15.504708285563096 #
edge $-1 $824 1 $824 0 $502 $-1 forward 7 unknown #
vertex $-1 $503 $825 #
ellipse-curve $-1 -37.299776073641183 -19.982966075033588 7.9879378178621474 -0.52991927123019833 0 0.84804809178421925 0.42402404589210962 0 0.26495963561509916 1 I I #
point $-1 -37.713406790559333 -19.982966075033588 9.5934252692067794 #
edge $-1 $826 1 $826 0 $506 $-1 forward 7 unknown #
vertex $-1 $507 $827 #
ellipse-curve $-1 -37.299776073641183 -17.714393103187806 7.9879378178621474 -0.52991927123019833 0 0.84804809178421925 0.42402404589210962 0 0.26495963561509916 1 I I #
point $-1 -37.713406790559333 -17.714393103187806 9.5934252692067794 #
edge $-1 $828 1 $828 0 $510 $-1 forward 7 unknown #
vertex $-1 $511 $829 #
ellipse-curve $-1 -37.299776073641183 -15.445820131342025 7.9879378178621474 -0.52991927123019833 0 0.84804809178421925 0.42402404589210962 0 0.26495963561509916 1 I I #
point $-1 -37.713406790559333 -15.445820131342025 9.5934252692067794 #
loop $-1 $-1 $522 $514 #
plane-surface $-1 -48.021485030671101 0 0 1 0 0 0 0 -1 forward_v I I I I #
coedge $-1 $707 $517 $519 $711 reversed $352 $-1 #
coedge $-1 $517 $706 $830 $831 reversed $352 $-1 #
coedge $-1 $525 $520 $517 $709 forward $515 $-1 #
edge $-1 $712 -21.204876223948904 $832 -1.4367678355095563 $708 $833 forward 7 unknown #
coedge $-1 $519 $518 $715 $834 reversed $222 $-1 #
edge $-1 $835 0 $712 23.310126607146739 $706 $836 forward 7 unknown #
vertex $-1 $521 $837 #
straight-curve $-1 -28.253376642231757 5.6387972774359199 15.504708285563096 0 1 0 I I #
coedge $-1 $830 $522 $525 $719 reversed $704 $-1 #
coedge $-1 $522 $830 $710 $834 forward $704 $-1 #
vertex $-1 $523 $838 #
straight-curve $-1 -48.021485030671101 7.4966396017955397 42.3006402357152 0 0 1 I I #
straight-curve $-1 -48.021485030671101 7.4966396017955397 3.1522229816202412 -0.84804809178421925 0 -0.52991927123019833 I I #
edge $-1 $832 -15.05854950794814 $526 -7.4966396017955397 $714 $839 forward 7 unknown #
point $-1 -48.021485030671101 7.4966396017955397 15.504708285563096 #
point $-1 -28.253376642231753 7.4966396017955397 15.504708285563096 #
edge $-1 $840 1 $840 0 $529 $-1 forward 7 unknown #
vertex $-1 $530 $841 #
ellipse-curve $-1 -37.299776073641183 9.0090215830260618 7.9879378178621474 -0.52991927123019833 0 0.84804809178421925 0.42402404589210962 0 0.26495963561509916 1 I I #
point $-1 -37.713406790559333 9.0090215830260618 9.5934252692067794 #
edge $-1 $842 1 $842 0 $533 $-1 forward 7 unknown #
vertex $-1 $534 $843 #
ellipse-curve $-1 -37.299776073641183 11.27759455487184 7.9879378178621474 -0.52991927123019833 0 0.84804809178421925 0.42402404589210962 0 0.26495963561509916 1 I I #
point $-1 -37.713406790559333 11.27759455487184 9.5934252692067794 #
edge $-1 $844 1 $844 0 $537 $-1 forward 7 unknown #
vertex $-1 $538 $845 #
ellipse-curve $-1 -37.299776073641183 13.546167526717625 7.9879378178621474 -0.52991927123019833 0 0.84804809178421925 0.42402404589210962 0 0.26495963561509916 1 I I #
point $-1 -37.713406790559333 13.546167526717625 9.5934252692067794 #
plane-surface $-1 48.021485030671101 0 0 -1 0 0 0 0 1 forward_v I I I I #
coedge $-1 $546 $544 $548 $739 reversed $381 $-1 #
edge $-1 $559 -15.504708285563096 $741 15.504708285563096 $558 $846 forward 7 unknown #
vertex $-1 $739 $847 #
straight-curve $-1 -48.021485030671101 -32.696583005196644 0 0 0 -1 I I #
edge $-1 $737 -32.696583005196644 $741 32.696583005196644 $735 $848 forward 7 unknown #
straight-curve $-1 0 -32.696583005196644 -15.504708285563096 -1 0 0 I I #
vertex $-1 $551 $849 #
straight-curve $-1 0 32.696583005196644 -15.504708285563096 1 0 0 I I #
point $-1 48.021485030671101 32.696583005196644 -15.504708285563096 #
point $-1 48.021485030671101 -32.696583005196644 -15.504708285563096 #
straight-curve $-1 -48.021485030671101 0 15.504708285563096 0 -1 0 I I #
point $-1 -48.021485030671101 32.696583005196644 15.504708285563096 #
point $-1 -48.021485030671101 -32.696583005196644 15.504708285563096 #
straight-curve $-1 48.021485030671101 -32.696583005196644 0 0 0 -1 I I #
straight-curve $-1 48.021485030671101 32.696583005196644 0 0 0 -1 I I #
plane-surface $-1 0 -32.696583005196644 0 0 1 0 0 0 1 forward_v I I I I #
coedge $-1 $850 $571 $583 $762 reversed $400 $-1 #
coedge $-1 $571 $850 $586 $764 reversed $400 $-1 #
edge $-1 $851 -48.021485030671101 $580 -44.406101439659608 $576 $852 forward 7 unknown #
straight-curve $-1 -44.406101439659608 -13.547982765365187 15.504708285563096 0 1 0 I I #
coedge $-1 $583 $574 $577 $758 forward $569 $-1 #
straight-curve $-1 -44.406101439659608 -13.547982765365187 -15.504708285563096 0 -1 0 I I #
coedge $-1 $577 $576 $850 $853 forward $578 $-1 #
edge $-1 $579 44.406101439659608 $854 48.021485030671101 $577 $855 forward 7 unknown #
point $-1 -44.406101439659608 -32.696583005196644 -15.504708285563096 #
point $-1 -44.406101439659608 -32.696583005196644 15.504708285563096 #
straight-curve $-1 -48.021485030671101 -21.495348056264106 0 0 0 -1 I I #
edge $-1 $854 -32.696583005196644 $584 -21.495348056264106 $751 $856 forward 7 unknown #
point $-1 -48.021485030671101 -21.495348056264106 -15.504708285563096 #
edge $-1 $587 21.495348056264106 $851 32.696583005196644 $752 $857 forward 7 unknown #
point $-1 -48.021485030671101 -21.495348056264106 15.504708285563096 #
plane-surface $-1 0 32.696583005196644 0 0 -1 0 0 0 -1 forward_v I I I I #
coedge $-1 $858 $594 $598 $772 forward $416 $-1 #
coedge $-1 $594 $858 $609 $779 forward $416 $-1 #
vertex $-1 $596 $859 #
straight-curve $-1 0 15.058549507948143 -15.504708285563096 -1 0 0 I I #
coedge $-1 $598 $597 $604 $777 forward $592 $-1 #
edge $-1 $599 15.058549507948143 $860 32.696583005196644 $598 $861 forward 7 unknown #
point $-1 -48.021485030671101 15.058549507948143 -15.504708285563096 #
point $-1 -48.021485030671101 15.058549507948143 -9.3385027875777151 #
straight-curve $-1 -48.021485030671101 11.938783128286197 -9.3385027875777151 0 1 0 I I #
coedge $-1 $604 $603 $858 $862 reversed $605 $-1 #
edge $-1 $606 9.3385027875777151 $860 15.504708285563096 $604 $863 forward 7 unknown #
point $-1 -48.021485030671101 32.696583005196644 -9.3385027875777151 #
edge $-1 $781 -32.696583005196644 $769 -15.058549507948143 $609 $864 forward 7 unknown #
straight-curve $-1 48.021485030671101 15.058549507948143 -6.2108027682852027 0 0 -1 I I #
vertex $-1 $779 $865 #
straight-curve $-1 48.021485030671101 32.696583005196644 0 0 0 -1 I I #
edge $-1 $784 52.243442300997216 $787 64.595927604940044 $615 $866 forward 7 unknown #
vertex $-1 $629 $867 #
straight-curve $-1 8.7337241212755856 -21.495348056264106 15.504708285563098 1 0 0 I I #
edge $-1 $787 -12.638151504670203 $626 -5.076241598517603 $625 $868 forward 7 unknown #
vertex $-1 $786 $869 #
straight-curve $-1 -33.427572459139043 -21.495348056264106 54.047243683310469 -0.84804809178421925 0 0.52991927123019833 I I #
point $-1 28.253376642231785 -21.495348056264106 15.504708285563098 #
point $-1 48.021485030671101 -13.933438150111506 3.1522229816202625 #
straight-curve $-1 48.021485030671101 0 15.504708285563096 0 1 0 I I #
vertex $-1 $632 $870 #
point $-1 37.723800119533294 -19.982966075033588 7.7229781822470489 #
vertex $-1 $636 $871 #
point $-1 37.723800119533294 -17.714393103187806 7.7229781822470489 #
vertex $-1 $640 $872 #
point $-1 37.723800119533294 -15.445820131342025 7.7229781822470489 #
edge $-1 $799 52.243442300997216 $802 64.595927604940044 $645 $873 forward 7 unknown #
vertex $-1 $659 $874 #
straight-curve $-1 8.7337241212755856 7.4966396017955397 15.504708285563098 1 0 0 I I #
edge $-1 $802 1.8578423243596198 $656 9.4197522305122199 $655 $875 forward 7 unknown #
vertex $-1 $801 $876 #
straight-curve $-1 -33.427572459139043 7.4966396017955397 54.047243683310469 -0.84804809178421925 0 0.52991927123019833 I I #
point $-1 28.253376642231785 7.4966396017955397 15.504708285563098 #
point $-1 48.021485030671101 15.05854950794814 3.1522229816202625 #
straight-curve $-1 48.021485030671101 0 15.504708285563096 0 1 0 I I #
vertex $-1 $662 $877 #
point $-1 37.723800119533294 9.0090215830260618 7.7229781822470489 #
vertex $-1 $666 $878 #
point $-1 37.723800119533294 11.27759455487184 7.7229781822470489 #
vertex $-1 $670 $879 #
point $-1 37.723800119533294 13.546167526717625 7.7229781822470489 #
coedge $-1 $814 $676 $685 $821 forward $488 $-1 #
coedge $-1 $680 $813 $677 $815 reversed $488 $-1 #
edge $-1 $682 13.933438150111506 $816 21.495348056264106 $814 $880 forward 7 unknown #
vertex $-1 $821 $881 #
straight-curve $-1 -23.106896617582677 -21.495348056264106 15.504708285563096 1 0 0 I I #
straight-curve $-1 -48.021485030671101 -13.933438150111506 42.3006402357152 0 0 -1 I I #
point $-1 -48.021485030671101 -13.933438150111506 15.504708285563096 #
straight-curve $-1 -48.021485030671101 -8.8571965515939031 3.1522229816202429 0 -1 0 I I #
edge $-1 $686 3.1522229816202412 $816 15.504708285563096 $813 $882 forward 7 unknown #
point $-1 -48.021485030671101 -21.495348056264106 3.1522229816202412 #
point $-1 -48.021485030671101 -13.933438150111506 3.1522229816202412 #
vertex $-1 $692 $883 #
point $-1 -36.875752027749073 -19.982966075033588 8.2528974534772477 #
vertex $-1 $696 $884 #
point $-1 -36.875752027749073 -17.714393103187806 8.2528974534772477 #
vertex $-1 $700 $885 #
point $-1 -36.875752027749073 -15.445820131342025 8.2528974534772477 #
coedge $-1 $715 $714 $707 $831 forward $704 $-1 #
edge $-1 $832 26.795931950152102 $835 39.148417254094959 $830 $886 forward 7 unknown #
vertex $-1 $719 $887 #
straight-curve $-1 -49.458252866180658 15.05854950794814 15.504708285563098 -1 0 0 I I #
edge $-1 $835 -9.4197522305122199 $716 -1.8578423243596198 $715 $888 forward 7 unknown #
vertex $-1 $834 $889 #
straight-curve $-1 -48.021485030671101 15.05854950794814 3.1522229816202412 0.84804809178421925 0 0.52991927123019833 I I #
point $-1 -28.253376642231753 15.05854950794814 15.504708285563096 #
point $-1 -48.021485030671101 7.4966396017955397 3.1522229816202412 #
straight-curve $-1 -48.021485030671101 0 15.504708285563096 0 -1 0 I I #
vertex $-1 $722 $890 #
point $-1 -36.875752027749073 9.0090215830260618 8.2528974534772477 #
vertex $-1 $726 $891 #
point $-1 -36.875752027749073 11.27759455487184 8.2528974534772477 #
vertex $-1 $730 $892 #
point $-1 -36.875752027749073 13.546167526717625 8.2528974534772477 #
straight-curve $-1 -48.021485030671101 32.696583005196644 0 0 0 -1 I I #
point $-1 -48.021485030671101 -32.696583005196644 -15.504708285563096 #
straight-curve $-1 -48.021485030671101 0 -15.504708285563096 0 1 0 I I #
point $-1 -48.021485030671101 32.696583005196644 -15.504708285563096 #
coedge $-1 $752 $751 $757 $853 reversed $400 $-1 #
vertex $-1 $764 $893 #
straight-curve $-1 0 -32.696583005196644 15.504708285563096 1 0 0 I I #
edge $-1 $851 -15.504708285563096 $854 15.504708285563096 $850 $894 forward 7 unknown #
vertex $-1 $762 $895 #
straight-curve $-1 0 -32.696583005196644 -15.504708285563096 -1 0 0 I I #
straight-curve $-1 -48.021485030671101 0 -15.504708285563096 0 1 0 I I #
straight-curve $-1 -48.021485030671101 0 15.504708285563096 0 -1 0 I I #
coedge $-1 $768 $767 $776 $862 forward $416 $-1 #
point $-1 48.021485030671101 15.058549507948143 -15.504708285563096 #
vertex $-1 $862 $896 #
straight-curve $-1 -48.021485030671101 0 -15.504708285563096 0 1 0 I I #
edge $-1 $860 -48.021485030671101 $781 48.021485030671101 $776 $897 forward 7 unknown #
straight-curve $-1 -48.021485030671101 32.696583005196644 0 0 0 -1 I I #
straight-curve $-1 48.021485030671101 0 -15.504708285563096 0 -1 0 I I #
point $-1 48.021485030671101 32.696583005196644 -15.504708285563096 #
straight-curve $-1 48.021485030671101 -21.495348056264106 67.748150586560314 0 0 -1 I I #
point $-1 48.021485030671101 -21.495348056264106 15.504708285563096 #
straight-curve $-1 48.021485030671109 -8.8571965515939031 3.1522229816202518 0 1 0 I I #
point $-1 48.021485030671101 -21.495348056264106 3.1522229816202625 #
point $-1 37.034816438026084 -19.982966075033588 7.5639137719700384 #
point $-1 37.034816438026084 -17.714393103187806 7.5639137719700384 #
point $-1 37.034816438026084 -15.445820131342025 7.5639137719700384 #
straight-curve $-1 48.021485030671101 7.4966396017955397 67.748150586560314 0 0 -1 I I #
point $-1 48.021485030671101 7.4966396017955397 15.504708285563096 #
straight-curve $-1 48.021485030671109 5.6387972774359199 3.1522229816202518 0 1 0 I I #
point $-1 48.021485030671101 7.4966396017955397 3.1522229816202625 #
point $-1 37.034816438026084 9.0090215830260618 7.5639137719700384 #
point $-1 37.034816438026084 11.27759455487184 7.5639137719700384 #
point $-1 37.034816438026084 13.546167526717625 7.5639137719700384 #
straight-curve $-1 -48.021485030671101 0 15.504708285563096 0 -1 0 I I #
point $-1 -48.021485030671101 -21.495348056264106 15.504708285563096 #
straight-curve $-1 -48.021485030671101 -21.495348056264106 0 0 0 1 I I #
point $-1 -37.034816438026084 -19.982966075033588 7.5639137719700384 #
point $-1 -37.034816438026084 -17.714393103187806 7.5639137719700384 #
point $-1 -37.034816438026084 -15.445820131342025 7.5639137719700384 #
straight-curve $-1 -48.021485030671101 15.05854950794814 42.3006402357152 0 0 -1 I I #
point $-1 -48.021485030671101 15.05854950794814 15.504708285563096 #
straight-curve $-1 -48.021485030671101 5.6387972774359199 3.1522229816202429 0 -1 0 I I #
point $-1 -48.021485030671101 15.05854950794814 3.1522229816202412 #
point $-1 -37.034816438026084 9.0090215830260618 7.5639137719700384 #
point $-1 -37.034816438026084 11.27759455487184 7.5639137719700384 #
point $-1 -37.034816438026084 13.546167526717625 7.5639137719700384 #
point $-1 -48.021485030671101 -32.696583005196644 15.504708285563096 #
straight-curve $-1 -48.021485030671101 -32.696583005196644 0 0 0 -1 I I #
point $-1 -48.021485030671101 -32.696583005196644 -15.504708285563096 #
point $-1 -48.021485030671101 32.696583005196644 -15.504708285563096 #
straight-curve $-1 0 32.696583005196644 -15.504708285563096 1 0 0 I I #
End-of-ACIS-data 