500 0 6 0           
7 Unknown 11 ACIS 5.0 NT 24 Thu Mar 25 21:29:52 1999 
-1 9.9999999999999995e-007 1e-010 
body $-1 $6 $-1 $7 #
body $-1 $8 $-1 $9 #
body $-1 $10 $-1 $11 #
body $-1 $12 $-1 $13 #
body $-1 $14 $-1 $15 #
body $-1 $16 $-1 $17 #
lump $-1 $-1 $18 $0 #
transform $-1 1 0 0 0 1 0 0 0 1 72.914822840052494 30.718042204990898 11.678424602937518 1 rotate no_reflect no_shear #
lump $-1 $-1 $19 $1 #
transform $-1 1 0 0 0 1 0 0 0 1 72.914822840052494 30.718042204990898 11.678424602937518 1 rotate no_reflect no_shear #
lump $-1 $-1 $20 $2 #
transform $-1 1 0 0 0 1 0 0 0 1 72.914822840052494 30.718042204990898 11.678424602937518 1 rotate no_reflect no_shear #
lump $-1 $-1 $21 $3 #
transform $-1 1 0 0 0 1 0 0 0 1 72.914822840052494 30.718042204990898 11.678424602937518 1 rotate no_reflect no_shear #
lump $-1 $-1 $22 $4 #
transform $-1 1 0 0 0 1 0 0 0 1 72.914822840052494 30.718042204990898 11.678424602937518 1 rotate no_reflect no_shear #
lump $-1 $-1 $23 $5 #
transform $-1 1 0 0 0 1 0 0 0 1 72.914822840052494 30.718042204990898 11.678424602937518 1 rotate no_reflect no_shear #
shell $-1 $-1 $-1 $24 $-1 $6 #
shell $-1 $-1 $-1 $25 $-1 $8 #
shell $-1 $-1 $-1 $26 $-1 $10 #
shell $-1 $-1 $-1 $27 $-1 $12 #
shell $-1 $-1 $-1 $28 $-1 $14 #
shell $-1 $-1 $-1 $29 $-1 $16 #
face $-1 $30 $31 $18 $-1 $32 forward single #
face $-1 $33 $34 $19 $-1 $35 forward single #
face $-1 $36 $37 $20 $-1 $38 reversed single #
face $-1 $39 $40 $21 $-1 $41 forward single #
face $-1 $42 $43 $22 $-1 $44 forward single #
face $-1 $45 $46 $23 $-1 $47 forward single #
face $-1 $48 $49 $18 $-1 $50 reversed single #
loop $-1 $-1 $51 $24 #
plane-surface $-1 0 0 11.678424602937518 0 0 1 1 0 0 forward_v I I I I #
face $-1 $52 $53 $19 $-1 $54 reversed single #
loop $-1 $-1 $55 $25 #
plane-surface $-1 -72.914822840052494 0 0 1 0 0 0 0 -1 forward_v I I I I #
face $-1 $56 $57 $20 $-1 $58 reversed single #
loop $-1 $-1 $59 $26 #
plane-surface $-1 54.940324611826625 13.108064617666084 211.79322834832965 0 1 0 0.64278761758704617 0 0.76604443648966558 forward_v I I I I #
face $-1 $60 $61 $21 $-1 $62 forward single #
loop $-1 $63 $64 $27 #
cone-surface $-1 68.05107214973961 16.630060135131043 7.0030519204360164 -0.64278761758704617 0 -0.76604443648966558 1.1490666547344983 0 -0.96418142638056925 1 I I 0 1 1.5 forward I I I I #
face $-1 $65 $66 $22 $-1 $67 forward single #
loop $-1 $68 $69 $28 #
cone-surface $-1 68.05107214973961 21.913053411328487 7.0030519204360164 -0.64278761758704617 0 -0.76604443648966558 1.1490666547344983 0 -0.96418142638056925 1 I I 0 1 1.5 forward I I I I #
face $-1 $70 $71 $23 $-1 $72 forward single #
loop $-1 $73 $74 $29 #
cone-surface $-1 68.05107214973961 27.196046687525932 7.0030519204360164 -0.64278761758704617 0 -0.76604443648966558 1.1490666547344983 0 -0.96418142638056925 1 I I 0 1 1.5 forward I I I I #
face $-1 $75 $76 $18 $-1 $77 reversed single #
loop $-1 $-1 $78 $30 #
plane-surface $-1 0 0 -11.678424602937518 0 0 1 1 0 0 forward_v I I I I #
coedge $-1 $79 $80 $81 $82 forward $31 $-1 #
face $-1 $83 $84 $19 $-1 $85 forward single #
loop $-1 $-1 $86 $33 #
plane-surface $-1 0 30.718042204990898 0 0 -1 0 0 0 -1 forward_v I I I I #
coedge $-1 $87 $88 $89 $90 forward $34 $-1 #
face $-1 $91 $92 $20 $-1 $93 forward single #
loop $-1 $-1 $94 $36 #
plane-surface $-1 -38.797165908451134 21.913053411328487 100.08123959982603 0.64278761758704617 0 0.76604443648966558 0.76604443648966558 0 -0.64278761758704617 forward_v I I I I #
coedge $-1 $95 $96 $97 $98 reversed $37 $-1 #
face $-1 $-1 $99 $21 $-1 $100 forward single #
loop $-1 $101 $102 $39 #
cone-surface $-1 65.884040039818132 16.630060135131043 4.4204836722618737 -0.64278761758704617 0 -0.76604443648966558 0.57453332736724916 0 -0.48209071319028463 1 I I -0.70710678118654757 0.70710678118654757 0.75 forward I I I I #
loop $-1 $-1 $103 $27 #
coedge $-1 $64 $64 $104 $105 reversed $40 $-1 #
face $-1 $-1 $106 $22 $-1 $107 forward single #
loop $-1 $108 $109 $42 #
cone-surface $-1 65.884040039818132 21.913053411328487 4.4204836722618737 -0.64278761758704617 0 -0.76604443648966558 0.57453332736724916 0 -0.48209071319028463 1 I I -0.70710678118654757 0.70710678118654757 0.75 forward I I I I #
loop $-1 $-1 $110 $28 #
coedge $-1 $69 $69 $111 $112 reversed $43 $-1 #
face $-1 $-1 $113 $23 $-1 $114 forward single #
loop $-1 $115 $116 $45 #
cone-surface $-1 65.884040039818132 27.196046687525932 4.4204836722618737 -0.64278761758704617 0 -0.76604443648966558 0.57453332736724916 0 -0.48209071319028463 1 I I -0.70710678118654757 0.70710678118654757 0.75 forward I I I I #
loop $-1 $-1 $117 $29 #
coedge $-1 $74 $74 $118 $119 reversed $46 $-1 #
face $-1 $120 $121 $18 $-1 $122 reversed single #
loop $-1 $-1 $123 $48 #
plane-surface $-1 0 -30.718042204990898 0 0 1 0 0 0 1 forward_v I I I I #
coedge $-1 $124 $125 $126 $127 forward $49 $-1 #
coedge $-1 $128 $51 $129 $130 forward $31 $-1 #
coedge $-1 $51 $128 $131 $132 forward $31 $-1 #
coedge $-1 $133 $134 $51 $82 reversed $135 $-1 #
edge $-1 $136 -30.718042204990898 $137 30.718042204990898 $81 $138 forward 7 unknown #
face $-1 $139 $140 $19 $-1 $141 reversed single #
loop $-1 $-1 $89 $52 #
plane-surface $-1 -77.314552674654578 0 -1.0346316800382951 0 0 1 1 0 0 forward_v I I I I #
coedge $-1 $142 $143 $88 $144 forward $53 $-1 #
coedge $-1 $145 $55 $146 $147 reversed $34 $-1 #
coedge $-1 $55 $145 $86 $144 reversed $34 $-1 #
coedge $-1 $148 $149 $55 $90 reversed $84 $-1 #
edge $-1 $150 -30.718042204990898 $151 30.718042204990898 $89 $152 forward 7 unknown #
face $-1 $153 $154 $20 $-1 $155 reversed single #
loop $-1 $-1 $156 $56 #
plane-surface $-1 0 0 11.678424602937518 0 0 1 1 0 0 forward_v I I I I #
coedge $-1 $157 $158 $159 $160 reversed $57 $-1 #
coedge $-1 $96 $59 $161 $162 reversed $37 $-1 #
coedge $-1 $59 $95 $157 $163 reversed $37 $-1 #
coedge $-1 $159 $164 $59 $98 forward $154 $-1 #
edge $-1 $165 94.218189571227299 $166 99.55286509461655 $97 $167 forward 7 unknown #
loop $-1 $-1 $104 $60 #
plane-surface $-1 -38.797165908451134 21.913053411328487 100.08123959982603 0.64278761758704617 0 0.76604443648966558 0.76604443648966558 0 -0.64278761758704617 forward_v I I I I #
loop $-1 $-1 $168 $39 #
coedge $-1 $102 $102 $103 $169 reversed $61 $-1 #
coedge $-1 $103 $103 $102 $169 forward $63 $-1 #
coedge $-1 $104 $104 $64 $105 forward $99 $-1 #
edge $-1 $170 0 $170 6.2831853071796004 $104 $171 forward 7 unknown #
loop $-1 $-1 $111 $65 #
plane-surface $-1 -38.797165908451134 21.913053411328487 100.08123959982603 0.64278761758704617 0 0.76604443648966558 0.76604443648966558 0 -0.64278761758704617 forward_v I I I I #
loop $-1 $-1 $172 $42 #
coedge $-1 $109 $109 $110 $173 reversed $66 $-1 #
coedge $-1 $110 $110 $109 $173 forward $68 $-1 #
coedge $-1 $111 $111 $69 $112 forward $106 $-1 #
edge $-1 $174 0 $174 6.2831853071796004 $111 $175 forward 7 unknown #
loop $-1 $-1 $118 $70 #
plane-surface $-1 -38.797165908451134 21.913053411328487 100.08123959982603 0.64278761758704617 0 0.76604443648966558 0.76604443648966558 0 -0.64278761758704617 forward_v I I I I #
loop $-1 $-1 $176 $45 #
coedge $-1 $116 $116 $117 $177 reversed $71 $-1 #
coedge $-1 $117 $117 $116 $177 forward $73 $-1 #
coedge $-1 $118 $118 $74 $119 forward $113 $-1 #
edge $-1 $178 0 $178 6.2831853071796004 $118 $179 forward 7 unknown #
face $-1 $180 $181 $18 $-1 $182 reversed single #
loop $-1 $-1 $183 $75 #
plane-surface $-1 -72.914822840052494 0 0 1 0 0 0 0 -1 forward_v I I I I #
coedge $-1 $184 $131 $183 $185 forward $76 $-1 #
coedge $-1 $186 $78 $184 $187 forward $49 $-1 #
coedge $-1 $78 $186 $188 $189 forward $49 $-1 #
coedge $-1 $134 $133 $78 $127 reversed $135 $-1 #
edge $-1 $190 -30.718042204990898 $191 30.718042204990898 $126 $192 forward 7 unknown #
coedge $-1 $80 $79 $193 $194 forward $31 $-1 #
coedge $-1 $195 $196 $79 $130 reversed $181 $-1 #
edge $-1 $137 -72.914822840052494 $197 72.914822840052494 $129 $198 forward 7 unknown #
coedge $-1 $123 $199 $80 $132 reversed $76 $-1 #
edge $-1 $200 -72.914822840052494 $136 72.914822840052494 $131 $201 forward 7 unknown #
coedge $-1 $126 $81 $199 $202 forward $135 $-1 #
coedge $-1 $81 $126 $195 $203 reversed $135 $-1 #
loop $-1 $-1 $133 $180 #
vertex $-1 $82 $204 #
vertex $-1 $82 $205 #
straight-curve $-1 72.914822840052494 0 11.678424602937518 0 1 0 I I #
face $-1 $206 $207 $19 $-1 $208 reversed single #
loop $-1 $-1 $209 $83 #
plane-surface $-1 -77.314552674654578 0 -6.6719387861103421 0 0 1 1 0 0 forward_v I I I I #
coedge $-1 $210 $86 $211 $212 reversed $53 $-1 #
coedge $-1 $86 $210 $148 $213 reversed $53 $-1 #
edge $-1 $150 1.0346316800382951 $214 6.6719387861103421 $86 $215 forward 7 unknown #
coedge $-1 $88 $87 $209 $216 forward $34 $-1 #
coedge $-1 $217 $218 $87 $147 forward $219 $-1 #
edge $-1 $220 -6.6719387861103421 $151 -1.0346316800382951 $146 $221 forward 7 unknown #
coedge $-1 $222 $89 $143 $213 forward $84 $-1 #
coedge $-1 $89 $222 $217 $223 forward $84 $-1 #
vertex $-1 $144 $224 #
vertex $-1 $223 $225 #
straight-curve $-1 -72.914822840052494 0 -1.0346316800382951 0 -1 0 I I #
face $-1 $-1 $226 $20 $-1 $227 reversed single #
loop $-1 $-1 $97 $91 #
plane-surface $-1 72.914822840052494 0 0 -1 0 0 0 0 1 forward_v I I I I #
coedge $-1 $161 $228 $229 $230 forward $92 $-1 #
coedge $-1 $229 $94 $96 $163 forward $57 $-1 #
coedge $-1 $94 $229 $231 $232 reversed $57 $-1 #
coedge $-1 $233 $97 $94 $160 forward $154 $-1 #
edge $-1 $166 2.1515379120018405 $234 19.761515499326656 $159 $235 forward 7 unknown #
coedge $-1 $236 $156 $95 $162 forward $92 $-1 #
edge $-1 $237 39.087041946975695 $165 45.444660534139182 $161 $238 forward 7 unknown #
edge $-1 $166 -145.82964568010499 $237 -137.53036396180582 $96 $239 forward 7 unknown #
coedge $-1 $97 $233 $236 $240 reversed $154 $-1 #
vertex $-1 $240 $241 #
vertex $-1 $98 $242 #
straight-curve $-1 72.914822840052494 13.108064617666084 105.89661417416482 0 0 -1 I I #
coedge $-1 $168 $168 $-1 $243 reversed $101 $-1 #
edge $-1 $244 0 $244 6.2831853071796004 $102 $245 forward 7 unknown #
vertex $-1 $105 $246 #
ellipse-curve $-1 69.736013546470772 16.630060135131043 9.0110868412428697 0.64278761758704617 0 0.76604443648966558 1.1490666547344983 0 -0.96418142638056925 1 I I #
coedge $-1 $172 $172 $-1 $247 reversed $108 $-1 #
edge $-1 $248 0 $248 6.2831853071796004 $109 $249 forward 7 unknown #
vertex $-1 $112 $250 #
ellipse-curve $-1 69.736013546470772 21.913053411328487 9.0110868412428697 0.64278761758704617 0 0.76604443648966558 1.1490666547344983 0 -0.96418142638056925 1 I I #
coedge $-1 $176 $176 $-1 $251 reversed $115 $-1 #
edge $-1 $252 0 $252 6.2831853071796004 $116 $253 forward 7 unknown #
vertex $-1 $119 $254 #
ellipse-curve $-1 69.736013546470772 27.196046687525932 9.0110868412428697 0.64278761758704617 0 0.76604443648966558 1.1490666547344983 0 -0.96418142638056925 1 I I #
face $-1 $-1 $135 $18 $-1 $255 reversed single #
loop $-1 $-1 $195 $120 #
plane-surface $-1 0 30.718042204990898 0 0 -1 0 0 0 -1 forward_v I I I I #
coedge $-1 $193 $256 $123 $185 reversed $121 $-1 #
coedge $-1 $199 $123 $124 $187 reversed $76 $-1 #
edge $-1 $200 -11.678424602937518 $257 11.678424602937518 $183 $258 forward 7 unknown #
coedge $-1 $125 $124 $256 $259 forward $49 $-1 #
edge $-1 $191 -72.914822840052494 $257 72.914822840052494 $184 $260 forward 7 unknown #
coedge $-1 $196 $195 $125 $189 reversed $181 $-1 #
edge $-1 $261 -72.914822840052494 $190 72.914822840052494 $188 $262 forward 7 unknown #
vertex $-1 $127 $263 #
vertex $-1 $202 $264 #
straight-curve $-1 72.914822840052494 0 -11.678424602937518 0 -1 0 I I #
coedge $-1 $265 $183 $128 $194 reversed $121 $-1 #
edge $-1 $197 -30.718042204990898 $200 30.718042204990898 $193 $266 forward 7 unknown #
coedge $-1 $188 $129 $134 $203 forward $181 $-1 #
coedge $-1 $129 $188 $265 $267 reversed $181 $-1 #
vertex $-1 $130 $268 #
straight-curve $-1 0 30.718042204990898 11.678424602937518 -1 0 0 I I #
coedge $-1 $131 $184 $133 $202 reversed $76 $-1 #
vertex $-1 $194 $269 #
straight-curve $-1 0 -30.718042204990898 11.678424602937518 1 0 0 I I #
edge $-1 $136 -11.678424602937518 $191 11.678424602937518 $133 $270 forward 7 unknown #
edge $-1 $137 -11.678424602937518 $190 11.678424602937518 $134 $271 forward 7 unknown #
point $-1 72.914822840052494 -30.718042204990898 11.678424602937518 #
point $-1 72.914822840052494 30.718042204990898 11.678424602937518 #
face $-1 $-1 $219 $19 $-1 $272 reversed single #
loop $-1 $-1 $273 $139 #
plane-surface $-1 -81.714282509256662 0 -3.8532852330743186 1 0 0 0 0 -1 forward_v I I I I #
coedge $-1 $274 $211 $145 $216 reversed $140 $-1 #
coedge $-1 $143 $142 $273 $275 reversed $53 $-1 #
coedge $-1 $209 $276 $142 $212 forward $140 $-1 #
edge $-1 $277 -4.3997298346020841 $214 4.3997298346020841 $142 $278 forward 7 unknown #
edge $-1 $150 -4.3997298346020841 $279 4.3997298346020841 $143 $280 forward 7 unknown #
vertex $-1 $144 $281 #
straight-curve $-1 -72.914822840052494 30.718042204990898 0 0 0 -1 I I #
edge $-1 $220 -30.718042204990898 $214 30.718042204990898 $209 $282 forward 7 unknown #
coedge $-1 $283 $146 $149 $223 reversed $219 $-1 #
coedge $-1 $146 $283 $274 $284 reversed $219 $-1 #
loop $-1 $-1 $146 $206 #
vertex $-1 $147 $285 #
straight-curve $-1 -72.914822840052494 -30.718042204990898 0 0 0 1 I I #
coedge $-1 $149 $148 $286 $287 forward $84 $-1 #
edge $-1 $288 -4.3997298346020841 $151 4.3997298346020841 $217 $289 forward 7 unknown #
point $-1 -72.914822840052494 30.718042204990898 -1.0346316800382951 #
point $-1 -72.914822840052494 -30.718042204990898 -1.0346316800382951 #
loop $-1 $-1 $231 $153 #
plane-surface $-1 0 30.718042204990898 0 0 -1 0 0 0 -1 forward_v I I I I #
coedge $-1 $156 $236 $290 $291 forward $92 $-1 #
coedge $-1 $158 $157 $156 $230 reversed $57 $-1 #
edge $-1 $292 -19.761515499326649 $237 -2.1515379120018405 $156 $293 forward 7 unknown #
coedge $-1 $290 $294 $158 $232 forward $226 $-1 #
edge $-1 $234 -98.803978348471986 $292 -90.504696630172788 $231 $295 forward 7 unknown #
coedge $-1 $164 $159 $294 $296 reversed $154 $-1 #
vertex $-1 $160 $297 #
straight-curve $-1 72.914822840052494 10.956526705664244 6.3437490795482674 0 1 0 I I #
coedge $-1 $228 $161 $164 $240 forward $92 $-1 #
vertex $-1 $162 $298 #
straight-curve $-1 27.470162305913313 13.108064617666084 11.678424602937525 1 0 0 I I #
straight-curve $-1 -38.797165908451134 13.108064617666084 100.08123959982603 -0.76604443648966558 0 0.64278761758704617 I I #
edge $-1 $165 13.108064617666084 $299 30.718042204990898 $164 $300 forward 7 unknown #
point $-1 72.914822840052494 13.108064617666084 11.678424602937518 #
point $-1 72.91482284005248 13.108064617666084 6.3437490795482745 #
edge $-1 $301 1 $301 0 $168 $-1 forward 7 unknown #
vertex $-1 $169 $302 #
ellipse-curve $-1 66.36613075300842 16.630060135131043 4.9950169996291232 0.64278761758704617 0 0.76604443648966558 1.1490666547344983 0 -0.96418142638056925 1 I I #
point $-1 70.885080201205298 16.630060135131043 8.0469054148623407 #
edge $-1 $303 1 $303 0 $172 $-1 forward 7 unknown #
vertex $-1 $173 $304 #
ellipse-curve $-1 66.36613075300842 21.913053411328487 4.9950169996291232 0.64278761758704617 0 0.76604443648966558 1.1490666547344983 0 -0.96418142638056925 1 I I #
point $-1 70.885080201205298 21.913053411328487 8.0469054148623407 #
edge $-1 $305 1 $305 0 $176 $-1 forward 7 unknown #
vertex $-1 $177 $306 #
ellipse-curve $-1 66.36613075300842 27.196046687525932 4.9950169996291232 0.64278761758704617 0 0.76604443648966558 1.1490666547344983 0 -0.96418142638056925 1 I I #
point $-1 70.885080201205298 27.196046687525932 8.0469054148623407 #
plane-surface $-1 72.914822840052494 0 0 -1 0 0 0 0 1 forward_v I I I I #
coedge $-1 $183 $265 $186 $259 reversed $121 $-1 #
vertex $-1 $259 $307 #
straight-curve $-1 -72.914822840052494 -30.718042204990898 0 0 0 -1 I I #
edge $-1 $257 -30.718042204990898 $261 30.718042204990898 $256 $308 forward 7 unknown #
straight-curve $-1 0 -30.718042204990898 -11.678424602937518 -1 0 0 I I #
vertex $-1 $189 $309 #
straight-curve $-1 0 30.718042204990898 -11.678424602937518 1 0 0 I I #
point $-1 72.914822840052494 30.718042204990898 -11.678424602937518 #
point $-1 72.914822840052494 -30.718042204990898 -11.678424602937518 #
coedge $-1 $256 $193 $196 $267 forward $121 $-1 #
straight-curve $-1 -72.914822840052494 0 11.678424602937518 0 -1 0 I I #
edge $-1 $197 -11.678424602937518 $261 11.678424602937518 $196 $310 forward 7 unknown #
point $-1 -72.914822840052494 30.718042204990898 11.678424602937518 #
point $-1 -72.914822840052494 -30.718042204990898 11.678424602937518 #
straight-curve $-1 72.914822840052494 -30.718042204990898 0 0 0 -1 I I #
straight-curve $-1 72.914822840052494 30.718042204990898 0 0 0 -1 I I #
plane-surface $-1 0 -30.718042204990898 0 0 1 0 0 0 1 forward_v I I I I #
coedge $-1 $311 $286 $210 $275 forward $207 $-1 #
coedge $-1 $276 $209 $218 $284 forward $140 $-1 #
edge $-1 $279 -2.8186535530360235 $277 2.8186535530360235 $210 $312 forward 7 unknown #
coedge $-1 $211 $274 $311 $313 forward $140 $-1 #
vertex $-1 $212 $314 #
straight-curve $-1 -77.314552674654578 30.718042204990898 -6.6719387861103421 1 0 0 I I #
vertex $-1 $213 $315 #
straight-curve $-1 -77.314552674654578 30.718042204990898 -1.0346316800382951 -1 0 0 I I #
point $-1 -72.914822840052494 30.718042204990898 -6.6719387861103421 #
straight-curve $-1 -72.914822840052494 0 -6.6719387861103421 0 1 0 I I #
coedge $-1 $218 $217 $316 $317 forward $219 $-1 #
edge $-1 $220 -4.3997298346020841 $318 4.3997298346020841 $218 $319 forward 7 unknown #
point $-1 -72.914822840052494 -30.718042204990898 -6.6719387861103421 #
coedge $-1 $273 $316 $222 $287 reversed $207 $-1 #
edge $-1 $279 -30.718042204990898 $288 30.718042204990898 $286 $320 forward 7 unknown #
vertex $-1 $287 $321 #
straight-curve $-1 -77.314552674654578 -30.718042204990898 -1.0346316800382951 1 0 0 I I #
coedge $-1 $294 $231 $228 $291 reversed $226 $-1 #
edge $-1 $299 -72.914822840052494 $292 -66.557204252889008 $290 $322 forward 7 unknown #
vertex $-1 $232 $323 #
straight-curve $-1 66.557204252889008 10.956526705664244 11.678424602937532 0 -1 0 I I #
coedge $-1 $231 $290 $233 $296 forward $226 $-1 #
straight-curve $-1 -2.7734150768398464 30.718042204990898 69.853722930284661 -0.76604443648966558 0 0.64278761758704617 I I #
edge $-1 $299 -11.678424602937518 $234 -6.3437490795482629 $233 $324 forward 7 unknown #
point $-1 72.914822840052494 30.718042204990898 6.3437490795482629 #
point $-1 66.557204252889008 13.108064617666084 11.678424602937525 #
vertex $-1 $240 $325 #
straight-curve $-1 72.914822840052494 0 11.678424602937518 0 1 0 I I #
vertex $-1 $243 $326 #
point $-1 67.515197407742917 16.630060135131043 4.0308355732485532 #
vertex $-1 $247 $327 #
point $-1 67.515197407742917 21.913053411328487 4.0308355732485532 #
vertex $-1 $251 $328 #
point $-1 67.515197407742917 27.196046687525932 4.0308355732485532 #
point $-1 -72.914822840052494 -30.718042204990898 -11.678424602937518 #
straight-curve $-1 -72.914822840052494 0 -11.678424602937518 0 1 0 I I #
point $-1 -72.914822840052494 30.718042204990898 -11.678424602937518 #
straight-curve $-1 -72.914822840052494 30.718042204990898 0 0 0 -1 I I #
coedge $-1 $316 $273 $276 $313 reversed $207 $-1 #
straight-curve $-1 -81.714282509256662 30.718042204990898 -3.8532852330743186 0 0 -1 I I #
edge $-1 $318 -30.718042204990898 $277 30.718042204990898 $311 $329 forward 7 unknown #
point $-1 -81.714282509256662 30.718042204990898 -6.6719387861103421 #
point $-1 -81.714282509256662 30.718042204990898 -1.0346316800382951 #
coedge $-1 $286 $311 $283 $317 reversed $207 $-1 #
edge $-1 $288 -2.8186535530360235 $318 2.8186535530360235 $316 $330 forward 7 unknown #
vertex $-1 $313 $331 #
straight-curve $-1 -77.314552674654578 -30.718042204990898 -6.6719387861103421 -1 0 0 I I #
straight-curve $-1 -81.714282509256662 0 -1.0346316800382951 0 -1 0 I I #
point $-1 -81.714282509256662 -30.718042204990898 -1.0346316800382951 #
straight-curve $-1 0 30.718042204990898 11.678424602937518 -1 0 0 I I #
point $-1 66.557204252889008 30.718042204990891 11.678424602937525 #
straight-curve $-1 72.914822840052494 30.718042204990898 0 0 0 -1 I I #
point $-1 72.914822840052494 30.718042204990898 11.678424602937518 #
point $-1 65.401949326627843 16.630060135131043 3.8459503448946246 #
point $-1 65.401949326627843 21.913053411328487 3.8459503448946246 #
point $-1 65.401949326627843 27.196046687525932 3.8459503448946246 #
straight-curve $-1 -81.714282509256662 0 -6.6719387861103421 0 1 0 I I #
straight-curve $-1 -81.714282509256662 -30.718042204990898 -3.8532852330743186 0 0 -1 I I #
point $-1 -81.714282509256662 -30.718042204990898 -6.6719387861103421 #
End-of-ACIS-data 