500 0 5 0           
7 Unknown 11 ACIS 5.0 NT 24 Thu Mar 25 16:29:42 1999 
-1 9.9999999999999995e-007 1e-010 
body $-1 $5 $-1 $6 #
body $-1 $7 $-1 $8 #
body $-1 $9 $-1 $10 #
body $-1 $11 $-1 $12 #
body $-1 $13 $-1 $14 #
lump $-1 $-1 $15 $0 #
transform $-1 1 0 0 0 1 0 0 0 1 55.00045777764214 26.87564713464581 9.0069958020081025 1 rotate no_reflect no_shear #
lump $-1 $-1 $16 $1 #
transform $-1 1 0 0 0 1 0 0 0 1 55.00045777764214 26.87564713464581 9.0069958020081025 1 rotate no_reflect no_shear #
lump $-1 $-1 $17 $2 #
transform $-1 1 0 0 0 1 0 0 0 1 55.00045777764214 26.87564713464581 9.0069958020081025 1 rotate no_reflect no_shear #
lump $-1 $-1 $18 $3 #
transform $-1 1 0 0 0 1 0 0 0 1 55.00045777764214 26.87564713464581 9.0069958020081025 1 rotate no_reflect no_shear #
lump $-1 $-1 $19 $4 #
transform $-1 1 0 0 0 1 0 0 0 1 55.00045777764214 26.87564713464581 9.0069958020081025 1 rotate no_reflect no_shear #
shell $-1 $-1 $-1 $20 $-1 $5 #
shell $-1 $-1 $-1 $21 $-1 $7 #
shell $-1 $-1 $-1 $22 $-1 $9 #
shell $-1 $-1 $-1 $23 $-1 $11 #
shell $-1 $-1 $-1 $24 $-1 $13 #
face $-1 $25 $26 $15 $-1 $27 forward single #
face $-1 $28 $29 $16 $-1 $30 forward single #
face $-1 $31 $32 $17 $-1 $33 forward single #
face $-1 $34 $35 $18 $-1 $36 forward single #
face $-1 $37 $38 $19 $-1 $39 reversed single #
face $-1 $40 $41 $15 $-1 $42 reversed single #
loop $-1 $-1 $43 $20 #
plane-surface $-1 0 0 9.0069958020081025 0 0 1 1 0 0 forward_v I I I I #
face $-1 $44 $45 $16 $-1 $46 forward single #
loop $-1 $-1 $47 $21 #
plane-surface $-1 -41.934252758817912 -23.259929449766076 0 1 0 0 0 0 -1 forward_v I I I I #
face $-1 $48 $49 $17 $-1 $50 forward single #
loop $-1 $-1 $51 $22 #
plane-surface $-1 0 22.239527838195279 6.0069958020081025 0 0 1 1 0 0 forward_v I I I I #
face $-1 $52 $53 $18 $-1 $54 forward single #
loop $-1 $-1 $55 $23 #
plane-surface $-1 -132.78285200598665 17.603408541744731 78.946136719521661 0 -1 0 0.70710678939079041 0 -0.70710677298230451 forward_v I I I I #
face $-1 $56 $57 $19 $-1 $58 reversed single #
loop $-1 $59 $60 $24 #
cone-surface $-1 -50.012140364868337 12.708391596436414 4.0186783229852638 0.70710678939079041 0 -0.70710677298230451 0.70710677298230451 0 0.70710678939079041 1 I I 0 1 1 forward I I I I #
face $-1 $61 $62 $15 $-1 $63 reversed single #
loop $-1 $-1 $64 $25 #
plane-surface $-1 0 0 -9.0069958020081025 0 0 1 1 0 0 forward_v I I I I #
coedge $-1 $65 $66 $67 $68 forward $26 $-1 #
face $-1 $69 $70 $16 $-1 $71 forward single #
loop $-1 $-1 $72 $28 #
plane-surface $-1 -39.460359466221924 -19.644211764886343 0 0 -1 0 0 0 -1 forward_v I I I I #
coedge $-1 $73 $74 $75 $76 reversed $29 $-1 #
face $-1 $77 $78 $17 $-1 $79 forward single #
loop $-1 $-1 $80 $31 #
plane-surface $-1 0 17.603408541744745 7.5069958020081025 0 1 0 0 0 1 forward_v I I I I #
coedge $-1 $81 $82 $83 $84 reversed $32 $-1 #
face $-1 $85 $86 $18 $-1 $87 forward single #
loop $-1 $-1 $88 $34 #
plane-surface $-1 -132.78285200598665 7.8133746511280826 78.946136719521661 0 1 0 -0.70710678939079041 0 0.70710677298230451 forward_v I I I I #
coedge $-1 $89 $90 $91 $92 forward $35 $-1 #
face $-1 $93 $94 $19 $-1 $95 forward single #
loop $-1 $96 $97 $37 #
cone-surface $-1 -48.591895219338667 12.708391596436414 2.5984332104125265 0.70710678939079041 0 -0.70710677298230451 0.35355338649115226 0 0.35355339469539521 1 I I -0.70710678118654746 0.70710678118654746 0.5 forward I I I I #
loop $-1 $-1 $98 $24 #
coedge $-1 $60 $60 $99 $100 reversed $38 $-1 #
face $-1 $101 $102 $15 $-1 $103 reversed single #
loop $-1 $-1 $104 $40 #
plane-surface $-1 0 -26.87564713464581 0 0 1 0 0 0 1 forward_v I I I I #
coedge $-1 $105 $106 $107 $108 forward $41 $-1 #
coedge $-1 $109 $43 $110 $111 forward $26 $-1 #
coedge $-1 $43 $109 $112 $113 forward $26 $-1 #
coedge $-1 $114 $115 $43 $68 reversed $116 $-1 #
edge $-1 $117 -26.87564713464581 $118 26.87564713464581 $67 $119 forward 7 unknown #
face $-1 $120 $121 $16 $-1 $122 forward single #
loop $-1 $-1 $123 $44 #
plane-surface $-1 -36.986466173625935 -23.259929449766076 0 -1 0 0 0 0 1 forward_v I I I I #
coedge $-1 $124 $125 $126 $127 reversed $45 $-1 #
coedge $-1 $128 $47 $129 $130 reversed $29 $-1 #
coedge $-1 $47 $128 $131 $132 reversed $29 $-1 #
coedge $-1 $125 $124 $47 $76 forward $45 $-1 #
edge $-1 $133 -9.0069958020081025 $134 9.0069958020081025 $75 $135 forward 7 unknown #
face $-1 $136 $137 $17 $-1 $138 reversed single #
loop $-1 $-1 $139 $48 #
plane-surface $-1 0 0 9.0069958020081025 0 0 1 1 0 0 forward_v I I I I #
coedge $-1 $140 $141 $142 $143 reversed $49 $-1 #
coedge $-1 $144 $51 $145 $146 reversed $32 $-1 #
coedge $-1 $51 $144 $141 $147 reversed $32 $-1 #
coedge $-1 $148 $149 $51 $84 forward $150 $-1 #
edge $-1 $151 -15.755883215548174 $152 -6.4836446226471054 $83 $153 forward 7 unknown #
face $-1 $154 $155 $18 $-1 $156 forward single #
loop $-1 $-1 $157 $52 #
plane-surface $-1 -55.000457777642126 12.708391596436407 1.1637442961256141 -0.70710678939079041 0 0.70710677298230451 0.70710677298230451 0 0.70710678939079041 forward_v I I I I #
coedge $-1 $158 $159 $160 $161 reversed $53 $-1 #
coedge $-1 $90 $55 $162 $163 reversed $35 $-1 #
coedge $-1 $55 $89 $164 $165 forward $35 $-1 #
coedge $-1 $166 $167 $55 $92 reversed $168 $-1 #
edge $-1 $169 50.157206384147784 $170 55.00045777764214 $91 $171 forward 7 unknown #
face $-1 $172 $173 $19 $-1 $174 forward single #
loop $-1 $-1 $175 $56 #
plane-surface $-1 -132.78285200598665 17.603408541744731 78.946136719521661 0 -1 0 0.70710678939079041 0 -0.70710677298230451 forward_v I I I I #
loop $-1 $-1 $176 $37 #
coedge $-1 $97 $97 $98 $177 forward $57 $-1 #
coedge $-1 $98 $98 $97 $177 reversed $59 $-1 #
coedge $-1 $99 $99 $60 $100 forward $178 $-1 #
edge $-1 $179 0 $179 6.2831853071796004 $99 $180 forward 7 unknown #
face $-1 $181 $182 $15 $-1 $183 reversed single #
loop $-1 $-1 $184 $61 #
plane-surface $-1 -55.00045777764214 0 0 1 0 0 0 0 -1 forward_v I I I I #
coedge $-1 $185 $112 $186 $187 forward $62 $-1 #
coedge $-1 $188 $64 $185 $189 forward $41 $-1 #
coedge $-1 $64 $188 $190 $191 forward $41 $-1 #
coedge $-1 $115 $114 $64 $108 reversed $116 $-1 #
edge $-1 $192 -26.87564713464581 $193 26.87564713464581 $107 $194 forward 7 unknown #
coedge $-1 $66 $65 $195 $196 forward $26 $-1 #
coedge $-1 $197 $198 $65 $111 reversed $182 $-1 #
edge $-1 $118 -55.00045777764214 $199 55.00045777764214 $110 $200 forward 7 unknown #
coedge $-1 $104 $201 $66 $113 reversed $62 $-1 #
edge $-1 $202 -55.00045777764214 $117 55.00045777764214 $112 $203 forward 7 unknown #
coedge $-1 $107 $67 $201 $204 forward $116 $-1 #
coedge $-1 $67 $107 $197 $205 reversed $116 $-1 #
loop $-1 $-1 $114 $181 #
vertex $-1 $68 $206 #
vertex $-1 $68 $207 #
straight-curve $-1 55.00045777764214 0 9.0069958020081025 0 1 0 I I #
face $-1 $208 $209 $16 $-1 $210 reversed single #
loop $-1 $-1 $129 $69 #
plane-surface $-1 0 0 9.0069958020081025 0 0 1 1 0 0 forward_v I I I I #
coedge $-1 $211 $212 $213 $214 reversed $70 $-1 #
coedge $-1 $75 $72 $215 $216 reversed $45 $-1 #
coedge $-1 $72 $75 $217 $218 reversed $45 $-1 #
coedge $-1 $212 $211 $72 $127 forward $70 $-1 #
edge $-1 $219 -9.0069958020081025 $220 9.0069958020081025 $126 $221 forward 7 unknown #
coedge $-1 $74 $73 $222 $223 reversed $29 $-1 #
coedge $-1 $215 $224 $73 $130 forward $121 $-1 #
edge $-1 $225 -15.245682409762772 $133 -8.0142470400033048 $129 $226 forward 7 unknown #
coedge $-1 $227 $217 $74 $132 forward $228 $-1 #
edge $-1 $134 8.0142470400033048 $229 15.245682409762772 $131 $230 forward 7 unknown #
vertex $-1 $130 $231 #
vertex $-1 $132 $232 #
straight-curve $-1 -41.934252758817912 -19.644211764886343 0 0 0 -1 I I #
face $-1 $233 $234 $17 $-1 $235 forward single #
loop $-1 $-1 $142 $77 #
plane-surface $-1 -55.00045777764214 0 0 1 0 0 0 0 -1 forward_v I I I I #
coedge $-1 $236 $237 $140 $238 forward $78 $-1 #
coedge $-1 $239 $80 $139 $238 reversed $49 $-1 #
coedge $-1 $80 $239 $82 $147 forward $49 $-1 #
coedge $-1 $240 $241 $80 $143 forward $137 $-1 #
edge $-1 $242 -5.2534979010040512 $243 -2.2534979010040512 $142 $244 forward 7 unknown #
coedge $-1 $82 $81 $240 $245 reversed $32 $-1 #
coedge $-1 $246 $247 $81 $146 forward $248 $-1 #
edge $-1 $249 -55.00045777764214 $151 55.00045777764214 $145 $250 forward 7 unknown #
edge $-1 $152 -55.00045777764214 $243 55.00045777764214 $141 $251 forward 7 unknown #
coedge $-1 $252 $83 $239 $253 forward $150 $-1 #
coedge $-1 $83 $254 $246 $255 reversed $150 $-1 #
loop $-1 $-1 $148 $256 #
vertex $-1 $255 $257 #
vertex $-1 $84 $258 #
straight-curve $-1 55.00045777764214 11.11976391909764 6.0069958020081025 0 -1 0 I I #
face $-1 $259 $168 $18 $-1 $260 forward single #
loop $-1 $-1 $261 $85 #
plane-surface $-1 0 0 9.0069958020081025 0 0 1 1 0 0 forward_v I I I I #
coedge $-1 $262 $263 $261 $264 reversed $86 $-1 #
coedge $-1 $159 $88 $263 $265 forward $53 $-1 #
coedge $-1 $88 $158 $266 $267 reversed $53 $-1 #
coedge $-1 $268 $261 $88 $161 forward $155 $-1 #
edge $-1 $269 -19.234219549230232 $270 -11.390968225351187 $160 $271 forward 7 unknown #
coedge $-1 $272 $273 $89 $163 forward $274 $-1 #
edge $-1 $275 -38.309324063635231 $170 -33.466072557752724 $162 $276 forward 7 unknown #
coedge $-1 $277 $262 $90 $165 reversed $86 $-1 #
edge $-1 $275 -2.0097183471152325e-014 $169 6.8493918861325129 $90 $278 forward 7 unknown #
coedge $-1 $279 $91 $280 $281 reversed $168 $-1 #
coedge $-1 $91 $282 $272 $283 reversed $168 $-1 #
loop $-1 $-1 $279 $154 #
vertex $-1 $92 $284 #
vertex $-1 $283 $285 #
straight-curve $-1 0 17.603408541744745 6.0069958020081025 -1 0 0 I I #
face $-1 $286 $178 $19 $-1 $287 forward single #
loop $-1 $-1 $288 $93 #
plane-surface $-1 -132.78285200598665 7.8133746511280826 78.946136719521661 0 1 0 -0.70710678939079041 0 0.70710677298230451 forward_v I I I I #
coedge $-1 $289 $290 $291 $292 forward $94 $-1 #
coedge $-1 $176 $176 $-1 $293 forward $96 $-1 #
edge $-1 $294 0 $294 6.2831853071796004 $97 $295 forward 7 unknown #
loop $-1 $296 $99 $172 #
vertex $-1 $100 $297 #
ellipse-curve $-1 -51.078832115702618 12.708391596436414 5.0853700490668521 0.70710678939079041 0 -0.70710677298230451 0.70710677298230451 0 0.70710678939079041 1 I I #
face $-1 $-1 $116 $15 $-1 $298 reversed single #
loop $-1 $-1 $197 $101 #
plane-surface $-1 0 26.87564713464581 0 0 -1 0 0 0 -1 forward_v I I I I #
coedge $-1 $299 $195 $198 $300 forward $102 $-1 #
coedge $-1 $201 $104 $105 $189 reversed $62 $-1 #
coedge $-1 $195 $299 $104 $187 reversed $102 $-1 #
edge $-1 $202 -9.0069958020081025 $301 9.0069958020081025 $186 $302 forward 7 unknown #
coedge $-1 $106 $105 $299 $303 forward $41 $-1 #
edge $-1 $193 -55.00045777764214 $301 55.00045777764214 $185 $304 forward 7 unknown #
coedge $-1 $198 $197 $106 $191 reversed $182 $-1 #
edge $-1 $305 -55.00045777764214 $192 55.00045777764214 $190 $306 forward 7 unknown #
vertex $-1 $108 $307 #
vertex $-1 $204 $308 #
straight-curve $-1 55.00045777764214 0 -9.0069958020081025 0 -1 0 I I #
coedge $-1 $184 $186 $109 $196 reversed $102 $-1 #
edge $-1 $199 -26.87564713464581 $202 26.87564713464581 $195 $309 forward 7 unknown #
coedge $-1 $190 $110 $115 $205 forward $182 $-1 #
coedge $-1 $110 $190 $184 $300 reversed $182 $-1 #
vertex $-1 $111 $310 #
straight-curve $-1 0 26.87564713464581 9.0069958020081025 -1 0 0 I I #
coedge $-1 $112 $185 $114 $204 reversed $62 $-1 #
vertex $-1 $196 $311 #
straight-curve $-1 0 -26.87564713464581 9.0069958020081025 1 0 0 I I #
edge $-1 $117 -9.0069958020081025 $193 9.0069958020081025 $114 $312 forward 7 unknown #
edge $-1 $118 -9.0069958020081025 $192 9.0069958020081025 $115 $313 forward 7 unknown #
point $-1 55.00045777764214 -26.87564713464581 9.0069958020081025 #
point $-1 55.00045777764214 26.87564713464581 9.0069958020081025 #
face $-1 $314 $228 $16 $-1 $315 reversed single #
loop $-1 $-1 $213 $120 #
plane-surface $-1 0 -26.87564713464581 0 0 1 0 0 0 1 forward_v I I I I #
coedge $-1 $126 $123 $316 $317 reversed $70 $-1 #
coedge $-1 $123 $126 $318 $319 reversed $70 $-1 #
coedge $-1 $320 $321 $123 $214 forward $209 $-1 #
edge $-1 $322 -9.0069958020081025 $323 9.0069958020081025 $213 $324 forward 7 unknown #
coedge $-1 $316 $129 $124 $216 forward $121 $-1 #
edge $-1 $133 -22.204073025706951 $219 -17.256286440514973 $215 $325 forward 7 unknown #
coedge $-1 $131 $318 $125 $218 forward $228 $-1 #
edge $-1 $220 17.256286440514973 $134 22.204073025706951 $217 $326 forward 7 unknown #
vertex $-1 $216 $327 #
vertex $-1 $218 $328 #
straight-curve $-1 -36.986466173625935 -19.644211764886343 0 0 0 -1 I I #
coedge $-1 $329 $330 $128 $223 forward $331 $-1 #
edge $-1 $229 -9.0069958020081025 $225 9.0069958020081025 $222 $332 forward 7 unknown #
coedge $-1 $129 $333 $329 $334 forward $121 $-1 #
vertex $-1 $223 $335 #
straight-curve $-1 -41.934252758817912 -11.629964724883038 9.0069958020081025 0 1 0 I I #
coedge $-1 $336 $131 $330 $337 forward $228 $-1 #
loop $-1 $-1 $131 $208 #
vertex $-1 $337 $338 #
straight-curve $-1 -41.934252758817912 -11.629964724883038 -9.0069958020081025 0 -1 0 I I #
point $-1 -41.934252758817912 -19.644211764886343 9.0069958020081025 #
point $-1 -41.934252758817912 -19.644211764886343 -9.0069958020081025 #
face $-1 $339 $340 $17 $-1 $341 forward single #
loop $-1 $-1 $342 $136 #
plane-surface $-1 -41.934252758817912 -23.259929449766076 0 1 0 0 0 0 -1 forward_v I I I I #
coedge $-1 $343 $139 $241 $344 forward $78 $-1 #
coedge $-1 $139 $345 $252 $346 forward $78 $-1 #
edge $-1 $347 -55.00045777764214 $242 55.00045777764214 $139 $348 forward 7 unknown #
coedge $-1 $141 $140 $148 $253 reversed $49 $-1 #
coedge $-1 $349 $142 $144 $245 forward $137 $-1 #
coedge $-1 $142 $350 $236 $344 reversed $137 $-1 #
vertex $-1 $344 $351 #
vertex $-1 $245 $352 #
straight-curve $-1 -55.00045777764214 17.603408541744745 3.7534979010040512 0 0 -1 I I #
edge $-1 $243 6.4836446226471054 $249 15.755883215548174 $240 $353 forward 7 unknown #
coedge $-1 $354 $145 $149 $255 forward $248 $-1 #
coedge $-1 $145 $354 $349 $355 reversed $248 $-1 #
loop $-1 $-1 $145 $356 #
vertex $-1 $355 $357 #
straight-curve $-1 0 26.87564713464581 6.0069958020081025 1 0 0 I I #
straight-curve $-1 0 17.603408541744745 6.0069958020081025 -1 0 0 I I #
coedge $-1 $358 $148 $237 $346 reversed $150 $-1 #
edge $-1 $152 2.2534979010040512 $347 5.2534979010040512 $148 $359 forward 7 unknown #
coedge $-1 $149 $358 $360 $361 reversed $150 $-1 #
edge $-1 $151 -6.0069958020081025 $362 9.0069958020081025 $149 $363 forward 7 unknown #
face $-1 $-1 $150 $17 $-1 $364 reversed single #
point $-1 55.00045777764214 26.875647134645813 6.0069958020081025 #
point $-1 55.00045777764214 17.603408541744745 6.0069958020081025 #
face $-1 $365 $366 $18 $-1 $367 forward single #
plane-surface $-1 0 22.239527838195279 6.0069958020081025 0 0 1 1 0 0 forward_v I I I I #
coedge $-1 $160 $368 $157 $264 forward $155 $-1 #
coedge $-1 $164 $157 $369 $370 reversed $86 $-1 #
coedge $-1 $157 $277 $158 $265 reversed $86 $-1 #
edge $-1 $371 -11.249212743526542 $269 -1.4591788529098793 $261 $372 forward 7 unknown #
edge $-1 $269 -11.09203252402634 $373 2.0097183471152325e-014 $158 $374 forward 7 unknown #
coedge $-1 $273 $375 $159 $267 forward $274 $-1 #
edge $-1 $270 30.466072557752728 $373 38.309324063635231 $266 $376 forward 7 unknown #
coedge $-1 $377 $160 $375 $378 forward $155 $-1 #
vertex $-1 $264 $379 #
vertex $-1 $378 $380 #
straight-curve $-1 -66.391426002993327 7.8133746511280826 9.006995802008106 -1 0 0 I I #
coedge $-1 $381 $162 $167 $283 forward $274 $-1 #
coedge $-1 $162 $266 $277 $382 forward $274 $-1 #
loop $-1 $-1 $162 $365 #
vertex $-1 $382 $383 #
straight-curve $-1 -55.00045777764214 17.603408541744731 39.473068359760831 0 0 1 I I #
coedge $-1 $263 $164 $273 $382 reversed $86 $-1 #
straight-curve $-1 -55.000457777642126 17.603408541744731 1.1637442961256141 0.70710677298230451 0 0.70710678939079041 I I #
coedge $-1 $282 $166 $384 $385 reversed $168 $-1 #
coedge $-1 $369 $386 $166 $281 forward $366 $-1 #
edge $-1 $387 -55.00045777764214 $169 50.157206384147784 $280 $171 forward 7 unknown #
coedge $-1 $167 $279 $388 $389 reversed $168 $-1 #
edge $-1 $170 6.4836446226471054 $390 15.755883215548174 $272 $391 forward 7 unknown #
point $-1 -50.157206384147784 17.603408541744731 6.0069958020081025 #
point $-1 -55.00045777764214 17.603408541744745 6.0069958020081025 #
face $-1 $392 $393 $19 $-1 $394 forward single #
plane-surface $-1 -55.000457777642126 12.708391596436407 1.1637442961256141 -0.70710678939079041 0 0.70710677298230451 0.70710677298230451 0 0.70710678939079041 forward_v I I I I #
coedge $-1 $395 $396 $397 $398 reversed $173 $-1 #
coedge $-1 $290 $175 $399 $400 reversed $94 $-1 #
coedge $-1 $175 $289 $401 $402 forward $94 $-1 #
coedge $-1 $403 $404 $175 $292 reversed $405 $-1 #
edge $-1 $406 50.157206384147784 $407 55.00045777764214 $291 $408 forward 7 unknown #
edge $-1 $409 1 $409 0 $176 $-1 forward 7 unknown #
vertex $-1 $177 $410 #
ellipse-curve $-1 -48.945448614034063 12.708391596436414 2.9519865969036787 -0.70710678939079041 0 0.70710677298230451 0.70710677298230451 0 0.70710678939079041 1 I I #
loop $-1 $-1 $411 $172 #
point $-1 -50.37172534272031 12.708391596436414 5.7924768384576399 #
plane-surface $-1 55.00045777764214 0 0 -1 0 0 0 0 1 forward_v I I I I #
coedge $-1 $186 $184 $188 $303 reversed $102 $-1 #
edge $-1 $199 -9.0069958020081025 $305 9.0069958020081025 $198 $412 forward 7 unknown #
vertex $-1 $303 $413 #
straight-curve $-1 -55.00045777764214 -26.87564713464581 0 0 0 -1 I I #
edge $-1 $301 -26.87564713464581 $305 26.87564713464581 $299 $414 forward 7 unknown #
straight-curve $-1 0 -26.87564713464581 -9.0069958020081025 -1 0 0 I I #
vertex $-1 $191 $415 #
straight-curve $-1 0 26.87564713464581 -9.0069958020081025 1 0 0 I I #
point $-1 55.00045777764214 26.87564713464581 -9.0069958020081025 #
point $-1 55.00045777764214 -26.87564713464581 -9.0069958020081025 #
straight-curve $-1 -55.00045777764214 0 9.0069958020081025 0 -1 0 I I #
point $-1 -55.00045777764214 26.87564713464581 9.0069958020081025 #
point $-1 -55.00045777764214 -26.87564713464581 9.0069958020081025 #
straight-curve $-1 55.00045777764214 -26.87564713464581 0 0 0 -1 I I #
straight-curve $-1 55.00045777764214 26.87564713464581 0 0 0 -1 I I #
face $-1 $416 $331 $16 $-1 $210 reversed single #
plane-surface $-1 0 0 -9.0069958020081025 0 0 1 1 0 0 forward_v I I I I #
coedge $-1 $417 $215 $211 $317 forward $121 $-1 #
edge $-1 $219 8.0142470400033048 $322 15.245682409762772 $316 $418 forward 7 unknown #
coedge $-1 $217 $419 $212 $319 forward $228 $-1 #
edge $-1 $323 -15.245682409762772 $220 -8.0142470400033048 $318 $420 forward 7 unknown #
coedge $-1 $421 $213 $419 $422 reversed $209 $-1 #
coedge $-1 $213 $421 $417 $423 reversed $209 $-1 #
vertex $-1 $423 $424 #
vertex $-1 $214 $425 #
straight-curve $-1 -36.986466173625935 -26.87564713464581 0 0 0 -1 I I #
straight-curve $-1 -19.730179733110962 -19.644211764886343 9.0069958020081025 1 0 0 I I #
straight-curve $-1 -19.730179733110962 -19.644211764886343 -9.0069958020081025 -1 0 0 I I #
point $-1 -36.986466173625935 -19.644211764886343 9.0069958020081025 #
point $-1 -36.986466173625935 -19.644211764886343 -9.0069958020081025 #
coedge $-1 $426 $222 $224 $334 reversed $331 $-1 #
coedge $-1 $222 $426 $227 $337 reversed $331 $-1 #
loop $-1 $-1 $222 $314 #
straight-curve $-1 -41.934252758817912 -26.87564713464581 0 0 0 1 I I #
coedge $-1 $224 $427 $428 $429 forward $121 $-1 #
edge $-1 $430 -55.00045777764214 $225 -41.934252758817912 $329 $431 forward 7 unknown #
point $-1 -41.934252758817912 -26.87564713464581 9.0069958020081025 #
coedge $-1 $432 $227 $433 $434 forward $228 $-1 #
edge $-1 $229 41.934252758817912 $435 55.00045777764214 $330 $436 forward 7 unknown #
point $-1 -41.934252758817912 -26.87564713464581 -9.0069958020081025 #
face $-1 $437 $438 $17 $-1 $439 forward single #
loop $-1 $-1 $440 $233 #
plane-surface $-1 -39.460359466221924 -19.644211764886343 0 0 -1 0 0 0 -1 forward_v I I I I #
coedge $-1 $441 $442 $443 $444 reversed $234 $-1 #
coedge $-1 $445 $236 $446 $447 forward $78 $-1 #
edge $-1 $242 -17.603408541744745 $448 26.87564713464581 $241 $449 forward 7 unknown #
coedge $-1 $237 $450 $451 $452 forward $78 $-1 #
edge $-1 $453 -26.87564713464581 $347 17.603408541744745 $252 $454 forward 7 unknown #
vertex $-1 $238 $455 #
straight-curve $-1 0 17.603408541744745 9.0069958020081025 -1 0 0 I I #
coedge $-1 $456 $240 $247 $355 forward $137 $-1 #
coedge $-1 $241 $456 $457 $458 reversed $137 $-1 #
point $-1 -55.00045777764214 17.603408541744745 9.0069958020081025 #
point $-1 -55.00045777764214 17.603408541744745 6.0069958020081025 #
straight-curve $-1 -55.00045777764214 11.11976391909764 6.0069958020081025 0 1 0 I I #
coedge $-1 $247 $246 $459 $460 reversed $248 $-1 #
edge $-1 $249 -6.0069958020081025 $461 9.0069958020081025 $247 $462 forward 7 unknown #
face $-1 $256 $248 $17 $-1 $463 reversed single #
point $-1 -55.00045777764214 26.875647134645813 6.0069958020081025 #
coedge $-1 $254 $252 $464 $465 forward $150 $-1 #
straight-curve $-1 55.00045777764214 17.603408541744745 3.7534979010040512 0 0 1 I I #
coedge $-1 $466 $459 $254 $361 forward $467 $-1 #
edge $-1 $362 -26.87564713464581 $468 26.87564713464581 $254 $469 forward 7 unknown #
vertex $-1 $361 $470 #
straight-curve $-1 55.00045777764214 26.87564713464581 0 0 0 -1 I I #
plane-surface $-1 55.00045777764214 0 0 -1 0 0 0 0 1 forward_v I I I I #
face $-1 $471 $274 $18 $-1 $472 reversed single #
loop $-1 $-1 $369 $259 #
plane-surface $-1 0 17.603408541744745 7.5069958020081025 0 1 0 0 0 1 forward_v I I I I #
coedge $-1 $261 $473 $474 $475 forward $155 $-1 #
coedge $-1 $474 $280 $262 $370 forward $366 $-1 #
edge $-1 $169 -14.83888432302793 $371 -10.596243685134104 $369 $476 forward 7 unknown #
vertex $-1 $264 $477 #
straight-curve $-1 -47.157206453763095 6.3541957982182034 9.0069958020081025 0 -1 0 I I #
vertex $-1 $382 $478 #
straight-curve $-1 -55.000457777642126 7.8133746511280826 1.1637442961256141 -0.70710677298230451 0 -0.70710678939079041 I I #
coedge $-1 $266 $479 $268 $378 reversed $274 $-1 #
straight-curve $-1 -55.00045777764214 7.8133746511280826 39.473068359760831 0 0 -1 I I #
coedge $-1 $480 $268 $481 $482 forward $155 $-1 #
edge $-1 $270 -7.8133746511280826 $483 26.87564713464581 $375 $484 forward 7 unknown #
point $-1 -47.157206453763095 7.8133746511280826 9.0069958020081025 #
point $-1 -55.00045777764214 7.8133746511280826 9.0069958020081025 #
coedge $-1 $485 $272 $486 $487 forward $274 $-1 #
edge $-1 $373 1.4591788529098793 $275 11.249212743526527 $273 $488 forward 7 unknown #
point $-1 -55.00045777764214 17.603408541744731 1.1637442961255999 #
coedge $-1 $489 $490 $279 $385 forward $491 $-1 #
edge $-1 $492 -15.755883215548174 $387 -6.4836446226471054 $384 $493 forward 7 unknown #
coedge $-1 $280 $474 $489 $494 reversed $366 $-1 #
vertex $-1 $385 $495 #
coedge $-1 $496 $486 $282 $389 forward $497 $-1 #
edge $-1 $390 -55.00045777764214 $492 55.00045777764214 $388 $498 forward 7 unknown #
vertex $-1 $487 $499 #
straight-curve $-1 -55.00045777764214 11.11976391909764 6.0069958020081025 0 1 0 I I #
face $-1 $500 $405 $19 $-1 $501 forward single #
loop $-1 $-1 $502 $286 #
plane-surface $-1 0 0 9.0069958020081025 0 0 1 1 0 0 forward_v I I I I #
coedge $-1 $396 $288 $503 $504 forward $173 $-1 #
coedge $-1 $288 $395 $505 $506 reversed $173 $-1 #
coedge $-1 $507 $502 $288 $398 forward $393 $-1 #
edge $-1 $508 -19.234219549230232 $509 -11.390968225351187 $397 $510 forward 7 unknown #
coedge $-1 $511 $512 $289 $400 forward $513 $-1 #
edge $-1 $514 -38.309324063635231 $407 -33.466072557752724 $399 $515 forward 7 unknown #
coedge $-1 $516 $517 $290 $402 reversed $296 $-1 #
edge $-1 $514 -2.0097183471152325e-014 $406 6.8493918861325129 $290 $518 forward 7 unknown #
coedge $-1 $519 $291 $520 $521 reversed $405 $-1 #
coedge $-1 $291 $522 $511 $523 reversed $405 $-1 #
loop $-1 $-1 $519 $392 #
vertex $-1 $292 $524 #
vertex $-1 $523 $525 #
straight-curve $-1 0 17.603408541744745 6.0069958020081025 -1 0 0 I I #
vertex $-1 $293 $526 #
point $-1 -48.238341841051756 12.708391596436414 3.6590933862944692 #
coedge $-1 $517 $503 $502 $527 reversed $296 $-1 #
straight-curve $-1 -55.00045777764214 26.87564713464581 0 0 0 -1 I I #
point $-1 -55.00045777764214 -26.87564713464581 -9.0069958020081025 #
straight-curve $-1 -55.00045777764214 0 -9.0069958020081025 0 1 0 I I #
point $-1 -55.00045777764214 26.87564713464581 -9.0069958020081025 #
face $-1 $528 $529 $16 $-1 $530 reversed single #
coedge $-1 $531 $316 $321 $423 forward $121 $-1 #
straight-curve $-1 -36.986466173625935 -11.629964724883038 9.0069958020081025 0 -1 0 I I #
coedge $-1 $318 $532 $320 $422 forward $228 $-1 #
straight-curve $-1 -36.986466173625935 -11.629964724883038 -9.0069958020081025 0 1 0 I I #
coedge $-1 $321 $320 $533 $534 reversed $209 $-1 #
edge $-1 $535 -55.00045777764214 $323 36.986466173625935 $320 $436 forward 7 unknown #
edge $-1 $322 -36.986466173625935 $536 55.00045777764214 $321 $431 forward 7 unknown #
point $-1 -36.986466173625935 -26.87564713464581 9.0069958020081025 #
point $-1 -36.986466173625935 -26.87564713464581 -9.0069958020081025 #
coedge $-1 $330 $329 $537 $538 forward $331 $-1 #
coedge $-1 $333 $531 $539 $540 forward $121 $-1 #
coedge $-1 $541 $537 $333 $429 reversed $529 $-1 #
edge $-1 $542 -26.87564713464581 $430 26.87564713464581 $428 $543 forward 7 unknown #
vertex $-1 $429 $544 #
straight-curve $-1 0 -26.87564713464581 9.0069958020081025 1 0 0 I I #
coedge $-1 $532 $336 $545 $546 forward $228 $-1 #
coedge $-1 $537 $541 $336 $434 reversed $529 $-1 #
edge $-1 $435 -26.87564713464581 $547 26.87564713464581 $433 $548 forward 7 unknown #
vertex $-1 $434 $549 #
straight-curve $-1 0 -26.87564713464581 -9.0069958020081025 -1 0 0 I I #
face $-1 $550 $551 $17 $-1 $552 reversed single #
loop $-1 $-1 $553 $339 #
plane-surface $-1 -36.986466173625935 -23.259929449766076 0 -1 0 0 0 0 1 forward_v I I I I #
coedge $-1 $554 $555 $556 $557 reversed $340 $-1 #
coedge $-1 $558 $342 $445 $559 reversed $234 $-1 #
coedge $-1 $342 $558 $560 $561 reversed $234 $-1 #
coedge $-1 $555 $554 $342 $444 forward $340 $-1 #
edge $-1 $562 -9.0069958020081025 $563 9.0069958020081025 $443 $564 forward 7 unknown #
coedge $-1 $565 $343 $441 $559 forward $78 $-1 #
coedge $-1 $457 $566 $343 $447 reversed $567 $-1 #
edge $-1 $448 -55.00045777764214 $568 -41.934252758817912 $446 $569 forward 7 unknown #
vertex $-1 $344 $570 #
straight-curve $-1 -55.00045777764214 0 9.0069958020081025 0 -1 0 I I #
coedge $-1 $345 $565 $571 $572 forward $78 $-1 #
coedge $-1 $573 $464 $345 $452 reversed $551 $-1 #
edge $-1 $574 -36.986466173625935 $453 55.00045777764214 $451 $569 forward 7 unknown #
vertex $-1 $346 $575 #
straight-curve $-1 55.00045777764214 0 9.0069958020081025 0 1 0 I I #
point $-1 55.00045777764214 17.603408541744745 9.0069958020081025 #
coedge $-1 $350 $349 $576 $577 reversed $137 $-1 #
coedge $-1 $578 $446 $350 $458 forward $567 $-1 #
edge $-1 $448 -9.0069958020081025 $579 9.0069958020081025 $350 $580 forward 7 unknown #
coedge $-1 $360 $576 $354 $460 forward $467 $-1 #
edge $-1 $461 -55.00045777764214 $362 55.00045777764214 $354 $581 forward 7 unknown #
vertex $-1 $460 $582 #
straight-curve $-1 -55.00045777764214 26.87564713464581 0 0 0 -1 I I #
plane-surface $-1 0 26.87564713464581 0 0 -1 0 0 0 -1 forward_v I I I I #
coedge $-1 $451 $583 $358 $465 reversed $551 $-1 #
edge $-1 $453 -9.0069958020081025 $468 9.0069958020081025 $358 $584 forward 7 unknown #
coedge $-1 $585 $360 $583 $586 forward $467 $-1 #
loop $-1 $-1 $560 $550 #
vertex $-1 $465 $587 #
straight-curve $-1 55.00045777764214 0 -9.0069958020081025 0 -1 0 I I #
point $-1 55.00045777764214 26.87564713464581 -9.0069958020081025 #
face $-1 $588 $589 $18 $-1 $590 forward single #
plane-surface $-1 -55.00045777764214 0 0 1 0 0 0 0 -1 forward_v I I I I #
coedge $-1 $368 $591 $592 $593 forward $155 $-1 #
coedge $-1 $386 $369 $368 $475 reversed $366 $-1 #
edge $-1 $594 -55.00045777764214 $371 47.157206453763095 $368 $595 forward 7 unknown #
straight-curve $-1 -39.664530775833796 17.603408541744745 16.499671653805713 0.70710677298230462 0 0.70710678939079052 I I #
point $-1 -47.157206453763095 17.603408541744745 9.0069958020081025 #
point $-1 -55.00045777764214 7.8133746511280826 1.1637442961255999 #
coedge $-1 $375 $485 $596 $597 reversed $274 $-1 #
coedge $-1 $598 $377 $599 $600 forward $155 $-1 #
coedge $-1 $596 $601 $377 $482 reversed $602 $-1 #
edge $-1 $483 -55.00045777764214 $603 -41.934252758817912 $481 $604 forward 7 unknown #
vertex $-1 $378 $605 #
straight-curve $-1 -55.00045777764214 0 9.0069958020081025 0 -1 0 I I #
coedge $-1 $479 $381 $606 $607 reversed $274 $-1 #
coedge $-1 $388 $608 $381 $487 reversed $497 $-1 #
edge $-1 $390 -6.0069958020081025 $609 9.0069958020081025 $486 $610 forward 7 unknown #
straight-curve $-1 -55.00045777764214 6.3541957982182034 1.1637442961255999 0 1 0 I I #
coedge $-1 $592 $384 $386 $494 forward $491 $-1 #
coedge $-1 $384 $611 $496 $612 reversed $491 $-1 #
loop $-1 $-1 $489 $613 #
vertex $-1 $612 $614 #
straight-curve $-1 55.00045777764214 11.11976391909764 6.0069958020081025 0 -1 0 I I #
edge $-1 $387 2.2534979010040512 $594 5.2534979010040512 $489 $615 forward 7 unknown #
point $-1 55.00045777764214 17.603408541744745 6.0069958020081025 #
coedge $-1 $608 $388 $490 $612 forward $497 $-1 #
loop $-1 $-1 $388 $616 #
straight-curve $-1 0 26.87564713464581 6.0069958020081025 1 0 0 I I #
point $-1 -55.00045777764214 26.875647134645813 6.0069958020081025 #
face $-1 $617 $618 $19 $-1 $619 forward single #
plane-surface $-1 0 22.239527838195279 6.0069958020081025 0 0 1 1 0 0 forward_v I I I I #
coedge $-1 $397 $620 $411 $527 forward $393 $-1 #
coedge $-1 $411 $516 $395 $504 reversed $296 $-1 #
edge $-1 $508 -11.09203252402634 $621 2.0097183471152325e-014 $395 $622 forward 7 unknown #
coedge $-1 $512 $623 $396 $506 forward $513 $-1 #
edge $-1 $509 30.466072557752728 $621 38.309324063635231 $505 $624 forward 7 unknown #
coedge $-1 $625 $397 $623 $626 forward $393 $-1 #
vertex $-1 $527 $627 #
vertex $-1 $626 $628 #
straight-curve $-1 -66.391426002993327 7.8133746511280826 9.006995802008106 -1 0 0 I I #
coedge $-1 $629 $399 $404 $523 forward $513 $-1 #
coedge $-1 $399 $505 $516 $630 forward $513 $-1 #
loop $-1 $-1 $399 $617 #
vertex $-1 $630 $631 #
straight-curve $-1 -55.00045777764214 17.603408541744731 39.473068359760831 0 0 1 I I #
coedge $-1 $503 $401 $512 $630 reversed $296 $-1 #
coedge $-1 $401 $411 $632 $633 reversed $296 $-1 #
straight-curve $-1 -55.000457777642126 17.603408541744731 1.1637442961256141 0.70710677298230451 0 0.70710678939079041 I I #
coedge $-1 $522 $403 $634 $635 reversed $405 $-1 #
coedge $-1 $632 $636 $403 $521 forward $618 $-1 #
edge $-1 $637 -55.00045777764214 $406 50.157206384147784 $520 $408 forward 7 unknown #
coedge $-1 $404 $519 $638 $639 reversed $405 $-1 #
edge $-1 $407 6.4836446226471054 $640 15.755883215548174 $511 $641 forward 7 unknown #
point $-1 -50.157206384147784 17.603408541744731 6.0069958020081025 #
point $-1 -55.00045777764214 17.603408541744745 6.0069958020081025 #
point $-1 -48.238341824643271 12.708391596436414 2.2448798239213743 #
edge $-1 $642 -11.249212743526542 $508 -1.4591788529098793 $502 $643 forward 7 unknown #
face $-1 $644 $645 $16 $-1 $646 reversed single #
loop $-1 $-1 $541 $416 #
plane-surface $-1 -55.00045777764214 0 0 1 0 0 0 0 -1 forward_v I I I I #
coedge $-1 $427 $417 $647 $648 forward $121 $-1 #
coedge $-1 $419 $432 $649 $650 forward $228 $-1 #
coedge $-1 $649 $647 $421 $534 forward $651 $-1 #
edge $-1 $536 -9.0069958020081025 $535 9.0069958020081025 $533 $652 forward 7 unknown #
vertex $-1 $534 $653 #
vertex $-1 $648 $654 #
coedge $-1 $428 $433 $426 $538 reversed $529 $-1 #
edge $-1 $430 -9.0069958020081025 $435 9.0069958020081025 $537 $655 forward 7 unknown #
coedge $-1 $656 $657 $427 $540 reversed $645 $-1 #
edge $-1 $658 -55.00045777764214 $542 55.00045777764214 $539 $659 forward 7 unknown #
coedge $-1 $433 $428 $657 $660 forward $529 $-1 #
vertex $-1 $540 $661 #
straight-curve $-1 -55.00045777764214 0 9.0069958020081025 0 -1 0 I I #
point $-1 -55.00045777764214 -26.87564713464581 9.0069958020081025 #
coedge $-1 $657 $656 $432 $546 reversed $645 $-1 #
edge $-1 $547 -55.00045777764214 $662 55.00045777764214 $545 $663 forward 7 unknown #
vertex $-1 $546 $664 #
straight-curve $-1 -55.00045777764214 0 -9.0069958020081025 0 1 0 I I #
point $-1 -55.00045777764214 -26.87564713464581 -9.0069958020081025 #
face $-1 $665 $467 $17 $-1 $666 reversed single #
loop $-1 $-1 $573 $437 #
plane-surface $-1 0 -26.87564713464581 0 0 1 0 0 0 1 forward_v I I I I #
coedge $-1 $571 $667 $573 $668 reversed $438 $-1 #
coedge $-1 $443 $440 $565 $669 reversed $340 $-1 #
coedge $-1 $440 $443 $670 $671 reversed $340 $-1 #
coedge $-1 $667 $571 $440 $557 forward $438 $-1 #
edge $-1 $672 -9.0069958020081025 $673 9.0069958020081025 $556 $674 forward 7 unknown #
coedge $-1 $442 $441 $566 $675 reversed $234 $-1 #
edge $-1 $568 -15.245682409762772 $562 -8.0142470400033048 $445 $676 forward 7 unknown #
coedge $-1 $677 $670 $442 $561 forward $467 $-1 #
edge $-1 $563 8.0142470400033048 $678 15.245682409762772 $560 $679 forward 7 unknown #
vertex $-1 $559 $680 #
vertex $-1 $561 $681 #
straight-curve $-1 -41.934252758817912 -19.644211764886343 0 0 0 -1 I I #
coedge $-1 $450 $445 $554 $669 forward $78 $-1 #
coedge $-1 $446 $578 $558 $675 forward $567 $-1 #
loop $-1 $-1 $566 $665 #
vertex $-1 $675 $682 #
straight-curve $-1 0 -26.87564713464581 9.0069958020081025 1 0 0 I I #
point $-1 -55.00045777764214 -26.87564713464581 9.0069958020081025 #
coedge $-1 $556 $553 $450 $572 reversed $438 $-1 #
edge $-1 $672 8.0142470400033048 $574 15.245682409762772 $450 $683 forward 7 unknown #
coedge $-1 $583 $451 $553 $668 forward $551 $-1 #
vertex $-1 $452 $684 #
point $-1 55.00045777764214 -26.87564713464581 9.0069958020081025 #
coedge $-1 $459 $677 $456 $577 forward $467 $-1 #
edge $-1 $579 -26.87564713464581 $461 26.87564713464581 $456 $685 forward 7 unknown #
coedge $-1 $566 $457 $677 $686 reversed $567 $-1 #
vertex $-1 $577 $687 #
straight-curve $-1 -55.00045777764214 -26.87564713464581 0 0 0 -1 I I #
straight-curve $-1 0 26.87564713464581 -9.0069958020081025 1 0 0 I I #
point $-1 -55.00045777764214 26.87564713464581 -9.0069958020081025 #
coedge $-1 $464 $573 $466 $586 reversed $551 $-1 #
straight-curve $-1 55.00045777764214 -26.87564713464581 0 0 0 -1 I I #
coedge $-1 $670 $466 $667 $688 forward $467 $-1 #
edge $-1 $468 -55.00045777764214 $689 36.986466173625935 $583 $690 forward 7 unknown #
point $-1 55.00045777764214 -26.87564713464581 -9.0069958020081025 #
face $-1 $691 $692 $18 $-1 $693 forward single #
loop $-1 $-1 $694 $471 #
plane-surface $-1 -41.934252758817912 -23.259929449766076 0 1 0 0 0 0 -1 forward_v I I I I #
coedge $-1 $473 $695 $696 $697 forward $155 $-1 #
coedge $-1 $698 $489 $473 $593 reversed $491 $-1 #
edge $-1 $699 -26.87564713464581 $594 17.603408541744745 $592 $700 forward 7 unknown #
vertex $-1 $475 $701 #
straight-curve $-1 0 17.603408541744745 9.0069958020081025 -1 0 0 I I #
coedge $-1 $702 $481 $479 $597 forward $602 $-1 #
edge $-1 $483 -9.0069958020081025 $703 9.0069958020081025 $479 $704 forward 7 unknown #
coedge $-1 $695 $480 $705 $706 forward $155 $-1 #
coedge $-1 $707 $694 $480 $600 reversed $589 $-1 #
edge $-1 $603 -15.245682409762772 $708 -8.0142470400033048 $480 $709 forward 7 unknown #
coedge $-1 $481 $702 $707 $710 forward $602 $-1 #
loop $-1 $-1 $601 $711 #
vertex $-1 $710 $712 #
straight-curve $-1 0 -26.87564713464581 9.0069958020081025 1 0 0 I I #
point $-1 -55.00045777764214 -26.87564713464581 9.0069958020081025 #
coedge $-1 $713 $714 $485 $607 forward $715 $-1 #
edge $-1 $703 -26.87564713464581 $609 26.87564713464581 $485 $716 forward 7 unknown #
coedge $-1 $486 $496 $713 $717 reversed $497 $-1 #
vertex $-1 $717 $718 #
straight-curve $-1 -55.00045777764214 26.87564713464581 0 0 0 -1 I I #
coedge $-1 $490 $698 $719 $720 reversed $491 $-1 #
edge $-1 $492 -6.0069958020081025 $721 9.0069958020081025 $490 $722 forward 7 unknown #
face $-1 $-1 $491 $18 $-1 $723 reversed single #
point $-1 55.00045777764214 26.875647134645813 6.0069958020081025 #
straight-curve $-1 55.00045777764214 17.603408541744745 3.7534979010040512 0 0 1 I I #
face $-1 $613 $497 $18 $-1 $724 reversed single #
face $-1 $725 $513 $19 $-1 $726 reversed single #
loop $-1 $-1 $632 $500 #
plane-surface $-1 0 17.603408541744745 7.5069958020081025 0 1 0 0 0 1 forward_v I I I I #
coedge $-1 $502 $727 $728 $729 forward $393 $-1 #
vertex $-1 $630 $730 #
straight-curve $-1 -55.000457777642126 7.8133746511280826 1.1637442961256141 -0.70710677298230451 0 -0.70710678939079041 I I #
coedge $-1 $505 $731 $507 $626 reversed $513 $-1 #
straight-curve $-1 -55.00045777764214 7.8133746511280826 39.473068359760831 0 0 -1 I I #
coedge $-1 $732 $507 $733 $734 forward $393 $-1 #
edge $-1 $509 -7.8133746511280826 $735 26.87564713464581 $623 $736 forward 7 unknown #
point $-1 -47.157206453763095 7.8133746511280826 9.0069958020081025 #
point $-1 -55.00045777764214 7.8133746511280826 9.0069958020081025 #
coedge $-1 $737 $511 $738 $739 forward $513 $-1 #
edge $-1 $621 1.4591788529098793 $514 11.249212743526527 $512 $740 forward 7 unknown #
point $-1 -55.00045777764214 17.603408541744731 1.1637442961255999 #
coedge $-1 $728 $520 $517 $633 forward $618 $-1 #
edge $-1 $406 -14.83888432302793 $642 -10.596243685134104 $632 $741 forward 7 unknown #
coedge $-1 $742 $743 $519 $635 forward $744 $-1 #
edge $-1 $745 -15.755883215548174 $637 -6.4836446226471054 $634 $746 forward 7 unknown #
coedge $-1 $520 $728 $742 $747 reversed $618 $-1 #
vertex $-1 $635 $748 #
coedge $-1 $749 $738 $522 $639 forward $750 $-1 #
edge $-1 $640 -55.00045777764214 $745 55.00045777764214 $638 $751 forward 7 unknown #
vertex $-1 $739 $752 #
straight-curve $-1 -55.00045777764214 11.11976391909764 6.0069958020081025 0 1 0 I I #
vertex $-1 $527 $753 #
straight-curve $-1 -47.157206453763095 6.3541957982182034 9.0069958020081025 0 -1 0 I I #
face $-1 $-1 $651 $16 $-1 $754 reversed single #
loop $-1 $-1 $656 $528 #
plane-surface $-1 0 26.87564713464581 0 0 -1 0 0 0 -1 forward_v I I I I #
coedge $-1 $533 $755 $531 $648 reversed $651 $-1 #
edge $-1 $536 -26.87564713464581 $658 26.87564713464581 $647 $756 forward 7 unknown #
coedge $-1 $755 $533 $532 $650 reversed $651 $-1 #
edge $-1 $662 -26.87564713464581 $535 26.87564713464581 $649 $757 forward 7 unknown #
loop $-1 $-1 $533 $644 #
straight-curve $-1 55.00045777764214 -26.87564713464581 0 0 0 -1 I I #
point $-1 55.00045777764214 -26.87564713464581 -9.0069958020081025 #
point $-1 55.00045777764214 -26.87564713464581 9.0069958020081025 #
straight-curve $-1 -55.00045777764214 -26.87564713464581 0 0 0 -1 I I #
coedge $-1 $545 $539 $755 $758 forward $645 $-1 #
coedge $-1 $539 $545 $541 $660 reversed $645 $-1 #
vertex $-1 $648 $759 #
straight-curve $-1 0 26.87564713464581 9.0069958020081025 -1 0 0 I I #
edge $-1 $542 -9.0069958020081025 $547 9.0069958020081025 $657 $760 forward 7 unknown #
point $-1 -55.00045777764214 26.87564713464581 9.0069958020081025 #
vertex $-1 $650 $761 #
straight-curve $-1 0 26.87564713464581 -9.0069958020081025 1 0 0 I I #
point $-1 -55.00045777764214 26.87564713464581 -9.0069958020081025 #
face $-1 $356 $567 $17 $-1 $552 reversed single #
plane-surface $-1 0 0 -9.0069958020081025 0 0 1 1 0 0 forward_v I I I I #
coedge $-1 $553 $556 $585 $688 reversed $438 $-1 #
edge $-1 $574 -9.0069958020081025 $689 9.0069958020081025 $573 $762 forward 7 unknown #
edge $-1 $562 -22.204073025706951 $672 -17.256286440514973 $565 $763 forward 7 unknown #
coedge $-1 $560 $585 $555 $671 forward $467 $-1 #
edge $-1 $673 17.256286440514973 $563 22.204073025706951 $670 $764 forward 7 unknown #
vertex $-1 $669 $765 #
vertex $-1 $671 $766 #
straight-curve $-1 -36.986466173625935 -19.644211764886343 0 0 0 -1 I I #
edge $-1 $678 -9.0069958020081025 $568 9.0069958020081025 $566 $767 forward 7 unknown #
straight-curve $-1 -41.934252758817912 -11.629964724883038 9.0069958020081025 0 1 0 I I #
coedge $-1 $576 $560 $578 $686 forward $467 $-1 #
vertex $-1 $686 $768 #
straight-curve $-1 -41.934252758817912 -11.629964724883038 -9.0069958020081025 0 -1 0 I I #
point $-1 -41.934252758817912 -19.644211764886343 9.0069958020081025 #
point $-1 -41.934252758817912 -19.644211764886343 -9.0069958020081025 #
point $-1 -41.934252758817912 -26.87564713464581 9.0069958020081025 #
straight-curve $-1 -36.986466173625935 -11.629964724883038 9.0069958020081025 0 -1 0 I I #
point $-1 -36.986466173625935 -26.87564713464581 9.0069958020081025 #
straight-curve $-1 -55.00045777764214 0 -9.0069958020081025 0 1 0 I I #
edge $-1 $678 41.934252758817912 $579 55.00045777764214 $578 $690 forward 7 unknown #
point $-1 -55.00045777764214 -26.87564713464581 -9.0069958020081025 #
edge $-1 $689 -15.245682409762772 $673 -8.0142470400033048 $585 $769 forward 7 unknown #
vertex $-1 $668 $770 #
straight-curve $-1 0 -26.87564713464581 -9.0069958020081025 -1 0 0 I I #
face $-1 $771 $772 $18 $-1 $773 forward single #
loop $-1 $-1 $774 $588 #
plane-surface $-1 -39.460359466221924 -19.644211764886343 0 0 -1 0 0 0 -1 forward_v I I I I #
coedge $-1 $599 $775 $776 $777 reversed $589 $-1 #
coedge $-1 $591 $598 $778 $779 forward $155 $-1 #
coedge $-1 $780 $781 $591 $697 reversed $782 $-1 #
edge $-1 $783 -36.986466173625935 $699 55.00045777764214 $696 $604 forward 7 unknown #
coedge $-1 $611 $592 $781 $784 forward $491 $-1 #
vertex $-1 $593 $785 #
straight-curve $-1 55.00045777764214 0 9.0069958020081025 0 1 0 I I #
point $-1 55.00045777764214 17.603408541744745 9.0069958020081025 #
coedge $-1 $601 $596 $714 $786 reversed $602 $-1 #
vertex $-1 $607 $787 #
straight-curve $-1 -55.00045777764214 -26.87564713464581 0 0 0 -1 I I #
coedge $-1 $776 $774 $598 $706 reversed $692 $-1 #
edge $-1 $708 -22.204073025706951 $788 -17.256286440514973 $598 $789 forward 7 unknown #
coedge $-1 $775 $599 $601 $710 reversed $589 $-1 #
vertex $-1 $600 $790 #
straight-curve $-1 -41.934252758817912 -11.629964724883038 9.0069958020081025 0 1 0 I I #
edge $-1 $791 -9.0069958020081025 $603 9.0069958020081025 $601 $792 forward 7 unknown #
face $-1 $616 $602 $18 $-1 $793 reversed single #
point $-1 -41.934252758817912 -26.87564713464581 9.0069958020081025 #
coedge $-1 $719 $606 $608 $717 forward $715 $-1 #
coedge $-1 $606 $794 $702 $786 forward $715 $-1 #
loop $-1 $-1 $794 $795 #
straight-curve $-1 -55.00045777764214 0 -9.0069958020081025 0 1 0 I I #
edge $-1 $609 -55.00045777764214 $721 55.00045777764214 $608 $796 forward 7 unknown #
point $-1 -55.00045777764214 26.87564713464581 -9.0069958020081025 #
coedge $-1 $797 $713 $611 $720 forward $715 $-1 #
edge $-1 $721 -26.87564713464581 $798 26.87564713464581 $611 $799 forward 7 unknown #
vertex $-1 $720 $800 #
straight-curve $-1 55.00045777764214 26.87564713464581 0 0 0 -1 I I #
plane-surface $-1 55.00045777764214 0 0 -1 0 0 0 0 1 forward_v I I I I #
plane-surface $-1 0 26.87564713464581 0 0 -1 0 0 0 -1 forward_v I I I I #
face $-1 $801 $802 $19 $-1 $803 forward single #
plane-surface $-1 -55.00045777764214 0 0 1 0 0 0 0 -1 forward_v I I I I #
coedge $-1 $620 $804 $805 $806 forward $393 $-1 #
coedge $-1 $636 $632 $620 $729 reversed $618 $-1 #
edge $-1 $807 -55.00045777764214 $642 47.157206453763095 $620 $808 forward 7 unknown #
point $-1 -55.00045777764214 7.8133746511280826 1.1637442961255999 #
coedge $-1 $623 $737 $809 $810 reversed $513 $-1 #
coedge $-1 $811 $625 $812 $813 forward $393 $-1 #
coedge $-1 $809 $814 $625 $734 reversed $815 $-1 #
edge $-1 $735 -55.00045777764214 $816 -41.934252758817912 $733 $817 forward 7 unknown #
vertex $-1 $626 $818 #
straight-curve $-1 -55.00045777764214 0 9.0069958020081025 0 -1 0 I I #
coedge $-1 $731 $629 $819 $820 reversed $513 $-1 #
coedge $-1 $638 $821 $629 $739 reversed $750 $-1 #
edge $-1 $640 -6.0069958020081025 $822 9.0069958020081025 $738 $823 forward 7 unknown #
straight-curve $-1 -55.00045777764214 6.3541957982182034 1.1637442961255999 0 1 0 I I #
straight-curve $-1 -39.664530775833796 17.603408541744745 16.499671653805713 0.70710677298230462 0 0.70710678939079052 I I #
coedge $-1 $805 $634 $636 $747 forward $744 $-1 #
coedge $-1 $634 $824 $749 $825 reversed $744 $-1 #
loop $-1 $-1 $742 $826 #
vertex $-1 $825 $827 #
straight-curve $-1 55.00045777764214 11.11976391909764 6.0069958020081025 0 -1 0 I I #
edge $-1 $637 2.2534979010040512 $807 5.2534979010040512 $742 $828 forward 7 unknown #
point $-1 55.00045777764214 17.603408541744745 6.0069958020081025 #
coedge $-1 $821 $638 $743 $825 forward $750 $-1 #
loop $-1 $-1 $638 $829 #
straight-curve $-1 0 26.87564713464581 6.0069958020081025 1 0 0 I I #
point $-1 -55.00045777764214 26.875647134645813 6.0069958020081025 #
point $-1 -47.157206453763095 17.603408541744745 9.0069958020081025 #
plane-surface $-1 55.00045777764214 0 0 -1 0 0 0 0 1 forward_v I I I I #
coedge $-1 $647 $649 $656 $758 reversed $651 $-1 #
straight-curve $-1 55.00045777764214 0 9.0069958020081025 0 1 0 I I #
straight-curve $-1 55.00045777764214 0 -9.0069958020081025 0 -1 0 I I #
edge $-1 $658 -9.0069958020081025 $662 9.0069958020081025 $755 $830 forward 7 unknown #
point $-1 55.00045777764214 26.87564713464581 9.0069958020081025 #
straight-curve $-1 -55.00045777764214 26.87564713464581 0 0 0 -1 I I #
point $-1 55.00045777764214 26.87564713464581 -9.0069958020081025 #
straight-curve $-1 -36.986466173625935 -26.87564713464581 0 0 0 -1 I I #
straight-curve $-1 -19.730179733110962 -19.644211764886343 9.0069958020081025 1 0 0 I I #
straight-curve $-1 -19.730179733110962 -19.644211764886343 -9.0069958020081025 -1 0 0 I I #
point $-1 -36.986466173625935 -19.644211764886343 9.0069958020081025 #
point $-1 -36.986466173625935 -19.644211764886343 -9.0069958020081025 #
straight-curve $-1 -41.934252758817912 -26.87564713464581 0 0 0 1 I I #
point $-1 -41.934252758817912 -26.87564713464581 -9.0069958020081025 #
straight-curve $-1 -36.986466173625935 -11.629964724883038 -9.0069958020081025 0 1 0 I I #
point $-1 -36.986466173625935 -26.87564713464581 -9.0069958020081025 #
face $-1 $795 $782 $18 $-1 $793 reversed single #
loop $-1 $-1 $831 $691 #
plane-surface $-1 -36.986466173625935 -23.259929449766076 0 -1 0 0 0 0 1 forward_v I I I I #
coedge $-1 $705 $832 $833 $834 reversed $692 $-1 #
coedge $-1 $694 $707 $794 $835 reversed $589 $-1 #
coedge $-1 $832 $705 $694 $777 forward $692 $-1 #
edge $-1 $708 -9.0069958020081025 $836 9.0069958020081025 $776 $837 forward 7 unknown #
coedge $-1 $833 $831 $695 $779 reversed $772 $-1 #
edge $-1 $788 8.0142470400033048 $783 15.245682409762772 $695 $838 forward 7 unknown #
coedge $-1 $839 $696 $831 $840 forward $782 $-1 #
coedge $-1 $696 $839 $698 $784 reversed $782 $-1 #
loop $-1 $-1 $780 $771 #
vertex $-1 $697 $841 #
edge $-1 $699 -9.0069958020081025 $798 9.0069958020081025 $698 $842 forward 7 unknown #
point $-1 55.00045777764214 -26.87564713464581 9.0069958020081025 #
edge $-1 $791 41.934252758817912 $703 55.00045777764214 $702 $843 forward 7 unknown #
point $-1 -55.00045777764214 -26.87564713464581 -9.0069958020081025 #
vertex $-1 $706 $844 #
straight-curve $-1 -19.730179733110962 -19.644211764886343 9.0069958020081025 1 0 0 I I #
point $-1 -41.934252758817912 -19.644211764886343 9.0069958020081025 #
vertex $-1 $786 $845 #
straight-curve $-1 -41.934252758817912 -26.87564713464581 0 0 0 1 I I #
plane-surface $-1 0 -26.87564713464581 0 0 1 0 0 0 1 forward_v I I I I #
coedge $-1 $714 $846 $775 $835 forward $715 $-1 #
face $-1 $711 $715 $18 $-1 $847 reversed single #
straight-curve $-1 0 26.87564713464581 -9.0069958020081025 1 0 0 I I #
coedge $-1 $848 $719 $839 $849 forward $715 $-1 #
vertex $-1 $784 $850 #
straight-curve $-1 55.00045777764214 0 -9.0069958020081025 0 -1 0 I I #
point $-1 55.00045777764214 26.87564713464581 -9.0069958020081025 #
face $-1 $851 $852 $19 $-1 $853 forward single #
loop $-1 $-1 $854 $725 #
plane-surface $-1 -41.934252758817912 -23.259929449766076 0 1 0 0 0 0 -1 forward_v I I I I #
coedge $-1 $727 $855 $856 $857 forward $393 $-1 #
coedge $-1 $858 $742 $727 $806 reversed $744 $-1 #
edge $-1 $859 -26.87564713464581 $807 17.603408541744745 $805 $860 forward 7 unknown #
vertex $-1 $729 $861 #
straight-curve $-1 0 17.603408541744745 9.0069958020081025 -1 0 0 I I #
coedge $-1 $862 $733 $731 $810 forward $815 $-1 #
edge $-1 $735 -9.0069958020081025 $863 9.0069958020081025 $731 $864 forward 7 unknown #
coedge $-1 $855 $732 $865 $866 forward $393 $-1 #
coedge $-1 $867 $854 $732 $813 reversed $802 $-1 #
edge $-1 $816 -15.245682409762772 $868 -8.0142470400033048 $732 $869 forward 7 unknown #
coedge $-1 $733 $862 $867 $870 forward $815 $-1 #
loop $-1 $-1 $814 $871 #
vertex $-1 $870 $872 #
straight-curve $-1 0 -26.87564713464581 9.0069958020081025 1 0 0 I I #
point $-1 -55.00045777764214 -26.87564713464581 9.0069958020081025 #
coedge $-1 $873 $874 $737 $820 forward $875 $-1 #
edge $-1 $863 -26.87564713464581 $822 26.87564713464581 $737 $876 forward 7 unknown #
coedge $-1 $738 $749 $873 $877 reversed $750 $-1 #
vertex $-1 $877 $878 #
straight-curve $-1 -55.00045777764214 26.87564713464581 0 0 0 -1 I I #
coedge $-1 $743 $858 $879 $880 reversed $744 $-1 #
edge $-1 $745 -6.0069958020081025 $881 9.0069958020081025 $743 $882 forward 7 unknown #
face $-1 $-1 $744 $19 $-1 $883 reversed single #
point $-1 55.00045777764214 26.875647134645813 6.0069958020081025 #
straight-curve $-1 55.00045777764214 17.603408541744745 3.7534979010040512 0 0 1 I I #
face $-1 $826 $750 $19 $-1 $884 reversed single #
straight-curve $-1 55.00045777764214 26.87564713464581 0 0 0 -1 I I #
coedge $-1 $778 $885 $780 $840 reversed $772 $-1 #
coedge $-1 $774 $776 $846 $886 reversed $692 $-1 #
coedge $-1 $885 $778 $774 $834 forward $772 $-1 #
edge $-1 $788 -9.0069958020081025 $887 9.0069958020081025 $833 $888 forward 7 unknown #
edge $-1 $836 8.0142470400033048 $791 15.245682409762772 $794 $889 forward 7 unknown #
vertex $-1 $835 $890 #
straight-curve $-1 -41.934252758817912 -19.644211764886343 0 0 0 -1 I I #
straight-curve $-1 -36.986466173625935 -11.629964724883038 9.0069958020081025 0 -1 0 I I #
coedge $-1 $781 $780 $797 $849 reversed $782 $-1 #
edge $-1 $783 -9.0069958020081025 $891 9.0069958020081025 $780 $892 forward 7 unknown #
point $-1 -36.986466173625935 -26.87564713464581 9.0069958020081025 #
straight-curve $-1 55.00045777764214 -26.87564713464581 0 0 0 -1 I I #
straight-curve $-1 0 -26.87564713464581 -9.0069958020081025 -1 0 0 I I #
point $-1 -36.986466173625935 -19.644211764886343 9.0069958020081025 #
point $-1 -41.934252758817912 -26.87564713464581 -9.0069958020081025 #
coedge $-1 $794 $848 $832 $886 forward $715 $-1 #
plane-surface $-1 0 0 -9.0069958020081025 0 0 1 1 0 0 forward_v I I I I #
coedge $-1 $846 $797 $885 $893 forward $715 $-1 #
edge $-1 $798 -55.00045777764214 $891 36.986466173625935 $839 $843 forward 7 unknown #
point $-1 55.00045777764214 -26.87564713464581 -9.0069958020081025 #
face $-1 $894 $895 $19 $-1 $896 forward single #
loop $-1 $-1 $897 $801 #
plane-surface $-1 -39.460359466221924 -19.644211764886343 0 0 -1 0 0 0 -1 forward_v I I I I #
coedge $-1 $812 $898 $899 $900 reversed $802 $-1 #
coedge $-1 $804 $811 $901 $902 forward $393 $-1 #
coedge $-1 $903 $904 $804 $857 reversed $905 $-1 #
edge $-1 $906 -36.986466173625935 $859 55.00045777764214 $856 $817 forward 7 unknown #
coedge $-1 $824 $805 $904 $907 forward $744 $-1 #
vertex $-1 $806 $908 #
straight-curve $-1 55.00045777764214 0 9.0069958020081025 0 1 0 I I #
point $-1 55.00045777764214 17.603408541744745 9.0069958020081025 #
coedge $-1 $814 $809 $874 $909 reversed $815 $-1 #
vertex $-1 $820 $910 #
straight-curve $-1 -55.00045777764214 -26.87564713464581 0 0 0 -1 I I #
coedge $-1 $899 $897 $811 $866 reversed $852 $-1 #
edge $-1 $868 -22.204073025706951 $911 -17.256286440514973 $811 $912 forward 7 unknown #
coedge $-1 $898 $812 $814 $870 reversed $802 $-1 #
vertex $-1 $813 $913 #
straight-curve $-1 -41.934252758817912 -11.629964724883038 9.0069958020081025 0 1 0 I I #
edge $-1 $914 -9.0069958020081025 $816 9.0069958020081025 $814 $915 forward 7 unknown #
face $-1 $829 $815 $19 $-1 $916 reversed single #
point $-1 -41.934252758817912 -26.87564713464581 9.0069958020081025 #
coedge $-1 $879 $819 $821 $877 forward $875 $-1 #
coedge $-1 $819 $917 $862 $909 forward $875 $-1 #
loop $-1 $-1 $917 $918 #
straight-curve $-1 -55.00045777764214 0 -9.0069958020081025 0 1 0 I I #
edge $-1 $822 -55.00045777764214 $881 55.00045777764214 $821 $919 forward 7 unknown #
point $-1 -55.00045777764214 26.87564713464581 -9.0069958020081025 #
coedge $-1 $920 $873 $824 $880 forward $875 $-1 #
edge $-1 $881 -26.87564713464581 $921 26.87564713464581 $824 $922 forward 7 unknown #
vertex $-1 $880 $923 #
straight-curve $-1 55.00045777764214 26.87564713464581 0 0 0 -1 I I #
plane-surface $-1 55.00045777764214 0 0 -1 0 0 0 0 1 forward_v I I I I #
plane-surface $-1 0 26.87564713464581 0 0 -1 0 0 0 -1 forward_v I I I I #
coedge $-1 $831 $833 $848 $893 reversed $772 $-1 #
edge $-1 $887 17.256286440514973 $836 22.204073025706951 $846 $924 forward 7 unknown #
vertex $-1 $886 $925 #
straight-curve $-1 -36.986466173625935 -19.644211764886343 0 0 0 -1 I I #
straight-curve $-1 -41.934252758817912 -11.629964724883038 -9.0069958020081025 0 -1 0 I I #
point $-1 -41.934252758817912 -19.644211764886343 -9.0069958020081025 #
vertex $-1 $840 $926 #
straight-curve $-1 -36.986466173625935 -26.87564713464581 0 0 0 -1 I I #
edge $-1 $891 -15.245682409762772 $887 -8.0142470400033048 $848 $927 forward 7 unknown #
face $-1 $918 $905 $19 $-1 $916 reversed single #
loop $-1 $-1 $928 $851 #
plane-surface $-1 -36.986466173625935 -23.259929449766076 0 -1 0 0 0 0 1 forward_v I I I I #
coedge $-1 $865 $929 $930 $931 reversed $852 $-1 #
coedge $-1 $854 $867 $917 $932 reversed $802 $-1 #
coedge $-1 $929 $865 $854 $900 forward $852 $-1 #
edge $-1 $868 -9.0069958020081025 $933 9.0069958020081025 $899 $934 forward 7 unknown #
coedge $-1 $930 $928 $855 $902 reversed $895 $-1 #
edge $-1 $911 8.0142470400033048 $906 15.245682409762772 $855 $935 forward 7 unknown #
coedge $-1 $936 $856 $928 $937 forward $905 $-1 #
coedge $-1 $856 $936 $858 $907 reversed $905 $-1 #
loop $-1 $-1 $903 $894 #
vertex $-1 $857 $938 #
edge $-1 $859 -9.0069958020081025 $921 9.0069958020081025 $858 $939 forward 7 unknown #
point $-1 55.00045777764214 -26.87564713464581 9.0069958020081025 #
edge $-1 $914 41.934252758817912 $863 55.00045777764214 $862 $940 forward 7 unknown #
point $-1 -55.00045777764214 -26.87564713464581 -9.0069958020081025 #
vertex $-1 $866 $941 #
straight-curve $-1 -19.730179733110962 -19.644211764886343 9.0069958020081025 1 0 0 I I #
point $-1 -41.934252758817912 -19.644211764886343 9.0069958020081025 #
vertex $-1 $909 $942 #
straight-curve $-1 -41.934252758817912 -26.87564713464581 0 0 0 1 I I #
plane-surface $-1 0 -26.87564713464581 0 0 1 0 0 0 1 forward_v I I I I #
coedge $-1 $874 $943 $898 $932 forward $875 $-1 #
face $-1 $871 $875 $19 $-1 $944 reversed single #
straight-curve $-1 0 26.87564713464581 -9.0069958020081025 1 0 0 I I #
coedge $-1 $945 $879 $936 $946 forward $875 $-1 #
vertex $-1 $907 $947 #
straight-curve $-1 55.00045777764214 0 -9.0069958020081025 0 -1 0 I I #
point $-1 55.00045777764214 26.87564713464581 -9.0069958020081025 #
straight-curve $-1 -19.730179733110962 -19.644211764886343 -9.0069958020081025 -1 0 0 I I #
point $-1 -36.986466173625935 -19.644211764886343 -9.0069958020081025 #
point $-1 -36.986466173625935 -26.87564713464581 -9.0069958020081025 #
straight-curve $-1 -36.986466173625935 -11.629964724883038 -9.0069958020081025 0 1 0 I I #
coedge $-1 $901 $948 $903 $937 reversed $895 $-1 #
coedge $-1 $897 $899 $943 $949 reversed $852 $-1 #
coedge $-1 $948 $901 $897 $931 forward $895 $-1 #
edge $-1 $911 -9.0069958020081025 $950 9.0069958020081025 $930 $951 forward 7 unknown #
edge $-1 $933 8.0142470400033048 $914 15.245682409762772 $917 $952 forward 7 unknown #
vertex $-1 $932 $953 #
straight-curve $-1 -41.934252758817912 -19.644211764886343 0 0 0 -1 I I #
straight-curve $-1 -36.986466173625935 -11.629964724883038 9.0069958020081025 0 -1 0 I I #
coedge $-1 $904 $903 $920 $946 reversed $905 $-1 #
edge $-1 $906 -9.0069958020081025 $954 9.0069958020081025 $903 $955 forward 7 unknown #
point $-1 -36.986466173625935 -26.87564713464581 9.0069958020081025 #
straight-curve $-1 55.00045777764214 -26.87564713464581 0 0 0 -1 I I #
straight-curve $-1 0 -26.87564713464581 -9.0069958020081025 -1 0 0 I I #
point $-1 -36.986466173625935 -19.644211764886343 9.0069958020081025 #
point $-1 -41.934252758817912 -26.87564713464581 -9.0069958020081025 #
coedge $-1 $917 $945 $929 $949 forward $875 $-1 #
plane-surface $-1 0 0 -9.0069958020081025 0 0 1 1 0 0 forward_v I I I I #
coedge $-1 $943 $920 $948 $956 forward $875 $-1 #
edge $-1 $921 -55.00045777764214 $954 36.986466173625935 $936 $940 forward 7 unknown #
point $-1 55.00045777764214 -26.87564713464581 -9.0069958020081025 #
coedge $-1 $928 $930 $945 $956 reversed $895 $-1 #
edge $-1 $950 17.256286440514973 $933 22.204073025706951 $943 $957 forward 7 unknown #
vertex $-1 $949 $958 #
straight-curve $-1 -36.986466173625935 -19.644211764886343 0 0 0 -1 I I #
straight-curve $-1 -41.934252758817912 -11.629964724883038 -9.0069958020081025 0 -1 0 I I #
point $-1 -41.934252758817912 -19.644211764886343 -9.0069958020081025 #
vertex $-1 $937 $959 #
straight-curve $-1 -36.986466173625935 -26.87564713464581 0 0 0 -1 I I #
edge $-1 $954 -15.245682409762772 $950 -8.0142470400033048 $945 $960 forward 7 unknown #
straight-curve $-1 -19.730179733110962 -19.644211764886343 -9.0069958020081025 -1 0 0 I I #
point $-1 -36.986466173625935 -19.644211764886343 -9.0069958020081025 #
point $-1 -36.986466173625935 -26.87564713464581 -9.0069958020081025 #
straight-curve $-1 -36.986466173625935 -11.629964724883038 -9.0069958020081025 0 1 0 I I #
End-of-ACIS-data 