500 0 12 0           
7 Unknown 11 ACIS 5.0 NT 24 Thu Mar 25 18:38:14 1999 
-1 9.9999999999999995e-007 1e-010 
body $-1 $12 $-1 $13 #
body $-1 $14 $-1 $15 #
body $-1 $16 $-1 $17 #
body $-1 $18 $-1 $19 #
body $-1 $20 $-1 $21 #
body $-1 $22 $-1 $23 #
body $-1 $24 $-1 $25 #
body $-1 $26 $-1 $27 #
body $-1 $28 $-1 $29 #
body $-1 $30 $-1 $31 #
body $-1 $32 $-1 $33 #
body $-1 $34 $-1 $35 #
lump $-1 $-1 $36 $0 #
transform $-1 1 0 0 0 1 0 0 0 1 72.564470351268042 32.701071046936384 14.124822804913624 1 rotate no_reflect no_shear #
lump $-1 $-1 $37 $1 #
transform $-1 1 0 0 0 1 0 0 0 1 72.564470351268042 32.701071046936384 14.124822804913624 1 rotate no_reflect no_shear #
lump $-1 $-1 $38 $2 #
transform $-1 1 0 0 0 1 0 0 0 1 72.564470351268042 32.701071046936384 14.124822804913624 1 rotate no_reflect no_shear #
lump $-1 $-1 $39 $3 #
transform $-1 1 0 0 0 1 0 0 0 1 72.564470351268042 32.701071046936384 14.124822804913624 1 rotate no_reflect no_shear #
lump $-1 $-1 $40 $4 #
transform $-1 1 0 0 0 1 0 0 0 1 72.564470351268042 32.701071046936384 14.124822804913624 1 rotate no_reflect no_shear #
lump $-1 $-1 $41 $5 #
transform $-1 1 0 0 0 1 0 0 0 1 72.564470351268042 32.701071046936384 14.124822804913624 1 rotate no_reflect no_shear #
lump $-1 $-1 $42 $6 #
transform $-1 1 0 0 0 1 0 0 0 1 72.564470351268042 32.701071046936384 14.124822804913624 1 rotate no_reflect no_shear #
lump $-1 $-1 $43 $7 #
transform $-1 1 0 0 0 1 0 0 0 1 72.564470351268042 32.701071046936384 14.124822804913624 1 rotate no_reflect no_shear #
lump $-1 $-1 $44 $8 #
transform $-1 1 0 0 0 1 0 0 0 1 72.564470351268042 32.701071046936384 14.124822804913624 1 rotate no_reflect no_shear #
lump $-1 $-1 $45 $9 #
transform $-1 1 0 0 0 1 0 0 0 1 72.564470351268042 32.701071046936384 14.124822804913624 1 rotate no_reflect no_shear #
lump $-1 $-1 $46 $10 #
transform $-1 1 0 0 0 1 0 0 0 1 72.564470351268042 32.701071046936384 14.124822804913624 1 rotate no_reflect no_shear #
lump $-1 $-1 $47 $11 #
transform $-1 1 0 0 0 1 0 0 0 1 72.564470351268042 32.701071046936384 14.124822804913624 1 rotate no_reflect no_shear #
shell $-1 $-1 $-1 $48 $-1 $12 #
shell $-1 $-1 $-1 $49 $-1 $14 #
shell $-1 $-1 $-1 $50 $-1 $16 #
shell $-1 $-1 $-1 $51 $-1 $18 #
shell $-1 $-1 $-1 $52 $-1 $20 #
shell $-1 $-1 $-1 $53 $-1 $22 #
shell $-1 $-1 $-1 $54 $-1 $24 #
shell $-1 $-1 $-1 $55 $-1 $26 #
shell $-1 $-1 $-1 $56 $-1 $28 #
shell $-1 $-1 $-1 $57 $-1 $30 #
shell $-1 $-1 $-1 $58 $-1 $32 #
shell $-1 $-1 $-1 $59 $-1 $34 #
face $-1 $60 $61 $36 $-1 $62 forward single #
face $-1 $63 $64 $37 $-1 $65 forward single #
face $-1 $66 $67 $38 $-1 $68 reversed single #
face $-1 $69 $70 $39 $-1 $71 forward single #
face $-1 $72 $73 $40 $-1 $74 reversed single #
face $-1 $75 $76 $41 $-1 $77 forward single #
face $-1 $78 $79 $42 $-1 $80 forward single #
face $-1 $81 $82 $43 $-1 $83 forward single #
face $-1 $84 $85 $44 $-1 $86 reversed single #
face $-1 $87 $88 $45 $-1 $89 forward single #
face $-1 $90 $91 $46 $-1 $92 forward single #
face $-1 $93 $94 $47 $-1 $95 forward single #
face $-1 $96 $97 $36 $-1 $98 reversed single #
loop $-1 $-1 $99 $48 #
plane-surface $-1 0 0 14.124822804913624 0 0 1 1 0 0 forward_v I I I I #
face $-1 $100 $101 $37 $-1 $102 reversed single #
loop $-1 $-1 $103 $49 #
plane-surface $-1 0 -25.642353901855532 0.69999490686682364 0 0 1 1 0 0 forward_v I I I I #
face $-1 $104 $105 $38 $-1 $106 reversed single #
loop $-1 $-1 $107 $50 #
plane-surface $-1 -159.90524826591752 17.858733045171437 117.08629050982596 0 1 0 -0.6018150307709319 0 0.79863550430605224 forward_v I I I I #
face $-1 $108 $109 $39 $-1 $110 forward single #
loop $-1 $111 $112 $51 #
cone-surface $-1 -63.110712681300448 22.477198953965676 6.504634325127161 0.6018150307709319 0 -0.79863550430605224 1.1979532564590785 0 0.90272254615639791 1 I I 0 1 1.5 forward I I I I #
face $-1 $113 $114 $40 $-1 $115 reversed single #
loop $-1 $-1 $116 $52 #
plane-surface $-1 108.20460106000009 -3.4662248637410471 206.73851135860136 0 -1 0 -0.81915205242281985 0 -0.57357642473473569 forward_v I I I I #
face $-1 $117 $118 $41 $-1 $119 forward single #
loop $-1 $120 $121 $53 #
cone-surface $-1 68.803226022271332 -10.86487948924297 9.0671155132426904 -0.81915205242281985 0 -0.57357642473473569 0.28678821236736785 0 -0.40957602621140993 1 I I 0 1 0.5 forward I I I I #
face $-1 $122 $123 $42 $-1 $124 forward single #
loop $-1 $125 $126 $54 #
cone-surface $-1 68.803226022271332 -8.0903840046797484 9.0671155132426904 -0.81915205242281985 0 -0.57357642473473569 0.28678821236736785 0 -0.40957602621140993 1 I I 0 1 0.5 forward I I I I #
face $-1 $127 $128 $43 $-1 $129 forward single #
loop $-1 $130 $131 $55 #
cone-surface $-1 68.803226022271332 -5.3158885201165269 9.0671155132426904 -0.81915205242281985 0 -0.57357642473473569 0.28678821236736785 0 -0.40957602621140993 1 I I 0 1 0.5 forward I I I I #
face $-1 $132 $133 $44 $-1 $134 reversed single #
loop $-1 $-1 $135 $56 #
plane-surface $-1 108.20460106000009 26.831977435780146 206.73851135860136 0 -1 0 -0.81915205242281985 0 -0.57357642473473569 forward_v I I I I #
face $-1 $136 $137 $45 $-1 $138 forward single #
loop $-1 $139 $140 $57 #
cone-surface $-1 68.803226022271332 19.43332281027822 9.0671155132426904 -0.81915205242281985 0 -0.57357642473473569 0.28678821236736785 0 -0.40957602621140993 1 I I 0 1 0.5 forward I I I I #
face $-1 $141 $142 $46 $-1 $143 forward single #
loop $-1 $144 $145 $58 #
cone-surface $-1 68.803226022271332 22.207818294841445 9.0671155132426904 -0.81915205242281985 0 -0.57357642473473569 0.28678821236736785 0 -0.40957602621140993 1 I I 0 1 0.5 forward I I I I #
face $-1 $146 $147 $47 $-1 $148 forward single #
loop $-1 $149 $150 $59 #
cone-surface $-1 68.803226022271332 24.98231377940467 9.0671155132426904 -0.81915205242281985 0 -0.57357642473473569 0.28678821236736785 0 -0.40957602621140993 1 I I 0 1 0.5 forward I I I I #
face $-1 $151 $152 $36 $-1 $153 reversed single #
loop $-1 $-1 $154 $60 #
plane-surface $-1 0 0 -14.124822804913624 0 0 1 1 0 0 forward_v I I I I #
coedge $-1 $155 $156 $157 $158 forward $61 $-1 #
face $-1 $159 $160 $37 $-1 $161 reversed single #
loop $-1 $-1 $162 $63 #
plane-surface $-1 0 -25.642353901855532 -3.796136164632248 0 0 1 1 0 0 forward_v I I I I #
coedge $-1 $163 $164 $165 $166 reversed $64 $-1 #
face $-1 $167 $168 $38 $-1 $169 reversed single #
loop $-1 $-1 $170 $66 #
plane-surface $-1 -72.564470351268014 22.477198953965676 1.1811657624529062 -0.6018150307709319 0 0.79863550430605224 0.79863550430605224 0 0.6018150307709319 forward_v I I I I #
coedge $-1 $171 $172 $173 $174 reversed $67 $-1 #
face $-1 $-1 $175 $39 $-1 $176 forward single #
loop $-1 $177 $178 $69 #
cone-surface $-1 -61.794000093300362 22.477198953965676 4.7572977383415171 0.6018150307709319 0 -0.79863550430605224 0.59897662822953923 0 0.45136127307819895 1 I I -0.70710678118654757 0.70710678118654757 0.75 forward I I I I #
loop $-1 $-1 $179 $51 #
coedge $-1 $112 $112 $180 $181 reversed $70 $-1 #
face $-1 $182 $183 $40 $-1 $184 reversed single #
loop $-1 $-1 $185 $72 #
plane-surface $-1 -10.678068582432061 -8.0903840046797484 123.49597242490125 0.81915205242281985 0 0.57357642473473569 0.57357642473473569 0 -0.81915205242281985 forward_v I I I I #
coedge $-1 $186 $187 $188 $189 reversed $73 $-1 #
face $-1 $-1 $190 $41 $-1 $191 forward single #
loop $-1 $192 $193 $75 #
cone-surface $-1 68.167212589436403 -10.86487948924297 8.6217741266103296 -0.81915205242281985 0 -0.57357642473473569 0.14339410618368392 0 -0.20478801310570496 1 I I -0.70710678118654746 0.70710678118654746 0.25 forward I I I I #
loop $-1 $-1 $194 $53 #
coedge $-1 $121 $121 $195 $196 reversed $76 $-1 #
face $-1 $-1 $197 $42 $-1 $198 forward single #
loop $-1 $199 $200 $78 #
cone-surface $-1 68.167212589436403 -8.0903840046797484 8.6217741266103296 -0.81915205242281985 0 -0.57357642473473569 0.14339410618368392 0 -0.20478801310570496 1 I I -0.70710678118654746 0.70710678118654746 0.25 forward I I I I #
loop $-1 $-1 $201 $54 #
coedge $-1 $126 $126 $202 $203 reversed $79 $-1 #
face $-1 $-1 $204 $43 $-1 $205 forward single #
loop $-1 $206 $207 $81 #
cone-surface $-1 68.167212589436403 -5.3158885201165269 8.6217741266103296 -0.81915205242281985 0 -0.57357642473473569 0.14339410618368392 0 -0.20478801310570496 1 I I -0.70710678118654746 0.70710678118654746 0.25 forward I I I I #
loop $-1 $-1 $208 $55 #
coedge $-1 $131 $131 $209 $210 reversed $82 $-1 #
face $-1 $211 $212 $44 $-1 $213 reversed single #
loop $-1 $-1 $214 $84 #
plane-surface $-1 -10.678068582432061 22.207818294841445 123.49597242490125 0.81915205242281985 0 0.57357642473473569 0.57357642473473569 0 -0.81915205242281985 forward_v I I I I #
coedge $-1 $215 $216 $217 $218 reversed $85 $-1 #
face $-1 $-1 $219 $45 $-1 $220 forward single #
loop $-1 $221 $222 $87 #
cone-surface $-1 68.167212589436403 19.43332281027822 8.6217741266103296 -0.81915205242281985 0 -0.57357642473473569 0.14339410618368392 0 -0.20478801310570496 1 I I -0.70710678118654746 0.70710678118654746 0.25 forward I I I I #
loop $-1 $-1 $223 $57 #
coedge $-1 $140 $140 $224 $225 reversed $88 $-1 #
face $-1 $-1 $226 $46 $-1 $227 forward single #
loop $-1 $228 $229 $90 #
cone-surface $-1 68.167212589436403 22.207818294841445 8.6217741266103296 -0.81915205242281985 0 -0.57357642473473569 0.14339410618368392 0 -0.20478801310570496 1 I I -0.70710678118654746 0.70710678118654746 0.25 forward I I I I #
loop $-1 $-1 $230 $58 #
coedge $-1 $145 $145 $231 $232 reversed $91 $-1 #
face $-1 $-1 $233 $47 $-1 $234 forward single #
loop $-1 $235 $236 $93 #
cone-surface $-1 68.167212589436403 24.98231377940467 8.6217741266103296 -0.81915205242281985 0 -0.57357642473473569 0.14339410618368392 0 -0.20478801310570496 1 I I -0.70710678118654746 0.70710678118654746 0.25 forward I I I I #
loop $-1 $-1 $237 $59 #
coedge $-1 $150 $150 $238 $239 reversed $94 $-1 #
face $-1 $240 $241 $36 $-1 $242 reversed single #
loop $-1 $-1 $243 $96 #
plane-surface $-1 0 -32.701071046936384 0 0 1 0 0 0 1 forward_v I I I I #
coedge $-1 $244 $245 $246 $247 forward $97 $-1 #
coedge $-1 $248 $99 $249 $250 forward $61 $-1 #
coedge $-1 $99 $248 $251 $252 forward $61 $-1 #
coedge $-1 $253 $254 $99 $158 reversed $255 $-1 #
edge $-1 $256 -32.701071046936384 $257 32.701071046936384 $157 $258 forward 7 unknown #
face $-1 $259 $260 $37 $-1 $261 reversed single #
loop $-1 $-1 $262 $100 #
plane-surface $-1 0 -18.583636756774681 -1.5480706288827122 0 -1 0 0 0 -1 forward_v I I I I #
coedge $-1 $263 $264 $265 $266 reversed $101 $-1 #
coedge $-1 $267 $103 $268 $269 forward $64 $-1 #
coedge $-1 $103 $267 $270 $271 reversed $64 $-1 #
coedge $-1 $272 $273 $103 $166 forward $274 $-1 #
edge $-1 $275 5.7624598058469143 $276 19.87989409600862 $165 $277 forward 7 unknown #
face $-1 $278 $279 $38 $-1 $280 reversed single #
loop $-1 $-1 $281 $104 #
plane-surface $-1 -159.90524826591752 27.095664862759914 117.08629050982596 0 -1 0 0.6018150307709319 0 -0.79863550430605224 forward_v I I I I #
coedge $-1 $282 $283 $284 $285 reversed $105 $-1 #
coedge $-1 $172 $107 $286 $287 reversed $67 $-1 #
coedge $-1 $107 $171 $282 $288 reversed $67 $-1 #
coedge $-1 $284 $289 $107 $174 forward $290 $-1 #
edge $-1 $291 7.3881537816907183 $292 24.564966491782158 $173 $293 forward 7 unknown #
loop $-1 $-1 $180 $108 #
plane-surface $-1 -72.564470351268014 22.477198953965676 1.1811657624529062 -0.6018150307709319 0 0.79863550430605224 0.79863550430605224 0 0.6018150307709319 forward_v I I I I #
loop $-1 $-1 $294 $69 #
coedge $-1 $178 $178 $179 $295 reversed $109 $-1 #
coedge $-1 $179 $179 $178 $295 forward $111 $-1 #
coedge $-1 $180 $180 $112 $181 forward $175 $-1 #
edge $-1 $296 0 $296 6.2831853071796004 $180 $297 forward 7 unknown #
face $-1 $298 $299 $40 $-1 $300 forward single #
loop $-1 $-1 $301 $113 #
plane-surface $-1 108.20460106000009 -12.71454314561845 206.73851135860136 0 1 0 0.81915205242281985 0 0.57357642473473569 forward_v I I I I #
coedge $-1 $302 $303 $304 $305 reversed $114 $-1 #
coedge $-1 $187 $116 $306 $307 reversed $73 $-1 #
coedge $-1 $116 $186 $302 $308 reversed $73 $-1 #
coedge $-1 $304 $309 $116 $189 forward $299 $-1 #
edge $-1 $310 -18.462169821267999 $311 -11.802132002732968 $188 $312 forward 7 unknown #
loop $-1 $-1 $195 $117 #
plane-surface $-1 -10.678068582432061 -8.0903840046797484 123.49597242490125 0.81915205242281985 0 0.57357642473473569 0.57357642473473569 0 -0.81915205242281985 forward_v I I I I #
loop $-1 $-1 $313 $75 #
coedge $-1 $193 $193 $194 $314 reversed $118 $-1 #
coedge $-1 $194 $194 $193 $314 forward $120 $-1 #
coedge $-1 $195 $195 $121 $196 forward $190 $-1 #
edge $-1 $315 0 $315 6.2831853071796004 $195 $316 forward 7 unknown #
loop $-1 $-1 $202 $122 #
plane-surface $-1 -10.678068582432061 -8.0903840046797484 123.49597242490125 0.81915205242281985 0 0.57357642473473569 0.57357642473473569 0 -0.81915205242281985 forward_v I I I I #
loop $-1 $-1 $317 $78 #
coedge $-1 $200 $200 $201 $318 reversed $123 $-1 #
coedge $-1 $201 $201 $200 $318 forward $125 $-1 #
coedge $-1 $202 $202 $126 $203 forward $197 $-1 #
edge $-1 $319 0 $319 6.2831853071796004 $202 $320 forward 7 unknown #
loop $-1 $-1 $209 $127 #
plane-surface $-1 -10.678068582432061 -8.0903840046797484 123.49597242490125 0.81915205242281985 0 0.57357642473473569 0.57357642473473569 0 -0.81915205242281985 forward_v I I I I #
loop $-1 $-1 $321 $81 #
coedge $-1 $207 $207 $208 $322 reversed $128 $-1 #
coedge $-1 $208 $208 $207 $322 forward $130 $-1 #
coedge $-1 $209 $209 $131 $210 forward $204 $-1 #
edge $-1 $323 0 $323 6.2831853071796004 $209 $324 forward 7 unknown #
face $-1 $325 $326 $44 $-1 $327 reversed single #
loop $-1 $-1 $328 $132 #
plane-surface $-1 108.20460106000009 17.583659153902744 206.73851135860136 0 1 0 0.81915205242281985 0 0.57357642473473569 forward_v I I I I #
coedge $-1 $329 $330 $331 $332 reversed $133 $-1 #
coedge $-1 $216 $135 $333 $334 reversed $85 $-1 #
coedge $-1 $135 $215 $329 $335 reversed $85 $-1 #
coedge $-1 $331 $336 $135 $218 forward $337 $-1 #
edge $-1 $338 -18.462169821267999 $339 -11.802132002732968 $217 $340 forward 7 unknown #
loop $-1 $-1 $224 $136 #
plane-surface $-1 -10.678068582432061 22.207818294841445 123.49597242490125 0.81915205242281985 0 0.57357642473473569 0.57357642473473569 0 -0.81915205242281985 forward_v I I I I #
loop $-1 $-1 $341 $87 #
coedge $-1 $222 $222 $223 $342 reversed $137 $-1 #
coedge $-1 $223 $223 $222 $342 forward $139 $-1 #
coedge $-1 $224 $224 $140 $225 forward $219 $-1 #
edge $-1 $343 0 $343 6.2831853071796004 $224 $344 forward 7 unknown #
loop $-1 $-1 $231 $141 #
plane-surface $-1 -10.678068582432061 22.207818294841445 123.49597242490125 0.81915205242281985 0 0.57357642473473569 0.57357642473473569 0 -0.81915205242281985 forward_v I I I I #
loop $-1 $-1 $345 $90 #
coedge $-1 $229 $229 $230 $346 reversed $142 $-1 #
coedge $-1 $230 $230 $229 $346 forward $144 $-1 #
coedge $-1 $231 $231 $145 $232 forward $226 $-1 #
edge $-1 $347 0 $347 6.2831853071796004 $231 $348 forward 7 unknown #
loop $-1 $-1 $238 $146 #
plane-surface $-1 -10.678068582432061 22.207818294841445 123.49597242490125 0.81915205242281985 0 0.57357642473473569 0.57357642473473569 0 -0.81915205242281985 forward_v I I I I #
loop $-1 $-1 $349 $93 #
coedge $-1 $236 $236 $237 $350 reversed $147 $-1 #
coedge $-1 $237 $237 $236 $350 forward $149 $-1 #
coedge $-1 $238 $238 $150 $239 forward $233 $-1 #
edge $-1 $351 0 $351 6.2831853071796004 $238 $352 forward 7 unknown #
face $-1 $353 $354 $36 $-1 $355 reversed single #
loop $-1 $-1 $356 $151 #
plane-surface $-1 -72.564470351268042 0 0 1 0 0 0 0 -1 forward_v I I I I #
coedge $-1 $357 $251 $358 $359 forward $152 $-1 #
coedge $-1 $360 $154 $357 $361 forward $97 $-1 #
coedge $-1 $154 $360 $362 $363 forward $97 $-1 #
coedge $-1 $254 $253 $154 $247 reversed $255 $-1 #
edge $-1 $364 -32.701071046936384 $365 32.701071046936384 $246 $366 forward 7 unknown #
coedge $-1 $156 $155 $367 $368 forward $61 $-1 #
coedge $-1 $369 $370 $155 $250 reversed $354 $-1 #
edge $-1 $257 -72.564470351268042 $371 72.564470351268042 $249 $372 forward 7 unknown #
coedge $-1 $243 $373 $156 $252 reversed $152 $-1 #
edge $-1 $374 -72.564470351268042 $256 72.564470351268042 $251 $375 forward 7 unknown #
coedge $-1 $246 $157 $373 $376 forward $255 $-1 #
coedge $-1 $157 $246 $369 $377 reversed $255 $-1 #
loop $-1 $-1 $253 $353 #
vertex $-1 $158 $378 #
vertex $-1 $158 $379 #
straight-curve $-1 72.564470351268042 0 14.124822804913624 0 1 0 I I #
face $-1 $380 $381 $37 $-1 $382 reversed single #
loop $-1 $-1 $383 $159 #
plane-surface $-1 -72.564470351268042 0 0 1 0 0 0 0 -1 forward_v I I I I #
coedge $-1 $384 $268 $273 $385 reversed $160 $-1 #
coedge $-1 $386 $162 $387 $388 reversed $101 $-1 #
coedge $-1 $162 $386 $384 $389 forward $101 $-1 #
coedge $-1 $273 $272 $162 $266 forward $274 $-1 #
edge $-1 $390 -19.87989409600862 $391 -5.7624598058469143 $265 $392 forward 7 unknown #
coedge $-1 $164 $163 $383 $393 reversed $64 $-1 #
coedge $-1 $262 $394 $163 $269 reversed $160 $-1 #
edge $-1 $275 -72.564470351268042 $395 72.564470351268042 $268 $396 forward 7 unknown #
coedge $-1 $397 $398 $164 $271 forward $381 $-1 #
edge $-1 $276 -72.564470351268042 $399 72.564470351268042 $270 $400 forward 7 unknown #
coedge $-1 $265 $165 $398 $401 forward $274 $-1 #
coedge $-1 $165 $265 $262 $385 forward $274 $-1 #
loop $-1 $-1 $165 $380 #
vertex $-1 $166 $402 #
vertex $-1 $401 $403 #
straight-curve $-1 72.564470351268042 -12.821176950927766 0.69999490686682364 0 -1 0 I I #
face $-1 $-1 $290 $38 $-1 $404 forward single #
loop $-1 $-1 $405 $167 #
plane-surface $-1 -72.564470351268042 0 0 1 0 0 0 0 -1 forward_v I I I I #
coedge $-1 $406 $407 $408 $409 reversed $168 $-1 #
coedge $-1 $410 $170 $172 $288 forward $105 $-1 #
coedge $-1 $170 $410 $406 $411 forward $105 $-1 #
coedge $-1 $408 $173 $170 $285 forward $290 $-1 #
edge $-1 $292 6.6201335681885993 $412 15.857065385777076 $284 $413 forward 7 unknown #
coedge $-1 $414 $415 $171 $287 forward $279 $-1 #
edge $-1 $416 -57.361979492460094 $291 -44.418322449999351 $286 $417 forward 7 unknown #
edge $-1 $292 -21.507699842391347 $416 3.5527045195756588e-014 $172 $418 forward 7 unknown #
coedge $-1 $173 $408 $414 $419 forward $290 $-1 #
loop $-1 $-1 $408 $278 #
vertex $-1 $287 $420 #
vertex $-1 $174 $421 #
straight-curve $-1 -79.952624132958761 17.858733045171437 14.12482280491362 1 0 0 I I #
coedge $-1 $294 $294 $-1 $422 reversed $177 $-1 #
edge $-1 $423 0 $423 6.2831853071796004 $178 $424 forward 7 unknown #
vertex $-1 $181 $425 #
ellipse-curve $-1 -63.976063996222322 22.477198953965676 7.6529942836832499 -0.6018150307709319 0 0.79863550430605224 1.1979532564590785 0 0.90272254615639791 1 I I #
face $-1 $-1 $426 $40 $-1 $427 reversed single #
loop $-1 $-1 $188 $182 #
plane-surface $-1 0 0 14.124822804913624 0 0 1 1 0 0 forward_v I I I I #
coedge $-1 $428 $429 $430 $431 reversed $183 $-1 #
coedge $-1 $432 $185 $187 $308 forward $114 $-1 #
coedge $-1 $185 $432 $428 $433 forward $114 $-1 #
coedge $-1 $430 $188 $185 $305 forward $299 $-1 #
edge $-1 $311 -0.57896713859882709 $434 8.6693511432785755 $304 $435 forward 7 unknown #
coedge $-1 $436 $437 $186 $307 forward $426 $-1 #
edge $-1 $438 -98.755952896831573 $310 -89.244432874387059 $306 $439 forward 7 unknown #
edge $-1 $311 133.5175188739365 $438 145.12894070253611 $187 $440 forward 7 unknown #
coedge $-1 $188 $430 $436 $441 forward $299 $-1 #
vertex $-1 $307 $442 #
vertex $-1 $189 $443 #
straight-curve $-1 54.102300530000043 -3.4662248637410471 14.12482280491362 -1 0 0 I I #
coedge $-1 $313 $313 $-1 $444 reversed $192 $-1 #
edge $-1 $445 0 $445 6.2831853071796004 $193 $446 forward 7 unknown #
vertex $-1 $196 $447 #
ellipse-curve $-1 69.234451442000534 -10.86487948924297 9.3690627936913522 0.81915205242281985 0 0.57357642473473569 0.28678821236736785 0 -0.40957602621140993 1 I I #
coedge $-1 $317 $317 $-1 $448 reversed $199 $-1 #
edge $-1 $449 0 $449 6.2831853071796004 $200 $450 forward 7 unknown #
vertex $-1 $203 $451 #
ellipse-curve $-1 69.234451442000534 -8.0903840046797484 9.3690627936913522 0.81915205242281985 0 0.57357642473473569 0.28678821236736785 0 -0.40957602621140993 1 I I #
coedge $-1 $321 $321 $-1 $452 reversed $206 $-1 #
edge $-1 $453 0 $453 6.2831853071796004 $207 $454 forward 7 unknown #
vertex $-1 $210 $455 #
ellipse-curve $-1 69.234451442000534 -5.3158885201165269 9.3690627936913522 0.81915205242281985 0 0.57357642473473569 0.28678821236736785 0 -0.40957602621140993 1 I I #
face $-1 $-1 $337 $44 $-1 $456 forward single #
loop $-1 $-1 $457 $211 #
plane-surface $-1 72.564470351268042 0 0 -1 0 0 0 0 1 forward_v I I I I #
coedge $-1 $458 $459 $460 $461 reversed $212 $-1 #
coedge $-1 $462 $214 $216 $335 forward $133 $-1 #
coedge $-1 $214 $462 $458 $463 forward $133 $-1 #
coedge $-1 $460 $217 $214 $332 forward $337 $-1 #
edge $-1 $339 -15.728068288359424 $464 -6.4797500064820213 $331 $465 forward 7 unknown #
coedge $-1 $466 $467 $215 $334 forward $326 $-1 #
edge $-1 $468 -98.755952896831573 $338 -89.244432874387059 $333 $469 forward 7 unknown #
edge $-1 $339 133.5175188739365 $468 145.12894070253611 $216 $470 forward 7 unknown #
coedge $-1 $217 $460 $466 $471 forward $337 $-1 #
loop $-1 $-1 $460 $325 #
vertex $-1 $334 $472 #
vertex $-1 $218 $473 #
straight-curve $-1 54.102300530000043 26.831977435780146 14.12482280491362 -1 0 0 I I #
coedge $-1 $341 $341 $-1 $474 reversed $221 $-1 #
edge $-1 $475 0 $475 6.2831853071796004 $222 $476 forward 7 unknown #
vertex $-1 $225 $477 #
ellipse-curve $-1 69.234451442000534 19.43332281027822 9.3690627936913522 0.81915205242281985 0 0.57357642473473569 0.28678821236736785 0 -0.40957602621140993 1 I I #
coedge $-1 $345 $345 $-1 $478 reversed $228 $-1 #
edge $-1 $479 0 $479 6.2831853071796004 $229 $480 forward 7 unknown #
vertex $-1 $232 $481 #
ellipse-curve $-1 69.234451442000534 22.207818294841445 9.3690627936913522 0.81915205242281985 0 0.57357642473473569 0.28678821236736785 0 -0.40957602621140993 1 I I #
coedge $-1 $349 $349 $-1 $482 reversed $235 $-1 #
edge $-1 $483 0 $483 6.2831853071796004 $236 $484 forward 7 unknown #
vertex $-1 $239 $485 #
ellipse-curve $-1 69.234451442000534 24.98231377940467 9.3690627936913522 0.81915205242281985 0 0.57357642473473569 0.28678821236736785 0 -0.40957602621140993 1 I I #
face $-1 $-1 $255 $36 $-1 $486 reversed single #
loop $-1 $-1 $369 $240 #
plane-surface $-1 0 32.701071046936384 0 0 -1 0 0 0 -1 forward_v I I I I #
coedge $-1 $487 $367 $370 $488 forward $241 $-1 #
coedge $-1 $373 $243 $244 $361 reversed $152 $-1 #
coedge $-1 $367 $487 $243 $359 reversed $241 $-1 #
edge $-1 $374 -14.124822804913624 $489 14.124822804913624 $358 $490 forward 7 unknown #
coedge $-1 $245 $244 $487 $491 forward $97 $-1 #
edge $-1 $365 -72.564470351268042 $489 72.564470351268042 $357 $492 forward 7 unknown #
coedge $-1 $370 $369 $245 $363 reversed $354 $-1 #
edge $-1 $493 -72.564470351268042 $364 72.564470351268042 $362 $494 forward 7 unknown #
vertex $-1 $247 $495 #
vertex $-1 $376 $496 #
straight-curve $-1 72.564470351268042 0 -14.124822804913624 0 -1 0 I I #
coedge $-1 $356 $358 $248 $368 reversed $241 $-1 #
edge $-1 $371 -32.701071046936384 $374 32.701071046936384 $367 $497 forward 7 unknown #
coedge $-1 $362 $249 $254 $377 forward $354 $-1 #
coedge $-1 $249 $362 $356 $488 reversed $354 $-1 #
vertex $-1 $250 $498 #
straight-curve $-1 0 32.701071046936384 14.124822804913624 -1 0 0 I I #
coedge $-1 $251 $357 $253 $376 reversed $152 $-1 #
vertex $-1 $368 $499 #
straight-curve $-1 0 -32.701071046936384 14.124822804913624 1 0 0 I I #
edge $-1 $256 -14.124822804913624 $365 14.124822804913624 $253 $500 forward 7 unknown #
edge $-1 $257 -14.124822804913624 $364 14.124822804913624 $254 $501 forward 7 unknown #
point $-1 72.564470351268042 -32.701071046936384 14.124822804913624 #
point $-1 72.564470351268042 32.701071046936384 14.124822804913624 #
face $-1 $-1 $274 $37 $-1 $502 reversed single #
loop $-1 $-1 $270 $259 #
plane-surface $-1 0 -32.701071046936384 0 0 1 0 0 0 1 forward_v I I I I #
coedge $-1 $503 $504 $267 $393 forward $260 $-1 #
coedge $-1 $394 $262 $264 $389 reversed $160 $-1 #
edge $-1 $391 -3.0221008501908919 $275 1.4740302213081797 $273 $505 forward 7 unknown #
coedge $-1 $264 $263 $506 $507 reversed $101 $-1 #
coedge $-1 $398 $397 $263 $388 forward $381 $-1 #
edge $-1 $508 -72.564470351268042 $390 72.564470351268042 $387 $509 forward 7 unknown #
edge $-1 $510 -72.564470351268042 $391 72.564470351268042 $384 $511 forward 7 unknown #
vertex $-1 $388 $512 #
vertex $-1 $266 $513 #
straight-curve $-1 72.564470351268042 -12.821176950927766 -3.796136164632248 0 1 0 I I #
edge $-1 $399 -19.87989409600862 $395 -5.7624598058469143 $383 $514 forward 7 unknown #
coedge $-1 $268 $384 $503 $515 reversed $160 $-1 #
vertex $-1 $393 $516 #
straight-curve $-1 0 -18.583636756774681 0.69999490686682364 -1 0 0 I I #
coedge $-1 $387 $270 $504 $517 forward $381 $-1 #
coedge $-1 $270 $387 $272 $401 reversed $381 $-1 #
vertex $-1 $517 $518 #
straight-curve $-1 0 -32.701071046936384 0.69999490686682364 -1 0 0 I I #
edge $-1 $276 -0.69999490686682364 $390 3.796136164632248 $272 $519 forward 7 unknown #
point $-1 72.564470351268042 -18.583636756774681 0.69999490686682364 #
point $-1 72.564470351268042 -32.701071046936384 0.69999490686682364 #
plane-surface $-1 0 0 14.124822804913624 0 0 1 1 0 0 forward_v I I I I #
coedge $-1 $415 $414 $407 $520 forward $279 $-1 #
coedge $-1 $407 $281 $283 $411 reversed $168 $-1 #
coedge $-1 $281 $406 $405 $520 reversed $168 $-1 #
coedge $-1 $289 $284 $281 $409 forward $290 $-1 #
edge $-1 $412 -24.564966491782158 $521 -7.3881537816907183 $408 $522 forward 7 unknown #
coedge $-1 $283 $282 $415 $523 reversed $105 $-1 #
edge $-1 $524 -3.5527045195756588e-014 $412 21.507699842391347 $406 $525 forward 7 unknown #
vertex $-1 $285 $526 #
straight-curve $-1 -55.387657641176602 11.238599476982838 14.124822804913624 0 1 0 I I #
coedge $-1 $405 $286 $289 $419 reversed $279 $-1 #
coedge $-1 $286 $405 $410 $523 forward $279 $-1 #
vertex $-1 $287 $527 #
straight-curve $-1 -72.564470351268042 17.858733045171437 58.543145254912979 0 0 1 I I #
straight-curve $-1 -72.564470351268014 17.858733045171437 1.1811657624529062 -0.79863550430605224 0 -0.6018150307709319 I I #
edge $-1 $521 -27.095664862759914 $291 -17.858733045171437 $414 $528 forward 7 unknown #
point $-1 -72.564470351268042 17.858733045171437 14.124822804913624 #
point $-1 -55.387657641176602 17.858733045171437 14.124822804913624 #
edge $-1 $529 1 $529 0 $294 $-1 forward 7 unknown #
vertex $-1 $295 $530 #
ellipse-curve $-1 -62.24536136637856 22.477198953965676 5.3562743665710562 -0.6018150307709319 0 0.79863550430605224 1.1979532564590785 0 0.90272254615639791 1 I I #
point $-1 -62.778110739763257 22.477198953965676 8.555716829839664 #
loop $-1 $-1 $306 $298 #
plane-surface $-1 72.564470351268042 0 0 -1 0 0 0 0 1 forward_v I I I I #
coedge $-1 $429 $301 $303 $433 reversed $183 $-1 #
coedge $-1 $301 $428 $531 $532 reversed $183 $-1 #
coedge $-1 $309 $304 $301 $431 forward $299 $-1 #
edge $-1 $434 11.802132002732968 $533 18.462169821267999 $430 $534 forward 7 unknown #
coedge $-1 $303 $302 $437 $535 reversed $114 $-1 #
edge $-1 $536 -145.12894070253611 $434 -133.5175188739365 $428 $537 forward 7 unknown #
vertex $-1 $305 $538 #
straight-curve $-1 65.904432532733011 -4.0451920023398742 14.12482280491362 0 -1 0 I I #
coedge $-1 $531 $306 $309 $441 reversed $426 $-1 #
coedge $-1 $306 $531 $432 $535 forward $426 $-1 #
vertex $-1 $307 $539 #
straight-curve $-1 72.564470351268042 -3.4662248637410471 103.36925567930068 0 0 1 I I #
straight-curve $-1 -10.678068582432061 -3.4662248637410471 123.49597242490125 0.57357642473473569 0 -0.81915205242281985 I I #
edge $-1 $533 -12.71454314561845 $310 -3.4662248637410471 $436 $540 forward 7 unknown #
point $-1 72.564470351268042 -3.4662248637410471 14.124822804913624 #
point $-1 65.904432532733011 -3.4662248637410471 14.124822804913606 #
edge $-1 $541 1 $541 0 $313 $-1 forward 7 unknown #
vertex $-1 $314 $542 #
ellipse-curve $-1 68.372000602542101 -10.86487948924297 8.7651682327940144 0.81915205242281985 0 0.57357642473473569 0.28678821236736785 0 -0.40957602621140993 1 I I #
point $-1 69.521239654367918 -10.86487948924297 8.9594867674799588 #
edge $-1 $543 1 $543 0 $317 $-1 forward 7 unknown #
vertex $-1 $318 $544 #
ellipse-curve $-1 68.372000602542101 -8.0903840046797484 8.7651682327940144 0.81915205242281985 0 0.57357642473473569 0.28678821236736785 0 -0.40957602621140993 1 I I #
point $-1 69.521239654367918 -8.0903840046797484 8.9594867674799588 #
edge $-1 $545 1 $545 0 $321 $-1 forward 7 unknown #
vertex $-1 $322 $546 #
ellipse-curve $-1 68.372000602542101 -5.3158885201165269 8.7651682327940144 0.81915205242281985 0 0.57357642473473569 0.28678821236736785 0 -0.40957602621140993 1 I I #
point $-1 69.521239654367918 -5.3158885201165269 8.9594867674799588 #
plane-surface $-1 0 0 14.124822804913624 0 0 1 1 0 0 forward_v I I I I #
coedge $-1 $467 $466 $459 $547 forward $326 $-1 #
coedge $-1 $459 $328 $330 $463 reversed $212 $-1 #
coedge $-1 $328 $458 $457 $547 reversed $212 $-1 #
coedge $-1 $336 $331 $328 $461 forward $337 $-1 #
edge $-1 $464 11.802132002732968 $548 18.462169821267999 $460 $549 forward 7 unknown #
coedge $-1 $330 $329 $467 $550 reversed $133 $-1 #
edge $-1 $551 -145.12894070253611 $464 -133.5175188739365 $458 $552 forward 7 unknown #
vertex $-1 $332 $553 #
straight-curve $-1 65.904432532733011 11.103909147420723 14.12482280491362 0 -1 0 I I #
coedge $-1 $457 $333 $336 $471 reversed $326 $-1 #
coedge $-1 $333 $457 $462 $550 forward $326 $-1 #
vertex $-1 $334 $554 #
straight-curve $-1 72.564470351268042 26.831977435780146 103.36925567930068 0 0 1 I I #
straight-curve $-1 -10.678068582432061 26.831977435780146 123.49597242490125 0.57357642473473569 0 -0.81915205242281985 I I #
edge $-1 $548 17.583659153902744 $338 26.831977435780146 $466 $555 forward 7 unknown #
point $-1 72.564470351268042 26.831977435780146 14.124822804913624 #
point $-1 65.904432532733011 26.831977435780146 14.124822804913606 #
edge $-1 $556 1 $556 0 $341 $-1 forward 7 unknown #
vertex $-1 $342 $557 #
ellipse-curve $-1 68.372000602542101 19.43332281027822 8.7651682327940144 0.81915205242281985 0 0.57357642473473569 0.28678821236736785 0 -0.40957602621140993 1 I I #
point $-1 69.521239654367918 19.43332281027822 8.9594867674799588 #
edge $-1 $558 1 $558 0 $345 $-1 forward 7 unknown #
vertex $-1 $346 $559 #
ellipse-curve $-1 68.372000602542101 22.207818294841445 8.7651682327940144 0.81915205242281985 0 0.57357642473473569 0.28678821236736785 0 -0.40957602621140993 1 I I #
point $-1 69.521239654367918 22.207818294841445 8.9594867674799588 #
edge $-1 $560 1 $560 0 $349 $-1 forward 7 unknown #
vertex $-1 $350 $561 #
ellipse-curve $-1 68.372000602542101 24.98231377940467 8.7651682327940144 0.81915205242281985 0 0.57357642473473569 0.28678821236736785 0 -0.40957602621140993 1 I I #
point $-1 69.521239654367918 24.98231377940467 8.9594867674799588 #
plane-surface $-1 72.564470351268042 0 0 -1 0 0 0 0 1 forward_v I I I I #
coedge $-1 $358 $356 $360 $491 reversed $241 $-1 #
edge $-1 $371 -14.124822804913624 $493 14.124822804913624 $370 $562 forward 7 unknown #
vertex $-1 $491 $563 #
straight-curve $-1 -72.564470351268042 -32.701071046936384 0 0 0 -1 I I #
edge $-1 $489 -32.701071046936384 $493 32.701071046936384 $487 $564 forward 7 unknown #
straight-curve $-1 0 -32.701071046936384 -14.124822804913624 -1 0 0 I I #
vertex $-1 $363 $565 #
straight-curve $-1 0 32.701071046936384 -14.124822804913624 1 0 0 I I #
point $-1 72.564470351268042 32.701071046936384 -14.124822804913624 #
point $-1 72.564470351268042 -32.701071046936384 -14.124822804913624 #
straight-curve $-1 -72.564470351268042 0 14.124822804913624 0 -1 0 I I #
point $-1 -72.564470351268042 32.701071046936384 14.124822804913624 #
point $-1 -72.564470351268042 -32.701071046936384 14.124822804913624 #
straight-curve $-1 72.564470351268042 -32.701071046936384 0 0 0 -1 I I #
straight-curve $-1 72.564470351268042 32.701071046936384 0 0 0 -1 I I #
plane-surface $-1 72.564470351268042 0 0 -1 0 0 0 0 1 forward_v I I I I #
coedge $-1 $506 $383 $394 $515 forward $260 $-1 #
coedge $-1 $383 $506 $397 $517 reversed $260 $-1 #
straight-curve $-1 72.564470351268042 -18.583636756774681 -0.77403531444135609 0 0 1 I I #
coedge $-1 $504 $503 $386 $507 forward $260 $-1 #
edge $-1 $510 5.7624598058469143 $508 19.87989409600862 $506 $566 forward 7 unknown #
vertex $-1 $388 $567 #
straight-curve $-1 0 -32.701071046936384 -3.796136164632248 1 0 0 I I #
vertex $-1 $507 $568 #
straight-curve $-1 0 -18.583636756774681 -3.796136164632248 1 0 0 I I #
point $-1 72.564470351268042 -32.701071046936384 -3.796136164632248 #
point $-1 72.564470351268042 -18.583636756774681 -3.796136164632248 #
straight-curve $-1 -72.564470351268042 -12.821176950927766 0.69999490686682364 0 1 0 I I #
edge $-1 $395 -1.4740302213081797 $510 3.0221008501908919 $503 $569 forward 7 unknown #
point $-1 -72.564470351268042 -18.583636756774681 0.69999490686682364 #
edge $-1 $399 -0.69999490686682364 $508 3.796136164632248 $504 $570 forward 7 unknown #
point $-1 -72.564470351268042 -32.701071046936384 0.69999490686682364 #
straight-curve $-1 72.564470351268042 -32.701071046936384 0 0 0 -1 I I #
edge $-1 $521 44.418322449999351 $524 57.361979492460094 $405 $571 forward 7 unknown #
vertex $-1 $419 $572 #
straight-curve $-1 -79.952624132958761 27.095664862759914 14.12482280491362 -1 0 0 I I #
edge $-1 $524 -15.857065385777076 $416 -6.6201335681885993 $415 $573 forward 7 unknown #
vertex $-1 $523 $574 #
straight-curve $-1 -72.564470351268014 27.095664862759914 1.1811657624529062 0.79863550430605224 0 0.6018150307709319 I I #
point $-1 -55.387657641176602 27.095664862759914 14.124822804913624 #
point $-1 -72.564470351268042 17.858733045171437 1.1811657624528848 #
straight-curve $-1 -72.564470351268042 0 14.124822804913624 0 -1 0 I I #
vertex $-1 $422 $575 #
point $-1 -61.047408109919481 22.477198953965676 6.2589969127274543 #
coedge $-1 $437 $436 $429 $532 forward $426 $-1 #
edge $-1 $533 89.244432874387059 $536 98.755952896831573 $531 $576 forward 7 unknown #
vertex $-1 $441 $577 #
straight-curve $-1 54.102300530000043 -12.71454314561845 14.12482280491362 1 0 0 I I #
edge $-1 $536 -8.6693511432785755 $438 0.57896713859882709 $437 $578 forward 7 unknown #
vertex $-1 $535 $579 #
straight-curve $-1 -10.678068582432061 -12.71454314561845 123.49597242490125 -0.57357642473473569 0 0.81915205242281985 I I #
point $-1 65.904432532733011 -12.71454314561845 14.124822804913606 #
point $-1 72.564470351268042 -3.4662248637410471 4.6133027824691055 #
straight-curve $-1 72.564470351268042 0 14.124822804913624 0 1 0 I I #
vertex $-1 $444 $580 #
point $-1 68.658788814909471 -10.86487948924297 8.3555922065826032 #
vertex $-1 $448 $581 #
point $-1 68.658788814909471 -8.0903840046797484 8.3555922065826032 #
vertex $-1 $452 $582 #
point $-1 68.658788814909471 -5.3158885201165269 8.3555922065826032 #
edge $-1 $548 89.244432874387059 $551 98.755952896831573 $457 $583 forward 7 unknown #
vertex $-1 $471 $584 #
straight-curve $-1 54.102300530000043 17.583659153902744 14.12482280491362 1 0 0 I I #
edge $-1 $551 6.4797500064820213 $468 15.728068288359424 $467 $585 forward 7 unknown #
vertex $-1 $550 $586 #
straight-curve $-1 -10.678068582432061 17.583659153902744 123.49597242490125 -0.57357642473473569 0 0.81915205242281985 I I #
point $-1 65.904432532733011 17.583659153902744 14.124822804913606 #
point $-1 72.564470351268042 26.831977435780146 4.6133027824691055 #
straight-curve $-1 72.564470351268042 0 14.124822804913624 0 1 0 I I #
vertex $-1 $474 $587 #
point $-1 68.658788814909471 19.43332281027822 8.3555922065826032 #
vertex $-1 $478 $588 #
point $-1 68.658788814909471 22.207818294841445 8.3555922065826032 #
vertex $-1 $482 $589 #
point $-1 68.658788814909471 24.98231377940467 8.3555922065826032 #
straight-curve $-1 -72.564470351268042 32.701071046936384 0 0 0 -1 I I #
point $-1 -72.564470351268042 -32.701071046936384 -14.124822804913624 #
straight-curve $-1 -72.564470351268042 0 -14.124822804913624 0 1 0 I I #
point $-1 -72.564470351268042 32.701071046936384 -14.124822804913624 #
straight-curve $-1 -72.564470351268042 -12.821176950927766 -3.796136164632248 0 -1 0 I I #
point $-1 -72.564470351268042 -32.701071046936384 -3.796136164632248 #
point $-1 -72.564470351268042 -18.583636756774681 -3.796136164632248 #
straight-curve $-1 -72.564470351268042 -18.583636756774681 -0.77403531444135609 0 0 -1 I I #
straight-curve $-1 -72.564470351268042 -32.701071046936384 0 0 0 -1 I I #
straight-curve $-1 -72.564470351268042 27.095664862759914 58.543145254912979 0 0 -1 I I #
point $-1 -72.564470351268042 27.095664862759914 14.124822804913624 #
straight-curve $-1 -72.564470351268042 11.238599476982838 1.1811657624528842 0 -1 0 I I #
point $-1 -72.564470351268042 27.095664862759914 1.1811657624528848 #
point $-1 -61.342638820222163 22.477198953965676 4.1583211101119781 #
straight-curve $-1 72.564470351268042 -12.71454314561845 103.36925567930068 0 0 -1 I I #
point $-1 72.564470351268042 -12.71454314561845 14.124822804913624 #
straight-curve $-1 72.564470351268056 -4.0451920023398742 4.6133027824690984 0 1 0 I I #
point $-1 72.564470351268042 -12.71454314561845 4.6133027824691055 #
point $-1 67.962424576330704 -10.86487948924297 8.4783800204266448 #
point $-1 67.962424576330704 -8.0903840046797484 8.4783800204266448 #
point $-1 67.962424576330704 -5.3158885201165269 8.4783800204266448 #
straight-curve $-1 72.564470351268042 17.583659153902744 103.36925567930068 0 0 -1 I I #
point $-1 72.564470351268042 17.583659153902744 14.124822804913624 #
straight-curve $-1 72.564470351268056 11.103909147420723 4.6133027824690984 0 1 0 I I #
point $-1 72.564470351268042 17.583659153902744 4.6133027824691055 #
point $-1 67.962424576330704 19.43332281027822 8.4783800204266448 #
point $-1 67.962424576330704 22.207818294841445 8.4783800204266448 #
point $-1 67.962424576330704 24.98231377940467 8.4783800204266448 #
End-of-ACIS-data 