500 0 10 0           
7 Unknown 11 ACIS 5.0 NT 24 Fri Mar 26 01:02:14 1999 
-1 9.9999999999999995e-007 1e-010 
body $-1 $10 $-1 $11 #
body $-1 $12 $-1 $13 #
body $-1 $14 $-1 $15 #
body $-1 $16 $-1 $17 #
body $-1 $18 $-1 $19 #
body $-1 $20 $-1 $21 #
body $-1 $22 $-1 $23 #
body $-1 $24 $-1 $25 #
body $-1 $26 $-1 $27 #
body $-1 $28 $-1 $29 #
lump $-1 $-1 $30 $0 #
transform $-1 1 0 0 0 1 0 0 0 1 74.123355815301977 51.726868599964021 18.863328906359754 1 rotate no_reflect no_shear #
lump $-1 $-1 $31 $1 #
transform $-1 1 0 0 0 1 0 0 0 1 74.123355815301977 51.726868599964021 18.863328906359754 1 rotate no_reflect no_shear #
lump $-1 $-1 $32 $2 #
transform $-1 1 0 0 0 1 0 0 0 1 74.123355815301977 51.726868599964021 18.863328906359754 1 rotate no_reflect no_shear #
lump $-1 $-1 $33 $3 #
transform $-1 1 0 0 0 1 0 0 0 1 74.123355815301977 51.726868599964021 18.863328906359754 1 rotate no_reflect no_shear #
lump $-1 $-1 $34 $4 #
transform $-1 1 0 0 0 1 0 0 0 1 74.123355815301977 51.726868599964021 18.863328906359754 1 rotate no_reflect no_shear #
lump $-1 $-1 $35 $5 #
transform $-1 1 0 0 0 1 0 0 0 1 74.123355815301977 51.726868599964021 18.863328906359754 1 rotate no_reflect no_shear #
lump $-1 $-1 $36 $6 #
transform $-1 1 0 0 0 1 0 0 0 1 74.123355815301977 51.726868599964021 18.863328906359754 1 rotate no_reflect no_shear #
lump $-1 $-1 $37 $7 #
transform $-1 1 0 0 0 1 0 0 0 1 74.123355815301977 51.726868599964021 18.863328906359754 1 rotate no_reflect no_shear #
lump $-1 $-1 $38 $8 #
transform $-1 1 0 0 0 1 0 0 0 1 74.123355815301977 51.726868599964021 18.863328906359754 1 rotate no_reflect no_shear #
lump $-1 $-1 $39 $9 #
transform $-1 1 0 0 0 1 0 0 0 1 74.123355815301977 51.726868599964021 18.863328906359754 1 rotate no_reflect no_shear #
shell $-1 $-1 $-1 $40 $-1 $10 #
shell $-1 $-1 $-1 $41 $-1 $12 #
shell $-1 $-1 $-1 $42 $-1 $14 #
shell $-1 $-1 $-1 $43 $-1 $16 #
shell $-1 $-1 $-1 $44 $-1 $18 #
shell $-1 $-1 $-1 $45 $-1 $20 #
shell $-1 $-1 $-1 $46 $-1 $22 #
shell $-1 $-1 $-1 $47 $-1 $24 #
shell $-1 $-1 $-1 $48 $-1 $26 #
shell $-1 $-1 $-1 $49 $-1 $28 #
face $-1 $50 $51 $30 $-1 $52 forward single #
face $-1 $53 $54 $31 $-1 $55 forward single #
face $-1 $56 $57 $32 $-1 $58 reversed single #
face $-1 $59 $60 $33 $-1 $61 forward single #
face $-1 $62 $63 $34 $-1 $64 forward single #
face $-1 $65 $66 $35 $-1 $67 forward single #
face $-1 $68 $69 $36 $-1 $70 reversed single #
face $-1 $71 $72 $37 $-1 $73 forward single #
face $-1 $74 $75 $38 $-1 $76 forward single #
face $-1 $77 $78 $39 $-1 $79 forward single #
face $-1 $80 $81 $30 $-1 $82 reversed single #
loop $-1 $-1 $83 $40 #
plane-surface $-1 0 0 18.863328906359754 0 0 1 1 0 0 forward_v I I I I #
face $-1 $84 $85 $31 $-1 $86 reversed single #
loop $-1 $-1 $87 $41 #
plane-surface $-1 0 -51.726868599964021 0 0 1 0 0 0 1 forward_v I I I I #
face $-1 $88 $89 $32 $-1 $90 reversed single #
loop $-1 $-1 $91 $42 #
plane-surface $-1 37.717581345019781 18.119427920566679 215.34966196988069 0 -1 0 -0.57357644374324357 0 -0.81915203911291934 forward_v I I I I #
face $-1 $92 $93 $33 $-1 $94 forward single #
loop $-1 $95 $96 $43 #
cone-surface $-1 65.535929051964871 2.1436967997343643 11.787413752407758 -0.57357644374324357 0 -0.81915203911291934 1.228728058669379 0 -0.86036466561486535 1 I I 0 1 1.5 forward I I I I #
face $-1 $97 $98 $34 $-1 $99 forward single #
loop $-1 $100 $101 $44 #
cone-surface $-1 65.535929051964871 8.1345959700464832 11.787413752407758 -0.57357644374324357 0 -0.81915203911291934 1.228728058669379 0 -0.86036466561486535 1 I I 0 1 1.5 forward I I I I #
face $-1 $102 $103 $35 $-1 $104 forward single #
loop $-1 $105 $106 $45 #
cone-surface $-1 65.535929051964871 14.125495140358595 11.787413752407758 -0.57357644374324357 0 -0.81915203911291934 1.228728058669379 0 -0.86036466561486535 1 I I 0 1 1.5 forward I I I I #
face $-1 $107 $108 $36 $-1 $109 reversed single #
loop $-1 $-1 $110 $46 #
plane-surface $-1 -159.15417746901394 -1.8502359804737125 130.31884031616872 0 1 0 -0.57357644374324357 0 0.81915203911291934 forward_v I I I I #
face $-1 $111 $112 $37 $-1 $113 forward single #
loop $-1 $114 $115 $47 #
cone-surface $-1 -65.535929051964885 2.1436967997343643 11.787413752407733 0.57357644374324357 0 -0.81915203911291934 1.228728058669379 0 0.86036466561486535 1 I I 0 1 1.5 forward I I I I #
face $-1 $116 $117 $38 $-1 $118 forward single #
loop $-1 $119 $120 $48 #
cone-surface $-1 -65.535929051964885 8.1345959700464832 11.787413752407733 0.57357644374324357 0 -0.81915203911291934 1.228728058669379 0 0.86036466561486535 1 I I 0 1 1.5 forward I I I I #
face $-1 $121 $122 $39 $-1 $123 forward single #
loop $-1 $124 $125 $49 #
cone-surface $-1 -65.535929051964885 14.125495140358595 11.787413752407733 0.57357644374324357 0 -0.81915203911291934 1.228728058669379 0 0.86036466561486535 1 I I 0 1 1.5 forward I I I I #
face $-1 $126 $127 $30 $-1 $128 reversed single #
loop $-1 $-1 $129 $50 #
plane-surface $-1 0 0 -18.863328906359754 0 0 1 1 0 0 forward_v I I I I #
coedge $-1 $130 $131 $132 $133 forward $51 $-1 #
face $-1 $134 $135 $31 $-1 $136 forward single #
loop $-1 $-1 $137 $53 #
plane-surface $-1 -74.123355815301977 0 0 1 0 0 0 0 -1 forward_v I I I I #
coedge $-1 $138 $139 $140 $141 forward $54 $-1 #
face $-1 $142 $143 $32 $-1 $144 reversed single #
loop $-1 $-1 $145 $56 #
plane-surface $-1 -47.313240308692187 8.1345959700464832 93.913065845886521 0.57357644374324357 0 0.81915203911291934 0.81915203911291934 0 -0.57357644374324357 forward_v I I I I #
coedge $-1 $146 $147 $148 $149 reversed $57 $-1 #
face $-1 $-1 $150 $33 $-1 $151 forward single #
loop $-1 $152 $153 $59 #
cone-surface $-1 63.645552938773477 2.1436967997343643 9.0876769262136605 -0.57357644374324357 0 -0.81915203911291934 0.61436402933468948 0 -0.43018233280743268 1 I I -0.70710678118654757 0.70710678118654757 0.75 forward I I I I #
loop $-1 $-1 $154 $43 #
coedge $-1 $96 $96 $155 $156 reversed $60 $-1 #
face $-1 $-1 $157 $34 $-1 $158 forward single #
loop $-1 $159 $160 $62 #
cone-surface $-1 63.645552938773477 8.1345959700464832 9.0876769262136605 -0.57357644374324357 0 -0.81915203911291934 0.61436402933468948 0 -0.43018233280743268 1 I I -0.70710678118654757 0.70710678118654757 0.75 forward I I I I #
loop $-1 $-1 $161 $44 #
coedge $-1 $101 $101 $162 $163 reversed $63 $-1 #
face $-1 $-1 $164 $35 $-1 $165 forward single #
loop $-1 $166 $167 $65 #
cone-surface $-1 63.645552938773477 14.125495140358595 9.0876769262136605 -0.57357644374324357 0 -0.81915203911291934 0.61436402933468948 0 -0.43018233280743268 1 I I -0.70710678118654757 0.70710678118654757 0.75 forward I I I I #
loop $-1 $-1 $168 $45 #
coedge $-1 $106 $106 $169 $170 reversed $66 $-1 #
face $-1 $171 $172 $36 $-1 $173 reversed single #
loop $-1 $-1 $174 $68 #
plane-surface $-1 -74.123355815301977 8.1345959700464832 8.8822441921745536 -0.57357644374324357 0 0.81915203911291934 0.81915203911291934 0 0.57357644374324357 forward_v I I I I #
coedge $-1 $175 $176 $177 $178 reversed $69 $-1 #
face $-1 $-1 $179 $37 $-1 $180 forward single #
loop $-1 $181 $182 $71 #
cone-surface $-1 -63.645552938773491 2.1436967997343643 9.0876769262136357 0.57357644374324357 0 -0.81915203911291934 0.61436402933468948 0 0.43018233280743268 1 I I -0.70710678118654757 0.70710678118654757 0.75 forward I I I I #
loop $-1 $-1 $183 $47 #
coedge $-1 $115 $115 $184 $185 reversed $72 $-1 #
face $-1 $-1 $186 $38 $-1 $187 forward single #
loop $-1 $188 $189 $74 #
cone-surface $-1 -63.645552938773491 8.1345959700464832 9.0876769262136357 0.57357644374324357 0 -0.81915203911291934 0.61436402933468948 0 0.43018233280743268 1 I I -0.70710678118654757 0.70710678118654757 0.75 forward I I I I #
loop $-1 $-1 $190 $48 #
coedge $-1 $120 $120 $191 $192 reversed $75 $-1 #
face $-1 $-1 $193 $39 $-1 $194 forward single #
loop $-1 $195 $196 $77 #
cone-surface $-1 -63.645552938773491 14.125495140358595 9.0876769262136357 0.57357644374324357 0 -0.81915203911291934 0.61436402933468948 0 0.43018233280743268 1 I I -0.70710678118654757 0.70710678118654757 0.75 forward I I I I #
loop $-1 $-1 $197 $49 #
coedge $-1 $125 $125 $198 $199 reversed $78 $-1 #
face $-1 $200 $201 $30 $-1 $202 reversed single #
loop $-1 $-1 $203 $80 #
plane-surface $-1 0 -51.726868599964021 0 0 1 0 0 0 1 forward_v I I I I #
coedge $-1 $204 $205 $206 $207 forward $81 $-1 #
coedge $-1 $208 $83 $209 $210 forward $51 $-1 #
coedge $-1 $83 $208 $211 $212 forward $51 $-1 #
coedge $-1 $213 $214 $83 $133 reversed $215 $-1 #
edge $-1 $216 -51.726868599964021 $217 51.726868599964021 $132 $218 forward 7 unknown #
face $-1 $219 $220 $31 $-1 $221 reversed single #
loop $-1 $-1 $222 $84 #
plane-surface $-1 0 -62.477722606316007 -1.6157925227806986 0 0 1 1 0 0 forward_v I I I I #
coedge $-1 $223 $224 $139 $225 forward $85 $-1 #
coedge $-1 $226 $87 $227 $228 reversed $54 $-1 #
coedge $-1 $87 $226 $137 $225 reversed $54 $-1 #
coedge $-1 $229 $222 $87 $141 reversed $135 $-1 #
edge $-1 $230 -74.123355815301977 $231 74.123355815301977 $140 $232 forward 7 unknown #
face $-1 $233 $234 $32 $-1 $235 reversed single #
loop $-1 $-1 $236 $88 #
plane-surface $-1 37.717581345019781 -1.8502359804737125 215.34966196988069 0 1 0 0.57357644374324357 0 0.81915203911291934 forward_v I I I I #
coedge $-1 $237 $238 $239 $240 reversed $89 $-1 #
coedge $-1 $147 $91 $241 $242 reversed $57 $-1 #
coedge $-1 $91 $146 $237 $243 reversed $57 $-1 #
coedge $-1 $239 $244 $91 $149 forward $245 $-1 #
edge $-1 $246 -55.264565142792087 $247 -41.010099176885866 $148 $248 forward 7 unknown #
loop $-1 $-1 $155 $92 #
plane-surface $-1 -47.313240308692187 8.1345959700464832 93.913065845886521 0.57357644374324357 0 0.81915203911291934 0.81915203911291934 0 -0.57357644374324357 forward_v I I I I #
loop $-1 $-1 $249 $59 #
coedge $-1 $153 $153 $154 $250 reversed $93 $-1 #
coedge $-1 $154 $154 $153 $250 forward $95 $-1 #
coedge $-1 $155 $155 $96 $156 forward $150 $-1 #
edge $-1 $251 0 $251 6.2831853071796004 $155 $252 forward 7 unknown #
loop $-1 $-1 $162 $97 #
plane-surface $-1 -47.313240308692187 8.1345959700464832 93.913065845886521 0.57357644374324357 0 0.81915203911291934 0.81915203911291934 0 -0.57357644374324357 forward_v I I I I #
loop $-1 $-1 $253 $62 #
coedge $-1 $160 $160 $161 $254 reversed $98 $-1 #
coedge $-1 $161 $161 $160 $254 forward $100 $-1 #
coedge $-1 $162 $162 $101 $163 forward $157 $-1 #
edge $-1 $255 0 $255 6.2831853071796004 $162 $256 forward 7 unknown #
loop $-1 $-1 $169 $102 #
plane-surface $-1 -47.313240308692187 8.1345959700464832 93.913065845886521 0.57357644374324357 0 0.81915203911291934 0.81915203911291934 0 -0.57357644374324357 forward_v I I I I #
loop $-1 $-1 $257 $65 #
coedge $-1 $167 $167 $168 $258 reversed $103 $-1 #
coedge $-1 $168 $168 $167 $258 forward $105 $-1 #
coedge $-1 $169 $169 $106 $170 forward $164 $-1 #
edge $-1 $259 0 $259 6.2831853071796004 $169 $260 forward 7 unknown #
face $-1 $261 $262 $36 $-1 $263 forward single #
loop $-1 $-1 $264 $107 #
plane-surface $-1 -159.15417746901394 18.119427920566679 130.31884031616872 0 -1 0 0.57357644374324357 0 -0.81915203911291934 forward_v I I I I #
coedge $-1 $265 $266 $267 $268 reversed $108 $-1 #
coedge $-1 $176 $110 $269 $270 reversed $69 $-1 #
coedge $-1 $110 $175 $265 $271 reversed $69 $-1 #
coedge $-1 $267 $272 $110 $178 forward $262 $-1 #
edge $-1 $273 5.4537329192049953 $274 19.70819888511123 $177 $275 forward 7 unknown #
loop $-1 $-1 $184 $111 #
plane-surface $-1 -74.123355815301977 8.1345959700464832 8.8822441921745536 -0.57357644374324357 0 0.81915203911291934 0.81915203911291934 0 0.57357644374324357 forward_v I I I I #
loop $-1 $-1 $276 $71 #
coedge $-1 $182 $182 $183 $277 reversed $112 $-1 #
coedge $-1 $183 $183 $182 $277 forward $114 $-1 #
coedge $-1 $184 $184 $115 $185 forward $179 $-1 #
edge $-1 $278 0 $278 6.2831853071796004 $184 $279 forward 7 unknown #
loop $-1 $-1 $191 $116 #
plane-surface $-1 -74.123355815301977 8.1345959700464832 8.8822441921745536 -0.57357644374324357 0 0.81915203911291934 0.81915203911291934 0 0.57357644374324357 forward_v I I I I #
loop $-1 $-1 $280 $74 #
coedge $-1 $189 $189 $190 $281 reversed $117 $-1 #
coedge $-1 $190 $190 $189 $281 forward $119 $-1 #
coedge $-1 $191 $191 $120 $192 forward $186 $-1 #
edge $-1 $282 0 $282 6.2831853071796004 $191 $283 forward 7 unknown #
loop $-1 $-1 $198 $121 #
plane-surface $-1 -74.123355815301977 8.1345959700464832 8.8822441921745536 -0.57357644374324357 0 0.81915203911291934 0.81915203911291934 0 0.57357644374324357 forward_v I I I I #
loop $-1 $-1 $284 $77 #
coedge $-1 $196 $196 $197 $285 reversed $122 $-1 #
coedge $-1 $197 $197 $196 $285 forward $124 $-1 #
coedge $-1 $198 $198 $125 $199 forward $193 $-1 #
edge $-1 $286 0 $286 6.2831853071796004 $198 $287 forward 7 unknown #
face $-1 $288 $289 $30 $-1 $290 reversed single #
loop $-1 $-1 $291 $126 #
plane-surface $-1 -74.123355815301977 0 0 1 0 0 0 0 -1 forward_v I I I I #
coedge $-1 $292 $211 $293 $294 forward $127 $-1 #
coedge $-1 $295 $129 $292 $296 forward $81 $-1 #
coedge $-1 $129 $295 $297 $298 forward $81 $-1 #
coedge $-1 $214 $213 $129 $207 reversed $215 $-1 #
edge $-1 $299 -51.726868599964021 $300 51.726868599964021 $206 $301 forward 7 unknown #
coedge $-1 $131 $130 $302 $303 forward $51 $-1 #
coedge $-1 $304 $305 $130 $210 reversed $289 $-1 #
edge $-1 $217 -74.123355815301977 $306 74.123355815301977 $209 $307 forward 7 unknown #
coedge $-1 $203 $308 $131 $212 reversed $127 $-1 #
edge $-1 $309 -74.123355815301977 $216 74.123355815301977 $211 $310 forward 7 unknown #
coedge $-1 $206 $132 $308 $311 forward $215 $-1 #
coedge $-1 $132 $206 $304 $312 reversed $215 $-1 #
loop $-1 $-1 $213 $288 #
vertex $-1 $133 $313 #
vertex $-1 $133 $314 #
straight-curve $-1 74.123355815301977 0 18.863328906359754 0 1 0 I I #
face $-1 $315 $316 $31 $-1 $317 reversed single #
loop $-1 $-1 $318 $134 #
plane-surface $-1 0 -62.477722606316007 -11.361490787979353 0 0 1 1 0 0 forward_v I I I I #
coedge $-1 $140 $319 $320 $321 forward $135 $-1 #
coedge $-1 $322 $137 $323 $324 reversed $85 $-1 #
coedge $-1 $137 $322 $229 $325 reversed $85 $-1 #
edge $-1 $230 1.6157925227806986 $326 11.361490787979353 $137 $327 forward 7 unknown #
coedge $-1 $139 $138 $328 $329 forward $54 $-1 #
coedge $-1 $320 $330 $138 $228 forward $331 $-1 #
edge $-1 $332 -11.361490787979353 $231 -1.6157925227806986 $227 $333 forward 7 unknown #
coedge $-1 $319 $140 $224 $325 forward $135 $-1 #
vertex $-1 $225 $334 #
vertex $-1 $321 $335 #
straight-curve $-1 0 -51.726868599964021 -1.6157925227806986 1 0 0 I I #
face $-1 $-1 $245 $32 $-1 $336 forward single #
loop $-1 $-1 $337 $142 #
plane-surface $-1 74.123355815301977 0 0 -1 0 0 0 0 1 forward_v I I I I #
coedge $-1 $338 $339 $340 $341 reversed $143 $-1 #
coedge $-1 $342 $145 $147 $243 forward $89 $-1 #
coedge $-1 $145 $342 $338 $343 forward $89 $-1 #
coedge $-1 $340 $148 $145 $240 forward $245 $-1 #
edge $-1 $247 -14.052129935543437 $344 5.9175339654969541 $239 $345 forward 7 unknown #
coedge $-1 $346 $347 $146 $242 forward $234 $-1 #
edge $-1 $348 -98.792586792765789 $246 -88.811502078580588 $241 $349 forward 7 unknown #
edge $-1 $247 130.84522169310378 $348 148.24671163060395 $147 $350 forward 7 unknown #
coedge $-1 $148 $340 $346 $351 forward $245 $-1 #
loop $-1 $-1 $340 $233 #
vertex $-1 $242 $352 #
vertex $-1 $149 $353 #
straight-curve $-1 18.85879067250989 18.119427920566679 18.863328906359754 -1 0 0 I I #
coedge $-1 $249 $249 $-1 $354 reversed $152 $-1 #
edge $-1 $355 0 $355 6.2831853071796004 $153 $356 forward 7 unknown #
vertex $-1 $156 $357 #
ellipse-curve $-1 66.996122832348846 2.1436967997343643 13.872786549267181 0.57357644374324357 0 0.81915203911291934 1.228728058669379 0 -0.86036466561486535 1 I I #
coedge $-1 $253 $253 $-1 $358 reversed $159 $-1 #
edge $-1 $359 0 $359 6.2831853071796004 $160 $360 forward 7 unknown #
vertex $-1 $163 $361 #
ellipse-curve $-1 66.996122832348846 8.1345959700464832 13.872786549267181 0.57357644374324357 0 0.81915203911291934 1.228728058669379 0 -0.86036466561486535 1 I I #
coedge $-1 $257 $257 $-1 $362 reversed $166 $-1 #
edge $-1 $363 0 $363 6.2831853071796004 $167 $364 forward 7 unknown #
vertex $-1 $170 $365 #
ellipse-curve $-1 66.996122832348846 14.125495140358595 13.872786549267181 0.57357644374324357 0 0.81915203911291934 1.228728058669379 0 -0.86036466561486535 1 I I #
face $-1 $-1 $366 $36 $-1 $367 reversed single #
loop $-1 $-1 $177 $171 #
plane-surface $-1 0 0 18.863328906359754 0 0 1 1 0 0 forward_v I I I I #
coedge $-1 $368 $369 $370 $371 reversed $172 $-1 #
coedge $-1 $372 $174 $176 $271 forward $108 $-1 #
coedge $-1 $174 $372 $368 $373 forward $108 $-1 #
coedge $-1 $370 $177 $174 $268 forward $262 $-1 #
edge $-1 $274 -5.9175339654969541 $374 14.052129935543437 $267 $375 forward 7 unknown #
coedge $-1 $376 $377 $175 $270 forward $366 $-1 #
edge $-1 $378 -56.277175965909805 $273 -46.296091251724604 $269 $379 forward 7 unknown #
edge $-1 $274 -17.401489937500198 $378 0 $176 $380 forward 7 unknown #
coedge $-1 $177 $370 $376 $381 forward $262 $-1 #
vertex $-1 $178 $382 #
vertex $-1 $178 $383 #
straight-curve $-1 -79.577088734506972 -1.8502359804737125 18.863328906359754 1 0 0 I I #
coedge $-1 $276 $276 $-1 $384 reversed $181 $-1 #
edge $-1 $385 0 $385 6.2831853071796004 $182 $386 forward 7 unknown #
vertex $-1 $185 $387 #
ellipse-curve $-1 -66.99612283234886 2.1436967997343643 13.872786549267158 -0.57357644374324357 0 0.81915203911291934 1.228728058669379 0 0.86036466561486535 1 I I #
coedge $-1 $280 $280 $-1 $388 reversed $188 $-1 #
edge $-1 $389 0 $389 6.2831853071796004 $189 $390 forward 7 unknown #
vertex $-1 $192 $391 #
ellipse-curve $-1 -66.99612283234886 8.1345959700464832 13.872786549267158 -0.57357644374324357 0 0.81915203911291934 1.228728058669379 0 0.86036466561486535 1 I I #
coedge $-1 $284 $284 $-1 $392 reversed $195 $-1 #
edge $-1 $393 0 $393 6.2831853071796004 $196 $394 forward 7 unknown #
vertex $-1 $199 $395 #
ellipse-curve $-1 -66.99612283234886 14.125495140358595 13.872786549267158 -0.57357644374324357 0 0.81915203911291934 1.228728058669379 0 0.86036466561486535 1 I I #
face $-1 $-1 $215 $30 $-1 $396 reversed single #
loop $-1 $-1 $304 $200 #
plane-surface $-1 0 51.726868599964021 0 0 -1 0 0 0 -1 forward_v I I I I #
coedge $-1 $397 $302 $305 $398 forward $201 $-1 #
coedge $-1 $308 $203 $204 $296 reversed $127 $-1 #
coedge $-1 $302 $397 $203 $294 reversed $201 $-1 #
edge $-1 $309 -18.863328906359754 $399 18.863328906359754 $293 $400 forward 7 unknown #
coedge $-1 $205 $204 $397 $401 forward $81 $-1 #
edge $-1 $300 -74.123355815301977 $399 74.123355815301977 $292 $402 forward 7 unknown #
coedge $-1 $305 $304 $205 $298 reversed $289 $-1 #
edge $-1 $403 -74.123355815301977 $299 74.123355815301977 $297 $404 forward 7 unknown #
vertex $-1 $207 $405 #
vertex $-1 $311 $406 #
straight-curve $-1 74.123355815301977 0 -18.863328906359754 0 -1 0 I I #
coedge $-1 $291 $293 $208 $303 reversed $201 $-1 #
edge $-1 $306 -51.726868599964021 $309 51.726868599964021 $302 $407 forward 7 unknown #
coedge $-1 $297 $209 $214 $312 forward $289 $-1 #
coedge $-1 $209 $297 $291 $398 reversed $289 $-1 #
vertex $-1 $210 $408 #
straight-curve $-1 0 51.726868599964021 18.863328906359754 -1 0 0 I I #
coedge $-1 $211 $292 $213 $311 reversed $127 $-1 #
vertex $-1 $303 $409 #
straight-curve $-1 0 -51.726868599964021 18.863328906359754 1 0 0 I I #
edge $-1 $216 -18.863328906359754 $300 18.863328906359754 $213 $410 forward 7 unknown #
edge $-1 $217 -18.863328906359754 $299 18.863328906359754 $214 $411 forward 7 unknown #
point $-1 74.123355815301977 -51.726868599964021 18.863328906359754 #
point $-1 74.123355815301977 51.726868599964021 18.863328906359754 #
face $-1 $-1 $331 $31 $-1 $412 reversed single #
loop $-1 $-1 $413 $219 #
plane-surface $-1 0 -73.228576612667993 -6.4886416553800252 0 1 0 0 0 1 forward_v I I I I #
coedge $-1 $414 $328 $330 $415 forward $220 $-1 #
coedge $-1 $222 $229 $416 $417 forward $135 $-1 #
coedge $-1 $418 $227 $222 $321 reversed $331 $-1 #
edge $-1 $419 -10.750854006351986 $231 10.750854006351986 $320 $420 forward 7 unknown #
coedge $-1 $224 $223 $413 $421 reversed $85 $-1 #
coedge $-1 $328 $414 $223 $324 forward $220 $-1 #
edge $-1 $422 -10.750854006351986 $326 10.750854006351986 $223 $423 forward 7 unknown #
edge $-1 $230 -10.750854006351986 $424 10.750854006351986 $224 $425 forward 7 unknown #
vertex $-1 $225 $426 #
straight-curve $-1 -74.123355815301977 -51.726868599964021 0 0 0 -1 I I #
coedge $-1 $318 $323 $226 $329 reversed $220 $-1 #
edge $-1 $332 -74.123355815301977 $326 74.123355815301977 $328 $427 forward 7 unknown #
coedge $-1 $227 $418 $318 $415 reversed $331 $-1 #
loop $-1 $-1 $227 $315 #
vertex $-1 $228 $428 #
straight-curve $-1 74.123355815301977 -51.726868599964021 0 0 0 1 I I #
point $-1 -74.123355815301977 -51.726868599964021 -1.6157925227806986 #
point $-1 74.123355815301977 -51.726868599964021 -1.6157925227806986 #
plane-surface $-1 0 0 18.863328906359754 0 0 1 1 0 0 forward_v I I I I #
coedge $-1 $347 $346 $339 $429 forward $234 $-1 #
coedge $-1 $339 $236 $238 $343 reversed $143 $-1 #
coedge $-1 $236 $338 $337 $429 reversed $143 $-1 #
coedge $-1 $244 $239 $236 $341 forward $245 $-1 #
edge $-1 $344 41.010099176885866 $430 55.264565142792087 $340 $431 forward 7 unknown #
coedge $-1 $238 $237 $347 $432 reversed $89 $-1 #
edge $-1 $433 -148.24671163060395 $344 -130.84522169310378 $338 $434 forward 7 unknown #
vertex $-1 $240 $435 #
straight-curve $-1 59.86888984939575 4.0672979850232416 18.863328906359762 0 -1 0 I I #
coedge $-1 $337 $241 $244 $351 reversed $234 $-1 #
coedge $-1 $241 $337 $342 $432 forward $234 $-1 #
vertex $-1 $242 $436 #
straight-curve $-1 74.123355815301977 18.119427920566679 107.67483098494034 0 0 1 I I #
straight-curve $-1 -47.313240308692187 18.119427920566679 93.913065845886521 0.81915203911291934 0 -0.57357644374324357 I I #
edge $-1 $430 -1.8502359804737125 $246 18.119427920566679 $346 $437 forward 7 unknown #
point $-1 74.123355815301977 18.119427920566679 18.863328906359754 #
point $-1 59.868889849395757 18.119427920566679 18.863328906359754 #
edge $-1 $438 1 $438 0 $249 $-1 forward 7 unknown #
vertex $-1 $250 $439 #
ellipse-curve $-1 64.075735271580911 2.1436967997343643 9.70204095554835 0.57357644374324357 0 0.81915203911291934 1.228728058669379 0 -0.86036466561486535 1 I I #
point $-1 68.224850891018207 2.1436967997343643 13.0124218836523 #
edge $-1 $440 1 $440 0 $253 $-1 forward 7 unknown #
vertex $-1 $254 $441 #
ellipse-curve $-1 64.075735271580911 8.1345959700464832 9.70204095554835 0.57357644374324357 0 0.81915203911291934 1.228728058669379 0 -0.86036466561486535 1 I I #
point $-1 68.224850891018207 8.1345959700464832 13.0124218836523 #
edge $-1 $442 1 $442 0 $257 $-1 forward 7 unknown #
vertex $-1 $258 $443 #
ellipse-curve $-1 64.075735271580911 14.125495140358595 9.70204095554835 0.57357644374324357 0 0.81915203911291934 1.228728058669379 0 -0.86036466561486535 1 I I #
point $-1 68.224850891018207 14.125495140358595 13.0124218836523 #
loop $-1 $-1 $269 $261 #
plane-surface $-1 -74.123355815301977 0 0 1 0 0 0 0 -1 forward_v I I I I #
coedge $-1 $369 $264 $266 $373 reversed $172 $-1 #
coedge $-1 $264 $368 $444 $445 reversed $172 $-1 #
coedge $-1 $272 $267 $264 $371 forward $262 $-1 #
edge $-1 $374 -19.70819888511123 $446 -5.4537329192049953 $370 $447 forward 7 unknown #
coedge $-1 $266 $265 $377 $448 reversed $108 $-1 #
edge $-1 $449 0 $374 17.401489937500198 $368 $450 forward 7 unknown #
vertex $-1 $268 $451 #
straight-curve $-1 -59.868889849395742 4.0672979850232416 18.863328906359754 0 1 0 I I #
coedge $-1 $444 $269 $272 $381 reversed $366 $-1 #
coedge $-1 $269 $444 $372 $448 forward $366 $-1 #
vertex $-1 $270 $452 #
straight-curve $-1 -74.123355815301977 -1.8502359804737125 65.159420158084359 0 0 1 I I #
straight-curve $-1 -74.123355815301977 -1.8502359804737125 8.8822441921745536 -0.81915203911291934 0 -0.57357644374324357 I I #
edge $-1 $446 -18.119427920566679 $273 1.8502359804737125 $376 $453 forward 7 unknown #
point $-1 -74.123355815301977 -1.8502359804737125 18.863328906359754 #
point $-1 -59.868889849395742 -1.8502359804737125 18.863328906359754 #
edge $-1 $454 1 $454 0 $276 $-1 forward 7 unknown #
vertex $-1 $277 $455 #
ellipse-curve $-1 -64.075735271580925 2.1436967997343643 9.7020409555483251 -0.57357644374324357 0 0.81915203911291934 1.228728058669379 0 0.86036466561486535 1 I I #
point $-1 -65.767394773679456 2.1436967997343643 14.733151214882005 #
edge $-1 $456 1 $456 0 $280 $-1 forward 7 unknown #
vertex $-1 $281 $457 #
ellipse-curve $-1 -64.075735271580925 8.1345959700464832 9.7020409555483251 -0.57357644374324357 0 0.81915203911291934 1.228728058669379 0 0.86036466561486535 1 I I #
point $-1 -65.767394773679456 8.1345959700464832 14.733151214882005 #
edge $-1 $458 1 $458 0 $284 $-1 forward 7 unknown #
vertex $-1 $285 $459 #
ellipse-curve $-1 -64.075735271580925 14.125495140358595 9.7020409555483251 -0.57357644374324357 0 0.81915203911291934 1.228728058669379 0 0.86036466561486535 1 I I #
point $-1 -65.767394773679456 14.125495140358595 14.733151214882005 #
plane-surface $-1 74.123355815301977 0 0 -1 0 0 0 0 1 forward_v I I I I #
coedge $-1 $293 $291 $295 $401 reversed $201 $-1 #
edge $-1 $306 -18.863328906359754 $403 18.863328906359754 $305 $460 forward 7 unknown #
vertex $-1 $401 $461 #
straight-curve $-1 -74.123355815301977 -51.726868599964021 0 0 0 -1 I I #
edge $-1 $399 -51.726868599964021 $403 51.726868599964021 $397 $462 forward 7 unknown #
straight-curve $-1 0 -51.726868599964021 -18.863328906359754 -1 0 0 I I #
vertex $-1 $298 $463 #
straight-curve $-1 0 51.726868599964021 -18.863328906359754 1 0 0 I I #
point $-1 74.123355815301977 51.726868599964021 -18.863328906359754 #
point $-1 74.123355815301977 -51.726868599964021 -18.863328906359754 #
straight-curve $-1 -74.123355815301977 0 18.863328906359754 0 -1 0 I I #
point $-1 -74.123355815301977 51.726868599964021 18.863328906359754 #
point $-1 -74.123355815301977 -51.726868599964021 18.863328906359754 #
straight-curve $-1 74.123355815301977 -51.726868599964021 0 0 0 -1 I I #
straight-curve $-1 74.123355815301977 51.726868599964021 0 0 0 -1 I I #
plane-surface $-1 74.123355815301977 0 0 -1 0 0 0 0 1 forward_v I I I I #
coedge $-1 $464 $416 $322 $421 forward $316 $-1 #
coedge $-1 $323 $318 $464 $465 forward $220 $-1 #
edge $-1 $332 -10.750854006351986 $466 10.750854006351986 $330 $467 forward 7 unknown #
coedge $-1 $413 $468 $319 $417 reversed $316 $-1 #
edge $-1 $424 -74.123355815301977 $419 74.123355815301977 $416 $469 forward 7 unknown #
coedge $-1 $330 $320 $468 $470 forward $331 $-1 #
vertex $-1 $321 $471 #
straight-curve $-1 74.123355815301977 -62.477722606316007 -1.6157925227806986 0 1 0 I I #
edge $-1 $424 -4.8728491325993266 $422 4.8728491325993275 $322 $472 forward 7 unknown #
vertex $-1 $324 $473 #
straight-curve $-1 -74.123355815301977 -62.477722606316007 -11.361490787979353 0 1 0 I I #
vertex $-1 $325 $474 #
straight-curve $-1 -74.123355815301977 -62.477722606316007 -1.6157925227806986 0 -1 0 I I #
point $-1 -74.123355815301977 -51.726868599964021 -11.361490787979353 #
straight-curve $-1 0 -51.726868599964021 -11.361490787979353 -1 0 0 I I #
point $-1 74.123355815301977 -51.726868599964021 -11.361490787979353 #
edge $-1 $430 88.811502078580588 $433 98.792586792765789 $337 $475 forward 7 unknown #
vertex $-1 $351 $476 #
straight-curve $-1 18.85879067250989 -1.8502359804737125 18.863328906359754 1 0 0 I I #
edge $-1 $433 -5.9175339654969541 $348 14.052129935543437 $347 $477 forward 7 unknown #
vertex $-1 $432 $478 #
straight-curve $-1 -47.313240308692187 -1.8502359804737125 93.913065845886521 -0.81915203911291934 0 0.57357644374324357 I I #
point $-1 59.868889849395757 -1.8502359804737125 18.863328906359754 #
point $-1 74.123355815301977 18.119427920566679 8.8822441921745536 #
straight-curve $-1 74.123355815301977 0 18.863328906359754 0 1 0 I I #
vertex $-1 $354 $479 #
point $-1 65.304463330250286 2.1436967997343643 8.8416762899334849 #
vertex $-1 $358 $480 #
point $-1 65.304463330250286 8.1345959700464832 8.8416762899334849 #
vertex $-1 $362 $481 #
point $-1 65.304463330250286 14.125495140358595 8.8416762899334849 #
coedge $-1 $377 $376 $369 $445 forward $366 $-1 #
edge $-1 $446 46.296091251724604 $449 56.277175965909805 $444 $482 forward 7 unknown #
vertex $-1 $381 $483 #
straight-curve $-1 -79.577088734506972 18.119427920566679 18.863328906359754 -1 0 0 I I #
edge $-1 $449 -14.052129935543437 $378 5.9175339654969541 $377 $484 forward 7 unknown #
vertex $-1 $448 $485 #
straight-curve $-1 -74.123355815301977 18.119427920566679 8.8822441921745536 0.81915203911291934 0 0.57357644374324357 I I #
point $-1 -59.868889849395742 18.119427920566679 18.863328906359754 #
point $-1 -74.123355815301977 -1.8502359804737125 8.8822441921745536 #
straight-curve $-1 -74.123355815301977 0 18.863328906359754 0 -1 0 I I #
vertex $-1 $384 $486 #
point $-1 -62.847007212911542 2.1436967997343643 10.56240562116319 #
vertex $-1 $388 $487 #
point $-1 -62.847007212911542 8.1345959700464832 10.56240562116319 #
vertex $-1 $392 $488 #
point $-1 -62.847007212911542 14.125495140358595 10.56240562116319 #
straight-curve $-1 -74.123355815301977 51.726868599964021 0 0 0 -1 I I #
point $-1 -74.123355815301977 -51.726868599964021 -18.863328906359754 #
straight-curve $-1 -74.123355815301977 0 -18.863328906359754 0 1 0 I I #
point $-1 -74.123355815301977 51.726868599964021 -18.863328906359754 #
coedge $-1 $468 $413 $414 $465 reversed $316 $-1 #
edge $-1 $466 -74.123355815301977 $422 74.123355815301977 $464 $489 forward 7 unknown #
vertex $-1 $470 $490 #
straight-curve $-1 74.123355815301977 -62.477722606316007 -11.361490787979353 0 -1 0 I I #
coedge $-1 $416 $464 $418 $470 reversed $316 $-1 #
straight-curve $-1 0 -73.228576612667993 -1.6157925227806986 1 0 0 I I #
edge $-1 $419 -4.8728491325993266 $466 4.8728491325993275 $418 $491 forward 7 unknown #
point $-1 74.123355815301977 -73.228576612667993 -1.6157925227806986 #
straight-curve $-1 -74.123355815301977 -73.228576612667993 -6.4886416553800252 0 0 -1 I I #
point $-1 -74.123355815301977 -73.228576612667993 -11.361490787979353 #
point $-1 -74.123355815301977 -73.228576612667993 -1.6157925227806986 #
straight-curve $-1 74.123355815301977 -1.8502359804737125 107.67483098494034 0 0 -1 I I #
point $-1 74.123355815301977 -1.8502359804737125 18.863328906359754 #
straight-curve $-1 74.123355815301977 4.0672979850232416 8.8822441921745678 0 1 0 I I #
point $-1 74.123355815301977 -1.8502359804737125 8.8822441921745536 #
point $-1 63.215370605966044 2.1436967997343643 8.473312896878971 #
point $-1 63.215370605966044 8.1345959700464832 8.473312896878971 #
point $-1 63.215370605966044 14.125495140358595 8.473312896878971 #
straight-curve $-1 -74.123355815301977 18.119427920566679 65.159420158084359 0 0 -1 I I #
point $-1 -74.123355815301977 18.119427920566679 18.863328906359754 #
straight-curve $-1 -74.123355815301977 4.0672979850232416 8.8822441921745536 0 -1 0 I I #
point $-1 -74.123355815301977 18.119427920566679 8.8822441921745536 #
point $-1 -63.215370605966058 2.1436967997343643 8.4733128968789462 #
point $-1 -63.215370605966058 8.1345959700464832 8.4733128968789462 #
point $-1 -63.215370605966058 14.125495140358595 8.4733128968789462 #
straight-curve $-1 0 -73.228576612667993 -11.361490787979353 -1 0 0 I I #
point $-1 74.123355815301977 -73.228576612667993 -11.361490787979353 #
straight-curve $-1 74.123355815301977 -73.228576612667993 -6.4886416553800252 0 0 -1 I I #
End-of-ACIS-data 