500 0 12 0           
7 Unknown 11 ACIS 5.0 NT 24 Fri Mar 26 19:15:48 1999 
-1 9.9999999999999995e-007 1e-010 
body $-1 $12 $-1 $13 #
body $-1 $14 $-1 $15 #
body $-1 $16 $-1 $17 #
body $-1 $18 $-1 $19 #
body $-1 $20 $-1 $21 #
body $-1 $22 $-1 $23 #
body $-1 $24 $-1 $25 #
body $-1 $26 $-1 $27 #
body $-1 $28 $-1 $29 #
body $-1 $30 $-1 $31 #
body $-1 $32 $-1 $33 #
body $-1 $34 $-1 $35 #
lump $-1 $-1 $36 $0 #
transform $-1 1 0 0 0 1 0 0 0 1 56.580095828119752 33.870526862310165 12.70700359258946 1 rotate no_reflect no_shear #
lump $-1 $-1 $37 $1 #
transform $-1 1 0 0 0 1 0 0 0 1 56.580095828119752 33.870526862310165 12.70700359258946 1 rotate no_reflect no_shear #
lump $-1 $-1 $38 $2 #
transform $-1 1 0 0 0 1 0 0 0 1 56.580095828119752 33.870526862310165 12.70700359258946 1 rotate no_reflect no_shear #
lump $-1 $-1 $39 $3 #
transform $-1 1 0 0 0 1 0 0 0 1 56.580095828119752 33.870526862310165 12.70700359258946 1 rotate no_reflect no_shear #
lump $-1 $-1 $40 $4 #
transform $-1 1 0 0 0 1 0 0 0 1 56.580095828119752 33.870526862310165 12.70700359258946 1 rotate no_reflect no_shear #
lump $-1 $-1 $41 $5 #
transform $-1 1 0 0 0 1 0 0 0 1 56.580095828119752 33.870526862310165 12.70700359258946 1 rotate no_reflect no_shear #
lump $-1 $-1 $42 $6 #
transform $-1 1 0 0 0 1 0 0 0 1 56.580095828119752 33.870526862310165 12.70700359258946 1 rotate no_reflect no_shear #
lump $-1 $-1 $43 $7 #
transform $-1 1 0 0 0 1 0 0 0 1 56.580095828119752 33.870526862310165 12.70700359258946 1 rotate no_reflect no_shear #
lump $-1 $-1 $44 $8 #
transform $-1 1 0 0 0 1 0 0 0 1 56.580095828119752 33.870526862310165 12.70700359258946 1 rotate no_reflect no_shear #
lump $-1 $-1 $45 $9 #
transform $-1 1 0 0 0 1 0 0 0 1 56.580095828119752 33.870526862310165 12.70700359258946 1 rotate no_reflect no_shear #
lump $-1 $-1 $46 $10 #
transform $-1 1 0 0 0 1 0 0 0 1 56.580095828119752 33.870526862310165 12.70700359258946 1 rotate no_reflect no_shear #
lump $-1 $-1 $47 $11 #
transform $-1 1 0 0 0 1 0 0 0 1 56.580095828119752 33.870526862310165 12.70700359258946 1 rotate no_reflect no_shear #
shell $-1 $-1 $-1 $48 $-1 $12 #
shell $-1 $-1 $-1 $49 $-1 $14 #
shell $-1 $-1 $-1 $50 $-1 $16 #
shell $-1 $-1 $-1 $51 $-1 $18 #
shell $-1 $-1 $-1 $52 $-1 $20 #
shell $-1 $-1 $-1 $53 $-1 $22 #
shell $-1 $-1 $-1 $54 $-1 $24 #
shell $-1 $-1 $-1 $55 $-1 $26 #
shell $-1 $-1 $-1 $56 $-1 $28 #
shell $-1 $-1 $-1 $57 $-1 $30 #
shell $-1 $-1 $-1 $58 $-1 $32 #
shell $-1 $-1 $-1 $59 $-1 $34 #
face $-1 $60 $61 $36 $-1 $62 forward single #
face $-1 $63 $64 $37 $-1 $65 reversed single #
face $-1 $66 $67 $38 $-1 $68 forward single #
face $-1 $69 $70 $39 $-1 $71 reversed single #
face $-1 $72 $73 $40 $-1 $74 forward single #
face $-1 $75 $76 $41 $-1 $77 reversed single #
face $-1 $78 $79 $42 $-1 $80 forward single #
face $-1 $81 $82 $43 $-1 $83 reversed single #
face $-1 $84 $85 $44 $-1 $86 forward single #
face $-1 $87 $88 $45 $-1 $89 reversed single #
face $-1 $90 $91 $46 $-1 $92 forward single #
face $-1 $93 $94 $47 $-1 $95 forward single #
face $-1 $96 $97 $36 $-1 $98 reversed single #
loop $-1 $-1 $99 $48 #
plane-surface $-1 0 0 12.70700359258946 0 0 1 1 0 0 forward_v I I I I #
face $-1 $100 $101 $37 $-1 $102 reversed single #
loop $-1 $-1 $103 $49 #
plane-surface $-1 17.864688307414511 -19.926177024412688 164.75466119547369 0 -1 0 -0.51503808176128008 0 -0.85716729658548041 forward_v I I I I #
face $-1 $104 $105 $38 $-1 $106 forward single #
loop $-1 $107 $108 $50 #
cone-surface $-1 52.980938596126919 -25.790335657872319 9.5764781031159654 -0.51503808176128008 0 -0.85716729658548041 0.85716729658548041 0 -0.51503808176128008 1 I I 0 1 1 forward I I I I #
face $-1 $109 $110 $39 $-1 $111 reversed single #
loop $-1 $-1 $112 $51 #
plane-surface $-1 17.864688307414511 -2.7326199191644758 164.75466119547369 0 -1 0 -0.51503808176128008 0 -0.85716729658548041 forward_v I I I I #
face $-1 $113 $114 $40 $-1 $115 forward single #
loop $-1 $116 $117 $52 #
cone-surface $-1 52.980938596126919 -8.5967785526241052 9.5764781031159654 -0.51503808176128008 0 -0.85716729658548041 0.85716729658548041 0 -0.51503808176128008 1 I I 0 1 1 forward I I I I #
face $-1 $118 $119 $41 $-1 $120 reversed single #
loop $-1 $-1 $121 $53 #
plane-surface $-1 17.864688307414511 14.460937186083742 164.75466119547369 0 -1 0 -0.51503808176128008 0 -0.85716729658548041 forward_v I I I I #
face $-1 $122 $123 $42 $-1 $124 forward single #
loop $-1 $125 $126 $54 #
cone-surface $-1 52.980938596126919 8.5967785526241087 9.5764781031159654 -0.51503808176128008 0 -0.85716729658548041 0.85716729658548041 0 -0.51503808176128008 1 I I 0 1 1 forward I I I I #
face $-1 $127 $128 $43 $-1 $129 reversed single #
loop $-1 $-1 $130 $55 #
plane-surface $-1 17.864688307414511 31.654494291331957 164.75466119547369 0 -1 0 -0.51503808176128008 0 -0.85716729658548041 forward_v I I I I #
face $-1 $131 $132 $44 $-1 $133 forward single #
loop $-1 $134 $135 $56 #
cone-surface $-1 52.980938596126919 25.790335657872326 9.5764781031159654 -0.51503808176128008 0 -0.85716729658548041 0.85716729658548041 0 -0.51503808176128008 1 I I 0 1 1 forward I I I I #
face $-1 $136 $137 $45 $-1 $138 reversed single #
loop $-1 $-1 $139 $57 #
plane-surface $-1 -154.579697374837 7.4215624699904232 59.133118908785647 0 1 0 -0.86602541151947299 0 0.49999998660252726 forward_v I I I I #
face $-1 $140 $141 $46 $-1 $142 forward single #
loop $-1 $143 $144 $58 #
cone-surface $-1 -51.268203588866584 12.43820851534592 6.2555215017074532 0.86602541151947299 0 -0.49999998660252726 0.99999997320505452 0 1.732050823038946 1 I I 0 1 2 forward I I I I #
face $-1 $145 $146 $47 $-1 $147 forward single #
loop $-1 $148 $149 $59 #
cone-surface $-1 -51.268203588866584 19.963177583379171 6.2555215017074532 0.86602541151947299 0 -0.49999998660252726 0.99999997320505452 0 1.732050823038946 1 I I 0 1 2 forward I I I I #
face $-1 $150 $151 $36 $-1 $152 reversed single #
loop $-1 $-1 $153 $60 #
plane-surface $-1 0 0 -12.70700359258946 0 0 1 1 0 0 forward_v I I I I #
coedge $-1 $154 $155 $156 $157 forward $61 $-1 #
face $-1 $158 $159 $37 $-1 $160 reversed single #
loop $-1 $-1 $161 $63 #
plane-surface $-1 -40.417119734953893 -25.790335657872319 67.757445632400035 0.51503808176128008 0 0.85716729658548041 0.85716729658548041 0 -0.51503808176128008 forward_v I I I I #
coedge $-1 $162 $163 $164 $165 reversed $64 $-1 #
face $-1 $-1 $166 $38 $-1 $167 forward single #
loop $-1 $168 $169 $66 #
cone-surface $-1 51.813210343581119 -25.790335657872319 7.6330519666286403 -0.51503808176128008 0 -0.85716729658548041 0.4285836482927402 0 -0.25751904088064004 1 I I -0.70710678118654746 0.70710678118654746 0.5 forward I I I I #
loop $-1 $-1 $170 $50 #
coedge $-1 $108 $108 $171 $172 reversed $67 $-1 #
face $-1 $173 $174 $39 $-1 $175 reversed single #
loop $-1 $-1 $176 $69 #
plane-surface $-1 -40.417119734953893 -8.5967785526241087 67.757445632400035 0.51503808176128008 0 0.85716729658548041 0.85716729658548041 0 -0.51503808176128008 forward_v I I I I #
coedge $-1 $177 $178 $179 $180 reversed $70 $-1 #
face $-1 $-1 $181 $40 $-1 $182 forward single #
loop $-1 $183 $184 $72 #
cone-surface $-1 51.813210343581119 -8.5967785526241052 7.6330519666286403 -0.51503808176128008 0 -0.85716729658548041 0.4285836482927402 0 -0.25751904088064004 1 I I -0.70710678118654746 0.70710678118654746 0.5 forward I I I I #
loop $-1 $-1 $185 $52 #
coedge $-1 $117 $117 $186 $187 reversed $73 $-1 #
face $-1 $188 $189 $41 $-1 $190 reversed single #
loop $-1 $-1 $191 $75 #
plane-surface $-1 -40.417119734953893 8.5967785526241087 67.757445632400035 0.51503808176128008 0 0.85716729658548041 0.85716729658548041 0 -0.51503808176128008 forward_v I I I I #
coedge $-1 $192 $193 $194 $195 reversed $76 $-1 #
face $-1 $-1 $196 $42 $-1 $197 forward single #
loop $-1 $198 $199 $78 #
cone-surface $-1 51.813210343581119 8.5967785526241087 7.6330519666286403 -0.51503808176128008 0 -0.85716729658548041 0.4285836482927402 0 -0.25751904088064004 1 I I -0.70710678118654746 0.70710678118654746 0.5 forward I I I I #
loop $-1 $-1 $200 $54 #
coedge $-1 $126 $126 $201 $202 reversed $79 $-1 #
face $-1 $203 $204 $43 $-1 $205 reversed single #
loop $-1 $-1 $206 $81 #
plane-surface $-1 -40.417119734953893 25.790335657872326 67.757445632400035 0.51503808176128008 0 0.85716729658548041 0.85716729658548041 0 -0.51503808176128008 forward_v I I I I #
coedge $-1 $207 $208 $209 $210 reversed $82 $-1 #
face $-1 $-1 $211 $44 $-1 $212 forward single #
loop $-1 $213 $214 $84 #
cone-surface $-1 51.813210343581119 25.790335657872326 7.6330519666286403 -0.51503808176128008 0 -0.85716729658548041 0.4285836482927402 0 -0.25751904088064004 1 I I -0.70710678118654746 0.70710678118654746 0.5 forward I I I I #
loop $-1 $-1 $215 $56 #
coedge $-1 $135 $135 $216 $217 reversed $85 $-1 #
face $-1 $218 $219 $45 $-1 $220 reversed single #
loop $-1 $-1 $221 $87 #
plane-surface $-1 -56.580095828119752 16.200693049362549 2.5530245967264804 -0.86602541151947299 0 0.49999998660252726 0.49999998660252726 0 0.86602541151947299 forward_v I I I I #
coedge $-1 $222 $223 $224 $225 reversed $88 $-1 #
face $-1 $-1 $226 $46 $-1 $227 forward single #
loop $-1 $228 $229 $90 #
cone-surface $-1 -48.021487086675762 12.43820851534592 4.3810289221544192 0.86602541151947299 0 -0.49999998660252726 0.49999998660252726 0 0.86602541151947299 1 I I -0.70710678118654746 0.70710678118654746 1 forward I I I I #
loop $-1 $-1 $230 $58 #
coedge $-1 $144 $144 $231 $232 reversed $91 $-1 #
face $-1 $-1 $233 $47 $-1 $234 forward single #
loop $-1 $235 $236 $93 #
cone-surface $-1 -48.021487086675762 19.963177583379171 4.3810289221544192 0.86602541151947299 0 -0.49999998660252726 0.49999998660252726 0 0.86602541151947299 1 I I -0.70710678118654746 0.70710678118654746 1 forward I I I I #
loop $-1 $-1 $237 $59 #
coedge $-1 $149 $149 $238 $239 reversed $94 $-1 #
face $-1 $240 $241 $36 $-1 $242 reversed single #
loop $-1 $-1 $243 $96 #
plane-surface $-1 0 -33.870526862310165 0 0 1 0 0 0 1 forward_v I I I I #
coedge $-1 $244 $245 $246 $247 forward $97 $-1 #
coedge $-1 $248 $99 $249 $250 forward $61 $-1 #
coedge $-1 $99 $248 $251 $252 forward $61 $-1 #
coedge $-1 $253 $254 $99 $157 reversed $255 $-1 #
edge $-1 $256 -33.870526862310165 $257 33.870526862310165 $156 $258 forward 7 unknown #
face $-1 $259 $260 $37 $-1 $261 forward single #
loop $-1 $-1 $262 $100 #
plane-surface $-1 17.864688307414511 -31.65449429133195 164.75466119547369 0 1 0 0.51503808176128008 0 0.85716729658548041 forward_v I I I I #
coedge $-1 $263 $264 $265 $266 reversed $101 $-1 #
coedge $-1 $163 $103 $267 $268 reversed $64 $-1 #
coedge $-1 $103 $162 $263 $269 reversed $64 $-1 #
coedge $-1 $265 $270 $103 $165 forward $260 $-1 #
edge $-1 $271 -47.647751674412497 $272 -42.269855633757132 $164 $273 forward 7 unknown #
loop $-1 $-1 $171 $104 #
plane-surface $-1 -40.417119734953893 -25.790335657872319 67.757445632400035 0.51503808176128008 0 0.85716729658548041 0.85716729658548041 0 -0.51503808176128008 forward_v I I I I #
loop $-1 $-1 $274 $66 #
coedge $-1 $169 $169 $170 $275 reversed $105 $-1 #
coedge $-1 $170 $170 $169 $275 forward $107 $-1 #
coedge $-1 $171 $171 $108 $172 forward $166 $-1 #
edge $-1 $276 0 $276 6.2831853071796004 $171 $277 forward 7 unknown #
face $-1 $278 $279 $39 $-1 $280 reversed single #
loop $-1 $-1 $281 $109 #
plane-surface $-1 17.864688307414511 -14.460937186083742 164.75466119547369 0 1 0 0.51503808176128008 0 0.85716729658548041 forward_v I I I I #
coedge $-1 $282 $283 $284 $285 reversed $110 $-1 #
coedge $-1 $178 $112 $286 $287 reversed $70 $-1 #
coedge $-1 $112 $177 $282 $288 reversed $70 $-1 #
coedge $-1 $284 $289 $112 $180 forward $290 $-1 #
edge $-1 $291 -47.647751674412497 $292 -42.269855633757132 $179 $293 forward 7 unknown #
loop $-1 $-1 $186 $113 #
plane-surface $-1 -40.417119734953893 -8.5967785526241087 67.757445632400035 0.51503808176128008 0 0.85716729658548041 0.85716729658548041 0 -0.51503808176128008 forward_v I I I I #
loop $-1 $-1 $294 $72 #
coedge $-1 $184 $184 $185 $295 reversed $114 $-1 #
coedge $-1 $185 $185 $184 $295 forward $116 $-1 #
coedge $-1 $186 $186 $117 $187 forward $181 $-1 #
edge $-1 $296 0 $296 6.2831853071796004 $186 $297 forward 7 unknown #
face $-1 $298 $299 $41 $-1 $300 reversed single #
loop $-1 $-1 $301 $118 #
plane-surface $-1 17.864688307414511 2.7326199191644758 164.75466119547369 0 1 0 0.51503808176128008 0 0.85716729658548041 forward_v I I I I #
coedge $-1 $302 $303 $304 $305 reversed $119 $-1 #
coedge $-1 $193 $121 $306 $307 reversed $76 $-1 #
coedge $-1 $121 $192 $302 $308 reversed $76 $-1 #
coedge $-1 $304 $309 $121 $195 forward $310 $-1 #
edge $-1 $311 -47.647751674412497 $312 -42.269855633757132 $194 $313 forward 7 unknown #
loop $-1 $-1 $201 $122 #
plane-surface $-1 -40.417119734953893 8.5967785526241087 67.757445632400035 0.51503808176128008 0 0.85716729658548041 0.85716729658548041 0 -0.51503808176128008 forward_v I I I I #
loop $-1 $-1 $314 $78 #
coedge $-1 $199 $199 $200 $315 reversed $123 $-1 #
coedge $-1 $200 $200 $199 $315 forward $125 $-1 #
coedge $-1 $201 $201 $126 $202 forward $196 $-1 #
edge $-1 $316 0 $316 6.2831853071796004 $201 $317 forward 7 unknown #
face $-1 $318 $319 $43 $-1 $320 reversed single #
loop $-1 $-1 $321 $127 #
plane-surface $-1 17.864688307414511 19.926177024412695 164.75466119547369 0 1 0 0.51503808176128008 0 0.85716729658548041 forward_v I I I I #
coedge $-1 $322 $323 $324 $325 reversed $128 $-1 #
coedge $-1 $208 $130 $326 $327 reversed $82 $-1 #
coedge $-1 $130 $207 $322 $328 reversed $82 $-1 #
coedge $-1 $324 $329 $130 $210 forward $330 $-1 #
edge $-1 $331 -47.647751674412497 $332 -42.269855633757132 $209 $333 forward 7 unknown #
loop $-1 $-1 $216 $131 #
plane-surface $-1 -40.417119734953893 25.790335657872326 67.757445632400035 0.51503808176128008 0 0.85716729658548041 0.85716729658548041 0 -0.51503808176128008 forward_v I I I I #
loop $-1 $-1 $334 $84 #
coedge $-1 $214 $214 $215 $335 reversed $132 $-1 #
coedge $-1 $215 $215 $214 $335 forward $134 $-1 #
coedge $-1 $216 $216 $135 $217 forward $211 $-1 #
edge $-1 $336 0 $336 6.2831853071796004 $216 $337 forward 7 unknown #
face $-1 $338 $339 $45 $-1 $340 reversed single #
loop $-1 $-1 $341 $136 #
plane-surface $-1 -154.579697374837 24.979823628734675 59.133118908785647 0 -1 0 0.86602541151947299 0 -0.49999998660252726 forward_v I I I I #
coedge $-1 $342 $343 $344 $345 reversed $137 $-1 #
coedge $-1 $223 $139 $346 $347 reversed $88 $-1 #
coedge $-1 $139 $222 $342 $348 reversed $88 $-1 #
coedge $-1 $344 $349 $139 $225 forward $350 $-1 #
edge $-1 $351 20.709752859298746 $352 26.572155156462372 $224 $353 forward 7 unknown #
loop $-1 $-1 $231 $140 #
plane-surface $-1 -56.580095828119752 16.200693049362549 2.5530245967264804 -0.86602541151947299 0 0.49999998660252726 0.49999998660252726 0 0.86602541151947299 forward_v I I I I #
loop $-1 $-1 $354 $90 #
coedge $-1 $229 $229 $230 $355 reversed $141 $-1 #
coedge $-1 $230 $230 $229 $355 forward $143 $-1 #
coedge $-1 $231 $231 $144 $232 forward $226 $-1 #
edge $-1 $356 0 $356 6.2831853071796004 $231 $357 forward 7 unknown #
loop $-1 $-1 $238 $145 #
plane-surface $-1 -56.580095828119752 16.200693049362549 2.5530245967264804 -0.86602541151947299 0 0.49999998660252726 0.49999998660252726 0 0.86602541151947299 forward_v I I I I #
loop $-1 $-1 $358 $93 #
coedge $-1 $236 $236 $237 $359 reversed $146 $-1 #
coedge $-1 $237 $237 $236 $359 forward $148 $-1 #
coedge $-1 $238 $238 $149 $239 forward $233 $-1 #
edge $-1 $360 0 $360 6.2831853071796004 $238 $361 forward 7 unknown #
face $-1 $362 $363 $36 $-1 $364 reversed single #
loop $-1 $-1 $365 $150 #
plane-surface $-1 -56.580095828119752 0 0 1 0 0 0 0 -1 forward_v I I I I #
coedge $-1 $366 $251 $367 $368 forward $151 $-1 #
coedge $-1 $369 $153 $366 $370 forward $97 $-1 #
coedge $-1 $153 $369 $371 $372 forward $97 $-1 #
coedge $-1 $254 $253 $153 $247 reversed $255 $-1 #
edge $-1 $373 -33.870526862310165 $374 33.870526862310165 $246 $375 forward 7 unknown #
coedge $-1 $155 $154 $376 $377 forward $61 $-1 #
coedge $-1 $378 $379 $154 $250 reversed $363 $-1 #
edge $-1 $257 -56.580095828119752 $380 56.580095828119752 $249 $381 forward 7 unknown #
coedge $-1 $243 $382 $155 $252 reversed $151 $-1 #
edge $-1 $383 -56.580095828119752 $256 56.580095828119752 $251 $384 forward 7 unknown #
coedge $-1 $246 $156 $382 $385 forward $255 $-1 #
coedge $-1 $156 $246 $378 $386 reversed $255 $-1 #
loop $-1 $-1 $253 $362 #
vertex $-1 $157 $387 #
vertex $-1 $157 $388 #
straight-curve $-1 56.580095828119752 0 12.70700359258946 0 1 0 I I #
face $-1 $-1 $389 $37 $-1 $390 reversed single #
loop $-1 $-1 $164 $158 #
plane-surface $-1 0 0 12.70700359258946 0 0 1 1 0 0 forward_v I I I I #
coedge $-1 $391 $392 $393 $394 reversed $159 $-1 #
coedge $-1 $395 $161 $163 $269 forward $101 $-1 #
coedge $-1 $161 $395 $391 $396 forward $101 $-1 #
coedge $-1 $393 $164 $161 $266 forward $260 $-1 #
edge $-1 $272 7.0310091954765284 $397 18.759326462395791 $265 $398 forward 7 unknown #
coedge $-1 $399 $400 $162 $268 forward $389 $-1 #
edge $-1 $401 -72.901693007705205 $271 -69.670327005147385 $267 $402 forward 7 unknown #
edge $-1 $272 106.88615849832718 $401 113.16019165623948 $163 $403 forward 7 unknown #
coedge $-1 $164 $393 $399 $404 forward $260 $-1 #
vertex $-1 $268 $405 #
vertex $-1 $165 $406 #
straight-curve $-1 8.9323441537072554 -19.926177024412688 12.707003592589459 -1 0 0 I I #
coedge $-1 $274 $274 $-1 $407 reversed $168 $-1 #
edge $-1 $408 0 $408 6.2831853071796004 $169 $409 forward 7 unknown #
vertex $-1 $172 $410 #
ellipse-curve $-1 53.891147807792066 -25.790335657872319 11.091320591310538 0.51503808176128008 0 0.85716729658548041 0.85716729658548041 0 -0.51503808176128008 1 I I #
face $-1 $-1 $290 $39 $-1 $411 forward single #
loop $-1 $-1 $412 $173 #
plane-surface $-1 56.580095828119752 0 0 -1 0 0 0 0 1 forward_v I I I I #
coedge $-1 $413 $414 $415 $416 reversed $174 $-1 #
coedge $-1 $417 $176 $178 $288 forward $110 $-1 #
coedge $-1 $176 $417 $413 $418 forward $110 $-1 #
coedge $-1 $415 $179 $176 $285 forward $290 $-1 #
edge $-1 $292 -1.5657693571475786 $419 10.162547909771687 $284 $420 forward 7 unknown #
coedge $-1 $421 $422 $177 $287 forward $279 $-1 #
edge $-1 $423 -72.901693007705205 $291 -69.670327005147385 $286 $424 forward 7 unknown #
edge $-1 $292 106.88615849832718 $423 113.16019165623948 $178 $425 forward 7 unknown #
coedge $-1 $179 $415 $421 $426 forward $290 $-1 #
loop $-1 $-1 $415 $278 #
vertex $-1 $287 $427 #
vertex $-1 $180 $428 #
straight-curve $-1 8.9323441537072554 -2.7326199191644758 12.707003592589459 -1 0 0 I I #
coedge $-1 $294 $294 $-1 $429 reversed $183 $-1 #
edge $-1 $430 0 $430 6.2831853071796004 $184 $431 forward 7 unknown #
vertex $-1 $187 $432 #
ellipse-curve $-1 53.891147807792066 -8.5967785526241052 11.091320591310538 0.51503808176128008 0 0.85716729658548041 0.85716729658548041 0 -0.51503808176128008 1 I I #
face $-1 $-1 $310 $41 $-1 $433 forward single #
loop $-1 $-1 $434 $188 #
plane-surface $-1 56.580095828119752 0 0 -1 0 0 0 0 1 forward_v I I I I #
coedge $-1 $435 $436 $437 $438 reversed $189 $-1 #
coedge $-1 $439 $191 $193 $308 forward $119 $-1 #
coedge $-1 $191 $439 $435 $440 forward $119 $-1 #
coedge $-1 $437 $194 $191 $305 forward $310 $-1 #
edge $-1 $312 -10.162547909771687 $441 1.5657693571475786 $304 $442 forward 7 unknown #
coedge $-1 $443 $444 $192 $307 forward $299 $-1 #
edge $-1 $445 -72.901693007705205 $311 -69.670327005147385 $306 $446 forward 7 unknown #
edge $-1 $312 106.88615849832718 $445 113.16019165623948 $193 $447 forward 7 unknown #
coedge $-1 $194 $437 $443 $448 forward $310 $-1 #
loop $-1 $-1 $437 $298 #
vertex $-1 $307 $449 #
vertex $-1 $195 $450 #
straight-curve $-1 8.9323441537072554 14.460937186083742 12.707003592589459 -1 0 0 I I #
coedge $-1 $314 $314 $-1 $451 reversed $198 $-1 #
edge $-1 $452 0 $452 6.2831853071796004 $199 $453 forward 7 unknown #
vertex $-1 $202 $454 #
ellipse-curve $-1 53.891147807792066 8.5967785526241087 11.091320591310538 0.51503808176128008 0 0.85716729658548041 0.85716729658548041 0 -0.51503808176128008 1 I I #
face $-1 $-1 $330 $43 $-1 $455 forward single #
loop $-1 $-1 $456 $203 #
plane-surface $-1 56.580095828119752 0 0 -1 0 0 0 0 1 forward_v I I I I #
coedge $-1 $457 $458 $459 $460 reversed $204 $-1 #
coedge $-1 $461 $206 $208 $328 forward $128 $-1 #
coedge $-1 $206 $461 $457 $462 forward $128 $-1 #
coedge $-1 $459 $209 $206 $325 forward $330 $-1 #
edge $-1 $332 -18.759326462395794 $463 -7.0310091954765319 $324 $464 forward 7 unknown #
coedge $-1 $465 $466 $207 $327 forward $319 $-1 #
edge $-1 $467 -72.901693007705205 $331 -69.670327005147385 $326 $468 forward 7 unknown #
edge $-1 $332 106.88615849832718 $467 113.16019165623948 $208 $469 forward 7 unknown #
coedge $-1 $209 $459 $465 $470 forward $330 $-1 #
loop $-1 $-1 $459 $318 #
vertex $-1 $327 $471 #
vertex $-1 $210 $472 #
straight-curve $-1 8.9323441537072554 31.654494291331957 12.707003592589459 -1 0 0 I I #
coedge $-1 $334 $334 $-1 $473 reversed $213 $-1 #
edge $-1 $474 0 $474 6.2831853071796004 $214 $475 forward 7 unknown #
vertex $-1 $217 $476 #
ellipse-curve $-1 53.891147807792066 25.790335657872326 11.091320591310538 0.51503808176128008 0 0.85716729658548041 0.85716729658548041 0 -0.51503808176128008 1 I I #
face $-1 $-1 $350 $45 $-1 $477 forward single #
loop $-1 $-1 $478 $218 #
plane-surface $-1 -56.580095828119752 0 0 1 0 0 0 0 -1 forward_v I I I I #
coedge $-1 $479 $480 $481 $482 reversed $219 $-1 #
coedge $-1 $483 $221 $223 $348 forward $137 $-1 #
coedge $-1 $221 $483 $479 $484 forward $137 $-1 #
coedge $-1 $481 $224 $221 $345 forward $350 $-1 #
edge $-1 $352 -0.67878405469085124 $485 16.8794771040534 $344 $486 forward 7 unknown #
coedge $-1 $487 $488 $222 $347 forward $339 $-1 #
edge $-1 $489 -27.013534857666343 $351 -16.859555861803365 $346 $490 forward 7 unknown #
edge $-1 $352 -11.724804908492761 $489 0 $223 $491 forward 7 unknown #
coedge $-1 $224 $481 $487 $492 forward $350 $-1 #
loop $-1 $-1 $481 $338 #
vertex $-1 $347 $493 #
vertex $-1 $225 $494 #
straight-curve $-1 -77.289848687418498 7.4215624699904232 12.707003592589459 1 0 0 I I #
coedge $-1 $354 $354 $-1 $495 reversed $228 $-1 #
edge $-1 $496 0 $496 6.2831853071796004 $229 $497 forward 7 unknown #
vertex $-1 $232 $498 #
ellipse-curve $-1 -53.648894679537939 12.43820851534592 7.630014094657966 -0.86602541151947299 0 0.49999998660252726 0.99999997320505452 0 1.732050823038946 1 I I #
coedge $-1 $358 $358 $-1 $499 reversed $235 $-1 #
edge $-1 $500 0 $500 6.2831853071796004 $236 $501 forward 7 unknown #
vertex $-1 $239 $502 #
ellipse-curve $-1 -53.648894679537939 19.963177583379171 7.630014094657966 -0.86602541151947299 0 0.49999998660252726 0.99999997320505452 0 1.732050823038946 1 I I #
face $-1 $-1 $255 $36 $-1 $503 reversed single #
loop $-1 $-1 $378 $240 #
plane-surface $-1 0 33.870526862310165 0 0 -1 0 0 0 -1 forward_v I I I I #
coedge $-1 $504 $376 $379 $505 forward $241 $-1 #
coedge $-1 $382 $243 $244 $370 reversed $151 $-1 #
coedge $-1 $376 $504 $243 $368 reversed $241 $-1 #
edge $-1 $383 -12.70700359258946 $506 12.70700359258946 $367 $507 forward 7 unknown #
coedge $-1 $245 $244 $504 $508 forward $97 $-1 #
edge $-1 $374 -56.580095828119752 $506 56.580095828119752 $366 $509 forward 7 unknown #
coedge $-1 $379 $378 $245 $372 reversed $363 $-1 #
edge $-1 $510 -56.580095828119752 $373 56.580095828119752 $371 $511 forward 7 unknown #
vertex $-1 $247 $512 #
vertex $-1 $385 $513 #
straight-curve $-1 56.580095828119752 0 -12.70700359258946 0 -1 0 I I #
coedge $-1 $365 $367 $248 $377 reversed $241 $-1 #
edge $-1 $380 -33.870526862310165 $383 33.870526862310165 $376 $514 forward 7 unknown #
coedge $-1 $371 $249 $254 $386 forward $363 $-1 #
coedge $-1 $249 $371 $365 $505 reversed $363 $-1 #
vertex $-1 $250 $515 #
straight-curve $-1 0 33.870526862310165 12.70700359258946 -1 0 0 I I #
coedge $-1 $251 $366 $253 $385 reversed $151 $-1 #
vertex $-1 $377 $516 #
straight-curve $-1 0 -33.870526862310165 12.70700359258946 1 0 0 I I #
edge $-1 $256 -12.70700359258946 $374 12.70700359258946 $253 $517 forward 7 unknown #
edge $-1 $257 -12.70700359258946 $373 12.70700359258946 $254 $518 forward 7 unknown #
point $-1 56.580095828119752 -33.870526862310165 12.70700359258946 #
point $-1 56.580095828119752 33.870526862310165 12.70700359258946 #
loop $-1 $-1 $267 $259 #
plane-surface $-1 56.580095828119752 0 0 -1 0 0 0 0 1 forward_v I I I I #
coedge $-1 $392 $262 $264 $396 reversed $159 $-1 #
coedge $-1 $262 $391 $519 $520 reversed $159 $-1 #
coedge $-1 $270 $265 $262 $394 forward $260 $-1 #
edge $-1 $397 42.269855633757132 $521 47.647751674412497 $393 $522 forward 7 unknown #
coedge $-1 $264 $263 $400 $523 reversed $101 $-1 #
edge $-1 $524 -113.16019165623948 $397 -106.88615849832718 $391 $525 forward 7 unknown #
vertex $-1 $266 $526 #
straight-curve $-1 51.20219978746438 -12.89516782893616 12.707003592589459 0 -1 0 I I #
coedge $-1 $519 $267 $270 $404 reversed $389 $-1 #
coedge $-1 $267 $519 $395 $523 forward $389 $-1 #
vertex $-1 $268 $527 #
straight-curve $-1 56.580095828119752 -19.926177024412688 82.377330597736844 0 0 1 I I #
straight-curve $-1 -40.417119734953893 -19.926177024412688 67.757445632400035 0.85716729658548041 0 -0.51503808176128008 I I #
edge $-1 $521 -31.65449429133195 $271 -19.926177024412688 $399 $528 forward 7 unknown #
point $-1 56.580095828119752 -19.926177024412688 12.70700359258946 #
point $-1 51.202199787464387 -19.926177024412688 12.707003592589459 #
edge $-1 $529 1 $529 0 $274 $-1 forward 7 unknown #
vertex $-1 $275 $530 #
ellipse-curve $-1 52.070729384461757 -25.790335657872319 8.0616356149213804 0.51503808176128008 0 0.85716729658548041 0.85716729658548041 0 -0.51503808176128008 1 I I #
point $-1 54.748315104377554 -25.790335657872319 10.576282509549271 #
plane-surface $-1 0 0 12.70700359258946 0 0 1 1 0 0 forward_v I I I I #
coedge $-1 $422 $421 $414 $531 forward $279 $-1 #
coedge $-1 $414 $281 $283 $418 reversed $174 $-1 #
coedge $-1 $281 $413 $412 $531 reversed $174 $-1 #
coedge $-1 $289 $284 $281 $416 forward $290 $-1 #
edge $-1 $419 42.269855633757132 $532 47.647751674412497 $415 $533 forward 7 unknown #
coedge $-1 $283 $282 $422 $534 reversed $110 $-1 #
edge $-1 $535 -113.16019165623948 $419 -106.88615849832718 $413 $536 forward 7 unknown #
vertex $-1 $285 $537 #
straight-curve $-1 51.20219978746438 -4.2983892763120544 12.707003592589459 0 -1 0 I I #
coedge $-1 $412 $286 $289 $426 reversed $279 $-1 #
coedge $-1 $286 $412 $417 $534 forward $279 $-1 #
vertex $-1 $287 $538 #
straight-curve $-1 56.580095828119752 -2.7326199191644758 82.377330597736844 0 0 1 I I #
straight-curve $-1 -40.417119734953893 -2.7326199191644758 67.757445632400035 0.85716729658548041 0 -0.51503808176128008 I I #
edge $-1 $532 -14.460937186083742 $291 -2.7326199191644758 $421 $539 forward 7 unknown #
point $-1 56.580095828119752 -2.7326199191644758 12.70700359258946 #
point $-1 51.202199787464387 -2.7326199191644758 12.707003592589459 #
edge $-1 $540 1 $540 0 $294 $-1 forward 7 unknown #
vertex $-1 $295 $541 #
ellipse-curve $-1 52.070729384461757 -8.5967785526241052 8.0616356149213804 0.51503808176128008 0 0.85716729658548041 0.85716729658548041 0 -0.51503808176128008 1 I I #
point $-1 54.748315104377554 -8.5967785526241052 10.576282509549271 #
plane-surface $-1 0 0 12.70700359258946 0 0 1 1 0 0 forward_v I I I I #
coedge $-1 $444 $443 $436 $542 forward $299 $-1 #
coedge $-1 $436 $301 $303 $440 reversed $189 $-1 #
coedge $-1 $301 $435 $434 $542 reversed $189 $-1 #
coedge $-1 $309 $304 $301 $438 forward $310 $-1 #
edge $-1 $441 42.269855633757132 $543 47.647751674412497 $437 $544 forward 7 unknown #
coedge $-1 $303 $302 $444 $545 reversed $119 $-1 #
edge $-1 $546 -113.16019165623948 $441 -106.88615849832718 $435 $547 forward 7 unknown #
vertex $-1 $305 $548 #
straight-curve $-1 51.20219978746438 4.2983892763120544 12.707003592589459 0 -1 0 I I #
coedge $-1 $434 $306 $309 $448 reversed $299 $-1 #
coedge $-1 $306 $434 $439 $545 forward $299 $-1 #
vertex $-1 $307 $549 #
straight-curve $-1 56.580095828119752 14.460937186083742 82.377330597736844 0 0 1 I I #
straight-curve $-1 -40.417119734953893 14.460937186083742 67.757445632400035 0.85716729658548041 0 -0.51503808176128008 I I #
edge $-1 $543 2.7326199191644758 $311 14.460937186083742 $443 $550 forward 7 unknown #
point $-1 56.580095828119752 14.460937186083742 12.70700359258946 #
point $-1 51.202199787464387 14.460937186083742 12.707003592589459 #
edge $-1 $551 1 $551 0 $314 $-1 forward 7 unknown #
vertex $-1 $315 $552 #
ellipse-curve $-1 52.070729384461757 8.5967785526241087 8.0616356149213804 0.51503808176128008 0 0.85716729658548041 0.85716729658548041 0 -0.51503808176128008 1 I I #
point $-1 54.748315104377554 8.5967785526241087 10.576282509549271 #
plane-surface $-1 0 0 12.70700359258946 0 0 1 1 0 0 forward_v I I I I #
coedge $-1 $466 $465 $458 $553 forward $319 $-1 #
coedge $-1 $458 $321 $323 $462 reversed $204 $-1 #
coedge $-1 $321 $457 $456 $553 reversed $204 $-1 #
coedge $-1 $329 $324 $321 $460 forward $330 $-1 #
edge $-1 $463 42.269855633757132 $554 47.647751674412497 $459 $555 forward 7 unknown #
coedge $-1 $323 $322 $466 $556 reversed $128 $-1 #
edge $-1 $557 -113.16019165623948 $463 -106.88615849832718 $457 $558 forward 7 unknown #
vertex $-1 $325 $559 #
straight-curve $-1 51.20219978746438 12.895167828936163 12.707003592589459 0 -1 0 I I #
coedge $-1 $456 $326 $329 $470 reversed $319 $-1 #
coedge $-1 $326 $456 $461 $556 forward $319 $-1 #
vertex $-1 $327 $560 #
straight-curve $-1 56.580095828119752 31.654494291331957 82.377330597736844 0 0 1 I I #
straight-curve $-1 -40.417119734953893 31.654494291331957 67.757445632400035 0.85716729658548041 0 -0.51503808176128008 I I #
edge $-1 $554 19.926177024412695 $331 31.654494291331957 $465 $561 forward 7 unknown #
point $-1 56.580095828119752 31.654494291331957 12.70700359258946 #
point $-1 51.202199787464387 31.654494291331957 12.707003592589459 #
edge $-1 $562 1 $562 0 $334 $-1 forward 7 unknown #
vertex $-1 $335 $563 #
ellipse-curve $-1 52.070729384461757 25.790335657872326 8.0616356149213804 0.51503808176128008 0 0.85716729658548041 0.85716729658548041 0 -0.51503808176128008 1 I I #
point $-1 54.748315104377554 25.790335657872326 10.576282509549271 #
plane-surface $-1 0 0 12.70700359258946 0 0 1 1 0 0 forward_v I I I I #
coedge $-1 $488 $487 $480 $564 forward $339 $-1 #
coedge $-1 $480 $341 $343 $484 reversed $219 $-1 #
coedge $-1 $341 $479 $478 $564 reversed $219 $-1 #
coedge $-1 $349 $344 $341 $482 forward $350 $-1 #
edge $-1 $485 -26.572155156462372 $565 -20.709752859298746 $481 $566 forward 7 unknown #
coedge $-1 $343 $342 $488 $567 reversed $137 $-1 #
edge $-1 $568 0 $485 11.724804908492761 $479 $569 forward 7 unknown #
vertex $-1 $345 $570 #
straight-curve $-1 -50.717693530956126 8.1003465246812745 12.707003592589459 0 1 0 I I #
coedge $-1 $478 $346 $349 $492 reversed $339 $-1 #
coedge $-1 $346 $478 $483 $567 forward $339 $-1 #
vertex $-1 $347 $571 #
straight-curve $-1 -56.580095828119752 7.4215624699904232 29.566559454392824 0 0 1 I I #
straight-curve $-1 -56.580095828119752 7.4215624699904232 2.5530245967264804 -0.49999998660252726 0 -0.86602541151947299 I I #
edge $-1 $565 -24.979823628734675 $351 -7.4215624699904232 $487 $572 forward 7 unknown #
point $-1 -56.580095828119752 7.4215624699904232 12.70700359258946 #
point $-1 -50.717693530956126 7.4215624699904232 12.70700359258946 #
edge $-1 $573 1 $573 0 $354 $-1 forward 7 unknown #
vertex $-1 $355 $574 #
ellipse-curve $-1 -48.887512498195235 12.43820851534592 4.8810289087569467 -0.86602541151947299 0 0.49999998660252726 0.99999997320505452 0 1.732050823038946 1 I I #
point $-1 -52.648894706332875 12.43820851534592 9.3620649176969053 #
edge $-1 $575 1 $575 0 $358 $-1 forward 7 unknown #
vertex $-1 $359 $576 #
ellipse-curve $-1 -48.887512498195235 19.963177583379171 4.8810289087569467 -0.86602541151947299 0 0.49999998660252726 0.99999997320505452 0 1.732050823038946 1 I I #
point $-1 -52.648894706332875 19.963177583379171 9.3620649176969053 #
plane-surface $-1 56.580095828119752 0 0 -1 0 0 0 0 1 forward_v I I I I #
coedge $-1 $367 $365 $369 $508 reversed $241 $-1 #
edge $-1 $380 -12.70700359258946 $510 12.70700359258946 $379 $577 forward 7 unknown #
vertex $-1 $508 $578 #
straight-curve $-1 -56.580095828119752 -33.870526862310165 0 0 0 -1 I I #
edge $-1 $506 -33.870526862310165 $510 33.870526862310165 $504 $579 forward 7 unknown #
straight-curve $-1 0 -33.870526862310165 -12.70700359258946 -1 0 0 I I #
vertex $-1 $372 $580 #
straight-curve $-1 0 33.870526862310165 -12.70700359258946 1 0 0 I I #
point $-1 56.580095828119752 33.870526862310165 -12.70700359258946 #
point $-1 56.580095828119752 -33.870526862310165 -12.70700359258946 #
straight-curve $-1 -56.580095828119752 0 12.70700359258946 0 -1 0 I I #
point $-1 -56.580095828119752 33.870526862310165 12.70700359258946 #
point $-1 -56.580095828119752 -33.870526862310165 12.70700359258946 #
straight-curve $-1 56.580095828119752 -33.870526862310165 0 0 0 -1 I I #
straight-curve $-1 56.580095828119752 33.870526862310165 0 0 0 -1 I I #
coedge $-1 $400 $399 $392 $520 forward $389 $-1 #
edge $-1 $521 69.670327005147385 $524 72.901693007705205 $519 $581 forward 7 unknown #
vertex $-1 $404 $582 #
straight-curve $-1 8.9323441537072554 -31.65449429133195 12.707003592589459 1 0 0 I I #
edge $-1 $524 -18.759326462395791 $401 -7.0310091954765284 $400 $583 forward 7 unknown #
vertex $-1 $523 $584 #
straight-curve $-1 -40.417119734953893 -31.65449429133195 67.757445632400035 -0.85716729658548041 0 0.51503808176128008 I I #
point $-1 51.202199787464387 -31.65449429133195 12.707003592589459 #
point $-1 56.580095828119745 -19.926177024412688 9.4756375900316385 #
straight-curve $-1 56.580095828119752 0 12.70700359258946 0 1 0 I I #
vertex $-1 $407 $585 #
point $-1 52.927896681047237 -25.790335657872319 7.5465975331601003 #
edge $-1 $532 69.670327005147385 $535 72.901693007705205 $412 $586 forward 7 unknown #
vertex $-1 $426 $587 #
straight-curve $-1 8.9323441537072554 -14.460937186083742 12.707003592589459 1 0 0 I I #
edge $-1 $535 -10.162547909771687 $423 1.5657693571475786 $422 $588 forward 7 unknown #
vertex $-1 $534 $589 #
straight-curve $-1 -40.417119734953893 -14.460937186083742 67.757445632400035 -0.85716729658548041 0 0.51503808176128008 I I #
point $-1 51.202199787464387 -14.460937186083742 12.707003592589459 #
point $-1 56.580095828119745 -2.7326199191644758 9.4756375900316385 #
straight-curve $-1 56.580095828119752 0 12.70700359258946 0 1 0 I I #
vertex $-1 $429 $590 #
point $-1 52.927896681047237 -8.5967785526241052 7.5465975331601003 #
edge $-1 $543 69.670327005147385 $546 72.901693007705205 $434 $591 forward 7 unknown #
vertex $-1 $448 $592 #
straight-curve $-1 8.9323441537072554 2.7326199191644758 12.707003592589459 1 0 0 I I #
edge $-1 $546 -1.5657693571475786 $445 10.162547909771687 $444 $593 forward 7 unknown #
vertex $-1 $545 $594 #
straight-curve $-1 -40.417119734953893 2.7326199191644758 67.757445632400035 -0.85716729658548041 0 0.51503808176128008 I I #
point $-1 51.202199787464387 2.7326199191644758 12.707003592589459 #
point $-1 56.580095828119745 14.460937186083742 9.4756375900316385 #
straight-curve $-1 56.580095828119752 0 12.70700359258946 0 1 0 I I #
vertex $-1 $451 $595 #
point $-1 52.927896681047237 8.5967785526241087 7.5465975331601003 #
edge $-1 $554 69.670327005147385 $557 72.901693007705205 $456 $596 forward 7 unknown #
vertex $-1 $470 $597 #
straight-curve $-1 8.9323441537072554 19.926177024412695 12.707003592589459 1 0 0 I I #
edge $-1 $557 7.0310091954765319 $467 18.759326462395794 $466 $598 forward 7 unknown #
vertex $-1 $556 $599 #
straight-curve $-1 -40.417119734953893 19.926177024412695 67.757445632400035 -0.85716729658548041 0 0.51503808176128008 I I #
point $-1 51.202199787464387 19.926177024412695 12.707003592589459 #
point $-1 56.580095828119745 31.654494291331957 9.4756375900316385 #
straight-curve $-1 56.580095828119752 0 12.70700359258946 0 1 0 I I #
vertex $-1 $473 $600 #
point $-1 52.927896681047237 25.790335657872326 7.5465975331601003 #
edge $-1 $565 16.859555861803365 $568 27.013534857666343 $478 $601 forward 7 unknown #
vertex $-1 $492 $602 #
straight-curve $-1 -77.289848687418498 24.979823628734675 12.707003592589459 -1 0 0 I I #
edge $-1 $568 -16.8794771040534 $489 0.67878405469085124 $488 $603 forward 7 unknown #
vertex $-1 $567 $604 #
straight-curve $-1 -56.580095828119752 24.979823628734675 2.5530245967264804 0.49999998660252726 0 0.86602541151947299 I I #
point $-1 -50.717693530956126 24.979823628734675 12.70700359258946 #
point $-1 -56.580095828119752 7.4215624699904232 2.5530245967264804 #
straight-curve $-1 -56.580095828119752 0 12.70700359258946 0 -1 0 I I #
vertex $-1 $495 $605 #
point $-1 -47.887512524990179 12.43820851534592 6.6130797317958923 #
vertex $-1 $499 $606 #
point $-1 -47.887512524990179 19.963177583379171 6.6130797317958923 #
straight-curve $-1 -56.580095828119752 33.870526862310165 0 0 0 -1 I I #
point $-1 -56.580095828119752 -33.870526862310165 -12.70700359258946 #
straight-curve $-1 -56.580095828119752 0 -12.70700359258946 0 1 0 I I #
point $-1 -56.580095828119752 33.870526862310165 -12.70700359258946 #
straight-curve $-1 56.580095828119752 -31.65449429133195 82.377330597736844 0 0 -1 I I #
point $-1 56.580095828119752 -31.65449429133195 12.70700359258946 #
straight-curve $-1 56.580095828119752 -12.89516782893616 9.4756375900316421 0 1 0 I I #
point $-1 56.580095828119745 -31.65449429133195 9.4756375900316385 #
point $-1 51.555691302700481 -25.790335657872319 7.2044683183359002 #
straight-curve $-1 56.580095828119752 -14.460937186083742 82.377330597736844 0 0 -1 I I #
point $-1 56.580095828119752 -14.460937186083742 12.70700359258946 #
straight-curve $-1 56.580095828119752 -4.2983892763120544 9.4756375900316421 0 1 0 I I #
point $-1 56.580095828119745 -14.460937186083742 9.4756375900316385 #
point $-1 51.555691302700481 -8.5967785526241052 7.2044683183359002 #
straight-curve $-1 56.580095828119752 2.7326199191644758 82.377330597736844 0 0 -1 I I #
point $-1 56.580095828119752 2.7326199191644758 12.70700359258946 #
straight-curve $-1 56.580095828119752 4.2983892763120544 9.4756375900316421 0 1 0 I I #
point $-1 56.580095828119745 2.7326199191644758 9.4756375900316385 #
point $-1 51.555691302700481 8.5967785526241087 7.2044683183359002 #
straight-curve $-1 56.580095828119752 19.926177024412695 82.377330597736844 0 0 -1 I I #
point $-1 56.580095828119752 19.926177024412695 12.70700359258946 #
straight-curve $-1 56.580095828119752 12.895167828936163 9.4756375900316421 0 1 0 I I #
point $-1 56.580095828119745 19.926177024412695 9.4756375900316385 #
point $-1 51.555691302700481 25.790335657872326 7.2044683183359002 #
straight-curve $-1 -56.580095828119752 24.979823628734675 29.566559454392824 0 0 -1 I I #
point $-1 -56.580095828119752 24.979823628734675 12.70700359258946 #
straight-curve $-1 -56.580095828119752 8.1003465246812745 2.5530245967264853 0 -1 0 I I #
point $-1 -56.580095828119752 24.979823628734675 2.5530245967264804 #
point $-1 -47.155461675156289 12.43820851534592 3.8810289355518921 #
point $-1 -47.155461675156289 19.963177583379171 3.8810289355518921 #
End-of-ACIS-data 