500 0 8 0           
7 Unknown 11 ACIS 5.0 NT 24 Fri Mar 26 01:52:52 1999 
-1 9.9999999999999995e-007 1e-010 
body $-1 $8 $-1 $9 #
body $-1 $10 $-1 $11 #
body $-1 $12 $-1 $13 #
body $-1 $14 $-1 $15 #
body $-1 $16 $-1 $17 #
body $-1 $18 $-1 $19 #
body $-1 $20 $-1 $21 #
body $-1 $22 $-1 $23 #
lump $-1 $-1 $24 $0 #
transform $-1 1 0 0 0 1 0 0 0 1 73.364055299539174 32.501886311098374 7.8611773913189475 1 rotate no_reflect no_shear #
lump $-1 $-1 $25 $1 #
transform $-1 1 0 0 0 1 0 0 0 1 73.364055299539174 32.501886311098374 7.8611773913189475 1 rotate no_reflect no_shear #
lump $-1 $-1 $26 $2 #
transform $-1 1 0 0 0 1 0 0 0 1 73.364055299539174 32.501886311098374 7.8611773913189475 1 rotate no_reflect no_shear #
lump $-1 $-1 $27 $3 #
transform $-1 1 0 0 0 1 0 0 0 1 73.364055299539174 32.501886311098374 7.8611773913189475 1 rotate no_reflect no_shear #
lump $-1 $-1 $28 $4 #
transform $-1 1 0 0 0 1 0 0 0 1 73.364055299539174 32.501886311098374 7.8611773913189475 1 rotate no_reflect no_shear #
lump $-1 $-1 $29 $5 #
transform $-1 1 0 0 0 1 0 0 0 1 73.364055299539174 32.501886311098374 7.8611773913189475 1 rotate no_reflect no_shear #
lump $-1 $-1 $30 $6 #
transform $-1 1 0 0 0 1 0 0 0 1 73.364055299539174 32.501886311098374 7.8611773913189475 1 rotate no_reflect no_shear #
lump $-1 $-1 $31 $7 #
transform $-1 1 0 0 0 1 0 0 0 1 73.364055299539174 32.501886311098374 7.8611773913189475 1 rotate no_reflect no_shear #
shell $-1 $-1 $-1 $32 $-1 $8 #
shell $-1 $-1 $-1 $33 $-1 $10 #
shell $-1 $-1 $-1 $34 $-1 $12 #
shell $-1 $-1 $-1 $35 $-1 $14 #
shell $-1 $-1 $-1 $36 $-1 $16 #
shell $-1 $-1 $-1 $37 $-1 $18 #
shell $-1 $-1 $-1 $38 $-1 $20 #
shell $-1 $-1 $-1 $39 $-1 $22 #
face $-1 $40 $41 $24 $-1 $42 forward single #
face $-1 $43 $44 $25 $-1 $45 forward single #
face $-1 $46 $47 $26 $-1 $48 reversed single #
face $-1 $49 $50 $27 $-1 $51 forward single #
face $-1 $52 $53 $28 $-1 $54 forward single #
face $-1 $55 $56 $29 $-1 $57 reversed single #
face $-1 $58 $59 $30 $-1 $60 forward single #
face $-1 $61 $62 $31 $-1 $63 forward single #
face $-1 $64 $65 $24 $-1 $66 reversed single #
loop $-1 $-1 $67 $32 #
plane-surface $-1 0 0 7.8611773913189475 0 0 1 1 0 0 forward_v I I I I #
face $-1 $68 $69 $25 $-1 $70 forward single #
loop $-1 $-1 $71 $33 #
plane-surface $-1 0 -32.501886311098374 0 0 1 0 0 0 1 forward_v I I I I #
face $-1 $72 $73 $26 $-1 $74 reversed single #
loop $-1 $-1 $75 $34 #
plane-surface $-1 -188.98738551916412 25.819056100296763 93.258492983330456 0 1 0 -0.78801076186113728 0 0.61566146476048833 forward_v I I I I #
face $-1 $76 $77 $27 $-1 $78 forward single #
loop $-1 $79 $80 $35 #
cone-surface $-1 -70.823254814320492 27.728436160525796 4.9142738784806816 0.78801076186113728 0 -0.61566146476048833 0.30783073238024417 0 0.39400538093056864 1 I I 0 1 0.5 forward I I I I #
face $-1 $81 $82 $28 $-1 $83 forward single #
loop $-1 $84 $85 $36 #
cone-surface $-1 -70.823254814320492 30.592506250869341 4.9142738784806816 0.78801076186113728 0 -0.61566146476048833 0.30783073238024417 0 0.39400538093056864 1 I I 0 1 0.5 forward I I I I #
face $-1 $86 $87 $29 $-1 $88 reversed single #
loop $-1 $-1 $89 $37 #
plane-surface $-1 127.07027432882744 -11.272673413282538 203.82351596458506 0 -1 0 -0.86602541151947299 0 -0.49999998660252726 forward_v I I I I #
face $-1 $90 $91 $30 $-1 $92 forward single #
loop $-1 $93 $94 $38 #
cone-surface $-1 71.231631737942294 -21.305113266939244 5.1393596902237828 -0.86602541151947299 0 -0.49999998660252726 0.49999998660252726 0 -0.86602541151947299 1 I I 0 1 1 forward I I I I #
face $-1 $95 $96 $31 $-1 $97 forward single #
loop $-1 $98 $99 $39 #
cone-surface $-1 71.231631737942294 -15.285649354745225 5.1393596902237828 -0.86602541151947299 0 -0.49999998660252726 0.49999998660252726 0 -0.86602541151947299 1 I I 0 1 1 forward I I I I #
face $-1 $100 $101 $24 $-1 $102 reversed single #
loop $-1 $-1 $103 $40 #
plane-surface $-1 0 0 -7.8611773913189475 0 0 1 1 0 0 forward_v I I I I #
coedge $-1 $104 $105 $106 $107 forward $41 $-1 #
face $-1 $108 $109 $25 $-1 $110 reversed single #
loop $-1 $-1 $111 $43 #
plane-surface $-1 0 0 7.8611773913189475 0 0 1 1 0 0 forward_v I I I I #
coedge $-1 $112 $113 $114 $115 forward $44 $-1 #
face $-1 $116 $117 $26 $-1 $118 reversed single #
loop $-1 $-1 $119 $46 #
plane-surface $-1 -73.364055299539174 29.160471205697569 2.9236494903629477 -0.78801076186113728 0 0.61566146476048833 0.61566146476048833 0 0.78801076186113728 forward_v I I I I #
coedge $-1 $120 $121 $122 $123 reversed $47 $-1 #
face $-1 $-1 $124 $27 $-1 $125 forward single #
loop $-1 $126 $127 $49 #
cone-surface $-1 -70.014261375078945 27.728436160525796 4.2822189499302974 0.78801076186113728 0 -0.61566146476048833 0.15391536619012208 0 0.19700269046528432 1 I I -0.70710678118654746 0.70710678118654746 0.25 forward I I I I #
loop $-1 $-1 $128 $35 #
coedge $-1 $80 $80 $129 $130 reversed $50 $-1 #
face $-1 $-1 $131 $28 $-1 $132 forward single #
loop $-1 $133 $134 $52 #
cone-surface $-1 -70.014261375078945 30.592506250869341 4.2822189499302974 0.78801076186113728 0 -0.61566146476048833 0.15391536619012208 0 0.19700269046528432 1 I I -0.70710678118654746 0.70710678118654746 0.25 forward I I I I #
loop $-1 $-1 $135 $36 #
coedge $-1 $85 $85 $136 $137 reversed $53 $-1 #
face $-1 $138 $139 $29 $-1 $140 reversed single #
loop $-1 $-1 $141 $55 #
plane-surface $-1 1.9657858700838915e-006 -18.295381310842231 130.45946263083175 0.86602541151947299 0 0.49999998660252726 0.49999998660252726 0 -0.86602541151947299 forward_v I I I I #
coedge $-1 $142 $143 $144 $145 reversed $56 $-1 #
face $-1 $-1 $146 $30 $-1 $147 forward single #
loop $-1 $148 $149 $58 #
cone-surface $-1 69.957146909255314 -21.305113266939244 4.4035355575917512 -0.86602541151947299 0 -0.49999998660252726 0.24999999330126363 0 -0.43301270575973649 1 I I -0.70710678118654746 0.70710678118654746 0.5 forward I I I I #
loop $-1 $-1 $150 $38 #
coedge $-1 $94 $94 $151 $152 reversed $59 $-1 #
face $-1 $-1 $153 $31 $-1 $154 forward single #
loop $-1 $155 $156 $61 #
cone-surface $-1 69.957146909255314 -15.285649354745225 4.4035355575917512 -0.86602541151947299 0 -0.49999998660252726 0.24999999330126363 0 -0.43301270575973649 1 I I -0.70710678118654746 0.70710678118654746 0.5 forward I I I I #
loop $-1 $-1 $157 $39 #
coedge $-1 $99 $99 $158 $159 reversed $62 $-1 #
face $-1 $160 $161 $24 $-1 $162 reversed single #
loop $-1 $-1 $163 $64 #
plane-surface $-1 0 -32.501886311098374 0 0 1 0 0 0 1 forward_v I I I I #
coedge $-1 $164 $165 $166 $167 forward $65 $-1 #
coedge $-1 $168 $67 $169 $170 forward $41 $-1 #
coedge $-1 $67 $168 $171 $172 forward $41 $-1 #
coedge $-1 $173 $174 $67 $107 reversed $175 $-1 #
edge $-1 $176 -32.501886311098374 $177 32.501886311098374 $106 $178 forward 7 unknown #
face $-1 $179 $180 $25 $-1 $181 reversed single #
loop $-1 $-1 $182 $68 #
plane-surface $-1 -73.364055299539174 0 0 1 0 0 0 0 -1 forward_v I I I I #
coedge $-1 $183 $184 $113 $185 forward $69 $-1 #
coedge $-1 $186 $71 $187 $188 reversed $44 $-1 #
coedge $-1 $71 $186 $111 $185 reversed $44 $-1 #
coedge $-1 $189 $190 $71 $115 reversed $191 $-1 #
edge $-1 $192 -7.8611773913189475 $193 7.8611773913189475 $114 $194 forward 7 unknown #
face $-1 $195 $196 $26 $-1 $197 reversed single #
loop $-1 $-1 $198 $72 #
plane-surface $-1 0 32.501886311098374 0 0 -1 0 0 0 -1 forward_v I I I I #
coedge $-1 $199 $200 $201 $202 reversed $73 $-1 #
coedge $-1 $121 $75 $203 $204 reversed $47 $-1 #
coedge $-1 $75 $120 $199 $205 reversed $47 $-1 #
coedge $-1 $201 $206 $75 $123 forward $207 $-1 #
edge $-1 $208 21.129637460042886 $209 24.987256932927735 $122 $210 forward 7 unknown #
loop $-1 $-1 $129 $76 #
plane-surface $-1 -73.364055299539174 29.160471205697569 2.9236494903629477 -0.78801076186113728 0 0.61566146476048833 0.61566146476048833 0 0.78801076186113728 forward_v I I I I #
loop $-1 $-1 $211 $49 #
coedge $-1 $127 $127 $128 $212 reversed $77 $-1 #
coedge $-1 $128 $128 $127 $212 forward $79 $-1 #
coedge $-1 $129 $129 $80 $130 forward $124 $-1 #
edge $-1 $213 0 $213 6.2831853071796004 $129 $214 forward 7 unknown #
loop $-1 $-1 $136 $81 #
plane-surface $-1 -73.364055299539174 29.160471205697569 2.9236494903629477 -0.78801076186113728 0 0.61566146476048833 0.61566146476048833 0 0.78801076186113728 forward_v I I I I #
loop $-1 $-1 $215 $52 #
coedge $-1 $134 $134 $135 $216 reversed $82 $-1 #
coedge $-1 $135 $135 $134 $216 forward $84 $-1 #
coedge $-1 $136 $136 $85 $137 forward $131 $-1 #
edge $-1 $217 0 $217 6.2831853071796004 $136 $218 forward 7 unknown #
face $-1 $219 $220 $29 $-1 $221 reversed single #
loop $-1 $-1 $222 $86 #
plane-surface $-1 127.07027432882744 -25.318089208401922 203.82351596458506 0 1 0 0.86602541151947299 0 0.49999998660252726 forward_v I I I I #
coedge $-1 $223 $224 $225 $226 reversed $87 $-1 #
coedge $-1 $143 $89 $227 $228 reversed $56 $-1 #
coedge $-1 $89 $142 $223 $229 reversed $56 $-1 #
coedge $-1 $225 $230 $89 $145 forward $231 $-1 #
edge $-1 $232 -9.8289181351254555 $233 -7.2470152577861811 $144 $234 forward 7 unknown #
loop $-1 $-1 $151 $90 #
plane-surface $-1 1.9657858700838915e-006 -18.295381310842231 130.45946263083175 0.86602541151947299 0 0.49999998660252726 0.49999998660252726 0 -0.86602541151947299 forward_v I I I I #
loop $-1 $-1 $235 $58 #
coedge $-1 $149 $149 $150 $236 reversed $91 $-1 #
coedge $-1 $150 $150 $149 $236 forward $93 $-1 #
coedge $-1 $151 $151 $94 $152 forward $146 $-1 #
edge $-1 $237 0 $237 6.2831853071796004 $151 $238 forward 7 unknown #
loop $-1 $-1 $158 $95 #
plane-surface $-1 1.9657858700838915e-006 -18.295381310842231 130.45946263083175 0.86602541151947299 0 0.49999998660252726 0.49999998660252726 0 -0.86602541151947299 forward_v I I I I #
loop $-1 $-1 $239 $61 #
coedge $-1 $156 $156 $157 $240 reversed $96 $-1 #
coedge $-1 $157 $157 $156 $240 forward $98 $-1 #
coedge $-1 $158 $158 $99 $159 forward $153 $-1 #
edge $-1 $241 0 $241 6.2831853071796004 $158 $242 forward 7 unknown #
face $-1 $243 $244 $24 $-1 $245 reversed single #
loop $-1 $-1 $246 $100 #
plane-surface $-1 -73.364055299539174 0 0 1 0 0 0 0 -1 forward_v I I I I #
coedge $-1 $247 $171 $248 $249 forward $101 $-1 #
coedge $-1 $250 $103 $247 $251 forward $65 $-1 #
coedge $-1 $103 $250 $252 $253 forward $65 $-1 #
coedge $-1 $174 $173 $103 $167 reversed $175 $-1 #
edge $-1 $254 -32.501886311098374 $255 32.501886311098374 $166 $256 forward 7 unknown #
coedge $-1 $105 $104 $257 $258 forward $41 $-1 #
coedge $-1 $259 $260 $104 $170 reversed $244 $-1 #
edge $-1 $177 -73.364055299539174 $261 73.364055299539174 $169 $262 forward 7 unknown #
coedge $-1 $163 $263 $105 $172 reversed $101 $-1 #
edge $-1 $264 -73.364055299539174 $176 73.364055299539174 $171 $265 forward 7 unknown #
coedge $-1 $166 $106 $263 $266 forward $175 $-1 #
coedge $-1 $106 $166 $259 $267 reversed $175 $-1 #
loop $-1 $-1 $173 $243 #
vertex $-1 $107 $268 #
vertex $-1 $107 $269 #
straight-curve $-1 73.364055299539174 0 7.8611773913189475 0 1 0 I I #
face $-1 $270 $191 $25 $-1 $271 reversed single #
loop $-1 $-1 $272 $108 #
plane-surface $-1 -71.5767872184787 -39.68568341379482 0 0 1 0 0 0 1 forward_v I I I I #
coedge $-1 $273 $274 $186 $275 forward $109 $-1 #
coedge $-1 $276 $111 $274 $277 forward $69 $-1 #
coedge $-1 $111 $276 $189 $278 forward $69 $-1 #
edge $-1 $192 69.789519137418225 $279 73.364055299539174 $111 $280 forward 7 unknown #
coedge $-1 $113 $112 $182 $275 reversed $44 $-1 #
coedge $-1 $281 $282 $112 $188 forward $283 $-1 #
edge $-1 $284 -73.364055299539174 $193 -69.789519137418225 $187 $285 forward 7 unknown #
coedge $-1 $286 $114 $184 $278 reversed $191 $-1 #
coedge $-1 $114 $286 $281 $287 reversed $191 $-1 #
loop $-1 $-1 $286 $179 #
vertex $-1 $185 $288 #
vertex $-1 $287 $289 #
straight-curve $-1 -69.789519137418225 -32.501886311098374 0 0 0 -1 I I #
face $-1 $-1 $207 $26 $-1 $290 forward single #
loop $-1 $-1 $291 $116 #
plane-surface $-1 -73.364055299539174 0 0 1 0 0 0 0 -1 forward_v I I I I #
coedge $-1 $292 $293 $200 $294 forward $117 $-1 #
coedge $-1 $295 $119 $121 $205 forward $73 $-1 #
coedge $-1 $119 $295 $198 $294 reversed $73 $-1 #
coedge $-1 $296 $122 $119 $202 forward $207 $-1 #
edge $-1 $209 11.238820497447978 $297 17.92165070824959 $201 $298 forward 7 unknown #
coedge $-1 $299 $291 $120 $204 forward $196 $-1 #
edge $-1 $300 -43.70559700130228 $208 -38.768069100346281 $203 $301 forward 7 unknown #
edge $-1 $209 -6.2658127781078283 $300 0 $121 $302 forward 7 unknown #
coedge $-1 $122 $296 $299 $303 forward $207 $-1 #
loop $-1 $-1 $201 $195 #
vertex $-1 $204 $304 #
vertex $-1 $123 $305 #
straight-curve $-1 -94.493692759582061 25.819056100296763 7.8611773913189467 1 0 0 I I #
coedge $-1 $211 $211 $-1 $306 reversed $126 $-1 #
edge $-1 $307 0 $307 6.2831853071796004 $127 $308 forward 7 unknown #
vertex $-1 $130 $309 #
ellipse-curve $-1 -71.435245563096757 27.728436160525796 5.3924134408409428 -0.78801076186113728 0 0.61566146476048833 0.30783073238024417 0 0.39400538093056864 1 I I #
coedge $-1 $215 $215 $-1 $310 reversed $133 $-1 #
edge $-1 $311 0 $311 6.2831853071796004 $134 $312 forward 7 unknown #
vertex $-1 $137 $313 #
ellipse-curve $-1 -71.435245563096757 30.592506250869341 5.3924134408409428 -0.78801076186113728 0 0.61566146476048833 0.30783073238024417 0 0.39400538093056864 1 I I #
face $-1 $-1 $231 $29 $-1 $314 forward single #
loop $-1 $-1 $315 $138 #
plane-surface $-1 73.364055299539174 0 0 -1 0 0 0 0 1 forward_v I I I I #
coedge $-1 $316 $317 $318 $319 reversed $139 $-1 #
coedge $-1 $320 $141 $143 $229 forward $87 $-1 #
coedge $-1 $141 $320 $316 $321 forward $87 $-1 #
coedge $-1 $318 $144 $141 $226 forward $231 $-1 #
edge $-1 $233 2.1249827578614227 $322 16.170398552980807 $225 $323 forward 7 unknown #
coedge $-1 $324 $325 $142 $228 forward $220 $-1 #
edge $-1 $326 -98.52256771450233 $232 -94.050580590973581 $227 $327 forward 7 unknown #
edge $-1 $233 141.5643047060359 $326 146.72811059907832 $143 $328 forward 7 unknown #
coedge $-1 $144 $318 $324 $329 forward $231 $-1 #
loop $-1 $-1 $318 $219 #
vertex $-1 $228 $330 #
vertex $-1 $145 $331 #
straight-curve $-1 63.535137164413719 -11.272673413282538 7.8611773913189467 -1 0 0 I I #
coedge $-1 $235 $235 $-1 $332 reversed $148 $-1 #
edge $-1 $333 0 $333 6.2831853071796004 $149 $334 forward 7 unknown #
vertex $-1 $152 $335 #
ellipse-curve $-1 72.073103860869537 -21.305113266939244 5.6251838295545546 0.86602541151947299 0 0.49999998660252726 0.49999998660252726 0 -0.86602541151947299 1 I I #
coedge $-1 $239 $239 $-1 $336 reversed $155 $-1 #
edge $-1 $337 0 $337 6.2831853071796004 $156 $338 forward 7 unknown #
vertex $-1 $159 $339 #
ellipse-curve $-1 72.073103860869537 -15.285649354745225 5.6251838295545546 0.86602541151947299 0 0.49999998660252726 0.49999998660252726 0 -0.86602541151947299 1 I I #
face $-1 $-1 $175 $24 $-1 $340 reversed single #
loop $-1 $-1 $259 $160 #
plane-surface $-1 0 32.501886311098374 0 0 -1 0 0 0 -1 forward_v I I I I #
coedge $-1 $341 $257 $260 $342 forward $161 $-1 #
coedge $-1 $263 $163 $164 $251 reversed $101 $-1 #
coedge $-1 $257 $341 $163 $249 reversed $161 $-1 #
edge $-1 $264 -7.8611773913189475 $343 7.8611773913189475 $248 $344 forward 7 unknown #
coedge $-1 $165 $164 $341 $345 forward $65 $-1 #
edge $-1 $255 -73.364055299539174 $343 73.364055299539174 $247 $346 forward 7 unknown #
coedge $-1 $260 $259 $165 $253 reversed $244 $-1 #
edge $-1 $347 -73.364055299539174 $254 73.364055299539174 $252 $348 forward 7 unknown #
vertex $-1 $167 $349 #
vertex $-1 $266 $350 #
straight-curve $-1 73.364055299539174 0 -7.8611773913189475 0 -1 0 I I #
coedge $-1 $246 $248 $168 $258 reversed $161 $-1 #
edge $-1 $261 -32.501886311098374 $264 32.501886311098374 $257 $351 forward 7 unknown #
coedge $-1 $252 $169 $174 $267 forward $244 $-1 #
coedge $-1 $169 $252 $246 $342 reversed $244 $-1 #
vertex $-1 $170 $352 #
straight-curve $-1 0 32.501886311098374 7.8611773913189475 -1 0 0 I I #
coedge $-1 $171 $247 $173 $266 reversed $101 $-1 #
vertex $-1 $258 $353 #
straight-curve $-1 0 -32.501886311098374 7.8611773913189475 1 0 0 I I #
edge $-1 $176 -7.8611773913189475 $255 7.8611773913189475 $173 $354 forward 7 unknown #
edge $-1 $177 -7.8611773913189475 $254 7.8611773913189475 $174 $355 forward 7 unknown #
point $-1 73.364055299539174 -32.501886311098374 7.8611773913189475 #
point $-1 73.364055299539174 32.501886311098374 7.8611773913189475 #
face $-1 $-1 $283 $25 $-1 $356 reversed single #
plane-surface $-1 -69.789519137418225 -36.093784862446597 0 -1 0 0 0 0 1 forward_v I I I I #
coedge $-1 $357 $358 $359 $360 forward $180 $-1 #
coedge $-1 $359 $182 $282 $361 reversed $109 $-1 #
coedge $-1 $182 $359 $183 $277 reversed $109 $-1 #
edge $-1 $279 -7.8611773913189475 $284 7.8611773913189475 $182 $362 forward 7 unknown #
coedge $-1 $184 $183 $358 $363 forward $69 $-1 #
edge $-1 $279 32.501886311098374 $364 39.68568341379482 $274 $365 forward 7 unknown #
edge $-1 $366 -3.5918985513482227 $192 3.5918985513482227 $189 $367 forward 7 unknown #
vertex $-1 $277 $368 #
straight-curve $-1 0 -32.501886311098374 7.8611773913189475 -1 0 0 I I #
coedge $-1 $369 $187 $190 $287 forward $283 $-1 #
coedge $-1 $187 $369 $273 $361 forward $283 $-1 #
loop $-1 $-1 $187 $270 #
vertex $-1 $275 $370 #
straight-curve $-1 0 -32.501886311098374 -7.8611773913189475 1 0 0 I I #
coedge $-1 $190 $189 $371 $372 forward $191 $-1 #
edge $-1 $193 -3.5918985513482227 $373 3.5918985513482227 $190 $374 forward 7 unknown #
point $-1 -69.789519137418225 -32.501886311098374 7.8611773913189475 #
point $-1 -69.789519137418225 -32.501886311098374 -7.8611773913189475 #
plane-surface $-1 0 0 7.8611773913189475 0 0 1 1 0 0 forward_v I I I I #
coedge $-1 $203 $375 $295 $376 forward $196 $-1 #
coedge $-1 $293 $198 $375 $377 reversed $117 $-1 #
coedge $-1 $198 $292 $296 $378 reversed $117 $-1 #
edge $-1 $297 15.165964463976136 $379 21.431777242083964 $198 $380 forward 7 unknown #
coedge $-1 $200 $199 $291 $376 reversed $73 $-1 #
coedge $-1 $206 $201 $293 $378 forward $207 $-1 #
vertex $-1 $378 $381 #
straight-curve $-1 -69.506435826654325 14.580235602848784 7.8611773913189467 0 1 0 I I #
coedge $-1 $375 $203 $206 $303 reversed $196 $-1 #
vertex $-1 $204 $382 #
straight-curve $-1 -73.364055299539174 25.819056100296763 46.629246491665228 0 0 1 I I #
straight-curve $-1 -73.364055299539174 25.819056100296763 2.9236494903629477 -0.61566146476048833 0 -0.78801076186113728 I I #
edge $-1 $383 -32.501886311098374 $208 -25.819056100296763 $299 $384 forward 7 unknown #
point $-1 -73.364055299539174 25.819056100296763 7.8611773913189475 #
point $-1 -69.506435826654325 25.819056100296763 7.8611773913189475 #
edge $-1 $385 1 $385 0 $211 $-1 forward 7 unknown #
vertex $-1 $212 $386 #
ellipse-curve $-1 -70.211264065544228 27.728436160525796 4.4361343161204196 -0.78801076186113728 0 0.61566146476048833 0.30783073238024417 0 0.39400538093056864 1 I I #
point $-1 -71.127414830716504 27.728436160525796 5.7864188217715125 #
edge $-1 $387 1 $387 0 $215 $-1 forward 7 unknown #
vertex $-1 $216 $388 #
ellipse-curve $-1 -70.211264065544228 30.592506250869341 4.4361343161204196 -0.78801076186113728 0 0.61566146476048833 0.30783073238024417 0 0.39400538093056864 1 I I #
point $-1 -71.127414830716504 30.592506250869341 5.7864188217715125 #
plane-surface $-1 0 0 7.8611773913189475 0 0 1 1 0 0 forward_v I I I I #
coedge $-1 $325 $324 $317 $389 forward $220 $-1 #
coedge $-1 $317 $222 $224 $321 reversed $139 $-1 #
coedge $-1 $222 $316 $315 $389 reversed $139 $-1 #
coedge $-1 $230 $225 $222 $319 forward $231 $-1 #
edge $-1 $322 7.2470152577861811 $390 9.8289181351254555 $318 $391 forward 7 unknown #
coedge $-1 $224 $223 $325 $392 reversed $87 $-1 #
edge $-1 $393 -146.72811059907832 $322 -141.5643047060359 $316 $394 forward 7 unknown #
vertex $-1 $226 $395 #
straight-curve $-1 70.782152422199914 -9.1476906554211155 7.8611773913189467 0 -1 0 I I #
coedge $-1 $315 $227 $230 $329 reversed $220 $-1 #
coedge $-1 $227 $315 $320 $392 forward $220 $-1 #
vertex $-1 $228 $396 #
straight-curve $-1 73.364055299539174 -11.272673413282538 101.91175798229253 0 0 1 I I #
straight-curve $-1 1.9657858700838915e-006 -11.272673413282538 130.45946263083175 0.49999998660252726 0 -0.86602541151947299 I I #
edge $-1 $390 -25.318089208401922 $232 -11.272673413282538 $324 $397 forward 7 unknown #
point $-1 73.364055299539174 -11.272673413282538 7.8611773913189475 #
point $-1 70.7821524221999 -11.272673413282538 7.8611773913189467 #
edge $-1 $398 1 $398 0 $235 $-1 forward 7 unknown #
vertex $-1 $236 $399 #
ellipse-curve $-1 70.390159615015051 -21.305113266939244 4.6535355508930145 0.86602541151947299 0 0.49999998660252726 0.49999998660252726 0 -0.86602541151947299 1 I I #
point $-1 72.573103847472069 -21.305113266939244 4.7591584180350779 #
edge $-1 $400 1 $400 0 $239 $-1 forward 7 unknown #
vertex $-1 $240 $401 #
ellipse-curve $-1 70.390159615015051 -15.285649354745225 4.6535355508930145 0.86602541151947299 0 0.49999998660252726 0.49999998660252726 0 -0.86602541151947299 1 I I #
point $-1 72.573103847472069 -15.285649354745225 4.7591584180350779 #
plane-surface $-1 73.364055299539174 0 0 -1 0 0 0 0 1 forward_v I I I I #
coedge $-1 $248 $246 $250 $345 reversed $161 $-1 #
edge $-1 $261 -7.8611773913189475 $347 7.8611773913189475 $260 $402 forward 7 unknown #
vertex $-1 $345 $403 #
straight-curve $-1 -73.364055299539174 -32.501886311098374 0 0 0 -1 I I #
edge $-1 $343 -32.501886311098374 $347 32.501886311098374 $341 $404 forward 7 unknown #
straight-curve $-1 0 -32.501886311098374 -7.8611773913189475 -1 0 0 I I #
vertex $-1 $253 $405 #
straight-curve $-1 0 32.501886311098374 -7.8611773913189475 1 0 0 I I #
point $-1 73.364055299539174 32.501886311098374 -7.8611773913189475 #
point $-1 73.364055299539174 -32.501886311098374 -7.8611773913189475 #
straight-curve $-1 -73.364055299539174 0 7.8611773913189475 0 -1 0 I I #
point $-1 -73.364055299539174 32.501886311098374 7.8611773913189475 #
point $-1 -73.364055299539174 -32.501886311098374 7.8611773913189475 #
straight-curve $-1 73.364055299539174 -32.501886311098374 0 0 0 -1 I I #
straight-curve $-1 73.364055299539174 32.501886311098374 0 0 0 -1 I I #
plane-surface $-1 0 0 -7.8611773913189475 0 0 1 1 0 0 forward_v I I I I #
coedge $-1 $371 $272 $369 $406 reversed $180 $-1 #
coedge $-1 $272 $371 $276 $363 reversed $180 $-1 #
coedge $-1 $274 $273 $272 $360 reversed $109 $-1 #
edge $-1 $364 -7.8611773913189475 $407 7.8611773913189475 $359 $408 forward 7 unknown #
edge $-1 $407 -39.68568341379482 $284 -32.501886311098374 $273 $409 forward 7 unknown #
straight-curve $-1 -73.364055299539174 -32.501886311098374 0 0 0 -1 I I #
edge $-1 $364 -1.7872680810604749 $366 1.7872680810604749 $358 $410 forward 7 unknown #
vertex $-1 $277 $411 #
straight-curve $-1 -73.364055299539174 0 7.8611773913189475 0 -1 0 I I #
vertex $-1 $278 $412 #
straight-curve $-1 -69.789519137418225 -36.093784862446597 7.8611773913189475 0 1 0 I I #
point $-1 -73.364055299539174 -32.501886311098374 7.8611773913189475 #
coedge $-1 $282 $281 $357 $406 forward $283 $-1 #
point $-1 -73.364055299539174 -32.501886311098374 -7.8611773913189475 #
coedge $-1 $358 $357 $286 $372 reversed $180 $-1 #
edge $-1 $366 -7.8611773913189475 $373 7.8611773913189475 $286 $413 forward 7 unknown #
vertex $-1 $372 $414 #
straight-curve $-1 -69.789519137418225 -36.093784862446597 -7.8611773913189475 0 -1 0 I I #
coedge $-1 $291 $299 $292 $377 forward $196 $-1 #
edge $-1 $379 -17.92165070824959 $300 -11.238820497447978 $291 $415 forward 7 unknown #
edge $-1 $383 -7.8611773913189475 $379 -2.9236494903629477 $292 $416 forward 7 unknown #
edge $-1 $297 69.506435826654325 $383 73.364055299539174 $293 $417 forward 7 unknown #
vertex $-1 $376 $418 #
straight-curve $-1 -60.169335930257262 32.501886311098374 19.812120602935714 -0.61566146476048833 0 -0.78801076186113728 I I #
point $-1 -69.506435826654325 32.501886311098374 7.8611773913189475 #
point $-1 -73.364055299539174 25.819056100296763 2.9236494903629477 #
vertex $-1 $378 $419 #
straight-curve $-1 -73.364055299539174 0 7.8611773913189475 0 -1 0 I I #
vertex $-1 $306 $420 #
point $-1 -69.903433333163989 27.728436160525796 4.8301396970509884 #
vertex $-1 $310 $421 #
point $-1 -69.903433333163989 30.592506250869341 4.8301396970509884 #
edge $-1 $390 94.050580590973581 $393 98.52256771450233 $315 $422 forward 7 unknown #
vertex $-1 $329 $423 #
straight-curve $-1 63.535137164413719 -25.318089208401922 7.8611773913189467 1 0 0 I I #
edge $-1 $393 -16.170398552980807 $326 -2.1249827578614227 $325 $424 forward 7 unknown #
vertex $-1 $392 $425 #
straight-curve $-1 1.9657858700838915e-006 -25.318089208401922 130.45946263083175 -0.49999998660252726 0 0.86602541151947299 I I #
point $-1 70.7821524221999 -25.318089208401922 7.8611773913189467 #
point $-1 73.364055299539174 -11.272673413282538 3.3891902677901982 #
straight-curve $-1 73.364055299539174 0 7.8611773913189475 0 1 0 I I #
vertex $-1 $332 $426 #
point $-1 70.890159601617583 -21.305113266939244 3.7875101393735418 #
vertex $-1 $336 $427 #
point $-1 70.890159601617583 -15.285649354745225 3.7875101393735418 #
straight-curve $-1 -73.364055299539174 32.501886311098374 0 0 0 -1 I I #
point $-1 -73.364055299539174 -32.501886311098374 -7.8611773913189475 #
straight-curve $-1 -73.364055299539174 0 -7.8611773913189475 0 1 0 I I #
point $-1 -73.364055299539174 32.501886311098374 -7.8611773913189475 #
edge $-1 $373 -1.7872680810604749 $407 1.7872680810604749 $357 $428 forward 7 unknown #
vertex $-1 $361 $429 #
straight-curve $-1 -73.364055299539174 -39.68568341379482 0 0 0 -1 I I #
straight-curve $-1 -73.364055299539174 0 -7.8611773913189475 0 1 0 I I #
straight-curve $-1 -71.5767872184787 -39.68568341379482 7.8611773913189475 1 0 0 I I #
point $-1 -73.364055299539174 -39.68568341379482 7.8611773913189475 #
point $-1 -69.789519137418225 -39.68568341379482 7.8611773913189475 #
straight-curve $-1 -69.789519137418225 -39.68568341379482 0 0 0 -1 I I #
point $-1 -69.789519137418225 -39.68568341379482 -7.8611773913189475 #
straight-curve $-1 -73.364055299539174 14.580235602848784 2.923649490362946 0 -1 0 I I #
straight-curve $-1 -73.364055299539174 32.501886311098374 0 0 0 -1 I I #
straight-curve $-1 0 32.501886311098374 7.8611773913189475 -1 0 0 I I #
point $-1 -73.364055299539174 32.501886311098374 2.9236494903629477 #
point $-1 -73.364055299539174 32.501886311098374 7.8611773913189475 #
point $-1 -69.817258684613662 27.728436160525796 4.1283035837401751 #
point $-1 -69.817258684613662 30.592506250869341 4.1283035837401751 #
straight-curve $-1 73.364055299539174 -25.318089208401922 101.91175798229253 0 0 -1 I I #
point $-1 73.364055299539174 -25.318089208401922 7.8611773913189475 #
straight-curve $-1 73.364055299539174 -9.1476906554211155 3.389190267790184 0 1 0 I I #
point $-1 73.364055299539174 -25.318089208401922 3.3891902677901982 #
point $-1 69.524134203495578 -21.305113266939244 4.1535355642904879 #
point $-1 69.524134203495578 -15.285649354745225 4.1535355642904879 #
straight-curve $-1 -71.5767872184787 -39.68568341379482 -7.8611773913189475 -1 0 0 I I #
point $-1 -73.364055299539174 -39.68568341379482 -7.8611773913189475 #
End-of-ACIS-data 