500 0 11 0           
7 Unknown 11 ACIS 5.0 NT 24 Thu Mar 25 23:10:06 1999 
-1 9.9999999999999995e-007 1e-010 
body $-1 $11 $-1 $12 #
body $-1 $13 $-1 $14 #
body $-1 $15 $-1 $16 #
body $-1 $17 $-1 $18 #
body $-1 $19 $-1 $20 #
body $-1 $21 $-1 $22 #
body $-1 $23 $-1 $24 #
body $-1 $25 $-1 $26 #
body $-1 $27 $-1 $28 #
body $-1 $29 $-1 $30 #
body $-1 $31 $-1 $32 #
lump $-1 $-1 $33 $0 #
transform $-1 1 0 0 0 1 0 0 0 1 42.108218634601883 18.119371962772291 7.0814135366454654 1 rotate no_reflect no_shear #
lump $-1 $-1 $34 $1 #
transform $-1 1 0 0 0 1 0 0 0 1 42.108218634601883 18.119371962772291 7.0814135366454654 1 rotate no_reflect no_shear #
lump $-1 $-1 $35 $2 #
transform $-1 1 0 0 0 1 0 0 0 1 42.108218634601883 18.119371962772291 7.0814135366454654 1 rotate no_reflect no_shear #
lump $-1 $-1 $36 $3 #
transform $-1 1 0 0 0 1 0 0 0 1 42.108218634601883 18.119371962772291 7.0814135366454654 1 rotate no_reflect no_shear #
lump $-1 $-1 $37 $4 #
transform $-1 1 0 0 0 1 0 0 0 1 42.108218634601883 18.119371962772291 7.0814135366454654 1 rotate no_reflect no_shear #
lump $-1 $-1 $38 $5 #
transform $-1 1 0 0 0 1 0 0 0 1 42.108218634601883 18.119371962772291 7.0814135366454654 1 rotate no_reflect no_shear #
lump $-1 $-1 $39 $6 #
transform $-1 1 0 0 0 1 0 0 0 1 42.108218634601883 18.119371962772291 7.0814135366454654 1 rotate no_reflect no_shear #
lump $-1 $-1 $40 $7 #
transform $-1 1 0 0 0 1 0 0 0 1 42.108218634601883 18.119371962772291 7.0814135366454654 1 rotate no_reflect no_shear #
lump $-1 $-1 $41 $8 #
transform $-1 1 0 0 0 1 0 0 0 1 42.108218634601883 18.119371962772291 7.0814135366454654 1 rotate no_reflect no_shear #
lump $-1 $-1 $42 $9 #
transform $-1 1 0 0 0 1 0 0 0 1 42.108218634601883 18.119371962772291 7.0814135366454654 1 rotate no_reflect no_shear #
lump $-1 $-1 $43 $10 #
transform $-1 1 0 0 0 1 0 0 0 1 42.108218634601883 18.119371962772291 7.0814135366454654 1 rotate no_reflect no_shear #
shell $-1 $-1 $-1 $44 $-1 $11 #
shell $-1 $-1 $-1 $45 $-1 $13 #
shell $-1 $-1 $-1 $46 $-1 $15 #
shell $-1 $-1 $-1 $47 $-1 $17 #
shell $-1 $-1 $-1 $48 $-1 $19 #
shell $-1 $-1 $-1 $49 $-1 $21 #
shell $-1 $-1 $-1 $50 $-1 $23 #
shell $-1 $-1 $-1 $51 $-1 $25 #
shell $-1 $-1 $-1 $52 $-1 $27 #
shell $-1 $-1 $-1 $53 $-1 $29 #
shell $-1 $-1 $-1 $54 $-1 $31 #
face $-1 $55 $56 $33 $-1 $57 forward single #
face $-1 $58 $59 $34 $-1 $60 forward single #
face $-1 $61 $62 $35 $-1 $63 forward single #
face $-1 $64 $65 $36 $-1 $66 reversed single #
face $-1 $67 $68 $37 $-1 $69 forward single #
face $-1 $70 $71 $38 $-1 $72 forward single #
face $-1 $73 $74 $39 $-1 $75 forward single #
face $-1 $76 $77 $40 $-1 $78 reversed single #
face $-1 $79 $80 $41 $-1 $81 forward single #
face $-1 $82 $83 $42 $-1 $84 forward single #
face $-1 $85 $86 $43 $-1 $87 forward single #
face $-1 $88 $89 $33 $-1 $90 reversed single #
loop $-1 $-1 $91 $44 #
plane-surface $-1 0 0 7.0814135366454654 0 0 1 1 0 0 forward_v I I I I #
face $-1 $92 $93 $34 $-1 $94 reversed single #
loop $-1 $-1 $95 $45 #
plane-surface $-1 0 -13.992788280441427 3.8221964398659494 0 0 1 1 0 0 forward_v I I I I #
face $-1 $96 $97 $35 $-1 $98 reversed single #
loop $-1 $-1 $99 $46 #
plane-surface $-1 0 13.992788280441431 3.8221964398659494 0 0 1 1 0 0 forward_v I I I I #
face $-1 $100 $101 $36 $-1 $102 reversed single #
loop $-1 $-1 $103 $47 #
plane-surface $-1 -42.10821863460189 6.880308912732179 0.61170756793316627 -0.71933980857756763 0 0.69465836192734942 0.69465836192734942 0 0.71933980857756763 forward_v I I I I #
face $-1 $104 $105 $37 $-1 $106 forward single #
loop $-1 $107 $108 $48 #
cone-surface $-1 -38.624687589314767 5.0887715015051498 3.4992313713256369 0.71933980857756763 0 -0.69465836192734942 0.17366459048183736 0 0.17983495214439191 1 I I 0 1 0.25 forward I I I I #
face $-1 $109 $110 $38 $-1 $111 forward single #
loop $-1 $112 $113 $49 #
cone-surface $-1 -38.624687589314767 6.880308912732179 3.4992313713256369 0.71933980857756763 0 -0.69465836192734942 0.17366459048183736 0 0.17983495214439191 1 I I 0 1 0.25 forward I I I I #
face $-1 $114 $115 $39 $-1 $116 forward single #
loop $-1 $117 $118 $50 #
cone-surface $-1 -38.624687589314767 8.6718463239592083 3.4992313713256369 0.71933980857756763 0 -0.69465836192734942 0.17366459048183736 0 0.17983495214439191 1 I I 0 1 0.25 forward I I I I #
face $-1 $119 $120 $40 $-1 $121 reversed single #
loop $-1 $-1 $122 $51 #
plane-surface $-1 44.186802138133189 3.8944132273537946 119.6935957930294 0 1 0 0.71933980857756763 0 0.69465836192734942 forward_v I I I I #
face $-1 $123 $124 $41 $-1 $125 forward single #
loop $-1 $126 $127 $52 #
cone-surface $-1 38.62468758931476 5.0887715015051498 3.4992313713256404 -0.71933980857756763 0 -0.69465836192734942 0.17366459048183736 0 -0.17983495214439191 1 I I 0 1 0.25 forward I I I I #
face $-1 $128 $129 $42 $-1 $130 forward single #
loop $-1 $131 $132 $53 #
cone-surface $-1 38.62468758931476 6.880308912732179 3.4992313713256404 -0.71933980857756763 0 -0.69465836192734942 0.17366459048183736 0 -0.17983495214439191 1 I I 0 1 0.25 forward I I I I #
face $-1 $133 $134 $43 $-1 $135 forward single #
loop $-1 $136 $137 $54 #
cone-surface $-1 38.62468758931476 8.6718463239592083 3.4992313713256404 -0.71933980857756763 0 -0.69465836192734942 0.17366459048183736 0 -0.17983495214439191 1 I I 0 1 0.25 forward I I I I #
face $-1 $138 $139 $33 $-1 $140 reversed single #
loop $-1 $-1 $141 $55 #
plane-surface $-1 0 0 -7.0814135366454654 0 0 1 1 0 0 forward_v I I I I #
coedge $-1 $142 $143 $144 $145 forward $56 $-1 #
face $-1 $146 $147 $34 $-1 $148 reversed single #
loop $-1 $-1 $149 $58 #
plane-surface $-1 0 -13.992788280441427 0.82219643986595026 0 0 1 1 0 0 forward_v I I I I #
coedge $-1 $150 $151 $152 $153 reversed $59 $-1 #
face $-1 $154 $155 $35 $-1 $156 reversed single #
loop $-1 $-1 $157 $61 #
plane-surface $-1 0 13.992788280441431 0.82219643986595026 0 0 1 1 0 0 forward_v I I I I #
coedge $-1 $158 $159 $160 $161 reversed $62 $-1 #
face $-1 $162 $163 $36 $-1 $164 forward single #
loop $-1 $-1 $165 $64 #
plane-surface $-1 -102.68845449891566 3.8944132273537946 59.113359928715631 0 1 0 -0.71933980857756763 0 0.69465836192734942 forward_v I I I I #
coedge $-1 $166 $167 $168 $169 reversed $65 $-1 #
face $-1 $-1 $170 $37 $-1 $171 forward single #
loop $-1 $172 $173 $67 #
cone-surface $-1 -38.175100208953786 5.0887715015051498 3.0650698951210433 0.71933980857756763 0 -0.69465836192734942 0.086832295240918678 0 0.089917476072195954 1 I I -0.70710678118654746 0.70710678118654746 0.125 forward I I I I #
loop $-1 $-1 $174 $48 #
coedge $-1 $108 $108 $175 $176 reversed $68 $-1 #
face $-1 $-1 $177 $38 $-1 $178 forward single #
loop $-1 $179 $180 $70 #
cone-surface $-1 -38.175100208953786 6.880308912732179 3.0650698951210433 0.71933980857756763 0 -0.69465836192734942 0.086832295240918678 0 0.089917476072195954 1 I I -0.70710678118654746 0.70710678118654746 0.125 forward I I I I #
loop $-1 $-1 $181 $49 #
coedge $-1 $113 $113 $182 $183 reversed $71 $-1 #
face $-1 $-1 $184 $39 $-1 $185 forward single #
loop $-1 $186 $187 $73 #
cone-surface $-1 -38.175100208953786 8.6718463239592083 3.0650698951210433 0.71933980857756763 0 -0.69465836192734942 0.086832295240918678 0 0.089917476072195954 1 I I -0.70710678118654746 0.70710678118654746 0.125 forward I I I I #
loop $-1 $-1 $188 $50 #
coedge $-1 $118 $118 $189 $190 reversed $74 $-1 #
face $-1 $191 $192 $40 $-1 $193 forward single #
loop $-1 $-1 $194 $76 #
plane-surface $-1 -16.393433726180582 6.880308912732179 61.191943432246937 0.71933980857756763 0 0.69465836192734942 0.69465836192734942 0 -0.71933980857756763 forward_v I I I I #
coedge $-1 $195 $196 $197 $198 reversed $77 $-1 #
face $-1 $-1 $199 $41 $-1 $200 forward single #
loop $-1 $201 $202 $79 #
cone-surface $-1 38.175100208953779 5.0887715015051498 3.0650698951210469 -0.71933980857756763 0 -0.69465836192734942 0.086832295240918678 0 -0.089917476072195954 1 I I -0.70710678118654746 0.70710678118654746 0.125 forward I I I I #
loop $-1 $-1 $203 $52 #
coedge $-1 $127 $127 $204 $205 reversed $80 $-1 #
face $-1 $-1 $206 $42 $-1 $207 forward single #
loop $-1 $208 $209 $82 #
cone-surface $-1 38.175100208953779 6.880308912732179 3.0650698951210469 -0.71933980857756763 0 -0.69465836192734942 0.086832295240918678 0 -0.089917476072195954 1 I I -0.70710678118654746 0.70710678118654746 0.125 forward I I I I #
loop $-1 $-1 $210 $53 #
coedge $-1 $132 $132 $211 $212 reversed $83 $-1 #
face $-1 $-1 $213 $43 $-1 $214 forward single #
loop $-1 $215 $216 $85 #
cone-surface $-1 38.175100208953779 8.6718463239592083 3.0650698951210469 -0.71933980857756763 0 -0.69465836192734942 0.086832295240918678 0 -0.089917476072195954 1 I I -0.70710678118654746 0.70710678118654746 0.125 forward I I I I #
loop $-1 $-1 $217 $54 #
coedge $-1 $137 $137 $218 $219 reversed $86 $-1 #
face $-1 $220 $221 $33 $-1 $222 reversed single #
loop $-1 $-1 $223 $88 #
plane-surface $-1 0 -18.119371962772291 0 0 1 0 0 0 1 forward_v I I I I #
coedge $-1 $224 $225 $226 $227 forward $89 $-1 #
coedge $-1 $228 $91 $229 $230 forward $56 $-1 #
coedge $-1 $91 $228 $231 $232 forward $56 $-1 #
coedge $-1 $233 $234 $91 $145 reversed $235 $-1 #
edge $-1 $236 -18.119371962772291 $237 18.119371962772291 $144 $238 forward 7 unknown #
face $-1 $239 $240 $34 $-1 $241 reversed single #
loop $-1 $-1 $242 $92 #
plane-surface $-1 0 -9.8662045981105635 2.3221964398659498 0 -1 0 0 0 -1 forward_v I I I I #
coedge $-1 $243 $244 $245 $246 reversed $93 $-1 #
coedge $-1 $247 $95 $248 $249 forward $59 $-1 #
coedge $-1 $95 $247 $250 $251 reversed $59 $-1 #
coedge $-1 $252 $253 $95 $153 forward $254 $-1 #
edge $-1 $255 2.8698104578898498 $256 11.122977822551578 $152 $257 forward 7 unknown #
face $-1 $258 $259 $35 $-1 $260 reversed single #
loop $-1 $-1 $261 $96 #
plane-surface $-1 0 9.866204598110567 2.3221964398659498 0 1 0 0 0 1 forward_v I I I I #
coedge $-1 $262 $263 $264 $265 reversed $97 $-1 #
coedge $-1 $266 $99 $267 $268 reversed $62 $-1 #
coedge $-1 $99 $266 $269 $270 forward $62 $-1 #
coedge $-1 $271 $272 $99 $161 forward $259 $-1 #
edge $-1 $273 -11.122977822551579 $274 -2.8698104578898516 $160 $275 forward 7 unknown #
face $-1 $276 $277 $36 $-1 $278 reversed single #
loop $-1 $-1 $279 $100 #
plane-surface $-1 0 9.866204598110567 2.3221964398659498 0 1 0 0 0 1 forward_v I I I I #
coedge $-1 $280 $281 $282 $283 reversed $101 $-1 #
coedge $-1 $284 $103 $279 $285 forward $65 $-1 #
coedge $-1 $103 $284 $280 $286 forward $65 $-1 #
coedge $-1 $282 $287 $103 $169 forward $277 $-1 #
edge $-1 $288 -6.426050141744474 $289 -0.45425877098770506 $168 $290 forward 7 unknown #
loop $-1 $-1 $175 $104 #
plane-surface $-1 -42.10821863460189 6.880308912732179 0.61170756793316627 -0.71933980857756763 0 0.69465836192734942 0.69465836192734942 0 0.71933980857756763 forward_v I I I I #
loop $-1 $-1 $291 $67 #
coedge $-1 $173 $173 $174 $292 reversed $105 $-1 #
coedge $-1 $174 $174 $173 $292 forward $107 $-1 #
coedge $-1 $175 $175 $108 $176 forward $170 $-1 #
edge $-1 $293 0 $293 6.2831853071796004 $175 $294 forward 7 unknown #
loop $-1 $-1 $182 $109 #
plane-surface $-1 -42.10821863460189 6.880308912732179 0.61170756793316627 -0.71933980857756763 0 0.69465836192734942 0.69465836192734942 0 0.71933980857756763 forward_v I I I I #
loop $-1 $-1 $295 $70 #
coedge $-1 $180 $180 $181 $296 reversed $110 $-1 #
coedge $-1 $181 $181 $180 $296 forward $112 $-1 #
coedge $-1 $182 $182 $113 $183 forward $177 $-1 #
edge $-1 $297 0 $297 6.2831853071796004 $182 $298 forward 7 unknown #
loop $-1 $-1 $189 $114 #
plane-surface $-1 -42.10821863460189 6.880308912732179 0.61170756793316627 -0.71933980857756763 0 0.69465836192734942 0.69465836192734942 0 0.71933980857756763 forward_v I I I I #
loop $-1 $-1 $299 $73 #
coedge $-1 $187 $187 $188 $300 reversed $115 $-1 #
coedge $-1 $188 $188 $187 $300 forward $117 $-1 #
coedge $-1 $189 $189 $118 $190 forward $184 $-1 #
edge $-1 $301 0 $301 6.2831853071796004 $189 $302 forward 7 unknown #
face $-1 $303 $304 $40 $-1 $305 forward single #
loop $-1 $-1 $306 $119 #
plane-surface $-1 0 0 7.0814135366454654 0 0 1 1 0 0 forward_v I I I I #
coedge $-1 $307 $308 $309 $310 reversed $120 $-1 #
coedge $-1 $196 $122 $311 $312 reversed $77 $-1 #
coedge $-1 $122 $195 $307 $313 reversed $77 $-1 #
coedge $-1 $309 $314 $122 $198 forward $315 $-1 #
edge $-1 $316 52.765384359869238 $317 59.235090328581535 $197 $318 forward 7 unknown #
loop $-1 $-1 $204 $123 #
plane-surface $-1 -16.393433726180582 6.880308912732179 61.191943432246937 0.71933980857756763 0 0.69465836192734942 0.69465836192734942 0 -0.71933980857756763 forward_v I I I I #
loop $-1 $-1 $319 $79 #
coedge $-1 $202 $202 $203 $320 reversed $124 $-1 #
coedge $-1 $203 $203 $202 $320 forward $126 $-1 #
coedge $-1 $204 $204 $127 $205 forward $199 $-1 #
edge $-1 $321 0 $321 6.2831853071796004 $204 $322 forward 7 unknown #
loop $-1 $-1 $211 $128 #
plane-surface $-1 -16.393433726180582 6.880308912732179 61.191943432246937 0.71933980857756763 0 0.69465836192734942 0.69465836192734942 0 -0.71933980857756763 forward_v I I I I #
loop $-1 $-1 $323 $82 #
coedge $-1 $209 $209 $210 $324 reversed $129 $-1 #
coedge $-1 $210 $210 $209 $324 forward $131 $-1 #
coedge $-1 $211 $211 $132 $212 forward $206 $-1 #
edge $-1 $325 0 $325 6.2831853071796004 $211 $326 forward 7 unknown #
loop $-1 $-1 $218 $133 #
plane-surface $-1 -16.393433726180582 6.880308912732179 61.191943432246937 0.71933980857756763 0 0.69465836192734942 0.69465836192734942 0 -0.71933980857756763 forward_v I I I I #
loop $-1 $-1 $327 $85 #
coedge $-1 $216 $216 $217 $328 reversed $134 $-1 #
coedge $-1 $217 $217 $216 $328 forward $136 $-1 #
coedge $-1 $218 $218 $137 $219 forward $213 $-1 #
edge $-1 $329 0 $329 6.2831853071796004 $218 $330 forward 7 unknown #
face $-1 $331 $332 $33 $-1 $333 reversed single #
loop $-1 $-1 $334 $138 #
plane-surface $-1 -42.108218634601883 0 0 1 0 0 0 0 -1 forward_v I I I I #
coedge $-1 $335 $231 $336 $337 forward $139 $-1 #
coedge $-1 $338 $141 $335 $339 forward $89 $-1 #
coedge $-1 $141 $338 $340 $341 forward $89 $-1 #
coedge $-1 $234 $233 $141 $227 reversed $235 $-1 #
edge $-1 $342 -18.119371962772291 $343 18.119371962772291 $226 $344 forward 7 unknown #
coedge $-1 $143 $142 $345 $346 forward $56 $-1 #
coedge $-1 $347 $348 $142 $230 reversed $332 $-1 #
edge $-1 $237 -42.108218634601883 $349 42.108218634601883 $229 $350 forward 7 unknown #
coedge $-1 $223 $351 $143 $232 reversed $139 $-1 #
edge $-1 $352 -42.108218634601883 $236 42.108218634601883 $231 $353 forward 7 unknown #
coedge $-1 $226 $144 $351 $354 forward $235 $-1 #
coedge $-1 $144 $226 $347 $355 reversed $235 $-1 #
loop $-1 $-1 $233 $331 #
vertex $-1 $145 $356 #
vertex $-1 $145 $357 #
straight-curve $-1 42.108218634601883 0 7.0814135366454654 0 1 0 I I #
face $-1 $358 $359 $34 $-1 $360 reversed single #
loop $-1 $-1 $361 $146 #
plane-surface $-1 -42.108218634601883 0 0 1 0 0 0 0 -1 forward_v I I I I #
coedge $-1 $362 $248 $253 $363 reversed $147 $-1 #
coedge $-1 $364 $149 $365 $366 reversed $93 $-1 #
coedge $-1 $149 $364 $362 $367 forward $93 $-1 #
coedge $-1 $253 $252 $149 $246 forward $254 $-1 #
edge $-1 $368 -11.122977822551578 $369 -2.8698104578898498 $245 $370 forward 7 unknown #
coedge $-1 $151 $150 $361 $371 reversed $59 $-1 #
coedge $-1 $242 $372 $150 $249 reversed $147 $-1 #
edge $-1 $255 -42.108218634601883 $373 42.108218634601883 $248 $374 forward 7 unknown #
coedge $-1 $375 $376 $151 $251 forward $359 $-1 #
edge $-1 $256 -42.108218634601883 $377 42.108218634601883 $250 $378 forward 7 unknown #
coedge $-1 $245 $152 $376 $379 forward $254 $-1 #
coedge $-1 $152 $245 $242 $363 forward $254 $-1 #
loop $-1 $-1 $152 $358 #
vertex $-1 $153 $380 #
vertex $-1 $379 $381 #
straight-curve $-1 42.108218634601883 -6.9963941402207137 3.8221964398659494 0 -1 0 I I #
face $-1 $382 $383 $35 $-1 $384 reversed single #
loop $-1 $-1 $160 $154 #
plane-surface $-1 42.108218634601883 0 0 -1 0 0 0 0 1 forward_v I I I I #
coedge $-1 $385 $269 $386 $387 reversed $155 $-1 #
coedge $-1 $388 $157 $385 $389 forward $97 $-1 #
coedge $-1 $157 $388 $390 $391 reversed $97 $-1 #
coedge $-1 $272 $271 $157 $265 forward $259 $-1 #
edge $-1 $392 2.8698104578898516 $393 11.122977822551579 $264 $394 forward 7 unknown #
coedge $-1 $159 $158 $395 $396 reversed $62 $-1 #
coedge $-1 $397 $398 $158 $268 forward $399 $-1 #
edge $-1 $400 -42.108218634601883 $273 42.108218634601883 $267 $401 forward 7 unknown #
coedge $-1 $261 $402 $159 $270 reversed $155 $-1 #
edge $-1 $403 -42.108218634601883 $274 42.108218634601883 $269 $404 forward 7 unknown #
coedge $-1 $264 $160 $402 $405 forward $259 $-1 #
coedge $-1 $160 $264 $397 $406 reversed $259 $-1 #
vertex $-1 $406 $407 #
vertex $-1 $161 $408 #
straight-curve $-1 42.108218634601883 6.9963941402207155 3.8221964398659494 0 -1 0 I I #
face $-1 $-1 $409 $36 $-1 $410 forward single #
loop $-1 $-1 $287 $162 #
plane-surface $-1 -42.108218634601883 0 0 1 0 0 0 0 -1 forward_v I I I I #
coedge $-1 $411 $412 $166 $285 reversed $163 $-1 #
coedge $-1 $281 $165 $167 $286 reversed $101 $-1 #
coedge $-1 $165 $280 $413 $414 reversed $101 $-1 #
coedge $-1 $415 $168 $165 $283 forward $277 $-1 #
edge $-1 $289 -28.944972396424642 $416 -22.475266427712349 $282 $417 forward 7 unknown #
coedge $-1 $167 $166 $418 $419 reversed $65 $-1 #
edge $-1 $288 1.0206786807905858e-014 $420 8.9939495792754514 $279 $421 forward 7 unknown #
edge $-1 $422 -8.9939495792754514 $289 -1.0206786807905858e-014 $280 $423 forward 7 unknown #
coedge $-1 $168 $415 $411 $424 forward $277 $-1 #
vertex $-1 $169 $425 #
vertex $-1 $169 $426 #
straight-curve $-1 -42.108218634601883 3.4401544563660895 0.61170756793316683 0 -1 0 I I #
coedge $-1 $291 $291 $-1 $427 reversed $172 $-1 #
edge $-1 $428 0 $428 6.2831853071796004 $173 $429 forward 7 unknown #
vertex $-1 $176 $430 #
ellipse-curve $-1 -38.984357493603561 5.0887715015051498 3.846560552289318 -0.71933980857756763 0 0.69465836192734942 0.17366459048183736 0 0.17983495214439191 1 I I #
coedge $-1 $295 $295 $-1 $431 reversed $179 $-1 #
edge $-1 $432 0 $432 6.2831853071796004 $180 $433 forward 7 unknown #
vertex $-1 $183 $434 #
ellipse-curve $-1 -38.984357493603561 6.880308912732179 3.846560552289318 -0.71933980857756763 0 0.69465836192734942 0.17366459048183736 0 0.17983495214439191 1 I I #
coedge $-1 $299 $299 $-1 $435 reversed $186 $-1 #
edge $-1 $436 0 $436 6.2831853071796004 $187 $437 forward 7 unknown #
vertex $-1 $190 $438 #
ellipse-curve $-1 -38.984357493603561 8.6718463239592083 3.846560552289318 -0.71933980857756763 0 0.69465836192734942 0.17366459048183736 0 0.17983495214439191 1 I I #
face $-1 $-1 $315 $40 $-1 $439 reversed single #
loop $-1 $-1 $440 $191 #
plane-surface $-1 0 9.866204598110567 2.3221964398659498 0 1 0 0 0 1 forward_v I I I I #
coedge $-1 $441 $442 $443 $444 forward $192 $-1 #
coedge $-1 $445 $194 $196 $313 forward $120 $-1 #
coedge $-1 $194 $445 $440 $446 forward $120 $-1 #
coedge $-1 $447 $197 $194 $310 forward $315 $-1 #
edge $-1 $317 0.45425877098770506 $448 6.426050141744474 $309 $449 forward 7 unknown #
coedge $-1 $442 $441 $195 $312 forward $192 $-1 #
edge $-1 $450 13.76709528353863 $316 20.014817565535289 $311 $451 forward 7 unknown #
edge $-1 $317 -84.216437269203766 $450 -75.222487689928315 $196 $452 forward 7 unknown #
coedge $-1 $197 $447 $442 $453 reversed $315 $-1 #
loop $-1 $-1 $447 $303 #
vertex $-1 $453 $454 #
vertex $-1 $198 $455 #
straight-curve $-1 42.108218634601883 3.8944132273537946 59.846797896514701 0 0 -1 I I #
coedge $-1 $319 $319 $-1 $456 reversed $201 $-1 #
edge $-1 $457 0 $457 6.2831853071796004 $202 $458 forward 7 unknown #
vertex $-1 $205 $459 #
ellipse-curve $-1 38.984357493603547 5.0887715015051498 3.8465605522893203 0.71933980857756763 0 0.69465836192734942 0.17366459048183736 0 -0.17983495214439191 1 I I #
coedge $-1 $323 $323 $-1 $460 reversed $208 $-1 #
edge $-1 $461 0 $461 6.2831853071796004 $209 $462 forward 7 unknown #
vertex $-1 $212 $463 #
ellipse-curve $-1 38.984357493603547 6.880308912732179 3.8465605522893203 0.71933980857756763 0 0.69465836192734942 0.17366459048183736 0 -0.17983495214439191 1 I I #
coedge $-1 $327 $327 $-1 $464 reversed $215 $-1 #
edge $-1 $465 0 $465 6.2831853071796004 $216 $466 forward 7 unknown #
vertex $-1 $219 $467 #
ellipse-curve $-1 38.984357493603547 8.6718463239592083 3.8465605522893203 0.71933980857756763 0 0.69465836192734942 0.17366459048183736 0 -0.17983495214439191 1 I I #
face $-1 $-1 $235 $33 $-1 $468 reversed single #
loop $-1 $-1 $347 $220 #
plane-surface $-1 0 18.119371962772291 0 0 -1 0 0 0 -1 forward_v I I I I #
coedge $-1 $469 $345 $348 $470 forward $221 $-1 #
coedge $-1 $351 $223 $224 $339 reversed $139 $-1 #
coedge $-1 $345 $469 $223 $337 reversed $221 $-1 #
edge $-1 $352 -7.0814135366454654 $471 7.0814135366454654 $336 $472 forward 7 unknown #
coedge $-1 $225 $224 $469 $473 forward $89 $-1 #
edge $-1 $343 -42.108218634601883 $471 42.108218634601883 $335 $474 forward 7 unknown #
coedge $-1 $348 $347 $225 $341 reversed $332 $-1 #
edge $-1 $475 -42.108218634601883 $342 42.108218634601883 $340 $476 forward 7 unknown #
vertex $-1 $227 $477 #
vertex $-1 $354 $478 #
straight-curve $-1 42.108218634601883 0 -7.0814135366454654 0 -1 0 I I #
coedge $-1 $334 $336 $228 $346 reversed $221 $-1 #
edge $-1 $349 -18.119371962772291 $352 18.119371962772291 $345 $479 forward 7 unknown #
coedge $-1 $340 $229 $234 $355 forward $332 $-1 #
coedge $-1 $229 $340 $334 $470 reversed $332 $-1 #
vertex $-1 $230 $480 #
straight-curve $-1 0 18.119371962772291 7.0814135366454654 -1 0 0 I I #
coedge $-1 $231 $335 $233 $354 reversed $139 $-1 #
vertex $-1 $346 $481 #
straight-curve $-1 0 -18.119371962772291 7.0814135366454654 1 0 0 I I #
edge $-1 $236 -7.0814135366454654 $343 7.0814135366454654 $233 $482 forward 7 unknown #
edge $-1 $237 -7.0814135366454654 $342 7.0814135366454654 $234 $483 forward 7 unknown #
point $-1 42.108218634601883 -18.119371962772291 7.0814135366454654 #
point $-1 42.108218634601883 18.119371962772291 7.0814135366454654 #
face $-1 $-1 $254 $34 $-1 $484 reversed single #
loop $-1 $-1 $250 $239 #
plane-surface $-1 0 -18.119371962772291 0 0 1 0 0 0 1 forward_v I I I I #
coedge $-1 $485 $486 $247 $371 forward $240 $-1 #
coedge $-1 $372 $242 $244 $367 reversed $147 $-1 #
edge $-1 $369 -0.33890178006702465 $255 2.6610982199329745 $253 $487 forward 7 unknown #
coedge $-1 $244 $243 $488 $489 reversed $93 $-1 #
coedge $-1 $376 $375 $243 $366 forward $359 $-1 #
edge $-1 $490 -42.108218634601883 $368 42.108218634601883 $365 $491 forward 7 unknown #
edge $-1 $492 -42.108218634601883 $369 42.108218634601883 $362 $493 forward 7 unknown #
vertex $-1 $366 $494 #
vertex $-1 $246 $495 #
straight-curve $-1 42.108218634601883 -6.9963941402207137 0.82219643986595026 0 1 0 I I #
edge $-1 $377 -11.122977822551578 $373 -2.8698104578898498 $361 $496 forward 7 unknown #
coedge $-1 $248 $362 $485 $497 reversed $147 $-1 #
vertex $-1 $371 $498 #
straight-curve $-1 0 -9.8662045981105635 3.8221964398659494 -1 0 0 I I #
coedge $-1 $365 $250 $486 $499 forward $359 $-1 #
coedge $-1 $250 $365 $252 $379 reversed $359 $-1 #
vertex $-1 $499 $500 #
straight-curve $-1 0 -18.119371962772291 3.8221964398659494 -1 0 0 I I #
edge $-1 $256 -3.8221964398659494 $368 -0.82219643986595026 $252 $501 forward 7 unknown #
point $-1 42.108218634601883 -9.8662045981105635 3.8221964398659494 #
point $-1 42.108218634601883 -18.119371962772291 3.8221964398659494 #
face $-1 $-1 $399 $35 $-1 $502 reversed single #
loop $-1 $-1 $395 $258 #
plane-surface $-1 -42.108218634601883 0 0 1 0 0 0 0 -1 forward_v I I I I #
coedge $-1 $402 $261 $262 $389 reversed $155 $-1 #
coedge $-1 $395 $503 $261 $387 forward $383 $-1 #
edge $-1 $504 -0.33890178006702465 $403 2.6610982199329745 $386 $505 forward 7 unknown #
coedge $-1 $263 $262 $503 $506 reversed $97 $-1 #
edge $-1 $392 -42.108218634601883 $504 42.108218634601883 $385 $507 forward 7 unknown #
coedge $-1 $398 $397 $263 $391 forward $399 $-1 #
edge $-1 $393 -42.108218634601883 $508 42.108218634601883 $390 $509 forward 7 unknown #
vertex $-1 $265 $510 #
vertex $-1 $391 $511 #
straight-curve $-1 42.108218634601883 6.9963941402207155 0.82219643986595026 0 1 0 I I #
coedge $-1 $512 $386 $266 $396 forward $383 $-1 #
edge $-1 $403 2.8698104578898516 $400 11.122977822551579 $395 $513 forward 7 unknown #
coedge $-1 $390 $267 $272 $406 forward $399 $-1 #
coedge $-1 $267 $390 $512 $514 reversed $399 $-1 #
loop $-1 $-1 $267 $382 #
vertex $-1 $514 $515 #
straight-curve $-1 0 18.119371962772291 3.8221964398659494 1 0 0 I I #
coedge $-1 $269 $385 $271 $405 reversed $155 $-1 #
vertex $-1 $396 $516 #
straight-curve $-1 0 9.866204598110567 3.8221964398659494 1 0 0 I I #
edge $-1 $274 -2.6610982199329745 $392 0.33890178006702465 $271 $517 forward 7 unknown #
edge $-1 $273 -3.8221964398659494 $393 -0.82219643986595026 $272 $518 forward 7 unknown #
point $-1 42.108218634601883 18.119371962772295 3.8221964398659494 #
point $-1 42.108218634601883 9.866204598110567 3.8221964398659494 #
loop $-1 $-1 $519 $276 #
plane-surface $-1 0 0 7.0814135366454654 0 0 1 1 0 0 forward_v I I I I #
coedge $-1 $412 $279 $287 $424 reversed $163 $-1 #
coedge $-1 $279 $411 $519 $520 reversed $163 $-1 #
coedge $-1 $418 $521 $281 $414 forward $409 $-1 #
edge $-1 $416 9.2360086148559475 $422 15.483730896852599 $413 $522 forward 7 unknown #
coedge $-1 $287 $282 $521 $523 reversed $277 $-1 #
vertex $-1 $414 $524 #
straight-curve $-1 -42.108218634601883 3.8944132273537946 29.556679964357816 0 0 1 I I #
coedge $-1 $519 $413 $284 $419 forward $409 $-1 #
edge $-1 $422 0.45425877098770506 $420 6.426050141744474 $418 $525 forward 7 unknown #
vertex $-1 $520 $526 #
straight-curve $-1 -42.10821863460189 9.8662045981105635 0.61170756793316627 0.69465836192734942 0 0.71933980857756763 I I #
vertex $-1 $419 $527 #
straight-curve $-1 -42.10821863460189 3.8944132273537946 0.61170756793316627 -0.69465836192734942 0 -0.71933980857756763 I I #
edge $-1 $528 22.475266427712349 $288 28.944972396424642 $287 $529 forward 7 unknown #
point $-1 -42.108218634601883 9.8662045981105635 0.6117075679331736 #
point $-1 -42.108218634601883 3.8944132273537946 0.6117075679331736 #
edge $-1 $530 1 $530 0 $291 $-1 forward 7 unknown #
vertex $-1 $292 $531 #
ellipse-curve $-1 -38.265017685025981 5.0887715015051498 3.151902190361962 -0.71933980857756763 0 0.69465836192734942 0.17366459048183736 0 0.17983495214439191 1 I I #
point $-1 -38.810692903121712 5.0887715015051498 4.0263955044337036 #
edge $-1 $532 1 $532 0 $295 $-1 forward 7 unknown #
vertex $-1 $296 $533 #
ellipse-curve $-1 -38.265017685025981 6.880308912732179 3.151902190361962 -0.71933980857756763 0 0.69465836192734942 0.17366459048183736 0 0.17983495214439191 1 I I #
point $-1 -38.810692903121712 6.880308912732179 4.0263955044337036 #
edge $-1 $534 1 $534 0 $299 $-1 forward 7 unknown #
vertex $-1 $300 $535 #
ellipse-curve $-1 -38.265017685025981 8.6718463239592083 3.151902190361962 -0.71933980857756763 0 0.69465836192734942 0.17366459048183736 0 0.17983495214439191 1 I I #
point $-1 -38.810692903121712 8.6718463239592083 4.0263955044337036 #
plane-surface $-1 42.108218634601883 0 0 -1 0 0 0 0 1 forward_v I I I I #
coedge $-1 $443 $536 $308 $446 reversed $304 $-1 #
coedge $-1 $311 $306 $445 $537 forward $192 $-1 #
coedge $-1 $306 $311 $314 $453 forward $192 $-1 #
coedge $-1 $536 $440 $306 $444 reversed $304 $-1 #
edge $-1 $538 -20.014817565535289 $539 -13.76709528353863 $306 $540 forward 7 unknown #
coedge $-1 $308 $307 $441 $537 reversed $120 $-1 #
edge $-1 $539 75.222487689928315 $448 84.216437269203766 $440 $541 forward 7 unknown #
coedge $-1 $314 $309 $536 $542 forward $315 $-1 #
vertex $-1 $542 $543 #
straight-curve $-1 42.108218634601883 3.4401544563660895 0.61170756793317338 0 1 0 I I #
vertex $-1 $312 $544 #
straight-curve $-1 22.093401069066594 3.8944132273537946 7.0814135366454636 1 0 0 I I #
straight-curve $-1 -16.393433726180582 3.8944132273537946 61.191943432246937 -0.69465836192734942 0 0.71933980857756763 I I #
edge $-1 $316 3.8944132273537946 $538 9.8662045981105635 $314 $545 forward 7 unknown #
point $-1 42.108218634601883 3.8944132273537946 7.0814135366454654 #
point $-1 42.108218634601883 3.8944132273537946 0.61170756793316627 #
edge $-1 $546 1 $546 0 $319 $-1 forward 7 unknown #
vertex $-1 $320 $547 #
ellipse-curve $-1 38.265017685025974 5.0887715015051498 3.1519021903619655 0.71933980857756763 0 0.69465836192734942 0.17366459048183736 0 -0.17983495214439191 1 I I #
point $-1 39.158022084085381 5.0887715015051498 3.6667256001449231 #
edge $-1 $548 1 $548 0 $323 $-1 forward 7 unknown #
vertex $-1 $324 $549 #
ellipse-curve $-1 38.265017685025974 6.880308912732179 3.1519021903619655 0.71933980857756763 0 0.69465836192734942 0.17366459048183736 0 -0.17983495214439191 1 I I #
point $-1 39.158022084085381 6.880308912732179 3.6667256001449231 #
edge $-1 $550 1 $550 0 $327 $-1 forward 7 unknown #
vertex $-1 $328 $551 #
ellipse-curve $-1 38.265017685025974 8.6718463239592083 3.1519021903619655 0.71933980857756763 0 0.69465836192734942 0.17366459048183736 0 -0.17983495214439191 1 I I #
point $-1 39.158022084085381 8.6718463239592083 3.6667256001449231 #
plane-surface $-1 42.108218634601883 0 0 -1 0 0 0 0 1 forward_v I I I I #
coedge $-1 $336 $334 $338 $473 reversed $221 $-1 #
edge $-1 $349 -7.0814135366454654 $475 7.0814135366454654 $348 $552 forward 7 unknown #
vertex $-1 $473 $553 #
straight-curve $-1 -42.108218634601883 -18.119371962772291 0 0 0 -1 I I #
edge $-1 $471 -18.119371962772291 $475 18.119371962772291 $469 $554 forward 7 unknown #
straight-curve $-1 0 -18.119371962772291 -7.0814135366454654 -1 0 0 I I #
vertex $-1 $341 $555 #
straight-curve $-1 0 18.119371962772291 -7.0814135366454654 1 0 0 I I #
point $-1 42.108218634601883 18.119371962772291 -7.0814135366454654 #
point $-1 42.108218634601883 -18.119371962772291 -7.0814135366454654 #
straight-curve $-1 -42.108218634601883 0 7.0814135366454654 0 -1 0 I I #
point $-1 -42.108218634601883 18.119371962772291 7.0814135366454654 #
point $-1 -42.108218634601883 -18.119371962772291 7.0814135366454654 #
straight-curve $-1 42.108218634601883 -18.119371962772291 0 0 0 -1 I I #
straight-curve $-1 42.108218634601883 18.119371962772291 0 0 0 -1 I I #
plane-surface $-1 42.108218634601883 0 0 -1 0 0 0 0 1 forward_v I I I I #
coedge $-1 $488 $361 $372 $497 forward $240 $-1 #
coedge $-1 $361 $488 $375 $499 reversed $240 $-1 #
straight-curve $-1 42.108218634601883 -9.8662045981105635 1.1610982199329749 0 0 1 I I #
coedge $-1 $486 $485 $364 $489 forward $240 $-1 #
edge $-1 $492 2.8698104578898498 $490 11.122977822551578 $488 $556 forward 7 unknown #
vertex $-1 $366 $557 #
straight-curve $-1 0 -18.119371962772291 0.82219643986595026 1 0 0 I I #
vertex $-1 $489 $558 #
straight-curve $-1 0 -9.8662045981105635 0.82219643986595026 1 0 0 I I #
point $-1 42.108218634601883 -18.119371962772291 0.82219643986595026 #
point $-1 42.108218634601883 -9.8662045981105635 0.82219643986595026 #
straight-curve $-1 -42.108218634601883 -6.9963941402207137 3.8221964398659494 0 1 0 I I #
edge $-1 $373 -2.6610982199329745 $492 0.33890178006702465 $485 $559 forward 7 unknown #
point $-1 -42.108218634601883 -9.8662045981105635 3.8221964398659494 #
edge $-1 $377 -3.8221964398659494 $490 -0.82219643986595026 $486 $560 forward 7 unknown #
point $-1 -42.108218634601883 -18.119371962772291 3.8221964398659494 #
straight-curve $-1 42.108218634601883 -18.119371962772291 0 0 0 -1 I I #
plane-surface $-1 0 18.119371962772291 0 0 -1 0 0 0 -1 forward_v I I I I #
coedge $-1 $386 $512 $388 $506 forward $383 $-1 #
vertex $-1 $506 $561 #
straight-curve $-1 -42.108218634601883 9.866204598110567 1.1610982199329749 0 0 1 I I #
edge $-1 $508 -11.122977822551579 $504 -2.8698104578898516 $503 $562 forward 7 unknown #
straight-curve $-1 0 9.866204598110567 0.82219643986595026 -1 0 0 I I #
vertex $-1 $391 $563 #
straight-curve $-1 0 18.119371962772291 0.82219643986595026 -1 0 0 I I #
point $-1 42.108218634601883 9.866204598110567 0.82219643986595026 #
point $-1 42.108218634601883 18.119371962772295 0.82219643986595026 #
coedge $-1 $503 $395 $398 $514 forward $383 $-1 #
straight-curve $-1 -42.108218634601883 6.9963941402207155 3.8221964398659494 0 1 0 I I #
edge $-1 $400 -3.8221964398659494 $508 -0.82219643986595026 $398 $564 forward 7 unknown #
point $-1 -42.108218634601883 18.119371962772295 3.8221964398659494 #
point $-1 -42.108218634601883 9.866204598110567 3.8221964398659494 #
straight-curve $-1 42.108218634601883 9.866204598110567 1.1610982199329749 0 0 -1 I I #
straight-curve $-1 42.108218634601883 18.119371962772291 0 0 0 -1 I I #
coedge $-1 $521 $418 $412 $520 forward $409 $-1 #
edge $-1 $420 -15.483730896852599 $528 -9.2360086148559475 $519 $565 forward 7 unknown #
coedge $-1 $413 $519 $415 $523 forward $409 $-1 #
straight-curve $-1 -51.34422724945783 3.8944132273537946 7.0814135366454636 1 0 0 I I #
edge $-1 $528 -9.8662045981105635 $416 -3.8944132273537946 $415 $566 forward 7 unknown #
point $-1 -42.108218634601883 3.8944132273537946 7.0814135366454654 #
straight-curve $-1 -35.860496352605225 3.4401544563660895 7.0814135366454662 0 1 0 I I #
point $-1 -35.860496352605232 9.8662045981105635 7.0814135366454654 #
point $-1 -35.860496352605232 3.8944132273537946 7.0814135366454654 #
vertex $-1 $523 $567 #
straight-curve $-1 -42.108218634601883 9.8662045981105635 29.556679964357816 0 0 -1 I I #
vertex $-1 $427 $568 #
point $-1 -38.091353094544147 5.0887715015051498 3.3317371425063538 #
vertex $-1 $431 $569 #
point $-1 -38.091353094544147 6.880308912732179 3.3317371425063538 #
vertex $-1 $435 $570 #
point $-1 -38.091353094544147 8.6718463239592083 3.3317371425063538 #
coedge $-1 $440 $443 $447 $542 reversed $304 $-1 #
edge $-1 $539 -6.426050141744474 $450 -0.45425877098770506 $441 $571 forward 7 unknown #
vertex $-1 $444 $572 #
vertex $-1 $444 $573 #
straight-curve $-1 22.093401069066594 9.8662045981105635 7.0814135366454636 -1 0 0 I I #
straight-curve $-1 -16.393433726180582 9.8662045981105635 61.191943432246937 0.69465836192734942 0 -0.71933980857756763 I I #
edge $-1 $448 -59.235090328581535 $538 -52.765384359869238 $447 $574 forward 7 unknown #
point $-1 42.108218634601883 9.8662045981105635 0.61170756793316627 #
point $-1 35.860496352605225 3.8944132273537946 7.0814135366454636 #
straight-curve $-1 42.108218634601883 0 7.0814135366454654 0 1 0 I I #
vertex $-1 $456 $575 #
point $-1 38.438682275507816 5.0887715015051498 2.9720672382175737 #
vertex $-1 $460 $576 #
point $-1 38.438682275507816 6.880308912732179 2.9720672382175737 #
vertex $-1 $464 $577 #
point $-1 38.438682275507816 8.6718463239592083 2.9720672382175737 #
straight-curve $-1 -42.108218634601883 18.119371962772291 0 0 0 -1 I I #
point $-1 -42.108218634601883 -18.119371962772291 -7.0814135366454654 #
straight-curve $-1 -42.108218634601883 0 -7.0814135366454654 0 1 0 I I #
point $-1 -42.108218634601883 18.119371962772291 -7.0814135366454654 #
straight-curve $-1 -42.108218634601883 -6.9963941402207137 0.82219643986595026 0 -1 0 I I #
point $-1 -42.108218634601883 -18.119371962772291 0.82219643986595026 #
point $-1 -42.108218634601883 -9.8662045981105635 0.82219643986595026 #
straight-curve $-1 -42.108218634601883 -9.8662045981105635 1.1610982199329749 0 0 -1 I I #
straight-curve $-1 -42.108218634601883 -18.119371962772291 0 0 0 -1 I I #
point $-1 -42.108218634601883 9.866204598110567 0.82219643986595026 #
straight-curve $-1 -42.108218634601883 6.9963941402207155 0.82219643986595026 0 -1 0 I I #
point $-1 -42.108218634601883 18.119371962772295 0.82219643986595026 #
straight-curve $-1 -42.108218634601883 18.119371962772291 0 0 0 -1 I I #
straight-curve $-1 -51.34422724945783 9.8662045981105635 7.0814135366454636 -1 0 0 I I #
straight-curve $-1 -42.108218634601883 0 7.0814135366454654 0 -1 0 I I #
point $-1 -42.108218634601883 9.8662045981105635 7.0814135366454654 #
point $-1 -38.085182732881592 5.0887715015051498 2.9782375998801247 #
point $-1 -38.085182732881592 6.880308912732179 2.9782375998801247 #
point $-1 -38.085182732881592 8.6718463239592083 2.9782375998801247 #
straight-curve $-1 35.860496352605225 3.4401544563660895 7.0814135366454707 0 -1 0 I I #
point $-1 42.108218634601883 9.8662045981105635 7.0814135366454654 #
point $-1 35.860496352605225 9.8662045981105635 7.0814135366454636 #
straight-curve $-1 42.108218634601883 9.8662045981105635 59.846797896514701 0 0 1 I I #
point $-1 38.085182732881584 5.0887715015051498 2.9782375998801283 #
point $-1 38.085182732881584 6.880308912732179 2.9782375998801283 #
point $-1 38.085182732881584 8.6718463239592083 2.9782375998801283 #
End-of-ACIS-data 