500 0 13 0           
7 Unknown 11 ACIS 5.0 NT 24 Fri Mar 26 20:10:24 1999 
-1 9.9999999999999995e-007 1e-010 
body $-1 $13 $-1 $14 #
body $-1 $15 $-1 $16 #
body $-1 $17 $-1 $18 #
body $-1 $19 $-1 $20 #
body $-1 $21 $-1 $22 #
body $-1 $23 $-1 $24 #
body $-1 $25 $-1 $26 #
body $-1 $27 $-1 $28 #
body $-1 $29 $-1 $30 #
body $-1 $31 $-1 $32 #
body $-1 $33 $-1 $34 #
body $-1 $35 $-1 $36 #
body $-1 $37 $-1 $38 #
lump $-1 $-1 $39 $0 #
transform $-1 1 0 0 0 1 0 0 0 1 61.35196996978668 30.190479268374716 6.4375090670554922 1 rotate no_reflect no_shear #
lump $-1 $-1 $40 $1 #
transform $-1 1 0 0 0 1 0 0 0 1 61.35196996978668 30.190479268374716 6.4375090670554922 1 rotate no_reflect no_shear #
lump $-1 $-1 $41 $2 #
transform $-1 1 0 0 0 1 0 0 0 1 61.35196996978668 30.190479268374716 6.4375090670554922 1 rotate no_reflect no_shear #
lump $-1 $-1 $42 $3 #
transform $-1 1 0 0 0 1 0 0 0 1 61.35196996978668 30.190479268374716 6.4375090670554922 1 rotate no_reflect no_shear #
lump $-1 $-1 $43 $4 #
transform $-1 1 0 0 0 1 0 0 0 1 61.35196996978668 30.190479268374716 6.4375090670554922 1 rotate no_reflect no_shear #
lump $-1 $-1 $44 $5 #
transform $-1 1 0 0 0 1 0 0 0 1 61.35196996978668 30.190479268374716 6.4375090670554922 1 rotate no_reflect no_shear #
lump $-1 $-1 $45 $6 #
transform $-1 1 0 0 0 1 0 0 0 1 61.35196996978668 30.190479268374716 6.4375090670554922 1 rotate no_reflect no_shear #
lump $-1 $-1 $46 $7 #
transform $-1 1 0 0 0 1 0 0 0 1 61.35196996978668 30.190479268374716 6.4375090670554922 1 rotate no_reflect no_shear #
lump $-1 $-1 $47 $8 #
transform $-1 1 0 0 0 1 0 0 0 1 61.35196996978668 30.190479268374716 6.4375090670554922 1 rotate no_reflect no_shear #
lump $-1 $-1 $48 $9 #
transform $-1 1 0 0 0 1 0 0 0 1 61.35196996978668 30.190479268374716 6.4375090670554922 1 rotate no_reflect no_shear #
lump $-1 $-1 $49 $10 #
transform $-1 1 0 0 0 1 0 0 0 1 61.35196996978668 30.190479268374716 6.4375090670554922 1 rotate no_reflect no_shear #
lump $-1 $-1 $50 $11 #
transform $-1 1 0 0 0 1 0 0 0 1 61.35196996978668 30.190479268374716 6.4375090670554922 1 rotate no_reflect no_shear #
lump $-1 $-1 $51 $12 #
transform $-1 1 0 0 0 1 0 0 0 1 61.35196996978668 30.190479268374716 6.4375090670554922 1 rotate no_reflect no_shear #
shell $-1 $-1 $-1 $52 $-1 $13 #
shell $-1 $-1 $-1 $53 $-1 $15 #
shell $-1 $-1 $-1 $54 $-1 $17 #
shell $-1 $-1 $-1 $55 $-1 $19 #
shell $-1 $-1 $-1 $56 $-1 $21 #
shell $-1 $-1 $-1 $57 $-1 $23 #
shell $-1 $-1 $-1 $58 $-1 $25 #
shell $-1 $-1 $-1 $59 $-1 $27 #
shell $-1 $-1 $-1 $60 $-1 $29 #
shell $-1 $-1 $-1 $61 $-1 $31 #
shell $-1 $-1 $-1 $62 $-1 $33 #
shell $-1 $-1 $-1 $63 $-1 $35 #
shell $-1 $-1 $-1 $64 $-1 $37 #
face $-1 $65 $66 $39 $-1 $67 forward single #
face $-1 $68 $69 $40 $-1 $70 forward single #
face $-1 $71 $72 $41 $-1 $73 reversed single #
face $-1 $74 $75 $42 $-1 $76 forward single #
face $-1 $77 $78 $43 $-1 $79 forward single #
face $-1 $80 $81 $44 $-1 $82 reversed single #
face $-1 $83 $84 $45 $-1 $85 forward single #
face $-1 $86 $87 $46 $-1 $88 forward single #
face $-1 $89 $90 $47 $-1 $91 forward single #
face $-1 $92 $93 $48 $-1 $94 reversed single #
face $-1 $95 $96 $49 $-1 $97 forward single #
face $-1 $98 $99 $50 $-1 $100 forward single #
face $-1 $101 $102 $51 $-1 $103 forward single #
face $-1 $104 $105 $39 $-1 $106 reversed single #
loop $-1 $-1 $107 $52 #
plane-surface $-1 0 0 6.4375090670554922 0 0 1 1 0 0 forward_v I I I I #
face $-1 $108 $109 $40 $-1 $110 forward single #
loop $-1 $-1 $111 $53 #
plane-surface $-1 0 -30.190479268374716 0 0 1 0 0 0 1 forward_v I I I I #
face $-1 $112 $113 $41 $-1 $114 reversed single #
loop $-1 $-1 $115 $54 #
plane-surface $-1 106.2647317251524 15.136455121590117 169.14310475877855 0 1 0 0.86602541151947299 0 0.49999998660252726 forward_v I I I I #
face $-1 $116 $117 $42 $-1 $118 forward single #
loop $-1 $119 $120 $55 #
cone-surface $-1 58.528997280587497 19.437604877814287 3.1706307863176235 -0.86602541151947299 0 -0.49999998660252726 0.49999998660252726 0 -0.86602541151947299 1 I I 0 1 1 forward I I I I #
face $-1 $121 $122 $43 $-1 $123 forward single #
loop $-1 $124 $125 $56 #
cone-surface $-1 58.528997280587497 25.889329512150546 3.1706307863176235 -0.86602541151947299 0 -0.49999998660252726 0.49999998660252726 0 -0.86602541151947299 1 I I 0 1 1 forward I I I I #
face $-1 $126 $127 $44 $-1 $128 reversed single #
loop $-1 $-1 $129 $57 #
plane-surface $-1 -156.71084236409493 -7.0872231401252392 79.392098260674075 0 1 0 -0.77714596973225614 0 0.62932038083071107 forward_v I I I I #
face $-1 $130 $131 $45 $-1 $132 forward single #
loop $-1 $133 $134 $58 #
cone-surface $-1 -59.236329722143076 -4.9833542306750473 3.990098367348923 0.77714596973225614 0 -0.62932038083071107 0.31466019041535553 0 0.38857298486612807 1 I I 0 1 0.5 forward I I I I #
face $-1 $135 $136 $46 $-1 $137 forward single #
loop $-1 $138 $139 $59 #
cone-surface $-1 -59.236329722143076 -1.8275508664997595 3.990098367348923 0.77714596973225614 0 -0.62932038083071107 0.31466019041535553 0 0.38857298486612807 1 I I 0 1 0.5 forward I I I I #
face $-1 $140 $141 $47 $-1 $142 forward single #
loop $-1 $143 $144 $60 #
cone-surface $-1 -59.236329722143076 1.3282524976755283 3.990098367348923 0.77714596973225614 0 -0.62932038083071107 0.31466019041535553 0 0.38857298486612807 1 I I 0 1 0.5 forward I I I I #
face $-1 $145 $146 $48 $-1 $147 reversed single #
loop $-1 $-1 $148 $61 #
plane-surface $-1 -61.35196996978668 -1.827550866499756 2.1720080484730744 -0.77714596973225614 0 0.62932038083071107 0.62932038083071107 0 0.77714596973225614 forward_v I I I I #
face $-1 $149 $150 $49 $-1 $151 forward single #
loop $-1 $152 $153 $62 #
cone-surface $-1 -59.236329722143076 5.5359903165759121 3.990098367348923 0.77714596973225614 0 -0.62932038083071107 0.31466019041535553 0 0.38857298486612807 1 I I 0 1 0.5 forward I I I I #
face $-1 $154 $155 $50 $-1 $156 forward single #
loop $-1 $157 $158 $63 #
cone-surface $-1 -59.236329722143076 8.6917936807512035 3.990098367348923 0.77714596973225614 0 -0.62932038083071107 0.31466019041535553 0 0.38857298486612807 1 I I 0 1 0.5 forward I I I I #
face $-1 $159 $160 $51 $-1 $161 forward single #
loop $-1 $162 $163 $64 #
cone-surface $-1 -59.236329722143076 11.847597044926488 3.990098367348923 0.77714596973225614 0 -0.62932038083071107 0.31466019041535553 0 0.38857298486612807 1 I I 0 1 0.5 forward I I I I #
face $-1 $164 $165 $39 $-1 $166 reversed single #
loop $-1 $-1 $167 $65 #
plane-surface $-1 0 0 -6.4375090670554922 0 0 1 1 0 0 forward_v I I I I #
coedge $-1 $168 $169 $170 $171 forward $66 $-1 #
face $-1 $172 $173 $40 $-1 $174 reversed single #
loop $-1 $-1 $175 $68 #
plane-surface $-1 0 0 6.4375090670554922 0 0 1 1 0 0 forward_v I I I I #
coedge $-1 $176 $177 $178 $179 forward $69 $-1 #
face $-1 $180 $181 $41 $-1 $182 reversed single #
loop $-1 $-1 $183 $71 #
plane-surface $-1 1.6439226868669721e-006 22.663467194982417 107.79113643291456 0.86602541151947299 0 0.49999998660252726 0.49999998660252726 0 -0.86602541151947299 forward_v I I I I #
coedge $-1 $184 $185 $186 $187 reversed $72 $-1 #
face $-1 $-1 $188 $42 $-1 $189 forward single #
loop $-1 $190 $191 $74 #
cone-surface $-1 56.690725072347078 19.437604877814287 2.1093038699638047 -0.86602541151947299 0 -0.49999998660252726 0.24999999330126363 0 -0.43301270575973649 1 I I -0.70710678118654746 0.70710678118654746 0.5 forward I I I I #
loop $-1 $-1 $192 $55 #
coedge $-1 $120 $120 $193 $194 reversed $75 $-1 #
face $-1 $-1 $195 $43 $-1 $196 forward single #
loop $-1 $197 $198 $77 #
cone-surface $-1 56.690725072347078 25.889329512150546 2.1093038699638047 -0.86602541151947299 0 -0.49999998660252726 0.24999999330126363 0 -0.43301270575973649 1 I I -0.70710678118654746 0.70710678118654746 0.5 forward I I I I #
loop $-1 $-1 $199 $56 #
coedge $-1 $125 $125 $200 $201 reversed $78 $-1 #
face $-1 $202 $203 $44 $-1 $204 reversed single #
loop $-1 $-1 $205 $80 #
plane-surface $-1 -61.35196996978668 -1.827550866499756 2.1720080484730744 -0.77714596973225614 0 0.62932038083071107 0.62932038083071107 0 0.77714596973225614 forward_v I I I I #
coedge $-1 $206 $207 $208 $209 reversed $81 $-1 #
face $-1 $-1 $210 $45 $-1 $211 forward single #
loop $-1 $212 $213 $83 #
cone-surface $-1 -58.653470244843881 -4.9833542306750473 3.5181080817258898 0.77714596973225614 0 -0.62932038083071107 0.15733009520767777 0 0.19428649243306403 1 I I -0.70710678118654746 0.70710678118654746 0.25 forward I I I I #
loop $-1 $-1 $214 $58 #
coedge $-1 $134 $134 $215 $216 reversed $84 $-1 #
face $-1 $-1 $217 $46 $-1 $218 forward single #
loop $-1 $219 $220 $86 #
cone-surface $-1 -58.653470244843881 -1.8275508664997595 3.5181080817258898 0.77714596973225614 0 -0.62932038083071107 0.15733009520767777 0 0.19428649243306403 1 I I -0.70710678118654746 0.70710678118654746 0.25 forward I I I I #
loop $-1 $-1 $221 $59 #
coedge $-1 $139 $139 $222 $223 reversed $87 $-1 #
face $-1 $-1 $224 $47 $-1 $225 forward single #
loop $-1 $226 $227 $89 #
cone-surface $-1 -58.653470244843881 1.3282524976755283 3.5181080817258898 0.77714596973225614 0 -0.62932038083071107 0.15733009520767777 0 0.19428649243306403 1 I I -0.70710678118654746 0.70710678118654746 0.25 forward I I I I #
loop $-1 $-1 $228 $60 #
coedge $-1 $144 $144 $229 $230 reversed $90 $-1 #
face $-1 $231 $232 $48 $-1 $233 forward single #
loop $-1 $-1 $234 $92 #
plane-surface $-1 -156.71084236409493 13.951465954376687 79.392098260674075 0 -1 0 0.77714596973225614 0 -0.62932038083071107 forward_v I I I I #
coedge $-1 $235 $236 $237 $238 reversed $93 $-1 #
face $-1 $-1 $239 $49 $-1 $240 forward single #
loop $-1 $241 $242 $95 #
cone-surface $-1 -58.653470244843881 5.5359903165759121 3.5181080817258898 0.77714596973225614 0 -0.62932038083071107 0.15733009520767777 0 0.19428649243306403 1 I I -0.70710678118654746 0.70710678118654746 0.25 forward I I I I #
loop $-1 $-1 $243 $62 #
coedge $-1 $153 $153 $244 $245 reversed $96 $-1 #
face $-1 $-1 $246 $50 $-1 $247 forward single #
loop $-1 $248 $249 $98 #
cone-surface $-1 -58.653470244843881 8.6917936807512035 3.5181080817258898 0.77714596973225614 0 -0.62932038083071107 0.15733009520767777 0 0.19428649243306403 1 I I -0.70710678118654746 0.70710678118654746 0.25 forward I I I I #
loop $-1 $-1 $250 $63 #
coedge $-1 $158 $158 $251 $252 reversed $99 $-1 #
face $-1 $-1 $253 $51 $-1 $254 forward single #
loop $-1 $255 $256 $101 #
cone-surface $-1 -58.653470244843881 11.847597044926488 3.5181080817258898 0.77714596973225614 0 -0.62932038083071107 0.15733009520767777 0 0.19428649243306403 1 I I -0.70710678118654746 0.70710678118654746 0.25 forward I I I I #
loop $-1 $-1 $257 $64 #
coedge $-1 $163 $163 $258 $259 reversed $102 $-1 #
face $-1 $260 $261 $39 $-1 $262 reversed single #
loop $-1 $-1 $263 $104 #
plane-surface $-1 0 -30.190479268374716 0 0 1 0 0 0 1 forward_v I I I I #
coedge $-1 $264 $265 $266 $267 forward $105 $-1 #
coedge $-1 $268 $107 $269 $270 forward $66 $-1 #
coedge $-1 $107 $268 $271 $272 forward $66 $-1 #
coedge $-1 $273 $274 $107 $171 reversed $275 $-1 #
edge $-1 $276 -30.190479268374716 $277 30.190479268374716 $170 $278 forward 7 unknown #
face $-1 $279 $280 $40 $-1 $281 reversed single #
loop $-1 $-1 $282 $108 #
plane-surface $-1 -61.35196996978668 0 0 1 0 0 0 0 -1 forward_v I I I I #
coedge $-1 $283 $284 $285 $286 forward $109 $-1 #
coedge $-1 $285 $111 $282 $287 reversed $69 $-1 #
coedge $-1 $111 $285 $288 $289 reversed $69 $-1 #
coedge $-1 $290 $291 $111 $179 reversed $280 $-1 #
edge $-1 $292 -61.35196996978668 $293 61.35196996978668 $178 $294 forward 7 unknown #
face $-1 $295 $296 $41 $-1 $297 forward single #
loop $-1 $-1 $186 $112 #
plane-surface $-1 61.35196996978668 0 0 -1 0 0 0 0 1 forward_v I I I I #
coedge $-1 $298 $299 $300 $301 reversed $113 $-1 #
coedge $-1 $185 $115 $302 $303 reversed $72 $-1 #
coedge $-1 $115 $184 $298 $304 reversed $72 $-1 #
coedge $-1 $300 $305 $115 $187 forward $181 $-1 #
edge $-1 $306 78.134043312333787 $307 83.045146027704448 $186 $308 forward 7 unknown #
loop $-1 $-1 $193 $116 #
plane-surface $-1 1.6439226868669721e-006 22.663467194982417 107.79113643291456 0.86602541151947299 0 0.49999998660252726 0.49999998660252726 0 -0.86602541151947299 forward_v I I I I #
loop $-1 $-1 $309 $74 #
coedge $-1 $191 $191 $192 $310 reversed $117 $-1 #
coedge $-1 $192 $192 $191 $310 forward $119 $-1 #
coedge $-1 $193 $193 $120 $194 forward $188 $-1 #
edge $-1 $311 0 $311 6.2831853071796004 $193 $312 forward 7 unknown #
loop $-1 $-1 $200 $121 #
plane-surface $-1 1.6439226868669721e-006 22.663467194982417 107.79113643291456 0.86602541151947299 0 0.49999998660252726 0.49999998660252726 0 -0.86602541151947299 forward_v I I I I #
loop $-1 $-1 $313 $77 #
coedge $-1 $198 $198 $199 $314 reversed $122 $-1 #
coedge $-1 $199 $199 $198 $314 forward $124 $-1 #
coedge $-1 $200 $200 $125 $201 forward $195 $-1 #
edge $-1 $315 0 $315 6.2831853071796004 $200 $316 forward 7 unknown #
face $-1 $317 $318 $44 $-1 $319 forward single #
loop $-1 $-1 $320 $126 #
plane-surface $-1 -156.71084236409493 3.4321214071257273 79.392098260674075 0 -1 0 0.77714596973225614 0 -0.62932038083071107 forward_v I I I I #
coedge $-1 $321 $322 $323 $324 reversed $127 $-1 #
coedge $-1 $207 $129 $325 $326 reversed $81 $-1 #
coedge $-1 $129 $206 $321 $327 reversed $81 $-1 #
coedge $-1 $323 $328 $129 $209 forward $318 $-1 #
edge $-1 $329 17.003451212260785 $330 20.457585737815741 $208 $331 forward 7 unknown #
loop $-1 $-1 $215 $130 #
plane-surface $-1 -61.35196996978668 -1.827550866499756 2.1720080484730744 -0.77714596973225614 0 0.62932038083071107 0.62932038083071107 0 0.77714596973225614 forward_v I I I I #
loop $-1 $-1 $332 $83 #
coedge $-1 $213 $213 $214 $333 reversed $131 $-1 #
coedge $-1 $214 $214 $213 $333 forward $133 $-1 #
coedge $-1 $215 $215 $134 $216 forward $210 $-1 #
edge $-1 $334 0 $334 6.2831853071796004 $215 $335 forward 7 unknown #
loop $-1 $-1 $222 $135 #
plane-surface $-1 -61.35196996978668 -1.827550866499756 2.1720080484730744 -0.77714596973225614 0 0.62932038083071107 0.62932038083071107 0 0.77714596973225614 forward_v I I I I #
loop $-1 $-1 $336 $86 #
coedge $-1 $220 $220 $221 $337 reversed $136 $-1 #
coedge $-1 $221 $221 $220 $337 forward $138 $-1 #
coedge $-1 $222 $222 $139 $223 forward $217 $-1 #
edge $-1 $338 0 $338 6.2831853071796004 $222 $339 forward 7 unknown #
loop $-1 $-1 $229 $140 #
plane-surface $-1 -61.35196996978668 -1.827550866499756 2.1720080484730744 -0.77714596973225614 0 0.62932038083071107 0.62932038083071107 0 0.77714596973225614 forward_v I I I I #
loop $-1 $-1 $340 $89 #
coedge $-1 $227 $227 $228 $341 reversed $141 $-1 #
coedge $-1 $228 $228 $227 $341 forward $143 $-1 #
coedge $-1 $229 $229 $144 $230 forward $224 $-1 #
edge $-1 $342 0 $342 6.2831853071796004 $229 $343 forward 7 unknown #
face $-1 $344 $345 $48 $-1 $346 forward single #
loop $-1 $-1 $347 $145 #
plane-surface $-1 0 0 6.4375090670554922 0 0 1 1 0 0 forward_v I I I I #
coedge $-1 $348 $349 $350 $351 reversed $146 $-1 #
coedge $-1 $352 $148 $353 $354 reversed $93 $-1 #
coedge $-1 $148 $352 $347 $355 reversed $93 $-1 #
coedge $-1 $356 $357 $148 $238 forward $345 $-1 #
edge $-1 $358 0 $359 5.4886741805429118 $237 $360 forward 7 unknown #
loop $-1 $-1 $244 $149 #
plane-surface $-1 -61.35196996978668 -1.827550866499756 2.1720080484730744 -0.77714596973225614 0 0.62932038083071107 0.62932038083071107 0 0.77714596973225614 forward_v I I I I #
loop $-1 $-1 $361 $95 #
coedge $-1 $242 $242 $243 $362 reversed $150 $-1 #
coedge $-1 $243 $243 $242 $362 forward $152 $-1 #
coedge $-1 $244 $244 $153 $245 forward $239 $-1 #
edge $-1 $363 0 $363 6.2831853071796004 $244 $364 forward 7 unknown #
loop $-1 $-1 $251 $154 #
plane-surface $-1 -61.35196996978668 -1.827550866499756 2.1720080484730744 -0.77714596973225614 0 0.62932038083071107 0.62932038083071107 0 0.77714596973225614 forward_v I I I I #
loop $-1 $-1 $365 $98 #
coedge $-1 $249 $249 $250 $366 reversed $155 $-1 #
coedge $-1 $250 $250 $249 $366 forward $157 $-1 #
coedge $-1 $251 $251 $158 $252 forward $246 $-1 #
edge $-1 $367 0 $367 6.2831853071796004 $251 $368 forward 7 unknown #
loop $-1 $-1 $258 $159 #
plane-surface $-1 -61.35196996978668 -1.827550866499756 2.1720080484730744 -0.77714596973225614 0 0.62932038083071107 0.62932038083071107 0 0.77714596973225614 forward_v I I I I #
loop $-1 $-1 $369 $101 #
coedge $-1 $256 $256 $257 $370 reversed $160 $-1 #
coedge $-1 $257 $257 $256 $370 forward $162 $-1 #
coedge $-1 $258 $258 $163 $259 forward $253 $-1 #
edge $-1 $371 0 $371 6.2831853071796004 $258 $372 forward 7 unknown #
face $-1 $373 $374 $39 $-1 $375 reversed single #
loop $-1 $-1 $376 $164 #
plane-surface $-1 -61.35196996978668 0 0 1 0 0 0 0 -1 forward_v I I I I #
coedge $-1 $377 $271 $378 $379 forward $165 $-1 #
coedge $-1 $380 $167 $377 $381 forward $105 $-1 #
coedge $-1 $167 $380 $382 $383 forward $105 $-1 #
coedge $-1 $274 $273 $167 $267 reversed $275 $-1 #
edge $-1 $384 -30.190479268374716 $385 30.190479268374716 $266 $386 forward 7 unknown #
coedge $-1 $169 $168 $387 $388 forward $66 $-1 #
coedge $-1 $389 $390 $168 $270 reversed $374 $-1 #
edge $-1 $277 -61.35196996978668 $391 61.35196996978668 $269 $392 forward 7 unknown #
coedge $-1 $263 $393 $169 $272 reversed $165 $-1 #
edge $-1 $394 -61.35196996978668 $276 61.35196996978668 $271 $395 forward 7 unknown #
coedge $-1 $266 $170 $393 $396 forward $275 $-1 #
coedge $-1 $170 $266 $389 $397 reversed $275 $-1 #
loop $-1 $-1 $273 $373 #
vertex $-1 $171 $398 #
vertex $-1 $171 $399 #
straight-curve $-1 61.35196996978668 0 6.4375090670554922 0 1 0 I I #
face $-1 $400 $401 $40 $-1 $402 reversed single #
loop $-1 $-1 $290 $172 #
plane-surface $-1 0 -33.622600675500443 3.4375090670554922 0 0 1 1 0 0 forward_v I I I I #
coedge $-1 $403 $404 $176 $287 forward $173 $-1 #
coedge $-1 $405 $175 $404 $406 forward $109 $-1 #
coedge $-1 $175 $405 $407 $408 forward $109 $-1 #
coedge $-1 $177 $176 $175 $286 reversed $69 $-1 #
edge $-1 $409 -61.35196996978668 $410 61.35196996978668 $175 $411 forward 7 unknown #
edge $-1 $410 -6.4375090670554922 $293 -3.4375090670554922 $282 $412 forward 7 unknown #
coedge $-1 $407 $413 $177 $289 forward $414 $-1 #
edge $-1 $292 3.4375090670554922 $409 6.4375090670554922 $288 $415 forward 7 unknown #
coedge $-1 $416 $178 $413 $417 forward $280 $-1 #
coedge $-1 $178 $416 $403 $418 forward $280 $-1 #
vertex $-1 $289 $419 #
vertex $-1 $287 $420 #
straight-curve $-1 0 -30.190479268374716 3.4375090670554922 -1 0 0 I I #
face $-1 $-1 $421 $41 $-1 $422 reversed single #
loop $-1 $-1 $302 $180 #
plane-surface $-1 0 0 6.4375090670554922 0 0 1 1 0 0 forward_v I I I I #
coedge $-1 $423 $183 $185 $304 forward $113 $-1 #
coedge $-1 $183 $423 $424 $425 reversed $113 $-1 #
coedge $-1 $426 $186 $183 $301 forward $181 $-1 #
edge $-1 $307 3.804721524098909 $427 18.858745670883508 $300 $428 forward 7 unknown #
coedge $-1 $429 $430 $184 $303 forward $296 $-1 #
edge $-1 $431 5.3841777337734626 $306 8.2196041072104791 $302 $432 forward 7 unknown #
edge $-1 $307 -122.70393993957337 $431 -117.03308704074914 $185 $433 forward 7 unknown #
coedge $-1 $186 $426 $429 $434 reversed $181 $-1 #
vertex $-1 $434 $435 #
vertex $-1 $187 $436 #
straight-curve $-1 61.35196996978668 15.136455121590117 84.571552379389274 0 0 -1 I I #
coedge $-1 $309 $309 $-1 $437 reversed $190 $-1 #
edge $-1 $438 0 $438 6.2831853071796004 $191 $439 forward 7 unknown #
vertex $-1 $194 $440 #
ellipse-curve $-1 59.934256783068165 19.437604877814287 3.9819577093701697 0.86602541151947299 0 0.49999998660252726 0.49999998660252726 0 -0.86602541151947299 1 I I #
coedge $-1 $313 $313 $-1 $441 reversed $197 $-1 #
edge $-1 $442 0 $442 6.2831853071796004 $198 $443 forward 7 unknown #
vertex $-1 $201 $444 #
ellipse-curve $-1 59.934256783068165 25.889329512150546 3.9819577093701697 0.86602541151947299 0 0.49999998660252726 0.49999998660252726 0 -0.86602541151947299 1 I I #
face $-1 $-1 $445 $44 $-1 $446 reversed single #
loop $-1 $-1 $208 $202 #
plane-surface $-1 0 0 6.4375090670554922 0 0 1 1 0 0 forward_v I I I I #
coedge $-1 $447 $448 $449 $450 reversed $203 $-1 #
coedge $-1 $451 $205 $207 $327 forward $127 $-1 #
coedge $-1 $205 $451 $447 $452 forward $127 $-1 #
coedge $-1 $449 $208 $205 $324 forward $318 $-1 #
edge $-1 $330 -6.1734477068753613 $453 4.3458968403756053 $323 $454 forward 7 unknown #
coedge $-1 $455 $456 $206 $326 forward $445 $-1 #
edge $-1 $457 -37.524041081863963 $329 -33.258540063281544 $325 $458 forward 7 unknown #
edge $-1 $330 -5.4886741805429118 $457 0 $207 $459 forward 7 unknown #
coedge $-1 $208 $449 $455 $460 forward $318 $-1 #
vertex $-1 $326 $461 #
vertex $-1 $209 $462 #
straight-curve $-1 -78.355421182047465 -7.0872231401252392 6.437509067055494 1 0 0 I I #
coedge $-1 $332 $332 $-1 $463 reversed $212 $-1 #
edge $-1 $464 0 $464 6.2831853071796004 $213 $465 forward 7 unknown #
vertex $-1 $216 $466 #
ellipse-curve $-1 -59.624902707009205 -4.9833542306750473 4.3047585577642797 -0.77714596973225614 0 0.62932038083071107 0.31466019041535553 0 0.38857298486612807 1 I I #
coedge $-1 $336 $336 $-1 $467 reversed $219 $-1 #
edge $-1 $468 0 $468 6.2831853071796004 $220 $469 forward 7 unknown #
vertex $-1 $223 $470 #
ellipse-curve $-1 -59.624902707009205 -1.8275508664997595 4.3047585577642797 -0.77714596973225614 0 0.62932038083071107 0.31466019041535553 0 0.38857298486612807 1 I I #
coedge $-1 $340 $340 $-1 $471 reversed $226 $-1 #
edge $-1 $472 0 $472 6.2831853071796004 $227 $473 forward 7 unknown #
vertex $-1 $230 $474 #
ellipse-curve $-1 -59.624902707009205 1.3282524976755283 4.3047585577642797 -0.77714596973225614 0 0.62932038083071107 0.31466019041535553 0 0.38857298486612807 1 I I #
face $-1 $-1 $475 $48 $-1 $476 reversed single #
loop $-1 $-1 $356 $231 #
plane-surface $-1 -156.71084236409493 3.4321214071257273 79.392098260674075 0 -1 0 0.77714596973225614 0 -0.62932038083071107 forward_v I I I I #
coedge $-1 $350 $477 $236 $355 forward $232 $-1 #
coedge $-1 $349 $234 $352 $478 reversed $146 $-1 #
coedge $-1 $234 $348 $479 $480 reversed $146 $-1 #
coedge $-1 $481 $347 $234 $351 forward $232 $-1 #
edge $-1 $482 -20.457585737815741 $483 -17.003451212260785 $350 $484 forward 7 unknown #
coedge $-1 $236 $235 $348 $478 forward $93 $-1 #
coedge $-1 $485 $479 $235 $354 forward $475 $-1 #
edge $-1 $486 -14.865241387626565 $358 -4.3458968403756053 $353 $487 forward 7 unknown #
edge $-1 $359 4.3458968403756053 $482 14.865241387626565 $347 $488 forward 7 unknown #
coedge $-1 $357 $237 $477 $489 reversed $345 $-1 #
coedge $-1 $237 $356 $485 $490 reversed $345 $-1 #
vertex $-1 $354 $491 #
vertex $-1 $355 $492 #
straight-curve $-1 -61.35196996978668 3.4321214071257273 2.1720080484730744 0.62932038083071107 0 0.77714596973225614 I I #
coedge $-1 $361 $361 $-1 $493 reversed $241 $-1 #
edge $-1 $494 0 $494 6.2831853071796004 $242 $495 forward 7 unknown #
vertex $-1 $245 $496 #
ellipse-curve $-1 -59.624902707009205 5.5359903165759121 4.3047585577642797 -0.77714596973225614 0 0.62932038083071107 0.31466019041535553 0 0.38857298486612807 1 I I #
coedge $-1 $365 $365 $-1 $497 reversed $248 $-1 #
edge $-1 $498 0 $498 6.2831853071796004 $249 $499 forward 7 unknown #
vertex $-1 $252 $500 #
ellipse-curve $-1 -59.624902707009205 8.6917936807512035 4.3047585577642797 -0.77714596973225614 0 0.62932038083071107 0.31466019041535553 0 0.38857298486612807 1 I I #
coedge $-1 $369 $369 $-1 $501 reversed $255 $-1 #
edge $-1 $502 0 $502 6.2831853071796004 $256 $503 forward 7 unknown #
vertex $-1 $259 $504 #
ellipse-curve $-1 -59.624902707009205 11.847597044926488 4.3047585577642797 -0.77714596973225614 0 0.62932038083071107 0.31466019041535553 0 0.38857298486612807 1 I I #
face $-1 $-1 $275 $39 $-1 $505 reversed single #
loop $-1 $-1 $389 $260 #
plane-surface $-1 0 30.190479268374716 0 0 -1 0 0 0 -1 forward_v I I I I #
coedge $-1 $506 $387 $390 $507 forward $261 $-1 #
coedge $-1 $393 $263 $264 $381 reversed $165 $-1 #
coedge $-1 $387 $506 $263 $379 reversed $261 $-1 #
edge $-1 $394 -6.4375090670554922 $508 6.4375090670554922 $378 $509 forward 7 unknown #
coedge $-1 $265 $264 $506 $510 forward $105 $-1 #
edge $-1 $385 -61.35196996978668 $508 61.35196996978668 $377 $511 forward 7 unknown #
coedge $-1 $390 $389 $265 $383 reversed $374 $-1 #
edge $-1 $512 -61.35196996978668 $384 61.35196996978668 $382 $513 forward 7 unknown #
vertex $-1 $267 $514 #
vertex $-1 $396 $515 #
straight-curve $-1 61.35196996978668 0 -6.4375090670554922 0 -1 0 I I #
coedge $-1 $376 $378 $268 $388 reversed $261 $-1 #
edge $-1 $391 -30.190479268374716 $394 30.190479268374716 $387 $516 forward 7 unknown #
coedge $-1 $382 $269 $274 $397 forward $374 $-1 #
coedge $-1 $269 $382 $376 $507 reversed $374 $-1 #
vertex $-1 $270 $517 #
straight-curve $-1 0 30.190479268374716 6.4375090670554922 -1 0 0 I I #
coedge $-1 $271 $377 $273 $396 reversed $165 $-1 #
vertex $-1 $388 $518 #
straight-curve $-1 0 -30.190479268374716 6.4375090670554922 1 0 0 I I #
edge $-1 $276 -6.4375090670554922 $385 6.4375090670554922 $273 $519 forward 7 unknown #
edge $-1 $277 -6.4375090670554922 $384 6.4375090670554922 $274 $520 forward 7 unknown #
point $-1 61.35196996978668 -30.190479268374716 6.4375090670554922 #
point $-1 61.35196996978668 30.190479268374716 6.4375090670554922 #
face $-1 $-1 $414 $40 $-1 $521 reversed single #
loop $-1 $-1 $522 $279 #
plane-surface $-1 0 -37.054722082626171 4.9375090670554922 0 1 0 0 0 1 forward_v I I I I #
coedge $-1 $523 $282 $291 $418 reversed $173 $-1 #
coedge $-1 $282 $523 $283 $406 reversed $173 $-1 #
coedge $-1 $284 $283 $524 $525 forward $109 $-1 #
edge $-1 $410 30.190479268374716 $526 37.054722082626171 $404 $527 forward 7 unknown #
coedge $-1 $528 $288 $284 $408 reversed $414 $-1 #
edge $-1 $529 -37.054722082626171 $409 -30.190479268374716 $407 $530 forward 7 unknown #
vertex $-1 $289 $531 #
vertex $-1 $406 $532 #
straight-curve $-1 0 -30.190479268374716 6.4375090670554922 -1 0 0 I I #
straight-curve $-1 -61.35196996978668 -30.190479268374716 0 0 0 -1 I I #
coedge $-1 $288 $528 $290 $417 reversed $414 $-1 #
loop $-1 $-1 $288 $400 #
straight-curve $-1 61.35196996978668 -30.190479268374716 0 0 0 1 I I #
coedge $-1 $291 $290 $533 $534 forward $280 $-1 #
edge $-1 $292 -3.4321214071257238 $535 3.4321214071257273 $413 $536 forward 7 unknown #
edge $-1 $537 -3.4321214071257273 $293 3.4321214071257238 $403 $538 forward 7 unknown #
point $-1 61.35196996978668 -30.19047926837472 3.4375090670554922 #
point $-1 -61.35196996978668 -30.19047926837472 3.4375090670554922 #
loop $-1 $-1 $424 $295 #
plane-surface $-1 0 30.190479268374716 0 0 -1 0 0 0 -1 forward_v I I I I #
coedge $-1 $299 $298 $430 $539 reversed $113 $-1 #
coedge $-1 $540 $541 $299 $425 forward $421 $-1 #
edge $-1 $427 -76.02900870682079 $542 -70.358155807996539 $424 $543 forward 7 unknown #
coedge $-1 $305 $300 $541 $544 reversed $181 $-1 #
vertex $-1 $301 $545 #
straight-curve $-1 61.35196996978668 11.331733597491208 1.5264063516848267 0 1 0 I I #
coedge $-1 $546 $302 $305 $434 forward $296 $-1 #
coedge $-1 $302 $546 $423 $539 forward $296 $-1 #
vertex $-1 $303 $547 #
straight-curve $-1 53.132365862576201 15.136455121590117 6.4375090670554869 1 0 0 I I #
straight-curve $-1 1.6439226868669721e-006 15.136455121590117 107.79113643291456 -0.49999998660252726 0 0.86602541151947299 I I #
edge $-1 $306 15.136455121590117 $548 30.190479268374716 $305 $549 forward 7 unknown #
point $-1 61.35196996978668 15.136455121590117 6.4375090670554922 #
point $-1 61.35196996978668 15.136455121590117 1.5264063516848267 #
edge $-1 $550 1 $550 0 $309 $-1 forward 7 unknown #
vertex $-1 $310 $551 #
ellipse-curve $-1 57.123737778106815 19.437604877814287 2.3593038632650685 0.86602541151947299 0 0.49999998660252726 0.49999998660252726 0 -0.86602541151947299 1 I I #
point $-1 60.434256769670711 19.437604877814287 3.1159322978507058 #
edge $-1 $552 1 $552 0 $313 $-1 forward 7 unknown #
vertex $-1 $314 $553 #
ellipse-curve $-1 57.123737778106815 25.889329512150546 2.3593038632650685 0.86602541151947299 0 0.49999998660252726 0.49999998660252726 0 -0.86602541151947299 1 I I #
point $-1 60.434256769670711 25.889329512150546 3.1159322978507058 #
loop $-1 $-1 $325 $317 #
plane-surface $-1 -61.35196996978668 0 0 1 0 0 0 0 -1 forward_v I I I I #
coedge $-1 $448 $320 $322 $452 reversed $203 $-1 #
coedge $-1 $320 $447 $554 $555 reversed $203 $-1 #
coedge $-1 $328 $323 $320 $450 forward $318 $-1 #
edge $-1 $453 -20.457585737815741 $556 -17.003451212260785 $449 $557 forward 7 unknown #
coedge $-1 $322 $321 $456 $558 reversed $127 $-1 #
edge $-1 $559 0 $453 5.4886741805429118 $447 $560 forward 7 unknown #
vertex $-1 $324 $561 #
straight-curve $-1 -57.897835444231717 -0.91377543324987798 6.4375090670554922 0 1 0 I I #
coedge $-1 $554 $325 $328 $460 reversed $445 $-1 #
coedge $-1 $325 $554 $451 $558 forward $445 $-1 #
vertex $-1 $326 $562 #
straight-curve $-1 -61.35196996978668 -7.0872231401252392 39.696049130337038 0 0 1 I I #
straight-curve $-1 -61.35196996978668 -7.0872231401252392 2.1720080484730744 -0.62932038083071107 0 -0.77714596973225614 I I #
edge $-1 $556 -3.4321214071257273 $329 7.0872231401252392 $455 $563 forward 7 unknown #
point $-1 -61.35196996978668 -7.0872231401252392 6.4375090670554922 #
point $-1 -57.897835444231724 -7.0872231401252392 6.4375090670554922 #
edge $-1 $564 1 $564 0 $332 $-1 forward 7 unknown #
vertex $-1 $333 $565 #
ellipse-curve $-1 -58.847756737276946 -4.9833542306750473 3.6754381769335676 -0.77714596973225614 0 0.62932038083071107 0.31466019041535553 0 0.38857298486612807 1 I I #
point $-1 -59.310242516593846 -4.9833542306750473 4.693331542630407 #
edge $-1 $566 1 $566 0 $336 $-1 forward 7 unknown #
vertex $-1 $337 $567 #
ellipse-curve $-1 -58.847756737276946 -1.8275508664997595 3.6754381769335676 -0.77714596973225614 0 0.62932038083071107 0.31466019041535553 0 0.38857298486612807 1 I I #
point $-1 -59.310242516593846 -1.8275508664997595 4.693331542630407 #
edge $-1 $568 1 $568 0 $340 $-1 forward 7 unknown #
vertex $-1 $341 $569 #
ellipse-curve $-1 -58.847756737276946 1.3282524976755283 3.6754381769335676 -0.77714596973225614 0 0.62932038083071107 0.31466019041535553 0 0.38857298486612807 1 I I #
point $-1 -59.310242516593846 1.3282524976755283 4.693331542630407 #
loop $-1 $-1 $353 $344 #
plane-surface $-1 -61.35196996978668 0 0 1 0 0 0 0 -1 forward_v I I I I #
coedge $-1 $347 $481 $356 $489 forward $232 $-1 #
edge $-1 $486 0 $482 5.4886741805429118 $348 $570 forward 7 unknown #
coedge $-1 $353 $571 $349 $480 forward $475 $-1 #
edge $-1 $483 33.258540063281544 $486 37.524041081863963 $479 $572 forward 7 unknown #
coedge $-1 $477 $350 $571 $573 forward $232 $-1 #
vertex $-1 $351 $574 #
vertex $-1 $573 $575 #
straight-curve $-1 -78.355421182047465 13.951465954376687 6.437509067055494 -1 0 0 I I #
coedge $-1 $571 $353 $357 $490 forward $475 $-1 #
vertex $-1 $480 $576 #
straight-curve $-1 -61.35196996978668 -0.91377543324987798 2.1720080484730744 0 -1 0 I I #
straight-curve $-1 -57.897835444231717 -0.91377543324987798 6.4375090670554922 0 1 0 I I #
edge $-1 $577 17.003451212260785 $359 20.457585737815741 $477 $578 forward 7 unknown #
edge $-1 $358 -37.524041081863963 $577 -33.258540063281544 $485 $579 forward 7 unknown #
point $-1 -61.35196996978668 3.4321214071257273 2.1720080484730744 #
point $-1 -57.897835444231724 3.4321214071257273 6.4375090670554922 #
edge $-1 $580 1 $580 0 $361 $-1 forward 7 unknown #
vertex $-1 $362 $581 #
ellipse-curve $-1 -58.847756737276946 5.5359903165759121 3.6754381769335676 -0.77714596973225614 0 0.62932038083071107 0.31466019041535553 0 0.38857298486612807 1 I I #
point $-1 -59.310242516593846 5.5359903165759121 4.693331542630407 #
edge $-1 $582 1 $582 0 $365 $-1 forward 7 unknown #
vertex $-1 $366 $583 #
ellipse-curve $-1 -58.847756737276946 8.6917936807512035 3.6754381769335676 -0.77714596973225614 0 0.62932038083071107 0.31466019041535553 0 0.38857298486612807 1 I I #
point $-1 -59.310242516593846 8.6917936807512035 4.693331542630407 #
edge $-1 $584 1 $584 0 $369 $-1 forward 7 unknown #
vertex $-1 $370 $585 #
ellipse-curve $-1 -58.847756737276946 11.847597044926488 3.6754381769335676 -0.77714596973225614 0 0.62932038083071107 0.31466019041535553 0 0.38857298486612807 1 I I #
point $-1 -59.310242516593846 11.847597044926488 4.693331542630407 #
plane-surface $-1 61.35196996978668 0 0 -1 0 0 0 0 1 forward_v I I I I #
coedge $-1 $378 $376 $380 $510 reversed $261 $-1 #
edge $-1 $391 -6.4375090670554922 $512 6.4375090670554922 $390 $586 forward 7 unknown #
vertex $-1 $510 $587 #
straight-curve $-1 -61.35196996978668 -30.190479268374716 0 0 0 -1 I I #
edge $-1 $508 -30.190479268374716 $512 30.190479268374716 $506 $588 forward 7 unknown #
straight-curve $-1 0 -30.190479268374716 -6.4375090670554922 -1 0 0 I I #
vertex $-1 $383 $589 #
straight-curve $-1 0 30.190479268374716 -6.4375090670554922 1 0 0 I I #
point $-1 61.35196996978668 30.190479268374716 -6.4375090670554922 #
point $-1 61.35196996978668 -30.190479268374716 -6.4375090670554922 #
straight-curve $-1 -61.35196996978668 0 6.4375090670554922 0 -1 0 I I #
point $-1 -61.35196996978668 30.190479268374716 6.4375090670554922 #
point $-1 -61.35196996978668 -30.190479268374716 6.4375090670554922 #
straight-curve $-1 61.35196996978668 -30.190479268374716 0 0 0 -1 I I #
straight-curve $-1 61.35196996978668 30.190479268374716 0 0 0 -1 I I #
plane-surface $-1 61.35196996978668 0 0 -1 0 0 0 0 1 forward_v I I I I #
coedge $-1 $533 $524 $523 $590 forward $401 $-1 #
coedge $-1 $404 $403 $522 $590 reversed $173 $-1 #
coedge $-1 $522 $591 $405 $525 reversed $401 $-1 #
edge $-1 $526 -61.35196996978668 $529 61.35196996978668 $524 $592 forward 7 unknown #
vertex $-1 $406 $593 #
straight-curve $-1 -61.35196996978668 0 6.4375090670554922 0 -1 0 I I #
coedge $-1 $413 $407 $591 $594 forward $414 $-1 #
vertex $-1 $408 $595 #
straight-curve $-1 61.35196996978668 0 6.4375090670554922 0 1 0 I I #
point $-1 61.35196996978668 -30.190479268374716 6.4375090670554922 #
point $-1 -61.35196996978668 -30.190479268374716 6.4375090670554922 #
coedge $-1 $591 $522 $416 $534 reversed $401 $-1 #
edge $-1 $535 -61.35196996978668 $537 61.35196996978668 $533 $596 forward 7 unknown #
vertex $-1 $594 $597 #
straight-curve $-1 61.35196996978668 -33.622600675500443 3.4375090670554922 0 -1 0 I I #
vertex $-1 $418 $598 #
straight-curve $-1 -61.35196996978668 -33.622600675500443 3.4375090670554922 0 1 0 I I #
edge $-1 $542 -18.858745670883508 $431 -3.804721524098909 $430 $599 forward 7 unknown #
coedge $-1 $541 $424 $546 $600 reversed $421 $-1 #
coedge $-1 $424 $540 $426 $544 forward $421 $-1 #
vertex $-1 $425 $601 #
straight-curve $-1 23.337466634972859 30.190479268374716 67.36945990442689 -0.49999998660252726 0 0.86602541151947299 I I #
edge $-1 $548 -6.4375090670554922 $427 -1.526406351684825 $426 $602 forward 7 unknown #
point $-1 61.35196996978668 30.190479268374716 1.526406351684825 #
coedge $-1 $430 $429 $540 $600 forward $296 $-1 #
point $-1 58.516543596349663 15.136455121590117 6.4375090670554869 #
vertex $-1 $434 $603 #
straight-curve $-1 61.35196996978668 0 6.4375090670554922 0 1 0 I I #
vertex $-1 $437 $604 #
point $-1 57.62373776470934 19.437604877814287 1.4932784517455953 #
vertex $-1 $441 $605 #
point $-1 57.62373776470934 25.889329512150546 1.4932784517455953 #
coedge $-1 $456 $455 $448 $555 forward $445 $-1 #
edge $-1 $556 33.258540063281544 $559 37.524041081863963 $554 $606 forward 7 unknown #
vertex $-1 $460 $607 #
straight-curve $-1 -78.355421182047465 3.4321214071257273 6.437509067055494 -1 0 0 I I #
edge $-1 $559 -4.3458968403756053 $457 6.1734477068753613 $456 $608 forward 7 unknown #
vertex $-1 $558 $609 #
straight-curve $-1 -61.35196996978668 3.4321214071257273 2.1720080484730744 0.62932038083071107 0 0.77714596973225614 I I #
point $-1 -57.897835444231724 3.4321214071257273 6.4375090670554922 #
point $-1 -61.35196996978668 -7.0872231401252392 2.1720080484730744 #
straight-curve $-1 -61.35196996978668 0 6.4375090670554922 0 -1 0 I I #
vertex $-1 $463 $610 #
point $-1 -58.533096546861586 -4.9833542306750473 4.0640111617996961 #
vertex $-1 $467 $611 #
point $-1 -58.533096546861586 -1.8275508664997595 4.0640111617996961 #
vertex $-1 $471 $612 #
point $-1 -58.533096546861586 1.3282524976755283 4.0640111617996961 #
straight-curve $-1 -61.35196996978668 13.951465954376687 2.1720080484730744 0.62932038083071107 0 0.77714596973225614 I I #
coedge $-1 $479 $485 $481 $573 reversed $475 $-1 #
straight-curve $-1 -61.35196996978668 13.951465954376687 39.696049130337038 0 0 -1 I I #
edge $-1 $483 -13.951465954376687 $577 -3.4321214071257273 $571 $613 forward 7 unknown #
point $-1 -57.897835444231724 13.951465954376687 6.4375090670554922 #
point $-1 -61.35196996978668 13.951465954376687 6.4375090670554922 #
point $-1 -61.35196996978668 13.951465954376687 2.1720080484730744 #
vertex $-1 $490 $614 #
straight-curve $-1 -78.355421182047465 3.4321214071257273 6.437509067055494 1 0 0 I I #
straight-curve $-1 -61.35196996978668 3.4321214071257273 39.696049130337038 0 0 1 I I #
vertex $-1 $493 $615 #
point $-1 -58.533096546861586 5.5359903165759121 4.0640111617996961 #
vertex $-1 $497 $616 #
point $-1 -58.533096546861586 8.6917936807512035 4.0640111617996961 #
vertex $-1 $501 $617 #
point $-1 -58.533096546861586 11.847597044926488 4.0640111617996961 #
straight-curve $-1 -61.35196996978668 30.190479268374716 0 0 0 -1 I I #
point $-1 -61.35196996978668 -30.190479268374716 -6.4375090670554922 #
straight-curve $-1 -61.35196996978668 0 -6.4375090670554922 0 1 0 I I #
point $-1 -61.35196996978668 30.190479268374716 -6.4375090670554922 #
edge $-1 $526 -1.5 $537 1.5 $523 $618 forward 7 unknown #
coedge $-1 $524 $533 $528 $594 reversed $401 $-1 #
straight-curve $-1 0 -37.054722082626171 6.4375090670554922 1 0 0 I I #
point $-1 -61.35196996978668 -37.054722082626171 6.4375090670554922 #
edge $-1 $529 -1.5 $535 1.5 $528 $619 forward 7 unknown #
point $-1 61.35196996978668 -37.054722082626171 6.4375090670554922 #
straight-curve $-1 0 -37.054722082626171 3.4375090670554922 -1 0 0 I I #
point $-1 61.35196996978668 -37.054722082626171 3.4375090670554922 #
point $-1 -61.35196996978668 -37.054722082626171 3.4375090670554922 #
straight-curve $-1 58.516543596349649 11.331733597491208 6.4375090670555011 0 -1 0 I I #
edge $-1 $548 -61.35196996978668 $542 -58.516543596349663 $540 $620 forward 7 unknown #
point $-1 58.516543596349663 30.190479268374716 6.4375090670554869 #
straight-curve $-1 61.35196996978668 30.190479268374716 0 0 0 -1 I I #
point $-1 61.35196996978668 30.190479268374716 6.4375090670554922 #
point $-1 56.257712366587342 19.437604877814287 1.8593038766625412 #
point $-1 56.257712366587342 25.889329512150546 1.8593038766625412 #
straight-curve $-1 -61.35196996978668 3.4321214071257273 39.696049130337038 0 0 -1 I I #
point $-1 -61.35196996978668 3.4321214071257273 6.4375090670554922 #
straight-curve $-1 -61.35196996978668 -0.91377543324987798 2.1720080484730744 0 -1 0 I I #
point $-1 -61.35196996978668 3.4321214071257273 2.1720080484730744 #
point $-1 -58.459183752410816 -4.9833542306750473 3.3607779865182121 #
point $-1 -58.459183752410816 -1.8275508664997595 3.3607779865182121 #
point $-1 -58.459183752410816 1.3282524976755283 3.3607779865182121 #
straight-curve $-1 -61.35196996978668 0 6.4375090670554922 0 -1 0 I I #
point $-1 -61.35196996978668 3.4321214071257273 6.4375090670554922 #
point $-1 -58.459183752410816 5.5359903165759121 3.3607779865182121 #
point $-1 -58.459183752410816 8.6917936807512035 3.3607779865182121 #
point $-1 -58.459183752410816 11.847597044926488 3.3607779865182121 #
straight-curve $-1 -61.35196996978668 -37.054722082626171 4.9375090670554922 0 0 -1 I I #
straight-curve $-1 61.35196996978668 -37.054722082626171 4.9375090670554922 0 0 -1 I I #
straight-curve $-1 0 30.190479268374716 6.4375090670554922 -1 0 0 I I #
End-of-ACIS-data 