500 0 5 0           
7 Unknown 11 ACIS 5.0 NT 24 Fri Mar 26 20:36:27 1999 
-1 9.9999999999999995e-007 1e-010 
body $-1 $5 $-1 $6 #
body $-1 $7 $-1 $8 #
body $-1 $9 $-1 $10 #
body $-1 $11 $-1 $12 #
body $-1 $13 $-1 $14 #
lump $-1 $-1 $15 $0 #
transform $-1 1 0 0 0 1 0 0 0 1 73.014923551133762 36.995238098249558 7.8061792721731447 1 rotate no_reflect no_shear #
lump $-1 $-1 $16 $1 #
transform $-1 1 0 0 0 1 0 0 0 1 73.014923551133762 36.995238098249558 7.8061792721731447 1 rotate no_reflect no_shear #
lump $-1 $-1 $17 $2 #
transform $-1 1 0 0 0 1 0 0 0 1 73.014923551133762 36.995238098249558 7.8061792721731447 1 rotate no_reflect no_shear #
lump $-1 $-1 $18 $3 #
transform $-1 1 0 0 0 1 0 0 0 1 73.014923551133762 36.995238098249558 7.8061792721731447 1 rotate no_reflect no_shear #
lump $-1 $-1 $19 $4 #
transform $-1 1 0 0 0 1 0 0 0 1 73.014923551133762 36.995238098249558 7.8061792721731447 1 rotate no_reflect no_shear #
shell $-1 $-1 $-1 $20 $-1 $5 #
shell $-1 $-1 $-1 $21 $-1 $7 #
shell $-1 $-1 $-1 $22 $-1 $9 #
shell $-1 $-1 $-1 $23 $-1 $11 #
shell $-1 $-1 $-1 $24 $-1 $13 #
face $-1 $25 $26 $15 $-1 $27 forward single #
face $-1 $28 $29 $16 $-1 $30 reversed single #
face $-1 $31 $32 $17 $-1 $33 reversed single #
face $-1 $34 $35 $18 $-1 $36 forward single #
face $-1 $37 $38 $19 $-1 $39 forward single #
face $-1 $40 $41 $15 $-1 $42 reversed single #
loop $-1 $-1 $43 $20 #
plane-surface $-1 0 0 7.8061792721731447 0 0 1 1 0 0 forward_v I I I I #
face $-1 $44 $45 $16 $-1 $46 reversed single #
loop $-1 $-1 $47 $21 #
plane-surface $-1 0 -33.545136516518696 4.8061792721731447 0 0 1 1 0 0 forward_v I I I I #
face $-1 $48 $49 $17 $-1 $50 reversed single #
loop $-1 $-1 $51 $22 #
plane-surface $-1 -62.024296743963816 85.21180112533952 161.05076217029082 1 0 0 0 -0.69465837861970381 -0.71933979245794832 forward_v I I I I #
face $-1 $52 $53 $18 $-1 $54 forward single #
loop $-1 $55 $56 $23 #
cone-surface $-1 -53.558132175968439 34.671994205746302 5.5160560397646812 0 -0.69465837861970381 -0.71933979245794832 0.5 0 0 1 I I 0 1 0.5 forward I I I I #
face $-1 $57 $58 $19 $-1 $59 forward single #
loop $-1 $60 $61 $24 #
cone-surface $-1 -40.858885323975358 34.671994205746302 5.5160560397646812 0 -0.69465837861970381 -0.71933979245794832 0.5 0 0 1 I I 0 1 0.5 forward I I I I #
face $-1 $62 $63 $15 $-1 $64 reversed single #
loop $-1 $-1 $65 $25 #
plane-surface $-1 0 0 -7.8061792721731447 0 0 1 1 0 0 forward_v I I I I #
coedge $-1 $66 $67 $68 $69 forward $26 $-1 #
face $-1 $70 $71 $16 $-1 $72 reversed single #
loop $-1 $-1 $73 $28 #
plane-surface $-1 0 -30.095034934787837 6.3061792721731447 0 -1 0 0 0 -1 forward_v I I I I #
coedge $-1 $74 $75 $76 $77 reversed $29 $-1 #
face $-1 $78 $79 $17 $-1 $80 reversed single #
loop $-1 $-1 $81 $31 #
plane-surface $-1 -47.208508749971898 -16.229055692804891 56.005682263079777 0 0.69465837861970381 0.71933979245794832 1 0 0 forward_v I I I I #
coedge $-1 $82 $83 $84 $85 reversed $32 $-1 #
face $-1 $-1 $86 $18 $-1 $87 forward single #
loop $-1 $88 $89 $34 #
cone-surface $-1 -53.558132175968439 33.831209952336991 4.6453984777683406 0 -0.69465837861970381 -0.71933979245794832 0.25 0 0 1 I I -0.70710678118654746 0.70710678118654746 0.25 forward I I I I #
loop $-1 $-1 $90 $23 #
coedge $-1 $56 $56 $91 $92 reversed $35 $-1 #
face $-1 $-1 $93 $19 $-1 $94 forward single #
loop $-1 $95 $96 $37 #
cone-surface $-1 -40.858885323975358 33.831209952336991 4.6453984777683406 0 -0.69465837861970381 -0.71933979245794832 0.25 0 0 1 I I -0.70710678118654746 0.70710678118654746 0.25 forward I I I I #
loop $-1 $-1 $97 $24 #
coedge $-1 $61 $61 $98 $99 reversed $38 $-1 #
face $-1 $100 $101 $15 $-1 $102 reversed single #
loop $-1 $-1 $103 $40 #
plane-surface $-1 0 -36.995238098249558 0 0 1 0 0 0 1 forward_v I I I I #
coedge $-1 $104 $105 $106 $107 forward $41 $-1 #
coedge $-1 $108 $43 $109 $110 forward $26 $-1 #
coedge $-1 $43 $108 $111 $112 forward $26 $-1 #
coedge $-1 $113 $114 $43 $69 reversed $115 $-1 #
edge $-1 $116 -36.995238098249558 $117 36.995238098249558 $68 $118 forward 7 unknown #
face $-1 $119 $120 $16 $-1 $121 reversed single #
loop $-1 $-1 $122 $44 #
plane-surface $-1 -73.014923551133762 0 0 1 0 0 0 0 -1 forward_v I I I I #
coedge $-1 $123 $124 $125 $126 reversed $45 $-1 #
coedge $-1 $127 $47 $128 $129 reversed $29 $-1 #
coedge $-1 $47 $127 $123 $130 forward $29 $-1 #
coedge $-1 $125 $131 $47 $77 forward $132 $-1 #
edge $-1 $133 -20.222669839990211 $134 -13.322466676528489 $76 $135 forward 7 unknown #
face $-1 $136 $137 $17 $-1 $138 forward single #
loop $-1 $-1 $139 $48 #
plane-surface $-1 -32.39272075597998 85.21180112533952 161.05076217029082 -1 0 0 0 0.69465837861970381 0.71933979245794832 forward_v I I I I #
coedge $-1 $140 $141 $142 $143 reversed $49 $-1 #
coedge $-1 $83 $51 $144 $145 reversed $32 $-1 #
coedge $-1 $51 $82 $140 $146 reversed $32 $-1 #
coedge $-1 $142 $147 $51 $85 forward $137 $-1 #
edge $-1 $148 5.6106624644202014 $149 8.922910931918004 $84 $150 forward 7 unknown #
loop $-1 $-1 $91 $52 #
plane-surface $-1 -47.208508749971898 -16.229055692804891 56.005682263079777 0 0.69465837861970381 0.71933979245794832 1 0 0 forward_v I I I I #
loop $-1 $-1 $151 $34 #
coedge $-1 $89 $89 $90 $152 reversed $53 $-1 #
coedge $-1 $90 $90 $89 $152 forward $55 $-1 #
coedge $-1 $91 $91 $56 $92 forward $86 $-1 #
edge $-1 $153 -5.3247318946565991e-016 $153 6.2831853071795996 $91 $154 forward 7 unknown #
loop $-1 $-1 $98 $57 #
plane-surface $-1 -47.208508749971898 -16.229055692804891 56.005682263079777 0 0.69465837861970381 0.71933979245794832 1 0 0 forward_v I I I I #
loop $-1 $-1 $155 $37 #
coedge $-1 $96 $96 $97 $156 reversed $58 $-1 #
coedge $-1 $97 $97 $96 $156 forward $60 $-1 #
coedge $-1 $98 $98 $61 $99 forward $93 $-1 #
edge $-1 $157 -5.3247318946565991e-016 $157 6.2831853071795996 $98 $158 forward 7 unknown #
face $-1 $159 $160 $15 $-1 $161 reversed single #
loop $-1 $-1 $162 $62 #
plane-surface $-1 -73.014923551133762 0 0 1 0 0 0 0 -1 forward_v I I I I #
coedge $-1 $163 $111 $164 $165 forward $63 $-1 #
coedge $-1 $166 $65 $163 $167 forward $41 $-1 #
coedge $-1 $65 $166 $168 $169 forward $41 $-1 #
coedge $-1 $114 $113 $65 $107 reversed $115 $-1 #
edge $-1 $170 -36.995238098249558 $171 36.995238098249558 $106 $172 forward 7 unknown #
coedge $-1 $67 $66 $173 $174 forward $26 $-1 #
coedge $-1 $175 $176 $66 $110 reversed $160 $-1 #
edge $-1 $117 -73.014923551133762 $177 73.014923551133762 $109 $178 forward 7 unknown #
coedge $-1 $103 $179 $67 $112 reversed $63 $-1 #
edge $-1 $180 -73.014923551133762 $116 73.014923551133762 $111 $181 forward 7 unknown #
coedge $-1 $106 $68 $179 $182 forward $115 $-1 #
coedge $-1 $68 $106 $175 $183 reversed $115 $-1 #
loop $-1 $-1 $113 $159 #
vertex $-1 $69 $184 #
vertex $-1 $69 $185 #
straight-curve $-1 73.014923551133762 0 7.8061792721731447 0 1 0 I I #
face $-1 $186 $187 $16 $-1 $188 forward single #
loop $-1 $-1 $128 $70 #
plane-surface $-1 0 -36.995238098249558 0 0 1 0 0 0 1 forward_v I I I I #
coedge $-1 $189 $190 $191 $192 forward $71 $-1 #
coedge $-1 $191 $73 $75 $130 reversed $45 $-1 #
coedge $-1 $73 $191 $193 $194 reversed $45 $-1 #
coedge $-1 $195 $76 $73 $126 forward $132 $-1 #
edge $-1 $134 1.6530896360865723 $196 4.6530896360865723 $125 $197 forward 7 unknown #
coedge $-1 $75 $74 $189 $198 reversed $29 $-1 #
coedge $-1 $199 $200 $74 $129 forward $120 $-1 #
edge $-1 $201 -73.014923551133762 $133 73.014923551133762 $128 $202 forward 7 unknown #
edge $-1 $203 -73.014923551133762 $134 73.014923551133762 $123 $204 forward 7 unknown #
coedge $-1 $76 $195 $199 $205 forward $132 $-1 #
loop $-1 $-1 $125 $186 #
vertex $-1 $129 $206 #
vertex $-1 $77 $207 #
straight-curve $-1 73.014923551133762 -16.772568258259348 4.8061792721731447 0 1 0 I I #
face $-1 $-1 $208 $17 $-1 $209 reversed single #
loop $-1 $-1 $84 $78 #
plane-surface $-1 0 0 7.8061792721731447 0 0 1 1 0 0 forward_v I I I I #
coedge $-1 $210 $211 $212 $213 reversed $79 $-1 #
coedge $-1 $214 $81 $83 $146 forward $49 $-1 #
coedge $-1 $81 $214 $210 $215 forward $49 $-1 #
coedge $-1 $212 $84 $81 $143 forward $137 $-1 #
edge $-1 $149 -38.420042368977867 $216 -8.7884663809940307 $142 $217 forward 7 unknown #
coedge $-1 $218 $219 $82 $145 forward $208 $-1 #
edge $-1 $220 -75.917803050025512 $148 -72.719201812972273 $144 $221 forward 7 unknown #
edge $-1 $149 69.385908922137702 $220 73.990476196499117 $83 $222 forward 7 unknown #
coedge $-1 $84 $212 $218 $223 forward $137 $-1 #
vertex $-1 $145 $224 #
vertex $-1 $85 $225 #
straight-curve $-1 -62.024296743963816 42.60590056266976 7.8061792721731393 0 -1 0 I I #
coedge $-1 $151 $151 $-1 $226 reversed $88 $-1 #
edge $-1 $227 0 $227 6.2831853071796004 $89 $228 forward 7 unknown #
vertex $-1 $92 $229 #
ellipse-curve $-1 -53.558132175968439 35.339113864500668 6.2068786536465206 0 0.69465837861970381 0.71933979245794832 0.5 0 0 1 I I #
coedge $-1 $155 $155 $-1 $230 reversed $95 $-1 #
edge $-1 $231 0 $231 6.2831853071796004 $96 $232 forward 7 unknown #
vertex $-1 $99 $233 #
ellipse-curve $-1 -40.858885323975358 35.339113864500668 6.2068786536465206 0 0.69465837861970381 0.71933979245794832 0.5 0 0 1 I I #
face $-1 $-1 $115 $15 $-1 $234 reversed single #
loop $-1 $-1 $175 $100 #
plane-surface $-1 0 36.995238098249558 0 0 -1 0 0 0 -1 forward_v I I I I #
coedge $-1 $235 $173 $176 $236 forward $101 $-1 #
coedge $-1 $179 $103 $104 $167 reversed $63 $-1 #
coedge $-1 $173 $235 $103 $165 reversed $101 $-1 #
edge $-1 $180 -7.8061792721731447 $237 7.8061792721731447 $164 $238 forward 7 unknown #
coedge $-1 $105 $104 $235 $239 forward $41 $-1 #
edge $-1 $171 -73.014923551133762 $237 73.014923551133762 $163 $240 forward 7 unknown #
coedge $-1 $176 $175 $105 $169 reversed $160 $-1 #
edge $-1 $241 -73.014923551133762 $170 73.014923551133762 $168 $242 forward 7 unknown #
vertex $-1 $107 $243 #
vertex $-1 $182 $244 #
straight-curve $-1 73.014923551133762 0 -7.8061792721731447 0 -1 0 I I #
coedge $-1 $162 $164 $108 $174 reversed $101 $-1 #
edge $-1 $177 -36.995238098249558 $180 36.995238098249558 $173 $245 forward 7 unknown #
coedge $-1 $168 $109 $114 $183 forward $160 $-1 #
coedge $-1 $109 $168 $162 $236 reversed $160 $-1 #
vertex $-1 $110 $246 #
straight-curve $-1 0 36.995238098249558 7.8061792721731447 -1 0 0 I I #
coedge $-1 $111 $163 $113 $182 reversed $63 $-1 #
vertex $-1 $174 $247 #
straight-curve $-1 0 -36.995238098249558 7.8061792721731447 1 0 0 I I #
edge $-1 $116 -7.8061792721731447 $171 7.8061792721731447 $113 $248 forward 7 unknown #
edge $-1 $117 -7.8061792721731447 $170 7.8061792721731447 $114 $249 forward 7 unknown #
point $-1 73.014923551133762 -36.995238098249558 7.8061792721731447 #
point $-1 73.014923551133762 36.995238098249558 7.8061792721731447 #
face $-1 $-1 $132 $16 $-1 $250 reversed single #
loop $-1 $-1 $193 $119 #
plane-surface $-1 0 0 7.8061792721731447 0 0 1 1 0 0 forward_v I I I I #
coedge $-1 $251 $122 $127 $198 forward $71 $-1 #
coedge $-1 $122 $251 $252 $253 reversed $71 $-1 #
coedge $-1 $124 $123 $122 $192 reversed $45 $-1 #
edge $-1 $254 -4.6530896360865723 $203 -1.6530896360865723 $122 $255 forward 7 unknown #
coedge $-1 $252 $256 $124 $194 forward $187 $-1 #
edge $-1 $196 -73.014923551133762 $254 73.014923551133762 $193 $257 forward 7 unknown #
coedge $-1 $131 $125 $256 $258 reversed $132 $-1 #
vertex $-1 $126 $259 #
straight-curve $-1 73.014923551133762 -30.095034934787837 3.1530896360865723 0 0 1 I I #
edge $-1 $203 13.322466676528489 $201 20.222669839990211 $189 $260 forward 7 unknown #
coedge $-1 $261 $128 $131 $205 reversed $120 $-1 #
coedge $-1 $128 $261 $251 $262 forward $120 $-1 #
vertex $-1 $129 $263 #
straight-curve $-1 0 -36.995238098249558 4.8061792721731447 1 0 0 I I #
vertex $-1 $198 $264 #
straight-curve $-1 0 -30.095034934787837 4.8061792721731447 1 0 0 I I #
edge $-1 $265 -7.8061792721731447 $133 -4.8061792721731447 $131 $266 forward 7 unknown #
point $-1 73.014923551133762 -36.995238098249558 4.8061792721731447 #
point $-1 73.014923551133762 -30.095034934787837 4.8061792721731447 #
loop $-1 $-1 $144 $136 #
plane-surface $-1 0 36.995238098249558 0 0 -1 0 0 0 -1 forward_v I I I I #
coedge $-1 $211 $139 $141 $215 reversed $79 $-1 #
coedge $-1 $139 $210 $267 $268 reversed $79 $-1 #
coedge $-1 $147 $142 $139 $213 forward $137 $-1 #
edge $-1 $216 -8.922910931918004 $269 -5.6106624644202014 $212 $270 forward 7 unknown #
coedge $-1 $141 $140 $219 $271 reversed $49 $-1 #
edge $-1 $272 -73.990476196499117 $216 -69.385908922137702 $210 $273 forward 7 unknown #
vertex $-1 $143 $274 #
straight-curve $-1 -23.604254374985949 33.682989630751763 7.8061792721731464 1 0 0 I I #
coedge $-1 $267 $144 $147 $223 reversed $208 $-1 #
coedge $-1 $144 $267 $214 $271 forward $208 $-1 #
vertex $-1 $145 $275 #
straight-curve $-1 -62.024296743963816 36.995238098249558 80.525381085145412 0 0 1 I I #
straight-curve $-1 -62.024296743963816 -16.229055692804891 56.005682263079777 0 0.71933979245794832 -0.69465837861970381 I I #
edge $-1 $269 32.39272075597998 $148 62.024296743963816 $218 $276 forward 7 unknown #
point $-1 -62.024296743963816 36.995238098249558 7.8061792721731447 #
point $-1 -62.024296743963816 33.682989630751756 7.8061792721731535 #
edge $-1 $277 1 $277 0 $151 $-1 forward 7 unknown #
vertex $-1 $152 $278 #
ellipse-curve $-1 -53.558132175968439 34.004874546991914 4.8252334258828276 0 0.69465837861970381 0.71933979245794832 0.5 0 0 1 I I #
point $-1 -53.058132175968439 35.339113864500682 6.2068786536465357 #
edge $-1 $279 1 $279 0 $155 $-1 forward 7 unknown #
vertex $-1 $156 $280 #
ellipse-curve $-1 -40.858885323975358 34.004874546991914 4.8252334258828276 0 0.69465837861970381 0.71933979245794832 0.5 0 0 1 I I #
point $-1 -40.358885323975358 35.339113864500682 6.2068786536465357 #
plane-surface $-1 73.014923551133762 0 0 -1 0 0 0 0 1 forward_v I I I I #
coedge $-1 $164 $162 $166 $239 reversed $101 $-1 #
edge $-1 $177 -7.8061792721731447 $241 7.8061792721731447 $176 $281 forward 7 unknown #
vertex $-1 $239 $282 #
straight-curve $-1 -73.014923551133762 -36.995238098249558 0 0 0 -1 I I #
edge $-1 $237 -36.995238098249558 $241 36.995238098249558 $235 $283 forward 7 unknown #
straight-curve $-1 0 -36.995238098249558 -7.8061792721731447 -1 0 0 I I #
vertex $-1 $169 $284 #
straight-curve $-1 0 36.995238098249558 -7.8061792721731447 1 0 0 I I #
point $-1 73.014923551133762 36.995238098249558 -7.8061792721731447 #
point $-1 73.014923551133762 -36.995238098249558 -7.8061792721731447 #
straight-curve $-1 -73.014923551133762 0 7.8061792721731447 0 -1 0 I I #
point $-1 -73.014923551133762 36.995238098249558 7.8061792721731447 #
point $-1 -73.014923551133762 -36.995238098249558 7.8061792721731447 #
straight-curve $-1 73.014923551133762 -36.995238098249558 0 0 0 -1 I I #
straight-curve $-1 73.014923551133762 36.995238098249558 0 0 0 -1 I I #
plane-surface $-1 73.014923551133762 0 0 -1 0 0 0 0 1 forward_v I I I I #
coedge $-1 $190 $189 $200 $262 reversed $71 $-1 #
coedge $-1 $285 $193 $190 $253 forward $187 $-1 #
edge $-1 $254 30.095034934787837 $286 36.995238098249558 $190 $287 forward 7 unknown #
vertex $-1 $253 $288 #
straight-curve $-1 -73.014923551133762 -30.095034934787837 3.1530896360865723 0 0 -1 I I #
coedge $-1 $193 $285 $195 $258 forward $187 $-1 #
straight-curve $-1 0 -30.095034934787837 7.8061792721731447 -1 0 0 I I #
edge $-1 $265 -36.995238098249558 $196 -30.095034934787837 $195 $289 forward 7 unknown #
point $-1 73.014923551133762 -30.095034934787837 7.8061792721731447 #
straight-curve $-1 -73.014923551133762 -16.772568258259348 4.8061792721731447 0 -1 0 I I #
coedge $-1 $200 $199 $285 $290 reversed $120 $-1 #
edge $-1 $286 -7.8061792721731447 $201 -4.8061792721731447 $251 $291 forward 7 unknown #
point $-1 -73.014923551133762 -36.995238098249558 4.8061792721731447 #
point $-1 -73.014923551133762 -30.095034934787837 4.8061792721731447 #
vertex $-1 $258 $292 #
straight-curve $-1 73.014923551133762 -36.995238098249558 0 0 0 -1 I I #
coedge $-1 $219 $218 $211 $268 forward $208 $-1 #
edge $-1 $269 72.719201812972273 $272 75.917803050025512 $267 $293 forward 7 unknown #
vertex $-1 $223 $294 #
straight-curve $-1 -32.39272075597998 42.60590056266976 7.8061792721731393 0 1 0 I I #
edge $-1 $272 8.7884663809940307 $220 38.420042368977867 $219 $295 forward 7 unknown #
vertex $-1 $271 $296 #
straight-curve $-1 -32.39272075597998 -16.229055692804891 56.005682263079777 0 -0.71933979245794832 0.69465837861970381 I I #
point $-1 -32.39272075597998 33.682989630751756 7.8061792721731535 #
point $-1 -62.024296743963816 36.995238098249558 4.6075780351199001 #
straight-curve $-1 0 36.995238098249558 7.8061792721731447 -1 0 0 I I #
vertex $-1 $226 $297 #
point $-1 -53.058132175968439 34.004874546991914 4.8252334258828276 #
vertex $-1 $230 $298 #
point $-1 -40.358885323975358 34.004874546991914 4.8252334258828276 #
straight-curve $-1 -73.014923551133762 36.995238098249558 0 0 0 -1 I I #
point $-1 -73.014923551133762 -36.995238098249558 -7.8061792721731447 #
straight-curve $-1 -73.014923551133762 0 -7.8061792721731447 0 1 0 I I #
point $-1 -73.014923551133762 36.995238098249558 -7.8061792721731447 #
coedge $-1 $256 $252 $261 $290 forward $187 $-1 #
vertex $-1 $253 $299 #
straight-curve $-1 -73.014923551133762 0 7.8061792721731447 0 -1 0 I I #
point $-1 -73.014923551133762 -30.095034934787837 7.8061792721731447 #
straight-curve $-1 73.014923551133762 0 7.8061792721731447 0 1 0 I I #
edge $-1 $286 -73.014923551133762 $265 73.014923551133762 $261 $300 forward 7 unknown #
straight-curve $-1 -73.014923551133762 -36.995238098249558 0 0 0 -1 I I #
point $-1 73.014923551133762 -36.995238098249558 7.8061792721731447 #
straight-curve $-1 -32.39272075597998 36.995238098249558 80.525381085145412 0 0 -1 I I #
point $-1 -32.39272075597998 36.995238098249558 7.8061792721731447 #
straight-curve $-1 -23.604254374985949 36.995238098249558 4.6075780351199001 -1 0 0 I I #
point $-1 -32.39272075597998 36.995238098249558 4.6075780351199001 #
point $-1 -53.558132175968439 33.657545357682068 4.4655635296538536 #
point $-1 -40.858885323975358 33.657545357682068 4.4655635296538536 #
point $-1 -73.014923551133762 -36.995238098249558 7.8061792721731447 #
straight-curve $-1 0 -36.995238098249558 7.8061792721731447 1 0 0 I I #
End-of-ACIS-data 