500 0 6 0           
7 Unknown 11 ACIS 5.0 NT 24 Fri Mar 26 15:07:00 1999 
-1 9.9999999999999995e-007 1e-010 
body $-1 $6 $-1 $7 #
body $-1 $8 $-1 $9 #
body $-1 $10 $-1 $11 #
body $-1 $12 $-1 $13 #
body $-1 $14 $-1 $15 #
body $-1 $16 $-1 $17 #
lump $-1 $-1 $18 $0 #
transform $-1 1 0 0 0 1 0 0 0 1 66.829432050538657 29.865721771564615 6.6118936391883318 1 rotate no_reflect no_shear #
lump $-1 $-1 $19 $1 #
transform $-1 1 0 0 0 1 0 0 0 1 66.829432050538657 29.865721771564615 6.6118936391883318 1 rotate no_reflect no_shear #
lump $-1 $-1 $20 $2 #
transform $-1 1 0 0 0 1 0 0 0 1 66.829432050538657 29.865721771564615 6.6118936391883318 1 rotate no_reflect no_shear #
lump $-1 $-1 $21 $3 #
transform $-1 1 0 0 0 1 0 0 0 1 66.829432050538657 29.865721771564615 6.6118936391883318 1 rotate no_reflect no_shear #
lump $-1 $-1 $22 $4 #
transform $-1 1 0 0 0 1 0 0 0 1 66.829432050538657 29.865721771564615 6.6118936391883318 1 rotate no_reflect no_shear #
lump $-1 $-1 $23 $5 #
transform $-1 1 0 0 0 1 0 0 0 1 66.829432050538657 29.865721771564615 6.6118936391883318 1 rotate no_reflect no_shear #
shell $-1 $-1 $-1 $24 $-1 $6 #
shell $-1 $-1 $-1 $25 $-1 $8 #
shell $-1 $-1 $-1 $26 $-1 $10 #
shell $-1 $-1 $-1 $27 $-1 $12 #
shell $-1 $-1 $-1 $28 $-1 $14 #
shell $-1 $-1 $-1 $29 $-1 $16 #
face $-1 $30 $31 $18 $-1 $32 forward single #
face $-1 $33 $34 $19 $-1 $35 forward single #
face $-1 $36 $37 $20 $-1 $38 forward single #
face $-1 $39 $40 $21 $-1 $41 reversed single #
face $-1 $42 $43 $22 $-1 $44 forward single #
face $-1 $45 $46 $23 $-1 $47 forward single #
face $-1 $48 $49 $18 $-1 $50 reversed single #
loop $-1 $-1 $51 $24 #
plane-surface $-1 0 0 6.6118936391883318 0 0 1 1 0 0 forward_v I I I I #
face $-1 $52 $53 $19 $-1 $54 reversed single #
loop $-1 $-1 $55 $25 #
plane-surface $-1 -66.829432050538657 0 0 1 0 0 0 0 -1 forward_v I I I I #
face $-1 $56 $57 $20 $-1 $58 forward single #
loop $-1 $-1 $59 $26 #
plane-surface $-1 66.829432050538657 0 0 -1 0 0 0 0 1 forward_v I I I I #
face $-1 $60 $61 $21 $-1 $62 reversed single #
loop $-1 $-1 $63 $27 #
plane-surface $-1 -13.554082197286192 -100.69412962946362 116.39567061916115 -1 0 0 0 -0.52991927123019833 0.84804809178421925 forward_v I I I I #
face $-1 $64 $65 $22 $-1 $66 forward single #
loop $-1 $67 $68 $28 #
cone-surface $-1 -25.715078693607914 -25.771959540685835 2.8433998733837704 0 0.52991927123019833 -0.84804809178421925 1.5 0 0 1 I I 0 1 1.5 forward I I I I #
face $-1 $69 $70 $23 $-1 $71 forward single #
loop $-1 $72 $73 $29 #
cone-surface $-1 -18.418480795814887 -25.771959540685835 2.8433998733837704 0 0.52991927123019833 -0.84804809178421925 1.5 0 0 1 I I 0 1 1.5 forward I I I I #
face $-1 $74 $75 $18 $-1 $76 reversed single #
loop $-1 $-1 $77 $30 #
plane-surface $-1 0 0 -6.6118936391883318 0 0 1 1 0 0 forward_v I I I I #
coedge $-1 $78 $79 $80 $81 forward $31 $-1 #
face $-1 $82 $83 $19 $-1 $84 reversed single #
loop $-1 $-1 $85 $33 #
plane-surface $-1 0 29.865721771564615 0 0 -1 0 0 0 -1 forward_v I I I I #
coedge $-1 $86 $87 $88 $89 forward $34 $-1 #
face $-1 $90 $91 $20 $-1 $92 reversed single #
loop $-1 $-1 $93 $36 #
plane-surface $-1 0 0 6.6118936391883318 0 0 1 1 0 0 forward_v I I I I #
coedge $-1 $94 $95 $96 $97 forward $37 $-1 #
face $-1 $98 $99 $21 $-1 $100 reversed single #
loop $-1 $-1 $101 $39 #
plane-surface $-1 -22.066779744711397 -29.865721771564608 3.0465259681962493 0 -0.52991927123019833 0.84804809178421925 1 0 0 forward_v I I I I #
coedge $-1 $102 $103 $104 $105 reversed $40 $-1 #
face $-1 $-1 $106 $22 $-1 $107 forward single #
loop $-1 $108 $109 $42 #
cone-surface $-1 -25.715078693607914 -24.133648300314405 0.22155387423707662 0 0.52991927123019833 -0.84804809178421925 0.75 0 0 1 I I -0.70710678118654757 0.70710678118654757 0.75 forward I I I I #
loop $-1 $-1 $110 $28 #
coedge $-1 $68 $68 $111 $112 reversed $43 $-1 #
face $-1 $-1 $113 $23 $-1 $114 forward single #
loop $-1 $115 $116 $45 #
cone-surface $-1 -18.418480795814887 -24.133648300314405 0.22155387423707662 0 0.52991927123019833 -0.84804809178421925 0.75 0 0 1 I I -0.70710678118654757 0.70710678118654757 0.75 forward I I I I #
loop $-1 $-1 $117 $29 #
coedge $-1 $73 $73 $118 $119 reversed $46 $-1 #
face $-1 $120 $121 $18 $-1 $122 reversed single #
loop $-1 $-1 $123 $48 #
plane-surface $-1 0 -29.865721771564615 0 0 1 0 0 0 1 forward_v I I I I #
coedge $-1 $124 $125 $126 $127 forward $49 $-1 #
coedge $-1 $128 $51 $129 $130 forward $31 $-1 #
coedge $-1 $51 $128 $131 $132 forward $31 $-1 #
coedge $-1 $133 $134 $51 $81 reversed $135 $-1 #
edge $-1 $136 -29.865721771564615 $137 29.865721771564615 $80 $138 forward 7 unknown #
face $-1 $139 $140 $19 $-1 $141 reversed single #
loop $-1 $-1 $88 $52 #
plane-surface $-1 -71.141675303185067 0 3.6118936391883318 0 0 1 1 0 0 forward_v I I I I #
coedge $-1 $142 $143 $86 $144 forward $53 $-1 #
coedge $-1 $145 $55 $85 $144 reversed $34 $-1 #
coedge $-1 $55 $145 $146 $147 reversed $34 $-1 #
coedge $-1 $148 $149 $55 $89 reversed $83 $-1 #
edge $-1 $150 -29.865721771564615 $151 29.865721771564615 $88 $152 forward 7 unknown #
face $-1 $153 $154 $20 $-1 $155 reversed single #
loop $-1 $-1 $156 $56 #
plane-surface $-1 0 -29.865721771564615 0 0 1 0 0 0 1 forward_v I I I I #
coedge $-1 $157 $158 $159 $160 forward $57 $-1 #
coedge $-1 $159 $59 $156 $161 reversed $37 $-1 #
coedge $-1 $59 $159 $162 $163 reversed $37 $-1 #
coedge $-1 $164 $165 $59 $97 reversed $154 $-1 #
edge $-1 $166 -29.865721771564615 $167 29.865721771564615 $96 $168 forward 7 unknown #
face $-1 $169 $170 $21 $-1 $171 reversed single #
loop $-1 $-1 $172 $60 #
plane-surface $-1 -30.579477292136602 -100.69412962946362 116.39567061916115 1 0 0 0 0.52991927123019833 -0.84804809178421925 forward_v I I I I #
coedge $-1 $173 $174 $175 $176 reversed $61 $-1 #
coedge $-1 $103 $63 $177 $178 reversed $40 $-1 #
coedge $-1 $63 $102 $173 $179 reversed $40 $-1 #
coedge $-1 $175 $180 $63 $105 forward $181 $-1 #
edge $-1 $182 20.481343043167193 $183 26.18712393102723 $104 $184 forward 7 unknown #
loop $-1 $-1 $111 $64 #
plane-surface $-1 -22.066779744711397 -29.865721771564608 3.0465259681962493 0 -0.52991927123019833 0.84804809178421925 1 0 0 forward_v I I I I #
loop $-1 $-1 $185 $42 #
coedge $-1 $109 $109 $110 $186 reversed $65 $-1 #
coedge $-1 $110 $110 $109 $186 forward $67 $-1 #
coedge $-1 $111 $111 $68 $112 forward $106 $-1 #
edge $-1 $187 -6.9156502183961498e-016 $187 6.2831853071795996 $111 $188 forward 7 unknown #
loop $-1 $-1 $118 $69 #
plane-surface $-1 -22.066779744711397 -29.865721771564608 3.0465259681962493 0 -0.52991927123019833 0.84804809178421925 1 0 0 forward_v I I I I #
loop $-1 $-1 $189 $45 #
coedge $-1 $116 $116 $117 $190 reversed $70 $-1 #
coedge $-1 $117 $117 $116 $190 forward $72 $-1 #
coedge $-1 $118 $118 $73 $119 forward $113 $-1 #
edge $-1 $191 -6.9156502183961498e-016 $191 6.2831853071795996 $118 $192 forward 7 unknown #
face $-1 $193 $194 $18 $-1 $195 reversed single #
loop $-1 $-1 $196 $74 #
plane-surface $-1 -66.829432050538657 0 0 1 0 0 0 0 -1 forward_v I I I I #
coedge $-1 $197 $131 $198 $199 forward $75 $-1 #
coedge $-1 $200 $77 $197 $201 forward $49 $-1 #
coedge $-1 $77 $200 $202 $203 forward $49 $-1 #
coedge $-1 $134 $133 $77 $127 reversed $135 $-1 #
edge $-1 $204 -29.865721771564615 $205 29.865721771564615 $126 $206 forward 7 unknown #
coedge $-1 $79 $78 $207 $208 forward $31 $-1 #
coedge $-1 $209 $210 $78 $130 reversed $194 $-1 #
edge $-1 $137 -66.829432050538657 $211 66.829432050538657 $129 $212 forward 7 unknown #
coedge $-1 $123 $213 $79 $132 reversed $75 $-1 #
edge $-1 $214 -66.829432050538657 $136 66.829432050538657 $131 $215 forward 7 unknown #
coedge $-1 $126 $80 $213 $216 forward $135 $-1 #
coedge $-1 $80 $126 $209 $217 reversed $135 $-1 #
loop $-1 $-1 $133 $193 #
vertex $-1 $81 $218 #
vertex $-1 $81 $219 #
straight-curve $-1 66.829432050538657 0 6.6118936391883318 0 1 0 I I #
face $-1 $220 $221 $19 $-1 $222 forward single #
loop $-1 $-1 $223 $82 #
plane-surface $-1 -75.453918555831478 0 5.1118936391883318 1 0 0 0 0 -1 forward_v I I I I #
coedge $-1 $224 $85 $149 $225 reversed $53 $-1 #
coedge $-1 $85 $224 $226 $227 reversed $53 $-1 #
edge $-1 $228 -6.6118936391883318 $151 -3.6118936391883318 $85 $229 forward 7 unknown #
coedge $-1 $87 $86 $230 $231 reversed $34 $-1 #
coedge $-1 $232 $233 $87 $147 forward $234 $-1 #
edge $-1 $150 3.6118936391883318 $235 6.6118936391883318 $146 $236 forward 7 unknown #
coedge $-1 $237 $88 $233 $238 forward $83 $-1 #
coedge $-1 $88 $237 $142 $225 forward $83 $-1 #
vertex $-1 $147 $239 #
vertex $-1 $144 $240 #
straight-curve $-1 -66.829432050538657 0 3.6118936391883318 0 1 0 I I #
face $-1 $241 $242 $20 $-1 $243 reversed single #
loop $-1 $-1 $244 $90 #
plane-surface $-1 71.141675303185053 0 3.6118936391883318 0 0 1 1 0 0 forward_v I I I I #
coedge $-1 $245 $246 $94 $161 forward $91 $-1 #
coedge $-1 $247 $93 $246 $248 forward $57 $-1 #
coedge $-1 $93 $247 $249 $250 forward $57 $-1 #
coedge $-1 $95 $94 $93 $160 reversed $37 $-1 #
edge $-1 $251 -29.865721771564615 $252 29.865721771564615 $93 $253 forward 7 unknown #
edge $-1 $252 -6.6118936391883318 $167 -3.6118936391883318 $156 $254 forward 7 unknown #
coedge $-1 $249 $255 $95 $163 forward $256 $-1 #
edge $-1 $166 3.6118936391883318 $251 6.6118936391883318 $162 $257 forward 7 unknown #
coedge $-1 $244 $96 $255 $258 forward $154 $-1 #
coedge $-1 $96 $244 $245 $259 forward $154 $-1 #
vertex $-1 $163 $260 #
vertex $-1 $161 $261 #
straight-curve $-1 66.829432050538657 0 3.6118936391883318 0 -1 0 I I #
face $-1 $-1 $181 $21 $-1 $262 forward single #
loop $-1 $-1 $263 $98 #
plane-surface $-1 0 -29.865721771564615 0 0 1 0 0 0 1 forward_v I I I I #
coedge $-1 $264 $265 $266 $267 reversed $99 $-1 #
coedge $-1 $268 $101 $103 $179 forward $61 $-1 #
coedge $-1 $101 $268 $264 $269 forward $61 $-1 #
coedge $-1 $266 $104 $101 $176 forward $181 $-1 #
edge $-1 $183 2.5206923249304936 $270 19.546087419780903 $175 $271 forward 7 unknown #
coedge $-1 $272 $273 $102 $178 forward $170 $-1 #
edge $-1 $274 -55.151309341384334 $182 -51.585941670392245 $177 $275 forward 7 unknown #
edge $-1 $183 -6.7281336319684009 $274 8.3790584163743152e-015 $103 $276 forward 7 unknown #
coedge $-1 $104 $266 $272 $277 forward $181 $-1 #
loop $-1 $-1 $266 $169 #
vertex $-1 $178 $278 #
vertex $-1 $105 $279 #
straight-curve $-1 -13.554082197286192 -50.347064814731809 6.611893639188331 0 1 0 I I #
coedge $-1 $185 $185 $-1 $280 reversed $108 $-1 #
edge $-1 $281 0 $281 6.2831853071796004 $109 $282 forward 7 unknown #
vertex $-1 $112 $283 #
ellipse-curve $-1 -25.715078693607914 -27.012831327634604 4.8292098036922839 0 -0.52991927123019833 0.84804809178421925 1.5 0 0 1 I I #
coedge $-1 $189 $189 $-1 $284 reversed $115 $-1 #
edge $-1 $285 0 $285 6.2831853071796004 $116 $286 forward 7 unknown #
vertex $-1 $119 $287 #
ellipse-curve $-1 -18.418480795814887 -27.012831327634604 4.8292098036922839 0 -0.52991927123019833 0.84804809178421925 1.5 0 0 1 I I #
face $-1 $-1 $135 $18 $-1 $288 reversed single #
loop $-1 $-1 $209 $120 #
plane-surface $-1 0 29.865721771564615 0 0 -1 0 0 0 -1 forward_v I I I I #
coedge $-1 $289 $207 $210 $290 forward $121 $-1 #
coedge $-1 $213 $123 $124 $201 reversed $75 $-1 #
coedge $-1 $207 $289 $123 $199 reversed $121 $-1 #
edge $-1 $214 -6.6118936391883318 $291 6.6118936391883318 $198 $292 forward 7 unknown #
coedge $-1 $125 $124 $289 $293 forward $49 $-1 #
edge $-1 $205 -66.829432050538657 $291 66.829432050538657 $197 $294 forward 7 unknown #
coedge $-1 $210 $209 $125 $203 reversed $194 $-1 #
edge $-1 $295 -66.829432050538657 $204 66.829432050538657 $202 $296 forward 7 unknown #
vertex $-1 $127 $297 #
vertex $-1 $216 $298 #
straight-curve $-1 66.829432050538657 0 -6.6118936391883318 0 -1 0 I I #
coedge $-1 $196 $198 $128 $208 reversed $121 $-1 #
edge $-1 $211 -29.865721771564615 $214 29.865721771564615 $207 $299 forward 7 unknown #
coedge $-1 $202 $129 $134 $217 forward $194 $-1 #
coedge $-1 $129 $202 $196 $290 reversed $194 $-1 #
vertex $-1 $130 $300 #
straight-curve $-1 0 29.865721771564615 6.6118936391883318 -1 0 0 I I #
coedge $-1 $131 $197 $133 $216 reversed $75 $-1 #
vertex $-1 $208 $301 #
straight-curve $-1 0 -29.865721771564615 6.6118936391883318 1 0 0 I I #
edge $-1 $136 -6.6118936391883318 $205 6.6118936391883318 $133 $302 forward 7 unknown #
edge $-1 $137 -6.6118936391883318 $204 6.6118936391883318 $134 $303 forward 7 unknown #
point $-1 66.829432050538657 -29.865721771564615 6.6118936391883318 #
point $-1 66.829432050538657 29.865721771564615 6.6118936391883318 #
face $-1 $-1 $234 $19 $-1 $304 reversed single #
loop $-1 $-1 $230 $139 #
plane-surface $-1 0 0 6.6118936391883318 0 0 1 1 0 0 forward_v I I I I #
coedge $-1 $305 $306 $224 $307 forward $140 $-1 #
coedge $-1 $143 $142 $223 $307 reversed $53 $-1 #
edge $-1 $308 -4.312243252646411 $151 4.312243252646411 $142 $309 forward 7 unknown #
coedge $-1 $310 $230 $143 $227 forward $221 $-1 #
edge $-1 $228 66.829432050538657 $311 75.453918555831478 $143 $312 forward 7 unknown #
vertex $-1 $227 $313 #
straight-curve $-1 -66.829432050538657 29.865721771564615 0 0 0 -1 I I #
coedge $-1 $226 $314 $145 $231 forward $221 $-1 #
edge $-1 $235 -29.865721771564615 $228 29.865721771564615 $230 $315 forward 7 unknown #
coedge $-1 $316 $146 $314 $317 reversed $234 $-1 #
coedge $-1 $146 $316 $148 $238 reversed $234 $-1 #
loop $-1 $-1 $146 $220 #
vertex $-1 $147 $318 #
straight-curve $-1 -66.829432050538657 -29.865721771564615 0 0 0 1 I I #
coedge $-1 $149 $148 $305 $319 forward $83 $-1 #
edge $-1 $150 -4.312243252646411 $320 4.312243252646411 $233 $321 forward 7 unknown #
point $-1 -66.829432050538657 -29.865721771564615 3.6118936391883318 #
point $-1 -66.829432050538657 29.865721771564615 3.6118936391883318 #
face $-1 $-1 $256 $20 $-1 $322 reversed single #
loop $-1 $-1 $323 $153 #
plane-surface $-1 75.453918555831464 0 5.1118936391883318 -1 0 0 0 0 1 forward_v I I I I #
coedge $-1 $165 $164 $324 $325 forward $154 $-1 #
coedge $-1 $326 $156 $165 $259 reversed $91 $-1 #
coedge $-1 $156 $326 $157 $248 reversed $91 $-1 #
coedge $-1 $158 $157 $327 $328 forward $57 $-1 #
edge $-1 $252 -4.3122432526463967 $329 4.312243252646411 $246 $330 forward 7 unknown #
coedge $-1 $331 $162 $158 $250 reversed $256 $-1 #
edge $-1 $332 -75.453918555831464 $251 -66.829432050538657 $249 $333 forward 7 unknown #
vertex $-1 $163 $334 #
vertex $-1 $248 $335 #
straight-curve $-1 66.829432050538657 0 6.6118936391883318 0 -1 0 I I #
straight-curve $-1 66.829432050538657 -29.865721771564615 0 0 0 -1 I I #
coedge $-1 $162 $331 $164 $258 reversed $256 $-1 #
loop $-1 $-1 $162 $241 #
straight-curve $-1 66.829432050538657 29.865721771564615 0 0 0 1 I I #
edge $-1 $166 -4.312243252646411 $336 4.312243252646411 $255 $337 forward 7 unknown #
edge $-1 $338 -4.312243252646411 $167 4.312243252646411 $245 $339 forward 7 unknown #
point $-1 66.829432050538642 29.865721771564615 3.6118936391883318 #
point $-1 66.829432050538642 -29.865721771564615 3.6118936391883318 #
plane-surface $-1 0 0 6.6118936391883318 0 0 1 1 0 0 forward_v I I I I #
coedge $-1 $273 $272 $265 $340 forward $170 $-1 #
coedge $-1 $265 $172 $174 $269 reversed $99 $-1 #
coedge $-1 $172 $264 $263 $340 reversed $99 $-1 #
coedge $-1 $180 $175 $172 $267 forward $181 $-1 #
edge $-1 $270 -26.18712393102723 $341 -20.481343043167193 $266 $342 forward 7 unknown #
coedge $-1 $174 $173 $273 $343 reversed $61 $-1 #
edge $-1 $344 -8.3790584163743152e-015 $270 6.7281336319684009 $264 $345 forward 7 unknown #
vertex $-1 $176 $346 #
straight-curve $-1 -11.033389872355698 -24.159940883704579 6.611893639188331 -1 0 0 I I #
coedge $-1 $263 $177 $180 $277 reversed $170 $-1 #
coedge $-1 $177 $263 $268 $343 forward $170 $-1 #
vertex $-1 $178 $347 #
straight-curve $-1 -13.554082197286192 -29.865721771564615 58.197835309580576 0 0 1 I I #
straight-curve $-1 -13.554082197286192 -29.865721771564608 3.0465259681962493 0 -0.84804809178421925 -0.52991927123019833 I I #
edge $-1 $341 -101.72115259532166 $182 -84.695757500471245 $272 $348 forward 7 unknown #
point $-1 -13.554082197286192 -29.865721771564615 6.6118936391883318 #
point $-1 -13.554082197286192 -24.159940883704579 6.6118936391883318 #
edge $-1 $349 1 $349 0 $185 $-1 forward 7 unknown #
vertex $-1 $186 $350 #
ellipse-curve $-1 -25.715078693607914 -24.531087753737054 0.85758994307524106 0 -0.52991927123019833 0.84804809178421925 1.5 0 0 1 I I #
point $-1 -24.215078693607914 -27.012831327634615 4.829209803692299 #
edge $-1 $351 1 $351 0 $189 $-1 forward 7 unknown #
vertex $-1 $190 $352 #
ellipse-curve $-1 -18.418480795814887 -24.531087753737054 0.85758994307524106 0 -0.52991927123019833 0.84804809178421925 1.5 0 0 1 I I #
point $-1 -16.918480795814887 -27.012831327634615 4.829209803692299 #
plane-surface $-1 66.829432050538657 0 0 -1 0 0 0 0 1 forward_v I I I I #
coedge $-1 $198 $196 $200 $293 reversed $121 $-1 #
edge $-1 $211 -6.6118936391883318 $295 6.6118936391883318 $210 $353 forward 7 unknown #
vertex $-1 $293 $354 #
straight-curve $-1 -66.829432050538657 -29.865721771564615 0 0 0 -1 I I #
edge $-1 $291 -29.865721771564615 $295 29.865721771564615 $289 $355 forward 7 unknown #
straight-curve $-1 0 -29.865721771564615 -6.6118936391883318 -1 0 0 I I #
vertex $-1 $203 $356 #
straight-curve $-1 0 29.865721771564615 -6.6118936391883318 1 0 0 I I #
point $-1 66.829432050538657 29.865721771564615 -6.6118936391883318 #
point $-1 66.829432050538657 -29.865721771564615 -6.6118936391883318 #
straight-curve $-1 -66.829432050538657 0 6.6118936391883318 0 -1 0 I I #
point $-1 -66.829432050538657 29.865721771564615 6.6118936391883318 #
point $-1 -66.829432050538657 -29.865721771564615 6.6118936391883318 #
straight-curve $-1 66.829432050538657 -29.865721771564615 0 0 0 -1 I I #
straight-curve $-1 66.829432050538657 29.865721771564615 0 0 0 -1 I I #
plane-surface $-1 0 -29.865721771564615 0 0 1 0 0 0 1 forward_v I I I I #
coedge $-1 $357 $223 $237 $319 reversed $140 $-1 #
coedge $-1 $223 $357 $310 $358 reversed $140 $-1 #
edge $-1 $311 -1.5 $308 1.5 $224 $359 forward 7 unknown #
vertex $-1 $225 $360 #
straight-curve $-1 -71.141675303185067 29.865721771564615 3.6118936391883318 1 0 0 I I #
coedge $-1 $314 $226 $306 $358 forward $221 $-1 #
vertex $-1 $227 $361 #
straight-curve $-1 0 29.865721771564615 6.6118936391883318 -1 0 0 I I #
point $-1 -66.829432050538657 29.865721771564615 6.6118936391883318 #
coedge $-1 $230 $310 $232 $317 forward $221 $-1 #
straight-curve $-1 -66.829432050538657 0 6.6118936391883318 0 1 0 I I #
coedge $-1 $233 $232 $357 $362 forward $234 $-1 #
edge $-1 $363 -75.453918555831478 $235 -66.829432050538657 $232 $364 forward 7 unknown #
point $-1 -66.829432050538657 -29.865721771564615 6.6118936391883318 #
edge $-1 $320 -29.865721771564615 $308 29.865721771564615 $305 $365 forward 7 unknown #
vertex $-1 $319 $366 #
straight-curve $-1 -71.141675303185067 -29.865721771564615 3.6118936391883318 -1 0 0 I I #
plane-surface $-1 0 29.865721771564615 0 0 -1 0 0 0 -1 forward_v I I I I #
coedge $-1 $324 $327 $326 $367 forward $242 $-1 #
coedge $-1 $368 $323 $244 $325 reversed $242 $-1 #
edge $-1 $336 -29.865721771564615 $338 29.865721771564615 $324 $369 forward 7 unknown #
coedge $-1 $246 $245 $323 $367 reversed $91 $-1 #
coedge $-1 $323 $368 $247 $328 reversed $242 $-1 #
edge $-1 $329 -29.865721771564615 $332 29.865721771564615 $327 $370 forward 7 unknown #
vertex $-1 $328 $371 #
straight-curve $-1 71.141675303185053 -29.865721771564615 6.6118936391883318 1 0 0 I I #
coedge $-1 $255 $249 $368 $372 forward $256 $-1 #
vertex $-1 $328 $373 #
straight-curve $-1 0 29.865721771564615 6.6118936391883318 -1 0 0 I I #
point $-1 66.829432050538657 29.865721771564615 6.6118936391883318 #
point $-1 66.829432050538657 -29.865721771564615 6.6118936391883318 #
vertex $-1 $325 $374 #
straight-curve $-1 71.141675303185053 29.865721771564615 3.6118936391883318 1 0 0 I I #
vertex $-1 $367 $375 #
straight-curve $-1 71.141675303185053 -29.865721771564615 3.6118936391883318 -1 0 0 I I #
edge $-1 $341 51.585941670392245 $344 55.151309341384334 $263 $376 forward 7 unknown #
vertex $-1 $277 $377 #
straight-curve $-1 -30.579477292136602 -50.347064814731809 6.611893639188331 0 -1 0 I I #
edge $-1 $344 -19.546087419780903 $274 -2.5206923249304936 $273 $378 forward 7 unknown #
vertex $-1 $343 $379 #
straight-curve $-1 -30.579477292136602 -29.865721771564608 3.0465259681962493 0 0.84804809178421925 0.52991927123019833 I I #
point $-1 -30.579477292136602 -24.159940883704579 6.6118936391883318 #
point $-1 -13.554082197286192 -29.865721771564615 3.0465259681962449 #
straight-curve $-1 71.141675303185053 -29.865721771564615 6.6118936391883318 1 0 0 I I #
vertex $-1 $280 $380 #
point $-1 -24.215078693607914 -24.531087753737054 0.85758994307524106 #
vertex $-1 $284 $381 #
point $-1 -16.918480795814887 -24.531087753737054 0.85758994307524106 #
straight-curve $-1 -66.829432050538657 29.865721771564615 0 0 0 -1 I I #
point $-1 -66.829432050538657 -29.865721771564615 -6.6118936391883318 #
straight-curve $-1 -66.829432050538657 0 -6.6118936391883318 0 1 0 I I #
point $-1 -66.829432050538657 29.865721771564615 -6.6118936391883318 #
coedge $-1 $306 $305 $316 $362 reversed $140 $-1 #
edge $-1 $311 -29.865721771564615 $363 29.865721771564615 $306 $382 forward 7 unknown #
straight-curve $-1 -75.453918555831478 29.865721771564615 5.1118936391883318 0 0 -1 I I #
point $-1 -75.453918555831478 29.865721771564615 3.6118936391883318 #
point $-1 -75.453918555831478 29.865721771564615 6.6118936391883318 #
edge $-1 $363 -1.5 $320 1.5 $357 $383 forward 7 unknown #
vertex $-1 $358 $384 #
straight-curve $-1 0 -29.865721771564615 6.6118936391883318 1 0 0 I I #
straight-curve $-1 -75.453918555831478 0 3.6118936391883318 0 1 0 I I #
point $-1 -75.453918555831478 -29.865721771564615 3.6118936391883318 #
edge $-1 $329 -1.5 $338 1.5 $323 $385 forward 7 unknown #
coedge $-1 $327 $324 $331 $372 reversed $242 $-1 #
straight-curve $-1 75.453918555831464 0 3.6118936391883318 0 -1 0 I I #
straight-curve $-1 75.453918555831464 0 6.6118936391883318 0 1 0 I I #
point $-1 75.453918555831464 -29.865721771564615 6.6118936391883318 #
edge $-1 $332 -1.5 $336 1.5 $368 $386 forward 7 unknown #
point $-1 75.453918555831464 29.865721771564615 6.6118936391883318 #
point $-1 75.453918555831464 29.865721771564615 3.6118936391883318 #
point $-1 75.453918555831464 -29.865721771564615 3.6118936391883318 #
straight-curve $-1 -30.579477292136602 -29.865721771564615 58.197835309580576 0 0 -1 I I #
point $-1 -30.579477292136602 -29.865721771564615 6.6118936391883318 #
straight-curve $-1 -11.033389872355698 -29.865721771564615 3.046525968196244 1 0 0 I I #
point $-1 -30.579477292136602 -29.865721771564615 3.0465259681962449 #
point $-1 -25.715078693607914 -23.736208846891756 -0.41448219460108782 #
point $-1 -18.418480795814887 -23.736208846891756 -0.41448219460108782 #
straight-curve $-1 -75.453918555831478 0 6.6118936391883318 0 -1 0 I I #
straight-curve $-1 -75.453918555831478 -29.865721771564615 5.1118936391883318 0 0 -1 I I #
point $-1 -75.453918555831478 -29.865721771564615 6.6118936391883318 #
straight-curve $-1 75.453918555831464 -29.865721771564615 5.1118936391883318 0 0 -1 I I #
straight-curve $-1 75.453918555831464 29.865721771564615 5.1118936391883318 0 0 -1 I I #
End-of-ACIS-data 