500 0 8 0           
7 Unknown 11 ACIS 5.0 NT 24 Fri Mar 26 00:37:24 1999 
-1 9.9999999999999995e-007 1e-010 
body $-1 $8 $-1 $9 #
body $-1 $10 $-1 $11 #
body $-1 $12 $-1 $13 #
body $-1 $14 $-1 $15 #
body $-1 $16 $-1 $17 #
body $-1 $18 $-1 $19 #
body $-1 $20 $-1 $21 #
body $-1 $22 $-1 $23 #
lump $-1 $-1 $24 $0 #
transform $-1 1 0 0 0 1 0 0 0 1 65.640430921353797 37.707740206974051 13.696401330465521 1 rotate no_reflect no_shear #
lump $-1 $-1 $25 $1 #
transform $-1 1 0 0 0 1 0 0 0 1 65.640430921353797 37.707740206974051 13.696401330465521 1 rotate no_reflect no_shear #
lump $-1 $-1 $26 $2 #
transform $-1 1 0 0 0 1 0 0 0 1 65.640430921353797 37.707740206974051 13.696401330465521 1 rotate no_reflect no_shear #
lump $-1 $-1 $27 $3 #
transform $-1 1 0 0 0 1 0 0 0 1 65.640430921353797 37.707740206974051 13.696401330465521 1 rotate no_reflect no_shear #
lump $-1 $-1 $28 $4 #
transform $-1 1 0 0 0 1 0 0 0 1 65.640430921353797 37.707740206974051 13.696401330465521 1 rotate no_reflect no_shear #
lump $-1 $-1 $29 $5 #
transform $-1 1 0 0 0 1 0 0 0 1 65.640430921353797 37.707740206974051 13.696401330465521 1 rotate no_reflect no_shear #
lump $-1 $-1 $30 $6 #
transform $-1 1 0 0 0 1 0 0 0 1 65.640430921353797 37.707740206974051 13.696401330465521 1 rotate no_reflect no_shear #
lump $-1 $-1 $31 $7 #
transform $-1 1 0 0 0 1 0 0 0 1 65.640430921353797 37.707740206974051 13.696401330465521 1 rotate no_reflect no_shear #
shell $-1 $-1 $-1 $32 $-1 $8 #
shell $-1 $-1 $-1 $33 $-1 $10 #
shell $-1 $-1 $-1 $34 $-1 $12 #
shell $-1 $-1 $-1 $35 $-1 $14 #
shell $-1 $-1 $-1 $36 $-1 $16 #
shell $-1 $-1 $-1 $37 $-1 $18 #
shell $-1 $-1 $-1 $38 $-1 $20 #
shell $-1 $-1 $-1 $39 $-1 $22 #
face $-1 $40 $41 $24 $-1 $42 forward single #
face $-1 $43 $44 $25 $-1 $45 forward single #
face $-1 $46 $47 $26 $-1 $48 forward single #
face $-1 $49 $50 $27 $-1 $51 reversed single #
face $-1 $52 $53 $28 $-1 $54 forward single #
face $-1 $55 $56 $29 $-1 $57 forward single #
face $-1 $58 $59 $30 $-1 $60 reversed single #
face $-1 $61 $62 $31 $-1 $63 forward single #
face $-1 $64 $65 $24 $-1 $66 reversed single #
loop $-1 $-1 $67 $32 #
plane-surface $-1 0 0 13.696401330465521 0 0 1 1 0 0 forward_v I I I I #
face $-1 $68 $69 $25 $-1 $70 reversed single #
loop $-1 $-1 $71 $33 #
plane-surface $-1 -65.640430921353797 0 0 1 0 0 0 0 -1 forward_v I I I I #
face $-1 $72 $73 $26 $-1 $74 reversed single #
loop $-1 $-1 $75 $34 #
plane-surface $-1 65.640430921353797 0 0 -1 0 0 0 0 1 forward_v I I I I #
face $-1 $76 $77 $27 $-1 $78 reversed single #
loop $-1 $-1 $79 $35 #
plane-surface $-1 -32.037296407253265 74.653734809340776 148.80665547789258 1 0 0 0 -0.69465837861970381 -0.71933979245794832 forward_v I I I I #
face $-1 $80 $81 $28 $-1 $82 forward single #
loop $-1 $83 $84 $36 #
cone-surface $-1 -26.994473243889828 30.165308070090848 6.3095543896381887 0 -0.69465837861970381 -0.71933979245794832 2 0 0 1 I I 0 1 2 forward I I I I #
face $-1 $85 $86 $29 $-1 $87 forward single #
loop $-1 $88 $89 $37 #
cone-surface $-1 -19.430238498844673 30.165308070090848 6.3095543896381887 0 -0.69465837861970381 -0.71933979245794832 2 0 0 1 I I 0 1 2 forward I I I I #
face $-1 $90 $91 $30 $-1 $92 reversed single #
loop $-1 $-1 $93 $38 #
plane-surface $-1 16.884755122344949 -107.27599884113403 113.84932309104373 -1 0 0 0 -0.52991927123019833 0.84804809178421925 forward_v I I I I #
face $-1 $94 $95 $31 $-1 $96 forward single #
loop $-1 $97 $98 $39 #
cone-surface $-1 1.1577752230897147 -26.588236512896952 4.6275187090805074 0 0.52991927123019833 -0.84804809178421925 4 0 0 1 I I 0 1 4 forward I I I I #
face $-1 $99 $100 $24 $-1 $101 reversed single #
loop $-1 $-1 $102 $40 #
plane-surface $-1 0 0 -13.696401330465521 0 0 1 1 0 0 forward_v I I I I #
coedge $-1 $103 $104 $105 $106 forward $41 $-1 #
face $-1 $107 $108 $25 $-1 $109 forward single #
loop $-1 $-1 $110 $43 #
plane-surface $-1 0 37.707740206974051 0 0 -1 0 0 0 -1 forward_v I I I I #
coedge $-1 $111 $112 $113 $114 forward $44 $-1 #
face $-1 $115 $116 $26 $-1 $117 forward single #
loop $-1 $-1 $118 $46 #
plane-surface $-1 0 37.707740206974051 0 0 -1 0 0 0 -1 forward_v I I I I #
coedge $-1 $119 $120 $121 $122 forward $47 $-1 #
face $-1 $123 $124 $27 $-1 $125 reversed single #
loop $-1 $-1 $126 $49 #
plane-surface $-1 -23.212355871367251 -16.541615822111822 54.371107566258715 0 0.69465837861970381 0.71933979245794832 1 0 0 forward_v I I I I #
coedge $-1 $127 $128 $129 $130 reversed $50 $-1 #
face $-1 $-1 $131 $28 $-1 $132 forward single #
loop $-1 $133 $134 $52 #
cone-surface $-1 -26.994473243889828 27.99295039141532 4.0600122120459172 0 -0.69465837861970381 -0.71933979245794832 1 0 0 1 I I -0.70710678118654746 0.70710678118654746 1 forward I I I I #
loop $-1 $-1 $135 $36 #
coedge $-1 $84 $84 $136 $137 reversed $53 $-1 #
face $-1 $-1 $138 $29 $-1 $139 forward single #
loop $-1 $140 $141 $55 #
cone-surface $-1 -19.430238498844673 27.99295039141532 4.0600122120459172 0 -0.69465837861970381 -0.71933979245794832 1 0 0 1 I I -0.70710678118654746 0.70710678118654746 1 forward I I I I #
loop $-1 $-1 $142 $37 #
coedge $-1 $89 $89 $143 $144 reversed $56 $-1 #
face $-1 $145 $146 $30 $-1 $147 reversed single #
loop $-1 $-1 $148 $58 #
plane-surface $-1 1.1577752230897005 -37.707740206974066 2.5168387175478273 0 -0.52991927123019833 0.84804809178421925 1 0 0 forward_v I I I I #
coedge $-1 $149 $150 $151 $152 reversed $59 $-1 #
face $-1 $-1 $153 $31 $-1 $154 forward single #
loop $-1 $155 $156 $61 #
cone-surface $-1 1.1577752230897147 -23.354414146638508 -0.5476787894140891 0 0.52991927123019833 -0.84804809178421925 2 0 0 1 I I -0.70710678118654746 0.70710678118654746 2 forward I I I I #
loop $-1 $-1 $157 $39 #
coedge $-1 $98 $98 $158 $159 reversed $62 $-1 #
face $-1 $160 $161 $24 $-1 $162 reversed single #
loop $-1 $-1 $163 $64 #
plane-surface $-1 0 -37.707740206974051 0 0 1 0 0 0 1 forward_v I I I I #
coedge $-1 $164 $165 $166 $167 forward $65 $-1 #
coedge $-1 $168 $67 $169 $170 forward $41 $-1 #
coedge $-1 $67 $168 $171 $172 forward $41 $-1 #
coedge $-1 $173 $174 $67 $106 reversed $175 $-1 #
edge $-1 $176 -37.707740206974051 $177 37.707740206974051 $105 $178 forward 7 unknown #
face $-1 $179 $180 $25 $-1 $181 reversed single #
loop $-1 $-1 $113 $68 #
plane-surface $-1 -72.178965094028129 0 -10.428275367076205 0 0 1 1 0 0 forward_v I I I I #
coedge $-1 $182 $183 $112 $184 forward $69 $-1 #
coedge $-1 $185 $71 $186 $187 reversed $44 $-1 #
coedge $-1 $71 $185 $110 $184 reversed $44 $-1 #
coedge $-1 $188 $189 $71 $114 reversed $108 $-1 #
edge $-1 $190 -37.707740206974051 $191 37.707740206974051 $113 $192 forward 7 unknown #
face $-1 $193 $194 $26 $-1 $195 reversed single #
loop $-1 $-1 $196 $72 #
plane-surface $-1 72.178965094028129 0 -10.428275367076205 0 0 1 1 0 0 forward_v I I I I #
coedge $-1 $197 $198 $119 $199 forward $73 $-1 #
coedge $-1 $200 $75 $118 $199 reversed $47 $-1 #
coedge $-1 $75 $200 $201 $202 reversed $47 $-1 #
coedge $-1 $203 $204 $75 $122 reversed $116 $-1 #
edge $-1 $205 -37.707740206974051 $206 37.707740206974051 $121 $207 forward 7 unknown #
face $-1 $208 $209 $27 $-1 $210 reversed single #
loop $-1 $-1 $211 $76 #
plane-surface $-1 -14.387415335481236 74.653734809340776 148.80665547789258 -1 0 0 0 0.69465837861970381 0.71933979245794832 forward_v I I I I #
coedge $-1 $212 $213 $214 $215 reversed $77 $-1 #
coedge $-1 $128 $79 $216 $217 reversed $50 $-1 #
coedge $-1 $79 $127 $212 $218 reversed $50 $-1 #
coedge $-1 $214 $219 $79 $130 forward $220 $-1 #
edge $-1 $221 -0.3808728023036636 $222 11.748592871351079 $129 $223 forward 7 unknown #
loop $-1 $-1 $136 $80 #
plane-surface $-1 -23.212355871367251 -16.541615822111822 54.371107566258715 0 0.69465837861970381 0.71933979245794832 1 0 0 forward_v I I I I #
loop $-1 $-1 $224 $52 #
coedge $-1 $134 $134 $135 $225 reversed $81 $-1 #
coedge $-1 $135 $135 $134 $225 forward $83 $-1 #
coedge $-1 $136 $136 $84 $137 forward $131 $-1 #
edge $-1 $226 4.8545158612099909e-016 $226 6.2831853071796013 $136 $227 forward 7 unknown #
loop $-1 $-1 $143 $85 #
plane-surface $-1 -23.212355871367251 -16.541615822111822 54.371107566258715 0 0.69465837861970381 0.71933979245794832 1 0 0 forward_v I I I I #
loop $-1 $-1 $228 $55 #
coedge $-1 $141 $141 $142 $229 reversed $86 $-1 #
coedge $-1 $142 $142 $141 $229 forward $88 $-1 #
coedge $-1 $143 $143 $89 $144 forward $138 $-1 #
edge $-1 $230 4.8545158612099909e-016 $230 6.2831853071796013 $143 $231 forward 7 unknown #
face $-1 $232 $233 $30 $-1 $234 forward single #
loop $-1 $-1 $235 $90 #
plane-surface $-1 -14.569204676165548 -107.27599884113403 113.84932309104373 1 0 0 0 0.52991927123019833 -0.84804809178421925 forward_v I I I I #
coedge $-1 $236 $237 $238 $239 reversed $91 $-1 #
coedge $-1 $150 $93 $240 $241 reversed $59 $-1 #
coedge $-1 $93 $149 $236 $242 reversed $59 $-1 #
coedge $-1 $238 $243 $93 $152 forward $233 $-1 #
edge $-1 $244 15.930259213592961 $245 33.821298954151018 $151 $246 forward 7 unknown #
loop $-1 $-1 $158 $94 #
plane-surface $-1 1.1577752230897005 -37.707740206974066 2.5168387175478273 0 -0.52991927123019833 0.84804809178421925 1 0 0 forward_v I I I I #
loop $-1 $-1 $247 $61 #
coedge $-1 $156 $156 $157 $248 reversed $95 $-1 #
coedge $-1 $157 $157 $156 $248 forward $97 $-1 #
coedge $-1 $158 $158 $98 $159 forward $153 $-1 #
edge $-1 $249 6.5955775151306058e-016 $249 6.2831853071796013 $158 $250 forward 7 unknown #
face $-1 $251 $252 $24 $-1 $253 reversed single #
loop $-1 $-1 $254 $99 #
plane-surface $-1 -65.640430921353797 0 0 1 0 0 0 0 -1 forward_v I I I I #
coedge $-1 $255 $171 $256 $257 forward $100 $-1 #
coedge $-1 $258 $102 $255 $259 forward $65 $-1 #
coedge $-1 $102 $258 $260 $261 forward $65 $-1 #
coedge $-1 $174 $173 $102 $167 reversed $175 $-1 #
edge $-1 $262 -37.707740206974051 $263 37.707740206974051 $166 $264 forward 7 unknown #
coedge $-1 $104 $103 $265 $266 forward $41 $-1 #
coedge $-1 $267 $268 $103 $170 reversed $252 $-1 #
edge $-1 $177 -65.640430921353797 $269 65.640430921353797 $169 $270 forward 7 unknown #
coedge $-1 $163 $271 $104 $172 reversed $100 $-1 #
edge $-1 $272 -65.640430921353797 $176 65.640430921353797 $171 $273 forward 7 unknown #
coedge $-1 $166 $105 $271 $274 forward $175 $-1 #
coedge $-1 $105 $166 $267 $275 reversed $175 $-1 #
loop $-1 $-1 $173 $251 #
vertex $-1 $106 $276 #
vertex $-1 $106 $277 #
straight-curve $-1 65.640430921353797 0 13.696401330465521 0 1 0 I I #
face $-1 $278 $279 $25 $-1 $280 reversed single #
loop $-1 $-1 $281 $107 #
plane-surface $-1 -78.717499266702461 0 -12.062338348770863 1 0 0 0 0 -1 forward_v I I I I #
coedge $-1 $282 $110 $283 $284 reversed $69 $-1 #
coedge $-1 $110 $282 $188 $285 reversed $69 $-1 #
edge $-1 $190 10.428275367076205 $286 13.696401330465521 $110 $287 forward 7 unknown #
coedge $-1 $112 $111 $288 $289 reversed $44 $-1 #
coedge $-1 $290 $291 $111 $187 forward $292 $-1 #
edge $-1 $293 -13.696401330465521 $191 -10.428275367076205 $186 $294 forward 7 unknown #
coedge $-1 $295 $113 $183 $285 forward $108 $-1 #
coedge $-1 $113 $295 $290 $296 forward $108 $-1 #
vertex $-1 $184 $297 #
vertex $-1 $296 $298 #
straight-curve $-1 -65.640430921353797 0 -10.428275367076205 0 -1 0 I I #
face $-1 $299 $300 $26 $-1 $301 reversed single #
loop $-1 $-1 $302 $115 #
plane-surface $-1 78.717499266702461 0 -12.062338348770863 -1 0 0 0 0 1 forward_v I I I I #
coedge $-1 $204 $203 $303 $304 forward $116 $-1 #
coedge $-1 $305 $118 $204 $306 reversed $73 $-1 #
coedge $-1 $118 $305 $307 $308 reversed $73 $-1 #
edge $-1 $309 -13.696401330465521 $206 -10.428275367076205 $118 $310 forward 7 unknown #
coedge $-1 $120 $119 $311 $312 reversed $47 $-1 #
coedge $-1 $313 $314 $120 $202 forward $315 $-1 #
edge $-1 $205 10.428275367076205 $316 13.696401330465521 $201 $317 forward 7 unknown #
coedge $-1 $196 $121 $314 $318 forward $116 $-1 #
coedge $-1 $121 $196 $197 $306 forward $116 $-1 #
vertex $-1 $202 $319 #
vertex $-1 $306 $320 #
straight-curve $-1 65.640430921353797 0 -10.428275367076205 0 1 0 I I #
face $-1 $-1 $220 $27 $-1 $321 forward single #
loop $-1 $-1 $322 $123 #
plane-surface $-1 0 37.707740206974051 0 0 -1 0 0 0 -1 forward_v I I I I #
coedge $-1 $323 $324 $325 $326 reversed $124 $-1 #
coedge $-1 $327 $126 $128 $218 forward $77 $-1 #
coedge $-1 $126 $327 $323 $328 forward $77 $-1 #
coedge $-1 $325 $129 $126 $215 forward $220 $-1 #
edge $-1 $222 -20.43111847156964 $329 -2.781237399797611 $214 $330 forward 7 unknown #
coedge $-1 $331 $332 $127 $217 forward $209 $-1 #
edge $-1 $333 -72.420215519866773 $221 -60.706926408480768 $216 $334 forward 7 unknown #
edge $-1 $222 58.553538671216231 $333 75.415480413948075 $128 $335 forward 7 unknown #
coedge $-1 $129 $325 $331 $336 forward $220 $-1 #
loop $-1 $-1 $325 $208 #
vertex $-1 $217 $337 #
vertex $-1 $130 $338 #
straight-curve $-1 -32.037296407253265 37.326867404670388 13.69640133046552 0 -1 0 I I #
coedge $-1 $224 $224 $-1 $339 reversed $133 $-1 #
edge $-1 $340 0 $340 6.2831853071796004 $134 $341 forward 7 unknown #
vertex $-1 $137 $342 #
ellipse-curve $-1 -26.994473243889828 31.643007370146684 7.8397567747725248 0 0.69465837861970381 0.71933979245794832 2 0 0 1 I I #
coedge $-1 $228 $228 $-1 $343 reversed $140 $-1 #
edge $-1 $344 0 $344 6.2831853071796004 $141 $345 forward 7 unknown #
vertex $-1 $144 $346 #
ellipse-curve $-1 -19.430238498844673 31.643007370146684 7.8397567747725248 0 0.69465837861970381 0.71933979245794832 2 0 0 1 I I #
face $-1 $-1 $347 $30 $-1 $348 reversed single #
loop $-1 $-1 $151 $145 #
plane-surface $-1 0 0 13.696401330465521 0 0 1 1 0 0 forward_v I I I I #
coedge $-1 $349 $350 $351 $352 reversed $146 $-1 #
coedge $-1 $353 $148 $150 $242 forward $91 $-1 #
coedge $-1 $148 $353 $349 $354 forward $91 $-1 #
coedge $-1 $351 $151 $148 $239 forward $233 $-1 #
edge $-1 $245 -16.305867510800098 $355 15.148092287710398 $238 $356 forward 7 unknown #
coedge $-1 $357 $358 $149 $241 forward $347 $-1 #
edge $-1 $359 -54.40782282797403 $244 -43.228260215056345 $240 $360 forward 7 unknown #
edge $-1 $245 -21.096727784525626 $359 -1.675811683274863e-014 $150 $361 forward 7 unknown #
coedge $-1 $151 $351 $357 $362 forward $233 $-1 #
vertex $-1 $241 $363 #
vertex $-1 $152 $364 #
straight-curve $-1 16.884755122344949 -53.637999420567013 13.69640133046552 0 1 0 I I #
coedge $-1 $247 $247 $-1 $365 reversed $155 $-1 #
edge $-1 $366 0 $366 6.2831853071796004 $156 $367 forward 7 unknown #
vertex $-1 $159 $368 #
ellipse-curve $-1 1.1577752230897147 -28.762220336695012 8.1066200240066841 0 -0.52991927123019833 0.84804809178421925 4 0 0 1 I I #
face $-1 $-1 $175 $24 $-1 $369 reversed single #
loop $-1 $-1 $267 $160 #
plane-surface $-1 0 37.707740206974051 0 0 -1 0 0 0 -1 forward_v I I I I #
coedge $-1 $370 $265 $268 $371 forward $161 $-1 #
coedge $-1 $271 $163 $164 $259 reversed $100 $-1 #
coedge $-1 $265 $370 $163 $257 reversed $161 $-1 #
edge $-1 $272 -13.696401330465521 $372 13.696401330465521 $256 $373 forward 7 unknown #
coedge $-1 $165 $164 $370 $374 forward $65 $-1 #
edge $-1 $263 -65.640430921353797 $372 65.640430921353797 $255 $375 forward 7 unknown #
coedge $-1 $268 $267 $165 $261 reversed $252 $-1 #
edge $-1 $376 -65.640430921353797 $262 65.640430921353797 $260 $377 forward 7 unknown #
vertex $-1 $167 $378 #
vertex $-1 $274 $379 #
straight-curve $-1 65.640430921353797 0 -13.696401330465521 0 -1 0 I I #
coedge $-1 $254 $256 $168 $266 reversed $161 $-1 #
edge $-1 $269 -37.707740206974051 $272 37.707740206974051 $265 $380 forward 7 unknown #
coedge $-1 $260 $169 $174 $275 forward $252 $-1 #
coedge $-1 $169 $260 $254 $371 reversed $252 $-1 #
vertex $-1 $170 $381 #
straight-curve $-1 0 37.707740206974051 13.696401330465521 -1 0 0 I I #
coedge $-1 $171 $255 $173 $274 reversed $100 $-1 #
vertex $-1 $266 $382 #
straight-curve $-1 0 -37.707740206974051 13.696401330465521 1 0 0 I I #
edge $-1 $176 -13.696401330465521 $263 13.696401330465521 $173 $383 forward 7 unknown #
edge $-1 $177 -13.696401330465521 $262 13.696401330465521 $174 $384 forward 7 unknown #
point $-1 65.640430921353797 -37.707740206974051 13.696401330465521 #
point $-1 65.640430921353797 37.707740206974051 13.696401330465521 #
face $-1 $-1 $292 $25 $-1 $385 reversed single #
loop $-1 $-1 $288 $179 #
plane-surface $-1 0 0 -13.696401330465521 0 0 1 1 0 0 forward_v I I I I #
coedge $-1 $386 $387 $282 $388 forward $180 $-1 #
coedge $-1 $183 $182 $281 $388 reversed $69 $-1 #
coedge $-1 $288 $389 $182 $284 forward $279 $-1 #
edge $-1 $390 -78.717499266702461 $286 -65.640430921353797 $182 $391 forward 7 unknown #
edge $-1 $190 -6.538534172674332 $392 6.538534172674332 $183 $393 forward 7 unknown #
vertex $-1 $184 $394 #
straight-curve $-1 -65.640430921353797 37.707740206974051 0 0 0 -1 I I #
coedge $-1 $395 $283 $185 $289 forward $279 $-1 #
edge $-1 $286 -37.707740206974051 $293 37.707740206974051 $288 $396 forward 7 unknown #
coedge $-1 $397 $186 $189 $296 reversed $292 $-1 #
coedge $-1 $186 $397 $395 $398 reversed $292 $-1 #
loop $-1 $-1 $186 $278 #
vertex $-1 $398 $399 #
straight-curve $-1 -65.640430921353797 -37.707740206974051 0 0 0 1 I I #
coedge $-1 $189 $188 $387 $400 forward $108 $-1 #
edge $-1 $401 -6.538534172674332 $191 6.538534172674332 $290 $402 forward 7 unknown #
point $-1 -65.640430921353797 37.707740206974051 -10.428275367076205 #
point $-1 -65.640430921353797 -37.707740206974051 -10.428275367076205 #
face $-1 $-1 $315 $26 $-1 $403 reversed single #
loop $-1 $-1 $311 $193 #
plane-surface $-1 0 0 -13.696401330465521 0 0 1 1 0 0 forward_v I I I I #
coedge $-1 $404 $303 $405 $406 forward $194 $-1 #
coedge $-1 $302 $407 $196 $304 reversed $194 $-1 #
edge $-1 $408 -37.707740206974051 $409 37.707740206974051 $303 $410 forward 7 unknown #
coedge $-1 $198 $197 $407 $411 forward $73 $-1 #
edge $-1 $409 -6.538534172674332 $206 6.538534172674332 $197 $412 forward 7 unknown #
coedge $-1 $413 $311 $198 $308 forward $300 $-1 #
edge $-1 $309 -6.538534172674332 $414 6.538534172674332 $198 $415 forward 7 unknown #
vertex $-1 $308 $416 #
straight-curve $-1 65.640430921353797 37.707740206974051 0 0 0 1 I I #
coedge $-1 $307 $417 $200 $312 forward $300 $-1 #
edge $-1 $316 -37.707740206974051 $309 37.707740206974051 $311 $418 forward 7 unknown #
coedge $-1 $405 $201 $417 $419 reversed $315 $-1 #
coedge $-1 $201 $405 $203 $318 reversed $315 $-1 #
loop $-1 $-1 $201 $299 #
vertex $-1 $202 $420 #
straight-curve $-1 65.640430921353797 -37.707740206974051 0 0 0 -1 I I #
edge $-1 $205 -6.538534172674332 $408 6.538534172674332 $314 $421 forward 7 unknown #
point $-1 65.640430921353797 -37.707740206974051 -10.428275367076205 #
point $-1 65.640430921353797 37.707740206974051 -10.428275367076205 #
plane-surface $-1 0 0 13.696401330465521 0 0 1 1 0 0 forward_v I I I I #
coedge $-1 $332 $331 $324 $422 forward $209 $-1 #
coedge $-1 $324 $211 $213 $328 reversed $124 $-1 #
coedge $-1 $211 $323 $322 $422 reversed $124 $-1 #
coedge $-1 $219 $214 $211 $326 forward $220 $-1 #
edge $-1 $329 -11.748592871351079 $423 0.3808728023036636 $325 $424 forward 7 unknown #
coedge $-1 $213 $212 $332 $425 reversed $77 $-1 #
edge $-1 $426 -75.415480413948075 $329 -58.553538671216231 $323 $427 forward 7 unknown #
vertex $-1 $215 $428 #
straight-curve $-1 -11.606177935683625 25.578274533319309 13.69640133046552 1 0 0 I I #
coedge $-1 $322 $216 $219 $336 reversed $209 $-1 #
coedge $-1 $216 $322 $327 $425 forward $209 $-1 #
vertex $-1 $217 $429 #
straight-curve $-1 -32.037296407253265 37.707740206974051 74.403327738946288 0 0 1 I I #
straight-curve $-1 -32.037296407253265 -16.541615822111822 54.371107566258715 0 0.71933979245794832 -0.69465837861970381 I I #
edge $-1 $423 14.387415335481236 $221 32.037296407253265 $331 $430 forward 7 unknown #
point $-1 -32.037296407253265 37.707740206974051 13.696401330465521 #
point $-1 -32.037296407253265 25.578274533319309 13.69640133046552 #
edge $-1 $431 1 $431 0 $224 $-1 forward 7 unknown #
vertex $-1 $225 $432 #
ellipse-curve $-1 -26.994473243889828 28.687608770035023 4.7793520045038651 0 0.69465837861970381 0.71933979245794832 2 0 0 1 I I #
point $-1 -24.994473243889828 31.643007370146673 7.8397567747725123 #
edge $-1 $433 1 $433 0 $228 $-1 forward 7 unknown #
vertex $-1 $229 $434 #
ellipse-curve $-1 -19.430238498844673 28.687608770035023 4.7793520045038651 0 0.69465837861970381 0.71933979245794832 2 0 0 1 I I #
point $-1 -17.430238498844673 31.643007370146673 7.8397567747725123 #
loop $-1 $-1 $240 $232 #
plane-surface $-1 0 -37.707740206974051 0 0 1 0 0 0 1 forward_v I I I I #
coedge $-1 $350 $235 $237 $354 reversed $146 $-1 #
coedge $-1 $235 $349 $435 $436 reversed $146 $-1 #
coedge $-1 $243 $238 $235 $352 forward $233 $-1 #
edge $-1 $355 -33.821298954151018 $437 -15.930259213592961 $351 $438 forward 7 unknown #
coedge $-1 $237 $236 $358 $439 reversed $91 $-1 #
edge $-1 $440 1.675811683274863e-014 $355 21.096727784525626 $349 $441 forward 7 unknown #
vertex $-1 $239 $442 #
straight-curve $-1 0.57888761154485024 -19.816700466415991 13.696401330465521 -1 0 0 I I #
coedge $-1 $435 $240 $243 $362 reversed $347 $-1 #
coedge $-1 $240 $435 $353 $439 forward $347 $-1 #
vertex $-1 $241 $443 #
straight-curve $-1 16.884755122344949 -37.707740206974051 56.924661545521865 0 0 1 I I #
straight-curve $-1 16.884755122344949 -37.707740206974066 2.5168387175478273 0 -0.84804809178421925 -0.52991927123019833 I I #
edge $-1 $437 -14.569204676165548 $244 16.884755122344949 $357 $444 forward 7 unknown #
point $-1 16.884755122344949 -37.707740206974051 13.696401330465521 #
point $-1 16.884755122344949 -19.816700466415991 13.696401330465521 #
edge $-1 $445 1 $445 0 $247 $-1 forward 7 unknown #
vertex $-1 $248 $446 #
ellipse-curve $-1 1.1577752230897147 -24.414252689098905 1.1484173941543494 0 -0.52991927123019833 0.84804809178421925 4 0 0 1 I I #
point $-1 5.1577752230897147 -28.762220336694998 8.1066200240066664 #
plane-surface $-1 65.640430921353797 0 0 -1 0 0 0 0 1 forward_v I I I I #
coedge $-1 $256 $254 $258 $374 reversed $161 $-1 #
edge $-1 $269 -13.696401330465521 $376 13.696401330465521 $268 $447 forward 7 unknown #
vertex $-1 $374 $448 #
straight-curve $-1 -65.640430921353797 -37.707740206974051 0 0 0 -1 I I #
edge $-1 $372 -37.707740206974051 $376 37.707740206974051 $370 $449 forward 7 unknown #
straight-curve $-1 0 -37.707740206974051 -13.696401330465521 -1 0 0 I I #
vertex $-1 $261 $450 #
straight-curve $-1 0 37.707740206974051 -13.696401330465521 1 0 0 I I #
point $-1 65.640430921353797 37.707740206974051 -13.696401330465521 #
point $-1 65.640430921353797 -37.707740206974051 -13.696401330465521 #
straight-curve $-1 -65.640430921353797 0 13.696401330465521 0 -1 0 I I #
point $-1 -65.640430921353797 37.707740206974051 13.696401330465521 #
point $-1 -65.640430921353797 -37.707740206974051 13.696401330465521 #
straight-curve $-1 65.640430921353797 -37.707740206974051 0 0 0 -1 I I #
straight-curve $-1 65.640430921353797 37.707740206974051 0 0 0 -1 I I #
plane-surface $-1 0 -37.707740206974051 0 0 1 0 0 0 1 forward_v I I I I #
coedge $-1 $451 $281 $389 $452 reversed $180 $-1 #
coedge $-1 $281 $451 $295 $400 reversed $180 $-1 #
edge $-1 $392 -1.6340629816946581 $390 1.6340629816946581 $282 $453 forward 7 unknown #
coedge $-1 $283 $395 $386 $452 forward $279 $-1 #
vertex $-1 $284 $454 #
straight-curve $-1 0 37.707740206974051 -13.696401330465521 1 0 0 I I #
vertex $-1 $285 $455 #
straight-curve $-1 -72.178965094028129 37.707740206974051 -10.428275367076205 -1 0 0 I I #
point $-1 -65.640430921353797 37.707740206974051 -13.696401330465521 #
coedge $-1 $389 $288 $291 $398 forward $279 $-1 #
straight-curve $-1 -65.640430921353797 0 -13.696401330465521 0 -1 0 I I #
coedge $-1 $291 $290 $451 $456 forward $292 $-1 #
edge $-1 $293 -6.538534172674332 $457 6.538534172674332 $291 $458 forward 7 unknown #
point $-1 -65.640430921353797 -37.707740206974051 -13.696401330465521 #
edge $-1 $392 -37.707740206974051 $401 37.707740206974051 $387 $459 forward 7 unknown #
vertex $-1 $400 $460 #
straight-curve $-1 -72.178965094028129 -37.707740206974051 -10.428275367076205 1 0 0 I I #
plane-surface $-1 0 -37.707740206974051 0 0 1 0 0 0 1 forward_v I I I I #
coedge $-1 $407 $302 $413 $461 reversed $194 $-1 #
coedge $-1 $314 $313 $302 $406 reversed $315 $-1 #
edge $-1 $408 -1.6340629816946581 $462 1.6340629816946581 $302 $463 forward 7 unknown #
coedge $-1 $303 $404 $305 $411 reversed $194 $-1 #
vertex $-1 $304 $464 #
vertex $-1 $304 $465 #
straight-curve $-1 78.717499266702461 0 -10.428275367076205 0 1 0 I I #
edge $-1 $409 -1.6340629816946581 $414 1.6340629816946581 $407 $466 forward 7 unknown #
straight-curve $-1 72.178965094028129 37.707740206974051 -10.428275367076205 -1 0 0 I I #
coedge $-1 $417 $307 $404 $461 forward $300 $-1 #
vertex $-1 $461 $467 #
straight-curve $-1 72.178965094028129 37.707740206974051 -13.696401330465521 1 0 0 I I #
point $-1 65.640430921353797 37.707740206974051 -13.696401330465521 #
coedge $-1 $311 $413 $313 $419 forward $300 $-1 #
straight-curve $-1 65.640430921353797 0 -13.696401330465521 0 1 0 I I #
edge $-1 $462 -6.538534172674332 $316 6.538534172674332 $313 $468 forward 7 unknown #
point $-1 65.640430921353797 -37.707740206974051 -13.696401330465521 #
straight-curve $-1 72.178965094028129 -37.707740206974051 -10.428275367076205 1 0 0 I I #
edge $-1 $423 60.706926408480768 $426 72.420215519866773 $322 $469 forward 7 unknown #
vertex $-1 $336 $470 #
straight-curve $-1 -14.387415335481236 37.326867404670388 13.69640133046552 0 1 0 I I #
edge $-1 $426 2.781237399797611 $333 20.43111847156964 $332 $471 forward 7 unknown #
vertex $-1 $425 $472 #
straight-curve $-1 -14.387415335481236 -16.541615822111822 54.371107566258715 0 -0.71933979245794832 0.69465837861970381 I I #
point $-1 -14.387415335481236 25.578274533319309 13.69640133046552 #
point $-1 -32.037296407253265 37.707740206974051 1.9831122190795156 #
straight-curve $-1 0 37.707740206974051 13.696401330465521 -1 0 0 I I #
vertex $-1 $339 $473 #
point $-1 -24.994473243889828 28.687608770035023 4.7793520045038651 #
vertex $-1 $343 $474 #
point $-1 -17.430238498844673 28.687608770035023 4.7793520045038651 #
coedge $-1 $358 $357 $350 $436 forward $347 $-1 #
edge $-1 $437 43.228260215056345 $440 54.40782282797403 $435 $475 forward 7 unknown #
vertex $-1 $362 $476 #
straight-curve $-1 -14.569204676165548 -53.637999420567013 13.69640133046552 0 -1 0 I I #
edge $-1 $440 -15.148092287710398 $359 16.305867510800098 $358 $477 forward 7 unknown #
vertex $-1 $439 $478 #
straight-curve $-1 -14.569204676165548 -37.707740206974066 2.5168387175478273 0 0.84804809178421925 0.52991927123019833 I I #
point $-1 -14.569204676165548 -19.816700466415991 13.696401330465521 #
point $-1 16.884755122344949 -37.707740206974051 2.5168387175478362 #
straight-curve $-1 0 -37.707740206974051 13.696401330465521 1 0 0 I I #
vertex $-1 $365 $479 #
point $-1 5.1577752230897147 -24.414252689098905 1.1484173941543494 #
straight-curve $-1 -65.640430921353797 37.707740206974051 0 0 0 -1 I I #
point $-1 -65.640430921353797 -37.707740206974051 -13.696401330465521 #
straight-curve $-1 -65.640430921353797 0 -13.696401330465521 0 1 0 I I #
point $-1 -65.640430921353797 37.707740206974051 -13.696401330465521 #
coedge $-1 $387 $386 $397 $456 reversed $180 $-1 #
edge $-1 $457 -37.707740206974051 $390 37.707740206974051 $386 $480 forward 7 unknown #
straight-curve $-1 -78.717499266702461 37.707740206974051 -12.062338348770863 0 0 -1 I I #
point $-1 -78.717499266702461 37.707740206974051 -13.696401330465521 #
point $-1 -78.717499266702461 37.707740206974051 -10.428275367076205 #
edge $-1 $401 -1.6340629816946581 $457 1.6340629816946581 $451 $481 forward 7 unknown #
vertex $-1 $452 $482 #
straight-curve $-1 -72.178965094028129 -37.707740206974051 -13.696401330465521 -1 0 0 I I #
straight-curve $-1 -78.717499266702461 0 -10.428275367076205 0 -1 0 I I #
point $-1 -78.717499266702461 -37.707740206974051 -10.428275367076205 #
edge $-1 $414 -37.707740206974051 $462 37.707740206974051 $404 $483 forward 7 unknown #
vertex $-1 $406 $484 #
straight-curve $-1 78.717499266702461 -37.707740206974051 -12.062338348770863 0 0 -1 I I #
point $-1 78.717499266702461 -37.707740206974051 -10.428275367076205 #
point $-1 78.717499266702461 37.707740206974051 -10.428275367076205 #
straight-curve $-1 78.717499266702461 37.707740206974051 -12.062338348770863 0 0 -1 I I #
point $-1 78.717499266702461 37.707740206974051 -13.696401330465521 #
straight-curve $-1 72.178965094028129 -37.707740206974051 -13.696401330465521 -1 0 0 I I #
straight-curve $-1 -14.387415335481236 37.707740206974051 74.403327738946288 0 0 -1 I I #
point $-1 -14.387415335481236 37.707740206974051 13.696401330465521 #
straight-curve $-1 -11.606177935683625 37.707740206974044 1.9831122190795227 -1 0 0 I I #
point $-1 -14.387415335481236 37.707740206974051 1.9831122190795156 #
point $-1 -26.994473243889828 27.298292012795617 3.3406724195879689 #
point $-1 -19.430238498844673 27.298292012795617 3.3406724195879689 #
straight-curve $-1 -14.569204676165548 -37.707740206974051 56.924661545521865 0 0 -1 I I #
point $-1 -14.569204676165548 -37.707740206974051 13.696401330465521 #
straight-curve $-1 0.57888761154485024 -37.707740206974051 2.5168387175478384 1 0 0 I I #
point $-1 -14.569204676165548 -37.707740206974051 2.5168387175478362 #
point $-1 1.1577752230897147 -22.29457560417811 -2.2437749729825276 #
straight-curve $-1 -78.717499266702461 0 -13.696401330465521 0 1 0 I I #
straight-curve $-1 -78.717499266702461 -37.707740206974051 -12.062338348770863 0 0 -1 I I #
point $-1 -78.717499266702461 -37.707740206974051 -13.696401330465521 #
straight-curve $-1 78.717499266702461 0 -13.696401330465521 0 -1 0 I I #
point $-1 78.717499266702461 -37.707740206974051 -13.696401330465521 #
End-of-ACIS-data 