500 0 7 0           
7 Unknown 11 ACIS 5.0 NT 24 Thu Mar 25 17:22:17 1999 
-1 9.9999999999999995e-007 1e-010 
body $-1 $7 $-1 $8 #
body $-1 $9 $-1 $10 #
body $-1 $11 $-1 $12 #
body $-1 $13 $-1 $14 #
body $-1 $15 $-1 $16 #
body $-1 $17 $-1 $18 #
body $-1 $19 $-1 $20 #
lump $-1 $-1 $21 $0 #
transform $-1 1 0 0 0 1 0 0 0 1 41.814020203253271 18.113751371108094 6.3763810103208538 1 rotate no_reflect no_shear #
lump $-1 $-1 $22 $1 #
transform $-1 1 0 0 0 1 0 0 0 1 41.814020203253271 18.113751371108094 6.3763810103208538 1 rotate no_reflect no_shear #
lump $-1 $-1 $23 $2 #
transform $-1 1 0 0 0 1 0 0 0 1 41.814020203253271 18.113751371108094 6.3763810103208538 1 rotate no_reflect no_shear #
lump $-1 $-1 $24 $3 #
transform $-1 1 0 0 0 1 0 0 0 1 41.814020203253271 18.113751371108094 6.3763810103208538 1 rotate no_reflect no_shear #
lump $-1 $-1 $25 $4 #
transform $-1 1 0 0 0 1 0 0 0 1 41.814020203253271 18.113751371108094 6.3763810103208538 1 rotate no_reflect no_shear #
lump $-1 $-1 $26 $5 #
transform $-1 1 0 0 0 1 0 0 0 1 41.814020203253271 18.113751371108094 6.3763810103208538 1 rotate no_reflect no_shear #
lump $-1 $-1 $27 $6 #
transform $-1 1 0 0 0 1 0 0 0 1 41.814020203253271 18.113751371108094 6.3763810103208538 1 rotate no_reflect no_shear #
shell $-1 $-1 $-1 $28 $-1 $7 #
shell $-1 $-1 $-1 $29 $-1 $9 #
shell $-1 $-1 $-1 $30 $-1 $11 #
shell $-1 $-1 $-1 $31 $-1 $13 #
shell $-1 $-1 $-1 $32 $-1 $15 #
shell $-1 $-1 $-1 $33 $-1 $17 #
shell $-1 $-1 $-1 $34 $-1 $19 #
face $-1 $35 $36 $21 $-1 $37 forward single #
face $-1 $38 $39 $22 $-1 $40 forward single #
face $-1 $41 $42 $23 $-1 $43 reversed single #
face $-1 $44 $45 $24 $-1 $46 forward single #
face $-1 $47 $48 $25 $-1 $49 forward single #
face $-1 $50 $51 $26 $-1 $52 reversed single #
face $-1 $53 $54 $27 $-1 $55 forward single #
face $-1 $56 $57 $21 $-1 $58 reversed single #
loop $-1 $-1 $59 $28 #
plane-surface $-1 0 0 6.3763810103208538 0 0 1 1 0 0 forward_v I I I I #
face $-1 $60 $61 $22 $-1 $62 reversed single #
loop $-1 $-1 $63 $29 #
plane-surface $-1 0 -15.974675685822596 5.8600677844880522 0 0 1 1 0 0 forward_v I I I I #
face $-1 $64 $65 $23 $-1 $66 reversed single #
loop $-1 $-1 $67 $30 #
plane-surface $-1 -26.690059622754177 -10.035262954491346 50.428441035081633 0.57357644374324357 0 0.81915203911291934 0.81915203911291934 0 -0.57357644374324357 forward_v I I I I #
face $-1 $68 $69 $24 $-1 $70 forward single #
loop $-1 $71 $72 $31 #
cone-surface $-1 38.468596728670825 -11.663978831368096 3.6336585255544147 -0.57357644374324357 0 -0.81915203911291934 0.40957601955645967 0 -0.28678822187162178 1 I I 0 1 0.5 forward I I I I #
face $-1 $73 $74 $25 $-1 $75 forward single #
loop $-1 $76 $77 $32 #
cone-surface $-1 38.468596728670825 -8.4065470776145954 3.6336585255544147 -0.57357644374324357 0 -0.81915203911291934 0.40957601955645967 0 -0.28678822187162178 1 I I 0 1 0.5 forward I I I I #
face $-1 $78 $79 $26 $-1 $80 reversed single #
loop $-1 $-1 $81 $33 #
plane-surface $-1 -101.97099878098678 -11.150443672428104 60.627032315275144 0 1 0 -0.71933980857756763 0 0.69465836192734942 forward_v I I I I #
face $-1 $82 $83 $27 $-1 $84 forward single #
loop $-1 $85 $86 $34 #
cone-surface $-1 -39.599133646850269 -7.6666639693846612 4.1079187018453132 0.71933980857756763 0 -0.69465836192734942 0.34732918096367471 0 0.35966990428878381 1 I I 0 1 0.5 forward I I I I #
face $-1 $87 $88 $21 $-1 $89 reversed single #
loop $-1 $-1 $90 $35 #
plane-surface $-1 0 0 -6.3763810103208538 0 0 1 1 0 0 forward_v I I I I #
coedge $-1 $91 $92 $93 $94 forward $36 $-1 #
face $-1 $95 $96 $22 $-1 $97 reversed single #
loop $-1 $-1 $98 $38 #
plane-surface $-1 0 -15.974675685822596 2.3521338900012232 0 0 1 1 0 0 forward_v I I I I #
coedge $-1 $99 $100 $101 $102 reversed $39 $-1 #
face $-1 $103 $104 $23 $-1 $105 reversed single #
loop $-1 $-1 $106 $41 #
plane-surface $-1 21.277014390826132 -6.2349259084455948 118.93252086108909 0 -1 0 -0.57357644374324357 0 -0.81915203911291934 forward_v I I I I #
coedge $-1 $107 $108 $109 $110 reversed $42 $-1 #
face $-1 $-1 $111 $24 $-1 $112 forward single #
loop $-1 $113 $114 $44 #
cone-surface $-1 37.775388801708111 -11.663978831368096 2.6436550254195073 -0.57357644374324357 0 -0.81915203911291934 0.20478800977822983 0 -0.14339411093581089 1 I I -0.70710678118654746 0.70710678118654746 0.25 forward I I I I #
loop $-1 $-1 $115 $31 #
coedge $-1 $72 $72 $116 $117 reversed $45 $-1 #
face $-1 $-1 $118 $25 $-1 $119 forward single #
loop $-1 $120 $121 $47 #
cone-surface $-1 37.775388801708111 -8.4065470776145954 2.6436550254195073 -0.57357644374324357 0 -0.81915203911291934 0.20478800977822983 0 -0.14339411093581089 1 I I -0.70710678118654746 0.70710678118654746 0.25 forward I I I I #
loop $-1 $-1 $122 $32 #
coedge $-1 $77 $77 $123 $124 reversed $48 $-1 #
face $-1 $125 $126 $26 $-1 $127 reversed single #
loop $-1 $-1 $128 $50 #
plane-surface $-1 -41.814020203253271 -7.6666639693846612 2.5341147552971179 -0.71933980857756763 0 0.69465836192734942 0.69465836192734942 0 0.71933980857756763 forward_v I I I I #
coedge $-1 $129 $130 $131 $132 reversed $51 $-1 #
face $-1 $-1 $133 $27 $-1 $134 forward single #
loop $-1 $135 $136 $53 #
cone-surface $-1 -39.059628790417094 -7.6666639693846612 3.5869249303998014 0.71933980857756763 0 -0.69465836192734942 0.17366459048183736 0 0.17983495214439191 1 I I -0.70710678118654746 0.70710678118654746 0.25 forward I I I I #
loop $-1 $-1 $137 $34 #
coedge $-1 $86 $86 $138 $139 reversed $54 $-1 #
face $-1 $140 $141 $21 $-1 $142 reversed single #
loop $-1 $-1 $143 $56 #
plane-surface $-1 0 -18.113751371108094 0 0 1 0 0 0 1 forward_v I I I I #
coedge $-1 $144 $145 $146 $147 forward $57 $-1 #
coedge $-1 $148 $59 $149 $150 forward $36 $-1 #
coedge $-1 $59 $148 $151 $152 forward $36 $-1 #
coedge $-1 $153 $154 $59 $94 reversed $155 $-1 #
edge $-1 $156 -18.113751371108094 $157 18.113751371108094 $93 $158 forward 7 unknown #
face $-1 $159 $160 $22 $-1 $161 reversed single #
loop $-1 $-1 $162 $60 #
plane-surface $-1 0 -13.835600000537099 4.1061008372446377 0 -1 0 0 0 -1 forward_v I I I I #
coedge $-1 $163 $164 $165 $166 reversed $61 $-1 #
coedge $-1 $167 $63 $168 $169 forward $39 $-1 #
coedge $-1 $63 $167 $170 $171 reversed $39 $-1 #
coedge $-1 $172 $173 $63 $102 forward $174 $-1 #
edge $-1 $175 5.8482621576258005 $176 10.126413528196796 $101 $177 forward 7 unknown #
face $-1 $178 $179 $23 $-1 $180 forward single #
loop $-1 $-1 $181 $64 #
plane-surface $-1 41.814020203253271 0 0 -1 0 0 0 0 1 forward_v I I I I #
coedge $-1 $182 $183 $184 $185 reversed $65 $-1 #
coedge $-1 $186 $67 $187 $188 reversed $42 $-1 #
coedge $-1 $67 $186 $182 $189 forward $42 $-1 #
coedge $-1 $184 $181 $67 $110 forward $104 $-1 #
edge $-1 $190 -8.8179685232914267 $191 -1.2172944311999219 $109 $192 forward 7 unknown #
loop $-1 $-1 $116 $68 #
plane-surface $-1 -26.690059622754177 -10.035262954491346 50.428441035081633 0.57357644374324357 0 0.81915203911291934 0.81915203911291934 0 -0.57357644374324357 forward_v I I I I #
loop $-1 $-1 $193 $44 #
coedge $-1 $114 $114 $115 $194 reversed $69 $-1 #
coedge $-1 $115 $115 $114 $194 forward $71 $-1 #
coedge $-1 $116 $116 $72 $117 forward $111 $-1 #
edge $-1 $195 0 $195 6.2831853071796004 $116 $196 forward 7 unknown #
loop $-1 $-1 $123 $73 #
plane-surface $-1 -26.690059622754177 -10.035262954491346 50.428441035081633 0.57357644374324357 0 0.81915203911291934 0.81915203911291934 0 -0.57357644374324357 forward_v I I I I #
loop $-1 $-1 $197 $47 #
coedge $-1 $121 $121 $122 $198 reversed $74 $-1 #
coedge $-1 $122 $122 $121 $198 forward $76 $-1 #
coedge $-1 $123 $123 $77 $124 forward $118 $-1 #
edge $-1 $199 0 $199 6.2831853071796004 $123 $200 forward 7 unknown #
face $-1 $201 $202 $26 $-1 $203 reversed single #
loop $-1 $-1 $204 $78 #
plane-surface $-1 -101.97099878098678 -4.182884266341218 60.627032315275144 0 -1 0 0.71933980857756763 0 -0.69465836192734942 forward_v I I I I #
coedge $-1 $205 $206 $207 $208 reversed $79 $-1 #
coedge $-1 $130 $81 $209 $210 reversed $51 $-1 #
coedge $-1 $81 $129 $205 $211 reversed $51 $-1 #
coedge $-1 $207 $212 $81 $132 forward $213 $-1 #
edge $-1 $214 9.1714791872401165 $215 12.881912491468562 $131 $216 forward 7 unknown #
loop $-1 $-1 $138 $82 #
plane-surface $-1 -41.814020203253271 -7.6666639693846612 2.5341147552971179 -0.71933980857756763 0 0.69465836192734942 0.69465836192734942 0 0.71933980857756763 forward_v I I I I #
loop $-1 $-1 $217 $53 #
coedge $-1 $136 $136 $137 $218 reversed $83 $-1 #
coedge $-1 $137 $137 $136 $218 forward $85 $-1 #
coedge $-1 $138 $138 $86 $139 forward $133 $-1 #
edge $-1 $219 0 $219 6.2831853071796004 $138 $220 forward 7 unknown #
face $-1 $221 $222 $21 $-1 $223 reversed single #
loop $-1 $-1 $224 $87 #
plane-surface $-1 -41.814020203253271 0 0 1 0 0 0 0 -1 forward_v I I I I #
coedge $-1 $225 $151 $226 $227 forward $88 $-1 #
coedge $-1 $228 $90 $225 $229 forward $57 $-1 #
coedge $-1 $90 $228 $230 $231 forward $57 $-1 #
coedge $-1 $154 $153 $90 $147 reversed $155 $-1 #
edge $-1 $232 -18.113751371108094 $233 18.113751371108094 $146 $234 forward 7 unknown #
coedge $-1 $92 $91 $235 $236 forward $36 $-1 #
coedge $-1 $237 $238 $91 $150 reversed $222 $-1 #
edge $-1 $157 -41.814020203253271 $239 41.814020203253271 $149 $240 forward 7 unknown #
coedge $-1 $143 $241 $92 $152 reversed $88 $-1 #
edge $-1 $242 -41.814020203253271 $156 41.814020203253271 $151 $243 forward 7 unknown #
coedge $-1 $146 $93 $241 $244 forward $155 $-1 #
coedge $-1 $93 $146 $237 $245 reversed $155 $-1 #
loop $-1 $-1 $153 $221 #
vertex $-1 $94 $246 #
vertex $-1 $94 $247 #
straight-curve $-1 41.814020203253271 0 6.3763810103208538 0 1 0 I I #
face $-1 $248 $249 $22 $-1 $250 reversed single #
loop $-1 $-1 $251 $95 #
plane-surface $-1 -41.814020203253271 0 0 1 0 0 0 0 -1 forward_v I I I I #
coedge $-1 $252 $168 $173 $253 reversed $96 $-1 #
coedge $-1 $254 $98 $255 $256 reversed $61 $-1 #
coedge $-1 $98 $254 $252 $257 forward $61 $-1 #
coedge $-1 $173 $172 $98 $166 forward $174 $-1 #
edge $-1 $258 -10.126413528196796 $259 -5.8482621576258005 $165 $260 forward 7 unknown #
coedge $-1 $100 $99 $251 $261 reversed $39 $-1 #
coedge $-1 $162 $262 $99 $169 reversed $96 $-1 #
edge $-1 $175 -41.814020203253271 $263 41.814020203253271 $168 $264 forward 7 unknown #
coedge $-1 $265 $266 $100 $171 forward $249 $-1 #
edge $-1 $176 -41.814020203253271 $267 41.814020203253271 $170 $268 forward 7 unknown #
coedge $-1 $165 $101 $266 $269 forward $174 $-1 #
coedge $-1 $101 $165 $162 $253 forward $174 $-1 #
loop $-1 $-1 $101 $248 #
vertex $-1 $102 $270 #
vertex $-1 $269 $271 #
straight-curve $-1 41.814020203253271 -7.9873378429112982 5.8600677844880522 0 -1 0 I I #
face $-1 $-1 $272 $23 $-1 $273 forward single #
loop $-1 $-1 $187 $103 #
plane-surface $-1 0 -13.835600000537099 4.1061008372446377 0 -1 0 0 0 -1 forward_v I I I I #
coedge $-1 $109 $274 $275 $276 forward $104 $-1 #
coedge $-1 $183 $106 $108 $189 reversed $65 $-1 #
coedge $-1 $106 $182 $277 $278 reversed $65 $-1 #
coedge $-1 $274 $109 $106 $185 forward $104 $-1 #
edge $-1 $191 -57.00489340904322 $279 -53.089879420223689 $184 $280 forward 7 unknown #
coedge $-1 $108 $107 $281 $282 reversed $42 $-1 #
coedge $-1 $275 $283 $107 $188 forward $179 $-1 #
edge $-1 $284 52.586111940573019 $190 59.41173044622429 $187 $285 forward 7 unknown #
edge $-1 $286 76.802421900855279 $191 83.628040406506557 $182 $287 forward 7 unknown #
vertex $-1 $188 $288 #
vertex $-1 $110 $289 #
straight-curve $-1 41.814020203253278 -5.0176314772456729 2.4613670215013208 0 1 0 I I #
coedge $-1 $193 $193 $-1 $290 reversed $113 $-1 #
edge $-1 $291 0 $291 6.2831853071796004 $114 $292 forward 7 unknown #
vertex $-1 $117 $293 #
ellipse-curve $-1 39.018410544697716 -11.663978831368096 4.4188740159110811 0.57357644374324357 0 0.81915203911291934 0.40957601955645967 0 -0.28678822187162178 1 I I #
coedge $-1 $197 $197 $-1 $294 reversed $120 $-1 #
edge $-1 $295 0 $295 6.2831853071796004 $121 $296 forward 7 unknown #
vertex $-1 $124 $297 #
ellipse-curve $-1 39.018410544697716 -8.4065470776145954 4.4188740159110811 0.57357644374324357 0 0.81915203911291934 0.40957601955645967 0 -0.28678822187162178 1 I I #
face $-1 $-1 $213 $26 $-1 $298 forward single #
loop $-1 $-1 $299 $125 #
plane-surface $-1 -41.814020203253271 0 0 1 0 0 0 0 -1 forward_v I I I I #
coedge $-1 $300 $301 $302 $303 reversed $126 $-1 #
coedge $-1 $304 $128 $130 $211 forward $79 $-1 #
coedge $-1 $128 $304 $300 $305 forward $79 $-1 #
coedge $-1 $302 $131 $128 $208 forward $213 $-1 #
edge $-1 $215 -7.3171116877357729 $306 -0.34955228164888741 $207 $307 forward 7 unknown #
coedge $-1 $308 $309 $129 $210 forward $202 $-1 #
edge $-1 $310 -27.779401402340454 $214 -23.937135147316717 $209 $311 forward 7 unknown #
edge $-1 $215 -5.3413785935488356 $310 0 $130 $312 forward 7 unknown #
coedge $-1 $131 $302 $308 $313 forward $213 $-1 #
loop $-1 $-1 $302 $201 #
vertex $-1 $210 $314 #
vertex $-1 $132 $315 #
straight-curve $-1 -50.985499390493388 -11.150443672428104 6.3763810103208556 1 0 0 I I #
coedge $-1 $217 $217 $-1 $316 reversed $135 $-1 #
edge $-1 $317 0 $317 6.2831853071796004 $136 $318 forward 7 unknown #
vertex $-1 $139 $319 #
ellipse-curve $-1 -39.958803551139049 -7.6666639693846612 4.455247882808985 -0.71933980857756763 0 0.69465836192734942 0.34732918096367471 0 0.35966990428878381 1 I I #
face $-1 $-1 $155 $21 $-1 $320 reversed single #
loop $-1 $-1 $237 $140 #
plane-surface $-1 0 18.113751371108094 0 0 -1 0 0 0 -1 forward_v I I I I #
coedge $-1 $321 $235 $238 $322 forward $141 $-1 #
coedge $-1 $241 $143 $144 $229 reversed $88 $-1 #
coedge $-1 $235 $321 $143 $227 reversed $141 $-1 #
edge $-1 $242 -6.3763810103208538 $323 6.3763810103208538 $226 $324 forward 7 unknown #
coedge $-1 $145 $144 $321 $325 forward $57 $-1 #
edge $-1 $233 -41.814020203253271 $323 41.814020203253271 $225 $326 forward 7 unknown #
coedge $-1 $238 $237 $145 $231 reversed $222 $-1 #
edge $-1 $327 -41.814020203253271 $232 41.814020203253271 $230 $328 forward 7 unknown #
vertex $-1 $147 $329 #
vertex $-1 $244 $330 #
straight-curve $-1 41.814020203253271 0 -6.3763810103208538 0 -1 0 I I #
coedge $-1 $224 $226 $148 $236 reversed $141 $-1 #
edge $-1 $239 -18.113751371108094 $242 18.113751371108094 $235 $331 forward 7 unknown #
coedge $-1 $230 $149 $154 $245 forward $222 $-1 #
coedge $-1 $149 $230 $224 $322 reversed $222 $-1 #
vertex $-1 $150 $332 #
straight-curve $-1 0 18.113751371108094 6.3763810103208538 -1 0 0 I I #
coedge $-1 $151 $225 $153 $244 reversed $88 $-1 #
vertex $-1 $236 $333 #
straight-curve $-1 0 -18.113751371108094 6.3763810103208538 1 0 0 I I #
edge $-1 $156 -6.3763810103208538 $233 6.3763810103208538 $153 $334 forward 7 unknown #
edge $-1 $157 -6.3763810103208538 $232 6.3763810103208538 $154 $335 forward 7 unknown #
point $-1 41.814020203253271 -18.113751371108094 6.3763810103208538 #
point $-1 41.814020203253271 18.113751371108094 6.3763810103208538 #
face $-1 $-1 $174 $22 $-1 $336 reversed single #
loop $-1 $-1 $170 $159 #
plane-surface $-1 0 -18.113751371108094 0 0 1 0 0 0 1 forward_v I I I I #
coedge $-1 $337 $338 $167 $261 forward $160 $-1 #
coedge $-1 $262 $162 $164 $257 reversed $96 $-1 #
edge $-1 $259 0.29908347137890434 $175 3.8070173658657334 $173 $339 forward 7 unknown #
coedge $-1 $164 $163 $340 $341 reversed $61 $-1 #
coedge $-1 $266 $265 $163 $256 forward $249 $-1 #
edge $-1 $342 -41.814020203253271 $258 41.814020203253271 $255 $343 forward 7 unknown #
edge $-1 $344 -41.814020203253271 $259 41.814020203253271 $252 $345 forward 7 unknown #
vertex $-1 $256 $346 #
vertex $-1 $166 $347 #
straight-curve $-1 41.814020203253271 -7.9873378429112982 2.3521338900012232 0 1 0 I I #
edge $-1 $267 -10.126413528196796 $263 -5.8482621576258005 $251 $348 forward 7 unknown #
coedge $-1 $168 $252 $337 $349 reversed $96 $-1 #
vertex $-1 $261 $350 #
straight-curve $-1 0 -13.835600000537099 5.8600677844880522 -1 0 0 I I #
coedge $-1 $255 $170 $338 $351 forward $249 $-1 #
coedge $-1 $170 $255 $172 $269 reversed $249 $-1 #
vertex $-1 $351 $352 #
straight-curve $-1 0 -18.113751371108094 5.8600677844880522 -1 0 0 I I #
edge $-1 $176 -5.8600677844880522 $258 -2.3521338900012232 $172 $353 forward 7 unknown #
point $-1 41.814020203253271 -13.835600000537099 5.8600677844880522 #
point $-1 41.814020203253271 -18.113751371108094 5.8600677844880522 #
loop $-1 $-1 $354 $178 #
plane-surface $-1 0 0 6.3763810103208538 0 0 1 1 0 0 forward_v I I I I #
coedge $-1 $181 $184 $355 $356 reversed $104 $-1 #
coedge $-1 $283 $187 $181 $276 reversed $179 $-1 #
edge $-1 $357 53.089879420223689 $190 57.004893409043227 $181 $358 forward 7 unknown #
coedge $-1 $281 $355 $183 $278 forward $272 $-1 #
edge $-1 $279 -31.175513007840205 $286 -25.584293690729094 $277 $359 forward 7 unknown #
vertex $-1 $185 $360 #
straight-curve $-1 41.814020203253271 -6.2349259084455948 59.466260430544544 0 0 1 I I #
coedge $-1 $354 $277 $186 $282 forward $272 $-1 #
edge $-1 $286 1.2172944311999219 $284 8.8179685232914231 $281 $361 forward 7 unknown #
coedge $-1 $187 $275 $354 $362 reversed $179 $-1 #
vertex $-1 $362 $363 #
straight-curve $-1 -6.8532199389984658 -13.835600000537099 36.538536087478846 0.81915203911291934 0 -0.57357644374324357 I I #
vertex $-1 $282 $364 #
straight-curve $-1 -26.690059622754177 -6.2349259084455948 50.428441035081633 0.81915203911291934 0 -0.57357644374324357 I I #
point $-1 41.814020203253271 -13.835600000537099 2.4613670215013181 #
point $-1 41.814020203253278 -6.2349259084455948 2.4613670215013244 #
edge $-1 $365 1 $365 0 $193 $-1 forward 7 unknown #
vertex $-1 $194 $366 #
ellipse-curve $-1 37.91878291264392 -11.663978831368096 2.8484430351977372 0.57357644374324357 0 0.81915203911291934 0.40957601955645967 0 -0.28678822187162178 1 I I #
point $-1 39.427986564254184 -11.663978831368096 4.1320857940394697 #
edge $-1 $367 1 $367 0 $197 $-1 forward 7 unknown #
vertex $-1 $198 $368 #
ellipse-curve $-1 37.91878291264392 -8.4065470776145954 2.8484430351977372 0.57357644374324357 0 0.81915203911291934 0.40957601955645967 0 -0.28678822187162178 1 I I #
point $-1 39.427986564254184 -8.4065470776145954 4.1320857940394697 #
plane-surface $-1 0 0 6.3763810103208538 0 0 1 1 0 0 forward_v I I I I #
coedge $-1 $309 $308 $301 $369 forward $202 $-1 #
coedge $-1 $301 $204 $206 $305 reversed $126 $-1 #
coedge $-1 $204 $300 $299 $369 reversed $126 $-1 #
coedge $-1 $212 $207 $204 $303 forward $213 $-1 #
edge $-1 $306 -12.881912491468562 $370 -9.1714791872401165 $302 $371 forward 7 unknown #
coedge $-1 $206 $205 $309 $372 reversed $79 $-1 #
edge $-1 $373 0 $306 5.3413785935488356 $300 $374 forward 7 unknown #
vertex $-1 $208 $375 #
straight-curve $-1 -38.103586899024826 -3.8333319846923306 6.3763810103208547 0 1 0 I I #
coedge $-1 $299 $209 $212 $313 reversed $202 $-1 #
coedge $-1 $209 $299 $304 $372 forward $202 $-1 #
vertex $-1 $210 $376 #
straight-curve $-1 -41.814020203253271 -11.150443672428104 30.313516157637572 0 0 1 I I #
straight-curve $-1 -41.814020203253271 -11.150443672428104 2.5341147552971179 -0.69465836192734942 0 -0.71933980857756763 I I #
edge $-1 $370 4.182884266341218 $214 11.150443672428104 $308 $377 forward 7 unknown #
point $-1 -41.814020203253271 -11.150443672428104 6.3763810103208538 #
point $-1 -38.103586899024826 -11.150443672428104 6.3763810103208538 #
edge $-1 $378 1 $378 0 $217 $-1 forward 7 unknown #
vertex $-1 $218 $379 #
ellipse-curve $-1 -39.239463742561483 -7.6666639693846612 3.7605895208816387 -0.71933980857756763 0 0.69465836192734942 0.34732918096367471 0 0.35966990428878381 1 I I #
point $-1 -39.61147437017538 -7.6666639693846612 4.8149177870977722 #
plane-surface $-1 41.814020203253271 0 0 -1 0 0 0 0 1 forward_v I I I I #
coedge $-1 $226 $224 $228 $325 reversed $141 $-1 #
edge $-1 $239 -6.3763810103208538 $327 6.3763810103208538 $238 $380 forward 7 unknown #
vertex $-1 $325 $381 #
straight-curve $-1 -41.814020203253271 -18.113751371108094 0 0 0 -1 I I #
edge $-1 $323 -18.113751371108094 $327 18.113751371108094 $321 $382 forward 7 unknown #
straight-curve $-1 0 -18.113751371108094 -6.3763810103208538 -1 0 0 I I #
vertex $-1 $231 $383 #
straight-curve $-1 0 18.113751371108094 -6.3763810103208538 1 0 0 I I #
point $-1 41.814020203253271 18.113751371108094 -6.3763810103208538 #
point $-1 41.814020203253271 -18.113751371108094 -6.3763810103208538 #
straight-curve $-1 -41.814020203253271 0 6.3763810103208538 0 -1 0 I I #
point $-1 -41.814020203253271 18.113751371108094 6.3763810103208538 #
point $-1 -41.814020203253271 -18.113751371108094 6.3763810103208538 #
straight-curve $-1 41.814020203253271 -18.113751371108094 0 0 0 -1 I I #
straight-curve $-1 41.814020203253271 18.113751371108094 0 0 0 -1 I I #
plane-surface $-1 41.814020203253271 0 0 -1 0 0 0 0 1 forward_v I I I I #
coedge $-1 $340 $251 $262 $349 forward $160 $-1 #
coedge $-1 $251 $340 $265 $351 reversed $160 $-1 #
straight-curve $-1 41.814020203253271 -13.835600000537099 2.0530504186223189 0 0 1 I I #
coedge $-1 $338 $337 $254 $341 forward $160 $-1 #
edge $-1 $344 5.8482621576258005 $342 10.126413528196796 $340 $384 forward 7 unknown #
vertex $-1 $256 $385 #
straight-curve $-1 0 -18.113751371108094 2.3521338900012232 1 0 0 I I #
vertex $-1 $341 $386 #
straight-curve $-1 0 -13.835600000537099 2.3521338900012232 1 0 0 I I #
point $-1 41.814020203253271 -18.113751371108094 2.3521338900012232 #
point $-1 41.814020203253271 -13.835600000537099 2.3521338900012232 #
straight-curve $-1 -41.814020203253271 -7.9873378429112982 5.8600677844880522 0 1 0 I I #
edge $-1 $263 -3.8070173658657334 $344 -0.29908347137890434 $337 $387 forward 7 unknown #
point $-1 -41.814020203253271 -13.835600000537099 5.8600677844880522 #
edge $-1 $267 -5.8600677844880522 $342 -2.3521338900012232 $338 $388 forward 7 unknown #
point $-1 -41.814020203253271 -18.113751371108094 5.8600677844880522 #
straight-curve $-1 41.814020203253271 -18.113751371108094 0 0 0 -1 I I #
coedge $-1 $355 $281 $283 $362 forward $272 $-1 #
coedge $-1 $277 $354 $274 $356 forward $272 $-1 #
edge $-1 $357 -13.835600000537097 $279 -6.2349259084455948 $274 $389 forward 7 unknown #
vertex $-1 $356 $390 #
straight-curve $-1 41.814020203253271 -13.835600000537097 59.466260430544544 0 0 -1 I I #
straight-curve $-1 10.638507195413066 -6.2349259084455948 6.3763810103208556 -1 0 0 I I #
point $-1 41.814020203253271 -6.2349259084455948 6.3763810103208538 #
straight-curve $-1 36.222800886142153 -5.0176314772456729 6.3763810103208591 0 -1 0 I I #
edge $-1 $284 25.584293690729094 $357 31.175513007840205 $354 $391 forward 7 unknown #
point $-1 36.22280088614216 -13.835600000537097 6.3763810103208556 #
point $-1 36.22280088614216 -6.2349259084455948 6.3763810103208556 #
vertex $-1 $290 $392 #
point $-1 38.328358932200381 -11.663978831368096 2.5616548133261152 #
vertex $-1 $294 $393 #
point $-1 38.328358932200381 -8.4065470776145954 2.5616548133261152 #
edge $-1 $370 23.937135147316717 $373 27.779401402340454 $299 $394 forward 7 unknown #
vertex $-1 $313 $395 #
straight-curve $-1 -50.985499390493388 -4.182884266341218 6.3763810103208556 -1 0 0 I I #
edge $-1 $373 0.34955228164888741 $310 7.3171116877357729 $309 $396 forward 7 unknown #
vertex $-1 $372 $397 #
straight-curve $-1 -41.814020203253271 -4.182884266341218 2.5341147552971179 0.69465836192734942 0 0.71933980857756763 I I #
point $-1 -38.103586899024826 -4.182884266341218 6.3763810103208538 #
point $-1 -41.814020203253271 -11.150443672428104 2.5341147552971179 #
straight-curve $-1 -41.814020203253271 0 6.3763810103208538 0 -1 0 I I #
vertex $-1 $316 $398 #
point $-1 -38.892134561597814 -7.6666639693846612 4.1202594251704223 #
straight-curve $-1 -41.814020203253271 18.113751371108094 0 0 0 -1 I I #
point $-1 -41.814020203253271 -18.113751371108094 -6.3763810103208538 #
straight-curve $-1 -41.814020203253271 0 -6.3763810103208538 0 1 0 I I #
point $-1 -41.814020203253271 18.113751371108094 -6.3763810103208538 #
straight-curve $-1 -41.814020203253271 -7.9873378429112982 2.3521338900012232 0 -1 0 I I #
point $-1 -41.814020203253271 -18.113751371108094 2.3521338900012232 #
point $-1 -41.814020203253271 -13.835600000537099 2.3521338900012232 #
straight-curve $-1 -41.814020203253271 -13.835600000537099 2.0530504186223189 0 0 -1 I I #
straight-curve $-1 -41.814020203253271 -18.113751371108094 0 0 0 -1 I I #
straight-curve $-1 41.814020203253271 0 6.3763810103208538 0 1 0 I I #
point $-1 41.814020203253271 -13.835600000537097 6.3763810103208538 #
straight-curve $-1 10.638507195413066 -13.835600000537097 6.3763810103208556 1 0 0 I I #
point $-1 37.631994690772302 -11.663978831368096 2.4388670156412773 #
point $-1 37.631994690772302 -8.4065470776145954 2.4388670156412773 #
straight-curve $-1 -41.814020203253271 -4.182884266341218 30.313516157637572 0 0 -1 I I #
point $-1 -41.814020203253271 -4.182884266341218 6.3763810103208538 #
straight-curve $-1 -41.814020203253271 -3.8333319846923306 2.5341147552971215 0 -1 0 I I #
point $-1 -41.814020203253271 -4.182884266341218 2.5341147552971179 #
point $-1 -38.879793838272704 -7.6666639693846612 3.4132603399179642 #
End-of-ACIS-data 