500 0 7 0           
7 Unknown 11 ACIS 5.0 NT 24 Fri Mar 26 03:30:02 1999 
-1 9.9999999999999995e-007 1e-010 
body $-1 $7 $-1 $8 #
body $-1 $9 $-1 $10 #
body $-1 $11 $-1 $12 #
body $-1 $13 $-1 $14 #
body $-1 $15 $-1 $16 #
body $-1 $17 $-1 $18 #
body $-1 $19 $-1 $20 #
lump $-1 $-1 $21 $0 #
transform $-1 1 0 0 0 1 0 0 0 1 46.117130039368874 19.874826506483462 9.6293464670653055 1 rotate no_reflect no_shear #
lump $-1 $-1 $22 $1 #
transform $-1 1 0 0 0 1 0 0 0 1 46.117130039368874 19.874826506483462 9.6293464670653055 1 rotate no_reflect no_shear #
lump $-1 $-1 $23 $2 #
transform $-1 1 0 0 0 1 0 0 0 1 46.117130039368874 19.874826506483462 9.6293464670653055 1 rotate no_reflect no_shear #
lump $-1 $-1 $24 $3 #
transform $-1 1 0 0 0 1 0 0 0 1 46.117130039368874 19.874826506483462 9.6293464670653055 1 rotate no_reflect no_shear #
lump $-1 $-1 $25 $4 #
transform $-1 1 0 0 0 1 0 0 0 1 46.117130039368874 19.874826506483462 9.6293464670653055 1 rotate no_reflect no_shear #
lump $-1 $-1 $26 $5 #
transform $-1 1 0 0 0 1 0 0 0 1 46.117130039368874 19.874826506483462 9.6293464670653055 1 rotate no_reflect no_shear #
lump $-1 $-1 $27 $6 #
transform $-1 1 0 0 0 1 0 0 0 1 46.117130039368874 19.874826506483462 9.6293464670653055 1 rotate no_reflect no_shear #
shell $-1 $-1 $-1 $28 $-1 $7 #
shell $-1 $-1 $-1 $29 $-1 $9 #
shell $-1 $-1 $-1 $30 $-1 $11 #
shell $-1 $-1 $-1 $31 $-1 $13 #
shell $-1 $-1 $-1 $32 $-1 $15 #
shell $-1 $-1 $-1 $33 $-1 $17 #
shell $-1 $-1 $-1 $34 $-1 $19 #
face $-1 $35 $36 $21 $-1 $37 forward single #
face $-1 $38 $39 $22 $-1 $40 reversed single #
face $-1 $41 $42 $23 $-1 $43 reversed single #
face $-1 $44 $45 $24 $-1 $46 forward single #
face $-1 $47 $48 $25 $-1 $49 reversed single #
face $-1 $50 $51 $26 $-1 $52 forward single #
face $-1 $53 $54 $27 $-1 $55 forward single #
face $-1 $56 $57 $21 $-1 $58 reversed single #
loop $-1 $-1 $59 $28 #
plane-surface $-1 0 0 9.6293464670653055 0 0 1 1 0 0 forward_v I I I I #
face $-1 $60 $61 $22 $-1 $62 reversed single #
loop $-1 $-1 $63 $29 #
plane-surface $-1 -42.797566614053068 0 4.0116056627892434 0 0 1 1 0 0 forward_v I I I I #
face $-1 $64 $65 $23 $-1 $66 reversed single #
loop $-1 $-1 $67 $30 #
plane-surface $-1 -17.22828404232795 -85.09429802259487 66.548697771131287 -1 0 0 0 -0.70710678939079041 0.70710677298230451 forward_v I I I I #
face $-1 $68 $69 $24 $-1 $70 forward single #
loop $-1 $71 $72 $31 #
cone-surface $-1 -28.353143615532606 -14.276560023459902 4.0310799213449888 0 0.70710678939079041 -0.70710677298230451 1.5 0 0 1 I I 0 1 1.5 forward I I I I #
face $-1 $73 $74 $25 $-1 $75 reversed single #
loop $-1 $-1 $76 $32 #
plane-surface $-1 5.0718456256179962 48.711866259421328 101.88761424785305 1 0 0 0 -0.64278761758704617 -0.76604443648966558 forward_v I I I I #
face $-1 $77 $78 $26 $-1 $79 forward single #
loop $-1 $80 $81 $33 #
cone-surface $-1 8.3821455737942472 16.428235791977212 6.3514559495095879 0 -0.64278761758704617 -0.76604443648966558 1.5 0 0 1 I I 0 1 1.5 forward I I I I #
face $-1 $82 $83 $27 $-1 $84 forward single #
loop $-1 $85 $86 $34 #
cone-surface $-1 13.347595496058624 16.428235791977212 6.3514559495095879 0 -0.64278761758704617 -0.76604443648966558 1.5 0 0 1 I I 0 1 1.5 forward I I I I #
face $-1 $87 $88 $21 $-1 $89 reversed single #
loop $-1 $-1 $90 $35 #
plane-surface $-1 0 0 -9.6293464670653055 0 0 1 1 0 0 forward_v I I I I #
coedge $-1 $91 $92 $93 $94 forward $36 $-1 #
face $-1 $95 $96 $22 $-1 $97 reversed single #
loop $-1 $-1 $98 $38 #
plane-surface $-1 -39.478003188737262 0 6.8204760649272753 -1 0 0 0 0 1 forward_v I I I I #
coedge $-1 $99 $100 $98 $101 forward $39 $-1 #
face $-1 $102 $103 $23 $-1 $104 forward single #
loop $-1 $-1 $105 $41 #
plane-surface $-1 -28.353143615532606 -19.874826506483473 1.32922776844444 0 -0.70710678939079041 0.70710677298230451 1 0 0 forward_v I I I I #
coedge $-1 $106 $107 $108 $109 reversed $42 $-1 #
face $-1 $-1 $110 $24 $-1 $111 forward single #
loop $-1 $112 $113 $44 #
cone-surface $-1 -28.353143615532606 -12.298022701401127 2.0525426451983755 0 0.70710678939079041 -0.70710677298230451 0.75 0 0 1 I I -0.70710678118654757 0.70710678118654757 0.75 forward I I I I #
loop $-1 $-1 $114 $31 #
coedge $-1 $72 $72 $115 $116 reversed $45 $-1 #
face $-1 $117 $118 $25 $-1 $119 reversed single #
loop $-1 $-1 $120 $47 #
plane-surface $-1 10.864870534926432 -10.575174036494509 31.232072460795138 0 0.64278761758704617 0.76604443648966558 1 0 0 forward_v I I I I #
coedge $-1 $121 $122 $123 $124 reversed $48 $-1 #
face $-1 $-1 $125 $26 $-1 $126 forward single #
loop $-1 $127 $128 $50 #
cone-surface $-1 8.3821455737942472 14.851991748957065 4.4729614877800969 0 -0.64278761758704617 -0.76604443648966558 0.75 0 0 1 I I -0.70710678118654757 0.70710678118654757 0.75 forward I I I I #
loop $-1 $-1 $129 $33 #
coedge $-1 $81 $81 $130 $131 reversed $51 $-1 #
face $-1 $-1 $132 $27 $-1 $133 forward single #
loop $-1 $134 $135 $53 #
cone-surface $-1 13.347595496058624 14.851991748957065 4.4729614877800969 0 -0.64278761758704617 -0.76604443648966558 0.75 0 0 1 I I -0.70710678118654757 0.70710678118654757 0.75 forward I I I I #
loop $-1 $-1 $136 $34 #
coedge $-1 $86 $86 $137 $138 reversed $54 $-1 #
face $-1 $139 $140 $21 $-1 $141 reversed single #
loop $-1 $-1 $142 $56 #
plane-surface $-1 0 -19.874826506483462 0 0 1 0 0 0 1 forward_v I I I I #
coedge $-1 $143 $144 $145 $146 forward $57 $-1 #
coedge $-1 $147 $59 $148 $149 forward $36 $-1 #
coedge $-1 $59 $147 $150 $151 forward $36 $-1 #
coedge $-1 $152 $153 $59 $94 reversed $154 $-1 #
edge $-1 $155 -19.874826506483462 $156 19.874826506483462 $93 $157 forward 7 unknown #
face $-1 $158 $159 $22 $-1 $160 reversed single #
loop $-1 $-1 $161 $60 #
plane-surface $-1 0 19.874826506483462 0 0 -1 0 0 0 -1 forward_v I I I I #
coedge $-1 $162 $163 $63 $101 reversed $61 $-1 #
coedge $-1 $164 $63 $165 $166 reversed $39 $-1 #
coedge $-1 $63 $164 $167 $168 reversed $39 $-1 #
edge $-1 $169 -19.874826506483462 $170 19.874826506483462 $98 $171 forward 7 unknown #
face $-1 $172 $173 $23 $-1 $174 forward single #
loop $-1 $-1 $175 $64 #
plane-surface $-1 -39.478003188737262 0 6.8204760649272753 -1 0 0 0 0 1 forward_v I I I I #
coedge $-1 $176 $177 $178 $179 reversed $65 $-1 #
coedge $-1 $107 $67 $180 $181 reversed $42 $-1 #
coedge $-1 $67 $106 $176 $182 reversed $42 $-1 #
coedge $-1 $178 $183 $67 $109 forward $173 $-1 #
edge $-1 $184 22.672322504813973 $185 30.972441010829719 $108 $186 forward 7 unknown #
loop $-1 $-1 $115 $68 #
plane-surface $-1 -28.353143615532606 -19.874826506483473 1.32922776844444 0 -0.70710678939079041 0.70710677298230451 1 0 0 forward_v I I I I #
loop $-1 $-1 $187 $44 #
coedge $-1 $113 $113 $114 $188 reversed $69 $-1 #
coedge $-1 $114 $114 $113 $188 forward $71 $-1 #
coedge $-1 $115 $115 $72 $116 forward $110 $-1 #
edge $-1 $189 -1.256074000952234e-015 $189 6.2831853071795996 $115 $190 forward 7 unknown #
face $-1 $191 $192 $25 $-1 $193 forward single #
loop $-1 $-1 $194 $73 #
plane-surface $-1 16.657895444234867 48.711866259421328 101.88761424785305 -1 0 0 0 0.64278761758704617 0.76604443648966558 forward_v I I I I #
coedge $-1 $195 $196 $197 $198 reversed $74 $-1 #
coedge $-1 $122 $76 $199 $200 reversed $48 $-1 #
coedge $-1 $76 $121 $195 $201 reversed $48 $-1 #
coedge $-1 $197 $202 $76 $124 forward $192 $-1 #
edge $-1 $203 4.4811066232272019 $204 9.1859813925799436 $123 $205 forward 7 unknown #
loop $-1 $-1 $130 $77 #
plane-surface $-1 10.864870534926432 -10.575174036494509 31.232072460795138 0 0.64278761758704617 0.76604443648966558 1 0 0 forward_v I I I I #
loop $-1 $-1 $206 $50 #
coedge $-1 $128 $128 $129 $207 reversed $78 $-1 #
coedge $-1 $129 $129 $128 $207 forward $80 $-1 #
coedge $-1 $130 $130 $81 $131 forward $125 $-1 #
edge $-1 $208 -2.5902983272850485e-017 $208 6.2831853071796004 $130 $209 forward 7 unknown #
loop $-1 $-1 $137 $82 #
plane-surface $-1 10.864870534926432 -10.575174036494509 31.232072460795138 0 0.64278761758704617 0.76604443648966558 1 0 0 forward_v I I I I #
loop $-1 $-1 $210 $53 #
coedge $-1 $135 $135 $136 $211 reversed $83 $-1 #
coedge $-1 $136 $136 $135 $211 forward $85 $-1 #
coedge $-1 $137 $137 $86 $138 forward $132 $-1 #
edge $-1 $212 -2.5902983272850485e-017 $212 6.2831853071796004 $137 $213 forward 7 unknown #
face $-1 $214 $215 $21 $-1 $216 reversed single #
loop $-1 $-1 $217 $87 #
plane-surface $-1 -46.117130039368874 0 0 1 0 0 0 0 -1 forward_v I I I I #
coedge $-1 $218 $150 $219 $220 forward $88 $-1 #
coedge $-1 $221 $90 $218 $222 forward $57 $-1 #
coedge $-1 $90 $221 $223 $224 forward $57 $-1 #
coedge $-1 $153 $152 $90 $146 reversed $154 $-1 #
edge $-1 $225 -19.874826506483462 $226 19.874826506483462 $145 $227 forward 7 unknown #
coedge $-1 $92 $91 $228 $229 forward $36 $-1 #
coedge $-1 $230 $231 $91 $149 reversed $215 $-1 #
edge $-1 $156 -46.117130039368874 $232 46.117130039368874 $148 $233 forward 7 unknown #
coedge $-1 $142 $234 $92 $151 reversed $88 $-1 #
edge $-1 $235 -46.117130039368874 $155 46.117130039368874 $150 $236 forward 7 unknown #
coedge $-1 $145 $93 $234 $237 forward $154 $-1 #
coedge $-1 $93 $145 $230 $238 reversed $154 $-1 #
loop $-1 $-1 $152 $214 #
vertex $-1 $94 $239 #
vertex $-1 $94 $240 #
straight-curve $-1 46.117130039368874 0 9.6293464670653055 0 1 0 I I #
face $-1 $241 $242 $22 $-1 $243 forward single #
loop $-1 $-1 $244 $95 #
plane-surface $-1 -46.117130039368874 0 0 1 0 0 0 0 -1 forward_v I I I I #
coedge $-1 $167 $245 $162 $246 forward $96 $-1 #
coedge $-1 $247 $98 $161 $246 reversed $61 $-1 #
coedge $-1 $98 $247 $248 $249 reversed $61 $-1 #
coedge $-1 $100 $99 $244 $250 reversed $39 $-1 #
coedge $-1 $248 $251 $99 $166 forward $252 $-1 #
edge $-1 $253 -24.71834673234234 $170 -18.079219881710728 $165 $254 forward 7 unknown #
coedge $-1 $255 $161 $100 $168 forward $96 $-1 #
edge $-1 $169 18.079219881710728 $256 24.71834673234234 $167 $257 forward 7 unknown #
vertex $-1 $168 $258 #
vertex $-1 $166 $259 #
straight-curve $-1 -39.478003188737262 0 4.0116056627892434 0 -1 0 I I #
face $-1 $-1 $260 $23 $-1 $261 reversed single #
loop $-1 $-1 $178 $102 #
plane-surface $-1 0 0 9.6293464670653055 0 0 1 1 0 0 forward_v I I I I #
coedge $-1 $262 $263 $177 $264 reversed $103 $-1 #
coedge $-1 $265 $105 $107 $182 forward $65 $-1 #
coedge $-1 $105 $265 $175 $264 forward $65 $-1 #
coedge $-1 $266 $108 $105 $179 forward $173 $-1 #
edge $-1 $185 3.0517122345616468 $267 25.301431380970961 $178 $268 forward 7 unknown #
coedge $-1 $269 $270 $106 $181 forward $260 $-1 #
edge $-1 $271 -31.945121117121193 $184 -23.64500241850034 $180 $272 forward 7 unknown #
edge $-1 $185 -11.738140296703778 $271 -1.5072887603364246e-014 $107 $273 forward 7 unknown #
coedge $-1 $108 $266 $269 $274 forward $173 $-1 #
vertex $-1 $181 $275 #
vertex $-1 $109 $276 #
straight-curve $-1 -17.22828404232795 -42.547149011297435 9.6293464670653037 0 1 0 I I #
coedge $-1 $187 $187 $-1 $277 reversed $112 $-1 #
edge $-1 $278 0 $278 6.2831853071796004 $113 $279 forward 7 unknown #
vertex $-1 $116 $280 #
ellipse-curve $-1 -28.353143615532606 -15.724767253475589 5.4792871177548781 0 -0.70710678939079041 0.70710677298230451 1.5 0 0 1 I I #
face $-1 $-1 $281 $25 $-1 $282 reversed single #
loop $-1 $-1 $123 $117 #
plane-surface $-1 0 0 9.6293464670653055 0 0 1 1 0 0 forward_v I I I I #
coedge $-1 $283 $284 $285 $286 reversed $118 $-1 #
coedge $-1 $287 $120 $122 $201 forward $74 $-1 #
coedge $-1 $120 $287 $283 $288 forward $74 $-1 #
coedge $-1 $285 $123 $120 $198 forward $192 $-1 #
edge $-1 $204 -0.36058964184521969 $289 11.225460176771652 $197 $290 forward 7 unknown #
coedge $-1 $291 $292 $121 $200 forward $281 $-1 #
edge $-1 $293 -45.26231942324813 $203 -41.314460656861222 $199 $294 forward 7 unknown #
edge $-1 $204 33.607875140507659 $293 39.749653012966903 $122 $295 forward 7 unknown #
coedge $-1 $123 $285 $291 $296 forward $192 $-1 #
vertex $-1 $200 $297 #
vertex $-1 $124 $298 #
straight-curve $-1 5.0718456256179962 24.355933129710664 9.6293464670653037 0 -1 0 I I #
coedge $-1 $206 $206 $-1 $299 reversed $127 $-1 #
edge $-1 $300 0 $300 6.2831853071796004 $128 $301 forward 7 unknown #
vertex $-1 $131 $302 #
ellipse-curve $-1 8.3821455737942472 17.522389121807088 7.6554170838718472 0 0.64278761758704617 0.76604443648966558 1.5 0 0 1 I I #
coedge $-1 $210 $210 $-1 $303 reversed $134 $-1 #
edge $-1 $304 0 $304 6.2831853071796004 $135 $305 forward 7 unknown #
vertex $-1 $138 $306 #
ellipse-curve $-1 13.347595496058624 17.522389121807088 7.6554170838718472 0 0.64278761758704617 0.76604443648966558 1.5 0 0 1 I I #
face $-1 $-1 $154 $21 $-1 $307 reversed single #
loop $-1 $-1 $230 $139 #
plane-surface $-1 0 19.874826506483462 0 0 -1 0 0 0 -1 forward_v I I I I #
coedge $-1 $308 $228 $231 $309 forward $140 $-1 #
coedge $-1 $234 $142 $143 $222 reversed $88 $-1 #
coedge $-1 $228 $308 $142 $220 reversed $140 $-1 #
edge $-1 $235 -9.6293464670653055 $310 9.6293464670653055 $219 $311 forward 7 unknown #
coedge $-1 $144 $143 $308 $312 forward $57 $-1 #
edge $-1 $226 -46.117130039368874 $310 46.117130039368874 $218 $313 forward 7 unknown #
coedge $-1 $231 $230 $144 $224 reversed $215 $-1 #
edge $-1 $314 -46.117130039368874 $225 46.117130039368874 $223 $315 forward 7 unknown #
vertex $-1 $146 $316 #
vertex $-1 $237 $317 #
straight-curve $-1 46.117130039368874 0 -9.6293464670653055 0 -1 0 I I #
coedge $-1 $217 $219 $147 $229 reversed $140 $-1 #
edge $-1 $232 -19.874826506483462 $235 19.874826506483462 $228 $318 forward 7 unknown #
coedge $-1 $223 $148 $153 $238 forward $215 $-1 #
coedge $-1 $148 $223 $217 $309 reversed $215 $-1 #
vertex $-1 $149 $319 #
straight-curve $-1 0 19.874826506483462 9.6293464670653055 -1 0 0 I I #
coedge $-1 $150 $218 $152 $237 reversed $88 $-1 #
vertex $-1 $229 $320 #
straight-curve $-1 0 -19.874826506483462 9.6293464670653055 1 0 0 I I #
edge $-1 $155 -9.6293464670653055 $226 9.6293464670653055 $152 $321 forward 7 unknown #
edge $-1 $156 -9.6293464670653055 $225 9.6293464670653055 $153 $322 forward 7 unknown #
point $-1 46.117130039368874 -19.874826506483462 9.6293464670653055 #
point $-1 46.117130039368874 19.874826506483462 9.6293464670653055 #
face $-1 $-1 $252 $22 $-1 $323 reversed single #
loop $-1 $-1 $324 $158 #
plane-surface $-1 0 0 9.6293464670653055 0 0 1 1 0 0 forward_v I I I I #
coedge $-1 $325 $326 $164 $250 forward $159 $-1 #
coedge $-1 $161 $255 $327 $328 reversed $96 $-1 #
edge $-1 $329 -6.2191084346016696 $169 -0.6013676303256057 $161 $330 forward 7 unknown #
coedge $-1 $163 $162 $324 $331 reversed $61 $-1 #
coedge $-1 $332 $165 $163 $249 forward $252 $-1 #
edge $-1 $170 0.6013676303256057 $333 6.2191084346016696 $248 $334 forward 7 unknown #
edge $-1 $256 -19.874826506483462 $253 19.874826506483462 $244 $335 forward 7 unknown #
coedge $-1 $165 $332 $325 $336 forward $252 $-1 #
loop $-1 $-1 $248 $241 #
vertex $-1 $250 $337 #
straight-curve $-1 -21.398783307026534 -19.874826506483462 4.0116056627892434 1 0 0 I I #
coedge $-1 $245 $167 $326 $338 reversed $96 $-1 #
vertex $-1 $250 $339 #
straight-curve $-1 -21.398783307026534 19.874826506483462 4.0116056627892434 -1 0 0 I I #
point $-1 -39.478003188737262 19.874826506483462 4.0116056627892434 #
point $-1 -39.478003188737262 -19.874826506483462 4.0116056627892434 #
loop $-1 $-1 $180 $172 #
plane-surface $-1 0 -19.874826506483462 0 0 1 0 0 0 1 forward_v I I I I #
coedge $-1 $263 $175 $340 $341 reversed $103 $-1 #
coedge $-1 $175 $262 $266 $342 reversed $103 $-1 #
edge $-1 $343 1.5072887603364246e-014 $267 11.738140296703778 $175 $344 forward 7 unknown #
coedge $-1 $177 $176 $270 $345 reversed $65 $-1 #
coedge $-1 $183 $178 $263 $342 forward $173 $-1 #
vertex $-1 $342 $346 #
straight-curve $-1 -14.176571807766303 -11.574708000467716 9.6293464670653055 -1 0 0 I I #
coedge $-1 $340 $180 $183 $274 reversed $260 $-1 #
coedge $-1 $180 $340 $265 $345 forward $260 $-1 #
vertex $-1 $181 $347 #
straight-curve $-1 -17.22828404232795 -19.874826506483458 33.274348885565644 0 0 1 I I #
straight-curve $-1 -17.22828404232795 -19.874826506483473 1.32922776844444 0 -0.70710677298230451 -0.70710678939079041 I I #
edge $-1 $348 -39.478003188737262 $184 -17.22828404232795 $269 $349 forward 7 unknown #
point $-1 -17.22828404232795 -19.874826506483462 9.6293464670653055 #
point $-1 -17.22828404232795 -11.574708000467716 9.6293464670653055 #
edge $-1 $350 1 $350 0 $187 $-1 forward 7 unknown #
vertex $-1 $188 $351 #
ellipse-curve $-1 -28.353143615532606 -12.828352793444219 2.582872724935104 0 -0.70710678939079041 0.70710677298230451 1.5 0 0 1 I I #
point $-1 -26.853143615532606 -15.724767253475587 5.4792871177548736 #
loop $-1 $-1 $199 $191 #
plane-surface $-1 0 19.874826506483462 0 0 -1 0 0 0 -1 forward_v I I I I #
coedge $-1 $284 $194 $196 $288 reversed $118 $-1 #
coedge $-1 $194 $283 $352 $353 reversed $118 $-1 #
coedge $-1 $202 $197 $194 $286 forward $192 $-1 #
edge $-1 $289 -9.1859813925799436 $354 -4.4811066232272019 $285 $355 forward 7 unknown #
coedge $-1 $196 $195 $292 $356 reversed $74 $-1 #
edge $-1 $357 -39.749653012966903 $289 -33.607875140507659 $283 $358 forward 7 unknown #
vertex $-1 $198 $359 #
straight-curve $-1 5.4324352674632159 15.169951737130718 9.6293464670653073 1 0 0 I I #
coedge $-1 $352 $199 $202 $296 reversed $281 $-1 #
coedge $-1 $199 $352 $287 $356 forward $281 $-1 #
vertex $-1 $200 $360 #
straight-curve $-1 5.0718456256179962 19.874826506483462 50.943807123926526 0 0 1 I I #
straight-curve $-1 5.0718456256179962 -10.575174036494509 31.232072460795138 0 0.76604443648966558 -0.64278761758704617 I I #
edge $-1 $354 -16.657895444234867 $203 -5.0718456256179962 $291 $361 forward 7 unknown #
point $-1 5.0718456256179962 19.874826506483462 9.6293464670653055 #
point $-1 5.0718456256179962 15.16995173713072 9.6293464670653037 #
edge $-1 $362 1 $362 0 $206 $-1 forward 7 unknown #
vertex $-1 $207 $363 #
ellipse-curve $-1 8.3821455737942472 15.33408246214735 5.0474948151473464 0 0.64278761758704617 0.76604443648966558 1.5 0 0 1 I I #
point $-1 9.8821455737942472 17.522389121807073 7.6554170838718303 #
edge $-1 $364 1 $364 0 $210 $-1 forward 7 unknown #
vertex $-1 $211 $365 #
ellipse-curve $-1 13.347595496058624 15.33408246214735 5.0474948151473464 0 0.64278761758704617 0.76604443648966558 1.5 0 0 1 I I #
point $-1 14.847595496058624 17.522389121807073 7.6554170838718303 #
plane-surface $-1 46.117130039368874 0 0 -1 0 0 0 0 1 forward_v I I I I #
coedge $-1 $219 $217 $221 $312 reversed $140 $-1 #
edge $-1 $232 -9.6293464670653055 $314 9.6293464670653055 $231 $366 forward 7 unknown #
vertex $-1 $312 $367 #
straight-curve $-1 -46.117130039368874 -19.874826506483462 0 0 0 -1 I I #
edge $-1 $310 -19.874826506483462 $314 19.874826506483462 $308 $368 forward 7 unknown #
straight-curve $-1 0 -19.874826506483462 -9.6293464670653055 -1 0 0 I I #
vertex $-1 $224 $369 #
straight-curve $-1 0 19.874826506483462 -9.6293464670653055 1 0 0 I I #
point $-1 46.117130039368874 19.874826506483462 -9.6293464670653055 #
point $-1 46.117130039368874 -19.874826506483462 -9.6293464670653055 #
straight-curve $-1 -46.117130039368874 0 9.6293464670653055 0 -1 0 I I #
point $-1 -46.117130039368874 19.874826506483462 9.6293464670653055 #
point $-1 -46.117130039368874 -19.874826506483462 9.6293464670653055 #
straight-curve $-1 46.117130039368874 -19.874826506483462 0 0 0 -1 I I #
straight-curve $-1 46.117130039368874 19.874826506483462 0 0 0 -1 I I #
plane-surface $-1 0 -19.874826506483462 0 0 1 0 0 0 1 forward_v I I I I #
coedge $-1 $327 $370 $247 $331 forward $242 $-1 #
coedge $-1 $371 $244 $251 $336 reversed $159 $-1 #
coedge $-1 $244 $371 $255 $338 forward $159 $-1 #
coedge $-1 $372 $324 $245 $328 forward $242 $-1 #
edge $-1 $329 39.478003188737262 $373 46.117130039368874 $245 $374 forward 7 unknown #
vertex $-1 $328 $375 #
straight-curve $-1 -39.478003188737262 19.874826506483462 3.4102380324636377 0 0 -1 I I #
edge $-1 $333 -19.874826506483462 $329 19.874826506483462 $324 $376 forward 7 unknown #
coedge $-1 $251 $248 $370 $377 reversed $252 $-1 #
vertex $-1 $249 $378 #
straight-curve $-1 -39.478003188737262 -19.874826506483462 3.4102380324636377 0 0 1 I I #
straight-curve $-1 -46.117130039368874 0 4.0116056627892434 0 -1 0 I I #
edge $-1 $379 -9.6293464670653055 $253 -4.0116056627892434 $325 $380 forward 7 unknown #
point $-1 -46.117130039368874 -19.874826506483462 4.0116056627892434 #
edge $-1 $373 -9.6293464670653055 $256 -4.0116056627892434 $255 $381 forward 7 unknown #
point $-1 -46.117130039368874 19.874826506483462 4.0116056627892434 #
coedge $-1 $270 $269 $262 $341 forward $260 $-1 #
edge $-1 $348 23.645002418500336 $343 31.945121117121193 $340 $382 forward 7 unknown #
edge $-1 $267 11.574708000467718 $348 19.874826506483462 $266 $383 forward 7 unknown #
vertex $-1 $341 $384 #
straight-curve $-1 -39.478003188737262 -19.874826506483473 1.32922776844444 0 0.70710677298230451 0.70710678939079041 I I #
edge $-1 $343 -25.301431380970961 $271 -3.0517122345616468 $270 $385 forward 7 unknown #
point $-1 -39.478003188737262 -11.574708000467718 9.6293464670653055 #
point $-1 -17.22828404232795 -19.874826506483462 1.3292277684444507 #
vertex $-1 $274 $386 #
straight-curve $-1 0 -19.874826506483462 9.6293464670653055 1 0 0 I I #
vertex $-1 $277 $387 #
point $-1 -26.853143615532606 -12.828352793444219 2.582872724935104 #
coedge $-1 $292 $291 $284 $353 forward $281 $-1 #
edge $-1 $354 41.314460656861222 $357 45.26231942324813 $352 $388 forward 7 unknown #
vertex $-1 $296 $389 #
straight-curve $-1 16.657895444234867 24.355933129710664 9.6293464670653037 0 1 0 I I #
edge $-1 $357 -11.225460176771652 $293 0.36058964184521969 $292 $390 forward 7 unknown #
vertex $-1 $356 $391 #
straight-curve $-1 16.657895444234867 -10.575174036494509 31.232072460795138 0 -0.76604443648966558 0.64278761758704617 I I #
point $-1 16.657895444234867 15.16995173713072 9.6293464670653037 #
point $-1 5.0718456256179962 19.874826506483458 5.6814877006783924 #
straight-curve $-1 0 19.874826506483462 9.6293464670653055 -1 0 0 I I #
vertex $-1 $299 $392 #
point $-1 9.8821455737942472 15.33408246214735 5.0474948151473464 #
vertex $-1 $303 $393 #
point $-1 14.847595496058624 15.33408246214735 5.0474948151473464 #
straight-curve $-1 -46.117130039368874 19.874826506483462 0 0 0 -1 I I #
point $-1 -46.117130039368874 -19.874826506483462 -9.6293464670653055 #
straight-curve $-1 -46.117130039368874 0 -9.6293464670653055 0 1 0 I I #
point $-1 -46.117130039368874 19.874826506483462 -9.6293464670653055 #
coedge $-1 $324 $372 $332 $377 forward $242 $-1 #
coedge $-1 $326 $325 $372 $394 reversed $159 $-1 #
coedge $-1 $370 $327 $371 $394 forward $242 $-1 #
vertex $-1 $328 $395 #
straight-curve $-1 0 19.874826506483462 9.6293464670653055 -1 0 0 I I #
point $-1 -39.478003188737262 19.874826506483462 9.6293464670653073 #
straight-curve $-1 -39.478003188737262 0 9.6293464670653055 0 1 0 I I #
edge $-1 $379 -46.117130039368874 $333 -39.478003188737262 $332 $396 forward 7 unknown #
point $-1 -39.478003188737262 -19.874826506483462 9.6293464670653073 #
vertex $-1 $394 $397 #
straight-curve $-1 -46.117130039368874 -19.874826506483462 0 0 0 -1 I I #
straight-curve $-1 -46.117130039368874 19.874826506483462 0 0 0 -1 I I #
straight-curve $-1 -39.478003188737262 -19.874826506483458 33.274348885565644 0 0 -1 I I #
straight-curve $-1 -39.478003188737262 0 9.6293464670653055 0 -1 0 I I #
point $-1 -39.478003188737262 -19.874826506483462 1.3292277684444507 #
straight-curve $-1 -14.176571807766303 -19.874826506483462 1.3292277684444498 1 0 0 I I #
point $-1 -39.478003188737262 -19.874826506483462 9.6293464670653073 #
point $-1 -28.353143615532606 -11.767692609358035 1.522212565461647 #
straight-curve $-1 16.657895444234867 19.874826506483462 50.943807123926526 0 0 -1 I I #
point $-1 16.657895444234867 19.874826506483462 9.6293464670653055 #
straight-curve $-1 5.4324352674632159 19.874826506483462 5.681487700678387 -1 0 0 I I #
point $-1 16.657895444234867 19.874826506483458 5.6814877006783924 #
point $-1 8.3821455737942472 14.36990103576678 3.8984281604128479 #
point $-1 13.347595496058624 14.36990103576678 3.8984281604128479 #
edge $-1 $373 -19.874826506483462 $379 19.874826506483462 $371 $398 forward 7 unknown #
point $-1 -46.117130039368874 19.874826506483462 9.6293464670653055 #
straight-curve $-1 0 -19.874826506483462 9.6293464670653055 1 0 0 I I #
point $-1 -46.117130039368874 -19.874826506483462 9.6293464670653055 #
straight-curve $-1 -46.117130039368874 0 9.6293464670653055 0 -1 0 I I #
End-of-ACIS-data 