500 0 18 0           
7 Unknown 11 ACIS 5.0 NT 24 Thu Mar 25 19:58:58 1999 
-1 9.9999999999999995e-007 1e-010 
body $-1 $18 $-1 $19 #
body $-1 $20 $-1 $21 #
body $-1 $22 $-1 $23 #
body $-1 $24 $-1 $25 #
body $-1 $26 $-1 $27 #
body $-1 $28 $-1 $29 #
body $-1 $30 $-1 $31 #
body $-1 $32 $-1 $33 #
body $-1 $34 $-1 $35 #
body $-1 $36 $-1 $37 #
body $-1 $38 $-1 $39 #
body $-1 $40 $-1 $41 #
body $-1 $42 $-1 $43 #
body $-1 $44 $-1 $45 #
body $-1 $46 $-1 $47 #
body $-1 $48 $-1 $49 #
body $-1 $50 $-1 $51 #
body $-1 $52 $-1 $53 #
lump $-1 $-1 $54 $0 #
transform $-1 1 0 0 0 1 0 0 0 1 52.471083712271493 23.65274175482886 8.4344867186032673 1 rotate no_reflect no_shear #
lump $-1 $-1 $55 $1 #
transform $-1 1 0 0 0 1 0 0 0 1 52.471083712271493 23.65274175482886 8.4344867186032673 1 rotate no_reflect no_shear #
lump $-1 $-1 $56 $2 #
transform $-1 1 0 0 0 1 0 0 0 1 52.471083712271493 23.65274175482886 8.4344867186032673 1 rotate no_reflect no_shear #
lump $-1 $-1 $57 $3 #
transform $-1 1 0 0 0 1 0 0 0 1 52.471083712271493 23.65274175482886 8.4344867186032673 1 rotate no_reflect no_shear #
lump $-1 $-1 $58 $4 #
transform $-1 1 0 0 0 1 0 0 0 1 52.471083712271493 23.65274175482886 8.4344867186032673 1 rotate no_reflect no_shear #
lump $-1 $-1 $59 $5 #
transform $-1 1 0 0 0 1 0 0 0 1 52.471083712271493 23.65274175482886 8.4344867186032673 1 rotate no_reflect no_shear #
lump $-1 $-1 $60 $6 #
transform $-1 1 0 0 0 1 0 0 0 1 52.471083712271493 23.65274175482886 8.4344867186032673 1 rotate no_reflect no_shear #
lump $-1 $-1 $61 $7 #
transform $-1 1 0 0 0 1 0 0 0 1 52.471083712271493 23.65274175482886 8.4344867186032673 1 rotate no_reflect no_shear #
lump $-1 $-1 $62 $8 #
transform $-1 1 0 0 0 1 0 0 0 1 52.471083712271493 23.65274175482886 8.4344867186032673 1 rotate no_reflect no_shear #
lump $-1 $-1 $63 $9 #
transform $-1 1 0 0 0 1 0 0 0 1 52.471083712271493 23.65274175482886 8.4344867186032673 1 rotate no_reflect no_shear #
lump $-1 $-1 $64 $10 #
transform $-1 1 0 0 0 1 0 0 0 1 52.471083712271493 23.65274175482886 8.4344867186032673 1 rotate no_reflect no_shear #
lump $-1 $-1 $65 $11 #
transform $-1 1 0 0 0 1 0 0 0 1 52.471083712271493 23.65274175482886 8.4344867186032673 1 rotate no_reflect no_shear #
lump $-1 $-1 $66 $12 #
transform $-1 1 0 0 0 1 0 0 0 1 52.471083712271493 23.65274175482886 8.4344867186032673 1 rotate no_reflect no_shear #
lump $-1 $-1 $67 $13 #
transform $-1 1 0 0 0 1 0 0 0 1 52.471083712271493 23.65274175482886 8.4344867186032673 1 rotate no_reflect no_shear #
lump $-1 $-1 $68 $14 #
transform $-1 1 0 0 0 1 0 0 0 1 52.471083712271493 23.65274175482886 8.4344867186032673 1 rotate no_reflect no_shear #
lump $-1 $-1 $69 $15 #
transform $-1 1 0 0 0 1 0 0 0 1 52.471083712271493 23.65274175482886 8.4344867186032673 1 rotate no_reflect no_shear #
lump $-1 $-1 $70 $16 #
transform $-1 1 0 0 0 1 0 0 0 1 52.471083712271493 23.65274175482886 8.4344867186032673 1 rotate no_reflect no_shear #
lump $-1 $-1 $71 $17 #
transform $-1 1 0 0 0 1 0 0 0 1 52.471083712271493 23.65274175482886 8.4344867186032673 1 rotate no_reflect no_shear #
shell $-1 $-1 $-1 $72 $-1 $18 #
shell $-1 $-1 $-1 $73 $-1 $20 #
shell $-1 $-1 $-1 $74 $-1 $22 #
shell $-1 $-1 $-1 $75 $-1 $24 #
shell $-1 $-1 $-1 $76 $-1 $26 #
shell $-1 $-1 $-1 $77 $-1 $28 #
shell $-1 $-1 $-1 $78 $-1 $30 #
shell $-1 $-1 $-1 $79 $-1 $32 #
shell $-1 $-1 $-1 $80 $-1 $34 #
shell $-1 $-1 $-1 $81 $-1 $36 #
shell $-1 $-1 $-1 $82 $-1 $38 #
shell $-1 $-1 $-1 $83 $-1 $40 #
shell $-1 $-1 $-1 $84 $-1 $42 #
shell $-1 $-1 $-1 $85 $-1 $44 #
shell $-1 $-1 $-1 $86 $-1 $46 #
shell $-1 $-1 $-1 $87 $-1 $48 #
shell $-1 $-1 $-1 $88 $-1 $50 #
shell $-1 $-1 $-1 $89 $-1 $52 #
face $-1 $90 $91 $54 $-1 $92 forward single #
face $-1 $93 $94 $55 $-1 $95 forward single #
face $-1 $96 $97 $56 $-1 $98 reversed single #
face $-1 $99 $100 $57 $-1 $101 forward single #
face $-1 $102 $103 $58 $-1 $104 forward single #
face $-1 $105 $106 $59 $-1 $107 reversed single #
face $-1 $108 $109 $60 $-1 $110 forward single #
face $-1 $111 $112 $61 $-1 $113 forward single #
face $-1 $114 $115 $62 $-1 $116 reversed single #
face $-1 $117 $118 $63 $-1 $119 forward single #
face $-1 $120 $121 $64 $-1 $122 forward single #
face $-1 $123 $124 $65 $-1 $125 reversed single #
face $-1 $126 $127 $66 $-1 $128 forward single #
face $-1 $129 $130 $67 $-1 $131 forward single #
face $-1 $132 $133 $68 $-1 $134 reversed single #
face $-1 $135 $136 $69 $-1 $137 forward single #
face $-1 $138 $139 $70 $-1 $140 reversed single #
face $-1 $141 $142 $71 $-1 $143 forward single #
face $-1 $144 $145 $54 $-1 $146 reversed single #
loop $-1 $-1 $147 $72 #
plane-surface $-1 0 0 8.4344867186032673 0 0 1 1 0 0 forward_v I I I I #
face $-1 $148 $149 $55 $-1 $150 reversed single #
loop $-1 $-1 $151 $73 #
plane-surface $-1 -52.471083712271493 0 0 1 0 0 0 0 -1 forward_v I I I I #
face $-1 $152 $153 $56 $-1 $154 reversed single #
loop $-1 $-1 $155 $74 #
plane-surface $-1 -21.717082272790336 -104.04310682887947 68.906069309203673 -1 0 0 0 -0.7660444514056185 0.64278759981090561 forward_v I I I I #
face $-1 $156 $157 $57 $-1 $158 forward single #
loop $-1 $159 $160 $75 #
cone-surface $-1 -31.836262421894979 -19.837378935042221 4.1997017828989218 0 0.7660444514056185 -0.64278759981090561 1.5 0 0 1 I I 0 1 1.5 forward I I I I #
face $-1 $161 $162 $58 $-1 $163 forward single #
loop $-1 $164 $165 $76 #
cone-surface $-1 -25.764754332432194 -19.837378935042221 4.1997017828989218 0 0.7660444514056185 -0.64278759981090561 1.5 0 0 1 I I 0 1 1.5 forward I I I I #
face $-1 $166 $167 $59 $-1 $168 reversed single #
loop $-1 $-1 $169 $77 #
plane-surface $-1 -0.5085390954166602 -104.04310682887947 68.906069309203673 -1 0 0 0 -0.7660444514056185 0.64278759981090561 forward_v I I I I #
face $-1 $170 $171 $60 $-1 $172 forward single #
loop $-1 $173 $174 $78 #
cone-surface $-1 -10.627719244521302 -19.837378935042221 4.1997017828989218 0 0.7660444514056185 -0.64278759981090561 1.5 0 0 1 I I 0 1 1.5 forward I I I I #
face $-1 $175 $176 $61 $-1 $177 forward single #
loop $-1 $178 $179 $79 #
cone-surface $-1 -4.5562111550585129 -19.837378935042221 4.1997017828989218 0 0.7660444514056185 -0.64278759981090561 1.5 0 0 1 I I 0 1 1.5 forward I I I I #
face $-1 $180 $181 $62 $-1 $182 reversed single #
loop $-1 $-1 $183 $80 #
plane-surface $-1 20.700004081957026 -104.04310682887947 68.906069309203673 -1 0 0 0 -0.7660444514056185 0.64278759981090561 forward_v I I I I #
face $-1 $184 $185 $63 $-1 $186 forward single #
loop $-1 $187 $188 $81 #
cone-surface $-1 10.580823932852383 -19.837378935042221 4.1997017828989218 0 0.7660444514056185 -0.64278759981090561 1.5 0 0 1 I I 0 1 1.5 forward I I I I #
face $-1 $189 $190 $64 $-1 $191 forward single #
loop $-1 $192 $193 $82 #
cone-surface $-1 16.652332022315164 -19.837378935042221 4.1997017828989218 0 0.7660444514056185 -0.64278759981090561 1.5 0 0 1 I I 0 1 1.5 forward I I I I #
face $-1 $194 $195 $65 $-1 $196 reversed single #
loop $-1 $-1 $197 $83 #
plane-surface $-1 41.90854725933071 -104.04310682887947 68.906069309203673 -1 0 0 0 -0.7660444514056185 0.64278759981090561 forward_v I I I I #
face $-1 $198 $199 $66 $-1 $200 forward single #
loop $-1 $201 $202 $84 #
cone-surface $-1 31.789367110226067 -19.837378935042221 4.1997017828989218 0 0.7660444514056185 -0.64278759981090561 1.5 0 0 1 I I 0 1 1.5 forward I I I I #
face $-1 $203 $204 $67 $-1 $205 forward single #
loop $-1 $206 $207 $85 #
cone-surface $-1 37.860875199688849 -19.837378935042221 4.1997017828989218 0 0.7660444514056185 -0.64278759981090561 1.5 0 0 1 I I 0 1 1.5 forward I I I I #
face $-1 $208 $209 $68 $-1 $210 reversed single #
loop $-1 $-1 $211 $86 #
plane-surface $-1 -19.80934129378667 73.635728625812192 107.10604091957781 1 0 0 0 -0.7660444514056185 -0.64278759981090561 forward_v I I I I #
face $-1 $212 $213 $69 $-1 $214 forward single #
loop $-1 $215 $216 $87 #
cone-surface $-1 -8.3985174524448638 20.461213516744092 5.0134311932871398 0 -0.7660444514056185 -0.64278759981090561 1 0 0 1 I I 0 1 1 forward I I I I #
face $-1 $217 $218 $70 $-1 $219 reversed single #
loop $-1 $-1 $220 $88 #
plane-surface $-1 -8.3985174524448638 -6.7546364482384149 39.650517001801617 0 0.7660444514056185 0.64278759981090561 1 0 0 forward_v I I I I #
face $-1 $221 $222 $71 $-1 $223 forward single #
loop $-1 $224 $225 $89 #
cone-surface $-1 14.423130230238755 20.461213516744092 5.0134311932871398 0 -0.7660444514056185 -0.64278759981090561 1 0 0 1 I I 0 1 1 forward I I I I #
face $-1 $226 $227 $54 $-1 $228 reversed single #
loop $-1 $-1 $229 $90 #
plane-surface $-1 0 0 -8.4344867186032673 0 0 1 1 0 0 forward_v I I I I #
coedge $-1 $230 $231 $232 $233 forward $91 $-1 #
face $-1 $234 $235 $55 $-1 $236 forward single #
loop $-1 $-1 $237 $93 #
plane-surface $-1 0 23.65274175482886 0 0 -1 0 0 0 -1 forward_v I I I I #
coedge $-1 $238 $239 $240 $241 forward $94 $-1 #
face $-1 $242 $243 $56 $-1 $244 reversed single #
loop $-1 $-1 $245 $96 #
plane-surface $-1 -28.800508377163588 -23.652741754828867 1.4505453914274824 0 -0.7660444514056185 0.64278759981090561 1 0 0 forward_v I I I I #
coedge $-1 $246 $247 $248 $249 reversed $97 $-1 #
face $-1 $-1 $250 $57 $-1 $251 forward single #
loop $-1 $252 $253 $99 #
cone-surface $-1 -31.836262421894979 -18.377593995886023 2.9747968109242908 0 0.7660444514056185 -0.64278759981090561 0.75 0 0 1 I I -0.70710678118654757 0.70710678118654757 0.75 forward I I I I #
loop $-1 $-1 $254 $75 #
coedge $-1 $160 $160 $255 $256 reversed $100 $-1 #
face $-1 $-1 $257 $58 $-1 $258 forward single #
loop $-1 $259 $260 $102 #
cone-surface $-1 -25.764754332432194 -18.377593995886023 2.9747968109242908 0 0.7660444514056185 -0.64278759981090561 0.75 0 0 1 I I -0.70710678118654757 0.70710678118654757 0.75 forward I I I I #
loop $-1 $-1 $261 $76 #
coedge $-1 $165 $165 $262 $263 reversed $103 $-1 #
face $-1 $264 $265 $59 $-1 $266 reversed single #
loop $-1 $-1 $267 $105 #
plane-surface $-1 -7.5919651997899109 -23.652741754828867 1.4505453914274824 0 -0.7660444514056185 0.64278759981090561 1 0 0 forward_v I I I I #
coedge $-1 $268 $269 $270 $271 reversed $106 $-1 #
face $-1 $-1 $272 $60 $-1 $273 forward single #
loop $-1 $274 $275 $108 #
cone-surface $-1 -10.627719244521302 -18.377593995886023 2.9747968109242908 0 0.7660444514056185 -0.64278759981090561 0.75 0 0 1 I I -0.70710678118654757 0.70710678118654757 0.75 forward I I I I #
loop $-1 $-1 $276 $78 #
coedge $-1 $174 $174 $277 $278 reversed $109 $-1 #
face $-1 $-1 $279 $61 $-1 $280 forward single #
loop $-1 $281 $282 $111 #
cone-surface $-1 -4.5562111550585129 -18.377593995886023 2.9747968109242908 0 0.7660444514056185 -0.64278759981090561 0.75 0 0 1 I I -0.70710678118654757 0.70710678118654757 0.75 forward I I I I #
loop $-1 $-1 $283 $79 #
coedge $-1 $179 $179 $284 $285 reversed $112 $-1 #
face $-1 $286 $287 $62 $-1 $288 reversed single #
loop $-1 $-1 $289 $114 #
plane-surface $-1 13.616577977583773 -23.652741754828867 1.4505453914274824 0 -0.7660444514056185 0.64278759981090561 1 0 0 forward_v I I I I #
coedge $-1 $290 $291 $292 $293 reversed $115 $-1 #
face $-1 $-1 $294 $63 $-1 $295 forward single #
loop $-1 $296 $297 $117 #
cone-surface $-1 10.580823932852383 -18.377593995886023 2.9747968109242908 0 0.7660444514056185 -0.64278759981090561 0.75 0 0 1 I I -0.70710678118654757 0.70710678118654757 0.75 forward I I I I #
loop $-1 $-1 $298 $81 #
coedge $-1 $188 $188 $299 $300 reversed $118 $-1 #
face $-1 $-1 $301 $64 $-1 $302 forward single #
loop $-1 $303 $304 $120 #
cone-surface $-1 16.652332022315164 -18.377593995886023 2.9747968109242908 0 0.7660444514056185 -0.64278759981090561 0.75 0 0 1 I I -0.70710678118654757 0.70710678118654757 0.75 forward I I I I #
loop $-1 $-1 $305 $82 #
coedge $-1 $193 $193 $306 $307 reversed $121 $-1 #
face $-1 $308 $309 $65 $-1 $310 reversed single #
loop $-1 $-1 $311 $123 #
plane-surface $-1 34.825121154957458 -23.652741754828867 1.4505453914274824 0 -0.7660444514056185 0.64278759981090561 1 0 0 forward_v I I I I #
coedge $-1 $312 $313 $314 $315 reversed $124 $-1 #
face $-1 $-1 $316 $66 $-1 $317 forward single #
loop $-1 $318 $319 $126 #
cone-surface $-1 31.789367110226067 -18.377593995886023 2.9747968109242908 0 0.7660444514056185 -0.64278759981090561 0.75 0 0 1 I I -0.70710678118654757 0.70710678118654757 0.75 forward I I I I #
loop $-1 $-1 $320 $84 #
coedge $-1 $202 $202 $321 $322 reversed $127 $-1 #
face $-1 $-1 $323 $67 $-1 $324 forward single #
loop $-1 $325 $326 $129 #
cone-surface $-1 37.860875199688849 -18.377593995886023 2.9747968109242908 0 0.7660444514056185 -0.64278759981090561 0.75 0 0 1 I I -0.70710678118654757 0.70710678118654757 0.75 forward I I I I #
loop $-1 $-1 $327 $85 #
coedge $-1 $207 $207 $328 $329 reversed $130 $-1 #
face $-1 $330 $331 $68 $-1 $332 reversed single #
loop $-1 $-1 $333 $132 #
plane-surface $-1 -8.3985174524448638 -6.7546364482384149 39.650517001801617 0 0.7660444514056185 0.64278759981090561 1 0 0 forward_v I I I I #
coedge $-1 $334 $335 $336 $337 reversed $133 $-1 #
face $-1 $-1 $338 $69 $-1 $339 forward single #
loop $-1 $340 $341 $135 #
cone-surface $-1 -8.3985174524448638 18.993672748651655 3.7820183082830212 0 -0.7660444514056185 -0.64278759981090561 0.5 0 0 1 I I -0.70710678118654746 0.70710678118654746 0.5 forward I I I I #
loop $-1 $-1 $342 $87 #
coedge $-1 $216 $216 $343 $344 reversed $136 $-1 #
face $-1 $345 $346 $70 $-1 $347 forward single #
loop $-1 $-1 $348 $138 #
plane-surface $-1 25.83395407158056 73.635728625812192 107.10604091957781 -1 0 0 0 0.7660444514056185 0.64278759981090561 forward_v I I I I #
coedge $-1 $349 $350 $351 $352 reversed $139 $-1 #
face $-1 $-1 $353 $71 $-1 $354 forward single #
loop $-1 $355 $356 $141 #
cone-surface $-1 14.423130230238755 18.993672748651655 3.7820183082830212 0 -0.7660444514056185 -0.64278759981090561 0.5 0 0 1 I I -0.70710678118654746 0.70710678118654746 0.5 forward I I I I #
loop $-1 $-1 $357 $89 #
coedge $-1 $225 $225 $358 $359 reversed $142 $-1 #
face $-1 $360 $361 $54 $-1 $362 reversed single #
loop $-1 $-1 $363 $144 #
plane-surface $-1 0 -23.65274175482886 0 0 1 0 0 0 1 forward_v I I I I #
coedge $-1 $364 $365 $366 $367 forward $145 $-1 #
coedge $-1 $368 $147 $369 $370 forward $91 $-1 #
coedge $-1 $147 $368 $371 $372 forward $91 $-1 #
coedge $-1 $373 $374 $147 $233 reversed $375 $-1 #
edge $-1 $376 -23.65274175482886 $377 23.65274175482886 $232 $378 forward 7 unknown #
face $-1 $379 $380 $55 $-1 $381 reversed single #
loop $-1 $-1 $240 $148 #
plane-surface $-1 -55.483390101168432 0 -5.0652738929006347 0 0 1 1 0 0 forward_v I I I I #
coedge $-1 $382 $383 $239 $384 forward $149 $-1 #
coedge $-1 $385 $151 $386 $387 reversed $94 $-1 #
coedge $-1 $151 $385 $237 $384 reversed $94 $-1 #
coedge $-1 $388 $389 $151 $241 reversed $235 $-1 #
edge $-1 $390 -23.65274175482886 $391 23.65274175482886 $240 $392 forward 7 unknown #
face $-1 $393 $394 $56 $-1 $395 reversed single #
loop $-1 $-1 $396 $152 #
plane-surface $-1 -35.883934481536841 -104.04310682887947 68.906069309203673 1 0 0 0 0.7660444514056185 -0.64278759981090561 forward_v I I I I #
coedge $-1 $397 $398 $399 $400 reversed $153 $-1 #
coedge $-1 $247 $155 $401 $402 reversed $97 $-1 #
coedge $-1 $155 $246 $397 $403 reversed $97 $-1 #
coedge $-1 $399 $404 $155 $249 forward $405 $-1 #
edge $-1 $406 28.368811659610877 $407 34.229034097980175 $248 $408 forward 7 unknown #
loop $-1 $-1 $255 $156 #
plane-surface $-1 -28.800508377163588 -23.652741754828867 1.4505453914274824 0 -0.7660444514056185 0.64278759981090561 1 0 0 forward_v I I I I #
loop $-1 $-1 $409 $99 #
coedge $-1 $253 $253 $254 $410 reversed $157 $-1 #
coedge $-1 $254 $254 $253 $410 forward $159 $-1 #
coedge $-1 $255 $255 $160 $256 forward $250 $-1 #
edge $-1 $411 3.2331713013742915e-016 $411 6.2831853071796004 $255 $412 forward 7 unknown #
loop $-1 $-1 $262 $161 #
plane-surface $-1 -28.800508377163588 -23.652741754828867 1.4505453914274824 0 -0.7660444514056185 0.64278759981090561 1 0 0 forward_v I I I I #
loop $-1 $-1 $413 $102 #
coedge $-1 $260 $260 $261 $414 reversed $162 $-1 #
coedge $-1 $261 $261 $260 $414 forward $164 $-1 #
coedge $-1 $262 $262 $165 $263 forward $257 $-1 #
edge $-1 $415 3.2331713013742915e-016 $415 6.2831853071796004 $262 $416 forward 7 unknown #
face $-1 $417 $418 $59 $-1 $419 reversed single #
loop $-1 $-1 $420 $166 #
plane-surface $-1 -14.675391304163162 -104.04310682887947 68.906069309203673 1 0 0 0 0.7660444514056185 -0.64278759981090561 forward_v I I I I #
coedge $-1 $421 $422 $423 $424 reversed $167 $-1 #
coedge $-1 $269 $169 $425 $426 reversed $106 $-1 #
coedge $-1 $169 $268 $421 $427 reversed $106 $-1 #
coedge $-1 $423 $428 $169 $271 forward $429 $-1 #
edge $-1 $430 28.368811659610877 $431 34.229034097980175 $270 $432 forward 7 unknown #
loop $-1 $-1 $277 $170 #
plane-surface $-1 -7.5919651997899109 -23.652741754828867 1.4505453914274824 0 -0.7660444514056185 0.64278759981090561 1 0 0 forward_v I I I I #
loop $-1 $-1 $433 $108 #
coedge $-1 $275 $275 $276 $434 reversed $171 $-1 #
coedge $-1 $276 $276 $275 $434 forward $173 $-1 #
coedge $-1 $277 $277 $174 $278 forward $272 $-1 #
edge $-1 $435 3.2331713013742915e-016 $435 6.2831853071796004 $277 $436 forward 7 unknown #
loop $-1 $-1 $284 $175 #
plane-surface $-1 -7.5919651997899109 -23.652741754828867 1.4505453914274824 0 -0.7660444514056185 0.64278759981090561 1 0 0 forward_v I I I I #
loop $-1 $-1 $437 $111 #
coedge $-1 $282 $282 $283 $438 reversed $176 $-1 #
coedge $-1 $283 $283 $282 $438 forward $178 $-1 #
coedge $-1 $284 $284 $179 $285 forward $279 $-1 #
edge $-1 $439 3.2331713013742915e-016 $439 6.2831853071796004 $284 $440 forward 7 unknown #
face $-1 $441 $442 $62 $-1 $443 reversed single #
loop $-1 $-1 $444 $180 #
plane-surface $-1 6.5331518732105227 -104.04310682887947 68.906069309203673 1 0 0 0 0.7660444514056185 -0.64278759981090561 forward_v I I I I #
coedge $-1 $445 $446 $447 $448 reversed $181 $-1 #
coedge $-1 $291 $183 $449 $450 reversed $115 $-1 #
coedge $-1 $183 $290 $445 $451 reversed $115 $-1 #
coedge $-1 $447 $452 $183 $293 forward $453 $-1 #
edge $-1 $454 28.368811659610877 $455 34.229034097980175 $292 $456 forward 7 unknown #
loop $-1 $-1 $299 $184 #
plane-surface $-1 13.616577977583773 -23.652741754828867 1.4505453914274824 0 -0.7660444514056185 0.64278759981090561 1 0 0 forward_v I I I I #
loop $-1 $-1 $457 $117 #
coedge $-1 $297 $297 $298 $458 reversed $185 $-1 #
coedge $-1 $298 $298 $297 $458 forward $187 $-1 #
coedge $-1 $299 $299 $188 $300 forward $294 $-1 #
edge $-1 $459 3.2331713013742915e-016 $459 6.2831853071796004 $299 $460 forward 7 unknown #
loop $-1 $-1 $306 $189 #
plane-surface $-1 13.616577977583773 -23.652741754828867 1.4505453914274824 0 -0.7660444514056185 0.64278759981090561 1 0 0 forward_v I I I I #
loop $-1 $-1 $461 $120 #
coedge $-1 $304 $304 $305 $462 reversed $190 $-1 #
coedge $-1 $305 $305 $304 $462 forward $192 $-1 #
coedge $-1 $306 $306 $193 $307 forward $301 $-1 #
edge $-1 $463 3.2331713013742915e-016 $463 6.2831853071796004 $306 $464 forward 7 unknown #
face $-1 $465 $466 $65 $-1 $467 reversed single #
loop $-1 $-1 $468 $194 #
plane-surface $-1 27.741695050584205 -104.04310682887947 68.906069309203673 1 0 0 0 0.7660444514056185 -0.64278759981090561 forward_v I I I I #
coedge $-1 $469 $470 $471 $472 reversed $195 $-1 #
coedge $-1 $313 $197 $473 $474 reversed $124 $-1 #
coedge $-1 $197 $312 $469 $475 reversed $124 $-1 #
coedge $-1 $471 $476 $197 $315 forward $477 $-1 #
edge $-1 $478 28.368811659610877 $479 34.229034097980175 $314 $480 forward 7 unknown #
loop $-1 $-1 $321 $198 #
plane-surface $-1 34.825121154957458 -23.652741754828867 1.4505453914274824 0 -0.7660444514056185 0.64278759981090561 1 0 0 forward_v I I I I #
loop $-1 $-1 $481 $126 #
coedge $-1 $319 $319 $320 $482 reversed $199 $-1 #
coedge $-1 $320 $320 $319 $482 forward $201 $-1 #
coedge $-1 $321 $321 $202 $322 forward $316 $-1 #
edge $-1 $483 3.2331713013742915e-016 $483 6.2831853071796004 $321 $484 forward 7 unknown #
loop $-1 $-1 $328 $203 #
plane-surface $-1 34.825121154957458 -23.652741754828867 1.4505453914274824 0 -0.7660444514056185 0.64278759981090561 1 0 0 forward_v I I I I #
loop $-1 $-1 $485 $129 #
coedge $-1 $326 $326 $327 $486 reversed $204 $-1 #
coedge $-1 $327 $327 $326 $486 forward $206 $-1 #
coedge $-1 $328 $328 $207 $329 forward $323 $-1 #
edge $-1 $487 3.2331713013742915e-016 $487 6.2831853071796004 $328 $488 forward 7 unknown #
face $-1 $489 $490 $68 $-1 $491 forward single #
loop $-1 $-1 $492 $208 #
plane-surface $-1 3.0123063888969419 73.635728625812192 107.10604091957781 -1 0 0 0 0.7660444514056185 0.64278759981090561 forward_v I I I I #
coedge $-1 $493 $494 $495 $496 reversed $209 $-1 #
coedge $-1 $335 $211 $497 $498 reversed $133 $-1 #
coedge $-1 $211 $334 $493 $499 reversed $133 $-1 #
coedge $-1 $495 $500 $211 $337 forward $490 $-1 #
edge $-1 $501 13.165122558077236 $502 17.379141949467535 $336 $503 forward 7 unknown #
loop $-1 $-1 $343 $212 #
plane-surface $-1 -8.3985174524448638 -6.7546364482384149 39.650517001801617 0 0.7660444514056185 0.64278759981090561 1 0 0 forward_v I I I I #
loop $-1 $-1 $504 $135 #
coedge $-1 $341 $341 $342 $505 reversed $213 $-1 #
coedge $-1 $342 $342 $341 $505 forward $215 $-1 #
coedge $-1 $343 $343 $216 $344 forward $338 $-1 #
edge $-1 $506 -6.3330475772976726e-016 $506 6.2831853071795996 $343 $507 forward 7 unknown #
face $-1 $508 $509 $70 $-1 $510 forward single #
loop $-1 $-1 $511 $217 #
plane-surface $-1 0 0 8.4344867186032673 0 0 1 1 0 0 forward_v I I I I #
coedge $-1 $512 $513 $514 $515 reversed $218 $-1 #
coedge $-1 $516 $220 $517 $518 reversed $139 $-1 #
coedge $-1 $220 $516 $511 $519 reversed $139 $-1 #
coedge $-1 $520 $521 $220 $352 forward $509 $-1 #
edge $-1 $522 -47.305483509657755 $523 -40.749633034897549 $351 $524 forward 7 unknown #
loop $-1 $-1 $358 $221 #
plane-surface $-1 -8.3985174524448638 -6.7546364482384149 39.650517001801617 0 0.7660444514056185 0.64278759981090561 1 0 0 forward_v I I I I #
loop $-1 $-1 $525 $141 #
coedge $-1 $356 $356 $357 $526 reversed $222 $-1 #
coedge $-1 $357 $357 $356 $526 forward $224 $-1 #
coedge $-1 $358 $358 $225 $359 forward $353 $-1 #
edge $-1 $527 -6.3330475772976726e-016 $527 6.2831853071795996 $358 $528 forward 7 unknown #
face $-1 $529 $530 $54 $-1 $531 reversed single #
loop $-1 $-1 $532 $226 #
plane-surface $-1 -52.471083712271493 0 0 1 0 0 0 0 -1 forward_v I I I I #
coedge $-1 $533 $371 $534 $535 forward $227 $-1 #
coedge $-1 $536 $229 $533 $537 forward $145 $-1 #
coedge $-1 $229 $536 $538 $539 forward $145 $-1 #
coedge $-1 $374 $373 $229 $367 reversed $375 $-1 #
edge $-1 $540 -23.65274175482886 $541 23.65274175482886 $366 $542 forward 7 unknown #
coedge $-1 $231 $230 $543 $544 forward $91 $-1 #
coedge $-1 $545 $546 $230 $370 reversed $530 $-1 #
edge $-1 $377 -52.471083712271493 $547 52.471083712271493 $369 $548 forward 7 unknown #
coedge $-1 $363 $549 $231 $372 reversed $227 $-1 #
edge $-1 $550 -52.471083712271493 $376 52.471083712271493 $371 $551 forward 7 unknown #
coedge $-1 $366 $232 $549 $552 forward $375 $-1 #
coedge $-1 $232 $366 $545 $553 reversed $375 $-1 #
loop $-1 $-1 $373 $529 #
vertex $-1 $233 $554 #
vertex $-1 $233 $555 #
straight-curve $-1 52.471083712271493 0 8.4344867186032673 0 1 0 I I #
face $-1 $556 $557 $55 $-1 $558 reversed single #
loop $-1 $-1 $559 $234 #
plane-surface $-1 -58.49569649006537 0 -6.749880305751951 1 0 0 0 0 -1 forward_v I I I I #
coedge $-1 $560 $237 $561 $562 reversed $149 $-1 #
coedge $-1 $237 $560 $388 $563 reversed $149 $-1 #
edge $-1 $390 5.0652738929006347 $564 8.4344867186032673 $237 $565 forward 7 unknown #
coedge $-1 $239 $238 $566 $567 reversed $94 $-1 #
coedge $-1 $568 $569 $238 $387 forward $570 $-1 #
edge $-1 $571 -8.4344867186032673 $391 -5.0652738929006347 $386 $572 forward 7 unknown #
coedge $-1 $573 $240 $383 $563 forward $235 $-1 #
coedge $-1 $240 $573 $568 $574 forward $235 $-1 #
vertex $-1 $384 $575 #
vertex $-1 $574 $576 #
straight-curve $-1 -52.471083712271493 0 -5.0652738929006347 0 -1 0 I I #
face $-1 $-1 $405 $56 $-1 $577 forward single #
loop $-1 $-1 $578 $242 #
plane-surface $-1 0 -23.65274175482886 0 0 1 0 0 0 1 forward_v I I I I #
coedge $-1 $579 $580 $581 $582 reversed $243 $-1 #
coedge $-1 $583 $245 $247 $403 forward $153 $-1 #
coedge $-1 $245 $583 $579 $584 forward $153 $-1 #
coedge $-1 $581 $248 $245 $400 forward $405 $-1 #
edge $-1 $407 7.3168280842085416 $585 21.483680292955047 $399 $586 forward 7 unknown #
coedge $-1 $587 $588 $246 $402 forward $394 $-1 #
edge $-1 $589 -33.002489263174347 $406 -26.018547935998569 $401 $590 forward 7 unknown #
edge $-1 $407 -9.1168878181428248 $589 -1.1030930024383267e-014 $247 $591 forward 7 unknown #
coedge $-1 $248 $581 $587 $592 forward $405 $-1 #
loop $-1 $-1 $581 $393 #
vertex $-1 $402 $593 #
vertex $-1 $249 $594 #
straight-curve $-1 -21.717082272790336 -52.021553414439737 8.4344867186032673 0 1 0 I I #
coedge $-1 $409 $409 $-1 $595 reversed $252 $-1 #
edge $-1 $596 0 $596 6.2831853071796004 $253 $597 forward 7 unknown #
vertex $-1 $256 $598 #
ellipse-curve $-1 -31.836262421894979 -20.72263053564421 4.9425160550153784 0 -0.7660444514056185 0.64278759981090561 1.5 0 0 1 I I #
coedge $-1 $413 $413 $-1 $599 reversed $259 $-1 #
edge $-1 $600 0 $600 6.2831853071796004 $260 $601 forward 7 unknown #
vertex $-1 $263 $602 #
ellipse-curve $-1 -25.764754332432194 -20.72263053564421 4.9425160550153784 0 -0.7660444514056185 0.64278759981090561 1.5 0 0 1 I I #
face $-1 $-1 $429 $59 $-1 $603 forward single #
loop $-1 $-1 $604 $264 #
plane-surface $-1 0 -23.65274175482886 0 0 1 0 0 0 1 forward_v I I I I #
coedge $-1 $605 $606 $607 $608 reversed $265 $-1 #
coedge $-1 $609 $267 $269 $427 forward $167 $-1 #
coedge $-1 $267 $609 $605 $610 forward $167 $-1 #
coedge $-1 $607 $270 $267 $424 forward $429 $-1 #
edge $-1 $431 -3.2874435044782953 $611 10.879408704268206 $423 $612 forward 7 unknown #
coedge $-1 $613 $614 $268 $426 forward $418 $-1 #
edge $-1 $615 -33.002489263174347 $430 -26.018547935998569 $425 $616 forward 7 unknown #
edge $-1 $431 -9.1168878181428248 $615 -1.1030930024383267e-014 $269 $617 forward 7 unknown #
coedge $-1 $270 $607 $613 $618 forward $429 $-1 #
loop $-1 $-1 $607 $417 #
vertex $-1 $426 $619 #
vertex $-1 $271 $620 #
straight-curve $-1 -0.5085390954166602 -52.021553414439737 8.4344867186032673 0 1 0 I I #
coedge $-1 $433 $433 $-1 $621 reversed $274 $-1 #
edge $-1 $622 0 $622 6.2831853071796004 $275 $623 forward 7 unknown #
vertex $-1 $278 $624 #
ellipse-curve $-1 -10.627719244521302 -20.72263053564421 4.9425160550153784 0 -0.7660444514056185 0.64278759981090561 1.5 0 0 1 I I #
coedge $-1 $437 $437 $-1 $625 reversed $281 $-1 #
edge $-1 $626 0 $626 6.2831853071796004 $282 $627 forward 7 unknown #
vertex $-1 $285 $628 #
ellipse-curve $-1 -4.5562111550585129 -20.72263053564421 4.9425160550153784 0 -0.7660444514056185 0.64278759981090561 1.5 0 0 1 I I #
face $-1 $-1 $453 $62 $-1 $629 forward single #
loop $-1 $-1 $630 $286 #
plane-surface $-1 0 -23.65274175482886 0 0 1 0 0 0 1 forward_v I I I I #
coedge $-1 $631 $632 $633 $634 reversed $287 $-1 #
coedge $-1 $635 $289 $291 $451 forward $181 $-1 #
coedge $-1 $289 $635 $631 $636 forward $181 $-1 #
coedge $-1 $633 $292 $289 $448 forward $453 $-1 #
edge $-1 $455 -13.891715093165139 $637 0.275137115581364 $447 $638 forward 7 unknown #
coedge $-1 $639 $640 $290 $450 forward $442 $-1 #
edge $-1 $641 -33.002489263174347 $454 -26.018547935998569 $449 $642 forward 7 unknown #
edge $-1 $455 -9.1168878181428248 $641 -1.1030930024383267e-014 $291 $643 forward 7 unknown #
coedge $-1 $292 $633 $639 $644 forward $453 $-1 #
loop $-1 $-1 $633 $441 #
vertex $-1 $450 $645 #
vertex $-1 $293 $646 #
straight-curve $-1 20.700004081957026 -52.021553414439737 8.4344867186032673 0 1 0 I I #
coedge $-1 $457 $457 $-1 $647 reversed $296 $-1 #
edge $-1 $648 0 $648 6.2831853071796004 $297 $649 forward 7 unknown #
vertex $-1 $300 $650 #
ellipse-curve $-1 10.580823932852383 -20.72263053564421 4.9425160550153784 0 -0.7660444514056185 0.64278759981090561 1.5 0 0 1 I I #
coedge $-1 $461 $461 $-1 $651 reversed $303 $-1 #
edge $-1 $652 0 $652 6.2831853071796004 $304 $653 forward 7 unknown #
vertex $-1 $307 $654 #
ellipse-curve $-1 16.652332022315164 -20.72263053564421 4.9425160550153784 0 -0.7660444514056185 0.64278759981090561 1.5 0 0 1 I I #
face $-1 $-1 $477 $65 $-1 $655 forward single #
loop $-1 $-1 $656 $308 #
plane-surface $-1 0 -23.65274175482886 0 0 1 0 0 0 1 forward_v I I I I #
coedge $-1 $657 $658 $659 $660 reversed $309 $-1 #
coedge $-1 $661 $311 $313 $475 forward $195 $-1 #
coedge $-1 $311 $661 $657 $662 forward $195 $-1 #
coedge $-1 $659 $314 $311 $472 forward $477 $-1 #
edge $-1 $479 -24.495986681851981 $663 -10.329134473105476 $471 $664 forward 7 unknown #
coedge $-1 $665 $666 $312 $474 forward $466 $-1 #
edge $-1 $667 -33.002489263174347 $478 -26.018547935998569 $473 $668 forward 7 unknown #
edge $-1 $479 -9.1168878181428248 $667 -1.1030930024383267e-014 $313 $669 forward 7 unknown #
coedge $-1 $314 $659 $665 $670 forward $477 $-1 #
loop $-1 $-1 $659 $465 #
vertex $-1 $474 $671 #
vertex $-1 $315 $672 #
straight-curve $-1 41.90854725933071 -52.021553414439737 8.4344867186032673 0 1 0 I I #
coedge $-1 $481 $481 $-1 $673 reversed $318 $-1 #
edge $-1 $674 0 $674 6.2831853071796004 $319 $675 forward 7 unknown #
vertex $-1 $322 $676 #
ellipse-curve $-1 31.789367110226067 -20.72263053564421 4.9425160550153784 0 -0.7660444514056185 0.64278759981090561 1.5 0 0 1 I I #
coedge $-1 $485 $485 $-1 $677 reversed $325 $-1 #
edge $-1 $678 0 $678 6.2831853071796004 $326 $679 forward 7 unknown #
vertex $-1 $329 $680 #
ellipse-curve $-1 37.860875199688849 -20.72263053564421 4.9425160550153784 0 -0.7660444514056185 0.64278759981090561 1.5 0 0 1 I I #
face $-1 $-1 $681 $68 $-1 $682 reversed single #
loop $-1 $-1 $336 $330 #
plane-surface $-1 0 0 8.4344867186032673 0 0 1 1 0 0 forward_v I I I I #
coedge $-1 $683 $684 $685 $686 reversed $331 $-1 #
coedge $-1 $687 $333 $335 $499 forward $209 $-1 #
coedge $-1 $333 $687 $683 $688 forward $209 $-1 #
coedge $-1 $685 $336 $333 $496 forward $490 $-1 #
edge $-1 $502 -15.610082567564238 $689 7.2115651151193738 $495 $690 forward 7 unknown #
coedge $-1 $691 $692 $334 $498 forward $681 $-1 #
edge $-1 $693 -50.140606621620584 $501 -45.118533741185637 $497 $694 forward 7 unknown #
edge $-1 $502 40.749633034897549 $693 47.305483509657755 $335 $695 forward 7 unknown #
coedge $-1 $336 $685 $691 $696 forward $490 $-1 #
vertex $-1 $498 $697 #
vertex $-1 $337 $698 #
straight-curve $-1 -19.80934129378667 36.817864312906096 8.4344867186032673 0 -1 0 I I #
coedge $-1 $504 $504 $-1 $699 reversed $340 $-1 #
edge $-1 $700 0 $700 6.2831853071796004 $341 $701 forward 7 unknown #
vertex $-1 $344 $702 #
ellipse-curve $-1 -8.3985174524448638 21.545732059133709 5.9234502783857961 0 0.7660444514056185 0.64278759981090561 1 0 0 1 I I #
face $-1 $-1 $703 $70 $-1 $704 reversed single #
loop $-1 $-1 $520 $345 #
plane-surface $-1 3.0123063888969419 73.635728625812192 107.10604091957781 -1 0 0 0 0.7660444514056185 0.64278759981090561 forward_v I I I I #
coedge $-1 $514 $705 $350 $519 forward $346 $-1 #
coedge $-1 $513 $348 $516 $706 reversed $218 $-1 #
coedge $-1 $348 $512 $707 $708 reversed $218 $-1 #
coedge $-1 $709 $511 $348 $515 forward $346 $-1 #
edge $-1 $710 -17.379141949467535 $711 -13.165122558077236 $514 $712 forward 7 unknown #
coedge $-1 $350 $349 $512 $706 forward $139 $-1 #
coedge $-1 $713 $707 $349 $518 forward $703 $-1 #
edge $-1 $714 -30.033212797802992 $522 -7.2115651151193738 $517 $715 forward 7 unknown #
edge $-1 $523 7.2115651151193738 $710 30.033212797802992 $511 $716 forward 7 unknown #
coedge $-1 $521 $351 $705 $717 reversed $509 $-1 #
coedge $-1 $351 $520 $713 $718 reversed $509 $-1 #
vertex $-1 $518 $719 #
vertex $-1 $519 $720 #
straight-curve $-1 3.0123063888969419 -6.7546364482384149 39.650517001801617 0 -0.64278759981090561 0.7660444514056185 I I #
coedge $-1 $525 $525 $-1 $721 reversed $355 $-1 #
edge $-1 $722 0 $722 6.2831853071796004 $356 $723 forward 7 unknown #
vertex $-1 $359 $724 #
ellipse-curve $-1 14.423130230238755 21.545732059133709 5.9234502783857961 0 0.7660444514056185 0.64278759981090561 1 0 0 1 I I #
face $-1 $-1 $375 $54 $-1 $725 reversed single #
loop $-1 $-1 $545 $360 #
plane-surface $-1 0 23.65274175482886 0 0 -1 0 0 0 -1 forward_v I I I I #
coedge $-1 $726 $543 $546 $727 forward $361 $-1 #
coedge $-1 $549 $363 $364 $537 reversed $227 $-1 #
coedge $-1 $543 $726 $363 $535 reversed $361 $-1 #
edge $-1 $550 -8.4344867186032673 $728 8.4344867186032673 $534 $729 forward 7 unknown #
coedge $-1 $365 $364 $726 $730 forward $145 $-1 #
edge $-1 $541 -52.471083712271493 $728 52.471083712271493 $533 $731 forward 7 unknown #
coedge $-1 $546 $545 $365 $539 reversed $530 $-1 #
edge $-1 $732 -52.471083712271493 $540 52.471083712271493 $538 $733 forward 7 unknown #
vertex $-1 $367 $734 #
vertex $-1 $552 $735 #
straight-curve $-1 52.471083712271493 0 -8.4344867186032673 0 -1 0 I I #
coedge $-1 $532 $534 $368 $544 reversed $361 $-1 #
edge $-1 $547 -23.65274175482886 $550 23.65274175482886 $543 $736 forward 7 unknown #
coedge $-1 $538 $369 $374 $553 forward $530 $-1 #
coedge $-1 $369 $538 $532 $727 reversed $530 $-1 #
vertex $-1 $370 $737 #
straight-curve $-1 0 23.65274175482886 8.4344867186032673 -1 0 0 I I #
coedge $-1 $371 $533 $373 $552 reversed $227 $-1 #
vertex $-1 $544 $738 #
straight-curve $-1 0 -23.65274175482886 8.4344867186032673 1 0 0 I I #
edge $-1 $376 -8.4344867186032673 $541 8.4344867186032673 $373 $739 forward 7 unknown #
edge $-1 $377 -8.4344867186032673 $540 8.4344867186032673 $374 $740 forward 7 unknown #
point $-1 52.471083712271493 -23.65274175482886 8.4344867186032673 #
point $-1 52.471083712271493 23.65274175482886 8.4344867186032673 #
face $-1 $-1 $570 $55 $-1 $741 reversed single #
loop $-1 $-1 $566 $379 #
plane-surface $-1 0 0 -8.4344867186032673 0 0 1 1 0 0 forward_v I I I I #
coedge $-1 $742 $743 $560 $744 forward $380 $-1 #
coedge $-1 $383 $382 $559 $744 reversed $149 $-1 #
coedge $-1 $566 $745 $382 $562 forward $557 $-1 #
edge $-1 $746 -58.49569649006537 $564 -52.471083712271493 $382 $747 forward 7 unknown #
edge $-1 $390 -3.0123063888969384 $748 3.0123063888969384 $383 $749 forward 7 unknown #
vertex $-1 $384 $750 #
straight-curve $-1 -52.471083712271493 23.65274175482886 0 0 0 -1 I I #
coedge $-1 $751 $561 $385 $567 forward $557 $-1 #
edge $-1 $564 -23.65274175482886 $571 23.65274175482886 $566 $752 forward 7 unknown #
coedge $-1 $753 $386 $389 $574 reversed $570 $-1 #
coedge $-1 $386 $753 $751 $754 reversed $570 $-1 #
loop $-1 $-1 $386 $556 #
vertex $-1 $754 $755 #
straight-curve $-1 -52.471083712271493 -23.65274175482886 0 0 0 1 I I #
coedge $-1 $389 $388 $743 $756 forward $235 $-1 #
edge $-1 $757 -3.0123063888969384 $391 3.0123063888969384 $568 $758 forward 7 unknown #
point $-1 -52.471083712271493 23.65274175482886 -5.0652738929006347 #
point $-1 -52.471083712271493 -23.65274175482886 -5.0652738929006347 #
plane-surface $-1 0 0 8.4344867186032673 0 0 1 1 0 0 forward_v I I I I #
coedge $-1 $588 $587 $580 $759 forward $394 $-1 #
coedge $-1 $580 $396 $398 $584 reversed $243 $-1 #
coedge $-1 $396 $579 $578 $759 reversed $243 $-1 #
coedge $-1 $404 $399 $396 $582 forward $405 $-1 #
edge $-1 $585 -34.229034097980175 $760 -28.368811659610877 $581 $761 forward 7 unknown #
coedge $-1 $398 $397 $588 $762 reversed $153 $-1 #
edge $-1 $763 1.1030930024383267e-014 $585 9.1168878181428248 $579 $764 forward 7 unknown #
vertex $-1 $400 $765 #
straight-curve $-1 -14.400254188581794 -17.792519316459558 8.4344867186032673 -1 0 0 I I #
coedge $-1 $578 $401 $404 $592 reversed $394 $-1 #
coedge $-1 $401 $578 $583 $762 forward $394 $-1 #
vertex $-1 $402 $766 #
straight-curve $-1 -21.717082272790336 -23.65274175482886 34.453034654601836 0 0 1 I I #
straight-curve $-1 -21.717082272790336 -23.652741754828867 1.4505453914274824 0 -0.64278759981090561 -0.7660444514056185 I I #
edge $-1 $760 -35.883934481536841 $406 -21.717082272790336 $587 $767 forward 7 unknown #
point $-1 -21.717082272790336 -23.65274175482886 8.4344867186032673 #
point $-1 -21.717082272790336 -17.792519316459558 8.4344867186032673 #
edge $-1 $768 1 $768 0 $409 $-1 forward 7 unknown #
vertex $-1 $410 $769 #
ellipse-curve $-1 -31.836262421894979 -18.952127334440238 3.4568875107824701 0 -0.7660444514056185 0.64278759981090561 1.5 0 0 1 I I #
point $-1 -30.336262421894979 -20.722630535644203 4.9425160550153731 #
edge $-1 $770 1 $770 0 $413 $-1 forward 7 unknown #
vertex $-1 $414 $771 #
ellipse-curve $-1 -25.764754332432194 -18.952127334440238 3.4568875107824701 0 -0.7660444514056185 0.64278759981090561 1.5 0 0 1 I I #
point $-1 -24.264754332432194 -20.722630535644203 4.9425160550153731 #
plane-surface $-1 0 0 8.4344867186032673 0 0 1 1 0 0 forward_v I I I I #
coedge $-1 $614 $613 $606 $772 forward $418 $-1 #
coedge $-1 $606 $420 $422 $610 reversed $265 $-1 #
coedge $-1 $420 $605 $604 $772 reversed $265 $-1 #
coedge $-1 $428 $423 $420 $608 forward $429 $-1 #
edge $-1 $611 -34.229034097980175 $773 -28.368811659610877 $607 $774 forward 7 unknown #
coedge $-1 $422 $421 $614 $775 reversed $167 $-1 #
edge $-1 $776 1.1030930024383267e-014 $611 9.1168878181428248 $605 $777 forward 7 unknown #
vertex $-1 $424 $778 #
straight-curve $-1 -3.7959825998949555 -17.792519316459558 8.4344867186032673 -1 0 0 I I #
coedge $-1 $604 $425 $428 $618 reversed $418 $-1 #
coedge $-1 $425 $604 $609 $775 forward $418 $-1 #
vertex $-1 $426 $779 #
straight-curve $-1 -0.5085390954166602 -23.65274175482886 34.453034654601836 0 0 1 I I #
straight-curve $-1 -0.5085390954166602 -23.652741754828867 1.4505453914274824 0 -0.64278759981090561 -0.7660444514056185 I I #
edge $-1 $773 -14.675391304163162 $430 -0.5085390954166602 $613 $780 forward 7 unknown #
point $-1 -0.5085390954166602 -23.65274175482886 8.4344867186032673 #
point $-1 -0.5085390954166602 -17.792519316459558 8.4344867186032673 #
edge $-1 $781 1 $781 0 $433 $-1 forward 7 unknown #
vertex $-1 $434 $782 #
ellipse-curve $-1 -10.627719244521302 -18.952127334440238 3.4568875107824701 0 -0.7660444514056185 0.64278759981090561 1.5 0 0 1 I I #
point $-1 -9.1277192445213018 -20.722630535644203 4.9425160550153731 #
edge $-1 $783 1 $783 0 $437 $-1 forward 7 unknown #
vertex $-1 $438 $784 #
ellipse-curve $-1 -4.5562111550585129 -18.952127334440238 3.4568875107824701 0 -0.7660444514056185 0.64278759981090561 1.5 0 0 1 I I #
point $-1 -3.0562111550585129 -20.722630535644203 4.9425160550153731 #
plane-surface $-1 0 0 8.4344867186032673 0 0 1 1 0 0 forward_v I I I I #
coedge $-1 $640 $639 $632 $785 forward $442 $-1 #
coedge $-1 $632 $444 $446 $636 reversed $287 $-1 #
coedge $-1 $444 $631 $630 $785 reversed $287 $-1 #
coedge $-1 $452 $447 $444 $634 forward $453 $-1 #
edge $-1 $637 -34.229034097980175 $786 -28.368811659610877 $633 $787 forward 7 unknown #
coedge $-1 $446 $445 $640 $788 reversed $181 $-1 #
edge $-1 $789 1.1030930024383267e-014 $637 9.1168878181428248 $631 $790 forward 7 unknown #
vertex $-1 $448 $791 #
straight-curve $-1 6.8082889887918867 -17.792519316459558 8.4344867186032673 -1 0 0 I I #
coedge $-1 $630 $449 $452 $644 reversed $442 $-1 #
coedge $-1 $449 $630 $635 $788 forward $442 $-1 #
vertex $-1 $450 $792 #
straight-curve $-1 20.700004081957026 -23.65274175482886 34.453034654601836 0 0 1 I I #
straight-curve $-1 20.700004081957026 -23.652741754828867 1.4505453914274824 0 -0.64278759981090561 -0.7660444514056185 I I #
edge $-1 $786 6.5331518732105227 $454 20.700004081957026 $639 $793 forward 7 unknown #
point $-1 20.700004081957026 -23.65274175482886 8.4344867186032673 #
point $-1 20.700004081957026 -17.792519316459558 8.4344867186032673 #
edge $-1 $794 1 $794 0 $457 $-1 forward 7 unknown #
vertex $-1 $458 $795 #
ellipse-curve $-1 10.580823932852383 -18.952127334440238 3.4568875107824701 0 -0.7660444514056185 0.64278759981090561 1.5 0 0 1 I I #
point $-1 12.080823932852383 -20.722630535644203 4.9425160550153731 #
edge $-1 $796 1 $796 0 $461 $-1 forward 7 unknown #
vertex $-1 $462 $797 #
ellipse-curve $-1 16.652332022315164 -18.952127334440238 3.4568875107824701 0 -0.7660444514056185 0.64278759981090561 1.5 0 0 1 I I #
point $-1 18.152332022315164 -20.722630535644203 4.9425160550153731 #
plane-surface $-1 0 0 8.4344867186032673 0 0 1 1 0 0 forward_v I I I I #
coedge $-1 $666 $665 $658 $798 forward $466 $-1 #
coedge $-1 $658 $468 $470 $662 reversed $309 $-1 #
coedge $-1 $468 $657 $656 $798 reversed $309 $-1 #
coedge $-1 $476 $471 $468 $660 forward $477 $-1 #
edge $-1 $663 -34.229034097980175 $799 -28.368811659610877 $659 $800 forward 7 unknown #
coedge $-1 $470 $469 $666 $801 reversed $195 $-1 #
edge $-1 $802 1.1030930024383267e-014 $663 9.1168878181428248 $657 $803 forward 7 unknown #
vertex $-1 $472 $804 #
straight-curve $-1 17.412560577478729 -17.792519316459558 8.4344867186032673 -1 0 0 I I #
coedge $-1 $656 $473 $476 $670 reversed $466 $-1 #
coedge $-1 $473 $656 $661 $801 forward $466 $-1 #
vertex $-1 $474 $805 #
straight-curve $-1 41.90854725933071 -23.65274175482886 34.453034654601836 0 0 1 I I #
straight-curve $-1 41.90854725933071 -23.652741754828867 1.4505453914274824 0 -0.64278759981090561 -0.7660444514056185 I I #
edge $-1 $799 27.741695050584205 $478 41.90854725933071 $665 $806 forward 7 unknown #
point $-1 41.90854725933071 -23.65274175482886 8.4344867186032673 #
point $-1 41.90854725933071 -17.792519316459558 8.4344867186032673 #
edge $-1 $807 1 $807 0 $481 $-1 forward 7 unknown #
vertex $-1 $482 $808 #
ellipse-curve $-1 31.789367110226067 -18.952127334440238 3.4568875107824701 0 -0.7660444514056185 0.64278759981090561 1.5 0 0 1 I I #
point $-1 33.289367110226067 -20.722630535644203 4.9425160550153731 #
edge $-1 $809 1 $809 0 $485 $-1 forward 7 unknown #
vertex $-1 $486 $810 #
ellipse-curve $-1 37.860875199688849 -18.952127334440238 3.4568875107824701 0 -0.7660444514056185 0.64278759981090561 1.5 0 0 1 I I #
point $-1 39.360875199688849 -20.722630535644203 4.9425160550153731 #
loop $-1 $-1 $497 $489 #
plane-surface $-1 0 23.65274175482886 0 0 -1 0 0 0 -1 forward_v I I I I #
coedge $-1 $684 $492 $494 $688 reversed $331 $-1 #
coedge $-1 $492 $683 $811 $812 reversed $331 $-1 #
coedge $-1 $500 $495 $492 $686 forward $490 $-1 #
edge $-1 $689 -17.379141949467535 $813 -13.165122558077236 $685 $814 forward 7 unknown #
coedge $-1 $494 $493 $692 $815 reversed $209 $-1 #
edge $-1 $816 -47.305483509657755 $689 -40.749633034897549 $683 $817 forward 7 unknown #
vertex $-1 $496 $818 #
straight-curve $-1 -4.1992587262224319 19.438722363438561 8.4344867186032673 1 0 0 I I #
coedge $-1 $811 $497 $500 $696 reversed $681 $-1 #
coedge $-1 $497 $811 $687 $815 forward $681 $-1 #
vertex $-1 $498 $819 #
straight-curve $-1 -19.80934129378667 23.65274175482886 53.553020459788904 0 0 1 I I #
straight-curve $-1 -19.80934129378667 -6.7546364482384149 39.650517001801617 0 0.64278759981090561 -0.7660444514056185 I I #
edge $-1 $813 -3.0123063888969419 $501 19.80934129378667 $691 $820 forward 7 unknown #
point $-1 -19.80934129378667 23.65274175482886 8.4344867186032673 #
point $-1 -19.80934129378667 19.438722363438561 8.4344867186032673 #
edge $-1 $821 1 $821 0 $504 $-1 forward 7 unknown #
vertex $-1 $505 $822 #
ellipse-curve $-1 -8.3985174524448638 19.376694974354464 4.1034121081884738 0 0.7660444514056185 0.64278759981090561 1 0 0 1 I I #
point $-1 -7.3985174524448638 21.545732059133719 5.9234502783858058 #
loop $-1 $-1 $517 $508 #
plane-surface $-1 0 23.65274175482886 0 0 -1 0 0 0 -1 forward_v I I I I #
coedge $-1 $511 $709 $520 $717 forward $346 $-1 #
edge $-1 $714 -47.305483509657755 $710 -40.749633034897549 $512 $823 forward 7 unknown #
coedge $-1 $517 $824 $513 $708 forward $703 $-1 #
edge $-1 $711 45.118533741185637 $714 50.140606621620584 $707 $825 forward 7 unknown #
coedge $-1 $705 $514 $824 $826 forward $346 $-1 #
vertex $-1 $515 $827 #
vertex $-1 $826 $828 #
straight-curve $-1 25.83395407158056 36.817864312906096 8.4344867186032673 0 1 0 I I #
coedge $-1 $824 $517 $521 $718 forward $703 $-1 #
vertex $-1 $708 $829 #
straight-curve $-1 -4.1992587262224319 23.65274175482886 3.4124138381683196 -1 0 0 I I #
straight-curve $-1 -4.1992587262224319 19.438722363438561 8.4344867186032673 1 0 0 I I #
edge $-1 $830 13.165122558077236 $523 17.379141949467535 $705 $831 forward 7 unknown #
edge $-1 $522 -50.140606621620584 $830 -45.118533741185637 $713 $832 forward 7 unknown #
point $-1 3.0123063888969419 23.65274175482886 3.4124138381683196 #
point $-1 3.0123063888969419 19.438722363438561 8.4344867186032673 #
edge $-1 $833 1 $833 0 $525 $-1 forward 7 unknown #
vertex $-1 $526 $834 #
ellipse-curve $-1 14.423130230238755 19.376694974354464 4.1034121081884738 0 0.7660444514056185 0.64278759981090561 1 0 0 1 I I #
point $-1 15.423130230238755 21.545732059133719 5.9234502783858058 #
plane-surface $-1 52.471083712271493 0 0 -1 0 0 0 0 1 forward_v I I I I #
coedge $-1 $534 $532 $536 $730 reversed $361 $-1 #
edge $-1 $547 -8.4344867186032673 $732 8.4344867186032673 $546 $835 forward 7 unknown #
vertex $-1 $730 $836 #
straight-curve $-1 -52.471083712271493 -23.65274175482886 0 0 0 -1 I I #
edge $-1 $728 -23.65274175482886 $732 23.65274175482886 $726 $837 forward 7 unknown #
straight-curve $-1 0 -23.65274175482886 -8.4344867186032673 -1 0 0 I I #
vertex $-1 $539 $838 #
straight-curve $-1 0 23.65274175482886 -8.4344867186032673 1 0 0 I I #
point $-1 52.471083712271493 23.65274175482886 -8.4344867186032673 #
point $-1 52.471083712271493 -23.65274175482886 -8.4344867186032673 #
straight-curve $-1 -52.471083712271493 0 8.4344867186032673 0 -1 0 I I #
point $-1 -52.471083712271493 23.65274175482886 8.4344867186032673 #
point $-1 -52.471083712271493 -23.65274175482886 8.4344867186032673 #
straight-curve $-1 52.471083712271493 -23.65274175482886 0 0 0 -1 I I #
straight-curve $-1 52.471083712271493 23.65274175482886 0 0 0 -1 I I #
plane-surface $-1 0 -23.65274175482886 0 0 1 0 0 0 1 forward_v I I I I #
coedge $-1 $839 $559 $745 $840 reversed $380 $-1 #
coedge $-1 $559 $839 $573 $756 reversed $380 $-1 #
edge $-1 $748 -1.6846064128513163 $746 1.6846064128513163 $560 $841 forward 7 unknown #
coedge $-1 $561 $751 $742 $840 forward $557 $-1 #
vertex $-1 $562 $842 #
straight-curve $-1 0 23.65274175482886 -8.4344867186032673 1 0 0 I I #
vertex $-1 $563 $843 #
straight-curve $-1 -55.483390101168432 23.65274175482886 -5.0652738929006347 -1 0 0 I I #
point $-1 -52.471083712271493 23.65274175482886 -8.4344867186032673 #
coedge $-1 $745 $566 $569 $754 forward $557 $-1 #
straight-curve $-1 -52.471083712271493 0 -8.4344867186032673 0 -1 0 I I #
coedge $-1 $569 $568 $839 $844 forward $570 $-1 #
edge $-1 $571 -3.0123063888969384 $845 3.0123063888969384 $569 $846 forward 7 unknown #
point $-1 -52.471083712271493 -23.65274175482886 -8.4344867186032673 #
edge $-1 $748 -23.65274175482886 $757 23.65274175482886 $743 $847 forward 7 unknown #
vertex $-1 $756 $848 #
straight-curve $-1 -55.483390101168432 -23.65274175482886 -5.0652738929006347 1 0 0 I I #
edge $-1 $760 26.018547935998569 $763 33.002489263174347 $578 $849 forward 7 unknown #
vertex $-1 $592 $850 #
straight-curve $-1 -35.883934481536841 -52.021553414439737 8.4344867186032673 0 -1 0 I I #
edge $-1 $763 -21.483680292955047 $589 -7.3168280842085416 $588 $851 forward 7 unknown #
vertex $-1 $762 $852 #
straight-curve $-1 -35.883934481536841 -23.652741754828867 1.4505453914274824 0 0.64278759981090561 0.7660444514056185 I I #
point $-1 -35.883934481536841 -17.792519316459558 8.4344867186032673 #
point $-1 -21.717082272790336 -23.65274175482886 1.4505453914274908 #
straight-curve $-1 0 -23.65274175482886 8.4344867186032673 1 0 0 I I #
vertex $-1 $595 $853 #
point $-1 -30.336262421894979 -18.952127334440238 3.4568875107824701 #
vertex $-1 $599 $854 #
point $-1 -24.264754332432194 -18.952127334440238 3.4568875107824701 #
edge $-1 $773 26.018547935998569 $776 33.002489263174347 $604 $855 forward 7 unknown #
vertex $-1 $618 $856 #
straight-curve $-1 -14.675391304163162 -52.021553414439737 8.4344867186032673 0 -1 0 I I #
edge $-1 $776 -10.879408704268206 $615 3.2874435044782953 $614 $857 forward 7 unknown #
vertex $-1 $775 $858 #
straight-curve $-1 -14.675391304163162 -23.652741754828867 1.4505453914274824 0 0.64278759981090561 0.7660444514056185 I I #
point $-1 -14.675391304163162 -17.792519316459558 8.4344867186032673 #
point $-1 -0.5085390954166602 -23.65274175482886 1.4505453914274908 #
straight-curve $-1 0 -23.65274175482886 8.4344867186032673 1 0 0 I I #
vertex $-1 $621 $859 #
point $-1 -9.1277192445213018 -18.952127334440238 3.4568875107824701 #
vertex $-1 $625 $860 #
point $-1 -3.0562111550585129 -18.952127334440238 3.4568875107824701 #
edge $-1 $786 26.018547935998569 $789 33.002489263174347 $630 $861 forward 7 unknown #
vertex $-1 $644 $862 #
straight-curve $-1 6.5331518732105227 -52.021553414439737 8.4344867186032673 0 -1 0 I I #
edge $-1 $789 -0.275137115581364 $641 13.891715093165139 $640 $863 forward 7 unknown #
vertex $-1 $788 $864 #
straight-curve $-1 6.5331518732105227 -23.652741754828867 1.4505453914274824 0 0.64278759981090561 0.7660444514056185 I I #
point $-1 6.5331518732105227 -17.792519316459558 8.4344867186032673 #
point $-1 20.700004081957026 -23.65274175482886 1.4505453914274908 #
straight-curve $-1 0 -23.65274175482886 8.4344867186032673 1 0 0 I I #
vertex $-1 $647 $865 #
point $-1 12.080823932852383 -18.952127334440238 3.4568875107824701 #
vertex $-1 $651 $866 #
point $-1 18.152332022315164 -18.952127334440238 3.4568875107824701 #
edge $-1 $799 26.018547935998569 $802 33.002489263174347 $656 $867 forward 7 unknown #
vertex $-1 $670 $868 #
straight-curve $-1 27.741695050584205 -52.021553414439737 8.4344867186032673 0 -1 0 I I #
edge $-1 $802 10.329134473105476 $667 24.495986681851981 $666 $869 forward 7 unknown #
vertex $-1 $801 $870 #
straight-curve $-1 27.741695050584205 -23.652741754828867 1.4505453914274824 0 0.64278759981090561 0.7660444514056185 I I #
point $-1 27.741695050584205 -17.792519316459558 8.4344867186032673 #
point $-1 41.90854725933071 -23.65274175482886 1.4505453914274908 #
straight-curve $-1 0 -23.65274175482886 8.4344867186032673 1 0 0 I I #
vertex $-1 $673 $871 #
point $-1 33.289367110226067 -18.952127334440238 3.4568875107824701 #
vertex $-1 $677 $872 #
point $-1 39.360875199688849 -18.952127334440238 3.4568875107824701 #
coedge $-1 $692 $691 $684 $812 forward $681 $-1 #
edge $-1 $813 45.118533741185637 $816 50.140606621620584 $811 $873 forward 7 unknown #
vertex $-1 $696 $874 #
straight-curve $-1 3.0123063888969419 36.817864312906096 8.4344867186032673 0 1 0 I I #
edge $-1 $816 -7.2115651151193738 $693 15.610082567564238 $692 $875 forward 7 unknown #
vertex $-1 $815 $876 #
straight-curve $-1 3.0123063888969419 -6.7546364482384149 39.650517001801617 0 -0.64278759981090561 0.7660444514056185 I I #
point $-1 3.0123063888969419 19.438722363438561 8.4344867186032673 #
point $-1 -19.80934129378667 23.65274175482886 3.4124138381683196 #
straight-curve $-1 0 23.65274175482886 8.4344867186032673 -1 0 0 I I #
vertex $-1 $699 $877 #
point $-1 -7.3985174524448638 19.376694974354464 4.1034121081884738 #
straight-curve $-1 25.83395407158056 -6.7546364482384149 39.650517001801617 0 -0.64278759981090561 0.7660444514056185 I I #
coedge $-1 $707 $713 $709 $826 reversed $703 $-1 #
straight-curve $-1 25.83395407158056 23.65274175482886 53.553020459788904 0 0 -1 I I #
edge $-1 $711 -25.83395407158056 $830 -3.0123063888969419 $824 $878 forward 7 unknown #
point $-1 25.83395407158056 19.438722363438561 8.4344867186032673 #
point $-1 25.83395407158056 23.65274175482886 8.4344867186032673 #
point $-1 25.83395407158056 23.65274175482886 3.4124138381683196 #
vertex $-1 $718 $879 #
straight-curve $-1 3.0123063888969419 36.817864312906096 8.4344867186032673 0 -1 0 I I #
straight-curve $-1 3.0123063888969419 23.65274175482886 53.553020459788904 0 0 1 I I #
vertex $-1 $721 $880 #
point $-1 15.423130230238755 19.376694974354464 4.1034121081884738 #
straight-curve $-1 -52.471083712271493 23.65274175482886 0 0 0 -1 I I #
point $-1 -52.471083712271493 -23.65274175482886 -8.4344867186032673 #
straight-curve $-1 -52.471083712271493 0 -8.4344867186032673 0 1 0 I I #
point $-1 -52.471083712271493 23.65274175482886 -8.4344867186032673 #
coedge $-1 $743 $742 $753 $844 reversed $380 $-1 #
edge $-1 $845 -23.65274175482886 $746 23.65274175482886 $742 $881 forward 7 unknown #
straight-curve $-1 -58.49569649006537 23.65274175482886 -6.749880305751951 0 0 -1 I I #
point $-1 -58.49569649006537 23.65274175482886 -8.4344867186032673 #
point $-1 -58.49569649006537 23.65274175482886 -5.0652738929006347 #
edge $-1 $757 -1.6846064128513163 $845 1.6846064128513163 $839 $882 forward 7 unknown #
vertex $-1 $840 $883 #
straight-curve $-1 -55.483390101168432 -23.65274175482886 -8.4344867186032673 -1 0 0 I I #
straight-curve $-1 -58.49569649006537 0 -5.0652738929006347 0 -1 0 I I #
point $-1 -58.49569649006537 -23.65274175482886 -5.0652738929006347 #
straight-curve $-1 -35.883934481536841 -23.65274175482886 34.453034654601836 0 0 -1 I I #
point $-1 -35.883934481536841 -23.65274175482886 8.4344867186032673 #
straight-curve $-1 -14.400254188581794 -23.65274175482886 1.4505453914274897 1 0 0 I I #
point $-1 -35.883934481536841 -23.65274175482886 1.4505453914274908 #
point $-1 -31.836262421894979 -17.803060657331809 2.4927061110661115 #
point $-1 -25.764754332432194 -17.803060657331809 2.4927061110661115 #
straight-curve $-1 -14.675391304163162 -23.65274175482886 34.453034654601836 0 0 -1 I I #
point $-1 -14.675391304163162 -23.65274175482886 8.4344867186032673 #
straight-curve $-1 -3.7959825998949555 -23.65274175482886 1.4505453914274897 1 0 0 I I #
point $-1 -14.675391304163162 -23.65274175482886 1.4505453914274908 #
point $-1 -10.627719244521302 -17.803060657331809 2.4927061110661115 #
point $-1 -4.5562111550585129 -17.803060657331809 2.4927061110661115 #
straight-curve $-1 6.5331518732105227 -23.65274175482886 34.453034654601836 0 0 -1 I I #
point $-1 6.5331518732105227 -23.65274175482886 8.4344867186032673 #
straight-curve $-1 6.8082889887918867 -23.65274175482886 1.4505453914274897 1 0 0 I I #
point $-1 6.5331518732105227 -23.65274175482886 1.4505453914274908 #
point $-1 10.580823932852383 -17.803060657331809 2.4927061110661115 #
point $-1 16.652332022315164 -17.803060657331809 2.4927061110661115 #
straight-curve $-1 27.741695050584205 -23.65274175482886 34.453034654601836 0 0 -1 I I #
point $-1 27.741695050584205 -23.65274175482886 8.4344867186032673 #
straight-curve $-1 17.412560577478729 -23.65274175482886 1.4505453914274897 1 0 0 I I #
point $-1 27.741695050584205 -23.65274175482886 1.4505453914274908 #
point $-1 31.789367110226067 -17.803060657331809 2.4927061110661115 #
point $-1 37.860875199688849 -17.803060657331809 2.4927061110661115 #
straight-curve $-1 3.0123063888969419 23.65274175482886 53.553020459788904 0 0 -1 I I #
point $-1 3.0123063888969419 23.65274175482886 8.4344867186032673 #
straight-curve $-1 -4.1992587262224319 23.65274175482886 3.4124138381683196 -1 0 0 I I #
point $-1 3.0123063888969419 23.65274175482886 3.4124138381683196 #
point $-1 -8.3985174524448638 18.610650522948845 3.4606245083775686 #
straight-curve $-1 0 23.65274175482886 8.4344867186032673 -1 0 0 I I #
point $-1 3.0123063888969419 23.65274175482886 8.4344867186032673 #
point $-1 14.423130230238755 18.610650522948845 3.4606245083775686 #
straight-curve $-1 -58.49569649006537 0 -8.4344867186032673 0 1 0 I I #
straight-curve $-1 -58.49569649006537 -23.65274175482886 -6.749880305751951 0 0 -1 I I #
point $-1 -58.49569649006537 -23.65274175482886 -8.4344867186032673 #
End-of-ACIS-data 