500 0 14 0           
7 Unknown 11 ACIS 5.0 NT 24 Thu Mar 25 16:35:34 1999 
-1 9.9999999999999995e-007 1e-010 
body $-1 $14 $-1 $15 #
body $-1 $16 $-1 $17 #
body $-1 $18 $-1 $19 #
body $-1 $20 $-1 $21 #
body $-1 $22 $-1 $23 #
body $-1 $24 $-1 $25 #
body $-1 $26 $-1 $27 #
body $-1 $28 $-1 $29 #
body $-1 $30 $-1 $31 #
body $-1 $32 $-1 $33 #
body $-1 $34 $-1 $35 #
body $-1 $36 $-1 $37 #
body $-1 $38 $-1 $39 #
body $-1 $40 $-1 $41 #
lump $-1 $-1 $42 $0 #
transform $-1 1 0 0 0 1 0 0 0 1 66.895352031006809 38.014002926351296 16.019780901785776 1 rotate no_reflect no_shear #
lump $-1 $-1 $43 $1 #
transform $-1 1 0 0 0 1 0 0 0 1 66.895352031006809 38.014002926351296 16.019780901785776 1 rotate no_reflect no_shear #
lump $-1 $-1 $44 $2 #
transform $-1 1 0 0 0 1 0 0 0 1 66.895352031006809 38.014002926351296 16.019780901785776 1 rotate no_reflect no_shear #
lump $-1 $-1 $45 $3 #
transform $-1 1 0 0 0 1 0 0 0 1 66.895352031006809 38.014002926351296 16.019780901785776 1 rotate no_reflect no_shear #
lump $-1 $-1 $46 $4 #
transform $-1 1 0 0 0 1 0 0 0 1 66.895352031006809 38.014002926351296 16.019780901785776 1 rotate no_reflect no_shear #
lump $-1 $-1 $47 $5 #
transform $-1 1 0 0 0 1 0 0 0 1 66.895352031006809 38.014002926351296 16.019780901785776 1 rotate no_reflect no_shear #
lump $-1 $-1 $48 $6 #
transform $-1 1 0 0 0 1 0 0 0 1 66.895352031006809 38.014002926351296 16.019780901785776 1 rotate no_reflect no_shear #
lump $-1 $-1 $49 $7 #
transform $-1 1 0 0 0 1 0 0 0 1 66.895352031006809 38.014002926351296 16.019780901785776 1 rotate no_reflect no_shear #
lump $-1 $-1 $50 $8 #
transform $-1 1 0 0 0 1 0 0 0 1 66.895352031006809 38.014002926351296 16.019780901785776 1 rotate no_reflect no_shear #
lump $-1 $-1 $51 $9 #
transform $-1 1 0 0 0 1 0 0 0 1 66.895352031006809 38.014002926351296 16.019780901785776 1 rotate no_reflect no_shear #
lump $-1 $-1 $52 $10 #
transform $-1 1 0 0 0 1 0 0 0 1 66.895352031006809 38.014002926351296 16.019780901785776 1 rotate no_reflect no_shear #
lump $-1 $-1 $53 $11 #
transform $-1 1 0 0 0 1 0 0 0 1 66.895352031006809 38.014002926351296 16.019780901785776 1 rotate no_reflect no_shear #
lump $-1 $-1 $54 $12 #
transform $-1 1 0 0 0 1 0 0 0 1 66.895352031006809 38.014002926351296 16.019780901785776 1 rotate no_reflect no_shear #
lump $-1 $-1 $55 $13 #
transform $-1 1 0 0 0 1 0 0 0 1 66.895352031006809 38.014002926351296 16.019780901785776 1 rotate no_reflect no_shear #
shell $-1 $-1 $-1 $56 $-1 $14 #
shell $-1 $-1 $-1 $57 $-1 $16 #
shell $-1 $-1 $-1 $58 $-1 $18 #
shell $-1 $-1 $-1 $59 $-1 $20 #
shell $-1 $-1 $-1 $60 $-1 $22 #
shell $-1 $-1 $-1 $61 $-1 $24 #
shell $-1 $-1 $-1 $62 $-1 $26 #
shell $-1 $-1 $-1 $63 $-1 $28 #
shell $-1 $-1 $-1 $64 $-1 $30 #
shell $-1 $-1 $-1 $65 $-1 $32 #
shell $-1 $-1 $-1 $66 $-1 $34 #
shell $-1 $-1 $-1 $67 $-1 $36 #
shell $-1 $-1 $-1 $68 $-1 $38 #
shell $-1 $-1 $-1 $69 $-1 $40 #
face $-1 $70 $71 $42 $-1 $72 forward single #
face $-1 $73 $74 $43 $-1 $75 forward single #
face $-1 $76 $77 $44 $-1 $78 reversed single #
face $-1 $79 $80 $45 $-1 $81 forward single #
face $-1 $82 $83 $46 $-1 $84 forward single #
face $-1 $85 $86 $47 $-1 $87 forward single #
face $-1 $88 $89 $48 $-1 $90 reversed single #
face $-1 $91 $92 $49 $-1 $93 forward single #
face $-1 $94 $95 $50 $-1 $96 forward single #
face $-1 $97 $98 $51 $-1 $99 forward single #
face $-1 $100 $101 $52 $-1 $102 reversed single #
face $-1 $103 $104 $53 $-1 $105 forward single #
face $-1 $106 $107 $54 $-1 $108 forward single #
face $-1 $109 $110 $55 $-1 $111 forward single #
face $-1 $112 $113 $42 $-1 $114 reversed single #
loop $-1 $-1 $115 $56 #
plane-surface $-1 0 0 16.019780901785776 0 0 1 1 0 0 forward_v I I I I #
face $-1 $116 $117 $43 $-1 $118 reversed single #
loop $-1 $-1 $119 $57 #
plane-surface $-1 0 -38.014002926351296 0 0 1 0 0 0 1 forward_v I I I I #
face $-1 $120 $121 $44 $-1 $122 reversed single #
loop $-1 $-1 $123 $58 #
plane-surface $-1 -181.57636973911224 -8.5357219777182056 79.792154857612417 0 1 0 -0.85716730853699208 0 0.51503806187062418 forward_v I I I I #
face $-1 $124 $125 $45 $-1 $126 forward single #
loop $-1 $127 $128 $59 #
cone-surface $-1 -64.855437086397231 -6.8597883126489521 13.153551849579186 0.85716730853699208 0 -0.51503806187062418 0.25751903093531209 0 0.42858365426849604 1 I I 0 1 0.5 forward I I I I #
face $-1 $129 $130 $46 $-1 $131 forward single #
loop $-1 $132 $133 $60 #
cone-surface $-1 -64.855437086397231 -4.3458878150450673 13.153551849579186 0.85716730853699208 0 -0.51503806187062418 0.25751903093531209 0 0.42858365426849604 1 I I 0 1 0.5 forward I I I I #
face $-1 $134 $135 $47 $-1 $136 forward single #
loop $-1 $137 $138 $61 #
cone-surface $-1 -64.855437086397231 -1.8319873174411825 13.153551849579186 0.85716730853699208 0 -0.51503806187062418 0.25751903093531209 0 0.42858365426849604 1 I I 0 1 0.5 forward I I I I #
face $-1 $139 $140 $48 $-1 $141 reversed single #
loop $-1 $-1 $142 $62 #
plane-surface $-1 -181.57636973911224 19.320829525407667 79.792154857612417 0 1 0 -0.85716730853699208 0 0.51503806187062418 forward_v I I I I #
face $-1 $143 $144 $49 $-1 $145 forward single #
loop $-1 $146 $147 $63 #
cone-surface $-1 -64.855437086397231 20.996763190476919 13.153551849579186 0.85716730853699208 0 -0.51503806187062418 0.25751903093531209 0 0.42858365426849604 1 I I 0 1 0.5 forward I I I I #
face $-1 $148 $149 $50 $-1 $150 forward single #
loop $-1 $151 $152 $64 #
cone-surface $-1 -64.855437086397231 23.510663688080804 13.153551849579186 0.85716730853699208 0 -0.51503806187062418 0.25751903093531209 0 0.42858365426849604 1 I I 0 1 0.5 forward I I I I #
face $-1 $153 $154 $51 $-1 $155 forward single #
loop $-1 $156 $157 $65 #
cone-surface $-1 -64.855437086397231 26.024564185684696 13.153551849579186 0.85716730853699208 0 -0.51503806187062418 0.25751903093531209 0 0.42858365426849604 1 I I 0 1 0.5 forward I I I I #
face $-1 $158 $159 $52 $-1 $160 reversed single #
loop $-1 $-1 $161 $66 #
plane-surface $-1 53.69682732082893 -2.7890803321021078 192.91825147920835 0 -1 0 -0.6560590369687036 0 -0.75470957328743171 forward_v I I I I #
face $-1 $162 $163 $53 $-1 $164 forward single #
loop $-1 $165 $166 $67 #
cone-surface $-1 58.771093455632638 -14.717096130340778 8.5896037052361347 -0.6560590369687036 0 -0.75470957328743171 0.75470957328743171 0 -0.6560590369687036 1 I I 0 1 1 forward I I I I #
face $-1 $167 $168 $54 $-1 $169 forward single #
loop $-1 $170 $171 $68 #
cone-surface $-1 58.771093455632638 -10.244090206001278 8.5896037052361347 -0.6560590369687036 0 -0.75470957328743171 0.75470957328743171 0 -0.6560590369687036 1 I I 0 1 1 forward I I I I #
face $-1 $172 $173 $55 $-1 $174 forward single #
loop $-1 $175 $176 $69 #
cone-surface $-1 58.771093455632638 -5.7710842816617784 8.5896037052361347 -0.6560590369687036 0 -0.75470957328743171 0.75470957328743171 0 -0.6560590369687036 1 I I 0 1 1 forward I I I I #
face $-1 $177 $178 $42 $-1 $179 reversed single #
loop $-1 $-1 $180 $70 #
plane-surface $-1 0 0 -16.019780901785776 0 0 1 1 0 0 forward_v I I I I #
coedge $-1 $181 $182 $183 $184 forward $71 $-1 #
face $-1 $185 $186 $43 $-1 $187 forward single #
loop $-1 $-1 $188 $73 #
plane-surface $-1 -66.895352031006809 0 0 1 0 0 0 0 -1 forward_v I I I I #
coedge $-1 $189 $190 $191 $192 forward $74 $-1 #
face $-1 $193 $194 $44 $-1 $195 reversed single #
loop $-1 $-1 $196 $76 #
plane-surface $-1 -66.895352031006809 -4.3458878150450673 10.884849941206681 -0.85716730853699208 0 0.51503806187062418 0.51503806187062418 0 0.85716730853699208 forward_v I I I I #
coedge $-1 $197 $198 $199 $200 reversed $77 $-1 #
face $-1 $-1 $201 $45 $-1 $202 forward single #
loop $-1 $203 $204 $79 #
cone-surface $-1 -64.143919159314351 -6.8597883126489521 12.726028762194481 0.85716730853699208 0 -0.51503806187062418 0.12875951546765604 0 0.21429182713424802 1 I I -0.70710678118654746 0.70710678118654746 0.25 forward I I I I #
loop $-1 $-1 $205 $59 #
coedge $-1 $128 $128 $206 $207 reversed $80 $-1 #
face $-1 $-1 $208 $46 $-1 $209 forward single #
loop $-1 $210 $211 $82 #
cone-surface $-1 -64.143919159314351 -4.3458878150450673 12.726028762194481 0.85716730853699208 0 -0.51503806187062418 0.12875951546765604 0 0.21429182713424802 1 I I -0.70710678118654746 0.70710678118654746 0.25 forward I I I I #
loop $-1 $-1 $212 $60 #
coedge $-1 $133 $133 $213 $214 reversed $83 $-1 #
face $-1 $-1 $215 $47 $-1 $216 forward single #
loop $-1 $217 $218 $85 #
cone-surface $-1 -64.143919159314351 -1.8319873174411825 12.726028762194481 0.85716730853699208 0 -0.51503806187062418 0.12875951546765604 0 0.21429182713424802 1 I I -0.70710678118654746 0.70710678118654746 0.25 forward I I I I #
loop $-1 $-1 $219 $61 #
coedge $-1 $138 $138 $220 $221 reversed $86 $-1 #
face $-1 $222 $223 $48 $-1 $224 reversed single #
loop $-1 $-1 $225 $88 #
plane-surface $-1 -66.895352031006809 23.510663688080804 10.884849941206681 -0.85716730853699208 0 0.51503806187062418 0.51503806187062418 0 0.85716730853699208 forward_v I I I I #
coedge $-1 $226 $227 $228 $229 reversed $89 $-1 #
face $-1 $-1 $230 $49 $-1 $231 forward single #
loop $-1 $232 $233 $91 #
cone-surface $-1 -64.143919159314351 20.996763190476919 12.726028762194481 0.85716730853699208 0 -0.51503806187062418 0.12875951546765604 0 0.21429182713424802 1 I I -0.70710678118654746 0.70710678118654746 0.25 forward I I I I #
loop $-1 $-1 $234 $63 #
coedge $-1 $147 $147 $235 $236 reversed $92 $-1 #
face $-1 $-1 $237 $50 $-1 $238 forward single #
loop $-1 $239 $240 $94 #
cone-surface $-1 -64.143919159314351 23.510663688080804 12.726028762194481 0.85716730853699208 0 -0.51503806187062418 0.12875951546765604 0 0.21429182713424802 1 I I -0.70710678118654746 0.70710678118654746 0.25 forward I I I I #
loop $-1 $-1 $241 $64 #
coedge $-1 $152 $152 $242 $243 reversed $95 $-1 #
face $-1 $-1 $244 $51 $-1 $245 forward single #
loop $-1 $246 $247 $97 #
cone-surface $-1 -64.143919159314351 26.024564185684696 12.726028762194481 0.85716730853699208 0 -0.51503806187062418 0.12875951546765604 0 0.21429182713424802 1 I I -0.70710678118654746 0.70710678118654746 0.25 forward I I I I #
loop $-1 $-1 $248 $65 #
coedge $-1 $157 $157 $249 $250 reversed $98 $-1 #
face $-1 $251 $252 $52 $-1 $253 reversed single #
loop $-1 $-1 $254 $100 #
plane-surface $-1 -34.07777314146054 -10.244090206001275 91.945126306741003 0.6560590369687036 0 0.75470957328743171 0.75470957328743171 0 -0.6560590369687036 forward_v I I I I #
coedge $-1 $255 $256 $257 $258 reversed $101 $-1 #
face $-1 $-1 $259 $53 $-1 $260 forward single #
loop $-1 $261 $262 $103 #
cone-surface $-1 57.134309549792221 -14.717096130340778 6.7066992507099066 -0.6560590369687036 0 -0.75470957328743171 0.37735478664371586 0 -0.3280295184843518 1 I I -0.70710678118654746 0.70710678118654746 0.5 forward I I I I #
loop $-1 $-1 $263 $67 #
coedge $-1 $166 $166 $264 $265 reversed $104 $-1 #
face $-1 $-1 $266 $54 $-1 $267 forward single #
loop $-1 $268 $269 $106 #
cone-surface $-1 57.134309549792221 -10.244090206001278 6.7066992507099066 -0.6560590369687036 0 -0.75470957328743171 0.37735478664371586 0 -0.3280295184843518 1 I I -0.70710678118654746 0.70710678118654746 0.5 forward I I I I #
loop $-1 $-1 $270 $68 #
coedge $-1 $171 $171 $271 $272 reversed $107 $-1 #
face $-1 $-1 $273 $55 $-1 $274 forward single #
loop $-1 $275 $276 $109 #
cone-surface $-1 57.134309549792221 -5.7710842816617784 6.7066992507099066 -0.6560590369687036 0 -0.75470957328743171 0.37735478664371586 0 -0.3280295184843518 1 I I -0.70710678118654746 0.70710678118654746 0.5 forward I I I I #
loop $-1 $-1 $277 $69 #
coedge $-1 $176 $176 $278 $279 reversed $110 $-1 #
face $-1 $280 $281 $42 $-1 $282 reversed single #
loop $-1 $-1 $283 $112 #
plane-surface $-1 0 -38.014002926351296 0 0 1 0 0 0 1 forward_v I I I I #
coedge $-1 $284 $285 $286 $287 forward $113 $-1 #
coedge $-1 $288 $115 $289 $290 forward $71 $-1 #
coedge $-1 $115 $288 $291 $292 forward $71 $-1 #
coedge $-1 $293 $294 $115 $184 reversed $295 $-1 #
edge $-1 $296 -38.014002926351296 $297 38.014002926351296 $183 $298 forward 7 unknown #
face $-1 $299 $300 $43 $-1 $301 reversed single #
loop $-1 $-1 $302 $116 #
plane-surface $-1 0 -48.17145434957672 15.519780901785776 0 0 1 1 0 0 forward_v I I I I #
coedge $-1 $303 $304 $190 $305 forward $117 $-1 #
coedge $-1 $306 $119 $307 $308 reversed $74 $-1 #
coedge $-1 $119 $306 $188 $305 reversed $74 $-1 #
coedge $-1 $309 $302 $119 $192 reversed $186 $-1 #
edge $-1 $310 -66.895352031006809 $311 66.895352031006809 $191 $312 forward 7 unknown #
face $-1 $313 $314 $44 $-1 $315 forward single #
loop $-1 $-1 $316 $120 #
plane-surface $-1 -181.57636973911224 -0.15605365237192892 79.792154857612417 0 -1 0 0.85716730853699208 0 -0.51503806187062418 forward_v I I I I #
coedge $-1 $317 $318 $319 $320 reversed $121 $-1 #
coedge $-1 $198 $123 $321 $322 reversed $77 $-1 #
coedge $-1 $123 $197 $317 $323 reversed $77 $-1 #
coedge $-1 $319 $324 $123 $200 forward $314 $-1 #
edge $-1 $325 23.89283283854931 $326 26.978210527871191 $199 $327 forward 7 unknown #
loop $-1 $-1 $206 $124 #
plane-surface $-1 -66.895352031006809 -4.3458878150450673 10.884849941206681 -0.85716730853699208 0 0.51503806187062418 0.51503806187062418 0 0.85716730853699208 forward_v I I I I #
loop $-1 $-1 $328 $79 #
coedge $-1 $204 $204 $205 $329 reversed $125 $-1 #
coedge $-1 $205 $205 $204 $329 forward $127 $-1 #
coedge $-1 $206 $206 $128 $207 forward $201 $-1 #
edge $-1 $330 0 $330 6.2831853071796004 $206 $331 forward 7 unknown #
loop $-1 $-1 $213 $129 #
plane-surface $-1 -66.895352031006809 -4.3458878150450673 10.884849941206681 -0.85716730853699208 0 0.51503806187062418 0.51503806187062418 0 0.85716730853699208 forward_v I I I I #
loop $-1 $-1 $332 $82 #
coedge $-1 $211 $211 $212 $333 reversed $130 $-1 #
coedge $-1 $212 $212 $211 $333 forward $132 $-1 #
coedge $-1 $213 $213 $133 $214 forward $208 $-1 #
edge $-1 $334 0 $334 6.2831853071796004 $213 $335 forward 7 unknown #
loop $-1 $-1 $220 $134 #
plane-surface $-1 -66.895352031006809 -4.3458878150450673 10.884849941206681 -0.85716730853699208 0 0.51503806187062418 0.51503806187062418 0 0.85716730853699208 forward_v I I I I #
loop $-1 $-1 $336 $85 #
coedge $-1 $218 $218 $219 $337 reversed $135 $-1 #
coedge $-1 $219 $219 $218 $337 forward $137 $-1 #
coedge $-1 $220 $220 $138 $221 forward $215 $-1 #
edge $-1 $338 0 $338 6.2831853071796004 $220 $339 forward 7 unknown #
face $-1 $340 $341 $48 $-1 $342 forward single #
loop $-1 $-1 $343 $139 #
plane-surface $-1 -181.57636973911224 27.700497850753941 79.792154857612417 0 -1 0 0.85716730853699208 0 -0.51503806187062418 forward_v I I I I #
coedge $-1 $344 $345 $346 $347 reversed $140 $-1 #
coedge $-1 $227 $142 $348 $349 reversed $89 $-1 #
coedge $-1 $142 $226 $344 $350 reversed $89 $-1 #
coedge $-1 $346 $351 $142 $229 forward $341 $-1 #
edge $-1 $352 23.89283283854931 $353 26.978210527871191 $228 $354 forward 7 unknown #
loop $-1 $-1 $235 $143 #
plane-surface $-1 -66.895352031006809 23.510663688080804 10.884849941206681 -0.85716730853699208 0 0.51503806187062418 0.51503806187062418 0 0.85716730853699208 forward_v I I I I #
loop $-1 $-1 $355 $91 #
coedge $-1 $233 $233 $234 $356 reversed $144 $-1 #
coedge $-1 $234 $234 $233 $356 forward $146 $-1 #
coedge $-1 $235 $235 $147 $236 forward $230 $-1 #
edge $-1 $357 0 $357 6.2831853071796004 $235 $358 forward 7 unknown #
loop $-1 $-1 $242 $148 #
plane-surface $-1 -66.895352031006809 23.510663688080804 10.884849941206681 -0.85716730853699208 0 0.51503806187062418 0.51503806187062418 0 0.85716730853699208 forward_v I I I I #
loop $-1 $-1 $359 $94 #
coedge $-1 $240 $240 $241 $360 reversed $149 $-1 #
coedge $-1 $241 $241 $240 $360 forward $151 $-1 #
coedge $-1 $242 $242 $152 $243 forward $237 $-1 #
edge $-1 $361 0 $361 6.2831853071796004 $242 $362 forward 7 unknown #
loop $-1 $-1 $249 $153 #
plane-surface $-1 -66.895352031006809 23.510663688080804 10.884849941206681 -0.85716730853699208 0 0.51503806187062418 0.51503806187062418 0 0.85716730853699208 forward_v I I I I #
loop $-1 $-1 $363 $97 #
coedge $-1 $247 $247 $248 $364 reversed $154 $-1 #
coedge $-1 $248 $248 $247 $364 forward $156 $-1 #
coedge $-1 $249 $249 $157 $250 forward $244 $-1 #
edge $-1 $365 0 $365 6.2831853071796004 $249 $366 forward 7 unknown #
face $-1 $367 $368 $52 $-1 $369 reversed single #
loop $-1 $-1 $370 $158 #
plane-surface $-1 53.69682732082893 -17.69910007990044 192.91825147920835 0 1 0 0.6560590369687036 0 0.75470957328743171 forward_v I I I I #
coedge $-1 $371 $372 $373 $374 reversed $159 $-1 #
coedge $-1 $256 $161 $375 $376 reversed $101 $-1 #
coedge $-1 $161 $255 $371 $377 reversed $101 $-1 #
coedge $-1 $373 $378 $161 $258 forward $379 $-1 #
edge $-1 $380 -40.046938370592343 $381 -26.415929994556095 $257 $382 forward 7 unknown #
loop $-1 $-1 $264 $162 #
plane-surface $-1 -34.07777314146054 -10.244090206001275 91.945126306741003 0.6560590369687036 0 0.75470957328743171 0.75470957328743171 0 -0.6560590369687036 forward_v I I I I #
loop $-1 $-1 $383 $103 #
coedge $-1 $262 $262 $263 $384 reversed $163 $-1 #
coedge $-1 $263 $263 $262 $384 forward $165 $-1 #
coedge $-1 $264 $264 $166 $265 forward $259 $-1 #
edge $-1 $385 0 $385 6.2831853071796004 $264 $386 forward 7 unknown #
loop $-1 $-1 $271 $167 #
plane-surface $-1 -34.07777314146054 -10.244090206001275 91.945126306741003 0.6560590369687036 0 0.75470957328743171 0.75470957328743171 0 -0.6560590369687036 forward_v I I I I #
loop $-1 $-1 $387 $106 #
coedge $-1 $269 $269 $270 $388 reversed $168 $-1 #
coedge $-1 $270 $270 $269 $388 forward $170 $-1 #
coedge $-1 $271 $271 $171 $272 forward $266 $-1 #
edge $-1 $389 0 $389 6.2831853071796004 $271 $390 forward 7 unknown #
loop $-1 $-1 $278 $172 #
plane-surface $-1 -34.07777314146054 -10.244090206001275 91.945126306741003 0.6560590369687036 0 0.75470957328743171 0.75470957328743171 0 -0.6560590369687036 forward_v I I I I #
loop $-1 $-1 $391 $109 #
coedge $-1 $276 $276 $277 $392 reversed $173 $-1 #
coedge $-1 $277 $277 $276 $392 forward $175 $-1 #
coedge $-1 $278 $278 $176 $279 forward $273 $-1 #
edge $-1 $393 0 $393 6.2831853071796004 $278 $394 forward 7 unknown #
face $-1 $395 $396 $42 $-1 $397 reversed single #
loop $-1 $-1 $398 $177 #
plane-surface $-1 -66.895352031006809 0 0 1 0 0 0 0 -1 forward_v I I I I #
coedge $-1 $399 $291 $400 $401 forward $178 $-1 #
coedge $-1 $402 $180 $399 $403 forward $113 $-1 #
coedge $-1 $180 $402 $404 $405 forward $113 $-1 #
coedge $-1 $294 $293 $180 $287 reversed $295 $-1 #
edge $-1 $406 -38.014002926351296 $407 38.014002926351296 $286 $408 forward 7 unknown #
coedge $-1 $182 $181 $409 $410 forward $71 $-1 #
coedge $-1 $411 $412 $181 $290 reversed $396 $-1 #
edge $-1 $297 -66.895352031006809 $413 66.895352031006809 $289 $414 forward 7 unknown #
coedge $-1 $283 $415 $182 $292 reversed $178 $-1 #
edge $-1 $416 -66.895352031006809 $296 66.895352031006809 $291 $417 forward 7 unknown #
coedge $-1 $286 $183 $415 $418 forward $295 $-1 #
coedge $-1 $183 $286 $411 $419 reversed $295 $-1 #
loop $-1 $-1 $293 $395 #
vertex $-1 $184 $420 #
vertex $-1 $184 $421 #
straight-curve $-1 66.895352031006809 0 16.019780901785776 0 1 0 I I #
face $-1 $422 $423 $43 $-1 $424 reversed single #
loop $-1 $-1 $425 $185 #
plane-surface $-1 0 -48.17145434957672 6.4685826917842242 0 0 1 1 0 0 forward_v I I I I #
coedge $-1 $191 $426 $427 $428 forward $186 $-1 #
coedge $-1 $429 $188 $430 $431 reversed $117 $-1 #
coedge $-1 $188 $429 $309 $432 reversed $117 $-1 #
edge $-1 $310 -15.519780901785776 $433 -6.4685826917842242 $188 $434 forward 7 unknown #
coedge $-1 $190 $189 $435 $436 forward $74 $-1 #
coedge $-1 $427 $437 $189 $308 forward $438 $-1 #
edge $-1 $439 6.4685826917842242 $311 15.519780901785776 $307 $440 forward 7 unknown #
coedge $-1 $426 $191 $304 $432 forward $186 $-1 #
vertex $-1 $305 $441 #
vertex $-1 $428 $442 #
straight-curve $-1 0 -38.014002926351296 15.519780901785776 1 0 0 I I #
face $-1 $-1 $443 $44 $-1 $444 reversed single #
loop $-1 $-1 $199 $193 #
plane-surface $-1 0 0 16.019780901785776 0 0 1 1 0 0 forward_v I I I I #
coedge $-1 $445 $446 $447 $448 reversed $194 $-1 #
coedge $-1 $449 $196 $198 $323 forward $121 $-1 #
coedge $-1 $196 $449 $445 $450 forward $121 $-1 #
coedge $-1 $447 $199 $196 $320 forward $314 $-1 #
edge $-1 $326 -6.362778070195672 $451 2.0168902551506047 $319 $452 forward 7 unknown #
coedge $-1 $453 $454 $197 $322 forward $443 $-1 #
edge $-1 $455 -29.011227487599527 $325 -23.876296527020433 $321 $456 forward 7 unknown #
edge $-1 $326 -5.9905818962500614 $455 0 $198 $457 forward 7 unknown #
coedge $-1 $199 $447 $453 $458 forward $314 $-1 #
vertex $-1 $322 $459 #
vertex $-1 $200 $460 #
straight-curve $-1 -90.788184869556119 -8.5357219777182056 16.019780901785776 1 0 0 I I #
coedge $-1 $328 $328 $-1 $461 reversed $203 $-1 #
edge $-1 $462 0 $462 6.2831853071796004 $204 $463 forward 7 unknown #
vertex $-1 $207 $464 #
ellipse-curve $-1 -65.352663186345865 -6.8597883126489521 13.452315421496234 -0.85716730853699208 0 0.51503806187062418 0.25751903093531209 0 0.42858365426849604 1 I I #
coedge $-1 $332 $332 $-1 $465 reversed $210 $-1 #
edge $-1 $466 0 $466 6.2831853071796004 $211 $467 forward 7 unknown #
vertex $-1 $214 $468 #
ellipse-curve $-1 -65.352663186345865 -4.3458878150450673 13.452315421496234 -0.85716730853699208 0 0.51503806187062418 0.25751903093531209 0 0.42858365426849604 1 I I #
coedge $-1 $336 $336 $-1 $469 reversed $217 $-1 #
edge $-1 $470 0 $470 6.2831853071796004 $218 $471 forward 7 unknown #
vertex $-1 $221 $472 #
ellipse-curve $-1 -65.352663186345865 -1.8319873174411825 13.452315421496234 -0.85716730853699208 0 0.51503806187062418 0.25751903093531209 0 0.42858365426849604 1 I I #
face $-1 $-1 $473 $48 $-1 $474 reversed single #
loop $-1 $-1 $228 $222 #
plane-surface $-1 0 0 16.019780901785776 0 0 1 1 0 0 forward_v I I I I #
coedge $-1 $475 $476 $477 $478 reversed $223 $-1 #
coedge $-1 $479 $225 $227 $350 forward $140 $-1 #
coedge $-1 $225 $479 $475 $480 forward $140 $-1 #
coedge $-1 $477 $228 $225 $347 forward $341 $-1 #
edge $-1 $353 7.5654976813672654 $481 15.945166006713539 $346 $482 forward 7 unknown #
coedge $-1 $483 $484 $226 $349 forward $473 $-1 #
edge $-1 $485 -29.011227487599527 $352 -23.876296527020433 $348 $486 forward 7 unknown #
edge $-1 $353 -5.9905818962500614 $485 0 $227 $487 forward 7 unknown #
coedge $-1 $228 $477 $483 $488 forward $341 $-1 #
vertex $-1 $229 $489 #
vertex $-1 $229 $490 #
straight-curve $-1 -90.788184869556119 19.320829525407667 16.019780901785776 1 0 0 I I #
coedge $-1 $355 $355 $-1 $491 reversed $232 $-1 #
edge $-1 $492 0 $492 6.2831853071796004 $233 $493 forward 7 unknown #
vertex $-1 $236 $494 #
ellipse-curve $-1 -65.352663186345865 20.996763190476919 13.452315421496234 -0.85716730853699208 0 0.51503806187062418 0.25751903093531209 0 0.42858365426849604 1 I I #
coedge $-1 $359 $359 $-1 $495 reversed $239 $-1 #
edge $-1 $496 0 $496 6.2831853071796004 $240 $497 forward 7 unknown #
vertex $-1 $243 $498 #
ellipse-curve $-1 -65.352663186345865 23.510663688080804 13.452315421496234 -0.85716730853699208 0 0.51503806187062418 0.25751903093531209 0 0.42858365426849604 1 I I #
coedge $-1 $363 $363 $-1 $499 reversed $246 $-1 #
edge $-1 $500 0 $500 6.2831853071796004 $247 $501 forward 7 unknown #
vertex $-1 $250 $502 #
ellipse-curve $-1 -65.352663186345865 26.024564185684696 13.452315421496234 -0.85716730853699208 0 0.51503806187062418 0.25751903093531209 0 0.42858365426849604 1 I I #
face $-1 $-1 $379 $52 $-1 $503 forward single #
loop $-1 $-1 $504 $251 #
plane-surface $-1 66.895352031006809 0 0 -1 0 0 0 0 1 forward_v I I I I #
coedge $-1 $505 $506 $507 $508 reversed $252 $-1 #
coedge $-1 $509 $254 $256 $377 forward $159 $-1 #
coedge $-1 $254 $509 $505 $510 forward $159 $-1 #
coedge $-1 $507 $257 $254 $374 forward $379 $-1 #
edge $-1 $381 -2.3329647708985295 $511 12.577054976899802 $373 $512 forward 7 unknown #
coedge $-1 $513 $514 $255 $376 forward $368 $-1 #
edge $-1 $515 -92.288599895152643 $380 -80.439344837818396 $375 $516 forward 7 unknown #
edge $-1 $381 115.72944068534665 $515 133.79070406201362 $256 $517 forward 7 unknown #
coedge $-1 $257 $507 $513 $518 forward $379 $-1 #
loop $-1 $-1 $507 $367 #
vertex $-1 $376 $519 #
vertex $-1 $258 $520 #
straight-curve $-1 26.848413660414465 -2.7890803321021078 16.019780901785779 -1 0 0 I I #
coedge $-1 $383 $383 $-1 $521 reversed $261 $-1 #
edge $-1 $522 0 $522 6.2831853071796004 $262 $523 forward 7 unknown #
vertex $-1 $265 $524 #
ellipse-curve $-1 60.079847842988706 -14.717096130340778 10.095153373118647 0.6560590369687036 0 0.75470957328743171 0.75470957328743171 0 -0.6560590369687036 1 I I #
coedge $-1 $387 $387 $-1 $525 reversed $268 $-1 #
edge $-1 $526 0 $526 6.2831853071796004 $269 $527 forward 7 unknown #
vertex $-1 $272 $528 #
ellipse-curve $-1 60.079847842988706 -10.244090206001278 10.095153373118647 0.6560590369687036 0 0.75470957328743171 0.75470957328743171 0 -0.6560590369687036 1 I I #
coedge $-1 $391 $391 $-1 $529 reversed $275 $-1 #
edge $-1 $530 0 $530 6.2831853071796004 $276 $531 forward 7 unknown #
vertex $-1 $279 $532 #
ellipse-curve $-1 60.079847842988706 -5.7710842816617784 10.095153373118647 0.6560590369687036 0 0.75470957328743171 0.75470957328743171 0 -0.6560590369687036 1 I I #
face $-1 $-1 $295 $42 $-1 $533 reversed single #
loop $-1 $-1 $411 $280 #
plane-surface $-1 0 38.014002926351296 0 0 -1 0 0 0 -1 forward_v I I I I #
coedge $-1 $534 $409 $412 $535 forward $281 $-1 #
coedge $-1 $415 $283 $284 $403 reversed $178 $-1 #
coedge $-1 $409 $534 $283 $401 reversed $281 $-1 #
edge $-1 $416 -16.019780901785776 $536 16.019780901785776 $400 $537 forward 7 unknown #
coedge $-1 $285 $284 $534 $538 forward $113 $-1 #
edge $-1 $407 -66.895352031006809 $536 66.895352031006809 $399 $539 forward 7 unknown #
coedge $-1 $412 $411 $285 $405 reversed $396 $-1 #
edge $-1 $540 -66.895352031006809 $406 66.895352031006809 $404 $541 forward 7 unknown #
vertex $-1 $287 $542 #
vertex $-1 $418 $543 #
straight-curve $-1 66.895352031006809 0 -16.019780901785776 0 -1 0 I I #
coedge $-1 $398 $400 $288 $410 reversed $281 $-1 #
edge $-1 $413 -38.014002926351296 $416 38.014002926351296 $409 $544 forward 7 unknown #
coedge $-1 $404 $289 $294 $419 forward $396 $-1 #
coedge $-1 $289 $404 $398 $535 reversed $396 $-1 #
vertex $-1 $290 $545 #
straight-curve $-1 0 38.014002926351296 16.019780901785776 -1 0 0 I I #
coedge $-1 $291 $399 $293 $418 reversed $178 $-1 #
vertex $-1 $410 $546 #
straight-curve $-1 0 -38.014002926351296 16.019780901785776 1 0 0 I I #
edge $-1 $296 -16.019780901785776 $407 16.019780901785776 $293 $547 forward 7 unknown #
edge $-1 $297 -16.019780901785776 $406 16.019780901785776 $294 $548 forward 7 unknown #
point $-1 66.895352031006809 -38.014002926351296 16.019780901785776 #
point $-1 66.895352031006809 38.014002926351296 16.019780901785776 #
face $-1 $-1 $438 $43 $-1 $549 reversed single #
loop $-1 $-1 $550 $299 #
plane-surface $-1 0 -58.328905772802145 10.994181796785 0 1 0 0 0 1 forward_v I I I I #
coedge $-1 $551 $435 $437 $552 forward $300 $-1 #
coedge $-1 $302 $309 $553 $554 forward $186 $-1 #
coedge $-1 $555 $307 $302 $428 reversed $438 $-1 #
edge $-1 $556 -10.157451423225424 $311 10.157451423225424 $427 $557 forward 7 unknown #
coedge $-1 $304 $303 $550 $558 reversed $117 $-1 #
coedge $-1 $435 $551 $303 $431 forward $300 $-1 #
edge $-1 $559 -10.157451423225424 $433 10.157451423225424 $303 $560 forward 7 unknown #
edge $-1 $310 -10.157451423225424 $561 10.157451423225424 $304 $562 forward 7 unknown #
vertex $-1 $305 $563 #
straight-curve $-1 -66.895352031006809 -38.014002926351296 0 0 0 -1 I I #
coedge $-1 $425 $430 $306 $436 reversed $300 $-1 #
edge $-1 $439 -66.895352031006809 $433 66.895352031006809 $435 $564 forward 7 unknown #
coedge $-1 $307 $555 $425 $552 reversed $438 $-1 #
loop $-1 $-1 $307 $422 #
vertex $-1 $308 $565 #
straight-curve $-1 66.895352031006809 -38.014002926351296 0 0 0 1 I I #
point $-1 -66.895352031006809 -38.014002926351296 15.519780901785776 #
point $-1 66.895352031006809 -38.014002926351296 15.519780901785776 #
loop $-1 $-1 $321 $313 #
plane-surface $-1 -66.895352031006809 0 0 1 0 0 0 0 -1 forward_v I I I I #
coedge $-1 $446 $316 $318 $450 reversed $194 $-1 #
coedge $-1 $316 $445 $566 $567 reversed $194 $-1 #
coedge $-1 $324 $319 $316 $448 forward $314 $-1 #
edge $-1 $451 -26.978210527871191 $568 -23.89283283854931 $447 $569 forward 7 unknown #
coedge $-1 $318 $317 $454 $570 reversed $121 $-1 #
edge $-1 $571 0 $451 5.9905818962500614 $445 $572 forward 7 unknown #
vertex $-1 $320 $573 #
straight-curve $-1 -63.809974341684928 -2.1729439075225336 16.019780901785772 0 1 0 I I #
coedge $-1 $566 $321 $324 $458 reversed $443 $-1 #
coedge $-1 $321 $566 $449 $570 forward $443 $-1 #
vertex $-1 $322 $574 #
straight-curve $-1 -66.895352031006809 -8.5357219777182056 39.896077428806208 0 0 1 I I #
straight-curve $-1 -66.895352031006809 -8.5357219777182056 10.884849941206681 -0.51503806187062418 0 -0.85716730853699208 I I #
edge $-1 $568 0.15605365237192892 $325 8.5357219777182056 $453 $575 forward 7 unknown #
point $-1 -66.895352031006809 -8.5357219777182056 16.019780901785776 #
point $-1 -63.809974341684928 -8.5357219777182056 16.019780901785776 #
edge $-1 $576 1 $576 0 $328 $-1 forward 7 unknown #
vertex $-1 $329 $577 #
ellipse-curve $-1 -64.358210986448597 -6.8597883126489521 12.854788277662138 -0.85716730853699208 0 0.51503806187062418 0.25751903093531209 0 0.42858365426849604 1 I I #
point $-1 -65.095144155410551 -6.8597883126489521 13.880899075764729 #
edge $-1 $578 1 $578 0 $332 $-1 forward 7 unknown #
vertex $-1 $333 $579 #
ellipse-curve $-1 -64.358210986448597 -4.3458878150450673 12.854788277662138 -0.85716730853699208 0 0.51503806187062418 0.25751903093531209 0 0.42858365426849604 1 I I #
point $-1 -65.095144155410551 -4.3458878150450673 13.880899075764729 #
edge $-1 $580 1 $580 0 $336 $-1 forward 7 unknown #
vertex $-1 $337 $581 #
ellipse-curve $-1 -64.358210986448597 -1.8319873174411825 12.854788277662138 -0.85716730853699208 0 0.51503806187062418 0.25751903093531209 0 0.42858365426849604 1 I I #
point $-1 -65.095144155410551 -1.8319873174411825 13.880899075764729 #
loop $-1 $-1 $348 $340 #
plane-surface $-1 -66.895352031006809 0 0 1 0 0 0 0 -1 forward_v I I I I #
coedge $-1 $476 $343 $345 $480 reversed $223 $-1 #
coedge $-1 $343 $475 $582 $583 reversed $223 $-1 #
coedge $-1 $351 $346 $343 $478 forward $341 $-1 #
edge $-1 $481 -26.978210527871191 $584 -23.89283283854931 $477 $585 forward 7 unknown #
coedge $-1 $345 $344 $484 $586 reversed $140 $-1 #
edge $-1 $587 0 $481 5.9905818962500614 $475 $588 forward 7 unknown #
vertex $-1 $347 $589 #
straight-curve $-1 -63.809974341684928 11.755331844040402 16.019780901785772 0 1 0 I I #
coedge $-1 $582 $348 $351 $488 reversed $473 $-1 #
coedge $-1 $348 $582 $479 $586 forward $473 $-1 #
vertex $-1 $349 $590 #
straight-curve $-1 -66.895352031006809 19.320829525407667 39.896077428806208 0 0 1 I I #
straight-curve $-1 -66.895352031006809 19.320829525407667 10.884849941206681 -0.51503806187062418 0 -0.85716730853699208 I I #
edge $-1 $584 -27.700497850753941 $352 -19.320829525407667 $483 $591 forward 7 unknown #
point $-1 -66.895352031006809 19.320829525407667 16.019780901785776 #
point $-1 -63.809974341684928 19.320829525407667 16.019780901785776 #
edge $-1 $592 1 $592 0 $355 $-1 forward 7 unknown #
vertex $-1 $356 $593 #
ellipse-curve $-1 -64.358210986448597 20.996763190476919 12.854788277662138 -0.85716730853699208 0 0.51503806187062418 0.25751903093531209 0 0.42858365426849604 1 I I #
point $-1 -65.095144155410551 20.996763190476919 13.880899075764729 #
edge $-1 $594 1 $594 0 $359 $-1 forward 7 unknown #
vertex $-1 $360 $595 #
ellipse-curve $-1 -64.358210986448597 23.510663688080804 12.854788277662138 -0.85716730853699208 0 0.51503806187062418 0.25751903093531209 0 0.42858365426849604 1 I I #
point $-1 -65.095144155410551 23.510663688080804 13.880899075764729 #
edge $-1 $596 1 $596 0 $363 $-1 forward 7 unknown #
vertex $-1 $364 $597 #
ellipse-curve $-1 -64.358210986448597 26.024564185684696 12.854788277662138 -0.85716730853699208 0 0.51503806187062418 0.25751903093531209 0 0.42858365426849604 1 I I #
point $-1 -65.095144155410551 26.024564185684696 13.880899075764729 #
plane-surface $-1 0 0 16.019780901785776 0 0 1 1 0 0 forward_v I I I I #
coedge $-1 $514 $513 $506 $598 forward $368 $-1 #
coedge $-1 $506 $370 $372 $510 reversed $252 $-1 #
coedge $-1 $370 $505 $504 $598 reversed $252 $-1 #
coedge $-1 $378 $373 $370 $508 forward $379 $-1 #
edge $-1 $511 26.415929994556095 $599 40.046938370592343 $507 $600 forward 7 unknown #
coedge $-1 $372 $371 $514 $601 reversed $159 $-1 #
edge $-1 $602 -133.79070406201362 $511 -115.72944068534665 $505 $603 forward 7 unknown #
vertex $-1 $374 $604 #
straight-curve $-1 53.26434365497056 -5.1220451030006373 16.019780901785779 0 -1 0 I I #
coedge $-1 $504 $375 $378 $518 reversed $368 $-1 #
coedge $-1 $375 $504 $509 $601 forward $368 $-1 #
vertex $-1 $376 $605 #
straight-curve $-1 66.895352031006809 -2.7890803321021078 96.459125739604175 0 0 1 I I #
straight-curve $-1 -34.07777314146054 -2.7890803321021078 91.945126306741003 0.75470957328743171 0 -0.6560590369687036 I I #
edge $-1 $599 -17.69910007990044 $380 -2.7890803321021078 $513 $606 forward 7 unknown #
point $-1 66.895352031006809 -2.7890803321021078 16.019780901785776 #
point $-1 53.26434365497056 -2.7890803321021078 16.019780901785779 #
edge $-1 $607 1 $607 0 $383 $-1 forward 7 unknown #
vertex $-1 $384 $608 #
ellipse-curve $-1 57.46233906827657 -14.717096130340778 7.0840540373536225 0.6560590369687036 0 0.75470957328743171 0.75470957328743171 0 -0.6560590369687036 1 I I #
point $-1 60.834557416276141 -14.717096130340778 9.4390943361499424 #
edge $-1 $609 1 $609 0 $387 $-1 forward 7 unknown #
vertex $-1 $388 $610 #
ellipse-curve $-1 57.46233906827657 -10.244090206001278 7.0840540373536225 0.6560590369687036 0 0.75470957328743171 0.75470957328743171 0 -0.6560590369687036 1 I I #
point $-1 60.834557416276141 -10.244090206001278 9.4390943361499424 #
edge $-1 $611 1 $611 0 $391 $-1 forward 7 unknown #
vertex $-1 $392 $612 #
ellipse-curve $-1 57.46233906827657 -5.7710842816617784 7.0840540373536225 0.6560590369687036 0 0.75470957328743171 0.75470957328743171 0 -0.6560590369687036 1 I I #
point $-1 60.834557416276141 -5.7710842816617784 9.4390943361499424 #
plane-surface $-1 66.895352031006809 0 0 -1 0 0 0 0 1 forward_v I I I I #
coedge $-1 $400 $398 $402 $538 reversed $281 $-1 #
edge $-1 $413 -16.019780901785776 $540 16.019780901785776 $412 $613 forward 7 unknown #
vertex $-1 $538 $614 #
straight-curve $-1 -66.895352031006809 -38.014002926351296 0 0 0 -1 I I #
edge $-1 $536 -38.014002926351296 $540 38.014002926351296 $534 $615 forward 7 unknown #
straight-curve $-1 0 -38.014002926351296 -16.019780901785776 -1 0 0 I I #
vertex $-1 $405 $616 #
straight-curve $-1 0 38.014002926351296 -16.019780901785776 1 0 0 I I #
point $-1 66.895352031006809 38.014002926351296 -16.019780901785776 #
point $-1 66.895352031006809 -38.014002926351296 -16.019780901785776 #
straight-curve $-1 -66.895352031006809 0 16.019780901785776 0 -1 0 I I #
point $-1 -66.895352031006809 38.014002926351296 16.019780901785776 #
point $-1 -66.895352031006809 -38.014002926351296 16.019780901785776 #
straight-curve $-1 66.895352031006809 -38.014002926351296 0 0 0 -1 I I #
straight-curve $-1 66.895352031006809 38.014002926351296 0 0 0 -1 I I #
plane-surface $-1 66.895352031006809 0 0 -1 0 0 0 0 1 forward_v I I I I #
coedge $-1 $617 $553 $429 $558 forward $423 $-1 #
coedge $-1 $430 $425 $617 $618 forward $300 $-1 #
edge $-1 $439 -10.157451423225424 $619 10.157451423225424 $437 $620 forward 7 unknown #
coedge $-1 $550 $621 $426 $554 reversed $423 $-1 #
edge $-1 $561 -66.895352031006809 $556 66.895352031006809 $553 $622 forward 7 unknown #
coedge $-1 $437 $427 $621 $623 forward $438 $-1 #
vertex $-1 $428 $624 #
straight-curve $-1 66.895352031006809 -48.17145434957672 15.519780901785776 0 1 0 I I #
edge $-1 $561 -4.5255991050007758 $559 4.5255991050007758 $429 $625 forward 7 unknown #
vertex $-1 $431 $626 #
straight-curve $-1 -66.895352031006809 -48.17145434957672 6.4685826917842242 0 1 0 I I #
vertex $-1 $432 $627 #
straight-curve $-1 -66.895352031006809 -48.17145434957672 15.519780901785776 0 -1 0 I I #
point $-1 -66.895352031006809 -38.014002926351296 6.4685826917842242 #
straight-curve $-1 0 -38.014002926351296 6.4685826917842242 -1 0 0 I I #
point $-1 66.895352031006809 -38.014002926351296 6.4685826917842242 #
coedge $-1 $454 $453 $446 $567 forward $443 $-1 #
edge $-1 $568 23.876296527020433 $571 29.011227487599527 $566 $628 forward 7 unknown #
vertex $-1 $458 $629 #
straight-curve $-1 -90.788184869556119 -0.15605365237192892 16.019780901785776 -1 0 0 I I #
edge $-1 $571 -2.0168902551506047 $455 6.362778070195672 $454 $630 forward 7 unknown #
vertex $-1 $570 $631 #
straight-curve $-1 -66.895352031006809 -0.15605365237192892 10.884849941206681 0.51503806187062418 0 0.85716730853699208 I I #
point $-1 -63.809974341684928 -0.15605365237192892 16.019780901785776 #
point $-1 -66.895352031006809 -8.5357219777182056 10.884849941206681 #
straight-curve $-1 -66.895352031006809 0 16.019780901785776 0 -1 0 I I #
vertex $-1 $461 $632 #
point $-1 -64.100691955513284 -6.8597883126489521 13.283371931930633 #
vertex $-1 $465 $633 #
point $-1 -64.100691955513284 -4.3458878150450673 13.283371931930633 #
vertex $-1 $469 $634 #
point $-1 -64.100691955513284 -1.8319873174411825 13.283371931930633 #
coedge $-1 $484 $483 $476 $583 forward $473 $-1 #
edge $-1 $584 23.876296527020433 $587 29.011227487599527 $582 $635 forward 7 unknown #
vertex $-1 $488 $636 #
straight-curve $-1 -90.788184869556119 27.700497850753941 16.019780901785776 -1 0 0 I I #
edge $-1 $587 -15.945166006713539 $485 -7.5654976813672654 $484 $637 forward 7 unknown #
vertex $-1 $586 $638 #
straight-curve $-1 -66.895352031006809 27.700497850753941 10.884849941206681 0.51503806187062418 0 0.85716730853699208 I I #
point $-1 -63.809974341684928 27.700497850753941 16.019780901785776 #
point $-1 -66.895352031006809 19.320829525407667 10.884849941206681 #
straight-curve $-1 -66.895352031006809 0 16.019780901785776 0 -1 0 I I #
vertex $-1 $491 $639 #
point $-1 -64.100691955513284 20.996763190476919 13.283371931930633 #
vertex $-1 $495 $640 #
point $-1 -64.100691955513284 23.510663688080804 13.283371931930633 #
vertex $-1 $499 $641 #
point $-1 -64.100691955513284 26.024564185684696 13.283371931930633 #
edge $-1 $599 80.439344837818396 $602 92.288599895152643 $504 $642 forward 7 unknown #
vertex $-1 $518 $643 #
straight-curve $-1 26.848413660414465 -17.69910007990044 16.019780901785779 1 0 0 I I #
edge $-1 $602 -12.577054976899802 $515 2.3329647708985295 $514 $644 forward 7 unknown #
vertex $-1 $601 $645 #
straight-curve $-1 -34.07777314146054 -17.69910007990044 91.945126306741003 -0.75470957328743171 0 0.6560590369687036 I I #
point $-1 53.26434365497056 -17.69910007990044 16.019780901785779 #
point $-1 66.895352031006809 -2.7890803321021078 4.1705258444515323 #
straight-curve $-1 66.895352031006809 0 16.019780901785776 0 1 0 I I #
vertex $-1 $521 $646 #
point $-1 58.217048641564006 -14.717096130340778 6.4279950003849189 #
vertex $-1 $525 $647 #
point $-1 58.217048641564006 -10.244090206001278 6.4279950003849189 #
vertex $-1 $529 $648 #
point $-1 58.217048641564006 -5.7710842816617784 6.4279950003849189 #
straight-curve $-1 -66.895352031006809 38.014002926351296 0 0 0 -1 I I #
point $-1 -66.895352031006809 -38.014002926351296 -16.019780901785776 #
straight-curve $-1 -66.895352031006809 0 -16.019780901785776 0 1 0 I I #
point $-1 -66.895352031006809 38.014002926351296 -16.019780901785776 #
coedge $-1 $621 $550 $551 $618 reversed $423 $-1 #
edge $-1 $619 -66.895352031006809 $559 66.895352031006809 $617 $649 forward 7 unknown #
vertex $-1 $623 $650 #
straight-curve $-1 66.895352031006809 -48.17145434957672 6.4685826917842242 0 -1 0 I I #
coedge $-1 $553 $617 $555 $623 reversed $423 $-1 #
straight-curve $-1 0 -58.328905772802145 15.519780901785776 1 0 0 I I #
edge $-1 $556 -4.5255991050007758 $619 4.5255991050007758 $555 $651 forward 7 unknown #
point $-1 66.895352031006809 -58.328905772802145 15.519780901785776 #
straight-curve $-1 -66.895352031006809 -58.328905772802145 10.994181796785 0 0 -1 I I #
point $-1 -66.895352031006809 -58.328905772802145 6.4685826917842242 #
point $-1 -66.895352031006809 -58.328905772802145 15.519780901785776 #
straight-curve $-1 -66.895352031006809 -0.15605365237192892 39.896077428806208 0 0 -1 I I #
point $-1 -66.895352031006809 -0.15605365237192892 16.019780901785776 #
straight-curve $-1 -66.895352031006809 -2.1729439075225336 10.88484994120669 0 -1 0 I I #
point $-1 -66.895352031006809 -0.15605365237192892 10.884849941206681 #
point $-1 -63.929627332180104 -6.8597883126489521 12.597269246726825 #
point $-1 -63.929627332180104 -4.3458878150450673 12.597269246726825 #
point $-1 -63.929627332180104 -1.8319873174411825 12.597269246726825 #
straight-curve $-1 -66.895352031006809 27.700497850753941 39.896077428806208 0 0 -1 I I #
point $-1 -66.895352031006809 27.700497850753941 16.019780901785776 #
straight-curve $-1 -66.895352031006809 11.755331844040402 10.88484994120669 0 -1 0 I I #
point $-1 -66.895352031006809 27.700497850753941 10.884849941206681 #
point $-1 -63.929627332180104 20.996763190476919 12.597269246726825 #
point $-1 -63.929627332180104 23.510663688080804 12.597269246726825 #
point $-1 -63.929627332180104 26.024564185684696 12.597269246726825 #
straight-curve $-1 66.895352031006809 -17.69910007990044 96.459125739604175 0 0 -1 I I #
point $-1 66.895352031006809 -17.69910007990044 16.019780901785776 #
straight-curve $-1 66.895352031006809 -5.1220451030006373 4.1705258444515394 0 1 0 I I #
point $-1 66.895352031006809 -17.69910007990044 4.1705258444515323 #
point $-1 56.806280031307871 -14.717096130340778 6.3293444640661907 #
point $-1 56.806280031307871 -10.244090206001278 6.3293444640661907 #
point $-1 56.806280031307871 -5.7710842816617784 6.3293444640661907 #
straight-curve $-1 0 -58.328905772802145 6.4685826917842242 -1 0 0 I I #
point $-1 66.895352031006809 -58.328905772802145 6.4685826917842242 #
straight-curve $-1 66.895352031006809 -58.328905772802145 10.994181796785 0 0 -1 I I #
End-of-ACIS-data 