500 0 6 0           
7 Unknown 11 ACIS 5.0 NT 24 Fri Mar 26 20:43:40 1999 
-1 9.9999999999999995e-007 1e-010 
body $-1 $6 $-1 $7 #
body $-1 $8 $-1 $9 #
body $-1 $10 $-1 $11 #
body $-1 $12 $-1 $13 #
body $-1 $14 $-1 $15 #
body $-1 $16 $-1 $17 #
lump $-1 $-1 $18 $0 #
transform $-1 1 0 0 0 1 0 0 0 1 47.324442274239324 29.279137194395094 8.4772515786292821 1 rotate no_reflect no_shear #
lump $-1 $-1 $19 $1 #
transform $-1 1 0 0 0 1 0 0 0 1 47.324442274239324 29.279137194395094 8.4772515786292821 1 rotate no_reflect no_shear #
lump $-1 $-1 $20 $2 #
transform $-1 1 0 0 0 1 0 0 0 1 47.324442274239324 29.279137194395094 8.4772515786292821 1 rotate no_reflect no_shear #
lump $-1 $-1 $21 $3 #
transform $-1 1 0 0 0 1 0 0 0 1 47.324442274239324 29.279137194395094 8.4772515786292821 1 rotate no_reflect no_shear #
lump $-1 $-1 $22 $4 #
transform $-1 1 0 0 0 1 0 0 0 1 47.324442274239324 29.279137194395094 8.4772515786292821 1 rotate no_reflect no_shear #
lump $-1 $-1 $23 $5 #
transform $-1 1 0 0 0 1 0 0 0 1 47.324442274239324 29.279137194395094 8.4772515786292821 1 rotate no_reflect no_shear #
shell $-1 $-1 $-1 $24 $-1 $6 #
shell $-1 $-1 $-1 $25 $-1 $8 #
shell $-1 $-1 $-1 $26 $-1 $10 #
shell $-1 $-1 $-1 $27 $-1 $12 #
shell $-1 $-1 $-1 $28 $-1 $14 #
shell $-1 $-1 $-1 $29 $-1 $16 #
face $-1 $30 $31 $18 $-1 $32 forward single #
face $-1 $33 $34 $19 $-1 $35 reversed single #
face $-1 $36 $37 $20 $-1 $38 forward single #
face $-1 $39 $40 $21 $-1 $41 reversed single #
face $-1 $42 $43 $22 $-1 $44 forward single #
face $-1 $45 $46 $23 $-1 $47 forward single #
face $-1 $48 $49 $18 $-1 $50 reversed single #
loop $-1 $-1 $51 $24 #
plane-surface $-1 0 0 8.4772515786292821 0 0 1 1 0 0 forward_v I I I I #
face $-1 $52 $53 $19 $-1 $54 reversed single #
loop $-1 $-1 $55 $25 #
plane-surface $-1 25.137414933980956 -92.61160346519992 75.012054791808211 -1 0 0 0 -0.66913061440640931 0.74314481823134659 forward_v I I I I #
face $-1 $56 $57 $20 $-1 $58 forward single #
loop $-1 $59 $60 $26 #
cone-surface $-1 16.940741230590639 -26.080270444093401 5.3684775037630956 0 0.66913061440640931 -0.74314481823134659 1 0 0 1 I I 0 1 1 forward I I I I #
face $-1 $61 $62 $21 $-1 $63 reversed single #
loop $-1 $-1 $64 $27 #
plane-surface $-1 -44.117027964351948 81.968339975488206 98.448936580057975 1 0 0 0 -0.86602541151947299 -0.49999998660252726 forward_v I I I I #
face $-1 $65 $66 $22 $-1 $67 forward single #
loop $-1 $68 $69 $28 #
cone-surface $-1 -36.018626616228559 25.758849331335046 3.7562425164329332 0 -0.86602541151947299 -0.49999998660252726 1.5 0 0 1 I I 0 1 1.5 forward I I I I #
face $-1 $70 $71 $23 $-1 $72 forward single #
loop $-1 $73 $74 $29 #
cone-surface $-1 -23.871024594043483 25.758849331335046 3.7562425164329332 0 -0.86602541151947299 -0.49999998660252726 1.5 0 0 1 I I 0 1 1.5 forward I I I I #
face $-1 $75 $76 $18 $-1 $77 reversed single #
loop $-1 $-1 $78 $30 #
plane-surface $-1 0 0 -8.4772515786292821 0 0 1 1 0 0 forward_v I I I I #
coedge $-1 $79 $80 $81 $82 forward $31 $-1 #
face $-1 $83 $84 $19 $-1 $85 reversed single #
loop $-1 $-1 $86 $33 #
plane-surface $-1 16.940741230590639 -29.279137194395105 4.6742266882293393 0 -0.66913061440640931 0.74314481823134659 1 0 0 forward_v I I I I #
coedge $-1 $87 $88 $89 $90 reversed $34 $-1 #
face $-1 $-1 $91 $20 $-1 $92 forward single #
loop $-1 $93 $94 $36 #
cone-surface $-1 16.940741230590639 -24.6586818593406 3.789643464981209 0 0.66913061440640931 -0.74314481823134659 0.5 0 0 1 I I -0.70710678118654746 0.70710678118654746 0.5 forward I I I I #
loop $-1 $-1 $95 $26 #
coedge $-1 $60 $60 $96 $97 reversed $37 $-1 #
face $-1 $98 $99 $21 $-1 $100 reversed single #
loop $-1 $-1 $101 $39 #
plane-surface $-1 -29.944825605136025 7.8453290086599736e-007 51.124495573874505 0 0.86602541151947299 0.49999998660252726 1 0 0 forward_v I I I I #
coedge $-1 $102 $103 $104 $105 reversed $40 $-1 #
face $-1 $-1 $106 $22 $-1 $107 forward single #
loop $-1 $108 $109 $42 #
cone-surface $-1 -36.018626616228559 23.917412153978457 2.6930883043732017 0 -0.86602541151947299 -0.49999998660252726 0.75 0 0 1 I I -0.70710678118654757 0.70710678118654757 0.75 forward I I I I #
loop $-1 $-1 $110 $28 #
coedge $-1 $69 $69 $111 $112 reversed $43 $-1 #
face $-1 $-1 $113 $23 $-1 $114 forward single #
loop $-1 $115 $116 $45 #
cone-surface $-1 -23.871024594043483 23.917412153978457 2.6930883043732017 0 -0.86602541151947299 -0.49999998660252726 0.75 0 0 1 I I -0.70710678118654757 0.70710678118654757 0.75 forward I I I I #
loop $-1 $-1 $117 $29 #
coedge $-1 $74 $74 $118 $119 reversed $46 $-1 #
face $-1 $120 $121 $18 $-1 $122 reversed single #
loop $-1 $-1 $123 $48 #
plane-surface $-1 0 -29.279137194395094 0 0 1 0 0 0 1 forward_v I I I I #
coedge $-1 $124 $125 $126 $127 forward $49 $-1 #
coedge $-1 $128 $51 $129 $130 forward $31 $-1 #
coedge $-1 $51 $128 $131 $132 forward $31 $-1 #
coedge $-1 $133 $134 $51 $82 reversed $135 $-1 #
edge $-1 $136 -29.279137194395094 $137 29.279137194395094 $81 $138 forward 7 unknown #
face $-1 $139 $140 $19 $-1 $141 reversed single #
loop $-1 $-1 $142 $52 #
plane-surface $-1 8.7440675272003219 -92.61160346519992 75.012054791808211 1 0 0 0 0.66913061440640931 -0.74314481823134659 forward_v I I I I #
coedge $-1 $143 $144 $145 $146 reversed $53 $-1 #
coedge $-1 $88 $55 $147 $148 reversed $34 $-1 #
coedge $-1 $55 $87 $143 $149 reversed $34 $-1 #
coedge $-1 $145 $150 $55 $90 forward $151 $-1 #
edge $-1 $152 17.026664538204866 $153 21.25035148370905 $89 $154 forward 7 unknown #
loop $-1 $-1 $96 $56 #
plane-surface $-1 16.940741230590639 -29.279137194395105 4.6742266882293393 0 -0.66913061440640931 0.74314481823134659 1 0 0 forward_v I I I I #
loop $-1 $-1 $155 $36 #
coedge $-1 $94 $94 $95 $156 reversed $57 $-1 #
coedge $-1 $95 $95 $94 $156 forward $59 $-1 #
coedge $-1 $96 $96 $60 $97 forward $91 $-1 #
edge $-1 $157 5.2590254870876581e-016 $157 6.2831853071796013 $96 $158 forward 7 unknown #
face $-1 $159 $160 $21 $-1 $161 reversed single #
loop $-1 $-1 $162 $61 #
plane-surface $-1 -15.772623245920101 81.968339975488206 98.448936580057975 -1 0 0 0 0.86602541151947299 0.49999998660252726 forward_v I I I I #
coedge $-1 $163 $164 $165 $166 reversed $62 $-1 #
coedge $-1 $103 $64 $167 $168 reversed $40 $-1 #
coedge $-1 $64 $102 $163 $169 reversed $40 $-1 #
coedge $-1 $165 $170 $64 $105 forward $171 $-1 #
edge $-1 $172 11.705032793349009 $173 16.361772282035123 $104 $174 forward 7 unknown #
loop $-1 $-1 $111 $65 #
plane-surface $-1 -29.944825605136025 7.8453290086599736e-007 51.124495573874505 0 0.86602541151947299 0.49999998660252726 1 0 0 forward_v I I I I #
loop $-1 $-1 $175 $42 #
coedge $-1 $109 $109 $110 $176 reversed $66 $-1 #
coedge $-1 $110 $110 $109 $176 forward $68 $-1 #
coedge $-1 $111 $111 $69 $112 forward $106 $-1 #
edge $-1 $177 3.9094909801579906e-016 $177 6.2831853071796004 $111 $178 forward 7 unknown #
loop $-1 $-1 $118 $70 #
plane-surface $-1 -29.944825605136025 7.8453290086599736e-007 51.124495573874505 0 0.86602541151947299 0.49999998660252726 1 0 0 forward_v I I I I #
loop $-1 $-1 $179 $45 #
coedge $-1 $116 $116 $117 $180 reversed $71 $-1 #
coedge $-1 $117 $117 $116 $180 forward $73 $-1 #
coedge $-1 $118 $118 $74 $119 forward $113 $-1 #
edge $-1 $181 3.9094909801579906e-016 $181 6.2831853071796004 $118 $182 forward 7 unknown #
face $-1 $183 $184 $18 $-1 $185 reversed single #
loop $-1 $-1 $186 $75 #
plane-surface $-1 -47.324442274239324 0 0 1 0 0 0 0 -1 forward_v I I I I #
coedge $-1 $187 $131 $188 $189 forward $76 $-1 #
coedge $-1 $190 $78 $187 $191 forward $49 $-1 #
coedge $-1 $78 $190 $192 $193 forward $49 $-1 #
coedge $-1 $134 $133 $78 $127 reversed $135 $-1 #
edge $-1 $194 -29.279137194395094 $195 29.279137194395094 $126 $196 forward 7 unknown #
coedge $-1 $80 $79 $197 $198 forward $31 $-1 #
coedge $-1 $199 $200 $79 $130 reversed $184 $-1 #
edge $-1 $137 -47.324442274239324 $201 47.324442274239324 $129 $202 forward 7 unknown #
coedge $-1 $123 $203 $80 $132 reversed $76 $-1 #
edge $-1 $204 -47.324442274239324 $136 47.324442274239324 $131 $205 forward 7 unknown #
coedge $-1 $126 $81 $203 $206 forward $135 $-1 #
coedge $-1 $81 $126 $199 $207 reversed $135 $-1 #
loop $-1 $-1 $133 $183 #
vertex $-1 $82 $208 #
vertex $-1 $82 $209 #
straight-curve $-1 47.324442274239324 0 8.4772515786292821 0 1 0 I I #
face $-1 $-1 $151 $19 $-1 $210 forward single #
loop $-1 $-1 $211 $83 #
plane-surface $-1 0 -29.279137194395094 0 0 1 0 0 0 1 forward_v I I I I #
coedge $-1 $212 $213 $214 $215 reversed $84 $-1 #
coedge $-1 $216 $86 $88 $149 forward $53 $-1 #
coedge $-1 $86 $216 $212 $217 forward $53 $-1 #
coedge $-1 $214 $89 $86 $146 forward $151 $-1 #
edge $-1 $153 -16.667044318685637 $218 -0.27369691190500234 $145 $219 forward 7 unknown #
coedge $-1 $220 $221 $87 $148 forward $140 $-1 #
edge $-1 $222 -32.831800707674759 $152 -29.028775817274823 $147 $223 forward 7 unknown #
edge $-1 $153 -5.6835314488990072 $222 -1.4457923371621692e-014 $88 $224 forward 7 unknown #
coedge $-1 $89 $214 $220 $225 forward $151 $-1 #
loop $-1 $-1 $214 $139 #
vertex $-1 $148 $226 #
vertex $-1 $90 $227 #
straight-curve $-1 25.137414933980956 -46.30580173259996 8.4772515786292857 0 1 0 I I #
coedge $-1 $155 $155 $-1 $228 reversed $93 $-1 #
edge $-1 $229 0 $229 6.2831853071796004 $94 $230 forward 7 unknown #
vertex $-1 $97 $231 #
ellipse-curve $-1 16.940741230590639 -27.167293721643002 6.575739133429316 0 -0.66913061440640931 0.74314481823134659 1 0 0 1 I I #
face $-1 $-1 $171 $21 $-1 $232 forward single #
loop $-1 $-1 $233 $98 #
plane-surface $-1 0 29.279137194395094 0 0 -1 0 0 0 -1 forward_v I I I I #
coedge $-1 $234 $235 $236 $237 reversed $99 $-1 #
coedge $-1 $238 $101 $103 $169 forward $62 $-1 #
coedge $-1 $101 $238 $234 $239 forward $62 $-1 #
coedge $-1 $236 $104 $101 $166 forward $171 $-1 #
edge $-1 $173 -29.144615161783936 $240 -0.80021044335208913 $165 $241 forward 7 unknown #
coedge $-1 $242 $243 $102 $168 forward $160 $-1 #
edge $-1 $244 -48.812926391576696 $172 -40.747216711399702 $167 $245 forward 7 unknown #
edge $-1 $173 49.244795161863763 $244 58.55827438879016 $103 $246 forward 7 unknown #
coedge $-1 $104 $236 $242 $247 forward $171 $-1 #
loop $-1 $-1 $236 $159 #
vertex $-1 $168 $248 #
vertex $-1 $105 $249 #
straight-curve $-1 -44.117027964351948 40.984169987744103 8.4772515786292857 0 -1 0 I I #
coedge $-1 $175 $175 $-1 $250 reversed $108 $-1 #
edge $-1 $251 0 $251 6.2831853071796004 $109 $252 forward 7 unknown #
vertex $-1 $112 $253 #
ellipse-curve $-1 -36.018626616228559 26.950767450052044 4.4443967385407781 0 0.86602541151947299 0.49999998660252726 1.5 0 0 1 I I #
coedge $-1 $179 $179 $-1 $254 reversed $115 $-1 #
edge $-1 $255 0 $255 6.2831853071796004 $116 $256 forward 7 unknown #
vertex $-1 $119 $257 #
ellipse-curve $-1 -23.871024594043483 26.950767450052044 4.4443967385407781 0 0.86602541151947299 0.49999998660252726 1.5 0 0 1 I I #
face $-1 $-1 $135 $18 $-1 $258 reversed single #
loop $-1 $-1 $199 $120 #
plane-surface $-1 0 29.279137194395094 0 0 -1 0 0 0 -1 forward_v I I I I #
coedge $-1 $259 $197 $200 $260 forward $121 $-1 #
coedge $-1 $203 $123 $124 $191 reversed $76 $-1 #
coedge $-1 $197 $259 $123 $189 reversed $121 $-1 #
edge $-1 $204 -8.4772515786292821 $261 8.4772515786292821 $188 $262 forward 7 unknown #
coedge $-1 $125 $124 $259 $263 forward $49 $-1 #
edge $-1 $195 -47.324442274239324 $261 47.324442274239324 $187 $264 forward 7 unknown #
coedge $-1 $200 $199 $125 $193 reversed $184 $-1 #
edge $-1 $265 -47.324442274239324 $194 47.324442274239324 $192 $266 forward 7 unknown #
vertex $-1 $127 $267 #
vertex $-1 $206 $268 #
straight-curve $-1 47.324442274239324 0 -8.4772515786292821 0 -1 0 I I #
coedge $-1 $186 $188 $128 $198 reversed $121 $-1 #
edge $-1 $201 -29.279137194395094 $204 29.279137194395094 $197 $269 forward 7 unknown #
coedge $-1 $192 $129 $134 $207 forward $184 $-1 #
coedge $-1 $129 $192 $186 $260 reversed $184 $-1 #
vertex $-1 $130 $270 #
straight-curve $-1 0 29.279137194395094 8.4772515786292821 -1 0 0 I I #
coedge $-1 $131 $187 $133 $206 reversed $76 $-1 #
vertex $-1 $198 $271 #
straight-curve $-1 0 -29.279137194395094 8.4772515786292821 1 0 0 I I #
edge $-1 $136 -8.4772515786292821 $195 8.4772515786292821 $133 $272 forward 7 unknown #
edge $-1 $137 -8.4772515786292821 $194 8.4772515786292821 $134 $273 forward 7 unknown #
point $-1 47.324442274239324 -29.279137194395094 8.4772515786292821 #
point $-1 47.324442274239324 29.279137194395094 8.4772515786292821 #
plane-surface $-1 0 0 8.4772515786292821 0 0 1 1 0 0 forward_v I I I I #
coedge $-1 $221 $220 $213 $274 forward $140 $-1 #
coedge $-1 $213 $142 $144 $217 reversed $84 $-1 #
coedge $-1 $142 $212 $211 $274 reversed $84 $-1 #
coedge $-1 $150 $145 $142 $215 forward $151 $-1 #
edge $-1 $218 -21.25035148370905 $275 -17.026664538204866 $214 $276 forward 7 unknown #
coedge $-1 $144 $143 $221 $277 reversed $53 $-1 #
edge $-1 $278 1.4457923371621692e-014 $218 5.6835314488990072 $212 $279 forward 7 unknown #
vertex $-1 $146 $280 #
straight-curve $-1 8.4703706152953195 -25.05545024889091 8.4772515786292821 -1 0 0 I I #
coedge $-1 $211 $147 $150 $225 reversed $140 $-1 #
coedge $-1 $147 $211 $216 $277 forward $140 $-1 #
vertex $-1 $148 $281 #
straight-curve $-1 25.137414933980956 -29.279137194395094 37.506027395904106 0 0 1 I I #
straight-curve $-1 25.137414933980956 -29.279137194395105 4.6742266882293393 0 -0.74314481823134659 -0.66913061440640931 I I #
edge $-1 $275 8.7440675272003219 $152 25.137414933980956 $220 $282 forward 7 unknown #
point $-1 25.137414933980956 -29.279137194395094 8.4772515786292821 #
point $-1 25.137414933980956 -25.05545024889091 8.4772515786292821 #
edge $-1 $283 1 $283 0 $155 $-1 forward 7 unknown #
vertex $-1 $156 $284 #
ellipse-curve $-1 16.940741230590639 -24.993247166543803 4.1612158740968823 0 -0.66913061440640931 0.74314481823134659 1 0 0 1 I I #
point $-1 17.940741230590639 -27.167293721642995 6.5757391334293089 #
plane-surface $-1 0 0 8.4772515786292821 0 0 1 1 0 0 forward_v I I I I #
coedge $-1 $243 $242 $235 $285 forward $160 $-1 #
coedge $-1 $235 $162 $164 $239 reversed $99 $-1 #
coedge $-1 $162 $234 $233 $285 reversed $99 $-1 #
coedge $-1 $170 $165 $162 $237 forward $171 $-1 #
edge $-1 $240 -16.361772282035123 $286 -11.705032793349009 $236 $287 forward 7 unknown #
coedge $-1 $164 $163 $243 $288 reversed $62 $-1 #
edge $-1 $289 -58.55827438879016 $240 -49.244795161863763 $234 $290 forward 7 unknown #
vertex $-1 $166 $291 #
straight-curve $-1 -14.972412802568012 24.622397705708984 8.4772515786292786 1 0 0 I I #
coedge $-1 $233 $167 $170 $247 reversed $160 $-1 #
coedge $-1 $167 $233 $238 $288 forward $160 $-1 #
vertex $-1 $168 $292 #
straight-curve $-1 -44.117027964351948 29.279137194395094 49.224468290028987 0 0 1 I I #
straight-curve $-1 -44.117027964351948 7.8453290086599736e-007 51.124495573874505 0 0.49999998660252726 -0.86602541151947299 I I #
edge $-1 $286 15.772623245920101 $172 44.117027964351948 $242 $293 forward 7 unknown #
point $-1 -44.117027964351948 29.279137194395094 8.4772515786292821 #
point $-1 -44.117027964351948 24.62239770570898 8.4772515786292857 #
edge $-1 $294 1 $294 0 $175 $-1 forward 7 unknown #
vertex $-1 $176 $295 #
ellipse-curve $-1 -36.018626616228559 24.566931212618062 3.0680882943250971 0 0.86602541151947299 0.49999998660252726 1.5 0 0 1 I I #
point $-1 -34.518626616228559 26.95076745005203 4.4443967385407692 #
edge $-1 $296 1 $296 0 $179 $-1 forward 7 unknown #
vertex $-1 $180 $297 #
ellipse-curve $-1 -23.871024594043483 24.566931212618062 3.0680882943250971 0 0.86602541151947299 0.49999998660252726 1.5 0 0 1 I I #
point $-1 -22.371024594043483 26.95076745005203 4.4443967385407692 #
plane-surface $-1 47.324442274239324 0 0 -1 0 0 0 0 1 forward_v I I I I #
coedge $-1 $188 $186 $190 $263 reversed $121 $-1 #
edge $-1 $201 -8.4772515786292821 $265 8.4772515786292821 $200 $298 forward 7 unknown #
vertex $-1 $263 $299 #
straight-curve $-1 -47.324442274239324 -29.279137194395094 0 0 0 -1 I I #
edge $-1 $261 -29.279137194395094 $265 29.279137194395094 $259 $300 forward 7 unknown #
straight-curve $-1 0 -29.279137194395094 -8.4772515786292821 -1 0 0 I I #
vertex $-1 $193 $301 #
straight-curve $-1 0 29.279137194395094 -8.4772515786292821 1 0 0 I I #
point $-1 47.324442274239324 29.279137194395094 -8.4772515786292821 #
point $-1 47.324442274239324 -29.279137194395094 -8.4772515786292821 #
straight-curve $-1 -47.324442274239324 0 8.4772515786292821 0 -1 0 I I #
point $-1 -47.324442274239324 29.279137194395094 8.4772515786292821 #
point $-1 -47.324442274239324 -29.279137194395094 8.4772515786292821 #
straight-curve $-1 47.324442274239324 -29.279137194395094 0 0 0 -1 I I #
straight-curve $-1 47.324442274239324 29.279137194395094 0 0 0 -1 I I #
edge $-1 $275 29.028775817274823 $278 32.831800707674759 $211 $302 forward 7 unknown #
vertex $-1 $225 $303 #
straight-curve $-1 8.7440675272003219 -46.30580173259996 8.4772515786292857 0 -1 0 I I #
edge $-1 $278 0.27369691190500234 $222 16.667044318685637 $221 $304 forward 7 unknown #
vertex $-1 $277 $305 #
straight-curve $-1 8.7440675272003219 -29.279137194395105 4.6742266882293393 0 0.74314481823134659 0.66913061440640931 I I #
point $-1 8.7440675272003219 -25.05545024889091 8.4772515786292821 #
point $-1 25.137414933980956 -29.279137194395094 4.6742266882293491 #
straight-curve $-1 0 -29.279137194395094 8.4772515786292821 1 0 0 I I #
vertex $-1 $228 $306 #
point $-1 17.940741230590639 -24.993247166543803 4.1612158740968823 #
edge $-1 $286 40.747216711399702 $289 48.812926391576696 $233 $307 forward 7 unknown #
vertex $-1 $247 $308 #
straight-curve $-1 -15.772623245920101 40.984169987744103 8.4772515786292857 0 1 0 I I #
edge $-1 $289 0.80021044335208913 $244 29.144615161783936 $243 $309 forward 7 unknown #
vertex $-1 $288 $310 #
straight-curve $-1 -15.772623245920101 7.8453290086599736e-007 51.124495573874505 0 -0.49999998660252726 0.86602541151947299 I I #
point $-1 -15.772623245920101 24.62239770570898 8.4772515786292857 #
point $-1 -44.117027964351948 29.279137194395094 0.41154189845229183 #
straight-curve $-1 0 29.279137194395094 8.4772515786292821 -1 0 0 I I #
vertex $-1 $250 $311 #
point $-1 -34.518626616228559 24.566931212618062 3.0680882943250971 #
vertex $-1 $254 $312 #
point $-1 -22.371024594043483 24.566931212618062 3.0680882943250971 #
straight-curve $-1 -47.324442274239324 29.279137194395094 0 0 0 -1 I I #
point $-1 -47.324442274239324 -29.279137194395094 -8.4772515786292821 #
straight-curve $-1 -47.324442274239324 0 -8.4772515786292821 0 1 0 I I #
point $-1 -47.324442274239324 29.279137194395094 -8.4772515786292821 #
straight-curve $-1 8.7440675272003219 -29.279137194395094 37.506027395904106 0 0 -1 I I #
point $-1 8.7440675272003219 -29.279137194395094 8.4772515786292821 #
straight-curve $-1 8.4703706152953195 -29.279137194395094 4.6742266882293473 1 0 0 I I #
point $-1 8.7440675272003219 -29.279137194395094 4.6742266882293491 #
point $-1 16.940741230590639 -24.324116552137397 3.4180710558655356 #
straight-curve $-1 -15.772623245920101 29.279137194395094 49.224468290028987 0 0 -1 I I #
point $-1 -15.772623245920101 29.279137194395094 8.4772515786292821 #
straight-curve $-1 -14.972412802568012 29.279137194395094 0.41154189845229538 -1 0 0 I I #
point $-1 -15.772623245920101 29.279137194395094 0.41154189845229183 #
point $-1 -36.018626616228559 23.267893095338852 2.3180883144213063 #
point $-1 -23.871024594043483 23.267893095338852 2.3180883144213063 #
End-of-ACIS-data 