500 0 8 0           
7 Unknown 11 ACIS 5.0 NT 24 Fri Mar 26 00:30:17 1999 
-1 9.9999999999999995e-007 1e-010 
body $-1 $8 $-1 $9 #
body $-1 $10 $-1 $11 #
body $-1 $12 $-1 $13 #
body $-1 $14 $-1 $15 #
body $-1 $16 $-1 $17 #
body $-1 $18 $-1 $19 #
body $-1 $20 $-1 $21 #
body $-1 $22 $-1 $23 #
lump $-1 $-1 $24 $0 #
transform $-1 1 0 0 0 1 0 0 0 1 64.594256416516615 27.524364323556373 6.169902902095215 1 rotate no_reflect no_shear #
lump $-1 $-1 $25 $1 #
transform $-1 1 0 0 0 1 0 0 0 1 64.594256416516615 27.524364323556373 6.169902902095215 1 rotate no_reflect no_shear #
lump $-1 $-1 $26 $2 #
transform $-1 1 0 0 0 1 0 0 0 1 64.594256416516615 27.524364323556373 6.169902902095215 1 rotate no_reflect no_shear #
lump $-1 $-1 $27 $3 #
transform $-1 1 0 0 0 1 0 0 0 1 64.594256416516615 27.524364323556373 6.169902902095215 1 rotate no_reflect no_shear #
lump $-1 $-1 $28 $4 #
transform $-1 1 0 0 0 1 0 0 0 1 64.594256416516615 27.524364323556373 6.169902902095215 1 rotate no_reflect no_shear #
lump $-1 $-1 $29 $5 #
transform $-1 1 0 0 0 1 0 0 0 1 64.594256416516615 27.524364323556373 6.169902902095215 1 rotate no_reflect no_shear #
lump $-1 $-1 $30 $6 #
transform $-1 1 0 0 0 1 0 0 0 1 64.594256416516615 27.524364323556373 6.169902902095215 1 rotate no_reflect no_shear #
lump $-1 $-1 $31 $7 #
transform $-1 1 0 0 0 1 0 0 0 1 64.594256416516615 27.524364323556373 6.169902902095215 1 rotate no_reflect no_shear #
shell $-1 $-1 $-1 $32 $-1 $8 #
shell $-1 $-1 $-1 $33 $-1 $10 #
shell $-1 $-1 $-1 $34 $-1 $12 #
shell $-1 $-1 $-1 $35 $-1 $14 #
shell $-1 $-1 $-1 $36 $-1 $16 #
shell $-1 $-1 $-1 $37 $-1 $18 #
shell $-1 $-1 $-1 $38 $-1 $20 #
shell $-1 $-1 $-1 $39 $-1 $22 #
face $-1 $40 $41 $24 $-1 $42 forward single #
face $-1 $43 $44 $25 $-1 $45 forward single #
face $-1 $46 $47 $26 $-1 $48 reversed single #
face $-1 $49 $50 $27 $-1 $51 forward single #
face $-1 $52 $53 $28 $-1 $54 reversed single #
face $-1 $55 $56 $29 $-1 $57 forward single #
face $-1 $58 $59 $30 $-1 $60 forward single #
face $-1 $61 $62 $31 $-1 $63 forward single #
face $-1 $64 $65 $24 $-1 $66 reversed single #
loop $-1 $-1 $67 $32 #
plane-surface $-1 0 0 6.169902902095215 0 0 1 1 0 0 forward_v I I I I #
face $-1 $68 $69 $25 $-1 $70 reversed single #
loop $-1 $-1 $71 $33 #
plane-surface $-1 -60.589539969931501 0 -2.3569775151647328 0 0 1 1 0 0 forward_v I I I I #
face $-1 $72 $73 $26 $-1 $74 reversed single #
loop $-1 $-1 $75 $34 #
plane-surface $-1 -56.584823523346387 51.717723945789942 141.06779314851678 1 0 0 0 -0.54463904215088732 -0.83867056331134215 forward_v I I I I #
face $-1 $76 $77 $27 $-1 $78 forward single #
loop $-1 $79 $80 $35 #
cone-surface $-1 -45.714135131695329 23.86227486868259 2.8826341965421665 0 -0.54463904215088732 -0.83867056331134215 1 0 0 1 I I 0 1 1 forward I I I I #
face $-1 $81 $82 $28 $-1 $83 reversed single #
loop $-1 $-1 $84 $36 #
plane-surface $-1 -37.401864889475007 -103.45946790252928 107.05146919165446 -1 0 0 0 -0.5877852598018023 0.80901698891910034 forward_v I I I I #
face $-1 $85 $86 $29 $-1 $87 forward single #
loop $-1 $88 $89 $37 #
cone-surface $-1 -52.748231796572114 -23.635711931751459 2.442866768472336 0 0.5877852598018023 -0.80901698891910034 1.5 0 0 1 I I 0 1 1.5 forward I I I I #
face $-1 $90 $91 $30 $-1 $92 forward single #
loop $-1 $93 $94 $38 #
cone-surface $-1 -46.993344206410697 -23.635711931751459 2.442866768472336 0 0.5877852598018023 -0.80901698891910034 1.5 0 0 1 I I 0 1 1.5 forward I I I I #
face $-1 $95 $96 $31 $-1 $97 forward single #
loop $-1 $98 $99 $39 #
cone-surface $-1 -41.238456616249287 -23.635711931751459 2.442866768472336 0 0.5877852598018023 -0.80901698891910034 1.5 0 0 1 I I 0 1 1.5 forward I I I I #
face $-1 $100 $101 $24 $-1 $102 reversed single #
loop $-1 $-1 $103 $40 #
plane-surface $-1 0 0 -6.169902902095215 0 0 1 1 0 0 forward_v I I I I #
coedge $-1 $104 $105 $106 $107 forward $41 $-1 #
face $-1 $108 $109 $25 $-1 $110 reversed single #
loop $-1 $-1 $111 $43 #
plane-surface $-1 -60.589539969931501 0 -5.3569775151647328 0 0 1 1 0 0 forward_v I I I I #
coedge $-1 $112 $113 $114 $115 forward $44 $-1 #
face $-1 $116 $117 $26 $-1 $118 reversed single #
loop $-1 $-1 $119 $46 #
plane-surface $-1 -45.714135131695329 -18.643383940490892 32.721190317482254 0 0.54463904215088732 0.83867056331134215 1 0 0 forward_v I I I I #
coedge $-1 $120 $121 $122 $123 reversed $47 $-1 #
face $-1 $-1 $124 $27 $-1 $125 forward single #
loop $-1 $126 $127 $49 #
cone-surface $-1 -45.714135131695329 22.569041787990773 0.89122992263374279 0 -0.54463904215088732 -0.83867056331134215 0.5 0 0 1 I I -0.70710678118654746 0.70710678118654746 0.5 forward I I I I #
loop $-1 $-1 $128 $35 #
coedge $-1 $80 $80 $129 $130 reversed $50 $-1 #
face $-1 $131 $132 $28 $-1 $133 reversed single #
loop $-1 $-1 $134 $52 #
plane-surface $-1 -46.993344206410697 -27.524364323556384 2.5357675365373638 0 -0.5877852598018023 0.80901698891910034 1 0 0 forward_v I I I I #
coedge $-1 $135 $136 $137 $138 reversed $53 $-1 #
face $-1 $-1 $139 $29 $-1 $140 forward single #
loop $-1 $141 $142 $55 #
cone-surface $-1 -52.748231796572114 -21.807199653126865 -0.073864424060940514 0 0.5877852598018023 -0.80901698891910034 0.75 0 0 1 I I -0.70710678118654757 0.70710678118654757 0.75 forward I I I I #
loop $-1 $-1 $143 $37 #
coedge $-1 $89 $89 $144 $145 reversed $56 $-1 #
face $-1 $-1 $146 $30 $-1 $147 forward single #
loop $-1 $148 $149 $58 #
cone-surface $-1 -46.993344206410697 -21.807199653126865 -0.073864424060940514 0 0.5877852598018023 -0.80901698891910034 0.75 0 0 1 I I -0.70710678118654757 0.70710678118654757 0.75 forward I I I I #
loop $-1 $-1 $150 $38 #
coedge $-1 $94 $94 $151 $152 reversed $59 $-1 #
face $-1 $-1 $153 $31 $-1 $154 forward single #
loop $-1 $155 $156 $61 #
cone-surface $-1 -41.238456616249287 -21.807199653126865 -0.073864424060940514 0 0.5877852598018023 -0.80901698891910034 0.75 0 0 1 I I -0.70710678118654757 0.70710678118654757 0.75 forward I I I I #
loop $-1 $-1 $157 $39 #
coedge $-1 $99 $99 $158 $159 reversed $62 $-1 #
face $-1 $160 $161 $24 $-1 $162 reversed single #
loop $-1 $-1 $163 $64 #
plane-surface $-1 0 -27.524364323556373 0 0 1 0 0 0 1 forward_v I I I I #
coedge $-1 $164 $165 $166 $167 forward $65 $-1 #
coedge $-1 $168 $67 $169 $170 forward $41 $-1 #
coedge $-1 $67 $168 $171 $172 forward $41 $-1 #
coedge $-1 $173 $174 $67 $107 reversed $175 $-1 #
edge $-1 $176 -27.524364323556373 $177 27.524364323556373 $106 $178 forward 7 unknown #
face $-1 $179 $180 $25 $-1 $181 reversed single #
loop $-1 $-1 $182 $68 #
plane-surface $-1 -56.584823523346387 0 -3.8569775151647328 -1 0 0 0 0 1 forward_v I I I I #
coedge $-1 $183 $184 $185 $186 forward $69 $-1 #
coedge $-1 $187 $71 $188 $189 reversed $44 $-1 #
coedge $-1 $71 $187 $190 $191 reversed $44 $-1 #
coedge $-1 $182 $192 $71 $115 reversed $109 $-1 #
edge $-1 $193 -27.524364323556373 $194 27.524364323556373 $114 $195 forward 7 unknown #
face $-1 $196 $197 $26 $-1 $198 forward single #
loop $-1 $-1 $199 $72 #
plane-surface $-1 -34.843446740044271 51.717723945789942 141.06779314851678 -1 0 0 0 0.54463904215088732 0.83867056331134215 forward_v I I I I #
coedge $-1 $200 $201 $202 $203 reversed $73 $-1 #
coedge $-1 $121 $75 $204 $205 reversed $47 $-1 #
coedge $-1 $75 $120 $200 $206 reversed $47 $-1 #
coedge $-1 $202 $207 $75 $123 forward $197 $-1 #
edge $-1 $208 -1.6655023506614022 $209 3.6168494398533824 $122 $210 forward 7 unknown #
loop $-1 $-1 $129 $76 #
plane-surface $-1 -45.714135131695329 -18.643383940490892 32.721190317482254 0 0.54463904215088732 0.83867056331134215 1 0 0 forward_v I I I I #
loop $-1 $-1 $211 $49 #
coedge $-1 $127 $127 $128 $212 reversed $77 $-1 #
coedge $-1 $128 $128 $127 $212 forward $79 $-1 #
coedge $-1 $129 $129 $80 $130 forward $124 $-1 #
edge $-1 $213 -7.9228272254911234e-016 $213 6.2831853071795996 $129 $214 forward 7 unknown #
face $-1 $215 $216 $28 $-1 $217 reversed single #
loop $-1 $-1 $218 $81 #
plane-surface $-1 -56.584823523346387 -103.45946790252928 107.05146919165446 1 0 0 0 0.5877852598018023 -0.80901698891910034 forward_v I I I I #
coedge $-1 $219 $220 $221 $222 reversed $82 $-1 #
coedge $-1 $136 $84 $223 $224 reversed $53 $-1 #
coedge $-1 $84 $135 $219 $225 reversed $53 $-1 #
coedge $-1 $221 $226 $84 $138 forward $227 $-1 #
edge $-1 $228 24.205369627708269 $229 29.207327743771604 $137 $230 forward 7 unknown #
loop $-1 $-1 $144 $85 #
plane-surface $-1 -46.993344206410697 -27.524364323556384 2.5357675365373638 0 -0.5877852598018023 0.80901698891910034 1 0 0 forward_v I I I I #
loop $-1 $-1 $231 $55 #
coedge $-1 $142 $142 $143 $232 reversed $86 $-1 #
coedge $-1 $143 $143 $142 $232 forward $88 $-1 #
coedge $-1 $144 $144 $89 $145 forward $139 $-1 #
edge $-1 $233 -5.2013437286777665e-016 $233 6.2831853071795996 $144 $234 forward 7 unknown #
loop $-1 $-1 $151 $90 #
plane-surface $-1 -46.993344206410697 -27.524364323556384 2.5357675365373638 0 -0.5877852598018023 0.80901698891910034 1 0 0 forward_v I I I I #
loop $-1 $-1 $235 $58 #
coedge $-1 $149 $149 $150 $236 reversed $91 $-1 #
coedge $-1 $150 $150 $149 $236 forward $93 $-1 #
coedge $-1 $151 $151 $94 $152 forward $146 $-1 #
edge $-1 $237 -5.2013437286777665e-016 $237 6.2831853071795996 $151 $238 forward 7 unknown #
loop $-1 $-1 $158 $95 #
plane-surface $-1 -46.993344206410697 -27.524364323556384 2.5357675365373638 0 -0.5877852598018023 0.80901698891910034 1 0 0 forward_v I I I I #
loop $-1 $-1 $239 $61 #
coedge $-1 $156 $156 $157 $240 reversed $96 $-1 #
coedge $-1 $157 $157 $156 $240 forward $98 $-1 #
coedge $-1 $158 $158 $99 $159 forward $153 $-1 #
edge $-1 $241 -5.2013437286777665e-016 $241 6.2831853071795996 $158 $242 forward 7 unknown #
face $-1 $243 $244 $24 $-1 $245 reversed single #
loop $-1 $-1 $246 $100 #
plane-surface $-1 -64.594256416516615 0 0 1 0 0 0 0 -1 forward_v I I I I #
coedge $-1 $247 $171 $248 $249 forward $101 $-1 #
coedge $-1 $250 $103 $247 $251 forward $65 $-1 #
coedge $-1 $103 $250 $252 $253 forward $65 $-1 #
coedge $-1 $174 $173 $103 $167 reversed $175 $-1 #
edge $-1 $254 -27.524364323556373 $255 27.524364323556373 $166 $256 forward 7 unknown #
coedge $-1 $105 $104 $257 $258 forward $41 $-1 #
coedge $-1 $259 $260 $104 $170 reversed $244 $-1 #
edge $-1 $177 -64.594256416516615 $261 64.594256416516615 $169 $262 forward 7 unknown #
coedge $-1 $163 $263 $105 $172 reversed $101 $-1 #
edge $-1 $264 -64.594256416516615 $176 64.594256416516615 $171 $265 forward 7 unknown #
coedge $-1 $166 $106 $263 $266 forward $175 $-1 #
coedge $-1 $106 $166 $259 $267 reversed $175 $-1 #
loop $-1 $-1 $173 $243 #
vertex $-1 $107 $268 #
vertex $-1 $107 $269 #
straight-curve $-1 64.594256416516615 0 6.169902902095215 0 1 0 I I #
face $-1 $270 $271 $25 $-1 $272 reversed single #
loop $-1 $-1 $273 $108 #
plane-surface $-1 0 -27.524364323556373 0 0 1 0 0 0 1 forward_v I I I I #
coedge $-1 $185 $114 $274 $275 reversed $109 $-1 #
coedge $-1 $276 $111 $273 $277 reversed $69 $-1 #
coedge $-1 $111 $276 $278 $279 reversed $69 $-1 #
coedge $-1 $192 $182 $111 $186 reversed $109 $-1 #
edge $-1 $280 -27.524364323556373 $281 27.524364323556373 $185 $282 forward 7 unknown #
coedge $-1 $113 $112 $283 $284 reversed $44 $-1 #
coedge $-1 $285 $286 $112 $189 forward $287 $-1 #
edge $-1 $288 -34.299486431550861 $194 -26.290053538380636 $188 $289 forward 7 unknown #
coedge $-1 $290 $274 $113 $191 forward $180 $-1 #
edge $-1 $193 26.290053538380636 $291 34.299486431550861 $190 $292 forward 7 unknown #
coedge $-1 $114 $185 $285 $293 reversed $109 $-1 #
vertex $-1 $191 $294 #
vertex $-1 $189 $295 #
straight-curve $-1 -56.584823523346387 0 -2.3569775151647328 0 1 0 I I #
face $-1 $-1 $296 $26 $-1 $297 reversed single #
loop $-1 $-1 $122 $116 #
plane-surface $-1 0 0 6.169902902095215 0 0 1 1 0 0 forward_v I I I I #
coedge $-1 $298 $299 $300 $301 reversed $117 $-1 #
coedge $-1 $302 $119 $121 $206 forward $73 $-1 #
coedge $-1 $119 $302 $298 $303 forward $73 $-1 #
coedge $-1 $300 $122 $119 $203 forward $197 $-1 #
edge $-1 $209 -33.727755957498722 $304 -11.986379174196607 $202 $305 forward 7 unknown #
coedge $-1 $306 $307 $120 $205 forward $296 $-1 #
edge $-1 $308 -67.794393098763734 $208 -64.363993672163176 $204 $309 forward 7 unknown #
edge $-1 $209 48.750246237454348 $308 55.048728647112739 $121 $310 forward 7 unknown #
coedge $-1 $122 $300 $306 $311 forward $197 $-1 #
vertex $-1 $205 $312 #
vertex $-1 $123 $313 #
straight-curve $-1 -56.584823523346387 25.858861972894971 6.1699029020952167 0 -1 0 I I #
coedge $-1 $211 $211 $-1 $314 reversed $126 $-1 #
edge $-1 $315 0 $315 6.2831853071796004 $127 $316 forward 7 unknown #
vertex $-1 $130 $317 #
ellipse-curve $-1 -45.714135131695329 24.883188428298975 4.45470318879494 0 0.54463904215088732 0.83867056331134215 1 0 0 1 I I #
face $-1 $-1 $227 $28 $-1 $318 forward single #
loop $-1 $-1 $319 $131 #
plane-surface $-1 0 -27.524364323556373 0 0 1 0 0 0 1 forward_v I I I I #
coedge $-1 $320 $321 $322 $323 reversed $132 $-1 #
coedge $-1 $324 $134 $136 $225 forward $82 $-1 #
coedge $-1 $134 $324 $320 $325 forward $82 $-1 #
coedge $-1 $322 $137 $134 $222 forward $227 $-1 #
edge $-1 $229 13.905192786269659 $326 33.088151420141038 $221 $327 forward 7 unknown #
coedge $-1 $328 $329 $135 $224 forward $216 $-1 #
edge $-1 $330 -50.98996705928986 $228 -47.355831693732014 $223 $331 forward 7 unknown #
edge $-1 $229 -6.1827602937563633 $330 -1.3060111725721878e-014 $136 $332 forward 7 unknown #
coedge $-1 $137 $322 $328 $333 forward $227 $-1 #
loop $-1 $-1 $322 $215 #
vertex $-1 $224 $334 #
vertex $-1 $138 $335 #
straight-curve $-1 -37.401864889475007 -51.729733951264642 6.1699029020952167 0 1 0 I I #
coedge $-1 $231 $231 $-1 $336 reversed $141 $-1 #
edge $-1 $337 0 $337 6.2831853071796004 $142 $338 forward 7 unknown #
vertex $-1 $145 $339 #
ellipse-curve $-1 -52.748231796572114 -25.023385265524706 4.3528352193162938 0 -0.5877852598018023 0.80901698891910034 1.5 0 0 1 I I #
coedge $-1 $235 $235 $-1 $340 reversed $148 $-1 #
edge $-1 $341 0 $341 6.2831853071796004 $149 $342 forward 7 unknown #
vertex $-1 $152 $343 #
ellipse-curve $-1 -46.993344206410697 -25.023385265524706 4.3528352193162938 0 -0.5877852598018023 0.80901698891910034 1.5 0 0 1 I I #
coedge $-1 $239 $239 $-1 $344 reversed $155 $-1 #
edge $-1 $345 0 $345 6.2831853071796004 $156 $346 forward 7 unknown #
vertex $-1 $159 $347 #
ellipse-curve $-1 -41.238456616249287 -25.023385265524706 4.3528352193162938 0 -0.5877852598018023 0.80901698891910034 1.5 0 0 1 I I #
face $-1 $-1 $175 $24 $-1 $348 reversed single #
loop $-1 $-1 $259 $160 #
plane-surface $-1 0 27.524364323556373 0 0 -1 0 0 0 -1 forward_v I I I I #
coedge $-1 $349 $257 $260 $350 forward $161 $-1 #
coedge $-1 $263 $163 $164 $251 reversed $101 $-1 #
coedge $-1 $257 $349 $163 $249 reversed $161 $-1 #
edge $-1 $264 -6.169902902095215 $351 6.169902902095215 $248 $352 forward 7 unknown #
coedge $-1 $165 $164 $349 $353 forward $65 $-1 #
edge $-1 $255 -64.594256416516615 $351 64.594256416516615 $247 $354 forward 7 unknown #
coedge $-1 $260 $259 $165 $253 reversed $244 $-1 #
edge $-1 $355 -64.594256416516615 $254 64.594256416516615 $252 $356 forward 7 unknown #
vertex $-1 $167 $357 #
vertex $-1 $266 $358 #
straight-curve $-1 64.594256416516615 0 -6.169902902095215 0 -1 0 I I #
coedge $-1 $246 $248 $168 $258 reversed $161 $-1 #
edge $-1 $261 -27.524364323556373 $264 27.524364323556373 $257 $359 forward 7 unknown #
coedge $-1 $252 $169 $174 $267 forward $244 $-1 #
coedge $-1 $169 $252 $246 $350 reversed $244 $-1 #
vertex $-1 $170 $360 #
straight-curve $-1 0 27.524364323556373 6.169902902095215 -1 0 0 I I #
coedge $-1 $171 $247 $173 $266 reversed $101 $-1 #
vertex $-1 $258 $361 #
straight-curve $-1 0 -27.524364323556373 6.169902902095215 1 0 0 I I #
edge $-1 $176 -6.169902902095215 $255 6.169902902095215 $173 $362 forward 7 unknown #
edge $-1 $177 -6.169902902095215 $254 6.169902902095215 $174 $363 forward 7 unknown #
point $-1 64.594256416516615 -27.524364323556373 6.169902902095215 #
point $-1 64.594256416516615 27.524364323556373 6.169902902095215 #
face $-1 $-1 $287 $25 $-1 $364 reversed single #
loop $-1 $-1 $365 $179 #
plane-surface $-1 -64.594256416516615 0 0 1 0 0 0 0 -1 forward_v I I I I #
coedge $-1 $274 $290 $183 $277 forward $180 $-1 #
coedge $-1 $190 $273 $182 $275 forward $180 $-1 #
edge $-1 $281 -3.4284887575823664 $193 -0.42848875758236638 $274 $366 forward 7 unknown #
coedge $-1 $184 $183 $365 $367 reversed $69 $-1 #
edge $-1 $368 -34.299486431550861 $281 -26.290053538380636 $273 $369 forward 7 unknown #
coedge $-1 $286 $285 $184 $279 forward $287 $-1 #
edge $-1 $280 26.290053538380636 $370 34.299486431550861 $278 $371 forward 7 unknown #
vertex $-1 $279 $372 #
vertex $-1 $277 $373 #
straight-curve $-1 -56.584823523346387 0 -5.3569775151647328 0 -1 0 I I #
coedge $-1 $374 $375 $187 $284 forward $271 $-1 #
edge $-1 $291 -27.524364323556373 $288 27.524364323556373 $283 $376 forward 7 unknown #
coedge $-1 $278 $188 $192 $293 forward $287 $-1 #
coedge $-1 $188 $278 $374 $377 reversed $287 $-1 #
loop $-1 $-1 $278 $270 #
vertex $-1 $377 $378 #
straight-curve $-1 -30.29476998496575 27.524364323556373 -2.3569775151647328 1 0 0 I I #
coedge $-1 $273 $190 $375 $379 forward $180 $-1 #
vertex $-1 $379 $380 #
straight-curve $-1 -30.29476998496575 -27.524364323556373 -2.3569775151647328 -1 0 0 I I #
edge $-1 $194 0.42848875758236638 $280 3.4284887575823664 $285 $381 forward 7 unknown #
point $-1 -56.584823523346387 -27.524364323556373 -2.3569775151647328 #
point $-1 -56.584823523346387 27.524364323556373 -2.3569775151647328 #
loop $-1 $-1 $204 $196 #
plane-surface $-1 0 27.524364323556373 0 0 -1 0 0 0 -1 forward_v I I I I #
coedge $-1 $299 $199 $201 $303 reversed $117 $-1 #
coedge $-1 $199 $298 $382 $383 reversed $117 $-1 #
coedge $-1 $207 $202 $199 $301 forward $197 $-1 #
edge $-1 $304 -3.6168494398533824 $384 1.6655023506614022 $300 $385 forward 7 unknown #
coedge $-1 $201 $200 $307 $386 reversed $73 $-1 #
edge $-1 $387 -55.048728647112739 $304 -48.750246237454348 $298 $388 forward 7 unknown #
vertex $-1 $203 $389 #
straight-curve $-1 -22.857067565847665 22.242012533041589 6.1699029020952167 1 0 0 I I #
coedge $-1 $382 $204 $207 $311 reversed $296 $-1 #
coedge $-1 $204 $382 $302 $386 forward $296 $-1 #
vertex $-1 $205 $390 #
straight-curve $-1 -56.584823523346387 27.524364323556373 70.533896574258392 0 0 1 I I #
straight-curve $-1 -56.584823523346387 -18.643383940490892 32.721190317482254 0 0.83867056331134215 -0.54463904215088732 I I #
edge $-1 $384 34.843446740044271 $208 56.584823523346387 $306 $391 forward 7 unknown #
point $-1 -56.584823523346387 27.524364323556373 6.169902902095215 #
point $-1 -56.584823523346387 22.242012533041589 6.1699029020952167 #
edge $-1 $392 1 $392 0 $211 $-1 forward 7 unknown #
vertex $-1 $212 $393 #
ellipse-curve $-1 -45.714135131695329 22.841361309066215 1.3105652042894138 0 0.54463904215088732 0.83867056331134215 1 0 0 1 I I #
point $-1 -44.714135131695329 24.883188428298961 4.4547031887949196 #
plane-surface $-1 0 0 6.169902902095215 0 0 1 1 0 0 forward_v I I I I #
coedge $-1 $329 $328 $321 $394 forward $216 $-1 #
coedge $-1 $321 $218 $220 $325 reversed $132 $-1 #
coedge $-1 $218 $320 $319 $394 reversed $132 $-1 #
coedge $-1 $226 $221 $218 $323 forward $227 $-1 #
edge $-1 $326 -29.207327743771604 $395 -24.205369627708269 $322 $396 forward 7 unknown #
coedge $-1 $220 $219 $329 $397 reversed $82 $-1 #
edge $-1 $398 1.3060111725721878e-014 $326 6.1827602937563633 $320 $399 forward 7 unknown #
vertex $-1 $222 $400 #
straight-curve $-1 -23.496672103205348 -22.522406207493038 6.169902902095215 -1 0 0 I I #
coedge $-1 $319 $223 $226 $333 reversed $216 $-1 #
coedge $-1 $223 $319 $324 $397 forward $216 $-1 #
vertex $-1 $224 $401 #
straight-curve $-1 -37.401864889475007 -27.52436432355637 53.525734595827231 0 0 1 I I #
straight-curve $-1 -37.401864889475007 -27.524364323556384 2.5357675365373638 0 -0.80901698891910034 -0.5877852598018023 I I #
edge $-1 $395 -56.584823523346387 $228 -37.401864889475007 $328 $402 forward 7 unknown #
point $-1 -37.401864889475007 -27.524364323556373 6.169902902095215 #
point $-1 -37.401864889475007 -22.522406207493038 6.169902902095215 #
edge $-1 $403 1 $403 0 $231 $-1 forward 7 unknown #
vertex $-1 $232 $404 #
ellipse-curve $-1 -52.748231796572114 -22.248038597978216 0.5328983176283848 0 -0.5877852598018023 0.80901698891910034 1.5 0 0 1 I I #
point $-1 -51.248231796572114 -25.023385265524702 4.3528352193162876 #
edge $-1 $405 1 $405 0 $235 $-1 forward 7 unknown #
vertex $-1 $236 $406 #
ellipse-curve $-1 -46.993344206410697 -22.248038597978216 0.5328983176283848 0 -0.5877852598018023 0.80901698891910034 1.5 0 0 1 I I #
point $-1 -45.493344206410697 -25.023385265524702 4.3528352193162876 #
edge $-1 $407 1 $407 0 $239 $-1 forward 7 unknown #
vertex $-1 $240 $408 #
ellipse-curve $-1 -41.238456616249287 -22.248038597978216 0.5328983176283848 0 -0.5877852598018023 0.80901698891910034 1.5 0 0 1 I I #
point $-1 -39.738456616249287 -25.023385265524702 4.3528352193162876 #
plane-surface $-1 64.594256416516615 0 0 -1 0 0 0 0 1 forward_v I I I I #
coedge $-1 $248 $246 $250 $353 reversed $161 $-1 #
edge $-1 $261 -6.169902902095215 $355 6.169902902095215 $260 $409 forward 7 unknown #
vertex $-1 $353 $410 #
straight-curve $-1 -64.594256416516615 -27.524364323556373 0 0 0 -1 I I #
edge $-1 $351 -27.524364323556373 $355 27.524364323556373 $349 $411 forward 7 unknown #
straight-curve $-1 0 -27.524364323556373 -6.169902902095215 -1 0 0 I I #
vertex $-1 $253 $412 #
straight-curve $-1 0 27.524364323556373 -6.169902902095215 1 0 0 I I #
point $-1 64.594256416516615 27.524364323556373 -6.169902902095215 #
point $-1 64.594256416516615 -27.524364323556373 -6.169902902095215 #
straight-curve $-1 -64.594256416516615 0 6.169902902095215 0 -1 0 I I #
point $-1 -64.594256416516615 27.524364323556373 6.169902902095215 #
point $-1 -64.594256416516615 -27.524364323556373 6.169902902095215 #
straight-curve $-1 64.594256416516615 -27.524364323556373 0 0 0 -1 I I #
straight-curve $-1 64.594256416516615 27.524364323556373 0 0 0 -1 I I #
plane-surface $-1 0 27.524364323556373 0 0 -1 0 0 0 -1 forward_v I I I I #
coedge $-1 $375 $374 $276 $367 forward $271 $-1 #
straight-curve $-1 -56.584823523346387 -27.524364323556373 -1.9284887575823664 0 0 1 I I #
edge $-1 $370 -27.524364323556373 $368 27.524364323556373 $365 $413 forward 7 unknown #
vertex $-1 $277 $414 #
straight-curve $-1 -30.29476998496575 -27.524364323556373 -5.3569775151647328 1 0 0 I I #
vertex $-1 $279 $415 #
straight-curve $-1 -30.29476998496575 27.524364323556373 -5.3569775151647328 -1 0 0 I I #
point $-1 -56.584823523346387 27.524364323556373 -5.3569775151647328 #
point $-1 -56.584823523346387 -27.524364323556373 -5.3569775151647328 #
coedge $-1 $365 $283 $286 $377 forward $271 $-1 #
coedge $-1 $283 $365 $290 $379 reversed $271 $-1 #
straight-curve $-1 -64.594256416516615 0 -2.3569775151647328 0 1 0 I I #
edge $-1 $288 2.3569775151647328 $370 5.3569775151647328 $286 $416 forward 7 unknown #
point $-1 -64.594256416516615 27.524364323556373 -2.3569775151647328 #
edge $-1 $291 2.3569775151647328 $368 5.3569775151647328 $375 $417 forward 7 unknown #
point $-1 -64.594256416516615 -27.524364323556373 -2.3569775151647328 #
straight-curve $-1 -56.584823523346387 27.524364323556373 -1.9284887575823664 0 0 -1 I I #
coedge $-1 $307 $306 $299 $383 forward $296 $-1 #
edge $-1 $384 64.363993672163176 $387 67.794393098763734 $382 $418 forward 7 unknown #
vertex $-1 $311 $419 #
straight-curve $-1 -34.843446740044271 25.858861972894971 6.1699029020952167 0 1 0 I I #
edge $-1 $387 11.986379174196607 $308 33.727755957498722 $307 $420 forward 7 unknown #
vertex $-1 $386 $421 #
straight-curve $-1 -34.843446740044271 -18.643383940490892 32.721190317482254 0 -0.83867056331134215 0.54463904215088732 I I #
point $-1 -34.843446740044271 22.242012533041589 6.1699029020952167 #
point $-1 -56.584823523346387 27.52436432355637 2.7395034754946614 #
straight-curve $-1 0 27.524364323556373 6.169902902095215 -1 0 0 I I #
vertex $-1 $314 $422 #
point $-1 -44.714135131695329 22.841361309066215 1.3105652042894138 #
edge $-1 $395 47.355831693732014 $398 50.98996705928986 $319 $423 forward 7 unknown #
vertex $-1 $333 $424 #
straight-curve $-1 -56.584823523346387 -51.729733951264642 6.1699029020952167 0 -1 0 I I #
edge $-1 $398 -33.088151420141038 $330 -13.905192786269659 $329 $425 forward 7 unknown #
vertex $-1 $397 $426 #
straight-curve $-1 -56.584823523346387 -27.524364323556384 2.5357675365373638 0 0.80901698891910034 0.5877852598018023 I I #
point $-1 -56.584823523346387 -22.522406207493038 6.169902902095215 #
point $-1 -37.401864889475007 -27.524364323556373 2.5357675365373713 #
straight-curve $-1 0 -27.524364323556373 6.169902902095215 1 0 0 I I #
vertex $-1 $336 $427 #
point $-1 -51.248231796572114 -22.248038597978216 0.5328983176283848 #
vertex $-1 $340 $428 #
point $-1 -45.493344206410697 -22.248038597978216 0.5328983176283848 #
vertex $-1 $344 $429 #
point $-1 -39.738456616249287 -22.248038597978216 0.5328983176283848 #
straight-curve $-1 -64.594256416516615 27.524364323556373 0 0 0 -1 I I #
point $-1 -64.594256416516615 -27.524364323556373 -6.169902902095215 #
straight-curve $-1 -64.594256416516615 0 -6.169902902095215 0 1 0 I I #
point $-1 -64.594256416516615 27.524364323556373 -6.169902902095215 #
straight-curve $-1 -64.594256416516615 0 -5.3569775151647328 0 -1 0 I I #
point $-1 -64.594256416516615 -27.524364323556373 -5.3569775151647328 #
point $-1 -64.594256416516615 27.524364323556373 -5.3569775151647328 #
straight-curve $-1 -64.594256416516615 27.524364323556373 0 0 0 -1 I I #
straight-curve $-1 -64.594256416516615 -27.524364323556373 0 0 0 -1 I I #
straight-curve $-1 -34.843446740044271 27.524364323556373 70.533896574258392 0 0 -1 I I #
point $-1 -34.843446740044271 27.524364323556373 6.169902902095215 #
straight-curve $-1 -22.857067565847665 27.524364323556373 2.7395034754946597 -1 0 0 I I #
point $-1 -34.843446740044271 27.52436432355637 2.7395034754946614 #
point $-1 -45.714135131695329 22.296722266915332 0.47189464097807171 #
straight-curve $-1 -56.584823523346387 -27.52436432355637 53.525734595827231 0 0 -1 I I #
point $-1 -56.584823523346387 -27.524364323556373 6.169902902095215 #
straight-curve $-1 -23.496672103205348 -27.524364323556373 2.5357675365373704 1 0 0 I I #
point $-1 -56.584823523346387 -27.524364323556373 2.5357675365373713 #
point $-1 -52.748231796572114 -21.366360708275515 -0.68062716575026583 #
point $-1 -46.993344206410697 -21.366360708275515 -0.68062716575026583 #
point $-1 -41.238456616249287 -21.366360708275515 -0.68062716575026583 #
End-of-ACIS-data 