500 0 9 0           
7 Unknown 11 ACIS 5.0 NT 24 Thu Mar 25 18:10:22 1999 
-1 9.9999999999999995e-007 1e-010 
body $-1 $9 $-1 $10 #
body $-1 $11 $-1 $12 #
body $-1 $13 $-1 $14 #
body $-1 $15 $-1 $16 #
body $-1 $17 $-1 $18 #
body $-1 $19 $-1 $20 #
body $-1 $21 $-1 $22 #
body $-1 $23 $-1 $24 #
body $-1 $25 $-1 $26 #
lump $-1 $-1 $27 $0 #
transform $-1 1 0 0 0 1 0 0 0 1 51.487166966765344 22.980589178308659 8.1190554118963583 1 rotate no_reflect no_shear #
lump $-1 $-1 $28 $1 #
transform $-1 1 0 0 0 1 0 0 0 1 51.487166966765344 22.980589178308659 8.1190554118963583 1 rotate no_reflect no_shear #
lump $-1 $-1 $29 $2 #
transform $-1 1 0 0 0 1 0 0 0 1 51.487166966765344 22.980589178308659 8.1190554118963583 1 rotate no_reflect no_shear #
lump $-1 $-1 $30 $3 #
transform $-1 1 0 0 0 1 0 0 0 1 51.487166966765344 22.980589178308659 8.1190554118963583 1 rotate no_reflect no_shear #
lump $-1 $-1 $31 $4 #
transform $-1 1 0 0 0 1 0 0 0 1 51.487166966765344 22.980589178308659 8.1190554118963583 1 rotate no_reflect no_shear #
lump $-1 $-1 $32 $5 #
transform $-1 1 0 0 0 1 0 0 0 1 51.487166966765344 22.980589178308659 8.1190554118963583 1 rotate no_reflect no_shear #
lump $-1 $-1 $33 $6 #
transform $-1 1 0 0 0 1 0 0 0 1 51.487166966765344 22.980589178308659 8.1190554118963583 1 rotate no_reflect no_shear #
lump $-1 $-1 $34 $7 #
transform $-1 1 0 0 0 1 0 0 0 1 51.487166966765344 22.980589178308659 8.1190554118963583 1 rotate no_reflect no_shear #
lump $-1 $-1 $35 $8 #
transform $-1 1 0 0 0 1 0 0 0 1 51.487166966765344 22.980589178308659 8.1190554118963583 1 rotate no_reflect no_shear #
shell $-1 $-1 $-1 $36 $-1 $9 #
shell $-1 $-1 $-1 $37 $-1 $11 #
shell $-1 $-1 $-1 $38 $-1 $13 #
shell $-1 $-1 $-1 $39 $-1 $15 #
shell $-1 $-1 $-1 $40 $-1 $17 #
shell $-1 $-1 $-1 $41 $-1 $19 #
shell $-1 $-1 $-1 $42 $-1 $21 #
shell $-1 $-1 $-1 $43 $-1 $23 #
shell $-1 $-1 $-1 $44 $-1 $25 #
face $-1 $45 $46 $27 $-1 $47 forward single #
face $-1 $48 $49 $28 $-1 $50 reversed single #
face $-1 $51 $52 $29 $-1 $53 reversed single #
face $-1 $54 $55 $30 $-1 $56 forward single #
face $-1 $57 $58 $31 $-1 $59 forward single #
face $-1 $60 $61 $32 $-1 $62 reversed single #
face $-1 $63 $64 $33 $-1 $65 forward single #
face $-1 $66 $67 $34 $-1 $68 forward single #
face $-1 $69 $70 $35 $-1 $71 forward single #
face $-1 $72 $73 $27 $-1 $74 reversed single #
loop $-1 $-1 $75 $36 #
plane-surface $-1 0 0 8.1190554118963583 0 0 1 1 0 0 forward_v I I I I #
face $-1 $76 $77 $28 $-1 $78 reversed single #
loop $-1 $-1 $79 $37 #
plane-surface $-1 -48.233949896424946 0 5.1190554118963583 0 0 1 1 0 0 forward_v I I I I #
face $-1 $80 $81 $29 $-1 $82 reversed single #
loop $-1 $-1 $83 $38 #
plane-surface $-1 42.808529972095315 -22.980589178308662 3.981730560716656 0 -0.62932039886446345 0.77714595512881146 1 0 0 forward_v I I I I #
face $-1 $84 $85 $30 $-1 $86 forward single #
loop $-1 $87 $88 $39 #
cone-surface $-1 39.089114117236747 -19.265601369556052 4.6174152506905592 0 0.62932039886446345 -0.77714595512881146 1 0 0 1 I I 0 1 1 forward I I I I #
face $-1 $89 $90 $31 $-1 $91 forward single #
loop $-1 $92 $93 $40 #
cone-surface $-1 46.527945826953911 -19.265601369556052 4.6174152506905592 0 0.62932039886446345 -0.77714595512881146 1 0 0 1 I I 0 1 1 forward I I I I #
face $-1 $94 $95 $32 $-1 $96 reversed single #
loop $-1 $-1 $97 $41 #
plane-surface $-1 -35.238702618573029 -9.5188713319031422 36.507125331303769 0 0.70710678939079041 0.70710677298230451 1 0 0 forward_v I I I I #
face $-1 $98 $99 $33 $-1 $100 forward single #
loop $-1 $101 $102 $42 #
cone-surface $-1 -41.083920743079943 20.022769702594193 5.1612359094131426 0 -0.70710678939079041 -0.70710677298230451 1 0 0 1 I I 0 1 1 forward I I I I #
face $-1 $103 $104 $34 $-1 $105 forward single #
loop $-1 $106 $107 $43 #
cone-surface $-1 -35.238702618573029 20.022769702594193 5.1612359094131426 0 -0.70710678939079041 -0.70710677298230451 1 0 0 1 I I 0 1 1 forward I I I I #
face $-1 $108 $109 $35 $-1 $110 forward single #
loop $-1 $111 $112 $44 #
cone-surface $-1 -29.393484494066119 20.022769702594193 5.1612359094131426 0 -0.70710678939079041 -0.70710677298230451 1 0 0 1 I I 0 1 1 forward I I I I #
face $-1 $113 $114 $27 $-1 $115 reversed single #
loop $-1 $-1 $116 $45 #
plane-surface $-1 0 0 -8.1190554118963583 0 0 1 1 0 0 forward_v I I I I #
coedge $-1 $117 $118 $119 $120 forward $46 $-1 #
face $-1 $121 $122 $28 $-1 $123 reversed single #
loop $-1 $-1 $124 $48 #
plane-surface $-1 -44.980732826084548 0 6.6190554118963583 -1 0 0 0 0 1 forward_v I I I I #
coedge $-1 $125 $126 $127 $128 forward $49 $-1 #
face $-1 $129 $130 $29 $-1 $131 reversed single #
loop $-1 $-1 $132 $51 #
plane-surface $-1 34.129892977425293 -87.784438082160648 84.007817659243543 1 0 0 0 0.62932039886446345 -0.77714595512881146 forward_v I I I I #
coedge $-1 $133 $134 $135 $136 reversed $52 $-1 #
face $-1 $-1 $137 $30 $-1 $138 forward single #
loop $-1 $139 $140 $54 #
cone-surface $-1 39.089114117236747 -17.790538656039772 2.7958645375102087 0 0.62932039886446345 -0.77714595512881146 0.5 0 0 1 I I -0.70710678118654746 0.70710678118654746 0.5 forward I I I I #
loop $-1 $-1 $141 $39 #
coedge $-1 $88 $88 $142 $143 reversed $55 $-1 #
face $-1 $-1 $144 $31 $-1 $145 forward single #
loop $-1 $146 $147 $57 #
cone-surface $-1 46.527945826953911 -17.790538656039772 2.7958645375102087 0 0.62932039886446345 -0.77714595512881146 0.5 0 0 1 I I -0.70710678118654746 0.70710678118654746 0.5 forward I I I I #
loop $-1 $-1 $148 $40 #
coedge $-1 $93 $93 $149 $150 reversed $58 $-1 #
face $-1 $151 $152 $32 $-1 $153 forward single #
loop $-1 $-1 $154 $60 #
plane-surface $-1 -25.49667241106151 63.294979325490857 109.32097429904486 -1 0 0 0 0.70710678939079041 0.70710677298230451 forward_v I I I I #
coedge $-1 $155 $156 $157 $158 reversed $61 $-1 #
face $-1 $-1 $159 $33 $-1 $160 forward single #
loop $-1 $161 $162 $63 #
cone-surface $-1 -41.083920743079943 18.767092456960579 3.9055586929176478 0 -0.70710678939079041 -0.70710677298230451 0.5 0 0 1 I I -0.70710678118654746 0.70710678118654746 0.5 forward I I I I #
loop $-1 $-1 $163 $42 #
coedge $-1 $102 $102 $164 $165 reversed $64 $-1 #
face $-1 $-1 $166 $34 $-1 $167 forward single #
loop $-1 $168 $169 $66 #
cone-surface $-1 -35.238702618573029 18.767092456960579 3.9055586929176478 0 -0.70710678939079041 -0.70710677298230451 0.5 0 0 1 I I -0.70710678118654746 0.70710678118654746 0.5 forward I I I I #
loop $-1 $-1 $170 $43 #
coedge $-1 $107 $107 $171 $172 reversed $67 $-1 #
face $-1 $-1 $173 $35 $-1 $174 forward single #
loop $-1 $175 $176 $69 #
cone-surface $-1 -29.393484494066119 18.767092456960579 3.9055586929176478 0 -0.70710678939079041 -0.70710677298230451 0.5 0 0 1 I I -0.70710678118654746 0.70710678118654746 0.5 forward I I I I #
loop $-1 $-1 $177 $44 #
coedge $-1 $112 $112 $178 $179 reversed $70 $-1 #
face $-1 $180 $181 $27 $-1 $182 reversed single #
loop $-1 $-1 $183 $72 #
plane-surface $-1 0 -22.980589178308659 0 0 1 0 0 0 1 forward_v I I I I #
coedge $-1 $184 $185 $186 $187 forward $73 $-1 #
coedge $-1 $188 $75 $189 $190 forward $46 $-1 #
coedge $-1 $75 $188 $191 $192 forward $46 $-1 #
coedge $-1 $193 $194 $75 $120 reversed $195 $-1 #
edge $-1 $196 -22.980589178308659 $197 22.980589178308659 $119 $198 forward 7 unknown #
face $-1 $199 $200 $28 $-1 $201 reversed single #
loop $-1 $-1 $202 $76 #
plane-surface $-1 0 22.980589178308659 0 0 -1 0 0 0 -1 forward_v I I I I #
coedge $-1 $203 $204 $205 $206 reversed $77 $-1 #
coedge $-1 $207 $79 $208 $209 reversed $49 $-1 #
coedge $-1 $79 $207 $210 $211 reversed $49 $-1 #
coedge $-1 $204 $203 $79 $128 reversed $77 $-1 #
edge $-1 $212 -22.980589178308659 $213 22.980589178308659 $127 $214 forward 7 unknown #
face $-1 $215 $216 $29 $-1 $217 forward single #
loop $-1 $-1 $218 $80 #
plane-surface $-1 51.487166966765344 0 0 -1 0 0 0 0 1 forward_v I I I I #
coedge $-1 $219 $220 $221 $222 reversed $81 $-1 #
coedge $-1 $223 $83 $218 $224 reversed $52 $-1 #
coedge $-1 $83 $223 $219 $225 forward $52 $-1 #
coedge $-1 $221 $226 $83 $136 forward $216 $-1 #
edge $-1 $227 -30.082901980717679 $228 -12.725627991377635 $135 $229 forward 7 unknown #
loop $-1 $-1 $142 $84 #
plane-surface $-1 42.808529972095315 -22.980589178308662 3.981730560716656 0 -0.62932039886446345 0.77714595512881146 1 0 0 forward_v I I I I #
loop $-1 $-1 $230 $54 #
coedge $-1 $140 $140 $141 $231 reversed $85 $-1 #
coedge $-1 $141 $141 $140 $231 forward $87 $-1 #
coedge $-1 $142 $142 $88 $143 forward $137 $-1 #
edge $-1 $232 -3.3766921531849239e-017 $232 6.2831853071796004 $142 $233 forward 7 unknown #
loop $-1 $-1 $149 $89 #
plane-surface $-1 42.808529972095315 -22.980589178308662 3.981730560716656 0 -0.62932039886446345 0.77714595512881146 1 0 0 forward_v I I I I #
loop $-1 $-1 $234 $57 #
coedge $-1 $147 $147 $148 $235 reversed $90 $-1 #
coedge $-1 $148 $148 $147 $235 forward $92 $-1 #
coedge $-1 $149 $149 $93 $150 forward $144 $-1 #
edge $-1 $236 -3.3766921531849239e-017 $236 6.2831853071796004 $149 $237 forward 7 unknown #
face $-1 $238 $239 $32 $-1 $240 forward single #
loop $-1 $-1 $241 $94 #
plane-surface $-1 -44.980732826084548 0 6.6190554118963583 -1 0 0 0 0 1 forward_v I I I I #
coedge $-1 $242 $243 $244 $245 reversed $95 $-1 #
coedge $-1 $246 $97 $241 $247 reversed $61 $-1 #
coedge $-1 $97 $246 $242 $248 forward $61 $-1 #
coedge $-1 $244 $249 $97 $158 forward $239 $-1 #
edge $-1 $250 -27.361381516798033 $251 -7.8773211017749958 $157 $252 forward 7 unknown #
loop $-1 $-1 $164 $98 #
plane-surface $-1 -35.238702618573029 -9.5188713319031422 36.507125331303769 0 0.70710678939079041 0.70710677298230451 1 0 0 forward_v I I I I #
loop $-1 $-1 $253 $63 #
coedge $-1 $162 $162 $163 $254 reversed $99 $-1 #
coedge $-1 $163 $163 $162 $254 forward $101 $-1 #
coedge $-1 $164 $164 $102 $165 forward $159 $-1 #
edge $-1 $255 2.512148021336018e-015 $255 6.2831853071796031 $164 $256 forward 7 unknown #
loop $-1 $-1 $171 $103 #
plane-surface $-1 -35.238702618573029 -9.5188713319031422 36.507125331303769 0 0.70710678939079041 0.70710677298230451 1 0 0 forward_v I I I I #
loop $-1 $-1 $257 $66 #
coedge $-1 $169 $169 $170 $258 reversed $104 $-1 #
coedge $-1 $170 $170 $169 $258 forward $106 $-1 #
coedge $-1 $171 $171 $107 $172 forward $166 $-1 #
edge $-1 $259 2.512148021336018e-015 $259 6.2831853071796031 $171 $260 forward 7 unknown #
loop $-1 $-1 $178 $108 #
plane-surface $-1 -35.238702618573029 -9.5188713319031422 36.507125331303769 0 0.70710678939079041 0.70710677298230451 1 0 0 forward_v I I I I #
loop $-1 $-1 $261 $69 #
coedge $-1 $176 $176 $177 $262 reversed $109 $-1 #
coedge $-1 $177 $177 $176 $262 forward $111 $-1 #
coedge $-1 $178 $178 $112 $179 forward $173 $-1 #
edge $-1 $263 2.512148021336018e-015 $263 6.2831853071796031 $178 $264 forward 7 unknown #
face $-1 $265 $266 $27 $-1 $267 reversed single #
loop $-1 $-1 $268 $113 #
plane-surface $-1 -51.487166966765344 0 0 1 0 0 0 0 -1 forward_v I I I I #
coedge $-1 $269 $191 $270 $271 forward $114 $-1 #
coedge $-1 $272 $116 $269 $273 forward $73 $-1 #
coedge $-1 $116 $272 $274 $275 forward $73 $-1 #
coedge $-1 $194 $193 $116 $187 reversed $195 $-1 #
edge $-1 $276 -22.980589178308659 $277 22.980589178308659 $186 $278 forward 7 unknown #
coedge $-1 $118 $117 $279 $280 forward $46 $-1 #
coedge $-1 $281 $282 $117 $190 reversed $266 $-1 #
edge $-1 $197 -51.487166966765344 $283 51.487166966765344 $189 $284 forward 7 unknown #
coedge $-1 $183 $285 $118 $192 reversed $114 $-1 #
edge $-1 $286 -51.487166966765344 $196 51.487166966765344 $191 $287 forward 7 unknown #
coedge $-1 $186 $119 $285 $288 forward $195 $-1 #
coedge $-1 $119 $186 $281 $289 reversed $195 $-1 #
loop $-1 $-1 $193 $265 #
vertex $-1 $120 $290 #
vertex $-1 $120 $291 #
straight-curve $-1 51.487166966765344 0 8.1190554118963583 0 1 0 I I #
face $-1 $292 $293 $28 $-1 $294 forward single #
loop $-1 $-1 $295 $121 #
plane-surface $-1 -51.487166966765344 0 0 1 0 0 0 0 -1 forward_v I I I I #
coedge $-1 $210 $296 $204 $297 forward $122 $-1 #
coedge $-1 $127 $124 $298 $299 reversed $77 $-1 #
coedge $-1 $124 $127 $202 $297 reversed $77 $-1 #
coedge $-1 $300 $301 $124 $206 forward $293 $-1 #
edge $-1 $302 -22.980589178308659 $303 22.980589178308659 $205 $304 forward 7 unknown #
coedge $-1 $126 $125 $295 $305 reversed $49 $-1 #
coedge $-1 $298 $306 $125 $209 forward $307 $-1 #
edge $-1 $308 -27.370192018552871 $213 -20.863757877872075 $208 $309 forward 7 unknown #
coedge $-1 $310 $202 $126 $211 forward $122 $-1 #
edge $-1 $212 20.863757877872075 $311 27.370192018552871 $210 $312 forward 7 unknown #
vertex $-1 $211 $313 #
vertex $-1 $209 $314 #
straight-curve $-1 -44.980732826084548 0 5.1190554118963583 0 -1 0 I I #
face $-1 $-1 $315 $29 $-1 $316 reversed single #
loop $-1 $-1 $135 $129 #
plane-surface $-1 0 0 8.1190554118963583 0 0 1 1 0 0 forward_v I I I I #
coedge $-1 $317 $318 $133 $224 forward $130 $-1 #
coedge $-1 $220 $132 $134 $225 reversed $81 $-1 #
coedge $-1 $132 $219 $319 $320 reversed $81 $-1 #
coedge $-1 $321 $135 $132 $222 forward $216 $-1 #
edge $-1 $228 -26.020800452108773 $322 -20.911629862771665 $221 $323 forward 7 unknown #
coedge $-1 $134 $133 $324 $325 reversed $52 $-1 #
edge $-1 $326 -7.6767438308792393 $227 -1.1024696477365539 $218 $327 forward 7 unknown #
edge $-1 $328 4.4378234572560832e-015 $228 6.5742741831426894 $219 $329 forward 7 unknown #
coedge $-1 $135 $321 $317 $330 forward $216 $-1 #
vertex $-1 $136 $331 #
vertex $-1 $136 $332 #
straight-curve $-1 21.404264986047657 -17.871418588971551 8.1190554118963583 -1 0 0 I I #
coedge $-1 $230 $230 $-1 $333 reversed $139 $-1 #
edge $-1 $334 0 $334 6.2831853071796004 $140 $335 forward 7 unknown #
vertex $-1 $143 $336 #
ellipse-curve $-1 39.089114117236747 -20.426003883640103 6.0503929863065089 0 -0.62932039886446345 0.77714595512881146 1 0 0 1 I I #
coedge $-1 $234 $234 $-1 $337 reversed $146 $-1 #
edge $-1 $338 0 $338 6.2831853071796004 $147 $339 forward 7 unknown #
vertex $-1 $150 $340 #
ellipse-curve $-1 46.527945826953911 -20.426003883640103 6.0503929863065089 0 -0.62932039886446345 0.77714595512881146 1 0 0 1 I I #
face $-1 $-1 $341 $32 $-1 $342 reversed single #
loop $-1 $-1 $244 $151 #
plane-surface $-1 0 0 8.1190554118963583 0 0 1 1 0 0 forward_v I I I I #
coedge $-1 $343 $344 $155 $247 forward $152 $-1 #
coedge $-1 $243 $154 $156 $248 reversed $95 $-1 #
coedge $-1 $154 $242 $345 $346 reversed $95 $-1 #
coedge $-1 $347 $157 $154 $245 forward $239 $-1 #
edge $-1 $251 -12.778291733989246 $348 -8.6669004844367699 $244 $349 forward 7 unknown #
coedge $-1 $156 $155 $350 $351 reversed $61 $-1 #
edge $-1 $352 -32.028720580749599 $250 -26.214335247948704 $241 $353 forward 7 unknown #
edge $-1 $354 -45.961178356617324 $251 -40.146793023816436 $242 $355 forward 7 unknown #
coedge $-1 $157 $347 $343 $356 forward $239 $-1 #
vertex $-1 $158 $357 #
vertex $-1 $158 $358 #
straight-curve $-1 -17.619351309286515 18.869197928756183 8.1190554118963583 1 0 0 I I #
coedge $-1 $253 $253 $-1 $359 reversed $161 $-1 #
edge $-1 $360 0 $360 6.2831853071796004 $162 $361 forward 7 unknown #
vertex $-1 $165 $362 #
ellipse-curve $-1 -41.083920743079943 20.924893553532417 6.063359739417491 0 0.70710678939079041 0.70710677298230451 1 0 0 1 I I #
coedge $-1 $257 $257 $-1 $363 reversed $168 $-1 #
edge $-1 $364 0 $364 6.2831853071796004 $169 $365 forward 7 unknown #
vertex $-1 $172 $366 #
ellipse-curve $-1 -35.238702618573029 20.924893553532417 6.063359739417491 0 0.70710678939079041 0.70710677298230451 1 0 0 1 I I #
coedge $-1 $261 $261 $-1 $367 reversed $175 $-1 #
edge $-1 $368 0 $368 6.2831853071796004 $176 $369 forward 7 unknown #
vertex $-1 $179 $370 #
ellipse-curve $-1 -29.393484494066119 20.924893553532417 6.063359739417491 0 0.70710678939079041 0.70710677298230451 1 0 0 1 I I #
face $-1 $-1 $195 $27 $-1 $371 reversed single #
loop $-1 $-1 $281 $180 #
plane-surface $-1 0 22.980589178308659 0 0 -1 0 0 0 -1 forward_v I I I I #
coedge $-1 $372 $279 $282 $373 forward $181 $-1 #
coedge $-1 $285 $183 $184 $273 reversed $114 $-1 #
coedge $-1 $279 $372 $183 $271 reversed $181 $-1 #
edge $-1 $286 -8.1190554118963583 $374 8.1190554118963583 $270 $375 forward 7 unknown #
coedge $-1 $185 $184 $372 $376 forward $73 $-1 #
edge $-1 $277 -51.487166966765344 $374 51.487166966765344 $269 $377 forward 7 unknown #
coedge $-1 $282 $281 $185 $275 reversed $266 $-1 #
edge $-1 $378 -51.487166966765344 $276 51.487166966765344 $274 $379 forward 7 unknown #
vertex $-1 $187 $380 #
vertex $-1 $288 $381 #
straight-curve $-1 51.487166966765344 0 -8.1190554118963583 0 -1 0 I I #
coedge $-1 $268 $270 $188 $280 reversed $181 $-1 #
edge $-1 $283 -22.980589178308659 $286 22.980589178308659 $279 $382 forward 7 unknown #
coedge $-1 $274 $189 $194 $289 forward $266 $-1 #
coedge $-1 $189 $274 $268 $373 reversed $266 $-1 #
vertex $-1 $190 $383 #
straight-curve $-1 0 22.980589178308659 8.1190554118963583 -1 0 0 I I #
coedge $-1 $191 $269 $193 $288 reversed $114 $-1 #
vertex $-1 $280 $384 #
straight-curve $-1 0 -22.980589178308659 8.1190554118963583 1 0 0 I I #
edge $-1 $196 -8.1190554118963583 $277 8.1190554118963583 $193 $385 forward 7 unknown #
edge $-1 $197 -8.1190554118963583 $276 8.1190554118963583 $194 $386 forward 7 unknown #
point $-1 51.487166966765344 -22.980589178308659 8.1190554118963583 #
point $-1 51.487166966765344 22.980589178308659 8.1190554118963583 #
face $-1 $-1 $307 $28 $-1 $387 reversed single #
loop $-1 $-1 $205 $199 #
plane-surface $-1 0 0 8.1190554118963583 0 0 1 1 0 0 forward_v I I I I #
coedge $-1 $388 $389 $207 $305 forward $200 $-1 #
coedge $-1 $202 $310 $300 $390 reversed $122 $-1 #
edge $-1 $303 -4.8095277059481791 $212 -1.8095277059481791 $202 $391 forward 7 unknown #
coedge $-1 $392 $208 $203 $299 forward $307 $-1 #
edge $-1 $213 1.8095277059481791 $302 4.8095277059481791 $298 $393 forward 7 unknown #
coedge $-1 $394 $205 $296 $390 forward $293 $-1 #
coedge $-1 $205 $394 $392 $395 forward $293 $-1 #
vertex $-1 $299 $396 #
vertex $-1 $390 $397 #
straight-curve $-1 -44.980732826084548 0 8.1190554118963583 0 1 0 I I #
edge $-1 $311 -22.980589178308659 $308 22.980589178308659 $295 $398 forward 7 unknown #
coedge $-1 $208 $392 $388 $399 forward $307 $-1 #
loop $-1 $-1 $298 $292 #
vertex $-1 $305 $400 #
straight-curve $-1 -24.116974948212473 -22.980589178308659 5.1190554118963583 1 0 0 I I #
coedge $-1 $296 $210 $389 $401 reversed $122 $-1 #
vertex $-1 $305 $402 #
straight-curve $-1 -24.116974948212473 22.980589178308659 5.1190554118963583 -1 0 0 I I #
point $-1 -44.980732826084548 22.980589178308659 5.1190554118963583 #
point $-1 -44.980732826084548 -22.980589178308659 5.1190554118963583 #
loop $-1 $-1 $324 $215 #
plane-surface $-1 0 -22.980589178308659 0 0 1 0 0 0 1 forward_v I I I I #
coedge $-1 $318 $218 $226 $330 reversed $130 $-1 #
coedge $-1 $218 $317 $403 $404 forward $130 $-1 #
coedge $-1 $324 $405 $220 $320 forward $315 $-1 #
edge $-1 $322 33.884853417725409 $328 38.022178268905115 $319 $406 forward 7 unknown #
coedge $-1 $226 $221 $405 $407 forward $216 $-1 #
vertex $-1 $407 $408 #
straight-curve $-1 34.129892977425293 -43.892219041080324 8.1190554118963547 0 -1 0 I I #
coedge $-1 $403 $319 $223 $325 forward $315 $-1 #
edge $-1 $328 12.725627991377635 $326 30.082901980717679 $324 $409 forward 7 unknown #
vertex $-1 $325 $410 #
straight-curve $-1 51.487166966765344 -17.014638761580802 8.8128620503458901 0 0.77714595512881146 0.62932039886446345 I I #
vertex $-1 $325 $411 #
straight-curve $-1 34.129892977425293 -22.980589178308662 3.981730560716656 0 0.77714595512881146 0.62932039886446345 I I #
edge $-1 $412 -22.980589178308659 $227 -17.871418588971551 $317 $413 forward 7 unknown #
point $-1 51.487166966765336 -17.871418588971551 8.1190554118963583 #
point $-1 34.129892977425293 -17.871418588971551 8.1190554118963583 #
edge $-1 $414 1 $414 0 $230 $-1 forward 7 unknown #
vertex $-1 $231 $415 #
ellipse-curve $-1 39.089114117236747 -18.105198855472004 3.1844375150746145 0 -0.62932039886446345 0.77714595512881146 1 0 0 1 I I #
point $-1 40.089114117236747 -20.426003883640099 6.0503929863065045 #
edge $-1 $416 1 $416 0 $234 $-1 forward 7 unknown #
vertex $-1 $235 $417 #
ellipse-curve $-1 46.527945826953911 -18.105198855472004 3.1844375150746145 0 -0.62932039886446345 0.77714595512881146 1 0 0 1 I I #
point $-1 47.527945826953911 -20.426003883640099 6.0503929863065045 #
loop $-1 $-1 $418 $238 #
plane-surface $-1 0 22.980589178308659 0 0 -1 0 0 0 -1 forward_v I I I I #
coedge $-1 $344 $241 $249 $356 reversed $152 $-1 #
coedge $-1 $241 $343 $418 $419 reversed $152 $-1 #
coedge $-1 $350 $420 $243 $346 forward $341 $-1 #
edge $-1 $348 46.54143173762607 $354 50.652823082583815 $345 $421 forward 7 unknown #
coedge $-1 $249 $244 $420 $422 forward $239 $-1 #
vertex $-1 $422 $423 #
straight-curve $-1 -25.49667241106151 31.647489662745429 8.1190554118963547 0 1 0 I I #
coedge $-1 $418 $345 $246 $351 forward $341 $-1 #
edge $-1 $354 7.8773211017749958 $352 27.361381516798033 $350 $424 forward 7 unknown #
vertex $-1 $419 $425 #
straight-curve $-1 -44.980732826084548 0.33286392570289536 26.655389845087193 0 -0.70710677298230462 0.70710678939079052 I I #
vertex $-1 $351 $426 #
straight-curve $-1 -25.49667241106151 -9.5188713319031422 36.507125331303769 0 -0.70710677298230451 0.70710678939079041 I I #
edge $-1 $427 -22.980589178308659 $250 -18.869197928756183 $249 $428 forward 7 unknown #
point $-1 -44.980732826084548 18.869197928756183 8.1190554118963583 #
point $-1 -25.49667241106151 18.869197928756183 8.1190554118963583 #
edge $-1 $429 1 $429 0 $253 $-1 forward 7 unknown #
vertex $-1 $254 $430 #
ellipse-curve $-1 -41.083920743079943 19.120645851655976 4.2591120794088004 0 0.70710678939079041 0.70710677298230451 1 0 0 1 I I #
point $-1 -40.083920743079943 20.924893553532414 6.0633597394174839 #
edge $-1 $431 1 $431 0 $257 $-1 forward 7 unknown #
vertex $-1 $258 $432 #
ellipse-curve $-1 -35.238702618573029 19.120645851655976 4.2591120794088004 0 0.70710678939079041 0.70710677298230451 1 0 0 1 I I #
point $-1 -34.238702618573029 20.924893553532414 6.0633597394174839 #
edge $-1 $433 1 $433 0 $261 $-1 forward 7 unknown #
vertex $-1 $262 $434 #
ellipse-curve $-1 -29.393484494066119 19.120645851655976 4.2591120794088004 0 0.70710678939079041 0.70710677298230451 1 0 0 1 I I #
point $-1 -28.393484494066119 20.924893553532414 6.0633597394174839 #
plane-surface $-1 51.487166966765344 0 0 -1 0 0 0 0 1 forward_v I I I I #
coedge $-1 $270 $268 $272 $376 reversed $181 $-1 #
edge $-1 $283 -8.1190554118963583 $378 8.1190554118963583 $282 $435 forward 7 unknown #
vertex $-1 $376 $436 #
straight-curve $-1 -51.487166966765344 -22.980589178308659 0 0 0 -1 I I #
edge $-1 $374 -22.980589178308659 $378 22.980589178308659 $372 $437 forward 7 unknown #
straight-curve $-1 0 -22.980589178308659 -8.1190554118963583 -1 0 0 I I #
vertex $-1 $275 $438 #
straight-curve $-1 0 22.980589178308659 -8.1190554118963583 1 0 0 I I #
point $-1 51.487166966765344 22.980589178308659 -8.1190554118963583 #
point $-1 51.487166966765344 -22.980589178308659 -8.1190554118963583 #
straight-curve $-1 -51.487166966765344 0 8.1190554118963583 0 -1 0 I I #
point $-1 -51.487166966765344 22.980589178308659 8.1190554118963583 #
point $-1 -51.487166966765344 -22.980589178308659 8.1190554118963583 #
straight-curve $-1 51.487166966765344 -22.980589178308659 0 0 0 -1 I I #
straight-curve $-1 51.487166966765344 22.980589178308659 0 0 0 -1 I I #
plane-surface $-1 0 -22.980589178308659 0 0 1 0 0 0 1 forward_v I I I I #
coedge $-1 $439 $295 $306 $399 reversed $200 $-1 #
coedge $-1 $295 $439 $310 $401 forward $200 $-1 #
edge $-1 $303 44.980732826084548 $440 51.487166966765344 $296 $441 forward 7 unknown #
straight-curve $-1 -44.980732826084548 22.980589178308659 3.3095277059481791 0 0 -1 I I #
coedge $-1 $306 $298 $301 $395 reversed $307 $-1 #
straight-curve $-1 -44.980732826084548 -22.980589178308659 3.3095277059481791 0 0 1 I I #
coedge $-1 $301 $300 $439 $442 forward $293 $-1 #
edge $-1 $443 -51.487166966765344 $302 -44.980732826084548 $392 $444 forward 7 unknown #
point $-1 -44.980732826084548 -22.980589178308659 8.1190554118963583 #
point $-1 -44.980732826084548 22.980589178308659 8.1190554118963583 #
straight-curve $-1 -51.487166966765344 0 5.1190554118963583 0 -1 0 I I #
edge $-1 $443 -8.1190554118963583 $308 -5.1190554118963583 $388 $445 forward 7 unknown #
point $-1 -51.487166966765344 -22.980589178308659 5.1190554118963583 #
edge $-1 $440 -8.1190554118963583 $311 -5.1190554118963583 $310 $446 forward 7 unknown #
point $-1 -51.487166966765344 22.980589178308659 5.1190554118963583 #
coedge $-1 $405 $324 $318 $404 reversed $315 $-1 #
edge $-1 $412 -8.1190554118963583 $326 -3.9817305607166587 $318 $447 forward 7 unknown #
coedge $-1 $319 $403 $321 $407 reversed $315 $-1 #
straight-curve $-1 34.129892977425293 -22.980589178308662 42.003908829621771 0 0 -1 I I #
edge $-1 $322 34.129892977425293 $412 51.487166966765344 $405 $448 forward 7 unknown #
point $-1 34.129892977425293 -22.980589178308659 8.1190554118963583 #
straight-curve $-1 21.404264986047657 -22.980589178308659 3.9817305607166613 1 0 0 I I #
point $-1 51.487166966765336 -22.980589178308659 3.9817305607166587 #
point $-1 34.129892977425293 -22.980589178308659 3.9817305607166587 #
vertex $-1 $330 $449 #
straight-curve $-1 51.487166966765344 0 8.1190554118963583 0 1 0 I I #
vertex $-1 $333 $450 #
point $-1 40.089114117236747 -18.105198855472004 3.1844375150746145 #
vertex $-1 $337 $451 #
point $-1 47.527945826953911 -18.105198855472004 3.1844375150746145 #
coedge $-1 $420 $350 $344 $419 forward $341 $-1 #
edge $-1 $352 -50.652823082583815 $427 -46.54143173762607 $418 $452 forward 7 unknown #
coedge $-1 $345 $418 $347 $422 reversed $341 $-1 #
straight-curve $-1 -25.49667241106151 22.980589178308659 54.660487149522432 0 0 -1 I I #
edge $-1 $348 25.49667241106151 $427 44.980732826084548 $420 $453 forward 7 unknown #
point $-1 -25.49667241106151 22.980589178308659 8.1190554118963583 #
straight-curve $-1 -17.619351309286515 22.980589178308655 4.0076640669386183 -1 0 0 I I #
point $-1 -44.980732826084548 22.980589178308662 4.0076640669386165 #
point $-1 -25.49667241106151 22.980589178308662 4.0076640669386165 #
vertex $-1 $356 $454 #
straight-curve $-1 -44.980732826084548 0 8.1190554118963583 0 -1 0 I I #
vertex $-1 $359 $455 #
point $-1 -40.083920743079943 19.120645851655976 4.2591120794088004 #
vertex $-1 $363 $456 #
point $-1 -34.238702618573029 19.120645851655976 4.2591120794088004 #
vertex $-1 $367 $457 #
point $-1 -28.393484494066119 19.120645851655976 4.2591120794088004 #
straight-curve $-1 -51.487166966765344 22.980589178308659 0 0 0 -1 I I #
point $-1 -51.487166966765344 -22.980589178308659 -8.1190554118963583 #
straight-curve $-1 -51.487166966765344 0 -8.1190554118963583 0 1 0 I I #
point $-1 -51.487166966765344 22.980589178308659 -8.1190554118963583 #
coedge $-1 $389 $388 $394 $442 reversed $200 $-1 #
vertex $-1 $390 $458 #
straight-curve $-1 0 22.980589178308659 8.1190554118963583 -1 0 0 I I #
edge $-1 $440 -22.980589178308659 $443 22.980589178308659 $439 $459 forward 7 unknown #
vertex $-1 $442 $460 #
straight-curve $-1 0 -22.980589178308659 8.1190554118963583 1 0 0 I I #
straight-curve $-1 -51.487166966765344 -22.980589178308659 0 0 0 -1 I I #
straight-curve $-1 -51.487166966765344 22.980589178308659 0 0 0 -1 I I #
straight-curve $-1 51.487166966765344 -22.980589178308659 0 0 0 -1 I I #
straight-curve $-1 0 -22.980589178308659 8.1190554118963583 1 0 0 I I #
point $-1 51.487166966765344 -22.980589178308659 8.1190554118963583 #
point $-1 39.089114117236747 -17.475878456607539 2.4072915599458029 #
point $-1 46.527945826953911 -17.475878456607539 2.4072915599458029 #
straight-curve $-1 -44.980732826084548 22.980589178308659 54.660487149522432 0 0 1 I I #
straight-curve $-1 0 22.980589178308659 8.1190554118963583 -1 0 0 I I #
point $-1 -44.980732826084548 22.980589178308659 8.1190554118963583 #
point $-1 -41.083920743079943 18.413539062265183 3.5520053064264956 #
point $-1 -35.238702618573029 18.413539062265183 3.5520053064264956 #
point $-1 -29.393484494066119 18.413539062265183 3.5520053064264956 #
point $-1 -51.487166966765344 22.980589178308659 8.1190554118963583 #
straight-curve $-1 -51.487166966765344 0 8.1190554118963583 0 -1 0 I I #
point $-1 -51.487166966765344 -22.980589178308659 8.1190554118963583 #
End-of-ACIS-data 