500 0 17 0           
7 Unknown 11 ACIS 5.0 NT 24 Fri Mar 26 15:49:13 1999 
-1 9.9999999999999995e-007 1e-010 
body $-1 $17 $-1 $18 #
body $-1 $19 $-1 $20 #
body $-1 $21 $-1 $22 #
body $-1 $23 $-1 $24 #
body $-1 $25 $-1 $26 #
body $-1 $27 $-1 $28 #
body $-1 $29 $-1 $30 #
body $-1 $31 $-1 $32 #
body $-1 $33 $-1 $34 #
body $-1 $35 $-1 $36 #
body $-1 $37 $-1 $38 #
body $-1 $39 $-1 $40 #
body $-1 $41 $-1 $42 #
body $-1 $43 $-1 $44 #
body $-1 $45 $-1 $46 #
body $-1 $47 $-1 $48 #
body $-1 $49 $-1 $50 #
lump $-1 $-1 $51 $0 #
transform $-1 1 0 0 0 1 0 0 0 1 66.386303292947176 30.685760400544712 9.4556756115695659 1 rotate no_reflect no_shear #
lump $-1 $-1 $52 $1 #
transform $-1 1 0 0 0 1 0 0 0 1 66.386303292947176 30.685760400544712 9.4556756115695659 1 rotate no_reflect no_shear #
lump $-1 $-1 $53 $2 #
transform $-1 1 0 0 0 1 0 0 0 1 66.386303292947176 30.685760400544712 9.4556756115695659 1 rotate no_reflect no_shear #
lump $-1 $-1 $54 $3 #
transform $-1 1 0 0 0 1 0 0 0 1 66.386303292947176 30.685760400544712 9.4556756115695659 1 rotate no_reflect no_shear #
lump $-1 $-1 $55 $4 #
transform $-1 1 0 0 0 1 0 0 0 1 66.386303292947176 30.685760400544712 9.4556756115695659 1 rotate no_reflect no_shear #
lump $-1 $-1 $56 $5 #
transform $-1 1 0 0 0 1 0 0 0 1 66.386303292947176 30.685760400544712 9.4556756115695659 1 rotate no_reflect no_shear #
lump $-1 $-1 $57 $6 #
transform $-1 1 0 0 0 1 0 0 0 1 66.386303292947176 30.685760400544712 9.4556756115695659 1 rotate no_reflect no_shear #
lump $-1 $-1 $58 $7 #
transform $-1 1 0 0 0 1 0 0 0 1 66.386303292947176 30.685760400544712 9.4556756115695659 1 rotate no_reflect no_shear #
lump $-1 $-1 $59 $8 #
transform $-1 1 0 0 0 1 0 0 0 1 66.386303292947176 30.685760400544712 9.4556756115695659 1 rotate no_reflect no_shear #
lump $-1 $-1 $60 $9 #
transform $-1 1 0 0 0 1 0 0 0 1 66.386303292947176 30.685760400544712 9.4556756115695659 1 rotate no_reflect no_shear #
lump $-1 $-1 $61 $10 #
transform $-1 1 0 0 0 1 0 0 0 1 66.386303292947176 30.685760400544712 9.4556756115695659 1 rotate no_reflect no_shear #
lump $-1 $-1 $62 $11 #
transform $-1 1 0 0 0 1 0 0 0 1 66.386303292947176 30.685760400544712 9.4556756115695659 1 rotate no_reflect no_shear #
lump $-1 $-1 $63 $12 #
transform $-1 1 0 0 0 1 0 0 0 1 66.386303292947176 30.685760400544712 9.4556756115695659 1 rotate no_reflect no_shear #
lump $-1 $-1 $64 $13 #
transform $-1 1 0 0 0 1 0 0 0 1 66.386303292947176 30.685760400544712 9.4556756115695659 1 rotate no_reflect no_shear #
lump $-1 $-1 $65 $14 #
transform $-1 1 0 0 0 1 0 0 0 1 66.386303292947176 30.685760400544712 9.4556756115695659 1 rotate no_reflect no_shear #
lump $-1 $-1 $66 $15 #
transform $-1 1 0 0 0 1 0 0 0 1 66.386303292947176 30.685760400544712 9.4556756115695659 1 rotate no_reflect no_shear #
lump $-1 $-1 $67 $16 #
transform $-1 1 0 0 0 1 0 0 0 1 66.386303292947176 30.685760400544712 9.4556756115695659 1 rotate no_reflect no_shear #
shell $-1 $-1 $-1 $68 $-1 $17 #
shell $-1 $-1 $-1 $69 $-1 $19 #
shell $-1 $-1 $-1 $70 $-1 $21 #
shell $-1 $-1 $-1 $71 $-1 $23 #
shell $-1 $-1 $-1 $72 $-1 $25 #
shell $-1 $-1 $-1 $73 $-1 $27 #
shell $-1 $-1 $-1 $74 $-1 $29 #
shell $-1 $-1 $-1 $75 $-1 $31 #
shell $-1 $-1 $-1 $76 $-1 $33 #
shell $-1 $-1 $-1 $77 $-1 $35 #
shell $-1 $-1 $-1 $78 $-1 $37 #
shell $-1 $-1 $-1 $79 $-1 $39 #
shell $-1 $-1 $-1 $80 $-1 $41 #
shell $-1 $-1 $-1 $81 $-1 $43 #
shell $-1 $-1 $-1 $82 $-1 $45 #
shell $-1 $-1 $-1 $83 $-1 $47 #
shell $-1 $-1 $-1 $84 $-1 $49 #
face $-1 $85 $86 $51 $-1 $87 forward single #
face $-1 $88 $89 $52 $-1 $90 forward single #
face $-1 $91 $92 $53 $-1 $93 reversed single #
face $-1 $94 $95 $54 $-1 $96 forward single #
face $-1 $97 $98 $55 $-1 $99 forward single #
face $-1 $100 $101 $56 $-1 $102 reversed single #
face $-1 $103 $104 $57 $-1 $105 forward single #
face $-1 $106 $107 $58 $-1 $108 forward single #
face $-1 $109 $110 $59 $-1 $111 reversed single #
face $-1 $112 $113 $60 $-1 $114 forward single #
face $-1 $115 $116 $61 $-1 $117 forward single #
face $-1 $118 $119 $62 $-1 $120 reversed single #
face $-1 $121 $122 $63 $-1 $123 forward single #
face $-1 $124 $125 $64 $-1 $126 forward single #
face $-1 $127 $128 $65 $-1 $129 reversed single #
face $-1 $130 $131 $66 $-1 $132 forward single #
face $-1 $133 $134 $67 $-1 $135 forward single #
face $-1 $136 $137 $51 $-1 $138 reversed single #
loop $-1 $-1 $139 $68 #
plane-surface $-1 0 0 9.4556756115695659 0 0 1 1 0 0 forward_v I I I I #
face $-1 $140 $141 $52 $-1 $142 reversed single #
loop $-1 $-1 $143 $69 #
plane-surface $-1 -66.386303292947176 0 0 1 0 0 0 0 -1 forward_v I I I I #
face $-1 $144 $145 $53 $-1 $146 reversed single #
loop $-1 $-1 $147 $70 #
plane-surface $-1 -54.795584781714204 66.547640984783868 143.74666744325475 1 0 0 0 -0.62932039886446345 -0.77714595512881146 forward_v I I I I #
face $-1 $148 $149 $54 $-1 $150 forward single #
loop $-1 $151 $152 $71 #
cone-surface $-1 -50.168283583587538 25.454559152149312 4.9682721685230922 0 -0.62932039886446345 -0.77714595512881146 1.5 0 0 1 I I 0 1 1.5 forward I I I I #
face $-1 $153 $154 $55 $-1 $155 forward single #
loop $-1 $156 $157 $72 #
cone-surface $-1 -43.227331786397549 25.454559152149312 4.9682721685230922 0 -0.62932039886446345 -0.77714595512881146 1.5 0 0 1 I I 0 1 1.5 forward I I I I #
face $-1 $158 $159 $56 $-1 $160 reversed single #
loop $-1 $-1 $161 $73 #
plane-surface $-1 -24.500112763048861 66.547640984783868 143.74666744325475 1 0 0 0 -0.62932039886446345 -0.77714595512881146 forward_v I I I I #
face $-1 $162 $163 $57 $-1 $164 forward single #
loop $-1 $165 $166 $74 #
cone-surface $-1 -19.872811564922202 25.454559152149312 4.9682721685230922 0 -0.62932039886446345 -0.77714595512881146 1.5 0 0 1 I I 0 1 1.5 forward I I I I #
face $-1 $167 $168 $58 $-1 $169 forward single #
loop $-1 $170 $171 $75 #
cone-surface $-1 -12.931859767732206 25.454559152149312 4.9682721685230922 0 -0.62932039886446345 -0.77714595512881146 1.5 0 0 1 I I 0 1 1.5 forward I I I I #
face $-1 $172 $173 $59 $-1 $174 reversed single #
loop $-1 $-1 $175 $76 #
plane-surface $-1 5.7953592556164892 66.547640984783868 143.74666744325475 1 0 0 0 -0.62932039886446345 -0.77714595512881146 forward_v I I I I #
face $-1 $176 $177 $60 $-1 $178 forward single #
loop $-1 $179 $180 $77 #
cone-surface $-1 10.422660453743148 25.454559152149312 4.9682721685230922 0 -0.62932039886446345 -0.77714595512881146 1.5 0 0 1 I I 0 1 1.5 forward I I I I #
face $-1 $181 $182 $61 $-1 $183 forward single #
loop $-1 $184 $185 $78 #
cone-surface $-1 17.363612250933144 25.454559152149312 4.9682721685230922 0 -0.62932039886446345 -0.77714595512881146 1.5 0 0 1 I I 0 1 1.5 forward I I I I #
face $-1 $186 $187 $62 $-1 $188 reversed single #
loop $-1 $-1 $189 $79 #
plane-surface $-1 36.09083127428184 66.547640984783868 143.74666744325475 1 0 0 0 -0.62932039886446345 -0.77714595512881146 forward_v I I I I #
face $-1 $190 $191 $63 $-1 $192 forward single #
loop $-1 $193 $194 $80 #
cone-surface $-1 40.718132472408499 25.454559152149312 4.9682721685230922 0 -0.62932039886446345 -0.77714595512881146 1.5 0 0 1 I I 0 1 1.5 forward I I I I #
face $-1 $195 $196 $64 $-1 $197 forward single #
loop $-1 $198 $199 $81 #
cone-surface $-1 47.659084269598495 25.454559152149312 4.9682721685230922 0 -0.62932039886446345 -0.77714595512881146 1.5 0 0 1 I I 0 1 1.5 forward I I I I #
face $-1 $200 $201 $65 $-1 $202 reversed single #
loop $-1 $-1 $203 $82 #
plane-surface $-1 54.978741024179911 -30.685760400544737 6.272843281251383 0 -0.78801076186113728 0.61566146476048833 1 0 0 forward_v I I I I #
face $-1 $204 $205 $66 $-1 $206 forward single #
loop $-1 $207 $208 $83 #
cone-surface $-1 50.089785766136814 -28.191409406953714 6.8868708012682216 0 0.78801076186113728 -0.61566146476048833 1 0 0 1 I I 0 1 1 forward I I I I #
face $-1 $209 $210 $67 $-1 $211 forward single #
loop $-1 $212 $213 $84 #
cone-surface $-1 59.867696282223037 -28.191409406953714 6.8868708012682216 0 0.78801076186113728 -0.61566146476048833 1 0 0 1 I I 0 1 1 forward I I I I #
face $-1 $214 $215 $51 $-1 $216 reversed single #
loop $-1 $-1 $217 $85 #
plane-surface $-1 0 0 -9.4556756115695659 0 0 1 1 0 0 forward_v I I I I #
coedge $-1 $218 $219 $220 $221 forward $86 $-1 #
face $-1 $222 $223 $52 $-1 $224 reversed single #
loop $-1 $-1 $225 $88 #
plane-surface $-1 0 0 -9.4556756115695659 0 0 1 1 0 0 forward_v I I I I #
coedge $-1 $226 $227 $228 $229 forward $89 $-1 #
face $-1 $230 $231 $53 $-1 $232 reversed single #
loop $-1 $-1 $233 $91 #
plane-surface $-1 -46.697807684992547 -17.008868750125657 40.562973283117955 0 0.62932039886446345 0.77714595512881146 1 0 0 forward_v I I I I #
coedge $-1 $234 $235 $236 $237 reversed $92 $-1 #
face $-1 $-1 $238 $54 $-1 $239 forward single #
loop $-1 $240 $241 $94 #
cone-surface $-1 -50.168283583587538 24.391525853804975 3.6555353980859646 0 -0.62932039886446345 -0.77714595512881146 0.75 0 0 1 I I -0.70710678118654757 0.70710678118654757 0.75 forward I I I I #
loop $-1 $-1 $242 $71 #
coedge $-1 $152 $152 $243 $244 reversed $95 $-1 #
face $-1 $-1 $245 $55 $-1 $246 forward single #
loop $-1 $247 $248 $97 #
cone-surface $-1 -43.227331786397549 24.391525853804975 3.6555353980859646 0 -0.62932039886446345 -0.77714595512881146 0.75 0 0 1 I I -0.70710678118654757 0.70710678118654757 0.75 forward I I I I #
loop $-1 $-1 $249 $72 #
coedge $-1 $157 $157 $250 $251 reversed $98 $-1 #
face $-1 $252 $253 $56 $-1 $254 reversed single #
loop $-1 $-1 $255 $100 #
plane-surface $-1 -16.402335666327204 -17.008868750125657 40.562973283117955 0 0.62932039886446345 0.77714595512881146 1 0 0 forward_v I I I I #
coedge $-1 $256 $257 $258 $259 reversed $101 $-1 #
face $-1 $-1 $260 $57 $-1 $261 forward single #
loop $-1 $262 $263 $103 #
cone-surface $-1 -19.872811564922202 24.391525853804975 3.6555353980859646 0 -0.62932039886446345 -0.77714595512881146 0.75 0 0 1 I I -0.70710678118654757 0.70710678118654757 0.75 forward I I I I #
loop $-1 $-1 $264 $74 #
coedge $-1 $166 $166 $265 $266 reversed $104 $-1 #
face $-1 $-1 $267 $58 $-1 $268 forward single #
loop $-1 $269 $270 $106 #
cone-surface $-1 -12.931859767732206 24.391525853804975 3.6555353980859646 0 -0.62932039886446345 -0.77714595512881146 0.75 0 0 1 I I -0.70710678118654757 0.70710678118654757 0.75 forward I I I I #
loop $-1 $-1 $271 $75 #
coedge $-1 $171 $171 $272 $273 reversed $107 $-1 #
face $-1 $274 $275 $59 $-1 $276 reversed single #
loop $-1 $-1 $277 $109 #
plane-surface $-1 13.893136352338146 -17.008868750125657 40.562973283117955 0 0.62932039886446345 0.77714595512881146 1 0 0 forward_v I I I I #
coedge $-1 $278 $279 $280 $281 reversed $110 $-1 #
face $-1 $-1 $282 $60 $-1 $283 forward single #
loop $-1 $284 $285 $112 #
cone-surface $-1 10.422660453743148 24.391525853804975 3.6555353980859646 0 -0.62932039886446345 -0.77714595512881146 0.75 0 0 1 I I -0.70710678118654757 0.70710678118654757 0.75 forward I I I I #
loop $-1 $-1 $286 $77 #
coedge $-1 $180 $180 $287 $288 reversed $113 $-1 #
face $-1 $-1 $289 $61 $-1 $290 forward single #
loop $-1 $291 $292 $115 #
cone-surface $-1 17.363612250933144 24.391525853804975 3.6555353980859646 0 -0.62932039886446345 -0.77714595512881146 0.75 0 0 1 I I -0.70710678118654757 0.70710678118654757 0.75 forward I I I I #
loop $-1 $-1 $293 $78 #
coedge $-1 $185 $185 $294 $295 reversed $116 $-1 #
face $-1 $296 $297 $62 $-1 $298 reversed single #
loop $-1 $-1 $299 $118 #
plane-surface $-1 44.188608371003497 -17.008868750125657 40.562973283117955 0 0.62932039886446345 0.77714595512881146 1 0 0 forward_v I I I I #
coedge $-1 $300 $301 $302 $303 reversed $119 $-1 #
face $-1 $-1 $304 $63 $-1 $305 forward single #
loop $-1 $306 $307 $121 #
cone-surface $-1 40.718132472408499 24.391525853804975 3.6555353980859646 0 -0.62932039886446345 -0.77714595512881146 0.75 0 0 1 I I -0.70710678118654757 0.70710678118654757 0.75 forward I I I I #
loop $-1 $-1 $308 $80 #
coedge $-1 $194 $194 $309 $310 reversed $122 $-1 #
face $-1 $-1 $311 $64 $-1 $312 forward single #
loop $-1 $313 $314 $124 #
cone-surface $-1 47.659084269598495 24.391525853804975 3.6555353980859646 0 -0.62932039886446345 -0.77714595512881146 0.75 0 0 1 I I -0.70710678118654757 0.70710678118654757 0.75 forward I I I I #
loop $-1 $-1 $315 $81 #
coedge $-1 $199 $199 $316 $317 reversed $125 $-1 #
face $-1 $318 $319 $65 $-1 $320 reversed single #
loop $-1 $-1 $321 $127 #
plane-surface $-1 43.571178755412653 -135.3120032705844 88.015820731991155 1 0 0 0 0.78801076186113728 -0.61566146476048833 forward_v I I I I #
coedge $-1 $322 $323 $324 $325 reversed $128 $-1 #
face $-1 $-1 $326 $66 $-1 $327 forward single #
loop $-1 $328 $329 $130 #
cone-surface $-1 50.089785766136814 -26.546403573700548 5.6016514237457358 0 0.78801076186113728 -0.61566146476048833 0.5 0 0 1 I I -0.70710678118654746 0.70710678118654746 0.5 forward I I I I #
loop $-1 $-1 $330 $83 #
coedge $-1 $208 $208 $331 $332 reversed $131 $-1 #
face $-1 $-1 $333 $67 $-1 $334 forward single #
loop $-1 $335 $336 $133 #
cone-surface $-1 59.867696282223037 -26.546403573700548 5.6016514237457358 0 0.78801076186113728 -0.61566146476048833 0.5 0 0 1 I I -0.70710678118654746 0.70710678118654746 0.5 forward I I I I #
loop $-1 $-1 $337 $84 #
coedge $-1 $213 $213 $338 $339 reversed $134 $-1 #
face $-1 $340 $341 $51 $-1 $342 reversed single #
loop $-1 $-1 $343 $136 #
plane-surface $-1 0 -30.685760400544712 0 0 1 0 0 0 1 forward_v I I I I #
coedge $-1 $344 $345 $346 $347 forward $137 $-1 #
coedge $-1 $348 $139 $349 $350 forward $86 $-1 #
coedge $-1 $139 $348 $351 $352 forward $86 $-1 #
coedge $-1 $353 $354 $139 $221 reversed $355 $-1 #
edge $-1 $356 -30.685760400544712 $357 30.685760400544712 $220 $358 forward 7 unknown #
face $-1 $359 $360 $52 $-1 $361 reversed single #
loop $-1 $-1 $362 $140 #
plane-surface $-1 -72.181662548563665 -20.917131824358613 0 0 1 0 0 0 1 forward_v I I I I #
coedge $-1 $363 $364 $227 $365 forward $141 $-1 #
coedge $-1 $366 $143 $367 $368 reversed $89 $-1 #
coedge $-1 $143 $366 $225 $365 reversed $89 $-1 #
coedge $-1 $369 $370 $143 $229 reversed $371 $-1 #
edge $-1 $372 -9.4556756115695659 $373 9.4556756115695659 $228 $374 forward 7 unknown #
face $-1 $375 $376 $53 $-1 $377 forward single #
loop $-1 $-1 $378 $144 #
plane-surface $-1 -38.60003058827089 66.547640984783868 143.74666744325475 -1 0 0 0 0.62932039886446345 0.77714595512881146 forward_v I I I I #
coedge $-1 $379 $380 $381 $382 reversed $145 $-1 #
coedge $-1 $235 $147 $383 $384 reversed $92 $-1 #
coedge $-1 $147 $234 $379 $385 reversed $92 $-1 #
coedge $-1 $381 $386 $147 $237 forward $376 $-1 #
edge $-1 $387 2.5880600918472219 $388 11.868376590246065 $236 $389 forward 7 unknown #
loop $-1 $-1 $243 $148 #
plane-surface $-1 -46.697807684992547 -17.008868750125657 40.562973283117955 0 0.62932039886446345 0.77714595512881146 1 0 0 forward_v I I I I #
loop $-1 $-1 $390 $94 #
coedge $-1 $241 $241 $242 $391 reversed $149 $-1 #
coedge $-1 $242 $242 $241 $391 forward $151 $-1 #
coedge $-1 $243 $243 $152 $244 forward $238 $-1 #
edge $-1 $392 3.0509868850196291e-016 $392 6.2831853071796004 $243 $393 forward 7 unknown #
loop $-1 $-1 $250 $153 #
plane-surface $-1 -46.697807684992547 -17.008868750125657 40.562973283117955 0 0.62932039886446345 0.77714595512881146 1 0 0 forward_v I I I I #
loop $-1 $-1 $394 $97 #
coedge $-1 $248 $248 $249 $395 reversed $154 $-1 #
coedge $-1 $249 $249 $248 $395 forward $156 $-1 #
coedge $-1 $250 $250 $157 $251 forward $245 $-1 #
edge $-1 $396 3.0509868850196291e-016 $396 6.2831853071796004 $250 $397 forward 7 unknown #
face $-1 $398 $399 $56 $-1 $400 forward single #
loop $-1 $-1 $401 $158 #
plane-surface $-1 -8.3045585696055468 66.547640984783868 143.74666744325475 -1 0 0 0 0.62932039886446345 0.77714595512881146 forward_v I I I I #
coedge $-1 $402 $403 $404 $405 reversed $159 $-1 #
coedge $-1 $257 $161 $406 $407 reversed $101 $-1 #
coedge $-1 $161 $256 $402 $408 reversed $101 $-1 #
coedge $-1 $404 $409 $161 $259 forward $399 $-1 #
edge $-1 $410 2.5880600918472219 $411 11.868376590246065 $258 $412 forward 7 unknown #
loop $-1 $-1 $265 $162 #
plane-surface $-1 -16.402335666327204 -17.008868750125657 40.562973283117955 0 0.62932039886446345 0.77714595512881146 1 0 0 forward_v I I I I #
loop $-1 $-1 $413 $103 #
coedge $-1 $263 $263 $264 $414 reversed $163 $-1 #
coedge $-1 $264 $264 $263 $414 forward $165 $-1 #
coedge $-1 $265 $265 $166 $266 forward $260 $-1 #
edge $-1 $415 3.0509868850196291e-016 $415 6.2831853071796004 $265 $416 forward 7 unknown #
loop $-1 $-1 $272 $167 #
plane-surface $-1 -16.402335666327204 -17.008868750125657 40.562973283117955 0 0.62932039886446345 0.77714595512881146 1 0 0 forward_v I I I I #
loop $-1 $-1 $417 $106 #
coedge $-1 $270 $270 $271 $418 reversed $168 $-1 #
coedge $-1 $271 $271 $270 $418 forward $170 $-1 #
coedge $-1 $272 $272 $171 $273 forward $267 $-1 #
edge $-1 $419 3.0509868850196291e-016 $419 6.2831853071796004 $272 $420 forward 7 unknown #
face $-1 $421 $422 $59 $-1 $423 forward single #
loop $-1 $-1 $424 $172 #
plane-surface $-1 21.990913449059803 66.547640984783868 143.74666744325475 -1 0 0 0 0.62932039886446345 0.77714595512881146 forward_v I I I I #
coedge $-1 $425 $426 $427 $428 reversed $173 $-1 #
coedge $-1 $279 $175 $429 $430 reversed $110 $-1 #
coedge $-1 $175 $278 $425 $431 reversed $110 $-1 #
coedge $-1 $427 $432 $175 $281 forward $422 $-1 #
edge $-1 $433 2.5880600918472219 $434 11.868376590246065 $280 $435 forward 7 unknown #
loop $-1 $-1 $287 $176 #
plane-surface $-1 13.893136352338146 -17.008868750125657 40.562973283117955 0 0.62932039886446345 0.77714595512881146 1 0 0 forward_v I I I I #
loop $-1 $-1 $436 $112 #
coedge $-1 $285 $285 $286 $437 reversed $177 $-1 #
coedge $-1 $286 $286 $285 $437 forward $179 $-1 #
coedge $-1 $287 $287 $180 $288 forward $282 $-1 #
edge $-1 $438 3.0509868850196291e-016 $438 6.2831853071796004 $287 $439 forward 7 unknown #
loop $-1 $-1 $294 $181 #
plane-surface $-1 13.893136352338146 -17.008868750125657 40.562973283117955 0 0.62932039886446345 0.77714595512881146 1 0 0 forward_v I I I I #
loop $-1 $-1 $440 $115 #
coedge $-1 $292 $292 $293 $441 reversed $182 $-1 #
coedge $-1 $293 $293 $292 $441 forward $184 $-1 #
coedge $-1 $294 $294 $185 $295 forward $289 $-1 #
edge $-1 $442 3.0509868850196291e-016 $442 6.2831853071796004 $294 $443 forward 7 unknown #
face $-1 $444 $445 $62 $-1 $446 forward single #
loop $-1 $-1 $447 $186 #
plane-surface $-1 52.286385467725154 66.547640984783868 143.74666744325475 -1 0 0 0 0.62932039886446345 0.77714595512881146 forward_v I I I I #
coedge $-1 $448 $449 $450 $451 reversed $187 $-1 #
coedge $-1 $301 $189 $452 $453 reversed $119 $-1 #
coedge $-1 $189 $300 $448 $454 reversed $119 $-1 #
coedge $-1 $450 $455 $189 $303 forward $445 $-1 #
edge $-1 $456 2.5880600918472219 $457 11.868376590246065 $302 $458 forward 7 unknown #
loop $-1 $-1 $309 $190 #
plane-surface $-1 44.188608371003497 -17.008868750125657 40.562973283117955 0 0.62932039886446345 0.77714595512881146 1 0 0 forward_v I I I I #
loop $-1 $-1 $459 $121 #
coedge $-1 $307 $307 $308 $460 reversed $191 $-1 #
coedge $-1 $308 $308 $307 $460 forward $193 $-1 #
coedge $-1 $309 $309 $194 $310 forward $304 $-1 #
edge $-1 $461 3.0509868850196291e-016 $461 6.2831853071796004 $309 $462 forward 7 unknown #
loop $-1 $-1 $316 $195 #
plane-surface $-1 44.188608371003497 -17.008868750125657 40.562973283117955 0 0.62932039886446345 0.77714595512881146 1 0 0 forward_v I I I I #
loop $-1 $-1 $463 $124 #
coedge $-1 $314 $314 $315 $464 reversed $196 $-1 #
coedge $-1 $315 $315 $314 $464 forward $198 $-1 #
coedge $-1 $316 $316 $199 $317 forward $311 $-1 #
edge $-1 $465 3.0509868850196291e-016 $465 6.2831853071796004 $316 $466 forward 7 unknown #
face $-1 $467 $468 $65 $-1 $469 forward single #
loop $-1 $-1 $470 $200 #
plane-surface $-1 0 -30.685760400544712 0 0 1 0 0 0 1 forward_v I I I I #
coedge $-1 $471 $472 $473 $474 reversed $201 $-1 #
coedge $-1 $475 $203 $476 $477 reversed $128 $-1 #
coedge $-1 $203 $475 $471 $478 forward $128 $-1 #
coedge $-1 $473 $479 $203 $325 forward $468 $-1 #
edge $-1 $480 -38.896932780857206 $481 -16.081808243322698 $324 $482 forward 7 unknown #
loop $-1 $-1 $331 $204 #
plane-surface $-1 54.978741024179911 -30.685760400544737 6.272843281251383 0 -0.78801076186113728 0.61566146476048833 1 0 0 forward_v I I I I #
loop $-1 $-1 $483 $130 #
coedge $-1 $329 $329 $330 $484 reversed $205 $-1 #
coedge $-1 $330 $330 $329 $484 forward $207 $-1 #
coedge $-1 $331 $331 $208 $332 forward $326 $-1 #
edge $-1 $485 -7.8668317150530518e-016 $485 6.2831853071795996 $331 $486 forward 7 unknown #
loop $-1 $-1 $338 $209 #
plane-surface $-1 54.978741024179911 -30.685760400544737 6.272843281251383 0 -0.78801076186113728 0.61566146476048833 1 0 0 forward_v I I I I #
loop $-1 $-1 $487 $133 #
coedge $-1 $336 $336 $337 $488 reversed $210 $-1 #
coedge $-1 $337 $337 $336 $488 forward $212 $-1 #
coedge $-1 $338 $338 $213 $339 forward $333 $-1 #
edge $-1 $489 -7.8668317150530518e-016 $489 6.2831853071795996 $338 $490 forward 7 unknown #
face $-1 $491 $492 $51 $-1 $493 reversed single #
loop $-1 $-1 $494 $214 #
plane-surface $-1 -66.386303292947176 0 0 1 0 0 0 0 -1 forward_v I I I I #
coedge $-1 $495 $351 $496 $497 forward $215 $-1 #
coedge $-1 $498 $217 $495 $499 forward $137 $-1 #
coedge $-1 $217 $498 $500 $501 forward $137 $-1 #
coedge $-1 $354 $353 $217 $347 reversed $355 $-1 #
edge $-1 $502 -30.685760400544712 $503 30.685760400544712 $346 $504 forward 7 unknown #
coedge $-1 $219 $218 $505 $506 forward $86 $-1 #
coedge $-1 $507 $508 $218 $350 reversed $492 $-1 #
edge $-1 $357 -66.386303292947176 $509 66.386303292947176 $349 $510 forward 7 unknown #
coedge $-1 $343 $511 $219 $352 reversed $215 $-1 #
edge $-1 $512 -66.386303292947176 $356 66.386303292947176 $351 $513 forward 7 unknown #
coedge $-1 $346 $220 $511 $514 forward $355 $-1 #
coedge $-1 $220 $346 $507 $515 reversed $355 $-1 #
loop $-1 $-1 $353 $491 #
vertex $-1 $221 $516 #
vertex $-1 $221 $517 #
straight-curve $-1 66.386303292947176 0 9.4556756115695659 0 1 0 I I #
face $-1 $518 $371 $52 $-1 $519 reversed single #
loop $-1 $-1 $520 $222 #
plane-surface $-1 -77.977021804180154 -19.417131824358613 0 1 0 0 0 0 -1 forward_v I I I I #
coedge $-1 $521 $522 $523 $524 forward $223 $-1 #
coedge $-1 $525 $225 $521 $526 forward $141 $-1 #
coedge $-1 $225 $525 $369 $527 forward $141 $-1 #
edge $-1 $372 17.917131824358613 $528 20.917131824358613 $225 $529 forward 7 unknown #
coedge $-1 $227 $226 $530 $531 forward $89 $-1 #
coedge $-1 $532 $533 $226 $368 forward $534 $-1 #
edge $-1 $535 -20.917131824358613 $373 -17.917131824358613 $367 $536 forward 7 unknown #
coedge $-1 $537 $228 $364 $527 reversed $371 $-1 #
coedge $-1 $228 $537 $532 $538 reversed $371 $-1 #
loop $-1 $-1 $228 $359 #
vertex $-1 $365 $539 #
vertex $-1 $538 $540 #
straight-curve $-1 -66.386303292947176 -17.917131824358613 0 0 0 1 I I #
face $-1 $-1 $541 $53 $-1 $542 reversed single #
loop $-1 $-1 $236 $230 #
plane-surface $-1 0 0 9.4556756115695659 0 0 1 1 0 0 forward_v I I I I #
coedge $-1 $543 $544 $545 $546 reversed $231 $-1 #
coedge $-1 $547 $233 $235 $385 forward $145 $-1 #
coedge $-1 $233 $547 $543 $548 forward $145 $-1 #
coedge $-1 $545 $236 $233 $382 forward $376 $-1 #
edge $-1 $388 -31.446680939217931 $549 -15.251126745774616 $381 $550 forward 7 unknown #
coedge $-1 $551 $552 $234 $384 forward $541 $-1 #
edge $-1 $553 -69.932710387969735 $387 -62.417658110057808 $383 $554 forward 7 unknown #
edge $-1 $388 49.429984675020769 $553 61.371520801089432 $235 $555 forward 7 unknown #
coedge $-1 $236 $545 $551 $556 forward $376 $-1 #
vertex $-1 $384 $557 #
vertex $-1 $237 $558 #
straight-curve $-1 -54.795584781714204 33.273820492391934 9.4556756115695606 0 -1 0 I I #
coedge $-1 $390 $390 $-1 $559 reversed $240 $-1 #
edge $-1 $560 0 $560 6.2831853071796004 $241 $561 forward 7 unknown #
vertex $-1 $244 $562 #
ellipse-curve $-1 -50.168283583587538 26.045602151345292 5.6981494726135988 0 0.62932039886446345 0.77714595512881146 1.5 0 0 1 I I #
coedge $-1 $394 $394 $-1 $563 reversed $247 $-1 #
edge $-1 $564 0 $564 6.2831853071796004 $248 $565 forward 7 unknown #
vertex $-1 $251 $566 #
ellipse-curve $-1 -43.227331786397549 26.045602151345292 5.6981494726135988 0 0.62932039886446345 0.77714595512881146 1.5 0 0 1 I I #
face $-1 $-1 $567 $56 $-1 $568 reversed single #
loop $-1 $-1 $258 $252 #
plane-surface $-1 0 0 9.4556756115695659 0 0 1 1 0 0 forward_v I I I I #
coedge $-1 $569 $570 $571 $572 reversed $253 $-1 #
coedge $-1 $573 $255 $257 $408 forward $159 $-1 #
coedge $-1 $255 $573 $569 $574 forward $159 $-1 #
coedge $-1 $571 $258 $255 $405 forward $399 $-1 #
edge $-1 $411 -16.298944929885259 $575 -0.10339073644194485 $404 $576 forward 7 unknown #
coedge $-1 $577 $578 $256 $407 forward $567 $-1 #
edge $-1 $579 -69.932710387969735 $410 -62.417658110057808 $406 $580 forward 7 unknown #
edge $-1 $411 49.429984675020769 $579 61.371520801089432 $257 $581 forward 7 unknown #
coedge $-1 $258 $571 $577 $582 forward $399 $-1 #
vertex $-1 $259 $583 #
vertex $-1 $259 $584 #
straight-curve $-1 -24.500112763048861 33.273820492391934 9.4556756115695606 0 -1 0 I I #
coedge $-1 $413 $413 $-1 $585 reversed $262 $-1 #
edge $-1 $586 0 $586 6.2831853071796004 $263 $587 forward 7 unknown #
vertex $-1 $266 $588 #
ellipse-curve $-1 -19.872811564922202 26.045602151345292 5.6981494726135988 0 0.62932039886446345 0.77714595512881146 1.5 0 0 1 I I #
coedge $-1 $417 $417 $-1 $589 reversed $269 $-1 #
edge $-1 $590 0 $590 6.2831853071796004 $270 $591 forward 7 unknown #
vertex $-1 $273 $592 #
ellipse-curve $-1 -12.931859767732206 26.045602151345292 5.6981494726135988 0 0.62932039886446345 0.77714595512881146 1.5 0 0 1 I I #
face $-1 $-1 $593 $59 $-1 $594 reversed single #
loop $-1 $-1 $280 $274 #
plane-surface $-1 0 0 9.4556756115695659 0 0 1 1 0 0 forward_v I I I I #
coedge $-1 $595 $596 $597 $598 reversed $275 $-1 #
coedge $-1 $599 $277 $279 $431 forward $173 $-1 #
coedge $-1 $277 $599 $595 $600 forward $173 $-1 #
coedge $-1 $597 $280 $277 $428 forward $422 $-1 #
edge $-1 $434 -1.1512089205525839 $601 15.04434527289073 $427 $602 forward 7 unknown #
coedge $-1 $603 $604 $278 $430 forward $593 $-1 #
edge $-1 $605 -69.932710387969735 $433 -62.417658110057808 $429 $606 forward 7 unknown #
edge $-1 $434 49.429984675020769 $605 61.371520801089432 $279 $607 forward 7 unknown #
coedge $-1 $280 $597 $603 $608 forward $422 $-1 #
vertex $-1 $281 $609 #
vertex $-1 $281 $610 #
straight-curve $-1 5.7953592556164892 33.273820492391934 9.4556756115695606 0 -1 0 I I #
coedge $-1 $436 $436 $-1 $611 reversed $284 $-1 #
edge $-1 $612 0 $612 6.2831853071796004 $285 $613 forward 7 unknown #
vertex $-1 $288 $614 #
ellipse-curve $-1 10.422660453743148 26.045602151345292 5.6981494726135988 0 0.62932039886446345 0.77714595512881146 1.5 0 0 1 I I #
coedge $-1 $440 $440 $-1 $615 reversed $291 $-1 #
edge $-1 $616 0 $616 6.2831853071796004 $292 $617 forward 7 unknown #
vertex $-1 $295 $618 #
ellipse-curve $-1 17.363612250933144 26.045602151345292 5.6981494726135988 0 0.62932039886446345 0.77714595512881146 1.5 0 0 1 I I #
face $-1 $-1 $619 $62 $-1 $620 reversed single #
loop $-1 $-1 $302 $296 #
plane-surface $-1 0 0 9.4556756115695659 0 0 1 1 0 0 forward_v I I I I #
coedge $-1 $621 $622 $623 $624 reversed $297 $-1 #
coedge $-1 $625 $299 $301 $454 forward $187 $-1 #
coedge $-1 $299 $625 $621 $626 forward $187 $-1 #
coedge $-1 $623 $302 $299 $451 forward $445 $-1 #
edge $-1 $457 13.996527088780091 $627 30.192081282223405 $450 $628 forward 7 unknown #
coedge $-1 $629 $630 $300 $453 forward $619 $-1 #
edge $-1 $631 -69.932710387969735 $456 -62.417658110057808 $452 $632 forward 7 unknown #
edge $-1 $457 49.429984675020769 $631 61.371520801089432 $301 $633 forward 7 unknown #
coedge $-1 $302 $623 $629 $634 forward $445 $-1 #
vertex $-1 $303 $635 #
vertex $-1 $303 $636 #
straight-curve $-1 36.09083127428184 33.273820492391934 9.4556756115695606 0 -1 0 I I #
coedge $-1 $459 $459 $-1 $637 reversed $306 $-1 #
edge $-1 $638 0 $638 6.2831853071796004 $307 $639 forward 7 unknown #
vertex $-1 $310 $640 #
ellipse-curve $-1 40.718132472408499 26.045602151345292 5.6981494726135988 0 0.62932039886446345 0.77714595512881146 1.5 0 0 1 I I #
coedge $-1 $463 $463 $-1 $641 reversed $313 $-1 #
edge $-1 $642 0 $642 6.2831853071796004 $314 $643 forward 7 unknown #
vertex $-1 $317 $644 #
ellipse-curve $-1 47.659084269598495 26.045602151345292 5.6981494726135988 0 0.62932039886446345 0.77714595512881146 1.5 0 0 1 I I #
face $-1 $-1 $645 $65 $-1 $646 reversed single #
loop $-1 $-1 $473 $318 #
plane-surface $-1 0 0 9.4556756115695659 0 0 1 1 0 0 forward_v I I I I #
coedge $-1 $647 $648 $472 $649 forward $319 $-1 #
coedge $-1 $472 $321 $323 $478 reversed $201 $-1 #
coedge $-1 $321 $471 $470 $649 reversed $201 $-1 #
coedge $-1 $650 $324 $321 $474 forward $468 $-1 #
edge $-1 $481 -39.456942317284252 $651 -36.97024123474749 $473 $652 forward 7 unknown #
coedge $-1 $323 $322 $647 $653 reversed $128 $-1 #
coedge $-1 $654 $655 $322 $477 forward $645 $-1 #
edge $-1 $656 -6.9744860911971296 $480 -2.9354139308107881 $476 $657 forward 7 unknown #
edge $-1 $658 4.0507071865909177e-014 $481 4.0390721603863824 $471 $659 forward 7 unknown #
coedge $-1 $324 $650 $654 $660 forward $468 $-1 #
vertex $-1 $477 $661 #
vertex $-1 $325 $662 #
straight-curve $-1 27.489370512089955 -28.199059318007947 9.4556756115695659 -1 0 0 I I #
coedge $-1 $483 $483 $-1 $663 reversed $328 $-1 #
edge $-1 $664 0 $664 6.2831853071796004 $329 $665 forward 7 unknown #
vertex $-1 $332 $666 #
ellipse-curve $-1 50.089785766136814 -29.442409859276335 7.8642594464104834 0 -0.78801076186113728 0.61566146476048833 1 0 0 1 I I #
coedge $-1 $487 $487 $-1 $667 reversed $335 $-1 #
edge $-1 $668 0 $668 6.2831853071796004 $336 $669 forward 7 unknown #
vertex $-1 $339 $670 #
ellipse-curve $-1 59.867696282223037 -29.442409859276335 7.8642594464104834 0 -0.78801076186113728 0.61566146476048833 1 0 0 1 I I #
face $-1 $-1 $355 $51 $-1 $671 reversed single #
loop $-1 $-1 $507 $340 #
plane-surface $-1 0 30.685760400544712 0 0 -1 0 0 0 -1 forward_v I I I I #
coedge $-1 $672 $505 $508 $673 forward $341 $-1 #
coedge $-1 $511 $343 $344 $499 reversed $215 $-1 #
coedge $-1 $505 $672 $343 $497 reversed $341 $-1 #
edge $-1 $512 -9.4556756115695659 $674 9.4556756115695659 $496 $675 forward 7 unknown #
coedge $-1 $345 $344 $672 $676 forward $137 $-1 #
edge $-1 $503 -66.386303292947176 $674 66.386303292947176 $495 $677 forward 7 unknown #
coedge $-1 $508 $507 $345 $501 reversed $492 $-1 #
edge $-1 $678 -66.386303292947176 $502 66.386303292947176 $500 $679 forward 7 unknown #
vertex $-1 $347 $680 #
vertex $-1 $514 $681 #
straight-curve $-1 66.386303292947176 0 -9.4556756115695659 0 -1 0 I I #
coedge $-1 $494 $496 $348 $506 reversed $341 $-1 #
edge $-1 $509 -30.685760400544712 $512 30.685760400544712 $505 $682 forward 7 unknown #
coedge $-1 $500 $349 $354 $515 forward $492 $-1 #
coedge $-1 $349 $500 $494 $673 reversed $492 $-1 #
vertex $-1 $350 $683 #
straight-curve $-1 0 30.685760400544712 9.4556756115695659 -1 0 0 I I #
coedge $-1 $351 $495 $353 $514 reversed $215 $-1 #
vertex $-1 $506 $684 #
straight-curve $-1 0 -30.685760400544712 9.4556756115695659 1 0 0 I I #
edge $-1 $356 -9.4556756115695659 $503 9.4556756115695659 $353 $685 forward 7 unknown #
edge $-1 $357 -9.4556756115695659 $502 9.4556756115695659 $354 $686 forward 7 unknown #
point $-1 66.386303292947176 -30.685760400544712 9.4556756115695659 #
point $-1 66.386303292947176 30.685760400544712 9.4556756115695659 #
face $-1 $-1 $534 $52 $-1 $687 forward single #
plane-surface $-1 -72.181662548563665 -17.917131824358613 0 0 -1 0 0 0 -1 forward_v I I I I #
coedge $-1 $688 $689 $537 $690 forward $360 $-1 #
coedge $-1 $530 $362 $363 $526 reversed $223 $-1 #
coedge $-1 $362 $530 $533 $691 reversed $223 $-1 #
coedge $-1 $689 $688 $362 $524 reversed $360 $-1 #
edge $-1 $692 -9.4556756115695659 $693 9.4556756115695659 $523 $694 forward 7 unknown #
coedge $-1 $364 $363 $688 $695 forward $141 $-1 #
edge $-1 $528 -5.7953592556164892 $693 5.7953592556164892 $521 $696 forward 7 unknown #
edge $-1 $697 -5.7953592556164892 $372 5.7953592556164892 $369 $698 forward 7 unknown #
vertex $-1 $526 $699 #
straight-curve $-1 -66.386303292947176 0 -9.4556756115695659 0 -1 0 I I #
coedge $-1 $522 $521 $366 $531 reversed $223 $-1 #
edge $-1 $535 -9.4556756115695659 $528 9.4556756115695659 $530 $700 forward 7 unknown #
coedge $-1 $701 $367 $370 $538 forward $534 $-1 #
coedge $-1 $367 $701 $522 $691 forward $534 $-1 #
loop $-1 $-1 $367 $518 #
vertex $-1 $368 $702 #
straight-curve $-1 -66.386303292947176 0 9.4556756115695659 0 1 0 I I #
coedge $-1 $370 $369 $520 $690 reversed $371 $-1 #
edge $-1 $373 -5.7953592556164892 $703 5.7953592556164892 $370 $704 forward 7 unknown #
point $-1 -66.386303292947176 -17.917131824358613 -9.4556756115695659 #
point $-1 -66.386303292947176 -17.917131824358613 9.4556756115695659 #
loop $-1 $-1 $383 $375 #
plane-surface $-1 0 30.685760400544712 0 0 -1 0 0 0 -1 forward_v I I I I #
coedge $-1 $544 $378 $380 $548 reversed $231 $-1 #
coedge $-1 $378 $543 $705 $706 reversed $231 $-1 #
coedge $-1 $386 $381 $378 $546 forward $376 $-1 #
edge $-1 $549 -11.868376590246065 $707 -2.5880600918472219 $545 $708 forward 7 unknown #
coedge $-1 $380 $379 $552 $709 reversed $145 $-1 #
edge $-1 $710 -61.371520801089432 $549 -49.429984675020769 $543 $711 forward 7 unknown #
vertex $-1 $382 $712 #
straight-curve $-1 -23.348903842496274 21.405443902145873 9.4556756115695642 1 0 0 I I #
coedge $-1 $705 $383 $386 $556 reversed $541 $-1 #
coedge $-1 $383 $705 $547 $709 forward $541 $-1 #
vertex $-1 $384 $713 #
straight-curve $-1 -54.795584781714204 30.685760400544712 71.873333721627375 0 0 1 I I #
straight-curve $-1 -54.795584781714204 -17.008868750125657 40.562973283117955 0 0.77714595512881146 -0.62932039886446345 I I #
edge $-1 $707 38.60003058827089 $387 54.795584781714204 $551 $714 forward 7 unknown #
point $-1 -54.795584781714204 30.685760400544712 9.4556756115695659 #
point $-1 -54.795584781714204 21.405443902145869 9.4556756115695677 #
edge $-1 $715 1 $715 0 $390 $-1 forward 7 unknown #
vertex $-1 $391 $716 #
ellipse-curve $-1 -50.168283583587538 24.863516152953324 4.2383948644325731 0 0.62932039886446345 0.77714595512881146 1.5 0 0 1 I I #
point $-1 -48.668283583587538 26.045602151345303 5.6981494726136113 #
edge $-1 $717 1 $717 0 $394 $-1 forward 7 unknown #
vertex $-1 $395 $718 #
ellipse-curve $-1 -43.227331786397549 24.863516152953324 4.2383948644325731 0 0.62932039886446345 0.77714595512881146 1.5 0 0 1 I I #
point $-1 -41.727331786397549 26.045602151345303 5.6981494726136113 #
loop $-1 $-1 $406 $398 #
plane-surface $-1 0 30.685760400544712 0 0 -1 0 0 0 -1 forward_v I I I I #
coedge $-1 $570 $401 $403 $574 reversed $253 $-1 #
coedge $-1 $401 $569 $719 $720 reversed $253 $-1 #
coedge $-1 $409 $404 $401 $572 forward $399 $-1 #
edge $-1 $575 -11.868376590246065 $721 -2.5880600918472219 $571 $722 forward 7 unknown #
coedge $-1 $403 $402 $578 $723 reversed $159 $-1 #
edge $-1 $724 -61.371520801089432 $575 -49.429984675020769 $569 $725 forward 7 unknown #
vertex $-1 $405 $726 #
straight-curve $-1 -8.201167833163602 21.405443902145873 9.4556756115695642 1 0 0 I I #
coedge $-1 $719 $406 $409 $582 reversed $567 $-1 #
coedge $-1 $406 $719 $573 $723 forward $567 $-1 #
vertex $-1 $407 $727 #
straight-curve $-1 -24.500112763048861 30.685760400544712 71.873333721627375 0 0 1 I I #
straight-curve $-1 -24.500112763048861 -17.008868750125657 40.562973283117955 0 0.77714595512881146 -0.62932039886446345 I I #
edge $-1 $721 8.3045585696055468 $410 24.500112763048861 $577 $728 forward 7 unknown #
point $-1 -24.500112763048861 30.685760400544712 9.4556756115695659 #
point $-1 -24.500112763048861 21.405443902145869 9.4556756115695677 #
edge $-1 $729 1 $729 0 $413 $-1 forward 7 unknown #
vertex $-1 $414 $730 #
ellipse-curve $-1 -19.872811564922202 24.863516152953324 4.2383948644325731 0 0.62932039886446345 0.77714595512881146 1.5 0 0 1 I I #
point $-1 -18.372811564922202 26.045602151345303 5.6981494726136113 #
edge $-1 $731 1 $731 0 $417 $-1 forward 7 unknown #
vertex $-1 $418 $732 #
ellipse-curve $-1 -12.931859767732206 24.863516152953324 4.2383948644325731 0 0.62932039886446345 0.77714595512881146 1.5 0 0 1 I I #
point $-1 -11.431859767732206 26.045602151345303 5.6981494726136113 #
loop $-1 $-1 $429 $421 #
plane-surface $-1 0 30.685760400544712 0 0 -1 0 0 0 -1 forward_v I I I I #
coedge $-1 $596 $424 $426 $600 reversed $275 $-1 #
coedge $-1 $424 $595 $733 $734 reversed $275 $-1 #
coedge $-1 $432 $427 $424 $598 forward $422 $-1 #
edge $-1 $601 -11.868376590246065 $735 -2.5880600918472219 $597 $736 forward 7 unknown #
coedge $-1 $426 $425 $604 $737 reversed $173 $-1 #
edge $-1 $738 -61.371520801089432 $601 -49.429984675020769 $595 $739 forward 7 unknown #
vertex $-1 $428 $740 #
straight-curve $-1 6.9465681761690732 21.405443902145873 9.4556756115695642 1 0 0 I I #
coedge $-1 $733 $429 $432 $608 reversed $593 $-1 #
coedge $-1 $429 $733 $599 $737 forward $593 $-1 #
vertex $-1 $430 $741 #
straight-curve $-1 5.7953592556164892 30.685760400544712 71.873333721627375 0 0 1 I I #
straight-curve $-1 5.7953592556164892 -17.008868750125657 40.562973283117955 0 0.77714595512881146 -0.62932039886446345 I I #
edge $-1 $735 -21.990913449059803 $433 -5.7953592556164892 $603 $742 forward 7 unknown #
point $-1 5.7953592556164892 30.685760400544712 9.4556756115695659 #
point $-1 5.7953592556164892 21.405443902145869 9.4556756115695677 #
edge $-1 $743 1 $743 0 $436 $-1 forward 7 unknown #
vertex $-1 $437 $744 #
ellipse-curve $-1 10.422660453743148 24.863516152953324 4.2383948644325731 0 0.62932039886446345 0.77714595512881146 1.5 0 0 1 I I #
point $-1 11.922660453743148 26.045602151345303 5.6981494726136113 #
edge $-1 $745 1 $745 0 $440 $-1 forward 7 unknown #
vertex $-1 $441 $746 #
ellipse-curve $-1 17.363612250933144 24.863516152953324 4.2383948644325731 0 0.62932039886446345 0.77714595512881146 1.5 0 0 1 I I #
point $-1 18.863612250933144 26.045602151345303 5.6981494726136113 #
loop $-1 $-1 $452 $444 #
plane-surface $-1 0 30.685760400544712 0 0 -1 0 0 0 -1 forward_v I I I I #
coedge $-1 $622 $447 $449 $626 reversed $297 $-1 #
coedge $-1 $447 $621 $747 $748 reversed $297 $-1 #
coedge $-1 $455 $450 $447 $624 forward $445 $-1 #
edge $-1 $627 -11.868376590246065 $749 -2.5880600918472219 $623 $750 forward 7 unknown #
coedge $-1 $449 $448 $630 $751 reversed $187 $-1 #
edge $-1 $752 -61.371520801089432 $627 -49.429984675020769 $621 $753 forward 7 unknown #
vertex $-1 $451 $754 #
straight-curve $-1 22.094304185501748 21.405443902145873 9.4556756115695642 1 0 0 I I #
coedge $-1 $747 $452 $455 $634 reversed $619 $-1 #
coedge $-1 $452 $747 $625 $751 forward $619 $-1 #
vertex $-1 $453 $755 #
straight-curve $-1 36.09083127428184 30.685760400544712 71.873333721627375 0 0 1 I I #
straight-curve $-1 36.09083127428184 -17.008868750125657 40.562973283117955 0 0.77714595512881146 -0.62932039886446345 I I #
edge $-1 $749 -52.286385467725154 $456 -36.09083127428184 $629 $756 forward 7 unknown #
point $-1 36.09083127428184 30.685760400544712 9.4556756115695659 #
point $-1 36.09083127428184 21.405443902145869 9.4556756115695677 #
edge $-1 $757 1 $757 0 $459 $-1 forward 7 unknown #
vertex $-1 $460 $758 #
ellipse-curve $-1 40.718132472408499 24.863516152953324 4.2383948644325731 0 0.62932039886446345 0.77714595512881146 1.5 0 0 1 I I #
point $-1 42.218132472408499 26.045602151345303 5.6981494726136113 #
edge $-1 $759 1 $759 0 $463 $-1 forward 7 unknown #
vertex $-1 $464 $760 #
ellipse-curve $-1 47.659084269598495 24.863516152953324 4.2383948644325731 0 0.62932039886446345 0.77714595512881146 1.5 0 0 1 I I #
point $-1 49.159084269598495 26.045602151345303 5.6981494726136113 #
loop $-1 $-1 $476 $467 #
plane-surface $-1 66.386303292947176 0 0 -1 0 0 0 0 1 forward_v I I I I #
coedge $-1 $761 $470 $475 $653 forward $319 $-1 #
coedge $-1 $470 $761 $650 $762 reversed $319 $-1 #
edge $-1 $651 34.55223475442601 $658 37.735067084744159 $470 $763 forward 7 unknown #
coedge $-1 $479 $473 $648 $762 forward $468 $-1 #
vertex $-1 $762 $764 #
straight-curve $-1 43.571178755412653 -67.656001635292199 9.4556756115695677 0 -1 0 I I #
edge $-1 $658 16.081808243322698 $656 38.896932780857206 $647 $765 forward 7 unknown #
coedge $-1 $655 $476 $479 $660 reversed $645 $-1 #
coedge $-1 $476 $654 $761 $766 forward $645 $-1 #
vertex $-1 $653 $767 #
straight-curve $-1 66.386303292947176 -26.391838077686636 11.768813379565572 0 0.61566146476048833 0.78801076186113728 I I #
vertex $-1 $653 $768 #
straight-curve $-1 43.571178755412653 -30.685760400544737 6.272843281251383 0 0.61566146476048833 0.78801076186113728 I I #
edge $-1 $769 -30.685760400544712 $480 -28.199059318007947 $654 $770 forward 7 unknown #
point $-1 66.386303292947161 -28.199059318007947 9.4556756115695659 #
point $-1 43.571178755412653 -28.199059318007947 9.4556756115695659 #
edge $-1 $771 1 $771 0 $483 $-1 forward 7 unknown #
vertex $-1 $484 $772 #
ellipse-curve $-1 50.089785766136814 -26.940408954631117 5.9094821561259803 0 -0.78801076186113728 0.61566146476048833 1 0 0 1 I I #
point $-1 51.089785766136814 -29.44240985927631 7.8642594464104629 #
edge $-1 $773 1 $773 0 $487 $-1 forward 7 unknown #
vertex $-1 $488 $774 #
ellipse-curve $-1 59.867696282223037 -26.940408954631117 5.9094821561259803 0 -0.78801076186113728 0.61566146476048833 1 0 0 1 I I #
point $-1 60.867696282223037 -29.44240985927631 7.8642594464104629 #
plane-surface $-1 66.386303292947176 0 0 -1 0 0 0 0 1 forward_v I I I I #
coedge $-1 $496 $494 $498 $676 reversed $341 $-1 #
edge $-1 $509 -9.4556756115695659 $678 9.4556756115695659 $508 $775 forward 7 unknown #
vertex $-1 $676 $776 #
straight-curve $-1 -66.386303292947176 -30.685760400544712 0 0 0 -1 I I #
edge $-1 $674 -30.685760400544712 $678 30.685760400544712 $672 $777 forward 7 unknown #
straight-curve $-1 0 -30.685760400544712 -9.4556756115695659 -1 0 0 I I #
vertex $-1 $501 $778 #
straight-curve $-1 0 30.685760400544712 -9.4556756115695659 1 0 0 I I #
point $-1 66.386303292947176 30.685760400544712 -9.4556756115695659 #
point $-1 66.386303292947176 -30.685760400544712 -9.4556756115695659 #
straight-curve $-1 -66.386303292947176 0 9.4556756115695659 0 -1 0 I I #
point $-1 -66.386303292947176 30.685760400544712 9.4556756115695659 #
point $-1 -66.386303292947176 -30.685760400544712 9.4556756115695659 #
straight-curve $-1 66.386303292947176 -30.685760400544712 0 0 0 -1 I I #
straight-curve $-1 66.386303292947176 30.685760400544712 0 0 0 -1 I I #
plane-surface $-1 0 0 9.4556756115695659 0 0 1 1 0 0 forward_v I I I I #
coedge $-1 $523 $520 $525 $695 reversed $360 $-1 #
coedge $-1 $520 $523 $701 $779 reversed $360 $-1 #
edge $-1 $703 -9.4556756115695659 $697 9.4556756115695659 $537 $780 forward 7 unknown #
edge $-1 $692 -5.7953592556164892 $535 5.7953592556164892 $522 $781 forward 7 unknown #
vertex $-1 $779 $782 #
vertex $-1 $695 $783 #
straight-curve $-1 -77.977021804180154 -20.917131824358613 0 0 0 -1 I I #
edge $-1 $693 -1.5 $697 1.5 $688 $784 forward 7 unknown #
straight-curve $-1 -72.181662548563665 -20.917131824358613 -9.4556756115695659 -1 0 0 I I #
vertex $-1 $527 $785 #
straight-curve $-1 -72.181662548563665 -17.917131824358613 -9.4556756115695659 1 0 0 I I #
point $-1 -66.386303292947176 -20.917131824358613 -9.4556756115695659 #
straight-curve $-1 -66.386303292947176 -20.917131824358613 0 0 0 -1 I I #
coedge $-1 $533 $532 $689 $779 forward $534 $-1 #
point $-1 -66.386303292947176 -20.917131824358613 9.4556756115695659 #
vertex $-1 $538 $786 #
straight-curve $-1 -72.181662548563665 -17.917131824358613 9.4556756115695659 -1 0 0 I I #
coedge $-1 $552 $551 $544 $706 forward $541 $-1 #
edge $-1 $707 62.417658110057808 $710 69.932710387969735 $705 $787 forward 7 unknown #
vertex $-1 $556 $788 #
straight-curve $-1 -38.60003058827089 33.273820492391934 9.4556756115695606 0 1 0 I I #
edge $-1 $710 15.251126745774616 $553 31.446680939217931 $552 $789 forward 7 unknown #
vertex $-1 $709 $790 #
straight-curve $-1 -38.60003058827089 -17.008868750125657 40.562973283117955 0 -0.77714595512881146 0.62932039886446345 I I #
point $-1 -38.60003058827089 21.405443902145869 9.4556756115695677 #
point $-1 -54.795584781714204 30.685760400544709 1.9406233336576406 #
straight-curve $-1 0 30.685760400544712 9.4556756115695659 -1 0 0 I I #
vertex $-1 $559 $791 #
point $-1 -48.668283583587538 24.863516152953324 4.2383948644325731 #
vertex $-1 $563 $792 #
point $-1 -41.727331786397549 24.863516152953324 4.2383948644325731 #
coedge $-1 $578 $577 $570 $720 forward $567 $-1 #
edge $-1 $721 62.417658110057808 $724 69.932710387969735 $719 $793 forward 7 unknown #
vertex $-1 $582 $794 #
straight-curve $-1 -8.3045585696055468 33.273820492391934 9.4556756115695606 0 1 0 I I #
edge $-1 $724 0.10339073644194485 $579 16.298944929885259 $578 $795 forward 7 unknown #
vertex $-1 $723 $796 #
straight-curve $-1 -8.3045585696055468 -17.008868750125657 40.562973283117955 0 -0.77714595512881146 0.62932039886446345 I I #
point $-1 -8.3045585696055468 21.405443902145869 9.4556756115695677 #
point $-1 -24.500112763048861 30.685760400544709 1.9406233336576406 #
straight-curve $-1 0 30.685760400544712 9.4556756115695659 -1 0 0 I I #
vertex $-1 $585 $797 #
point $-1 -18.372811564922202 24.863516152953324 4.2383948644325731 #
vertex $-1 $589 $798 #
point $-1 -11.431859767732206 24.863516152953324 4.2383948644325731 #
coedge $-1 $604 $603 $596 $734 forward $593 $-1 #
edge $-1 $735 62.417658110057808 $738 69.932710387969735 $733 $799 forward 7 unknown #
vertex $-1 $608 $800 #
straight-curve $-1 21.990913449059803 33.273820492391934 9.4556756115695606 0 1 0 I I #
edge $-1 $738 -15.04434527289073 $605 1.1512089205525839 $604 $801 forward 7 unknown #
vertex $-1 $737 $802 #
straight-curve $-1 21.990913449059803 -17.008868750125657 40.562973283117955 0 -0.77714595512881146 0.62932039886446345 I I #
point $-1 21.990913449059803 21.405443902145869 9.4556756115695677 #
point $-1 5.7953592556164892 30.685760400544709 1.9406233336576406 #
straight-curve $-1 0 30.685760400544712 9.4556756115695659 -1 0 0 I I #
vertex $-1 $611 $803 #
point $-1 11.922660453743148 24.863516152953324 4.2383948644325731 #
vertex $-1 $615 $804 #
point $-1 18.863612250933144 24.863516152953324 4.2383948644325731 #
coedge $-1 $630 $629 $622 $748 forward $619 $-1 #
edge $-1 $749 62.417658110057808 $752 69.932710387969735 $747 $805 forward 7 unknown #
vertex $-1 $634 $806 #
straight-curve $-1 52.286385467725154 33.273820492391934 9.4556756115695606 0 1 0 I I #
edge $-1 $752 -30.192081282223405 $631 -13.996527088780091 $630 $807 forward 7 unknown #
vertex $-1 $751 $808 #
straight-curve $-1 52.286385467725154 -17.008868750125657 40.562973283117955 0 -0.77714595512881146 0.62932039886446345 I I #
point $-1 52.286385467725154 21.405443902145869 9.4556756115695677 #
point $-1 36.09083127428184 30.685760400544709 1.9406233336576406 #
straight-curve $-1 0 30.685760400544712 9.4556756115695659 -1 0 0 I I #
vertex $-1 $637 $809 #
point $-1 42.218132472408499 24.863516152953324 4.2383948644325731 #
vertex $-1 $641 $810 #
point $-1 49.159084269598495 24.863516152953324 4.2383948644325731 #
coedge $-1 $648 $647 $655 $766 reversed $319 $-1 #
edge $-1 $651 43.571178755412653 $769 66.386303292947176 $648 $811 forward 7 unknown #
straight-curve $-1 43.571178755412653 -30.685760400544709 44.007910365995578 0 0 -1 I I #
point $-1 43.571178755412653 -30.685760400544712 9.4556756115695659 #
straight-curve $-1 27.489370512089955 -30.685760400544712 6.272843281251415 1 0 0 I I #
edge $-1 $769 -9.4556756115695659 $656 -6.272843281251415 $655 $812 forward 7 unknown #
point $-1 66.386303292947161 -30.685760400544712 6.272843281251415 #
point $-1 43.571178755412653 -30.685760400544712 6.272843281251415 #
vertex $-1 $660 $813 #
straight-curve $-1 66.386303292947176 0 9.4556756115695659 0 1 0 I I #
vertex $-1 $663 $814 #
point $-1 51.089785766136814 -26.940408954631117 5.9094821561259803 #
vertex $-1 $667 $815 #
point $-1 60.867696282223037 -26.940408954631117 5.9094821561259803 #
straight-curve $-1 -66.386303292947176 30.685760400544712 0 0 0 -1 I I #
point $-1 -66.386303292947176 -30.685760400544712 -9.4556756115695659 #
straight-curve $-1 -66.386303292947176 0 -9.4556756115695659 0 1 0 I I #
point $-1 -66.386303292947176 30.685760400544712 -9.4556756115695659 #
edge $-1 $703 -1.5 $692 1.5 $689 $816 forward 7 unknown #
straight-curve $-1 -77.977021804180154 -17.917131824358613 0 0 0 -1 I I #
straight-curve $-1 -72.181662548563665 -20.917131824358613 9.4556756115695659 1 0 0 I I #
point $-1 -77.977021804180154 -20.917131824358613 9.4556756115695659 #
point $-1 -77.977021804180154 -20.917131824358613 -9.4556756115695659 #
straight-curve $-1 -77.977021804180154 -19.417131824358613 -9.4556756115695659 0 1 0 I I #
point $-1 -77.977021804180154 -17.917131824358613 -9.4556756115695659 #
point $-1 -77.977021804180154 -17.917131824358613 9.4556756115695659 #
straight-curve $-1 -38.60003058827089 30.685760400544712 71.873333721627375 0 0 -1 I I #
point $-1 -38.60003058827089 30.685760400544712 9.4556756115695659 #
straight-curve $-1 -23.348903842496274 30.685760400544709 1.9406233336576406 -1 0 0 I I #
point $-1 -38.60003058827089 30.685760400544709 1.9406233336576406 #
point $-1 -50.168283583587538 23.919535554656626 3.0726759317393562 #
point $-1 -43.227331786397549 23.919535554656626 3.0726759317393562 #
straight-curve $-1 -8.3045585696055468 30.685760400544712 71.873333721627375 0 0 -1 I I #
point $-1 -8.3045585696055468 30.685760400544712 9.4556756115695659 #
straight-curve $-1 -8.201167833163602 30.685760400544709 1.9406233336576406 -1 0 0 I I #
point $-1 -8.3045585696055468 30.685760400544709 1.9406233336576406 #
point $-1 -19.872811564922202 23.919535554656626 3.0726759317393562 #
point $-1 -12.931859767732206 23.919535554656626 3.0726759317393562 #
straight-curve $-1 21.990913449059803 30.685760400544712 71.873333721627375 0 0 -1 I I #
point $-1 21.990913449059803 30.685760400544712 9.4556756115695659 #
straight-curve $-1 6.9465681761690732 30.685760400544709 1.9406233336576406 -1 0 0 I I #
point $-1 21.990913449059803 30.685760400544709 1.9406233336576406 #
point $-1 10.422660453743148 23.919535554656626 3.0726759317393562 #
point $-1 17.363612250933144 23.919535554656626 3.0726759317393562 #
straight-curve $-1 52.286385467725154 30.685760400544712 71.873333721627375 0 0 -1 I I #
point $-1 52.286385467725154 30.685760400544712 9.4556756115695659 #
straight-curve $-1 22.094304185501748 30.685760400544709 1.9406233336576406 -1 0 0 I I #
point $-1 52.286385467725154 30.685760400544709 1.9406233336576406 #
point $-1 40.718132472408499 23.919535554656626 3.0726759317393562 #
point $-1 47.659084269598495 23.919535554656626 3.0726759317393562 #
straight-curve $-1 0 -30.685760400544712 9.4556756115695659 1 0 0 I I #
straight-curve $-1 66.386303292947176 -30.685760400544712 0 0 0 -1 I I #
point $-1 66.386303292947176 -30.685760400544712 9.4556756115695659 #
point $-1 50.089785766136814 -26.152398192769979 5.2938206913654913 #
point $-1 59.867696282223037 -26.152398192769979 5.2938206913654913 #
straight-curve $-1 -77.977021804180154 -19.417131824358613 9.4556756115695659 0 -1 0 I I #
End-of-ACIS-data 