500 0 18 0           
7 Unknown 11 ACIS 5.0 NT 24 Thu Mar 25 17:23:07 1999 
-1 9.9999999999999995e-007 1e-010 
body $-1 $18 $-1 $19 #
body $-1 $20 $-1 $21 #
body $-1 $22 $-1 $23 #
body $-1 $24 $-1 $25 #
body $-1 $26 $-1 $27 #
body $-1 $28 $-1 $29 #
body $-1 $30 $-1 $31 #
body $-1 $32 $-1 $33 #
body $-1 $34 $-1 $35 #
body $-1 $36 $-1 $37 #
body $-1 $38 $-1 $39 #
body $-1 $40 $-1 $41 #
body $-1 $42 $-1 $43 #
body $-1 $44 $-1 $45 #
body $-1 $46 $-1 $47 #
body $-1 $48 $-1 $49 #
body $-1 $50 $-1 $51 #
body $-1 $52 $-1 $53 #
lump $-1 $-1 $54 $0 #
transform $-1 1 0 0 0 1 0 0 0 1 61.054109317300941 40.307972534541086 15.385966566233487 1 rotate no_reflect no_shear #
lump $-1 $-1 $55 $1 #
transform $-1 1 0 0 0 1 0 0 0 1 61.054109317300941 40.307972534541086 15.385966566233487 1 rotate no_reflect no_shear #
lump $-1 $-1 $56 $2 #
transform $-1 1 0 0 0 1 0 0 0 1 61.054109317300941 40.307972534541086 15.385966566233487 1 rotate no_reflect no_shear #
lump $-1 $-1 $57 $3 #
transform $-1 1 0 0 0 1 0 0 0 1 61.054109317300941 40.307972534541086 15.385966566233487 1 rotate no_reflect no_shear #
lump $-1 $-1 $58 $4 #
transform $-1 1 0 0 0 1 0 0 0 1 61.054109317300941 40.307972534541086 15.385966566233487 1 rotate no_reflect no_shear #
lump $-1 $-1 $59 $5 #
transform $-1 1 0 0 0 1 0 0 0 1 61.054109317300941 40.307972534541086 15.385966566233487 1 rotate no_reflect no_shear #
lump $-1 $-1 $60 $6 #
transform $-1 1 0 0 0 1 0 0 0 1 61.054109317300941 40.307972534541086 15.385966566233487 1 rotate no_reflect no_shear #
lump $-1 $-1 $61 $7 #
transform $-1 1 0 0 0 1 0 0 0 1 61.054109317300941 40.307972534541086 15.385966566233487 1 rotate no_reflect no_shear #
lump $-1 $-1 $62 $8 #
transform $-1 1 0 0 0 1 0 0 0 1 61.054109317300941 40.307972534541086 15.385966566233487 1 rotate no_reflect no_shear #
lump $-1 $-1 $63 $9 #
transform $-1 1 0 0 0 1 0 0 0 1 61.054109317300941 40.307972534541086 15.385966566233487 1 rotate no_reflect no_shear #
lump $-1 $-1 $64 $10 #
transform $-1 1 0 0 0 1 0 0 0 1 61.054109317300941 40.307972534541086 15.385966566233487 1 rotate no_reflect no_shear #
lump $-1 $-1 $65 $11 #
transform $-1 1 0 0 0 1 0 0 0 1 61.054109317300941 40.307972534541086 15.385966566233487 1 rotate no_reflect no_shear #
lump $-1 $-1 $66 $12 #
transform $-1 1 0 0 0 1 0 0 0 1 61.054109317300941 40.307972534541086 15.385966566233487 1 rotate no_reflect no_shear #
lump $-1 $-1 $67 $13 #
transform $-1 1 0 0 0 1 0 0 0 1 61.054109317300941 40.307972534541086 15.385966566233487 1 rotate no_reflect no_shear #
lump $-1 $-1 $68 $14 #
transform $-1 1 0 0 0 1 0 0 0 1 61.054109317300941 40.307972534541086 15.385966566233487 1 rotate no_reflect no_shear #
lump $-1 $-1 $69 $15 #
transform $-1 1 0 0 0 1 0 0 0 1 61.054109317300941 40.307972534541086 15.385966566233487 1 rotate no_reflect no_shear #
lump $-1 $-1 $70 $16 #
transform $-1 1 0 0 0 1 0 0 0 1 61.054109317300941 40.307972534541086 15.385966566233487 1 rotate no_reflect no_shear #
lump $-1 $-1 $71 $17 #
transform $-1 1 0 0 0 1 0 0 0 1 61.054109317300941 40.307972534541086 15.385966566233487 1 rotate no_reflect no_shear #
shell $-1 $-1 $-1 $72 $-1 $18 #
shell $-1 $-1 $-1 $73 $-1 $20 #
shell $-1 $-1 $-1 $74 $-1 $22 #
shell $-1 $-1 $-1 $75 $-1 $24 #
shell $-1 $-1 $-1 $76 $-1 $26 #
shell $-1 $-1 $-1 $77 $-1 $28 #
shell $-1 $-1 $-1 $78 $-1 $30 #
shell $-1 $-1 $-1 $79 $-1 $32 #
shell $-1 $-1 $-1 $80 $-1 $34 #
shell $-1 $-1 $-1 $81 $-1 $36 #
shell $-1 $-1 $-1 $82 $-1 $38 #
shell $-1 $-1 $-1 $83 $-1 $40 #
shell $-1 $-1 $-1 $84 $-1 $42 #
shell $-1 $-1 $-1 $85 $-1 $44 #
shell $-1 $-1 $-1 $86 $-1 $46 #
shell $-1 $-1 $-1 $87 $-1 $48 #
shell $-1 $-1 $-1 $88 $-1 $50 #
shell $-1 $-1 $-1 $89 $-1 $52 #
face $-1 $90 $91 $54 $-1 $92 forward single #
face $-1 $93 $94 $55 $-1 $95 reversed single #
face $-1 $96 $97 $56 $-1 $98 reversed single #
face $-1 $99 $100 $57 $-1 $101 forward single #
face $-1 $102 $103 $58 $-1 $104 forward single #
face $-1 $105 $106 $59 $-1 $107 forward single #
face $-1 $108 $109 $60 $-1 $110 reversed single #
face $-1 $111 $112 $61 $-1 $113 forward single #
face $-1 $114 $115 $62 $-1 $116 forward single #
face $-1 $117 $118 $63 $-1 $119 forward single #
face $-1 $120 $121 $64 $-1 $122 reversed single #
face $-1 $123 $124 $65 $-1 $125 forward single #
face $-1 $126 $127 $66 $-1 $128 reversed single #
face $-1 $129 $130 $67 $-1 $131 forward single #
face $-1 $132 $133 $68 $-1 $134 reversed single #
face $-1 $135 $136 $69 $-1 $137 forward single #
face $-1 $138 $139 $70 $-1 $140 reversed single #
face $-1 $141 $142 $71 $-1 $143 forward single #
face $-1 $144 $145 $54 $-1 $146 reversed single #
loop $-1 $-1 $147 $72 #
plane-surface $-1 0 0 15.385966566233487 0 0 1 1 0 0 forward_v I I I I #
face $-1 $148 $149 $55 $-1 $150 reversed single #
loop $-1 $-1 $151 $73 #
plane-surface $-1 0 -34.024288756838303 11.263539890871375 0 0 1 1 0 0 forward_v I I I I #
face $-1 $152 $153 $56 $-1 $154 reversed single #
loop $-1 $-1 $155 $74 #
plane-surface $-1 -131.09250711355838 -13.710557066085917 112.26487637409969 0 -1 0 0.57357644374324357 0 -0.81915203911291934 forward_v I I I I #
face $-1 $156 $157 $57 $-1 $158 forward single #
loop $-1 $159 $160 $75 #
cone-surface $-1 -57.708115431071683 -24.934595396525598 12.242842333349895 0.57357644374324357 0 -0.81915203911291934 0.81915203911291934 0 0.57357644374324357 1 I I 0 1 1 forward I I I I #
face $-1 $161 $162 $58 $-1 $163 forward single #
loop $-1 $164 $165 $76 #
cone-surface $-1 -57.708115431071683 -20.725581022610719 12.242842333349895 0.57357644374324357 0 -0.81915203911291934 0.81915203911291934 0 0.57357644374324357 1 I I 0 1 1 forward I I I I #
face $-1 $166 $167 $59 $-1 $168 forward single #
loop $-1 $169 $170 $77 #
cone-surface $-1 -57.708115431071683 -16.516566648695836 12.242842333349895 0.57357644374324357 0 -0.81915203911291934 0.81915203911291934 0 0.57357644374324357 1 I I 0 1 1 forward I I I I #
face $-1 $171 $172 $60 $-1 $173 reversed single #
loop $-1 $-1 $174 $78 #
plane-surface $-1 -131.09250711355838 6.2836837777027821 112.26487637409969 0 1 0 -0.57357644374324357 0 0.81915203911291934 forward_v I I I I #
face $-1 $175 $176 $61 $-1 $177 forward single #
loop $-1 $178 $179 $79 #
cone-surface $-1 -57.708115431071683 9.089693360312701 12.242842333349895 0.57357644374324357 0 -0.81915203911291934 0.81915203911291934 0 0.57357644374324357 1 I I 0 1 1 forward I I I I #
face $-1 $180 $181 $62 $-1 $182 forward single #
loop $-1 $183 $184 $80 #
cone-surface $-1 -57.708115431071683 13.298707734227584 12.242842333349895 0.57357644374324357 0 -0.81915203911291934 0.81915203911291934 0 0.57357644374324357 1 I I 0 1 1 forward I I I I #
face $-1 $185 $186 $63 $-1 $187 forward single #
loop $-1 $188 $189 $81 #
cone-surface $-1 -57.708115431071683 17.507722108142467 12.242842333349895 0.57357644374324357 0 -0.81915203911291934 0.81915203911291934 0 0.57357644374324357 1 I I 0 1 1 forward I I I I #
face $-1 $190 $191 $64 $-1 $192 reversed single #
loop $-1 $-1 $193 $82 #
plane-surface $-1 25.150444045975561 -13.902141214290864 169.42074940455095 0 -1 0 -0.54463904215088732 0 -0.83867056331134215 forward_v I I I I #
face $-1 $194 $195 $65 $-1 $196 forward single #
loop $-1 $197 $198 $83 #
cone-surface $-1 48.817330558510989 -19.695262592166124 6.7436902574663637 -0.54463904215088732 0 -0.83867056331134215 1.2580058449670133 0 -0.81695856322633098 1 I I 0 1 1.5 forward I I I I #
face $-1 $199 $200 $66 $-1 $201 reversed single #
loop $-1 $-1 $202 $84 #
plane-surface $-1 25.150444045975561 3.4171563656217385 169.42074940455095 0 -1 0 -0.54463904215088732 0 -0.83867056331134215 forward_v I I I I #
face $-1 $203 $204 $67 $-1 $205 forward single #
loop $-1 $206 $207 $85 #
cone-surface $-1 48.817330558510989 -2.3759650122535163 6.7436902574663637 -0.54463904215088732 0 -0.83867056331134215 1.2580058449670133 0 -0.81695856322633098 1 I I 0 1 1.5 forward I I I I #
face $-1 $208 $209 $68 $-1 $210 reversed single #
loop $-1 $-1 $211 $86 #
plane-surface $-1 25.150444045975561 20.736453945534347 169.42074940455095 0 -1 0 -0.54463904215088732 0 -0.83867056331134215 forward_v I I I I #
face $-1 $212 $213 $69 $-1 $214 forward single #
loop $-1 $215 $216 $87 #
cone-surface $-1 48.817330558510989 14.943332567659091 6.7436902574663637 -0.54463904215088732 0 -0.83867056331134215 1.2580058449670133 0 -0.81695856322633098 1 I I 0 1 1.5 forward I I I I #
face $-1 $217 $218 $70 $-1 $219 reversed single #
loop $-1 $-1 $220 $88 #
plane-surface $-1 25.150444045975561 38.055751525446951 169.42074940455095 0 -1 0 -0.54463904215088732 0 -0.83867056331134215 forward_v I I I I #
face $-1 $221 $222 $71 $-1 $223 forward single #
loop $-1 $224 $225 $89 #
cone-surface $-1 48.817330558510989 32.262630147571706 6.7436902574663637 -0.54463904215088732 0 -0.83867056331134215 1.2580058449670133 0 -0.81695856322633098 1 I I 0 1 1.5 forward I I I I #
face $-1 $226 $227 $54 $-1 $228 reversed single #
loop $-1 $-1 $229 $90 #
plane-surface $-1 0 0 -15.385966566233487 0 0 1 1 0 0 forward_v I I I I #
coedge $-1 $230 $231 $232 $233 forward $91 $-1 #
face $-1 $234 $235 $55 $-1 $236 reversed single #
loop $-1 $-1 $237 $93 #
plane-surface $-1 0 -27.740604979135519 13.32475322855243 0 -1 0 0 0 -1 forward_v I I I I #
coedge $-1 $238 $239 $240 $241 reversed $94 $-1 #
face $-1 $242 $243 $56 $-1 $244 forward single #
loop $-1 $-1 $245 $96 #
plane-surface $-1 -61.054109317300956 -20.725581022610719 12.239680087119368 -0.57357644374324357 0 0.81915203911291934 0.81915203911291934 0 0.57357644374324357 forward_v I I I I #
coedge $-1 $246 $247 $248 $249 reversed $97 $-1 #
face $-1 $-1 $250 $57 $-1 $251 forward single #
loop $-1 $252 $253 $99 #
cone-surface $-1 -56.322014661712664 -24.934595396525598 10.263285320466904 0.57357644374324357 0 -0.81915203911291934 0.40957601955645967 0 0.28678822187162178 1 I I -0.70710678118654746 0.70710678118654746 0.5 forward I I I I #
loop $-1 $-1 $254 $75 #
coedge $-1 $160 $160 $255 $256 reversed $100 $-1 #
face $-1 $-1 $257 $58 $-1 $258 forward single #
loop $-1 $259 $260 $102 #
cone-surface $-1 -56.322014661712664 -20.725581022610719 10.263285320466904 0.57357644374324357 0 -0.81915203911291934 0.40957601955645967 0 0.28678822187162178 1 I I -0.70710678118654746 0.70710678118654746 0.5 forward I I I I #
loop $-1 $-1 $261 $76 #
coedge $-1 $165 $165 $262 $263 reversed $103 $-1 #
face $-1 $-1 $264 $59 $-1 $265 forward single #
loop $-1 $266 $267 $105 #
cone-surface $-1 -56.322014661712664 -16.516566648695836 10.263285320466904 0.57357644374324357 0 -0.81915203911291934 0.40957601955645967 0 0.28678822187162178 1 I I -0.70710678118654746 0.70710678118654746 0.5 forward I I I I #
loop $-1 $-1 $268 $77 #
coedge $-1 $170 $170 $269 $270 reversed $106 $-1 #
face $-1 $271 $272 $60 $-1 $273 reversed single #
loop $-1 $-1 $274 $108 #
plane-surface $-1 -61.054109317300956 13.298707734227584 12.239680087119368 -0.57357644374324357 0 0.81915203911291934 0.81915203911291934 0 0.57357644374324357 forward_v I I I I #
coedge $-1 $275 $276 $277 $278 reversed $109 $-1 #
face $-1 $-1 $279 $61 $-1 $280 forward single #
loop $-1 $281 $282 $111 #
cone-surface $-1 -56.322014661712664 9.089693360312701 10.263285320466904 0.57357644374324357 0 -0.81915203911291934 0.40957601955645967 0 0.28678822187162178 1 I I -0.70710678118654746 0.70710678118654746 0.5 forward I I I I #
loop $-1 $-1 $283 $79 #
coedge $-1 $179 $179 $284 $285 reversed $112 $-1 #
face $-1 $-1 $286 $62 $-1 $287 forward single #
loop $-1 $288 $289 $114 #
cone-surface $-1 -56.322014661712664 13.298707734227584 10.263285320466904 0.57357644374324357 0 -0.81915203911291934 0.40957601955645967 0 0.28678822187162178 1 I I -0.70710678118654746 0.70710678118654746 0.5 forward I I I I #
loop $-1 $-1 $290 $80 #
coedge $-1 $184 $184 $291 $292 reversed $115 $-1 #
face $-1 $-1 $293 $63 $-1 $294 forward single #
loop $-1 $295 $296 $117 #
cone-surface $-1 -56.322014661712664 17.507722108142467 10.263285320466904 0.57357644374324357 0 -0.81915203911291934 0.40957601955645967 0 0.28678822187162178 1 I I -0.70710678118654746 0.70710678118654746 0.5 forward I I I I #
loop $-1 $-1 $297 $81 #
coedge $-1 $189 $189 $298 $299 reversed $118 $-1 #
face $-1 $300 $301 $64 $-1 $302 reversed single #
loop $-1 $-1 $303 $120 #
plane-surface $-1 -41.354459189925137 -19.695262592166127 67.012180897324853 0.54463904215088732 0 0.83867056331134215 0.83867056331134215 0 -0.54463904215088732 forward_v I I I I #
coedge $-1 $304 $305 $306 $307 reversed $121 $-1 #
face $-1 $-1 $308 $65 $-1 $309 forward single #
loop $-1 $310 $311 $123 #
cone-surface $-1 47.627658180725177 -19.695262592166124 4.9117554786203907 -0.54463904215088732 0 -0.83867056331134215 0.62900292248350664 0 -0.40847928161316549 1 I I -0.70710678118654757 0.70710678118654757 0.75 forward I I I I #
loop $-1 $-1 $312 $83 #
coedge $-1 $198 $198 $313 $314 reversed $124 $-1 #
face $-1 $315 $316 $66 $-1 $317 reversed single #
loop $-1 $-1 $318 $126 #
plane-surface $-1 -41.354459189925137 -2.3759650122535234 67.012180897324853 0.54463904215088732 0 0.83867056331134215 0.83867056331134215 0 -0.54463904215088732 forward_v I I I I #
coedge $-1 $319 $320 $321 $322 reversed $127 $-1 #
face $-1 $-1 $323 $67 $-1 $324 forward single #
loop $-1 $325 $326 $129 #
cone-surface $-1 47.627658180725177 -2.3759650122535163 4.9117554786203907 -0.54463904215088732 0 -0.83867056331134215 0.62900292248350664 0 -0.40847928161316549 1 I I -0.70710678118654757 0.70710678118654757 0.75 forward I I I I #
loop $-1 $-1 $327 $85 #
coedge $-1 $207 $207 $328 $329 reversed $130 $-1 #
face $-1 $330 $331 $68 $-1 $332 reversed single #
loop $-1 $-1 $333 $132 #
plane-surface $-1 -41.354459189925137 14.943332567659084 67.012180897324853 0.54463904215088732 0 0.83867056331134215 0.83867056331134215 0 -0.54463904215088732 forward_v I I I I #
coedge $-1 $334 $335 $336 $337 reversed $133 $-1 #
face $-1 $-1 $338 $69 $-1 $339 forward single #
loop $-1 $340 $341 $135 #
cone-surface $-1 47.627658180725177 14.943332567659091 4.9117554786203907 -0.54463904215088732 0 -0.83867056331134215 0.62900292248350664 0 -0.40847928161316549 1 I I -0.70710678118654757 0.70710678118654757 0.75 forward I I I I #
loop $-1 $-1 $342 $87 #
coedge $-1 $216 $216 $343 $344 reversed $136 $-1 #
face $-1 $345 $346 $70 $-1 $347 reversed single #
loop $-1 $-1 $348 $138 #
plane-surface $-1 -41.354459189925137 32.262630147571691 67.012180897324853 0.54463904215088732 0 0.83867056331134215 0.83867056331134215 0 -0.54463904215088732 forward_v I I I I #
coedge $-1 $349 $350 $351 $352 reversed $139 $-1 #
face $-1 $-1 $353 $71 $-1 $354 forward single #
loop $-1 $355 $356 $141 #
cone-surface $-1 47.627658180725177 32.262630147571706 4.9117554786203907 -0.54463904215088732 0 -0.83867056331134215 0.62900292248350664 0 -0.40847928161316549 1 I I -0.70710678118654757 0.70710678118654757 0.75 forward I I I I #
loop $-1 $-1 $357 $89 #
coedge $-1 $225 $225 $358 $359 reversed $142 $-1 #
face $-1 $360 $361 $54 $-1 $362 reversed single #
loop $-1 $-1 $363 $144 #
plane-surface $-1 0 -40.307972534541086 0 0 1 0 0 0 1 forward_v I I I I #
coedge $-1 $364 $365 $366 $367 forward $145 $-1 #
coedge $-1 $368 $147 $369 $370 forward $91 $-1 #
coedge $-1 $147 $368 $371 $372 forward $91 $-1 #
coedge $-1 $373 $374 $147 $233 reversed $375 $-1 #
edge $-1 $376 -40.307972534541086 $377 40.307972534541086 $232 $378 forward 7 unknown #
face $-1 $379 $380 $55 $-1 $381 reversed single #
loop $-1 $-1 $382 $148 #
plane-surface $-1 -61.054109317300941 0 0 1 0 0 0 0 -1 forward_v I I I I #
coedge $-1 $383 $384 $385 $386 reversed $149 $-1 #
coedge $-1 $387 $151 $388 $389 reversed $94 $-1 #
coedge $-1 $151 $387 $390 $391 forward $94 $-1 #
coedge $-1 $392 $393 $151 $241 forward $394 $-1 #
edge $-1 $395 -23.295828156121935 $396 -10.728460600716367 $240 $397 forward 7 unknown #
face $-1 $398 $399 $56 $-1 $400 forward single #
loop $-1 $-1 $401 $152 #
plane-surface $-1 0 -27.740604979135519 13.32475322855243 0 -1 0 0 0 -1 forward_v I I I I #
coedge $-1 $402 $403 $404 $405 reversed $153 $-1 #
coedge $-1 $247 $155 $406 $407 reversed $97 $-1 #
coedge $-1 $155 $246 $402 $408 reversed $97 $-1 #
coedge $-1 $404 $409 $155 $249 forward $410 $-1 #
edge $-1 $411 40.746471620816358 $412 43.892758099930461 $248 $413 forward 7 unknown #
loop $-1 $-1 $255 $156 #
plane-surface $-1 -61.054109317300956 -20.725581022610719 12.239680087119368 -0.57357644374324357 0 0.81915203911291934 0.81915203911291934 0 0.57357644374324357 forward_v I I I I #
loop $-1 $-1 $414 $99 #
coedge $-1 $253 $253 $254 $415 reversed $157 $-1 #
coedge $-1 $254 $254 $253 $415 forward $159 $-1 #
coedge $-1 $255 $255 $160 $256 forward $250 $-1 #
edge $-1 $416 0 $416 6.2831853071796004 $255 $417 forward 7 unknown #
loop $-1 $-1 $262 $161 #
plane-surface $-1 -61.054109317300956 -20.725581022610719 12.239680087119368 -0.57357644374324357 0 0.81915203911291934 0.81915203911291934 0 0.57357644374324357 forward_v I I I I #
loop $-1 $-1 $418 $102 #
coedge $-1 $260 $260 $261 $419 reversed $162 $-1 #
coedge $-1 $261 $261 $260 $419 forward $164 $-1 #
coedge $-1 $262 $262 $165 $263 forward $257 $-1 #
edge $-1 $420 0 $420 6.2831853071796004 $262 $421 forward 7 unknown #
loop $-1 $-1 $269 $166 #
plane-surface $-1 -61.054109317300956 -20.725581022610719 12.239680087119368 -0.57357644374324357 0 0.81915203911291934 0.81915203911291934 0 0.57357644374324357 forward_v I I I I #
loop $-1 $-1 $422 $105 #
coedge $-1 $267 $267 $268 $423 reversed $167 $-1 #
coedge $-1 $268 $268 $267 $423 forward $169 $-1 #
coedge $-1 $269 $269 $170 $270 forward $264 $-1 #
edge $-1 $424 0 $424 6.2831853071796004 $269 $425 forward 7 unknown #
face $-1 $426 $427 $60 $-1 $428 forward single #
loop $-1 $-1 $429 $171 #
plane-surface $-1 -131.09250711355838 20.313731690752384 112.26487637409969 0 -1 0 0.57357644374324357 0 -0.81915203911291934 forward_v I I I I #
coedge $-1 $430 $431 $432 $433 reversed $172 $-1 #
coedge $-1 $276 $174 $434 $435 reversed $109 $-1 #
coedge $-1 $174 $275 $430 $436 reversed $109 $-1 #
coedge $-1 $432 $437 $174 $278 forward $427 $-1 #
edge $-1 $438 4.4921442394782503 $439 8.9855069169619668 $277 $440 forward 7 unknown #
loop $-1 $-1 $284 $175 #
plane-surface $-1 -61.054109317300956 13.298707734227584 12.239680087119368 -0.57357644374324357 0 0.81915203911291934 0.81915203911291934 0 0.57357644374324357 forward_v I I I I #
loop $-1 $-1 $441 $111 #
coedge $-1 $282 $282 $283 $442 reversed $176 $-1 #
coedge $-1 $283 $283 $282 $442 forward $178 $-1 #
coedge $-1 $284 $284 $179 $285 forward $279 $-1 #
edge $-1 $443 0 $443 6.2831853071796004 $284 $444 forward 7 unknown #
loop $-1 $-1 $291 $180 #
plane-surface $-1 -61.054109317300956 13.298707734227584 12.239680087119368 -0.57357644374324357 0 0.81915203911291934 0.81915203911291934 0 0.57357644374324357 forward_v I I I I #
loop $-1 $-1 $445 $114 #
coedge $-1 $289 $289 $290 $446 reversed $181 $-1 #
coedge $-1 $290 $290 $289 $446 forward $183 $-1 #
coedge $-1 $291 $291 $184 $292 forward $286 $-1 #
edge $-1 $447 0 $447 6.2831853071796004 $291 $448 forward 7 unknown #
loop $-1 $-1 $298 $185 #
plane-surface $-1 -61.054109317300956 13.298707734227584 12.239680087119368 -0.57357644374324357 0 0.81915203911291934 0.81915203911291934 0 0.57357644374324357 forward_v I I I I #
loop $-1 $-1 $449 $117 #
coedge $-1 $296 $296 $297 $450 reversed $186 $-1 #
coedge $-1 $297 $297 $296 $450 forward $188 $-1 #
coedge $-1 $298 $298 $189 $299 forward $293 $-1 #
edge $-1 $451 0 $451 6.2831853071796004 $298 $452 forward 7 unknown #
face $-1 $453 $454 $64 $-1 $455 reversed single #
loop $-1 $-1 $456 $190 #
plane-surface $-1 25.150444045975561 -25.48838397004139 169.42074940455095 0 1 0 0.54463904215088732 0 0.83867056331134215 forward_v I I I I #
coedge $-1 $457 $458 $459 $460 reversed $191 $-1 #
coedge $-1 $305 $193 $461 $462 reversed $121 $-1 #
coedge $-1 $193 $304 $457 $463 reversed $121 $-1 #
coedge $-1 $459 $464 $193 $307 forward $465 $-1 #
edge $-1 $466 -48.478887294313161 $467 -25.567715969078556 $306 $468 forward 7 unknown #
loop $-1 $-1 $313 $194 #
plane-surface $-1 -41.354459189925137 -19.695262592166127 67.012180897324853 0.54463904215088732 0 0.83867056331134215 0.83867056331134215 0 -0.54463904215088732 forward_v I I I I #
loop $-1 $-1 $469 $123 #
coedge $-1 $311 $311 $312 $470 reversed $195 $-1 #
coedge $-1 $312 $312 $311 $470 forward $197 $-1 #
coedge $-1 $313 $313 $198 $314 forward $308 $-1 #
edge $-1 $471 0 $471 6.2831853071796004 $313 $472 forward 7 unknown #
face $-1 $473 $474 $66 $-1 $475 reversed single #
loop $-1 $-1 $476 $199 #
plane-surface $-1 25.150444045975561 -8.1690863901287862 169.42074940455095 0 1 0 0.54463904215088732 0 0.83867056331134215 forward_v I I I I #
coedge $-1 $477 $478 $479 $480 reversed $200 $-1 #
coedge $-1 $320 $202 $481 $482 reversed $127 $-1 #
coedge $-1 $202 $319 $477 $483 reversed $127 $-1 #
coedge $-1 $479 $484 $202 $322 forward $485 $-1 #
edge $-1 $486 -48.478887294313161 $487 -25.567715969078556 $321 $488 forward 7 unknown #
loop $-1 $-1 $328 $203 #
plane-surface $-1 -41.354459189925137 -2.3759650122535234 67.012180897324853 0.54463904215088732 0 0.83867056331134215 0.83867056331134215 0 -0.54463904215088732 forward_v I I I I #
loop $-1 $-1 $489 $129 #
coedge $-1 $326 $326 $327 $490 reversed $204 $-1 #
coedge $-1 $327 $327 $326 $490 forward $206 $-1 #
coedge $-1 $328 $328 $207 $329 forward $323 $-1 #
edge $-1 $491 0 $491 6.2831853071796004 $328 $492 forward 7 unknown #
face $-1 $493 $494 $68 $-1 $495 reversed single #
loop $-1 $-1 $496 $208 #
plane-surface $-1 25.150444045975561 9.1502111897838212 169.42074940455095 0 1 0 0.54463904215088732 0 0.83867056331134215 forward_v I I I I #
coedge $-1 $497 $498 $499 $500 reversed $209 $-1 #
coedge $-1 $335 $211 $501 $502 reversed $133 $-1 #
coedge $-1 $211 $334 $497 $503 reversed $133 $-1 #
coedge $-1 $499 $504 $211 $337 forward $505 $-1 #
edge $-1 $506 -48.478887294313161 $507 -25.567715969078556 $336 $508 forward 7 unknown #
loop $-1 $-1 $343 $212 #
plane-surface $-1 -41.354459189925137 14.943332567659084 67.012180897324853 0.54463904215088732 0 0.83867056331134215 0.83867056331134215 0 -0.54463904215088732 forward_v I I I I #
loop $-1 $-1 $509 $135 #
coedge $-1 $341 $341 $342 $510 reversed $213 $-1 #
coedge $-1 $342 $342 $341 $510 forward $215 $-1 #
coedge $-1 $343 $343 $216 $344 forward $338 $-1 #
edge $-1 $511 0 $511 6.2831853071796004 $343 $512 forward 7 unknown #
face $-1 $513 $514 $70 $-1 $515 reversed single #
loop $-1 $-1 $516 $217 #
plane-surface $-1 25.150444045975561 26.469508769696429 169.42074940455095 0 1 0 0.54463904215088732 0 0.83867056331134215 forward_v I I I I #
coedge $-1 $517 $518 $519 $520 reversed $218 $-1 #
coedge $-1 $350 $220 $521 $522 reversed $139 $-1 #
coedge $-1 $220 $349 $517 $523 reversed $139 $-1 #
coedge $-1 $519 $524 $220 $352 forward $525 $-1 #
edge $-1 $526 -48.478887294313161 $527 -25.567715969078556 $351 $528 forward 7 unknown #
loop $-1 $-1 $358 $221 #
plane-surface $-1 -41.354459189925137 32.262630147571691 67.012180897324853 0.54463904215088732 0 0.83867056331134215 0.83867056331134215 0 -0.54463904215088732 forward_v I I I I #
loop $-1 $-1 $529 $141 #
coedge $-1 $356 $356 $357 $530 reversed $222 $-1 #
coedge $-1 $357 $357 $356 $530 forward $224 $-1 #
coedge $-1 $358 $358 $225 $359 forward $353 $-1 #
edge $-1 $531 0 $531 6.2831853071796004 $358 $532 forward 7 unknown #
face $-1 $533 $534 $54 $-1 $535 reversed single #
loop $-1 $-1 $536 $226 #
plane-surface $-1 -61.054109317300941 0 0 1 0 0 0 0 -1 forward_v I I I I #
coedge $-1 $537 $371 $538 $539 forward $227 $-1 #
coedge $-1 $540 $229 $537 $541 forward $145 $-1 #
coedge $-1 $229 $540 $542 $543 forward $145 $-1 #
coedge $-1 $374 $373 $229 $367 reversed $375 $-1 #
edge $-1 $544 -40.307972534541086 $545 40.307972534541086 $366 $546 forward 7 unknown #
coedge $-1 $231 $230 $547 $548 forward $91 $-1 #
coedge $-1 $549 $550 $230 $370 reversed $534 $-1 #
edge $-1 $377 -61.054109317300941 $551 61.054109317300941 $369 $552 forward 7 unknown #
coedge $-1 $363 $553 $231 $372 reversed $227 $-1 #
edge $-1 $554 -61.054109317300941 $376 61.054109317300941 $371 $555 forward 7 unknown #
coedge $-1 $366 $232 $553 $556 forward $375 $-1 #
coedge $-1 $232 $366 $549 $557 reversed $375 $-1 #
loop $-1 $-1 $373 $533 #
vertex $-1 $233 $558 #
vertex $-1 $233 $559 #
straight-curve $-1 61.054109317300941 0 15.385966566233487 0 1 0 I I #
face $-1 $560 $561 $55 $-1 $562 forward single #
loop $-1 $-1 $388 $234 #
plane-surface $-1 0 -40.307972534541086 0 0 1 0 0 0 1 forward_v I I I I #
coedge $-1 $563 $564 $384 $565 forward $235 $-1 #
coedge $-1 $390 $237 $392 $566 reversed $149 $-1 #
coedge $-1 $237 $390 $382 $565 reversed $149 $-1 #
coedge $-1 $567 $568 $237 $386 forward $561 $-1 #
edge $-1 $569 -61.054109317300941 $570 61.054109317300941 $385 $571 forward 7 unknown #
coedge $-1 $239 $238 $563 $572 reversed $94 $-1 #
coedge $-1 $573 $574 $238 $389 forward $380 $-1 #
edge $-1 $575 -61.054109317300941 $395 61.054109317300941 $388 $576 forward 7 unknown #
coedge $-1 $384 $383 $239 $391 reversed $149 $-1 #
edge $-1 $577 -61.054109317300941 $396 61.054109317300941 $390 $578 forward 7 unknown #
coedge $-1 $579 $240 $383 $566 forward $394 $-1 #
coedge $-1 $240 $579 $573 $580 forward $394 $-1 #
loop $-1 $-1 $392 $560 #
vertex $-1 $389 $581 #
vertex $-1 $241 $582 #
straight-curve $-1 61.054109317300941 -17.012144378419151 11.263539890871375 0 1 0 I I #
face $-1 $-1 $410 $56 $-1 $583 reversed single #
loop $-1 $-1 $584 $242 #
plane-surface $-1 0 0 15.385966566233487 0 0 1 1 0 0 forward_v I I I I #
coedge $-1 $585 $586 $403 $587 forward $243 $-1 #
coedge $-1 $588 $245 $247 $408 forward $153 $-1 #
coedge $-1 $245 $588 $401 $587 reversed $153 $-1 #
coedge $-1 $589 $248 $245 $405 forward $410 $-1 #
edge $-1 $412 3.3477665547805575 $590 17.377814467830159 $404 $591 forward 7 unknown #
coedge $-1 $592 $584 $246 $407 forward $399 $-1 #
edge $-1 $593 -8.9855069169619668 $411 -4.4921442394782503 $406 $594 forward 7 unknown #
edge $-1 $412 1.7754109250068268e-014 $593 5.4853830094224119 $247 $595 forward 7 unknown #
coedge $-1 $248 $589 $592 $596 reversed $410 $-1 #
loop $-1 $-1 $404 $398 #
vertex $-1 $596 $597 #
vertex $-1 $249 $598 #
straight-curve $-1 -61.054109317300941 -13.710557066085917 56.132438187049843 0 0 -1 I I #
coedge $-1 $414 $414 $-1 $599 reversed $252 $-1 #
edge $-1 $600 0 $600 6.2831853071796004 $253 $601 forward 7 unknown #
vertex $-1 $256 $602 #
ellipse-curve $-1 -58.807427978559083 -24.934595396525598 13.812823326676433 -0.57357644374324357 0 0.81915203911291934 0.81915203911291934 0 0.57357644374324357 1 I I #
coedge $-1 $418 $418 $-1 $603 reversed $259 $-1 #
edge $-1 $604 0 $604 6.2831853071796004 $260 $605 forward 7 unknown #
vertex $-1 $263 $606 #
ellipse-curve $-1 -58.807427978559083 -20.725581022610719 13.812823326676433 -0.57357644374324357 0 0.81915203911291934 0.81915203911291934 0 0.57357644374324357 1 I I #
coedge $-1 $422 $422 $-1 $607 reversed $266 $-1 #
edge $-1 $608 0 $608 6.2831853071796004 $267 $609 forward 7 unknown #
vertex $-1 $270 $610 #
ellipse-curve $-1 -58.807427978559083 -16.516566648695836 13.812823326676433 -0.57357644374324357 0 0.81915203911291934 0.81915203911291934 0 0.57357644374324357 1 I I #
face $-1 $-1 $611 $60 $-1 $612 reversed single #
loop $-1 $-1 $277 $271 #
plane-surface $-1 0 0 15.385966566233487 0 0 1 1 0 0 forward_v I I I I #
coedge $-1 $613 $614 $615 $616 reversed $272 $-1 #
coedge $-1 $617 $274 $276 $436 forward $172 $-1 #
coedge $-1 $274 $617 $613 $618 forward $172 $-1 #
coedge $-1 $615 $277 $274 $433 forward $427 $-1 #
edge $-1 $439 -0.36567008941100987 $619 13.664377823638592 $432 $620 forward 7 unknown #
coedge $-1 $621 $622 $275 $435 forward $611 $-1 #
edge $-1 $623 -43.892758099930461 $438 -40.746471620816358 $434 $624 forward 7 unknown #
edge $-1 $439 -5.4853830094224119 $623 -1.7754109250068268e-014 $276 $625 forward 7 unknown #
coedge $-1 $277 $615 $621 $626 forward $427 $-1 #
vertex $-1 $278 $627 #
vertex $-1 $278 $628 #
straight-curve $-1 -65.546253556779192 6.2836837777027821 15.385966566233485 1 0 0 I I #
coedge $-1 $441 $441 $-1 $629 reversed $281 $-1 #
edge $-1 $630 0 $630 6.2831853071796004 $282 $631 forward 7 unknown #
vertex $-1 $285 $632 #
ellipse-curve $-1 -58.807427978559083 9.089693360312701 13.812823326676433 -0.57357644374324357 0 0.81915203911291934 0.81915203911291934 0 0.57357644374324357 1 I I #
coedge $-1 $445 $445 $-1 $633 reversed $288 $-1 #
edge $-1 $634 0 $634 6.2831853071796004 $289 $635 forward 7 unknown #
vertex $-1 $292 $636 #
ellipse-curve $-1 -58.807427978559083 13.298707734227584 13.812823326676433 -0.57357644374324357 0 0.81915203911291934 0.81915203911291934 0 0.57357644374324357 1 I I #
coedge $-1 $449 $449 $-1 $637 reversed $295 $-1 #
edge $-1 $638 0 $638 6.2831853071796004 $296 $639 forward 7 unknown #
vertex $-1 $299 $640 #
ellipse-curve $-1 -58.807427978559083 17.507722108142467 13.812823326676433 -0.57357644374324357 0 0.81915203911291934 0.81915203911291934 0 0.57357644374324357 1 I I #
face $-1 $-1 $465 $64 $-1 $641 forward single #
loop $-1 $-1 $642 $300 #
plane-surface $-1 61.054109317300941 0 0 -1 0 0 0 0 1 forward_v I I I I #
coedge $-1 $643 $644 $645 $646 reversed $301 $-1 #
coedge $-1 $647 $303 $305 $463 forward $191 $-1 #
coedge $-1 $303 $647 $643 $648 forward $191 $-1 #
coedge $-1 $645 $306 $303 $460 forward $465 $-1 #
edge $-1 $467 4.0545099182078008 $649 15.640752673958326 $459 $650 forward 7 unknown #
coedge $-1 $651 $652 $304 $462 forward $454 $-1 #
edge $-1 $653 -84.203097040851318 $466 -69.324408136041981 $461 $654 forward 7 unknown #
edge $-1 $467 94.78977879956831 $653 122.10821863460187 $305 $655 forward 7 unknown #
coedge $-1 $306 $645 $651 $656 forward $465 $-1 #
loop $-1 $-1 $645 $453 #
vertex $-1 $462 $657 #
vertex $-1 $307 $658 #
straight-curve $-1 12.575222022987781 -13.902141214290864 15.385966566233492 -1 0 0 I I #
coedge $-1 $469 $469 $-1 $659 reversed $310 $-1 #
edge $-1 $660 0 $660 6.2831853071796004 $311 $661 forward 7 unknown #
vertex $-1 $314 $662 #
ellipse-curve $-1 49.598523654683632 -19.695262592166124 7.9466221138288322 0.54463904215088732 0 0.83867056331134215 1.2580058449670133 0 -0.81695856322633098 1 I I #
face $-1 $-1 $485 $66 $-1 $663 forward single #
loop $-1 $-1 $664 $315 #
plane-surface $-1 61.054109317300941 0 0 -1 0 0 0 0 1 forward_v I I I I #
coedge $-1 $665 $666 $667 $668 reversed $316 $-1 #
coedge $-1 $669 $318 $320 $483 forward $200 $-1 #
coedge $-1 $318 $669 $665 $670 forward $200 $-1 #
coedge $-1 $667 $321 $318 $480 forward $485 $-1 #
edge $-1 $487 -4.6051388717485002 $671 6.9811038840020245 $479 $672 forward 7 unknown #
coedge $-1 $673 $674 $319 $482 forward $474 $-1 #
edge $-1 $675 -84.203097040851318 $486 -69.324408136041981 $481 $676 forward 7 unknown #
edge $-1 $487 94.78977879956831 $675 122.10821863460187 $320 $677 forward 7 unknown #
coedge $-1 $321 $667 $673 $678 forward $485 $-1 #
loop $-1 $-1 $667 $473 #
vertex $-1 $482 $679 #
vertex $-1 $322 $680 #
straight-curve $-1 12.575222022987781 3.4171563656217385 15.385966566233492 -1 0 0 I I #
coedge $-1 $489 $489 $-1 $681 reversed $325 $-1 #
edge $-1 $682 0 $682 6.2831853071796004 $326 $683 forward 7 unknown #
vertex $-1 $329 $684 #
ellipse-curve $-1 49.598523654683632 -2.3759650122535163 7.9466221138288322 0.54463904215088732 0 0.83867056331134215 1.2580058449670133 0 -0.81695856322633098 1 I I #
face $-1 $-1 $505 $68 $-1 $685 forward single #
loop $-1 $-1 $686 $330 #
plane-surface $-1 61.054109317300941 0 0 -1 0 0 0 0 1 forward_v I I I I #
coedge $-1 $687 $688 $689 $690 reversed $331 $-1 #
coedge $-1 $691 $333 $335 $503 forward $209 $-1 #
coedge $-1 $333 $691 $687 $692 forward $209 $-1 #
coedge $-1 $689 $336 $333 $500 forward $505 $-1 #
edge $-1 $507 -13.264787661704805 $693 -1.6785449059542792 $499 $694 forward 7 unknown #
coedge $-1 $695 $696 $334 $502 forward $494 $-1 #
edge $-1 $697 -84.203097040851318 $506 -69.324408136041981 $501 $698 forward 7 unknown #
edge $-1 $507 94.78977879956831 $697 122.10821863460187 $335 $699 forward 7 unknown #
coedge $-1 $336 $689 $695 $700 forward $505 $-1 #
loop $-1 $-1 $689 $493 #
vertex $-1 $502 $701 #
vertex $-1 $337 $702 #
straight-curve $-1 12.575222022987781 20.736453945534347 15.385966566233492 -1 0 0 I I #
coedge $-1 $509 $509 $-1 $703 reversed $340 $-1 #
edge $-1 $704 0 $704 6.2831853071796004 $341 $705 forward 7 unknown #
vertex $-1 $344 $706 #
ellipse-curve $-1 49.598523654683632 14.943332567659091 7.9466221138288322 0.54463904215088732 0 0.83867056331134215 1.2580058449670133 0 -0.81695856322633098 1 I I #
face $-1 $-1 $525 $70 $-1 $707 forward single #
loop $-1 $-1 $708 $345 #
plane-surface $-1 61.054109317300941 0 0 -1 0 0 0 0 1 forward_v I I I I #
coedge $-1 $709 $710 $711 $712 reversed $346 $-1 #
coedge $-1 $713 $348 $350 $523 forward $218 $-1 #
coedge $-1 $348 $713 $709 $714 forward $218 $-1 #
coedge $-1 $711 $351 $348 $520 forward $525 $-1 #
edge $-1 $527 -21.924436451661105 $715 -10.338193695910583 $519 $716 forward 7 unknown #
coedge $-1 $717 $718 $349 $522 forward $514 $-1 #
edge $-1 $719 -84.203097040851318 $526 -69.324408136041981 $521 $720 forward 7 unknown #
edge $-1 $527 94.78977879956831 $719 122.10821863460187 $350 $721 forward 7 unknown #
coedge $-1 $351 $711 $717 $722 forward $525 $-1 #
loop $-1 $-1 $711 $513 #
vertex $-1 $522 $723 #
vertex $-1 $352 $724 #
straight-curve $-1 12.575222022987781 38.055751525446951 15.385966566233492 -1 0 0 I I #
coedge $-1 $529 $529 $-1 $725 reversed $355 $-1 #
edge $-1 $726 0 $726 6.2831853071796004 $356 $727 forward 7 unknown #
vertex $-1 $359 $728 #
ellipse-curve $-1 49.598523654683632 32.262630147571706 7.9466221138288322 0.54463904215088732 0 0.83867056331134215 1.2580058449670133 0 -0.81695856322633098 1 I I #
face $-1 $-1 $375 $54 $-1 $729 reversed single #
loop $-1 $-1 $549 $360 #
plane-surface $-1 0 40.307972534541086 0 0 -1 0 0 0 -1 forward_v I I I I #
coedge $-1 $730 $547 $550 $731 forward $361 $-1 #
coedge $-1 $553 $363 $364 $541 reversed $227 $-1 #
coedge $-1 $547 $730 $363 $539 reversed $361 $-1 #
edge $-1 $554 -15.385966566233487 $732 15.385966566233487 $538 $733 forward 7 unknown #
coedge $-1 $365 $364 $730 $734 forward $145 $-1 #
edge $-1 $545 -61.054109317300941 $732 61.054109317300941 $537 $735 forward 7 unknown #
coedge $-1 $550 $549 $365 $543 reversed $534 $-1 #
edge $-1 $736 -61.054109317300941 $544 61.054109317300941 $542 $737 forward 7 unknown #
vertex $-1 $367 $738 #
vertex $-1 $556 $739 #
straight-curve $-1 61.054109317300941 0 -15.385966566233487 0 -1 0 I I #
coedge $-1 $536 $538 $368 $548 reversed $361 $-1 #
edge $-1 $551 -40.307972534541086 $554 40.307972534541086 $547 $740 forward 7 unknown #
coedge $-1 $542 $369 $374 $557 forward $534 $-1 #
coedge $-1 $369 $542 $536 $731 reversed $534 $-1 #
vertex $-1 $370 $741 #
straight-curve $-1 0 40.307972534541086 15.385966566233487 -1 0 0 I I #
coedge $-1 $371 $537 $373 $556 reversed $227 $-1 #
vertex $-1 $548 $742 #
straight-curve $-1 0 -40.307972534541086 15.385966566233487 1 0 0 I I #
edge $-1 $376 -15.385966566233487 $545 15.385966566233487 $373 $743 forward 7 unknown #
edge $-1 $377 -15.385966566233487 $544 15.385966566233487 $374 $744 forward 7 unknown #
point $-1 61.054109317300941 -40.307972534541086 15.385966566233487 #
point $-1 61.054109317300941 40.307972534541086 15.385966566233487 #
face $-1 $-1 $394 $55 $-1 $745 reversed single #
loop $-1 $-1 $385 $379 #
plane-surface $-1 0 0 15.385966566233487 0 0 1 1 0 0 forward_v I I I I #
coedge $-1 $746 $382 $387 $572 forward $235 $-1 #
coedge $-1 $382 $746 $567 $747 reversed $235 $-1 #
edge $-1 $570 -8.7235899519572691 $577 -4.6011632765951598 $382 $748 forward 7 unknown #
edge $-1 $396 4.6011632765951598 $569 8.7235899519572691 $392 $749 forward 7 unknown #
coedge $-1 $750 $385 $564 $747 forward $561 $-1 #
coedge $-1 $385 $750 $579 $751 forward $561 $-1 #
vertex $-1 $566 $752 #
vertex $-1 $747 $753 #
straight-curve $-1 0 -27.740604979135519 15.385966566233487 -1 0 0 I I #
edge $-1 $577 10.728460600716367 $575 23.295828156121935 $563 $754 forward 7 unknown #
coedge $-1 $755 $388 $393 $580 reversed $380 $-1 #
coedge $-1 $388 $755 $746 $756 forward $380 $-1 #
vertex $-1 $389 $757 #
straight-curve $-1 0 -40.307972534541086 11.263539890871375 1 0 0 I I #
vertex $-1 $572 $758 #
straight-curve $-1 0 -27.740604979135519 11.263539890871375 1 0 0 I I #
coedge $-1 $393 $392 $568 $751 reversed $394 $-1 #
edge $-1 $759 -15.385966566233487 $395 -11.263539890871375 $393 $760 forward 7 unknown #
point $-1 61.054109317300941 -40.307972534541086 11.263539890871375 #
point $-1 61.054109317300941 -27.740604979135519 11.263539890871375 #
plane-surface $-1 -61.054109317300941 0 0 1 0 0 0 0 -1 forward_v I I I I #
coedge $-1 $406 $761 $588 $762 forward $399 $-1 #
coedge $-1 $586 $401 $761 $763 reversed $243 $-1 #
coedge $-1 $401 $585 $589 $764 reversed $243 $-1 #
edge $-1 $590 -25.317485268577308 $765 -19.832102259154915 $401 $766 forward 7 unknown #
coedge $-1 $403 $402 $584 $762 reversed $153 $-1 #
coedge $-1 $409 $404 $586 $764 forward $410 $-1 #
vertex $-1 $764 $767 #
straight-curve $-1 -61.054109317300941 -10.362790511305359 12.239680087119376 0 -1 0 I I #
coedge $-1 $761 $406 $409 $596 forward $399 $-1 #
vertex $-1 $407 $768 #
straight-curve $-1 -65.546253556779192 -13.710557066085917 15.385966566233485 -1 0 0 I I #
straight-curve $-1 -61.054109317300956 -13.710557066085917 12.239680087119368 0.81915203911291934 0 0.57357644374324357 I I #
edge $-1 $411 13.710557066085917 $769 27.740604979135519 $409 $770 forward 7 unknown #
point $-1 -61.054109317300941 -13.710557066085917 15.385966566233487 #
point $-1 -61.054109317300941 -13.710557066085917 12.239680087119378 #
edge $-1 $771 1 $771 0 $414 $-1 forward 7 unknown #
vertex $-1 $415 $772 #
ellipse-curve $-1 -56.608802883584289 -24.934595396525598 10.672861340023363 -0.57357644374324357 0 0.81915203911291934 0.81915203911291934 0 0.57357644374324357 1 I I #
point $-1 -57.988275939446154 -24.934595396525598 14.386399770419668 #
edge $-1 $773 1 $773 0 $418 $-1 forward 7 unknown #
vertex $-1 $419 $774 #
ellipse-curve $-1 -56.608802883584289 -20.725581022610719 10.672861340023363 -0.57357644374324357 0 0.81915203911291934 0.81915203911291934 0 0.57357644374324357 1 I I #
point $-1 -57.988275939446154 -20.725581022610719 14.386399770419668 #
edge $-1 $775 1 $775 0 $422 $-1 forward 7 unknown #
vertex $-1 $423 $776 #
ellipse-curve $-1 -56.608802883584289 -16.516566648695836 10.672861340023363 -0.57357644374324357 0 0.81915203911291934 0.81915203911291934 0 0.57357644374324357 1 I I #
point $-1 -57.988275939446154 -16.516566648695836 14.386399770419668 #
loop $-1 $-1 $434 $426 #
plane-surface $-1 -61.054109317300941 0 0 1 0 0 0 0 -1 forward_v I I I I #
coedge $-1 $614 $429 $431 $618 reversed $272 $-1 #
coedge $-1 $429 $613 $777 $778 reversed $272 $-1 #
coedge $-1 $437 $432 $429 $616 forward $427 $-1 #
edge $-1 $619 -8.9855069169619668 $779 -4.4921442394782503 $615 $780 forward 7 unknown #
coedge $-1 $431 $430 $622 $781 reversed $172 $-1 #
edge $-1 $782 1.7754109250068268e-014 $619 5.4853830094224119 $613 $783 forward 7 unknown #
vertex $-1 $433 $784 #
straight-curve $-1 -56.560746639817211 6.6493538671137919 15.385966566233488 0 1 0 I I #
coedge $-1 $777 $434 $437 $626 reversed $611 $-1 #
coedge $-1 $434 $777 $617 $781 forward $611 $-1 #
vertex $-1 $435 $785 #
straight-curve $-1 -61.054109317300941 6.2836837777027821 56.132438187049843 0 0 1 I I #
straight-curve $-1 -61.054109317300956 6.2836837777027821 12.239680087119368 -0.81915203911291934 0 -0.57357644374324357 I I #
edge $-1 $779 -20.313731690752384 $438 -6.2836837777027821 $621 $786 forward 7 unknown #
point $-1 -61.054109317300941 6.2836837777027821 15.385966566233487 #
point $-1 -56.560746639817225 6.2836837777027821 15.385966566233487 #
edge $-1 $787 1 $787 0 $441 $-1 forward 7 unknown #
vertex $-1 $442 $788 #
ellipse-curve $-1 -56.608802883584289 9.089693360312701 10.672861340023363 -0.57357644374324357 0 0.81915203911291934 0.81915203911291934 0 0.57357644374324357 1 I I #
point $-1 -57.988275939446154 9.089693360312701 14.386399770419668 #
edge $-1 $789 1 $789 0 $445 $-1 forward 7 unknown #
vertex $-1 $446 $790 #
ellipse-curve $-1 -56.608802883584289 13.298707734227584 10.672861340023363 -0.57357644374324357 0 0.81915203911291934 0.81915203911291934 0 0.57357644374324357 1 I I #
point $-1 -57.988275939446154 13.298707734227584 14.386399770419668 #
edge $-1 $791 1 $791 0 $449 $-1 forward 7 unknown #
vertex $-1 $450 $792 #
ellipse-curve $-1 -56.608802883584289 17.507722108142467 10.672861340023363 -0.57357644374324357 0 0.81915203911291934 0.81915203911291934 0 0.57357644374324357 1 I I #
point $-1 -57.988275939446154 17.507722108142467 14.386399770419668 #
plane-surface $-1 0 0 15.385966566233487 0 0 1 1 0 0 forward_v I I I I #
coedge $-1 $652 $651 $644 $793 forward $454 $-1 #
coedge $-1 $644 $456 $458 $648 reversed $301 $-1 #
coedge $-1 $456 $643 $642 $793 reversed $301 $-1 #
coedge $-1 $464 $459 $456 $646 forward $465 $-1 #
edge $-1 $649 25.567715969078556 $794 48.478887294313161 $645 $795 forward 7 unknown #
coedge $-1 $458 $457 $652 $796 reversed $191 $-1 #
edge $-1 $797 -122.10821863460187 $649 -94.78977879956831 $643 $798 forward 7 unknown #
vertex $-1 $460 $799 #
straight-curve $-1 38.142937992066337 -9.8476312960830636 15.385966566233485 0 -1 0 I I #
coedge $-1 $642 $461 $464 $656 reversed $454 $-1 #
coedge $-1 $461 $642 $647 $796 forward $454 $-1 #
vertex $-1 $462 $800 #
straight-curve $-1 61.054109317300941 -13.902141214290864 84.710374702275473 0 0 1 I I #
straight-curve $-1 -41.354459189925137 -13.902141214290864 67.012180897324853 0.83867056331134215 0 -0.54463904215088732 I I #
edge $-1 $794 -25.48838397004139 $466 -13.902141214290864 $651 $801 forward 7 unknown #
point $-1 61.054109317300941 -13.902141214290864 15.385966566233487 #
point $-1 38.142937992066337 -13.902141214290864 15.385966566233485 #
edge $-1 $802 1 $802 0 $469 $-1 forward 7 unknown #
vertex $-1 $470 $803 #
ellipse-curve $-1 48.036137462338345 -19.695262592166124 5.5407584011038971 0.54463904215088732 0 0.83867056331134215 1.2580058449670133 0 -0.81695856322633098 1 I I #
point $-1 50.856529499650641 -19.695262592166124 7.1296635506024995 #
plane-surface $-1 0 0 15.385966566233487 0 0 1 1 0 0 forward_v I I I I #
coedge $-1 $674 $673 $666 $804 forward $474 $-1 #
coedge $-1 $666 $476 $478 $670 reversed $316 $-1 #
coedge $-1 $476 $665 $664 $804 reversed $316 $-1 #
coedge $-1 $484 $479 $476 $668 forward $485 $-1 #
edge $-1 $671 25.567715969078556 $805 48.478887294313161 $667 $806 forward 7 unknown #
coedge $-1 $478 $477 $674 $807 reversed $200 $-1 #
edge $-1 $808 -122.10821863460187 $671 -94.78977879956831 $665 $809 forward 7 unknown #
vertex $-1 $480 $810 #
straight-curve $-1 38.142937992066337 -1.1879825061267617 15.385966566233485 0 -1 0 I I #
coedge $-1 $664 $481 $484 $678 reversed $474 $-1 #
coedge $-1 $481 $664 $669 $807 forward $474 $-1 #
vertex $-1 $482 $811 #
straight-curve $-1 61.054109317300941 3.4171563656217385 84.710374702275473 0 0 1 I I #
straight-curve $-1 -41.354459189925137 3.4171563656217385 67.012180897324853 0.83867056331134215 0 -0.54463904215088732 I I #
edge $-1 $805 -8.1690863901287862 $486 3.4171563656217385 $673 $812 forward 7 unknown #
point $-1 61.054109317300941 3.4171563656217385 15.385966566233487 #
point $-1 38.142937992066337 3.4171563656217385 15.385966566233485 #
edge $-1 $813 1 $813 0 $489 $-1 forward 7 unknown #
vertex $-1 $490 $814 #
ellipse-curve $-1 48.036137462338345 -2.3759650122535163 5.5407584011038971 0.54463904215088732 0 0.83867056331134215 1.2580058449670133 0 -0.81695856322633098 1 I I #
point $-1 50.856529499650641 -2.3759650122535163 7.1296635506024995 #
plane-surface $-1 0 0 15.385966566233487 0 0 1 1 0 0 forward_v I I I I #
coedge $-1 $696 $695 $688 $815 forward $494 $-1 #
coedge $-1 $688 $496 $498 $692 reversed $331 $-1 #
coedge $-1 $496 $687 $686 $815 reversed $331 $-1 #
coedge $-1 $504 $499 $496 $690 forward $505 $-1 #
edge $-1 $693 25.567715969078556 $816 48.478887294313161 $689 $817 forward 7 unknown #
coedge $-1 $498 $497 $696 $818 reversed $209 $-1 #
edge $-1 $819 -122.10821863460187 $693 -94.78977879956831 $687 $820 forward 7 unknown #
vertex $-1 $500 $821 #
straight-curve $-1 38.142937992066337 7.471666283829542 15.385966566233485 0 -1 0 I I #
coedge $-1 $686 $501 $504 $700 reversed $494 $-1 #
coedge $-1 $501 $686 $691 $818 forward $494 $-1 #
vertex $-1 $502 $822 #
straight-curve $-1 61.054109317300941 20.736453945534347 84.710374702275473 0 0 1 I I #
straight-curve $-1 -41.354459189925137 20.736453945534347 67.012180897324853 0.83867056331134215 0 -0.54463904215088732 I I #
edge $-1 $816 9.1502111897838212 $506 20.736453945534347 $695 $823 forward 7 unknown #
point $-1 61.054109317300941 20.736453945534347 15.385966566233487 #
point $-1 38.142937992066337 20.736453945534347 15.385966566233485 #
edge $-1 $824 1 $824 0 $509 $-1 forward 7 unknown #
vertex $-1 $510 $825 #
ellipse-curve $-1 48.036137462338345 14.943332567659091 5.5407584011038971 0.54463904215088732 0 0.83867056331134215 1.2580058449670133 0 -0.81695856322633098 1 I I #
point $-1 50.856529499650641 14.943332567659091 7.1296635506024995 #
plane-surface $-1 0 0 15.385966566233487 0 0 1 1 0 0 forward_v I I I I #
coedge $-1 $718 $717 $710 $826 forward $514 $-1 #
coedge $-1 $710 $516 $518 $714 reversed $346 $-1 #
coedge $-1 $516 $709 $708 $826 reversed $346 $-1 #
coedge $-1 $524 $519 $516 $712 forward $525 $-1 #
edge $-1 $715 25.567715969078556 $827 48.478887294313161 $711 $828 forward 7 unknown #
coedge $-1 $518 $517 $718 $829 reversed $218 $-1 #
edge $-1 $830 -122.10821863460187 $715 -94.78977879956831 $709 $831 forward 7 unknown #
vertex $-1 $520 $832 #
straight-curve $-1 38.142937992066337 16.131315073785846 15.385966566233485 0 -1 0 I I #
coedge $-1 $708 $521 $524 $722 reversed $514 $-1 #
coedge $-1 $521 $708 $713 $829 forward $514 $-1 #
vertex $-1 $522 $833 #
straight-curve $-1 61.054109317300941 38.055751525446951 84.710374702275473 0 0 1 I I #
straight-curve $-1 -41.354459189925137 38.055751525446951 67.012180897324853 0.83867056331134215 0 -0.54463904215088732 I I #
edge $-1 $827 26.469508769696429 $526 38.055751525446951 $717 $834 forward 7 unknown #
point $-1 61.054109317300941 38.055751525446951 15.385966566233487 #
point $-1 38.142937992066337 38.055751525446951 15.385966566233485 #
edge $-1 $835 1 $835 0 $529 $-1 forward 7 unknown #
vertex $-1 $530 $836 #
ellipse-curve $-1 48.036137462338345 32.262630147571706 5.5407584011038971 0.54463904215088732 0 0.83867056331134215 1.2580058449670133 0 -0.81695856322633098 1 I I #
point $-1 50.856529499650641 32.262630147571706 7.1296635506024995 #
plane-surface $-1 61.054109317300941 0 0 -1 0 0 0 0 1 forward_v I I I I #
coedge $-1 $538 $536 $540 $734 reversed $361 $-1 #
edge $-1 $551 -15.385966566233487 $736 15.385966566233487 $550 $837 forward 7 unknown #
vertex $-1 $734 $838 #
straight-curve $-1 -61.054109317300941 -40.307972534541086 0 0 0 -1 I I #
edge $-1 $732 -40.307972534541086 $736 40.307972534541086 $730 $839 forward 7 unknown #
straight-curve $-1 0 -40.307972534541086 -15.385966566233487 -1 0 0 I I #
vertex $-1 $543 $840 #
straight-curve $-1 0 40.307972534541086 -15.385966566233487 1 0 0 I I #
point $-1 61.054109317300941 40.307972534541086 -15.385966566233487 #
point $-1 61.054109317300941 -40.307972534541086 -15.385966566233487 #
straight-curve $-1 -61.054109317300941 0 15.385966566233487 0 -1 0 I I #
point $-1 -61.054109317300941 40.307972534541086 15.385966566233487 #
point $-1 -61.054109317300941 -40.307972534541086 15.385966566233487 #
straight-curve $-1 61.054109317300941 -40.307972534541086 0 0 0 -1 I I #
straight-curve $-1 61.054109317300941 40.307972534541086 0 0 0 -1 I I #
plane-surface $-1 61.054109317300941 0 0 -1 0 0 0 0 1 forward_v I I I I #
coedge $-1 $564 $563 $574 $756 reversed $235 $-1 #
edge $-1 $570 27.740604979135519 $841 40.307972534541086 $564 $842 forward 7 unknown #
straight-curve $-1 -61.054109317300941 -27.740604979135519 6.6623766142762149 0 0 -1 I I #
straight-curve $-1 61.054109317300941 -27.740604979135519 6.6623766142762149 0 0 1 I I #
coedge $-1 $568 $567 $755 $843 forward $561 $-1 #
edge $-1 $759 -40.307972534541086 $569 -27.740604979135519 $579 $844 forward 7 unknown #
point $-1 61.054109317300941 -27.740604979135519 15.385966566233485 #
point $-1 -61.054109317300941 -27.740604979135519 15.385966566233485 #
straight-curve $-1 -61.054109317300941 -17.012144378419151 11.263539890871375 0 -1 0 I I #
coedge $-1 $574 $573 $750 $843 reversed $380 $-1 #
edge $-1 $841 -15.385966566233487 $575 -11.263539890871375 $746 $845 forward 7 unknown #
point $-1 -61.054109317300941 -40.307972534541086 11.263539890871375 #
point $-1 -61.054109317300941 -27.740604979135519 11.263539890871375 #
vertex $-1 $751 $846 #
straight-curve $-1 61.054109317300941 -40.307972534541086 0 0 0 -1 I I #
coedge $-1 $584 $592 $585 $763 forward $399 $-1 #
edge $-1 $765 -17.377814467830159 $593 -3.3477665547805575 $584 $847 forward 7 unknown #
edge $-1 $769 -61.054109317300941 $765 -56.560746639817225 $761 $848 forward 7 unknown #
edge $-1 $590 5.5773034728431616 $769 8.7235899519572691 $589 $849 forward 7 unknown #
vertex $-1 $587 $850 #
straight-curve $-1 -40.315239634334546 -27.740604979135519 26.761193251991912 0.81915203911291934 0 0.57357644374324357 I I #
point $-1 -61.054109317300941 -27.740604979135519 12.239680087119376 #
point $-1 -56.560746639817225 -13.710557066085917 15.385966566233487 #
vertex $-1 $764 $851 #
straight-curve $-1 -61.054109317300941 0 15.385966566233487 0 -1 0 I I #
vertex $-1 $599 $852 #
point $-1 -55.789650844471367 -24.934595396525598 11.246437783766607 #
vertex $-1 $603 $853 #
point $-1 -55.789650844471367 -20.725581022610719 11.246437783766607 #
vertex $-1 $607 $854 #
point $-1 -55.789650844471367 -16.516566648695836 11.246437783766607 #
coedge $-1 $622 $621 $614 $778 forward $611 $-1 #
edge $-1 $779 40.746471620816358 $782 43.892758099930461 $777 $855 forward 7 unknown #
vertex $-1 $626 $856 #
straight-curve $-1 -65.546253556779192 20.313731690752384 15.385966566233485 -1 0 0 I I #
edge $-1 $782 -13.664377823638592 $623 0.36567008941100987 $622 $857 forward 7 unknown #
vertex $-1 $781 $858 #
straight-curve $-1 -61.054109317300956 20.313731690752384 12.239680087119368 0.81915203911291934 0 0.57357644374324357 I I #
point $-1 -56.560746639817225 20.313731690752384 15.385966566233487 #
point $-1 -61.054109317300941 6.2836837777027821 12.239680087119378 #
straight-curve $-1 -61.054109317300941 0 15.385966566233487 0 -1 0 I I #
vertex $-1 $629 $859 #
point $-1 -55.789650844471367 9.089693360312701 11.246437783766607 #
vertex $-1 $633 $860 #
point $-1 -55.789650844471367 13.298707734227584 11.246437783766607 #
vertex $-1 $637 $861 #
point $-1 -55.789650844471367 17.507722108142467 11.246437783766607 #
edge $-1 $794 69.324408136041981 $797 84.203097040851318 $642 $862 forward 7 unknown #
vertex $-1 $656 $863 #
straight-curve $-1 12.575222022987781 -25.48838397004139 15.385966566233492 1 0 0 I I #
edge $-1 $797 -15.640752673958326 $653 -4.0545099182078008 $652 $864 forward 7 unknown #
vertex $-1 $796 $865 #
straight-curve $-1 -41.354459189925137 -25.48838397004139 67.012180897324853 -0.83867056331134215 0 0.54463904215088732 I I #
point $-1 38.142937992066337 -25.48838397004139 15.385966566233485 #
point $-1 61.054109317300941 -13.902141214290864 0.50727766142415476 #
straight-curve $-1 61.054109317300941 0 15.385966566233487 0 1 0 I I #
vertex $-1 $659 $866 #
point $-1 49.294143307305355 -19.695262592166124 4.7237998378775661 #
edge $-1 $805 69.324408136041981 $808 84.203097040851318 $664 $867 forward 7 unknown #
vertex $-1 $678 $868 #
straight-curve $-1 12.575222022987781 -8.1690863901287862 15.385966566233492 1 0 0 I I #
edge $-1 $808 -6.9811038840020245 $675 4.6051388717485002 $674 $869 forward 7 unknown #
vertex $-1 $807 $870 #
straight-curve $-1 -41.354459189925137 -8.1690863901287862 67.012180897324853 -0.83867056331134215 0 0.54463904215088732 I I #
point $-1 38.142937992066337 -8.1690863901287862 15.385966566233485 #
point $-1 61.054109317300941 3.4171563656217385 0.50727766142415476 #
straight-curve $-1 61.054109317300941 0 15.385966566233487 0 1 0 I I #
vertex $-1 $681 $871 #
point $-1 49.294143307305355 -2.3759650122535163 4.7237998378775661 #
edge $-1 $816 69.324408136041981 $819 84.203097040851318 $686 $872 forward 7 unknown #
vertex $-1 $700 $873 #
straight-curve $-1 12.575222022987781 9.1502111897838212 15.385966566233492 1 0 0 I I #
edge $-1 $819 1.6785449059542792 $697 13.264787661704805 $696 $874 forward 7 unknown #
vertex $-1 $818 $875 #
straight-curve $-1 -41.354459189925137 9.1502111897838212 67.012180897324853 -0.83867056331134215 0 0.54463904215088732 I I #
point $-1 38.142937992066337 9.1502111897838212 15.385966566233485 #
point $-1 61.054109317300941 20.736453945534347 0.50727766142415476 #
straight-curve $-1 61.054109317300941 0 15.385966566233487 0 1 0 I I #
vertex $-1 $703 $876 #
point $-1 49.294143307305355 14.943332567659091 4.7237998378775661 #
edge $-1 $827 69.324408136041981 $830 84.203097040851318 $708 $877 forward 7 unknown #
vertex $-1 $722 $878 #
straight-curve $-1 12.575222022987781 26.469508769696429 15.385966566233492 1 0 0 I I #
edge $-1 $830 10.338193695910583 $719 21.924436451661105 $718 $879 forward 7 unknown #
vertex $-1 $829 $880 #
straight-curve $-1 -41.354459189925137 26.469508769696429 67.012180897324853 -0.83867056331134215 0 0.54463904215088732 I I #
point $-1 38.142937992066337 26.469508769696429 15.385966566233485 #
point $-1 61.054109317300941 38.055751525446951 0.50727766142415476 #
straight-curve $-1 61.054109317300941 0 15.385966566233487 0 1 0 I I #
vertex $-1 $725 $881 #
point $-1 49.294143307305355 32.262630147571706 4.7237998378775661 #
straight-curve $-1 -61.054109317300941 40.307972534541086 0 0 0 -1 I I #
point $-1 -61.054109317300941 -40.307972534541086 -15.385966566233487 #
straight-curve $-1 -61.054109317300941 0 -15.385966566233487 0 1 0 I I #
point $-1 -61.054109317300941 40.307972534541086 -15.385966566233487 #
vertex $-1 $747 $882 #
straight-curve $-1 -61.054109317300941 0 15.385966566233487 0 -1 0 I I #
edge $-1 $841 -61.054109317300941 $759 61.054109317300941 $755 $883 forward 7 unknown #
straight-curve $-1 61.054109317300941 0 15.385966566233487 0 1 0 I I #
straight-curve $-1 -61.054109317300941 -40.307972534541086 0 0 0 -1 I I #
point $-1 61.054109317300941 -40.307972534541086 15.385966566233487 #
straight-curve $-1 -56.560746639817211 -10.362790511305359 15.385966566233488 0 1 0 I I #
straight-curve $-1 0 -27.740604979135519 15.385966566233487 1 0 0 I I #
straight-curve $-1 -61.054109317300941 -27.740604979135519 6.6623766142762149 0 0 1 I I #
point $-1 -56.560746639817225 -27.740604979135519 15.385966566233487 #
point $-1 -61.054109317300941 -27.740604979135519 15.385966566233485 #
point $-1 -56.03522643984104 -24.934595396525598 9.8537093009104453 #
point $-1 -56.03522643984104 -20.725581022610719 9.8537093009104453 #
point $-1 -56.03522643984104 -16.516566648695836 9.8537093009104453 #
straight-curve $-1 -61.054109317300941 20.313731690752384 56.132438187049843 0 0 -1 I I #
point $-1 -61.054109317300941 20.313731690752384 15.385966566233487 #
straight-curve $-1 -61.054109317300941 6.6493538671137919 12.239680087119376 0 -1 0 I I #
point $-1 -61.054109317300941 20.313731690752384 12.239680087119378 #
point $-1 -56.03522643984104 9.089693360312701 9.8537093009104453 #
point $-1 -56.03522643984104 13.298707734227584 9.8537093009104453 #
point $-1 -56.03522643984104 17.507722108142467 9.8537093009104453 #
straight-curve $-1 61.054109317300941 -25.48838397004139 84.710374702275473 0 0 -1 I I #
point $-1 61.054109317300941 -25.48838397004139 15.385966566233487 #
straight-curve $-1 61.054109317300941 -9.8476312960830636 0.50727766142416897 0 1 0 I I #
point $-1 61.054109317300941 -25.48838397004139 0.50727766142415476 #
point $-1 47.219178899112009 -19.695262592166124 4.2827525561368844 #
straight-curve $-1 61.054109317300941 -8.1690863901287862 84.710374702275473 0 0 -1 I I #
point $-1 61.054109317300941 -8.1690863901287862 15.385966566233487 #
straight-curve $-1 61.054109317300941 -1.1879825061267617 0.50727766142416897 0 1 0 I I #
point $-1 61.054109317300941 -8.1690863901287862 0.50727766142415476 #
point $-1 47.219178899112009 -2.3759650122535163 4.2827525561368844 #
straight-curve $-1 61.054109317300941 9.1502111897838212 84.710374702275473 0 0 -1 I I #
point $-1 61.054109317300941 9.1502111897838212 15.385966566233487 #
straight-curve $-1 61.054109317300941 7.471666283829542 0.50727766142416897 0 1 0 I I #
point $-1 61.054109317300941 9.1502111897838212 0.50727766142415476 #
point $-1 47.219178899112009 14.943332567659091 4.2827525561368844 #
straight-curve $-1 61.054109317300941 26.469508769696429 84.710374702275473 0 0 -1 I I #
point $-1 61.054109317300941 26.469508769696429 15.385966566233487 #
straight-curve $-1 61.054109317300941 16.131315073785846 0.50727766142416897 0 1 0 I I #
point $-1 61.054109317300941 26.469508769696429 0.50727766142415476 #
point $-1 47.219178899112009 32.262630147571706 4.2827525561368844 #
point $-1 -61.054109317300941 -40.307972534541086 15.385966566233487 #
straight-curve $-1 0 -40.307972534541086 15.385966566233487 1 0 0 I I #
End-of-ACIS-data 