500 0 19 0           
7 Unknown 11 ACIS 5.0 NT 24 Fri Mar 26 15:37:58 1999 
-1 9.9999999999999995e-007 1e-010 
body $-1 $19 $-1 $20 #
body $-1 $21 $-1 $22 #
body $-1 $23 $-1 $24 #
body $-1 $25 $-1 $26 #
body $-1 $27 $-1 $28 #
body $-1 $29 $-1 $30 #
body $-1 $31 $-1 $32 #
body $-1 $33 $-1 $34 #
body $-1 $35 $-1 $36 #
body $-1 $37 $-1 $38 #
body $-1 $39 $-1 $40 #
body $-1 $41 $-1 $42 #
body $-1 $43 $-1 $44 #
body $-1 $45 $-1 $46 #
body $-1 $47 $-1 $48 #
body $-1 $49 $-1 $50 #
body $-1 $51 $-1 $52 #
body $-1 $53 $-1 $54 #
body $-1 $55 $-1 $56 #
lump $-1 $-1 $57 $0 #
transform $-1 1 0 0 0 1 0 0 0 1 48.021485030671101 23.595993522028873 8.7151863643407843 1 rotate no_reflect no_shear #
lump $-1 $-1 $58 $1 #
transform $-1 1 0 0 0 1 0 0 0 1 48.021485030671101 23.595993522028873 8.7151863643407843 1 rotate no_reflect no_shear #
lump $-1 $-1 $59 $2 #
transform $-1 1 0 0 0 1 0 0 0 1 48.021485030671101 23.595993522028873 8.7151863643407843 1 rotate no_reflect no_shear #
lump $-1 $-1 $60 $3 #
transform $-1 1 0 0 0 1 0 0 0 1 48.021485030671101 23.595993522028873 8.7151863643407843 1 rotate no_reflect no_shear #
lump $-1 $-1 $61 $4 #
transform $-1 1 0 0 0 1 0 0 0 1 48.021485030671101 23.595993522028873 8.7151863643407843 1 rotate no_reflect no_shear #
lump $-1 $-1 $62 $5 #
transform $-1 1 0 0 0 1 0 0 0 1 48.021485030671101 23.595993522028873 8.7151863643407843 1 rotate no_reflect no_shear #
lump $-1 $-1 $63 $6 #
transform $-1 1 0 0 0 1 0 0 0 1 48.021485030671101 23.595993522028873 8.7151863643407843 1 rotate no_reflect no_shear #
lump $-1 $-1 $64 $7 #
transform $-1 1 0 0 0 1 0 0 0 1 48.021485030671101 23.595993522028873 8.7151863643407843 1 rotate no_reflect no_shear #
lump $-1 $-1 $65 $8 #
transform $-1 1 0 0 0 1 0 0 0 1 48.021485030671101 23.595993522028873 8.7151863643407843 1 rotate no_reflect no_shear #
lump $-1 $-1 $66 $9 #
transform $-1 1 0 0 0 1 0 0 0 1 48.021485030671101 23.595993522028873 8.7151863643407843 1 rotate no_reflect no_shear #
lump $-1 $-1 $67 $10 #
transform $-1 1 0 0 0 1 0 0 0 1 48.021485030671101 23.595993522028873 8.7151863643407843 1 rotate no_reflect no_shear #
lump $-1 $-1 $68 $11 #
transform $-1 1 0 0 0 1 0 0 0 1 48.021485030671101 23.595993522028873 8.7151863643407843 1 rotate no_reflect no_shear #
lump $-1 $-1 $69 $12 #
transform $-1 1 0 0 0 1 0 0 0 1 48.021485030671101 23.595993522028873 8.7151863643407843 1 rotate no_reflect no_shear #
lump $-1 $-1 $70 $13 #
transform $-1 1 0 0 0 1 0 0 0 1 48.021485030671101 23.595993522028873 8.7151863643407843 1 rotate no_reflect no_shear #
lump $-1 $-1 $71 $14 #
transform $-1 1 0 0 0 1 0 0 0 1 48.021485030671101 23.595993522028873 8.7151863643407843 1 rotate no_reflect no_shear #
lump $-1 $-1 $72 $15 #
transform $-1 1 0 0 0 1 0 0 0 1 48.021485030671101 23.595993522028873 8.7151863643407843 1 rotate no_reflect no_shear #
lump $-1 $-1 $73 $16 #
transform $-1 1 0 0 0 1 0 0 0 1 48.021485030671101 23.595993522028873 8.7151863643407843 1 rotate no_reflect no_shear #
lump $-1 $-1 $74 $17 #
transform $-1 1 0 0 0 1 0 0 0 1 48.021485030671101 23.595993522028873 8.7151863643407843 1 rotate no_reflect no_shear #
lump $-1 $-1 $75 $18 #
transform $-1 1 0 0 0 1 0 0 0 1 48.021485030671101 23.595993522028873 8.7151863643407843 1 rotate no_reflect no_shear #
shell $-1 $-1 $-1 $76 $-1 $19 #
shell $-1 $-1 $-1 $77 $-1 $21 #
shell $-1 $-1 $-1 $78 $-1 $23 #
shell $-1 $-1 $-1 $79 $-1 $25 #
shell $-1 $-1 $-1 $80 $-1 $27 #
shell $-1 $-1 $-1 $81 $-1 $29 #
shell $-1 $-1 $-1 $82 $-1 $31 #
shell $-1 $-1 $-1 $83 $-1 $33 #
shell $-1 $-1 $-1 $84 $-1 $35 #
shell $-1 $-1 $-1 $85 $-1 $37 #
shell $-1 $-1 $-1 $86 $-1 $39 #
shell $-1 $-1 $-1 $87 $-1 $41 #
shell $-1 $-1 $-1 $88 $-1 $43 #
shell $-1 $-1 $-1 $89 $-1 $45 #
shell $-1 $-1 $-1 $90 $-1 $47 #
shell $-1 $-1 $-1 $91 $-1 $49 #
shell $-1 $-1 $-1 $92 $-1 $51 #
shell $-1 $-1 $-1 $93 $-1 $53 #
shell $-1 $-1 $-1 $94 $-1 $55 #
face $-1 $95 $96 $57 $-1 $97 forward single #
face $-1 $98 $99 $58 $-1 $100 forward single #
face $-1 $101 $102 $59 $-1 $103 forward single #
face $-1 $104 $105 $60 $-1 $106 reversed single #
face $-1 $107 $108 $61 $-1 $109 forward single #
face $-1 $110 $111 $62 $-1 $112 forward single #
face $-1 $113 $114 $63 $-1 $115 forward single #
face $-1 $116 $117 $64 $-1 $118 reversed single #
face $-1 $119 $120 $65 $-1 $121 forward single #
face $-1 $122 $123 $66 $-1 $124 forward single #
face $-1 $125 $126 $67 $-1 $127 forward single #
face $-1 $128 $129 $68 $-1 $130 reversed single #
face $-1 $131 $132 $69 $-1 $133 forward single #
face $-1 $134 $135 $70 $-1 $136 forward single #
face $-1 $137 $138 $71 $-1 $139 forward single #
face $-1 $140 $141 $72 $-1 $142 reversed single #
face $-1 $143 $144 $73 $-1 $145 forward single #
face $-1 $146 $147 $74 $-1 $148 forward single #
face $-1 $149 $150 $75 $-1 $151 forward single #
face $-1 $152 $153 $57 $-1 $154 reversed single #
loop $-1 $-1 $155 $76 #
plane-surface $-1 0 0 8.7151863643407843 0 0 1 1 0 0 forward_v I I I I #
face $-1 $156 $157 $58 $-1 $158 reversed single #
loop $-1 $-1 $159 $77 #
plane-surface $-1 0 -20.054585641802447 -3.7538402716764376 0 0 1 1 0 0 forward_v I I I I #
face $-1 $160 $161 $59 $-1 $162 reversed single #
loop $-1 $-1 $163 $78 #
plane-surface $-1 0 20.054585641802451 -3.7538402716764376 0 0 1 1 0 0 forward_v I I I I #
face $-1 $164 $165 $60 $-1 $166 reversed single #
loop $-1 $-1 $167 $79 #
plane-surface $-1 -131.1971377015974 -8.9499491777872393 53.040738421102091 0 -1 0 0.86602541151947299 0 -0.49999998660252726 forward_v I I I I #
face $-1 $168 $169 $61 $-1 $170 forward single #
loop $-1 $171 $172 $80 #
cone-surface $-1 -46.214883761521975 -15.000532044818268 6.4401673994702895 0.86602541151947299 0 -0.49999998660252726 0.24999999330126363 0 0.43301270575973649 1 I I 0 1 0.5 forward I I I I #
face $-1 $173 $174 $62 $-1 $175 forward single #
loop $-1 $176 $177 $81 #
cone-surface $-1 -46.214883761521975 -12.731563469681632 6.4401673994702895 0.86602541151947299 0 -0.49999998660252726 0.24999999330126363 0 0.43301270575973649 1 I I 0 1 0.5 forward I I I I #
face $-1 $178 $179 $63 $-1 $180 forward single #
loop $-1 $181 $182 $82 #
cone-surface $-1 -46.214883761521975 -10.462594894544996 6.4401673994702895 0.86602541151947299 0 -0.49999998660252726 0.24999999330126363 0 0.43301270575973649 1 I I 0 1 0.5 forward I I I I #
face $-1 $183 $184 $64 $-1 $185 reversed single #
loop $-1 $-1 $186 $83 #
plane-surface $-1 -131.1971377015974 16.513177761576028 53.040738421102091 0 -1 0 0.86602541151947299 0 -0.49999998660252726 forward_v I I I I #
face $-1 $187 $188 $65 $-1 $189 forward single #
loop $-1 $190 $191 $84 #
cone-surface $-1 -46.214883761521975 10.462594894544996 6.4401673994702895 0.86602541151947299 0 -0.49999998660252726 0.24999999330126363 0 0.43301270575973649 1 I I 0 1 0.5 forward I I I I #
face $-1 $192 $193 $66 $-1 $194 forward single #
loop $-1 $195 $196 $85 #
cone-surface $-1 -46.214883761521975 12.731563469681635 6.4401673994702895 0.86602541151947299 0 -0.49999998660252726 0.24999999330126363 0 0.43301270575973649 1 I I 0 1 0.5 forward I I I I #
face $-1 $197 $198 $67 $-1 $199 forward single #
loop $-1 $200 $201 $86 #
cone-surface $-1 -46.214883761521975 15.000532044818268 6.4401673994702895 0.86602541151947299 0 -0.49999998660252726 0.24999999330126363 0 0.43301270575973649 1 I I 0 1 0.5 forward I I I I #
face $-1 $202 $203 $68 $-1 $204 reversed single #
loop $-1 $-1 $205 $87 #
plane-surface $-1 83.175653957659392 -16.513177761576024 136.2163910920284 0 1 0 0.86602541151947299 0 0.49999998660252726 forward_v I I I I #
face $-1 $206 $207 $69 $-1 $208 forward single #
loop $-1 $209 $210 $88 #
cone-surface $-1 46.214883761521982 -15.000532044818268 6.4401673994703001 -0.86602541151947299 0 -0.49999998660252726 0.24999999330126363 0 -0.43301270575973649 1 I I 0 1 0.5 forward I I I I #
face $-1 $211 $212 $70 $-1 $213 forward single #
loop $-1 $214 $215 $89 #
cone-surface $-1 46.214883761521982 -12.731563469681632 6.4401673994703001 -0.86602541151947299 0 -0.49999998660252726 0.24999999330126363 0 -0.43301270575973649 1 I I 0 1 0.5 forward I I I I #
face $-1 $216 $217 $71 $-1 $218 forward single #
loop $-1 $219 $220 $90 #
cone-surface $-1 46.214883761521982 -10.462594894544996 6.4401673994703001 -0.86602541151947299 0 -0.49999998660252726 0.24999999330126363 0 -0.43301270575973649 1 I I 0 1 0.5 forward I I I I #
face $-1 $221 $222 $72 $-1 $223 reversed single #
loop $-1 $-1 $224 $91 #
plane-surface $-1 83.175653957659392 8.9499491777872429 136.2163910920284 0 1 0 0.86602541151947299 0 0.49999998660252726 forward_v I I I I #
face $-1 $225 $226 $73 $-1 $227 forward single #
loop $-1 $228 $229 $92 #
cone-surface $-1 46.214883761521982 10.462594894544996 6.4401673994703001 -0.86602541151947299 0 -0.49999998660252726 0.24999999330126363 0 -0.43301270575973649 1 I I 0 1 0.5 forward I I I I #
face $-1 $230 $231 $74 $-1 $232 forward single #
loop $-1 $233 $234 $93 #
cone-surface $-1 46.214883761521982 12.731563469681635 6.4401673994703001 -0.86602541151947299 0 -0.49999998660252726 0.24999999330126363 0 -0.43301270575973649 1 I I 0 1 0.5 forward I I I I #
face $-1 $235 $236 $75 $-1 $237 forward single #
loop $-1 $238 $239 $94 #
cone-surface $-1 46.214883761521982 15.000532044818268 6.4401673994703001 -0.86602541151947299 0 -0.49999998660252726 0.24999999330126363 0 -0.43301270575973649 1 I I 0 1 0.5 forward I I I I #
face $-1 $240 $241 $57 $-1 $242 reversed single #
loop $-1 $-1 $243 $95 #
plane-surface $-1 0 0 -8.7151863643407843 0 0 1 1 0 0 forward_v I I I I #
coedge $-1 $244 $245 $246 $247 forward $96 $-1 #
face $-1 $248 $249 $58 $-1 $250 reversed single #
loop $-1 $-1 $251 $98 #
plane-surface $-1 0 -20.054585641802447 -7.3661463139951699 0 0 1 1 0 0 forward_v I I I I #
coedge $-1 $252 $253 $254 $255 reversed $99 $-1 #
face $-1 $256 $257 $59 $-1 $258 reversed single #
loop $-1 $-1 $259 $101 #
plane-surface $-1 0 20.054585641802451 -7.3661463139951699 0 0 1 1 0 0 forward_v I I I I #
coedge $-1 $260 $261 $262 $263 reversed $102 $-1 #
face $-1 $264 $265 $60 $-1 $266 reversed single #
loop $-1 $-1 $267 $104 #
plane-surface $-1 -48.021485030671087 -12.731563469681632 5.0192546771640636 -0.86602541151947299 0 0.49999998660252726 0.49999998660252726 0 0.86602541151947299 forward_v I I I I #
coedge $-1 $268 $269 $270 $271 reversed $105 $-1 #
face $-1 $-1 $272 $61 $-1 $273 forward single #
loop $-1 $274 $275 $107 #
cone-surface $-1 -45.258699678624417 -15.000532044818268 5.8881142815375256 0.86602541151947299 0 -0.49999998660252726 0.12499999665063181 0 0.21650635287986825 1 I I -0.70710678118654746 0.70710678118654746 0.25 forward I I I I #
loop $-1 $-1 $276 $80 #
coedge $-1 $172 $172 $277 $278 reversed $108 $-1 #
face $-1 $-1 $279 $62 $-1 $280 forward single #
loop $-1 $281 $282 $110 #
cone-surface $-1 -45.258699678624417 -12.731563469681632 5.8881142815375256 0.86602541151947299 0 -0.49999998660252726 0.12499999665063181 0 0.21650635287986825 1 I I -0.70710678118654746 0.70710678118654746 0.25 forward I I I I #
loop $-1 $-1 $283 $81 #
coedge $-1 $177 $177 $284 $285 reversed $111 $-1 #
face $-1 $-1 $286 $63 $-1 $287 forward single #
loop $-1 $288 $289 $113 #
cone-surface $-1 -45.258699678624417 -10.462594894544996 5.8881142815375256 0.86602541151947299 0 -0.49999998660252726 0.12499999665063181 0 0.21650635287986825 1 I I -0.70710678118654746 0.70710678118654746 0.25 forward I I I I #
loop $-1 $-1 $290 $82 #
coedge $-1 $182 $182 $291 $292 reversed $114 $-1 #
face $-1 $293 $294 $64 $-1 $295 reversed single #
loop $-1 $-1 $296 $116 #
plane-surface $-1 -48.021485030671087 12.731563469681635 5.0192546771640636 -0.86602541151947299 0 0.49999998660252726 0.49999998660252726 0 0.86602541151947299 forward_v I I I I #
coedge $-1 $297 $298 $299 $300 reversed $117 $-1 #
face $-1 $-1 $301 $65 $-1 $302 forward single #
loop $-1 $303 $304 $119 #
cone-surface $-1 -45.258699678624417 10.462594894544996 5.8881142815375256 0.86602541151947299 0 -0.49999998660252726 0.12499999665063181 0 0.21650635287986825 1 I I -0.70710678118654746 0.70710678118654746 0.25 forward I I I I #
loop $-1 $-1 $305 $84 #
coedge $-1 $191 $191 $306 $307 reversed $120 $-1 #
face $-1 $-1 $308 $66 $-1 $309 forward single #
loop $-1 $310 $311 $122 #
cone-surface $-1 -45.258699678624417 12.731563469681635 5.8881142815375256 0.86602541151947299 0 -0.49999998660252726 0.12499999665063181 0 0.21650635287986825 1 I I -0.70710678118654746 0.70710678118654746 0.25 forward I I I I #
loop $-1 $-1 $312 $85 #
coedge $-1 $196 $196 $313 $314 reversed $123 $-1 #
face $-1 $-1 $315 $67 $-1 $316 forward single #
loop $-1 $317 $318 $125 #
cone-surface $-1 -45.258699678624417 15.000532044818268 5.8881142815375256 0.86602541151947299 0 -0.49999998660252726 0.12499999665063181 0 0.21650635287986825 1 I I -0.70710678118654746 0.70710678118654746 0.25 forward I I I I #
loop $-1 $-1 $319 $86 #
coedge $-1 $201 $201 $320 $321 reversed $126 $-1 #
face $-1 $322 $323 $68 $-1 $324 reversed single #
loop $-1 $-1 $325 $128 #
plane-surface $-1 1.2867330809740452e-006 -12.731563469681632 88.194907348090368 0.86602541151947299 0 0.49999998660252726 0.49999998660252726 0 -0.86602541151947299 forward_v I I I I #
coedge $-1 $326 $327 $328 $329 reversed $129 $-1 #
face $-1 $-1 $330 $69 $-1 $331 forward single #
loop $-1 $332 $333 $131 #
cone-surface $-1 45.258699678624424 -15.000532044818268 5.8881142815375362 -0.86602541151947299 0 -0.49999998660252726 0.12499999665063181 0 -0.21650635287986825 1 I I -0.70710678118654746 0.70710678118654746 0.25 forward I I I I #
loop $-1 $-1 $334 $88 #
coedge $-1 $210 $210 $335 $336 reversed $132 $-1 #
face $-1 $-1 $337 $70 $-1 $338 forward single #
loop $-1 $339 $340 $134 #
cone-surface $-1 45.258699678624424 -12.731563469681632 5.8881142815375362 -0.86602541151947299 0 -0.49999998660252726 0.12499999665063181 0 -0.21650635287986825 1 I I -0.70710678118654746 0.70710678118654746 0.25 forward I I I I #
loop $-1 $-1 $341 $89 #
coedge $-1 $215 $215 $342 $343 reversed $135 $-1 #
face $-1 $-1 $344 $71 $-1 $345 forward single #
loop $-1 $346 $347 $137 #
cone-surface $-1 45.258699678624424 -10.462594894544996 5.8881142815375362 -0.86602541151947299 0 -0.49999998660252726 0.12499999665063181 0 -0.21650635287986825 1 I I -0.70710678118654746 0.70710678118654746 0.25 forward I I I I #
loop $-1 $-1 $348 $90 #
coedge $-1 $220 $220 $349 $350 reversed $138 $-1 #
face $-1 $351 $352 $72 $-1 $353 reversed single #
loop $-1 $-1 $354 $140 #
plane-surface $-1 1.2867330809740452e-006 12.731563469681635 88.194907348090368 0.86602541151947299 0 0.49999998660252726 0.49999998660252726 0 -0.86602541151947299 forward_v I I I I #
coedge $-1 $355 $356 $357 $358 reversed $141 $-1 #
face $-1 $-1 $359 $73 $-1 $360 forward single #
loop $-1 $361 $362 $143 #
cone-surface $-1 45.258699678624424 10.462594894544996 5.8881142815375362 -0.86602541151947299 0 -0.49999998660252726 0.12499999665063181 0 -0.21650635287986825 1 I I -0.70710678118654746 0.70710678118654746 0.25 forward I I I I #
loop $-1 $-1 $363 $92 #
coedge $-1 $229 $229 $364 $365 reversed $144 $-1 #
face $-1 $-1 $366 $74 $-1 $367 forward single #
loop $-1 $368 $369 $146 #
cone-surface $-1 45.258699678624424 12.731563469681635 5.8881142815375362 -0.86602541151947299 0 -0.49999998660252726 0.12499999665063181 0 -0.21650635287986825 1 I I -0.70710678118654746 0.70710678118654746 0.25 forward I I I I #
loop $-1 $-1 $370 $93 #
coedge $-1 $234 $234 $371 $372 reversed $147 $-1 #
face $-1 $-1 $373 $75 $-1 $374 forward single #
loop $-1 $375 $376 $149 #
cone-surface $-1 45.258699678624424 15.000532044818268 5.8881142815375362 -0.86602541151947299 0 -0.49999998660252726 0.12499999665063181 0 -0.21650635287986825 1 I I -0.70710678118654746 0.70710678118654746 0.25 forward I I I I #
loop $-1 $-1 $377 $94 #
coedge $-1 $239 $239 $378 $379 reversed $150 $-1 #
face $-1 $380 $381 $57 $-1 $382 reversed single #
loop $-1 $-1 $383 $152 #
plane-surface $-1 0 -23.595993522028873 0 0 1 0 0 0 1 forward_v I I I I #
coedge $-1 $384 $385 $386 $387 forward $153 $-1 #
coedge $-1 $388 $155 $389 $390 forward $96 $-1 #
coedge $-1 $155 $388 $391 $392 forward $96 $-1 #
coedge $-1 $393 $394 $155 $247 reversed $395 $-1 #
edge $-1 $396 -23.595993522028873 $397 23.595993522028873 $246 $398 forward 7 unknown #
face $-1 $399 $400 $58 $-1 $401 reversed single #
loop $-1 $-1 $402 $156 #
plane-surface $-1 0 -16.513177761576024 -5.559993292835804 0 -1 0 0 0 -1 forward_v I I I I #
coedge $-1 $403 $404 $405 $406 reversed $157 $-1 #
coedge $-1 $407 $159 $408 $409 forward $99 $-1 #
coedge $-1 $159 $407 $410 $411 reversed $99 $-1 #
coedge $-1 $412 $413 $159 $255 forward $414 $-1 #
edge $-1 $415 6.4858849406748007 $416 13.568700701127646 $254 $417 forward 7 unknown #
face $-1 $418 $419 $59 $-1 $420 reversed single #
loop $-1 $-1 $421 $160 #
plane-surface $-1 0 16.513177761576024 -5.559993292835804 0 1 0 0 0 1 forward_v I I I I #
coedge $-1 $422 $423 $424 $425 reversed $161 $-1 #
coedge $-1 $426 $163 $427 $428 reversed $102 $-1 #
coedge $-1 $163 $426 $429 $430 forward $102 $-1 #
coedge $-1 $431 $432 $163 $263 forward $419 $-1 #
edge $-1 $433 -13.568700701127652 $434 -6.4858849406747989 $262 $435 forward 7 unknown #
face $-1 $436 $437 $60 $-1 $438 reversed single #
loop $-1 $-1 $439 $164 #
plane-surface $-1 -131.1971377015974 -16.513177761576024 53.040738421102091 0 1 0 -0.86602541151947299 0 0.49999998660252726 forward_v I I I I #
coedge $-1 $440 $441 $442 $443 reversed $165 $-1 #
coedge $-1 $269 $167 $444 $445 reversed $105 $-1 #
coedge $-1 $167 $268 $440 $446 reversed $105 $-1 #
coedge $-1 $442 $447 $167 $271 forward $437 $-1 #
edge $-1 $448 17.805182846210261 $449 21.501114533387007 $270 $450 forward 7 unknown #
loop $-1 $-1 $277 $168 #
plane-surface $-1 -48.021485030671087 -12.731563469681632 5.0192546771640636 -0.86602541151947299 0 0.49999998660252726 0.49999998660252726 0 0.86602541151947299 forward_v I I I I #
loop $-1 $-1 $451 $107 #
coedge $-1 $275 $275 $276 $452 reversed $169 $-1 #
coedge $-1 $276 $276 $275 $452 forward $171 $-1 #
coedge $-1 $277 $277 $172 $278 forward $272 $-1 #
edge $-1 $453 0 $453 6.2831853071796004 $277 $454 forward 7 unknown #
loop $-1 $-1 $284 $173 #
plane-surface $-1 -48.021485030671087 -12.731563469681632 5.0192546771640636 -0.86602541151947299 0 0.49999998660252726 0.49999998660252726 0 0.86602541151947299 forward_v I I I I #
loop $-1 $-1 $455 $110 #
coedge $-1 $282 $282 $283 $456 reversed $174 $-1 #
coedge $-1 $283 $283 $282 $456 forward $176 $-1 #
coedge $-1 $284 $284 $177 $285 forward $279 $-1 #
edge $-1 $457 0 $457 6.2831853071796004 $284 $458 forward 7 unknown #
loop $-1 $-1 $291 $178 #
plane-surface $-1 -48.021485030671087 -12.731563469681632 5.0192546771640636 -0.86602541151947299 0 0.49999998660252726 0.49999998660252726 0 0.86602541151947299 forward_v I I I I #
loop $-1 $-1 $459 $113 #
coedge $-1 $289 $289 $290 $460 reversed $179 $-1 #
coedge $-1 $290 $290 $289 $460 forward $181 $-1 #
coedge $-1 $291 $291 $182 $292 forward $286 $-1 #
edge $-1 $461 0 $461 6.2831853071796004 $291 $462 forward 7 unknown #
face $-1 $463 $464 $64 $-1 $465 forward single #
loop $-1 $-1 $466 $183 #
plane-surface $-1 -131.1971377015974 8.9499491777872429 53.040738421102091 0 1 0 -0.86602541151947299 0 0.49999998660252726 forward_v I I I I #
coedge $-1 $467 $468 $469 $470 reversed $184 $-1 #
coedge $-1 $298 $186 $471 $472 reversed $117 $-1 #
coedge $-1 $186 $297 $467 $473 reversed $117 $-1 #
coedge $-1 $469 $474 $186 $300 forward $475 $-1 #
edge $-1 $476 17.805182846210261 $477 21.501114533387007 $299 $478 forward 7 unknown #
loop $-1 $-1 $306 $187 #
plane-surface $-1 -48.021485030671087 12.731563469681635 5.0192546771640636 -0.86602541151947299 0 0.49999998660252726 0.49999998660252726 0 0.86602541151947299 forward_v I I I I #
loop $-1 $-1 $479 $119 #
coedge $-1 $304 $304 $305 $480 reversed $188 $-1 #
coedge $-1 $305 $305 $304 $480 forward $190 $-1 #
coedge $-1 $306 $306 $191 $307 forward $301 $-1 #
edge $-1 $481 0 $481 6.2831853071796004 $306 $482 forward 7 unknown #
loop $-1 $-1 $313 $192 #
plane-surface $-1 -48.021485030671087 12.731563469681635 5.0192546771640636 -0.86602541151947299 0 0.49999998660252726 0.49999998660252726 0 0.86602541151947299 forward_v I I I I #
loop $-1 $-1 $483 $122 #
coedge $-1 $311 $311 $312 $484 reversed $193 $-1 #
coedge $-1 $312 $312 $311 $484 forward $195 $-1 #
coedge $-1 $313 $313 $196 $314 forward $308 $-1 #
edge $-1 $485 0 $485 6.2831853071796004 $313 $486 forward 7 unknown #
loop $-1 $-1 $320 $197 #
plane-surface $-1 -48.021485030671087 12.731563469681635 5.0192546771640636 -0.86602541151947299 0 0.49999998660252726 0.49999998660252726 0 0.86602541151947299 forward_v I I I I #
loop $-1 $-1 $487 $125 #
coedge $-1 $318 $318 $319 $488 reversed $198 $-1 #
coedge $-1 $319 $319 $318 $488 forward $200 $-1 #
coedge $-1 $320 $320 $201 $321 forward $315 $-1 #
edge $-1 $489 0 $489 6.2831853071796004 $320 $490 forward 7 unknown #
face $-1 $491 $492 $68 $-1 $493 forward single #
loop $-1 $-1 $494 $202 #
plane-surface $-1 83.175653957659392 -8.9499491777872393 136.2163910920284 0 -1 0 -0.86602541151947299 0 -0.49999998660252726 forward_v I I I I #
coedge $-1 $495 $496 $497 $498 reversed $203 $-1 #
coedge $-1 $327 $205 $499 $500 reversed $129 $-1 #
coedge $-1 $205 $326 $495 $501 reversed $129 $-1 #
coedge $-1 $497 $502 $205 $329 forward $503 $-1 #
edge $-1 $504 59.39300918167342 $505 63.088940868850131 $328 $506 forward 7 unknown #
loop $-1 $-1 $335 $206 #
plane-surface $-1 1.2867330809740452e-006 -12.731563469681632 88.194907348090368 0.86602541151947299 0 0.49999998660252726 0.49999998660252726 0 -0.86602541151947299 forward_v I I I I #
loop $-1 $-1 $507 $131 #
coedge $-1 $333 $333 $334 $508 reversed $207 $-1 #
coedge $-1 $334 $334 $333 $508 forward $209 $-1 #
coedge $-1 $335 $335 $210 $336 forward $330 $-1 #
edge $-1 $509 0 $509 6.2831853071796004 $335 $510 forward 7 unknown #
loop $-1 $-1 $342 $211 #
plane-surface $-1 1.2867330809740452e-006 -12.731563469681632 88.194907348090368 0.86602541151947299 0 0.49999998660252726 0.49999998660252726 0 -0.86602541151947299 forward_v I I I I #
loop $-1 $-1 $511 $134 #
coedge $-1 $340 $340 $341 $512 reversed $212 $-1 #
coedge $-1 $341 $341 $340 $512 forward $214 $-1 #
coedge $-1 $342 $342 $215 $343 forward $337 $-1 #
edge $-1 $513 0 $513 6.2831853071796004 $342 $514 forward 7 unknown #
loop $-1 $-1 $349 $216 #
plane-surface $-1 1.2867330809740452e-006 -12.731563469681632 88.194907348090368 0.86602541151947299 0 0.49999998660252726 0.49999998660252726 0 -0.86602541151947299 forward_v I I I I #
loop $-1 $-1 $515 $137 #
coedge $-1 $347 $347 $348 $516 reversed $217 $-1 #
coedge $-1 $348 $348 $347 $516 forward $219 $-1 #
coedge $-1 $349 $349 $220 $350 forward $344 $-1 #
edge $-1 $517 0 $517 6.2831853071796004 $349 $518 forward 7 unknown #
face $-1 $519 $520 $72 $-1 $521 reversed single #
loop $-1 $-1 $522 $221 #
plane-surface $-1 83.175653957659392 16.513177761576028 136.2163910920284 0 -1 0 -0.86602541151947299 0 -0.49999998660252726 forward_v I I I I #
coedge $-1 $523 $524 $525 $526 reversed $222 $-1 #
coedge $-1 $356 $224 $527 $528 reversed $141 $-1 #
coedge $-1 $224 $355 $523 $529 reversed $141 $-1 #
coedge $-1 $525 $530 $224 $358 forward $520 $-1 #
edge $-1 $531 59.39300918167342 $532 63.088940868850131 $357 $533 forward 7 unknown #
loop $-1 $-1 $364 $225 #
plane-surface $-1 1.2867330809740452e-006 12.731563469681635 88.194907348090368 0.86602541151947299 0 0.49999998660252726 0.49999998660252726 0 -0.86602541151947299 forward_v I I I I #
loop $-1 $-1 $534 $143 #
coedge $-1 $362 $362 $363 $535 reversed $226 $-1 #
coedge $-1 $363 $363 $362 $535 forward $228 $-1 #
coedge $-1 $364 $364 $229 $365 forward $359 $-1 #
edge $-1 $536 0 $536 6.2831853071796004 $364 $537 forward 7 unknown #
loop $-1 $-1 $371 $230 #
plane-surface $-1 1.2867330809740452e-006 12.731563469681635 88.194907348090368 0.86602541151947299 0 0.49999998660252726 0.49999998660252726 0 -0.86602541151947299 forward_v I I I I #
loop $-1 $-1 $538 $146 #
coedge $-1 $369 $369 $370 $539 reversed $231 $-1 #
coedge $-1 $370 $370 $369 $539 forward $233 $-1 #
coedge $-1 $371 $371 $234 $372 forward $366 $-1 #
edge $-1 $540 0 $540 6.2831853071796004 $371 $541 forward 7 unknown #
loop $-1 $-1 $378 $235 #
plane-surface $-1 1.2867330809740452e-006 12.731563469681635 88.194907348090368 0.86602541151947299 0 0.49999998660252726 0.49999998660252726 0 -0.86602541151947299 forward_v I I I I #
loop $-1 $-1 $542 $149 #
coedge $-1 $376 $376 $377 $543 reversed $236 $-1 #
coedge $-1 $377 $377 $376 $543 forward $238 $-1 #
coedge $-1 $378 $378 $239 $379 forward $373 $-1 #
edge $-1 $544 0 $544 6.2831853071796004 $378 $545 forward 7 unknown #
face $-1 $546 $547 $57 $-1 $548 reversed single #
loop $-1 $-1 $549 $240 #
plane-surface $-1 -48.021485030671101 0 0 1 0 0 0 0 -1 forward_v I I I I #
coedge $-1 $550 $391 $551 $552 forward $241 $-1 #
coedge $-1 $553 $243 $550 $554 forward $153 $-1 #
coedge $-1 $243 $553 $555 $556 forward $153 $-1 #
coedge $-1 $394 $393 $243 $387 reversed $395 $-1 #
edge $-1 $557 -23.595993522028873 $558 23.595993522028873 $386 $559 forward 7 unknown #
coedge $-1 $245 $244 $560 $561 forward $96 $-1 #
coedge $-1 $562 $563 $244 $390 reversed $547 $-1 #
edge $-1 $397 -48.021485030671101 $564 48.021485030671101 $389 $565 forward 7 unknown #
coedge $-1 $383 $566 $245 $392 reversed $241 $-1 #
edge $-1 $567 -48.021485030671101 $396 48.021485030671101 $391 $568 forward 7 unknown #
coedge $-1 $386 $246 $566 $569 forward $395 $-1 #
coedge $-1 $246 $386 $562 $570 reversed $395 $-1 #
loop $-1 $-1 $393 $546 #
vertex $-1 $247 $571 #
vertex $-1 $247 $572 #
straight-curve $-1 48.021485030671101 0 8.7151863643407843 0 1 0 I I #
face $-1 $573 $574 $58 $-1 $575 reversed single #
loop $-1 $-1 $576 $248 #
plane-surface $-1 -48.021485030671101 0 0 1 0 0 0 0 -1 forward_v I I I I #
coedge $-1 $577 $408 $413 $578 reversed $249 $-1 #
coedge $-1 $579 $251 $580 $581 reversed $157 $-1 #
coedge $-1 $251 $579 $577 $582 forward $157 $-1 #
coedge $-1 $413 $412 $251 $406 forward $414 $-1 #
edge $-1 $583 -13.568700701127646 $584 -6.4858849406748007 $405 $585 forward 7 unknown #
coedge $-1 $253 $252 $576 $586 reversed $99 $-1 #
coedge $-1 $402 $587 $252 $409 reversed $249 $-1 #
edge $-1 $415 -48.021485030671101 $588 48.021485030671101 $408 $589 forward 7 unknown #
coedge $-1 $590 $591 $253 $411 forward $574 $-1 #
edge $-1 $416 -48.021485030671101 $592 48.021485030671101 $410 $593 forward 7 unknown #
coedge $-1 $405 $254 $591 $594 forward $414 $-1 #
coedge $-1 $254 $405 $402 $578 forward $414 $-1 #
loop $-1 $-1 $254 $573 #
vertex $-1 $255 $595 #
vertex $-1 $594 $596 #
straight-curve $-1 48.021485030671101 -10.027292820901224 -3.7538402716764376 0 -1 0 I I #
face $-1 $597 $598 $59 $-1 $599 reversed single #
loop $-1 $-1 $262 $256 #
plane-surface $-1 48.021485030671101 0 0 -1 0 0 0 0 1 forward_v I I I I #
coedge $-1 $600 $429 $601 $602 reversed $257 $-1 #
coedge $-1 $603 $259 $600 $604 forward $161 $-1 #
coedge $-1 $259 $603 $605 $606 reversed $161 $-1 #
coedge $-1 $432 $431 $259 $425 forward $419 $-1 #
edge $-1 $607 6.4858849406747989 $608 13.568700701127652 $424 $609 forward 7 unknown #
coedge $-1 $261 $260 $610 $611 reversed $102 $-1 #
coedge $-1 $612 $613 $260 $428 forward $614 $-1 #
edge $-1 $615 -48.021485030671101 $433 48.021485030671101 $427 $616 forward 7 unknown #
coedge $-1 $421 $617 $261 $430 reversed $257 $-1 #
edge $-1 $618 -48.021485030671101 $434 48.021485030671101 $429 $619 forward 7 unknown #
coedge $-1 $424 $262 $617 $620 forward $419 $-1 #
coedge $-1 $262 $424 $612 $621 reversed $419 $-1 #
vertex $-1 $621 $622 #
vertex $-1 $263 $623 #
straight-curve $-1 48.021485030671101 10.027292820901225 -3.7538402716764376 0 -1 0 I I #
face $-1 $-1 $624 $60 $-1 $625 forward single #
loop $-1 $-1 $270 $264 #
plane-surface $-1 -48.021485030671101 0 0 1 0 0 0 0 -1 forward_v I I I I #
coedge $-1 $626 $627 $628 $629 reversed $265 $-1 #
coedge $-1 $630 $267 $269 $446 forward $165 $-1 #
coedge $-1 $267 $630 $626 $631 forward $165 $-1 #
coedge $-1 $628 $270 $267 $443 forward $437 $-1 #
edge $-1 $449 2.5841674429464234 $632 10.147396026735208 $442 $633 forward 7 unknown #
coedge $-1 $634 $635 $268 $445 forward $624 $-1 #
edge $-1 $636 -19.710930898390473 $448 -17.577083820127598 $444 $637 forward 7 unknown #
edge $-1 $449 -2.8642609447069912e-014 $636 4.2676942708783514 $269 $638 forward 7 unknown #
coedge $-1 $270 $628 $634 $639 reversed $437 $-1 #
vertex $-1 $639 $640 #
vertex $-1 $271 $641 #
straight-curve $-1 -48.021485030671101 -8.9499491777872393 26.520369210551046 0 0 -1 I I #
coedge $-1 $451 $451 $-1 $642 reversed $274 $-1 #
edge $-1 $643 0 $643 6.2831853071796004 $275 $644 forward 7 unknown #
vertex $-1 $278 $645 #
ellipse-curve $-1 -46.954561491539664 -15.000532044818268 6.8672205207524186 -0.86602541151947299 0 0.49999998660252726 0.24999999330126363 0 0.43301270575973649 1 I I #
coedge $-1 $455 $455 $-1 $646 reversed $281 $-1 #
edge $-1 $647 0 $647 6.2831853071796004 $282 $648 forward 7 unknown #
vertex $-1 $285 $649 #
ellipse-curve $-1 -46.954561491539664 -12.731563469681632 6.8672205207524186 -0.86602541151947299 0 0.49999998660252726 0.24999999330126363 0 0.43301270575973649 1 I I #
coedge $-1 $459 $459 $-1 $650 reversed $288 $-1 #
edge $-1 $651 0 $651 6.2831853071796004 $289 $652 forward 7 unknown #
vertex $-1 $292 $653 #
ellipse-curve $-1 -46.954561491539664 -10.462594894544996 6.8672205207524186 -0.86602541151947299 0 0.49999998660252726 0.24999999330126363 0 0.43301270575973649 1 I I #
face $-1 $-1 $475 $64 $-1 $654 reversed single #
loop $-1 $-1 $655 $293 #
plane-surface $-1 0 0 8.7151863643407843 0 0 1 1 0 0 forward_v I I I I #
coedge $-1 $656 $657 $658 $659 reversed $294 $-1 #
coedge $-1 $660 $296 $298 $473 forward $184 $-1 #
coedge $-1 $296 $660 $656 $661 forward $184 $-1 #
coedge $-1 $658 $299 $296 $470 forward $475 $-1 #
edge $-1 $477 -10.14739602673521 $662 -2.5841674429464252 $469 $663 forward 7 unknown #
coedge $-1 $664 $665 $297 $472 forward $464 $-1 #
edge $-1 $666 -19.710930898390473 $476 -17.577083820127598 $471 $667 forward 7 unknown #
edge $-1 $477 -2.8642609447069912e-014 $666 4.2676942708783514 $298 $668 forward 7 unknown #
coedge $-1 $299 $658 $664 $669 reversed $475 $-1 #
loop $-1 $-1 $658 $463 #
vertex $-1 $669 $670 #
vertex $-1 $300 $671 #
straight-curve $-1 -48.021485030671101 16.513177761576028 26.520369210551046 0 0 -1 I I #
coedge $-1 $479 $479 $-1 $672 reversed $303 $-1 #
edge $-1 $673 0 $673 6.2831853071796004 $304 $674 forward 7 unknown #
vertex $-1 $307 $675 #
ellipse-curve $-1 -46.954561491539664 10.462594894544996 6.8672205207524186 -0.86602541151947299 0 0.49999998660252726 0.24999999330126363 0 0.43301270575973649 1 I I #
coedge $-1 $483 $483 $-1 $676 reversed $310 $-1 #
edge $-1 $677 0 $677 6.2831853071796004 $311 $678 forward 7 unknown #
vertex $-1 $314 $679 #
ellipse-curve $-1 -46.954561491539664 12.731563469681635 6.8672205207524186 -0.86602541151947299 0 0.49999998660252726 0.24999999330126363 0 0.43301270575973649 1 I I #
coedge $-1 $487 $487 $-1 $680 reversed $317 $-1 #
edge $-1 $681 0 $681 6.2831853071796004 $318 $682 forward 7 unknown #
vertex $-1 $321 $683 #
ellipse-curve $-1 -46.954561491539664 15.000532044818268 6.8672205207524186 -0.86602541151947299 0 0.49999998660252726 0.24999999330126363 0 0.43301270575973649 1 I I #
face $-1 $-1 $503 $68 $-1 $684 reversed single #
loop $-1 $-1 $685 $322 #
plane-surface $-1 0 0 8.7151863643407843 0 0 1 1 0 0 forward_v I I I I #
coedge $-1 $686 $687 $688 $689 reversed $323 $-1 #
coedge $-1 $690 $325 $327 $501 forward $203 $-1 #
coedge $-1 $325 $690 $686 $691 forward $203 $-1 #
coedge $-1 $688 $328 $325 $498 forward $503 $-1 #
edge $-1 $505 -10.147396026735208 $692 -2.5841674429464234 $497 $693 forward 7 unknown #
coedge $-1 $694 $695 $326 $500 forward $492 $-1 #
edge $-1 $696 4.2998109735785519 $504 6.4336580518414053 $499 $697 forward 7 unknown #
edge $-1 $505 -96.042970061342203 $696 -91.775275790463851 $327 $698 forward 7 unknown #
coedge $-1 $328 $688 $694 $699 reversed $503 $-1 #
loop $-1 $-1 $688 $491 #
vertex $-1 $699 $700 #
vertex $-1 $329 $701 #
straight-curve $-1 48.021485030671101 -16.513177761576024 68.108195546014201 0 0 -1 I I #
coedge $-1 $507 $507 $-1 $702 reversed $332 $-1 #
edge $-1 $703 0 $703 6.2831853071796004 $333 $704 forward 7 unknown #
vertex $-1 $336 $705 #
ellipse-curve $-1 46.954561491539678 -15.000532044818268 6.8672205207524346 0.86602541151947299 0 0.49999998660252726 0.24999999330126363 0 -0.43301270575973649 1 I I #
coedge $-1 $511 $511 $-1 $706 reversed $339 $-1 #
edge $-1 $707 0 $707 6.2831853071796004 $340 $708 forward 7 unknown #
vertex $-1 $343 $709 #
ellipse-curve $-1 46.954561491539678 -12.731563469681632 6.8672205207524346 0.86602541151947299 0 0.49999998660252726 0.24999999330126363 0 -0.43301270575973649 1 I I #
coedge $-1 $515 $515 $-1 $710 reversed $346 $-1 #
edge $-1 $711 0 $711 6.2831853071796004 $347 $712 forward 7 unknown #
vertex $-1 $350 $713 #
ellipse-curve $-1 46.954561491539678 -10.462594894544996 6.8672205207524346 0.86602541151947299 0 0.49999998660252726 0.24999999330126363 0 -0.43301270575973649 1 I I #
face $-1 $-1 $714 $72 $-1 $715 forward single #
loop $-1 $-1 $357 $351 #
plane-surface $-1 48.021485030671101 0 0 -1 0 0 0 0 1 forward_v I I I I #
coedge $-1 $716 $717 $718 $719 reversed $352 $-1 #
coedge $-1 $720 $354 $356 $529 forward $222 $-1 #
coedge $-1 $354 $720 $716 $721 forward $222 $-1 #
coedge $-1 $718 $357 $354 $526 forward $520 $-1 #
edge $-1 $532 2.5841674429464252 $722 10.14739602673521 $525 $723 forward 7 unknown #
coedge $-1 $724 $725 $355 $528 forward $714 $-1 #
edge $-1 $726 4.2998109735785519 $531 6.4336580518414053 $527 $727 forward 7 unknown #
edge $-1 $532 -96.042970061342203 $726 -91.775275790463851 $356 $728 forward 7 unknown #
coedge $-1 $357 $718 $724 $729 reversed $520 $-1 #
vertex $-1 $729 $730 #
vertex $-1 $358 $731 #
straight-curve $-1 48.021485030671101 8.9499491777872429 68.108195546014201 0 0 -1 I I #
coedge $-1 $534 $534 $-1 $732 reversed $361 $-1 #
edge $-1 $733 0 $733 6.2831853071796004 $362 $734 forward 7 unknown #
vertex $-1 $365 $735 #
ellipse-curve $-1 46.954561491539678 10.462594894544996 6.8672205207524346 0.86602541151947299 0 0.49999998660252726 0.24999999330126363 0 -0.43301270575973649 1 I I #
coedge $-1 $538 $538 $-1 $736 reversed $368 $-1 #
edge $-1 $737 0 $737 6.2831853071796004 $369 $738 forward 7 unknown #
vertex $-1 $372 $739 #
ellipse-curve $-1 46.954561491539678 12.731563469681635 6.8672205207524346 0.86602541151947299 0 0.49999998660252726 0.24999999330126363 0 -0.43301270575973649 1 I I #
coedge $-1 $542 $542 $-1 $740 reversed $375 $-1 #
edge $-1 $741 0 $741 6.2831853071796004 $376 $742 forward 7 unknown #
vertex $-1 $379 $743 #
ellipse-curve $-1 46.954561491539678 15.000532044818268 6.8672205207524346 0.86602541151947299 0 0.49999998660252726 0.24999999330126363 0 -0.43301270575973649 1 I I #
face $-1 $-1 $395 $57 $-1 $744 reversed single #
loop $-1 $-1 $562 $380 #
plane-surface $-1 0 23.595993522028873 0 0 -1 0 0 0 -1 forward_v I I I I #
coedge $-1 $745 $560 $563 $746 forward $381 $-1 #
coedge $-1 $566 $383 $384 $554 reversed $241 $-1 #
coedge $-1 $560 $745 $383 $552 reversed $381 $-1 #
edge $-1 $567 -8.7151863643407843 $747 8.7151863643407843 $551 $748 forward 7 unknown #
coedge $-1 $385 $384 $745 $749 forward $153 $-1 #
edge $-1 $558 -48.021485030671101 $747 48.021485030671101 $550 $750 forward 7 unknown #
coedge $-1 $563 $562 $385 $556 reversed $547 $-1 #
edge $-1 $751 -48.021485030671101 $557 48.021485030671101 $555 $752 forward 7 unknown #
vertex $-1 $387 $753 #
vertex $-1 $569 $754 #
straight-curve $-1 48.021485030671101 0 -8.7151863643407843 0 -1 0 I I #
coedge $-1 $549 $551 $388 $561 reversed $381 $-1 #
edge $-1 $564 -23.595993522028873 $567 23.595993522028873 $560 $755 forward 7 unknown #
coedge $-1 $555 $389 $394 $570 forward $547 $-1 #
coedge $-1 $389 $555 $549 $746 reversed $547 $-1 #
vertex $-1 $390 $756 #
straight-curve $-1 0 23.595993522028873 8.7151863643407843 -1 0 0 I I #
coedge $-1 $391 $550 $393 $569 reversed $241 $-1 #
vertex $-1 $561 $757 #
straight-curve $-1 0 -23.595993522028873 8.7151863643407843 1 0 0 I I #
edge $-1 $396 -8.7151863643407843 $558 8.7151863643407843 $393 $758 forward 7 unknown #
edge $-1 $397 -8.7151863643407843 $557 8.7151863643407843 $394 $759 forward 7 unknown #
point $-1 48.021485030671101 -23.595993522028873 8.7151863643407843 #
point $-1 48.021485030671101 23.595993522028873 8.7151863643407843 #
face $-1 $-1 $414 $58 $-1 $760 reversed single #
loop $-1 $-1 $410 $399 #
plane-surface $-1 0 -23.595993522028873 0 0 1 0 0 0 1 forward_v I I I I #
coedge $-1 $761 $762 $407 $586 forward $400 $-1 #
coedge $-1 $587 $402 $404 $582 reversed $249 $-1 #
edge $-1 $584 -4.5861496675772679 $415 -0.97384362525853563 $413 $763 forward 7 unknown #
coedge $-1 $404 $403 $764 $765 reversed $157 $-1 #
coedge $-1 $591 $590 $403 $581 forward $574 $-1 #
edge $-1 $766 -48.021485030671101 $583 48.021485030671101 $580 $767 forward 7 unknown #
edge $-1 $768 -48.021485030671101 $584 48.021485030671101 $577 $769 forward 7 unknown #
vertex $-1 $581 $770 #
vertex $-1 $406 $771 #
straight-curve $-1 48.021485030671101 -10.027292820901224 -7.3661463139951699 0 1 0 I I #
edge $-1 $592 -13.568700701127646 $588 -6.4858849406748007 $576 $772 forward 7 unknown #
coedge $-1 $408 $577 $761 $773 reversed $249 $-1 #
vertex $-1 $586 $774 #
straight-curve $-1 0 -16.513177761576024 -3.7538402716764376 -1 0 0 I I #
coedge $-1 $580 $410 $762 $775 forward $574 $-1 #
coedge $-1 $410 $580 $412 $594 reversed $574 $-1 #
vertex $-1 $775 $776 #
straight-curve $-1 0 -23.595993522028873 -3.7538402716764376 -1 0 0 I I #
edge $-1 $416 3.7538402716764376 $583 7.3661463139951699 $412 $777 forward 7 unknown #
point $-1 48.021485030671101 -16.513177761576024 -3.7538402716764376 #
point $-1 48.021485030671101 -23.59599352202887 -3.7538402716764376 #
face $-1 $-1 $614 $59 $-1 $778 reversed single #
loop $-1 $-1 $610 $418 #
plane-surface $-1 -48.021485030671101 0 0 1 0 0 0 0 -1 forward_v I I I I #
coedge $-1 $617 $421 $422 $604 reversed $257 $-1 #
coedge $-1 $610 $779 $421 $602 forward $598 $-1 #
edge $-1 $780 -4.5861496675772679 $618 -0.97384362525853563 $601 $781 forward 7 unknown #
coedge $-1 $423 $422 $779 $782 reversed $161 $-1 #
edge $-1 $607 -48.021485030671101 $780 48.021485030671101 $600 $783 forward 7 unknown #
coedge $-1 $613 $612 $423 $606 forward $614 $-1 #
edge $-1 $608 -48.021485030671101 $784 48.021485030671101 $605 $785 forward 7 unknown #
vertex $-1 $425 $786 #
vertex $-1 $606 $787 #
straight-curve $-1 48.021485030671101 10.027292820901225 -7.3661463139951699 0 1 0 I I #
coedge $-1 $788 $601 $426 $611 forward $598 $-1 #
edge $-1 $618 6.4858849406747989 $615 13.568700701127652 $610 $789 forward 7 unknown #
coedge $-1 $605 $427 $432 $621 forward $614 $-1 #
coedge $-1 $427 $605 $788 $790 reversed $614 $-1 #
loop $-1 $-1 $427 $597 #
vertex $-1 $790 $791 #
straight-curve $-1 0 23.595993522028873 -3.7538402716764376 1 0 0 I I #
coedge $-1 $429 $600 $431 $620 reversed $257 $-1 #
vertex $-1 $611 $792 #
straight-curve $-1 0 16.513177761576024 -3.7538402716764376 1 0 0 I I #
edge $-1 $434 0.97384362525853563 $607 4.5861496675772679 $431 $793 forward 7 unknown #
edge $-1 $433 3.7538402716764376 $608 7.3661463139951699 $432 $794 forward 7 unknown #
point $-1 48.021485030671101 23.595993522028877 -3.7538402716764376 #
point $-1 48.021485030671101 16.513177761576024 -3.7538402716764376 #
loop $-1 $-1 $444 $436 #
plane-surface $-1 0 0 8.7151863643407843 0 0 1 1 0 0 forward_v I I I I #
coedge $-1 $627 $439 $441 $631 reversed $265 $-1 #
coedge $-1 $439 $626 $795 $796 reversed $265 $-1 #
coedge $-1 $447 $442 $439 $629 forward $437 $-1 #
edge $-1 $632 -21.501114533387007 $797 -17.805182846210261 $628 $798 forward 7 unknown #
coedge $-1 $441 $440 $635 $799 reversed $165 $-1 #
edge $-1 $800 -4.2676942708783514 $632 2.8642609447069912e-014 $626 $801 forward 7 unknown #
vertex $-1 $443 $802 #
straight-curve $-1 -48.021485030671101 -6.3657817348408159 5.0192546771640387 0 -1 0 I I #
coedge $-1 $795 $444 $447 $639 forward $624 $-1 #
coedge $-1 $444 $795 $630 $799 forward $624 $-1 #
vertex $-1 $445 $803 #
straight-curve $-1 -65.598568850798699 -8.9499491777872393 8.7151863643407843 -1 0 0 I I #
straight-curve $-1 -48.021485030671087 -8.9499491777872393 5.0192546771640636 0.49999998660252726 0 0.86602541151947299 I I #
edge $-1 $448 8.9499491777872393 $797 16.513177761576024 $447 $804 forward 7 unknown #
point $-1 -48.021485030671101 -8.9499491777872393 8.7151863643407843 #
point $-1 -48.021485030671101 -8.9499491777872393 5.0192546771640387 #
edge $-1 $805 1 $805 0 $451 $-1 forward 7 unknown #
vertex $-1 $452 $806 #
ellipse-curve $-1 -45.475206031504285 -15.000532044818268 6.0131142781881577 -0.86602541151947299 0 0.49999998660252726 0.24999999330126363 0 0.43301270575973649 1 I I #
point $-1 -46.704561498238405 -15.000532044818268 7.3002332265121579 #
edge $-1 $807 1 $807 0 $455 $-1 forward 7 unknown #
vertex $-1 $456 $808 #
ellipse-curve $-1 -45.475206031504285 -12.731563469681632 6.0131142781881577 -0.86602541151947299 0 0.49999998660252726 0.24999999330126363 0 0.43301270575973649 1 I I #
point $-1 -46.704561498238405 -12.731563469681632 7.3002332265121579 #
edge $-1 $809 1 $809 0 $459 $-1 forward 7 unknown #
vertex $-1 $460 $810 #
ellipse-curve $-1 -45.475206031504285 -10.462594894544996 6.0131142781881577 -0.86602541151947299 0 0.49999998660252726 0.24999999330126363 0 0.43301270575973649 1 I I #
point $-1 -46.704561498238405 -10.462594894544996 7.3002332265121579 #
plane-surface $-1 -48.021485030671101 0 0 1 0 0 0 0 -1 forward_v I I I I #
coedge $-1 $665 $664 $657 $811 forward $464 $-1 #
coedge $-1 $657 $466 $468 $661 reversed $294 $-1 #
coedge $-1 $466 $656 $655 $811 reversed $294 $-1 #
coedge $-1 $474 $469 $466 $659 forward $475 $-1 #
edge $-1 $662 -21.501114533387007 $812 -17.805182846210261 $658 $813 forward 7 unknown #
coedge $-1 $468 $467 $665 $814 reversed $184 $-1 #
edge $-1 $815 -4.2676942708783514 $662 2.8642609447069912e-014 $656 $816 forward 7 unknown #
vertex $-1 $470 $817 #
straight-curve $-1 -48.021485030671101 6.3657817348408177 5.0192546771640387 0 -1 0 I I #
coedge $-1 $655 $471 $474 $669 forward $464 $-1 #
coedge $-1 $471 $655 $660 $814 forward $464 $-1 #
vertex $-1 $472 $818 #
straight-curve $-1 -65.598568850798699 16.513177761576028 8.7151863643407843 -1 0 0 I I #
straight-curve $-1 -48.021485030671087 16.513177761576028 5.0192546771640636 0.49999998660252726 0 0.86602541151947299 I I #
edge $-1 $476 -16.513177761576028 $812 -8.9499491777872429 $474 $819 forward 7 unknown #
point $-1 -48.021485030671101 16.513177761576028 8.7151863643407843 #
point $-1 -48.021485030671101 16.513177761576028 5.0192546771640387 #
edge $-1 $820 1 $820 0 $479 $-1 forward 7 unknown #
vertex $-1 $480 $821 #
ellipse-curve $-1 -45.475206031504285 10.462594894544996 6.0131142781881577 -0.86602541151947299 0 0.49999998660252726 0.24999999330126363 0 0.43301270575973649 1 I I #
point $-1 -46.704561498238405 10.462594894544996 7.3002332265121579 #
edge $-1 $822 1 $822 0 $483 $-1 forward 7 unknown #
vertex $-1 $484 $823 #
ellipse-curve $-1 -45.475206031504285 12.731563469681635 6.0131142781881577 -0.86602541151947299 0 0.49999998660252726 0.24999999330126363 0 0.43301270575973649 1 I I #
point $-1 -46.704561498238405 12.731563469681635 7.3002332265121579 #
edge $-1 $824 1 $824 0 $487 $-1 forward 7 unknown #
vertex $-1 $488 $825 #
ellipse-curve $-1 -45.475206031504285 15.000532044818268 6.0131142781881577 -0.86602541151947299 0 0.49999998660252726 0.24999999330126363 0 0.43301270575973649 1 I I #
point $-1 -46.704561498238405 15.000532044818268 7.3002332265121579 #
plane-surface $-1 48.021485030671101 0 0 -1 0 0 0 0 1 forward_v I I I I #
coedge $-1 $695 $694 $687 $826 forward $492 $-1 #
coedge $-1 $687 $494 $496 $691 reversed $323 $-1 #
coedge $-1 $494 $686 $685 $826 reversed $323 $-1 #
coedge $-1 $502 $497 $494 $689 forward $503 $-1 #
edge $-1 $692 -63.088940868850131 $827 -59.39300918167342 $688 $828 forward 7 unknown #
coedge $-1 $496 $495 $695 $829 reversed $203 $-1 #
edge $-1 $830 91.775275790463851 $692 96.042970061342203 $686 $831 forward 7 unknown #
vertex $-1 $498 $832 #
straight-curve $-1 48.021485030671101 -6.3657817348408159 5.0192546771640707 0 1 0 I I #
coedge $-1 $685 $499 $502 $699 forward $492 $-1 #
coedge $-1 $499 $685 $690 $829 forward $492 $-1 #
vertex $-1 $500 $833 #
straight-curve $-1 41.587826978829696 -16.513177761576024 8.7151863643407808 1 0 0 I I #
straight-curve $-1 1.2867330809740452e-006 -16.513177761576024 88.194907348090368 -0.49999998660252726 0 0.86602541151947299 I I #
edge $-1 $504 -16.513177761576024 $827 -8.9499491777872393 $502 $834 forward 7 unknown #
point $-1 48.021485030671101 -16.513177761576024 8.7151863643407843 #
point $-1 48.021485030671101 -16.513177761576024 5.0192546771640707 #
edge $-1 $835 1 $835 0 $507 $-1 forward 7 unknown #
vertex $-1 $508 $836 #
ellipse-curve $-1 45.475206031504293 -15.000532044818268 6.0131142781881683 0.86602541151947299 0 0.49999998660252726 0.24999999330126363 0 -0.43301270575973649 1 I I #
point $-1 47.204561484840937 -15.000532044818268 6.4342078149926953 #
edge $-1 $837 1 $837 0 $511 $-1 forward 7 unknown #
vertex $-1 $512 $838 #
ellipse-curve $-1 45.475206031504293 -12.731563469681632 6.0131142781881683 0.86602541151947299 0 0.49999998660252726 0.24999999330126363 0 -0.43301270575973649 1 I I #
point $-1 47.204561484840937 -12.731563469681632 6.4342078149926953 #
edge $-1 $839 1 $839 0 $515 $-1 forward 7 unknown #
vertex $-1 $516 $840 #
ellipse-curve $-1 45.475206031504293 -10.462594894544996 6.0131142781881683 0.86602541151947299 0 0.49999998660252726 0.24999999330126363 0 -0.43301270575973649 1 I I #
point $-1 47.204561484840937 -10.462594894544996 6.4342078149926953 #
loop $-1 $-1 $527 $519 #
plane-surface $-1 0 0 8.7151863643407843 0 0 1 1 0 0 forward_v I I I I #
coedge $-1 $717 $522 $524 $721 reversed $352 $-1 #
coedge $-1 $522 $716 $841 $842 reversed $352 $-1 #
coedge $-1 $530 $525 $522 $719 forward $520 $-1 #
edge $-1 $722 -63.088940868850131 $843 -59.39300918167342 $718 $844 forward 7 unknown #
coedge $-1 $524 $523 $725 $845 reversed $222 $-1 #
edge $-1 $846 91.775275790463851 $722 96.042970061342203 $716 $847 forward 7 unknown #
vertex $-1 $526 $848 #
straight-curve $-1 48.021485030671101 6.3657817348408177 5.0192546771640707 0 1 0 I I #
coedge $-1 $841 $527 $530 $729 forward $714 $-1 #
coedge $-1 $527 $841 $720 $845 forward $714 $-1 #
vertex $-1 $528 $849 #
straight-curve $-1 41.587826978829696 8.9499491777872429 8.7151863643407808 1 0 0 I I #
straight-curve $-1 1.2867330809740452e-006 8.9499491777872429 88.194907348090368 -0.49999998660252726 0 0.86602541151947299 I I #
edge $-1 $531 8.9499491777872429 $843 16.513177761576028 $530 $850 forward 7 unknown #
point $-1 48.021485030671101 8.9499491777872429 8.7151863643407843 #
point $-1 48.021485030671101 8.9499491777872429 5.0192546771640707 #
edge $-1 $851 1 $851 0 $534 $-1 forward 7 unknown #
vertex $-1 $535 $852 #
ellipse-curve $-1 45.475206031504293 10.462594894544996 6.0131142781881683 0.86602541151947299 0 0.49999998660252726 0.24999999330126363 0 -0.43301270575973649 1 I I #
point $-1 47.204561484840937 10.462594894544996 6.4342078149926953 #
edge $-1 $853 1 $853 0 $538 $-1 forward 7 unknown #
vertex $-1 $539 $854 #
ellipse-curve $-1 45.475206031504293 12.731563469681635 6.0131142781881683 0.86602541151947299 0 0.49999998660252726 0.24999999330126363 0 -0.43301270575973649 1 I I #
point $-1 47.204561484840937 12.731563469681635 6.4342078149926953 #
edge $-1 $855 1 $855 0 $542 $-1 forward 7 unknown #
vertex $-1 $543 $856 #
ellipse-curve $-1 45.475206031504293 15.000532044818268 6.0131142781881683 0.86602541151947299 0 0.49999998660252726 0.24999999330126363 0 -0.43301270575973649 1 I I #
point $-1 47.204561484840937 15.000532044818268 6.4342078149926953 #
plane-surface $-1 48.021485030671101 0 0 -1 0 0 0 0 1 forward_v I I I I #
coedge $-1 $551 $549 $553 $749 reversed $381 $-1 #
edge $-1 $564 -8.7151863643407843 $751 8.7151863643407843 $563 $857 forward 7 unknown #
vertex $-1 $749 $858 #
straight-curve $-1 -48.021485030671101 -23.595993522028873 0 0 0 -1 I I #
edge $-1 $747 -23.595993522028873 $751 23.595993522028873 $745 $859 forward 7 unknown #
straight-curve $-1 0 -23.595993522028873 -8.7151863643407843 -1 0 0 I I #
vertex $-1 $556 $860 #
straight-curve $-1 0 23.595993522028873 -8.7151863643407843 1 0 0 I I #
point $-1 48.021485030671101 23.595993522028873 -8.7151863643407843 #
point $-1 48.021485030671101 -23.595993522028873 -8.7151863643407843 #
straight-curve $-1 -48.021485030671101 0 8.7151863643407843 0 -1 0 I I #
point $-1 -48.021485030671101 23.595993522028873 8.7151863643407843 #
point $-1 -48.021485030671101 -23.595993522028873 8.7151863643407843 #
straight-curve $-1 48.021485030671101 -23.595993522028873 0 0 0 -1 I I #
straight-curve $-1 48.021485030671101 23.595993522028873 0 0 0 -1 I I #
plane-surface $-1 48.021485030671101 0 0 -1 0 0 0 0 1 forward_v I I I I #
coedge $-1 $764 $576 $587 $773 forward $400 $-1 #
coedge $-1 $576 $764 $590 $775 reversed $400 $-1 #
straight-curve $-1 48.021485030671101 -16.513177761576024 -2.779996646417902 0 0 1 I I #
coedge $-1 $762 $761 $579 $765 forward $400 $-1 #
edge $-1 $768 6.4858849406748007 $766 13.568700701127646 $764 $861 forward 7 unknown #
vertex $-1 $581 $862 #
straight-curve $-1 0 -23.595993522028873 -7.3661463139951699 1 0 0 I I #
vertex $-1 $765 $863 #
straight-curve $-1 0 -16.513177761576024 -7.3661463139951699 1 0 0 I I #
point $-1 48.021485030671101 -23.59599352202887 -7.3661463139951699 #
point $-1 48.021485030671101 -16.513177761576024 -7.3661463139951699 #
straight-curve $-1 -48.021485030671101 -10.027292820901224 -3.7538402716764376 0 1 0 I I #
edge $-1 $588 0.97384362525853563 $768 4.5861496675772679 $761 $864 forward 7 unknown #
point $-1 -48.021485030671101 -16.513177761576024 -3.7538402716764376 #
edge $-1 $592 3.7538402716764376 $766 7.3661463139951699 $762 $865 forward 7 unknown #
point $-1 -48.021485030671101 -23.59599352202887 -3.7538402716764376 #
straight-curve $-1 48.021485030671101 -23.595993522028873 0 0 0 -1 I I #
plane-surface $-1 0 23.595993522028873 0 0 -1 0 0 0 -1 forward_v I I I I #
coedge $-1 $601 $788 $603 $782 forward $598 $-1 #
vertex $-1 $782 $866 #
straight-curve $-1 -48.021485030671101 16.513177761576024 -2.779996646417902 0 0 1 I I #
edge $-1 $784 -13.568700701127652 $780 -6.4858849406747989 $779 $867 forward 7 unknown #
straight-curve $-1 0 16.513177761576024 -7.3661463139951699 -1 0 0 I I #
vertex $-1 $606 $868 #
straight-curve $-1 0 23.595993522028873 -7.3661463139951699 -1 0 0 I I #
point $-1 48.021485030671101 16.513177761576024 -7.3661463139951699 #
point $-1 48.021485030671101 23.595993522028877 -7.3661463139951699 #
coedge $-1 $779 $610 $613 $790 forward $598 $-1 #
straight-curve $-1 -48.021485030671101 10.027292820901225 -3.7538402716764376 0 1 0 I I #
edge $-1 $615 3.7538402716764376 $784 7.3661463139951699 $613 $869 forward 7 unknown #
point $-1 -48.021485030671101 23.595993522028877 -3.7538402716764376 #
point $-1 -48.021485030671101 16.513177761576024 -3.7538402716764376 #
straight-curve $-1 48.021485030671101 16.513177761576024 -2.779996646417902 0 0 -1 I I #
straight-curve $-1 48.021485030671101 23.595993522028873 0 0 0 -1 I I #
coedge $-1 $635 $634 $627 $796 forward $624 $-1 #
edge $-1 $797 17.577083820127598 $800 19.710930898390473 $795 $870 forward 7 unknown #
vertex $-1 $796 $871 #
straight-curve $-1 -48.021485030671101 -16.513177761576024 26.520369210551046 0 0 1 I I #
edge $-1 $800 -10.147396026735208 $636 -2.5841674429464234 $635 $872 forward 7 unknown #
vertex $-1 $799 $873 #
straight-curve $-1 -48.021485030671087 -16.513177761576024 5.0192546771640636 -0.49999998660252726 0 -0.86602541151947299 I I #
point $-1 -48.021485030671101 -16.513177761576024 5.0192546771640387 #
point $-1 -45.887637952408227 -8.9499491777872393 8.7151863643407843 #
straight-curve $-1 -48.021485030671101 0 8.7151863643407843 0 -1 0 I I #
vertex $-1 $642 $874 #
point $-1 -45.225206038203019 -15.000532044818268 6.4461269839478934 #
vertex $-1 $646 $875 #
point $-1 -45.225206038203019 -12.731563469681632 6.4461269839478934 #
vertex $-1 $650 $876 #
point $-1 -45.225206038203019 -10.462594894544996 6.4461269839478934 #
edge $-1 $812 17.577083820127598 $815 19.710930898390473 $655 $877 forward 7 unknown #
vertex $-1 $811 $878 #
straight-curve $-1 -48.021485030671101 8.9499491777872429 26.520369210551046 0 0 1 I I #
edge $-1 $815 2.5841674429464252 $666 10.14739602673521 $665 $879 forward 7 unknown #
vertex $-1 $814 $880 #
straight-curve $-1 -48.021485030671087 8.9499491777872429 5.0192546771640636 -0.49999998660252726 0 -0.86602541151947299 I I #
point $-1 -48.021485030671101 8.9499491777872429 5.0192546771640387 #
point $-1 -45.887637952408227 16.513177761576028 8.7151863643407843 #
straight-curve $-1 -48.021485030671101 0 8.7151863643407843 0 -1 0 I I #
vertex $-1 $672 $881 #
point $-1 -45.225206038203019 10.462594894544996 6.4461269839478934 #
vertex $-1 $676 $882 #
point $-1 -45.225206038203019 12.731563469681635 6.4461269839478934 #
vertex $-1 $680 $883 #
point $-1 -45.225206038203019 15.000532044818268 6.4461269839478934 #
edge $-1 $827 -6.4336580518414053 $830 -4.2998109735785519 $685 $884 forward 7 unknown #
vertex $-1 $689 $885 #
straight-curve $-1 48.021485030671101 -8.9499491777872393 68.108195546014201 0 0 1 I I #
edge $-1 $830 2.5841674429464234 $696 10.147396026735208 $695 $886 forward 7 unknown #
vertex $-1 $829 $887 #
straight-curve $-1 1.2867330809740452e-006 -8.9499491777872393 88.194907348090368 0.49999998660252726 0 -0.86602541151947299 I I #
point $-1 48.021485030671101 -8.9499491777872393 5.0192546771640707 #
point $-1 45.887637952408248 -16.513177761576024 8.7151863643407808 #
straight-curve $-1 48.021485030671101 0 8.7151863643407843 0 1 0 I I #
vertex $-1 $702 $888 #
point $-1 45.725206024805559 -15.000532044818268 5.5801015724284317 #
vertex $-1 $706 $889 #
point $-1 45.725206024805559 -12.731563469681632 5.5801015724284317 #
vertex $-1 $710 $890 #
point $-1 45.725206024805559 -10.462594894544996 5.5801015724284317 #
coedge $-1 $725 $724 $717 $842 forward $714 $-1 #
edge $-1 $843 -6.4336580518414053 $846 -4.2998109735785519 $841 $891 forward 7 unknown #
vertex $-1 $842 $892 #
straight-curve $-1 48.021485030671101 16.513177761576028 68.108195546014201 0 0 1 I I #
edge $-1 $846 -10.14739602673521 $726 -2.5841674429464252 $725 $893 forward 7 unknown #
vertex $-1 $845 $894 #
straight-curve $-1 1.2867330809740452e-006 16.513177761576028 88.194907348090368 0.49999998660252726 0 -0.86602541151947299 I I #
point $-1 48.021485030671101 16.513177761576028 5.0192546771640707 #
point $-1 45.887637952408248 8.9499491777872429 8.7151863643407808 #
straight-curve $-1 48.021485030671101 0 8.7151863643407843 0 1 0 I I #
vertex $-1 $732 $895 #
point $-1 45.725206024805559 10.462594894544996 5.5801015724284317 #
vertex $-1 $736 $896 #
point $-1 45.725206024805559 12.731563469681635 5.5801015724284317 #
vertex $-1 $740 $897 #
point $-1 45.725206024805559 15.000532044818268 5.5801015724284317 #
straight-curve $-1 -48.021485030671101 23.595993522028873 0 0 0 -1 I I #
point $-1 -48.021485030671101 -23.595993522028873 -8.7151863643407843 #
straight-curve $-1 -48.021485030671101 0 -8.7151863643407843 0 1 0 I I #
point $-1 -48.021485030671101 23.595993522028873 -8.7151863643407843 #
straight-curve $-1 -48.021485030671101 -10.027292820901224 -7.3661463139951699 0 -1 0 I I #
point $-1 -48.021485030671101 -23.59599352202887 -7.3661463139951699 #
point $-1 -48.021485030671101 -16.513177761576024 -7.3661463139951699 #
straight-curve $-1 -48.021485030671101 -16.513177761576024 -2.779996646417902 0 0 -1 I I #
straight-curve $-1 -48.021485030671101 -23.595993522028873 0 0 0 -1 I I #
point $-1 -48.021485030671101 16.513177761576024 -7.3661463139951699 #
straight-curve $-1 -48.021485030671101 10.027292820901225 -7.3661463139951699 0 -1 0 I I #
point $-1 -48.021485030671101 23.595993522028877 -7.3661463139951699 #
straight-curve $-1 -48.021485030671101 23.595993522028873 0 0 0 -1 I I #
straight-curve $-1 -65.598568850798699 -16.513177761576024 8.7151863643407843 1 0 0 I I #
point $-1 -48.021485030671101 -16.513177761576024 8.7151863643407843 #
straight-curve $-1 -45.887637952408227 -6.3657817348408159 8.7151863643407843 0 1 0 I I #
point $-1 -45.887637952408227 -16.513177761576024 8.7151863643407843 #
point $-1 -45.042193325744549 -15.000532044818268 5.7631142848868935 #
point $-1 -45.042193325744549 -12.731563469681632 5.7631142848868935 #
point $-1 -45.042193325744549 -10.462594894544996 5.7631142848868935 #
straight-curve $-1 -65.598568850798699 8.9499491777872429 8.7151863643407843 1 0 0 I I #
point $-1 -48.021485030671101 8.9499491777872429 8.7151863643407843 #
straight-curve $-1 -45.887637952408227 6.3657817348408177 8.7151863643407843 0 1 0 I I #
point $-1 -45.887637952408227 8.9499491777872429 8.7151863643407843 #
point $-1 -45.042193325744549 10.462594894544996 5.7631142848868935 #
point $-1 -45.042193325744549 12.731563469681635 5.7631142848868935 #
point $-1 -45.042193325744549 15.000532044818268 5.7631142848868935 #
straight-curve $-1 41.587826978829696 -8.9499491777872393 8.7151863643407808 -1 0 0 I I #
point $-1 48.021485030671101 -8.9499491777872393 8.7151863643407843 #
straight-curve $-1 45.887637952408255 -6.3657817348408159 8.7151863643407808 0 -1 0 I I #
point $-1 45.887637952408248 -8.9499491777872393 8.7151863643407808 #
point $-1 45.042193325744556 -15.000532044818268 5.7631142848869041 #
point $-1 45.042193325744556 -12.731563469681632 5.7631142848869041 #
point $-1 45.042193325744556 -10.462594894544996 5.7631142848869041 #
straight-curve $-1 41.587826978829696 16.513177761576028 8.7151863643407808 -1 0 0 I I #
point $-1 48.021485030671101 16.513177761576028 8.7151863643407843 #
straight-curve $-1 45.887637952408255 6.3657817348408177 8.7151863643407808 0 -1 0 I I #
point $-1 45.887637952408248 16.513177761576028 8.7151863643407808 #
point $-1 45.042193325744556 10.462594894544996 5.7631142848869041 #
point $-1 45.042193325744556 12.731563469681635 5.7631142848869041 #
point $-1 45.042193325744556 15.000532044818268 5.7631142848869041 #
End-of-ACIS-data 