500 0 7 0           
7 Unknown 11 ACIS 5.0 NT 24 Fri Mar 26 18:00:49 1999 
-1 9.9999999999999995e-007 1e-010 
body $-1 $7 $-1 $8 #
body $-1 $9 $-1 $10 #
body $-1 $11 $-1 $12 #
body $-1 $13 $-1 $14 #
body $-1 $15 $-1 $16 #
body $-1 $17 $-1 $18 #
body $-1 $19 $-1 $20 #
lump $-1 $-1 $21 $0 #
transform $-1 1 0 0 0 1 0 0 0 1 75.350199896237058 45.604267228071379 17.555840535138781 1 rotate no_reflect no_shear #
lump $-1 $-1 $22 $1 #
transform $-1 1 0 0 0 1 0 0 0 1 75.350199896237058 45.604267228071379 17.555840535138781 1 rotate no_reflect no_shear #
lump $-1 $-1 $23 $2 #
transform $-1 1 0 0 0 1 0 0 0 1 75.350199896237058 45.604267228071379 17.555840535138781 1 rotate no_reflect no_shear #
lump $-1 $-1 $24 $3 #
transform $-1 1 0 0 0 1 0 0 0 1 75.350199896237058 45.604267228071379 17.555840535138781 1 rotate no_reflect no_shear #
lump $-1 $-1 $25 $4 #
transform $-1 1 0 0 0 1 0 0 0 1 75.350199896237058 45.604267228071379 17.555840535138781 1 rotate no_reflect no_shear #
lump $-1 $-1 $26 $5 #
transform $-1 1 0 0 0 1 0 0 0 1 75.350199896237058 45.604267228071379 17.555840535138781 1 rotate no_reflect no_shear #
lump $-1 $-1 $27 $6 #
transform $-1 1 0 0 0 1 0 0 0 1 75.350199896237058 45.604267228071379 17.555840535138781 1 rotate no_reflect no_shear #
shell $-1 $-1 $-1 $28 $-1 $7 #
shell $-1 $-1 $-1 $29 $-1 $9 #
shell $-1 $-1 $-1 $30 $-1 $11 #
shell $-1 $-1 $-1 $31 $-1 $13 #
shell $-1 $-1 $-1 $32 $-1 $15 #
shell $-1 $-1 $-1 $33 $-1 $17 #
shell $-1 $-1 $-1 $34 $-1 $19 #
face $-1 $35 $36 $21 $-1 $37 forward single #
face $-1 $38 $39 $22 $-1 $40 forward single #
face $-1 $41 $42 $23 $-1 $43 forward single #
face $-1 $44 $45 $24 $-1 $46 reversed single #
face $-1 $47 $48 $25 $-1 $49 forward single #
face $-1 $50 $51 $26 $-1 $52 forward single #
face $-1 $53 $54 $27 $-1 $55 forward single #
face $-1 $56 $57 $21 $-1 $58 reversed single #
loop $-1 $-1 $59 $28 #
plane-surface $-1 0 0 17.555840535138781 0 0 1 1 0 0 forward_v I I I I #
face $-1 $60 $61 $22 $-1 $62 reversed single #
loop $-1 $-1 $63 $29 #
plane-surface $-1 -75.350199896237058 0 0 1 0 0 0 0 -1 forward_v I I I I #
face $-1 $64 $65 $23 $-1 $66 reversed single #
loop $-1 $-1 $67 $30 #
plane-surface $-1 75.350199896237058 0 0 -1 0 0 0 0 1 forward_v I I I I #
face $-1 $68 $69 $24 $-1 $70 reversed single #
loop $-1 $-1 $71 $31 #
plane-surface $-1 8.4645755278443175 60.394486962893637 184.94373600225984 1 0 0 0 -0.5877852598018023 -0.80901698891910034 forward_v I I I I #
face $-1 $72 $73 $25 $-1 $74 forward single #
loop $-1 $75 $76 $32 #
cone-surface $-1 12.839600408310673 38.839163658408069 11.885830519915617 0 -0.5877852598018023 -0.80901698891910034 1 0 0 1 I I 0 1 1 forward I I I I #
face $-1 $77 $78 $26 $-1 $79 forward single #
loop $-1 $80 $81 $33 #
cone-surface $-1 19.402137729010192 38.839163658408069 11.885830519915617 0 -0.5877852598018023 -0.80901698891910034 1 0 0 1 I I 0 1 1 forward I I I I #
face $-1 $82 $83 $27 $-1 $84 forward single #
loop $-1 $85 $86 $34 #
cone-surface $-1 25.964675049709712 38.839163658408069 11.885830519915617 0 -0.5877852598018023 -0.80901698891910034 1 0 0 1 I I 0 1 1 forward I I I I #
face $-1 $87 $88 $21 $-1 $89 reversed single #
loop $-1 $-1 $90 $35 #
plane-surface $-1 0 0 -17.555840535138781 0 0 1 1 0 0 forward_v I I I I #
coedge $-1 $91 $92 $93 $94 forward $36 $-1 #
face $-1 $95 $96 $22 $-1 $97 forward single #
loop $-1 $-1 $98 $38 #
plane-surface $-1 0 45.604267228071379 0 0 -1 0 0 0 -1 forward_v I I I I #
coedge $-1 $99 $100 $101 $102 forward $39 $-1 #
face $-1 $103 $104 $23 $-1 $105 forward single #
loop $-1 $-1 $106 $41 #
plane-surface $-1 0 -45.604267228071379 0 0 1 0 0 0 1 forward_v I I I I #
coedge $-1 $107 $108 $109 $110 forward $42 $-1 #
face $-1 $111 $112 $24 $-1 $113 reversed single #
loop $-1 $-1 $114 $44 #
plane-surface $-1 19.402137729010192 -28.184986681361238 63.024552333247811 0 0.5877852598018023 0.80901698891910034 1 0 0 forward_v I I I I #
coedge $-1 $115 $116 $117 $118 reversed $45 $-1 #
face $-1 $-1 $119 $25 $-1 $120 forward single #
loop $-1 $121 $122 $47 #
cone-surface $-1 12.839600408310673 37.383638591329969 9.8824721719011421 0 -0.5877852598018023 -0.80901698891910034 0.5 0 0 1 I I -0.70710678118654746 0.70710678118654746 0.5 forward I I I I #
loop $-1 $-1 $123 $32 #
coedge $-1 $76 $76 $124 $125 reversed $48 $-1 #
face $-1 $-1 $126 $26 $-1 $127 forward single #
loop $-1 $128 $129 $50 #
cone-surface $-1 19.402137729010192 37.383638591329969 9.8824721719011421 0 -0.5877852598018023 -0.80901698891910034 0.5 0 0 1 I I -0.70710678118654746 0.70710678118654746 0.5 forward I I I I #
loop $-1 $-1 $130 $33 #
coedge $-1 $81 $81 $131 $132 reversed $51 $-1 #
face $-1 $-1 $133 $27 $-1 $134 forward single #
loop $-1 $135 $136 $53 #
cone-surface $-1 25.964675049709712 37.383638591329969 9.8824721719011421 0 -0.5877852598018023 -0.80901698891910034 0.5 0 0 1 I I -0.70710678118654746 0.70710678118654746 0.5 forward I I I I #
loop $-1 $-1 $137 $34 #
coedge $-1 $86 $86 $138 $139 reversed $54 $-1 #
face $-1 $140 $141 $21 $-1 $142 reversed single #
loop $-1 $-1 $143 $56 #
plane-surface $-1 0 -45.604267228071379 0 0 1 0 0 0 1 forward_v I I I I #
coedge $-1 $144 $145 $146 $147 forward $57 $-1 #
coedge $-1 $148 $59 $149 $150 forward $36 $-1 #
coedge $-1 $59 $148 $151 $152 forward $36 $-1 #
coedge $-1 $153 $154 $59 $94 reversed $155 $-1 #
edge $-1 $156 -45.604267228071379 $157 45.604267228071379 $93 $158 forward 7 unknown #
face $-1 $159 $160 $22 $-1 $161 reversed single #
loop $-1 $-1 $101 $60 #
plane-surface $-1 -81.342358080392103 0 7.7797002843533551 0 0 1 1 0 0 forward_v I I I I #
coedge $-1 $162 $163 $100 $164 forward $61 $-1 #
coedge $-1 $165 $63 $166 $167 reversed $39 $-1 #
coedge $-1 $63 $165 $98 $164 reversed $39 $-1 #
coedge $-1 $168 $169 $63 $102 reversed $96 $-1 #
edge $-1 $170 -45.604267228071379 $171 45.604267228071379 $101 $172 forward 7 unknown #
face $-1 $173 $174 $23 $-1 $175 reversed single #
loop $-1 $-1 $176 $64 #
plane-surface $-1 81.342358080392103 0 7.7797002843533551 0 0 1 1 0 0 forward_v I I I I #
coedge $-1 $177 $178 $108 $179 forward $65 $-1 #
coedge $-1 $180 $67 $181 $182 reversed $42 $-1 #
coedge $-1 $67 $180 $106 $179 reversed $42 $-1 #
coedge $-1 $183 $184 $67 $110 reversed $104 $-1 #
edge $-1 $185 -45.604267228071379 $186 45.604267228071379 $109 $187 forward 7 unknown #
face $-1 $188 $189 $24 $-1 $190 reversed single #
loop $-1 $-1 $191 $68 #
plane-surface $-1 30.339699930176067 60.394486962893637 184.94373600225984 -1 0 0 0 0.5877852598018023 0.80901698891910034 forward_v I I I I #
coedge $-1 $192 $193 $194 $195 reversed $69 $-1 #
coedge $-1 $116 $71 $196 $197 reversed $45 $-1 #
coedge $-1 $71 $115 $192 $198 reversed $45 $-1 #
coedge $-1 $194 $199 $71 $118 forward $200 $-1 #
edge $-1 $201 -15.40702374662456 $202 -4.2000814816523757 $117 $203 forward 7 unknown #
loop $-1 $-1 $124 $72 #
plane-surface $-1 19.402137729010192 -28.184986681361238 63.024552333247811 0 0.5877852598018023 0.80901698891910034 1 0 0 forward_v I I I I #
loop $-1 $-1 $204 $47 #
coedge $-1 $122 $122 $123 $205 reversed $73 $-1 #
coedge $-1 $123 $123 $122 $205 forward $75 $-1 #
coedge $-1 $124 $124 $76 $125 forward $119 $-1 #
edge $-1 $206 4.692752217646084e-015 $206 6.2831853071796049 $124 $207 forward 7 unknown #
loop $-1 $-1 $131 $77 #
plane-surface $-1 19.402137729010192 -28.184986681361238 63.024552333247811 0 0.5877852598018023 0.80901698891910034 1 0 0 forward_v I I I I #
loop $-1 $-1 $208 $50 #
coedge $-1 $129 $129 $130 $209 reversed $78 $-1 #
coedge $-1 $130 $130 $129 $209 forward $80 $-1 #
coedge $-1 $131 $131 $81 $132 forward $126 $-1 #
edge $-1 $210 4.692752217646084e-015 $210 6.2831853071796049 $131 $211 forward 7 unknown #
loop $-1 $-1 $138 $82 #
plane-surface $-1 19.402137729010192 -28.184986681361238 63.024552333247811 0 0.5877852598018023 0.80901698891910034 1 0 0 forward_v I I I I #
loop $-1 $-1 $212 $53 #
coedge $-1 $136 $136 $137 $213 reversed $83 $-1 #
coedge $-1 $137 $137 $136 $213 forward $85 $-1 #
coedge $-1 $138 $138 $86 $139 forward $133 $-1 #
edge $-1 $214 4.692752217646084e-015 $214 6.2831853071796049 $138 $215 forward 7 unknown #
face $-1 $216 $217 $21 $-1 $218 reversed single #
loop $-1 $-1 $219 $87 #
plane-surface $-1 -75.350199896237058 0 0 1 0 0 0 0 -1 forward_v I I I I #
coedge $-1 $220 $151 $221 $222 forward $88 $-1 #
coedge $-1 $223 $90 $220 $224 forward $57 $-1 #
coedge $-1 $90 $223 $225 $226 forward $57 $-1 #
coedge $-1 $154 $153 $90 $147 reversed $155 $-1 #
edge $-1 $227 -45.604267228071379 $228 45.604267228071379 $146 $229 forward 7 unknown #
coedge $-1 $92 $91 $230 $231 forward $36 $-1 #
coedge $-1 $232 $233 $91 $150 reversed $217 $-1 #
edge $-1 $157 -75.350199896237058 $234 75.350199896237058 $149 $235 forward 7 unknown #
coedge $-1 $143 $236 $92 $152 reversed $88 $-1 #
edge $-1 $237 -75.350199896237058 $156 75.350199896237058 $151 $238 forward 7 unknown #
coedge $-1 $146 $93 $236 $239 forward $155 $-1 #
coedge $-1 $93 $146 $232 $240 reversed $155 $-1 #
loop $-1 $-1 $153 $216 #
vertex $-1 $94 $241 #
vertex $-1 $94 $242 #
straight-curve $-1 75.350199896237058 0 17.555840535138781 0 1 0 I I #
face $-1 $243 $244 $22 $-1 $245 reversed single #
loop $-1 $-1 $246 $95 #
plane-surface $-1 -81.342358080392103 0 0.71589484646228208 0 0 1 1 0 0 forward_v I I I I #
coedge $-1 $247 $98 $248 $249 reversed $61 $-1 #
coedge $-1 $98 $247 $168 $250 reversed $61 $-1 #
edge $-1 $170 -7.7797002843533551 $251 -0.71589484646228208 $98 $252 forward 7 unknown #
coedge $-1 $100 $99 $246 $253 forward $39 $-1 #
coedge $-1 $254 $255 $99 $167 forward $256 $-1 #
edge $-1 $257 0.71589484646228208 $171 7.7797002843533551 $166 $258 forward 7 unknown #
coedge $-1 $259 $101 $163 $250 forward $96 $-1 #
coedge $-1 $101 $259 $254 $260 forward $96 $-1 #
vertex $-1 $164 $261 #
vertex $-1 $260 $262 #
straight-curve $-1 -75.350199896237058 0 7.7797002843533551 0 -1 0 I I #
face $-1 $263 $264 $23 $-1 $265 reversed single #
loop $-1 $-1 $266 $103 #
plane-surface $-1 81.342358080392103 0 0.71589484646228208 0 0 1 1 0 0 forward_v I I I I #
coedge $-1 $184 $183 $267 $268 forward $104 $-1 #
coedge $-1 $269 $106 $270 $271 reversed $65 $-1 #
coedge $-1 $106 $269 $183 $272 reversed $65 $-1 #
edge $-1 $185 -7.7797002843533551 $273 -0.71589484646228208 $106 $274 forward 7 unknown #
coedge $-1 $108 $107 $275 $276 forward $42 $-1 #
coedge $-1 $277 $278 $107 $182 forward $279 $-1 #
edge $-1 $280 0.71589484646228208 $186 7.7797002843533551 $181 $281 forward 7 unknown #
coedge $-1 $176 $109 $178 $272 forward $104 $-1 #
coedge $-1 $109 $176 $277 $282 forward $104 $-1 #
vertex $-1 $179 $283 #
vertex $-1 $282 $284 #
straight-curve $-1 75.350199896237058 0 7.7797002843533551 0 1 0 I I #
face $-1 $-1 $200 $24 $-1 $285 forward single #
loop $-1 $-1 $286 $111 #
plane-surface $-1 0 45.604267228071379 0 0 -1 0 0 0 -1 forward_v I I I I #
coedge $-1 $287 $288 $289 $290 reversed $112 $-1 #
coedge $-1 $291 $114 $116 $198 forward $69 $-1 #
coedge $-1 $114 $291 $287 $292 forward $69 $-1 #
coedge $-1 $289 $117 $114 $195 forward $200 $-1 #
edge $-1 $202 -1.2364933366607787 $293 20.638631065670971 $194 $294 forward 7 unknown #
coedge $-1 $295 $296 $115 $197 forward $189 $-1 #
edge $-1 $297 -83.058347789327598 $201 -74.916027465991135 $196 $298 forward 7 unknown #
edge $-1 $202 77.355991903302922 $297 91.208534456142729 $116 $299 forward 7 unknown #
coedge $-1 $117 $289 $295 $300 forward $200 $-1 #
loop $-1 $-1 $289 $188 #
vertex $-1 $197 $301 #
vertex $-1 $118 $302 #
straight-curve $-1 8.4645755278443175 30.197243481446819 17.555840535138785 0 -1 0 I I #
coedge $-1 $204 $204 $-1 $303 reversed $121 $-1 #
edge $-1 $304 0 $304 6.2831853071796004 $122 $305 forward 7 unknown #
vertex $-1 $125 $306 #
ellipse-curve $-1 12.839600408310673 40.000796095585279 13.484680373470558 0 0.5877852598018023 0.80901698891910034 1 0 0 1 I I #
coedge $-1 $208 $208 $-1 $307 reversed $128 $-1 #
edge $-1 $308 0 $308 6.2831853071796004 $129 $309 forward 7 unknown #
vertex $-1 $132 $310 #
ellipse-curve $-1 19.402137729010192 40.000796095585279 13.484680373470558 0 0.5877852598018023 0.80901698891910034 1 0 0 1 I I #
coedge $-1 $212 $212 $-1 $311 reversed $135 $-1 #
edge $-1 $312 0 $312 6.2831853071796004 $136 $313 forward 7 unknown #
vertex $-1 $139 $314 #
ellipse-curve $-1 25.964675049709712 40.000796095585279 13.484680373470558 0 0.5877852598018023 0.80901698891910034 1 0 0 1 I I #
face $-1 $-1 $155 $21 $-1 $315 reversed single #
loop $-1 $-1 $232 $140 #
plane-surface $-1 0 45.604267228071379 0 0 -1 0 0 0 -1 forward_v I I I I #
coedge $-1 $316 $230 $233 $317 forward $141 $-1 #
coedge $-1 $236 $143 $144 $224 reversed $88 $-1 #
coedge $-1 $230 $316 $143 $222 reversed $141 $-1 #
edge $-1 $237 -17.555840535138781 $318 17.555840535138781 $221 $319 forward 7 unknown #
coedge $-1 $145 $144 $316 $320 forward $57 $-1 #
edge $-1 $228 -75.350199896237058 $318 75.350199896237058 $220 $321 forward 7 unknown #
coedge $-1 $233 $232 $145 $226 reversed $217 $-1 #
edge $-1 $322 -75.350199896237058 $227 75.350199896237058 $225 $323 forward 7 unknown #
vertex $-1 $147 $324 #
vertex $-1 $239 $325 #
straight-curve $-1 75.350199896237058 0 -17.555840535138781 0 -1 0 I I #
coedge $-1 $219 $221 $148 $231 reversed $141 $-1 #
edge $-1 $234 -45.604267228071379 $237 45.604267228071379 $230 $326 forward 7 unknown #
coedge $-1 $225 $149 $154 $240 forward $217 $-1 #
coedge $-1 $149 $225 $219 $317 reversed $217 $-1 #
vertex $-1 $150 $327 #
straight-curve $-1 0 45.604267228071379 17.555840535138781 -1 0 0 I I #
coedge $-1 $151 $220 $153 $239 reversed $88 $-1 #
vertex $-1 $231 $328 #
straight-curve $-1 0 -45.604267228071379 17.555840535138781 1 0 0 I I #
edge $-1 $156 -17.555840535138781 $228 17.555840535138781 $153 $329 forward 7 unknown #
edge $-1 $157 -17.555840535138781 $227 17.555840535138781 $154 $330 forward 7 unknown #
point $-1 75.350199896237058 -45.604267228071379 17.555840535138781 #
point $-1 75.350199896237058 45.604267228071379 17.555840535138781 #
face $-1 $-1 $256 $22 $-1 $331 reversed single #
loop $-1 $-1 $332 $159 #
plane-surface $-1 -87.334516264547148 0 4.2477975654078186 1 0 0 0 0 -1 forward_v I I I I #
coedge $-1 $333 $248 $165 $253 reversed $160 $-1 #
coedge $-1 $163 $162 $332 $334 reversed $61 $-1 #
coedge $-1 $246 $335 $162 $249 forward $160 $-1 #
edge $-1 $336 -5.9921581841550449 $251 5.9921581841550449 $162 $337 forward 7 unknown #
edge $-1 $170 -5.9921581841550449 $338 5.9921581841550449 $163 $339 forward 7 unknown #
vertex $-1 $164 $340 #
straight-curve $-1 -75.350199896237058 45.604267228071379 0 0 0 -1 I I #
edge $-1 $257 -45.604267228071379 $251 45.604267228071379 $246 $341 forward 7 unknown #
coedge $-1 $342 $166 $169 $260 reversed $256 $-1 #
coedge $-1 $166 $342 $333 $343 reversed $256 $-1 #
loop $-1 $-1 $166 $243 #
vertex $-1 $167 $344 #
straight-curve $-1 -75.350199896237058 -45.604267228071379 0 0 0 1 I I #
coedge $-1 $169 $168 $345 $346 forward $96 $-1 #
edge $-1 $347 -5.9921581841550449 $171 5.9921581841550449 $254 $348 forward 7 unknown #
point $-1 -75.350199896237058 45.604267228071379 7.7797002843533551 #
point $-1 -75.350199896237058 -45.604267228071379 7.7797002843533551 #
face $-1 $-1 $279 $23 $-1 $349 reversed single #
loop $-1 $-1 $350 $173 #
plane-surface $-1 87.334516264547148 0 4.2477975654078186 -1 0 0 0 0 1 forward_v I I I I #
coedge $-1 $270 $351 $352 $353 forward $174 $-1 #
coedge $-1 $350 $354 $176 $268 reversed $264 $-1 #
edge $-1 $355 -45.604267228071379 $356 45.604267228071379 $267 $357 forward 7 unknown #
coedge $-1 $178 $177 $350 $358 reversed $65 $-1 #
coedge $-1 $275 $266 $177 $271 forward $174 $-1 #
edge $-1 $359 -5.9921581841550449 $273 5.9921581841550449 $177 $360 forward 7 unknown #
edge $-1 $185 -5.9921581841550449 $355 5.9921581841550449 $178 $361 forward 7 unknown #
vertex $-1 $179 $362 #
straight-curve $-1 75.350199896237058 -45.604267228071379 0 0 0 -1 I I #
coedge $-1 $351 $270 $180 $276 reversed $174 $-1 #
edge $-1 $280 -45.604267228071379 $273 45.604267228071379 $275 $363 forward 7 unknown #
coedge $-1 $364 $181 $184 $282 reversed $279 $-1 #
coedge $-1 $181 $364 $351 $365 reversed $279 $-1 #
loop $-1 $-1 $181 $263 #
vertex $-1 $182 $366 #
straight-curve $-1 75.350199896237058 45.604267228071379 0 0 0 1 I I #
edge $-1 $356 -5.9921581841550449 $186 5.9921581841550449 $277 $367 forward 7 unknown #
point $-1 75.350199896237058 -45.604267228071379 7.7797002843533551 #
point $-1 75.350199896237058 45.604267228071379 7.7797002843533551 #
plane-surface $-1 0 0 17.555840535138781 0 0 1 1 0 0 forward_v I I I I #
coedge $-1 $296 $295 $288 $368 forward $189 $-1 #
coedge $-1 $288 $191 $193 $292 reversed $112 $-1 #
coedge $-1 $191 $287 $286 $368 reversed $112 $-1 #
coedge $-1 $199 $194 $191 $290 forward $200 $-1 #
edge $-1 $293 4.2000814816523757 $369 15.40702374662456 $289 $370 forward 7 unknown #
coedge $-1 $193 $192 $296 $371 reversed $69 $-1 #
edge $-1 $372 -91.208534456142729 $293 -77.355991903302922 $287 $373 forward 7 unknown #
vertex $-1 $195 $374 #
straight-curve $-1 9.7010688645050962 34.397324963099209 17.555840535138785 1 0 0 I I #
coedge $-1 $286 $196 $199 $300 reversed $189 $-1 #
coedge $-1 $196 $286 $291 $371 forward $189 $-1 #
vertex $-1 $197 $375 #
straight-curve $-1 8.4645755278443175 45.604267228071379 92.47186800112992 0 0 1 I I #
straight-curve $-1 8.4645755278443175 -28.184986681361238 63.024552333247811 0 0.80901698891910034 -0.5877852598018023 I I #
edge $-1 $369 -30.339699930176067 $201 -8.4645755278443175 $295 $376 forward 7 unknown #
point $-1 8.4645755278443175 45.604267228071379 17.555840535138781 #
point $-1 8.4645755278443175 34.397324963099194 17.555840535138792 #
edge $-1 $377 1 $377 0 $204 $-1 forward 7 unknown #
vertex $-1 $205 $378 #
ellipse-curve $-1 12.839600408310673 37.677531221230872 10.286980666360693 0 0.5877852598018023 0.80901698891910034 1 0 0 1 I I #
point $-1 13.839600408310673 40.000796095585272 13.484680373470541 #
edge $-1 $379 1 $379 0 $208 $-1 forward 7 unknown #
vertex $-1 $209 $380 #
ellipse-curve $-1 19.402137729010192 37.677531221230872 10.286980666360693 0 0.5877852598018023 0.80901698891910034 1 0 0 1 I I #
point $-1 20.402137729010192 40.000796095585272 13.484680373470541 #
edge $-1 $381 1 $381 0 $212 $-1 forward 7 unknown #
vertex $-1 $213 $382 #
ellipse-curve $-1 25.964675049709712 37.677531221230872 10.286980666360693 0 0.5877852598018023 0.80901698891910034 1 0 0 1 I I #
point $-1 26.964675049709712 40.000796095585272 13.484680373470541 #
plane-surface $-1 75.350199896237058 0 0 -1 0 0 0 0 1 forward_v I I I I #
coedge $-1 $221 $219 $223 $320 reversed $141 $-1 #
edge $-1 $234 -17.555840535138781 $322 17.555840535138781 $233 $383 forward 7 unknown #
vertex $-1 $320 $384 #
straight-curve $-1 -75.350199896237058 -45.604267228071379 0 0 0 -1 I I #
edge $-1 $318 -45.604267228071379 $322 45.604267228071379 $316 $385 forward 7 unknown #
straight-curve $-1 0 -45.604267228071379 -17.555840535138781 -1 0 0 I I #
vertex $-1 $226 $386 #
straight-curve $-1 0 45.604267228071379 -17.555840535138781 1 0 0 I I #
point $-1 75.350199896237058 45.604267228071379 -17.555840535138781 #
point $-1 75.350199896237058 -45.604267228071379 -17.555840535138781 #
straight-curve $-1 -75.350199896237058 0 17.555840535138781 0 -1 0 I I #
point $-1 -75.350199896237058 45.604267228071379 17.555840535138781 #
point $-1 -75.350199896237058 -45.604267228071379 17.555840535138781 #
straight-curve $-1 75.350199896237058 -45.604267228071379 0 0 0 -1 I I #
straight-curve $-1 75.350199896237058 45.604267228071379 0 0 0 -1 I I #
plane-surface $-1 0 -45.604267228071379 0 0 1 0 0 0 1 forward_v I I I I #
coedge $-1 $387 $345 $247 $334 forward $244 $-1 #
coedge $-1 $335 $246 $255 $343 forward $160 $-1 #
edge $-1 $338 -3.5319027189455365 $336 3.5319027189455365 $247 $388 forward 7 unknown #
coedge $-1 $248 $333 $387 $389 forward $160 $-1 #
vertex $-1 $249 $390 #
straight-curve $-1 -81.342358080392103 45.604267228071379 0.71589484646228208 1 0 0 I I #
vertex $-1 $250 $391 #
straight-curve $-1 -81.342358080392103 45.604267228071379 7.7797002843533551 -1 0 0 I I #
point $-1 -75.350199896237058 45.604267228071379 0.71589484646228208 #
straight-curve $-1 -75.350199896237058 0 0.71589484646228208 0 1 0 I I #
coedge $-1 $255 $254 $392 $393 forward $256 $-1 #
edge $-1 $257 -5.9921581841550449 $394 5.9921581841550449 $255 $395 forward 7 unknown #
point $-1 -75.350199896237058 -45.604267228071379 0.71589484646228208 #
coedge $-1 $332 $392 $259 $346 reversed $244 $-1 #
edge $-1 $338 -45.604267228071379 $347 45.604267228071379 $345 $396 forward 7 unknown #
vertex $-1 $346 $397 #
straight-curve $-1 -81.342358080392103 -45.604267228071379 7.7797002843533551 1 0 0 I I #
plane-surface $-1 0 45.604267228071379 0 0 -1 0 0 0 -1 forward_v I I I I #
coedge $-1 $352 $267 $269 $358 forward $264 $-1 #
coedge $-1 $266 $275 $278 $365 forward $174 $-1 #
coedge $-1 $354 $350 $266 $353 reversed $264 $-1 #
edge $-1 $398 -45.604267228071379 $359 45.604267228071379 $352 $399 forward 7 unknown #
coedge $-1 $267 $352 $364 $400 reversed $264 $-1 #
vertex $-1 $268 $401 #
vertex $-1 $268 $402 #
straight-curve $-1 87.334516264547148 0 7.7797002843533551 0 1 0 I I #
edge $-1 $355 -3.5319027189455365 $359 3.5319027189455365 $350 $403 forward 7 unknown #
vertex $-1 $358 $404 #
straight-curve $-1 81.342358080392103 -45.604267228071379 0.71589484646228208 -1 0 0 I I #
straight-curve $-1 81.342358080392103 -45.604267228071379 7.7797002843533551 1 0 0 I I #
point $-1 75.350199896237058 -45.604267228071379 0.71589484646228208 #
straight-curve $-1 75.350199896237058 0 0.71589484646228208 0 -1 0 I I #
coedge $-1 $278 $277 $354 $400 forward $279 $-1 #
edge $-1 $280 -5.9921581841550449 $398 5.9921581841550449 $278 $405 forward 7 unknown #
point $-1 75.350199896237058 45.604267228071379 0.71589484646228208 #
straight-curve $-1 81.342358080392103 45.604267228071379 7.7797002843533551 -1 0 0 I I #
edge $-1 $369 74.916027465991135 $372 83.058347789327598 $286 $406 forward 7 unknown #
vertex $-1 $300 $407 #
straight-curve $-1 30.339699930176067 30.197243481446819 17.555840535138785 0 1 0 I I #
edge $-1 $372 -20.638631065670971 $297 1.2364933366607787 $296 $408 forward 7 unknown #
vertex $-1 $371 $409 #
straight-curve $-1 30.339699930176067 -28.184986681361238 63.024552333247811 0 -0.80901698891910034 0.5877852598018023 I I #
point $-1 30.339699930176067 34.397324963099194 17.555840535138792 #
point $-1 8.4645755278443175 45.604267228071379 9.4135202118023145 #
straight-curve $-1 0 45.604267228071379 17.555840535138781 -1 0 0 I I #
vertex $-1 $303 $410 #
point $-1 13.839600408310673 37.677531221230872 10.286980666360693 #
vertex $-1 $307 $411 #
point $-1 20.402137729010192 37.677531221230872 10.286980666360693 #
vertex $-1 $311 $412 #
point $-1 26.964675049709712 37.677531221230872 10.286980666360693 #
straight-curve $-1 -75.350199896237058 45.604267228071379 0 0 0 -1 I I #
point $-1 -75.350199896237058 -45.604267228071379 -17.555840535138781 #
straight-curve $-1 -75.350199896237058 0 -17.555840535138781 0 1 0 I I #
point $-1 -75.350199896237058 45.604267228071379 -17.555840535138781 #
coedge $-1 $392 $332 $335 $389 reversed $244 $-1 #
straight-curve $-1 -87.334516264547148 45.604267228071379 4.2477975654078186 0 0 -1 I I #
edge $-1 $394 -45.604267228071379 $336 45.604267228071379 $387 $413 forward 7 unknown #
point $-1 -87.334516264547148 45.604267228071379 0.71589484646228208 #
point $-1 -87.334516264547148 45.604267228071379 7.7797002843533551 #
coedge $-1 $345 $387 $342 $393 reversed $244 $-1 #
edge $-1 $347 -3.5319027189455365 $394 3.5319027189455365 $392 $414 forward 7 unknown #
vertex $-1 $389 $415 #
straight-curve $-1 -81.342358080392103 -45.604267228071379 0.71589484646228208 -1 0 0 I I #
straight-curve $-1 -87.334516264547148 0 7.7797002843533551 0 -1 0 I I #
point $-1 -87.334516264547148 -45.604267228071379 7.7797002843533551 #
vertex $-1 $353 $416 #
straight-curve $-1 87.334516264547148 0 0.71589484646228208 0 -1 0 I I #
edge $-1 $356 -3.5319027189455365 $398 3.5319027189455365 $354 $417 forward 7 unknown #
point $-1 87.334516264547148 -45.604267228071379 7.7797002843533551 #
point $-1 87.334516264547148 45.604267228071379 7.7797002843533551 #
straight-curve $-1 87.334516264547148 -45.604267228071379 4.2477975654078186 0 0 -1 I I #
point $-1 87.334516264547148 -45.604267228071379 0.71589484646228208 #
straight-curve $-1 81.342358080392103 45.604267228071379 0.71589484646228208 1 0 0 I I #
straight-curve $-1 30.339699930176067 45.604267228071379 92.47186800112992 0 0 -1 I I #
point $-1 30.339699930176067 45.604267228071379 17.555840535138781 #
straight-curve $-1 9.7010688645050962 45.604267228071379 9.4135202118023145 -1 0 0 I I #
point $-1 30.339699930176067 45.604267228071379 9.4135202118023145 #
point $-1 12.839600408310673 37.089745961429067 9.4779636774415916 #
point $-1 19.402137729010192 37.089745961429067 9.4779636774415916 #
point $-1 25.964675049709712 37.089745961429067 9.4779636774415916 #
straight-curve $-1 -87.334516264547148 0 0.71589484646228208 0 1 0 I I #
straight-curve $-1 -87.334516264547148 -45.604267228071379 4.2477975654078186 0 0 -1 I I #
point $-1 -87.334516264547148 -45.604267228071379 0.71589484646228208 #
point $-1 87.334516264547148 45.604267228071379 0.71589484646228208 #
straight-curve $-1 87.334516264547148 45.604267228071379 4.2477975654078186 0 0 -1 I I #
End-of-ACIS-data 