500 0 16 0           
7 Unknown 11 ACIS 5.0 NT 24 Fri Mar 26 01:59:23 1999 
-1 9.9999999999999995e-007 1e-010 
body $-1 $16 $-1 $17 #
body $-1 $18 $-1 $19 #
body $-1 $20 $-1 $21 #
body $-1 $22 $-1 $23 #
body $-1 $24 $-1 $25 #
body $-1 $26 $-1 $27 #
body $-1 $28 $-1 $29 #
body $-1 $30 $-1 $31 #
body $-1 $32 $-1 $33 #
body $-1 $34 $-1 $35 #
body $-1 $36 $-1 $37 #
body $-1 $38 $-1 $39 #
body $-1 $40 $-1 $41 #
body $-1 $42 $-1 $43 #
body $-1 $44 $-1 $45 #
body $-1 $46 $-1 $47 #
lump $-1 $-1 $48 $0 #
transform $-1 1 0 0 0 1 0 0 0 1 50.476393932920317 33.402195651914965 9.0752808383527128 1 rotate no_reflect no_shear #
lump $-1 $-1 $49 $1 #
transform $-1 1 0 0 0 1 0 0 0 1 50.476393932920317 4.1779915291395966 1.9437613590393741 1 rotate no_reflect no_shear #
lump $-1 $-1 $50 $2 #
transform $-1 0.62932038083071107 0 0.77714596973225614 0 1 0 -0.77714596973225614 0 0.62932038083071107 -78.455052223173453 12.49636826722533 74.560206458323165 1 rotate no_reflect no_shear #
lump $-1 $-1 $51 $3 #
transform $-1 0.62932038083071107 0 0.77714596973225614 0 -1 0 0.77714596973225614 0 -0.62932038083071107 3.8550741868461067 10.721917463391271 13.802910138649498 1 rotate no_reflect no_shear #
lump $-1 $-1 $52 $4 #
transform $-1 0.62932038083071107 0 0.77714596973225614 0 -1 0 0.77714596973225614 0 -0.62932038083071107 3.8550741868461067 14.270819071059389 13.802910138649498 1 rotate no_reflect no_shear #
lump $-1 $-1 $53 $5 #
transform $-1 0.62932038083071107 0 0.77714596973225614 0 1 0 -0.77714596973225614 0 0.62932038083071107 -78.455052223173453 27.108470328613016 74.560206458323165 1 rotate no_reflect no_shear #
lump $-1 $-1 $54 $6 #
transform $-1 0.62932038083071107 0 0.77714596973225614 0 -1 0 0.77714596973225614 0 -0.62932038083071107 3.8550741868461067 25.334019524778956 13.802910138649498 1 rotate no_reflect no_shear #
lump $-1 $-1 $55 $7 #
transform $-1 0.62932038083071107 0 0.77714596973225614 0 -1 0 0.77714596973225614 0 -0.62932038083071107 3.8550741868461067 28.882921132447073 13.802910138649498 1 rotate no_reflect no_shear #
lump $-1 $-1 $56 $8 #
transform $-1 0.62932038083071107 0 0.77714596973225614 0 1 0 -0.77714596973225614 0 0.62932038083071107 -78.455052223173453 41.720572390000697 74.560206458323165 1 rotate no_reflect no_shear #
lump $-1 $-1 $57 $9 #
transform $-1 0.62932038083071107 0 0.77714596973225614 0 -1 0 0.77714596973225614 0 -0.62932038083071107 3.8550741868461067 39.94612158616664 13.802910138649498 1 rotate no_reflect no_shear #
lump $-1 $-1 $58 $10 #
transform $-1 0.62932038083071107 0 0.77714596973225614 0 -1 0 0.77714596973225614 0 -0.62932038083071107 3.8550741868461067 43.495023193834754 13.802910138649498 1 rotate no_reflect no_shear #
lump $-1 $-1 $59 $11 #
transform $-1 0.62932038083071107 0 0.77714596973225614 0 1 0 -0.77714596973225614 0 0.62932038083071107 -78.455052223173453 56.332674451388385 74.560206458323165 1 rotate no_reflect no_shear #
lump $-1 $-1 $60 $12 #
transform $-1 0.62932038083071107 0 0.77714596973225614 0 -1 0 0.77714596973225614 0 -0.62932038083071107 3.8550741868461067 54.558223647554328 13.802910138649498 1 rotate no_reflect no_shear #
lump $-1 $-1 $61 $13 #
transform $-1 0.62932038083071107 0 0.77714596973225614 0 -1 0 0.77714596973225614 0 -0.62932038083071107 3.8550741868461067 58.107125255222442 13.802910138649498 1 rotate no_reflect no_shear #
lump $-1 $-1 $62 $14 #
transform $-1 0.84804809178421925 0 -0.52991927123019833 0 1 0 0.52991927123019833 0 0.84804809178421925 68.836796530440466 14.410781667442889 153.74755401486902 1 rotate no_reflect no_shear #
lump $-1 $-1 $63 $15 #
transform $-1 0.84804809178421925 0 -0.52991927123019833 0 -1 0 -0.52991927123019833 0 -0.84804809178421925 95.889745982488165 14.410781667442889 12.789751790971103 1 rotate no_reflect no_shear #
shell $-1 $-1 $-1 $64 $-1 $16 #
shell $-1 $-1 $-1 $65 $-1 $18 #
shell $-1 $-1 $-1 $66 $-1 $20 #
shell $-1 $-1 $-1 $67 $-1 $22 #
shell $-1 $-1 $-1 $68 $-1 $24 #
shell $-1 $-1 $-1 $69 $-1 $26 #
shell $-1 $-1 $-1 $70 $-1 $28 #
shell $-1 $-1 $-1 $71 $-1 $30 #
shell $-1 $-1 $-1 $72 $-1 $32 #
shell $-1 $-1 $-1 $73 $-1 $34 #
shell $-1 $-1 $-1 $74 $-1 $36 #
shell $-1 $-1 $-1 $75 $-1 $38 #
shell $-1 $-1 $-1 $76 $-1 $40 #
shell $-1 $-1 $-1 $77 $-1 $42 #
shell $-1 $-1 $-1 $78 $-1 $44 #
shell $-1 $-1 $-1 $79 $-1 $46 #
face $-1 $80 $81 $48 $-1 $82 forward single #
face $-1 $83 $84 $49 $-1 $85 forward single #
face $-1 $86 $87 $50 $-1 $88 forward single #
face $-1 $89 $90 $51 $-1 $91 forward single #
face $-1 $92 $93 $52 $-1 $94 forward single #
face $-1 $95 $96 $53 $-1 $97 forward single #
face $-1 $98 $99 $54 $-1 $100 forward single #
face $-1 $101 $102 $55 $-1 $103 forward single #
face $-1 $104 $105 $56 $-1 $106 forward single #
face $-1 $107 $108 $57 $-1 $109 forward single #
face $-1 $110 $111 $58 $-1 $112 forward single #
face $-1 $113 $114 $59 $-1 $115 forward single #
face $-1 $116 $117 $60 $-1 $118 forward single #
face $-1 $119 $120 $61 $-1 $121 forward single #
face $-1 $122 $123 $62 $-1 $124 forward single #
face $-1 $125 $126 $63 $-1 $127 forward single #
face $-1 $128 $129 $48 $-1 $130 reversed single #
loop $-1 $-1 $131 $64 #
plane-surface $-1 0 0 9.0752808383527128 0 0 1 1 0 0 forward_v I I I I #
face $-1 $132 $133 $49 $-1 $134 reversed single #
loop $-1 $-1 $135 $65 #
plane-surface $-1 0 0 1.9437613590393741 0 0 1 1 0 0 forward_v I I I I #
face $-1 $136 $137 $50 $-1 $138 reversed single #
loop $-1 $-1 $139 $66 #
plane-surface $-1 0 0 100.95278786584063 0 0 1 1 0 0 forward_v I I I I #
face $-1 $140 $141 $51 $-1 $142 forward single #
loop $-1 $143 $144 $67 #
cone-surface $-1 0 0 -0.75 0 0 1 0.5 0 0 1 I I 0 1 0.5 forward I I I I #
face $-1 $145 $146 $52 $-1 $147 forward single #
loop $-1 $148 $149 $68 #
cone-surface $-1 0 0 -0.75 0 0 1 0.5 0 0 1 I I 0 1 0.5 forward I I I I #
face $-1 $150 $151 $53 $-1 $152 reversed single #
loop $-1 $-1 $153 $69 #
plane-surface $-1 0 0 100.95278786584063 0 0 1 1 0 0 forward_v I I I I #
face $-1 $154 $155 $54 $-1 $156 forward single #
loop $-1 $157 $158 $70 #
cone-surface $-1 0 0 -0.75 0 0 1 0.5 0 0 1 I I 0 1 0.5 forward I I I I #
face $-1 $159 $160 $55 $-1 $161 forward single #
loop $-1 $162 $163 $71 #
cone-surface $-1 0 0 -0.75 0 0 1 0.5 0 0 1 I I 0 1 0.5 forward I I I I #
face $-1 $164 $165 $56 $-1 $166 reversed single #
loop $-1 $-1 $167 $72 #
plane-surface $-1 0 0 100.95278786584063 0 0 1 1 0 0 forward_v I I I I #
face $-1 $168 $169 $57 $-1 $170 forward single #
loop $-1 $171 $172 $73 #
cone-surface $-1 0 0 -0.75 0 0 1 0.5 0 0 1 I I 0 1 0.5 forward I I I I #
face $-1 $173 $174 $58 $-1 $175 forward single #
loop $-1 $176 $177 $74 #
cone-surface $-1 0 0 -0.75 0 0 1 0.5 0 0 1 I I 0 1 0.5 forward I I I I #
face $-1 $178 $179 $59 $-1 $180 reversed single #
loop $-1 $-1 $181 $75 #
plane-surface $-1 0 0 100.95278786584063 0 0 1 1 0 0 forward_v I I I I #
face $-1 $182 $183 $60 $-1 $184 forward single #
loop $-1 $185 $186 $76 #
cone-surface $-1 0 0 -0.75 0 0 1 0.5 0 0 1 I I 0 1 0.5 forward I I I I #
face $-1 $187 $188 $61 $-1 $189 forward single #
loop $-1 $190 $191 $77 #
cone-surface $-1 0 0 -0.75 0 0 1 0.5 0 0 1 I I 0 1 0.5 forward I I I I #
face $-1 $192 $193 $62 $-1 $194 reversed single #
loop $-1 $-1 $195 $78 #
plane-surface $-1 0 0 100.95278786584063 0 0 1 1 0 0 forward_v I I I I #
face $-1 $196 $197 $63 $-1 $198 forward single #
loop $-1 $199 $200 $79 #
cone-surface $-1 0 0 -2.3751640369884335 0 0 1 1 0 0 1 I I 0 1 1 forward I I I I #
face $-1 $201 $202 $48 $-1 $203 reversed single #
loop $-1 $-1 $204 $80 #
plane-surface $-1 0 0 -9.0752808383527128 0 0 1 1 0 0 forward_v I I I I #
coedge $-1 $205 $206 $207 $208 forward $81 $-1 #
face $-1 $209 $210 $49 $-1 $211 reversed single #
loop $-1 $-1 $212 $83 #
plane-surface $-1 0 0 -1.9437613590393741 0 0 1 1 0 0 forward_v I I I I #
coedge $-1 $213 $214 $215 $216 forward $84 $-1 #
face $-1 $217 $218 $50 $-1 $219 reversed single #
loop $-1 $-1 $220 $86 #
plane-surface $-1 0 0 -100.95278786584063 0 0 1 1 0 0 forward_v I I I I #
coedge $-1 $221 $222 $223 $224 forward $87 $-1 #
face $-1 $-1 $225 $51 $-1 $226 forward single #
loop $-1 $-1 $227 $89 #
plane-surface $-1 0 0 -1.25 0 0 -1 -1 0 0 forward_v I I I I #
loop $-1 $-1 $228 $67 #
coedge $-1 $144 $144 $227 $229 reversed $90 $-1 #
face $-1 $-1 $230 $52 $-1 $231 forward single #
loop $-1 $-1 $232 $92 #
plane-surface $-1 0 0 -1.25 0 0 -1 -1 0 0 forward_v I I I I #
loop $-1 $-1 $233 $68 #
coedge $-1 $149 $149 $232 $234 reversed $93 $-1 #
face $-1 $235 $236 $53 $-1 $237 reversed single #
loop $-1 $-1 $238 $95 #
plane-surface $-1 0 0 -100.95278786584063 0 0 1 1 0 0 forward_v I I I I #
coedge $-1 $239 $240 $241 $242 forward $96 $-1 #
face $-1 $-1 $243 $54 $-1 $244 forward single #
loop $-1 $-1 $245 $98 #
plane-surface $-1 0 0 -1.25 0 0 -1 -1 0 0 forward_v I I I I #
loop $-1 $-1 $246 $70 #
coedge $-1 $158 $158 $245 $247 reversed $99 $-1 #
face $-1 $-1 $248 $55 $-1 $249 forward single #
loop $-1 $-1 $250 $101 #
plane-surface $-1 0 0 -1.25 0 0 -1 -1 0 0 forward_v I I I I #
loop $-1 $-1 $251 $71 #
coedge $-1 $163 $163 $250 $252 reversed $102 $-1 #
face $-1 $253 $254 $56 $-1 $255 reversed single #
loop $-1 $-1 $256 $104 #
plane-surface $-1 0 0 -100.95278786584063 0 0 1 1 0 0 forward_v I I I I #
coedge $-1 $257 $258 $259 $260 forward $105 $-1 #
face $-1 $-1 $261 $57 $-1 $262 forward single #
loop $-1 $-1 $263 $107 #
plane-surface $-1 0 0 -1.25 0 0 -1 -1 0 0 forward_v I I I I #
loop $-1 $-1 $264 $73 #
coedge $-1 $172 $172 $263 $265 reversed $108 $-1 #
face $-1 $-1 $266 $58 $-1 $267 forward single #
loop $-1 $-1 $268 $110 #
plane-surface $-1 0 0 -1.25 0 0 -1 -1 0 0 forward_v I I I I #
loop $-1 $-1 $269 $74 #
coedge $-1 $177 $177 $268 $270 reversed $111 $-1 #
face $-1 $271 $272 $59 $-1 $273 reversed single #
loop $-1 $-1 $274 $113 #
plane-surface $-1 0 0 -100.95278786584063 0 0 1 1 0 0 forward_v I I I I #
coedge $-1 $275 $276 $277 $278 forward $114 $-1 #
face $-1 $-1 $279 $60 $-1 $280 forward single #
loop $-1 $-1 $281 $116 #
plane-surface $-1 0 0 -1.25 0 0 -1 -1 0 0 forward_v I I I I #
loop $-1 $-1 $282 $76 #
coedge $-1 $186 $186 $281 $283 reversed $117 $-1 #
face $-1 $-1 $284 $61 $-1 $285 forward single #
loop $-1 $-1 $286 $119 #
plane-surface $-1 0 0 -1.25 0 0 -1 -1 0 0 forward_v I I I I #
loop $-1 $-1 $287 $77 #
coedge $-1 $191 $191 $286 $288 reversed $120 $-1 #
face $-1 $289 $290 $62 $-1 $291 reversed single #
loop $-1 $-1 $292 $122 #
plane-surface $-1 0 0 -100.95278786584063 0 0 1 1 0 0 forward_v I I I I #
coedge $-1 $293 $294 $295 $296 forward $123 $-1 #
face $-1 $-1 $297 $63 $-1 $298 forward single #
loop $-1 $-1 $299 $125 #
plane-surface $-1 0 0 -4.250328073976867 0 0 -1 -1 0 0 forward_v I I I I #
loop $-1 $-1 $300 $79 #
coedge $-1 $200 $200 $299 $301 reversed $126 $-1 #
face $-1 $302 $303 $48 $-1 $304 reversed single #
loop $-1 $-1 $305 $128 #
plane-surface $-1 0 -33.402195651914965 0 0 1 0 0 0 1 forward_v I I I I #
coedge $-1 $306 $307 $308 $309 forward $129 $-1 #
coedge $-1 $310 $131 $311 $312 forward $81 $-1 #
coedge $-1 $131 $310 $313 $314 forward $81 $-1 #
coedge $-1 $315 $316 $131 $208 reversed $317 $-1 #
edge $-1 $318 -33.402195651914965 $319 33.402195651914965 $207 $320 forward 7 unknown #
face $-1 $321 $322 $49 $-1 $323 reversed single #
loop $-1 $-1 $324 $132 #
plane-surface $-1 0 -4.1779915291395966 0 0 1 0 0 0 1 forward_v I I I I #
coedge $-1 $325 $326 $327 $328 forward $133 $-1 #
coedge $-1 $329 $135 $330 $331 forward $84 $-1 #
coedge $-1 $135 $329 $332 $333 forward $84 $-1 #
coedge $-1 $334 $335 $135 $216 reversed $336 $-1 #
edge $-1 $337 -4.1779915291395966 $338 4.1779915291395966 $215 $339 forward 7 unknown #
face $-1 $340 $341 $50 $-1 $342 reversed single #
loop $-1 $-1 $343 $136 #
plane-surface $-1 0 -4.140385208946137 0 0 1 0 0 0 1 forward_v I I I I #
coedge $-1 $344 $345 $346 $347 forward $137 $-1 #
coedge $-1 $348 $139 $349 $350 forward $87 $-1 #
coedge $-1 $139 $348 $351 $352 forward $87 $-1 #
coedge $-1 $353 $354 $139 $224 reversed $355 $-1 #
edge $-1 $356 -4.140385208946137 $357 4.140385208946137 $223 $358 forward 7 unknown #
loop $-1 $359 $360 $140 #
cone-surface $-1 0 0 0 0 0 1 0.25 0 0 1 I I -0.70710678118654746 0.70710678118654746 0.25 forward I I I I #
coedge $-1 $227 $227 $144 $229 forward $141 $-1 #
coedge $-1 $228 $228 $360 $361 forward $143 $-1 #
edge $-1 $362 0 $362 6.2831853071796004 $227 $363 forward 7 unknown #
loop $-1 $364 $365 $145 #
cone-surface $-1 0 0 0 0 0 1 0.25 0 0 1 I I -0.70710678118654746 0.70710678118654746 0.25 forward I I I I #
coedge $-1 $232 $232 $149 $234 forward $146 $-1 #
coedge $-1 $233 $233 $365 $366 forward $148 $-1 #
edge $-1 $367 0 $367 6.2831853071796004 $232 $368 forward 7 unknown #
face $-1 $369 $370 $53 $-1 $371 reversed single #
loop $-1 $-1 $372 $150 #
plane-surface $-1 0 -4.140385208946137 0 0 1 0 0 0 1 forward_v I I I I #
coedge $-1 $373 $374 $375 $376 forward $151 $-1 #
coedge $-1 $377 $153 $378 $379 forward $96 $-1 #
coedge $-1 $153 $377 $380 $381 forward $96 $-1 #
coedge $-1 $382 $383 $153 $242 reversed $384 $-1 #
edge $-1 $385 -4.140385208946137 $386 4.140385208946137 $241 $387 forward 7 unknown #
loop $-1 $388 $389 $154 #
cone-surface $-1 0 0 0 0 0 1 0.25 0 0 1 I I -0.70710678118654746 0.70710678118654746 0.25 forward I I I I #
coedge $-1 $245 $245 $158 $247 forward $155 $-1 #
coedge $-1 $246 $246 $389 $390 forward $157 $-1 #
edge $-1 $391 0 $391 6.2831853071796004 $245 $392 forward 7 unknown #
loop $-1 $393 $394 $159 #
cone-surface $-1 0 0 0 0 0 1 0.25 0 0 1 I I -0.70710678118654746 0.70710678118654746 0.25 forward I I I I #
coedge $-1 $250 $250 $163 $252 forward $160 $-1 #
coedge $-1 $251 $251 $394 $395 forward $162 $-1 #
edge $-1 $396 0 $396 6.2831853071796004 $250 $397 forward 7 unknown #
face $-1 $398 $399 $56 $-1 $400 reversed single #
loop $-1 $-1 $401 $164 #
plane-surface $-1 0 -4.140385208946137 0 0 1 0 0 0 1 forward_v I I I I #
coedge $-1 $402 $403 $404 $405 forward $165 $-1 #
coedge $-1 $406 $167 $407 $408 forward $105 $-1 #
coedge $-1 $167 $406 $409 $410 forward $105 $-1 #
coedge $-1 $411 $412 $167 $260 reversed $413 $-1 #
edge $-1 $414 -4.140385208946137 $415 4.140385208946137 $259 $416 forward 7 unknown #
loop $-1 $417 $418 $168 #
cone-surface $-1 0 0 0 0 0 1 0.25 0 0 1 I I -0.70710678118654746 0.70710678118654746 0.25 forward I I I I #
coedge $-1 $263 $263 $172 $265 forward $169 $-1 #
coedge $-1 $264 $264 $418 $419 forward $171 $-1 #
edge $-1 $420 0 $420 6.2831853071796004 $263 $421 forward 7 unknown #
loop $-1 $422 $423 $173 #
cone-surface $-1 0 0 0 0 0 1 0.25 0 0 1 I I -0.70710678118654746 0.70710678118654746 0.25 forward I I I I #
coedge $-1 $268 $268 $177 $270 forward $174 $-1 #
coedge $-1 $269 $269 $423 $424 forward $176 $-1 #
edge $-1 $425 0 $425 6.2831853071796004 $268 $426 forward 7 unknown #
face $-1 $427 $428 $59 $-1 $429 reversed single #
loop $-1 $-1 $430 $178 #
plane-surface $-1 0 -4.140385208946137 0 0 1 0 0 0 1 forward_v I I I I #
coedge $-1 $431 $432 $433 $434 forward $179 $-1 #
coedge $-1 $435 $181 $436 $437 forward $114 $-1 #
coedge $-1 $181 $435 $438 $439 forward $114 $-1 #
coedge $-1 $440 $441 $181 $278 reversed $442 $-1 #
edge $-1 $443 -4.140385208946137 $444 4.140385208946137 $277 $445 forward 7 unknown #
loop $-1 $446 $447 $182 #
cone-surface $-1 0 0 0 0 0 1 0.25 0 0 1 I I -0.70710678118654746 0.70710678118654746 0.25 forward I I I I #
coedge $-1 $281 $281 $186 $283 forward $183 $-1 #
coedge $-1 $282 $282 $447 $448 forward $185 $-1 #
edge $-1 $449 0 $449 6.2831853071796004 $281 $450 forward 7 unknown #
loop $-1 $451 $452 $187 #
cone-surface $-1 0 0 0 0 0 1 0.25 0 0 1 I I -0.70710678118654746 0.70710678118654746 0.25 forward I I I I #
coedge $-1 $286 $286 $191 $288 forward $188 $-1 #
coedge $-1 $287 $287 $452 $453 forward $190 $-1 #
edge $-1 $454 0 $454 6.2831853071796004 $286 $455 forward 7 unknown #
face $-1 $456 $457 $62 $-1 $458 reversed single #
loop $-1 $-1 $459 $192 #
plane-surface $-1 0 -6.0547986091636954 0 0 1 0 0 0 1 forward_v I I I I #
coedge $-1 $460 $461 $462 $463 forward $193 $-1 #
coedge $-1 $464 $195 $465 $466 forward $123 $-1 #
coedge $-1 $195 $464 $467 $468 forward $123 $-1 #
coedge $-1 $469 $470 $195 $296 reversed $471 $-1 #
edge $-1 $472 -6.0547986091636954 $473 6.0547986091636954 $295 $474 forward 7 unknown #
loop $-1 $475 $476 $196 #
cone-surface $-1 0 0 0 0 0 1 0.5 0 0 1 I I -0.70710678118654746 0.70710678118654746 0.5 forward I I I I #
coedge $-1 $299 $299 $200 $301 forward $197 $-1 #
coedge $-1 $300 $300 $476 $477 forward $199 $-1 #
edge $-1 $478 0 $478 6.2831853071796004 $299 $479 forward 7 unknown #
face $-1 $480 $481 $48 $-1 $482 reversed single #
loop $-1 $-1 $483 $201 #
plane-surface $-1 -50.476393932920317 0 0 1 0 0 0 0 -1 forward_v I I I I #
coedge $-1 $484 $313 $485 $486 forward $202 $-1 #
coedge $-1 $487 $204 $484 $488 forward $129 $-1 #
coedge $-1 $204 $487 $489 $490 forward $129 $-1 #
coedge $-1 $316 $315 $204 $309 reversed $317 $-1 #
edge $-1 $491 -33.402195651914965 $492 33.402195651914965 $308 $493 forward 7 unknown #
coedge $-1 $206 $205 $494 $495 forward $81 $-1 #
coedge $-1 $496 $497 $205 $312 reversed $481 $-1 #
edge $-1 $319 -50.476393932920317 $498 50.476393932920317 $311 $499 forward 7 unknown #
coedge $-1 $305 $500 $206 $314 reversed $202 $-1 #
edge $-1 $501 -50.476393932920317 $318 50.476393932920317 $313 $502 forward 7 unknown #
coedge $-1 $308 $207 $500 $503 forward $317 $-1 #
coedge $-1 $207 $308 $496 $504 reversed $317 $-1 #
loop $-1 $-1 $315 $480 #
vertex $-1 $208 $505 #
vertex $-1 $208 $506 #
straight-curve $-1 50.476393932920317 0 9.0752808383527128 0 1 0 I I #
face $-1 $507 $508 $49 $-1 $509 reversed single #
loop $-1 $-1 $510 $209 #
plane-surface $-1 -50.476393932920317 0 0 1 0 0 0 0 -1 forward_v I I I I #
coedge $-1 $511 $332 $512 $513 forward $210 $-1 #
coedge $-1 $514 $212 $511 $515 forward $133 $-1 #
coedge $-1 $212 $514 $516 $517 forward $133 $-1 #
coedge $-1 $335 $334 $212 $328 reversed $336 $-1 #
edge $-1 $518 -4.1779915291395966 $519 4.1779915291395966 $327 $520 forward 7 unknown #
coedge $-1 $214 $213 $521 $522 forward $84 $-1 #
coedge $-1 $523 $524 $213 $331 reversed $508 $-1 #
edge $-1 $338 -50.476393932920317 $525 50.476393932920317 $330 $526 forward 7 unknown #
coedge $-1 $324 $527 $214 $333 reversed $210 $-1 #
edge $-1 $528 -50.476393932920317 $337 50.476393932920317 $332 $529 forward 7 unknown #
coedge $-1 $327 $215 $527 $530 forward $336 $-1 #
coedge $-1 $215 $327 $523 $531 reversed $336 $-1 #
loop $-1 $-1 $334 $507 #
vertex $-1 $216 $532 #
vertex $-1 $216 $533 #
straight-curve $-1 50.476393932920317 0 1.9437613590393741 0 1 0 I I #
face $-1 $534 $535 $50 $-1 $536 reversed single #
loop $-1 $-1 $537 $217 #
plane-surface $-1 -201.90557573168127 0 0 1 0 0 0 0 -1 forward_v I I I I #
coedge $-1 $538 $351 $539 $540 forward $218 $-1 #
coedge $-1 $541 $220 $538 $542 forward $137 $-1 #
coedge $-1 $220 $541 $543 $544 forward $137 $-1 #
coedge $-1 $354 $353 $220 $347 reversed $355 $-1 #
edge $-1 $545 -4.140385208946137 $546 4.140385208946137 $346 $547 forward 7 unknown #
coedge $-1 $222 $221 $548 $549 forward $87 $-1 #
coedge $-1 $550 $551 $221 $350 reversed $535 $-1 #
edge $-1 $357 -201.90557573168127 $552 201.90557573168127 $349 $553 forward 7 unknown #
coedge $-1 $343 $554 $222 $352 reversed $218 $-1 #
edge $-1 $555 -201.90557573168127 $356 201.90557573168127 $351 $556 forward 7 unknown #
coedge $-1 $346 $223 $554 $557 forward $355 $-1 #
coedge $-1 $223 $346 $550 $558 reversed $355 $-1 #
loop $-1 $-1 $353 $534 #
vertex $-1 $224 $559 #
vertex $-1 $224 $560 #
straight-curve $-1 201.90557573168127 0 100.95278786584063 0 1 0 I I #
loop $-1 $-1 $561 $140 #
coedge $-1 $360 $360 $228 $361 reversed $225 $-1 #
edge $-1 $562 0 $562 6.2831853071796004 $360 $563 forward 7 unknown #
vertex $-1 $229 $564 #
ellipse-curve $-1 0 0 -1.25 0 0 -1 0.5 0 0 1 I I #
loop $-1 $-1 $565 $145 #
coedge $-1 $365 $365 $233 $366 reversed $230 $-1 #
edge $-1 $566 0 $566 6.2831853071796004 $365 $567 forward 7 unknown #
vertex $-1 $234 $568 #
ellipse-curve $-1 0 0 -1.25 0 0 -1 0.5 0 0 1 I I #
face $-1 $569 $570 $53 $-1 $571 reversed single #
loop $-1 $-1 $572 $235 #
plane-surface $-1 -201.90557573168127 0 0 1 0 0 0 0 -1 forward_v I I I I #
coedge $-1 $573 $380 $574 $575 forward $236 $-1 #
coedge $-1 $576 $238 $573 $577 forward $151 $-1 #
coedge $-1 $238 $576 $578 $579 forward $151 $-1 #
coedge $-1 $383 $382 $238 $376 reversed $384 $-1 #
edge $-1 $580 -4.140385208946137 $581 4.140385208946137 $375 $582 forward 7 unknown #
coedge $-1 $240 $239 $583 $584 forward $96 $-1 #
coedge $-1 $585 $586 $239 $379 reversed $570 $-1 #
edge $-1 $386 -201.90557573168127 $587 201.90557573168127 $378 $588 forward 7 unknown #
coedge $-1 $372 $589 $240 $381 reversed $236 $-1 #
edge $-1 $590 -201.90557573168127 $385 201.90557573168127 $380 $591 forward 7 unknown #
coedge $-1 $375 $241 $589 $592 forward $384 $-1 #
coedge $-1 $241 $375 $585 $593 reversed $384 $-1 #
loop $-1 $-1 $382 $569 #
vertex $-1 $242 $594 #
vertex $-1 $242 $595 #
straight-curve $-1 201.90557573168127 0 100.95278786584063 0 1 0 I I #
loop $-1 $-1 $596 $154 #
coedge $-1 $389 $389 $246 $390 reversed $243 $-1 #
edge $-1 $597 0 $597 6.2831853071796004 $389 $598 forward 7 unknown #
vertex $-1 $247 $599 #
ellipse-curve $-1 0 0 -1.25 0 0 -1 0.5 0 0 1 I I #
loop $-1 $-1 $600 $159 #
coedge $-1 $394 $394 $251 $395 reversed $248 $-1 #
edge $-1 $601 0 $601 6.2831853071796004 $394 $602 forward 7 unknown #
vertex $-1 $252 $603 #
ellipse-curve $-1 0 0 -1.25 0 0 -1 0.5 0 0 1 I I #
face $-1 $604 $605 $56 $-1 $606 reversed single #
loop $-1 $-1 $607 $253 #
plane-surface $-1 -201.90557573168127 0 0 1 0 0 0 0 -1 forward_v I I I I #
coedge $-1 $608 $409 $609 $610 forward $254 $-1 #
coedge $-1 $611 $256 $608 $612 forward $165 $-1 #
coedge $-1 $256 $611 $613 $614 forward $165 $-1 #
coedge $-1 $412 $411 $256 $405 reversed $413 $-1 #
edge $-1 $615 -4.140385208946137 $616 4.140385208946137 $404 $617 forward 7 unknown #
coedge $-1 $258 $257 $618 $619 forward $105 $-1 #
coedge $-1 $620 $621 $257 $408 reversed $605 $-1 #
edge $-1 $415 -201.90557573168127 $622 201.90557573168127 $407 $623 forward 7 unknown #
coedge $-1 $401 $624 $258 $410 reversed $254 $-1 #
edge $-1 $625 -201.90557573168127 $414 201.90557573168127 $409 $626 forward 7 unknown #
coedge $-1 $404 $259 $624 $627 forward $413 $-1 #
coedge $-1 $259 $404 $620 $628 reversed $413 $-1 #
loop $-1 $-1 $411 $604 #
vertex $-1 $260 $629 #
vertex $-1 $260 $630 #
straight-curve $-1 201.90557573168127 0 100.95278786584063 0 1 0 I I #
loop $-1 $-1 $631 $168 #
coedge $-1 $418 $418 $264 $419 reversed $261 $-1 #
edge $-1 $632 0 $632 6.2831853071796004 $418 $633 forward 7 unknown #
vertex $-1 $265 $634 #
ellipse-curve $-1 0 0 -1.25 0 0 -1 0.5 0 0 1 I I #
loop $-1 $-1 $635 $173 #
coedge $-1 $423 $423 $269 $424 reversed $266 $-1 #
edge $-1 $636 0 $636 6.2831853071796004 $423 $637 forward 7 unknown #
vertex $-1 $270 $638 #
ellipse-curve $-1 0 0 -1.25 0 0 -1 0.5 0 0 1 I I #
face $-1 $639 $640 $59 $-1 $641 reversed single #
loop $-1 $-1 $642 $271 #
plane-surface $-1 -201.90557573168127 0 0 1 0 0 0 0 -1 forward_v I I I I #
coedge $-1 $643 $438 $644 $645 forward $272 $-1 #
coedge $-1 $646 $274 $643 $647 forward $179 $-1 #
coedge $-1 $274 $646 $648 $649 forward $179 $-1 #
coedge $-1 $441 $440 $274 $434 reversed $442 $-1 #
edge $-1 $650 -4.140385208946137 $651 4.140385208946137 $433 $652 forward 7 unknown #
coedge $-1 $276 $275 $653 $654 forward $114 $-1 #
coedge $-1 $655 $656 $275 $437 reversed $640 $-1 #
edge $-1 $444 -201.90557573168127 $657 201.90557573168127 $436 $658 forward 7 unknown #
coedge $-1 $430 $659 $276 $439 reversed $272 $-1 #
edge $-1 $660 -201.90557573168127 $443 201.90557573168127 $438 $661 forward 7 unknown #
coedge $-1 $433 $277 $659 $662 forward $442 $-1 #
coedge $-1 $277 $433 $655 $663 reversed $442 $-1 #
loop $-1 $-1 $440 $639 #
vertex $-1 $278 $664 #
vertex $-1 $278 $665 #
straight-curve $-1 201.90557573168127 0 100.95278786584063 0 1 0 I I #
loop $-1 $-1 $666 $182 #
coedge $-1 $447 $447 $282 $448 reversed $279 $-1 #
edge $-1 $667 0 $667 6.2831853071796004 $447 $668 forward 7 unknown #
vertex $-1 $283 $669 #
ellipse-curve $-1 0 0 -1.25 0 0 -1 0.5 0 0 1 I I #
loop $-1 $-1 $670 $187 #
coedge $-1 $452 $452 $287 $453 reversed $284 $-1 #
edge $-1 $671 0 $671 6.2831853071796004 $452 $672 forward 7 unknown #
vertex $-1 $288 $673 #
ellipse-curve $-1 0 0 -1.25 0 0 -1 0.5 0 0 1 I I #
face $-1 $674 $675 $62 $-1 $676 reversed single #
loop $-1 $-1 $677 $289 #
plane-surface $-1 -201.90557573168127 0 0 1 0 0 0 0 -1 forward_v I I I I #
coedge $-1 $678 $467 $679 $680 forward $290 $-1 #
coedge $-1 $681 $292 $678 $682 forward $193 $-1 #
coedge $-1 $292 $681 $683 $684 forward $193 $-1 #
coedge $-1 $470 $469 $292 $463 reversed $471 $-1 #
edge $-1 $685 -6.0547986091636954 $686 6.0547986091636954 $462 $687 forward 7 unknown #
coedge $-1 $294 $293 $688 $689 forward $123 $-1 #
coedge $-1 $690 $691 $293 $466 reversed $675 $-1 #
edge $-1 $473 -201.90557573168127 $692 201.90557573168127 $465 $693 forward 7 unknown #
coedge $-1 $459 $694 $294 $468 reversed $290 $-1 #
edge $-1 $695 -201.90557573168127 $472 201.90557573168127 $467 $696 forward 7 unknown #
coedge $-1 $462 $295 $694 $697 forward $471 $-1 #
coedge $-1 $295 $462 $690 $698 reversed $471 $-1 #
loop $-1 $-1 $469 $674 #
vertex $-1 $296 $699 #
vertex $-1 $296 $700 #
straight-curve $-1 201.90557573168127 0 100.95278786584063 0 1 0 I I #
loop $-1 $-1 $701 $196 #
coedge $-1 $476 $476 $300 $477 reversed $297 $-1 #
edge $-1 $702 0 $702 6.2831853071796004 $476 $703 forward 7 unknown #
vertex $-1 $301 $704 #
ellipse-curve $-1 0 0 -4.250328073976867 0 0 -1 1 0 0 1 I I #
face $-1 $-1 $317 $48 $-1 $705 reversed single #
loop $-1 $-1 $496 $302 #
plane-surface $-1 0 33.402195651914965 0 0 -1 0 0 0 -1 forward_v I I I I #
coedge $-1 $706 $494 $497 $707 forward $303 $-1 #
coedge $-1 $500 $305 $306 $488 reversed $202 $-1 #
coedge $-1 $494 $706 $305 $486 reversed $303 $-1 #
edge $-1 $501 -9.0752808383527128 $708 9.0752808383527128 $485 $709 forward 7 unknown #
coedge $-1 $307 $306 $706 $710 forward $129 $-1 #
edge $-1 $492 -50.476393932920317 $708 50.476393932920317 $484 $711 forward 7 unknown #
coedge $-1 $497 $496 $307 $490 reversed $481 $-1 #
edge $-1 $712 -50.476393932920317 $491 50.476393932920317 $489 $713 forward 7 unknown #
vertex $-1 $309 $714 #
vertex $-1 $503 $715 #
straight-curve $-1 50.476393932920317 0 -9.0752808383527128 0 -1 0 I I #
coedge $-1 $483 $485 $310 $495 reversed $303 $-1 #
edge $-1 $498 -33.402195651914965 $501 33.402195651914965 $494 $716 forward 7 unknown #
coedge $-1 $489 $311 $316 $504 forward $481 $-1 #
coedge $-1 $311 $489 $483 $707 reversed $481 $-1 #
vertex $-1 $312 $717 #
straight-curve $-1 0 33.402195651914965 9.0752808383527128 -1 0 0 I I #
coedge $-1 $313 $484 $315 $503 reversed $202 $-1 #
vertex $-1 $495 $718 #
straight-curve $-1 0 -33.402195651914965 9.0752808383527128 1 0 0 I I #
edge $-1 $318 -9.0752808383527128 $492 9.0752808383527128 $315 $719 forward 7 unknown #
edge $-1 $319 -9.0752808383527128 $491 9.0752808383527128 $316 $720 forward 7 unknown #
point $-1 50.476393932920317 -33.402195651914965 9.0752808383527128 #
point $-1 50.476393932920317 33.402195651914965 9.0752808383527128 #
face $-1 $-1 $336 $49 $-1 $721 reversed single #
loop $-1 $-1 $523 $321 #
plane-surface $-1 0 4.1779915291395966 0 0 -1 0 0 0 -1 forward_v I I I I #
coedge $-1 $722 $521 $524 $723 forward $322 $-1 #
coedge $-1 $527 $324 $325 $515 reversed $210 $-1 #
coedge $-1 $521 $722 $324 $513 reversed $322 $-1 #
edge $-1 $528 -1.9437613590393741 $724 1.9437613590393741 $512 $725 forward 7 unknown #
coedge $-1 $326 $325 $722 $726 forward $133 $-1 #
edge $-1 $519 -50.476393932920317 $724 50.476393932920317 $511 $727 forward 7 unknown #
coedge $-1 $524 $523 $326 $517 reversed $508 $-1 #
edge $-1 $728 -50.476393932920317 $518 50.476393932920317 $516 $729 forward 7 unknown #
vertex $-1 $328 $730 #
vertex $-1 $530 $731 #
straight-curve $-1 50.476393932920317 0 -1.9437613590393741 0 -1 0 I I #
coedge $-1 $510 $512 $329 $522 reversed $322 $-1 #
edge $-1 $525 -4.1779915291395966 $528 4.1779915291395966 $521 $732 forward 7 unknown #
coedge $-1 $516 $330 $335 $531 forward $508 $-1 #
coedge $-1 $330 $516 $510 $723 reversed $508 $-1 #
vertex $-1 $331 $733 #
straight-curve $-1 0 4.1779915291395966 1.9437613590393741 -1 0 0 I I #
coedge $-1 $332 $511 $334 $530 reversed $210 $-1 #
vertex $-1 $522 $734 #
straight-curve $-1 0 -4.1779915291395966 1.9437613590393741 1 0 0 I I #
edge $-1 $337 -1.9437613590393741 $519 1.9437613590393741 $334 $735 forward 7 unknown #
edge $-1 $338 -1.9437613590393741 $518 1.9437613590393741 $335 $736 forward 7 unknown #
point $-1 50.476393932920317 -4.1779915291395966 1.9437613590393741 #
point $-1 50.476393932920317 4.1779915291395966 1.9437613590393741 #
face $-1 $-1 $355 $50 $-1 $737 reversed single #
loop $-1 $-1 $550 $340 #
plane-surface $-1 0 4.140385208946137 0 0 -1 0 0 0 -1 forward_v I I I I #
coedge $-1 $738 $548 $551 $739 forward $341 $-1 #
coedge $-1 $554 $343 $344 $542 reversed $218 $-1 #
coedge $-1 $548 $738 $343 $540 reversed $341 $-1 #
edge $-1 $555 -100.95278786584063 $740 100.95278786584063 $539 $741 forward 7 unknown #
coedge $-1 $345 $344 $738 $742 forward $137 $-1 #
edge $-1 $546 -201.90557573168127 $740 201.90557573168127 $538 $743 forward 7 unknown #
coedge $-1 $551 $550 $345 $544 reversed $535 $-1 #
edge $-1 $744 -201.90557573168127 $545 201.90557573168127 $543 $745 forward 7 unknown #
vertex $-1 $347 $746 #
vertex $-1 $557 $747 #
straight-curve $-1 201.90557573168127 0 -100.95278786584063 0 -1 0 I I #
coedge $-1 $537 $539 $348 $549 reversed $341 $-1 #
edge $-1 $552 -4.140385208946137 $555 4.140385208946137 $548 $748 forward 7 unknown #
coedge $-1 $543 $349 $354 $558 forward $535 $-1 #
coedge $-1 $349 $543 $537 $739 reversed $535 $-1 #
vertex $-1 $350 $749 #
straight-curve $-1 0 4.140385208946137 100.95278786584063 -1 0 0 I I #
coedge $-1 $351 $538 $353 $557 reversed $218 $-1 #
vertex $-1 $549 $750 #
straight-curve $-1 0 -4.140385208946137 100.95278786584063 1 0 0 I I #
edge $-1 $356 -100.95278786584063 $546 100.95278786584063 $353 $751 forward 7 unknown #
edge $-1 $357 -100.95278786584063 $545 100.95278786584063 $354 $752 forward 7 unknown #
point $-1 201.90557573168127 -4.140385208946137 100.95278786584063 #
point $-1 201.90557573168127 4.140385208946137 100.95278786584063 #
coedge $-1 $561 $561 $-1 $753 reversed $359 $-1 #
vertex $-1 $361 $754 #
ellipse-curve $-1 0 0 -0.25 0 0 -1 0.5 0 0 1 I I #
point $-1 0.5 0 -1.25 #
coedge $-1 $565 $565 $-1 $755 reversed $364 $-1 #
vertex $-1 $366 $756 #
ellipse-curve $-1 0 0 -0.25 0 0 -1 0.5 0 0 1 I I #
point $-1 0.5 0 -1.25 #
face $-1 $-1 $384 $53 $-1 $757 reversed single #
loop $-1 $-1 $585 $369 #
plane-surface $-1 0 4.140385208946137 0 0 -1 0 0 0 -1 forward_v I I I I #
coedge $-1 $758 $583 $586 $759 forward $370 $-1 #
coedge $-1 $589 $372 $373 $577 reversed $236 $-1 #
coedge $-1 $583 $758 $372 $575 reversed $370 $-1 #
edge $-1 $590 -100.95278786584063 $760 100.95278786584063 $574 $761 forward 7 unknown #
coedge $-1 $374 $373 $758 $762 forward $151 $-1 #
edge $-1 $581 -201.90557573168127 $760 201.90557573168127 $573 $763 forward 7 unknown #
coedge $-1 $586 $585 $374 $579 reversed $570 $-1 #
edge $-1 $764 -201.90557573168127 $580 201.90557573168127 $578 $765 forward 7 unknown #
vertex $-1 $376 $766 #
vertex $-1 $592 $767 #
straight-curve $-1 201.90557573168127 0 -100.95278786584063 0 -1 0 I I #
coedge $-1 $572 $574 $377 $584 reversed $370 $-1 #
edge $-1 $587 -4.140385208946137 $590 4.140385208946137 $583 $768 forward 7 unknown #
coedge $-1 $578 $378 $383 $593 forward $570 $-1 #
coedge $-1 $378 $578 $572 $759 reversed $570 $-1 #
vertex $-1 $379 $769 #
straight-curve $-1 0 4.140385208946137 100.95278786584063 -1 0 0 I I #
coedge $-1 $380 $573 $382 $592 reversed $236 $-1 #
vertex $-1 $584 $770 #
straight-curve $-1 0 -4.140385208946137 100.95278786584063 1 0 0 I I #
edge $-1 $385 -100.95278786584063 $581 100.95278786584063 $382 $771 forward 7 unknown #
edge $-1 $386 -100.95278786584063 $580 100.95278786584063 $383 $772 forward 7 unknown #
point $-1 201.90557573168127 -4.140385208946137 100.95278786584063 #
point $-1 201.90557573168127 4.140385208946137 100.95278786584063 #
coedge $-1 $596 $596 $-1 $773 reversed $388 $-1 #
vertex $-1 $390 $774 #
ellipse-curve $-1 0 0 -0.25 0 0 -1 0.5 0 0 1 I I #
point $-1 0.5 0 -1.25 #
coedge $-1 $600 $600 $-1 $775 reversed $393 $-1 #
vertex $-1 $395 $776 #
ellipse-curve $-1 0 0 -0.25 0 0 -1 0.5 0 0 1 I I #
point $-1 0.5 0 -1.25 #
face $-1 $-1 $413 $56 $-1 $777 reversed single #
loop $-1 $-1 $620 $398 #
plane-surface $-1 0 4.140385208946137 0 0 -1 0 0 0 -1 forward_v I I I I #
coedge $-1 $778 $618 $621 $779 forward $399 $-1 #
coedge $-1 $624 $401 $402 $612 reversed $254 $-1 #
coedge $-1 $618 $778 $401 $610 reversed $399 $-1 #
edge $-1 $625 -100.95278786584063 $780 100.95278786584063 $609 $781 forward 7 unknown #
coedge $-1 $403 $402 $778 $782 forward $165 $-1 #
edge $-1 $616 -201.90557573168127 $780 201.90557573168127 $608 $783 forward 7 unknown #
coedge $-1 $621 $620 $403 $614 reversed $605 $-1 #
edge $-1 $784 -201.90557573168127 $615 201.90557573168127 $613 $785 forward 7 unknown #
vertex $-1 $405 $786 #
vertex $-1 $627 $787 #
straight-curve $-1 201.90557573168127 0 -100.95278786584063 0 -1 0 I I #
coedge $-1 $607 $609 $406 $619 reversed $399 $-1 #
edge $-1 $622 -4.140385208946137 $625 4.140385208946137 $618 $788 forward 7 unknown #
coedge $-1 $613 $407 $412 $628 forward $605 $-1 #
coedge $-1 $407 $613 $607 $779 reversed $605 $-1 #
vertex $-1 $408 $789 #
straight-curve $-1 0 4.140385208946137 100.95278786584063 -1 0 0 I I #
coedge $-1 $409 $608 $411 $627 reversed $254 $-1 #
vertex $-1 $619 $790 #
straight-curve $-1 0 -4.140385208946137 100.95278786584063 1 0 0 I I #
edge $-1 $414 -100.95278786584063 $616 100.95278786584063 $411 $791 forward 7 unknown #
edge $-1 $415 -100.95278786584063 $615 100.95278786584063 $412 $792 forward 7 unknown #
point $-1 201.90557573168127 -4.140385208946137 100.95278786584063 #
point $-1 201.90557573168127 4.140385208946137 100.95278786584063 #
coedge $-1 $631 $631 $-1 $793 reversed $417 $-1 #
vertex $-1 $419 $794 #
ellipse-curve $-1 0 0 -0.25 0 0 -1 0.5 0 0 1 I I #
point $-1 0.5 0 -1.25 #
coedge $-1 $635 $635 $-1 $795 reversed $422 $-1 #
vertex $-1 $424 $796 #
ellipse-curve $-1 0 0 -0.25 0 0 -1 0.5 0 0 1 I I #
point $-1 0.5 0 -1.25 #
face $-1 $-1 $442 $59 $-1 $797 reversed single #
loop $-1 $-1 $655 $427 #
plane-surface $-1 0 4.140385208946137 0 0 -1 0 0 0 -1 forward_v I I I I #
coedge $-1 $798 $653 $656 $799 forward $428 $-1 #
coedge $-1 $659 $430 $431 $647 reversed $272 $-1 #
coedge $-1 $653 $798 $430 $645 reversed $428 $-1 #
edge $-1 $660 -100.95278786584063 $800 100.95278786584063 $644 $801 forward 7 unknown #
coedge $-1 $432 $431 $798 $802 forward $179 $-1 #
edge $-1 $651 -201.90557573168127 $800 201.90557573168127 $643 $803 forward 7 unknown #
coedge $-1 $656 $655 $432 $649 reversed $640 $-1 #
edge $-1 $804 -201.90557573168127 $650 201.90557573168127 $648 $805 forward 7 unknown #
vertex $-1 $434 $806 #
vertex $-1 $662 $807 #
straight-curve $-1 201.90557573168127 0 -100.95278786584063 0 -1 0 I I #
coedge $-1 $642 $644 $435 $654 reversed $428 $-1 #
edge $-1 $657 -4.140385208946137 $660 4.140385208946137 $653 $808 forward 7 unknown #
coedge $-1 $648 $436 $441 $663 forward $640 $-1 #
coedge $-1 $436 $648 $642 $799 reversed $640 $-1 #
vertex $-1 $437 $809 #
straight-curve $-1 0 4.140385208946137 100.95278786584063 -1 0 0 I I #
coedge $-1 $438 $643 $440 $662 reversed $272 $-1 #
vertex $-1 $654 $810 #
straight-curve $-1 0 -4.140385208946137 100.95278786584063 1 0 0 I I #
edge $-1 $443 -100.95278786584063 $651 100.95278786584063 $440 $811 forward 7 unknown #
edge $-1 $444 -100.95278786584063 $650 100.95278786584063 $441 $812 forward 7 unknown #
point $-1 201.90557573168127 -4.140385208946137 100.95278786584063 #
point $-1 201.90557573168127 4.140385208946137 100.95278786584063 #
coedge $-1 $666 $666 $-1 $813 reversed $446 $-1 #
vertex $-1 $448 $814 #
ellipse-curve $-1 0 0 -0.25 0 0 -1 0.5 0 0 1 I I #
point $-1 0.5 0 -1.25 #
coedge $-1 $670 $670 $-1 $815 reversed $451 $-1 #
vertex $-1 $453 $816 #
ellipse-curve $-1 0 0 -0.25 0 0 -1 0.5 0 0 1 I I #
point $-1 0.5 0 -1.25 #
face $-1 $-1 $471 $62 $-1 $817 reversed single #
loop $-1 $-1 $690 $456 #
plane-surface $-1 0 6.0547986091636954 0 0 -1 0 0 0 -1 forward_v I I I I #
coedge $-1 $818 $688 $691 $819 forward $457 $-1 #
coedge $-1 $694 $459 $460 $682 reversed $290 $-1 #
coedge $-1 $688 $818 $459 $680 reversed $457 $-1 #
edge $-1 $695 -100.95278786584063 $820 100.95278786584063 $679 $821 forward 7 unknown #
coedge $-1 $461 $460 $818 $822 forward $193 $-1 #
edge $-1 $686 -201.90557573168127 $820 201.90557573168127 $678 $823 forward 7 unknown #
coedge $-1 $691 $690 $461 $684 reversed $675 $-1 #
edge $-1 $824 -201.90557573168127 $685 201.90557573168127 $683 $825 forward 7 unknown #
vertex $-1 $463 $826 #
vertex $-1 $697 $827 #
straight-curve $-1 201.90557573168127 0 -100.95278786584063 0 -1 0 I I #
coedge $-1 $677 $679 $464 $689 reversed $457 $-1 #
edge $-1 $692 -6.0547986091636954 $695 6.0547986091636954 $688 $828 forward 7 unknown #
coedge $-1 $683 $465 $470 $698 forward $675 $-1 #
coedge $-1 $465 $683 $677 $819 reversed $675 $-1 #
vertex $-1 $466 $829 #
straight-curve $-1 0 6.0547986091636954 100.95278786584063 -1 0 0 I I #
coedge $-1 $467 $678 $469 $697 reversed $290 $-1 #
vertex $-1 $689 $830 #
straight-curve $-1 0 -6.0547986091636954 100.95278786584063 1 0 0 I I #
edge $-1 $472 -100.95278786584063 $686 100.95278786584063 $469 $831 forward 7 unknown #
edge $-1 $473 -100.95278786584063 $685 100.95278786584063 $470 $832 forward 7 unknown #
point $-1 201.90557573168127 -6.0547986091636954 100.95278786584063 #
point $-1 201.90557573168127 6.0547986091636954 100.95278786584063 #
coedge $-1 $701 $701 $-1 $833 reversed $475 $-1 #
vertex $-1 $477 $834 #
ellipse-curve $-1 0 0 -0.5 0 0 -1 1 0 0 1 I I #
point $-1 1 0 -4.250328073976867 #
plane-surface $-1 50.476393932920317 0 0 -1 0 0 0 0 1 forward_v I I I I #
coedge $-1 $485 $483 $487 $710 reversed $303 $-1 #
edge $-1 $498 -9.0752808383527128 $712 9.0752808383527128 $497 $835 forward 7 unknown #
vertex $-1 $710 $836 #
straight-curve $-1 -50.476393932920317 -33.402195651914965 0 0 0 -1 I I #
edge $-1 $708 -33.402195651914965 $712 33.402195651914965 $706 $837 forward 7 unknown #
straight-curve $-1 0 -33.402195651914965 -9.0752808383527128 -1 0 0 I I #
vertex $-1 $490 $838 #
straight-curve $-1 0 33.402195651914965 -9.0752808383527128 1 0 0 I I #
point $-1 50.476393932920317 33.402195651914965 -9.0752808383527128 #
point $-1 50.476393932920317 -33.402195651914965 -9.0752808383527128 #
straight-curve $-1 -50.476393932920317 0 9.0752808383527128 0 -1 0 I I #
point $-1 -50.476393932920317 33.402195651914965 9.0752808383527128 #
point $-1 -50.476393932920317 -33.402195651914965 9.0752808383527128 #
straight-curve $-1 50.476393932920317 -33.402195651914965 0 0 0 -1 I I #
straight-curve $-1 50.476393932920317 33.402195651914965 0 0 0 -1 I I #
plane-surface $-1 50.476393932920317 0 0 -1 0 0 0 0 1 forward_v I I I I #
coedge $-1 $512 $510 $514 $726 reversed $322 $-1 #
edge $-1 $525 -1.9437613590393741 $728 1.9437613590393741 $524 $839 forward 7 unknown #
vertex $-1 $726 $840 #
straight-curve $-1 -50.476393932920317 -4.1779915291395966 0 0 0 -1 I I #
edge $-1 $724 -4.1779915291395966 $728 4.1779915291395966 $722 $841 forward 7 unknown #
straight-curve $-1 0 -4.1779915291395966 -1.9437613590393741 -1 0 0 I I #
vertex $-1 $517 $842 #
straight-curve $-1 0 4.1779915291395966 -1.9437613590393741 1 0 0 I I #
point $-1 50.476393932920317 4.1779915291395966 -1.9437613590393741 #
point $-1 50.476393932920317 -4.1779915291395966 -1.9437613590393741 #
straight-curve $-1 -50.476393932920317 0 1.9437613590393741 0 -1 0 I I #
point $-1 -50.476393932920317 4.1779915291395966 1.9437613590393741 #
point $-1 -50.476393932920317 -4.1779915291395966 1.9437613590393741 #
straight-curve $-1 50.476393932920317 -4.1779915291395966 0 0 0 -1 I I #
straight-curve $-1 50.476393932920317 4.1779915291395966 0 0 0 -1 I I #
plane-surface $-1 201.90557573168127 0 0 -1 0 0 0 0 1 forward_v I I I I #
coedge $-1 $539 $537 $541 $742 reversed $341 $-1 #
edge $-1 $552 -100.95278786584063 $744 100.95278786584063 $551 $843 forward 7 unknown #
vertex $-1 $742 $844 #
straight-curve $-1 -201.90557573168127 -4.140385208946137 0 0 0 -1 I I #
edge $-1 $740 -4.140385208946137 $744 4.140385208946137 $738 $845 forward 7 unknown #
straight-curve $-1 0 -4.140385208946137 -100.95278786584063 -1 0 0 I I #
vertex $-1 $544 $846 #
straight-curve $-1 0 4.140385208946137 -100.95278786584063 1 0 0 I I #
point $-1 201.90557573168127 4.140385208946137 -100.95278786584063 #
point $-1 201.90557573168127 -4.140385208946137 -100.95278786584063 #
straight-curve $-1 -201.90557573168127 0 100.95278786584063 0 -1 0 I I #
point $-1 -201.90557573168127 4.140385208946137 100.95278786584063 #
point $-1 -201.90557573168127 -4.140385208946137 100.95278786584063 #
straight-curve $-1 201.90557573168127 -4.140385208946137 0 0 0 -1 I I #
straight-curve $-1 201.90557573168127 4.140385208946137 0 0 0 -1 I I #
edge $-1 $847 1 $847 0 $561 $-1 forward 7 unknown #
point $-1 0.5 0 -0.25 #
edge $-1 $848 1 $848 0 $565 $-1 forward 7 unknown #
point $-1 0.5 0 -0.25 #
plane-surface $-1 201.90557573168127 0 0 -1 0 0 0 0 1 forward_v I I I I #
coedge $-1 $574 $572 $576 $762 reversed $370 $-1 #
edge $-1 $587 -100.95278786584063 $764 100.95278786584063 $586 $849 forward 7 unknown #
vertex $-1 $762 $850 #
straight-curve $-1 -201.90557573168127 -4.140385208946137 0 0 0 -1 I I #
edge $-1 $760 -4.140385208946137 $764 4.140385208946137 $758 $851 forward 7 unknown #
straight-curve $-1 0 -4.140385208946137 -100.95278786584063 -1 0 0 I I #
vertex $-1 $579 $852 #
straight-curve $-1 0 4.140385208946137 -100.95278786584063 1 0 0 I I #
point $-1 201.90557573168127 4.140385208946137 -100.95278786584063 #
point $-1 201.90557573168127 -4.140385208946137 -100.95278786584063 #
straight-curve $-1 -201.90557573168127 0 100.95278786584063 0 -1 0 I I #
point $-1 -201.90557573168127 4.140385208946137 100.95278786584063 #
point $-1 -201.90557573168127 -4.140385208946137 100.95278786584063 #
straight-curve $-1 201.90557573168127 -4.140385208946137 0 0 0 -1 I I #
straight-curve $-1 201.90557573168127 4.140385208946137 0 0 0 -1 I I #
edge $-1 $853 1 $853 0 $596 $-1 forward 7 unknown #
point $-1 0.5 0 -0.25 #
edge $-1 $854 1 $854 0 $600 $-1 forward 7 unknown #
point $-1 0.5 0 -0.25 #
plane-surface $-1 201.90557573168127 0 0 -1 0 0 0 0 1 forward_v I I I I #
coedge $-1 $609 $607 $611 $782 reversed $399 $-1 #
edge $-1 $622 -100.95278786584063 $784 100.95278786584063 $621 $855 forward 7 unknown #
vertex $-1 $782 $856 #
straight-curve $-1 -201.90557573168127 -4.140385208946137 0 0 0 -1 I I #
edge $-1 $780 -4.140385208946137 $784 4.140385208946137 $778 $857 forward 7 unknown #
straight-curve $-1 0 -4.140385208946137 -100.95278786584063 -1 0 0 I I #
vertex $-1 $614 $858 #
straight-curve $-1 0 4.140385208946137 -100.95278786584063 1 0 0 I I #
point $-1 201.90557573168127 4.140385208946137 -100.95278786584063 #
point $-1 201.90557573168127 -4.140385208946137 -100.95278786584063 #
straight-curve $-1 -201.90557573168127 0 100.95278786584063 0 -1 0 I I #
point $-1 -201.90557573168127 4.140385208946137 100.95278786584063 #
point $-1 -201.90557573168127 -4.140385208946137 100.95278786584063 #
straight-curve $-1 201.90557573168127 -4.140385208946137 0 0 0 -1 I I #
straight-curve $-1 201.90557573168127 4.140385208946137 0 0 0 -1 I I #
edge $-1 $859 1 $859 0 $631 $-1 forward 7 unknown #
point $-1 0.5 0 -0.25 #
edge $-1 $860 1 $860 0 $635 $-1 forward 7 unknown #
point $-1 0.5 0 -0.25 #
plane-surface $-1 201.90557573168127 0 0 -1 0 0 0 0 1 forward_v I I I I #
coedge $-1 $644 $642 $646 $802 reversed $428 $-1 #
edge $-1 $657 -100.95278786584063 $804 100.95278786584063 $656 $861 forward 7 unknown #
vertex $-1 $802 $862 #
straight-curve $-1 -201.90557573168127 -4.140385208946137 0 0 0 -1 I I #
edge $-1 $800 -4.140385208946137 $804 4.140385208946137 $798 $863 forward 7 unknown #
straight-curve $-1 0 -4.140385208946137 -100.95278786584063 -1 0 0 I I #
vertex $-1 $649 $864 #
straight-curve $-1 0 4.140385208946137 -100.95278786584063 1 0 0 I I #
point $-1 201.90557573168127 4.140385208946137 -100.95278786584063 #
point $-1 201.90557573168127 -4.140385208946137 -100.95278786584063 #
straight-curve $-1 -201.90557573168127 0 100.95278786584063 0 -1 0 I I #
point $-1 -201.90557573168127 4.140385208946137 100.95278786584063 #
point $-1 -201.90557573168127 -4.140385208946137 100.95278786584063 #
straight-curve $-1 201.90557573168127 -4.140385208946137 0 0 0 -1 I I #
straight-curve $-1 201.90557573168127 4.140385208946137 0 0 0 -1 I I #
edge $-1 $865 1 $865 0 $666 $-1 forward 7 unknown #
point $-1 0.5 0 -0.25 #
edge $-1 $866 1 $866 0 $670 $-1 forward 7 unknown #
point $-1 0.5 0 -0.25 #
plane-surface $-1 201.90557573168127 0 0 -1 0 0 0 0 1 forward_v I I I I #
coedge $-1 $679 $677 $681 $822 reversed $457 $-1 #
edge $-1 $692 -100.95278786584063 $824 100.95278786584063 $691 $867 forward 7 unknown #
vertex $-1 $822 $868 #
straight-curve $-1 -201.90557573168127 -6.0547986091636954 0 0 0 -1 I I #
edge $-1 $820 -6.0547986091636954 $824 6.0547986091636954 $818 $869 forward 7 unknown #
straight-curve $-1 0 -6.0547986091636954 -100.95278786584063 -1 0 0 I I #
vertex $-1 $684 $870 #
straight-curve $-1 0 6.0547986091636954 -100.95278786584063 1 0 0 I I #
point $-1 201.90557573168127 6.0547986091636954 -100.95278786584063 #
point $-1 201.90557573168127 -6.0547986091636954 -100.95278786584063 #
straight-curve $-1 -201.90557573168127 0 100.95278786584063 0 -1 0 I I #
point $-1 -201.90557573168127 6.0547986091636954 100.95278786584063 #
point $-1 -201.90557573168127 -6.0547986091636954 100.95278786584063 #
straight-curve $-1 201.90557573168127 -6.0547986091636954 0 0 0 -1 I I #
straight-curve $-1 201.90557573168127 6.0547986091636954 0 0 0 -1 I I #
edge $-1 $871 1 $871 0 $701 $-1 forward 7 unknown #
point $-1 1 0 -0.5 #
straight-curve $-1 -50.476393932920317 33.402195651914965 0 0 0 -1 I I #
point $-1 -50.476393932920317 -33.402195651914965 -9.0752808383527128 #
straight-curve $-1 -50.476393932920317 0 -9.0752808383527128 0 1 0 I I #
point $-1 -50.476393932920317 33.402195651914965 -9.0752808383527128 #
straight-curve $-1 -50.476393932920317 4.1779915291395966 0 0 0 -1 I I #
point $-1 -50.476393932920317 -4.1779915291395966 -1.9437613590393741 #
straight-curve $-1 -50.476393932920317 0 -1.9437613590393741 0 1 0 I I #
point $-1 -50.476393932920317 4.1779915291395966 -1.9437613590393741 #
straight-curve $-1 -201.90557573168127 4.140385208946137 0 0 0 -1 I I #
point $-1 -201.90557573168127 -4.140385208946137 -100.95278786584063 #
straight-curve $-1 -201.90557573168127 0 -100.95278786584063 0 1 0 I I #
point $-1 -201.90557573168127 4.140385208946137 -100.95278786584063 #
vertex $-1 $753 $872 #
vertex $-1 $755 $873 #
straight-curve $-1 -201.90557573168127 4.140385208946137 0 0 0 -1 I I #
point $-1 -201.90557573168127 -4.140385208946137 -100.95278786584063 #
straight-curve $-1 -201.90557573168127 0 -100.95278786584063 0 1 0 I I #
point $-1 -201.90557573168127 4.140385208946137 -100.95278786584063 #
vertex $-1 $773 $874 #
vertex $-1 $775 $875 #
straight-curve $-1 -201.90557573168127 4.140385208946137 0 0 0 -1 I I #
point $-1 -201.90557573168127 -4.140385208946137 -100.95278786584063 #
straight-curve $-1 -201.90557573168127 0 -100.95278786584063 0 1 0 I I #
point $-1 -201.90557573168127 4.140385208946137 -100.95278786584063 #
vertex $-1 $793 $876 #
vertex $-1 $795 $877 #
straight-curve $-1 -201.90557573168127 4.140385208946137 0 0 0 -1 I I #
point $-1 -201.90557573168127 -4.140385208946137 -100.95278786584063 #
straight-curve $-1 -201.90557573168127 0 -100.95278786584063 0 1 0 I I #
point $-1 -201.90557573168127 4.140385208946137 -100.95278786584063 #
vertex $-1 $813 $878 #
vertex $-1 $815 $879 #
straight-curve $-1 -201.90557573168127 6.0547986091636954 0 0 0 -1 I I #
point $-1 -201.90557573168127 -6.0547986091636954 -100.95278786584063 #
straight-curve $-1 -201.90557573168127 0 -100.95278786584063 0 1 0 I I #
point $-1 -201.90557573168127 6.0547986091636954 -100.95278786584063 #
vertex $-1 $833 $880 #
point $-1 0 0 0.25 #
point $-1 0 0 0.25 #
point $-1 0 0 0.25 #
point $-1 0 0 0.25 #
point $-1 0 0 0.25 #
point $-1 0 0 0.25 #
point $-1 0 0 0.25 #
point $-1 0 0 0.25 #
point $-1 0 0 0.5 #
End-of-ACIS-data 