500 0 8 0           
7 Unknown 11 ACIS 5.0 NT 24 Fri Mar 26 14:24:06 1999 
-1 9.9999999999999995e-007 1e-010 
body $-1 $8 $-1 $9 #
body $-1 $10 $-1 $11 #
body $-1 $12 $-1 $13 #
body $-1 $14 $-1 $15 #
body $-1 $16 $-1 $17 #
body $-1 $18 $-1 $19 #
body $-1 $20 $-1 $21 #
body $-1 $22 $-1 $23 #
lump $-1 $-1 $24 $0 #
transform $-1 1 0 0 0 1 0 0 0 1 54.039735099337747 35.31144664404524 11.77917527994849 1 rotate no_reflect no_shear #
lump $-1 $-1 $25 $1 #
transform $-1 1 0 0 0 1 0 0 0 1 54.039735099337747 35.31144664404524 11.77917527994849 1 rotate no_reflect no_shear #
lump $-1 $-1 $26 $2 #
transform $-1 1 0 0 0 1 0 0 0 1 54.039735099337747 35.31144664404524 11.77917527994849 1 rotate no_reflect no_shear #
lump $-1 $-1 $27 $3 #
transform $-1 1 0 0 0 1 0 0 0 1 54.039735099337747 35.31144664404524 11.77917527994849 1 rotate no_reflect no_shear #
lump $-1 $-1 $28 $4 #
transform $-1 1 0 0 0 1 0 0 0 1 54.039735099337747 35.31144664404524 11.77917527994849 1 rotate no_reflect no_shear #
lump $-1 $-1 $29 $5 #
transform $-1 1 0 0 0 1 0 0 0 1 54.039735099337747 35.31144664404524 11.77917527994849 1 rotate no_reflect no_shear #
lump $-1 $-1 $30 $6 #
transform $-1 1 0 0 0 1 0 0 0 1 54.039735099337747 35.31144664404524 11.77917527994849 1 rotate no_reflect no_shear #
lump $-1 $-1 $31 $7 #
transform $-1 1 0 0 0 1 0 0 0 1 54.039735099337747 35.31144664404524 11.77917527994849 1 rotate no_reflect no_shear #
shell $-1 $-1 $-1 $32 $-1 $8 #
shell $-1 $-1 $-1 $33 $-1 $10 #
shell $-1 $-1 $-1 $34 $-1 $12 #
shell $-1 $-1 $-1 $35 $-1 $14 #
shell $-1 $-1 $-1 $36 $-1 $16 #
shell $-1 $-1 $-1 $37 $-1 $18 #
shell $-1 $-1 $-1 $38 $-1 $20 #
shell $-1 $-1 $-1 $39 $-1 $22 #
face $-1 $40 $41 $24 $-1 $42 forward single #
face $-1 $43 $44 $25 $-1 $45 reversed single #
face $-1 $46 $47 $26 $-1 $48 reversed single #
face $-1 $49 $50 $27 $-1 $51 forward single #
face $-1 $52 $53 $28 $-1 $54 forward single #
face $-1 $55 $56 $29 $-1 $57 reversed single #
face $-1 $58 $59 $30 $-1 $60 forward single #
face $-1 $61 $62 $31 $-1 $63 forward single #
face $-1 $64 $65 $24 $-1 $66 reversed single #
loop $-1 $-1 $67 $32 #
plane-surface $-1 0 0 11.77917527994849 0 0 1 1 0 0 forward_v I I I I #
face $-1 $68 $69 $25 $-1 $70 reversed single #
loop $-1 $-1 $71 $33 #
plane-surface $-1 -49.722694500193491 -31.414149031202026 0 0 -1 0 0 0 -1 forward_v I I I I #
face $-1 $72 $73 $26 $-1 $74 reversed single #
loop $-1 $-1 $75 $34 #
plane-surface $-1 25.061053995476357 -101.85181355342658 86.194213763489131 -1 0 0 0 -0.61566148304635926 0.78801074757464917 forward_v I I I I #
face $-1 $76 $77 $27 $-1 $78 forward single #
loop $-1 $79 $80 $35 #
cone-surface $-1 7.7752048321154419 -25.044729530489008 2.0698496057125748 0 0.61566148304635926 -0.78801074757464917 3 0 0 1 I I 0 1 3 forward I I I I #
face $-1 $81 $82 $28 $-1 $83 forward single #
loop $-1 $84 $85 $36 #
cone-surface $-1 18.146714330131985 -25.044729530489008 2.0698496057125748 0 0.61566148304635926 -0.78801074757464917 3 0 0 1 I I 0 1 3 forward I I I I #
face $-1 $86 $87 $29 $-1 $88 reversed single #
loop $-1 $-1 $89 $37 #
plane-surface $-1 0.86086516677107738 46.200214617593737 129.67400898225969 1 0 0 0 -0.61566148304635926 -0.78801074757464917 forward_v I I I I #
face $-1 $90 $91 $30 $-1 $92 forward single #
loop $-1 $93 $94 $38 #
cone-surface $-1 7.7752048321154419 25.044729530489022 2.0698496057125713 0 -0.61566148304635926 -0.78801074757464917 3 0 0 1 I I 0 1 3 forward I I I I #
face $-1 $95 $96 $31 $-1 $97 forward single #
loop $-1 $98 $99 $39 #
cone-surface $-1 18.146714330131985 25.044729530489022 2.0698496057125713 0 -0.61566148304635926 -0.78801074757464917 3 0 0 1 I I 0 1 3 forward I I I I #
face $-1 $100 $101 $24 $-1 $102 reversed single #
loop $-1 $-1 $103 $40 #
plane-surface $-1 0 0 -11.77917527994849 0 0 1 1 0 0 forward_v I I I I #
coedge $-1 $104 $105 $106 $107 forward $41 $-1 #
face $-1 $108 $109 $25 $-1 $110 forward single #
loop $-1 $-1 $111 $43 #
plane-surface $-1 -45.405653901049234 -33.362797837623631 0 -1 0 0 0 0 1 forward_v I I I I #
coedge $-1 $112 $113 $114 $115 forward $44 $-1 #
face $-1 $116 $117 $26 $-1 $118 reversed single #
loop $-1 $-1 $119 $46 #
plane-surface $-1 12.960959581123717 -35.311446644045233 1.026429654758843 0 -0.61566148304635926 0.78801074757464917 1 0 0 forward_v I I I I #
coedge $-1 $120 $121 $122 $123 reversed $47 $-1 #
face $-1 $-1 $124 $27 $-1 $125 forward single #
loop $-1 $126 $127 $49 #
cone-surface $-1 7.7752048321154419 -20.735963446421493 -3.4451193772904851 0 0.61566148304635926 -0.78801074757464917 1.5 0 0 1 I I -0.70710678118654757 0.70710678118654757 1.5 forward I I I I #
loop $-1 $-1 $128 $35 #
coedge $-1 $80 $80 $129 $130 reversed $50 $-1 #
face $-1 $-1 $131 $28 $-1 $132 forward single #
loop $-1 $133 $134 $52 #
cone-surface $-1 18.146714330131985 -20.735963446421493 -3.4451193772904851 0 0.61566148304635926 -0.78801074757464917 1.5 0 0 1 I I -0.70710678118654757 0.70710678118654757 1.5 forward I I I I #
loop $-1 $-1 $135 $36 #
coedge $-1 $85 $85 $136 $137 reversed $53 $-1 #
face $-1 $138 $139 $29 $-1 $140 reversed single #
loop $-1 $-1 $141 $55 #
plane-surface $-1 12.960959581123717 -20.340152291787611 44.506224873529405 0 0.61566148304635926 0.78801074757464917 1 0 0 forward_v I I I I #
coedge $-1 $142 $143 $144 $145 reversed $56 $-1 #
face $-1 $-1 $146 $30 $-1 $147 forward single #
loop $-1 $148 $149 $58 #
cone-surface $-1 7.7752048321154419 20.735963446421508 -3.4451193772904887 0 -0.61566148304635926 -0.78801074757464917 1.5 0 0 1 I I -0.70710678118654757 0.70710678118654757 1.5 forward I I I I #
loop $-1 $-1 $150 $38 #
coedge $-1 $94 $94 $151 $152 reversed $59 $-1 #
face $-1 $-1 $153 $31 $-1 $154 forward single #
loop $-1 $155 $156 $61 #
cone-surface $-1 18.146714330131985 20.735963446421508 -3.4451193772904887 0 -0.61566148304635926 -0.78801074757464917 1.5 0 0 1 I I -0.70710678118654757 0.70710678118654757 1.5 forward I I I I #
loop $-1 $-1 $157 $39 #
coedge $-1 $99 $99 $158 $159 reversed $62 $-1 #
face $-1 $160 $161 $24 $-1 $162 reversed single #
loop $-1 $-1 $163 $64 #
plane-surface $-1 0 -35.31144664404524 0 0 1 0 0 0 1 forward_v I I I I #
coedge $-1 $164 $165 $166 $167 forward $65 $-1 #
coedge $-1 $168 $67 $169 $170 forward $41 $-1 #
coedge $-1 $67 $168 $171 $172 forward $41 $-1 #
coedge $-1 $173 $174 $67 $107 reversed $175 $-1 #
edge $-1 $176 -35.31144664404524 $177 35.31144664404524 $106 $178 forward 7 unknown #
face $-1 $179 $180 $25 $-1 $181 reversed single #
loop $-1 $-1 $182 $68 #
plane-surface $-1 0 0 11.77917527994849 0 0 1 1 0 0 forward_v I I I I #
coedge $-1 $183 $184 $185 $186 reversed $69 $-1 #
coedge $-1 $187 $71 $188 $189 reversed $44 $-1 #
coedge $-1 $71 $187 $190 $191 reversed $44 $-1 #
coedge $-1 $184 $183 $71 $115 reversed $69 $-1 #
edge $-1 $192 -11.77917527994849 $193 11.77917527994849 $114 $194 forward 7 unknown #
face $-1 $195 $196 $26 $-1 $197 forward single #
loop $-1 $-1 $198 $72 #
plane-surface $-1 0.86086516677107738 -101.85181355342658 86.194213763489131 1 0 0 0 0.61566148304635926 -0.78801074757464917 forward_v I I I I #
coedge $-1 $199 $200 $201 $202 reversed $73 $-1 #
coedge $-1 $121 $75 $203 $204 reversed $47 $-1 #
coedge $-1 $75 $120 $199 $205 reversed $47 $-1 #
coedge $-1 $201 $206 $75 $123 forward $196 $-1 #
edge $-1 $207 15.61446013266805 $208 29.377346640784559 $122 $209 forward 7 unknown #
loop $-1 $-1 $129 $76 #
plane-surface $-1 12.960959581123717 -35.311446644045233 1.026429654758843 0 -0.61566148304635926 0.78801074757464917 1 0 0 forward_v I I I I #
loop $-1 $-1 $210 $49 #
coedge $-1 $127 $127 $128 $211 reversed $77 $-1 #
coedge $-1 $128 $128 $127 $211 forward $79 $-1 #
coedge $-1 $129 $129 $80 $130 forward $124 $-1 #
edge $-1 $212 2.0410252987362051e-016 $212 6.2831853071796004 $129 $213 forward 7 unknown #
loop $-1 $-1 $136 $81 #
plane-surface $-1 12.960959581123717 -35.311446644045233 1.026429654758843 0 -0.61566148304635926 0.78801074757464917 1 0 0 forward_v I I I I #
loop $-1 $-1 $214 $52 #
coedge $-1 $134 $134 $135 $215 reversed $82 $-1 #
coedge $-1 $135 $135 $134 $215 forward $84 $-1 #
coedge $-1 $136 $136 $85 $137 forward $131 $-1 #
edge $-1 $216 2.0410252987362051e-016 $216 6.2831853071796004 $136 $217 forward 7 unknown #
face $-1 $218 $219 $29 $-1 $220 reversed single #
loop $-1 $-1 $221 $86 #
plane-surface $-1 25.061053995476357 46.200214617593737 129.67400898225969 -1 0 0 0 0.61566148304635926 0.78801074757464917 forward_v I I I I #
coedge $-1 $222 $223 $224 $225 reversed $87 $-1 #
coedge $-1 $143 $89 $226 $227 reversed $56 $-1 #
coedge $-1 $89 $142 $222 $228 reversed $56 $-1 #
coedge $-1 $224 $229 $89 $145 forward $230 $-1 #
edge $-1 $231 -12.211339335248372 $232 1.5515471728681227 $144 $233 forward 7 unknown #
loop $-1 $-1 $151 $90 #
plane-surface $-1 12.960959581123717 -20.340152291787611 44.506224873529405 0 0.61566148304635926 0.78801074757464917 1 0 0 forward_v I I I I #
loop $-1 $-1 $234 $58 #
coedge $-1 $149 $149 $150 $235 reversed $91 $-1 #
coedge $-1 $150 $150 $149 $235 forward $93 $-1 #
coedge $-1 $151 $151 $94 $152 forward $146 $-1 #
edge $-1 $236 -4.3660231025673854e-017 $236 6.2831853071796004 $151 $237 forward 7 unknown #
loop $-1 $-1 $158 $95 #
plane-surface $-1 12.960959581123717 -20.340152291787611 44.506224873529405 0 0.61566148304635926 0.78801074757464917 1 0 0 forward_v I I I I #
loop $-1 $-1 $238 $61 #
coedge $-1 $156 $156 $157 $239 reversed $96 $-1 #
coedge $-1 $157 $157 $156 $239 forward $98 $-1 #
coedge $-1 $158 $158 $99 $159 forward $153 $-1 #
edge $-1 $240 -4.3660231025673854e-017 $240 6.2831853071796004 $158 $241 forward 7 unknown #
face $-1 $242 $243 $24 $-1 $244 reversed single #
loop $-1 $-1 $245 $100 #
plane-surface $-1 -54.039735099337747 0 0 1 0 0 0 0 -1 forward_v I I I I #
coedge $-1 $246 $171 $247 $248 forward $101 $-1 #
coedge $-1 $249 $103 $246 $250 forward $65 $-1 #
coedge $-1 $103 $249 $251 $252 forward $65 $-1 #
coedge $-1 $174 $173 $103 $167 reversed $175 $-1 #
edge $-1 $253 -35.31144664404524 $254 35.31144664404524 $166 $255 forward 7 unknown #
coedge $-1 $105 $104 $256 $257 forward $41 $-1 #
coedge $-1 $258 $259 $104 $170 reversed $243 $-1 #
edge $-1 $177 -54.039735099337747 $260 54.039735099337747 $169 $261 forward 7 unknown #
coedge $-1 $163 $262 $105 $172 reversed $101 $-1 #
edge $-1 $263 -54.039735099337747 $176 54.039735099337747 $171 $264 forward 7 unknown #
coedge $-1 $166 $106 $262 $265 forward $175 $-1 #
coedge $-1 $106 $166 $258 $266 reversed $175 $-1 #
loop $-1 $-1 $173 $242 #
vertex $-1 $107 $267 #
vertex $-1 $107 $268 #
straight-curve $-1 54.039735099337747 0 11.77917527994849 0 1 0 I I #
face $-1 $269 $270 $25 $-1 $271 reversed single #
loop $-1 $-1 $272 $108 #
plane-surface $-1 -54.039735099337747 0 0 1 0 0 0 0 -1 forward_v I I I I #
coedge $-1 $190 $273 $184 $274 forward $109 $-1 #
coedge $-1 $114 $111 $275 $276 reversed $69 $-1 #
coedge $-1 $111 $114 $182 $274 reversed $69 $-1 #
coedge $-1 $277 $278 $111 $186 forward $279 $-1 #
edge $-1 $280 -11.77917527994849 $281 11.77917527994849 $185 $282 forward 7 unknown #
coedge $-1 $113 $112 $272 $283 reversed $44 $-1 #
coedge $-1 $275 $284 $112 $189 forward $270 $-1 #
edge $-1 $285 -29.178387849241002 $193 -20.544306650952489 $188 $286 forward 7 unknown #
coedge $-1 $287 $182 $113 $191 forward $109 $-1 #
edge $-1 $192 20.544306650952489 $288 29.178387849241002 $190 $289 forward 7 unknown #
vertex $-1 $191 $290 #
vertex $-1 $189 $291 #
straight-curve $-1 -45.405653901049234 -31.414149031202026 0 0 0 -1 I I #
face $-1 $-1 $292 $26 $-1 $293 reversed single #
loop $-1 $-1 $122 $116 #
plane-surface $-1 0 0 11.77917527994849 0 0 1 1 0 0 forward_v I I I I #
coedge $-1 $294 $295 $296 $297 reversed $117 $-1 #
coedge $-1 $298 $119 $121 $205 forward $73 $-1 #
coedge $-1 $119 $298 $294 $299 forward $73 $-1 #
coedge $-1 $296 $122 $119 $202 forward $196 $-1 #
edge $-1 $208 -18.580574204914498 $300 5.6196146237907811 $201 $301 forward 7 unknown #
coedge $-1 $302 $303 $120 $204 forward $292 $-1 #
edge $-1 $304 -42.07067722698573 $207 -31.317931601796076 $203 $305 forward 7 unknown #
edge $-1 $208 -17.46535380447045 $304 9.0167608931652224e-015 $121 $306 forward 7 unknown #
coedge $-1 $122 $296 $302 $307 forward $196 $-1 #
vertex $-1 $204 $308 #
vertex $-1 $123 $309 #
straight-curve $-1 25.061053995476357 -50.92590677671329 11.77917527994849 0 1 0 I I #
coedge $-1 $210 $210 $-1 $310 reversed $126 $-1 #
edge $-1 $311 0 $311 6.2831853071796004 $127 $312 forward 7 unknown #
vertex $-1 $130 $313 #
ellipse-curve $-1 7.7752048321154419 -28.430003389986986 6.4028024673536645 0 -0.61566148304635926 0.78801074757464917 3 0 0 1 I I #
coedge $-1 $214 $214 $-1 $314 reversed $133 $-1 #
edge $-1 $315 0 $315 6.2831853071796004 $134 $316 forward 7 unknown #
vertex $-1 $137 $317 #
ellipse-curve $-1 18.146714330131985 -28.430003389986986 6.4028024673536645 0 -0.61566148304635926 0.78801074757464917 3 0 0 1 I I #
face $-1 $-1 $230 $29 $-1 $318 forward single #
loop $-1 $-1 $319 $138 #
plane-surface $-1 0 35.31144664404524 0 0 -1 0 0 0 -1 forward_v I I I I #
coedge $-1 $320 $321 $322 $323 reversed $139 $-1 #
coedge $-1 $324 $141 $143 $228 forward $87 $-1 #
coedge $-1 $141 $324 $320 $325 forward $87 $-1 #
coedge $-1 $322 $144 $141 $225 forward $230 $-1 #
edge $-1 $232 -5.6196146237907811 $326 18.580574204914498 $224 $327 forward 7 unknown #
coedge $-1 $328 $329 $142 $227 forward $219 $-1 #
edge $-1 $330 -63.810574836370996 $231 -53.057829211181357 $226 $331 forward 7 unknown #
edge $-1 $232 53.157539483620042 $330 70.622893288090467 $143 $332 forward 7 unknown #
coedge $-1 $144 $322 $328 $333 forward $230 $-1 #
loop $-1 $-1 $322 $218 #
vertex $-1 $227 $334 #
vertex $-1 $145 $335 #
straight-curve $-1 0.86086516677107738 23.100107308796868 11.77917527994849 0 -1 0 I I #
coedge $-1 $234 $234 $-1 $336 reversed $148 $-1 #
edge $-1 $337 0 $337 6.2831853071796004 $149 $338 forward 7 unknown #
vertex $-1 $152 $339 #
ellipse-curve $-1 7.7752048321154419 28.430003389987004 6.4028024673536663 0 0.61566148304635926 0.78801074757464917 3 0 0 1 I I #
coedge $-1 $238 $238 $-1 $340 reversed $155 $-1 #
edge $-1 $341 0 $341 6.2831853071796004 $156 $342 forward 7 unknown #
vertex $-1 $159 $343 #
ellipse-curve $-1 18.146714330131985 28.430003389987004 6.4028024673536663 0 0.61566148304635926 0.78801074757464917 3 0 0 1 I I #
face $-1 $-1 $175 $24 $-1 $344 reversed single #
loop $-1 $-1 $258 $160 #
plane-surface $-1 0 35.31144664404524 0 0 -1 0 0 0 -1 forward_v I I I I #
coedge $-1 $345 $256 $259 $346 forward $161 $-1 #
coedge $-1 $262 $163 $164 $250 reversed $101 $-1 #
coedge $-1 $256 $345 $163 $248 reversed $161 $-1 #
edge $-1 $263 -11.77917527994849 $347 11.77917527994849 $247 $348 forward 7 unknown #
coedge $-1 $165 $164 $345 $349 forward $65 $-1 #
edge $-1 $254 -54.039735099337747 $347 54.039735099337747 $246 $350 forward 7 unknown #
coedge $-1 $259 $258 $165 $252 reversed $243 $-1 #
edge $-1 $351 -54.039735099337747 $253 54.039735099337747 $251 $352 forward 7 unknown #
vertex $-1 $167 $353 #
vertex $-1 $265 $354 #
straight-curve $-1 54.039735099337747 0 -11.77917527994849 0 -1 0 I I #
coedge $-1 $245 $247 $168 $257 reversed $161 $-1 #
edge $-1 $260 -35.31144664404524 $263 35.31144664404524 $256 $355 forward 7 unknown #
coedge $-1 $251 $169 $174 $266 forward $243 $-1 #
coedge $-1 $169 $251 $245 $346 reversed $243 $-1 #
vertex $-1 $170 $356 #
straight-curve $-1 0 35.31144664404524 11.77917527994849 -1 0 0 I I #
coedge $-1 $171 $246 $173 $265 reversed $101 $-1 #
vertex $-1 $257 $357 #
straight-curve $-1 0 -35.31144664404524 11.77917527994849 1 0 0 I I #
edge $-1 $176 -11.77917527994849 $254 11.77917527994849 $173 $358 forward 7 unknown #
edge $-1 $177 -11.77917527994849 $253 11.77917527994849 $174 $359 forward 7 unknown #
point $-1 54.039735099337747 -35.31144664404524 11.77917527994849 #
point $-1 54.039735099337747 35.31144664404524 11.77917527994849 #
face $-1 $-1 $279 $25 $-1 $360 reversed single #
loop $-1 $-1 $275 $179 #
plane-surface $-1 0 0 -11.77917527994849 0 0 1 1 0 0 forward_v I I I I #
coedge $-1 $361 $362 $187 $283 forward $180 $-1 #
coedge $-1 $182 $287 $277 $363 forward $109 $-1 #
edge $-1 $281 -18.630047725233425 $192 -14.73275011239021 $182 $364 forward 7 unknown #
coedge $-1 $365 $188 $183 $276 forward $270 $-1 #
edge $-1 $193 14.73275011239021 $280 18.630047725233425 $275 $366 forward 7 unknown #
coedge $-1 $367 $185 $273 $363 reversed $279 $-1 #
coedge $-1 $185 $367 $365 $368 reversed $279 $-1 #
loop $-1 $-1 $185 $269 #
vertex $-1 $368 $369 #
vertex $-1 $186 $370 #
straight-curve $-1 -45.405653901049234 -35.31144664404524 0 0 0 1 I I #
edge $-1 $288 -11.77917527994849 $285 11.77917527994849 $272 $371 forward 7 unknown #
coedge $-1 $188 $365 $361 $372 forward $270 $-1 #
vertex $-1 $189 $373 #
straight-curve $-1 -24.861347250096745 -31.414149031202026 -11.77917527994849 1 0 0 I I #
coedge $-1 $273 $190 $362 $374 forward $109 $-1 #
vertex $-1 $374 $375 #
straight-curve $-1 -24.861347250096745 -31.414149031202026 11.77917527994849 -1 0 0 I I #
point $-1 -45.405653901049234 -31.414149031202026 11.77917527994849 #
point $-1 -45.405653901049234 -31.414149031202026 -11.77917527994849 #
loop $-1 $-1 $203 $195 #
plane-surface $-1 0 -35.31144664404524 0 0 1 0 0 0 1 forward_v I I I I #
coedge $-1 $295 $198 $200 $299 reversed $117 $-1 #
coedge $-1 $198 $294 $376 $377 reversed $117 $-1 #
coedge $-1 $206 $201 $198 $297 forward $196 $-1 #
edge $-1 $300 -29.377346640784559 $378 -15.61446013266805 $296 $379 forward 7 unknown #
coedge $-1 $200 $199 $303 $380 reversed $73 $-1 #
edge $-1 $381 -9.0167608931652224e-015 $300 17.46535380447045 $294 $382 forward 7 unknown #
vertex $-1 $202 $383 #
straight-curve $-1 6.4804797905618585 -21.548560135928735 11.77917527994849 -1 0 0 I I #
coedge $-1 $376 $203 $206 $307 reversed $292 $-1 #
coedge $-1 $203 $376 $298 $380 forward $292 $-1 #
vertex $-1 $204 $384 #
straight-curve $-1 25.061053995476357 -35.31144664404524 43.097106881744565 0 0 1 I I #
straight-curve $-1 25.061053995476357 -35.311446644045233 1.026429654758843 0 -0.78801074757464917 -0.61566148304635926 I I #
edge $-1 $378 0.86086516677107738 $207 25.061053995476357 $302 $385 forward 7 unknown #
point $-1 25.061053995476357 -35.31144664404524 11.77917527994849 #
point $-1 25.061053995476357 -21.548560135928732 11.779175279948491 #
edge $-1 $386 1 $386 0 $210 $-1 forward 7 unknown #
vertex $-1 $211 $387 #
ellipse-curve $-1 7.7752048321154419 -21.659455670991033 -2.2631032559285114 0 -0.61566148304635926 0.78801074757464917 3 0 0 1 I I #
point $-1 10.775204832115442 -28.430003389986982 6.402802467353661 #
edge $-1 $388 1 $388 0 $214 $-1 forward 7 unknown #
vertex $-1 $215 $389 #
ellipse-curve $-1 18.146714330131985 -21.659455670991033 -2.2631032559285114 0 -0.61566148304635926 0.78801074757464917 3 0 0 1 I I #
point $-1 21.146714330131985 -28.430003389986982 6.402802467353661 #
plane-surface $-1 0 0 11.77917527994849 0 0 1 1 0 0 forward_v I I I I #
coedge $-1 $329 $328 $321 $390 forward $219 $-1 #
coedge $-1 $321 $221 $223 $325 reversed $139 $-1 #
coedge $-1 $221 $320 $319 $390 reversed $139 $-1 #
coedge $-1 $229 $224 $221 $323 forward $230 $-1 #
edge $-1 $326 -1.5515471728681227 $391 12.211339335248372 $322 $392 forward 7 unknown #
coedge $-1 $223 $222 $329 $393 reversed $87 $-1 #
edge $-1 $394 -70.622893288090467 $326 -53.157539483620042 $320 $395 forward 7 unknown #
vertex $-1 $225 $396 #
straight-curve $-1 6.4804797905618585 21.548560135928753 11.779175279948486 1 0 0 I I #
coedge $-1 $319 $226 $229 $333 reversed $219 $-1 #
coedge $-1 $226 $319 $324 $393 forward $219 $-1 #
vertex $-1 $227 $397 #
straight-curve $-1 0.86086516677107738 35.31144664404524 64.837004491129846 0 0 1 I I #
straight-curve $-1 0.86086516677107738 -20.340152291787611 44.506224873529405 0 0.78801074757464917 -0.61566148304635926 I I #
edge $-1 $391 -25.061053995476357 $231 -0.86086516677107738 $328 $398 forward 7 unknown #
point $-1 0.86086516677107738 35.31144664404524 11.77917527994849 #
point $-1 0.86086516677107738 21.548560135928746 11.77917527994849 #
edge $-1 $399 1 $399 0 $234 $-1 forward 7 unknown #
vertex $-1 $235 $400 #
ellipse-curve $-1 7.7752048321154419 21.659455670991047 -2.2631032559285149 0 0.61566148304635926 0.78801074757464917 3 0 0 1 I I #
point $-1 10.775204832115442 28.430003389986997 6.4028024673536574 #
edge $-1 $401 1 $401 0 $238 $-1 forward 7 unknown #
vertex $-1 $239 $402 #
ellipse-curve $-1 18.146714330131985 21.659455670991047 -2.2631032559285149 0 0.61566148304635926 0.78801074757464917 3 0 0 1 I I #
point $-1 21.146714330131985 28.430003389986997 6.4028024673536574 #
plane-surface $-1 54.039735099337747 0 0 -1 0 0 0 0 1 forward_v I I I I #
coedge $-1 $247 $245 $249 $349 reversed $161 $-1 #
edge $-1 $260 -11.77917527994849 $351 11.77917527994849 $259 $403 forward 7 unknown #
vertex $-1 $349 $404 #
straight-curve $-1 -54.039735099337747 -35.31144664404524 0 0 0 -1 I I #
edge $-1 $347 -35.31144664404524 $351 35.31144664404524 $345 $405 forward 7 unknown #
straight-curve $-1 0 -35.31144664404524 -11.77917527994849 -1 0 0 I I #
vertex $-1 $252 $406 #
straight-curve $-1 0 35.31144664404524 -11.77917527994849 1 0 0 I I #
point $-1 54.039735099337747 35.31144664404524 -11.77917527994849 #
point $-1 54.039735099337747 -35.31144664404524 -11.77917527994849 #
straight-curve $-1 -54.039735099337747 0 11.77917527994849 0 -1 0 I I #
point $-1 -54.039735099337747 35.31144664404524 11.77917527994849 #
point $-1 -54.039735099337747 -35.31144664404524 11.77917527994849 #
straight-curve $-1 54.039735099337747 -35.31144664404524 0 0 0 -1 I I #
straight-curve $-1 54.039735099337747 35.31144664404524 0 0 0 -1 I I #
plane-surface $-1 0 -35.31144664404524 0 0 1 0 0 0 1 forward_v I I I I #
coedge $-1 $407 $272 $284 $372 reversed $180 $-1 #
coedge $-1 $272 $407 $287 $374 reversed $180 $-1 #
edge $-1 $408 -54.039735099337747 $281 -45.405653901049234 $277 $409 forward 7 unknown #
straight-curve $-1 -45.405653901049234 -16.681398918811816 11.77917527994849 0 1 0 I I #
coedge $-1 $284 $275 $278 $368 forward $270 $-1 #
straight-curve $-1 -45.405653901049234 -16.681398918811816 -11.77917527994849 0 -1 0 I I #
coedge $-1 $278 $277 $407 $410 forward $279 $-1 #
edge $-1 $280 45.405653901049234 $411 54.039735099337747 $278 $412 forward 7 unknown #
point $-1 -45.405653901049234 -35.31144664404524 -11.77917527994849 #
point $-1 -45.405653901049234 -35.31144664404524 11.77917527994849 #
straight-curve $-1 -54.039735099337747 -31.414149031202026 0 0 0 -1 I I #
edge $-1 $411 -35.31144664404524 $285 -31.414149031202026 $361 $413 forward 7 unknown #
point $-1 -54.039735099337747 -31.414149031202026 -11.77917527994849 #
edge $-1 $288 31.414149031202026 $408 35.31144664404524 $362 $414 forward 7 unknown #
point $-1 -54.039735099337747 -31.414149031202026 11.77917527994849 #
coedge $-1 $303 $302 $295 $377 forward $292 $-1 #
edge $-1 $378 31.317931601796076 $381 42.07067722698573 $376 $415 forward 7 unknown #
vertex $-1 $307 $416 #
straight-curve $-1 0.86086516677107738 -50.92590677671329 11.77917527994849 0 -1 0 I I #
edge $-1 $381 -5.6196146237907811 $304 18.580574204914498 $303 $417 forward 7 unknown #
vertex $-1 $380 $418 #
straight-curve $-1 0.86086516677107738 -35.311446644045233 1.026429654758843 0 0.78801074757464917 0.61566148304635926 I I #
point $-1 0.86086516677107738 -21.548560135928732 11.779175279948491 #
point $-1 25.061053995476357 -35.31144664404524 1.0264296547588374 #
straight-curve $-1 0 -35.31144664404524 11.77917527994849 1 0 0 I I #
vertex $-1 $310 $419 #
point $-1 10.775204832115442 -21.659455670991033 -2.2631032559285114 #
vertex $-1 $314 $420 #
point $-1 21.146714330131985 -21.659455670991033 -2.2631032559285114 #
edge $-1 $391 53.057829211181357 $394 63.810574836370996 $319 $421 forward 7 unknown #
vertex $-1 $333 $422 #
straight-curve $-1 25.061053995476357 23.100107308796868 11.77917527994849 0 1 0 I I #
edge $-1 $394 -18.580574204914498 $330 5.6196146237907811 $329 $423 forward 7 unknown #
vertex $-1 $393 $424 #
straight-curve $-1 25.061053995476357 -20.340152291787611 44.506224873529405 0 -0.78801074757464917 0.61566148304635926 I I #
point $-1 25.061053995476357 21.548560135928746 11.77917527994849 #
point $-1 0.86086516677107738 35.31144664404524 1.0264296547588501 #
straight-curve $-1 0 35.31144664404524 11.77917527994849 -1 0 0 I I #
vertex $-1 $336 $425 #
point $-1 10.775204832115442 21.659455670991047 -2.2631032559285149 #
vertex $-1 $340 $426 #
point $-1 21.146714330131985 21.659455670991047 -2.2631032559285149 #
straight-curve $-1 -54.039735099337747 35.31144664404524 0 0 0 -1 I I #
point $-1 -54.039735099337747 -35.31144664404524 -11.77917527994849 #
straight-curve $-1 -54.039735099337747 0 -11.77917527994849 0 1 0 I I #
point $-1 -54.039735099337747 35.31144664404524 -11.77917527994849 #
coedge $-1 $362 $361 $367 $410 reversed $180 $-1 #
vertex $-1 $374 $427 #
straight-curve $-1 0 -35.31144664404524 11.77917527994849 1 0 0 I I #
edge $-1 $408 -11.77917527994849 $411 11.77917527994849 $407 $428 forward 7 unknown #
vertex $-1 $372 $429 #
straight-curve $-1 0 -35.31144664404524 -11.77917527994849 -1 0 0 I I #
straight-curve $-1 -54.039735099337747 0 -11.77917527994849 0 1 0 I I #
straight-curve $-1 -54.039735099337747 0 11.77917527994849 0 -1 0 I I #
straight-curve $-1 0.86086516677107738 -35.31144664404524 43.097106881744565 0 0 -1 I I #
point $-1 0.86086516677107738 -35.31144664404524 11.77917527994849 #
straight-curve $-1 6.4804797905618585 -35.31144664404524 1.0264296547588345 1 0 0 I I #
point $-1 0.86086516677107738 -35.31144664404524 1.0264296547588374 #
point $-1 7.7752048321154419 -19.812471221851954 -4.6271354986524589 #
point $-1 18.146714330131985 -19.812471221851954 -4.6271354986524589 #
straight-curve $-1 25.061053995476357 35.31144664404524 64.837004491129846 0 0 -1 I I #
point $-1 25.061053995476357 35.31144664404524 11.77917527994849 #
straight-curve $-1 6.4804797905618585 35.31144664404524 1.0264296547588465 -1 0 0 I I #
point $-1 25.061053995476357 35.31144664404524 1.0264296547588501 #
point $-1 7.7752048321154419 19.812471221851968 -4.6271354986524624 #
point $-1 18.146714330131985 19.812471221851968 -4.6271354986524624 #
point $-1 -54.039735099337747 -35.31144664404524 11.77917527994849 #
straight-curve $-1 -54.039735099337747 -35.31144664404524 0 0 0 -1 I I #
point $-1 -54.039735099337747 -35.31144664404524 -11.77917527994849 #
End-of-ACIS-data 