500 0 9 0           
7 Unknown 11 ACIS 5.0 NT 24 Thu Mar 25 16:49:23 1999 
-1 9.9999999999999995e-007 1e-010 
body $-1 $9 $-1 $10 #
body $-1 $11 $-1 $12 #
body $-1 $13 $-1 $14 #
body $-1 $15 $-1 $16 #
body $-1 $17 $-1 $18 #
body $-1 $19 $-1 $20 #
body $-1 $21 $-1 $22 #
body $-1 $23 $-1 $24 #
body $-1 $25 $-1 $26 #
lump $-1 $-1 $27 $0 #
transform $-1 1 0 0 0 1 0 0 0 1 40.720236823633535 19.465607883979267 9.374763173177282 1 rotate no_reflect no_shear #
lump $-1 $-1 $28 $1 #
transform $-1 1 0 0 0 1 0 0 0 1 40.720236823633535 19.465607883979267 9.374763173177282 1 rotate no_reflect no_shear #
lump $-1 $-1 $29 $2 #
transform $-1 1 0 0 0 1 0 0 0 1 40.720236823633535 19.465607883979267 9.374763173177282 1 rotate no_reflect no_shear #
lump $-1 $-1 $30 $3 #
transform $-1 1 0 0 0 1 0 0 0 1 40.720236823633535 19.465607883979267 9.374763173177282 1 rotate no_reflect no_shear #
lump $-1 $-1 $31 $4 #
transform $-1 1 0 0 0 1 0 0 0 1 40.720236823633535 19.465607883979267 9.374763173177282 1 rotate no_reflect no_shear #
lump $-1 $-1 $32 $5 #
transform $-1 1 0 0 0 1 0 0 0 1 40.720236823633535 19.465607883979267 9.374763173177282 1 rotate no_reflect no_shear #
lump $-1 $-1 $33 $6 #
transform $-1 1 0 0 0 1 0 0 0 1 40.720236823633535 19.465607883979267 9.374763173177282 1 rotate no_reflect no_shear #
lump $-1 $-1 $34 $7 #
transform $-1 1 0 0 0 1 0 0 0 1 40.720236823633535 19.465607883979267 9.374763173177282 1 rotate no_reflect no_shear #
lump $-1 $-1 $35 $8 #
transform $-1 1 0 0 0 1 0 0 0 1 40.720236823633535 19.465607883979267 9.374763173177282 1 rotate no_reflect no_shear #
shell $-1 $-1 $-1 $36 $-1 $9 #
shell $-1 $-1 $-1 $37 $-1 $11 #
shell $-1 $-1 $-1 $38 $-1 $13 #
shell $-1 $-1 $-1 $39 $-1 $15 #
shell $-1 $-1 $-1 $40 $-1 $17 #
shell $-1 $-1 $-1 $41 $-1 $19 #
shell $-1 $-1 $-1 $42 $-1 $21 #
shell $-1 $-1 $-1 $43 $-1 $23 #
shell $-1 $-1 $-1 $44 $-1 $25 #
face $-1 $45 $46 $27 $-1 $47 forward single #
face $-1 $48 $49 $28 $-1 $50 reversed single #
face $-1 $51 $52 $29 $-1 $53 reversed single #
face $-1 $54 $55 $30 $-1 $56 reversed single #
face $-1 $57 $58 $31 $-1 $59 forward single #
face $-1 $60 $61 $32 $-1 $62 forward single #
face $-1 $63 $64 $33 $-1 $65 reversed single #
face $-1 $66 $67 $34 $-1 $68 forward single #
face $-1 $69 $70 $35 $-1 $71 forward single #
face $-1 $72 $73 $27 $-1 $74 reversed single #
loop $-1 $-1 $75 $36 #
plane-surface $-1 0 0 9.374763173177282 0 0 1 1 0 0 forward_v I I I I #
face $-1 $76 $77 $28 $-1 $78 reversed single #
loop $-1 $-1 $79 $37 #
plane-surface $-1 0 -15.536275478369159 6.374763173177282 0 0 1 1 0 0 forward_v I I I I #
face $-1 $80 $81 $29 $-1 $82 reversed single #
loop $-1 $-1 $83 $38 #
plane-surface $-1 0 15.536275478369156 6.374763173177282 0 0 1 1 0 0 forward_v I I I I #
face $-1 $84 $85 $30 $-1 $86 reversed single #
loop $-1 $-1 $87 $39 #
plane-surface $-1 -26.796975357400804 8.1703657656416588 47.008024017120619 0.55919291073839883 0 0.82903756765294845 0.82903756765294845 0 -0.55919291073839883 forward_v I I I I #
face $-1 $88 $89 $31 $-1 $90 forward single #
loop $-1 $91 $92 $40 #
cone-surface $-1 34.578835572772348 6.6975469197342044 5.0064070559579097 -0.55919291073839883 0 -0.82903756765294845 0.41451878382647422 0 -0.27959645536919941 1 I I 0 1 0.5 forward I I I I #
face $-1 $93 $94 $32 $-1 $95 forward single #
loop $-1 $96 $97 $41 #
cone-surface $-1 34.578835572772348 9.6431846115491133 5.0064070559579097 -0.55919291073839883 0 -0.82903756765294845 0.41451878382647422 0 -0.27959645536919941 1 I I 0 1 0.5 forward I I I I #
face $-1 $98 $99 $33 $-1 $100 reversed single #
loop $-1 $-1 $101 $42 #
plane-surface $-1 -110.52834842583928 -3.6305973078868616 47.997534942661559 0 1 0 -0.85716730853699208 0 0.51503806187062418 forward_v I I I I #
face $-1 $102 $103 $34 $-1 $104 forward single #
loop $-1 $105 $106 $43 #
cone-surface $-1 -38.943113659666835 -1.785665017905167 7.2455815297882369 0.85716730853699208 0 -0.51503806187062418 0.25751903093531209 0 0.42858365426849604 1 I I 0 1 0.5 forward I I I I #
face $-1 $107 $108 $35 $-1 $109 forward single #
loop $-1 $110 $111 $44 #
cone-surface $-1 -38.943113659666835 0.98173341706737105 7.2455815297882369 0.85716730853699208 0 -0.51503806187062418 0.25751903093531209 0 0.42858365426849604 1 I I 0 1 0.5 forward I I I I #
face $-1 $112 $113 $27 $-1 $114 reversed single #
loop $-1 $-1 $115 $45 #
plane-surface $-1 0 0 -9.374763173177282 0 0 1 1 0 0 forward_v I I I I #
coedge $-1 $116 $117 $118 $119 forward $46 $-1 #
face $-1 $120 $121 $28 $-1 $122 reversed single #
loop $-1 $-1 $123 $48 #
plane-surface $-1 0 -11.606943072759051 7.874763173177282 0 -1 0 0 0 -1 forward_v I I I I #
coedge $-1 $124 $125 $126 $127 reversed $49 $-1 #
face $-1 $128 $129 $29 $-1 $130 forward single #
loop $-1 $-1 $131 $51 #
plane-surface $-1 0 11.606943072759048 7.874763173177282 0 1 0 0 0 1 forward_v I I I I #
coedge $-1 $132 $133 $134 $135 reversed $52 $-1 #
face $-1 $136 $137 $30 $-1 $138 forward single #
loop $-1 $-1 $139 $54 #
plane-surface $-1 18.743960153328331 4.7337884585242662 114.52523619815496 0 1 0 0.55919291073839883 0 0.82903756765294845 forward_v I I I I #
coedge $-1 $140 $141 $142 $143 reversed $55 $-1 #
face $-1 $-1 $144 $31 $-1 $145 forward single #
loop $-1 $146 $147 $57 #
cone-surface $-1 34.159440889718546 6.6975469197342044 4.3846288802181981 -0.55919291073839883 0 -0.82903756765294845 0.20725939191323711 0 -0.13979822768459971 1 I I -0.70710678118654746 0.70710678118654746 0.25 forward I I I I #
loop $-1 $-1 $148 $40 #
coedge $-1 $92 $92 $149 $150 reversed $58 $-1 #
face $-1 $-1 $151 $32 $-1 $152 forward single #
loop $-1 $153 $154 $60 #
cone-surface $-1 34.159440889718546 9.6431846115491133 4.3846288802181981 -0.55919291073839883 0 -0.82903756765294845 0.20725939191323711 0 -0.13979822768459971 1 I I -0.70710678118654746 0.70710678118654746 0.25 forward I I I I #
loop $-1 $-1 $155 $41 #
coedge $-1 $97 $97 $156 $157 reversed $61 $-1 #
face $-1 $158 $159 $33 $-1 $160 reversed single #
loop $-1 $-1 $161 $63 #
plane-surface $-1 -40.720236823633542 -0.40196580041889973 6.0525912375474817 -0.85716730853699208 0 0.51503806187062418 0.51503806187062418 0 0.85716730853699208 forward_v I I I I #
coedge $-1 $162 $163 $164 $165 reversed $64 $-1 #
face $-1 $-1 $166 $34 $-1 $167 forward single #
loop $-1 $168 $169 $66 #
cone-surface $-1 -37.949779777053422 -1.785665017905167 6.6487263387464317 0.85716730853699208 0 -0.51503806187062418 0.12875951546765604 0 0.21429182713424802 1 I I -0.70710678118654746 0.70710678118654746 0.25 forward I I I I #
loop $-1 $-1 $170 $43 #
coedge $-1 $106 $106 $171 $172 reversed $67 $-1 #
face $-1 $-1 $173 $35 $-1 $174 forward single #
loop $-1 $175 $176 $69 #
cone-surface $-1 -37.949779777053422 0.98173341706737105 6.6487263387464317 0.85716730853699208 0 -0.51503806187062418 0.12875951546765604 0 0.21429182713424802 1 I I -0.70710678118654746 0.70710678118654746 0.25 forward I I I I #
loop $-1 $-1 $177 $44 #
coedge $-1 $111 $111 $178 $179 reversed $70 $-1 #
face $-1 $180 $181 $27 $-1 $182 reversed single #
loop $-1 $-1 $183 $72 #
plane-surface $-1 0 -19.465607883979267 0 0 1 0 0 0 1 forward_v I I I I #
coedge $-1 $184 $185 $186 $187 forward $73 $-1 #
coedge $-1 $188 $75 $189 $190 forward $46 $-1 #
coedge $-1 $75 $188 $191 $192 forward $46 $-1 #
coedge $-1 $193 $194 $75 $119 reversed $195 $-1 #
edge $-1 $196 -19.465607883979267 $197 19.465607883979267 $118 $198 forward 7 unknown #
face $-1 $199 $200 $28 $-1 $201 reversed single #
loop $-1 $-1 $202 $76 #
plane-surface $-1 -40.720236823633535 0 0 1 0 0 0 0 -1 forward_v I I I I #
coedge $-1 $203 $204 $205 $206 reversed $77 $-1 #
coedge $-1 $207 $79 $208 $209 reversed $49 $-1 #
coedge $-1 $79 $207 $203 $210 forward $49 $-1 #
coedge $-1 $205 $211 $79 $127 forward $212 $-1 #
edge $-1 $213 -11.697470144794687 $214 -3.8388053335744718 $126 $215 forward 7 unknown #
face $-1 $216 $217 $29 $-1 $218 reversed single #
loop $-1 $-1 $219 $80 #
plane-surface $-1 0 0 9.374763173177282 0 0 1 1 0 0 forward_v I I I I #
coedge $-1 $220 $221 $219 $222 reversed $81 $-1 #
coedge $-1 $223 $83 $224 $225 forward $52 $-1 #
coedge $-1 $83 $223 $226 $227 reversed $52 $-1 #
coedge $-1 $228 $229 $83 $135 forward $217 $-1 #
edge $-1 $230 3.8388053335744701 $231 11.697470144794686 $134 $232 forward 7 unknown #
face $-1 $233 $234 $30 $-1 $235 reversed single #
loop $-1 $-1 $142 $84 #
plane-surface $-1 0 0 9.374763173177282 0 0 1 1 0 0 forward_v I I I I #
coedge $-1 $236 $237 $238 $239 reversed $85 $-1 #
coedge $-1 $240 $87 $241 $242 reversed $55 $-1 #
coedge $-1 $87 $240 $236 $243 forward $55 $-1 #
coedge $-1 $238 $244 $87 $143 forward $137 $-1 #
edge $-1 $245 -7.5217601899382185 $246 -0.6486055757034368 $142 $247 forward 7 unknown #
loop $-1 $-1 $149 $88 #
plane-surface $-1 -26.796975357400804 8.1703657656416588 47.008024017120619 0.55919291073839883 0 0.82903756765294845 0.82903756765294845 0 -0.55919291073839883 forward_v I I I I #
loop $-1 $-1 $248 $57 #
coedge $-1 $147 $147 $148 $249 reversed $89 $-1 #
coedge $-1 $148 $148 $147 $249 forward $91 $-1 #
coedge $-1 $149 $149 $92 $150 forward $144 $-1 #
edge $-1 $250 0 $250 6.2831853071796004 $149 $251 forward 7 unknown #
loop $-1 $-1 $156 $93 #
plane-surface $-1 -26.796975357400804 8.1703657656416588 47.008024017120619 0.55919291073839883 0 0.82903756765294845 0.82903756765294845 0 -0.55919291073839883 forward_v I I I I #
loop $-1 $-1 $252 $60 #
coedge $-1 $154 $154 $155 $253 reversed $94 $-1 #
coedge $-1 $155 $155 $154 $253 forward $96 $-1 #
coedge $-1 $156 $156 $97 $157 forward $151 $-1 #
edge $-1 $254 0 $254 6.2831853071796004 $156 $255 forward 7 unknown #
face $-1 $256 $257 $33 $-1 $258 reversed single #
loop $-1 $-1 $259 $98 #
plane-surface $-1 -110.52834842583928 2.8266657070490622 47.997534942661559 0 -1 0 0.85716730853699208 0 -0.51503806187062418 forward_v I I I I #
coedge $-1 $260 $261 $262 $263 reversed $99 $-1 #
coedge $-1 $163 $101 $264 $265 reversed $64 $-1 #
coedge $-1 $101 $162 $260 $266 reversed $64 $-1 #
coedge $-1 $262 $267 $101 $165 forward $268 $-1 #
edge $-1 $269 14.543937389286107 $270 16.540099606261165 $164 $271 forward 7 unknown #
loop $-1 $-1 $171 $102 #
plane-surface $-1 -40.720236823633542 -0.40196580041889973 6.0525912375474817 -0.85716730853699208 0 0.51503806187062418 0.51503806187062418 0 0.85716730853699208 forward_v I I I I #
loop $-1 $-1 $272 $66 #
coedge $-1 $169 $169 $170 $273 reversed $103 $-1 #
coedge $-1 $170 $170 $169 $273 forward $105 $-1 #
coedge $-1 $171 $171 $106 $172 forward $166 $-1 #
edge $-1 $274 0 $274 6.2831853071796004 $171 $275 forward 7 unknown #
loop $-1 $-1 $178 $107 #
plane-surface $-1 -40.720236823633542 -0.40196580041889973 6.0525912375474817 -0.85716730853699208 0 0.51503806187062418 0.51503806187062418 0 0.85716730853699208 forward_v I I I I #
loop $-1 $-1 $276 $69 #
coedge $-1 $176 $176 $177 $277 reversed $108 $-1 #
coedge $-1 $177 $177 $176 $277 forward $110 $-1 #
coedge $-1 $178 $178 $111 $179 forward $173 $-1 #
edge $-1 $278 0 $278 6.2831853071796004 $178 $279 forward 7 unknown #
face $-1 $280 $281 $27 $-1 $282 reversed single #
loop $-1 $-1 $283 $112 #
plane-surface $-1 -40.720236823633535 0 0 1 0 0 0 0 -1 forward_v I I I I #
coedge $-1 $284 $191 $285 $286 forward $113 $-1 #
coedge $-1 $287 $115 $284 $288 forward $73 $-1 #
coedge $-1 $115 $287 $289 $290 forward $73 $-1 #
coedge $-1 $194 $193 $115 $187 reversed $195 $-1 #
edge $-1 $291 -19.465607883979267 $292 19.465607883979267 $186 $293 forward 7 unknown #
coedge $-1 $117 $116 $294 $295 forward $46 $-1 #
coedge $-1 $296 $297 $116 $190 reversed $281 $-1 #
edge $-1 $197 -40.720236823633535 $298 40.720236823633535 $189 $299 forward 7 unknown #
coedge $-1 $183 $300 $117 $192 reversed $113 $-1 #
edge $-1 $301 -40.720236823633535 $196 40.720236823633535 $191 $302 forward 7 unknown #
coedge $-1 $186 $118 $300 $303 forward $195 $-1 #
coedge $-1 $118 $186 $296 $304 reversed $195 $-1 #
loop $-1 $-1 $193 $280 #
vertex $-1 $119 $305 #
vertex $-1 $119 $306 #
straight-curve $-1 40.720236823633535 0 9.374763173177282 0 1 0 I I #
face $-1 $307 $308 $28 $-1 $309 forward single #
loop $-1 $-1 $208 $120 #
plane-surface $-1 0 -19.465607883979267 0 0 1 0 0 0 1 forward_v I I I I #
coedge $-1 $310 $311 $312 $313 forward $121 $-1 #
coedge $-1 $312 $123 $125 $210 reversed $77 $-1 #
coedge $-1 $123 $312 $314 $315 reversed $77 $-1 #
coedge $-1 $316 $126 $123 $206 forward $212 $-1 #
edge $-1 $214 2.437381586588641 $317 5.437381586588641 $205 $318 forward 7 unknown #
coedge $-1 $125 $124 $310 $319 reversed $49 $-1 #
coedge $-1 $320 $321 $124 $209 forward $200 $-1 #
edge $-1 $322 -40.720236823633535 $213 40.720236823633535 $208 $323 forward 7 unknown #
edge $-1 $324 -40.720236823633535 $214 40.720236823633535 $203 $325 forward 7 unknown #
coedge $-1 $126 $316 $320 $326 forward $212 $-1 #
loop $-1 $-1 $205 $307 #
vertex $-1 $209 $327 #
vertex $-1 $127 $328 #
straight-curve $-1 40.720236823633535 -7.7681377391845796 6.374763173177282 0 1 0 I I #
face $-1 $329 $330 $29 $-1 $331 reversed single #
loop $-1 $-1 $229 $128 #
plane-surface $-1 40.720236823633535 0 0 -1 0 0 0 0 1 forward_v I I I I #
coedge $-1 $332 $333 $131 $222 forward $129 $-1 #
coedge $-1 $224 $131 $334 $335 reversed $81 $-1 #
coedge $-1 $131 $224 $229 $336 reversed $81 $-1 #
edge $-1 $337 -40.720236823633535 $338 40.720236823633535 $219 $339 forward 7 unknown #
coedge $-1 $133 $132 $340 $341 reversed $52 $-1 #
coedge $-1 $221 $220 $132 $225 reversed $81 $-1 #
edge $-1 $230 -40.720236823633535 $342 40.720236823633535 $224 $343 forward 7 unknown #
coedge $-1 $344 $345 $133 $227 forward $346 $-1 #
edge $-1 $231 -40.720236823633535 $347 40.720236823633535 $226 $348 forward 7 unknown #
coedge $-1 $349 $134 $345 $350 reversed $217 $-1 #
coedge $-1 $134 $349 $221 $336 forward $217 $-1 #
vertex $-1 $135 $351 #
vertex $-1 $227 $352 #
straight-curve $-1 40.720236823633535 7.7681377391845778 6.374763173177282 0 1 0 I I #
face $-1 $-1 $353 $30 $-1 $354 forward single #
loop $-1 $-1 $355 $136 #
plane-surface $-1 40.720236823633535 0 0 -1 0 0 0 0 1 forward_v I I I I #
coedge $-1 $237 $139 $141 $243 reversed $85 $-1 #
coedge $-1 $139 $236 $355 $356 reversed $85 $-1 #
coedge $-1 $357 $142 $139 $239 forward $137 $-1 #
edge $-1 $246 19.624647155985379 $358 31.348256746969369 $238 $359 forward 7 unknown #
coedge $-1 $141 $140 $360 $361 reversed $55 $-1 #
coedge $-1 $362 $363 $140 $242 forward $353 $-1 #
edge $-1 $364 -59.391102992884441 $245 -45.249874599370052 $241 $365 forward 7 unknown #
edge $-1 $366 -81.440473647267069 $246 -67.299245253752673 $236 $367 forward 7 unknown #
coedge $-1 $142 $357 $362 $368 forward $137 $-1 #
vertex $-1 $242 $369 #
vertex $-1 $143 $370 #
straight-curve $-1 28.996627232649548 4.0851828828208294 9.374763173177282 0 -1 0 I I #
coedge $-1 $248 $248 $-1 $371 reversed $146 $-1 #
edge $-1 $372 0 $372 6.2831853071796004 $147 $373 forward 7 unknown #
vertex $-1 $150 $374 #
ellipse-curve $-1 34.85843202814155 6.6975469197342044 5.4209258397843838 0.55919291073839883 0 0.82903756765294845 0.41451878382647422 0 -0.27959645536919941 1 I I #
coedge $-1 $252 $252 $-1 $375 reversed $153 $-1 #
edge $-1 $376 0 $376 6.2831853071796004 $154 $377 forward 7 unknown #
vertex $-1 $157 $378 #
ellipse-curve $-1 34.85843202814155 9.6431846115491133 5.4209258397843838 0.55919291073839883 0 0.82903756765294845 0.41451878382647422 0 -0.27959645536919941 1 I I #
face $-1 $-1 $268 $33 $-1 $379 forward single #
loop $-1 $-1 $380 $158 #
plane-surface $-1 -40.720236823633535 0 0 1 0 0 0 0 -1 forward_v I I I I #
coedge $-1 $381 $382 $383 $384 reversed $159 $-1 #
coedge $-1 $385 $161 $163 $266 forward $99 $-1 #
coedge $-1 $161 $385 $381 $386 forward $99 $-1 #
coedge $-1 $383 $164 $161 $263 forward $268 $-1 #
edge $-1 $270 -3.4296144076774118 $387 3.027648607258512 $262 $388 forward 7 unknown #
coedge $-1 $389 $390 $162 $265 forward $257 $-1 #
edge $-1 $391 -17.946176233783287 $269 -14.624004298153498 $264 $392 forward 7 unknown #
edge $-1 $270 -3.8757566959711327 $391 -1.3556693106716273e-014 $163 $393 forward 7 unknown #
coedge $-1 $164 $383 $389 $394 forward $268 $-1 #
loop $-1 $-1 $383 $256 #
vertex $-1 $265 $395 #
vertex $-1 $165 $396 #
straight-curve $-1 -55.264174212919642 -3.6305973078868616 9.374763173177282 1 0 0 I I #
coedge $-1 $272 $272 $-1 $397 reversed $168 $-1 #
edge $-1 $398 0 $398 6.2831853071796004 $169 $399 forward 7 unknown #
vertex $-1 $172 $400 #
ellipse-curve $-1 -39.722155715146009 -1.785665017905167 7.7136772053623872 -0.85716730853699208 0 0.51503806187062418 0.25751903093531209 0 0.42858365426849604 1 I I #
coedge $-1 $276 $276 $-1 $401 reversed $175 $-1 #
edge $-1 $402 0 $402 6.2831853071796004 $176 $403 forward 7 unknown #
vertex $-1 $179 $404 #
ellipse-curve $-1 -39.722155715146009 0.98173341706737105 7.7136772053623872 -0.85716730853699208 0 0.51503806187062418 0.25751903093531209 0 0.42858365426849604 1 I I #
face $-1 $-1 $195 $27 $-1 $405 reversed single #
loop $-1 $-1 $296 $180 #
plane-surface $-1 0 19.465607883979267 0 0 -1 0 0 0 -1 forward_v I I I I #
coedge $-1 $406 $294 $297 $407 forward $181 $-1 #
coedge $-1 $300 $183 $184 $288 reversed $113 $-1 #
coedge $-1 $294 $406 $183 $286 reversed $181 $-1 #
edge $-1 $301 -9.374763173177282 $408 9.374763173177282 $285 $409 forward 7 unknown #
coedge $-1 $185 $184 $406 $410 forward $73 $-1 #
edge $-1 $292 -40.720236823633535 $408 40.720236823633535 $284 $411 forward 7 unknown #
coedge $-1 $297 $296 $185 $290 reversed $281 $-1 #
edge $-1 $412 -40.720236823633535 $291 40.720236823633535 $289 $413 forward 7 unknown #
vertex $-1 $187 $414 #
vertex $-1 $303 $415 #
straight-curve $-1 40.720236823633535 0 -9.374763173177282 0 -1 0 I I #
coedge $-1 $283 $285 $188 $295 reversed $181 $-1 #
edge $-1 $298 -19.465607883979267 $301 19.465607883979267 $294 $416 forward 7 unknown #
coedge $-1 $289 $189 $194 $304 forward $281 $-1 #
coedge $-1 $189 $289 $283 $407 reversed $281 $-1 #
vertex $-1 $190 $417 #
straight-curve $-1 0 19.465607883979267 9.374763173177282 -1 0 0 I I #
coedge $-1 $191 $284 $193 $303 reversed $113 $-1 #
vertex $-1 $295 $418 #
straight-curve $-1 0 -19.465607883979267 9.374763173177282 1 0 0 I I #
edge $-1 $196 -9.374763173177282 $292 9.374763173177282 $193 $419 forward 7 unknown #
edge $-1 $197 -9.374763173177282 $291 9.374763173177282 $194 $420 forward 7 unknown #
point $-1 40.720236823633535 -19.465607883979267 9.374763173177282 #
point $-1 40.720236823633535 19.465607883979267 9.374763173177282 #
face $-1 $-1 $212 $28 $-1 $421 reversed single #
loop $-1 $-1 $314 $199 #
plane-surface $-1 0 0 9.374763173177282 0 0 1 1 0 0 forward_v I I I I #
coedge $-1 $422 $202 $207 $319 forward $121 $-1 #
coedge $-1 $202 $422 $423 $424 reversed $121 $-1 #
coedge $-1 $204 $203 $202 $313 reversed $77 $-1 #
edge $-1 $425 -5.437381586588641 $324 -2.437381586588641 $202 $426 forward 7 unknown #
coedge $-1 $423 $427 $204 $315 forward $308 $-1 #
edge $-1 $317 -40.720236823633535 $425 40.720236823633535 $314 $428 forward 7 unknown #
coedge $-1 $211 $205 $427 $429 reversed $212 $-1 #
vertex $-1 $206 $430 #
straight-curve $-1 40.720236823633535 -11.606943072759051 3.937381586588641 0 0 1 I I #
edge $-1 $324 3.8388053335744718 $322 11.697470144794687 $310 $431 forward 7 unknown #
coedge $-1 $432 $208 $211 $326 reversed $200 $-1 #
coedge $-1 $208 $432 $422 $433 forward $200 $-1 #
vertex $-1 $209 $434 #
straight-curve $-1 0 -19.465607883979267 6.374763173177282 1 0 0 I I #
vertex $-1 $319 $435 #
straight-curve $-1 0 -11.606943072759051 6.374763173177282 1 0 0 I I #
edge $-1 $436 -9.374763173177282 $213 -6.374763173177282 $211 $437 forward 7 unknown #
point $-1 40.720236823633535 -19.465607883979267 6.374763173177282 #
point $-1 40.720236823633535 -11.606943072759051 6.374763173177282 #
face $-1 $-1 $346 $29 $-1 $438 reversed single #
loop $-1 $-1 $334 $216 #
plane-surface $-1 -40.720236823633535 0 0 1 0 0 0 0 -1 forward_v I I I I #
coedge $-1 $439 $219 $349 $440 forward $129 $-1 #
coedge $-1 $219 $439 $441 $442 forward $129 $-1 #
coedge $-1 $441 $340 $220 $335 forward $330 $-1 #
edge $-1 $342 2.437381586588641 $337 5.437381586588641 $334 $443 forward 7 unknown #
edge $-1 $338 -5.437381586588641 $230 -2.437381586588641 $229 $444 forward 7 unknown #
vertex $-1 $335 $445 #
vertex $-1 $440 $446 #
straight-curve $-1 0 11.606943072759048 9.374763173177282 1 0 0 I I #
coedge $-1 $334 $447 $223 $341 forward $330 $-1 #
edge $-1 $347 -11.697470144794686 $342 -3.8388053335744701 $340 $448 forward 7 unknown #
vertex $-1 $341 $449 #
straight-curve $-1 0 11.606943072759048 6.374763173177282 -1 0 0 I I #
coedge $-1 $450 $226 $447 $451 reversed $346 $-1 #
coedge $-1 $226 $450 $228 $350 forward $346 $-1 #
loop $-1 $-1 $226 $329 #
vertex $-1 $227 $452 #
straight-curve $-1 0 19.465607883979267 6.374763173177282 -1 0 0 I I #
coedge $-1 $229 $228 $332 $440 reversed $217 $-1 #
edge $-1 $453 -9.374763173177282 $231 -6.374763173177282 $228 $454 forward 7 unknown #
point $-1 40.720236823633535 11.606943072759048 6.374763173177282 #
point $-1 40.720236823633535 19.465607883979263 6.374763173177282 #
loop $-1 $-1 $241 $233 #
plane-surface $-1 0 11.606943072759048 7.874763173177282 0 1 0 0 0 1 forward_v I I I I #
coedge $-1 $360 $455 $237 $356 forward $234 $-1 #
edge $-1 $358 47.8878549259002 $366 55.795529592685995 $355 $456 forward 7 unknown #
coedge $-1 $244 $238 $455 $457 forward $137 $-1 #
vertex $-1 $457 $458 #
straight-curve $-1 9.3719800766641654 4.7337884585242662 9.3747631731772785 1 0 0 I I #
coedge $-1 $459 $355 $240 $361 forward $234 $-1 #
edge $-1 $366 0.6486055757034368 $364 7.521760189938222 $360 $460 forward 7 unknown #
coedge $-1 $363 $241 $244 $368 reversed $353 $-1 #
coedge $-1 $241 $362 $459 $461 reversed $353 $-1 #
vertex $-1 $461 $462 #
straight-curve $-1 -8.5172187418131351 11.606943072759048 34.678172260946567 -0.82903756765294845 0 0.55919291073839883 I I #
vertex $-1 $361 $463 #
straight-curve $-1 -26.796975357400804 4.7337884585242662 47.008024017120619 -0.82903756765294845 0 0.55919291073839883 I I #
edge $-1 $464 -40.720236823633535 $245 -28.996627232649548 $244 $465 forward 7 unknown #
point $-1 28.996627232649548 11.606943072759048 9.374763173177282 #
point $-1 28.996627232649544 4.7337884585242662 9.3747631731772856 #
edge $-1 $466 1 $466 0 $248 $-1 forward 7 unknown #
vertex $-1 $249 $467 #
ellipse-curve $-1 34.299239117403147 6.6975469197342044 4.5918882721314356 0.55919291073839883 0 0.82903756765294845 0.41451878382647422 0 -0.27959645536919941 1 I I #
point $-1 35.272950811968016 6.6975469197342044 5.1413293844151839 #
edge $-1 $468 1 $468 0 $252 $-1 forward 7 unknown #
vertex $-1 $253 $469 #
ellipse-curve $-1 34.299239117403147 9.6431846115491133 4.5918882721314356 0.55919291073839883 0 0.82903756765294845 0.41451878382647422 0 -0.27959645536919941 1 I I #
point $-1 35.272950811968016 9.6431846115491133 5.1413293844151839 #
plane-surface $-1 0 0 9.374763173177282 0 0 1 1 0 0 forward_v I I I I #
coedge $-1 $390 $389 $382 $470 forward $257 $-1 #
coedge $-1 $382 $259 $261 $386 reversed $159 $-1 #
coedge $-1 $259 $381 $380 $470 reversed $159 $-1 #
coedge $-1 $267 $262 $259 $384 forward $268 $-1 #
edge $-1 $387 -16.540099606261165 $471 -14.543937389286107 $383 $472 forward 7 unknown #
coedge $-1 $261 $260 $390 $473 reversed $99 $-1 #
edge $-1 $474 1.3556693106716273e-014 $387 3.8757566959711327 $381 $475 forward 7 unknown #
vertex $-1 $263 $476 #
straight-curve $-1 -38.724074606658469 -0.20098290020944987 9.374763173177282 0 1 0 I I #
coedge $-1 $380 $264 $267 $394 reversed $257 $-1 #
coedge $-1 $264 $380 $385 $473 forward $257 $-1 #
vertex $-1 $265 $477 #
straight-curve $-1 -40.720236823633535 -3.6305973078868616 23.99876747133078 0 0 1 I I #
straight-curve $-1 -40.720236823633542 -3.6305973078868616 6.0525912375474817 -0.51503806187062418 0 -0.85716730853699208 I I #
edge $-1 $471 -2.8266657070490622 $269 3.6305973078868616 $389 $478 forward 7 unknown #
point $-1 -40.720236823633535 -3.6305973078868616 9.374763173177282 #
point $-1 -38.724074606658476 -3.6305973078868616 9.374763173177282 #
edge $-1 $479 1 $479 0 $272 $-1 forward 7 unknown #
vertex $-1 $273 $480 #
ellipse-curve $-1 -38.164071604187669 -1.785665017905167 6.7774858542140874 -0.85716730853699208 0 0.51503806187062418 0.25751903093531209 0 0.42858365426849604 1 I I #
point $-1 -39.464636684210696 -1.785665017905167 8.1422608596308805 #
edge $-1 $481 1 $481 0 $276 $-1 forward 7 unknown #
vertex $-1 $277 $482 #
ellipse-curve $-1 -38.164071604187669 0.98173341706737105 6.7774858542140874 -0.85716730853699208 0 0.51503806187062418 0.25751903093531209 0 0.42858365426849604 1 I I #
point $-1 -39.464636684210696 0.98173341706737105 8.1422608596308805 #
plane-surface $-1 40.720236823633535 0 0 -1 0 0 0 0 1 forward_v I I I I #
coedge $-1 $285 $283 $287 $410 reversed $181 $-1 #
edge $-1 $298 -9.374763173177282 $412 9.374763173177282 $297 $483 forward 7 unknown #
vertex $-1 $410 $484 #
straight-curve $-1 -40.720236823633535 -19.465607883979267 0 0 0 -1 I I #
edge $-1 $408 -19.465607883979267 $412 19.465607883979267 $406 $485 forward 7 unknown #
straight-curve $-1 0 -19.465607883979267 -9.374763173177282 -1 0 0 I I #
vertex $-1 $290 $486 #
straight-curve $-1 0 19.465607883979267 -9.374763173177282 1 0 0 I I #
point $-1 40.720236823633535 19.465607883979267 -9.374763173177282 #
point $-1 40.720236823633535 -19.465607883979267 -9.374763173177282 #
straight-curve $-1 -40.720236823633535 0 9.374763173177282 0 -1 0 I I #
point $-1 -40.720236823633535 19.465607883979267 9.374763173177282 #
point $-1 -40.720236823633535 -19.465607883979267 9.374763173177282 #
straight-curve $-1 40.720236823633535 -19.465607883979267 0 0 0 -1 I I #
straight-curve $-1 40.720236823633535 19.465607883979267 0 0 0 -1 I I #
plane-surface $-1 40.720236823633535 0 0 -1 0 0 0 0 1 forward_v I I I I #
coedge $-1 $311 $310 $321 $433 reversed $121 $-1 #
coedge $-1 $487 $314 $311 $424 forward $308 $-1 #
edge $-1 $425 11.606943072759051 $488 19.465607883979267 $311 $489 forward 7 unknown #
vertex $-1 $424 $490 #
straight-curve $-1 -40.720236823633535 -11.606943072759051 3.937381586588641 0 0 -1 I I #
coedge $-1 $314 $487 $316 $429 forward $308 $-1 #
straight-curve $-1 0 -11.606943072759051 9.374763173177282 -1 0 0 I I #
edge $-1 $436 -19.465607883979267 $317 -11.606943072759051 $316 $491 forward 7 unknown #
point $-1 40.720236823633535 -11.606943072759051 9.374763173177282 #
straight-curve $-1 -40.720236823633535 -7.7681377391845796 6.374763173177282 0 -1 0 I I #
coedge $-1 $321 $320 $487 $492 reversed $200 $-1 #
edge $-1 $488 -9.374763173177282 $322 -6.374763173177282 $422 $493 forward 7 unknown #
point $-1 -40.720236823633535 -19.465607883979267 6.374763173177282 #
point $-1 -40.720236823633535 -11.606943072759051 6.374763173177282 #
vertex $-1 $429 $494 #
straight-curve $-1 40.720236823633535 -19.465607883979267 0 0 0 -1 I I #
plane-surface $-1 0 19.465607883979267 0 0 -1 0 0 0 -1 forward_v I I I I #
coedge $-1 $333 $332 $450 $495 forward $129 $-1 #
edge $-1 $338 11.606943072759048 $453 19.465607883979267 $349 $496 forward 7 unknown #
coedge $-1 $447 $334 $333 $442 reversed $330 $-1 #
edge $-1 $497 -19.465607883979267 $337 -11.606943072759048 $441 $498 forward 7 unknown #
straight-curve $-1 -40.720236823633535 11.606943072759048 3.937381586588641 0 0 1 I I #
straight-curve $-1 40.720236823633535 11.606943072759048 3.937381586588641 0 0 -1 I I #
point $-1 -40.720236823633535 11.606943072759048 9.374763173177282 #
point $-1 40.720236823633535 11.606943072759048 9.374763173177282 #
coedge $-1 $340 $441 $344 $451 forward $330 $-1 #
straight-curve $-1 -40.720236823633535 7.7681377391845778 6.374763173177282 0 -1 0 I I #
point $-1 -40.720236823633535 11.606943072759048 6.374763173177282 #
coedge $-1 $345 $344 $439 $495 reversed $346 $-1 #
edge $-1 $497 -9.374763173177282 $347 -6.374763173177282 $344 $499 forward 7 unknown #
point $-1 -40.720236823633535 19.465607883979263 6.374763173177282 #
vertex $-1 $440 $500 #
straight-curve $-1 40.720236823633535 19.465607883979267 0 0 0 -1 I I #
coedge $-1 $355 $459 $357 $457 reversed $234 $-1 #
straight-curve $-1 40.720236823633535 4.7337884585242662 57.262618099077478 0 0 -1 I I #
edge $-1 $358 4.7337884585242662 $464 11.606943072759048 $455 $501 forward 7 unknown #
point $-1 40.720236823633535 4.7337884585242662 9.374763173177282 #
coedge $-1 $455 $360 $363 $461 forward $234 $-1 #
straight-curve $-1 40.720236823633535 4.0851828828208294 1.4670885063914803 0 1 0 I I #
edge $-1 $364 -55.795529592685995 $464 -47.8878549259002 $459 $502 forward 7 unknown #
point $-1 40.720236823633535 11.606943072759051 1.4670885063914838 #
point $-1 40.720236823633535 4.7337884585242662 1.4670885063914838 #
vertex $-1 $368 $503 #
straight-curve $-1 0 11.606943072759048 9.374763173177282 -1 0 0 I I #
vertex $-1 $371 $504 #
point $-1 34.71375790122962 6.6975469197342044 4.3122918167622357 #
vertex $-1 $375 $505 #
point $-1 34.71375790122962 9.6431846115491133 4.3122918167622357 #
edge $-1 $471 14.624004298153498 $474 17.946176233783287 $380 $506 forward 7 unknown #
vertex $-1 $394 $507 #
straight-curve $-1 -55.264174212919642 2.8266657070490622 9.374763173177282 -1 0 0 I I #
edge $-1 $474 -3.027648607258512 $391 3.4296144076774118 $390 $508 forward 7 unknown #
vertex $-1 $473 $509 #
straight-curve $-1 -40.720236823633542 2.8266657070490622 6.0525912375474817 0.51503806187062418 0 0.85716730853699208 I I #
point $-1 -38.724074606658476 2.8266657070490622 9.374763173177282 #
point $-1 -40.720236823633535 -3.6305973078868616 6.0525912375474933 #
straight-curve $-1 -40.720236823633535 0 9.374763173177282 0 -1 0 I I #
vertex $-1 $397 $510 #
point $-1 -37.906552573252355 -1.785665017905167 7.2060695084825834 #
vertex $-1 $401 $511 #
point $-1 -37.906552573252355 0.98173341706737105 7.2060695084825834 #
straight-curve $-1 -40.720236823633535 19.465607883979267 0 0 0 -1 I I #
point $-1 -40.720236823633535 -19.465607883979267 -9.374763173177282 #
straight-curve $-1 -40.720236823633535 0 -9.374763173177282 0 1 0 I I #
point $-1 -40.720236823633535 19.465607883979267 -9.374763173177282 #
coedge $-1 $427 $423 $432 $492 forward $308 $-1 #
vertex $-1 $424 $512 #
straight-curve $-1 -40.720236823633535 0 9.374763173177282 0 -1 0 I I #
point $-1 -40.720236823633535 -11.606943072759051 9.374763173177282 #
straight-curve $-1 40.720236823633535 0 9.374763173177282 0 1 0 I I #
edge $-1 $488 -40.720236823633535 $436 40.720236823633535 $432 $513 forward 7 unknown #
straight-curve $-1 -40.720236823633535 -19.465607883979267 0 0 0 -1 I I #
point $-1 40.720236823633535 -19.465607883979267 9.374763173177282 #
edge $-1 $453 -40.720236823633535 $497 40.720236823633535 $450 $514 forward 7 unknown #
straight-curve $-1 40.720236823633535 0 9.374763173177282 0 1 0 I I #
vertex $-1 $495 $515 #
straight-curve $-1 -40.720236823633535 0 9.374763173177282 0 -1 0 I I #
straight-curve $-1 -40.720236823633535 19.465607883979267 0 0 0 -1 I I #
point $-1 40.720236823633535 19.465607883979267 9.374763173177282 #
straight-curve $-1 40.720236823633535 0 9.374763173177282 0 1 0 I I #
straight-curve $-1 40.720236823633535 11.606943072759051 57.262618099077478 0 0 1 I I #
point $-1 40.720236823633535 11.606943072759048 9.374763173177282 #
point $-1 34.019642662033945 6.6975469197342044 4.1773694883049606 #
point $-1 34.019642662033945 9.6431846115491133 4.1773694883049606 #
straight-curve $-1 -40.720236823633535 2.8266657070490622 23.99876747133078 0 0 -1 I I #
point $-1 -40.720236823633535 2.8266657070490622 9.374763173177282 #
straight-curve $-1 -40.720236823633535 -0.20098290020944987 6.0525912375475031 0 -1 0 I I #
point $-1 -40.720236823633535 2.8266657070490622 6.0525912375474933 #
point $-1 -37.735487949919175 -1.785665017905167 6.519966823278776 #
point $-1 -37.735487949919175 0.98173341706737105 6.519966823278776 #
point $-1 -40.720236823633535 -19.465607883979267 9.374763173177282 #
straight-curve $-1 0 -19.465607883979267 9.374763173177282 1 0 0 I I #
straight-curve $-1 0 19.465607883979267 9.374763173177282 -1 0 0 I I #
point $-1 -40.720236823633535 19.465607883979267 9.374763173177282 #
End-of-ACIS-data 