500 0 4 0           
7 Unknown 11 ACIS 5.0 NT 24 Fri Mar 26 18:41:32 1999 
-1 9.9999999999999995e-007 1e-010 
body $-1 $4 $-1 $5 #
body $-1 $6 $-1 $7 #
body $-1 $8 $-1 $9 #
body $-1 $10 $-1 $11 #
lump $-1 $-1 $12 $0 #
transform $-1 1 0 0 0 1 0 0 0 1 54.193548387096776 28.79351668722564 12.78023704786343 1 rotate no_reflect no_shear #
lump $-1 $-1 $13 $1 #
transform $-1 1 0 0 0 1 0 0 0 1 54.193548387096776 28.79351668722564 12.78023704786343 1 rotate no_reflect no_shear #
lump $-1 $-1 $14 $2 #
transform $-1 1 0 0 0 1 0 0 0 1 54.193548387096776 28.79351668722564 12.78023704786343 1 rotate no_reflect no_shear #
lump $-1 $-1 $15 $3 #
transform $-1 1 0 0 0 1 0 0 0 1 54.193548387096776 28.79351668722564 12.78023704786343 1 rotate no_reflect no_shear #
shell $-1 $-1 $-1 $16 $-1 $4 #
shell $-1 $-1 $-1 $17 $-1 $6 #
shell $-1 $-1 $-1 $18 $-1 $8 #
shell $-1 $-1 $-1 $19 $-1 $10 #
face $-1 $20 $21 $12 $-1 $22 forward single #
face $-1 $23 $24 $13 $-1 $25 forward single #
face $-1 $26 $27 $14 $-1 $28 forward single #
face $-1 $29 $30 $15 $-1 $31 reversed single #
face $-1 $32 $33 $12 $-1 $34 reversed single #
loop $-1 $-1 $35 $16 #
plane-surface $-1 0 0 12.78023704786343 0 0 1 1 0 0 forward_v I I I I #
face $-1 $36 $37 $13 $-1 $38 forward single #
loop $-1 $-1 $39 $17 #
plane-surface $-1 -46.238555810868995 0 7.2831788824782056 0 0 1 1 0 0 forward_v I I I I #
face $-1 $40 $41 $14 $-1 $42 forward single #
loop $-1 $-1 $43 $18 #
plane-surface $-1 17.111156070667313 17.097819894288754 155.77165313313324 0 1 0 0.51503808176128008 0 0.85716729658548041 forward_v I I I I #
face $-1 $44 $45 $15 $-1 $46 reversed single #
loop $-1 $47 $48 $19 #
cone-surface $-1 47.70059240613849 22.945668290757197 7.0517227272244467 -0.51503808176128008 0 -0.85716729658548041 1.7143345931709608 0 -1.0300761635225602 1 I I 0 1 2 forward I I I I #
face $-1 $49 $50 $12 $-1 $51 reversed single #
loop $-1 $-1 $52 $20 #
plane-surface $-1 0 0 -12.78023704786343 0 0 1 1 0 0 forward_v I I I I #
coedge $-1 $53 $54 $55 $56 forward $21 $-1 #
face $-1 $57 $58 $13 $-1 $59 forward single #
loop $-1 $-1 $60 $23 #
plane-surface $-1 -38.283563234641214 0 10.031707965170817 -1 0 0 0 0 1 forward_v I I I I #
coedge $-1 $61 $62 $63 $64 reversed $24 $-1 #
face $-1 $65 $66 $14 $-1 $67 reversed single #
loop $-1 $-1 $68 $26 #
plane-surface $-1 -38.712326339587563 22.945668290757197 62.865778406448911 0.51503808176128008 0 0.85716729658548041 0.85716729658548041 0 -0.51503808176128008 forward_v I I I I #
coedge $-1 $69 $70 $71 $72 reversed $27 $-1 #
face $-1 $73 $74 $15 $-1 $75 forward single #
loop $-1 $76 $77 $29 #
cone-surface $-1 45.467367038586964 22.945668290757197 3.3350116358346824 -0.51503808176128008 0 -0.85716729658548041 0.85716729658548041 0 -0.51503808176128008 1 I I -0.70710678118654746 0.70710678118654746 1 forward I I I I #
loop $-1 $-1 $78 $19 #
coedge $-1 $48 $48 $79 $80 reversed $30 $-1 #
face $-1 $81 $82 $12 $-1 $83 reversed single #
loop $-1 $-1 $84 $32 #
plane-surface $-1 0 -28.79351668722564 0 0 1 0 0 0 1 forward_v I I I I #
coedge $-1 $85 $86 $87 $88 forward $33 $-1 #
coedge $-1 $89 $35 $90 $91 forward $21 $-1 #
coedge $-1 $35 $89 $92 $93 forward $21 $-1 #
coedge $-1 $94 $95 $35 $56 reversed $96 $-1 #
edge $-1 $97 -28.79351668722564 $98 28.79351668722564 $55 $99 forward 7 unknown #
face $-1 $100 $101 $13 $-1 $102 reversed single #
loop $-1 $-1 $103 $36 #
plane-surface $-1 0 0 12.78023704786343 0 0 1 1 0 0 forward_v I I I I #
coedge $-1 $104 $63 $105 $106 reversed $37 $-1 #
coedge $-1 $107 $39 $108 $109 reversed $24 $-1 #
coedge $-1 $39 $107 $110 $111 reversed $24 $-1 #
coedge $-1 $60 $112 $39 $64 forward $37 $-1 #
edge $-1 $113 -28.79351668722564 $114 28.79351668722564 $63 $115 forward 7 unknown #
face $-1 $116 $117 $14 $-1 $118 forward single #
loop $-1 $-1 $119 $40 #
plane-surface $-1 54.193548387096776 0 0 -1 0 0 0 0 1 forward_v I I I I #
coedge $-1 $120 $121 $119 $122 reversed $41 $-1 #
coedge $-1 $70 $43 $121 $123 forward $27 $-1 #
coedge $-1 $43 $69 $124 $125 reversed $27 $-1 #
coedge $-1 $126 $119 $43 $72 forward $66 $-1 #
edge $-1 $127 -70.843530570372593 $128 -65.105589518703198 $71 $129 forward 7 unknown #
face $-1 $130 $131 $15 $-1 $132 forward single #
loop $-1 $-1 $133 $44 #
plane-surface $-1 17.111156070667313 17.097819894288754 155.77165313313324 0 1 0 0.51503808176128008 0 0.85716729658548041 forward_v I I I I #
loop $-1 $-1 $134 $29 #
coedge $-1 $77 $77 $78 $135 forward $45 $-1 #
coedge $-1 $78 $78 $77 $135 reversed $47 $-1 #
coedge $-1 $79 $79 $48 $80 forward $131 $-1 #
edge $-1 $136 0 $136 6.2831853071796004 $79 $137 forward 7 unknown #
face $-1 $138 $139 $12 $-1 $140 reversed single #
loop $-1 $-1 $141 $49 #
plane-surface $-1 -54.193548387096776 0 0 1 0 0 0 0 -1 forward_v I I I I #
coedge $-1 $142 $92 $143 $144 forward $50 $-1 #
coedge $-1 $145 $52 $142 $146 forward $33 $-1 #
coedge $-1 $52 $145 $147 $148 forward $33 $-1 #
coedge $-1 $95 $94 $52 $88 reversed $96 $-1 #
edge $-1 $149 -28.79351668722564 $150 28.79351668722564 $87 $151 forward 7 unknown #
coedge $-1 $54 $53 $152 $153 forward $21 $-1 #
coedge $-1 $154 $155 $53 $91 reversed $139 $-1 #
edge $-1 $98 -54.193548387096776 $156 54.193548387096776 $90 $157 forward 7 unknown #
coedge $-1 $84 $158 $54 $93 reversed $50 $-1 #
edge $-1 $159 -54.193548387096776 $97 54.193548387096776 $92 $160 forward 7 unknown #
coedge $-1 $87 $55 $158 $161 forward $96 $-1 #
coedge $-1 $55 $87 $154 $162 reversed $96 $-1 #
loop $-1 $-1 $94 $138 #
vertex $-1 $56 $163 #
vertex $-1 $56 $164 #
straight-curve $-1 54.193548387096776 0 12.78023704786343 0 1 0 I I #
face $-1 $165 $166 $13 $-1 $167 reversed single #
loop $-1 $-1 $105 $57 #
plane-surface $-1 0 -28.79351668722564 0 0 1 0 0 0 1 forward_v I I I I #
coedge $-1 $168 $169 $104 $170 forward $58 $-1 #
coedge $-1 $112 $60 $103 $170 reversed $37 $-1 #
coedge $-1 $110 $171 $60 $106 forward $101 $-1 #
edge $-1 $172 -7.7643830652780199 $114 -2.2673248998927971 $105 $173 forward 7 unknown #
coedge $-1 $62 $61 $174 $175 reversed $24 $-1 #
coedge $-1 $176 $177 $61 $109 forward $178 $-1 #
edge $-1 $179 -31.074270481662278 $113 -15.164285329206717 $108 $180 forward 7 unknown #
coedge $-1 $181 $105 $62 $111 forward $101 $-1 #
edge $-1 $114 15.164285329206717 $182 31.074270481662278 $110 $183 forward 7 unknown #
coedge $-1 $63 $104 $176 $184 reversed $37 $-1 #
vertex $-1 $109 $185 #
vertex $-1 $111 $186 #
straight-curve $-1 -38.283563234641214 0 7.2831788824782056 0 -1 0 I I #
face $-1 $187 $188 $14 $-1 $189 forward single #
loop $-1 $-1 $124 $65 #
plane-surface $-1 0 0 12.78023704786343 0 0 1 1 0 0 forward_v I I I I #
coedge $-1 $71 $190 $68 $122 forward $66 $-1 #
coedge $-1 $191 $68 $192 $193 reversed $41 $-1 #
coedge $-1 $68 $191 $69 $123 reversed $41 $-1 #
edge $-1 $194 -17.320682541847042 $127 -5.6249857489101558 $119 $195 forward 7 unknown #
edge $-1 $127 -108.38709677419357 $196 -97.24628747316612 $69 $197 forward 7 unknown #
coedge $-1 $198 $199 $70 $125 forward $117 $-1 #
edge $-1 $128 -45.637970351763116 $196 -36.08843296142706 $124 $200 forward 7 unknown #
coedge $-1 $201 $71 $199 $202 reversed $66 $-1 #
vertex $-1 $122 $203 #
vertex $-1 $125 $204 #
straight-curve $-1 54.193548387096776 17.097819894288754 77.885826566566621 0 0 1 I I #
face $-1 $205 $206 $15 $-1 $207 reversed single #
loop $-1 $208 $79 $73 #
plane-surface $-1 -38.712326339587563 22.945668290757197 62.865778406448911 0.51503808176128008 0 0.85716729658548041 0.85716729658548041 0 -0.51503808176128008 forward_v I I I I #
coedge $-1 $209 $210 $211 $212 reversed $74 $-1 #
coedge $-1 $134 $134 $-1 $213 forward $76 $-1 #
edge $-1 $214 0 $214 6.2831853071796004 $77 $215 forward 7 unknown #
vertex $-1 $80 $216 #
ellipse-curve $-1 49.418779691928741 22.945668290757197 9.9112665220287433 -0.51503808176128008 0 -0.85716729658548041 1.7143345931709608 0 -1.0300761635225602 1 I I #
face $-1 $-1 $96 $12 $-1 $217 reversed single #
loop $-1 $-1 $154 $81 #
plane-surface $-1 0 28.79351668722564 0 0 -1 0 0 0 -1 forward_v I I I I #
coedge $-1 $218 $152 $155 $219 forward $82 $-1 #
coedge $-1 $158 $84 $85 $146 reversed $50 $-1 #
coedge $-1 $152 $218 $84 $144 reversed $82 $-1 #
edge $-1 $159 -12.78023704786343 $220 12.78023704786343 $143 $221 forward 7 unknown #
coedge $-1 $86 $85 $218 $222 forward $33 $-1 #
edge $-1 $150 -54.193548387096776 $220 54.193548387096776 $142 $223 forward 7 unknown #
coedge $-1 $155 $154 $86 $148 reversed $139 $-1 #
edge $-1 $224 -54.193548387096776 $149 54.193548387096776 $147 $225 forward 7 unknown #
vertex $-1 $88 $226 #
vertex $-1 $161 $227 #
straight-curve $-1 54.193548387096776 0 -12.78023704786343 0 -1 0 I I #
coedge $-1 $141 $143 $89 $153 reversed $82 $-1 #
edge $-1 $156 -28.79351668722564 $159 28.79351668722564 $152 $228 forward 7 unknown #
coedge $-1 $147 $90 $95 $162 forward $139 $-1 #
coedge $-1 $90 $147 $141 $219 reversed $139 $-1 #
vertex $-1 $91 $229 #
straight-curve $-1 0 28.79351668722564 12.78023704786343 -1 0 0 I I #
coedge $-1 $92 $142 $94 $161 reversed $50 $-1 #
vertex $-1 $153 $230 #
straight-curve $-1 0 -28.79351668722564 12.78023704786343 1 0 0 I I #
edge $-1 $97 -12.78023704786343 $150 12.78023704786343 $94 $231 forward 7 unknown #
edge $-1 $98 -12.78023704786343 $149 12.78023704786343 $95 $232 forward 7 unknown #
point $-1 54.193548387096776 -28.79351668722564 12.78023704786343 #
point $-1 54.193548387096776 28.79351668722564 12.78023704786343 #
face $-1 $233 $234 $13 $-1 $235 reversed single #
loop $-1 $-1 $236 $100 #
plane-surface $-1 0 0 -12.78023704786343 0 0 1 1 0 0 forward_v I I I I #
coedge $-1 $237 $103 $171 $238 forward $58 $-1 #
coedge $-1 $103 $237 $239 $240 forward $58 $-1 #
edge $-1 $241 -28.79351668722564 $172 28.79351668722564 $103 $242 forward 7 unknown #
coedge $-1 $105 $243 $168 $238 reversed $101 $-1 #
vertex $-1 $238 $244 #
straight-curve $-1 -38.283563234641214 -28.79351668722564 5.0158539825854085 0 0 -1 I I #
coedge $-1 $245 $246 $107 $175 forward $234 $-1 #
edge $-1 $182 -28.79351668722564 $179 28.79351668722564 $174 $247 forward 7 unknown #
coedge $-1 $239 $108 $112 $184 forward $178 $-1 #
coedge $-1 $108 $248 $245 $249 reversed $178 $-1 #
loop $-1 $-1 $176 $233 #
vertex $-1 $249 $250 #
straight-curve $-1 -23.119277905434497 28.79351668722564 7.2831788824782056 1 0 0 I I #
coedge $-1 $251 $110 $246 $252 forward $101 $-1 #
vertex $-1 $252 $253 #
straight-curve $-1 -23.119277905434497 -28.79351668722564 7.2831788824782056 -1 0 0 I I #
edge $-1 $113 2.2673248998927971 $241 7.7643830652780199 $176 $254 forward 7 unknown #
point $-1 -38.283563234641214 28.79351668722564 7.2831788824782056 #
point $-1 -38.283563234641214 -28.79351668722564 7.2831788824782056 #
face $-1 $255 $256 $14 $-1 $257 forward single #
loop $-1 $-1 $258 $116 #
plane-surface $-1 -46.238555810868995 0 7.2831788824782056 0 0 1 1 0 0 forward_v I I I I #
coedge $-1 $119 $259 $260 $261 reversed $66 $-1 #
coedge $-1 $121 $120 $198 $262 reversed $41 $-1 #
coedge $-1 $260 $263 $120 $193 forward $264 $-1 #
edge $-1 $265 64.465682457202959 $194 75.606491758230405 $192 $266 forward 7 unknown #
vertex $-1 $261 $267 #
straight-curve $-1 54.193548387096769 11.472834145378599 7.0422959961940386 0 -1 0 I I #
vertex $-1 $262 $268 #
straight-curve $-1 -38.712326339587563 17.097819894288754 62.865778406448911 -0.85716729658548041 0 0.51503808176128008 I I #
coedge $-1 $269 $124 $191 $262 forward $117 $-1 #
coedge $-1 $124 $270 $126 $202 forward $117 $-1 #
straight-curve $-1 8.5555780353336566 17.097819894288754 12.780237047863437 -1 0 0 I I #
coedge $-1 $259 $126 $271 $272 forward $66 $-1 #
edge $-1 $273 -28.79351668722564 $128 17.097819894288754 $126 $274 forward 7 unknown #
point $-1 54.193548387096783 17.097819894288754 7.0422959961940279 #
point $-1 54.193548387096776 17.097819894288754 12.78023704786343 #
face $-1 $275 $276 $15 $-1 $277 forward single #
loop $-1 $-1 $278 $130 #
plane-surface $-1 54.193548387096776 0 0 -1 0 0 0 0 1 forward_v I I I I #
loop $-1 $-1 $279 $73 #
coedge $-1 $210 $133 $280 $281 forward $74 $-1 #
coedge $-1 $133 $209 $282 $283 reversed $74 $-1 #
coedge $-1 $284 $278 $133 $212 forward $206 $-1 #
edge $-1 $285 -70.843530570372593 $286 -65.105589518703198 $211 $287 forward 7 unknown #
edge $-1 $288 1 $288 0 $134 $-1 forward 7 unknown #
vertex $-1 $135 $289 #
ellipse-curve $-1 45.982405120348247 22.945668290757197 4.1921789324201626 0.51503808176128008 0 0.85716729658548041 1.7143345931709608 0 -1.0300761635225602 1 I I #
point $-1 51.133114285099701 22.945668290757197 8.8811903585061707 #
plane-surface $-1 54.193548387096776 0 0 -1 0 0 0 0 1 forward_v I I I I #
coedge $-1 $143 $141 $145 $222 reversed $82 $-1 #
edge $-1 $156 -12.78023704786343 $224 12.78023704786343 $155 $290 forward 7 unknown #
vertex $-1 $222 $291 #
straight-curve $-1 -54.193548387096776 -28.79351668722564 0 0 0 -1 I I #
edge $-1 $220 -28.79351668722564 $224 28.79351668722564 $218 $292 forward 7 unknown #
straight-curve $-1 0 -28.79351668722564 -12.78023704786343 -1 0 0 I I #
vertex $-1 $148 $293 #
straight-curve $-1 0 28.79351668722564 -12.78023704786343 1 0 0 I I #
point $-1 54.193548387096776 28.79351668722564 -12.78023704786343 #
point $-1 54.193548387096776 -28.79351668722564 -12.78023704786343 #
straight-curve $-1 -54.193548387096776 0 12.78023704786343 0 -1 0 I I #
point $-1 -54.193548387096776 28.79351668722564 12.78023704786343 #
point $-1 -54.193548387096776 -28.79351668722564 12.78023704786343 #
straight-curve $-1 54.193548387096776 -28.79351668722564 0 0 0 -1 I I #
straight-curve $-1 54.193548387096776 28.79351668722564 0 0 0 -1 I I #
face $-1 $294 $178 $13 $-1 $295 reversed single #
loop $-1 $-1 $174 $165 #
plane-surface $-1 -54.193548387096776 0 0 1 0 0 0 0 -1 forward_v I I I I #
coedge $-1 $296 $297 $298 $299 forward $166 $-1 #
coedge $-1 $169 $168 $300 $301 forward $58 $-1 #
edge $-1 $172 -38.283563234641214 $302 54.193548387096776 $171 $303 forward 7 unknown #
coedge $-1 $304 $176 $169 $240 reversed $178 $-1 #
edge $-1 $305 -54.193548387096776 $241 38.283563234641214 $239 $306 forward 7 unknown #
vertex $-1 $170 $307 #
straight-curve $-1 -38.283563234641214 0 12.78023704786343 0 -1 0 I I #
coedge $-1 $171 $251 $308 $309 reversed $101 $-1 #
point $-1 -38.283563234641214 -28.79351668722564 12.780237047863428 #
coedge $-1 $310 $174 $177 $249 forward $234 $-1 #
coedge $-1 $174 $310 $181 $252 reversed $234 $-1 #
straight-curve $-1 -54.193548387096776 0 7.2831788824782056 0 1 0 I I #
coedge $-1 $177 $304 $297 $311 reversed $178 $-1 #
edge $-1 $179 -7.2831788824782056 $312 12.78023704786343 $177 $313 forward 7 unknown #
point $-1 -54.193548387096776 28.79351668722564 7.2831788824782056 #
coedge $-1 $243 $181 $296 $314 reversed $101 $-1 #
edge $-1 $182 -7.2831788824782056 $315 12.78023704786343 $246 $316 forward 7 unknown #
point $-1 -54.193548387096776 -28.79351668722564 7.2831788824782056 #
straight-curve $-1 -38.283563234641214 28.79351668722564 5.0158539825854085 0 0 1 I I #
face $-1 $317 $318 $14 $-1 $319 reversed single #
loop $-1 $-1 $320 $187 #
plane-surface $-1 -38.283563234641214 0 10.031707965170817 -1 0 0 0 0 1 forward_v I I I I #
coedge $-1 $321 $322 $323 $324 reversed $188 $-1 #
coedge $-1 $190 $201 $325 $326 reversed $66 $-1 #
coedge $-1 $327 $192 $190 $261 forward $264 $-1 #
edge $-1 $194 -7.0422959961940306 $328 12.78023704786343 $190 $329 forward 7 unknown #
edge $-1 $196 5.6249857489101558 $265 17.320682541847042 $198 $330 forward 7 unknown #
coedge $-1 $192 $331 $269 $332 reversed $264 $-1 #
loop $-1 $-1 $192 $333 #
vertex $-1 $332 $334 #
straight-curve $-1 -10.613863757617986 28.79351668722564 45.982518480053052 0.85716729658548041 0 -0.51503808176128008 I I #
point $-1 54.193548387096776 28.79351668722564 7.0422959961940306 #
point $-1 44.644010996760713 17.097819894288754 12.78023704786343 #
coedge $-1 $335 $198 $263 $332 forward $117 $-1 #
coedge $-1 $199 $335 $336 $337 forward $117 $-1 #
coedge $-1 $336 $338 $201 $272 reversed $318 $-1 #
edge $-1 $273 -12.78023704786343 $339 12.78023704786343 $201 $340 forward 7 unknown #
vertex $-1 $202 $341 #
straight-curve $-1 54.193548387096776 0 12.78023704786343 0 1 0 I I #
face $-1 $342 $343 $15 $-1 $344 forward single #
loop $-1 $-1 $282 $205 #
plane-surface $-1 0 0 12.78023704786343 0 0 1 1 0 0 forward_v I I I I #
coedge $-1 $211 $345 $279 $346 forward $206 $-1 #
coedge $-1 $347 $280 $278 $346 reversed $208 $-1 #
coedge $-1 $279 $348 $209 $281 reversed $208 $-1 #
edge $-1 $285 -108.38709677419357 $349 -97.24628747316612 $209 $350 forward 7 unknown #
coedge $-1 $351 $352 $210 $283 forward $276 $-1 #
edge $-1 $286 -45.637970351763116 $349 -36.08843296142706 $282 $353 forward 7 unknown #
coedge $-1 $354 $211 $352 $355 reversed $206 $-1 #
vertex $-1 $346 $356 #
vertex $-1 $283 $357 #
straight-curve $-1 54.193548387096776 17.097819894288754 77.885826566566621 0 0 1 I I #
vertex $-1 $213 $358 #
point $-1 47.696739713519207 22.945668290757197 3.1621027688976024 #
straight-curve $-1 -54.193548387096776 28.79351668722564 0 0 0 -1 I I #
point $-1 -54.193548387096776 -28.79351668722564 -12.78023704786343 #
straight-curve $-1 -54.193548387096776 0 -12.78023704786343 0 1 0 I I #
point $-1 -54.193548387096776 28.79351668722564 -12.78023704786343 #
face $-1 $-1 $359 $13 $-1 $360 reversed single #
plane-surface $-1 0 28.79351668722564 0 0 -1 0 0 0 -1 forward_v I I I I #
coedge $-1 $361 $236 $251 $314 forward $166 $-1 #
coedge $-1 $236 $361 $248 $311 forward $166 $-1 #
coedge $-1 $362 $308 $236 $299 reversed $359 $-1 #
edge $-1 $363 -28.79351668722564 $364 28.79351668722564 $298 $365 forward 7 unknown #
coedge $-1 $308 $362 $237 $301 reversed $359 $-1 #
edge $-1 $302 -28.79351668722564 $305 28.79351668722564 $300 $366 forward 7 unknown #
vertex $-1 $301 $367 #
straight-curve $-1 0 -28.79351668722564 12.78023704786343 1 0 0 I I #
coedge $-1 $248 $239 $362 $368 forward $178 $-1 #
vertex $-1 $301 $369 #
straight-curve $-1 0 28.79351668722564 12.78023704786343 -1 0 0 I I #
point $-1 -38.283563234641214 28.79351668722564 12.780237047863428 #
coedge $-1 $298 $300 $243 $309 forward $359 $-1 #
edge $-1 $302 -12.78023704786343 $364 12.78023704786343 $308 $370 forward 7 unknown #
coedge $-1 $246 $245 $361 $371 reversed $234 $-1 #
edge $-1 $312 -54.193548387096776 $363 54.193548387096776 $248 $372 forward 7 unknown #
vertex $-1 $311 $373 #
straight-curve $-1 -54.193548387096776 28.79351668722564 0 0 0 -1 I I #
edge $-1 $364 -54.193548387096776 $315 54.193548387096776 $251 $374 forward 7 unknown #
vertex $-1 $371 $375 #
straight-curve $-1 -54.193548387096776 -28.79351668722564 0 0 0 -1 I I #
face $-1 $376 $377 $14 $-1 $378 reversed single #
loop $-1 $-1 $379 $255 #
plane-surface $-1 0 -28.79351668722564 0 0 1 0 0 0 1 forward_v I I I I #
coedge $-1 $380 $323 $379 $381 reversed $256 $-1 #
coedge $-1 $382 $258 $383 $384 reversed $188 $-1 #
coedge $-1 $258 $382 $385 $386 reversed $188 $-1 #
coedge $-1 $320 $387 $258 $324 forward $256 $-1 #
edge $-1 $388 -28.79351668722564 $389 28.79351668722564 $323 $390 forward 7 unknown #
coedge $-1 $391 $392 $259 $326 forward $377 $-1 #
edge $-1 $328 -28.79351668722564 $339 28.79351668722564 $259 $393 forward 7 unknown #
coedge $-1 $394 $260 $392 $395 reversed $264 $-1 #
vertex $-1 $326 $396 #
straight-curve $-1 54.193548387096776 28.79351668722564 0 0 0 -1 I I #
straight-curve $-1 44.644010996760713 11.472834145378599 12.78023704786343 0 1 0 I I #
coedge $-1 $263 $383 $387 $397 forward $264 $-1 #
edge $-1 $265 -44.644010996760713 $398 38.283563234641214 $263 $399 forward 7 unknown #
face $-1 $-1 $264 $14 $-1 $400 reversed single #
point $-1 44.644010996760713 28.79351668722564 12.78023704786343 #
coedge $-1 $270 $269 $380 $401 forward $117 $-1 #
coedge $-1 $379 $271 $270 $337 reversed $318 $-1 #
edge $-1 $402 -38.283563234641214 $273 54.193548387096776 $336 $403 forward 7 unknown #
coedge $-1 $271 $404 $391 $405 reversed $318 $-1 #
vertex $-1 $272 $406 #
straight-curve $-1 54.193548387096776 -28.79351668722564 0 0 0 -1 I I #
point $-1 54.193548387096776 -28.79351668722564 12.78023704786343 #
face $-1 $407 $408 $15 $-1 $409 forward single #
loop $-1 $-1 $410 $275 #
plane-surface $-1 -46.238555810868995 0 7.2831788824782056 0 0 1 1 0 0 forward_v I I I I #
coedge $-1 $278 $411 $412 $413 reversed $206 $-1 #
edge $-1 $414 -17.320682541847042 $285 -5.6249857489101558 $278 $415 forward 7 unknown #
coedge $-1 $348 $279 $416 $417 reversed $208 $-1 #
coedge $-1 $280 $347 $351 $418 reversed $208 $-1 #
vertex $-1 $418 $419 #
straight-curve $-1 -38.712326339587563 17.097819894288754 62.865778406448911 -0.85716729658548041 0 0.51503808176128008 I I #
coedge $-1 $420 $282 $348 $418 forward $276 $-1 #
coedge $-1 $282 $421 $284 $355 forward $276 $-1 #
straight-curve $-1 8.5555780353336566 17.097819894288754 12.780237047863437 -1 0 0 I I #
coedge $-1 $411 $284 $422 $423 forward $206 $-1 #
edge $-1 $424 -28.79351668722564 $286 17.097819894288754 $284 $425 forward 7 unknown #
point $-1 54.193548387096783 17.097819894288754 7.0422959961940279 #
point $-1 54.193548387096776 17.097819894288754 12.78023704786343 #
point $-1 44.952328956825681 22.945668290757197 2.4778443392492022 #
loop $-1 $-1 $308 $294 #
plane-surface $-1 54.193548387096776 0 0 -1 0 0 0 0 1 forward_v I I I I #
coedge $-1 $297 $296 $310 $371 forward $166 $-1 #
coedge $-1 $300 $298 $304 $368 reversed $359 $-1 #
vertex $-1 $299 $426 #
vertex $-1 $309 $427 #
straight-curve $-1 54.193548387096776 0 -12.78023704786343 0 -1 0 I I #
straight-curve $-1 54.193548387096776 0 12.78023704786343 0 1 0 I I #
point $-1 54.193548387096776 -28.79351668722564 12.78023704786343 #
edge $-1 $305 -12.78023704786343 $363 12.78023704786343 $362 $428 forward 7 unknown #
point $-1 54.193548387096776 28.79351668722564 12.78023704786343 #
straight-curve $-1 54.193548387096776 -28.79351668722564 0 0 0 -1 I I #
edge $-1 $315 -28.79351668722564 $312 28.79351668722564 $310 $429 forward 7 unknown #
straight-curve $-1 0 28.79351668722564 -12.78023704786343 1 0 0 I I #
point $-1 -54.193548387096776 28.79351668722564 -12.78023704786343 #
straight-curve $-1 0 -28.79351668722564 -12.78023704786343 -1 0 0 I I #
point $-1 -54.193548387096776 -28.79351668722564 -12.78023704786343 #
face $-1 $333 $430 $14 $-1 $431 reversed single #
loop $-1 $-1 $325 $317 #
plane-surface $-1 0 0 -12.78023704786343 0 0 1 1 0 0 forward_v I I I I #
coedge $-1 $385 $336 $320 $381 forward $318 $-1 #
coedge $-1 $387 $320 $335 $401 reversed $256 $-1 #
edge $-1 $402 -7.7643830652780199 $389 -2.2673248998927971 $379 $432 forward 7 unknown #
coedge $-1 $322 $321 $433 $434 reversed $188 $-1 #
coedge $-1 $331 $394 $321 $384 forward $264 $-1 #
edge $-1 $435 -31.074270481662278 $388 -15.164285329206717 $383 $436 forward 7 unknown #
coedge $-1 $404 $379 $322 $386 forward $318 $-1 #
edge $-1 $389 15.164285329206717 $437 31.074270481662278 $385 $438 forward 7 unknown #
coedge $-1 $323 $380 $331 $397 reversed $256 $-1 #
vertex $-1 $384 $439 #
vertex $-1 $386 $440 #
straight-curve $-1 -38.283563234641214 0 7.2831788824782056 0 -1 0 I I #
coedge $-1 $441 $325 $338 $405 forward $377 $-1 #
coedge $-1 $325 $441 $327 $395 forward $377 $-1 #
straight-curve $-1 54.193548387096776 0 -12.78023704786343 0 -1 0 I I #
coedge $-1 $383 $327 $442 $443 reversed $264 $-1 #
edge $-1 $444 -54.193548387096776 $328 54.193548387096776 $327 $445 forward 7 unknown #
point $-1 54.193548387096776 28.79351668722564 -12.78023704786343 #
edge $-1 $388 2.2673248998927971 $398 7.7643830652780199 $331 $446 forward 7 unknown #
vertex $-1 $401 $447 #
straight-curve $-1 0 28.79351668722564 12.78023704786343 -1 0 0 I I #
plane-surface $-1 0 28.79351668722564 0 0 -1 0 0 0 -1 forward_v I I I I #
edge $-1 $398 -28.79351668722564 $402 28.79351668722564 $335 $448 forward 7 unknown #
vertex $-1 $337 $449 #
straight-curve $-1 0 -28.79351668722564 12.78023704786343 1 0 0 I I #
coedge $-1 $338 $385 $450 $451 forward $318 $-1 #
edge $-1 $339 -54.193548387096776 $452 54.193548387096776 $338 $453 forward 7 unknown #
point $-1 54.193548387096776 -28.79351668722564 -12.78023704786343 #
face $-1 $454 $455 $15 $-1 $456 reversed single #
loop $-1 $-1 $457 $342 #
plane-surface $-1 -38.283563234641214 0 10.031707965170817 -1 0 0 0 0 1 forward_v I I I I #
coedge $-1 $458 $459 $460 $461 reversed $343 $-1 #
coedge $-1 $345 $354 $462 $463 reversed $206 $-1 #
coedge $-1 $464 $416 $345 $413 forward $465 $-1 #
edge $-1 $414 -7.0422959961940306 $466 12.78023704786343 $345 $467 forward 7 unknown #
vertex $-1 $413 $468 #
straight-curve $-1 54.193548387096769 11.472834145378599 7.0422959961940386 0 -1 0 I I #
coedge $-1 $412 $469 $347 $417 forward $465 $-1 #
edge $-1 $470 64.465682457202959 $414 75.606491758230405 $416 $471 forward 7 unknown #
edge $-1 $349 5.6249857489101558 $470 17.320682541847042 $351 $472 forward 7 unknown #
point $-1 44.644010996760713 17.097819894288754 12.78023704786343 #
coedge $-1 $473 $351 $469 $474 forward $276 $-1 #
coedge $-1 $352 $473 $475 $476 forward $276 $-1 #
coedge $-1 $475 $477 $354 $423 reversed $455 $-1 #
edge $-1 $424 -12.78023704786343 $478 12.78023704786343 $354 $479 forward 7 unknown #
vertex $-1 $355 $480 #
straight-curve $-1 54.193548387096776 0 12.78023704786343 0 1 0 I I #
point $-1 54.193548387096776 28.79351668722564 -12.78023704786343 #
point $-1 54.193548387096776 -28.79351668722564 -12.78023704786343 #
straight-curve $-1 54.193548387096776 28.79351668722564 0 0 0 -1 I I #
straight-curve $-1 -54.193548387096776 0 -12.78023704786343 0 1 0 I I #
loop $-1 $-1 $433 $376 #
plane-surface $-1 -54.193548387096776 0 0 1 0 0 0 0 -1 forward_v I I I I #
straight-curve $-1 -38.283563234641214 -28.79351668722564 5.0158539825854085 0 0 -1 I I #
coedge $-1 $442 $450 $382 $434 forward $430 $-1 #
edge $-1 $437 -28.79351668722564 $435 28.79351668722564 $433 $481 forward 7 unknown #
vertex $-1 $443 $482 #
straight-curve $-1 -23.119277905434497 28.79351668722564 7.2831788824782056 1 0 0 I I #
vertex $-1 $451 $483 #
straight-curve $-1 -23.119277905434497 -28.79351668722564 7.2831788824782056 -1 0 0 I I #
point $-1 -38.283563234641214 28.79351668722564 7.2831788824782056 #
point $-1 -38.283563234641214 -28.79351668722564 7.2831788824782056 #
coedge $-1 $392 $391 $484 $485 forward $377 $-1 #
coedge $-1 $484 $433 $394 $443 forward $430 $-1 #
edge $-1 $435 -7.2831788824782056 $444 12.78023704786343 $394 $486 forward 7 unknown #
vertex $-1 $395 $487 #
straight-curve $-1 0 28.79351668722564 -12.78023704786343 1 0 0 I I #
straight-curve $-1 -38.283563234641214 28.79351668722564 5.0158539825854085 0 0 1 I I #
point $-1 -38.283563234641214 28.79351668722564 12.780237047863428 #
straight-curve $-1 -38.283563234641214 0 12.78023704786343 0 -1 0 I I #
point $-1 -38.283563234641214 -28.79351668722564 12.780237047863428 #
coedge $-1 $433 $484 $404 $451 reversed $430 $-1 #
edge $-1 $437 -7.2831788824782056 $452 12.78023704786343 $450 $488 forward 7 unknown #
vertex $-1 $485 $489 #
straight-curve $-1 0 -28.79351668722564 -12.78023704786343 -1 0 0 I I #
face $-1 $490 $491 $15 $-1 $492 reversed single #
loop $-1 $-1 $493 $407 #
plane-surface $-1 0 -28.79351668722564 0 0 1 0 0 0 1 forward_v I I I I #
coedge $-1 $494 $460 $493 $495 reversed $408 $-1 #
coedge $-1 $496 $410 $497 $498 reversed $343 $-1 #
coedge $-1 $410 $496 $499 $500 reversed $343 $-1 #
coedge $-1 $457 $501 $410 $461 forward $408 $-1 #
edge $-1 $502 -28.79351668722564 $503 28.79351668722564 $460 $504 forward 7 unknown #
coedge $-1 $505 $506 $411 $463 forward $491 $-1 #
edge $-1 $466 -28.79351668722564 $478 28.79351668722564 $411 $507 forward 7 unknown #
coedge $-1 $508 $412 $506 $509 reversed $465 $-1 #
loop $-1 $-1 $416 $510 #
vertex $-1 $463 $511 #
straight-curve $-1 54.193548387096776 28.79351668722564 0 0 0 -1 I I #
point $-1 54.193548387096776 28.79351668722564 7.0422959961940306 #
coedge $-1 $416 $512 $420 $474 reversed $465 $-1 #
vertex $-1 $474 $513 #
straight-curve $-1 -10.613863757617986 28.79351668722564 45.982518480053052 0.85716729658548041 0 -0.51503808176128008 I I #
straight-curve $-1 44.644010996760713 11.472834145378599 12.78023704786343 0 1 0 I I #
coedge $-1 $421 $420 $494 $514 forward $276 $-1 #
edge $-1 $470 -44.644010996760713 $515 38.283563234641214 $469 $516 forward 7 unknown #
coedge $-1 $493 $422 $421 $476 reversed $455 $-1 #
edge $-1 $517 -38.283563234641214 $424 54.193548387096776 $475 $518 forward 7 unknown #
coedge $-1 $422 $519 $505 $520 reversed $455 $-1 #
vertex $-1 $423 $521 #
straight-curve $-1 54.193548387096776 -28.79351668722564 0 0 0 -1 I I #
point $-1 54.193548387096776 -28.79351668722564 12.78023704786343 #
straight-curve $-1 -54.193548387096776 0 7.2831788824782056 0 1 0 I I #
point $-1 -54.193548387096776 28.79351668722564 7.2831788824782056 #
point $-1 -54.193548387096776 -28.79351668722564 7.2831788824782056 #
coedge $-1 $450 $442 $441 $485 reversed $430 $-1 #
edge $-1 $452 -28.79351668722564 $444 28.79351668722564 $484 $522 forward 7 unknown #
straight-curve $-1 -54.193548387096776 28.79351668722564 0 0 0 -1 I I #
point $-1 -54.193548387096776 28.79351668722564 -12.78023704786343 #
straight-curve $-1 -54.193548387096776 -28.79351668722564 0 0 0 -1 I I #
point $-1 -54.193548387096776 -28.79351668722564 -12.78023704786343 #
face $-1 $510 $523 $15 $-1 $524 reversed single #
loop $-1 $-1 $462 $454 #
plane-surface $-1 0 0 -12.78023704786343 0 0 1 1 0 0 forward_v I I I I #
coedge $-1 $499 $475 $457 $495 forward $455 $-1 #
coedge $-1 $501 $457 $473 $514 reversed $408 $-1 #
edge $-1 $517 -7.7643830652780199 $503 -2.2673248998927971 $493 $525 forward 7 unknown #
coedge $-1 $459 $458 $526 $527 reversed $343 $-1 #
coedge $-1 $512 $508 $458 $498 forward $465 $-1 #
edge $-1 $528 -31.074270481662278 $502 -15.164285329206717 $497 $529 forward 7 unknown #
coedge $-1 $519 $493 $459 $500 forward $455 $-1 #
edge $-1 $503 15.164285329206717 $530 31.074270481662278 $499 $531 forward 7 unknown #
coedge $-1 $460 $494 $512 $532 reversed $408 $-1 #
vertex $-1 $498 $533 #
vertex $-1 $500 $534 #
straight-curve $-1 -38.283563234641214 0 7.2831788824782056 0 -1 0 I I #
coedge $-1 $535 $462 $477 $520 forward $491 $-1 #
coedge $-1 $462 $535 $464 $509 forward $491 $-1 #
straight-curve $-1 54.193548387096776 0 -12.78023704786343 0 -1 0 I I #
coedge $-1 $497 $464 $536 $537 reversed $465 $-1 #
edge $-1 $538 -54.193548387096776 $466 54.193548387096776 $464 $539 forward 7 unknown #
face $-1 $-1 $465 $15 $-1 $540 reversed single #
point $-1 54.193548387096776 28.79351668722564 -12.78023704786343 #
coedge $-1 $469 $497 $501 $532 forward $465 $-1 #
point $-1 44.644010996760713 28.79351668722564 12.78023704786343 #
edge $-1 $515 -28.79351668722564 $517 28.79351668722564 $473 $541 forward 7 unknown #
vertex $-1 $514 $542 #
straight-curve $-1 0 28.79351668722564 12.78023704786343 -1 0 0 I I #
vertex $-1 $476 $543 #
straight-curve $-1 0 -28.79351668722564 12.78023704786343 1 0 0 I I #
coedge $-1 $477 $499 $544 $545 forward $455 $-1 #
edge $-1 $478 -54.193548387096776 $546 54.193548387096776 $477 $547 forward 7 unknown #
point $-1 54.193548387096776 -28.79351668722564 -12.78023704786343 #
straight-curve $-1 -54.193548387096776 0 -12.78023704786343 0 1 0 I I #
loop $-1 $-1 $526 $490 #
plane-surface $-1 -54.193548387096776 0 0 1 0 0 0 0 -1 forward_v I I I I #
straight-curve $-1 -38.283563234641214 -28.79351668722564 5.0158539825854085 0 0 -1 I I #
coedge $-1 $536 $544 $496 $527 forward $523 $-1 #
edge $-1 $530 -28.79351668722564 $528 28.79351668722564 $526 $548 forward 7 unknown #
vertex $-1 $537 $549 #
straight-curve $-1 -23.119277905434497 28.79351668722564 7.2831788824782056 1 0 0 I I #
vertex $-1 $545 $550 #
straight-curve $-1 -23.119277905434497 -28.79351668722564 7.2831788824782056 -1 0 0 I I #
edge $-1 $502 2.2673248998927971 $515 7.7643830652780199 $512 $551 forward 7 unknown #
point $-1 -38.283563234641214 28.79351668722564 7.2831788824782056 #
point $-1 -38.283563234641214 -28.79351668722564 7.2831788824782056 #
coedge $-1 $506 $505 $552 $553 forward $491 $-1 #
coedge $-1 $552 $526 $508 $537 forward $523 $-1 #
edge $-1 $528 -7.2831788824782056 $538 12.78023704786343 $508 $554 forward 7 unknown #
vertex $-1 $509 $555 #
straight-curve $-1 0 28.79351668722564 -12.78023704786343 1 0 0 I I #
plane-surface $-1 0 28.79351668722564 0 0 -1 0 0 0 -1 forward_v I I I I #
straight-curve $-1 -38.283563234641214 0 12.78023704786343 0 -1 0 I I #
point $-1 -38.283563234641214 28.79351668722564 12.780237047863428 #
point $-1 -38.283563234641214 -28.79351668722564 12.780237047863428 #
coedge $-1 $526 $552 $519 $545 reversed $523 $-1 #
edge $-1 $530 -7.2831788824782056 $546 12.78023704786343 $544 $556 forward 7 unknown #
vertex $-1 $553 $557 #
straight-curve $-1 0 -28.79351668722564 -12.78023704786343 -1 0 0 I I #
straight-curve $-1 -54.193548387096776 0 7.2831788824782056 0 1 0 I I #
point $-1 -54.193548387096776 28.79351668722564 7.2831788824782056 #
point $-1 -54.193548387096776 -28.79351668722564 7.2831788824782056 #
straight-curve $-1 -38.283563234641214 28.79351668722564 5.0158539825854085 0 0 1 I I #
coedge $-1 $544 $536 $535 $553 reversed $523 $-1 #
edge $-1 $546 -28.79351668722564 $538 28.79351668722564 $552 $558 forward 7 unknown #
straight-curve $-1 -54.193548387096776 28.79351668722564 0 0 0 -1 I I #
point $-1 -54.193548387096776 28.79351668722564 -12.78023704786343 #
straight-curve $-1 -54.193548387096776 -28.79351668722564 0 0 0 -1 I I #
point $-1 -54.193548387096776 -28.79351668722564 -12.78023704786343 #
straight-curve $-1 -54.193548387096776 0 -12.78023704786343 0 1 0 I I #
End-of-ACIS-data 