500 0 8 0           
7 Unknown 11 ACIS 5.0 NT 24 Fri Mar 26 15:12:39 1999 
-1 9.9999999999999995e-007 1e-010 
body $-1 $8 $-1 $9 #
body $-1 $10 $-1 $11 #
body $-1 $12 $-1 $13 #
body $-1 $14 $-1 $15 #
body $-1 $16 $-1 $17 #
body $-1 $18 $-1 $19 #
body $-1 $20 $-1 $21 #
body $-1 $22 $-1 $23 #
lump $-1 $-1 $24 $0 #
transform $-1 1 0 0 0 1 0 0 0 1 65.490279854731895 34.841140674570674 17.314984678879473 1 rotate no_reflect no_shear #
lump $-1 $-1 $25 $1 #
transform $-1 1 0 0 0 1 0 0 0 1 65.490279854731895 34.841140674570674 17.314984678879473 1 rotate no_reflect no_shear #
lump $-1 $-1 $26 $2 #
transform $-1 1 0 0 0 1 0 0 0 1 65.490279854731895 34.841140674570674 17.314984678879473 1 rotate no_reflect no_shear #
lump $-1 $-1 $27 $3 #
transform $-1 1 0 0 0 1 0 0 0 1 65.490279854731895 34.841140674570674 17.314984678879473 1 rotate no_reflect no_shear #
lump $-1 $-1 $28 $4 #
transform $-1 1 0 0 0 1 0 0 0 1 65.490279854731895 34.841140674570674 17.314984678879473 1 rotate no_reflect no_shear #
lump $-1 $-1 $29 $5 #
transform $-1 1 0 0 0 1 0 0 0 1 65.490279854731895 34.841140674570674 17.314984678879473 1 rotate no_reflect no_shear #
lump $-1 $-1 $30 $6 #
transform $-1 1 0 0 0 1 0 0 0 1 65.490279854731895 34.841140674570674 17.314984678879473 1 rotate no_reflect no_shear #
lump $-1 $-1 $31 $7 #
transform $-1 1 0 0 0 1 0 0 0 1 65.490279854731895 34.841140674570674 17.314984678879473 1 rotate no_reflect no_shear #
shell $-1 $-1 $-1 $32 $-1 $8 #
shell $-1 $-1 $-1 $33 $-1 $10 #
shell $-1 $-1 $-1 $34 $-1 $12 #
shell $-1 $-1 $-1 $35 $-1 $14 #
shell $-1 $-1 $-1 $36 $-1 $16 #
shell $-1 $-1 $-1 $37 $-1 $18 #
shell $-1 $-1 $-1 $38 $-1 $20 #
shell $-1 $-1 $-1 $39 $-1 $22 #
face $-1 $40 $41 $24 $-1 $42 forward single #
face $-1 $43 $44 $25 $-1 $45 forward single #
face $-1 $46 $47 $26 $-1 $48 forward single #
face $-1 $49 $50 $27 $-1 $51 reversed single #
face $-1 $52 $53 $28 $-1 $54 forward single #
face $-1 $55 $56 $29 $-1 $57 reversed single #
face $-1 $58 $59 $30 $-1 $60 forward single #
face $-1 $61 $62 $31 $-1 $63 forward single #
face $-1 $64 $65 $24 $-1 $66 reversed single #
loop $-1 $-1 $67 $32 #
plane-surface $-1 0 0 17.314984678879473 0 0 1 1 0 0 forward_v I I I I #
face $-1 $68 $69 $25 $-1 $70 reversed single #
loop $-1 $-1 $71 $33 #
plane-surface $-1 0 -24.937864594477269 -8.8285443289582552 0 0 1 1 0 0 forward_v I I I I #
face $-1 $72 $73 $26 $-1 $74 reversed single #
loop $-1 $-1 $75 $34 #
plane-surface $-1 0 24.937864594477269 -8.8285443289582552 0 0 1 1 0 0 forward_v I I I I #
face $-1 $76 $77 $27 $-1 $78 reversed single #
loop $-1 $-1 $79 $35 #
plane-surface $-1 81.634531264633708 -9.0332978700306814 195.67814705995212 0 -1 0 -0.7660444514056185 0 -0.64278759981090561 forward_v I I I I #
face $-1 $80 $81 $28 $-1 $82 forward single #
loop $-1 $83 $84 $36 #
cone-surface $-1 62.009322029034195 -12.033943192207275 13.481751789602765 -0.7660444514056185 0 -0.64278759981090561 0.96418139971635841 0 -1.1490666771084277 1 I I 0 1 1.5 forward I I I I #
face $-1 $85 $86 $29 $-1 $87 reversed single #
loop $-1 $-1 $88 $37 #
plane-surface $-1 -134.89940260129441 1.7758022942895515 116.33251008516937 0 1 0 -0.52991927123019833 0 0.84804809178421925 forward_v I I I I #
face $-1 $89 $90 $30 $-1 $91 forward single #
loop $-1 $92 $93 $38 #
cone-surface $-1 -55.358617759054873 3.6865820264275726 10.514416509323201 0.52991927123019833 0 -0.84804809178421925 0.42402404589210962 0 0.26495963561509916 1 I I 0 1 0.5 forward I I I I #
face $-1 $94 $95 $31 $-1 $96 forward single #
loop $-1 $97 $98 $39 #
cone-surface $-1 -55.358617759054873 6.5527516246345954 10.514416509323201 0.52991927123019833 0 -0.84804809178421925 0.42402404589210962 0 0.26495963561509916 1 I I 0 1 0.5 forward I I I I #
face $-1 $99 $100 $24 $-1 $101 reversed single #
loop $-1 $-1 $102 $40 #
plane-surface $-1 0 0 -17.314984678879473 0 0 1 1 0 0 forward_v I I I I #
coedge $-1 $103 $104 $105 $106 forward $41 $-1 #
face $-1 $107 $108 $25 $-1 $109 reversed single #
loop $-1 $-1 $110 $43 #
plane-surface $-1 0 -15.034588514383865 -13.071764503918864 0 -1 0 0 0 -1 forward_v I I I I #
coedge $-1 $111 $112 $113 $114 reversed $44 $-1 #
face $-1 $115 $116 $26 $-1 $117 reversed single #
loop $-1 $-1 $118 $46 #
plane-surface $-1 0 15.034588514383863 -13.071764503918864 0 1 0 0 0 1 forward_v I I I I #
coedge $-1 $119 $120 $121 $122 reversed $47 $-1 #
face $-1 $123 $124 $27 $-1 $125 reversed single #
loop $-1 $-1 $126 $49 #
plane-surface $-1 -18.702399742803337 -12.033943192207275 111.48546746241689 0.7660444514056185 0 0.64278759981090561 0.64278759981090561 0 -0.7660444514056185 forward_v I I I I #
coedge $-1 $127 $128 $129 $130 reversed $50 $-1 #
face $-1 $-1 $131 $28 $-1 $132 forward single #
loop $-1 $133 $134 $52 #
cone-surface $-1 60.540963012222036 -12.033943192207275 12.249652312417691 -0.7660444514056185 0 -0.64278759981090561 0.48209069985817921 0 -0.57453333855421385 1 I I -0.70710678118654757 0.70710678118654757 0.75 forward I I I I #
loop $-1 $-1 $135 $36 #
coedge $-1 $84 $84 $136 $137 reversed $53 $-1 #
face $-1 $138 $139 $29 $-1 $140 reversed single #
loop $-1 $-1 $141 $55 #
plane-surface $-1 -65.490279854731881 5.1196668255310769 5.2546963627296179 -0.52991927123019833 0 0.84804809178421925 0.84804809178421925 0 0.52991927123019833 forward_v I I I I #
coedge $-1 $142 $143 $144 $145 reversed $56 $-1 #
face $-1 $-1 $146 $30 $-1 $147 forward single #
loop $-1 $148 $149 $58 #
cone-surface $-1 -54.744723579659052 3.6865820264275726 9.5319804748957857 0.52991927123019833 0 -0.84804809178421925 0.21201202294605481 0 0.13247981780754958 1 I I -0.70710678118654746 0.70710678118654746 0.25 forward I I I I #
loop $-1 $-1 $150 $38 #
coedge $-1 $93 $93 $151 $152 reversed $59 $-1 #
face $-1 $-1 $153 $31 $-1 $154 forward single #
loop $-1 $155 $156 $61 #
cone-surface $-1 -54.744723579659052 6.5527516246345954 9.5319804748957857 0.52991927123019833 0 -0.84804809178421925 0.21201202294605481 0 0.13247981780754958 1 I I -0.70710678118654746 0.70710678118654746 0.25 forward I I I I #
loop $-1 $-1 $157 $39 #
coedge $-1 $98 $98 $158 $159 reversed $62 $-1 #
face $-1 $160 $161 $24 $-1 $162 reversed single #
loop $-1 $-1 $163 $64 #
plane-surface $-1 0 -34.841140674570674 0 0 1 0 0 0 1 forward_v I I I I #
coedge $-1 $164 $165 $166 $167 forward $65 $-1 #
coedge $-1 $168 $67 $169 $170 forward $41 $-1 #
coedge $-1 $67 $168 $171 $172 forward $41 $-1 #
coedge $-1 $173 $174 $67 $106 reversed $175 $-1 #
edge $-1 $176 -34.841140674570674 $177 34.841140674570674 $105 $178 forward 7 unknown #
face $-1 $179 $180 $25 $-1 $181 reversed single #
loop $-1 $-1 $182 $68 #
plane-surface $-1 0 0 -17.314984678879473 0 0 1 1 0 0 forward_v I I I I #
coedge $-1 $183 $184 $185 $186 reversed $69 $-1 #
coedge $-1 $187 $71 $184 $188 forward $44 $-1 #
coedge $-1 $71 $187 $189 $190 reversed $44 $-1 #
coedge $-1 $191 $185 $71 $114 forward $180 $-1 #
edge $-1 $192 2.5656562171452304 $193 22.37220837733204 $113 $194 forward 7 unknown #
face $-1 $195 $196 $26 $-1 $197 reversed single #
loop $-1 $-1 $121 $72 #
plane-surface $-1 65.490279854731895 0 0 -1 0 0 0 0 1 forward_v I I I I #
coedge $-1 $198 $199 $200 $201 reversed $73 $-1 #
coedge $-1 $202 $75 $203 $204 reversed $47 $-1 #
coedge $-1 $75 $202 $199 $205 forward $47 $-1 #
coedge $-1 $206 $207 $75 $122 forward $116 $-1 #
edge $-1 $208 -22.37220837733204 $209 -2.5656562171452286 $121 $210 forward 7 unknown #
face $-1 $211 $212 $27 $-1 $213 forward single #
loop $-1 $-1 $214 $76 #
plane-surface $-1 81.634531264633708 -15.034588514383868 195.67814705995212 0 1 0 0.7660444514056185 0 0.64278759981090561 forward_v I I I I #
coedge $-1 $215 $216 $217 $218 reversed $77 $-1 #
coedge $-1 $128 $79 $219 $220 reversed $50 $-1 #
coedge $-1 $79 $127 $215 $221 reversed $50 $-1 #
coedge $-1 $217 $222 $79 $130 forward $212 $-1 #
edge $-1 $223 -24.673014222415041 $224 -19.498749927535535 $129 $225 forward 7 unknown #
loop $-1 $-1 $136 $80 #
plane-surface $-1 -18.702399742803337 -12.033943192207275 111.48546746241689 0.7660444514056185 0 0.64278759981090561 0.64278759981090561 0 -0.7660444514056185 forward_v I I I I #
loop $-1 $-1 $226 $52 #
coedge $-1 $134 $134 $135 $227 reversed $81 $-1 #
coedge $-1 $135 $135 $134 $227 forward $83 $-1 #
coedge $-1 $136 $136 $84 $137 forward $131 $-1 #
edge $-1 $228 0 $228 6.2831853071796004 $136 $229 forward 7 unknown #
face $-1 $230 $231 $29 $-1 $232 reversed single #
loop $-1 $-1 $233 $85 #
plane-surface $-1 -134.89940260129441 8.4635313567726023 116.33251008516937 0 -1 0 0.52991927123019833 0 -0.84804809178421925 forward_v I I I I #
coedge $-1 $234 $235 $236 $237 reversed $86 $-1 #
coedge $-1 $143 $88 $238 $239 reversed $56 $-1 #
coedge $-1 $88 $142 $234 $240 reversed $56 $-1 #
coedge $-1 $236 $241 $88 $145 forward $242 $-1 #
edge $-1 $243 1.9594214459153108 $244 21.259916914092884 $144 $245 forward 7 unknown #
loop $-1 $-1 $151 $89 #
plane-surface $-1 -65.490279854731881 5.1196668255310769 5.2546963627296179 -0.52991927123019833 0 0.84804809178421925 0.84804809178421925 0 0.52991927123019833 forward_v I I I I #
loop $-1 $-1 $246 $58 #
coedge $-1 $149 $149 $150 $247 reversed $90 $-1 #
coedge $-1 $150 $150 $149 $247 forward $92 $-1 #
coedge $-1 $151 $151 $93 $152 forward $146 $-1 #
edge $-1 $248 0 $248 6.2831853071796004 $151 $249 forward 7 unknown #
loop $-1 $-1 $158 $94 #
plane-surface $-1 -65.490279854731881 5.1196668255310769 5.2546963627296179 -0.52991927123019833 0 0.84804809178421925 0.84804809178421925 0 0.52991927123019833 forward_v I I I I #
loop $-1 $-1 $250 $61 #
coedge $-1 $156 $156 $157 $251 reversed $95 $-1 #
coedge $-1 $157 $157 $156 $251 forward $97 $-1 #
coedge $-1 $158 $158 $98 $159 forward $153 $-1 #
edge $-1 $252 0 $252 6.2831853071796004 $158 $253 forward 7 unknown #
face $-1 $254 $255 $24 $-1 $256 reversed single #
loop $-1 $-1 $257 $99 #
plane-surface $-1 -65.490279854731895 0 0 1 0 0 0 0 -1 forward_v I I I I #
coedge $-1 $258 $171 $259 $260 forward $100 $-1 #
coedge $-1 $261 $102 $258 $262 forward $65 $-1 #
coedge $-1 $102 $261 $263 $264 forward $65 $-1 #
coedge $-1 $174 $173 $102 $167 reversed $175 $-1 #
edge $-1 $265 -34.841140674570674 $266 34.841140674570674 $166 $267 forward 7 unknown #
coedge $-1 $104 $103 $268 $269 forward $41 $-1 #
coedge $-1 $270 $271 $103 $170 reversed $255 $-1 #
edge $-1 $177 -65.490279854731895 $272 65.490279854731895 $169 $273 forward 7 unknown #
coedge $-1 $163 $274 $104 $172 reversed $100 $-1 #
edge $-1 $275 -65.490279854731895 $176 65.490279854731895 $171 $276 forward 7 unknown #
coedge $-1 $166 $105 $274 $277 forward $175 $-1 #
coedge $-1 $105 $166 $270 $278 reversed $175 $-1 #
loop $-1 $-1 $173 $254 #
vertex $-1 $106 $279 #
vertex $-1 $106 $280 #
straight-curve $-1 65.490279854731895 0 17.314984678879473 0 1 0 I I #
face $-1 $281 $282 $25 $-1 $283 reversed single #
loop $-1 $-1 $185 $107 #
plane-surface $-1 65.490279854731895 0 0 -1 0 0 0 0 1 forward_v I I I I #
coedge $-1 $284 $285 $183 $286 forward $108 $-1 #
coedge $-1 $287 $110 $182 $286 reversed $69 $-1 #
coedge $-1 $110 $287 $111 $188 reversed $69 $-1 #
coedge $-1 $113 $288 $110 $186 forward $180 $-1 #
edge $-1 $289 -10.779102426920041 $192 -2.2926620769988233 $185 $290 forward 7 unknown #
coedge $-1 $112 $111 $291 $292 reversed $44 $-1 #
edge $-1 $192 -65.490279854731895 $293 65.490279854731895 $184 $294 forward 7 unknown #
coedge $-1 $295 $296 $112 $190 forward $282 $-1 #
edge $-1 $193 -65.490279854731895 $297 65.490279854731895 $189 $298 forward 7 unknown #
coedge $-1 $288 $113 $296 $299 forward $180 $-1 #
vertex $-1 $114 $300 #
vertex $-1 $299 $301 #
straight-curve $-1 65.490279854731895 -12.468932297238634 -8.8285443289582552 0 -1 0 I I #
face $-1 $302 $303 $26 $-1 $304 reversed single #
loop $-1 $-1 $305 $115 #
plane-surface $-1 0 0 -17.314984678879473 0 0 1 1 0 0 forward_v I I I I #
coedge $-1 $306 $118 $305 $307 reversed $73 $-1 #
coedge $-1 $118 $306 $120 $205 reversed $73 $-1 #
coedge $-1 $308 $309 $118 $201 forward $303 $-1 #
edge $-1 $310 -10.779102426920041 $311 -2.2926620769988233 $200 $312 forward 7 unknown #
coedge $-1 $120 $119 $308 $313 reversed $47 $-1 #
coedge $-1 $314 $315 $119 $204 forward $316 $-1 #
edge $-1 $317 -65.490279854731895 $208 65.490279854731895 $203 $318 forward 7 unknown #
edge $-1 $311 -65.490279854731895 $209 65.490279854731895 $199 $319 forward 7 unknown #
coedge $-1 $320 $121 $306 $321 forward $116 $-1 #
coedge $-1 $121 $320 $314 $322 reversed $116 $-1 #
vertex $-1 $322 $323 #
vertex $-1 $122 $324 #
straight-curve $-1 65.490279854731895 12.468932297238634 -8.8285443289582552 0 -1 0 I I #
face $-1 $-1 $325 $27 $-1 $326 reversed single #
loop $-1 $-1 $129 $123 #
plane-surface $-1 0 0 17.314984678879473 0 0 1 1 0 0 forward_v I I I I #
coedge $-1 $327 $328 $329 $330 reversed $124 $-1 #
coedge $-1 $331 $126 $128 $221 forward $77 $-1 #
coedge $-1 $126 $331 $327 $332 forward $77 $-1 #
coedge $-1 $329 $129 $126 $218 forward $212 $-1 #
edge $-1 $224 3.016326273927044 $333 9.0176169182802308 $217 $334 forward 7 unknown #
coedge $-1 $335 $336 $127 $220 forward $325 $-1 #
edge $-1 $337 -86.690537074996215 $223 -80.524088851096593 $219 $338 forward 7 unknown #
edge $-1 $224 122.9308333357726 $337 130.98055970946382 $128 $339 forward 7 unknown #
coedge $-1 $129 $329 $335 $340 forward $212 $-1 #
vertex $-1 $220 $341 #
vertex $-1 $130 $342 #
straight-curve $-1 40.817265632316854 -9.0332978700306814 17.314984678879469 -1 0 0 I I #
coedge $-1 $226 $226 $-1 $343 reversed $133 $-1 #
edge $-1 $344 0 $344 6.2831853071796004 $134 $345 forward 7 unknown #
vertex $-1 $137 $346 #
ellipse-curve $-1 62.903147707292135 -12.033943192207275 14.231760566929658 0.7660444514056185 0 0.64278759981090561 0.96418139971635841 0 -1.1490666771084277 1 I I #
face $-1 $-1 $242 $29 $-1 $347 forward single #
loop $-1 $-1 $348 $138 #
plane-surface $-1 -65.490279854731895 0 0 1 0 0 0 0 -1 forward_v I I I I #
coedge $-1 $349 $350 $351 $352 reversed $139 $-1 #
coedge $-1 $353 $141 $143 $240 forward $86 $-1 #
coedge $-1 $141 $353 $349 $354 forward $86 $-1 #
coedge $-1 $351 $144 $141 $237 forward $242 $-1 #
edge $-1 $244 -0.78403111847598694 $355 5.9036979440070638 $236 $356 forward 7 unknown #
coedge $-1 $357 $358 $142 $239 forward $231 $-1 #
edge $-1 $359 -52.911558679855077 $243 -40.851270363705211 $238 $360 forward 7 unknown #
edge $-1 $244 -22.758727547598156 $359 1.675811683274863e-014 $143 $361 forward 7 unknown #
coedge $-1 $144 $351 $357 $362 forward $242 $-1 #
loop $-1 $-1 $351 $230 #
vertex $-1 $239 $363 #
vertex $-1 $145 $364 #
straight-curve $-1 -67.449701300647206 1.7758022942895515 17.314984678879469 1 0 0 I I #
coedge $-1 $246 $246 $-1 $365 reversed $148 $-1 #
edge $-1 $366 0 $366 6.2831853071796004 $149 $367 forward 7 unknown #
vertex $-1 $152 $368 #
ellipse-curve $-1 -55.840032120643123 3.6865820264275726 11.284840520804531 -0.52991927123019833 0 0.84804809178421925 0.42402404589210962 0 0.26495963561509916 1 I I #
coedge $-1 $250 $250 $-1 $369 reversed $155 $-1 #
edge $-1 $370 0 $370 6.2831853071796004 $156 $371 forward 7 unknown #
vertex $-1 $159 $372 #
ellipse-curve $-1 -55.840032120643123 6.5527516246345954 11.284840520804531 -0.52991927123019833 0 0.84804809178421925 0.42402404589210962 0 0.26495963561509916 1 I I #
face $-1 $-1 $175 $24 $-1 $373 reversed single #
loop $-1 $-1 $270 $160 #
plane-surface $-1 0 34.841140674570674 0 0 -1 0 0 0 -1 forward_v I I I I #
coedge $-1 $374 $268 $271 $375 forward $161 $-1 #
coedge $-1 $274 $163 $164 $262 reversed $100 $-1 #
coedge $-1 $268 $374 $163 $260 reversed $161 $-1 #
edge $-1 $275 -17.314984678879473 $376 17.314984678879473 $259 $377 forward 7 unknown #
coedge $-1 $165 $164 $374 $378 forward $65 $-1 #
edge $-1 $266 -65.490279854731895 $376 65.490279854731895 $258 $379 forward 7 unknown #
coedge $-1 $271 $270 $165 $264 reversed $255 $-1 #
edge $-1 $380 -65.490279854731895 $265 65.490279854731895 $263 $381 forward 7 unknown #
vertex $-1 $167 $382 #
vertex $-1 $277 $383 #
straight-curve $-1 65.490279854731895 0 -17.314984678879473 0 -1 0 I I #
coedge $-1 $257 $259 $168 $269 reversed $161 $-1 #
edge $-1 $272 -34.841140674570674 $275 34.841140674570674 $268 $384 forward 7 unknown #
coedge $-1 $263 $169 $174 $278 forward $255 $-1 #
coedge $-1 $169 $263 $257 $375 reversed $255 $-1 #
vertex $-1 $170 $385 #
straight-curve $-1 0 34.841140674570674 17.314984678879473 -1 0 0 I I #
coedge $-1 $171 $258 $173 $277 reversed $100 $-1 #
vertex $-1 $269 $386 #
straight-curve $-1 0 -34.841140674570674 17.314984678879473 1 0 0 I I #
edge $-1 $176 -17.314984678879473 $266 17.314984678879473 $173 $387 forward 7 unknown #
edge $-1 $177 -17.314984678879473 $265 17.314984678879473 $174 $388 forward 7 unknown #
point $-1 65.490279854731895 -34.841140674570674 17.314984678879473 #
point $-1 65.490279854731895 34.841140674570674 17.314984678879473 #
face $-1 $-1 $389 $25 $-1 $390 reversed single #
loop $-1 $-1 $189 $179 #
plane-surface $-1 0 -34.841140674570674 0 0 1 0 0 0 1 forward_v I I I I #
coedge $-1 $391 $182 $288 $392 forward $108 $-1 #
coedge $-1 $182 $391 $393 $394 forward $108 $-1 #
edge $-1 $395 -65.490279854731895 $289 65.490279854731895 $182 $396 forward 7 unknown #
coedge $-1 $184 $183 $397 $398 reversed $69 $-1 #
coedge $-1 $185 $191 $284 $392 reversed $180 $-1 #
vertex $-1 $392 $399 #
straight-curve $-1 65.490279854731895 -15.034588514383865 -6.535882251959432 0 0 1 I I #
coedge $-1 $397 $400 $187 $292 forward $389 $-1 #
edge $-1 $297 -22.37220837733204 $293 -2.5656562171452304 $291 $401 forward 7 unknown #
vertex $-1 $292 $402 #
straight-curve $-1 0 -15.034588514383865 -8.8285443289582552 -1 0 0 I I #
coedge $-1 $403 $189 $400 $404 forward $282 $-1 #
coedge $-1 $189 $403 $191 $299 reversed $282 $-1 #
vertex $-1 $404 $405 #
straight-curve $-1 0 -34.841140674570674 -8.8285443289582552 -1 0 0 I I #
edge $-1 $193 8.8285443289582552 $406 17.314984678879473 $191 $407 forward 7 unknown #
point $-1 65.490279854731895 -15.034588514383865 -8.8285443289582552 #
point $-1 65.490279854731895 -34.841140674570674 -8.8285443289582552 #
face $-1 $-1 $316 $26 $-1 $408 reversed single #
loop $-1 $-1 $308 $195 #
plane-surface $-1 -65.490279854731895 0 0 1 0 0 0 0 -1 forward_v I I I I #
coedge $-1 $409 $410 $198 $307 forward $196 $-1 #
coedge $-1 $199 $198 $206 $321 reversed $73 $-1 #
edge $-1 $411 -65.490279854731895 $310 65.490279854731895 $305 $412 forward 7 unknown #
coedge $-1 $413 $200 $202 $313 forward $303 $-1 #
coedge $-1 $200 $413 $409 $414 reversed $303 $-1 #
vertex $-1 $414 $415 #
vertex $-1 $313 $416 #
straight-curve $-1 -65.490279854731895 15.034588514383863 -6.535882251959432 0 0 1 I I #
edge $-1 $311 2.5656562171452286 $317 22.37220837733204 $308 $417 forward 7 unknown #
coedge $-1 $418 $203 $207 $322 forward $316 $-1 #
coedge $-1 $203 $418 $413 $419 reversed $316 $-1 #
loop $-1 $-1 $203 $302 #
vertex $-1 $419 $420 #
straight-curve $-1 0 34.841140674570674 -8.8285443289582552 1 0 0 I I #
straight-curve $-1 0 15.034588514383863 -8.8285443289582552 1 0 0 I I #
coedge $-1 $207 $206 $410 $421 reversed $116 $-1 #
edge $-1 $209 2.2926620769988233 $411 10.779102426920041 $206 $422 forward 7 unknown #
edge $-1 $208 8.8285443289582552 $423 17.314984678879473 $207 $424 forward 7 unknown #
point $-1 65.490279854731895 34.841140674570674 -8.8285443289582552 #
point $-1 65.490279854731895 15.034588514383863 -8.8285443289582552 #
loop $-1 $-1 $219 $211 #
plane-surface $-1 65.490279854731895 0 0 -1 0 0 0 0 1 forward_v I I I I #
coedge $-1 $328 $214 $216 $332 reversed $124 $-1 #
coedge $-1 $214 $327 $425 $426 reversed $124 $-1 #
coedge $-1 $222 $217 $214 $330 forward $212 $-1 #
edge $-1 $333 19.498749927535535 $427 24.673014222415041 $329 $428 forward 7 unknown #
coedge $-1 $216 $215 $336 $429 reversed $77 $-1 #
edge $-1 $430 -130.98055970946382 $333 -122.9308333357726 $327 $431 forward 7 unknown #
vertex $-1 $218 $432 #
straight-curve $-1 60.316015559852389 -6.0169715961036374 17.314984678879462 0 -1 0 I I #
coedge $-1 $425 $219 $222 $340 reversed $325 $-1 #
coedge $-1 $219 $425 $331 $429 forward $325 $-1 #
vertex $-1 $220 $433 #
straight-curve $-1 65.490279854731895 -9.0332978700306814 97.839073529976062 0 0 1 I I #
straight-curve $-1 -18.702399742803337 -9.0332978700306814 111.48546746241689 0.64278759981090561 0 -0.7660444514056185 I I #
edge $-1 $427 -15.034588514383868 $223 -9.0332978700306814 $335 $434 forward 7 unknown #
point $-1 65.490279854731895 -9.0332978700306814 17.314984678879473 #
point $-1 60.316015559852389 -9.0332978700306814 17.314984678879469 #
edge $-1 $435 1 $435 0 $226 $-1 forward 7 unknown #
vertex $-1 $227 $436 #
ellipse-curve $-1 61.115496350776247 -12.033943192207275 12.731743012275871 0.7660444514056185 0 0.64278759981090561 0.96418139971635841 0 -1.1490666771084277 1 I I #
point $-1 63.867329107008501 -12.033943192207275 13.082693889821234 #
plane-surface $-1 0 0 17.314984678879473 0 0 1 1 0 0 forward_v I I I I #
coedge $-1 $358 $357 $350 $437 forward $231 $-1 #
coedge $-1 $350 $233 $235 $354 reversed $139 $-1 #
coedge $-1 $233 $349 $348 $437 reversed $139 $-1 #
coedge $-1 $241 $236 $233 $352 forward $242 $-1 #
edge $-1 $355 -21.259916914092884 $438 -1.9594214459153108 $351 $439 forward 7 unknown #
coedge $-1 $235 $234 $358 $440 reversed $86 $-1 #
edge $-1 $441 -1.675811683274863e-014 $355 22.758727547598156 $349 $442 forward 7 unknown #
vertex $-1 $237 $443 #
straight-curve $-1 -46.189784386554322 2.5598334127655384 17.314984678879473 0 1 0 I I #
coedge $-1 $348 $238 $241 $362 reversed $231 $-1 #
coedge $-1 $238 $348 $353 $440 forward $231 $-1 #
vertex $-1 $239 $444 #
straight-curve $-1 -65.490279854731895 1.7758022942895515 58.166255042584687 0 0 1 I I #
straight-curve $-1 -65.490279854731881 1.7758022942895515 5.2546963627296179 -0.84804809178421925 0 -0.52991927123019833 I I #
edge $-1 $438 -8.4635313567726023 $243 -1.7758022942895515 $357 $445 forward 7 unknown #
point $-1 -65.490279854731895 1.7758022942895515 17.314984678879473 #
point $-1 -46.189784386554322 1.7758022942895515 17.314984678879473 #
edge $-1 $446 1 $446 0 $246 $-1 forward 7 unknown #
vertex $-1 $247 $447 #
ellipse-curve $-1 -54.877203397466602 3.6865820264275726 9.7439924978418411 -0.52991927123019833 0 0.84804809178421925 0.42402404589210962 0 0.26495963561509916 1 I I #
point $-1 -55.416008074751026 3.6865820264275726 11.549800156419661 #
edge $-1 $448 1 $448 0 $250 $-1 forward 7 unknown #
vertex $-1 $251 $449 #
ellipse-curve $-1 -54.877203397466602 6.5527516246345954 9.7439924978418411 -0.52991927123019833 0 0.84804809178421925 0.42402404589210962 0 0.26495963561509916 1 I I #
point $-1 -55.416008074751026 6.5527516246345954 11.549800156419661 #
plane-surface $-1 65.490279854731895 0 0 -1 0 0 0 0 1 forward_v I I I I #
coedge $-1 $259 $257 $261 $378 reversed $161 $-1 #
edge $-1 $272 -17.314984678879473 $380 17.314984678879473 $271 $450 forward 7 unknown #
vertex $-1 $378 $451 #
straight-curve $-1 -65.490279854731895 -34.841140674570674 0 0 0 -1 I I #
edge $-1 $376 -34.841140674570674 $380 34.841140674570674 $374 $452 forward 7 unknown #
straight-curve $-1 0 -34.841140674570674 -17.314984678879473 -1 0 0 I I #
vertex $-1 $264 $453 #
straight-curve $-1 0 34.841140674570674 -17.314984678879473 1 0 0 I I #
point $-1 65.490279854731895 34.841140674570674 -17.314984678879473 #
point $-1 65.490279854731895 -34.841140674570674 -17.314984678879473 #
straight-curve $-1 -65.490279854731895 0 17.314984678879473 0 -1 0 I I #
point $-1 -65.490279854731895 34.841140674570674 17.314984678879473 #
point $-1 -65.490279854731895 -34.841140674570674 17.314984678879473 #
straight-curve $-1 65.490279854731895 -34.841140674570674 0 0 0 -1 I I #
straight-curve $-1 65.490279854731895 34.841140674570674 0 0 0 -1 I I #
loop $-1 $-1 $397 $281 #
plane-surface $-1 -65.490279854731895 0 0 1 0 0 0 0 -1 forward_v I I I I #
coedge $-1 $285 $284 $403 $454 forward $108 $-1 #
edge $-1 $289 15.034588514383865 $406 34.841140674570674 $288 $455 forward 7 unknown #
coedge $-1 $400 $397 $285 $394 reversed $389 $-1 #
edge $-1 $456 -34.841140674570674 $395 -15.034588514383865 $393 $457 forward 7 unknown #
vertex $-1 $398 $458 #
straight-curve $-1 0 -15.034588514383865 -17.314984678879473 1 0 0 I I #
coedge $-1 $393 $291 $287 $398 forward $389 $-1 #
edge $-1 $293 2.2926620769988233 $395 10.779102426920041 $397 $459 forward 7 unknown #
point $-1 65.490279854731895 -15.034588514383865 -17.314984678879473 #
coedge $-1 $291 $393 $295 $404 reversed $389 $-1 #
straight-curve $-1 -65.490279854731895 -12.468932297238634 -8.8285443289582552 0 1 0 I I #
point $-1 -65.490279854731895 -15.034588514383865 -8.8285443289582552 #
coedge $-1 $296 $295 $391 $454 reversed $282 $-1 #
edge $-1 $297 8.8285443289582552 $456 17.314984678879473 $400 $460 forward 7 unknown #
point $-1 -65.490279854731895 -34.841140674570674 -8.8285443289582552 #
vertex $-1 $299 $461 #
straight-curve $-1 65.490279854731895 -34.841140674570674 0 0 0 -1 I I #
plane-surface $-1 0 34.841140674570674 0 0 -1 0 0 0 -1 forward_v I I I I #
coedge $-1 $462 $305 $309 $414 forward $196 $-1 #
coedge $-1 $305 $462 $320 $421 forward $196 $-1 #
vertex $-1 $307 $463 #
straight-curve $-1 0 15.034588514383863 -17.314984678879473 -1 0 0 I I #
coedge $-1 $309 $308 $315 $419 forward $303 $-1 #
edge $-1 $310 15.034588514383863 $464 34.841140674570674 $309 $465 forward 7 unknown #
point $-1 -65.490279854731895 15.034588514383863 -17.314984678879473 #
point $-1 -65.490279854731895 15.034588514383863 -8.8285443289582552 #
straight-curve $-1 -65.490279854731895 12.468932297238634 -8.8285443289582552 0 1 0 I I #
coedge $-1 $315 $314 $462 $466 reversed $316 $-1 #
edge $-1 $317 8.8285443289582552 $464 17.314984678879473 $315 $467 forward 7 unknown #
point $-1 -65.490279854731895 34.841140674570674 -8.8285443289582552 #
edge $-1 $423 -34.841140674570674 $411 -15.034588514383863 $320 $468 forward 7 unknown #
straight-curve $-1 65.490279854731895 15.034588514383863 -6.535882251959432 0 0 -1 I I #
vertex $-1 $421 $469 #
straight-curve $-1 65.490279854731895 34.841140674570674 0 0 0 -1 I I #
coedge $-1 $336 $335 $328 $426 forward $325 $-1 #
edge $-1 $427 80.524088851096593 $430 86.690537074996215 $425 $470 forward 7 unknown #
vertex $-1 $340 $471 #
straight-curve $-1 40.817265632316854 -15.034588514383868 17.314984678879469 1 0 0 I I #
edge $-1 $430 -9.0176169182802308 $337 -3.016326273927044 $336 $472 forward 7 unknown #
vertex $-1 $429 $473 #
straight-curve $-1 -18.702399742803337 -15.034588514383868 111.48546746241689 -0.64278759981090561 0 0.7660444514056185 I I #
point $-1 60.316015559852389 -15.034588514383868 17.314984678879469 #
point $-1 65.490279854731895 -9.0332978700306814 11.148536454979848 #
straight-curve $-1 65.490279854731895 0 17.314984678879473 0 1 0 I I #
vertex $-1 $343 $474 #
point $-1 62.079677750492607 -12.033943192207275 11.582676335167443 #
edge $-1 $438 40.851270363705211 $441 52.911558679855077 $348 $475 forward 7 unknown #
vertex $-1 $362 $476 #
straight-curve $-1 -67.449701300647206 8.4635313567726023 17.314984678879469 -1 0 0 I I #
edge $-1 $441 -5.9036979440070638 $359 0.78403111847598694 $358 $477 forward 7 unknown #
vertex $-1 $440 $478 #
straight-curve $-1 -65.490279854731881 8.4635313567726023 5.2546963627296179 0.84804809178421925 0 0.52991927123019833 I I #
point $-1 -46.189784386554322 8.4635313567726023 17.314984678879473 #
point $-1 -65.490279854731895 1.7758022942895515 5.254696362729609 #
straight-curve $-1 -65.490279854731895 0 17.314984678879473 0 -1 0 I I #
vertex $-1 $365 $479 #
point $-1 -54.453179351574491 3.6865820264275726 10.00895213345694 #
vertex $-1 $369 $480 #
point $-1 -54.453179351574491 6.5527516246345954 10.00895213345694 #
straight-curve $-1 -65.490279854731895 34.841140674570674 0 0 0 -1 I I #
point $-1 -65.490279854731895 -34.841140674570674 -17.314984678879473 #
straight-curve $-1 -65.490279854731895 0 -17.314984678879473 0 1 0 I I #
point $-1 -65.490279854731895 34.841140674570674 -17.314984678879473 #
edge $-1 $406 -65.490279854731895 $456 65.490279854731895 $403 $481 forward 7 unknown #
straight-curve $-1 65.490279854731895 0 -17.314984678879473 0 -1 0 I I #
vertex $-1 $394 $482 #
straight-curve $-1 -65.490279854731895 0 -17.314984678879473 0 1 0 I I #
point $-1 -65.490279854731895 -15.034588514383865 -17.314984678879473 #
straight-curve $-1 -65.490279854731895 -15.034588514383865 -6.535882251959432 0 0 -1 I I #
straight-curve $-1 -65.490279854731895 -34.841140674570674 0 0 0 -1 I I #
point $-1 65.490279854731895 -34.841140674570674 -17.314984678879473 #
coedge $-1 $410 $409 $418 $466 forward $196 $-1 #
point $-1 65.490279854731895 15.034588514383863 -17.314984678879473 #
vertex $-1 $466 $483 #
straight-curve $-1 -65.490279854731895 0 -17.314984678879473 0 1 0 I I #
edge $-1 $464 -65.490279854731895 $423 65.490279854731895 $418 $484 forward 7 unknown #
straight-curve $-1 -65.490279854731895 34.841140674570674 0 0 0 -1 I I #
straight-curve $-1 65.490279854731895 0 -17.314984678879473 0 -1 0 I I #
point $-1 65.490279854731895 34.841140674570674 -17.314984678879473 #
straight-curve $-1 65.490279854731895 -15.034588514383868 97.839073529976062 0 0 -1 I I #
point $-1 65.490279854731895 -15.034588514383868 17.314984678879473 #
straight-curve $-1 65.490279854731895 -6.0169715961036374 11.148536454979855 0 1 0 I I #
point $-1 65.490279854731895 -15.034588514383868 11.148536454979848 #
point $-1 59.966429673667825 -12.033943192207275 11.767561612559511 #
straight-curve $-1 -65.490279854731895 8.4635313567726023 58.166255042584687 0 0 -1 I I #
point $-1 -65.490279854731895 8.4635313567726023 17.314984678879473 #
straight-curve $-1 -65.490279854731895 2.5598334127655384 5.2546963627296055 0 -1 0 I I #
point $-1 -65.490279854731895 8.4635313567726023 5.254696362729609 #
point $-1 -54.612243761851502 3.6865820264275726 9.3199684519497303 #
point $-1 -54.612243761851502 6.5527516246345954 9.3199684519497303 #
straight-curve $-1 0 -34.841140674570674 -17.314984678879473 -1 0 0 I I #
point $-1 -65.490279854731895 -34.841140674570674 -17.314984678879473 #
point $-1 -65.490279854731895 34.841140674570674 -17.314984678879473 #
straight-curve $-1 0 34.841140674570674 -17.314984678879473 1 0 0 I I #
End-of-ACIS-data 