500 0 7 0           
7 Unknown 11 ACIS 5.0 NT 24 Thu Mar 25 23:33:30 1999 
-1 9.9999999999999995e-007 1e-010 
body $-1 $7 $-1 $8 #
body $-1 $9 $-1 $10 #
body $-1 $11 $-1 $12 #
body $-1 $13 $-1 $14 #
body $-1 $15 $-1 $16 #
body $-1 $17 $-1 $18 #
body $-1 $19 $-1 $20 #
lump $-1 $-1 $21 $0 #
transform $-1 1 0 0 0 1 0 0 0 1 77.991882076479385 46.64327274158515 11.474555413759079 1 rotate no_reflect no_shear #
lump $-1 $-1 $22 $1 #
transform $-1 1 0 0 0 1 0 0 0 1 77.991882076479385 46.64327274158515 11.474555413759079 1 rotate no_reflect no_shear #
lump $-1 $-1 $23 $2 #
transform $-1 1 0 0 0 1 0 0 0 1 77.991882076479385 46.64327274158515 11.474555413759079 1 rotate no_reflect no_shear #
lump $-1 $-1 $24 $3 #
transform $-1 1 0 0 0 1 0 0 0 1 77.991882076479385 46.64327274158515 11.474555413759079 1 rotate no_reflect no_shear #
lump $-1 $-1 $25 $4 #
transform $-1 1 0 0 0 1 0 0 0 1 77.991882076479385 46.64327274158515 11.474555413759079 1 rotate no_reflect no_shear #
lump $-1 $-1 $26 $5 #
transform $-1 1 0 0 0 1 0 0 0 1 77.991882076479385 46.64327274158515 11.474555413759079 1 rotate no_reflect no_shear #
lump $-1 $-1 $27 $6 #
transform $-1 1 0 0 0 1 0 0 0 1 77.991882076479385 46.64327274158515 11.474555413759079 1 rotate no_reflect no_shear #
shell $-1 $-1 $-1 $28 $-1 $7 #
shell $-1 $-1 $-1 $29 $-1 $9 #
shell $-1 $-1 $-1 $30 $-1 $11 #
shell $-1 $-1 $-1 $31 $-1 $13 #
shell $-1 $-1 $-1 $32 $-1 $15 #
shell $-1 $-1 $-1 $33 $-1 $17 #
shell $-1 $-1 $-1 $34 $-1 $19 #
face $-1 $35 $36 $21 $-1 $37 forward single #
face $-1 $38 $39 $22 $-1 $40 reversed single #
face $-1 $41 $42 $23 $-1 $43 forward single #
face $-1 $44 $45 $24 $-1 $46 forward single #
face $-1 $47 $48 $25 $-1 $49 reversed single #
face $-1 $50 $51 $26 $-1 $52 forward single #
face $-1 $53 $54 $27 $-1 $55 forward single #
face $-1 $56 $57 $21 $-1 $58 reversed single #
loop $-1 $-1 $59 $28 #
plane-surface $-1 0 0 11.474555413759079 0 0 1 1 0 0 forward_v I I I I #
face $-1 $60 $61 $22 $-1 $62 reversed single #
loop $-1 $-1 $63 $29 #
plane-surface $-1 -188.28906074376835 -44.400065774118957 115.92912040209156 0 1 0 -0.70710678939079041 0 0.70710677298230451 forward_v I I I I #
face $-1 $64 $65 $23 $-1 $66 forward single #
loop $-1 $67 $68 $30 #
cone-surface $-1 -74.238759869413684 -40.556579897103944 7.7214331582065725 0.70710678939079041 0 -0.70710677298230451 0.70710677298230451 0 0.70710678939079041 1 I I 0 1 1 forward I I I I #
face $-1 $69 $70 $24 $-1 $71 forward single #
loop $-1 $72 $73 $31 #
cone-surface $-1 -74.238759869413684 -34.791351081581425 7.7214331582065725 0.70710678939079041 0 -0.70710677298230451 0.70710677298230451 0 0.70710678939079041 1 I I 0 1 1 forward I I I I #
face $-1 $74 $75 $25 $-1 $76 reversed single #
loop $-1 $-1 $77 $32 #
plane-surface $-1 -188.28906074376835 30.947865204566423 115.92912040209156 0 1 0 -0.70710678939079041 0 0.70710677298230451 forward_v I I I I #
face $-1 $78 $79 $26 $-1 $80 forward single #
loop $-1 $81 $82 $33 #
cone-surface $-1 -74.238759869413684 34.791351081581425 7.7214331582065725 0.70710678939079041 0 -0.70710677298230451 0.70710677298230451 0 0.70710678939079041 1 I I 0 1 1 forward I I I I #
face $-1 $83 $84 $27 $-1 $85 forward single #
loop $-1 $86 $87 $34 #
cone-surface $-1 -74.238759869413684 40.556579897103944 7.7214331582065725 0.70710678939079041 0 -0.70710677298230451 0.70710677298230451 0 0.70710678939079041 1 I I 0 1 1 forward I I I I #
face $-1 $88 $89 $21 $-1 $90 reversed single #
loop $-1 $-1 $91 $35 #
plane-surface $-1 0 0 -11.474555413759079 0 0 1 1 0 0 forward_v I I I I #
coedge $-1 $92 $93 $94 $95 forward $36 $-1 #
face $-1 $96 $97 $22 $-1 $98 reversed single #
loop $-1 $-1 $99 $38 #
plane-surface $-1 -77.991882076479399 -37.673965489342685 5.6319442942600091 -0.70710678939079041 0 0.70710677298230451 0.70710677298230451 0 0.70710678939079041 forward_v I I I I #
coedge $-1 $100 $101 $102 $103 reversed $39 $-1 #
face $-1 $-1 $104 $23 $-1 $105 forward single #
loop $-1 $106 $107 $41 #
cone-surface $-1 -73.053389759612926 -40.556579897103944 6.5360630759124501 0.70710678939079041 0 -0.70710677298230451 0.35355338649115226 0 0.35355339469539521 1 I I -0.70710678118654746 0.70710678118654746 0.5 forward I I I I #
loop $-1 $-1 $108 $30 #
coedge $-1 $68 $68 $109 $110 reversed $42 $-1 #
face $-1 $-1 $111 $24 $-1 $112 forward single #
loop $-1 $113 $114 $44 #
cone-surface $-1 -73.053389759612926 -34.791351081581425 6.5360630759124501 0.70710678939079041 0 -0.70710677298230451 0.35355338649115226 0 0.35355339469539521 1 I I -0.70710678118654746 0.70710678118654746 0.5 forward I I I I #
loop $-1 $-1 $115 $31 #
coedge $-1 $73 $73 $116 $117 reversed $45 $-1 #
face $-1 $118 $119 $25 $-1 $120 reversed single #
loop $-1 $-1 $121 $47 #
plane-surface $-1 -77.991882076479399 37.673965489342692 5.6319442942600091 -0.70710678939079041 0 0.70710677298230451 0.70710677298230451 0 0.70710678939079041 forward_v I I I I #
coedge $-1 $122 $123 $124 $125 reversed $48 $-1 #
face $-1 $-1 $126 $26 $-1 $127 forward single #
loop $-1 $128 $129 $50 #
cone-surface $-1 -73.053389759612926 34.791351081581425 6.5360630759124501 0.70710678939079041 0 -0.70710677298230451 0.35355338649115226 0 0.35355339469539521 1 I I -0.70710678118654746 0.70710678118654746 0.5 forward I I I I #
loop $-1 $-1 $130 $33 #
coedge $-1 $82 $82 $131 $132 reversed $51 $-1 #
face $-1 $-1 $133 $27 $-1 $134 forward single #
loop $-1 $135 $136 $53 #
cone-surface $-1 -73.053389759612926 40.556579897103944 6.5360630759124501 0.70710678939079041 0 -0.70710677298230451 0.35355338649115226 0 0.35355339469539521 1 I I -0.70710678118654746 0.70710678118654746 0.5 forward I I I I #
loop $-1 $-1 $137 $34 #
coedge $-1 $87 $87 $138 $139 reversed $54 $-1 #
face $-1 $140 $141 $21 $-1 $142 reversed single #
loop $-1 $-1 $143 $56 #
plane-surface $-1 0 -46.64327274158515 0 0 1 0 0 0 1 forward_v I I I I #
coedge $-1 $144 $145 $146 $147 forward $57 $-1 #
coedge $-1 $148 $59 $149 $150 forward $36 $-1 #
coedge $-1 $59 $148 $151 $152 forward $36 $-1 #
coedge $-1 $153 $154 $59 $95 reversed $155 $-1 #
edge $-1 $156 -46.64327274158515 $157 46.64327274158515 $94 $158 forward 7 unknown #
face $-1 $159 $160 $22 $-1 $161 reversed single #
loop $-1 $-1 $162 $60 #
plane-surface $-1 -188.28906074376835 -30.947865204566416 115.92912040209156 0 -1 0 0.70710678939079041 0 -0.70710677298230451 forward_v I I I I #
coedge $-1 $163 $164 $165 $166 reversed $61 $-1 #
coedge $-1 $101 $63 $167 $168 reversed $39 $-1 #
coedge $-1 $63 $100 $163 $169 reversed $39 $-1 #
coedge $-1 $165 $170 $63 $103 forward $171 $-1 #
edge $-1 $172 16.152648295404788 $173 21.995259279325452 $102 $174 forward 7 unknown #
loop $-1 $-1 $109 $64 #
plane-surface $-1 -77.991882076479399 -37.673965489342685 5.6319442942600091 -0.70710678939079041 0 0.70710677298230451 0.70710677298230451 0 0.70710678939079041 forward_v I I I I #
loop $-1 $-1 $175 $41 #
coedge $-1 $107 $107 $108 $176 reversed $65 $-1 #
coedge $-1 $108 $108 $107 $176 forward $67 $-1 #
coedge $-1 $109 $109 $68 $110 forward $104 $-1 #
edge $-1 $177 0 $177 6.2831853071796004 $109 $178 forward 7 unknown #
loop $-1 $-1 $116 $69 #
plane-surface $-1 -77.991882076479399 -37.673965489342685 5.6319442942600091 -0.70710678939079041 0 0.70710677298230451 0.70710677298230451 0 0.70710678939079041 forward_v I I I I #
loop $-1 $-1 $179 $44 #
coedge $-1 $114 $114 $115 $180 reversed $70 $-1 #
coedge $-1 $115 $115 $114 $180 forward $72 $-1 #
coedge $-1 $116 $116 $73 $117 forward $111 $-1 #
edge $-1 $181 0 $181 6.2831853071796004 $116 $182 forward 7 unknown #
face $-1 $183 $184 $25 $-1 $185 forward single #
loop $-1 $-1 $186 $74 #
plane-surface $-1 -188.28906074376835 44.400065774118957 115.92912040209156 0 -1 0 0.70710678939079041 0 -0.70710677298230451 forward_v I I I I #
coedge $-1 $187 $188 $189 $190 reversed $75 $-1 #
coedge $-1 $123 $77 $191 $192 reversed $48 $-1 #
coedge $-1 $77 $122 $187 $193 reversed $48 $-1 #
coedge $-1 $189 $194 $77 $125 forward $184 $-1 #
edge $-1 $195 16.152648295404788 $196 21.995259279325452 $124 $197 forward 7 unknown #
loop $-1 $-1 $131 $78 #
plane-surface $-1 -77.991882076479399 37.673965489342692 5.6319442942600091 -0.70710678939079041 0 0.70710677298230451 0.70710677298230451 0 0.70710678939079041 forward_v I I I I #
loop $-1 $-1 $198 $50 #
coedge $-1 $129 $129 $130 $199 reversed $79 $-1 #
coedge $-1 $130 $130 $129 $199 forward $81 $-1 #
coedge $-1 $131 $131 $82 $132 forward $126 $-1 #
edge $-1 $200 0 $200 6.2831853071796004 $131 $201 forward 7 unknown #
loop $-1 $-1 $138 $83 #
plane-surface $-1 -77.991882076479399 37.673965489342692 5.6319442942600091 -0.70710678939079041 0 0.70710677298230451 0.70710677298230451 0 0.70710678939079041 forward_v I I I I #
loop $-1 $-1 $202 $53 #
coedge $-1 $136 $136 $137 $203 reversed $84 $-1 #
coedge $-1 $137 $137 $136 $203 forward $86 $-1 #
coedge $-1 $138 $138 $87 $139 forward $133 $-1 #
edge $-1 $204 0 $204 6.2831853071796004 $138 $205 forward 7 unknown #
face $-1 $206 $207 $21 $-1 $208 reversed single #
loop $-1 $-1 $209 $88 #
plane-surface $-1 -77.991882076479385 0 0 1 0 0 0 0 -1 forward_v I I I I #
coedge $-1 $210 $151 $211 $212 forward $89 $-1 #
coedge $-1 $213 $91 $210 $214 forward $57 $-1 #
coedge $-1 $91 $213 $215 $216 forward $57 $-1 #
coedge $-1 $154 $153 $91 $147 reversed $155 $-1 #
edge $-1 $217 -46.64327274158515 $218 46.64327274158515 $146 $219 forward 7 unknown #
coedge $-1 $93 $92 $220 $221 forward $36 $-1 #
coedge $-1 $222 $223 $92 $150 reversed $207 $-1 #
edge $-1 $157 -77.991882076479385 $224 77.991882076479385 $149 $225 forward 7 unknown #
coedge $-1 $143 $226 $93 $152 reversed $89 $-1 #
edge $-1 $227 -77.991882076479385 $156 77.991882076479385 $151 $228 forward 7 unknown #
coedge $-1 $146 $94 $226 $229 forward $155 $-1 #
coedge $-1 $94 $146 $222 $230 reversed $155 $-1 #
loop $-1 $-1 $153 $206 #
vertex $-1 $95 $231 #
vertex $-1 $95 $232 #
straight-curve $-1 77.991882076479385 0 11.474555413759079 0 1 0 I I #
face $-1 $-1 $171 $22 $-1 $233 forward single #
loop $-1 $-1 $234 $96 #
plane-surface $-1 -77.991882076479385 0 0 1 0 0 0 0 -1 forward_v I I I I #
coedge $-1 $235 $236 $237 $238 reversed $97 $-1 #
coedge $-1 $239 $99 $101 $169 forward $61 $-1 #
coedge $-1 $99 $239 $235 $240 forward $61 $-1 #
coedge $-1 $237 $102 $99 $166 forward $171 $-1 #
edge $-1 $173 -25.563083029447615 $241 -12.110882459895073 $165 $242 forward 7 unknown #
coedge $-1 $243 $244 $100 $168 forward $160 $-1 #
edge $-1 $245 -52.332615906785755 $172 -46.490004787286701 $167 $246 forward 7 unknown #
edge $-1 $173 -8.2626997889990399 $245 -2.0097183471152325e-014 $101 $247 forward 7 unknown #
coedge $-1 $102 $237 $243 $248 forward $171 $-1 #
loop $-1 $-1 $237 $159 #
vertex $-1 $168 $249 #
vertex $-1 $103 $250 #
straight-curve $-1 -94.144530371884173 -44.400065774118957 11.474555413759077 1 0 0 I I #
coedge $-1 $175 $175 $-1 $251 reversed $106 $-1 #
edge $-1 $252 0 $252 6.2831853071796004 $107 $253 forward 7 unknown #
vertex $-1 $110 $254 #
ellipse-curve $-1 -75.07057658451906 -40.556579897103944 8.5532498540095503 -0.70710678939079041 0 0.70710677298230451 0.70710677298230451 0 0.70710678939079041 1 I I #
coedge $-1 $179 $179 $-1 $255 reversed $113 $-1 #
edge $-1 $256 0 $256 6.2831853071796004 $114 $257 forward 7 unknown #
vertex $-1 $117 $258 #
ellipse-curve $-1 -75.07057658451906 -34.791351081581425 8.5532498540095503 -0.70710678939079041 0 0.70710677298230451 0.70710677298230451 0 0.70710678939079041 1 I I #
face $-1 $-1 $259 $25 $-1 $260 reversed single #
loop $-1 $-1 $124 $118 #
plane-surface $-1 0 0 11.474555413759079 0 0 1 1 0 0 forward_v I I I I #
coedge $-1 $261 $262 $263 $264 reversed $119 $-1 #
coedge $-1 $265 $121 $123 $193 forward $75 $-1 #
coedge $-1 $121 $265 $261 $266 forward $75 $-1 #
coedge $-1 $263 $124 $121 $190 forward $184 $-1 #
edge $-1 $196 12.110882459895077 $267 25.563083029447611 $189 $268 forward 7 unknown #
coedge $-1 $269 $270 $122 $192 forward $259 $-1 #
edge $-1 $271 -52.332615906785755 $195 -46.490004787286701 $191 $272 forward 7 unknown #
edge $-1 $196 -8.2626997889990399 $271 -2.0097183471152325e-014 $123 $273 forward 7 unknown #
coedge $-1 $124 $263 $269 $274 forward $184 $-1 #
vertex $-1 $125 $275 #
vertex $-1 $125 $276 #
straight-curve $-1 -94.144530371884173 30.947865204566423 11.474555413759077 1 0 0 I I #
coedge $-1 $198 $198 $-1 $277 reversed $128 $-1 #
edge $-1 $278 0 $278 6.2831853071796004 $129 $279 forward 7 unknown #
vertex $-1 $132 $280 #
ellipse-curve $-1 -75.07057658451906 34.791351081581425 8.5532498540095503 -0.70710678939079041 0 0.70710677298230451 0.70710677298230451 0 0.70710678939079041 1 I I #
coedge $-1 $202 $202 $-1 $281 reversed $135 $-1 #
edge $-1 $282 0 $282 6.2831853071796004 $136 $283 forward 7 unknown #
vertex $-1 $139 $284 #
ellipse-curve $-1 -75.07057658451906 40.556579897103944 8.5532498540095503 -0.70710678939079041 0 0.70710677298230451 0.70710677298230451 0 0.70710678939079041 1 I I #
face $-1 $-1 $155 $21 $-1 $285 reversed single #
loop $-1 $-1 $222 $140 #
plane-surface $-1 0 46.64327274158515 0 0 -1 0 0 0 -1 forward_v I I I I #
coedge $-1 $286 $220 $223 $287 forward $141 $-1 #
coedge $-1 $226 $143 $144 $214 reversed $89 $-1 #
coedge $-1 $220 $286 $143 $212 reversed $141 $-1 #
edge $-1 $227 -11.474555413759079 $288 11.474555413759079 $211 $289 forward 7 unknown #
coedge $-1 $145 $144 $286 $290 forward $57 $-1 #
edge $-1 $218 -77.991882076479385 $288 77.991882076479385 $210 $291 forward 7 unknown #
coedge $-1 $223 $222 $145 $216 reversed $207 $-1 #
edge $-1 $292 -77.991882076479385 $217 77.991882076479385 $215 $293 forward 7 unknown #
vertex $-1 $147 $294 #
vertex $-1 $229 $295 #
straight-curve $-1 77.991882076479385 0 -11.474555413759079 0 -1 0 I I #
coedge $-1 $209 $211 $148 $221 reversed $141 $-1 #
edge $-1 $224 -46.64327274158515 $227 46.64327274158515 $220 $296 forward 7 unknown #
coedge $-1 $215 $149 $154 $230 forward $207 $-1 #
coedge $-1 $149 $215 $209 $287 reversed $207 $-1 #
vertex $-1 $150 $297 #
straight-curve $-1 0 46.64327274158515 11.474555413759079 -1 0 0 I I #
coedge $-1 $151 $210 $153 $229 reversed $89 $-1 #
vertex $-1 $221 $298 #
straight-curve $-1 0 -46.64327274158515 11.474555413759079 1 0 0 I I #
edge $-1 $156 -11.474555413759079 $218 11.474555413759079 $153 $299 forward 7 unknown #
edge $-1 $157 -11.474555413759079 $217 11.474555413759079 $154 $300 forward 7 unknown #
point $-1 77.991882076479385 -46.64327274158515 11.474555413759079 #
point $-1 77.991882076479385 46.64327274158515 11.474555413759079 #
plane-surface $-1 0 0 11.474555413759079 0 0 1 1 0 0 forward_v I I I I #
coedge $-1 $244 $243 $236 $301 forward $160 $-1 #
coedge $-1 $236 $162 $164 $240 reversed $97 $-1 #
coedge $-1 $162 $235 $234 $301 reversed $97 $-1 #
coedge $-1 $170 $165 $162 $238 forward $171 $-1 #
edge $-1 $241 -21.995259279325452 $302 -16.152648295404788 $237 $303 forward 7 unknown #
coedge $-1 $164 $163 $244 $304 reversed $61 $-1 #
edge $-1 $305 2.0097183471152325e-014 $241 8.2626997889990399 $235 $306 forward 7 unknown #
vertex $-1 $166 $307 #
straight-curve $-1 -72.14927109255872 -18.836982744671342 11.474555413759077 0 1 0 I I #
coedge $-1 $234 $167 $170 $248 reversed $160 $-1 #
coedge $-1 $167 $234 $239 $304 forward $160 $-1 #
vertex $-1 $168 $308 #
straight-curve $-1 -77.991882076479385 -44.400065774118957 57.964560201045778 0 0 1 I I #
straight-curve $-1 -77.991882076479399 -44.400065774118957 5.6319442942600091 -0.70710677298230451 0 -0.70710678939079041 I I #
edge $-1 $302 30.947865204566416 $172 44.400065774118957 $243 $309 forward 7 unknown #
point $-1 -77.991882076479385 -44.400065774118957 11.474555413759079 #
point $-1 -72.14927109255872 -44.400065774118957 11.474555413759079 #
edge $-1 $310 1 $310 0 $175 $-1 forward 7 unknown #
vertex $-1 $176 $311 #
ellipse-curve $-1 -73.406943154308323 -40.556579897103944 6.8896164624036027 -0.70710678939079041 0 0.70710677298230451 0.70710677298230451 0 0.70710678939079041 1 I I #
point $-1 -74.363469811536746 -40.556579897103944 9.2603566434003319 #
edge $-1 $312 1 $312 0 $179 $-1 forward 7 unknown #
vertex $-1 $180 $313 #
ellipse-curve $-1 -73.406943154308323 -34.791351081581425 6.8896164624036027 -0.70710678939079041 0 0.70710677298230451 0.70710677298230451 0 0.70710678939079041 1 I I #
point $-1 -74.363469811536746 -34.791351081581425 9.2603566434003319 #
loop $-1 $-1 $191 $183 #
plane-surface $-1 -77.991882076479385 0 0 1 0 0 0 0 -1 forward_v I I I I #
coedge $-1 $262 $186 $188 $266 reversed $119 $-1 #
coedge $-1 $186 $261 $314 $315 reversed $119 $-1 #
coedge $-1 $194 $189 $186 $264 forward $184 $-1 #
edge $-1 $267 -21.995259279325452 $316 -16.152648295404788 $263 $317 forward 7 unknown #
coedge $-1 $188 $187 $270 $318 reversed $75 $-1 #
edge $-1 $319 2.0097183471152325e-014 $267 8.2626997889990399 $261 $320 forward 7 unknown #
vertex $-1 $190 $321 #
straight-curve $-1 -72.14927109255872 18.836982744671346 11.474555413759077 0 1 0 I I #
coedge $-1 $314 $191 $194 $274 reversed $259 $-1 #
coedge $-1 $191 $314 $265 $318 forward $259 $-1 #
vertex $-1 $192 $322 #
straight-curve $-1 -77.991882076479385 30.947865204566423 57.964560201045778 0 0 1 I I #
straight-curve $-1 -77.991882076479399 30.947865204566423 5.6319442942600091 -0.70710677298230451 0 -0.70710678939079041 I I #
edge $-1 $316 -44.400065774118957 $195 -30.947865204566423 $269 $323 forward 7 unknown #
point $-1 -77.991882076479385 30.947865204566423 11.474555413759079 #
point $-1 -72.14927109255872 30.947865204566423 11.474555413759079 #
edge $-1 $324 1 $324 0 $198 $-1 forward 7 unknown #
vertex $-1 $199 $325 #
ellipse-curve $-1 -73.406943154308323 34.791351081581425 6.8896164624036027 -0.70710678939079041 0 0.70710677298230451 0.70710677298230451 0 0.70710678939079041 1 I I #
point $-1 -74.363469811536746 34.791351081581425 9.2603566434003319 #
edge $-1 $326 1 $326 0 $202 $-1 forward 7 unknown #
vertex $-1 $203 $327 #
ellipse-curve $-1 -73.406943154308323 40.556579897103944 6.8896164624036027 -0.70710678939079041 0 0.70710677298230451 0.70710677298230451 0 0.70710678939079041 1 I I #
point $-1 -74.363469811536746 40.556579897103944 9.2603566434003319 #
plane-surface $-1 77.991882076479385 0 0 -1 0 0 0 0 1 forward_v I I I I #
coedge $-1 $211 $209 $213 $290 reversed $141 $-1 #
edge $-1 $224 -11.474555413759079 $292 11.474555413759079 $223 $328 forward 7 unknown #
vertex $-1 $290 $329 #
straight-curve $-1 -77.991882076479385 -46.64327274158515 0 0 0 -1 I I #
edge $-1 $288 -46.64327274158515 $292 46.64327274158515 $286 $330 forward 7 unknown #
straight-curve $-1 0 -46.64327274158515 -11.474555413759079 -1 0 0 I I #
vertex $-1 $216 $331 #
straight-curve $-1 0 46.64327274158515 -11.474555413759079 1 0 0 I I #
point $-1 77.991882076479385 46.64327274158515 -11.474555413759079 #
point $-1 77.991882076479385 -46.64327274158515 -11.474555413759079 #
straight-curve $-1 -77.991882076479385 0 11.474555413759079 0 -1 0 I I #
point $-1 -77.991882076479385 46.64327274158515 11.474555413759079 #
point $-1 -77.991882076479385 -46.64327274158515 11.474555413759079 #
straight-curve $-1 77.991882076479385 -46.64327274158515 0 0 0 -1 I I #
straight-curve $-1 77.991882076479385 46.64327274158515 0 0 0 -1 I I #
edge $-1 $302 46.490004787286701 $305 52.332615906785755 $234 $332 forward 7 unknown #
vertex $-1 $248 $333 #
straight-curve $-1 -94.144530371884173 -30.947865204566416 11.474555413759077 -1 0 0 I I #
edge $-1 $305 12.110882459895073 $245 25.563083029447615 $244 $334 forward 7 unknown #
vertex $-1 $304 $335 #
straight-curve $-1 -77.991882076479399 -30.947865204566416 5.6319442942600091 0.70710677298230451 0 0.70710678939079041 I I #
point $-1 -72.14927109255872 -30.947865204566416 11.474555413759079 #
point $-1 -77.991882076479385 -44.400065774118957 5.6319442942600233 #
straight-curve $-1 -77.991882076479385 0 11.474555413759079 0 -1 0 I I #
vertex $-1 $251 $336 #
point $-1 -72.699836381326023 -40.556579897103944 7.5967232517943923 #
vertex $-1 $255 $337 #
point $-1 -72.699836381326023 -34.791351081581425 7.5967232517943923 #
coedge $-1 $270 $269 $262 $315 forward $259 $-1 #
edge $-1 $316 46.490004787286701 $319 52.332615906785755 $314 $338 forward 7 unknown #
vertex $-1 $274 $339 #
straight-curve $-1 -94.144530371884173 44.400065774118957 11.474555413759077 -1 0 0 I I #
edge $-1 $319 -25.563083029447611 $271 -12.110882459895077 $270 $340 forward 7 unknown #
vertex $-1 $318 $341 #
straight-curve $-1 -77.991882076479399 44.400065774118957 5.6319442942600091 0.70710677298230451 0 0.70710678939079041 I I #
point $-1 -72.14927109255872 44.400065774118957 11.474555413759079 #
point $-1 -77.991882076479385 30.947865204566423 5.6319442942600233 #
straight-curve $-1 -77.991882076479385 0 11.474555413759079 0 -1 0 I I #
vertex $-1 $277 $342 #
point $-1 -72.699836381326023 34.791351081581425 7.5967232517943923 #
vertex $-1 $281 $343 #
point $-1 -72.699836381326023 40.556579897103944 7.5967232517943923 #
straight-curve $-1 -77.991882076479385 46.64327274158515 0 0 0 -1 I I #
point $-1 -77.991882076479385 -46.64327274158515 -11.474555413759079 #
straight-curve $-1 -77.991882076479385 0 -11.474555413759079 0 1 0 I I #
point $-1 -77.991882076479385 46.64327274158515 -11.474555413759079 #
straight-curve $-1 -77.991882076479385 -30.947865204566416 57.964560201045778 0 0 -1 I I #
point $-1 -77.991882076479385 -30.947865204566416 11.474555413759079 #
straight-curve $-1 -77.991882076479385 -18.836982744671342 5.6319442942600091 0 -1 0 I I #
point $-1 -77.991882076479385 -30.947865204566416 5.6319442942600233 #
point $-1 -72.69983636491753 -40.556579897103944 6.1825096894212974 #
point $-1 -72.69983636491753 -34.791351081581425 6.1825096894212974 #
straight-curve $-1 -77.991882076479385 44.400065774118957 57.964560201045778 0 0 -1 I I #
point $-1 -77.991882076479385 44.400065774118957 11.474555413759079 #
straight-curve $-1 -77.991882076479385 18.836982744671346 5.6319442942600091 0 -1 0 I I #
point $-1 -77.991882076479385 44.400065774118957 5.6319442942600233 #
point $-1 -72.69983636491753 34.791351081581425 6.1825096894212974 #
point $-1 -72.69983636491753 40.556579897103944 6.1825096894212974 #
End-of-ACIS-data 