500 0 8 0           
7 Unknown 11 ACIS 5.0 NT 24 Thu Mar 25 18:59:24 1999 
-1 9.9999999999999995e-007 1e-010 
body $-1 $8 $-1 $9 #
body $-1 $10 $-1 $11 #
body $-1 $12 $-1 $13 #
body $-1 $14 $-1 $15 #
body $-1 $16 $-1 $17 #
body $-1 $18 $-1 $19 #
body $-1 $20 $-1 $21 #
body $-1 $22 $-1 $23 #
lump $-1 $-1 $24 $0 #
transform $-1 1 0 0 0 1 0 0 0 1 42.86629840998566 18.101778347086139 4.1208656697974897 1 rotate no_reflect no_shear #
lump $-1 $-1 $25 $1 #
transform $-1 1 0 0 0 1 0 0 0 1 42.86629840998566 18.101778347086139 4.1208656697974897 1 rotate no_reflect no_shear #
lump $-1 $-1 $26 $2 #
transform $-1 1 0 0 0 1 0 0 0 1 42.86629840998566 18.101778347086139 4.1208656697974897 1 rotate no_reflect no_shear #
lump $-1 $-1 $27 $3 #
transform $-1 1 0 0 0 1 0 0 0 1 42.86629840998566 18.101778347086139 4.1208656697974897 1 rotate no_reflect no_shear #
lump $-1 $-1 $28 $4 #
transform $-1 1 0 0 0 1 0 0 0 1 42.86629840998566 18.101778347086139 4.1208656697974897 1 rotate no_reflect no_shear #
lump $-1 $-1 $29 $5 #
transform $-1 1 0 0 0 1 0 0 0 1 42.86629840998566 18.101778347086139 4.1208656697974897 1 rotate no_reflect no_shear #
lump $-1 $-1 $30 $6 #
transform $-1 1 0 0 0 1 0 0 0 1 42.86629840998566 18.101778347086139 4.1208656697974897 1 rotate no_reflect no_shear #
lump $-1 $-1 $31 $7 #
transform $-1 1 0 0 0 1 0 0 0 1 42.86629840998566 18.101778347086139 4.1208656697974897 1 rotate no_reflect no_shear #
shell $-1 $-1 $-1 $32 $-1 $8 #
shell $-1 $-1 $-1 $33 $-1 $10 #
shell $-1 $-1 $-1 $34 $-1 $12 #
shell $-1 $-1 $-1 $35 $-1 $14 #
shell $-1 $-1 $-1 $36 $-1 $16 #
shell $-1 $-1 $-1 $37 $-1 $18 #
shell $-1 $-1 $-1 $38 $-1 $20 #
shell $-1 $-1 $-1 $39 $-1 $22 #
face $-1 $40 $41 $24 $-1 $42 forward single #
face $-1 $43 $44 $25 $-1 $45 reversed single #
face $-1 $46 $47 $26 $-1 $48 reversed single #
face $-1 $49 $50 $27 $-1 $51 forward single #
face $-1 $52 $53 $28 $-1 $54 forward single #
face $-1 $55 $56 $29 $-1 $57 reversed single #
face $-1 $58 $59 $30 $-1 $60 forward single #
face $-1 $61 $62 $31 $-1 $63 forward single #
face $-1 $64 $65 $24 $-1 $66 reversed single #
loop $-1 $-1 $67 $32 #
plane-surface $-1 0 0 4.1208656697974897 0 0 1 1 0 0 forward_v I I I I #
face $-1 $68 $69 $25 $-1 $70 reversed single #
loop $-1 $-1 $71 $33 #
plane-surface $-1 0 -15.411141187003659 1.1208656697974897 0 0 1 1 0 0 forward_v I I I I #
face $-1 $72 $73 $26 $-1 $74 reversed single #
loop $-1 $-1 $75 $34 #
plane-surface $-1 -101.33578954026245 -4.5575571461455517 63.092489040835638 0 1 0 -0.68199836817093118 0 0.7313536940579346 forward_v I I I I #
face $-1 $76 $77 $27 $-1 $78 forward single #
loop $-1 $79 $80 $35 #
cone-surface $-1 -40.461337949040434 -2.4866444872232574 1.8215061181988719 0.68199836817093118 0 -0.7313536940579346 0.7313536940579346 0 0.68199836817093118 1 I I 0 1 1 forward I I I I #
face $-1 $81 $82 $28 $-1 $83 forward single #
loop $-1 $84 $85 $36 #
cone-surface $-1 -40.461337949040434 0.61972450116018507 1.8215061181988719 0.68199836817093118 0 -0.7313536940579346 0.7313536940579346 0 0.68199836817093118 1 I I 0 1 1 forward I I I I #
face $-1 $86 $87 $29 $-1 $88 reversed single #
loop $-1 $-1 $89 $37 #
plane-surface $-1 -101.33578954026245 10.853584040858102 63.092489040835638 0 1 0 -0.68199836817093118 0 0.7313536940579346 forward_v I I I I #
face $-1 $90 $91 $30 $-1 $92 forward single #
loop $-1 $93 $94 $38 #
cone-surface $-1 -40.461337949040434 12.924496699780399 1.8215061181988719 0.68199836817093118 0 -0.7313536940579346 0.7313536940579346 0 0.68199836817093118 1 I I 0 1 1 forward I I I I #
face $-1 $95 $96 $31 $-1 $97 forward single #
loop $-1 $98 $99 $39 #
cone-surface $-1 -40.461337949040434 16.030865688163843 1.8215061181988719 0.68199836817093118 0 -0.7313536940579346 0.7313536940579346 0 0.68199836817093118 1 I I 0 1 1 forward I I I I #
face $-1 $100 $101 $24 $-1 $102 reversed single #
loop $-1 $-1 $103 $40 #
plane-surface $-1 0 0 -4.1208656697974897 0 0 1 1 0 0 forward_v I I I I #
coedge $-1 $104 $105 $106 $107 forward $41 $-1 #
face $-1 $108 $109 $25 $-1 $110 reversed single #
loop $-1 $-1 $111 $43 #
plane-surface $-1 0 -12.72050402692118 2.6208656697974897 0 -1 0 0 0 -1 forward_v I I I I #
coedge $-1 $112 $113 $114 $115 reversed $44 $-1 #
face $-1 $116 $117 $26 $-1 $118 reversed single #
loop $-1 $-1 $119 $46 #
plane-surface $-1 -42.866298409985653 -0.93345999303153704 0.39163765537007578 -0.68199836817093118 0 0.7313536940579346 0.7313536940579346 0 0.68199836817093118 forward_v I I I I #
coedge $-1 $120 $121 $122 $123 reversed $47 $-1 #
face $-1 $-1 $124 $27 $-1 $125 forward single #
loop $-1 $126 $127 $49 #
cone-surface $-1 -39.714931977173563 -2.4866444872232574 1.0210837267849913 0.68199836817093118 0 -0.7313536940579346 0.3656768470289673 0 0.34099918408546559 1 I I -0.70710678118654746 0.70710678118654746 0.5 forward I I I I #
loop $-1 $-1 $128 $35 #
coedge $-1 $80 $80 $129 $130 reversed $50 $-1 #
face $-1 $-1 $131 $28 $-1 $132 forward single #
loop $-1 $133 $134 $52 #
cone-surface $-1 -39.714931977173563 0.61972450116018507 1.0210837267849913 0.68199836817093118 0 -0.7313536940579346 0.3656768470289673 0 0.34099918408546559 1 I I -0.70710678118654746 0.70710678118654746 0.5 forward I I I I #
loop $-1 $-1 $135 $36 #
coedge $-1 $85 $85 $136 $137 reversed $53 $-1 #
face $-1 $138 $139 $29 $-1 $140 forward single #
loop $-1 $-1 $141 $55 #
plane-surface $-1 -42.866298409985653 14.477681193972117 0.39163765537007578 -0.68199836817093118 0 0.7313536940579346 0.7313536940579346 0 0.68199836817093118 forward_v I I I I #
coedge $-1 $142 $143 $144 $145 reversed $56 $-1 #
face $-1 $-1 $146 $30 $-1 $147 forward single #
loop $-1 $148 $149 $58 #
cone-surface $-1 -39.714931977173563 12.924496699780399 1.0210837267849913 0.68199836817093118 0 -0.7313536940579346 0.3656768470289673 0 0.34099918408546559 1 I I -0.70710678118654746 0.70710678118654746 0.5 forward I I I I #
loop $-1 $-1 $150 $38 #
coedge $-1 $94 $94 $151 $152 reversed $59 $-1 #
face $-1 $-1 $153 $31 $-1 $154 forward single #
loop $-1 $155 $156 $61 #
cone-surface $-1 -39.714931977173563 16.030865688163843 1.0210837267849913 0.68199836817093118 0 -0.7313536940579346 0.3656768470289673 0 0.34099918408546559 1 I I -0.70710678118654746 0.70710678118654746 0.5 forward I I I I #
loop $-1 $-1 $157 $39 #
coedge $-1 $99 $99 $158 $159 reversed $62 $-1 #
face $-1 $160 $161 $24 $-1 $162 reversed single #
loop $-1 $-1 $163 $64 #
plane-surface $-1 0 -18.101778347086139 0 0 1 0 0 0 1 forward_v I I I I #
coedge $-1 $164 $165 $166 $167 forward $65 $-1 #
coedge $-1 $168 $67 $169 $170 forward $41 $-1 #
coedge $-1 $67 $168 $171 $172 forward $41 $-1 #
coedge $-1 $173 $174 $67 $107 reversed $175 $-1 #
edge $-1 $176 -18.101778347086139 $177 18.101778347086139 $106 $178 forward 7 unknown #
face $-1 $179 $180 $25 $-1 $181 reversed single #
loop $-1 $-1 $182 $68 #
plane-surface $-1 -42.86629840998566 0 0 1 0 0 0 0 -1 forward_v I I I I #
coedge $-1 $183 $184 $185 $186 reversed $69 $-1 #
coedge $-1 $187 $71 $188 $189 reversed $44 $-1 #
coedge $-1 $71 $187 $183 $190 forward $44 $-1 #
coedge $-1 $185 $191 $71 $115 forward $192 $-1 #
edge $-1 $193 -10.39620775358431 $194 -5.0149334334193503 $114 $195 forward 7 unknown #
face $-1 $196 $197 $26 $-1 $198 forward single #
loop $-1 $-1 $199 $72 #
plane-surface $-1 -101.33578954026245 2.6906371600824777 63.092489040835638 0 -1 0 0.68199836817093118 0 -0.7313536940579346 forward_v I I I I #
coedge $-1 $200 $201 $202 $203 reversed $73 $-1 #
coedge $-1 $121 $75 $204 $205 reversed $47 $-1 #
coedge $-1 $75 $120 $200 $206 reversed $47 $-1 #
coedge $-1 $202 $207 $75 $123 forward $197 $-1 #
edge $-1 $208 7.8015963601455667 $209 11.8007037064732 $122 $210 forward 7 unknown #
loop $-1 $-1 $129 $76 #
plane-surface $-1 -42.866298409985653 -0.93345999303153704 0.39163765537007578 -0.68199836817093118 0 0.7313536940579346 0.7313536940579346 0 0.68199836817093118 forward_v I I I I #
loop $-1 $-1 $211 $49 #
coedge $-1 $127 $127 $128 $212 reversed $77 $-1 #
coedge $-1 $128 $128 $127 $212 forward $79 $-1 #
coedge $-1 $129 $129 $80 $130 forward $124 $-1 #
edge $-1 $213 0 $213 6.2831853071796004 $129 $214 forward 7 unknown #
loop $-1 $-1 $136 $81 #
plane-surface $-1 -42.866298409985653 -0.93345999303153704 0.39163765537007578 -0.68199836817093118 0 0.7313536940579346 0.7313536940579346 0 0.68199836817093118 forward_v I I I I #
loop $-1 $-1 $215 $52 #
coedge $-1 $134 $134 $135 $216 reversed $82 $-1 #
coedge $-1 $135 $135 $134 $216 forward $84 $-1 #
coedge $-1 $136 $136 $85 $137 forward $131 $-1 #
edge $-1 $217 0 $217 6.2831853071796004 $136 $218 forward 7 unknown #
face $-1 $219 $220 $29 $-1 $221 reversed single #
loop $-1 $-1 $144 $86 #
plane-surface $-1 0 0 4.1208656697974897 0 0 1 1 0 0 forward_v I I I I #
coedge $-1 $222 $223 $224 $225 reversed $87 $-1 #
coedge $-1 $143 $89 $226 $227 reversed $56 $-1 #
coedge $-1 $89 $142 $222 $228 reversed $56 $-1 #
coedge $-1 $224 $229 $89 $145 forward $139 $-1 #
edge $-1 $230 7.8015963601455667 $231 11.8007037064732 $144 $232 forward 7 unknown #
loop $-1 $-1 $151 $90 #
plane-surface $-1 -42.866298409985653 14.477681193972117 0.39163765537007578 -0.68199836817093118 0 0.7313536940579346 0.7313536940579346 0 0.68199836817093118 forward_v I I I I #
loop $-1 $-1 $233 $58 #
coedge $-1 $149 $149 $150 $234 reversed $91 $-1 #
coedge $-1 $150 $150 $149 $234 forward $93 $-1 #
coedge $-1 $151 $151 $94 $152 forward $146 $-1 #
edge $-1 $235 0 $235 6.2831853071796004 $151 $236 forward 7 unknown #
loop $-1 $-1 $158 $95 #
plane-surface $-1 -42.866298409985653 14.477681193972117 0.39163765537007578 -0.68199836817093118 0 0.7313536940579346 0.7313536940579346 0 0.68199836817093118 forward_v I I I I #
loop $-1 $-1 $237 $61 #
coedge $-1 $156 $156 $157 $238 reversed $96 $-1 #
coedge $-1 $157 $157 $156 $238 forward $98 $-1 #
coedge $-1 $158 $158 $99 $159 forward $153 $-1 #
edge $-1 $239 0 $239 6.2831853071796004 $158 $240 forward 7 unknown #
face $-1 $241 $242 $24 $-1 $243 reversed single #
loop $-1 $-1 $244 $100 #
plane-surface $-1 -42.86629840998566 0 0 1 0 0 0 0 -1 forward_v I I I I #
coedge $-1 $245 $171 $246 $247 forward $101 $-1 #
coedge $-1 $248 $103 $245 $249 forward $65 $-1 #
coedge $-1 $103 $248 $250 $251 forward $65 $-1 #
coedge $-1 $174 $173 $103 $167 reversed $175 $-1 #
edge $-1 $252 -18.101778347086139 $253 18.101778347086139 $166 $254 forward 7 unknown #
coedge $-1 $105 $104 $255 $256 forward $41 $-1 #
coedge $-1 $257 $258 $104 $170 reversed $242 $-1 #
edge $-1 $177 -42.86629840998566 $259 42.86629840998566 $169 $260 forward 7 unknown #
coedge $-1 $163 $261 $105 $172 reversed $101 $-1 #
edge $-1 $262 -42.86629840998566 $176 42.86629840998566 $171 $263 forward 7 unknown #
coedge $-1 $166 $106 $261 $264 forward $175 $-1 #
coedge $-1 $106 $166 $257 $265 reversed $175 $-1 #
loop $-1 $-1 $173 $241 #
vertex $-1 $107 $266 #
vertex $-1 $107 $267 #
straight-curve $-1 42.86629840998566 0 4.1208656697974897 0 1 0 I I #
face $-1 $268 $269 $25 $-1 $270 forward single #
loop $-1 $-1 $188 $108 #
plane-surface $-1 0 -18.101778347086139 0 0 1 0 0 0 1 forward_v I I I I #
coedge $-1 $271 $272 $273 $274 forward $109 $-1 #
coedge $-1 $273 $111 $113 $190 reversed $69 $-1 #
coedge $-1 $111 $273 $275 $276 reversed $69 $-1 #
coedge $-1 $277 $114 $111 $186 forward $192 $-1 #
edge $-1 $194 -0.18956716510125515 $278 2.8104328348987448 $185 $279 forward 7 unknown #
coedge $-1 $113 $112 $271 $280 reversed $44 $-1 #
coedge $-1 $281 $282 $112 $189 forward $180 $-1 #
edge $-1 $283 -42.86629840998566 $193 42.86629840998566 $188 $284 forward 7 unknown #
edge $-1 $285 -42.86629840998566 $194 42.86629840998566 $183 $286 forward 7 unknown #
coedge $-1 $114 $277 $281 $287 forward $192 $-1 #
loop $-1 $-1 $185 $268 #
vertex $-1 $189 $288 #
vertex $-1 $115 $289 #
straight-curve $-1 42.86629840998566 -7.7055705935018297 1.1208656697974897 0 1 0 I I #
face $-1 $-1 $290 $26 $-1 $291 reversed single #
loop $-1 $-1 $122 $116 #
plane-surface $-1 0 0 4.1208656697974897 0 0 1 1 0 0 forward_v I I I I #
coedge $-1 $292 $293 $294 $295 reversed $117 $-1 #
coedge $-1 $296 $119 $121 $206 forward $73 $-1 #
coedge $-1 $119 $296 $292 $297 forward $73 $-1 #
coedge $-1 $294 $122 $119 $203 forward $197 $-1 #
edge $-1 $209 -4.0908271496297832 $298 3.1573671565982462 $202 $299 forward 7 unknown #
coedge $-1 $300 $301 $120 $205 forward $290 $-1 #
edge $-1 $302 -31.15460686504775 $208 -27.42537885062033 $204 $303 forward 7 unknown #
edge $-1 $209 -5.4680893510477517 $302 9.7017437778877088e-015 $121 $304 forward 7 unknown #
coedge $-1 $122 $294 $300 $305 forward $197 $-1 #
vertex $-1 $205 $306 #
vertex $-1 $123 $307 #
straight-curve $-1 -50.667894770131227 -4.5575571461455517 4.1208656697974888 1 0 0 I I #
coedge $-1 $211 $211 $-1 $308 reversed $126 $-1 #
edge $-1 $309 0 $309 6.2831853071796004 $127 $310 forward 7 unknown #
vertex $-1 $130 $311 #
ellipse-curve $-1 -40.866744736821836 -2.4866444872232574 2.2562516625837823 -0.68199836817093118 0 0.7313536940579346 0.7313536940579346 0 0.68199836817093118 1 I I #
coedge $-1 $215 $215 $-1 $312 reversed $133 $-1 #
edge $-1 $313 0 $313 6.2831853071796004 $134 $314 forward 7 unknown #
vertex $-1 $137 $315 #
ellipse-curve $-1 -40.866744736821836 0.61972450116018507 2.2562516625837823 -0.68199836817093118 0 0.7313536940579346 0.7313536940579346 0 0.68199836817093118 1 I I #
face $-1 $-1 $316 $29 $-1 $317 reversed single #
loop $-1 $-1 $318 $138 #
plane-surface $-1 0 18.101778347086139 0 0 -1 0 0 0 -1 forward_v I I I I #
coedge $-1 $319 $141 $143 $228 forward $87 $-1 #
coedge $-1 $141 $319 $318 $320 reversed $87 $-1 #
coedge $-1 $321 $144 $141 $225 forward $139 $-1 #
edge $-1 $231 3.6147434438720438 $322 10.862937750100073 $224 $323 forward 7 unknown #
coedge $-1 $324 $325 $142 $227 forward $316 $-1 #
edge $-1 $326 -31.15460686504775 $230 -27.42537885062033 $226 $327 forward 7 unknown #
edge $-1 $231 -5.4680893510477517 $326 9.7017437778877088e-015 $143 $328 forward 7 unknown #
coedge $-1 $144 $321 $324 $329 forward $139 $-1 #
vertex $-1 $227 $330 #
vertex $-1 $145 $331 #
straight-curve $-1 -50.667894770131227 10.853584040858102 4.1208656697974888 1 0 0 I I #
coedge $-1 $233 $233 $-1 $332 reversed $148 $-1 #
edge $-1 $333 0 $333 6.2831853071796004 $149 $334 forward 7 unknown #
vertex $-1 $152 $335 #
ellipse-curve $-1 -40.866744736821836 12.924496699780399 2.2562516625837823 -0.68199836817093118 0 0.7313536940579346 0.7313536940579346 0 0.68199836817093118 1 I I #
coedge $-1 $237 $237 $-1 $336 reversed $155 $-1 #
edge $-1 $337 0 $337 6.2831853071796004 $156 $338 forward 7 unknown #
vertex $-1 $159 $339 #
ellipse-curve $-1 -40.866744736821836 16.030865688163843 2.2562516625837823 -0.68199836817093118 0 0.7313536940579346 0.7313536940579346 0 0.68199836817093118 1 I I #
face $-1 $-1 $175 $24 $-1 $340 reversed single #
loop $-1 $-1 $257 $160 #
plane-surface $-1 0 18.101778347086139 0 0 -1 0 0 0 -1 forward_v I I I I #
coedge $-1 $341 $255 $258 $342 forward $161 $-1 #
coedge $-1 $261 $163 $164 $249 reversed $101 $-1 #
coedge $-1 $255 $341 $163 $247 reversed $161 $-1 #
edge $-1 $262 -4.1208656697974897 $343 4.1208656697974897 $246 $344 forward 7 unknown #
coedge $-1 $165 $164 $341 $345 forward $65 $-1 #
edge $-1 $253 -42.86629840998566 $343 42.86629840998566 $245 $346 forward 7 unknown #
coedge $-1 $258 $257 $165 $251 reversed $242 $-1 #
edge $-1 $347 -42.86629840998566 $252 42.86629840998566 $250 $348 forward 7 unknown #
vertex $-1 $167 $349 #
vertex $-1 $264 $350 #
straight-curve $-1 42.86629840998566 0 -4.1208656697974897 0 -1 0 I I #
coedge $-1 $244 $246 $168 $256 reversed $161 $-1 #
edge $-1 $259 -18.101778347086139 $262 18.101778347086139 $255 $351 forward 7 unknown #
coedge $-1 $250 $169 $174 $265 forward $242 $-1 #
coedge $-1 $169 $250 $244 $342 reversed $242 $-1 #
vertex $-1 $170 $352 #
straight-curve $-1 0 18.101778347086139 4.1208656697974897 -1 0 0 I I #
coedge $-1 $171 $245 $173 $264 reversed $101 $-1 #
vertex $-1 $256 $353 #
straight-curve $-1 0 -18.101778347086139 4.1208656697974897 1 0 0 I I #
edge $-1 $176 -4.1208656697974897 $253 4.1208656697974897 $173 $354 forward 7 unknown #
edge $-1 $177 -4.1208656697974897 $252 4.1208656697974897 $174 $355 forward 7 unknown #
point $-1 42.86629840998566 -18.101778347086139 4.1208656697974897 #
point $-1 42.86629840998566 18.101778347086139 4.1208656697974897 #
face $-1 $-1 $192 $25 $-1 $356 reversed single #
loop $-1 $-1 $275 $179 #
plane-surface $-1 0 0 4.1208656697974897 0 0 1 1 0 0 forward_v I I I I #
coedge $-1 $357 $182 $187 $280 forward $109 $-1 #
coedge $-1 $182 $357 $358 $359 reversed $109 $-1 #
coedge $-1 $184 $183 $182 $274 reversed $69 $-1 #
edge $-1 $360 -2.8104328348987448 $285 0.18956716510125515 $182 $361 forward 7 unknown #
coedge $-1 $358 $362 $184 $276 forward $269 $-1 #
edge $-1 $278 -42.86629840998566 $360 42.86629840998566 $275 $363 forward 7 unknown #
coedge $-1 $191 $185 $362 $364 reversed $192 $-1 #
vertex $-1 $186 $365 #
straight-curve $-1 42.86629840998566 -12.72050402692118 1.3104328348987448 0 0 1 I I #
edge $-1 $285 5.0149334334193503 $283 10.39620775358431 $271 $366 forward 7 unknown #
coedge $-1 $367 $188 $191 $287 reversed $180 $-1 #
coedge $-1 $188 $367 $357 $368 forward $180 $-1 #
vertex $-1 $189 $369 #
straight-curve $-1 0 -18.101778347086139 1.1208656697974897 1 0 0 I I #
vertex $-1 $280 $370 #
straight-curve $-1 0 -12.72050402692118 1.1208656697974897 1 0 0 I I #
edge $-1 $371 -4.1208656697974897 $193 -1.1208656697974897 $191 $372 forward 7 unknown #
point $-1 42.86629840998566 -18.101778347086139 1.1208656697974897 #
point $-1 42.86629840998566 -12.72050402692118 1.1208656697974897 #
loop $-1 $-1 $204 $196 #
plane-surface $-1 -42.86629840998566 0 0 1 0 0 0 0 -1 forward_v I I I I #
coedge $-1 $293 $199 $201 $297 reversed $117 $-1 #
coedge $-1 $199 $292 $373 $374 reversed $117 $-1 #
coedge $-1 $207 $202 $199 $295 forward $197 $-1 #
edge $-1 $298 -11.8007037064732 $375 -7.8015963601455667 $294 $376 forward 7 unknown #
coedge $-1 $201 $200 $301 $377 reversed $73 $-1 #
edge $-1 $378 -9.7017437778877088e-015 $298 5.4680893510477517 $292 $379 forward 7 unknown #
vertex $-1 $203 $380 #
straight-curve $-1 -38.867191063658026 -0.46672999651576852 4.1208656697974888 0 1 0 I I #
coedge $-1 $373 $204 $207 $305 reversed $290 $-1 #
coedge $-1 $204 $373 $296 $377 forward $290 $-1 #
vertex $-1 $205 $381 #
straight-curve $-1 -42.86629840998566 -4.5575571461455517 31.546244520417819 0 0 1 I I #
straight-curve $-1 -42.866298409985653 -4.5575571461455517 0.39163765537007578 -0.7313536940579346 0 -0.68199836817093118 I I #
edge $-1 $375 -2.6906371600824777 $208 4.5575571461455517 $300 $382 forward 7 unknown #
point $-1 -42.86629840998566 -4.5575571461455517 4.1208656697974897 #
point $-1 -38.867191063658026 -4.5575571461455517 4.1208656697974897 #
edge $-1 $383 1 $383 0 $211 $-1 forward 7 unknown #
vertex $-1 $212 $384 #
ellipse-curve $-1 -40.055931161259032 -2.4866444872232574 1.3867605738139586 -0.68199836817093118 0 0.7313536940579346 0.7313536940579346 0 0.68199836817093118 1 I I #
point $-1 -40.135391042763914 -2.4866444872232574 2.9382500307547161 #
edge $-1 $385 1 $385 0 $215 $-1 forward 7 unknown #
vertex $-1 $216 $386 #
ellipse-curve $-1 -40.055931161259032 0.61972450116018507 1.3867605738139586 -0.68199836817093118 0 0.7313536940579346 0.7313536940579346 0 0.68199836817093118 1 I I #
point $-1 -40.135391042763914 0.61972450116018507 2.9382500307547161 #
loop $-1 $-1 $226 $219 #
plane-surface $-1 -42.86629840998566 0 0 1 0 0 0 0 -1 forward_v I I I I #
coedge $-1 $387 $388 $223 $320 forward $220 $-1 #
coedge $-1 $223 $222 $325 $389 reversed $87 $-1 #
edge $-1 $322 10.073575374380296 $390 15.541664725428058 $318 $391 forward 7 unknown #
coedge $-1 $229 $224 $388 $392 forward $139 $-1 #
vertex $-1 $392 $393 #
straight-curve $-1 -38.867191063658026 7.2388405969860585 4.1208656697974888 0 1 0 I I #
coedge $-1 $394 $226 $229 $329 reversed $316 $-1 #
coedge $-1 $226 $394 $319 $389 forward $316 $-1 #
vertex $-1 $227 $395 #
straight-curve $-1 -42.86629840998566 10.853584040858102 31.546244520417819 0 0 1 I I #
straight-curve $-1 -42.866298409985653 10.853584040858102 0.39163765537007578 -0.7313536940579346 0 -0.68199836817093118 I I #
edge $-1 $396 -18.101778347086139 $230 -10.853584040858102 $324 $397 forward 7 unknown #
point $-1 -42.86629840998566 10.853584040858102 4.1208656697974897 #
point $-1 -38.867191063658026 10.853584040858102 4.1208656697974897 #
edge $-1 $398 1 $398 0 $233 $-1 forward 7 unknown #
vertex $-1 $234 $399 #
ellipse-curve $-1 -40.055931161259032 12.924496699780399 1.3867605738139586 -0.68199836817093118 0 0.7313536940579346 0.7313536940579346 0 0.68199836817093118 1 I I #
point $-1 -40.135391042763914 12.924496699780399 2.9382500307547161 #
edge $-1 $400 1 $400 0 $237 $-1 forward 7 unknown #
vertex $-1 $238 $401 #
ellipse-curve $-1 -40.055931161259032 16.030865688163843 1.3867605738139586 -0.68199836817093118 0 0.7313536940579346 0.7313536940579346 0 0.68199836817093118 1 I I #
point $-1 -40.135391042763914 16.030865688163843 2.9382500307547161 #
plane-surface $-1 42.86629840998566 0 0 -1 0 0 0 0 1 forward_v I I I I #
coedge $-1 $246 $244 $248 $345 reversed $161 $-1 #
edge $-1 $259 -4.1208656697974897 $347 4.1208656697974897 $258 $402 forward 7 unknown #
vertex $-1 $345 $403 #
straight-curve $-1 -42.86629840998566 -18.101778347086139 0 0 0 -1 I I #
edge $-1 $343 -18.101778347086139 $347 18.101778347086139 $341 $404 forward 7 unknown #
straight-curve $-1 0 -18.101778347086139 -4.1208656697974897 -1 0 0 I I #
vertex $-1 $251 $405 #
straight-curve $-1 0 18.101778347086139 -4.1208656697974897 1 0 0 I I #
point $-1 42.86629840998566 18.101778347086139 -4.1208656697974897 #
point $-1 42.86629840998566 -18.101778347086139 -4.1208656697974897 #
straight-curve $-1 -42.86629840998566 0 4.1208656697974897 0 -1 0 I I #
point $-1 -42.86629840998566 18.101778347086139 4.1208656697974897 #
point $-1 -42.86629840998566 -18.101778347086139 4.1208656697974897 #
straight-curve $-1 42.86629840998566 -18.101778347086139 0 0 0 -1 I I #
straight-curve $-1 42.86629840998566 18.101778347086139 0 0 0 -1 I I #
plane-surface $-1 42.86629840998566 0 0 -1 0 0 0 0 1 forward_v I I I I #
coedge $-1 $272 $271 $282 $368 reversed $109 $-1 #
coedge $-1 $406 $275 $272 $359 forward $269 $-1 #
edge $-1 $360 12.72050402692118 $407 18.101778347086139 $272 $408 forward 7 unknown #
vertex $-1 $359 $409 #
straight-curve $-1 -42.86629840998566 -12.72050402692118 1.3104328348987448 0 0 -1 I I #
coedge $-1 $275 $406 $277 $364 forward $269 $-1 #
straight-curve $-1 0 -12.72050402692118 4.1208656697974897 -1 0 0 I I #
edge $-1 $371 -18.101778347086139 $278 -12.72050402692118 $277 $410 forward 7 unknown #
point $-1 42.86629840998566 -12.72050402692118 4.1208656697974897 #
straight-curve $-1 -42.86629840998566 -7.7055705935018297 1.1208656697974897 0 -1 0 I I #
coedge $-1 $282 $281 $406 $411 reversed $180 $-1 #
edge $-1 $407 -4.1208656697974897 $283 -1.1208656697974897 $357 $412 forward 7 unknown #
point $-1 -42.86629840998566 -18.101778347086139 1.1208656697974897 #
point $-1 -42.86629840998566 -12.72050402692118 1.1208656697974897 #
vertex $-1 $364 $413 #
straight-curve $-1 42.86629840998566 -18.101778347086139 0 0 0 -1 I I #
coedge $-1 $301 $300 $293 $374 forward $290 $-1 #
edge $-1 $375 27.42537885062033 $378 31.15460686504775 $373 $414 forward 7 unknown #
vertex $-1 $305 $415 #
straight-curve $-1 -50.667894770131227 2.6906371600824777 4.1208656697974888 -1 0 0 I I #
edge $-1 $378 -3.1573671565982462 $302 4.0908271496297832 $301 $416 forward 7 unknown #
vertex $-1 $377 $417 #
straight-curve $-1 -42.866298409985653 2.6906371600824777 0.39163765537007578 0.7313536940579346 0 0.68199836817093118 I I #
point $-1 -38.867191063658026 2.6906371600824777 4.1208656697974897 #
point $-1 -42.86629840998566 -4.5575571461455517 0.39163765537006917 #
straight-curve $-1 -42.86629840998566 0 4.1208656697974897 0 -1 0 I I #
vertex $-1 $308 $418 #
point $-1 -39.324577467201095 -2.4866444872232574 2.06875894198489 #
vertex $-1 $312 $419 #
point $-1 -39.324577467201095 0.61972450116018507 2.06875894198489 #
coedge $-1 $388 $318 $394 $420 reversed $220 $-1 #
coedge $-1 $318 $387 $321 $392 reversed $220 $-1 #
edge $-1 $390 -10.862937750100073 $326 -3.6147434438720438 $325 $421 forward 7 unknown #
vertex $-1 $320 $422 #
straight-curve $-1 -31.499844501233955 18.101778347086139 10.991027636771728 -0.7313536940579346 0 -0.68199836817093118 I I #
edge $-1 $322 38.867191063658026 $396 42.86629840998566 $388 $423 forward 7 unknown #
point $-1 -38.867191063658026 18.101778347086132 4.1208656697974897 #
coedge $-1 $325 $324 $387 $420 forward $316 $-1 #
point $-1 -42.86629840998566 10.853584040858102 0.39163765537006917 #
vertex $-1 $392 $424 #
straight-curve $-1 -42.86629840998566 0 4.1208656697974897 0 -1 0 I I #
vertex $-1 $332 $425 #
point $-1 -39.324577467201095 12.924496699780399 2.06875894198489 #
vertex $-1 $336 $426 #
point $-1 -39.324577467201095 16.030865688163843 2.06875894198489 #
straight-curve $-1 -42.86629840998566 18.101778347086139 0 0 0 -1 I I #
point $-1 -42.86629840998566 -18.101778347086139 -4.1208656697974897 #
straight-curve $-1 -42.86629840998566 0 -4.1208656697974897 0 1 0 I I #
point $-1 -42.86629840998566 18.101778347086139 -4.1208656697974897 #
coedge $-1 $362 $358 $367 $411 forward $269 $-1 #
vertex $-1 $359 $427 #
straight-curve $-1 -42.86629840998566 0 4.1208656697974897 0 -1 0 I I #
point $-1 -42.86629840998566 -12.72050402692118 4.1208656697974897 #
straight-curve $-1 42.86629840998566 0 4.1208656697974897 0 1 0 I I #
edge $-1 $407 -42.86629840998566 $371 42.86629840998566 $367 $428 forward 7 unknown #
straight-curve $-1 -42.86629840998566 -18.101778347086139 0 0 0 -1 I I #
point $-1 42.86629840998566 -18.101778347086139 4.1208656697974897 #
straight-curve $-1 -42.86629840998566 2.6906371600824777 31.546244520417819 0 0 -1 I I #
point $-1 -42.86629840998566 2.6906371600824777 4.1208656697974897 #
straight-curve $-1 -42.86629840998566 -0.46672999651576852 0.39163765537006923 0 -1 0 I I #
point $-1 -42.86629840998566 2.6906371600824777 0.39163765537006917 #
point $-1 -39.373932793088095 -2.4866444872232574 0.65540687975602396 #
point $-1 -39.373932793088095 0.61972450116018507 0.65540687975602396 #
edge $-1 $396 -4.1208656697974897 $390 -0.39163765537006917 $387 $429 forward 7 unknown #
straight-curve $-1 -42.86629840998566 7.2388405969860585 0.39163765537006923 0 -1 0 I I #
point $-1 -42.86629840998566 18.101778347086132 0.39163765537006917 #
straight-curve $-1 0 18.101778347086139 4.1208656697974897 -1 0 0 I I #
point $-1 -42.86629840998566 18.101778347086139 4.1208656697974897 #
point $-1 -39.373932793088095 12.924496699780399 0.65540687975602396 #
point $-1 -39.373932793088095 16.030865688163843 0.65540687975602396 #
point $-1 -42.86629840998566 -18.101778347086139 4.1208656697974897 #
straight-curve $-1 0 -18.101778347086139 4.1208656697974897 1 0 0 I I #
straight-curve $-1 -42.86629840998566 18.101778347086139 0 0 0 -1 I I #
End-of-ACIS-data 