500 0 6 0           
7 Unknown 11 ACIS 5.0 NT 24 Thu Mar 25 21:00:16 1999 
-1 9.9999999999999995e-007 1e-010 
body $-1 $6 $-1 $7 #
body $-1 $8 $-1 $9 #
body $-1 $10 $-1 $11 #
body $-1 $12 $-1 $13 #
body $-1 $14 $-1 $15 #
body $-1 $16 $-1 $17 #
lump $-1 $-1 $18 $0 #
transform $-1 1 0 0 0 1 0 0 0 1 62.345652638325149 26.170637507670623 11.415260371055709 1 rotate no_reflect no_shear #
lump $-1 $-1 $19 $1 #
transform $-1 1 0 0 0 1 0 0 0 1 62.345652638325149 26.170637507670623 11.415260371055709 1 rotate no_reflect no_shear #
lump $-1 $-1 $20 $2 #
transform $-1 1 0 0 0 1 0 0 0 1 62.345652638325149 26.170637507670623 11.415260371055709 1 rotate no_reflect no_shear #
lump $-1 $-1 $21 $3 #
transform $-1 1 0 0 0 1 0 0 0 1 62.345652638325149 26.170637507670623 11.415260371055709 1 rotate no_reflect no_shear #
lump $-1 $-1 $22 $4 #
transform $-1 1 0 0 0 1 0 0 0 1 62.345652638325149 26.170637507670623 11.415260371055709 1 rotate no_reflect no_shear #
lump $-1 $-1 $23 $5 #
transform $-1 1 0 0 0 1 0 0 0 1 62.345652638325149 26.170637507670623 11.415260371055709 1 rotate no_reflect no_shear #
shell $-1 $-1 $-1 $24 $-1 $6 #
shell $-1 $-1 $-1 $25 $-1 $8 #
shell $-1 $-1 $-1 $26 $-1 $10 #
shell $-1 $-1 $-1 $27 $-1 $12 #
shell $-1 $-1 $-1 $28 $-1 $14 #
shell $-1 $-1 $-1 $29 $-1 $16 #
face $-1 $30 $31 $18 $-1 $32 forward single #
face $-1 $33 $34 $19 $-1 $35 forward single #
face $-1 $36 $37 $20 $-1 $38 reversed single #
face $-1 $39 $40 $21 $-1 $41 forward single #
face $-1 $42 $43 $22 $-1 $44 reversed single #
face $-1 $45 $46 $23 $-1 $47 forward single #
face $-1 $48 $49 $18 $-1 $50 reversed single #
loop $-1 $-1 $51 $24 #
plane-surface $-1 0 0 11.415260371055709 0 0 1 1 0 0 forward_v I I I I #
face $-1 $52 $53 $19 $-1 $54 reversed single #
loop $-1 $-1 $55 $25 #
plane-surface $-1 0 -26.170637507670623 0 0 1 0 0 0 1 forward_v I I I I #
face $-1 $56 $57 $20 $-1 $58 reversed single #
loop $-1 $-1 $59 $26 #
plane-surface $-1 -170.33149160343646 6.9276912504419244 66.645094733511939 0 1 0 -0.86602541151947299 0 0.49999998660252726 forward_v I I I I #
face $-1 $60 $61 $21 $-1 $62 forward single #
loop $-1 $63 $64 $27 #
cone-surface $-1 -59.116873583897778 12.484615681338934 7.1791850282460068 0.86602541151947299 0 -0.49999998660252726 0.99999997320505452 0 1.732050823038946 1 I I 0 1 2 forward I I I I #
face $-1 $65 $66 $22 $-1 $67 reversed single #
loop $-1 $-1 $68 $28 #
plane-surface $-1 83.836111457318268 -2.8006030541877109 178.90269500421249 0 -1 0 -0.78801076186113728 0 -0.61566146476048833 forward_v I I I I #
face $-1 $69 $70 $23 $-1 $71 forward single #
loop $-1 $72 $73 $29 #
cone-surface $-1 58.219303651617132 -8.9605499541691067 6.7229720292766197 -0.78801076186113728 0 -0.61566146476048833 1.2313229295209767 0 -1.5760215237222746 1 I I 0 1 2 forward I I I I #
face $-1 $74 $75 $18 $-1 $76 reversed single #
loop $-1 $-1 $77 $30 #
plane-surface $-1 0 0 -11.415260371055709 0 0 1 1 0 0 forward_v I I I I #
coedge $-1 $78 $79 $80 $81 forward $31 $-1 #
face $-1 $82 $83 $19 $-1 $84 reversed single #
loop $-1 $-1 $85 $33 #
plane-surface $-1 0 0 -11.415260371055709 0 0 1 1 0 0 forward_v I I I I #
coedge $-1 $86 $87 $88 $89 forward $34 $-1 #
face $-1 $90 $91 $20 $-1 $92 reversed single #
loop $-1 $-1 $93 $36 #
plane-surface $-1 -62.345652638325149 12.484615681338934 4.2994437657351483 -0.86602541151947299 0 0.49999998660252726 0.49999998660252726 0 0.86602541151947299 forward_v I I I I #
coedge $-1 $94 $95 $96 $97 reversed $37 $-1 #
face $-1 $-1 $98 $21 $-1 $99 forward single #
loop $-1 $100 $101 $39 #
cone-surface $-1 -57.076228360855737 12.484615681338934 6.0010180014940566 0.86602541151947299 0 -0.49999998660252726 0.49999998660252726 0 0.86602541151947299 1 I I -0.70710678118654746 0.70710678118654746 1 forward I I I I #
loop $-1 $-1 $102 $27 #
coedge $-1 $64 $64 $103 $104 reversed $40 $-1 #
face $-1 $105 $106 $22 $-1 $107 reversed single #
loop $-1 $-1 $108 $42 #
plane-surface $-1 -14.421979011194594 -8.9605499541691067 102.13506335469275 0.78801076186113728 0 0.61566146476048833 0.61566146476048833 0 -0.78801076186113728 forward_v I I I I #
coedge $-1 $109 $110 $111 $112 reversed $43 $-1 #
face $-1 $-1 $113 $23 $-1 $114 forward single #
loop $-1 $115 $116 $45 #
cone-surface $-1 56.249721651871496 -8.9605499541691067 5.1841659651749552 -0.78801076186113728 0 -0.61566146476048833 0.61566146476048833 0 -0.78801076186113728 1 I I -0.70710678118654746 0.70710678118654746 1 forward I I I I #
loop $-1 $-1 $117 $29 #
coedge $-1 $73 $73 $118 $119 reversed $46 $-1 #
face $-1 $120 $121 $18 $-1 $122 reversed single #
loop $-1 $-1 $123 $48 #
plane-surface $-1 0 -26.170637507670623 0 0 1 0 0 0 1 forward_v I I I I #
coedge $-1 $124 $125 $126 $127 forward $49 $-1 #
coedge $-1 $128 $51 $129 $130 forward $31 $-1 #
coedge $-1 $51 $128 $131 $132 forward $31 $-1 #
coedge $-1 $133 $134 $51 $81 reversed $135 $-1 #
edge $-1 $136 -26.170637507670623 $137 26.170637507670623 $80 $138 forward 7 unknown #
face $-1 $139 $140 $19 $-1 $141 forward single #
loop $-1 $-1 $142 $52 #
plane-surface $-1 62.345652638325149 0 0 -1 0 0 0 0 1 forward_v I I I I #
coedge $-1 $143 $144 $145 $146 forward $53 $-1 #
coedge $-1 $145 $55 $142 $147 reversed $34 $-1 #
coedge $-1 $55 $145 $148 $149 reversed $34 $-1 #
coedge $-1 $150 $151 $55 $89 reversed $140 $-1 #
edge $-1 $152 -62.345652638325149 $153 62.345652638325149 $88 $154 forward 7 unknown #
face $-1 $155 $156 $20 $-1 $157 forward single #
loop $-1 $-1 $158 $56 #
plane-surface $-1 -170.33149160343646 18.041540112235943 66.645094733511939 0 -1 0 0.86602541151947299 0 -0.49999998660252726 forward_v I I I I #
coedge $-1 $159 $160 $161 $162 reversed $57 $-1 #
coedge $-1 $95 $59 $163 $164 reversed $37 $-1 #
coedge $-1 $59 $94 $159 $165 reversed $37 $-1 #
coedge $-1 $161 $166 $59 $97 forward $156 $-1 #
edge $-1 $167 22.820093163393082 $168 26.928411649202687 $96 $169 forward 7 unknown #
loop $-1 $-1 $103 $60 #
plane-surface $-1 -62.345652638325149 12.484615681338934 4.2994437657351483 -0.86602541151947299 0 0.49999998660252726 0.49999998660252726 0 0.86602541151947299 forward_v I I I I #
loop $-1 $-1 $170 $39 #
coedge $-1 $101 $101 $102 $171 reversed $61 $-1 #
coedge $-1 $102 $102 $101 $171 forward $63 $-1 #
coedge $-1 $103 $103 $64 $104 forward $98 $-1 #
edge $-1 $172 0 $172 6.2831853071796004 $103 $173 forward 7 unknown #
face $-1 $174 $175 $22 $-1 $176 reversed single #
loop $-1 $-1 $177 $65 #
plane-surface $-1 83.836111457318268 -15.120496854150502 178.90269500421249 0 1 0 0.78801076186113728 0 0.61566146476048833 forward_v I I I I #
coedge $-1 $178 $179 $180 $181 reversed $66 $-1 #
coedge $-1 $110 $68 $182 $183 reversed $43 $-1 #
coedge $-1 $68 $109 $178 $184 reversed $43 $-1 #
coedge $-1 $180 $185 $68 $112 forward $186 $-1 #
edge $-1 $187 -20.427596909666015 $188 -14.538041412018963 $111 $189 forward 7 unknown #
loop $-1 $-1 $118 $69 #
plane-surface $-1 -14.421979011194594 -8.9605499541691067 102.13506335469275 0.78801076186113728 0 0.61566146476048833 0.61566146476048833 0 -0.78801076186113728 forward_v I I I I #
loop $-1 $-1 $190 $45 #
coedge $-1 $116 $116 $117 $191 reversed $70 $-1 #
coedge $-1 $117 $117 $116 $191 forward $72 $-1 #
coedge $-1 $118 $118 $73 $119 forward $113 $-1 #
edge $-1 $192 0 $192 6.2831853071796004 $118 $193 forward 7 unknown #
face $-1 $194 $195 $18 $-1 $196 reversed single #
loop $-1 $-1 $197 $74 #
plane-surface $-1 -62.345652638325149 0 0 1 0 0 0 0 -1 forward_v I I I I #
coedge $-1 $131 $198 $133 $199 reversed $75 $-1 #
coedge $-1 $200 $77 $198 $201 forward $49 $-1 #
coedge $-1 $77 $200 $202 $203 forward $49 $-1 #
coedge $-1 $134 $133 $77 $127 reversed $135 $-1 #
edge $-1 $204 -26.170637507670623 $205 26.170637507670623 $126 $206 forward 7 unknown #
coedge $-1 $79 $78 $207 $208 forward $31 $-1 #
coedge $-1 $209 $210 $78 $130 reversed $195 $-1 #
edge $-1 $137 -62.345652638325149 $211 62.345652638325149 $129 $212 forward 7 unknown #
coedge $-1 $213 $123 $79 $132 reversed $75 $-1 #
edge $-1 $214 -62.345652638325149 $136 62.345652638325149 $131 $215 forward 7 unknown #
coedge $-1 $126 $80 $123 $199 forward $135 $-1 #
coedge $-1 $80 $126 $209 $216 reversed $135 $-1 #
loop $-1 $-1 $133 $194 #
vertex $-1 $81 $217 #
vertex $-1 $81 $218 #
straight-curve $-1 62.345652638325149 0 11.415260371055709 0 1 0 I I #
face $-1 $219 $220 $19 $-1 $221 reversed single #
loop $-1 $-1 $151 $82 #
plane-surface $-1 0 -31.695707834430685 -8.4152603710557088 0 0 1 1 0 0 forward_v I I I I #
coedge $-1 $222 $223 $86 $147 forward $83 $-1 #
coedge $-1 $224 $85 $223 $225 forward $53 $-1 #
coedge $-1 $85 $224 $226 $227 forward $53 $-1 #
coedge $-1 $87 $86 $85 $146 reversed $34 $-1 #
edge $-1 $228 -62.345652638325149 $229 62.345652638325149 $85 $230 forward 7 unknown #
edge $-1 $229 -11.415260371055709 $153 -8.4152603710557088 $142 $231 forward 7 unknown #
coedge $-1 $226 $232 $87 $149 forward $233 $-1 #
edge $-1 $152 8.4152603710557088 $228 11.415260371055709 $148 $234 forward 7 unknown #
coedge $-1 $235 $88 $232 $236 forward $140 $-1 #
coedge $-1 $88 $235 $222 $237 forward $140 $-1 #
vertex $-1 $149 $238 #
vertex $-1 $237 $239 #
straight-curve $-1 0 -26.170637507670623 -8.4152603710557088 1 0 0 I I #
face $-1 $-1 $240 $20 $-1 $241 reversed single #
loop $-1 $-1 $96 $90 #
plane-surface $-1 0 0 11.415260371055709 0 0 1 1 0 0 forward_v I I I I #
coedge $-1 $242 $243 $244 $245 reversed $91 $-1 #
coedge $-1 $246 $93 $95 $165 forward $57 $-1 #
coedge $-1 $93 $246 $242 $247 forward $57 $-1 #
coedge $-1 $244 $96 $93 $162 forward $156 $-1 #
edge $-1 $168 0.6853834097724576 $248 11.799232271566476 $161 $249 forward 7 unknown #
coedge $-1 $250 $251 $94 $164 forward $240 $-1 #
edge $-1 $252 -29.023103601020821 $167 -21.907286995700261 $163 $253 forward 7 unknown #
edge $-1 $168 -8.2166371917835548 $252 0 $95 $254 forward 7 unknown #
coedge $-1 $96 $244 $250 $255 forward $156 $-1 #
vertex $-1 $164 $256 #
vertex $-1 $97 $257 #
straight-curve $-1 -85.165745801718231 6.9276912504419244 11.415260371055709 1 0 0 I I #
coedge $-1 $170 $170 $-1 $258 reversed $100 $-1 #
edge $-1 $259 0 $259 6.2831853071796004 $101 $260 forward 7 unknown #
vertex $-1 $104 $261 #
ellipse-curve $-1 -60.291493395420346 12.484615681338934 7.8573520683954294 -0.86602541151947299 0 0.49999998660252726 0.99999997320505452 0 1.732050823038946 1 I I #
face $-1 $-1 $186 $22 $-1 $262 forward single #
loop $-1 $-1 $263 $105 #
plane-surface $-1 62.345652638325149 0 0 -1 0 0 0 0 1 forward_v I I I I #
coedge $-1 $264 $265 $266 $267 reversed $106 $-1 #
coedge $-1 $268 $108 $110 $184 forward $66 $-1 #
coedge $-1 $108 $268 $264 $269 forward $66 $-1 #
coedge $-1 $266 $111 $108 $181 forward $186 $-1 #
edge $-1 $188 -1.6796719228968424 $270 10.640221877065949 $180 $271 forward 7 unknown #
coedge $-1 $272 $273 $109 $183 forward $175 $-1 #
edge $-1 $274 -85.574374615926359 $187 -78.036087131050536 $182 $275 forward 7 unknown #
edge $-1 $188 115.12508124809548 $274 124.69130527665033 $110 $276 forward 7 unknown #
coedge $-1 $111 $266 $272 $277 forward $186 $-1 #
loop $-1 $-1 $266 $174 #
vertex $-1 $183 $278 #
vertex $-1 $112 $279 #
straight-curve $-1 41.918055728659134 -2.8006030541877109 11.415260371055709 -1 0 0 I I #
coedge $-1 $190 $190 $-1 $280 reversed $115 $-1 #
edge $-1 $281 0 $281 6.2831853071796004 $116 $282 forward 7 unknown #
vertex $-1 $119 $283 #
ellipse-curve $-1 59.400874889501623 -8.9605499541691067 7.6461166286177873 0.78801076186113728 0 0.61566146476048833 1.2313229295209767 0 -1.5760215237222746 1 I I #
face $-1 $-1 $135 $18 $-1 $284 reversed single #
loop $-1 $-1 $209 $120 #
plane-surface $-1 0 26.170637507670623 0 0 -1 0 0 0 -1 forward_v I I I I #
coedge $-1 $285 $207 $210 $286 forward $121 $-1 #
coedge $-1 $123 $213 $124 $201 reversed $75 $-1 #
edge $-1 $136 -11.415260371055709 $205 11.415260371055709 $133 $287 forward 7 unknown #
coedge $-1 $125 $124 $285 $288 forward $49 $-1 #
edge $-1 $205 -62.345652638325149 $289 62.345652638325149 $198 $290 forward 7 unknown #
coedge $-1 $210 $209 $125 $203 reversed $195 $-1 #
edge $-1 $291 -62.345652638325149 $204 62.345652638325149 $202 $292 forward 7 unknown #
vertex $-1 $127 $293 #
vertex $-1 $199 $294 #
straight-curve $-1 62.345652638325149 0 -11.415260371055709 0 -1 0 I I #
coedge $-1 $197 $295 $128 $208 reversed $121 $-1 #
edge $-1 $211 -26.170637507670623 $214 26.170637507670623 $207 $296 forward 7 unknown #
coedge $-1 $202 $129 $134 $216 forward $195 $-1 #
coedge $-1 $129 $202 $197 $286 reversed $195 $-1 #
vertex $-1 $130 $297 #
straight-curve $-1 0 26.170637507670623 11.415260371055709 -1 0 0 I I #
coedge $-1 $198 $131 $295 $298 forward $75 $-1 #
vertex $-1 $208 $299 #
straight-curve $-1 0 -26.170637507670623 11.415260371055709 1 0 0 I I #
edge $-1 $137 -11.415260371055709 $204 11.415260371055709 $134 $300 forward 7 unknown #
point $-1 62.345652638325149 -26.170637507670623 11.415260371055709 #
point $-1 62.345652638325149 26.170637507670623 11.415260371055709 #
face $-1 $-1 $233 $19 $-1 $301 reversed single #
loop $-1 $-1 $302 $139 #
plane-surface $-1 0 -37.220778161190744 -9.9152603710557088 0 1 0 0 0 1 forward_v I I I I #
coedge $-1 $303 $142 $151 $237 reversed $83 $-1 #
coedge $-1 $142 $303 $143 $225 reversed $83 $-1 #
coedge $-1 $144 $143 $304 $305 forward $53 $-1 #
edge $-1 $229 26.170637507670623 $306 37.220778161190744 $223 $307 forward 7 unknown #
coedge $-1 $308 $148 $144 $227 reversed $233 $-1 #
edge $-1 $309 -37.220778161190744 $228 -26.170637507670623 $226 $310 forward 7 unknown #
vertex $-1 $149 $311 #
vertex $-1 $225 $312 #
straight-curve $-1 0 -26.170637507670623 -11.415260371055709 1 0 0 I I #
straight-curve $-1 62.345652638325149 -26.170637507670623 0 0 0 1 I I #
coedge $-1 $148 $308 $150 $236 reversed $233 $-1 #
loop $-1 $-1 $148 $219 #
straight-curve $-1 -62.345652638325149 -26.170637507670623 0 0 0 -1 I I #
coedge $-1 $151 $150 $313 $314 forward $140 $-1 #
edge $-1 $152 -5.5250703267600585 $315 5.5250703267600585 $232 $316 forward 7 unknown #
edge $-1 $317 -5.5250703267600585 $153 5.5250703267600585 $222 $318 forward 7 unknown #
point $-1 -62.345652638325149 -26.170637507670627 -8.4152603710557088 #
point $-1 62.345652638325149 -26.170637507670627 -8.4152603710557088 #
loop $-1 $-1 $163 $155 #
plane-surface $-1 -62.345652638325149 0 0 1 0 0 0 0 -1 forward_v I I I I #
coedge $-1 $243 $158 $160 $247 reversed $91 $-1 #
coedge $-1 $158 $242 $319 $320 reversed $91 $-1 #
coedge $-1 $166 $161 $158 $245 forward $156 $-1 #
edge $-1 $248 -26.928411649202687 $321 -22.820093163393082 $244 $322 forward 7 unknown #
coedge $-1 $160 $159 $251 $323 reversed $57 $-1 #
edge $-1 $324 0 $248 8.2166371917835548 $242 $325 forward 7 unknown #
vertex $-1 $162 $326 #
straight-curve $-1 -58.237334152515551 6.2423078406694668 11.415260371055709 0 1 0 I I #
coedge $-1 $319 $163 $166 $255 reversed $240 $-1 #
coedge $-1 $163 $319 $246 $323 forward $240 $-1 #
vertex $-1 $164 $327 #
straight-curve $-1 -62.345652638325149 6.9276912504419244 33.32254736675597 0 0 1 I I #
straight-curve $-1 -62.345652638325149 6.9276912504419244 4.2994437657351483 -0.49999998660252726 0 -0.86602541151947299 I I #
edge $-1 $321 -18.041540112235943 $167 -6.9276912504419244 $250 $328 forward 7 unknown #
point $-1 -62.345652638325149 6.9276912504419244 11.415260371055709 #
point $-1 -58.237334152515544 6.9276912504419244 11.415260371055709 #
edge $-1 $329 1 $329 0 $170 $-1 forward 7 unknown #
vertex $-1 $171 $330 #
ellipse-curve $-1 -57.94225377237521 12.484615681338934 6.5010179880965842 -0.86602541151947299 0 0.49999998660252726 0.99999997320505452 0 1.732050823038946 1 I I #
point $-1 -59.291493422215289 12.484615681338934 9.589402891434375 #
plane-surface $-1 0 0 11.415260371055709 0 0 1 1 0 0 forward_v I I I I #
coedge $-1 $273 $272 $265 $331 forward $175 $-1 #
coedge $-1 $265 $177 $179 $269 reversed $106 $-1 #
coedge $-1 $177 $264 $263 $331 reversed $106 $-1 #
coedge $-1 $185 $180 $177 $267 forward $186 $-1 #
edge $-1 $270 14.538041412018963 $332 20.427596909666015 $266 $333 forward 7 unknown #
coedge $-1 $179 $178 $273 $334 reversed $66 $-1 #
edge $-1 $335 -124.69130527665033 $270 -115.12508124809548 $264 $336 forward 7 unknown #
vertex $-1 $181 $337 #
straight-curve $-1 56.456097140678096 -4.4802749770845534 11.415260371055709 0 -1 0 I I #
coedge $-1 $263 $182 $185 $277 reversed $175 $-1 #
coedge $-1 $182 $263 $268 $334 forward $175 $-1 #
vertex $-1 $183 $338 #
straight-curve $-1 62.345652638325149 -2.8006030541877109 89.451347502106245 0 0 1 I I #
straight-curve $-1 -14.421979011194594 -2.8006030541877109 102.13506335469275 0.61566146476048833 0 -0.78801076186113728 I I #
edge $-1 $332 -15.120496854150502 $187 -2.8006030541877109 $272 $339 forward 7 unknown #
point $-1 62.345652638325149 -2.8006030541877109 11.415260371055709 #
point $-1 56.456097140678096 -2.8006030541877109 11.415260371055709 #
edge $-1 $340 1 $340 0 $190 $-1 forward 7 unknown #
vertex $-1 $191 $341 #
ellipse-curve $-1 57.037732413732634 -8.9605499541691067 5.7998274299354433 0.78801076186113728 0 0.61566146476048833 1.2313229295209767 0 -1.5760215237222746 1 I I #
point $-1 60.632197819022608 -8.9605499541691067 6.070095104895521 #
plane-surface $-1 62.345652638325149 0 0 -1 0 0 0 0 1 forward_v I I I I #
coedge $-1 $295 $197 $200 $288 reversed $121 $-1 #
edge $-1 $211 -11.415260371055709 $291 11.415260371055709 $210 $342 forward 7 unknown #
straight-curve $-1 62.345652638325149 -26.170637507670623 0 0 0 -1 I I #
edge $-1 $289 -26.170637507670623 $291 26.170637507670623 $285 $343 forward 7 unknown #
vertex $-1 $288 $344 #
straight-curve $-1 0 -26.170637507670623 -11.415260371055709 -1 0 0 I I #
vertex $-1 $203 $345 #
straight-curve $-1 0 26.170637507670623 -11.415260371055709 1 0 0 I I #
point $-1 62.345652638325149 26.170637507670623 -11.415260371055709 #
point $-1 62.345652638325149 -26.170637507670623 -11.415260371055709 #
coedge $-1 $207 $285 $213 $298 reversed $121 $-1 #
straight-curve $-1 -62.345652638325149 0 11.415260371055709 0 -1 0 I I #
point $-1 -62.345652638325149 26.170637507670623 11.415260371055709 #
edge $-1 $214 -11.415260371055709 $289 11.415260371055709 $295 $346 forward 7 unknown #
point $-1 -62.345652638325149 -26.170637507670623 11.415260371055709 #
straight-curve $-1 62.345652638325149 26.170637507670623 0 0 0 -1 I I #
plane-surface $-1 -62.345652638325149 0 0 1 0 0 0 0 -1 forward_v I I I I #
coedge $-1 $304 $313 $308 $347 forward $220 $-1 #
coedge $-1 $223 $222 $348 $349 forward $83 $-1 #
coedge $-1 $348 $302 $224 $305 reversed $220 $-1 #
edge $-1 $306 -62.345652638325149 $309 62.345652638325149 $304 $350 forward 7 unknown #
vertex $-1 $349 $351 #
straight-curve $-1 62.345652638325149 0 -11.415260371055709 0 -1 0 I I #
coedge $-1 $232 $226 $302 $347 reversed $233 $-1 #
vertex $-1 $227 $352 #
straight-curve $-1 -62.345652638325149 0 -11.415260371055709 0 1 0 I I #
point $-1 -62.345652638325149 -26.170637507670623 -11.415260371055709 #
point $-1 62.345652638325149 -26.170637507670623 -11.415260371055709 #
coedge $-1 $302 $348 $235 $314 reversed $220 $-1 #
edge $-1 $315 -62.345652638325149 $317 62.345652638325149 $313 $353 forward 7 unknown #
vertex $-1 $236 $354 #
straight-curve $-1 -62.345652638325149 -31.695707834430685 -8.4152603710557088 0 -1 0 I I #
vertex $-1 $237 $355 #
straight-curve $-1 62.345652638325149 -31.695707834430685 -8.4152603710557088 0 1 0 I I #
coedge $-1 $251 $250 $243 $320 forward $240 $-1 #
edge $-1 $321 21.907286995700261 $324 29.023103601020821 $319 $356 forward 7 unknown #
vertex $-1 $255 $357 #
straight-curve $-1 -85.165745801718231 18.041540112235943 11.415260371055709 -1 0 0 I I #
edge $-1 $324 -11.799232271566476 $252 -0.6853834097724576 $251 $358 forward 7 unknown #
vertex $-1 $323 $359 #
straight-curve $-1 -62.345652638325149 18.041540112235943 4.2994437657351483 0.49999998660252726 0 0.86602541151947299 I I #
point $-1 -58.237334152515544 18.041540112235943 11.415260371055709 #
point $-1 -62.345652638325149 6.9276912504419244 4.2994437657351483 #
straight-curve $-1 -62.345652638325149 0 11.415260371055709 0 -1 0 I I #
vertex $-1 $258 $360 #
point $-1 -56.942253799170153 12.484615681338934 8.2330688111355297 #
edge $-1 $332 78.036087131050536 $335 85.574374615926359 $263 $361 forward 7 unknown #
vertex $-1 $277 $362 #
straight-curve $-1 41.918055728659134 -15.120496854150502 11.415260371055709 1 0 0 I I #
edge $-1 $335 -10.640221877065949 $274 1.6796719228968424 $273 $363 forward 7 unknown #
vertex $-1 $334 $364 #
straight-curve $-1 -14.421979011194594 -15.120496854150502 102.13506335469275 -0.61566146476048833 0 0.78801076186113728 I I #
point $-1 56.456097140678096 -15.120496854150502 11.415260371055709 #
point $-1 62.345652638325149 -2.8006030541877109 3.8769728861798853 #
straight-curve $-1 62.345652638325149 0 11.415260371055709 0 1 0 I I #
vertex $-1 $280 $365 #
point $-1 58.269055343253612 -8.9605499541691067 4.223805906213169 #
straight-curve $-1 -62.345652638325149 26.170637507670623 0 0 0 -1 I I #
straight-curve $-1 -62.345652638325149 0 -11.415260371055709 0 1 0 I I #
point $-1 -62.345652638325149 -26.170637507670623 -11.415260371055709 #
point $-1 -62.345652638325149 26.170637507670623 -11.415260371055709 #
straight-curve $-1 -62.345652638325149 -26.170637507670623 0 0 0 -1 I I #
edge $-1 $315 -1.5 $309 1.5 $308 $366 forward 7 unknown #
coedge $-1 $313 $304 $303 $349 reversed $220 $-1 #
edge $-1 $317 -1.5 $306 1.5 $303 $367 forward 7 unknown #
straight-curve $-1 0 -37.220778161190744 -11.415260371055709 -1 0 0 I I #
point $-1 62.345652638325149 -37.220778161190744 -11.415260371055709 #
point $-1 -62.345652638325149 -37.220778161190744 -11.415260371055709 #
straight-curve $-1 0 -37.220778161190744 -8.4152603710557088 1 0 0 I I #
point $-1 -62.345652638325149 -37.220778161190744 -8.4152603710557088 #
point $-1 62.345652638325149 -37.220778161190744 -8.4152603710557088 #
straight-curve $-1 -62.345652638325149 18.041540112235943 33.32254736675597 0 0 -1 I I #
point $-1 -62.345652638325149 18.041540112235943 11.415260371055709 #
straight-curve $-1 -62.345652638325149 6.2423078406694668 4.299443765735151 0 -1 0 I I #
point $-1 -62.345652638325149 18.041540112235943 4.2994437657351483 #
point $-1 -56.210202949336264 12.484615681338934 5.5010180148915291 #
straight-curve $-1 62.345652638325149 -15.120496854150502 89.451347502106245 0 0 -1 I I #
point $-1 62.345652638325149 -15.120496854150502 11.415260371055709 #
straight-curve $-1 62.345652638325149 -4.4802749770845534 3.8769728861798782 0 1 0 I I #
point $-1 62.345652638325149 -15.120496854150502 3.8769728861798853 #
point $-1 55.461710890010359 -8.9605499541691067 4.5685045004144671 #
straight-curve $-1 -62.345652638325149 -37.220778161190744 -9.9152603710557088 0 0 -1 I I #
straight-curve $-1 62.345652638325149 -37.220778161190744 -9.9152603710557088 0 0 -1 I I #
End-of-ACIS-data 