500 0 11 0           
7 Unknown 11 ACIS 5.0 NT 24 Thu Mar 25 19:12:24 1999 
-1 9.9999999999999995e-007 1e-010 
body $-1 $11 $-1 $12 #
body $-1 $13 $-1 $14 #
body $-1 $15 $-1 $16 #
body $-1 $17 $-1 $18 #
body $-1 $19 $-1 $20 #
body $-1 $21 $-1 $22 #
body $-1 $23 $-1 $24 #
body $-1 $25 $-1 $26 #
body $-1 $27 $-1 $28 #
body $-1 $29 $-1 $30 #
body $-1 $31 $-1 $32 #
lump $-1 $-1 $33 $0 #
transform $-1 1 0 0 0 1 0 0 0 1 76.192510757774585 37.965574538267553 8.3814622362413349 1 rotate no_reflect no_shear #
lump $-1 $-1 $34 $1 #
transform $-1 1 0 0 0 1 0 0 0 1 76.192510757774585 37.965574538267553 8.3814622362413349 1 rotate no_reflect no_shear #
lump $-1 $-1 $35 $2 #
transform $-1 1 0 0 0 1 0 0 0 1 76.192510757774585 37.965574538267553 8.3814622362413349 1 rotate no_reflect no_shear #
lump $-1 $-1 $36 $3 #
transform $-1 1 0 0 0 1 0 0 0 1 76.192510757774585 37.965574538267553 8.3814622362413349 1 rotate no_reflect no_shear #
lump $-1 $-1 $37 $4 #
transform $-1 1 0 0 0 1 0 0 0 1 76.192510757774585 37.965574538267553 8.3814622362413349 1 rotate no_reflect no_shear #
lump $-1 $-1 $38 $5 #
transform $-1 1 0 0 0 1 0 0 0 1 76.192510757774585 37.965574538267553 8.3814622362413349 1 rotate no_reflect no_shear #
lump $-1 $-1 $39 $6 #
transform $-1 1 0 0 0 1 0 0 0 1 76.192510757774585 37.965574538267553 8.3814622362413349 1 rotate no_reflect no_shear #
lump $-1 $-1 $40 $7 #
transform $-1 1 0 0 0 1 0 0 0 1 76.192510757774585 37.965574538267553 8.3814622362413349 1 rotate no_reflect no_shear #
lump $-1 $-1 $41 $8 #
transform $-1 1 0 0 0 1 0 0 0 1 76.192510757774585 37.965574538267553 8.3814622362413349 1 rotate no_reflect no_shear #
lump $-1 $-1 $42 $9 #
transform $-1 1 0 0 0 1 0 0 0 1 76.192510757774585 37.965574538267553 8.3814622362413349 1 rotate no_reflect no_shear #
lump $-1 $-1 $43 $10 #
transform $-1 1 0 0 0 1 0 0 0 1 76.192510757774585 37.965574538267553 8.3814622362413349 1 rotate no_reflect no_shear #
shell $-1 $-1 $-1 $44 $-1 $11 #
shell $-1 $-1 $-1 $45 $-1 $13 #
shell $-1 $-1 $-1 $46 $-1 $15 #
shell $-1 $-1 $-1 $47 $-1 $17 #
shell $-1 $-1 $-1 $48 $-1 $19 #
shell $-1 $-1 $-1 $49 $-1 $21 #
shell $-1 $-1 $-1 $50 $-1 $23 #
shell $-1 $-1 $-1 $51 $-1 $25 #
shell $-1 $-1 $-1 $52 $-1 $27 #
shell $-1 $-1 $-1 $53 $-1 $29 #
shell $-1 $-1 $-1 $54 $-1 $31 #
face $-1 $55 $56 $33 $-1 $57 forward single #
face $-1 $58 $59 $34 $-1 $60 reversed single #
face $-1 $61 $62 $35 $-1 $63 forward single #
face $-1 $64 $65 $36 $-1 $66 reversed single #
face $-1 $67 $68 $37 $-1 $69 forward single #
face $-1 $70 $71 $38 $-1 $72 reversed single #
face $-1 $73 $74 $39 $-1 $75 forward single #
face $-1 $76 $77 $40 $-1 $78 reversed single #
face $-1 $79 $80 $41 $-1 $81 forward single #
face $-1 $82 $83 $42 $-1 $84 reversed single #
face $-1 $85 $86 $43 $-1 $87 forward single #
face $-1 $88 $89 $33 $-1 $90 reversed single #
loop $-1 $-1 $91 $44 #
plane-surface $-1 0 0 8.3814622362413349 0 0 1 1 0 0 forward_v I I I I #
face $-1 $92 $93 $34 $-1 $94 reversed single #
loop $-1 $-1 $95 $45 #
plane-surface $-1 -40.024611626679956 124.41134147409676 147.23362484950704 -1 0 0 0 0.83867057594974714 0.54463902268945019 forward_v I I I I #
face $-1 $96 $97 $35 $-1 $98 forward single #
loop $-1 $99 $100 $46 #
cone-surface $-1 -58.10856119222727 34.635696531497011 3.9568554080908682 0 -0.83867057594974714 -0.54463902268945019 0.5 0 0 1 I I 0 1 0.5 forward I I I I #
face $-1 $101 $102 $36 $-1 $103 reversed single #
loop $-1 $-1 $104 $47 #
plane-surface $-1 -50.86937743672199 -127.53524399968785 125.22118453609281 -1 0 0 0 -0.5877852598018023 0.80901698891910034 forward_v I I I I #
face $-1 $105 $106 $37 $-1 $107 forward single #
loop $-1 $108 $109 $48 #
cone-surface $-1 -63.530944097248288 -31.700527233524504 2.639470368410493 0 0.5877852598018023 -0.80901698891910034 2.5 0 0 1 I I 0 1 2.5 forward I I I I #
face $-1 $110 $111 $38 $-1 $112 reversed single #
loop $-1 $-1 $113 $49 #
plane-surface $-1 -8.5154147052231277 -127.53524399968785 125.22118453609281 -1 0 0 0 -0.5877852598018023 0.80901698891910034 forward_v I I I I #
face $-1 $114 $115 $39 $-1 $116 forward single #
loop $-1 $117 $118 $50 #
cone-surface $-1 -21.176981365749427 -31.700527233524504 2.639470368410493 0 0.5877852598018023 -0.80901698891910034 2.5 0 0 1 I I 0 1 2.5 forward I I I I #
face $-1 $119 $120 $40 $-1 $121 reversed single #
loop $-1 $-1 $122 $51 #
plane-surface $-1 33.838548026275738 -127.53524399968785 125.22118453609281 -1 0 0 0 -0.5877852598018023 0.80901698891910034 forward_v I I I I #
face $-1 $123 $124 $41 $-1 $125 forward single #
loop $-1 $126 $127 $52 #
cone-surface $-1 21.176981365749441 -31.700527233524504 2.639470368410493 0 0.5877852598018023 -0.80901698891910034 2.5 0 0 1 I I 0 1 2.5 forward I I I I #
face $-1 $128 $129 $42 $-1 $130 reversed single #
loop $-1 $-1 $131 $53 #
plane-surface $-1 63.530944097248295 -37.965574538267546 1.9391132732108929 0 -0.5877852598018023 0.80901698891910034 1 0 0 forward_v I I I I #
face $-1 $132 $133 $43 $-1 $134 forward single #
loop $-1 $135 $136 $54 #
cone-surface $-1 63.530944097248295 -31.700527233524504 2.639470368410493 0 0.5877852598018023 -0.80901698891910034 2.5 0 0 1 I I 0 1 2.5 forward I I I I #
face $-1 $137 $138 $33 $-1 $139 reversed single #
loop $-1 $-1 $140 $55 #
plane-surface $-1 0 0 -8.3814622362413349 0 0 1 1 0 0 forward_v I I I I #
coedge $-1 $141 $142 $143 $144 forward $56 $-1 #
face $-1 $145 $146 $34 $-1 $147 reversed single #
loop $-1 $-1 $148 $58 #
plane-surface $-1 -58.10856119222727 -3.3894922864634793 64.238795658767501 0 0.83867057594974714 0.54463902268945019 1 0 0 forward_v I I I I #
coedge $-1 $149 $150 $151 $152 reversed $59 $-1 #
face $-1 $-1 $153 $35 $-1 $154 forward single #
loop $-1 $155 $156 $61 #
cone-surface $-1 -58.10856119222727 33.636596646484698 3.3080323772768576 0 -0.83867057594974714 -0.54463902268945019 0.25 0 0 1 I I -0.70710678118654746 0.70710678118654746 0.25 forward I I I I #
loop $-1 $-1 $157 $46 #
coedge $-1 $100 $100 $158 $159 reversed $62 $-1 #
face $-1 $160 $161 $36 $-1 $162 reversed single #
loop $-1 $-1 $163 $64 #
plane-surface $-1 -63.530944097248288 -37.965574538267546 1.9391132732108929 0 -0.5877852598018023 0.80901698891910034 1 0 0 forward_v I I I I #
coedge $-1 $164 $165 $166 $167 reversed $65 $-1 #
face $-1 $-1 $168 $37 $-1 $169 forward single #
loop $-1 $170 $171 $67 #
cone-surface $-1 -63.530944097248288 -29.134314586529165 -0.89261825405400508 0 0.5877852598018023 -0.80901698891910034 1.25 0 0 1 I I -0.70710678118654746 0.70710678118654746 1.25 forward I I I I #
loop $-1 $-1 $172 $48 #
coedge $-1 $109 $109 $173 $174 reversed $68 $-1 #
face $-1 $175 $176 $38 $-1 $177 reversed single #
loop $-1 $-1 $178 $70 #
plane-surface $-1 -21.176981365749427 -37.965574538267546 1.9391132732108929 0 -0.5877852598018023 0.80901698891910034 1 0 0 forward_v I I I I #
coedge $-1 $179 $180 $181 $182 reversed $71 $-1 #
face $-1 $-1 $183 $39 $-1 $184 forward single #
loop $-1 $185 $186 $73 #
cone-surface $-1 -21.176981365749427 -29.134314586529165 -0.89261825405400508 0 0.5877852598018023 -0.80901698891910034 1.25 0 0 1 I I -0.70710678118654746 0.70710678118654746 1.25 forward I I I I #
loop $-1 $-1 $187 $50 #
coedge $-1 $118 $118 $188 $189 reversed $74 $-1 #
face $-1 $190 $191 $40 $-1 $192 reversed single #
loop $-1 $-1 $193 $76 #
plane-surface $-1 21.176981365749441 -37.965574538267546 1.9391132732108929 0 -0.5877852598018023 0.80901698891910034 1 0 0 forward_v I I I I #
coedge $-1 $194 $195 $196 $197 reversed $77 $-1 #
face $-1 $-1 $198 $41 $-1 $199 forward single #
loop $-1 $200 $201 $79 #
cone-surface $-1 21.176981365749441 -29.134314586529165 -0.89261825405400508 0 0.5877852598018023 -0.80901698891910034 1.25 0 0 1 I I -0.70710678118654746 0.70710678118654746 1.25 forward I I I I #
loop $-1 $-1 $202 $52 #
coedge $-1 $127 $127 $203 $204 reversed $80 $-1 #
face $-1 $205 $206 $42 $-1 $207 reversed single #
loop $-1 $-1 $208 $82 #
plane-surface $-1 50.869377436721997 -127.53524399968785 125.22118453609281 1 0 0 0 0.5877852598018023 -0.80901698891910034 forward_v I I I I #
coedge $-1 $209 $210 $211 $212 reversed $83 $-1 #
face $-1 $-1 $213 $43 $-1 $214 forward single #
loop $-1 $215 $216 $85 #
cone-surface $-1 63.530944097248295 -29.134314586529165 -0.89261825405400508 0 0.5877852598018023 -0.80901698891910034 1.25 0 0 1 I I -0.70710678118654746 0.70710678118654746 1.25 forward I I I I #
loop $-1 $-1 $217 $54 #
coedge $-1 $136 $136 $218 $219 reversed $86 $-1 #
face $-1 $220 $221 $33 $-1 $222 reversed single #
loop $-1 $-1 $223 $88 #
plane-surface $-1 0 -37.965574538267553 0 0 1 0 0 0 1 forward_v I I I I #
coedge $-1 $224 $225 $226 $227 forward $89 $-1 #
coedge $-1 $228 $91 $229 $230 forward $56 $-1 #
coedge $-1 $91 $228 $231 $232 forward $56 $-1 #
coedge $-1 $233 $234 $91 $144 reversed $235 $-1 #
edge $-1 $236 -37.965574538267553 $237 37.965574538267553 $143 $238 forward 7 unknown #
face $-1 $239 $240 $34 $-1 $241 forward single #
loop $-1 $-1 $151 $92 #
plane-surface $-1 0 37.965574538267553 0 0 -1 0 0 0 -1 forward_v I I I I #
coedge $-1 $242 $243 $244 $245 reversed $93 $-1 #
coedge $-1 $150 $95 $246 $247 reversed $59 $-1 #
coedge $-1 $95 $149 $242 $248 reversed $59 $-1 #
coedge $-1 $244 $249 $95 $152 forward $146 $-1 #
edge $-1 $250 65.235350188512186 $251 73.059237294529822 $151 $252 forward 7 unknown #
loop $-1 $-1 $158 $96 #
plane-surface $-1 -58.10856119222727 -3.3894922864634793 64.238795658767501 0 0.83867057594974714 0.54463902268945019 1 0 0 forward_v I I I I #
loop $-1 $-1 $253 $61 #
coedge $-1 $156 $156 $157 $254 reversed $97 $-1 #
coedge $-1 $157 $157 $156 $254 forward $99 $-1 #
coedge $-1 $158 $158 $100 $159 forward $153 $-1 #
edge $-1 $255 -8.9386692815524837e-015 $255 6.2831853071795916 $158 $256 forward 7 unknown #
face $-1 $257 $258 $36 $-1 $259 forward single #
loop $-1 $-1 $260 $101 #
plane-surface $-1 -76.192510757774585 0 0 1 0 0 0 0 -1 forward_v I I I I #
coedge $-1 $261 $262 $263 $264 reversed $102 $-1 #
coedge $-1 $165 $104 $265 $266 reversed $65 $-1 #
coedge $-1 $104 $164 $261 $267 reversed $65 $-1 #
coedge $-1 $263 $268 $104 $167 forward $258 $-1 #
edge $-1 $269 25.802047461576372 $270 34.669179926576305 $166 $271 forward 7 unknown #
loop $-1 $-1 $173 $105 #
plane-surface $-1 -63.530944097248288 -37.965574538267546 1.9391132732108929 0 -0.5877852598018023 0.80901698891910034 1 0 0 forward_v I I I I #
loop $-1 $-1 $272 $67 #
coedge $-1 $171 $171 $172 $273 reversed $106 $-1 #
coedge $-1 $172 $172 $171 $273 forward $108 $-1 #
coedge $-1 $173 $173 $109 $174 forward $168 $-1 #
edge $-1 $274 1.4617629128866183e-015 $274 6.2831853071796022 $173 $275 forward 7 unknown #
face $-1 $276 $277 $38 $-1 $278 reversed single #
loop $-1 $-1 $279 $110 #
plane-surface $-1 -33.838548026275724 -127.53524399968785 125.22118453609281 1 0 0 0 0.5877852598018023 -0.80901698891910034 forward_v I I I I #
coedge $-1 $280 $281 $282 $283 reversed $111 $-1 #
coedge $-1 $180 $113 $284 $285 reversed $71 $-1 #
coedge $-1 $113 $179 $280 $286 reversed $71 $-1 #
coedge $-1 $282 $287 $113 $182 forward $288 $-1 #
edge $-1 $289 25.802047461576372 $290 34.669179926576305 $181 $291 forward 7 unknown #
loop $-1 $-1 $188 $114 #
plane-surface $-1 -21.176981365749427 -37.965574538267546 1.9391132732108929 0 -0.5877852598018023 0.80901698891910034 1 0 0 forward_v I I I I #
loop $-1 $-1 $292 $73 #
coedge $-1 $186 $186 $187 $293 reversed $115 $-1 #
coedge $-1 $187 $187 $186 $293 forward $117 $-1 #
coedge $-1 $188 $188 $118 $189 forward $183 $-1 #
edge $-1 $294 1.4617629128866183e-015 $294 6.2831853071796022 $188 $295 forward 7 unknown #
face $-1 $296 $297 $40 $-1 $298 reversed single #
loop $-1 $-1 $299 $119 #
plane-surface $-1 8.5154147052231419 -127.53524399968785 125.22118453609281 1 0 0 0 0.5877852598018023 -0.80901698891910034 forward_v I I I I #
coedge $-1 $300 $301 $302 $303 reversed $120 $-1 #
coedge $-1 $195 $122 $304 $305 reversed $77 $-1 #
coedge $-1 $122 $194 $300 $306 reversed $77 $-1 #
coedge $-1 $302 $307 $122 $197 forward $308 $-1 #
edge $-1 $309 25.802047461576372 $310 34.669179926576305 $196 $311 forward 7 unknown #
loop $-1 $-1 $203 $123 #
plane-surface $-1 21.176981365749441 -37.965574538267546 1.9391132732108929 0 -0.5877852598018023 0.80901698891910034 1 0 0 forward_v I I I I #
loop $-1 $-1 $312 $79 #
coedge $-1 $201 $201 $202 $313 reversed $124 $-1 #
coedge $-1 $202 $202 $201 $313 forward $126 $-1 #
coedge $-1 $203 $203 $127 $204 forward $198 $-1 #
edge $-1 $314 1.4617629128866183e-015 $314 6.2831853071796022 $203 $315 forward 7 unknown #
face $-1 $316 $317 $42 $-1 $318 reversed single #
loop $-1 $-1 $319 $128 #
plane-surface $-1 0 -37.965574538267553 0 0 1 0 0 0 1 forward_v I I I I #
coedge $-1 $320 $321 $322 $323 reversed $129 $-1 #
coedge $-1 $324 $131 $325 $326 reversed $83 $-1 #
coedge $-1 $131 $324 $320 $327 forward $83 $-1 #
coedge $-1 $322 $328 $131 $212 forward $329 $-1 #
edge $-1 $330 -44.427038709150452 $331 -19.10390538809785 $211 $332 forward 7 unknown #
loop $-1 $-1 $218 $132 #
plane-surface $-1 63.530944097248295 -37.965574538267546 1.9391132732108929 0 -0.5877852598018023 0.80901698891910034 1 0 0 forward_v I I I I #
loop $-1 $-1 $333 $85 #
coedge $-1 $216 $216 $217 $334 reversed $133 $-1 #
coedge $-1 $217 $217 $216 $334 forward $135 $-1 #
coedge $-1 $218 $218 $136 $219 forward $213 $-1 #
edge $-1 $335 1.4617629128866183e-015 $335 6.2831853071796022 $218 $336 forward 7 unknown #
face $-1 $337 $338 $33 $-1 $339 reversed single #
loop $-1 $-1 $340 $137 #
plane-surface $-1 -76.192510757774585 0 0 1 0 0 0 0 -1 forward_v I I I I #
coedge $-1 $341 $231 $342 $343 forward $138 $-1 #
coedge $-1 $344 $140 $341 $345 forward $89 $-1 #
coedge $-1 $140 $344 $346 $347 forward $89 $-1 #
coedge $-1 $234 $233 $140 $227 reversed $235 $-1 #
edge $-1 $348 -37.965574538267553 $349 37.965574538267553 $226 $350 forward 7 unknown #
coedge $-1 $142 $141 $351 $352 forward $56 $-1 #
coedge $-1 $353 $354 $141 $230 reversed $338 $-1 #
edge $-1 $237 -76.192510757774585 $355 76.192510757774585 $229 $356 forward 7 unknown #
coedge $-1 $223 $357 $142 $232 reversed $138 $-1 #
edge $-1 $358 -76.192510757774585 $236 76.192510757774585 $231 $359 forward 7 unknown #
coedge $-1 $226 $143 $357 $360 forward $235 $-1 #
coedge $-1 $143 $226 $353 $361 reversed $235 $-1 #
loop $-1 $-1 $233 $337 #
vertex $-1 $144 $362 #
vertex $-1 $144 $363 #
straight-curve $-1 76.192510757774585 0 8.3814622362413349 0 1 0 I I #
face $-1 $-1 $364 $34 $-1 $365 reversed single #
loop $-1 $-1 $246 $145 #
plane-surface $-1 0 0 8.3814622362413349 0 0 1 1 0 0 forward_v I I I I #
coedge $-1 $366 $148 $150 $248 forward $93 $-1 #
coedge $-1 $148 $366 $367 $368 reversed $93 $-1 #
coedge $-1 $369 $151 $148 $245 forward $146 $-1 #
edge $-1 $251 10.970331030566321 $370 47.13823016166095 $244 $371 forward 7 unknown #
coedge $-1 $372 $373 $149 $247 forward $240 $-1 #
edge $-1 $374 -29.320987730272172 $250 -24.240096198780826 $246 $375 forward 7 unknown #
edge $-1 $251 -75.931149076535107 $374 -66.602233373062944 $150 $376 forward 7 unknown #
coedge $-1 $151 $369 $372 $377 reversed $146 $-1 #
vertex $-1 $377 $378 #
vertex $-1 $152 $379 #
straight-curve $-1 -40.024611626679956 37.965574538267553 73.616812424753519 0 0 -1 I I #
coedge $-1 $253 $253 $-1 $380 reversed $155 $-1 #
edge $-1 $381 0 $381 6.2831853071796004 $156 $382 forward 7 unknown #
vertex $-1 $159 $383 #
ellipse-curve $-1 -58.10856119222727 35.42512877252188 4.4695186832325113 0 0.83867057594974714 0.54463902268945019 0.5 0 0 1 I I #
face $-1 $-1 $384 $36 $-1 $385 reversed single #
loop $-1 $-1 $263 $160 #
plane-surface $-1 0 0 8.3814622362413349 0 0 1 1 0 0 forward_v I I I I #
coedge $-1 $386 $387 $262 $388 forward $161 $-1 #
coedge $-1 $389 $163 $165 $267 forward $102 $-1 #
coedge $-1 $163 $389 $260 $388 reversed $102 $-1 #
coedge $-1 $390 $166 $163 $264 forward $258 $-1 #
edge $-1 $270 19.103905388097846 $391 44.427038709150438 $263 $392 forward 7 unknown #
coedge $-1 $393 $394 $164 $266 forward $384 $-1 #
edge $-1 $395 -60.671478994835518 $269 -54.22913003180507 $265 $396 forward 7 unknown #
edge $-1 $270 -10.96037856614976 $395 8.7502459990790685e-015 $165 $397 forward 7 unknown #
coedge $-1 $166 $390 $393 $398 forward $258 $-1 #
vertex $-1 $266 $399 #
vertex $-1 $167 $400 #
straight-curve $-1 -50.86937743672199 -63.767621999843925 8.3814622362413331 0 1 0 I I #
coedge $-1 $272 $272 $-1 $401 reversed $170 $-1 #
edge $-1 $402 0 $402 6.2831853071796004 $171 $403 forward 7 unknown #
vertex $-1 $174 $404 #
ellipse-curve $-1 -63.530944097248288 -33.53200830576759 5.1602877547261095 0 -0.5877852598018023 0.80901698891910034 2.5 0 0 1 I I #
face $-1 $-1 $288 $38 $-1 $405 forward single #
loop $-1 $-1 $406 $175 #
plane-surface $-1 0 -37.965574538267553 0 0 1 0 0 0 1 forward_v I I I I #
coedge $-1 $407 $408 $409 $410 reversed $176 $-1 #
coedge $-1 $411 $178 $180 $286 forward $111 $-1 #
coedge $-1 $178 $411 $407 $412 forward $111 $-1 #
coedge $-1 $409 $181 $178 $283 forward $288 $-1 #
edge $-1 $290 -2.0730759776515857 $413 23.250057343401011 $282 $414 forward 7 unknown #
coedge $-1 $415 $416 $179 $285 forward $277 $-1 #
edge $-1 $417 -60.671478994835518 $289 -54.22913003180507 $284 $418 forward 7 unknown #
edge $-1 $290 -10.96037856614976 $417 8.7502459990790685e-015 $180 $419 forward 7 unknown #
coedge $-1 $181 $409 $415 $420 forward $288 $-1 #
loop $-1 $-1 $409 $276 #
vertex $-1 $285 $421 #
vertex $-1 $182 $422 #
straight-curve $-1 -8.5154147052231277 -63.767621999843925 8.3814622362413331 0 1 0 I I #
coedge $-1 $292 $292 $-1 $423 reversed $185 $-1 #
edge $-1 $424 0 $424 6.2831853071796004 $186 $425 forward 7 unknown #
vertex $-1 $189 $426 #
ellipse-curve $-1 -21.176981365749427 -33.53200830576759 5.1602877547261095 0 -0.5877852598018023 0.80901698891910034 2.5 0 0 1 I I #
face $-1 $-1 $308 $40 $-1 $427 forward single #
loop $-1 $-1 $428 $190 #
plane-surface $-1 0 -37.965574538267553 0 0 1 0 0 0 1 forward_v I I I I #
coedge $-1 $429 $430 $431 $432 reversed $191 $-1 #
coedge $-1 $433 $193 $195 $306 forward $120 $-1 #
coedge $-1 $193 $433 $429 $434 forward $120 $-1 #
coedge $-1 $431 $196 $193 $303 forward $308 $-1 #
edge $-1 $310 -23.250057343401018 $435 2.0730759776515786 $302 $436 forward 7 unknown #
coedge $-1 $437 $438 $194 $305 forward $297 $-1 #
edge $-1 $439 -60.671478994835518 $309 -54.22913003180507 $304 $440 forward 7 unknown #
edge $-1 $310 -10.96037856614976 $439 8.7502459990790685e-015 $195 $441 forward 7 unknown #
coedge $-1 $196 $431 $437 $442 forward $308 $-1 #
loop $-1 $-1 $431 $296 #
vertex $-1 $305 $443 #
vertex $-1 $197 $444 #
straight-curve $-1 33.838548026275738 -63.767621999843925 8.3814622362413331 0 1 0 I I #
coedge $-1 $312 $312 $-1 $445 reversed $200 $-1 #
edge $-1 $446 0 $446 6.2831853071796004 $201 $447 forward 7 unknown #
vertex $-1 $204 $448 #
ellipse-curve $-1 21.176981365749441 -33.53200830576759 5.1602877547261095 0 -0.5877852598018023 0.80901698891910034 2.5 0 0 1 I I #
face $-1 $-1 $329 $42 $-1 $449 forward single #
loop $-1 $-1 $325 $205 #
plane-surface $-1 76.192510757774585 0 0 -1 0 0 0 0 1 forward_v I I I I #
coedge $-1 $450 $451 $321 $452 forward $206 $-1 #
coedge $-1 $321 $208 $210 $327 reversed $129 $-1 #
coedge $-1 $208 $320 $319 $452 reversed $129 $-1 #
coedge $-1 $453 $211 $208 $323 forward $329 $-1 #
edge $-1 $331 -34.669179926576305 $454 -25.802047461576372 $322 $455 forward 7 unknown #
coedge $-1 $210 $209 $450 $456 reversed $83 $-1 #
coedge $-1 $457 $458 $209 $326 forward $317 $-1 #
edge $-1 $459 -14.787506298226749 $330 -3.8271277320769812 $325 $460 forward 7 unknown #
edge $-1 $461 -8.7502459990790685e-015 $331 10.96037856614976 $320 $462 forward 7 unknown #
coedge $-1 $211 $453 $457 $463 forward $329 $-1 #
loop $-1 $-1 $322 $316 #
vertex $-1 $326 $464 #
vertex $-1 $212 $465 #
straight-curve $-1 31.765472048624147 -29.09844207326762 8.3814622362413349 -1 0 0 I I #
coedge $-1 $333 $333 $-1 $466 reversed $215 $-1 #
edge $-1 $467 0 $467 6.2831853071796004 $216 $468 forward 7 unknown #
vertex $-1 $219 $469 #
ellipse-curve $-1 63.530944097248295 -33.53200830576759 5.1602877547261095 0 -0.5877852598018023 0.80901698891910034 2.5 0 0 1 I I #
face $-1 $-1 $235 $33 $-1 $470 reversed single #
loop $-1 $-1 $353 $220 #
plane-surface $-1 0 37.965574538267553 0 0 -1 0 0 0 -1 forward_v I I I I #
coedge $-1 $471 $351 $354 $472 forward $221 $-1 #
coedge $-1 $357 $223 $224 $345 reversed $138 $-1 #
coedge $-1 $351 $471 $223 $343 reversed $221 $-1 #
edge $-1 $358 -8.3814622362413349 $473 8.3814622362413349 $342 $474 forward 7 unknown #
coedge $-1 $225 $224 $471 $475 forward $89 $-1 #
edge $-1 $349 -76.192510757774585 $473 76.192510757774585 $341 $476 forward 7 unknown #
coedge $-1 $354 $353 $225 $347 reversed $338 $-1 #
edge $-1 $477 -76.192510757774585 $348 76.192510757774585 $346 $478 forward 7 unknown #
vertex $-1 $227 $479 #
vertex $-1 $360 $480 #
straight-curve $-1 76.192510757774585 0 -8.3814622362413349 0 -1 0 I I #
coedge $-1 $340 $342 $228 $352 reversed $221 $-1 #
edge $-1 $355 -37.965574538267553 $358 37.965574538267553 $351 $481 forward 7 unknown #
coedge $-1 $346 $229 $234 $361 forward $338 $-1 #
coedge $-1 $229 $346 $340 $472 reversed $338 $-1 #
vertex $-1 $230 $482 #
straight-curve $-1 0 37.965574538267553 8.3814622362413349 -1 0 0 I I #
coedge $-1 $231 $341 $233 $360 reversed $138 $-1 #
vertex $-1 $352 $483 #
straight-curve $-1 0 -37.965574538267553 8.3814622362413349 1 0 0 I I #
edge $-1 $236 -8.3814622362413349 $349 8.3814622362413349 $233 $484 forward 7 unknown #
edge $-1 $237 -8.3814622362413349 $348 8.3814622362413349 $234 $485 forward 7 unknown #
point $-1 76.192510757774585 -37.965574538267553 8.3814622362413349 #
point $-1 76.192510757774585 37.965574538267553 8.3814622362413349 #
loop $-1 $-1 $367 $239 #
plane-surface $-1 -76.192510757774585 0 0 1 0 0 0 0 -1 forward_v I I I I #
coedge $-1 $243 $242 $373 $486 reversed $93 $-1 #
coedge $-1 $487 $488 $243 $368 forward $364 $-1 #
edge $-1 $370 -48.070530316650348 $489 -38.741614613178172 $367 $490 forward 7 unknown #
coedge $-1 $249 $244 $488 $491 reversed $146 $-1 #
vertex $-1 $245 $492 #
straight-curve $-1 -29.054280596113635 37.965574538267553 0.55757513022368244 -1 0 0 I I #
coedge $-1 $493 $246 $249 $377 forward $240 $-1 #
coedge $-1 $246 $493 $366 $486 forward $240 $-1 #
vertex $-1 $247 $494 #
straight-curve $-1 -40.024611626679956 62.205670737048379 8.3814622362413331 0 1 0 I I #
straight-curve $-1 -40.024611626679956 -3.3894922864634793 64.238795658767501 0 -0.54463902268945019 0.83867057594974714 I I #
edge $-1 $250 40.024611626679956 $495 76.192510757774585 $249 $496 forward 7 unknown #
point $-1 -40.024611626679956 37.965574538267553 8.3814622362413349 #
point $-1 -40.024611626679956 37.965574538267546 0.55757513022368954 #
edge $-1 $497 1 $497 0 $253 $-1 forward 7 unknown #
vertex $-1 $254 $498 #
ellipse-curve $-1 -58.10856119222727 33.846264290472135 3.4441921329492202 0 0.83867057594974714 0.54463902268945019 0.5 0 0 1 I I #
point $-1 -57.60856119222727 35.42512877252188 4.4695186832325167 #
loop $-1 $-1 $265 $257 #
plane-surface $-1 0 -37.965574538267553 0 0 1 0 0 0 1 forward_v I I I I #
coedge $-1 $387 $260 $499 $500 reversed $161 $-1 #
coedge $-1 $260 $386 $390 $501 reversed $161 $-1 #
edge $-1 $391 3.8271277320769812 $502 14.787506298226749 $260 $503 forward 7 unknown #
coedge $-1 $262 $261 $394 $504 reversed $102 $-1 #
coedge $-1 $268 $263 $387 $501 forward $258 $-1 #
vertex $-1 $501 $505 #
straight-curve $-1 -31.765472048624144 -29.09844207326762 8.3814622362413349 -1 0 0 I I #
coedge $-1 $499 $265 $268 $398 reversed $384 $-1 #
coedge $-1 $265 $499 $389 $504 forward $384 $-1 #
vertex $-1 $266 $506 #
straight-curve $-1 -50.86937743672199 -37.965574538267553 62.610592268046403 0 0 1 I I #
straight-curve $-1 -50.86937743672199 -37.965574538267546 1.9391132732108929 0 -0.80901698891910034 -0.5877852598018023 I I #
edge $-1 $507 -76.192510757774585 $269 -50.86937743672199 $393 $508 forward 7 unknown #
point $-1 -50.86937743672199 -37.965574538267553 8.3814622362413349 #
point $-1 -50.86937743672199 -29.09844207326762 8.3814622362413349 #
edge $-1 $509 1 $509 0 $272 $-1 forward 7 unknown #
vertex $-1 $273 $510 #
ellipse-curve $-1 -63.530944097248288 -29.869046161281418 0.1186529820948703 0 -0.5877852598018023 0.80901698891910034 2.5 0 0 1 I I #
point $-1 -61.030944097248288 -33.53200830576759 5.1602877547261157 #
plane-surface $-1 0 0 8.3814622362413349 0 0 1 1 0 0 forward_v I I I I #
coedge $-1 $416 $415 $408 $511 forward $277 $-1 #
coedge $-1 $408 $279 $281 $412 reversed $176 $-1 #
coedge $-1 $279 $407 $406 $511 reversed $176 $-1 #
coedge $-1 $287 $282 $279 $410 forward $288 $-1 #
edge $-1 $413 -34.669179926576305 $512 -25.802047461576372 $409 $513 forward 7 unknown #
coedge $-1 $281 $280 $416 $514 reversed $111 $-1 #
edge $-1 $515 -8.7502459990790685e-015 $413 10.96037856614976 $407 $516 forward 7 unknown #
vertex $-1 $283 $517 #
straight-curve $-1 -10.588490682874713 -29.09844207326762 8.3814622362413349 -1 0 0 I I #
coedge $-1 $406 $284 $287 $420 reversed $277 $-1 #
coedge $-1 $284 $406 $411 $514 forward $277 $-1 #
vertex $-1 $285 $518 #
straight-curve $-1 -8.5154147052231277 -37.965574538267553 62.610592268046403 0 0 1 I I #
straight-curve $-1 -8.5154147052231277 -37.965574538267546 1.9391132732108929 0 -0.80901698891910034 -0.5877852598018023 I I #
edge $-1 $512 -33.838548026275724 $289 -8.5154147052231277 $415 $519 forward 7 unknown #
point $-1 -8.5154147052231277 -37.965574538267553 8.3814622362413349 #
point $-1 -8.5154147052231277 -29.09844207326762 8.3814622362413349 #
edge $-1 $520 1 $520 0 $292 $-1 forward 7 unknown #
vertex $-1 $293 $521 #
ellipse-curve $-1 -21.176981365749427 -29.869046161281418 0.1186529820948703 0 -0.5877852598018023 0.80901698891910034 2.5 0 0 1 I I #
point $-1 -18.676981365749427 -33.53200830576759 5.1602877547261157 #
plane-surface $-1 0 0 8.3814622362413349 0 0 1 1 0 0 forward_v I I I I #
coedge $-1 $438 $437 $430 $522 forward $297 $-1 #
coedge $-1 $430 $299 $301 $434 reversed $191 $-1 #
coedge $-1 $299 $429 $428 $522 reversed $191 $-1 #
coedge $-1 $307 $302 $299 $432 forward $308 $-1 #
edge $-1 $435 -34.669179926576305 $523 -25.802047461576372 $431 $524 forward 7 unknown #
coedge $-1 $301 $300 $438 $525 reversed $120 $-1 #
edge $-1 $526 -8.7502459990790685e-015 $435 10.96037856614976 $429 $527 forward 7 unknown #
vertex $-1 $303 $528 #
straight-curve $-1 10.588490682874721 -29.09844207326762 8.3814622362413349 -1 0 0 I I #
coedge $-1 $428 $304 $307 $442 reversed $297 $-1 #
coedge $-1 $304 $428 $433 $525 forward $297 $-1 #
vertex $-1 $305 $529 #
straight-curve $-1 33.838548026275738 -37.965574538267553 62.610592268046403 0 0 1 I I #
straight-curve $-1 33.838548026275738 -37.965574538267546 1.9391132732108929 0 -0.80901698891910034 -0.5877852598018023 I I #
edge $-1 $523 8.5154147052231419 $309 33.838548026275738 $437 $530 forward 7 unknown #
point $-1 33.838548026275738 -37.965574538267553 8.3814622362413349 #
point $-1 33.838548026275738 -29.09844207326762 8.3814622362413349 #
edge $-1 $531 1 $531 0 $312 $-1 forward 7 unknown #
vertex $-1 $313 $532 #
ellipse-curve $-1 21.176981365749441 -29.869046161281418 0.1186529820948703 0 -0.5877852598018023 0.80901698891910034 2.5 0 0 1 I I #
point $-1 23.676981365749441 -33.53200830576759 5.1602877547261157 #
plane-surface $-1 0 0 8.3814622362413349 0 0 1 1 0 0 forward_v I I I I #
coedge $-1 $533 $319 $324 $456 forward $206 $-1 #
coedge $-1 $319 $533 $453 $534 reversed $206 $-1 #
edge $-1 $454 54.22913003180507 $461 60.671478994835518 $319 $535 forward 7 unknown #
coedge $-1 $328 $322 $451 $534 forward $329 $-1 #
vertex $-1 $534 $536 #
straight-curve $-1 50.869377436721997 -63.767621999843925 8.3814622362413331 0 -1 0 I I #
edge $-1 $461 19.10390538809785 $459 44.427038709150452 $450 $537 forward 7 unknown #
coedge $-1 $458 $325 $328 $463 reversed $317 $-1 #
coedge $-1 $325 $457 $533 $538 forward $317 $-1 #
vertex $-1 $326 $539 #
straight-curve $-1 76.192510757774585 -26.002230719253916 10.630991504534887 0 0.80901698891910034 0.5877852598018023 I I #
vertex $-1 $456 $540 #
straight-curve $-1 50.869377436721997 -37.965574538267546 1.9391132732108929 0 0.80901698891910034 0.5877852598018023 I I #
edge $-1 $541 -37.965574538267553 $330 -29.09844207326762 $457 $542 forward 7 unknown #
point $-1 76.192510757774599 -29.09844207326762 8.3814622362413349 #
point $-1 50.869377436721997 -29.09844207326762 8.3814622362413349 #
edge $-1 $543 1 $543 0 $333 $-1 forward 7 unknown #
vertex $-1 $334 $544 #
ellipse-curve $-1 63.530944097248295 -29.869046161281418 0.1186529820948703 0 -0.5877852598018023 0.80901698891910034 2.5 0 0 1 I I #
point $-1 66.030944097248295 -33.53200830576759 5.1602877547261157 #
plane-surface $-1 76.192510757774585 0 0 -1 0 0 0 0 1 forward_v I I I I #
coedge $-1 $342 $340 $344 $475 reversed $221 $-1 #
edge $-1 $355 -8.3814622362413349 $477 8.3814622362413349 $354 $545 forward 7 unknown #
vertex $-1 $475 $546 #
straight-curve $-1 -76.192510757774585 -37.965574538267553 0 0 0 -1 I I #
edge $-1 $473 -37.965574538267553 $477 37.965574538267553 $471 $547 forward 7 unknown #
straight-curve $-1 0 -37.965574538267553 -8.3814622362413349 -1 0 0 I I #
vertex $-1 $347 $548 #
straight-curve $-1 0 37.965574538267553 -8.3814622362413349 1 0 0 I I #
point $-1 76.192510757774585 37.965574538267553 -8.3814622362413349 #
point $-1 76.192510757774585 -37.965574538267553 -8.3814622362413349 #
straight-curve $-1 -76.192510757774585 0 8.3814622362413349 0 -1 0 I I #
point $-1 -76.192510757774585 37.965574538267553 8.3814622362413349 #
point $-1 -76.192510757774585 -37.965574538267553 8.3814622362413349 #
straight-curve $-1 76.192510757774585 -37.965574538267553 0 0 0 -1 I I #
straight-curve $-1 76.192510757774585 37.965574538267553 0 0 0 -1 I I #
edge $-1 $489 -47.13823016166095 $374 -10.970331030566321 $373 $549 forward 7 unknown #
coedge $-1 $488 $367 $493 $550 reversed $364 $-1 #
coedge $-1 $367 $487 $369 $491 forward $364 $-1 #
vertex $-1 $368 $551 #
straight-curve $-1 -76.192510757774585 11.784487886443525 40.872914477098604 0 -0.54463902268945019 0.83867057594974714 I I #
edge $-1 $495 -8.3814622362413349 $370 -0.55757513022367811 $369 $552 forward 7 unknown #
point $-1 -76.192510757774585 37.965574538267553 0.55757513022367811 #
coedge $-1 $373 $372 $487 $550 forward $240 $-1 #
point $-1 -40.024611626679956 32.884683006776207 8.3814622362413331 #
vertex $-1 $377 $553 #
straight-curve $-1 0 37.965574538267553 8.3814622362413349 -1 0 0 I I #
vertex $-1 $380 $554 #
point $-1 -57.60856119222727 33.846264290472135 3.4441921329492202 #
coedge $-1 $394 $393 $386 $500 forward $384 $-1 #
edge $-1 $507 -8.3814622362413349 $502 -1.9391132732108878 $386 $555 forward 7 unknown #
edge $-1 $391 29.09844207326762 $507 37.965574538267553 $387 $556 forward 7 unknown #
vertex $-1 $388 $557 #
straight-curve $-1 -76.192510757774585 -26.002230719253916 10.630991504534887 0 -0.80901698891910034 -0.5877852598018023 I I #
edge $-1 $502 -44.427038709150438 $395 -19.103905388097846 $394 $558 forward 7 unknown #
point $-1 -76.192510757774585 -29.09844207326762 8.3814622362413349 #
point $-1 -50.86937743672199 -37.965574538267553 1.9391132732108878 #
vertex $-1 $501 $559 #
straight-curve $-1 0 -37.965574538267553 8.3814622362413349 1 0 0 I I #
vertex $-1 $401 $560 #
point $-1 -61.030944097248288 -29.869046161281418 0.1186529820948703 #
edge $-1 $512 54.22913003180507 $515 60.671478994835518 $406 $561 forward 7 unknown #
vertex $-1 $420 $562 #
straight-curve $-1 -33.838548026275724 -63.767621999843925 8.3814622362413331 0 -1 0 I I #
edge $-1 $515 -23.250057343401011 $417 2.0730759776515857 $416 $563 forward 7 unknown #
vertex $-1 $514 $564 #
straight-curve $-1 -33.838548026275724 -37.965574538267546 1.9391132732108929 0 0.80901698891910034 0.5877852598018023 I I #
point $-1 -33.838548026275724 -29.09844207326762 8.3814622362413349 #
point $-1 -8.5154147052231277 -37.965574538267553 1.9391132732108878 #
straight-curve $-1 0 -37.965574538267553 8.3814622362413349 1 0 0 I I #
vertex $-1 $423 $565 #
point $-1 -18.676981365749427 -29.869046161281418 0.1186529820948703 #
edge $-1 $523 54.22913003180507 $526 60.671478994835518 $428 $566 forward 7 unknown #
vertex $-1 $442 $567 #
straight-curve $-1 8.5154147052231419 -63.767621999843925 8.3814622362413331 0 -1 0 I I #
edge $-1 $526 -2.0730759776515786 $439 23.250057343401018 $438 $568 forward 7 unknown #
vertex $-1 $525 $569 #
straight-curve $-1 8.5154147052231419 -37.965574538267546 1.9391132732108929 0 0.80901698891910034 0.5877852598018023 I I #
point $-1 8.5154147052231419 -29.09844207326762 8.3814622362413349 #
point $-1 33.838548026275738 -37.965574538267553 1.9391132732108878 #
straight-curve $-1 0 -37.965574538267553 8.3814622362413349 1 0 0 I I #
vertex $-1 $445 $570 #
point $-1 23.676981365749441 -29.869046161281418 0.1186529820948703 #
coedge $-1 $451 $450 $458 $538 reversed $206 $-1 #
edge $-1 $454 50.869377436721997 $541 76.192510757774585 $451 $571 forward 7 unknown #
straight-curve $-1 50.869377436721997 -37.965574538267553 62.610592268046403 0 0 -1 I I #
point $-1 50.869377436721997 -37.965574538267553 8.3814622362413349 #
straight-curve $-1 31.765472048624147 -37.965574538267553 1.939113273210884 1 0 0 I I #
edge $-1 $541 -8.3814622362413349 $459 -1.9391132732108878 $458 $572 forward 7 unknown #
point $-1 76.192510757774599 -37.965574538267553 1.9391132732108878 #
point $-1 50.869377436721997 -37.965574538267553 1.9391132732108878 #
vertex $-1 $463 $573 #
straight-curve $-1 76.192510757774585 0 8.3814622362413349 0 1 0 I I #
vertex $-1 $466 $574 #
point $-1 66.030944097248295 -29.869046161281418 0.1186529820948703 #
straight-curve $-1 -76.192510757774585 37.965574538267553 0 0 0 -1 I I #
point $-1 -76.192510757774585 -37.965574538267553 -8.3814622362413349 #
straight-curve $-1 -76.192510757774585 0 -8.3814622362413349 0 1 0 I I #
point $-1 -76.192510757774585 37.965574538267553 -8.3814622362413349 #
straight-curve $-1 -29.054280596113635 32.8846830067762 8.3814622362413331 1 0 0 I I #
edge $-1 $495 -37.965574538267553 $489 -32.884683006776207 $487 $575 forward 7 unknown #
point $-1 -76.192510757774585 32.884683006776207 8.3814622362413331 #
straight-curve $-1 -76.192510757774585 37.965574538267553 0 0 0 -1 I I #
point $-1 -76.192510757774585 37.965574538267553 8.3814622362413349 #
point $-1 -58.10856119222727 33.426929002497261 3.171872621604495 #
straight-curve $-1 -76.192510757774585 -37.965574538267553 0 0 0 -1 I I #
straight-curve $-1 -76.192510757774585 0 8.3814622362413349 0 -1 0 I I #
point $-1 -76.192510757774585 -37.965574538267553 1.9391132732108878 #
straight-curve $-1 -31.765472048624144 -37.965574538267553 1.939113273210884 1 0 0 I I #
point $-1 -76.192510757774585 -37.965574538267553 8.3814622362413349 #
point $-1 -63.530944097248288 -28.399583011776912 -1.9038894902028805 #
straight-curve $-1 -33.838548026275724 -37.965574538267553 62.610592268046403 0 0 -1 I I #
point $-1 -33.838548026275724 -37.965574538267553 8.3814622362413349 #
straight-curve $-1 -10.588490682874713 -37.965574538267553 1.939113273210884 1 0 0 I I #
point $-1 -33.838548026275724 -37.965574538267553 1.9391132732108878 #
point $-1 -21.176981365749427 -28.399583011776912 -1.9038894902028805 #
straight-curve $-1 8.5154147052231419 -37.965574538267553 62.610592268046403 0 0 -1 I I #
point $-1 8.5154147052231419 -37.965574538267553 8.3814622362413349 #
straight-curve $-1 10.588490682874721 -37.965574538267553 1.939113273210884 1 0 0 I I #
point $-1 8.5154147052231419 -37.965574538267553 1.9391132732108878 #
point $-1 21.176981365749441 -28.399583011776912 -1.9038894902028805 #
straight-curve $-1 0 -37.965574538267553 8.3814622362413349 1 0 0 I I #
straight-curve $-1 76.192510757774585 -37.965574538267553 0 0 0 -1 I I #
point $-1 76.192510757774585 -37.965574538267553 8.3814622362413349 #
point $-1 63.530944097248295 -28.399583011776912 -1.9038894902028805 #
straight-curve $-1 -76.192510757774585 0 8.3814622362413349 0 -1 0 I I #
End-of-ACIS-data 