500 0 13 0           
7 Unknown 11 ACIS 5.0 NT 24 Fri Mar 26 03:20:03 1999 
-1 9.9999999999999995e-007 1e-010 
body $-1 $13 $-1 $14 #
body $-1 $15 $-1 $16 #
body $-1 $17 $-1 $18 #
body $-1 $19 $-1 $20 #
body $-1 $21 $-1 $22 #
body $-1 $23 $-1 $24 #
body $-1 $25 $-1 $26 #
body $-1 $27 $-1 $28 #
body $-1 $29 $-1 $30 #
body $-1 $31 $-1 $32 #
body $-1 $33 $-1 $34 #
body $-1 $35 $-1 $36 #
body $-1 $37 $-1 $38 #
lump $-1 $-1 $39 $0 #
transform $-1 1 0 0 0 1 0 0 0 1 40.059816278572953 21.44735102369388 8.8977019667924999 1 rotate no_reflect no_shear #
lump $-1 $-1 $40 $1 #
transform $-1 1 0 0 0 1 0 0 0 1 40.059816278572953 21.44735102369388 8.8977019667924999 1 rotate no_reflect no_shear #
lump $-1 $-1 $41 $2 #
transform $-1 1 0 0 0 1 0 0 0 1 40.059816278572953 21.44735102369388 8.8977019667924999 1 rotate no_reflect no_shear #
lump $-1 $-1 $42 $3 #
transform $-1 1 0 0 0 1 0 0 0 1 40.059816278572953 21.44735102369388 8.8977019667924999 1 rotate no_reflect no_shear #
lump $-1 $-1 $43 $4 #
transform $-1 1 0 0 0 1 0 0 0 1 40.059816278572953 21.44735102369388 8.8977019667924999 1 rotate no_reflect no_shear #
lump $-1 $-1 $44 $5 #
transform $-1 1 0 0 0 1 0 0 0 1 40.059816278572953 21.44735102369388 8.8977019667924999 1 rotate no_reflect no_shear #
lump $-1 $-1 $45 $6 #
transform $-1 1 0 0 0 1 0 0 0 1 40.059816278572953 21.44735102369388 8.8977019667924999 1 rotate no_reflect no_shear #
lump $-1 $-1 $46 $7 #
transform $-1 1 0 0 0 1 0 0 0 1 40.059816278572953 21.44735102369388 8.8977019667924999 1 rotate no_reflect no_shear #
lump $-1 $-1 $47 $8 #
transform $-1 1 0 0 0 1 0 0 0 1 40.059816278572953 21.44735102369388 8.8977019667924999 1 rotate no_reflect no_shear #
lump $-1 $-1 $48 $9 #
transform $-1 1 0 0 0 1 0 0 0 1 40.059816278572953 21.44735102369388 8.8977019667924999 1 rotate no_reflect no_shear #
lump $-1 $-1 $49 $10 #
transform $-1 1 0 0 0 1 0 0 0 1 40.059816278572953 21.44735102369388 8.8977019667924999 1 rotate no_reflect no_shear #
lump $-1 $-1 $50 $11 #
transform $-1 1 0 0 0 1 0 0 0 1 40.059816278572953 21.44735102369388 8.8977019667924999 1 rotate no_reflect no_shear #
lump $-1 $-1 $51 $12 #
transform $-1 1 0 0 0 1 0 0 0 1 40.059816278572953 21.44735102369388 8.8977019667924999 1 rotate no_reflect no_shear #
shell $-1 $-1 $-1 $52 $-1 $13 #
shell $-1 $-1 $-1 $53 $-1 $15 #
shell $-1 $-1 $-1 $54 $-1 $17 #
shell $-1 $-1 $-1 $55 $-1 $19 #
shell $-1 $-1 $-1 $56 $-1 $21 #
shell $-1 $-1 $-1 $57 $-1 $23 #
shell $-1 $-1 $-1 $58 $-1 $25 #
shell $-1 $-1 $-1 $59 $-1 $27 #
shell $-1 $-1 $-1 $60 $-1 $29 #
shell $-1 $-1 $-1 $61 $-1 $31 #
shell $-1 $-1 $-1 $62 $-1 $33 #
shell $-1 $-1 $-1 $63 $-1 $35 #
shell $-1 $-1 $-1 $64 $-1 $37 #
face $-1 $65 $66 $39 $-1 $67 forward single #
face $-1 $68 $69 $40 $-1 $70 reversed single #
face $-1 $71 $72 $41 $-1 $73 reversed single #
face $-1 $74 $75 $42 $-1 $76 reversed single #
face $-1 $77 $78 $43 $-1 $79 forward single #
face $-1 $80 $81 $44 $-1 $82 reversed single #
face $-1 $83 $84 $45 $-1 $85 forward single #
face $-1 $86 $87 $46 $-1 $88 forward single #
face $-1 $89 $90 $47 $-1 $91 forward single #
face $-1 $92 $93 $48 $-1 $94 reversed single #
face $-1 $95 $96 $49 $-1 $97 forward single #
face $-1 $98 $99 $50 $-1 $100 forward single #
face $-1 $101 $102 $51 $-1 $103 forward single #
face $-1 $104 $105 $39 $-1 $106 reversed single #
loop $-1 $-1 $107 $52 #
plane-surface $-1 0 0 8.8977019667924999 0 0 1 1 0 0 forward_v I I I I #
face $-1 $108 $109 $40 $-1 $110 reversed single #
loop $-1 $-1 $111 $53 #
plane-surface $-1 -36.345135004139301 0 5.8483103976318676 0 0 1 1 0 0 forward_v I I I I #
face $-1 $112 $113 $41 $-1 $114 reversed single #
loop $-1 $-1 $115 $54 #
plane-surface $-1 36.345135004139308 0 5.8483103976318676 0 0 1 1 0 0 forward_v I I I I #
face $-1 $116 $117 $42 $-1 $118 reversed single #
loop $-1 $-1 $119 $55 #
plane-surface $-1 28.382928039428435 -21.447351023693891 1.2046668679995918 0 -0.7660444514056185 0.64278759981090561 1 0 0 forward_v I I I I #
face $-1 $120 $121 $43 $-1 $122 forward single #
loop $-1 $123 $124 $56 #
cone-surface $-1 28.382928039428435 -16.863293680692347 3.9129911336462744 0 0.7660444514056185 -0.64278759981090561 2 0 0 1 I I 0 1 2 forward I I I I #
face $-1 $125 $126 $44 $-1 $127 reversed single #
loop $-1 $-1 $128 $57 #
plane-surface $-1 -26.127131601893993 52.285684445133583 88.272084753420941 1 0 0 0 -0.74314483375859142 -0.66913059716165679 forward_v I I I I #
face $-1 $129 $130 $45 $-1 $131 forward single #
loop $-1 $132 $133 $58 #
cone-surface $-1 -24.14148080936236 18.323652739750948 5.5065911617929739 0 -0.74314483375859142 -0.66913059716165679 0.5 0 0 1 I I 0 1 0.5 forward I I I I #
face $-1 $134 $135 $46 $-1 $136 forward single #
loop $-1 $137 $138 $59 #
cone-surface $-1 -21.163004620564916 18.323652739750948 5.5065911617929739 0 -0.74314483375859142 -0.66913059716165679 0.5 0 0 1 I I 0 1 0.5 forward I I I I #
face $-1 $139 $140 $47 $-1 $141 forward single #
loop $-1 $142 $143 $60 #
cone-surface $-1 -18.184528431767472 18.323652739750948 5.5065911617929739 0 -0.74314483375859142 -0.66913059716165679 0.5 0 0 1 I I 0 1 0.5 forward I I I I #
face $-1 $144 $145 $48 $-1 $146 reversed single #
loop $-1 $-1 $147 $61 #
plane-surface $-1 6.5033221278116589 52.285684445133583 88.272084753420941 1 0 0 0 -0.74314483375859142 -0.66913059716165679 forward_v I I I I #
face $-1 $148 $149 $49 $-1 $150 forward single #
loop $-1 $151 $152 $62 #
cone-surface $-1 8.4889729203432864 18.323652739750948 5.5065911617929739 0 -0.74314483375859142 -0.66913059716165679 0.5 0 0 1 I I 0 1 0.5 forward I I I I #
face $-1 $153 $154 $50 $-1 $155 forward single #
loop $-1 $156 $157 $63 #
cone-surface $-1 11.46744910914073 18.323652739750948 5.5065911617929739 0 -0.74314483375859142 -0.66913059716165679 0.5 0 0 1 I I 0 1 0.5 forward I I I I #
face $-1 $158 $159 $51 $-1 $160 forward single #
loop $-1 $161 $162 $64 #
cone-surface $-1 14.445925297938174 18.323652739750948 5.5065911617929739 0 -0.74314483375859142 -0.66913059716165679 0.5 0 0 1 I I 0 1 0.5 forward I I I I #
face $-1 $163 $164 $39 $-1 $165 reversed single #
loop $-1 $-1 $166 $65 #
plane-surface $-1 0 0 -8.8977019667924999 0 0 1 1 0 0 forward_v I I I I #
coedge $-1 $167 $168 $169 $170 forward $66 $-1 #
face $-1 $171 $172 $40 $-1 $173 reversed single #
loop $-1 $-1 $174 $68 #
plane-surface $-1 -32.63045372970565 0 7.3730061822121833 -1 0 0 0 0 1 forward_v I I I I #
coedge $-1 $175 $176 $177 $178 forward $69 $-1 #
face $-1 $179 $180 $41 $-1 $181 forward single #
loop $-1 $-1 $182 $71 #
plane-surface $-1 32.630453729705657 0 7.3730061822121833 1 0 0 0 0 -1 forward_v I I I I #
coedge $-1 $183 $184 $185 $186 reversed $72 $-1 #
face $-1 $187 $188 $42 $-1 $189 forward single #
loop $-1 $-1 $190 $74 #
plane-surface $-1 24.135402349151221 -82.822550992752454 52.704573177139096 1 0 0 0 0.7660444514056185 -0.64278759981090561 forward_v I I I I #
coedge $-1 $191 $192 $193 $194 reversed $75 $-1 #
face $-1 $-1 $195 $43 $-1 $196 forward single #
loop $-1 $197 $198 $77 #
cone-surface $-1 28.382928039428435 -14.740803258797962 2.1320102500856031 0 0.7660444514056185 -0.64278759981090561 1 0 0 1 I I -0.70710678118654746 0.70710678118654746 1 forward I I I I #
loop $-1 $-1 $199 $56 #
coedge $-1 $124 $124 $200 $201 reversed $78 $-1 #
face $-1 $202 $203 $44 $-1 $204 reversed single #
loop $-1 $-1 $205 $80 #
plane-surface $-1 -21.163004620564919 -7.2548065723460411 34.661587176085384 0 0.74314483375859142 0.66913059716165679 1 0 0 forward_v I I I I #
coedge $-1 $206 $207 $208 $209 reversed $81 $-1 #
face $-1 $-1 $210 $45 $-1 $211 forward single #
loop $-1 $212 $213 $83 #
cone-surface $-1 -24.14148080936236 17.766294114432004 5.0047432139217314 0 -0.74314483375859142 -0.66913059716165679 0.25 0 0 1 I I -0.70710678118654746 0.70710678118654746 0.25 forward I I I I #
loop $-1 $-1 $214 $58 #
coedge $-1 $133 $133 $215 $216 reversed $84 $-1 #
face $-1 $-1 $217 $46 $-1 $218 forward single #
loop $-1 $219 $220 $86 #
cone-surface $-1 -21.163004620564916 17.766294114432004 5.0047432139217314 0 -0.74314483375859142 -0.66913059716165679 0.25 0 0 1 I I -0.70710678118654746 0.70710678118654746 0.25 forward I I I I #
loop $-1 $-1 $221 $59 #
coedge $-1 $138 $138 $222 $223 reversed $87 $-1 #
face $-1 $-1 $224 $47 $-1 $225 forward single #
loop $-1 $226 $227 $89 #
cone-surface $-1 -18.184528431767472 17.766294114432004 5.0047432139217314 0 -0.74314483375859142 -0.66913059716165679 0.25 0 0 1 I I -0.70710678118654746 0.70710678118654746 0.25 forward I I I I #
loop $-1 $-1 $228 $60 #
coedge $-1 $143 $143 $229 $230 reversed $90 $-1 #
face $-1 $231 $232 $48 $-1 $233 reversed single #
loop $-1 $-1 $234 $92 #
plane-surface $-1 11.46744910914073 -7.2548065723460411 34.661587176085384 0 0.74314483375859142 0.66913059716165679 1 0 0 forward_v I I I I #
coedge $-1 $235 $236 $237 $238 reversed $93 $-1 #
face $-1 $-1 $239 $49 $-1 $240 forward single #
loop $-1 $241 $242 $95 #
cone-surface $-1 8.4889729203432864 17.766294114432004 5.0047432139217314 0 -0.74314483375859142 -0.66913059716165679 0.25 0 0 1 I I -0.70710678118654746 0.70710678118654746 0.25 forward I I I I #
loop $-1 $-1 $243 $62 #
coedge $-1 $152 $152 $244 $245 reversed $96 $-1 #
face $-1 $-1 $246 $50 $-1 $247 forward single #
loop $-1 $248 $249 $98 #
cone-surface $-1 11.46744910914073 17.766294114432004 5.0047432139217314 0 -0.74314483375859142 -0.66913059716165679 0.25 0 0 1 I I -0.70710678118654746 0.70710678118654746 0.25 forward I I I I #
loop $-1 $-1 $250 $63 #
coedge $-1 $157 $157 $251 $252 reversed $99 $-1 #
face $-1 $-1 $253 $51 $-1 $254 forward single #
loop $-1 $255 $256 $101 #
cone-surface $-1 14.445925297938174 17.766294114432004 5.0047432139217314 0 -0.74314483375859142 -0.66913059716165679 0.25 0 0 1 I I -0.70710678118654746 0.70710678118654746 0.25 forward I I I I #
loop $-1 $-1 $257 $64 #
coedge $-1 $162 $162 $258 $259 reversed $102 $-1 #
face $-1 $260 $261 $39 $-1 $262 reversed single #
loop $-1 $-1 $263 $104 #
plane-surface $-1 0 -21.44735102369388 0 0 1 0 0 0 1 forward_v I I I I #
coedge $-1 $264 $265 $266 $267 forward $105 $-1 #
coedge $-1 $268 $107 $269 $270 forward $66 $-1 #
coedge $-1 $107 $268 $271 $272 forward $66 $-1 #
coedge $-1 $273 $274 $107 $170 reversed $275 $-1 #
edge $-1 $276 -21.44735102369388 $277 21.44735102369388 $169 $278 forward 7 unknown #
face $-1 $279 $280 $40 $-1 $281 reversed single #
loop $-1 $-1 $282 $108 #
plane-surface $-1 0 21.44735102369388 0 0 -1 0 0 0 -1 forward_v I I I I #
coedge $-1 $177 $283 $284 $285 reversed $109 $-1 #
coedge $-1 $286 $111 $287 $288 reversed $69 $-1 #
coedge $-1 $111 $286 $289 $290 reversed $69 $-1 #
coedge $-1 $291 $174 $111 $178 reversed $109 $-1 #
edge $-1 $292 -21.44735102369388 $293 21.44735102369388 $177 $294 forward 7 unknown #
face $-1 $295 $296 $41 $-1 $297 reversed single #
loop $-1 $-1 $298 $112 #
plane-surface $-1 0 0 8.8977019667924999 0 0 1 1 0 0 forward_v I I I I #
coedge $-1 $299 $300 $301 $302 reversed $113 $-1 #
coedge $-1 $303 $115 $304 $305 reversed $72 $-1 #
coedge $-1 $115 $303 $306 $307 reversed $72 $-1 #
coedge $-1 $308 $309 $115 $186 forward $310 $-1 #
edge $-1 $311 -21.44735102369388 $312 21.44735102369388 $185 $313 forward 7 unknown #
face $-1 $314 $315 $42 $-1 $316 reversed single #
loop $-1 $-1 $193 $116 #
plane-surface $-1 0 0 8.8977019667924999 0 0 1 1 0 0 forward_v I I I I #
coedge $-1 $317 $318 $319 $320 reversed $117 $-1 #
coedge $-1 $321 $119 $322 $323 reversed $75 $-1 #
coedge $-1 $119 $321 $317 $324 forward $75 $-1 #
coedge $-1 $319 $325 $119 $194 forward $188 $-1 #
edge $-1 $326 -18.438989709991439 $327 -9.9439383294370032 $193 $328 forward 7 unknown #
loop $-1 $-1 $200 $120 #
plane-surface $-1 28.382928039428435 -21.447351023693891 1.2046668679995918 0 -0.7660444514056185 0.64278759981090561 1 0 0 forward_v I I I I #
loop $-1 $-1 $329 $77 #
coedge $-1 $198 $198 $199 $330 reversed $121 $-1 #
coedge $-1 $199 $199 $198 $330 forward $123 $-1 #
coedge $-1 $200 $200 $124 $201 forward $195 $-1 #
edge $-1 $331 -3.1665237886488363e-016 $331 6.2831853071796004 $200 $332 forward 7 unknown #
face $-1 $333 $334 $44 $-1 $335 reversed single #
loop $-1 $-1 $336 $125 #
plane-surface $-1 -16.198877639235846 52.285684445133583 88.272084753420941 -1 0 0 0 0.74314483375859142 0.66913059716165679 forward_v I I I I #
coedge $-1 $337 $338 $339 $340 reversed $126 $-1 #
coedge $-1 $207 $128 $341 $342 reversed $81 $-1 #
coedge $-1 $128 $206 $337 $343 reversed $81 $-1 #
coedge $-1 $339 $344 $128 $209 forward $345 $-1 #
edge $-1 $346 4.6954911988729116 $347 10.199742933000188 $208 $348 forward 7 unknown #
loop $-1 $-1 $215 $129 #
plane-surface $-1 -21.163004620564919 -7.2548065723460411 34.661587176085384 0 0.74314483375859142 0.66913059716165679 1 0 0 forward_v I I I I #
loop $-1 $-1 $349 $83 #
coedge $-1 $213 $213 $214 $350 reversed $130 $-1 #
coedge $-1 $214 $214 $213 $350 forward $132 $-1 #
coedge $-1 $215 $215 $133 $216 forward $210 $-1 #
edge $-1 $351 -2.3718959712476597e-015 $351 6.2831853071795978 $215 $352 forward 7 unknown #
loop $-1 $-1 $222 $134 #
plane-surface $-1 -21.163004620564919 -7.2548065723460411 34.661587176085384 0 0.74314483375859142 0.66913059716165679 1 0 0 forward_v I I I I #
loop $-1 $-1 $353 $86 #
coedge $-1 $220 $220 $221 $354 reversed $135 $-1 #
coedge $-1 $221 $221 $220 $354 forward $137 $-1 #
coedge $-1 $222 $222 $138 $223 forward $217 $-1 #
edge $-1 $355 -2.3718959712476597e-015 $355 6.2831853071795978 $222 $356 forward 7 unknown #
loop $-1 $-1 $229 $139 #
plane-surface $-1 -21.163004620564919 -7.2548065723460411 34.661587176085384 0 0.74314483375859142 0.66913059716165679 1 0 0 forward_v I I I I #
loop $-1 $-1 $357 $89 #
coedge $-1 $227 $227 $228 $358 reversed $140 $-1 #
coedge $-1 $228 $228 $227 $358 forward $142 $-1 #
coedge $-1 $229 $229 $143 $230 forward $224 $-1 #
edge $-1 $359 -2.3718959712476597e-015 $359 6.2831853071795978 $229 $360 forward 7 unknown #
face $-1 $361 $362 $48 $-1 $363 forward single #
loop $-1 $-1 $364 $144 #
plane-surface $-1 16.431576090469804 52.285684445133583 88.272084753420941 -1 0 0 0 0.74314483375859142 0.66913059716165679 forward_v I I I I #
coedge $-1 $365 $366 $367 $368 reversed $145 $-1 #
coedge $-1 $236 $147 $369 $370 reversed $93 $-1 #
coedge $-1 $147 $235 $365 $371 reversed $93 $-1 #
coedge $-1 $367 $372 $147 $238 forward $362 $-1 #
edge $-1 $373 4.6954911988729116 $374 10.199742933000188 $237 $375 forward 7 unknown #
loop $-1 $-1 $244 $148 #
plane-surface $-1 11.46744910914073 -7.2548065723460411 34.661587176085384 0 0.74314483375859142 0.66913059716165679 1 0 0 forward_v I I I I #
loop $-1 $-1 $376 $95 #
coedge $-1 $242 $242 $243 $377 reversed $149 $-1 #
coedge $-1 $243 $243 $242 $377 forward $151 $-1 #
coedge $-1 $244 $244 $152 $245 forward $239 $-1 #
edge $-1 $378 -2.3718959712476597e-015 $378 6.2831853071795978 $244 $379 forward 7 unknown #
loop $-1 $-1 $251 $153 #
plane-surface $-1 11.46744910914073 -7.2548065723460411 34.661587176085384 0 0.74314483375859142 0.66913059716165679 1 0 0 forward_v I I I I #
loop $-1 $-1 $380 $98 #
coedge $-1 $249 $249 $250 $381 reversed $154 $-1 #
coedge $-1 $250 $250 $249 $381 forward $156 $-1 #
coedge $-1 $251 $251 $157 $252 forward $246 $-1 #
edge $-1 $382 -2.3718959712476597e-015 $382 6.2831853071795978 $251 $383 forward 7 unknown #
loop $-1 $-1 $258 $158 #
plane-surface $-1 11.46744910914073 -7.2548065723460411 34.661587176085384 0 0.74314483375859142 0.66913059716165679 1 0 0 forward_v I I I I #
loop $-1 $-1 $384 $101 #
coedge $-1 $256 $256 $257 $385 reversed $159 $-1 #
coedge $-1 $257 $257 $256 $385 forward $161 $-1 #
coedge $-1 $258 $258 $162 $259 forward $253 $-1 #
edge $-1 $386 -2.3718959712476597e-015 $386 6.2831853071795978 $258 $387 forward 7 unknown #
face $-1 $388 $389 $39 $-1 $390 reversed single #
loop $-1 $-1 $391 $163 #
plane-surface $-1 -40.059816278572953 0 0 1 0 0 0 0 -1 forward_v I I I I #
coedge $-1 $392 $271 $393 $394 forward $164 $-1 #
coedge $-1 $395 $166 $392 $396 forward $105 $-1 #
coedge $-1 $166 $395 $397 $398 forward $105 $-1 #
coedge $-1 $274 $273 $166 $267 reversed $275 $-1 #
edge $-1 $399 -21.44735102369388 $400 21.44735102369388 $266 $401 forward 7 unknown #
coedge $-1 $168 $167 $402 $403 forward $66 $-1 #
coedge $-1 $404 $405 $167 $270 reversed $389 $-1 #
edge $-1 $277 -40.059816278572953 $406 40.059816278572953 $269 $407 forward 7 unknown #
coedge $-1 $263 $408 $168 $272 reversed $164 $-1 #
edge $-1 $409 -40.059816278572953 $276 40.059816278572953 $271 $410 forward 7 unknown #
coedge $-1 $266 $169 $408 $411 forward $275 $-1 #
coedge $-1 $169 $266 $404 $412 reversed $275 $-1 #
loop $-1 $-1 $273 $388 #
vertex $-1 $170 $413 #
vertex $-1 $170 $414 #
straight-curve $-1 40.059816278572953 0 8.8977019667924999 0 1 0 I I #
face $-1 $415 $416 $40 $-1 $417 forward single #
loop $-1 $-1 $418 $171 #
plane-surface $-1 -40.059816278572953 0 0 1 0 0 0 0 -1 forward_v I I I I #
coedge $-1 $289 $419 $291 $420 forward $172 $-1 #
coedge $-1 $174 $291 $421 $422 reversed $109 $-1 #
coedge $-1 $423 $287 $174 $285 forward $424 $-1 #
edge $-1 $293 2.1618073065257759 $425 5.2111988756864083 $284 $426 forward 7 unknown #
coedge $-1 $176 $175 $418 $427 reversed $69 $-1 #
coedge $-1 $284 $428 $175 $288 forward $424 $-1 #
edge $-1 $429 -21.887248776503302 $293 -14.457886227635999 $287 $430 forward 7 unknown #
coedge $-1 $431 $282 $176 $290 forward $172 $-1 #
edge $-1 $292 14.457886227635999 $432 21.887248776503302 $289 $433 forward 7 unknown #
coedge $-1 $283 $177 $282 $420 reversed $109 $-1 #
vertex $-1 $290 $434 #
vertex $-1 $288 $435 #
straight-curve $-1 -32.63045372970565 0 5.8483103976318676 0 -1 0 I I #
face $-1 $436 $437 $41 $-1 $438 reversed single #
loop $-1 $-1 $439 $179 #
plane-surface $-1 0 -21.44735102369388 0 0 1 0 0 0 1 forward_v I I I I #
coedge $-1 $440 $441 $300 $442 forward $180 $-1 #
coedge $-1 $443 $182 $303 $444 reversed $113 $-1 #
coedge $-1 $182 $443 $298 $442 reversed $113 $-1 #
coedge $-1 $445 $306 $182 $302 forward $437 $-1 #
edge $-1 $446 2.1618073065257759 $447 5.2111988756864083 $301 $448 forward 7 unknown #
coedge $-1 $184 $183 $299 $444 forward $72 $-1 #
coedge $-1 $449 $439 $183 $305 forward $296 $-1 #
edge $-1 $450 14.457886227636003 $311 21.887248776503306 $304 $451 forward 7 unknown #
coedge $-1 $301 $452 $184 $307 forward $437 $-1 #
edge $-1 $312 -21.887248776503306 $446 -14.457886227636003 $306 $453 forward 7 unknown #
coedge $-1 $454 $185 $452 $455 reversed $310 $-1 #
coedge $-1 $185 $454 $449 $456 forward $310 $-1 #
loop $-1 $-1 $185 $436 #
vertex $-1 $305 $457 #
vertex $-1 $186 $458 #
straight-curve $-1 40.059816278572953 0 5.8483103976318676 0 1 0 I I #
face $-1 $-1 $459 $42 $-1 $460 forward single #
loop $-1 $-1 $461 $187 #
plane-surface $-1 0 -21.44735102369388 0 0 1 0 0 0 1 forward_v I I I I #
coedge $-1 $318 $190 $192 $324 reversed $117 $-1 #
coedge $-1 $190 $317 $461 $462 reversed $117 $-1 #
coedge $-1 $463 $193 $190 $320 forward $188 $-1 #
edge $-1 $327 -26.419147217707859 $464 -19.963924472682347 $319 $465 forward 7 unknown #
coedge $-1 $192 $191 $466 $467 reversed $75 $-1 #
coedge $-1 $468 $469 $191 $323 forward $459 $-1 #
edge $-1 $470 -9.2556566964309148 $326 0.78688728998777036 $322 $471 forward 7 unknown #
edge $-1 $472 1.6546395036574903e-014 $327 10.042543986418707 $317 $473 forward 7 unknown #
coedge $-1 $193 $463 $468 $474 forward $188 $-1 #
vertex $-1 $323 $475 #
vertex $-1 $194 $476 #
straight-curve $-1 14.191464019714218 -14.992128278668369 8.8977019667924999 -1 0 0 I I #
coedge $-1 $329 $329 $-1 $477 reversed $197 $-1 #
edge $-1 $478 0 $478 6.2831853071796004 $198 $479 forward 7 unknown #
vertex $-1 $201 $480 #
ellipse-curve $-1 28.382928039428435 -18.219739651181126 5.0511844173960503 0 -0.7660444514056185 0.64278759981090561 2 0 0 1 I I #
face $-1 $-1 $345 $44 $-1 $481 forward single #
loop $-1 $-1 $482 $202 #
plane-surface $-1 0 21.44735102369388 0 0 -1 0 0 0 -1 forward_v I I I I #
coedge $-1 $483 $484 $485 $486 reversed $203 $-1 #
coedge $-1 $487 $205 $207 $343 forward $126 $-1 #
coedge $-1 $205 $487 $483 $488 forward $126 $-1 #
coedge $-1 $485 $208 $205 $340 forward $345 $-1 #
edge $-1 $347 -15.545629291611533 $489 -5.6173753289533863 $339 $490 forward 7 unknown #
coedge $-1 $491 $492 $206 $342 forward $334 $-1 #
edge $-1 $493 -41.351431422755383 $346 -35.238340409917967 $341 $494 forward 7 unknown #
edge $-1 $347 34.668726793116896 $493 42.89470204738776 $207 $495 forward 7 unknown #
coedge $-1 $208 $485 $491 $496 forward $345 $-1 #
loop $-1 $-1 $485 $333 #
vertex $-1 $342 $497 #
vertex $-1 $209 $498 #
straight-curve $-1 -26.127131601893993 26.142842222566792 8.8977019667924964 0 -1 0 I I #
coedge $-1 $349 $349 $-1 $499 reversed $212 $-1 #
edge $-1 $500 0 $500 6.2831853071796004 $213 $501 forward 7 unknown #
vertex $-1 $216 $502 #
ellipse-curve $-1 -24.14148080936236 18.695225156630237 5.8411564603737949 0 0.74314483375859142 0.66913059716165679 0.5 0 0 1 I I #
coedge $-1 $353 $353 $-1 $503 reversed $219 $-1 #
edge $-1 $504 0 $504 6.2831853071796004 $220 $505 forward 7 unknown #
vertex $-1 $223 $506 #
ellipse-curve $-1 -21.163004620564916 18.695225156630237 5.8411564603737949 0 0.74314483375859142 0.66913059716165679 0.5 0 0 1 I I #
coedge $-1 $357 $357 $-1 $507 reversed $226 $-1 #
edge $-1 $508 0 $508 6.2831853071796004 $227 $509 forward 7 unknown #
vertex $-1 $230 $510 #
ellipse-curve $-1 -18.184528431767472 18.695225156630237 5.8411564603737949 0 0.74314483375859142 0.66913059716165679 0.5 0 0 1 I I #
face $-1 $-1 $511 $48 $-1 $512 reversed single #
loop $-1 $-1 $237 $231 #
plane-surface $-1 0 0 8.8977019667924999 0 0 1 1 0 0 forward_v I I I I #
coedge $-1 $513 $514 $515 $516 reversed $232 $-1 #
coedge $-1 $517 $234 $236 $371 forward $145 $-1 #
coedge $-1 $234 $517 $513 $518 forward $145 $-1 #
coedge $-1 $515 $237 $234 $368 forward $362 $-1 #
edge $-1 $374 0.76959757324129363 $519 10.697851535899439 $367 $520 forward 7 unknown #
coedge $-1 $521 $522 $235 $370 forward $511 $-1 #
edge $-1 $523 -41.351431422755383 $373 -35.238340409917967 $369 $524 forward 7 unknown #
edge $-1 $374 34.668726793116896 $523 42.89470204738776 $236 $525 forward 7 unknown #
coedge $-1 $237 $515 $521 $526 forward $362 $-1 #
vertex $-1 $238 $527 #
vertex $-1 $238 $528 #
straight-curve $-1 6.5033221278116589 26.142842222566792 8.8977019667924964 0 -1 0 I I #
coedge $-1 $376 $376 $-1 $529 reversed $241 $-1 #
edge $-1 $530 0 $530 6.2831853071796004 $242 $531 forward 7 unknown #
vertex $-1 $245 $532 #
ellipse-curve $-1 8.4889729203432864 18.695225156630237 5.8411564603737949 0 0.74314483375859142 0.66913059716165679 0.5 0 0 1 I I #
coedge $-1 $380 $380 $-1 $533 reversed $248 $-1 #
edge $-1 $534 0 $534 6.2831853071796004 $249 $535 forward 7 unknown #
vertex $-1 $252 $536 #
ellipse-curve $-1 11.46744910914073 18.695225156630237 5.8411564603737949 0 0.74314483375859142 0.66913059716165679 0.5 0 0 1 I I #
coedge $-1 $384 $384 $-1 $537 reversed $255 $-1 #
edge $-1 $538 0 $538 6.2831853071796004 $256 $539 forward 7 unknown #
vertex $-1 $259 $540 #
ellipse-curve $-1 14.445925297938174 18.695225156630237 5.8411564603737949 0 0.74314483375859142 0.66913059716165679 0.5 0 0 1 I I #
face $-1 $-1 $275 $39 $-1 $541 reversed single #
loop $-1 $-1 $404 $260 #
plane-surface $-1 0 21.44735102369388 0 0 -1 0 0 0 -1 forward_v I I I I #
coedge $-1 $542 $402 $405 $543 forward $261 $-1 #
coedge $-1 $408 $263 $264 $396 reversed $164 $-1 #
coedge $-1 $402 $542 $263 $394 reversed $261 $-1 #
edge $-1 $409 -8.8977019667924999 $544 8.8977019667924999 $393 $545 forward 7 unknown #
coedge $-1 $265 $264 $542 $546 forward $105 $-1 #
edge $-1 $400 -40.059816278572953 $544 40.059816278572953 $392 $547 forward 7 unknown #
coedge $-1 $405 $404 $265 $398 reversed $389 $-1 #
edge $-1 $548 -40.059816278572953 $399 40.059816278572953 $397 $549 forward 7 unknown #
vertex $-1 $267 $550 #
vertex $-1 $411 $551 #
straight-curve $-1 40.059816278572953 0 -8.8977019667924999 0 -1 0 I I #
coedge $-1 $391 $393 $268 $403 reversed $261 $-1 #
edge $-1 $406 -21.44735102369388 $409 21.44735102369388 $402 $552 forward 7 unknown #
coedge $-1 $397 $269 $274 $412 forward $389 $-1 #
coedge $-1 $269 $397 $391 $543 reversed $389 $-1 #
vertex $-1 $270 $553 #
straight-curve $-1 0 21.44735102369388 8.8977019667924999 -1 0 0 I I #
coedge $-1 $271 $392 $273 $411 reversed $164 $-1 #
vertex $-1 $403 $554 #
straight-curve $-1 0 -21.44735102369388 8.8977019667924999 1 0 0 I I #
edge $-1 $276 -8.8977019667924999 $400 8.8977019667924999 $273 $555 forward 7 unknown #
edge $-1 $277 -8.8977019667924999 $399 8.8977019667924999 $274 $556 forward 7 unknown #
point $-1 40.059816278572953 -21.44735102369388 8.8977019667924999 #
point $-1 40.059816278572953 21.44735102369388 8.8977019667924999 #
face $-1 $-1 $424 $40 $-1 $557 reversed single #
loop $-1 $-1 $421 $279 #
plane-surface $-1 0 0 8.8977019667924999 0 0 1 1 0 0 forward_v I I I I #
coedge $-1 $558 $559 $286 $427 forward $280 $-1 #
coedge $-1 $282 $431 $560 $561 reversed $172 $-1 #
edge $-1 $562 -5.2111988756864083 $292 -2.1618073065257759 $282 $563 forward 7 unknown #
coedge $-1 $560 $564 $283 $422 forward $416 $-1 #
edge $-1 $425 -21.44735102369388 $562 21.44735102369388 $421 $565 forward 7 unknown #
coedge $-1 $428 $284 $564 $566 reversed $424 $-1 #
loop $-1 $-1 $284 $415 #
vertex $-1 $285 $567 #
straight-curve $-1 -32.63045372970565 -21.44735102369388 3.6865030911060916 0 0 1 I I #
edge $-1 $432 -21.44735102369388 $429 21.44735102369388 $418 $568 forward 7 unknown #
coedge $-1 $287 $423 $558 $569 forward $424 $-1 #
vertex $-1 $427 $570 #
straight-curve $-1 -18.172567502069651 -21.44735102369388 5.8483103976318676 1 0 0 I I #
coedge $-1 $419 $289 $559 $571 reversed $172 $-1 #
vertex $-1 $427 $572 #
straight-curve $-1 -18.172567502069651 21.44735102369388 5.8483103976318676 -1 0 0 I I #
point $-1 -32.63045372970565 21.44735102369388 5.8483103976318676 #
point $-1 -32.63045372970565 -21.44735102369388 5.8483103976318676 #
face $-1 $-1 $310 $41 $-1 $573 reversed single #
loop $-1 $-1 $301 $295 #
plane-surface $-1 0 21.44735102369388 0 0 -1 0 0 0 -1 forward_v I I I I #
coedge $-1 $304 $574 $443 $575 forward $296 $-1 #
coedge $-1 $576 $298 $574 $577 forward $180 $-1 #
coedge $-1 $298 $576 $445 $578 forward $180 $-1 #
edge $-1 $447 -21.44735102369388 $579 21.44735102369388 $298 $580 forward 7 unknown #
coedge $-1 $300 $299 $439 $575 reversed $113 $-1 #
edge $-1 $450 -21.44735102369388 $446 21.44735102369388 $299 $581 forward 7 unknown #
coedge $-1 $452 $301 $441 $578 reversed $437 $-1 #
vertex $-1 $307 $582 #
vertex $-1 $302 $583 #
straight-curve $-1 32.630453729705657 21.44735102369388 3.6865030911060916 0 0 1 I I #
coedge $-1 $574 $304 $309 $456 reversed $296 $-1 #
vertex $-1 $305 $584 #
straight-curve $-1 18.172567502069654 -21.44735102369388 5.8483103976318676 1 0 0 I I #
coedge $-1 $306 $445 $308 $455 forward $437 $-1 #
straight-curve $-1 18.172567502069654 21.44735102369388 5.8483103976318676 -1 0 0 I I #
coedge $-1 $309 $308 $576 $585 reversed $310 $-1 #
edge $-1 $586 -8.8977019667924999 $312 -5.8483103976318676 $308 $587 forward 7 unknown #
edge $-1 $588 -8.8977019667924999 $311 -5.8483103976318676 $309 $589 forward 7 unknown #
point $-1 40.05981627857296 -21.44735102369388 5.8483103976318676 #
point $-1 40.05981627857296 21.44735102369388 5.8483103976318676 #
loop $-1 $-1 $322 $314 #
plane-surface $-1 32.630453729705657 0 7.3730061822121833 1 0 0 0 0 -1 forward_v I I I I #
coedge $-1 $466 $590 $318 $462 forward $315 $-1 #
edge $-1 $464 17.454584621777048 $472 25.147619720569942 $461 $591 forward 7 unknown #
coedge $-1 $325 $319 $590 $592 forward $188 $-1 #
vertex $-1 $592 $593 #
straight-curve $-1 24.135402349151221 -41.411275496376227 8.8977019667924999 0 -1 0 I I #
coedge $-1 $594 $461 $321 $467 forward $315 $-1 #
edge $-1 $472 9.9439383294370032 $470 18.438989709991432 $466 $595 forward 7 unknown #
coedge $-1 $469 $322 $325 $474 reversed $459 $-1 #
coedge $-1 $322 $468 $594 $596 reversed $459 $-1 #
vertex $-1 $596 $597 #
straight-curve $-1 32.630453729705657 -15.497929671121318 8.2949113244157644 0 0.64278759981090572 0.76604445140561861 I I #
vertex $-1 $467 $598 #
straight-curve $-1 24.135402349151221 -21.447351023693891 1.2046668679995918 0 0.64278759981090561 0.7660444514056185 I I #
edge $-1 $599 -21.44735102369388 $326 -14.992128278668371 $325 $600 forward 7 unknown #
point $-1 32.630453729705657 -14.992128278668371 8.8977019667924999 #
point $-1 24.135402349151221 -14.992128278668368 8.8977019667924999 #
edge $-1 $601 1 $601 0 $329 $-1 forward 7 unknown #
vertex $-1 $330 $602 #
ellipse-curve $-1 28.382928039428435 -15.50684771020358 2.7747978498965087 0 -0.7660444514056185 0.64278759981090561 2 0 0 1 I I #
point $-1 30.382928039428435 -18.219739651181115 5.0511844173960405 #
plane-surface $-1 0 0 8.8977019667924999 0 0 1 1 0 0 forward_v I I I I #
coedge $-1 $492 $491 $484 $603 forward $334 $-1 #
coedge $-1 $484 $336 $338 $488 reversed $203 $-1 #
coedge $-1 $336 $483 $482 $603 reversed $203 $-1 #
coedge $-1 $344 $339 $336 $486 forward $345 $-1 #
edge $-1 $489 -10.199742933000188 $604 -4.6954911988729116 $485 $605 forward 7 unknown #
coedge $-1 $338 $337 $492 $606 reversed $126 $-1 #
edge $-1 $607 -42.89470204738776 $489 -34.668726793116896 $483 $608 forward 7 unknown #
vertex $-1 $340 $609 #
straight-curve $-1 -10.58150231028246 15.9430992895666 8.8977019667925035 1 0 0 I I #
coedge $-1 $482 $341 $344 $496 reversed $334 $-1 #
coedge $-1 $341 $482 $487 $606 forward $334 $-1 #
vertex $-1 $342 $610 #
straight-curve $-1 -26.127131601893993 21.44735102369388 44.136042376710471 0 0 1 I I #
straight-curve $-1 -26.127131601893993 -7.2548065723460411 34.661587176085384 0 0.66913059716165679 -0.74314483375859142 I I #
edge $-1 $604 16.198877639235846 $346 26.127131601893993 $491 $611 forward 7 unknown #
point $-1 -26.127131601893993 21.44735102369388 8.8977019667924999 #
point $-1 -26.127131601893993 15.943099289566604 8.8977019667924999 #
edge $-1 $612 1 $612 0 $349 $-1 forward 7 unknown #
vertex $-1 $350 $613 #
ellipse-curve $-1 -24.14148080936236 17.952080322871652 5.1720258632121459 0 0.74314483375859142 0.66913059716165679 0.5 0 0 1 I I #
point $-1 -23.64148080936236 18.695225156630244 5.8411564603738029 #
edge $-1 $614 1 $614 0 $353 $-1 forward 7 unknown #
vertex $-1 $354 $615 #
ellipse-curve $-1 -21.163004620564916 17.952080322871652 5.1720258632121459 0 0.74314483375859142 0.66913059716165679 0.5 0 0 1 I I #
point $-1 -20.663004620564916 18.695225156630244 5.8411564603738029 #
edge $-1 $616 1 $616 0 $357 $-1 forward 7 unknown #
vertex $-1 $358 $617 #
ellipse-curve $-1 -18.184528431767472 17.952080322871652 5.1720258632121459 0 0.74314483375859142 0.66913059716165679 0.5 0 0 1 I I #
point $-1 -17.684528431767472 18.695225156630244 5.8411564603738029 #
loop $-1 $-1 $369 $361 #
plane-surface $-1 0 21.44735102369388 0 0 -1 0 0 0 -1 forward_v I I I I #
coedge $-1 $514 $364 $366 $518 reversed $232 $-1 #
coedge $-1 $364 $513 $618 $619 reversed $232 $-1 #
coedge $-1 $372 $367 $364 $516 forward $362 $-1 #
edge $-1 $519 -10.199742933000188 $620 -4.6954911988729116 $515 $621 forward 7 unknown #
coedge $-1 $366 $365 $522 $622 reversed $145 $-1 #
edge $-1 $623 -42.89470204738776 $519 -34.668726793116896 $513 $624 forward 7 unknown #
vertex $-1 $368 $625 #
straight-curve $-1 5.7337245545703652 15.9430992895666 8.8977019667925035 1 0 0 I I #
coedge $-1 $618 $369 $372 $526 reversed $511 $-1 #
coedge $-1 $369 $618 $517 $622 forward $511 $-1 #
vertex $-1 $370 $626 #
straight-curve $-1 6.5033221278116589 21.44735102369388 44.136042376710471 0 0 1 I I #
straight-curve $-1 6.5033221278116589 -7.2548065723460411 34.661587176085384 0 0.66913059716165679 -0.74314483375859142 I I #
edge $-1 $620 -16.431576090469804 $373 -6.5033221278116589 $521 $627 forward 7 unknown #
point $-1 6.5033221278116589 21.44735102369388 8.8977019667924999 #
point $-1 6.5033221278116589 15.943099289566604 8.8977019667924999 #
edge $-1 $628 1 $628 0 $376 $-1 forward 7 unknown #
vertex $-1 $377 $629 #
ellipse-curve $-1 8.4889729203432864 17.952080322871652 5.1720258632121459 0 0.74314483375859142 0.66913059716165679 0.5 0 0 1 I I #
point $-1 8.9889729203432864 18.695225156630244 5.8411564603738029 #
edge $-1 $630 1 $630 0 $380 $-1 forward 7 unknown #
vertex $-1 $381 $631 #
ellipse-curve $-1 11.46744910914073 17.952080322871652 5.1720258632121459 0 0.74314483375859142 0.66913059716165679 0.5 0 0 1 I I #
point $-1 11.96744910914073 18.695225156630244 5.8411564603738029 #
edge $-1 $632 1 $632 0 $384 $-1 forward 7 unknown #
vertex $-1 $385 $633 #
ellipse-curve $-1 14.445925297938174 17.952080322871652 5.1720258632121459 0 0.74314483375859142 0.66913059716165679 0.5 0 0 1 I I #
point $-1 14.945925297938174 18.695225156630244 5.8411564603738029 #
plane-surface $-1 40.059816278572953 0 0 -1 0 0 0 0 1 forward_v I I I I #
coedge $-1 $393 $391 $395 $546 reversed $261 $-1 #
edge $-1 $406 -8.8977019667924999 $548 8.8977019667924999 $405 $634 forward 7 unknown #
vertex $-1 $546 $635 #
straight-curve $-1 -40.059816278572953 -21.44735102369388 0 0 0 -1 I I #
edge $-1 $544 -21.44735102369388 $548 21.44735102369388 $542 $636 forward 7 unknown #
straight-curve $-1 0 -21.44735102369388 -8.8977019667924999 -1 0 0 I I #
vertex $-1 $398 $637 #
straight-curve $-1 0 21.44735102369388 -8.8977019667924999 1 0 0 I I #
point $-1 40.059816278572953 21.44735102369388 -8.8977019667924999 #
point $-1 40.059816278572953 -21.44735102369388 -8.8977019667924999 #
straight-curve $-1 -40.059816278572953 0 8.8977019667924999 0 -1 0 I I #
point $-1 -40.059816278572953 21.44735102369388 8.8977019667924999 #
point $-1 -40.059816278572953 -21.44735102369388 8.8977019667924999 #
straight-curve $-1 40.059816278572953 -21.44735102369388 0 0 0 -1 I I #
straight-curve $-1 40.059816278572953 21.44735102369388 0 0 0 -1 I I #
plane-surface $-1 0 -21.44735102369388 0 0 1 0 0 0 1 forward_v I I I I #
coedge $-1 $638 $418 $428 $569 reversed $280 $-1 #
coedge $-1 $418 $638 $431 $571 forward $280 $-1 #
coedge $-1 $639 $421 $419 $561 forward $416 $-1 #
edge $-1 $562 32.63045372970565 $640 40.059816278572953 $419 $641 forward 7 unknown #
vertex $-1 $561 $642 #
straight-curve $-1 -32.63045372970565 21.44735102369388 3.6865030911060916 0 0 -1 I I #
coedge $-1 $421 $639 $423 $566 forward $416 $-1 #
straight-curve $-1 -32.63045372970565 0 8.8977019667924999 0 1 0 I I #
edge $-1 $643 -40.059816278572953 $425 -32.63045372970565 $423 $644 forward 7 unknown #
point $-1 -32.63045372970565 -21.44735102369388 8.8977019667924999 #
straight-curve $-1 -40.059816278572953 0 5.8483103976318676 0 -1 0 I I #
edge $-1 $643 -8.8977019667924999 $429 -5.8483103976318676 $558 $645 forward 7 unknown #
point $-1 -40.059816278572953 -21.44735102369388 5.8483103976318676 #
edge $-1 $640 -8.8977019667924999 $432 -5.8483103976318676 $431 $646 forward 7 unknown #
point $-1 -40.059816278572953 21.44735102369388 5.8483103976318676 #
plane-surface $-1 40.059816278572953 0 0 -1 0 0 0 0 1 forward_v I I I I #
coedge $-1 $439 $449 $440 $577 reversed $296 $-1 #
edge $-1 $579 -5.2111988756864083 $450 -2.1618073065257759 $439 $647 forward 7 unknown #
coedge $-1 $441 $440 $454 $585 forward $180 $-1 #
edge $-1 $579 32.630453729705657 $588 40.059816278572953 $574 $648 forward 7 unknown #
edge $-1 $586 -40.059816278572953 $447 -32.630453729705657 $445 $649 forward 7 unknown #
vertex $-1 $577 $650 #
straight-curve $-1 32.630453729705657 0 8.8977019667924999 0 -1 0 I I #
straight-curve $-1 32.630453729705657 0 5.8483103976318676 0 1 0 I I #
point $-1 32.630453729705657 21.44735102369388 5.8483103976318676 #
point $-1 32.630453729705657 21.44735102369388 8.8977019667924999 #
point $-1 32.630453729705657 -21.44735102369388 5.8483103976318676 #
edge $-1 $588 -21.44735102369388 $586 21.44735102369388 $454 $651 forward 7 unknown #
vertex $-1 $585 $652 #
straight-curve $-1 40.059816278572953 21.44735102369388 0 0 0 -1 I I #
vertex $-1 $585 $653 #
straight-curve $-1 40.059816278572953 -21.44735102369388 0 0 0 -1 I I #
coedge $-1 $461 $594 $463 $592 reversed $315 $-1 #
straight-curve $-1 24.135402349151221 -21.44735102369388 26.352286588569548 0 0 -1 I I #
edge $-1 $464 24.135402349151221 $599 32.630453729705657 $590 $654 forward 7 unknown #
point $-1 24.135402349151221 -21.44735102369388 8.8977019667924999 #
coedge $-1 $590 $466 $469 $596 forward $315 $-1 #
straight-curve $-1 14.191464019714218 -21.44735102369388 1.2046668679996011 1 0 0 I I #
edge $-1 $470 -25.147619720569942 $599 -17.454584621777048 $594 $655 forward 7 unknown #
point $-1 32.63045372970565 -21.44735102369388 1.2046668679996044 #
point $-1 24.135402349151221 -21.44735102369388 1.2046668679996044 #
vertex $-1 $474 $656 #
straight-curve $-1 32.630453729705657 0 8.8977019667924999 0 1 0 I I #
vertex $-1 $477 $657 #
point $-1 30.382928039428435 -15.50684771020358 2.7747978498965087 #
edge $-1 $604 35.238340409917967 $607 41.351431422755383 $482 $658 forward 7 unknown #
vertex $-1 $496 $659 #
straight-curve $-1 -16.198877639235846 26.142842222566792 8.8977019667924964 0 1 0 I I #
edge $-1 $607 5.6173753289533863 $493 15.545629291611533 $492 $660 forward 7 unknown #
vertex $-1 $606 $661 #
straight-curve $-1 -16.198877639235846 -7.2548065723460411 34.661587176085384 0 -0.66913059716165679 0.74314483375859142 I I #
point $-1 -16.198877639235846 15.943099289566604 8.8977019667924999 #
point $-1 -26.127131601893993 21.447351023693876 2.7846109539550916 #
straight-curve $-1 0 21.44735102369388 8.8977019667924999 -1 0 0 I I #
vertex $-1 $499 $662 #
point $-1 -23.64148080936236 17.952080322871652 5.1720258632121459 #
vertex $-1 $503 $663 #
point $-1 -20.663004620564916 17.952080322871652 5.1720258632121459 #
vertex $-1 $507 $664 #
point $-1 -17.684528431767472 17.952080322871652 5.1720258632121459 #
coedge $-1 $522 $521 $514 $619 forward $511 $-1 #
edge $-1 $620 35.238340409917967 $623 41.351431422755383 $618 $665 forward 7 unknown #
vertex $-1 $526 $666 #
straight-curve $-1 16.431576090469804 26.142842222566792 8.8977019667924964 0 1 0 I I #
edge $-1 $623 -10.697851535899439 $523 -0.76959757324129363 $522 $667 forward 7 unknown #
vertex $-1 $622 $668 #
straight-curve $-1 16.431576090469804 -7.2548065723460411 34.661587176085384 0 -0.66913059716165679 0.74314483375859142 I I #
point $-1 16.431576090469804 15.943099289566604 8.8977019667924999 #
point $-1 6.5033221278116589 21.447351023693876 2.7846109539550916 #
straight-curve $-1 0 21.44735102369388 8.8977019667924999 -1 0 0 I I #
vertex $-1 $529 $669 #
point $-1 8.9889729203432864 17.952080322871652 5.1720258632121459 #
vertex $-1 $533 $670 #
point $-1 11.96744910914073 17.952080322871652 5.1720258632121459 #
vertex $-1 $537 $671 #
point $-1 14.945925297938174 17.952080322871652 5.1720258632121459 #
straight-curve $-1 -40.059816278572953 21.44735102369388 0 0 0 -1 I I #
point $-1 -40.059816278572953 -21.44735102369388 -8.8977019667924999 #
straight-curve $-1 -40.059816278572953 0 -8.8977019667924999 0 1 0 I I #
point $-1 -40.059816278572953 21.44735102369388 -8.8977019667924999 #
coedge $-1 $559 $558 $639 $672 reversed $280 $-1 #
coedge $-1 $564 $560 $638 $672 forward $416 $-1 #
vertex $-1 $561 $673 #
straight-curve $-1 0 21.44735102369388 8.8977019667924999 -1 0 0 I I #
point $-1 -32.63045372970565 21.44735102369388 8.8977019667924999 #
vertex $-1 $672 $674 #
straight-curve $-1 0 -21.44735102369388 8.8977019667924999 1 0 0 I I #
straight-curve $-1 -40.059816278572953 -21.44735102369388 0 0 0 -1 I I #
straight-curve $-1 -40.059816278572953 21.44735102369388 0 0 0 -1 I I #
straight-curve $-1 32.630453729705657 -21.44735102369388 3.6865030911060916 0 0 -1 I I #
straight-curve $-1 0 -21.44735102369388 8.8977019667924999 1 0 0 I I #
straight-curve $-1 0 21.44735102369388 8.8977019667924999 -1 0 0 I I #
point $-1 32.630453729705657 -21.44735102369388 8.8977019667924999 #
straight-curve $-1 40.059816278572953 0 8.8977019667924999 0 1 0 I I #
point $-1 40.059816278572953 21.44735102369388 8.8977019667924999 #
point $-1 40.059816278572953 -21.44735102369388 8.8977019667924999 #
straight-curve $-1 0 -21.44735102369388 8.8977019667924999 1 0 0 I I #
straight-curve $-1 32.63045372970565 -21.44735102369388 26.352286588569548 0 0 1 I I #
point $-1 32.630453729705657 -21.44735102369388 8.8977019667924999 #
point $-1 28.382928039428435 -13.974758807392345 1.4892226502746975 #
straight-curve $-1 -16.198877639235846 21.44735102369388 44.136042376710471 0 0 -1 I I #
point $-1 -16.198877639235846 21.44735102369388 8.8977019667924999 #
straight-curve $-1 -10.58150231028246 21.44735102369388 2.7846109539550916 -1 0 0 I I #
point $-1 -16.198877639235846 21.447351023693876 2.7846109539550916 #
point $-1 -24.14148080936236 17.580507905992356 4.8374605646313169 #
point $-1 -21.163004620564916 17.580507905992356 4.8374605646313169 #
point $-1 -18.184528431767472 17.580507905992356 4.8374605646313169 #
straight-curve $-1 16.431576090469804 21.44735102369388 44.136042376710471 0 0 -1 I I #
point $-1 16.431576090469804 21.44735102369388 8.8977019667924999 #
straight-curve $-1 5.7337245545703652 21.44735102369388 2.7846109539550916 -1 0 0 I I #
point $-1 16.431576090469804 21.447351023693876 2.7846109539550916 #
point $-1 8.4889729203432864 17.580507905992356 4.8374605646313169 #
point $-1 11.46744910914073 17.580507905992356 4.8374605646313169 #
point $-1 14.445925297938174 17.580507905992356 4.8374605646313169 #
edge $-1 $640 -21.44735102369388 $643 21.44735102369388 $638 $675 forward 7 unknown #
point $-1 -40.059816278572953 21.44735102369388 8.8977019667924999 #
point $-1 -40.059816278572953 -21.44735102369388 8.8977019667924999 #
straight-curve $-1 -40.059816278572953 0 8.8977019667924999 0 -1 0 I I #
End-of-ACIS-data 