500 0 7 0           
7 Unknown 11 ACIS 5.0 NT 24 Fri Mar 26 01:55:57 1999 
-1 9.9999999999999995e-007 1e-010 
body $-1 $7 $-1 $8 #
body $-1 $9 $-1 $10 #
body $-1 $11 $-1 $12 #
body $-1 $13 $-1 $14 #
body $-1 $15 $-1 $16 #
body $-1 $17 $-1 $18 #
body $-1 $19 $-1 $20 #
lump $-1 $-1 $21 $0 #
transform $-1 1 0 0 0 1 0 0 0 1 42.021546067690053 27.174027169002702 12.905320102250299 1 rotate no_reflect no_shear #
lump $-1 $-1 $22 $1 #
transform $-1 1 0 0 0 1 0 0 0 1 42.021546067690053 27.174027169002702 12.905320102250299 1 rotate no_reflect no_shear #
lump $-1 $-1 $23 $2 #
transform $-1 1 0 0 0 1 0 0 0 1 42.021546067690053 27.174027169002702 12.905320102250299 1 rotate no_reflect no_shear #
lump $-1 $-1 $24 $3 #
transform $-1 1 0 0 0 1 0 0 0 1 42.021546067690053 27.174027169002702 12.905320102250299 1 rotate no_reflect no_shear #
lump $-1 $-1 $25 $4 #
transform $-1 1 0 0 0 1 0 0 0 1 42.021546067690053 27.174027169002702 12.905320102250299 1 rotate no_reflect no_shear #
lump $-1 $-1 $26 $5 #
transform $-1 1 0 0 0 1 0 0 0 1 42.021546067690053 27.174027169002702 12.905320102250299 1 rotate no_reflect no_shear #
lump $-1 $-1 $27 $6 #
transform $-1 1 0 0 0 1 0 0 0 1 42.021546067690053 27.174027169002702 12.905320102250299 1 rotate no_reflect no_shear #
shell $-1 $-1 $-1 $28 $-1 $7 #
shell $-1 $-1 $-1 $29 $-1 $9 #
shell $-1 $-1 $-1 $30 $-1 $11 #
shell $-1 $-1 $-1 $31 $-1 $13 #
shell $-1 $-1 $-1 $32 $-1 $15 #
shell $-1 $-1 $-1 $33 $-1 $17 #
shell $-1 $-1 $-1 $34 $-1 $19 #
face $-1 $35 $36 $21 $-1 $37 forward single #
face $-1 $38 $39 $22 $-1 $40 forward single #
face $-1 $41 $42 $23 $-1 $43 forward single #
face $-1 $44 $45 $24 $-1 $46 reversed single #
face $-1 $47 $48 $25 $-1 $49 forward single #
face $-1 $50 $51 $26 $-1 $52 reversed single #
face $-1 $53 $54 $27 $-1 $55 forward single #
face $-1 $56 $57 $21 $-1 $58 reversed single #
loop $-1 $-1 $59 $28 #
plane-surface $-1 0 0 12.905320102250299 0 0 1 1 0 0 forward_v I I I I #
face $-1 $60 $61 $22 $-1 $62 reversed single #
loop $-1 $-1 $63 $29 #
plane-surface $-1 0 -27.174027169002702 0 0 1 0 0 0 1 forward_v I I I I #
face $-1 $64 $65 $23 $-1 $66 reversed single #
loop $-1 $-1 $67 $30 #
plane-surface $-1 0 27.174027169002702 0 0 -1 0 0 0 -1 forward_v I I I I #
face $-1 $68 $69 $24 $-1 $70 reversed single #
loop $-1 $-1 $71 $31 #
plane-surface $-1 25.480144876248801 -2.9970142271503892 120.60567248328641 0 -1 0 -0.6018150307709319 0 -0.79863550430605224 forward_v I I I I #
face $-1 $72 $73 $25 $-1 $74 forward single #
loop $-1 $75 $76 $32 #
cone-surface $-1 35.058333153299856 -6.3907050674249675 7.4692425263742841 -0.6018150307709319 0 -0.79863550430605224 0.79863550430605224 0 -0.6018150307709319 1 I I 0 1 1 forward I I I I #
face $-1 $77 $78 $26 $-1 $79 reversed single #
loop $-1 $-1 $80 $33 #
plane-surface $-1 25.480144876248801 9.7843959076995386 120.60567248328641 0 -1 0 -0.6018150307709319 0 -0.79863550430605224 forward_v I I I I #
face $-1 $81 $82 $27 $-1 $83 forward single #
loop $-1 $84 $85 $34 #
cone-surface $-1 35.058333153299856 6.3907050674249639 7.4692425263742841 -0.6018150307709319 0 -0.79863550430605224 0.79863550430605224 0 -0.6018150307709319 1 I I 0 1 1 forward I I I I #
face $-1 $86 $87 $21 $-1 $88 reversed single #
loop $-1 $-1 $89 $35 #
plane-surface $-1 0 0 -12.905320102250299 0 0 1 1 0 0 forward_v I I I I #
coedge $-1 $90 $91 $92 $93 forward $36 $-1 #
face $-1 $94 $95 $22 $-1 $96 forward single #
loop $-1 $-1 $97 $38 #
plane-surface $-1 -42.021546067690053 0 0 1 0 0 0 0 -1 forward_v I I I I #
coedge $-1 $98 $99 $100 $101 forward $39 $-1 #
face $-1 $102 $103 $23 $-1 $104 forward single #
loop $-1 $-1 $105 $41 #
plane-surface $-1 42.021546067690053 0 0 -1 0 0 0 0 1 forward_v I I I I #
coedge $-1 $106 $107 $108 $109 forward $42 $-1 #
face $-1 $110 $111 $24 $-1 $112 reversed single #
loop $-1 $-1 $113 $44 #
plane-surface $-1 -25.098251203289244 -6.390705067424971 53.485875212307107 0.6018150307709319 0 0.79863550430605224 0.79863550430605224 0 -0.6018150307709319 forward_v I I I I #
coedge $-1 $114 $115 $116 $117 reversed $45 $-1 #
face $-1 $-1 $118 $25 $-1 $119 forward single #
loop $-1 $120 $121 $47 #
cone-surface $-1 34.428004134819588 -6.3907050674249675 6.6327676830858682 -0.6018150307709319 0 -0.79863550430605224 0.39931775215302612 0 -0.30090751538546595 1 I I -0.70710678118654746 0.70710678118654746 0.5 forward I I I I #
loop $-1 $-1 $122 $32 #
coedge $-1 $76 $76 $123 $124 reversed $48 $-1 #
face $-1 $125 $126 $26 $-1 $127 reversed single #
loop $-1 $-1 $128 $50 #
plane-surface $-1 -25.098251203289244 6.3907050674249568 53.485875212307107 0.6018150307709319 0 0.79863550430605224 0.79863550430605224 0 -0.6018150307709319 forward_v I I I I #
coedge $-1 $129 $130 $131 $132 reversed $51 $-1 #
face $-1 $-1 $133 $27 $-1 $134 forward single #
loop $-1 $135 $136 $53 #
cone-surface $-1 34.428004134819588 6.3907050674249639 6.6327676830858682 -0.6018150307709319 0 -0.79863550430605224 0.39931775215302612 0 -0.30090751538546595 1 I I -0.70710678118654746 0.70710678118654746 0.5 forward I I I I #
loop $-1 $-1 $137 $34 #
coedge $-1 $85 $85 $138 $139 reversed $54 $-1 #
face $-1 $140 $141 $21 $-1 $142 reversed single #
loop $-1 $-1 $143 $56 #
plane-surface $-1 0 -27.174027169002702 0 0 1 0 0 0 1 forward_v I I I I #
coedge $-1 $144 $145 $146 $147 forward $57 $-1 #
coedge $-1 $148 $59 $149 $150 forward $36 $-1 #
coedge $-1 $59 $148 $151 $152 forward $36 $-1 #
coedge $-1 $153 $154 $59 $93 reversed $155 $-1 #
edge $-1 $156 -27.174027169002702 $157 27.174027169002702 $92 $158 forward 7 unknown #
face $-1 $159 $160 $22 $-1 $161 reversed single #
loop $-1 $-1 $162 $60 #
plane-surface $-1 0 -33.218062730266539 -9.0099294774906369 0 0 1 1 0 0 forward_v I I I I #
coedge $-1 $163 $164 $99 $165 forward $61 $-1 #
coedge $-1 $166 $63 $167 $168 reversed $39 $-1 #
coedge $-1 $63 $166 $97 $165 reversed $39 $-1 #
coedge $-1 $169 $162 $63 $101 reversed $95 $-1 #
edge $-1 $170 -42.021546067690053 $171 42.021546067690053 $100 $172 forward 7 unknown #
face $-1 $173 $174 $23 $-1 $175 reversed single #
loop $-1 $-1 $176 $64 #
plane-surface $-1 0 33.218062730266539 -9.0099294774906369 0 0 1 1 0 0 forward_v I I I I #
coedge $-1 $177 $178 $107 $179 forward $65 $-1 #
coedge $-1 $180 $67 $181 $182 reversed $42 $-1 #
coedge $-1 $67 $180 $105 $179 reversed $42 $-1 #
coedge $-1 $176 $183 $67 $109 reversed $103 $-1 #
edge $-1 $184 -42.021546067690053 $185 42.021546067690053 $108 $186 forward 7 unknown #
face $-1 $187 $188 $24 $-1 $189 forward single #
loop $-1 $-1 $190 $68 #
plane-surface $-1 25.480144876248801 -9.7843959076995528 120.60567248328641 0 1 0 0.6018150307709319 0 0.79863550430605224 forward_v I I I I #
coedge $-1 $191 $192 $193 $194 reversed $69 $-1 #
coedge $-1 $115 $71 $195 $196 reversed $45 $-1 #
coedge $-1 $71 $114 $191 $197 reversed $45 $-1 #
coedge $-1 $193 $198 $71 $117 forward $188 $-1 #
edge $-1 $199 -29.281473629565653 $200 -16.013890806974885 $116 $201 forward 7 unknown #
loop $-1 $-1 $123 $72 #
plane-surface $-1 -25.098251203289244 -6.390705067424971 53.485875212307107 0.6018150307709319 0 0.79863550430605224 0.79863550430605224 0 -0.6018150307709319 forward_v I I I I #
loop $-1 $-1 $202 $47 #
coedge $-1 $121 $121 $122 $203 reversed $73 $-1 #
coedge $-1 $122 $122 $121 $203 forward $75 $-1 #
coedge $-1 $123 $123 $76 $124 forward $118 $-1 #
edge $-1 $204 0 $204 6.2831853071796004 $123 $205 forward 7 unknown #
face $-1 $206 $207 $26 $-1 $208 reversed single #
loop $-1 $-1 $209 $77 #
plane-surface $-1 25.480144876248801 2.997014227150375 120.60567248328641 0 1 0 0.6018150307709319 0 0.79863550430605224 forward_v I I I I #
coedge $-1 $210 $211 $212 $213 reversed $78 $-1 #
coedge $-1 $130 $80 $214 $215 reversed $51 $-1 #
coedge $-1 $80 $129 $210 $216 reversed $51 $-1 #
coedge $-1 $212 $217 $80 $132 forward $218 $-1 #
edge $-1 $219 -29.281473629565653 $220 -16.013890806974885 $131 $221 forward 7 unknown #
loop $-1 $-1 $138 $81 #
plane-surface $-1 -25.098251203289244 6.3907050674249568 53.485875212307107 0.6018150307709319 0 0.79863550430605224 0.79863550430605224 0 -0.6018150307709319 forward_v I I I I #
loop $-1 $-1 $222 $53 #
coedge $-1 $136 $136 $137 $223 reversed $82 $-1 #
coedge $-1 $137 $137 $136 $223 forward $84 $-1 #
coedge $-1 $138 $138 $85 $139 forward $133 $-1 #
edge $-1 $224 0 $224 6.2831853071796004 $138 $225 forward 7 unknown #
face $-1 $226 $227 $21 $-1 $228 reversed single #
loop $-1 $-1 $229 $86 #
plane-surface $-1 -42.021546067690053 0 0 1 0 0 0 0 -1 forward_v I I I I #
coedge $-1 $230 $151 $231 $232 forward $87 $-1 #
coedge $-1 $233 $89 $230 $234 forward $57 $-1 #
coedge $-1 $89 $233 $235 $236 forward $57 $-1 #
coedge $-1 $154 $153 $89 $147 reversed $155 $-1 #
edge $-1 $237 -27.174027169002702 $238 27.174027169002702 $146 $239 forward 7 unknown #
coedge $-1 $91 $90 $240 $241 forward $36 $-1 #
coedge $-1 $242 $243 $90 $150 reversed $227 $-1 #
edge $-1 $157 -42.021546067690053 $244 42.021546067690053 $149 $245 forward 7 unknown #
coedge $-1 $143 $246 $91 $152 reversed $87 $-1 #
edge $-1 $247 -42.021546067690053 $156 42.021546067690053 $151 $248 forward 7 unknown #
coedge $-1 $146 $92 $246 $249 forward $155 $-1 #
coedge $-1 $92 $146 $242 $250 reversed $155 $-1 #
loop $-1 $-1 $153 $226 #
vertex $-1 $93 $251 #
vertex $-1 $93 $252 #
straight-curve $-1 42.021546067690053 0 12.905320102250299 0 1 0 I I #
face $-1 $253 $254 $22 $-1 $255 reversed single #
loop $-1 $-1 $256 $94 #
plane-surface $-1 0 -33.218062730266539 -12.4053201022503 0 0 1 1 0 0 forward_v I I I I #
coedge $-1 $100 $257 $258 $259 forward $95 $-1 #
coedge $-1 $260 $97 $261 $262 reversed $61 $-1 #
coedge $-1 $97 $260 $169 $263 reversed $61 $-1 #
edge $-1 $170 9.0099294774906369 $264 12.4053201022503 $97 $265 forward 7 unknown #
coedge $-1 $99 $98 $266 $267 forward $39 $-1 #
coedge $-1 $258 $268 $98 $168 forward $269 $-1 #
edge $-1 $270 -12.4053201022503 $171 -9.0099294774906369 $167 $271 forward 7 unknown #
coedge $-1 $257 $100 $164 $263 forward $95 $-1 #
vertex $-1 $165 $272 #
vertex $-1 $259 $273 #
straight-curve $-1 0 -27.174027169002702 -9.0099294774906369 1 0 0 I I #
face $-1 $274 $275 $23 $-1 $276 reversed single #
loop $-1 $-1 $277 $102 #
plane-surface $-1 0 33.218062730266539 -12.4053201022503 0 0 1 1 0 0 forward_v I I I I #
coedge $-1 $278 $108 $178 $279 forward $103 $-1 #
coedge $-1 $280 $105 $277 $281 reversed $65 $-1 #
coedge $-1 $105 $280 $176 $279 reversed $65 $-1 #
edge $-1 $184 9.0099294774906369 $282 12.4053201022503 $105 $283 forward 7 unknown #
coedge $-1 $107 $106 $284 $285 forward $42 $-1 #
coedge $-1 $286 $287 $106 $182 forward $288 $-1 #
edge $-1 $289 -12.4053201022503 $185 -9.0099294774906369 $181 $290 forward 7 unknown #
coedge $-1 $108 $278 $286 $291 forward $103 $-1 #
vertex $-1 $179 $292 #
vertex $-1 $291 $293 #
straight-curve $-1 0 27.174027169002702 -9.0099294774906369 -1 0 0 I I #
face $-1 $-1 $294 $24 $-1 $295 reversed single #
loop $-1 $-1 $116 $110 #
plane-surface $-1 0 0 12.905320102250299 0 0 1 1 0 0 forward_v I I I I #
coedge $-1 $296 $297 $298 $299 reversed $111 $-1 #
coedge $-1 $300 $113 $115 $197 forward $69 $-1 #
coedge $-1 $113 $300 $296 $301 forward $69 $-1 #
coedge $-1 $298 $116 $113 $194 forward $188 $-1 #
edge $-1 $200 -0.19833830656209628 $302 6.5890433739870673 $193 $303 forward 7 unknown #
coedge $-1 $304 $305 $114 $196 forward $294 $-1 #
edge $-1 $306 -57.395357108874137 $199 -47.397516139392906 $195 $307 forward 7 unknown #
edge $-1 $200 67.43027846624679 $306 84.043092135380107 $115 $308 forward 7 unknown #
coedge $-1 $116 $298 $304 $309 forward $188 $-1 #
vertex $-1 $196 $310 #
vertex $-1 $117 $311 #
straight-curve $-1 12.7400724381244 -2.9970142271503892 12.9053201022503 -1 0 0 I I #
coedge $-1 $202 $202 $-1 $312 reversed $120 $-1 #
edge $-1 $313 0 $313 6.2831853071796004 $121 $314 forward 7 unknown #
vertex $-1 $124 $315 #
ellipse-curve $-1 35.387754656394662 -6.3907050674249675 7.9063996175096793 0.6018150307709319 0 0.79863550430605224 0.79863550430605224 0 -0.6018150307709319 1 I I #
face $-1 $-1 $218 $26 $-1 $316 forward single #
loop $-1 $-1 $317 $125 #
plane-surface $-1 42.021546067690053 0 0 -1 0 0 0 0 1 forward_v I I I I #
coedge $-1 $318 $319 $320 $321 reversed $126 $-1 #
coedge $-1 $322 $128 $130 $216 forward $78 $-1 #
coedge $-1 $128 $322 $318 $323 forward $78 $-1 #
coedge $-1 $320 $131 $128 $213 forward $218 $-1 #
edge $-1 $220 -6.5890433739870602 $324 0.19833830656210338 $212 $325 forward 7 unknown #
coedge $-1 $326 $327 $129 $215 forward $207 $-1 #
edge $-1 $328 -57.395357108874137 $219 -47.397516139392906 $214 $329 forward 7 unknown #
edge $-1 $220 67.43027846624679 $328 84.043092135380107 $130 $330 forward 7 unknown #
coedge $-1 $131 $320 $326 $331 forward $218 $-1 #
loop $-1 $-1 $320 $206 #
vertex $-1 $215 $332 #
vertex $-1 $132 $333 #
straight-curve $-1 12.7400724381244 9.7843959076995386 12.9053201022503 -1 0 0 I I #
coedge $-1 $222 $222 $-1 $334 reversed $135 $-1 #
edge $-1 $335 0 $335 6.2831853071796004 $136 $336 forward 7 unknown #
vertex $-1 $139 $337 #
ellipse-curve $-1 35.387754656394662 6.3907050674249639 7.9063996175096793 0.6018150307709319 0 0.79863550430605224 0.79863550430605224 0 -0.6018150307709319 1 I I #
face $-1 $-1 $155 $21 $-1 $338 reversed single #
loop $-1 $-1 $243 $140 #
plane-surface $-1 0 27.174027169002702 0 0 -1 0 0 0 -1 forward_v I I I I #
coedge $-1 $339 $240 $243 $340 forward $141 $-1 #
coedge $-1 $246 $143 $144 $234 reversed $87 $-1 #
coedge $-1 $240 $339 $143 $232 reversed $141 $-1 #
edge $-1 $247 -12.905320102250299 $341 12.905320102250299 $231 $342 forward 7 unknown #
coedge $-1 $145 $144 $339 $343 forward $57 $-1 #
edge $-1 $238 -42.021546067690053 $341 42.021546067690053 $230 $344 forward 7 unknown #
coedge $-1 $243 $242 $145 $236 reversed $227 $-1 #
edge $-1 $345 -42.021546067690053 $237 42.021546067690053 $235 $346 forward 7 unknown #
vertex $-1 $147 $347 #
vertex $-1 $249 $348 #
straight-curve $-1 42.021546067690053 0 -12.905320102250299 0 -1 0 I I #
coedge $-1 $229 $231 $148 $241 reversed $141 $-1 #
edge $-1 $244 -27.174027169002702 $247 27.174027169002702 $240 $349 forward 7 unknown #
coedge $-1 $235 $149 $154 $250 forward $227 $-1 #
coedge $-1 $149 $235 $229 $340 reversed $227 $-1 #
vertex $-1 $150 $350 #
straight-curve $-1 0 27.174027169002702 12.905320102250299 -1 0 0 I I #
coedge $-1 $151 $230 $153 $249 reversed $87 $-1 #
vertex $-1 $241 $351 #
straight-curve $-1 0 -27.174027169002702 12.905320102250299 1 0 0 I I #
edge $-1 $156 -12.905320102250299 $238 12.905320102250299 $153 $352 forward 7 unknown #
edge $-1 $157 -12.905320102250299 $237 12.905320102250299 $154 $353 forward 7 unknown #
point $-1 42.021546067690053 -27.174027169002702 12.905320102250299 #
point $-1 42.021546067690053 27.174027169002702 12.905320102250299 #
face $-1 $-1 $269 $22 $-1 $354 reversed single #
loop $-1 $-1 $355 $159 #
plane-surface $-1 0 -39.262098291530371 -10.707624789870469 0 1 0 0 0 1 forward_v I I I I #
coedge $-1 $356 $266 $268 $357 forward $160 $-1 #
coedge $-1 $162 $169 $358 $359 forward $95 $-1 #
coedge $-1 $360 $167 $162 $259 reversed $269 $-1 #
edge $-1 $361 -6.0440355612638328 $171 6.0440355612638328 $258 $362 forward 7 unknown #
coedge $-1 $164 $163 $355 $363 reversed $61 $-1 #
coedge $-1 $266 $356 $163 $262 forward $160 $-1 #
edge $-1 $364 -6.0440355612638328 $264 6.0440355612638328 $163 $365 forward 7 unknown #
edge $-1 $170 -6.0440355612638328 $366 6.0440355612638328 $164 $367 forward 7 unknown #
vertex $-1 $165 $368 #
straight-curve $-1 -42.021546067690053 -27.174027169002702 0 0 0 -1 I I #
coedge $-1 $256 $261 $166 $267 reversed $160 $-1 #
edge $-1 $270 -42.021546067690053 $264 42.021546067690053 $266 $369 forward 7 unknown #
coedge $-1 $167 $360 $256 $357 reversed $269 $-1 #
loop $-1 $-1 $167 $253 #
vertex $-1 $168 $370 #
straight-curve $-1 42.021546067690053 -27.174027169002702 0 0 0 1 I I #
point $-1 -42.021546067690053 -27.174027169002706 -9.0099294774906369 #
point $-1 42.021546067690053 -27.174027169002706 -9.0099294774906369 #
face $-1 $-1 $288 $23 $-1 $371 reversed single #
loop $-1 $-1 $372 $173 #
plane-surface $-1 0 39.262098291530378 -10.707624789870469 0 -1 0 0 0 -1 forward_v I I I I #
coedge $-1 $284 $373 $177 $281 forward $174 $-1 #
coedge $-1 $183 $176 $374 $375 forward $103 $-1 #
edge $-1 $184 -6.0440355612638363 $376 6.0440355612638399 $178 $377 forward 7 unknown #
coedge $-1 $178 $177 $372 $378 reversed $65 $-1 #
edge $-1 $379 -6.0440355612638399 $282 6.0440355612638363 $177 $380 forward 7 unknown #
vertex $-1 $179 $381 #
straight-curve $-1 42.021546067690053 27.174027169002702 0 0 0 -1 I I #
coedge $-1 $382 $277 $180 $285 reversed $174 $-1 #
edge $-1 $289 -42.021546067690053 $282 42.021546067690053 $284 $383 forward 7 unknown #
coedge $-1 $384 $181 $183 $291 reversed $288 $-1 #
coedge $-1 $181 $384 $382 $385 reversed $288 $-1 #
loop $-1 $-1 $181 $274 #
vertex $-1 $182 $386 #
straight-curve $-1 -42.021546067690053 27.174027169002702 0 0 0 1 I I #
edge $-1 $387 -6.0440355612638399 $185 6.0440355612638363 $286 $388 forward 7 unknown #
point $-1 42.021546067690053 27.174027169002702 -9.0099294774906369 #
point $-1 -42.021546067690053 27.174027169002702 -9.0099294774906369 #
loop $-1 $-1 $195 $187 #
plane-surface $-1 42.021546067690053 0 0 -1 0 0 0 0 1 forward_v I I I I #
coedge $-1 $297 $190 $192 $301 reversed $111 $-1 #
coedge $-1 $190 $296 $389 $390 reversed $111 $-1 #
coedge $-1 $198 $193 $190 $299 forward $188 $-1 #
edge $-1 $302 16.013890806974885 $391 29.281473629565653 $298 $392 forward 7 unknown #
coedge $-1 $192 $191 $305 $393 reversed $69 $-1 #
edge $-1 $394 -84.043092135380107 $302 -67.43027846624679 $296 $395 forward 7 unknown #
vertex $-1 $194 $396 #
straight-curve $-1 28.753963245099275 -3.1953525337124855 12.905320102250304 0 -1 0 I I #
coedge $-1 $389 $195 $198 $309 reversed $294 $-1 #
coedge $-1 $195 $389 $300 $393 forward $294 $-1 #
vertex $-1 $196 $397 #
straight-curve $-1 42.021546067690053 -2.9970142271503892 60.302836241643206 0 0 1 I I #
straight-curve $-1 -25.098251203289244 -2.9970142271503892 53.485875212307107 0.79863550430605224 0 -0.6018150307709319 I I #
edge $-1 $391 -9.7843959076995528 $199 -2.9970142271503892 $304 $398 forward 7 unknown #
point $-1 42.021546067690053 -2.9970142271503892 12.905320102250299 #
point $-1 28.753963245099285 -2.9970142271503892 12.9053201022503 #
edge $-1 $399 1 $399 0 $202 $-1 forward 7 unknown #
vertex $-1 $203 $400 #
ellipse-curve $-1 34.728911650205056 -6.3907050674249675 7.0320854352388942 0.6018150307709319 0 0.79863550430605224 0.79863550430605224 0 -0.6018150307709319 1 I I #
point $-1 36.186390160700711 -6.3907050674249675 7.3045845867387431 #
plane-surface $-1 0 0 12.905320102250299 0 0 1 1 0 0 forward_v I I I I #
coedge $-1 $327 $326 $319 $401 forward $207 $-1 #
coedge $-1 $319 $209 $211 $323 reversed $126 $-1 #
coedge $-1 $209 $318 $317 $401 reversed $126 $-1 #
coedge $-1 $217 $212 $209 $321 forward $218 $-1 #
edge $-1 $324 16.013890806974885 $402 29.281473629565653 $320 $403 forward 7 unknown #
coedge $-1 $211 $210 $327 $404 reversed $78 $-1 #
edge $-1 $405 -84.043092135380107 $324 -67.43027846624679 $318 $406 forward 7 unknown #
vertex $-1 $213 $407 #
straight-curve $-1 28.753963245099275 3.1953525337124784 12.905320102250304 0 -1 0 I I #
coedge $-1 $317 $214 $217 $331 reversed $207 $-1 #
coedge $-1 $214 $317 $322 $404 forward $207 $-1 #
vertex $-1 $215 $408 #
straight-curve $-1 42.021546067690053 9.7843959076995386 60.302836241643206 0 0 1 I I #
straight-curve $-1 -25.098251203289244 9.7843959076995386 53.485875212307107 0.79863550430605224 0 -0.6018150307709319 I I #
edge $-1 $402 2.997014227150375 $219 9.7843959076995386 $326 $409 forward 7 unknown #
point $-1 42.021546067690053 9.7843959076995386 12.905320102250299 #
point $-1 28.753963245099285 9.7843959076995386 12.9053201022503 #
edge $-1 $410 1 $410 0 $222 $-1 forward 7 unknown #
vertex $-1 $223 $411 #
ellipse-curve $-1 34.728911650205056 6.3907050674249639 7.0320854352388942 0.6018150307709319 0 0.79863550430605224 0.79863550430605224 0 -0.6018150307709319 1 I I #
point $-1 36.186390160700711 6.3907050674249639 7.3045845867387431 #
plane-surface $-1 42.021546067690053 0 0 -1 0 0 0 0 1 forward_v I I I I #
coedge $-1 $231 $229 $233 $343 reversed $141 $-1 #
edge $-1 $244 -12.905320102250299 $345 12.905320102250299 $243 $412 forward 7 unknown #
vertex $-1 $343 $413 #
straight-curve $-1 -42.021546067690053 -27.174027169002702 0 0 0 -1 I I #
edge $-1 $341 -27.174027169002702 $345 27.174027169002702 $339 $414 forward 7 unknown #
straight-curve $-1 0 -27.174027169002702 -12.905320102250299 -1 0 0 I I #
vertex $-1 $236 $415 #
straight-curve $-1 0 27.174027169002702 -12.905320102250299 1 0 0 I I #
point $-1 42.021546067690053 27.174027169002702 -12.905320102250299 #
point $-1 42.021546067690053 -27.174027169002702 -12.905320102250299 #
straight-curve $-1 -42.021546067690053 0 12.905320102250299 0 -1 0 I I #
point $-1 -42.021546067690053 27.174027169002702 12.905320102250299 #
point $-1 -42.021546067690053 -27.174027169002702 12.905320102250299 #
straight-curve $-1 42.021546067690053 -27.174027169002702 0 0 0 -1 I I #
straight-curve $-1 42.021546067690053 27.174027169002702 0 0 0 -1 I I #
plane-surface $-1 42.021546067690053 0 0 -1 0 0 0 0 1 forward_v I I I I #
coedge $-1 $416 $358 $260 $363 forward $254 $-1 #
coedge $-1 $261 $256 $416 $417 forward $160 $-1 #
edge $-1 $270 -6.0440355612638328 $418 6.0440355612638328 $268 $419 forward 7 unknown #
coedge $-1 $355 $420 $257 $359 reversed $254 $-1 #
edge $-1 $366 -42.021546067690053 $361 42.021546067690053 $358 $421 forward 7 unknown #
coedge $-1 $268 $258 $420 $422 forward $269 $-1 #
vertex $-1 $259 $423 #
straight-curve $-1 42.021546067690053 -33.218062730266539 -9.0099294774906369 0 1 0 I I #
edge $-1 $366 -1.6976953123798317 $364 1.6976953123798317 $260 $424 forward 7 unknown #
vertex $-1 $262 $425 #
straight-curve $-1 -42.021546067690053 -33.218062730266539 -12.4053201022503 0 1 0 I I #
vertex $-1 $263 $426 #
straight-curve $-1 -42.021546067690053 -33.218062730266539 -9.0099294774906369 0 -1 0 I I #
point $-1 -42.021546067690053 -27.174027169002706 -12.4053201022503 #
straight-curve $-1 0 -27.174027169002702 -12.4053201022503 -1 0 0 I I #
point $-1 42.021546067690053 -27.174027169002706 -12.4053201022503 #
plane-surface $-1 -42.021546067690053 0 0 1 0 0 0 0 -1 forward_v I I I I #
coedge $-1 $427 $374 $280 $378 forward $275 $-1 #
coedge $-1 $277 $382 $427 $428 forward $174 $-1 #
coedge $-1 $372 $429 $278 $375 reversed $275 $-1 #
edge $-1 $376 -42.021546067690053 $387 42.021546067690053 $374 $430 forward 7 unknown #
vertex $-1 $279 $431 #
straight-curve $-1 42.021546067690053 33.218062730266539 -9.0099294774906369 0 1 0 I I #
edge $-1 $376 -1.6976953123798317 $379 1.6976953123798317 $280 $432 forward 7 unknown #
vertex $-1 $281 $433 #
straight-curve $-1 42.021546067690053 33.218062730266539 -12.4053201022503 0 -1 0 I I #
point $-1 42.021546067690053 27.174027169002702 -12.4053201022503 #
coedge $-1 $373 $284 $287 $385 forward $174 $-1 #
straight-curve $-1 0 27.174027169002702 -12.4053201022503 1 0 0 I I #
coedge $-1 $287 $286 $429 $434 forward $288 $-1 #
edge $-1 $289 -6.0440355612638363 $435 6.0440355612638399 $287 $436 forward 7 unknown #
point $-1 -42.021546067690053 27.174027169002702 -12.4053201022503 #
vertex $-1 $375 $437 #
straight-curve $-1 -42.021546067690053 33.218062730266539 -9.0099294774906369 0 -1 0 I I #
coedge $-1 $305 $304 $297 $390 forward $294 $-1 #
edge $-1 $391 47.397516139392906 $394 57.395357108874137 $389 $438 forward 7 unknown #
vertex $-1 $309 $439 #
straight-curve $-1 12.7400724381244 -9.7843959076995528 12.9053201022503 1 0 0 I I #
edge $-1 $394 -6.5890433739870673 $306 0.19833830656209628 $305 $440 forward 7 unknown #
vertex $-1 $393 $441 #
straight-curve $-1 -25.098251203289244 -9.7843959076995528 53.485875212307107 -0.79863550430605224 0 0.6018150307709319 I I #
point $-1 28.753963245099285 -9.7843959076995528 12.9053201022503 #
point $-1 42.021546067690046 -2.9970142271503892 2.907479132769069 #
straight-curve $-1 42.021546067690053 0 12.905320102250299 0 1 0 I I #
vertex $-1 $312 $442 #
point $-1 35.527547154511105 -6.3907050674249675 6.4302704044679624 #
edge $-1 $402 47.397516139392906 $405 57.395357108874137 $317 $443 forward 7 unknown #
vertex $-1 $331 $444 #
straight-curve $-1 12.7400724381244 2.997014227150375 12.9053201022503 1 0 0 I I #
edge $-1 $405 -0.19833830656210338 $328 6.5890433739870602 $327 $445 forward 7 unknown #
vertex $-1 $404 $446 #
straight-curve $-1 -25.098251203289244 2.997014227150375 53.485875212307107 -0.79863550430605224 0 0.6018150307709319 I I #
point $-1 28.753963245099285 2.997014227150375 12.9053201022503 #
point $-1 42.021546067690046 9.7843959076995386 2.907479132769069 #
straight-curve $-1 42.021546067690053 0 12.905320102250299 0 1 0 I I #
vertex $-1 $334 $447 #
point $-1 35.527547154511105 6.3907050674249639 6.4302704044679624 #
straight-curve $-1 -42.021546067690053 27.174027169002702 0 0 0 -1 I I #
point $-1 -42.021546067690053 -27.174027169002702 -12.905320102250299 #
straight-curve $-1 -42.021546067690053 0 -12.905320102250299 0 1 0 I I #
point $-1 -42.021546067690053 27.174027169002702 -12.905320102250299 #
coedge $-1 $420 $355 $356 $417 reversed $254 $-1 #
edge $-1 $418 -42.021546067690053 $364 42.021546067690053 $416 $448 forward 7 unknown #
vertex $-1 $422 $449 #
straight-curve $-1 42.021546067690053 -33.218062730266539 -12.4053201022503 0 -1 0 I I #
coedge $-1 $358 $416 $360 $422 reversed $254 $-1 #
straight-curve $-1 0 -39.262098291530371 -9.0099294774906369 1 0 0 I I #
edge $-1 $361 -1.6976953123798317 $418 1.6976953123798317 $360 $450 forward 7 unknown #
point $-1 42.021546067690053 -39.262098291530371 -9.0099294774906369 #
straight-curve $-1 -42.021546067690053 -39.262098291530371 -10.707624789870469 0 0 -1 I I #
point $-1 -42.021546067690053 -39.262098291530371 -12.4053201022503 #
point $-1 -42.021546067690053 -39.262098291530371 -9.0099294774906369 #
coedge $-1 $429 $372 $373 $428 reversed $275 $-1 #
edge $-1 $435 -42.021546067690053 $379 42.021546067690053 $427 $451 forward 7 unknown #
coedge $-1 $374 $427 $384 $434 reversed $275 $-1 #
straight-curve $-1 0 39.262098291530378 -9.0099294774906369 -1 0 0 I I #
point $-1 42.021546067690053 39.262098291530378 -9.0099294774906369 #
straight-curve $-1 42.021546067690053 39.262098291530378 -10.707624789870469 0 0 -1 I I #
point $-1 42.021546067690053 39.262098291530378 -12.4053201022503 #
edge $-1 $387 -1.6976953123798317 $435 1.6976953123798317 $429 $452 forward 7 unknown #
vertex $-1 $428 $453 #
straight-curve $-1 -42.021546067690053 33.218062730266539 -12.4053201022503 0 1 0 I I #
point $-1 -42.021546067690053 39.262098291530378 -9.0099294774906369 #
straight-curve $-1 42.021546067690053 -9.7843959076995528 60.302836241643206 0 0 -1 I I #
point $-1 42.021546067690053 -9.7843959076995528 12.905320102250299 #
straight-curve $-1 42.021546067690053 -3.1953525337124855 2.9074791327690761 0 1 0 I I #
point $-1 42.021546067690046 -9.7843959076995528 2.907479132769069 #
point $-1 34.12709661943412 -6.3907050674249675 6.2334499309328422 #
straight-curve $-1 42.021546067690053 2.997014227150375 60.302836241643206 0 0 -1 I I #
point $-1 42.021546067690053 2.997014227150375 12.905320102250299 #
straight-curve $-1 42.021546067690053 3.1953525337124784 2.9074791327690761 0 1 0 I I #
point $-1 42.021546067690046 2.997014227150375 2.907479132769069 #
point $-1 34.12709661943412 6.3907050674249639 6.2334499309328422 #
straight-curve $-1 0 -39.262098291530371 -12.4053201022503 -1 0 0 I I #
point $-1 42.021546067690053 -39.262098291530371 -12.4053201022503 #
straight-curve $-1 42.021546067690053 -39.262098291530371 -10.707624789870469 0 0 -1 I I #
straight-curve $-1 0 39.262098291530378 -12.4053201022503 1 0 0 I I #
straight-curve $-1 -42.021546067690053 39.262098291530378 -10.707624789870469 0 0 -1 I I #
point $-1 -42.021546067690053 39.262098291530378 -12.4053201022503 #
End-of-ACIS-data 