500 0 14 0           
7 Unknown 11 ACIS 5.0 NT 24 Fri Mar 26 02:11:16 1999 
-1 9.9999999999999995e-007 1e-010 
body $-1 $14 $-1 $15 #
body $-1 $16 $-1 $17 #
body $-1 $18 $-1 $19 #
body $-1 $20 $-1 $21 #
body $-1 $22 $-1 $23 #
body $-1 $24 $-1 $25 #
body $-1 $26 $-1 $27 #
body $-1 $28 $-1 $29 #
body $-1 $30 $-1 $31 #
body $-1 $32 $-1 $33 #
body $-1 $34 $-1 $35 #
body $-1 $36 $-1 $37 #
body $-1 $38 $-1 $39 #
body $-1 $40 $-1 $41 #
lump $-1 $-1 $42 $0 #
transform $-1 1 0 0 0 1 0 0 0 1 42.27668080690939 23.514798986121601 10.117528062561014 1 rotate no_reflect no_shear #
lump $-1 $-1 $43 $1 #
transform $-1 1 0 0 0 1 0 0 0 1 42.27668080690939 23.514798986121601 10.117528062561014 1 rotate no_reflect no_shear #
lump $-1 $-1 $44 $2 #
transform $-1 1 0 0 0 1 0 0 0 1 42.27668080690939 23.514798986121601 10.117528062561014 1 rotate no_reflect no_shear #
lump $-1 $-1 $45 $3 #
transform $-1 1 0 0 0 1 0 0 0 1 42.27668080690939 23.514798986121601 10.117528062561014 1 rotate no_reflect no_shear #
lump $-1 $-1 $46 $4 #
transform $-1 1 0 0 0 1 0 0 0 1 42.27668080690939 23.514798986121601 10.117528062561014 1 rotate no_reflect no_shear #
lump $-1 $-1 $47 $5 #
transform $-1 1 0 0 0 1 0 0 0 1 42.27668080690939 23.514798986121601 10.117528062561014 1 rotate no_reflect no_shear #
lump $-1 $-1 $48 $6 #
transform $-1 1 0 0 0 1 0 0 0 1 42.27668080690939 23.514798986121601 10.117528062561014 1 rotate no_reflect no_shear #
lump $-1 $-1 $49 $7 #
transform $-1 1 0 0 0 1 0 0 0 1 42.27668080690939 23.514798986121601 10.117528062561014 1 rotate no_reflect no_shear #
lump $-1 $-1 $50 $8 #
transform $-1 1 0 0 0 1 0 0 0 1 42.27668080690939 23.514798986121601 10.117528062561014 1 rotate no_reflect no_shear #
lump $-1 $-1 $51 $9 #
transform $-1 1 0 0 0 1 0 0 0 1 42.27668080690939 23.514798986121601 10.117528062561014 1 rotate no_reflect no_shear #
lump $-1 $-1 $52 $10 #
transform $-1 1 0 0 0 1 0 0 0 1 42.27668080690939 23.514798986121601 10.117528062561014 1 rotate no_reflect no_shear #
lump $-1 $-1 $53 $11 #
transform $-1 1 0 0 0 1 0 0 0 1 42.27668080690939 23.514798986121601 10.117528062561014 1 rotate no_reflect no_shear #
lump $-1 $-1 $54 $12 #
transform $-1 1 0 0 0 1 0 0 0 1 42.27668080690939 23.514798986121601 10.117528062561014 1 rotate no_reflect no_shear #
lump $-1 $-1 $55 $13 #
transform $-1 1 0 0 0 1 0 0 0 1 42.27668080690939 23.514798986121601 10.117528062561014 1 rotate no_reflect no_shear #
shell $-1 $-1 $-1 $56 $-1 $14 #
shell $-1 $-1 $-1 $57 $-1 $16 #
shell $-1 $-1 $-1 $58 $-1 $18 #
shell $-1 $-1 $-1 $59 $-1 $20 #
shell $-1 $-1 $-1 $60 $-1 $22 #
shell $-1 $-1 $-1 $61 $-1 $24 #
shell $-1 $-1 $-1 $62 $-1 $26 #
shell $-1 $-1 $-1 $63 $-1 $28 #
shell $-1 $-1 $-1 $64 $-1 $30 #
shell $-1 $-1 $-1 $65 $-1 $32 #
shell $-1 $-1 $-1 $66 $-1 $34 #
shell $-1 $-1 $-1 $67 $-1 $36 #
shell $-1 $-1 $-1 $68 $-1 $38 #
shell $-1 $-1 $-1 $69 $-1 $40 #
face $-1 $70 $71 $42 $-1 $72 forward single #
face $-1 $73 $74 $43 $-1 $75 reversed single #
face $-1 $76 $77 $44 $-1 $78 forward single #
face $-1 $79 $80 $45 $-1 $81 reversed single #
face $-1 $82 $83 $46 $-1 $84 forward single #
face $-1 $85 $86 $47 $-1 $87 forward single #
face $-1 $88 $89 $48 $-1 $90 reversed single #
face $-1 $91 $92 $49 $-1 $93 forward single #
face $-1 $94 $95 $50 $-1 $96 reversed single #
face $-1 $97 $98 $51 $-1 $99 forward single #
face $-1 $100 $101 $52 $-1 $102 reversed single #
face $-1 $103 $104 $53 $-1 $105 forward single #
face $-1 $106 $107 $54 $-1 $108 reversed single #
face $-1 $109 $110 $55 $-1 $111 forward single #
face $-1 $112 $113 $42 $-1 $114 reversed single #
loop $-1 $-1 $115 $56 #
plane-surface $-1 0 0 10.117528062561014 0 0 1 1 0 0 forward_v I I I I #
face $-1 $116 $117 $43 $-1 $118 reversed single #
loop $-1 $-1 $119 $57 #
plane-surface $-1 -37.802178007211225 -6.2797428609995727 0 0 1 0 0 0 1 forward_v I I I I #
face $-1 $120 $121 $44 $-1 $122 reversed single #
loop $-1 $-1 $123 $58 #
plane-surface $-1 42.27668080690939 0 0 -1 0 0 0 0 1 forward_v I I I I #
face $-1 $124 $125 $45 $-1 $126 reversed single #
loop $-1 $-1 $127 $59 #
plane-surface $-1 21.267725122234026 35.166274867835781 102.83555247611531 1 0 0 0 -0.5877852598018023 -0.80901698891910034 forward_v I I I I #
face $-1 $128 $129 $46 $-1 $130 forward single #
loop $-1 $131 $132 $60 #
cone-surface $-1 23.930640801720891 20.928964817113236 8.0478265357342149 0 -0.5877852598018023 -0.80901698891910034 0.5 0 0 1 I I 0 1 0.5 forward I I I I #
face $-1 $133 $134 $47 $-1 $135 forward single #
loop $-1 $136 $137 $61 #
cone-surface $-1 27.925014320951185 20.928964817113236 8.0478265357342149 0 -0.5877852598018023 -0.80901698891910034 0.5 0 0 1 I I 0 1 0.5 forward I I I I #
face $-1 $138 $139 $48 $-1 $140 reversed single #
loop $-1 $-1 $141 $62 #
plane-surface $-1 -19.853071918530166 -94.427215469270251 47.081534587581181 -1 0 0 0 -0.83867057594974714 0.54463902268945019 forward_v I I I I #
face $-1 $142 $143 $49 $-1 $144 forward single #
loop $-1 $145 $146 $63 #
cone-surface $-1 -25.040448353810476 -18.971448485219309 4.5396574551964246 0 0.83867057594974714 -0.54463902268945019 1.5 0 0 1 I I 0 1 1.5 forward I I I I #
face $-1 $147 $148 $50 $-1 $149 reversed single #
loop $-1 $-1 $150 $64 #
plane-surface $-1 -4.0726880850148506 -94.427215469270251 47.081534587581181 -1 0 0 0 -0.83867057594974714 0.54463902268945019 forward_v I I I I #
face $-1 $151 $152 $51 $-1 $153 forward single #
loop $-1 $154 $155 $65 #
cone-surface $-1 -9.2600645202951597 -18.971448485219309 4.5396574551964246 0 0.83867057594974714 -0.54463902268945019 1.5 0 0 1 I I 0 1 1.5 forward I I I I #
face $-1 $156 $157 $52 $-1 $158 reversed single #
loop $-1 $-1 $159 $66 #
plane-surface $-1 11.707695748500466 -94.427215469270251 47.081534587581181 -1 0 0 0 -0.83867057594974714 0.54463902268945019 forward_v I I I I #
face $-1 $160 $161 $53 $-1 $162 forward single #
loop $-1 $163 $164 $67 #
cone-surface $-1 6.5203193132201562 -18.971448485219309 4.5396574551964246 0 0.83867057594974714 -0.54463902268945019 1.5 0 0 1 I I 0 1 1.5 forward I I I I #
face $-1 $165 $166 $54 $-1 $167 reversed single #
loop $-1 $-1 $168 $68 #
plane-surface $-1 27.488079582015789 -94.427215469270251 47.081534587581181 -1 0 0 0 -0.83867057594974714 0.54463902268945019 forward_v I I I I #
face $-1 $169 $170 $55 $-1 $171 forward single #
loop $-1 $172 $173 $69 #
cone-surface $-1 22.300703146735479 -18.971448485219309 4.5396574551964246 0 0.83867057594974714 -0.54463902268945019 1.5 0 0 1 I I 0 1 1.5 forward I I I I #
face $-1 $174 $175 $42 $-1 $176 reversed single #
loop $-1 $-1 $177 $70 #
plane-surface $-1 0 0 -10.117528062561014 0 0 1 1 0 0 forward_v I I I I #
coedge $-1 $178 $179 $180 $181 forward $71 $-1 #
face $-1 $182 $183 $43 $-1 $184 reversed single #
loop $-1 $-1 $185 $73 #
plane-surface $-1 -37.802178007211225 -3.2797428609995727 0 0 -1 0 0 0 -1 forward_v I I I I #
coedge $-1 $186 $187 $188 $189 reversed $74 $-1 #
face $-1 $190 $191 $44 $-1 $192 reversed single #
loop $-1 $-1 $193 $76 #
plane-surface $-1 0 -23.514798986121601 0 0 1 0 0 0 1 forward_v I I I I #
coedge $-1 $194 $195 $196 $197 forward $77 $-1 #
face $-1 $198 $199 $45 $-1 $200 reversed single #
loop $-1 $-1 $201 $79 #
plane-surface $-1 25.927827561336038 -14.532944755458431 34.430446460315792 0 0.5877852598018023 0.80901698891910034 1 0 0 forward_v I I I I #
coedge $-1 $202 $203 $204 $205 reversed $80 $-1 #
face $-1 $-1 $206 $46 $-1 $207 forward single #
loop $-1 $208 $209 $82 #
cone-surface $-1 23.930640801720891 20.488125872261886 7.44106379404489 0 -0.5877852598018023 -0.80901698891910034 0.25 0 0 1 I I -0.70710678118654746 0.70710678118654746 0.25 forward I I I I #
loop $-1 $-1 $210 $60 #
coedge $-1 $132 $132 $211 $212 reversed $83 $-1 #
face $-1 $-1 $213 $47 $-1 $214 forward single #
loop $-1 $215 $216 $85 #
cone-surface $-1 27.925014320951185 20.488125872261886 7.44106379404489 0 -0.5877852598018023 -0.80901698891910034 0.25 0 0 1 I I -0.70710678118654746 0.70710678118654746 0.25 forward I I I I #
loop $-1 $-1 $217 $61 #
coedge $-1 $137 $137 $218 $219 reversed $86 $-1 #
face $-1 $220 $221 $48 $-1 $222 reversed single #
loop $-1 $-1 $223 $88 #
plane-surface $-1 -25.040448353810476 -23.514798986121619 1.0304743531232461 0 -0.83867057594974714 0.54463902268945019 1 0 0 forward_v I I I I #
coedge $-1 $224 $225 $226 $227 reversed $89 $-1 #
face $-1 $-1 $228 $49 $-1 $229 forward single #
loop $-1 $230 $231 $91 #
cone-surface $-1 -25.040448353810476 -16.749695796770997 3.0968344355336335 0 0.83867057594974714 -0.54463902268945019 0.75 0 0 1 I I -0.70710678118654757 0.70710678118654757 0.75 forward I I I I #
loop $-1 $-1 $232 $63 #
coedge $-1 $146 $146 $233 $234 reversed $92 $-1 #
face $-1 $235 $236 $50 $-1 $237 reversed single #
loop $-1 $-1 $238 $94 #
plane-surface $-1 -9.2600645202951597 -23.514798986121619 1.0304743531232461 0 -0.83867057594974714 0.54463902268945019 1 0 0 forward_v I I I I #
coedge $-1 $239 $240 $241 $242 reversed $95 $-1 #
face $-1 $-1 $243 $51 $-1 $244 forward single #
loop $-1 $245 $246 $97 #
cone-surface $-1 -9.2600645202951597 -16.749695796770997 3.0968344355336335 0 0.83867057594974714 -0.54463902268945019 0.75 0 0 1 I I -0.70710678118654757 0.70710678118654757 0.75 forward I I I I #
loop $-1 $-1 $247 $65 #
coedge $-1 $155 $155 $248 $249 reversed $98 $-1 #
face $-1 $250 $251 $52 $-1 $252 reversed single #
loop $-1 $-1 $253 $100 #
plane-surface $-1 6.5203193132201562 -23.514798986121619 1.0304743531232461 0 -0.83867057594974714 0.54463902268945019 1 0 0 forward_v I I I I #
coedge $-1 $254 $255 $256 $257 reversed $101 $-1 #
face $-1 $-1 $258 $53 $-1 $259 forward single #
loop $-1 $260 $261 $103 #
cone-surface $-1 6.5203193132201562 -16.749695796770997 3.0968344355336335 0 0.83867057594974714 -0.54463902268945019 0.75 0 0 1 I I -0.70710678118654757 0.70710678118654757 0.75 forward I I I I #
loop $-1 $-1 $262 $67 #
coedge $-1 $164 $164 $263 $264 reversed $104 $-1 #
face $-1 $265 $266 $54 $-1 $267 reversed single #
loop $-1 $-1 $268 $106 #
plane-surface $-1 22.300703146735479 -23.514798986121619 1.0304743531232461 0 -0.83867057594974714 0.54463902268945019 1 0 0 forward_v I I I I #
coedge $-1 $269 $270 $271 $272 reversed $107 $-1 #
face $-1 $-1 $273 $55 $-1 $274 forward single #
loop $-1 $275 $276 $109 #
cone-surface $-1 22.300703146735479 -16.749695796770997 3.0968344355336335 0 0.83867057594974714 -0.54463902268945019 0.75 0 0 1 I I -0.70710678118654757 0.70710678118654757 0.75 forward I I I I #
loop $-1 $-1 $277 $69 #
coedge $-1 $173 $173 $278 $279 reversed $110 $-1 #
face $-1 $280 $281 $42 $-1 $282 reversed single #
loop $-1 $-1 $283 $112 #
plane-surface $-1 0 -23.514798986121601 0 0 1 0 0 0 1 forward_v I I I I #
coedge $-1 $284 $285 $286 $287 forward $113 $-1 #
coedge $-1 $288 $115 $289 $290 forward $71 $-1 #
coedge $-1 $115 $288 $291 $292 forward $71 $-1 #
coedge $-1 $293 $294 $115 $181 reversed $295 $-1 #
edge $-1 $296 -23.514798986121601 $297 23.514798986121601 $180 $298 forward 7 unknown #
face $-1 $299 $300 $43 $-1 $301 reversed single #
loop $-1 $-1 $302 $116 #
plane-surface $-1 -33.32767520751306 -4.7797428609995727 0 -1 0 0 0 0 1 forward_v I I I I #
coedge $-1 $303 $304 $305 $306 forward $117 $-1 #
coedge $-1 $307 $119 $308 $309 reversed $74 $-1 #
coedge $-1 $119 $307 $310 $311 reversed $74 $-1 #
coedge $-1 $312 $313 $119 $189 forward $314 $-1 #
edge $-1 $315 -10.117528062561014 $316 10.117528062561014 $188 $317 forward 7 unknown #
face $-1 $318 $319 $44 $-1 $320 reversed single #
loop $-1 $-1 $321 $120 #
plane-surface $-1 0 0 -10.117528062561014 0 0 1 1 0 0 forward_v I I I I #
coedge $-1 $322 $323 $324 $325 forward $121 $-1 #
coedge $-1 $324 $123 $321 $326 reversed $77 $-1 #
coedge $-1 $123 $324 $327 $328 reversed $77 $-1 #
coedge $-1 $329 $330 $123 $197 reversed $319 $-1 #
edge $-1 $331 -10.117528062561014 $332 10.117528062561014 $196 $333 forward 7 unknown #
face $-1 $334 $335 $45 $-1 $336 reversed single #
loop $-1 $-1 $337 $124 #
plane-surface $-1 30.58793000043805 35.166274867835781 102.83555247611531 -1 0 0 0 0.5877852598018023 0.80901698891910034 forward_v I I I I #
coedge $-1 $338 $339 $340 $341 reversed $125 $-1 #
coedge $-1 $203 $127 $342 $343 reversed $80 $-1 #
coedge $-1 $127 $202 $338 $344 reversed $80 $-1 #
coedge $-1 $340 $345 $127 $205 forward $346 $-1 #
edge $-1 $347 -5.9316615522037104 $348 -1.3477784739887824 $204 $349 forward 7 unknown #
loop $-1 $-1 $211 $128 #
plane-surface $-1 25.927827561336038 -14.532944755458431 34.430446460315792 0 0.5877852598018023 0.80901698891910034 1 0 0 forward_v I I I I #
loop $-1 $-1 $350 $82 #
coedge $-1 $209 $209 $210 $351 reversed $129 $-1 #
coedge $-1 $210 $210 $209 $351 forward $131 $-1 #
coedge $-1 $211 $211 $132 $212 forward $206 $-1 #
edge $-1 $352 5.2321246935740166e-015 $352 6.2831853071796058 $211 $353 forward 7 unknown #
loop $-1 $-1 $218 $133 #
plane-surface $-1 25.927827561336038 -14.532944755458431 34.430446460315792 0 0.5877852598018023 0.80901698891910034 1 0 0 forward_v I I I I #
loop $-1 $-1 $354 $85 #
coedge $-1 $216 $216 $217 $355 reversed $134 $-1 #
coedge $-1 $217 $217 $216 $355 forward $136 $-1 #
coedge $-1 $218 $218 $137 $219 forward $213 $-1 #
edge $-1 $356 5.2321246935740166e-015 $356 6.2831853071796058 $218 $357 forward 7 unknown #
face $-1 $358 $359 $48 $-1 $360 forward single #
loop $-1 $-1 $361 $138 #
plane-surface $-1 -30.227824789090786 -94.427215469270251 47.081534587581181 1 0 0 0 0.83867057594974714 -0.54463902268945019 forward_v I I I I #
coedge $-1 $362 $363 $364 $365 reversed $139 $-1 #
coedge $-1 $225 $141 $366 $367 reversed $89 $-1 #
coedge $-1 $141 $224 $362 $368 reversed $89 $-1 #
coedge $-1 $364 $369 $141 $227 forward $359 $-1 #
edge $-1 $370 23.698808748513525 $371 29.60001023734609 $226 $372 forward 7 unknown #
loop $-1 $-1 $233 $142 #
plane-surface $-1 -25.040448353810476 -23.514798986121619 1.0304743531232461 0 -0.83867057594974714 0.54463902268945019 1 0 0 forward_v I I I I #
loop $-1 $-1 $373 $91 #
coedge $-1 $231 $231 $232 $374 reversed $143 $-1 #
coedge $-1 $232 $232 $231 $374 forward $145 $-1 #
coedge $-1 $233 $233 $146 $234 forward $228 $-1 #
edge $-1 $375 1.6837081840647346e-015 $375 6.2831853071796022 $233 $376 forward 7 unknown #
face $-1 $377 $378 $50 $-1 $379 reversed single #
loop $-1 $-1 $380 $147 #
plane-surface $-1 -14.44744095557547 -94.427215469270251 47.081534587581181 1 0 0 0 0.83867057594974714 -0.54463902268945019 forward_v I I I I #
coedge $-1 $381 $382 $383 $384 reversed $148 $-1 #
coedge $-1 $240 $150 $385 $386 reversed $95 $-1 #
coedge $-1 $150 $239 $381 $387 reversed $95 $-1 #
coedge $-1 $383 $388 $150 $242 forward $389 $-1 #
edge $-1 $390 23.698808748513525 $391 29.60001023734609 $241 $392 forward 7 unknown #
loop $-1 $-1 $248 $151 #
plane-surface $-1 -9.2600645202951597 -23.514798986121619 1.0304743531232461 0 -0.83867057594974714 0.54463902268945019 1 0 0 forward_v I I I I #
loop $-1 $-1 $393 $97 #
coedge $-1 $246 $246 $247 $394 reversed $152 $-1 #
coedge $-1 $247 $247 $246 $394 forward $154 $-1 #
coedge $-1 $248 $248 $155 $249 forward $243 $-1 #
edge $-1 $395 1.6837081840647346e-015 $395 6.2831853071796022 $248 $396 forward 7 unknown #
face $-1 $397 $398 $52 $-1 $399 reversed single #
loop $-1 $-1 $400 $156 #
plane-surface $-1 1.3329428779398471 -94.427215469270251 47.081534587581181 1 0 0 0 0.83867057594974714 -0.54463902268945019 forward_v I I I I #
coedge $-1 $401 $402 $403 $404 reversed $157 $-1 #
coedge $-1 $255 $159 $405 $406 reversed $101 $-1 #
coedge $-1 $159 $254 $401 $407 reversed $101 $-1 #
coedge $-1 $403 $408 $159 $257 forward $409 $-1 #
edge $-1 $410 23.698808748513525 $411 29.60001023734609 $256 $412 forward 7 unknown #
loop $-1 $-1 $263 $160 #
plane-surface $-1 6.5203193132201562 -23.514798986121619 1.0304743531232461 0 -0.83867057594974714 0.54463902268945019 1 0 0 forward_v I I I I #
loop $-1 $-1 $413 $103 #
coedge $-1 $261 $261 $262 $414 reversed $161 $-1 #
coedge $-1 $262 $262 $261 $414 forward $163 $-1 #
coedge $-1 $263 $263 $164 $264 forward $258 $-1 #
edge $-1 $415 1.6837081840647346e-015 $415 6.2831853071796022 $263 $416 forward 7 unknown #
face $-1 $417 $418 $54 $-1 $419 reversed single #
loop $-1 $-1 $420 $165 #
plane-surface $-1 17.113326711455169 -94.427215469270251 47.081534587581181 1 0 0 0 0.83867057594974714 -0.54463902268945019 forward_v I I I I #
coedge $-1 $421 $422 $423 $424 reversed $166 $-1 #
coedge $-1 $270 $168 $425 $426 reversed $107 $-1 #
coedge $-1 $168 $269 $421 $427 reversed $107 $-1 #
coedge $-1 $423 $428 $168 $272 forward $429 $-1 #
edge $-1 $430 23.698808748513525 $431 29.60001023734609 $271 $432 forward 7 unknown #
loop $-1 $-1 $278 $169 #
plane-surface $-1 22.300703146735479 -23.514798986121619 1.0304743531232461 0 -0.83867057594974714 0.54463902268945019 1 0 0 forward_v I I I I #
loop $-1 $-1 $433 $109 #
coedge $-1 $276 $276 $277 $434 reversed $170 $-1 #
coedge $-1 $277 $277 $276 $434 forward $172 $-1 #
coedge $-1 $278 $278 $173 $279 forward $273 $-1 #
edge $-1 $435 1.6837081840647346e-015 $435 6.2831853071796022 $278 $436 forward 7 unknown #
face $-1 $437 $438 $42 $-1 $439 reversed single #
loop $-1 $-1 $440 $174 #
plane-surface $-1 -42.27668080690939 0 0 1 0 0 0 0 -1 forward_v I I I I #
coedge $-1 $441 $291 $442 $443 forward $175 $-1 #
coedge $-1 $444 $177 $441 $445 forward $113 $-1 #
coedge $-1 $177 $444 $446 $447 forward $113 $-1 #
coedge $-1 $294 $293 $177 $287 reversed $295 $-1 #
edge $-1 $448 -23.514798986121601 $449 23.514798986121601 $286 $450 forward 7 unknown #
coedge $-1 $179 $178 $451 $452 forward $71 $-1 #
coedge $-1 $453 $454 $178 $290 reversed $438 $-1 #
edge $-1 $297 -42.27668080690939 $455 42.27668080690939 $289 $456 forward 7 unknown #
coedge $-1 $283 $457 $179 $292 reversed $175 $-1 #
edge $-1 $458 -42.27668080690939 $296 42.27668080690939 $291 $459 forward 7 unknown #
coedge $-1 $286 $180 $457 $460 forward $295 $-1 #
coedge $-1 $180 $286 $453 $461 reversed $295 $-1 #
loop $-1 $-1 $293 $437 #
vertex $-1 $181 $462 #
vertex $-1 $181 $463 #
straight-curve $-1 42.27668080690939 0 10.117528062561014 0 1 0 I I #
face $-1 $464 $465 $43 $-1 $466 forward single #
loop $-1 $-1 $467 $182 #
plane-surface $-1 0 0 -10.117528062561014 0 0 1 1 0 0 forward_v I I I I #
coedge $-1 $468 $469 $307 $470 forward $183 $-1 #
coedge $-1 $471 $185 $467 $472 reversed $117 $-1 #
coedge $-1 $185 $471 $473 $474 reversed $117 $-1 #
coedge $-1 $469 $468 $185 $306 reversed $183 $-1 #
edge $-1 $475 -10.117528062561014 $476 10.117528062561014 $305 $477 forward 7 unknown #
coedge $-1 $187 $186 $302 $470 reversed $74 $-1 #
coedge $-1 $478 $479 $186 $309 forward $300 $-1 #
edge $-1 $480 14.426586203907448 $315 23.375591803303777 $308 $481 forward 7 unknown #
coedge $-1 $482 $483 $187 $311 forward $465 $-1 #
edge $-1 $316 -23.375591803303777 $484 -14.426586203907448 $310 $485 forward 7 unknown #
coedge $-1 $486 $188 $483 $487 reversed $314 $-1 #
coedge $-1 $188 $486 $478 $488 reversed $314 $-1 #
loop $-1 $-1 $486 $464 #
vertex $-1 $488 $489 #
vertex $-1 $189 $490 #
straight-curve $-1 -42.27668080690939 -6.2797428609995727 0 0 0 1 I I #
face $-1 $491 $492 $44 $-1 $493 reversed single #
loop $-1 $-1 $494 $190 #
plane-surface $-1 48.121056210145063 -20.514798986121601 0 0 -1 0 0 0 -1 forward_v I I I I #
coedge $-1 $495 $496 $194 $326 forward $191 $-1 #
coedge $-1 $497 $193 $496 $498 reversed $121 $-1 #
coedge $-1 $193 $497 $499 $500 reversed $121 $-1 #
coedge $-1 $195 $194 $193 $325 reversed $77 $-1 #
edge $-1 $501 -10.117528062561014 $502 10.117528062561014 $193 $503 forward 7 unknown #
edge $-1 $502 -23.514798986121601 $332 -20.514798986121601 $321 $504 forward 7 unknown #
coedge $-1 $499 $505 $195 $328 forward $506 $-1 #
edge $-1 $331 20.514798986121601 $501 23.514798986121601 $327 $507 forward 7 unknown #
coedge $-1 $494 $196 $505 $508 reversed $319 $-1 #
coedge $-1 $196 $494 $495 $509 reversed $319 $-1 #
vertex $-1 $328 $510 #
vertex $-1 $509 $511 #
straight-curve $-1 42.27668080690939 -20.514798986121601 0 0 0 -1 I I #
face $-1 $-1 $346 $45 $-1 $512 forward single #
loop $-1 $-1 $513 $198 #
plane-surface $-1 0 23.514798986121601 0 0 -1 0 0 0 -1 forward_v I I I I #
coedge $-1 $514 $515 $516 $517 reversed $199 $-1 #
coedge $-1 $518 $201 $203 $344 forward $125 $-1 #
coedge $-1 $201 $518 $514 $519 forward $125 $-1 #
coedge $-1 $516 $204 $201 $341 forward $346 $-1 #
edge $-1 $348 8.3038113415660071 $520 17.624016219770031 $340 $521 forward 7 unknown #
coedge $-1 $522 $523 $202 $343 forward $335 $-1 #
edge $-1 $524 -44.63063424023116 $347 -41.300248175496641 $342 $525 forward 7 unknown #
edge $-1 $348 41.363606848448271 $524 47.029597972243216 $203 $526 forward 7 unknown #
coedge $-1 $204 $516 $522 $527 forward $346 $-1 #
loop $-1 $-1 $516 $334 #
vertex $-1 $343 $528 #
vertex $-1 $205 $529 #
straight-curve $-1 21.267725122234026 17.583137433917891 10.117528062561014 0 -1 0 I I #
coedge $-1 $350 $350 $-1 $530 reversed $208 $-1 #
edge $-1 $531 0 $531 6.2831853071796004 $209 $532 forward 7 unknown #
vertex $-1 $212 $533 #
ellipse-curve $-1 23.930640801720891 21.222857447014132 8.4523350301937601 0 0.5877852598018023 0.80901698891910034 0.5 0 0 1 I I #
coedge $-1 $354 $354 $-1 $534 reversed $215 $-1 #
edge $-1 $535 0 $535 6.2831853071796004 $216 $536 forward 7 unknown #
vertex $-1 $219 $537 #
ellipse-curve $-1 27.925014320951185 21.222857447014132 8.4523350301937601 0 0.5877852598018023 0.80901698891910034 0.5 0 0 1 I I #
face $-1 $-1 $538 $48 $-1 $539 reversed single #
loop $-1 $-1 $226 $220 #
plane-surface $-1 0 0 10.117528062561014 0 0 1 1 0 0 forward_v I I I I #
coedge $-1 $540 $541 $542 $543 reversed $221 $-1 #
coedge $-1 $544 $223 $225 $368 forward $139 $-1 #
coedge $-1 $223 $544 $540 $545 forward $139 $-1 #
coedge $-1 $542 $226 $223 $365 forward $359 $-1 #
edge $-1 $371 7.3328477416249278 $546 17.707600612185548 $364 $547 forward 7 unknown #
coedge $-1 $548 $549 $224 $367 forward $538 $-1 #
edge $-1 $550 -22.510292940667316 $370 -13.423239231229577 $366 $551 forward 7 unknown #
edge $-1 $371 -10.835069179751766 $550 -3.2580072563564968e-014 $225 $552 forward 7 unknown #
coedge $-1 $226 $542 $548 $553 forward $359 $-1 #
vertex $-1 $227 $554 #
vertex $-1 $227 $555 #
straight-curve $-1 -19.853071918530166 -47.213607734635126 10.117528062561014 0 1 0 I I #
coedge $-1 $373 $373 $-1 $556 reversed $230 $-1 #
edge $-1 $557 0 $557 6.2831853071796004 $231 $558 forward 7 unknown #
vertex $-1 $234 $559 #
ellipse-curve $-1 -25.040448353810476 -20.564198241705324 5.5740012078421364 0 -0.83867057594974714 0.54463902268945019 1.5 0 0 1 I I #
face $-1 $-1 $389 $50 $-1 $560 forward single #
loop $-1 $-1 $561 $235 #
plane-surface $-1 0 -23.514798986121601 0 0 1 0 0 0 1 forward_v I I I I #
coedge $-1 $562 $563 $564 $565 reversed $236 $-1 #
coedge $-1 $566 $238 $240 $387 forward $148 $-1 #
coedge $-1 $238 $566 $562 $567 forward $148 $-1 #
coedge $-1 $564 $241 $238 $384 forward $389 $-1 #
edge $-1 $391 -0.55734417513272927 $568 9.8174086954278899 $383 $569 forward 7 unknown #
coedge $-1 $570 $571 $239 $386 forward $378 $-1 #
edge $-1 $572 -22.510292940667316 $390 -13.423239231229577 $385 $573 forward 7 unknown #
edge $-1 $391 -10.835069179751766 $572 -3.2580072563564968e-014 $240 $574 forward 7 unknown #
coedge $-1 $241 $564 $570 $575 forward $389 $-1 #
loop $-1 $-1 $564 $377 #
vertex $-1 $386 $576 #
vertex $-1 $242 $577 #
straight-curve $-1 -4.0726880850148506 -47.213607734635126 10.117528062561014 0 1 0 I I #
coedge $-1 $393 $393 $-1 $578 reversed $245 $-1 #
edge $-1 $579 0 $579 6.2831853071796004 $246 $580 forward 7 unknown #
vertex $-1 $249 $581 #
ellipse-curve $-1 -9.2600645202951597 -20.564198241705324 5.5740012078421364 0 -0.83867057594974714 0.54463902268945019 1.5 0 0 1 I I #
face $-1 $-1 $409 $52 $-1 $582 forward single #
loop $-1 $-1 $583 $250 #
plane-surface $-1 0 -23.514798986121601 0 0 1 0 0 0 1 forward_v I I I I #
coedge $-1 $584 $585 $586 $587 reversed $251 $-1 #
coedge $-1 $588 $253 $255 $407 forward $157 $-1 #
coedge $-1 $253 $588 $584 $589 forward $157 $-1 #
coedge $-1 $586 $256 $253 $404 forward $409 $-1 #
edge $-1 $411 -8.4475360918903881 $590 1.927216778670231 $403 $591 forward 7 unknown #
coedge $-1 $592 $593 $254 $406 forward $398 $-1 #
edge $-1 $594 -22.510292940667316 $410 -13.423239231229577 $405 $595 forward 7 unknown #
edge $-1 $411 -10.835069179751766 $594 -3.2580072563564968e-014 $255 $596 forward 7 unknown #
coedge $-1 $256 $586 $592 $597 forward $409 $-1 #
loop $-1 $-1 $586 $397 #
vertex $-1 $406 $598 #
vertex $-1 $257 $599 #
straight-curve $-1 11.707695748500466 -47.213607734635126 10.117528062561014 0 1 0 I I #
coedge $-1 $413 $413 $-1 $600 reversed $260 $-1 #
edge $-1 $601 0 $601 6.2831853071796004 $261 $602 forward 7 unknown #
vertex $-1 $264 $603 #
ellipse-curve $-1 6.5203193132201562 -20.564198241705324 5.5740012078421364 0 -0.83867057594974714 0.54463902268945019 1.5 0 0 1 I I #
face $-1 $-1 $429 $54 $-1 $604 forward single #
loop $-1 $-1 $605 $265 #
plane-surface $-1 0 -23.514798986121601 0 0 1 0 0 0 1 forward_v I I I I #
coedge $-1 $606 $607 $608 $609 reversed $266 $-1 #
coedge $-1 $610 $268 $270 $427 forward $166 $-1 #
coedge $-1 $268 $610 $606 $611 forward $166 $-1 #
coedge $-1 $608 $271 $268 $424 forward $429 $-1 #
edge $-1 $431 -16.33772800864805 $612 -5.9629751380874296 $423 $613 forward 7 unknown #
coedge $-1 $614 $615 $269 $426 forward $418 $-1 #
edge $-1 $616 -22.510292940667316 $430 -13.423239231229577 $425 $617 forward 7 unknown #
edge $-1 $431 -10.835069179751766 $616 -3.2580072563564968e-014 $270 $618 forward 7 unknown #
coedge $-1 $271 $608 $614 $619 forward $429 $-1 #
loop $-1 $-1 $608 $417 #
vertex $-1 $426 $620 #
vertex $-1 $272 $621 #
straight-curve $-1 27.488079582015789 -47.213607734635126 10.117528062561014 0 1 0 I I #
coedge $-1 $433 $433 $-1 $622 reversed $275 $-1 #
edge $-1 $623 0 $623 6.2831853071796004 $276 $624 forward 7 unknown #
vertex $-1 $279 $625 #
ellipse-curve $-1 22.300703146735479 -20.564198241705324 5.5740012078421364 0 -0.83867057594974714 0.54463902268945019 1.5 0 0 1 I I #
face $-1 $-1 $295 $42 $-1 $626 reversed single #
loop $-1 $-1 $453 $280 #
plane-surface $-1 0 23.514798986121601 0 0 -1 0 0 0 -1 forward_v I I I I #
coedge $-1 $627 $451 $454 $628 forward $281 $-1 #
coedge $-1 $457 $283 $284 $445 reversed $175 $-1 #
coedge $-1 $451 $627 $283 $443 reversed $281 $-1 #
edge $-1 $458 -10.117528062561014 $629 10.117528062561014 $442 $630 forward 7 unknown #
coedge $-1 $285 $284 $627 $631 forward $113 $-1 #
edge $-1 $449 -42.27668080690939 $629 42.27668080690939 $441 $632 forward 7 unknown #
coedge $-1 $454 $453 $285 $447 reversed $438 $-1 #
edge $-1 $633 -42.27668080690939 $448 42.27668080690939 $446 $634 forward 7 unknown #
vertex $-1 $287 $635 #
vertex $-1 $460 $636 #
straight-curve $-1 42.27668080690939 0 -10.117528062561014 0 -1 0 I I #
coedge $-1 $440 $442 $288 $452 reversed $281 $-1 #
edge $-1 $455 -23.514798986121601 $458 23.514798986121601 $451 $637 forward 7 unknown #
coedge $-1 $446 $289 $294 $461 forward $438 $-1 #
coedge $-1 $289 $446 $440 $628 reversed $438 $-1 #
vertex $-1 $290 $638 #
straight-curve $-1 0 23.514798986121601 10.117528062561014 -1 0 0 I I #
coedge $-1 $291 $441 $293 $460 reversed $175 $-1 #
vertex $-1 $452 $639 #
straight-curve $-1 0 -23.514798986121601 10.117528062561014 1 0 0 I I #
edge $-1 $296 -10.117528062561014 $449 10.117528062561014 $293 $640 forward 7 unknown #
edge $-1 $297 -10.117528062561014 $448 10.117528062561014 $294 $641 forward 7 unknown #
point $-1 42.27668080690939 -23.514798986121601 10.117528062561014 #
point $-1 42.27668080690939 23.514798986121601 10.117528062561014 #
face $-1 $-1 $314 $43 $-1 $642 reversed single #
loop $-1 $-1 $473 $299 #
plane-surface $-1 0 0 10.117528062561014 0 0 1 1 0 0 forward_v I I I I #
coedge $-1 $479 $478 $303 $472 forward $300 $-1 #
coedge $-1 $305 $302 $479 $643 reversed $183 $-1 #
coedge $-1 $302 $305 $482 $644 reversed $183 $-1 #
edge $-1 $484 -10.117528062561014 $480 10.117528062561014 $302 $645 forward 7 unknown #
coedge $-1 $304 $303 $486 $646 reversed $117 $-1 #
edge $-1 $647 -23.375591803303777 $476 -14.426586203907448 $467 $648 forward 7 unknown #
coedge $-1 $483 $482 $304 $474 forward $465 $-1 #
edge $-1 $475 14.426586203907448 $649 23.375591803303777 $473 $650 forward 7 unknown #
vertex $-1 $474 $651 #
vertex $-1 $472 $652 #
straight-curve $-1 -33.32767520751306 -3.2797428609995727 0 0 0 -1 I I #
coedge $-1 $467 $308 $313 $488 forward $300 $-1 #
coedge $-1 $308 $467 $468 $643 forward $300 $-1 #
vertex $-1 $309 $653 #
straight-curve $-1 -18.901089003605613 -6.2797428609995727 -10.117528062561014 -1 0 0 I I #
coedge $-1 $473 $310 $469 $644 forward $465 $-1 #
coedge $-1 $310 $473 $312 $487 forward $465 $-1 #
vertex $-1 $311 $654 #
straight-curve $-1 -18.901089003605613 -6.2797428609995727 10.117528062561014 1 0 0 I I #
coedge $-1 $313 $312 $471 $646 forward $314 $-1 #
edge $-1 $649 3.2797428609995727 $316 6.2797428609995727 $312 $655 forward 7 unknown #
edge $-1 $315 -6.2797428609995727 $647 -3.2797428609995727 $313 $656 forward 7 unknown #
point $-1 -42.27668080690939 -6.2797428609995727 -10.117528062561014 #
point $-1 -42.27668080690939 -6.2797428609995727 10.117528062561014 #
face $-1 $-1 $506 $44 $-1 $657 forward single #
loop $-1 $-1 $658 $318 #
plane-surface $-1 53.96543161338073 -22.014798986121601 0 -1 0 0 0 0 1 forward_v I I I I #
coedge $-1 $330 $329 $659 $660 forward $319 $-1 #
coedge $-1 $661 $321 $330 $509 forward $191 $-1 #
coedge $-1 $321 $661 $322 $498 forward $191 $-1 #
coedge $-1 $323 $322 $658 $662 reversed $121 $-1 #
edge $-1 $663 -5.8443754032356665 $502 5.8443754032356736 $322 $664 forward 7 unknown #
coedge $-1 $665 $327 $323 $500 forward $506 $-1 #
edge $-1 $501 -5.8443754032356736 $666 5.8443754032356665 $323 $667 forward 7 unknown #
vertex $-1 $500 $668 #
vertex $-1 $326 $669 #
straight-curve $-1 42.27668080690939 -23.514798986121601 0 0 0 -1 I I #
straight-curve $-1 42.27668080690939 0 -10.117528062561014 0 1 0 I I #
coedge $-1 $327 $665 $329 $508 forward $506 $-1 #
loop $-1 $-1 $327 $491 #
straight-curve $-1 42.27668080690939 0 10.117528062561014 0 -1 0 I I #
edge $-1 $670 -5.8443754032356665 $331 5.8443754032356665 $329 $671 forward 7 unknown #
edge $-1 $332 -5.8443754032356665 $672 5.8443754032356665 $330 $673 forward 7 unknown #
point $-1 42.276680806909397 -20.514798986121601 10.117528062561014 #
point $-1 42.276680806909397 -20.514798986121601 -10.117528062561014 #
plane-surface $-1 0 0 10.117528062561014 0 0 1 1 0 0 forward_v I I I I #
coedge $-1 $523 $522 $515 $674 forward $335 $-1 #
coedge $-1 $515 $337 $339 $519 reversed $199 $-1 #
coedge $-1 $337 $514 $513 $674 reversed $199 $-1 #
coedge $-1 $345 $340 $337 $517 forward $346 $-1 #
edge $-1 $520 1.3477784739887824 $675 5.9316615522037104 $516 $676 forward 7 unknown #
coedge $-1 $339 $338 $523 $677 reversed $125 $-1 #
edge $-1 $678 -47.029597972243216 $520 -41.363606848448271 $514 $679 forward 7 unknown #
vertex $-1 $341 $680 #
straight-curve $-1 12.963913780668019 18.93091590790667 10.117528062561014 1 0 0 I I #
coedge $-1 $513 $342 $345 $527 reversed $335 $-1 #
coedge $-1 $342 $513 $518 $677 forward $335 $-1 #
vertex $-1 $343 $681 #
straight-curve $-1 21.267725122234026 23.514798986121601 51.417776238057655 0 0 1 I I #
straight-curve $-1 21.267725122234026 -14.532944755458431 34.430446460315792 0 0.80901698891910034 -0.5877852598018023 I I #
edge $-1 $675 -30.58793000043805 $347 -21.267725122234026 $522 $682 forward 7 unknown #
point $-1 21.267725122234026 23.514798986121601 10.117528062561014 #
point $-1 21.267725122234026 18.930915907906673 10.117528062561014 #
edge $-1 $683 1 $683 0 $350 $-1 forward 7 unknown #
vertex $-1 $351 $684 #
ellipse-curve $-1 23.930640801720891 20.635072187212337 7.6433180412746653 0 0.5877852598018023 0.80901698891910034 0.5 0 0 1 I I #
point $-1 24.430640801720891 21.222857447014139 8.4523350301937654 #
edge $-1 $685 1 $685 0 $354 $-1 forward 7 unknown #
vertex $-1 $355 $686 #
ellipse-curve $-1 27.925014320951185 20.635072187212337 7.6433180412746653 0 0.5877852598018023 0.80901698891910034 0.5 0 0 1 I I #
point $-1 28.425014320951185 21.222857447014139 8.4523350301937654 #
loop $-1 $-1 $366 $358 #
plane-surface $-1 0 -23.514798986121601 0 0 1 0 0 0 1 forward_v I I I I #
coedge $-1 $541 $361 $363 $545 reversed $221 $-1 #
coedge $-1 $361 $540 $687 $688 reversed $221 $-1 #
coedge $-1 $369 $364 $361 $543 forward $359 $-1 #
edge $-1 $546 -29.60001023734609 $689 -23.698808748513525 $542 $690 forward 7 unknown #
coedge $-1 $363 $362 $549 $691 reversed $139 $-1 #
edge $-1 $692 3.2580072563564968e-014 $546 10.835069179751766 $540 $693 forward 7 unknown #
vertex $-1 $365 $694 #
straight-curve $-1 -12.520224176905238 -17.613597497289035 10.117528062561014 -1 0 0 I I #
coedge $-1 $687 $366 $369 $553 reversed $538 $-1 #
coedge $-1 $366 $687 $544 $691 forward $538 $-1 #
vertex $-1 $367 $695 #
straight-curve $-1 -19.853071918530166 -23.514798986121598 23.540767293790591 0 0 1 I I #
straight-curve $-1 -19.853071918530166 -23.514798986121619 1.0304743531232461 0 -0.54463902268945019 -0.83867057594974714 I I #
edge $-1 $689 -78.348880999235845 $370 -67.974128128675233 $548 $696 forward 7 unknown #
point $-1 -19.853071918530169 -23.514798986121601 10.117528062561014 #
point $-1 -19.853071918530166 -17.613597497289035 10.117528062561014 #
edge $-1 $697 1 $697 0 $373 $-1 forward 7 unknown #
vertex $-1 $374 $698 #
ellipse-curve $-1 -25.040448353810476 -17.378698728733308 3.5053137025507213 0 -0.83867057594974714 0.54463902268945019 1.5 0 0 1 I I #
point $-1 -23.540448353810476 -20.564198241705309 5.5740012078421302 #
plane-surface $-1 0 0 10.117528062561014 0 0 1 1 0 0 forward_v I I I I #
coedge $-1 $571 $570 $563 $699 forward $378 $-1 #
coedge $-1 $563 $380 $382 $567 reversed $236 $-1 #
coedge $-1 $380 $562 $561 $699 reversed $236 $-1 #
coedge $-1 $388 $383 $380 $565 forward $389 $-1 #
edge $-1 $568 -29.60001023734609 $700 -23.698808748513525 $564 $701 forward 7 unknown #
coedge $-1 $382 $381 $571 $702 reversed $148 $-1 #
edge $-1 $703 3.2580072563564968e-014 $568 10.835069179751766 $562 $704 forward 7 unknown #
vertex $-1 $384 $705 #
straight-curve $-1 -4.6300322601475798 -17.613597497289035 10.117528062561014 -1 0 0 I I #
coedge $-1 $561 $385 $388 $575 reversed $378 $-1 #
coedge $-1 $385 $561 $566 $702 forward $378 $-1 #
vertex $-1 $386 $706 #
straight-curve $-1 -4.0726880850148506 -23.514798986121598 23.540767293790591 0 0 1 I I #
straight-curve $-1 -4.0726880850148506 -23.514798986121619 1.0304743531232461 0 -0.54463902268945019 -0.83867057594974714 I I #
edge $-1 $700 -62.56849716572053 $390 -52.193744295159917 $570 $707 forward 7 unknown #
point $-1 -4.0726880850148532 -23.514798986121601 10.117528062561014 #
point $-1 -4.0726880850148506 -17.613597497289035 10.117528062561014 #
edge $-1 $708 1 $708 0 $393 $-1 forward 7 unknown #
vertex $-1 $394 $709 #
ellipse-curve $-1 -9.2600645202951597 -17.378698728733308 3.5053137025507213 0 -0.83867057594974714 0.54463902268945019 1.5 0 0 1 I I #
point $-1 -7.7600645202951597 -20.564198241705309 5.5740012078421302 #
plane-surface $-1 0 0 10.117528062561014 0 0 1 1 0 0 forward_v I I I I #
coedge $-1 $593 $592 $585 $710 forward $398 $-1 #
coedge $-1 $585 $400 $402 $589 reversed $251 $-1 #
coedge $-1 $400 $584 $583 $710 reversed $251 $-1 #
coedge $-1 $408 $403 $400 $587 forward $409 $-1 #
edge $-1 $590 -29.60001023734609 $711 -23.698808748513525 $586 $712 forward 7 unknown #
coedge $-1 $402 $401 $593 $713 reversed $157 $-1 #
edge $-1 $714 3.2580072563564968e-014 $590 10.835069179751766 $584 $715 forward 7 unknown #
vertex $-1 $404 $716 #
straight-curve $-1 3.2601596566100781 -17.613597497289035 10.117528062561014 -1 0 0 I I #
coedge $-1 $583 $405 $408 $597 reversed $398 $-1 #
coedge $-1 $405 $583 $588 $713 forward $398 $-1 #
vertex $-1 $406 $717 #
straight-curve $-1 11.707695748500466 -23.514798986121598 23.540767293790591 0 0 1 I I #
straight-curve $-1 11.707695748500466 -23.514798986121619 1.0304743531232461 0 -0.54463902268945019 -0.83867057594974714 I I #
edge $-1 $711 -46.788113332205214 $410 -36.413360461644601 $592 $718 forward 7 unknown #
point $-1 11.707695748500463 -23.514798986121601 10.117528062561014 #
point $-1 11.707695748500466 -17.613597497289035 10.117528062561014 #
edge $-1 $719 1 $719 0 $413 $-1 forward 7 unknown #
vertex $-1 $414 $720 #
ellipse-curve $-1 6.5203193132201562 -17.378698728733308 3.5053137025507213 0 -0.83867057594974714 0.54463902268945019 1.5 0 0 1 I I #
point $-1 8.0203193132201562 -20.564198241705309 5.5740012078421302 #
plane-surface $-1 0 0 10.117528062561014 0 0 1 1 0 0 forward_v I I I I #
coedge $-1 $615 $614 $607 $721 forward $418 $-1 #
coedge $-1 $607 $420 $422 $611 reversed $266 $-1 #
coedge $-1 $420 $606 $605 $721 reversed $266 $-1 #
coedge $-1 $428 $423 $420 $609 forward $429 $-1 #
edge $-1 $612 -29.60001023734609 $722 -23.698808748513525 $608 $723 forward 7 unknown #
coedge $-1 $422 $421 $615 $724 reversed $166 $-1 #
edge $-1 $725 3.2580072563564968e-014 $612 10.835069179751766 $606 $726 forward 7 unknown #
vertex $-1 $424 $727 #
straight-curve $-1 11.15035157336774 -17.613597497289035 10.117528062561014 -1 0 0 I I #
coedge $-1 $605 $425 $428 $619 reversed $418 $-1 #
coedge $-1 $425 $605 $610 $724 forward $418 $-1 #
vertex $-1 $426 $728 #
straight-curve $-1 27.488079582015789 -23.514798986121598 23.540767293790591 0 0 1 I I #
straight-curve $-1 27.488079582015789 -23.514798986121619 1.0304743531232461 0 -0.54463902268945019 -0.83867057594974714 I I #
edge $-1 $722 -31.007729498689894 $430 -20.632976628129274 $614 $729 forward 7 unknown #
point $-1 27.488079582015789 -23.514798986121601 10.117528062561014 #
point $-1 27.488079582015789 -17.613597497289035 10.117528062561014 #
edge $-1 $730 1 $730 0 $433 $-1 forward 7 unknown #
vertex $-1 $434 $731 #
ellipse-curve $-1 22.300703146735479 -17.378698728733308 3.5053137025507213 0 -0.83867057594974714 0.54463902268945019 1.5 0 0 1 I I #
point $-1 23.800703146735479 -20.564198241705309 5.5740012078421302 #
plane-surface $-1 42.27668080690939 0 0 -1 0 0 0 0 1 forward_v I I I I #
coedge $-1 $442 $440 $444 $631 reversed $281 $-1 #
edge $-1 $455 -10.117528062561014 $633 10.117528062561014 $454 $732 forward 7 unknown #
vertex $-1 $631 $733 #
straight-curve $-1 -42.27668080690939 -23.514798986121601 0 0 0 -1 I I #
edge $-1 $629 -23.514798986121601 $633 23.514798986121601 $627 $734 forward 7 unknown #
straight-curve $-1 0 -23.514798986121601 -10.117528062561014 -1 0 0 I I #
vertex $-1 $447 $735 #
straight-curve $-1 0 23.514798986121601 -10.117528062561014 1 0 0 I I #
point $-1 42.27668080690939 23.514798986121601 -10.117528062561014 #
point $-1 42.27668080690939 -23.514798986121601 -10.117528062561014 #
straight-curve $-1 -42.27668080690939 0 10.117528062561014 0 -1 0 I I #
point $-1 -42.27668080690939 23.514798986121601 10.117528062561014 #
point $-1 -42.27668080690939 -23.514798986121601 10.117528062561014 #
straight-curve $-1 42.27668080690939 -23.514798986121601 0 0 0 -1 I I #
straight-curve $-1 42.27668080690939 23.514798986121601 0 0 0 -1 I I #
plane-surface $-1 -42.27668080690939 0 0 1 0 0 0 0 -1 forward_v I I I I #
edge $-1 $476 0.88987143049978634 $480 3.8898714304997863 $479 $736 forward 7 unknown #
edge $-1 $484 -3.8898714304997863 $475 -0.88987143049978634 $482 $737 forward 7 unknown #
straight-curve $-1 -33.32767520751306 -6.2797428609995727 0 0 0 -1 I I #
edge $-1 $649 -10.117528062561014 $647 10.117528062561014 $486 $738 forward 7 unknown #
vertex $-1 $646 $739 #
straight-curve $-1 -18.901089003605613 -3.2797428609995727 -10.117528062561014 1 0 0 I I #
vertex $-1 $487 $740 #
straight-curve $-1 -18.901089003605613 -3.2797428609995727 10.117528062561014 -1 0 0 I I #
point $-1 -33.32767520751306 -3.2797428609995727 10.117528062561014 #
point $-1 -33.32767520751306 -3.2797428609995727 -10.117528062561014 #
point $-1 -33.32767520751306 -6.2797428609995727 -10.117528062561014 #
point $-1 -33.32767520751306 -6.2797428609995727 10.117528062561014 #
straight-curve $-1 -42.27668080690939 0 10.117528062561014 0 -1 0 I I #
straight-curve $-1 -42.27668080690939 0 -10.117528062561014 0 1 0 I I #
plane-surface $-1 0 0 10.117528062561014 0 0 1 1 0 0 forward_v I I I I #
coedge $-1 $741 $742 $497 $662 forward $492 $-1 #
coedge $-1 $742 $741 $494 $660 reversed $492 $-1 #
edge $-1 $670 -10.117528062561014 $672 10.117528062561014 $659 $743 forward 7 unknown #
coedge $-1 $496 $495 $741 $744 forward $191 $-1 #
edge $-1 $666 -10.117528062561014 $663 10.117528062561014 $658 $745 forward 7 unknown #
vertex $-1 $662 $746 #
straight-curve $-1 48.121056210145063 -23.514798986121601 -10.117528062561014 -1 0 0 I I #
coedge $-1 $505 $499 $742 $747 forward $506 $-1 #
vertex $-1 $747 $748 #
straight-curve $-1 48.121056210145063 -23.514798986121601 10.117528062561014 1 0 0 I I #
point $-1 42.27668080690939 -23.514798986121601 10.117528062561014 #
point $-1 42.27668080690939 -23.514798986121601 -10.117528062561014 #
vertex $-1 $747 $749 #
straight-curve $-1 48.121056210145063 -20.514798986121601 10.117528062561014 -1 0 0 I I #
vertex $-1 $744 $750 #
straight-curve $-1 48.121056210145063 -20.514798986121601 -10.117528062561014 1 0 0 I I #
edge $-1 $675 41.300248175496641 $678 44.63063424023116 $513 $751 forward 7 unknown #
vertex $-1 $527 $752 #
straight-curve $-1 30.58793000043805 17.583137433917891 10.117528062561014 0 1 0 I I #
edge $-1 $678 -17.624016219770031 $524 -8.3038113415660071 $523 $753 forward 7 unknown #
vertex $-1 $677 $754 #
straight-curve $-1 30.58793000043805 -14.532944755458431 34.430446460315792 0 -0.80901698891910034 0.5877852598018023 I I #
point $-1 30.58793000043805 18.930915907906673 10.117528062561014 #
point $-1 21.267725122234026 23.514798986121605 6.7871419978264989 #
straight-curve $-1 0 23.514798986121601 10.117528062561014 -1 0 0 I I #
vertex $-1 $530 $755 #
point $-1 24.430640801720891 20.635072187212337 7.6433180412746653 #
vertex $-1 $534 $756 #
point $-1 28.425014320951185 20.635072187212337 7.6433180412746653 #
coedge $-1 $549 $548 $541 $688 forward $538 $-1 #
edge $-1 $689 13.423239231229577 $692 22.510292940667316 $687 $757 forward 7 unknown #
vertex $-1 $553 $758 #
straight-curve $-1 -30.227824789090786 -47.213607734635126 10.117528062561014 0 -1 0 I I #
edge $-1 $692 -17.707600612185548 $550 -7.3328477416249278 $549 $759 forward 7 unknown #
vertex $-1 $691 $760 #
straight-curve $-1 -30.227824789090786 -23.514798986121619 1.0304743531232461 0 0.54463902268945019 0.83867057594974714 I I #
point $-1 -30.227824789090786 -17.613597497289035 10.117528062561014 #
point $-1 -19.853071918530166 -23.514798986121601 1.0304743531232734 #
straight-curve $-1 48.121056210145063 -23.514798986121601 10.117528062561014 1 0 0 I I #
vertex $-1 $556 $761 #
point $-1 -23.540448353810476 -17.378698728733308 3.5053137025507213 #
edge $-1 $700 13.423239231229577 $703 22.510292940667316 $561 $762 forward 7 unknown #
vertex $-1 $575 $763 #
straight-curve $-1 -14.44744095557547 -47.213607734635126 10.117528062561014 0 -1 0 I I #
edge $-1 $703 -9.8174086954278899 $572 0.55734417513272927 $571 $764 forward 7 unknown #
vertex $-1 $702 $765 #
straight-curve $-1 -14.44744095557547 -23.514798986121619 1.0304743531232461 0 0.54463902268945019 0.83867057594974714 I I #
point $-1 -14.44744095557547 -17.613597497289035 10.117528062561014 #
point $-1 -4.0726880850148506 -23.514798986121601 1.0304743531232734 #
straight-curve $-1 48.121056210145063 -23.514798986121601 10.117528062561014 1 0 0 I I #
vertex $-1 $578 $766 #
point $-1 -7.7600645202951597 -17.378698728733308 3.5053137025507213 #
edge $-1 $711 13.423239231229577 $714 22.510292940667316 $583 $767 forward 7 unknown #
vertex $-1 $597 $768 #
straight-curve $-1 1.3329428779398471 -47.213607734635126 10.117528062561014 0 -1 0 I I #
edge $-1 $714 -1.927216778670231 $594 8.4475360918903881 $593 $769 forward 7 unknown #
vertex $-1 $713 $770 #
straight-curve $-1 1.3329428779398471 -23.514798986121619 1.0304743531232461 0 0.54463902268945019 0.83867057594974714 I I #
point $-1 1.3329428779398471 -17.613597497289035 10.117528062561014 #
point $-1 11.707695748500466 -23.514798986121601 1.0304743531232734 #
straight-curve $-1 48.121056210145063 -23.514798986121601 10.117528062561014 1 0 0 I I #
vertex $-1 $600 $771 #
point $-1 8.0203193132201562 -17.378698728733308 3.5053137025507213 #
edge $-1 $722 13.423239231229577 $725 22.510292940667316 $605 $772 forward 7 unknown #
vertex $-1 $619 $773 #
straight-curve $-1 17.113326711455169 -47.213607734635126 10.117528062561014 0 -1 0 I I #
edge $-1 $725 5.9629751380874296 $616 16.33772800864805 $615 $774 forward 7 unknown #
vertex $-1 $724 $775 #
straight-curve $-1 17.113326711455169 -23.514798986121619 1.0304743531232461 0 0.54463902268945019 0.83867057594974714 I I #
point $-1 17.113326711455169 -17.613597497289035 10.117528062561014 #
point $-1 27.488079582015789 -23.514798986121601 1.0304743531232734 #
straight-curve $-1 48.121056210145063 -23.514798986121601 10.117528062561014 1 0 0 I I #
vertex $-1 $622 $776 #
point $-1 23.800703146735479 -17.378698728733308 3.5053137025507213 #
straight-curve $-1 -42.27668080690939 23.514798986121601 0 0 0 -1 I I #
point $-1 -42.27668080690939 -23.514798986121601 -10.117528062561014 #
straight-curve $-1 -42.27668080690939 0 -10.117528062561014 0 1 0 I I #
point $-1 -42.27668080690939 23.514798986121601 -10.117528062561014 #
straight-curve $-1 -33.32767520751306 -2.3898714304997863 -10.117528062561014 0 -1 0 I I #
straight-curve $-1 -33.32767520751306 -2.3898714304997863 10.117528062561014 0 1 0 I I #
straight-curve $-1 -42.27668080690939 -3.2797428609995727 0 0 0 -1 I I #
point $-1 -42.27668080690939 -3.2797428609995727 -10.117528062561014 #
point $-1 -42.27668080690939 -3.2797428609995727 10.117528062561014 #
coedge $-1 $659 $658 $661 $744 reversed $492 $-1 #
coedge $-1 $658 $659 $665 $747 reversed $492 $-1 #
straight-curve $-1 53.96543161338073 -20.514798986121601 0 0 0 -1 I I #
edge $-1 $672 -1.5 $663 1.5 $741 $777 forward 7 unknown #
straight-curve $-1 53.96543161338073 -23.514798986121601 0 0 0 -1 I I #
point $-1 53.96543161338073 -23.514798986121601 -10.117528062561014 #
edge $-1 $666 -1.5 $670 1.5 $742 $778 forward 7 unknown #
point $-1 53.96543161338073 -23.514798986121601 10.117528062561014 #
point $-1 53.96543161338073 -20.514798986121601 10.117528062561014 #
point $-1 53.96543161338073 -20.514798986121601 -10.117528062561014 #
straight-curve $-1 30.58793000043805 23.514798986121601 51.417776238057655 0 0 -1 I I #
point $-1 30.58793000043805 23.514798986121601 10.117528062561014 #
straight-curve $-1 12.963913780668019 23.514798986121601 6.7871419978265024 -1 0 0 I I #
point $-1 30.58793000043805 23.514798986121605 6.7871419978264989 #
point $-1 23.930640801720891 20.341179557311435 7.2388095468151148 #
point $-1 27.925014320951185 20.341179557311435 7.2388095468151148 #
straight-curve $-1 -30.227824789090786 -23.514798986121598 23.540767293790591 0 0 -1 I I #
point $-1 -30.227824789090782 -23.514798986121601 10.117528062561014 #
straight-curve $-1 -12.520224176905238 -23.514798986121601 1.0304743531232781 1 0 0 I I #
point $-1 -30.227824789090786 -23.514798986121601 1.0304743531232734 #
point $-1 -25.040448353810476 -16.120692864808685 2.6883551685165457 #
straight-curve $-1 -14.44744095557547 -23.514798986121598 23.540767293790591 0 0 -1 I I #
point $-1 -14.447440955575466 -23.514798986121601 10.117528062561014 #
straight-curve $-1 -4.6300322601475798 -23.514798986121601 1.0304743531232781 1 0 0 I I #
point $-1 -14.44744095557547 -23.514798986121601 1.0304743531232734 #
point $-1 -9.2600645202951597 -16.120692864808685 2.6883551685165457 #
straight-curve $-1 1.3329428779398471 -23.514798986121598 23.540767293790591 0 0 -1 I I #
point $-1 1.3329428779398498 -23.514798986121601 10.117528062561014 #
straight-curve $-1 3.2601596566100781 -23.514798986121601 1.0304743531232781 1 0 0 I I #
point $-1 1.3329428779398471 -23.514798986121601 1.0304743531232734 #
point $-1 6.5203193132201562 -16.120692864808685 2.6883551685165457 #
straight-curve $-1 17.113326711455169 -23.514798986121598 23.540767293790591 0 0 -1 I I #
point $-1 17.113326711455169 -23.514798986121601 10.117528062561014 #
straight-curve $-1 11.15035157336774 -23.514798986121601 1.0304743531232781 1 0 0 I I #
point $-1 17.113326711455169 -23.514798986121601 1.0304743531232734 #
point $-1 22.300703146735479 -16.120692864808685 2.6883551685165457 #
straight-curve $-1 53.96543161338073 -22.014798986121601 -10.117528062561014 0 -1 0 I I #
straight-curve $-1 53.96543161338073 -22.014798986121601 10.117528062561014 0 1 0 I I #
End-of-ACIS-data 