500 0 6 0           
7 Unknown 11 ACIS 5.0 NT 24 Fri Mar 26 14:35:48 1999 
-1 9.9999999999999995e-007 1e-010 
body $-1 $6 $-1 $7 #
body $-1 $8 $-1 $9 #
body $-1 $10 $-1 $11 #
body $-1 $12 $-1 $13 #
body $-1 $14 $-1 $15 #
body $-1 $16 $-1 $17 #
lump $-1 $-1 $18 $0 #
transform $-1 1 0 0 0 1 0 0 0 1 52.594378490554519 35.645464026820839 8.209977019880272 1 rotate no_reflect no_shear #
lump $-1 $-1 $19 $1 #
transform $-1 1 0 0 0 1 0 0 0 1 52.594378490554519 35.645464026820839 8.209977019880272 1 rotate no_reflect no_shear #
lump $-1 $-1 $20 $2 #
transform $-1 1 0 0 0 1 0 0 0 1 52.594378490554519 35.645464026820839 8.209977019880272 1 rotate no_reflect no_shear #
lump $-1 $-1 $21 $3 #
transform $-1 1 0 0 0 1 0 0 0 1 52.594378490554519 35.645464026820839 8.209977019880272 1 rotate no_reflect no_shear #
lump $-1 $-1 $22 $4 #
transform $-1 1 0 0 0 1 0 0 0 1 52.594378490554519 35.645464026820839 8.209977019880272 1 rotate no_reflect no_shear #
lump $-1 $-1 $23 $5 #
transform $-1 1 0 0 0 1 0 0 0 1 52.594378490554519 35.645464026820839 8.209977019880272 1 rotate no_reflect no_shear #
shell $-1 $-1 $-1 $24 $-1 $6 #
shell $-1 $-1 $-1 $25 $-1 $8 #
shell $-1 $-1 $-1 $26 $-1 $10 #
shell $-1 $-1 $-1 $27 $-1 $12 #
shell $-1 $-1 $-1 $28 $-1 $14 #
shell $-1 $-1 $-1 $29 $-1 $16 #
face $-1 $30 $31 $18 $-1 $32 reversed single #
face $-1 $33 $34 $19 $-1 $35 forward single #
face $-1 $36 $37 $20 $-1 $38 forward single #
face $-1 $39 $40 $21 $-1 $41 reversed single #
face $-1 $42 $43 $22 $-1 $44 forward single #
face $-1 $45 $46 $23 $-1 $47 forward single #
face $-1 $48 $49 $18 $-1 $50 forward single #
loop $-1 $-1 $51 $24 #
plane-surface $-1 0 -35.645464026820839 0 0 1 0 0 0 1 forward_v I I I I #
face $-1 $52 $53 $19 $-1 $54 forward single #
loop $-1 $-1 $55 $25 #
plane-surface $-1 0 -35.645464026820839 0 0 1 0 0 0 1 forward_v I I I I #
face $-1 $56 $57 $20 $-1 $58 forward single #
loop $-1 $-1 $59 $26 #
plane-surface $-1 0 35.645464026820839 0 0 -1 0 0 0 -1 forward_v I I I I #
face $-1 $60 $61 $21 $-1 $62 reversed single #
loop $-1 $-1 $63 $27 #
plane-surface $-1 49.998171248373239 -0.30082877898189686 149.55556376443215 0 -1 0 -0.69465837861970381 0 -0.71933979245794832 forward_v I I I I #
face $-1 $64 $65 $22 $-1 $66 forward single #
loop $-1 $67 $68 $28 #
cone-surface $-1 48.138335421865825 -9.2092421351873845 3.8628834844778304 -0.69465837861970381 0 -0.71933979245794832 1.0790096886869225 0 -1.0419875679295556 1 I I 0 1 1.5 forward I I I I #
face $-1 $69 $70 $23 $-1 $71 forward single #
loop $-1 $72 $73 $29 #
cone-surface $-1 48.138335421865825 -3.8641941214640951 3.8628834844778304 -0.69465837861970381 0 -0.71933979245794832 1.0790096886869225 0 -1.0419875679295556 1 I I 0 1 1.5 forward I I I I #
face $-1 $74 $75 $18 $-1 $76 reversed single #
loop $-1 $-1 $77 $30 #
plane-surface $-1 0 0 8.209977019880272 0 0 1 1 0 0 forward_v I I I I #
coedge $-1 $78 $79 $80 $81 reversed $31 $-1 #
face $-1 $82 $83 $19 $-1 $84 reversed single #
loop $-1 $-1 $85 $33 #
plane-surface $-1 0 0 8.209977019880272 0 0 1 1 0 0 forward_v I I I I #
coedge $-1 $86 $87 $88 $89 forward $34 $-1 #
face $-1 $90 $91 $20 $-1 $92 reversed single #
loop $-1 $-1 $93 $36 #
plane-surface $-1 0 0 8.209977019880272 0 0 1 1 0 0 forward_v I I I I #
coedge $-1 $94 $95 $96 $97 forward $37 $-1 #
face $-1 $98 $99 $21 $-1 $100 reversed single #
loop $-1 $-1 $101 $39 #
plane-surface $-1 -23.072080125146016 -6.5367181283257381 73.889105148731616 0.69465837861970381 0 0.71933979245794832 0.71933979245794832 0 -0.69465837861970381 forward_v I I I I #
coedge $-1 $102 $103 $104 $105 reversed $40 $-1 #
face $-1 $-1 $106 $22 $-1 $107 forward single #
loop $-1 $108 $109 $42 #
cone-surface $-1 46.988164568737858 -9.2092421351873845 2.6718467270658817 -0.69465837861970381 0 -0.71933979245794832 0.53950484434346124 0 -0.5209937839647778 1 I I -0.70710678118654757 0.70710678118654757 0.75 forward I I I I #
loop $-1 $-1 $110 $28 #
coedge $-1 $68 $68 $111 $112 reversed $43 $-1 #
face $-1 $-1 $113 $23 $-1 $114 forward single #
loop $-1 $115 $116 $45 #
cone-surface $-1 46.988164568737858 -3.8641941214640951 2.6718467270658817 -0.69465837861970381 0 -0.71933979245794832 0.53950484434346124 0 -0.5209937839647778 1 I I -0.70710678118654757 0.70710678118654757 0.75 forward I I I I #
loop $-1 $-1 $117 $29 #
coedge $-1 $73 $73 $118 $119 reversed $46 $-1 #
face $-1 $120 $121 $18 $-1 $122 reversed single #
loop $-1 $-1 $123 $48 #
plane-surface $-1 0 0 -8.209977019880272 0 0 1 1 0 0 forward_v I I I I #
coedge $-1 $124 $125 $126 $127 forward $49 $-1 #
coedge $-1 $128 $51 $129 $130 reversed $31 $-1 #
coedge $-1 $51 $128 $131 $132 forward $31 $-1 #
coedge $-1 $133 $123 $51 $81 forward $75 $-1 #
edge $-1 $134 -52.594378490554519 $135 52.594378490554519 $51 $136 forward 7 unknown #
face $-1 $137 $138 $19 $-1 $139 reversed single #
loop $-1 $-1 $140 $52 #
plane-surface $-1 -52.594378490554519 0 0 1 0 0 0 0 -1 forward_v I I I I #
coedge $-1 $141 $142 $87 $143 forward $53 $-1 #
coedge $-1 $144 $55 $145 $146 reversed $34 $-1 #
coedge $-1 $55 $144 $85 $143 reversed $34 $-1 #
coedge $-1 $147 $148 $55 $89 reversed $149 $-1 #
edge $-1 $150 -8.209977019880272 $151 8.209977019880272 $88 $152 forward 7 unknown #
face $-1 $153 $154 $20 $-1 $155 reversed single #
loop $-1 $-1 $156 $56 #
plane-surface $-1 -50.46943589257782 44.168816774058058 0 0 -1 0 0 0 -1 forward_v I I I I #
coedge $-1 $157 $158 $94 $159 forward $57 $-1 #
coedge $-1 $160 $59 $93 $159 reversed $37 $-1 #
coedge $-1 $59 $160 $161 $162 reversed $37 $-1 #
coedge $-1 $163 $164 $59 $97 reversed $154 $-1 #
edge $-1 $165 -8.209977019880272 $166 8.209977019880272 $96 $167 forward 7 unknown #
face $-1 $168 $169 $21 $-1 $170 forward single #
loop $-1 $-1 $171 $60 #
plane-surface $-1 49.998171248373239 -12.772607477669579 149.55556376443215 0 1 0 0.69465837861970381 0 0.71933979245794832 forward_v I I I I #
coedge $-1 $172 $173 $174 $175 reversed $61 $-1 #
coedge $-1 $103 $63 $176 $177 reversed $40 $-1 #
coedge $-1 $63 $102 $172 $178 reversed $40 $-1 #
coedge $-1 $174 $179 $63 $105 forward $169 $-1 #
edge $-1 $180 -27.595292866367899 $181 -19.94156086731688 $104 $182 forward 7 unknown #
loop $-1 $-1 $111 $64 #
plane-surface $-1 -23.072080125146016 -6.5367181283257381 73.889105148731616 0.69465837861970381 0 0.71933979245794832 0.71933979245794832 0 -0.69465837861970381 forward_v I I I I #
loop $-1 $-1 $183 $42 #
coedge $-1 $109 $109 $110 $184 reversed $65 $-1 #
coedge $-1 $110 $110 $109 $184 forward $67 $-1 #
coedge $-1 $111 $111 $68 $112 forward $106 $-1 #
edge $-1 $185 0 $185 6.2831853071796004 $111 $186 forward 7 unknown #
loop $-1 $-1 $118 $69 #
plane-surface $-1 -23.072080125146016 -6.5367181283257381 73.889105148731616 0.69465837861970381 0 0.71933979245794832 0.71933979245794832 0 -0.69465837861970381 forward_v I I I I #
loop $-1 $-1 $187 $45 #
coedge $-1 $116 $116 $117 $188 reversed $70 $-1 #
coedge $-1 $117 $117 $116 $188 forward $72 $-1 #
coedge $-1 $118 $118 $73 $119 forward $113 $-1 #
edge $-1 $189 0 $189 6.2831853071796004 $118 $190 forward 7 unknown #
face $-1 $191 $192 $18 $-1 $193 reversed single #
loop $-1 $-1 $194 $74 #
plane-surface $-1 -52.594378490554519 0 0 1 0 0 0 0 -1 forward_v I I I I #
coedge $-1 $80 $195 $196 $197 forward $75 $-1 #
coedge $-1 $198 $77 $199 $200 forward $49 $-1 #
coedge $-1 $77 $198 $128 $201 forward $49 $-1 #
coedge $-1 $129 $202 $77 $127 reversed $203 $-1 #
edge $-1 $204 -35.645464026820839 $205 35.645464026820839 $126 $206 forward 7 unknown #
coedge $-1 $79 $78 $125 $201 reversed $31 $-1 #
coedge $-1 $196 $126 $78 $130 forward $203 $-1 #
edge $-1 $204 -8.209977019880272 $134 8.209977019880272 $129 $207 forward 7 unknown #
coedge $-1 $208 $209 $79 $132 reversed $121 $-1 #
edge $-1 $210 -8.209977019880272 $135 8.209977019880272 $131 $211 forward 7 unknown #
coedge $-1 $195 $80 $209 $212 forward $75 $-1 #
vertex $-1 $130 $213 #
vertex $-1 $212 $214 #
straight-curve $-1 0 -35.645464026820839 -8.209977019880272 -1 0 0 I I #
face $-1 $215 $149 $19 $-1 $216 reversed single #
loop $-1 $-1 $217 $82 #
plane-surface $-1 -50.46943589257782 -44.168816774058051 0 0 1 0 0 0 1 forward_v I I I I #
coedge $-1 $218 $219 $144 $220 forward $83 $-1 #
coedge $-1 $221 $85 $219 $222 forward $53 $-1 #
coedge $-1 $85 $221 $147 $223 forward $53 $-1 #
edge $-1 $150 48.344493294601122 $224 52.594378490554519 $85 $225 forward 7 unknown #
coedge $-1 $87 $86 $140 $220 reversed $34 $-1 #
coedge $-1 $226 $227 $86 $146 forward $228 $-1 #
edge $-1 $229 -52.594378490554519 $151 -48.344493294601122 $145 $230 forward 7 unknown #
coedge $-1 $231 $88 $142 $223 reversed $149 $-1 #
coedge $-1 $88 $231 $226 $232 reversed $149 $-1 #
loop $-1 $-1 $231 $137 #
vertex $-1 $143 $233 #
vertex $-1 $232 $234 #
straight-curve $-1 -48.344493294601122 -35.645464026820839 0 0 0 -1 I I #
face $-1 $235 $236 $20 $-1 $237 reversed single #
loop $-1 $-1 $96 $90 #
plane-surface $-1 -48.344493294601122 39.907140400439452 0 -1 0 0 0 0 1 forward_v I I I I #
coedge $-1 $238 $239 $240 $241 forward $91 $-1 #
coedge $-1 $242 $93 $164 $243 forward $57 $-1 #
coedge $-1 $93 $242 $244 $245 forward $57 $-1 #
edge $-1 $246 -52.594378490554519 $166 -48.344493294601122 $93 $247 forward 7 unknown #
coedge $-1 $95 $94 $248 $249 reversed $37 $-1 #
coedge $-1 $250 $251 $95 $162 forward $236 $-1 #
edge $-1 $165 48.344493294601122 $252 52.594378490554519 $161 $253 forward 7 unknown #
coedge $-1 $240 $96 $251 $254 reversed $154 $-1 #
coedge $-1 $96 $240 $157 $243 reversed $154 $-1 #
vertex $-1 $162 $255 #
vertex $-1 $243 $256 #
straight-curve $-1 -48.344493294601122 35.645464026820839 0 0 0 1 I I #
face $-1 $-1 $257 $21 $-1 $258 reversed single #
loop $-1 $-1 $104 $98 #
plane-surface $-1 0 0 8.209977019880272 0 0 1 1 0 0 forward_v I I I I #
coedge $-1 $259 $260 $261 $262 reversed $99 $-1 #
coedge $-1 $263 $101 $103 $178 forward $61 $-1 #
coedge $-1 $101 $263 $259 $264 forward $61 $-1 #
coedge $-1 $261 $104 $101 $175 forward $169 $-1 #
edge $-1 $181 -2.9675302851809722 $265 9.5042484135067102 $174 $266 forward 7 unknown #
coedge $-1 $267 $268 $102 $177 forward $257 $-1 #
edge $-1 $269 -73.958928107003715 $180 -66.567804862335805 $176 $270 forward 7 unknown #
edge $-1 $181 94.548817304063505 $269 105.18875698110904 $103 $271 forward 7 unknown #
coedge $-1 $104 $261 $267 $272 forward $169 $-1 #
vertex $-1 $105 $273 #
vertex $-1 $105 $274 #
straight-curve $-1 24.99908562418662 -0.30082877898189686 8.2099770198802702 -1 0 0 I I #
coedge $-1 $183 $183 $-1 $275 reversed $108 $-1 #
edge $-1 $276 0 $276 6.2831853071796004 $109 $277 forward 7 unknown #
vertex $-1 $112 $278 #
ellipse-curve $-1 48.767512491029009 -9.2092421351873845 4.5144153975463084 0.69465837861970381 0 0.71933979245794832 1.0790096886869225 0 -1.0419875679295556 1 I I #
coedge $-1 $187 $187 $-1 $279 reversed $115 $-1 #
edge $-1 $280 0 $280 6.2831853071796004 $116 $281 forward 7 unknown #
vertex $-1 $119 $282 #
ellipse-curve $-1 48.767512491029009 -3.8641941214640951 4.5144153975463084 0.69465837861970381 0 0.71933979245794832 1.0790096886869225 0 -1.0419875679295556 1 I I #
face $-1 $-1 $203 $18 $-1 $283 reversed single #
loop $-1 $-1 $199 $120 #
plane-surface $-1 0 35.645464026820839 0 0 -1 0 0 0 -1 forward_v I I I I #
coedge $-1 $209 $208 $284 $285 forward $121 $-1 #
coedge $-1 $123 $133 $286 $287 forward $75 $-1 #
coedge $-1 $202 $129 $123 $197 reversed $203 $-1 #
edge $-1 $288 -35.645464026820839 $134 35.645464026820839 $196 $289 forward 7 unknown #
coedge $-1 $125 $124 $208 $290 forward $49 $-1 #
coedge $-1 $291 $284 $124 $200 reversed $192 $-1 #
edge $-1 $205 -52.594378490554519 $292 52.594378490554519 $199 $293 forward 7 unknown #
edge $-1 $210 -52.594378490554519 $204 52.594378490554519 $128 $294 forward 7 unknown #
coedge $-1 $126 $196 $291 $295 reversed $203 $-1 #
loop $-1 $-1 $129 $191 #
vertex $-1 $127 $296 #
vertex $-1 $127 $297 #
straight-curve $-1 52.594378490554519 0 8.209977019880272 0 1 0 I I #
straight-curve $-1 52.594378490554519 -35.645464026820839 0 0 0 -1 I I #
coedge $-1 $194 $131 $198 $290 reversed $121 $-1 #
coedge $-1 $131 $194 $133 $212 reversed $121 $-1 #
vertex $-1 $290 $298 #
straight-curve $-1 -52.594378490554519 -35.645464026820839 0 0 0 -1 I I #
edge $-1 $135 -35.645464026820839 $299 35.645464026820839 $209 $300 forward 7 unknown #
point $-1 52.594378490554519 -35.645464026820839 -8.209977019880272 #
point $-1 -52.594378490554519 -35.645464026820839 -8.209977019880272 #
face $-1 $-1 $228 $19 $-1 $301 reversed single #
plane-surface $-1 -48.344493294601122 -39.907140400439445 0 -1 0 0 0 0 1 forward_v I I I I #
coedge $-1 $302 $303 $304 $305 forward $138 $-1 #
coedge $-1 $304 $140 $227 $306 reversed $83 $-1 #
coedge $-1 $140 $304 $141 $222 reversed $83 $-1 #
edge $-1 $224 -8.209977019880272 $229 8.209977019880272 $140 $307 forward 7 unknown #
coedge $-1 $142 $141 $303 $308 forward $53 $-1 #
edge $-1 $224 35.645464026820839 $309 44.168816774058051 $219 $310 forward 7 unknown #
edge $-1 $311 -4.2616763736186059 $150 4.2616763736186059 $147 $312 forward 7 unknown #
vertex $-1 $222 $313 #
straight-curve $-1 0 -35.645464026820839 8.209977019880272 -1 0 0 I I #
coedge $-1 $314 $145 $148 $232 forward $228 $-1 #
coedge $-1 $145 $314 $218 $306 forward $228 $-1 #
loop $-1 $-1 $145 $215 #
vertex $-1 $220 $315 #
straight-curve $-1 0 -35.645464026820839 -8.209977019880272 1 0 0 I I #
coedge $-1 $148 $147 $316 $317 forward $149 $-1 #
edge $-1 $151 -4.2616763736186059 $318 4.2616763736186059 $148 $319 forward 7 unknown #
point $-1 -48.344493294601122 -35.645464026820839 8.209977019880272 #
point $-1 -48.344493294601122 -35.645464026820839 -8.209977019880272 #
face $-1 $-1 $320 $20 $-1 $321 reversed single #
loop $-1 $-1 $161 $153 #
plane-surface $-1 0 0 -8.209977019880272 0 0 1 1 0 0 forward_v I I I I #
coedge $-1 $322 $156 $323 $324 reversed $91 $-1 #
coedge $-1 $156 $322 $242 $325 reversed $91 $-1 #
coedge $-1 $164 $163 $156 $241 reversed $154 $-1 #
edge $-1 $326 -8.209977019880272 $327 8.209977019880272 $240 $328 forward 7 unknown #
coedge $-1 $158 $157 $239 $325 forward $57 $-1 #
edge $-1 $166 -4.2616763736186059 $326 4.2616763736186059 $164 $329 forward 7 unknown #
coedge $-1 $330 $248 $158 $245 reversed $320 $-1 #
edge $-1 $331 -44.168816774058058 $246 -35.645464026820839 $244 $332 forward 7 unknown #
vertex $-1 $249 $333 #
straight-curve $-1 0 35.645464026820839 8.209977019880272 1 0 0 I I #
coedge $-1 $244 $334 $160 $249 forward $320 $-1 #
edge $-1 $252 -8.209977019880272 $246 8.209977019880272 $248 $335 forward 7 unknown #
coedge $-1 $323 $161 $334 $336 forward $236 $-1 #
coedge $-1 $161 $323 $163 $254 forward $236 $-1 #
vertex $-1 $336 $337 #
straight-curve $-1 0 35.645464026820839 -8.209977019880272 -1 0 0 I I #
edge $-1 $327 -4.2616763736186059 $165 4.2616763736186059 $163 $338 forward 7 unknown #
point $-1 -48.344493294601122 35.645464026820846 -8.209977019880272 #
point $-1 -48.344493294601122 35.645464026820846 8.209977019880272 #
loop $-1 $-1 $176 $168 #
plane-surface $-1 52.594378490554519 0 0 -1 0 0 0 0 1 forward_v I I I I #
coedge $-1 $260 $171 $173 $264 reversed $99 $-1 #
coedge $-1 $171 $259 $339 $340 reversed $99 $-1 #
coedge $-1 $179 $174 $171 $262 forward $169 $-1 #
edge $-1 $265 19.94156086731688 $341 27.595292866367899 $261 $342 forward 7 unknown #
coedge $-1 $173 $172 $268 $343 reversed $61 $-1 #
edge $-1 $344 -105.18875698110904 $265 -94.548817304063505 $259 $345 forward 7 unknown #
vertex $-1 $175 $346 #
straight-curve $-1 44.940646491503493 -3.268359064162869 8.2099770198802702 0 -1 0 I I #
coedge $-1 $339 $176 $179 $272 reversed $257 $-1 #
coedge $-1 $176 $339 $263 $343 forward $257 $-1 #
vertex $-1 $177 $347 #
straight-curve $-1 52.594378490554519 -0.30082877898189686 74.777781882216075 0 0 1 I I #
straight-curve $-1 -23.072080125146016 -0.30082877898189686 73.889105148731616 0.71933979245794832 0 -0.69465837861970381 I I #
edge $-1 $341 -12.772607477669579 $180 -0.30082877898189686 $267 $348 forward 7 unknown #
point $-1 52.594378490554519 -0.30082877898189686 8.209977019880272 #
point $-1 44.9406464915035 -0.30082877898189686 8.2099770198802702 #
edge $-1 $349 1 $349 0 $183 $-1 forward 7 unknown #
vertex $-1 $184 $350 #
ellipse-curve $-1 47.509158352702634 -9.2092421351873845 3.211351571409343 0.69465837861970381 0 0.71933979245794832 1.0790096886869225 0 -1.0419875679295556 1 I I #
point $-1 49.84652217971594 -9.2092421351873845 3.4724278296167617 #
edge $-1 $351 1 $351 0 $187 $-1 forward 7 unknown #
vertex $-1 $188 $352 #
ellipse-curve $-1 47.509158352702634 -3.8641941214640951 3.211351571409343 0.69465837861970381 0 0.71933979245794832 1.0790096886869225 0 -1.0419875679295556 1 I I #
point $-1 49.84652217971594 -3.8641941214640951 3.4724278296167617 #
plane-surface $-1 52.594378490554519 0 0 -1 0 0 0 0 1 forward_v I I I I #
coedge $-1 $199 $286 $194 $285 reversed $192 $-1 #
edge $-1 $292 -8.209977019880272 $299 8.209977019880272 $284 $353 forward 7 unknown #
coedge $-1 $284 $291 $195 $287 reversed $192 $-1 #
edge $-1 $299 -52.594378490554519 $288 52.594378490554519 $286 $354 forward 7 unknown #
vertex $-1 $197 $355 #
straight-curve $-1 52.594378490554519 0 -8.209977019880272 0 -1 0 I I #
edge $-1 $292 -35.645464026820839 $210 35.645464026820839 $208 $356 forward 7 unknown #
coedge $-1 $286 $199 $202 $295 forward $192 $-1 #
vertex $-1 $200 $357 #
straight-curve $-1 0 35.645464026820839 8.209977019880272 -1 0 0 I I #
straight-curve $-1 0 -35.645464026820839 8.209977019880272 1 0 0 I I #
edge $-1 $205 -8.209977019880272 $288 8.209977019880272 $202 $358 forward 7 unknown #
point $-1 52.594378490554519 -35.645464026820839 8.209977019880272 #
point $-1 52.594378490554519 35.645464026820839 8.209977019880272 #
point $-1 -52.594378490554519 -35.645464026820839 8.209977019880272 #
vertex $-1 $287 $359 #
straight-curve $-1 -52.594378490554519 0 -8.209977019880272 0 1 0 I I #
plane-surface $-1 0 0 -8.209977019880272 0 0 1 1 0 0 forward_v I I I I #
coedge $-1 $316 $217 $314 $360 reversed $138 $-1 #
coedge $-1 $217 $316 $221 $308 reversed $138 $-1 #
coedge $-1 $219 $218 $217 $305 reversed $83 $-1 #
edge $-1 $309 -8.209977019880272 $361 8.209977019880272 $304 $362 forward 7 unknown #
edge $-1 $361 -44.168816774058051 $229 -35.645464026820839 $218 $363 forward 7 unknown #
straight-curve $-1 -52.594378490554519 -35.645464026820839 0 0 0 -1 I I #
edge $-1 $309 -2.1249425979766983 $311 2.1249425979766983 $303 $364 forward 7 unknown #
vertex $-1 $222 $365 #
straight-curve $-1 -52.594378490554519 0 8.209977019880272 0 -1 0 I I #
vertex $-1 $223 $366 #
straight-curve $-1 -48.344493294601122 -39.907140400439445 8.209977019880272 0 1 0 I I #
point $-1 -52.594378490554519 -35.645464026820839 8.209977019880272 #
coedge $-1 $227 $226 $302 $360 forward $228 $-1 #
point $-1 -52.594378490554519 -35.645464026820839 -8.209977019880272 #
coedge $-1 $303 $302 $231 $317 reversed $138 $-1 #
edge $-1 $311 -8.209977019880272 $318 8.209977019880272 $231 $367 forward 7 unknown #
vertex $-1 $317 $368 #
straight-curve $-1 -48.344493294601122 -39.907140400439445 -8.209977019880272 0 -1 0 I I #
loop $-1 $-1 $248 $235 #
plane-surface $-1 -52.594378490554519 0 0 1 0 0 0 0 -1 forward_v I I I I #
coedge $-1 $239 $238 $330 $369 reversed $91 $-1 #
coedge $-1 $251 $250 $238 $324 forward $236 $-1 #
edge $-1 $370 -2.1249425979766983 $327 2.1249425979766983 $238 $371 forward 7 unknown #
edge $-1 $326 -2.1249425979766983 $331 2.1249425979766983 $239 $372 forward 7 unknown #
vertex $-1 $243 $373 #
vertex $-1 $254 $374 #
straight-curve $-1 -48.344493294601122 44.168816774058058 0 0 0 -1 I I #
straight-curve $-1 -48.344493294601122 39.907140400439452 8.209977019880272 0 1 0 I I #
coedge $-1 $334 $244 $322 $369 forward $320 $-1 #
vertex $-1 $325 $375 #
straight-curve $-1 -52.594378490554519 0 8.209977019880272 0 -1 0 I I #
point $-1 -52.594378490554519 35.645464026820839 8.209977019880272 #
coedge $-1 $248 $330 $250 $336 reversed $320 $-1 #
straight-curve $-1 -52.594378490554519 35.645464026820839 0 0 0 1 I I #
edge $-1 $252 -4.261676373618613 $370 4.2616763736186059 $334 $376 forward 7 unknown #
point $-1 -52.594378490554519 35.645464026820839 -8.209977019880272 #
straight-curve $-1 -48.344493294601122 39.907140400439452 -8.209977019880272 0 -1 0 I I #
coedge $-1 $268 $267 $260 $340 forward $257 $-1 #
edge $-1 $341 66.567804862335805 $344 73.958928107003715 $339 $377 forward 7 unknown #
vertex $-1 $272 $378 #
straight-curve $-1 24.99908562418662 -12.772607477669579 8.2099770198802702 1 0 0 I I #
edge $-1 $344 -9.5042484135067102 $269 2.9675302851809722 $268 $379 forward 7 unknown #
vertex $-1 $343 $380 #
straight-curve $-1 -23.072080125146016 -12.772607477669579 73.889105148731616 -0.71933979245794832 0 0.69465837861970381 I I #
point $-1 44.9406464915035 -12.772607477669579 8.2099770198802702 #
point $-1 52.594378490554519 -0.30082877898189686 0.8188537752123608 #
straight-curve $-1 52.594378490554519 0 8.209977019880272 0 1 0 I I #
vertex $-1 $275 $381 #
point $-1 48.588168041389558 -9.2092421351873845 2.1693640034797874 #
vertex $-1 $279 $382 #
point $-1 48.588168041389558 -3.8641941214640951 2.1693640034797874 #
straight-curve $-1 -52.594378490554519 35.645464026820839 0 0 0 -1 I I #
straight-curve $-1 0 35.645464026820839 -8.209977019880272 1 0 0 I I #
point $-1 52.594378490554519 35.645464026820839 -8.209977019880272 #
straight-curve $-1 -52.594378490554519 0 8.209977019880272 0 -1 0 I I #
point $-1 -52.594378490554519 35.645464026820839 8.209977019880272 #
straight-curve $-1 52.594378490554519 35.645464026820839 0 0 0 -1 I I #
point $-1 -52.594378490554519 35.645464026820839 -8.209977019880272 #
edge $-1 $318 -2.1249425979766983 $361 2.1249425979766983 $302 $383 forward 7 unknown #
vertex $-1 $306 $384 #
straight-curve $-1 -52.594378490554519 -44.168816774058051 0 0 0 -1 I I #
straight-curve $-1 -52.594378490554519 0 -8.209977019880272 0 1 0 I I #
straight-curve $-1 -50.46943589257782 -44.168816774058051 8.209977019880272 1 0 0 I I #
point $-1 -52.594378490554519 -44.168816774058051 8.209977019880272 #
point $-1 -48.344493294601122 -44.168816774058051 8.209977019880272 #
straight-curve $-1 -48.344493294601122 -44.168816774058051 0 0 0 -1 I I #
point $-1 -48.344493294601122 -44.168816774058051 -8.209977019880272 #
edge $-1 $331 -8.209977019880272 $370 8.209977019880272 $322 $385 forward 7 unknown #
vertex $-1 $324 $386 #
straight-curve $-1 -50.46943589257782 44.168816774058058 -8.209977019880272 1 0 0 I I #
straight-curve $-1 -50.46943589257782 44.168816774058058 8.209977019880272 -1 0 0 I I #
point $-1 -48.344493294601122 44.168816774058058 8.209977019880272 #
point $-1 -48.344493294601122 44.168816774058058 -8.209977019880272 #
point $-1 -52.594378490554519 44.168816774058058 8.209977019880272 #
straight-curve $-1 -52.594378490554519 39.907140400439452 -8.209977019880272 0 1 0 I I #
straight-curve $-1 52.594378490554519 -12.772607477669579 74.777781882216075 0 0 -1 I I #
point $-1 52.594378490554519 -12.772607477669579 8.209977019880272 #
straight-curve $-1 52.594378490554512 -3.268359064162869 0.8188537752123608 0 1 0 I I #
point $-1 52.594378490554519 -12.772607477669579 0.8188537752123608 #
point $-1 46.467170784773081 -9.2092421351873845 2.1323418827224203 #
point $-1 46.467170784773081 -3.8641941214640951 2.1323418827224203 #
straight-curve $-1 -50.46943589257782 -44.168816774058051 -8.209977019880272 -1 0 0 I I #
point $-1 -52.594378490554519 -44.168816774058051 -8.209977019880272 #
straight-curve $-1 -52.594378490554519 44.168816774058058 0 0 0 -1 I I #
point $-1 -52.594378490554519 44.168816774058058 -8.209977019880272 #
End-of-ACIS-data 