500 0 11 0           
7 Unknown 11 ACIS 5.0 NT 24 Fri Mar 26 17:53:39 1999 
-1 9.9999999999999995e-007 1e-010 
body $-1 $11 $-1 $12 #
body $-1 $13 $-1 $14 #
body $-1 $15 $-1 $16 #
body $-1 $17 $-1 $18 #
body $-1 $19 $-1 $20 #
body $-1 $21 $-1 $22 #
body $-1 $23 $-1 $24 #
body $-1 $25 $-1 $26 #
body $-1 $27 $-1 $28 #
body $-1 $29 $-1 $30 #
body $-1 $31 $-1 $32 #
lump $-1 $-1 $33 $0 #
transform $-1 1 0 0 0 1 0 0 0 1 56.714377269814143 36.683732252934199 17.817588902001965 1 rotate no_reflect no_shear #
lump $-1 $-1 $34 $1 #
transform $-1 1 0 0 0 1 0 0 0 1 56.714377269814143 36.683732252934199 17.817588902001965 1 rotate no_reflect no_shear #
lump $-1 $-1 $35 $2 #
transform $-1 1 0 0 0 1 0 0 0 1 56.714377269814143 36.683732252934199 17.817588902001965 1 rotate no_reflect no_shear #
lump $-1 $-1 $36 $3 #
transform $-1 1 0 0 0 1 0 0 0 1 56.714377269814143 36.683732252934199 17.817588902001965 1 rotate no_reflect no_shear #
lump $-1 $-1 $37 $4 #
transform $-1 1 0 0 0 1 0 0 0 1 56.714377269814143 36.683732252934199 17.817588902001965 1 rotate no_reflect no_shear #
lump $-1 $-1 $38 $5 #
transform $-1 1 0 0 0 1 0 0 0 1 56.714377269814143 36.683732252934199 17.817588902001965 1 rotate no_reflect no_shear #
lump $-1 $-1 $39 $6 #
transform $-1 1 0 0 0 1 0 0 0 1 56.714377269814143 36.683732252934199 17.817588902001965 1 rotate no_reflect no_shear #
lump $-1 $-1 $40 $7 #
transform $-1 1 0 0 0 1 0 0 0 1 56.714377269814143 36.683732252934199 17.817588902001965 1 rotate no_reflect no_shear #
lump $-1 $-1 $41 $8 #
transform $-1 1 0 0 0 1 0 0 0 1 56.714377269814143 36.683732252934199 17.817588902001965 1 rotate no_reflect no_shear #
lump $-1 $-1 $42 $9 #
transform $-1 1 0 0 0 1 0 0 0 1 56.714377269814143 36.683732252934199 17.817588902001965 1 rotate no_reflect no_shear #
lump $-1 $-1 $43 $10 #
transform $-1 1 0 0 0 1 0 0 0 1 56.714377269814143 36.683732252934199 17.817588902001965 1 rotate no_reflect no_shear #
shell $-1 $-1 $-1 $44 $-1 $11 #
shell $-1 $-1 $-1 $45 $-1 $13 #
shell $-1 $-1 $-1 $46 $-1 $15 #
shell $-1 $-1 $-1 $47 $-1 $17 #
shell $-1 $-1 $-1 $48 $-1 $19 #
shell $-1 $-1 $-1 $49 $-1 $21 #
shell $-1 $-1 $-1 $50 $-1 $23 #
shell $-1 $-1 $-1 $51 $-1 $25 #
shell $-1 $-1 $-1 $52 $-1 $27 #
shell $-1 $-1 $-1 $53 $-1 $29 #
shell $-1 $-1 $-1 $54 $-1 $31 #
face $-1 $55 $56 $33 $-1 $57 forward single #
face $-1 $58 $59 $34 $-1 $60 reversed single #
face $-1 $61 $62 $35 $-1 $63 reversed single #
face $-1 $64 $65 $36 $-1 $66 forward single #
face $-1 $67 $68 $37 $-1 $69 forward single #
face $-1 $70 $71 $38 $-1 $72 reversed single #
face $-1 $73 $74 $39 $-1 $75 forward single #
face $-1 $76 $77 $40 $-1 $78 forward single #
face $-1 $79 $80 $41 $-1 $81 reversed single #
face $-1 $82 $83 $42 $-1 $84 forward single #
face $-1 $85 $86 $43 $-1 $87 forward single #
face $-1 $88 $89 $33 $-1 $90 reversed single #
loop $-1 $-1 $91 $44 #
plane-surface $-1 0 0 17.817588902001965 0 0 1 1 0 0 forward_v I I I I #
face $-1 $92 $93 $34 $-1 $94 reversed single #
loop $-1 $-1 $95 $45 #
plane-surface $-1 -46.89526373007017 0 10.52144203566443 0 0 1 1 0 0 forward_v I I I I #
face $-1 $96 $97 $35 $-1 $98 reversed single #
loop $-1 $-1 $99 $46 #
plane-surface $-1 -11.996438822309621 -106.51744749290319 99.011548467271211 -1 0 0 0 -0.61566148304635926 0.78801074757464917 forward_v I I I I #
face $-1 $100 $101 $36 $-1 $102 forward single #
loop $-1 $103 $104 $47 #
cone-surface $-1 -20.137465111109755 -29.687308478167687 11.475929440800847 0 0.61566148304635926 -0.78801074757464917 1.5 0 0 1 I I 0 1 1.5 forward I I I I #
face $-1 $105 $106 $37 $-1 $107 forward single #
loop $-1 $108 $109 $48 #
cone-surface $-1 -15.252849337829673 -29.687308478167687 11.475929440800847 0 0.61566148304635926 -0.78801074757464917 1.5 0 0 1 I I 0 1 1.5 forward I I I I #
face $-1 $110 $111 $38 $-1 $112 reversed single #
loop $-1 $-1 $113 $49 #
plane-surface $-1 43.032102706117747 -106.51744749290319 99.011548467271211 -1 0 0 0 -0.61566148304635926 0.78801074757464917 forward_v I I I I #
face $-1 $114 $115 $39 $-1 $116 forward single #
loop $-1 $117 $118 $50 #
cone-surface $-1 34.891076417317613 -29.687308478167687 11.475929440800847 0 0.61566148304635926 -0.78801074757464917 1.5 0 0 1 I I 0 1 1.5 forward I I I I #
face $-1 $119 $120 $40 $-1 $121 forward single #
loop $-1 $122 $123 $51 #
cone-surface $-1 39.775692190597688 -29.687308478167687 11.475929440800847 0 0.61566148304635926 -0.78801074757464917 1.5 0 0 1 I I 0 1 1.5 forward I I I I #
face $-1 $124 $125 $41 $-1 $126 reversed single #
loop $-1 $-1 $127 $52 #
plane-surface $-1 -16.450121832441393 74.156114093229121 137.267556279963 1 0 0 0 -0.75470958851134928 -0.65605901945558964 forward_v I I I I #
face $-1 $128 $129 $42 $-1 $130 forward single #
loop $-1 $131 $132 $53 #
cone-surface $-1 -12.107941280146918 29.981420661876836 10.728469505170567 0 -0.75470958851134928 -0.65605901945558964 1.5 0 0 1 I I 0 1 1.5 forward I I I I #
face $-1 $133 $134 $43 $-1 $135 forward single #
loop $-1 $136 $137 $54 #
cone-surface $-1 -5.5946704517052126 29.981420661876836 10.728469505170567 0 -0.75470958851134928 -0.65605901945558964 1.5 0 0 1 I I 0 1 1.5 forward I I I I #
face $-1 $138 $139 $33 $-1 $140 reversed single #
loop $-1 $-1 $141 $55 #
plane-surface $-1 0 0 -17.817588902001965 0 0 1 1 0 0 forward_v I I I I #
coedge $-1 $142 $143 $144 $145 forward $56 $-1 #
face $-1 $146 $147 $34 $-1 $148 reversed single #
loop $-1 $-1 $149 $58 #
plane-surface $-1 -37.076150190326203 0 14.169515468833197 -1 0 0 0 0 1 forward_v I I I I #
coedge $-1 $150 $151 $152 $153 forward $59 $-1 #
face $-1 $154 $155 $35 $-1 $156 reversed single #
loop $-1 $-1 $157 $61 #
plane-surface $-1 -17.695157224469718 -36.683732252934178 9.6284708060373418 0 -0.61566148304635926 0.78801074757464917 1 0 0 forward_v I I I I #
coedge $-1 $158 $159 $160 $161 reversed $62 $-1 #
face $-1 $-1 $162 $36 $-1 $163 forward single #
loop $-1 $164 $165 $64 #
cone-surface $-1 -20.137465111109755 -27.469935076262324 8.6378209669010495 0 0.61566148304635926 -0.78801074757464917 0.75 0 0 1 I I -0.70710678118654757 0.70710678118654757 0.75 forward I I I I #
loop $-1 $-1 $166 $47 #
coedge $-1 $104 $104 $167 $168 reversed $65 $-1 #
face $-1 $-1 $169 $37 $-1 $170 forward single #
loop $-1 $171 $172 $67 #
cone-surface $-1 -15.252849337829673 -27.469935076262324 8.6378209669010495 0 0.61566148304635926 -0.78801074757464917 0.75 0 0 1 I I -0.70710678118654757 0.70710678118654757 0.75 forward I I I I #
loop $-1 $-1 $173 $48 #
coedge $-1 $109 $109 $174 $175 reversed $68 $-1 #
face $-1 $176 $177 $38 $-1 $178 reversed single #
loop $-1 $-1 $179 $70 #
plane-surface $-1 37.333384303957651 -36.683732252934178 9.6284708060373418 0 -0.61566148304635926 0.78801074757464917 1 0 0 forward_v I I I I #
coedge $-1 $180 $181 $182 $183 reversed $71 $-1 #
face $-1 $-1 $184 $39 $-1 $185 forward single #
loop $-1 $186 $187 $73 #
cone-surface $-1 34.891076417317613 -27.469935076262324 8.6378209669010495 0 0.61566148304635926 -0.78801074757464917 0.75 0 0 1 I I -0.70710678118654757 0.70710678118654757 0.75 forward I I I I #
loop $-1 $-1 $188 $50 #
coedge $-1 $118 $118 $189 $190 reversed $74 $-1 #
face $-1 $-1 $191 $40 $-1 $192 forward single #
loop $-1 $193 $194 $76 #
cone-surface $-1 39.775692190597688 -27.469935076262324 8.6378209669010495 0 0.61566148304635926 -0.78801074757464917 0.75 0 0 1 I I -0.70710678118654757 0.70710678118654757 0.75 forward I I I I #
loop $-1 $-1 $195 $51 #
coedge $-1 $123 $123 $196 $197 reversed $77 $-1 #
face $-1 $198 $199 $41 $-1 $200 reversed single #
loop $-1 $-1 $201 $79 #
plane-surface $-1 -8.8513058659260722 -11.449654570728583 62.851598798625702 0 0.75470958851134928 0.65605901945558964 1 0 0 forward_v I I I I #
coedge $-1 $202 $203 $204 $205 reversed $80 $-1 #
face $-1 $-1 $206 $42 $-1 $207 forward single #
loop $-1 $208 $209 $82 #
cone-surface $-1 -12.107941280146918 27.206037013802842 8.3158653691080744 0 -0.75470958851134928 -0.65605901945558964 0.75 0 0 1 I I -0.70710678118654757 0.70710678118654757 0.75 forward I I I I #
loop $-1 $-1 $210 $53 #
coedge $-1 $132 $132 $211 $212 reversed $83 $-1 #
face $-1 $-1 $213 $43 $-1 $214 forward single #
loop $-1 $215 $216 $85 #
cone-surface $-1 -5.5946704517052126 27.206037013802842 8.3158653691080744 0 -0.75470958851134928 -0.65605901945558964 0.75 0 0 1 I I -0.70710678118654757 0.70710678118654757 0.75 forward I I I I #
loop $-1 $-1 $217 $54 #
coedge $-1 $137 $137 $218 $219 reversed $86 $-1 #
face $-1 $220 $221 $33 $-1 $222 reversed single #
loop $-1 $-1 $223 $88 #
plane-surface $-1 0 -36.683732252934199 0 0 1 0 0 0 1 forward_v I I I I #
coedge $-1 $224 $225 $226 $227 forward $89 $-1 #
coedge $-1 $228 $91 $229 $230 forward $56 $-1 #
coedge $-1 $91 $228 $231 $232 forward $56 $-1 #
coedge $-1 $233 $234 $91 $145 reversed $235 $-1 #
edge $-1 $236 -36.683732252934199 $237 36.683732252934199 $144 $238 forward 7 unknown #
face $-1 $239 $240 $34 $-1 $241 reversed single #
loop $-1 $-1 $242 $92 #
plane-surface $-1 0 36.683732252934199 0 0 -1 0 0 0 -1 forward_v I I I I #
coedge $-1 $152 $243 $244 $245 reversed $93 $-1 #
coedge $-1 $246 $95 $247 $248 reversed $59 $-1 #
coedge $-1 $95 $246 $249 $250 reversed $59 $-1 #
coedge $-1 $251 $149 $95 $153 reversed $93 $-1 #
edge $-1 $252 -36.683732252934199 $253 36.683732252934199 $152 $254 forward 7 unknown #
face $-1 $255 $256 $35 $-1 $257 reversed single #
loop $-1 $-1 $258 $96 #
plane-surface $-1 -23.393875626629814 -106.51744749290319 99.011548467271211 1 0 0 0 0.61566148304635926 -0.78801074757464917 forward_v I I I I #
coedge $-1 $259 $260 $261 $262 reversed $97 $-1 #
coedge $-1 $159 $99 $263 $264 reversed $62 $-1 #
coedge $-1 $99 $158 $259 $265 reversed $62 $-1 #
coedge $-1 $261 $266 $99 $161 forward $267 $-1 #
edge $-1 $268 16.574991493517395 $269 27.056584463809259 $160 $270 forward 7 unknown #
loop $-1 $-1 $167 $100 #
plane-surface $-1 -17.695157224469718 -36.683732252934178 9.6284708060373418 0 -0.61566148304635926 0.78801074757464917 1 0 0 forward_v I I I I #
loop $-1 $-1 $271 $64 #
coedge $-1 $165 $165 $166 $272 reversed $101 $-1 #
coedge $-1 $166 $166 $165 $272 forward $103 $-1 #
coedge $-1 $167 $167 $104 $168 forward $162 $-1 #
edge $-1 $273 2.335641356445455e-016 $273 6.2831853071796004 $167 $274 forward 7 unknown #
loop $-1 $-1 $174 $105 #
plane-surface $-1 -17.695157224469718 -36.683732252934178 9.6284708060373418 0 -0.61566148304635926 0.78801074757464917 1 0 0 forward_v I I I I #
loop $-1 $-1 $275 $67 #
coedge $-1 $172 $172 $173 $276 reversed $106 $-1 #
coedge $-1 $173 $173 $172 $276 forward $108 $-1 #
coedge $-1 $174 $174 $109 $175 forward $169 $-1 #
edge $-1 $277 2.335641356445455e-016 $277 6.2831853071796004 $174 $278 forward 7 unknown #
face $-1 $279 $280 $38 $-1 $281 reversed single #
loop $-1 $-1 $282 $110 #
plane-surface $-1 31.634665901797554 -106.51744749290319 99.011548467271211 1 0 0 0 0.61566148304635926 -0.78801074757464917 forward_v I I I I #
coedge $-1 $283 $284 $285 $286 reversed $111 $-1 #
coedge $-1 $181 $113 $287 $288 reversed $71 $-1 #
coedge $-1 $113 $180 $283 $289 reversed $71 $-1 #
coedge $-1 $285 $290 $113 $183 forward $291 $-1 #
edge $-1 $292 16.574991493517395 $293 27.056584463809259 $182 $294 forward 7 unknown #
loop $-1 $-1 $189 $114 #
plane-surface $-1 37.333384303957651 -36.683732252934178 9.6284708060373418 0 -0.61566148304635926 0.78801074757464917 1 0 0 forward_v I I I I #
loop $-1 $-1 $295 $73 #
coedge $-1 $187 $187 $188 $296 reversed $115 $-1 #
coedge $-1 $188 $188 $187 $296 forward $117 $-1 #
coedge $-1 $189 $189 $118 $190 forward $184 $-1 #
edge $-1 $297 2.335641356445455e-016 $297 6.2831853071796004 $189 $298 forward 7 unknown #
loop $-1 $-1 $196 $119 #
plane-surface $-1 37.333384303957651 -36.683732252934178 9.6284708060373418 0 -0.61566148304635926 0.78801074757464917 1 0 0 forward_v I I I I #
loop $-1 $-1 $299 $76 #
coedge $-1 $194 $194 $195 $300 reversed $120 $-1 #
coedge $-1 $195 $195 $194 $300 forward $122 $-1 #
coedge $-1 $196 $196 $123 $197 forward $191 $-1 #
edge $-1 $301 2.335641356445455e-016 $301 6.2831853071796004 $196 $302 forward 7 unknown #
face $-1 $303 $304 $41 $-1 $305 forward single #
loop $-1 $-1 $306 $124 #
plane-surface $-1 -1.252489899410751 74.156114093229121 137.267556279963 -1 0 0 0 0.75470958851134928 0.65605901945558964 forward_v I I I I #
coedge $-1 $307 $308 $309 $310 reversed $125 $-1 #
coedge $-1 $203 $127 $311 $312 reversed $80 $-1 #
coedge $-1 $127 $202 $307 $313 reversed $80 $-1 #
coedge $-1 $309 $314 $127 $205 forward $304 $-1 #
edge $-1 $315 0.39432479368036155 $316 9.3802450624141187 $204 $317 forward 7 unknown #
loop $-1 $-1 $211 $128 #
plane-surface $-1 -8.8513058659260722 -11.449654570728583 62.851598798625702 0 0.75470958851134928 0.65605901945558964 1 0 0 forward_v I I I I #
loop $-1 $-1 $318 $82 #
coedge $-1 $209 $209 $210 $319 reversed $129 $-1 #
coedge $-1 $210 $210 $209 $319 forward $131 $-1 #
coedge $-1 $211 $211 $132 $212 forward $206 $-1 #
edge $-1 $320 -1.7875113857507789e-015 $320 6.2831853071795987 $211 $321 forward 7 unknown #
loop $-1 $-1 $218 $133 #
plane-surface $-1 -8.8513058659260722 -11.449654570728583 62.851598798625702 0 0.75470958851134928 0.65605901945558964 1 0 0 forward_v I I I I #
loop $-1 $-1 $322 $85 #
coedge $-1 $216 $216 $217 $323 reversed $134 $-1 #
coedge $-1 $217 $217 $216 $323 forward $136 $-1 #
coedge $-1 $218 $218 $137 $219 forward $213 $-1 #
edge $-1 $324 -1.7875113857507789e-015 $324 6.2831853071795987 $218 $325 forward 7 unknown #
face $-1 $326 $327 $33 $-1 $328 reversed single #
loop $-1 $-1 $329 $138 #
plane-surface $-1 -56.714377269814143 0 0 1 0 0 0 0 -1 forward_v I I I I #
coedge $-1 $330 $231 $331 $332 forward $139 $-1 #
coedge $-1 $333 $141 $330 $334 forward $89 $-1 #
coedge $-1 $141 $333 $335 $336 forward $89 $-1 #
coedge $-1 $234 $233 $141 $227 reversed $235 $-1 #
edge $-1 $337 -36.683732252934199 $338 36.683732252934199 $226 $339 forward 7 unknown #
coedge $-1 $143 $142 $340 $341 forward $56 $-1 #
coedge $-1 $342 $343 $142 $230 reversed $327 $-1 #
edge $-1 $237 -56.714377269814143 $344 56.714377269814143 $229 $345 forward 7 unknown #
coedge $-1 $223 $346 $143 $232 reversed $139 $-1 #
edge $-1 $347 -56.714377269814143 $236 56.714377269814143 $231 $348 forward 7 unknown #
coedge $-1 $226 $144 $346 $349 forward $235 $-1 #
coedge $-1 $144 $226 $342 $350 reversed $235 $-1 #
loop $-1 $-1 $233 $326 #
vertex $-1 $145 $351 #
vertex $-1 $145 $352 #
straight-curve $-1 56.714377269814143 0 17.817588902001965 0 1 0 I I #
face $-1 $353 $354 $34 $-1 $355 forward single #
loop $-1 $-1 $356 $146 #
plane-surface $-1 -56.714377269814143 0 0 1 0 0 0 0 -1 forward_v I I I I #
coedge $-1 $249 $357 $251 $358 forward $147 $-1 #
coedge $-1 $149 $251 $359 $360 reversed $93 $-1 #
coedge $-1 $361 $247 $149 $245 forward $362 $-1 #
edge $-1 $253 3.4366843012478316 $363 10.732831167585367 $244 $364 forward 7 unknown #
coedge $-1 $151 $150 $356 $365 reversed $59 $-1 #
coedge $-1 $244 $366 $150 $248 forward $362 $-1 #
edge $-1 $367 -33.266745404779051 $253 -13.628518325291118 $247 $368 forward 7 unknown #
coedge $-1 $369 $242 $151 $250 forward $147 $-1 #
edge $-1 $252 13.628518325291118 $370 33.266745404779051 $249 $371 forward 7 unknown #
coedge $-1 $243 $152 $242 $358 reversed $93 $-1 #
vertex $-1 $250 $372 #
vertex $-1 $248 $373 #
straight-curve $-1 -37.076150190326203 0 10.52144203566443 0 -1 0 I I #
face $-1 $-1 $267 $35 $-1 $374 forward single #
loop $-1 $-1 $375 $154 #
plane-surface $-1 0 -36.683732252934199 0 0 1 0 0 0 1 forward_v I I I I #
coedge $-1 $376 $377 $378 $379 reversed $155 $-1 #
coedge $-1 $380 $157 $159 $265 forward $97 $-1 #
coedge $-1 $157 $380 $376 $381 forward $97 $-1 #
coedge $-1 $378 $160 $157 $262 forward $267 $-1 #
edge $-1 $269 3.148860210074762 $382 14.546297014394955 $261 $383 forward 7 unknown #
coedge $-1 $384 $385 $158 $264 forward $256 $-1 #
edge $-1 $386 -39.877303427598278 $268 -31.68818533163364 $263 $387 forward 7 unknown #
edge $-1 $269 -13.301332504096219 $386 2.6640169747183902e-014 $159 $388 forward 7 unknown #
coedge $-1 $160 $378 $384 $389 forward $267 $-1 #
loop $-1 $-1 $378 $255 #
vertex $-1 $264 $390 #
vertex $-1 $161 $391 #
straight-curve $-1 -11.996438822309621 -53.258723746451594 17.817588902001965 0 1 0 I I #
coedge $-1 $271 $271 $-1 $392 reversed $164 $-1 #
edge $-1 $393 0 $393 6.2831853071796004 $165 $394 forward 7 unknown #
vertex $-1 $168 $395 #
ellipse-curve $-1 -20.137465111109755 -31.442935767788271 13.723029854019643 0 -0.61566148304635926 0.78801074757464917 1.5 0 0 1 I I #
coedge $-1 $275 $275 $-1 $396 reversed $171 $-1 #
edge $-1 $397 0 $397 6.2831853071796004 $172 $398 forward 7 unknown #
vertex $-1 $175 $399 #
ellipse-curve $-1 -15.252849337829673 -31.442935767788271 13.723029854019643 0 -0.61566148304635926 0.78801074757464917 1.5 0 0 1 I I #
face $-1 $-1 $291 $38 $-1 $400 forward single #
loop $-1 $-1 $401 $176 #
plane-surface $-1 0 -36.683732252934199 0 0 1 0 0 0 1 forward_v I I I I #
coedge $-1 $402 $403 $404 $405 reversed $177 $-1 #
coedge $-1 $406 $179 $181 $289 forward $111 $-1 #
coedge $-1 $179 $406 $402 $407 forward $111 $-1 #
coedge $-1 $404 $182 $179 $286 forward $291 $-1 #
edge $-1 $293 -24.365410554138922 $408 -12.967973749818729 $285 $409 forward 7 unknown #
coedge $-1 $410 $411 $180 $288 forward $280 $-1 #
edge $-1 $412 -39.877303427598278 $292 -31.68818533163364 $287 $413 forward 7 unknown #
edge $-1 $293 -13.301332504096219 $412 2.6640169747183902e-014 $181 $414 forward 7 unknown #
coedge $-1 $182 $404 $410 $415 forward $291 $-1 #
loop $-1 $-1 $404 $279 #
vertex $-1 $288 $416 #
vertex $-1 $183 $417 #
straight-curve $-1 43.032102706117747 -53.258723746451594 17.817588902001965 0 1 0 I I #
coedge $-1 $295 $295 $-1 $418 reversed $186 $-1 #
edge $-1 $419 0 $419 6.2831853071796004 $187 $420 forward 7 unknown #
vertex $-1 $190 $421 #
ellipse-curve $-1 34.891076417317613 -31.442935767788271 13.723029854019643 0 -0.61566148304635926 0.78801074757464917 1.5 0 0 1 I I #
coedge $-1 $299 $299 $-1 $422 reversed $193 $-1 #
edge $-1 $423 0 $423 6.2831853071796004 $194 $424 forward 7 unknown #
vertex $-1 $197 $425 #
ellipse-curve $-1 39.775692190597688 -31.442935767788271 13.723029854019643 0 -0.61566148304635926 0.78801074757464917 1.5 0 0 1 I I #
face $-1 $-1 $426 $41 $-1 $427 reversed single #
loop $-1 $-1 $204 $198 #
plane-surface $-1 0 0 17.817588902001965 0 0 1 1 0 0 forward_v I I I I #
coedge $-1 $428 $429 $430 $431 reversed $199 $-1 #
coedge $-1 $432 $201 $203 $313 forward $125 $-1 #
coedge $-1 $201 $432 $428 $433 forward $125 $-1 #
coedge $-1 $430 $204 $201 $310 forward $304 $-1 #
edge $-1 $316 -12.024468899478357 $434 3.1731630335522851 $309 $435 forward 7 unknown #
coedge $-1 $436 $437 $202 $312 forward $426 $-1 #
edge $-1 $438 -61.153308288700735 $315 -50.816189237979536 $311 $439 forward 7 unknown #
edge $-1 $316 59.670647600294167 $438 73.367464505868384 $203 $440 forward 7 unknown #
coedge $-1 $204 $430 $436 $441 forward $304 $-1 #
vertex $-1 $312 $442 #
vertex $-1 $205 $443 #
straight-curve $-1 -16.450121832441393 37.07805704661456 17.817588902001965 0 -1 0 I I #
coedge $-1 $318 $318 $-1 $444 reversed $208 $-1 #
edge $-1 $445 0 $445 6.2831853071796004 $209 $446 forward 7 unknown #
vertex $-1 $212 $447 #
ellipse-curve $-1 -12.107941280146918 32.190772118567317 12.649029376641362 0 0.75470958851134928 0.65605901945558964 1.5 0 0 1 I I #
coedge $-1 $322 $322 $-1 $448 reversed $215 $-1 #
edge $-1 $449 0 $449 6.2831853071796004 $216 $450 forward 7 unknown #
vertex $-1 $219 $451 #
ellipse-curve $-1 -5.5946704517052126 32.190772118567317 12.649029376641362 0 0.75470958851134928 0.65605901945558964 1.5 0 0 1 I I #
face $-1 $-1 $235 $33 $-1 $452 reversed single #
loop $-1 $-1 $342 $220 #
plane-surface $-1 0 36.683732252934199 0 0 -1 0 0 0 -1 forward_v I I I I #
coedge $-1 $453 $340 $343 $454 forward $221 $-1 #
coedge $-1 $346 $223 $224 $334 reversed $139 $-1 #
coedge $-1 $340 $453 $223 $332 reversed $221 $-1 #
edge $-1 $347 -17.817588902001965 $455 17.817588902001965 $331 $456 forward 7 unknown #
coedge $-1 $225 $224 $453 $457 forward $89 $-1 #
edge $-1 $338 -56.714377269814143 $455 56.714377269814143 $330 $458 forward 7 unknown #
coedge $-1 $343 $342 $225 $336 reversed $327 $-1 #
edge $-1 $459 -56.714377269814143 $337 56.714377269814143 $335 $460 forward 7 unknown #
vertex $-1 $227 $461 #
vertex $-1 $349 $462 #
straight-curve $-1 56.714377269814143 0 -17.817588902001965 0 -1 0 I I #
coedge $-1 $329 $331 $228 $341 reversed $221 $-1 #
edge $-1 $344 -36.683732252934199 $347 36.683732252934199 $340 $463 forward 7 unknown #
coedge $-1 $335 $229 $234 $350 forward $327 $-1 #
coedge $-1 $229 $335 $329 $454 reversed $327 $-1 #
vertex $-1 $230 $464 #
straight-curve $-1 0 36.683732252934199 17.817588902001965 -1 0 0 I I #
coedge $-1 $231 $330 $233 $349 reversed $139 $-1 #
vertex $-1 $341 $465 #
straight-curve $-1 0 -36.683732252934199 17.817588902001965 1 0 0 I I #
edge $-1 $236 -17.817588902001965 $338 17.817588902001965 $233 $466 forward 7 unknown #
edge $-1 $237 -17.817588902001965 $337 17.817588902001965 $234 $467 forward 7 unknown #
point $-1 56.714377269814143 -36.683732252934199 17.817588902001965 #
point $-1 56.714377269814143 36.683732252934199 17.817588902001965 #
face $-1 $-1 $362 $34 $-1 $468 reversed single #
loop $-1 $-1 $359 $239 #
plane-surface $-1 0 0 17.817588902001965 0 0 1 1 0 0 forward_v I I I I #
coedge $-1 $469 $470 $246 $365 forward $240 $-1 #
coedge $-1 $242 $369 $471 $472 reversed $147 $-1 #
edge $-1 $473 -10.732831167585367 $252 -3.4366843012478316 $242 $474 forward 7 unknown #
coedge $-1 $471 $475 $243 $360 forward $354 $-1 #
edge $-1 $363 -36.683732252934199 $473 36.683732252934199 $359 $476 forward 7 unknown #
coedge $-1 $366 $244 $475 $477 reversed $362 $-1 #
loop $-1 $-1 $244 $353 #
vertex $-1 $245 $478 #
straight-curve $-1 -37.076150190326203 -36.683732252934199 7.0847577344165984 0 0 1 I I #
edge $-1 $370 -36.683732252934199 $367 36.683732252934199 $356 $479 forward 7 unknown #
coedge $-1 $247 $361 $469 $480 forward $362 $-1 #
vertex $-1 $365 $481 #
straight-curve $-1 -23.447631865035085 -36.683732252934199 10.52144203566443 1 0 0 I I #
coedge $-1 $357 $249 $470 $482 reversed $147 $-1 #
vertex $-1 $365 $483 #
straight-curve $-1 -23.447631865035085 36.683732252934199 10.52144203566443 -1 0 0 I I #
point $-1 -37.076150190326203 36.683732252934199 10.52144203566443 #
point $-1 -37.076150190326203 -36.683732252934199 10.52144203566443 #
plane-surface $-1 0 0 17.817588902001965 0 0 1 1 0 0 forward_v I I I I #
coedge $-1 $385 $384 $377 $484 forward $256 $-1 #
coedge $-1 $377 $258 $260 $381 reversed $155 $-1 #
coedge $-1 $258 $376 $375 $484 reversed $155 $-1 #
coedge $-1 $266 $261 $258 $379 forward $267 $-1 #
edge $-1 $382 -27.056584463809259 $485 -16.574991493517395 $378 $486 forward 7 unknown #
coedge $-1 $260 $259 $385 $487 reversed $97 $-1 #
edge $-1 $488 -2.6640169747183902e-014 $382 13.301332504096219 $376 $489 forward 7 unknown #
vertex $-1 $262 $490 #
straight-curve $-1 -8.8475786122348588 -26.202139282642332 17.817588902001965 -1 0 0 I I #
coedge $-1 $375 $263 $266 $389 reversed $256 $-1 #
coedge $-1 $263 $375 $380 $487 forward $256 $-1 #
vertex $-1 $264 $491 #
straight-curve $-1 -11.996438822309621 -36.683732252934199 49.505774233635606 0 0 1 I I #
straight-curve $-1 -11.996438822309621 -36.683732252934178 9.6284708060373418 0 -0.78801074757464917 -0.61566148304635926 I I #
edge $-1 $485 -23.393875626629814 $268 -11.996438822309621 $384 $492 forward 7 unknown #
point $-1 -11.996438822309621 -36.683732252934199 17.817588902001965 #
point $-1 -11.996438822309621 -26.202139282642335 17.817588902001965 #
edge $-1 $493 1 $493 0 $271 $-1 forward 7 unknown #
vertex $-1 $272 $494 #
ellipse-curve $-1 -20.137465111109755 -27.931681188547092 9.2288290275820373 0 -0.61566148304635926 0.78801074757464917 1.5 0 0 1 I I #
point $-1 -18.637465111109755 -31.442935767788281 13.723029854019657 #
edge $-1 $495 1 $495 0 $275 $-1 forward 7 unknown #
vertex $-1 $276 $496 #
ellipse-curve $-1 -15.252849337829673 -27.931681188547092 9.2288290275820373 0 -0.61566148304635926 0.78801074757464917 1.5 0 0 1 I I #
point $-1 -13.752849337829673 -31.442935767788281 13.723029854019657 #
plane-surface $-1 0 0 17.817588902001965 0 0 1 1 0 0 forward_v I I I I #
coedge $-1 $411 $410 $403 $497 forward $280 $-1 #
coedge $-1 $403 $282 $284 $407 reversed $177 $-1 #
coedge $-1 $282 $402 $401 $497 reversed $177 $-1 #
coedge $-1 $290 $285 $282 $405 forward $291 $-1 #
edge $-1 $408 -27.056584463809259 $498 -16.574991493517395 $404 $499 forward 7 unknown #
coedge $-1 $284 $283 $411 $500 reversed $111 $-1 #
edge $-1 $501 -2.6640169747183902e-014 $408 13.301332504096219 $402 $502 forward 7 unknown #
vertex $-1 $286 $503 #
straight-curve $-1 18.666692151978825 -26.202139282642332 17.817588902001965 -1 0 0 I I #
coedge $-1 $401 $287 $290 $415 reversed $280 $-1 #
coedge $-1 $287 $401 $406 $500 forward $280 $-1 #
vertex $-1 $288 $504 #
straight-curve $-1 43.032102706117747 -36.683732252934199 49.505774233635606 0 0 1 I I #
straight-curve $-1 43.032102706117747 -36.683732252934178 9.6284708060373418 0 -0.78801074757464917 -0.61566148304635926 I I #
edge $-1 $498 31.634665901797554 $292 43.032102706117747 $410 $505 forward 7 unknown #
point $-1 43.032102706117747 -36.683732252934199 17.817588902001965 #
point $-1 43.032102706117747 -26.202139282642335 17.817588902001965 #
edge $-1 $506 1 $506 0 $295 $-1 forward 7 unknown #
vertex $-1 $296 $507 #
ellipse-curve $-1 34.891076417317613 -27.931681188547092 9.2288290275820373 0 -0.61566148304635926 0.78801074757464917 1.5 0 0 1 I I #
point $-1 36.391076417317613 -31.442935767788281 13.723029854019657 #
edge $-1 $508 1 $508 0 $299 $-1 forward 7 unknown #
vertex $-1 $300 $509 #
ellipse-curve $-1 39.775692190597688 -27.931681188547092 9.2288290275820373 0 -0.61566148304635926 0.78801074757464917 1.5 0 0 1 I I #
point $-1 41.275692190597688 -31.442935767788281 13.723029854019657 #
loop $-1 $-1 $311 $303 #
plane-surface $-1 0 36.683732252934199 0 0 -1 0 0 0 -1 forward_v I I I I #
coedge $-1 $429 $306 $308 $433 reversed $199 $-1 #
coedge $-1 $306 $428 $510 $511 reversed $199 $-1 #
coedge $-1 $314 $309 $306 $431 forward $304 $-1 #
edge $-1 $434 -9.3802450624141187 $512 -0.39432479368036155 $430 $513 forward 7 unknown #
coedge $-1 $308 $307 $437 $514 reversed $125 $-1 #
edge $-1 $515 -73.367464505868384 $434 -59.670647600294167 $428 $516 forward 7 unknown #
vertex $-1 $310 $517 #
straight-curve $-1 -4.4256529329630361 27.697811984200445 17.817588902001958 1 0 0 I I #
coedge $-1 $510 $311 $314 $441 reversed $426 $-1 #
coedge $-1 $311 $510 $432 $514 forward $426 $-1 #
vertex $-1 $312 $518 #
straight-curve $-1 -16.450121832441393 36.683732252934199 68.633778139981501 0 0 1 I I #
straight-curve $-1 -16.450121832441393 -11.449654570728583 62.851598798625702 0 0.65605901945558964 -0.75470958851134928 I I #
edge $-1 $512 1.252489899410751 $315 16.450121832441393 $436 $519 forward 7 unknown #
point $-1 -16.450121832441393 36.683732252934199 17.817588902001965 #
point $-1 -16.450121832441393 27.697811984200442 17.817588902001965 #
edge $-1 $520 1 $520 0 $318 $-1 forward 7 unknown #
vertex $-1 $319 $521 #
ellipse-curve $-1 -12.107941280146918 27.772069205186355 8.8079096336997669 0 0.75470958851134928 0.65605901945558964 1.5 0 0 1 I I #
point $-1 -10.607941280146918 32.190772118567317 12.649029376641366 #
edge $-1 $522 1 $522 0 $322 $-1 forward 7 unknown #
vertex $-1 $323 $523 #
ellipse-curve $-1 -5.5946704517052126 27.772069205186355 8.8079096336997669 0 0.75470958851134928 0.65605901945558964 1.5 0 0 1 I I #
point $-1 -4.0946704517052126 32.190772118567317 12.649029376641366 #
plane-surface $-1 56.714377269814143 0 0 -1 0 0 0 0 1 forward_v I I I I #
coedge $-1 $331 $329 $333 $457 reversed $221 $-1 #
edge $-1 $344 -17.817588902001965 $459 17.817588902001965 $343 $524 forward 7 unknown #
vertex $-1 $457 $525 #
straight-curve $-1 -56.714377269814143 -36.683732252934199 0 0 0 -1 I I #
edge $-1 $455 -36.683732252934199 $459 36.683732252934199 $453 $526 forward 7 unknown #
straight-curve $-1 0 -36.683732252934199 -17.817588902001965 -1 0 0 I I #
vertex $-1 $336 $527 #
straight-curve $-1 0 36.683732252934199 -17.817588902001965 1 0 0 I I #
point $-1 56.714377269814143 36.683732252934199 -17.817588902001965 #
point $-1 56.714377269814143 -36.683732252934199 -17.817588902001965 #
straight-curve $-1 -56.714377269814143 0 17.817588902001965 0 -1 0 I I #
point $-1 -56.714377269814143 36.683732252934199 17.817588902001965 #
point $-1 -56.714377269814143 -36.683732252934199 17.817588902001965 #
straight-curve $-1 56.714377269814143 -36.683732252934199 0 0 0 -1 I I #
straight-curve $-1 56.714377269814143 36.683732252934199 0 0 0 -1 I I #
plane-surface $-1 0 -36.683732252934199 0 0 1 0 0 0 1 forward_v I I I I #
coedge $-1 $528 $356 $366 $480 reversed $240 $-1 #
coedge $-1 $356 $528 $369 $482 forward $240 $-1 #
coedge $-1 $529 $359 $357 $472 forward $354 $-1 #
edge $-1 $473 37.076150190326203 $530 56.714377269814143 $357 $531 forward 7 unknown #
vertex $-1 $472 $532 #
straight-curve $-1 -37.076150190326203 36.683732252934199 7.0847577344165984 0 0 -1 I I #
coedge $-1 $359 $529 $361 $477 forward $354 $-1 #
straight-curve $-1 -37.076150190326203 0 17.817588902001965 0 1 0 I I #
edge $-1 $533 -56.714377269814143 $363 -37.076150190326203 $361 $534 forward 7 unknown #
point $-1 -37.076150190326203 -36.683732252934199 17.817588902001965 #
straight-curve $-1 -56.714377269814143 0 10.52144203566443 0 -1 0 I I #
edge $-1 $533 -17.817588902001965 $367 -10.52144203566443 $469 $535 forward 7 unknown #
point $-1 -56.714377269814136 -36.683732252934199 10.52144203566443 #
edge $-1 $530 -17.817588902001965 $370 -10.52144203566443 $369 $536 forward 7 unknown #
point $-1 -56.714377269814136 36.683732252934199 10.52144203566443 #
edge $-1 $485 31.68818533163364 $488 39.877303427598278 $375 $537 forward 7 unknown #
vertex $-1 $389 $538 #
straight-curve $-1 -23.393875626629814 -53.258723746451594 17.817588902001965 0 -1 0 I I #
edge $-1 $488 -14.546297014394955 $386 -3.148860210074762 $385 $539 forward 7 unknown #
vertex $-1 $487 $540 #
straight-curve $-1 -23.393875626629814 -36.683732252934178 9.6284708060373418 0 0.78801074757464917 0.61566148304635926 I I #
point $-1 -23.393875626629814 -26.202139282642335 17.817588902001965 #
point $-1 -11.996438822309621 -36.683732252934199 9.6284708060373259 #
straight-curve $-1 0 -36.683732252934199 17.817588902001965 1 0 0 I I #
vertex $-1 $392 $541 #
point $-1 -18.637465111109755 -27.931681188547092 9.2288290275820373 #
vertex $-1 $396 $542 #
point $-1 -13.752849337829673 -27.931681188547092 9.2288290275820373 #
edge $-1 $498 31.68818533163364 $501 39.877303427598278 $401 $543 forward 7 unknown #
vertex $-1 $415 $544 #
straight-curve $-1 31.634665901797554 -53.258723746451594 17.817588902001965 0 -1 0 I I #
edge $-1 $501 12.967973749818729 $412 24.365410554138922 $411 $545 forward 7 unknown #
vertex $-1 $500 $546 #
straight-curve $-1 31.634665901797554 -36.683732252934178 9.6284708060373418 0 0.78801074757464917 0.61566148304635926 I I #
point $-1 31.634665901797554 -26.202139282642335 17.817588902001965 #
point $-1 43.032102706117747 -36.683732252934199 9.6284708060373259 #
straight-curve $-1 0 -36.683732252934199 17.817588902001965 1 0 0 I I #
vertex $-1 $418 $547 #
point $-1 36.391076417317613 -27.931681188547092 9.2288290275820373 #
vertex $-1 $422 $548 #
point $-1 41.275692190597688 -27.931681188547092 9.2288290275820373 #
coedge $-1 $437 $436 $429 $511 forward $426 $-1 #
edge $-1 $512 50.816189237979536 $515 61.153308288700735 $510 $549 forward 7 unknown #
vertex $-1 $441 $550 #
straight-curve $-1 -1.252489899410751 37.07805704661456 17.817588902001965 0 1 0 I I #
edge $-1 $515 -3.1731630335522851 $438 12.024468899478357 $437 $551 forward 7 unknown #
vertex $-1 $514 $552 #
straight-curve $-1 -1.252489899410751 -11.449654570728583 62.851598798625702 0 -0.65605901945558964 0.75470958851134928 I I #
point $-1 -1.252489899410751 27.697811984200442 17.817588902001965 #
point $-1 -16.450121832441393 36.683732252934192 7.4804698512807661 #
straight-curve $-1 0 36.683732252934199 17.817588902001965 -1 0 0 I I #
vertex $-1 $444 $553 #
point $-1 -10.607941280146918 27.772069205186355 8.8079096336997669 #
vertex $-1 $448 $554 #
point $-1 -4.0946704517052126 27.772069205186355 8.8079096336997669 #
straight-curve $-1 -56.714377269814143 36.683732252934199 0 0 0 -1 I I #
point $-1 -56.714377269814143 -36.683732252934199 -17.817588902001965 #
straight-curve $-1 -56.714377269814143 0 -17.817588902001965 0 1 0 I I #
point $-1 -56.714377269814143 36.683732252934199 -17.817588902001965 #
coedge $-1 $470 $469 $529 $555 reversed $240 $-1 #
coedge $-1 $475 $471 $528 $555 forward $354 $-1 #
vertex $-1 $472 $556 #
straight-curve $-1 0 36.683732252934199 17.817588902001965 -1 0 0 I I #
point $-1 -37.076150190326203 36.683732252934199 17.817588902001965 #
vertex $-1 $555 $557 #
straight-curve $-1 0 -36.683732252934199 17.817588902001965 1 0 0 I I #
straight-curve $-1 -56.714377269814143 -36.683732252934199 0 0 0 -1 I I #
straight-curve $-1 -56.714377269814143 36.683732252934199 0 0 0 -1 I I #
straight-curve $-1 -23.393875626629814 -36.683732252934199 49.505774233635606 0 0 -1 I I #
point $-1 -23.393875626629814 -36.683732252934199 17.817588902001965 #
straight-curve $-1 -8.8475786122348588 -36.683732252934199 9.6284708060373276 1 0 0 I I #
point $-1 -23.393875626629814 -36.683732252934199 9.6284708060373259 #
point $-1 -20.137465111109755 -27.008188963977556 8.0468129062200617 #
point $-1 -15.252849337829673 -27.008188963977556 8.0468129062200617 #
straight-curve $-1 31.634665901797554 -36.683732252934199 49.505774233635606 0 0 -1 I I #
point $-1 31.634665901797554 -36.683732252934199 17.817588902001965 #
straight-curve $-1 18.666692151978825 -36.683732252934199 9.6284708060373276 1 0 0 I I #
point $-1 31.634665901797554 -36.683732252934199 9.6284708060373259 #
point $-1 34.891076417317613 -27.008188963977556 8.0468129062200617 #
point $-1 39.775692190597688 -27.008188963977556 8.0468129062200617 #
straight-curve $-1 -1.252489899410751 36.683732252934199 68.633778139981501 0 0 -1 I I #
point $-1 -1.252489899410751 36.683732252934199 17.817588902001965 #
straight-curve $-1 -4.4256529329630361 36.683732252934199 7.4804698512807626 -1 0 0 I I #
point $-1 -1.252489899410751 36.683732252934192 7.4804698512807661 #
point $-1 -12.107941280146918 26.640004822419328 7.8238211045163819 #
point $-1 -5.5946704517052126 26.640004822419328 7.8238211045163819 #
edge $-1 $530 -36.683732252934199 $533 36.683732252934199 $528 $558 forward 7 unknown #
point $-1 -56.714377269814143 36.683732252934199 17.817588902001965 #
point $-1 -56.714377269814143 -36.683732252934199 17.817588902001965 #
straight-curve $-1 -56.714377269814143 0 17.817588902001965 0 -1 0 I I #
End-of-ACIS-data 