500 0 8 0           
7 Unknown 11 ACIS 5.0 NT 24 Thu Mar 25 16:26:07 1999 
-1 9.9999999999999995e-007 1e-010 
body $-1 $8 $-1 $9 #
body $-1 $10 $-1 $11 #
body $-1 $12 $-1 $13 #
body $-1 $14 $-1 $15 #
body $-1 $16 $-1 $17 #
body $-1 $18 $-1 $19 #
body $-1 $20 $-1 $21 #
body $-1 $22 $-1 $23 #
lump $-1 $-1 $24 $0 #
transform $-1 1 0 0 0 1 0 0 0 1 63.20017090365306 31.631717362066095 6.3674675045072169 1 rotate no_reflect no_shear #
lump $-1 $-1 $25 $1 #
transform $-1 1 0 0 0 1 0 0 0 1 63.20017090365306 31.631717362066095 6.3674675045072169 1 rotate no_reflect no_shear #
lump $-1 $-1 $26 $2 #
transform $-1 1 0 0 0 1 0 0 0 1 63.20017090365306 31.631717362066095 6.3674675045072169 1 rotate no_reflect no_shear #
lump $-1 $-1 $27 $3 #
transform $-1 1 0 0 0 1 0 0 0 1 63.20017090365306 31.631717362066095 6.3674675045072169 1 rotate no_reflect no_shear #
lump $-1 $-1 $28 $4 #
transform $-1 1 0 0 0 1 0 0 0 1 63.20017090365306 31.631717362066095 6.3674675045072169 1 rotate no_reflect no_shear #
lump $-1 $-1 $29 $5 #
transform $-1 1 0 0 0 1 0 0 0 1 63.20017090365306 31.631717362066095 6.3674675045072169 1 rotate no_reflect no_shear #
lump $-1 $-1 $30 $6 #
transform $-1 1 0 0 0 1 0 0 0 1 63.20017090365306 31.631717362066095 6.3674675045072169 1 rotate no_reflect no_shear #
lump $-1 $-1 $31 $7 #
transform $-1 1 0 0 0 1 0 0 0 1 63.20017090365306 31.631717362066095 6.3674675045072169 1 rotate no_reflect no_shear #
shell $-1 $-1 $-1 $32 $-1 $8 #
shell $-1 $-1 $-1 $33 $-1 $10 #
shell $-1 $-1 $-1 $34 $-1 $12 #
shell $-1 $-1 $-1 $35 $-1 $14 #
shell $-1 $-1 $-1 $36 $-1 $16 #
shell $-1 $-1 $-1 $37 $-1 $18 #
shell $-1 $-1 $-1 $38 $-1 $20 #
shell $-1 $-1 $-1 $39 $-1 $22 #
face $-1 $40 $41 $24 $-1 $42 forward single #
face $-1 $43 $44 $25 $-1 $45 forward single #
face $-1 $46 $47 $26 $-1 $48 reversed single #
face $-1 $49 $50 $27 $-1 $51 forward single #
face $-1 $52 $53 $28 $-1 $54 forward single #
face $-1 $55 $56 $29 $-1 $57 reversed single #
face $-1 $58 $59 $30 $-1 $60 forward single #
face $-1 $61 $62 $31 $-1 $63 forward single #
face $-1 $64 $65 $24 $-1 $66 reversed single #
loop $-1 $-1 $67 $32 #
plane-surface $-1 0 0 6.3674675045072169 0 0 1 1 0 0 forward_v I I I I #
face $-1 $68 $69 $25 $-1 $70 reversed single #
loop $-1 $-1 $71 $33 #
plane-surface $-1 -60.32642731949128 0 -1.0453674639036585 0 0 1 1 0 0 forward_v I I I I #
face $-1 $72 $73 $26 $-1 $74 reversed single #
loop $-1 $-1 $75 $34 #
plane-surface $-1 -57.452683735329501 -94.831889112441701 111.64627677039499 1 0 0 0 0.50000000669873634 -0.8660253999169214 forward_v I I I I #
face $-1 $76 $77 $27 $-1 $78 forward single #
loop $-1 $79 $80 $35 #
cone-surface $-1 -50.452136512457628 -27.332502878460815 3.1081067923191359 0 0.50000000669873634 -0.8660253999169214 1.5 0 0 1 I I 0 1 1.5 forward I I I I #
face $-1 $81 $82 $28 $-1 $83 forward single #
loop $-1 $84 $85 $36 #
cone-surface $-1 -39.951315678149811 -27.332502878460815 3.1081067923191359 0 0.50000000669873634 -0.8660253999169214 1.5 0 0 1 I I 0 1 1.5 forward I I I I #
face $-1 $86 $87 $29 $-1 $88 reversed single #
loop $-1 $-1 $89 $37 #
plane-surface $-1 38.698255623601504 -94.831889112441701 111.64627677039499 1 0 0 0 0.50000000669873634 -0.8660253999169214 forward_v I I I I #
face $-1 $90 $91 $30 $-1 $92 forward single #
loop $-1 $93 $94 $38 #
cone-surface $-1 45.69880284647337 -27.332502878460815 3.1081067923191359 0 0.50000000669873634 -0.8660253999169214 1.5 0 0 1 I I 0 1 1.5 forward I I I I #
face $-1 $95 $96 $31 $-1 $97 forward single #
loop $-1 $98 $99 $39 #
cone-surface $-1 56.199623680781187 -27.332502878460815 3.1081067923191359 0 0.50000000669873634 -0.8660253999169214 1.5 0 0 1 I I 0 1 1.5 forward I I I I #
face $-1 $100 $101 $24 $-1 $102 reversed single #
loop $-1 $-1 $103 $40 #
plane-surface $-1 0 0 -6.3674675045072169 0 0 1 1 0 0 forward_v I I I I #
coedge $-1 $104 $105 $106 $107 forward $41 $-1 #
face $-1 $108 $109 $25 $-1 $110 reversed single #
loop $-1 $-1 $111 $43 #
plane-surface $-1 -60.32642731949128 0 -4.0453674639036583 0 0 1 1 0 0 forward_v I I I I #
coedge $-1 $112 $113 $114 $115 forward $44 $-1 #
face $-1 $116 $117 $26 $-1 $118 reversed single #
loop $-1 $-1 $119 $46 #
plane-surface $-1 -45.201726095303719 -31.631717362066084 2.1803702070871651 0 -0.50000000669873634 0.8660253999169214 1 0 0 forward_v I I I I #
coedge $-1 $120 $121 $122 $123 reversed $47 $-1 #
face $-1 $-1 $124 $27 $-1 $125 forward single #
loop $-1 $126 $127 $49 #
cone-surface $-1 -50.452136512457628 -26.284420952739733 1.2927756789033902 0 0.50000000669873634 -0.8660253999169214 0.75 0 0 1 I I -0.70710678118654757 0.70710678118654757 0.75 forward I I I I #
loop $-1 $-1 $128 $35 #
coedge $-1 $80 $80 $129 $130 reversed $50 $-1 #
face $-1 $-1 $131 $28 $-1 $132 forward single #
loop $-1 $133 $134 $52 #
cone-surface $-1 -39.951315678149811 -26.284420952739733 1.2927756789033902 0 0.50000000669873634 -0.8660253999169214 0.75 0 0 1 I I -0.70710678118654757 0.70710678118654757 0.75 forward I I I I #
loop $-1 $-1 $135 $36 #
coedge $-1 $85 $85 $136 $137 reversed $53 $-1 #
face $-1 $138 $139 $29 $-1 $140 reversed single #
loop $-1 $-1 $141 $55 #
plane-surface $-1 50.949213263627286 -31.631717362066084 2.1803702070871651 0 -0.50000000669873634 0.8660253999169214 1 0 0 forward_v I I I I #
coedge $-1 $142 $143 $144 $145 reversed $56 $-1 #
face $-1 $-1 $146 $30 $-1 $147 forward single #
loop $-1 $148 $149 $58 #
cone-surface $-1 45.69880284647337 -26.284420952739733 1.2927756789033902 0 0.50000000669873634 -0.8660253999169214 0.75 0 0 1 I I -0.70710678118654757 0.70710678118654757 0.75 forward I I I I #
loop $-1 $-1 $150 $38 #
coedge $-1 $94 $94 $151 $152 reversed $59 $-1 #
face $-1 $-1 $153 $31 $-1 $154 forward single #
loop $-1 $155 $156 $61 #
cone-surface $-1 56.199623680781187 -26.284420952739733 1.2927756789033902 0 0.50000000669873634 -0.8660253999169214 0.75 0 0 1 I I -0.70710678118654757 0.70710678118654757 0.75 forward I I I I #
loop $-1 $-1 $157 $39 #
coedge $-1 $99 $99 $158 $159 reversed $62 $-1 #
face $-1 $160 $161 $24 $-1 $162 reversed single #
loop $-1 $-1 $163 $64 #
plane-surface $-1 0 -31.631717362066095 0 0 1 0 0 0 1 forward_v I I I I #
coedge $-1 $164 $165 $166 $167 forward $65 $-1 #
coedge $-1 $168 $67 $169 $170 forward $41 $-1 #
coedge $-1 $67 $168 $171 $172 forward $41 $-1 #
coedge $-1 $173 $174 $67 $107 reversed $175 $-1 #
edge $-1 $176 -31.631717362066095 $177 31.631717362066095 $106 $178 forward 7 unknown #
face $-1 $179 $180 $25 $-1 $181 reversed single #
loop $-1 $-1 $182 $68 #
plane-surface $-1 -57.452683735329501 0 -2.5453674639036583 -1 0 0 0 0 1 forward_v I I I I #
coedge $-1 $183 $184 $185 $186 forward $69 $-1 #
coedge $-1 $187 $71 $188 $189 reversed $44 $-1 #
coedge $-1 $71 $187 $190 $191 reversed $44 $-1 #
coedge $-1 $182 $192 $71 $115 reversed $109 $-1 #
edge $-1 $193 -31.631717362066095 $194 31.631717362066095 $114 $195 forward 7 unknown #
face $-1 $196 $197 $26 $-1 $198 forward single #
loop $-1 $-1 $199 $72 #
plane-surface $-1 -32.950768455277938 -94.831889112441701 111.64627677039499 -1 0 0 0 -0.50000000669873634 0.8660253999169214 forward_v I I I I #
coedge $-1 $200 $201 $202 $203 reversed $73 $-1 #
coedge $-1 $121 $75 $204 $205 reversed $47 $-1 #
coedge $-1 $75 $120 $200 $206 reversed $47 $-1 #
coedge $-1 $202 $207 $75 $123 forward $208 $-1 #
edge $-1 $209 49.455670880690278 $210 53.642768178110337 $122 $211 forward 7 unknown #
loop $-1 $-1 $129 $76 #
plane-surface $-1 -45.201726095303719 -31.631717362066084 2.1803702070871651 0 -0.50000000669873634 0.8660253999169214 1 0 0 forward_v I I I I #
loop $-1 $-1 $212 $49 #
coedge $-1 $127 $127 $128 $213 reversed $77 $-1 #
coedge $-1 $128 $128 $127 $213 forward $79 $-1 #
coedge $-1 $129 $129 $80 $130 forward $124 $-1 #
edge $-1 $214 -2.7480332645007109e-016 $214 6.2831853071796004 $129 $215 forward 7 unknown #
loop $-1 $-1 $136 $81 #
plane-surface $-1 -45.201726095303719 -31.631717362066084 2.1803702070871651 0 -0.50000000669873634 0.8660253999169214 1 0 0 forward_v I I I I #
loop $-1 $-1 $216 $52 #
coedge $-1 $134 $134 $135 $217 reversed $82 $-1 #
coedge $-1 $135 $135 $134 $217 forward $84 $-1 #
coedge $-1 $136 $136 $85 $137 forward $131 $-1 #
edge $-1 $218 -2.7480332645007109e-016 $218 6.2831853071796004 $136 $219 forward 7 unknown #
face $-1 $220 $221 $29 $-1 $222 forward single #
loop $-1 $-1 $144 $86 #
plane-surface $-1 0 -31.631717362066095 0 0 1 0 0 0 1 forward_v I I I I #
coedge $-1 $223 $224 $225 $226 reversed $87 $-1 #
coedge $-1 $143 $89 $227 $228 reversed $56 $-1 #
coedge $-1 $89 $142 $223 $229 reversed $56 $-1 #
coedge $-1 $225 $230 $89 $145 forward $139 $-1 #
edge $-1 $231 49.455670880690278 $232 53.642768178110337 $144 $233 forward 7 unknown #
loop $-1 $-1 $151 $90 #
plane-surface $-1 50.949213263627286 -31.631717362066084 2.1803702070871651 0 -0.50000000669873634 0.8660253999169214 1 0 0 forward_v I I I I #
loop $-1 $-1 $234 $58 #
coedge $-1 $149 $149 $150 $235 reversed $91 $-1 #
coedge $-1 $150 $150 $149 $235 forward $93 $-1 #
coedge $-1 $151 $151 $94 $152 forward $146 $-1 #
edge $-1 $236 -2.7480332645007109e-016 $236 6.2831853071796004 $151 $237 forward 7 unknown #
loop $-1 $-1 $158 $95 #
plane-surface $-1 50.949213263627286 -31.631717362066084 2.1803702070871651 0 -0.50000000669873634 0.8660253999169214 1 0 0 forward_v I I I I #
loop $-1 $-1 $238 $61 #
coedge $-1 $156 $156 $157 $239 reversed $96 $-1 #
coedge $-1 $157 $157 $156 $239 forward $98 $-1 #
coedge $-1 $158 $158 $99 $159 forward $153 $-1 #
edge $-1 $240 -2.7480332645007109e-016 $240 6.2831853071796004 $158 $241 forward 7 unknown #
face $-1 $242 $243 $24 $-1 $244 reversed single #
loop $-1 $-1 $245 $100 #
plane-surface $-1 -63.20017090365306 0 0 1 0 0 0 0 -1 forward_v I I I I #
coedge $-1 $246 $171 $247 $248 forward $101 $-1 #
coedge $-1 $249 $103 $246 $250 forward $65 $-1 #
coedge $-1 $103 $249 $251 $252 forward $65 $-1 #
coedge $-1 $174 $173 $103 $167 reversed $175 $-1 #
edge $-1 $253 -31.631717362066095 $254 31.631717362066095 $166 $255 forward 7 unknown #
coedge $-1 $105 $104 $256 $257 forward $41 $-1 #
coedge $-1 $258 $259 $104 $170 reversed $243 $-1 #
edge $-1 $177 -63.20017090365306 $260 63.20017090365306 $169 $261 forward 7 unknown #
coedge $-1 $163 $262 $105 $172 reversed $101 $-1 #
edge $-1 $263 -63.20017090365306 $176 63.20017090365306 $171 $264 forward 7 unknown #
coedge $-1 $166 $106 $262 $265 forward $175 $-1 #
coedge $-1 $106 $166 $258 $266 reversed $175 $-1 #
loop $-1 $-1 $173 $242 #
vertex $-1 $107 $267 #
vertex $-1 $107 $268 #
straight-curve $-1 63.20017090365306 0 6.3674675045072169 0 1 0 I I #
face $-1 $269 $270 $25 $-1 $271 reversed single #
loop $-1 $-1 $272 $108 #
plane-surface $-1 0 -31.631717362066095 0 0 1 0 0 0 1 forward_v I I I I #
coedge $-1 $185 $114 $273 $274 reversed $109 $-1 #
coedge $-1 $275 $111 $272 $276 reversed $69 $-1 #
coedge $-1 $111 $275 $277 $278 reversed $69 $-1 #
coedge $-1 $192 $182 $111 $186 reversed $109 $-1 #
edge $-1 $279 -31.631717362066095 $280 31.631717362066095 $185 $281 forward 7 unknown #
coedge $-1 $113 $112 $282 $283 reversed $44 $-1 #
coedge $-1 $284 $285 $112 $189 forward $286 $-1 #
edge $-1 $287 -33.036957243907423 $194 -27.289470075583861 $188 $288 forward 7 unknown #
coedge $-1 $289 $273 $113 $191 forward $180 $-1 #
edge $-1 $193 27.289470075583861 $290 33.036957243907423 $190 $291 forward 7 unknown #
coedge $-1 $114 $185 $284 $292 reversed $109 $-1 #
vertex $-1 $191 $293 #
vertex $-1 $189 $294 #
straight-curve $-1 -57.452683735329501 0 -1.0453674639036585 0 1 0 I I #
face $-1 $-1 $208 $26 $-1 $295 reversed single #
loop $-1 $-1 $296 $116 #
plane-surface $-1 0 0 6.3674675045072169 0 0 1 1 0 0 forward_v I I I I #
coedge $-1 $297 $298 $299 $300 reversed $117 $-1 #
coedge $-1 $301 $119 $121 $206 forward $73 $-1 #
coedge $-1 $119 $301 $297 $302 forward $73 $-1 #
coedge $-1 $299 $122 $119 $203 forward $208 $-1 #
edge $-1 $210 -34.851820687677645 $303 -10.349905407626078 $202 $304 forward 7 unknown #
coedge $-1 $305 $306 $120 $205 forward $197 $-1 #
edge $-1 $307 -23.036492319971266 $209 -15.784227194154756 $204 $308 forward 7 unknown #
edge $-1 $210 -1.2338845364018712e-014 $307 8.3741944826470629 $121 $309 forward 7 unknown #
coedge $-1 $122 $299 $305 $310 reversed $208 $-1 #
loop $-1 $-1 $299 $196 #
vertex $-1 $310 $311 #
vertex $-1 $123 $312 #
straight-curve $-1 -57.452683735329501 -31.631717362066095 55.823138385197495 0 0 -1 I I #
coedge $-1 $212 $212 $-1 $313 reversed $126 $-1 #
edge $-1 $314 0 $314 6.2831853071796004 $127 $315 forward 7 unknown #
vertex $-1 $130 $316 #
ellipse-curve $-1 -50.452136512457628 -28.005584799157841 4.2739188557971861 0 -0.50000000669873634 0.8660253999169214 1.5 0 0 1 I I #
coedge $-1 $216 $216 $-1 $317 reversed $133 $-1 #
edge $-1 $318 0 $318 6.2831853071796004 $134 $319 forward 7 unknown #
vertex $-1 $137 $320 #
ellipse-curve $-1 -39.951315678149811 -28.005584799157841 4.2739188557971861 0 -0.50000000669873634 0.8660253999169214 1.5 0 0 1 I I #
face $-1 $-1 $321 $29 $-1 $322 reversed single #
loop $-1 $-1 $227 $138 #
plane-surface $-1 0 0 6.3674675045072169 0 0 1 1 0 0 forward_v I I I I #
coedge $-1 $323 $141 $143 $229 forward $87 $-1 #
coedge $-1 $141 $323 $324 $325 reversed $87 $-1 #
coedge $-1 $326 $144 $141 $226 forward $139 $-1 #
edge $-1 $232 13.223648991787861 $327 37.725564271839424 $225 $328 forward 7 unknown #
coedge $-1 $329 $330 $142 $228 forward $221 $-1 #
edge $-1 $331 -23.036492319971266 $231 -15.784227194154756 $227 $332 forward 7 unknown #
edge $-1 $232 -1.2338845364018712e-014 $331 8.3741944826470629 $143 $333 forward 7 unknown #
coedge $-1 $144 $326 $329 $334 reversed $139 $-1 #
vertex $-1 $334 $335 #
vertex $-1 $145 $336 #
straight-curve $-1 38.698255623601504 -31.631717362066095 55.823138385197495 0 0 -1 I I #
coedge $-1 $234 $234 $-1 $337 reversed $148 $-1 #
edge $-1 $338 0 $338 6.2831853071796004 $149 $339 forward 7 unknown #
vertex $-1 $152 $340 #
ellipse-curve $-1 45.69880284647337 -28.005584799157841 4.2739188557971861 0 -0.50000000669873634 0.8660253999169214 1.5 0 0 1 I I #
coedge $-1 $238 $238 $-1 $341 reversed $155 $-1 #
edge $-1 $342 0 $342 6.2831853071796004 $156 $343 forward 7 unknown #
vertex $-1 $159 $344 #
ellipse-curve $-1 56.199623680781187 -28.005584799157841 4.2739188557971861 0 -0.50000000669873634 0.8660253999169214 1.5 0 0 1 I I #
face $-1 $-1 $175 $24 $-1 $345 reversed single #
loop $-1 $-1 $258 $160 #
plane-surface $-1 0 31.631717362066095 0 0 -1 0 0 0 -1 forward_v I I I I #
coedge $-1 $346 $256 $259 $347 forward $161 $-1 #
coedge $-1 $262 $163 $164 $250 reversed $101 $-1 #
coedge $-1 $256 $346 $163 $248 reversed $161 $-1 #
edge $-1 $263 -6.3674675045072169 $348 6.3674675045072169 $247 $349 forward 7 unknown #
coedge $-1 $165 $164 $346 $350 forward $65 $-1 #
edge $-1 $254 -63.20017090365306 $348 63.20017090365306 $246 $351 forward 7 unknown #
coedge $-1 $259 $258 $165 $252 reversed $243 $-1 #
edge $-1 $352 -63.20017090365306 $253 63.20017090365306 $251 $353 forward 7 unknown #
vertex $-1 $167 $354 #
vertex $-1 $265 $355 #
straight-curve $-1 63.20017090365306 0 -6.3674675045072169 0 -1 0 I I #
coedge $-1 $245 $247 $168 $257 reversed $161 $-1 #
edge $-1 $260 -31.631717362066095 $263 31.631717362066095 $256 $356 forward 7 unknown #
coedge $-1 $251 $169 $174 $266 forward $243 $-1 #
coedge $-1 $169 $251 $245 $347 reversed $243 $-1 #
vertex $-1 $170 $357 #
straight-curve $-1 0 31.631717362066095 6.3674675045072169 -1 0 0 I I #
coedge $-1 $171 $246 $173 $265 reversed $101 $-1 #
vertex $-1 $257 $358 #
straight-curve $-1 0 -31.631717362066095 6.3674675045072169 1 0 0 I I #
edge $-1 $176 -6.3674675045072169 $254 6.3674675045072169 $173 $359 forward 7 unknown #
edge $-1 $177 -6.3674675045072169 $253 6.3674675045072169 $174 $360 forward 7 unknown #
point $-1 63.20017090365306 -31.631717362066095 6.3674675045072169 #
point $-1 63.20017090365306 31.631717362066095 6.3674675045072169 #
face $-1 $-1 $286 $25 $-1 $361 reversed single #
loop $-1 $-1 $362 $179 #
plane-surface $-1 -63.20017090365306 0 0 1 0 0 0 0 -1 forward_v I I I I #
coedge $-1 $273 $289 $183 $276 forward $180 $-1 #
coedge $-1 $190 $272 $182 $274 forward $180 $-1 #
edge $-1 $280 -2.7726837319518292 $193 0.22731626804817062 $273 $363 forward 7 unknown #
coedge $-1 $184 $183 $362 $364 reversed $69 $-1 #
edge $-1 $365 -33.036957243907423 $280 -27.289470075583861 $272 $366 forward 7 unknown #
coedge $-1 $285 $284 $184 $278 forward $286 $-1 #
edge $-1 $279 27.289470075583861 $367 33.036957243907423 $277 $368 forward 7 unknown #
vertex $-1 $278 $369 #
vertex $-1 $276 $370 #
straight-curve $-1 -57.452683735329501 0 -4.0453674639036583 0 -1 0 I I #
coedge $-1 $371 $372 $187 $283 forward $270 $-1 #
edge $-1 $290 -31.631717362066095 $287 31.631717362066095 $282 $373 forward 7 unknown #
coedge $-1 $277 $188 $192 $292 forward $286 $-1 #
coedge $-1 $188 $277 $371 $374 reversed $286 $-1 #
loop $-1 $-1 $277 $269 #
vertex $-1 $374 $375 #
straight-curve $-1 -30.16321365974564 31.631717362066095 -1.0453674639036585 1 0 0 I I #
coedge $-1 $272 $190 $372 $376 forward $180 $-1 #
vertex $-1 $376 $377 #
straight-curve $-1 -30.16321365974564 -31.631717362066095 -1.0453674639036585 -1 0 0 I I #
edge $-1 $194 -0.22731626804817062 $279 2.7726837319518292 $284 $378 forward 7 unknown #
point $-1 -57.452683735329501 -31.631717362066095 -1.0453674639036585 #
point $-1 -57.452683735329501 31.631717362066095 -1.0453674639036585 #
plane-surface $-1 0 -31.631717362066095 0 0 1 0 0 0 1 forward_v I I I I #
coedge $-1 $306 $305 $298 $379 forward $197 $-1 #
coedge $-1 $298 $199 $201 $302 reversed $117 $-1 #
coedge $-1 $199 $297 $296 $379 reversed $117 $-1 #
coedge $-1 $207 $202 $199 $300 forward $208 $-1 #
edge $-1 $303 -53.642768178110337 $380 -49.455670880690278 $299 $381 forward 7 unknown #
coedge $-1 $201 $200 $306 $382 reversed $73 $-1 #
edge $-1 $383 -8.3741944826470629 $303 1.2338845364018712e-014 $297 $384 forward 7 unknown #
vertex $-1 $203 $385 #
straight-curve $-1 -22.60086304765186 -31.631717362066095 2.180370207087158 1 0 0 I I #
coedge $-1 $296 $204 $207 $310 forward $197 $-1 #
coedge $-1 $204 $296 $301 $382 forward $197 $-1 #
vertex $-1 $205 $386 #
straight-curve $-1 -57.452683735329501 -47.41594455622085 6.3674675045072178 0 -1 0 I I #
straight-curve $-1 -57.452683735329501 -31.631717362066084 2.1803702070871651 0 0.8660253999169214 0.50000000669873634 I I #
edge $-1 $209 -57.452683735329501 $380 -32.950768455277938 $207 $387 forward 7 unknown #
point $-1 -57.452683735329501 -31.631717362066095 6.3674675045072169 #
point $-1 -57.452683735329501 -31.631717362066095 2.1803702070871589 #
edge $-1 $388 1 $388 0 $212 $-1 forward 7 unknown #
vertex $-1 $213 $389 #
ellipse-curve $-1 -50.452136512457628 -26.659420957763786 1.9422947288410812 0 -0.50000000669873634 0.8660253999169214 1.5 0 0 1 I I #
point $-1 -48.952136512457628 -28.005584799157845 4.2739188557971914 #
edge $-1 $390 1 $390 0 $216 $-1 forward 7 unknown #
vertex $-1 $217 $391 #
ellipse-curve $-1 -39.951315678149811 -26.659420957763786 1.9422947288410812 0 -0.50000000669873634 0.8660253999169214 1.5 0 0 1 I I #
point $-1 -38.451315678149811 -28.005584799157845 4.2739188557971914 #
loop $-1 $-1 $324 $220 #
plane-surface $-1 63.20017090365306 0 0 -1 0 0 0 0 1 forward_v I I I I #
coedge $-1 $224 $223 $330 $392 reversed $87 $-1 #
coedge $-1 $393 $394 $224 $325 forward $321 $-1 #
edge $-1 $327 -13.151842780196512 $395 -4.7776482975494368 $324 $396 forward 7 unknown #
coedge $-1 $230 $225 $394 $397 reversed $139 $-1 #
vertex $-1 $226 $398 #
straight-curve $-1 25.474606631813643 -31.631717362066095 2.180370207087158 1 0 0 I I #
coedge $-1 $399 $227 $230 $334 forward $221 $-1 #
coedge $-1 $227 $399 $323 $392 forward $221 $-1 #
vertex $-1 $228 $400 #
straight-curve $-1 38.698255623601504 -47.41594455622085 6.3674675045072178 0 -1 0 I I #
straight-curve $-1 38.698255623601504 -31.631717362066084 2.1803702070871651 0 0.8660253999169214 0.50000000669873634 I I #
edge $-1 $231 38.698255623601504 $401 63.20017090365306 $230 $402 forward 7 unknown #
point $-1 38.698255623601504 -31.631717362066095 6.3674675045072169 #
point $-1 38.698255623601504 -31.631717362066095 2.1803702070871589 #
edge $-1 $403 1 $403 0 $234 $-1 forward 7 unknown #
vertex $-1 $235 $404 #
ellipse-curve $-1 45.69880284647337 -26.659420957763786 1.9422947288410812 0 -0.50000000669873634 0.8660253999169214 1.5 0 0 1 I I #
point $-1 47.19880284647337 -28.005584799157845 4.2739188557971914 #
edge $-1 $405 1 $405 0 $238 $-1 forward 7 unknown #
vertex $-1 $239 $406 #
ellipse-curve $-1 56.199623680781187 -26.659420957763786 1.9422947288410812 0 -0.50000000669873634 0.8660253999169214 1.5 0 0 1 I I #
point $-1 57.699623680781187 -28.005584799157845 4.2739188557971914 #
plane-surface $-1 63.20017090365306 0 0 -1 0 0 0 0 1 forward_v I I I I #
coedge $-1 $247 $245 $249 $350 reversed $161 $-1 #
edge $-1 $260 -6.3674675045072169 $352 6.3674675045072169 $259 $407 forward 7 unknown #
vertex $-1 $350 $408 #
straight-curve $-1 -63.20017090365306 -31.631717362066095 0 0 0 -1 I I #
edge $-1 $348 -31.631717362066095 $352 31.631717362066095 $346 $409 forward 7 unknown #
straight-curve $-1 0 -31.631717362066095 -6.3674675045072169 -1 0 0 I I #
vertex $-1 $252 $410 #
straight-curve $-1 0 31.631717362066095 -6.3674675045072169 1 0 0 I I #
point $-1 63.20017090365306 31.631717362066095 -6.3674675045072169 #
point $-1 63.20017090365306 -31.631717362066095 -6.3674675045072169 #
straight-curve $-1 -63.20017090365306 0 6.3674675045072169 0 -1 0 I I #
point $-1 -63.20017090365306 31.631717362066095 6.3674675045072169 #
point $-1 -63.20017090365306 -31.631717362066095 6.3674675045072169 #
straight-curve $-1 63.20017090365306 -31.631717362066095 0 0 0 -1 I I #
straight-curve $-1 63.20017090365306 31.631717362066095 0 0 0 -1 I I #
plane-surface $-1 0 31.631717362066095 0 0 -1 0 0 0 -1 forward_v I I I I #
coedge $-1 $372 $371 $275 $364 forward $270 $-1 #
straight-curve $-1 -57.452683735329501 -31.631717362066095 -1.2726837319518292 0 0 1 I I #
edge $-1 $367 -31.631717362066095 $365 31.631717362066095 $362 $411 forward 7 unknown #
vertex $-1 $276 $412 #
straight-curve $-1 -30.16321365974564 -31.631717362066095 -4.0453674639036583 1 0 0 I I #
vertex $-1 $278 $413 #
straight-curve $-1 -30.16321365974564 31.631717362066095 -4.0453674639036583 -1 0 0 I I #
point $-1 -57.452683735329501 31.631717362066095 -4.0453674639036583 #
point $-1 -57.452683735329501 -31.631717362066095 -4.0453674639036583 #
coedge $-1 $362 $282 $285 $374 forward $270 $-1 #
coedge $-1 $282 $362 $289 $376 reversed $270 $-1 #
straight-curve $-1 -63.20017090365306 0 -1.0453674639036585 0 1 0 I I #
edge $-1 $287 1.0453674639036585 $367 4.0453674639036583 $285 $414 forward 7 unknown #
point $-1 -63.20017090365306 31.631717362066095 -1.0453674639036585 #
edge $-1 $290 1.0453674639036585 $365 4.0453674639036583 $372 $415 forward 7 unknown #
point $-1 -63.20017090365306 -31.631717362066095 -1.0453674639036585 #
straight-curve $-1 -57.452683735329501 31.631717362066095 -1.2726837319518292 0 0 -1 I I #
edge $-1 $380 15.784227194154756 $383 23.036492319971266 $296 $416 forward 7 unknown #
vertex $-1 $379 $417 #
straight-curve $-1 -32.950768455277938 -31.631717362066095 55.823138385197495 0 0 1 I I #
edge $-1 $383 10.349905407626078 $307 34.851820687677645 $306 $418 forward 7 unknown #
vertex $-1 $382 $419 #
straight-curve $-1 -32.950768455277938 -31.631717362066084 2.1803702070871651 0 -0.8660253999169214 -0.50000000669873634 I I #
point $-1 -32.950768455277938 -31.631717362066095 2.1803702070871589 #
point $-1 -57.452683735329501 -24.379452236249584 6.3674675045072169 #
straight-curve $-1 0 -31.631717362066095 6.3674675045072169 1 0 0 I I #
vertex $-1 $313 $420 #
point $-1 -48.952136512457628 -26.659420957763786 1.9422947288410812 #
vertex $-1 $317 $421 #
point $-1 -38.451315678149811 -26.659420957763786 1.9422947288410812 #
edge $-1 $395 -37.725564271839424 $331 -13.223648991787861 $330 $422 forward 7 unknown #
coedge $-1 $394 $324 $399 $423 reversed $321 $-1 #
coedge $-1 $324 $393 $326 $397 forward $321 $-1 #
vertex $-1 $325 $424 #
straight-curve $-1 63.20017090365306 -20.241887458701935 8.7562916852861434 0 0.8660253999169214 0.50000000669873634 I I #
edge $-1 $401 -6.3674675045072169 $327 -2.1803702070871589 $394 $425 forward 7 unknown #
point $-1 63.200170903653067 -31.631717362066095 2.1803702070871589 #
coedge $-1 $330 $329 $393 $423 forward $221 $-1 #
point $-1 38.698255623601504 -24.379452236249584 6.3674675045072169 #
vertex $-1 $423 $426 #
straight-curve $-1 0 -31.631717362066095 6.3674675045072169 1 0 0 I I #
vertex $-1 $337 $427 #
point $-1 47.19880284647337 -26.659420957763786 1.9422947288410812 #
vertex $-1 $341 $428 #
point $-1 57.699623680781187 -26.659420957763786 1.9422947288410812 #
straight-curve $-1 -63.20017090365306 31.631717362066095 0 0 0 -1 I I #
point $-1 -63.20017090365306 -31.631717362066095 -6.3674675045072169 #
straight-curve $-1 -63.20017090365306 0 -6.3674675045072169 0 1 0 I I #
point $-1 -63.20017090365306 31.631717362066095 -6.3674675045072169 #
straight-curve $-1 -63.20017090365306 0 -4.0453674639036583 0 -1 0 I I #
point $-1 -63.20017090365306 -31.631717362066095 -4.0453674639036583 #
point $-1 -63.20017090365306 31.631717362066095 -4.0453674639036583 #
straight-curve $-1 -63.20017090365306 31.631717362066095 0 0 0 -1 I I #
straight-curve $-1 -63.20017090365306 -31.631717362066095 0 0 0 -1 I I #
straight-curve $-1 -32.950768455277938 -47.41594455622085 6.3674675045072178 0 1 0 I I #
point $-1 -32.950768455277938 -31.631717362066095 6.3674675045072169 #
straight-curve $-1 -22.60086304765186 -24.379452236249584 6.3674675045072178 -1 0 0 I I #
point $-1 -32.950768455277938 -24.379452236249584 6.3674675045072169 #
point $-1 -50.452136512457628 -25.909420947715681 0.64325662896569913 #
point $-1 -39.951315678149811 -25.909420947715681 0.64325662896569913 #
straight-curve $-1 25.474606631813643 -24.379452236249584 6.3674675045072178 -1 0 0 I I #
edge $-1 $401 -31.631717362066095 $395 -24.379452236249584 $393 $429 forward 7 unknown #
point $-1 63.200170903653067 -24.379452236249584 6.3674675045072169 #
straight-curve $-1 63.20017090365306 -31.631717362066095 0 0 0 -1 I I #
point $-1 63.20017090365306 -31.631717362066095 6.3674675045072169 #
point $-1 45.69880284647337 -25.909420947715681 0.64325662896569913 #
point $-1 56.199623680781187 -25.909420947715681 0.64325662896569913 #
straight-curve $-1 63.20017090365306 0 6.3674675045072169 0 1 0 I I #
End-of-ACIS-data 