500 0 8 0           
7 Unknown 11 ACIS 5.0 NT 24 Fri Mar 26 02:07:08 1999 
-1 9.9999999999999995e-007 1e-010 
body $-1 $8 $-1 $9 #
body $-1 $10 $-1 $11 #
body $-1 $12 $-1 $13 #
body $-1 $14 $-1 $15 #
body $-1 $16 $-1 $17 #
body $-1 $18 $-1 $19 #
body $-1 $20 $-1 $21 #
body $-1 $22 $-1 $23 #
lump $-1 $-1 $24 $0 #
transform $-1 1 0 0 0 1 0 0 0 1 60.797753837702565 38.486627680384586 9.5095456919674586 1 rotate no_reflect no_shear #
lump $-1 $-1 $25 $1 #
transform $-1 1 0 0 0 1 0 0 0 1 60.797753837702565 38.486627680384586 9.5095456919674586 1 rotate no_reflect no_shear #
lump $-1 $-1 $26 $2 #
transform $-1 1 0 0 0 1 0 0 0 1 60.797753837702565 38.486627680384586 9.5095456919674586 1 rotate no_reflect no_shear #
lump $-1 $-1 $27 $3 #
transform $-1 1 0 0 0 1 0 0 0 1 60.797753837702565 38.486627680384586 9.5095456919674586 1 rotate no_reflect no_shear #
lump $-1 $-1 $28 $4 #
transform $-1 1 0 0 0 1 0 0 0 1 60.797753837702565 38.486627680384586 9.5095456919674586 1 rotate no_reflect no_shear #
lump $-1 $-1 $29 $5 #
transform $-1 1 0 0 0 1 0 0 0 1 60.797753837702565 38.486627680384586 9.5095456919674586 1 rotate no_reflect no_shear #
lump $-1 $-1 $30 $6 #
transform $-1 1 0 0 0 1 0 0 0 1 60.797753837702565 38.486627680384586 9.5095456919674586 1 rotate no_reflect no_shear #
lump $-1 $-1 $31 $7 #
transform $-1 1 0 0 0 1 0 0 0 1 60.797753837702565 38.486627680384586 9.5095456919674586 1 rotate no_reflect no_shear #
shell $-1 $-1 $-1 $32 $-1 $8 #
shell $-1 $-1 $-1 $33 $-1 $10 #
shell $-1 $-1 $-1 $34 $-1 $12 #
shell $-1 $-1 $-1 $35 $-1 $14 #
shell $-1 $-1 $-1 $36 $-1 $16 #
shell $-1 $-1 $-1 $37 $-1 $18 #
shell $-1 $-1 $-1 $38 $-1 $20 #
shell $-1 $-1 $-1 $39 $-1 $22 #
face $-1 $40 $41 $24 $-1 $42 forward single #
face $-1 $43 $44 $25 $-1 $45 forward single #
face $-1 $46 $47 $26 $-1 $48 reversed single #
face $-1 $49 $50 $27 $-1 $51 reversed single #
face $-1 $52 $53 $28 $-1 $54 forward single #
face $-1 $55 $56 $29 $-1 $57 forward single #
face $-1 $58 $59 $30 $-1 $60 reversed single #
face $-1 $61 $62 $31 $-1 $63 forward single #
face $-1 $64 $65 $24 $-1 $66 reversed single #
loop $-1 $-1 $67 $32 #
plane-surface $-1 0 0 9.5095456919674586 0 0 1 1 0 0 forward_v I I I I #
face $-1 $68 $69 $25 $-1 $70 reversed single #
loop $-1 $-1 $71 $33 #
plane-surface $-1 -60.797753837702565 0 0 1 0 0 0 0 -1 forward_v I I I I #
face $-1 $72 $73 $26 $-1 $74 reversed single #
loop $-1 $-1 $75 $34 #
plane-surface $-1 56.703132161939017 -27.114747744869163 0 0 1 0 0 0 1 forward_v I I I I #
face $-1 $76 $77 $27 $-1 $78 reversed single #
loop $-1 $-1 $79 $35 #
plane-surface $-1 -45.143192732831714 105.30480060475905 127.70409313544319 1 0 0 0 -0.86602541151947299 -0.49999998660252726 forward_v I I I I #
face $-1 $80 $81 $28 $-1 $82 forward single #
loop $-1 $83 $84 $36 #
cone-surface $-1 -36.267872342883308 32.647273125655808 3.0501928063717201 0 -0.86602541151947299 -0.49999998660252726 2.5 0 0 1 I I 0 1 2.5 forward I I I I #
face $-1 $85 $86 $29 $-1 $87 forward single #
loop $-1 $88 $89 $37 #
cone-surface $-1 -22.954891757960695 32.647273125655808 3.0501928063717201 0 -0.86602541151947299 -0.49999998660252726 2.5 0 0 1 I I 0 1 2.5 forward I I I I #
face $-1 $90 $91 $30 $-1 $92 reversed single #
loop $-1 $-1 $93 $38 #
plane-surface $-1 33.432008965285014 -131.63419165097798 81.289005228646943 -1 0 0 0 -0.7660444514056185 0.64278759981090561 forward_v I I I I #
face $-1 $94 $95 $31 $-1 $96 forward single #
loop $-1 $97 $98 $39 #
cone-surface $-1 27.565802203917507 -34.551282229772795 5.2633476031333553 0 0.7660444514056185 -0.64278759981090561 1.5 0 0 1 I I 0 1 1.5 forward I I I I #
face $-1 $99 $100 $24 $-1 $101 reversed single #
loop $-1 $-1 $102 $40 #
plane-surface $-1 0 0 -9.5095456919674586 0 0 1 1 0 0 forward_v I I I I #
coedge $-1 $103 $104 $105 $106 forward $41 $-1 #
face $-1 $107 $108 $25 $-1 $109 forward single #
loop $-1 $-1 $110 $43 #
plane-surface $-1 0 38.486627680384586 0 0 -1 0 0 0 -1 forward_v I I I I #
coedge $-1 $111 $112 $113 $114 forward $44 $-1 #
face $-1 $115 $116 $26 $-1 $117 reversed single #
loop $-1 $-1 $118 $46 #
plane-surface $-1 52.608510486175462 -24.658436765130247 0 1 0 0 0 0 -1 forward_v I I I I #
coedge $-1 $119 $120 $121 $122 forward $47 $-1 #
face $-1 $123 $124 $27 $-1 $125 reversed single #
loop $-1 $-1 $126 $49 #
plane-surface $-1 -29.611382050422002 1.0312470806184137e-006 66.906340926813129 0 0.86602541151947299 0.49999998660252726 1 0 0 forward_v I I I I #
coedge $-1 $127 $128 $129 $130 reversed $50 $-1 #
face $-1 $-1 $131 $28 $-1 $132 forward single #
loop $-1 $133 $134 $52 #
cone-surface $-1 -36.267872342883308 28.399673133321343 0.59783989500178514 0 -0.86602541151947299 -0.49999998660252726 1.25 0 0 1 I I -0.70710678118654746 0.70710678118654746 1.25 forward I I I I #
loop $-1 $-1 $135 $36 #
coedge $-1 $84 $84 $136 $137 reversed $53 $-1 #
face $-1 $-1 $138 $29 $-1 $139 forward single #
loop $-1 $140 $141 $55 #
cone-surface $-1 -22.954891757960695 28.399673133321343 0.59783989500178514 0 -0.86602541151947299 -0.49999998660252726 1.25 0 0 1 I I -0.70710678118654746 0.70710678118654746 1.25 forward I I I I #
loop $-1 $-1 $142 $37 #
coedge $-1 $89 $89 $143 $144 reversed $56 $-1 #
face $-1 $145 $146 $30 $-1 $147 reversed single #
loop $-1 $-1 $148 $58 #
plane-surface $-1 27.565802203917507 -38.486627680384586 3.128920702184729 0 -0.7660444514056185 0.64278759981090561 1 0 0 forward_v I I I I #
coedge $-1 $149 $150 $151 $152 reversed $59 $-1 #
face $-1 $-1 $153 $31 $-1 $154 forward single #
loop $-1 $155 $156 $61 #
cone-surface $-1 27.565802203917507 -32.718393408323585 3.7253713093324308 0 0.7660444514056185 -0.64278759981090561 0.75 0 0 1 I I -0.70710678118654768 0.70710678118654735 0.75 forward I I I I #
loop $-1 $-1 $157 $39 #
coedge $-1 $98 $98 $158 $159 reversed $62 $-1 #
face $-1 $160 $161 $24 $-1 $162 reversed single #
loop $-1 $-1 $163 $64 #
plane-surface $-1 0 -38.486627680384586 0 0 1 0 0 0 1 forward_v I I I I #
coedge $-1 $164 $165 $166 $167 forward $65 $-1 #
coedge $-1 $168 $67 $169 $170 forward $41 $-1 #
coedge $-1 $67 $168 $171 $172 forward $41 $-1 #
coedge $-1 $173 $174 $67 $106 reversed $175 $-1 #
edge $-1 $176 -38.486627680384586 $177 38.486627680384586 $105 $178 forward 7 unknown #
face $-1 $179 $180 $25 $-1 $181 reversed single #
loop $-1 $-1 $113 $68 #
plane-surface $-1 -64.209140470314665 0 -5.2802110147299395 0 0 1 1 0 0 forward_v I I I I #
coedge $-1 $182 $183 $112 $184 forward $69 $-1 #
coedge $-1 $185 $71 $186 $187 reversed $44 $-1 #
coedge $-1 $71 $185 $110 $184 reversed $44 $-1 #
coedge $-1 $188 $189 $71 $114 reversed $108 $-1 #
edge $-1 $190 -38.486627680384586 $191 38.486627680384586 $113 $192 forward 7 unknown #
face $-1 $193 $194 $26 $-1 $195 forward single #
loop $-1 $-1 $196 $72 #
plane-surface $-1 56.703132161939017 -22.202125785391331 0 0 -1 0 0 0 -1 forward_v I I I I #
coedge $-1 $197 $198 $199 $200 forward $73 $-1 #
coedge $-1 $201 $75 $202 $203 reversed $47 $-1 #
coedge $-1 $75 $201 $204 $205 reversed $47 $-1 #
coedge $-1 $198 $197 $75 $122 reversed $73 $-1 #
edge $-1 $206 -9.5095456919674586 $207 9.5095456919674586 $121 $208 forward 7 unknown #
face $-1 $209 $210 $27 $-1 $211 forward single #
loop $-1 $-1 $212 $76 #
plane-surface $-1 -14.079571368012289 105.30480060475905 127.70409313544319 -1 0 0 0 0.86602541151947299 0.49999998660252726 forward_v I I I I #
coedge $-1 $213 $214 $215 $216 reversed $77 $-1 #
coedge $-1 $128 $79 $217 $218 reversed $50 $-1 #
coedge $-1 $79 $127 $213 $219 reversed $50 $-1 #
coedge $-1 $215 $220 $79 $130 forward $210 $-1 #
edge $-1 $221 14.16577262199494 $222 19.514345275582293 $129 $223 forward 7 unknown #
loop $-1 $-1 $136 $80 #
plane-surface $-1 -29.611382050422002 1.0312470806184137e-006 66.906340926813129 0 0.86602541151947299 0.49999998660252726 1 0 0 forward_v I I I I #
loop $-1 $-1 $224 $52 #
coedge $-1 $134 $134 $135 $225 reversed $81 $-1 #
coedge $-1 $135 $135 $134 $225 forward $83 $-1 #
coedge $-1 $136 $136 $84 $137 forward $131 $-1 #
edge $-1 $226 -1.1575915565176986e-015 $226 6.2831853071795996 $136 $227 forward 7 unknown #
loop $-1 $-1 $143 $85 #
plane-surface $-1 -29.611382050422002 1.0312470806184137e-006 66.906340926813129 0 0.86602541151947299 0.49999998660252726 1 0 0 forward_v I I I I #
loop $-1 $-1 $228 $55 #
coedge $-1 $141 $141 $142 $229 reversed $86 $-1 #
coedge $-1 $142 $142 $141 $229 forward $88 $-1 #
coedge $-1 $143 $143 $89 $144 forward $138 $-1 #
edge $-1 $230 -1.1575915565176986e-015 $230 6.2831853071795996 $143 $231 forward 7 unknown #
face $-1 $232 $233 $30 $-1 $234 reversed single #
loop $-1 $-1 $235 $90 #
plane-surface $-1 21.699595442549999 -131.63419165097798 81.289005228646943 1 0 0 0 0.7660444514056185 -0.64278759981090561 forward_v I I I I #
coedge $-1 $236 $237 $238 $239 reversed $91 $-1 #
coedge $-1 $150 $93 $240 $241 reversed $59 $-1 #
coedge $-1 $93 $149 $236 $242 reversed $59 $-1 #
coedge $-1 $238 $243 $93 $152 forward $244 $-1 #
edge $-1 $245 27.330468145104405 $246 32.684448080538012 $151 $247 forward 7 unknown #
loop $-1 $-1 $158 $94 #
plane-surface $-1 27.565802203917507 -38.486627680384586 3.128920702184729 0 -0.7660444514056185 0.64278759981090561 1 0 0 forward_v I I I I #
loop $-1 $-1 $248 $61 #
coedge $-1 $156 $156 $157 $249 reversed $95 $-1 #
coedge $-1 $157 $157 $156 $249 forward $97 $-1 #
coedge $-1 $158 $158 $98 $159 forward $153 $-1 #
edge $-1 $250 1.3027230337556552e-016 $250 6.2831853071796004 $158 $251 forward 7 unknown #
face $-1 $252 $253 $24 $-1 $254 reversed single #
loop $-1 $-1 $255 $99 #
plane-surface $-1 -60.797753837702565 0 0 1 0 0 0 0 -1 forward_v I I I I #
coedge $-1 $256 $171 $257 $258 forward $100 $-1 #
coedge $-1 $259 $102 $256 $260 forward $65 $-1 #
coedge $-1 $102 $259 $261 $262 forward $65 $-1 #
coedge $-1 $174 $173 $102 $167 reversed $175 $-1 #
edge $-1 $263 -38.486627680384586 $264 38.486627680384586 $166 $265 forward 7 unknown #
coedge $-1 $104 $103 $266 $267 forward $41 $-1 #
coedge $-1 $268 $269 $103 $170 reversed $253 $-1 #
edge $-1 $177 -60.797753837702565 $270 60.797753837702565 $169 $271 forward 7 unknown #
coedge $-1 $163 $272 $104 $172 reversed $100 $-1 #
edge $-1 $273 -60.797753837702565 $176 60.797753837702565 $171 $274 forward 7 unknown #
coedge $-1 $166 $105 $272 $275 forward $175 $-1 #
coedge $-1 $105 $166 $268 $276 reversed $175 $-1 #
loop $-1 $-1 $173 $252 #
vertex $-1 $106 $277 #
vertex $-1 $106 $278 #
straight-curve $-1 60.797753837702565 0 9.5095456919674586 0 1 0 I I #
face $-1 $279 $280 $25 $-1 $281 reversed single #
loop $-1 $-1 $282 $107 #
plane-surface $-1 -67.620527102926772 0 -7.394878353348699 1 0 0 0 0 -1 forward_v I I I I #
coedge $-1 $283 $110 $284 $285 reversed $69 $-1 #
coedge $-1 $110 $283 $188 $286 reversed $69 $-1 #
edge $-1 $190 5.2802110147299395 $287 9.5095456919674586 $110 $288 forward 7 unknown #
coedge $-1 $112 $111 $289 $290 reversed $44 $-1 #
coedge $-1 $291 $292 $111 $187 forward $293 $-1 #
edge $-1 $294 -9.5095456919674586 $191 -5.2802110147299395 $186 $295 forward 7 unknown #
coedge $-1 $296 $113 $183 $286 forward $108 $-1 #
coedge $-1 $113 $296 $291 $297 forward $108 $-1 #
vertex $-1 $184 $298 #
vertex $-1 $297 $299 #
straight-curve $-1 -60.797753837702565 0 -5.2802110147299395 0 -1 0 I I #
face $-1 $300 $301 $26 $-1 $302 reversed single #
loop $-1 $-1 $303 $115 #
plane-surface $-1 0 0 9.5095456919674586 0 0 1 1 0 0 forward_v I I I I #
coedge $-1 $304 $305 $306 $307 reversed $116 $-1 #
coedge $-1 $121 $118 $308 $309 reversed $73 $-1 #
coedge $-1 $118 $121 $310 $311 reversed $73 $-1 #
coedge $-1 $305 $304 $118 $200 reversed $116 $-1 #
edge $-1 $312 -9.5095456919674586 $313 9.5095456919674586 $199 $314 forward 7 unknown #
coedge $-1 $120 $119 $315 $316 reversed $47 $-1 #
coedge $-1 $308 $317 $119 $203 forward $301 $-1 #
edge $-1 $318 -32.446187756733067 $207 -24.256944405205953 $202 $319 forward 7 unknown #
coedge $-1 $320 $310 $120 $205 forward $194 $-1 #
edge $-1 $206 24.256944405205953 $321 32.446187756733067 $204 $322 forward 7 unknown #
vertex $-1 $205 $323 #
vertex $-1 $203 $324 #
straight-curve $-1 52.608510486175462 -27.114747744869163 0 0 0 -1 I I #
face $-1 $-1 $325 $27 $-1 $326 reversed single #
loop $-1 $-1 $129 $123 #
plane-surface $-1 0 0 9.5095456919674586 0 0 1 1 0 0 forward_v I I I I #
coedge $-1 $327 $328 $329 $330 reversed $124 $-1 #
coedge $-1 $331 $126 $128 $219 forward $77 $-1 #
coedge $-1 $126 $331 $327 $332 forward $77 $-1 #
coedge $-1 $329 $129 $126 $216 forward $210 $-1 #
edge $-1 $222 -30.337501707620714 $333 0.72611965719871208 $215 $334 forward 7 unknown #
coedge $-1 $335 $336 $127 $218 forward $325 $-1 #
edge $-1 $337 -63.606500790712083 $221 -54.342500875754133 $217 $338 forward 7 unknown #
edge $-1 $222 66.27610976696505 $337 76.973255360769187 $128 $339 forward 7 unknown #
coedge $-1 $129 $329 $335 $340 forward $210 $-1 #
vertex $-1 $218 $341 #
vertex $-1 $130 $342 #
straight-curve $-1 -45.143192732831714 52.652400302379526 9.5095456919674604 0 -1 0 I I #
coedge $-1 $224 $224 $-1 $343 reversed $133 $-1 #
edge $-1 $344 0 $344 6.2831853071796004 $134 $345 forward 7 unknown #
vertex $-1 $137 $346 #
ellipse-curve $-1 -36.267872342883308 35.812341353590909 4.8775457344884847 0 0.86602541151947299 0.49999998660252726 2.5 0 0 1 I I #
coedge $-1 $228 $228 $-1 $347 reversed $140 $-1 #
edge $-1 $348 0 $348 6.2831853071796004 $141 $349 forward 7 unknown #
vertex $-1 $144 $350 #
ellipse-curve $-1 -22.954891757960695 35.812341353590909 4.8775457344884847 0 0.86602541151947299 0.49999998660252726 2.5 0 0 1 I I #
face $-1 $-1 $244 $30 $-1 $351 forward single #
loop $-1 $-1 $352 $145 #
plane-surface $-1 0 -38.486627680384586 0 0 1 0 0 0 1 forward_v I I I I #
coedge $-1 $353 $354 $355 $356 reversed $146 $-1 #
coedge $-1 $357 $148 $150 $242 forward $91 $-1 #
coedge $-1 $148 $357 $353 $358 forward $91 $-1 #
coedge $-1 $355 $151 $148 $239 forward $244 $-1 #
edge $-1 $246 -19.649107863326261 $359 -7.9166943405912455 $238 $360 forward 7 unknown #
coedge $-1 $361 $362 $149 $241 forward $233 $-1 #
edge $-1 $363 -37.515581912138742 $245 -31.134956922356011 $240 $364 forward 7 unknown #
edge $-1 $246 -8.3293142820562078 $363 0 $150 $365 forward 7 unknown #
coedge $-1 $151 $355 $361 $366 forward $244 $-1 #
loop $-1 $-1 $355 $232 #
vertex $-1 $241 $367 #
vertex $-1 $152 $368 #
straight-curve $-1 33.432008965285014 -65.817095825488991 9.5095456919674604 0 1 0 I I #
coedge $-1 $248 $248 $-1 $369 reversed $155 $-1 #
edge $-1 $370 0 $370 6.2831853071796004 $156 $371 forward 7 unknown #
vertex $-1 $159 $372 #
ellipse-curve $-1 27.565802203917507 -35.809637712667779 6.3192331970760955 0 -0.7660444514056185 0.64278759981090561 1.5 0 0 1 I I #
face $-1 $-1 $175 $24 $-1 $373 reversed single #
loop $-1 $-1 $268 $160 #
plane-surface $-1 0 38.486627680384586 0 0 -1 0 0 0 -1 forward_v I I I I #
coedge $-1 $374 $266 $269 $375 forward $161 $-1 #
coedge $-1 $272 $163 $164 $260 reversed $100 $-1 #
coedge $-1 $266 $374 $163 $258 reversed $161 $-1 #
edge $-1 $273 -9.5095456919674586 $376 9.5095456919674586 $257 $377 forward 7 unknown #
coedge $-1 $165 $164 $374 $378 forward $65 $-1 #
edge $-1 $264 -60.797753837702565 $376 60.797753837702565 $256 $379 forward 7 unknown #
coedge $-1 $269 $268 $165 $262 reversed $253 $-1 #
edge $-1 $380 -60.797753837702565 $263 60.797753837702565 $261 $381 forward 7 unknown #
vertex $-1 $167 $382 #
vertex $-1 $275 $383 #
straight-curve $-1 60.797753837702565 0 -9.5095456919674586 0 -1 0 I I #
coedge $-1 $255 $257 $168 $267 reversed $161 $-1 #
edge $-1 $270 -38.486627680384586 $273 38.486627680384586 $266 $384 forward 7 unknown #
coedge $-1 $261 $169 $174 $276 forward $253 $-1 #
coedge $-1 $169 $261 $255 $375 reversed $253 $-1 #
vertex $-1 $170 $385 #
straight-curve $-1 0 38.486627680384586 9.5095456919674586 -1 0 0 I I #
coedge $-1 $171 $256 $173 $275 reversed $100 $-1 #
vertex $-1 $267 $386 #
straight-curve $-1 0 -38.486627680384586 9.5095456919674586 1 0 0 I I #
edge $-1 $176 -9.5095456919674586 $264 9.5095456919674586 $173 $387 forward 7 unknown #
edge $-1 $177 -9.5095456919674586 $263 9.5095456919674586 $174 $388 forward 7 unknown #
point $-1 60.797753837702565 -38.486627680384586 9.5095456919674586 #
point $-1 60.797753837702565 38.486627680384586 9.5095456919674586 #
face $-1 $-1 $293 $25 $-1 $389 reversed single #
loop $-1 $-1 $289 $179 #
plane-surface $-1 0 0 -9.5095456919674586 0 0 1 1 0 0 forward_v I I I I #
coedge $-1 $390 $391 $283 $392 forward $180 $-1 #
coedge $-1 $183 $182 $282 $392 reversed $69 $-1 #
coedge $-1 $289 $393 $182 $285 forward $280 $-1 #
edge $-1 $394 -67.620527102926772 $287 -60.797753837702565 $182 $395 forward 7 unknown #
edge $-1 $190 -3.4113866326120998 $396 3.411386632612107 $183 $397 forward 7 unknown #
vertex $-1 $184 $398 #
straight-curve $-1 -60.797753837702565 38.486627680384586 0 0 0 -1 I I #
coedge $-1 $399 $284 $185 $290 forward $280 $-1 #
edge $-1 $287 -38.486627680384586 $294 38.486627680384586 $289 $400 forward 7 unknown #
coedge $-1 $401 $186 $189 $297 reversed $293 $-1 #
coedge $-1 $186 $401 $399 $402 reversed $293 $-1 #
loop $-1 $-1 $186 $279 #
vertex $-1 $402 $403 #
straight-curve $-1 -60.797753837702565 -38.486627680384586 0 0 0 1 I I #
coedge $-1 $189 $188 $391 $404 forward $108 $-1 #
edge $-1 $405 -3.411386632612107 $191 3.4113866326120998 $291 $406 forward 7 unknown #
point $-1 -60.797753837702565 38.486627680384586 -5.2802110147299395 #
point $-1 -60.797753837702565 -38.486627680384586 -5.2802110147299395 #
face $-1 $-1 $407 $26 $-1 $408 reversed single #
loop $-1 $-1 $409 $193 #
plane-surface $-1 0 0 -9.5095456919674586 0 0 1 1 0 0 forward_v I I I I #
coedge $-1 $310 $320 $305 $410 forward $194 $-1 #
coedge $-1 $199 $196 $409 $411 reversed $116 $-1 #
coedge $-1 $196 $199 $303 $410 reversed $116 $-1 #
coedge $-1 $412 $413 $196 $307 forward $407 $-1 #
edge $-1 $414 -9.5095456919674586 $415 9.5095456919674586 $306 $416 forward 7 unknown #
coedge $-1 $409 $202 $197 $309 forward $301 $-1 #
edge $-1 $207 -14.78552936230404 $313 -9.8729074028262076 $308 $417 forward 7 unknown #
coedge $-1 $204 $303 $198 $311 forward $194 $-1 #
edge $-1 $312 9.8729074028262076 $206 14.78552936230404 $310 $418 forward 7 unknown #
vertex $-1 $311 $419 #
vertex $-1 $309 $420 #
straight-curve $-1 52.608510486175462 -22.202125785391331 0 0 0 -1 I I #
coedge $-1 $413 $412 $201 $316 forward $407 $-1 #
edge $-1 $321 -9.5095456919674586 $318 9.5095456919674586 $315 $421 forward 7 unknown #
coedge $-1 $202 $409 $413 $422 forward $301 $-1 #
vertex $-1 $316 $423 #
straight-curve $-1 28.351566080969508 -27.114747744869163 -9.5095456919674586 -1 0 0 I I #
coedge $-1 $303 $204 $412 $424 forward $194 $-1 #
vertex $-1 $424 $425 #
straight-curve $-1 28.351566080969508 -27.114747744869163 9.5095456919674586 1 0 0 I I #
point $-1 52.608510486175462 -27.114747744869163 9.5095456919674586 #
point $-1 52.608510486175462 -27.114747744869163 -9.5095456919674586 #
loop $-1 $-1 $217 $209 #
plane-surface $-1 0 38.486627680384586 0 0 -1 0 0 0 -1 forward_v I I I I #
coedge $-1 $328 $212 $214 $332 reversed $124 $-1 #
coedge $-1 $212 $327 $426 $427 reversed $124 $-1 #
coedge $-1 $220 $215 $212 $330 forward $210 $-1 #
edge $-1 $333 -19.514345275582293 $428 -14.16577262199494 $329 $429 forward 7 unknown #
coedge $-1 $214 $213 $336 $430 reversed $77 $-1 #
edge $-1 $431 -76.973255360769187 $333 -66.27610976696505 $327 $432 forward 7 unknown #
vertex $-1 $216 $433 #
straight-curve $-1 -14.805691025211001 33.138055026797225 9.5095456919674604 1 0 0 I I #
coedge $-1 $426 $217 $220 $340 reversed $325 $-1 #
coedge $-1 $217 $426 $331 $430 forward $325 $-1 #
vertex $-1 $218 $434 #
straight-curve $-1 -45.143192732831714 38.486627680384586 63.852046567721594 0 0 1 I I #
straight-curve $-1 -45.143192732831714 1.0312470806184137e-006 66.906340926813129 0 0.49999998660252726 -0.86602541151947299 I I #
edge $-1 $428 14.079571368012289 $221 45.143192732831714 $335 $435 forward 7 unknown #
point $-1 -45.143192732831714 38.486627680384586 9.5095456919674586 #
point $-1 -45.143192732831714 33.138055026797232 9.5095456919674604 #
edge $-1 $436 1 $436 0 $224 $-1 forward 7 unknown #
vertex $-1 $225 $437 #
ellipse-curve $-1 -36.267872342883308 29.482204897720685 1.2228398782549443 0 0.86602541151947299 0.49999998660252726 2.5 0 0 1 I I #
point $-1 -33.767872342883308 35.812341353590924 4.8775457344884963 #
edge $-1 $438 1 $438 0 $228 $-1 forward 7 unknown #
vertex $-1 $229 $439 #
ellipse-curve $-1 -22.954891757960695 29.482204897720685 1.2228398782549443 0 0.86602541151947299 0.49999998660252726 2.5 0 0 1 I I #
point $-1 -20.454891757960695 35.812341353590924 4.8775457344884963 #
plane-surface $-1 0 0 9.5095456919674586 0 0 1 1 0 0 forward_v I I I I #
coedge $-1 $362 $361 $354 $440 forward $233 $-1 #
coedge $-1 $354 $235 $237 $358 reversed $146 $-1 #
coedge $-1 $235 $353 $352 $440 reversed $146 $-1 #
coedge $-1 $243 $238 $235 $356 forward $244 $-1 #
edge $-1 $359 -32.684448080538012 $441 -27.330468145104405 $355 $442 forward 7 unknown #
coedge $-1 $237 $236 $362 $443 reversed $91 $-1 #
edge $-1 $444 0 $359 8.3293142820562078 $353 $445 forward 7 unknown #
vertex $-1 $239 $446 #
straight-curve $-1 13.782901101958753 -33.13264774495098 9.5095456919674568 -1 0 0 I I #
coedge $-1 $352 $240 $243 $366 reversed $233 $-1 #
coedge $-1 $240 $352 $357 $443 forward $233 $-1 #
vertex $-1 $241 $447 #
straight-curve $-1 33.432008965285014 -38.486627680384586 40.644502614323471 0 0 1 I I #
straight-curve $-1 33.432008965285014 -38.486627680384586 3.128920702184729 0 -0.64278759981090561 -0.7660444514056185 I I #
edge $-1 $441 21.699595442549999 $245 33.432008965285014 $361 $448 forward 7 unknown #
point $-1 33.432008965285014 -38.486627680384586 9.5095456919674586 #
point $-1 33.432008965285014 -33.13264774495098 9.5095456919674568 #
edge $-1 $449 1 $449 0 $248 $-1 forward 7 unknown #
vertex $-1 $249 $450 #
ellipse-curve $-1 27.565802203917507 -33.292926746877797 4.2074620091906096 0 -0.7660444514056185 0.64278759981090561 1.5 0 0 1 I I #
point $-1 29.065802203917507 -35.809637712667787 6.3192331970761018 #
plane-surface $-1 60.797753837702565 0 0 -1 0 0 0 0 1 forward_v I I I I #
coedge $-1 $257 $255 $259 $378 reversed $161 $-1 #
edge $-1 $270 -9.5095456919674586 $380 9.5095456919674586 $269 $451 forward 7 unknown #
vertex $-1 $378 $452 #
straight-curve $-1 -60.797753837702565 -38.486627680384586 0 0 0 -1 I I #
edge $-1 $376 -38.486627680384586 $380 38.486627680384586 $374 $453 forward 7 unknown #
straight-curve $-1 0 -38.486627680384586 -9.5095456919674586 -1 0 0 I I #
vertex $-1 $262 $454 #
straight-curve $-1 0 38.486627680384586 -9.5095456919674586 1 0 0 I I #
point $-1 60.797753837702565 38.486627680384586 -9.5095456919674586 #
point $-1 60.797753837702565 -38.486627680384586 -9.5095456919674586 #
straight-curve $-1 -60.797753837702565 0 9.5095456919674586 0 -1 0 I I #
point $-1 -60.797753837702565 38.486627680384586 9.5095456919674586 #
point $-1 -60.797753837702565 -38.486627680384586 9.5095456919674586 #
straight-curve $-1 60.797753837702565 -38.486627680384586 0 0 0 -1 I I #
straight-curve $-1 60.797753837702565 38.486627680384586 0 0 0 -1 I I #
plane-surface $-1 0 -38.486627680384586 0 0 1 0 0 0 1 forward_v I I I I #
coedge $-1 $455 $282 $393 $456 reversed $180 $-1 #
coedge $-1 $282 $455 $296 $404 reversed $180 $-1 #
edge $-1 $396 -2.1146673386187596 $394 2.1146673386187596 $283 $457 forward 7 unknown #
coedge $-1 $284 $399 $390 $456 forward $280 $-1 #
vertex $-1 $285 $458 #
straight-curve $-1 0 38.486627680384586 -9.5095456919674586 1 0 0 I I #
vertex $-1 $286 $459 #
straight-curve $-1 -64.209140470314665 38.486627680384586 -5.2802110147299395 -1 0 0 I I #
point $-1 -60.797753837702565 38.486627680384586 -9.5095456919674586 #
coedge $-1 $393 $289 $292 $402 forward $280 $-1 #
straight-curve $-1 -60.797753837702565 0 -9.5095456919674586 0 -1 0 I I #
coedge $-1 $292 $291 $455 $460 forward $293 $-1 #
edge $-1 $294 -3.4113866326120998 $461 3.411386632612107 $292 $462 forward 7 unknown #
point $-1 -60.797753837702565 -38.486627680384586 -9.5095456919674586 #
edge $-1 $396 -38.486627680384586 $405 38.486627680384586 $391 $463 forward 7 unknown #
vertex $-1 $404 $464 #
straight-curve $-1 -64.209140470314665 -38.486627680384586 -5.2802110147299395 1 0 0 I I #
loop $-1 $-1 $306 $300 #
plane-surface $-1 60.797753837702565 0 0 -1 0 0 0 0 1 forward_v I I I I #
coedge $-1 $317 $308 $304 $411 forward $301 $-1 #
edge $-1 $415 -32.446187756733067 $312 -24.256944405205953 $303 $465 forward 7 unknown #
edge $-1 $313 24.256944405205953 $414 32.446187756733067 $409 $466 forward 7 unknown #
coedge $-1 $315 $306 $320 $424 reversed $407 $-1 #
coedge $-1 $306 $315 $317 $422 reversed $407 $-1 #
vertex $-1 $422 $467 #
vertex $-1 $307 $468 #
straight-curve $-1 60.797753837702565 -22.202125785391331 0 0 0 1 I I #
straight-curve $-1 52.608510486175462 -12.329218382565124 -9.5095456919674586 0 1 0 I I #
straight-curve $-1 52.608510486175462 -12.329218382565124 9.5095456919674586 0 -1 0 I I #
point $-1 52.608510486175462 -22.202125785391331 9.5095456919674586 #
point $-1 52.608510486175462 -22.202125785391331 -9.5095456919674586 #
straight-curve $-1 60.797753837702565 -27.114747744869163 0 0 0 -1 I I #
edge $-1 $414 22.202125785391331 $318 27.114747744869163 $413 $469 forward 7 unknown #
point $-1 60.797753837702572 -27.114747744869163 -9.5095456919674586 #
edge $-1 $321 -27.114747744869163 $415 -22.202125785391331 $412 $470 forward 7 unknown #
point $-1 60.797753837702572 -27.114747744869163 9.5095456919674586 #
coedge $-1 $336 $335 $328 $427 forward $325 $-1 #
edge $-1 $428 54.342500875754133 $431 63.606500790712083 $426 $471 forward 7 unknown #
vertex $-1 $340 $472 #
straight-curve $-1 -14.079571368012289 52.652400302379526 9.5095456919674604 0 1 0 I I #
edge $-1 $431 -0.72611965719871208 $337 30.337501707620714 $336 $473 forward 7 unknown #
vertex $-1 $430 $474 #
straight-curve $-1 -14.079571368012289 1.0312470806184137e-006 66.906340926813129 0 -0.49999998660252726 0.86602541151947299 I I #
point $-1 -14.079571368012289 33.138055026797232 9.5095456919674604 #
point $-1 -45.143192732831714 38.486627680384586 0.24554577700951086 #
straight-curve $-1 0 38.486627680384586 9.5095456919674586 -1 0 0 I I #
vertex $-1 $343 $475 #
point $-1 -33.767872342883308 29.482204897720685 1.2228398782549443 #
vertex $-1 $347 $476 #
point $-1 -20.454891757960695 29.482204897720685 1.2228398782549443 #
edge $-1 $441 31.134956922356011 $444 37.515581912138742 $352 $477 forward 7 unknown #
vertex $-1 $366 $478 #
straight-curve $-1 21.699595442549999 -65.817095825488991 9.5095456919674604 0 -1 0 I I #
edge $-1 $444 7.9166943405912455 $363 19.649107863326261 $362 $479 forward 7 unknown #
vertex $-1 $443 $480 #
straight-curve $-1 21.699595442549999 -38.486627680384586 3.128920702184729 0 0.64278759981090561 0.7660444514056185 I I #
point $-1 21.699595442549999 -33.13264774495098 9.5095456919674568 #
point $-1 33.432008965285014 -38.486627680384586 3.128920702184729 #
straight-curve $-1 0 -38.486627680384586 9.5095456919674586 1 0 0 I I #
vertex $-1 $369 $481 #
point $-1 29.065802203917507 -33.292926746877797 4.2074620091906096 #
straight-curve $-1 -60.797753837702565 38.486627680384586 0 0 0 -1 I I #
point $-1 -60.797753837702565 -38.486627680384586 -9.5095456919674586 #
straight-curve $-1 -60.797753837702565 0 -9.5095456919674586 0 1 0 I I #
point $-1 -60.797753837702565 38.486627680384586 -9.5095456919674586 #
coedge $-1 $391 $390 $401 $460 reversed $180 $-1 #
edge $-1 $461 -38.486627680384586 $394 38.486627680384586 $390 $482 forward 7 unknown #
straight-curve $-1 -67.620527102926772 38.486627680384586 -7.394878353348699 0 0 -1 I I #
point $-1 -67.620527102926772 38.486627680384586 -9.5095456919674586 #
point $-1 -67.620527102926772 38.486627680384586 -5.2802110147299395 #
edge $-1 $405 -2.1146673386187596 $461 2.1146673386187596 $455 $483 forward 7 unknown #
vertex $-1 $456 $484 #
straight-curve $-1 -64.209140470314665 -38.486627680384586 -9.5095456919674586 -1 0 0 I I #
straight-curve $-1 -67.620527102926772 0 -5.2802110147299395 0 -1 0 I I #
point $-1 -67.620527102926772 -38.486627680384586 -5.2802110147299395 #
straight-curve $-1 28.351566080969508 -22.202125785391331 9.5095456919674586 -1 0 0 I I #
straight-curve $-1 28.351566080969508 -22.202125785391331 -9.5095456919674586 1 0 0 I I #
point $-1 60.797753837702572 -22.202125785391331 -9.5095456919674586 #
point $-1 60.797753837702572 -22.202125785391331 9.5095456919674586 #
straight-curve $-1 60.797753837702565 0 -9.5095456919674586 0 -1 0 I I #
straight-curve $-1 60.797753837702565 0 9.5095456919674586 0 1 0 I I #
straight-curve $-1 -14.079571368012289 38.486627680384586 63.852046567721594 0 0 -1 I I #
point $-1 -14.079571368012289 38.486627680384586 9.5095456919674586 #
straight-curve $-1 -14.805691025211001 38.486627680384586 0.24554577700950375 -1 0 0 I I #
point $-1 -14.079571368012289 38.486627680384586 0.24554577700951086 #
point $-1 -36.267872342883308 27.317141368922002 -0.027160088251373948 #
point $-1 -22.954891757960695 27.317141368922002 -0.027160088251373948 #
straight-curve $-1 21.699595442549999 -38.486627680384586 40.644502614323471 0 0 -1 I I #
point $-1 21.699595442549999 -38.486627680384586 9.5095456919674586 #
straight-curve $-1 13.782901101958753 -38.486627680384586 3.128920702184729 1 0 0 I I #
point $-1 21.699595442549999 -38.486627680384586 3.128920702184729 #
point $-1 27.565802203917507 -32.143860069769374 3.2432806094742519 #
straight-curve $-1 -67.620527102926772 0 -9.5095456919674586 0 1 0 I I #
straight-curve $-1 -67.620527102926772 -38.486627680384586 -7.394878353348699 0 0 -1 I I #
point $-1 -67.620527102926772 -38.486627680384586 -9.5095456919674586 #
End-of-ACIS-data 