500 0 8 0           
7 Unknown 11 ACIS 5.0 NT 24 Fri Mar 26 15:26:01 1999 
-1 9.9999999999999995e-007 1e-010 
body $-1 $8 $-1 $9 #
body $-1 $10 $-1 $11 #
body $-1 $12 $-1 $13 #
body $-1 $14 $-1 $15 #
body $-1 $16 $-1 $17 #
body $-1 $18 $-1 $19 #
body $-1 $20 $-1 $21 #
body $-1 $22 $-1 $23 #
lump $-1 $-1 $24 $0 #
transform $-1 1 0 0 0 1 0 0 0 1 70.938444166386915 44.266870801689095 12.308451588095011 1 rotate no_reflect no_shear #
lump $-1 $-1 $25 $1 #
transform $-1 1 0 0 0 1 0 0 0 1 70.938444166386915 44.266870801689095 12.308451588095011 1 rotate no_reflect no_shear #
lump $-1 $-1 $26 $2 #
transform $-1 1 0 0 0 1 0 0 0 1 70.938444166386915 44.266870801689095 12.308451588095011 1 rotate no_reflect no_shear #
lump $-1 $-1 $27 $3 #
transform $-1 1 0 0 0 1 0 0 0 1 70.938444166386915 44.266870801689095 12.308451588095011 1 rotate no_reflect no_shear #
lump $-1 $-1 $28 $4 #
transform $-1 1 0 0 0 1 0 0 0 1 70.938444166386915 44.266870801689095 12.308451588095011 1 rotate no_reflect no_shear #
lump $-1 $-1 $29 $5 #
transform $-1 1 0 0 0 1 0 0 0 1 70.938444166386915 44.266870801689095 12.308451588095011 1 rotate no_reflect no_shear #
lump $-1 $-1 $30 $6 #
transform $-1 1 0 0 0 1 0 0 0 1 70.938444166386915 44.266870801689095 12.308451588095011 1 rotate no_reflect no_shear #
lump $-1 $-1 $31 $7 #
transform $-1 1 0 0 0 1 0 0 0 1 70.938444166386915 44.266870801689095 12.308451588095011 1 rotate no_reflect no_shear #
shell $-1 $-1 $-1 $32 $-1 $8 #
shell $-1 $-1 $-1 $33 $-1 $10 #
shell $-1 $-1 $-1 $34 $-1 $12 #
shell $-1 $-1 $-1 $35 $-1 $14 #
shell $-1 $-1 $-1 $36 $-1 $16 #
shell $-1 $-1 $-1 $37 $-1 $18 #
shell $-1 $-1 $-1 $38 $-1 $20 #
shell $-1 $-1 $-1 $39 $-1 $22 #
face $-1 $40 $41 $24 $-1 $42 forward single #
face $-1 $43 $44 $25 $-1 $45 forward single #
face $-1 $46 $47 $26 $-1 $48 reversed single #
face $-1 $49 $50 $27 $-1 $51 forward single #
face $-1 $52 $53 $28 $-1 $54 forward single #
face $-1 $55 $56 $29 $-1 $57 reversed single #
face $-1 $58 $59 $30 $-1 $60 forward single #
face $-1 $61 $62 $31 $-1 $63 forward single #
face $-1 $64 $65 $24 $-1 $66 reversed single #
loop $-1 $-1 $67 $32 #
plane-surface $-1 0 0 12.308451588095011 0 0 1 1 0 0 forward_v I I I I #
face $-1 $68 $69 $25 $-1 $70 reversed single #
loop $-1 $-1 $71 $33 #
plane-surface $-1 0 -44.266870801689095 0 0 1 0 0 0 1 forward_v I I I I #
face $-1 $72 $73 $26 $-1 $74 reversed single #
loop $-1 $-1 $75 $34 #
plane-surface $-1 102.32611809267542 5.6458665584877821 198.23730579155233 0 -1 0 -0.80901700255871778 0 -0.5877852410284794 forward_v I I I I #
face $-1 $76 $77 $27 $-1 $78 forward single #
loop $-1 $79 $80 $35 #
cone-surface $-1 64.85850017597636 -4.8615377725627411 5.0004372508816646 -0.80901700255871778 0 -0.5877852410284794 0.8816778615427191 0 -1.2135255038380768 1 I I 0 1 1.5 forward I I I I #
face $-1 $81 $82 $28 $-1 $83 forward single #
loop $-1 $84 $85 $36 #
cone-surface $-1 64.85850017597636 1.4429048260675685 5.0004372508816646 -0.80901700255871778 0 -0.5877852410284794 0.8816778615427191 0 -1.2135255038380768 1 I I 0 1 1.5 forward I I I I #
face $-1 $86 $87 $29 $-1 $88 reversed single #
loop $-1 $-1 $89 $37 #
plane-surface $-1 -185.71925909772554 -9.0644995049829475 83.456490860213719 0 1 0 -0.80901700255871778 0 0.5877852410284794 forward_v I I I I #
face $-1 $90 $91 $30 $-1 $92 forward single #
loop $-1 $93 $94 $38 #
cone-surface $-1 -64.85850017597636 -4.8615377725627411 5.0004372508816664 0.80901700255871778 0 -0.5877852410284794 0.8816778615427191 0 1.2135255038380768 1 I I 0 1 1.5 forward I I I I #
face $-1 $95 $96 $31 $-1 $97 forward single #
loop $-1 $98 $99 $39 #
cone-surface $-1 -64.85850017597636 1.4429048260675685 5.0004372508816664 0.80901700255871778 0 -0.5877852410284794 0.8816778615427191 0 1.2135255038380768 1 I I 0 1 1.5 forward I I I I #
face $-1 $100 $101 $24 $-1 $102 reversed single #
loop $-1 $-1 $103 $40 #
plane-surface $-1 0 0 -12.308451588095011 0 0 1 1 0 0 forward_v I I I I #
coedge $-1 $104 $105 $106 $107 forward $41 $-1 #
face $-1 $108 $109 $25 $-1 $110 reversed single #
loop $-1 $-1 $111 $43 #
plane-surface $-1 0 0 -12.308451588095011 0 0 1 1 0 0 forward_v I I I I #
coedge $-1 $112 $113 $114 $115 forward $44 $-1 #
face $-1 $116 $117 $26 $-1 $118 reversed single #
loop $-1 $-1 $119 $46 #
plane-surface $-1 -12.454696838663182 -1.7093164732475827 114.8441647865022 0.80901700255871778 0 0.5877852410284794 0.5877852410284794 0 -0.80901700255871778 forward_v I I I I #
coedge $-1 $120 $121 $122 $123 reversed $47 $-1 #
face $-1 $-1 $124 $27 $-1 $125 forward single #
loop $-1 $126 $127 $49 #
cone-surface $-1 62.62008688776794 -4.8615377725627411 3.3741348493626759 -0.80901700255871778 0 -0.5877852410284794 0.44083893077135955 0 -0.60676275191903839 1 I I -0.70710678118654768 0.70710678118654735 0.75 forward I I I I #
loop $-1 $-1 $128 $35 #
coedge $-1 $80 $80 $129 $130 reversed $50 $-1 #
face $-1 $-1 $131 $28 $-1 $132 forward single #
loop $-1 $133 $134 $52 #
cone-surface $-1 62.62008688776794 1.4429048260675685 3.3741348493626759 -0.80901700255871778 0 -0.5877852410284794 0.44083893077135955 0 -0.60676275191903839 1 I I -0.70710678118654768 0.70710678118654735 0.75 forward I I I I #
loop $-1 $-1 $135 $36 #
coedge $-1 $85 $85 $136 $137 reversed $53 $-1 #
face $-1 $138 $139 $29 $-1 $140 reversed single #
loop $-1 $-1 $141 $55 #
plane-surface $-1 -70.938444166386944 -1.7093164732475827 0.063349855163593816 -0.80901700255871778 0 0.5877852410284794 0.5877852410284794 0 0.80901700255871778 forward_v I I I I #
coedge $-1 $142 $143 $144 $145 reversed $56 $-1 #
face $-1 $-1 $146 $30 $-1 $147 forward single #
loop $-1 $148 $149 $58 #
cone-surface $-1 -62.620086887767947 -4.8615377725627411 3.3741348493626777 0.80901700255871778 0 -0.5877852410284794 0.44083893077135955 0 0.60676275191903839 1 I I -0.70710678118654768 0.70710678118654735 0.75 forward I I I I #
loop $-1 $-1 $150 $38 #
coedge $-1 $94 $94 $151 $152 reversed $59 $-1 #
face $-1 $-1 $153 $31 $-1 $154 forward single #
loop $-1 $155 $156 $61 #
cone-surface $-1 -62.620086887767947 1.4429048260675685 3.3741348493626777 0.80901700255871778 0 -0.5877852410284794 0.44083893077135955 0 0.60676275191903839 1 I I -0.70710678118654768 0.70710678118654735 0.75 forward I I I I #
loop $-1 $-1 $157 $39 #
coedge $-1 $99 $99 $158 $159 reversed $62 $-1 #
face $-1 $160 $161 $24 $-1 $162 reversed single #
loop $-1 $-1 $163 $64 #
plane-surface $-1 0 -44.266870801689095 0 0 1 0 0 0 1 forward_v I I I I #
coedge $-1 $164 $165 $166 $167 forward $65 $-1 #
coedge $-1 $168 $67 $169 $170 forward $41 $-1 #
coedge $-1 $67 $168 $171 $172 forward $41 $-1 #
coedge $-1 $173 $174 $67 $107 reversed $175 $-1 #
edge $-1 $176 -44.266870801689095 $177 44.266870801689095 $106 $178 forward 7 unknown #
face $-1 $179 $180 $25 $-1 $181 reversed single #
loop $-1 $-1 $182 $68 #
plane-surface $-1 -48.187135179847274 -59.292527552804088 0 0 1 0 0 0 1 forward_v I I I I #
coedge $-1 $183 $184 $113 $185 forward $69 $-1 #
coedge $-1 $186 $71 $187 $188 reversed $44 $-1 #
coedge $-1 $71 $186 $111 $185 reversed $44 $-1 #
coedge $-1 $189 $190 $71 $115 reversed $180 $-1 #
edge $-1 $191 -12.308451588095011 $192 12.308451588095011 $114 $193 forward 7 unknown #
face $-1 $194 $195 $26 $-1 $196 forward single #
loop $-1 $-1 $197 $72 #
plane-surface $-1 102.32611809267542 -9.0644995049829475 198.23730579155233 0 1 0 0.80901700255871778 0 0.5877852410284794 forward_v I I I I #
coedge $-1 $198 $199 $200 $201 reversed $73 $-1 #
coedge $-1 $121 $75 $202 $203 reversed $47 $-1 #
coedge $-1 $75 $120 $198 $204 reversed $47 $-1 #
coedge $-1 $200 $205 $75 $123 forward $195 $-1 #
edge $-1 $206 -19.775385120049208 $207 -10.87879821180691 $122 $208 forward 7 unknown #
loop $-1 $-1 $129 $76 #
plane-surface $-1 -12.454696838663182 -1.7093164732475827 114.8441647865022 0.80901700255871778 0 0.5877852410284794 0.5877852410284794 0 -0.80901700255871778 forward_v I I I I #
loop $-1 $-1 $209 $49 #
coedge $-1 $127 $127 $128 $210 reversed $77 $-1 #
coedge $-1 $128 $128 $127 $210 forward $79 $-1 #
coedge $-1 $129 $129 $80 $130 forward $124 $-1 #
edge $-1 $211 0 $211 6.2831853071796004 $129 $212 forward 7 unknown #
loop $-1 $-1 $136 $81 #
plane-surface $-1 -12.454696838663182 -1.7093164732475827 114.8441647865022 0.80901700255871778 0 0.5877852410284794 0.5877852410284794 0 -0.80901700255871778 forward_v I I I I #
loop $-1 $-1 $213 $52 #
coedge $-1 $134 $134 $135 $214 reversed $82 $-1 #
coedge $-1 $135 $135 $134 $214 forward $84 $-1 #
coedge $-1 $136 $136 $85 $137 forward $131 $-1 #
edge $-1 $215 0 $215 6.2831853071796004 $136 $216 forward 7 unknown #
face $-1 $217 $218 $29 $-1 $219 reversed single #
loop $-1 $-1 $220 $86 #
plane-surface $-1 -185.71925909772554 5.6458665584877821 83.456490860213719 0 -1 0 0.80901700255871778 0 -0.5877852410284794 forward_v I I I I #
coedge $-1 $221 $222 $223 $224 reversed $87 $-1 #
coedge $-1 $143 $89 $225 $226 reversed $56 $-1 #
coedge $-1 $89 $142 $221 $227 reversed $56 $-1 #
coedge $-1 $223 $228 $89 $145 forward $229 $-1 #
edge $-1 $230 21.921185382475855 $231 30.81777229071816 $144 $232 forward 7 unknown #
loop $-1 $-1 $151 $90 #
plane-surface $-1 -70.938444166386944 -1.7093164732475827 0.063349855163593816 -0.80901700255871778 0 0.5877852410284794 0.5877852410284794 0 0.80901700255871778 forward_v I I I I #
loop $-1 $-1 $233 $58 #
coedge $-1 $149 $149 $150 $234 reversed $91 $-1 #
coedge $-1 $150 $150 $149 $234 forward $93 $-1 #
coedge $-1 $151 $151 $94 $152 forward $146 $-1 #
edge $-1 $235 0 $235 6.2831853071796004 $151 $236 forward 7 unknown #
loop $-1 $-1 $158 $95 #
plane-surface $-1 -70.938444166386944 -1.7093164732475827 0.063349855163593816 -0.80901700255871778 0 0.5877852410284794 0.5877852410284794 0 0.80901700255871778 forward_v I I I I #
loop $-1 $-1 $237 $61 #
coedge $-1 $156 $156 $157 $238 reversed $96 $-1 #
coedge $-1 $157 $157 $156 $238 forward $98 $-1 #
coedge $-1 $158 $158 $99 $159 forward $153 $-1 #
edge $-1 $239 0 $239 6.2831853071796004 $158 $240 forward 7 unknown #
face $-1 $241 $242 $24 $-1 $243 reversed single #
loop $-1 $-1 $244 $100 #
plane-surface $-1 -70.938444166386915 0 0 1 0 0 0 0 -1 forward_v I I I I #
coedge $-1 $245 $171 $246 $247 forward $101 $-1 #
coedge $-1 $248 $103 $245 $249 forward $65 $-1 #
coedge $-1 $103 $248 $250 $251 forward $65 $-1 #
coedge $-1 $174 $173 $103 $167 reversed $175 $-1 #
edge $-1 $252 -44.266870801689095 $253 44.266870801689095 $166 $254 forward 7 unknown #
coedge $-1 $105 $104 $255 $256 forward $41 $-1 #
coedge $-1 $257 $258 $104 $170 reversed $242 $-1 #
edge $-1 $177 -70.938444166386915 $259 70.938444166386915 $169 $260 forward 7 unknown #
coedge $-1 $163 $261 $105 $172 reversed $101 $-1 #
edge $-1 $262 -70.938444166386915 $176 70.938444166386915 $171 $263 forward 7 unknown #
coedge $-1 $166 $106 $261 $264 forward $175 $-1 #
coedge $-1 $106 $166 $257 $265 reversed $175 $-1 #
loop $-1 $-1 $173 $241 #
vertex $-1 $107 $266 #
vertex $-1 $107 $267 #
straight-curve $-1 70.938444166386915 0 12.308451588095011 0 1 0 I I #
face $-1 $268 $269 $25 $-1 $270 reversed single #
loop $-1 $-1 $114 $108 #
plane-surface $-1 -50.052729369497655 -51.779699177246592 0 1 0 0 0 0 -1 forward_v I I I I #
coedge $-1 $271 $272 $273 $274 forward $109 $-1 #
coedge $-1 $275 $111 $276 $277 forward $69 $-1 #
coedge $-1 $111 $275 $189 $278 forward $69 $-1 #
edge $-1 $191 -50.052729369497655 $279 -46.321540990196894 $111 $280 forward 7 unknown #
coedge $-1 $113 $112 $281 $282 forward $44 $-1 #
coedge $-1 $283 $284 $112 $188 forward $285 $-1 #
edge $-1 $286 46.321540990196894 $192 50.052729369497655 $187 $287 forward 7 unknown #
coedge $-1 $273 $114 $184 $278 reversed $180 $-1 #
coedge $-1 $114 $273 $283 $288 reversed $180 $-1 #
vertex $-1 $185 $289 #
vertex $-1 $288 $290 #
straight-curve $-1 -50.052729369497655 -44.266870801689095 0 0 0 1 I I #
face $-1 $-1 $291 $26 $-1 $292 reversed single #
loop $-1 $-1 $122 $116 #
plane-surface $-1 0 0 12.308451588095011 0 0 1 1 0 0 forward_v I I I I #
coedge $-1 $293 $294 $295 $296 reversed $117 $-1 #
coedge $-1 $297 $119 $121 $204 forward $73 $-1 #
coedge $-1 $119 $297 $293 $298 forward $73 $-1 #
coedge $-1 $295 $122 $119 $201 forward $195 $-1 #
edge $-1 $207 -6.5005247951115734 $299 8.2098412683591562 $200 $300 forward 7 unknown #
coedge $-1 $301 $302 $120 $203 forward $291 $-1 #
edge $-1 $303 -99.055303040612515 $206 -86.810201307681155 $202 $304 forward 7 unknown #
edge $-1 $207 126.74111035257908 $303 141.87688833277377 $121 $305 forward 7 unknown #
coedge $-1 $122 $295 $301 $306 forward $195 $-1 #
vertex $-1 $123 $307 #
vertex $-1 $123 $308 #
straight-curve $-1 51.163059046337708 5.6458665584877821 12.308451588095011 -1 0 0 I I #
coedge $-1 $209 $209 $-1 $309 reversed $126 $-1 #
edge $-1 $310 0 $310 6.2831853071796004 $127 $311 forward 7 unknown #
vertex $-1 $130 $312 #
ellipse-curve $-1 66.490150712265773 -4.8615377725627411 6.1859007216293147 0.80901700255871778 0 0.5877852410284794 0.8816778615427191 0 -1.2135255038380768 1 I I #
coedge $-1 $213 $213 $-1 $313 reversed $133 $-1 #
edge $-1 $314 0 $314 6.2831853071796004 $134 $315 forward 7 unknown #
vertex $-1 $137 $316 #
ellipse-curve $-1 66.490150712265773 1.4429048260675685 6.1859007216293147 0.80901700255871778 0 0.5877852410284794 0.8816778615427191 0 -1.2135255038380768 1 I I #
face $-1 $-1 $229 $29 $-1 $317 forward single #
loop $-1 $-1 $318 $138 #
plane-surface $-1 -70.938444166386915 0 0 1 0 0 0 0 -1 forward_v I I I I #
coedge $-1 $319 $320 $321 $322 reversed $139 $-1 #
coedge $-1 $323 $141 $143 $227 forward $87 $-1 #
coedge $-1 $141 $323 $319 $324 forward $87 $-1 #
coedge $-1 $321 $144 $141 $224 forward $229 $-1 #
edge $-1 $231 -8.2098412683591562 $325 6.5005247951115734 $223 $326 forward 7 unknown #
coedge $-1 $327 $328 $142 $226 forward $218 $-1 #
edge $-1 $329 -41.664895574943223 $230 -29.419793842011849 $225 $330 forward 7 unknown #
edge $-1 $231 -15.135777980194771 $329 -4.8355806911972601e-014 $143 $331 forward 7 unknown #
coedge $-1 $144 $321 $327 $332 forward $229 $-1 #
loop $-1 $-1 $321 $217 #
vertex $-1 $226 $333 #
vertex $-1 $145 $334 #
straight-curve $-1 -92.85962954886277 -9.0644995049829475 12.308451588095011 1 0 0 I I #
coedge $-1 $233 $233 $-1 $335 reversed $148 $-1 #
edge $-1 $336 0 $336 6.2831853071796004 $149 $337 forward 7 unknown #
vertex $-1 $152 $338 #
ellipse-curve $-1 -66.490150712265773 -4.8615377725627411 6.1859007216293147 -0.80901700255871778 0 0.5877852410284794 0.8816778615427191 0 1.2135255038380768 1 I I #
coedge $-1 $237 $237 $-1 $339 reversed $155 $-1 #
edge $-1 $340 0 $340 6.2831853071796004 $156 $341 forward 7 unknown #
vertex $-1 $159 $342 #
ellipse-curve $-1 -66.490150712265773 1.4429048260675685 6.1859007216293147 -0.80901700255871778 0 0.5877852410284794 0.8816778615427191 0 1.2135255038380768 1 I I #
face $-1 $-1 $175 $24 $-1 $343 reversed single #
loop $-1 $-1 $257 $160 #
plane-surface $-1 0 44.266870801689095 0 0 -1 0 0 0 -1 forward_v I I I I #
coedge $-1 $344 $255 $258 $345 forward $161 $-1 #
coedge $-1 $261 $163 $164 $249 reversed $101 $-1 #
coedge $-1 $255 $344 $163 $247 reversed $161 $-1 #
edge $-1 $262 -12.308451588095011 $346 12.308451588095011 $246 $347 forward 7 unknown #
coedge $-1 $165 $164 $344 $348 forward $65 $-1 #
edge $-1 $253 -70.938444166386915 $346 70.938444166386915 $245 $349 forward 7 unknown #
coedge $-1 $258 $257 $165 $251 reversed $242 $-1 #
edge $-1 $350 -70.938444166386915 $252 70.938444166386915 $250 $351 forward 7 unknown #
vertex $-1 $167 $352 #
vertex $-1 $264 $353 #
straight-curve $-1 70.938444166386915 0 -12.308451588095011 0 -1 0 I I #
coedge $-1 $244 $246 $168 $256 reversed $161 $-1 #
edge $-1 $259 -44.266870801689095 $262 44.266870801689095 $255 $354 forward 7 unknown #
coedge $-1 $250 $169 $174 $265 forward $242 $-1 #
coedge $-1 $169 $250 $244 $345 reversed $242 $-1 #
vertex $-1 $170 $355 #
straight-curve $-1 0 44.266870801689095 12.308451588095011 -1 0 0 I I #
coedge $-1 $171 $245 $173 $264 reversed $101 $-1 #
vertex $-1 $256 $356 #
straight-curve $-1 0 -44.266870801689095 12.308451588095011 1 0 0 I I #
edge $-1 $176 -12.308451588095011 $253 12.308451588095011 $173 $357 forward 7 unknown #
edge $-1 $177 -12.308451588095011 $252 12.308451588095011 $174 $358 forward 7 unknown #
point $-1 70.938444166386915 -44.266870801689095 12.308451588095011 #
point $-1 70.938444166386915 44.266870801689095 12.308451588095011 #
face $-1 $-1 $285 $25 $-1 $359 forward single #
loop $-1 $-1 $360 $179 #
plane-surface $-1 -46.321540990196894 -51.779699177246592 0 -1 0 0 0 0 1 forward_v I I I I #
coedge $-1 $361 $182 $275 $362 reversed $109 $-1 #
coedge $-1 $182 $361 $363 $364 reversed $109 $-1 #
coedge $-1 $190 $189 $182 $274 reversed $180 $-1 #
edge $-1 $365 -12.308451588095011 $366 12.308451588095011 $273 $367 forward 7 unknown #
coedge $-1 $184 $183 $271 $362 forward $69 $-1 #
coedge $-1 $281 $360 $183 $277 reversed $269 $-1 #
edge $-1 $279 -7.5128283755574969 $368 7.5128283755574969 $276 $369 forward 7 unknown #
edge $-1 $366 -7.5128283755574969 $191 7.5128283755574969 $189 $370 forward 7 unknown #
vertex $-1 $277 $371 #
straight-curve $-1 0 -44.266870801689095 -12.308451588095011 1 0 0 I I #
coedge $-1 $372 $276 $186 $282 reversed $269 $-1 #
edge $-1 $286 -12.308451588095011 $279 12.308451588095011 $281 $373 forward 7 unknown #
coedge $-1 $363 $187 $190 $288 forward $285 $-1 #
coedge $-1 $187 $363 $372 $374 forward $285 $-1 #
loop $-1 $-1 $187 $268 #
vertex $-1 $188 $375 #
straight-curve $-1 0 -44.266870801689095 12.308451588095011 -1 0 0 I I #
edge $-1 $192 -7.5128283755574969 $365 7.5128283755574969 $190 $376 forward 7 unknown #
point $-1 -50.052729369497655 -44.266870801689095 -12.308451588095011 #
point $-1 -50.052729369497655 -44.266870801689095 12.308451588095011 #
loop $-1 $-1 $202 $194 #
plane-surface $-1 70.938444166386915 0 0 -1 0 0 0 0 1 forward_v I I I I #
coedge $-1 $294 $197 $199 $298 reversed $117 $-1 #
coedge $-1 $197 $293 $377 $378 reversed $117 $-1 #
coedge $-1 $205 $200 $197 $296 forward $195 $-1 #
edge $-1 $299 10.87879821180691 $379 19.775385120049208 $295 $380 forward 7 unknown #
coedge $-1 $199 $198 $302 $381 reversed $73 $-1 #
edge $-1 $382 -141.87688833277377 $299 -126.74111035257908 $293 $383 forward 7 unknown #
vertex $-1 $201 $384 #
straight-curve $-1 62.041857258144617 -0.85465823662379137 12.308451588095011 0 -1 0 I I #
coedge $-1 $377 $202 $205 $306 reversed $291 $-1 #
coedge $-1 $202 $377 $297 $381 forward $291 $-1 #
vertex $-1 $203 $385 #
straight-curve $-1 70.938444166386915 5.6458665584877821 99.118652895776165 0 0 1 I I #
straight-curve $-1 -12.454696838663182 5.6458665584877821 114.8441647865022 0.5877852410284794 0 -0.80901700255871778 I I #
edge $-1 $379 -9.0644995049829475 $206 5.6458665584877821 $301 $386 forward 7 unknown #
point $-1 70.938444166386915 5.6458665584877821 12.308451588095011 #
point $-1 62.041857258144617 5.6458665584877821 12.308451588095011 #
edge $-1 $387 1 $387 0 $209 $-1 forward 7 unknown #
vertex $-1 $210 $388 #
ellipse-curve $-1 63.226849639686975 -4.8615377725627411 3.8149737801340353 0.80901700255871778 0 0.5877852410284794 0.8816778615427191 0 -1.2135255038380768 1 I I #
point $-1 67.371828573808457 -4.8615377725627411 4.9723752177912175 #
edge $-1 $389 1 $389 0 $213 $-1 forward 7 unknown #
vertex $-1 $214 $390 #
ellipse-curve $-1 63.226849639686975 1.4429048260675685 3.8149737801340353 0.80901700255871778 0 0.5877852410284794 0.8816778615427191 0 -1.2135255038380768 1 I I #
point $-1 67.371828573808457 1.4429048260675685 4.9723752177912175 #
plane-surface $-1 0 0 12.308451588095011 0 0 1 1 0 0 forward_v I I I I #
coedge $-1 $328 $327 $320 $391 forward $218 $-1 #
coedge $-1 $320 $220 $222 $324 reversed $139 $-1 #
coedge $-1 $220 $319 $318 $391 reversed $139 $-1 #
coedge $-1 $228 $223 $220 $322 forward $229 $-1 #
edge $-1 $325 -30.81777229071816 $392 -21.921185382475855 $321 $393 forward 7 unknown #
coedge $-1 $222 $221 $328 $394 reversed $87 $-1 #
edge $-1 $395 4.8355806911972601e-014 $325 15.135777980194771 $319 $396 forward 7 unknown #
vertex $-1 $224 $397 #
straight-curve $-1 -62.04185725814461 -0.85465823662379137 12.308451588095011 0 1 0 I I #
coedge $-1 $318 $225 $228 $332 reversed $218 $-1 #
coedge $-1 $225 $318 $323 $394 forward $218 $-1 #
vertex $-1 $226 $398 #
straight-curve $-1 -70.938444166386915 -9.0644995049829475 41.72824543010686 0 0 1 I I #
straight-curve $-1 -70.938444166386944 -9.0644995049829475 0.063349855163593816 -0.5877852410284794 0 -0.80901700255871778 I I #
edge $-1 $392 -5.6458665584877821 $230 9.0644995049829475 $327 $399 forward 7 unknown #
point $-1 -70.938444166386915 -9.0644995049829475 12.308451588095011 #
point $-1 -62.04185725814461 -9.0644995049829475 12.308451588095011 #
edge $-1 $400 1 $400 0 $233 $-1 forward 7 unknown #
vertex $-1 $234 $401 #
ellipse-curve $-1 -63.226849639686982 -4.8615377725627411 3.8149737801340371 -0.80901700255871778 0 0.5877852410284794 0.8816778615427191 0 1.2135255038380768 1 I I #
point $-1 -65.608472850723032 -4.8615377725627411 7.3994262254673728 #
edge $-1 $402 1 $402 0 $237 $-1 forward 7 unknown #
vertex $-1 $238 $403 #
ellipse-curve $-1 -63.226849639686982 1.4429048260675685 3.8149737801340371 -0.80901700255871778 0 0.5877852410284794 0.8816778615427191 0 1.2135255038380768 1 I I #
point $-1 -65.608472850723032 1.4429048260675685 7.3994262254673728 #
plane-surface $-1 70.938444166386915 0 0 -1 0 0 0 0 1 forward_v I I I I #
coedge $-1 $246 $244 $248 $348 reversed $161 $-1 #
edge $-1 $259 -12.308451588095011 $350 12.308451588095011 $258 $404 forward 7 unknown #
vertex $-1 $348 $405 #
straight-curve $-1 -70.938444166386915 -44.266870801689095 0 0 0 -1 I I #
edge $-1 $346 -44.266870801689095 $350 44.266870801689095 $344 $406 forward 7 unknown #
straight-curve $-1 0 -44.266870801689095 -12.308451588095011 -1 0 0 I I #
vertex $-1 $251 $407 #
straight-curve $-1 0 44.266870801689095 -12.308451588095011 1 0 0 I I #
point $-1 70.938444166386915 44.266870801689095 -12.308451588095011 #
point $-1 70.938444166386915 -44.266870801689095 -12.308451588095011 #
straight-curve $-1 -70.938444166386915 0 12.308451588095011 0 -1 0 I I #
point $-1 -70.938444166386915 44.266870801689095 12.308451588095011 #
point $-1 -70.938444166386915 -44.266870801689095 12.308451588095011 #
straight-curve $-1 70.938444166386915 -44.266870801689095 0 0 0 -1 I I #
straight-curve $-1 70.938444166386915 44.266870801689095 0 0 0 -1 I I #
plane-surface $-1 0 0 12.308451588095011 0 0 1 1 0 0 forward_v I I I I #
coedge $-1 $276 $372 $361 $408 forward $269 $-1 #
coedge $-1 $272 $271 $360 $408 reversed $109 $-1 #
edge $-1 $368 -1.8655941896503805 $366 1.8655941896503805 $271 $409 forward 7 unknown #
coedge $-1 $284 $283 $272 $364 forward $285 $-1 #
edge $-1 $365 -1.8655941896503805 $410 1.8655941896503805 $272 $411 forward 7 unknown #
vertex $-1 $288 $412 #
vertex $-1 $278 $413 #
straight-curve $-1 -50.052729369497655 -59.292527552804088 0 0 0 -1 I I #
vertex $-1 $408 $414 #
straight-curve $-1 -46.321540990196894 -51.779699177246592 -12.308451588095011 0 -1 0 I I #
straight-curve $-1 -50.052729369497655 -51.779699177246592 -12.308451588095011 0 1 0 I I #
point $-1 -46.321540990196894 -44.266870801689095 -12.308451588095011 #
coedge $-1 $360 $281 $284 $374 reversed $269 $-1 #
straight-curve $-1 -46.321540990196894 -44.266870801689095 0 0 0 -1 I I #
edge $-1 $410 -7.5128283755574969 $286 7.5128283755574969 $372 $415 forward 7 unknown #
point $-1 -46.321540990196894 -44.266870801689095 12.308451588095011 #
straight-curve $-1 -50.052729369497655 -51.779699177246592 12.308451588095011 0 -1 0 I I #
coedge $-1 $302 $301 $294 $378 forward $291 $-1 #
edge $-1 $379 86.810201307681155 $382 99.055303040612515 $377 $416 forward 7 unknown #
vertex $-1 $306 $417 #
straight-curve $-1 51.163059046337708 -9.0644995049829475 12.308451588095011 1 0 0 I I #
edge $-1 $382 -8.2098412683591562 $303 6.5005247951115734 $302 $418 forward 7 unknown #
vertex $-1 $381 $419 #
straight-curve $-1 -12.454696838663182 -9.0644995049829475 114.8441647865022 -0.5877852410284794 0 0.80901700255871778 I I #
point $-1 62.041857258144617 -9.0644995049829475 12.308451588095011 #
point $-1 70.938444166386901 5.6458665584877821 0.063349855163650659 #
straight-curve $-1 70.938444166386915 0 12.308451588095011 0 1 0 I I #
vertex $-1 $309 $420 #
point $-1 64.108527501229702 -4.8615377725627411 2.6014482762959585 #
vertex $-1 $313 $421 #
point $-1 64.108527501229702 1.4429048260675685 2.6014482762959585 #
edge $-1 $392 29.419793842011849 $395 41.664895574943223 $318 $422 forward 7 unknown #
vertex $-1 $332 $423 #
straight-curve $-1 -92.85962954886277 5.6458665584877821 12.308451588095011 -1 0 0 I I #
edge $-1 $395 -6.5005247951115734 $329 8.2098412683591562 $328 $424 forward 7 unknown #
vertex $-1 $394 $425 #
straight-curve $-1 -70.938444166386944 5.6458665584877821 0.063349855163593816 0.5877852410284794 0 0.80901700255871778 I I #
point $-1 -62.04185725814461 5.6458665584877821 12.308451588095011 #
point $-1 -70.938444166386915 -9.0644995049829475 0.063349855163632937 #
straight-curve $-1 -70.938444166386915 0 12.308451588095011 0 -1 0 I I #
vertex $-1 $335 $426 #
point $-1 -62.345171778144262 -4.8615377725627411 5.0284992839721134 #
vertex $-1 $339 $427 #
point $-1 -62.345171778144262 1.4429048260675685 5.0284992839721134 #
straight-curve $-1 -70.938444166386915 44.266870801689095 0 0 0 -1 I I #
point $-1 -70.938444166386915 -44.266870801689095 -12.308451588095011 #
straight-curve $-1 -70.938444166386915 0 -12.308451588095011 0 1 0 I I #
point $-1 -70.938444166386915 44.266870801689095 -12.308451588095011 #
edge $-1 $410 -12.308451588095011 $368 12.308451588095011 $360 $428 forward 7 unknown #
straight-curve $-1 -48.187135179847274 -59.292527552804088 -12.308451588095011 -1 0 0 I I #
vertex $-1 $374 $429 #
straight-curve $-1 -48.187135179847274 -59.292527552804088 12.308451588095011 1 0 0 I I #
point $-1 -50.052729369497655 -59.292527552804088 12.308451588095011 #
point $-1 -50.052729369497655 -59.292527552804088 -12.308451588095011 #
point $-1 -46.321540990196894 -59.292527552804088 -12.308451588095011 #
straight-curve $-1 -46.321540990196894 -51.779699177246592 12.308451588095011 0 1 0 I I #
straight-curve $-1 70.938444166386915 -9.0644995049829475 99.118652895776165 0 0 -1 I I #
point $-1 70.938444166386915 -9.0644995049829475 12.308451588095011 #
straight-curve $-1 70.938444166386915 -0.85465823662379137 0.063349855163636448 0 1 0 I I #
point $-1 70.938444166386901 -9.0644995049829475 0.063349855163650659 #
point $-1 62.013324135848904 -4.8615377725627411 2.9332959185913166 #
point $-1 62.013324135848904 1.4429048260675685 2.9332959185913166 #
straight-curve $-1 -70.938444166386915 5.6458665584877821 41.72824543010686 0 0 -1 I I #
point $-1 -70.938444166386915 5.6458665584877821 12.308451588095011 #
straight-curve $-1 -70.938444166386915 -0.85465823662379137 0.063349855163626984 0 -1 0 I I #
point $-1 -70.938444166386915 5.6458665584877821 0.063349855163632937 #
point $-1 -62.013324135848912 -4.8615377725627411 2.9332959185913183 #
point $-1 -62.013324135848912 1.4429048260675685 2.9332959185913183 #
straight-curve $-1 -46.321540990196894 -59.292527552804088 0 0 0 -1 I I #
point $-1 -46.321540990196894 -59.292527552804088 12.308451588095011 #
End-of-ACIS-data 