500 0 8 0           
7 Unknown 11 ACIS 5.0 NT 24 Fri Mar 26 18:23:29 1999 
-1 9.9999999999999995e-007 1e-010 
body $-1 $8 $-1 $9 #
body $-1 $10 $-1 $11 #
body $-1 $12 $-1 $13 #
body $-1 $14 $-1 $15 #
body $-1 $16 $-1 $17 #
body $-1 $18 $-1 $19 #
body $-1 $20 $-1 $21 #
body $-1 $22 $-1 $23 #
lump $-1 $-1 $24 $0 #
transform $-1 1 0 0 0 1 0 0 0 1 60.90395825067904 38.266689110054472 8.1581960544483021 1 rotate no_reflect no_shear #
lump $-1 $-1 $25 $1 #
transform $-1 1 0 0 0 1 0 0 0 1 60.90395825067904 38.266689110054472 8.1581960544483021 1 rotate no_reflect no_shear #
lump $-1 $-1 $26 $2 #
transform $-1 1 0 0 0 1 0 0 0 1 60.90395825067904 38.266689110054472 8.1581960544483021 1 rotate no_reflect no_shear #
lump $-1 $-1 $27 $3 #
transform $-1 1 0 0 0 1 0 0 0 1 60.90395825067904 38.266689110054472 8.1581960544483021 1 rotate no_reflect no_shear #
lump $-1 $-1 $28 $4 #
transform $-1 1 0 0 0 1 0 0 0 1 60.90395825067904 38.266689110054472 8.1581960544483021 1 rotate no_reflect no_shear #
lump $-1 $-1 $29 $5 #
transform $-1 1 0 0 0 1 0 0 0 1 60.90395825067904 38.266689110054472 8.1581960544483021 1 rotate no_reflect no_shear #
lump $-1 $-1 $30 $6 #
transform $-1 1 0 0 0 1 0 0 0 1 60.90395825067904 38.266689110054472 8.1581960544483021 1 rotate no_reflect no_shear #
lump $-1 $-1 $31 $7 #
transform $-1 1 0 0 0 1 0 0 0 1 60.90395825067904 38.266689110054472 8.1581960544483021 1 rotate no_reflect no_shear #
shell $-1 $-1 $-1 $32 $-1 $8 #
shell $-1 $-1 $-1 $33 $-1 $10 #
shell $-1 $-1 $-1 $34 $-1 $12 #
shell $-1 $-1 $-1 $35 $-1 $14 #
shell $-1 $-1 $-1 $36 $-1 $16 #
shell $-1 $-1 $-1 $37 $-1 $18 #
shell $-1 $-1 $-1 $38 $-1 $20 #
shell $-1 $-1 $-1 $39 $-1 $22 #
face $-1 $40 $41 $24 $-1 $42 forward single #
face $-1 $43 $44 $25 $-1 $45 forward single #
face $-1 $46 $47 $26 $-1 $48 reversed single #
face $-1 $49 $50 $27 $-1 $51 forward single #
face $-1 $52 $53 $28 $-1 $54 forward single #
face $-1 $55 $56 $29 $-1 $57 reversed single #
face $-1 $58 $59 $30 $-1 $60 forward single #
face $-1 $61 $62 $31 $-1 $63 forward single #
face $-1 $64 $65 $24 $-1 $66 reversed single #
loop $-1 $-1 $67 $32 #
plane-surface $-1 0 0 8.1581960544483021 0 0 1 1 0 0 forward_v I I I I #
face $-1 $68 $69 $25 $-1 $70 reversed single #
loop $-1 $-1 $71 $33 #
plane-surface $-1 -57.283815082333895 0 4.807457416860105 0 0 1 1 0 0 forward_v I I I I #
face $-1 $72 $73 $26 $-1 $74 reversed single #
loop $-1 $-1 $75 $34 #
plane-surface $-1 39.449493836682706 82.382261191674644 140.15233703145591 1 0 0 0 -0.7660444514056185 -0.64278759981090561 forward_v I I I I #
face $-1 $76 $77 $27 $-1 $78 forward single #
loop $-1 $79 $80 $35 #
cone-surface $-1 45.579340812110232 35.03855153320378 4.7199782328115827 0 -0.7660444514056185 -0.64278759981090561 1.5 0 0 1 I I 0 1 1.5 forward I I I I #
face $-1 $81 $82 $28 $-1 $83 forward single #
loop $-1 $84 $85 $36 #
cone-surface $-1 54.774111275251514 35.03855153320378 4.7199782328115827 0 -0.7660444514056185 -0.64278759981090561 1.5 0 0 1 I I 0 1 1.5 forward I I I I #
face $-1 $86 $87 $29 $-1 $88 reversed single #
loop $-1 $-1 $89 $37 #
plane-surface $-1 -28.870812978637858 -134.25263819300744 78.177843202948196 -1 0 0 0 -0.78801076186113728 0.61566146476048833 forward_v I I I I #
face $-1 $90 $91 $30 $-1 $92 forward single #
loop $-1 $93 $94 $38 #
cone-surface $-1 -46.579997932459918 -34.223532838634533 4.0306540499078647 0 0.78801076186113728 -0.61566146476048833 1.5 0 0 1 I I 0 1 1.5 forward I I I I #
face $-1 $95 $96 $31 $-1 $97 forward single #
loop $-1 $98 $99 $39 #
cone-surface $-1 -35.954486960166676 -34.223532838634533 4.0306540499078647 0 0.78801076186113728 -0.61566146476048833 1.5 0 0 1 I I 0 1 1.5 forward I I I I #
face $-1 $100 $101 $24 $-1 $102 reversed single #
loop $-1 $-1 $103 $40 #
plane-surface $-1 0 0 -8.1581960544483021 0 0 1 1 0 0 forward_v I I I I #
coedge $-1 $104 $105 $106 $107 forward $41 $-1 #
face $-1 $108 $109 $25 $-1 $110 reversed single #
loop $-1 $-1 $111 $43 #
plane-surface $-1 -57.283815082333895 0 1.807457416860105 0 0 1 1 0 0 forward_v I I I I #
coedge $-1 $112 $113 $114 $115 forward $44 $-1 #
face $-1 $116 $117 $26 $-1 $118 forward single #
loop $-1 $-1 $119 $46 #
plane-surface $-1 50.176726043680873 -10.928017381469587 61.855718745580745 0 0.7660444514056185 0.64278759981090561 1 0 0 forward_v I I I I #
coedge $-1 $120 $121 $122 $123 reversed $47 $-1 #
face $-1 $-1 $124 $27 $-1 $125 forward single #
loop $-1 $126 $127 $49 #
cone-surface $-1 45.579340812110232 33.304448710760113 3.2648932321714899 0 -0.7660444514056185 -0.64278759981090561 0.75 0 0 1 I I -0.70710678118654768 0.70710678118654735 0.75 forward I I I I #
loop $-1 $-1 $128 $35 #
coedge $-1 $80 $80 $129 $130 reversed $50 $-1 #
face $-1 $-1 $131 $28 $-1 $132 forward single #
loop $-1 $133 $134 $52 #
cone-surface $-1 54.774111275251514 33.304448710760113 3.2648932321714899 0 -0.7660444514056185 -0.64278759981090561 0.75 0 0 1 I I -0.70710678118654768 0.70710678118654735 0.75 forward I I I I #
loop $-1 $-1 $135 $36 #
coedge $-1 $85 $85 $136 $137 reversed $53 $-1 #
face $-1 $138 $139 $29 $-1 $140 reversed single #
loop $-1 $-1 $141 $55 #
plane-surface $-1 -41.267242446313304 -38.266689110054472 3.1854029102988193 0 -0.78801076186113728 0.61566146476048833 1 0 0 forward_v I I I I #
coedge $-1 $142 $143 $144 $145 reversed $56 $-1 #
face $-1 $-1 $146 $30 $-1 $147 forward single #
loop $-1 $148 $149 $58 #
cone-surface $-1 -46.579997932459918 -31.531954345691624 1.9277625188718037 0 0.78801076186113728 -0.61566146476048833 0.75 0 0 1 I I -0.70710678118654757 0.70710678118654757 0.75 forward I I I I #
loop $-1 $-1 $150 $38 #
coedge $-1 $94 $94 $151 $152 reversed $59 $-1 #
face $-1 $-1 $153 $31 $-1 $154 forward single #
loop $-1 $155 $156 $61 #
cone-surface $-1 -35.954486960166676 -31.531954345691624 1.9277625188718037 0 0.78801076186113728 -0.61566146476048833 0.75 0 0 1 I I -0.70710678118654757 0.70710678118654757 0.75 forward I I I I #
loop $-1 $-1 $157 $39 #
coedge $-1 $99 $99 $158 $159 reversed $62 $-1 #
face $-1 $160 $161 $24 $-1 $162 reversed single #
loop $-1 $-1 $163 $64 #
plane-surface $-1 0 -38.266689110054472 0 0 1 0 0 0 1 forward_v I I I I #
coedge $-1 $164 $165 $166 $167 forward $65 $-1 #
coedge $-1 $168 $67 $169 $170 forward $41 $-1 #
coedge $-1 $67 $168 $171 $172 forward $41 $-1 #
coedge $-1 $173 $174 $67 $107 reversed $175 $-1 #
edge $-1 $176 -38.266689110054472 $177 38.266689110054472 $106 $178 forward 7 unknown #
face $-1 $179 $180 $25 $-1 $181 reversed single #
loop $-1 $-1 $182 $68 #
plane-surface $-1 -53.66367191398875 0 3.307457416860105 -1 0 0 0 0 1 forward_v I I I I #
coedge $-1 $183 $184 $185 $186 forward $69 $-1 #
coedge $-1 $187 $71 $188 $189 reversed $44 $-1 #
coedge $-1 $71 $187 $190 $191 reversed $44 $-1 #
coedge $-1 $182 $192 $71 $115 reversed $109 $-1 #
edge $-1 $193 -38.266689110054472 $194 38.266689110054472 $114 $195 forward 7 unknown #
face $-1 $196 $197 $26 $-1 $198 reversed single #
loop $-1 $-1 $122 $72 #
plane-surface $-1 0 0 8.1581960544483021 0 0 1 1 0 0 forward_v I I I I #
coedge $-1 $199 $200 $201 $202 reversed $73 $-1 #
coedge $-1 $121 $75 $203 $204 reversed $47 $-1 #
coedge $-1 $75 $120 $199 $205 reversed $47 $-1 #
coedge $-1 $201 $206 $75 $123 forward $117 $-1 #
edge $-1 $207 2.9244414857828502 $208 7.061577671705308 $122 $209 forward 7 unknown #
loop $-1 $-1 $129 $76 #
plane-surface $-1 50.176726043680873 -10.928017381469587 61.855718745580745 0 0.7660444514056185 0.64278759981090561 1 0 0 forward_v I I I I #
loop $-1 $-1 $210 $49 #
coedge $-1 $127 $127 $128 $211 reversed $77 $-1 #
coedge $-1 $128 $128 $127 $211 forward $79 $-1 #
coedge $-1 $129 $129 $80 $130 forward $124 $-1 #
edge $-1 $212 2.591264297702401e-015 $212 6.2831853071796031 $129 $213 forward 7 unknown #
loop $-1 $-1 $136 $81 #
plane-surface $-1 50.176726043680873 -10.928017381469587 61.855718745580745 0 0.7660444514056185 0.64278759981090561 1 0 0 forward_v I I I I #
loop $-1 $-1 $214 $52 #
coedge $-1 $134 $134 $135 $215 reversed $82 $-1 #
coedge $-1 $135 $135 $134 $215 forward $84 $-1 #
coedge $-1 $136 $136 $85 $137 forward $131 $-1 #
edge $-1 $216 2.591264297702401e-015 $216 6.2831853071796031 $136 $217 forward 7 unknown #
face $-1 $218 $219 $29 $-1 $220 forward single #
loop $-1 $-1 $221 $86 #
plane-surface $-1 0 -38.266689110054472 0 0 1 0 0 0 1 forward_v I I I I #
coedge $-1 $222 $223 $224 $225 reversed $87 $-1 #
coedge $-1 $143 $89 $226 $227 reversed $56 $-1 #
coedge $-1 $89 $142 $222 $228 reversed $56 $-1 #
coedge $-1 $224 $229 $89 $145 forward $230 $-1 #
edge $-1 $231 28.859629986449249 $232 32.744801686195011 $144 $233 forward 7 unknown #
loop $-1 $-1 $151 $90 #
plane-surface $-1 -41.267242446313304 -38.266689110054472 3.1854029102988193 0 -0.78801076186113728 0.61566146476048833 1 0 0 forward_v I I I I #
loop $-1 $-1 $234 $58 #
coedge $-1 $149 $149 $150 $235 reversed $91 $-1 #
coedge $-1 $150 $150 $149 $235 forward $93 $-1 #
coedge $-1 $151 $151 $94 $152 forward $146 $-1 #
edge $-1 $236 1.9831663389178975e-015 $236 6.2831853071796022 $151 $237 forward 7 unknown #
loop $-1 $-1 $158 $95 #
plane-surface $-1 -41.267242446313304 -38.266689110054472 3.1854029102988193 0 -0.78801076186113728 0.61566146476048833 1 0 0 forward_v I I I I #
loop $-1 $-1 $238 $61 #
coedge $-1 $156 $156 $157 $239 reversed $96 $-1 #
coedge $-1 $157 $157 $156 $239 forward $98 $-1 #
coedge $-1 $158 $158 $99 $159 forward $153 $-1 #
edge $-1 $240 1.9831663389178975e-015 $240 6.2831853071796022 $158 $241 forward 7 unknown #
face $-1 $242 $243 $24 $-1 $244 reversed single #
loop $-1 $-1 $245 $100 #
plane-surface $-1 -60.90395825067904 0 0 1 0 0 0 0 -1 forward_v I I I I #
coedge $-1 $246 $171 $247 $248 forward $101 $-1 #
coedge $-1 $249 $103 $246 $250 forward $65 $-1 #
coedge $-1 $103 $249 $251 $252 forward $65 $-1 #
coedge $-1 $174 $173 $103 $167 reversed $175 $-1 #
edge $-1 $253 -38.266689110054472 $254 38.266689110054472 $166 $255 forward 7 unknown #
coedge $-1 $105 $104 $256 $257 forward $41 $-1 #
coedge $-1 $258 $259 $104 $170 reversed $243 $-1 #
edge $-1 $177 -60.90395825067904 $260 60.90395825067904 $169 $261 forward 7 unknown #
coedge $-1 $163 $262 $105 $172 reversed $101 $-1 #
edge $-1 $263 -60.90395825067904 $176 60.90395825067904 $171 $264 forward 7 unknown #
coedge $-1 $166 $106 $262 $265 forward $175 $-1 #
coedge $-1 $106 $166 $258 $266 reversed $175 $-1 #
loop $-1 $-1 $173 $242 #
vertex $-1 $107 $267 #
vertex $-1 $107 $268 #
straight-curve $-1 60.90395825067904 0 8.1581960544483021 0 1 0 I I #
face $-1 $269 $270 $25 $-1 $271 reversed single #
loop $-1 $-1 $272 $108 #
plane-surface $-1 0 -38.266689110054472 0 0 1 0 0 0 1 forward_v I I I I #
coedge $-1 $185 $114 $273 $274 reversed $109 $-1 #
coedge $-1 $275 $111 $272 $276 reversed $69 $-1 #
coedge $-1 $111 $275 $277 $278 reversed $69 $-1 #
coedge $-1 $192 $182 $111 $186 reversed $109 $-1 #
edge $-1 $279 -38.266689110054472 $280 38.266689110054472 $185 $281 forward 7 unknown #
coedge $-1 $113 $112 $282 $283 reversed $44 $-1 #
coedge $-1 $284 $285 $112 $189 forward $286 $-1 #
edge $-1 $287 -32.262050709512096 $194 -25.021764372821803 $188 $288 forward 7 unknown #
coedge $-1 $289 $273 $113 $191 forward $180 $-1 #
edge $-1 $193 25.021764372821803 $290 32.262050709512096 $190 $291 forward 7 unknown #
coedge $-1 $114 $185 $284 $292 reversed $109 $-1 #
vertex $-1 $191 $293 #
vertex $-1 $189 $294 #
straight-curve $-1 -53.66367191398875 0 4.807457416860105 0 1 0 I I #
face $-1 $-1 $295 $26 $-1 $296 reversed single #
loop $-1 $-1 $297 $116 #
plane-surface $-1 60.90395825067904 0 0 -1 0 0 0 0 1 forward_v I I I I #
coedge $-1 $298 $119 $121 $205 forward $73 $-1 #
coedge $-1 $119 $298 $297 $299 reversed $73 $-1 #
coedge $-1 $300 $122 $119 $202 forward $117 $-1 #
edge $-1 $208 14.361130814842269 $301 35.815595228838603 $201 $302 forward 7 unknown #
coedge $-1 $303 $304 $120 $204 forward $295 $-1 #
edge $-1 $305 -66.848419502989259 $207 -61.917972461279653 $203 $306 forward 7 unknown #
edge $-1 $208 70.097136781818108 $305 76.533378220108958 $121 $307 forward 7 unknown #
coedge $-1 $122 $300 $303 $308 forward $117 $-1 #
vertex $-1 $204 $309 #
vertex $-1 $123 $310 #
straight-curve $-1 39.449493836682706 41.191130595837322 8.1581960544482968 0 -1 0 I I #
coedge $-1 $210 $210 $-1 $311 reversed $126 $-1 #
edge $-1 $312 0 $312 6.2831853071796004 $127 $313 forward 7 unknown #
vertex $-1 $130 $314 #
ellipse-curve $-1 45.579340812110232 36.198121017093236 5.6929725335934958 0 0.7660444514056185 0.64278759981090561 1.5 0 0 1 I I #
coedge $-1 $214 $214 $-1 $315 reversed $133 $-1 #
edge $-1 $316 0 $316 6.2831853071796004 $134 $317 forward 7 unknown #
vertex $-1 $137 $318 #
ellipse-curve $-1 54.774111275251514 36.198121017093236 5.6929725335934958 0 0.7660444514056185 0.64278759981090561 1.5 0 0 1 I I #
face $-1 $-1 $230 $29 $-1 $319 forward single #
loop $-1 $-1 $320 $138 #
plane-surface $-1 -53.66367191398875 0 3.307457416860105 -1 0 0 0 0 1 forward_v I I I I #
coedge $-1 $321 $322 $323 $324 forward $139 $-1 #
coedge $-1 $325 $141 $143 $228 forward $87 $-1 #
coedge $-1 $141 $325 $320 $326 reversed $87 $-1 #
coedge $-1 $327 $144 $141 $225 forward $230 $-1 #
edge $-1 $232 8.2371917554812057 $328 33.030050690832098 $224 $329 forward 7 unknown #
coedge $-1 $322 $321 $142 $227 forward $139 $-1 #
edge $-1 $330 -35.903518691175279 $231 -30.930725547025794 $226 $331 forward 7 unknown #
edge $-1 $232 -6.310565013610546 $330 0 $143 $332 forward 7 unknown #
coedge $-1 $144 $327 $322 $333 forward $230 $-1 #
loop $-1 $-1 $327 $218 #
vertex $-1 $227 $334 #
vertex $-1 $145 $335 #
straight-curve $-1 -28.870812978637858 -67.126319096503721 8.1581960544483039 0 1 0 I I #
coedge $-1 $234 $234 $-1 $336 reversed $148 $-1 #
edge $-1 $337 0 $337 6.2831853071796004 $149 $338 forward 7 unknown #
vertex $-1 $152 $339 #
ellipse-curve $-1 -46.579997932459918 -36.324103260181595 5.6717994823735616 0 -0.78801076186113728 0.61566146476048833 1.5 0 0 1 I I #
coedge $-1 $238 $238 $-1 $340 reversed $155 $-1 #
edge $-1 $341 0 $341 6.2831853071796004 $156 $342 forward 7 unknown #
vertex $-1 $159 $343 #
ellipse-curve $-1 -35.954486960166676 -36.324103260181595 5.6717994823735616 0 -0.78801076186113728 0.61566146476048833 1.5 0 0 1 I I #
face $-1 $-1 $175 $24 $-1 $344 reversed single #
loop $-1 $-1 $258 $160 #
plane-surface $-1 0 38.266689110054472 0 0 -1 0 0 0 -1 forward_v I I I I #
coedge $-1 $345 $256 $259 $346 forward $161 $-1 #
coedge $-1 $262 $163 $164 $250 reversed $101 $-1 #
coedge $-1 $256 $345 $163 $248 reversed $161 $-1 #
edge $-1 $263 -8.1581960544483021 $347 8.1581960544483021 $247 $348 forward 7 unknown #
coedge $-1 $165 $164 $345 $349 forward $65 $-1 #
edge $-1 $254 -60.90395825067904 $347 60.90395825067904 $246 $350 forward 7 unknown #
coedge $-1 $259 $258 $165 $252 reversed $243 $-1 #
edge $-1 $351 -60.90395825067904 $253 60.90395825067904 $251 $352 forward 7 unknown #
vertex $-1 $167 $353 #
vertex $-1 $265 $354 #
straight-curve $-1 60.90395825067904 0 -8.1581960544483021 0 -1 0 I I #
coedge $-1 $245 $247 $168 $257 reversed $161 $-1 #
edge $-1 $260 -38.266689110054472 $263 38.266689110054472 $256 $355 forward 7 unknown #
coedge $-1 $251 $169 $174 $266 forward $243 $-1 #
coedge $-1 $169 $251 $245 $346 reversed $243 $-1 #
vertex $-1 $170 $356 #
straight-curve $-1 0 38.266689110054472 8.1581960544483021 -1 0 0 I I #
coedge $-1 $171 $246 $173 $265 reversed $101 $-1 #
vertex $-1 $257 $357 #
straight-curve $-1 0 -38.266689110054472 8.1581960544483021 1 0 0 I I #
edge $-1 $176 -8.1581960544483021 $254 8.1581960544483021 $173 $358 forward 7 unknown #
edge $-1 $177 -8.1581960544483021 $253 8.1581960544483021 $174 $359 forward 7 unknown #
point $-1 60.90395825067904 -38.266689110054472 8.1581960544483021 #
point $-1 60.90395825067904 38.266689110054472 8.1581960544483021 #
face $-1 $-1 $286 $25 $-1 $360 reversed single #
loop $-1 $-1 $361 $179 #
plane-surface $-1 -60.90395825067904 0 0 1 0 0 0 0 -1 forward_v I I I I #
coedge $-1 $273 $289 $183 $276 forward $180 $-1 #
coedge $-1 $190 $272 $182 $274 forward $180 $-1 #
edge $-1 $280 0.15372870843005249 $193 3.1537287084300525 $273 $362 forward 7 unknown #
coedge $-1 $184 $183 $361 $363 reversed $69 $-1 #
edge $-1 $364 -32.262050709512096 $280 -25.021764372821803 $272 $365 forward 7 unknown #
coedge $-1 $285 $284 $184 $278 forward $286 $-1 #
edge $-1 $279 25.021764372821803 $366 32.262050709512096 $277 $367 forward 7 unknown #
vertex $-1 $278 $368 #
vertex $-1 $276 $369 #
straight-curve $-1 -53.66367191398875 0 1.807457416860105 0 -1 0 I I #
coedge $-1 $370 $371 $187 $283 forward $270 $-1 #
edge $-1 $290 -38.266689110054472 $287 38.266689110054472 $282 $372 forward 7 unknown #
coedge $-1 $277 $188 $192 $292 forward $286 $-1 #
coedge $-1 $188 $277 $370 $373 reversed $286 $-1 #
loop $-1 $-1 $277 $269 #
vertex $-1 $373 $374 #
straight-curve $-1 -28.641907541166947 38.266689110054472 4.807457416860105 1 0 0 I I #
coedge $-1 $272 $190 $371 $375 forward $180 $-1 #
vertex $-1 $375 $376 #
straight-curve $-1 -28.641907541166947 -38.266689110054472 4.807457416860105 -1 0 0 I I #
edge $-1 $194 -3.1537287084300525 $279 -0.15372870843005249 $284 $377 forward 7 unknown #
point $-1 -53.66367191398875 -38.266689110054472 4.807457416860105 #
point $-1 -53.66367191398875 38.266689110054472 4.807457416860105 #
loop $-1 $-1 $203 $196 #
plane-surface $-1 0 38.266689110054472 0 0 -1 0 0 0 -1 forward_v I I I I #
coedge $-1 $378 $379 $200 $299 forward $197 $-1 #
coedge $-1 $200 $199 $304 $380 reversed $73 $-1 #
edge $-1 $301 42.89282468377543 $381 49.329066122066266 $297 $382 forward 7 unknown #
coedge $-1 $206 $201 $379 $383 forward $117 $-1 #
vertex $-1 $383 $384 #
straight-curve $-1 25.088363021840436 34.129552924132014 8.1581960544482968 1 0 0 I I #
coedge $-1 $385 $203 $206 $308 reversed $295 $-1 #
coedge $-1 $203 $385 $298 $380 forward $295 $-1 #
vertex $-1 $204 $386 #
straight-curve $-1 39.449493836682706 38.266689110054472 70.076168515727957 0 0 1 I I #
straight-curve $-1 39.449493836682706 -10.928017381469587 61.855718745580745 0 0.64278759981090561 -0.7660444514056185 I I #
edge $-1 $387 -60.90395825067904 $207 -39.449493836682706 $303 $388 forward 7 unknown #
point $-1 39.449493836682706 38.266689110054472 8.1581960544483021 #
point $-1 39.449493836682706 34.129552924132014 8.1581960544483039 #
edge $-1 $389 1 $389 0 $210 $-1 forward 7 unknown #
vertex $-1 $211 $390 #
ellipse-curve $-1 45.579340812110232 33.878982049314324 3.7469839320296687 0 0.7660444514056185 0.64278759981090561 1.5 0 0 1 I I #
point $-1 47.079340812110232 36.198121017093243 5.6929725335934966 #
edge $-1 $391 1 $391 0 $214 $-1 forward 7 unknown #
vertex $-1 $215 $392 #
ellipse-curve $-1 54.774111275251514 33.878982049314324 3.7469839320296687 0 0.7660444514056185 0.64278759981090561 1.5 0 0 1 I I #
point $-1 56.274111275251514 36.198121017093243 5.6929725335934966 #
plane-surface $-1 0 0 8.1581960544483021 0 0 1 1 0 0 forward_v I I I I #
coedge $-1 $323 $393 $223 $326 forward $219 $-1 #
coedge $-1 $226 $221 $325 $394 forward $139 $-1 #
coedge $-1 $221 $226 $229 $333 reversed $139 $-1 #
coedge $-1 $393 $320 $221 $324 reversed $219 $-1 #
edge $-1 $395 30.930725547025794 $396 35.903518691175279 $221 $397 forward 7 unknown #
coedge $-1 $223 $222 $321 $394 reversed $87 $-1 #
edge $-1 $328 5.517188053256608 $396 11.827753066867153 $320 $398 forward 7 unknown #
coedge $-1 $229 $224 $393 $399 forward $230 $-1 #
vertex $-1 $225 $400 #
straight-curve $-1 -20.633621223156652 -34.381517410308717 8.1581960544483021 -1 0 0 I I #
vertex $-1 $227 $401 #
straight-curve $-1 -28.870812978637858 -38.266689110054472 39.088921601474098 0 0 1 I I #
straight-curve $-1 -28.870812978637858 -38.266689110054472 3.1854029102988193 0 -0.61566146476048833 -0.78801076186113728 I I #
edge $-1 $395 -53.66367191398875 $231 -28.870812978637858 $322 $402 forward 7 unknown #
point $-1 -28.870812978637858 -38.266689110054472 8.1581960544483021 #
point $-1 -28.870812978637858 -34.38151741030871 8.1581960544483021 #
edge $-1 $403 1 $403 0 $234 $-1 forward 7 unknown #
vertex $-1 $235 $404 #
ellipse-curve $-1 -46.579997932459918 -32.122962417087479 2.38950861744217 0 -0.78801076186113728 0.61566146476048833 1.5 0 0 1 I I #
point $-1 -45.079997932459918 -36.324103260181587 5.6717994823735598 #
edge $-1 $405 1 $405 0 $238 $-1 forward 7 unknown #
vertex $-1 $239 $406 #
ellipse-curve $-1 -35.954486960166676 -32.122962417087479 2.38950861744217 0 -0.78801076186113728 0.61566146476048833 1.5 0 0 1 I I #
point $-1 -34.454486960166676 -36.324103260181587 5.6717994823735598 #
plane-surface $-1 60.90395825067904 0 0 -1 0 0 0 0 1 forward_v I I I I #
coedge $-1 $247 $245 $249 $349 reversed $161 $-1 #
edge $-1 $260 -8.1581960544483021 $351 8.1581960544483021 $259 $407 forward 7 unknown #
vertex $-1 $349 $408 #
straight-curve $-1 -60.90395825067904 -38.266689110054472 0 0 0 -1 I I #
edge $-1 $347 -38.266689110054472 $351 38.266689110054472 $345 $409 forward 7 unknown #
straight-curve $-1 0 -38.266689110054472 -8.1581960544483021 -1 0 0 I I #
vertex $-1 $252 $410 #
straight-curve $-1 0 38.266689110054472 -8.1581960544483021 1 0 0 I I #
point $-1 60.90395825067904 38.266689110054472 -8.1581960544483021 #
point $-1 60.90395825067904 -38.266689110054472 -8.1581960544483021 #
straight-curve $-1 -60.90395825067904 0 8.1581960544483021 0 -1 0 I I #
point $-1 -60.90395825067904 38.266689110054472 8.1581960544483021 #
point $-1 -60.90395825067904 -38.266689110054472 8.1581960544483021 #
straight-curve $-1 60.90395825067904 -38.266689110054472 0 0 0 -1 I I #
straight-curve $-1 60.90395825067904 38.266689110054472 0 0 0 -1 I I #
plane-surface $-1 0 38.266689110054472 0 0 -1 0 0 0 -1 forward_v I I I I #
coedge $-1 $371 $370 $275 $363 forward $270 $-1 #
straight-curve $-1 -53.66367191398875 -38.266689110054472 1.6537287084300525 0 0 1 I I #
edge $-1 $366 -38.266689110054472 $364 38.266689110054472 $361 $411 forward 7 unknown #
vertex $-1 $276 $412 #
straight-curve $-1 -28.641907541166947 -38.266689110054472 1.807457416860105 1 0 0 I I #
vertex $-1 $278 $413 #
straight-curve $-1 -28.641907541166947 38.266689110054472 1.807457416860105 -1 0 0 I I #
point $-1 -53.66367191398875 38.266689110054472 1.807457416860105 #
point $-1 -53.66367191398875 -38.266689110054472 1.807457416860105 #
coedge $-1 $361 $282 $285 $373 forward $270 $-1 #
coedge $-1 $282 $361 $289 $375 reversed $270 $-1 #
straight-curve $-1 -60.90395825067904 0 4.807457416860105 0 1 0 I I #
edge $-1 $287 -4.807457416860105 $366 -1.807457416860105 $285 $414 forward 7 unknown #
point $-1 -60.90395825067904 38.266689110054472 4.807457416860105 #
edge $-1 $290 -4.807457416860105 $364 -1.807457416860105 $371 $415 forward 7 unknown #
point $-1 -60.90395825067904 -38.266689110054472 4.807457416860105 #
straight-curve $-1 -53.66367191398875 38.266689110054472 1.6537287084300525 0 0 -1 I I #
coedge $-1 $379 $297 $385 $416 reversed $197 $-1 #
coedge $-1 $297 $378 $300 $383 reversed $197 $-1 #
edge $-1 $381 -35.815595228838603 $305 -14.361130814842269 $304 $417 forward 7 unknown #
vertex $-1 $299 $418 #
straight-curve $-1 60.90395825067904 6.5585770965380377 41.016006408568416 0 0.64278759981090572 -0.76604445140561861 I I #
edge $-1 $301 34.129552924132014 $387 38.266689110054472 $379 $419 forward 7 unknown #
point $-1 60.90395825067904 34.129552924132014 8.1581960544483039 #
coedge $-1 $304 $303 $378 $416 forward $295 $-1 #
point $-1 39.449493836682706 38.266689110054472 3.2277490127386912 #
vertex $-1 $383 $420 #
straight-curve $-1 0 38.266689110054472 8.1581960544483021 -1 0 0 I I #
vertex $-1 $311 $421 #
point $-1 47.079340812110232 33.878982049314324 3.7469839320296687 #
vertex $-1 $315 $422 #
point $-1 56.274111275251514 33.878982049314324 3.7469839320296687 #
coedge $-1 $320 $323 $327 $399 reversed $219 $-1 #
edge $-1 $396 -33.030050690832098 $330 -8.2371917554812057 $321 $423 forward 7 unknown #
vertex $-1 $333 $424 #
vertex $-1 $326 $425 #
straight-curve $-1 -53.66367191398875 -38.266689110054472 39.088921601474098 0 0 -1 I I #
straight-curve $-1 -53.66367191398875 -30.984797332081683 12.505799615626209 0 -0.61566146476048833 -0.78801076186113728 I I #
edge $-1 $328 -32.744801686195011 $395 -28.859629986449249 $327 $426 forward 7 unknown #
point $-1 -53.66367191398875 -34.38151741030871 8.1581960544483021 #
point $-1 -28.870812978637858 -38.266689110054472 3.1854029102988193 #
straight-curve $-1 0 -38.266689110054472 8.1581960544483021 1 0 0 I I #
vertex $-1 $336 $427 #
point $-1 -45.079997932459918 -32.122962417087479 2.38950861744217 #
vertex $-1 $340 $428 #
point $-1 -34.454486960166676 -32.122962417087479 2.38950861744217 #
straight-curve $-1 -60.90395825067904 38.266689110054472 0 0 0 -1 I I #
point $-1 -60.90395825067904 -38.266689110054472 -8.1581960544483021 #
straight-curve $-1 -60.90395825067904 0 -8.1581960544483021 0 1 0 I I #
point $-1 -60.90395825067904 38.266689110054472 -8.1581960544483021 #
straight-curve $-1 -60.90395825067904 0 1.807457416860105 0 -1 0 I I #
point $-1 -60.90395825067904 -38.266689110054472 1.807457416860105 #
point $-1 -60.90395825067904 38.266689110054472 1.807457416860105 #
straight-curve $-1 -60.90395825067904 38.266689110054472 0 0 0 -1 I I #
straight-curve $-1 -60.90395825067904 -38.266689110054472 0 0 0 -1 I I #
edge $-1 $387 -8.1581960544483021 $381 -3.2277490127386912 $378 $429 forward 7 unknown #
straight-curve $-1 25.088363021840436 38.266689110054472 3.2277490127386912 -1 0 0 I I #
point $-1 60.90395825067904 38.266689110054472 3.2277490127386912 #
straight-curve $-1 60.90395825067904 0 8.1581960544483021 0 1 0 I I #
point $-1 60.90395825067904 38.266689110054472 8.1581960544483021 #
point $-1 45.579340812110232 32.729915372205902 2.782802532313311 #
point $-1 54.774111275251514 32.729915372205902 2.782802532313311 #
straight-curve $-1 -20.633621223156652 -38.266689110054472 3.1854029102988166 1 0 0 I I #
point $-1 -53.66367191398875 -38.266689110054472 8.1581960544483021 #
point $-1 -53.66367191398875 -38.266689110054472 3.1854029102988193 #
straight-curve $-1 -53.66367191398875 -67.126319096503721 8.1581960544483039 0 -1 0 I I #
point $-1 -46.579997932459918 -30.940946274295772 1.4660164203014374 #
point $-1 -35.954486960166676 -30.940946274295772 1.4660164203014374 #
straight-curve $-1 60.90395825067904 38.266689110054472 0 0 0 -1 I I #
End-of-ACIS-data 