500 0 3 0           
7 Unknown 11 ACIS 5.0 NT 24 Thu Mar 25 16:08:01 1999 
-1 9.9999999999999995e-007 1e-010 
body $-1 $3 $-1 $4 #
body $-1 $5 $-1 $6 #
body $-1 $7 $-1 $8 #
lump $-1 $-1 $9 $0 #
transform $-1 1 0 0 0 1 0 0 0 1 56.719260231330303 22.989934471767029 5.774601174243335 1 rotate no_reflect no_shear #
lump $-1 $-1 $10 $1 #
transform $-1 1 0 0 0 1 0 0 0 1 56.719260231330303 22.989934471767029 5.774601174243335 1 rotate no_reflect no_shear #
lump $-1 $-1 $11 $2 #
transform $-1 1 0 0 0 1 0 0 0 1 56.719260231330303 22.989934471767029 5.774601174243335 1 rotate no_reflect no_shear #
shell $-1 $-1 $-1 $12 $-1 $3 #
shell $-1 $-1 $-1 $13 $-1 $5 #
shell $-1 $-1 $-1 $14 $-1 $7 #
face $-1 $15 $16 $9 $-1 $17 forward single #
face $-1 $18 $19 $10 $-1 $20 forward single #
face $-1 $21 $22 $11 $-1 $23 reversed single #
face $-1 $24 $25 $9 $-1 $26 reversed single #
loop $-1 $-1 $27 $12 #
plane-surface $-1 0 0 5.774601174243335 0 0 1 1 0 0 forward_v I I I I #
face $-1 $28 $29 $10 $-1 $30 forward single #
loop $-1 $-1 $31 $13 #
plane-surface $-1 10.988257439266679 -89.667424693444048 91.782665981515635 -1 0 0 0 -0.5877852598018023 0.80901698891910034 forward_v I I I I #
face $-1 $32 $33 $11 $-1 $34 reversed single #
loop $-1 $35 $36 $14 #
cone-surface $-1 -5.2361132453317083 -17.331175888922743 0.56445419283764497 0 0.5877852598018023 -0.80901698891910034 1.5 0 0 1 I I 0 1 1.5 forward I I I I #
face $-1 $37 $38 $9 $-1 $39 reversed single #
loop $-1 $-1 $40 $15 #
plane-surface $-1 0 0 -5.774601174243335 0 0 1 1 0 0 forward_v I I I I #
coedge $-1 $41 $42 $43 $44 forward $16 $-1 #
face $-1 $45 $46 $10 $-1 $47 forward single #
loop $-1 $-1 $48 $18 #
plane-surface $-1 -5.2361132453317154 -22.989934471767015 0.0089757293762033896 0 -0.5877852598018023 0.80901698891910034 1 0 0 forward_v I I I I #
coedge $-1 $49 $50 $51 $52 reversed $19 $-1 #
face $-1 $53 $54 $11 $-1 $55 forward single #
loop $-1 $56 $57 $21 #
cone-surface $-1 -5.2361132453317083 -15.199429595038755 -2.3696428078238005 0 0.5877852598018023 -0.80901698891910034 0.75 0 0 1 I I -0.70710678118654757 0.70710678118654757 0.75 forward I I I I #
loop $-1 $-1 $58 $14 #
coedge $-1 $36 $36 $59 $60 reversed $22 $-1 #
face $-1 $61 $62 $9 $-1 $63 reversed single #
loop $-1 $-1 $64 $24 #
plane-surface $-1 0 -22.989934471767029 0 0 1 0 0 0 1 forward_v I I I I #
coedge $-1 $65 $66 $67 $68 forward $25 $-1 #
coedge $-1 $69 $27 $70 $71 forward $16 $-1 #
coedge $-1 $27 $69 $72 $73 forward $16 $-1 #
coedge $-1 $74 $75 $27 $44 reversed $76 $-1 #
edge $-1 $77 -22.989934471767029 $78 22.989934471767029 $43 $79 forward 7 unknown #
face $-1 $80 $81 $10 $-1 $82 forward single #
loop $-1 $-1 $83 $28 #
plane-surface $-1 -21.46048392993011 -89.667424693444048 91.782665981515635 1 0 0 0 0.5877852598018023 -0.80901698891910034 forward_v I I I I #
coedge $-1 $84 $85 $86 $87 reversed $29 $-1 #
coedge $-1 $50 $31 $85 $88 forward $19 $-1 #
coedge $-1 $31 $49 $89 $90 reversed $19 $-1 #
coedge $-1 $91 $86 $31 $52 forward $81 $-1 #
edge $-1 $92 -29.779480342578292 $93 -21.843777874954995 $51 $94 forward 7 unknown #
face $-1 $95 $96 $11 $-1 $97 forward single #
loop $-1 $-1 $98 $32 #
plane-surface $-1 10.988257439266679 -89.667424693444048 91.782665981515635 -1 0 0 0 -0.5877852598018023 0.80901698891910034 forward_v I I I I #
loop $-1 $-1 $99 $21 #
coedge $-1 $57 $57 $58 $100 forward $33 $-1 #
coedge $-1 $58 $58 $57 $100 reversed $35 $-1 #
coedge $-1 $59 $59 $36 $60 forward $96 $-1 #
edge $-1 $101 1.2200595710448646e-015 $101 6.2831853071796013 $59 $102 forward 7 unknown #
face $-1 $103 $104 $9 $-1 $105 reversed single #
loop $-1 $-1 $106 $37 #
plane-surface $-1 -56.719260231330303 0 0 1 0 0 0 0 -1 forward_v I I I I #
coedge $-1 $107 $72 $108 $109 forward $38 $-1 #
coedge $-1 $110 $40 $107 $111 forward $25 $-1 #
coedge $-1 $40 $110 $112 $113 forward $25 $-1 #
coedge $-1 $75 $74 $40 $68 reversed $76 $-1 #
edge $-1 $114 -22.989934471767029 $115 22.989934471767029 $67 $116 forward 7 unknown #
coedge $-1 $42 $41 $117 $118 forward $16 $-1 #
coedge $-1 $119 $120 $41 $71 reversed $104 $-1 #
edge $-1 $78 -56.719260231330303 $121 56.719260231330303 $70 $122 forward 7 unknown #
coedge $-1 $64 $123 $42 $73 reversed $38 $-1 #
edge $-1 $124 -56.719260231330303 $77 56.719260231330303 $72 $125 forward 7 unknown #
coedge $-1 $67 $43 $123 $126 forward $76 $-1 #
coedge $-1 $43 $67 $119 $127 reversed $76 $-1 #
loop $-1 $-1 $74 $103 #
vertex $-1 $44 $128 #
vertex $-1 $44 $129 #
straight-curve $-1 56.719260231330303 0 5.774601174243335 0 1 0 I I #
face $-1 $130 $131 $10 $-1 $132 reversed single #
loop $-1 $-1 $133 $45 #
plane-surface $-1 0 0 5.774601174243335 0 0 1 1 0 0 forward_v I I I I #
coedge $-1 $134 $135 $133 $136 reversed $46 $-1 #
coedge $-1 $137 $48 $135 $138 reversed $29 $-1 #
coedge $-1 $48 $137 $49 $88 reversed $29 $-1 #
coedge $-1 $51 $133 $48 $87 forward $81 $-1 #
edge $-1 $139 -18.842427307264252 $92 13.606314061932537 $86 $140 forward 7 unknown #
edge $-1 $92 -9.8090677653455725 $141 1.756574927105486e-014 $49 $142 forward 7 unknown #
coedge $-1 $143 $144 $50 $90 forward $145 $-1 #
edge $-1 $93 40.116731816514481 $141 45.882357261381621 $89 $146 forward 7 unknown #
coedge $-1 $147 $51 $144 $148 forward $81 $-1 #
vertex $-1 $87 $149 #
vertex $-1 $148 $150 #
straight-curve $-1 10.988257439266679 -44.833712346722024 5.7746011742433367 0 -1 0 I I #
face $-1 $151 $152 $11 $-1 $153 forward single #
loop $-1 $154 $59 $53 #
plane-surface $-1 -5.2361132453317154 -22.989934471767015 0.0089757293762033896 0 -0.5877852598018023 0.80901698891910034 1 0 0 forward_v I I I I #
coedge $-1 $155 $156 $157 $158 reversed $54 $-1 #
coedge $-1 $99 $99 $-1 $159 forward $56 $-1 #
edge $-1 $160 0 $160 6.2831853071796004 $57 $161 forward 7 unknown #
vertex $-1 $60 $162 #
ellipse-curve $-1 -5.2361132453317083 -19.022083237955378 2.8917884518097638 0 0.5877852598018023 -0.80901698891910034 1.5 0 0 1 I I #
face $-1 $-1 $76 $9 $-1 $163 reversed single #
loop $-1 $-1 $119 $61 #
plane-surface $-1 0 22.989934471767029 0 0 -1 0 0 0 -1 forward_v I I I I #
coedge $-1 $164 $117 $120 $165 forward $62 $-1 #
coedge $-1 $123 $64 $65 $111 reversed $38 $-1 #
coedge $-1 $117 $164 $64 $109 reversed $62 $-1 #
edge $-1 $124 -5.774601174243335 $166 5.774601174243335 $108 $167 forward 7 unknown #
coedge $-1 $66 $65 $164 $168 forward $25 $-1 #
edge $-1 $115 -56.719260231330303 $166 56.719260231330303 $107 $169 forward 7 unknown #
coedge $-1 $120 $119 $66 $113 reversed $104 $-1 #
edge $-1 $170 -56.719260231330303 $114 56.719260231330303 $112 $171 forward 7 unknown #
vertex $-1 $68 $172 #
vertex $-1 $126 $173 #
straight-curve $-1 56.719260231330303 0 -5.774601174243335 0 -1 0 I I #
coedge $-1 $106 $108 $69 $118 reversed $62 $-1 #
edge $-1 $121 -22.989934471767029 $124 22.989934471767029 $117 $174 forward 7 unknown #
coedge $-1 $112 $70 $75 $127 forward $104 $-1 #
coedge $-1 $70 $112 $106 $165 reversed $104 $-1 #
vertex $-1 $71 $175 #
straight-curve $-1 0 22.989934471767029 5.774601174243335 -1 0 0 I I #
coedge $-1 $72 $107 $74 $126 reversed $38 $-1 #
vertex $-1 $118 $176 #
straight-curve $-1 0 -22.989934471767029 5.774601174243335 1 0 0 I I #
edge $-1 $77 -5.774601174243335 $115 5.774601174243335 $74 $177 forward 7 unknown #
edge $-1 $78 -5.774601174243335 $114 5.774601174243335 $75 $178 forward 7 unknown #
point $-1 56.719260231330303 -22.989934471767029 5.774601174243335 #
point $-1 56.719260231330303 22.989934471767029 5.774601174243335 #
face $-1 $179 $145 $10 $-1 $180 reversed single #
loop $-1 $-1 $181 $80 #
plane-surface $-1 0 0 -5.774601174243335 0 0 1 1 0 0 forward_v I I I I #
coedge $-1 $86 $182 $83 $136 forward $81 $-1 #
coedge $-1 $135 $83 $183 $184 reversed $46 $-1 #
coedge $-1 $83 $134 $84 $138 forward $46 $-1 #
edge $-1 $185 21.843777874954995 $139 29.779480342578292 $133 $186 forward 7 unknown #
coedge $-1 $85 $84 $143 $187 reversed $29 $-1 #
edge $-1 $188 -1.756574927105486e-014 $139 9.8090677653455725 $135 $189 forward 7 unknown #
vertex $-1 $87 $190 #
straight-curve $-1 -2.6180566226658577 -15.054232004143731 5.774601174243335 1 0 0 I I #
vertex $-1 $187 $191 #
straight-curve $-1 10.988257439266679 -22.989934471767015 0.0089757293762033896 0 -0.80901698891910034 -0.5877852598018023 I I #
coedge $-1 $183 $89 $137 $187 forward $145 $-1 #
coedge $-1 $89 $192 $91 $148 reversed $145 $-1 #
loop $-1 $-1 $183 $130 #
straight-curve $-1 10.988257439266679 -22.989934471767029 45.891332990757817 0 0 -1 I I #
coedge $-1 $193 $91 $194 $195 forward $81 $-1 #
edge $-1 $93 10.988257439266679 $196 56.719260231330303 $144 $197 forward 7 unknown #
point $-1 10.988257439266679 -15.054232004143731 5.774601174243335 #
point $-1 10.988257439266679 -22.989934471767029 5.774601174243335 #
face $-1 $198 $199 $11 $-1 $200 forward single #
loop $-1 $-1 $201 $95 #
plane-surface $-1 -21.46048392993011 -89.667424693444048 91.782665981515635 1 0 0 0 0.5877852598018023 -0.80901698891910034 forward_v I I I I #
loop $-1 $-1 $202 $53 #
coedge $-1 $156 $98 $203 $204 forward $54 $-1 #
coedge $-1 $98 $155 $205 $206 reversed $54 $-1 #
coedge $-1 $207 $208 $98 $158 forward $199 $-1 #
edge $-1 $209 -29.779480342578292 $210 -21.843777874954995 $157 $211 forward 7 unknown #
edge $-1 $212 1 $212 0 $99 $-1 forward 7 unknown #
vertex $-1 $100 $213 #
ellipse-curve $-1 -5.2361132453317083 -15.640268539890107 -1.7628800661344752 0 -0.5877852598018023 0.80901698891910034 1.5 0 0 1 I I #
point $-1 -3.7361132453317083 -19.022083237955382 2.8917884518097656 #
plane-surface $-1 56.719260231330303 0 0 -1 0 0 0 0 1 forward_v I I I I #
coedge $-1 $108 $106 $110 $168 reversed $62 $-1 #
edge $-1 $121 -5.774601174243335 $170 5.774601174243335 $120 $214 forward 7 unknown #
vertex $-1 $168 $215 #
straight-curve $-1 -56.719260231330303 -22.989934471767029 0 0 0 -1 I I #
edge $-1 $166 -22.989934471767029 $170 22.989934471767029 $164 $216 forward 7 unknown #
straight-curve $-1 0 -22.989934471767029 -5.774601174243335 -1 0 0 I I #
vertex $-1 $113 $217 #
straight-curve $-1 0 22.989934471767029 -5.774601174243335 1 0 0 I I #
point $-1 56.719260231330303 22.989934471767029 -5.774601174243335 #
point $-1 56.719260231330303 -22.989934471767029 -5.774601174243335 #
straight-curve $-1 -56.719260231330303 0 5.774601174243335 0 -1 0 I I #
point $-1 -56.719260231330303 22.989934471767029 5.774601174243335 #
point $-1 -56.719260231330303 -22.989934471767029 5.774601174243335 #
straight-curve $-1 56.719260231330303 -22.989934471767029 0 0 0 -1 I I #
straight-curve $-1 56.719260231330303 22.989934471767029 0 0 0 -1 I I #
face $-1 $218 $219 $10 $-1 $220 reversed single #
plane-surface $-1 0 -22.989934471767029 0 0 1 0 0 0 1 forward_v I I I I #
coedge $-1 $221 $222 $223 $224 forward $131 $-1 #
coedge $-1 $133 $225 $226 $227 forward $81 $-1 #
coedge $-1 $226 $143 $134 $184 forward $145 $-1 #
edge $-1 $188 -45.882357261381621 $185 -40.116731816514481 $183 $228 forward 7 unknown #
vertex $-1 $184 $229 #
straight-curve $-1 -21.46048392993011 -44.833712346722024 5.7746011742433367 0 1 0 I I #
edge $-1 $141 -13.606314061932537 $188 18.842427307264252 $143 $230 forward 7 unknown #
vertex $-1 $187 $231 #
straight-curve $-1 -21.46048392993011 -22.989934471767015 0.0089757293762033896 0 0.80901698891910034 0.5877852598018023 I I #
point $-1 -21.46048392993011 -15.054232004143731 5.774601174243335 #
point $-1 10.988257439266679 -22.989934471767029 0.0089757293761930645 #
coedge $-1 $144 $232 $233 $234 reversed $145 $-1 #
coedge $-1 $225 $147 $235 $236 forward $81 $-1 #
coedge $-1 $233 $237 $147 $195 reversed $238 $-1 #
edge $-1 $196 -22.989934471767029 $239 22.989934471767029 $194 $240 forward 7 unknown #
vertex $-1 $195 $241 #
straight-curve $-1 0 -22.989934471767029 5.774601174243335 1 0 0 I I #
face $-1 $242 $243 $11 $-1 $244 reversed single #
loop $-1 $-1 $245 $151 #
plane-surface $-1 0 0 5.774601174243335 0 0 1 1 0 0 forward_v I I I I #
coedge $-1 $246 $247 $245 $248 reversed $152 $-1 #
coedge $-1 $249 $203 $208 $250 reversed $154 $-1 #
coedge $-1 $202 $251 $155 $204 reversed $154 $-1 #
edge $-1 $209 -9.8090677653455725 $252 1.756574927105486e-014 $155 $253 forward 7 unknown #
coedge $-1 $254 $255 $156 $206 forward $256 $-1 #
edge $-1 $210 40.116731816514481 $252 45.882357261381621 $205 $257 forward 7 unknown #
coedge $-1 $258 $157 $255 $259 forward $199 $-1 #
coedge $-1 $157 $245 $202 $250 forward $199 $-1 #
vertex $-1 $250 $260 #
vertex $-1 $259 $261 #
straight-curve $-1 10.988257439266679 -44.833712346722024 5.7746011742433367 0 -1 0 I I #
vertex $-1 $159 $262 #
point $-1 -3.7361132453317083 -15.640268539890107 -1.7628800661344752 #
straight-curve $-1 -56.719260231330303 22.989934471767029 0 0 0 -1 I I #
point $-1 -56.719260231330303 -22.989934471767029 -5.774601174243335 #
straight-curve $-1 -56.719260231330303 0 -5.774601174243335 0 1 0 I I #
point $-1 -56.719260231330303 22.989934471767029 -5.774601174243335 #
face $-1 $263 $264 $10 $-1 $265 reversed single #
loop $-1 $-1 $266 $179 #
plane-surface $-1 -56.719260231330303 0 0 1 0 0 0 0 -1 forward_v I I I I #
coedge $-1 $267 $181 $232 $268 forward $131 $-1 #
coedge $-1 $181 $267 $269 $270 forward $131 $-1 #
coedge $-1 $237 $233 $181 $224 reversed $238 $-1 #
edge $-1 $271 -22.989934471767029 $272 22.989934471767029 $223 $273 forward 7 unknown #
coedge $-1 $182 $193 $274 $275 forward $81 $-1 #
coedge $-1 $276 $183 $182 $227 reversed $145 $-1 #
edge $-1 $277 -56.719260231330303 $185 -21.46048392993011 $226 $197 forward 7 unknown #
straight-curve $-1 -21.46048392993011 -22.989934471767029 45.891332990757817 0 0 1 I I #
point $-1 -21.46048392993011 -22.989934471767029 5.774601174243335 #
straight-curve $-1 -2.6180566226658577 -22.989934471767029 0.008975729376191937 -1 0 0 I I #
point $-1 -21.46048392993011 -22.989934471767029 0.0089757293761930645 #
coedge $-1 $192 $276 $221 $268 reversed $145 $-1 #
coedge $-1 $223 $194 $192 $234 forward $238 $-1 #
edge $-1 $196 -5.774601174243335 $272 5.774601174243335 $233 $278 forward 7 unknown #
coedge $-1 $279 $280 $193 $236 reversed $264 $-1 #
edge $-1 $239 -56.719260231330303 $281 56.719260231330303 $235 $282 forward 7 unknown #
coedge $-1 $194 $223 $279 $283 reversed $238 $-1 #
loop $-1 $-1 $233 $263 #
vertex $-1 $195 $284 #
straight-curve $-1 56.719260231330303 0 5.774601174243335 0 1 0 I I #
point $-1 56.719260231330303 -22.989934471767029 5.774601174243335 #
face $-1 $285 $256 $11 $-1 $286 reversed single #
loop $-1 $-1 $287 $198 #
plane-surface $-1 0 0 -5.774601174243335 0 0 1 1 0 0 forward_v I I I I #
coedge $-1 $208 $288 $201 $248 forward $199 $-1 #
coedge $-1 $247 $201 $289 $290 reversed $152 $-1 #
coedge $-1 $201 $246 $249 $291 forward $152 $-1 #
edge $-1 $292 21.843777874954995 $293 29.779480342578292 $245 $294 forward 7 unknown #
coedge $-1 $251 $202 $247 $291 reversed $154 $-1 #
edge $-1 $293 -18.842427307264252 $209 13.606314061932537 $208 $295 forward 7 unknown #
coedge $-1 $203 $249 $254 $296 reversed $154 $-1 #
vertex $-1 $296 $297 #
straight-curve $-1 10.988257439266679 -22.989934471767015 0.0089757293762033896 0 -0.80901698891910034 -0.5877852598018023 I I #
coedge $-1 $289 $205 $251 $296 forward $256 $-1 #
coedge $-1 $205 $298 $207 $259 reversed $256 $-1 #
loop $-1 $-1 $289 $242 #
straight-curve $-1 10.988257439266679 -22.989934471767029 45.891332990757817 0 0 -1 I I #
coedge $-1 $299 $207 $300 $301 forward $199 $-1 #
edge $-1 $210 10.988257439266679 $302 56.719260231330303 $255 $303 forward 7 unknown #
point $-1 10.988257439266679 -15.054232004143731 5.774601174243335 #
point $-1 10.988257439266679 -22.989934471767029 5.774601174243335 #
point $-1 -5.2361132453317083 -14.758590650187402 -2.9764055495131259 #
face $-1 $-1 $238 $10 $-1 $304 reversed single #
loop $-1 $-1 $279 $218 #
plane-surface $-1 0 22.989934471767029 0 0 -1 0 0 0 -1 forward_v I I I I #
coedge $-1 $305 $274 $280 $306 forward $219 $-1 #
coedge $-1 $222 $221 $305 $307 forward $131 $-1 #
edge $-1 $272 -56.719260231330303 $308 56.719260231330303 $232 $309 forward 7 unknown #
coedge $-1 $280 $279 $222 $270 reversed $264 $-1 #
edge $-1 $310 -56.719260231330303 $271 56.719260231330303 $269 $311 forward 7 unknown #
vertex $-1 $224 $312 #
vertex $-1 $234 $313 #
straight-curve $-1 56.719260231330303 0 -5.774601174243335 0 -1 0 I I #
coedge $-1 $266 $314 $225 $275 reversed $219 $-1 #
edge $-1 $281 -22.989934471767029 $277 22.989934471767029 $274 $315 forward 7 unknown #
coedge $-1 $232 $226 $314 $316 forward $145 $-1 #
vertex $-1 $275 $317 #
straight-curve $-1 56.719260231330303 -22.989934471767029 0 0 0 -1 I I #
coedge $-1 $269 $235 $237 $283 forward $264 $-1 #
coedge $-1 $235 $269 $266 $306 reversed $264 $-1 #
vertex $-1 $236 $318 #
straight-curve $-1 0 22.989934471767029 5.774601174243335 -1 0 0 I I #
edge $-1 $239 -5.774601174243335 $271 5.774601174243335 $237 $319 forward 7 unknown #
point $-1 56.719260231330303 22.989934471767029 5.774601174243335 #
face $-1 $320 $321 $11 $-1 $322 reversed single #
plane-surface $-1 0 -22.989934471767029 0 0 1 0 0 0 1 forward_v I I I I #
coedge $-1 $323 $324 $325 $326 forward $243 $-1 #
coedge $-1 $245 $327 $328 $329 forward $199 $-1 #
coedge $-1 $328 $254 $246 $290 forward $256 $-1 #
edge $-1 $330 -45.882357261381621 $292 -40.116731816514481 $289 $331 forward 7 unknown #
edge $-1 $330 -1.756574927105486e-014 $293 9.8090677653455725 $247 $332 forward 7 unknown #
vertex $-1 $290 $333 #
vertex $-1 $250 $334 #
straight-curve $-1 -21.46048392993011 -44.833712346722024 5.7746011742433367 0 1 0 I I #
straight-curve $-1 -2.6180566226658577 -15.054232004143731 5.774601174243335 1 0 0 I I #
edge $-1 $252 -13.606314061932537 $330 18.842427307264252 $254 $335 forward 7 unknown #
point $-1 10.988257439266679 -22.989934471767029 0.0089757293761930645 #
coedge $-1 $255 $336 $337 $338 reversed $256 $-1 #
coedge $-1 $327 $258 $339 $340 forward $199 $-1 #
coedge $-1 $337 $341 $258 $301 reversed $342 $-1 #
edge $-1 $302 -22.989934471767029 $343 22.989934471767029 $300 $344 forward 7 unknown #
vertex $-1 $301 $345 #
straight-curve $-1 0 -22.989934471767029 5.774601174243335 1 0 0 I I #
plane-surface $-1 56.719260231330303 0 0 -1 0 0 0 0 1 forward_v I I I I #
coedge $-1 $314 $266 $267 $307 reversed $219 $-1 #
edge $-1 $281 -5.774601174243335 $310 5.774601174243335 $280 $346 forward 7 unknown #
edge $-1 $308 -22.989934471767029 $310 22.989934471767029 $305 $347 forward 7 unknown #
vertex $-1 $307 $348 #
straight-curve $-1 0 -22.989934471767029 -5.774601174243335 -1 0 0 I I #
vertex $-1 $270 $349 #
straight-curve $-1 0 22.989934471767029 -5.774601174243335 1 0 0 I I #
point $-1 56.719260231330303 22.989934471767029 -5.774601174243335 #
point $-1 56.719260231330303 -22.989934471767029 -5.774601174243335 #
coedge $-1 $274 $305 $276 $316 reversed $219 $-1 #
straight-curve $-1 -56.719260231330303 0 5.774601174243335 0 -1 0 I I #
edge $-1 $277 -5.774601174243335 $308 5.774601174243335 $314 $350 forward 7 unknown #
point $-1 -56.719260231330303 -22.989934471767029 5.774601174243335 #
point $-1 -56.719260231330303 22.989934471767029 5.774601174243335 #
straight-curve $-1 56.719260231330303 22.989934471767029 0 0 0 -1 I I #
face $-1 $351 $352 $11 $-1 $353 reversed single #
loop $-1 $-1 $354 $285 #
plane-surface $-1 -56.719260231330303 0 0 1 0 0 0 0 -1 forward_v I I I I #
coedge $-1 $355 $287 $336 $356 forward $243 $-1 #
coedge $-1 $287 $355 $357 $358 forward $243 $-1 #
coedge $-1 $341 $337 $287 $326 reversed $342 $-1 #
edge $-1 $359 -22.989934471767029 $360 22.989934471767029 $325 $361 forward 7 unknown #
coedge $-1 $288 $299 $362 $363 forward $199 $-1 #
coedge $-1 $364 $289 $288 $329 reversed $256 $-1 #
edge $-1 $365 -56.719260231330303 $292 -21.46048392993011 $328 $303 forward 7 unknown #
vertex $-1 $296 $366 #
straight-curve $-1 -21.46048392993011 -22.989934471767029 45.891332990757817 0 0 1 I I #
straight-curve $-1 -21.46048392993011 -22.989934471767015 0.0089757293762033896 0 0.80901698891910034 0.5877852598018023 I I #
point $-1 -21.46048392993011 -22.989934471767029 5.774601174243335 #
point $-1 -21.46048392993011 -15.054232004143731 5.774601174243335 #
straight-curve $-1 -2.6180566226658577 -22.989934471767029 0.008975729376191937 -1 0 0 I I #
coedge $-1 $298 $364 $323 $356 reversed $256 $-1 #
coedge $-1 $325 $300 $298 $338 forward $342 $-1 #
edge $-1 $302 -5.774601174243335 $360 5.774601174243335 $337 $367 forward 7 unknown #
coedge $-1 $368 $369 $299 $340 reversed $352 $-1 #
edge $-1 $343 -56.719260231330303 $370 56.719260231330303 $339 $371 forward 7 unknown #
coedge $-1 $300 $325 $368 $372 reversed $342 $-1 #
loop $-1 $-1 $337 $351 #
vertex $-1 $301 $373 #
straight-curve $-1 56.719260231330303 0 5.774601174243335 0 1 0 I I #
point $-1 56.719260231330303 -22.989934471767029 5.774601174243335 #
straight-curve $-1 -56.719260231330303 22.989934471767029 0 0 0 -1 I I #
straight-curve $-1 -56.719260231330303 0 -5.774601174243335 0 1 0 I I #
point $-1 -56.719260231330303 -22.989934471767029 -5.774601174243335 #
point $-1 -56.719260231330303 22.989934471767029 -5.774601174243335 #
straight-curve $-1 -56.719260231330303 -22.989934471767029 0 0 0 -1 I I #
face $-1 $-1 $342 $11 $-1 $374 reversed single #
loop $-1 $-1 $368 $320 #
plane-surface $-1 0 22.989934471767029 0 0 -1 0 0 0 -1 forward_v I I I I #
coedge $-1 $375 $362 $369 $376 forward $321 $-1 #
coedge $-1 $324 $323 $375 $377 forward $243 $-1 #
edge $-1 $360 -56.719260231330303 $378 56.719260231330303 $336 $379 forward 7 unknown #
coedge $-1 $369 $368 $324 $358 reversed $352 $-1 #
edge $-1 $380 -56.719260231330303 $359 56.719260231330303 $357 $381 forward 7 unknown #
vertex $-1 $326 $382 #
vertex $-1 $338 $383 #
straight-curve $-1 56.719260231330303 0 -5.774601174243335 0 -1 0 I I #
coedge $-1 $354 $384 $327 $363 reversed $321 $-1 #
edge $-1 $370 -22.989934471767029 $365 22.989934471767029 $362 $385 forward 7 unknown #
coedge $-1 $336 $328 $384 $386 forward $256 $-1 #
vertex $-1 $363 $387 #
point $-1 -21.46048392993011 -22.989934471767029 0.0089757293761930645 #
straight-curve $-1 56.719260231330303 -22.989934471767029 0 0 0 -1 I I #
coedge $-1 $357 $339 $341 $372 forward $352 $-1 #
coedge $-1 $339 $357 $354 $376 reversed $352 $-1 #
vertex $-1 $340 $388 #
straight-curve $-1 0 22.989934471767029 5.774601174243335 -1 0 0 I I #
edge $-1 $343 -5.774601174243335 $359 5.774601174243335 $341 $389 forward 7 unknown #
point $-1 56.719260231330303 22.989934471767029 5.774601174243335 #
plane-surface $-1 56.719260231330303 0 0 -1 0 0 0 0 1 forward_v I I I I #
coedge $-1 $384 $354 $355 $377 reversed $321 $-1 #
edge $-1 $370 -5.774601174243335 $380 5.774601174243335 $369 $390 forward 7 unknown #
edge $-1 $378 -22.989934471767029 $380 22.989934471767029 $375 $391 forward 7 unknown #
vertex $-1 $377 $392 #
straight-curve $-1 0 -22.989934471767029 -5.774601174243335 -1 0 0 I I #
vertex $-1 $358 $393 #
straight-curve $-1 0 22.989934471767029 -5.774601174243335 1 0 0 I I #
point $-1 56.719260231330303 22.989934471767029 -5.774601174243335 #
point $-1 56.719260231330303 -22.989934471767029 -5.774601174243335 #
coedge $-1 $362 $375 $364 $386 reversed $321 $-1 #
straight-curve $-1 -56.719260231330303 0 5.774601174243335 0 -1 0 I I #
edge $-1 $365 -5.774601174243335 $378 5.774601174243335 $384 $394 forward 7 unknown #
point $-1 -56.719260231330303 -22.989934471767029 5.774601174243335 #
point $-1 -56.719260231330303 22.989934471767029 5.774601174243335 #
straight-curve $-1 56.719260231330303 22.989934471767029 0 0 0 -1 I I #
straight-curve $-1 -56.719260231330303 22.989934471767029 0 0 0 -1 I I #
straight-curve $-1 -56.719260231330303 0 -5.774601174243335 0 1 0 I I #
point $-1 -56.719260231330303 -22.989934471767029 -5.774601174243335 #
point $-1 -56.719260231330303 22.989934471767029 -5.774601174243335 #
straight-curve $-1 -56.719260231330303 -22.989934471767029 0 0 0 -1 I I #
End-of-ACIS-data 