500 0 15 0           
7 Unknown 11 ACIS 5.0 NT 24 Fri Mar 26 15:20:11 1999 
-1 9.9999999999999995e-007 1e-010 
body $-1 $15 $-1 $16 #
body $-1 $17 $-1 $18 #
body $-1 $19 $-1 $20 #
body $-1 $21 $-1 $22 #
body $-1 $23 $-1 $24 #
body $-1 $25 $-1 $26 #
body $-1 $27 $-1 $28 #
body $-1 $29 $-1 $30 #
body $-1 $31 $-1 $32 #
body $-1 $33 $-1 $34 #
body $-1 $35 $-1 $36 #
body $-1 $37 $-1 $38 #
body $-1 $39 $-1 $40 #
body $-1 $41 $-1 $42 #
body $-1 $43 $-1 $44 #
lump $-1 $-1 $45 $0 #
transform $-1 1 0 0 0 1 0 0 0 1 74.737388225959052 38.023989124342123 14.624155953907795 1 rotate no_reflect no_shear #
lump $-1 $-1 $46 $1 #
transform $-1 1 0 0 0 1 0 0 0 1 74.737388225959052 38.023989124342123 14.624155953907795 1 rotate no_reflect no_shear #
lump $-1 $-1 $47 $2 #
transform $-1 1 0 0 0 1 0 0 0 1 74.737388225959052 38.023989124342123 14.624155953907795 1 rotate no_reflect no_shear #
lump $-1 $-1 $48 $3 #
transform $-1 1 0 0 0 1 0 0 0 1 74.737388225959052 38.023989124342123 14.624155953907795 1 rotate no_reflect no_shear #
lump $-1 $-1 $49 $4 #
transform $-1 1 0 0 0 1 0 0 0 1 74.737388225959052 38.023989124342123 14.624155953907795 1 rotate no_reflect no_shear #
lump $-1 $-1 $50 $5 #
transform $-1 1 0 0 0 1 0 0 0 1 74.737388225959052 38.023989124342123 14.624155953907795 1 rotate no_reflect no_shear #
lump $-1 $-1 $51 $6 #
transform $-1 1 0 0 0 1 0 0 0 1 74.737388225959052 38.023989124342123 14.624155953907795 1 rotate no_reflect no_shear #
lump $-1 $-1 $52 $7 #
transform $-1 1 0 0 0 1 0 0 0 1 74.737388225959052 38.023989124342123 14.624155953907795 1 rotate no_reflect no_shear #
lump $-1 $-1 $53 $8 #
transform $-1 1 0 0 0 1 0 0 0 1 74.737388225959052 38.023989124342123 14.624155953907795 1 rotate no_reflect no_shear #
lump $-1 $-1 $54 $9 #
transform $-1 1 0 0 0 1 0 0 0 1 74.737388225959052 38.023989124342123 14.624155953907795 1 rotate no_reflect no_shear #
lump $-1 $-1 $55 $10 #
transform $-1 1 0 0 0 1 0 0 0 1 74.737388225959052 38.023989124342123 14.624155953907795 1 rotate no_reflect no_shear #
lump $-1 $-1 $56 $11 #
transform $-1 1 0 0 0 1 0 0 0 1 74.737388225959052 38.023989124342123 14.624155953907795 1 rotate no_reflect no_shear #
lump $-1 $-1 $57 $12 #
transform $-1 1 0 0 0 1 0 0 0 1 74.737388225959052 38.023989124342123 14.624155953907795 1 rotate no_reflect no_shear #
lump $-1 $-1 $58 $13 #
transform $-1 1 0 0 0 1 0 0 0 1 74.737388225959052 38.023989124342123 14.624155953907795 1 rotate no_reflect no_shear #
lump $-1 $-1 $59 $14 #
transform $-1 1 0 0 0 1 0 0 0 1 74.737388225959052 38.023989124342123 14.624155953907795 1 rotate no_reflect no_shear #
shell $-1 $-1 $-1 $60 $-1 $15 #
shell $-1 $-1 $-1 $61 $-1 $17 #
shell $-1 $-1 $-1 $62 $-1 $19 #
shell $-1 $-1 $-1 $63 $-1 $21 #
shell $-1 $-1 $-1 $64 $-1 $23 #
shell $-1 $-1 $-1 $65 $-1 $25 #
shell $-1 $-1 $-1 $66 $-1 $27 #
shell $-1 $-1 $-1 $67 $-1 $29 #
shell $-1 $-1 $-1 $68 $-1 $31 #
shell $-1 $-1 $-1 $69 $-1 $33 #
shell $-1 $-1 $-1 $70 $-1 $35 #
shell $-1 $-1 $-1 $71 $-1 $37 #
shell $-1 $-1 $-1 $72 $-1 $39 #
shell $-1 $-1 $-1 $73 $-1 $41 #
shell $-1 $-1 $-1 $74 $-1 $43 #
face $-1 $75 $76 $45 $-1 $77 forward single #
face $-1 $78 $79 $46 $-1 $80 forward single #
face $-1 $81 $82 $47 $-1 $83 forward single #
face $-1 $84 $85 $48 $-1 $86 reversed single #
face $-1 $87 $88 $49 $-1 $89 forward single #
face $-1 $90 $91 $50 $-1 $92 forward single #
face $-1 $93 $94 $51 $-1 $95 reversed single #
face $-1 $96 $97 $52 $-1 $98 forward single #
face $-1 $99 $100 $53 $-1 $101 forward single #
face $-1 $102 $103 $54 $-1 $104 reversed single #
face $-1 $105 $106 $55 $-1 $107 forward single #
face $-1 $108 $109 $56 $-1 $110 forward single #
face $-1 $111 $112 $57 $-1 $113 reversed single #
face $-1 $114 $115 $58 $-1 $116 forward single #
face $-1 $117 $118 $59 $-1 $119 forward single #
face $-1 $120 $121 $45 $-1 $122 reversed single #
loop $-1 $-1 $123 $60 #
plane-surface $-1 0 0 14.624155953907795 0 0 1 1 0 0 forward_v I I I I #
face $-1 $124 $125 $46 $-1 $126 reversed single #
loop $-1 $-1 $127 $61 #
plane-surface $-1 -65.548645475119585 0 -6.7579872876391427 0 0 1 1 0 0 forward_v I I I I #
face $-1 $128 $129 $47 $-1 $130 reversed single #
loop $-1 $-1 $131 $62 #
plane-surface $-1 65.548645475119571 0 -6.7579872876391427 0 0 1 1 0 0 forward_v I I I I #
face $-1 $132 $133 $48 $-1 $134 reversed single #
loop $-1 $-1 $135 $63 #
plane-surface $-1 -38.199016589219802 89.944577904908456 169.3222577112364 -1 0 0 0 0.70710678939079041 0.70710677298230451 forward_v I I I I #
face $-1 $136 $137 $49 $-1 $138 forward single #
loop $-1 $139 $140 $64 #
cone-surface $-1 -49.323615972480219 34.698029534747768 11.29819633079118 0 -0.70710678939079041 -0.70710677298230451 1 0 0 1 I I 0 1 1 forward I I I I #
face $-1 $141 $142 $50 $-1 $143 forward single #
loop $-1 $144 $145 $65 #
cone-surface $-1 -42.64885634252397 34.698029534747768 11.29819633079118 0 -0.70710678939079041 -0.70710677298230451 1 0 0 1 I I 0 1 1 forward I I I I #
face $-1 $146 $147 $51 $-1 $148 reversed single #
loop $-1 $-1 $149 $66 #
plane-surface $-1 -10.019065227079734 89.944577904908456 169.3222577112364 -1 0 0 0 0.70710678939079041 0.70710677298230451 forward_v I I I I #
face $-1 $150 $151 $52 $-1 $152 forward single #
loop $-1 $153 $154 $67 #
cone-surface $-1 -21.143664610340153 34.698029534747768 11.29819633079118 0 -0.70710678939079041 -0.70710677298230451 1 0 0 1 I I 0 1 1 forward I I I I #
face $-1 $155 $156 $53 $-1 $157 forward single #
loop $-1 $158 $159 $68 #
cone-surface $-1 -14.468904980383904 34.698029534747768 11.29819633079118 0 -0.70710678939079041 -0.70710677298230451 1 0 0 1 I I 0 1 1 forward I I I I #
face $-1 $160 $161 $54 $-1 $162 reversed single #
loop $-1 $-1 $163 $69 #
plane-surface $-1 18.160886135060331 89.944577904908456 169.3222577112364 -1 0 0 0 0.70710678939079041 0.70710677298230451 forward_v I I I I #
face $-1 $164 $165 $55 $-1 $166 forward single #
loop $-1 $167 $168 $70 #
cone-surface $-1 7.0362867517999064 34.698029534747768 11.29819633079118 0 -0.70710678939079041 -0.70710677298230451 1 0 0 1 I I 0 1 1 forward I I I I #
face $-1 $169 $170 $56 $-1 $171 forward single #
loop $-1 $172 $173 $71 #
cone-surface $-1 13.711046381756162 34.698029534747768 11.29819633079118 0 -0.70710678939079041 -0.70710677298230451 1 0 0 1 I I 0 1 1 forward I I I I #
face $-1 $174 $175 $57 $-1 $176 reversed single #
loop $-1 $-1 $177 $72 #
plane-surface $-1 46.34083749720039 89.944577904908456 169.3222577112364 -1 0 0 0 0.70710678939079041 0.70710677298230451 forward_v I I I I #
face $-1 $178 $179 $58 $-1 $180 forward single #
loop $-1 $181 $182 $73 #
cone-surface $-1 35.216238113939966 34.698029534747768 11.29819633079118 0 -0.70710678939079041 -0.70710677298230451 1 0 0 1 I I 0 1 1 forward I I I I #
face $-1 $183 $184 $59 $-1 $185 forward single #
loop $-1 $186 $187 $74 #
cone-surface $-1 41.890997743896236 34.698029534747768 11.29819633079118 0 -0.70710678939079041 -0.70710677298230451 1 0 0 1 I I 0 1 1 forward I I I I #
face $-1 $188 $189 $45 $-1 $190 reversed single #
loop $-1 $-1 $191 $75 #
plane-surface $-1 0 0 -14.624155953907795 0 0 1 1 0 0 forward_v I I I I #
coedge $-1 $192 $193 $194 $195 forward $76 $-1 #
face $-1 $196 $197 $46 $-1 $198 reversed single #
loop $-1 $-1 $199 $78 #
plane-surface $-1 -56.359902724280126 0 -10.691071620773469 -1 0 0 0 0 1 forward_v I I I I #
coedge $-1 $200 $201 $202 $203 forward $79 $-1 #
face $-1 $204 $205 $47 $-1 $206 reversed single #
loop $-1 $-1 $207 $81 #
plane-surface $-1 56.359902724280104 0 -10.691071620773469 1 0 0 0 0 -1 forward_v I I I I #
coedge $-1 $208 $209 $210 $211 reversed $82 $-1 #
face $-1 $212 $213 $48 $-1 $214 reversed single #
loop $-1 $-1 $215 $84 #
plane-surface $-1 -45.986236157502091 -15.750051366913482 63.627630892069234 0 0.70710678939079041 0.70710677298230451 1 0 0 forward_v I I I I #
coedge $-1 $216 $217 $218 $219 reversed $85 $-1 #
face $-1 $-1 $220 $49 $-1 $221 forward single #
loop $-1 $222 $223 $87 #
cone-surface $-1 -49.323615972480219 33.403799895570444 10.003966721646592 0 -0.70710678939079041 -0.70710677298230451 0.5 0 0 1 I I -0.70710678118654746 0.70710678118654746 0.5 forward I I I I #
loop $-1 $-1 $224 $64 #
coedge $-1 $140 $140 $225 $226 reversed $88 $-1 #
face $-1 $-1 $227 $50 $-1 $228 forward single #
loop $-1 $229 $230 $90 #
cone-surface $-1 -42.64885634252397 33.403799895570444 10.003966721646592 0 -0.70710678939079041 -0.70710677298230451 0.5 0 0 1 I I -0.70710678118654746 0.70710678118654746 0.5 forward I I I I #
loop $-1 $-1 $231 $65 #
coedge $-1 $145 $145 $232 $233 reversed $91 $-1 #
face $-1 $234 $235 $51 $-1 $236 reversed single #
loop $-1 $-1 $237 $93 #
plane-surface $-1 -17.806284795362025 -15.750051366913482 63.627630892069234 0 0.70710678939079041 0.70710677298230451 1 0 0 forward_v I I I I #
coedge $-1 $238 $239 $240 $241 reversed $94 $-1 #
face $-1 $-1 $242 $52 $-1 $243 forward single #
loop $-1 $244 $245 $96 #
cone-surface $-1 -21.143664610340153 33.403799895570444 10.003966721646592 0 -0.70710678939079041 -0.70710677298230451 0.5 0 0 1 I I -0.70710678118654746 0.70710678118654746 0.5 forward I I I I #
loop $-1 $-1 $246 $67 #
coedge $-1 $154 $154 $247 $248 reversed $97 $-1 #
face $-1 $-1 $249 $53 $-1 $250 forward single #
loop $-1 $251 $252 $99 #
cone-surface $-1 -14.468904980383904 33.403799895570444 10.003966721646592 0 -0.70710678939079041 -0.70710677298230451 0.5 0 0 1 I I -0.70710678118654746 0.70710678118654746 0.5 forward I I I I #
loop $-1 $-1 $253 $68 #
coedge $-1 $159 $159 $254 $255 reversed $100 $-1 #
face $-1 $256 $257 $54 $-1 $258 reversed single #
loop $-1 $-1 $259 $102 #
plane-surface $-1 10.373666566778041 -15.750051366913482 63.627630892069234 0 0.70710678939079041 0.70710677298230451 1 0 0 forward_v I I I I #
coedge $-1 $260 $261 $262 $263 reversed $103 $-1 #
face $-1 $-1 $264 $55 $-1 $265 forward single #
loop $-1 $266 $267 $105 #
cone-surface $-1 7.0362867517999064 33.403799895570444 10.003966721646592 0 -0.70710678939079041 -0.70710677298230451 0.5 0 0 1 I I -0.70710678118654746 0.70710678118654746 0.5 forward I I I I #
loop $-1 $-1 $268 $70 #
coedge $-1 $168 $168 $269 $270 reversed $106 $-1 #
face $-1 $-1 $271 $56 $-1 $272 forward single #
loop $-1 $273 $274 $108 #
cone-surface $-1 13.711046381756162 33.403799895570444 10.003966721646592 0 -0.70710678939079041 -0.70710677298230451 0.5 0 0 1 I I -0.70710678118654746 0.70710678118654746 0.5 forward I I I I #
loop $-1 $-1 $275 $71 #
coedge $-1 $173 $173 $276 $277 reversed $109 $-1 #
face $-1 $278 $279 $57 $-1 $280 reversed single #
loop $-1 $-1 $281 $111 #
plane-surface $-1 38.553617928918101 -15.750051366913482 63.627630892069234 0 0.70710678939079041 0.70710677298230451 1 0 0 forward_v I I I I #
coedge $-1 $282 $283 $284 $285 reversed $112 $-1 #
face $-1 $-1 $286 $58 $-1 $287 forward single #
loop $-1 $288 $289 $114 #
cone-surface $-1 35.216238113939966 33.403799895570444 10.003966721646592 0 -0.70710678939079041 -0.70710677298230451 0.5 0 0 1 I I -0.70710678118654746 0.70710678118654746 0.5 forward I I I I #
loop $-1 $-1 $290 $73 #
coedge $-1 $182 $182 $291 $292 reversed $115 $-1 #
face $-1 $-1 $293 $59 $-1 $294 forward single #
loop $-1 $295 $296 $117 #
cone-surface $-1 41.890997743896236 33.403799895570444 10.003966721646592 0 -0.70710678939079041 -0.70710677298230451 0.5 0 0 1 I I -0.70710678118654746 0.70710678118654746 0.5 forward I I I I #
loop $-1 $-1 $297 $74 #
coedge $-1 $187 $187 $298 $299 reversed $118 $-1 #
face $-1 $300 $301 $45 $-1 $302 reversed single #
loop $-1 $-1 $303 $120 #
plane-surface $-1 0 -38.023989124342123 0 0 1 0 0 0 1 forward_v I I I I #
coedge $-1 $304 $305 $306 $307 forward $121 $-1 #
coedge $-1 $308 $123 $309 $310 forward $76 $-1 #
coedge $-1 $123 $308 $311 $312 forward $76 $-1 #
coedge $-1 $313 $314 $123 $195 reversed $315 $-1 #
edge $-1 $316 -38.023989124342123 $317 38.023989124342123 $194 $318 forward 7 unknown #
face $-1 $319 $320 $46 $-1 $321 reversed single #
loop $-1 $-1 $322 $124 #
plane-surface $-1 0 0 -14.624155953907795 0 0 1 1 0 0 forward_v I I I I #
coedge $-1 $323 $202 $324 $325 reversed $125 $-1 #
coedge $-1 $326 $127 $327 $328 reversed $79 $-1 #
coedge $-1 $127 $326 $329 $330 reversed $79 $-1 #
coedge $-1 $199 $331 $127 $203 reversed $125 $-1 #
edge $-1 $332 -38.023989124342123 $333 38.023989124342123 $202 $334 forward 7 unknown #
face $-1 $335 $336 $47 $-1 $337 reversed single #
loop $-1 $-1 $338 $128 #
plane-surface $-1 0 -38.023989124342123 0 0 1 0 0 0 1 forward_v I I I I #
coedge $-1 $339 $340 $341 $342 reversed $129 $-1 #
coedge $-1 $343 $131 $344 $345 reversed $82 $-1 #
coedge $-1 $131 $343 $338 $346 reversed $82 $-1 #
coedge $-1 $347 $348 $131 $211 forward $349 $-1 #
edge $-1 $350 -38.023989124342123 $351 38.023989124342123 $210 $352 forward 7 unknown #
face $-1 $353 $354 $48 $-1 $355 reversed single #
loop $-1 $-1 $356 $132 #
plane-surface $-1 -53.77345572578438 89.944577904908456 169.3222577112364 1 0 0 0 -0.70710678939079041 -0.70710677298230451 forward_v I I I I #
coedge $-1 $357 $358 $359 $360 reversed $133 $-1 #
coedge $-1 $217 $135 $361 $362 reversed $85 $-1 #
coedge $-1 $135 $216 $357 $363 reversed $85 $-1 #
coedge $-1 $359 $364 $135 $219 forward $354 $-1 #
edge $-1 $365 70.036972901710413 $366 74.807539702636745 $218 $367 forward 7 unknown #
loop $-1 $-1 $225 $136 #
plane-surface $-1 -45.986236157502091 -15.750051366913482 63.627630892069234 0 0.70710678939079041 0.70710677298230451 1 0 0 forward_v I I I I #
loop $-1 $-1 $368 $87 #
coedge $-1 $223 $223 $224 $369 reversed $137 $-1 #
coedge $-1 $224 $224 $223 $369 forward $139 $-1 #
coedge $-1 $225 $225 $140 $226 forward $220 $-1 #
edge $-1 $370 -2.5121478464520618e-015 $370 6.2831853071795978 $225 $371 forward 7 unknown #
loop $-1 $-1 $232 $141 #
plane-surface $-1 -45.986236157502091 -15.750051366913482 63.627630892069234 0 0.70710678939079041 0.70710677298230451 1 0 0 forward_v I I I I #
loop $-1 $-1 $372 $90 #
coedge $-1 $230 $230 $231 $373 reversed $142 $-1 #
coedge $-1 $231 $231 $230 $373 forward $144 $-1 #
coedge $-1 $232 $232 $145 $233 forward $227 $-1 #
edge $-1 $374 -2.5121478464520618e-015 $374 6.2831853071795978 $232 $375 forward 7 unknown #
face $-1 $376 $377 $51 $-1 $378 forward single #
loop $-1 $-1 $379 $146 #
plane-surface $-1 -25.593504363644314 89.944577904908456 169.3222577112364 1 0 0 0 -0.70710678939079041 -0.70710677298230451 forward_v I I I I #
coedge $-1 $380 $381 $382 $383 reversed $147 $-1 #
coedge $-1 $239 $149 $384 $385 reversed $94 $-1 #
coedge $-1 $149 $238 $380 $386 reversed $94 $-1 #
coedge $-1 $382 $387 $149 $241 forward $388 $-1 #
edge $-1 $389 70.036972901710413 $390 74.807539702636745 $240 $391 forward 7 unknown #
loop $-1 $-1 $247 $150 #
plane-surface $-1 -17.806284795362025 -15.750051366913482 63.627630892069234 0 0.70710678939079041 0.70710677298230451 1 0 0 forward_v I I I I #
loop $-1 $-1 $392 $96 #
coedge $-1 $245 $245 $246 $393 reversed $151 $-1 #
coedge $-1 $246 $246 $245 $393 forward $153 $-1 #
coedge $-1 $247 $247 $154 $248 forward $242 $-1 #
edge $-1 $394 -2.5121478464520618e-015 $394 6.2831853071795978 $247 $395 forward 7 unknown #
loop $-1 $-1 $254 $155 #
plane-surface $-1 -17.806284795362025 -15.750051366913482 63.627630892069234 0 0.70710678939079041 0.70710677298230451 1 0 0 forward_v I I I I #
loop $-1 $-1 $396 $99 #
coedge $-1 $252 $252 $253 $397 reversed $156 $-1 #
coedge $-1 $253 $253 $252 $397 forward $158 $-1 #
coedge $-1 $254 $254 $159 $255 forward $249 $-1 #
edge $-1 $398 -2.5121478464520618e-015 $398 6.2831853071795978 $254 $399 forward 7 unknown #
face $-1 $400 $401 $54 $-1 $402 forward single #
loop $-1 $-1 $403 $160 #
plane-surface $-1 2.5864469984957505 89.944577904908456 169.3222577112364 1 0 0 0 -0.70710678939079041 -0.70710677298230451 forward_v I I I I #
coedge $-1 $404 $405 $406 $407 reversed $161 $-1 #
coedge $-1 $261 $163 $408 $409 reversed $103 $-1 #
coedge $-1 $163 $260 $404 $410 reversed $103 $-1 #
coedge $-1 $406 $411 $163 $263 forward $412 $-1 #
edge $-1 $413 70.036972901710413 $414 74.807539702636745 $262 $415 forward 7 unknown #
loop $-1 $-1 $269 $164 #
plane-surface $-1 10.373666566778041 -15.750051366913482 63.627630892069234 0 0.70710678939079041 0.70710677298230451 1 0 0 forward_v I I I I #
loop $-1 $-1 $416 $105 #
coedge $-1 $267 $267 $268 $417 reversed $165 $-1 #
coedge $-1 $268 $268 $267 $417 forward $167 $-1 #
coedge $-1 $269 $269 $168 $270 forward $264 $-1 #
edge $-1 $418 -2.5121478464520618e-015 $418 6.2831853071795978 $269 $419 forward 7 unknown #
loop $-1 $-1 $276 $169 #
plane-surface $-1 10.373666566778041 -15.750051366913482 63.627630892069234 0 0.70710678939079041 0.70710677298230451 1 0 0 forward_v I I I I #
loop $-1 $-1 $420 $108 #
coedge $-1 $274 $274 $275 $421 reversed $170 $-1 #
coedge $-1 $275 $275 $274 $421 forward $172 $-1 #
coedge $-1 $276 $276 $173 $277 forward $271 $-1 #
edge $-1 $422 -2.5121478464520618e-015 $422 6.2831853071795978 $276 $423 forward 7 unknown #
face $-1 $424 $425 $57 $-1 $426 forward single #
loop $-1 $-1 $427 $174 #
plane-surface $-1 30.766398360635812 89.944577904908456 169.3222577112364 1 0 0 0 -0.70710678939079041 -0.70710677298230451 forward_v I I I I #
coedge $-1 $428 $429 $430 $431 reversed $175 $-1 #
coedge $-1 $283 $177 $432 $433 reversed $112 $-1 #
coedge $-1 $177 $282 $428 $434 reversed $112 $-1 #
coedge $-1 $430 $435 $177 $285 forward $436 $-1 #
edge $-1 $437 70.036972901710413 $438 74.807539702636745 $284 $439 forward 7 unknown #
loop $-1 $-1 $291 $178 #
plane-surface $-1 38.553617928918101 -15.750051366913482 63.627630892069234 0 0.70710678939079041 0.70710677298230451 1 0 0 forward_v I I I I #
loop $-1 $-1 $440 $114 #
coedge $-1 $289 $289 $290 $441 reversed $179 $-1 #
coedge $-1 $290 $290 $289 $441 forward $181 $-1 #
coedge $-1 $291 $291 $182 $292 forward $286 $-1 #
edge $-1 $442 -2.5121478464520618e-015 $442 6.2831853071795978 $291 $443 forward 7 unknown #
loop $-1 $-1 $298 $183 #
plane-surface $-1 38.553617928918101 -15.750051366913482 63.627630892069234 0 0.70710678939079041 0.70710677298230451 1 0 0 forward_v I I I I #
loop $-1 $-1 $444 $117 #
coedge $-1 $296 $296 $297 $445 reversed $184 $-1 #
coedge $-1 $297 $297 $296 $445 forward $186 $-1 #
coedge $-1 $298 $298 $187 $299 forward $293 $-1 #
edge $-1 $446 -2.5121478464520618e-015 $446 6.2831853071795978 $298 $447 forward 7 unknown #
face $-1 $448 $449 $45 $-1 $450 reversed single #
loop $-1 $-1 $451 $188 #
plane-surface $-1 -74.737388225959052 0 0 1 0 0 0 0 -1 forward_v I I I I #
coedge $-1 $452 $311 $453 $454 forward $189 $-1 #
coedge $-1 $455 $191 $452 $456 forward $121 $-1 #
coedge $-1 $191 $455 $457 $458 forward $121 $-1 #
coedge $-1 $314 $313 $191 $307 reversed $315 $-1 #
edge $-1 $459 -38.023989124342123 $460 38.023989124342123 $306 $461 forward 7 unknown #
coedge $-1 $193 $192 $462 $463 forward $76 $-1 #
coedge $-1 $464 $465 $192 $310 reversed $449 $-1 #
edge $-1 $317 -74.737388225959052 $466 74.737388225959052 $309 $467 forward 7 unknown #
coedge $-1 $303 $468 $193 $312 reversed $189 $-1 #
edge $-1 $469 -74.737388225959052 $316 74.737388225959052 $311 $470 forward 7 unknown #
coedge $-1 $306 $194 $468 $471 forward $315 $-1 #
coedge $-1 $194 $306 $464 $472 reversed $315 $-1 #
loop $-1 $-1 $313 $448 #
vertex $-1 $195 $473 #
vertex $-1 $195 $474 #
straight-curve $-1 74.737388225959052 0 14.624155953907795 0 1 0 I I #
face $-1 $475 $476 $46 $-1 $477 reversed single #
loop $-1 $-1 $324 $196 #
plane-surface $-1 0 -38.023989124342123 0 0 1 0 0 0 1 forward_v I I I I #
coedge $-1 $478 $479 $323 $480 forward $197 $-1 #
coedge $-1 $331 $199 $322 $480 reversed $125 $-1 #
coedge $-1 $329 $481 $199 $325 forward $320 $-1 #
edge $-1 $482 -9.27862014352106 $332 -1.4124514772524082 $324 $483 forward 7 unknown #
coedge $-1 $201 $200 $484 $485 reversed $79 $-1 #
coedge $-1 $486 $487 $200 $328 forward $488 $-1 #
edge $-1 $489 -41.963065488399259 $333 -23.585579986720333 $327 $490 forward 7 unknown #
coedge $-1 $491 $324 $201 $330 forward $320 $-1 #
edge $-1 $332 23.585579986720333 $492 41.963065488399259 $329 $493 forward 7 unknown #
coedge $-1 $202 $323 $486 $494 reversed $125 $-1 #
vertex $-1 $330 $495 #
vertex $-1 $328 $496 #
straight-curve $-1 -56.359902724280126 0 -6.7579872876391427 0 1 0 I I #
face $-1 $497 $498 $47 $-1 $499 reversed single #
loop $-1 $-1 $500 $204 #
plane-surface $-1 0 0 -14.624155953907795 0 0 1 1 0 0 forward_v I I I I #
coedge $-1 $501 $502 $209 $346 forward $205 $-1 #
coedge $-1 $503 $207 $500 $504 reversed $129 $-1 #
coedge $-1 $207 $503 $343 $505 reversed $129 $-1 #
coedge $-1 $344 $506 $207 $342 forward $498 $-1 #
edge $-1 $507 -9.27862014352106 $508 -1.4124514772524082 $341 $509 forward 7 unknown #
coedge $-1 $209 $208 $340 $505 forward $82 $-1 #
coedge $-1 $510 $341 $208 $345 forward $498 $-1 #
edge $-1 $508 23.585579986720319 $350 41.963065488399252 $344 $511 forward 7 unknown #
edge $-1 $351 -41.963065488399252 $512 -23.585579986720319 $338 $513 forward 7 unknown #
coedge $-1 $514 $210 $502 $515 forward $349 $-1 #
coedge $-1 $210 $514 $510 $516 reversed $349 $-1 #
loop $-1 $-1 $210 $497 #
vertex $-1 $516 $517 #
vertex $-1 $515 $518 #
straight-curve $-1 74.737388225959052 0 -6.7579872876391427 0 -1 0 I I #
face $-1 $-1 $519 $48 $-1 $520 forward single #
loop $-1 $-1 $218 $212 #
plane-surface $-1 0 38.023989124342123 0 0 -1 0 0 0 -1 forward_v I I I I #
coedge $-1 $521 $522 $523 $524 reversed $213 $-1 #
coedge $-1 $525 $215 $217 $363 forward $133 $-1 #
coedge $-1 $215 $525 $521 $526 forward $133 $-1 #
coedge $-1 $523 $218 $215 $360 forward $354 $-1 #
edge $-1 $366 15.205898510468757 $527 30.780337647033335 $359 $528 forward 7 unknown #
coedge $-1 $529 $530 $216 $362 forward $519 $-1 #
edge $-1 $531 -11.718866518336952 $365 -6.9482998281121056 $361 $532 forward 7 unknown #
edge $-1 $366 -76.047978248684259 $531 -69.301378056885184 $217 $533 forward 7 unknown #
coedge $-1 $218 $523 $529 $534 reversed $354 $-1 #
vertex $-1 $534 $535 #
vertex $-1 $219 $536 #
straight-curve $-1 -38.199016589219802 38.023989124342123 84.661128855618202 0 0 -1 I I #
coedge $-1 $368 $368 $-1 $537 reversed $222 $-1 #
edge $-1 $538 0 $538 6.2831853071796004 $223 $539 forward 7 unknown #
vertex $-1 $226 $540 #
ellipse-curve $-1 -49.323615972480219 35.638705779229696 12.238872553444621 0 0.70710678939079041 0.70710677298230451 1 0 0 1 I I #
coedge $-1 $372 $372 $-1 $541 reversed $229 $-1 #
edge $-1 $542 0 $542 6.2831853071796004 $230 $543 forward 7 unknown #
vertex $-1 $233 $544 #
ellipse-curve $-1 -42.64885634252397 35.638705779229696 12.238872553444621 0 0.70710678939079041 0.70710677298230451 1 0 0 1 I I #
face $-1 $-1 $388 $51 $-1 $545 reversed single #
loop $-1 $-1 $546 $234 #
plane-surface $-1 0 0 14.624155953907795 0 0 1 1 0 0 forward_v I I I I #
coedge $-1 $547 $548 $549 $550 reversed $235 $-1 #
coedge $-1 $551 $237 $239 $386 forward $147 $-1 #
coedge $-1 $237 $551 $547 $552 forward $147 $-1 #
coedge $-1 $549 $240 $237 $383 forward $388 $-1 #
edge $-1 $390 1.1159228293987216 $553 16.690361965963302 $382 $554 forward 7 unknown #
coedge $-1 $555 $556 $238 $385 forward $377 $-1 #
edge $-1 $557 -11.718866518336952 $389 -6.9482998281121056 $384 $558 forward 7 unknown #
edge $-1 $390 -76.047978248684259 $557 -69.301378056885184 $239 $559 forward 7 unknown #
coedge $-1 $240 $549 $555 $560 reversed $388 $-1 #
loop $-1 $-1 $549 $376 #
vertex $-1 $560 $561 #
vertex $-1 $241 $562 #
straight-curve $-1 -10.019065227079734 38.023989124342123 84.661128855618202 0 0 -1 I I #
coedge $-1 $392 $392 $-1 $563 reversed $244 $-1 #
edge $-1 $564 0 $564 6.2831853071796004 $245 $565 forward 7 unknown #
vertex $-1 $248 $566 #
ellipse-curve $-1 -21.143664610340153 35.638705779229696 12.238872553444621 0 0.70710678939079041 0.70710677298230451 1 0 0 1 I I #
coedge $-1 $396 $396 $-1 $567 reversed $251 $-1 #
edge $-1 $568 0 $568 6.2831853071796004 $252 $569 forward 7 unknown #
vertex $-1 $255 $570 #
ellipse-curve $-1 -14.468904980383904 35.638705779229696 12.238872553444621 0 0.70710678939079041 0.70710677298230451 1 0 0 1 I I #
face $-1 $-1 $412 $54 $-1 $571 reversed single #
loop $-1 $-1 $572 $256 #
plane-surface $-1 0 0 14.624155953907795 0 0 1 1 0 0 forward_v I I I I #
coedge $-1 $573 $574 $575 $576 reversed $257 $-1 #
coedge $-1 $577 $259 $261 $410 forward $161 $-1 #
coedge $-1 $259 $577 $573 $578 forward $161 $-1 #
coedge $-1 $575 $262 $259 $407 forward $412 $-1 #
edge $-1 $414 -12.97405285167131 $579 2.6003862848932702 $406 $580 forward 7 unknown #
coedge $-1 $581 $582 $260 $409 forward $401 $-1 #
edge $-1 $583 -11.718866518336952 $413 -6.9482998281121056 $408 $584 forward 7 unknown #
edge $-1 $414 -76.047978248684259 $583 -69.301378056885184 $261 $585 forward 7 unknown #
coedge $-1 $262 $575 $581 $586 reversed $412 $-1 #
loop $-1 $-1 $575 $400 #
vertex $-1 $586 $587 #
vertex $-1 $263 $588 #
straight-curve $-1 18.160886135060331 38.023989124342123 84.661128855618202 0 0 -1 I I #
coedge $-1 $416 $416 $-1 $589 reversed $266 $-1 #
edge $-1 $590 0 $590 6.2831853071796004 $267 $591 forward 7 unknown #
vertex $-1 $270 $592 #
ellipse-curve $-1 7.0362867517999064 35.638705779229696 12.238872553444621 0 0.70710678939079041 0.70710677298230451 1 0 0 1 I I #
coedge $-1 $420 $420 $-1 $593 reversed $273 $-1 #
edge $-1 $594 0 $594 6.2831853071796004 $274 $595 forward 7 unknown #
vertex $-1 $277 $596 #
ellipse-curve $-1 13.711046381756162 35.638705779229696 12.238872553444621 0 0.70710678939079041 0.70710677298230451 1 0 0 1 I I #
face $-1 $-1 $436 $57 $-1 $597 reversed single #
loop $-1 $-1 $598 $278 #
plane-surface $-1 0 0 14.624155953907795 0 0 1 1 0 0 forward_v I I I I #
coedge $-1 $599 $600 $601 $602 reversed $279 $-1 #
coedge $-1 $603 $281 $283 $434 forward $175 $-1 #
coedge $-1 $281 $603 $599 $604 forward $175 $-1 #
coedge $-1 $601 $284 $281 $431 forward $436 $-1 #
edge $-1 $438 -27.064028532741339 $605 -11.489589396176761 $430 $606 forward 7 unknown #
coedge $-1 $607 $608 $282 $433 forward $425 $-1 #
edge $-1 $609 -11.718866518336952 $437 -6.9482998281121056 $432 $610 forward 7 unknown #
edge $-1 $438 -76.047978248684259 $609 -69.301378056885184 $283 $611 forward 7 unknown #
coedge $-1 $284 $601 $607 $612 reversed $436 $-1 #
loop $-1 $-1 $601 $424 #
vertex $-1 $612 $613 #
vertex $-1 $285 $614 #
straight-curve $-1 46.34083749720039 38.023989124342123 84.661128855618202 0 0 -1 I I #
coedge $-1 $440 $440 $-1 $615 reversed $288 $-1 #
edge $-1 $616 0 $616 6.2831853071796004 $289 $617 forward 7 unknown #
vertex $-1 $292 $618 #
ellipse-curve $-1 35.216238113939966 35.638705779229696 12.238872553444621 0 0.70710678939079041 0.70710677298230451 1 0 0 1 I I #
coedge $-1 $444 $444 $-1 $619 reversed $295 $-1 #
edge $-1 $620 0 $620 6.2831853071796004 $296 $621 forward 7 unknown #
vertex $-1 $299 $622 #
ellipse-curve $-1 41.890997743896236 35.638705779229696 12.238872553444621 0 0.70710678939079041 0.70710677298230451 1 0 0 1 I I #
face $-1 $-1 $315 $45 $-1 $623 reversed single #
loop $-1 $-1 $464 $300 #
plane-surface $-1 0 38.023989124342123 0 0 -1 0 0 0 -1 forward_v I I I I #
coedge $-1 $624 $462 $465 $625 forward $301 $-1 #
coedge $-1 $468 $303 $304 $456 reversed $189 $-1 #
coedge $-1 $462 $624 $303 $454 reversed $301 $-1 #
edge $-1 $469 -14.624155953907795 $626 14.624155953907795 $453 $627 forward 7 unknown #
coedge $-1 $305 $304 $624 $628 forward $121 $-1 #
edge $-1 $460 -74.737388225959052 $626 74.737388225959052 $452 $629 forward 7 unknown #
coedge $-1 $465 $464 $305 $458 reversed $449 $-1 #
edge $-1 $630 -74.737388225959052 $459 74.737388225959052 $457 $631 forward 7 unknown #
vertex $-1 $307 $632 #
vertex $-1 $471 $633 #
straight-curve $-1 74.737388225959052 0 -14.624155953907795 0 -1 0 I I #
coedge $-1 $451 $453 $308 $463 reversed $301 $-1 #
edge $-1 $466 -38.023989124342123 $469 38.023989124342123 $462 $634 forward 7 unknown #
coedge $-1 $457 $309 $314 $472 forward $449 $-1 #
coedge $-1 $309 $457 $451 $625 reversed $449 $-1 #
vertex $-1 $310 $635 #
straight-curve $-1 0 38.023989124342123 14.624155953907795 -1 0 0 I I #
coedge $-1 $311 $452 $313 $471 reversed $189 $-1 #
vertex $-1 $463 $636 #
straight-curve $-1 0 -38.023989124342123 14.624155953907795 1 0 0 I I #
edge $-1 $316 -14.624155953907795 $460 14.624155953907795 $313 $637 forward 7 unknown #
edge $-1 $317 -14.624155953907795 $459 14.624155953907795 $314 $638 forward 7 unknown #
point $-1 74.737388225959052 -38.023989124342123 14.624155953907795 #
point $-1 74.737388225959052 38.023989124342123 14.624155953907795 #
face $-1 $-1 $488 $46 $-1 $639 reversed single #
loop $-1 $-1 $484 $319 #
plane-surface $-1 -74.737388225959052 0 0 1 0 0 0 0 -1 forward_v I I I I #
coedge $-1 $640 $322 $481 $641 forward $197 $-1 #
coedge $-1 $322 $640 $642 $643 forward $197 $-1 #
edge $-1 $644 -38.023989124342123 $482 38.023989124342123 $322 $645 forward 7 unknown #
coedge $-1 $324 $491 $478 $641 reversed $320 $-1 #
vertex $-1 $641 $646 #
straight-curve $-1 -56.359902724280126 -38.023989124342123 -5.3455358103867345 0 0 1 I I #
coedge $-1 $647 $648 $326 $485 forward $476 $-1 #
edge $-1 $492 -38.023989124342123 $489 38.023989124342123 $484 $649 forward 7 unknown #
coedge $-1 $642 $327 $331 $494 forward $488 $-1 #
coedge $-1 $327 $642 $647 $650 reversed $488 $-1 #
loop $-1 $-1 $486 $475 #
vertex $-1 $650 $651 #
straight-curve $-1 -32.774322737559793 38.023989124342123 -6.7579872876391427 1 0 0 I I #
coedge $-1 $481 $329 $648 $652 forward $320 $-1 #
vertex $-1 $652 $653 #
straight-curve $-1 -32.774322737559793 -38.023989124342123 -6.7579872876391427 -1 0 0 I I #
edge $-1 $333 1.4124514772524082 $644 9.27862014352106 $486 $654 forward 7 unknown #
point $-1 -56.359902724280126 -38.023989124342123 -6.7579872876391427 #
point $-1 -56.359902724280126 38.023989124342123 -6.7579872876391427 #
face $-1 $-1 $349 $47 $-1 $655 reversed single #
loop $-1 $-1 $344 $335 #
plane-surface $-1 0 38.023989124342123 0 0 -1 0 0 0 -1 forward_v I I I I #
coedge $-1 $656 $657 $339 $504 forward $336 $-1 #
coedge $-1 $658 $338 $503 $659 forward $205 $-1 #
coedge $-1 $338 $658 $347 $515 reversed $205 $-1 #
coedge $-1 $340 $339 $501 $659 reversed $129 $-1 #
edge $-1 $660 -38.023989124342123 $507 38.023989124342123 $500 $661 forward 7 unknown #
edge $-1 $508 -38.023989124342123 $512 38.023989124342123 $340 $662 forward 7 unknown #
coedge $-1 $341 $510 $656 $663 reversed $498 $-1 #
vertex $-1 $663 $664 #
vertex $-1 $345 $665 #
straight-curve $-1 56.359902724280104 38.023989124342123 -5.3455358103867345 0 0 1 I I #
coedge $-1 $506 $344 $348 $516 forward $498 $-1 #
straight-curve $-1 32.774322737559785 38.023989124342123 -6.7579872876391427 1 0 0 I I #
vertex $-1 $346 $666 #
straight-curve $-1 32.774322737559785 -38.023989124342123 -6.7579872876391427 -1 0 0 I I #
coedge $-1 $348 $347 $667 $668 reversed $349 $-1 #
edge $-1 $351 6.7579872876391427 $669 14.624155953907795 $347 $670 forward 7 unknown #
edge $-1 $350 6.7579872876391427 $671 14.624155953907795 $348 $672 forward 7 unknown #
point $-1 74.737388225959037 38.023989124342123 -6.7579872876391427 #
point $-1 74.737388225959037 -38.023989124342123 -6.7579872876391427 #
loop $-1 $-1 $361 $353 #
plane-surface $-1 0 0 14.624155953907795 0 0 1 1 0 0 forward_v I I I I #
coedge $-1 $522 $356 $358 $526 reversed $213 $-1 #
coedge $-1 $356 $521 $673 $674 reversed $213 $-1 #
coedge $-1 $364 $359 $356 $524 forward $354 $-1 #
edge $-1 $527 -74.807539702636745 $675 -70.036972901710413 $523 $676 forward 7 unknown #
coedge $-1 $358 $357 $530 $677 reversed $133 $-1 #
edge $-1 $678 69.301378056885184 $527 76.047978248684259 $521 $679 forward 7 unknown #
vertex $-1 $360 $680 #
straight-curve $-1 -22.993118078751046 38.023989124342123 9.8535891529814528 -1 0 0 I I #
coedge $-1 $673 $361 $364 $534 forward $519 $-1 #
coedge $-1 $361 $673 $525 $677 forward $519 $-1 #
vertex $-1 $362 $681 #
straight-curve $-1 -38.199016589219802 44.972288952454228 14.624155953907788 0 1 0 I I #
straight-curve $-1 -38.199016589219802 -15.750051366913482 63.627630892069234 0 -0.70710677298230451 0.70710678939079041 I I #
edge $-1 $365 38.199016589219802 $675 53.77345572578438 $364 $682 forward 7 unknown #
point $-1 -38.199016589219802 38.023989124342123 14.624155953907795 #
point $-1 -38.199016589219802 38.023989124342116 9.8535891529814563 #
edge $-1 $683 1 $683 0 $368 $-1 forward 7 unknown #
vertex $-1 $369 $684 #
ellipse-curve $-1 -49.323615972480219 33.75735329026584 10.357520108137743 0 0.70710678939079041 0.70710677298230451 1 0 0 1 I I #
point $-1 -48.323615972480219 35.638705779229689 12.238872553444617 #
edge $-1 $685 1 $685 0 $372 $-1 forward 7 unknown #
vertex $-1 $373 $686 #
ellipse-curve $-1 -42.64885634252397 33.75735329026584 10.357520108137743 0 0.70710678939079041 0.70710677298230451 1 0 0 1 I I #
point $-1 -41.64885634252397 35.638705779229689 12.238872553444617 #
plane-surface $-1 0 38.023989124342123 0 0 -1 0 0 0 -1 forward_v I I I I #
coedge $-1 $556 $555 $548 $687 forward $377 $-1 #
coedge $-1 $548 $379 $381 $552 reversed $235 $-1 #
coedge $-1 $379 $547 $546 $687 reversed $235 $-1 #
coedge $-1 $387 $382 $379 $550 forward $388 $-1 #
edge $-1 $553 -74.807539702636745 $688 -70.036972901710413 $549 $689 forward 7 unknown #
coedge $-1 $381 $380 $556 $690 reversed $147 $-1 #
edge $-1 $691 69.301378056885184 $553 76.047978248684259 $547 $692 forward 7 unknown #
vertex $-1 $383 $693 #
straight-curve $-1 -8.9031423976810125 38.023989124342123 9.8535891529814528 -1 0 0 I I #
coedge $-1 $546 $384 $387 $560 forward $377 $-1 #
coedge $-1 $384 $546 $551 $690 forward $377 $-1 #
vertex $-1 $385 $694 #
straight-curve $-1 -10.019065227079734 44.972288952454228 14.624155953907788 0 1 0 I I #
straight-curve $-1 -10.019065227079734 -15.750051366913482 63.627630892069234 0 -0.70710677298230451 0.70710678939079041 I I #
edge $-1 $389 10.019065227079734 $688 25.593504363644314 $387 $695 forward 7 unknown #
point $-1 -10.019065227079734 38.023989124342123 14.624155953907795 #
point $-1 -10.019065227079734 38.023989124342116 9.8535891529814563 #
edge $-1 $696 1 $696 0 $392 $-1 forward 7 unknown #
vertex $-1 $393 $697 #
ellipse-curve $-1 -21.143664610340153 33.75735329026584 10.357520108137743 0 0.70710678939079041 0.70710677298230451 1 0 0 1 I I #
point $-1 -20.143664610340153 35.638705779229689 12.238872553444617 #
edge $-1 $698 1 $698 0 $396 $-1 forward 7 unknown #
vertex $-1 $397 $699 #
ellipse-curve $-1 -14.468904980383904 33.75735329026584 10.357520108137743 0 0.70710678939079041 0.70710677298230451 1 0 0 1 I I #
point $-1 -13.468904980383904 35.638705779229689 12.238872553444617 #
plane-surface $-1 0 38.023989124342123 0 0 -1 0 0 0 -1 forward_v I I I I #
coedge $-1 $582 $581 $574 $700 forward $401 $-1 #
coedge $-1 $574 $403 $405 $578 reversed $257 $-1 #
coedge $-1 $403 $573 $572 $700 reversed $257 $-1 #
coedge $-1 $411 $406 $403 $576 forward $412 $-1 #
edge $-1 $579 -74.807539702636745 $701 -70.036972901710413 $575 $702 forward 7 unknown #
coedge $-1 $405 $404 $582 $703 reversed $161 $-1 #
edge $-1 $704 69.301378056885184 $579 76.047978248684259 $573 $705 forward 7 unknown #
vertex $-1 $407 $706 #
straight-curve $-1 5.1868332833890207 38.023989124342123 9.8535891529814528 -1 0 0 I I #
coedge $-1 $572 $408 $411 $586 forward $401 $-1 #
coedge $-1 $408 $572 $577 $703 forward $401 $-1 #
vertex $-1 $409 $707 #
straight-curve $-1 18.160886135060331 44.972288952454228 14.624155953907788 0 1 0 I I #
straight-curve $-1 18.160886135060331 -15.750051366913482 63.627630892069234 0 -0.70710677298230451 0.70710678939079041 I I #
edge $-1 $413 -18.160886135060331 $701 -2.5864469984957505 $411 $708 forward 7 unknown #
point $-1 18.160886135060331 38.023989124342123 14.624155953907795 #
point $-1 18.160886135060331 38.023989124342116 9.8535891529814563 #
edge $-1 $709 1 $709 0 $416 $-1 forward 7 unknown #
vertex $-1 $417 $710 #
ellipse-curve $-1 7.0362867517999064 33.75735329026584 10.357520108137743 0 0.70710678939079041 0.70710677298230451 1 0 0 1 I I #
point $-1 8.0362867517999064 35.638705779229689 12.238872553444617 #
edge $-1 $711 1 $711 0 $420 $-1 forward 7 unknown #
vertex $-1 $421 $712 #
ellipse-curve $-1 13.711046381756162 33.75735329026584 10.357520108137743 0 0.70710678939079041 0.70710677298230451 1 0 0 1 I I #
point $-1 14.711046381756162 35.638705779229689 12.238872553444617 #
plane-surface $-1 0 38.023989124342123 0 0 -1 0 0 0 -1 forward_v I I I I #
coedge $-1 $608 $607 $600 $713 forward $425 $-1 #
coedge $-1 $600 $427 $429 $604 reversed $279 $-1 #
coedge $-1 $427 $599 $598 $713 reversed $279 $-1 #
coedge $-1 $435 $430 $427 $602 forward $436 $-1 #
edge $-1 $605 -74.807539702636745 $714 -70.036972901710413 $601 $715 forward 7 unknown #
coedge $-1 $429 $428 $608 $716 reversed $175 $-1 #
edge $-1 $717 69.301378056885184 $605 76.047978248684259 $599 $718 forward 7 unknown #
vertex $-1 $431 $719 #
straight-curve $-1 19.27680896445905 38.023989124342123 9.8535891529814528 -1 0 0 I I #
coedge $-1 $598 $432 $435 $612 forward $425 $-1 #
coedge $-1 $432 $598 $603 $716 forward $425 $-1 #
vertex $-1 $433 $720 #
straight-curve $-1 46.34083749720039 44.972288952454228 14.624155953907788 0 1 0 I I #
straight-curve $-1 46.34083749720039 -15.750051366913482 63.627630892069234 0 -0.70710677298230451 0.70710678939079041 I I #
edge $-1 $437 -46.34083749720039 $714 -30.766398360635812 $435 $721 forward 7 unknown #
point $-1 46.34083749720039 38.023989124342123 14.624155953907795 #
point $-1 46.34083749720039 38.023989124342116 9.8535891529814563 #
edge $-1 $722 1 $722 0 $440 $-1 forward 7 unknown #
vertex $-1 $441 $723 #
ellipse-curve $-1 35.216238113939966 33.75735329026584 10.357520108137743 0 0.70710678939079041 0.70710677298230451 1 0 0 1 I I #
point $-1 36.216238113939966 35.638705779229689 12.238872553444617 #
edge $-1 $724 1 $724 0 $444 $-1 forward 7 unknown #
vertex $-1 $445 $725 #
ellipse-curve $-1 41.890997743896236 33.75735329026584 10.357520108137743 0 0.70710678939079041 0.70710677298230451 1 0 0 1 I I #
point $-1 42.890997743896236 35.638705779229689 12.238872553444617 #
plane-surface $-1 74.737388225959052 0 0 -1 0 0 0 0 1 forward_v I I I I #
coedge $-1 $453 $451 $455 $628 reversed $301 $-1 #
edge $-1 $466 -14.624155953907795 $630 14.624155953907795 $465 $726 forward 7 unknown #
vertex $-1 $628 $727 #
straight-curve $-1 -74.737388225959052 -38.023989124342123 0 0 0 -1 I I #
edge $-1 $626 -38.023989124342123 $630 38.023989124342123 $624 $728 forward 7 unknown #
straight-curve $-1 0 -38.023989124342123 -14.624155953907795 -1 0 0 I I #
vertex $-1 $458 $729 #
straight-curve $-1 0 38.023989124342123 -14.624155953907795 1 0 0 I I #
point $-1 74.737388225959052 38.023989124342123 -14.624155953907795 #
point $-1 74.737388225959052 -38.023989124342123 -14.624155953907795 #
straight-curve $-1 -74.737388225959052 0 14.624155953907795 0 -1 0 I I #
point $-1 -74.737388225959052 38.023989124342123 14.624155953907795 #
point $-1 -74.737388225959052 -38.023989124342123 14.624155953907795 #
straight-curve $-1 74.737388225959052 -38.023989124342123 0 0 0 -1 I I #
straight-curve $-1 74.737388225959052 38.023989124342123 0 0 0 -1 I I #
plane-surface $-1 0 38.023989124342123 0 0 -1 0 0 0 -1 forward_v I I I I #
coedge $-1 $479 $478 $730 $731 forward $197 $-1 #
edge $-1 $482 56.359902724280126 $732 74.737388225959052 $481 $733 forward 7 unknown #
coedge $-1 $487 $486 $479 $643 reversed $488 $-1 #
edge $-1 $734 -74.737388225959052 $644 -56.359902724280126 $642 $735 forward 7 unknown #
vertex $-1 $494 $736 #
straight-curve $-1 -56.359902724280126 0 -14.624155953907795 0 -1 0 I I #
point $-1 -56.359902724280126 -38.023989124342123 -14.624155953907795 #
coedge $-1 $730 $484 $487 $650 forward $476 $-1 #
coedge $-1 $484 $730 $491 $652 reversed $476 $-1 #
straight-curve $-1 -74.737388225959052 0 -6.7579872876391427 0 1 0 I I #
edge $-1 $489 6.7579872876391427 $734 14.624155953907795 $487 $737 forward 7 unknown #
point $-1 -74.737388225959052 38.023989124342123 -6.7579872876391427 #
edge $-1 $492 6.7579872876391427 $732 14.624155953907795 $648 $738 forward 7 unknown #
point $-1 -74.737388225959052 -38.023989124342123 -6.7579872876391427 #
straight-curve $-1 -56.359902724280126 38.023989124342123 -5.3455358103867345 0 0 -1 I I #
plane-surface $-1 74.737388225959052 0 0 -1 0 0 0 0 1 forward_v I I I I #
coedge $-1 $667 $500 $506 $663 forward $336 $-1 #
coedge $-1 $500 $667 $658 $739 forward $336 $-1 #
coedge $-1 $502 $501 $657 $739 reversed $205 $-1 #
edge $-1 $512 1.4124514772524082 $660 9.27862014352106 $501 $740 forward 7 unknown #
vertex $-1 $504 $741 #
straight-curve $-1 56.359902724280104 0 -14.624155953907795 0 1 0 I I #
straight-curve $-1 56.359902724280104 0 -6.7579872876391427 0 -1 0 I I #
edge $-1 $507 56.359902724280104 $671 74.737388225959052 $506 $742 forward 7 unknown #
point $-1 56.359902724280104 38.023989124342123 -14.624155953907795 #
point $-1 56.359902724280104 38.023989124342123 -6.7579872876391427 #
point $-1 56.359902724280104 -38.023989124342123 -6.7579872876391427 #
coedge $-1 $657 $656 $514 $668 forward $336 $-1 #
edge $-1 $671 -38.023989124342123 $669 38.023989124342123 $514 $743 forward 7 unknown #
vertex $-1 $515 $744 #
straight-curve $-1 74.737388225959052 -38.023989124342123 0 0 0 -1 I I #
vertex $-1 $668 $745 #
straight-curve $-1 74.737388225959052 38.023989124342123 0 0 0 -1 I I #
coedge $-1 $530 $529 $522 $674 forward $519 $-1 #
edge $-1 $675 6.9482998281121056 $678 11.718866518336952 $673 $746 forward 7 unknown #
vertex $-1 $674 $747 #
straight-curve $-1 -53.77345572578438 38.023989124342123 84.661128855618202 0 0 1 I I #
edge $-1 $678 -30.780337647033335 $531 -15.205898510468757 $530 $748 forward 7 unknown #
vertex $-1 $677 $749 #
straight-curve $-1 -53.77345572578438 -15.750051366913482 63.627630892069234 0 0.70710677298230451 -0.70710678939079041 I I #
point $-1 -53.77345572578438 38.023989124342116 9.8535891529814563 #
point $-1 -38.199016589219802 33.253422434117276 14.624155953907788 #
straight-curve $-1 0 38.023989124342123 14.624155953907795 -1 0 0 I I #
vertex $-1 $537 $750 #
point $-1 -48.323615972480219 33.75735329026584 10.357520108137743 #
vertex $-1 $541 $751 #
point $-1 -41.64885634252397 33.75735329026584 10.357520108137743 #
edge $-1 $688 6.9482998281121056 $691 11.718866518336952 $546 $752 forward 7 unknown #
vertex $-1 $687 $753 #
straight-curve $-1 -25.593504363644314 38.023989124342123 84.661128855618202 0 0 1 I I #
edge $-1 $691 -16.690361965963302 $557 -1.1159228293987216 $556 $754 forward 7 unknown #
vertex $-1 $690 $755 #
straight-curve $-1 -25.593504363644314 -15.750051366913482 63.627630892069234 0 0.70710677298230451 -0.70710678939079041 I I #
point $-1 -25.593504363644314 38.023989124342116 9.8535891529814563 #
point $-1 -10.019065227079734 33.253422434117276 14.624155953907788 #
straight-curve $-1 0 38.023989124342123 14.624155953907795 -1 0 0 I I #
vertex $-1 $563 $756 #
point $-1 -20.143664610340153 33.75735329026584 10.357520108137743 #
vertex $-1 $567 $757 #
point $-1 -13.468904980383904 33.75735329026584 10.357520108137743 #
edge $-1 $701 6.9482998281121056 $704 11.718866518336952 $572 $758 forward 7 unknown #
vertex $-1 $576 $759 #
straight-curve $-1 2.5864469984957505 38.023989124342123 84.661128855618202 0 0 1 I I #
edge $-1 $704 -2.6003862848932702 $583 12.97405285167131 $582 $760 forward 7 unknown #
vertex $-1 $703 $761 #
straight-curve $-1 2.5864469984957505 -15.750051366913482 63.627630892069234 0 0.70710677298230451 -0.70710678939079041 I I #
point $-1 2.5864469984957505 38.023989124342116 9.8535891529814563 #
point $-1 18.160886135060331 33.253422434117276 14.624155953907788 #
straight-curve $-1 0 38.023989124342123 14.624155953907795 -1 0 0 I I #
vertex $-1 $589 $762 #
point $-1 8.0362867517999064 33.75735329026584 10.357520108137743 #
vertex $-1 $593 $763 #
point $-1 14.711046381756162 33.75735329026584 10.357520108137743 #
edge $-1 $714 6.9482998281121056 $717 11.718866518336952 $598 $764 forward 7 unknown #
vertex $-1 $602 $765 #
straight-curve $-1 30.766398360635812 38.023989124342123 84.661128855618202 0 0 1 I I #
edge $-1 $717 11.489589396176761 $609 27.064028532741339 $608 $766 forward 7 unknown #
vertex $-1 $716 $767 #
straight-curve $-1 30.766398360635812 -15.750051366913482 63.627630892069234 0 0.70710677298230451 -0.70710678939079041 I I #
point $-1 30.766398360635812 38.023989124342116 9.8535891529814563 #
point $-1 46.34083749720039 33.253422434117276 14.624155953907788 #
straight-curve $-1 0 38.023989124342123 14.624155953907795 -1 0 0 I I #
vertex $-1 $615 $768 #
point $-1 36.216238113939966 33.75735329026584 10.357520108137743 #
vertex $-1 $619 $769 #
point $-1 42.890997743896236 33.75735329026584 10.357520108137743 #
straight-curve $-1 -74.737388225959052 38.023989124342123 0 0 0 -1 I I #
point $-1 -74.737388225959052 -38.023989124342123 -14.624155953907795 #
straight-curve $-1 -74.737388225959052 0 -14.624155953907795 0 1 0 I I #
point $-1 -74.737388225959052 38.023989124342123 -14.624155953907795 #
coedge $-1 $648 $647 $640 $731 reversed $476 $-1 #
edge $-1 $732 -38.023989124342123 $734 38.023989124342123 $730 $770 forward 7 unknown #
vertex $-1 $731 $771 #
straight-curve $-1 0 -38.023989124342123 -14.624155953907795 -1 0 0 I I #
vertex $-1 $643 $772 #
straight-curve $-1 0 38.023989124342123 -14.624155953907795 1 0 0 I I #
point $-1 -56.359902724280126 38.023989124342123 -14.624155953907795 #
straight-curve $-1 -74.737388225959052 38.023989124342123 0 0 0 -1 I I #
straight-curve $-1 -74.737388225959052 -38.023989124342123 0 0 0 -1 I I #
edge $-1 $669 -74.737388225959052 $660 -56.359902724280104 $658 $773 forward 7 unknown #
straight-curve $-1 56.359902724280104 -38.023989124342123 -5.3455358103867345 0 0 -1 I I #
point $-1 56.359902724280104 -38.023989124342123 -14.624155953907795 #
straight-curve $-1 0 38.023989124342123 -14.624155953907795 1 0 0 I I #
straight-curve $-1 74.737388225959052 0 -14.624155953907795 0 -1 0 I I #
point $-1 74.737388225959052 -38.023989124342123 -14.624155953907795 #
point $-1 74.737388225959052 38.023989124342123 -14.624155953907795 #
straight-curve $-1 -53.77345572578438 44.972288952454228 14.624155953907788 0 -1 0 I I #
point $-1 -53.77345572578438 38.023989124342123 14.624155953907795 #
straight-curve $-1 -22.993118078751046 33.253422434117269 14.624155953907795 1 0 0 I I #
point $-1 -53.77345572578438 33.253422434117276 14.624155953907788 #
point $-1 -49.323615972480219 33.050246500875048 9.6504133351554398 #
point $-1 -42.64885634252397 33.050246500875048 9.6504133351554398 #
straight-curve $-1 -25.593504363644314 44.972288952454228 14.624155953907788 0 -1 0 I I #
point $-1 -25.593504363644314 38.023989124342123 14.624155953907795 #
straight-curve $-1 -8.9031423976810125 33.253422434117269 14.624155953907795 1 0 0 I I #
point $-1 -25.593504363644314 33.253422434117276 14.624155953907788 #
point $-1 -21.143664610340153 33.050246500875048 9.6504133351554398 #
point $-1 -14.468904980383904 33.050246500875048 9.6504133351554398 #
straight-curve $-1 2.5864469984957505 44.972288952454228 14.624155953907788 0 -1 0 I I #
point $-1 2.5864469984957505 38.023989124342123 14.624155953907795 #
straight-curve $-1 5.1868332833890207 33.253422434117269 14.624155953907795 1 0 0 I I #
point $-1 2.5864469984957505 33.253422434117276 14.624155953907788 #
point $-1 7.0362867517999064 33.050246500875048 9.6504133351554398 #
point $-1 13.711046381756162 33.050246500875048 9.6504133351554398 #
straight-curve $-1 30.766398360635812 44.972288952454228 14.624155953907788 0 -1 0 I I #
point $-1 30.766398360635812 38.023989124342123 14.624155953907795 #
straight-curve $-1 19.27680896445905 33.253422434117269 14.624155953907795 1 0 0 I I #
point $-1 30.766398360635812 33.253422434117276 14.624155953907788 #
point $-1 35.216238113939966 33.050246500875048 9.6504133351554398 #
point $-1 41.890997743896236 33.050246500875048 9.6504133351554398 #
straight-curve $-1 -74.737388225959052 0 -14.624155953907795 0 1 0 I I #
point $-1 -74.737388225959052 -38.023989124342123 -14.624155953907795 #
point $-1 -74.737388225959052 38.023989124342123 -14.624155953907795 #
straight-curve $-1 0 -38.023989124342123 -14.624155953907795 -1 0 0 I I #
End-of-ACIS-data 