500 0 11 0           
7 Unknown 11 ACIS 5.0 NT 24 Fri Mar 26 02:35:41 1999 
-1 9.9999999999999995e-007 1e-010 
body $-1 $11 $-1 $12 #
body $-1 $13 $-1 $14 #
body $-1 $15 $-1 $16 #
body $-1 $17 $-1 $18 #
body $-1 $19 $-1 $20 #
body $-1 $21 $-1 $22 #
body $-1 $23 $-1 $24 #
body $-1 $25 $-1 $26 #
body $-1 $27 $-1 $28 #
body $-1 $29 $-1 $30 #
body $-1 $31 $-1 $32 #
lump $-1 $-1 $33 $0 #
transform $-1 1 0 0 0 1 0 0 0 1 56.428724021118811 22.994097991112479 5.5171238870243329 1 rotate no_reflect no_shear #
lump $-1 $-1 $34 $1 #
transform $-1 1 0 0 0 1 0 0 0 1 56.428724021118811 22.994097991112479 5.5171238870243329 1 rotate no_reflect no_shear #
lump $-1 $-1 $35 $2 #
transform $-1 1 0 0 0 1 0 0 0 1 56.428724021118811 22.994097991112479 5.5171238870243329 1 rotate no_reflect no_shear #
lump $-1 $-1 $36 $3 #
transform $-1 1 0 0 0 1 0 0 0 1 56.428724021118811 22.994097991112479 5.5171238870243329 1 rotate no_reflect no_shear #
lump $-1 $-1 $37 $4 #
transform $-1 1 0 0 0 1 0 0 0 1 56.428724021118811 22.994097991112479 5.5171238870243329 1 rotate no_reflect no_shear #
lump $-1 $-1 $38 $5 #
transform $-1 1 0 0 0 1 0 0 0 1 56.428724021118811 22.994097991112479 5.5171238870243329 1 rotate no_reflect no_shear #
lump $-1 $-1 $39 $6 #
transform $-1 1 0 0 0 1 0 0 0 1 56.428724021118811 22.994097991112479 5.5171238870243329 1 rotate no_reflect no_shear #
lump $-1 $-1 $40 $7 #
transform $-1 1 0 0 0 1 0 0 0 1 56.428724021118811 22.994097991112479 5.5171238870243329 1 rotate no_reflect no_shear #
lump $-1 $-1 $41 $8 #
transform $-1 1 0 0 0 1 0 0 0 1 56.428724021118811 22.994097991112479 5.5171238870243329 1 rotate no_reflect no_shear #
lump $-1 $-1 $42 $9 #
transform $-1 1 0 0 0 1 0 0 0 1 56.428724021118811 22.994097991112479 5.5171238870243329 1 rotate no_reflect no_shear #
lump $-1 $-1 $43 $10 #
transform $-1 1 0 0 0 1 0 0 0 1 56.428724021118811 22.994097991112479 5.5171238870243329 1 rotate no_reflect no_shear #
shell $-1 $-1 $-1 $44 $-1 $11 #
shell $-1 $-1 $-1 $45 $-1 $13 #
shell $-1 $-1 $-1 $46 $-1 $15 #
shell $-1 $-1 $-1 $47 $-1 $17 #
shell $-1 $-1 $-1 $48 $-1 $19 #
shell $-1 $-1 $-1 $49 $-1 $21 #
shell $-1 $-1 $-1 $50 $-1 $23 #
shell $-1 $-1 $-1 $51 $-1 $25 #
shell $-1 $-1 $-1 $52 $-1 $27 #
shell $-1 $-1 $-1 $53 $-1 $29 #
shell $-1 $-1 $-1 $54 $-1 $31 #
face $-1 $55 $56 $33 $-1 $57 forward single #
face $-1 $58 $59 $34 $-1 $60 forward single #
face $-1 $61 $62 $35 $-1 $63 forward single #
face $-1 $64 $65 $36 $-1 $66 reversed single #
face $-1 $67 $68 $37 $-1 $69 forward single #
face $-1 $70 $71 $38 $-1 $72 forward single #
face $-1 $73 $74 $39 $-1 $75 forward single #
face $-1 $76 $77 $40 $-1 $78 reversed single #
face $-1 $79 $80 $41 $-1 $81 forward single #
face $-1 $82 $83 $42 $-1 $84 forward single #
face $-1 $85 $86 $43 $-1 $87 forward single #
face $-1 $88 $89 $33 $-1 $90 reversed single #
loop $-1 $-1 $91 $44 #
plane-surface $-1 0 0 5.5171238870243329 0 0 1 1 0 0 forward_v I I I I #
face $-1 $92 $93 $34 $-1 $94 forward single #
loop $-1 $-1 $95 $45 #
plane-surface $-1 0 -22.994097991112479 0 0 1 0 0 0 1 forward_v I I I I #
face $-1 $96 $97 $35 $-1 $98 forward single #
loop $-1 $-1 $99 $46 #
plane-surface $-1 0 22.994097991112479 0 0 -1 0 0 0 -1 forward_v I I I I #
face $-1 $100 $101 $36 $-1 $102 reversed single #
loop $-1 $-1 $103 $47 #
plane-surface $-1 56.428725872938671 16.80731881733637 161.64668645491989 0 -1 0 -0.70710678939079041 0 -0.70710677298230451 forward_v I I I I #
face $-1 $104 $105 $37 $-1 $106 forward single #
loop $-1 $107 $108 $48 #
cone-surface $-1 54.127011893336906 10.321857674348085 3.2154117320168196 -0.70710678939079041 0 -0.70710677298230451 0.35355338649115226 0 -0.35355339469539521 1 I I 0 1 0.5 forward I I I I #
face $-1 $109 $110 $38 $-1 $111 forward single #
loop $-1 $112 $113 $49 #
cone-surface $-1 54.127011893336906 12.75390560296869 3.2154117320168196 -0.70710678939079041 0 -0.70710677298230451 0.35355338649115226 0 -0.35355339469539521 1 I I 0 1 0.5 forward I I I I #
face $-1 $114 $115 $39 $-1 $116 forward single #
loop $-1 $117 $118 $50 #
cone-surface $-1 54.127011893336906 15.185953531589295 3.2154117320168196 -0.70710678939079041 0 -0.70710677298230451 0.35355338649115226 0 -0.35355339469539521 1 I I 0 1 0.5 forward I I I I #
face $-1 $119 $120 $40 $-1 $121 reversed single #
loop $-1 $-1 $122 $51 #
plane-surface $-1 -152.13726886476408 6.7292846531838322 61.485132611277514 0 1 0 -0.84804810408105047 0 0.52991925155115449 forward_v I I I I #
face $-1 $123 $124 $41 $-1 $125 forward single #
loop $-1 $126 $127 $52 #
cone-surface $-1 -54.106296183259083 8.7448914860143425 2.8964114368841307 0.84804810408105047 0 -0.52991925155115449 0.52991925155115449 0 0.84804810408105047 1 I I 0 1 1 forward I I I I #
face $-1 $128 $129 $42 $-1 $130 forward single #
loop $-1 $131 $132 $53 #
cone-surface $-1 -54.106296183259083 11.768301735260099 2.8964114368841307 0.84804810408105047 0 -0.52991925155115449 0.52991925155115449 0 0.84804810408105047 1 I I 0 1 1 forward I I I I #
face $-1 $133 $134 $43 $-1 $135 forward single #
loop $-1 $136 $137 $54 #
cone-surface $-1 -54.106296183259083 14.791711984505856 2.8964114368841307 0.84804810408105047 0 -0.52991925155115449 0.52991925155115449 0 0.84804810408105047 1 I I 0 1 1 forward I I I I #
face $-1 $138 $139 $33 $-1 $140 reversed single #
loop $-1 $-1 $141 $55 #
plane-surface $-1 0 0 -5.5171238870243329 0 0 1 1 0 0 forward_v I I I I #
coedge $-1 $142 $143 $144 $145 forward $56 $-1 #
face $-1 $146 $147 $34 $-1 $148 reversed single #
loop $-1 $-1 $149 $58 #
plane-surface $-1 0 0 5.5171238870243329 0 0 1 1 0 0 forward_v I I I I #
coedge $-1 $150 $151 $152 $153 forward $59 $-1 #
face $-1 $154 $155 $35 $-1 $156 reversed single #
loop $-1 $-1 $157 $61 #
plane-surface $-1 0 0 5.5171238870243329 0 0 1 1 0 0 forward_v I I I I #
coedge $-1 $158 $159 $160 $161 forward $62 $-1 #
face $-1 $162 $163 $36 $-1 $164 reversed single #
loop $-1 $-1 $165 $64 #
plane-surface $-1 -23.373541871045916 12.75390560296869 81.844420562755147 0.70710678939079041 0 0.70710677298230451 0.70710677298230451 0 -0.70710678939079041 forward_v I I I I #
coedge $-1 $166 $167 $168 $169 reversed $65 $-1 #
face $-1 $-1 $170 $37 $-1 $171 forward single #
loop $-1 $172 $173 $67 #
cone-surface $-1 53.386008562015647 10.321857674348085 2.474408417890622 -0.70710678939079041 0 -0.70710677298230451 0.17677669324557613 0 -0.1767766973476976 1 I I -0.70710678118654746 0.70710678118654746 0.25 forward I I I I #
loop $-1 $-1 $174 $48 #
coedge $-1 $108 $108 $175 $176 reversed $68 $-1 #
face $-1 $-1 $177 $38 $-1 $178 forward single #
loop $-1 $179 $180 $70 #
cone-surface $-1 53.386008562015647 12.75390560296869 2.474408417890622 -0.70710678939079041 0 -0.70710677298230451 0.17677669324557613 0 -0.1767766973476976 1 I I -0.70710678118654746 0.70710678118654746 0.25 forward I I I I #
loop $-1 $-1 $181 $49 #
coedge $-1 $113 $113 $182 $183 reversed $71 $-1 #
face $-1 $-1 $184 $39 $-1 $185 forward single #
loop $-1 $186 $187 $73 #
cone-surface $-1 53.386008562015647 15.185953531589295 2.474408417890622 -0.70710678939079041 0 -0.70710677298230451 0.17677669324557613 0 -0.1767766973476976 1 I I -0.70710678118654746 0.70710678118654746 0.25 forward I I I I #
loop $-1 $-1 $188 $50 #
coedge $-1 $118 $118 $189 $190 reversed $74 $-1 #
face $-1 $191 $192 $40 $-1 $193 reversed single #
loop $-1 $-1 $194 $76 #
plane-surface $-1 -56.428724021118811 11.768301735260099 1.6797982127616464 -0.84804810408105047 0 0.52991925155115449 0.52991925155115449 0 0.84804810408105047 forward_v I I I I #
coedge $-1 $195 $196 $197 $198 reversed $77 $-1 #
face $-1 $-1 $199 $41 $-1 $200 forward single #
loop $-1 $201 $202 $79 #
cone-surface $-1 -52.558757857033847 8.7448914860143425 1.9294021980996909 0.84804810408105047 0 -0.52991925155115449 0.26495962577557725 0 0.42402405204052523 1 I I -0.70710678118654746 0.70710678118654746 0.5 forward I I I I #
loop $-1 $-1 $203 $52 #
coedge $-1 $127 $127 $204 $205 reversed $80 $-1 #
face $-1 $-1 $206 $42 $-1 $207 forward single #
loop $-1 $208 $209 $82 #
cone-surface $-1 -52.558757857033847 11.768301735260099 1.9294021980996909 0.84804810408105047 0 -0.52991925155115449 0.26495962577557725 0 0.42402405204052523 1 I I -0.70710678118654746 0.70710678118654746 0.5 forward I I I I #
loop $-1 $-1 $210 $53 #
coedge $-1 $132 $132 $211 $212 reversed $83 $-1 #
face $-1 $-1 $213 $43 $-1 $214 forward single #
loop $-1 $215 $216 $85 #
cone-surface $-1 -52.558757857033847 14.791711984505856 1.9294021980996909 0.84804810408105047 0 -0.52991925155115449 0.26495962577557725 0 0.42402405204052523 1 I I -0.70710678118654746 0.70710678118654746 0.5 forward I I I I #
loop $-1 $-1 $217 $54 #
coedge $-1 $137 $137 $218 $219 reversed $86 $-1 #
face $-1 $220 $221 $33 $-1 $222 reversed single #
loop $-1 $-1 $223 $88 #
plane-surface $-1 0 -22.994097991112479 0 0 1 0 0 0 1 forward_v I I I I #
coedge $-1 $224 $225 $226 $227 forward $89 $-1 #
coedge $-1 $228 $91 $229 $230 forward $56 $-1 #
coedge $-1 $91 $228 $231 $232 forward $56 $-1 #
coedge $-1 $233 $234 $91 $145 reversed $235 $-1 #
edge $-1 $236 -22.994097991112479 $237 22.994097991112479 $144 $238 forward 7 unknown #
face $-1 $239 $240 $34 $-1 $241 reversed single #
loop $-1 $-1 $242 $92 #
plane-surface $-1 -56.428724021118811 0 0 1 0 0 0 0 -1 forward_v I I I I #
coedge $-1 $243 $244 $151 $245 forward $93 $-1 #
coedge $-1 $246 $95 $247 $248 reversed $59 $-1 #
coedge $-1 $95 $246 $149 $245 reversed $59 $-1 #
coedge $-1 $249 $250 $95 $153 reversed $251 $-1 #
edge $-1 $252 -5.5171238870243329 $253 5.5171238870243329 $152 $254 forward 7 unknown #
face $-1 $255 $256 $35 $-1 $257 reversed single #
loop $-1 $-1 $258 $96 #
plane-surface $-1 -54.928724021118811 29.180877164888592 0 0 -1 0 0 0 -1 forward_v I I I I #
coedge $-1 $259 $260 $158 $261 forward $97 $-1 #
coedge $-1 $262 $99 $157 $261 reversed $62 $-1 #
coedge $-1 $99 $262 $263 $264 reversed $62 $-1 #
coedge $-1 $265 $266 $99 $161 reversed $256 $-1 #
edge $-1 $267 -5.5171238870243329 $268 5.5171238870243329 $160 $269 forward 7 unknown #
face $-1 $270 $271 $36 $-1 $272 forward single #
loop $-1 $-1 $273 $100 #
plane-surface $-1 56.428725872938671 8.7004923886010097 161.64668645491989 0 1 0 0.70710678939079041 0 0.70710677298230451 forward_v I I I I #
coedge $-1 $274 $275 $276 $277 reversed $101 $-1 #
coedge $-1 $167 $103 $278 $279 reversed $65 $-1 #
coedge $-1 $103 $166 $274 $280 reversed $65 $-1 #
coedge $-1 $276 $281 $103 $169 forward $271 $-1 #
edge $-1 $282 -28.214361084649475 $283 -24.739390097032789 $168 $284 forward 7 unknown #
loop $-1 $-1 $175 $104 #
plane-surface $-1 -23.373541871045916 12.75390560296869 81.844420562755147 0.70710678939079041 0 0.70710677298230451 0.70710677298230451 0 -0.70710678939079041 forward_v I I I I #
loop $-1 $-1 $285 $67 #
coedge $-1 $173 $173 $174 $286 reversed $105 $-1 #
coedge $-1 $174 $174 $173 $286 forward $107 $-1 #
coedge $-1 $175 $175 $108 $176 forward $170 $-1 #
edge $-1 $287 0 $287 6.2831853071796004 $175 $288 forward 7 unknown #
loop $-1 $-1 $182 $109 #
plane-surface $-1 -23.373541871045916 12.75390560296869 81.844420562755147 0.70710678939079041 0 0.70710677298230451 0.70710677298230451 0 -0.70710678939079041 forward_v I I I I #
loop $-1 $-1 $289 $70 #
coedge $-1 $180 $180 $181 $290 reversed $110 $-1 #
coedge $-1 $181 $181 $180 $290 forward $112 $-1 #
coedge $-1 $182 $182 $113 $183 forward $177 $-1 #
edge $-1 $291 0 $291 6.2831853071796004 $182 $292 forward 7 unknown #
loop $-1 $-1 $189 $114 #
plane-surface $-1 -23.373541871045916 12.75390560296869 81.844420562755147 0.70710678939079041 0 0.70710677298230451 0.70710677298230451 0 -0.70710678939079041 forward_v I I I I #
loop $-1 $-1 $293 $73 #
coedge $-1 $187 $187 $188 $294 reversed $115 $-1 #
coedge $-1 $188 $188 $187 $294 forward $117 $-1 #
coedge $-1 $189 $189 $118 $190 forward $184 $-1 #
edge $-1 $295 0 $295 6.2831853071796004 $189 $296 forward 7 unknown #
face $-1 $297 $298 $40 $-1 $299 reversed single #
loop $-1 $-1 $300 $119 #
plane-surface $-1 -152.13726886476408 16.807318817336366 61.485132611277514 0 -1 0 0.84804810408105047 0 -0.52991925155115449 forward_v I I I I #
coedge $-1 $301 $302 $303 $304 reversed $120 $-1 #
coedge $-1 $196 $122 $305 $306 reversed $77 $-1 #
coedge $-1 $122 $195 $301 $307 reversed $77 $-1 #
coedge $-1 $303 $308 $122 $198 forward $309 $-1 #
edge $-1 $310 19.63991041126323 $311 22.037737538613271 $197 $312 forward 7 unknown #
loop $-1 $-1 $204 $123 #
plane-surface $-1 -56.428724021118811 11.768301735260099 1.6797982127616464 -0.84804810408105047 0 0.52991925155115449 0.52991925155115449 0 0.84804810408105047 forward_v I I I I #
loop $-1 $-1 $313 $79 #
coedge $-1 $202 $202 $203 $314 reversed $124 $-1 #
coedge $-1 $203 $203 $202 $314 forward $126 $-1 #
coedge $-1 $204 $204 $127 $205 forward $199 $-1 #
edge $-1 $315 0 $315 6.2831853071796004 $204 $316 forward 7 unknown #
loop $-1 $-1 $211 $128 #
plane-surface $-1 -56.428724021118811 11.768301735260099 1.6797982127616464 -0.84804810408105047 0 0.52991925155115449 0.52991925155115449 0 0.84804810408105047 forward_v I I I I #
loop $-1 $-1 $317 $82 #
coedge $-1 $209 $209 $210 $318 reversed $129 $-1 #
coedge $-1 $210 $210 $209 $318 forward $131 $-1 #
coedge $-1 $211 $211 $132 $212 forward $206 $-1 #
edge $-1 $319 0 $319 6.2831853071796004 $211 $320 forward 7 unknown #
loop $-1 $-1 $218 $133 #
plane-surface $-1 -56.428724021118811 11.768301735260099 1.6797982127616464 -0.84804810408105047 0 0.52991925155115449 0.52991925155115449 0 0.84804810408105047 forward_v I I I I #
loop $-1 $-1 $321 $85 #
coedge $-1 $216 $216 $217 $322 reversed $134 $-1 #
coedge $-1 $217 $217 $216 $322 forward $136 $-1 #
coedge $-1 $218 $218 $137 $219 forward $213 $-1 #
edge $-1 $323 0 $323 6.2831853071796004 $218 $324 forward 7 unknown #
face $-1 $325 $326 $33 $-1 $327 reversed single #
loop $-1 $-1 $328 $138 #
plane-surface $-1 -56.428724021118811 0 0 1 0 0 0 0 -1 forward_v I I I I #
coedge $-1 $329 $231 $330 $331 forward $139 $-1 #
coedge $-1 $332 $141 $329 $333 forward $89 $-1 #
coedge $-1 $141 $332 $334 $335 forward $89 $-1 #
coedge $-1 $234 $233 $141 $227 reversed $235 $-1 #
edge $-1 $336 -22.994097991112479 $337 22.994097991112479 $226 $338 forward 7 unknown #
coedge $-1 $143 $142 $339 $340 forward $56 $-1 #
coedge $-1 $341 $342 $142 $230 reversed $326 $-1 #
edge $-1 $237 -56.428724021118811 $343 56.428724021118811 $229 $344 forward 7 unknown #
coedge $-1 $223 $345 $143 $232 reversed $139 $-1 #
edge $-1 $346 -56.428724021118811 $236 56.428724021118811 $231 $347 forward 7 unknown #
coedge $-1 $226 $144 $345 $348 forward $235 $-1 #
coedge $-1 $144 $226 $341 $349 reversed $235 $-1 #
loop $-1 $-1 $233 $325 #
vertex $-1 $145 $350 #
vertex $-1 $145 $351 #
straight-curve $-1 56.428724021118811 0 5.5171238870243329 0 1 0 I I #
face $-1 $352 $251 $34 $-1 $353 reversed single #
loop $-1 $-1 $354 $146 #
plane-surface $-1 -54.928724021118811 -29.180877164888589 0 0 1 0 0 0 1 forward_v I I I I #
coedge $-1 $355 $356 $246 $357 forward $147 $-1 #
coedge $-1 $358 $149 $356 $359 forward $93 $-1 #
coedge $-1 $149 $358 $249 $360 forward $93 $-1 #
edge $-1 $252 53.428724021118811 $361 56.428724021118811 $149 $362 forward 7 unknown #
coedge $-1 $151 $150 $242 $357 reversed $59 $-1 #
coedge $-1 $363 $364 $150 $248 forward $365 $-1 #
edge $-1 $366 -56.428724021118811 $253 -53.428724021118811 $247 $367 forward 7 unknown #
coedge $-1 $368 $152 $244 $360 reversed $251 $-1 #
coedge $-1 $152 $368 $363 $369 reversed $251 $-1 #
loop $-1 $-1 $368 $239 #
vertex $-1 $245 $370 #
vertex $-1 $369 $371 #
straight-curve $-1 -53.428724021118811 -22.994097991112479 0 0 0 -1 I I #
face $-1 $372 $373 $35 $-1 $374 reversed single #
loop $-1 $-1 $160 $154 #
plane-surface $-1 -53.428724021118811 26.087487578000538 0 -1 0 0 0 0 1 forward_v I I I I #
coedge $-1 $375 $376 $377 $378 forward $155 $-1 #
coedge $-1 $379 $157 $266 $380 forward $97 $-1 #
coedge $-1 $157 $379 $381 $382 forward $97 $-1 #
edge $-1 $383 -56.428724021118811 $268 -53.428724021118811 $157 $384 forward 7 unknown #
coedge $-1 $159 $158 $385 $386 reversed $62 $-1 #
coedge $-1 $387 $388 $159 $264 forward $373 $-1 #
edge $-1 $267 53.428724021118811 $389 56.428724021118811 $263 $390 forward 7 unknown #
coedge $-1 $377 $160 $388 $391 reversed $256 $-1 #
coedge $-1 $160 $377 $259 $380 reversed $256 $-1 #
vertex $-1 $264 $392 #
vertex $-1 $380 $393 #
straight-curve $-1 -53.428724021118811 22.994097991112479 0 0 0 1 I I #
face $-1 $-1 $394 $36 $-1 $395 reversed single #
loop $-1 $-1 $168 $162 #
plane-surface $-1 0 0 5.5171238870243329 0 0 1 1 0 0 forward_v I I I I #
coedge $-1 $396 $397 $398 $399 reversed $163 $-1 #
coedge $-1 $400 $165 $167 $280 forward $101 $-1 #
coedge $-1 $165 $400 $396 $401 forward $101 $-1 #
coedge $-1 $398 $168 $165 $277 forward $271 $-1 #
edge $-1 $283 -10.430366015852025 $402 -2.3235395871166649 $276 $403 forward 7 unknown #
coedge $-1 $404 $405 $166 $279 forward $394 $-1 #
edge $-1 $406 -78.781190408689369 $282 -75.306219340435604 $278 $407 forward 7 unknown #
edge $-1 $283 107.94309688567806 $406 112.85744804223764 $167 $408 forward 7 unknown #
coedge $-1 $168 $398 $404 $409 forward $271 $-1 #
vertex $-1 $169 $410 #
vertex $-1 $169 $411 #
straight-curve $-1 28.214362936469335 16.80731881733637 5.5171238870243258 -1 0 0 I I #
coedge $-1 $285 $285 $-1 $412 reversed $172 $-1 #
edge $-1 $413 0 $413 6.2831853071796004 $173 $414 forward 7 unknown #
vertex $-1 $176 $415 #
ellipse-curve $-1 54.691238527310468 10.321857674348085 3.7796383528974404 0.70710678939079041 0 0.70710677298230451 0.35355338649115226 0 -0.35355339469539521 1 I I #
coedge $-1 $289 $289 $-1 $416 reversed $179 $-1 #
edge $-1 $417 0 $417 6.2831853071796004 $180 $418 forward 7 unknown #
vertex $-1 $183 $419 #
ellipse-curve $-1 54.691238527310468 12.75390560296869 3.7796383528974404 0.70710678939079041 0 0.70710677298230451 0.35355338649115226 0 -0.35355339469539521 1 I I #
coedge $-1 $293 $293 $-1 $420 reversed $186 $-1 #
edge $-1 $421 0 $421 6.2831853071796004 $187 $422 forward 7 unknown #
vertex $-1 $190 $423 #
ellipse-curve $-1 54.691238527310468 15.185953531589295 3.7796383528974404 0.70710678939079041 0 0.70710677298230451 0.35355338649115226 0 -0.35355339469539521 1 I I #
face $-1 $-1 $309 $40 $-1 $424 forward single #
loop $-1 $-1 $425 $191 #
plane-surface $-1 -56.428724021118811 0 0 1 0 0 0 0 -1 forward_v I I I I #
coedge $-1 $426 $427 $428 $429 reversed $192 $-1 #
coedge $-1 $430 $194 $196 $307 forward $120 $-1 #
coedge $-1 $194 $430 $426 $431 forward $120 $-1 #
coedge $-1 $428 $197 $194 $304 forward $309 $-1 #
edge $-1 $311 0.8451337855537826 $432 10.923167949706317 $303 $433 forward 7 unknown #
coedge $-1 $434 $435 $195 $306 forward $298 $-1 #
edge $-1 $436 -29.062768092877111 $310 -25.225442418614424 $305 $437 forward 7 unknown #
edge $-1 $311 -4.5248915194743988 $436 0 $196 $438 forward 7 unknown #
coedge $-1 $197 $428 $434 $439 forward $309 $-1 #
loop $-1 $-1 $428 $297 #
vertex $-1 $306 $440 #
vertex $-1 $198 $441 #
straight-curve $-1 -76.068634432382041 6.7292846531838322 5.5171238870243329 1 0 0 I I #
coedge $-1 $313 $313 $-1 $442 reversed $201 $-1 #
edge $-1 $443 0 $443 6.2831853071796004 $202 $444 forward 7 unknown #
vertex $-1 $205 $445 #
ellipse-curve $-1 -55.22981045744379 8.7448914860143425 3.5984610498929905 -0.84804810408105047 0 0.52991925155115449 0.52991925155115449 0 0.84804810408105047 1 I I #
coedge $-1 $317 $317 $-1 $446 reversed $208 $-1 #
edge $-1 $447 0 $447 6.2831853071796004 $209 $448 forward 7 unknown #
vertex $-1 $212 $449 #
ellipse-curve $-1 -55.22981045744379 11.768301735260099 3.5984610498929905 -0.84804810408105047 0 0.52991925155115449 0.52991925155115449 0 0.84804810408105047 1 I I #
coedge $-1 $321 $321 $-1 $450 reversed $215 $-1 #
edge $-1 $451 0 $451 6.2831853071796004 $216 $452 forward 7 unknown #
vertex $-1 $219 $453 #
ellipse-curve $-1 -55.22981045744379 14.791711984505856 3.5984610498929905 -0.84804810408105047 0 0.52991925155115449 0.52991925155115449 0 0.84804810408105047 1 I I #
face $-1 $-1 $235 $33 $-1 $454 reversed single #
loop $-1 $-1 $341 $220 #
plane-surface $-1 0 22.994097991112479 0 0 -1 0 0 0 -1 forward_v I I I I #
coedge $-1 $455 $339 $342 $456 forward $221 $-1 #
coedge $-1 $345 $223 $224 $333 reversed $139 $-1 #
coedge $-1 $339 $455 $223 $331 reversed $221 $-1 #
edge $-1 $346 -5.5171238870243329 $457 5.5171238870243329 $330 $458 forward 7 unknown #
coedge $-1 $225 $224 $455 $459 forward $89 $-1 #
edge $-1 $337 -56.428724021118811 $457 56.428724021118811 $329 $460 forward 7 unknown #
coedge $-1 $342 $341 $225 $335 reversed $326 $-1 #
edge $-1 $461 -56.428724021118811 $336 56.428724021118811 $334 $462 forward 7 unknown #
vertex $-1 $227 $463 #
vertex $-1 $348 $464 #
straight-curve $-1 56.428724021118811 0 -5.5171238870243329 0 -1 0 I I #
coedge $-1 $328 $330 $228 $340 reversed $221 $-1 #
edge $-1 $343 -22.994097991112479 $346 22.994097991112479 $339 $465 forward 7 unknown #
coedge $-1 $334 $229 $234 $349 forward $326 $-1 #
coedge $-1 $229 $334 $328 $456 reversed $326 $-1 #
vertex $-1 $230 $466 #
straight-curve $-1 0 22.994097991112479 5.5171238870243329 -1 0 0 I I #
coedge $-1 $231 $329 $233 $348 reversed $139 $-1 #
vertex $-1 $340 $467 #
straight-curve $-1 0 -22.994097991112479 5.5171238870243329 1 0 0 I I #
edge $-1 $236 -5.5171238870243329 $337 5.5171238870243329 $233 $468 forward 7 unknown #
edge $-1 $237 -5.5171238870243329 $336 5.5171238870243329 $234 $469 forward 7 unknown #
point $-1 56.428724021118811 -22.994097991112479 5.5171238870243329 #
point $-1 56.428724021118811 22.994097991112479 5.5171238870243329 #
face $-1 $-1 $365 $34 $-1 $470 reversed single #
plane-surface $-1 -53.428724021118811 -26.087487578000534 0 -1 0 0 0 0 1 forward_v I I I I #
coedge $-1 $471 $472 $473 $474 forward $240 $-1 #
coedge $-1 $473 $242 $364 $475 reversed $147 $-1 #
coedge $-1 $242 $473 $243 $359 reversed $147 $-1 #
edge $-1 $361 -5.5171238870243329 $366 5.5171238870243329 $242 $476 forward 7 unknown #
coedge $-1 $244 $243 $472 $477 forward $93 $-1 #
edge $-1 $361 22.994097991112479 $478 29.180877164888589 $356 $479 forward 7 unknown #
edge $-1 $480 -3.0933895868880548 $252 3.0933895868880548 $249 $481 forward 7 unknown #
vertex $-1 $359 $482 #
straight-curve $-1 0 -22.994097991112479 5.5171238870243329 -1 0 0 I I #
coedge $-1 $483 $247 $250 $369 forward $365 $-1 #
coedge $-1 $247 $483 $355 $475 forward $365 $-1 #
loop $-1 $-1 $247 $352 #
vertex $-1 $357 $484 #
straight-curve $-1 0 -22.994097991112479 -5.5171238870243329 1 0 0 I I #
coedge $-1 $250 $249 $485 $486 forward $251 $-1 #
edge $-1 $253 -3.0933895868880548 $487 3.0933895868880548 $250 $488 forward 7 unknown #
point $-1 -53.428724021118811 -22.994097991112479 5.5171238870243329 #
point $-1 -53.428724021118811 -22.994097991112479 -5.5171238870243329 #
face $-1 $-1 $489 $35 $-1 $490 reversed single #
loop $-1 $-1 $263 $255 #
plane-surface $-1 0 0 -5.5171238870243329 0 0 1 1 0 0 forward_v I I I I #
coedge $-1 $491 $258 $492 $493 reversed $155 $-1 #
coedge $-1 $258 $491 $379 $494 reversed $155 $-1 #
coedge $-1 $266 $265 $258 $378 reversed $256 $-1 #
edge $-1 $495 -5.5171238870243329 $496 5.5171238870243329 $377 $497 forward 7 unknown #
coedge $-1 $260 $259 $376 $494 forward $97 $-1 #
edge $-1 $268 -3.0933895868880548 $495 3.0933895868880548 $266 $498 forward 7 unknown #
coedge $-1 $499 $385 $260 $382 reversed $489 $-1 #
edge $-1 $500 -29.180877164888592 $383 -22.994097991112479 $381 $501 forward 7 unknown #
vertex $-1 $386 $502 #
straight-curve $-1 0 22.994097991112479 5.5171238870243329 1 0 0 I I #
coedge $-1 $381 $503 $262 $386 forward $489 $-1 #
edge $-1 $389 -5.5171238870243329 $383 5.5171238870243329 $385 $504 forward 7 unknown #
coedge $-1 $492 $263 $503 $505 forward $373 $-1 #
coedge $-1 $263 $492 $265 $391 forward $373 $-1 #
vertex $-1 $505 $506 #
straight-curve $-1 0 22.994097991112479 -5.5171238870243329 -1 0 0 I I #
edge $-1 $496 -3.0933895868880548 $267 3.0933895868880548 $265 $507 forward 7 unknown #
point $-1 -53.428724021118811 22.994097991112483 -5.5171238870243329 #
point $-1 -53.428724021118811 22.994097991112483 5.5171238870243329 #
loop $-1 $-1 $278 $270 #
plane-surface $-1 56.428724021118811 0 0 -1 0 0 0 0 1 forward_v I I I I #
coedge $-1 $397 $273 $275 $401 reversed $163 $-1 #
coedge $-1 $273 $396 $508 $509 reversed $163 $-1 #
coedge $-1 $281 $276 $273 $399 forward $271 $-1 #
edge $-1 $402 24.739390097032789 $510 28.214361084649475 $398 $511 forward 7 unknown #
coedge $-1 $275 $274 $405 $512 reversed $101 $-1 #
edge $-1 $513 -112.85744804223764 $402 -107.94309688567806 $396 $514 forward 7 unknown #
vertex $-1 $277 $515 #
straight-curve $-1 52.953753033502124 6.3769528014843448 5.5171238870243258 0 -1 0 I I #
coedge $-1 $508 $278 $281 $409 reversed $394 $-1 #
coedge $-1 $278 $508 $400 $512 forward $394 $-1 #
vertex $-1 $279 $516 #
straight-curve $-1 56.428724021118811 16.80731881733637 80.823343227459944 0 0 1 I I #
straight-curve $-1 -23.373541871045916 16.80731881733637 81.844420562755147 0.70710677298230451 0 -0.70710678939079041 I I #
edge $-1 $510 8.7004923886010097 $282 16.80731881733637 $404 $517 forward 7 unknown #
point $-1 56.428724021118811 16.80731881733637 5.5171238870243329 #
point $-1 52.953753033502124 16.80731881733637 5.5171238870243258 #
edge $-1 $518 1 $518 0 $285 $-1 forward 7 unknown #
vertex $-1 $286 $519 #
ellipse-curve $-1 53.562785259363345 10.321857674348085 2.6511851111361984 0.70710678939079041 0 0.70710677298230451 0.35355338649115226 0 -0.35355339469539521 1 I I #
point $-1 55.044791913801618 10.321857674348085 3.4260849582020461 #
edge $-1 $520 1 $520 0 $289 $-1 forward 7 unknown #
vertex $-1 $290 $521 #
ellipse-curve $-1 53.562785259363345 12.75390560296869 2.6511851111361984 0.70710678939079041 0 0.70710677298230451 0.35355338649115226 0 -0.35355339469539521 1 I I #
point $-1 55.044791913801618 12.75390560296869 3.4260849582020461 #
edge $-1 $522 1 $522 0 $293 $-1 forward 7 unknown #
vertex $-1 $294 $523 #
ellipse-curve $-1 53.562785259363345 15.185953531589295 2.6511851111361984 0.70710678939079041 0 0.70710677298230451 0.35355338649115226 0 -0.35355339469539521 1 I I #
point $-1 55.044791913801618 15.185953531589295 3.4260849582020461 #
plane-surface $-1 0 0 5.5171238870243329 0 0 1 1 0 0 forward_v I I I I #
coedge $-1 $435 $434 $427 $524 forward $298 $-1 #
coedge $-1 $427 $300 $302 $431 reversed $192 $-1 #
coedge $-1 $300 $426 $425 $524 reversed $192 $-1 #
coedge $-1 $308 $303 $300 $429 forward $309 $-1 #
edge $-1 $432 -22.037737538613271 $525 -19.63991041126323 $428 $526 forward 7 unknown #
coedge $-1 $302 $301 $435 $527 reversed $120 $-1 #
edge $-1 $528 0 $432 4.5248915194743988 $426 $529 forward 7 unknown #
vertex $-1 $304 $530 #
straight-curve $-1 -54.030896893768777 5.8841508676300496 5.5171238870243329 0 1 0 I I #
coedge $-1 $425 $305 $308 $439 reversed $298 $-1 #
coedge $-1 $305 $425 $430 $527 forward $298 $-1 #
vertex $-1 $306 $531 #
straight-curve $-1 -56.428724021118811 6.7292846531838322 30.742566305638757 0 0 1 I I #
straight-curve $-1 -56.428724021118811 6.7292846531838322 1.6797982127616464 -0.52991925155115449 0 -0.84804810408105047 I I #
edge $-1 $525 -16.807318817336366 $310 -6.7292846531838322 $434 $532 forward 7 unknown #
point $-1 -56.428724021118811 6.7292846531838322 5.5171238870243329 #
point $-1 -54.030896893768769 6.7292846531838322 5.5171238870243329 #
edge $-1 $533 1 $533 0 $313 $-1 forward 7 unknown #
vertex $-1 $314 $534 #
ellipse-curve $-1 -52.982781909074369 8.7448914860143425 2.1943618238752682 -0.84804810408105047 0 0.52991925155115449 0.52991925155115449 0 0.84804810408105047 1 I I #
point $-1 -54.699891205892641 8.7448914860143425 4.4465091539740431 #
edge $-1 $535 1 $535 0 $317 $-1 forward 7 unknown #
vertex $-1 $318 $536 #
ellipse-curve $-1 -52.982781909074369 11.768301735260099 2.1943618238752682 -0.84804810408105047 0 0.52991925155115449 0.52991925155115449 0 0.84804810408105047 1 I I #
point $-1 -54.699891205892641 11.768301735260099 4.4465091539740431 #
edge $-1 $537 1 $537 0 $321 $-1 forward 7 unknown #
vertex $-1 $322 $538 #
ellipse-curve $-1 -52.982781909074369 14.791711984505856 2.1943618238752682 -0.84804810408105047 0 0.52991925155115449 0.52991925155115449 0 0.84804810408105047 1 I I #
point $-1 -54.699891205892641 14.791711984505856 4.4465091539740431 #
plane-surface $-1 56.428724021118811 0 0 -1 0 0 0 0 1 forward_v I I I I #
coedge $-1 $330 $328 $332 $459 reversed $221 $-1 #
edge $-1 $343 -5.5171238870243329 $461 5.5171238870243329 $342 $539 forward 7 unknown #
vertex $-1 $459 $540 #
straight-curve $-1 -56.428724021118811 -22.994097991112479 0 0 0 -1 I I #
edge $-1 $457 -22.994097991112479 $461 22.994097991112479 $455 $541 forward 7 unknown #
straight-curve $-1 0 -22.994097991112479 -5.5171238870243329 -1 0 0 I I #
vertex $-1 $335 $542 #
straight-curve $-1 0 22.994097991112479 -5.5171238870243329 1 0 0 I I #
point $-1 56.428724021118811 22.994097991112479 -5.5171238870243329 #
point $-1 56.428724021118811 -22.994097991112479 -5.5171238870243329 #
straight-curve $-1 -56.428724021118811 0 5.5171238870243329 0 -1 0 I I #
point $-1 -56.428724021118811 22.994097991112479 5.5171238870243329 #
point $-1 -56.428724021118811 -22.994097991112479 5.5171238870243329 #
straight-curve $-1 56.428724021118811 -22.994097991112479 0 0 0 -1 I I #
straight-curve $-1 56.428724021118811 22.994097991112479 0 0 0 -1 I I #
plane-surface $-1 0 0 -5.5171238870243329 0 0 1 1 0 0 forward_v I I I I #
coedge $-1 $485 $354 $483 $543 reversed $240 $-1 #
coedge $-1 $354 $485 $358 $477 reversed $240 $-1 #
coedge $-1 $356 $355 $354 $474 reversed $147 $-1 #
edge $-1 $478 -5.5171238870243329 $544 5.5171238870243329 $473 $545 forward 7 unknown #
edge $-1 $544 -29.180877164888589 $366 -22.994097991112479 $355 $546 forward 7 unknown #
straight-curve $-1 -56.428724021118811 -22.994097991112479 0 0 0 -1 I I #
edge $-1 $478 -1.5 $480 1.5 $472 $547 forward 7 unknown #
vertex $-1 $359 $548 #
straight-curve $-1 -56.428724021118811 0 5.5171238870243329 0 -1 0 I I #
vertex $-1 $360 $549 #
straight-curve $-1 -53.428724021118811 -26.087487578000534 5.5171238870243329 0 1 0 I I #
point $-1 -56.428724021118811 -22.994097991112479 5.5171238870243329 #
coedge $-1 $364 $363 $471 $543 forward $365 $-1 #
point $-1 -56.428724021118811 -22.994097991112479 -5.5171238870243329 #
coedge $-1 $472 $471 $368 $486 reversed $240 $-1 #
edge $-1 $480 -5.5171238870243329 $487 5.5171238870243329 $368 $550 forward 7 unknown #
vertex $-1 $486 $551 #
straight-curve $-1 -53.428724021118811 -26.087487578000534 -5.5171238870243329 0 -1 0 I I #
loop $-1 $-1 $385 $372 #
plane-surface $-1 -56.428724021118811 0 0 1 0 0 0 0 -1 forward_v I I I I #
coedge $-1 $376 $375 $499 $552 reversed $155 $-1 #
coedge $-1 $388 $387 $375 $493 forward $373 $-1 #
edge $-1 $553 -1.5 $496 1.5 $375 $554 forward 7 unknown #
edge $-1 $495 -1.5 $500 1.5 $376 $555 forward 7 unknown #
vertex $-1 $380 $556 #
vertex $-1 $391 $557 #
straight-curve $-1 -53.428724021118811 29.180877164888592 0 0 0 -1 I I #
straight-curve $-1 -53.428724021118811 26.087487578000538 5.5171238870243329 0 1 0 I I #
coedge $-1 $503 $381 $491 $552 forward $489 $-1 #
vertex $-1 $494 $558 #
straight-curve $-1 -56.428724021118811 0 5.5171238870243329 0 -1 0 I I #
point $-1 -56.428724021118811 22.994097991112479 5.5171238870243329 #
coedge $-1 $385 $499 $387 $505 reversed $489 $-1 #
straight-curve $-1 -56.428724021118811 22.994097991112479 0 0 0 1 I I #
edge $-1 $389 -3.0933895868880583 $553 3.0933895868880548 $503 $559 forward 7 unknown #
point $-1 -56.428724021118811 22.994097991112479 -5.5171238870243329 #
straight-curve $-1 -53.428724021118811 26.087487578000538 -5.5171238870243329 0 -1 0 I I #
coedge $-1 $405 $404 $397 $509 forward $394 $-1 #
edge $-1 $510 75.306219340435604 $513 78.781190408689369 $508 $560 forward 7 unknown #
vertex $-1 $409 $561 #
straight-curve $-1 28.214362936469335 8.7004923886010097 5.5171238870243258 1 0 0 I I #
edge $-1 $513 2.3235395871166649 $406 10.430366015852025 $405 $562 forward 7 unknown #
vertex $-1 $512 $563 #
straight-curve $-1 -23.373541871045916 8.7004923886010097 81.844420562755147 -0.70710677298230451 0 0.70710678939079041 I I #
point $-1 52.953753033502124 8.7004923886010097 5.5171238870243258 #
point $-1 56.428724021118811 16.80731881733637 2.0421528187705746 #
straight-curve $-1 56.428724021118811 0 5.5171238870243329 0 1 0 I I #
vertex $-1 $412 $564 #
point $-1 53.916338645854495 10.321857674348085 2.2976317164408031 #
vertex $-1 $416 $565 #
point $-1 53.916338645854495 12.75390560296869 2.2976317164408031 #
vertex $-1 $420 $566 #
point $-1 53.916338645854495 15.185953531589295 2.2976317164408031 #
edge $-1 $525 25.225442418614424 $528 29.062768092877111 $425 $567 forward 7 unknown #
vertex $-1 $439 $568 #
straight-curve $-1 -76.068634432382041 16.807318817336366 5.5171238870243329 -1 0 0 I I #
edge $-1 $528 -10.923167949706317 $436 -0.8451337855537826 $435 $569 forward 7 unknown #
vertex $-1 $527 $570 #
straight-curve $-1 -56.428724021118811 16.807318817336366 1.6797982127616464 0.52991925155115449 0 0.84804810408105047 I I #
point $-1 -54.030896893768769 16.807318817336366 5.5171238870243329 #
point $-1 -56.428724021118811 6.7292846531838322 1.6797982127616464 #
straight-curve $-1 -56.428724021118811 0 5.5171238870243329 0 -1 0 I I #
vertex $-1 $442 $571 #
point $-1 -52.45286265752322 8.7448914860143425 3.0424099279563186 #
vertex $-1 $446 $572 #
point $-1 -52.45286265752322 11.768301735260099 3.0424099279563186 #
vertex $-1 $450 $573 #
point $-1 -52.45286265752322 14.791711984505856 3.0424099279563186 #
straight-curve $-1 -56.428724021118811 22.994097991112479 0 0 0 -1 I I #
point $-1 -56.428724021118811 -22.994097991112479 -5.5171238870243329 #
straight-curve $-1 -56.428724021118811 0 -5.5171238870243329 0 1 0 I I #
point $-1 -56.428724021118811 22.994097991112479 -5.5171238870243329 #
edge $-1 $487 -1.5 $544 1.5 $471 $574 forward 7 unknown #
vertex $-1 $475 $575 #
straight-curve $-1 -56.428724021118811 -29.180877164888589 0 0 0 -1 I I #
straight-curve $-1 -56.428724021118811 0 -5.5171238870243329 0 1 0 I I #
straight-curve $-1 -54.928724021118811 -29.180877164888589 5.5171238870243329 1 0 0 I I #
point $-1 -56.428724021118811 -29.180877164888589 5.5171238870243329 #
point $-1 -53.428724021118811 -29.180877164888589 5.5171238870243329 #
straight-curve $-1 -53.428724021118811 -29.180877164888589 0 0 0 -1 I I #
point $-1 -53.428724021118811 -29.180877164888589 -5.5171238870243329 #
edge $-1 $500 -5.5171238870243329 $553 5.5171238870243329 $491 $576 forward 7 unknown #
vertex $-1 $493 $577 #
straight-curve $-1 -54.928724021118811 29.180877164888592 -5.5171238870243329 1 0 0 I I #
straight-curve $-1 -54.928724021118811 29.180877164888592 5.5171238870243329 -1 0 0 I I #
point $-1 -53.428724021118811 29.180877164888592 5.5171238870243329 #
point $-1 -53.428724021118811 29.180877164888592 -5.5171238870243329 #
point $-1 -56.428724021118811 29.180877164888592 5.5171238870243329 #
straight-curve $-1 -56.428724021118811 26.087487578000538 -5.5171238870243329 0 1 0 I I #
straight-curve $-1 56.428724021118811 8.7004923886010097 80.823343227459944 0 0 -1 I I #
point $-1 56.428724021118811 8.7004923886010097 5.5171238870243329 #
straight-curve $-1 56.428724021118803 6.3769528014843448 2.0421528187705817 0 1 0 I I #
point $-1 56.428724021118811 8.7004923886010097 2.0421528187705746 #
point $-1 53.209231864667949 10.321857674348085 2.2976317246450457 #
point $-1 53.209231864667949 12.75390560296869 2.2976317246450457 #
point $-1 53.209231864667949 15.185953531589295 2.2976317246450457 #
straight-curve $-1 -56.428724021118811 16.807318817336366 30.742566305638757 0 0 -1 I I #
point $-1 -56.428724021118811 16.807318817336366 5.5171238870243329 #
straight-curve $-1 -56.428724021118811 5.8841508676300496 1.6797982127616407 0 -1 0 I I #
point $-1 -56.428724021118811 16.807318817336366 1.6797982127616464 #
point $-1 -52.134733804993324 8.7448914860143425 1.6644425723241136 #
point $-1 -52.134733804993324 11.768301735260099 1.6644425723241136 #
point $-1 -52.134733804993324 14.791711984505856 1.6644425723241136 #
straight-curve $-1 -54.928724021118811 -29.180877164888589 -5.5171238870243329 -1 0 0 I I #
point $-1 -56.428724021118811 -29.180877164888589 -5.5171238870243329 #
straight-curve $-1 -56.428724021118811 29.180877164888592 0 0 0 -1 I I #
point $-1 -56.428724021118811 29.180877164888592 -5.5171238870243329 #
End-of-ACIS-data 