500 0 18 0           
7 Unknown 11 ACIS 5.0 NT 24 Thu Mar 25 21:47:34 1999 
-1 9.9999999999999995e-007 1e-010 
body $-1 $18 $-1 $19 #
body $-1 $20 $-1 $21 #
body $-1 $22 $-1 $23 #
body $-1 $24 $-1 $25 #
body $-1 $26 $-1 $27 #
body $-1 $28 $-1 $29 #
body $-1 $30 $-1 $31 #
body $-1 $32 $-1 $33 #
body $-1 $34 $-1 $35 #
body $-1 $36 $-1 $37 #
body $-1 $38 $-1 $39 #
body $-1 $40 $-1 $41 #
body $-1 $42 $-1 $43 #
body $-1 $44 $-1 $45 #
body $-1 $46 $-1 $47 #
body $-1 $48 $-1 $49 #
body $-1 $50 $-1 $51 #
body $-1 $52 $-1 $53 #
lump $-1 $-1 $54 $0 #
transform $-1 1 0 0 0 1 0 0 0 1 75.099948118533888 39.430280386866215 19.615863539118816 1 rotate no_reflect no_shear #
lump $-1 $-1 $55 $1 #
transform $-1 1 0 0 0 1 0 0 0 1 75.099948118533888 39.430280386866215 19.615863539118816 1 rotate no_reflect no_shear #
lump $-1 $-1 $56 $2 #
transform $-1 1 0 0 0 1 0 0 0 1 75.099948118533888 39.430280386866215 19.615863539118816 1 rotate no_reflect no_shear #
lump $-1 $-1 $57 $3 #
transform $-1 1 0 0 0 1 0 0 0 1 75.099948118533888 39.430280386866215 19.615863539118816 1 rotate no_reflect no_shear #
lump $-1 $-1 $58 $4 #
transform $-1 1 0 0 0 1 0 0 0 1 75.099948118533888 39.430280386866215 19.615863539118816 1 rotate no_reflect no_shear #
lump $-1 $-1 $59 $5 #
transform $-1 1 0 0 0 1 0 0 0 1 75.099948118533888 39.430280386866215 19.615863539118816 1 rotate no_reflect no_shear #
lump $-1 $-1 $60 $6 #
transform $-1 1 0 0 0 1 0 0 0 1 75.099948118533888 39.430280386866215 19.615863539118816 1 rotate no_reflect no_shear #
lump $-1 $-1 $61 $7 #
transform $-1 1 0 0 0 1 0 0 0 1 75.099948118533888 39.430280386866215 19.615863539118816 1 rotate no_reflect no_shear #
lump $-1 $-1 $62 $8 #
transform $-1 1 0 0 0 1 0 0 0 1 75.099948118533888 39.430280386866215 19.615863539118816 1 rotate no_reflect no_shear #
lump $-1 $-1 $63 $9 #
transform $-1 1 0 0 0 1 0 0 0 1 75.099948118533888 39.430280386866215 19.615863539118816 1 rotate no_reflect no_shear #
lump $-1 $-1 $64 $10 #
transform $-1 1 0 0 0 1 0 0 0 1 75.099948118533888 39.430280386866215 19.615863539118816 1 rotate no_reflect no_shear #
lump $-1 $-1 $65 $11 #
transform $-1 1 0 0 0 1 0 0 0 1 75.099948118533888 39.430280386866215 19.615863539118816 1 rotate no_reflect no_shear #
lump $-1 $-1 $66 $12 #
transform $-1 1 0 0 0 1 0 0 0 1 75.099948118533888 39.430280386866215 19.615863539118816 1 rotate no_reflect no_shear #
lump $-1 $-1 $67 $13 #
transform $-1 1 0 0 0 1 0 0 0 1 75.099948118533888 39.430280386866215 19.615863539118816 1 rotate no_reflect no_shear #
lump $-1 $-1 $68 $14 #
transform $-1 1 0 0 0 1 0 0 0 1 75.099948118533888 39.430280386866215 19.615863539118816 1 rotate no_reflect no_shear #
lump $-1 $-1 $69 $15 #
transform $-1 1 0 0 0 1 0 0 0 1 75.099948118533888 39.430280386866215 19.615863539118816 1 rotate no_reflect no_shear #
lump $-1 $-1 $70 $16 #
transform $-1 1 0 0 0 1 0 0 0 1 75.099948118533888 39.430280386866215 19.615863539118816 1 rotate no_reflect no_shear #
lump $-1 $-1 $71 $17 #
transform $-1 1 0 0 0 1 0 0 0 1 75.099948118533888 39.430280386866215 19.615863539118816 1 rotate no_reflect no_shear #
shell $-1 $-1 $-1 $72 $-1 $18 #
shell $-1 $-1 $-1 $73 $-1 $20 #
shell $-1 $-1 $-1 $74 $-1 $22 #
shell $-1 $-1 $-1 $75 $-1 $24 #
shell $-1 $-1 $-1 $76 $-1 $26 #
shell $-1 $-1 $-1 $77 $-1 $28 #
shell $-1 $-1 $-1 $78 $-1 $30 #
shell $-1 $-1 $-1 $79 $-1 $32 #
shell $-1 $-1 $-1 $80 $-1 $34 #
shell $-1 $-1 $-1 $81 $-1 $36 #
shell $-1 $-1 $-1 $82 $-1 $38 #
shell $-1 $-1 $-1 $83 $-1 $40 #
shell $-1 $-1 $-1 $84 $-1 $42 #
shell $-1 $-1 $-1 $85 $-1 $44 #
shell $-1 $-1 $-1 $86 $-1 $46 #
shell $-1 $-1 $-1 $87 $-1 $48 #
shell $-1 $-1 $-1 $88 $-1 $50 #
shell $-1 $-1 $-1 $89 $-1 $52 #
face $-1 $90 $91 $54 $-1 $92 forward single #
face $-1 $93 $94 $55 $-1 $95 forward single #
face $-1 $96 $97 $56 $-1 $98 reversed single #
face $-1 $99 $100 $57 $-1 $101 forward single #
face $-1 $102 $103 $58 $-1 $104 forward single #
face $-1 $105 $106 $59 $-1 $107 forward single #
face $-1 $108 $109 $60 $-1 $110 reversed single #
face $-1 $111 $112 $61 $-1 $113 forward single #
face $-1 $114 $115 $62 $-1 $116 forward single #
face $-1 $117 $118 $63 $-1 $119 forward single #
face $-1 $120 $121 $64 $-1 $122 reversed single #
face $-1 $123 $124 $65 $-1 $125 forward single #
face $-1 $126 $127 $66 $-1 $128 forward single #
face $-1 $129 $130 $67 $-1 $131 forward single #
face $-1 $132 $133 $68 $-1 $134 reversed single #
face $-1 $135 $136 $69 $-1 $137 forward single #
face $-1 $138 $139 $70 $-1 $140 forward single #
face $-1 $141 $142 $71 $-1 $143 forward single #
face $-1 $144 $145 $54 $-1 $146 reversed single #
loop $-1 $-1 $147 $72 #
plane-surface $-1 0 0 19.615863539118816 0 0 1 1 0 0 forward_v I I I I #
face $-1 $148 $149 $55 $-1 $150 reversed single #
loop $-1 $-1 $151 $73 #
plane-surface $-1 -62.84214962343728 0 16.050318367057773 0 0 1 1 0 0 forward_v I I I I #
face $-1 $152 $153 $56 $-1 $154 reversed single #
loop $-1 $-1 $155 $74 #
plane-surface $-1 -20.598094036107653 119.85337396956926 152.56426563206077 1 0 0 0 -0.82903758062907751 -0.55919289150049634 forward_v I I I I #
face $-1 $156 $157 $57 $-1 $158 forward single #
loop $-1 $159 $160 $75 #
cone-surface $-1 -17.875094039820269 32.324927008747267 10.348292463400535 0 -0.82903758062907751 -0.55919289150049634 1 0 0 1 I I 0 1 1 forward I I I I #
face $-1 $161 $162 $58 $-1 $163 forward single #
loop $-1 $164 $165 $76 #
cone-surface $-1 -13.790594045389192 32.324927008747267 10.348292463400535 0 -0.82903758062907751 -0.55919289150049634 1 0 0 1 I I 0 1 1 forward I I I I #
face $-1 $166 $167 $59 $-1 $168 forward single #
loop $-1 $169 $170 $77 #
cone-surface $-1 -9.7060940509581144 32.324927008747267 10.348292463400535 0 -0.82903758062907751 -0.55919289150049634 1 0 0 1 I I 0 1 1 forward I I I I #
face $-1 $171 $172 $60 $-1 $173 reversed single #
loop $-1 $-1 $174 $78 #
plane-surface $-1 31.498691044863953 119.85337396956926 152.56426563206077 1 0 0 0 -0.82903758062907751 -0.55919289150049634 forward_v I I I I #
face $-1 $175 $176 $61 $-1 $177 forward single #
loop $-1 $178 $179 $79 #
cone-surface $-1 34.221691041151331 32.324927008747267 10.348292463400535 0 -0.82903758062907751 -0.55919289150049634 1 0 0 1 I I 0 1 1 forward I I I I #
face $-1 $180 $181 $62 $-1 $182 forward single #
loop $-1 $183 $184 $80 #
cone-surface $-1 38.306191035582415 32.324927008747267 10.348292463400535 0 -0.82903758062907751 -0.55919289150049634 1 0 0 1 I I 0 1 1 forward I I I I #
face $-1 $185 $186 $63 $-1 $187 forward single #
loop $-1 $188 $189 $81 #
cone-surface $-1 42.3906910300135 32.324927008747267 10.348292463400535 0 -0.82903758062907751 -0.55919289150049634 1 0 0 1 I I 0 1 1 forward I I I I #
face $-1 $190 $191 $64 $-1 $192 reversed single #
loop $-1 $-1 $193 $82 #
plane-surface $-1 -6.9830940546707296 -163.95163897398334 87.185897121153289 -1 0 0 0 -0.82903758062907751 0.55919289150049634 forward_v I I I I #
face $-1 $194 $195 $65 $-1 $196 forward single #
loop $-1 $197 $198 $83 #
cone-surface $-1 -17.875094039820269 -32.324927008747281 10.348292463400535 0 0.82903758062907751 -0.55919289150049634 1 0 0 1 I I 0 1 1 forward I I I I #
face $-1 $199 $200 $66 $-1 $201 forward single #
loop $-1 $202 $203 $84 #
cone-surface $-1 -13.790594045389192 -32.324927008747281 10.348292463400535 0 0.82903758062907751 -0.55919289150049634 1 0 0 1 I I 0 1 1 forward I I I I #
face $-1 $204 $205 $67 $-1 $206 forward single #
loop $-1 $207 $208 $85 #
cone-surface $-1 -9.7060940509581144 -32.324927008747281 10.348292463400535 0 0.82903758062907751 -0.55919289150049634 1 0 0 1 I I 0 1 1 forward I I I I #
face $-1 $209 $210 $68 $-1 $211 reversed single #
loop $-1 $-1 $212 $86 #
plane-surface $-1 45.113691026300877 -163.95163897398334 87.185897121153289 -1 0 0 0 -0.82903758062907751 0.55919289150049634 forward_v I I I I #
face $-1 $213 $214 $69 $-1 $215 forward single #
loop $-1 $216 $217 $87 #
cone-surface $-1 34.221691041151331 -32.324927008747281 10.348292463400535 0 0.82903758062907751 -0.55919289150049634 1 0 0 1 I I 0 1 1 forward I I I I #
face $-1 $218 $219 $70 $-1 $220 forward single #
loop $-1 $221 $222 $88 #
cone-surface $-1 38.306191035582415 -32.324927008747281 10.348292463400535 0 0.82903758062907751 -0.55919289150049634 1 0 0 1 I I 0 1 1 forward I I I I #
face $-1 $223 $224 $71 $-1 $225 forward single #
loop $-1 $226 $227 $89 #
cone-surface $-1 42.3906910300135 -32.324927008747281 10.348292463400535 0 0.82903758062907751 -0.55919289150049634 1 0 0 1 I I 0 1 1 forward I I I I #
face $-1 $228 $229 $54 $-1 $230 reversed single #
loop $-1 $-1 $231 $90 #
plane-surface $-1 0 0 -19.615863539118816 0 0 1 1 0 0 forward_v I I I I #
coedge $-1 $232 $233 $234 $235 forward $91 $-1 #
face $-1 $236 $237 $55 $-1 $238 reversed single #
loop $-1 $-1 $239 $93 #
plane-surface $-1 -62.84214962343728 0 8.2843113677116982 0 0 1 1 0 0 forward_v I I I I #
coedge $-1 $240 $241 $242 $243 forward $94 $-1 #
face $-1 $244 $245 $56 $-1 $246 reversed single #
loop $-1 $-1 $247 $96 #
plane-surface $-1 -13.790594045389192 -4.6679846175478872 68.573551352180317 0 0.82903758062907751 0.55919289150049634 1 0 0 forward_v I I I I #
coedge $-1 $248 $249 $250 $251 reversed $97 $-1 #
face $-1 $-1 $252 $57 $-1 $253 forward single #
loop $-1 $254 $255 $99 #
cone-surface $-1 -17.875094039820269 30.342999159356168 9.0114652908549893 0 -0.82903758062907751 -0.55919289150049634 0.5 0 0 1 I I -0.70710678118654746 0.70710678118654746 0.5 forward I I I I #
loop $-1 $-1 $256 $75 #
coedge $-1 $160 $160 $257 $258 reversed $100 $-1 #
face $-1 $-1 $259 $58 $-1 $260 forward single #
loop $-1 $261 $262 $102 #
cone-surface $-1 -13.790594045389192 30.342999159356168 9.0114652908549893 0 -0.82903758062907751 -0.55919289150049634 0.5 0 0 1 I I -0.70710678118654746 0.70710678118654746 0.5 forward I I I I #
loop $-1 $-1 $263 $76 #
coedge $-1 $165 $165 $264 $265 reversed $103 $-1 #
face $-1 $-1 $266 $59 $-1 $267 forward single #
loop $-1 $268 $269 $105 #
cone-surface $-1 -9.7060940509581144 30.342999159356168 9.0114652908549893 0 -0.82903758062907751 -0.55919289150049634 0.5 0 0 1 I I -0.70710678118654746 0.70710678118654746 0.5 forward I I I I #
loop $-1 $-1 $270 $77 #
coedge $-1 $170 $170 $271 $272 reversed $106 $-1 #
face $-1 $273 $274 $60 $-1 $275 reversed single #
loop $-1 $-1 $276 $108 #
plane-surface $-1 38.306191035582415 -4.6679846175478872 68.573551352180317 0 0.82903758062907751 0.55919289150049634 1 0 0 forward_v I I I I #
coedge $-1 $277 $278 $279 $280 reversed $109 $-1 #
face $-1 $-1 $281 $61 $-1 $282 forward single #
loop $-1 $283 $284 $111 #
cone-surface $-1 34.221691041151331 30.342999159356168 9.0114652908549893 0 -0.82903758062907751 -0.55919289150049634 0.5 0 0 1 I I -0.70710678118654746 0.70710678118654746 0.5 forward I I I I #
loop $-1 $-1 $285 $79 #
coedge $-1 $179 $179 $286 $287 reversed $112 $-1 #
face $-1 $-1 $288 $62 $-1 $289 forward single #
loop $-1 $290 $291 $114 #
cone-surface $-1 38.306191035582415 30.342999159356168 9.0114652908549893 0 -0.82903758062907751 -0.55919289150049634 0.5 0 0 1 I I -0.70710678118654746 0.70710678118654746 0.5 forward I I I I #
loop $-1 $-1 $292 $80 #
coedge $-1 $184 $184 $293 $294 reversed $115 $-1 #
face $-1 $-1 $295 $63 $-1 $296 forward single #
loop $-1 $297 $298 $117 #
cone-surface $-1 42.3906910300135 30.342999159356168 9.0114652908549893 0 -0.82903758062907751 -0.55919289150049634 0.5 0 0 1 I I -0.70710678118654746 0.70710678118654746 0.5 forward I I I I #
loop $-1 $-1 $299 $81 #
coedge $-1 $189 $189 $300 $301 reversed $118 $-1 #
face $-1 $302 $303 $64 $-1 $304 reversed single #
loop $-1 $-1 $305 $120 #
plane-surface $-1 -13.790594045389192 -39.430280386866187 3.1951828412728389 0 -0.82903758062907751 0.55919289150049634 1 0 0 forward_v I I I I #
coedge $-1 $306 $307 $308 $309 reversed $121 $-1 #
face $-1 $-1 $310 $65 $-1 $311 forward single #
loop $-1 $312 $313 $123 #
cone-surface $-1 -17.875094039820269 -30.342999159356179 9.0114652908549893 0 0.82903758062907751 -0.55919289150049634 0.5 0 0 1 I I -0.70710678118654746 0.70710678118654746 0.5 forward I I I I #
loop $-1 $-1 $314 $83 #
coedge $-1 $198 $198 $315 $316 reversed $124 $-1 #
face $-1 $-1 $317 $66 $-1 $318 forward single #
loop $-1 $319 $320 $126 #
cone-surface $-1 -13.790594045389192 -30.342999159356179 9.0114652908549893 0 0.82903758062907751 -0.55919289150049634 0.5 0 0 1 I I -0.70710678118654746 0.70710678118654746 0.5 forward I I I I #
loop $-1 $-1 $321 $84 #
coedge $-1 $203 $203 $322 $323 reversed $127 $-1 #
face $-1 $-1 $324 $67 $-1 $325 forward single #
loop $-1 $326 $327 $129 #
cone-surface $-1 -9.7060940509581144 -30.342999159356179 9.0114652908549893 0 0.82903758062907751 -0.55919289150049634 0.5 0 0 1 I I -0.70710678118654746 0.70710678118654746 0.5 forward I I I I #
loop $-1 $-1 $328 $85 #
coedge $-1 $208 $208 $329 $330 reversed $130 $-1 #
face $-1 $331 $332 $68 $-1 $333 reversed single #
loop $-1 $-1 $334 $132 #
plane-surface $-1 38.306191035582415 -39.430280386866187 3.1951828412728389 0 -0.82903758062907751 0.55919289150049634 1 0 0 forward_v I I I I #
coedge $-1 $335 $336 $337 $338 reversed $133 $-1 #
face $-1 $-1 $339 $69 $-1 $340 forward single #
loop $-1 $341 $342 $135 #
cone-surface $-1 34.221691041151331 -30.342999159356179 9.0114652908549893 0 0.82903758062907751 -0.55919289150049634 0.5 0 0 1 I I -0.70710678118654746 0.70710678118654746 0.5 forward I I I I #
loop $-1 $-1 $343 $87 #
coedge $-1 $217 $217 $344 $345 reversed $136 $-1 #
face $-1 $-1 $346 $70 $-1 $347 forward single #
loop $-1 $348 $349 $138 #
cone-surface $-1 38.306191035582415 -30.342999159356179 9.0114652908549893 0 0.82903758062907751 -0.55919289150049634 0.5 0 0 1 I I -0.70710678118654746 0.70710678118654746 0.5 forward I I I I #
loop $-1 $-1 $350 $88 #
coedge $-1 $222 $222 $351 $352 reversed $139 $-1 #
face $-1 $-1 $353 $71 $-1 $354 forward single #
loop $-1 $355 $356 $141 #
cone-surface $-1 42.3906910300135 -30.342999159356179 9.0114652908549893 0 0.82903758062907751 -0.55919289150049634 0.5 0 0 1 I I -0.70710678118654746 0.70710678118654746 0.5 forward I I I I #
loop $-1 $-1 $357 $89 #
coedge $-1 $227 $227 $358 $359 reversed $142 $-1 #
face $-1 $360 $361 $54 $-1 $362 reversed single #
loop $-1 $-1 $363 $144 #
plane-surface $-1 0 -39.430280386866215 0 0 1 0 0 0 1 forward_v I I I I #
coedge $-1 $364 $365 $366 $367 forward $145 $-1 #
coedge $-1 $368 $147 $369 $370 forward $91 $-1 #
coedge $-1 $147 $368 $371 $372 forward $91 $-1 #
coedge $-1 $373 $374 $147 $235 reversed $375 $-1 #
edge $-1 $376 -39.430280386866215 $377 39.430280386866215 $234 $378 forward 7 unknown #
face $-1 $379 $380 $55 $-1 $381 reversed single #
loop $-1 $-1 $382 $148 #
plane-surface $-1 -50.584351128340671 0 12.167314867384736 -1 0 0 0 0 1 forward_v I I I I #
coedge $-1 $383 $384 $385 $386 forward $149 $-1 #
coedge $-1 $387 $151 $388 $389 reversed $94 $-1 #
coedge $-1 $151 $387 $390 $391 reversed $94 $-1 #
coedge $-1 $382 $392 $151 $243 reversed $237 $-1 #
edge $-1 $393 -39.430280386866215 $394 39.430280386866215 $242 $395 forward 7 unknown #
face $-1 $396 $397 $56 $-1 $398 forward single #
loop $-1 $-1 $399 $152 #
plane-surface $-1 -6.9830940546707296 119.85337396956926 152.56426563206077 -1 0 0 0 0.82903758062907751 0.55919289150049634 forward_v I I I I #
coedge $-1 $400 $401 $402 $403 reversed $153 $-1 #
coedge $-1 $249 $155 $404 $405 reversed $97 $-1 #
coedge $-1 $155 $248 $400 $406 reversed $97 $-1 #
coedge $-1 $402 $407 $155 $251 forward $397 $-1 #
edge $-1 $408 20.496406597918416 $409 31.572295236003221 $250 $410 forward 7 unknown #
loop $-1 $-1 $257 $156 #
plane-surface $-1 -13.790594045389192 -4.6679846175478872 68.573551352180317 0 0.82903758062907751 0.55919289150049634 1 0 0 forward_v I I I I #
loop $-1 $-1 $411 $99 #
coedge $-1 $255 $255 $256 $412 reversed $157 $-1 #
coedge $-1 $256 $256 $255 $412 forward $159 $-1 #
coedge $-1 $257 $257 $160 $258 forward $252 $-1 #
edge $-1 $413 -1.3340857799017796e-015 $413 6.2831853071795987 $257 $414 forward 7 unknown #
loop $-1 $-1 $264 $161 #
plane-surface $-1 -13.790594045389192 -4.6679846175478872 68.573551352180317 0 0.82903758062907751 0.55919289150049634 1 0 0 forward_v I I I I #
loop $-1 $-1 $415 $102 #
coedge $-1 $262 $262 $263 $416 reversed $162 $-1 #
coedge $-1 $263 $263 $262 $416 forward $164 $-1 #
coedge $-1 $264 $264 $165 $265 forward $259 $-1 #
edge $-1 $417 -1.3340857799017796e-015 $417 6.2831853071795987 $264 $418 forward 7 unknown #
loop $-1 $-1 $271 $166 #
plane-surface $-1 -13.790594045389192 -4.6679846175478872 68.573551352180317 0 0.82903758062907751 0.55919289150049634 1 0 0 forward_v I I I I #
loop $-1 $-1 $419 $105 #
coedge $-1 $269 $269 $270 $420 reversed $167 $-1 #
coedge $-1 $270 $270 $269 $420 forward $169 $-1 #
coedge $-1 $271 $271 $170 $272 forward $266 $-1 #
edge $-1 $421 -1.3340857799017796e-015 $421 6.2831853071795987 $271 $422 forward 7 unknown #
face $-1 $423 $424 $60 $-1 $425 forward single #
loop $-1 $-1 $426 $171 #
plane-surface $-1 45.113691026300877 119.85337396956926 152.56426563206077 -1 0 0 0 0.82903758062907751 0.55919289150049634 forward_v I I I I #
coedge $-1 $427 $428 $429 $430 reversed $172 $-1 #
coedge $-1 $278 $174 $431 $432 reversed $109 $-1 #
coedge $-1 $174 $277 $427 $433 reversed $109 $-1 #
coedge $-1 $429 $434 $174 $280 forward $424 $-1 #
edge $-1 $435 20.496406597918416 $436 31.572295236003221 $279 $437 forward 7 unknown #
loop $-1 $-1 $286 $175 #
plane-surface $-1 38.306191035582415 -4.6679846175478872 68.573551352180317 0 0.82903758062907751 0.55919289150049634 1 0 0 forward_v I I I I #
loop $-1 $-1 $438 $111 #
coedge $-1 $284 $284 $285 $439 reversed $176 $-1 #
coedge $-1 $285 $285 $284 $439 forward $178 $-1 #
coedge $-1 $286 $286 $179 $287 forward $281 $-1 #
edge $-1 $440 -1.3340857799017796e-015 $440 6.2831853071795987 $286 $441 forward 7 unknown #
loop $-1 $-1 $293 $180 #
plane-surface $-1 38.306191035582415 -4.6679846175478872 68.573551352180317 0 0.82903758062907751 0.55919289150049634 1 0 0 forward_v I I I I #
loop $-1 $-1 $442 $114 #
coedge $-1 $291 $291 $292 $443 reversed $181 $-1 #
coedge $-1 $292 $292 $291 $443 forward $183 $-1 #
coedge $-1 $293 $293 $184 $294 forward $288 $-1 #
edge $-1 $444 -1.3340857799017796e-015 $444 6.2831853071795987 $293 $445 forward 7 unknown #
loop $-1 $-1 $300 $185 #
plane-surface $-1 38.306191035582415 -4.6679846175478872 68.573551352180317 0 0.82903758062907751 0.55919289150049634 1 0 0 forward_v I I I I #
loop $-1 $-1 $446 $117 #
coedge $-1 $298 $298 $299 $447 reversed $186 $-1 #
coedge $-1 $299 $299 $298 $447 forward $188 $-1 #
coedge $-1 $300 $300 $189 $301 forward $295 $-1 #
edge $-1 $448 -1.3340857799017796e-015 $448 6.2831853071795987 $300 $449 forward 7 unknown #
face $-1 $450 $451 $64 $-1 $452 reversed single #
loop $-1 $-1 $453 $190 #
plane-surface $-1 -20.598094036107653 -163.95163897398334 87.185897121153289 1 0 0 0 0.82903758062907751 -0.55919289150049634 forward_v I I I I #
coedge $-1 $454 $455 $456 $457 reversed $191 $-1 #
coedge $-1 $307 $193 $458 $459 reversed $121 $-1 #
coedge $-1 $193 $306 $454 $460 reversed $121 $-1 #
coedge $-1 $456 $461 $193 $309 forward $462 $-1 #
edge $-1 $463 42.545539100125453 $464 53.621427738210244 $308 $465 forward 7 unknown #
loop $-1 $-1 $315 $194 #
plane-surface $-1 -13.790594045389192 -39.430280386866187 3.1951828412728389 0 -0.82903758062907751 0.55919289150049634 1 0 0 forward_v I I I I #
loop $-1 $-1 $466 $123 #
coedge $-1 $313 $313 $314 $467 reversed $195 $-1 #
coedge $-1 $314 $314 $313 $467 forward $197 $-1 #
coedge $-1 $315 $315 $198 $316 forward $310 $-1 #
edge $-1 $468 -1.1665521130715569e-015 $468 6.2831853071795996 $315 $469 forward 7 unknown #
loop $-1 $-1 $322 $199 #
plane-surface $-1 -13.790594045389192 -39.430280386866187 3.1951828412728389 0 -0.82903758062907751 0.55919289150049634 1 0 0 forward_v I I I I #
loop $-1 $-1 $470 $126 #
coedge $-1 $320 $320 $321 $471 reversed $200 $-1 #
coedge $-1 $321 $321 $320 $471 forward $202 $-1 #
coedge $-1 $322 $322 $203 $323 forward $317 $-1 #
edge $-1 $472 -1.1665521130715569e-015 $472 6.2831853071795996 $322 $473 forward 7 unknown #
loop $-1 $-1 $329 $204 #
plane-surface $-1 -13.790594045389192 -39.430280386866187 3.1951828412728389 0 -0.82903758062907751 0.55919289150049634 1 0 0 forward_v I I I I #
loop $-1 $-1 $474 $129 #
coedge $-1 $327 $327 $328 $475 reversed $205 $-1 #
coedge $-1 $328 $328 $327 $475 forward $207 $-1 #
coedge $-1 $329 $329 $208 $330 forward $324 $-1 #
edge $-1 $476 -1.1665521130715569e-015 $476 6.2831853071795996 $329 $477 forward 7 unknown #
face $-1 $478 $479 $68 $-1 $480 reversed single #
loop $-1 $-1 $481 $209 #
plane-surface $-1 31.498691044863953 -163.95163897398334 87.185897121153289 1 0 0 0 0.82903758062907751 -0.55919289150049634 forward_v I I I I #
coedge $-1 $482 $483 $484 $485 reversed $210 $-1 #
coedge $-1 $336 $212 $486 $487 reversed $133 $-1 #
coedge $-1 $212 $335 $482 $488 reversed $133 $-1 #
coedge $-1 $484 $489 $212 $338 forward $490 $-1 #
edge $-1 $491 42.545539100125453 $492 53.621427738210244 $337 $493 forward 7 unknown #
loop $-1 $-1 $344 $213 #
plane-surface $-1 38.306191035582415 -39.430280386866187 3.1951828412728389 0 -0.82903758062907751 0.55919289150049634 1 0 0 forward_v I I I I #
loop $-1 $-1 $494 $135 #
coedge $-1 $342 $342 $343 $495 reversed $214 $-1 #
coedge $-1 $343 $343 $342 $495 forward $216 $-1 #
coedge $-1 $344 $344 $217 $345 forward $339 $-1 #
edge $-1 $496 -1.1665521130715569e-015 $496 6.2831853071795996 $344 $497 forward 7 unknown #
loop $-1 $-1 $351 $218 #
plane-surface $-1 38.306191035582415 -39.430280386866187 3.1951828412728389 0 -0.82903758062907751 0.55919289150049634 1 0 0 forward_v I I I I #
loop $-1 $-1 $498 $138 #
coedge $-1 $349 $349 $350 $499 reversed $219 $-1 #
coedge $-1 $350 $350 $349 $499 forward $221 $-1 #
coedge $-1 $351 $351 $222 $352 forward $346 $-1 #
edge $-1 $500 -1.1665521130715569e-015 $500 6.2831853071795996 $351 $501 forward 7 unknown #
loop $-1 $-1 $358 $223 #
plane-surface $-1 38.306191035582415 -39.430280386866187 3.1951828412728389 0 -0.82903758062907751 0.55919289150049634 1 0 0 forward_v I I I I #
loop $-1 $-1 $502 $141 #
coedge $-1 $356 $356 $357 $503 reversed $224 $-1 #
coedge $-1 $357 $357 $356 $503 forward $226 $-1 #
coedge $-1 $358 $358 $227 $359 forward $353 $-1 #
edge $-1 $504 -1.1665521130715569e-015 $504 6.2831853071795996 $358 $505 forward 7 unknown #
face $-1 $506 $507 $54 $-1 $508 reversed single #
loop $-1 $-1 $509 $228 #
plane-surface $-1 -75.099948118533888 0 0 1 0 0 0 0 -1 forward_v I I I I #
coedge $-1 $510 $371 $511 $512 forward $229 $-1 #
coedge $-1 $513 $231 $510 $514 forward $145 $-1 #
coedge $-1 $231 $513 $515 $516 forward $145 $-1 #
coedge $-1 $374 $373 $231 $367 reversed $375 $-1 #
edge $-1 $517 -39.430280386866215 $518 39.430280386866215 $366 $519 forward 7 unknown #
coedge $-1 $233 $232 $520 $521 forward $91 $-1 #
coedge $-1 $522 $523 $232 $370 reversed $507 $-1 #
edge $-1 $377 -75.099948118533888 $524 75.099948118533888 $369 $525 forward 7 unknown #
coedge $-1 $363 $526 $233 $372 reversed $229 $-1 #
edge $-1 $527 -75.099948118533888 $376 75.099948118533888 $371 $528 forward 7 unknown #
coedge $-1 $366 $234 $526 $529 forward $375 $-1 #
coedge $-1 $234 $366 $522 $530 reversed $375 $-1 #
loop $-1 $-1 $373 $506 #
vertex $-1 $235 $531 #
vertex $-1 $235 $532 #
straight-curve $-1 75.099948118533888 0 19.615863539118816 0 1 0 I I #
face $-1 $533 $534 $55 $-1 $535 reversed single #
loop $-1 $-1 $536 $236 #
plane-surface $-1 0 -39.430280386866215 0 0 1 0 0 0 1 forward_v I I I I #
coedge $-1 $385 $242 $537 $538 reversed $237 $-1 #
coedge $-1 $539 $239 $536 $540 reversed $149 $-1 #
coedge $-1 $239 $539 $541 $542 reversed $149 $-1 #
coedge $-1 $392 $382 $239 $386 reversed $237 $-1 #
edge $-1 $543 -39.430280386866215 $544 39.430280386866215 $385 $545 forward 7 unknown #
coedge $-1 $241 $240 $546 $547 reversed $94 $-1 #
coedge $-1 $548 $549 $240 $389 forward $550 $-1 #
edge $-1 $551 -43.678873306815248 $394 -19.163276316622031 $388 $552 forward 7 unknown #
coedge $-1 $553 $537 $241 $391 forward $380 $-1 #
edge $-1 $393 19.163276316622031 $554 43.678873306815248 $390 $555 forward 7 unknown #
coedge $-1 $242 $385 $548 $556 reversed $237 $-1 #
vertex $-1 $391 $557 #
vertex $-1 $389 $558 #
straight-curve $-1 -50.584351128340671 0 16.050318367057773 0 1 0 I I #
face $-1 $-1 $559 $56 $-1 $560 reversed single #
loop $-1 $-1 $250 $244 #
plane-surface $-1 0 0 19.615863539118816 0 0 1 1 0 0 forward_v I I I I #
coedge $-1 $561 $562 $563 $564 reversed $245 $-1 #
coedge $-1 $565 $247 $249 $406 forward $153 $-1 #
coedge $-1 $247 $565 $561 $566 forward $153 $-1 #
coedge $-1 $563 $250 $247 $403 forward $397 $-1 #
edge $-1 $409 -13.702797013413058 $567 -0.087797031976133866 $402 $568 forward 7 unknown #
coedge $-1 $569 $570 $248 $405 forward $559 $-1 #
edge $-1 $571 -73.086949974757601 $408 -56.666269276911564 $404 $572 forward 7 unknown #
edge $-1 $409 59.053641182239517 $571 78.860560773732516 $249 $573 forward 7 unknown #
coedge $-1 $250 $563 $569 $574 forward $397 $-1 #
vertex $-1 $405 $575 #
vertex $-1 $251 $576 #
straight-curve $-1 -20.598094036107653 59.926686984784631 19.61586353911882 0 -1 0 I I #
coedge $-1 $411 $411 $-1 $577 reversed $254 $-1 #
edge $-1 $578 0 $578 6.2831853071796004 $255 $579 forward 7 unknown #
vertex $-1 $258 $580 #
ellipse-curve $-1 -17.875094039820269 33.892336067823805 11.405523190195815 0 0.82903758062907751 0.55919289150049634 1 0 0 1 I I #
coedge $-1 $415 $415 $-1 $581 reversed $261 $-1 #
edge $-1 $582 0 $582 6.2831853071796004 $262 $583 forward 7 unknown #
vertex $-1 $265 $584 #
ellipse-curve $-1 -13.790594045389192 33.892336067823805 11.405523190195815 0 0.82903758062907751 0.55919289150049634 1 0 0 1 I I #
coedge $-1 $419 $419 $-1 $585 reversed $268 $-1 #
edge $-1 $586 0 $586 6.2831853071796004 $269 $587 forward 7 unknown #
vertex $-1 $272 $588 #
ellipse-curve $-1 -9.7060940509581144 33.892336067823805 11.405523190195815 0 0.82903758062907751 0.55919289150049634 1 0 0 1 I I #
face $-1 $-1 $589 $60 $-1 $590 reversed single #
loop $-1 $-1 $279 $273 #
plane-surface $-1 0 0 19.615863539118816 0 0 1 1 0 0 forward_v I I I I #
coedge $-1 $591 $592 $593 $594 reversed $274 $-1 #
coedge $-1 $595 $276 $278 $433 forward $172 $-1 #
coedge $-1 $276 $595 $591 $596 forward $172 $-1 #
coedge $-1 $593 $279 $276 $430 forward $424 $-1 #
edge $-1 $436 12.345595527072746 $597 25.96059550850967 $429 $598 forward 7 unknown #
coedge $-1 $599 $600 $277 $432 forward $589 $-1 #
edge $-1 $601 -73.086949974757601 $435 -56.666269276911564 $431 $602 forward 7 unknown #
edge $-1 $436 59.053641182239517 $601 78.860560773732516 $278 $603 forward 7 unknown #
coedge $-1 $279 $593 $599 $604 forward $424 $-1 #
vertex $-1 $280 $605 #
vertex $-1 $280 $606 #
straight-curve $-1 31.498691044863953 59.926686984784631 19.61586353911882 0 -1 0 I I #
coedge $-1 $438 $438 $-1 $607 reversed $283 $-1 #
edge $-1 $608 0 $608 6.2831853071796004 $284 $609 forward 7 unknown #
vertex $-1 $287 $610 #
ellipse-curve $-1 34.221691041151331 33.892336067823805 11.405523190195815 0 0.82903758062907751 0.55919289150049634 1 0 0 1 I I #
coedge $-1 $442 $442 $-1 $611 reversed $290 $-1 #
edge $-1 $612 0 $612 6.2831853071796004 $291 $613 forward 7 unknown #
vertex $-1 $294 $614 #
ellipse-curve $-1 38.306191035582415 33.892336067823805 11.405523190195815 0 0.82903758062907751 0.55919289150049634 1 0 0 1 I I #
coedge $-1 $446 $446 $-1 $615 reversed $297 $-1 #
edge $-1 $616 0 $616 6.2831853071796004 $298 $617 forward 7 unknown #
vertex $-1 $301 $618 #
ellipse-curve $-1 42.3906910300135 33.892336067823805 11.405523190195815 0 0.82903758062907751 0.55919289150049634 1 0 0 1 I I #
face $-1 $-1 $462 $64 $-1 $619 forward single #
loop $-1 $-1 $620 $302 #
plane-surface $-1 0 -39.430280386866215 0 0 1 0 0 0 1 forward_v I I I I #
coedge $-1 $621 $622 $623 $624 reversed $303 $-1 #
coedge $-1 $625 $305 $307 $460 forward $191 $-1 #
coedge $-1 $305 $625 $621 $626 forward $191 $-1 #
coedge $-1 $623 $308 $305 $457 forward $462 $-1 #
edge $-1 $464 0.087797031976133866 $627 13.702797013413058 $456 $628 forward 7 unknown #
coedge $-1 $629 $630 $306 $459 forward $451 $-1 #
edge $-1 $631 -40.397765719303848 $463 -23.977085021457828 $458 $632 forward 7 unknown #
edge $-1 $464 -19.806919591492935 $631 5.0869049068944123e-014 $307 $633 forward 7 unknown #
coedge $-1 $308 $623 $629 $634 forward $462 $-1 #
loop $-1 $-1 $623 $450 #
vertex $-1 $459 $635 #
vertex $-1 $309 $636 #
straight-curve $-1 -6.9830940546707296 -81.975819486991668 19.615863539118813 0 1 0 I I #
coedge $-1 $466 $466 $-1 $637 reversed $312 $-1 #
edge $-1 $638 0 $638 6.2831853071796004 $313 $639 forward 7 unknown #
vertex $-1 $316 $640 #
ellipse-curve $-1 -17.875094039820269 -33.892336067823813 11.405523190195813 0 -0.82903758062907751 0.55919289150049634 1 0 0 1 I I #
coedge $-1 $470 $470 $-1 $641 reversed $319 $-1 #
edge $-1 $642 0 $642 6.2831853071796004 $320 $643 forward 7 unknown #
vertex $-1 $323 $644 #
ellipse-curve $-1 -13.790594045389192 -33.892336067823813 11.405523190195813 0 -0.82903758062907751 0.55919289150049634 1 0 0 1 I I #
coedge $-1 $474 $474 $-1 $645 reversed $326 $-1 #
edge $-1 $646 0 $646 6.2831853071796004 $327 $647 forward 7 unknown #
vertex $-1 $330 $648 #
ellipse-curve $-1 -9.7060940509581144 -33.892336067823813 11.405523190195813 0 -0.82903758062907751 0.55919289150049634 1 0 0 1 I I #
face $-1 $-1 $490 $68 $-1 $649 forward single #
loop $-1 $-1 $650 $331 #
plane-surface $-1 0 -39.430280386866215 0 0 1 0 0 0 1 forward_v I I I I #
coedge $-1 $651 $652 $653 $654 reversed $332 $-1 #
coedge $-1 $655 $334 $336 $488 forward $210 $-1 #
coedge $-1 $334 $655 $651 $656 forward $210 $-1 #
coedge $-1 $653 $337 $334 $485 forward $490 $-1 #
edge $-1 $492 -25.96059550850967 $657 -12.345595527072746 $484 $658 forward 7 unknown #
coedge $-1 $659 $660 $335 $487 forward $479 $-1 #
edge $-1 $661 -40.397765719303848 $491 -23.977085021457828 $486 $662 forward 7 unknown #
edge $-1 $492 -19.806919591492935 $661 5.0869049068944123e-014 $336 $663 forward 7 unknown #
coedge $-1 $337 $653 $659 $664 forward $490 $-1 #
loop $-1 $-1 $653 $478 #
vertex $-1 $487 $665 #
vertex $-1 $338 $666 #
straight-curve $-1 45.113691026300877 -81.975819486991668 19.615863539118813 0 1 0 I I #
coedge $-1 $494 $494 $-1 $667 reversed $341 $-1 #
edge $-1 $668 0 $668 6.2831853071796004 $342 $669 forward 7 unknown #
vertex $-1 $345 $670 #
ellipse-curve $-1 34.221691041151331 -33.892336067823813 11.405523190195813 0 -0.82903758062907751 0.55919289150049634 1 0 0 1 I I #
coedge $-1 $498 $498 $-1 $671 reversed $348 $-1 #
edge $-1 $672 0 $672 6.2831853071796004 $349 $673 forward 7 unknown #
vertex $-1 $352 $674 #
ellipse-curve $-1 38.306191035582415 -33.892336067823813 11.405523190195813 0 -0.82903758062907751 0.55919289150049634 1 0 0 1 I I #
coedge $-1 $502 $502 $-1 $675 reversed $355 $-1 #
edge $-1 $676 0 $676 6.2831853071796004 $356 $677 forward 7 unknown #
vertex $-1 $359 $678 #
ellipse-curve $-1 42.3906910300135 -33.892336067823813 11.405523190195813 0 -0.82903758062907751 0.55919289150049634 1 0 0 1 I I #
face $-1 $-1 $375 $54 $-1 $679 reversed single #
loop $-1 $-1 $522 $360 #
plane-surface $-1 0 39.430280386866215 0 0 -1 0 0 0 -1 forward_v I I I I #
coedge $-1 $680 $520 $523 $681 forward $361 $-1 #
coedge $-1 $526 $363 $364 $514 reversed $229 $-1 #
coedge $-1 $520 $680 $363 $512 reversed $361 $-1 #
edge $-1 $527 -19.615863539118816 $682 19.615863539118816 $511 $683 forward 7 unknown #
coedge $-1 $365 $364 $680 $684 forward $145 $-1 #
edge $-1 $518 -75.099948118533888 $682 75.099948118533888 $510 $685 forward 7 unknown #
coedge $-1 $523 $522 $365 $516 reversed $507 $-1 #
edge $-1 $686 -75.099948118533888 $517 75.099948118533888 $515 $687 forward 7 unknown #
vertex $-1 $367 $688 #
vertex $-1 $529 $689 #
straight-curve $-1 75.099948118533888 0 -19.615863539118816 0 -1 0 I I #
coedge $-1 $509 $511 $368 $521 reversed $361 $-1 #
edge $-1 $524 -39.430280386866215 $527 39.430280386866215 $520 $690 forward 7 unknown #
coedge $-1 $515 $369 $374 $530 forward $507 $-1 #
coedge $-1 $369 $515 $509 $681 reversed $507 $-1 #
vertex $-1 $370 $691 #
straight-curve $-1 0 39.430280386866215 19.615863539118816 -1 0 0 I I #
coedge $-1 $371 $510 $373 $529 reversed $229 $-1 #
vertex $-1 $521 $692 #
straight-curve $-1 0 -39.430280386866215 19.615863539118816 1 0 0 I I #
edge $-1 $376 -19.615863539118816 $518 19.615863539118816 $373 $693 forward 7 unknown #
edge $-1 $377 -19.615863539118816 $517 19.615863539118816 $374 $694 forward 7 unknown #
point $-1 75.099948118533888 -39.430280386866215 19.615863539118816 #
point $-1 75.099948118533888 39.430280386866215 19.615863539118816 #
face $-1 $-1 $550 $55 $-1 $695 reversed single #
loop $-1 $-1 $696 $379 #
plane-surface $-1 -75.099948118533888 0 0 1 0 0 0 0 -1 forward_v I I I I #
coedge $-1 $537 $553 $383 $540 forward $380 $-1 #
coedge $-1 $390 $536 $382 $538 forward $380 $-1 #
edge $-1 $544 2.2006539340193303 $393 9.9666609333654055 $537 $697 forward 7 unknown #
coedge $-1 $384 $383 $696 $698 reversed $149 $-1 #
edge $-1 $699 -43.678873306815248 $544 -19.163276316622031 $536 $700 forward 7 unknown #
coedge $-1 $549 $548 $384 $542 forward $550 $-1 #
edge $-1 $543 19.163276316622031 $701 43.678873306815248 $541 $702 forward 7 unknown #
vertex $-1 $542 $703 #
vertex $-1 $540 $704 #
straight-curve $-1 -50.584351128340671 0 8.2843113677116982 0 -1 0 I I #
coedge $-1 $705 $706 $387 $547 forward $534 $-1 #
edge $-1 $554 -39.430280386866215 $551 39.430280386866215 $546 $707 forward 7 unknown #
coedge $-1 $541 $388 $392 $556 forward $550 $-1 #
coedge $-1 $388 $541 $705 $708 reversed $550 $-1 #
loop $-1 $-1 $541 $533 #
vertex $-1 $708 $709 #
straight-curve $-1 -31.42107481171864 39.430280386866215 16.050318367057773 1 0 0 I I #
coedge $-1 $536 $390 $706 $710 forward $380 $-1 #
vertex $-1 $710 $711 #
straight-curve $-1 -31.42107481171864 -39.430280386866215 16.050318367057773 -1 0 0 I I #
edge $-1 $394 -9.9666609333654055 $543 -2.2006539340193303 $548 $712 forward 7 unknown #
point $-1 -50.584351128340671 -39.430280386866215 16.050318367057773 #
point $-1 -50.584351128340671 39.430280386866215 16.050318367057773 #
loop $-1 $-1 $404 $396 #
plane-surface $-1 0 39.430280386866215 0 0 -1 0 0 0 -1 forward_v I I I I #
coedge $-1 $562 $399 $401 $566 reversed $245 $-1 #
coedge $-1 $399 $561 $713 $714 reversed $245 $-1 #
coedge $-1 $407 $402 $399 $564 forward $397 $-1 #
edge $-1 $567 -31.572295236003221 $715 -20.496406597918416 $563 $716 forward 7 unknown #
coedge $-1 $401 $400 $570 $717 reversed $153 $-1 #
edge $-1 $718 -78.860560773732516 $567 -59.053641182239517 $561 $719 forward 7 unknown #
vertex $-1 $403 $720 #
straight-curve $-1 -6.8952970226945958 28.35439174878141 19.61586353911882 1 0 0 I I #
coedge $-1 $713 $404 $407 $574 reversed $559 $-1 #
coedge $-1 $404 $713 $565 $717 forward $559 $-1 #
vertex $-1 $405 $721 #
straight-curve $-1 -20.598094036107653 39.430280386866215 76.282132816030384 0 0 1 I I #
straight-curve $-1 -20.598094036107653 -4.6679846175478872 68.573551352180317 0 0.55919289150049634 -0.82903758062907751 I I #
edge $-1 $715 6.9830940546707296 $408 20.598094036107653 $569 $722 forward 7 unknown #
point $-1 -20.598094036107653 39.430280386866215 19.615863539118816 #
point $-1 -20.598094036107653 28.35439174878141 19.61586353911882 #
edge $-1 $723 1 $723 0 $411 $-1 forward 7 unknown #
vertex $-1 $412 $724 #
ellipse-curve $-1 -17.875094039820269 30.757517949670707 9.2910617366052382 0 0.82903758062907751 0.55919289150049634 1 0 0 1 I I #
point $-1 -16.875094039820269 33.892336067823827 11.405523190195831 #
edge $-1 $725 1 $725 0 $415 $-1 forward 7 unknown #
vertex $-1 $416 $726 #
ellipse-curve $-1 -13.790594045389192 30.757517949670707 9.2910617366052382 0 0.82903758062907751 0.55919289150049634 1 0 0 1 I I #
point $-1 -12.790594045389192 33.892336067823827 11.405523190195831 #
edge $-1 $727 1 $727 0 $419 $-1 forward 7 unknown #
vertex $-1 $420 $728 #
ellipse-curve $-1 -9.7060940509581144 30.757517949670707 9.2910617366052382 0 0.82903758062907751 0.55919289150049634 1 0 0 1 I I #
point $-1 -8.7060940509581144 33.892336067823827 11.405523190195831 #
loop $-1 $-1 $431 $423 #
plane-surface $-1 0 39.430280386866215 0 0 -1 0 0 0 -1 forward_v I I I I #
coedge $-1 $592 $426 $428 $596 reversed $274 $-1 #
coedge $-1 $426 $591 $729 $730 reversed $274 $-1 #
coedge $-1 $434 $429 $426 $594 forward $424 $-1 #
edge $-1 $597 -31.572295236003221 $731 -20.496406597918416 $593 $732 forward 7 unknown #
coedge $-1 $428 $427 $600 $733 reversed $172 $-1 #
edge $-1 $734 -78.860560773732516 $597 -59.053641182239517 $591 $735 forward 7 unknown #
vertex $-1 $430 $736 #
straight-curve $-1 19.153095517791208 28.35439174878141 19.61586353911882 1 0 0 I I #
coedge $-1 $729 $431 $434 $604 reversed $589 $-1 #
coedge $-1 $431 $729 $595 $733 forward $589 $-1 #
vertex $-1 $432 $737 #
straight-curve $-1 31.498691044863953 39.430280386866215 76.282132816030384 0 0 1 I I #
straight-curve $-1 31.498691044863953 -4.6679846175478872 68.573551352180317 0 0.55919289150049634 -0.82903758062907751 I I #
edge $-1 $731 -45.113691026300877 $435 -31.498691044863953 $599 $738 forward 7 unknown #
point $-1 31.498691044863953 39.430280386866215 19.615863539118816 #
point $-1 31.498691044863953 28.35439174878141 19.61586353911882 #
edge $-1 $739 1 $739 0 $438 $-1 forward 7 unknown #
vertex $-1 $439 $740 #
ellipse-curve $-1 34.221691041151331 30.757517949670707 9.2910617366052382 0 0.82903758062907751 0.55919289150049634 1 0 0 1 I I #
point $-1 35.221691041151331 33.892336067823827 11.405523190195831 #
edge $-1 $741 1 $741 0 $442 $-1 forward 7 unknown #
vertex $-1 $443 $742 #
ellipse-curve $-1 38.306191035582415 30.757517949670707 9.2910617366052382 0 0.82903758062907751 0.55919289150049634 1 0 0 1 I I #
point $-1 39.306191035582415 33.892336067823827 11.405523190195831 #
edge $-1 $743 1 $743 0 $446 $-1 forward 7 unknown #
vertex $-1 $447 $744 #
ellipse-curve $-1 42.3906910300135 30.757517949670707 9.2910617366052382 0 0.82903758062907751 0.55919289150049634 1 0 0 1 I I #
point $-1 43.3906910300135 33.892336067823827 11.405523190195831 #
plane-surface $-1 0 0 19.615863539118816 0 0 1 1 0 0 forward_v I I I I #
coedge $-1 $630 $629 $622 $745 forward $451 $-1 #
coedge $-1 $622 $453 $455 $626 reversed $303 $-1 #
coedge $-1 $453 $621 $620 $745 reversed $303 $-1 #
coedge $-1 $461 $456 $453 $624 forward $462 $-1 #
edge $-1 $627 -53.621427738210244 $746 -42.545539100125453 $623 $747 forward 7 unknown #
coedge $-1 $455 $454 $630 $748 reversed $191 $-1 #
edge $-1 $749 -5.0869049068944123e-014 $627 19.806919591492935 $621 $750 forward 7 unknown #
vertex $-1 $457 $751 #
straight-curve $-1 -6.8952970226945958 -28.354391748781428 19.615863539118816 -1 0 0 I I #
coedge $-1 $620 $458 $461 $634 reversed $451 $-1 #
coedge $-1 $458 $620 $625 $748 forward $451 $-1 #
vertex $-1 $459 $752 #
straight-curve $-1 -6.9830940546707296 -39.430280386866215 43.592948560576644 0 0 1 I I #
straight-curve $-1 -6.9830940546707296 -39.430280386866187 3.1951828412728389 0 -0.55919289150049634 -0.82903758062907751 I I #
edge $-1 $746 -20.598094036107653 $463 -6.9830940546707296 $629 $753 forward 7 unknown #
point $-1 -6.9830940546707296 -39.430280386866215 19.615863539118816 #
point $-1 -6.9830940546707296 -28.354391748781424 19.615863539118816 #
edge $-1 $754 1 $754 0 $466 $-1 forward 7 unknown #
vertex $-1 $467 $755 #
ellipse-curve $-1 -17.875094039820269 -30.757517949670717 9.2910617366052382 0 -0.82903758062907751 0.55919289150049634 1 0 0 1 I I #
point $-1 -16.875094039820269 -33.892336067823841 11.405523190195831 #
edge $-1 $756 1 $756 0 $470 $-1 forward 7 unknown #
vertex $-1 $471 $757 #
ellipse-curve $-1 -13.790594045389192 -30.757517949670717 9.2910617366052382 0 -0.82903758062907751 0.55919289150049634 1 0 0 1 I I #
point $-1 -12.790594045389192 -33.892336067823841 11.405523190195831 #
edge $-1 $758 1 $758 0 $474 $-1 forward 7 unknown #
vertex $-1 $475 $759 #
ellipse-curve $-1 -9.7060940509581144 -30.757517949670717 9.2910617366052382 0 -0.82903758062907751 0.55919289150049634 1 0 0 1 I I #
point $-1 -8.7060940509581144 -33.892336067823841 11.405523190195831 #
plane-surface $-1 0 0 19.615863539118816 0 0 1 1 0 0 forward_v I I I I #
coedge $-1 $660 $659 $652 $760 forward $479 $-1 #
coedge $-1 $652 $481 $483 $656 reversed $332 $-1 #
coedge $-1 $481 $651 $650 $760 reversed $332 $-1 #
coedge $-1 $489 $484 $481 $654 forward $490 $-1 #
edge $-1 $657 -53.621427738210244 $761 -42.545539100125453 $653 $762 forward 7 unknown #
coedge $-1 $483 $482 $660 $763 reversed $210 $-1 #
edge $-1 $764 -5.0869049068944123e-014 $657 19.806919591492935 $651 $765 forward 7 unknown #
vertex $-1 $485 $766 #
straight-curve $-1 19.153095517791208 -28.354391748781428 19.615863539118816 -1 0 0 I I #
coedge $-1 $650 $486 $489 $664 reversed $479 $-1 #
coedge $-1 $486 $650 $655 $763 forward $479 $-1 #
vertex $-1 $487 $767 #
straight-curve $-1 45.113691026300877 -39.430280386866215 43.592948560576644 0 0 1 I I #
straight-curve $-1 45.113691026300877 -39.430280386866187 3.1951828412728389 0 -0.55919289150049634 -0.82903758062907751 I I #
edge $-1 $761 31.498691044863953 $491 45.113691026300877 $659 $768 forward 7 unknown #
point $-1 45.113691026300877 -39.430280386866215 19.615863539118816 #
point $-1 45.113691026300877 -28.354391748781424 19.615863539118816 #
edge $-1 $769 1 $769 0 $494 $-1 forward 7 unknown #
vertex $-1 $495 $770 #
ellipse-curve $-1 34.221691041151331 -30.757517949670717 9.2910617366052382 0 -0.82903758062907751 0.55919289150049634 1 0 0 1 I I #
point $-1 35.221691041151331 -33.892336067823841 11.405523190195831 #
edge $-1 $771 1 $771 0 $498 $-1 forward 7 unknown #
vertex $-1 $499 $772 #
ellipse-curve $-1 38.306191035582415 -30.757517949670717 9.2910617366052382 0 -0.82903758062907751 0.55919289150049634 1 0 0 1 I I #
point $-1 39.306191035582415 -33.892336067823841 11.405523190195831 #
edge $-1 $773 1 $773 0 $502 $-1 forward 7 unknown #
vertex $-1 $503 $774 #
ellipse-curve $-1 42.3906910300135 -30.757517949670717 9.2910617366052382 0 -0.82903758062907751 0.55919289150049634 1 0 0 1 I I #
point $-1 43.3906910300135 -33.892336067823841 11.405523190195831 #
plane-surface $-1 75.099948118533888 0 0 -1 0 0 0 0 1 forward_v I I I I #
coedge $-1 $511 $509 $513 $684 reversed $361 $-1 #
edge $-1 $524 -19.615863539118816 $686 19.615863539118816 $523 $775 forward 7 unknown #
vertex $-1 $684 $776 #
straight-curve $-1 -75.099948118533888 -39.430280386866215 0 0 0 -1 I I #
edge $-1 $682 -39.430280386866215 $686 39.430280386866215 $680 $777 forward 7 unknown #
straight-curve $-1 0 -39.430280386866215 -19.615863539118816 -1 0 0 I I #
vertex $-1 $516 $778 #
straight-curve $-1 0 39.430280386866215 -19.615863539118816 1 0 0 I I #
point $-1 75.099948118533888 39.430280386866215 -19.615863539118816 #
point $-1 75.099948118533888 -39.430280386866215 -19.615863539118816 #
straight-curve $-1 -75.099948118533888 0 19.615863539118816 0 -1 0 I I #
point $-1 -75.099948118533888 39.430280386866215 19.615863539118816 #
point $-1 -75.099948118533888 -39.430280386866215 19.615863539118816 #
straight-curve $-1 75.099948118533888 -39.430280386866215 0 0 0 -1 I I #
straight-curve $-1 75.099948118533888 39.430280386866215 0 0 0 -1 I I #
plane-surface $-1 0 39.430280386866215 0 0 -1 0 0 0 -1 forward_v I I I I #
coedge $-1 $706 $705 $539 $698 forward $534 $-1 #
straight-curve $-1 -50.584351128340671 -39.430280386866215 6.0836574336923679 0 0 1 I I #
edge $-1 $701 -39.430280386866215 $699 39.430280386866215 $696 $779 forward 7 unknown #
vertex $-1 $540 $780 #
straight-curve $-1 -31.42107481171864 -39.430280386866215 8.2843113677116982 1 0 0 I I #
vertex $-1 $542 $781 #
straight-curve $-1 -31.42107481171864 39.430280386866215 8.2843113677116982 -1 0 0 I I #
point $-1 -50.584351128340671 39.430280386866215 8.2843113677116982 #
point $-1 -50.584351128340671 -39.430280386866215 8.2843113677116982 #
coedge $-1 $696 $546 $549 $708 forward $534 $-1 #
coedge $-1 $546 $696 $553 $710 reversed $534 $-1 #
straight-curve $-1 -75.099948118533888 0 16.050318367057773 0 1 0 I I #
edge $-1 $551 -16.050318367057773 $701 -8.2843113677116982 $549 $782 forward 7 unknown #
point $-1 -75.099948118533888 39.430280386866215 16.050318367057773 #
edge $-1 $554 -16.050318367057773 $699 -8.2843113677116982 $706 $783 forward 7 unknown #
point $-1 -75.099948118533888 -39.430280386866215 16.050318367057773 #
straight-curve $-1 -50.584351128340671 39.430280386866215 6.0836574336923679 0 0 -1 I I #
coedge $-1 $570 $569 $562 $714 forward $559 $-1 #
edge $-1 $715 56.666269276911564 $718 73.086949974757601 $713 $784 forward 7 unknown #
vertex $-1 $574 $785 #
straight-curve $-1 -6.9830940546707296 59.926686984784631 19.61586353911882 0 1 0 I I #
edge $-1 $718 0.087797031976133866 $571 13.702797013413058 $570 $786 forward 7 unknown #
vertex $-1 $717 $787 #
straight-curve $-1 -6.9830940546707296 -4.6679846175478872 68.573551352180317 0 -0.55919289150049634 0.82903758062907751 I I #
point $-1 -6.9830940546707296 28.35439174878141 19.61586353911882 #
point $-1 -20.598094036107653 39.430280386866215 3.1951828412727821 #
straight-curve $-1 0 39.430280386866215 19.615863539118816 -1 0 0 I I #
vertex $-1 $577 $788 #
point $-1 -16.875094039820269 30.757517949670707 9.2910617366052382 #
vertex $-1 $581 $789 #
point $-1 -12.790594045389192 30.757517949670707 9.2910617366052382 #
vertex $-1 $585 $790 #
point $-1 -8.7060940509581144 30.757517949670707 9.2910617366052382 #
coedge $-1 $600 $599 $592 $730 forward $589 $-1 #
edge $-1 $731 56.666269276911564 $734 73.086949974757601 $729 $791 forward 7 unknown #
vertex $-1 $604 $792 #
straight-curve $-1 45.113691026300877 59.926686984784631 19.61586353911882 0 1 0 I I #
edge $-1 $734 -25.96059550850967 $601 -12.345595527072746 $600 $793 forward 7 unknown #
vertex $-1 $733 $794 #
straight-curve $-1 45.113691026300877 -4.6679846175478872 68.573551352180317 0 -0.55919289150049634 0.82903758062907751 I I #
point $-1 45.113691026300877 28.35439174878141 19.61586353911882 #
point $-1 31.498691044863953 39.430280386866215 3.1951828412727821 #
straight-curve $-1 0 39.430280386866215 19.615863539118816 -1 0 0 I I #
vertex $-1 $607 $795 #
point $-1 35.221691041151331 30.757517949670707 9.2910617366052382 #
vertex $-1 $611 $796 #
point $-1 39.306191035582415 30.757517949670707 9.2910617366052382 #
vertex $-1 $615 $797 #
point $-1 43.3906910300135 30.757517949670707 9.2910617366052382 #
edge $-1 $746 23.977085021457828 $749 40.397765719303848 $620 $798 forward 7 unknown #
vertex $-1 $634 $799 #
straight-curve $-1 -20.598094036107653 -81.975819486991668 19.615863539118813 0 -1 0 I I #
edge $-1 $749 -13.702797013413058 $631 -0.087797031976133866 $630 $800 forward 7 unknown #
vertex $-1 $748 $801 #
straight-curve $-1 -20.598094036107653 -39.430280386866187 3.1951828412728389 0 0.55919289150049634 0.82903758062907751 I I #
point $-1 -20.598094036107653 -28.354391748781424 19.615863539118816 #
point $-1 -6.9830940546707296 -39.430280386866215 3.1951828412727967 #
straight-curve $-1 0 -39.430280386866215 19.615863539118816 1 0 0 I I #
vertex $-1 $637 $802 #
point $-1 -16.875094039820269 -30.757517949670717 9.2910617366052382 #
vertex $-1 $641 $803 #
point $-1 -12.790594045389192 -30.757517949670717 9.2910617366052382 #
vertex $-1 $645 $804 #
point $-1 -8.7060940509581144 -30.757517949670717 9.2910617366052382 #
edge $-1 $761 23.977085021457828 $764 40.397765719303848 $650 $805 forward 7 unknown #
vertex $-1 $664 $806 #
straight-curve $-1 31.498691044863953 -81.975819486991668 19.615863539118813 0 -1 0 I I #
edge $-1 $764 12.345595527072746 $661 25.96059550850967 $660 $807 forward 7 unknown #
vertex $-1 $763 $808 #
straight-curve $-1 31.498691044863953 -39.430280386866187 3.1951828412728389 0 0.55919289150049634 0.82903758062907751 I I #
point $-1 31.498691044863953 -28.354391748781424 19.615863539118816 #
point $-1 45.113691026300877 -39.430280386866215 3.1951828412727967 #
straight-curve $-1 0 -39.430280386866215 19.615863539118816 1 0 0 I I #
vertex $-1 $667 $809 #
point $-1 35.221691041151331 -30.757517949670717 9.2910617366052382 #
vertex $-1 $671 $810 #
point $-1 39.306191035582415 -30.757517949670717 9.2910617366052382 #
vertex $-1 $675 $811 #
point $-1 43.3906910300135 -30.757517949670717 9.2910617366052382 #
straight-curve $-1 -75.099948118533888 39.430280386866215 0 0 0 -1 I I #
point $-1 -75.099948118533888 -39.430280386866215 -19.615863539118816 #
straight-curve $-1 -75.099948118533888 0 -19.615863539118816 0 1 0 I I #
point $-1 -75.099948118533888 39.430280386866215 -19.615863539118816 #
straight-curve $-1 -75.099948118533888 0 8.2843113677116982 0 -1 0 I I #
point $-1 -75.099948118533888 -39.430280386866215 8.2843113677116982 #
point $-1 -75.099948118533888 39.430280386866215 8.2843113677116982 #
straight-curve $-1 -75.099948118533888 39.430280386866215 0 0 0 -1 I I #
straight-curve $-1 -75.099948118533888 -39.430280386866215 0 0 0 -1 I I #
straight-curve $-1 -6.9830940546707296 39.430280386866215 76.282132816030384 0 0 -1 I I #
point $-1 -6.9830940546707296 39.430280386866215 19.615863539118816 #
straight-curve $-1 -6.8952970226945958 39.430280386866215 3.1951828412727821 -1 0 0 I I #
point $-1 -6.9830940546707296 39.430280386866215 3.1951828412727821 #
point $-1 -17.875094039820269 29.92848036904163 8.7318688451047404 #
point $-1 -13.790594045389192 29.92848036904163 8.7318688451047404 #
point $-1 -9.7060940509581144 29.92848036904163 8.7318688451047404 #
straight-curve $-1 45.113691026300877 39.430280386866215 76.282132816030384 0 0 -1 I I #
point $-1 45.113691026300877 39.430280386866215 19.615863539118816 #
straight-curve $-1 19.153095517791208 39.430280386866215 3.1951828412727821 -1 0 0 I I #
point $-1 45.113691026300877 39.430280386866215 3.1951828412727821 #
point $-1 34.221691041151331 29.92848036904163 8.7318688451047404 #
point $-1 38.306191035582415 29.92848036904163 8.7318688451047404 #
point $-1 42.3906910300135 29.92848036904163 8.7318688451047404 #
straight-curve $-1 -20.598094036107653 -39.430280386866215 43.592948560576644 0 0 -1 I I #
point $-1 -20.598094036107653 -39.430280386866215 19.615863539118816 #
straight-curve $-1 -6.8952970226945958 -39.430280386866215 3.1951828412727981 1 0 0 I I #
point $-1 -20.598094036107653 -39.430280386866215 3.1951828412727967 #
point $-1 -17.875094039820269 -29.92848036904164 8.7318688451047404 #
point $-1 -13.790594045389192 -29.92848036904164 8.7318688451047404 #
point $-1 -9.7060940509581144 -29.92848036904164 8.7318688451047404 #
straight-curve $-1 31.498691044863953 -39.430280386866215 43.592948560576644 0 0 -1 I I #
point $-1 31.498691044863953 -39.430280386866215 19.615863539118816 #
straight-curve $-1 19.153095517791208 -39.430280386866215 3.1951828412727981 1 0 0 I I #
point $-1 31.498691044863953 -39.430280386866215 3.1951828412727967 #
point $-1 34.221691041151331 -29.92848036904164 8.7318688451047404 #
point $-1 38.306191035582415 -29.92848036904164 8.7318688451047404 #
point $-1 42.3906910300135 -29.92848036904164 8.7318688451047404 #
End-of-ACIS-data 