500 0 4 0           
7 Unknown 11 ACIS 5.0 NT 24 Fri Mar 26 03:16:30 1999 
-1 9.9999999999999995e-007 1e-010 
body $-1 $4 $-1 $5 #
body $-1 $6 $-1 $7 #
body $-1 $8 $-1 $9 #
body $-1 $10 $-1 $11 #
lump $-1 $-1 $12 $0 #
transform $-1 1 0 0 0 1 0 0 0 1 75.656605731376075 35.138403098329015 14.947252772181127 1 rotate no_reflect no_shear #
lump $-1 $-1 $13 $1 #
transform $-1 1 0 0 0 1 0 0 0 1 75.656605731376075 35.138403098329015 14.947252772181127 1 rotate no_reflect no_shear #
lump $-1 $-1 $14 $2 #
transform $-1 1 0 0 0 1 0 0 0 1 75.656605731376075 35.138403098329015 14.947252772181127 1 rotate no_reflect no_shear #
lump $-1 $-1 $15 $3 #
transform $-1 1 0 0 0 1 0 0 0 1 75.656605731376075 35.138403098329015 14.947252772181127 1 rotate no_reflect no_shear #
shell $-1 $-1 $-1 $16 $-1 $4 #
shell $-1 $-1 $-1 $17 $-1 $6 #
shell $-1 $-1 $-1 $18 $-1 $8 #
shell $-1 $-1 $-1 $19 $-1 $10 #
face $-1 $20 $21 $12 $-1 $22 forward single #
face $-1 $23 $24 $13 $-1 $25 forward single #
face $-1 $26 $27 $14 $-1 $28 reversed single #
face $-1 $29 $30 $15 $-1 $31 forward single #
face $-1 $32 $33 $12 $-1 $34 reversed single #
loop $-1 $-1 $35 $16 #
plane-surface $-1 0 0 14.947252772181127 0 0 1 1 0 0 forward_v I I I I #
face $-1 $36 $37 $13 $-1 $38 reversed single #
loop $-1 $-1 $39 $17 #
plane-surface $-1 -67.909451963857393 0 -2.0538699939710661 0 0 1 1 0 0 forward_v I I I I #
face $-1 $40 $41 $14 $-1 $42 reversed single #
loop $-1 $-1 $43 $18 #
plane-surface $-1 101.73533136902326 6.8966483529812166 214.76777882976924 0 -1 0 -0.78801076186113728 0 -0.61566146476048833 forward_v I I I I #
face $-1 $44 $45 $15 $-1 $46 forward single #
loop $-1 $47 $48 $19 #
cone-surface $-1 69.070343327139099 0.23839977980652804 7.3522035868058788 -0.78801076186113728 0 -0.61566146476048833 1.5391536619012207 0 -1.9700269046528431 1 I I 0 1 2.5 forward I I I I #
face $-1 $49 $50 $12 $-1 $51 reversed single #
loop $-1 $-1 $52 $20 #
plane-surface $-1 0 0 -14.947252772181127 0 0 1 1 0 0 forward_v I I I I #
coedge $-1 $53 $54 $55 $56 forward $21 $-1 #
face $-1 $57 $58 $13 $-1 $59 reversed single #
loop $-1 $-1 $60 $23 #
plane-surface $-1 -67.909451963857393 0 -6.7607013655924924 0 0 1 1 0 0 forward_v I I I I #
coedge $-1 $61 $62 $63 $64 forward $24 $-1 #
face $-1 $65 $66 $14 $-1 $67 reversed single #
loop $-1 $-1 $68 $26 #
plane-surface $-1 -17.501107675395431 0.23839977980652804 121.61006542299774 0.78801076186113728 0 0.61566146476048833 0.61566146476048833 0 -0.78801076186113728 forward_v I I I I #
coedge $-1 $69 $70 $71 $72 reversed $27 $-1 #
face $-1 $-1 $73 $15 $-1 $74 forward single #
loop $-1 $75 $76 $29 #
cone-surface $-1 66.410864122028286 0.23839977980652804 5.2743907672810657 -0.78801076186113728 0 -0.61566146476048833 0.76957683095061036 0 -0.98501345232642157 1 I I -0.70710678118654746 0.70710678118654746 1.25 forward I I I I #
loop $-1 $-1 $77 $19 #
coedge $-1 $48 $48 $78 $79 reversed $30 $-1 #
face $-1 $80 $81 $12 $-1 $82 reversed single #
loop $-1 $-1 $83 $32 #
plane-surface $-1 0 -35.138403098329015 0 0 1 0 0 0 1 forward_v I I I I #
coedge $-1 $84 $85 $86 $87 forward $33 $-1 #
coedge $-1 $88 $35 $89 $90 forward $21 $-1 #
coedge $-1 $35 $88 $91 $92 forward $21 $-1 #
coedge $-1 $93 $94 $35 $56 reversed $95 $-1 #
edge $-1 $96 -35.138403098329015 $97 35.138403098329015 $55 $98 forward 7 unknown #
face $-1 $99 $100 $13 $-1 $101 reversed single #
loop $-1 $-1 $102 $36 #
plane-surface $-1 -60.16229819633871 0 -4.4072856797817792 -1 0 0 0 0 1 forward_v I I I I #
coedge $-1 $103 $104 $105 $106 forward $37 $-1 #
coedge $-1 $107 $39 $108 $109 reversed $24 $-1 #
coedge $-1 $39 $107 $110 $111 reversed $24 $-1 #
coedge $-1 $102 $112 $39 $64 reversed $58 $-1 #
edge $-1 $113 -35.138403098329015 $114 35.138403098329015 $63 $115 forward 7 unknown #
face $-1 $116 $117 $14 $-1 $118 reversed single #
loop $-1 $-1 $119 $40 #
plane-surface $-1 101.73533136902326 -6.4198487933681605 214.76777882976924 0 1 0 0.78801076186113728 0 0.61566146476048833 forward_v I I I I #
coedge $-1 $120 $121 $122 $123 reversed $41 $-1 #
coedge $-1 $70 $43 $124 $125 reversed $27 $-1 #
coedge $-1 $43 $69 $120 $126 reversed $27 $-1 #
coedge $-1 $122 $127 $43 $72 forward $128 $-1 #
edge $-1 $129 -24.788940046864447 $130 -14.965346743959365 $71 $131 forward 7 unknown #
loop $-1 $-1 $78 $44 #
plane-surface $-1 -17.501107675395431 0.23839977980652804 121.61006542299774 0.78801076186113728 0 0.61566146476048833 0.61566146476048833 0 -0.78801076186113728 forward_v I I I I #
loop $-1 $-1 $132 $29 #
coedge $-1 $76 $76 $77 $133 reversed $45 $-1 #
coedge $-1 $77 $77 $76 $133 forward $47 $-1 #
coedge $-1 $78 $78 $48 $79 forward $73 $-1 #
edge $-1 $134 0 $134 6.2831853071796004 $78 $135 forward 7 unknown #
face $-1 $136 $137 $12 $-1 $138 reversed single #
loop $-1 $-1 $139 $49 #
plane-surface $-1 -75.656605731376075 0 0 1 0 0 0 0 -1 forward_v I I I I #
coedge $-1 $140 $91 $141 $142 forward $50 $-1 #
coedge $-1 $143 $52 $140 $144 forward $33 $-1 #
coedge $-1 $52 $143 $145 $146 forward $33 $-1 #
coedge $-1 $94 $93 $52 $87 reversed $95 $-1 #
edge $-1 $147 -35.138403098329015 $148 35.138403098329015 $86 $149 forward 7 unknown #
coedge $-1 $54 $53 $150 $151 forward $21 $-1 #
coedge $-1 $152 $153 $53 $90 reversed $137 $-1 #
edge $-1 $97 -75.656605731376075 $154 75.656605731376075 $89 $155 forward 7 unknown #
coedge $-1 $83 $156 $54 $92 reversed $50 $-1 #
edge $-1 $157 -75.656605731376075 $96 75.656605731376075 $91 $158 forward 7 unknown #
coedge $-1 $86 $55 $156 $159 forward $95 $-1 #
coedge $-1 $55 $86 $152 $160 reversed $95 $-1 #
loop $-1 $-1 $93 $136 #
vertex $-1 $56 $161 #
vertex $-1 $56 $162 #
straight-curve $-1 75.656605731376075 0 14.947252772181127 0 1 0 I I #
face $-1 $163 $164 $13 $-1 $165 reversed single #
loop $-1 $-1 $166 $57 #
plane-surface $-1 0 -35.138403098329015 0 0 1 0 0 0 1 forward_v I I I I #
coedge $-1 $105 $63 $167 $168 reversed $58 $-1 #
coedge $-1 $169 $60 $166 $170 reversed $37 $-1 #
coedge $-1 $60 $169 $171 $172 reversed $37 $-1 #
coedge $-1 $112 $102 $60 $106 reversed $58 $-1 #
edge $-1 $173 -35.138403098329015 $174 35.138403098329015 $105 $175 forward 7 unknown #
coedge $-1 $62 $61 $176 $177 reversed $24 $-1 #
coedge $-1 $178 $179 $61 $109 forward $180 $-1 #
edge $-1 $181 -41.701879749447379 $114 -26.207572214410014 $108 $182 forward 7 unknown #
coedge $-1 $183 $167 $62 $111 forward $100 $-1 #
edge $-1 $113 26.207572214410014 $184 41.701879749447379 $110 $185 forward 7 unknown #
coedge $-1 $63 $105 $178 $186 reversed $58 $-1 #
vertex $-1 $111 $187 #
vertex $-1 $109 $188 #
straight-curve $-1 -60.16229819633871 0 -2.0538699939710661 0 1 0 I I #
face $-1 $-1 $128 $14 $-1 $189 forward single #
loop $-1 $-1 $190 $65 #
plane-surface $-1 75.656605731376075 0 0 -1 0 0 0 0 1 forward_v I I I I #
coedge $-1 $191 $192 $193 $194 reversed $66 $-1 #
coedge $-1 $195 $68 $70 $126 forward $41 $-1 #
coedge $-1 $68 $195 $191 $196 forward $41 $-1 #
coedge $-1 $193 $71 $68 $123 forward $128 $-1 #
edge $-1 $130 -6.7774484630779526 $197 6.5390486832714245 $122 $198 forward 7 unknown #
coedge $-1 $199 $200 $69 $125 forward $117 $-1 #
edge $-1 $201 -105.01026303630557 $129 -92.43663664270349 $124 $202 forward 7 unknown #
edge $-1 $130 135.3570507068946 $201 151.31321146275215 $70 $203 forward 7 unknown #
coedge $-1 $71 $193 $199 $204 forward $128 $-1 #
loop $-1 $-1 $193 $116 #
vertex $-1 $125 $205 #
vertex $-1 $72 $206 #
straight-curve $-1 50.867665684511628 6.8966483529812166 14.94725277218113 -1 0 0 I I #
coedge $-1 $132 $132 $-1 $207 reversed $75 $-1 #
edge $-1 $208 0 $208 6.2831853071796004 $76 $209 forward 7 unknown #
vertex $-1 $79 $210 #
ellipse-curve $-1 70.744809079923513 0.23839977980652804 8.6604395753800976 0.78801076186113728 0 0.61566146476048833 1.5391536619012207 0 -1.9700269046528431 1 I I #
face $-1 $-1 $95 $12 $-1 $211 reversed single #
loop $-1 $-1 $152 $80 #
plane-surface $-1 0 35.138403098329015 0 0 -1 0 0 0 -1 forward_v I I I I #
coedge $-1 $212 $150 $153 $213 forward $81 $-1 #
coedge $-1 $156 $83 $84 $144 reversed $50 $-1 #
coedge $-1 $150 $212 $83 $142 reversed $81 $-1 #
edge $-1 $157 -14.947252772181127 $214 14.947252772181127 $141 $215 forward 7 unknown #
coedge $-1 $85 $84 $212 $216 forward $33 $-1 #
edge $-1 $148 -75.656605731376075 $214 75.656605731376075 $140 $217 forward 7 unknown #
coedge $-1 $153 $152 $85 $146 reversed $137 $-1 #
edge $-1 $218 -75.656605731376075 $147 75.656605731376075 $145 $219 forward 7 unknown #
vertex $-1 $87 $220 #
vertex $-1 $159 $221 #
straight-curve $-1 75.656605731376075 0 -14.947252772181127 0 -1 0 I I #
coedge $-1 $139 $141 $88 $151 reversed $81 $-1 #
edge $-1 $154 -35.138403098329015 $157 35.138403098329015 $150 $222 forward 7 unknown #
coedge $-1 $145 $89 $94 $160 forward $137 $-1 #
coedge $-1 $89 $145 $139 $213 reversed $137 $-1 #
vertex $-1 $90 $223 #
straight-curve $-1 0 35.138403098329015 14.947252772181127 -1 0 0 I I #
coedge $-1 $91 $140 $93 $159 reversed $50 $-1 #
vertex $-1 $151 $224 #
straight-curve $-1 0 -35.138403098329015 14.947252772181127 1 0 0 I I #
edge $-1 $96 -14.947252772181127 $148 14.947252772181127 $93 $225 forward 7 unknown #
edge $-1 $97 -14.947252772181127 $147 14.947252772181127 $94 $226 forward 7 unknown #
point $-1 75.656605731376075 -35.138403098329015 14.947252772181127 #
point $-1 75.656605731376075 35.138403098329015 14.947252772181127 #
face $-1 $-1 $180 $13 $-1 $227 reversed single #
loop $-1 $-1 $228 $99 #
plane-surface $-1 -75.656605731376075 0 0 1 0 0 0 0 -1 forward_v I I I I #
coedge $-1 $167 $183 $103 $170 forward $100 $-1 #
coedge $-1 $110 $166 $102 $168 forward $100 $-1 #
edge $-1 $174 -4.5570585257016027 $113 0.14977284591982354 $167 $229 forward 7 unknown #
coedge $-1 $104 $103 $228 $230 reversed $37 $-1 #
edge $-1 $231 -41.701879749447379 $174 -26.207572214410014 $166 $232 forward 7 unknown #
coedge $-1 $179 $178 $104 $172 forward $180 $-1 #
edge $-1 $173 26.207572214410014 $233 41.701879749447379 $171 $234 forward 7 unknown #
vertex $-1 $172 $235 #
vertex $-1 $170 $236 #
straight-curve $-1 -60.16229819633871 0 -6.7607013655924924 0 -1 0 I I #
coedge $-1 $237 $238 $107 $177 forward $164 $-1 #
edge $-1 $184 -35.138403098329015 $181 35.138403098329015 $176 $239 forward 7 unknown #
coedge $-1 $171 $108 $112 $186 forward $180 $-1 #
coedge $-1 $108 $171 $237 $240 reversed $180 $-1 #
loop $-1 $-1 $171 $163 #
vertex $-1 $240 $241 #
straight-curve $-1 -33.954725981928696 35.138403098329015 -2.0538699939710661 1 0 0 I I #
coedge $-1 $166 $110 $238 $242 forward $100 $-1 #
vertex $-1 $242 $243 #
straight-curve $-1 -33.954725981928696 -35.138403098329015 -2.0538699939710661 -1 0 0 I I #
edge $-1 $114 -0.14977284591982354 $173 4.5570585257016027 $178 $244 forward 7 unknown #
point $-1 -60.16229819633871 -35.138403098329015 -2.0538699939710661 #
point $-1 -60.16229819633871 35.138403098329015 -2.0538699939710661 #
plane-surface $-1 0 0 14.947252772181127 0 0 1 1 0 0 forward_v I I I I #
coedge $-1 $200 $199 $192 $245 forward $117 $-1 #
coedge $-1 $192 $119 $121 $196 reversed $66 $-1 #
coedge $-1 $119 $191 $190 $245 reversed $66 $-1 #
coedge $-1 $127 $122 $119 $194 forward $128 $-1 #
edge $-1 $197 14.965346743959365 $246 24.788940046864447 $193 $247 forward 7 unknown #
coedge $-1 $121 $120 $200 $248 reversed $41 $-1 #
edge $-1 $249 -151.31321146275215 $197 -135.3570507068946 $191 $250 forward 7 unknown #
vertex $-1 $123 $251 #
straight-curve $-1 65.833012428470994 0.11919988990326402 14.947252772181116 0 -1 0 I I #
coedge $-1 $190 $124 $127 $204 reversed $117 $-1 #
coedge $-1 $124 $190 $195 $248 forward $117 $-1 #
vertex $-1 $125 $252 #
straight-curve $-1 75.656605731376075 6.8966483529812166 107.38388941488462 0 0 1 I I #
straight-curve $-1 -17.501107675395431 6.8966483529812166 121.61006542299774 0.61566146476048833 0 -0.78801076186113728 I I #
edge $-1 $246 -6.4198487933681605 $129 6.8966483529812166 $199 $253 forward 7 unknown #
point $-1 75.656605731376075 6.8966483529812166 14.947252772181127 #
point $-1 65.833012428470994 6.8966483529812166 14.94725277218113 #
edge $-1 $254 1 $254 0 $132 $-1 forward 7 unknown #
vertex $-1 $133 $255 #
ellipse-curve $-1 67.395877574354714 0.23839977980652804 6.0439675982316761 0.78801076186113728 0 0.61566146476048833 1.5391536619012207 0 -1.9700269046528431 1 I I #
point $-1 72.283962741824723 0.23839977980652804 6.6904126707272384 #
plane-surface $-1 75.656605731376075 0 0 -1 0 0 0 0 1 forward_v I I I I #
coedge $-1 $141 $139 $143 $216 reversed $81 $-1 #
edge $-1 $154 -14.947252772181127 $218 14.947252772181127 $153 $256 forward 7 unknown #
vertex $-1 $216 $257 #
straight-curve $-1 -75.656605731376075 -35.138403098329015 0 0 0 -1 I I #
edge $-1 $214 -35.138403098329015 $218 35.138403098329015 $212 $258 forward 7 unknown #
straight-curve $-1 0 -35.138403098329015 -14.947252772181127 -1 0 0 I I #
vertex $-1 $146 $259 #
straight-curve $-1 0 35.138403098329015 -14.947252772181127 1 0 0 I I #
point $-1 75.656605731376075 35.138403098329015 -14.947252772181127 #
point $-1 75.656605731376075 -35.138403098329015 -14.947252772181127 #
straight-curve $-1 -75.656605731376075 0 14.947252772181127 0 -1 0 I I #
point $-1 -75.656605731376075 35.138403098329015 14.947252772181127 #
point $-1 -75.656605731376075 -35.138403098329015 14.947252772181127 #
straight-curve $-1 75.656605731376075 -35.138403098329015 0 0 0 -1 I I #
straight-curve $-1 75.656605731376075 35.138403098329015 0 0 0 -1 I I #
plane-surface $-1 0 35.138403098329015 0 0 -1 0 0 0 -1 forward_v I I I I #
coedge $-1 $238 $237 $169 $230 forward $164 $-1 #
straight-curve $-1 -60.16229819633871 -35.138403098329015 -2.2036428398908896 0 0 1 I I #
edge $-1 $233 -35.138403098329015 $231 35.138403098329015 $228 $260 forward 7 unknown #
vertex $-1 $170 $261 #
straight-curve $-1 -33.954725981928696 -35.138403098329015 -6.7607013655924924 1 0 0 I I #
vertex $-1 $172 $262 #
straight-curve $-1 -33.954725981928696 35.138403098329015 -6.7607013655924924 -1 0 0 I I #
point $-1 -60.16229819633871 35.138403098329015 -6.7607013655924924 #
point $-1 -60.16229819633871 -35.138403098329015 -6.7607013655924924 #
coedge $-1 $228 $176 $179 $240 forward $164 $-1 #
coedge $-1 $176 $228 $183 $242 reversed $164 $-1 #
straight-curve $-1 -75.656605731376075 0 -2.0538699939710661 0 1 0 I I #
edge $-1 $181 2.0538699939710661 $233 6.7607013655924924 $179 $263 forward 7 unknown #
point $-1 -75.656605731376075 35.138403098329015 -2.0538699939710661 #
edge $-1 $184 2.0538699939710661 $231 6.7607013655924924 $238 $264 forward 7 unknown #
point $-1 -75.656605731376075 -35.138403098329015 -2.0538699939710661 #
straight-curve $-1 -60.16229819633871 35.138403098329015 -2.2036428398908896 0 0 -1 I I #
edge $-1 $246 92.43663664270349 $249 105.01026303630557 $190 $265 forward 7 unknown #
vertex $-1 $204 $266 #
straight-curve $-1 50.867665684511628 -6.4198487933681605 14.94725277218113 1 0 0 I I #
edge $-1 $249 -6.5390486832714245 $201 6.7774484630779526 $200 $267 forward 7 unknown #
vertex $-1 $248 $268 #
straight-curve $-1 -17.501107675395431 -6.4198487933681605 121.61006542299774 -0.61566146476048833 0 0.78801076186113728 I I #
point $-1 65.833012428470994 -6.4198487933681605 14.94725277218113 #
point $-1 75.656605731376075 6.8966483529812166 2.373626378579047 #
straight-curve $-1 75.656605731376075 0 14.947252772181127 0 1 0 I I #
vertex $-1 $207 $269 #
point $-1 68.935031236255924 0.23839977980652804 4.0739406935788329 #
straight-curve $-1 -75.656605731376075 35.138403098329015 0 0 0 -1 I I #
point $-1 -75.656605731376075 -35.138403098329015 -14.947252772181127 #
straight-curve $-1 -75.656605731376075 0 -14.947252772181127 0 1 0 I I #
point $-1 -75.656605731376075 35.138403098329015 -14.947252772181127 #
straight-curve $-1 -75.656605731376075 0 -6.7607013655924924 0 -1 0 I I #
point $-1 -75.656605731376075 -35.138403098329015 -6.7607013655924924 #
point $-1 -75.656605731376075 35.138403098329015 -6.7607013655924924 #
straight-curve $-1 -75.656605731376075 35.138403098329015 0 0 0 -1 I I #
straight-curve $-1 -75.656605731376075 -35.138403098329015 0 0 0 -1 I I #
straight-curve $-1 75.656605731376075 -6.4198487933681605 107.38388941488462 0 0 -1 I I #
point $-1 75.656605731376075 -6.4198487933681605 14.947252772181127 #
straight-curve $-1 75.656605731376089 0.11919988990326402 2.3736263785790257 0 1 0 I I #
point $-1 75.656605731376075 -6.4198487933681605 2.373626378579047 #
point $-1 65.425850669701859 0.23839977980652804 4.5048139363304553 #
End-of-ACIS-data 