500 0 8 0           
7 Unknown 11 ACIS 5.0 NT 24 Fri Mar 26 00:56:11 1999 
-1 9.9999999999999995e-007 1e-010 
body $-1 $8 $-1 $9 #
body $-1 $10 $-1 $11 #
body $-1 $12 $-1 $13 #
body $-1 $14 $-1 $15 #
body $-1 $16 $-1 $17 #
body $-1 $18 $-1 $19 #
body $-1 $20 $-1 $21 #
body $-1 $22 $-1 $23 #
lump $-1 $-1 $24 $0 #
transform $-1 1 0 0 0 1 0 0 0 1 40.131839960936311 23.386622445939107 9.1264711410403141 1 rotate no_reflect no_shear #
lump $-1 $-1 $25 $1 #
transform $-1 1 0 0 0 1 0 0 0 1 40.131839960936311 23.386622445939107 9.1264711410403141 1 rotate no_reflect no_shear #
lump $-1 $-1 $26 $2 #
transform $-1 1 0 0 0 1 0 0 0 1 40.131839960936311 23.386622445939107 9.1264711410403141 1 rotate no_reflect no_shear #
lump $-1 $-1 $27 $3 #
transform $-1 1 0 0 0 1 0 0 0 1 40.131839960936311 23.386622445939107 9.1264711410403141 1 rotate no_reflect no_shear #
lump $-1 $-1 $28 $4 #
transform $-1 1 0 0 0 1 0 0 0 1 40.131839960936311 23.386622445939107 9.1264711410403141 1 rotate no_reflect no_shear #
lump $-1 $-1 $29 $5 #
transform $-1 1 0 0 0 1 0 0 0 1 40.131839960936311 23.386622445939107 9.1264711410403141 1 rotate no_reflect no_shear #
lump $-1 $-1 $30 $6 #
transform $-1 1 0 0 0 1 0 0 0 1 40.131839960936311 23.386622445939107 9.1264711410403141 1 rotate no_reflect no_shear #
lump $-1 $-1 $31 $7 #
transform $-1 1 0 0 0 1 0 0 0 1 40.131839960936311 23.386622445939107 9.1264711410403141 1 rotate no_reflect no_shear #
shell $-1 $-1 $-1 $32 $-1 $8 #
shell $-1 $-1 $-1 $33 $-1 $10 #
shell $-1 $-1 $-1 $34 $-1 $12 #
shell $-1 $-1 $-1 $35 $-1 $14 #
shell $-1 $-1 $-1 $36 $-1 $16 #
shell $-1 $-1 $-1 $37 $-1 $18 #
shell $-1 $-1 $-1 $38 $-1 $20 #
shell $-1 $-1 $-1 $39 $-1 $22 #
face $-1 $40 $41 $24 $-1 $42 forward single #
face $-1 $43 $44 $25 $-1 $45 forward single #
face $-1 $46 $47 $26 $-1 $48 forward single #
face $-1 $49 $50 $27 $-1 $51 reversed single #
face $-1 $52 $53 $28 $-1 $54 forward single #
face $-1 $55 $56 $29 $-1 $57 forward single #
face $-1 $58 $59 $30 $-1 $60 reversed single #
face $-1 $61 $62 $31 $-1 $63 forward single #
face $-1 $64 $65 $24 $-1 $66 reversed single #
loop $-1 $-1 $67 $32 #
plane-surface $-1 0 0 9.1264711410403141 0 0 1 1 0 0 forward_v I I I I #
face $-1 $68 $69 $25 $-1 $70 reversed single #
loop $-1 $-1 $71 $33 #
plane-surface $-1 -40.131839960936311 0 0 1 0 0 0 0 -1 forward_v I I I I #
face $-1 $72 $73 $26 $-1 $74 forward single #
loop $-1 $-1 $75 $34 #
plane-surface $-1 40.131839960936311 0 0 -1 0 0 0 0 1 forward_v I I I I #
face $-1 $76 $77 $27 $-1 $78 reversed single #
loop $-1 $-1 $79 $35 #
plane-surface $-1 -12.902381073295063 -84.872169099486172 54.895897690438005 -1 0 0 0 -0.7660444514056185 0.64278759981090561 forward_v I I I I #
face $-1 $80 $81 $28 $-1 $82 forward single #
loop $-1 $83 $84 $36 #
cone-surface $-1 -18.98157910933498 -20.284606502488863 5.6620128394700142 0 0.7660444514056185 -0.64278759981090561 0.5 0 0 1 I I 0 1 0.5 forward I I I I #
face $-1 $85 $86 $29 $-1 $87 forward single #
loop $-1 $88 $89 $37 #
cone-surface $-1 -15.334060287711029 -20.284606502488863 5.6620128394700142 0 0.7660444514056185 -0.64278759981090561 0.5 0 0 1 I I 0 1 0.5 forward I I I I #
face $-1 $90 $91 $30 $-1 $92 reversed single #
loop $-1 $-1 $93 $38 #
plane-surface $-1 -15.123635494968759 50.188486629199588 91.90853958896453 1 0 0 0 -0.73135370988377701 -0.68199835119979291 forward_v I I I I #
face $-1 $94 $95 $31 $-1 $96 forward single #
loop $-1 $97 $98 $39 #
cone-surface $-1 -7.9250261338134109 19.48860955941343 5.0894820784753732 0 -0.73135370988377701 -0.68199835119979291 1.5 0 0 1 I I 0 1 1.5 forward I I I I #
face $-1 $99 $100 $24 $-1 $101 reversed single #
loop $-1 $-1 $102 $40 #
plane-surface $-1 0 0 -9.1264711410403141 0 0 1 1 0 0 forward_v I I I I #
coedge $-1 $103 $104 $105 $106 forward $41 $-1 #
face $-1 $107 $108 $25 $-1 $109 reversed single #
loop $-1 $-1 $110 $43 #
plane-surface $-1 0 23.386622445939107 0 0 -1 0 0 0 -1 forward_v I I I I #
coedge $-1 $111 $112 $113 $114 forward $44 $-1 #
face $-1 $115 $116 $26 $-1 $117 reversed single #
loop $-1 $-1 $118 $46 #
plane-surface $-1 0 0 9.1264711410403141 0 0 1 1 0 0 forward_v I I I I #
coedge $-1 $119 $120 $121 $122 forward $47 $-1 #
face $-1 $123 $124 $27 $-1 $125 reversed single #
loop $-1 $-1 $126 $49 #
plane-surface $-1 -17.157819698523006 -23.386622445939089 3.3033995214667158 0 -0.7660444514056185 0.64278759981090561 1 0 0 forward_v I I I I #
coedge $-1 $127 $128 $129 $130 reversed $50 $-1 #
face $-1 $-1 $131 $28 $-1 $132 forward single #
loop $-1 $133 $134 $52 #
cone-surface $-1 -18.98157910933498 -19.434148006376287 4.9483934477337801 0 0.7660444514056185 -0.64278759981090561 0.25 0 0 1 I I -0.70710678118654746 0.70710678118654746 0.25 forward I I I I #
loop $-1 $-1 $135 $36 #
coedge $-1 $84 $84 $136 $137 reversed $53 $-1 #
face $-1 $-1 $138 $29 $-1 $139 forward single #
loop $-1 $140 $141 $55 #
cone-surface $-1 -15.334060287711029 -19.434148006376287 4.9483934477337801 0 0.7660444514056185 -0.64278759981090561 0.25 0 0 1 I I -0.70710678118654746 0.70710678118654746 0.25 forward I I I I #
loop $-1 $-1 $142 $37 #
coedge $-1 $89 $89 $143 $144 reversed $56 $-1 #
face $-1 $145 $146 $30 $-1 $147 reversed single #
loop $-1 $-1 $148 $58 #
plane-surface $-1 -7.9250261338134109 -8.5126534505859794 37.168842221019482 0 0.73135370988377701 0.68199835119979291 1 0 0 forward_v I I I I #
coedge $-1 $149 $150 $151 $152 reversed $59 $-1 #
face $-1 $-1 $153 $31 $-1 $154 forward single #
loop $-1 $155 $156 $61 #
cone-surface $-1 -7.9250261338134109 17.916752614826418 3.6237018000097816 0 -0.73135370988377701 -0.68199835119979291 0.75 0 0 1 I I -0.70710678118654757 0.70710678118654757 0.75 forward I I I I #
loop $-1 $-1 $157 $39 #
coedge $-1 $98 $98 $158 $159 reversed $62 $-1 #
face $-1 $160 $161 $24 $-1 $162 reversed single #
loop $-1 $-1 $163 $64 #
plane-surface $-1 0 -23.386622445939107 0 0 1 0 0 0 1 forward_v I I I I #
coedge $-1 $164 $165 $166 $167 forward $65 $-1 #
coedge $-1 $168 $67 $169 $170 forward $41 $-1 #
coedge $-1 $67 $168 $171 $172 forward $41 $-1 #
coedge $-1 $173 $174 $67 $106 reversed $175 $-1 #
edge $-1 $176 -23.386622445939107 $177 23.386622445939107 $105 $178 forward 7 unknown #
face $-1 $179 $180 $25 $-1 $181 reversed single #
loop $-1 $-1 $113 $68 #
plane-surface $-1 -44.549211310241134 0 4.7356154951147111 0 0 1 1 0 0 forward_v I I I I #
coedge $-1 $182 $183 $111 $184 forward $69 $-1 #
coedge $-1 $185 $71 $110 $184 reversed $44 $-1 #
coedge $-1 $71 $185 $186 $187 reversed $44 $-1 #
coedge $-1 $188 $189 $71 $114 reversed $108 $-1 #
edge $-1 $190 -23.386622445939107 $191 23.386622445939107 $113 $192 forward 7 unknown #
face $-1 $193 $194 $26 $-1 $195 reversed single #
loop $-1 $-1 $196 $72 #
plane-surface $-1 0 -23.386622445939107 0 0 1 0 0 0 1 forward_v I I I I #
coedge $-1 $197 $198 $199 $200 forward $73 $-1 #
coedge $-1 $199 $75 $196 $201 reversed $47 $-1 #
coedge $-1 $75 $199 $202 $203 reversed $47 $-1 #
coedge $-1 $204 $205 $75 $122 reversed $194 $-1 #
edge $-1 $206 -23.386622445939107 $207 23.386622445939107 $121 $208 forward 7 unknown #
face $-1 $209 $210 $27 $-1 $211 reversed single #
loop $-1 $-1 $212 $76 #
plane-surface $-1 -21.413258323750952 -84.872169099486172 54.895897690438005 1 0 0 0 0.7660444514056185 -0.64278759981090561 forward_v I I I I #
coedge $-1 $213 $214 $215 $216 reversed $77 $-1 #
coedge $-1 $128 $79 $217 $218 reversed $50 $-1 #
coedge $-1 $79 $127 $213 $219 reversed $50 $-1 #
coedge $-1 $215 $220 $79 $130 forward $221 $-1 #
edge $-1 $222 19.049462103803979 $223 23.935599224182155 $129 $224 forward 7 unknown #
loop $-1 $-1 $136 $80 #
plane-surface $-1 -17.157819698523006 -23.386622445939089 3.3033995214667158 0 -0.7660444514056185 0.64278759981090561 1 0 0 forward_v I I I I #
loop $-1 $-1 $225 $52 #
coedge $-1 $134 $134 $135 $226 reversed $81 $-1 #
coedge $-1 $135 $135 $134 $226 forward $83 $-1 #
coedge $-1 $136 $136 $84 $137 forward $131 $-1 #
edge $-1 $227 4.8639387218703404e-015 $227 6.2831853071796049 $136 $228 forward 7 unknown #
loop $-1 $-1 $143 $85 #
plane-surface $-1 -17.157819698523006 -23.386622445939089 3.3033995214667158 0 -0.7660444514056185 0.64278759981090561 1 0 0 forward_v I I I I #
loop $-1 $-1 $229 $55 #
coedge $-1 $141 $141 $142 $230 reversed $86 $-1 #
coedge $-1 $142 $142 $141 $230 forward $88 $-1 #
coedge $-1 $143 $143 $89 $144 forward $138 $-1 #
edge $-1 $231 4.8639387218703404e-015 $231 6.2831853071796049 $143 $232 forward 7 unknown #
face $-1 $233 $234 $30 $-1 $235 reversed single #
loop $-1 $-1 $236 $90 #
plane-surface $-1 -0.72641677265806237 50.188486629199588 91.90853958896453 -1 0 0 0 0.73135370988377701 0.68199835119979291 forward_v I I I I #
coedge $-1 $237 $238 $239 $240 reversed $91 $-1 #
coedge $-1 $150 $93 $241 $242 reversed $59 $-1 #
coedge $-1 $93 $149 $237 $243 reversed $59 $-1 #
coedge $-1 $239 $244 $93 $152 forward $245 $-1 #
edge $-1 $246 1.7076208686606869 $247 7.4569633173636873 $151 $248 forward 7 unknown #
loop $-1 $-1 $158 $94 #
plane-surface $-1 -7.9250261338134109 -8.5126534505859794 37.168842221019482 0 0.73135370988377701 0.68199835119979291 1 0 0 forward_v I I I I #
loop $-1 $-1 $249 $61 #
coedge $-1 $156 $156 $157 $250 reversed $95 $-1 #
coedge $-1 $157 $157 $156 $250 forward $97 $-1 #
coedge $-1 $158 $158 $98 $159 forward $153 $-1 #
edge $-1 $251 3.1615141624513427e-016 $251 6.2831853071796004 $158 $252 forward 7 unknown #
face $-1 $253 $254 $24 $-1 $255 reversed single #
loop $-1 $-1 $256 $99 #
plane-surface $-1 -40.131839960936311 0 0 1 0 0 0 0 -1 forward_v I I I I #
coedge $-1 $257 $171 $258 $259 forward $100 $-1 #
coedge $-1 $260 $102 $257 $261 forward $65 $-1 #
coedge $-1 $102 $260 $262 $263 forward $65 $-1 #
coedge $-1 $174 $173 $102 $167 reversed $175 $-1 #
edge $-1 $264 -23.386622445939107 $265 23.386622445939107 $166 $266 forward 7 unknown #
coedge $-1 $104 $103 $267 $268 forward $41 $-1 #
coedge $-1 $269 $270 $103 $170 reversed $254 $-1 #
edge $-1 $177 -40.131839960936311 $271 40.131839960936311 $169 $272 forward 7 unknown #
coedge $-1 $163 $273 $104 $172 reversed $100 $-1 #
edge $-1 $274 -40.131839960936311 $176 40.131839960936311 $171 $275 forward 7 unknown #
coedge $-1 $166 $105 $273 $276 forward $175 $-1 #
coedge $-1 $105 $166 $269 $277 reversed $175 $-1 #
loop $-1 $-1 $173 $253 #
vertex $-1 $106 $278 #
vertex $-1 $106 $279 #
straight-curve $-1 40.131839960936311 0 9.1264711410403141 0 1 0 I I #
face $-1 $280 $281 $25 $-1 $282 forward single #
loop $-1 $-1 $283 $107 #
plane-surface $-1 -48.966582659545956 0 6.9310433180775117 1 0 0 0 0 -1 forward_v I I I I #
coedge $-1 $284 $110 $189 $285 reversed $69 $-1 #
coedge $-1 $110 $284 $286 $287 reversed $69 $-1 #
edge $-1 $288 -9.1264711410403141 $191 -4.7356154951147111 $110 $289 forward 7 unknown #
coedge $-1 $112 $111 $290 $291 reversed $44 $-1 #
coedge $-1 $292 $293 $112 $187 forward $294 $-1 #
edge $-1 $190 4.7356154951147111 $295 9.1264711410403141 $186 $296 forward 7 unknown #
coedge $-1 $297 $113 $293 $298 forward $108 $-1 #
coedge $-1 $113 $297 $182 $285 forward $108 $-1 #
vertex $-1 $187 $299 #
vertex $-1 $184 $300 #
straight-curve $-1 -40.131839960936311 0 4.7356154951147111 0 1 0 I I #
face $-1 $301 $302 $26 $-1 $303 reversed single #
loop $-1 $-1 $304 $115 #
plane-surface $-1 44.549211310241127 0 4.7356154951147111 0 0 1 1 0 0 forward_v I I I I #
coedge $-1 $305 $306 $119 $201 forward $116 $-1 #
coedge $-1 $307 $118 $306 $308 forward $73 $-1 #
coedge $-1 $118 $307 $309 $310 forward $73 $-1 #
coedge $-1 $120 $119 $118 $200 reversed $47 $-1 #
edge $-1 $311 -23.386622445939107 $312 23.386622445939107 $118 $313 forward 7 unknown #
edge $-1 $312 -9.1264711410403141 $207 -4.7356154951147111 $196 $314 forward 7 unknown #
coedge $-1 $309 $315 $120 $203 forward $316 $-1 #
edge $-1 $206 4.7356154951147111 $311 9.1264711410403141 $202 $317 forward 7 unknown #
coedge $-1 $304 $121 $315 $318 forward $194 $-1 #
coedge $-1 $121 $304 $305 $319 forward $194 $-1 #
vertex $-1 $203 $320 #
vertex $-1 $201 $321 #
straight-curve $-1 40.131839960936311 0 4.7356154951147111 0 -1 0 I I #
face $-1 $-1 $221 $27 $-1 $322 forward single #
loop $-1 $-1 $323 $123 #
plane-surface $-1 0 -23.386622445939107 0 0 1 0 0 0 1 forward_v I I I I #
coedge $-1 $324 $325 $326 $327 reversed $124 $-1 #
coedge $-1 $328 $126 $128 $219 forward $77 $-1 #
coedge $-1 $126 $328 $324 $329 forward $77 $-1 #
coedge $-1 $326 $129 $126 $216 forward $221 $-1 #
edge $-1 $223 4.3234712240335593 $330 12.834348474489449 $215 $331 forward 7 unknown #
coedge $-1 $332 $333 $127 $218 forward $210 $-1 #
edge $-1 $334 -24.144549323752308 $222 -18.32147770417869 $217 $335 forward 7 unknown #
edge $-1 $223 -7.6014800562667331 $334 2.7747421098525539e-014 $128 $336 forward 7 unknown #
coedge $-1 $129 $326 $332 $337 forward $221 $-1 #
loop $-1 $-1 $326 $209 #
vertex $-1 $218 $338 #
vertex $-1 $130 $339 #
straight-curve $-1 -12.902381073295063 -42.436084549743086 9.1264711410403123 0 1 0 I I #
coedge $-1 $225 $225 $-1 $340 reversed $133 $-1 #
edge $-1 $341 0 $341 6.2831853071796004 $134 $342 forward 7 unknown #
vertex $-1 $137 $343 #
ellipse-curve $-1 -18.98157910933498 -20.943553885750017 6.2149353312535069 0 -0.7660444514056185 0.64278759981090561 0.5 0 0 1 I I #
coedge $-1 $229 $229 $-1 $344 reversed $140 $-1 #
edge $-1 $345 0 $345 6.2831853071796004 $141 $346 forward 7 unknown #
vertex $-1 $144 $347 #
ellipse-curve $-1 -15.334060287711029 -20.943553885750017 6.2149353312535069 0 -0.7660444514056185 0.64278759981090561 0.5 0 0 1 I I #
face $-1 $-1 $245 $30 $-1 $348 forward single #
loop $-1 $-1 $349 $145 #
plane-surface $-1 0 23.386622445939107 0 0 -1 0 0 0 -1 forward_v I I I I #
coedge $-1 $350 $351 $352 $353 reversed $146 $-1 #
coedge $-1 $354 $148 $150 $243 forward $91 $-1 #
coedge $-1 $148 $354 $350 $355 forward $91 $-1 #
coedge $-1 $352 $151 $148 $240 forward $245 $-1 #
edge $-1 $247 -11.161122428062054 $356 3.2360962942486431 $239 $357 forward 7 unknown #
coedge $-1 $358 $359 $149 $242 forward $234 $-1 #
edge $-1 $360 -42.993213748440347 $246 -36.827798653441953 $241 $361 forward 7 unknown #
edge $-1 $247 38.343103618679287 $360 46.773244891878221 $150 $362 forward 7 unknown #
coedge $-1 $151 $352 $358 $363 forward $245 $-1 #
loop $-1 $-1 $352 $233 #
vertex $-1 $242 $364 #
vertex $-1 $152 $365 #
straight-curve $-1 -15.123635494968759 25.094243314599794 9.1264711410403123 0 -1 0 I I #
coedge $-1 $249 $249 $-1 $366 reversed $155 $-1 #
edge $-1 $367 0 $367 6.2831853071796004 $156 $368 forward 7 unknown #
vertex $-1 $159 $369 #
ellipse-curve $-1 -7.9250261338134109 20.511951221587605 6.0437635935411169 0 0.73135370988377701 0.68199835119979291 1.5 0 0 1 I I #
face $-1 $-1 $175 $24 $-1 $370 reversed single #
loop $-1 $-1 $269 $160 #
plane-surface $-1 0 23.386622445939107 0 0 -1 0 0 0 -1 forward_v I I I I #
coedge $-1 $371 $267 $270 $372 forward $161 $-1 #
coedge $-1 $273 $163 $164 $261 reversed $100 $-1 #
coedge $-1 $267 $371 $163 $259 reversed $161 $-1 #
edge $-1 $274 -9.1264711410403141 $373 9.1264711410403141 $258 $374 forward 7 unknown #
coedge $-1 $165 $164 $371 $375 forward $65 $-1 #
edge $-1 $265 -40.131839960936311 $373 40.131839960936311 $257 $376 forward 7 unknown #
coedge $-1 $270 $269 $165 $263 reversed $254 $-1 #
edge $-1 $377 -40.131839960936311 $264 40.131839960936311 $262 $378 forward 7 unknown #
vertex $-1 $167 $379 #
vertex $-1 $276 $380 #
straight-curve $-1 40.131839960936311 0 -9.1264711410403141 0 -1 0 I I #
coedge $-1 $256 $258 $168 $268 reversed $161 $-1 #
edge $-1 $271 -23.386622445939107 $274 23.386622445939107 $267 $381 forward 7 unknown #
coedge $-1 $262 $169 $174 $277 forward $254 $-1 #
coedge $-1 $169 $262 $256 $372 reversed $254 $-1 #
vertex $-1 $170 $382 #
straight-curve $-1 0 23.386622445939107 9.1264711410403141 -1 0 0 I I #
coedge $-1 $171 $257 $173 $276 reversed $100 $-1 #
vertex $-1 $268 $383 #
straight-curve $-1 0 -23.386622445939107 9.1264711410403141 1 0 0 I I #
edge $-1 $176 -9.1264711410403141 $265 9.1264711410403141 $173 $384 forward 7 unknown #
edge $-1 $177 -9.1264711410403141 $264 9.1264711410403141 $174 $385 forward 7 unknown #
point $-1 40.131839960936311 -23.386622445939107 9.1264711410403141 #
point $-1 40.131839960936311 23.386622445939107 9.1264711410403141 #
face $-1 $-1 $294 $25 $-1 $386 reversed single #
loop $-1 $-1 $290 $179 #
plane-surface $-1 0 0 9.1264711410403141 0 0 1 1 0 0 forward_v I I I I #
coedge $-1 $387 $388 $284 $389 forward $180 $-1 #
coedge $-1 $183 $182 $283 $389 reversed $69 $-1 #
edge $-1 $390 -4.4173713493048226 $191 4.4173713493048226 $182 $391 forward 7 unknown #
coedge $-1 $392 $290 $183 $287 forward $281 $-1 #
edge $-1 $288 40.131839960936311 $393 48.966582659545956 $183 $394 forward 7 unknown #
vertex $-1 $287 $395 #
straight-curve $-1 -40.131839960936311 23.386622445939107 0 0 0 -1 I I #
coedge $-1 $286 $396 $185 $291 forward $281 $-1 #
edge $-1 $295 -23.386622445939107 $288 23.386622445939107 $290 $397 forward 7 unknown #
coedge $-1 $398 $186 $396 $399 reversed $294 $-1 #
coedge $-1 $186 $398 $188 $298 reversed $294 $-1 #
loop $-1 $-1 $186 $280 #
vertex $-1 $187 $400 #
straight-curve $-1 -40.131839960936311 -23.386622445939107 0 0 0 1 I I #
coedge $-1 $189 $188 $387 $401 forward $108 $-1 #
edge $-1 $190 -4.4173713493048226 $402 4.4173713493048226 $293 $403 forward 7 unknown #
point $-1 -40.131839960936311 -23.386622445939107 4.7356154951147111 #
point $-1 -40.131839960936311 23.386622445939107 4.7356154951147111 #
face $-1 $-1 $316 $26 $-1 $404 reversed single #
loop $-1 $-1 $405 $193 #
plane-surface $-1 48.966582659545949 0 6.9310433180775117 -1 0 0 0 0 1 forward_v I I I I #
coedge $-1 $205 $204 $406 $407 forward $194 $-1 #
coedge $-1 $408 $196 $205 $319 reversed $116 $-1 #
coedge $-1 $196 $408 $197 $308 reversed $116 $-1 #
coedge $-1 $198 $197 $409 $410 forward $73 $-1 #
edge $-1 $312 -4.4173713493048155 $411 4.4173713493048226 $306 $412 forward 7 unknown #
coedge $-1 $413 $202 $198 $310 reversed $316 $-1 #
edge $-1 $414 -48.966582659545949 $311 -40.131839960936311 $309 $415 forward 7 unknown #
vertex $-1 $203 $416 #
vertex $-1 $308 $417 #
straight-curve $-1 40.131839960936311 0 9.1264711410403141 0 -1 0 I I #
straight-curve $-1 40.131839960936311 -23.386622445939107 0 0 0 -1 I I #
coedge $-1 $202 $413 $204 $318 reversed $316 $-1 #
loop $-1 $-1 $202 $301 #
straight-curve $-1 40.131839960936311 23.386622445939107 0 0 0 1 I I #
edge $-1 $206 -4.4173713493048226 $418 4.4173713493048226 $315 $419 forward 7 unknown #
edge $-1 $420 -4.4173713493048226 $207 4.4173713493048226 $305 $421 forward 7 unknown #
point $-1 40.131839960936304 23.386622445939107 4.7356154951147111 #
point $-1 40.131839960936304 -23.386622445939107 4.7356154951147111 #
plane-surface $-1 0 0 9.1264711410403141 0 0 1 1 0 0 forward_v I I I I #
coedge $-1 $333 $332 $325 $422 forward $210 $-1 #
coedge $-1 $325 $212 $214 $329 reversed $124 $-1 #
coedge $-1 $212 $324 $323 $422 reversed $124 $-1 #
coedge $-1 $220 $215 $212 $327 forward $221 $-1 #
edge $-1 $330 -23.935599224182155 $423 -19.049462103803979 $326 $424 forward 7 unknown #
coedge $-1 $214 $213 $333 $425 reversed $77 $-1 #
edge $-1 $426 -2.7747421098525539e-014 $330 7.6014800562667331 $324 $427 forward 7 unknown #
vertex $-1 $216 $428 #
straight-curve $-1 -8.5789098492615032 -18.500485325560927 9.1264711410403141 -1 0 0 I I #
coedge $-1 $323 $217 $220 $337 reversed $210 $-1 #
coedge $-1 $217 $323 $328 $425 forward $210 $-1 #
vertex $-1 $218 $429 #
straight-curve $-1 -12.902381073295063 -23.386622445939107 27.447948845219003 0 0 1 I I #
straight-curve $-1 -12.902381073295063 -23.386622445939089 3.3033995214667158 0 -0.64278759981090561 -0.7660444514056185 I I #
edge $-1 $423 -65.962469633992072 $222 -57.451592383536187 $332 $430 forward 7 unknown #
point $-1 -12.902381073295061 -23.386622445939107 9.1264711410403123 #
point $-1 -12.902381073295063 -18.500485325560931 9.1264711410403141 #
edge $-1 $431 1 $431 0 $225 $-1 forward 7 unknown #
vertex $-1 $226 $432 #
ellipse-curve $-1 -18.98157910933498 -19.625659119227691 5.1090903476865064 0 -0.7660444514056185 0.64278759981090561 0.5 0 0 1 I I #
point $-1 -18.48157910933498 -20.943553885750031 6.214935331253522 #
edge $-1 $433 1 $433 0 $229 $-1 forward 7 unknown #
vertex $-1 $230 $434 #
ellipse-curve $-1 -15.334060287711029 -19.625659119227691 5.1090903476865064 0 -0.7660444514056185 0.64278759981090561 0.5 0 0 1 I I #
point $-1 -14.834060287711029 -20.943553885750031 6.214935331253522 #
plane-surface $-1 0 0 9.1264711410403141 0 0 1 1 0 0 forward_v I I I I #
coedge $-1 $359 $358 $351 $435 forward $234 $-1 #
coedge $-1 $351 $236 $238 $355 reversed $146 $-1 #
coedge $-1 $236 $350 $349 $435 reversed $146 $-1 #
coedge $-1 $244 $239 $236 $353 forward $245 $-1 #
edge $-1 $356 -7.4569633173636873 $436 -1.7076208686606869 $352 $437 forward 7 unknown #
coedge $-1 $238 $237 $359 $438 reversed $91 $-1 #
edge $-1 $439 -46.773244891878221 $356 -38.343103618679287 $350 $440 forward 7 unknown #
vertex $-1 $240 $441 #
straight-curve $-1 -3.9625130669067055 17.637279997236103 9.1264711410403159 1 0 0 I I #
coedge $-1 $349 $241 $244 $363 reversed $234 $-1 #
coedge $-1 $241 $349 $354 $438 forward $234 $-1 #
vertex $-1 $242 $442 #
straight-curve $-1 -15.123635494968759 23.386622445939107 45.954269794482265 0 0 1 I I #
straight-curve $-1 -15.123635494968759 -8.5126534505859794 37.168842221019482 0 0.68199835119979291 -0.73135370988377701 I I #
edge $-1 $436 0.72641677265806237 $246 15.123635494968759 $358 $443 forward 7 unknown #
point $-1 -15.123635494968759 23.386622445939107 9.1264711410403141 #
point $-1 -15.123635494968759 17.637279997236107 9.1264711410403088 #
edge $-1 $444 1 $444 0 $249 $-1 forward 7 unknown #
vertex $-1 $250 $445 #
ellipse-curve $-1 -7.9250261338134109 18.465267897239251 4.1352005634096258 0 0.73135370988377701 0.68199835119979291 1.5 0 0 1 I I #
point $-1 -6.4250261338134109 20.511951221587609 6.0437635935411196 #
plane-surface $-1 40.131839960936311 0 0 -1 0 0 0 0 1 forward_v I I I I #
coedge $-1 $258 $256 $260 $375 reversed $161 $-1 #
edge $-1 $271 -9.1264711410403141 $377 9.1264711410403141 $270 $446 forward 7 unknown #
vertex $-1 $375 $447 #
straight-curve $-1 -40.131839960936311 -23.386622445939107 0 0 0 -1 I I #
edge $-1 $373 -23.386622445939107 $377 23.386622445939107 $371 $448 forward 7 unknown #
straight-curve $-1 0 -23.386622445939107 -9.1264711410403141 -1 0 0 I I #
vertex $-1 $263 $449 #
straight-curve $-1 0 23.386622445939107 -9.1264711410403141 1 0 0 I I #
point $-1 40.131839960936311 23.386622445939107 -9.1264711410403141 #
point $-1 40.131839960936311 -23.386622445939107 -9.1264711410403141 #
straight-curve $-1 -40.131839960936311 0 9.1264711410403141 0 -1 0 I I #
point $-1 -40.131839960936311 23.386622445939107 9.1264711410403141 #
point $-1 -40.131839960936311 -23.386622445939107 9.1264711410403141 #
straight-curve $-1 40.131839960936311 -23.386622445939107 0 0 0 -1 I I #
straight-curve $-1 40.131839960936311 23.386622445939107 0 0 0 -1 I I #
plane-surface $-1 0 -23.386622445939107 0 0 1 0 0 0 1 forward_v I I I I #
coedge $-1 $450 $283 $297 $401 reversed $180 $-1 #
coedge $-1 $283 $450 $392 $451 reversed $180 $-1 #
edge $-1 $393 -2.1954278229628006 $390 2.1954278229628006 $284 $452 forward 7 unknown #
vertex $-1 $285 $453 #
straight-curve $-1 -44.549211310241134 23.386622445939107 4.7356154951147111 1 0 0 I I #
coedge $-1 $396 $286 $388 $451 forward $281 $-1 #
vertex $-1 $287 $454 #
straight-curve $-1 0 23.386622445939107 9.1264711410403141 -1 0 0 I I #
point $-1 -40.131839960936311 23.386622445939107 9.1264711410403141 #
coedge $-1 $290 $392 $292 $399 forward $281 $-1 #
straight-curve $-1 -40.131839960936311 0 9.1264711410403141 0 1 0 I I #
coedge $-1 $293 $292 $450 $455 forward $294 $-1 #
edge $-1 $456 -48.966582659545956 $295 -40.131839960936311 $292 $457 forward 7 unknown #
point $-1 -40.131839960936311 -23.386622445939107 9.1264711410403141 #
edge $-1 $402 -23.386622445939107 $390 23.386622445939107 $387 $458 forward 7 unknown #
vertex $-1 $401 $459 #
straight-curve $-1 -44.549211310241134 -23.386622445939107 4.7356154951147111 -1 0 0 I I #
plane-surface $-1 0 23.386622445939107 0 0 -1 0 0 0 -1 forward_v I I I I #
coedge $-1 $406 $409 $408 $460 forward $302 $-1 #
coedge $-1 $461 $405 $304 $407 reversed $302 $-1 #
edge $-1 $418 -23.386622445939107 $420 23.386622445939107 $406 $462 forward 7 unknown #
coedge $-1 $306 $305 $405 $460 reversed $116 $-1 #
coedge $-1 $405 $461 $307 $410 reversed $302 $-1 #
edge $-1 $411 -23.386622445939107 $414 23.386622445939107 $409 $463 forward 7 unknown #
vertex $-1 $410 $464 #
straight-curve $-1 44.549211310241127 -23.386622445939107 9.1264711410403123 1 0 0 I I #
coedge $-1 $315 $309 $461 $465 forward $316 $-1 #
vertex $-1 $410 $466 #
straight-curve $-1 0 23.386622445939107 9.1264711410403141 -1 0 0 I I #
point $-1 40.131839960936311 23.386622445939107 9.1264711410403141 #
point $-1 40.131839960936311 -23.386622445939107 9.1264711410403141 #
vertex $-1 $407 $467 #
straight-curve $-1 44.549211310241127 23.386622445939107 4.7356154951147111 1 0 0 I I #
vertex $-1 $460 $468 #
straight-curve $-1 44.549211310241127 -23.386622445939107 4.7356154951147111 -1 0 0 I I #
edge $-1 $423 18.32147770417869 $426 24.144549323752308 $323 $469 forward 7 unknown #
vertex $-1 $337 $470 #
straight-curve $-1 -21.413258323750952 -42.436084549743086 9.1264711410403123 0 -1 0 I I #
edge $-1 $426 -12.834348474489449 $334 -4.3234712240335593 $333 $471 forward 7 unknown #
vertex $-1 $425 $472 #
straight-curve $-1 -21.413258323750952 -23.386622445939089 3.3033995214667158 0 0.64278759981090561 0.7660444514056185 I I #
point $-1 -21.413258323750952 -18.500485325560931 9.1264711410403141 #
point $-1 -12.902381073295063 -23.386622445939107 3.3033995214666945 #
straight-curve $-1 44.549211310241127 -23.386622445939107 9.1264711410403123 1 0 0 I I #
vertex $-1 $340 $473 #
point $-1 -18.48157910933498 -19.625659119227691 5.1090903476865064 #
vertex $-1 $344 $474 #
point $-1 -14.834060287711029 -19.625659119227691 5.1090903476865064 #
edge $-1 $436 36.827798653441953 $439 42.993213748440347 $349 $475 forward 7 unknown #
vertex $-1 $363 $476 #
straight-curve $-1 -0.72641677265806237 25.094243314599794 9.1264711410403123 0 1 0 I I #
edge $-1 $439 -3.2360962942486431 $360 11.161122428062054 $359 $477 forward 7 unknown #
vertex $-1 $438 $478 #
straight-curve $-1 -0.72641677265806237 -8.5126534505859794 37.168842221019482 0 -0.68199835119979291 0.73135370988377701 I I #
point $-1 -0.72641677265806237 17.637279997236107 9.1264711410403088 #
point $-1 -15.123635494968759 23.386622445939107 2.961056046041918 #
straight-curve $-1 0 23.386622445939107 9.1264711410403141 -1 0 0 I I #
vertex $-1 $366 $479 #
point $-1 -6.4250261338134109 18.465267897239251 4.1352005634096258 #
straight-curve $-1 -40.131839960936311 23.386622445939107 0 0 0 -1 I I #
point $-1 -40.131839960936311 -23.386622445939107 -9.1264711410403141 #
straight-curve $-1 -40.131839960936311 0 -9.1264711410403141 0 1 0 I I #
point $-1 -40.131839960936311 23.386622445939107 -9.1264711410403141 #
coedge $-1 $388 $387 $398 $455 reversed $180 $-1 #
edge $-1 $393 -23.386622445939107 $456 23.386622445939107 $388 $480 forward 7 unknown #
straight-curve $-1 -48.966582659545956 23.386622445939107 6.9310433180775117 0 0 -1 I I #
point $-1 -48.966582659545956 23.386622445939107 4.7356154951147111 #
point $-1 -48.966582659545956 23.386622445939107 9.1264711410403123 #
edge $-1 $456 -2.1954278229628006 $402 2.1954278229628006 $450 $481 forward 7 unknown #
vertex $-1 $451 $482 #
straight-curve $-1 0 -23.386622445939107 9.1264711410403141 1 0 0 I I #
straight-curve $-1 -48.966582659545956 0 4.7356154951147111 0 1 0 I I #
point $-1 -48.966582659545956 -23.386622445939107 4.7356154951147111 #
edge $-1 $411 -2.1954278229628006 $420 2.1954278229628006 $405 $483 forward 7 unknown #
coedge $-1 $409 $406 $413 $465 reversed $302 $-1 #
straight-curve $-1 48.966582659545949 0 4.7356154951147111 0 -1 0 I I #
straight-curve $-1 48.966582659545949 0 9.1264711410403123 0 1 0 I I #
point $-1 48.966582659545949 -23.386622445939107 9.1264711410403123 #
edge $-1 $414 -2.1954278229628006 $418 2.1954278229628006 $461 $484 forward 7 unknown #
point $-1 48.966582659545949 23.386622445939107 9.1264711410403123 #
point $-1 48.966582659545949 23.386622445939107 4.7356154951147111 #
point $-1 48.966582659545949 -23.386622445939107 4.7356154951147111 #
straight-curve $-1 -21.413258323750952 -23.386622445939107 27.447948845219003 0 0 -1 I I #
point $-1 -21.413258323750945 -23.386622445939107 9.1264711410403123 #
straight-curve $-1 -8.5789098492615032 -23.386622445939107 3.3033995214666905 1 0 0 I I #
point $-1 -21.413258323750952 -23.386622445939107 3.3033995214666945 #
point $-1 -18.98157910933498 -19.242636893524882 4.7876965477810538 #
point $-1 -15.334060287711029 -19.242636893524882 4.7876965477810538 #
straight-curve $-1 -0.72641677265806237 23.386622445939107 45.954269794482265 0 0 -1 I I #
point $-1 -0.72641677265806237 23.386622445939107 9.1264711410403141 #
straight-curve $-1 -3.9625130669067055 23.386622445939103 2.9610560460419215 -1 0 0 I I #
point $-1 -0.72641677265806237 23.386622445939107 2.961056046041918 #
point $-1 -7.9250261338134109 17.368237332413585 3.1122030366099369 #
straight-curve $-1 -48.966582659545956 0 9.1264711410403123 0 -1 0 I I #
straight-curve $-1 -48.966582659545956 -23.386622445939107 6.9310433180775117 0 0 -1 I I #
point $-1 -48.966582659545956 -23.386622445939107 9.1264711410403123 #
straight-curve $-1 48.966582659545949 -23.386622445939107 6.9310433180775117 0 0 -1 I I #
straight-curve $-1 48.966582659545949 23.386622445939107 6.9310433180775117 0 0 -1 I I #
End-of-ACIS-data 