500 0 14 0           
7 Unknown 11 ACIS 5.0 NT 24 Fri Mar 26 20:18:29 1999 
-1 9.9999999999999995e-007 1e-010 
body $-1 $14 $-1 $15 #
body $-1 $16 $-1 $17 #
body $-1 $18 $-1 $19 #
body $-1 $20 $-1 $21 #
body $-1 $22 $-1 $23 #
body $-1 $24 $-1 $25 #
body $-1 $26 $-1 $27 #
body $-1 $28 $-1 $29 #
body $-1 $30 $-1 $31 #
body $-1 $32 $-1 $33 #
body $-1 $34 $-1 $35 #
body $-1 $36 $-1 $37 #
body $-1 $38 $-1 $39 #
body $-1 $40 $-1 $41 #
lump $-1 $-1 $42 $0 #
transform $-1 1 0 0 0 1 0 0 0 1 66.138492996002071 30.312651756808982 13.453962471230204 1 rotate no_reflect no_shear #
lump $-1 $-1 $43 $1 #
transform $-1 1 0 0 0 1 0 0 0 1 66.138492996002071 30.312651756808982 13.453962471230204 1 rotate no_reflect no_shear #
lump $-1 $-1 $44 $2 #
transform $-1 1 0 0 0 1 0 0 0 1 66.138492996002071 30.312651756808982 13.453962471230204 1 rotate no_reflect no_shear #
lump $-1 $-1 $45 $3 #
transform $-1 1 0 0 0 1 0 0 0 1 66.138492996002071 30.312651756808982 13.453962471230204 1 rotate no_reflect no_shear #
lump $-1 $-1 $46 $4 #
transform $-1 1 0 0 0 1 0 0 0 1 66.138492996002071 30.312651756808982 13.453962471230204 1 rotate no_reflect no_shear #
lump $-1 $-1 $47 $5 #
transform $-1 1 0 0 0 1 0 0 0 1 66.138492996002071 30.312651756808982 13.453962471230204 1 rotate no_reflect no_shear #
lump $-1 $-1 $48 $6 #
transform $-1 1 0 0 0 1 0 0 0 1 66.138492996002071 30.312651756808982 13.453962471230204 1 rotate no_reflect no_shear #
lump $-1 $-1 $49 $7 #
transform $-1 1 0 0 0 1 0 0 0 1 66.138492996002071 30.312651756808982 13.453962471230204 1 rotate no_reflect no_shear #
lump $-1 $-1 $50 $8 #
transform $-1 1 0 0 0 1 0 0 0 1 66.138492996002071 30.312651756808982 13.453962471230204 1 rotate no_reflect no_shear #
lump $-1 $-1 $51 $9 #
transform $-1 1 0 0 0 1 0 0 0 1 66.138492996002071 30.312651756808982 13.453962471230204 1 rotate no_reflect no_shear #
lump $-1 $-1 $52 $10 #
transform $-1 1 0 0 0 1 0 0 0 1 66.138492996002071 30.312651756808982 13.453962471230204 1 rotate no_reflect no_shear #
lump $-1 $-1 $53 $11 #
transform $-1 1 0 0 0 1 0 0 0 1 66.138492996002071 30.312651756808982 13.453962471230204 1 rotate no_reflect no_shear #
lump $-1 $-1 $54 $12 #
transform $-1 1 0 0 0 1 0 0 0 1 66.138492996002071 30.312651756808982 13.453962471230204 1 rotate no_reflect no_shear #
lump $-1 $-1 $55 $13 #
transform $-1 1 0 0 0 1 0 0 0 1 66.138492996002071 30.312651756808982 13.453962471230204 1 rotate no_reflect no_shear #
shell $-1 $-1 $-1 $56 $-1 $14 #
shell $-1 $-1 $-1 $57 $-1 $16 #
shell $-1 $-1 $-1 $58 $-1 $18 #
shell $-1 $-1 $-1 $59 $-1 $20 #
shell $-1 $-1 $-1 $60 $-1 $22 #
shell $-1 $-1 $-1 $61 $-1 $24 #
shell $-1 $-1 $-1 $62 $-1 $26 #
shell $-1 $-1 $-1 $63 $-1 $28 #
shell $-1 $-1 $-1 $64 $-1 $30 #
shell $-1 $-1 $-1 $65 $-1 $32 #
shell $-1 $-1 $-1 $66 $-1 $34 #
shell $-1 $-1 $-1 $67 $-1 $36 #
shell $-1 $-1 $-1 $68 $-1 $38 #
shell $-1 $-1 $-1 $69 $-1 $40 #
face $-1 $70 $71 $42 $-1 $72 forward single #
face $-1 $73 $74 $43 $-1 $75 reversed single #
face $-1 $76 $77 $44 $-1 $78 reversed single #
face $-1 $79 $80 $45 $-1 $81 forward single #
face $-1 $82 $83 $46 $-1 $84 forward single #
face $-1 $85 $86 $47 $-1 $87 forward single #
face $-1 $88 $89 $48 $-1 $90 reversed single #
face $-1 $91 $92 $49 $-1 $93 forward single #
face $-1 $94 $95 $50 $-1 $96 reversed single #
face $-1 $97 $98 $51 $-1 $99 forward single #
face $-1 $100 $101 $52 $-1 $102 reversed single #
face $-1 $103 $104 $53 $-1 $105 forward single #
face $-1 $106 $107 $54 $-1 $108 reversed single #
face $-1 $109 $110 $55 $-1 $111 forward single #
face $-1 $112 $113 $42 $-1 $114 reversed single #
loop $-1 $-1 $115 $56 #
plane-surface $-1 0 0 13.453962471230204 0 0 1 1 0 0 forward_v I I I I #
face $-1 $116 $117 $43 $-1 $118 reversed single #
loop $-1 $-1 $119 $57 #
plane-surface $-1 -59.982760100709505 0 9.6258221561489421 0 0 1 1 0 0 forward_v I I I I #
face $-1 $120 $121 $44 $-1 $122 reversed single #
loop $-1 $-1 $123 $58 #
plane-surface $-1 16.067992498544392 -127.0539161943056 100.17532821623558 -1 0 0 0 -0.73135370988377701 0.68199835119979291 forward_v I I I I #
face $-1 $124 $125 $45 $-1 $126 forward single #
loop $-1 $127 $128 $59 #
cone-surface $-1 -1.9786410711090525 -27.330095443850222 10.44502234766324 0 0.73135370988377701 -0.68199835119979291 1 0 0 1 I I 0 1 1 forward I I I I #
face $-1 $129 $130 $46 $-1 $131 forward single #
loop $-1 $132 $133 $60 #
cone-surface $-1 4.78884651751099 -27.330095443850222 10.44502234766324 0 0.73135370988377701 -0.68199835119979291 1 0 0 1 I I 0 1 1 forward I I I I #
face $-1 $134 $135 $47 $-1 $136 forward single #
loop $-1 $137 $138 $61 #
cone-surface $-1 11.556334106131033 -27.330095443850222 10.44502234766324 0 0.73135370988377701 -0.68199835119979291 1 0 0 1 I I 0 1 1 forward I I I I #
face $-1 $139 $140 $48 $-1 $141 reversed single #
loop $-1 $-1 $142 $62 #
plane-surface $-1 -50.677342052115243 78.589775127529776 137.91139130314141 1 0 0 0 -0.69465837861970381 -0.71933979245794832 forward_v I I I I #
face $-1 $143 $144 $49 $-1 $145 forward single #
loop $-1 $146 $147 $63 #
cone-surface $-1 -43.724599318923168 22.023326573403391 5.3332912742582792 0 -0.69465837861970381 -0.71933979245794832 3 0 0 1 I I 0 1 3 forward I I I I #
face $-1 $148 $149 $50 $-1 $150 reversed single #
loop $-1 $-1 $151 $64 #
plane-surface $-1 -17.423787242638085 78.589775127529776 137.91139130314141 1 0 0 0 -0.69465837861970381 -0.71933979245794832 forward_v I I I I #
face $-1 $152 $153 $51 $-1 $154 forward single #
loop $-1 $155 $156 $65 #
cone-surface $-1 -10.47104450944601 22.023326573403391 5.3332912742582792 0 -0.69465837861970381 -0.71933979245794832 3 0 0 1 I I 0 1 3 forward I I I I #
face $-1 $157 $158 $52 $-1 $159 reversed single #
loop $-1 $-1 $160 $66 #
plane-surface $-1 15.829767566839072 78.589775127529776 137.91139130314141 1 0 0 0 -0.69465837861970381 -0.71933979245794832 forward_v I I I I #
face $-1 $161 $162 $53 $-1 $163 forward single #
loop $-1 $164 $165 $67 #
cone-surface $-1 22.782510300031149 22.023326573403391 5.3332912742582792 0 -0.69465837861970381 -0.71933979245794832 3 0 0 1 I I 0 1 3 forward I I I I #
face $-1 $166 $167 $54 $-1 $168 reversed single #
loop $-1 $-1 $169 $68 #
plane-surface $-1 49.083322376316239 78.589775127529776 137.91139130314141 1 0 0 0 -0.69465837861970381 -0.71933979245794832 forward_v I I I I #
face $-1 $170 $171 $55 $-1 $172 forward single #
loop $-1 $173 $174 $69 #
cone-surface $-1 56.036065109508314 22.023326573403391 5.3332912742582792 0 -0.69465837861970381 -0.71933979245794832 3 0 0 1 I I 0 1 3 forward I I I I #
face $-1 $175 $176 $42 $-1 $177 reversed single #
loop $-1 $-1 $178 $70 #
plane-surface $-1 0 0 -13.453962471230204 0 0 1 1 0 0 forward_v I I I I #
coedge $-1 $179 $180 $181 $182 forward $71 $-1 #
face $-1 $183 $184 $43 $-1 $185 reversed single #
loop $-1 $-1 $186 $73 #
plane-surface $-1 -53.82702720541694 0 11.539892313689572 -1 0 0 0 0 1 forward_v I I I I #
coedge $-1 $187 $188 $189 $190 forward $74 $-1 #
face $-1 $191 $192 $44 $-1 $193 reversed single #
loop $-1 $-1 $194 $76 #
plane-surface $-1 4.78884651751099 -30.312651756808961 9.9626418680106497 0 -0.73135370988377701 0.68199835119979291 1 0 0 forward_v I I I I #
coedge $-1 $195 $196 $197 $198 reversed $77 $-1 #
face $-1 $-1 $199 $45 $-1 $200 forward single #
loop $-1 $201 $202 $79 #
cone-surface $-1 -1.9786410711090525 -25.609716802922563 8.8407433501061501 0 0.73135370988377701 -0.68199835119979291 0.5 0 0 1 I I -0.70710678118654879 0.70710678118654635 0.5 forward I I I I #
loop $-1 $-1 $203 $59 #
coedge $-1 $128 $128 $204 $205 reversed $80 $-1 #
face $-1 $-1 $206 $46 $-1 $207 forward single #
loop $-1 $208 $209 $82 #
cone-surface $-1 4.78884651751099 -25.609716802922563 8.8407433501061501 0 0.73135370988377701 -0.68199835119979291 0.5 0 0 1 I I -0.70710678118654879 0.70710678118654635 0.5 forward I I I I #
loop $-1 $-1 $210 $60 #
coedge $-1 $133 $133 $211 $212 reversed $83 $-1 #
face $-1 $-1 $213 $47 $-1 $214 forward single #
loop $-1 $215 $216 $85 #
cone-surface $-1 11.556334106131033 -25.609716802922563 8.8407433501061501 0 0.73135370988377701 -0.68199835119979291 0.5 0 0 1 I I -0.70710678118654879 0.70710678118654635 0.5 forward I I I I #
loop $-1 $-1 $217 $61 #
coedge $-1 $138 $138 $218 $219 reversed $86 $-1 #
face $-1 $220 $221 $48 $-1 $222 reversed single #
loop $-1 $-1 $223 $88 #
plane-surface $-1 -43.724599318923168 -13.2975414903771 42.759291652690223 0 0.69465837861970381 0.71933979245794832 1 0 0 forward_v I I I I #
coedge $-1 $224 $225 $226 $227 reversed $89 $-1 #
face $-1 $-1 $228 $49 $-1 $229 forward single #
loop $-1 $230 $231 $91 #
cone-surface $-1 -43.724599318923168 19.323832428637623 2.5378833189180643 0 -0.69465837861970381 -0.71933979245794832 1.5 0 0 1 I I -0.70710678118654768 0.70710678118654757 1.5 forward I I I I #
loop $-1 $-1 $232 $63 #
coedge $-1 $147 $147 $233 $234 reversed $92 $-1 #
face $-1 $235 $236 $50 $-1 $237 reversed single #
loop $-1 $-1 $238 $94 #
plane-surface $-1 -10.47104450944601 -13.2975414903771 42.759291652690223 0 0.69465837861970381 0.71933979245794832 1 0 0 forward_v I I I I #
coedge $-1 $239 $240 $241 $242 reversed $95 $-1 #
face $-1 $-1 $243 $51 $-1 $244 forward single #
loop $-1 $245 $246 $97 #
cone-surface $-1 -10.47104450944601 19.323832428637623 2.5378833189180643 0 -0.69465837861970381 -0.71933979245794832 1.5 0 0 1 I I -0.70710678118654768 0.70710678118654757 1.5 forward I I I I #
loop $-1 $-1 $247 $65 #
coedge $-1 $156 $156 $248 $249 reversed $98 $-1 #
face $-1 $250 $251 $52 $-1 $252 reversed single #
loop $-1 $-1 $253 $100 #
plane-surface $-1 22.782510300031149 -13.2975414903771 42.759291652690223 0 0.69465837861970381 0.71933979245794832 1 0 0 forward_v I I I I #
coedge $-1 $254 $255 $256 $257 reversed $101 $-1 #
face $-1 $-1 $258 $53 $-1 $259 forward single #
loop $-1 $260 $261 $103 #
cone-surface $-1 22.782510300031149 19.323832428637623 2.5378833189180643 0 -0.69465837861970381 -0.71933979245794832 1.5 0 0 1 I I -0.70710678118654768 0.70710678118654757 1.5 forward I I I I #
loop $-1 $-1 $262 $67 #
coedge $-1 $165 $165 $263 $264 reversed $104 $-1 #
face $-1 $265 $266 $54 $-1 $267 reversed single #
loop $-1 $-1 $268 $106 #
plane-surface $-1 56.036065109508314 -13.2975414903771 42.759291652690223 0 0.69465837861970381 0.71933979245794832 1 0 0 forward_v I I I I #
coedge $-1 $269 $270 $271 $272 reversed $107 $-1 #
face $-1 $-1 $273 $55 $-1 $274 forward single #
loop $-1 $275 $276 $109 #
cone-surface $-1 56.036065109508314 19.323832428637623 2.5378833189180643 0 -0.69465837861970381 -0.71933979245794832 1.5 0 0 1 I I -0.70710678118654768 0.70710678118654757 1.5 forward I I I I #
loop $-1 $-1 $277 $69 #
coedge $-1 $174 $174 $278 $279 reversed $110 $-1 #
face $-1 $280 $281 $42 $-1 $282 reversed single #
loop $-1 $-1 $283 $112 #
plane-surface $-1 0 -30.312651756808982 0 0 1 0 0 0 1 forward_v I I I I #
coedge $-1 $284 $285 $286 $287 forward $113 $-1 #
coedge $-1 $288 $115 $289 $290 forward $71 $-1 #
coedge $-1 $115 $288 $291 $292 forward $71 $-1 #
coedge $-1 $293 $294 $115 $182 reversed $295 $-1 #
edge $-1 $296 -30.312651756808982 $297 30.312651756808982 $181 $298 forward 7 unknown #
face $-1 $299 $300 $43 $-1 $301 reversed single #
loop $-1 $-1 $302 $116 #
plane-surface $-1 0 30.312651756808982 0 0 -1 0 0 0 -1 forward_v I I I I #
coedge $-1 $189 $303 $304 $305 reversed $117 $-1 #
coedge $-1 $306 $119 $307 $308 reversed $74 $-1 #
coedge $-1 $119 $306 $309 $310 reversed $74 $-1 #
coedge $-1 $311 $186 $119 $190 reversed $117 $-1 #
edge $-1 $312 -30.312651756808982 $313 30.312651756808982 $189 $314 forward 7 unknown #
face $-1 $315 $316 $44 $-1 $317 reversed single #
loop $-1 $-1 $318 $120 #
plane-surface $-1 -6.4902994635224118 -127.0539161943056 100.17532821623558 1 0 0 0 0.73135370988377701 -0.68199835119979291 forward_v I I I I #
coedge $-1 $319 $320 $321 $322 reversed $121 $-1 #
coedge $-1 $196 $123 $323 $324 reversed $77 $-1 #
coedge $-1 $123 $195 $319 $325 reversed $77 $-1 #
coedge $-1 $321 $326 $123 $198 forward $327 $-1 #
edge $-1 $328 33.214306340343818 $329 36.470015394289831 $197 $330 forward 7 unknown #
loop $-1 $-1 $204 $124 #
plane-surface $-1 4.78884651751099 -30.312651756808961 9.9626418680106497 0 -0.73135370988377701 0.68199835119979291 1 0 0 forward_v I I I I #
loop $-1 $-1 $331 $79 #
coedge $-1 $202 $202 $203 $332 reversed $125 $-1 #
coedge $-1 $203 $203 $202 $332 forward $127 $-1 #
coedge $-1 $204 $204 $128 $205 forward $199 $-1 #
edge $-1 $333 -2.4707241706062079e-016 $333 6.2831853071796004 $204 $334 forward 7 unknown #
loop $-1 $-1 $211 $129 #
plane-surface $-1 4.78884651751099 -30.312651756808961 9.9626418680106497 0 -0.73135370988377701 0.68199835119979291 1 0 0 forward_v I I I I #
loop $-1 $-1 $335 $82 #
coedge $-1 $209 $209 $210 $336 reversed $130 $-1 #
coedge $-1 $210 $210 $209 $336 forward $132 $-1 #
coedge $-1 $211 $211 $133 $212 forward $206 $-1 #
edge $-1 $337 -2.4707241706062079e-016 $337 6.2831853071796004 $211 $338 forward 7 unknown #
loop $-1 $-1 $218 $134 #
plane-surface $-1 4.78884651751099 -30.312651756808961 9.9626418680106497 0 -0.73135370988377701 0.68199835119979291 1 0 0 forward_v I I I I #
loop $-1 $-1 $339 $85 #
coedge $-1 $216 $216 $217 $340 reversed $135 $-1 #
coedge $-1 $217 $217 $216 $340 forward $137 $-1 #
coedge $-1 $218 $218 $138 $219 forward $213 $-1 #
edge $-1 $341 -2.4707241706062079e-016 $341 6.2831853071796004 $218 $342 forward 7 unknown #
face $-1 $343 $344 $48 $-1 $345 forward single #
loop $-1 $-1 $346 $139 #
plane-surface $-1 -36.771856585731094 78.589775127529776 137.91139130314141 -1 0 0 0 0.69465837861970381 0.71933979245794832 forward_v I I I I #
coedge $-1 $347 $348 $349 $350 reversed $140 $-1 #
coedge $-1 $225 $142 $351 $352 reversed $89 $-1 #
coedge $-1 $142 $224 $347 $353 reversed $89 $-1 #
coedge $-1 $349 $354 $142 $227 forward $344 $-1 #
edge $-1 $355 8.9822358069559058 $356 22.245873020094663 $226 $357 forward 7 unknown #
loop $-1 $-1 $233 $143 #
plane-surface $-1 -43.724599318923168 -13.2975414903771 42.759291652690223 0 0.69465837861970381 0.71933979245794832 1 0 0 forward_v I I I I #
loop $-1 $-1 $358 $91 #
coedge $-1 $231 $231 $232 $359 reversed $144 $-1 #
coedge $-1 $232 $232 $231 $359 forward $146 $-1 #
coedge $-1 $233 $233 $147 $234 forward $228 $-1 #
edge $-1 $360 2.6411752468814464e-016 $360 6.2831853071796004 $233 $361 forward 7 unknown #
face $-1 $362 $363 $50 $-1 $364 forward single #
loop $-1 $-1 $365 $148 #
plane-surface $-1 -3.5183017762539333 78.589775127529776 137.91139130314141 -1 0 0 0 0.69465837861970381 0.71933979245794832 forward_v I I I I #
coedge $-1 $366 $367 $368 $369 reversed $149 $-1 #
coedge $-1 $240 $151 $370 $371 reversed $95 $-1 #
coedge $-1 $151 $239 $366 $372 reversed $95 $-1 #
coedge $-1 $368 $373 $151 $242 forward $363 $-1 #
edge $-1 $374 8.9822358069559058 $375 22.245873020094663 $241 $376 forward 7 unknown #
loop $-1 $-1 $248 $152 #
plane-surface $-1 -10.47104450944601 -13.2975414903771 42.759291652690223 0 0.69465837861970381 0.71933979245794832 1 0 0 forward_v I I I I #
loop $-1 $-1 $377 $97 #
coedge $-1 $246 $246 $247 $378 reversed $153 $-1 #
coedge $-1 $247 $247 $246 $378 forward $155 $-1 #
coedge $-1 $248 $248 $156 $249 forward $243 $-1 #
edge $-1 $379 2.6411752468814464e-016 $379 6.2831853071796004 $248 $380 forward 7 unknown #
face $-1 $381 $382 $52 $-1 $383 forward single #
loop $-1 $-1 $384 $157 #
plane-surface $-1 29.735253033223223 78.589775127529776 137.91139130314141 -1 0 0 0 0.69465837861970381 0.71933979245794832 forward_v I I I I #
coedge $-1 $385 $386 $387 $388 reversed $158 $-1 #
coedge $-1 $255 $160 $389 $390 reversed $101 $-1 #
coedge $-1 $160 $254 $385 $391 reversed $101 $-1 #
coedge $-1 $387 $392 $160 $257 forward $382 $-1 #
edge $-1 $393 8.9822358069559058 $394 22.245873020094663 $256 $395 forward 7 unknown #
loop $-1 $-1 $263 $161 #
plane-surface $-1 22.782510300031149 -13.2975414903771 42.759291652690223 0 0.69465837861970381 0.71933979245794832 1 0 0 forward_v I I I I #
loop $-1 $-1 $396 $103 #
coedge $-1 $261 $261 $262 $397 reversed $162 $-1 #
coedge $-1 $262 $262 $261 $397 forward $164 $-1 #
coedge $-1 $263 $263 $165 $264 forward $258 $-1 #
edge $-1 $398 2.6411752468814464e-016 $398 6.2831853071796004 $263 $399 forward 7 unknown #
face $-1 $400 $401 $54 $-1 $402 forward single #
loop $-1 $-1 $403 $166 #
plane-surface $-1 62.988807842700389 78.589775127529776 137.91139130314141 -1 0 0 0 0.69465837861970381 0.71933979245794832 forward_v I I I I #
coedge $-1 $404 $405 $406 $407 reversed $167 $-1 #
coedge $-1 $270 $169 $408 $409 reversed $107 $-1 #
coedge $-1 $169 $269 $404 $410 reversed $107 $-1 #
coedge $-1 $406 $411 $169 $272 forward $401 $-1 #
edge $-1 $412 8.9822358069559058 $413 22.245873020094663 $271 $414 forward 7 unknown #
loop $-1 $-1 $278 $170 #
plane-surface $-1 56.036065109508314 -13.2975414903771 42.759291652690223 0 0.69465837861970381 0.71933979245794832 1 0 0 forward_v I I I I #
loop $-1 $-1 $415 $109 #
coedge $-1 $276 $276 $277 $416 reversed $171 $-1 #
coedge $-1 $277 $277 $276 $416 forward $173 $-1 #
coedge $-1 $278 $278 $174 $279 forward $273 $-1 #
edge $-1 $417 2.6411752468814464e-016 $417 6.2831853071796004 $278 $418 forward 7 unknown #
face $-1 $419 $420 $42 $-1 $421 reversed single #
loop $-1 $-1 $422 $175 #
plane-surface $-1 -66.138492996002071 0 0 1 0 0 0 0 -1 forward_v I I I I #
coedge $-1 $423 $291 $424 $425 forward $176 $-1 #
coedge $-1 $426 $178 $423 $427 forward $113 $-1 #
coedge $-1 $178 $426 $428 $429 forward $113 $-1 #
coedge $-1 $294 $293 $178 $287 reversed $295 $-1 #
edge $-1 $430 -30.312651756808982 $431 30.312651756808982 $286 $432 forward 7 unknown #
coedge $-1 $180 $179 $433 $434 forward $71 $-1 #
coedge $-1 $435 $436 $179 $290 reversed $420 $-1 #
edge $-1 $297 -66.138492996002071 $437 66.138492996002071 $289 $438 forward 7 unknown #
coedge $-1 $283 $439 $180 $292 reversed $176 $-1 #
edge $-1 $440 -66.138492996002071 $296 66.138492996002071 $291 $441 forward 7 unknown #
coedge $-1 $286 $181 $439 $442 forward $295 $-1 #
coedge $-1 $181 $286 $435 $443 reversed $295 $-1 #
loop $-1 $-1 $293 $419 #
vertex $-1 $182 $444 #
vertex $-1 $182 $445 #
straight-curve $-1 66.138492996002071 0 13.453962471230204 0 1 0 I I #
face $-1 $446 $447 $43 $-1 $448 forward single #
loop $-1 $-1 $449 $183 #
plane-surface $-1 -66.138492996002071 0 0 1 0 0 0 0 -1 forward_v I I I I #
coedge $-1 $309 $450 $311 $451 forward $184 $-1 #
coedge $-1 $186 $311 $452 $453 reversed $117 $-1 #
coedge $-1 $454 $307 $186 $305 forward $455 $-1 #
edge $-1 $313 3.855875999304156 $456 7.6840163143854161 $304 $457 forward 7 unknown #
coedge $-1 $188 $187 $449 $458 reversed $74 $-1 #
coedge $-1 $304 $459 $187 $308 forward $455 $-1 #
edge $-1 $460 -36.147112945647322 $313 -23.835647155062187 $307 $461 forward 7 unknown #
coedge $-1 $462 $302 $188 $310 forward $184 $-1 #
edge $-1 $312 23.835647155062187 $463 36.147112945647322 $309 $464 forward 7 unknown #
coedge $-1 $303 $189 $302 $451 reversed $117 $-1 #
vertex $-1 $310 $465 #
vertex $-1 $308 $466 #
straight-curve $-1 -53.82702720541694 0 9.6258221561489421 0 -1 0 I I #
face $-1 $-1 $327 $44 $-1 $467 forward single #
loop $-1 $-1 $468 $191 #
plane-surface $-1 0 -30.312651756808982 0 0 1 0 0 0 1 forward_v I I I I #
coedge $-1 $469 $470 $471 $472 reversed $192 $-1 #
coedge $-1 $473 $194 $196 $325 forward $121 $-1 #
coedge $-1 $194 $473 $469 $474 forward $121 $-1 #
coedge $-1 $471 $197 $194 $322 forward $327 $-1 #
edge $-1 $329 -13.673569239788897 $475 8.8847227222779068 $321 $476 forward 7 unknown #
coedge $-1 $477 $478 $195 $324 forward $316 $-1 #
edge $-1 $479 -40.125022240107164 $328 -36.633701636887587 $323 $480 forward 7 unknown #
edge $-1 $329 -4.7737784823356915 $479 3.1426556366807674e-014 $196 $481 forward 7 unknown #
coedge $-1 $197 $471 $477 $482 forward $327 $-1 #
loop $-1 $-1 $471 $315 #
vertex $-1 $324 $483 #
vertex $-1 $198 $484 #
straight-curve $-1 16.067992498544392 -63.5269580971528 13.453962471230206 0 1 0 I I #
coedge $-1 $331 $331 $-1 $485 reversed $201 $-1 #
edge $-1 $486 0 $486 6.2831853071796004 $202 $487 forward 7 unknown #
vertex $-1 $205 $488 #
ellipse-curve $-1 -1.9786410711090525 -28.684797229835976 11.708302169620417 0 -0.73135370988377701 0.68199835119979291 1 0 0 1 I I #
coedge $-1 $335 $335 $-1 $489 reversed $208 $-1 #
edge $-1 $490 0 $490 6.2831853071796004 $209 $491 forward 7 unknown #
vertex $-1 $212 $492 #
ellipse-curve $-1 4.78884651751099 -28.684797229835976 11.708302169620417 0 -0.73135370988377701 0.68199835119979291 1 0 0 1 I I #
coedge $-1 $339 $339 $-1 $493 reversed $215 $-1 #
edge $-1 $494 0 $494 6.2831853071796004 $216 $495 forward 7 unknown #
vertex $-1 $219 $496 #
ellipse-curve $-1 11.556334106131033 -28.684797229835976 11.708302169620417 0 -0.73135370988377701 0.68199835119979291 1 0 0 1 I I #
face $-1 $-1 $497 $48 $-1 $498 reversed single #
loop $-1 $-1 $226 $220 #
plane-surface $-1 0 0 13.453962471230204 0 0 1 1 0 0 forward_v I I I I #
coedge $-1 $499 $500 $501 $502 reversed $221 $-1 #
coedge $-1 $503 $223 $225 $353 forward $140 $-1 #
coedge $-1 $223 $503 $499 $504 forward $140 $-1 #
coedge $-1 $501 $226 $223 $350 forward $344 $-1 #
edge $-1 $356 -28.815042392653659 $505 -14.909556926269509 $349 $506 forward 7 unknown #
coedge $-1 $507 $508 $224 $352 forward $497 $-1 #
edge $-1 $509 -68.310279040977775 $355 -55.501733180340501 $351 $510 forward 7 unknown #
edge $-1 $356 42.186677773454804 $509 60.625303513617979 $225 $511 forward 7 unknown #
coedge $-1 $226 $501 $507 $512 forward $344 $-1 #
vertex $-1 $352 $513 #
vertex $-1 $227 $514 #
straight-curve $-1 -50.677342052115243 39.294887563764888 13.453962471230206 0 -1 0 I I #
coedge $-1 $358 $358 $-1 $515 reversed $230 $-1 #
edge $-1 $516 0 $516 6.2831853071796004 $231 $517 forward 7 unknown #
vertex $-1 $234 $518 #
ellipse-curve $-1 -43.724599318923168 23.6808331502396 7.049689540911567 0 0.69465837861970381 0.71933979245794832 3 0 0 1 I I #
face $-1 $-1 $519 $50 $-1 $520 reversed single #
loop $-1 $-1 $241 $235 #
plane-surface $-1 0 0 13.453962471230204 0 0 1 1 0 0 forward_v I I I I #
coedge $-1 $521 $522 $523 $524 reversed $236 $-1 #
coedge $-1 $525 $238 $240 $372 forward $149 $-1 #
coedge $-1 $238 $525 $521 $526 forward $149 $-1 #
coedge $-1 $523 $241 $238 $369 forward $363 $-1 #
edge $-1 $375 -12.18826498791508 $527 1.7172204784690717 $368 $528 forward 7 unknown #
coedge $-1 $529 $530 $239 $371 forward $519 $-1 #
edge $-1 $531 -68.310279040977775 $374 -55.501733180340501 $370 $532 forward 7 unknown #
edge $-1 $375 42.186677773454804 $531 60.625303513617979 $240 $533 forward 7 unknown #
coedge $-1 $241 $523 $529 $534 forward $363 $-1 #
vertex $-1 $242 $535 #
vertex $-1 $242 $536 #
straight-curve $-1 -17.423787242638085 39.294887563764888 13.453962471230206 0 -1 0 I I #
coedge $-1 $377 $377 $-1 $537 reversed $245 $-1 #
edge $-1 $538 0 $538 6.2831853071796004 $246 $539 forward 7 unknown #
vertex $-1 $249 $540 #
ellipse-curve $-1 -10.47104450944601 23.6808331502396 7.049689540911567 0 0.69465837861970381 0.71933979245794832 3 0 0 1 I I #
face $-1 $-1 $541 $52 $-1 $542 reversed single #
loop $-1 $-1 $256 $250 #
plane-surface $-1 0 0 13.453962471230204 0 0 1 1 0 0 forward_v I I I I #
coedge $-1 $543 $544 $545 $546 reversed $251 $-1 #
coedge $-1 $547 $253 $255 $391 forward $158 $-1 #
coedge $-1 $253 $547 $543 $548 forward $158 $-1 #
coedge $-1 $545 $256 $253 $388 forward $382 $-1 #
edge $-1 $394 4.4385124168234977 $549 18.343997883207649 $387 $550 forward 7 unknown #
coedge $-1 $551 $552 $254 $390 forward $541 $-1 #
edge $-1 $553 -68.310279040977775 $393 -55.501733180340501 $389 $554 forward 7 unknown #
edge $-1 $394 42.186677773454804 $553 60.625303513617979 $255 $555 forward 7 unknown #
coedge $-1 $256 $545 $551 $556 forward $382 $-1 #
vertex $-1 $257 $557 #
vertex $-1 $257 $558 #
straight-curve $-1 15.829767566839072 39.294887563764888 13.453962471230206 0 -1 0 I I #
coedge $-1 $396 $396 $-1 $559 reversed $260 $-1 #
edge $-1 $560 0 $560 6.2831853071796004 $261 $561 forward 7 unknown #
vertex $-1 $264 $562 #
ellipse-curve $-1 22.782510300031149 23.6808331502396 7.049689540911567 0 0.69465837861970381 0.71933979245794832 3 0 0 1 I I #
face $-1 $-1 $563 $54 $-1 $564 reversed single #
loop $-1 $-1 $271 $265 #
plane-surface $-1 0 0 13.453962471230204 0 0 1 1 0 0 forward_v I I I I #
coedge $-1 $565 $566 $567 $568 reversed $266 $-1 #
coedge $-1 $569 $268 $270 $410 forward $167 $-1 #
coedge $-1 $268 $569 $565 $570 forward $167 $-1 #
coedge $-1 $567 $271 $268 $407 forward $401 $-1 #
edge $-1 $413 21.065289821562082 $571 34.970775287946232 $406 $572 forward 7 unknown #
coedge $-1 $573 $574 $269 $409 forward $563 $-1 #
edge $-1 $575 -68.310279040977775 $412 -55.501733180340501 $408 $576 forward 7 unknown #
edge $-1 $413 42.186677773454804 $575 60.625303513617979 $270 $577 forward 7 unknown #
coedge $-1 $271 $567 $573 $578 forward $401 $-1 #
vertex $-1 $272 $579 #
vertex $-1 $272 $580 #
straight-curve $-1 49.083322376316239 39.294887563764888 13.453962471230206 0 -1 0 I I #
coedge $-1 $415 $415 $-1 $581 reversed $275 $-1 #
edge $-1 $582 0 $582 6.2831853071796004 $276 $583 forward 7 unknown #
vertex $-1 $279 $584 #
ellipse-curve $-1 56.036065109508314 23.6808331502396 7.049689540911567 0 0.69465837861970381 0.71933979245794832 3 0 0 1 I I #
face $-1 $-1 $295 $42 $-1 $585 reversed single #
loop $-1 $-1 $435 $280 #
plane-surface $-1 0 30.312651756808982 0 0 -1 0 0 0 -1 forward_v I I I I #
coedge $-1 $586 $433 $436 $587 forward $281 $-1 #
coedge $-1 $439 $283 $284 $427 reversed $176 $-1 #
coedge $-1 $433 $586 $283 $425 reversed $281 $-1 #
edge $-1 $440 -13.453962471230204 $588 13.453962471230204 $424 $589 forward 7 unknown #
coedge $-1 $285 $284 $586 $590 forward $113 $-1 #
edge $-1 $431 -66.138492996002071 $588 66.138492996002071 $423 $591 forward 7 unknown #
coedge $-1 $436 $435 $285 $429 reversed $420 $-1 #
edge $-1 $592 -66.138492996002071 $430 66.138492996002071 $428 $593 forward 7 unknown #
vertex $-1 $287 $594 #
vertex $-1 $442 $595 #
straight-curve $-1 66.138492996002071 0 -13.453962471230204 0 -1 0 I I #
coedge $-1 $422 $424 $288 $434 reversed $281 $-1 #
edge $-1 $437 -30.312651756808982 $440 30.312651756808982 $433 $596 forward 7 unknown #
coedge $-1 $428 $289 $294 $443 forward $420 $-1 #
coedge $-1 $289 $428 $422 $587 reversed $420 $-1 #
vertex $-1 $290 $597 #
straight-curve $-1 0 30.312651756808982 13.453962471230204 -1 0 0 I I #
coedge $-1 $291 $423 $293 $442 reversed $176 $-1 #
vertex $-1 $434 $598 #
straight-curve $-1 0 -30.312651756808982 13.453962471230204 1 0 0 I I #
edge $-1 $296 -13.453962471230204 $431 13.453962471230204 $293 $599 forward 7 unknown #
edge $-1 $297 -13.453962471230204 $430 13.453962471230204 $294 $600 forward 7 unknown #
point $-1 66.138492996002071 -30.312651756808982 13.453962471230204 #
point $-1 66.138492996002071 30.312651756808982 13.453962471230204 #
face $-1 $-1 $455 $43 $-1 $601 reversed single #
loop $-1 $-1 $452 $299 #
plane-surface $-1 0 0 13.453962471230204 0 0 1 1 0 0 forward_v I I I I #
coedge $-1 $602 $603 $306 $458 forward $300 $-1 #
coedge $-1 $302 $462 $604 $605 reversed $184 $-1 #
edge $-1 $606 -7.6840163143854161 $312 -3.855875999304156 $302 $607 forward 7 unknown #
coedge $-1 $604 $608 $303 $453 forward $447 $-1 #
edge $-1 $456 -30.312651756808982 $606 30.312651756808982 $452 $609 forward 7 unknown #
coedge $-1 $459 $304 $608 $610 reversed $455 $-1 #
loop $-1 $-1 $304 $446 #
vertex $-1 $305 $611 #
straight-curve $-1 -53.82702720541694 -30.312651756808982 5.7699461568447861 0 0 1 I I #
edge $-1 $463 -30.312651756808982 $460 30.312651756808982 $449 $612 forward 7 unknown #
coedge $-1 $307 $454 $602 $613 forward $455 $-1 #
vertex $-1 $458 $614 #
straight-curve $-1 -29.991380050354753 -30.312651756808982 9.6258221561489421 1 0 0 I I #
coedge $-1 $450 $309 $603 $615 reversed $184 $-1 #
vertex $-1 $458 $616 #
straight-curve $-1 -29.991380050354753 30.312651756808982 9.6258221561489421 -1 0 0 I I #
point $-1 -53.82702720541694 30.312651756808982 9.6258221561489421 #
point $-1 -53.82702720541694 -30.312651756808982 9.6258221561489421 #
plane-surface $-1 0 0 13.453962471230204 0 0 1 1 0 0 forward_v I I I I #
coedge $-1 $478 $477 $470 $617 forward $316 $-1 #
coedge $-1 $470 $318 $320 $474 reversed $192 $-1 #
coedge $-1 $318 $469 $468 $617 reversed $192 $-1 #
coedge $-1 $326 $321 $318 $472 forward $327 $-1 #
edge $-1 $475 -36.470015394289831 $618 -33.214306340343818 $471 $619 forward 7 unknown #
coedge $-1 $320 $319 $478 $620 reversed $121 $-1 #
edge $-1 $621 -3.1426556366807674e-014 $475 4.7737784823356915 $469 $622 forward 7 unknown #
vertex $-1 $322 $623 #
straight-curve $-1 2.394423258755495 -27.056942702862969 13.453962471230204 -1 0 0 I I #
coedge $-1 $468 $323 $326 $482 reversed $316 $-1 #
coedge $-1 $323 $468 $473 $620 forward $316 $-1 #
vertex $-1 $324 $624 #
straight-curve $-1 16.067992498544392 -30.312651756808982 50.087664108117792 0 0 1 I I #
straight-curve $-1 16.067992498544392 -30.312651756808961 9.9626418680106497 0 -0.68199835119979291 -0.73135370988377701 I I #
edge $-1 $618 -6.4902994635224118 $328 16.067992498544392 $477 $625 forward 7 unknown #
point $-1 16.067992498544392 -30.312651756808982 13.453962471230204 #
point $-1 16.067992498544392 -27.056942702862969 13.453962471230204 #
edge $-1 $626 1 $626 0 $331 $-1 forward 7 unknown #
vertex $-1 $332 $627 #
ellipse-curve $-1 -1.9786410711090525 -25.975393657864451 9.1817425257060457 0 -0.73135370988377701 0.68199835119979291 1 0 0 1 I I #
point $-1 -0.97864107110905252 -28.684797229835997 11.708302169620437 #
edge $-1 $628 1 $628 0 $335 $-1 forward 7 unknown #
vertex $-1 $336 $629 #
ellipse-curve $-1 4.78884651751099 -25.975393657864451 9.1817425257060457 0 -0.73135370988377701 0.68199835119979291 1 0 0 1 I I #
point $-1 5.78884651751099 -28.684797229835997 11.708302169620437 #
edge $-1 $630 1 $630 0 $339 $-1 forward 7 unknown #
vertex $-1 $340 $631 #
ellipse-curve $-1 11.556334106131033 -25.975393657864451 9.1817425257060457 0 -0.73135370988377701 0.68199835119979291 1 0 0 1 I I #
point $-1 12.556334106131033 -28.684797229835997 11.708302169620437 #
loop $-1 $-1 $351 $343 #
plane-surface $-1 0 30.312651756808982 0 0 -1 0 0 0 -1 forward_v I I I I #
coedge $-1 $500 $346 $348 $504 reversed $221 $-1 #
coedge $-1 $346 $499 $632 $633 reversed $221 $-1 #
coedge $-1 $354 $349 $346 $502 forward $344 $-1 #
edge $-1 $505 -22.245873020094663 $634 -8.9822358069559058 $501 $635 forward 7 unknown #
coedge $-1 $348 $347 $508 $636 reversed $140 $-1 #
edge $-1 $637 -60.625303513617979 $505 -42.186677773454804 $499 $638 forward 7 unknown #
vertex $-1 $350 $639 #
straight-curve $-1 -21.862299659461584 17.049014543670218 13.453962471230206 1 0 0 I I #
coedge $-1 $632 $351 $354 $512 reversed $497 $-1 #
coedge $-1 $351 $632 $503 $636 forward $497 $-1 #
vertex $-1 $352 $640 #
straight-curve $-1 -50.677342052115243 30.312651756808982 68.955695651570707 0 0 1 I I #
straight-curve $-1 -50.677342052115243 -13.2975414903771 42.759291652690223 0 0.71933979245794832 -0.69465837861970381 I I #
edge $-1 $634 36.771856585731094 $355 50.677342052115243 $507 $641 forward 7 unknown #
point $-1 -50.677342052115243 30.312651756808982 13.453962471230204 #
point $-1 -50.677342052115243 17.049014543670225 13.453962471230209 #
edge $-1 $642 1 $642 0 $358 $-1 forward 7 unknown #
vertex $-1 $359 $643 #
ellipse-curve $-1 -43.724599318923168 20.365819996567179 3.6168930076049866 0 0.69465837861970381 0.71933979245794832 3 0 0 1 I I #
point $-1 -40.724599318923168 23.680833150239607 7.0496895409115732 #
loop $-1 $-1 $370 $362 #
plane-surface $-1 0 30.312651756808982 0 0 -1 0 0 0 -1 forward_v I I I I #
coedge $-1 $522 $365 $367 $526 reversed $236 $-1 #
coedge $-1 $365 $521 $644 $645 reversed $236 $-1 #
coedge $-1 $373 $368 $365 $524 forward $363 $-1 #
edge $-1 $527 -22.245873020094663 $646 -8.9822358069559058 $523 $647 forward 7 unknown #
coedge $-1 $367 $366 $530 $648 reversed $149 $-1 #
edge $-1 $649 -60.625303513617979 $527 -42.186677773454804 $521 $650 forward 7 unknown #
vertex $-1 $369 $651 #
straight-curve $-1 -5.2355222547230049 17.049014543670218 13.453962471230206 1 0 0 I I #
coedge $-1 $644 $370 $373 $534 reversed $519 $-1 #
coedge $-1 $370 $644 $525 $648 forward $519 $-1 #
vertex $-1 $371 $652 #
straight-curve $-1 -17.423787242638085 30.312651756808982 68.955695651570707 0 0 1 I I #
straight-curve $-1 -17.423787242638085 -13.2975414903771 42.759291652690223 0 0.71933979245794832 -0.69465837861970381 I I #
edge $-1 $646 3.5183017762539333 $374 17.423787242638085 $529 $653 forward 7 unknown #
point $-1 -17.423787242638085 30.312651756808982 13.453962471230204 #
point $-1 -17.423787242638085 17.049014543670225 13.453962471230209 #
edge $-1 $654 1 $654 0 $377 $-1 forward 7 unknown #
vertex $-1 $378 $655 #
ellipse-curve $-1 -10.47104450944601 20.365819996567179 3.6168930076049866 0 0.69465837861970381 0.71933979245794832 3 0 0 1 I I #
point $-1 -7.4710445094460098 23.680833150239607 7.0496895409115732 #
loop $-1 $-1 $389 $381 #
plane-surface $-1 0 30.312651756808982 0 0 -1 0 0 0 -1 forward_v I I I I #
coedge $-1 $544 $384 $386 $548 reversed $251 $-1 #
coedge $-1 $384 $543 $656 $657 reversed $251 $-1 #
coedge $-1 $392 $387 $384 $546 forward $382 $-1 #
edge $-1 $549 -22.245873020094663 $658 -8.9822358069559058 $545 $659 forward 7 unknown #
coedge $-1 $386 $385 $552 $660 reversed $158 $-1 #
edge $-1 $661 -60.625303513617979 $549 -42.186677773454804 $543 $662 forward 7 unknown #
vertex $-1 $388 $663 #
straight-curve $-1 11.391255150015574 17.049014543670218 13.453962471230206 1 0 0 I I #
coedge $-1 $656 $389 $392 $556 reversed $541 $-1 #
coedge $-1 $389 $656 $547 $660 forward $541 $-1 #
vertex $-1 $390 $664 #
straight-curve $-1 15.829767566839072 30.312651756808982 68.955695651570707 0 0 1 I I #
straight-curve $-1 15.829767566839072 -13.2975414903771 42.759291652690223 0 0.71933979245794832 -0.69465837861970381 I I #
edge $-1 $658 -29.735253033223223 $393 -15.829767566839072 $551 $665 forward 7 unknown #
point $-1 15.829767566839072 30.312651756808982 13.453962471230204 #
point $-1 15.829767566839072 17.049014543670225 13.453962471230209 #
edge $-1 $666 1 $666 0 $396 $-1 forward 7 unknown #
vertex $-1 $397 $667 #
ellipse-curve $-1 22.782510300031149 20.365819996567179 3.6168930076049866 0 0.69465837861970381 0.71933979245794832 3 0 0 1 I I #
point $-1 25.782510300031149 23.680833150239607 7.0496895409115732 #
loop $-1 $-1 $408 $400 #
plane-surface $-1 0 30.312651756808982 0 0 -1 0 0 0 -1 forward_v I I I I #
coedge $-1 $566 $403 $405 $570 reversed $266 $-1 #
coedge $-1 $403 $565 $668 $669 reversed $266 $-1 #
coedge $-1 $411 $406 $403 $568 forward $401 $-1 #
edge $-1 $571 -22.245873020094663 $670 -8.9822358069559058 $567 $671 forward 7 unknown #
coedge $-1 $405 $404 $574 $672 reversed $167 $-1 #
edge $-1 $673 -60.625303513617979 $571 -42.186677773454804 $565 $674 forward 7 unknown #
vertex $-1 $407 $675 #
straight-curve $-1 28.018032554754157 17.049014543670218 13.453962471230206 1 0 0 I I #
coedge $-1 $668 $408 $411 $578 reversed $563 $-1 #
coedge $-1 $408 $668 $569 $672 forward $563 $-1 #
vertex $-1 $409 $676 #
straight-curve $-1 49.083322376316239 30.312651756808982 68.955695651570707 0 0 1 I I #
straight-curve $-1 49.083322376316239 -13.2975414903771 42.759291652690223 0 0.71933979245794832 -0.69465837861970381 I I #
edge $-1 $670 -62.988807842700389 $412 -49.083322376316239 $573 $677 forward 7 unknown #
point $-1 49.083322376316239 30.312651756808982 13.453962471230204 #
point $-1 49.083322376316239 17.049014543670225 13.453962471230209 #
edge $-1 $678 1 $678 0 $415 $-1 forward 7 unknown #
vertex $-1 $416 $679 #
ellipse-curve $-1 56.036065109508314 20.365819996567179 3.6168930076049866 0 0.69465837861970381 0.71933979245794832 3 0 0 1 I I #
point $-1 59.036065109508314 23.680833150239607 7.0496895409115732 #
plane-surface $-1 66.138492996002071 0 0 -1 0 0 0 0 1 forward_v I I I I #
coedge $-1 $424 $422 $426 $590 reversed $281 $-1 #
edge $-1 $437 -13.453962471230204 $592 13.453962471230204 $436 $680 forward 7 unknown #
vertex $-1 $590 $681 #
straight-curve $-1 -66.138492996002071 -30.312651756808982 0 0 0 -1 I I #
edge $-1 $588 -30.312651756808982 $592 30.312651756808982 $586 $682 forward 7 unknown #
straight-curve $-1 0 -30.312651756808982 -13.453962471230204 -1 0 0 I I #
vertex $-1 $429 $683 #
straight-curve $-1 0 30.312651756808982 -13.453962471230204 1 0 0 I I #
point $-1 66.138492996002071 30.312651756808982 -13.453962471230204 #
point $-1 66.138492996002071 -30.312651756808982 -13.453962471230204 #
straight-curve $-1 -66.138492996002071 0 13.453962471230204 0 -1 0 I I #
point $-1 -66.138492996002071 30.312651756808982 13.453962471230204 #
point $-1 -66.138492996002071 -30.312651756808982 13.453962471230204 #
straight-curve $-1 66.138492996002071 -30.312651756808982 0 0 0 -1 I I #
straight-curve $-1 66.138492996002071 30.312651756808982 0 0 0 -1 I I #
plane-surface $-1 0 -30.312651756808982 0 0 1 0 0 0 1 forward_v I I I I #
coedge $-1 $684 $449 $459 $613 reversed $300 $-1 #
coedge $-1 $449 $684 $462 $615 forward $300 $-1 #
coedge $-1 $685 $452 $450 $605 forward $447 $-1 #
edge $-1 $606 53.82702720541694 $686 66.138492996002071 $450 $687 forward 7 unknown #
vertex $-1 $605 $688 #
straight-curve $-1 -53.82702720541694 30.312651756808982 5.7699461568447861 0 0 -1 I I #
coedge $-1 $452 $685 $454 $610 forward $447 $-1 #
straight-curve $-1 -53.82702720541694 0 13.453962471230204 0 1 0 I I #
edge $-1 $689 -66.138492996002071 $456 -53.82702720541694 $454 $690 forward 7 unknown #
point $-1 -53.82702720541694 -30.312651756808982 13.453962471230202 #
straight-curve $-1 -66.138492996002071 0 9.6258221561489421 0 -1 0 I I #
edge $-1 $689 -13.453962471230204 $460 -9.6258221561489421 $602 $691 forward 7 unknown #
point $-1 -66.138492996002071 -30.312651756808982 9.6258221561489421 #
edge $-1 $686 -13.453962471230204 $463 -9.6258221561489421 $462 $692 forward 7 unknown #
point $-1 -66.138492996002071 30.312651756808982 9.6258221561489421 #
edge $-1 $618 36.633701636887587 $621 40.125022240107164 $468 $693 forward 7 unknown #
vertex $-1 $482 $694 #
straight-curve $-1 -6.4902994635224118 -63.5269580971528 13.453962471230206 0 -1 0 I I #
edge $-1 $621 -8.8847227222779068 $479 13.673569239788897 $478 $695 forward 7 unknown #
vertex $-1 $620 $696 #
straight-curve $-1 -6.4902994635224118 -30.312651756808961 9.9626418680106497 0 0.68199835119979291 0.73135370988377701 I I #
point $-1 -6.4902994635224118 -27.056942702862969 13.453962471230204 #
point $-1 16.067992498544392 -30.312651756808982 9.9626418680106266 #
straight-curve $-1 0 -30.312651756808982 13.453962471230204 1 0 0 I I #
vertex $-1 $485 $697 #
point $-1 -0.97864107110905252 -25.975393657864451 9.1817425257060457 #
vertex $-1 $489 $698 #
point $-1 5.78884651751099 -25.975393657864451 9.1817425257060457 #
vertex $-1 $493 $699 #
point $-1 12.556334106131033 -25.975393657864451 9.1817425257060457 #
coedge $-1 $508 $507 $500 $633 forward $497 $-1 #
edge $-1 $634 55.501733180340501 $637 68.310279040977775 $632 $700 forward 7 unknown #
vertex $-1 $512 $701 #
straight-curve $-1 -36.771856585731094 39.294887563764888 13.453962471230206 0 1 0 I I #
edge $-1 $637 14.909556926269509 $509 28.815042392653659 $508 $702 forward 7 unknown #
vertex $-1 $636 $703 #
straight-curve $-1 -36.771856585731094 -13.2975414903771 42.759291652690223 0 -0.71933979245794832 0.69465837861970381 I I #
point $-1 -36.771856585731094 17.049014543670225 13.453962471230209 #
point $-1 -50.677342052115243 30.312651756808982 0.64541661059292466 #
straight-curve $-1 0 30.312651756808982 13.453962471230204 -1 0 0 I I #
vertex $-1 $515 $704 #
point $-1 -40.724599318923168 20.365819996567179 3.6168930076049866 #
coedge $-1 $530 $529 $522 $645 forward $519 $-1 #
edge $-1 $646 55.501733180340501 $649 68.310279040977775 $644 $705 forward 7 unknown #
vertex $-1 $534 $706 #
straight-curve $-1 -3.5183017762539333 39.294887563764888 13.453962471230206 0 1 0 I I #
edge $-1 $649 -1.7172204784690717 $531 12.18826498791508 $530 $707 forward 7 unknown #
vertex $-1 $648 $708 #
straight-curve $-1 -3.5183017762539333 -13.2975414903771 42.759291652690223 0 -0.71933979245794832 0.69465837861970381 I I #
point $-1 -3.5183017762539333 17.049014543670225 13.453962471230209 #
point $-1 -17.423787242638085 30.312651756808982 0.64541661059292466 #
straight-curve $-1 0 30.312651756808982 13.453962471230204 -1 0 0 I I #
vertex $-1 $537 $709 #
point $-1 -7.4710445094460098 20.365819996567179 3.6168930076049866 #
coedge $-1 $552 $551 $544 $657 forward $541 $-1 #
edge $-1 $658 55.501733180340501 $661 68.310279040977775 $656 $710 forward 7 unknown #
vertex $-1 $556 $711 #
straight-curve $-1 29.735253033223223 39.294887563764888 13.453962471230206 0 1 0 I I #
edge $-1 $661 -18.343997883207649 $553 -4.4385124168234977 $552 $712 forward 7 unknown #
vertex $-1 $660 $713 #
straight-curve $-1 29.735253033223223 -13.2975414903771 42.759291652690223 0 -0.71933979245794832 0.69465837861970381 I I #
point $-1 29.735253033223223 17.049014543670225 13.453962471230209 #
point $-1 15.829767566839072 30.312651756808982 0.64541661059292466 #
straight-curve $-1 0 30.312651756808982 13.453962471230204 -1 0 0 I I #
vertex $-1 $559 $714 #
point $-1 25.782510300031149 20.365819996567179 3.6168930076049866 #
coedge $-1 $574 $573 $566 $669 forward $563 $-1 #
edge $-1 $670 55.501733180340501 $673 68.310279040977775 $668 $715 forward 7 unknown #
vertex $-1 $578 $716 #
straight-curve $-1 62.988807842700389 39.294887563764888 13.453962471230206 0 1 0 I I #
edge $-1 $673 -34.970775287946232 $575 -21.065289821562082 $574 $717 forward 7 unknown #
vertex $-1 $672 $718 #
straight-curve $-1 62.988807842700389 -13.2975414903771 42.759291652690223 0 -0.71933979245794832 0.69465837861970381 I I #
point $-1 62.988807842700389 17.049014543670225 13.453962471230209 #
point $-1 49.083322376316239 30.312651756808982 0.64541661059292466 #
straight-curve $-1 0 30.312651756808982 13.453962471230204 -1 0 0 I I #
vertex $-1 $581 $719 #
point $-1 59.036065109508314 20.365819996567179 3.6168930076049866 #
straight-curve $-1 -66.138492996002071 30.312651756808982 0 0 0 -1 I I #
point $-1 -66.138492996002071 -30.312651756808982 -13.453962471230204 #
straight-curve $-1 -66.138492996002071 0 -13.453962471230204 0 1 0 I I #
point $-1 -66.138492996002071 30.312651756808982 -13.453962471230204 #
coedge $-1 $603 $602 $685 $720 reversed $300 $-1 #
coedge $-1 $608 $604 $684 $720 forward $447 $-1 #
vertex $-1 $605 $721 #
straight-curve $-1 0 30.312651756808982 13.453962471230204 -1 0 0 I I #
point $-1 -53.82702720541694 30.312651756808982 13.453962471230202 #
vertex $-1 $720 $722 #
straight-curve $-1 0 -30.312651756808982 13.453962471230204 1 0 0 I I #
straight-curve $-1 -66.138492996002071 -30.312651756808982 0 0 0 -1 I I #
straight-curve $-1 -66.138492996002071 30.312651756808982 0 0 0 -1 I I #
straight-curve $-1 -6.4902994635224118 -30.312651756808982 50.087664108117792 0 0 -1 I I #
point $-1 -6.4902994635224118 -30.312651756808982 13.453962471230204 #
straight-curve $-1 2.394423258755495 -30.312651756808982 9.9626418680106248 1 0 0 I I #
point $-1 -6.4902994635224118 -30.312651756808982 9.9626418680106266 #
point $-1 -1.9786410711090525 -25.244039947980674 8.4997441745062545 #
point $-1 4.78884651751099 -25.244039947980674 8.4997441745062545 #
point $-1 11.556334106131033 -25.244039947980674 8.4997441745062545 #
straight-curve $-1 -36.771856585731094 30.312651756808982 68.955695651570707 0 0 -1 I I #
point $-1 -36.771856585731094 30.312651756808982 13.453962471230204 #
straight-curve $-1 -21.862299659461584 30.312651756808982 0.64541661059292821 -1 0 0 I I #
point $-1 -36.771856585731094 30.312651756808982 0.64541661059292466 #
point $-1 -43.724599318923168 18.281844860708066 1.458873630231142 #
straight-curve $-1 -3.5183017762539333 30.312651756808982 68.955695651570707 0 0 -1 I I #
point $-1 -3.5183017762539333 30.312651756808982 13.453962471230204 #
straight-curve $-1 -5.2355222547230049 30.312651756808982 0.64541661059292821 -1 0 0 I I #
point $-1 -3.5183017762539333 30.312651756808982 0.64541661059292466 #
point $-1 -10.47104450944601 18.281844860708066 1.458873630231142 #
straight-curve $-1 29.735253033223223 30.312651756808982 68.955695651570707 0 0 -1 I I #
point $-1 29.735253033223223 30.312651756808982 13.453962471230204 #
straight-curve $-1 11.391255150015574 30.312651756808982 0.64541661059292821 -1 0 0 I I #
point $-1 29.735253033223223 30.312651756808982 0.64541661059292466 #
point $-1 22.782510300031149 18.281844860708066 1.458873630231142 #
straight-curve $-1 62.988807842700389 30.312651756808982 68.955695651570707 0 0 -1 I I #
point $-1 62.988807842700389 30.312651756808982 13.453962471230204 #
straight-curve $-1 28.018032554754157 30.312651756808982 0.64541661059292821 -1 0 0 I I #
point $-1 62.988807842700389 30.312651756808982 0.64541661059292466 #
point $-1 56.036065109508314 18.281844860708066 1.458873630231142 #
edge $-1 $686 -30.312651756808982 $689 30.312651756808982 $684 $723 forward 7 unknown #
point $-1 -66.138492996002071 30.312651756808982 13.453962471230204 #
point $-1 -66.138492996002071 -30.312651756808982 13.453962471230204 #
straight-curve $-1 -66.138492996002071 0 13.453962471230204 0 -1 0 I I #
End-of-ACIS-data 