500 0 11 0           
7 Unknown 11 ACIS 5.0 NT 24 Thu Mar 25 19:02:04 1999 
-1 9.9999999999999995e-007 1e-010 
body $-1 $11 $-1 $12 #
body $-1 $13 $-1 $14 #
body $-1 $15 $-1 $16 #
body $-1 $17 $-1 $18 #
body $-1 $19 $-1 $20 #
body $-1 $21 $-1 $22 #
body $-1 $23 $-1 $24 #
body $-1 $25 $-1 $26 #
body $-1 $27 $-1 $28 #
body $-1 $29 $-1 $30 #
body $-1 $31 $-1 $32 #
lump $-1 $-1 $33 $0 #
transform $-1 1 0 0 0 1 0 0 0 1 40.52980132450331 16.757768527008984 5.3388889121373602 1 rotate no_reflect no_shear #
lump $-1 $-1 $34 $1 #
transform $-1 1 0 0 0 1 0 0 0 1 40.52980132450331 16.757768527008984 5.3388889121373602 1 rotate no_reflect no_shear #
lump $-1 $-1 $35 $2 #
transform $-1 1 0 0 0 1 0 0 0 1 40.52980132450331 16.757768527008984 5.3388889121373602 1 rotate no_reflect no_shear #
lump $-1 $-1 $36 $3 #
transform $-1 1 0 0 0 1 0 0 0 1 40.52980132450331 16.757768527008984 5.3388889121373602 1 rotate no_reflect no_shear #
lump $-1 $-1 $37 $4 #
transform $-1 1 0 0 0 1 0 0 0 1 40.52980132450331 16.757768527008984 5.3388889121373602 1 rotate no_reflect no_shear #
lump $-1 $-1 $38 $5 #
transform $-1 1 0 0 0 1 0 0 0 1 40.52980132450331 16.757768527008984 5.3388889121373602 1 rotate no_reflect no_shear #
lump $-1 $-1 $39 $6 #
transform $-1 1 0 0 0 1 0 0 0 1 40.52980132450331 16.757768527008984 5.3388889121373602 1 rotate no_reflect no_shear #
lump $-1 $-1 $40 $7 #
transform $-1 1 0 0 0 1 0 0 0 1 40.52980132450331 16.757768527008984 5.3388889121373602 1 rotate no_reflect no_shear #
lump $-1 $-1 $41 $8 #
transform $-1 1 0 0 0 1 0 0 0 1 40.52980132450331 16.757768527008984 5.3388889121373602 1 rotate no_reflect no_shear #
lump $-1 $-1 $42 $9 #
transform $-1 1 0 0 0 1 0 0 0 1 40.52980132450331 16.757768527008984 5.3388889121373602 1 rotate no_reflect no_shear #
lump $-1 $-1 $43 $10 #
transform $-1 1 0 0 0 1 0 0 0 1 40.52980132450331 16.757768527008984 5.3388889121373602 1 rotate no_reflect no_shear #
shell $-1 $-1 $-1 $44 $-1 $11 #
shell $-1 $-1 $-1 $45 $-1 $13 #
shell $-1 $-1 $-1 $46 $-1 $15 #
shell $-1 $-1 $-1 $47 $-1 $17 #
shell $-1 $-1 $-1 $48 $-1 $19 #
shell $-1 $-1 $-1 $49 $-1 $21 #
shell $-1 $-1 $-1 $50 $-1 $23 #
shell $-1 $-1 $-1 $51 $-1 $25 #
shell $-1 $-1 $-1 $52 $-1 $27 #
shell $-1 $-1 $-1 $53 $-1 $29 #
shell $-1 $-1 $-1 $54 $-1 $31 #
face $-1 $55 $56 $33 $-1 $57 forward single #
face $-1 $58 $59 $34 $-1 $60 forward single #
face $-1 $61 $62 $35 $-1 $63 reversed single #
face $-1 $64 $65 $36 $-1 $66 forward single #
face $-1 $67 $68 $37 $-1 $69 reversed single #
face $-1 $70 $71 $38 $-1 $72 forward single #
face $-1 $73 $74 $39 $-1 $75 reversed single #
face $-1 $76 $77 $40 $-1 $78 forward single #
face $-1 $79 $80 $41 $-1 $81 reversed single #
face $-1 $82 $83 $42 $-1 $84 forward single #
face $-1 $85 $86 $43 $-1 $87 forward single #
face $-1 $88 $89 $33 $-1 $90 reversed single #
loop $-1 $-1 $91 $44 #
plane-surface $-1 0 0 5.3388889121373602 0 0 1 1 0 0 forward_v I I I I #
face $-1 $92 $93 $34 $-1 $94 reversed single #
loop $-1 $-1 $95 $45 #
plane-surface $-1 0 -13.767700712033358 2.0552078174571662 0 0 1 1 0 0 forward_v I I I I #
face $-1 $96 $97 $35 $-1 $98 reversed single #
loop $-1 $-1 $99 $46 #
plane-surface $-1 -84.678025668389807 -9.1984625843247176 68.676752831390544 0 1 0 -0.54463904215088732 0 0.83867056331134215 forward_v I I I I #
face $-1 $100 $101 $36 $-1 $102 forward single #
loop $-1 $103 $104 $47 #
cone-surface $-1 -36.309113166636848 -6.3898493782473302 2.023789273144355 0.54463904215088732 0 -0.83867056331134215 0.83867056331134215 0 0.54463904215088732 1 I I 0 1 1 forward I I I I #
face $-1 $105 $106 $37 $-1 $107 reversed single #
loop $-1 $-1 $108 $48 #
plane-surface $-1 -84.678025668389807 0.18145460889823717 68.676752831390544 0 1 0 -0.54463904215088732 0 0.83867056331134215 forward_v I I I I #
face $-1 $109 $110 $38 $-1 $111 forward single #
loop $-1 $112 $113 $49 #
cone-surface $-1 -36.309113166636848 2.9900678149756246 2.023789273144355 0.54463904215088732 0 -0.83867056331134215 0.83867056331134215 0 0.54463904215088732 1 I I 0 1 1 forward I I I I #
face $-1 $114 $115 $39 $-1 $116 reversed single #
loop $-1 $-1 $117 $50 #
plane-surface $-1 -84.678025668389807 9.5613718021211955 68.676752831390544 0 1 0 -0.54463904215088732 0 0.83867056331134215 forward_v I I I I #
face $-1 $118 $119 $40 $-1 $120 forward single #
loop $-1 $121 $122 $51 #
cone-surface $-1 -36.309113166636848 12.369985008198583 2.023789273144355 0.54463904215088732 0 -0.83867056331134215 0.83867056331134215 0 0.54463904215088732 1 I I 0 1 1 forward I I I I #
face $-1 $123 $124 $41 $-1 $125 reversed single #
loop $-1 $-1 $126 $52 #
plane-surface $-1 42.530469582772653 -3.3444187256331714 116.04314825759485 0 -1 0 -0.71933980857756763 0 -0.69465836192734942 forward_v I I I I #
face $-1 $127 $128 $42 $-1 $129 forward single #
loop $-1 $130 $131 $53 #
cone-surface $-1 38.009729713773325 -8.6538574195078581 2.7732981468377615 -0.71933980857756763 0 -0.69465836192734942 0.34732918096367471 0 -0.35966990428878381 1 I I 0 1 0.5 forward I I I I #
face $-1 $132 $133 $43 $-1 $134 forward single #
loop $-1 $135 $136 $54 #
cone-surface $-1 38.009729713773325 -5.4681942031830459 2.7732981468377615 -0.71933980857756763 0 -0.69465836192734942 0.34732918096367471 0 -0.35966990428878381 1 I I 0 1 0.5 forward I I I I #
face $-1 $137 $138 $33 $-1 $139 reversed single #
loop $-1 $-1 $140 $55 #
plane-surface $-1 0 0 -5.3388889121373602 0 0 1 1 0 0 forward_v I I I I #
coedge $-1 $141 $142 $143 $144 forward $56 $-1 #
face $-1 $145 $146 $34 $-1 $147 reversed single #
loop $-1 $-1 $148 $58 #
plane-surface $-1 0 -13.767700712033358 -0.94479218254283381 0 0 1 1 0 0 forward_v I I I I #
coedge $-1 $149 $150 $151 $152 reversed $59 $-1 #
face $-1 $153 $154 $35 $-1 $155 reversed single #
loop $-1 $-1 $156 $61 #
plane-surface $-1 -40.52980132450331 -6.3898493782473302 0.69445021595460332 -0.54463904215088732 0 0.83867056331134215 0.83867056331134215 0 0.54463904215088732 forward_v I I I I #
coedge $-1 $157 $158 $159 $160 reversed $62 $-1 #
face $-1 $-1 $161 $36 $-1 $162 forward single #
loop $-1 $163 $164 $64 #
cone-surface $-1 -35.392009633503015 -6.3898493782473302 0.61157370058705762 0.54463904215088732 0 -0.83867056331134215 0.41933528165567108 0 0.27231952107544366 1 I I -0.70710678118654746 0.70710678118654746 0.5 forward I I I I #
loop $-1 $-1 $165 $47 #
coedge $-1 $104 $104 $166 $167 reversed $65 $-1 #
face $-1 $168 $169 $37 $-1 $170 reversed single #
loop $-1 $-1 $171 $67 #
plane-surface $-1 -40.52980132450331 2.9900678149756246 0.69445021595460332 -0.54463904215088732 0 0.83867056331134215 0.83867056331134215 0 0.54463904215088732 forward_v I I I I #
coedge $-1 $172 $173 $174 $175 reversed $68 $-1 #
face $-1 $-1 $176 $38 $-1 $177 forward single #
loop $-1 $178 $179 $70 #
cone-surface $-1 -35.392009633503015 2.9900678149756246 0.61157370058705762 0.54463904215088732 0 -0.83867056331134215 0.41933528165567108 0 0.27231952107544366 1 I I -0.70710678118654746 0.70710678118654746 0.5 forward I I I I #
loop $-1 $-1 $180 $49 #
coedge $-1 $113 $113 $181 $182 reversed $71 $-1 #
face $-1 $183 $184 $39 $-1 $185 reversed single #
loop $-1 $-1 $186 $73 #
plane-surface $-1 -40.52980132450331 12.369985008198583 0.69445021595460332 -0.54463904215088732 0 0.83867056331134215 0.83867056331134215 0 0.54463904215088732 forward_v I I I I #
coedge $-1 $187 $188 $189 $190 reversed $74 $-1 #
face $-1 $-1 $191 $40 $-1 $192 forward single #
loop $-1 $193 $194 $76 #
cone-surface $-1 -35.392009633503015 12.369985008198583 0.61157370058705762 0.54463904215088732 0 -0.83867056331134215 0.41933528165567108 0 0.27231952107544366 1 I I -0.70710678118654746 0.70710678118654746 0.5 forward I I I I #
loop $-1 $-1 $195 $51 #
coedge $-1 $122 $122 $196 $197 reversed $77 $-1 #
face $-1 $198 $199 $41 $-1 $200 reversed single #
loop $-1 $-1 $201 $79 #
plane-surface $-1 -15.778929470137463 -7.061025811345452 59.734417462954077 0.71933980857756763 0 0.69465836192734942 0.69465836192734942 0 -0.71933980857756763 forward_v I I I I #
coedge $-1 $202 $203 $204 $205 reversed $80 $-1 #
face $-1 $-1 $206 $42 $-1 $207 forward single #
loop $-1 $208 $209 $82 #
cone-surface $-1 37.199613511004401 -8.6538574195078581 1.990978042103027 -0.71933980857756763 0 -0.69465836192734942 0.17366459048183736 0 -0.17983495214439191 1 I I -0.70710678118654746 0.70710678118654746 0.25 forward I I I I #
loop $-1 $-1 $210 $53 #
coedge $-1 $131 $131 $211 $212 reversed $83 $-1 #
face $-1 $-1 $213 $43 $-1 $214 forward single #
loop $-1 $215 $216 $85 #
cone-surface $-1 37.199613511004401 -5.4681942031830459 1.990978042103027 -0.71933980857756763 0 -0.69465836192734942 0.17366459048183736 0 -0.17983495214439191 1 I I -0.70710678118654746 0.70710678118654746 0.25 forward I I I I #
loop $-1 $-1 $217 $54 #
coedge $-1 $136 $136 $218 $219 reversed $86 $-1 #
face $-1 $220 $221 $33 $-1 $222 reversed single #
loop $-1 $-1 $223 $88 #
plane-surface $-1 0 -16.757768527008984 0 0 1 0 0 0 1 forward_v I I I I #
coedge $-1 $224 $225 $226 $227 forward $89 $-1 #
coedge $-1 $228 $91 $229 $230 forward $56 $-1 #
coedge $-1 $91 $228 $231 $232 forward $56 $-1 #
coedge $-1 $233 $234 $91 $144 reversed $235 $-1 #
edge $-1 $236 -16.757768527008984 $237 16.757768527008984 $143 $238 forward 7 unknown #
face $-1 $239 $240 $34 $-1 $241 reversed single #
loop $-1 $-1 $242 $92 #
plane-surface $-1 0 -10.777632897057732 0.55520781745716619 0 -1 0 0 0 -1 forward_v I I I I #
coedge $-1 $243 $244 $245 $246 reversed $93 $-1 #
coedge $-1 $247 $95 $248 $249 forward $59 $-1 #
coedge $-1 $95 $247 $250 $251 reversed $59 $-1 #
coedge $-1 $252 $253 $95 $152 forward $254 $-1 #
edge $-1 $255 3.8937825410410527 $256 9.8739181709923045 $151 $257 forward 7 unknown #
face $-1 $258 $259 $35 $-1 $260 reversed single #
loop $-1 $-1 $261 $96 #
plane-surface $-1 -84.678025668389807 -3.5812361721699428 68.676752831390544 0 -1 0 0.54463904215088732 0 -0.83867056331134215 forward_v I I I I #
coedge $-1 $262 $263 $264 $265 reversed $97 $-1 #
coedge $-1 $158 $99 $266 $267 reversed $62 $-1 #
coedge $-1 $99 $157 $262 $268 reversed $62 $-1 #
coedge $-1 $264 $269 $99 $160 forward $270 $-1 #
edge $-1 $271 1.8092115096915933 $272 8.9610198013077351 $159 $273 forward 7 unknown #
loop $-1 $-1 $166 $100 #
plane-surface $-1 -40.52980132450331 -6.3898493782473302 0.69445021595460332 -0.54463904215088732 0 0.83867056331134215 0.83867056331134215 0 0.54463904215088732 forward_v I I I I #
loop $-1 $-1 $274 $64 #
coedge $-1 $164 $164 $165 $275 reversed $101 $-1 #
coedge $-1 $165 $165 $164 $275 forward $103 $-1 #
coedge $-1 $166 $166 $104 $167 forward $161 $-1 #
edge $-1 $276 0 $276 6.2831853071796004 $166 $277 forward 7 unknown #
face $-1 $278 $279 $37 $-1 $280 forward single #
loop $-1 $-1 $281 $105 #
plane-surface $-1 -84.678025668389807 5.798681021053012 68.676752831390544 0 -1 0 0.54463904215088732 0 -0.83867056331134215 forward_v I I I I #
coedge $-1 $282 $283 $284 $285 reversed $106 $-1 #
coedge $-1 $173 $108 $286 $287 reversed $68 $-1 #
coedge $-1 $108 $172 $282 $288 reversed $68 $-1 #
coedge $-1 $284 $289 $108 $175 forward $279 $-1 #
edge $-1 $290 1.8092115096915933 $291 8.9610198013077351 $174 $292 forward 7 unknown #
loop $-1 $-1 $181 $109 #
plane-surface $-1 -40.52980132450331 2.9900678149756246 0.69445021595460332 -0.54463904215088732 0 0.83867056331134215 0.83867056331134215 0 0.54463904215088732 forward_v I I I I #
loop $-1 $-1 $293 $70 #
coedge $-1 $179 $179 $180 $294 reversed $110 $-1 #
coedge $-1 $180 $180 $179 $294 forward $112 $-1 #
coedge $-1 $181 $181 $113 $182 forward $176 $-1 #
edge $-1 $295 0 $295 6.2831853071796004 $181 $296 forward 7 unknown #
face $-1 $297 $298 $39 $-1 $299 forward single #
loop $-1 $-1 $300 $114 #
plane-surface $-1 -84.678025668389807 15.17859821427597 68.676752831390544 0 -1 0 0.54463904215088732 0 -0.83867056331134215 forward_v I I I I #
coedge $-1 $301 $302 $303 $304 reversed $115 $-1 #
coedge $-1 $188 $117 $305 $306 reversed $74 $-1 #
coedge $-1 $117 $187 $301 $307 reversed $74 $-1 #
coedge $-1 $303 $308 $117 $190 forward $298 $-1 #
edge $-1 $309 1.8092115096915933 $310 8.9610198013077351 $189 $311 forward 7 unknown #
loop $-1 $-1 $196 $118 #
plane-surface $-1 -40.52980132450331 12.369985008198583 0.69445021595460332 -0.54463904215088732 0 0.83867056331134215 0.83867056331134215 0 0.54463904215088732 forward_v I I I I #
loop $-1 $-1 $312 $76 #
coedge $-1 $194 $194 $195 $313 reversed $119 $-1 #
coedge $-1 $195 $195 $194 $313 forward $121 $-1 #
coedge $-1 $196 $196 $122 $197 forward $191 $-1 #
edge $-1 $314 0 $314 6.2831853071796004 $196 $315 forward 7 unknown #
face $-1 $316 $317 $41 $-1 $318 forward single #
loop $-1 $-1 $319 $123 #
plane-surface $-1 40.52980132450331 0 0 -1 0 0 0 0 1 forward_v I I I I #
coedge $-1 $320 $321 $322 $323 reversed $124 $-1 #
coedge $-1 $203 $126 $324 $325 reversed $80 $-1 #
coedge $-1 $126 $202 $320 $326 reversed $80 $-1 #
coedge $-1 $322 $327 $126 $205 forward $328 $-1 #
edge $-1 $329 -19.264566533116984 $330 -15.484985812906089 $204 $331 forward 7 unknown #
loop $-1 $-1 $211 $127 #
plane-surface $-1 -15.778929470137463 -7.061025811345452 59.734417462954077 0.71933980857756763 0 0.69465836192734942 0.69465836192734942 0 -0.71933980857756763 forward_v I I I I #
loop $-1 $-1 $332 $82 #
coedge $-1 $209 $209 $210 $333 reversed $128 $-1 #
coedge $-1 $210 $210 $209 $333 forward $130 $-1 #
coedge $-1 $211 $211 $131 $212 forward $206 $-1 #
edge $-1 $334 0 $334 6.2831853071796004 $211 $335 forward 7 unknown #
loop $-1 $-1 $218 $132 #
plane-surface $-1 -15.778929470137463 -7.061025811345452 59.734417462954077 0.71933980857756763 0 0.69465836192734942 0.69465836192734942 0 -0.71933980857756763 forward_v I I I I #
loop $-1 $-1 $336 $85 #
coedge $-1 $216 $216 $217 $337 reversed $133 $-1 #
coedge $-1 $217 $217 $216 $337 forward $135 $-1 #
coedge $-1 $218 $218 $136 $219 forward $213 $-1 #
edge $-1 $338 0 $338 6.2831853071796004 $218 $339 forward 7 unknown #
face $-1 $340 $341 $33 $-1 $342 reversed single #
loop $-1 $-1 $343 $137 #
plane-surface $-1 -40.52980132450331 0 0 1 0 0 0 0 -1 forward_v I I I I #
coedge $-1 $344 $231 $345 $346 forward $138 $-1 #
coedge $-1 $347 $140 $344 $348 forward $89 $-1 #
coedge $-1 $140 $347 $349 $350 forward $89 $-1 #
coedge $-1 $234 $233 $140 $227 reversed $235 $-1 #
edge $-1 $351 -16.757768527008984 $352 16.757768527008984 $226 $353 forward 7 unknown #
coedge $-1 $142 $141 $354 $355 forward $56 $-1 #
coedge $-1 $356 $357 $141 $230 reversed $341 $-1 #
edge $-1 $237 -40.52980132450331 $358 40.52980132450331 $229 $359 forward 7 unknown #
coedge $-1 $223 $360 $142 $232 reversed $138 $-1 #
edge $-1 $361 -40.52980132450331 $236 40.52980132450331 $231 $362 forward 7 unknown #
coedge $-1 $226 $143 $360 $363 forward $235 $-1 #
coedge $-1 $143 $226 $356 $364 reversed $235 $-1 #
loop $-1 $-1 $233 $340 #
vertex $-1 $144 $365 #
vertex $-1 $144 $366 #
straight-curve $-1 40.52980132450331 0 5.3388889121373602 0 1 0 I I #
face $-1 $367 $368 $34 $-1 $369 reversed single #
loop $-1 $-1 $370 $145 #
plane-surface $-1 -40.52980132450331 0 0 1 0 0 0 0 -1 forward_v I I I I #
coedge $-1 $371 $248 $253 $372 reversed $146 $-1 #
coedge $-1 $373 $148 $374 $375 reversed $93 $-1 #
coedge $-1 $148 $373 $371 $376 forward $93 $-1 #
coedge $-1 $253 $252 $148 $246 forward $254 $-1 #
edge $-1 $377 -9.8739181709923045 $378 -3.8937825410410527 $245 $379 forward 7 unknown #
coedge $-1 $150 $149 $370 $380 reversed $59 $-1 #
coedge $-1 $242 $381 $149 $249 reversed $146 $-1 #
edge $-1 $255 -40.52980132450331 $382 40.52980132450331 $248 $383 forward 7 unknown #
coedge $-1 $384 $385 $150 $251 forward $368 $-1 #
edge $-1 $256 -40.52980132450331 $386 40.52980132450331 $250 $387 forward 7 unknown #
coedge $-1 $245 $151 $385 $388 forward $254 $-1 #
coedge $-1 $151 $245 $242 $372 forward $254 $-1 #
loop $-1 $-1 $151 $367 #
vertex $-1 $152 $389 #
vertex $-1 $388 $390 #
straight-curve $-1 40.52980132450331 -6.8838503560166791 2.0552078174571662 0 -1 0 I I #
face $-1 $-1 $270 $35 $-1 $391 forward single #
loop $-1 $-1 $392 $153 #
plane-surface $-1 -40.52980132450331 0 0 1 0 0 0 0 -1 forward_v I I I I #
coedge $-1 $393 $394 $395 $396 reversed $154 $-1 #
coedge $-1 $397 $156 $158 $268 forward $97 $-1 #
coedge $-1 $156 $397 $393 $398 forward $97 $-1 #
coedge $-1 $395 $159 $156 $265 forward $270 $-1 #
edge $-1 $272 -6.0035378952010525 $399 -0.38631148304627771 $264 $400 forward 7 unknown #
coedge $-1 $401 $402 $157 $267 forward $259 $-1 #
edge $-1 $403 -33.643926199740669 $271 -28.999487503557912 $266 $404 forward 7 unknown #
edge $-1 $272 -8.5275537314419303 $403 0 $158 $405 forward 7 unknown #
coedge $-1 $159 $395 $401 $406 forward $270 $-1 #
loop $-1 $-1 $395 $258 #
vertex $-1 $267 $407 #
vertex $-1 $160 $408 #
straight-curve $-1 -42.339012834194904 -9.1984625843247176 5.3388889121373602 1 0 0 I I #
coedge $-1 $274 $274 $-1 $409 reversed $163 $-1 #
edge $-1 $410 0 $410 6.2831853071796004 $164 $411 forward 7 unknown #
vertex $-1 $167 $412 #
ellipse-curve $-1 -36.953897178695236 -6.3898493782473302 3.0166695640459831 -0.54463904215088732 0 0.83867056331134215 0.83867056331134215 0 0.54463904215088732 1 I I #
face $-1 $-1 $413 $37 $-1 $414 reversed single #
loop $-1 $-1 $174 $168 #
plane-surface $-1 0 0 5.3388889121373602 0 0 1 1 0 0 forward_v I I I I #
coedge $-1 $415 $416 $417 $418 reversed $169 $-1 #
coedge $-1 $419 $171 $173 $288 forward $106 $-1 #
coedge $-1 $171 $419 $415 $420 forward $106 $-1 #
coedge $-1 $417 $174 $171 $285 forward $279 $-1 #
edge $-1 $291 -1.3135792985895751 $421 4.3036471135651997 $284 $422 forward 7 unknown #
coedge $-1 $423 $424 $172 $287 forward $413 $-1 #
edge $-1 $425 -33.643926199740669 $290 -28.999487503557912 $286 $426 forward 7 unknown #
edge $-1 $291 -8.5275537314419303 $425 0 $173 $427 forward 7 unknown #
coedge $-1 $174 $417 $423 $428 forward $279 $-1 #
vertex $-1 $175 $429 #
vertex $-1 $175 $430 #
straight-curve $-1 -42.339012834194904 0.18145460889823717 5.3388889121373602 1 0 0 I I #
coedge $-1 $293 $293 $-1 $431 reversed $178 $-1 #
edge $-1 $432 0 $432 6.2831853071796004 $179 $433 forward 7 unknown #
vertex $-1 $182 $434 #
ellipse-curve $-1 -36.953897178695236 2.9900678149756246 3.0166695640459831 -0.54463904215088732 0 0.83867056331134215 0.83867056331134215 0 0.54463904215088732 1 I I #
face $-1 $-1 $435 $39 $-1 $436 reversed single #
loop $-1 $-1 $189 $183 #
plane-surface $-1 0 0 5.3388889121373602 0 0 1 1 0 0 forward_v I I I I #
coedge $-1 $437 $438 $439 $440 reversed $184 $-1 #
coedge $-1 $441 $186 $188 $307 forward $115 $-1 #
coedge $-1 $186 $441 $437 $442 forward $115 $-1 #
coedge $-1 $439 $189 $186 $304 forward $298 $-1 #
edge $-1 $310 3.3763792980219041 $443 8.9936057101766789 $303 $444 forward 7 unknown #
coedge $-1 $445 $446 $187 $306 forward $435 $-1 #
edge $-1 $447 -33.643926199740669 $309 -28.999487503557912 $305 $448 forward 7 unknown #
edge $-1 $310 -8.5275537314419303 $447 0 $188 $449 forward 7 unknown #
coedge $-1 $189 $439 $445 $450 forward $298 $-1 #
vertex $-1 $190 $451 #
vertex $-1 $190 $452 #
straight-curve $-1 -42.339012834194904 9.5613718021211955 5.3388889121373602 1 0 0 I I #
coedge $-1 $312 $312 $-1 $453 reversed $193 $-1 #
edge $-1 $454 0 $454 6.2831853071796004 $194 $455 forward 7 unknown #
vertex $-1 $197 $456 #
ellipse-curve $-1 -36.953897178695236 12.369985008198583 3.0166695640459831 -0.54463904215088732 0 0.83867056331134215 0.83867056331134215 0 0.54463904215088732 1 I I #
face $-1 $-1 $328 $41 $-1 $457 forward single #
loop $-1 $-1 $458 $198 #
plane-surface $-1 0 -10.777632897057732 0.55520781745716619 0 -1 0 0 0 -1 forward_v I I I I #
coedge $-1 $459 $460 $461 $462 forward $199 $-1 #
coedge $-1 $463 $201 $203 $326 forward $124 $-1 #
coedge $-1 $201 $463 $458 $464 reversed $124 $-1 #
coedge $-1 $465 $204 $201 $323 forward $328 $-1 #
edge $-1 $330 -0.18609418003955458 $466 7.2471199913850057 $322 $467 forward 7 unknown #
coedge $-1 $460 $459 $202 $325 forward $199 $-1 #
edge $-1 $468 -56.596555718753464 $329 -52.682685216660062 $324 $469 forward 7 unknown #
edge $-1 $330 75.618682439359475 $468 81.059602649006621 $203 $470 forward 7 unknown #
coedge $-1 $204 $465 $460 $471 forward $328 $-1 #
loop $-1 $-1 $465 $316 #
vertex $-1 $325 $472 #
vertex $-1 $205 $473 #
straight-curve $-1 21.265234791386327 -3.3444187256331714 5.3388889121373566 -1 0 0 I I #
coedge $-1 $332 $332 $-1 $474 reversed $208 $-1 #
edge $-1 $475 0 $475 6.2831853071796004 $209 $476 forward 7 unknown #
vertex $-1 $212 $477 #
ellipse-curve $-1 38.64001096439786 -8.6538574195078581 3.3819536610906611 0.71933980857756763 0 0.69465836192734942 0.34732918096367471 0 -0.35966990428878381 1 I I #
coedge $-1 $336 $336 $-1 $478 reversed $215 $-1 #
edge $-1 $479 0 $479 6.2831853071796004 $216 $480 forward 7 unknown #
vertex $-1 $219 $481 #
ellipse-curve $-1 38.64001096439786 -5.4681942031830459 3.3819536610906611 0.71933980857756763 0 0.69465836192734942 0.34732918096367471 0 -0.35966990428878381 1 I I #
face $-1 $-1 $235 $33 $-1 $482 reversed single #
loop $-1 $-1 $356 $220 #
plane-surface $-1 0 16.757768527008984 0 0 -1 0 0 0 -1 forward_v I I I I #
coedge $-1 $483 $354 $357 $484 forward $221 $-1 #
coedge $-1 $360 $223 $224 $348 reversed $138 $-1 #
coedge $-1 $354 $483 $223 $346 reversed $221 $-1 #
edge $-1 $361 -5.3388889121373602 $485 5.3388889121373602 $345 $486 forward 7 unknown #
coedge $-1 $225 $224 $483 $487 forward $89 $-1 #
edge $-1 $352 -40.52980132450331 $485 40.52980132450331 $344 $488 forward 7 unknown #
coedge $-1 $357 $356 $225 $350 reversed $341 $-1 #
edge $-1 $489 -40.52980132450331 $351 40.52980132450331 $349 $490 forward 7 unknown #
vertex $-1 $227 $491 #
vertex $-1 $363 $492 #
straight-curve $-1 40.52980132450331 0 -5.3388889121373602 0 -1 0 I I #
coedge $-1 $343 $345 $228 $355 reversed $221 $-1 #
edge $-1 $358 -16.757768527008984 $361 16.757768527008984 $354 $493 forward 7 unknown #
coedge $-1 $349 $229 $234 $364 forward $341 $-1 #
coedge $-1 $229 $349 $343 $484 reversed $341 $-1 #
vertex $-1 $230 $494 #
straight-curve $-1 0 16.757768527008984 5.3388889121373602 -1 0 0 I I #
coedge $-1 $231 $344 $233 $363 reversed $138 $-1 #
vertex $-1 $355 $495 #
straight-curve $-1 0 -16.757768527008984 5.3388889121373602 1 0 0 I I #
edge $-1 $236 -5.3388889121373602 $352 5.3388889121373602 $233 $496 forward 7 unknown #
edge $-1 $237 -5.3388889121373602 $351 5.3388889121373602 $234 $497 forward 7 unknown #
point $-1 40.52980132450331 -16.757768527008984 5.3388889121373602 #
point $-1 40.52980132450331 16.757768527008984 5.3388889121373602 #
face $-1 $-1 $254 $34 $-1 $498 reversed single #
loop $-1 $-1 $250 $239 #
plane-surface $-1 0 -16.757768527008984 0 0 1 0 0 0 1 forward_v I I I I #
coedge $-1 $499 $500 $247 $380 forward $240 $-1 #
coedge $-1 $381 $242 $244 $376 reversed $146 $-1 #
edge $-1 $378 -1.2223960912714169 $255 1.7776039087285831 $253 $501 forward 7 unknown #
coedge $-1 $244 $243 $502 $503 reversed $93 $-1 #
coedge $-1 $385 $384 $243 $375 forward $368 $-1 #
edge $-1 $504 -40.52980132450331 $377 40.52980132450331 $374 $505 forward 7 unknown #
edge $-1 $506 -40.52980132450331 $378 40.52980132450331 $371 $507 forward 7 unknown #
vertex $-1 $375 $508 #
vertex $-1 $246 $509 #
straight-curve $-1 40.52980132450331 -6.8838503560166791 -0.94479218254283381 0 1 0 I I #
edge $-1 $386 -9.8739181709923045 $382 -3.8937825410410527 $370 $510 forward 7 unknown #
coedge $-1 $248 $371 $499 $511 reversed $146 $-1 #
vertex $-1 $380 $512 #
straight-curve $-1 0 -10.777632897057732 2.0552078174571662 -1 0 0 I I #
coedge $-1 $374 $250 $500 $513 forward $368 $-1 #
coedge $-1 $250 $374 $252 $388 reversed $368 $-1 #
vertex $-1 $513 $514 #
straight-curve $-1 0 -16.757768527008984 2.0552078174571662 -1 0 0 I I #
edge $-1 $256 -2.0552078174571662 $377 0.94479218254283381 $252 $515 forward 7 unknown #
point $-1 40.52980132450331 -10.777632897057732 2.0552078174571662 #
point $-1 40.52980132450331 -16.757768527008984 2.0552078174571662 #
plane-surface $-1 0 0 5.3388889121373602 0 0 1 1 0 0 forward_v I I I I #
coedge $-1 $402 $401 $394 $516 forward $259 $-1 #
coedge $-1 $394 $261 $263 $398 reversed $154 $-1 #
coedge $-1 $261 $393 $392 $516 reversed $154 $-1 #
coedge $-1 $269 $264 $261 $396 forward $270 $-1 #
edge $-1 $399 -8.9610198013077351 $517 -1.8092115096915933 $395 $518 forward 7 unknown #
coedge $-1 $263 $262 $402 $519 reversed $97 $-1 #
edge $-1 $520 0 $399 8.5275537314419303 $393 $521 forward 7 unknown #
vertex $-1 $265 $522 #
straight-curve $-1 -33.377993032887176 -3.1949246891236651 5.3388889121373602 0 1 0 I I #
coedge $-1 $392 $266 $269 $406 reversed $259 $-1 #
coedge $-1 $266 $392 $397 $519 forward $259 $-1 #
vertex $-1 $267 $523 #
straight-curve $-1 -40.52980132450331 -9.1984625843247176 34.338376415695272 0 0 1 I I #
straight-curve $-1 -40.52980132450331 -9.1984625843247176 0.69445021595460332 -0.83867056331134215 0 -0.54463904215088732 I I #
edge $-1 $517 3.5812361721699428 $271 9.1984625843247176 $401 $524 forward 7 unknown #
point $-1 -40.52980132450331 -9.1984625843247176 5.3388889121373602 #
point $-1 -33.377993032887169 -9.1984625843247176 5.3388889121373602 #
edge $-1 $525 1 $525 0 $274 $-1 forward 7 unknown #
vertex $-1 $275 $526 #
ellipse-curve $-1 -35.664329154578461 -6.3898493782473302 1.0309089822427286 -0.54463904215088732 0 0.83867056331134215 0.83867056331134215 0 0.54463904215088732 1 I I #
point $-1 -36.115226615383897 -6.3898493782473302 3.5613086061968686 #
loop $-1 $-1 $286 $278 #
plane-surface $-1 -40.52980132450331 0 0 1 0 0 0 0 -1 forward_v I I I I #
coedge $-1 $416 $281 $283 $420 reversed $169 $-1 #
coedge $-1 $281 $415 $527 $528 reversed $169 $-1 #
coedge $-1 $289 $284 $281 $418 forward $279 $-1 #
edge $-1 $421 -8.9610198013077351 $529 -1.8092115096915933 $417 $530 forward 7 unknown #
coedge $-1 $283 $282 $424 $531 reversed $106 $-1 #
edge $-1 $532 0 $421 8.5275537314419303 $415 $533 forward 7 unknown #
vertex $-1 $285 $534 #
straight-curve $-1 -33.377993032887176 1.4950339074878123 5.3388889121373602 0 1 0 I I #
coedge $-1 $527 $286 $289 $428 reversed $413 $-1 #
coedge $-1 $286 $527 $419 $531 forward $413 $-1 #
vertex $-1 $287 $535 #
straight-curve $-1 -40.52980132450331 0.18145460889823717 34.338376415695272 0 0 1 I I #
straight-curve $-1 -40.52980132450331 0.18145460889823717 0.69445021595460332 -0.83867056331134215 0 -0.54463904215088732 I I #
edge $-1 $529 -5.798681021053012 $290 -0.18145460889823717 $423 $536 forward 7 unknown #
point $-1 -40.52980132450331 0.18145460889823717 5.3388889121373602 #
point $-1 -33.377993032887169 0.18145460889823717 5.3388889121373602 #
edge $-1 $537 1 $537 0 $293 $-1 forward 7 unknown #
vertex $-1 $294 $538 #
ellipse-curve $-1 -35.664329154578461 2.9900678149756246 1.0309089822427286 -0.54463904215088732 0 0.83867056331134215 0.83867056331134215 0 0.54463904215088732 1 I I #
point $-1 -36.115226615383897 2.9900678149756246 3.5613086061968686 #
loop $-1 $-1 $305 $297 #
plane-surface $-1 -40.52980132450331 0 0 1 0 0 0 0 -1 forward_v I I I I #
coedge $-1 $438 $300 $302 $442 reversed $184 $-1 #
coedge $-1 $300 $437 $539 $540 reversed $184 $-1 #
coedge $-1 $308 $303 $300 $440 forward $298 $-1 #
edge $-1 $443 -8.9610198013077351 $541 -1.8092115096915933 $439 $542 forward 7 unknown #
coedge $-1 $302 $301 $446 $543 reversed $115 $-1 #
edge $-1 $544 0 $443 8.5275537314419303 $437 $545 forward 7 unknown #
vertex $-1 $304 $546 #
straight-curve $-1 -33.377993032887176 6.1849925040992915 5.3388889121373602 0 1 0 I I #
coedge $-1 $539 $305 $308 $450 reversed $435 $-1 #
coedge $-1 $305 $539 $441 $543 forward $435 $-1 #
vertex $-1 $306 $547 #
straight-curve $-1 -40.52980132450331 9.5613718021211955 34.338376415695272 0 0 1 I I #
straight-curve $-1 -40.52980132450331 9.5613718021211955 0.69445021595460332 -0.83867056331134215 0 -0.54463904215088732 I I #
edge $-1 $541 -15.17859821427597 $309 -9.5613718021211955 $445 $548 forward 7 unknown #
point $-1 -40.52980132450331 9.5613718021211955 5.3388889121373602 #
point $-1 -33.377993032887169 9.5613718021211955 5.3388889121373602 #
edge $-1 $549 1 $549 0 $312 $-1 forward 7 unknown #
vertex $-1 $313 $550 #
ellipse-curve $-1 -35.664329154578461 12.369985008198583 1.0309089822427286 -0.54463904215088732 0 0.83867056331134215 0.83867056331134215 0 0.54463904215088732 1 I I #
point $-1 -36.115226615383897 12.369985008198583 3.5613086061968686 #
plane-surface $-1 0 0 5.3388889121373602 0 0 1 1 0 0 forward_v I I I I #
coedge $-1 $461 $551 $321 $464 forward $317 $-1 #
coedge $-1 $324 $319 $463 $552 forward $199 $-1 #
coedge $-1 $319 $324 $327 $471 reversed $199 $-1 #
coedge $-1 $551 $458 $319 $462 reversed $317 $-1 #
edge $-1 $553 52.682685216660062 $554 56.596555718753464 $319 $555 forward 7 unknown #
coedge $-1 $321 $320 $459 $552 reversed $124 $-1 #
edge $-1 $466 48.8532191209313 $554 54.294139330578439 $458 $556 forward 7 unknown #
coedge $-1 $327 $322 $551 $557 forward $328 $-1 #
vertex $-1 $323 $558 #
straight-curve $-1 36.750220604292409 -3.530512905672726 5.3388889121373637 0 -1 0 I I #
vertex $-1 $325 $559 #
straight-curve $-1 40.52980132450331 -3.3444187256331714 58.021574128797425 0 0 1 I I #
straight-curve $-1 -15.778929470137463 -3.3444187256331714 59.734417462954077 0.69465836192734942 0 -0.71933980857756763 I I #
edge $-1 $553 -10.777632897057732 $329 -3.3444187256331714 $460 $560 forward 7 unknown #
point $-1 40.52980132450331 -3.3444187256331714 5.3388889121373602 #
point $-1 36.750220604292416 -3.3444187256331714 5.3388889121373566 #
edge $-1 $561 1 $561 0 $332 $-1 forward 7 unknown #
vertex $-1 $333 $562 #
ellipse-curve $-1 37.37944846314879 -8.6538574195078581 2.1646426325848642 0.71933980857756763 0 0.69465836192734942 0.34732918096367471 0 -0.35966990428878381 1 I I #
point $-1 38.987340145361536 -8.6538574195078581 3.0222837568018752 #
edge $-1 $563 1 $563 0 $336 $-1 forward 7 unknown #
vertex $-1 $337 $564 #
ellipse-curve $-1 37.37944846314879 -5.4681942031830459 2.1646426325848642 0.71933980857756763 0 0.69465836192734942 0.34732918096367471 0 -0.35966990428878381 1 I I #
point $-1 38.987340145361536 -5.4681942031830459 3.0222837568018752 #
plane-surface $-1 40.52980132450331 0 0 -1 0 0 0 0 1 forward_v I I I I #
coedge $-1 $345 $343 $347 $487 reversed $221 $-1 #
edge $-1 $358 -5.3388889121373602 $489 5.3388889121373602 $357 $565 forward 7 unknown #
vertex $-1 $487 $566 #
straight-curve $-1 -40.52980132450331 -16.757768527008984 0 0 0 -1 I I #
edge $-1 $485 -16.757768527008984 $489 16.757768527008984 $483 $567 forward 7 unknown #
straight-curve $-1 0 -16.757768527008984 -5.3388889121373602 -1 0 0 I I #
vertex $-1 $350 $568 #
straight-curve $-1 0 16.757768527008984 -5.3388889121373602 1 0 0 I I #
point $-1 40.52980132450331 16.757768527008984 -5.3388889121373602 #
point $-1 40.52980132450331 -16.757768527008984 -5.3388889121373602 #
straight-curve $-1 -40.52980132450331 0 5.3388889121373602 0 -1 0 I I #
point $-1 -40.52980132450331 16.757768527008984 5.3388889121373602 #
point $-1 -40.52980132450331 -16.757768527008984 5.3388889121373602 #
straight-curve $-1 40.52980132450331 -16.757768527008984 0 0 0 -1 I I #
straight-curve $-1 40.52980132450331 16.757768527008984 0 0 0 -1 I I #
plane-surface $-1 40.52980132450331 0 0 -1 0 0 0 0 1 forward_v I I I I #
coedge $-1 $502 $370 $381 $511 forward $240 $-1 #
coedge $-1 $370 $502 $384 $513 reversed $240 $-1 #
straight-curve $-1 40.52980132450331 -10.777632897057732 0.27760390872858309 0 0 1 I I #
coedge $-1 $500 $499 $373 $503 forward $240 $-1 #
edge $-1 $506 3.8937825410410527 $504 9.8739181709923045 $502 $569 forward 7 unknown #
vertex $-1 $375 $570 #
straight-curve $-1 0 -16.757768527008984 -0.94479218254283381 1 0 0 I I #
vertex $-1 $503 $571 #
straight-curve $-1 0 -10.777632897057732 -0.94479218254283381 1 0 0 I I #
point $-1 40.52980132450331 -16.757768527008984 -0.94479218254283381 #
point $-1 40.52980132450331 -10.777632897057732 -0.94479218254283381 #
straight-curve $-1 -40.52980132450331 -6.8838503560166791 2.0552078174571662 0 1 0 I I #
edge $-1 $382 -1.7776039087285831 $506 1.2223960912714169 $499 $572 forward 7 unknown #
point $-1 -40.52980132450331 -10.777632897057732 2.0552078174571662 #
edge $-1 $386 -2.0552078174571662 $504 0.94479218254283381 $500 $573 forward 7 unknown #
point $-1 -40.52980132450331 -16.757768527008984 2.0552078174571662 #
straight-curve $-1 40.52980132450331 -16.757768527008984 0 0 0 -1 I I #
edge $-1 $517 28.999487503557912 $520 33.643926199740669 $392 $574 forward 7 unknown #
vertex $-1 $406 $575 #
straight-curve $-1 -42.339012834194904 -3.5812361721699428 5.3388889121373602 -1 0 0 I I #
edge $-1 $520 0.38631148304627771 $403 6.0035378952010525 $402 $576 forward 7 unknown #
vertex $-1 $519 $577 #
straight-curve $-1 -40.52980132450331 -3.5812361721699428 0.69445021595460332 0.83867056331134215 0 0.54463904215088732 I I #
point $-1 -33.377993032887169 -3.5812361721699428 5.3388889121373602 #
point $-1 -40.52980132450331 -9.1984625843247176 0.69445021595460332 #
straight-curve $-1 -40.52980132450331 0 5.3388889121373602 0 -1 0 I I #
vertex $-1 $409 $578 #
point $-1 -34.825658591267114 -6.3898493782473302 1.575548024393616 #
coedge $-1 $424 $423 $416 $528 forward $413 $-1 #
edge $-1 $529 28.999487503557912 $532 33.643926199740669 $527 $579 forward 7 unknown #
vertex $-1 $428 $580 #
straight-curve $-1 -42.339012834194904 5.798681021053012 5.3388889121373602 -1 0 0 I I #
edge $-1 $532 -4.3036471135651997 $425 1.3135792985895751 $424 $581 forward 7 unknown #
vertex $-1 $531 $582 #
straight-curve $-1 -40.52980132450331 5.798681021053012 0.69445021595460332 0.83867056331134215 0 0.54463904215088732 I I #
point $-1 -33.377993032887169 5.798681021053012 5.3388889121373602 #
point $-1 -40.52980132450331 0.18145460889823717 0.69445021595460332 #
straight-curve $-1 -40.52980132450331 0 5.3388889121373602 0 -1 0 I I #
vertex $-1 $431 $583 #
point $-1 -34.825658591267114 2.9900678149756246 1.575548024393616 #
coedge $-1 $446 $445 $438 $540 forward $435 $-1 #
edge $-1 $541 28.999487503557912 $544 33.643926199740669 $539 $584 forward 7 unknown #
vertex $-1 $450 $585 #
straight-curve $-1 -42.339012834194904 15.17859821427597 5.3388889121373602 -1 0 0 I I #
edge $-1 $544 -8.9936057101766789 $447 -3.3763792980219041 $446 $586 forward 7 unknown #
vertex $-1 $543 $587 #
straight-curve $-1 -40.52980132450331 15.17859821427597 0.69445021595460332 0.83867056331134215 0 0.54463904215088732 I I #
point $-1 -33.377993032887169 15.17859821427597 5.3388889121373602 #
point $-1 -40.52980132450331 9.5613718021211955 0.69445021595460332 #
straight-curve $-1 -40.52980132450331 0 5.3388889121373602 0 -1 0 I I #
vertex $-1 $453 $588 #
point $-1 -34.825658591267114 12.369985008198583 1.575548024393616 #
coedge $-1 $458 $461 $465 $557 reversed $317 $-1 #
edge $-1 $554 -7.2471199913850057 $468 0.18609418003955458 $459 $589 forward 7 unknown #
vertex $-1 $471 $590 #
vertex $-1 $464 $591 #
straight-curve $-1 40.52980132450331 -10.777632897057732 58.021574128797425 0 0 -1 I I #
straight-curve $-1 2.8139234348684159 -10.777632897057732 40.480954202986041 0.69465836192734942 0 -0.71933980857756763 I I #
edge $-1 $466 15.484985812906089 $553 19.264566533116984 $465 $592 forward 7 unknown #
point $-1 36.750220604292416 -10.777632897057732 5.3388889121373566 #
point $-1 40.52980132450331 -3.3444187256331714 1.4250184100439611 #
straight-curve $-1 40.52980132450331 0 5.3388889121373602 0 1 0 I I #
vertex $-1 $474 $593 #
point $-1 37.726777644112467 -8.6538574195078581 1.8049727282960806 #
vertex $-1 $478 $594 #
point $-1 37.726777644112467 -5.4681942031830459 1.8049727282960806 #
straight-curve $-1 -40.52980132450331 16.757768527008984 0 0 0 -1 I I #
point $-1 -40.52980132450331 -16.757768527008984 -5.3388889121373602 #
straight-curve $-1 -40.52980132450331 0 -5.3388889121373602 0 1 0 I I #
point $-1 -40.52980132450331 16.757768527008984 -5.3388889121373602 #
straight-curve $-1 -40.52980132450331 -6.8838503560166791 -0.94479218254283381 0 -1 0 I I #
point $-1 -40.52980132450331 -16.757768527008984 -0.94479218254283381 #
point $-1 -40.52980132450331 -10.777632897057732 -0.94479218254283381 #
straight-curve $-1 -40.52980132450331 -10.777632897057732 0.27760390872858309 0 0 -1 I I #
straight-curve $-1 -40.52980132450331 -16.757768527008984 0 0 0 -1 I I #
straight-curve $-1 -40.52980132450331 -3.5812361721699428 34.338376415695272 0 0 -1 I I #
point $-1 -40.52980132450331 -3.5812361721699428 5.3388889121373602 #
straight-curve $-1 -40.52980132450331 -3.1949246891236651 0.69445021595460543 0 -1 0 I I #
point $-1 -40.52980132450331 -3.5812361721699428 0.69445021595460332 #
point $-1 -35.11969011242757 -6.3898493782473302 0.19223841893138655 #
straight-curve $-1 -40.52980132450331 5.798681021053012 34.338376415695272 0 0 -1 I I #
point $-1 -40.52980132450331 5.798681021053012 5.3388889121373602 #
straight-curve $-1 -40.52980132450331 1.4950339074878123 0.69445021595460543 0 -1 0 I I #
point $-1 -40.52980132450331 5.798681021053012 0.69445021595460332 #
point $-1 -35.11969011242757 2.9900678149756246 0.19223841893138655 #
straight-curve $-1 -40.52980132450331 15.17859821427597 34.338376415695272 0 0 -1 I I #
point $-1 -40.52980132450331 15.17859821427597 5.3388889121373602 #
straight-curve $-1 -40.52980132450331 6.1849925040992915 0.69445021595460543 0 -1 0 I I #
point $-1 -40.52980132450331 15.17859821427597 0.69445021595460332 #
point $-1 -35.11969011242757 12.369985008198583 0.19223841893138655 #
straight-curve $-1 40.52980132450331 -3.530512905672726 1.4250184100439576 0 1 0 I I #
point $-1 40.52980132450331 -10.777632897057732 5.3388889121373602 #
point $-1 40.52980132450331 -10.777632897057732 1.4250184100439576 #
straight-curve $-1 21.265234791386327 -10.777632897057732 5.3388889121373566 1 0 0 I I #
point $-1 37.019778558860011 -8.6538574195078581 1.8173134516211897 #
point $-1 37.019778558860011 -5.4681942031830459 1.8173134516211897 #
End-of-ACIS-data 