500 0 4 0           
7 Unknown 11 ACIS 5.0 NT 24 Fri Mar 26 16:33:46 1999 
-1 9.9999999999999995e-007 1e-010 
body $-1 $4 $-1 $5 #
body $-1 $6 $-1 $7 #
body $-1 $8 $-1 $9 #
body $-1 $10 $-1 $11 #
lump $-1 $-1 $12 $0 #
transform $-1 1 0 0 0 1 0 0 0 1 47.820062868129519 31.645273574631393 7.1023440166996288 1 rotate no_reflect no_shear #
lump $-1 $-1 $13 $1 #
transform $-1 1 0 0 0 1 0 0 0 1 47.820062868129519 31.645273574631393 7.1023440166996288 1 rotate no_reflect no_shear #
lump $-1 $-1 $14 $2 #
transform $-1 1 0 0 0 1 0 0 0 1 47.820062868129519 31.645273574631393 7.1023440166996288 1 rotate no_reflect no_shear #
lump $-1 $-1 $15 $3 #
transform $-1 1 0 0 0 1 0 0 0 1 47.820062868129519 31.645273574631393 7.1023440166996288 1 rotate no_reflect no_shear #
shell $-1 $-1 $-1 $16 $-1 $4 #
shell $-1 $-1 $-1 $17 $-1 $6 #
shell $-1 $-1 $-1 $18 $-1 $8 #
shell $-1 $-1 $-1 $19 $-1 $10 #
face $-1 $20 $21 $12 $-1 $22 forward single #
face $-1 $23 $24 $13 $-1 $25 forward single #
face $-1 $26 $27 $14 $-1 $28 reversed single #
face $-1 $29 $30 $15 $-1 $31 forward single #
face $-1 $32 $33 $12 $-1 $34 reversed single #
loop $-1 $-1 $35 $16 #
plane-surface $-1 0 0 7.1023440166996288 0 0 1 1 0 0 forward_v I I I I #
face $-1 $36 $37 $13 $-1 $38 reversed single #
loop $-1 $-1 $39 $17 #
plane-surface $-1 0 -31.645273574631393 0 0 1 0 0 0 1 forward_v I I I I #
face $-1 $40 $41 $14 $-1 $42 reversed single #
loop $-1 $-1 $43 $18 #
plane-surface $-1 -104.03591902149358 -11.275447791185801 79.02922090587947 0 1 0 -0.5877852598018023 0 0.80901698891910034 forward_v I I I I #
face $-1 $44 $45 $15 $-1 $46 forward single #
loop $-1 $47 $48 $19 #
cone-surface $-1 -43.373319999830613 -5.4429509131152614 3.4181725459752692 0.5877852598018023 0 -0.80901698891910034 0.80901698891910034 0 0.5877852598018023 1 I I 0 1 1 forward I I I I #
face $-1 $49 $50 $12 $-1 $51 reversed single #
loop $-1 $-1 $52 $20 #
plane-surface $-1 0 0 -7.1023440166996288 0 0 1 1 0 0 forward_v I I I I #
coedge $-1 $53 $54 $55 $56 forward $21 $-1 #
face $-1 $57 $58 $13 $-1 $59 reversed single #
loop $-1 $-1 $60 $23 #
plane-surface $-1 0 0 -7.1023440166996288 0 0 1 1 0 0 forward_v I I I I #
coedge $-1 $61 $62 $63 $64 forward $24 $-1 #
face $-1 $65 $66 $14 $-1 $67 reversed single #
loop $-1 $-1 $68 $26 #
plane-surface $-1 -47.820062868129526 -5.4429509131152614 1.6547343628870266 -0.5877852598018023 0 0.80901698891910034 0.80901698891910034 0 0.5877852598018023 forward_v I I I I #
coedge $-1 $69 $70 $71 $72 reversed $27 $-1 #
face $-1 $-1 $73 $15 $-1 $74 forward single #
loop $-1 $75 $76 $29 #
cone-surface $-1 -42.381680147098486 -5.4429509131152614 2.0532974076976629 0.5877852598018023 0 -0.80901698891910034 0.40450849445955017 0 0.29389262990090115 1 I I -0.70710678118654746 0.70710678118654746 0.5 forward I I I I #
loop $-1 $-1 $77 $19 #
coedge $-1 $48 $48 $78 $79 reversed $30 $-1 #
face $-1 $80 $81 $12 $-1 $82 reversed single #
loop $-1 $-1 $83 $32 #
plane-surface $-1 0 -31.645273574631393 0 0 1 0 0 0 1 forward_v I I I I #
coedge $-1 $84 $85 $86 $87 forward $33 $-1 #
coedge $-1 $88 $35 $89 $90 forward $21 $-1 #
coedge $-1 $35 $88 $91 $92 forward $21 $-1 #
coedge $-1 $93 $94 $35 $56 reversed $95 $-1 #
edge $-1 $96 -31.645273574631393 $97 31.645273574631393 $55 $98 forward 7 unknown #
face $-1 $99 $100 $13 $-1 $101 forward single #
loop $-1 $-1 $102 $36 #
plane-surface $-1 47.820062868129519 0 0 -1 0 0 0 0 1 forward_v I I I I #
coedge $-1 $103 $104 $105 $106 forward $37 $-1 #
coedge $-1 $105 $39 $102 $107 reversed $24 $-1 #
coedge $-1 $39 $105 $108 $109 reversed $24 $-1 #
coedge $-1 $110 $111 $39 $64 reversed $100 $-1 #
edge $-1 $112 -47.820062868129519 $113 47.820062868129519 $63 $114 forward 7 unknown #
face $-1 $115 $116 $14 $-1 $117 forward single #
loop $-1 $-1 $118 $40 #
plane-surface $-1 -104.03591902149358 0.38954596495527838 79.02922090587947 0 -1 0 0.5877852598018023 0 -0.80901698891910034 forward_v I I I I #
coedge $-1 $119 $120 $121 $122 reversed $41 $-1 #
coedge $-1 $70 $43 $123 $124 reversed $27 $-1 #
coedge $-1 $43 $69 $119 $125 reversed $27 $-1 #
coedge $-1 $121 $126 $43 $72 forward $116 $-1 #
edge $-1 $127 4.1978966426172732 $128 11.695887933552633 $71 $129 forward 7 unknown #
loop $-1 $-1 $78 $44 #
plane-surface $-1 -47.820062868129526 -5.4429509131152614 1.6547343628870266 -0.5877852598018023 0 0.80901698891910034 0.80901698891910034 0 0.5877852598018023 forward_v I I I I #
loop $-1 $-1 $130 $29 #
coedge $-1 $76 $76 $77 $131 reversed $45 $-1 #
coedge $-1 $77 $77 $76 $131 forward $47 $-1 #
coedge $-1 $78 $78 $48 $79 forward $73 $-1 #
edge $-1 $132 0 $132 6.2831853071796004 $78 $133 forward 7 unknown #
face $-1 $134 $135 $12 $-1 $136 reversed single #
loop $-1 $-1 $137 $49 #
plane-surface $-1 -47.820062868129519 0 0 1 0 0 0 0 -1 forward_v I I I I #
coedge $-1 $91 $138 $93 $139 reversed $50 $-1 #
coedge $-1 $140 $52 $138 $141 forward $33 $-1 #
coedge $-1 $52 $140 $142 $143 forward $33 $-1 #
coedge $-1 $94 $93 $52 $87 reversed $95 $-1 #
edge $-1 $144 -31.645273574631393 $145 31.645273574631393 $86 $146 forward 7 unknown #
coedge $-1 $54 $53 $147 $148 forward $21 $-1 #
coedge $-1 $149 $150 $53 $90 reversed $135 $-1 #
edge $-1 $97 -47.820062868129519 $151 47.820062868129519 $89 $152 forward 7 unknown #
coedge $-1 $153 $83 $54 $92 reversed $50 $-1 #
edge $-1 $154 -47.820062868129519 $96 47.820062868129519 $91 $155 forward 7 unknown #
coedge $-1 $86 $55 $83 $139 forward $95 $-1 #
coedge $-1 $55 $86 $149 $156 reversed $95 $-1 #
loop $-1 $-1 $93 $134 #
vertex $-1 $56 $157 #
vertex $-1 $56 $158 #
straight-curve $-1 47.820062868129519 0 7.1023440166996288 0 1 0 I I #
face $-1 $159 $160 $13 $-1 $161 reversed single #
loop $-1 $-1 $111 $57 #
plane-surface $-1 0 -34.659125849706953 -4.1023440166996288 0 0 1 1 0 0 forward_v I I I I #
coedge $-1 $162 $163 $61 $107 forward $58 $-1 #
coedge $-1 $164 $60 $163 $165 forward $37 $-1 #
coedge $-1 $60 $164 $166 $167 forward $37 $-1 #
coedge $-1 $62 $61 $60 $106 reversed $24 $-1 #
edge $-1 $168 -47.820062868129519 $169 47.820062868129519 $60 $170 forward 7 unknown #
edge $-1 $169 -7.1023440166996288 $113 -4.1023440166996288 $102 $171 forward 7 unknown #
coedge $-1 $166 $172 $62 $109 forward $173 $-1 #
edge $-1 $112 4.1023440166996288 $168 7.1023440166996288 $108 $174 forward 7 unknown #
coedge $-1 $175 $63 $172 $176 forward $100 $-1 #
coedge $-1 $63 $175 $162 $177 forward $100 $-1 #
vertex $-1 $109 $178 #
vertex $-1 $177 $179 #
straight-curve $-1 0 -31.645273574631393 -4.1023440166996288 1 0 0 I I #
face $-1 $-1 $180 $14 $-1 $181 reversed single #
loop $-1 $-1 $71 $65 #
plane-surface $-1 0 0 7.1023440166996288 0 0 1 1 0 0 forward_v I I I I #
coedge $-1 $182 $183 $184 $185 reversed $66 $-1 #
coedge $-1 $186 $68 $70 $125 forward $41 $-1 #
coedge $-1 $68 $186 $182 $187 forward $41 $-1 #
coedge $-1 $184 $71 $68 $122 forward $116 $-1 #
edge $-1 $128 -8.5539723346281704 $188 3.1110214215129091 $121 $189 forward 7 unknown #
coedge $-1 $190 $191 $69 $124 forward $180 $-1 #
edge $-1 $192 -37.859876090052701 $127 -32.412266436240103 $123 $193 forward 7 unknown #
edge $-1 $128 -9.2680269927992143 $192 -8.7502459990790685e-015 $70 $194 forward 7 unknown #
coedge $-1 $71 $184 $190 $195 forward $116 $-1 #
vertex $-1 $124 $196 #
vertex $-1 $72 $197 #
straight-curve $-1 -52.017959510746792 -11.275447791185801 7.1023440166996252 1 0 0 I I #
coedge $-1 $130 $130 $-1 $198 reversed $75 $-1 #
edge $-1 $199 0 $199 6.2831853071796004 $76 $200 forward 7 unknown #
vertex $-1 $79 $201 #
ellipse-curve $-1 -44.071067222661839 -5.4429509131152614 4.3785391897933303 -0.5877852598018023 0 0.80901698891910034 0.80901698891910034 0 0.5877852598018023 1 I I #
face $-1 $-1 $95 $12 $-1 $202 reversed single #
loop $-1 $-1 $149 $80 #
plane-surface $-1 0 31.645273574631393 0 0 -1 0 0 0 -1 forward_v I I I I #
coedge $-1 $203 $147 $150 $204 forward $81 $-1 #
coedge $-1 $83 $153 $84 $141 reversed $50 $-1 #
edge $-1 $96 -7.1023440166996288 $145 7.1023440166996288 $93 $205 forward 7 unknown #
coedge $-1 $85 $84 $203 $206 forward $33 $-1 #
edge $-1 $145 -47.820062868129519 $207 47.820062868129519 $138 $208 forward 7 unknown #
coedge $-1 $150 $149 $85 $143 reversed $135 $-1 #
edge $-1 $209 -47.820062868129519 $144 47.820062868129519 $142 $210 forward 7 unknown #
vertex $-1 $87 $211 #
vertex $-1 $139 $212 #
straight-curve $-1 47.820062868129519 0 -7.1023440166996288 0 -1 0 I I #
coedge $-1 $137 $213 $88 $148 reversed $81 $-1 #
edge $-1 $151 -31.645273574631393 $154 31.645273574631393 $147 $214 forward 7 unknown #
coedge $-1 $142 $89 $94 $156 forward $135 $-1 #
coedge $-1 $89 $142 $137 $204 reversed $135 $-1 #
vertex $-1 $90 $215 #
straight-curve $-1 0 31.645273574631393 7.1023440166996288 -1 0 0 I I #
coedge $-1 $138 $91 $213 $216 forward $50 $-1 #
vertex $-1 $148 $217 #
straight-curve $-1 0 -31.645273574631393 7.1023440166996288 1 0 0 I I #
edge $-1 $97 -7.1023440166996288 $144 7.1023440166996288 $94 $218 forward 7 unknown #
point $-1 47.820062868129519 -31.645273574631393 7.1023440166996288 #
point $-1 47.820062868129519 31.645273574631393 7.1023440166996288 #
face $-1 $-1 $173 $13 $-1 $219 reversed single #
loop $-1 $-1 $220 $99 #
plane-surface $-1 0 -37.67297812478251 -5.6023440166996288 0 1 0 0 0 1 forward_v I I I I #
coedge $-1 $221 $102 $111 $177 reversed $58 $-1 #
coedge $-1 $102 $221 $103 $165 reversed $58 $-1 #
coedge $-1 $104 $103 $222 $223 forward $37 $-1 #
edge $-1 $169 31.645273574631393 $224 37.67297812478251 $163 $225 forward 7 unknown #
coedge $-1 $226 $108 $104 $167 reversed $173 $-1 #
edge $-1 $227 -37.67297812478251 $168 -31.645273574631393 $166 $228 forward 7 unknown #
vertex $-1 $109 $229 #
vertex $-1 $165 $230 #
straight-curve $-1 0 -31.645273574631393 -7.1023440166996288 1 0 0 I I #
straight-curve $-1 47.820062868129519 -31.645273574631393 0 0 0 1 I I #
coedge $-1 $108 $226 $110 $176 reversed $173 $-1 #
loop $-1 $-1 $108 $159 #
straight-curve $-1 -47.820062868129519 -31.645273574631393 0 0 0 -1 I I #
coedge $-1 $111 $110 $231 $232 forward $100 $-1 #
edge $-1 $112 -3.013852275075557 $233 3.013852275075557 $172 $234 forward 7 unknown #
edge $-1 $235 -3.013852275075557 $113 3.013852275075557 $162 $236 forward 7 unknown #
point $-1 -47.820062868129519 -31.645273574631396 -4.1023440166996288 #
point $-1 47.820062868129519 -31.645273574631396 -4.1023440166996288 #
loop $-1 $-1 $123 $115 #
plane-surface $-1 -47.820062868129519 0 0 1 0 0 0 0 -1 forward_v I I I I #
coedge $-1 $183 $118 $120 $187 reversed $66 $-1 #
coedge $-1 $118 $182 $237 $238 reversed $66 $-1 #
coedge $-1 $126 $121 $118 $185 forward $116 $-1 #
edge $-1 $188 -11.695887933552633 $239 -4.1978966426172732 $184 $240 forward 7 unknown #
coedge $-1 $120 $119 $191 $241 reversed $41 $-1 #
edge $-1 $242 8.7502459990790685e-015 $188 9.2680269927992143 $182 $243 forward 7 unknown #
vertex $-1 $122 $244 #
straight-curve $-1 -40.322071577194166 -2.7214754565576307 7.1023440166996279 0 1 0 I I #
coedge $-1 $237 $123 $126 $195 reversed $180 $-1 #
coedge $-1 $123 $237 $186 $241 forward $180 $-1 #
vertex $-1 $124 $245 #
straight-curve $-1 -47.820062868129519 -11.275447791185801 39.514610452939735 0 0 1 I I #
straight-curve $-1 -47.820062868129526 -11.275447791185801 1.6547343628870266 -0.80901698891910034 0 -0.5877852598018023 I I #
edge $-1 $239 -0.38954596495527838 $127 11.275447791185801 $190 $246 forward 7 unknown #
point $-1 -47.820062868129519 -11.275447791185801 7.1023440166996288 #
point $-1 -40.322071577194158 -11.275447791185801 7.1023440166996288 #
edge $-1 $247 1 $247 0 $130 $-1 forward 7 unknown #
vertex $-1 $131 $248 #
ellipse-curve $-1 -42.675572776999388 -5.4429509131152614 2.457805902157213 -0.5877852598018023 0 0.80901698891910034 0.80901698891910034 0 0.5877852598018023 1 I I #
point $-1 -43.262050233742734 -5.4429509131152614 4.9663244495951275 #
plane-surface $-1 47.820062868129519 0 0 -1 0 0 0 0 1 forward_v I I I I #
coedge $-1 $213 $137 $140 $206 reversed $81 $-1 #
edge $-1 $151 -7.1023440166996288 $209 7.1023440166996288 $150 $249 forward 7 unknown #
straight-curve $-1 47.820062868129519 -31.645273574631393 0 0 0 -1 I I #
edge $-1 $207 -31.645273574631393 $209 31.645273574631393 $203 $250 forward 7 unknown #
vertex $-1 $206 $251 #
straight-curve $-1 0 -31.645273574631393 -7.1023440166996288 -1 0 0 I I #
vertex $-1 $143 $252 #
straight-curve $-1 0 31.645273574631393 -7.1023440166996288 1 0 0 I I #
point $-1 47.820062868129519 31.645273574631393 -7.1023440166996288 #
point $-1 47.820062868129519 -31.645273574631393 -7.1023440166996288 #
coedge $-1 $147 $203 $153 $216 reversed $81 $-1 #
straight-curve $-1 -47.820062868129519 0 7.1023440166996288 0 -1 0 I I #
point $-1 -47.820062868129519 31.645273574631393 7.1023440166996288 #
edge $-1 $154 -7.1023440166996288 $207 7.1023440166996288 $213 $253 forward 7 unknown #
point $-1 -47.820062868129519 -31.645273574631393 7.1023440166996288 #
straight-curve $-1 47.820062868129519 31.645273574631393 0 0 0 -1 I I #
plane-surface $-1 -47.820062868129519 0 0 1 0 0 0 0 -1 forward_v I I I I #
coedge $-1 $222 $231 $226 $254 forward $160 $-1 #
coedge $-1 $163 $162 $255 $256 forward $58 $-1 #
coedge $-1 $255 $220 $164 $223 reversed $160 $-1 #
edge $-1 $224 -47.820062868129519 $227 47.820062868129519 $222 $257 forward 7 unknown #
vertex $-1 $256 $258 #
straight-curve $-1 47.820062868129519 0 -7.1023440166996288 0 -1 0 I I #
coedge $-1 $172 $166 $220 $254 reversed $173 $-1 #
vertex $-1 $167 $259 #
straight-curve $-1 -47.820062868129519 0 -7.1023440166996288 0 1 0 I I #
point $-1 -47.820062868129519 -31.645273574631393 -7.1023440166996288 #
point $-1 47.820062868129519 -31.645273574631393 -7.1023440166996288 #
coedge $-1 $220 $255 $175 $232 reversed $160 $-1 #
edge $-1 $233 -47.820062868129519 $235 47.820062868129519 $231 $260 forward 7 unknown #
vertex $-1 $176 $261 #
straight-curve $-1 -47.820062868129519 -34.659125849706953 -4.1023440166996288 0 -1 0 I I #
vertex $-1 $177 $262 #
straight-curve $-1 47.820062868129519 -34.659125849706953 -4.1023440166996288 0 1 0 I I #
coedge $-1 $191 $190 $183 $238 forward $180 $-1 #
edge $-1 $239 32.412266436240103 $242 37.859876090052701 $237 $263 forward 7 unknown #
vertex $-1 $195 $264 #
straight-curve $-1 -52.017959510746792 0.38954596495527838 7.1023440166996252 -1 0 0 I I #
edge $-1 $242 -3.1110214215129091 $192 8.5539723346281704 $191 $265 forward 7 unknown #
vertex $-1 $241 $266 #
straight-curve $-1 -47.820062868129526 0.38954596495527838 1.6547343628870266 0.80901698891910034 0 0.5877852598018023 I I #
point $-1 -40.322071577194158 0.38954596495527838 7.1023440166996288 #
point $-1 -47.820062868129519 -11.275447791185801 1.6547343628870317 #
straight-curve $-1 -47.820062868129519 0 7.1023440166996288 0 -1 0 I I #
vertex $-1 $198 $267 #
point $-1 -41.866555788080284 -5.4429509131152614 3.0455911619590155 #
straight-curve $-1 -47.820062868129519 31.645273574631393 0 0 0 -1 I I #
straight-curve $-1 -47.820062868129519 0 -7.1023440166996288 0 1 0 I I #
point $-1 -47.820062868129519 -31.645273574631393 -7.1023440166996288 #
point $-1 -47.820062868129519 31.645273574631393 -7.1023440166996288 #
straight-curve $-1 -47.820062868129519 -31.645273574631393 0 0 0 -1 I I #
edge $-1 $233 -1.5 $227 1.5 $226 $268 forward 7 unknown #
coedge $-1 $231 $222 $221 $256 reversed $160 $-1 #
edge $-1 $235 -1.5 $224 1.5 $221 $269 forward 7 unknown #
straight-curve $-1 0 -37.67297812478251 -7.1023440166996288 -1 0 0 I I #
point $-1 47.820062868129519 -37.67297812478251 -7.1023440166996288 #
point $-1 -47.820062868129519 -37.67297812478251 -7.1023440166996288 #
straight-curve $-1 0 -37.67297812478251 -4.1023440166996288 1 0 0 I I #
point $-1 -47.820062868129519 -37.67297812478251 -4.1023440166996288 #
point $-1 47.820062868129519 -37.67297812478251 -4.1023440166996288 #
straight-curve $-1 -47.820062868129519 0.38954596495527838 39.514610452939735 0 0 -1 I I #
point $-1 -47.820062868129519 0.38954596495527838 7.1023440166996288 #
straight-curve $-1 -47.820062868129519 -2.7214754565576307 1.6547343628870363 0 -1 0 I I #
point $-1 -47.820062868129519 0.38954596495527838 1.6547343628870317 #
point $-1 -42.087787517197583 -5.4429509131152614 1.6487889132381128 #
straight-curve $-1 -47.820062868129519 -37.67297812478251 -5.6023440166996288 0 0 -1 I I #
straight-curve $-1 47.820062868129519 -37.67297812478251 -5.6023440166996288 0 0 -1 I I #
End-of-ACIS-data 