500 0 2 0           
7 Unknown 11 ACIS 5.0 NT 24 Fri Mar 26 02:29:37 1999 
-1 9.9999999999999995e-007 1e-010 
body $-1 $2 $-1 $3 #
body $-1 $4 $-1 $5 #
lump $-1 $-1 $6 $0 #
transform $-1 1 0 0 0 1 0 0 0 1 77.670827356791904 38.663085752469293 15.154556165100235 1 rotate no_reflect no_shear #
lump $-1 $-1 $7 $1 #
transform $-1 1 0 0 0 1 0 0 0 1 77.670827356791904 38.663085752469293 15.154556165100235 1 rotate no_reflect no_shear #
shell $-1 $-1 $-1 $8 $-1 $2 #
shell $-1 $-1 $-1 $9 $-1 $4 #
face $-1 $10 $11 $6 $-1 $12 forward single #
face $-1 $13 $14 $7 $-1 $15 reversed single #
face $-1 $16 $17 $6 $-1 $18 reversed single #
loop $-1 $-1 $19 $8 #
plane-surface $-1 0 0 15.154556165100235 0 0 1 1 0 0 forward_v I I I I #
face $-1 $20 $21 $7 $-1 $22 reversed single #
loop $-1 $-1 $23 $9 #
plane-surface $-1 -71.623744589380976 -29.674320809350025 0 0 -1 0 0 0 -1 forward_v I I I I #
face $-1 $24 $25 $6 $-1 $26 reversed single #
loop $-1 $-1 $27 $10 #
plane-surface $-1 0 0 -15.154556165100235 0 0 1 1 0 0 forward_v I I I I #
coedge $-1 $28 $29 $30 $31 forward $11 $-1 #
face $-1 $32 $33 $7 $-1 $34 forward single #
loop $-1 $-1 $35 $13 #
plane-surface $-1 -65.576661821970049 -34.168703280909661 0 -1 0 0 0 0 1 forward_v I I I I #
coedge $-1 $36 $37 $38 $39 forward $14 $-1 #
face $-1 $40 $41 $6 $-1 $42 reversed single #
loop $-1 $-1 $43 $16 #
plane-surface $-1 0 -38.663085752469293 0 0 1 0 0 0 1 forward_v I I I I #
coedge $-1 $44 $45 $46 $47 forward $17 $-1 #
coedge $-1 $48 $19 $49 $50 forward $11 $-1 #
coedge $-1 $19 $48 $51 $52 forward $11 $-1 #
coedge $-1 $53 $54 $19 $31 reversed $55 $-1 #
edge $-1 $56 -38.663085752469293 $57 38.663085752469293 $30 $58 forward 7 unknown #
face $-1 $59 $60 $7 $-1 $61 reversed single #
loop $-1 $-1 $62 $20 #
plane-surface $-1 0 0 15.154556165100235 0 0 1 1 0 0 forward_v I I I I #
coedge $-1 $63 $64 $65 $66 reversed $21 $-1 #
coedge $-1 $67 $23 $68 $69 reversed $14 $-1 #
coedge $-1 $23 $67 $70 $71 reversed $14 $-1 #
coedge $-1 $64 $63 $23 $39 reversed $21 $-1 #
edge $-1 $72 -15.154556165100235 $73 15.154556165100235 $38 $74 forward 7 unknown #
face $-1 $75 $76 $6 $-1 $77 reversed single #
loop $-1 $-1 $78 $24 #
plane-surface $-1 -77.670827356791904 0 0 1 0 0 0 0 -1 forward_v I I I I #
coedge $-1 $79 $51 $80 $81 forward $25 $-1 #
coedge $-1 $82 $27 $79 $83 forward $17 $-1 #
coedge $-1 $27 $82 $84 $85 forward $17 $-1 #
coedge $-1 $54 $53 $27 $47 reversed $55 $-1 #
edge $-1 $86 -38.663085752469293 $87 38.663085752469293 $46 $88 forward 7 unknown #
coedge $-1 $29 $28 $89 $90 forward $11 $-1 #
coedge $-1 $91 $92 $28 $50 reversed $76 $-1 #
edge $-1 $57 -77.670827356791904 $93 77.670827356791904 $49 $94 forward 7 unknown #
coedge $-1 $43 $95 $29 $52 reversed $25 $-1 #
edge $-1 $96 -77.670827356791904 $56 77.670827356791904 $51 $97 forward 7 unknown #
coedge $-1 $46 $30 $95 $98 forward $55 $-1 #
coedge $-1 $30 $46 $91 $99 reversed $55 $-1 #
loop $-1 $-1 $53 $75 #
vertex $-1 $31 $100 #
vertex $-1 $31 $101 #
straight-curve $-1 77.670827356791904 0 15.154556165100235 0 1 0 I I #
face $-1 $102 $103 $7 $-1 $104 reversed single #
loop $-1 $-1 $105 $32 #
plane-surface $-1 -77.670827356791904 0 0 1 0 0 0 0 -1 forward_v I I I I #
coedge $-1 $70 $106 $64 $107 forward $33 $-1 #
coedge $-1 $38 $35 $108 $109 reversed $21 $-1 #
coedge $-1 $35 $38 $62 $107 reversed $21 $-1 #
coedge $-1 $110 $111 $35 $66 forward $112 $-1 #
edge $-1 $113 -15.154556165100235 $114 15.154556165100235 $65 $115 forward 7 unknown #
coedge $-1 $37 $36 $105 $116 reversed $14 $-1 #
coedge $-1 $108 $117 $36 $69 forward $103 $-1 #
edge $-1 $118 -41.858955062101415 $73 -29.764789527279561 $68 $119 forward 7 unknown #
coedge $-1 $120 $62 $37 $71 forward $33 $-1 #
edge $-1 $72 29.764789527279561 $121 41.858955062101415 $70 $122 forward 7 unknown #
vertex $-1 $71 $123 #
vertex $-1 $69 $124 #
straight-curve $-1 -65.576661821970049 -29.674320809350025 0 0 0 -1 I I #
face $-1 $-1 $55 $6 $-1 $125 reversed single #
loop $-1 $-1 $91 $40 #
plane-surface $-1 0 38.663085752469293 0 0 -1 0 0 0 -1 forward_v I I I I #
coedge $-1 $126 $89 $92 $127 forward $41 $-1 #
coedge $-1 $95 $43 $44 $83 reversed $25 $-1 #
coedge $-1 $89 $126 $43 $81 reversed $41 $-1 #
edge $-1 $96 -15.154556165100235 $128 15.154556165100235 $80 $129 forward 7 unknown #
coedge $-1 $45 $44 $126 $130 forward $17 $-1 #
edge $-1 $87 -77.670827356791904 $128 77.670827356791904 $79 $131 forward 7 unknown #
coedge $-1 $92 $91 $45 $85 reversed $76 $-1 #
edge $-1 $132 -77.670827356791904 $86 77.670827356791904 $84 $133 forward 7 unknown #
vertex $-1 $47 $134 #
vertex $-1 $98 $135 #
straight-curve $-1 77.670827356791904 0 -15.154556165100235 0 -1 0 I I #
coedge $-1 $78 $80 $48 $90 reversed $41 $-1 #
edge $-1 $93 -38.663085752469293 $96 38.663085752469293 $89 $136 forward 7 unknown #
coedge $-1 $84 $49 $54 $99 forward $76 $-1 #
coedge $-1 $49 $84 $78 $127 reversed $76 $-1 #
vertex $-1 $50 $137 #
straight-curve $-1 0 38.663085752469293 15.154556165100235 -1 0 0 I I #
coedge $-1 $51 $79 $53 $98 reversed $25 $-1 #
vertex $-1 $90 $138 #
straight-curve $-1 0 -38.663085752469293 15.154556165100235 1 0 0 I I #
edge $-1 $56 -15.154556165100235 $87 15.154556165100235 $53 $139 forward 7 unknown #
edge $-1 $57 -15.154556165100235 $86 15.154556165100235 $54 $140 forward 7 unknown #
point $-1 77.670827356791904 -38.663085752469293 15.154556165100235 #
point $-1 77.670827356791904 38.663085752469293 15.154556165100235 #
face $-1 $-1 $112 $7 $-1 $141 reversed single #
loop $-1 $-1 $108 $59 #
plane-surface $-1 0 0 -15.154556165100235 0 0 1 1 0 0 forward_v I I I I #
coedge $-1 $142 $143 $67 $116 forward $60 $-1 #
coedge $-1 $62 $120 $110 $144 forward $33 $-1 #
edge $-1 $114 -21.578734112014462 $72 -12.589969168895195 $62 $145 forward 7 unknown #
coedge $-1 $146 $68 $63 $109 forward $103 $-1 #
edge $-1 $73 12.589969168895195 $113 21.578734112014462 $108 $147 forward 7 unknown #
coedge $-1 $148 $65 $106 $144 reversed $112 $-1 #
coedge $-1 $65 $148 $146 $149 reversed $112 $-1 #
loop $-1 $-1 $65 $102 #
vertex $-1 $149 $150 #
vertex $-1 $66 $151 #
straight-curve $-1 -65.576661821970049 -38.663085752469293 0 0 0 1 I I #
edge $-1 $121 -15.154556165100235 $118 15.154556165100235 $105 $152 forward 7 unknown #
coedge $-1 $68 $146 $142 $153 forward $103 $-1 #
vertex $-1 $69 $154 #
straight-curve $-1 -35.811872294690488 -29.674320809350025 -15.154556165100235 1 0 0 I I #
coedge $-1 $106 $70 $143 $155 forward $33 $-1 #
vertex $-1 $155 $156 #
straight-curve $-1 -35.811872294690488 -29.674320809350025 15.154556165100235 -1 0 0 I I #
point $-1 -65.576661821970049 -29.674320809350025 15.154556165100235 #
point $-1 -65.576661821970049 -29.674320809350025 -15.154556165100235 #
plane-surface $-1 77.670827356791904 0 0 -1 0 0 0 0 1 forward_v I I I I #
coedge $-1 $80 $78 $82 $130 reversed $41 $-1 #
edge $-1 $93 -15.154556165100235 $132 15.154556165100235 $92 $157 forward 7 unknown #
vertex $-1 $130 $158 #
straight-curve $-1 -77.670827356791904 -38.663085752469293 0 0 0 -1 I I #
edge $-1 $128 -38.663085752469293 $132 38.663085752469293 $126 $159 forward 7 unknown #
straight-curve $-1 0 -38.663085752469293 -15.154556165100235 -1 0 0 I I #
vertex $-1 $85 $160 #
straight-curve $-1 0 38.663085752469293 -15.154556165100235 1 0 0 I I #
point $-1 77.670827356791904 38.663085752469293 -15.154556165100235 #
point $-1 77.670827356791904 -38.663085752469293 -15.154556165100235 #
straight-curve $-1 -77.670827356791904 0 15.154556165100235 0 -1 0 I I #
point $-1 -77.670827356791904 38.663085752469293 15.154556165100235 #
point $-1 -77.670827356791904 -38.663085752469293 15.154556165100235 #
straight-curve $-1 77.670827356791904 -38.663085752469293 0 0 0 -1 I I #
straight-curve $-1 77.670827356791904 38.663085752469293 0 0 0 -1 I I #
plane-surface $-1 0 -38.663085752469293 0 0 1 0 0 0 1 forward_v I I I I #
coedge $-1 $161 $105 $117 $153 reversed $60 $-1 #
coedge $-1 $105 $161 $120 $155 reversed $60 $-1 #
edge $-1 $162 -77.670827356791904 $114 -65.576661821970049 $110 $163 forward 7 unknown #
straight-curve $-1 -65.576661821970049 -17.08435164045483 15.154556165100235 0 1 0 I I #
coedge $-1 $117 $108 $111 $149 forward $103 $-1 #
straight-curve $-1 -65.576661821970049 -17.08435164045483 -15.154556165100235 0 -1 0 I I #
coedge $-1 $111 $110 $161 $164 forward $112 $-1 #
edge $-1 $113 65.576661821970049 $165 77.670827356791904 $111 $166 forward 7 unknown #
point $-1 -65.576661821970049 -38.663085752469293 -15.154556165100235 #
point $-1 -65.576661821970049 -38.663085752469293 15.154556165100235 #
straight-curve $-1 -77.670827356791904 -29.674320809350025 0 0 0 -1 I I #
edge $-1 $165 -38.663085752469293 $118 -29.674320809350025 $142 $167 forward 7 unknown #
point $-1 -77.670827356791904 -29.674320809350025 -15.154556165100235 #
edge $-1 $121 29.674320809350025 $162 38.663085752469293 $143 $168 forward 7 unknown #
point $-1 -77.670827356791904 -29.674320809350025 15.154556165100235 #
straight-curve $-1 -77.670827356791904 38.663085752469293 0 0 0 -1 I I #
point $-1 -77.670827356791904 -38.663085752469293 -15.154556165100235 #
straight-curve $-1 -77.670827356791904 0 -15.154556165100235 0 1 0 I I #
point $-1 -77.670827356791904 38.663085752469293 -15.154556165100235 #
coedge $-1 $143 $142 $148 $164 reversed $60 $-1 #
vertex $-1 $155 $169 #
straight-curve $-1 0 -38.663085752469293 15.154556165100235 1 0 0 I I #
edge $-1 $162 -15.154556165100235 $165 15.154556165100235 $161 $170 forward 7 unknown #
vertex $-1 $153 $171 #
straight-curve $-1 0 -38.663085752469293 -15.154556165100235 -1 0 0 I I #
straight-curve $-1 -77.670827356791904 0 -15.154556165100235 0 1 0 I I #
straight-curve $-1 -77.670827356791904 0 15.154556165100235 0 -1 0 I I #
point $-1 -77.670827356791904 -38.663085752469293 15.154556165100235 #
straight-curve $-1 -77.670827356791904 -38.663085752469293 0 0 0 -1 I I #
point $-1 -77.670827356791904 -38.663085752469293 -15.154556165100235 #
End-of-ACIS-data 