500 0 14 0           
7 Unknown 11 ACIS 5.0 NT 24 Fri Mar 26 20:22:36 1999 
-1 9.9999999999999995e-007 1e-010 
body $-1 $14 $-1 $15 #
body $-1 $16 $-1 $17 #
body $-1 $18 $-1 $19 #
body $-1 $20 $-1 $21 #
body $-1 $22 $-1 $23 #
body $-1 $24 $-1 $25 #
body $-1 $26 $-1 $27 #
body $-1 $28 $-1 $29 #
body $-1 $30 $-1 $31 #
body $-1 $32 $-1 $33 #
body $-1 $34 $-1 $35 #
body $-1 $36 $-1 $37 #
body $-1 $38 $-1 $39 #
body $-1 $40 $-1 $41 #
lump $-1 $-1 $42 $0 #
transform $-1 1 0 0 0 1 0 0 0 1 58.85433515427107 38.616971965187922 10.349636048582028 1 rotate no_reflect no_shear #
lump $-1 $-1 $43 $1 #
transform $-1 1 0 0 0 1 0 0 0 1 58.85433515427107 38.616971965187922 10.349636048582028 1 rotate no_reflect no_shear #
lump $-1 $-1 $44 $2 #
transform $-1 1 0 0 0 1 0 0 0 1 58.85433515427107 38.616971965187922 10.349636048582028 1 rotate no_reflect no_shear #
lump $-1 $-1 $45 $3 #
transform $-1 1 0 0 0 1 0 0 0 1 58.85433515427107 38.616971965187922 10.349636048582028 1 rotate no_reflect no_shear #
lump $-1 $-1 $46 $4 #
transform $-1 1 0 0 0 1 0 0 0 1 58.85433515427107 38.616971965187922 10.349636048582028 1 rotate no_reflect no_shear #
lump $-1 $-1 $47 $5 #
transform $-1 1 0 0 0 1 0 0 0 1 58.85433515427107 38.616971965187922 10.349636048582028 1 rotate no_reflect no_shear #
lump $-1 $-1 $48 $6 #
transform $-1 1 0 0 0 1 0 0 0 1 58.85433515427107 38.616971965187922 10.349636048582028 1 rotate no_reflect no_shear #
lump $-1 $-1 $49 $7 #
transform $-1 1 0 0 0 1 0 0 0 1 58.85433515427107 38.616971965187922 10.349636048582028 1 rotate no_reflect no_shear #
lump $-1 $-1 $50 $8 #
transform $-1 1 0 0 0 1 0 0 0 1 58.85433515427107 38.616971965187922 10.349636048582028 1 rotate no_reflect no_shear #
lump $-1 $-1 $51 $9 #
transform $-1 1 0 0 0 1 0 0 0 1 58.85433515427107 38.616971965187922 10.349636048582028 1 rotate no_reflect no_shear #
lump $-1 $-1 $52 $10 #
transform $-1 1 0 0 0 1 0 0 0 1 58.85433515427107 38.616971965187922 10.349636048582028 1 rotate no_reflect no_shear #
lump $-1 $-1 $53 $11 #
transform $-1 1 0 0 0 1 0 0 0 1 58.85433515427107 38.616971965187922 10.349636048582028 1 rotate no_reflect no_shear #
lump $-1 $-1 $54 $12 #
transform $-1 1 0 0 0 1 0 0 0 1 58.85433515427107 38.616971965187922 10.349636048582028 1 rotate no_reflect no_shear #
lump $-1 $-1 $55 $13 #
transform $-1 1 0 0 0 1 0 0 0 1 58.85433515427107 38.616971965187922 10.349636048582028 1 rotate no_reflect no_shear #
shell $-1 $-1 $-1 $56 $-1 $14 #
shell $-1 $-1 $-1 $57 $-1 $16 #
shell $-1 $-1 $-1 $58 $-1 $18 #
shell $-1 $-1 $-1 $59 $-1 $20 #
shell $-1 $-1 $-1 $60 $-1 $22 #
shell $-1 $-1 $-1 $61 $-1 $24 #
shell $-1 $-1 $-1 $62 $-1 $26 #
shell $-1 $-1 $-1 $63 $-1 $28 #
shell $-1 $-1 $-1 $64 $-1 $30 #
shell $-1 $-1 $-1 $65 $-1 $32 #
shell $-1 $-1 $-1 $66 $-1 $34 #
shell $-1 $-1 $-1 $67 $-1 $36 #
shell $-1 $-1 $-1 $68 $-1 $38 #
shell $-1 $-1 $-1 $69 $-1 $40 #
face $-1 $70 $71 $42 $-1 $72 forward single #
face $-1 $73 $74 $43 $-1 $75 forward single #
face $-1 $76 $77 $44 $-1 $78 reversed single #
face $-1 $79 $80 $45 $-1 $81 forward single #
face $-1 $82 $83 $46 $-1 $84 reversed single #
face $-1 $85 $86 $47 $-1 $87 forward single #
face $-1 $88 $89 $48 $-1 $90 reversed single #
face $-1 $91 $92 $49 $-1 $93 forward single #
face $-1 $94 $95 $50 $-1 $96 reversed single #
face $-1 $97 $98 $51 $-1 $99 forward single #
face $-1 $100 $101 $52 $-1 $102 reversed single #
face $-1 $103 $104 $53 $-1 $105 forward single #
face $-1 $106 $107 $54 $-1 $108 forward single #
face $-1 $109 $110 $55 $-1 $111 forward single #
face $-1 $112 $113 $42 $-1 $114 reversed single #
loop $-1 $-1 $115 $56 #
plane-surface $-1 0 0 10.349636048582028 0 0 1 1 0 0 forward_v I I I I #
face $-1 $116 $117 $43 $-1 $118 reversed single #
loop $-1 $-1 $119 $57 #
plane-surface $-1 0 -34.074840865929843 -6.0426940877294975 0 0 1 1 0 0 forward_v I I I I #
face $-1 $120 $121 $44 $-1 $122 reversed single #
loop $-1 $-1 $123 $58 #
plane-surface $-1 38.567332397990882 -15.341188737237196 166.94320223567277 0 -1 0 -0.61566148304635926 0 -0.78801074757464917 forward_v I I I I #
face $-1 $124 $125 $45 $-1 $126 forward single #
loop $-1 $127 $128 $59 #
cone-surface $-1 52.204881401507478 -19.795735581997945 4.5930379848473395 -0.61566148304635926 0 -0.78801074757464917 1.1820161213619738 0 -0.92349222456953894 1 I I 0 1 1.5 forward I I I I #
face $-1 $129 $130 $46 $-1 $131 reversed single #
loop $-1 $-1 $132 $60 #
plane-surface $-1 38.567332397990882 0.88405571693348772 166.94320223567277 0 -1 0 -0.61566148304635926 0 -0.78801074757464917 forward_v I I I I #
face $-1 $133 $134 $47 $-1 $135 forward single #
loop $-1 $136 $137 $61 #
cone-surface $-1 52.204881401507478 -3.5704911278272604 4.5930379848473395 -0.61566148304635926 0 -0.78801074757464917 1.1820161213619738 0 -0.92349222456953894 1 I I 0 1 1.5 forward I I I I #
face $-1 $138 $139 $48 $-1 $140 reversed single #
loop $-1 $-1 $141 $62 #
plane-surface $-1 38.567332397990882 17.109300171104167 166.94320223567277 0 -1 0 -0.61566148304635926 0 -0.78801074757464917 forward_v I I I I #
face $-1 $142 $143 $49 $-1 $144 forward single #
loop $-1 $145 $146 $63 #
cone-surface $-1 52.204881401507478 12.654753326343418 4.5930379848473395 -0.61566148304635926 0 -0.78801074757464917 1.1820161213619738 0 -0.92349222456953894 1 I I 0 1 1.5 forward I I I I #
face $-1 $147 $148 $50 $-1 $149 reversed single #
loop $-1 $-1 $150 $64 #
plane-surface $-1 38.567332397990882 33.334544625274845 166.94320223567277 0 -1 0 -0.61566148304635926 0 -0.78801074757464917 forward_v I I I I #
face $-1 $151 $152 $51 $-1 $153 forward single #
loop $-1 $154 $155 $65 #
cone-surface $-1 52.204881401507478 28.879997780514095 4.5930379848473395 -0.61566148304635926 0 -0.78801074757464917 1.1820161213619738 0 -0.92349222456953894 1 I I 0 1 1.5 forward I I I I #
face $-1 $156 $157 $52 $-1 $158 reversed single #
loop $-1 $-1 $159 $66 #
plane-surface $-1 -139.13145622426697 28.25922697807178 91.944039417901024 0 1 0 -0.68199836817093118 0 0.7313536940579346 forward_v I I I I #
face $-1 $160 $161 $53 $-1 $162 forward single #
loop $-1 $163 $164 $67 #
cone-surface $-1 -56.099116069958534 30.330775975495008 7.7318883864577677 0.68199836817093118 0 -0.7313536940579346 0.3656768470289673 0 0.34099918408546559 1 I I 0 1 0.5 forward I I I I #
face $-1 $165 $166 $54 $-1 $167 forward single #
loop $-1 $168 $169 $68 #
cone-surface $-1 -56.099116069958534 33.438099471629847 7.7318883864577677 0.68199836817093118 0 -0.7313536940579346 0.3656768470289673 0 0.34099918408546559 1 I I 0 1 0.5 forward I I I I #
face $-1 $170 $171 $55 $-1 $172 forward single #
loop $-1 $173 $174 $69 #
cone-surface $-1 -56.099116069958534 36.545422967764686 7.7318883864577677 0.68199836817093118 0 -0.7313536940579346 0.3656768470289673 0 0.34099918408546559 1 I I 0 1 0.5 forward I I I I #
face $-1 $175 $176 $42 $-1 $177 reversed single #
loop $-1 $-1 $178 $70 #
plane-surface $-1 0 0 -10.349636048582028 0 0 1 1 0 0 forward_v I I I I #
coedge $-1 $179 $180 $181 $182 forward $71 $-1 #
face $-1 $183 $184 $43 $-1 $185 reversed single #
loop $-1 $-1 $186 $73 #
plane-surface $-1 0 -29.532709766671765 -8.1961650681557625 0 -1 0 0 0 -1 forward_v I I I I #
coedge $-1 $187 $188 $189 $190 reversed $74 $-1 #
face $-1 $191 $192 $44 $-1 $193 reversed single #
loop $-1 $-1 $194 $76 #
plane-surface $-1 -33.901362131581124 -19.795735581997945 74.187504949820564 0.61566148304635926 0 0.78801074757464917 0.78801074757464917 0 -0.61566148304635926 forward_v I I I I #
coedge $-1 $195 $196 $197 $198 reversed $77 $-1 #
face $-1 $-1 $199 $45 $-1 $200 forward single #
loop $-1 $201 $202 $79 #
cone-surface $-1 50.617157945862317 -19.795735581997945 2.5608446745984068 -0.61566148304635926 0 -0.78801074757464917 0.59100806068098688 0 -0.46174611228476947 1 I I -0.70710678118654724 0.70710678118654768 0.75 forward I I I I #
loop $-1 $-1 $203 $59 #
coedge $-1 $128 $128 $204 $205 reversed $80 $-1 #
face $-1 $206 $207 $46 $-1 $208 reversed single #
loop $-1 $-1 $209 $82 #
plane-surface $-1 -33.901362131581124 -3.5704911278272604 74.187504949820564 0.61566148304635926 0 0.78801074757464917 0.78801074757464917 0 -0.61566148304635926 forward_v I I I I #
coedge $-1 $210 $211 $212 $213 reversed $83 $-1 #
face $-1 $-1 $214 $47 $-1 $215 forward single #
loop $-1 $216 $217 $85 #
cone-surface $-1 50.617157945862317 -3.5704911278272604 2.5608446745984068 -0.61566148304635926 0 -0.78801074757464917 0.59100806068098688 0 -0.46174611228476947 1 I I -0.70710678118654724 0.70710678118654768 0.75 forward I I I I #
loop $-1 $-1 $218 $61 #
coedge $-1 $137 $137 $219 $220 reversed $86 $-1 #
face $-1 $221 $222 $48 $-1 $223 reversed single #
loop $-1 $-1 $224 $88 #
plane-surface $-1 -33.901362131581124 12.654753326343418 74.187504949820564 0.61566148304635926 0 0.78801074757464917 0.78801074757464917 0 -0.61566148304635926 forward_v I I I I #
coedge $-1 $225 $226 $227 $228 reversed $89 $-1 #
face $-1 $-1 $229 $49 $-1 $230 forward single #
loop $-1 $231 $232 $91 #
cone-surface $-1 50.617157945862317 12.654753326343418 2.5608446745984068 -0.61566148304635926 0 -0.78801074757464917 0.59100806068098688 0 -0.46174611228476947 1 I I -0.70710678118654724 0.70710678118654768 0.75 forward I I I I #
loop $-1 $-1 $233 $63 #
coedge $-1 $146 $146 $234 $235 reversed $92 $-1 #
face $-1 $236 $237 $50 $-1 $238 reversed single #
loop $-1 $-1 $239 $94 #
plane-surface $-1 -33.901362131581124 28.879997780514095 74.187504949820564 0.61566148304635926 0 0.78801074757464917 0.78801074757464917 0 -0.61566148304635926 forward_v I I I I #
coedge $-1 $240 $241 $242 $243 reversed $95 $-1 #
face $-1 $-1 $244 $51 $-1 $245 forward single #
loop $-1 $246 $247 $97 #
cone-surface $-1 50.617157945862317 28.879997780514095 2.5608446745984068 -0.61566148304635926 0 -0.78801074757464917 0.59100806068098688 0 -0.46174611228476947 1 I I -0.70710678118654724 0.70710678118654768 0.75 forward I I I I #
loop $-1 $-1 $248 $65 #
coedge $-1 $155 $155 $249 $250 reversed $98 $-1 #
face $-1 $251 $252 $52 $-1 $253 reversed single #
loop $-1 $-1 $254 $100 #
plane-surface $-1 -58.854335154271098 33.438099471629847 5.8573685651012113 -0.68199836817093118 0 0.7313536940579346 0.7313536940579346 0 0.68199836817093118 forward_v I I I I #
coedge $-1 $255 $256 $257 $258 reversed $101 $-1 #
face $-1 $-1 $259 $53 $-1 $260 forward single #
loop $-1 $261 $262 $103 #
cone-surface $-1 -55.582080883236337 30.330775975495008 7.1774360425594352 0.68199836817093118 0 -0.7313536940579346 0.18283842351448365 0 0.17049959204273279 1 I I -0.70710678118654746 0.70710678118654746 0.25 forward I I I I #
loop $-1 $-1 $263 $67 #
coedge $-1 $164 $164 $264 $265 reversed $104 $-1 #
face $-1 $-1 $266 $54 $-1 $267 forward single #
loop $-1 $268 $269 $106 #
cone-surface $-1 -55.582080883236337 33.438099471629847 7.1774360425594352 0.68199836817093118 0 -0.7313536940579346 0.18283842351448365 0 0.17049959204273279 1 I I -0.70710678118654746 0.70710678118654746 0.25 forward I I I I #
loop $-1 $-1 $270 $68 #
coedge $-1 $169 $169 $271 $272 reversed $107 $-1 #
face $-1 $-1 $273 $55 $-1 $274 forward single #
loop $-1 $275 $276 $109 #
cone-surface $-1 -55.582080883236337 36.545422967764686 7.1774360425594352 0.68199836817093118 0 -0.7313536940579346 0.18283842351448365 0 0.17049959204273279 1 I I -0.70710678118654746 0.70710678118654746 0.25 forward I I I I #
loop $-1 $-1 $277 $69 #
coedge $-1 $174 $174 $278 $279 reversed $110 $-1 #
face $-1 $280 $281 $42 $-1 $282 reversed single #
loop $-1 $-1 $283 $112 #
plane-surface $-1 0 -38.616971965187922 0 0 1 0 0 0 1 forward_v I I I I #
coedge $-1 $284 $285 $286 $287 forward $113 $-1 #
coedge $-1 $288 $115 $289 $290 forward $71 $-1 #
coedge $-1 $115 $288 $291 $292 forward $71 $-1 #
coedge $-1 $293 $294 $115 $182 reversed $295 $-1 #
edge $-1 $296 -38.616971965187922 $297 38.616971965187922 $181 $298 forward 7 unknown #
face $-1 $299 $300 $43 $-1 $301 reversed single #
loop $-1 $-1 $302 $116 #
plane-surface $-1 0 0 -10.349636048582028 0 0 1 1 0 0 forward_v I I I I #
coedge $-1 $303 $304 $305 $306 reversed $117 $-1 #
coedge $-1 $307 $119 $304 $308 forward $74 $-1 #
coedge $-1 $119 $307 $309 $310 reversed $74 $-1 #
coedge $-1 $311 $305 $119 $190 forward $300 $-1 #
edge $-1 $312 12.495289333706843 $313 21.579551532223 $189 $314 forward 7 unknown #
face $-1 $315 $316 $44 $-1 $317 reversed single #
loop $-1 $-1 $318 $120 #
plane-surface $-1 38.567332397990882 -24.250282426758694 166.94320223567277 0 1 0 0.61566148304635926 0 0.78801074757464917 forward_v I I I I #
coedge $-1 $319 $320 $321 $322 reversed $121 $-1 #
coedge $-1 $196 $123 $323 $324 reversed $77 $-1 #
coedge $-1 $123 $195 $319 $325 reversed $77 $-1 #
coedge $-1 $321 $326 $123 $198 forward $327 $-1 #
edge $-1 $328 -39.570668955275629 $329 -28.523716136469254 $197 $330 forward 7 unknown #
loop $-1 $-1 $204 $124 #
plane-surface $-1 -33.901362131581124 -19.795735581997945 74.187504949820564 0.61566148304635926 0 0.78801074757464917 0.78801074757464917 0 -0.61566148304635926 forward_v I I I I #
loop $-1 $-1 $331 $79 #
coedge $-1 $202 $202 $203 $332 reversed $125 $-1 #
coedge $-1 $203 $203 $202 $332 forward $127 $-1 #
coedge $-1 $204 $204 $128 $205 forward $199 $-1 #
edge $-1 $333 0 $333 6.2831853071796004 $204 $334 forward 7 unknown #
face $-1 $335 $336 $46 $-1 $337 reversed single #
loop $-1 $-1 $338 $129 #
plane-surface $-1 38.567332397990882 -8.0250379725880094 166.94320223567277 0 1 0 0.61566148304635926 0 0.78801074757464917 forward_v I I I I #
coedge $-1 $339 $340 $341 $342 reversed $130 $-1 #
coedge $-1 $211 $132 $343 $344 reversed $83 $-1 #
coedge $-1 $132 $210 $339 $345 reversed $83 $-1 #
coedge $-1 $341 $346 $132 $213 forward $347 $-1 #
edge $-1 $348 -39.570668955275629 $349 -28.523716136469254 $212 $350 forward 7 unknown #
loop $-1 $-1 $219 $133 #
plane-surface $-1 -33.901362131581124 -3.5704911278272604 74.187504949820564 0.61566148304635926 0 0.78801074757464917 0.78801074757464917 0 -0.61566148304635926 forward_v I I I I #
loop $-1 $-1 $351 $85 #
coedge $-1 $217 $217 $218 $352 reversed $134 $-1 #
coedge $-1 $218 $218 $217 $352 forward $136 $-1 #
coedge $-1 $219 $219 $137 $220 forward $214 $-1 #
edge $-1 $353 0 $353 6.2831853071796004 $219 $354 forward 7 unknown #
face $-1 $355 $356 $48 $-1 $357 reversed single #
loop $-1 $-1 $358 $138 #
plane-surface $-1 38.567332397990882 8.2002064815826685 166.94320223567277 0 1 0 0.61566148304635926 0 0.78801074757464917 forward_v I I I I #
coedge $-1 $359 $360 $361 $362 reversed $139 $-1 #
coedge $-1 $226 $141 $363 $364 reversed $89 $-1 #
coedge $-1 $141 $225 $359 $365 reversed $89 $-1 #
coedge $-1 $361 $366 $141 $228 forward $367 $-1 #
edge $-1 $368 -39.570668955275629 $369 -28.523716136469254 $227 $370 forward 7 unknown #
loop $-1 $-1 $234 $142 #
plane-surface $-1 -33.901362131581124 12.654753326343418 74.187504949820564 0.61566148304635926 0 0.78801074757464917 0.78801074757464917 0 -0.61566148304635926 forward_v I I I I #
loop $-1 $-1 $371 $91 #
coedge $-1 $232 $232 $233 $372 reversed $143 $-1 #
coedge $-1 $233 $233 $232 $372 forward $145 $-1 #
coedge $-1 $234 $234 $146 $235 forward $229 $-1 #
edge $-1 $373 0 $373 6.2831853071796004 $234 $374 forward 7 unknown #
face $-1 $375 $376 $50 $-1 $377 reversed single #
loop $-1 $-1 $378 $147 #
plane-surface $-1 38.567332397990882 24.425450935753346 166.94320223567277 0 1 0 0.61566148304635926 0 0.78801074757464917 forward_v I I I I #
coedge $-1 $379 $380 $381 $382 reversed $148 $-1 #
coedge $-1 $241 $150 $383 $384 reversed $95 $-1 #
coedge $-1 $150 $240 $379 $385 reversed $95 $-1 #
coedge $-1 $381 $386 $150 $243 forward $387 $-1 #
edge $-1 $388 -39.570668955275629 $389 -28.523716136469254 $242 $390 forward 7 unknown #
loop $-1 $-1 $249 $151 #
plane-surface $-1 -33.901362131581124 28.879997780514095 74.187504949820564 0.61566148304635926 0 0.78801074757464917 0.78801074757464917 0 -0.61566148304635926 forward_v I I I I #
loop $-1 $-1 $391 $97 #
coedge $-1 $247 $247 $248 $392 reversed $152 $-1 #
coedge $-1 $248 $248 $247 $392 forward $154 $-1 #
coedge $-1 $249 $249 $155 $250 forward $244 $-1 #
edge $-1 $393 0 $393 6.2831853071796004 $249 $394 forward 7 unknown #
face $-1 $395 $396 $52 $-1 $397 reversed single #
loop $-1 $-1 $398 $156 #
plane-surface $-1 0 38.616971965187922 0 0 -1 0 0 0 -1 forward_v I I I I #
coedge $-1 $399 $400 $401 $402 reversed $157 $-1 #
coedge $-1 $256 $159 $403 $404 reversed $101 $-1 #
coedge $-1 $159 $255 $399 $405 reversed $101 $-1 #
coedge $-1 $401 $406 $159 $258 forward $407 $-1 #
edge $-1 $408 10.711392957862415 $409 15.528759937128527 $257 $410 forward 7 unknown #
loop $-1 $-1 $264 $160 #
plane-surface $-1 -58.854335154271098 33.438099471629847 5.8573685651012113 -0.68199836817093118 0 0.7313536940579346 0.7313536940579346 0 0.68199836817093118 forward_v I I I I #
loop $-1 $-1 $411 $103 #
coedge $-1 $262 $262 $263 $412 reversed $161 $-1 #
coedge $-1 $263 $263 $262 $412 forward $163 $-1 #
coedge $-1 $264 $264 $164 $265 forward $259 $-1 #
edge $-1 $413 0 $413 6.2831853071796004 $264 $414 forward 7 unknown #
loop $-1 $-1 $271 $165 #
plane-surface $-1 -58.854335154271098 33.438099471629847 5.8573685651012113 -0.68199836817093118 0 0.7313536940579346 0.7313536940579346 0 0.68199836817093118 forward_v I I I I #
loop $-1 $-1 $415 $106 #
coedge $-1 $269 $269 $270 $416 reversed $166 $-1 #
coedge $-1 $270 $270 $269 $416 forward $168 $-1 #
coedge $-1 $271 $271 $169 $272 forward $266 $-1 #
edge $-1 $417 0 $417 6.2831853071796004 $271 $418 forward 7 unknown #
loop $-1 $-1 $278 $170 #
plane-surface $-1 -58.854335154271098 33.438099471629847 5.8573685651012113 -0.68199836817093118 0 0.7313536940579346 0.7313536940579346 0 0.68199836817093118 forward_v I I I I #
loop $-1 $-1 $419 $109 #
coedge $-1 $276 $276 $277 $420 reversed $171 $-1 #
coedge $-1 $277 $277 $276 $420 forward $173 $-1 #
coedge $-1 $278 $278 $174 $279 forward $273 $-1 #
edge $-1 $421 0 $421 6.2831853071796004 $278 $422 forward 7 unknown #
face $-1 $423 $424 $42 $-1 $425 reversed single #
loop $-1 $-1 $426 $175 #
plane-surface $-1 -58.85433515427107 0 0 1 0 0 0 0 -1 forward_v I I I I #
coedge $-1 $427 $291 $428 $429 forward $176 $-1 #
coedge $-1 $430 $178 $427 $431 forward $113 $-1 #
coedge $-1 $178 $430 $432 $433 forward $113 $-1 #
coedge $-1 $294 $293 $178 $287 reversed $295 $-1 #
edge $-1 $434 -38.616971965187922 $435 38.616971965187922 $286 $436 forward 7 unknown #
coedge $-1 $180 $179 $437 $438 forward $71 $-1 #
coedge $-1 $439 $440 $179 $290 reversed $424 $-1 #
edge $-1 $297 -58.85433515427107 $441 58.85433515427107 $289 $442 forward 7 unknown #
coedge $-1 $283 $443 $180 $292 reversed $176 $-1 #
edge $-1 $444 -58.85433515427107 $296 58.85433515427107 $291 $445 forward 7 unknown #
coedge $-1 $286 $181 $443 $446 forward $295 $-1 #
coedge $-1 $181 $286 $439 $447 reversed $295 $-1 #
loop $-1 $-1 $293 $423 #
vertex $-1 $182 $448 #
vertex $-1 $182 $449 #
straight-curve $-1 58.85433515427107 0 10.349636048582028 0 1 0 I I #
face $-1 $450 $451 $43 $-1 $452 reversed single #
loop $-1 $-1 $305 $183 #
plane-surface $-1 58.85433515427107 0 0 -1 0 0 0 0 1 forward_v I I I I #
coedge $-1 $453 $454 $303 $455 forward $184 $-1 #
coedge $-1 $456 $186 $302 $455 reversed $117 $-1 #
coedge $-1 $186 $456 $187 $308 reversed $117 $-1 #
coedge $-1 $189 $457 $186 $306 forward $300 $-1 #
edge $-1 $458 -6.2515535145041463 $312 -1.9446115536516162 $305 $459 forward 7 unknown #
coedge $-1 $188 $187 $460 $461 reversed $74 $-1 #
edge $-1 $312 -58.85433515427107 $462 58.85433515427107 $304 $463 forward 7 unknown #
coedge $-1 $464 $465 $188 $310 forward $451 $-1 #
edge $-1 $313 -58.85433515427107 $466 58.85433515427107 $309 $467 forward 7 unknown #
coedge $-1 $457 $189 $465 $468 forward $300 $-1 #
vertex $-1 $190 $469 #
vertex $-1 $468 $470 #
straight-curve $-1 58.85433515427107 -17.037420432964922 -6.0426940877294975 0 -1 0 I I #
face $-1 $-1 $327 $44 $-1 $471 forward single #
loop $-1 $-1 $472 $191 #
plane-surface $-1 58.85433515427107 0 0 -1 0 0 0 0 1 forward_v I I I I #
coedge $-1 $473 $474 $475 $476 reversed $192 $-1 #
coedge $-1 $477 $194 $196 $325 forward $121 $-1 #
coedge $-1 $194 $477 $473 $478 forward $121 $-1 #
coedge $-1 $475 $197 $194 $322 forward $327 $-1 #
edge $-1 $329 5.4433209462382237 $479 14.352414635759722 $321 $480 forward 7 unknown #
coedge $-1 $481 $482 $195 $324 forward $316 $-1 #
edge $-1 $483 -81.752790697587827 $328 -73.121965069254358 $323 $484 forward 7 unknown #
edge $-1 $329 103.68988585311833 $483 117.70867030854212 $196 $485 forward 7 unknown #
coedge $-1 $197 $475 $481 $486 forward $327 $-1 #
loop $-1 $-1 $475 $315 #
vertex $-1 $324 $487 #
vertex $-1 $198 $488 #
straight-curve $-1 19.283666198995441 -15.341188737237196 10.349636048582028 -1 0 0 I I #
coedge $-1 $331 $331 $-1 $489 reversed $201 $-1 #
edge $-1 $490 0 $490 6.2831853071796004 $202 $491 forward 7 unknown #
vertex $-1 $205 $492 #
ellipse-curve $-1 53.330858744867875 -19.795735581997945 6.0342232344152951 0.61566148304635926 0 0.78801074757464917 1.1820161213619738 0 -0.92349222456953894 1 I I #
face $-1 $-1 $347 $46 $-1 $493 forward single #
loop $-1 $-1 $494 $206 #
plane-surface $-1 58.85433515427107 0 0 -1 0 0 0 0 1 forward_v I I I I #
coedge $-1 $495 $496 $497 $498 reversed $207 $-1 #
coedge $-1 $499 $209 $211 $345 forward $130 $-1 #
coedge $-1 $209 $499 $495 $500 forward $130 $-1 #
coedge $-1 $497 $212 $209 $342 forward $347 $-1 #
edge $-1 $349 -2.6693012808471179 $501 6.2397924086743792 $341 $502 forward 7 unknown #
coedge $-1 $503 $504 $210 $344 forward $336 $-1 #
edge $-1 $505 -81.752790697587827 $348 -73.121965069254358 $343 $506 forward 7 unknown #
edge $-1 $349 103.68988585311833 $505 117.70867030854212 $211 $507 forward 7 unknown #
coedge $-1 $212 $497 $503 $508 forward $347 $-1 #
loop $-1 $-1 $497 $335 #
vertex $-1 $344 $509 #
vertex $-1 $213 $510 #
straight-curve $-1 19.283666198995441 0.88405571693348772 10.349636048582028 -1 0 0 I I #
coedge $-1 $351 $351 $-1 $511 reversed $216 $-1 #
edge $-1 $512 0 $512 6.2831853071796004 $217 $513 forward 7 unknown #
vertex $-1 $220 $514 #
ellipse-curve $-1 53.330858744867875 -3.5704911278272604 6.0342232344152951 0.61566148304635926 0 0.78801074757464917 1.1820161213619738 0 -0.92349222456953894 1 I I #
face $-1 $-1 $367 $48 $-1 $515 forward single #
loop $-1 $-1 $516 $221 #
plane-surface $-1 58.85433515427107 0 0 -1 0 0 0 0 1 forward_v I I I I #
coedge $-1 $517 $518 $519 $520 reversed $222 $-1 #
coedge $-1 $521 $224 $226 $365 forward $139 $-1 #
coedge $-1 $224 $521 $517 $522 forward $139 $-1 #
coedge $-1 $519 $227 $224 $362 forward $367 $-1 #
edge $-1 $369 -10.781923507932458 $523 -1.8728298184109597 $361 $524 forward 7 unknown #
coedge $-1 $525 $526 $225 $364 forward $356 $-1 #
edge $-1 $527 -81.752790697587827 $368 -73.121965069254358 $363 $528 forward 7 unknown #
edge $-1 $369 103.68988585311833 $527 117.70867030854212 $226 $529 forward 7 unknown #
coedge $-1 $227 $519 $525 $530 forward $367 $-1 #
loop $-1 $-1 $519 $355 #
vertex $-1 $364 $531 #
vertex $-1 $228 $532 #
straight-curve $-1 19.283666198995441 17.109300171104167 10.349636048582028 -1 0 0 I I #
coedge $-1 $371 $371 $-1 $533 reversed $231 $-1 #
edge $-1 $534 0 $534 6.2831853071796004 $232 $535 forward 7 unknown #
vertex $-1 $235 $536 #
ellipse-curve $-1 53.330858744867875 12.654753326343418 6.0342232344152951 0.61566148304635926 0 0.78801074757464917 1.1820161213619738 0 -0.92349222456953894 1 I I #
face $-1 $-1 $387 $50 $-1 $537 forward single #
loop $-1 $-1 $538 $236 #
plane-surface $-1 58.85433515427107 0 0 -1 0 0 0 0 1 forward_v I I I I #
coedge $-1 $539 $540 $541 $542 reversed $237 $-1 #
coedge $-1 $543 $239 $241 $385 forward $148 $-1 #
coedge $-1 $239 $543 $539 $544 forward $148 $-1 #
coedge $-1 $541 $242 $239 $382 forward $387 $-1 #
edge $-1 $389 -18.894545735017797 $545 -9.9854520454962987 $381 $546 forward 7 unknown #
coedge $-1 $547 $548 $240 $384 forward $376 $-1 #
edge $-1 $549 -81.752790697587827 $388 -73.121965069254358 $383 $550 forward 7 unknown #
edge $-1 $389 103.68988585311833 $549 117.70867030854212 $241 $551 forward 7 unknown #
coedge $-1 $242 $541 $547 $552 forward $387 $-1 #
loop $-1 $-1 $541 $375 #
vertex $-1 $384 $553 #
vertex $-1 $243 $554 #
straight-curve $-1 19.283666198995441 33.334544625274845 10.349636048582028 -1 0 0 I I #
coedge $-1 $391 $391 $-1 $555 reversed $246 $-1 #
edge $-1 $556 0 $556 6.2831853071796004 $247 $557 forward 7 unknown #
vertex $-1 $250 $558 #
ellipse-curve $-1 53.330858744867875 28.879997780514095 6.0342232344152951 0.61566148304635926 0 0.78801074757464917 1.1820161213619738 0 -0.92349222456953894 1 I I #
face $-1 $-1 $407 $52 $-1 $559 forward single #
loop $-1 $-1 $560 $251 #
plane-surface $-1 -58.85433515427107 0 0 1 0 0 0 0 -1 forward_v I I I I #
coedge $-1 $561 $562 $400 $563 forward $252 $-1 #
coedge $-1 $564 $254 $256 $405 forward $157 $-1 #
coedge $-1 $254 $564 $398 $563 reversed $157 $-1 #
coedge $-1 $565 $257 $254 $402 forward $407 $-1 #
edge $-1 $409 11.540177242256856 $566 21.897922229372991 $401 $567 forward 7 unknown #
coedge $-1 $568 $560 $255 $404 forward $396 $-1 #
edge $-1 $569 -40.114651143849272 $408 -35.622383660368484 $403 $570 forward 7 unknown #
edge $-1 $409 -6.5869182290402577 $569 -3.8958409169770864e-014 $256 $571 forward 7 unknown #
coedge $-1 $257 $565 $568 $572 forward $407 $-1 #
loop $-1 $-1 $401 $395 #
vertex $-1 $404 $573 #
vertex $-1 $258 $574 #
straight-curve $-1 -69.565728112133485 28.25922697807178 10.349636048582028 1 0 0 I I #
coedge $-1 $411 $411 $-1 $575 reversed $261 $-1 #
edge $-1 $576 0 $576 6.2831853071796004 $262 $577 forward 7 unknown #
vertex $-1 $265 $578 #
ellipse-curve $-1 -56.445651664638014 30.330775975495008 8.1035023068416336 -0.68199836817093118 0 0.7313536940579346 0.3656768470289673 0 0.34099918408546559 1 I I #
coedge $-1 $415 $415 $-1 $579 reversed $268 $-1 #
edge $-1 $580 0 $580 6.2831853071796004 $269 $581 forward 7 unknown #
vertex $-1 $272 $582 #
ellipse-curve $-1 -56.445651664638014 33.438099471629847 8.1035023068416336 -0.68199836817093118 0 0.7313536940579346 0.3656768470289673 0 0.34099918408546559 1 I I #
coedge $-1 $419 $419 $-1 $583 reversed $275 $-1 #
edge $-1 $584 0 $584 6.2831853071796004 $276 $585 forward 7 unknown #
vertex $-1 $279 $586 #
ellipse-curve $-1 -56.445651664638014 36.545422967764686 8.1035023068416336 -0.68199836817093118 0 0.7313536940579346 0.3656768470289673 0 0.34099918408546559 1 I I #
face $-1 $-1 $295 $42 $-1 $587 reversed single #
loop $-1 $-1 $439 $280 #
plane-surface $-1 0 38.616971965187922 0 0 -1 0 0 0 -1 forward_v I I I I #
coedge $-1 $588 $437 $440 $589 forward $281 $-1 #
coedge $-1 $443 $283 $284 $431 reversed $176 $-1 #
coedge $-1 $437 $588 $283 $429 reversed $281 $-1 #
edge $-1 $444 -10.349636048582028 $590 10.349636048582028 $428 $591 forward 7 unknown #
coedge $-1 $285 $284 $588 $592 forward $113 $-1 #
edge $-1 $435 -58.85433515427107 $590 58.85433515427107 $427 $593 forward 7 unknown #
coedge $-1 $440 $439 $285 $433 reversed $424 $-1 #
edge $-1 $594 -58.85433515427107 $434 58.85433515427107 $432 $595 forward 7 unknown #
vertex $-1 $287 $596 #
vertex $-1 $446 $597 #
straight-curve $-1 58.85433515427107 0 -10.349636048582028 0 -1 0 I I #
coedge $-1 $426 $428 $288 $438 reversed $281 $-1 #
edge $-1 $441 -38.616971965187922 $444 38.616971965187922 $437 $598 forward 7 unknown #
coedge $-1 $432 $289 $294 $447 forward $424 $-1 #
coedge $-1 $289 $432 $426 $589 reversed $424 $-1 #
vertex $-1 $290 $599 #
straight-curve $-1 0 38.616971965187922 10.349636048582028 -1 0 0 I I #
coedge $-1 $291 $427 $293 $446 reversed $176 $-1 #
vertex $-1 $438 $600 #
straight-curve $-1 0 -38.616971965187922 10.349636048582028 1 0 0 I I #
edge $-1 $296 -10.349636048582028 $435 10.349636048582028 $293 $601 forward 7 unknown #
edge $-1 $297 -10.349636048582028 $434 10.349636048582028 $294 $602 forward 7 unknown #
point $-1 58.85433515427107 -38.616971965187922 10.349636048582028 #
point $-1 58.85433515427107 38.616971965187922 10.349636048582028 #
face $-1 $-1 $603 $43 $-1 $604 reversed single #
loop $-1 $-1 $309 $299 #
plane-surface $-1 0 -38.616971965187922 0 0 1 0 0 0 1 forward_v I I I I #
coedge $-1 $605 $302 $457 $606 forward $184 $-1 #
coedge $-1 $302 $605 $607 $608 forward $184 $-1 #
edge $-1 $609 -58.85433515427107 $458 58.85433515427107 $302 $610 forward 7 unknown #
coedge $-1 $304 $303 $611 $612 reversed $117 $-1 #
coedge $-1 $305 $311 $453 $606 reversed $300 $-1 #
vertex $-1 $606 $613 #
straight-curve $-1 58.85433515427107 -29.532709766671765 -4.0980825340778813 0 0 1 I I #
coedge $-1 $611 $614 $307 $461 forward $603 $-1 #
edge $-1 $466 -21.579551532223 $462 -12.495289333706843 $460 $615 forward 7 unknown #
vertex $-1 $461 $616 #
straight-curve $-1 0 -29.532709766671765 -6.0426940877294975 -1 0 0 I I #
coedge $-1 $617 $309 $614 $618 forward $451 $-1 #
coedge $-1 $309 $617 $311 $468 reversed $451 $-1 #
vertex $-1 $618 $619 #
straight-curve $-1 0 -38.616971965187922 -6.0426940877294975 -1 0 0 I I #
edge $-1 $313 6.0426940877294975 $620 10.349636048582028 $311 $621 forward 7 unknown #
point $-1 58.85433515427107 -29.532709766671765 -6.0426940877294975 #
point $-1 58.85433515427107 -38.616971965187922 -6.0426940877294975 #
plane-surface $-1 0 0 10.349636048582028 0 0 1 1 0 0 forward_v I I I I #
coedge $-1 $482 $481 $474 $622 forward $316 $-1 #
coedge $-1 $474 $318 $320 $478 reversed $192 $-1 #
coedge $-1 $318 $473 $472 $622 reversed $192 $-1 #
coedge $-1 $326 $321 $318 $476 forward $327 $-1 #
edge $-1 $479 28.523716136469254 $623 39.570668955275629 $475 $624 forward 7 unknown #
coedge $-1 $320 $319 $482 $625 reversed $121 $-1 #
edge $-1 $626 -117.70867030854212 $479 -103.68988585311833 $473 $627 forward 7 unknown #
vertex $-1 $322 $628 #
straight-curve $-1 47.807382335464695 -9.8978677909989727 10.349636048582028 0 -1 0 I I #
coedge $-1 $472 $323 $326 $486 reversed $316 $-1 #
coedge $-1 $323 $472 $477 $625 forward $316 $-1 #
vertex $-1 $324 $629 #
straight-curve $-1 58.85433515427107 -15.341188737237196 83.471601117836386 0 0 1 I I #
straight-curve $-1 -33.901362131581124 -15.341188737237196 74.187504949820564 0.78801074757464917 0 -0.61566148304635926 I I #
edge $-1 $623 -24.250282426758694 $328 -15.341188737237196 $481 $630 forward 7 unknown #
point $-1 58.85433515427107 -15.341188737237196 10.349636048582028 #
point $-1 47.807382335464695 -15.341188737237196 10.349636048582028 #
edge $-1 $631 1 $631 0 $331 $-1 forward 7 unknown #
vertex $-1 $332 $632 #
ellipse-curve $-1 51.078904058147089 -19.795735581997945 3.1518527352793941 0.61566148304635926 0 0.78801074757464917 1.1820161213619738 0 -0.92349222456953894 1 I I #
point $-1 54.512874866229843 -19.795735581997945 5.1107310098457468 #
plane-surface $-1 0 0 10.349636048582028 0 0 1 1 0 0 forward_v I I I I #
coedge $-1 $504 $503 $496 $633 forward $336 $-1 #
coedge $-1 $496 $338 $340 $500 reversed $207 $-1 #
coedge $-1 $338 $495 $494 $633 reversed $207 $-1 #
coedge $-1 $346 $341 $338 $498 forward $347 $-1 #
edge $-1 $501 28.523716136469254 $634 39.570668955275629 $497 $635 forward 7 unknown #
coedge $-1 $340 $339 $504 $636 reversed $130 $-1 #
edge $-1 $637 -117.70867030854212 $501 -103.68988585311833 $495 $638 forward 7 unknown #
vertex $-1 $342 $639 #
straight-curve $-1 47.807382335464695 -1.7852455639136302 10.349636048582028 0 -1 0 I I #
coedge $-1 $494 $343 $346 $508 reversed $336 $-1 #
coedge $-1 $343 $494 $499 $636 forward $336 $-1 #
vertex $-1 $344 $640 #
straight-curve $-1 58.85433515427107 0.88405571693348772 83.471601117836386 0 0 1 I I #
straight-curve $-1 -33.901362131581124 0.88405571693348772 74.187504949820564 0.78801074757464917 0 -0.61566148304635926 I I #
edge $-1 $634 -8.0250379725880094 $348 0.88405571693348772 $503 $641 forward 7 unknown #
point $-1 58.85433515427107 0.88405571693348772 10.349636048582028 #
point $-1 47.807382335464695 0.88405571693348772 10.349636048582028 #
edge $-1 $642 1 $642 0 $351 $-1 forward 7 unknown #
vertex $-1 $352 $643 #
ellipse-curve $-1 51.078904058147089 -3.5704911278272604 3.1518527352793941 0.61566148304635926 0 0.78801074757464917 1.1820161213619738 0 -0.92349222456953894 1 I I #
point $-1 54.512874866229843 -3.5704911278272604 5.1107310098457468 #
plane-surface $-1 0 0 10.349636048582028 0 0 1 1 0 0 forward_v I I I I #
coedge $-1 $526 $525 $518 $644 forward $356 $-1 #
coedge $-1 $518 $358 $360 $522 reversed $222 $-1 #
coedge $-1 $358 $517 $516 $644 reversed $222 $-1 #
coedge $-1 $366 $361 $358 $520 forward $367 $-1 #
edge $-1 $523 28.523716136469254 $645 39.570668955275629 $519 $646 forward 7 unknown #
coedge $-1 $360 $359 $526 $647 reversed $139 $-1 #
edge $-1 $648 -117.70867030854212 $523 -103.68988585311833 $517 $649 forward 7 unknown #
vertex $-1 $362 $650 #
straight-curve $-1 47.807382335464695 6.3273766631717088 10.349636048582028 0 -1 0 I I #
coedge $-1 $516 $363 $366 $530 reversed $356 $-1 #
coedge $-1 $363 $516 $521 $647 forward $356 $-1 #
vertex $-1 $364 $651 #
straight-curve $-1 58.85433515427107 17.109300171104167 83.471601117836386 0 0 1 I I #
straight-curve $-1 -33.901362131581124 17.109300171104167 74.187504949820564 0.78801074757464917 0 -0.61566148304635926 I I #
edge $-1 $645 8.2002064815826685 $368 17.109300171104167 $525 $652 forward 7 unknown #
point $-1 58.85433515427107 17.109300171104167 10.349636048582028 #
point $-1 47.807382335464695 17.109300171104167 10.349636048582028 #
edge $-1 $653 1 $653 0 $371 $-1 forward 7 unknown #
vertex $-1 $372 $654 #
ellipse-curve $-1 51.078904058147089 12.654753326343418 3.1518527352793941 0.61566148304635926 0 0.78801074757464917 1.1820161213619738 0 -0.92349222456953894 1 I I #
point $-1 54.512874866229843 12.654753326343418 5.1107310098457468 #
plane-surface $-1 0 0 10.349636048582028 0 0 1 1 0 0 forward_v I I I I #
coedge $-1 $548 $547 $540 $655 forward $376 $-1 #
coedge $-1 $540 $378 $380 $544 reversed $237 $-1 #
coedge $-1 $378 $539 $538 $655 reversed $237 $-1 #
coedge $-1 $386 $381 $378 $542 forward $387 $-1 #
edge $-1 $545 28.523716136469254 $656 39.570668955275629 $541 $657 forward 7 unknown #
coedge $-1 $380 $379 $548 $658 reversed $148 $-1 #
edge $-1 $659 -117.70867030854212 $545 -103.68988585311833 $539 $660 forward 7 unknown #
vertex $-1 $382 $661 #
straight-curve $-1 47.807382335464695 14.439998890257048 10.349636048582028 0 -1 0 I I #
coedge $-1 $538 $383 $386 $552 reversed $376 $-1 #
coedge $-1 $383 $538 $543 $658 forward $376 $-1 #
vertex $-1 $384 $662 #
straight-curve $-1 58.85433515427107 33.334544625274845 83.471601117836386 0 0 1 I I #
straight-curve $-1 -33.901362131581124 33.334544625274845 74.187504949820564 0.78801074757464917 0 -0.61566148304635926 I I #
edge $-1 $656 24.425450935753346 $388 33.334544625274845 $547 $663 forward 7 unknown #
point $-1 58.85433515427107 33.334544625274845 10.349636048582028 #
point $-1 47.807382335464695 33.334544625274845 10.349636048582028 #
edge $-1 $664 1 $664 0 $391 $-1 forward 7 unknown #
vertex $-1 $392 $665 #
ellipse-curve $-1 51.078904058147089 28.879997780514095 3.1518527352793941 0.61566148304635926 0 0.78801074757464917 1.1820161213619738 0 -0.92349222456953894 1 I I #
point $-1 54.512874866229843 28.879997780514095 5.1107310098457468 #
plane-surface $-1 0 0 10.349636048582028 0 0 1 1 0 0 forward_v I I I I #
coedge $-1 $403 $666 $564 $667 forward $396 $-1 #
coedge $-1 $562 $398 $666 $668 reversed $252 $-1 #
coedge $-1 $398 $561 $565 $669 reversed $252 $-1 #
edge $-1 $566 12.937391582572342 $670 19.524309811612561 $398 $671 forward 7 unknown #
coedge $-1 $400 $399 $560 $667 reversed $157 $-1 #
coedge $-1 $406 $401 $562 $669 forward $407 $-1 #
vertex $-1 $669 $672 #
straight-curve $-1 -54.036968175004958 16.719049735814924 10.349636048582028 0 1 0 I I #
coedge $-1 $666 $403 $406 $572 reversed $396 $-1 #
vertex $-1 $404 $673 #
straight-curve $-1 -58.85433515427107 28.25922697807178 45.972019708950512 0 0 1 I I #
straight-curve $-1 -58.854335154271098 28.25922697807178 5.8573685651012113 -0.7313536940579346 0 -0.68199836817093118 I I #
edge $-1 $674 -38.616971965187922 $408 -28.25922697807178 $568 $675 forward 7 unknown #
point $-1 -58.85433515427107 28.25922697807178 10.349636048582028 #
point $-1 -54.036968175004958 28.25922697807178 10.349636048582028 #
edge $-1 $676 1 $676 0 $411 $-1 forward 7 unknown #
vertex $-1 $412 $677 #
ellipse-curve $-1 -55.752580475279068 30.330775975495008 7.3602744660739186 -0.68199836817093118 0 0.7313536940579346 0.3656768470289673 0 0.34099918408546559 1 I I #
point $-1 -56.079974817609028 30.330775975495008 8.4445014909270828 #
edge $-1 $678 1 $678 0 $415 $-1 forward 7 unknown #
vertex $-1 $416 $679 #
ellipse-curve $-1 -55.752580475279068 33.438099471629847 7.3602744660739186 -0.68199836817093118 0 0.7313536940579346 0.3656768470289673 0 0.34099918408546559 1 I I #
point $-1 -56.079974817609028 33.438099471629847 8.4445014909270828 #
edge $-1 $680 1 $680 0 $419 $-1 forward 7 unknown #
vertex $-1 $420 $681 #
ellipse-curve $-1 -55.752580475279068 36.545422967764686 7.3602744660739186 -0.68199836817093118 0 0.7313536940579346 0.3656768470289673 0 0.34099918408546559 1 I I #
point $-1 -56.079974817609028 36.545422967764686 8.4445014909270828 #
plane-surface $-1 58.85433515427107 0 0 -1 0 0 0 0 1 forward_v I I I I #
coedge $-1 $428 $426 $430 $592 reversed $281 $-1 #
edge $-1 $441 -10.349636048582028 $594 10.349636048582028 $440 $682 forward 7 unknown #
vertex $-1 $592 $683 #
straight-curve $-1 -58.85433515427107 -38.616971965187922 0 0 0 -1 I I #
edge $-1 $590 -38.616971965187922 $594 38.616971965187922 $588 $684 forward 7 unknown #
straight-curve $-1 0 -38.616971965187922 -10.349636048582028 -1 0 0 I I #
vertex $-1 $433 $685 #
straight-curve $-1 0 38.616971965187922 -10.349636048582028 1 0 0 I I #
point $-1 58.85433515427107 38.616971965187922 -10.349636048582028 #
point $-1 58.85433515427107 -38.616971965187922 -10.349636048582028 #
straight-curve $-1 -58.85433515427107 0 10.349636048582028 0 -1 0 I I #
point $-1 -58.85433515427107 38.616971965187922 10.349636048582028 #
point $-1 -58.85433515427107 -38.616971965187922 10.349636048582028 #
straight-curve $-1 58.85433515427107 -38.616971965187922 0 0 0 -1 I I #
straight-curve $-1 58.85433515427107 38.616971965187922 0 0 0 -1 I I #
loop $-1 $-1 $611 $450 #
plane-surface $-1 -58.85433515427107 0 0 1 0 0 0 0 -1 forward_v I I I I #
coedge $-1 $454 $453 $617 $686 forward $184 $-1 #
edge $-1 $458 29.532709766671765 $620 38.616971965187922 $457 $687 forward 7 unknown #
coedge $-1 $614 $611 $454 $608 reversed $603 $-1 #
edge $-1 $688 -38.616971965187922 $609 -29.532709766671765 $607 $689 forward 7 unknown #
vertex $-1 $612 $690 #
straight-curve $-1 0 -29.532709766671765 -10.349636048582028 1 0 0 I I #
coedge $-1 $607 $460 $456 $612 forward $603 $-1 #
edge $-1 $462 1.9446115536516162 $609 6.2515535145041463 $611 $691 forward 7 unknown #
point $-1 58.85433515427107 -29.532709766671765 -10.349636048582028 #
coedge $-1 $460 $607 $464 $618 reversed $603 $-1 #
straight-curve $-1 -58.85433515427107 -17.037420432964922 -6.0426940877294975 0 1 0 I I #
point $-1 -58.85433515427107 -29.532709766671765 -6.0426940877294975 #
coedge $-1 $465 $464 $605 $686 reversed $451 $-1 #
edge $-1 $466 6.0426940877294975 $688 10.349636048582028 $614 $692 forward 7 unknown #
point $-1 -58.85433515427107 -38.616971965187922 -6.0426940877294975 #
vertex $-1 $468 $693 #
straight-curve $-1 58.85433515427107 -38.616971965187922 0 0 0 -1 I I #
edge $-1 $623 73.121965069254358 $626 81.752790697587827 $472 $694 forward 7 unknown #
vertex $-1 $486 $695 #
straight-curve $-1 19.283666198995441 -24.250282426758694 10.349636048582028 1 0 0 I I #
edge $-1 $626 -14.352414635759722 $483 -5.4433209462382237 $482 $696 forward 7 unknown #
vertex $-1 $625 $697 #
straight-curve $-1 -33.901362131581124 -24.250282426758694 74.187504949820564 -0.78801074757464917 0 0.61566148304635926 I I #
point $-1 47.807382335464695 -24.250282426758694 10.349636048582028 #
point $-1 58.85433515427107 -15.341188737237196 1.718810420248559 #
straight-curve $-1 58.85433515427107 0 10.349636048582028 0 1 0 I I #
vertex $-1 $489 $698 #
point $-1 52.260920179509057 -19.795735581997945 2.2283605107098552 #
edge $-1 $634 73.121965069254358 $637 81.752790697587827 $494 $699 forward 7 unknown #
vertex $-1 $508 $700 #
straight-curve $-1 19.283666198995441 -8.0250379725880094 10.349636048582028 1 0 0 I I #
edge $-1 $637 -6.2397924086743792 $505 2.6693012808471179 $504 $701 forward 7 unknown #
vertex $-1 $636 $702 #
straight-curve $-1 -33.901362131581124 -8.0250379725880094 74.187504949820564 -0.78801074757464917 0 0.61566148304635926 I I #
point $-1 47.807382335464695 -8.0250379725880094 10.349636048582028 #
point $-1 58.85433515427107 0.88405571693348772 1.718810420248559 #
straight-curve $-1 58.85433515427107 0 10.349636048582028 0 1 0 I I #
vertex $-1 $511 $703 #
point $-1 52.260920179509057 -3.5704911278272604 2.2283605107098552 #
edge $-1 $645 73.121965069254358 $648 81.752790697587827 $516 $704 forward 7 unknown #
vertex $-1 $530 $705 #
straight-curve $-1 19.283666198995441 8.2002064815826685 10.349636048582028 1 0 0 I I #
edge $-1 $648 1.8728298184109597 $527 10.781923507932458 $526 $706 forward 7 unknown #
vertex $-1 $647 $707 #
straight-curve $-1 -33.901362131581124 8.2002064815826685 74.187504949820564 -0.78801074757464917 0 0.61566148304635926 I I #
point $-1 47.807382335464695 8.2002064815826685 10.349636048582028 #
point $-1 58.85433515427107 17.109300171104167 1.718810420248559 #
straight-curve $-1 58.85433515427107 0 10.349636048582028 0 1 0 I I #
vertex $-1 $533 $708 #
point $-1 52.260920179509057 12.654753326343418 2.2283605107098552 #
edge $-1 $656 73.121965069254358 $659 81.752790697587827 $538 $709 forward 7 unknown #
vertex $-1 $552 $710 #
straight-curve $-1 19.283666198995441 24.425450935753346 10.349636048582028 1 0 0 I I #
edge $-1 $659 9.9854520454962987 $549 18.894545735017797 $548 $711 forward 7 unknown #
vertex $-1 $658 $712 #
straight-curve $-1 -33.901362131581124 24.425450935753346 74.187504949820564 -0.78801074757464917 0 0.61566148304635926 I I #
point $-1 47.807382335464695 24.425450935753346 10.349636048582028 #
point $-1 58.85433515427107 33.334544625274845 1.718810420248559 #
straight-curve $-1 58.85433515427107 0 10.349636048582028 0 1 0 I I #
vertex $-1 $555 $713 #
point $-1 52.260920179509057 28.879997780514095 2.2283605107098552 #
coedge $-1 $560 $568 $561 $668 forward $396 $-1 #
edge $-1 $670 -21.897922229372991 $569 -11.540177242256856 $560 $714 forward 7 unknown #
edge $-1 $674 -10.349636048582028 $670 -5.8573685651012379 $561 $715 forward 7 unknown #
edge $-1 $566 54.036968175004958 $674 58.85433515427107 $562 $716 forward 7 unknown #
vertex $-1 $563 $717 #
straight-curve $-1 -44.575159049616644 38.616971965187922 19.172915996284704 -0.7313536940579346 0 -0.68199836817093118 I I #
point $-1 -54.036968175004958 38.616971965187915 10.349636048582028 #
point $-1 -58.85433515427107 28.25922697807178 5.8573685651012379 #
vertex $-1 $669 $718 #
straight-curve $-1 -58.85433515427107 0 10.349636048582028 0 -1 0 I I #
vertex $-1 $575 $719 #
point $-1 -55.386903628250103 30.330775975495008 7.7012736501593846 #
vertex $-1 $579 $720 #
point $-1 -55.386903628250103 33.438099471629847 7.7012736501593846 #
vertex $-1 $583 $721 #
point $-1 -55.386903628250103 36.545422967764686 7.7012736501593846 #
straight-curve $-1 -58.85433515427107 38.616971965187922 0 0 0 -1 I I #
point $-1 -58.85433515427107 -38.616971965187922 -10.349636048582028 #
straight-curve $-1 -58.85433515427107 0 -10.349636048582028 0 1 0 I I #
point $-1 -58.85433515427107 38.616971965187922 -10.349636048582028 #
edge $-1 $620 -58.85433515427107 $688 58.85433515427107 $617 $722 forward 7 unknown #
straight-curve $-1 58.85433515427107 0 -10.349636048582028 0 -1 0 I I #
vertex $-1 $608 $723 #
straight-curve $-1 -58.85433515427107 0 -10.349636048582028 0 1 0 I I #
point $-1 -58.85433515427107 -29.532709766671765 -10.349636048582028 #
straight-curve $-1 -58.85433515427107 -29.532709766671765 -4.0980825340778813 0 0 -1 I I #
straight-curve $-1 -58.85433515427107 -38.616971965187922 0 0 0 -1 I I #
point $-1 58.85433515427107 -38.616971965187922 -10.349636048582028 #
straight-curve $-1 58.85433515427107 -24.250282426758694 83.471601117836386 0 0 -1 I I #
point $-1 58.85433515427107 -24.250282426758694 10.349636048582028 #
straight-curve $-1 58.854335154271077 -9.8978677909989727 1.718810420248559 0 1 0 I I #
point $-1 58.85433515427107 -24.250282426758694 1.718810420248559 #
point $-1 50.155411833577546 -19.795735581997945 1.9698366139174195 #
straight-curve $-1 58.85433515427107 -8.0250379725880094 83.471601117836386 0 0 -1 I I #
point $-1 58.85433515427107 -8.0250379725880094 10.349636048582028 #
straight-curve $-1 58.854335154271077 -1.7852455639136302 1.718810420248559 0 1 0 I I #
point $-1 58.85433515427107 -8.0250379725880094 1.718810420248559 #
point $-1 50.155411833577546 -3.5704911278272604 1.9698366139174195 #
straight-curve $-1 58.85433515427107 8.2002064815826685 83.471601117836386 0 0 -1 I I #
point $-1 58.85433515427107 8.2002064815826685 10.349636048582028 #
straight-curve $-1 58.854335154271077 6.3273766631717088 1.718810420248559 0 1 0 I I #
point $-1 58.85433515427107 8.2002064815826685 1.718810420248559 #
point $-1 50.155411833577546 12.654753326343418 1.9698366139174195 #
straight-curve $-1 58.85433515427107 24.425450935753346 83.471601117836386 0 0 -1 I I #
point $-1 58.85433515427107 24.425450935753346 10.349636048582028 #
straight-curve $-1 58.854335154271077 14.439998890257048 1.718810420248559 0 1 0 I I #
point $-1 58.85433515427107 24.425450935753346 1.718810420248559 #
point $-1 50.155411833577546 28.879997780514095 1.9698366139174195 #
straight-curve $-1 -58.85433515427107 16.719049735814924 5.8573685651012362 0 -1 0 I I #
straight-curve $-1 -58.85433515427107 38.616971965187922 0 0 0 -1 I I #
straight-curve $-1 0 38.616971965187922 10.349636048582028 -1 0 0 I I #
point $-1 -58.85433515427107 38.616971965187915 5.8573685651012379 #
point $-1 -58.85433515427107 38.616971965187922 10.349636048582028 #
point $-1 -55.411581291193606 30.330775975495008 6.9945976190449519 #
point $-1 -55.411581291193606 33.438099471629847 6.9945976190449519 #
point $-1 -55.411581291193606 36.545422967764686 6.9945976190449519 #
straight-curve $-1 0 -38.616971965187922 -10.349636048582028 -1 0 0 I I #
point $-1 -58.85433515427107 -38.616971965187922 -10.349636048582028 #
End-of-ACIS-data 