500 0 11 0           
7 Unknown 11 ACIS 5.0 NT 24 Thu Mar 25 22:02:37 1999 
-1 9.9999999999999995e-007 1e-010 
body $-1 $11 $-1 $12 #
body $-1 $13 $-1 $14 #
body $-1 $15 $-1 $16 #
body $-1 $17 $-1 $18 #
body $-1 $19 $-1 $20 #
body $-1 $21 $-1 $22 #
body $-1 $23 $-1 $24 #
body $-1 $25 $-1 $26 #
body $-1 $27 $-1 $28 #
body $-1 $29 $-1 $30 #
body $-1 $31 $-1 $32 #
lump $-1 $-1 $33 $0 #
transform $-1 1 0 0 0 1 0 0 0 1 60.586565752128664 37.791579946122845 18.72624859752872 1 rotate no_reflect no_shear #
lump $-1 $-1 $34 $1 #
transform $-1 1 0 0 0 1 0 0 0 1 60.586565752128664 37.791579946122845 18.72624859752872 1 rotate no_reflect no_shear #
lump $-1 $-1 $35 $2 #
transform $-1 1 0 0 0 1 0 0 0 1 60.586565752128664 37.791579946122845 18.72624859752872 1 rotate no_reflect no_shear #
lump $-1 $-1 $36 $3 #
transform $-1 1 0 0 0 1 0 0 0 1 60.586565752128664 37.791579946122845 18.72624859752872 1 rotate no_reflect no_shear #
lump $-1 $-1 $37 $4 #
transform $-1 1 0 0 0 1 0 0 0 1 60.586565752128664 37.791579946122845 18.72624859752872 1 rotate no_reflect no_shear #
lump $-1 $-1 $38 $5 #
transform $-1 1 0 0 0 1 0 0 0 1 60.586565752128664 37.791579946122845 18.72624859752872 1 rotate no_reflect no_shear #
lump $-1 $-1 $39 $6 #
transform $-1 1 0 0 0 1 0 0 0 1 60.586565752128664 37.791579946122845 18.72624859752872 1 rotate no_reflect no_shear #
lump $-1 $-1 $40 $7 #
transform $-1 1 0 0 0 1 0 0 0 1 60.586565752128664 37.791579946122845 18.72624859752872 1 rotate no_reflect no_shear #
lump $-1 $-1 $41 $8 #
transform $-1 1 0 0 0 1 0 0 0 1 60.586565752128664 37.791579946122845 18.72624859752872 1 rotate no_reflect no_shear #
lump $-1 $-1 $42 $9 #
transform $-1 1 0 0 0 1 0 0 0 1 60.586565752128664 37.791579946122845 18.72624859752872 1 rotate no_reflect no_shear #
lump $-1 $-1 $43 $10 #
transform $-1 1 0 0 0 1 0 0 0 1 60.586565752128664 37.791579946122845 18.72624859752872 1 rotate no_reflect no_shear #
shell $-1 $-1 $-1 $44 $-1 $11 #
shell $-1 $-1 $-1 $45 $-1 $13 #
shell $-1 $-1 $-1 $46 $-1 $15 #
shell $-1 $-1 $-1 $47 $-1 $17 #
shell $-1 $-1 $-1 $48 $-1 $19 #
shell $-1 $-1 $-1 $49 $-1 $21 #
shell $-1 $-1 $-1 $50 $-1 $23 #
shell $-1 $-1 $-1 $51 $-1 $25 #
shell $-1 $-1 $-1 $52 $-1 $27 #
shell $-1 $-1 $-1 $53 $-1 $29 #
shell $-1 $-1 $-1 $54 $-1 $31 #
face $-1 $55 $56 $33 $-1 $57 forward single #
face $-1 $58 $59 $34 $-1 $60 reversed single #
face $-1 $61 $62 $35 $-1 $63 forward single #
face $-1 $64 $65 $36 $-1 $66 forward single #
face $-1 $67 $68 $37 $-1 $69 reversed single #
face $-1 $70 $71 $38 $-1 $72 forward single #
face $-1 $73 $74 $39 $-1 $75 forward single #
face $-1 $76 $77 $40 $-1 $78 reversed single #
face $-1 $79 $80 $41 $-1 $81 forward single #
face $-1 $82 $83 $42 $-1 $84 forward single #
face $-1 $85 $86 $43 $-1 $87 forward single #
face $-1 $88 $89 $33 $-1 $90 reversed single #
loop $-1 $-1 $91 $44 #
plane-surface $-1 0 0 18.72624859752872 0 0 1 1 0 0 forward_v I I I I #
face $-1 $92 $93 $34 $-1 $94 reversed single #
loop $-1 $-1 $95 $45 #
plane-surface $-1 -161.04364553166721 -24.576930488320087 81.487405216486138 0 1 0 -0.82903758062907751 0 0.55919289150049634 forward_v I I I I #
face $-1 $96 $97 $35 $-1 $98 forward single #
loop $-1 $99 $100 $46 #
cone-surface $-1 -58.057865047381057 -21.715124793565359 15.658568578630833 0.82903758062907751 0 -0.55919289150049634 0.55919289150049634 0 0.82903758062907751 1 I I 0 1 1 forward I I I I #
face $-1 $101 $102 $36 $-1 $103 forward single #
loop $-1 $104 $105 $47 #
cone-surface $-1 -58.057865047381057 -17.422416251433269 15.658568578630833 0.82903758062907751 0 -0.55919289150049634 0.55919289150049634 0 0.82903758062907751 1 I I 0 1 1 forward I I I I #
face $-1 $106 $107 $37 $-1 $108 reversed single #
loop $-1 $-1 $109 $48 #
plane-surface $-1 -161.04364553166721 14.56061055667854 81.487405216486138 0 1 0 -0.82903758062907751 0 0.55919289150049634 forward_v I I I I #
face $-1 $110 $111 $38 $-1 $112 forward single #
loop $-1 $113 $114 $49 #
cone-surface $-1 -58.057865047381057 17.422416251433269 15.658568578630833 0.82903758062907751 0 -0.55919289150049634 0.55919289150049634 0 0.82903758062907751 1 I I 0 1 1 forward I I I I #
face $-1 $115 $116 $39 $-1 $117 forward single #
loop $-1 $118 $119 $50 #
cone-surface $-1 -58.057865047381057 21.715124793565359 15.658568578630833 0.82903758062907751 0 -0.55919289150049634 0.55919289150049634 0 0.82903758062907751 1 I I 0 1 1 forward I I I I #
face $-1 $120 $121 $40 $-1 $122 reversed single #
loop $-1 $-1 $123 $51 #
plane-surface $-1 63.577293932790852 24.907587835630583 181.96689447366666 0 -1 0 -0.71933980857756763 0 -0.69465836192734942 forward_v I I I I #
face $-1 $124 $125 $41 $-1 $126 forward single #
loop $-1 $127 $128 $52 #
cone-surface $-1 56.105353951889668 9.4935779778117109 14.125709023172808 -0.71933980857756763 0 -0.69465836192734942 1.0419875428910241 0 -1.0790097128663514 1 I I 0 1 1.5 forward I I I I #
face $-1 $129 $130 $42 $-1 $131 forward single #
loop $-1 $132 $133 $53 #
cone-surface $-1 56.105353951889668 15.273831674493792 14.125709023172808 -0.71933980857756763 0 -0.69465836192734942 1.0419875428910241 0 -1.0790097128663514 1 I I 0 1 1.5 forward I I I I #
face $-1 $134 $135 $43 $-1 $136 forward single #
loop $-1 $137 $138 $54 #
cone-surface $-1 56.105353951889668 21.054085371175873 14.125709023172808 -0.71933980857756763 0 -0.69465836192734942 1.0419875428910241 0 -1.0790097128663514 1 I I 0 1 1.5 forward I I I I #
face $-1 $139 $140 $33 $-1 $141 reversed single #
loop $-1 $-1 $142 $55 #
plane-surface $-1 0 0 -18.72624859752872 0 0 1 1 0 0 forward_v I I I I #
coedge $-1 $143 $144 $145 $146 forward $56 $-1 #
face $-1 $147 $148 $34 $-1 $149 reversed single #
loop $-1 $-1 $150 $58 #
plane-surface $-1 -60.586565752128678 -19.568770522499314 13.728251438450599 -0.82903758062907751 0 0.55919289150049634 0.55919289150049634 0 0.82903758062907751 forward_v I I I I #
coedge $-1 $151 $152 $153 $154 reversed $59 $-1 #
face $-1 $-1 $155 $35 $-1 $156 forward single #
loop $-1 $157 $158 $61 #
cone-surface $-1 -56.800241325296668 -21.715124793565359 14.810290693521747 0.82903758062907751 0 -0.55919289150049634 0.27959644575024817 0 0.41451879031453875 1 I I -0.70710678118654746 0.70710678118654746 0.5 forward I I I I #
loop $-1 $-1 $159 $46 #
coedge $-1 $100 $100 $160 $161 reversed $62 $-1 #
face $-1 $-1 $162 $36 $-1 $163 forward single #
loop $-1 $164 $165 $64 #
cone-surface $-1 -56.800241325296668 -17.422416251433269 14.810290693521747 0.82903758062907751 0 -0.55919289150049634 0.27959644575024817 0 0.41451879031453875 1 I I -0.70710678118654746 0.70710678118654746 0.5 forward I I I I #
loop $-1 $-1 $166 $47 #
coedge $-1 $105 $105 $167 $168 reversed $65 $-1 #
face $-1 $169 $170 $37 $-1 $171 reversed single #
loop $-1 $-1 $172 $67 #
plane-surface $-1 -60.586565752128678 19.568770522499314 13.728251438450599 -0.82903758062907751 0 0.55919289150049634 0.55919289150049634 0 0.82903758062907751 forward_v I I I I #
coedge $-1 $173 $174 $175 $176 reversed $68 $-1 #
face $-1 $-1 $177 $38 $-1 $178 forward single #
loop $-1 $179 $180 $70 #
cone-surface $-1 -56.800241325296668 17.422416251433269 14.810290693521747 0.82903758062907751 0 -0.55919289150049634 0.27959644575024817 0 0.41451879031453875 1 I I -0.70710678118654746 0.70710678118654746 0.5 forward I I I I #
loop $-1 $-1 $181 $49 #
coedge $-1 $114 $114 $182 $183 reversed $71 $-1 #
face $-1 $-1 $184 $39 $-1 $185 forward single #
loop $-1 $186 $187 $73 #
cone-surface $-1 -56.800241325296668 21.715124793565359 14.810290693521747 0.82903758062907751 0 -0.55919289150049634 0.27959644575024817 0 0.41451879031453875 1 I I -0.70710678118654746 0.70710678118654746 0.5 forward I I I I #
loop $-1 $-1 $188 $50 #
coedge $-1 $119 $119 $189 $190 reversed $74 $-1 #
face $-1 $191 $192 $40 $-1 $193 reversed single #
loop $-1 $-1 $194 $76 #
plane-surface $-1 -23.587363288226044 15.273831674493785 97.792965433311963 0.71933980857756763 0 0.69465836192734942 0.69465836192734942 0 -0.71933980857756763 forward_v I I I I #
coedge $-1 $195 $196 $197 $198 reversed $77 $-1 #
face $-1 $-1 $199 $41 $-1 $200 forward single #
loop $-1 $201 $202 $79 #
cone-surface $-1 54.994682266950164 9.4935779778117109 13.053145869988203 -0.71933980857756763 0 -0.69465836192734942 0.52099377144551207 0 -0.53950485643317569 1 I I -0.70710678118654757 0.70710678118654757 0.75 forward I I I I #
loop $-1 $-1 $203 $52 #
coedge $-1 $128 $128 $204 $205 reversed $80 $-1 #
face $-1 $-1 $206 $42 $-1 $207 forward single #
loop $-1 $208 $209 $82 #
cone-surface $-1 54.994682266950164 15.273831674493792 13.053145869988203 -0.71933980857756763 0 -0.69465836192734942 0.52099377144551207 0 -0.53950485643317569 1 I I -0.70710678118654757 0.70710678118654757 0.75 forward I I I I #
loop $-1 $-1 $210 $53 #
coedge $-1 $133 $133 $211 $212 reversed $83 $-1 #
face $-1 $-1 $213 $43 $-1 $214 forward single #
loop $-1 $215 $216 $85 #
cone-surface $-1 54.994682266950164 21.054085371175873 13.053145869988203 -0.71933980857756763 0 -0.69465836192734942 0.52099377144551207 0 -0.53950485643317569 1 I I -0.70710678118654757 0.70710678118654757 0.75 forward I I I I #
loop $-1 $-1 $217 $54 #
coedge $-1 $138 $138 $218 $219 reversed $86 $-1 #
face $-1 $220 $221 $33 $-1 $222 reversed single #
loop $-1 $-1 $223 $88 #
plane-surface $-1 0 -37.791579946122845 0 0 1 0 0 0 1 forward_v I I I I #
coedge $-1 $224 $225 $226 $227 forward $89 $-1 #
coedge $-1 $228 $91 $229 $230 forward $56 $-1 #
coedge $-1 $91 $228 $231 $232 forward $56 $-1 #
coedge $-1 $233 $234 $91 $146 reversed $235 $-1 #
edge $-1 $236 -37.791579946122845 $237 37.791579946122845 $145 $238 forward 7 unknown #
face $-1 $239 $240 $34 $-1 $241 reversed single #
loop $-1 $-1 $242 $92 #
plane-surface $-1 -161.04364553166721 -14.56061055667854 81.487405216486138 0 -1 0 0.82903758062907751 0 -0.55919289150049634 forward_v I I I I #
coedge $-1 $243 $244 $245 $246 reversed $93 $-1 #
coedge $-1 $152 $95 $247 $248 reversed $59 $-1 #
coedge $-1 $95 $151 $243 $249 reversed $59 $-1 #
coedge $-1 $245 $250 $95 $154 forward $251 $-1 #
edge $-1 $252 19.935257013704941 $253 23.306448559660446 $153 $254 forward 7 unknown #
loop $-1 $-1 $160 $96 #
plane-surface $-1 -60.586565752128678 -19.568770522499314 13.728251438450599 -0.82903758062907751 0 0.55919289150049634 0.55919289150049634 0 0.82903758062907751 forward_v I I I I #
loop $-1 $-1 $255 $61 #
coedge $-1 $158 $158 $159 $256 reversed $97 $-1 #
coedge $-1 $159 $159 $158 $256 forward $99 $-1 #
coedge $-1 $160 $160 $100 $161 forward $155 $-1 #
edge $-1 $257 0 $257 6.2831853071796004 $160 $258 forward 7 unknown #
loop $-1 $-1 $167 $101 #
plane-surface $-1 -60.586565752128678 -19.568770522499314 13.728251438450599 -0.82903758062907751 0 0.55919289150049634 0.55919289150049634 0 0.82903758062907751 forward_v I I I I #
loop $-1 $-1 $259 $64 #
coedge $-1 $165 $165 $166 $260 reversed $102 $-1 #
coedge $-1 $166 $166 $165 $260 forward $104 $-1 #
coedge $-1 $167 $167 $105 $168 forward $162 $-1 #
edge $-1 $261 0 $261 6.2831853071796004 $167 $262 forward 7 unknown #
face $-1 $263 $264 $37 $-1 $265 forward single #
loop $-1 $-1 $266 $106 #
plane-surface $-1 -161.04364553166721 24.576930488320087 81.487405216486138 0 -1 0 0.82903758062907751 0 -0.55919289150049634 forward_v I I I I #
coedge $-1 $267 $268 $269 $270 reversed $107 $-1 #
coedge $-1 $174 $109 $271 $272 reversed $68 $-1 #
coedge $-1 $109 $173 $267 $273 reversed $68 $-1 #
coedge $-1 $269 $274 $109 $176 forward $264 $-1 #
edge $-1 $275 19.935257013704941 $276 23.306448559660446 $175 $277 forward 7 unknown #
loop $-1 $-1 $182 $110 #
plane-surface $-1 -60.586565752128678 19.568770522499314 13.728251438450599 -0.82903758062907751 0 0.55919289150049634 0.55919289150049634 0 0.82903758062907751 forward_v I I I I #
loop $-1 $-1 $278 $70 #
coedge $-1 $180 $180 $181 $279 reversed $111 $-1 #
coedge $-1 $181 $181 $180 $279 forward $113 $-1 #
coedge $-1 $182 $182 $114 $183 forward $177 $-1 #
edge $-1 $280 0 $280 6.2831853071796004 $182 $281 forward 7 unknown #
loop $-1 $-1 $189 $115 #
plane-surface $-1 -60.586565752128678 19.568770522499314 13.728251438450599 -0.82903758062907751 0 0.55919289150049634 0.55919289150049634 0 0.82903758062907751 forward_v I I I I #
loop $-1 $-1 $282 $73 #
coedge $-1 $187 $187 $188 $283 reversed $116 $-1 #
coedge $-1 $188 $188 $187 $283 forward $118 $-1 #
coedge $-1 $189 $189 $119 $190 forward $184 $-1 #
edge $-1 $284 0 $284 6.2831853071796004 $189 $285 forward 7 unknown #
face $-1 $286 $287 $40 $-1 $288 forward single #
loop $-1 $-1 $289 $120 #
plane-surface $-1 63.577293932790852 5.6400755133569866 181.96689447366666 0 1 0 0.71933980857756763 0 0.69465836192734942 forward_v I I I I #
coedge $-1 $290 $291 $292 $293 reversed $121 $-1 #
coedge $-1 $196 $123 $294 $295 reversed $77 $-1 #
coedge $-1 $123 $195 $290 $296 reversed $77 $-1 #
coedge $-1 $292 $297 $123 $198 forward $287 $-1 #
edge $-1 $298 -28.797918785733238 $299 -20.977828842267861 $197 $300 forward 7 unknown #
loop $-1 $-1 $204 $124 #
plane-surface $-1 -23.587363288226044 15.273831674493785 97.792965433311963 0.71933980857756763 0 0.69465836192734942 0.69465836192734942 0 -0.71933980857756763 forward_v I I I I #
loop $-1 $-1 $301 $79 #
coedge $-1 $202 $202 $203 $302 reversed $125 $-1 #
coedge $-1 $203 $203 $202 $302 forward $127 $-1 #
coedge $-1 $204 $204 $128 $205 forward $199 $-1 #
edge $-1 $303 0 $303 6.2831853071796004 $204 $304 forward 7 unknown #
loop $-1 $-1 $211 $129 #
plane-surface $-1 -23.587363288226044 15.273831674493785 97.792965433311963 0.71933980857756763 0 0.69465836192734942 0.69465836192734942 0 -0.71933980857756763 forward_v I I I I #
loop $-1 $-1 $305 $82 #
coedge $-1 $209 $209 $210 $306 reversed $130 $-1 #
coedge $-1 $210 $210 $209 $306 forward $132 $-1 #
coedge $-1 $211 $211 $133 $212 forward $206 $-1 #
edge $-1 $307 0 $307 6.2831853071796004 $211 $308 forward 7 unknown #
loop $-1 $-1 $218 $134 #
plane-surface $-1 -23.587363288226044 15.273831674493785 97.792965433311963 0.71933980857756763 0 0.69465836192734942 0.69465836192734942 0 -0.71933980857756763 forward_v I I I I #
loop $-1 $-1 $309 $85 #
coedge $-1 $216 $216 $217 $310 reversed $135 $-1 #
coedge $-1 $217 $217 $216 $310 forward $137 $-1 #
coedge $-1 $218 $218 $138 $219 forward $213 $-1 #
edge $-1 $311 0 $311 6.2831853071796004 $218 $312 forward 7 unknown #
face $-1 $313 $314 $33 $-1 $315 reversed single #
loop $-1 $-1 $316 $139 #
plane-surface $-1 -60.586565752128664 0 0 1 0 0 0 0 -1 forward_v I I I I #
coedge $-1 $317 $231 $318 $319 forward $140 $-1 #
coedge $-1 $320 $142 $317 $321 forward $89 $-1 #
coedge $-1 $142 $320 $322 $323 forward $89 $-1 #
coedge $-1 $234 $233 $142 $227 reversed $235 $-1 #
edge $-1 $324 -37.791579946122845 $325 37.791579946122845 $226 $326 forward 7 unknown #
coedge $-1 $144 $143 $327 $328 forward $56 $-1 #
coedge $-1 $329 $330 $143 $230 reversed $314 $-1 #
edge $-1 $237 -60.586565752128664 $331 60.586565752128664 $229 $332 forward 7 unknown #
coedge $-1 $223 $333 $144 $232 reversed $140 $-1 #
edge $-1 $334 -60.586565752128664 $236 60.586565752128664 $231 $335 forward 7 unknown #
coedge $-1 $226 $145 $333 $336 forward $235 $-1 #
coedge $-1 $145 $226 $329 $337 reversed $235 $-1 #
loop $-1 $-1 $233 $313 #
vertex $-1 $146 $338 #
vertex $-1 $146 $339 #
straight-curve $-1 60.586565752128664 0 18.72624859752872 0 1 0 I I #
face $-1 $-1 $251 $34 $-1 $340 forward single #
loop $-1 $-1 $341 $147 #
plane-surface $-1 -60.586565752128664 0 0 1 0 0 0 0 -1 forward_v I I I I #
coedge $-1 $342 $343 $344 $345 reversed $148 $-1 #
coedge $-1 $346 $150 $152 $249 forward $93 $-1 #
coedge $-1 $150 $346 $342 $347 forward $93 $-1 #
coedge $-1 $344 $153 $150 $246 forward $251 $-1 #
edge $-1 $253 -14.792545227070431 $348 -4.7762252954288833 $245 $349 forward 7 unknown #
coedge $-1 $350 $351 $151 $248 forward $240 $-1 #
edge $-1 $352 -27.015451169792449 $252 -22.017454010714349 $247 $353 forward 7 unknown #
edge $-1 $253 -6.0286738211380229 $352 -2.5618607856530852e-014 $152 $354 forward 7 unknown #
coedge $-1 $153 $344 $350 $355 forward $251 $-1 #
loop $-1 $-1 $344 $239 #
vertex $-1 $248 $356 #
vertex $-1 $154 $357 #
straight-curve $-1 -80.521822765833605 -24.576930488320087 18.72624859752872 1 0 0 I I #
coedge $-1 $255 $255 $-1 $358 reversed $157 $-1 #
edge $-1 $359 0 $359 6.2831853071796004 $158 $360 forward 7 unknown #
vertex $-1 $161 $361 #
ellipse-curve $-1 -58.900969979150908 -21.715124793565359 16.227250017989672 -0.82903758062907751 0 0.55919289150049634 0.55919289150049634 0 0.82903758062907751 1 I I #
coedge $-1 $259 $259 $-1 $362 reversed $164 $-1 #
edge $-1 $363 0 $363 6.2831853071796004 $165 $364 forward 7 unknown #
vertex $-1 $168 $365 #
ellipse-curve $-1 -58.900969979150908 -17.422416251433269 16.227250017989672 -0.82903758062907751 0 0.55919289150049634 0.55919289150049634 0 0.82903758062907751 1 I I #
face $-1 $-1 $366 $37 $-1 $367 reversed single #
loop $-1 $-1 $175 $169 #
plane-surface $-1 0 0 18.72624859752872 0 0 1 1 0 0 forward_v I I I I #
coedge $-1 $368 $369 $370 $371 reversed $170 $-1 #
coedge $-1 $372 $172 $174 $273 forward $107 $-1 #
coedge $-1 $172 $372 $368 $373 forward $107 $-1 #
coedge $-1 $370 $175 $172 $270 forward $264 $-1 #
edge $-1 $276 4.7762252954288833 $374 14.792545227070431 $269 $375 forward 7 unknown #
coedge $-1 $376 $377 $173 $272 forward $366 $-1 #
edge $-1 $378 -27.015451169792449 $275 -22.017454010714349 $271 $379 forward 7 unknown #
edge $-1 $276 -6.0286738211380229 $378 -2.5618607856530852e-014 $174 $380 forward 7 unknown #
coedge $-1 $175 $370 $376 $381 forward $264 $-1 #
vertex $-1 $176 $382 #
vertex $-1 $176 $383 #
straight-curve $-1 -80.521822765833605 14.56061055667854 18.72624859752872 1 0 0 I I #
coedge $-1 $278 $278 $-1 $384 reversed $179 $-1 #
edge $-1 $385 0 $385 6.2831853071796004 $180 $386 forward 7 unknown #
vertex $-1 $183 $387 #
ellipse-curve $-1 -58.900969979150908 17.422416251433269 16.227250017989672 -0.82903758062907751 0 0.55919289150049634 0.55919289150049634 0 0.82903758062907751 1 I I #
coedge $-1 $282 $282 $-1 $388 reversed $186 $-1 #
edge $-1 $389 0 $389 6.2831853071796004 $187 $390 forward 7 unknown #
vertex $-1 $190 $391 #
ellipse-curve $-1 -58.900969979150908 21.715124793565359 16.227250017989672 -0.82903758062907751 0 0.55919289150049634 0.55919289150049634 0 0.82903758062907751 1 I I #
face $-1 $-1 $392 $40 $-1 $393 reversed single #
loop $-1 $-1 $197 $191 #
plane-surface $-1 0 0 18.72624859752872 0 0 1 1 0 0 forward_v I I I I #
coedge $-1 $394 $395 $396 $397 reversed $192 $-1 #
coedge $-1 $398 $194 $196 $296 forward $121 $-1 #
coedge $-1 $194 $398 $394 $399 forward $121 $-1 #
coedge $-1 $396 $197 $194 $293 forward $287 $-1 #
edge $-1 $299 -17.27067199838369 $400 1.9968403238899057 $292 $401 forward 7 unknown #
coedge $-1 $402 $403 $195 $295 forward $392 $-1 #
edge $-1 $404 -80.355139024538275 $298 -72.257198639304605 $294 $405 forward 7 unknown #
edge $-1 $299 109.9156697474186 $404 121.17313150425736 $196 $406 forward 7 unknown #
coedge $-1 $197 $396 $402 $407 forward $287 $-1 #
vertex $-1 $295 $408 #
vertex $-1 $198 $409 #
straight-curve $-1 31.788646966395426 24.907587835630583 18.726248597528723 -1 0 0 I I #
coedge $-1 $301 $301 $-1 $410 reversed $201 $-1 #
edge $-1 $411 0 $411 6.2831853071796004 $202 $412 forward 7 unknown #
vertex $-1 $205 $413 #
ellipse-curve $-1 56.676520780395983 9.4935779778117109 14.677278404911885 0.71933980857756763 0 0.69465836192734942 1.0419875428910241 0 -1.0790097128663514 1 I I #
coedge $-1 $305 $305 $-1 $414 reversed $208 $-1 #
edge $-1 $415 0 $415 6.2831853071796004 $209 $416 forward 7 unknown #
vertex $-1 $212 $417 #
ellipse-curve $-1 56.676520780395983 15.273831674493792 14.677278404911885 0.71933980857756763 0 0.69465836192734942 1.0419875428910241 0 -1.0790097128663514 1 I I #
coedge $-1 $309 $309 $-1 $418 reversed $215 $-1 #
edge $-1 $419 0 $419 6.2831853071796004 $216 $420 forward 7 unknown #
vertex $-1 $219 $421 #
ellipse-curve $-1 56.676520780395983 21.054085371175873 14.677278404911885 0.71933980857756763 0 0.69465836192734942 1.0419875428910241 0 -1.0790097128663514 1 I I #
face $-1 $-1 $235 $33 $-1 $422 reversed single #
loop $-1 $-1 $329 $220 #
plane-surface $-1 0 37.791579946122845 0 0 -1 0 0 0 -1 forward_v I I I I #
coedge $-1 $423 $327 $330 $424 forward $221 $-1 #
coedge $-1 $333 $223 $224 $321 reversed $140 $-1 #
coedge $-1 $327 $423 $223 $319 reversed $221 $-1 #
edge $-1 $334 -18.72624859752872 $425 18.72624859752872 $318 $426 forward 7 unknown #
coedge $-1 $225 $224 $423 $427 forward $89 $-1 #
edge $-1 $325 -60.586565752128664 $425 60.586565752128664 $317 $428 forward 7 unknown #
coedge $-1 $330 $329 $225 $323 reversed $314 $-1 #
edge $-1 $429 -60.586565752128664 $324 60.586565752128664 $322 $430 forward 7 unknown #
vertex $-1 $227 $431 #
vertex $-1 $336 $432 #
straight-curve $-1 60.586565752128664 0 -18.72624859752872 0 -1 0 I I #
coedge $-1 $316 $318 $228 $328 reversed $221 $-1 #
edge $-1 $331 -37.791579946122845 $334 37.791579946122845 $327 $433 forward 7 unknown #
coedge $-1 $322 $229 $234 $337 forward $314 $-1 #
coedge $-1 $229 $322 $316 $424 reversed $314 $-1 #
vertex $-1 $230 $434 #
straight-curve $-1 0 37.791579946122845 18.72624859752872 -1 0 0 I I #
coedge $-1 $231 $317 $233 $336 reversed $140 $-1 #
vertex $-1 $328 $435 #
straight-curve $-1 0 -37.791579946122845 18.72624859752872 1 0 0 I I #
edge $-1 $236 -18.72624859752872 $325 18.72624859752872 $233 $436 forward 7 unknown #
edge $-1 $237 -18.72624859752872 $324 18.72624859752872 $234 $437 forward 7 unknown #
point $-1 60.586565752128664 -37.791579946122845 18.72624859752872 #
point $-1 60.586565752128664 37.791579946122845 18.72624859752872 #
plane-surface $-1 0 0 18.72624859752872 0 0 1 1 0 0 forward_v I I I I #
coedge $-1 $351 $350 $343 $438 forward $240 $-1 #
coedge $-1 $343 $242 $244 $347 reversed $148 $-1 #
coedge $-1 $242 $342 $341 $438 reversed $148 $-1 #
coedge $-1 $250 $245 $242 $345 forward $251 $-1 #
edge $-1 $348 -23.306448559660446 $439 -19.935257013704941 $344 $440 forward 7 unknown #
coedge $-1 $244 $243 $351 $441 reversed $93 $-1 #
edge $-1 $442 2.5618607856530852e-014 $348 6.0286738211380229 $342 $443 forward 7 unknown #
vertex $-1 $246 $444 #
straight-curve $-1 -57.215374206173159 -9.7843852612496569 18.726248597528723 0 1 0 I I #
coedge $-1 $341 $247 $250 $355 reversed $240 $-1 #
coedge $-1 $247 $341 $346 $441 forward $240 $-1 #
vertex $-1 $248 $445 #
straight-curve $-1 -60.586565752128664 -24.576930488320087 40.743702608243069 0 0 1 I I #
straight-curve $-1 -60.586565752128678 -24.576930488320087 13.728251438450599 -0.55919289150049634 0 -0.82903758062907751 I I #
edge $-1 $439 14.56061055667854 $252 24.576930488320087 $350 $446 forward 7 unknown #
point $-1 -60.586565752128664 -24.576930488320087 18.72624859752872 #
point $-1 -57.215374206173159 -24.576930488320087 18.72624859752872 #
edge $-1 $447 1 $447 0 $255 $-1 forward 7 unknown #
vertex $-1 $256 $448 #
ellipse-curve $-1 -57.214760115611206 -21.715124793565359 15.089887139271996 -0.82903758062907751 0 0.55919289150049634 0.55919289150049634 0 0.82903758062907751 1 I I #
point $-1 -58.341777087650414 -21.715124793565359 17.056287598618749 #
edge $-1 $449 1 $449 0 $259 $-1 forward 7 unknown #
vertex $-1 $260 $450 #
ellipse-curve $-1 -57.214760115611206 -17.422416251433269 15.089887139271996 -0.82903758062907751 0 0.55919289150049634 0.55919289150049634 0 0.82903758062907751 1 I I #
point $-1 -58.341777087650414 -17.422416251433269 17.056287598618749 #
loop $-1 $-1 $271 $263 #
plane-surface $-1 -60.586565752128664 0 0 1 0 0 0 0 -1 forward_v I I I I #
coedge $-1 $369 $266 $268 $373 reversed $170 $-1 #
coedge $-1 $266 $368 $451 $452 reversed $170 $-1 #
coedge $-1 $274 $269 $266 $371 forward $264 $-1 #
edge $-1 $374 -23.306448559660446 $453 -19.935257013704941 $370 $454 forward 7 unknown #
coedge $-1 $268 $267 $377 $455 reversed $107 $-1 #
edge $-1 $456 2.5618607856530852e-014 $374 6.0286738211380229 $368 $457 forward 7 unknown #
vertex $-1 $270 $458 #
straight-curve $-1 -57.215374206173159 9.7843852612496569 18.726248597528723 0 1 0 I I #
coedge $-1 $451 $271 $274 $381 reversed $366 $-1 #
coedge $-1 $271 $451 $372 $455 forward $366 $-1 #
vertex $-1 $272 $459 #
straight-curve $-1 -60.586565752128664 14.56061055667854 40.743702608243069 0 0 1 I I #
straight-curve $-1 -60.586565752128678 14.56061055667854 13.728251438450599 -0.55919289150049634 0 -0.82903758062907751 I I #
edge $-1 $453 -24.576930488320087 $275 -14.56061055667854 $376 $460 forward 7 unknown #
point $-1 -60.586565752128664 14.56061055667854 18.72624859752872 #
point $-1 -57.215374206173159 14.56061055667854 18.72624859752872 #
edge $-1 $461 1 $461 0 $278 $-1 forward 7 unknown #
vertex $-1 $279 $462 #
ellipse-curve $-1 -57.214760115611206 17.422416251433269 15.089887139271996 -0.82903758062907751 0 0.55919289150049634 0.55919289150049634 0 0.82903758062907751 1 I I #
point $-1 -58.341777087650414 17.422416251433269 17.056287598618749 #
edge $-1 $463 1 $463 0 $282 $-1 forward 7 unknown #
vertex $-1 $283 $464 #
ellipse-curve $-1 -57.214760115611206 21.715124793565359 15.089887139271996 -0.82903758062907751 0 0.55919289150049634 0.55919289150049634 0 0.82903758062907751 1 I I #
point $-1 -58.341777087650414 21.715124793565359 17.056287598618749 #
loop $-1 $-1 $294 $286 #
plane-surface $-1 60.586565752128664 0 0 -1 0 0 0 0 1 forward_v I I I I #
coedge $-1 $395 $289 $291 $399 reversed $192 $-1 #
coedge $-1 $289 $394 $465 $466 reversed $192 $-1 #
coedge $-1 $297 $292 $289 $397 forward $287 $-1 #
edge $-1 $400 20.977828842267861 $467 28.797918785733238 $396 $468 forward 7 unknown #
coedge $-1 $291 $290 $403 $469 reversed $121 $-1 #
edge $-1 $470 -121.17313150425736 $400 -109.9156697474186 $394 $471 forward 7 unknown #
vertex $-1 $293 $472 #
straight-curve $-1 52.766475808663273 7.6369158372468924 18.72624859752873 0 -1 0 I I #
coedge $-1 $465 $294 $297 $407 reversed $392 $-1 #
coedge $-1 $294 $465 $398 $469 forward $392 $-1 #
vertex $-1 $295 $473 #
straight-curve $-1 60.586565752128664 24.907587835630583 90.983447236833328 0 0 1 I I #
straight-curve $-1 -23.587363288226044 24.907587835630583 97.792965433311963 0.69465836192734942 0 -0.71933980857756763 I I #
edge $-1 $467 5.6400755133569866 $298 24.907587835630583 $402 $474 forward 7 unknown #
point $-1 60.586565752128664 24.907587835630583 18.72624859752872 #
point $-1 52.766475808663287 24.907587835630583 18.726248597528723 #
edge $-1 $475 1 $475 0 $301 $-1 forward 7 unknown #
vertex $-1 $302 $476 #
ellipse-curve $-1 55.53418712338334 9.4935779778117109 13.574139641433716 0.71933980857756763 0 0.69465836192734942 1.0419875428910241 0 -1.0790097128663514 1 I I #
point $-1 57.718508323287026 9.4935779778117109 13.598268692045549 #
edge $-1 $477 1 $477 0 $305 $-1 forward 7 unknown #
vertex $-1 $306 $478 #
ellipse-curve $-1 55.53418712338334 15.273831674493792 13.574139641433716 0.71933980857756763 0 0.69465836192734942 1.0419875428910241 0 -1.0790097128663514 1 I I #
point $-1 57.718508323287026 15.273831674493792 13.598268692045549 #
edge $-1 $479 1 $479 0 $309 $-1 forward 7 unknown #
vertex $-1 $310 $480 #
ellipse-curve $-1 55.53418712338334 21.054085371175873 13.574139641433716 0.71933980857756763 0 0.69465836192734942 1.0419875428910241 0 -1.0790097128663514 1 I I #
point $-1 57.718508323287026 21.054085371175873 13.598268692045549 #
plane-surface $-1 60.586565752128664 0 0 -1 0 0 0 0 1 forward_v I I I I #
coedge $-1 $318 $316 $320 $427 reversed $221 $-1 #
edge $-1 $331 -18.72624859752872 $429 18.72624859752872 $330 $481 forward 7 unknown #
vertex $-1 $427 $482 #
straight-curve $-1 -60.586565752128664 -37.791579946122845 0 0 0 -1 I I #
edge $-1 $425 -37.791579946122845 $429 37.791579946122845 $423 $483 forward 7 unknown #
straight-curve $-1 0 -37.791579946122845 -18.72624859752872 -1 0 0 I I #
vertex $-1 $323 $484 #
straight-curve $-1 0 37.791579946122845 -18.72624859752872 1 0 0 I I #
point $-1 60.586565752128664 37.791579946122845 -18.72624859752872 #
point $-1 60.586565752128664 -37.791579946122845 -18.72624859752872 #
straight-curve $-1 -60.586565752128664 0 18.72624859752872 0 -1 0 I I #
point $-1 -60.586565752128664 37.791579946122845 18.72624859752872 #
point $-1 -60.586565752128664 -37.791579946122845 18.72624859752872 #
straight-curve $-1 60.586565752128664 -37.791579946122845 0 0 0 -1 I I #
straight-curve $-1 60.586565752128664 37.791579946122845 0 0 0 -1 I I #
edge $-1 $439 22.017454010714349 $442 27.015451169792449 $341 $485 forward 7 unknown #
vertex $-1 $355 $486 #
straight-curve $-1 -80.521822765833605 -14.56061055667854 18.72624859752872 -1 0 0 I I #
edge $-1 $442 4.7762252954288833 $352 14.792545227070431 $351 $487 forward 7 unknown #
vertex $-1 $441 $488 #
straight-curve $-1 -60.586565752128678 -14.56061055667854 13.728251438450599 0.55919289150049634 0 0.82903758062907751 I I #
point $-1 -57.215374206173159 -14.56061055667854 18.72624859752872 #
point $-1 -60.586565752128664 -24.576930488320087 13.72825143845062 #
straight-curve $-1 -60.586565752128664 0 18.72624859752872 0 -1 0 I I #
vertex $-1 $358 $489 #
point $-1 -56.655567224110712 -21.715124793565359 15.918924719901073 #
vertex $-1 $362 $490 #
point $-1 -56.655567224110712 -17.422416251433269 15.918924719901073 #
coedge $-1 $377 $376 $369 $452 forward $366 $-1 #
edge $-1 $453 22.017454010714349 $456 27.015451169792449 $451 $491 forward 7 unknown #
vertex $-1 $381 $492 #
straight-curve $-1 -80.521822765833605 24.576930488320087 18.72624859752872 -1 0 0 I I #
edge $-1 $456 -14.792545227070431 $378 -4.7762252954288833 $377 $493 forward 7 unknown #
vertex $-1 $455 $494 #
straight-curve $-1 -60.586565752128678 24.576930488320087 13.728251438450599 0.55919289150049634 0 0.82903758062907751 I I #
point $-1 -57.215374206173159 24.576930488320087 18.72624859752872 #
point $-1 -60.586565752128664 14.56061055667854 13.72825143845062 #
straight-curve $-1 -60.586565752128664 0 18.72624859752872 0 -1 0 I I #
vertex $-1 $384 $495 #
point $-1 -56.655567224110712 17.422416251433269 15.918924719901073 #
vertex $-1 $388 $496 #
point $-1 -56.655567224110712 21.715124793565359 15.918924719901073 #
coedge $-1 $403 $402 $395 $466 forward $392 $-1 #
edge $-1 $467 72.257198639304605 $470 80.355139024538275 $465 $497 forward 7 unknown #
vertex $-1 $407 $498 #
straight-curve $-1 31.788646966395426 5.6400755133569866 18.726248597528723 1 0 0 I I #
edge $-1 $470 -1.9968403238899057 $404 17.27067199838369 $403 $499 forward 7 unknown #
vertex $-1 $469 $500 #
straight-curve $-1 -23.587363288226044 5.6400755133569866 97.792965433311963 -0.69465836192734942 0 0.71933980857756763 I I #
point $-1 52.766475808663287 5.6400755133569866 18.726248597528723 #
point $-1 60.586565752128664 24.907587835630583 10.628308212295053 #
straight-curve $-1 60.586565752128664 0 18.72624859752872 0 1 0 I I #
vertex $-1 $410 $501 #
point $-1 56.576174666274362 9.4935779778117109 12.495129928567364 #
vertex $-1 $414 $502 #
point $-1 56.576174666274362 15.273831674493792 12.495129928567364 #
vertex $-1 $418 $503 #
point $-1 56.576174666274362 21.054085371175873 12.495129928567364 #
straight-curve $-1 -60.586565752128664 37.791579946122845 0 0 0 -1 I I #
point $-1 -60.586565752128664 -37.791579946122845 -18.72624859752872 #
straight-curve $-1 -60.586565752128664 0 -18.72624859752872 0 1 0 I I #
point $-1 -60.586565752128664 37.791579946122845 -18.72624859752872 #
straight-curve $-1 -60.586565752128664 -14.56061055667854 40.743702608243069 0 0 -1 I I #
point $-1 -60.586565752128664 -14.56061055667854 18.72624859752872 #
straight-curve $-1 -60.586565752128664 -9.7843852612496569 13.728251438450624 0 -1 0 I I #
point $-1 -60.586565752128664 -14.56061055667854 13.72825143845062 #
point $-1 -56.385722534982129 -21.715124793565359 14.530694247771498 #
point $-1 -56.385722534982129 -17.422416251433269 14.530694247771498 #
straight-curve $-1 -60.586565752128664 24.576930488320087 40.743702608243069 0 0 -1 I I #
point $-1 -60.586565752128664 24.576930488320087 18.72624859752872 #
straight-curve $-1 -60.586565752128664 9.7843852612496569 13.728251438450624 0 -1 0 I I #
point $-1 -60.586565752128664 24.576930488320087 13.72825143845062 #
point $-1 -56.385722534982129 17.422416251433269 14.530694247771498 #
point $-1 -56.385722534982129 21.715124793565359 14.530694247771498 #
straight-curve $-1 60.586565752128664 5.6400755133569866 90.983447236833328 0 0 -1 I I #
point $-1 60.586565752128664 5.6400755133569866 18.72624859752872 #
straight-curve $-1 60.586565752128664 7.6369158372468924 10.628308212295053 0 1 0 I I #
point $-1 60.586565752128664 5.6400755133569866 10.628308212295053 #
point $-1 54.455177410516988 9.4935779778117109 12.53215209854269 #
point $-1 54.455177410516988 15.273831674493792 12.53215209854269 #
point $-1 54.455177410516988 21.054085371175873 12.53215209854269 #
End-of-ACIS-data 