500 0 6 0           
7 Unknown 11 ACIS 5.0 NT 24 Thu Mar 25 20:38:13 1999 
-1 9.9999999999999995e-007 1e-010 
body $-1 $6 $-1 $7 #
body $-1 $8 $-1 $9 #
body $-1 $10 $-1 $11 #
body $-1 $12 $-1 $13 #
body $-1 $14 $-1 $15 #
body $-1 $16 $-1 $17 #
lump $-1 $-1 $18 $0 #
transform $-1 1 0 0 0 1 0 0 0 1 76.265755180516976 32.778424335679816 8.2593786592468152 1 rotate no_reflect no_shear #
lump $-1 $-1 $19 $1 #
transform $-1 1 0 0 0 1 0 0 0 1 76.265755180516976 32.778424335679816 8.2593786592468152 1 rotate no_reflect no_shear #
lump $-1 $-1 $20 $2 #
transform $-1 1 0 0 0 1 0 0 0 1 76.265755180516976 32.778424335679816 8.2593786592468152 1 rotate no_reflect no_shear #
lump $-1 $-1 $21 $3 #
transform $-1 1 0 0 0 1 0 0 0 1 76.265755180516976 32.778424335679816 8.2593786592468152 1 rotate no_reflect no_shear #
lump $-1 $-1 $22 $4 #
transform $-1 1 0 0 0 1 0 0 0 1 76.265755180516976 32.778424335679816 8.2593786592468152 1 rotate no_reflect no_shear #
lump $-1 $-1 $23 $5 #
transform $-1 1 0 0 0 1 0 0 0 1 76.265755180516976 32.778424335679816 8.2593786592468152 1 rotate no_reflect no_shear #
shell $-1 $-1 $-1 $24 $-1 $6 #
shell $-1 $-1 $-1 $25 $-1 $8 #
shell $-1 $-1 $-1 $26 $-1 $10 #
shell $-1 $-1 $-1 $27 $-1 $12 #
shell $-1 $-1 $-1 $28 $-1 $14 #
shell $-1 $-1 $-1 $29 $-1 $16 #
face $-1 $30 $31 $18 $-1 $32 forward single #
face $-1 $33 $34 $19 $-1 $35 forward single #
face $-1 $36 $37 $20 $-1 $38 reversed single #
face $-1 $39 $40 $21 $-1 $41 forward single #
face $-1 $42 $43 $22 $-1 $44 reversed single #
face $-1 $45 $46 $23 $-1 $47 forward single #
face $-1 $48 $49 $18 $-1 $50 reversed single #
loop $-1 $-1 $51 $24 #
plane-surface $-1 0 0 8.2593786592468152 0 0 1 1 0 0 forward_v I I I I #
face $-1 $52 $53 $19 $-1 $54 forward single #
loop $-1 $-1 $55 $25 #
plane-surface $-1 0 -32.778424335679816 0 0 1 0 0 0 1 forward_v I I I I #
face $-1 $56 $57 $20 $-1 $58 reversed single #
loop $-1 $-1 $59 $26 #
plane-surface $-1 -44.488395980587768 129.75917625688675 137.40752989616652 -1 0 0 0 0.85716730853699208 0.51503806187062418 forward_v I I I I #
face $-1 $60 $61 $21 $-1 $62 forward single #
loop $-1 $63 $64 $27 #
cone-surface $-1 -60.377075580552372 30.489010826438392 5.0931940087998129 0 -0.85716730853699208 -0.51503806187062418 1 0 0 1 I I 0 1 1 forward I I I I #
face $-1 $65 $66 $22 $-1 $67 reversed single #
loop $-1 $-1 $68 $28 #
plane-surface $-1 60.377075580552372 -0.98584794636303741 58.847996425620565 0 0.85716730853699208 0.51503806187062418 1 0 0 forward_v I I I I #
face $-1 $69 $70 $23 $-1 $71 forward single #
loop $-1 $72 $73 $29 #
cone-surface $-1 60.377075580552372 30.489010826438392 5.0931940087998129 0 -0.85716730853699208 -0.51503806187062418 1 0 0 1 I I 0 1 1 forward I I I I #
face $-1 $74 $75 $18 $-1 $76 reversed single #
loop $-1 $-1 $77 $30 #
plane-surface $-1 0 0 -8.2593786592468152 0 0 1 1 0 0 forward_v I I I I #
coedge $-1 $78 $79 $80 $81 forward $31 $-1 #
face $-1 $82 $83 $19 $-1 $84 reversed single #
loop $-1 $-1 $85 $33 #
plane-surface $-1 0 0 8.2593786592468152 0 0 1 1 0 0 forward_v I I I I #
coedge $-1 $86 $87 $88 $89 forward $34 $-1 #
face $-1 $90 $91 $20 $-1 $92 reversed single #
loop $-1 $-1 $93 $36 #
plane-surface $-1 -60.377075580552372 -0.98584794636303741 58.847996425620565 0 0.85716730853699208 0.51503806187062418 1 0 0 forward_v I I I I #
coedge $-1 $94 $95 $96 $97 reversed $37 $-1 #
face $-1 $-1 $98 $21 $-1 $99 forward single #
loop $-1 $100 $101 $39 #
cone-surface $-1 -60.377075580552372 29.454796234226414 4.4717752101287385 0 -0.85716730853699208 -0.51503806187062418 0.5 0 0 1 I I -0.70710678118654813 0.70710678118654691 0.5 forward I I I I #
loop $-1 $-1 $102 $27 #
coedge $-1 $64 $64 $103 $104 reversed $40 $-1 #
face $-1 $105 $106 $22 $-1 $107 forward single #
loop $-1 $-1 $108 $42 #
plane-surface $-1 44.488395980587768 129.75917625688675 137.40752989616652 1 0 0 0 -0.85716730853699208 -0.51503806187062418 forward_v I I I I #
coedge $-1 $109 $110 $111 $112 reversed $43 $-1 #
face $-1 $-1 $113 $23 $-1 $114 forward single #
loop $-1 $115 $116 $45 #
cone-surface $-1 60.377075580552372 29.454796234226414 4.4717752101287385 0 -0.85716730853699208 -0.51503806187062418 0.5 0 0 1 I I -0.70710678118654813 0.70710678118654691 0.5 forward I I I I #
loop $-1 $-1 $117 $29 #
coedge $-1 $73 $73 $118 $119 reversed $46 $-1 #
face $-1 $120 $121 $18 $-1 $122 reversed single #
loop $-1 $-1 $123 $48 #
plane-surface $-1 0 -32.778424335679816 0 0 1 0 0 0 1 forward_v I I I I #
coedge $-1 $124 $125 $126 $127 forward $49 $-1 #
coedge $-1 $128 $51 $129 $130 forward $31 $-1 #
coedge $-1 $51 $128 $131 $132 forward $31 $-1 #
coedge $-1 $133 $134 $51 $81 reversed $135 $-1 #
edge $-1 $136 -32.778424335679816 $137 32.778424335679816 $80 $138 forward 7 unknown #
face $-1 $139 $140 $19 $-1 $141 reversed single #
loop $-1 $-1 $142 $52 #
plane-surface $-1 -76.265755180516976 0 0 1 0 0 0 0 -1 forward_v I I I I #
coedge $-1 $143 $144 $145 $146 forward $53 $-1 #
coedge $-1 $145 $55 $142 $147 reversed $34 $-1 #
coedge $-1 $55 $145 $148 $149 reversed $34 $-1 #
coedge $-1 $150 $151 $55 $89 reversed $140 $-1 #
edge $-1 $152 -76.265755180516976 $153 76.265755180516976 $88 $154 forward 7 unknown #
face $-1 $155 $156 $20 $-1 $157 forward single #
loop $-1 $-1 $96 $56 #
plane-surface $-1 0 32.778424335679816 0 0 -1 0 0 0 -1 forward_v I I I I #
coedge $-1 $158 $159 $160 $161 reversed $57 $-1 #
coedge $-1 $95 $59 $162 $163 reversed $37 $-1 #
coedge $-1 $59 $94 $158 $164 reversed $37 $-1 #
coedge $-1 $160 $165 $59 $97 forward $91 $-1 #
edge $-1 $166 60.444386288836448 $167 66.048956054258895 $96 $168 forward 7 unknown #
loop $-1 $-1 $103 $60 #
plane-surface $-1 -60.377075580552372 -0.98584794636303741 58.847996425620565 0 0.85716730853699208 0.51503806187062418 1 0 0 forward_v I I I I #
loop $-1 $-1 $169 $39 #
coedge $-1 $101 $101 $102 $170 reversed $61 $-1 #
coedge $-1 $102 $102 $101 $170 forward $63 $-1 #
coedge $-1 $103 $103 $64 $104 forward $98 $-1 #
edge $-1 $171 1.5095312396566071e-015 $171 6.2831853071796022 $103 $172 forward 7 unknown #
face $-1 $173 $174 $22 $-1 $175 reversed single #
loop $-1 $-1 $176 $65 #
plane-surface $-1 0 0 8.2593786592468152 0 0 1 1 0 0 forward_v I I I I #
coedge $-1 $177 $178 $179 $180 reversed $66 $-1 #
coedge $-1 $181 $68 $182 $183 reversed $43 $-1 #
coedge $-1 $68 $181 $177 $184 forward $43 $-1 #
coedge $-1 $179 $185 $68 $112 forward $174 $-1 #
edge $-1 $186 -46.07721739024079 $187 -14.299858190311582 $111 $188 forward 7 unknown #
loop $-1 $-1 $118 $69 #
plane-surface $-1 60.377075580552372 -0.98584794636303741 58.847996425620565 0 0.85716730853699208 0.51503806187062418 1 0 0 forward_v I I I I #
loop $-1 $-1 $189 $45 #
coedge $-1 $116 $116 $117 $190 reversed $70 $-1 #
coedge $-1 $117 $117 $116 $190 forward $72 $-1 #
coedge $-1 $118 $118 $73 $119 forward $113 $-1 #
edge $-1 $191 1.5095312396566071e-015 $191 6.2831853071796022 $118 $192 forward 7 unknown #
face $-1 $193 $194 $18 $-1 $195 reversed single #
loop $-1 $-1 $196 $74 #
plane-surface $-1 -76.265755180516976 0 0 1 0 0 0 0 -1 forward_v I I I I #
coedge $-1 $197 $131 $198 $199 forward $75 $-1 #
coedge $-1 $200 $77 $197 $201 forward $49 $-1 #
coedge $-1 $77 $200 $202 $203 forward $49 $-1 #
coedge $-1 $134 $133 $77 $127 reversed $135 $-1 #
edge $-1 $204 -32.778424335679816 $205 32.778424335679816 $126 $206 forward 7 unknown #
coedge $-1 $79 $78 $207 $208 forward $31 $-1 #
coedge $-1 $209 $210 $78 $130 reversed $194 $-1 #
edge $-1 $137 -76.265755180516976 $211 76.265755180516976 $129 $212 forward 7 unknown #
coedge $-1 $123 $213 $79 $132 reversed $75 $-1 #
edge $-1 $214 -76.265755180516976 $136 76.265755180516976 $131 $215 forward 7 unknown #
coedge $-1 $126 $80 $213 $216 forward $135 $-1 #
coedge $-1 $80 $126 $209 $217 reversed $135 $-1 #
loop $-1 $-1 $133 $193 #
vertex $-1 $81 $218 #
vertex $-1 $81 $219 #
straight-curve $-1 76.265755180516976 0 8.2593786592468152 0 1 0 I I #
face $-1 $220 $221 $19 $-1 $222 reversed single #
loop $-1 $-1 $150 $82 #
plane-surface $-1 0 -36.366939978360776 5.2593786592468152 0 0 1 1 0 0 forward_v I I I I #
coedge $-1 $223 $224 $86 $147 forward $83 $-1 #
coedge $-1 $225 $85 $224 $226 forward $53 $-1 #
coedge $-1 $85 $225 $227 $228 forward $53 $-1 #
coedge $-1 $87 $86 $85 $146 reversed $34 $-1 #
edge $-1 $229 -76.265755180516976 $230 76.265755180516976 $85 $231 forward 7 unknown #
edge $-1 $230 -8.2593786592468152 $153 -5.2593786592468152 $142 $232 forward 7 unknown #
coedge $-1 $227 $233 $87 $149 forward $234 $-1 #
edge $-1 $152 5.2593786592468152 $229 8.2593786592468152 $148 $235 forward 7 unknown #
coedge $-1 $236 $88 $233 $237 forward $140 $-1 #
coedge $-1 $88 $236 $223 $238 forward $140 $-1 #
vertex $-1 $149 $239 #
vertex $-1 $147 $240 #
straight-curve $-1 0 -32.778424335679816 5.2593786592468152 -1 0 0 I I #
face $-1 $-1 $241 $20 $-1 $242 reversed single #
loop $-1 $-1 $162 $90 #
plane-surface $-1 0 0 8.2593786592468152 0 0 1 1 0 0 forward_v I I I I #
coedge $-1 $243 $93 $95 $164 forward $57 $-1 #
coedge $-1 $93 $243 $244 $245 reversed $57 $-1 #
coedge $-1 $246 $96 $93 $161 forward $91 $-1 #
edge $-1 $167 14.299858190311582 $247 46.07721739024079 $160 $248 forward 7 unknown #
coedge $-1 $249 $250 $94 $163 forward $156 $-1 #
edge $-1 $251 -35.468728935359401 $166 -32.101163792763558 $162 $252 forward 7 unknown #
edge $-1 $167 -65.556848671359617 $251 -59.01837046575902 $95 $253 forward 7 unknown #
coedge $-1 $96 $246 $249 $254 reversed $91 $-1 #
vertex $-1 $254 $255 #
vertex $-1 $97 $256 #
straight-curve $-1 -44.488395980587768 32.778424335679816 68.703764948083261 0 0 -1 I I #
coedge $-1 $169 $169 $-1 $257 reversed $100 $-1 #
edge $-1 $258 0 $258 6.2831853071796004 $101 $259 forward 7 unknown #
vertex $-1 $104 $260 #
ellipse-curve $-1 -60.377075580552372 31.094641764381898 5.4570937765355882 0 0.85716730853699208 0.51503806187062418 1 0 0 1 I I #
face $-1 $-1 $261 $22 $-1 $262 reversed single #
loop $-1 $-1 $179 $105 #
plane-surface $-1 0 32.778424335679816 0 0 -1 0 0 0 -1 forward_v I I I I #
coedge $-1 $263 $264 $178 $265 forward $106 $-1 #
coedge $-1 $178 $108 $110 $184 reversed $66 $-1 #
coedge $-1 $108 $177 $176 $265 reversed $66 $-1 #
coedge $-1 $266 $111 $108 $180 forward $174 $-1 #
edge $-1 $187 -66.048956054258895 $267 -60.444386288836448 $179 $268 forward 7 unknown #
coedge $-1 $110 $109 $263 $269 reversed $43 $-1 #
coedge $-1 $270 $271 $109 $183 forward $261 $-1 #
edge $-1 $272 33.543206503490168 $186 40.081684709090766 $182 $273 forward 7 unknown #
edge $-1 $274 59.01837046575902 $187 65.556848671359617 $177 $275 forward 7 unknown #
coedge $-1 $111 $266 $270 $276 forward $174 $-1 #
vertex $-1 $183 $277 #
vertex $-1 $112 $278 #
straight-curve $-1 30.188537790276186 32.778424335679816 2.6548088938243737 -1 0 0 I I #
coedge $-1 $189 $189 $-1 $279 reversed $115 $-1 #
edge $-1 $280 0 $280 6.2831853071796004 $116 $281 forward 7 unknown #
vertex $-1 $119 $282 #
ellipse-curve $-1 60.377075580552372 31.094641764381898 5.4570937765355882 0 0.85716730853699208 0.51503806187062418 1 0 0 1 I I #
face $-1 $-1 $135 $18 $-1 $283 reversed single #
loop $-1 $-1 $209 $120 #
plane-surface $-1 0 32.778424335679816 0 0 -1 0 0 0 -1 forward_v I I I I #
coedge $-1 $284 $207 $210 $285 forward $121 $-1 #
coedge $-1 $213 $123 $124 $201 reversed $75 $-1 #
coedge $-1 $207 $284 $123 $199 reversed $121 $-1 #
edge $-1 $214 -8.2593786592468152 $286 8.2593786592468152 $198 $287 forward 7 unknown #
coedge $-1 $125 $124 $284 $288 forward $49 $-1 #
edge $-1 $205 -76.265755180516976 $286 76.265755180516976 $197 $289 forward 7 unknown #
coedge $-1 $210 $209 $125 $203 reversed $194 $-1 #
edge $-1 $290 -76.265755180516976 $204 76.265755180516976 $202 $291 forward 7 unknown #
vertex $-1 $127 $292 #
vertex $-1 $216 $293 #
straight-curve $-1 76.265755180516976 0 -8.2593786592468152 0 -1 0 I I #
coedge $-1 $196 $198 $128 $208 reversed $121 $-1 #
edge $-1 $211 -32.778424335679816 $214 32.778424335679816 $207 $294 forward 7 unknown #
coedge $-1 $202 $129 $134 $217 forward $194 $-1 #
coedge $-1 $129 $202 $196 $285 reversed $194 $-1 #
vertex $-1 $130 $295 #
straight-curve $-1 0 32.778424335679816 8.2593786592468152 -1 0 0 I I #
coedge $-1 $131 $197 $133 $216 reversed $75 $-1 #
vertex $-1 $208 $296 #
straight-curve $-1 0 -32.778424335679816 8.2593786592468152 1 0 0 I I #
edge $-1 $136 -8.2593786592468152 $205 8.2593786592468152 $133 $297 forward 7 unknown #
edge $-1 $137 -8.2593786592468152 $204 8.2593786592468152 $134 $298 forward 7 unknown #
point $-1 76.265755180516976 -32.778424335679816 8.2593786592468152 #
point $-1 76.265755180516976 32.778424335679816 8.2593786592468152 #
face $-1 $-1 $234 $19 $-1 $299 reversed single #
loop $-1 $-1 $300 $139 #
plane-surface $-1 0 -39.955455621041736 6.7593786592468152 0 1 0 0 0 1 forward_v I I I I #
coedge $-1 $301 $142 $151 $238 reversed $83 $-1 #
coedge $-1 $142 $301 $143 $226 reversed $83 $-1 #
coedge $-1 $144 $143 $302 $303 forward $53 $-1 #
edge $-1 $230 32.778424335679816 $304 39.955455621041736 $224 $305 forward 7 unknown #
coedge $-1 $306 $148 $144 $228 reversed $234 $-1 #
edge $-1 $307 -39.955455621041736 $229 -32.778424335679816 $227 $308 forward 7 unknown #
vertex $-1 $149 $309 #
vertex $-1 $226 $310 #
straight-curve $-1 0 -32.778424335679816 8.2593786592468152 -1 0 0 I I #
straight-curve $-1 -76.265755180516976 -32.778424335679816 0 0 0 -1 I I #
coedge $-1 $148 $306 $150 $237 reversed $234 $-1 #
loop $-1 $-1 $148 $220 #
straight-curve $-1 76.265755180516976 -32.778424335679816 0 0 0 1 I I #
coedge $-1 $151 $150 $311 $312 forward $140 $-1 #
edge $-1 $152 -3.5885156426809601 $313 3.5885156426809601 $233 $314 forward 7 unknown #
edge $-1 $315 -3.5885156426809601 $153 3.5885156426809601 $223 $316 forward 7 unknown #
point $-1 76.265755180516976 -32.778424335679816 5.2593786592468152 #
point $-1 -76.265755180516976 -32.778424335679816 5.2593786592468152 #
loop $-1 $-1 $244 $155 #
plane-surface $-1 -76.265755180516976 0 0 1 0 0 0 0 -1 forward_v I I I I #
coedge $-1 $159 $158 $250 $317 reversed $57 $-1 #
coedge $-1 $318 $319 $159 $245 forward $241 $-1 #
edge $-1 $247 -40.081684709090766 $320 -33.543206503490168 $244 $321 forward 7 unknown #
coedge $-1 $165 $160 $319 $322 reversed $91 $-1 #
vertex $-1 $161 $323 #
straight-curve $-1 -30.188537790276186 32.778424335679816 2.6548088938243737 -1 0 0 I I #
coedge $-1 $324 $162 $165 $254 forward $156 $-1 #
coedge $-1 $162 $324 $243 $317 forward $156 $-1 #
vertex $-1 $163 $325 #
straight-curve $-1 -44.488395980587768 64.879588128443373 8.2593786592468206 0 1 0 I I #
straight-curve $-1 -44.488395980587768 -0.98584794636303741 58.847996425620565 0 -0.51503806187062418 0.85716730853699208 I I #
edge $-1 $166 44.488395980587768 $326 76.265755180516976 $165 $327 forward 7 unknown #
point $-1 -44.488395980587768 32.778424335679816 8.2593786592468152 #
point $-1 -44.488395980587768 32.778424335679816 2.6548088938243737 #
edge $-1 $328 1 $328 0 $169 $-1 forward 7 unknown #
vertex $-1 $170 $329 #
ellipse-curve $-1 -60.377075580552372 29.883379888494911 4.7292942410640499 0 0.85716730853699208 0.51503806187062418 1 0 0 1 I I #
point $-1 -59.377075580552372 31.09464176438188 5.4570937765355758 #
loop $-1 $-1 $182 $173 #
plane-surface $-1 76.265755180516976 0 0 -1 0 0 0 0 1 forward_v I I I I #
coedge $-1 $330 $176 $181 $269 forward $106 $-1 #
coedge $-1 $176 $330 $266 $331 forward $106 $-1 #
edge $-1 $267 32.101163792763558 $274 35.468728935359401 $176 $332 forward 7 unknown #
coedge $-1 $185 $179 $264 $331 reversed $174 $-1 #
vertex $-1 $265 $333 #
straight-curve $-1 44.488395980587768 32.778424335679816 68.703764948083261 0 0 1 I I #
edge $-1 $274 14.299858190311582 $272 46.07721739024079 $263 $334 forward 7 unknown #
coedge $-1 $271 $182 $185 $276 reversed $261 $-1 #
coedge $-1 $182 $270 $330 $335 reversed $261 $-1 #
vertex $-1 $335 $336 #
straight-curve $-1 76.265755180516976 12.134831126600274 37.011518697544012 0 0.51503806187062429 -0.85716730853699219 I I #
vertex $-1 $269 $337 #
straight-curve $-1 44.488395980587768 -0.98584794636303741 58.847996425620565 0 0.51503806187062418 -0.85716730853699208 I I #
edge $-1 $338 -8.2593786592468152 $186 -2.6548088938243737 $270 $339 forward 7 unknown #
point $-1 76.265755180516976 32.778424335679816 2.6548088938243737 #
point $-1 44.488395980587768 32.778424335679816 2.6548088938243737 #
edge $-1 $340 1 $340 0 $189 $-1 forward 7 unknown #
vertex $-1 $190 $341 #
ellipse-curve $-1 60.377075580552372 29.883379888494911 4.7292942410640499 0 0.85716730853699208 0.51503806187062418 1 0 0 1 I I #
point $-1 61.377075580552372 31.09464176438188 5.4570937765355758 #
plane-surface $-1 76.265755180516976 0 0 -1 0 0 0 0 1 forward_v I I I I #
coedge $-1 $198 $196 $200 $288 reversed $121 $-1 #
edge $-1 $211 -8.2593786592468152 $290 8.2593786592468152 $210 $342 forward 7 unknown #
vertex $-1 $288 $343 #
straight-curve $-1 -76.265755180516976 -32.778424335679816 0 0 0 -1 I I #
edge $-1 $286 -32.778424335679816 $290 32.778424335679816 $284 $344 forward 7 unknown #
straight-curve $-1 0 -32.778424335679816 -8.2593786592468152 -1 0 0 I I #
vertex $-1 $203 $345 #
straight-curve $-1 0 32.778424335679816 -8.2593786592468152 1 0 0 I I #
point $-1 76.265755180516976 32.778424335679816 -8.2593786592468152 #
point $-1 76.265755180516976 -32.778424335679816 -8.2593786592468152 #
straight-curve $-1 -76.265755180516976 0 8.2593786592468152 0 -1 0 I I #
point $-1 -76.265755180516976 32.778424335679816 8.2593786592468152 #
point $-1 -76.265755180516976 -32.778424335679816 8.2593786592468152 #
straight-curve $-1 76.265755180516976 -32.778424335679816 0 0 0 -1 I I #
straight-curve $-1 76.265755180516976 32.778424335679816 0 0 0 -1 I I #
plane-surface $-1 76.265755180516976 0 0 -1 0 0 0 0 1 forward_v I I I I #
coedge $-1 $311 $302 $301 $346 forward $221 $-1 #
coedge $-1 $224 $223 $300 $346 reversed $83 $-1 #
coedge $-1 $300 $347 $225 $303 reversed $221 $-1 #
edge $-1 $304 -76.265755180516976 $307 76.265755180516976 $302 $348 forward 7 unknown #
vertex $-1 $226 $349 #
straight-curve $-1 -76.265755180516976 0 8.2593786592468152 0 -1 0 I I #
coedge $-1 $233 $227 $347 $350 forward $234 $-1 #
vertex $-1 $228 $351 #
straight-curve $-1 76.265755180516976 0 8.2593786592468152 0 1 0 I I #
point $-1 76.265755180516976 -32.778424335679816 8.2593786592468152 #
point $-1 -76.265755180516976 -32.778424335679816 8.2593786592468152 #
coedge $-1 $347 $300 $236 $312 reversed $221 $-1 #
edge $-1 $313 -76.265755180516976 $315 76.265755180516976 $311 $352 forward 7 unknown #
vertex $-1 $350 $353 #
straight-curve $-1 76.265755180516976 -36.366939978360776 5.2593786592468152 0 -1 0 I I #
vertex $-1 $238 $354 #
straight-curve $-1 -76.265755180516976 -36.366939978360776 5.2593786592468152 0 1 0 I I #
edge $-1 $320 -46.07721739024079 $251 -14.299858190311582 $250 $355 forward 7 unknown #
coedge $-1 $319 $244 $324 $356 reversed $241 $-1 #
coedge $-1 $244 $318 $246 $322 forward $241 $-1 #
vertex $-1 $245 $357 #
straight-curve $-1 -76.265755180516976 12.134831126600274 37.011518697544012 0 -0.51503806187062429 0.85716730853699219 I I #
edge $-1 $326 -8.2593786592468152 $247 -2.6548088938243715 $246 $358 forward 7 unknown #
point $-1 -76.265755180516976 32.778424335679816 2.6548088938243715 #
coedge $-1 $250 $249 $318 $356 forward $156 $-1 #
point $-1 -44.488395980587768 29.410859193083972 8.2593786592468135 #
vertex $-1 $254 $359 #
straight-curve $-1 0 32.778424335679816 8.2593786592468152 -1 0 0 I I #
vertex $-1 $257 $360 #
point $-1 -59.377075580552372 29.883379888494911 4.7292942410640499 #
coedge $-1 $264 $263 $271 $335 forward $106 $-1 #
edge $-1 $338 -76.265755180516976 $267 -44.488395980587768 $266 $361 forward 7 unknown #
straight-curve $-1 44.488395980587768 64.879588128443373 8.2593786592468206 0 -1 0 I I #
point $-1 44.488395980587768 32.778424335679816 8.2593786592468152 #
straight-curve $-1 30.188537790276186 29.410859193083965 8.2593786592468135 1 0 0 I I #
edge $-1 $272 29.410859193083972 $338 32.778424335679816 $271 $362 forward 7 unknown #
point $-1 76.265755180516976 29.410859193083972 8.2593786592468135 #
point $-1 44.488395980587768 29.410859193083972 8.2593786592468135 #
vertex $-1 $335 $363 #
straight-curve $-1 76.265755180516976 32.778424335679816 0 0 0 -1 I I #
vertex $-1 $279 $364 #
point $-1 61.377075580552372 29.883379888494911 4.7292942410640499 #
straight-curve $-1 -76.265755180516976 32.778424335679816 0 0 0 -1 I I #
point $-1 -76.265755180516976 -32.778424335679816 -8.2593786592468152 #
straight-curve $-1 -76.265755180516976 0 -8.2593786592468152 0 1 0 I I #
point $-1 -76.265755180516976 32.778424335679816 -8.2593786592468152 #
edge $-1 $304 -1.5 $315 1.5 $301 $365 forward 7 unknown #
coedge $-1 $302 $311 $306 $350 reversed $221 $-1 #
straight-curve $-1 0 -39.955455621041736 8.2593786592468152 1 0 0 I I #
point $-1 -76.265755180516976 -39.955455621041736 8.2593786592468152 #
edge $-1 $307 -1.5 $313 1.5 $306 $366 forward 7 unknown #
point $-1 76.265755180516976 -39.955455621041736 8.2593786592468152 #
straight-curve $-1 0 -39.955455621041736 5.2593786592468152 -1 0 0 I I #
point $-1 76.265755180516976 -39.955455621041736 5.2593786592468152 #
point $-1 -76.265755180516976 -39.955455621041736 5.2593786592468152 #
straight-curve $-1 -30.188537790276186 29.410859193083965 8.2593786592468135 1 0 0 I I #
edge $-1 $326 -32.778424335679816 $320 -29.410859193083972 $318 $367 forward 7 unknown #
point $-1 -76.265755180516976 29.410859193083972 8.2593786592468135 #
straight-curve $-1 -76.265755180516976 32.778424335679816 0 0 0 -1 I I #
point $-1 -76.265755180516976 32.778424335679816 8.2593786592468152 #
point $-1 -60.377075580552372 29.026212579957917 4.214256179193427 #
straight-curve $-1 0 32.778424335679816 8.2593786592468152 -1 0 0 I I #
straight-curve $-1 76.265755180516976 0 8.2593786592468152 0 1 0 I I #
point $-1 76.265755180516976 32.778424335679816 8.2593786592468152 #
point $-1 60.377075580552372 29.026212579957917 4.214256179193427 #
straight-curve $-1 -76.265755180516976 -39.955455621041736 6.7593786592468152 0 0 -1 I I #
straight-curve $-1 76.265755180516976 -39.955455621041736 6.7593786592468152 0 0 -1 I I #
straight-curve $-1 -76.265755180516976 0 8.2593786592468152 0 -1 0 I I #
End-of-ACIS-data 