500 0 5 0           
7 Unknown 11 ACIS 5.0 NT 24 Fri Mar 26 02:51:53 1999 
-1 9.9999999999999995e-007 1e-010 
body $-1 $5 $-1 $6 #
body $-1 $7 $-1 $8 #
body $-1 $9 $-1 $10 #
body $-1 $11 $-1 $12 #
body $-1 $13 $-1 $14 #
lump $-1 $-1 $15 $0 #
transform $-1 1 0 0 0 1 0 0 0 1 73.755912961210981 39.967795090238788 12.703042853718156 1 rotate no_reflect no_shear #
lump $-1 $-1 $16 $1 #
transform $-1 1 0 0 0 1 0 0 0 1 73.755912961210981 39.967795090238788 12.703042853718156 1 rotate no_reflect no_shear #
lump $-1 $-1 $17 $2 #
transform $-1 1 0 0 0 1 0 0 0 1 73.755912961210981 39.967795090238788 12.703042853718156 1 rotate no_reflect no_shear #
lump $-1 $-1 $18 $3 #
transform $-1 1 0 0 0 1 0 0 0 1 73.755912961210981 39.967795090238788 12.703042853718156 1 rotate no_reflect no_shear #
lump $-1 $-1 $19 $4 #
transform $-1 1 0 0 0 1 0 0 0 1 73.755912961210981 39.967795090238788 12.703042853718156 1 rotate no_reflect no_shear #
shell $-1 $-1 $-1 $20 $-1 $5 #
shell $-1 $-1 $-1 $21 $-1 $7 #
shell $-1 $-1 $-1 $22 $-1 $9 #
shell $-1 $-1 $-1 $23 $-1 $11 #
shell $-1 $-1 $-1 $24 $-1 $13 #
face $-1 $25 $26 $15 $-1 $27 forward single #
face $-1 $28 $29 $16 $-1 $30 forward single #
face $-1 $31 $32 $17 $-1 $33 reversed single #
face $-1 $34 $35 $18 $-1 $36 forward single #
face $-1 $37 $38 $19 $-1 $39 forward single #
face $-1 $40 $41 $15 $-1 $42 reversed single #
loop $-1 $-1 $43 $20 #
plane-surface $-1 0 0 12.703042853718156 0 0 1 1 0 0 forward_v I I I I #
face $-1 $44 $45 $16 $-1 $46 forward single #
loop $-1 $-1 $47 $21 #
plane-surface $-1 0 -39.967795090238788 0 0 1 0 0 0 1 forward_v I I I I #
face $-1 $48 $49 $17 $-1 $50 reversed single #
loop $-1 $-1 $51 $22 #
plane-surface $-1 120.68368087650083 15.691364361913973 203.5048592270461 0 -1 0 -0.84804810408105047 0 -0.52991925155115449 forward_v I I I I #
face $-1 $52 $53 $18 $-1 $54 forward single #
loop $-1 $55 $56 $23 #
cone-surface $-1 69.13249910350784 10.579368670871965 6.0151680613062002 -0.84804810408105047 0 -0.52991925155115449 0.26495962577557725 0 -0.42402405204052523 1 I I 0 1 0.5 forward I I I I #
face $-1 $57 $58 $19 $-1 $59 forward single #
loop $-1 $60 $61 $24 #
cone-surface $-1 69.13249910350784 13.646566085497163 6.0151680613062002 -0.84804810408105047 0 -0.52991925155115449 0.26495962577557725 0 -0.42402405204052523 1 I I 0 1 0.5 forward I I I I #
face $-1 $62 $63 $15 $-1 $64 reversed single #
loop $-1 $-1 $65 $25 #
plane-surface $-1 0 0 -12.703042853718156 0 0 1 1 0 0 forward_v I I I I #
coedge $-1 $66 $67 $68 $69 forward $26 $-1 #
face $-1 $70 $71 $16 $-1 $72 reversed single #
loop $-1 $-1 $73 $28 #
plane-surface $-1 0 0 12.703042853718156 0 0 1 1 0 0 forward_v I I I I #
coedge $-1 $74 $75 $76 $77 forward $29 $-1 #
face $-1 $78 $79 $17 $-1 $80 reversed single #
loop $-1 $-1 $81 $31 #
plane-surface $-1 -4.4134434265430684 12.112967378184571 125.33550283929206 0.84804810408105047 0 0.52991925155115449 0.52991925155115449 0 -0.84804810408105047 forward_v I I I I #
coedge $-1 $82 $83 $84 $85 reversed $32 $-1 #
face $-1 $-1 $86 $18 $-1 $87 forward single #
loop $-1 $88 $89 $34 #
cone-surface $-1 68.191466447104716 10.579368670871965 5.4271456147414519 -0.84804810408105047 0 -0.52991925155115449 0.13247981288778862 0 -0.21201202602026262 1 I I -0.70710678118654746 0.70710678118654746 0.25 forward I I I I #
loop $-1 $-1 $90 $23 #
coedge $-1 $56 $56 $91 $92 reversed $35 $-1 #
face $-1 $-1 $93 $19 $-1 $94 forward single #
loop $-1 $95 $96 $37 #
cone-surface $-1 68.191466447104716 13.646566085497163 5.4271456147414519 -0.84804810408105047 0 -0.52991925155115449 0.13247981288778862 0 -0.21201202602026262 1 I I -0.70710678118654746 0.70710678118654746 0.25 forward I I I I #
loop $-1 $-1 $97 $24 #
coedge $-1 $61 $61 $98 $99 reversed $38 $-1 #
face $-1 $100 $101 $15 $-1 $102 reversed single #
loop $-1 $-1 $103 $40 #
plane-surface $-1 0 -39.967795090238788 0 0 1 0 0 0 1 forward_v I I I I #
coedge $-1 $104 $105 $106 $107 forward $41 $-1 #
coedge $-1 $108 $43 $109 $110 forward $26 $-1 #
coedge $-1 $43 $108 $111 $112 forward $26 $-1 #
coedge $-1 $113 $114 $43 $69 reversed $115 $-1 #
edge $-1 $116 -39.967795090238788 $117 39.967795090238788 $68 $118 forward 7 unknown #
face $-1 $119 $120 $16 $-1 $121 reversed single #
loop $-1 $-1 $122 $44 #
plane-surface $-1 -73.755912961210981 0 0 1 0 0 0 0 -1 forward_v I I I I #
coedge $-1 $123 $124 $75 $125 forward $45 $-1 #
coedge $-1 $126 $47 $127 $128 reversed $29 $-1 #
coedge $-1 $47 $126 $73 $125 reversed $29 $-1 #
coedge $-1 $129 $130 $47 $77 reversed $131 $-1 #
edge $-1 $132 -12.703042853718156 $133 12.703042853718156 $76 $134 forward 7 unknown #
face $-1 $135 $136 $17 $-1 $137 forward single #
loop $-1 $-1 $138 $48 #
plane-surface $-1 120.68368087650083 8.5345703944551694 203.5048592270461 0 1 0 0.84804810408105047 0 0.52991925155115449 forward_v I I I I #
coedge $-1 $139 $140 $141 $142 reversed $49 $-1 #
coedge $-1 $83 $51 $143 $144 reversed $32 $-1 #
coedge $-1 $51 $82 $139 $145 reversed $32 $-1 #
coedge $-1 $141 $146 $51 $85 forward $136 $-1 #
edge $-1 $147 -13.414072522960566 $148 -5.6252860683200083 $84 $149 forward 7 unknown #
loop $-1 $-1 $91 $52 #
plane-surface $-1 -4.4134434265430684 12.112967378184571 125.33550283929206 0.84804810408105047 0 0.52991925155115449 0.52991925155115449 0 -0.84804810408105047 forward_v I I I I #
loop $-1 $-1 $150 $34 #
coedge $-1 $89 $89 $90 $151 reversed $53 $-1 #
coedge $-1 $90 $90 $89 $151 forward $55 $-1 #
coedge $-1 $91 $91 $56 $92 forward $86 $-1 #
edge $-1 $152 0 $152 6.2831853071796004 $91 $153 forward 7 unknown #
loop $-1 $-1 $98 $57 #
plane-surface $-1 -4.4134434265430684 12.112967378184571 125.33550283929206 0.84804810408105047 0 0.52991925155115449 0.52991925155115449 0 -0.84804810408105047 forward_v I I I I #
loop $-1 $-1 $154 $37 #
coedge $-1 $96 $96 $97 $155 reversed $58 $-1 #
coedge $-1 $97 $97 $96 $155 forward $60 $-1 #
coedge $-1 $98 $98 $61 $99 forward $93 $-1 #
edge $-1 $156 0 $156 6.2831853071796004 $98 $157 forward 7 unknown #
face $-1 $158 $159 $15 $-1 $160 reversed single #
loop $-1 $-1 $161 $62 #
plane-surface $-1 -73.755912961210981 0 0 1 0 0 0 0 -1 forward_v I I I I #
coedge $-1 $162 $111 $163 $164 forward $63 $-1 #
coedge $-1 $165 $65 $162 $166 forward $41 $-1 #
coedge $-1 $65 $165 $167 $168 forward $41 $-1 #
coedge $-1 $114 $113 $65 $107 reversed $115 $-1 #
edge $-1 $169 -39.967795090238788 $170 39.967795090238788 $106 $171 forward 7 unknown #
coedge $-1 $67 $66 $172 $173 forward $26 $-1 #
coedge $-1 $174 $175 $66 $110 reversed $159 $-1 #
edge $-1 $117 -73.755912961210981 $176 73.755912961210981 $109 $177 forward 7 unknown #
coedge $-1 $103 $178 $67 $112 reversed $63 $-1 #
edge $-1 $179 -73.755912961210981 $116 73.755912961210981 $111 $180 forward 7 unknown #
coedge $-1 $106 $68 $178 $181 forward $115 $-1 #
coedge $-1 $68 $106 $174 $182 reversed $115 $-1 #
loop $-1 $-1 $113 $158 #
vertex $-1 $69 $183 #
vertex $-1 $69 $184 #
straight-curve $-1 73.755912961210981 0 12.703042853718156 0 1 0 I I #
face $-1 $185 $131 $16 $-1 $186 reversed single #
loop $-1 $-1 $187 $70 #
plane-surface $-1 -71.943092175412119 -51.167368642137475 0 0 1 0 0 0 1 forward_v I I I I #
coedge $-1 $188 $189 $126 $190 forward $71 $-1 #
coedge $-1 $191 $73 $189 $192 forward $45 $-1 #
coedge $-1 $73 $191 $129 $193 forward $45 $-1 #
edge $-1 $132 70.130271389613256 $194 73.755912961210981 $73 $195 forward 7 unknown #
coedge $-1 $75 $74 $122 $190 reversed $29 $-1 #
coedge $-1 $196 $197 $74 $128 forward $198 $-1 #
edge $-1 $199 -73.755912961210981 $133 -70.130271389613256 $127 $200 forward 7 unknown #
coedge $-1 $201 $76 $124 $193 reversed $131 $-1 #
coedge $-1 $76 $201 $196 $202 reversed $131 $-1 #
loop $-1 $-1 $201 $119 #
vertex $-1 $125 $203 #
vertex $-1 $202 $204 #
straight-curve $-1 -70.130271389613256 -39.967795090238788 0 0 0 -1 I I #
face $-1 $-1 $205 $17 $-1 $206 reversed single #
loop $-1 $-1 $84 $78 #
plane-surface $-1 0 0 12.703042853718156 0 0 1 1 0 0 forward_v I I I I #
coedge $-1 $207 $208 $209 $210 reversed $79 $-1 #
coedge $-1 $211 $81 $83 $145 forward $49 $-1 #
coedge $-1 $81 $211 $207 $212 forward $49 $-1 #
coedge $-1 $209 $84 $81 $142 forward $136 $-1 #
edge $-1 $148 -9.6348806728216871 $213 -2.4780867053628839 $141 $214 forward 7 unknown #
coedge $-1 $215 $216 $82 $144 forward $205 $-1 #
edge $-1 $217 -101.51405107727491 $147 -89.049386759804889 $143 $218 forward 7 unknown #
edge $-1 $148 132.81376309144991 $217 147.51182592242199 $83 $219 forward 7 unknown #
coedge $-1 $84 $209 $215 $220 forward $136 $-1 #
vertex $-1 $144 $221 #
vertex $-1 $85 $222 #
straight-curve $-1 60.341840438250415 15.691364361913973 12.703042853718159 -1 0 0 I I #
coedge $-1 $150 $150 $-1 $223 reversed $88 $-1 #
edge $-1 $224 0 $224 6.2831853071796004 $89 $225 forward 7 unknown #
vertex $-1 $92 $226 #
ellipse-curve $-1 69.861519733890688 10.579368670871965 6.4707106949831577 0.84804810408105047 0 0.52991925155115449 0.26495962577557725 0 -0.42402405204052523 1 I I #
coedge $-1 $154 $154 $-1 $227 reversed $95 $-1 #
edge $-1 $228 0 $228 6.2831853071796004 $96 $229 forward 7 unknown #
vertex $-1 $99 $230 #
ellipse-curve $-1 69.861519733890688 13.646566085497163 6.4707106949831577 0.84804810408105047 0 0.52991925155115449 0.26495962577557725 0 -0.42402405204052523 1 I I #
face $-1 $-1 $115 $15 $-1 $231 reversed single #
loop $-1 $-1 $174 $100 #
plane-surface $-1 0 39.967795090238788 0 0 -1 0 0 0 -1 forward_v I I I I #
coedge $-1 $232 $172 $175 $233 forward $101 $-1 #
coedge $-1 $178 $103 $104 $166 reversed $63 $-1 #
coedge $-1 $172 $232 $103 $164 reversed $101 $-1 #
edge $-1 $179 -12.703042853718156 $234 12.703042853718156 $163 $235 forward 7 unknown #
coedge $-1 $105 $104 $232 $236 forward $41 $-1 #
edge $-1 $170 -73.755912961210981 $234 73.755912961210981 $162 $237 forward 7 unknown #
coedge $-1 $175 $174 $105 $168 reversed $159 $-1 #
edge $-1 $238 -73.755912961210981 $169 73.755912961210981 $167 $239 forward 7 unknown #
vertex $-1 $107 $240 #
vertex $-1 $181 $241 #
straight-curve $-1 73.755912961210981 0 -12.703042853718156 0 -1 0 I I #
coedge $-1 $161 $163 $108 $173 reversed $101 $-1 #
edge $-1 $176 -39.967795090238788 $179 39.967795090238788 $172 $242 forward 7 unknown #
coedge $-1 $167 $109 $114 $182 forward $159 $-1 #
coedge $-1 $109 $167 $161 $233 reversed $159 $-1 #
vertex $-1 $110 $243 #
straight-curve $-1 0 39.967795090238788 12.703042853718156 -1 0 0 I I #
coedge $-1 $111 $162 $113 $181 reversed $63 $-1 #
vertex $-1 $173 $244 #
straight-curve $-1 0 -39.967795090238788 12.703042853718156 1 0 0 I I #
edge $-1 $116 -12.703042853718156 $170 12.703042853718156 $113 $245 forward 7 unknown #
edge $-1 $117 -12.703042853718156 $169 12.703042853718156 $114 $246 forward 7 unknown #
point $-1 73.755912961210981 -39.967795090238788 12.703042853718156 #
point $-1 73.755912961210981 39.967795090238788 12.703042853718156 #
face $-1 $-1 $198 $16 $-1 $247 reversed single #
plane-surface $-1 -70.130271389613256 -45.567581866188135 0 -1 0 0 0 0 1 forward_v I I I I #
coedge $-1 $248 $249 $250 $251 forward $120 $-1 #
coedge $-1 $250 $122 $197 $252 reversed $71 $-1 #
coedge $-1 $122 $250 $123 $192 reversed $71 $-1 #
edge $-1 $194 -12.703042853718156 $199 12.703042853718156 $122 $253 forward 7 unknown #
coedge $-1 $124 $123 $249 $254 forward $45 $-1 #
edge $-1 $194 39.967795090238788 $255 51.167368642137475 $189 $256 forward 7 unknown #
edge $-1 $257 -5.5997867759493403 $132 5.5997867759493403 $129 $258 forward 7 unknown #
vertex $-1 $192 $259 #
straight-curve $-1 0 -39.967795090238788 12.703042853718156 -1 0 0 I I #
coedge $-1 $260 $127 $130 $202 forward $198 $-1 #
coedge $-1 $127 $260 $188 $252 forward $198 $-1 #
loop $-1 $-1 $127 $185 #
vertex $-1 $190 $261 #
straight-curve $-1 0 -39.967795090238788 -12.703042853718156 1 0 0 I I #
coedge $-1 $130 $129 $262 $263 forward $131 $-1 #
edge $-1 $133 -5.5997867759493403 $264 5.5997867759493403 $130 $265 forward 7 unknown #
point $-1 -70.130271389613256 -39.967795090238795 12.703042853718156 #
point $-1 -70.130271389613256 -39.967795090238795 -12.703042853718156 #
loop $-1 $-1 $143 $135 #
plane-surface $-1 73.755912961210981 0 0 -1 0 0 0 0 1 forward_v I I I I #
coedge $-1 $208 $138 $140 $212 reversed $79 $-1 #
coedge $-1 $138 $207 $266 $267 reversed $79 $-1 #
coedge $-1 $146 $141 $138 $210 forward $136 $-1 #
edge $-1 $213 5.6252860683200083 $268 13.414072522960566 $209 $269 forward 7 unknown #
coedge $-1 $140 $139 $216 $270 reversed $49 $-1 #
edge $-1 $271 -147.51182592242199 $213 -132.81376309144991 $207 $272 forward 7 unknown #
vertex $-1 $142 $273 #
straight-curve $-1 65.967126506570409 6.0564836890922855 12.703042853718159 0 -1 0 I I #
coedge $-1 $266 $143 $146 $220 reversed $205 $-1 #
coedge $-1 $143 $266 $211 $270 forward $205 $-1 #
vertex $-1 $144 $274 #
straight-curve $-1 73.755912961210981 15.691364361913973 101.75242961352305 0 0 1 I I #
straight-curve $-1 -4.4134434265430684 15.691364361913973 125.33550283929206 0.52991925155115449 0 -0.84804810408105047 I I #
edge $-1 $268 8.5345703944551694 $147 15.691364361913973 $215 $275 forward 7 unknown #
point $-1 73.755912961210981 15.691364361913973 12.703042853718156 #
point $-1 65.967126506570423 15.691364361913973 12.703042853718159 #
edge $-1 $276 1 $276 0 $150 $-1 forward 7 unknown #
vertex $-1 $151 $277 #
ellipse-curve $-1 68.403478473124977 10.579368670871965 5.5596254276292401 0.84804810408105047 0 0.52991925155115449 0.26495962577557725 0 -0.42402405204052523 1 I I #
point $-1 70.126479359666263 10.579368670871965 6.0466866429426336 #
edge $-1 $278 1 $278 0 $154 $-1 forward 7 unknown #
vertex $-1 $155 $279 #
ellipse-curve $-1 68.403478473124977 13.646566085497163 5.5596254276292401 0.84804810408105047 0 0.52991925155115449 0.26495962577557725 0 -0.42402405204052523 1 I I #
point $-1 70.126479359666263 13.646566085497163 6.0466866429426336 #
plane-surface $-1 73.755912961210981 0 0 -1 0 0 0 0 1 forward_v I I I I #
coedge $-1 $163 $161 $165 $236 reversed $101 $-1 #
edge $-1 $176 -12.703042853718156 $238 12.703042853718156 $175 $280 forward 7 unknown #
vertex $-1 $236 $281 #
straight-curve $-1 -73.755912961210981 -39.967795090238788 0 0 0 -1 I I #
edge $-1 $234 -39.967795090238788 $238 39.967795090238788 $232 $282 forward 7 unknown #
straight-curve $-1 0 -39.967795090238788 -12.703042853718156 -1 0 0 I I #
vertex $-1 $168 $283 #
straight-curve $-1 0 39.967795090238788 -12.703042853718156 1 0 0 I I #
point $-1 73.755912961210981 39.967795090238788 -12.703042853718156 #
point $-1 73.755912961210981 -39.967795090238788 -12.703042853718156 #
straight-curve $-1 -73.755912961210981 0 12.703042853718156 0 -1 0 I I #
point $-1 -73.755912961210981 39.967795090238788 12.703042853718156 #
point $-1 -73.755912961210981 -39.967795090238788 12.703042853718156 #
straight-curve $-1 73.755912961210981 -39.967795090238788 0 0 0 -1 I I #
straight-curve $-1 73.755912961210981 39.967795090238788 0 0 0 -1 I I #
plane-surface $-1 0 0 -12.703042853718156 0 0 1 1 0 0 forward_v I I I I #
coedge $-1 $262 $187 $260 $284 reversed $120 $-1 #
coedge $-1 $187 $262 $191 $254 reversed $120 $-1 #
coedge $-1 $189 $188 $187 $251 reversed $71 $-1 #
edge $-1 $255 -12.703042853718156 $285 12.703042853718156 $250 $286 forward 7 unknown #
edge $-1 $285 -51.167368642137475 $199 -39.967795090238788 $188 $287 forward 7 unknown #
straight-curve $-1 -73.755912961210981 -39.967795090238788 0 0 0 -1 I I #
edge $-1 $255 -1.8128207857988627 $257 1.8128207857988627 $249 $288 forward 7 unknown #
vertex $-1 $192 $289 #
straight-curve $-1 -73.755912961210981 0 12.703042853718156 0 -1 0 I I #
vertex $-1 $193 $290 #
straight-curve $-1 -70.130271389613256 -45.567581866188135 12.703042853718156 0 1 0 I I #
point $-1 -73.755912961210981 -39.967795090238788 12.703042853718156 #
coedge $-1 $197 $196 $248 $284 forward $198 $-1 #
point $-1 -73.755912961210981 -39.967795090238788 -12.703042853718156 #
coedge $-1 $249 $248 $201 $263 reversed $120 $-1 #
edge $-1 $257 -12.703042853718156 $264 12.703042853718156 $201 $291 forward 7 unknown #
vertex $-1 $263 $292 #
straight-curve $-1 -70.130271389613256 -45.567581866188135 -12.703042853718156 0 -1 0 I I #
coedge $-1 $216 $215 $208 $267 forward $205 $-1 #
edge $-1 $268 89.049386759804889 $271 101.51405107727491 $266 $293 forward 7 unknown #
vertex $-1 $220 $294 #
straight-curve $-1 60.341840438250415 8.5345703944551694 12.703042853718159 1 0 0 I I #
edge $-1 $271 2.4780867053628839 $217 9.6348806728216871 $216 $295 forward 7 unknown #
vertex $-1 $270 $296 #
straight-curve $-1 -4.4134434265430684 8.5345703944551694 125.33550283929206 -0.52991925155115449 0 0.84804810408105047 I I #
point $-1 65.967126506570423 8.5345703944551694 12.703042853718159 #
point $-1 73.755912961210981 15.691364361913973 0.23837853624813476 #
straight-curve $-1 73.755912961210981 0 12.703042853718156 0 1 0 I I #
vertex $-1 $223 $297 #
point $-1 68.668438098900552 10.579368670871965 5.1356013755887151 #
vertex $-1 $227 $298 #
point $-1 68.668438098900552 13.646566085497163 5.1356013755887151 #
straight-curve $-1 -73.755912961210981 39.967795090238788 0 0 0 -1 I I #
point $-1 -73.755912961210981 -39.967795090238788 -12.703042853718156 #
straight-curve $-1 -73.755912961210981 0 -12.703042853718156 0 1 0 I I #
point $-1 -73.755912961210981 39.967795090238788 -12.703042853718156 #
edge $-1 $264 -1.8128207857988627 $285 1.8128207857988627 $248 $299 forward 7 unknown #
vertex $-1 $252 $300 #
straight-curve $-1 -73.755912961210981 -51.167368642137475 0 0 0 -1 I I #
straight-curve $-1 -73.755912961210981 0 -12.703042853718156 0 1 0 I I #
straight-curve $-1 -71.943092175412119 -51.167368642137475 12.703042853718156 1 0 0 I I #
point $-1 -73.755912961210981 -51.167368642137475 12.703042853718156 #
point $-1 -70.130271389613256 -51.167368642137475 12.703042853718156 #
straight-curve $-1 -70.130271389613256 -51.167368642137475 0 0 0 -1 I I #
point $-1 -70.130271389613256 -51.167368642137475 -12.703042853718156 #
straight-curve $-1 73.755912961210981 8.5345703944551694 101.75242961352305 0 0 -1 I I #
point $-1 73.755912961210981 8.5345703944551694 12.703042853718156 #
straight-curve $-1 73.755912961210981 6.0564836890922855 0.23837853624813476 0 1 0 I I #
point $-1 73.755912961210981 8.5345703944551694 0.23837853624813476 #
point $-1 67.979454421084455 10.579368670871965 5.2946658018536636 #
point $-1 67.979454421084455 13.646566085497163 5.2946658018536636 #
straight-curve $-1 -71.943092175412119 -51.167368642137475 -12.703042853718156 -1 0 0 I I #
point $-1 -73.755912961210981 -51.167368642137475 -12.703042853718156 #
End-of-ACIS-data 