500 0 8 0           
7 Unknown 11 ACIS 5.0 NT 24 Thu Mar 25 16:16:33 1999 
-1 9.9999999999999995e-007 1e-010 
body $-1 $8 $-1 $9 #
body $-1 $10 $-1 $11 #
body $-1 $12 $-1 $13 #
body $-1 $14 $-1 $15 #
body $-1 $16 $-1 $17 #
body $-1 $18 $-1 $19 #
body $-1 $20 $-1 $21 #
body $-1 $22 $-1 $23 #
lump $-1 $-1 $24 $0 #
transform $-1 1 0 0 0 1 0 0 0 1 69.035309915463728 44.485606197456036 9.4860630397309738 1 rotate no_reflect no_shear #
lump $-1 $-1 $25 $1 #
transform $-1 1 0 0 0 1 0 0 0 1 69.035309915463728 44.485606197456036 9.4860630397309738 1 rotate no_reflect no_shear #
lump $-1 $-1 $26 $2 #
transform $-1 1 0 0 0 1 0 0 0 1 69.035309915463728 44.485606197456036 9.4860630397309738 1 rotate no_reflect no_shear #
lump $-1 $-1 $27 $3 #
transform $-1 1 0 0 0 1 0 0 0 1 69.035309915463728 44.485606197456036 9.4860630397309738 1 rotate no_reflect no_shear #
lump $-1 $-1 $28 $4 #
transform $-1 1 0 0 0 1 0 0 0 1 69.035309915463728 44.485606197456036 9.4860630397309738 1 rotate no_reflect no_shear #
lump $-1 $-1 $29 $5 #
transform $-1 1 0 0 0 1 0 0 0 1 69.035309915463728 44.485606197456036 9.4860630397309738 1 rotate no_reflect no_shear #
lump $-1 $-1 $30 $6 #
transform $-1 1 0 0 0 1 0 0 0 1 69.035309915463728 44.485606197456036 9.4860630397309738 1 rotate no_reflect no_shear #
lump $-1 $-1 $31 $7 #
transform $-1 1 0 0 0 1 0 0 0 1 69.035309915463728 44.485606197456036 9.4860630397309738 1 rotate no_reflect no_shear #
shell $-1 $-1 $-1 $32 $-1 $8 #
shell $-1 $-1 $-1 $33 $-1 $10 #
shell $-1 $-1 $-1 $34 $-1 $12 #
shell $-1 $-1 $-1 $35 $-1 $14 #
shell $-1 $-1 $-1 $36 $-1 $16 #
shell $-1 $-1 $-1 $37 $-1 $18 #
shell $-1 $-1 $-1 $38 $-1 $20 #
shell $-1 $-1 $-1 $39 $-1 $22 #
face $-1 $40 $41 $24 $-1 $42 forward single #
face $-1 $43 $44 $25 $-1 $45 forward single #
face $-1 $46 $47 $26 $-1 $48 reversed single #
face $-1 $49 $50 $27 $-1 $51 forward single #
face $-1 $52 $53 $28 $-1 $54 forward single #
face $-1 $55 $56 $29 $-1 $57 reversed single #
face $-1 $58 $59 $30 $-1 $60 forward single #
face $-1 $61 $62 $31 $-1 $63 forward single #
face $-1 $64 $65 $24 $-1 $66 reversed single #
loop $-1 $-1 $67 $32 #
plane-surface $-1 0 0 9.4860630397309738 0 0 1 1 0 0 forward_v I I I I #
face $-1 $68 $69 $25 $-1 $70 reversed single #
loop $-1 $-1 $71 $33 #
plane-surface $-1 -69.035309915463728 0 0 1 0 0 0 0 -1 forward_v I I I I #
face $-1 $72 $73 $26 $-1 $74 reversed single #
loop $-1 $-1 $75 $34 #
plane-surface $-1 -8.2252203160837851 65.079788714481893 168.79680472539397 1 0 0 0 -0.64278761758704617 -0.76604443648966558 forward_v I I I I #
face $-1 $76 $77 $27 $-1 $78 forward single #
loop $-1 $79 $80 $35 #
cone-surface $-1 -2.1153474482772481 41.959574514283254 7.2420473455592447 0 -0.64278761758704617 -0.76604443648966558 1 0 0 1 I I 0 1 1 forward I I I I #
face $-1 $81 $82 $28 $-1 $83 forward single #
loop $-1 $84 $85 $36 #
cone-surface $-1 7.0494618534325753 41.959574514283254 7.2420473455592447 0 -0.64278761758704617 -0.76604443648966558 1 0 0 1 I I 0 1 1 forward I I I I #
face $-1 $86 $87 $29 $-1 $88 reversed single #
loop $-1 $-1 $89 $37 #
plane-surface $-1 13.159334721239141 -133.23569097734466 111.60721107623735 -1 0 0 0 -0.64278761758704617 0.76604443648966558 forward_v I I I I #
face $-1 $90 $91 $30 $-1 $92 forward single #
loop $-1 $93 $94 $38 #
cone-surface $-1 -2.1153474482772481 -41.959574514283268 7.2420473455592429 0 0.64278761758704617 -0.76604443648966558 1 0 0 1 I I 0 1 1 forward I I I I #
face $-1 $95 $96 $31 $-1 $97 forward single #
loop $-1 $98 $99 $39 #
cone-surface $-1 7.0494618534325753 -41.959574514283268 7.2420473455592429 0 0.64278761758704617 -0.76604443648966558 1 0 0 1 I I 0 1 1 forward I I I I #
face $-1 $100 $101 $24 $-1 $102 reversed single #
loop $-1 $-1 $103 $40 #
plane-surface $-1 0 0 -9.4860630397309738 0 0 1 1 0 0 forward_v I I I I #
coedge $-1 $104 $105 $106 $107 forward $41 $-1 #
face $-1 $108 $109 $25 $-1 $110 reversed single #
loop $-1 $-1 $111 $43 #
plane-surface $-1 0 44.485606197456036 0 0 -1 0 0 0 -1 forward_v I I I I #
coedge $-1 $112 $113 $114 $115 forward $44 $-1 #
face $-1 $116 $117 $26 $-1 $118 reversed single #
loop $-1 $-1 $119 $46 #
plane-surface $-1 2.4670572025776778 -23.670296065406731 63.028574561232304 0 0.64278761758704617 0.76604443648966558 1 0 0 forward_v I I I I #
coedge $-1 $120 $121 $122 $123 reversed $47 $-1 #
face $-1 $-1 $124 $27 $-1 $125 forward single #
loop $-1 $126 $127 $49 #
cone-surface $-1 -2.1153474482772481 41.285360590858801 6.4385504969703202 0 -0.64278761758704617 -0.76604443648966558 0.5 0 0 1 I I -0.70710678118654813 0.70710678118654691 0.5 forward I I I I #
loop $-1 $-1 $128 $35 #
coedge $-1 $80 $80 $129 $130 reversed $50 $-1 #
face $-1 $-1 $131 $28 $-1 $132 forward single #
loop $-1 $133 $134 $52 #
cone-surface $-1 7.0494618534325753 41.285360590858801 6.4385504969703202 0 -0.64278761758704617 -0.76604443648966558 0.5 0 0 1 I I -0.70710678118654813 0.70710678118654691 0.5 forward I I I I #
loop $-1 $-1 $135 $36 #
coedge $-1 $85 $85 $136 $137 reversed $53 $-1 #
face $-1 $138 $139 $29 $-1 $140 reversed single #
loop $-1 $-1 $141 $55 #
plane-surface $-1 2.4670572025776778 -44.485606197456036 5.8389809120756837 0 -0.64278761758704617 0.76604443648966558 1 0 0 forward_v I I I I #
coedge $-1 $142 $143 $144 $145 reversed $56 $-1 #
face $-1 $-1 $146 $30 $-1 $147 forward single #
loop $-1 $148 $149 $58 #
cone-surface $-1 -2.1153474482772481 -41.285360590858815 6.4385504969703184 0 0.64278761758704617 -0.76604443648966558 0.5 0 0 1 I I -0.70710678118654813 0.70710678118654691 0.5 forward I I I I #
loop $-1 $-1 $150 $38 #
coedge $-1 $94 $94 $151 $152 reversed $59 $-1 #
face $-1 $-1 $153 $31 $-1 $154 forward single #
loop $-1 $155 $156 $61 #
cone-surface $-1 7.0494618534325753 -41.285360590858815 6.4385504969703184 0 0.64278761758704617 -0.76604443648966558 0.5 0 0 1 I I -0.70710678118654813 0.70710678118654691 0.5 forward I I I I #
loop $-1 $-1 $157 $39 #
coedge $-1 $99 $99 $158 $159 reversed $62 $-1 #
face $-1 $160 $161 $24 $-1 $162 reversed single #
loop $-1 $-1 $163 $64 #
plane-surface $-1 0 -44.485606197456036 0 0 1 0 0 0 1 forward_v I I I I #
coedge $-1 $164 $165 $166 $167 forward $65 $-1 #
coedge $-1 $168 $67 $169 $170 forward $41 $-1 #
coedge $-1 $67 $168 $171 $172 forward $41 $-1 #
coedge $-1 $173 $174 $67 $107 reversed $175 $-1 #
edge $-1 $176 -44.485606197456036 $177 44.485606197456036 $106 $178 forward 7 unknown #
face $-1 $179 $180 $25 $-1 $181 reversed single #
loop $-1 $-1 $114 $68 #
plane-surface $-1 -72.460054566787647 0 6.4860630397309738 0 0 1 1 0 0 forward_v I I I I #
coedge $-1 $182 $183 $112 $184 forward $69 $-1 #
coedge $-1 $185 $71 $111 $184 reversed $44 $-1 #
coedge $-1 $71 $185 $186 $187 reversed $44 $-1 #
coedge $-1 $188 $189 $71 $115 reversed $109 $-1 #
edge $-1 $190 -44.485606197456036 $191 44.485606197456036 $114 $192 forward 7 unknown #
face $-1 $193 $194 $26 $-1 $195 forward single #
loop $-1 $-1 $196 $72 #
plane-surface $-1 13.159334721239141 65.079788714481893 168.79680472539397 -1 0 0 0 0.64278761758704617 0.76604443648966558 forward_v I I I I #
coedge $-1 $197 $198 $199 $200 reversed $73 $-1 #
coedge $-1 $121 $75 $201 $202 reversed $47 $-1 #
coedge $-1 $75 $120 $197 $203 reversed $47 $-1 #
coedge $-1 $199 $204 $75 $123 forward $194 $-1 #
edge $-1 $205 -11.94571184021509 $206 -7.5992887031314424 $122 $207 forward 7 unknown #
loop $-1 $-1 $129 $76 #
plane-surface $-1 2.4670572025776778 -23.670296065406731 63.028574561232304 0 0.64278761758704617 0.76604443648966558 1 0 0 forward_v I I I I #
loop $-1 $-1 $208 $49 #
coedge $-1 $127 $127 $128 $209 reversed $77 $-1 #
coedge $-1 $128 $128 $127 $209 forward $79 $-1 #
coedge $-1 $129 $129 $80 $130 forward $124 $-1 #
edge $-1 $210 8.3693789813226899e-016 $210 6.2831853071796013 $129 $211 forward 7 unknown #
loop $-1 $-1 $136 $81 #
plane-surface $-1 2.4670572025776778 -23.670296065406731 63.028574561232304 0 0.64278761758704617 0.76604443648966558 1 0 0 forward_v I I I I #
loop $-1 $-1 $212 $52 #
coedge $-1 $134 $134 $135 $213 reversed $82 $-1 #
coedge $-1 $135 $135 $134 $213 forward $84 $-1 #
coedge $-1 $136 $136 $85 $137 forward $131 $-1 #
edge $-1 $214 8.3693789813226899e-016 $214 6.2831853071796013 $136 $215 forward 7 unknown #
face $-1 $216 $217 $29 $-1 $218 reversed single #
loop $-1 $-1 $219 $86 #
plane-surface $-1 -8.2252203160837851 -133.23569097734466 111.60721107623735 1 0 0 0 0.64278761758704617 -0.76604443648966558 forward_v I I I I #
coedge $-1 $220 $221 $222 $223 reversed $87 $-1 #
coedge $-1 $143 $89 $224 $225 reversed $56 $-1 #
coedge $-1 $89 $142 $220 $226 reversed $56 $-1 #
coedge $-1 $222 $227 $89 $145 forward $228 $-1 #
edge $-1 $229 22.132239291216294 $230 26.478662428299963 $144 $231 forward 7 unknown #
loop $-1 $-1 $151 $90 #
plane-surface $-1 2.4670572025776778 -44.485606197456036 5.8389809120756837 0 -0.64278761758704617 0.76604443648966558 1 0 0 forward_v I I I I #
loop $-1 $-1 $232 $58 #
coedge $-1 $149 $149 $150 $233 reversed $91 $-1 #
coedge $-1 $150 $150 $149 $233 forward $93 $-1 #
coedge $-1 $151 $151 $94 $152 forward $146 $-1 #
edge $-1 $234 -2.5885226442153572e-015 $234 6.2831853071795978 $151 $235 forward 7 unknown #
loop $-1 $-1 $158 $95 #
plane-surface $-1 2.4670572025776778 -44.485606197456036 5.8389809120756837 0 -0.64278761758704617 0.76604443648966558 1 0 0 forward_v I I I I #
loop $-1 $-1 $236 $61 #
coedge $-1 $156 $156 $157 $237 reversed $96 $-1 #
coedge $-1 $157 $157 $156 $237 forward $98 $-1 #
coedge $-1 $158 $158 $99 $159 forward $153 $-1 #
edge $-1 $238 -2.5885226442153572e-015 $238 6.2831853071795978 $158 $239 forward 7 unknown #
face $-1 $240 $241 $24 $-1 $242 reversed single #
loop $-1 $-1 $243 $100 #
plane-surface $-1 -69.035309915463728 0 0 1 0 0 0 0 -1 forward_v I I I I #
coedge $-1 $244 $171 $245 $246 forward $101 $-1 #
coedge $-1 $247 $103 $244 $248 forward $65 $-1 #
coedge $-1 $103 $247 $249 $250 forward $65 $-1 #
coedge $-1 $174 $173 $103 $167 reversed $175 $-1 #
edge $-1 $251 -44.485606197456036 $252 44.485606197456036 $166 $253 forward 7 unknown #
coedge $-1 $105 $104 $254 $255 forward $41 $-1 #
coedge $-1 $256 $257 $104 $170 reversed $241 $-1 #
edge $-1 $177 -69.035309915463728 $258 69.035309915463728 $169 $259 forward 7 unknown #
coedge $-1 $163 $260 $105 $172 reversed $101 $-1 #
edge $-1 $261 -69.035309915463728 $176 69.035309915463728 $171 $262 forward 7 unknown #
coedge $-1 $166 $106 $260 $263 forward $175 $-1 #
coedge $-1 $106 $166 $256 $264 reversed $175 $-1 #
loop $-1 $-1 $173 $240 #
vertex $-1 $107 $265 #
vertex $-1 $107 $266 #
straight-curve $-1 69.035309915463728 0 9.4860630397309738 0 1 0 I I #
face $-1 $267 $268 $25 $-1 $269 forward single #
loop $-1 $-1 $270 $108 #
plane-surface $-1 -75.884799218111567 0 7.9860630397309738 1 0 0 0 0 -1 forward_v I I I I #
coedge $-1 $271 $111 $189 $272 reversed $69 $-1 #
coedge $-1 $111 $271 $273 $274 reversed $69 $-1 #
edge $-1 $275 -9.4860630397309738 $191 -6.4860630397309738 $111 $276 forward 7 unknown #
coedge $-1 $113 $112 $277 $278 reversed $44 $-1 #
coedge $-1 $279 $280 $113 $187 forward $281 $-1 #
edge $-1 $190 6.4860630397309738 $282 9.4860630397309738 $186 $283 forward 7 unknown #
coedge $-1 $284 $114 $280 $285 forward $109 $-1 #
coedge $-1 $114 $284 $182 $272 forward $109 $-1 #
vertex $-1 $187 $286 #
vertex $-1 $184 $287 #
straight-curve $-1 -69.035309915463728 0 6.4860630397309738 0 1 0 I I #
face $-1 $-1 $288 $26 $-1 $289 reversed single #
loop $-1 $-1 $122 $116 #
plane-surface $-1 0 0 9.4860630397309738 0 0 1 1 0 0 forward_v I I I I #
coedge $-1 $290 $291 $292 $293 reversed $117 $-1 #
coedge $-1 $294 $119 $121 $203 forward $73 $-1 #
coedge $-1 $119 $294 $290 $295 forward $73 $-1 #
coedge $-1 $292 $122 $119 $200 forward $194 $-1 #
edge $-1 $206 -9.458748917372624 $296 11.925806119950302 $199 $297 forward 7 unknown #
coedge $-1 $298 $299 $120 $202 forward $288 $-1 #
edge $-1 $300 -78.559421450621286 $205 -74.912339322966005 $201 $301 forward 7 unknown #
edge $-1 $206 83.297359900139355 $300 88.971212394912072 $121 $302 forward 7 unknown #
coedge $-1 $122 $292 $298 $303 forward $194 $-1 #
vertex $-1 $202 $304 #
vertex $-1 $123 $305 #
straight-curve $-1 -8.2252203160837851 32.539894357240946 9.4860630397309791 0 -1 0 I I #
coedge $-1 $208 $208 $-1 $306 reversed $126 $-1 #
edge $-1 $307 0 $307 6.2831853071796004 $127 $308 forward 7 unknown #
vertex $-1 $130 $309 #
ellipse-curve $-1 -2.1153474482772481 42.312394628914198 7.6625219759033474 0 0.64278761758704617 0.76604443648966558 1 0 0 1 I I #
coedge $-1 $212 $212 $-1 $310 reversed $133 $-1 #
edge $-1 $311 0 $311 6.2831853071796004 $134 $312 forward 7 unknown #
vertex $-1 $137 $313 #
ellipse-curve $-1 7.0494618534325753 42.312394628914198 7.6625219759033474 0 0.64278761758704617 0.76604443648966558 1 0 0 1 I I #
face $-1 $-1 $228 $29 $-1 $314 forward single #
loop $-1 $-1 $315 $138 #
plane-surface $-1 0 -44.485606197456036 0 0 1 0 0 0 1 forward_v I I I I #
coedge $-1 $316 $317 $318 $319 reversed $139 $-1 #
coedge $-1 $320 $141 $143 $226 forward $87 $-1 #
coedge $-1 $141 $320 $316 $321 forward $87 $-1 #
coedge $-1 $318 $144 $141 $223 forward $228 $-1 #
edge $-1 $230 -11.925806119950302 $322 9.458748917372624 $222 $323 forward 7 unknown #
coedge $-1 $324 $325 $142 $225 forward $217 $-1 #
edge $-1 $326 -49.96462462604299 $229 -46.317542498387702 $224 $327 forward 7 unknown #
edge $-1 $230 -5.673852494772742 $326 0 $143 $328 forward 7 unknown #
coedge $-1 $144 $318 $324 $329 forward $228 $-1 #
loop $-1 $-1 $318 $216 #
vertex $-1 $225 $330 #
vertex $-1 $145 $331 #
straight-curve $-1 13.159334721239141 -66.61784548867233 9.486063039730972 0 1 0 I I #
coedge $-1 $232 $232 $-1 $332 reversed $148 $-1 #
edge $-1 $333 0 $333 6.2831853071796004 $149 $334 forward 7 unknown #
vertex $-1 $152 $335 #
ellipse-curve $-1 -2.1153474482772481 -42.312394628914198 7.6625219759033314 0 -0.64278761758704617 0.76604443648966558 1 0 0 1 I I #
coedge $-1 $236 $236 $-1 $336 reversed $155 $-1 #
edge $-1 $337 0 $337 6.2831853071796004 $156 $338 forward 7 unknown #
vertex $-1 $159 $339 #
ellipse-curve $-1 7.0494618534325753 -42.312394628914198 7.6625219759033314 0 -0.64278761758704617 0.76604443648966558 1 0 0 1 I I #
face $-1 $-1 $175 $24 $-1 $340 reversed single #
loop $-1 $-1 $256 $160 #
plane-surface $-1 0 44.485606197456036 0 0 -1 0 0 0 -1 forward_v I I I I #
coedge $-1 $341 $254 $257 $342 forward $161 $-1 #
coedge $-1 $260 $163 $164 $248 reversed $101 $-1 #
coedge $-1 $254 $341 $163 $246 reversed $161 $-1 #
edge $-1 $261 -9.4860630397309738 $343 9.4860630397309738 $245 $344 forward 7 unknown #
coedge $-1 $165 $164 $341 $345 forward $65 $-1 #
edge $-1 $252 -69.035309915463728 $343 69.035309915463728 $244 $346 forward 7 unknown #
coedge $-1 $257 $256 $165 $250 reversed $241 $-1 #
edge $-1 $347 -69.035309915463728 $251 69.035309915463728 $249 $348 forward 7 unknown #
vertex $-1 $167 $349 #
vertex $-1 $263 $350 #
straight-curve $-1 69.035309915463728 0 -9.4860630397309738 0 -1 0 I I #
coedge $-1 $243 $245 $168 $255 reversed $161 $-1 #
edge $-1 $258 -44.485606197456036 $261 44.485606197456036 $254 $351 forward 7 unknown #
coedge $-1 $249 $169 $174 $264 forward $241 $-1 #
coedge $-1 $169 $249 $243 $342 reversed $241 $-1 #
vertex $-1 $170 $352 #
straight-curve $-1 0 44.485606197456036 9.4860630397309738 -1 0 0 I I #
coedge $-1 $171 $244 $173 $263 reversed $101 $-1 #
vertex $-1 $255 $353 #
straight-curve $-1 0 -44.485606197456036 9.4860630397309738 1 0 0 I I #
edge $-1 $176 -9.4860630397309738 $252 9.4860630397309738 $173 $354 forward 7 unknown #
edge $-1 $177 -9.4860630397309738 $251 9.4860630397309738 $174 $355 forward 7 unknown #
point $-1 69.035309915463728 -44.485606197456036 9.4860630397309738 #
point $-1 69.035309915463728 44.485606197456036 9.4860630397309738 #
face $-1 $-1 $281 $25 $-1 $356 reversed single #
loop $-1 $-1 $277 $179 #
plane-surface $-1 0 0 9.4860630397309738 0 0 1 1 0 0 forward_v I I I I #
coedge $-1 $357 $358 $271 $359 forward $180 $-1 #
coedge $-1 $183 $182 $270 $359 reversed $69 $-1 #
edge $-1 $360 -3.4247446513239197 $191 3.4247446513239197 $182 $361 forward 7 unknown #
coedge $-1 $362 $277 $183 $274 forward $268 $-1 #
edge $-1 $275 69.035309915463728 $363 75.884799218111567 $183 $364 forward 7 unknown #
vertex $-1 $274 $365 #
straight-curve $-1 -69.035309915463728 44.485606197456036 0 0 0 -1 I I #
coedge $-1 $273 $366 $185 $278 forward $268 $-1 #
edge $-1 $282 -44.485606197456036 $275 44.485606197456036 $277 $367 forward 7 unknown #
coedge $-1 $368 $186 $366 $369 reversed $281 $-1 #
coedge $-1 $186 $368 $188 $285 reversed $281 $-1 #
loop $-1 $-1 $186 $267 #
vertex $-1 $187 $370 #
straight-curve $-1 -69.035309915463728 -44.485606197456036 0 0 0 1 I I #
coedge $-1 $189 $188 $357 $371 forward $109 $-1 #
edge $-1 $190 -3.4247446513239197 $372 3.4247446513239197 $280 $373 forward 7 unknown #
point $-1 -69.035309915463728 -44.485606197456036 6.4860630397309738 #
point $-1 -69.035309915463728 44.485606197456036 6.4860630397309738 #
loop $-1 $-1 $201 $193 #
plane-surface $-1 0 44.485606197456036 0 0 -1 0 0 0 -1 forward_v I I I I #
coedge $-1 $291 $196 $198 $295 reversed $117 $-1 #
coedge $-1 $196 $290 $374 $375 reversed $117 $-1 #
coedge $-1 $204 $199 $196 $293 forward $194 $-1 #
edge $-1 $296 7.5992887031314424 $376 11.94571184021509 $292 $377 forward 7 unknown #
coedge $-1 $198 $197 $299 $378 reversed $73 $-1 #
edge $-1 $379 -88.971212394912072 $296 -83.297359900139355 $290 $380 forward 7 unknown #
vertex $-1 $200 $381 #
straight-curve $-1 1.2335286012888389 40.139183060372396 9.4860630397309791 1 0 0 I I #
coedge $-1 $374 $201 $204 $303 reversed $288 $-1 #
coedge $-1 $201 $374 $294 $378 forward $288 $-1 #
vertex $-1 $202 $382 #
straight-curve $-1 -8.2252203160837851 44.485606197456036 84.398402362696984 0 0 1 I I #
straight-curve $-1 -8.2252203160837851 -23.670296065406731 63.028574561232304 0 0.76604443648966558 -0.64278761758704617 I I #
edge $-1 $376 -13.159334721239141 $205 8.2252203160837851 $298 $383 forward 7 unknown #
point $-1 -8.2252203160837851 44.485606197456036 9.4860630397309738 #
point $-1 -8.2252203160837851 40.139183060372389 9.486063039730972 #
edge $-1 $384 1 $384 0 $208 $-1 forward 7 unknown #
vertex $-1 $209 $385 #
ellipse-curve $-1 -2.1153474482772481 41.606754399652324 6.8215727152151526 0 0.64278761758704617 0.76604443648966558 1 0 0 1 I I #
point $-1 -1.1153474482772481 42.312394628914191 7.6625219759033376 #
edge $-1 $386 1 $386 0 $212 $-1 forward 7 unknown #
vertex $-1 $213 $387 #
ellipse-curve $-1 7.0494618534325753 41.606754399652324 6.8215727152151526 0 0.64278761758704617 0.76604443648966558 1 0 0 1 I I #
point $-1 8.0494618534325753 42.312394628914191 7.6625219759033376 #
plane-surface $-1 0 0 9.4860630397309738 0 0 1 1 0 0 forward_v I I I I #
coedge $-1 $325 $324 $317 $388 forward $217 $-1 #
coedge $-1 $317 $219 $221 $321 reversed $139 $-1 #
coedge $-1 $219 $316 $315 $388 reversed $139 $-1 #
coedge $-1 $227 $222 $219 $319 forward $228 $-1 #
edge $-1 $322 -26.478662428299963 $389 -22.132239291216294 $318 $390 forward 7 unknown #
coedge $-1 $221 $220 $325 $391 reversed $87 $-1 #
edge $-1 $392 0 $322 5.673852494772742 $316 $393 forward 7 unknown #
vertex $-1 $223 $394 #
straight-curve $-1 1.2335286012888389 -40.139183060372368 9.4860630397309738 -1 0 0 I I #
coedge $-1 $315 $224 $227 $329 reversed $217 $-1 #
coedge $-1 $224 $315 $320 $391 forward $217 $-1 #
vertex $-1 $225 $395 #
straight-curve $-1 13.159334721239141 -44.485606197456036 55.803605538118674 0 0 1 I I #
straight-curve $-1 13.159334721239141 -44.485606197456036 5.8389809120756837 0 -0.76604443648966558 -0.64278761758704617 I I #
edge $-1 $389 -8.2252203160837851 $229 13.159334721239141 $324 $396 forward 7 unknown #
point $-1 13.159334721239141 -44.485606197456036 9.4860630397309738 #
point $-1 13.159334721239141 -40.139183060372368 9.4860630397309738 #
edge $-1 $397 1 $397 0 $232 $-1 forward 7 unknown #
vertex $-1 $233 $398 #
ellipse-curve $-1 -2.1153474482772481 -41.606754399652338 6.8215727152151509 0 -0.64278761758704617 0.76604443648966558 1 0 0 1 I I #
point $-1 -1.1153474482772481 -42.312394628914205 7.6625219759033358 #
edge $-1 $399 1 $399 0 $236 $-1 forward 7 unknown #
vertex $-1 $237 $400 #
ellipse-curve $-1 7.0494618534325753 -41.606754399652338 6.8215727152151509 0 -0.64278761758704617 0.76604443648966558 1 0 0 1 I I #
point $-1 8.0494618534325753 -42.312394628914205 7.6625219759033358 #
plane-surface $-1 69.035309915463728 0 0 -1 0 0 0 0 1 forward_v I I I I #
coedge $-1 $245 $243 $247 $345 reversed $161 $-1 #
edge $-1 $258 -9.4860630397309738 $347 9.4860630397309738 $257 $401 forward 7 unknown #
vertex $-1 $345 $402 #
straight-curve $-1 -69.035309915463728 -44.485606197456036 0 0 0 -1 I I #
edge $-1 $343 -44.485606197456036 $347 44.485606197456036 $341 $403 forward 7 unknown #
straight-curve $-1 0 -44.485606197456036 -9.4860630397309738 -1 0 0 I I #
vertex $-1 $250 $404 #
straight-curve $-1 0 44.485606197456036 -9.4860630397309738 1 0 0 I I #
point $-1 69.035309915463728 44.485606197456036 -9.4860630397309738 #
point $-1 69.035309915463728 -44.485606197456036 -9.4860630397309738 #
straight-curve $-1 -69.035309915463728 0 9.4860630397309738 0 -1 0 I I #
point $-1 -69.035309915463728 44.485606197456036 9.4860630397309738 #
point $-1 -69.035309915463728 -44.485606197456036 9.4860630397309738 #
straight-curve $-1 69.035309915463728 -44.485606197456036 0 0 0 -1 I I #
straight-curve $-1 69.035309915463728 44.485606197456036 0 0 0 -1 I I #
plane-surface $-1 0 -44.485606197456036 0 0 1 0 0 0 1 forward_v I I I I #
coedge $-1 $405 $270 $284 $371 reversed $180 $-1 #
coedge $-1 $270 $405 $362 $406 reversed $180 $-1 #
edge $-1 $363 -1.5 $360 1.5 $271 $407 forward 7 unknown #
vertex $-1 $272 $408 #
straight-curve $-1 -72.460054566787647 44.485606197456036 6.4860630397309738 1 0 0 I I #
coedge $-1 $366 $273 $358 $406 forward $268 $-1 #
vertex $-1 $274 $409 #
straight-curve $-1 0 44.485606197456036 9.4860630397309738 -1 0 0 I I #
point $-1 -69.035309915463728 44.485606197456036 9.4860630397309738 #
coedge $-1 $277 $362 $279 $369 forward $268 $-1 #
straight-curve $-1 -69.035309915463728 0 9.4860630397309738 0 1 0 I I #
coedge $-1 $280 $279 $405 $410 forward $281 $-1 #
edge $-1 $411 -75.884799218111567 $282 -69.035309915463728 $279 $412 forward 7 unknown #
point $-1 -69.035309915463728 -44.485606197456036 9.4860630397309738 #
edge $-1 $372 -44.485606197456036 $360 44.485606197456036 $357 $413 forward 7 unknown #
vertex $-1 $371 $414 #
straight-curve $-1 -72.460054566787647 -44.485606197456036 6.4860630397309738 -1 0 0 I I #
coedge $-1 $299 $298 $291 $375 forward $288 $-1 #
edge $-1 $376 74.912339322966005 $379 78.559421450621286 $374 $415 forward 7 unknown #
vertex $-1 $303 $416 #
straight-curve $-1 13.159334721239141 32.539894357240946 9.4860630397309791 0 1 0 I I #
edge $-1 $379 -11.925806119950302 $300 9.458748917372624 $299 $417 forward 7 unknown #
vertex $-1 $378 $418 #
straight-curve $-1 13.159334721239141 -23.670296065406731 63.028574561232304 0 -0.76604443648966558 0.64278761758704617 I I #
point $-1 13.159334721239141 40.139183060372389 9.486063039730972 #
point $-1 -8.2252203160837851 44.485606197456036 5.8389809120756979 #
straight-curve $-1 0 44.485606197456036 9.4860630397309738 -1 0 0 I I #
vertex $-1 $306 $419 #
point $-1 -1.1153474482772481 41.606754399652324 6.8215727152151526 #
vertex $-1 $310 $420 #
point $-1 8.0494618534325753 41.606754399652324 6.8215727152151526 #
edge $-1 $389 46.317542498387702 $392 49.96462462604299 $315 $421 forward 7 unknown #
vertex $-1 $329 $422 #
straight-curve $-1 -8.2252203160837851 -66.61784548867233 9.486063039730972 0 -1 0 I I #
edge $-1 $392 -9.458748917372624 $326 11.925806119950302 $325 $423 forward 7 unknown #
vertex $-1 $391 $424 #
straight-curve $-1 -8.2252203160837851 -44.485606197456036 5.8389809120756837 0 0.76604443648966558 0.64278761758704617 I I #
point $-1 -8.2252203160837851 -40.139183060372368 9.4860630397309738 #
point $-1 13.159334721239141 -44.485606197456036 5.8389809120756837 #
straight-curve $-1 0 -44.485606197456036 9.4860630397309738 1 0 0 I I #
vertex $-1 $332 $425 #
point $-1 -1.1153474482772481 -41.606754399652338 6.8215727152151509 #
vertex $-1 $336 $426 #
point $-1 8.0494618534325753 -41.606754399652338 6.8215727152151509 #
straight-curve $-1 -69.035309915463728 44.485606197456036 0 0 0 -1 I I #
point $-1 -69.035309915463728 -44.485606197456036 -9.4860630397309738 #
straight-curve $-1 -69.035309915463728 0 -9.4860630397309738 0 1 0 I I #
point $-1 -69.035309915463728 44.485606197456036 -9.4860630397309738 #
coedge $-1 $358 $357 $368 $410 reversed $180 $-1 #
edge $-1 $363 -44.485606197456036 $411 44.485606197456036 $358 $427 forward 7 unknown #
straight-curve $-1 -75.884799218111567 44.485606197456036 7.9860630397309738 0 0 -1 I I #
point $-1 -75.884799218111567 44.485606197456036 6.4860630397309738 #
point $-1 -75.884799218111567 44.485606197456036 9.4860630397309738 #
edge $-1 $411 -1.5 $372 1.5 $405 $428 forward 7 unknown #
vertex $-1 $406 $429 #
straight-curve $-1 0 -44.485606197456036 9.4860630397309738 1 0 0 I I #
straight-curve $-1 -75.884799218111567 0 6.4860630397309738 0 1 0 I I #
point $-1 -75.884799218111567 -44.485606197456036 6.4860630397309738 #
straight-curve $-1 13.159334721239141 44.485606197456036 84.398402362696984 0 0 -1 I I #
point $-1 13.159334721239141 44.485606197456036 9.4860630397309738 #
straight-curve $-1 1.2335286012888389 44.485606197456029 5.8389809120757086 -1 0 0 I I #
point $-1 13.159334721239141 44.485606197456036 5.8389809120756979 #
point $-1 -2.1153474482772481 40.963966782065278 6.0555282787254878 #
point $-1 7.0494618534325753 40.963966782065278 6.0555282787254878 #
straight-curve $-1 -8.2252203160837851 -44.485606197456036 55.803605538118674 0 0 -1 I I #
point $-1 -8.2252203160837851 -44.485606197456036 9.4860630397309738 #
straight-curve $-1 1.2335286012888389 -44.485606197456036 5.8389809120756819 1 0 0 I I #
point $-1 -8.2252203160837851 -44.485606197456036 5.8389809120756837 #
point $-1 -2.1153474482772481 -40.963966782065292 6.055528278725486 #
point $-1 7.0494618534325753 -40.963966782065292 6.055528278725486 #
straight-curve $-1 -75.884799218111567 0 9.4860630397309738 0 -1 0 I I #
straight-curve $-1 -75.884799218111567 -44.485606197456036 7.9860630397309738 0 0 -1 I I #
point $-1 -75.884799218111567 -44.485606197456036 9.4860630397309738 #
End-of-ACIS-data 