500 0 14 0           
7 Unknown 11 ACIS 5.0 NT 24 Fri Mar 26 14:53:43 1999 
-1 9.9999999999999995e-007 1e-010 
body $-1 $14 $-1 $15 #
body $-1 $16 $-1 $17 #
body $-1 $18 $-1 $19 #
body $-1 $20 $-1 $21 #
body $-1 $22 $-1 $23 #
body $-1 $24 $-1 $25 #
body $-1 $26 $-1 $27 #
body $-1 $28 $-1 $29 #
body $-1 $30 $-1 $31 #
body $-1 $32 $-1 $33 #
body $-1 $34 $-1 $35 #
body $-1 $36 $-1 $37 #
body $-1 $38 $-1 $39 #
body $-1 $40 $-1 $41 #
lump $-1 $-1 $42 $0 #
transform $-1 1 0 0 0 1 0 0 0 1 59.922482985930969 32.394752284596649 12.478410729872188 1 rotate no_reflect no_shear #
lump $-1 $-1 $43 $1 #
transform $-1 1 0 0 0 1 0 0 0 1 59.922482985930969 32.394752284596649 12.478410729872188 1 rotate no_reflect no_shear #
lump $-1 $-1 $44 $2 #
transform $-1 1 0 0 0 1 0 0 0 1 59.922482985930969 32.394752284596649 12.478410729872188 1 rotate no_reflect no_shear #
lump $-1 $-1 $45 $3 #
transform $-1 1 0 0 0 1 0 0 0 1 59.922482985930969 32.394752284596649 12.478410729872188 1 rotate no_reflect no_shear #
lump $-1 $-1 $46 $4 #
transform $-1 1 0 0 0 1 0 0 0 1 59.922482985930969 32.394752284596649 12.478410729872188 1 rotate no_reflect no_shear #
lump $-1 $-1 $47 $5 #
transform $-1 1 0 0 0 1 0 0 0 1 59.922482985930969 32.394752284596649 12.478410729872188 1 rotate no_reflect no_shear #
lump $-1 $-1 $48 $6 #
transform $-1 1 0 0 0 1 0 0 0 1 59.922482985930969 32.394752284596649 12.478410729872188 1 rotate no_reflect no_shear #
lump $-1 $-1 $49 $7 #
transform $-1 1 0 0 0 1 0 0 0 1 59.922482985930969 32.394752284596649 12.478410729872188 1 rotate no_reflect no_shear #
lump $-1 $-1 $50 $8 #
transform $-1 1 0 0 0 1 0 0 0 1 59.922482985930969 32.394752284596649 12.478410729872188 1 rotate no_reflect no_shear #
lump $-1 $-1 $51 $9 #
transform $-1 1 0 0 0 1 0 0 0 1 59.922482985930969 32.394752284596649 12.478410729872188 1 rotate no_reflect no_shear #
lump $-1 $-1 $52 $10 #
transform $-1 1 0 0 0 1 0 0 0 1 59.922482985930969 32.394752284596649 12.478410729872188 1 rotate no_reflect no_shear #
lump $-1 $-1 $53 $11 #
transform $-1 1 0 0 0 1 0 0 0 1 59.922482985930969 32.394752284596649 12.478410729872188 1 rotate no_reflect no_shear #
lump $-1 $-1 $54 $12 #
transform $-1 1 0 0 0 1 0 0 0 1 59.922482985930969 32.394752284596649 12.478410729872188 1 rotate no_reflect no_shear #
lump $-1 $-1 $55 $13 #
transform $-1 1 0 0 0 1 0 0 0 1 59.922482985930969 32.394752284596649 12.478410729872188 1 rotate no_reflect no_shear #
shell $-1 $-1 $-1 $56 $-1 $14 #
shell $-1 $-1 $-1 $57 $-1 $16 #
shell $-1 $-1 $-1 $58 $-1 $18 #
shell $-1 $-1 $-1 $59 $-1 $20 #
shell $-1 $-1 $-1 $60 $-1 $22 #
shell $-1 $-1 $-1 $61 $-1 $24 #
shell $-1 $-1 $-1 $62 $-1 $26 #
shell $-1 $-1 $-1 $63 $-1 $28 #
shell $-1 $-1 $-1 $64 $-1 $30 #
shell $-1 $-1 $-1 $65 $-1 $32 #
shell $-1 $-1 $-1 $66 $-1 $34 #
shell $-1 $-1 $-1 $67 $-1 $36 #
shell $-1 $-1 $-1 $68 $-1 $38 #
shell $-1 $-1 $-1 $69 $-1 $40 #
face $-1 $70 $71 $42 $-1 $72 forward single #
face $-1 $73 $74 $43 $-1 $75 reversed single #
face $-1 $76 $77 $44 $-1 $78 reversed single #
face $-1 $79 $80 $45 $-1 $81 forward single #
face $-1 $82 $83 $46 $-1 $84 reversed single #
face $-1 $85 $86 $47 $-1 $87 forward single #
face $-1 $88 $89 $48 $-1 $90 reversed single #
face $-1 $91 $92 $49 $-1 $93 forward single #
face $-1 $94 $95 $50 $-1 $96 reversed single #
face $-1 $97 $98 $51 $-1 $99 forward single #
face $-1 $100 $101 $52 $-1 $102 reversed single #
face $-1 $103 $104 $53 $-1 $105 forward single #
face $-1 $106 $107 $54 $-1 $108 forward single #
face $-1 $109 $110 $55 $-1 $111 forward single #
face $-1 $112 $113 $42 $-1 $114 reversed single #
loop $-1 $-1 $115 $56 #
plane-surface $-1 0 0 12.478410729872188 0 0 1 1 0 0 forward_v I I I I #
face $-1 $116 $117 $43 $-1 $118 forward single #
loop $-1 $-1 $119 $57 #
plane-surface $-1 -51.535172167215464 0 7.9315139380554918 -1 0 0 0 0 1 forward_v I I I I #
face $-1 $120 $121 $44 $-1 $122 reversed single #
loop $-1 $-1 $123 $58 #
plane-surface $-1 -43.657460956813537 -32.394752284596649 4.8891902876765982 0 -0.7660444514056185 0.64278759981090561 1 0 0 forward_v I I I I #
face $-1 $124 $125 $45 $-1 $126 forward single #
loop $-1 $127 $128 $59 #
cone-surface $-1 -43.657460956813537 -26.534648960919267 6.4383302063373407 0 0.7660444514056185 -0.64278759981090561 2 0 0 1 I I 0 1 2 forward I I I I #
face $-1 $129 $130 $46 $-1 $131 reversed single #
loop $-1 $-1 $132 $60 #
plane-surface $-1 -19.634427923101274 -124.20132349623664 81.924048314149388 1 0 0 0 0.7660444514056185 -0.64278759981090561 forward_v I I I I #
face $-1 $133 $134 $47 $-1 $135 forward single #
loop $-1 $136 $137 $61 #
cone-surface $-1 -11.756716712699344 -26.534648960919267 6.4383302063373407 0 0.7660444514056185 -0.64278759981090561 2 0 0 1 I I 0 1 2 forward I I I I #
face $-1 $138 $139 $48 $-1 $140 reversed single #
loop $-1 $-1 $141 $62 #
plane-surface $-1 12.266316321012919 -124.20132349623664 81.924048314149388 1 0 0 0 0.7660444514056185 -0.64278759981090561 forward_v I I I I #
face $-1 $142 $143 $49 $-1 $144 forward single #
loop $-1 $145 $146 $63 #
cone-surface $-1 20.144027531414849 -26.534648960919267 6.4383302063373407 0 0.7660444514056185 -0.64278759981090561 2 0 0 1 I I 0 1 2 forward I I I I #
face $-1 $147 $148 $50 $-1 $149 reversed single #
loop $-1 $-1 $150 $64 #
plane-surface $-1 44.167060565127116 -124.20132349623664 81.924048314149388 1 0 0 0 0.7660444514056185 -0.64278759981090561 forward_v I I I I #
face $-1 $151 $152 $51 $-1 $153 forward single #
loop $-1 $154 $155 $65 #
cone-surface $-1 52.044771775529043 -26.534648960919267 6.4383302063373407 0 0.7660444514056185 -0.64278759981090561 2 0 0 1 I I 0 1 2 forward I I I I #
face $-1 $156 $157 $52 $-1 $158 reversed single #
loop $-1 $-1 $159 $66 #
plane-surface $-1 -31.270518189214471 105.80294802396116 116.8919668753955 1 0 0 0 -0.87461971476443456 -0.48480960649040278 forward_v I I I I #
face $-1 $160 $161 $53 $-1 $162 forward single #
loop $-1 $163 $164 $67 #
cone-surface $-1 -25.66637544892653 25.620872810702657 5.1370532216229527 0 -0.87461971476443456 -0.48480960649040278 2.5 0 0 1 I I 0 1 2.5 forward I I I I #
face $-1 $165 $166 $54 $-1 $167 forward single #
loop $-1 $168 $169 $68 #
cone-surface $-1 -17.260161338494626 25.620872810702657 5.1370532216229527 0 -0.87461971476443456 -0.48480960649040278 2.5 0 0 1 I I 0 1 2.5 forward I I I I #
face $-1 $170 $171 $55 $-1 $172 forward single #
loop $-1 $173 $174 $69 #
cone-surface $-1 -8.8539472280627223 25.620872810702657 5.1370532216229527 0 -0.87461971476443456 -0.48480960649040278 2.5 0 0 1 I I 0 1 2.5 forward I I I I #
face $-1 $175 $176 $42 $-1 $177 reversed single #
loop $-1 $-1 $178 $70 #
plane-surface $-1 0 0 -12.478410729872188 0 0 1 1 0 0 forward_v I I I I #
coedge $-1 $179 $180 $181 $182 forward $71 $-1 #
face $-1 $183 $184 $43 $-1 $185 reversed single #
loop $-1 $-1 $186 $73 #
plane-surface $-1 -55.728827576573217 0 9.4315139380554918 0 0 1 1 0 0 forward_v I I I I #
coedge $-1 $187 $188 $189 $190 reversed $74 $-1 #
face $-1 $191 $192 $44 $-1 $193 reversed single #
loop $-1 $-1 $194 $76 #
plane-surface $-1 -35.779749746411611 -124.20132349623664 81.924048314149388 -1 0 0 0 -0.7660444514056185 0.64278759981090561 forward_v I I I I #
coedge $-1 $195 $196 $197 $198 reversed $77 $-1 #
face $-1 $-1 $199 $45 $-1 $200 forward single #
loop $-1 $201 $202 $79 #
cone-surface $-1 -43.657460956813537 -23.092557139458545 3.550072304089376 0 0.7660444514056185 -0.64278759981090561 1 0 0 1 I I -0.70710678118654746 0.70710678118654746 1 forward I I I I #
loop $-1 $-1 $203 $59 #
coedge $-1 $128 $128 $204 $205 reversed $80 $-1 #
face $-1 $206 $207 $46 $-1 $208 reversed single #
loop $-1 $-1 $209 $82 #
plane-surface $-1 -11.756716712699344 -32.394752284596649 4.8891902876765982 0 -0.7660444514056185 0.64278759981090561 1 0 0 forward_v I I I I #
coedge $-1 $210 $211 $212 $213 reversed $83 $-1 #
face $-1 $-1 $214 $47 $-1 $215 forward single #
loop $-1 $216 $217 $85 #
cone-surface $-1 -11.756716712699344 -23.092557139458545 3.550072304089376 0 0.7660444514056185 -0.64278759981090561 1 0 0 1 I I -0.70710678118654746 0.70710678118654746 1 forward I I I I #
loop $-1 $-1 $218 $61 #
coedge $-1 $137 $137 $219 $220 reversed $86 $-1 #
face $-1 $221 $222 $48 $-1 $223 reversed single #
loop $-1 $-1 $224 $88 #
plane-surface $-1 20.144027531414849 -32.394752284596649 4.8891902876765982 0 -0.7660444514056185 0.64278759981090561 1 0 0 forward_v I I I I #
coedge $-1 $225 $226 $227 $228 reversed $89 $-1 #
face $-1 $-1 $229 $49 $-1 $230 forward single #
loop $-1 $231 $232 $91 #
cone-surface $-1 20.144027531414849 -23.092557139458545 3.550072304089376 0 0.7660444514056185 -0.64278759981090561 1 0 0 1 I I -0.70710678118654746 0.70710678118654746 1 forward I I I I #
loop $-1 $-1 $233 $63 #
coedge $-1 $146 $146 $234 $235 reversed $92 $-1 #
face $-1 $236 $237 $50 $-1 $238 reversed single #
loop $-1 $-1 $239 $94 #
plane-surface $-1 52.044771775529043 -32.394752284596649 4.8891902876765982 0 -0.7660444514056185 0.64278759981090561 1 0 0 forward_v I I I I #
coedge $-1 $240 $241 $242 $243 reversed $95 $-1 #
face $-1 $-1 $244 $51 $-1 $245 forward single #
loop $-1 $246 $247 $97 #
cone-surface $-1 52.044771775529043 -23.092557139458545 3.550072304089376 0 0.7660444514056185 -0.64278759981090561 1 0 0 1 I I -0.70710678118654746 0.70710678118654746 1 forward I I I I #
loop $-1 $-1 $248 $65 #
coedge $-1 $155 $155 $249 $250 reversed $98 $-1 #
face $-1 $251 $252 $52 $-1 $253 reversed single #
loop $-1 $-1 $254 $100 #
plane-surface $-1 -17.260161338494626 0.98417806969790433 58.789976082721395 0 0.87461971476443456 0.48480960649040278 1 0 0 forward_v I I I I #
coedge $-1 $255 $256 $257 $258 reversed $101 $-1 #
face $-1 $-1 $259 $53 $-1 $260 forward single #
loop $-1 $261 $262 $103 #
cone-surface $-1 -25.66637544892653 20.623546345880094 2.3669900318545487 0 -0.87461971476443456 -0.48480960649040278 1.25 0 0 1 I I -0.70710678118654746 0.70710678118654746 1.25 forward I I I I #
loop $-1 $-1 $263 $67 #
coedge $-1 $164 $164 $264 $265 reversed $104 $-1 #
face $-1 $-1 $266 $54 $-1 $267 forward single #
loop $-1 $268 $269 $106 #
cone-surface $-1 -17.260161338494626 20.623546345880094 2.3669900318545487 0 -0.87461971476443456 -0.48480960649040278 1.25 0 0 1 I I -0.70710678118654746 0.70710678118654746 1.25 forward I I I I #
loop $-1 $-1 $270 $68 #
coedge $-1 $169 $169 $271 $272 reversed $107 $-1 #
face $-1 $-1 $273 $55 $-1 $274 forward single #
loop $-1 $275 $276 $109 #
cone-surface $-1 -8.8539472280627223 20.623546345880094 2.3669900318545487 0 -0.87461971476443456 -0.48480960649040278 1.25 0 0 1 I I -0.70710678118654746 0.70710678118654746 1.25 forward I I I I #
loop $-1 $-1 $277 $69 #
coedge $-1 $174 $174 $278 $279 reversed $110 $-1 #
face $-1 $280 $281 $42 $-1 $282 reversed single #
loop $-1 $-1 $283 $112 #
plane-surface $-1 0 -32.394752284596649 0 0 1 0 0 0 1 forward_v I I I I #
coedge $-1 $284 $285 $286 $287 forward $113 $-1 #
coedge $-1 $288 $115 $289 $290 forward $71 $-1 #
coedge $-1 $115 $288 $291 $292 forward $71 $-1 #
coedge $-1 $293 $294 $115 $182 reversed $295 $-1 #
edge $-1 $296 -32.394752284596649 $297 32.394752284596649 $181 $298 forward 7 unknown #
face $-1 $299 $300 $43 $-1 $301 reversed single #
loop $-1 $-1 $189 $116 #
plane-surface $-1 -55.728827576573217 0 6.4315139380554918 0 0 1 1 0 0 forward_v I I I I #
coedge $-1 $302 $303 $304 $305 forward $117 $-1 #
coedge $-1 $304 $119 $306 $307 reversed $74 $-1 #
coedge $-1 $119 $304 $308 $309 reversed $74 $-1 #
coedge $-1 $310 $311 $119 $190 forward $184 $-1 #
edge $-1 $312 -32.394752284596649 $313 32.394752284596649 $119 $314 forward 7 unknown #
face $-1 $315 $316 $44 $-1 $317 forward single #
loop $-1 $-1 $318 $120 #
plane-surface $-1 0 -32.394752284596649 0 0 1 0 0 0 1 forward_v I I I I #
coedge $-1 $319 $320 $321 $322 reversed $121 $-1 #
coedge $-1 $323 $123 $324 $325 forward $77 $-1 #
coedge $-1 $123 $323 $319 $326 forward $77 $-1 #
coedge $-1 $321 $318 $123 $198 forward $192 $-1 #
edge $-1 $327 -29.706441688808695 $328 -13.951019268004842 $197 $329 forward 7 unknown #
loop $-1 $-1 $204 $124 #
plane-surface $-1 -43.657460956813537 -32.394752284596649 4.8891902876765982 0 -0.7660444514056185 0.64278759981090561 1 0 0 forward_v I I I I #
loop $-1 $-1 $330 $79 #
coedge $-1 $202 $202 $203 $331 reversed $125 $-1 #
coedge $-1 $203 $203 $202 $331 forward $127 $-1 #
coedge $-1 $204 $204 $128 $205 forward $199 $-1 #
edge $-1 $332 -7.039238465393535e-016 $332 6.2831853071795996 $204 $333 forward 7 unknown #
face $-1 $334 $335 $46 $-1 $336 forward single #
loop $-1 $-1 $337 $129 #
plane-surface $-1 -3.8790055022974146 -124.20132349623664 81.924048314149388 -1 0 0 0 -0.7660444514056185 0.64278759981090561 forward_v I I I I #
coedge $-1 $338 $339 $340 $341 reversed $130 $-1 #
coedge $-1 $211 $132 $342 $343 reversed $83 $-1 #
coedge $-1 $132 $210 $338 $344 reversed $83 $-1 #
coedge $-1 $340 $345 $132 $213 forward $346 $-1 #
edge $-1 $347 28.483613427202506 $348 36.072833869398096 $212 $349 forward 7 unknown #
loop $-1 $-1 $219 $133 #
plane-surface $-1 -11.756716712699344 -32.394752284596649 4.8891902876765982 0 -0.7660444514056185 0.64278759981090561 1 0 0 forward_v I I I I #
loop $-1 $-1 $350 $85 #
coedge $-1 $217 $217 $218 $351 reversed $134 $-1 #
coedge $-1 $218 $218 $217 $351 forward $136 $-1 #
coedge $-1 $219 $219 $137 $220 forward $214 $-1 #
edge $-1 $352 -7.039238465393535e-016 $352 6.2831853071795996 $219 $353 forward 7 unknown #
face $-1 $354 $355 $48 $-1 $356 reversed single #
loop $-1 $-1 $357 $138 #
plane-surface $-1 28.02173874181678 -124.20132349623664 81.924048314149388 -1 0 0 0 -0.7660444514056185 0.64278759981090561 forward_v I I I I #
coedge $-1 $358 $359 $360 $361 reversed $139 $-1 #
coedge $-1 $226 $141 $362 $363 reversed $89 $-1 #
coedge $-1 $141 $225 $358 $364 reversed $89 $-1 #
coedge $-1 $360 $365 $141 $228 forward $355 $-1 #
edge $-1 $366 28.483613427202506 $367 36.072833869398096 $227 $368 forward 7 unknown #
loop $-1 $-1 $234 $142 #
plane-surface $-1 20.144027531414849 -32.394752284596649 4.8891902876765982 0 -0.7660444514056185 0.64278759981090561 1 0 0 forward_v I I I I #
loop $-1 $-1 $369 $91 #
coedge $-1 $232 $232 $233 $370 reversed $143 $-1 #
coedge $-1 $233 $233 $232 $370 forward $145 $-1 #
coedge $-1 $234 $234 $146 $235 forward $229 $-1 #
edge $-1 $371 -7.039238465393535e-016 $371 6.2831853071795996 $234 $372 forward 7 unknown #
face $-1 $373 $374 $50 $-1 $375 reversed single #
loop $-1 $-1 $242 $147 #
plane-surface $-1 0 -32.394752284596649 0 0 1 0 0 0 1 forward_v I I I I #
coedge $-1 $376 $377 $378 $379 reversed $148 $-1 #
coedge $-1 $241 $150 $380 $381 reversed $95 $-1 #
coedge $-1 $150 $240 $376 $382 reversed $95 $-1 #
coedge $-1 $378 $383 $150 $243 forward $237 $-1 #
edge $-1 $384 28.483613427202506 $385 36.072833869398096 $242 $386 forward 7 unknown #
loop $-1 $-1 $249 $151 #
plane-surface $-1 52.044771775529043 -32.394752284596649 4.8891902876765982 0 -0.7660444514056185 0.64278759981090561 1 0 0 forward_v I I I I #
loop $-1 $-1 $387 $97 #
coedge $-1 $247 $247 $248 $388 reversed $152 $-1 #
coedge $-1 $248 $248 $247 $388 forward $154 $-1 #
coedge $-1 $249 $249 $155 $250 forward $244 $-1 #
edge $-1 $389 -7.039238465393535e-016 $389 6.2831853071795996 $249 $390 forward 7 unknown #
face $-1 $391 $392 $52 $-1 $393 reversed single #
loop $-1 $-1 $394 $156 #
plane-surface $-1 -3.2498044877747816 105.80294802396116 116.8919668753955 -1 0 0 0 0.87461971476443456 0.48480960649040278 forward_v I I I I #
coedge $-1 $395 $396 $397 $398 reversed $157 $-1 #
coedge $-1 $256 $159 $399 $400 reversed $101 $-1 #
coedge $-1 $159 $255 $395 $401 reversed $101 $-1 #
coedge $-1 $397 $402 $159 $258 forward $403 $-1 #
edge $-1 $404 20.506721727383933 $405 26.24637703243787 $257 $406 forward 7 unknown #
loop $-1 $-1 $264 $160 #
plane-surface $-1 -17.260161338494626 0.98417806969790433 58.789976082721395 0 0.87461971476443456 0.48480960649040278 1 0 0 forward_v I I I I #
loop $-1 $-1 $407 $103 #
coedge $-1 $262 $262 $263 $408 reversed $161 $-1 #
coedge $-1 $263 $263 $262 $408 forward $163 $-1 #
coedge $-1 $264 $264 $164 $265 forward $259 $-1 #
edge $-1 $409 -8.9145949831242811e-016 $409 6.2831853071795996 $264 $410 forward 7 unknown #
loop $-1 $-1 $271 $165 #
plane-surface $-1 -17.260161338494626 0.98417806969790433 58.789976082721395 0 0.87461971476443456 0.48480960649040278 1 0 0 forward_v I I I I #
loop $-1 $-1 $411 $106 #
coedge $-1 $269 $269 $270 $412 reversed $166 $-1 #
coedge $-1 $270 $270 $269 $412 forward $168 $-1 #
coedge $-1 $271 $271 $169 $272 forward $266 $-1 #
edge $-1 $413 -8.9145949831242811e-016 $413 6.2831853071795996 $271 $414 forward 7 unknown #
loop $-1 $-1 $278 $170 #
plane-surface $-1 -17.260161338494626 0.98417806969790433 58.789976082721395 0 0.87461971476443456 0.48480960649040278 1 0 0 forward_v I I I I #
loop $-1 $-1 $415 $109 #
coedge $-1 $276 $276 $277 $416 reversed $171 $-1 #
coedge $-1 $277 $277 $276 $416 forward $173 $-1 #
coedge $-1 $278 $278 $174 $279 forward $273 $-1 #
edge $-1 $417 -8.9145949831242811e-016 $417 6.2831853071795996 $278 $418 forward 7 unknown #
face $-1 $419 $420 $42 $-1 $421 reversed single #
loop $-1 $-1 $422 $175 #
plane-surface $-1 -59.922482985930969 0 0 1 0 0 0 0 -1 forward_v I I I I #
coedge $-1 $423 $291 $424 $425 forward $176 $-1 #
coedge $-1 $426 $178 $423 $427 forward $113 $-1 #
coedge $-1 $178 $426 $428 $429 forward $113 $-1 #
coedge $-1 $294 $293 $178 $287 reversed $295 $-1 #
edge $-1 $430 -32.394752284596649 $431 32.394752284596649 $286 $432 forward 7 unknown #
coedge $-1 $180 $179 $433 $434 forward $71 $-1 #
coedge $-1 $435 $436 $179 $290 reversed $420 $-1 #
edge $-1 $297 -59.922482985930969 $437 59.922482985930969 $289 $438 forward 7 unknown #
coedge $-1 $283 $439 $180 $292 reversed $176 $-1 #
edge $-1 $440 -59.922482985930969 $296 59.922482985930969 $291 $441 forward 7 unknown #
coedge $-1 $286 $181 $439 $442 forward $295 $-1 #
coedge $-1 $181 $286 $435 $443 reversed $295 $-1 #
loop $-1 $-1 $293 $419 #
vertex $-1 $182 $444 #
vertex $-1 $182 $445 #
straight-curve $-1 59.922482985930969 0 12.478410729872188 0 1 0 I I #
face $-1 $446 $447 $43 $-1 $448 reversed single #
loop $-1 $-1 $449 $183 #
plane-surface $-1 0 -32.394752284596649 0 0 1 0 0 0 1 forward_v I I I I #
coedge $-1 $450 $186 $451 $452 reversed $117 $-1 #
coedge $-1 $186 $450 $453 $454 reversed $117 $-1 #
coedge $-1 $188 $187 $186 $305 reversed $74 $-1 #
edge $-1 $455 -32.394752284596649 $456 32.394752284596649 $304 $457 forward 7 unknown #
coedge $-1 $458 $451 $187 $307 forward $459 $-1 #
edge $-1 $456 -5.4657569690277459 $312 -2.4657569690277459 $306 $460 forward 7 unknown #
coedge $-1 $453 $449 $188 $309 forward $300 $-1 #
edge $-1 $313 2.4657569690277459 $455 5.4657569690277459 $308 $461 forward 7 unknown #
coedge $-1 $462 $189 $449 $463 reversed $184 $-1 #
coedge $-1 $189 $462 $458 $464 reversed $184 $-1 #
vertex $-1 $464 $465 #
vertex $-1 $463 $466 #
straight-curve $-1 -51.535172167215464 0 6.4315139380554918 0 -1 0 I I #
face $-1 $-1 $467 $44 $-1 $468 forward single #
loop $-1 $-1 $324 $191 #
plane-surface $-1 -51.535172167215464 0 7.9315139380554918 -1 0 0 0 0 1 forward_v I I I I #
coedge $-1 $197 $469 $470 $471 forward $192 $-1 #
coedge $-1 $320 $194 $196 $326 reversed $121 $-1 #
coedge $-1 $194 $319 $472 $473 reversed $121 $-1 #
coedge $-1 $469 $197 $194 $322 forward $192 $-1 #
edge $-1 $328 -36.072833869398096 $474 -28.483613427202506 $321 $475 forward 7 unknown #
coedge $-1 $196 $195 $476 $477 reversed $77 $-1 #
coedge $-1 $470 $478 $195 $325 reversed $316 $-1 #
edge $-1 $327 0 $479 9.9070235784230238 $324 $480 forward 7 unknown #
edge $-1 $481 -9.9070235784230238 $328 0 $319 $482 forward 7 unknown #
vertex $-1 $198 $483 #
vertex $-1 $198 $484 #
straight-curve $-1 -21.828730478406769 -32.394752284596649 4.8891902876765965 1 0 0 I I #
coedge $-1 $330 $330 $-1 $485 reversed $201 $-1 #
edge $-1 $486 0 $486 6.2831853071796004 $202 $487 forward 7 unknown #
vertex $-1 $205 $488 #
ellipse-curve $-1 -43.657460956813537 -29.210696330974358 8.683800508774393 0 -0.7660444514056185 0.64278759981090561 2 0 0 1 I I #
face $-1 $-1 $346 $46 $-1 $489 reversed single #
loop $-1 $-1 $490 $206 #
plane-surface $-1 0 0 12.478410729872188 0 0 1 1 0 0 forward_v I I I I #
coedge $-1 $491 $492 $493 $494 reversed $207 $-1 #
coedge $-1 $495 $209 $211 $344 forward $130 $-1 #
coedge $-1 $209 $495 $491 $496 forward $130 $-1 #
coedge $-1 $493 $212 $209 $341 forward $346 $-1 #
edge $-1 $348 -13.756069566751602 $497 1.9993528540522574 $340 $498 forward 7 unknown #
coedge $-1 $499 $500 $210 $343 forward $335 $-1 #
edge $-1 $501 -36.074021370766253 $347 -29.705909463521671 $342 $502 forward 7 unknown #
edge $-1 $348 0 $501 9.9070235784230238 $211 $503 forward 7 unknown #
coedge $-1 $212 $493 $499 $504 reversed $346 $-1 #
loop $-1 $-1 $493 $334 #
vertex $-1 $504 $505 #
vertex $-1 $213 $506 #
straight-curve $-1 -19.634427923101274 -32.394752284596649 40.962024157074694 0 0 -1 I I #
coedge $-1 $350 $350 $-1 $507 reversed $216 $-1 #
edge $-1 $508 0 $508 6.2831853071796004 $217 $509 forward 7 unknown #
vertex $-1 $220 $510 #
ellipse-curve $-1 -11.756716712699344 -29.210696330974358 8.683800508774393 0 -0.7660444514056185 0.64278759981090561 2 0 0 1 I I #
face $-1 $-1 $511 $48 $-1 $512 forward single #
loop $-1 $-1 $227 $221 #
plane-surface $-1 0 -32.394752284596649 0 0 1 0 0 0 1 forward_v I I I I #
coedge $-1 $513 $514 $515 $516 reversed $222 $-1 #
coedge $-1 $517 $224 $226 $364 forward $139 $-1 #
coedge $-1 $224 $517 $513 $518 forward $139 $-1 #
coedge $-1 $515 $227 $224 $361 forward $355 $-1 #
edge $-1 $367 2.1943025553054945 $519 17.949724976109355 $360 $520 forward 7 unknown #
coedge $-1 $521 $522 $225 $363 forward $511 $-1 #
edge $-1 $523 -36.074021370766253 $366 -29.705909463521671 $362 $524 forward 7 unknown #
edge $-1 $367 0 $523 9.9070235784230238 $226 $525 forward 7 unknown #
coedge $-1 $227 $515 $521 $526 reversed $355 $-1 #
vertex $-1 $526 $527 #
vertex $-1 $228 $528 #
straight-curve $-1 12.266316321012919 -32.394752284596649 40.962024157074694 0 0 -1 I I #
coedge $-1 $369 $369 $-1 $529 reversed $231 $-1 #
edge $-1 $530 0 $530 6.2831853071796004 $232 $531 forward 7 unknown #
vertex $-1 $235 $532 #
ellipse-curve $-1 20.144027531414849 -29.210696330974358 8.683800508774393 0 -0.7660444514056185 0.64278759981090561 2 0 0 1 I I #
face $-1 $-1 $533 $50 $-1 $534 forward single #
loop $-1 $-1 $535 $236 #
plane-surface $-1 59.922482985930969 0 0 -1 0 0 0 0 1 forward_v I I I I #
coedge $-1 $536 $239 $241 $382 forward $148 $-1 #
coedge $-1 $239 $536 $535 $537 reversed $148 $-1 #
coedge $-1 $538 $242 $239 $379 forward $237 $-1 #
edge $-1 $385 18.144674677362595 $539 33.900097098166448 $378 $540 forward 7 unknown #
coedge $-1 $541 $542 $240 $381 forward $533 $-1 #
edge $-1 $543 -36.074021370766253 $384 -29.705909463521671 $380 $544 forward 7 unknown #
edge $-1 $385 0 $543 9.9070235784230238 $241 $545 forward 7 unknown #
coedge $-1 $242 $538 $541 $546 reversed $237 $-1 #
vertex $-1 $546 $547 #
vertex $-1 $243 $548 #
straight-curve $-1 44.167060565127116 -32.394752284596649 40.962024157074694 0 0 -1 I I #
coedge $-1 $387 $387 $-1 $549 reversed $246 $-1 #
edge $-1 $550 0 $550 6.2831853071796004 $247 $551 forward 7 unknown #
vertex $-1 $250 $552 #
ellipse-curve $-1 52.044771775529043 -29.210696330974358 8.683800508774393 0 -0.7660444514056185 0.64278759981090561 2 0 0 1 I I #
face $-1 $-1 $403 $52 $-1 $553 forward single #
loop $-1 $-1 $554 $251 #
plane-surface $-1 0 32.394752284596649 0 0 -1 0 0 0 -1 forward_v I I I I #
coedge $-1 $555 $556 $557 $558 reversed $252 $-1 #
coedge $-1 $559 $254 $256 $401 forward $157 $-1 #
coedge $-1 $254 $559 $555 $560 forward $157 $-1 #
coedge $-1 $557 $257 $254 $398 forward $403 $-1 #
edge $-1 $405 -22.640437519967158 $561 5.3802761814725315 $397 $562 forward 7 unknown #
coedge $-1 $563 $564 $255 $400 forward $392 $-1 #
edge $-1 $565 -56.322185361013197 $404 -45.96757270782556 $399 $566 forward 7 unknown #
edge $-1 $405 52.950516174132346 $565 64.789504569193269 $256 $567 forward 7 unknown #
coedge $-1 $257 $557 $563 $568 forward $403 $-1 #
loop $-1 $-1 $557 $391 #
vertex $-1 $400 $569 #
vertex $-1 $258 $570 #
straight-curve $-1 -31.270518189214471 52.901474011980582 12.478410729872188 0 -1 0 I I #
coedge $-1 $407 $407 $-1 $571 reversed $261 $-1 #
edge $-1 $572 0 $572 6.2831853071796004 $262 $573 forward 7 unknown #
vertex $-1 $265 $574 #
ellipse-curve $-1 -25.66637544892653 29.524924632069688 7.3011044032783596 0 0.87461971476443456 0.48480960649040278 2.5 0 0 1 I I #
coedge $-1 $411 $411 $-1 $575 reversed $268 $-1 #
edge $-1 $576 0 $576 6.2831853071796004 $269 $577 forward 7 unknown #
vertex $-1 $272 $578 #
ellipse-curve $-1 -17.260161338494626 29.524924632069688 7.3011044032783596 0 0.87461971476443456 0.48480960649040278 2.5 0 0 1 I I #
coedge $-1 $415 $415 $-1 $579 reversed $275 $-1 #
edge $-1 $580 0 $580 6.2831853071796004 $276 $581 forward 7 unknown #
vertex $-1 $279 $582 #
ellipse-curve $-1 -8.8539472280627223 29.524924632069688 7.3011044032783596 0 0.87461971476443456 0.48480960649040278 2.5 0 0 1 I I #
face $-1 $-1 $295 $42 $-1 $583 reversed single #
loop $-1 $-1 $435 $280 #
plane-surface $-1 0 32.394752284596649 0 0 -1 0 0 0 -1 forward_v I I I I #
coedge $-1 $584 $433 $436 $585 forward $281 $-1 #
coedge $-1 $439 $283 $284 $427 reversed $176 $-1 #
coedge $-1 $433 $584 $283 $425 reversed $281 $-1 #
edge $-1 $440 -12.478410729872188 $586 12.478410729872188 $424 $587 forward 7 unknown #
coedge $-1 $285 $284 $584 $588 forward $113 $-1 #
edge $-1 $431 -59.922482985930969 $586 59.922482985930969 $423 $589 forward 7 unknown #
coedge $-1 $436 $435 $285 $429 reversed $420 $-1 #
edge $-1 $590 -59.922482985930969 $430 59.922482985930969 $428 $591 forward 7 unknown #
vertex $-1 $287 $592 #
vertex $-1 $442 $593 #
straight-curve $-1 59.922482985930969 0 -12.478410729872188 0 -1 0 I I #
coedge $-1 $422 $424 $288 $434 reversed $281 $-1 #
edge $-1 $437 -32.394752284596649 $440 32.394752284596649 $433 $594 forward 7 unknown #
coedge $-1 $428 $289 $294 $443 forward $420 $-1 #
coedge $-1 $289 $428 $422 $585 reversed $420 $-1 #
vertex $-1 $290 $595 #
straight-curve $-1 0 32.394752284596649 12.478410729872188 -1 0 0 I I #
coedge $-1 $291 $423 $293 $442 reversed $176 $-1 #
vertex $-1 $434 $596 #
straight-curve $-1 0 -32.394752284596649 12.478410729872188 1 0 0 I I #
edge $-1 $296 -12.478410729872188 $431 12.478410729872188 $293 $597 forward 7 unknown #
edge $-1 $297 -12.478410729872188 $430 12.478410729872188 $294 $598 forward 7 unknown #
point $-1 59.922482985930969 -32.394752284596649 12.478410729872188 #
point $-1 59.922482985930969 32.394752284596649 12.478410729872188 #
face $-1 $-1 $459 $43 $-1 $599 reversed single #
loop $-1 $-1 $600 $299 #
plane-surface $-1 -59.922482985930969 0 0 1 0 0 0 0 -1 forward_v I I I I #
coedge $-1 $308 $601 $310 $463 forward $300 $-1 #
coedge $-1 $303 $302 $602 $603 reversed $117 $-1 #
coedge $-1 $306 $604 $302 $452 forward $459 $-1 #
edge $-1 $605 -32.058069197644357 $456 -23.670758378928856 $451 $606 forward 7 unknown #
coedge $-1 $601 $308 $303 $454 forward $300 $-1 #
edge $-1 $455 23.670758378928856 $607 32.058069197644357 $453 $608 forward 7 unknown #
vertex $-1 $454 $609 #
vertex $-1 $452 $610 #
straight-curve $-1 -51.535172167215464 0 9.4315139380554918 0 1 0 I I #
coedge $-1 $604 $306 $311 $464 forward $459 $-1 #
loop $-1 $-1 $458 $446 #
straight-curve $-1 -51.535172167215464 32.394752284596649 3.9657569690277459 0 0 -1 I I #
straight-curve $-1 -51.535172167215464 -32.394752284596649 3.9657569690277459 0 0 1 I I #
coedge $-1 $311 $310 $600 $611 reversed $184 $-1 #
edge $-1 $612 -32.058069197644357 $313 -23.670758378928856 $449 $613 forward 7 unknown #
edge $-1 $312 23.670758378928856 $614 32.058069197644357 $458 $615 forward 7 unknown #
point $-1 -51.535172167215464 32.394752284596649 6.4315139380554918 #
point $-1 -51.535172167215464 -32.394752284596649 6.4315139380554918 #
loop $-1 $-1 $616 $315 #
plane-surface $-1 0 0 12.478410729872188 0 0 1 1 0 0 forward_v I I I I #
coedge $-1 $318 $321 $617 $618 reversed $192 $-1 #
coedge $-1 $478 $324 $318 $471 reversed $316 $-1 #
edge $-1 $619 28.483613427202506 $327 36.072833869398096 $318 $620 forward 7 unknown #
coedge $-1 $476 $617 $320 $473 forward $467 $-1 #
edge $-1 $474 29.705909463521671 $481 36.074021370766253 $472 $621 forward 7 unknown #
vertex $-1 $322 $622 #
straight-curve $-1 -35.779749746411611 -32.394752284596649 40.962024157074694 0 0 1 I I #
coedge $-1 $616 $472 $323 $477 forward $467 $-1 #
edge $-1 $481 13.951019268004842 $479 29.706441688808695 $476 $623 forward 7 unknown #
coedge $-1 $324 $470 $616 $624 reversed $316 $-1 #
vertex $-1 $624 $625 #
straight-curve $-1 -51.535172167215464 -32.394752284596649 4.8891902876765982 0 0.64278759981090561 0.7660444514056185 I I #
vertex $-1 $477 $626 #
straight-curve $-1 -35.779749746411611 -32.394752284596649 4.8891902876765982 0 -0.64278759981090561 -0.7660444514056185 I I #
point $-1 -51.535172167215464 -32.394752284596649 4.8891902876765982 #
point $-1 -35.779749746411611 -32.394752284596649 4.8891902876765982 #
edge $-1 $627 1 $627 0 $330 $-1 forward 7 unknown #
vertex $-1 $331 $628 #
ellipse-curve $-1 -43.657460956813537 -23.858601590864165 4.1928599039002812 0 -0.7660444514056185 0.64278759981090561 2 0 0 1 I I #
point $-1 -41.657460956813537 -29.210696330974368 8.6838005087744001 #
plane-surface $-1 0 -32.394752284596649 0 0 1 0 0 0 1 forward_v I I I I #
coedge $-1 $500 $499 $492 $629 forward $335 $-1 #
coedge $-1 $492 $337 $339 $496 reversed $207 $-1 #
coedge $-1 $337 $491 $490 $629 reversed $207 $-1 #
coedge $-1 $345 $340 $337 $494 forward $346 $-1 #
edge $-1 $497 -36.072833869398096 $630 -28.483613427202506 $493 $631 forward 7 unknown #
coedge $-1 $339 $338 $500 $632 reversed $130 $-1 #
edge $-1 $633 -9.9070235784230238 $497 0 $491 $634 forward 7 unknown #
vertex $-1 $341 $635 #
straight-curve $-1 -5.878358356349672 -32.394752284596649 4.8891902876765965 1 0 0 I I #
coedge $-1 $490 $342 $345 $504 forward $335 $-1 #
coedge $-1 $342 $490 $495 $632 forward $335 $-1 #
vertex $-1 $343 $636 #
straight-curve $-1 -19.634427923101274 -62.10066174811832 12.478410729872188 0 -1 0 I I #
straight-curve $-1 -19.634427923101274 -32.394752284596649 4.8891902876765982 0 0.64278759981090561 0.7660444514056185 I I #
edge $-1 $347 -19.634427923101274 $630 -3.8790055022974146 $345 $637 forward 7 unknown #
point $-1 -19.634427923101274 -32.394752284596649 12.478410729872188 #
point $-1 -19.634427923101274 -32.394752284596649 4.8891902876765982 #
edge $-1 $638 1 $638 0 $350 $-1 forward 7 unknown #
vertex $-1 $351 $639 #
ellipse-curve $-1 -11.756716712699344 -23.858601590864165 4.1928599039002812 0 -0.7660444514056185 0.64278759981090561 2 0 0 1 I I #
point $-1 -9.7567167126993439 -29.210696330974368 8.6838005087744001 #
loop $-1 $-1 $362 $354 #
plane-surface $-1 0 0 12.478410729872188 0 0 1 1 0 0 forward_v I I I I #
coedge $-1 $514 $357 $359 $518 reversed $222 $-1 #
coedge $-1 $357 $513 $640 $641 reversed $222 $-1 #
coedge $-1 $365 $360 $357 $516 forward $355 $-1 #
edge $-1 $519 -36.072833869398096 $642 -28.483613427202506 $515 $643 forward 7 unknown #
coedge $-1 $359 $358 $522 $644 reversed $139 $-1 #
edge $-1 $645 -9.9070235784230238 $519 0 $513 $646 forward 7 unknown #
vertex $-1 $361 $647 #
straight-curve $-1 10.072013765707425 -32.394752284596649 4.8891902876765965 1 0 0 I I #
coedge $-1 $640 $362 $365 $526 forward $511 $-1 #
coedge $-1 $362 $640 $517 $644 forward $511 $-1 #
vertex $-1 $363 $648 #
straight-curve $-1 12.266316321012919 -62.10066174811832 12.478410729872188 0 -1 0 I I #
straight-curve $-1 12.266316321012919 -32.394752284596649 4.8891902876765982 0 0.64278759981090561 0.7660444514056185 I I #
edge $-1 $366 12.266316321012919 $642 28.02173874181678 $365 $649 forward 7 unknown #
point $-1 12.266316321012919 -32.394752284596649 12.478410729872188 #
point $-1 12.266316321012919 -32.394752284596649 4.8891902876765982 #
edge $-1 $650 1 $650 0 $369 $-1 forward 7 unknown #
vertex $-1 $370 $651 #
ellipse-curve $-1 20.144027531414849 -23.858601590864165 4.1928599039002812 0 -0.7660444514056185 0.64278759981090561 2 0 0 1 I I #
point $-1 22.144027531414849 -29.210696330974368 8.6838005087744001 #
loop $-1 $-1 $380 $373 #
plane-surface $-1 0 0 12.478410729872188 0 0 1 1 0 0 forward_v I I I I #
coedge $-1 $652 $653 $377 $537 forward $374 $-1 #
coedge $-1 $377 $376 $542 $654 reversed $148 $-1 #
edge $-1 $539 -8.5388039878719191 $655 1.3682195905511023 $535 $656 forward 7 unknown #
coedge $-1 $383 $378 $653 $657 reversed $237 $-1 #
vertex $-1 $537 $658 #
straight-curve $-1 26.022385887764521 -32.394752284596649 4.8891902876765965 1 0 0 I I #
coedge $-1 $659 $380 $383 $546 forward $533 $-1 #
coedge $-1 $380 $659 $536 $654 forward $533 $-1 #
vertex $-1 $381 $660 #
straight-curve $-1 44.167060565127116 -62.10066174811832 12.478410729872188 0 -1 0 I I #
straight-curve $-1 44.167060565127116 -32.394752284596649 4.8891902876765982 0 0.64278759981090561 0.7660444514056185 I I #
edge $-1 $384 44.167060565127116 $661 59.922482985930969 $383 $662 forward 7 unknown #
point $-1 44.167060565127116 -32.394752284596649 12.478410729872188 #
point $-1 44.167060565127116 -32.394752284596649 4.8891902876765982 #
edge $-1 $663 1 $663 0 $387 $-1 forward 7 unknown #
vertex $-1 $388 $664 #
ellipse-curve $-1 52.044771775529043 -23.858601590864165 4.1928599039002812 0 -0.7660444514056185 0.64278759981090561 2 0 0 1 I I #
point $-1 54.044771775529043 -29.210696330974368 8.6838005087744001 #
plane-surface $-1 0 0 12.478410729872188 0 0 1 1 0 0 forward_v I I I I #
coedge $-1 $564 $563 $556 $665 forward $392 $-1 #
coedge $-1 $556 $394 $396 $560 reversed $252 $-1 #
coedge $-1 $394 $555 $554 $665 reversed $252 $-1 #
coedge $-1 $402 $397 $394 $558 forward $403 $-1 #
edge $-1 $561 -26.24637703243787 $666 -20.506721727383933 $557 $667 forward 7 unknown #
coedge $-1 $396 $395 $564 $668 reversed $157 $-1 #
edge $-1 $669 -64.789504569193269 $561 -52.950516174132346 $555 $670 forward 7 unknown #
vertex $-1 $398 $671 #
straight-curve $-1 -8.6300806692473131 26.655096979542712 12.478410729872188 1 0 0 I I #
coedge $-1 $554 $399 $402 $568 reversed $392 $-1 #
coedge $-1 $399 $554 $559 $668 forward $392 $-1 #
vertex $-1 $400 $672 #
straight-curve $-1 -31.270518189214471 32.394752284596649 58.445983437697748 0 0 1 I I #
straight-curve $-1 -31.270518189214471 0.98417806969790433 58.789976082721395 0 0.48480960649040278 -0.87461971476443456 I I #
edge $-1 $666 3.2498044877747816 $404 31.270518189214471 $563 $673 forward 7 unknown #
point $-1 -31.270518189214471 32.394752284596649 12.478410729872188 #
point $-1 -31.270518189214471 26.655096979542712 12.478410729872188 #
edge $-1 $674 1 $674 0 $407 $-1 forward 7 unknown #
vertex $-1 $408 $675 #
ellipse-curve $-1 -25.66637544892653 21.716820989335638 2.9730020399675521 0 0.87461971476443456 0.48480960649040278 2.5 0 0 1 I I #
point $-1 -23.16637544892653 29.524924632069673 7.3011044032783543 #
edge $-1 $676 1 $676 0 $411 $-1 forward 7 unknown #
vertex $-1 $412 $677 #
ellipse-curve $-1 -17.260161338494626 21.716820989335638 2.9730020399675521 0 0.87461971476443456 0.48480960649040278 2.5 0 0 1 I I #
point $-1 -14.760161338494626 29.524924632069673 7.3011044032783543 #
edge $-1 $678 1 $678 0 $415 $-1 forward 7 unknown #
vertex $-1 $416 $679 #
ellipse-curve $-1 -8.8539472280627223 21.716820989335638 2.9730020399675521 0 0.87461971476443456 0.48480960649040278 2.5 0 0 1 I I #
point $-1 -6.3539472280627223 29.524924632069673 7.3011044032783543 #
plane-surface $-1 59.922482985930969 0 0 -1 0 0 0 0 1 forward_v I I I I #
coedge $-1 $424 $422 $426 $588 reversed $281 $-1 #
edge $-1 $437 -12.478410729872188 $590 12.478410729872188 $436 $680 forward 7 unknown #
vertex $-1 $588 $681 #
straight-curve $-1 -59.922482985930969 -32.394752284596649 0 0 0 -1 I I #
edge $-1 $586 -32.394752284596649 $590 32.394752284596649 $584 $682 forward 7 unknown #
straight-curve $-1 0 -32.394752284596649 -12.478410729872188 -1 0 0 I I #
vertex $-1 $429 $683 #
straight-curve $-1 0 32.394752284596649 -12.478410729872188 1 0 0 I I #
point $-1 59.922482985930969 32.394752284596649 -12.478410729872188 #
point $-1 59.922482985930969 -32.394752284596649 -12.478410729872188 #
straight-curve $-1 -59.922482985930969 0 12.478410729872188 0 -1 0 I I #
point $-1 -59.922482985930969 32.394752284596649 12.478410729872188 #
point $-1 -59.922482985930969 -32.394752284596649 12.478410729872188 #
straight-curve $-1 59.922482985930969 -32.394752284596649 0 0 0 -1 I I #
straight-curve $-1 59.922482985930969 32.394752284596649 0 0 0 -1 I I #
plane-surface $-1 0 32.394752284596649 0 0 -1 0 0 0 -1 forward_v I I I I #
coedge $-1 $684 $685 $462 $611 forward $447 $-1 #
coedge $-1 $449 $453 $684 $686 forward $300 $-1 #
coedge $-1 $685 $684 $450 $603 forward $447 $-1 #
edge $-1 $607 -32.394752284596649 $605 32.394752284596649 $602 $687 forward 7 unknown #
coedge $-1 $451 $458 $685 $688 reversed $459 $-1 #
vertex $-1 $688 $689 #
straight-curve $-1 -27.864413788286608 32.394752284596649 9.4315139380554918 1 0 0 I I #
vertex $-1 $686 $690 #
straight-curve $-1 -27.864413788286608 -32.394752284596649 9.4315139380554918 -1 0 0 I I #
point $-1 -51.535172167215464 -32.394752284596649 9.4315139380554918 #
point $-1 -51.535172167215464 32.394752284596649 9.4315139380554918 #
edge $-1 $614 -32.394752284596649 $612 32.394752284596649 $600 $691 forward 7 unknown #
vertex $-1 $463 $692 #
straight-curve $-1 -27.864413788286608 -32.394752284596649 6.4315139380554918 1 0 0 I I #
vertex $-1 $464 $693 #
straight-curve $-1 -27.864413788286608 32.394752284596649 6.4315139380554918 -1 0 0 I I #
coedge $-1 $617 $476 $478 $624 forward $467 $-1 #
coedge $-1 $472 $616 $469 $618 forward $467 $-1 #
edge $-1 $619 -51.535172167215464 $474 -35.779749746411611 $469 $694 forward 7 unknown #
vertex $-1 $618 $695 #
straight-curve $-1 -51.535172167215464 -32.394752284596649 40.962024157074694 0 0 -1 I I #
straight-curve $-1 -35.779749746411611 -62.10066174811832 12.478410729872188 0 1 0 I I #
point $-1 -35.779749746411611 -32.394752284596649 12.478410729872188 #
straight-curve $-1 -21.828730478406769 -26.026640377352066 12.478410729872188 -1 0 0 I I #
edge $-1 $479 -36.074021370766253 $619 -29.705909463521671 $616 $696 forward 7 unknown #
point $-1 -51.535172167215464 -26.026640377352066 12.478410729872188 #
point $-1 -35.779749746411611 -26.026640377352066 12.478410729872188 #
vertex $-1 $485 $697 #
point $-1 -41.657460956813537 -23.858601590864165 4.1928599039002812 #
edge $-1 $630 29.705909463521671 $633 36.074021370766253 $490 $698 forward 7 unknown #
vertex $-1 $629 $699 #
straight-curve $-1 -3.8790055022974146 -32.394752284596649 40.962024157074694 0 0 1 I I #
edge $-1 $633 -1.9993528540522574 $501 13.756069566751602 $500 $700 forward 7 unknown #
vertex $-1 $632 $701 #
straight-curve $-1 -3.8790055022974146 -32.394752284596649 4.8891902876765982 0 -0.64278759981090561 -0.7660444514056185 I I #
point $-1 -3.8790055022974146 -32.394752284596649 4.8891902876765982 #
point $-1 -19.634427923101274 -26.026640377352066 12.478410729872188 #
straight-curve $-1 0 -32.394752284596649 12.478410729872188 1 0 0 I I #
vertex $-1 $507 $702 #
point $-1 -9.7567167126993439 -23.858601590864165 4.1928599039002812 #
coedge $-1 $522 $521 $514 $641 forward $511 $-1 #
edge $-1 $642 29.705909463521671 $645 36.074021370766253 $640 $703 forward 7 unknown #
vertex $-1 $641 $704 #
straight-curve $-1 28.02173874181678 -32.394752284596649 40.962024157074694 0 0 1 I I #
edge $-1 $645 -17.949724976109355 $523 -2.1943025553054945 $522 $705 forward 7 unknown #
vertex $-1 $644 $706 #
straight-curve $-1 28.02173874181678 -32.394752284596649 4.8891902876765982 0 -0.64278759981090561 -0.7660444514056185 I I #
point $-1 28.02173874181678 -32.394752284596649 4.8891902876765982 #
point $-1 12.266316321012919 -26.026640377352066 12.478410729872188 #
straight-curve $-1 0 -32.394752284596649 12.478410729872188 1 0 0 I I #
vertex $-1 $529 $707 #
point $-1 22.144027531414849 -23.858601590864165 4.1928599039002812 #
coedge $-1 $653 $535 $659 $708 reversed $374 $-1 #
coedge $-1 $535 $652 $538 $657 forward $374 $-1 #
edge $-1 $655 -33.900097098166448 $543 -18.144674677362595 $542 $709 forward 7 unknown #
vertex $-1 $537 $710 #
straight-curve $-1 59.922482985930969 -26.90611496397667 11.430293704226049 0 0.64278759981090572 0.76604445140561861 I I #
edge $-1 $661 -12.478410729872188 $539 -4.8891902876765982 $653 $711 forward 7 unknown #
point $-1 59.922482985930969 -32.394752284596649 4.8891902876765982 #
coedge $-1 $542 $541 $652 $708 forward $533 $-1 #
point $-1 44.167060565127116 -26.026640377352066 12.478410729872188 #
vertex $-1 $708 $712 #
straight-curve $-1 0 -32.394752284596649 12.478410729872188 1 0 0 I I #
vertex $-1 $549 $713 #
point $-1 54.044771775529043 -23.858601590864165 4.1928599039002812 #
edge $-1 $666 45.96757270782556 $669 56.322185361013197 $554 $714 forward 7 unknown #
vertex $-1 $568 $715 #
straight-curve $-1 -3.2498044877747816 52.901474011980582 12.478410729872188 0 1 0 I I #
edge $-1 $669 -5.3802761814725315 $565 22.640437519967158 $564 $716 forward 7 unknown #
vertex $-1 $668 $717 #
straight-curve $-1 -3.2498044877747816 0.98417806969790433 58.789976082721395 0 -0.48480960649040278 0.87461971476443456 I I #
point $-1 -3.2498044877747816 26.655096979542712 12.478410729872188 #
point $-1 -31.270518189214471 32.394752284596649 2.123798076684551 #
straight-curve $-1 0 32.394752284596649 12.478410729872188 -1 0 0 I I #
vertex $-1 $571 $718 #
point $-1 -23.16637544892653 21.716820989335638 2.9730020399675521 #
vertex $-1 $575 $719 #
point $-1 -14.760161338494626 21.716820989335638 2.9730020399675521 #
vertex $-1 $579 $720 #
point $-1 -6.3539472280627223 21.716820989335638 2.9730020399675521 #
straight-curve $-1 -59.922482985930969 32.394752284596649 0 0 0 -1 I I #
point $-1 -59.922482985930969 -32.394752284596649 -12.478410729872188 #
straight-curve $-1 -59.922482985930969 0 -12.478410729872188 0 1 0 I I #
point $-1 -59.922482985930969 32.394752284596649 -12.478410729872188 #
coedge $-1 $602 $600 $601 $686 reversed $447 $-1 #
coedge $-1 $600 $602 $604 $688 forward $447 $-1 #
edge $-1 $607 -9.4315139380554918 $612 -6.4315139380554918 $684 $721 forward 7 unknown #
straight-curve $-1 -59.922482985930969 0 9.4315139380554918 0 1 0 I I #
edge $-1 $605 -9.4315139380554918 $614 -6.4315139380554918 $604 $722 forward 7 unknown #
point $-1 -59.922482985930969 32.394752284596649 9.4315139380554918 #
point $-1 -59.922482985930969 -32.394752284596649 9.4315139380554918 #
straight-curve $-1 -59.922482985930969 0 6.4315139380554918 0 -1 0 I I #
point $-1 -59.922482985930969 -32.394752284596649 6.4315139380554918 #
point $-1 -59.922482985930969 32.394752284596649 6.4315139380554918 #
straight-curve $-1 0 -32.394752284596649 12.478410729872188 1 0 0 I I #
point $-1 -51.535172167215464 -32.394752284596649 12.478410729872188 #
straight-curve $-1 -51.535172167215464 -62.10066174811832 12.478410729872188 0 -1 0 I I #
point $-1 -43.657460956813537 -22.326512688052926 2.9072847042784704 #
straight-curve $-1 -3.8790055022974146 -62.10066174811832 12.478410729872188 0 1 0 I I #
point $-1 -3.8790055022974146 -32.394752284596649 12.478410729872188 #
straight-curve $-1 -5.878358356349672 -26.026640377352066 12.478410729872188 -1 0 0 I I #
point $-1 -3.8790055022974146 -26.026640377352066 12.478410729872188 #
point $-1 -11.756716712699344 -22.326512688052926 2.9072847042784704 #
straight-curve $-1 28.02173874181678 -62.10066174811832 12.478410729872188 0 1 0 I I #
point $-1 28.02173874181678 -32.394752284596649 12.478410729872188 #
straight-curve $-1 10.072013765707425 -26.026640377352066 12.478410729872188 -1 0 0 I I #
point $-1 28.02173874181678 -26.026640377352066 12.478410729872188 #
point $-1 20.144027531414849 -22.326512688052926 2.9072847042784704 #
edge $-1 $661 -32.394752284596649 $655 -26.026640377352066 $652 $723 forward 7 unknown #
straight-curve $-1 26.022385887764521 -26.026640377352066 12.478410729872188 -1 0 0 I I #
point $-1 59.922482985930969 -26.026640377352066 12.478410729872188 #
straight-curve $-1 59.922482985930969 -32.394752284596649 0 0 0 -1 I I #
point $-1 59.922482985930969 -32.394752284596649 12.478410729872188 #
point $-1 52.044771775529043 -22.326512688052926 2.9072847042784704 #
straight-curve $-1 -3.2498044877747816 32.394752284596649 58.445983437697748 0 0 -1 I I #
point $-1 -3.2498044877747816 32.394752284596649 12.478410729872188 #
straight-curve $-1 -8.6300806692473131 32.394752284596649 2.123798076684551 -1 0 0 I I #
point $-1 -3.2498044877747816 32.394752284596649 2.123798076684551 #
point $-1 -25.66637544892653 19.53027170242455 1.7609780237415453 #
point $-1 -17.260161338494626 19.53027170242455 1.7609780237415453 #
point $-1 -8.8539472280627223 19.53027170242455 1.7609780237415453 #
straight-curve $-1 -59.922482985930969 -32.394752284596649 0 0 0 -1 I I #
straight-curve $-1 -59.922482985930969 32.394752284596649 0 0 0 -1 I I #
straight-curve $-1 59.922482985930969 0 12.478410729872188 0 1 0 I I #
End-of-ACIS-data 