500 0 10 0           
7 Unknown 11 ACIS 5.0 NT 24 Fri Mar 26 17:04:57 1999 
-1 9.9999999999999995e-007 1e-010 
body $-1 $10 $-1 $11 #
body $-1 $12 $-1 $13 #
body $-1 $14 $-1 $15 #
body $-1 $16 $-1 $17 #
body $-1 $18 $-1 $19 #
body $-1 $20 $-1 $21 #
body $-1 $22 $-1 $23 #
body $-1 $24 $-1 $25 #
body $-1 $26 $-1 $27 #
body $-1 $28 $-1 $29 #
lump $-1 $-1 $30 $0 #
transform $-1 1 0 0 0 1 0 0 0 1 77.159337137974177 45.381002638496376 10.072956642049867 1 rotate no_reflect no_shear #
lump $-1 $-1 $31 $1 #
transform $-1 1 0 0 0 1 0 0 0 1 77.159337137974177 45.381002638496376 10.072956642049867 1 rotate no_reflect no_shear #
lump $-1 $-1 $32 $2 #
transform $-1 1 0 0 0 1 0 0 0 1 77.159337137974177 45.381002638496376 10.072956642049867 1 rotate no_reflect no_shear #
lump $-1 $-1 $33 $3 #
transform $-1 1 0 0 0 1 0 0 0 1 77.159337137974177 45.381002638496376 10.072956642049867 1 rotate no_reflect no_shear #
lump $-1 $-1 $34 $4 #
transform $-1 1 0 0 0 1 0 0 0 1 77.159337137974177 45.381002638496376 10.072956642049867 1 rotate no_reflect no_shear #
lump $-1 $-1 $35 $5 #
transform $-1 1 0 0 0 1 0 0 0 1 77.159337137974177 45.381002638496376 10.072956642049867 1 rotate no_reflect no_shear #
lump $-1 $-1 $36 $6 #
transform $-1 1 0 0 0 1 0 0 0 1 77.159337137974177 45.381002638496376 10.072956642049867 1 rotate no_reflect no_shear #
lump $-1 $-1 $37 $7 #
transform $-1 1 0 0 0 1 0 0 0 1 77.159337137974177 45.381002638496376 10.072956642049867 1 rotate no_reflect no_shear #
lump $-1 $-1 $38 $8 #
transform $-1 1 0 0 0 1 0 0 0 1 77.159337137974177 45.381002638496376 10.072956642049867 1 rotate no_reflect no_shear #
lump $-1 $-1 $39 $9 #
transform $-1 1 0 0 0 1 0 0 0 1 77.159337137974177 45.381002638496376 10.072956642049867 1 rotate no_reflect no_shear #
shell $-1 $-1 $-1 $40 $-1 $10 #
shell $-1 $-1 $-1 $41 $-1 $12 #
shell $-1 $-1 $-1 $42 $-1 $14 #
shell $-1 $-1 $-1 $43 $-1 $16 #
shell $-1 $-1 $-1 $44 $-1 $18 #
shell $-1 $-1 $-1 $45 $-1 $20 #
shell $-1 $-1 $-1 $46 $-1 $22 #
shell $-1 $-1 $-1 $47 $-1 $24 #
shell $-1 $-1 $-1 $48 $-1 $26 #
shell $-1 $-1 $-1 $49 $-1 $28 #
face $-1 $50 $51 $30 $-1 $52 reversed single #
face $-1 $53 $54 $31 $-1 $55 forward single #
face $-1 $56 $57 $32 $-1 $58 reversed single #
face $-1 $59 $60 $33 $-1 $61 forward single #
face $-1 $62 $63 $34 $-1 $64 reversed single #
face $-1 $65 $66 $35 $-1 $67 forward single #
face $-1 $68 $69 $36 $-1 $70 reversed single #
face $-1 $71 $72 $37 $-1 $73 forward single #
face $-1 $74 $75 $38 $-1 $76 reversed single #
face $-1 $77 $78 $39 $-1 $79 forward single #
face $-1 $80 $81 $30 $-1 $82 forward single #
loop $-1 $-1 $83 $40 #
plane-surface $-1 0 -45.381002638496376 0 0 1 0 0 0 1 forward_v I I I I #
face $-1 $84 $85 $31 $-1 $86 reversed single #
loop $-1 $-1 $87 $41 #
plane-surface $-1 0 -45.381002638496376 0 0 1 0 0 0 1 forward_v I I I I #
face $-1 $88 $89 $32 $-1 $90 reversed single #
loop $-1 $-1 $91 $42 #
plane-surface $-1 133.64389546244794 -19.572129298585899 216.94347092402512 0 -1 0 -0.86602541151947299 0 -0.49999998660252726 forward_v I I I I #
face $-1 $92 $93 $33 $-1 $94 forward single #
loop $-1 $95 $96 $43 #
cone-surface $-1 75.18112801265444 -25.735828875181149 7.6199323371742027 -0.86602541151947299 0 -0.49999998660252726 0.24999999330126363 0 -0.43301270575973649 1 I I 0 1 0.5 forward I I I I #
face $-1 $97 $98 $34 $-1 $99 reversed single #
loop $-1 $-1 $100 $44 #
plane-surface $-1 133.64389546244794 1.0978887127225452 216.94347092402512 0 -1 0 -0.86602541151947299 0 -0.49999998660252726 forward_v I I I I #
face $-1 $101 $102 $35 $-1 $103 forward single #
loop $-1 $104 $105 $45 #
cone-surface $-1 75.18112801265444 -5.0658108638727057 7.6199323371742027 -0.86602541151947299 0 -0.49999998660252726 0.24999999330126363 0 -0.43301270575973649 1 I I 0 1 0.5 forward I I I I #
face $-1 $106 $107 $36 $-1 $108 reversed single #
loop $-1 $-1 $109 $46 #
plane-surface $-1 133.64389546244794 21.767906724030986 216.94347092402512 0 -1 0 -0.86602541151947299 0 -0.49999998660252726 forward_v I I I I #
face $-1 $110 $111 $37 $-1 $112 forward single #
loop $-1 $113 $114 $47 #
cone-surface $-1 75.18112801265444 15.604207147435737 7.6199323371742027 -0.86602541151947299 0 -0.49999998660252726 0.24999999330126363 0 -0.43301270575973649 1 I I 0 1 0.5 forward I I I I #
face $-1 $115 $116 $38 $-1 $117 reversed single #
loop $-1 $-1 $118 $48 #
plane-surface $-1 133.64389546244794 42.437924735339429 216.94347092402512 0 -1 0 -0.86602541151947299 0 -0.49999998660252726 forward_v I I I I #
face $-1 $119 $120 $39 $-1 $121 forward single #
loop $-1 $122 $123 $49 #
cone-surface $-1 75.18112801265444 36.27422515874418 7.6199323371742027 -0.86602541151947299 0 -0.49999998660252726 0.24999999330126363 0 -0.43301270575973649 1 I I 0 1 0.5 forward I I I I #
face $-1 $124 $125 $30 $-1 $126 reversed single #
loop $-1 $-1 $127 $50 #
plane-surface $-1 0 0 10.072956642049867 0 0 1 1 0 0 forward_v I I I I #
coedge $-1 $128 $129 $130 $131 reversed $51 $-1 #
face $-1 $132 $133 $31 $-1 $134 reversed single #
loop $-1 $-1 $135 $53 #
plane-surface $-1 0 0 -10.072956642049867 0 0 1 1 0 0 forward_v I I I I #
coedge $-1 $136 $137 $138 $139 forward $54 $-1 #
face $-1 $140 $141 $32 $-1 $142 reversed single #
loop $-1 $-1 $143 $56 #
plane-surface $-1 2.0674802669873316e-006 -25.735828875181149 139.78413585353118 0.86602541151947299 0 0.49999998660252726 0.49999998660252726 0 -0.86602541151947299 forward_v I I I I #
coedge $-1 $144 $145 $146 $147 reversed $57 $-1 #
face $-1 $-1 $148 $33 $-1 $149 forward single #
loop $-1 $150 $151 $59 #
cone-surface $-1 74.121689290136118 -25.735828875181149 7.0082651273911196 -0.86602541151947299 0 -0.49999998660252726 0.12499999665063181 0 -0.21650635287986825 1 I I -0.70710678118654746 0.70710678118654746 0.25 forward I I I I #
loop $-1 $-1 $152 $43 #
coedge $-1 $96 $96 $153 $154 reversed $60 $-1 #
face $-1 $155 $156 $34 $-1 $157 reversed single #
loop $-1 $-1 $158 $62 #
plane-surface $-1 2.0674802669873316e-006 -5.0658108638727057 139.78413585353118 0.86602541151947299 0 0.49999998660252726 0.49999998660252726 0 -0.86602541151947299 forward_v I I I I #
coedge $-1 $159 $160 $161 $162 reversed $63 $-1 #
face $-1 $-1 $163 $35 $-1 $164 forward single #
loop $-1 $165 $166 $65 #
cone-surface $-1 74.121689290136118 -5.0658108638727057 7.0082651273911196 -0.86602541151947299 0 -0.49999998660252726 0.12499999665063181 0 -0.21650635287986825 1 I I -0.70710678118654746 0.70710678118654746 0.25 forward I I I I #
loop $-1 $-1 $167 $45 #
coedge $-1 $105 $105 $168 $169 reversed $66 $-1 #
face $-1 $170 $171 $36 $-1 $172 reversed single #
loop $-1 $-1 $173 $68 #
plane-surface $-1 2.0674802669873316e-006 15.604207147435737 139.78413585353118 0.86602541151947299 0 0.49999998660252726 0.49999998660252726 0 -0.86602541151947299 forward_v I I I I #
coedge $-1 $174 $175 $176 $177 reversed $69 $-1 #
face $-1 $-1 $178 $37 $-1 $179 forward single #
loop $-1 $180 $181 $71 #
cone-surface $-1 74.121689290136118 15.604207147435737 7.0082651273911196 -0.86602541151947299 0 -0.49999998660252726 0.12499999665063181 0 -0.21650635287986825 1 I I -0.70710678118654746 0.70710678118654746 0.25 forward I I I I #
loop $-1 $-1 $182 $47 #
coedge $-1 $114 $114 $183 $184 reversed $72 $-1 #
face $-1 $185 $186 $38 $-1 $187 reversed single #
loop $-1 $-1 $188 $74 #
plane-surface $-1 2.0674802669873316e-006 36.27422515874418 139.78413585353118 0.86602541151947299 0 0.49999998660252726 0.49999998660252726 0 -0.86602541151947299 forward_v I I I I #
coedge $-1 $189 $190 $191 $192 reversed $75 $-1 #
face $-1 $-1 $193 $39 $-1 $194 forward single #
loop $-1 $195 $196 $77 #
cone-surface $-1 74.121689290136118 36.27422515874418 7.0082651273911196 -0.86602541151947299 0 -0.49999998660252726 0.12499999665063181 0 -0.21650635287986825 1 I I -0.70710678118654746 0.70710678118654746 0.25 forward I I I I #
loop $-1 $-1 $197 $49 #
coedge $-1 $123 $123 $198 $199 reversed $78 $-1 #
face $-1 $200 $201 $30 $-1 $202 reversed single #
loop $-1 $-1 $203 $80 #
plane-surface $-1 0 0 -10.072956642049867 0 0 1 1 0 0 forward_v I I I I #
coedge $-1 $204 $205 $206 $207 forward $81 $-1 #
coedge $-1 $208 $83 $209 $210 reversed $51 $-1 #
coedge $-1 $83 $208 $211 $212 forward $51 $-1 #
coedge $-1 $213 $203 $83 $131 forward $125 $-1 #
edge $-1 $214 -77.159337137974177 $215 77.159337137974177 $83 $216 forward 7 unknown #
face $-1 $217 $218 $31 $-1 $219 reversed single #
loop $-1 $-1 $220 $84 #
plane-surface $-1 -59.811453702816173 -55.919398922059408 0 0 1 0 0 0 1 forward_v I I I I #
coedge $-1 $221 $222 $137 $223 forward $85 $-1 #
coedge $-1 $224 $87 $225 $226 reversed $54 $-1 #
coedge $-1 $87 $224 $135 $223 reversed $54 $-1 #
coedge $-1 $227 $228 $87 $139 reversed $218 $-1 #
edge $-1 $229 -10.072956642049867 $230 10.072956642049867 $138 $231 forward 7 unknown #
face $-1 $232 $233 $32 $-1 $234 forward single #
loop $-1 $-1 $235 $88 #
plane-surface $-1 133.64389546244794 -31.899528451776398 216.94347092402512 0 1 0 0.86602541151947299 0 0.49999998660252726 forward_v I I I I #
coedge $-1 $236 $237 $238 $239 reversed $89 $-1 #
coedge $-1 $145 $91 $240 $241 reversed $57 $-1 #
coedge $-1 $91 $144 $236 $242 reversed $57 $-1 #
coedge $-1 $238 $243 $91 $147 forward $233 $-1 #
edge $-1 $244 -10.337389406750205 $245 -8.0668358953876833 $146 $246 forward 7 unknown #
loop $-1 $-1 $153 $92 #
plane-surface $-1 2.0674802669873316e-006 -25.735828875181149 139.78413585353118 0.86602541151947299 0 0.49999998660252726 0.49999998660252726 0 -0.86602541151947299 forward_v I I I I #
loop $-1 $-1 $247 $59 #
coedge $-1 $151 $151 $152 $248 reversed $93 $-1 #
coedge $-1 $152 $152 $151 $248 forward $95 $-1 #
coedge $-1 $153 $153 $96 $154 forward $148 $-1 #
edge $-1 $249 0 $249 6.2831853071796004 $153 $250 forward 7 unknown #
face $-1 $251 $252 $34 $-1 $253 reversed single #
loop $-1 $-1 $254 $97 #
plane-surface $-1 133.64389546244794 -11.229510440467957 216.94347092402512 0 1 0 0.86602541151947299 0 0.49999998660252726 forward_v I I I I #
coedge $-1 $255 $256 $257 $258 reversed $98 $-1 #
coedge $-1 $160 $100 $259 $260 reversed $63 $-1 #
coedge $-1 $100 $159 $255 $261 reversed $63 $-1 #
coedge $-1 $257 $262 $100 $162 forward $263 $-1 #
edge $-1 $264 -10.337389406750205 $265 -8.0668358953876833 $161 $266 forward 7 unknown #
loop $-1 $-1 $168 $101 #
plane-surface $-1 2.0674802669873316e-006 -5.0658108638727057 139.78413585353118 0.86602541151947299 0 0.49999998660252726 0.49999998660252726 0 -0.86602541151947299 forward_v I I I I #
loop $-1 $-1 $267 $65 #
coedge $-1 $166 $166 $167 $268 reversed $102 $-1 #
coedge $-1 $167 $167 $166 $268 forward $104 $-1 #
coedge $-1 $168 $168 $105 $169 forward $163 $-1 #
edge $-1 $269 0 $269 6.2831853071796004 $168 $270 forward 7 unknown #
face $-1 $271 $272 $36 $-1 $273 reversed single #
loop $-1 $-1 $274 $106 #
plane-surface $-1 133.64389546244794 9.4405075708404862 216.94347092402512 0 1 0 0.86602541151947299 0 0.49999998660252726 forward_v I I I I #
coedge $-1 $275 $276 $277 $278 reversed $107 $-1 #
coedge $-1 $175 $109 $279 $280 reversed $69 $-1 #
coedge $-1 $109 $174 $275 $281 reversed $69 $-1 #
coedge $-1 $277 $282 $109 $177 forward $283 $-1 #
edge $-1 $284 -10.337389406750205 $285 -8.0668358953876833 $176 $286 forward 7 unknown #
loop $-1 $-1 $183 $110 #
plane-surface $-1 2.0674802669873316e-006 15.604207147435737 139.78413585353118 0.86602541151947299 0 0.49999998660252726 0.49999998660252726 0 -0.86602541151947299 forward_v I I I I #
loop $-1 $-1 $287 $71 #
coedge $-1 $181 $181 $182 $288 reversed $111 $-1 #
coedge $-1 $182 $182 $181 $288 forward $113 $-1 #
coedge $-1 $183 $183 $114 $184 forward $178 $-1 #
edge $-1 $289 0 $289 6.2831853071796004 $183 $290 forward 7 unknown #
face $-1 $291 $292 $38 $-1 $293 reversed single #
loop $-1 $-1 $294 $115 #
plane-surface $-1 133.64389546244794 30.110525582148931 216.94347092402512 0 1 0 0.86602541151947299 0 0.49999998660252726 forward_v I I I I #
coedge $-1 $295 $296 $297 $298 reversed $116 $-1 #
coedge $-1 $190 $118 $299 $300 reversed $75 $-1 #
coedge $-1 $118 $189 $295 $301 reversed $75 $-1 #
coedge $-1 $297 $302 $118 $192 forward $303 $-1 #
edge $-1 $304 -10.337389406750205 $305 -8.0668358953876833 $191 $306 forward 7 unknown #
loop $-1 $-1 $198 $119 #
plane-surface $-1 2.0674802669873316e-006 36.27422515874418 139.78413585353118 0.86602541151947299 0 0.49999998660252726 0.49999998660252726 0 -0.86602541151947299 forward_v I I I I #
loop $-1 $-1 $307 $77 #
coedge $-1 $196 $196 $197 $308 reversed $120 $-1 #
coedge $-1 $197 $197 $196 $308 forward $122 $-1 #
coedge $-1 $198 $198 $123 $199 forward $193 $-1 #
edge $-1 $309 0 $309 6.2831853071796004 $198 $310 forward 7 unknown #
face $-1 $311 $312 $30 $-1 $313 reversed single #
loop $-1 $-1 $314 $124 #
plane-surface $-1 -77.159337137974177 0 0 1 0 0 0 0 -1 forward_v I I I I #
coedge $-1 $130 $315 $316 $317 forward $125 $-1 #
coedge $-1 $318 $127 $319 $320 forward $81 $-1 #
coedge $-1 $127 $318 $208 $321 forward $81 $-1 #
coedge $-1 $209 $322 $127 $207 reversed $323 $-1 #
edge $-1 $324 -45.381002638496376 $325 45.381002638496376 $206 $326 forward 7 unknown #
coedge $-1 $129 $128 $205 $321 reversed $51 $-1 #
coedge $-1 $316 $206 $128 $210 forward $323 $-1 #
edge $-1 $324 -10.072956642049867 $214 10.072956642049867 $209 $327 forward 7 unknown #
coedge $-1 $328 $329 $129 $212 reversed $201 $-1 #
edge $-1 $330 -10.072956642049867 $215 10.072956642049867 $211 $331 forward 7 unknown #
coedge $-1 $315 $130 $329 $332 forward $125 $-1 #
vertex $-1 $210 $333 #
vertex $-1 $332 $334 #
straight-curve $-1 0 -45.381002638496376 -10.072956642049867 -1 0 0 I I #
face $-1 $335 $336 $31 $-1 $337 reversed single #
loop $-1 $-1 $138 $132 #
plane-surface $-1 -62.609483551757904 -50.650200780277892 0 1 0 0 0 0 -1 forward_v I I I I #
coedge $-1 $338 $339 $340 $341 forward $133 $-1 #
coedge $-1 $342 $135 $343 $344 forward $85 $-1 #
coedge $-1 $135 $342 $227 $345 forward $85 $-1 #
edge $-1 $229 -62.609483551757904 $346 -57.013423853874443 $135 $347 forward 7 unknown #
coedge $-1 $137 $136 $348 $349 forward $54 $-1 #
coedge $-1 $350 $351 $136 $226 forward $352 $-1 #
edge $-1 $353 57.013423853874443 $230 62.609483551757904 $225 $354 forward 7 unknown #
coedge $-1 $340 $138 $222 $345 reversed $218 $-1 #
coedge $-1 $138 $340 $350 $355 reversed $218 $-1 #
vertex $-1 $223 $356 #
vertex $-1 $355 $357 #
straight-curve $-1 -62.609483551757904 -45.381002638496376 0 0 0 1 I I #
face $-1 $-1 $358 $32 $-1 $359 reversed single #
loop $-1 $-1 $146 $140 #
plane-surface $-1 0 0 10.072956642049867 0 0 1 1 0 0 forward_v I I I I #
coedge $-1 $360 $361 $362 $363 reversed $141 $-1 #
coedge $-1 $364 $143 $145 $242 forward $89 $-1 #
coedge $-1 $143 $364 $360 $365 forward $89 $-1 #
coedge $-1 $362 $146 $143 $239 forward $233 $-1 #
edge $-1 $245 6.7042148609953252 $366 19.031614014185823 $238 $367 forward 7 unknown #
coedge $-1 $368 $369 $144 $241 forward $358 $-1 #
edge $-1 $370 -102.331493003449 $244 -98.3987788199627 $240 $371 forward 7 unknown #
edge $-1 $245 149.77756713154452 $370 154.31867427594827 $145 $372 forward 7 unknown #
coedge $-1 $146 $362 $368 $373 forward $233 $-1 #
vertex $-1 $147 $374 #
vertex $-1 $147 $375 #
straight-curve $-1 66.821947731223972 -19.572129298585899 10.07295664204986 -1 0 0 I I #
coedge $-1 $247 $247 $-1 $376 reversed $150 $-1 #
edge $-1 $377 0 $377 6.2831853071796004 $151 $378 forward 7 unknown #
vertex $-1 $154 $379 #
ellipse-curve $-1 76.02406038229293 -25.735828875181149 8.1065995503066723 0.86602541151947299 0 0.49999998660252726 0.24999999330126363 0 -0.43301270575973649 1 I I #
face $-1 $-1 $263 $34 $-1 $380 forward single #
loop $-1 $-1 $381 $155 #
plane-surface $-1 77.159337137974177 0 0 -1 0 0 0 0 1 forward_v I I I I #
coedge $-1 $382 $383 $384 $385 reversed $156 $-1 #
coedge $-1 $386 $158 $160 $261 forward $98 $-1 #
coedge $-1 $158 $386 $382 $387 forward $98 $-1 #
coedge $-1 $384 $161 $158 $258 forward $263 $-1 #
edge $-1 $265 -3.630794144658898 $388 8.6966050085316038 $257 $389 forward 7 unknown #
coedge $-1 $390 $391 $159 $260 forward $252 $-1 #
edge $-1 $392 -102.331493003449 $264 -98.3987788199627 $259 $393 forward 7 unknown #
edge $-1 $265 149.77756713154452 $392 154.31867427594827 $160 $394 forward 7 unknown #
coedge $-1 $161 $384 $390 $395 forward $263 $-1 #
loop $-1 $-1 $384 $251 #
vertex $-1 $260 $396 #
vertex $-1 $162 $397 #
straight-curve $-1 66.821947731223972 1.0978887127225452 10.07295664204986 -1 0 0 I I #
coedge $-1 $267 $267 $-1 $398 reversed $165 $-1 #
edge $-1 $399 0 $399 6.2831853071796004 $166 $400 forward 7 unknown #
vertex $-1 $169 $401 #
ellipse-curve $-1 76.02406038229293 -5.0658108638727057 8.1065995503066723 0.86602541151947299 0 0.49999998660252726 0.24999999330126363 0 -0.43301270575973649 1 I I #
face $-1 $-1 $283 $36 $-1 $402 forward single #
loop $-1 $-1 $403 $170 #
plane-surface $-1 77.159337137974177 0 0 -1 0 0 0 0 1 forward_v I I I I #
coedge $-1 $404 $405 $406 $407 reversed $171 $-1 #
coedge $-1 $408 $173 $175 $281 forward $107 $-1 #
coedge $-1 $173 $408 $404 $409 forward $107 $-1 #
coedge $-1 $406 $176 $173 $278 forward $283 $-1 #
edge $-1 $285 -13.965803150313118 $410 -1.6384039971226176 $277 $411 forward 7 unknown #
coedge $-1 $412 $413 $174 $280 forward $272 $-1 #
edge $-1 $414 -102.331493003449 $284 -98.3987788199627 $279 $415 forward 7 unknown #
edge $-1 $285 149.77756713154452 $414 154.31867427594827 $175 $416 forward 7 unknown #
coedge $-1 $176 $406 $412 $417 forward $283 $-1 #
loop $-1 $-1 $406 $271 #
vertex $-1 $280 $418 #
vertex $-1 $177 $419 #
straight-curve $-1 66.821947731223972 21.767906724030986 10.07295664204986 -1 0 0 I I #
coedge $-1 $287 $287 $-1 $420 reversed $180 $-1 #
edge $-1 $421 0 $421 6.2831853071796004 $181 $422 forward 7 unknown #
vertex $-1 $184 $423 #
ellipse-curve $-1 76.02406038229293 15.604207147435737 8.1065995503066723 0.86602541151947299 0 0.49999998660252726 0.24999999330126363 0 -0.43301270575973649 1 I I #
face $-1 $-1 $303 $38 $-1 $424 forward single #
loop $-1 $-1 $425 $185 #
plane-surface $-1 77.159337137974177 0 0 -1 0 0 0 0 1 forward_v I I I I #
coedge $-1 $426 $427 $428 $429 reversed $186 $-1 #
coedge $-1 $430 $188 $190 $301 forward $116 $-1 #
coedge $-1 $188 $430 $426 $431 forward $116 $-1 #
coedge $-1 $428 $191 $188 $298 forward $303 $-1 #
edge $-1 $305 -24.300812155967339 $432 -11.973413002776841 $297 $433 forward 7 unknown #
coedge $-1 $434 $435 $189 $300 forward $292 $-1 #
edge $-1 $436 -102.331493003449 $304 -98.3987788199627 $299 $437 forward 7 unknown #
edge $-1 $305 149.77756713154452 $436 154.31867427594827 $190 $438 forward 7 unknown #
coedge $-1 $191 $428 $434 $439 forward $303 $-1 #
loop $-1 $-1 $428 $291 #
vertex $-1 $300 $440 #
vertex $-1 $192 $441 #
straight-curve $-1 66.821947731223972 42.437924735339429 10.07295664204986 -1 0 0 I I #
coedge $-1 $307 $307 $-1 $442 reversed $195 $-1 #
edge $-1 $443 0 $443 6.2831853071796004 $196 $444 forward 7 unknown #
vertex $-1 $199 $445 #
ellipse-curve $-1 76.02406038229293 36.27422515874418 8.1065995503066723 0.86602541151947299 0 0.49999998660252726 0.24999999330126363 0 -0.43301270575973649 1 I I #
face $-1 $-1 $323 $30 $-1 $446 reversed single #
loop $-1 $-1 $447 $200 #
plane-surface $-1 0 45.381002638496376 0 0 -1 0 0 0 -1 forward_v I I I I #
coedge $-1 $329 $328 $448 $449 forward $201 $-1 #
coedge $-1 $203 $213 $450 $451 forward $125 $-1 #
coedge $-1 $322 $209 $203 $317 reversed $323 $-1 #
edge $-1 $452 -45.381002638496376 $214 45.381002638496376 $316 $453 forward 7 unknown #
coedge $-1 $205 $204 $328 $454 forward $81 $-1 #
coedge $-1 $447 $448 $204 $320 reversed $312 $-1 #
edge $-1 $325 -77.159337137974177 $455 77.159337137974177 $319 $456 forward 7 unknown #
edge $-1 $330 -77.159337137974177 $324 77.159337137974177 $208 $457 forward 7 unknown #
coedge $-1 $206 $316 $447 $458 reversed $323 $-1 #
loop $-1 $-1 $209 $311 #
vertex $-1 $207 $459 #
vertex $-1 $207 $460 #
straight-curve $-1 77.159337137974177 0 10.072956642049867 0 1 0 I I #
straight-curve $-1 77.159337137974177 -45.381002638496376 0 0 0 -1 I I #
coedge $-1 $314 $211 $318 $454 reversed $201 $-1 #
coedge $-1 $211 $314 $213 $332 reversed $201 $-1 #
vertex $-1 $454 $461 #
straight-curve $-1 -77.159337137974177 -45.381002638496376 0 0 0 -1 I I #
edge $-1 $215 -45.381002638496376 $462 45.381002638496376 $329 $463 forward 7 unknown #
point $-1 77.159337137974177 -45.381002638496376 -10.072956642049867 #
point $-1 -77.159337137974177 -45.381002638496376 -10.072956642049867 #
face $-1 $-1 $352 $31 $-1 $464 forward single #
loop $-1 $-1 $465 $217 #
plane-surface $-1 -57.013423853874443 -50.650200780277892 0 -1 0 0 0 0 1 forward_v I I I I #
coedge $-1 $466 $220 $342 $467 reversed $133 $-1 #
coedge $-1 $220 $466 $468 $469 reversed $133 $-1 #
coedge $-1 $228 $227 $220 $341 reversed $218 $-1 #
edge $-1 $470 -10.072956642049867 $471 10.072956642049867 $340 $472 forward 7 unknown #
coedge $-1 $222 $221 $338 $467 forward $85 $-1 #
coedge $-1 $348 $465 $221 $344 reversed $336 $-1 #
edge $-1 $346 -5.2691981417815157 $473 5.2691981417815157 $343 $474 forward 7 unknown #
edge $-1 $471 -5.2691981417815157 $229 5.2691981417815157 $227 $475 forward 7 unknown #
vertex $-1 $344 $476 #
straight-curve $-1 0 -45.381002638496376 -10.072956642049867 1 0 0 I I #
coedge $-1 $477 $343 $224 $349 reversed $336 $-1 #
edge $-1 $353 -10.072956642049867 $346 10.072956642049867 $348 $478 forward 7 unknown #
coedge $-1 $468 $225 $228 $355 forward $352 $-1 #
coedge $-1 $225 $468 $477 $479 forward $352 $-1 #
loop $-1 $-1 $225 $335 #
vertex $-1 $226 $480 #
straight-curve $-1 0 -45.381002638496376 10.072956642049867 -1 0 0 I I #
edge $-1 $230 -5.2691981417815157 $470 5.2691981417815157 $228 $481 forward 7 unknown #
point $-1 -62.609483551757904 -45.381002638496376 -10.072956642049867 #
point $-1 -62.609483551757904 -45.381002638496376 10.072956642049867 #
loop $-1 $-1 $240 $232 #
plane-surface $-1 77.159337137974177 0 0 -1 0 0 0 0 1 forward_v I I I I #
coedge $-1 $361 $235 $237 $365 reversed $141 $-1 #
coedge $-1 $235 $360 $482 $483 reversed $141 $-1 #
coedge $-1 $243 $238 $235 $363 forward $233 $-1 #
edge $-1 $366 8.0668358953876833 $484 10.337389406750205 $362 $485 forward 7 unknown #
coedge $-1 $237 $236 $369 $486 reversed $89 $-1 #
edge $-1 $487 -154.31867427594827 $366 -149.77756713154452 $360 $488 forward 7 unknown #
vertex $-1 $239 $489 #
straight-curve $-1 74.888783626611641 -12.867914437590574 10.07295664204986 0 -1 0 I I #
coedge $-1 $482 $240 $243 $373 reversed $358 $-1 #
coedge $-1 $240 $482 $364 $486 forward $358 $-1 #
vertex $-1 $241 $490 #
straight-curve $-1 77.159337137974177 -19.572129298585899 108.47173546201256 0 0 1 I I #
straight-curve $-1 2.0674802669873316e-006 -19.572129298585899 139.78413585353118 0.49999998660252726 0 -0.86602541151947299 I I #
edge $-1 $484 -31.899528451776398 $244 -19.572129298585899 $368 $491 forward 7 unknown #
point $-1 77.159337137974177 -19.572129298585899 10.072956642049867 #
point $-1 74.888783626611655 -19.572129298585899 10.07295664204986 #
edge $-1 $492 1 $492 0 $247 $-1 forward 7 unknown #
vertex $-1 $248 $493 #
ellipse-curve $-1 74.338195643015979 -25.735828875181149 7.1332651240417517 0.86602541151947299 0 0.49999998660252726 0.24999999330126363 0 -0.43301270575973649 1 I I #
point $-1 76.274060375594175 -25.735828875181149 7.673586844546918 #
plane-surface $-1 0 0 10.072956642049867 0 0 1 1 0 0 forward_v I I I I #
coedge $-1 $391 $390 $383 $494 forward $252 $-1 #
coedge $-1 $383 $254 $256 $387 reversed $156 $-1 #
coedge $-1 $254 $382 $381 $494 reversed $156 $-1 #
coedge $-1 $262 $257 $254 $385 forward $263 $-1 #
edge $-1 $388 8.0668358953876833 $495 10.337389406750205 $384 $496 forward 7 unknown #
coedge $-1 $256 $255 $391 $497 reversed $98 $-1 #
edge $-1 $498 -154.31867427594827 $388 -149.77756713154452 $382 $499 forward 7 unknown #
vertex $-1 $258 $500 #
straight-curve $-1 74.888783626611641 -2.5329054319363529 10.07295664204986 0 -1 0 I I #
coedge $-1 $381 $259 $262 $395 reversed $252 $-1 #
coedge $-1 $259 $381 $386 $497 forward $252 $-1 #
vertex $-1 $260 $501 #
straight-curve $-1 77.159337137974177 1.0978887127225452 108.47173546201256 0 0 1 I I #
straight-curve $-1 2.0674802669873316e-006 1.0978887127225452 139.78413585353118 0.49999998660252726 0 -0.86602541151947299 I I #
edge $-1 $495 -11.229510440467957 $264 1.0978887127225452 $390 $502 forward 7 unknown #
point $-1 77.159337137974177 1.0978887127225452 10.072956642049867 #
point $-1 74.888783626611655 1.0978887127225452 10.07295664204986 #
edge $-1 $503 1 $503 0 $267 $-1 forward 7 unknown #
vertex $-1 $268 $504 #
ellipse-curve $-1 74.338195643015979 -5.0658108638727057 7.1332651240417517 0.86602541151947299 0 0.49999998660252726 0.24999999330126363 0 -0.43301270575973649 1 I I #
point $-1 76.274060375594175 -5.0658108638727057 7.673586844546918 #
plane-surface $-1 0 0 10.072956642049867 0 0 1 1 0 0 forward_v I I I I #
coedge $-1 $413 $412 $405 $505 forward $272 $-1 #
coedge $-1 $405 $274 $276 $409 reversed $171 $-1 #
coedge $-1 $274 $404 $403 $505 reversed $171 $-1 #
coedge $-1 $282 $277 $274 $407 forward $283 $-1 #
edge $-1 $410 8.0668358953876833 $506 10.337389406750205 $406 $507 forward 7 unknown #
coedge $-1 $276 $275 $413 $508 reversed $107 $-1 #
edge $-1 $509 -154.31867427594827 $410 -149.77756713154452 $404 $510 forward 7 unknown #
vertex $-1 $278 $511 #
straight-curve $-1 74.888783626611641 7.8021035737178686 10.07295664204986 0 -1 0 I I #
coedge $-1 $403 $279 $282 $417 reversed $272 $-1 #
coedge $-1 $279 $403 $408 $508 forward $272 $-1 #
vertex $-1 $280 $512 #
straight-curve $-1 77.159337137974177 21.767906724030986 108.47173546201256 0 0 1 I I #
straight-curve $-1 2.0674802669873316e-006 21.767906724030986 139.78413585353118 0.49999998660252726 0 -0.86602541151947299 I I #
edge $-1 $506 9.4405075708404862 $284 21.767906724030986 $412 $513 forward 7 unknown #
point $-1 77.159337137974177 21.767906724030986 10.072956642049867 #
point $-1 74.888783626611655 21.767906724030986 10.07295664204986 #
edge $-1 $514 1 $514 0 $287 $-1 forward 7 unknown #
vertex $-1 $288 $515 #
ellipse-curve $-1 74.338195643015979 15.604207147435737 7.1332651240417517 0.86602541151947299 0 0.49999998660252726 0.24999999330126363 0 -0.43301270575973649 1 I I #
point $-1 76.274060375594175 15.604207147435737 7.673586844546918 #
plane-surface $-1 0 0 10.072956642049867 0 0 1 1 0 0 forward_v I I I I #
coedge $-1 $435 $434 $427 $516 forward $292 $-1 #
coedge $-1 $427 $294 $296 $431 reversed $186 $-1 #
coedge $-1 $294 $426 $425 $516 reversed $186 $-1 #
coedge $-1 $302 $297 $294 $429 forward $303 $-1 #
edge $-1 $432 8.0668358953876833 $517 10.337389406750205 $428 $518 forward 7 unknown #
coedge $-1 $296 $295 $435 $519 reversed $116 $-1 #
edge $-1 $520 -154.31867427594827 $432 -149.77756713154452 $426 $521 forward 7 unknown #
vertex $-1 $298 $522 #
straight-curve $-1 74.888783626611641 18.13711257937209 10.07295664204986 0 -1 0 I I #
coedge $-1 $425 $299 $302 $439 reversed $292 $-1 #
coedge $-1 $299 $425 $430 $519 forward $292 $-1 #
vertex $-1 $300 $523 #
straight-curve $-1 77.159337137974177 42.437924735339429 108.47173546201256 0 0 1 I I #
straight-curve $-1 2.0674802669873316e-006 42.437924735339429 139.78413585353118 0.49999998660252726 0 -0.86602541151947299 I I #
edge $-1 $517 30.110525582148931 $304 42.437924735339429 $434 $524 forward 7 unknown #
point $-1 77.159337137974177 42.437924735339429 10.072956642049867 #
point $-1 74.888783626611655 42.437924735339429 10.07295664204986 #
edge $-1 $525 1 $525 0 $307 $-1 forward 7 unknown #
vertex $-1 $308 $526 #
ellipse-curve $-1 74.338195643015979 36.27422515874418 7.1332651240417517 0.86602541151947299 0 0.49999998660252726 0.24999999330126363 0 -0.43301270575973649 1 I I #
point $-1 76.274060375594175 36.27422515874418 7.673586844546918 #
plane-surface $-1 77.159337137974177 0 0 -1 0 0 0 0 1 forward_v I I I I #
coedge $-1 $450 $319 $322 $458 forward $312 $-1 #
coedge $-1 $319 $450 $314 $449 reversed $312 $-1 #
edge $-1 $455 -10.072956642049867 $462 10.072956642049867 $448 $527 forward 7 unknown #
coedge $-1 $448 $447 $315 $451 reversed $312 $-1 #
edge $-1 $462 -77.159337137974177 $452 77.159337137974177 $450 $528 forward 7 unknown #
vertex $-1 $317 $529 #
straight-curve $-1 77.159337137974177 0 -10.072956642049867 0 -1 0 I I #
edge $-1 $455 -45.381002638496376 $330 45.381002638496376 $328 $530 forward 7 unknown #
vertex $-1 $320 $531 #
straight-curve $-1 0 45.381002638496376 10.072956642049867 -1 0 0 I I #
straight-curve $-1 0 -45.381002638496376 10.072956642049867 1 0 0 I I #
edge $-1 $325 -10.072956642049867 $452 10.072956642049867 $322 $532 forward 7 unknown #
point $-1 77.159337137974177 -45.381002638496376 10.072956642049867 #
point $-1 77.159337137974177 45.381002638496376 10.072956642049867 #
point $-1 -77.159337137974177 -45.381002638496376 10.072956642049867 #
vertex $-1 $451 $533 #
straight-curve $-1 -77.159337137974177 0 -10.072956642049867 0 1 0 I I #
plane-surface $-1 0 0 10.072956642049867 0 0 1 1 0 0 forward_v I I I I #
coedge $-1 $343 $477 $466 $534 forward $336 $-1 #
coedge $-1 $339 $338 $465 $534 reversed $133 $-1 #
edge $-1 $473 -2.7980298489417308 $471 2.7980298489417308 $338 $535 forward 7 unknown #
coedge $-1 $351 $350 $339 $469 forward $352 $-1 #
edge $-1 $470 -2.7980298489417308 $536 2.7980298489417308 $339 $537 forward 7 unknown #
vertex $-1 $355 $538 #
vertex $-1 $345 $539 #
straight-curve $-1 -62.609483551757904 -55.919398922059408 0 0 0 -1 I I #
vertex $-1 $534 $540 #
straight-curve $-1 -57.013423853874443 -50.650200780277892 -10.072956642049867 0 -1 0 I I #
straight-curve $-1 -62.609483551757904 -50.650200780277892 -10.072956642049867 0 1 0 I I #
point $-1 -57.013423853874443 -45.381002638496376 -10.072956642049867 #
coedge $-1 $465 $348 $351 $479 reversed $336 $-1 #
straight-curve $-1 -57.013423853874443 -45.381002638496376 0 0 0 -1 I I #
edge $-1 $536 -5.2691981417815157 $353 5.2691981417815157 $477 $541 forward 7 unknown #
point $-1 -57.013423853874443 -45.381002638496376 10.072956642049867 #
straight-curve $-1 -62.609483551757904 -50.650200780277892 10.072956642049867 0 -1 0 I I #
coedge $-1 $369 $368 $361 $483 forward $358 $-1 #
edge $-1 $484 98.3987788199627 $487 102.331493003449 $482 $542 forward 7 unknown #
vertex $-1 $373 $543 #
straight-curve $-1 66.821947731223972 -31.899528451776398 10.07295664204986 1 0 0 I I #
edge $-1 $487 -19.031614014185823 $370 -6.7042148609953252 $369 $544 forward 7 unknown #
vertex $-1 $486 $545 #
straight-curve $-1 2.0674802669873316e-006 -31.899528451776398 139.78413585353118 -0.49999998660252726 0 0.86602541151947299 I I #
point $-1 74.888783626611655 -31.899528451776398 10.07295664204986 #
point $-1 77.159337137974177 -19.572129298585899 6.1402424585635629 #
straight-curve $-1 77.159337137974177 0 10.072956642049867 0 1 0 I I #
vertex $-1 $376 $546 #
point $-1 74.588195636317252 -25.735828875181149 6.7002524182820151 #
edge $-1 $495 98.3987788199627 $498 102.331493003449 $381 $547 forward 7 unknown #
vertex $-1 $395 $548 #
straight-curve $-1 66.821947731223972 -11.229510440467957 10.07295664204986 1 0 0 I I #
edge $-1 $498 -8.6966050085316038 $392 3.630794144658898 $391 $549 forward 7 unknown #
vertex $-1 $497 $550 #
straight-curve $-1 2.0674802669873316e-006 -11.229510440467957 139.78413585353118 -0.49999998660252726 0 0.86602541151947299 I I #
point $-1 74.888783626611655 -11.229510440467957 10.07295664204986 #
point $-1 77.159337137974177 1.0978887127225452 6.1402424585635629 #
straight-curve $-1 77.159337137974177 0 10.072956642049867 0 1 0 I I #
vertex $-1 $398 $551 #
point $-1 74.588195636317252 -5.0658108638727057 6.7002524182820151 #
edge $-1 $506 98.3987788199627 $509 102.331493003449 $403 $552 forward 7 unknown #
vertex $-1 $417 $553 #
straight-curve $-1 66.821947731223972 9.4405075708404862 10.07295664204986 1 0 0 I I #
edge $-1 $509 1.6384039971226176 $414 13.965803150313118 $413 $554 forward 7 unknown #
vertex $-1 $508 $555 #
straight-curve $-1 2.0674802669873316e-006 9.4405075708404862 139.78413585353118 -0.49999998660252726 0 0.86602541151947299 I I #
point $-1 74.888783626611655 9.4405075708404862 10.07295664204986 #
point $-1 77.159337137974177 21.767906724030986 6.1402424585635629 #
straight-curve $-1 77.159337137974177 0 10.072956642049867 0 1 0 I I #
vertex $-1 $420 $556 #
point $-1 74.588195636317252 15.604207147435737 6.7002524182820151 #
edge $-1 $517 98.3987788199627 $520 102.331493003449 $425 $557 forward 7 unknown #
vertex $-1 $439 $558 #
straight-curve $-1 66.821947731223972 30.110525582148931 10.07295664204986 1 0 0 I I #
edge $-1 $520 11.973413002776841 $436 24.300812155967339 $435 $559 forward 7 unknown #
vertex $-1 $519 $560 #
straight-curve $-1 2.0674802669873316e-006 30.110525582148931 139.78413585353118 -0.49999998660252726 0 0.86602541151947299 I I #
point $-1 74.888783626611655 30.110525582148931 10.07295664204986 #
point $-1 77.159337137974177 42.437924735339429 6.1402424585635629 #
straight-curve $-1 77.159337137974177 0 10.072956642049867 0 1 0 I I #
vertex $-1 $442 $561 #
point $-1 74.588195636317252 36.27422515874418 6.7002524182820151 #
straight-curve $-1 -77.159337137974177 45.381002638496376 0 0 0 -1 I I #
straight-curve $-1 0 45.381002638496376 -10.072956642049867 1 0 0 I I #
point $-1 77.159337137974177 45.381002638496376 -10.072956642049867 #
straight-curve $-1 -77.159337137974177 0 10.072956642049867 0 -1 0 I I #
point $-1 -77.159337137974177 45.381002638496376 10.072956642049867 #
straight-curve $-1 77.159337137974177 45.381002638496376 0 0 0 -1 I I #
point $-1 -77.159337137974177 45.381002638496376 -10.072956642049867 #
edge $-1 $536 -10.072956642049867 $473 10.072956642049867 $465 $562 forward 7 unknown #
straight-curve $-1 -59.811453702816173 -55.919398922059408 -10.072956642049867 -1 0 0 I I #
vertex $-1 $479 $563 #
straight-curve $-1 -59.811453702816173 -55.919398922059408 10.072956642049867 1 0 0 I I #
point $-1 -62.609483551757904 -55.919398922059408 10.072956642049867 #
point $-1 -62.609483551757904 -55.919398922059408 -10.072956642049867 #
point $-1 -57.013423853874443 -55.919398922059408 -10.072956642049867 #
straight-curve $-1 -57.013423853874443 -50.650200780277892 10.072956642049867 0 1 0 I I #
straight-curve $-1 77.159337137974177 -31.899528451776398 108.47173546201256 0 0 -1 I I #
point $-1 77.159337137974177 -31.899528451776398 10.072956642049867 #
straight-curve $-1 77.159337137974177 -12.867914437590574 6.1402424585635487 0 1 0 I I #
point $-1 77.159337137974177 -31.899528451776398 6.1402424585635629 #
point $-1 73.905182937256257 -25.735828875181149 6.8832651307404875 #
straight-curve $-1 77.159337137974177 -11.229510440467957 108.47173546201256 0 0 -1 I I #
point $-1 77.159337137974177 -11.229510440467957 10.072956642049867 #
straight-curve $-1 77.159337137974177 -2.5329054319363529 6.1402424585635487 0 1 0 I I #
point $-1 77.159337137974177 -11.229510440467957 6.1402424585635629 #
point $-1 73.905182937256257 -5.0658108638727057 6.8832651307404875 #
straight-curve $-1 77.159337137974177 9.4405075708404862 108.47173546201256 0 0 -1 I I #
point $-1 77.159337137974177 9.4405075708404862 10.072956642049867 #
straight-curve $-1 77.159337137974177 7.8021035737178686 6.1402424585635487 0 1 0 I I #
point $-1 77.159337137974177 9.4405075708404862 6.1402424585635629 #
point $-1 73.905182937256257 15.604207147435737 6.8832651307404875 #
straight-curve $-1 77.159337137974177 30.110525582148931 108.47173546201256 0 0 -1 I I #
point $-1 77.159337137974177 30.110525582148931 10.072956642049867 #
straight-curve $-1 77.159337137974177 18.13711257937209 6.1402424585635487 0 1 0 I I #
point $-1 77.159337137974177 30.110525582148931 6.1402424585635629 #
point $-1 73.905182937256257 36.27422515874418 6.8832651307404875 #
straight-curve $-1 -57.013423853874443 -55.919398922059408 0 0 0 -1 I I #
point $-1 -57.013423853874443 -55.919398922059408 10.072956642049867 #
End-of-ACIS-data 