500 0 16 0           
7 Unknown 11 ACIS 5.0 NT 24 Fri Mar 26 19:29:10 1999 
-1 9.9999999999999995e-007 1e-010 
body $-1 $16 $-1 $17 #
body $-1 $18 $-1 $19 #
body $-1 $20 $-1 $21 #
body $-1 $22 $-1 $23 #
body $-1 $24 $-1 $25 #
body $-1 $26 $-1 $27 #
body $-1 $28 $-1 $29 #
body $-1 $30 $-1 $31 #
body $-1 $32 $-1 $33 #
body $-1 $34 $-1 $35 #
body $-1 $36 $-1 $37 #
body $-1 $38 $-1 $39 #
body $-1 $40 $-1 $41 #
body $-1 $42 $-1 $43 #
body $-1 $44 $-1 $45 #
body $-1 $46 $-1 $47 #
lump $-1 $-1 $48 $0 #
transform $-1 1 0 0 0 1 0 0 0 1 75.739616077150799 43.256897159624252 10.452969066427222 1 rotate no_reflect no_shear #
lump $-1 $-1 $49 $1 #
transform $-1 1 0 0 0 1 0 0 0 1 75.739616077150799 43.256897159624252 10.452969066427222 1 rotate no_reflect no_shear #
lump $-1 $-1 $50 $2 #
transform $-1 1 0 0 0 1 0 0 0 1 75.739616077150799 43.256897159624252 10.452969066427222 1 rotate no_reflect no_shear #
lump $-1 $-1 $51 $3 #
transform $-1 1 0 0 0 1 0 0 0 1 75.739616077150799 43.256897159624252 10.452969066427222 1 rotate no_reflect no_shear #
lump $-1 $-1 $52 $4 #
transform $-1 1 0 0 0 1 0 0 0 1 75.739616077150799 43.256897159624252 10.452969066427222 1 rotate no_reflect no_shear #
lump $-1 $-1 $53 $5 #
transform $-1 1 0 0 0 1 0 0 0 1 75.739616077150799 43.256897159624252 10.452969066427222 1 rotate no_reflect no_shear #
lump $-1 $-1 $54 $6 #
transform $-1 1 0 0 0 1 0 0 0 1 75.739616077150799 43.256897159624252 10.452969066427222 1 rotate no_reflect no_shear #
lump $-1 $-1 $55 $7 #
transform $-1 1 0 0 0 1 0 0 0 1 75.739616077150799 43.256897159624252 10.452969066427222 1 rotate no_reflect no_shear #
lump $-1 $-1 $56 $8 #
transform $-1 1 0 0 0 1 0 0 0 1 75.739616077150799 43.256897159624252 10.452969066427222 1 rotate no_reflect no_shear #
lump $-1 $-1 $57 $9 #
transform $-1 1 0 0 0 1 0 0 0 1 75.739616077150799 43.256897159624252 10.452969066427222 1 rotate no_reflect no_shear #
lump $-1 $-1 $58 $10 #
transform $-1 1 0 0 0 1 0 0 0 1 75.739616077150799 43.256897159624252 10.452969066427222 1 rotate no_reflect no_shear #
lump $-1 $-1 $59 $11 #
transform $-1 1 0 0 0 1 0 0 0 1 75.739616077150799 43.256897159624252 10.452969066427222 1 rotate no_reflect no_shear #
lump $-1 $-1 $60 $12 #
transform $-1 1 0 0 0 1 0 0 0 1 75.739616077150799 43.256897159624252 10.452969066427222 1 rotate no_reflect no_shear #
lump $-1 $-1 $61 $13 #
transform $-1 1 0 0 0 1 0 0 0 1 75.739616077150799 43.256897159624252 10.452969066427222 1 rotate no_reflect no_shear #
lump $-1 $-1 $62 $14 #
transform $-1 1 0 0 0 1 0 0 0 1 75.739616077150799 43.256897159624252 10.452969066427222 1 rotate no_reflect no_shear #
lump $-1 $-1 $63 $15 #
transform $-1 1 0 0 0 1 0 0 0 1 75.739616077150799 43.256897159624252 10.452969066427222 1 rotate no_reflect no_shear #
shell $-1 $-1 $-1 $64 $-1 $16 #
shell $-1 $-1 $-1 $65 $-1 $18 #
shell $-1 $-1 $-1 $66 $-1 $20 #
shell $-1 $-1 $-1 $67 $-1 $22 #
shell $-1 $-1 $-1 $68 $-1 $24 #
shell $-1 $-1 $-1 $69 $-1 $26 #
shell $-1 $-1 $-1 $70 $-1 $28 #
shell $-1 $-1 $-1 $71 $-1 $30 #
shell $-1 $-1 $-1 $72 $-1 $32 #
shell $-1 $-1 $-1 $73 $-1 $34 #
shell $-1 $-1 $-1 $74 $-1 $36 #
shell $-1 $-1 $-1 $75 $-1 $38 #
shell $-1 $-1 $-1 $76 $-1 $40 #
shell $-1 $-1 $-1 $77 $-1 $42 #
shell $-1 $-1 $-1 $78 $-1 $44 #
shell $-1 $-1 $-1 $79 $-1 $46 #
face $-1 $80 $81 $48 $-1 $82 reversed single #
face $-1 $83 $84 $49 $-1 $85 forward single #
face $-1 $86 $87 $50 $-1 $88 reversed single #
face $-1 $89 $90 $51 $-1 $91 forward single #
face $-1 $92 $93 $52 $-1 $94 reversed single #
face $-1 $95 $96 $53 $-1 $97 forward single #
face $-1 $98 $99 $54 $-1 $100 forward single #
face $-1 $101 $102 $55 $-1 $103 reversed single #
face $-1 $104 $105 $56 $-1 $106 forward single #
face $-1 $107 $108 $57 $-1 $109 forward single #
face $-1 $110 $111 $58 $-1 $112 reversed single #
face $-1 $113 $114 $59 $-1 $115 forward single #
face $-1 $116 $117 $60 $-1 $118 forward single #
face $-1 $119 $120 $61 $-1 $121 reversed single #
face $-1 $122 $123 $62 $-1 $124 forward single #
face $-1 $125 $126 $63 $-1 $127 forward single #
face $-1 $128 $129 $48 $-1 $130 forward single #
loop $-1 $-1 $131 $64 #
plane-surface $-1 -75.739616077150799 0 0 1 0 0 0 0 -1 forward_v I I I I #
face $-1 $132 $133 $49 $-1 $134 reversed single #
loop $-1 $-1 $135 $65 #
plane-surface $-1 -75.739616077150799 0 0 1 0 0 0 0 -1 forward_v I I I I #
face $-1 $136 $137 $50 $-1 $138 reversed single #
loop $-1 $-1 $139 $66 #
plane-surface $-1 8.4026465263026324 47.117675121064842 177.73450118635901 1 0 0 0 -0.51503808176128008 -0.85716729658548041 forward_v I I I I #
face $-1 $140 $141 $51 $-1 $142 forward single #
loop $-1 $143 $144 $67 #
cone-surface $-1 20.397648001001215 36.327617972517764 5.2207713093980086 0 -0.51503808176128008 -0.85716729658548041 1.5 0 0 1 I I 0 1 1.5 forward I I I I #
face $-1 $145 $146 $52 $-1 $147 reversed single #
loop $-1 $-1 $148 $68 #
plane-surface $-1 -49.664404141861354 -138.58586795865199 120.88262139610475 -1 0 0 0 -0.62932039886446345 0.77714595512881146 forward_v I I I I #
face $-1 $149 $150 $53 $-1 $151 forward single #
loop $-1 $152 $153 $69 #
cone-surface $-1 -62.017240883538136 -37.770850771842866 5.5922629232827008 0 0.62932039886446345 -0.77714595512881146 1.5 0 0 1 I I 0 1 1.5 forward I I I I #
face $-1 $154 $155 $54 $-1 $156 forward single #
loop $-1 $157 $158 $70 #
cone-surface $-1 -54.60553883853207 -37.770850771842866 5.5922629232827008 0 0.62932039886446345 -0.77714595512881146 1.5 0 0 1 I I 0 1 1.5 forward I I I I #
face $-1 $159 $160 $55 $-1 $161 reversed single #
loop $-1 $-1 $162 $71 #
plane-surface $-1 -13.989906227521441 -138.58586795865199 120.88262139610475 -1 0 0 0 -0.62932039886446345 0.77714595512881146 forward_v I I I I #
face $-1 $163 $164 $56 $-1 $165 forward single #
loop $-1 $166 $167 $72 #
cone-surface $-1 -26.34274296919822 -37.770850771842866 5.5922629232827008 0 0.62932039886446345 -0.77714595512881146 1.5 0 0 1 I I 0 1 1.5 forward I I I I #
face $-1 $168 $169 $57 $-1 $170 forward single #
loop $-1 $171 $172 $73 #
cone-surface $-1 -18.931040924192153 -37.770850771842866 5.5922629232827008 0 0.62932039886446345 -0.77714595512881146 1.5 0 0 1 I I 0 1 1.5 forward I I I I #
face $-1 $173 $174 $58 $-1 $175 reversed single #
loop $-1 $-1 $176 $74 #
plane-surface $-1 21.684591686818482 -138.58586795865199 120.88262139610475 -1 0 0 0 -0.62932039886446345 0.77714595512881146 forward_v I I I I #
face $-1 $177 $178 $59 $-1 $179 forward single #
loop $-1 $180 $181 $75 #
cone-surface $-1 9.3317549451416966 -37.770850771842866 5.5922629232827008 0 0.62932039886446345 -0.77714595512881146 1.5 0 0 1 I I 0 1 1.5 forward I I I I #
face $-1 $182 $183 $60 $-1 $184 forward single #
loop $-1 $185 $186 $76 #
cone-surface $-1 16.743456990147763 -37.770850771842866 5.5922629232827008 0 0.62932039886446345 -0.77714595512881146 1.5 0 0 1 I I 0 1 1.5 forward I I I I #
face $-1 $187 $188 $61 $-1 $189 reversed single #
loop $-1 $-1 $190 $77 #
plane-surface $-1 57.359089601158402 -138.58586795865199 120.88262139610475 -1 0 0 0 -0.62932039886446345 0.77714595512881146 forward_v I I I I #
face $-1 $191 $192 $62 $-1 $193 forward single #
loop $-1 $194 $195 $78 #
cone-surface $-1 45.006252859481606 -37.770850771842866 5.5922629232827008 0 0.62932039886446345 -0.77714595512881146 1.5 0 0 1 I I 0 1 1.5 forward I I I I #
face $-1 $196 $197 $63 $-1 $198 forward single #
loop $-1 $199 $200 $79 #
cone-surface $-1 52.417954904487686 -37.770850771842866 5.5922629232827008 0 0.62932039886446345 -0.77714595512881146 1.5 0 0 1 I I 0 1 1.5 forward I I I I #
face $-1 $201 $202 $48 $-1 $203 reversed single #
loop $-1 $-1 $204 $80 #
plane-surface $-1 0 0 10.452969066427222 0 0 1 1 0 0 forward_v I I I I #
coedge $-1 $205 $206 $207 $208 reversed $81 $-1 #
face $-1 $209 $210 $49 $-1 $211 reversed single #
loop $-1 $-1 $212 $83 #
plane-surface $-1 0 0 -10.452969066427222 0 0 1 1 0 0 forward_v I I I I #
coedge $-1 $213 $214 $215 $216 forward $84 $-1 #
face $-1 $217 $218 $50 $-1 $219 reversed single #
loop $-1 $-1 $220 $86 #
plane-surface $-1 20.397648001001215 -30.899898034358266 47.89145727181193 0 0.51503808176128008 0.85716729658548041 1 0 0 forward_v I I I I #
coedge $-1 $221 $222 $223 $224 reversed $87 $-1 #
face $-1 $-1 $225 $51 $-1 $226 forward single #
loop $-1 $227 $228 $89 #
cone-surface $-1 20.397648001001215 34.936404499902928 2.9054033132751798 0 -0.51503808176128008 -0.85716729658548041 0.75 0 0 1 I I -0.70710678118654757 0.70710678118654757 0.75 forward I I I I #
loop $-1 $-1 $229 $67 #
coedge $-1 $144 $144 $230 $231 reversed $90 $-1 #
face $-1 $232 $233 $52 $-1 $234 reversed single #
loop $-1 $-1 $235 $92 #
plane-surface $-1 -58.311389861035103 -43.256897159624245 3.1611488413710731 0 -0.62932039886446345 0.77714595512881146 1 0 0 forward_v I I I I #
coedge $-1 $236 $237 $238 $239 reversed $93 $-1 #
face $-1 $-1 $240 $53 $-1 $241 forward single #
loop $-1 $242 $243 $95 #
cone-surface $-1 -62.017240883538136 -36.315138023286941 3.7946074263196508 0 0.62932039886446345 -0.77714595512881146 0.75 0 0 1 I I -0.70710678118654757 0.70710678118654757 0.75 forward I I I I #
loop $-1 $-1 $244 $69 #
coedge $-1 $153 $153 $245 $246 reversed $96 $-1 #
face $-1 $-1 $247 $54 $-1 $248 forward single #
loop $-1 $249 $250 $98 #
cone-surface $-1 -54.60553883853207 -36.315138023286941 3.7946074263196508 0 0.62932039886446345 -0.77714595512881146 0.75 0 0 1 I I -0.70710678118654757 0.70710678118654757 0.75 forward I I I I #
loop $-1 $-1 $251 $70 #
coedge $-1 $158 $158 $252 $253 reversed $99 $-1 #
face $-1 $254 $255 $55 $-1 $256 reversed single #
loop $-1 $-1 $257 $101 #
plane-surface $-1 -22.636891946695187 -43.256897159624245 3.1611488413710731 0 -0.62932039886446345 0.77714595512881146 1 0 0 forward_v I I I I #
coedge $-1 $258 $259 $260 $261 reversed $102 $-1 #
face $-1 $-1 $262 $56 $-1 $263 forward single #
loop $-1 $264 $265 $104 #
cone-surface $-1 -26.34274296919822 -36.315138023286941 3.7946074263196508 0 0.62932039886446345 -0.77714595512881146 0.75 0 0 1 I I -0.70710678118654757 0.70710678118654757 0.75 forward I I I I #
loop $-1 $-1 $266 $72 #
coedge $-1 $167 $167 $267 $268 reversed $105 $-1 #
face $-1 $-1 $269 $57 $-1 $270 forward single #
loop $-1 $271 $272 $107 #
cone-surface $-1 -18.931040924192153 -36.315138023286941 3.7946074263196508 0 0.62932039886446345 -0.77714595512881146 0.75 0 0 1 I I -0.70710678118654757 0.70710678118654757 0.75 forward I I I I #
loop $-1 $-1 $273 $73 #
coedge $-1 $172 $172 $274 $275 reversed $108 $-1 #
face $-1 $276 $277 $58 $-1 $278 reversed single #
loop $-1 $-1 $279 $110 #
plane-surface $-1 13.037605967644737 -43.256897159624245 3.1611488413710731 0 -0.62932039886446345 0.77714595512881146 1 0 0 forward_v I I I I #
coedge $-1 $280 $281 $282 $283 reversed $111 $-1 #
face $-1 $-1 $284 $59 $-1 $285 forward single #
loop $-1 $286 $287 $113 #
cone-surface $-1 9.3317549451416966 -36.315138023286941 3.7946074263196508 0 0.62932039886446345 -0.77714595512881146 0.75 0 0 1 I I -0.70710678118654757 0.70710678118654757 0.75 forward I I I I #
loop $-1 $-1 $288 $75 #
coedge $-1 $181 $181 $289 $290 reversed $114 $-1 #
face $-1 $-1 $291 $60 $-1 $292 forward single #
loop $-1 $293 $294 $116 #
cone-surface $-1 16.743456990147763 -36.315138023286941 3.7946074263196508 0 0.62932039886446345 -0.77714595512881146 0.75 0 0 1 I I -0.70710678118654757 0.70710678118654757 0.75 forward I I I I #
loop $-1 $-1 $295 $76 #
coedge $-1 $186 $186 $296 $297 reversed $117 $-1 #
face $-1 $298 $299 $61 $-1 $300 reversed single #
loop $-1 $-1 $301 $119 #
plane-surface $-1 48.71210388198466 -43.256897159624245 3.1611488413710731 0 -0.62932039886446345 0.77714595512881146 1 0 0 forward_v I I I I #
coedge $-1 $302 $303 $304 $305 reversed $120 $-1 #
face $-1 $-1 $306 $62 $-1 $307 forward single #
loop $-1 $308 $309 $122 #
cone-surface $-1 45.006252859481606 -36.315138023286941 3.7946074263196508 0 0.62932039886446345 -0.77714595512881146 0.75 0 0 1 I I -0.70710678118654757 0.70710678118654757 0.75 forward I I I I #
loop $-1 $-1 $310 $78 #
coedge $-1 $195 $195 $311 $312 reversed $123 $-1 #
face $-1 $-1 $313 $63 $-1 $314 forward single #
loop $-1 $315 $316 $125 #
cone-surface $-1 52.417954904487686 -36.315138023286941 3.7946074263196508 0 0.62932039886446345 -0.77714595512881146 0.75 0 0 1 I I -0.70710678118654757 0.70710678118654757 0.75 forward I I I I #
loop $-1 $-1 $317 $79 #
coedge $-1 $200 $200 $318 $319 reversed $126 $-1 #
face $-1 $320 $321 $48 $-1 $322 reversed single #
loop $-1 $-1 $323 $128 #
plane-surface $-1 0 0 -10.452969066427222 0 0 1 1 0 0 forward_v I I I I #
coedge $-1 $324 $325 $326 $327 forward $129 $-1 #
coedge $-1 $328 $131 $329 $330 reversed $81 $-1 #
coedge $-1 $131 $328 $331 $332 forward $81 $-1 #
coedge $-1 $333 $334 $131 $208 forward $202 $-1 #
edge $-1 $335 -43.256897159624252 $336 43.256897159624252 $131 $337 forward 7 unknown #
face $-1 $338 $339 $49 $-1 $340 reversed single #
loop $-1 $-1 $341 $132 #
plane-surface $-1 -80.13023632562178 -27.987784882354866 0 0 1 0 0 0 1 forward_v I I I I #
coedge $-1 $342 $343 $214 $344 forward $133 $-1 #
coedge $-1 $345 $135 $346 $347 reversed $84 $-1 #
coedge $-1 $135 $345 $212 $344 reversed $84 $-1 #
coedge $-1 $348 $349 $135 $216 reversed $350 $-1 #
edge $-1 $351 -10.452969066427222 $352 10.452969066427222 $215 $353 forward 7 unknown #
face $-1 $354 $355 $50 $-1 $356 forward single #
loop $-1 $-1 $357 $136 #
plane-surface $-1 32.392649475699798 47.117675121064842 177.73450118635901 -1 0 0 0 0.51503808176128008 0.85716729658548041 forward_v I I I I #
coedge $-1 $358 $359 $360 $361 reversed $137 $-1 #
coedge $-1 $222 $139 $362 $363 reversed $87 $-1 #
coedge $-1 $139 $221 $358 $364 reversed $87 $-1 #
coedge $-1 $360 $365 $139 $224 forward $355 $-1 #
edge $-1 $366 -19.698059599091831 $367 -7.8493710474666649 $223 $368 forward 7 unknown #
loop $-1 $-1 $230 $140 #
plane-surface $-1 20.397648001001215 -30.899898034358266 47.89145727181193 0 0.51503808176128008 0.85716729658548041 1 0 0 forward_v I I I I #
loop $-1 $-1 $369 $89 #
coedge $-1 $228 $228 $229 $370 reversed $141 $-1 #
coedge $-1 $229 $229 $228 $370 forward $143 $-1 #
coedge $-1 $230 $230 $144 $231 forward $225 $-1 #
edge $-1 $371 -8.0158859289326997e-016 $371 6.2831853071795996 $230 $372 forward 7 unknown #
face $-1 $373 $374 $52 $-1 $375 forward single #
loop $-1 $-1 $376 $145 #
plane-surface $-1 -66.958375580208852 -138.58586795865199 120.88262139610475 1 0 0 0 0.62932039886446345 -0.77714595512881146 forward_v I I I I #
coedge $-1 $377 $378 $379 $380 reversed $146 $-1 #
coedge $-1 $237 $148 $381 $382 reversed $93 $-1 #
coedge $-1 $148 $236 $377 $383 reversed $93 $-1 #
coedge $-1 $379 $384 $148 $239 forward $374 $-1 #
edge $-1 $385 26.036036819701742 $386 35.040684696449354 $238 $387 forward 7 unknown #
loop $-1 $-1 $245 $149 #
plane-surface $-1 -58.311389861035103 -43.256897159624245 3.1611488413710731 0 -0.62932039886446345 0.77714595512881146 1 0 0 forward_v I I I I #
loop $-1 $-1 $388 $95 #
coedge $-1 $243 $243 $244 $389 reversed $150 $-1 #
coedge $-1 $244 $244 $243 $389 forward $152 $-1 #
coedge $-1 $245 $245 $153 $246 forward $240 $-1 #
edge $-1 $390 -1.1178975946969835e-015 $390 6.2831853071795996 $245 $391 forward 7 unknown #
loop $-1 $-1 $252 $154 #
plane-surface $-1 -58.311389861035103 -43.256897159624245 3.1611488413710731 0 -0.62932039886446345 0.77714595512881146 1 0 0 forward_v I I I I #
loop $-1 $-1 $392 $98 #
coedge $-1 $250 $250 $251 $393 reversed $155 $-1 #
coedge $-1 $251 $251 $250 $393 forward $157 $-1 #
coedge $-1 $252 $252 $158 $253 forward $247 $-1 #
edge $-1 $394 -1.1178975946969835e-015 $394 6.2831853071795996 $252 $395 forward 7 unknown #
face $-1 $396 $397 $55 $-1 $398 reversed single #
loop $-1 $-1 $399 $159 #
plane-surface $-1 -31.283877665868932 -138.58586795865199 120.88262139610475 1 0 0 0 0.62932039886446345 -0.77714595512881146 forward_v I I I I #
coedge $-1 $400 $401 $402 $403 reversed $160 $-1 #
coedge $-1 $259 $162 $404 $405 reversed $102 $-1 #
coedge $-1 $162 $258 $400 $406 reversed $102 $-1 #
coedge $-1 $402 $407 $162 $261 forward $408 $-1 #
edge $-1 $409 26.036036819701742 $410 35.040684696449354 $260 $411 forward 7 unknown #
loop $-1 $-1 $267 $163 #
plane-surface $-1 -22.636891946695187 -43.256897159624245 3.1611488413710731 0 -0.62932039886446345 0.77714595512881146 1 0 0 forward_v I I I I #
loop $-1 $-1 $412 $104 #
coedge $-1 $265 $265 $266 $413 reversed $164 $-1 #
coedge $-1 $266 $266 $265 $413 forward $166 $-1 #
coedge $-1 $267 $267 $167 $268 forward $262 $-1 #
edge $-1 $414 -1.1178975946969835e-015 $414 6.2831853071795996 $267 $415 forward 7 unknown #
loop $-1 $-1 $274 $168 #
plane-surface $-1 -22.636891946695187 -43.256897159624245 3.1611488413710731 0 -0.62932039886446345 0.77714595512881146 1 0 0 forward_v I I I I #
loop $-1 $-1 $416 $107 #
coedge $-1 $272 $272 $273 $417 reversed $169 $-1 #
coedge $-1 $273 $273 $272 $417 forward $171 $-1 #
coedge $-1 $274 $274 $172 $275 forward $269 $-1 #
edge $-1 $418 -1.1178975946969835e-015 $418 6.2831853071795996 $274 $419 forward 7 unknown #
face $-1 $420 $421 $58 $-1 $422 reversed single #
loop $-1 $-1 $423 $173 #
plane-surface $-1 4.3906202484709915 -138.58586795865199 120.88262139610475 1 0 0 0 0.62932039886446345 -0.77714595512881146 forward_v I I I I #
coedge $-1 $424 $425 $426 $427 reversed $174 $-1 #
coedge $-1 $281 $176 $428 $429 reversed $111 $-1 #
coedge $-1 $176 $280 $424 $430 reversed $111 $-1 #
coedge $-1 $426 $431 $176 $283 forward $432 $-1 #
edge $-1 $433 26.036036819701742 $434 35.040684696449354 $282 $435 forward 7 unknown #
loop $-1 $-1 $289 $177 #
plane-surface $-1 13.037605967644737 -43.256897159624245 3.1611488413710731 0 -0.62932039886446345 0.77714595512881146 1 0 0 forward_v I I I I #
loop $-1 $-1 $436 $113 #
coedge $-1 $287 $287 $288 $437 reversed $178 $-1 #
coedge $-1 $288 $288 $287 $437 forward $180 $-1 #
coedge $-1 $289 $289 $181 $290 forward $284 $-1 #
edge $-1 $438 -1.1178975946969835e-015 $438 6.2831853071795996 $289 $439 forward 7 unknown #
loop $-1 $-1 $296 $182 #
plane-surface $-1 13.037605967644737 -43.256897159624245 3.1611488413710731 0 -0.62932039886446345 0.77714595512881146 1 0 0 forward_v I I I I #
loop $-1 $-1 $440 $116 #
coedge $-1 $294 $294 $295 $441 reversed $183 $-1 #
coedge $-1 $295 $295 $294 $441 forward $185 $-1 #
coedge $-1 $296 $296 $186 $297 forward $291 $-1 #
edge $-1 $442 -1.1178975946969835e-015 $442 6.2831853071795996 $296 $443 forward 7 unknown #
face $-1 $444 $445 $61 $-1 $446 reversed single #
loop $-1 $-1 $447 $187 #
plane-surface $-1 40.065118162810919 -138.58586795865199 120.88262139610475 1 0 0 0 0.62932039886446345 -0.77714595512881146 forward_v I I I I #
coedge $-1 $448 $449 $450 $451 reversed $188 $-1 #
coedge $-1 $303 $190 $452 $453 reversed $120 $-1 #
coedge $-1 $190 $302 $448 $454 reversed $120 $-1 #
coedge $-1 $450 $455 $190 $305 forward $456 $-1 #
edge $-1 $457 26.036036819701742 $458 35.040684696449354 $304 $459 forward 7 unknown #
loop $-1 $-1 $311 $191 #
plane-surface $-1 48.71210388198466 -43.256897159624245 3.1611488413710731 0 -0.62932039886446345 0.77714595512881146 1 0 0 forward_v I I I I #
loop $-1 $-1 $460 $122 #
coedge $-1 $309 $309 $310 $461 reversed $192 $-1 #
coedge $-1 $310 $310 $309 $461 forward $194 $-1 #
coedge $-1 $311 $311 $195 $312 forward $306 $-1 #
edge $-1 $462 -1.1178975946969835e-015 $462 6.2831853071795996 $311 $463 forward 7 unknown #
loop $-1 $-1 $318 $196 #
plane-surface $-1 48.71210388198466 -43.256897159624245 3.1611488413710731 0 -0.62932039886446345 0.77714595512881146 1 0 0 forward_v I I I I #
loop $-1 $-1 $464 $125 #
coedge $-1 $316 $316 $317 $465 reversed $197 $-1 #
coedge $-1 $317 $317 $316 $465 forward $199 $-1 #
coedge $-1 $318 $318 $200 $319 forward $313 $-1 #
edge $-1 $466 -1.1178975946969835e-015 $466 6.2831853071795996 $318 $467 forward 7 unknown #
face $-1 $468 $469 $48 $-1 $470 reversed single #
loop $-1 $-1 $329 $201 #
plane-surface $-1 0 -43.256897159624252 0 0 1 0 0 0 1 forward_v I I I I #
coedge $-1 $334 $333 $471 $472 forward $202 $-1 #
coedge $-1 $473 $204 $474 $475 forward $129 $-1 #
coedge $-1 $204 $473 $476 $477 forward $129 $-1 #
coedge $-1 $478 $479 $204 $327 reversed $480 $-1 #
edge $-1 $481 -43.256897159624252 $482 43.256897159624252 $326 $483 forward 7 unknown #
coedge $-1 $206 $205 $473 $484 reversed $81 $-1 #
coedge $-1 $485 $476 $205 $330 forward $321 $-1 #
edge $-1 $486 -10.452969066427222 $335 10.452969066427222 $205 $487 forward 7 unknown #
coedge $-1 $474 $488 $206 $332 reversed $469 $-1 #
edge $-1 $489 -10.452969066427222 $336 10.452969066427222 $331 $490 forward 7 unknown #
coedge $-1 $323 $207 $488 $491 forward $202 $-1 #
coedge $-1 $207 $323 $485 $492 forward $202 $-1 #
vertex $-1 $208 $493 #
vertex $-1 $491 $494 #
straight-curve $-1 -75.739616077150799 0 -10.452969066427222 0 1 0 I I #
face $-1 $495 $350 $49 $-1 $496 reversed single #
loop $-1 $-1 $497 $209 #
plane-surface $-1 -84.520856574092761 -25.169371954562337 0 1 0 0 0 0 -1 forward_v I I I I #
coedge $-1 $498 $499 $500 $501 forward $210 $-1 #
coedge $-1 $502 $212 $498 $503 forward $133 $-1 #
coedge $-1 $212 $502 $348 $504 forward $133 $-1 #
edge $-1 $351 22.350959026769807 $505 27.987784882354866 $212 $506 forward 7 unknown #
coedge $-1 $214 $213 $507 $508 forward $84 $-1 #
coedge $-1 $509 $510 $213 $347 forward $511 $-1 #
edge $-1 $512 -27.987784882354866 $352 -22.350959026769807 $346 $513 forward 7 unknown #
coedge $-1 $514 $215 $343 $504 reversed $350 $-1 #
coedge $-1 $215 $514 $509 $515 reversed $350 $-1 #
loop $-1 $-1 $215 $338 #
vertex $-1 $344 $516 #
vertex $-1 $515 $517 #
straight-curve $-1 -75.739616077150799 -22.350959026769807 0 0 0 1 I I #
face $-1 $-1 $518 $50 $-1 $519 reversed single #
loop $-1 $-1 $223 $217 #
plane-surface $-1 0 0 10.452969066427222 0 0 1 1 0 0 forward_v I I I I #
coedge $-1 $520 $521 $522 $523 reversed $218 $-1 #
coedge $-1 $524 $220 $222 $364 forward $137 $-1 #
coedge $-1 $220 $524 $520 $525 forward $137 $-1 #
coedge $-1 $522 $223 $220 $361 forward $355 $-1 #
edge $-1 $367 -1.7961774741979752 $526 22.193825475199191 $360 $527 forward 7 unknown #
coedge $-1 $528 $529 $221 $363 forward $518 $-1 #
edge $-1 $530 -85.533691993443256 $366 -78.414281526752291 $362 $531 forward 7 unknown #
edge $-1 $367 72.690718475332915 $530 86.51379431924849 $222 $532 forward 7 unknown #
coedge $-1 $223 $522 $528 $533 forward $355 $-1 #
vertex $-1 $363 $534 #
vertex $-1 $224 $535 #
straight-curve $-1 8.4026465263026324 23.558837560532421 10.452969066427215 0 -1 0 I I #
coedge $-1 $369 $369 $-1 $536 reversed $227 $-1 #
edge $-1 $537 0 $537 6.2831853071796004 $228 $538 forward 7 unknown #
vertex $-1 $231 $539 #
ellipse-curve $-1 20.397648001001215 37.332552883811658 6.8932638330817468 0 0.51503808176128008 0.85716729658548041 1.5 0 0 1 I I #
face $-1 $-1 $540 $52 $-1 $541 reversed single #
loop $-1 $-1 $238 $232 #
plane-surface $-1 0 0 10.452969066427222 0 0 1 1 0 0 forward_v I I I I #
coedge $-1 $542 $543 $544 $545 reversed $233 $-1 #
coedge $-1 $546 $235 $237 $383 forward $146 $-1 #
coedge $-1 $235 $546 $542 $547 forward $146 $-1 #
coedge $-1 $544 $238 $235 $380 forward $374 $-1 #
edge $-1 $386 20.508709211343803 $548 37.802680649691297 $379 $549 forward 7 unknown #
coedge $-1 $550 $551 $236 $382 forward $540 $-1 #
edge $-1 $552 -57.28016185668131 $385 -49.988341631625154 $381 $553 forward 7 unknown #
edge $-1 $386 -11.586816887253939 $552 9.1551213131864128e-015 $237 $554 forward 7 unknown #
coedge $-1 $238 $544 $550 $555 forward $374 $-1 #
vertex $-1 $239 $556 #
vertex $-1 $239 $557 #
straight-curve $-1 -49.664404141861354 -69.292933979325994 10.452969066427222 0 1 0 I I #
coedge $-1 $388 $388 $-1 $558 reversed $242 $-1 #
edge $-1 $559 0 $559 6.2831853071796004 $243 $560 forward 7 unknown #
vertex $-1 $246 $561 #
ellipse-curve $-1 -62.017240883538136 -38.754573221250446 6.8070589538991451 0 -0.62932039886446345 0.77714595512881146 1.5 0 0 1 I I #
coedge $-1 $392 $392 $-1 $562 reversed $249 $-1 #
edge $-1 $563 0 $563 6.2831853071796004 $250 $564 forward 7 unknown #
vertex $-1 $253 $565 #
ellipse-curve $-1 -54.60553883853207 -38.754573221250446 6.8070589538991451 0 -0.62932039886446345 0.77714595512881146 1.5 0 0 1 I I #
face $-1 $-1 $408 $55 $-1 $566 forward single #
loop $-1 $-1 $567 $254 #
plane-surface $-1 0 -43.256897159624252 0 0 1 0 0 0 1 forward_v I I I I #
coedge $-1 $568 $569 $570 $571 reversed $255 $-1 #
coedge $-1 $572 $257 $259 $406 forward $160 $-1 #
coedge $-1 $257 $572 $568 $573 forward $160 $-1 #
coedge $-1 $570 $260 $257 $403 forward $408 $-1 #
edge $-1 $410 2.6714602541738479 $574 19.965431692521339 $402 $575 forward 7 unknown #
coedge $-1 $576 $577 $258 $405 forward $397 $-1 #
edge $-1 $578 -57.28016185668131 $409 -49.988341631625154 $404 $579 forward 7 unknown #
edge $-1 $410 -11.586816887253939 $578 9.1551213131864128e-015 $259 $580 forward 7 unknown #
coedge $-1 $260 $570 $576 $581 forward $408 $-1 #
loop $-1 $-1 $570 $396 #
vertex $-1 $405 $582 #
vertex $-1 $261 $583 #
straight-curve $-1 -13.989906227521441 -69.292933979325994 10.452969066427222 0 1 0 I I #
coedge $-1 $412 $412 $-1 $584 reversed $264 $-1 #
edge $-1 $585 0 $585 6.2831853071796004 $265 $586 forward 7 unknown #
vertex $-1 $268 $587 #
ellipse-curve $-1 -26.34274296919822 -38.754573221250446 6.8070589538991451 0 -0.62932039886446345 0.77714595512881146 1.5 0 0 1 I I #
coedge $-1 $416 $416 $-1 $588 reversed $271 $-1 #
edge $-1 $589 0 $589 6.2831853071796004 $272 $590 forward 7 unknown #
vertex $-1 $275 $591 #
ellipse-curve $-1 -18.931040924192153 -38.754573221250446 6.8070589538991451 0 -0.62932039886446345 0.77714595512881146 1.5 0 0 1 I I #
face $-1 $-1 $432 $58 $-1 $592 forward single #
loop $-1 $-1 $593 $276 #
plane-surface $-1 0 -43.256897159624252 0 0 1 0 0 0 1 forward_v I I I I #
coedge $-1 $594 $595 $596 $597 reversed $277 $-1 #
coedge $-1 $598 $279 $281 $430 forward $174 $-1 #
coedge $-1 $279 $598 $594 $599 forward $174 $-1 #
coedge $-1 $596 $282 $279 $427 forward $432 $-1 #
edge $-1 $434 -15.165788702996114 $600 2.1281827353513769 $426 $601 forward 7 unknown #
coedge $-1 $602 $603 $280 $429 forward $421 $-1 #
edge $-1 $604 -57.28016185668131 $433 -49.988341631625154 $428 $605 forward 7 unknown #
edge $-1 $434 -11.586816887253939 $604 9.1551213131864128e-015 $281 $606 forward 7 unknown #
coedge $-1 $282 $596 $602 $607 forward $432 $-1 #
loop $-1 $-1 $596 $420 #
vertex $-1 $429 $608 #
vertex $-1 $283 $609 #
straight-curve $-1 21.684591686818482 -69.292933979325994 10.452969066427222 0 1 0 I I #
coedge $-1 $436 $436 $-1 $610 reversed $286 $-1 #
edge $-1 $611 0 $611 6.2831853071796004 $287 $612 forward 7 unknown #
vertex $-1 $290 $613 #
ellipse-curve $-1 9.3317549451416966 -38.754573221250446 6.8070589538991451 0 -0.62932039886446345 0.77714595512881146 1.5 0 0 1 I I #
coedge $-1 $440 $440 $-1 $614 reversed $293 $-1 #
edge $-1 $615 0 $615 6.2831853071796004 $294 $616 forward 7 unknown #
vertex $-1 $297 $617 #
ellipse-curve $-1 16.743456990147763 -38.754573221250446 6.8070589538991451 0 -0.62932039886446345 0.77714595512881146 1.5 0 0 1 I I #
face $-1 $-1 $456 $61 $-1 $618 forward single #
loop $-1 $-1 $619 $298 #
plane-surface $-1 0 -43.256897159624252 0 0 1 0 0 0 1 forward_v I I I I #
coedge $-1 $620 $621 $622 $623 reversed $299 $-1 #
coedge $-1 $624 $301 $303 $454 forward $188 $-1 #
coedge $-1 $301 $624 $620 $625 forward $188 $-1 #
coedge $-1 $622 $304 $301 $451 forward $456 $-1 #
edge $-1 $458 -33.003037660166072 $626 -15.709066221818588 $450 $627 forward 7 unknown #
coedge $-1 $628 $629 $302 $453 forward $445 $-1 #
edge $-1 $630 -57.28016185668131 $457 -49.988341631625154 $452 $631 forward 7 unknown #
edge $-1 $458 -11.586816887253939 $630 9.1551213131864128e-015 $303 $632 forward 7 unknown #
coedge $-1 $304 $622 $628 $633 forward $456 $-1 #
loop $-1 $-1 $622 $444 #
vertex $-1 $453 $634 #
vertex $-1 $305 $635 #
straight-curve $-1 57.359089601158402 -69.292933979325994 10.452969066427222 0 1 0 I I #
coedge $-1 $460 $460 $-1 $636 reversed $308 $-1 #
edge $-1 $637 0 $637 6.2831853071796004 $309 $638 forward 7 unknown #
vertex $-1 $312 $639 #
ellipse-curve $-1 45.006252859481606 -38.754573221250446 6.8070589538991451 0 -0.62932039886446345 0.77714595512881146 1.5 0 0 1 I I #
coedge $-1 $464 $464 $-1 $640 reversed $315 $-1 #
edge $-1 $641 0 $641 6.2831853071796004 $316 $642 forward 7 unknown #
vertex $-1 $319 $643 #
ellipse-curve $-1 52.417954904487686 -38.754573221250446 6.8070589538991451 0 -0.62932039886446345 0.77714595512881146 1.5 0 0 1 I I #
face $-1 $-1 $480 $48 $-1 $644 reversed single #
loop $-1 $-1 $645 $320 #
plane-surface $-1 0 43.256897159624252 0 0 -1 0 0 0 -1 forward_v I I I I #
coedge $-1 $479 $478 $323 $472 reversed $480 $-1 #
edge $-1 $646 -43.256897159624252 $647 43.256897159624252 $471 $648 forward 7 unknown #
coedge $-1 $325 $324 $328 $484 forward $129 $-1 #
coedge $-1 $645 $331 $324 $475 reversed $469 $-1 #
edge $-1 $482 -75.739616077150799 $489 75.739616077150799 $474 $649 forward 7 unknown #
coedge $-1 $329 $650 $325 $477 reversed $321 $-1 #
edge $-1 $486 -75.739616077150799 $481 75.739616077150799 $476 $651 forward 7 unknown #
coedge $-1 $471 $326 $650 $652 forward $480 $-1 #
coedge $-1 $326 $471 $645 $653 reversed $480 $-1 #
loop $-1 $-1 $478 $468 #
vertex $-1 $327 $654 #
vertex $-1 $327 $655 #
straight-curve $-1 75.739616077150799 0 10.452969066427222 0 1 0 I I #
edge $-1 $489 -43.256897159624252 $486 43.256897159624252 $328 $656 forward 7 unknown #
coedge $-1 $650 $329 $334 $492 reversed $321 $-1 #
vertex $-1 $484 $657 #
straight-curve $-1 -75.739616077150799 -43.256897159624252 0 0 0 -1 I I #
coedge $-1 $331 $645 $333 $491 reversed $469 $-1 #
vertex $-1 $475 $658 #
straight-curve $-1 -75.739616077150799 43.256897159624252 0 0 0 -1 I I #
edge $-1 $336 -75.739616077150799 $646 75.739616077150799 $488 $659 forward 7 unknown #
edge $-1 $647 -75.739616077150799 $335 75.739616077150799 $485 $660 forward 7 unknown #
point $-1 -75.739616077150799 -43.256897159624252 -10.452969066427222 #
point $-1 -75.739616077150799 43.256897159624252 -10.452969066427222 #
face $-1 $-1 $511 $49 $-1 $661 forward single #
plane-surface $-1 -80.13023632562178 -22.350959026769807 0 0 -1 0 0 0 -1 forward_v I I I I #
coedge $-1 $662 $663 $514 $664 forward $339 $-1 #
coedge $-1 $507 $341 $342 $503 reversed $210 $-1 #
coedge $-1 $341 $507 $510 $665 reversed $210 $-1 #
coedge $-1 $663 $662 $341 $501 reversed $339 $-1 #
edge $-1 $666 -10.452969066427222 $667 10.452969066427222 $500 $668 forward 7 unknown #
coedge $-1 $343 $342 $662 $669 forward $133 $-1 #
edge $-1 $505 -4.3906202484709809 $667 4.3906202484709809 $498 $670 forward 7 unknown #
edge $-1 $671 -4.3906202484709809 $351 4.3906202484709809 $348 $672 forward 7 unknown #
vertex $-1 $503 $673 #
straight-curve $-1 -75.739616077150799 0 -10.452969066427222 0 -1 0 I I #
coedge $-1 $499 $498 $345 $508 reversed $210 $-1 #
edge $-1 $512 -10.452969066427222 $505 10.452969066427222 $507 $674 forward 7 unknown #
coedge $-1 $675 $346 $349 $515 forward $511 $-1 #
coedge $-1 $346 $675 $499 $665 forward $511 $-1 #
loop $-1 $-1 $346 $495 #
vertex $-1 $347 $676 #
straight-curve $-1 -75.739616077150799 0 10.452969066427222 0 1 0 I I #
coedge $-1 $349 $348 $497 $664 reversed $350 $-1 #
edge $-1 $352 -4.3906202484709809 $677 4.3906202484709809 $349 $678 forward 7 unknown #
point $-1 -75.739616077150799 -22.350959026769807 -10.452969066427222 #
point $-1 -75.739616077150799 -22.350959026769807 10.452969066427222 #
loop $-1 $-1 $362 $354 #
plane-surface $-1 0 43.256897159624252 0 0 -1 0 0 0 -1 forward_v I I I I #
coedge $-1 $521 $357 $359 $525 reversed $218 $-1 #
coedge $-1 $357 $520 $679 $680 reversed $218 $-1 #
coedge $-1 $365 $360 $357 $523 forward $355 $-1 #
edge $-1 $526 7.8493710474666649 $681 19.698059599091831 $522 $682 forward 7 unknown #
coedge $-1 $359 $358 $529 $683 reversed $137 $-1 #
edge $-1 $684 -86.51379431924849 $526 -72.690718475332915 $520 $685 forward 7 unknown #
vertex $-1 $361 $686 #
straight-curve $-1 10.198824000500608 31.408208607999079 10.452969066427222 1 0 0 I I #
coedge $-1 $679 $362 $365 $533 reversed $518 $-1 #
coedge $-1 $362 $679 $524 $683 forward $518 $-1 #
vertex $-1 $363 $687 #
straight-curve $-1 8.4026465263026324 43.256897159624252 88.867250593179506 0 0 1 I I #
straight-curve $-1 8.4026465263026324 -30.899898034358266 47.89145727181193 0 0.85716729658548041 -0.51503808176128008 I I #
edge $-1 $681 -32.392649475699798 $366 -8.4026465263026324 $528 $688 forward 7 unknown #
point $-1 8.4026465263026324 43.256897159624252 10.452969066427222 #
point $-1 8.4026465263026324 31.408208607999086 10.452969066427222 #
edge $-1 $689 1 $689 0 $369 $-1 forward 7 unknown #
vertex $-1 $370 $690 #
ellipse-curve $-1 20.397648001001215 35.322683061223884 3.5482787857142899 0 0.51503808176128008 0.85716729658548041 1.5 0 0 1 I I #
point $-1 21.897648001001215 37.332552883811644 6.8932638330817255 #
loop $-1 $-1 $381 $373 #
plane-surface $-1 0 -43.256897159624252 0 0 1 0 0 0 1 forward_v I I I I #
coedge $-1 $543 $376 $378 $547 reversed $233 $-1 #
coedge $-1 $376 $542 $691 $692 reversed $233 $-1 #
coedge $-1 $384 $379 $376 $545 forward $374 $-1 #
edge $-1 $548 -35.040684696449354 $693 -26.036036819701742 $544 $694 forward 7 unknown #
coedge $-1 $378 $377 $551 $695 reversed $146 $-1 #
edge $-1 $696 -9.1551213131864128e-015 $548 11.586816887253939 $542 $697 forward 7 unknown #
vertex $-1 $380 $698 #
straight-curve $-1 -29.155694930517551 -34.25224928287664 10.452969066427222 -1 0 0 I I #
coedge $-1 $691 $381 $384 $555 reversed $540 $-1 #
coedge $-1 $381 $691 $546 $695 forward $540 $-1 #
vertex $-1 $382 $699 #
straight-curve $-1 -49.664404141861354 -43.256897159624252 60.441310698052376 0 0 1 I I #
straight-curve $-1 -49.664404141861354 -43.256897159624245 3.1611488413710731 0 -0.77714595512881146 -0.62932039886446345 I I #
edge $-1 $693 -66.958375580208852 $385 -49.664404141861354 $550 $700 forward 7 unknown #
point $-1 -49.664404141861354 -43.256897159624252 10.452969066427222 #
point $-1 -49.664404141861354 -34.25224928287664 10.452969066427222 #
edge $-1 $701 1 $701 0 $388 $-1 forward 7 unknown #
vertex $-1 $389 $702 #
ellipse-curve $-1 -62.017240883538136 -36.787128322435287 4.3774668926662592 0 -0.62932039886446345 0.77714595512881146 1.5 0 0 1 I I #
point $-1 -60.517240883538136 -38.754573221250446 6.8070589538991424 #
edge $-1 $703 1 $703 0 $392 $-1 forward 7 unknown #
vertex $-1 $393 $704 #
ellipse-curve $-1 -54.60553883853207 -36.787128322435287 4.3774668926662592 0 -0.62932039886446345 0.77714595512881146 1.5 0 0 1 I I #
point $-1 -53.10553883853207 -38.754573221250446 6.8070589538991424 #
plane-surface $-1 0 0 10.452969066427222 0 0 1 1 0 0 forward_v I I I I #
coedge $-1 $577 $576 $569 $705 forward $397 $-1 #
coedge $-1 $569 $399 $401 $573 reversed $255 $-1 #
coedge $-1 $399 $568 $567 $705 reversed $255 $-1 #
coedge $-1 $407 $402 $399 $571 forward $408 $-1 #
edge $-1 $574 -35.040684696449354 $706 -26.036036819701742 $570 $707 forward 7 unknown #
coedge $-1 $401 $400 $577 $708 reversed $160 $-1 #
edge $-1 $709 -9.1551213131864128e-015 $574 11.586816887253939 $568 $710 forward 7 unknown #
vertex $-1 $403 $711 #
straight-curve $-1 -11.318445973347593 -34.25224928287664 10.452969066427222 -1 0 0 I I #
coedge $-1 $567 $404 $407 $581 reversed $397 $-1 #
coedge $-1 $404 $567 $572 $708 forward $397 $-1 #
vertex $-1 $405 $712 #
straight-curve $-1 -13.989906227521441 -43.256897159624252 60.441310698052376 0 0 1 I I #
straight-curve $-1 -13.989906227521441 -43.256897159624245 3.1611488413710731 0 -0.77714595512881146 -0.62932039886446345 I I #
edge $-1 $706 -31.283877665868932 $409 -13.989906227521441 $576 $713 forward 7 unknown #
point $-1 -13.989906227521441 -43.256897159624252 10.452969066427222 #
point $-1 -13.989906227521441 -34.25224928287664 10.452969066427222 #
edge $-1 $714 1 $714 0 $412 $-1 forward 7 unknown #
vertex $-1 $413 $715 #
ellipse-curve $-1 -26.34274296919822 -36.787128322435287 4.3774668926662592 0 -0.62932039886446345 0.77714595512881146 1.5 0 0 1 I I #
point $-1 -24.84274296919822 -38.754573221250446 6.8070589538991424 #
edge $-1 $716 1 $716 0 $416 $-1 forward 7 unknown #
vertex $-1 $417 $717 #
ellipse-curve $-1 -18.931040924192153 -36.787128322435287 4.3774668926662592 0 -0.62932039886446345 0.77714595512881146 1.5 0 0 1 I I #
point $-1 -17.431040924192153 -38.754573221250446 6.8070589538991424 #
plane-surface $-1 0 0 10.452969066427222 0 0 1 1 0 0 forward_v I I I I #
coedge $-1 $603 $602 $595 $718 forward $421 $-1 #
coedge $-1 $595 $423 $425 $599 reversed $277 $-1 #
coedge $-1 $423 $594 $593 $718 reversed $277 $-1 #
coedge $-1 $431 $426 $423 $597 forward $432 $-1 #
edge $-1 $600 -35.040684696449354 $719 -26.036036819701742 $596 $720 forward 7 unknown #
coedge $-1 $425 $424 $603 $721 reversed $174 $-1 #
edge $-1 $722 -9.1551213131864128e-015 $600 11.586816887253939 $594 $723 forward 7 unknown #
vertex $-1 $427 $724 #
straight-curve $-1 6.5188029838223684 -34.25224928287664 10.452969066427222 -1 0 0 I I #
coedge $-1 $593 $428 $431 $607 reversed $421 $-1 #
coedge $-1 $428 $593 $598 $721 forward $421 $-1 #
vertex $-1 $429 $725 #
straight-curve $-1 21.684591686818482 -43.256897159624252 60.441310698052376 0 0 1 I I #
straight-curve $-1 21.684591686818482 -43.256897159624245 3.1611488413710731 0 -0.77714595512881146 -0.62932039886446345 I I #
edge $-1 $719 4.3906202484709915 $433 21.684591686818482 $602 $726 forward 7 unknown #
point $-1 21.684591686818482 -43.256897159624252 10.452969066427222 #
point $-1 21.684591686818482 -34.25224928287664 10.452969066427222 #
edge $-1 $727 1 $727 0 $436 $-1 forward 7 unknown #
vertex $-1 $437 $728 #
ellipse-curve $-1 9.3317549451416966 -36.787128322435287 4.3774668926662592 0 -0.62932039886446345 0.77714595512881146 1.5 0 0 1 I I #
point $-1 10.831754945141697 -38.754573221250446 6.8070589538991424 #
edge $-1 $729 1 $729 0 $440 $-1 forward 7 unknown #
vertex $-1 $441 $730 #
ellipse-curve $-1 16.743456990147763 -36.787128322435287 4.3774668926662592 0 -0.62932039886446345 0.77714595512881146 1.5 0 0 1 I I #
point $-1 18.243456990147763 -38.754573221250446 6.8070589538991424 #
plane-surface $-1 0 0 10.452969066427222 0 0 1 1 0 0 forward_v I I I I #
coedge $-1 $629 $628 $621 $731 forward $445 $-1 #
coedge $-1 $621 $447 $449 $625 reversed $299 $-1 #
coedge $-1 $447 $620 $619 $731 reversed $299 $-1 #
coedge $-1 $455 $450 $447 $623 forward $456 $-1 #
edge $-1 $626 -35.040684696449354 $732 -26.036036819701742 $622 $733 forward 7 unknown #
coedge $-1 $449 $448 $629 $734 reversed $188 $-1 #
edge $-1 $735 -9.1551213131864128e-015 $626 11.586816887253939 $620 $736 forward 7 unknown #
vertex $-1 $451 $737 #
straight-curve $-1 24.35605194099233 -34.25224928287664 10.452969066427222 -1 0 0 I I #
coedge $-1 $619 $452 $455 $633 reversed $445 $-1 #
coedge $-1 $452 $619 $624 $734 forward $445 $-1 #
vertex $-1 $453 $738 #
straight-curve $-1 57.359089601158402 -43.256897159624252 60.441310698052376 0 0 1 I I #
straight-curve $-1 57.359089601158402 -43.256897159624245 3.1611488413710731 0 -0.77714595512881146 -0.62932039886446345 I I #
edge $-1 $732 40.065118162810919 $457 57.359089601158402 $628 $739 forward 7 unknown #
point $-1 57.359089601158402 -43.256897159624252 10.452969066427222 #
point $-1 57.359089601158402 -34.25224928287664 10.452969066427222 #
edge $-1 $740 1 $740 0 $460 $-1 forward 7 unknown #
vertex $-1 $461 $741 #
ellipse-curve $-1 45.006252859481606 -36.787128322435287 4.3774668926662592 0 -0.62932039886446345 0.77714595512881146 1.5 0 0 1 I I #
point $-1 46.506252859481606 -38.754573221250446 6.8070589538991424 #
edge $-1 $742 1 $742 0 $464 $-1 forward 7 unknown #
vertex $-1 $465 $743 #
ellipse-curve $-1 52.417954904487686 -36.787128322435287 4.3774668926662592 0 -0.62932039886446345 0.77714595512881146 1.5 0 0 1 I I #
point $-1 53.917954904487686 -38.754573221250446 6.8070589538991424 #
plane-surface $-1 75.739616077150799 0 0 -1 0 0 0 0 1 forward_v I I I I #
coedge $-1 $488 $474 $479 $653 forward $469 $-1 #
vertex $-1 $472 $744 #
vertex $-1 $652 $745 #
straight-curve $-1 75.739616077150799 0 -10.452969066427222 0 -1 0 I I #
straight-curve $-1 0 43.256897159624252 10.452969066427222 -1 0 0 I I #
coedge $-1 $476 $485 $478 $652 reversed $321 $-1 #
straight-curve $-1 0 -43.256897159624252 10.452969066427222 1 0 0 I I #
edge $-1 $481 -10.452969066427222 $647 10.452969066427222 $478 $746 forward 7 unknown #
edge $-1 $482 -10.452969066427222 $646 10.452969066427222 $479 $747 forward 7 unknown #
point $-1 75.739616077150799 -43.256897159624252 10.452969066427222 #
point $-1 75.739616077150799 43.256897159624252 10.452969066427222 #
straight-curve $-1 -75.739616077150799 0 10.452969066427222 0 -1 0 I I #
point $-1 -75.739616077150799 -43.256897159624252 10.452969066427222 #
point $-1 -75.739616077150799 43.256897159624252 10.452969066427222 #
straight-curve $-1 0 43.256897159624252 -10.452969066427222 1 0 0 I I #
straight-curve $-1 0 -43.256897159624252 -10.452969066427222 -1 0 0 I I #
plane-surface $-1 0 0 10.452969066427222 0 0 1 1 0 0 forward_v I I I I #
coedge $-1 $500 $497 $502 $669 reversed $339 $-1 #
coedge $-1 $497 $500 $675 $748 reversed $339 $-1 #
edge $-1 $677 -10.452969066427222 $671 10.452969066427222 $514 $749 forward 7 unknown #
edge $-1 $666 -4.3906202484709809 $512 4.3906202484709809 $499 $750 forward 7 unknown #
vertex $-1 $748 $751 #
vertex $-1 $669 $752 #
straight-curve $-1 -84.520856574092761 -27.987784882354866 0 0 0 -1 I I #
edge $-1 $667 -2.8184129277925294 $671 2.8184129277925294 $662 $753 forward 7 unknown #
straight-curve $-1 -80.13023632562178 -27.987784882354866 -10.452969066427222 -1 0 0 I I #
vertex $-1 $504 $754 #
straight-curve $-1 -80.13023632562178 -22.350959026769807 -10.452969066427222 1 0 0 I I #
point $-1 -75.739616077150799 -27.987784882354866 -10.452969066427222 #
straight-curve $-1 -75.739616077150799 -27.987784882354866 0 0 0 -1 I I #
coedge $-1 $510 $509 $663 $748 forward $511 $-1 #
point $-1 -75.739616077150799 -27.987784882354866 10.452969066427222 #
vertex $-1 $515 $755 #
straight-curve $-1 -80.13023632562178 -22.350959026769807 10.452969066427222 -1 0 0 I I #
coedge $-1 $529 $528 $521 $680 forward $518 $-1 #
edge $-1 $681 78.414281526752291 $684 85.533691993443256 $679 $756 forward 7 unknown #
vertex $-1 $533 $757 #
straight-curve $-1 32.392649475699798 23.558837560532421 10.452969066427215 0 1 0 I I #
edge $-1 $684 -22.193825475199191 $530 1.7961774741979752 $529 $758 forward 7 unknown #
vertex $-1 $683 $759 #
straight-curve $-1 32.392649475699798 -30.899898034358266 47.89145727181193 0 -0.85716729658548041 0.51503808176128008 I I #
point $-1 32.392649475699798 31.408208607999086 10.452969066427222 #
point $-1 8.4026465263026324 43.256897159624252 3.3335585997362571 #
straight-curve $-1 0 43.256897159624252 10.452969066427222 -1 0 0 I I #
vertex $-1 $536 $760 #
point $-1 21.897648001001215 35.322683061223884 3.5482787857142899 #
coedge $-1 $551 $550 $543 $692 forward $540 $-1 #
edge $-1 $693 49.988341631625154 $696 57.28016185668131 $691 $761 forward 7 unknown #
vertex $-1 $555 $762 #
straight-curve $-1 -66.958375580208852 -69.292933979325994 10.452969066427222 0 -1 0 I I #
edge $-1 $696 -37.802680649691297 $552 -20.508709211343803 $551 $763 forward 7 unknown #
vertex $-1 $695 $764 #
straight-curve $-1 -66.958375580208852 -43.256897159624245 3.1611488413710731 0 0.77714595512881146 0.62932039886446345 I I #
point $-1 -66.958375580208852 -34.25224928287664 10.452969066427222 #
point $-1 -49.664404141861354 -43.256897159624252 3.1611488413710673 #
straight-curve $-1 0 -43.256897159624252 10.452969066427222 1 0 0 I I #
vertex $-1 $558 $765 #
point $-1 -60.517240883538136 -36.787128322435287 4.3774668926662592 #
vertex $-1 $562 $766 #
point $-1 -53.10553883853207 -36.787128322435287 4.3774668926662592 #
edge $-1 $706 49.988341631625154 $709 57.28016185668131 $567 $767 forward 7 unknown #
vertex $-1 $581 $768 #
straight-curve $-1 -31.283877665868932 -69.292933979325994 10.452969066427222 0 -1 0 I I #
edge $-1 $709 -19.965431692521339 $578 -2.6714602541738479 $577 $769 forward 7 unknown #
vertex $-1 $708 $770 #
straight-curve $-1 -31.283877665868932 -43.256897159624245 3.1611488413710731 0 0.77714595512881146 0.62932039886446345 I I #
point $-1 -31.283877665868932 -34.25224928287664 10.452969066427222 #
point $-1 -13.989906227521441 -43.256897159624252 3.1611488413710673 #
straight-curve $-1 0 -43.256897159624252 10.452969066427222 1 0 0 I I #
vertex $-1 $584 $771 #
point $-1 -24.84274296919822 -36.787128322435287 4.3774668926662592 #
vertex $-1 $588 $772 #
point $-1 -17.431040924192153 -36.787128322435287 4.3774668926662592 #
edge $-1 $719 49.988341631625154 $722 57.28016185668131 $593 $773 forward 7 unknown #
vertex $-1 $607 $774 #
straight-curve $-1 4.3906202484709915 -69.292933979325994 10.452969066427222 0 -1 0 I I #
edge $-1 $722 -2.1281827353513769 $604 15.165788702996114 $603 $775 forward 7 unknown #
vertex $-1 $721 $776 #
straight-curve $-1 4.3906202484709915 -43.256897159624245 3.1611488413710731 0 0.77714595512881146 0.62932039886446345 I I #
point $-1 4.3906202484709915 -34.25224928287664 10.452969066427222 #
point $-1 21.684591686818482 -43.256897159624252 3.1611488413710673 #
straight-curve $-1 0 -43.256897159624252 10.452969066427222 1 0 0 I I #
vertex $-1 $610 $777 #
point $-1 10.831754945141697 -36.787128322435287 4.3774668926662592 #
vertex $-1 $614 $778 #
point $-1 18.243456990147763 -36.787128322435287 4.3774668926662592 #
edge $-1 $732 49.988341631625154 $735 57.28016185668131 $619 $779 forward 7 unknown #
vertex $-1 $633 $780 #
straight-curve $-1 40.065118162810919 -69.292933979325994 10.452969066427222 0 -1 0 I I #
edge $-1 $735 15.709066221818588 $630 33.003037660166072 $629 $781 forward 7 unknown #
vertex $-1 $734 $782 #
straight-curve $-1 40.065118162810919 -43.256897159624245 3.1611488413710731 0 0.77714595512881146 0.62932039886446345 I I #
point $-1 40.065118162810919 -34.25224928287664 10.452969066427222 #
point $-1 57.359089601158402 -43.256897159624252 3.1611488413710673 #
straight-curve $-1 0 -43.256897159624252 10.452969066427222 1 0 0 I I #
vertex $-1 $636 $783 #
point $-1 46.506252859481606 -36.787128322435287 4.3774668926662592 #
vertex $-1 $640 $784 #
point $-1 53.917954904487686 -36.787128322435287 4.3774668926662592 #
point $-1 75.739616077150799 43.256897159624252 -10.452969066427222 #
point $-1 75.739616077150799 -43.256897159624252 -10.452969066427222 #
straight-curve $-1 75.739616077150799 -43.256897159624252 0 0 0 -1 I I #
straight-curve $-1 75.739616077150799 43.256897159624252 0 0 0 -1 I I #
edge $-1 $677 -2.8184129277925294 $666 2.8184129277925294 $663 $785 forward 7 unknown #
straight-curve $-1 -84.520856574092761 -22.350959026769807 0 0 0 -1 I I #
straight-curve $-1 -80.13023632562178 -27.987784882354866 10.452969066427222 1 0 0 I I #
point $-1 -84.520856574092761 -27.987784882354866 10.452969066427222 #
point $-1 -84.520856574092761 -27.987784882354866 -10.452969066427222 #
straight-curve $-1 -84.520856574092761 -25.169371954562337 -10.452969066427222 0 1 0 I I #
point $-1 -84.520856574092761 -22.350959026769807 -10.452969066427222 #
point $-1 -84.520856574092761 -22.350959026769807 10.452969066427222 #
straight-curve $-1 32.392649475699798 43.256897159624252 88.867250593179506 0 0 -1 I I #
point $-1 32.392649475699798 43.256897159624252 10.452969066427222 #
straight-curve $-1 10.198824000500608 43.256897159624245 3.3335585997362642 -1 0 0 I I #
point $-1 32.392649475699798 43.256897159624252 3.3335585997362571 #
point $-1 20.397648001001215 34.550125938581971 2.2625278408360696 #
straight-curve $-1 -66.958375580208852 -43.256897159624252 60.441310698052376 0 0 -1 I I #
point $-1 -66.958375580208852 -43.256897159624252 10.452969066427222 #
straight-curve $-1 -29.155694930517551 -43.256897159624252 3.1611488413710642 1 0 0 I I #
point $-1 -66.958375580208852 -43.256897159624252 3.1611488413710673 #
point $-1 -62.017240883538136 -35.843147724138596 3.2117479599730423 #
point $-1 -54.60553883853207 -35.843147724138596 3.2117479599730423 #
straight-curve $-1 -31.283877665868932 -43.256897159624252 60.441310698052376 0 0 -1 I I #
point $-1 -31.283877665868932 -43.256897159624252 10.452969066427222 #
straight-curve $-1 -11.318445973347593 -43.256897159624252 3.1611488413710642 1 0 0 I I #
point $-1 -31.283877665868932 -43.256897159624252 3.1611488413710673 #
point $-1 -26.34274296919822 -35.843147724138596 3.2117479599730423 #
point $-1 -18.931040924192153 -35.843147724138596 3.2117479599730423 #
straight-curve $-1 4.3906202484709915 -43.256897159624252 60.441310698052376 0 0 -1 I I #
point $-1 4.3906202484709915 -43.256897159624252 10.452969066427222 #
straight-curve $-1 6.5188029838223684 -43.256897159624252 3.1611488413710642 1 0 0 I I #
point $-1 4.3906202484709915 -43.256897159624252 3.1611488413710673 #
point $-1 9.3317549451416966 -35.843147724138596 3.2117479599730423 #
point $-1 16.743456990147763 -35.843147724138596 3.2117479599730423 #
straight-curve $-1 40.065118162810919 -43.256897159624252 60.441310698052376 0 0 -1 I I #
point $-1 40.065118162810919 -43.256897159624252 10.452969066427222 #
straight-curve $-1 24.35605194099233 -43.256897159624252 3.1611488413710642 1 0 0 I I #
point $-1 40.065118162810919 -43.256897159624252 3.1611488413710673 #
point $-1 45.006252859481606 -35.843147724138596 3.2117479599730423 #
point $-1 52.417954904487686 -35.843147724138596 3.2117479599730423 #
straight-curve $-1 -84.520856574092761 -25.169371954562337 10.452969066427222 0 -1 0 I I #
End-of-ACIS-data 