500 0 4 0           
7 Unknown 11 ACIS 5.0 NT 24 Fri Mar 26 00:15:26 1999 
-1 9.9999999999999995e-007 1e-010 
body $-1 $4 $-1 $5 #
body $-1 $6 $-1 $7 #
body $-1 $8 $-1 $9 #
body $-1 $10 $-1 $11 #
lump $-1 $-1 $12 $0 #
transform $-1 1 0 0 0 1 0 0 0 1 55.635242774742878 28.666573729281637 10.222139574115587 1 rotate no_reflect no_shear #
lump $-1 $-1 $13 $1 #
transform $-1 1 0 0 0 1 0 0 0 1 1.6167558318690767 6.1031854130349625 10.222139574115587 1 rotate no_reflect no_shear #
lump $-1 $-1 $14 $2 #
transform $-1 1 0 0 0 0.57357642473473569 -0.81915205242281985 0 0.81915205242281985 0.57357642473473569 94.701822273361202 115.59565233243612 122.12013411704933 1 rotate no_reflect no_shear #
lump $-1 $-1 $15 $3 #
transform $-1 1 0 0 0 -0.57357642473473569 0.81915205242281985 0 -0.81915205242281985 -0.57357642473473569 94.701822273361202 51.990950476648251 14.381692698505645 1 rotate no_reflect no_shear #
shell $-1 $-1 $-1 $16 $-1 $4 #
shell $-1 $-1 $-1 $17 $-1 $6 #
shell $-1 $-1 $-1 $18 $-1 $8 #
shell $-1 $-1 $-1 $19 $-1 $10 #
face $-1 $20 $21 $12 $-1 $22 forward single #
face $-1 $23 $24 $13 $-1 $25 forward single #
face $-1 $26 $27 $14 $-1 $28 forward single #
face $-1 $29 $30 $15 $-1 $31 forward single #
face $-1 $32 $33 $12 $-1 $34 reversed single #
loop $-1 $-1 $35 $16 #
plane-surface $-1 0 0 10.222139574115587 0 0 1 1 0 0 forward_v I I I I #
face $-1 $36 $37 $13 $-1 $38 reversed single #
loop $-1 $-1 $39 $17 #
plane-surface $-1 0 0 10.222139574115587 0 0 1 1 0 0 forward_v I I I I #
face $-1 $40 $41 $14 $-1 $42 reversed single #
loop $-1 $-1 $43 $18 #
plane-surface $-1 0 0 111.27048554948576 0 0 1 1 0 0 forward_v I I I I #
face $-1 $44 $45 $15 $-1 $46 forward single #
loop $-1 $47 $48 $19 #
cone-surface $-1 0 0 -1.6888332773827326 0 0 1 1.5 0 0 1 I I 0 1 1.5 forward I I I I #
face $-1 $49 $50 $12 $-1 $51 reversed single #
loop $-1 $-1 $52 $20 #
plane-surface $-1 0 0 -10.222139574115587 0 0 1 1 0 0 forward_v I I I I #
coedge $-1 $53 $54 $55 $56 forward $21 $-1 #
face $-1 $57 $58 $13 $-1 $59 reversed single #
loop $-1 $-1 $60 $23 #
plane-surface $-1 0 0 -10.222139574115587 0 0 1 1 0 0 forward_v I I I I #
coedge $-1 $61 $62 $63 $64 forward $24 $-1 #
face $-1 $65 $66 $14 $-1 $67 reversed single #
loop $-1 $-1 $68 $26 #
plane-surface $-1 0 0 -111.27048554948576 0 0 1 1 0 0 forward_v I I I I #
coedge $-1 $69 $70 $71 $72 forward $27 $-1 #
face $-1 $-1 $73 $15 $-1 $74 forward single #
loop $-1 $-1 $75 $29 #
plane-surface $-1 0 0 -2.6276665547654652 0 0 -1 -1 0 0 forward_v I I I I #
loop $-1 $-1 $76 $19 #
coedge $-1 $48 $48 $75 $77 reversed $30 $-1 #
face $-1 $78 $79 $12 $-1 $80 reversed single #
loop $-1 $-1 $81 $32 #
plane-surface $-1 0 -28.666573729281637 0 0 1 0 0 0 1 forward_v I I I I #
coedge $-1 $82 $83 $84 $85 forward $33 $-1 #
coedge $-1 $86 $35 $87 $88 forward $21 $-1 #
coedge $-1 $35 $86 $89 $90 forward $21 $-1 #
coedge $-1 $91 $92 $35 $56 reversed $93 $-1 #
edge $-1 $94 -28.666573729281637 $95 28.666573729281637 $55 $96 forward 7 unknown #
face $-1 $97 $98 $13 $-1 $99 reversed single #
loop $-1 $-1 $100 $36 #
plane-surface $-1 0 -6.1031854130349625 0 0 1 0 0 0 1 forward_v I I I I #
coedge $-1 $101 $102 $103 $104 forward $37 $-1 #
coedge $-1 $105 $39 $106 $107 forward $24 $-1 #
coedge $-1 $39 $105 $108 $109 forward $24 $-1 #
coedge $-1 $110 $111 $39 $64 reversed $112 $-1 #
edge $-1 $113 -6.1031854130349625 $114 6.1031854130349625 $63 $115 forward 7 unknown #
face $-1 $116 $117 $14 $-1 $118 reversed single #
loop $-1 $-1 $119 $40 #
plane-surface $-1 0 -222.54097109897151 0 0 1 0 0 0 1 forward_v I I I I #
coedge $-1 $120 $121 $122 $123 forward $41 $-1 #
coedge $-1 $124 $43 $125 $126 forward $27 $-1 #
coedge $-1 $43 $124 $127 $128 forward $27 $-1 #
coedge $-1 $129 $130 $43 $72 reversed $131 $-1 #
edge $-1 $132 -222.54097109897151 $133 222.54097109897151 $71 $134 forward 7 unknown #
loop $-1 $135 $136 $44 #
cone-surface $-1 0 0 0 0 0 1 0.75 0 0 1 I I -0.70710678118654757 0.70710678118654757 0.75 forward I I I I #
coedge $-1 $75 $75 $48 $77 forward $45 $-1 #
coedge $-1 $76 $76 $136 $137 forward $47 $-1 #
edge $-1 $138 0 $138 6.2831853071796004 $75 $139 forward 7 unknown #
face $-1 $140 $141 $12 $-1 $142 reversed single #
loop $-1 $-1 $143 $49 #
plane-surface $-1 -55.635242774742878 0 0 1 0 0 0 0 -1 forward_v I I I I #
coedge $-1 $144 $89 $145 $146 forward $50 $-1 #
coedge $-1 $147 $52 $144 $148 forward $33 $-1 #
coedge $-1 $52 $147 $149 $150 forward $33 $-1 #
coedge $-1 $92 $91 $52 $85 reversed $93 $-1 #
edge $-1 $151 -28.666573729281637 $152 28.666573729281637 $84 $153 forward 7 unknown #
coedge $-1 $54 $53 $154 $155 forward $21 $-1 #
coedge $-1 $156 $157 $53 $88 reversed $141 $-1 #
edge $-1 $95 -55.635242774742878 $158 55.635242774742878 $87 $159 forward 7 unknown #
coedge $-1 $81 $160 $54 $90 reversed $50 $-1 #
edge $-1 $161 -55.635242774742878 $94 55.635242774742878 $89 $162 forward 7 unknown #
coedge $-1 $84 $55 $160 $163 forward $93 $-1 #
coedge $-1 $55 $84 $156 $164 reversed $93 $-1 #
loop $-1 $-1 $91 $140 #
vertex $-1 $56 $165 #
vertex $-1 $56 $166 #
straight-curve $-1 55.635242774742878 0 10.222139574115587 0 1 0 I I #
face $-1 $167 $168 $13 $-1 $169 reversed single #
loop $-1 $-1 $170 $57 #
plane-surface $-1 -1.6167558318690767 0 0 1 0 0 0 0 -1 forward_v I I I I #
coedge $-1 $171 $108 $172 $173 forward $58 $-1 #
coedge $-1 $174 $60 $171 $175 forward $37 $-1 #
coedge $-1 $60 $174 $176 $177 forward $37 $-1 #
coedge $-1 $111 $110 $60 $104 reversed $112 $-1 #
edge $-1 $178 -6.1031854130349625 $179 6.1031854130349625 $103 $180 forward 7 unknown #
coedge $-1 $62 $61 $181 $182 forward $24 $-1 #
coedge $-1 $183 $184 $61 $107 reversed $168 $-1 #
edge $-1 $114 -1.6167558318690767 $185 1.6167558318690767 $106 $186 forward 7 unknown #
coedge $-1 $100 $187 $62 $109 reversed $58 $-1 #
edge $-1 $188 -1.6167558318690767 $113 1.6167558318690767 $108 $189 forward 7 unknown #
coedge $-1 $103 $63 $187 $190 forward $112 $-1 #
coedge $-1 $63 $103 $183 $191 reversed $112 $-1 #
loop $-1 $-1 $110 $167 #
vertex $-1 $64 $192 #
vertex $-1 $64 $193 #
straight-curve $-1 1.6167558318690767 0 10.222139574115587 0 1 0 I I #
face $-1 $194 $195 $14 $-1 $196 reversed single #
loop $-1 $-1 $197 $65 #
plane-surface $-1 -16.568663276124553 0 0 1 0 0 0 0 -1 forward_v I I I I #
coedge $-1 $198 $127 $199 $200 forward $66 $-1 #
coedge $-1 $201 $68 $198 $202 forward $41 $-1 #
coedge $-1 $68 $201 $203 $204 forward $41 $-1 #
coedge $-1 $130 $129 $68 $123 reversed $131 $-1 #
edge $-1 $205 -222.54097109897151 $206 222.54097109897151 $122 $207 forward 7 unknown #
coedge $-1 $70 $69 $208 $209 forward $27 $-1 #
coedge $-1 $210 $211 $69 $126 reversed $195 $-1 #
edge $-1 $133 -16.568663276124553 $212 16.568663276124553 $125 $213 forward 7 unknown #
coedge $-1 $119 $214 $70 $128 reversed $66 $-1 #
edge $-1 $215 -16.568663276124553 $132 16.568663276124553 $127 $216 forward 7 unknown #
coedge $-1 $122 $71 $214 $217 forward $131 $-1 #
coedge $-1 $71 $122 $210 $218 reversed $131 $-1 #
loop $-1 $-1 $129 $194 #
vertex $-1 $72 $219 #
vertex $-1 $72 $220 #
straight-curve $-1 16.568663276124553 0 111.27048554948576 0 1 0 I I #
loop $-1 $-1 $221 $44 #
coedge $-1 $136 $136 $76 $137 reversed $73 $-1 #
edge $-1 $222 0 $222 6.2831853071796004 $136 $223 forward 7 unknown #
vertex $-1 $77 $224 #
ellipse-curve $-1 0 0 -2.6276665547654652 0 0 -1 1.5 0 0 1 I I #
face $-1 $-1 $93 $12 $-1 $225 reversed single #
loop $-1 $-1 $156 $78 #
plane-surface $-1 0 28.666573729281637 0 0 -1 0 0 0 -1 forward_v I I I I #
coedge $-1 $226 $154 $157 $227 forward $79 $-1 #
coedge $-1 $160 $81 $82 $148 reversed $50 $-1 #
coedge $-1 $154 $226 $81 $146 reversed $79 $-1 #
edge $-1 $161 -10.222139574115587 $228 10.222139574115587 $145 $229 forward 7 unknown #
coedge $-1 $83 $82 $226 $230 forward $33 $-1 #
edge $-1 $152 -55.635242774742878 $228 55.635242774742878 $144 $231 forward 7 unknown #
coedge $-1 $157 $156 $83 $150 reversed $141 $-1 #
edge $-1 $232 -55.635242774742878 $151 55.635242774742878 $149 $233 forward 7 unknown #
vertex $-1 $85 $234 #
vertex $-1 $163 $235 #
straight-curve $-1 55.635242774742878 0 -10.222139574115587 0 -1 0 I I #
coedge $-1 $143 $145 $86 $155 reversed $79 $-1 #
edge $-1 $158 -28.666573729281637 $161 28.666573729281637 $154 $236 forward 7 unknown #
coedge $-1 $149 $87 $92 $164 forward $141 $-1 #
coedge $-1 $87 $149 $143 $227 reversed $141 $-1 #
vertex $-1 $88 $237 #
straight-curve $-1 0 28.666573729281637 10.222139574115587 -1 0 0 I I #
coedge $-1 $89 $144 $91 $163 reversed $50 $-1 #
vertex $-1 $155 $238 #
straight-curve $-1 0 -28.666573729281637 10.222139574115587 1 0 0 I I #
edge $-1 $94 -10.222139574115587 $152 10.222139574115587 $91 $239 forward 7 unknown #
edge $-1 $95 -10.222139574115587 $151 10.222139574115587 $92 $240 forward 7 unknown #
point $-1 55.635242774742878 -28.666573729281637 10.222139574115587 #
point $-1 55.635242774742878 28.666573729281637 10.222139574115587 #
face $-1 $-1 $112 $13 $-1 $241 reversed single #
loop $-1 $-1 $183 $97 #
plane-surface $-1 0 6.1031854130349625 0 0 -1 0 0 0 -1 forward_v I I I I #
coedge $-1 $242 $181 $184 $243 forward $98 $-1 #
coedge $-1 $187 $100 $101 $175 reversed $58 $-1 #
coedge $-1 $181 $242 $100 $173 reversed $98 $-1 #
edge $-1 $188 -10.222139574115587 $244 10.222139574115587 $172 $245 forward 7 unknown #
coedge $-1 $102 $101 $242 $246 forward $37 $-1 #
edge $-1 $179 -1.6167558318690767 $244 1.6167558318690767 $171 $247 forward 7 unknown #
coedge $-1 $184 $183 $102 $177 reversed $168 $-1 #
edge $-1 $248 -1.6167558318690767 $178 1.6167558318690767 $176 $249 forward 7 unknown #
vertex $-1 $104 $250 #
vertex $-1 $190 $251 #
straight-curve $-1 1.6167558318690767 0 -10.222139574115587 0 -1 0 I I #
coedge $-1 $170 $172 $105 $182 reversed $98 $-1 #
edge $-1 $185 -6.1031854130349625 $188 6.1031854130349625 $181 $252 forward 7 unknown #
coedge $-1 $176 $106 $111 $191 forward $168 $-1 #
coedge $-1 $106 $176 $170 $243 reversed $168 $-1 #
vertex $-1 $107 $253 #
straight-curve $-1 0 6.1031854130349625 10.222139574115587 -1 0 0 I I #
coedge $-1 $108 $171 $110 $190 reversed $58 $-1 #
vertex $-1 $182 $254 #
straight-curve $-1 0 -6.1031854130349625 10.222139574115587 1 0 0 I I #
edge $-1 $113 -10.222139574115587 $179 10.222139574115587 $110 $255 forward 7 unknown #
edge $-1 $114 -10.222139574115587 $178 10.222139574115587 $111 $256 forward 7 unknown #
point $-1 1.6167558318690767 -6.1031854130349625 10.222139574115587 #
point $-1 1.6167558318690767 6.1031854130349625 10.222139574115587 #
face $-1 $-1 $131 $14 $-1 $257 reversed single #
loop $-1 $-1 $210 $116 #
plane-surface $-1 0 222.54097109897151 0 0 -1 0 0 0 -1 forward_v I I I I #
coedge $-1 $258 $208 $211 $259 forward $117 $-1 #
coedge $-1 $214 $119 $120 $202 reversed $66 $-1 #
coedge $-1 $208 $258 $119 $200 reversed $117 $-1 #
edge $-1 $215 -111.27048554948576 $260 111.27048554948576 $199 $261 forward 7 unknown #
coedge $-1 $121 $120 $258 $262 forward $41 $-1 #
edge $-1 $206 -16.568663276124553 $260 16.568663276124553 $198 $263 forward 7 unknown #
coedge $-1 $211 $210 $121 $204 reversed $195 $-1 #
edge $-1 $264 -16.568663276124553 $205 16.568663276124553 $203 $265 forward 7 unknown #
vertex $-1 $123 $266 #
vertex $-1 $217 $267 #
straight-curve $-1 16.568663276124553 0 -111.27048554948576 0 -1 0 I I #
coedge $-1 $197 $199 $124 $209 reversed $117 $-1 #
edge $-1 $212 -222.54097109897151 $215 222.54097109897151 $208 $268 forward 7 unknown #
coedge $-1 $203 $125 $130 $218 forward $195 $-1 #
coedge $-1 $125 $203 $197 $259 reversed $195 $-1 #
vertex $-1 $126 $269 #
straight-curve $-1 0 222.54097109897151 111.27048554948576 -1 0 0 I I #
coedge $-1 $127 $198 $129 $217 reversed $66 $-1 #
vertex $-1 $209 $270 #
straight-curve $-1 0 -222.54097109897151 111.27048554948576 1 0 0 I I #
edge $-1 $132 -111.27048554948576 $206 111.27048554948576 $129 $271 forward 7 unknown #
edge $-1 $133 -111.27048554948576 $205 111.27048554948576 $130 $272 forward 7 unknown #
point $-1 16.568663276124553 -222.54097109897151 111.27048554948576 #
point $-1 16.568663276124553 222.54097109897151 111.27048554948576 #
coedge $-1 $221 $221 $-1 $273 reversed $135 $-1 #
vertex $-1 $137 $274 #
ellipse-curve $-1 0 0 -0.75 0 0 -1 1.5 0 0 1 I I #
point $-1 1.5 0 -2.6276665547654652 #
plane-surface $-1 55.635242774742878 0 0 -1 0 0 0 0 1 forward_v I I I I #
coedge $-1 $145 $143 $147 $230 reversed $79 $-1 #
edge $-1 $158 -10.222139574115587 $232 10.222139574115587 $157 $275 forward 7 unknown #
vertex $-1 $230 $276 #
straight-curve $-1 -55.635242774742878 -28.666573729281637 0 0 0 -1 I I #
edge $-1 $228 -28.666573729281637 $232 28.666573729281637 $226 $277 forward 7 unknown #
straight-curve $-1 0 -28.666573729281637 -10.222139574115587 -1 0 0 I I #
vertex $-1 $150 $278 #
straight-curve $-1 0 28.666573729281637 -10.222139574115587 1 0 0 I I #
point $-1 55.635242774742878 28.666573729281637 -10.222139574115587 #
point $-1 55.635242774742878 -28.666573729281637 -10.222139574115587 #
straight-curve $-1 -55.635242774742878 0 10.222139574115587 0 -1 0 I I #
point $-1 -55.635242774742878 28.666573729281637 10.222139574115587 #
point $-1 -55.635242774742878 -28.666573729281637 10.222139574115587 #
straight-curve $-1 55.635242774742878 -28.666573729281637 0 0 0 -1 I I #
straight-curve $-1 55.635242774742878 28.666573729281637 0 0 0 -1 I I #
plane-surface $-1 1.6167558318690767 0 0 -1 0 0 0 0 1 forward_v I I I I #
coedge $-1 $172 $170 $174 $246 reversed $98 $-1 #
edge $-1 $185 -10.222139574115587 $248 10.222139574115587 $184 $279 forward 7 unknown #
vertex $-1 $246 $280 #
straight-curve $-1 -1.6167558318690767 -6.1031854130349625 0 0 0 -1 I I #
edge $-1 $244 -6.1031854130349625 $248 6.1031854130349625 $242 $281 forward 7 unknown #
straight-curve $-1 0 -6.1031854130349625 -10.222139574115587 -1 0 0 I I #
vertex $-1 $177 $282 #
straight-curve $-1 0 6.1031854130349625 -10.222139574115587 1 0 0 I I #
point $-1 1.6167558318690767 6.1031854130349625 -10.222139574115587 #
point $-1 1.6167558318690767 -6.1031854130349625 -10.222139574115587 #
straight-curve $-1 -1.6167558318690767 0 10.222139574115587 0 -1 0 I I #
point $-1 -1.6167558318690767 6.1031854130349625 10.222139574115587 #
point $-1 -1.6167558318690767 -6.1031854130349625 10.222139574115587 #
straight-curve $-1 1.6167558318690767 -6.1031854130349625 0 0 0 -1 I I #
straight-curve $-1 1.6167558318690767 6.1031854130349625 0 0 0 -1 I I #
plane-surface $-1 16.568663276124553 0 0 -1 0 0 0 0 1 forward_v I I I I #
coedge $-1 $199 $197 $201 $262 reversed $117 $-1 #
edge $-1 $212 -111.27048554948576 $264 111.27048554948576 $211 $283 forward 7 unknown #
vertex $-1 $262 $284 #
straight-curve $-1 -16.568663276124553 -222.54097109897151 0 0 0 -1 I I #
edge $-1 $260 -222.54097109897151 $264 222.54097109897151 $258 $285 forward 7 unknown #
straight-curve $-1 0 -222.54097109897151 -111.27048554948576 -1 0 0 I I #
vertex $-1 $204 $286 #
straight-curve $-1 0 222.54097109897151 -111.27048554948576 1 0 0 I I #
point $-1 16.568663276124553 222.54097109897151 -111.27048554948576 #
point $-1 16.568663276124553 -222.54097109897151 -111.27048554948576 #
straight-curve $-1 -16.568663276124553 0 111.27048554948576 0 -1 0 I I #
point $-1 -16.568663276124553 222.54097109897151 111.27048554948576 #
point $-1 -16.568663276124553 -222.54097109897151 111.27048554948576 #
straight-curve $-1 16.568663276124553 -222.54097109897151 0 0 0 -1 I I #
straight-curve $-1 16.568663276124553 222.54097109897151 0 0 0 -1 I I #
edge $-1 $287 1 $287 0 $221 $-1 forward 7 unknown #
point $-1 1.5 0 -0.75 #
straight-curve $-1 -55.635242774742878 28.666573729281637 0 0 0 -1 I I #
point $-1 -55.635242774742878 -28.666573729281637 -10.222139574115587 #
straight-curve $-1 -55.635242774742878 0 -10.222139574115587 0 1 0 I I #
point $-1 -55.635242774742878 28.666573729281637 -10.222139574115587 #
straight-curve $-1 -1.6167558318690767 6.1031854130349625 0 0 0 -1 I I #
point $-1 -1.6167558318690767 -6.1031854130349625 -10.222139574115587 #
straight-curve $-1 -1.6167558318690767 0 -10.222139574115587 0 1 0 I I #
point $-1 -1.6167558318690767 6.1031854130349625 -10.222139574115587 #
straight-curve $-1 -16.568663276124553 222.54097109897151 0 0 0 -1 I I #
point $-1 -16.568663276124553 -222.54097109897151 -111.27048554948576 #
straight-curve $-1 -16.568663276124553 0 -111.27048554948576 0 1 0 I I #
point $-1 -16.568663276124553 222.54097109897151 -111.27048554948576 #
vertex $-1 $273 $288 #
point $-1 0 0 0.75 #
End-of-ACIS-data 