500 0 2 0           
7 Unknown 11 ACIS 5.0 NT 24 Thu Mar 25 16:17:18 1999 
-1 9.9999999999999995e-007 1e-010 
body $-1 $2 $-1 $3 #
body $-1 $4 $-1 $5 #
lump $-1 $-1 $6 $0 #
transform $-1 1 0 0 0 1 0 0 0 1 55.564439832758566 22.795545877981105 10.898966017560076 1 rotate no_reflect no_shear #
lump $-1 $-1 $7 $1 #
transform $-1 1 0 0 0 1 0 0 0 1 55.564439832758566 22.795545877981105 10.898966017560076 1 rotate no_reflect no_shear #
shell $-1 $-1 $-1 $8 $-1 $2 #
shell $-1 $-1 $-1 $9 $-1 $4 #
face $-1 $10 $11 $6 $-1 $12 forward single #
face $-1 $13 $14 $7 $-1 $15 forward single #
face $-1 $16 $17 $6 $-1 $18 reversed single #
loop $-1 $-1 $19 $8 #
plane-surface $-1 0 0 10.898966017560076 0 0 1 1 0 0 forward_v I I I I #
face $-1 $20 $21 $7 $-1 $22 reversed single #
loop $-1 $-1 $23 $9 #
plane-surface $-1 0 -22.795545877981105 0 0 1 0 0 0 1 forward_v I I I I #
face $-1 $24 $25 $6 $-1 $26 reversed single #
loop $-1 $-1 $27 $10 #
plane-surface $-1 0 0 -10.898966017560076 0 0 1 1 0 0 forward_v I I I I #
coedge $-1 $28 $29 $30 $31 forward $11 $-1 #
face $-1 $32 $33 $7 $-1 $34 forward single #
loop $-1 $-1 $35 $13 #
plane-surface $-1 -55.564439832758566 0 0 1 0 0 0 0 -1 forward_v I I I I #
coedge $-1 $36 $37 $38 $39 forward $14 $-1 #
face $-1 $40 $41 $6 $-1 $42 reversed single #
loop $-1 $-1 $43 $16 #
plane-surface $-1 0 -22.795545877981105 0 0 1 0 0 0 1 forward_v I I I I #
coedge $-1 $44 $45 $46 $47 forward $17 $-1 #
coedge $-1 $48 $19 $49 $50 forward $11 $-1 #
coedge $-1 $19 $48 $51 $52 forward $11 $-1 #
coedge $-1 $53 $54 $19 $31 reversed $55 $-1 #
edge $-1 $56 -22.795545877981105 $57 22.795545877981105 $30 $58 forward 7 unknown #
face $-1 $59 $60 $7 $-1 $61 reversed single #
loop $-1 $-1 $62 $20 #
plane-surface $-1 0 -27.938020444297447 -3.3066254484901485 0 0 1 1 0 0 forward_v I I I I #
coedge $-1 $63 $64 $37 $65 forward $21 $-1 #
coedge $-1 $66 $23 $67 $68 reversed $14 $-1 #
coedge $-1 $23 $66 $35 $65 reversed $14 $-1 #
coedge $-1 $69 $62 $23 $39 reversed $33 $-1 #
edge $-1 $70 -55.564439832758566 $71 55.564439832758566 $38 $72 forward 7 unknown #
face $-1 $73 $74 $6 $-1 $75 reversed single #
loop $-1 $-1 $76 $24 #
plane-surface $-1 -55.564439832758566 0 0 1 0 0 0 0 -1 forward_v I I I I #
coedge $-1 $77 $51 $78 $79 forward $25 $-1 #
coedge $-1 $80 $27 $77 $81 forward $17 $-1 #
coedge $-1 $27 $80 $82 $83 forward $17 $-1 #
coedge $-1 $54 $53 $27 $47 reversed $55 $-1 #
edge $-1 $84 -22.795545877981105 $85 22.795545877981105 $46 $86 forward 7 unknown #
coedge $-1 $29 $28 $87 $88 forward $11 $-1 #
coedge $-1 $89 $90 $28 $50 reversed $74 $-1 #
edge $-1 $57 -55.564439832758566 $91 55.564439832758566 $49 $92 forward 7 unknown #
coedge $-1 $43 $93 $29 $52 reversed $25 $-1 #
edge $-1 $94 -55.564439832758566 $56 55.564439832758566 $51 $95 forward 7 unknown #
coedge $-1 $46 $30 $93 $96 forward $55 $-1 #
coedge $-1 $30 $46 $89 $97 reversed $55 $-1 #
loop $-1 $-1 $53 $73 #
vertex $-1 $31 $98 #
vertex $-1 $31 $99 #
straight-curve $-1 55.564439832758566 0 10.898966017560076 0 1 0 I I #
face $-1 $100 $101 $7 $-1 $102 reversed single #
loop $-1 $-1 $103 $32 #
plane-surface $-1 0 -27.938020444297447 -7.992778365601783 0 0 1 1 0 0 forward_v I I I I #
coedge $-1 $38 $104 $105 $106 forward $33 $-1 #
coedge $-1 $107 $35 $108 $109 reversed $21 $-1 #
coedge $-1 $35 $107 $69 $110 reversed $21 $-1 #
edge $-1 $70 3.3066254484901485 $111 7.992778365601783 $35 $112 forward 7 unknown #
coedge $-1 $37 $36 $113 $114 forward $14 $-1 #
coedge $-1 $105 $115 $36 $68 forward $116 $-1 #
edge $-1 $117 -7.992778365601783 $71 -3.3066254484901485 $67 $118 forward 7 unknown #
coedge $-1 $104 $38 $64 $110 forward $33 $-1 #
vertex $-1 $65 $119 #
vertex $-1 $106 $120 #
straight-curve $-1 0 -22.795545877981105 -3.3066254484901485 1 0 0 I I #
face $-1 $-1 $55 $6 $-1 $121 reversed single #
loop $-1 $-1 $89 $40 #
plane-surface $-1 0 22.795545877981105 0 0 -1 0 0 0 -1 forward_v I I I I #
coedge $-1 $122 $87 $90 $123 forward $41 $-1 #
coedge $-1 $93 $43 $44 $81 reversed $25 $-1 #
coedge $-1 $87 $122 $43 $79 reversed $41 $-1 #
edge $-1 $94 -10.898966017560076 $124 10.898966017560076 $78 $125 forward 7 unknown #
coedge $-1 $45 $44 $122 $126 forward $17 $-1 #
edge $-1 $85 -55.564439832758566 $124 55.564439832758566 $77 $127 forward 7 unknown #
coedge $-1 $90 $89 $45 $83 reversed $74 $-1 #
edge $-1 $128 -55.564439832758566 $84 55.564439832758566 $82 $129 forward 7 unknown #
vertex $-1 $47 $130 #
vertex $-1 $96 $131 #
straight-curve $-1 55.564439832758566 0 -10.898966017560076 0 -1 0 I I #
coedge $-1 $76 $78 $48 $88 reversed $41 $-1 #
edge $-1 $91 -22.795545877981105 $94 22.795545877981105 $87 $132 forward 7 unknown #
coedge $-1 $82 $49 $54 $97 forward $74 $-1 #
coedge $-1 $49 $82 $76 $123 reversed $74 $-1 #
vertex $-1 $50 $133 #
straight-curve $-1 0 22.795545877981105 10.898966017560076 -1 0 0 I I #
coedge $-1 $51 $77 $53 $96 reversed $25 $-1 #
vertex $-1 $88 $134 #
straight-curve $-1 0 -22.795545877981105 10.898966017560076 1 0 0 I I #
edge $-1 $56 -10.898966017560076 $85 10.898966017560076 $53 $135 forward 7 unknown #
edge $-1 $57 -10.898966017560076 $84 10.898966017560076 $54 $136 forward 7 unknown #
point $-1 55.564439832758566 -22.795545877981105 10.898966017560076 #
point $-1 55.564439832758566 22.795545877981105 10.898966017560076 #
face $-1 $-1 $116 $7 $-1 $137 reversed single #
loop $-1 $-1 $138 $59 #
plane-surface $-1 0 -33.080495010613788 -5.6497019070459658 0 1 0 0 0 1 forward_v I I I I #
coedge $-1 $139 $113 $115 $140 forward $60 $-1 #
coedge $-1 $62 $69 $141 $142 forward $33 $-1 #
coedge $-1 $143 $67 $62 $106 reversed $116 $-1 #
edge $-1 $144 -5.1424745663163414 $71 5.1424745663163414 $105 $145 forward 7 unknown #
coedge $-1 $64 $63 $138 $146 reversed $21 $-1 #
coedge $-1 $113 $139 $63 $109 forward $60 $-1 #
edge $-1 $147 -5.1424745663163414 $111 5.1424745663163414 $63 $148 forward 7 unknown #
edge $-1 $70 -5.1424745663163414 $149 5.1424745663163414 $64 $150 forward 7 unknown #
vertex $-1 $65 $151 #
straight-curve $-1 -55.564439832758566 -22.795545877981105 0 0 0 -1 I I #
coedge $-1 $103 $108 $66 $114 reversed $60 $-1 #
edge $-1 $117 -55.564439832758566 $111 55.564439832758566 $113 $152 forward 7 unknown #
coedge $-1 $67 $143 $103 $140 reversed $116 $-1 #
loop $-1 $-1 $67 $100 #
vertex $-1 $68 $153 #
straight-curve $-1 55.564439832758566 -22.795545877981105 0 0 0 1 I I #
point $-1 -55.564439832758566 -22.795545877981105 -3.3066254484901485 #
point $-1 55.564439832758566 -22.795545877981105 -3.3066254484901485 #
plane-surface $-1 55.564439832758566 0 0 -1 0 0 0 0 1 forward_v I I I I #
coedge $-1 $78 $76 $80 $126 reversed $41 $-1 #
edge $-1 $91 -10.898966017560076 $128 10.898966017560076 $90 $154 forward 7 unknown #
vertex $-1 $126 $155 #
straight-curve $-1 -55.564439832758566 -22.795545877981105 0 0 0 -1 I I #
edge $-1 $124 -22.795545877981105 $128 22.795545877981105 $122 $156 forward 7 unknown #
straight-curve $-1 0 -22.795545877981105 -10.898966017560076 -1 0 0 I I #
vertex $-1 $83 $157 #
straight-curve $-1 0 22.795545877981105 -10.898966017560076 1 0 0 I I #
point $-1 55.564439832758566 22.795545877981105 -10.898966017560076 #
point $-1 55.564439832758566 -22.795545877981105 -10.898966017560076 #
straight-curve $-1 -55.564439832758566 0 10.898966017560076 0 -1 0 I I #
point $-1 -55.564439832758566 22.795545877981105 10.898966017560076 #
point $-1 -55.564439832758566 -22.795545877981105 10.898966017560076 #
straight-curve $-1 55.564439832758566 -22.795545877981105 0 0 0 -1 I I #
straight-curve $-1 55.564439832758566 22.795545877981105 0 0 0 -1 I I #
plane-surface $-1 55.564439832758566 0 0 -1 0 0 0 0 1 forward_v I I I I #
coedge $-1 $158 $141 $107 $146 forward $101 $-1 #
coedge $-1 $108 $103 $158 $159 forward $60 $-1 #
edge $-1 $117 -5.1424745663163414 $160 5.1424745663163414 $115 $161 forward 7 unknown #
coedge $-1 $138 $162 $104 $142 reversed $101 $-1 #
edge $-1 $149 -55.564439832758566 $144 55.564439832758566 $141 $163 forward 7 unknown #
coedge $-1 $115 $105 $162 $164 forward $116 $-1 #
vertex $-1 $106 $165 #
straight-curve $-1 55.564439832758566 -27.938020444297447 -3.3066254484901485 0 1 0 I I #
edge $-1 $149 -2.3430764585558173 $147 2.3430764585558173 $107 $166 forward 7 unknown #
vertex $-1 $109 $167 #
straight-curve $-1 -55.564439832758566 -27.938020444297447 -7.992778365601783 0 1 0 I I #
vertex $-1 $110 $168 #
straight-curve $-1 -55.564439832758566 -27.938020444297447 -3.3066254484901485 0 -1 0 I I #
point $-1 -55.564439832758566 -22.795545877981105 -7.992778365601783 #
straight-curve $-1 0 -22.795545877981105 -7.992778365601783 -1 0 0 I I #
point $-1 55.564439832758566 -22.795545877981105 -7.992778365601783 #
straight-curve $-1 -55.564439832758566 22.795545877981105 0 0 0 -1 I I #
point $-1 -55.564439832758566 -22.795545877981105 -10.898966017560076 #
straight-curve $-1 -55.564439832758566 0 -10.898966017560076 0 1 0 I I #
point $-1 -55.564439832758566 22.795545877981105 -10.898966017560076 #
coedge $-1 $162 $138 $139 $159 reversed $101 $-1 #
edge $-1 $160 -55.564439832758566 $147 55.564439832758566 $158 $169 forward 7 unknown #
vertex $-1 $164 $170 #
straight-curve $-1 55.564439832758566 -27.938020444297447 -7.992778365601783 0 -1 0 I I #
coedge $-1 $141 $158 $143 $164 reversed $101 $-1 #
straight-curve $-1 0 -33.080495010613788 -3.3066254484901485 1 0 0 I I #
edge $-1 $144 -2.3430764585558173 $160 2.3430764585558173 $143 $171 forward 7 unknown #
point $-1 55.564439832758566 -33.080495010613788 -3.3066254484901485 #
straight-curve $-1 -55.564439832758566 -33.080495010613788 -5.6497019070459658 0 0 -1 I I #
point $-1 -55.564439832758566 -33.080495010613788 -7.992778365601783 #
point $-1 -55.564439832758566 -33.080495010613788 -3.3066254484901485 #
straight-curve $-1 0 -33.080495010613788 -7.992778365601783 -1 0 0 I I #
point $-1 55.564439832758566 -33.080495010613788 -7.992778365601783 #
straight-curve $-1 55.564439832758566 -33.080495010613788 -5.6497019070459658 0 0 -1 I I #
End-of-ACIS-data 