500 0 17 0           
7 Unknown 11 ACIS 5.0 NT 24 Fri Mar 26 03:00:28 1999 
-1 9.9999999999999995e-007 1e-010 
body $-1 $17 $-1 $18 #
body $-1 $19 $-1 $20 #
body $-1 $21 $-1 $22 #
body $-1 $23 $-1 $24 #
body $-1 $25 $-1 $26 #
body $-1 $27 $-1 $28 #
body $-1 $29 $-1 $30 #
body $-1 $31 $-1 $32 #
body $-1 $33 $-1 $34 #
body $-1 $35 $-1 $36 #
body $-1 $37 $-1 $38 #
body $-1 $39 $-1 $40 #
body $-1 $41 $-1 $42 #
body $-1 $43 $-1 $44 #
body $-1 $45 $-1 $46 #
body $-1 $47 $-1 $48 #
body $-1 $49 $-1 $50 #
lump $-1 $-1 $51 $0 #
transform $-1 1 0 0 0 1 0 0 0 1 54.10199285866878 30.714319026933453 10.534748029416781 1 rotate no_reflect no_shear #
lump $-1 $-1 $52 $1 #
transform $-1 1 0 0 0 1 0 0 0 1 54.10199285866878 30.714319026933453 10.534748029416781 1 rotate no_reflect no_shear #
lump $-1 $-1 $53 $2 #
transform $-1 1 0 0 0 1 0 0 0 1 54.10199285866878 30.714319026933453 10.534748029416781 1 rotate no_reflect no_shear #
lump $-1 $-1 $54 $3 #
transform $-1 1 0 0 0 1 0 0 0 1 54.10199285866878 30.714319026933453 10.534748029416781 1 rotate no_reflect no_shear #
lump $-1 $-1 $55 $4 #
transform $-1 1 0 0 0 1 0 0 0 1 54.10199285866878 30.714319026933453 10.534748029416781 1 rotate no_reflect no_shear #
lump $-1 $-1 $56 $5 #
transform $-1 1 0 0 0 1 0 0 0 1 54.10199285866878 30.714319026933453 10.534748029416781 1 rotate no_reflect no_shear #
lump $-1 $-1 $57 $6 #
transform $-1 1 0 0 0 1 0 0 0 1 54.10199285866878 30.714319026933453 10.534748029416781 1 rotate no_reflect no_shear #
lump $-1 $-1 $58 $7 #
transform $-1 1 0 0 0 1 0 0 0 1 54.10199285866878 30.714319026933453 10.534748029416781 1 rotate no_reflect no_shear #
lump $-1 $-1 $59 $8 #
transform $-1 1 0 0 0 1 0 0 0 1 54.10199285866878 30.714319026933453 10.534748029416781 1 rotate no_reflect no_shear #
lump $-1 $-1 $60 $9 #
transform $-1 1 0 0 0 1 0 0 0 1 54.10199285866878 30.714319026933453 10.534748029416781 1 rotate no_reflect no_shear #
lump $-1 $-1 $61 $10 #
transform $-1 1 0 0 0 1 0 0 0 1 54.10199285866878 30.714319026933453 10.534748029416781 1 rotate no_reflect no_shear #
lump $-1 $-1 $62 $11 #
transform $-1 1 0 0 0 1 0 0 0 1 54.10199285866878 30.714319026933453 10.534748029416781 1 rotate no_reflect no_shear #
lump $-1 $-1 $63 $12 #
transform $-1 1 0 0 0 1 0 0 0 1 54.10199285866878 30.714319026933453 10.534748029416781 1 rotate no_reflect no_shear #
lump $-1 $-1 $64 $13 #
transform $-1 1 0 0 0 1 0 0 0 1 54.10199285866878 30.714319026933453 10.534748029416781 1 rotate no_reflect no_shear #
lump $-1 $-1 $65 $14 #
transform $-1 1 0 0 0 1 0 0 0 1 54.10199285866878 30.714319026933453 10.534748029416781 1 rotate no_reflect no_shear #
lump $-1 $-1 $66 $15 #
transform $-1 1 0 0 0 1 0 0 0 1 54.10199285866878 30.714319026933453 10.534748029416781 1 rotate no_reflect no_shear #
lump $-1 $-1 $67 $16 #
transform $-1 1 0 0 0 1 0 0 0 1 54.10199285866878 30.714319026933453 10.534748029416781 1 rotate no_reflect no_shear #
shell $-1 $-1 $-1 $68 $-1 $17 #
shell $-1 $-1 $-1 $69 $-1 $19 #
shell $-1 $-1 $-1 $70 $-1 $21 #
shell $-1 $-1 $-1 $71 $-1 $23 #
shell $-1 $-1 $-1 $72 $-1 $25 #
shell $-1 $-1 $-1 $73 $-1 $27 #
shell $-1 $-1 $-1 $74 $-1 $29 #
shell $-1 $-1 $-1 $75 $-1 $31 #
shell $-1 $-1 $-1 $76 $-1 $33 #
shell $-1 $-1 $-1 $77 $-1 $35 #
shell $-1 $-1 $-1 $78 $-1 $37 #
shell $-1 $-1 $-1 $79 $-1 $39 #
shell $-1 $-1 $-1 $80 $-1 $41 #
shell $-1 $-1 $-1 $81 $-1 $43 #
shell $-1 $-1 $-1 $82 $-1 $45 #
shell $-1 $-1 $-1 $83 $-1 $47 #
shell $-1 $-1 $-1 $84 $-1 $49 #
face $-1 $85 $86 $51 $-1 $87 forward single #
face $-1 $88 $89 $52 $-1 $90 reversed single #
face $-1 $91 $92 $53 $-1 $93 reversed single #
face $-1 $94 $95 $54 $-1 $96 reversed single #
face $-1 $97 $98 $55 $-1 $99 forward single #
face $-1 $100 $101 $56 $-1 $102 forward single #
face $-1 $103 $104 $57 $-1 $105 reversed single #
face $-1 $106 $107 $58 $-1 $108 forward single #
face $-1 $109 $110 $59 $-1 $111 forward single #
face $-1 $112 $113 $60 $-1 $114 reversed single #
face $-1 $115 $116 $61 $-1 $117 forward single #
face $-1 $118 $119 $62 $-1 $120 forward single #
face $-1 $121 $122 $63 $-1 $123 forward single #
face $-1 $124 $125 $64 $-1 $126 reversed single #
face $-1 $127 $128 $65 $-1 $129 forward single #
face $-1 $130 $131 $66 $-1 $132 forward single #
face $-1 $133 $134 $67 $-1 $135 forward single #
face $-1 $136 $137 $51 $-1 $138 reversed single #
loop $-1 $-1 $139 $68 #
plane-surface $-1 0 0 10.534748029416781 0 0 1 1 0 0 forward_v I I I I #
face $-1 $140 $141 $52 $-1 $142 reversed single #
loop $-1 $-1 $143 $69 #
plane-surface $-1 -52.60199285866878 -22.413746485848861 0 0 -1 0 0 0 -1 forward_v I I I I #
face $-1 $144 $145 $53 $-1 $146 reversed single #
loop $-1 $-1 $147 $70 #
plane-surface $-1 -52.60199285866878 22.413746485848861 0 0 1 0 0 0 1 forward_v I I I I #
face $-1 $148 $149 $54 $-1 $150 reversed single #
loop $-1 $-1 $151 $71 #
plane-surface $-1 46.093361005115142 -13.128001760005603 153.04033078203045 0 -1 0 -0.66913061440640931 0 -0.74314481823134659 forward_v I I I I #
face $-1 $152 $153 $55 $-1 $154 forward single #
loop $-1 $155 $156 $72 #
cone-surface $-1 47.786737581299214 -18.242070377099946 4.7242289625289491 -0.66913061440640931 0 -0.74314481823134659 0.3715724091156733 0 -0.33456530720320465 1 I I 0 1 0.5 forward I I I I #
face $-1 $157 $158 $56 $-1 $159 forward single #
loop $-1 $160 $161 $73 #
cone-surface $-1 47.786737581299214 -15.173629206843341 4.7242289625289491 -0.66913061440640931 0 -0.74314481823134659 0.3715724091156733 0 -0.33456530720320465 1 I I 0 1 0.5 forward I I I I #
face $-1 $162 $163 $57 $-1 $164 reversed single #
loop $-1 $-1 $165 $74 #
plane-surface $-1 46.093361005115142 9.2857447258432622 153.04033078203045 0 -1 0 -0.66913061440640931 0 -0.74314481823134659 forward_v I I I I #
face $-1 $166 $167 $58 $-1 $168 forward single #
loop $-1 $169 $170 $75 #
cone-surface $-1 47.786737581299214 4.1716761087489118 4.7242289625289491 -0.66913061440640931 0 -0.74314481823134659 0.3715724091156733 0 -0.33456530720320465 1 I I 0 1 0.5 forward I I I I #
face $-1 $171 $172 $59 $-1 $173 forward single #
loop $-1 $174 $175 $76 #
cone-surface $-1 47.786737581299214 7.240117279005517 4.7242289625289491 -0.66913061440640931 0 -0.74314481823134659 0.3715724091156733 0 -0.33456530720320465 1 I I 0 1 0.5 forward I I I I #
face $-1 $176 $177 $60 $-1 $178 reversed single #
loop $-1 $-1 $179 $77 #
plane-surface $-1 -145.86417780026994 -12.518196196757893 61.309219481170082 0 1 0 -0.84804810408105047 0 0.52991925155115449 forward_v I I I I #
face $-1 $180 $181 $61 $-1 $182 forward single #
loop $-1 $183 $184 $78 #
cone-surface $-1 -51.626865322687863 -10.815195111423471 6.9873365664261957 0.84804810408105047 0 -0.52991925155115449 0.26495962577557725 0 0.42402405204052523 1 I I 0 1 0.5 forward I I I I #
face $-1 $185 $186 $62 $-1 $187 forward single #
loop $-1 $188 $189 $79 #
cone-surface $-1 -51.626865322687863 -8.2606934834218393 6.9873365664261957 0.84804810408105047 0 -0.52991925155115449 0.26495962577557725 0 0.42402405204052523 1 I I 0 1 0.5 forward I I I I #
face $-1 $190 $191 $63 $-1 $192 forward single #
loop $-1 $193 $194 $80 #
cone-surface $-1 -51.626865322687863 -5.706191855420208 6.9873365664261957 0.84804810408105047 0 -0.52991925155115449 0.26495962577557725 0 0.42402405204052523 1 I I 0 1 0.5 forward I I I I #
face $-1 $195 $196 $64 $-1 $197 reversed single #
loop $-1 $-1 $198 $81 #
plane-surface $-1 -145.86417780026994 4.0031907700857925 61.309219481170082 0 1 0 -0.84804810408105047 0 0.52991925155115449 forward_v I I I I #
face $-1 $199 $200 $65 $-1 $201 forward single #
loop $-1 $202 $203 $82 #
cone-surface $-1 -51.626865322687863 5.7061918554202151 6.9873365664261957 0.84804810408105047 0 -0.52991925155115449 0.26495962577557725 0 0.42402405204052523 1 I I 0 1 0.5 forward I I I I #
face $-1 $204 $205 $66 $-1 $206 forward single #
loop $-1 $207 $208 $83 #
cone-surface $-1 -51.626865322687863 8.2606934834218464 6.9873365664261957 0.84804810408105047 0 -0.52991925155115449 0.26495962577557725 0 0.42402405204052523 1 I I 0 1 0.5 forward I I I I #
face $-1 $209 $210 $67 $-1 $211 forward single #
loop $-1 $212 $213 $84 #
cone-surface $-1 -51.626865322687863 10.815195111423478 6.9873365664261957 0.84804810408105047 0 -0.52991925155115449 0.26495962577557725 0 0.42402405204052523 1 I I 0 1 0.5 forward I I I I #
face $-1 $214 $215 $51 $-1 $216 reversed single #
loop $-1 $-1 $217 $85 #
plane-surface $-1 0 0 -10.534748029416781 0 0 1 1 0 0 forward_v I I I I #
coedge $-1 $218 $219 $220 $221 forward $86 $-1 #
face $-1 $222 $223 $52 $-1 $224 forward single #
loop $-1 $-1 $225 $88 #
plane-surface $-1 -51.10199285866878 -26.564032756391157 0 -1 0 0 0 0 1 forward_v I I I I #
coedge $-1 $226 $227 $228 $229 forward $89 $-1 #
face $-1 $230 $231 $53 $-1 $232 reversed single #
loop $-1 $-1 $233 $91 #
plane-surface $-1 -51.10199285866878 26.564032756391157 0 -1 0 0 0 0 1 forward_v I I I I #
coedge $-1 $234 $235 $236 $237 reversed $92 $-1 #
face $-1 $238 $239 $54 $-1 $240 reversed single #
loop $-1 $-1 $241 $94 #
plane-surface $-1 -26.309238439149283 -16.707849791971643 72.629099484212404 0.66913061440640931 0 0.74314481823134659 0.74314481823134659 0 -0.66913061440640931 forward_v I I I I #
coedge $-1 $242 $243 $244 $245 reversed $95 $-1 #
face $-1 $-1 $246 $55 $-1 $247 forward single #
loop $-1 $248 $249 $97 #
cone-surface $-1 47.028434137202595 -18.242070377099946 3.8820476858176765 -0.66913061440640931 0 -0.74314481823134659 0.18578620455783665 0 -0.16728265360160233 1 I I -0.70710678118654746 0.70710678118654746 0.25 forward I I I I #
loop $-1 $-1 $250 $72 #
coedge $-1 $156 $156 $251 $252 reversed $98 $-1 #
face $-1 $-1 $253 $56 $-1 $254 forward single #
loop $-1 $255 $256 $100 #
cone-surface $-1 47.028434137202595 -15.173629206843341 3.8820476858176765 -0.66913061440640931 0 -0.74314481823134659 0.18578620455783665 0 -0.16728265360160233 1 I I -0.70710678118654746 0.70710678118654746 0.25 forward I I I I #
loop $-1 $-1 $257 $73 #
coedge $-1 $161 $161 $258 $259 reversed $101 $-1 #
face $-1 $260 $261 $57 $-1 $262 reversed single #
loop $-1 $-1 $263 $103 #
plane-surface $-1 -26.309238439149283 5.7058966938772215 72.629099484212404 0.66913061440640931 0 0.74314481823134659 0.74314481823134659 0 -0.66913061440640931 forward_v I I I I #
coedge $-1 $264 $265 $266 $267 reversed $104 $-1 #
face $-1 $-1 $268 $58 $-1 $269 forward single #
loop $-1 $270 $271 $106 #
cone-surface $-1 47.028434137202595 4.1716761087489118 3.8820476858176765 -0.66913061440640931 0 -0.74314481823134659 0.18578620455783665 0 -0.16728265360160233 1 I I -0.70710678118654746 0.70710678118654746 0.25 forward I I I I #
loop $-1 $-1 $272 $75 #
coedge $-1 $170 $170 $273 $274 reversed $107 $-1 #
face $-1 $-1 $275 $59 $-1 $276 forward single #
loop $-1 $277 $278 $109 #
cone-surface $-1 47.028434137202595 7.240117279005517 3.8820476858176765 -0.66913061440640931 0 -0.74314481823134659 0.18578620455783665 0 -0.16728265360160233 1 I I -0.70710678118654746 0.70710678118654746 0.25 forward I I I I #
loop $-1 $-1 $279 $76 #
coedge $-1 $175 $175 $280 $281 reversed $110 $-1 #
face $-1 $282 $283 $60 $-1 $284 reversed single #
loop $-1 $-1 $285 $112 #
plane-surface $-1 -54.101992858668766 -8.2606934834218393 3.9698443549867548 -0.84804810408105047 0 0.52991925155115449 0.52991925155115449 0 0.84804810408105047 forward_v I I I I #
coedge $-1 $286 $287 $288 $289 reversed $113 $-1 #
face $-1 $-1 $290 $61 $-1 $291 forward single #
loop $-1 $292 $293 $115 #
cone-surface $-1 -50.990829244627072 -10.815195111423471 6.5898971277628302 0.84804810408105047 0 -0.52991925155115449 0.13247981288778862 0 0.21201202602026262 1 I I -0.70710678118654746 0.70710678118654746 0.25 forward I I I I #
loop $-1 $-1 $294 $78 #
coedge $-1 $184 $184 $295 $296 reversed $116 $-1 #
face $-1 $-1 $297 $62 $-1 $298 forward single #
loop $-1 $299 $300 $118 #
cone-surface $-1 -50.990829244627072 -8.2606934834218393 6.5898971277628302 0.84804810408105047 0 -0.52991925155115449 0.13247981288778862 0 0.21201202602026262 1 I I -0.70710678118654746 0.70710678118654746 0.25 forward I I I I #
loop $-1 $-1 $301 $79 #
coedge $-1 $189 $189 $302 $303 reversed $119 $-1 #
face $-1 $-1 $304 $63 $-1 $305 forward single #
loop $-1 $306 $307 $121 #
cone-surface $-1 -50.990829244627072 -5.706191855420208 6.5898971277628302 0.84804810408105047 0 -0.52991925155115449 0.13247981288778862 0 0.21201202602026262 1 I I -0.70710678118654746 0.70710678118654746 0.25 forward I I I I #
loop $-1 $-1 $308 $80 #
coedge $-1 $194 $194 $309 $310 reversed $122 $-1 #
face $-1 $311 $312 $64 $-1 $313 reversed single #
loop $-1 $-1 $314 $124 #
plane-surface $-1 -54.101992858668766 8.2606934834218464 3.9698443549867548 -0.84804810408105047 0 0.52991925155115449 0.52991925155115449 0 0.84804810408105047 forward_v I I I I #
coedge $-1 $315 $316 $317 $318 reversed $125 $-1 #
face $-1 $-1 $319 $65 $-1 $320 forward single #
loop $-1 $321 $322 $127 #
cone-surface $-1 -50.990829244627072 5.7061918554202151 6.5898971277628302 0.84804810408105047 0 -0.52991925155115449 0.13247981288778862 0 0.21201202602026262 1 I I -0.70710678118654746 0.70710678118654746 0.25 forward I I I I #
loop $-1 $-1 $323 $82 #
coedge $-1 $203 $203 $324 $325 reversed $128 $-1 #
face $-1 $-1 $326 $66 $-1 $327 forward single #
loop $-1 $328 $329 $130 #
cone-surface $-1 -50.990829244627072 8.2606934834218464 6.5898971277628302 0.84804810408105047 0 -0.52991925155115449 0.13247981288778862 0 0.21201202602026262 1 I I -0.70710678118654746 0.70710678118654746 0.25 forward I I I I #
loop $-1 $-1 $330 $83 #
coedge $-1 $208 $208 $331 $332 reversed $131 $-1 #
face $-1 $-1 $333 $67 $-1 $334 forward single #
loop $-1 $335 $336 $133 #
cone-surface $-1 -50.990829244627072 10.815195111423478 6.5898971277628302 0.84804810408105047 0 -0.52991925155115449 0.13247981288778862 0 0.21201202602026262 1 I I -0.70710678118654746 0.70710678118654746 0.25 forward I I I I #
loop $-1 $-1 $337 $84 #
coedge $-1 $213 $213 $338 $339 reversed $134 $-1 #
face $-1 $340 $341 $51 $-1 $342 reversed single #
loop $-1 $-1 $343 $136 #
plane-surface $-1 0 -30.714319026933453 0 0 1 0 0 0 1 forward_v I I I I #
coedge $-1 $344 $345 $346 $347 forward $137 $-1 #
coedge $-1 $348 $139 $349 $350 forward $86 $-1 #
coedge $-1 $139 $348 $351 $352 forward $86 $-1 #
coedge $-1 $353 $354 $139 $221 reversed $355 $-1 #
edge $-1 $356 -30.714319026933453 $357 30.714319026933453 $220 $358 forward 7 unknown #
face $-1 $359 $360 $52 $-1 $361 reversed single #
loop $-1 $-1 $362 $140 #
plane-surface $-1 0 0 10.534748029416781 0 0 1 1 0 0 forward_v I I I I #
coedge $-1 $363 $364 $365 $366 reversed $141 $-1 #
coedge $-1 $367 $143 $368 $369 reversed $89 $-1 #
coedge $-1 $143 $367 $370 $371 reversed $89 $-1 #
coedge $-1 $364 $363 $143 $229 reversed $141 $-1 #
edge $-1 $372 -10.534748029416781 $373 10.534748029416781 $228 $374 forward 7 unknown #
face $-1 $375 $376 $53 $-1 $377 reversed single #
loop $-1 $-1 $378 $144 #
plane-surface $-1 0 0 -10.534748029416781 0 0 1 1 0 0 forward_v I I I I #
coedge $-1 $379 $380 $381 $382 forward $145 $-1 #
coedge $-1 $381 $147 $383 $384 reversed $92 $-1 #
coedge $-1 $147 $381 $385 $386 reversed $92 $-1 #
coedge $-1 $387 $388 $147 $237 forward $376 $-1 #
edge $-1 $389 -10.534748029416781 $390 10.534748029416781 $236 $391 forward 7 unknown #
face $-1 $392 $393 $54 $-1 $394 reversed single #
loop $-1 $-1 $395 $148 #
plane-surface $-1 46.093361005115142 -20.287697823937684 153.04033078203045 0 1 0 0.66913061440640931 0 0.74314481823134659 forward_v I I I I #
coedge $-1 $396 $397 $398 $399 reversed $149 $-1 #
coedge $-1 $243 $151 $400 $401 reversed $95 $-1 #
coedge $-1 $151 $242 $396 $402 reversed $95 $-1 #
coedge $-1 $398 $403 $151 $245 forward $404 $-1 #
edge $-1 $405 -31.055312356111209 $406 -19.606843382362108 $244 $407 forward 7 unknown #
loop $-1 $-1 $251 $152 #
plane-surface $-1 -26.309238439149283 -16.707849791971643 72.629099484212404 0.66913061440640931 0 0.74314481823134659 0.74314481823134659 0 -0.66913061440640931 forward_v I I I I #
loop $-1 $-1 $408 $97 #
coedge $-1 $249 $249 $250 $409 reversed $153 $-1 #
coedge $-1 $250 $250 $249 $409 forward $155 $-1 #
coedge $-1 $251 $251 $156 $252 forward $246 $-1 #
edge $-1 $410 0 $410 6.2831853071796004 $251 $411 forward 7 unknown #
loop $-1 $-1 $258 $157 #
plane-surface $-1 -26.309238439149283 -16.707849791971643 72.629099484212404 0.66913061440640931 0 0.74314481823134659 0.74314481823134659 0 -0.66913061440640931 forward_v I I I I #
loop $-1 $-1 $412 $100 #
coedge $-1 $256 $256 $257 $413 reversed $158 $-1 #
coedge $-1 $257 $257 $256 $413 forward $160 $-1 #
coedge $-1 $258 $258 $161 $259 forward $253 $-1 #
edge $-1 $414 0 $414 6.2831853071796004 $258 $415 forward 7 unknown #
face $-1 $416 $417 $57 $-1 $418 reversed single #
loop $-1 $-1 $419 $162 #
plane-surface $-1 46.093361005115142 2.1260486619111809 153.04033078203045 0 1 0 0.66913061440640931 0 0.74314481823134659 forward_v I I I I #
coedge $-1 $420 $421 $422 $423 reversed $163 $-1 #
coedge $-1 $265 $165 $424 $425 reversed $104 $-1 #
coedge $-1 $165 $264 $420 $426 reversed $104 $-1 #
coedge $-1 $422 $427 $165 $267 forward $428 $-1 #
edge $-1 $429 -31.055312356111209 $430 -19.606843382362108 $266 $431 forward 7 unknown #
loop $-1 $-1 $273 $166 #
plane-surface $-1 -26.309238439149283 5.7058966938772215 72.629099484212404 0.66913061440640931 0 0.74314481823134659 0.74314481823134659 0 -0.66913061440640931 forward_v I I I I #
loop $-1 $-1 $432 $106 #
coedge $-1 $271 $271 $272 $433 reversed $167 $-1 #
coedge $-1 $272 $272 $271 $433 forward $169 $-1 #
coedge $-1 $273 $273 $170 $274 forward $268 $-1 #
edge $-1 $434 0 $434 6.2831853071796004 $273 $435 forward 7 unknown #
loop $-1 $-1 $280 $171 #
plane-surface $-1 -26.309238439149283 5.7058966938772215 72.629099484212404 0.66913061440640931 0 0.74314481823134659 0.74314481823134659 0 -0.66913061440640931 forward_v I I I I #
loop $-1 $-1 $436 $109 #
coedge $-1 $278 $278 $279 $437 reversed $172 $-1 #
coedge $-1 $279 $279 $278 $437 forward $174 $-1 #
coedge $-1 $280 $280 $175 $281 forward $275 $-1 #
edge $-1 $438 0 $438 6.2831853071796004 $280 $439 forward 7 unknown #
face $-1 $440 $441 $60 $-1 $442 forward single #
loop $-1 $-1 $443 $176 #
plane-surface $-1 -145.86417780026994 -4.0031907700857854 61.309219481170082 0 -1 0 0.84804810408105047 0 -0.52991925155115449 forward_v I I I I #
coedge $-1 $444 $445 $446 $447 reversed $177 $-1 #
coedge $-1 $287 $179 $448 $449 reversed $113 $-1 #
coedge $-1 $179 $286 $444 $450 reversed $113 $-1 #
coedge $-1 $446 $451 $179 $289 forward $441 $-1 #
edge $-1 $452 18.830096041466192 $453 22.932303009347002 $288 $454 forward 7 unknown #
loop $-1 $-1 $295 $180 #
plane-surface $-1 -54.101992858668766 -8.2606934834218393 3.9698443549867548 -0.84804810408105047 0 0.52991925155115449 0.52991925155115449 0 0.84804810408105047 forward_v I I I I #
loop $-1 $-1 $455 $115 #
coedge $-1 $293 $293 $294 $456 reversed $181 $-1 #
coedge $-1 $294 $294 $293 $456 forward $183 $-1 #
coedge $-1 $295 $295 $184 $296 forward $290 $-1 #
edge $-1 $457 0 $457 6.2831853071796004 $295 $458 forward 7 unknown #
loop $-1 $-1 $302 $185 #
plane-surface $-1 -54.101992858668766 -8.2606934834218393 3.9698443549867548 -0.84804810408105047 0 0.52991925155115449 0.52991925155115449 0 0.84804810408105047 forward_v I I I I #
loop $-1 $-1 $459 $118 #
coedge $-1 $300 $300 $301 $460 reversed $186 $-1 #
coedge $-1 $301 $301 $300 $460 forward $188 $-1 #
coedge $-1 $302 $302 $189 $303 forward $297 $-1 #
edge $-1 $461 0 $461 6.2831853071796004 $302 $462 forward 7 unknown #
loop $-1 $-1 $309 $190 #
plane-surface $-1 -54.101992858668766 -8.2606934834218393 3.9698443549867548 -0.84804810408105047 0 0.52991925155115449 0.52991925155115449 0 0.84804810408105047 forward_v I I I I #
loop $-1 $-1 $463 $121 #
coedge $-1 $307 $307 $308 $464 reversed $191 $-1 #
coedge $-1 $308 $308 $307 $464 forward $193 $-1 #
coedge $-1 $309 $309 $194 $310 forward $304 $-1 #
edge $-1 $465 0 $465 6.2831853071796004 $309 $466 forward 7 unknown #
face $-1 $467 $468 $64 $-1 $469 forward single #
loop $-1 $-1 $470 $195 #
plane-surface $-1 -145.86417780026994 12.5181961967579 61.309219481170082 0 -1 0 0.84804810408105047 0 -0.52991925155115449 forward_v I I I I #
coedge $-1 $471 $472 $473 $474 reversed $196 $-1 #
coedge $-1 $316 $198 $475 $476 reversed $125 $-1 #
coedge $-1 $198 $315 $471 $477 reversed $125 $-1 #
coedge $-1 $473 $478 $198 $318 forward $468 $-1 #
edge $-1 $479 18.830096041466192 $480 22.932303009347002 $317 $481 forward 7 unknown #
loop $-1 $-1 $324 $199 #
plane-surface $-1 -54.101992858668766 8.2606934834218464 3.9698443549867548 -0.84804810408105047 0 0.52991925155115449 0.52991925155115449 0 0.84804810408105047 forward_v I I I I #
loop $-1 $-1 $482 $127 #
coedge $-1 $322 $322 $323 $483 reversed $200 $-1 #
coedge $-1 $323 $323 $322 $483 forward $202 $-1 #
coedge $-1 $324 $324 $203 $325 forward $319 $-1 #
edge $-1 $484 0 $484 6.2831853071796004 $324 $485 forward 7 unknown #
loop $-1 $-1 $331 $204 #
plane-surface $-1 -54.101992858668766 8.2606934834218464 3.9698443549867548 -0.84804810408105047 0 0.52991925155115449 0.52991925155115449 0 0.84804810408105047 forward_v I I I I #
loop $-1 $-1 $486 $130 #
coedge $-1 $329 $329 $330 $487 reversed $205 $-1 #
coedge $-1 $330 $330 $329 $487 forward $207 $-1 #
coedge $-1 $331 $331 $208 $332 forward $326 $-1 #
edge $-1 $488 0 $488 6.2831853071796004 $331 $489 forward 7 unknown #
loop $-1 $-1 $338 $209 #
plane-surface $-1 -54.101992858668766 8.2606934834218464 3.9698443549867548 -0.84804810408105047 0 0.52991925155115449 0.52991925155115449 0 0.84804810408105047 forward_v I I I I #
loop $-1 $-1 $490 $133 #
coedge $-1 $336 $336 $337 $491 reversed $210 $-1 #
coedge $-1 $337 $337 $336 $491 forward $212 $-1 #
coedge $-1 $338 $338 $213 $339 forward $333 $-1 #
edge $-1 $492 0 $492 6.2831853071796004 $338 $493 forward 7 unknown #
face $-1 $494 $495 $51 $-1 $496 reversed single #
loop $-1 $-1 $497 $214 #
plane-surface $-1 -54.10199285866878 0 0 1 0 0 0 0 -1 forward_v I I I I #
coedge $-1 $498 $351 $499 $500 forward $215 $-1 #
coedge $-1 $501 $217 $498 $502 forward $137 $-1 #
coedge $-1 $217 $501 $503 $504 forward $137 $-1 #
coedge $-1 $354 $353 $217 $347 reversed $355 $-1 #
edge $-1 $505 -30.714319026933453 $506 30.714319026933453 $346 $507 forward 7 unknown #
coedge $-1 $219 $218 $508 $509 forward $86 $-1 #
coedge $-1 $510 $511 $218 $350 reversed $495 $-1 #
edge $-1 $357 -54.10199285866878 $512 54.10199285866878 $349 $513 forward 7 unknown #
coedge $-1 $343 $514 $219 $352 reversed $215 $-1 #
edge $-1 $515 -54.10199285866878 $356 54.10199285866878 $351 $516 forward 7 unknown #
coedge $-1 $346 $220 $514 $517 forward $355 $-1 #
coedge $-1 $220 $346 $510 $518 reversed $355 $-1 #
loop $-1 $-1 $353 $494 #
vertex $-1 $221 $519 #
vertex $-1 $221 $520 #
straight-curve $-1 54.10199285866878 0 10.534748029416781 0 1 0 I I #
face $-1 $521 $522 $52 $-1 $523 reversed single #
loop $-1 $-1 $524 $222 #
plane-surface $-1 -54.10199285866878 0 0 1 0 0 0 0 -1 forward_v I I I I #
coedge $-1 $370 $525 $364 $526 forward $223 $-1 #
coedge $-1 $228 $225 $527 $528 reversed $141 $-1 #
coedge $-1 $225 $228 $362 $526 reversed $141 $-1 #
coedge $-1 $529 $530 $225 $366 forward $531 $-1 #
edge $-1 $532 -10.534748029416781 $533 10.534748029416781 $365 $534 forward 7 unknown #
coedge $-1 $227 $226 $524 $535 reversed $89 $-1 #
coedge $-1 $527 $536 $226 $369 forward $522 $-1 #
edge $-1 $537 -27.80099642933439 $373 -24.80099642933439 $368 $538 forward 7 unknown #
coedge $-1 $539 $362 $227 $371 forward $223 $-1 #
edge $-1 $372 24.80099642933439 $540 27.80099642933439 $370 $541 forward 7 unknown #
vertex $-1 $371 $542 #
vertex $-1 $369 $543 #
straight-curve $-1 -51.10199285866878 -22.413746485848861 0 0 0 -1 I I #
face $-1 $544 $545 $53 $-1 $546 forward single #
loop $-1 $-1 $236 $230 #
plane-surface $-1 -54.10199285866878 0 0 1 0 0 0 0 -1 forward_v I I I I #
coedge $-1 $383 $547 $379 $548 forward $231 $-1 #
coedge $-1 $549 $233 $378 $548 reversed $145 $-1 #
coedge $-1 $233 $549 $550 $551 reversed $145 $-1 #
coedge $-1 $235 $234 $233 $382 reversed $92 $-1 #
edge $-1 $552 -10.534748029416781 $553 10.534748029416781 $233 $554 forward 7 unknown #
coedge $-1 $555 $378 $234 $384 forward $231 $-1 #
edge $-1 $553 24.80099642933439 $389 27.80099642933439 $383 $556 forward 7 unknown #
coedge $-1 $550 $557 $235 $386 forward $545 $-1 #
edge $-1 $390 -27.80099642933439 $552 -24.80099642933439 $385 $558 forward 7 unknown #
coedge $-1 $559 $236 $557 $560 reversed $376 $-1 #
coedge $-1 $236 $559 $555 $561 reversed $376 $-1 #
vertex $-1 $561 $562 #
vertex $-1 $237 $563 #
straight-curve $-1 -54.10199285866878 22.413746485848861 0 0 0 1 I I #
face $-1 $-1 $404 $54 $-1 $564 forward single #
loop $-1 $-1 $565 $238 #
plane-surface $-1 54.10199285866878 0 0 -1 0 0 0 0 1 forward_v I I I I #
coedge $-1 $566 $567 $568 $569 reversed $239 $-1 #
coedge $-1 $570 $241 $243 $402 forward $149 $-1 #
coedge $-1 $241 $570 $566 $571 forward $149 $-1 #
coedge $-1 $568 $244 $241 $399 forward $404 $-1 #
edge $-1 $406 4.774076864019781 $572 11.933772927951862 $398 $573 forward 7 unknown #
coedge $-1 $574 $575 $242 $401 forward $393 $-1 #
edge $-1 $576 -76.293665351067261 $405 -65.985417361598451 $400 $577 forward 7 unknown #
edge $-1 $406 92.798551012166698 $576 108.20398571733759 $243 $578 forward 7 unknown #
coedge $-1 $244 $568 $574 $579 forward $404 $-1 #
loop $-1 $-1 $568 $392 #
vertex $-1 $401 $580 #
vertex $-1 $245 $581 #
straight-curve $-1 23.046680502557571 -13.128001760005603 10.534748029416775 -1 0 0 I I #
coedge $-1 $408 $408 $-1 $582 reversed $248 $-1 #
edge $-1 $583 0 $583 6.2831853071796004 $249 $584 forward 7 unknown #
vertex $-1 $252 $585 #
ellipse-curve $-1 48.377758371794229 -18.242070377099946 5.380624034682377 0.66913061440640931 0 0.74314481823134659 0.3715724091156733 0 -0.33456530720320465 1 I I #
coedge $-1 $412 $412 $-1 $586 reversed $255 $-1 #
edge $-1 $587 0 $587 6.2831853071796004 $256 $588 forward 7 unknown #
vertex $-1 $259 $589 #
ellipse-curve $-1 48.377758371794229 -15.173629206843341 5.380624034682377 0.66913061440640931 0 0.74314481823134659 0.3715724091156733 0 -0.33456530720320465 1 I I #
face $-1 $-1 $428 $57 $-1 $590 forward single #
loop $-1 $-1 $591 $260 #
plane-surface $-1 54.10199285866878 0 0 -1 0 0 0 0 1 forward_v I I I I #
coedge $-1 $592 $593 $594 $595 reversed $261 $-1 #
coedge $-1 $596 $263 $265 $426 forward $163 $-1 #
coedge $-1 $263 $596 $592 $597 forward $163 $-1 #
coedge $-1 $594 $266 $263 $423 forward $428 $-1 #
edge $-1 $430 -6.4327963789046514 $598 0.72689968502742985 $422 $599 forward 7 unknown #
coedge $-1 $600 $601 $264 $425 forward $417 $-1 #
edge $-1 $602 -76.293665351067261 $429 -65.985417361598451 $424 $603 forward 7 unknown #
edge $-1 $430 92.798551012166698 $602 108.20398571733759 $265 $604 forward 7 unknown #
coedge $-1 $266 $594 $600 $605 forward $428 $-1 #
loop $-1 $-1 $594 $416 #
vertex $-1 $425 $606 #
vertex $-1 $267 $607 #
straight-curve $-1 23.046680502557571 9.2857447258432622 10.534748029416775 -1 0 0 I I #
coedge $-1 $432 $432 $-1 $608 reversed $270 $-1 #
edge $-1 $609 0 $609 6.2831853071796004 $271 $610 forward 7 unknown #
vertex $-1 $274 $611 #
ellipse-curve $-1 48.377758371794229 4.1716761087489118 5.380624034682377 0.66913061440640931 0 0.74314481823134659 0.3715724091156733 0 -0.33456530720320465 1 I I #
coedge $-1 $436 $436 $-1 $612 reversed $277 $-1 #
edge $-1 $613 0 $613 6.2831853071796004 $278 $614 forward 7 unknown #
vertex $-1 $281 $615 #
ellipse-curve $-1 48.377758371794229 7.240117279005517 5.380624034682377 0.66913061440640931 0 0.74314481823134659 0.3715724091156733 0 -0.33456530720320465 1 I I #
face $-1 $-1 $616 $60 $-1 $617 reversed single #
loop $-1 $-1 $288 $282 #
plane-surface $-1 0 0 10.534748029416781 0 0 1 1 0 0 forward_v I I I I #
coedge $-1 $618 $619 $620 $621 reversed $283 $-1 #
coedge $-1 $622 $285 $287 $450 forward $177 $-1 #
coedge $-1 $285 $622 $618 $623 forward $177 $-1 #
coedge $-1 $620 $288 $285 $447 forward $441 $-1 #
edge $-1 $453 -8.3878494550469735 $624 0.12715597162513426 $446 $625 forward 7 unknown #
coedge $-1 $626 $627 $286 $449 forward $616 $-1 #
edge $-1 $628 -26.684765385598308 $452 -20.119861711168262 $448 $629 forward 7 unknown #
edge $-1 $453 -7.7411925607024274 $628 2.6737665129848107e-014 $287 $630 forward 7 unknown #
coedge $-1 $288 $620 $626 $631 forward $441 $-1 #
vertex $-1 $289 $632 #
vertex $-1 $289 $633 #
straight-curve $-1 -72.932088900134971 -12.518196196757893 10.534748029416782 1 0 0 I I #
coedge $-1 $455 $455 $-1 $634 reversed $292 $-1 #
edge $-1 $635 0 $635 6.2831853071796004 $293 $636 forward 7 unknown #
vertex $-1 $296 $637 #
ellipse-curve $-1 -52.050889374728371 -10.815195111423471 7.2522961922017624 -0.84804810408105047 0 0.52991925155115449 0.26495962577557725 0 0.42402405204052523 1 I I #
coedge $-1 $459 $459 $-1 $638 reversed $299 $-1 #
edge $-1 $639 0 $639 6.2831853071796004 $300 $640 forward 7 unknown #
vertex $-1 $303 $641 #
ellipse-curve $-1 -52.050889374728371 -8.2606934834218393 7.2522961922017624 -0.84804810408105047 0 0.52991925155115449 0.26495962577557725 0 0.42402405204052523 1 I I #
coedge $-1 $463 $463 $-1 $642 reversed $306 $-1 #
edge $-1 $643 0 $643 6.2831853071796004 $307 $644 forward 7 unknown #
vertex $-1 $310 $645 #
ellipse-curve $-1 -52.050889374728371 -5.706191855420208 7.2522961922017624 -0.84804810408105047 0 0.52991925155115449 0.26495962577557725 0 0.42402405204052523 1 I I #
face $-1 $-1 $646 $64 $-1 $647 reversed single #
loop $-1 $-1 $317 $311 #
plane-surface $-1 0 0 10.534748029416781 0 0 1 1 0 0 forward_v I I I I #
coedge $-1 $648 $649 $650 $651 reversed $312 $-1 #
coedge $-1 $652 $314 $316 $477 forward $196 $-1 #
coedge $-1 $314 $652 $648 $653 forward $196 $-1 #
coedge $-1 $650 $317 $314 $474 forward $468 $-1 #
edge $-1 $480 -0.1271559716251307 $654 8.3878494550469771 $473 $655 forward 7 unknown #
coedge $-1 $656 $657 $315 $476 forward $646 $-1 #
edge $-1 $658 -26.684765385598308 $479 -20.119861711168262 $475 $659 forward 7 unknown #
edge $-1 $480 -7.7411925607024274 $658 2.6737665129848107e-014 $316 $660 forward 7 unknown #
coedge $-1 $317 $650 $656 $661 forward $468 $-1 #
vertex $-1 $318 $662 #
vertex $-1 $318 $663 #
straight-curve $-1 -72.932088900134971 4.0031907700857925 10.534748029416782 1 0 0 I I #
coedge $-1 $482 $482 $-1 $664 reversed $321 $-1 #
edge $-1 $665 0 $665 6.2831853071796004 $322 $666 forward 7 unknown #
vertex $-1 $325 $667 #
ellipse-curve $-1 -52.050889374728371 5.7061918554202151 7.2522961922017624 -0.84804810408105047 0 0.52991925155115449 0.26495962577557725 0 0.42402405204052523 1 I I #
coedge $-1 $486 $486 $-1 $668 reversed $328 $-1 #
edge $-1 $669 0 $669 6.2831853071796004 $329 $670 forward 7 unknown #
vertex $-1 $332 $671 #
ellipse-curve $-1 -52.050889374728371 8.2606934834218464 7.2522961922017624 -0.84804810408105047 0 0.52991925155115449 0.26495962577557725 0 0.42402405204052523 1 I I #
coedge $-1 $490 $490 $-1 $672 reversed $335 $-1 #
edge $-1 $673 0 $673 6.2831853071796004 $336 $674 forward 7 unknown #
vertex $-1 $339 $675 #
ellipse-curve $-1 -52.050889374728371 10.815195111423478 7.2522961922017624 -0.84804810408105047 0 0.52991925155115449 0.26495962577557725 0 0.42402405204052523 1 I I #
face $-1 $-1 $355 $51 $-1 $676 reversed single #
loop $-1 $-1 $510 $340 #
plane-surface $-1 0 30.714319026933453 0 0 -1 0 0 0 -1 forward_v I I I I #
coedge $-1 $677 $508 $511 $678 forward $341 $-1 #
coedge $-1 $514 $343 $344 $502 reversed $215 $-1 #
coedge $-1 $508 $677 $343 $500 reversed $341 $-1 #
edge $-1 $515 -10.534748029416781 $679 10.534748029416781 $499 $680 forward 7 unknown #
coedge $-1 $345 $344 $677 $681 forward $137 $-1 #
edge $-1 $506 -54.10199285866878 $679 54.10199285866878 $498 $682 forward 7 unknown #
coedge $-1 $511 $510 $345 $504 reversed $495 $-1 #
edge $-1 $683 -54.10199285866878 $505 54.10199285866878 $503 $684 forward 7 unknown #
vertex $-1 $347 $685 #
vertex $-1 $517 $686 #
straight-curve $-1 54.10199285866878 0 -10.534748029416781 0 -1 0 I I #
coedge $-1 $497 $499 $348 $509 reversed $341 $-1 #
edge $-1 $512 -30.714319026933453 $515 30.714319026933453 $508 $687 forward 7 unknown #
coedge $-1 $503 $349 $354 $518 forward $495 $-1 #
coedge $-1 $349 $503 $497 $678 reversed $495 $-1 #
vertex $-1 $350 $688 #
straight-curve $-1 0 30.714319026933453 10.534748029416781 -1 0 0 I I #
coedge $-1 $351 $498 $353 $517 reversed $215 $-1 #
vertex $-1 $509 $689 #
straight-curve $-1 0 -30.714319026933453 10.534748029416781 1 0 0 I I #
edge $-1 $356 -10.534748029416781 $506 10.534748029416781 $353 $690 forward 7 unknown #
edge $-1 $357 -10.534748029416781 $505 10.534748029416781 $354 $691 forward 7 unknown #
point $-1 54.10199285866878 -30.714319026933453 10.534748029416781 #
point $-1 54.10199285866878 30.714319026933453 10.534748029416781 #
face $-1 $-1 $531 $52 $-1 $692 reversed single #
loop $-1 $-1 $527 $359 #
plane-surface $-1 0 0 -10.534748029416781 0 0 1 1 0 0 forward_v I I I I #
coedge $-1 $693 $694 $367 $535 forward $360 $-1 #
coedge $-1 $362 $539 $529 $695 forward $223 $-1 #
edge $-1 $533 -17.432302648737874 $372 -9.1317301076532829 $362 $696 forward 7 unknown #
coedge $-1 $697 $368 $363 $528 forward $522 $-1 #
edge $-1 $373 9.1317301076532829 $532 17.432302648737874 $527 $698 forward 7 unknown #
coedge $-1 $699 $365 $525 $695 reversed $531 $-1 #
coedge $-1 $365 $699 $697 $700 reversed $531 $-1 #
loop $-1 $-1 $365 $521 #
vertex $-1 $700 $701 #
vertex $-1 $366 $702 #
straight-curve $-1 -51.10199285866878 -30.714319026933453 0 0 0 1 I I #
edge $-1 $540 -10.534748029416781 $537 10.534748029416781 $524 $703 forward 7 unknown #
coedge $-1 $368 $697 $693 $704 forward $522 $-1 #
vertex $-1 $369 $705 #
straight-curve $-1 -26.30099642933439 -22.413746485848861 -10.534748029416781 1 0 0 I I #
coedge $-1 $525 $370 $694 $706 forward $223 $-1 #
vertex $-1 $706 $707 #
straight-curve $-1 -26.30099642933439 -22.413746485848861 10.534748029416781 -1 0 0 I I #
point $-1 -51.10199285866878 -22.413746485848861 10.534748029416781 #
point $-1 -51.10199285866878 -22.413746485848861 -10.534748029416781 #
face $-1 $-1 $708 $53 $-1 $709 reversed single #
loop $-1 $-1 $550 $375 #
plane-surface $-1 0 0 10.534748029416781 0 0 1 1 0 0 forward_v I I I I #
coedge $-1 $378 $555 $710 $711 forward $231 $-1 #
edge $-1 $712 -17.432302648737874 $553 -9.1317301076532829 $378 $713 forward 7 unknown #
coedge $-1 $380 $379 $714 $715 reversed $145 $-1 #
coedge $-1 $716 $385 $380 $551 forward $545 $-1 #
edge $-1 $552 9.1317301076532829 $717 17.432302648737874 $550 $718 forward 7 unknown #
vertex $-1 $386 $719 #
vertex $-1 $384 $720 #
straight-curve $-1 -51.10199285866878 22.413746485848861 0 0 0 -1 I I #
coedge $-1 $547 $383 $388 $561 forward $231 $-1 #
straight-curve $-1 -26.30099642933439 22.413746485848861 -10.534748029416781 -1 0 0 I I #
coedge $-1 $385 $716 $387 $560 forward $545 $-1 #
straight-curve $-1 -26.30099642933439 22.413746485848861 10.534748029416781 1 0 0 I I #
coedge $-1 $388 $387 $721 $722 forward $376 $-1 #
edge $-1 $723 -30.714319026933453 $390 -22.413746485848861 $387 $724 forward 7 unknown #
edge $-1 $389 22.413746485848861 $725 30.714319026933453 $388 $726 forward 7 unknown #
point $-1 -54.10199285866878 22.413746485848861 -10.534748029416781 #
point $-1 -54.10199285866878 22.413746485848861 10.534748029416781 #
plane-surface $-1 0 0 10.534748029416781 0 0 1 1 0 0 forward_v I I I I #
coedge $-1 $575 $574 $567 $727 forward $393 $-1 #
coedge $-1 $567 $395 $397 $571 reversed $239 $-1 #
coedge $-1 $395 $566 $565 $727 reversed $239 $-1 #
coedge $-1 $403 $398 $395 $569 forward $404 $-1 #
edge $-1 $572 19.606843382362108 $728 31.055312356111209 $568 $729 forward 7 unknown #
coedge $-1 $397 $396 $575 $730 reversed $149 $-1 #
edge $-1 $731 -108.20398571733759 $572 -92.798551012166698 $566 $732 forward 7 unknown #
vertex $-1 $399 $733 #
straight-curve $-1 42.653523884919686 -8.3539248959858217 10.534748029416775 0 -1 0 I I #
coedge $-1 $565 $400 $403 $579 reversed $393 $-1 #
coedge $-1 $400 $565 $570 $730 forward $393 $-1 #
vertex $-1 $401 $734 #
straight-curve $-1 54.10199285866878 -13.128001760005603 76.520165391015226 0 0 1 I I #
straight-curve $-1 -26.309238439149283 -13.128001760005603 72.629099484212404 0.74314481823134659 0 -0.66913061440640931 I I #
edge $-1 $728 -20.287697823937684 $405 -13.128001760005603 $574 $735 forward 7 unknown #
point $-1 54.10199285866878 -13.128001760005603 10.534748029416781 #
point $-1 42.653523884919679 -13.128001760005603 10.534748029416782 #
edge $-1 $736 1 $736 0 $408 $-1 forward 7 unknown #
vertex $-1 $409 $737 #
ellipse-curve $-1 47.195716790804198 -18.242070377099946 4.0678338903755131 0.66913061440640931 0 0.74314481823134659 0.3715724091156733 0 -0.33456530720320465 1 I I #
point $-1 48.749330780909908 -18.242070377099946 5.0460587274791795 #
edge $-1 $738 1 $738 0 $412 $-1 forward 7 unknown #
vertex $-1 $413 $739 #
ellipse-curve $-1 47.195716790804198 -15.173629206843341 4.0678338903755131 0.66913061440640931 0 0.74314481823134659 0.3715724091156733 0 -0.33456530720320465 1 I I #
point $-1 48.749330780909908 -15.173629206843341 5.0460587274791795 #
plane-surface $-1 0 0 10.534748029416781 0 0 1 1 0 0 forward_v I I I I #
coedge $-1 $601 $600 $593 $740 forward $417 $-1 #
coedge $-1 $593 $419 $421 $597 reversed $261 $-1 #
coedge $-1 $419 $592 $591 $740 reversed $261 $-1 #
coedge $-1 $427 $422 $419 $595 forward $428 $-1 #
edge $-1 $598 19.606843382362108 $741 31.055312356111209 $594 $742 forward 7 unknown #
coedge $-1 $421 $420 $601 $743 reversed $163 $-1 #
edge $-1 $744 -108.20398571733759 $598 -92.798551012166698 $592 $745 forward 7 unknown #
vertex $-1 $423 $746 #
straight-curve $-1 42.653523884919686 2.8529483469386108 10.534748029416775 0 -1 0 I I #
coedge $-1 $591 $424 $427 $605 reversed $417 $-1 #
coedge $-1 $424 $591 $596 $743 forward $417 $-1 #
vertex $-1 $425 $747 #
straight-curve $-1 54.10199285866878 9.2857447258432622 76.520165391015226 0 0 1 I I #
straight-curve $-1 -26.309238439149283 9.2857447258432622 72.629099484212404 0.74314481823134659 0 -0.66913061440640931 I I #
edge $-1 $741 2.1260486619111809 $429 9.2857447258432622 $600 $748 forward 7 unknown #
point $-1 54.10199285866878 9.2857447258432622 10.534748029416781 #
point $-1 42.653523884919679 9.2857447258432622 10.534748029416782 #
edge $-1 $749 1 $749 0 $432 $-1 forward 7 unknown #
vertex $-1 $433 $750 #
ellipse-curve $-1 47.195716790804198 4.1716761087489118 4.0678338903755131 0.66913061440640931 0 0.74314481823134659 0.3715724091156733 0 -0.33456530720320465 1 I I #
point $-1 48.749330780909908 4.1716761087489118 5.0460587274791795 #
edge $-1 $751 1 $751 0 $436 $-1 forward 7 unknown #
vertex $-1 $437 $752 #
ellipse-curve $-1 47.195716790804198 7.240117279005517 4.0678338903755131 0.66913061440640931 0 0.74314481823134659 0.3715724091156733 0 -0.33456530720320465 1 I I #
point $-1 48.749330780909908 7.240117279005517 5.0460587274791795 #
loop $-1 $-1 $448 $440 #
plane-surface $-1 -54.10199285866878 0 0 1 0 0 0 0 -1 forward_v I I I I #
coedge $-1 $619 $443 $445 $623 reversed $283 $-1 #
coedge $-1 $443 $618 $753 $754 reversed $283 $-1 #
coedge $-1 $451 $446 $443 $621 forward $441 $-1 #
edge $-1 $624 -22.932303009347002 $755 -18.830096041466192 $620 $756 forward 7 unknown #
coedge $-1 $445 $444 $627 $757 reversed $177 $-1 #
edge $-1 $758 -2.6737665129848107e-014 $624 7.7411925607024274 $618 $759 forward 7 unknown #
vertex $-1 $447 $760 #
straight-curve $-1 -49.999785890787969 -4.1303467417109196 10.534748029416782 0 1 0 I I #
coedge $-1 $753 $448 $451 $631 reversed $616 $-1 #
coedge $-1 $448 $753 $622 $757 forward $616 $-1 #
vertex $-1 $449 $761 #
straight-curve $-1 -54.10199285866878 -12.518196196757893 30.654609740585041 0 0 1 I I #
straight-curve $-1 -54.101992858668766 -12.518196196757893 3.9698443549867548 -0.52991925155115449 0 -0.84804810408105047 I I #
edge $-1 $755 4.0031907700857854 $452 12.518196196757893 $626 $762 forward 7 unknown #
point $-1 -54.10199285866878 -12.518196196757893 10.534748029416781 #
point $-1 -49.999785890787969 -12.518196196757893 10.534748029416781 #
edge $-1 $763 1 $763 0 $455 $-1 forward 7 unknown #
vertex $-1 $456 $764 #
ellipse-curve $-1 -51.202841270647333 -10.815195111423471 6.7223769406506184 -0.84804810408105047 0 0.52991925155115449 0.26495962577557725 0 0.42402405204052523 1 I I #
point $-1 -51.78592974895281 -10.815195111423471 7.6763202442422989 #
edge $-1 $765 1 $765 0 $459 $-1 forward 7 unknown #
vertex $-1 $460 $766 #
ellipse-curve $-1 -51.202841270647333 -8.2606934834218393 6.7223769406506184 -0.84804810408105047 0 0.52991925155115449 0.26495962577557725 0 0.42402405204052523 1 I I #
point $-1 -51.78592974895281 -8.2606934834218393 7.6763202442422989 #
edge $-1 $767 1 $767 0 $463 $-1 forward 7 unknown #
vertex $-1 $464 $768 #
ellipse-curve $-1 -51.202841270647333 -5.706191855420208 6.7223769406506184 -0.84804810408105047 0 0.52991925155115449 0.26495962577557725 0 0.42402405204052523 1 I I #
point $-1 -51.78592974895281 -5.706191855420208 7.6763202442422989 #
loop $-1 $-1 $475 $467 #
plane-surface $-1 -54.10199285866878 0 0 1 0 0 0 0 -1 forward_v I I I I #
coedge $-1 $649 $470 $472 $653 reversed $312 $-1 #
coedge $-1 $470 $648 $769 $770 reversed $312 $-1 #
coedge $-1 $478 $473 $470 $651 forward $468 $-1 #
edge $-1 $654 -22.932303009347002 $771 -18.830096041466192 $650 $772 forward 7 unknown #
coedge $-1 $472 $471 $657 $773 reversed $196 $-1 #
edge $-1 $774 -2.6737665129848107e-014 $654 7.7411925607024274 $648 $775 forward 7 unknown #
vertex $-1 $474 $776 #
straight-curve $-1 -49.999785890787969 4.1303467417109232 10.534748029416782 0 1 0 I I #
coedge $-1 $769 $475 $478 $661 reversed $646 $-1 #
coedge $-1 $475 $769 $652 $773 forward $646 $-1 #
vertex $-1 $476 $777 #
straight-curve $-1 -54.10199285866878 4.0031907700857925 30.654609740585041 0 0 1 I I #
straight-curve $-1 -54.101992858668766 4.0031907700857925 3.9698443549867548 -0.52991925155115449 0 -0.84804810408105047 I I #
edge $-1 $771 -12.5181961967579 $479 -4.0031907700857925 $656 $778 forward 7 unknown #
point $-1 -54.10199285866878 4.0031907700857925 10.534748029416781 #
point $-1 -49.999785890787969 4.0031907700857925 10.534748029416781 #
edge $-1 $779 1 $779 0 $482 $-1 forward 7 unknown #
vertex $-1 $483 $780 #
ellipse-curve $-1 -51.202841270647333 5.7061918554202151 6.7223769406506184 -0.84804810408105047 0 0.52991925155115449 0.26495962577557725 0 0.42402405204052523 1 I I #
point $-1 -51.78592974895281 5.7061918554202151 7.6763202442422989 #
edge $-1 $781 1 $781 0 $486 $-1 forward 7 unknown #
vertex $-1 $487 $782 #
ellipse-curve $-1 -51.202841270647333 8.2606934834218464 6.7223769406506184 -0.84804810408105047 0 0.52991925155115449 0.26495962577557725 0 0.42402405204052523 1 I I #
point $-1 -51.78592974895281 8.2606934834218464 7.6763202442422989 #
edge $-1 $783 1 $783 0 $490 $-1 forward 7 unknown #
vertex $-1 $491 $784 #
ellipse-curve $-1 -51.202841270647333 10.815195111423478 6.7223769406506184 -0.84804810408105047 0 0.52991925155115449 0.26495962577557725 0 0.42402405204052523 1 I I #
point $-1 -51.78592974895281 10.815195111423478 7.6763202442422989 #
plane-surface $-1 54.10199285866878 0 0 -1 0 0 0 0 1 forward_v I I I I #
coedge $-1 $499 $497 $501 $681 reversed $341 $-1 #
edge $-1 $512 -10.534748029416781 $683 10.534748029416781 $511 $785 forward 7 unknown #
vertex $-1 $681 $786 #
straight-curve $-1 -54.10199285866878 -30.714319026933453 0 0 0 -1 I I #
edge $-1 $679 -30.714319026933453 $683 30.714319026933453 $677 $787 forward 7 unknown #
straight-curve $-1 0 -30.714319026933453 -10.534748029416781 -1 0 0 I I #
vertex $-1 $504 $788 #
straight-curve $-1 0 30.714319026933453 -10.534748029416781 1 0 0 I I #
point $-1 54.10199285866878 30.714319026933453 -10.534748029416781 #
point $-1 54.10199285866878 -30.714319026933453 -10.534748029416781 #
straight-curve $-1 -54.10199285866878 0 10.534748029416781 0 -1 0 I I #
point $-1 -54.10199285866878 30.714319026933453 10.534748029416781 #
point $-1 -54.10199285866878 -30.714319026933453 10.534748029416781 #
straight-curve $-1 54.10199285866878 -30.714319026933453 0 0 0 -1 I I #
straight-curve $-1 54.10199285866878 30.714319026933453 0 0 0 -1 I I #
plane-surface $-1 0 -30.714319026933453 0 0 1 0 0 0 1 forward_v I I I I #
coedge $-1 $789 $524 $536 $704 reversed $360 $-1 #
coedge $-1 $524 $789 $539 $706 reversed $360 $-1 #
edge $-1 $790 -54.10199285866878 $533 -51.10199285866878 $529 $791 forward 7 unknown #
straight-curve $-1 -51.10199285866878 -13.282016378195578 10.534748029416781 0 1 0 I I #
coedge $-1 $536 $527 $530 $700 forward $522 $-1 #
straight-curve $-1 -51.10199285866878 -13.282016378195578 -10.534748029416781 0 -1 0 I I #
coedge $-1 $530 $529 $789 $792 forward $531 $-1 #
edge $-1 $532 51.10199285866878 $793 54.10199285866878 $530 $794 forward 7 unknown #
point $-1 -51.10199285866878 -30.714319026933453 -10.534748029416781 #
point $-1 -51.10199285866878 -30.714319026933453 10.534748029416781 #
straight-curve $-1 -54.10199285866878 -22.413746485848861 0 0 0 -1 I I #
edge $-1 $793 -30.714319026933453 $537 -22.413746485848861 $693 $795 forward 7 unknown #
point $-1 -54.10199285866878 -22.413746485848861 -10.534748029416781 #
edge $-1 $540 22.413746485848861 $790 30.714319026933453 $694 $796 forward 7 unknown #
point $-1 -54.10199285866878 -22.413746485848861 10.534748029416781 #
loop $-1 $-1 $714 $544 #
plane-surface $-1 0 30.714319026933453 0 0 -1 0 0 0 -1 forward_v I I I I #
coedge $-1 $721 $714 $547 $711 reversed $708 $-1 #
edge $-1 $725 -54.10199285866878 $712 -51.10199285866878 $710 $797 forward 7 unknown #
vertex $-1 $548 $798 #
straight-curve $-1 -51.10199285866878 13.282016378195578 -10.534748029416781 0 -1 0 I I #
coedge $-1 $710 $799 $549 $715 forward $708 $-1 #
edge $-1 $717 -10.534748029416781 $712 10.534748029416781 $714 $800 forward 7 unknown #
coedge $-1 $557 $550 $799 $801 forward $545 $-1 #
vertex $-1 $801 $802 #
straight-curve $-1 -51.10199285866878 13.282016378195578 10.534748029416781 0 1 0 I I #
point $-1 -51.10199285866878 22.413746485848861 10.534748029416781 #
point $-1 -51.10199285866878 22.413746485848861 -10.534748029416781 #
coedge $-1 $799 $710 $559 $722 reversed $708 $-1 #
edge $-1 $723 -10.534748029416781 $725 10.534748029416781 $721 $803 forward 7 unknown #
vertex $-1 $801 $804 #
straight-curve $-1 -54.10199285866878 0 10.534748029416781 0 -1 0 I I #
vertex $-1 $711 $805 #
straight-curve $-1 -54.10199285866878 0 -10.534748029416781 0 1 0 I I #
edge $-1 $728 65.985417361598451 $731 76.293665351067261 $565 $806 forward 7 unknown #
vertex $-1 $579 $807 #
straight-curve $-1 23.046680502557571 -20.287697823937684 10.534748029416775 1 0 0 I I #
edge $-1 $731 -11.933772927951862 $576 -4.774076864019781 $575 $808 forward 7 unknown #
vertex $-1 $730 $809 #
straight-curve $-1 -26.309238439149283 -20.287697823937684 72.629099484212404 -0.74314481823134659 0 0.66913061440640931 I I #
point $-1 42.653523884919679 -20.287697823937684 10.534748029416782 #
point $-1 54.10199285866878 -13.128001760005603 0.22650003994796464 #
straight-curve $-1 54.10199285866878 0 10.534748029416781 0 1 0 I I #
vertex $-1 $582 $810 #
point $-1 47.56728919991987 -18.242070377099946 3.7332685831723085 #
vertex $-1 $586 $811 #
point $-1 47.56728919991987 -15.173629206843341 3.7332685831723085 #
edge $-1 $741 65.985417361598451 $744 76.293665351067261 $591 $812 forward 7 unknown #
vertex $-1 $605 $813 #
straight-curve $-1 23.046680502557571 2.1260486619111809 10.534748029416775 1 0 0 I I #
edge $-1 $744 -0.72689968502742985 $602 6.4327963789046514 $601 $814 forward 7 unknown #
vertex $-1 $743 $815 #
straight-curve $-1 -26.309238439149283 2.1260486619111809 72.629099484212404 -0.74314481823134659 0 0.66913061440640931 I I #
point $-1 42.653523884919679 2.1260486619111809 10.534748029416782 #
point $-1 54.10199285866878 9.2857447258432622 0.22650003994796464 #
straight-curve $-1 54.10199285866878 0 10.534748029416781 0 1 0 I I #
vertex $-1 $608 $816 #
point $-1 47.56728919991987 4.1716761087489118 3.7332685831723085 #
vertex $-1 $612 $817 #
point $-1 47.56728919991987 7.240117279005517 3.7332685831723085 #
coedge $-1 $627 $626 $619 $754 forward $616 $-1 #
edge $-1 $755 20.119861711168262 $758 26.684765385598308 $753 $818 forward 7 unknown #
vertex $-1 $631 $819 #
straight-curve $-1 -72.932088900134971 -4.0031907700857854 10.534748029416782 -1 0 0 I I #
edge $-1 $758 -0.12715597162513426 $628 8.3878494550469735 $627 $820 forward 7 unknown #
vertex $-1 $757 $821 #
straight-curve $-1 -54.101992858668766 -4.0031907700857854 3.9698443549867548 0.52991925155115449 0 0.84804810408105047 I I #
point $-1 -49.999785890787969 -4.0031907700857854 10.534748029416781 #
point $-1 -54.10199285866878 -12.518196196757893 3.9698443549867322 #
straight-curve $-1 -54.10199285866878 0 10.534748029416781 0 -1 0 I I #
vertex $-1 $634 $822 #
point $-1 -50.937881644871759 -10.815195111423471 7.1464009926911443 #
vertex $-1 $638 $823 #
point $-1 -50.937881644871759 -8.2606934834218393 7.1464009926911443 #
vertex $-1 $642 $824 #
point $-1 -50.937881644871759 -5.706191855420208 7.1464009926911443 #
coedge $-1 $657 $656 $649 $770 forward $646 $-1 #
edge $-1 $771 20.119861711168262 $774 26.684765385598308 $769 $825 forward 7 unknown #
vertex $-1 $661 $826 #
straight-curve $-1 -72.932088900134971 12.5181961967579 10.534748029416782 -1 0 0 I I #
edge $-1 $774 -8.3878494550469771 $658 0.1271559716251307 $657 $827 forward 7 unknown #
vertex $-1 $773 $828 #
straight-curve $-1 -54.101992858668766 12.5181961967579 3.9698443549867548 0.52991925155115449 0 0.84804810408105047 I I #
point $-1 -49.999785890787969 12.5181961967579 10.534748029416781 #
point $-1 -54.10199285866878 4.0031907700857925 3.9698443549867322 #
straight-curve $-1 -54.10199285866878 0 10.534748029416781 0 -1 0 I I #
vertex $-1 $664 $829 #
point $-1 -50.937881644871759 5.7061918554202151 7.1464009926911443 #
vertex $-1 $668 $830 #
point $-1 -50.937881644871759 8.2606934834218464 7.1464009926911443 #
vertex $-1 $672 $831 #
point $-1 -50.937881644871759 10.815195111423478 7.1464009926911443 #
straight-curve $-1 -54.10199285866878 30.714319026933453 0 0 0 -1 I I #
point $-1 -54.10199285866878 -30.714319026933453 -10.534748029416781 #
straight-curve $-1 -54.10199285866878 0 -10.534748029416781 0 1 0 I I #
point $-1 -54.10199285866878 30.714319026933453 -10.534748029416781 #
coedge $-1 $694 $693 $699 $792 reversed $360 $-1 #
vertex $-1 $706 $832 #
straight-curve $-1 0 -30.714319026933453 10.534748029416781 1 0 0 I I #
edge $-1 $790 -10.534748029416781 $793 10.534748029416781 $789 $833 forward 7 unknown #
vertex $-1 $704 $834 #
straight-curve $-1 0 -30.714319026933453 -10.534748029416781 -1 0 0 I I #
straight-curve $-1 -54.10199285866878 0 -10.534748029416781 0 1 0 I I #
straight-curve $-1 -54.10199285866878 0 10.534748029416781 0 -1 0 I I #
straight-curve $-1 0 30.714319026933453 -10.534748029416781 1 0 0 I I #
point $-1 -51.10199285866878 30.714319026933453 -10.534748029416781 #
coedge $-1 $714 $721 $716 $801 reversed $708 $-1 #
straight-curve $-1 -51.10199285866878 30.714319026933453 0 0 0 -1 I I #
edge $-1 $717 51.10199285866878 $723 54.10199285866878 $799 $835 forward 7 unknown #
point $-1 -51.10199285866878 30.714319026933453 10.534748029416781 #
straight-curve $-1 -54.10199285866878 30.714319026933453 0 0 0 -1 I I #
point $-1 -54.10199285866878 30.714319026933453 10.534748029416781 #
point $-1 -54.10199285866878 30.714319026933453 -10.534748029416781 #
straight-curve $-1 54.10199285866878 -20.287697823937684 76.520165391015226 0 0 -1 I I #
point $-1 54.10199285866878 -20.287697823937684 10.534748029416781 #
straight-curve $-1 54.101992858668773 -8.3539248959858217 0.22650003994796464 0 1 0 I I #
point $-1 54.10199285866878 -20.287697823937684 0.22650003994796464 #
point $-1 46.861151483600992 -18.242070377099946 3.6962614812598398 #
point $-1 46.861151483600992 -15.173629206843341 3.6962614812598398 #
straight-curve $-1 54.10199285866878 2.1260486619111809 76.520165391015226 0 0 -1 I I #
point $-1 54.10199285866878 2.1260486619111809 10.534748029416781 #
straight-curve $-1 54.101992858668773 2.8529483469386108 0.22650003994796464 0 1 0 I I #
point $-1 54.10199285866878 2.1260486619111809 0.22650003994796464 #
point $-1 46.861151483600992 4.1716761087489118 3.6962614812598398 #
point $-1 46.861151483600992 7.240117279005517 3.6962614812598398 #
straight-curve $-1 -54.10199285866878 -4.0031907700857854 30.654609740585041 0 0 -1 I I #
point $-1 -54.10199285866878 -4.0031907700857854 10.534748029416781 #
straight-curve $-1 -54.10199285866878 -4.1303467417109196 3.9698443549867357 0 -1 0 I I #
point $-1 -54.10199285866878 -4.0031907700857854 3.9698443549867322 #
point $-1 -50.778817218606811 -10.815195111423471 6.457417314875042 #
point $-1 -50.778817218606811 -8.2606934834218393 6.457417314875042 #
point $-1 -50.778817218606811 -5.706191855420208 6.457417314875042 #
straight-curve $-1 -54.10199285866878 12.5181961967579 30.654609740585041 0 0 -1 I I #
point $-1 -54.10199285866878 12.5181961967579 10.534748029416781 #
straight-curve $-1 -54.10199285866878 4.1303467417109232 3.9698443549867357 0 -1 0 I I #
point $-1 -54.10199285866878 12.5181961967579 3.9698443549867322 #
point $-1 -50.778817218606811 5.7061918554202151 6.457417314875042 #
point $-1 -50.778817218606811 8.2606934834218464 6.457417314875042 #
point $-1 -50.778817218606811 10.815195111423478 6.457417314875042 #
point $-1 -54.10199285866878 -30.714319026933453 10.534748029416781 #
straight-curve $-1 -54.10199285866878 -30.714319026933453 0 0 0 -1 I I #
point $-1 -54.10199285866878 -30.714319026933453 -10.534748029416781 #
straight-curve $-1 0 30.714319026933453 10.534748029416781 -1 0 0 I I #
End-of-ACIS-data 