500 0 20 0           
7 Unknown 11 ACIS 5.0 NT 24 Thu Mar 25 18:39:03 1999 
-1 9.9999999999999995e-007 1e-010 
body $-1 $20 $-1 $21 #
body $-1 $22 $-1 $23 #
body $-1 $24 $-1 $25 #
body $-1 $26 $-1 $27 #
body $-1 $28 $-1 $29 #
body $-1 $30 $-1 $31 #
body $-1 $32 $-1 $33 #
body $-1 $34 $-1 $35 #
body $-1 $36 $-1 $37 #
body $-1 $38 $-1 $39 #
body $-1 $40 $-1 $41 #
body $-1 $42 $-1 $43 #
body $-1 $44 $-1 $45 #
body $-1 $46 $-1 $47 #
body $-1 $48 $-1 $49 #
body $-1 $50 $-1 $51 #
body $-1 $52 $-1 $53 #
body $-1 $54 $-1 $55 #
body $-1 $56 $-1 $57 #
body $-1 $58 $-1 $59 #
lump $-1 $-1 $60 $0 #
transform $-1 1 0 0 0 1 0 0 0 1 66.289864803003013 45.518015477009378 14.223285887250931 1 rotate no_reflect no_shear #
lump $-1 $-1 $61 $1 #
transform $-1 1 0 0 0 1 0 0 0 1 66.289864803003013 45.518015477009378 14.223285887250931 1 rotate no_reflect no_shear #
lump $-1 $-1 $62 $2 #
transform $-1 1 0 0 0 1 0 0 0 1 66.289864803003013 45.518015477009378 14.223285887250931 1 rotate no_reflect no_shear #
lump $-1 $-1 $63 $3 #
transform $-1 1 0 0 0 1 0 0 0 1 66.289864803003013 45.518015477009378 14.223285887250931 1 rotate no_reflect no_shear #
lump $-1 $-1 $64 $4 #
transform $-1 1 0 0 0 1 0 0 0 1 66.289864803003013 45.518015477009378 14.223285887250931 1 rotate no_reflect no_shear #
lump $-1 $-1 $65 $5 #
transform $-1 1 0 0 0 1 0 0 0 1 66.289864803003013 45.518015477009378 14.223285887250931 1 rotate no_reflect no_shear #
lump $-1 $-1 $66 $6 #
transform $-1 1 0 0 0 1 0 0 0 1 66.289864803003013 45.518015477009378 14.223285887250931 1 rotate no_reflect no_shear #
lump $-1 $-1 $67 $7 #
transform $-1 1 0 0 0 1 0 0 0 1 66.289864803003013 45.518015477009378 14.223285887250931 1 rotate no_reflect no_shear #
lump $-1 $-1 $68 $8 #
transform $-1 1 0 0 0 1 0 0 0 1 66.289864803003013 45.518015477009378 14.223285887250931 1 rotate no_reflect no_shear #
lump $-1 $-1 $69 $9 #
transform $-1 1 0 0 0 1 0 0 0 1 66.289864803003013 45.518015477009378 14.223285887250931 1 rotate no_reflect no_shear #
lump $-1 $-1 $70 $10 #
transform $-1 1 0 0 0 1 0 0 0 1 66.289864803003013 45.518015477009378 14.223285887250931 1 rotate no_reflect no_shear #
lump $-1 $-1 $71 $11 #
transform $-1 1 0 0 0 1 0 0 0 1 66.289864803003013 45.518015477009378 14.223285887250931 1 rotate no_reflect no_shear #
lump $-1 $-1 $72 $12 #
transform $-1 1 0 0 0 1 0 0 0 1 66.289864803003013 45.518015477009378 14.223285887250931 1 rotate no_reflect no_shear #
lump $-1 $-1 $73 $13 #
transform $-1 1 0 0 0 1 0 0 0 1 66.289864803003013 45.518015477009378 14.223285887250931 1 rotate no_reflect no_shear #
lump $-1 $-1 $74 $14 #
transform $-1 1 0 0 0 1 0 0 0 1 66.289864803003013 45.518015477009378 14.223285887250931 1 rotate no_reflect no_shear #
lump $-1 $-1 $75 $15 #
transform $-1 1 0 0 0 1 0 0 0 1 66.289864803003013 45.518015477009378 14.223285887250931 1 rotate no_reflect no_shear #
lump $-1 $-1 $76 $16 #
transform $-1 1 0 0 0 1 0 0 0 1 66.289864803003013 45.518015477009378 14.223285887250931 1 rotate no_reflect no_shear #
lump $-1 $-1 $77 $17 #
transform $-1 1 0 0 0 1 0 0 0 1 66.289864803003013 45.518015477009378 14.223285887250931 1 rotate no_reflect no_shear #
lump $-1 $-1 $78 $18 #
transform $-1 1 0 0 0 1 0 0 0 1 66.289864803003013 45.518015477009378 14.223285887250931 1 rotate no_reflect no_shear #
lump $-1 $-1 $79 $19 #
transform $-1 1 0 0 0 1 0 0 0 1 66.289864803003013 45.518015477009378 14.223285887250931 1 rotate no_reflect no_shear #
shell $-1 $-1 $-1 $80 $-1 $20 #
shell $-1 $-1 $-1 $81 $-1 $22 #
shell $-1 $-1 $-1 $82 $-1 $24 #
shell $-1 $-1 $-1 $83 $-1 $26 #
shell $-1 $-1 $-1 $84 $-1 $28 #
shell $-1 $-1 $-1 $85 $-1 $30 #
shell $-1 $-1 $-1 $86 $-1 $32 #
shell $-1 $-1 $-1 $87 $-1 $34 #
shell $-1 $-1 $-1 $88 $-1 $36 #
shell $-1 $-1 $-1 $89 $-1 $38 #
shell $-1 $-1 $-1 $90 $-1 $40 #
shell $-1 $-1 $-1 $91 $-1 $42 #
shell $-1 $-1 $-1 $92 $-1 $44 #
shell $-1 $-1 $-1 $93 $-1 $46 #
shell $-1 $-1 $-1 $94 $-1 $48 #
shell $-1 $-1 $-1 $95 $-1 $50 #
shell $-1 $-1 $-1 $96 $-1 $52 #
shell $-1 $-1 $-1 $97 $-1 $54 #
shell $-1 $-1 $-1 $98 $-1 $56 #
shell $-1 $-1 $-1 $99 $-1 $58 #
face $-1 $100 $101 $60 $-1 $102 forward single #
face $-1 $103 $104 $61 $-1 $105 reversed single #
face $-1 $106 $107 $62 $-1 $108 reversed single #
face $-1 $109 $110 $63 $-1 $111 forward single #
face $-1 $112 $113 $64 $-1 $114 forward single #
face $-1 $115 $116 $65 $-1 $117 forward single #
face $-1 $118 $119 $66 $-1 $120 reversed single #
face $-1 $121 $122 $67 $-1 $123 forward single #
face $-1 $124 $125 $68 $-1 $126 forward single #
face $-1 $127 $128 $69 $-1 $129 forward single #
face $-1 $130 $131 $70 $-1 $132 reversed single #
face $-1 $133 $134 $71 $-1 $135 forward single #
face $-1 $136 $137 $72 $-1 $138 forward single #
face $-1 $139 $140 $73 $-1 $141 forward single #
face $-1 $142 $143 $74 $-1 $144 reversed single #
face $-1 $145 $146 $75 $-1 $147 forward single #
face $-1 $148 $149 $76 $-1 $150 forward single #
face $-1 $151 $152 $77 $-1 $153 forward single #
face $-1 $154 $155 $78 $-1 $156 reversed single #
face $-1 $157 $158 $79 $-1 $159 forward single #
face $-1 $160 $161 $60 $-1 $162 reversed single #
loop $-1 $-1 $163 $80 #
plane-surface $-1 0 0 14.223285887250931 0 0 1 1 0 0 forward_v I I I I #
face $-1 $164 $165 $61 $-1 $166 reversed single #
loop $-1 $-1 $167 $81 #
plane-surface $-1 0 -38.146093390230334 8.0069195067058505 0 0 1 1 0 0 forward_v I I I I #
face $-1 $168 $169 $62 $-1 $170 reversed single #
loop $-1 $-1 $171 $82 #
plane-surface $-1 -134.57347441970956 -25.405054833220561 120.85609405859935 0 1 0 -0.51503808176128008 0 0.85716729658548041 forward_v I I I I #
face $-1 $172 $173 $63 $-1 $174 forward single #
loop $-1 $175 $176 $83 #
cone-surface $-1 -60.021134383033512 -23.132377947438897 9.9937843134361763 0.51503808176128008 0 -0.85716729658548041 0.4285836482927402 0 0.25751904088064004 1 I I 0 1 0.5 forward I I I I #
face $-1 $177 $178 $64 $-1 $179 forward single #
loop $-1 $180 $181 $84 #
cone-surface $-1 -60.021134383033512 -19.723362618766409 9.9937843134361763 0.51503808176128008 0 -0.85716729658548041 0.4285836482927402 0 0.25751904088064004 1 I I 0 1 0.5 forward I I I I #
face $-1 $182 $183 $65 $-1 $184 forward single #
loop $-1 $185 $186 $85 #
cone-surface $-1 -60.021134383033512 -16.31434729009392 9.9937843134361763 0.51503808176128008 0 -0.85716729658548041 0.4285836482927402 0 0.25751904088064004 1 I I 0 1 0.5 forward I I I I #
face $-1 $187 $188 $66 $-1 $189 reversed single #
loop $-1 $-1 $190 $86 #
plane-surface $-1 -134.57347441970956 -7.3415316961902573 120.85609405859935 0 1 0 -0.51503808176128008 0 0.85716729658548041 forward_v I I I I #
face $-1 $191 $192 $67 $-1 $193 forward single #
loop $-1 $194 $195 $87 #
cone-surface $-1 -60.021134383033512 -5.0688548104085882 9.9937843134361763 0.51503808176128008 0 -0.85716729658548041 0.4285836482927402 0 0.25751904088064004 1 I I 0 1 0.5 forward I I I I #
face $-1 $196 $197 $68 $-1 $198 forward single #
loop $-1 $199 $200 $88 #
cone-surface $-1 -60.021134383033512 -1.6598394817361068 9.9937843134361763 0.51503808176128008 0 -0.85716729658548041 0.4285836482927402 0 0.25751904088064004 1 I I 0 1 0.5 forward I I I I #
face $-1 $201 $202 $69 $-1 $203 forward single #
loop $-1 $204 $205 $89 #
cone-surface $-1 -60.021134383033512 1.7491758469363887 9.9937843134361763 0.51503808176128008 0 -0.85716729658548041 0.4285836482927402 0 0.25751904088064004 1 I I 0 1 0.5 forward I I I I #
face $-1 $206 $207 $70 $-1 $208 reversed single #
loop $-1 $-1 $209 $90 #
plane-surface $-1 -134.57347441970956 10.721991440840045 120.85609405859935 0 1 0 -0.51503808176128008 0 0.85716729658548041 forward_v I I I I #
face $-1 $210 $211 $71 $-1 $212 forward single #
loop $-1 $213 $214 $91 #
cone-surface $-1 -60.021134383033512 12.994668326621714 9.9937843134361763 0.51503808176128008 0 -0.85716729658548041 0.4285836482927402 0 0.25751904088064004 1 I I 0 1 0.5 forward I I I I #
face $-1 $215 $216 $72 $-1 $217 forward single #
loop $-1 $218 $219 $92 #
cone-surface $-1 -60.021134383033512 16.403683655294195 9.9937843134361763 0.51503808176128008 0 -0.85716729658548041 0.4285836482927402 0 0.25751904088064004 1 I I 0 1 0.5 forward I I I I #
face $-1 $220 $221 $73 $-1 $222 forward single #
loop $-1 $223 $224 $93 #
cone-surface $-1 -60.021134383033512 19.81269898396669 9.9937843134361763 0.51503808176128008 0 -0.85716729658548041 0.4285836482927402 0 0.25751904088064004 1 I I 0 1 0.5 forward I I I I #
face $-1 $225 $226 $74 $-1 $227 reversed single #
loop $-1 $-1 $228 $94 #
plane-surface $-1 -134.57347441970956 28.785514577870345 120.85609405859935 0 1 0 -0.51503808176128008 0 0.85716729658548041 forward_v I I I I #
face $-1 $229 $230 $75 $-1 $231 forward single #
loop $-1 $232 $233 $95 #
cone-surface $-1 -60.021134383033512 31.058191463652015 9.9937843134361763 0.51503808176128008 0 -0.85716729658548041 0.4285836482927402 0 0.25751904088064004 1 I I 0 1 0.5 forward I I I I #
face $-1 $234 $235 $76 $-1 $236 forward single #
loop $-1 $237 $238 $96 #
cone-surface $-1 -60.021134383033512 34.467206792324497 9.9937843134361763 0.51503808176128008 0 -0.85716729658548041 0.4285836482927402 0 0.25751904088064004 1 I I 0 1 0.5 forward I I I I #
face $-1 $239 $240 $77 $-1 $241 forward single #
loop $-1 $242 $243 $97 #
cone-surface $-1 -60.021134383033512 37.876222120996992 9.9937843134361763 0.51503808176128008 0 -0.85716729658548041 0.4285836482927402 0 0.25751904088064004 1 I I 0 1 0.5 forward I I I I #
face $-1 $244 $245 $78 $-1 $246 reversed single #
loop $-1 $-1 $247 $98 #
plane-surface $-1 -18.930741374020471 39.177174787639977 111.7042654494379 0.7660444514056185 0 0.64278759981090561 0.64278759981090561 0 -0.7660444514056185 forward_v I I I I #
face $-1 $248 $249 $79 $-1 $250 forward single #
loop $-1 $251 $252 $99 #
cone-surface $-1 63.664335042954015 39.177174787639977 11.416398742272936 -0.7660444514056185 0 -0.64278759981090561 0.64278759981090561 0 -0.7660444514056185 1 I I 0 1 1 forward I I I I #
face $-1 $253 $254 $60 $-1 $255 reversed single #
loop $-1 $-1 $256 $100 #
plane-surface $-1 0 0 -14.223285887250931 0 0 1 1 0 0 forward_v I I I I #
coedge $-1 $257 $258 $259 $260 forward $101 $-1 #
face $-1 $261 $262 $61 $-1 $263 reversed single #
loop $-1 $-1 $264 $103 #
plane-surface $-1 0 -30.774171303451286 11.11510269697839 0 -1 0 0 0 -1 forward_v I I I I #
coedge $-1 $265 $266 $267 $268 reversed $104 $-1 #
face $-1 $269 $270 $62 $-1 $271 reversed single #
loop $-1 $-1 $272 $106 #
plane-surface $-1 -66.289864803003013 -19.723362618766409 7.2130856501851923 -0.51503808176128008 0 0.85716729658548041 0.85716729658548041 0 0.51503808176128008 forward_v I I I I #
coedge $-1 $273 $274 $275 $276 reversed $107 $-1 #
face $-1 $-1 $277 $63 $-1 $278 forward single #
loop $-1 $279 $280 $109 #
cone-surface $-1 -59.457110547867622 -23.132377947438897 9.0550910340079405 0.51503808176128008 0 -0.85716729658548041 0.2142918241463701 0 0.12875952044032002 1 I I -0.70710678118654746 0.70710678118654746 0.25 forward I I I I #
loop $-1 $-1 $281 $83 #
coedge $-1 $176 $176 $282 $283 reversed $110 $-1 #
face $-1 $-1 $284 $64 $-1 $285 forward single #
loop $-1 $286 $287 $112 #
cone-surface $-1 -59.457110547867622 -19.723362618766409 9.0550910340079405 0.51503808176128008 0 -0.85716729658548041 0.2142918241463701 0 0.12875952044032002 1 I I -0.70710678118654746 0.70710678118654746 0.25 forward I I I I #
loop $-1 $-1 $288 $84 #
coedge $-1 $181 $181 $289 $290 reversed $113 $-1 #
face $-1 $-1 $291 $65 $-1 $292 forward single #
loop $-1 $293 $294 $115 #
cone-surface $-1 -59.457110547867622 -16.31434729009392 9.0550910340079405 0.51503808176128008 0 -0.85716729658548041 0.2142918241463701 0 0.12875952044032002 1 I I -0.70710678118654746 0.70710678118654746 0.25 forward I I I I #
loop $-1 $-1 $295 $85 #
coedge $-1 $186 $186 $296 $297 reversed $116 $-1 #
face $-1 $298 $299 $66 $-1 $300 reversed single #
loop $-1 $-1 $301 $118 #
plane-surface $-1 -66.289864803003013 -1.6598394817361068 7.2130856501851923 -0.51503808176128008 0 0.85716729658548041 0.85716729658548041 0 0.51503808176128008 forward_v I I I I #
coedge $-1 $302 $303 $304 $305 reversed $119 $-1 #
face $-1 $-1 $306 $67 $-1 $307 forward single #
loop $-1 $308 $309 $121 #
cone-surface $-1 -59.457110547867622 -5.0688548104085882 9.0550910340079405 0.51503808176128008 0 -0.85716729658548041 0.2142918241463701 0 0.12875952044032002 1 I I -0.70710678118654746 0.70710678118654746 0.25 forward I I I I #
loop $-1 $-1 $310 $87 #
coedge $-1 $195 $195 $311 $312 reversed $122 $-1 #
face $-1 $-1 $313 $68 $-1 $314 forward single #
loop $-1 $315 $316 $124 #
cone-surface $-1 -59.457110547867622 -1.6598394817361068 9.0550910340079405 0.51503808176128008 0 -0.85716729658548041 0.2142918241463701 0 0.12875952044032002 1 I I -0.70710678118654746 0.70710678118654746 0.25 forward I I I I #
loop $-1 $-1 $317 $88 #
coedge $-1 $200 $200 $318 $319 reversed $125 $-1 #
face $-1 $-1 $320 $69 $-1 $321 forward single #
loop $-1 $322 $323 $127 #
cone-surface $-1 -59.457110547867622 1.7491758469363887 9.0550910340079405 0.51503808176128008 0 -0.85716729658548041 0.2142918241463701 0 0.12875952044032002 1 I I -0.70710678118654746 0.70710678118654746 0.25 forward I I I I #
loop $-1 $-1 $324 $89 #
coedge $-1 $205 $205 $325 $326 reversed $128 $-1 #
face $-1 $327 $328 $70 $-1 $329 reversed single #
loop $-1 $-1 $330 $130 #
plane-surface $-1 -66.289864803003013 16.403683655294195 7.2130856501851923 -0.51503808176128008 0 0.85716729658548041 0.85716729658548041 0 0.51503808176128008 forward_v I I I I #
coedge $-1 $331 $332 $333 $334 reversed $131 $-1 #
face $-1 $-1 $335 $71 $-1 $336 forward single #
loop $-1 $337 $338 $133 #
cone-surface $-1 -59.457110547867622 12.994668326621714 9.0550910340079405 0.51503808176128008 0 -0.85716729658548041 0.2142918241463701 0 0.12875952044032002 1 I I -0.70710678118654746 0.70710678118654746 0.25 forward I I I I #
loop $-1 $-1 $339 $91 #
coedge $-1 $214 $214 $340 $341 reversed $134 $-1 #
face $-1 $-1 $342 $72 $-1 $343 forward single #
loop $-1 $344 $345 $136 #
cone-surface $-1 -59.457110547867622 16.403683655294195 9.0550910340079405 0.51503808176128008 0 -0.85716729658548041 0.2142918241463701 0 0.12875952044032002 1 I I -0.70710678118654746 0.70710678118654746 0.25 forward I I I I #
loop $-1 $-1 $346 $92 #
coedge $-1 $219 $219 $347 $348 reversed $137 $-1 #
face $-1 $-1 $349 $73 $-1 $350 forward single #
loop $-1 $351 $352 $139 #
cone-surface $-1 -59.457110547867622 19.81269898396669 9.0550910340079405 0.51503808176128008 0 -0.85716729658548041 0.2142918241463701 0 0.12875952044032002 1 I I -0.70710678118654746 0.70710678118654746 0.25 forward I I I I #
loop $-1 $-1 $353 $93 #
coedge $-1 $224 $224 $354 $355 reversed $140 $-1 #
face $-1 $356 $357 $74 $-1 $358 reversed single #
loop $-1 $-1 $359 $142 #
plane-surface $-1 -66.289864803003013 34.467206792324497 7.2130856501851923 -0.51503808176128008 0 0.85716729658548041 0.85716729658548041 0 0.51503808176128008 forward_v I I I I #
coedge $-1 $360 $361 $362 $363 reversed $143 $-1 #
face $-1 $-1 $364 $75 $-1 $365 forward single #
loop $-1 $366 $367 $145 #
cone-surface $-1 -59.457110547867622 31.058191463652015 9.0550910340079405 0.51503808176128008 0 -0.85716729658548041 0.2142918241463701 0 0.12875952044032002 1 I I -0.70710678118654746 0.70710678118654746 0.25 forward I I I I #
loop $-1 $-1 $368 $95 #
coedge $-1 $233 $233 $369 $370 reversed $146 $-1 #
face $-1 $-1 $371 $76 $-1 $372 forward single #
loop $-1 $373 $374 $148 #
cone-surface $-1 -59.457110547867622 34.467206792324497 9.0550910340079405 0.51503808176128008 0 -0.85716729658548041 0.2142918241463701 0 0.12875952044032002 1 I I -0.70710678118654746 0.70710678118654746 0.25 forward I I I I #
loop $-1 $-1 $375 $96 #
coedge $-1 $238 $238 $376 $377 reversed $149 $-1 #
face $-1 $-1 $378 $77 $-1 $379 forward single #
loop $-1 $380 $381 $151 #
cone-surface $-1 -59.457110547867622 37.876222120996992 9.0550910340079405 0.51503808176128008 0 -0.85716729658548041 0.2142918241463701 0 0.12875952044032002 1 I I -0.70710678118654746 0.70710678118654746 0.25 forward I I I I #
loop $-1 $-1 $382 $97 #
coedge $-1 $243 $243 $383 $384 reversed $152 $-1 #
face $-1 $385 $386 $78 $-1 $387 reversed single #
loop $-1 $-1 $388 $154 #
plane-surface $-1 82.631224859517658 32.836334098270562 196.92487162646137 0 1 0 0.7660444514056185 0 0.64278759981090561 forward_v I I I I #
coedge $-1 $389 $390 $391 $392 reversed $155 $-1 #
face $-1 $-1 $393 $79 $-1 $394 forward single #
loop $-1 $395 $396 $157 #
cone-surface $-1 62.367960217760412 39.177174787639977 10.32861113306506 -0.7660444514056185 0 -0.64278759981090561 0.3213937999054528 0 -0.38302222570280925 1 I I -0.70710678118654746 0.70710678118654746 0.5 forward I I I I #
loop $-1 $-1 $397 $99 #
coedge $-1 $252 $252 $398 $399 reversed $158 $-1 #
face $-1 $400 $401 $60 $-1 $402 reversed single #
loop $-1 $-1 $403 $160 #
plane-surface $-1 0 -45.518015477009378 0 0 1 0 0 0 1 forward_v I I I I #
coedge $-1 $404 $405 $406 $407 forward $161 $-1 #
coedge $-1 $408 $163 $409 $410 forward $101 $-1 #
coedge $-1 $163 $408 $411 $412 forward $101 $-1 #
coedge $-1 $413 $414 $163 $260 reversed $415 $-1 #
edge $-1 $416 -45.518015477009378 $417 45.518015477009378 $259 $418 forward 7 unknown #
face $-1 $419 $420 $61 $-1 $421 reversed single #
loop $-1 $-1 $422 $164 #
plane-surface $-1 -66.289864803003013 0 0 1 0 0 0 0 -1 forward_v I I I I #
coedge $-1 $423 $424 $425 $426 reversed $165 $-1 #
coedge $-1 $427 $167 $428 $429 reversed $104 $-1 #
coedge $-1 $167 $427 $423 $430 forward $104 $-1 #
coedge $-1 $425 $431 $167 $268 forward $432 $-1 #
edge $-1 $433 -26.444968781894218 $434 -11.701124608336119 $267 $435 forward 7 unknown #
face $-1 $436 $437 $62 $-1 $438 forward single #
loop $-1 $-1 $439 $168 #
plane-surface $-1 -134.57347441970956 -14.041670404312258 120.85609405859935 0 -1 0 0.51503808176128008 0 -0.85716729658548041 forward_v I I I I #
coedge $-1 $440 $441 $442 $443 reversed $169 $-1 #
coedge $-1 $274 $171 $444 $445 reversed $107 $-1 #
coedge $-1 $171 $273 $440 $446 reversed $107 $-1 #
coedge $-1 $442 $447 $171 $276 forward $437 $-1 #
edge $-1 $448 0.99687240685176448 $449 12.663804617339579 $275 $450 forward 7 unknown #
loop $-1 $-1 $282 $172 #
plane-surface $-1 -66.289864803003013 -19.723362618766409 7.2130856501851923 -0.51503808176128008 0 0.85716729658548041 0.85716729658548041 0 0.51503808176128008 forward_v I I I I #
loop $-1 $-1 $451 $109 #
coedge $-1 $280 $280 $281 $452 reversed $173 $-1 #
coedge $-1 $281 $281 $280 $452 forward $175 $-1 #
coedge $-1 $282 $282 $176 $283 forward $277 $-1 #
edge $-1 $453 0 $453 6.2831853071796004 $282 $454 forward 7 unknown #
loop $-1 $-1 $289 $177 #
plane-surface $-1 -66.289864803003013 -19.723362618766409 7.2130856501851923 -0.51503808176128008 0 0.85716729658548041 0.85716729658548041 0 0.51503808176128008 forward_v I I I I #
loop $-1 $-1 $455 $112 #
coedge $-1 $287 $287 $288 $456 reversed $178 $-1 #
coedge $-1 $288 $288 $287 $456 forward $180 $-1 #
coedge $-1 $289 $289 $181 $290 forward $284 $-1 #
edge $-1 $457 0 $457 6.2831853071796004 $289 $458 forward 7 unknown #
loop $-1 $-1 $296 $182 #
plane-surface $-1 -66.289864803003013 -19.723362618766409 7.2130856501851923 -0.51503808176128008 0 0.85716729658548041 0.85716729658548041 0 0.51503808176128008 forward_v I I I I #
loop $-1 $-1 $459 $115 #
coedge $-1 $294 $294 $295 $460 reversed $183 $-1 #
coedge $-1 $295 $295 $294 $460 forward $185 $-1 #
coedge $-1 $296 $296 $186 $297 forward $291 $-1 #
edge $-1 $461 0 $461 6.2831853071796004 $296 $462 forward 7 unknown #
face $-1 $463 $464 $66 $-1 $465 forward single #
loop $-1 $-1 $466 $187 #
plane-surface $-1 -134.57347441970956 4.0218527327180436 120.85609405859935 0 -1 0 0.51503808176128008 0 -0.85716729658548041 forward_v I I I I #
coedge $-1 $467 $468 $469 $470 reversed $188 $-1 #
coedge $-1 $303 $190 $471 $472 reversed $119 $-1 #
coedge $-1 $190 $302 $467 $473 reversed $119 $-1 #
coedge $-1 $469 $474 $190 $305 forward $464 $-1 #
edge $-1 $475 0.99687240685176448 $476 12.663804617339579 $304 $477 forward 7 unknown #
loop $-1 $-1 $311 $191 #
plane-surface $-1 -66.289864803003013 -1.6598394817361068 7.2130856501851923 -0.51503808176128008 0 0.85716729658548041 0.85716729658548041 0 0.51503808176128008 forward_v I I I I #
loop $-1 $-1 $478 $121 #
coedge $-1 $309 $309 $310 $479 reversed $192 $-1 #
coedge $-1 $310 $310 $309 $479 forward $194 $-1 #
coedge $-1 $311 $311 $195 $312 forward $306 $-1 #
edge $-1 $480 0 $480 6.2831853071796004 $311 $481 forward 7 unknown #
loop $-1 $-1 $318 $196 #
plane-surface $-1 -66.289864803003013 -1.6598394817361068 7.2130856501851923 -0.51503808176128008 0 0.85716729658548041 0.85716729658548041 0 0.51503808176128008 forward_v I I I I #
loop $-1 $-1 $482 $124 #
coedge $-1 $316 $316 $317 $483 reversed $197 $-1 #
coedge $-1 $317 $317 $316 $483 forward $199 $-1 #
coedge $-1 $318 $318 $200 $319 forward $313 $-1 #
edge $-1 $484 0 $484 6.2831853071796004 $318 $485 forward 7 unknown #
loop $-1 $-1 $325 $201 #
plane-surface $-1 -66.289864803003013 -1.6598394817361068 7.2130856501851923 -0.51503808176128008 0 0.85716729658548041 0.85716729658548041 0 0.51503808176128008 forward_v I I I I #
loop $-1 $-1 $486 $127 #
coedge $-1 $323 $323 $324 $487 reversed $202 $-1 #
coedge $-1 $324 $324 $323 $487 forward $204 $-1 #
coedge $-1 $325 $325 $205 $326 forward $320 $-1 #
edge $-1 $488 0 $488 6.2831853071796004 $325 $489 forward 7 unknown #
face $-1 $490 $491 $70 $-1 $492 forward single #
loop $-1 $-1 $493 $206 #
plane-surface $-1 -134.57347441970956 22.085375869748347 120.85609405859935 0 -1 0 0.51503808176128008 0 -0.85716729658548041 forward_v I I I I #
coedge $-1 $494 $495 $496 $497 reversed $207 $-1 #
coedge $-1 $332 $209 $498 $499 reversed $131 $-1 #
coedge $-1 $209 $331 $494 $500 reversed $131 $-1 #
coedge $-1 $496 $501 $209 $334 forward $491 $-1 #
edge $-1 $502 0.99687240685176448 $503 12.663804617339579 $333 $504 forward 7 unknown #
loop $-1 $-1 $340 $210 #
plane-surface $-1 -66.289864803003013 16.403683655294195 7.2130856501851923 -0.51503808176128008 0 0.85716729658548041 0.85716729658548041 0 0.51503808176128008 forward_v I I I I #
loop $-1 $-1 $505 $133 #
coedge $-1 $338 $338 $339 $506 reversed $211 $-1 #
coedge $-1 $339 $339 $338 $506 forward $213 $-1 #
coedge $-1 $340 $340 $214 $341 forward $335 $-1 #
edge $-1 $507 0 $507 6.2831853071796004 $340 $508 forward 7 unknown #
loop $-1 $-1 $347 $215 #
plane-surface $-1 -66.289864803003013 16.403683655294195 7.2130856501851923 -0.51503808176128008 0 0.85716729658548041 0.85716729658548041 0 0.51503808176128008 forward_v I I I I #
loop $-1 $-1 $509 $136 #
coedge $-1 $345 $345 $346 $510 reversed $216 $-1 #
coedge $-1 $346 $346 $345 $510 forward $218 $-1 #
coedge $-1 $347 $347 $219 $348 forward $342 $-1 #
edge $-1 $511 0 $511 6.2831853071796004 $347 $512 forward 7 unknown #
loop $-1 $-1 $354 $220 #
plane-surface $-1 -66.289864803003013 16.403683655294195 7.2130856501851923 -0.51503808176128008 0 0.85716729658548041 0.85716729658548041 0 0.51503808176128008 forward_v I I I I #
loop $-1 $-1 $513 $139 #
coedge $-1 $352 $352 $353 $514 reversed $221 $-1 #
coedge $-1 $353 $353 $352 $514 forward $223 $-1 #
coedge $-1 $354 $354 $224 $355 forward $349 $-1 #
edge $-1 $515 0 $515 6.2831853071796004 $354 $516 forward 7 unknown #
face $-1 $517 $518 $74 $-1 $519 forward single #
loop $-1 $-1 $520 $225 #
plane-surface $-1 -134.57347441970956 40.148899006778649 120.85609405859935 0 -1 0 0.51503808176128008 0 -0.85716729658548041 forward_v I I I I #
coedge $-1 $521 $522 $523 $524 reversed $226 $-1 #
coedge $-1 $361 $228 $525 $526 reversed $143 $-1 #
coedge $-1 $228 $360 $521 $527 reversed $143 $-1 #
coedge $-1 $523 $528 $228 $363 forward $518 $-1 #
edge $-1 $529 0.99687240685176448 $530 12.663804617339579 $362 $531 forward 7 unknown #
loop $-1 $-1 $369 $229 #
plane-surface $-1 -66.289864803003013 34.467206792324497 7.2130856501851923 -0.51503808176128008 0 0.85716729658548041 0.85716729658548041 0 0.51503808176128008 forward_v I I I I #
loop $-1 $-1 $532 $145 #
coedge $-1 $367 $367 $368 $533 reversed $230 $-1 #
coedge $-1 $368 $368 $367 $533 forward $232 $-1 #
coedge $-1 $369 $369 $233 $370 forward $364 $-1 #
edge $-1 $534 0 $534 6.2831853071796004 $369 $535 forward 7 unknown #
loop $-1 $-1 $376 $234 #
plane-surface $-1 -66.289864803003013 34.467206792324497 7.2130856501851923 -0.51503808176128008 0 0.85716729658548041 0.85716729658548041 0 0.51503808176128008 forward_v I I I I #
loop $-1 $-1 $536 $148 #
coedge $-1 $374 $374 $375 $537 reversed $235 $-1 #
coedge $-1 $375 $375 $374 $537 forward $237 $-1 #
coedge $-1 $376 $376 $238 $377 forward $371 $-1 #
edge $-1 $538 0 $538 6.2831853071796004 $376 $539 forward 7 unknown #
loop $-1 $-1 $383 $239 #
plane-surface $-1 -66.289864803003013 34.467206792324497 7.2130856501851923 -0.51503808176128008 0 0.85716729658548041 0.85716729658548041 0 0.51503808176128008 forward_v I I I I #
loop $-1 $-1 $540 $151 #
coedge $-1 $381 $381 $382 $541 reversed $240 $-1 #
coedge $-1 $382 $382 $381 $541 forward $242 $-1 #
coedge $-1 $383 $383 $243 $384 forward $378 $-1 #
edge $-1 $542 0 $542 6.2831853071796004 $383 $543 forward 7 unknown #
face $-1 $544 $545 $78 $-1 $546 forward single #
loop $-1 $-1 $547 $244 #
plane-surface $-1 0 45.518015477009378 0 0 -1 0 0 0 -1 forward_v I I I I #
coedge $-1 $548 $549 $550 $551 reversed $245 $-1 #
coedge $-1 $552 $247 $547 $553 reversed $155 $-1 #
coedge $-1 $247 $552 $548 $554 forward $155 $-1 #
coedge $-1 $550 $555 $247 $392 forward $545 $-1 #
edge $-1 $556 -25.929428083189404 $557 -13.247746704450574 $391 $558 forward 7 unknown #
loop $-1 $-1 $398 $248 #
plane-surface $-1 -18.930741374020471 39.177174787639977 111.7042654494379 0.7660444514056185 0 0.64278759981090561 0.64278759981090561 0 -0.7660444514056185 forward_v I I I I #
loop $-1 $-1 $559 $157 #
coedge $-1 $396 $396 $397 $560 reversed $249 $-1 #
coedge $-1 $397 $397 $396 $560 forward $251 $-1 #
coedge $-1 $398 $398 $252 $399 forward $393 $-1 #
edge $-1 $561 0 $561 6.2831853071796004 $398 $562 forward 7 unknown #
face $-1 $563 $564 $60 $-1 $565 reversed single #
loop $-1 $-1 $566 $253 #
plane-surface $-1 -66.289864803003013 0 0 1 0 0 0 0 -1 forward_v I I I I #
coedge $-1 $567 $411 $568 $569 forward $254 $-1 #
coedge $-1 $570 $256 $567 $571 forward $161 $-1 #
coedge $-1 $256 $570 $572 $573 forward $161 $-1 #
coedge $-1 $414 $413 $256 $407 reversed $415 $-1 #
edge $-1 $574 -45.518015477009378 $575 45.518015477009378 $406 $576 forward 7 unknown #
coedge $-1 $258 $257 $577 $578 forward $101 $-1 #
coedge $-1 $579 $580 $257 $410 reversed $564 $-1 #
edge $-1 $417 -66.289864803003013 $581 66.289864803003013 $409 $582 forward 7 unknown #
coedge $-1 $403 $583 $258 $412 reversed $254 $-1 #
edge $-1 $584 -66.289864803003013 $416 66.289864803003013 $411 $585 forward 7 unknown #
coedge $-1 $406 $259 $583 $586 forward $415 $-1 #
coedge $-1 $259 $406 $579 $587 reversed $415 $-1 #
loop $-1 $-1 $413 $563 #
vertex $-1 $260 $588 #
vertex $-1 $260 $589 #
straight-curve $-1 66.289864803003013 0 14.223285887250931 0 1 0 I I #
face $-1 $590 $591 $61 $-1 $592 forward single #
loop $-1 $-1 $428 $261 #
plane-surface $-1 0 -45.518015477009378 0 0 1 0 0 0 1 forward_v I I I I #
coedge $-1 $593 $594 $595 $596 forward $262 $-1 #
coedge $-1 $595 $264 $266 $430 reversed $165 $-1 #
coedge $-1 $264 $595 $597 $598 reversed $165 $-1 #
coedge $-1 $599 $267 $264 $426 forward $432 $-1 #
edge $-1 $434 2.4493681582166555 $600 8.6657345387617344 $425 $601 forward 7 unknown #
coedge $-1 $266 $265 $593 $602 reversed $104 $-1 #
coedge $-1 $603 $604 $265 $429 forward $420 $-1 #
edge $-1 $605 -66.289864803003013 $433 66.289864803003013 $428 $606 forward 7 unknown #
edge $-1 $607 -66.289864803003013 $434 66.289864803003013 $423 $608 forward 7 unknown #
coedge $-1 $267 $599 $603 $609 forward $432 $-1 #
loop $-1 $-1 $425 $590 #
vertex $-1 $429 $610 #
vertex $-1 $268 $611 #
straight-curve $-1 66.289864803003013 -19.073046695115167 8.0069195067058505 0 1 0 I I #
face $-1 $-1 $612 $62 $-1 $613 reversed single #
loop $-1 $-1 $275 $269 #
plane-surface $-1 0 0 14.223285887250931 0 0 1 1 0 0 forward_v I I I I #
coedge $-1 $614 $615 $616 $617 reversed $270 $-1 #
coedge $-1 $618 $272 $274 $446 forward $169 $-1 #
coedge $-1 $272 $618 $614 $619 forward $169 $-1 #
coedge $-1 $616 $275 $272 $443 forward $437 $-1 #
edge $-1 $449 -15.543373523837356 $620 -4.1799890949290539 $442 $621 forward 7 unknown #
coedge $-1 $622 $623 $273 $445 forward $612 $-1 #
edge $-1 $624 -53.214961379114484 $448 -46.204761142048746 $444 $625 forward 7 unknown #
edge $-1 $449 -13.611032825170712 $624 0 $274 $626 forward 7 unknown #
coedge $-1 $275 $616 $622 $627 forward $437 $-1 #
vertex $-1 $445 $628 #
vertex $-1 $276 $629 #
straight-curve $-1 -67.286737209854778 -25.405054833220561 14.223285887250931 1 0 0 I I #
coedge $-1 $451 $451 $-1 $630 reversed $279 $-1 #
edge $-1 $631 0 $631 6.2831853071796004 $280 $632 forward 7 unknown #
vertex $-1 $283 $633 #
ellipse-curve $-1 -60.456398697759099 -23.132377947438897 10.718185768718065 -0.51503808176128008 0 0.85716729658548041 0.4285836482927402 0 0.25751904088064004 1 I I #
coedge $-1 $455 $455 $-1 $634 reversed $286 $-1 #
edge $-1 $635 0 $635 6.2831853071796004 $287 $636 forward 7 unknown #
vertex $-1 $290 $637 #
ellipse-curve $-1 -60.456398697759099 -19.723362618766409 10.718185768718065 -0.51503808176128008 0 0.85716729658548041 0.4285836482927402 0 0.25751904088064004 1 I I #
coedge $-1 $459 $459 $-1 $638 reversed $293 $-1 #
edge $-1 $639 0 $639 6.2831853071796004 $294 $640 forward 7 unknown #
vertex $-1 $297 $641 #
ellipse-curve $-1 -60.456398697759099 -16.31434729009392 10.718185768718065 -0.51503808176128008 0 0.85716729658548041 0.4285836482927402 0 0.25751904088064004 1 I I #
face $-1 $-1 $642 $66 $-1 $643 reversed single #
loop $-1 $-1 $304 $298 #
plane-surface $-1 0 0 14.223285887250931 0 0 1 1 0 0 forward_v I I I I #
coedge $-1 $644 $645 $646 $647 reversed $299 $-1 #
coedge $-1 $648 $301 $303 $473 forward $188 $-1 #
coedge $-1 $301 $648 $644 $649 forward $188 $-1 #
coedge $-1 $646 $304 $301 $470 forward $464 $-1 #
edge $-1 $476 -6.5116119553222038 $650 4.851772473586097 $469 $651 forward 7 unknown #
coedge $-1 $652 $653 $302 $472 forward $642 $-1 #
edge $-1 $654 -53.214961379114484 $475 -46.204761142048746 $471 $655 forward 7 unknown #
edge $-1 $476 -13.611032825170712 $654 0 $303 $656 forward 7 unknown #
coedge $-1 $304 $646 $652 $657 forward $464 $-1 #
vertex $-1 $305 $658 #
vertex $-1 $305 $659 #
straight-curve $-1 -67.286737209854778 -7.3415316961902573 14.223285887250931 1 0 0 I I #
coedge $-1 $478 $478 $-1 $660 reversed $308 $-1 #
edge $-1 $661 0 $661 6.2831853071796004 $309 $662 forward 7 unknown #
vertex $-1 $312 $663 #
ellipse-curve $-1 -60.456398697759099 -5.0688548104085882 10.718185768718065 -0.51503808176128008 0 0.85716729658548041 0.4285836482927402 0 0.25751904088064004 1 I I #
coedge $-1 $482 $482 $-1 $664 reversed $315 $-1 #
edge $-1 $665 0 $665 6.2831853071796004 $316 $666 forward 7 unknown #
vertex $-1 $319 $667 #
ellipse-curve $-1 -60.456398697759099 -1.6598394817361068 10.718185768718065 -0.51503808176128008 0 0.85716729658548041 0.4285836482927402 0 0.25751904088064004 1 I I #
coedge $-1 $486 $486 $-1 $668 reversed $322 $-1 #
edge $-1 $669 0 $669 6.2831853071796004 $323 $670 forward 7 unknown #
vertex $-1 $326 $671 #
ellipse-curve $-1 -60.456398697759099 1.7491758469363887 10.718185768718065 -0.51503808176128008 0 0.85716729658548041 0.4285836482927402 0 0.25751904088064004 1 I I #
face $-1 $-1 $672 $70 $-1 $673 reversed single #
loop $-1 $-1 $333 $327 #
plane-surface $-1 0 0 14.223285887250931 0 0 1 1 0 0 forward_v I I I I #
coedge $-1 $674 $675 $676 $677 reversed $328 $-1 #
coedge $-1 $678 $330 $332 $500 forward $207 $-1 #
coedge $-1 $330 $678 $674 $679 forward $207 $-1 #
coedge $-1 $676 $333 $330 $497 forward $491 $-1 #
edge $-1 $503 2.5201496131929471 $680 13.88353404210125 $496 $681 forward 7 unknown #
coedge $-1 $682 $683 $331 $499 forward $672 $-1 #
edge $-1 $684 -53.214961379114484 $502 -46.204761142048746 $498 $685 forward 7 unknown #
edge $-1 $503 -13.611032825170712 $684 0 $332 $686 forward 7 unknown #
coedge $-1 $333 $676 $682 $687 forward $491 $-1 #
vertex $-1 $334 $688 #
vertex $-1 $334 $689 #
straight-curve $-1 -67.286737209854778 10.721991440840045 14.223285887250931 1 0 0 I I #
coedge $-1 $505 $505 $-1 $690 reversed $337 $-1 #
edge $-1 $691 0 $691 6.2831853071796004 $338 $692 forward 7 unknown #
vertex $-1 $341 $693 #
ellipse-curve $-1 -60.456398697759099 12.994668326621714 10.718185768718065 -0.51503808176128008 0 0.85716729658548041 0.4285836482927402 0 0.25751904088064004 1 I I #
coedge $-1 $509 $509 $-1 $694 reversed $344 $-1 #
edge $-1 $695 0 $695 6.2831853071796004 $345 $696 forward 7 unknown #
vertex $-1 $348 $697 #
ellipse-curve $-1 -60.456398697759099 16.403683655294195 10.718185768718065 -0.51503808176128008 0 0.85716729658548041 0.4285836482927402 0 0.25751904088064004 1 I I #
coedge $-1 $513 $513 $-1 $698 reversed $351 $-1 #
edge $-1 $699 0 $699 6.2831853071796004 $352 $700 forward 7 unknown #
vertex $-1 $355 $701 #
ellipse-curve $-1 -60.456398697759099 19.81269898396669 10.718185768718065 -0.51503808176128008 0 0.85716729658548041 0.4285836482927402 0 0.25751904088064004 1 I I #
face $-1 $-1 $702 $74 $-1 $703 reversed single #
loop $-1 $-1 $362 $356 #
plane-surface $-1 0 0 14.223285887250931 0 0 1 1 0 0 forward_v I I I I #
coedge $-1 $704 $705 $706 $707 reversed $357 $-1 #
coedge $-1 $708 $359 $361 $527 forward $226 $-1 #
coedge $-1 $359 $708 $704 $709 forward $226 $-1 #
coedge $-1 $706 $362 $359 $524 forward $518 $-1 #
edge $-1 $530 11.551911181708096 $710 22.915295610616401 $523 $711 forward 7 unknown #
coedge $-1 $712 $713 $360 $526 forward $702 $-1 #
edge $-1 $714 -53.214961379114484 $529 -46.204761142048746 $525 $715 forward 7 unknown #
edge $-1 $530 -13.611032825170712 $714 0 $361 $716 forward 7 unknown #
coedge $-1 $362 $706 $712 $717 forward $518 $-1 #
vertex $-1 $363 $718 #
vertex $-1 $363 $719 #
straight-curve $-1 -67.286737209854778 28.785514577870345 14.223285887250931 1 0 0 I I #
coedge $-1 $532 $532 $-1 $720 reversed $366 $-1 #
edge $-1 $721 0 $721 6.2831853071796004 $367 $722 forward 7 unknown #
vertex $-1 $370 $723 #
ellipse-curve $-1 -60.456398697759099 31.058191463652015 10.718185768718065 -0.51503808176128008 0 0.85716729658548041 0.4285836482927402 0 0.25751904088064004 1 I I #
coedge $-1 $536 $536 $-1 $724 reversed $373 $-1 #
edge $-1 $725 0 $725 6.2831853071796004 $374 $726 forward 7 unknown #
vertex $-1 $377 $727 #
ellipse-curve $-1 -60.456398697759099 34.467206792324497 10.718185768718065 -0.51503808176128008 0 0.85716729658548041 0.4285836482927402 0 0.25751904088064004 1 I I #
coedge $-1 $540 $540 $-1 $728 reversed $380 $-1 #
edge $-1 $729 0 $729 6.2831853071796004 $381 $730 forward 7 unknown #
vertex $-1 $384 $731 #
ellipse-curve $-1 -60.456398697759099 37.876222120996992 10.718185768718065 -0.51503808176128008 0 0.85716729658548041 0.4285836482927402 0 0.25751904088064004 1 I I #
face $-1 $-1 $732 $78 $-1 $733 reversed single #
loop $-1 $-1 $391 $385 #
plane-surface $-1 0 0 14.223285887250931 0 0 1 1 0 0 forward_v I I I I #
coedge $-1 $734 $735 $389 $553 forward $386 $-1 #
coedge $-1 $549 $388 $390 $554 reversed $245 $-1 #
coedge $-1 $388 $548 $736 $737 reversed $245 $-1 #
coedge $-1 $738 $391 $388 $551 forward $545 $-1 #
edge $-1 $557 21.54989805212773 $739 24.974252373244184 $550 $740 forward 7 unknown #
coedge $-1 $390 $389 $741 $742 reversed $155 $-1 #
edge $-1 $743 -83.710290327841122 $556 -78.382940637019729 $547 $744 forward 7 unknown #
edge $-1 $745 -132.57972960600608 $557 -127.25237991518468 $548 $746 forward 7 unknown #
coedge $-1 $391 $738 $734 $747 forward $545 $-1 #
vertex $-1 $392 $748 #
vertex $-1 $392 $749 #
straight-curve $-1 62.865510481886567 19.588587393819989 14.223285887250924 0 -1 0 I I #
coedge $-1 $559 $559 $-1 $750 reversed $395 $-1 #
edge $-1 $751 0 $751 6.2831853071796004 $396 $752 forward 7 unknown #
vertex $-1 $399 $753 #
ellipse-curve $-1 64.577687642444801 39.177174787639977 12.18279255157535 0.7660444514056185 0 0.64278759981090561 0.64278759981090561 0 -0.7660444514056185 1 I I #
face $-1 $-1 $415 $60 $-1 $754 reversed single #
loop $-1 $-1 $579 $400 #
plane-surface $-1 0 45.518015477009378 0 0 -1 0 0 0 -1 forward_v I I I I #
coedge $-1 $755 $577 $580 $756 forward $401 $-1 #
coedge $-1 $583 $403 $404 $571 reversed $254 $-1 #
coedge $-1 $577 $755 $403 $569 reversed $401 $-1 #
edge $-1 $584 -14.223285887250931 $757 14.223285887250931 $568 $758 forward 7 unknown #
coedge $-1 $405 $404 $755 $759 forward $161 $-1 #
edge $-1 $575 -66.289864803003013 $757 66.289864803003013 $567 $760 forward 7 unknown #
coedge $-1 $580 $579 $405 $573 reversed $564 $-1 #
edge $-1 $761 -66.289864803003013 $574 66.289864803003013 $572 $762 forward 7 unknown #
vertex $-1 $407 $763 #
vertex $-1 $586 $764 #
straight-curve $-1 66.289864803003013 0 -14.223285887250931 0 -1 0 I I #
coedge $-1 $566 $568 $408 $578 reversed $401 $-1 #
edge $-1 $581 -45.518015477009378 $584 45.518015477009378 $577 $765 forward 7 unknown #
coedge $-1 $572 $409 $414 $587 forward $564 $-1 #
coedge $-1 $409 $572 $566 $756 reversed $564 $-1 #
vertex $-1 $410 $766 #
straight-curve $-1 0 45.518015477009378 14.223285887250931 -1 0 0 I I #
coedge $-1 $411 $567 $413 $586 reversed $254 $-1 #
vertex $-1 $578 $767 #
straight-curve $-1 0 -45.518015477009378 14.223285887250931 1 0 0 I I #
edge $-1 $416 -14.223285887250931 $575 14.223285887250931 $413 $768 forward 7 unknown #
edge $-1 $417 -14.223285887250931 $574 14.223285887250931 $414 $769 forward 7 unknown #
point $-1 66.289864803003013 -45.518015477009378 14.223285887250931 #
point $-1 66.289864803003013 45.518015477009378 14.223285887250931 #
face $-1 $-1 $432 $61 $-1 $770 reversed single #
loop $-1 $-1 $597 $419 #
plane-surface $-1 0 0 14.223285887250931 0 0 1 1 0 0 forward_v I I I I #
coedge $-1 $771 $422 $427 $602 forward $262 $-1 #
coedge $-1 $422 $771 $772 $773 reversed $262 $-1 #
coedge $-1 $424 $423 $422 $596 reversed $165 $-1 #
edge $-1 $774 -8.6657345387617344 $607 -2.4493681582166555 $422 $775 forward 7 unknown #
coedge $-1 $772 $776 $424 $598 forward $591 $-1 #
edge $-1 $600 -66.289864803003013 $774 66.289864803003013 $597 $777 forward 7 unknown #
coedge $-1 $431 $425 $776 $778 reversed $432 $-1 #
vertex $-1 $426 $779 #
straight-curve $-1 66.289864803003013 -30.774171303451286 5.557551348489195 0 0 1 I I #
edge $-1 $607 11.701124608336119 $605 26.444968781894218 $593 $780 forward 7 unknown #
coedge $-1 $781 $428 $431 $609 reversed $420 $-1 #
coedge $-1 $428 $781 $771 $782 forward $420 $-1 #
vertex $-1 $429 $783 #
straight-curve $-1 0 -45.518015477009378 8.0069195067058505 1 0 0 I I #
vertex $-1 $602 $784 #
straight-curve $-1 0 -30.774171303451286 8.0069195067058505 1 0 0 I I #
edge $-1 $785 -14.223285887250931 $433 -8.0069195067058505 $431 $786 forward 7 unknown #
point $-1 66.289864803003013 -45.518015477009385 8.0069195067058505 #
point $-1 66.289864803003013 -30.774171303451286 8.0069195067058505 #
loop $-1 $-1 $444 $436 #
plane-surface $-1 -66.289864803003013 0 0 1 0 0 0 0 -1 forward_v I I I I #
coedge $-1 $615 $439 $441 $619 reversed $270 $-1 #
coedge $-1 $439 $614 $787 $788 reversed $270 $-1 #
coedge $-1 $447 $442 $439 $617 forward $437 $-1 #
edge $-1 $620 -12.663804617339579 $789 -0.99687240685176448 $616 $790 forward 7 unknown #
coedge $-1 $441 $440 $623 $791 reversed $169 $-1 #
edge $-1 $792 0 $620 13.611032825170712 $614 $793 forward 7 unknown #
vertex $-1 $443 $794 #
straight-curve $-1 -54.622932592515205 -9.8616813093832043 14.223285887250929 0 1 0 I I #
coedge $-1 $787 $444 $447 $627 reversed $612 $-1 #
coedge $-1 $444 $787 $618 $791 forward $612 $-1 #
vertex $-1 $445 $795 #
straight-curve $-1 -66.289864803003013 -25.405054833220561 60.428047029299677 0 0 1 I I #
straight-curve $-1 -66.289864803003013 -25.405054833220561 7.2130856501851923 -0.85716729658548041 0 -0.51503808176128008 I I #
edge $-1 $789 14.041670404312258 $448 25.405054833220561 $622 $796 forward 7 unknown #
point $-1 -66.289864803003013 -25.405054833220561 14.223285887250931 #
point $-1 -54.622932592515198 -25.405054833220561 14.223285887250931 #
edge $-1 $797 1 $797 0 $451 $-1 forward 7 unknown #
vertex $-1 $452 $798 #
ellipse-curve $-1 -59.585870068307941 -23.132377947438897 9.2693828581543105 -0.51503808176128008 0 0.85716729658548041 0.4285836482927402 0 0.25751904088064004 1 I I #
point $-1 -60.027815049466348 -23.132377947438897 10.975704809598684 #
edge $-1 $799 1 $799 0 $455 $-1 forward 7 unknown #
vertex $-1 $456 $800 #
ellipse-curve $-1 -59.585870068307941 -19.723362618766409 9.2693828581543105 -0.51503808176128008 0 0.85716729658548041 0.4285836482927402 0 0.25751904088064004 1 I I #
point $-1 -60.027815049466348 -19.723362618766409 10.975704809598684 #
edge $-1 $801 1 $801 0 $459 $-1 forward 7 unknown #
vertex $-1 $460 $802 #
ellipse-curve $-1 -59.585870068307941 -16.31434729009392 9.2693828581543105 -0.51503808176128008 0 0.85716729658548041 0.4285836482927402 0 0.25751904088064004 1 I I #
point $-1 -60.027815049466348 -16.31434729009392 10.975704809598684 #
loop $-1 $-1 $471 $463 #
plane-surface $-1 -66.289864803003013 0 0 1 0 0 0 0 -1 forward_v I I I I #
coedge $-1 $645 $466 $468 $649 reversed $299 $-1 #
coedge $-1 $466 $644 $803 $804 reversed $299 $-1 #
coedge $-1 $474 $469 $466 $647 forward $464 $-1 #
edge $-1 $650 -12.663804617339579 $805 -0.99687240685176448 $646 $806 forward 7 unknown #
coedge $-1 $468 $467 $653 $807 reversed $188 $-1 #
edge $-1 $808 0 $650 13.611032825170712 $644 $809 forward 7 unknown #
vertex $-1 $470 $810 #
straight-curve $-1 -54.622932592515205 -0.82991974086805342 14.223285887250929 0 1 0 I I #
coedge $-1 $803 $471 $474 $657 reversed $642 $-1 #
coedge $-1 $471 $803 $648 $807 forward $642 $-1 #
vertex $-1 $472 $811 #
straight-curve $-1 -66.289864803003013 -7.3415316961902573 60.428047029299677 0 0 1 I I #
straight-curve $-1 -66.289864803003013 -7.3415316961902573 7.2130856501851923 -0.85716729658548041 0 -0.51503808176128008 I I #
edge $-1 $805 -4.0218527327180436 $475 7.3415316961902573 $652 $812 forward 7 unknown #
point $-1 -66.289864803003013 -7.3415316961902573 14.223285887250931 #
point $-1 -54.622932592515198 -7.3415316961902573 14.223285887250931 #
edge $-1 $813 1 $813 0 $478 $-1 forward 7 unknown #
vertex $-1 $479 $814 #
ellipse-curve $-1 -59.585870068307941 -5.0688548104085882 9.2693828581543105 -0.51503808176128008 0 0.85716729658548041 0.4285836482927402 0 0.25751904088064004 1 I I #
point $-1 -60.027815049466348 -5.0688548104085882 10.975704809598684 #
edge $-1 $815 1 $815 0 $482 $-1 forward 7 unknown #
vertex $-1 $483 $816 #
ellipse-curve $-1 -59.585870068307941 -1.6598394817361068 9.2693828581543105 -0.51503808176128008 0 0.85716729658548041 0.4285836482927402 0 0.25751904088064004 1 I I #
point $-1 -60.027815049466348 -1.6598394817361068 10.975704809598684 #
edge $-1 $817 1 $817 0 $486 $-1 forward 7 unknown #
vertex $-1 $487 $818 #
ellipse-curve $-1 -59.585870068307941 1.7491758469363887 9.2693828581543105 -0.51503808176128008 0 0.85716729658548041 0.4285836482927402 0 0.25751904088064004 1 I I #
point $-1 -60.027815049466348 1.7491758469363887 10.975704809598684 #
loop $-1 $-1 $498 $490 #
plane-surface $-1 -66.289864803003013 0 0 1 0 0 0 0 -1 forward_v I I I I #
coedge $-1 $675 $493 $495 $679 reversed $328 $-1 #
coedge $-1 $493 $674 $819 $820 reversed $328 $-1 #
coedge $-1 $501 $496 $493 $677 forward $491 $-1 #
edge $-1 $680 -12.663804617339579 $821 -0.99687240685176448 $676 $822 forward 7 unknown #
coedge $-1 $495 $494 $683 $823 reversed $207 $-1 #
edge $-1 $824 0 $680 13.611032825170712 $674 $825 forward 7 unknown #
vertex $-1 $497 $826 #
straight-curve $-1 -54.622932592515205 8.2018418276470975 14.223285887250929 0 1 0 I I #
coedge $-1 $819 $498 $501 $687 reversed $672 $-1 #
coedge $-1 $498 $819 $678 $823 forward $672 $-1 #
vertex $-1 $499 $827 #
straight-curve $-1 -66.289864803003013 10.721991440840045 60.428047029299677 0 0 1 I I #
straight-curve $-1 -66.289864803003013 10.721991440840045 7.2130856501851923 -0.85716729658548041 0 -0.51503808176128008 I I #
edge $-1 $821 -22.085375869748347 $502 -10.721991440840045 $682 $828 forward 7 unknown #
point $-1 -66.289864803003013 10.721991440840045 14.223285887250931 #
point $-1 -54.622932592515198 10.721991440840045 14.223285887250931 #
edge $-1 $829 1 $829 0 $505 $-1 forward 7 unknown #
vertex $-1 $506 $830 #
ellipse-curve $-1 -59.585870068307941 12.994668326621714 9.2693828581543105 -0.51503808176128008 0 0.85716729658548041 0.4285836482927402 0 0.25751904088064004 1 I I #
point $-1 -60.027815049466348 12.994668326621714 10.975704809598684 #
edge $-1 $831 1 $831 0 $509 $-1 forward 7 unknown #
vertex $-1 $510 $832 #
ellipse-curve $-1 -59.585870068307941 16.403683655294195 9.2693828581543105 -0.51503808176128008 0 0.85716729658548041 0.4285836482927402 0 0.25751904088064004 1 I I #
point $-1 -60.027815049466348 16.403683655294195 10.975704809598684 #
edge $-1 $833 1 $833 0 $513 $-1 forward 7 unknown #
vertex $-1 $514 $834 #
ellipse-curve $-1 -59.585870068307941 19.81269898396669 9.2693828581543105 -0.51503808176128008 0 0.85716729658548041 0.4285836482927402 0 0.25751904088064004 1 I I #
point $-1 -60.027815049466348 19.81269898396669 10.975704809598684 #
loop $-1 $-1 $525 $517 #
plane-surface $-1 -66.289864803003013 0 0 1 0 0 0 0 -1 forward_v I I I I #
coedge $-1 $705 $520 $522 $709 reversed $357 $-1 #
coedge $-1 $520 $704 $835 $836 reversed $357 $-1 #
coedge $-1 $528 $523 $520 $707 forward $518 $-1 #
edge $-1 $710 -12.663804617339579 $837 -0.99687240685176448 $706 $838 forward 7 unknown #
coedge $-1 $522 $521 $713 $839 reversed $226 $-1 #
edge $-1 $840 0 $710 13.611032825170712 $704 $841 forward 7 unknown #
vertex $-1 $524 $842 #
straight-curve $-1 -54.622932592515205 17.233603396162248 14.223285887250929 0 1 0 I I #
coedge $-1 $835 $525 $528 $717 reversed $702 $-1 #
coedge $-1 $525 $835 $708 $839 forward $702 $-1 #
vertex $-1 $526 $843 #
straight-curve $-1 -66.289864803003013 28.785514577870345 60.428047029299677 0 0 1 I I #
straight-curve $-1 -66.289864803003013 28.785514577870345 7.2130856501851923 -0.85716729658548041 0 -0.51503808176128008 I I #
edge $-1 $837 -40.148899006778649 $529 -28.785514577870345 $712 $844 forward 7 unknown #
point $-1 -66.289864803003013 28.785514577870345 14.223285887250931 #
point $-1 -54.622932592515198 28.785514577870345 14.223285887250931 #
edge $-1 $845 1 $845 0 $532 $-1 forward 7 unknown #
vertex $-1 $533 $846 #
ellipse-curve $-1 -59.585870068307941 31.058191463652015 9.2693828581543105 -0.51503808176128008 0 0.85716729658548041 0.4285836482927402 0 0.25751904088064004 1 I I #
point $-1 -60.027815049466348 31.058191463652015 10.975704809598684 #
edge $-1 $847 1 $847 0 $536 $-1 forward 7 unknown #
vertex $-1 $537 $848 #
ellipse-curve $-1 -59.585870068307941 34.467206792324497 9.2693828581543105 -0.51503808176128008 0 0.85716729658548041 0.4285836482927402 0 0.25751904088064004 1 I I #
point $-1 -60.027815049466348 34.467206792324497 10.975704809598684 #
edge $-1 $849 1 $849 0 $540 $-1 forward 7 unknown #
vertex $-1 $541 $850 #
ellipse-curve $-1 -59.585870068307941 37.876222120996992 9.2693828581543105 -0.51503808176128008 0 0.85716729658548041 0.4285836482927402 0 0.25751904088064004 1 I I #
point $-1 -60.027815049466348 37.876222120996992 10.975704809598684 #
loop $-1 $-1 $741 $544 #
plane-surface $-1 66.289864803003013 0 0 -1 0 0 0 0 1 forward_v I I I I #
coedge $-1 $735 $547 $555 $747 reversed $386 $-1 #
coedge $-1 $547 $734 $851 $852 forward $386 $-1 #
coedge $-1 $741 $853 $549 $737 forward $732 $-1 #
edge $-1 $739 84.239149925979746 $745 88.320136597330929 $736 $854 forward 7 unknown #
coedge $-1 $555 $550 $853 $855 forward $545 $-1 #
vertex $-1 $855 $856 #
straight-curve $-1 41.315612429758829 32.836334098270562 14.223285887250938 1 0 0 I I #
coedge $-1 $851 $736 $552 $742 forward $732 $-1 #
edge $-1 $745 13.247746704450574 $743 25.929428083189404 $741 $857 forward 7 unknown #
vertex $-1 $742 $858 #
straight-curve $-1 12.481928203695961 45.518015477009378 74.268102647095859 -0.64278759981090572 0 0.76604445140561861 I I #
vertex $-1 $742 $859 #
straight-curve $-1 -18.930741374020471 32.836334098270562 111.7042654494379 -0.64278759981090561 0 0.7660444514056185 I I #
edge $-1 $860 -66.289864803003013 $556 -62.86551048188656 $734 $861 forward 7 unknown #
point $-1 62.86551048188656 45.518015477009392 14.223285887250924 #
point $-1 62.86551048188656 32.836334098270562 14.223285887250924 #
edge $-1 $862 1 $862 0 $559 $-1 forward 7 unknown #
vertex $-1 $560 $863 #
ellipse-curve $-1 62.750982443463222 39.177174787639977 10.650004932970512 0.7660444514056185 0 0.64278759981090561 0.64278759981090561 0 -0.7660444514056185 1 I I #
point $-1 65.220475242255702 39.177174787639977 11.416748100169739 #
plane-surface $-1 66.289864803003013 0 0 -1 0 0 0 0 1 forward_v I I I I #
coedge $-1 $568 $566 $570 $759 reversed $401 $-1 #
edge $-1 $581 -14.223285887250931 $761 14.223285887250931 $580 $864 forward 7 unknown #
vertex $-1 $759 $865 #
straight-curve $-1 -66.289864803003013 -45.518015477009378 0 0 0 -1 I I #
edge $-1 $757 -45.518015477009378 $761 45.518015477009378 $755 $866 forward 7 unknown #
straight-curve $-1 0 -45.518015477009378 -14.223285887250931 -1 0 0 I I #
vertex $-1 $573 $867 #
straight-curve $-1 0 45.518015477009378 -14.223285887250931 1 0 0 I I #
point $-1 66.289864803003013 45.518015477009378 -14.223285887250931 #
point $-1 66.289864803003013 -45.518015477009378 -14.223285887250931 #
straight-curve $-1 -66.289864803003013 0 14.223285887250931 0 -1 0 I I #
point $-1 -66.289864803003013 45.518015477009378 14.223285887250931 #
point $-1 -66.289864803003013 -45.518015477009378 14.223285887250931 #
straight-curve $-1 66.289864803003013 -45.518015477009378 0 0 0 -1 I I #
straight-curve $-1 66.289864803003013 45.518015477009378 0 0 0 -1 I I #
plane-surface $-1 66.289864803003013 0 0 -1 0 0 0 0 1 forward_v I I I I #
coedge $-1 $594 $593 $604 $782 reversed $262 $-1 #
coedge $-1 $868 $597 $594 $773 forward $591 $-1 #
edge $-1 $774 30.774171303451286 $869 45.518015477009378 $594 $870 forward 7 unknown #
vertex $-1 $773 $871 #
straight-curve $-1 -66.289864803003013 -30.774171303451286 5.557551348489195 0 0 -1 I I #
coedge $-1 $597 $868 $599 $778 forward $591 $-1 #
straight-curve $-1 0 -30.774171303451286 14.223285887250931 -1 0 0 I I #
edge $-1 $785 -45.518015477009378 $600 -30.774171303451286 $599 $872 forward 7 unknown #
point $-1 66.289864803003013 -30.774171303451286 14.223285887250929 #
straight-curve $-1 -66.289864803003013 -19.073046695115167 8.0069195067058505 0 -1 0 I I #
coedge $-1 $604 $603 $868 $873 reversed $420 $-1 #
edge $-1 $869 -14.223285887250931 $605 -8.0069195067058505 $771 $874 forward 7 unknown #
point $-1 -66.289864803003013 -45.518015477009385 8.0069195067058505 #
point $-1 -66.289864803003013 -30.774171303451286 8.0069195067058505 #
vertex $-1 $778 $875 #
straight-curve $-1 66.289864803003013 -45.518015477009378 0 0 0 -1 I I #
coedge $-1 $623 $622 $615 $788 forward $612 $-1 #
edge $-1 $789 46.204761142048746 $792 53.214961379114484 $787 $876 forward 7 unknown #
vertex $-1 $627 $877 #
straight-curve $-1 -67.286737209854778 -14.041670404312258 14.223285887250931 -1 0 0 I I #
edge $-1 $792 4.1799890949290539 $624 15.543373523837356 $623 $878 forward 7 unknown #
vertex $-1 $791 $879 #
straight-curve $-1 -66.289864803003013 -14.041670404312258 7.2130856501851923 0.85716729658548041 0 0.51503808176128008 I I #
point $-1 -54.622932592515198 -14.041670404312258 14.223285887250931 #
point $-1 -66.289864803003013 -25.405054833220561 7.2130856501851923 #
straight-curve $-1 -66.289864803003013 0 14.223285887250931 0 -1 0 I I #
vertex $-1 $630 $880 #
point $-1 -59.157286420015204 -23.132377947438897 9.5269018990349501 #
vertex $-1 $634 $881 #
point $-1 -59.157286420015204 -19.723362618766409 9.5269018990349501 #
vertex $-1 $638 $882 #
point $-1 -59.157286420015204 -16.31434729009392 9.5269018990349501 #
coedge $-1 $653 $652 $645 $804 forward $642 $-1 #
edge $-1 $805 46.204761142048746 $808 53.214961379114484 $803 $883 forward 7 unknown #
vertex $-1 $657 $884 #
straight-curve $-1 -67.286737209854778 4.0218527327180436 14.223285887250931 -1 0 0 I I #
edge $-1 $808 -4.851772473586097 $654 6.5116119553222038 $653 $885 forward 7 unknown #
vertex $-1 $807 $886 #
straight-curve $-1 -66.289864803003013 4.0218527327180436 7.2130856501851923 0.85716729658548041 0 0.51503808176128008 I I #
point $-1 -54.622932592515198 4.0218527327180436 14.223285887250931 #
point $-1 -66.289864803003013 -7.3415316961902573 7.2130856501851923 #
straight-curve $-1 -66.289864803003013 0 14.223285887250931 0 -1 0 I I #
vertex $-1 $660 $887 #
point $-1 -59.157286420015204 -5.0688548104085882 9.5269018990349501 #
vertex $-1 $664 $888 #
point $-1 -59.157286420015204 -1.6598394817361068 9.5269018990349501 #
vertex $-1 $668 $889 #
point $-1 -59.157286420015204 1.7491758469363887 9.5269018990349501 #
coedge $-1 $683 $682 $675 $820 forward $672 $-1 #
edge $-1 $821 46.204761142048746 $824 53.214961379114484 $819 $890 forward 7 unknown #
vertex $-1 $687 $891 #
straight-curve $-1 -67.286737209854778 22.085375869748347 14.223285887250931 -1 0 0 I I #
edge $-1 $824 -13.88353404210125 $684 -2.5201496131929471 $683 $892 forward 7 unknown #
vertex $-1 $823 $893 #
straight-curve $-1 -66.289864803003013 22.085375869748347 7.2130856501851923 0.85716729658548041 0 0.51503808176128008 I I #
point $-1 -54.622932592515198 22.085375869748347 14.223285887250931 #
point $-1 -66.289864803003013 10.721991440840045 7.2130856501851923 #
straight-curve $-1 -66.289864803003013 0 14.223285887250931 0 -1 0 I I #
vertex $-1 $690 $894 #
point $-1 -59.157286420015204 12.994668326621714 9.5269018990349501 #
vertex $-1 $694 $895 #
point $-1 -59.157286420015204 16.403683655294195 9.5269018990349501 #
vertex $-1 $698 $896 #
point $-1 -59.157286420015204 19.81269898396669 9.5269018990349501 #
coedge $-1 $713 $712 $705 $836 forward $702 $-1 #
edge $-1 $837 46.204761142048746 $840 53.214961379114484 $835 $897 forward 7 unknown #
vertex $-1 $717 $898 #
straight-curve $-1 -67.286737209854778 40.148899006778649 14.223285887250931 -1 0 0 I I #
edge $-1 $840 -22.915295610616401 $714 -11.551911181708096 $713 $899 forward 7 unknown #
vertex $-1 $839 $900 #
straight-curve $-1 -66.289864803003013 40.148899006778649 7.2130856501851923 0.85716729658548041 0 0.51503808176128008 I I #
point $-1 -54.622932592515198 40.148899006778649 14.223285887250931 #
point $-1 -66.289864803003013 28.785514577870345 7.2130856501851923 #
straight-curve $-1 -66.289864803003013 0 14.223285887250931 0 -1 0 I I #
vertex $-1 $720 $901 #
point $-1 -59.157286420015204 31.058191463652015 9.5269018990349501 #
vertex $-1 $724 $902 #
point $-1 -59.157286420015204 34.467206792324497 9.5269018990349501 #
vertex $-1 $728 $903 #
point $-1 -59.157286420015204 37.876222120996992 9.5269018990349501 #
coedge $-1 $853 $741 $735 $852 reversed $732 $-1 #
edge $-1 $860 -14.223285887250931 $743 -10.142299215899754 $851 $904 forward 7 unknown #
coedge $-1 $736 $851 $738 $855 reversed $732 $-1 #
straight-curve $-1 66.289864803003013 32.836334098270562 98.462435813230684 0 0 -1 I I #
edge $-1 $739 32.836334098270562 $860 45.518015477009378 $853 $905 forward 7 unknown #
point $-1 66.289864803003013 32.836334098270562 14.223285887250931 #
straight-curve $-1 66.289864803003013 19.588587393819989 10.142299215899769 0 1 0 I I #
point $-1 66.289864803003013 45.518015477009392 10.142299215899754 #
point $-1 66.289864803003013 32.836334098270562 10.142299215899754 #
vertex $-1 $855 $906 #
straight-curve $-1 0 45.518015477009378 14.223285887250931 -1 0 0 I I #
vertex $-1 $750 $907 #
point $-1 63.393770043274131 39.177174787639977 9.8839604815648947 #
straight-curve $-1 -66.289864803003013 45.518015477009378 0 0 0 -1 I I #
point $-1 -66.289864803003013 -45.518015477009378 -14.223285887250931 #
straight-curve $-1 -66.289864803003013 0 -14.223285887250931 0 1 0 I I #
point $-1 -66.289864803003013 45.518015477009378 -14.223285887250931 #
coedge $-1 $776 $772 $781 $873 forward $591 $-1 #
vertex $-1 $773 $908 #
straight-curve $-1 -66.289864803003013 0 14.223285887250931 0 -1 0 I I #
point $-1 -66.289864803003013 -30.774171303451286 14.223285887250929 #
straight-curve $-1 66.289864803003013 0 14.223285887250931 0 1 0 I I #
edge $-1 $869 -66.289864803003013 $785 66.289864803003013 $781 $909 forward 7 unknown #
straight-curve $-1 -66.289864803003013 -45.518015477009378 0 0 0 -1 I I #
point $-1 66.289864803003013 -45.518015477009378 14.223285887250931 #
straight-curve $-1 -66.289864803003013 -14.041670404312258 60.428047029299677 0 0 -1 I I #
point $-1 -66.289864803003013 -14.041670404312258 14.223285887250931 #
straight-curve $-1 -66.289864803003013 -9.8616813093832043 7.2130856501851959 0 -1 0 I I #
point $-1 -66.289864803003013 -14.041670404312258 7.2130856501851923 #
point $-1 -59.328351027427303 -23.132377947438897 8.8407992098615704 #
point $-1 -59.328351027427303 -19.723362618766409 8.8407992098615704 #
point $-1 -59.328351027427303 -16.31434729009392 8.8407992098615704 #
straight-curve $-1 -66.289864803003013 4.0218527327180436 60.428047029299677 0 0 -1 I I #
point $-1 -66.289864803003013 4.0218527327180436 14.223285887250931 #
straight-curve $-1 -66.289864803003013 -0.82991974086805342 7.2130856501851959 0 -1 0 I I #
point $-1 -66.289864803003013 4.0218527327180436 7.2130856501851923 #
point $-1 -59.328351027427303 -5.0688548104085882 8.8407992098615704 #
point $-1 -59.328351027427303 -1.6598394817361068 8.8407992098615704 #
point $-1 -59.328351027427303 1.7491758469363887 8.8407992098615704 #
straight-curve $-1 -66.289864803003013 22.085375869748347 60.428047029299677 0 0 -1 I I #
point $-1 -66.289864803003013 22.085375869748347 14.223285887250931 #
straight-curve $-1 -66.289864803003013 8.2018418276470975 7.2130856501851959 0 -1 0 I I #
point $-1 -66.289864803003013 22.085375869748347 7.2130856501851923 #
point $-1 -59.328351027427303 12.994668326621714 8.8407992098615704 #
point $-1 -59.328351027427303 16.403683655294195 8.8407992098615704 #
point $-1 -59.328351027427303 19.81269898396669 8.8407992098615704 #
straight-curve $-1 -66.289864803003013 40.148899006778649 60.428047029299677 0 0 -1 I I #
point $-1 -66.289864803003013 40.148899006778649 14.223285887250931 #
straight-curve $-1 -66.289864803003013 17.233603396162248 7.2130856501851959 0 -1 0 I I #
point $-1 -66.289864803003013 40.148899006778649 7.2130856501851923 #
point $-1 -59.328351027427303 31.058191463652015 8.8407992098615704 #
point $-1 -59.328351027427303 34.467206792324497 8.8407992098615704 #
point $-1 -59.328351027427303 37.876222120996992 8.8407992098615704 #
straight-curve $-1 66.289864803003013 45.518015477009378 0 0 0 -1 I I #
straight-curve $-1 66.289864803003013 0 14.223285887250931 0 1 0 I I #
point $-1 66.289864803003013 45.518015477009378 14.223285887250931 #
point $-1 61.984937992057603 39.177174787639977 10.007217333159607 #
point $-1 -66.289864803003013 -45.518015477009378 14.223285887250931 #
straight-curve $-1 0 -45.518015477009378 14.223285887250931 1 0 0 I I #
End-of-ACIS-data 