500 0 11 0           
7 Unknown 11 ACIS 5.0 NT 24 Thu Mar 25 21:34:02 1999 
-1 9.9999999999999995e-007 1e-010 
body $-1 $11 $-1 $12 #
body $-1 $13 $-1 $14 #
body $-1 $15 $-1 $16 #
body $-1 $17 $-1 $18 #
body $-1 $19 $-1 $20 #
body $-1 $21 $-1 $22 #
body $-1 $23 $-1 $24 #
body $-1 $25 $-1 $26 #
body $-1 $27 $-1 $28 #
body $-1 $29 $-1 $30 #
body $-1 $31 $-1 $32 #
lump $-1 $-1 $33 $0 #
transform $-1 1 0 0 0 1 0 0 0 1 67.395855586413163 37.006941510282346 8.8545830297178441 1 rotate no_reflect no_shear #
lump $-1 $-1 $34 $1 #
transform $-1 1 0 0 0 1 0 0 0 1 67.395855586413163 37.006941510282346 8.8545830297178441 1 rotate no_reflect no_shear #
lump $-1 $-1 $35 $2 #
transform $-1 1 0 0 0 1 0 0 0 1 67.395855586413163 37.006941510282346 8.8545830297178441 1 rotate no_reflect no_shear #
lump $-1 $-1 $36 $3 #
transform $-1 1 0 0 0 1 0 0 0 1 67.395855586413163 37.006941510282346 8.8545830297178441 1 rotate no_reflect no_shear #
lump $-1 $-1 $37 $4 #
transform $-1 1 0 0 0 1 0 0 0 1 67.395855586413163 37.006941510282346 8.8545830297178441 1 rotate no_reflect no_shear #
lump $-1 $-1 $38 $5 #
transform $-1 1 0 0 0 1 0 0 0 1 67.395855586413163 37.006941510282346 8.8545830297178441 1 rotate no_reflect no_shear #
lump $-1 $-1 $39 $6 #
transform $-1 1 0 0 0 1 0 0 0 1 67.395855586413163 37.006941510282346 8.8545830297178441 1 rotate no_reflect no_shear #
lump $-1 $-1 $40 $7 #
transform $-1 1 0 0 0 1 0 0 0 1 67.395855586413163 37.006941510282346 8.8545830297178441 1 rotate no_reflect no_shear #
lump $-1 $-1 $41 $8 #
transform $-1 1 0 0 0 1 0 0 0 1 67.395855586413163 37.006941510282346 8.8545830297178441 1 rotate no_reflect no_shear #
lump $-1 $-1 $42 $9 #
transform $-1 1 0 0 0 1 0 0 0 1 67.395855586413163 37.006941510282346 8.8545830297178441 1 rotate no_reflect no_shear #
lump $-1 $-1 $43 $10 #
transform $-1 1 0 0 0 1 0 0 0 1 67.395855586413163 37.006941510282346 8.8545830297178441 1 rotate no_reflect no_shear #
shell $-1 $-1 $-1 $44 $-1 $11 #
shell $-1 $-1 $-1 $45 $-1 $13 #
shell $-1 $-1 $-1 $46 $-1 $15 #
shell $-1 $-1 $-1 $47 $-1 $17 #
shell $-1 $-1 $-1 $48 $-1 $19 #
shell $-1 $-1 $-1 $49 $-1 $21 #
shell $-1 $-1 $-1 $50 $-1 $23 #
shell $-1 $-1 $-1 $51 $-1 $25 #
shell $-1 $-1 $-1 $52 $-1 $27 #
shell $-1 $-1 $-1 $53 $-1 $29 #
shell $-1 $-1 $-1 $54 $-1 $31 #
face $-1 $55 $56 $33 $-1 $57 forward single #
face $-1 $58 $59 $34 $-1 $60 forward single #
face $-1 $61 $62 $35 $-1 $63 forward single #
face $-1 $64 $65 $36 $-1 $66 reversed single #
face $-1 $67 $68 $37 $-1 $69 forward single #
face $-1 $70 $71 $38 $-1 $72 reversed single #
face $-1 $73 $74 $39 $-1 $75 forward single #
face $-1 $76 $77 $40 $-1 $78 reversed single #
face $-1 $79 $80 $41 $-1 $81 forward single #
face $-1 $82 $83 $42 $-1 $84 reversed single #
face $-1 $85 $86 $43 $-1 $87 forward single #
face $-1 $88 $89 $33 $-1 $90 reversed single #
loop $-1 $-1 $91 $44 #
plane-surface $-1 0 0 8.8545830297178441 0 0 1 1 0 0 forward_v I I I I #
face $-1 $92 $93 $34 $-1 $94 reversed single #
loop $-1 $-1 $95 $45 #
plane-surface $-1 -64.423815751800163 0 -5.8545830297178441 0 0 1 1 0 0 forward_v I I I I #
face $-1 $96 $97 $35 $-1 $98 reversed single #
loop $-1 $-1 $99 $46 #
plane-surface $-1 64.423815751800149 0 -5.8545830297178441 0 0 1 1 0 0 forward_v I I I I #
face $-1 $100 $101 $36 $-1 $102 reversed single #
loop $-1 $-1 $103 $47 #
plane-surface $-1 -27.340145515621909 -152.54598978938952 73.899696066708387 1 0 0 0 0.85716730853699208 -0.51503806187062418 forward_v I I I I #
face $-1 $104 $105 $37 $-1 $106 forward single #
loop $-1 $107 $108 $48 #
cone-surface $-1 -18.361307203603076 -34.210361706999635 5.7756109615481073 0 0.85716730853699208 -0.51503806187062418 1 0 0 1 I I 0 1 1 forward I I I I #
face $-1 $109 $110 $38 $-1 $111 reversed single #
loop $-1 $-1 $112 $49 #
plane-surface $-1 34.11163040156525 -152.54598978938952 73.899696066708387 1 0 0 0 0.85716730853699208 -0.51503806187062418 forward_v I I I I #
face $-1 $113 $114 $39 $-1 $115 forward single #
loop $-1 $116 $117 $50 #
cone-surface $-1 43.090468713584087 -34.210361706999635 5.7756109615481073 0 0.85716730853699208 -0.51503806187062418 1 0 0 1 I I 0 1 1 forward I I I I #
face $-1 $118 $119 $40 $-1 $120 reversed single #
loop $-1 $-1 $121 $51 #
plane-surface $-1 -9.3824688915842422 114.42602292695877 137.34197696981761 -1 0 0 0 0.85716730853699208 0.51503806187062418 forward_v I I I I #
face $-1 $122 $123 $41 $-1 $124 forward single #
loop $-1 $125 $126 $52 #
cone-surface $-1 -18.361307203603076 34.210361706999628 5.7756109615481233 0 -0.85716730853699208 -0.51503806187062418 1 0 0 1 I I 0 1 1 forward I I I I #
face $-1 $127 $128 $42 $-1 $129 reversed single #
loop $-1 $-1 $130 $53 #
plane-surface $-1 52.069307025602924 114.42602292695877 137.34197696981761 -1 0 0 0 0.85716730853699208 0.51503806187062418 forward_v I I I I #
face $-1 $131 $132 $43 $-1 $133 forward single #
loop $-1 $134 $135 $54 #
cone-surface $-1 43.090468713584087 34.210361706999628 5.7756109615481233 0 -0.85716730853699208 -0.51503806187062418 1 0 0 1 I I 0 1 1 forward I I I I #
face $-1 $136 $137 $33 $-1 $138 reversed single #
loop $-1 $-1 $139 $55 #
plane-surface $-1 0 0 -8.8545830297178441 0 0 1 1 0 0 forward_v I I I I #
coedge $-1 $140 $141 $142 $143 forward $56 $-1 #
face $-1 $144 $145 $34 $-1 $146 reversed single #
loop $-1 $-1 $147 $58 #
plane-surface $-1 -61.45177591718717 0 -7.3545830297178441 -1 0 0 0 0 1 forward_v I I I I #
coedge $-1 $148 $149 $150 $151 forward $59 $-1 #
face $-1 $152 $153 $35 $-1 $154 reversed single #
loop $-1 $-1 $155 $61 #
plane-surface $-1 61.451775917187149 0 -7.3545830297178441 1 0 0 0 0 -1 forward_v I I I I #
coedge $-1 $156 $157 $158 $159 reversed $62 $-1 #
face $-1 $160 $161 $36 $-1 $162 reversed single #
loop $-1 $-1 $163 $64 #
plane-surface $-1 -18.361307203603076 -37.006941510282374 4.4768343880309516 0 -0.85716730853699208 0.51503806187062418 1 0 0 forward_v I I I I #
coedge $-1 $164 $165 $166 $167 reversed $65 $-1 #
face $-1 $-1 $168 $37 $-1 $169 forward single #
loop $-1 $170 $171 $67 #
cone-surface $-1 -18.361307203603076 -32.300406583524712 4.6279941832865017 0 0.85716730853699208 -0.51503806187062418 0.5 0 0 1 I I -0.70710678118654746 0.70710678118654746 0.5 forward I I I I #
loop $-1 $-1 $172 $48 #
coedge $-1 $108 $108 $173 $174 reversed $68 $-1 #
face $-1 $175 $176 $38 $-1 $177 reversed single #
loop $-1 $-1 $178 $70 #
plane-surface $-1 43.090468713584087 -37.006941510282374 4.4768343880309516 0 -0.85716730853699208 0.51503806187062418 1 0 0 forward_v I I I I #
coedge $-1 $179 $180 $181 $182 reversed $71 $-1 #
face $-1 $-1 $183 $39 $-1 $184 forward single #
loop $-1 $185 $186 $73 #
cone-surface $-1 43.090468713584087 -32.300406583524712 4.6279941832865017 0 0.85716730853699208 -0.51503806187062418 0.5 0 0 1 I I -0.70710678118654746 0.70710678118654746 0.5 forward I I I I #
loop $-1 $-1 $187 $50 #
coedge $-1 $117 $117 $188 $189 reversed $74 $-1 #
face $-1 $190 $191 $40 $-1 $192 reversed single #
loop $-1 $-1 $193 $76 #
plane-surface $-1 -18.361307203603076 -1.1130253521483837 67.919115291140173 0 0.85716730853699208 0.51503806187062418 1 0 0 forward_v I I I I #
coedge $-1 $194 $195 $196 $197 reversed $77 $-1 #
face $-1 $-1 $198 $41 $-1 $199 forward single #
loop $-1 $200 $201 $79 #
cone-surface $-1 -18.361307203603076 32.300406583524705 4.6279941832865177 0 -0.85716730853699208 -0.51503806187062418 0.5 0 0 1 I I -0.70710678118654746 0.70710678118654746 0.5 forward I I I I #
loop $-1 $-1 $202 $52 #
coedge $-1 $126 $126 $203 $204 reversed $80 $-1 #
face $-1 $205 $206 $42 $-1 $207 reversed single #
loop $-1 $-1 $208 $82 #
plane-surface $-1 43.090468713584087 -1.1130253521483837 67.919115291140173 0 0.85716730853699208 0.51503806187062418 1 0 0 forward_v I I I I #
coedge $-1 $209 $210 $211 $212 reversed $83 $-1 #
face $-1 $-1 $213 $43 $-1 $214 forward single #
loop $-1 $215 $216 $85 #
cone-surface $-1 43.090468713584087 32.300406583524705 4.6279941832865177 0 -0.85716730853699208 -0.51503806187062418 0.5 0 0 1 I I -0.70710678118654746 0.70710678118654746 0.5 forward I I I I #
loop $-1 $-1 $217 $54 #
coedge $-1 $135 $135 $218 $219 reversed $86 $-1 #
face $-1 $220 $221 $33 $-1 $222 reversed single #
loop $-1 $-1 $223 $88 #
plane-surface $-1 0 -37.006941510282346 0 0 1 0 0 0 1 forward_v I I I I #
coedge $-1 $224 $225 $226 $227 forward $89 $-1 #
coedge $-1 $228 $91 $229 $230 forward $56 $-1 #
coedge $-1 $91 $228 $231 $232 forward $56 $-1 #
coedge $-1 $233 $234 $91 $143 reversed $235 $-1 #
edge $-1 $236 -37.006941510282346 $237 37.006941510282346 $142 $238 forward 7 unknown #
face $-1 $239 $240 $34 $-1 $241 reversed single #
loop $-1 $-1 $242 $92 #
plane-surface $-1 0 0 -8.8545830297178441 0 0 1 1 0 0 forward_v I I I I #
coedge $-1 $243 $150 $244 $245 reversed $93 $-1 #
coedge $-1 $246 $95 $247 $248 reversed $59 $-1 #
coedge $-1 $95 $246 $249 $250 reversed $59 $-1 #
coedge $-1 $147 $251 $95 $151 reversed $93 $-1 #
edge $-1 $252 -37.006941510282346 $253 37.006941510282346 $150 $254 forward 7 unknown #
face $-1 $255 $256 $35 $-1 $257 reversed single #
loop $-1 $-1 $258 $96 #
plane-surface $-1 0 -37.006941510282346 0 0 1 0 0 0 1 forward_v I I I I #
coedge $-1 $259 $260 $261 $262 reversed $97 $-1 #
coedge $-1 $263 $99 $264 $265 reversed $62 $-1 #
coedge $-1 $99 $263 $258 $266 reversed $62 $-1 #
coedge $-1 $267 $268 $99 $159 forward $269 $-1 #
edge $-1 $270 -37.006941510282346 $271 37.006941510282346 $158 $272 forward 7 unknown #
face $-1 $273 $274 $36 $-1 $275 forward single #
loop $-1 $-1 $276 $100 #
plane-surface $-1 -9.3824688915842422 -152.54598978938952 73.899696066708387 -1 0 0 0 -0.85716730853699208 0.51503806187062418 forward_v I I I I #
coedge $-1 $277 $278 $279 $280 reversed $101 $-1 #
coedge $-1 $165 $103 $281 $282 reversed $65 $-1 #
coedge $-1 $103 $164 $277 $283 reversed $65 $-1 #
coedge $-1 $279 $284 $103 $167 forward $285 $-1 #
edge $-1 $286 28.095265003636349 $287 32.473013645323192 $166 $288 forward 7 unknown #
loop $-1 $-1 $173 $104 #
plane-surface $-1 -18.361307203603076 -37.006941510282374 4.4768343880309516 0 -0.85716730853699208 0.51503806187062418 1 0 0 forward_v I I I I #
loop $-1 $-1 $289 $67 #
coedge $-1 $171 $171 $172 $290 reversed $105 $-1 #
coedge $-1 $172 $172 $171 $290 forward $107 $-1 #
coedge $-1 $173 $173 $108 $174 forward $168 $-1 #
edge $-1 $291 1.0815690333690519e-015 $291 6.2831853071796013 $173 $292 forward 7 unknown #
face $-1 $293 $294 $38 $-1 $295 reversed single #
loop $-1 $-1 $296 $109 #
plane-surface $-1 52.069307025602924 -152.54598978938952 73.899696066708387 -1 0 0 0 -0.85716730853699208 0.51503806187062418 forward_v I I I I #
coedge $-1 $297 $298 $299 $300 reversed $110 $-1 #
coedge $-1 $180 $112 $301 $302 reversed $71 $-1 #
coedge $-1 $112 $179 $297 $303 reversed $71 $-1 #
coedge $-1 $299 $304 $112 $182 forward $294 $-1 #
edge $-1 $305 28.095265003636349 $306 32.473013645323192 $181 $307 forward 7 unknown #
loop $-1 $-1 $188 $113 #
plane-surface $-1 43.090468713584087 -37.006941510282374 4.4768343880309516 0 -0.85716730853699208 0.51503806187062418 1 0 0 forward_v I I I I #
loop $-1 $-1 $308 $73 #
coedge $-1 $186 $186 $187 $309 reversed $114 $-1 #
coedge $-1 $187 $187 $186 $309 forward $116 $-1 #
coedge $-1 $188 $188 $117 $189 forward $183 $-1 #
edge $-1 $310 1.0815690333690519e-015 $310 6.2831853071796013 $188 $311 forward 7 unknown #
face $-1 $312 $313 $40 $-1 $314 reversed single #
loop $-1 $-1 $315 $118 #
plane-surface $-1 -27.340145515621909 114.42602292695877 137.34197696981761 1 0 0 0 -0.85716730853699208 -0.51503806187062418 forward_v I I I I #
coedge $-1 $316 $317 $318 $319 reversed $119 $-1 #
coedge $-1 $195 $121 $320 $321 reversed $77 $-1 #
coedge $-1 $121 $194 $316 $322 reversed $77 $-1 #
coedge $-1 $318 $323 $121 $197 forward $313 $-1 #
edge $-1 $324 59.81640545519096 $325 64.194154096877838 $196 $326 forward 7 unknown #
loop $-1 $-1 $203 $122 #
plane-surface $-1 -18.361307203603076 -1.1130253521483837 67.919115291140173 0 0.85716730853699208 0.51503806187062418 1 0 0 forward_v I I I I #
loop $-1 $-1 $327 $79 #
coedge $-1 $201 $201 $202 $328 reversed $123 $-1 #
coedge $-1 $202 $202 $201 $328 forward $125 $-1 #
coedge $-1 $203 $203 $126 $204 forward $198 $-1 #
edge $-1 $329 1.5226350110299904e-015 $329 6.2831853071796022 $203 $330 forward 7 unknown #
face $-1 $331 $332 $42 $-1 $333 reversed single #
loop $-1 $-1 $334 $127 #
plane-surface $-1 34.11163040156525 114.42602292695877 137.34197696981761 1 0 0 0 -0.85716730853699208 -0.51503806187062418 forward_v I I I I #
coedge $-1 $335 $336 $337 $338 reversed $128 $-1 #
coedge $-1 $210 $130 $339 $340 reversed $83 $-1 #
coedge $-1 $130 $209 $335 $341 reversed $83 $-1 #
coedge $-1 $337 $342 $130 $212 forward $332 $-1 #
edge $-1 $343 59.81640545519096 $344 64.194154096877838 $211 $345 forward 7 unknown #
loop $-1 $-1 $218 $131 #
plane-surface $-1 43.090468713584087 -1.1130253521483837 67.919115291140173 0 0.85716730853699208 0.51503806187062418 1 0 0 forward_v I I I I #
loop $-1 $-1 $346 $85 #
coedge $-1 $216 $216 $217 $347 reversed $132 $-1 #
coedge $-1 $217 $217 $216 $347 forward $134 $-1 #
coedge $-1 $218 $218 $135 $219 forward $213 $-1 #
edge $-1 $348 1.5226350110299904e-015 $348 6.2831853071796022 $218 $349 forward 7 unknown #
face $-1 $350 $351 $33 $-1 $352 reversed single #
loop $-1 $-1 $353 $136 #
plane-surface $-1 -67.395855586413163 0 0 1 0 0 0 0 -1 forward_v I I I I #
coedge $-1 $354 $231 $355 $356 forward $137 $-1 #
coedge $-1 $357 $139 $354 $358 forward $89 $-1 #
coedge $-1 $139 $357 $359 $360 forward $89 $-1 #
coedge $-1 $234 $233 $139 $227 reversed $235 $-1 #
edge $-1 $361 -37.006941510282346 $362 37.006941510282346 $226 $363 forward 7 unknown #
coedge $-1 $141 $140 $364 $365 forward $56 $-1 #
coedge $-1 $366 $367 $140 $230 reversed $351 $-1 #
edge $-1 $237 -67.395855586413163 $368 67.395855586413163 $229 $369 forward 7 unknown #
coedge $-1 $223 $370 $141 $232 reversed $137 $-1 #
edge $-1 $371 -67.395855586413163 $236 67.395855586413163 $231 $372 forward 7 unknown #
coedge $-1 $226 $142 $370 $373 forward $235 $-1 #
coedge $-1 $142 $226 $366 $374 reversed $235 $-1 #
loop $-1 $-1 $233 $350 #
vertex $-1 $143 $375 #
vertex $-1 $143 $376 #
straight-curve $-1 67.395855586413163 0 8.8545830297178441 0 1 0 I I #
face $-1 $377 $378 $34 $-1 $379 reversed single #
loop $-1 $-1 $244 $144 #
plane-surface $-1 0 -37.006941510282346 0 0 1 0 0 0 1 forward_v I I I I #
coedge $-1 $380 $381 $243 $382 forward $145 $-1 #
coedge $-1 $251 $147 $242 $382 reversed $93 $-1 #
coedge $-1 $249 $383 $147 $245 forward $240 $-1 #
edge $-1 $384 -5.177291514858922 $252 -2.177291514858922 $244 $385 forward 7 unknown #
coedge $-1 $149 $148 $386 $387 reversed $59 $-1 #
coedge $-1 $388 $389 $148 $248 forward $390 $-1 #
edge $-1 $391 -35.183947710513081 $253 -29.239868041287089 $247 $392 forward 7 unknown #
coedge $-1 $393 $244 $149 $250 forward $240 $-1 #
edge $-1 $252 29.239868041287089 $394 35.183947710513081 $249 $395 forward 7 unknown #
coedge $-1 $150 $243 $388 $396 reversed $93 $-1 #
vertex $-1 $250 $397 #
vertex $-1 $248 $398 #
straight-curve $-1 -61.45177591718717 0 -5.8545830297178441 0 1 0 I I #
face $-1 $399 $400 $35 $-1 $401 reversed single #
loop $-1 $-1 $402 $152 #
plane-surface $-1 0 0 -8.8545830297178441 0 0 1 1 0 0 forward_v I I I I #
coedge $-1 $403 $404 $157 $266 forward $153 $-1 #
coedge $-1 $405 $155 $402 $406 reversed $97 $-1 #
coedge $-1 $155 $405 $263 $407 reversed $97 $-1 #
coedge $-1 $264 $408 $155 $262 forward $400 $-1 #
edge $-1 $409 -5.177291514858922 $410 -2.177291514858922 $261 $411 forward 7 unknown #
coedge $-1 $157 $156 $260 $407 forward $62 $-1 #
coedge $-1 $412 $261 $156 $265 forward $400 $-1 #
edge $-1 $410 29.239868041287075 $270 35.183947710513074 $264 $413 forward 7 unknown #
edge $-1 $271 -35.183947710513074 $414 -29.239868041287075 $258 $415 forward 7 unknown #
coedge $-1 $416 $158 $404 $417 forward $269 $-1 #
coedge $-1 $158 $416 $412 $418 reversed $269 $-1 #
loop $-1 $-1 $158 $399 #
vertex $-1 $418 $419 #
vertex $-1 $417 $420 #
straight-curve $-1 67.395855586413163 0 -5.8545830297178441 0 -1 0 I I #
face $-1 $-1 $285 $36 $-1 $421 reversed single #
loop $-1 $-1 $422 $160 #
plane-surface $-1 0 0 8.8545830297178441 0 0 1 1 0 0 forward_v I I I I #
coedge $-1 $423 $424 $425 $426 reversed $161 $-1 #
coedge $-1 $427 $163 $165 $283 forward $101 $-1 #
coedge $-1 $163 $427 $423 $428 forward $101 $-1 #
coedge $-1 $425 $166 $163 $280 forward $285 $-1 #
edge $-1 $287 -18.159491913820371 $429 -0.20181528978270435 $279 $430 forward 7 unknown #
coedge $-1 $431 $432 $164 $282 forward $274 $-1 #
edge $-1 $433 -41.89647005256495 $286 -39.266053384412416 $281 $434 forward 7 unknown #
edge $-1 $287 5.4988089932380084e-014 $433 5.1072277233237093 $165 $435 forward 7 unknown #
coedge $-1 $166 $425 $431 $436 reversed $285 $-1 #
loop $-1 $-1 $425 $273 #
vertex $-1 $436 $437 #
vertex $-1 $167 $438 #
straight-curve $-1 -27.340145515621909 -37.006941510282346 36.949848033354193 0 0 -1 I I #
coedge $-1 $289 $289 $-1 $439 reversed $170 $-1 #
edge $-1 $440 0 $440 6.2831853071796004 $171 $441 forward 7 unknown #
vertex $-1 $174 $442 #
ellipse-curve $-1 -18.361307203603076 -35.691733176206085 6.665708708874412 0 -0.85716730853699208 0.51503806187062418 1 0 0 1 I I #
face $-1 $-1 $443 $38 $-1 $444 forward single #
loop $-1 $-1 $181 $175 #
plane-surface $-1 0 -37.006941510282346 0 0 1 0 0 0 1 forward_v I I I I #
coedge $-1 $445 $446 $447 $448 reversed $176 $-1 #
coedge $-1 $449 $178 $180 $303 forward $110 $-1 #
coedge $-1 $178 $449 $445 $450 forward $110 $-1 #
coedge $-1 $447 $181 $178 $300 forward $294 $-1 #
edge $-1 $306 12.566396044773207 $451 30.524072668810881 $299 $452 forward 7 unknown #
coedge $-1 $453 $454 $179 $302 forward $443 $-1 #
edge $-1 $455 -41.89647005256495 $305 -39.266053384412416 $301 $456 forward 7 unknown #
edge $-1 $306 5.4988089932380084e-014 $455 5.1072277233237093 $180 $457 forward 7 unknown #
coedge $-1 $181 $447 $453 $458 reversed $294 $-1 #
vertex $-1 $458 $459 #
vertex $-1 $182 $460 #
straight-curve $-1 34.11163040156525 -37.006941510282346 36.949848033354193 0 0 -1 I I #
coedge $-1 $308 $308 $-1 $461 reversed $185 $-1 #
edge $-1 $462 0 $462 6.2831853071796004 $186 $463 forward 7 unknown #
vertex $-1 $189 $464 #
ellipse-curve $-1 43.090468713584087 -35.691733176206085 6.665708708874412 0 -0.85716730853699208 0.51503806187062418 1 0 0 1 I I #
face $-1 $-1 $465 $40 $-1 $466 forward single #
loop $-1 $-1 $196 $190 #
plane-surface $-1 0 37.006941510282346 0 0 -1 0 0 0 -1 forward_v I I I I #
coedge $-1 $467 $468 $469 $470 reversed $191 $-1 #
coedge $-1 $471 $193 $195 $322 forward $119 $-1 #
coedge $-1 $193 $471 $467 $472 forward $119 $-1 #
coedge $-1 $469 $196 $193 $319 forward $313 $-1 #
edge $-1 $325 0.20181528978270435 $473 18.159491913820371 $318 $474 forward 7 unknown #
coedge $-1 $475 $476 $194 $321 forward $465 $-1 #
edge $-1 $477 -22.836486621349579 $324 -20.206069953197037 $320 $478 forward 7 unknown #
edge $-1 $325 -74.013883020564691 $477 -68.906655297241016 $195 $479 forward 7 unknown #
coedge $-1 $196 $469 $475 $480 reversed $313 $-1 #
vertex $-1 $480 $481 #
vertex $-1 $197 $482 #
straight-curve $-1 -9.3824688915842422 37.006941510282346 68.670988484908804 0 0 -1 I I #
coedge $-1 $327 $327 $-1 $483 reversed $200 $-1 #
edge $-1 $484 0 $484 6.2831853071796004 $201 $485 forward 7 unknown #
vertex $-1 $204 $486 #
ellipse-curve $-1 -18.361307203603076 35.691733176206057 6.6657087088744182 0 0.85716730853699208 0.51503806187062418 1 0 0 1 I I #
face $-1 $-1 $487 $42 $-1 $488 forward single #
loop $-1 $-1 $211 $205 #
plane-surface $-1 0 37.006941510282346 0 0 -1 0 0 0 -1 forward_v I I I I #
coedge $-1 $489 $490 $491 $492 reversed $206 $-1 #
coedge $-1 $493 $208 $210 $341 forward $128 $-1 #
coedge $-1 $208 $493 $489 $494 forward $128 $-1 #
coedge $-1 $491 $211 $208 $338 forward $332 $-1 #
edge $-1 $344 -30.524072668810881 $495 -12.566396044773207 $337 $496 forward 7 unknown #
coedge $-1 $497 $498 $209 $340 forward $487 $-1 #
edge $-1 $499 -22.836486621349579 $343 -20.206069953197037 $339 $500 forward 7 unknown #
edge $-1 $344 -74.013883020564691 $499 -68.906655297241016 $210 $501 forward 7 unknown #
coedge $-1 $211 $491 $497 $502 reversed $332 $-1 #
vertex $-1 $502 $503 #
vertex $-1 $212 $504 #
straight-curve $-1 52.069307025602924 37.006941510282346 68.670988484908804 0 0 -1 I I #
coedge $-1 $346 $346 $-1 $505 reversed $215 $-1 #
edge $-1 $506 0 $506 6.2831853071796004 $216 $507 forward 7 unknown #
vertex $-1 $219 $508 #
ellipse-curve $-1 43.090468713584087 35.691733176206057 6.6657087088744182 0 0.85716730853699208 0.51503806187062418 1 0 0 1 I I #
face $-1 $-1 $235 $33 $-1 $509 reversed single #
loop $-1 $-1 $366 $220 #
plane-surface $-1 0 37.006941510282346 0 0 -1 0 0 0 -1 forward_v I I I I #
coedge $-1 $510 $364 $367 $511 forward $221 $-1 #
coedge $-1 $370 $223 $224 $358 reversed $137 $-1 #
coedge $-1 $364 $510 $223 $356 reversed $221 $-1 #
edge $-1 $371 -8.8545830297178441 $512 8.8545830297178441 $355 $513 forward 7 unknown #
coedge $-1 $225 $224 $510 $514 forward $89 $-1 #
edge $-1 $362 -67.395855586413163 $512 67.395855586413163 $354 $515 forward 7 unknown #
coedge $-1 $367 $366 $225 $360 reversed $351 $-1 #
edge $-1 $516 -67.395855586413163 $361 67.395855586413163 $359 $517 forward 7 unknown #
vertex $-1 $227 $518 #
vertex $-1 $373 $519 #
straight-curve $-1 67.395855586413163 0 -8.8545830297178441 0 -1 0 I I #
coedge $-1 $353 $355 $228 $365 reversed $221 $-1 #
edge $-1 $368 -37.006941510282346 $371 37.006941510282346 $364 $520 forward 7 unknown #
coedge $-1 $359 $229 $234 $374 forward $351 $-1 #
coedge $-1 $229 $359 $353 $511 reversed $351 $-1 #
vertex $-1 $230 $521 #
straight-curve $-1 0 37.006941510282346 8.8545830297178441 -1 0 0 I I #
coedge $-1 $231 $354 $233 $373 reversed $137 $-1 #
vertex $-1 $365 $522 #
straight-curve $-1 0 -37.006941510282346 8.8545830297178441 1 0 0 I I #
edge $-1 $236 -8.8545830297178441 $362 8.8545830297178441 $233 $523 forward 7 unknown #
edge $-1 $237 -8.8545830297178441 $361 8.8545830297178441 $234 $524 forward 7 unknown #
point $-1 67.395855586413163 -37.006941510282346 8.8545830297178441 #
point $-1 67.395855586413163 37.006941510282346 8.8545830297178441 #
face $-1 $-1 $390 $34 $-1 $525 reversed single #
loop $-1 $-1 $386 $239 #
plane-surface $-1 -67.395855586413163 0 0 1 0 0 0 0 -1 forward_v I I I I #
coedge $-1 $526 $242 $383 $527 forward $145 $-1 #
coedge $-1 $242 $526 $528 $529 forward $145 $-1 #
edge $-1 $530 -37.006941510282346 $384 37.006941510282346 $242 $531 forward 7 unknown #
coedge $-1 $244 $393 $380 $527 reversed $240 $-1 #
vertex $-1 $527 $532 #
straight-curve $-1 -61.45177591718717 -37.006941510282346 -3.677291514858922 0 0 1 I I #
coedge $-1 $533 $534 $246 $387 forward $378 $-1 #
edge $-1 $394 -37.006941510282346 $391 37.006941510282346 $386 $535 forward 7 unknown #
coedge $-1 $528 $247 $251 $396 forward $390 $-1 #
coedge $-1 $247 $528 $533 $536 reversed $390 $-1 #
loop $-1 $-1 $388 $377 #
vertex $-1 $536 $537 #
straight-curve $-1 -32.211907875900081 37.006941510282346 -5.8545830297178441 1 0 0 I I #
coedge $-1 $383 $249 $534 $538 forward $240 $-1 #
vertex $-1 $538 $539 #
straight-curve $-1 -32.211907875900081 -37.006941510282346 -5.8545830297178441 -1 0 0 I I #
edge $-1 $253 2.177291514858922 $530 5.177291514858922 $388 $540 forward 7 unknown #
point $-1 -61.45177591718717 -37.006941510282346 -5.8545830297178441 #
point $-1 -61.45177591718717 37.006941510282346 -5.8545830297178441 #
face $-1 $-1 $269 $35 $-1 $541 reversed single #
loop $-1 $-1 $264 $255 #
plane-surface $-1 0 37.006941510282346 0 0 -1 0 0 0 -1 forward_v I I I I #
coedge $-1 $542 $543 $259 $406 forward $256 $-1 #
coedge $-1 $544 $258 $405 $545 forward $153 $-1 #
coedge $-1 $258 $544 $267 $417 reversed $153 $-1 #
coedge $-1 $260 $259 $403 $545 reversed $97 $-1 #
edge $-1 $546 -37.006941510282346 $409 37.006941510282346 $402 $547 forward 7 unknown #
edge $-1 $410 -37.006941510282346 $414 37.006941510282346 $260 $548 forward 7 unknown #
coedge $-1 $261 $412 $542 $549 reversed $400 $-1 #
vertex $-1 $549 $550 #
vertex $-1 $265 $551 #
straight-curve $-1 61.451775917187149 37.006941510282346 -3.677291514858922 0 0 1 I I #
coedge $-1 $408 $264 $268 $418 forward $400 $-1 #
straight-curve $-1 32.211907875900074 37.006941510282346 -5.8545830297178441 1 0 0 I I #
vertex $-1 $266 $552 #
straight-curve $-1 32.211907875900074 -37.006941510282346 -5.8545830297178441 -1 0 0 I I #
coedge $-1 $268 $267 $553 $554 reversed $269 $-1 #
edge $-1 $271 5.8545830297178441 $555 8.8545830297178441 $267 $556 forward 7 unknown #
edge $-1 $270 5.8545830297178441 $557 8.8545830297178441 $268 $558 forward 7 unknown #
point $-1 67.395855586413148 37.006941510282346 -5.8545830297178441 #
point $-1 67.395855586413148 -37.006941510282346 -5.8545830297178441 #
plane-surface $-1 0 -37.006941510282346 0 0 1 0 0 0 1 forward_v I I I I #
coedge $-1 $432 $431 $424 $559 forward $274 $-1 #
coedge $-1 $424 $276 $278 $428 reversed $161 $-1 #
coedge $-1 $276 $423 $422 $559 reversed $161 $-1 #
coedge $-1 $284 $279 $276 $426 forward $285 $-1 #
edge $-1 $429 -32.473013645323192 $560 -28.095265003636349 $425 $561 forward 7 unknown #
coedge $-1 $278 $277 $432 $562 reversed $101 $-1 #
edge $-1 $563 -5.1072277233237093 $429 -5.4988089932380084e-014 $423 $564 forward 7 unknown #
vertex $-1 $280 $565 #
straight-curve $-1 -9.1806536018015379 -37.006941510282346 4.4768343880309942 1 0 0 I I #
coedge $-1 $422 $281 $284 $436 forward $274 $-1 #
coedge $-1 $281 $422 $427 $562 forward $274 $-1 #
vertex $-1 $282 $566 #
straight-curve $-1 -27.340145515621909 -76.272994894694762 8.8545830297178441 0 -1 0 I I #
straight-curve $-1 -27.340145515621909 -37.006941510282374 4.4768343880309516 0 0.51503806187062418 0.85716730853699208 I I #
edge $-1 $286 -27.340145515621909 $560 -9.3824688915842422 $284 $567 forward 7 unknown #
point $-1 -27.340145515621909 -37.006941510282346 8.8545830297178441 #
point $-1 -27.340145515621909 -37.006941510282346 4.4768343880309986 #
edge $-1 $568 1 $568 0 $289 $-1 forward 7 unknown #
vertex $-1 $290 $569 #
ellipse-curve $-1 -18.361307203603076 -32.728990237793205 4.8855132142218141 0 -0.85716730853699208 0.51503806187062418 1 0 0 1 I I #
point $-1 -17.361307203603076 -35.691733176206064 6.6657087088744005 #
loop $-1 $-1 $301 $293 #
plane-surface $-1 0 0 8.8545830297178441 0 0 1 1 0 0 forward_v I I I I #
coedge $-1 $446 $296 $298 $450 reversed $176 $-1 #
coedge $-1 $296 $445 $570 $571 reversed $176 $-1 #
coedge $-1 $304 $299 $296 $448 forward $294 $-1 #
edge $-1 $451 -32.473013645323192 $572 -28.095265003636349 $447 $573 forward 7 unknown #
coedge $-1 $298 $297 $454 $574 reversed $110 $-1 #
edge $-1 $575 -5.1072277233237093 $451 -5.4988089932380084e-014 $445 $576 forward 7 unknown #
vertex $-1 $300 $577 #
straight-curve $-1 21.545234356792044 -37.006941510282346 4.4768343880309942 1 0 0 I I #
coedge $-1 $570 $301 $304 $458 forward $443 $-1 #
coedge $-1 $301 $570 $449 $574 forward $443 $-1 #
vertex $-1 $302 $578 #
straight-curve $-1 34.11163040156525 -76.272994894694762 8.8545830297178441 0 -1 0 I I #
straight-curve $-1 34.11163040156525 -37.006941510282374 4.4768343880309516 0 0.51503806187062418 0.85716730853699208 I I #
edge $-1 $305 34.11163040156525 $572 52.069307025602924 $304 $579 forward 7 unknown #
point $-1 34.11163040156525 -37.006941510282346 8.8545830297178441 #
point $-1 34.11163040156525 -37.006941510282346 4.4768343880309986 #
edge $-1 $580 1 $580 0 $308 $-1 forward 7 unknown #
vertex $-1 $309 $581 #
ellipse-curve $-1 43.090468713584087 -32.728990237793205 4.8855132142218141 0 -0.85716730853699208 0.51503806187062418 1 0 0 1 I I #
point $-1 44.090468713584087 -35.691733176206064 6.6657087088744005 #
loop $-1 $-1 $320 $312 #
plane-surface $-1 0 0 8.8545830297178441 0 0 1 1 0 0 forward_v I I I I #
coedge $-1 $468 $315 $317 $472 reversed $191 $-1 #
coedge $-1 $315 $467 $582 $583 reversed $191 $-1 #
coedge $-1 $323 $318 $315 $470 forward $313 $-1 #
edge $-1 $473 -64.194154096877838 $584 -59.81640545519096 $469 $585 forward 7 unknown #
coedge $-1 $317 $316 $476 $586 reversed $119 $-1 #
edge $-1 $587 68.906655297241016 $473 74.013883020564691 $467 $588 forward 7 unknown #
vertex $-1 $319 $589 #
straight-curve $-1 -9.1806536018015379 37.006941510282346 4.4768343880309693 -1 0 0 I I #
coedge $-1 $582 $320 $323 $480 forward $465 $-1 #
coedge $-1 $320 $582 $471 $586 forward $465 $-1 #
vertex $-1 $321 $590 #
straight-curve $-1 -9.3824688915842422 57.213011463479383 8.8545830297178441 0 1 0 I I #
straight-curve $-1 -9.3824688915842422 -1.1130253521483837 67.919115291140173 0 -0.51503806187062418 0.85716730853699208 I I #
edge $-1 $324 9.3824688915842422 $584 27.340145515621909 $323 $591 forward 7 unknown #
point $-1 -9.3824688915842422 37.006941510282346 8.8545830297178441 #
point $-1 -9.3824688915842422 37.006941510282346 4.4768343880309729 #
edge $-1 $592 1 $592 0 $327 $-1 forward 7 unknown #
vertex $-1 $328 $593 #
ellipse-curve $-1 -18.361307203603076 32.728990237793198 4.88551321422183 0 0.85716730853699208 0.51503806187062418 1 0 0 1 I I #
point $-1 -17.361307203603076 35.691733176206057 6.6657087088744165 #
loop $-1 $-1 $339 $331 #
plane-surface $-1 0 0 8.8545830297178441 0 0 1 1 0 0 forward_v I I I I #
coedge $-1 $490 $334 $336 $494 reversed $206 $-1 #
coedge $-1 $334 $489 $594 $595 reversed $206 $-1 #
coedge $-1 $342 $337 $334 $492 forward $332 $-1 #
edge $-1 $495 -64.194154096877838 $596 -59.81640545519096 $491 $597 forward 7 unknown #
coedge $-1 $336 $335 $498 $598 reversed $128 $-1 #
edge $-1 $599 68.906655297241016 $495 74.013883020564691 $489 $600 forward 7 unknown #
vertex $-1 $338 $601 #
straight-curve $-1 21.545234356792044 37.006941510282346 4.4768343880309693 -1 0 0 I I #
coedge $-1 $594 $339 $342 $502 forward $487 $-1 #
coedge $-1 $339 $594 $493 $598 forward $487 $-1 #
vertex $-1 $340 $602 #
straight-curve $-1 52.069307025602924 57.213011463479383 8.8545830297178441 0 1 0 I I #
straight-curve $-1 52.069307025602924 -1.1130253521483837 67.919115291140173 0 -0.51503806187062418 0.85716730853699208 I I #
edge $-1 $343 -52.069307025602924 $596 -34.11163040156525 $342 $603 forward 7 unknown #
point $-1 52.069307025602924 37.006941510282346 8.8545830297178441 #
point $-1 52.069307025602924 37.006941510282346 4.4768343880309729 #
edge $-1 $604 1 $604 0 $346 $-1 forward 7 unknown #
vertex $-1 $347 $605 #
ellipse-curve $-1 43.090468713584087 32.728990237793198 4.88551321422183 0 0.85716730853699208 0.51503806187062418 1 0 0 1 I I #
point $-1 44.090468713584087 35.691733176206057 6.6657087088744165 #
plane-surface $-1 67.395855586413163 0 0 -1 0 0 0 0 1 forward_v I I I I #
coedge $-1 $355 $353 $357 $514 reversed $221 $-1 #
edge $-1 $368 -8.8545830297178441 $516 8.8545830297178441 $367 $606 forward 7 unknown #
vertex $-1 $514 $607 #
straight-curve $-1 -67.395855586413163 -37.006941510282346 0 0 0 -1 I I #
edge $-1 $512 -37.006941510282346 $516 37.006941510282346 $510 $608 forward 7 unknown #
straight-curve $-1 0 -37.006941510282346 -8.8545830297178441 -1 0 0 I I #
vertex $-1 $360 $609 #
straight-curve $-1 0 37.006941510282346 -8.8545830297178441 1 0 0 I I #
point $-1 67.395855586413163 37.006941510282346 -8.8545830297178441 #
point $-1 67.395855586413163 -37.006941510282346 -8.8545830297178441 #
straight-curve $-1 -67.395855586413163 0 8.8545830297178441 0 -1 0 I I #
point $-1 -67.395855586413163 37.006941510282346 8.8545830297178441 #
point $-1 -67.395855586413163 -37.006941510282346 8.8545830297178441 #
straight-curve $-1 67.395855586413163 -37.006941510282346 0 0 0 -1 I I #
straight-curve $-1 67.395855586413163 37.006941510282346 0 0 0 -1 I I #
plane-surface $-1 0 37.006941510282346 0 0 -1 0 0 0 -1 forward_v I I I I #
coedge $-1 $381 $380 $610 $611 forward $145 $-1 #
edge $-1 $384 61.45177591718717 $612 67.395855586413163 $383 $613 forward 7 unknown #
coedge $-1 $389 $388 $381 $529 reversed $390 $-1 #
edge $-1 $614 -67.395855586413163 $530 -61.45177591718717 $528 $615 forward 7 unknown #
vertex $-1 $396 $616 #
straight-curve $-1 -61.45177591718717 0 -8.8545830297178441 0 -1 0 I I #
point $-1 -61.45177591718717 -37.006941510282346 -8.8545830297178441 #
coedge $-1 $610 $386 $389 $536 forward $378 $-1 #
coedge $-1 $386 $610 $393 $538 reversed $378 $-1 #
straight-curve $-1 -67.395855586413163 0 -5.8545830297178441 0 1 0 I I #
edge $-1 $391 5.8545830297178441 $614 8.8545830297178441 $389 $617 forward 7 unknown #
point $-1 -67.395855586413163 37.006941510282346 -5.8545830297178441 #
edge $-1 $394 5.8545830297178441 $612 8.8545830297178441 $534 $618 forward 7 unknown #
point $-1 -67.395855586413163 -37.006941510282346 -5.8545830297178441 #
straight-curve $-1 -61.45177591718717 37.006941510282346 -3.677291514858922 0 0 -1 I I #
plane-surface $-1 67.395855586413163 0 0 -1 0 0 0 0 1 forward_v I I I I #
coedge $-1 $553 $402 $408 $549 forward $256 $-1 #
coedge $-1 $402 $553 $544 $619 forward $256 $-1 #
coedge $-1 $404 $403 $543 $619 reversed $153 $-1 #
edge $-1 $414 2.177291514858922 $546 5.177291514858922 $403 $620 forward 7 unknown #
vertex $-1 $406 $621 #
straight-curve $-1 61.451775917187149 0 -8.8545830297178441 0 1 0 I I #
straight-curve $-1 61.451775917187149 0 -5.8545830297178441 0 -1 0 I I #
edge $-1 $409 61.451775917187149 $557 67.395855586413163 $408 $622 forward 7 unknown #
point $-1 61.451775917187149 37.006941510282346 -8.8545830297178441 #
point $-1 61.451775917187149 37.006941510282346 -5.8545830297178441 #
point $-1 61.451775917187149 -37.006941510282346 -5.8545830297178441 #
coedge $-1 $543 $542 $416 $554 forward $256 $-1 #
edge $-1 $557 -37.006941510282346 $555 37.006941510282346 $416 $623 forward 7 unknown #
vertex $-1 $417 $624 #
straight-curve $-1 67.395855586413163 -37.006941510282346 0 0 0 -1 I I #
vertex $-1 $554 $625 #
straight-curve $-1 67.395855586413163 37.006941510282346 0 0 0 -1 I I #
edge $-1 $560 39.266053384412416 $563 41.89647005256495 $422 $626 forward 7 unknown #
vertex $-1 $559 $627 #
straight-curve $-1 -9.3824688915842422 -37.006941510282346 36.949848033354193 0 0 1 I I #
edge $-1 $563 0.20181528978270435 $433 18.159491913820371 $432 $628 forward 7 unknown #
vertex $-1 $562 $629 #
straight-curve $-1 -9.3824688915842422 -37.006941510282374 4.4768343880309516 0 -0.51503806187062418 -0.85716730853699208 I I #
point $-1 -9.3824688915842422 -37.006941510282346 4.4768343880309986 #
point $-1 -27.340145515621909 -34.376524842129811 8.8545830297178441 #
straight-curve $-1 0 -37.006941510282346 8.8545830297178441 1 0 0 I I #
vertex $-1 $439 $630 #
point $-1 -17.361307203603076 -32.728990237793205 4.8855132142218141 #
coedge $-1 $454 $453 $446 $571 forward $443 $-1 #
edge $-1 $572 39.266053384412416 $575 41.89647005256495 $570 $631 forward 7 unknown #
vertex $-1 $571 $632 #
straight-curve $-1 52.069307025602924 -37.006941510282346 36.949848033354193 0 0 1 I I #
edge $-1 $575 -30.524072668810881 $455 -12.566396044773207 $454 $633 forward 7 unknown #
vertex $-1 $574 $634 #
straight-curve $-1 52.069307025602924 -37.006941510282374 4.4768343880309516 0 -0.51503806187062418 -0.85716730853699208 I I #
point $-1 52.069307025602924 -37.006941510282346 4.4768343880309986 #
point $-1 34.11163040156525 -34.376524842129811 8.8545830297178441 #
straight-curve $-1 0 -37.006941510282346 8.8545830297178441 1 0 0 I I #
vertex $-1 $461 $635 #
point $-1 44.090468713584087 -32.728990237793205 4.8855132142218141 #
coedge $-1 $476 $475 $468 $583 forward $465 $-1 #
edge $-1 $584 20.206069953197037 $587 22.836486621349579 $582 $636 forward 7 unknown #
vertex $-1 $583 $637 #
straight-curve $-1 -27.340145515621909 37.006941510282346 68.670988484908804 0 0 1 I I #
edge $-1 $587 -18.159491913820371 $477 -0.20181528978270435 $476 $638 forward 7 unknown #
vertex $-1 $586 $639 #
straight-curve $-1 -27.340145515621909 -1.1130253521483837 67.919115291140173 0 0.51503806187062418 -0.85716730853699208 I I #
point $-1 -27.340145515621909 37.006941510282346 4.4768343880309729 #
point $-1 -9.3824688915842422 34.376524842129804 8.854583029717837 #
straight-curve $-1 0 37.006941510282346 8.8545830297178441 -1 0 0 I I #
vertex $-1 $483 $640 #
point $-1 -17.361307203603076 32.728990237793198 4.88551321422183 #
coedge $-1 $498 $497 $490 $595 forward $487 $-1 #
edge $-1 $596 20.206069953197037 $599 22.836486621349579 $594 $641 forward 7 unknown #
vertex $-1 $595 $642 #
straight-curve $-1 34.11163040156525 37.006941510282346 68.670988484908804 0 0 1 I I #
edge $-1 $599 12.566396044773207 $499 30.524072668810881 $498 $643 forward 7 unknown #
vertex $-1 $598 $644 #
straight-curve $-1 34.11163040156525 -1.1130253521483837 67.919115291140173 0 0.51503806187062418 -0.85716730853699208 I I #
point $-1 34.11163040156525 37.006941510282346 4.4768343880309729 #
point $-1 52.069307025602924 34.376524842129804 8.854583029717837 #
straight-curve $-1 0 37.006941510282346 8.8545830297178441 -1 0 0 I I #
vertex $-1 $505 $645 #
point $-1 44.090468713584087 32.728990237793198 4.88551321422183 #
straight-curve $-1 -67.395855586413163 37.006941510282346 0 0 0 -1 I I #
point $-1 -67.395855586413163 -37.006941510282346 -8.8545830297178441 #
straight-curve $-1 -67.395855586413163 0 -8.8545830297178441 0 1 0 I I #
point $-1 -67.395855586413163 37.006941510282346 -8.8545830297178441 #
coedge $-1 $534 $533 $526 $611 reversed $378 $-1 #
edge $-1 $612 -37.006941510282346 $614 37.006941510282346 $610 $646 forward 7 unknown #
vertex $-1 $611 $647 #
straight-curve $-1 0 -37.006941510282346 -8.8545830297178441 -1 0 0 I I #
vertex $-1 $529 $648 #
straight-curve $-1 0 37.006941510282346 -8.8545830297178441 1 0 0 I I #
point $-1 -61.45177591718717 37.006941510282346 -8.8545830297178441 #
straight-curve $-1 -67.395855586413163 37.006941510282346 0 0 0 -1 I I #
straight-curve $-1 -67.395855586413163 -37.006941510282346 0 0 0 -1 I I #
edge $-1 $555 -67.395855586413163 $546 -61.451775917187149 $544 $649 forward 7 unknown #
straight-curve $-1 61.451775917187149 -37.006941510282346 -3.677291514858922 0 0 -1 I I #
point $-1 61.451775917187149 -37.006941510282346 -8.8545830297178441 #
straight-curve $-1 0 37.006941510282346 -8.8545830297178441 1 0 0 I I #
straight-curve $-1 67.395855586413163 0 -8.8545830297178441 0 -1 0 I I #
point $-1 67.395855586413163 -37.006941510282346 -8.8545830297178441 #
point $-1 67.395855586413163 37.006941510282346 -8.8545830297178441 #
straight-curve $-1 -9.3824688915842422 -76.272994894694762 8.8545830297178441 0 1 0 I I #
point $-1 -9.3824688915842422 -37.006941510282346 8.8545830297178441 #
straight-curve $-1 -9.1806536018015379 -34.376524842129811 8.8545830297178441 -1 0 0 I I #
point $-1 -9.3824688915842422 -34.376524842129811 8.8545830297178441 #
point $-1 -18.361307203603076 -31.871822929256215 4.3704751523511893 #
straight-curve $-1 52.069307025602924 -76.272994894694762 8.8545830297178441 0 1 0 I I #
point $-1 52.069307025602924 -37.006941510282346 8.8545830297178441 #
straight-curve $-1 21.545234356792044 -34.376524842129811 8.8545830297178441 -1 0 0 I I #
point $-1 52.069307025602924 -34.376524842129811 8.8545830297178441 #
point $-1 43.090468713584087 -31.871822929256215 4.3704751523511893 #
straight-curve $-1 -27.340145515621909 57.213011463479383 8.8545830297178441 0 -1 0 I I #
point $-1 -27.340145515621909 37.006941510282346 8.8545830297178441 #
straight-curve $-1 -9.1806536018015379 34.37652484212979 8.8545830297178441 1 0 0 I I #
point $-1 -27.340145515621909 34.376524842129804 8.854583029717837 #
point $-1 -18.361307203603076 31.871822929256208 4.3704751523512053 #
straight-curve $-1 34.11163040156525 57.213011463479383 8.8545830297178441 0 -1 0 I I #
point $-1 34.11163040156525 37.006941510282346 8.8545830297178441 #
straight-curve $-1 21.545234356792044 34.37652484212979 8.8545830297178441 1 0 0 I I #
point $-1 34.11163040156525 34.376524842129804 8.854583029717837 #
point $-1 43.090468713584087 31.871822929256208 4.3704751523512053 #
straight-curve $-1 -67.395855586413163 0 -8.8545830297178441 0 1 0 I I #
point $-1 -67.395855586413163 -37.006941510282346 -8.8545830297178441 #
point $-1 -67.395855586413163 37.006941510282346 -8.8545830297178441 #
straight-curve $-1 0 -37.006941510282346 -8.8545830297178441 -1 0 0 I I #
End-of-ACIS-data 