500 0 8 0           
7 Unknown 11 ACIS 5.0 NT 24 Thu Mar 25 20:50:33 1999 
-1 9.9999999999999995e-007 1e-010 
body $-1 $8 $-1 $9 #
body $-1 $10 $-1 $11 #
body $-1 $12 $-1 $13 #
body $-1 $14 $-1 $15 #
body $-1 $16 $-1 $17 #
body $-1 $18 $-1 $19 #
body $-1 $20 $-1 $21 #
body $-1 $22 $-1 $23 #
lump $-1 $-1 $24 $0 #
transform $-1 1 0 0 0 1 0 0 0 1 65.788140507217634 27.74277071140574 6.5119776718233275 1 rotate no_reflect no_shear #
lump $-1 $-1 $25 $1 #
transform $-1 1 0 0 0 1 0 0 0 1 65.788140507217634 27.74277071140574 6.5119776718233275 1 rotate no_reflect no_shear #
lump $-1 $-1 $26 $2 #
transform $-1 1 0 0 0 1 0 0 0 1 65.788140507217634 27.74277071140574 6.5119776718233275 1 rotate no_reflect no_shear #
lump $-1 $-1 $27 $3 #
transform $-1 1 0 0 0 1 0 0 0 1 65.788140507217634 27.74277071140574 6.5119776718233275 1 rotate no_reflect no_shear #
lump $-1 $-1 $28 $4 #
transform $-1 1 0 0 0 1 0 0 0 1 65.788140507217634 27.74277071140574 6.5119776718233275 1 rotate no_reflect no_shear #
lump $-1 $-1 $29 $5 #
transform $-1 1 0 0 0 1 0 0 0 1 65.788140507217634 27.74277071140574 6.5119776718233275 1 rotate no_reflect no_shear #
lump $-1 $-1 $30 $6 #
transform $-1 1 0 0 0 1 0 0 0 1 65.788140507217634 27.74277071140574 6.5119776718233275 1 rotate no_reflect no_shear #
lump $-1 $-1 $31 $7 #
transform $-1 1 0 0 0 1 0 0 0 1 65.788140507217634 27.74277071140574 6.5119776718233275 1 rotate no_reflect no_shear #
shell $-1 $-1 $-1 $32 $-1 $8 #
shell $-1 $-1 $-1 $33 $-1 $10 #
shell $-1 $-1 $-1 $34 $-1 $12 #
shell $-1 $-1 $-1 $35 $-1 $14 #
shell $-1 $-1 $-1 $36 $-1 $16 #
shell $-1 $-1 $-1 $37 $-1 $18 #
shell $-1 $-1 $-1 $38 $-1 $20 #
shell $-1 $-1 $-1 $39 $-1 $22 #
face $-1 $40 $41 $24 $-1 $42 forward single #
face $-1 $43 $44 $25 $-1 $45 forward single #
face $-1 $46 $47 $26 $-1 $48 forward single #
face $-1 $49 $50 $27 $-1 $51 reversed single #
face $-1 $52 $53 $28 $-1 $54 forward single #
face $-1 $55 $56 $29 $-1 $57 forward single #
face $-1 $58 $59 $30 $-1 $60 reversed single #
face $-1 $61 $62 $31 $-1 $63 forward single #
face $-1 $64 $65 $24 $-1 $66 reversed single #
loop $-1 $-1 $67 $32 #
plane-surface $-1 0 0 6.5119776718233275 0 0 1 1 0 0 forward_v I I I I #
face $-1 $68 $69 $25 $-1 $70 reversed single #
loop $-1 $-1 $71 $33 #
plane-surface $-1 -65.788140507217634 0 0 1 0 0 0 0 -1 forward_v I I I I #
face $-1 $72 $73 $26 $-1 $74 reversed single #
loop $-1 $-1 $75 $34 #
plane-surface $-1 65.788140507217634 0 0 -1 0 0 0 0 1 forward_v I I I I #
face $-1 $76 $77 $27 $-1 $78 reversed single #
loop $-1 $-1 $79 $35 #
plane-surface $-1 37.763753302583929 109.92292978504622 118.80534940677309 1 0 0 0 -0.84804810408105047 -0.52991925155115449 forward_v I I I I #
face $-1 $80 $81 $28 $-1 $82 forward single #
loop $-1 $83 $84 $36 #
cone-surface $-1 43.859449993075316 25.796595314723394 3.9287264140980027 0 -0.84804810408105047 -0.52991925155115449 1 0 0 1 I I 0 1 1 forward I I I I #
face $-1 $85 $86 $29 $-1 $87 forward single #
loop $-1 $88 $89 $37 #
cone-surface $-1 53.002995028812393 25.796595314723394 3.9287264140980027 0 -0.84804810408105047 -0.52991925155115449 1 0 0 1 I I 0 1 1 forward I I I I #
face $-1 $90 $91 $30 $-1 $92 reversed single #
loop $-1 $-1 $93 $38 #
plane-surface $-1 59.098691719303787 -139.32578636773309 70.997785063503883 -1 0 0 0 -0.84804810408105047 0.52991925155115449 forward_v I I I I #
face $-1 $94 $95 $31 $-1 $96 forward single #
loop $-1 $97 $98 $39 #
cone-surface $-1 47.924053947655707 -25.240460319149751 3.3516759489294019 0 0.84804810408105047 -0.52991925155115449 1 0 0 1 I I 0 1 1 forward I I I I #
face $-1 $99 $100 $24 $-1 $101 reversed single #
loop $-1 $-1 $102 $40 #
plane-surface $-1 0 0 -6.5119776718233275 0 0 1 1 0 0 forward_v I I I I #
coedge $-1 $103 $104 $105 $106 forward $41 $-1 #
face $-1 $107 $108 $25 $-1 $109 forward single #
loop $-1 $-1 $110 $43 #
plane-surface $-1 0 27.74277071140574 0 0 -1 0 0 0 -1 forward_v I I I I #
coedge $-1 $111 $112 $113 $114 forward $44 $-1 #
face $-1 $115 $116 $26 $-1 $117 forward single #
loop $-1 $-1 $118 $46 #
plane-surface $-1 0 -27.74277071140574 0 0 1 0 0 0 1 forward_v I I I I #
coedge $-1 $119 $120 $121 $122 forward $47 $-1 #
face $-1 $123 $124 $27 $-1 $125 reversed single #
loop $-1 $-1 $126 $49 #
plane-surface $-1 48.431222510943854 -1.6600858712811259 49.080545049719177 0 0.84804810408105047 0.52991925155115449 1 0 0 forward_v I I I I #
coedge $-1 $127 $128 $129 $130 reversed $50 $-1 #
face $-1 $-1 $131 $28 $-1 $132 forward single #
loop $-1 $133 $134 $52 #
cone-surface $-1 43.859449993075316 24.827928045351968 3.3234359454121041 0 -0.84804810408105047 -0.52991925155115449 0.5 0 0 1 I I -0.70710678118654746 0.70710678118654746 0.5 forward I I I I #
loop $-1 $-1 $135 $36 #
coedge $-1 $84 $84 $136 $137 reversed $53 $-1 #
face $-1 $-1 $138 $29 $-1 $139 forward single #
loop $-1 $140 $141 $55 #
cone-surface $-1 53.002995028812393 24.827928045351968 3.3234359454121041 0 -0.84804810408105047 -0.52991925155115449 0.5 0 0 1 I I -0.70710678118654746 0.70710678118654746 0.5 forward I I I I #
loop $-1 $-1 $142 $37 #
coedge $-1 $89 $89 $143 $144 reversed $56 $-1 #
face $-1 $145 $146 $30 $-1 $147 reversed single #
loop $-1 $-1 $148 $58 #
plane-surface $-1 47.924053947655707 -27.74277071140574 1.272980706449971 0 -0.84804810408105047 0.52991925155115449 1 0 0 forward_v I I I I #
coedge $-1 $149 $150 $151 $152 reversed $59 $-1 #
face $-1 $-1 $153 $31 $-1 $154 forward single #
loop $-1 $155 $156 $61 #
cone-surface $-1 47.924053947655707 -23.950970139588538 2.5459130829465852 0 0.84804810408105047 -0.52991925155115449 0.5 0 0 1 I I -0.70710678118654746 0.70710678118654746 0.5 forward I I I I #
loop $-1 $-1 $157 $39 #
coedge $-1 $98 $98 $158 $159 reversed $62 $-1 #
face $-1 $160 $161 $24 $-1 $162 reversed single #
loop $-1 $-1 $163 $64 #
plane-surface $-1 0 -27.74277071140574 0 0 1 0 0 0 1 forward_v I I I I #
coedge $-1 $164 $165 $166 $167 forward $65 $-1 #
coedge $-1 $168 $67 $169 $170 forward $41 $-1 #
coedge $-1 $67 $168 $171 $172 forward $41 $-1 #
coedge $-1 $173 $174 $67 $106 reversed $175 $-1 #
edge $-1 $176 -27.74277071140574 $177 27.74277071140574 $105 $178 forward 7 unknown #
face $-1 $179 $180 $25 $-1 $181 reversed single #
loop $-1 $-1 $113 $68 #
plane-surface $-1 -69.839454325105777 0 1.7024568871187502 0 0 1 1 0 0 forward_v I I I I #
coedge $-1 $182 $183 $112 $184 forward $69 $-1 #
coedge $-1 $185 $71 $186 $187 reversed $44 $-1 #
coedge $-1 $71 $185 $110 $184 reversed $44 $-1 #
coedge $-1 $188 $189 $71 $114 reversed $108 $-1 #
edge $-1 $190 -27.74277071140574 $191 27.74277071140574 $113 $192 forward 7 unknown #
face $-1 $193 $194 $26 $-1 $195 reversed single #
loop $-1 $-1 $196 $72 #
plane-surface $-1 69.132864901174571 0 -0.59017227349057877 0 0 1 1 0 0 forward_v I I I I #
coedge $-1 $197 $198 $120 $199 forward $73 $-1 #
coedge $-1 $200 $75 $201 $202 reversed $47 $-1 #
coedge $-1 $75 $200 $118 $199 reversed $47 $-1 #
coedge $-1 $203 $204 $75 $122 reversed $116 $-1 #
edge $-1 $205 -27.74277071140574 $206 27.74277071140574 $121 $207 forward 7 unknown #
face $-1 $208 $209 $27 $-1 $210 reversed single #
loop $-1 $-1 $211 $76 #
plane-surface $-1 59.09869171930378 109.92292978504622 118.80534940677309 -1 0 0 0 0.84804810408105047 0.52991925155115449 forward_v I I I I #
coedge $-1 $212 $213 $214 $215 reversed $77 $-1 #
coedge $-1 $128 $79 $216 $217 reversed $50 $-1 #
coedge $-1 $79 $127 $212 $218 reversed $50 $-1 #
coedge $-1 $214 $219 $79 $130 forward $220 $-1 #
edge $-1 $221 27.218694181117371 $222 30.021758539820286 $129 $223 forward 7 unknown #
loop $-1 $-1 $136 $80 #
plane-surface $-1 48.431222510943854 -1.6600858712811259 49.080545049719177 0 0.84804810408105047 0.52991925155115449 1 0 0 forward_v I I I I #
loop $-1 $-1 $224 $52 #
coedge $-1 $134 $134 $135 $225 reversed $81 $-1 #
coedge $-1 $135 $135 $134 $225 forward $83 $-1 #
coedge $-1 $136 $136 $84 $137 forward $131 $-1 #
edge $-1 $226 -3.7857745563358083e-016 $226 6.2831853071796004 $136 $227 forward 7 unknown #
loop $-1 $-1 $143 $85 #
plane-surface $-1 48.431222510943854 -1.6600858712811259 49.080545049719177 0 0.84804810408105047 0.52991925155115449 1 0 0 forward_v I I I I #
loop $-1 $-1 $228 $55 #
coedge $-1 $141 $141 $142 $229 reversed $86 $-1 #
coedge $-1 $142 $142 $141 $229 forward $88 $-1 #
coedge $-1 $143 $143 $89 $144 forward $138 $-1 #
edge $-1 $230 -3.7857745563358083e-016 $230 6.2831853071796004 $143 $231 forward 7 unknown #
face $-1 $232 $233 $30 $-1 $234 forward single #
loop $-1 $-1 $235 $90 #
plane-surface $-1 36.749416176007628 -139.32578636773309 70.997785063503883 1 0 0 0 0.84804810408105047 -0.52991925155115449 forward_v I I I I #
coedge $-1 $236 $237 $238 $239 reversed $91 $-1 #
coedge $-1 $150 $93 $240 $241 reversed $59 $-1 #
coedge $-1 $93 $149 $236 $242 reversed $59 $-1 #
coedge $-1 $238 $243 $93 $152 forward $233 $-1 #
edge $-1 $244 41.920122472460804 $245 45.193811001931394 $151 $246 forward 7 unknown #
loop $-1 $-1 $158 $94 #
plane-surface $-1 47.924053947655707 -27.74277071140574 1.272980706449971 0 -0.84804810408105047 0.52991925155115449 1 0 0 forward_v I I I I #
loop $-1 $-1 $247 $61 #
coedge $-1 $156 $156 $157 $248 reversed $95 $-1 #
coedge $-1 $157 $157 $156 $248 forward $97 $-1 #
coedge $-1 $158 $158 $98 $159 forward $153 $-1 #
edge $-1 $249 -3.773963897271505e-016 $249 6.2831853071796004 $158 $250 forward 7 unknown #
face $-1 $251 $252 $24 $-1 $253 reversed single #
loop $-1 $-1 $254 $99 #
plane-surface $-1 -65.788140507217634 0 0 1 0 0 0 0 -1 forward_v I I I I #
coedge $-1 $255 $171 $256 $257 forward $100 $-1 #
coedge $-1 $258 $102 $255 $259 forward $65 $-1 #
coedge $-1 $102 $258 $260 $261 forward $65 $-1 #
coedge $-1 $174 $173 $102 $167 reversed $175 $-1 #
edge $-1 $262 -27.74277071140574 $263 27.74277071140574 $166 $264 forward 7 unknown #
coedge $-1 $104 $103 $265 $266 forward $41 $-1 #
coedge $-1 $267 $268 $103 $170 reversed $252 $-1 #
edge $-1 $177 -65.788140507217634 $269 65.788140507217634 $169 $270 forward 7 unknown #
coedge $-1 $163 $271 $104 $172 reversed $100 $-1 #
edge $-1 $272 -65.788140507217634 $176 65.788140507217634 $171 $273 forward 7 unknown #
coedge $-1 $166 $105 $271 $274 forward $175 $-1 #
coedge $-1 $105 $166 $267 $275 reversed $175 $-1 #
loop $-1 $-1 $173 $251 #
vertex $-1 $106 $276 #
vertex $-1 $106 $277 #
straight-curve $-1 65.788140507217634 0 6.5119776718233275 0 1 0 I I #
face $-1 $278 $279 $25 $-1 $280 reversed single #
loop $-1 $-1 $281 $107 #
plane-surface $-1 -69.839454325105777 0 -1.6573316844413815 0 0 1 1 0 0 forward_v I I I I #
coedge $-1 $282 $110 $283 $284 reversed $69 $-1 #
coedge $-1 $110 $282 $188 $285 reversed $69 $-1 #
edge $-1 $190 -1.7024568871187502 $286 1.6573316844413815 $110 $287 forward 7 unknown #
coedge $-1 $112 $111 $281 $288 forward $44 $-1 #
coedge $-1 $289 $290 $111 $187 forward $291 $-1 #
edge $-1 $292 -1.6573316844413815 $191 1.7024568871187502 $186 $293 forward 7 unknown #
coedge $-1 $294 $113 $183 $285 forward $108 $-1 #
coedge $-1 $113 $294 $289 $295 forward $108 $-1 #
vertex $-1 $184 $296 #
vertex $-1 $295 $297 #
straight-curve $-1 -65.788140507217634 0 1.7024568871187502 0 -1 0 I I #
face $-1 $298 $299 $26 $-1 $300 reversed single #
loop $-1 $-1 $301 $115 #
plane-surface $-1 69.132864901174571 0 -3.5901722734905785 0 0 1 1 0 0 forward_v I I I I #
coedge $-1 $204 $203 $302 $303 forward $116 $-1 #
coedge $-1 $304 $118 $305 $306 reversed $73 $-1 #
coedge $-1 $118 $304 $203 $307 reversed $73 $-1 #
edge $-1 $205 0.59017227349057877 $308 3.5901722734905785 $118 $309 forward 7 unknown #
coedge $-1 $120 $119 $310 $311 forward $47 $-1 #
coedge $-1 $312 $313 $119 $202 forward $314 $-1 #
edge $-1 $315 -3.5901722734905785 $206 -0.59017227349057877 $201 $316 forward 7 unknown #
coedge $-1 $196 $121 $198 $307 forward $116 $-1 #
coedge $-1 $121 $196 $312 $317 forward $116 $-1 #
vertex $-1 $199 $318 #
vertex $-1 $317 $319 #
straight-curve $-1 65.788140507217634 0 -0.59017227349057877 0 1 0 I I #
face $-1 $-1 $220 $27 $-1 $320 forward single #
loop $-1 $-1 $321 $123 #
plane-surface $-1 0 27.74277071140574 0 0 -1 0 0 0 -1 forward_v I I I I #
coedge $-1 $322 $323 $324 $325 reversed $124 $-1 #
coedge $-1 $326 $126 $128 $218 forward $77 $-1 #
coedge $-1 $126 $326 $322 $327 forward $77 $-1 #
coedge $-1 $324 $129 $126 $215 forward $220 $-1 #
edge $-1 $222 13.548142047112002 $328 34.883080463831853 $214 $329 forward 7 unknown #
coedge $-1 $330 $331 $127 $217 forward $209 $-1 #
edge $-1 $332 -57.376537861193277 $221 -52.890697031563221 $216 $333 forward 7 unknown #
edge $-1 $222 50.195934845020822 $332 55.485541422811529 $128 $334 forward 7 unknown #
coedge $-1 $129 $324 $330 $335 forward $220 $-1 #
loop $-1 $-1 $324 $208 #
vertex $-1 $217 $336 #
vertex $-1 $130 $337 #
straight-curve $-1 37.763753302583929 54.961464892523111 6.511977671823324 0 -1 0 I I #
coedge $-1 $224 $224 $-1 $338 reversed $133 $-1 #
edge $-1 $339 0 $339 6.2831853071796004 $134 $340 forward 7 unknown #
vertex $-1 $137 $341 #
ellipse-curve $-1 43.859449993075316 26.341238532054277 4.2690572570083125 0 0.84804810408105047 0.52991925155115449 1 0 0 1 I I #
coedge $-1 $228 $228 $-1 $342 reversed $140 $-1 #
edge $-1 $343 0 $343 6.2831853071796004 $141 $344 forward 7 unknown #
vertex $-1 $144 $345 #
ellipse-curve $-1 53.002995028812393 26.341238532054277 4.2690572570083125 0 0.84804810408105047 0.52991925155115449 1 0 0 1 I I #
face $-1 $-1 $346 $30 $-1 $347 reversed single #
loop $-1 $-1 $151 $145 #
plane-surface $-1 0 0 6.5119776718233275 0 0 1 1 0 0 forward_v I I I I #
coedge $-1 $348 $349 $350 $351 reversed $146 $-1 #
coedge $-1 $352 $148 $150 $242 forward $91 $-1 #
coedge $-1 $148 $352 $348 $353 forward $91 $-1 #
coedge $-1 $350 $151 $148 $239 forward $233 $-1 #
edge $-1 $245 -35.136664745475933 $354 -12.787389202179774 $238 $355 forward 7 unknown #
coedge $-1 $356 $357 $149 $241 forward $346 $-1 #
edge $-1 $358 -34.225911825301971 $244 -28.986914859928614 $240 $359 forward 7 unknown #
edge $-1 $245 -6.1777120191199089 $358 0 $150 $360 forward 7 unknown #
coedge $-1 $151 $350 $356 $361 forward $233 $-1 #
vertex $-1 $241 $362 #
vertex $-1 $152 $363 #
straight-curve $-1 59.098691719303787 -69.662893183866544 6.511977671823324 0 1 0 I I #
coedge $-1 $247 $247 $-1 $364 reversed $155 $-1 #
edge $-1 $365 0 $365 6.2831853071796004 $156 $366 forward 7 unknown #
vertex $-1 $159 $367 #
ellipse-curve $-1 47.924053947655707 -26.105926446670445 3.8924791891366461 0 -0.84804810408105047 0.52991925155115449 1 0 0 1 I I #
face $-1 $-1 $175 $24 $-1 $368 reversed single #
loop $-1 $-1 $267 $160 #
plane-surface $-1 0 27.74277071140574 0 0 -1 0 0 0 -1 forward_v I I I I #
coedge $-1 $369 $265 $268 $370 forward $161 $-1 #
coedge $-1 $271 $163 $164 $259 reversed $100 $-1 #
coedge $-1 $265 $369 $163 $257 reversed $161 $-1 #
edge $-1 $272 -6.5119776718233275 $371 6.5119776718233275 $256 $372 forward 7 unknown #
coedge $-1 $165 $164 $369 $373 forward $65 $-1 #
edge $-1 $263 -65.788140507217634 $371 65.788140507217634 $255 $374 forward 7 unknown #
coedge $-1 $268 $267 $165 $261 reversed $252 $-1 #
edge $-1 $375 -65.788140507217634 $262 65.788140507217634 $260 $376 forward 7 unknown #
vertex $-1 $167 $377 #
vertex $-1 $274 $378 #
straight-curve $-1 65.788140507217634 0 -6.5119776718233275 0 -1 0 I I #
coedge $-1 $254 $256 $168 $266 reversed $161 $-1 #
edge $-1 $269 -27.74277071140574 $272 27.74277071140574 $265 $379 forward 7 unknown #
coedge $-1 $260 $169 $174 $275 forward $252 $-1 #
coedge $-1 $169 $260 $254 $370 reversed $252 $-1 #
vertex $-1 $170 $380 #
straight-curve $-1 0 27.74277071140574 6.5119776718233275 -1 0 0 I I #
coedge $-1 $171 $255 $173 $274 reversed $100 $-1 #
vertex $-1 $266 $381 #
straight-curve $-1 0 -27.74277071140574 6.5119776718233275 1 0 0 I I #
edge $-1 $176 -6.5119776718233275 $263 6.5119776718233275 $173 $382 forward 7 unknown #
edge $-1 $177 -6.5119776718233275 $262 6.5119776718233275 $174 $383 forward 7 unknown #
point $-1 65.788140507217634 -27.74277071140574 6.5119776718233275 #
point $-1 65.788140507217634 27.74277071140574 6.5119776718233275 #
face $-1 $-1 $291 $25 $-1 $384 reversed single #
loop $-1 $-1 $385 $179 #
plane-surface $-1 -73.89076814299392 0 0.022562601338684374 1 0 0 0 0 -1 forward_v I I I I #
coedge $-1 $386 $283 $185 $288 reversed $180 $-1 #
coedge $-1 $183 $182 $385 $387 reversed $69 $-1 #
coedge $-1 $281 $388 $182 $284 forward $180 $-1 #
edge $-1 $389 -4.0513138178881434 $286 4.0513138178881434 $182 $390 forward 7 unknown #
edge $-1 $190 -4.0513138178881434 $391 4.0513138178881434 $183 $392 forward 7 unknown #
vertex $-1 $184 $393 #
straight-curve $-1 -65.788140507217634 27.74277071140574 0 0 0 -1 I I #
edge $-1 $292 -27.74277071140574 $286 27.74277071140574 $281 $394 forward 7 unknown #
coedge $-1 $395 $186 $189 $295 reversed $291 $-1 #
coedge $-1 $186 $395 $386 $396 reversed $291 $-1 #
loop $-1 $-1 $186 $278 #
vertex $-1 $187 $397 #
straight-curve $-1 -65.788140507217634 -27.74277071140574 0 0 0 1 I I #
coedge $-1 $189 $188 $398 $399 forward $108 $-1 #
edge $-1 $400 -4.0513138178881434 $191 4.0513138178881434 $289 $401 forward 7 unknown #
point $-1 -65.788140507217634 27.74277071140574 1.7024568871187502 #
point $-1 -65.788140507217634 -27.74277071140574 1.7024568871187502 #
face $-1 $-1 $314 $26 $-1 $402 reversed single #
loop $-1 $-1 $403 $193 #
plane-surface $-1 72.477589295131494 0 -2.0901722734905785 -1 0 0 0 0 1 forward_v I I I I #
coedge $-1 $305 $404 $405 $406 forward $194 $-1 #
coedge $-1 $403 $407 $196 $303 reversed $299 $-1 #
edge $-1 $408 -27.74277071140574 $409 27.74277071140574 $302 $410 forward 7 unknown #
coedge $-1 $198 $197 $403 $411 reversed $73 $-1 #
coedge $-1 $310 $301 $197 $306 forward $194 $-1 #
edge $-1 $412 -3.3447243939569233 $308 3.3447243939569233 $197 $413 forward 7 unknown #
edge $-1 $205 -3.3447243939569233 $408 3.3447243939569233 $198 $414 forward 7 unknown #
vertex $-1 $199 $415 #
straight-curve $-1 65.788140507217634 -27.74277071140574 0 0 0 -1 I I #
coedge $-1 $404 $305 $200 $311 reversed $194 $-1 #
edge $-1 $315 -27.74277071140574 $308 27.74277071140574 $310 $416 forward 7 unknown #
coedge $-1 $417 $201 $204 $317 reversed $314 $-1 #
coedge $-1 $201 $417 $404 $418 reversed $314 $-1 #
loop $-1 $-1 $201 $298 #
vertex $-1 $202 $419 #
straight-curve $-1 65.788140507217634 27.74277071140574 0 0 0 1 I I #
edge $-1 $409 -3.3447243939569233 $206 3.3447243939569233 $312 $420 forward 7 unknown #
point $-1 65.788140507217648 -27.74277071140574 -0.59017227349057877 #
point $-1 65.788140507217648 27.74277071140574 -0.59017227349057877 #
plane-surface $-1 0 0 6.5119776718233275 0 0 1 1 0 0 forward_v I I I I #
coedge $-1 $331 $330 $323 $421 forward $209 $-1 #
coedge $-1 $323 $211 $213 $327 reversed $124 $-1 #
coedge $-1 $211 $322 $321 $421 reversed $124 $-1 #
coedge $-1 $219 $214 $211 $325 forward $220 $-1 #
edge $-1 $328 -30.021758539820286 $422 -27.218694181117371 $324 $423 forward 7 unknown #
coedge $-1 $213 $212 $331 $424 reversed $77 $-1 #
edge $-1 $425 -55.485541422811529 $328 -50.195934845020822 $322 $426 forward 7 unknown #
vertex $-1 $215 $427 #
straight-curve $-1 24.215611255471927 24.939706352702824 6.5119776718233311 1 0 0 I I #
coedge $-1 $321 $216 $219 $335 reversed $209 $-1 #
coedge $-1 $216 $321 $326 $424 forward $209 $-1 #
vertex $-1 $217 $428 #
straight-curve $-1 37.763753302583929 27.74277071140574 59.402674703386545 0 0 1 I I #
straight-curve $-1 37.763753302583929 -1.6600858712811259 49.080545049719177 0 0.52991925155115449 -0.84804810408105047 I I #
edge $-1 $422 -59.09869171930378 $221 -37.763753302583929 $330 $429 forward 7 unknown #
point $-1 37.763753302583929 27.74277071140574 6.5119776718233275 #
point $-1 37.763753302583929 24.939706352702824 6.5119776718233311 #
edge $-1 $430 1 $430 0 $224 $-1 forward 7 unknown #
vertex $-1 $225 $431 #
ellipse-curve $-1 43.859449993075316 25.251952097392493 3.5883955711876814 0 0.84804810408105047 0.52991925155115449 1 0 0 1 I I #
point $-1 44.859449993075316 26.341238532054295 4.2690572570083241 #
edge $-1 $432 1 $432 0 $228 $-1 forward 7 unknown #
vertex $-1 $229 $433 #
ellipse-curve $-1 53.002995028812393 25.251952097392493 3.5883955711876814 0 0.84804810408105047 0.52991925155115449 1 0 0 1 I I #
point $-1 54.002995028812393 26.341238532054295 4.2690572570083241 #
loop $-1 $-1 $240 $232 #
plane-surface $-1 0 -27.74277071140574 0 0 1 0 0 0 1 forward_v I I I I #
coedge $-1 $349 $235 $237 $353 reversed $146 $-1 #
coedge $-1 $235 $348 $434 $435 reversed $146 $-1 #
coedge $-1 $243 $238 $235 $351 forward $233 $-1 #
edge $-1 $354 -45.193811001931394 $436 -41.920122472460804 $350 $437 forward 7 unknown #
coedge $-1 $237 $236 $357 $438 reversed $91 $-1 #
edge $-1 $439 0 $354 6.1777120191199089 $348 $440 forward 7 unknown #
vertex $-1 $239 $441 #
straight-curve $-1 23.962026973827854 -24.46908218193515 6.5119776718233275 -1 0 0 I I #
coedge $-1 $434 $240 $243 $361 reversed $346 $-1 #
coedge $-1 $240 $434 $352 $438 forward $346 $-1 #
vertex $-1 $241 $442 #
straight-curve $-1 59.098691719303787 -27.74277071140574 35.498892531751942 0 0 1 I I #
straight-curve $-1 59.098691719303787 -27.74277071140574 1.272980706449971 0 -0.52991925155115449 -0.84804810408105047 I I #
edge $-1 $436 36.749416176007628 $244 59.098691719303787 $356 $443 forward 7 unknown #
point $-1 59.098691719303787 -27.74277071140574 6.5119776718233275 #
point $-1 59.098691719303787 -24.469082181935146 6.5119776718233275 #
edge $-1 $444 1 $444 0 $247 $-1 forward 7 unknown #
vertex $-1 $248 $445 #
ellipse-curve $-1 47.924053947655707 -24.374994191629064 2.8108727087221625 0 -0.84804810408105047 0.52991925155115449 1 0 0 1 I I #
point $-1 48.924053947655707 -26.105926446670438 3.8924791891366413 #
plane-surface $-1 65.788140507217634 0 0 -1 0 0 0 0 1 forward_v I I I I #
coedge $-1 $256 $254 $258 $373 reversed $161 $-1 #
edge $-1 $269 -6.5119776718233275 $375 6.5119776718233275 $268 $446 forward 7 unknown #
vertex $-1 $373 $447 #
straight-curve $-1 -65.788140507217634 -27.74277071140574 0 0 0 -1 I I #
edge $-1 $371 -27.74277071140574 $375 27.74277071140574 $369 $448 forward 7 unknown #
straight-curve $-1 0 -27.74277071140574 -6.5119776718233275 -1 0 0 I I #
vertex $-1 $261 $449 #
straight-curve $-1 0 27.74277071140574 -6.5119776718233275 1 0 0 I I #
point $-1 65.788140507217634 27.74277071140574 -6.5119776718233275 #
point $-1 65.788140507217634 -27.74277071140574 -6.5119776718233275 #
straight-curve $-1 -65.788140507217634 0 6.5119776718233275 0 -1 0 I I #
point $-1 -65.788140507217634 27.74277071140574 6.5119776718233275 #
point $-1 -65.788140507217634 -27.74277071140574 6.5119776718233275 #
straight-curve $-1 65.788140507217634 -27.74277071140574 0 0 0 -1 I I #
straight-curve $-1 65.788140507217634 27.74277071140574 0 0 0 -1 I I #
plane-surface $-1 0 -27.74277071140574 0 0 1 0 0 0 1 forward_v I I I I #
coedge $-1 $450 $398 $282 $387 forward $279 $-1 #
coedge $-1 $388 $281 $290 $396 forward $180 $-1 #
edge $-1 $391 -1.6798942857800658 $389 1.6798942857800658 $282 $451 forward 7 unknown #
coedge $-1 $283 $386 $450 $452 forward $180 $-1 #
vertex $-1 $284 $453 #
straight-curve $-1 -69.839454325105777 27.74277071140574 -1.6573316844413815 1 0 0 I I #
vertex $-1 $285 $454 #
straight-curve $-1 -69.839454325105777 27.74277071140574 1.7024568871187502 -1 0 0 I I #
point $-1 -65.788140507217634 27.74277071140574 -1.6573316844413815 #
straight-curve $-1 -65.788140507217634 0 -1.6573316844413815 0 1 0 I I #
coedge $-1 $290 $289 $455 $456 forward $291 $-1 #
edge $-1 $292 -4.0513138178881434 $457 4.0513138178881434 $290 $458 forward 7 unknown #
point $-1 -65.788140507217634 -27.74277071140574 -1.6573316844413815 #
coedge $-1 $385 $455 $294 $399 reversed $279 $-1 #
edge $-1 $391 -27.74277071140574 $400 27.74277071140574 $398 $459 forward 7 unknown #
vertex $-1 $399 $460 #
straight-curve $-1 -69.839454325105777 -27.74277071140574 1.7024568871187502 1 0 0 I I #
plane-surface $-1 0 27.74277071140574 0 0 -1 0 0 0 -1 forward_v I I I I #
coedge $-1 $405 $302 $304 $411 forward $299 $-1 #
coedge $-1 $301 $310 $313 $418 forward $194 $-1 #
coedge $-1 $407 $403 $301 $406 reversed $299 $-1 #
edge $-1 $461 -27.74277071140574 $412 27.74277071140574 $405 $462 forward 7 unknown #
coedge $-1 $302 $405 $417 $463 reversed $299 $-1 #
vertex $-1 $303 $464 #
vertex $-1 $303 $465 #
straight-curve $-1 72.477589295131494 0 -0.59017227349057877 0 1 0 I I #
edge $-1 $408 -1.4999999999999998 $412 1.5 $403 $466 forward 7 unknown #
vertex $-1 $411 $467 #
straight-curve $-1 69.132864901174571 -27.74277071140574 -3.5901722734905785 -1 0 0 I I #
straight-curve $-1 69.132864901174571 -27.74277071140574 -0.59017227349057877 1 0 0 I I #
point $-1 65.788140507217648 -27.74277071140574 -3.5901722734905785 #
straight-curve $-1 65.788140507217634 0 -3.5901722734905785 0 -1 0 I I #
coedge $-1 $313 $312 $407 $463 forward $314 $-1 #
edge $-1 $315 -3.3447243939569233 $461 3.3447243939569233 $313 $468 forward 7 unknown #
point $-1 65.788140507217648 27.74277071140574 -3.5901722734905785 #
straight-curve $-1 69.132864901174571 27.74277071140574 -0.59017227349057877 -1 0 0 I I #
edge $-1 $422 52.890697031563221 $425 57.376537861193277 $321 $469 forward 7 unknown #
vertex $-1 $335 $470 #
straight-curve $-1 59.09869171930378 54.961464892523111 6.511977671823324 0 1 0 I I #
edge $-1 $425 -34.883080463831853 $332 -13.548142047112002 $331 $471 forward 7 unknown #
vertex $-1 $424 $472 #
straight-curve $-1 59.09869171930378 -1.6600858712811259 49.080545049719177 0 -0.52991925155115449 0.84804810408105047 I I #
point $-1 59.09869171930378 24.939706352702824 6.5119776718233311 #
point $-1 37.763753302583929 27.74277071140574 2.0261368421932673 #
straight-curve $-1 0 27.74277071140574 6.5119776718233275 -1 0 0 I I #
vertex $-1 $338 $473 #
point $-1 44.859449993075316 25.251952097392493 3.5883955711876814 #
vertex $-1 $342 $474 #
point $-1 54.002995028812393 25.251952097392493 3.5883955711876814 #
coedge $-1 $357 $356 $349 $435 forward $346 $-1 #
edge $-1 $436 28.986914859928614 $439 34.225911825301971 $434 $475 forward 7 unknown #
vertex $-1 $361 $476 #
straight-curve $-1 36.749416176007628 -69.662893183866544 6.511977671823324 0 -1 0 I I #
edge $-1 $439 12.787389202179774 $358 35.136664745475933 $357 $477 forward 7 unknown #
vertex $-1 $438 $478 #
straight-curve $-1 36.749416176007628 -27.74277071140574 1.272980706449971 0 0.52991925155115449 0.84804810408105047 I I #
point $-1 36.749416176007628 -24.469082181935146 6.5119776718233275 #
point $-1 59.098691719303787 -27.74277071140574 1.272980706449971 #
straight-curve $-1 0 -27.74277071140574 6.5119776718233275 1 0 0 I I #
vertex $-1 $364 $479 #
point $-1 48.924053947655707 -24.374994191629064 2.8108727087221625 #
straight-curve $-1 -65.788140507217634 27.74277071140574 0 0 0 -1 I I #
point $-1 -65.788140507217634 -27.74277071140574 -6.5119776718233275 #
straight-curve $-1 -65.788140507217634 0 -6.5119776718233275 0 1 0 I I #
point $-1 -65.788140507217634 27.74277071140574 -6.5119776718233275 #
coedge $-1 $455 $385 $388 $452 reversed $279 $-1 #
straight-curve $-1 -73.89076814299392 27.74277071140574 0.022562601338684374 0 0 -1 I I #
edge $-1 $457 -27.74277071140574 $389 27.74277071140574 $450 $480 forward 7 unknown #
point $-1 -73.89076814299392 27.74277071140574 -1.6573316844413815 #
point $-1 -73.89076814299392 27.74277071140574 1.7024568871187502 #
coedge $-1 $398 $450 $395 $456 reversed $279 $-1 #
edge $-1 $400 -1.6798942857800658 $457 1.6798942857800658 $455 $481 forward 7 unknown #
vertex $-1 $452 $482 #
straight-curve $-1 -69.839454325105777 -27.74277071140574 -1.6573316844413815 -1 0 0 I I #
straight-curve $-1 -73.89076814299392 0 1.7024568871187502 0 -1 0 I I #
point $-1 -73.89076814299392 -27.74277071140574 1.7024568871187502 #
vertex $-1 $406 $483 #
straight-curve $-1 72.477589295131494 0 -3.5901722734905785 0 -1 0 I I #
edge $-1 $409 -1.4999999999999998 $461 1.5 $407 $484 forward 7 unknown #
point $-1 72.477589295131494 -27.74277071140574 -0.59017227349057877 #
point $-1 72.477589295131494 27.74277071140574 -0.59017227349057877 #
straight-curve $-1 72.477589295131494 -27.74277071140574 -2.0901722734905785 0 0 -1 I I #
point $-1 72.477589295131494 -27.74277071140574 -3.5901722734905785 #
straight-curve $-1 69.132864901174571 27.74277071140574 -3.5901722734905785 1 0 0 I I #
straight-curve $-1 59.09869171930378 27.74277071140574 59.402674703386545 0 0 -1 I I #
point $-1 59.09869171930378 27.74277071140574 6.5119776718233275 #
straight-curve $-1 24.215611255471927 27.74277071140574 2.0261368421932673 -1 0 0 I I #
point $-1 59.09869171930378 27.74277071140574 2.0261368421932673 #
point $-1 43.859449993075316 24.403903993311442 3.0584763196365268 #
point $-1 53.002995028812393 24.403903993311442 3.0584763196365268 #
straight-curve $-1 36.749416176007628 -27.74277071140574 35.498892531751942 0 0 -1 I I #
point $-1 36.749416176007628 -27.74277071140574 6.5119776718233275 #
straight-curve $-1 23.962026973827854 -27.74277071140574 1.2729807064499703 1 0 0 I I #
point $-1 36.749416176007628 -27.74277071140574 1.272980706449971 #
point $-1 47.924053947655707 -23.526946087548012 2.2809534571710079 #
straight-curve $-1 -73.89076814299392 0 -1.6573316844413815 0 1 0 I I #
straight-curve $-1 -73.89076814299392 -27.74277071140574 0.022562601338684374 0 0 -1 I I #
point $-1 -73.89076814299392 -27.74277071140574 -1.6573316844413815 #
point $-1 72.477589295131494 27.74277071140574 -3.5901722734905785 #
straight-curve $-1 72.477589295131494 27.74277071140574 -2.0901722734905785 0 0 -1 I I #
End-of-ACIS-data 