500 0 10 0           
7 Unknown 11 ACIS 5.0 NT 24 Fri Mar 26 14:29:00 1999 
-1 9.9999999999999995e-007 1e-010 
body $-1 $10 $-1 $11 #
body $-1 $12 $-1 $13 #
body $-1 $14 $-1 $15 #
body $-1 $16 $-1 $17 #
body $-1 $18 $-1 $19 #
body $-1 $20 $-1 $21 #
body $-1 $22 $-1 $23 #
body $-1 $24 $-1 $25 #
body $-1 $26 $-1 $27 #
body $-1 $28 $-1 $29 #
lump $-1 $-1 $30 $0 #
transform $-1 1 0 0 0 1 0 0 0 1 63.355204931791128 39.310892469564443 18.30649248580373 1 rotate no_reflect no_shear #
lump $-1 $-1 $31 $1 #
transform $-1 1 0 0 0 1 0 0 0 1 63.355204931791128 39.310892469564443 18.30649248580373 1 rotate no_reflect no_shear #
lump $-1 $-1 $32 $2 #
transform $-1 1 0 0 0 1 0 0 0 1 63.355204931791128 39.310892469564443 18.30649248580373 1 rotate no_reflect no_shear #
lump $-1 $-1 $33 $3 #
transform $-1 1 0 0 0 1 0 0 0 1 63.355204931791128 39.310892469564443 18.30649248580373 1 rotate no_reflect no_shear #
lump $-1 $-1 $34 $4 #
transform $-1 1 0 0 0 1 0 0 0 1 63.355204931791128 39.310892469564443 18.30649248580373 1 rotate no_reflect no_shear #
lump $-1 $-1 $35 $5 #
transform $-1 1 0 0 0 1 0 0 0 1 63.355204931791128 39.310892469564443 18.30649248580373 1 rotate no_reflect no_shear #
lump $-1 $-1 $36 $6 #
transform $-1 1 0 0 0 1 0 0 0 1 63.355204931791128 39.310892469564443 18.30649248580373 1 rotate no_reflect no_shear #
lump $-1 $-1 $37 $7 #
transform $-1 1 0 0 0 1 0 0 0 1 63.355204931791128 39.310892469564443 18.30649248580373 1 rotate no_reflect no_shear #
lump $-1 $-1 $38 $8 #
transform $-1 1 0 0 0 1 0 0 0 1 63.355204931791128 39.310892469564443 18.30649248580373 1 rotate no_reflect no_shear #
lump $-1 $-1 $39 $9 #
transform $-1 1 0 0 0 1 0 0 0 1 63.355204931791128 39.310892469564443 18.30649248580373 1 rotate no_reflect no_shear #
shell $-1 $-1 $-1 $40 $-1 $10 #
shell $-1 $-1 $-1 $41 $-1 $12 #
shell $-1 $-1 $-1 $42 $-1 $14 #
shell $-1 $-1 $-1 $43 $-1 $16 #
shell $-1 $-1 $-1 $44 $-1 $18 #
shell $-1 $-1 $-1 $45 $-1 $20 #
shell $-1 $-1 $-1 $46 $-1 $22 #
shell $-1 $-1 $-1 $47 $-1 $24 #
shell $-1 $-1 $-1 $48 $-1 $26 #
shell $-1 $-1 $-1 $49 $-1 $28 #
face $-1 $50 $51 $30 $-1 $52 forward single #
face $-1 $53 $54 $31 $-1 $55 forward single #
face $-1 $56 $57 $32 $-1 $58 reversed single #
face $-1 $59 $60 $33 $-1 $61 forward single #
face $-1 $62 $63 $34 $-1 $64 forward single #
face $-1 $65 $66 $35 $-1 $67 reversed single #
face $-1 $68 $69 $36 $-1 $70 forward single #
face $-1 $71 $72 $37 $-1 $73 forward single #
face $-1 $74 $75 $38 $-1 $76 reversed single #
face $-1 $77 $78 $39 $-1 $79 forward single #
face $-1 $80 $81 $30 $-1 $82 reversed single #
loop $-1 $-1 $83 $40 #
plane-surface $-1 0 0 18.30649248580373 0 0 1 1 0 0 forward_v I I I I #
face $-1 $84 $85 $31 $-1 $86 reversed single #
loop $-1 $-1 $87 $41 #
plane-surface $-1 0 -29.374266679137804 -7.5650670934712103 0 0 1 1 0 0 forward_v I I I I #
face $-1 $88 $89 $32 $-1 $90 reversed single #
loop $-1 $-1 $91 $42 #
plane-surface $-1 88.294411920754754 -7.3012113016979541 180.06759619600564 0 -1 0 -0.79863551827123203 0 -0.60181501223851219 forward_v I I I I #
face $-1 $92 $93 $33 $-1 $94 forward single #
loop $-1 $95 $96 $43 #
cone-surface $-1 56.415949472895875 -15.970089578135962 9.687001845851599 -0.79863551827123203 0 -0.60181501223851219 0.60181501223851219 0 -0.79863551827123203 1 I I 0 1 1 forward I I I I #
face $-1 $97 $98 $34 $-1 $99 forward single #
loop $-1 $100 $101 $44 #
cone-surface $-1 56.415949472895875 -10.768762612273157 9.687001845851599 -0.79863551827123203 0 -0.60181501223851219 0.60181501223851219 0 -0.79863551827123203 1 I I 0 1 1 forward I I I I #
face $-1 $102 $103 $35 $-1 $104 reversed single #
loop $-1 $-1 $105 $45 #
plane-surface $-1 88.294411920754754 22.073055377439843 180.06759619600564 0 -1 0 -0.79863551827123203 0 -0.60181501223851219 forward_v I I I I #
face $-1 $106 $107 $36 $-1 $108 forward single #
loop $-1 $109 $110 $46 #
cone-surface $-1 56.415949472895875 13.404177101001842 9.687001845851599 -0.79863551827123203 0 -0.60181501223851219 0.60181501223851219 0 -0.79863551827123203 1 I I 0 1 1 forward I I I I #
face $-1 $111 $112 $37 $-1 $113 forward single #
loop $-1 $114 $115 $47 #
cone-surface $-1 56.415949472895875 18.605504066864647 9.687001845851599 -0.79863551827123203 0 -0.60181501223851219 0.60181501223851219 0 -0.79863551827123203 1 I I 0 1 1 forward I I I I #
face $-1 $116 $117 $38 $-1 $118 reversed single #
loop $-1 $-1 $119 $48 #
plane-surface $-1 -137.83371611304966 29.162634155788545 113.37354633923984 0 1 0 -0.5877852598018023 0 0.80901698891910034 forward_v I I I I #
face $-1 $120 $121 $39 $-1 $122 forward single #
loop $-1 $123 $124 $49 #
cone-surface $-1 -57.338097257388739 34.236763312676494 13.353631840565432 0.5877852598018023 0 -0.80901698891910034 1.2135254833786506 0 0.88167788970270344 1 I I 0 1 1.5 forward I I I I #
face $-1 $125 $126 $30 $-1 $127 reversed single #
loop $-1 $-1 $128 $50 #
plane-surface $-1 0 0 -18.30649248580373 0 0 1 1 0 0 forward_v I I I I #
coedge $-1 $129 $130 $131 $132 forward $51 $-1 #
face $-1 $133 $134 $31 $-1 $135 reversed single #
loop $-1 $-1 $136 $53 #
plane-surface $-1 0 -19.437640888711165 -12.93577978963747 0 -1 0 0 0 -1 forward_v I I I I #
coedge $-1 $137 $138 $139 $140 reversed $54 $-1 #
face $-1 $141 $142 $32 $-1 $143 reversed single #
loop $-1 $-1 $144 $56 #
plane-surface $-1 -12.901021931007506 -13.36942609520456 103.81136933320698 0.79863551827123203 0 0.60181501223851219 0.60181501223851219 0 -0.79863551827123203 forward_v I I I I #
coedge $-1 $145 $146 $147 $148 reversed $57 $-1 #
face $-1 $-1 $149 $33 $-1 $150 forward single #
loop $-1 $151 $152 $59 #
cone-surface $-1 54.989217476282114 -15.970089578135962 8.6118822019597019 -0.79863551827123203 0 -0.60181501223851219 0.3009075061192561 0 -0.39931775913561601 1 I I -0.70710678118654746 0.70710678118654746 0.5 forward I I I I #
loop $-1 $-1 $153 $43 #
coedge $-1 $96 $96 $154 $155 reversed $60 $-1 #
face $-1 $-1 $156 $34 $-1 $157 forward single #
loop $-1 $158 $159 $62 #
cone-surface $-1 54.989217476282114 -10.768762612273157 8.6118822019597019 -0.79863551827123203 0 -0.60181501223851219 0.3009075061192561 0 -0.39931775913561601 1 I I -0.70710678118654746 0.70710678118654746 0.5 forward I I I I #
loop $-1 $-1 $160 $44 #
coedge $-1 $101 $101 $161 $162 reversed $63 $-1 #
face $-1 $163 $164 $35 $-1 $165 reversed single #
loop $-1 $-1 $166 $65 #
plane-surface $-1 -12.901021931007506 16.004840583933237 103.81136933320698 0.79863551827123203 0 0.60181501223851219 0.60181501223851219 0 -0.79863551827123203 forward_v I I I I #
coedge $-1 $167 $168 $169 $170 reversed $66 $-1 #
face $-1 $-1 $171 $36 $-1 $172 forward single #
loop $-1 $173 $174 $68 #
cone-surface $-1 54.989217476282114 13.404177101001842 8.6118822019597019 -0.79863551827123203 0 -0.60181501223851219 0.3009075061192561 0 -0.39931775913561601 1 I I -0.70710678118654746 0.70710678118654746 0.5 forward I I I I #
loop $-1 $-1 $175 $46 #
coedge $-1 $110 $110 $176 $177 reversed $69 $-1 #
face $-1 $-1 $178 $37 $-1 $179 forward single #
loop $-1 $180 $181 $71 #
cone-surface $-1 54.989217476282114 18.605504066864647 8.6118822019597019 -0.79863551827123203 0 -0.60181501223851219 0.3009075061192561 0 -0.39931775913561601 1 I I -0.70710678118654746 0.70710678118654746 0.5 forward I I I I #
loop $-1 $-1 $182 $47 #
coedge $-1 $115 $115 $183 $184 reversed $72 $-1 #
face $-1 $185 $186 $38 $-1 $187 reversed single #
loop $-1 $-1 $188 $74 #
plane-surface $-1 -63.355204931791107 34.236763312676494 10.862672086699448 -0.5877852598018023 0 0.80901698891910034 0.80901698891910034 0 0.5877852598018023 forward_v I I I I #
coedge $-1 $189 $190 $191 $192 reversed $75 $-1 #
face $-1 $-1 $193 $39 $-1 $194 forward single #
loop $-1 $195 $196 $77 #
cone-surface $-1 -56.00292044642228 34.236763312676494 11.51591865318996 0.5877852598018023 0 -0.80901698891910034 0.60676274168932531 0 0.44083894485135172 1 I I -0.70710678118654668 0.70710678118654835 0.75 forward I I I I #
loop $-1 $-1 $197 $49 #
coedge $-1 $124 $124 $198 $199 reversed $78 $-1 #
face $-1 $200 $201 $30 $-1 $202 reversed single #
loop $-1 $-1 $203 $80 #
plane-surface $-1 0 -39.310892469564443 0 0 1 0 0 0 1 forward_v I I I I #
coedge $-1 $204 $205 $206 $207 forward $81 $-1 #
coedge $-1 $208 $83 $209 $210 forward $51 $-1 #
coedge $-1 $83 $208 $211 $212 forward $51 $-1 #
coedge $-1 $213 $214 $83 $132 reversed $215 $-1 #
edge $-1 $216 -39.310892469564443 $217 39.310892469564443 $131 $218 forward 7 unknown #
face $-1 $219 $220 $31 $-1 $221 reversed single #
loop $-1 $-1 $222 $84 #
plane-surface $-1 0 0 -18.30649248580373 0 0 1 1 0 0 forward_v I I I I #
coedge $-1 $223 $224 $225 $226 reversed $85 $-1 #
coedge $-1 $227 $87 $224 $228 forward $54 $-1 #
coedge $-1 $87 $227 $229 $230 reversed $54 $-1 #
coedge $-1 $231 $225 $87 $140 forward $220 $-1 #
edge $-1 $232 4.750507549142263 $233 24.623759129995541 $139 $234 forward 7 unknown #
face $-1 $235 $236 $32 $-1 $237 reversed single #
loop $-1 $-1 $238 $88 #
plane-surface $-1 88.294411920754754 -19.437640888711165 180.06759619600564 0 1 0 0.79863551827123203 0 0.60181501223851219 forward_v I I I I #
coedge $-1 $239 $240 $241 $242 reversed $89 $-1 #
coedge $-1 $146 $91 $243 $244 reversed $57 $-1 #
coedge $-1 $91 $145 $239 $245 reversed $57 $-1 #
coedge $-1 $241 $246 $91 $148 forward $247 $-1 #
edge $-1 $248 -19.207998971413751 $249 -7.3843165285795322 $147 $250 forward 7 unknown #
loop $-1 $-1 $154 $92 #
plane-surface $-1 -12.901021931007506 -13.36942609520456 103.81136933320698 0.79863551827123203 0 0.60181501223851219 0.60181501223851219 0 -0.79863551827123203 forward_v I I I I #
loop $-1 $-1 $251 $59 #
coedge $-1 $152 $152 $153 $252 reversed $93 $-1 #
coedge $-1 $153 $153 $152 $252 forward $95 $-1 #
coedge $-1 $154 $154 $96 $155 forward $149 $-1 #
edge $-1 $253 0 $253 6.2831853071796004 $154 $254 forward 7 unknown #
loop $-1 $-1 $161 $97 #
plane-surface $-1 -12.901021931007506 -13.36942609520456 103.81136933320698 0.79863551827123203 0 0.60181501223851219 0.60181501223851219 0 -0.79863551827123203 forward_v I I I I #
loop $-1 $-1 $255 $62 #
coedge $-1 $159 $159 $160 $256 reversed $98 $-1 #
coedge $-1 $160 $160 $159 $256 forward $100 $-1 #
coedge $-1 $161 $161 $101 $162 forward $156 $-1 #
edge $-1 $257 0 $257 6.2831853071796004 $161 $258 forward 7 unknown #
face $-1 $259 $260 $35 $-1 $261 reversed single #
loop $-1 $-1 $262 $102 #
plane-surface $-1 88.294411920754754 9.936625790426632 180.06759619600564 0 1 0 0.79863551827123203 0 0.60181501223851219 forward_v I I I I #
coedge $-1 $263 $264 $265 $266 reversed $103 $-1 #
coedge $-1 $168 $105 $267 $268 reversed $66 $-1 #
coedge $-1 $105 $167 $263 $269 reversed $66 $-1 #
coedge $-1 $265 $270 $105 $170 forward $271 $-1 #
edge $-1 $272 -19.207998971413751 $273 -7.3843165285795322 $169 $274 forward 7 unknown #
loop $-1 $-1 $176 $106 #
plane-surface $-1 -12.901021931007506 16.004840583933237 103.81136933320698 0.79863551827123203 0 0.60181501223851219 0.60181501223851219 0 -0.79863551827123203 forward_v I I I I #
loop $-1 $-1 $275 $68 #
coedge $-1 $174 $174 $175 $276 reversed $107 $-1 #
coedge $-1 $175 $175 $174 $276 forward $109 $-1 #
coedge $-1 $176 $176 $110 $177 forward $171 $-1 #
edge $-1 $277 0 $277 6.2831853071796004 $176 $278 forward 7 unknown #
loop $-1 $-1 $183 $111 #
plane-surface $-1 -12.901021931007506 16.004840583933237 103.81136933320698 0.79863551827123203 0 0.60181501223851219 0.60181501223851219 0 -0.79863551827123203 forward_v I I I I #
loop $-1 $-1 $279 $71 #
coedge $-1 $181 $181 $182 $280 reversed $112 $-1 #
coedge $-1 $182 $182 $181 $280 forward $114 $-1 #
coedge $-1 $183 $183 $115 $184 forward $178 $-1 #
edge $-1 $281 0 $281 6.2831853071796004 $183 $282 forward 7 unknown #
face $-1 $283 $284 $38 $-1 $285 reversed single #
loop $-1 $-1 $286 $116 #
plane-surface $-1 0 39.310892469564443 0 0 -1 0 0 0 -1 forward_v I I I I #
coedge $-1 $287 $288 $289 $290 reversed $117 $-1 #
coedge $-1 $190 $119 $291 $292 reversed $75 $-1 #
coedge $-1 $119 $189 $287 $293 reversed $75 $-1 #
coedge $-1 $289 $294 $119 $192 forward $295 $-1 #
edge $-1 $296 5.5616531247337022 $297 15.807192741308263 $191 $298 forward 7 unknown #
loop $-1 $-1 $198 $120 #
plane-surface $-1 -63.355204931791107 34.236763312676494 10.862672086699448 -0.5877852598018023 0 0.80901698891910034 0.80901698891910034 0 0.5877852598018023 forward_v I I I I #
loop $-1 $-1 $299 $77 #
coedge $-1 $196 $196 $197 $300 reversed $121 $-1 #
coedge $-1 $197 $197 $196 $300 forward $123 $-1 #
coedge $-1 $198 $198 $124 $199 forward $193 $-1 #
edge $-1 $301 0 $301 6.2831853071796004 $198 $302 forward 7 unknown #
face $-1 $303 $304 $30 $-1 $305 reversed single #
loop $-1 $-1 $306 $125 #
plane-surface $-1 -63.355204931791128 0 0 1 0 0 0 0 -1 forward_v I I I I #
coedge $-1 $307 $211 $308 $309 forward $126 $-1 #
coedge $-1 $310 $128 $307 $311 forward $81 $-1 #
coedge $-1 $128 $310 $312 $313 forward $81 $-1 #
coedge $-1 $214 $213 $128 $207 reversed $215 $-1 #
edge $-1 $314 -39.310892469564443 $315 39.310892469564443 $206 $316 forward 7 unknown #
coedge $-1 $130 $129 $317 $318 forward $51 $-1 #
coedge $-1 $319 $320 $129 $210 reversed $304 $-1 #
edge $-1 $217 -63.355204931791128 $321 63.355204931791128 $209 $322 forward 7 unknown #
coedge $-1 $203 $323 $130 $212 reversed $126 $-1 #
edge $-1 $324 -63.355204931791128 $216 63.355204931791128 $211 $325 forward 7 unknown #
coedge $-1 $206 $131 $323 $326 forward $215 $-1 #
coedge $-1 $131 $206 $319 $327 reversed $215 $-1 #
loop $-1 $-1 $213 $303 #
vertex $-1 $132 $328 #
vertex $-1 $132 $329 #
straight-curve $-1 63.355204931791128 0 18.30649248580373 0 1 0 I I #
face $-1 $330 $331 $31 $-1 $332 reversed single #
loop $-1 $-1 $225 $133 #
plane-surface $-1 63.355204931791128 0 0 -1 0 0 0 0 1 forward_v I I I I #
coedge $-1 $333 $334 $223 $335 forward $134 $-1 #
coedge $-1 $336 $136 $222 $335 reversed $85 $-1 #
coedge $-1 $136 $336 $137 $228 reversed $85 $-1 #
coedge $-1 $139 $337 $136 $226 forward $220 $-1 #
edge $-1 $338 -11.838602590984994 $232 -1.0971771986524752 $225 $339 forward 7 unknown #
coedge $-1 $138 $137 $340 $341 reversed $54 $-1 #
edge $-1 $232 -63.355204931791128 $342 63.355204931791128 $224 $343 forward 7 unknown #
coedge $-1 $344 $345 $138 $230 forward $331 $-1 #
edge $-1 $233 -63.355204931791128 $346 63.355204931791128 $229 $347 forward 7 unknown #
coedge $-1 $337 $139 $345 $348 forward $220 $-1 #
vertex $-1 $140 $349 #
vertex $-1 $348 $350 #
straight-curve $-1 63.355204931791128 -14.687133339568902 -7.5650670934712103 0 -1 0 I I #
face $-1 $-1 $247 $32 $-1 $351 forward single #
loop $-1 $-1 $352 $141 #
plane-surface $-1 63.355204931791128 0 0 -1 0 0 0 0 1 forward_v I I I I #
coedge $-1 $353 $354 $355 $356 reversed $142 $-1 #
coedge $-1 $357 $144 $146 $245 forward $89 $-1 #
coedge $-1 $144 $357 $353 $358 forward $89 $-1 #
coedge $-1 $355 $147 $144 $242 forward $247 $-1 #
edge $-1 $249 0.61649825409567427 $359 12.752927841108885 $241 $360 forward 7 unknown #
coedge $-1 $361 $362 $145 $244 forward $236 $-1 #
edge $-1 $363 -87.417862616558054 $248 -71.727305612199089 $243 $364 forward 7 unknown #
edge $-1 $249 107.06370414440313 $363 126.71040986358221 $146 $365 forward 7 unknown #
coedge $-1 $147 $355 $361 $366 forward $247 $-1 #
loop $-1 $-1 $355 $235 #
vertex $-1 $244 $367 #
vertex $-1 $148 $368 #
straight-curve $-1 44.147205960377377 -7.3012113016979541 18.30649248580373 -1 0 0 I I #
coedge $-1 $251 $251 $-1 $369 reversed $151 $-1 #
edge $-1 $370 0 $370 6.2831853071796004 $152 $371 forward 7 unknown #
vertex $-1 $155 $372 #
ellipse-curve $-1 57.443363710374022 -15.970089578135962 10.461213983624244 0.79863551827123203 0 0.60181501223851219 0.60181501223851219 0 -0.79863551827123203 1 I I #
coedge $-1 $255 $255 $-1 $373 reversed $158 $-1 #
edge $-1 $374 0 $374 6.2831853071796004 $159 $375 forward 7 unknown #
vertex $-1 $162 $376 #
ellipse-curve $-1 57.443363710374022 -10.768762612273157 10.461213983624244 0.79863551827123203 0 0.60181501223851219 0.60181501223851219 0 -0.79863551827123203 1 I I #
face $-1 $-1 $271 $35 $-1 $377 forward single #
loop $-1 $-1 $378 $163 #
plane-surface $-1 63.355204931791128 0 0 -1 0 0 0 0 1 forward_v I I I I #
coedge $-1 $379 $380 $381 $382 reversed $164 $-1 #
coedge $-1 $383 $166 $168 $269 forward $103 $-1 #
coedge $-1 $166 $383 $379 $384 forward $103 $-1 #
coedge $-1 $381 $169 $166 $266 forward $271 $-1 #
edge $-1 $273 -14.070635085473224 $385 -1.9342054984600132 $265 $386 forward 7 unknown #
coedge $-1 $387 $388 $167 $268 forward $260 $-1 #
edge $-1 $389 -87.417862616558054 $272 -71.727305612199089 $267 $390 forward 7 unknown #
edge $-1 $273 107.06370414440313 $389 126.71040986358221 $168 $391 forward 7 unknown #
coedge $-1 $169 $381 $387 $392 forward $271 $-1 #
loop $-1 $-1 $381 $259 #
vertex $-1 $268 $393 #
vertex $-1 $170 $394 #
straight-curve $-1 44.147205960377377 22.073055377439843 18.30649248580373 -1 0 0 I I #
coedge $-1 $275 $275 $-1 $395 reversed $173 $-1 #
edge $-1 $396 0 $396 6.2831853071796004 $174 $397 forward 7 unknown #
vertex $-1 $177 $398 #
ellipse-curve $-1 57.443363710374022 13.404177101001842 10.461213983624244 0.79863551827123203 0 0.60181501223851219 0.60181501223851219 0 -0.79863551827123203 1 I I #
coedge $-1 $279 $279 $-1 $399 reversed $180 $-1 #
edge $-1 $400 0 $400 6.2831853071796004 $181 $401 forward 7 unknown #
vertex $-1 $184 $402 #
ellipse-curve $-1 57.443363710374022 18.605504066864647 10.461213983624244 0.79863551827123203 0 0.60181501223851219 0.60181501223851219 0 -0.79863551827123203 1 I I #
face $-1 $-1 $295 $38 $-1 $403 forward single #
loop $-1 $-1 $404 $185 #
plane-surface $-1 -63.355204931791128 0 0 1 0 0 0 0 -1 forward_v I I I I #
coedge $-1 $405 $406 $288 $407 forward $186 $-1 #
coedge $-1 $408 $188 $190 $293 forward $117 $-1 #
coedge $-1 $188 $408 $286 $407 reversed $117 $-1 #
coedge $-1 $409 $191 $188 $290 forward $295 $-1 #
edge $-1 $297 12.044252499450298 $410 22.192510813226196 $289 $411 forward 7 unknown #
coedge $-1 $412 $404 $189 $292 forward $284 $-1 #
edge $-1 $413 -45.824101082920485 $296 -38.380280683816189 $291 $414 forward 7 unknown #
edge $-1 $297 -12.664183517657953 $413 2.6642281634617552e-014 $190 $415 forward 7 unknown #
coedge $-1 $191 $409 $412 $416 forward $295 $-1 #
loop $-1 $-1 $289 $283 #
vertex $-1 $292 $417 #
vertex $-1 $192 $418 #
straight-curve $-1 -68.916858056524831 29.162634155788545 18.30649248580373 1 0 0 I I #
coedge $-1 $299 $299 $-1 $419 reversed $195 $-1 #
edge $-1 $420 0 $420 6.2831853071796004 $196 $421 forward 7 unknown #
vertex $-1 $199 $422 #
ellipse-curve $-1 -58.232435123503848 34.236763312676494 14.584582286251582 -0.5877852598018023 0 0.80901698891910034 1.2135254833786506 0 0.88167788970270344 1 I I #
face $-1 $-1 $215 $30 $-1 $423 reversed single #
loop $-1 $-1 $319 $200 #
plane-surface $-1 0 39.310892469564443 0 0 -1 0 0 0 -1 forward_v I I I I #
coedge $-1 $424 $317 $320 $425 forward $201 $-1 #
coedge $-1 $323 $203 $204 $311 reversed $126 $-1 #
coedge $-1 $317 $424 $203 $309 reversed $201 $-1 #
edge $-1 $324 -18.30649248580373 $426 18.30649248580373 $308 $427 forward 7 unknown #
coedge $-1 $205 $204 $424 $428 forward $81 $-1 #
edge $-1 $315 -63.355204931791128 $426 63.355204931791128 $307 $429 forward 7 unknown #
coedge $-1 $320 $319 $205 $313 reversed $304 $-1 #
edge $-1 $430 -63.355204931791128 $314 63.355204931791128 $312 $431 forward 7 unknown #
vertex $-1 $207 $432 #
vertex $-1 $326 $433 #
straight-curve $-1 63.355204931791128 0 -18.30649248580373 0 -1 0 I I #
coedge $-1 $306 $308 $208 $318 reversed $201 $-1 #
edge $-1 $321 -39.310892469564443 $324 39.310892469564443 $317 $434 forward 7 unknown #
coedge $-1 $312 $209 $214 $327 forward $304 $-1 #
coedge $-1 $209 $312 $306 $425 reversed $304 $-1 #
vertex $-1 $210 $435 #
straight-curve $-1 0 39.310892469564443 18.30649248580373 -1 0 0 I I #
coedge $-1 $211 $307 $213 $326 reversed $126 $-1 #
vertex $-1 $318 $436 #
straight-curve $-1 0 -39.310892469564443 18.30649248580373 1 0 0 I I #
edge $-1 $216 -18.30649248580373 $315 18.30649248580373 $213 $437 forward 7 unknown #
edge $-1 $217 -18.30649248580373 $314 18.30649248580373 $214 $438 forward 7 unknown #
point $-1 63.355204931791128 -39.310892469564443 18.30649248580373 #
point $-1 63.355204931791128 39.310892469564443 18.30649248580373 #
face $-1 $-1 $439 $31 $-1 $440 reversed single #
loop $-1 $-1 $229 $219 #
plane-surface $-1 0 -39.310892469564443 0 0 1 0 0 0 1 forward_v I I I I #
coedge $-1 $441 $222 $337 $442 forward $134 $-1 #
coedge $-1 $222 $441 $443 $444 forward $134 $-1 #
edge $-1 $445 -63.355204931791128 $338 63.355204931791128 $222 $446 forward 7 unknown #
coedge $-1 $224 $223 $447 $448 reversed $85 $-1 #
coedge $-1 $225 $231 $333 $442 reversed $220 $-1 #
vertex $-1 $442 $449 #
straight-curve $-1 63.355204931791128 -19.437640888711165 -6.4678898948187351 0 0 1 I I #
coedge $-1 $447 $450 $227 $341 forward $439 $-1 #
edge $-1 $346 -24.623759129995541 $342 -4.750507549142263 $340 $451 forward 7 unknown #
vertex $-1 $341 $452 #
straight-curve $-1 0 -19.437640888711165 -7.5650670934712103 -1 0 0 I I #
coedge $-1 $453 $229 $450 $454 forward $331 $-1 #
coedge $-1 $229 $453 $231 $348 reversed $331 $-1 #
vertex $-1 $454 $455 #
straight-curve $-1 0 -39.310892469564443 -7.5650670934712103 -1 0 0 I I #
edge $-1 $233 7.5650670934712103 $456 18.30649248580373 $231 $457 forward 7 unknown #
point $-1 63.355204931791128 -19.437640888711165 -7.5650670934712103 #
point $-1 63.355204931791128 -39.310892469564443 -7.5650670934712103 #
plane-surface $-1 0 0 18.30649248580373 0 0 1 1 0 0 forward_v I I I I #
coedge $-1 $362 $361 $354 $458 forward $236 $-1 #
coedge $-1 $354 $238 $240 $358 reversed $142 $-1 #
coedge $-1 $238 $353 $352 $458 reversed $142 $-1 #
coedge $-1 $246 $241 $238 $356 forward $247 $-1 #
edge $-1 $359 7.3843165285795322 $459 19.207998971413751 $355 $460 forward 7 unknown #
coedge $-1 $240 $239 $362 $461 reversed $89 $-1 #
edge $-1 $462 -126.71040986358221 $359 -107.06370414440313 $353 $463 forward 7 unknown #
vertex $-1 $242 $464 #
straight-curve $-1 51.531522488956909 -6.6847130476022798 18.30649248580373 0 -1 0 I I #
coedge $-1 $352 $243 $246 $366 reversed $236 $-1 #
coedge $-1 $243 $352 $357 $461 forward $236 $-1 #
vertex $-1 $244 $465 #
straight-curve $-1 63.355204931791128 -7.3012113016979541 90.033798098002819 0 0 1 I I #
straight-curve $-1 -12.901021931007506 -7.3012113016979541 103.81136933320698 0.60181501223851219 0 -0.79863551827123203 I I #
edge $-1 $459 -19.437640888711165 $248 -7.3012113016979541 $361 $466 forward 7 unknown #
point $-1 63.355204931791128 -7.3012113016979541 18.30649248580373 #
point $-1 51.531522488956909 -7.3012113016979541 18.30649248580373 #
edge $-1 $467 1 $467 0 $251 $-1 forward 7 unknown #
vertex $-1 $252 $468 #
ellipse-curve $-1 55.388535235417727 -15.970089578135962 8.9127897080789573 0.79863551827123203 0 0.60181501223851219 0.60181501223851219 0 -0.79863551827123203 1 I I #
point $-1 58.045178722612533 -15.970089578135962 9.6625784653530076 #
edge $-1 $469 1 $469 0 $255 $-1 forward 7 unknown #
vertex $-1 $256 $470 #
ellipse-curve $-1 55.388535235417727 -10.768762612273157 8.9127897080789573 0.79863551827123203 0 0.60181501223851219 0.60181501223851219 0 -0.79863551827123203 1 I I #
point $-1 58.045178722612533 -10.768762612273157 9.6625784653530076 #
plane-surface $-1 0 0 18.30649248580373 0 0 1 1 0 0 forward_v I I I I #
coedge $-1 $388 $387 $380 $471 forward $260 $-1 #
coedge $-1 $380 $262 $264 $384 reversed $164 $-1 #
coedge $-1 $262 $379 $378 $471 reversed $164 $-1 #
coedge $-1 $270 $265 $262 $382 forward $271 $-1 #
edge $-1 $385 7.3843165285795322 $472 19.207998971413751 $381 $473 forward 7 unknown #
coedge $-1 $264 $263 $388 $474 reversed $103 $-1 #
edge $-1 $475 -126.71040986358221 $385 -107.06370414440313 $379 $476 forward 7 unknown #
vertex $-1 $266 $477 #
straight-curve $-1 51.531522488956909 8.0024202919666187 18.30649248580373 0 -1 0 I I #
coedge $-1 $378 $267 $270 $392 reversed $260 $-1 #
coedge $-1 $267 $378 $383 $474 forward $260 $-1 #
vertex $-1 $268 $478 #
straight-curve $-1 63.355204931791128 22.073055377439843 90.033798098002819 0 0 1 I I #
straight-curve $-1 -12.901021931007506 22.073055377439843 103.81136933320698 0.60181501223851219 0 -0.79863551827123203 I I #
edge $-1 $472 9.936625790426632 $272 22.073055377439843 $387 $479 forward 7 unknown #
point $-1 63.355204931791128 22.073055377439843 18.30649248580373 #
point $-1 51.531522488956909 22.073055377439843 18.30649248580373 #
edge $-1 $480 1 $480 0 $275 $-1 forward 7 unknown #
vertex $-1 $276 $481 #
ellipse-curve $-1 55.388535235417727 13.404177101001842 8.9127897080789573 0.79863551827123203 0 0.60181501223851219 0.60181501223851219 0 -0.79863551827123203 1 I I #
point $-1 58.045178722612533 13.404177101001842 9.6625784653530076 #
edge $-1 $482 1 $482 0 $279 $-1 forward 7 unknown #
vertex $-1 $280 $483 #
ellipse-curve $-1 55.388535235417727 18.605504066864647 8.9127897080789573 0.79863551827123203 0 0.60181501223851219 0.60181501223851219 0 -0.79863551827123203 1 I I #
point $-1 58.045178722612533 18.605504066864647 9.6625784653530076 #
plane-surface $-1 0 0 18.30649248580373 0 0 1 1 0 0 forward_v I I I I #
coedge $-1 $291 $484 $408 $485 forward $284 $-1 #
coedge $-1 $406 $286 $484 $486 reversed $186 $-1 #
coedge $-1 $286 $405 $409 $487 reversed $186 $-1 #
edge $-1 $410 9.7710757781659261 $488 22.435259295823908 $286 $489 forward 7 unknown #
coedge $-1 $288 $287 $404 $485 reversed $117 $-1 #
coedge $-1 $294 $289 $406 $487 forward $295 $-1 #
vertex $-1 $487 $490 #
straight-curve $-1 -53.109665315216567 17.118381656338247 18.30649248580373 0 1 0 I I #
coedge $-1 $484 $291 $294 $416 reversed $284 $-1 #
vertex $-1 $292 $491 #
straight-curve $-1 -63.355204931791128 29.162634155788545 56.686773169619919 0 0 1 I I #
straight-curve $-1 -63.355204931791107 29.162634155788545 10.862672086699448 -0.80901698891910034 0 -0.5877852598018023 I I #
edge $-1 $492 -39.310892469564443 $296 -29.162634155788545 $412 $493 forward 7 unknown #
point $-1 -63.355204931791128 29.162634155788545 18.30649248580373 #
point $-1 -53.109665315216567 29.162634155788545 18.30649248580373 #
edge $-1 $494 1 $494 0 $299 $-1 forward 7 unknown #
vertex $-1 $300 $495 #
ellipse-curve $-1 -56.44375939127363 34.236763312676494 12.122681394879287 -0.5877852598018023 0 0.80901698891910034 1.2135254833786506 0 0.88167788970270344 1 I I #
point $-1 -57.018909640125187 34.236763312676494 15.466260175954279 #
plane-surface $-1 63.355204931791128 0 0 -1 0 0 0 0 1 forward_v I I I I #
coedge $-1 $308 $306 $310 $428 reversed $201 $-1 #
edge $-1 $321 -18.30649248580373 $430 18.30649248580373 $320 $496 forward 7 unknown #
vertex $-1 $428 $497 #
straight-curve $-1 -63.355204931791128 -39.310892469564443 0 0 0 -1 I I #
edge $-1 $426 -39.310892469564443 $430 39.310892469564443 $424 $498 forward 7 unknown #
straight-curve $-1 0 -39.310892469564443 -18.30649248580373 -1 0 0 I I #
vertex $-1 $313 $499 #
straight-curve $-1 0 39.310892469564443 -18.30649248580373 1 0 0 I I #
point $-1 63.355204931791128 39.310892469564443 -18.30649248580373 #
point $-1 63.355204931791128 -39.310892469564443 -18.30649248580373 #
straight-curve $-1 -63.355204931791128 0 18.30649248580373 0 -1 0 I I #
point $-1 -63.355204931791128 39.310892469564443 18.30649248580373 #
point $-1 -63.355204931791128 -39.310892469564443 18.30649248580373 #
straight-curve $-1 63.355204931791128 -39.310892469564443 0 0 0 -1 I I #
straight-curve $-1 63.355204931791128 39.310892469564443 0 0 0 -1 I I #
loop $-1 $-1 $447 $330 #
plane-surface $-1 -63.355204931791128 0 0 1 0 0 0 0 -1 forward_v I I I I #
coedge $-1 $334 $333 $453 $500 forward $134 $-1 #
edge $-1 $338 19.437640888711165 $456 39.310892469564443 $337 $501 forward 7 unknown #
coedge $-1 $450 $447 $334 $444 reversed $439 $-1 #
edge $-1 $502 -39.310892469564443 $445 -19.437640888711165 $443 $503 forward 7 unknown #
vertex $-1 $448 $504 #
straight-curve $-1 0 -19.437640888711165 -18.30649248580373 1 0 0 I I #
coedge $-1 $443 $340 $336 $448 forward $439 $-1 #
edge $-1 $342 1.0971771986524752 $445 11.838602590984994 $447 $505 forward 7 unknown #
point $-1 63.355204931791128 -19.437640888711165 -18.30649248580373 #
coedge $-1 $340 $443 $344 $454 reversed $439 $-1 #
straight-curve $-1 -63.355204931791128 -14.687133339568902 -7.5650670934712103 0 1 0 I I #
point $-1 -63.355204931791128 -19.437640888711165 -7.5650670934712103 #
coedge $-1 $345 $344 $441 $500 reversed $331 $-1 #
edge $-1 $346 7.5650670934712103 $502 18.30649248580373 $450 $506 forward 7 unknown #
point $-1 -63.355204931791128 -39.310892469564443 -7.5650670934712103 #
vertex $-1 $348 $507 #
straight-curve $-1 63.355204931791128 -39.310892469564443 0 0 0 -1 I I #
edge $-1 $459 71.727305612199089 $462 87.417862616558054 $352 $508 forward 7 unknown #
vertex $-1 $366 $509 #
straight-curve $-1 44.147205960377377 -19.437640888711165 18.30649248580373 1 0 0 I I #
edge $-1 $462 -12.752927841108885 $363 -0.61649825409567427 $362 $510 forward 7 unknown #
vertex $-1 $461 $511 #
straight-curve $-1 -12.901021931007506 -19.437640888711165 103.81136933320698 -0.60181501223851219 0 0.79863551827123203 I I #
point $-1 51.531522488956909 -19.437640888711165 18.30649248580373 #
point $-1 63.355204931791121 -7.3012113016979541 2.6159354814447653 #
straight-curve $-1 63.355204931791128 0 18.30649248580373 0 1 0 I I #
vertex $-1 $369 $512 #
point $-1 55.990350247656245 -15.970089578135962 8.1141541898077261 #
vertex $-1 $373 $513 #
point $-1 55.990350247656245 -10.768762612273157 8.1141541898077261 #
edge $-1 $472 71.727305612199089 $475 87.417862616558054 $378 $514 forward 7 unknown #
vertex $-1 $392 $515 #
straight-curve $-1 44.147205960377377 9.936625790426632 18.30649248580373 1 0 0 I I #
edge $-1 $475 1.9342054984600132 $389 14.070635085473224 $388 $516 forward 7 unknown #
vertex $-1 $474 $517 #
straight-curve $-1 -12.901021931007506 9.936625790426632 103.81136933320698 -0.60181501223851219 0 0.79863551827123203 I I #
point $-1 51.531522488956909 9.936625790426632 18.30649248580373 #
point $-1 63.355204931791121 22.073055377439843 2.6159354814447653 #
straight-curve $-1 63.355204931791128 0 18.30649248580373 0 1 0 I I #
vertex $-1 $395 $518 #
point $-1 55.990350247656245 13.404177101001842 8.1141541898077261 #
vertex $-1 $399 $519 #
point $-1 55.990350247656245 18.605504066864647 8.1141541898077261 #
coedge $-1 $404 $412 $405 $486 forward $284 $-1 #
edge $-1 $488 -22.192510813226196 $413 -12.044252499450298 $404 $520 forward 7 unknown #
edge $-1 $492 -18.30649248580373 $488 -10.862672086699432 $405 $521 forward 7 unknown #
edge $-1 $410 53.109665315216567 $492 63.355204931791128 $406 $522 forward 7 unknown #
vertex $-1 $407 $523 #
straight-curve $-1 -45.204699010664413 39.310892469564443 24.049786800616086 -0.80901698891910034 0 -0.5877852598018023 I I #
point $-1 -53.109665315216567 39.310892469564443 18.30649248580373 #
point $-1 -63.355204931791128 29.162634155788545 10.862672086699432 #
vertex $-1 $487 $524 #
straight-curve $-1 -63.355204931791128 0 18.30649248580373 0 -1 0 I I #
vertex $-1 $419 $525 #
point $-1 -55.230233907894984 34.236763312676494 13.004359284581991 #
straight-curve $-1 -63.355204931791128 39.310892469564443 0 0 0 -1 I I #
point $-1 -63.355204931791128 -39.310892469564443 -18.30649248580373 #
straight-curve $-1 -63.355204931791128 0 -18.30649248580373 0 1 0 I I #
point $-1 -63.355204931791128 39.310892469564443 -18.30649248580373 #
edge $-1 $456 -63.355204931791128 $502 63.355204931791128 $453 $526 forward 7 unknown #
straight-curve $-1 63.355204931791128 0 -18.30649248580373 0 -1 0 I I #
vertex $-1 $444 $527 #
straight-curve $-1 -63.355204931791128 0 -18.30649248580373 0 1 0 I I #
point $-1 -63.355204931791128 -19.437640888711165 -18.30649248580373 #
straight-curve $-1 -63.355204931791128 -19.437640888711165 -6.4678898948187351 0 0 -1 I I #
straight-curve $-1 -63.355204931791128 -39.310892469564443 0 0 0 -1 I I #
point $-1 63.355204931791128 -39.310892469564443 -18.30649248580373 #
straight-curve $-1 63.355204931791128 -19.437640888711165 90.033798098002819 0 0 -1 I I #
point $-1 63.355204931791128 -19.437640888711165 18.30649248580373 #
straight-curve $-1 63.355204931791128 -6.6847130476022798 2.6159354814447724 0 1 0 I I #
point $-1 63.355204931791121 -19.437640888711165 2.6159354814447653 #
point $-1 54.589899717146501 -15.970089578135962 8.3109746958404465 #
point $-1 54.589899717146501 -10.768762612273157 8.3109746958404465 #
straight-curve $-1 63.355204931791128 9.936625790426632 90.033798098002819 0 0 -1 I I #
point $-1 63.355204931791128 9.936625790426632 18.30649248580373 #
straight-curve $-1 63.355204931791128 8.0024202919666187 2.6159354814447724 0 1 0 I I #
point $-1 63.355204931791121 9.936625790426632 2.6159354814447653 #
point $-1 54.589899717146501 13.404177101001842 8.3109746958404465 #
point $-1 54.589899717146501 18.605504066864647 8.3109746958404465 #
straight-curve $-1 -63.355204931791128 17.118381656338247 10.86267208669943 0 -1 0 I I #
straight-curve $-1 -63.355204931791128 39.310892469564443 0 0 0 -1 I I #
straight-curve $-1 0 39.310892469564443 18.30649248580373 -1 0 0 I I #
point $-1 -63.355204931791128 39.310892469564443 10.862672086699432 #
point $-1 -63.355204931791128 39.310892469564443 18.30649248580373 #
point $-1 -55.56208150157093 34.236763312676494 10.909155911500633 #
straight-curve $-1 0 -39.310892469564443 -18.30649248580373 -1 0 0 I I #
point $-1 -63.355204931791128 -39.310892469564443 -18.30649248580373 #
End-of-ACIS-data 