500 0 9 0           
7 Unknown 11 ACIS 5.0 NT 24 Thu Mar 25 15:15:23 1999 
-1 9.9999999999999995e-007 1e-010 
body $-1 $9 $-1 $10 #
body $-1 $11 $-1 $12 #
body $-1 $13 $-1 $14 #
body $-1 $15 $-1 $16 #
body $-1 $17 $-1 $18 #
body $-1 $19 $-1 $20 #
body $-1 $21 $-1 $22 #
body $-1 $23 $-1 $24 #
body $-1 $25 $-1 $26 #
lump $-1 $-1 $27 $0 #
transform $-1 1 0 0 0 1 0 0 0 1 41.355021820734272 28.582003285722177 10.312095792834484 1 rotate no_reflect no_shear #
lump $-1 $-1 $28 $1 #
transform $-1 1 0 0 0 1 0 0 0 1 41.355021820734272 28.582003285722177 10.312095792834484 1 rotate no_reflect no_shear #
lump $-1 $-1 $29 $2 #
transform $-1 1 0 0 0 1 0 0 0 1 41.355021820734272 28.582003285722177 10.312095792834484 1 rotate no_reflect no_shear #
lump $-1 $-1 $30 $3 #
transform $-1 1 0 0 0 1 0 0 0 1 41.355021820734272 28.582003285722177 10.312095792834484 1 rotate no_reflect no_shear #
lump $-1 $-1 $31 $4 #
transform $-1 1 0 0 0 1 0 0 0 1 41.355021820734272 28.582003285722177 10.312095792834484 1 rotate no_reflect no_shear #
lump $-1 $-1 $32 $5 #
transform $-1 1 0 0 0 1 0 0 0 1 41.355021820734272 28.582003285722177 10.312095792834484 1 rotate no_reflect no_shear #
lump $-1 $-1 $33 $6 #
transform $-1 1 0 0 0 1 0 0 0 1 41.355021820734272 28.582003285722177 10.312095792834484 1 rotate no_reflect no_shear #
lump $-1 $-1 $34 $7 #
transform $-1 1 0 0 0 1 0 0 0 1 41.355021820734272 28.582003285722177 10.312095792834484 1 rotate no_reflect no_shear #
lump $-1 $-1 $35 $8 #
transform $-1 1 0 0 0 1 0 0 0 1 41.355021820734272 28.582003285722177 10.312095792834484 1 rotate no_reflect no_shear #
shell $-1 $-1 $-1 $36 $-1 $9 #
shell $-1 $-1 $-1 $37 $-1 $11 #
shell $-1 $-1 $-1 $38 $-1 $13 #
shell $-1 $-1 $-1 $39 $-1 $15 #
shell $-1 $-1 $-1 $40 $-1 $17 #
shell $-1 $-1 $-1 $41 $-1 $19 #
shell $-1 $-1 $-1 $42 $-1 $21 #
shell $-1 $-1 $-1 $43 $-1 $23 #
shell $-1 $-1 $-1 $44 $-1 $25 #
face $-1 $45 $46 $27 $-1 $47 reversed single #
face $-1 $48 $49 $28 $-1 $50 forward single #
face $-1 $51 $52 $29 $-1 $53 forward single #
face $-1 $54 $55 $30 $-1 $56 reversed single #
face $-1 $57 $58 $31 $-1 $59 forward single #
face $-1 $60 $61 $32 $-1 $62 forward single #
face $-1 $63 $64 $33 $-1 $65 reversed single #
face $-1 $66 $67 $34 $-1 $68 forward single #
face $-1 $69 $70 $35 $-1 $71 forward single #
face $-1 $72 $73 $27 $-1 $74 forward single #
loop $-1 $-1 $75 $36 #
plane-surface $-1 41.355021820734272 0 0 -1 0 0 0 0 1 forward_v I I I I #
face $-1 $76 $77 $28 $-1 $78 reversed single #
loop $-1 $-1 $79 $37 #
plane-surface $-1 -41.355021820734272 0 0 1 0 0 0 0 -1 forward_v I I I I #
face $-1 $80 $81 $29 $-1 $82 reversed single #
loop $-1 $-1 $83 $38 #
plane-surface $-1 41.355021820734272 0 0 -1 0 0 0 0 1 forward_v I I I I #
face $-1 $84 $85 $30 $-1 $86 reversed single #
loop $-1 $-1 $87 $39 #
plane-surface $-1 -20.862626513214281 -98.724098984330524 46.407522488561689 -1 0 0 0 -0.84804810408105047 0.52991925155115449 forward_v I I I I #
face $-1 $88 $89 $31 $-1 $90 forward single #
loop $-1 $91 $92 $40 #
cone-surface $-1 -29.632881091950775 -25.483338071294757 6.0186838969215151 0 0.84804810408105047 -0.52991925155115449 1 0 0 1 I I 0 1 1 forward I I I I #
face $-1 $93 $94 $32 $-1 $95 forward single #
loop $-1 $96 $97 $41 #
cone-surface $-1 -24.37072834470888 -25.483338071294757 6.0186838969215151 0 0.84804810408105047 -0.52991925155115449 1 0 0 1 I I 0 1 1 forward I I I I #
face $-1 $98 $99 $33 $-1 $100 reversed single #
loop $-1 $-1 $101 $42 #
plane-surface $-1 -33.140982923445371 68.431791406325459 94.88534988315179 1 0 0 0 -0.84804810408105047 -0.52991925155115449 forward_v I I I I #
face $-1 $102 $103 $34 $-1 $104 forward single #
loop $-1 $105 $106 $43 #
cone-surface $-1 -29.632881091950775 25.48333807129476 6.018683896921508 0 -0.84804810408105047 -0.52991925155115449 1 0 0 1 I I 0 1 1 forward I I I I #
face $-1 $107 $108 $35 $-1 $109 forward single #
loop $-1 $110 $111 $44 #
cone-surface $-1 -24.37072834470888 25.48333807129476 6.018683896921508 0 -0.84804810408105047 -0.52991925155115449 1 0 0 1 I I 0 1 1 forward I I I I #
face $-1 $112 $113 $27 $-1 $114 reversed single #
loop $-1 $-1 $115 $45 #
plane-surface $-1 0 0 10.312095792834484 0 0 1 1 0 0 forward_v I I I I #
coedge $-1 $116 $117 $118 $119 reversed $46 $-1 #
face $-1 $120 $121 $28 $-1 $122 forward single #
loop $-1 $-1 $123 $48 #
plane-surface $-1 0 28.582003285722177 0 0 -1 0 0 0 -1 forward_v I I I I #
coedge $-1 $124 $125 $126 $127 forward $49 $-1 #
face $-1 $128 $129 $29 $-1 $130 forward single #
loop $-1 $-1 $131 $51 #
plane-surface $-1 0 -28.582003285722177 0 0 1 0 0 0 1 forward_v I I I I #
coedge $-1 $132 $133 $134 $135 forward $52 $-1 #
face $-1 $136 $137 $30 $-1 $138 reversed single #
loop $-1 $-1 $139 $54 #
plane-surface $-1 -27.001804718329826 -28.58200328572218 2.5778780663113565 0 -0.84804810408105047 0.52991925155115449 1 0 0 forward_v I I I I #
coedge $-1 $140 $141 $142 $143 reversed $55 $-1 #
face $-1 $-1 $144 $31 $-1 $145 forward single #
loop $-1 $146 $147 $57 #
cone-surface $-1 -29.632881091950775 -24.377086533565077 5.3274212384945372 0 0.84804810408105047 -0.52991925155115449 0.5 0 0 1 I I -0.70710678118654746 0.70710678118654746 0.5 forward I I I I #
loop $-1 $-1 $148 $40 #
coedge $-1 $92 $92 $149 $150 reversed $58 $-1 #
face $-1 $-1 $151 $32 $-1 $152 forward single #
loop $-1 $153 $154 $60 #
cone-surface $-1 -24.37072834470888 -24.377086533565077 5.3274212384945372 0 0.84804810408105047 -0.52991925155115449 0.5 0 0 1 I I -0.70710678118654746 0.70710678118654746 0.5 forward I I I I #
loop $-1 $-1 $155 $41 #
coedge $-1 $97 $97 $156 $157 reversed $61 $-1 #
face $-1 $158 $159 $33 $-1 $160 reversed single #
loop $-1 $-1 $161 $63 #
plane-surface $-1 -27.001804718329826 -1.7103042922828848 51.055705460901457 0 0.84804810408105047 0.52991925155115449 1 0 0 forward_v I I I I #
coedge $-1 $162 $163 $164 $165 reversed $64 $-1 #
face $-1 $-1 $166 $34 $-1 $167 forward single #
loop $-1 $168 $169 $66 #
cone-surface $-1 -29.632881091950775 24.37708653356508 5.3274212384945301 0 -0.84804810408105047 -0.52991925155115449 0.5 0 0 1 I I -0.70710678118654746 0.70710678118654746 0.5 forward I I I I #
loop $-1 $-1 $170 $43 #
coedge $-1 $106 $106 $171 $172 reversed $67 $-1 #
face $-1 $-1 $173 $35 $-1 $174 forward single #
loop $-1 $175 $176 $69 #
cone-surface $-1 -24.37072834470888 24.37708653356508 5.3274212384945301 0 -0.84804810408105047 -0.52991925155115449 0.5 0 0 1 I I -0.70710678118654746 0.70710678118654746 0.5 forward I I I I #
loop $-1 $-1 $177 $44 #
coedge $-1 $111 $111 $178 $179 reversed $70 $-1 #
face $-1 $180 $181 $27 $-1 $182 reversed single #
loop $-1 $-1 $183 $72 #
plane-surface $-1 0 0 -10.312095792834484 0 0 1 1 0 0 forward_v I I I I #
coedge $-1 $184 $185 $116 $186 forward $73 $-1 #
coedge $-1 $187 $75 $115 $186 reversed $46 $-1 #
coedge $-1 $75 $187 $183 $188 reversed $46 $-1 #
coedge $-1 $189 $190 $75 $119 forward $191 $-1 #
edge $-1 $192 -10.312095792834484 $193 10.312095792834484 $75 $194 forward 7 unknown #
face $-1 $195 $196 $28 $-1 $197 reversed single #
loop $-1 $-1 $126 $76 #
plane-surface $-1 -45.462041269378723 0 6.2052770302464557 0 0 1 1 0 0 forward_v I I I I #
coedge $-1 $198 $199 $125 $200 forward $77 $-1 #
coedge $-1 $201 $79 $202 $203 reversed $49 $-1 #
coedge $-1 $79 $201 $123 $200 reversed $49 $-1 #
coedge $-1 $204 $205 $79 $127 reversed $121 $-1 #
edge $-1 $206 -28.582003285722177 $207 28.582003285722177 $126 $208 forward 7 unknown #
face $-1 $209 $210 $29 $-1 $211 reversed single #
loop $-1 $-1 $212 $80 #
plane-surface $-1 45.462041269378723 0 6.2052770302464557 0 0 1 1 0 0 forward_v I I I I #
coedge $-1 $213 $214 $133 $215 forward $81 $-1 #
coedge $-1 $216 $83 $217 $218 reversed $52 $-1 #
coedge $-1 $83 $216 $131 $215 reversed $52 $-1 #
coedge $-1 $219 $220 $83 $135 reversed $129 $-1 #
edge $-1 $221 -28.582003285722177 $222 28.582003285722177 $134 $223 forward 7 unknown #
face $-1 $224 $225 $30 $-1 $226 forward single #
loop $-1 $-1 $227 $84 #
plane-surface $-1 -33.140982923445371 -98.724098984330524 46.407522488561689 1 0 0 0 0.84804810408105047 -0.52991925155115449 forward_v I I I I #
coedge $-1 $228 $229 $230 $231 reversed $85 $-1 #
coedge $-1 $141 $87 $232 $233 reversed $55 $-1 #
coedge $-1 $87 $140 $228 $234 reversed $55 $-1 #
coedge $-1 $230 $235 $87 $143 forward $225 $-1 #
edge $-1 $236 20.780046206443085 $237 25.612921663919607 $142 $238 forward 7 unknown #
loop $-1 $-1 $149 $88 #
plane-surface $-1 -27.001804718329826 -28.58200328572218 2.5778780663113565 0 -0.84804810408105047 0.52991925155115449 1 0 0 forward_v I I I I #
loop $-1 $-1 $239 $57 #
coedge $-1 $147 $147 $148 $240 reversed $89 $-1 #
coedge $-1 $148 $148 $147 $240 forward $91 $-1 #
coedge $-1 $149 $149 $92 $150 forward $144 $-1 #
edge $-1 $241 -7.5400540218334812e-016 $241 6.2831853071795996 $149 $242 forward 7 unknown #
loop $-1 $-1 $156 $93 #
plane-surface $-1 -27.001804718329826 -28.58200328572218 2.5778780663113565 0 -0.84804810408105047 0.52991925155115449 1 0 0 forward_v I I I I #
loop $-1 $-1 $243 $60 #
coedge $-1 $154 $154 $155 $244 reversed $94 $-1 #
coedge $-1 $155 $155 $154 $244 forward $96 $-1 #
coedge $-1 $156 $156 $97 $157 forward $151 $-1 #
edge $-1 $245 -7.5400540218334812e-016 $245 6.2831853071795996 $156 $246 forward 7 unknown #
face $-1 $247 $248 $33 $-1 $249 reversed single #
loop $-1 $-1 $250 $98 #
plane-surface $-1 -20.862626513214281 68.431791406325459 94.88534988315179 -1 0 0 0 0.84804810408105047 0.52991925155115449 forward_v I I I I #
coedge $-1 $251 $252 $253 $254 reversed $99 $-1 #
coedge $-1 $163 $101 $255 $256 reversed $64 $-1 #
coedge $-1 $101 $162 $251 $257 reversed $64 $-1 #
coedge $-1 $253 $258 $101 $165 forward $259 $-1 #
edge $-1 $260 5.6338924174405527 $261 10.466767874917068 $164 $262 forward 7 unknown #
loop $-1 $-1 $171 $102 #
plane-surface $-1 -27.001804718329826 -1.7103042922828848 51.055705460901457 0 0.84804810408105047 0.52991925155115449 1 0 0 forward_v I I I I #
loop $-1 $-1 $263 $66 #
coedge $-1 $169 $169 $170 $264 reversed $103 $-1 #
coedge $-1 $170 $170 $169 $264 forward $105 $-1 #
coedge $-1 $171 $171 $106 $172 forward $166 $-1 #
edge $-1 $265 1.5747545419071707e-018 $265 6.2831853071796004 $171 $266 forward 7 unknown #
loop $-1 $-1 $178 $107 #
plane-surface $-1 -27.001804718329826 -1.7103042922828848 51.055705460901457 0 0.84804810408105047 0.52991925155115449 1 0 0 forward_v I I I I #
loop $-1 $-1 $267 $69 #
coedge $-1 $176 $176 $177 $268 reversed $108 $-1 #
coedge $-1 $177 $177 $176 $268 forward $110 $-1 #
coedge $-1 $178 $178 $111 $179 forward $173 $-1 #
edge $-1 $269 1.5747545419071707e-018 $269 6.2831853071796004 $178 $270 forward 7 unknown #
face $-1 $271 $272 $27 $-1 $273 reversed single #
loop $-1 $-1 $274 $112 #
plane-surface $-1 0 -28.582003285722177 0 0 1 0 0 0 1 forward_v I I I I #
coedge $-1 $275 $276 $117 $188 forward $113 $-1 #
coedge $-1 $277 $115 $190 $278 forward $73 $-1 #
coedge $-1 $115 $277 $279 $280 forward $73 $-1 #
edge $-1 $281 -28.582003285722177 $192 28.582003285722177 $116 $282 forward 7 unknown #
coedge $-1 $117 $116 $283 $284 forward $46 $-1 #
edge $-1 $193 -28.582003285722177 $285 28.582003285722177 $117 $286 forward 7 unknown #
coedge $-1 $287 $118 $276 $288 reversed $191 $-1 #
coedge $-1 $118 $287 $184 $278 reversed $191 $-1 #
loop $-1 $-1 $118 $271 #
vertex $-1 $186 $289 #
vertex $-1 $188 $290 #
straight-curve $-1 41.355021820734272 28.582003285722177 0 0 0 -1 I I #
face $-1 $291 $292 $28 $-1 $293 reversed single #
loop $-1 $-1 $294 $120 #
plane-surface $-1 -45.462041269378723 0 0.55806155962722048 0 0 1 1 0 0 forward_v I I I I #
coedge $-1 $295 $123 $296 $297 reversed $77 $-1 #
coedge $-1 $123 $295 $204 $298 reversed $77 $-1 #
edge $-1 $206 -6.2052770302464557 $299 -0.55806155962722048 $123 $300 forward 7 unknown #
coedge $-1 $125 $124 $294 $301 forward $49 $-1 #
coedge $-1 $302 $303 $124 $203 forward $304 $-1 #
edge $-1 $305 0.55806155962722048 $207 6.2052770302464557 $202 $306 forward 7 unknown #
coedge $-1 $307 $126 $199 $298 forward $121 $-1 #
coedge $-1 $126 $307 $302 $308 forward $121 $-1 #
vertex $-1 $200 $309 #
vertex $-1 $308 $310 #
straight-curve $-1 -41.355021820734272 0 6.2052770302464557 0 -1 0 I I #
face $-1 $311 $312 $29 $-1 $313 reversed single #
loop $-1 $-1 $314 $128 #
plane-surface $-1 45.462041269378723 0 0.55806155962722048 0 0 1 1 0 0 forward_v I I I I #
coedge $-1 $220 $219 $315 $316 forward $129 $-1 #
coedge $-1 $317 $131 $318 $319 reversed $81 $-1 #
coedge $-1 $131 $317 $219 $320 reversed $81 $-1 #
edge $-1 $221 -6.2052770302464557 $321 -0.55806155962722048 $131 $322 forward 7 unknown #
coedge $-1 $133 $132 $323 $324 forward $52 $-1 #
coedge $-1 $325 $326 $132 $218 forward $327 $-1 #
edge $-1 $328 0.55806155962722048 $222 6.2052770302464557 $217 $329 forward 7 unknown #
coedge $-1 $212 $134 $214 $320 forward $129 $-1 #
coedge $-1 $134 $212 $325 $330 forward $129 $-1 #
vertex $-1 $215 $331 #
vertex $-1 $330 $332 #
straight-curve $-1 41.355021820734272 0 6.2052770302464557 0 1 0 I I #
face $-1 $-1 $333 $30 $-1 $334 reversed single #
loop $-1 $-1 $142 $136 #
plane-surface $-1 0 0 10.312095792834484 0 0 1 1 0 0 forward_v I I I I #
coedge $-1 $335 $336 $337 $338 reversed $137 $-1 #
coedge $-1 $339 $139 $141 $234 forward $85 $-1 #
coedge $-1 $139 $339 $335 $340 forward $85 $-1 #
coedge $-1 $337 $142 $139 $231 forward $225 $-1 #
edge $-1 $237 7.3617241540493676 $341 19.64008056428046 $230 $342 forward 7 unknown #
coedge $-1 $343 $344 $140 $233 forward $333 $-1 #
edge $-1 $345 -20.625883177969481 $236 -12.891665451446361 $232 $346 forward 7 unknown #
edge $-1 $237 -9.1200224247938948 $345 -6.7785685355760754e-015 $141 $347 forward 7 unknown #
coedge $-1 $142 $337 $343 $348 forward $225 $-1 #
vertex $-1 $233 $349 #
vertex $-1 $143 $350 #
straight-curve $-1 -20.862626513214281 -49.362049492165262 10.312095792834484 0 1 0 I I #
coedge $-1 $239 $239 $-1 $351 reversed $146 $-1 #
edge $-1 $352 0 $352 6.2831853071796004 $147 $353 forward 7 unknown #
vertex $-1 $150 $354 #
ellipse-curve $-1 -29.632881091950775 -26.165565556983918 6.4449869295729201 0 -0.84804810408105047 0.52991925155115449 1 0 0 1 I I #
coedge $-1 $243 $243 $-1 $355 reversed $153 $-1 #
edge $-1 $356 0 $356 6.2831853071796004 $154 $357 forward 7 unknown #
vertex $-1 $157 $358 #
ellipse-curve $-1 -24.37072834470888 -26.165565556983918 6.4449869295729201 0 -0.84804810408105047 0.52991925155115449 1 0 0 1 I I #
face $-1 $-1 $259 $33 $-1 $359 forward single #
loop $-1 $-1 $360 $158 #
plane-surface $-1 0 28.582003285722177 0 0 -1 0 0 0 -1 forward_v I I I I #
coedge $-1 $361 $362 $363 $364 reversed $159 $-1 #
coedge $-1 $365 $161 $163 $257 forward $99 $-1 #
coedge $-1 $161 $365 $361 $366 forward $99 $-1 #
coedge $-1 $363 $164 $161 $254 forward $259 $-1 #
edge $-1 $261 -19.64008056428046 $367 -7.3617241540493676 $253 $368 forward 7 unknown #
coedge $-1 $369 $370 $162 $256 forward $248 $-1 #
edge $-1 $371 -44.864796875264517 $260 -37.130579148741411 $255 $372 forward 7 unknown #
edge $-1 $261 48.043984146650459 $371 57.164006571444339 $163 $373 forward 7 unknown #
coedge $-1 $164 $363 $369 $374 forward $259 $-1 #
loop $-1 $-1 $363 $247 #
vertex $-1 $256 $375 #
vertex $-1 $165 $376 #
straight-curve $-1 -33.140982923445371 34.21589570316273 10.312095792834484 0 -1 0 I I #
coedge $-1 $263 $263 $-1 $377 reversed $168 $-1 #
edge $-1 $378 0 $378 6.2831853071796004 $169 $379 forward 7 unknown #
vertex $-1 $172 $380 #
ellipse-curve $-1 -29.632881091950775 26.165565556983928 6.4449869295729165 0 0.84804810408105047 0.52991925155115449 1 0 0 1 I I #
coedge $-1 $267 $267 $-1 $381 reversed $175 $-1 #
edge $-1 $382 0 $382 6.2831853071796004 $176 $383 forward 7 unknown #
vertex $-1 $179 $384 #
ellipse-curve $-1 -24.37072834470888 26.165565556983928 6.4449869295729165 0 0.84804810408105047 0.52991925155115449 1 0 0 1 I I #
face $-1 $-1 $191 $27 $-1 $385 reversed single #
loop $-1 $-1 $386 $180 #
plane-surface $-1 -41.355021820734272 0 0 1 0 0 0 0 -1 forward_v I I I I #
coedge $-1 $387 $279 $386 $388 forward $181 $-1 #
coedge $-1 $389 $183 $387 $390 forward $113 $-1 #
coedge $-1 $183 $389 $189 $288 forward $113 $-1 #
coedge $-1 $185 $184 $391 $392 forward $73 $-1 #
edge $-1 $192 -41.355021820734272 $393 41.355021820734272 $190 $394 forward 7 unknown #
coedge $-1 $274 $283 $185 $280 reversed $181 $-1 #
edge $-1 $395 -41.355021820734272 $281 41.355021820734272 $279 $396 forward 7 unknown #
vertex $-1 $186 $397 #
straight-curve $-1 41.355021820734272 0 10.312095792834484 0 1 0 I I #
coedge $-1 $279 $387 $187 $284 reversed $181 $-1 #
edge $-1 $281 -10.312095792834484 $285 10.312095792834484 $187 $398 forward 7 unknown #
vertex $-1 $284 $399 #
straight-curve $-1 41.355021820734272 0 -10.312095792834484 0 -1 0 I I #
coedge $-1 $190 $189 $400 $401 reversed $191 $-1 #
edge $-1 $402 -41.355021820734272 $193 41.355021820734272 $189 $403 forward 7 unknown #
point $-1 41.355021820734272 28.582003285722177 10.312095792834484 #
point $-1 41.355021820734272 28.582003285722177 -10.312095792834484 #
face $-1 $-1 $304 $28 $-1 $404 reversed single #
loop $-1 $-1 $405 $195 #
plane-surface $-1 -49.569060718023174 0 3.3816692949368381 1 0 0 0 0 -1 forward_v I I I I #
coedge $-1 $406 $296 $201 $301 reversed $196 $-1 #
coedge $-1 $199 $198 $405 $407 reversed $77 $-1 #
coedge $-1 $294 $408 $198 $297 forward $196 $-1 #
edge $-1 $409 -4.1070194486444507 $299 4.1070194486444507 $198 $410 forward 7 unknown #
edge $-1 $206 -4.1070194486444507 $411 4.1070194486444507 $199 $412 forward 7 unknown #
vertex $-1 $200 $413 #
straight-curve $-1 -41.355021820734272 28.582003285722177 0 0 0 -1 I I #
edge $-1 $305 -28.582003285722177 $299 28.582003285722177 $294 $414 forward 7 unknown #
coedge $-1 $415 $202 $205 $308 reversed $304 $-1 #
coedge $-1 $202 $415 $406 $416 reversed $304 $-1 #
loop $-1 $-1 $202 $291 #
vertex $-1 $203 $417 #
straight-curve $-1 -41.355021820734272 -28.582003285722177 0 0 0 1 I I #
coedge $-1 $205 $204 $418 $419 forward $121 $-1 #
edge $-1 $420 -4.1070194486444507 $207 4.1070194486444507 $302 $421 forward 7 unknown #
point $-1 -41.355021820734272 28.582003285722177 6.2052770302464557 #
point $-1 -41.355021820734272 -28.582003285722177 6.2052770302464557 #
face $-1 $-1 $327 $29 $-1 $422 reversed single #
loop $-1 $-1 $423 $209 #
plane-surface $-1 49.569060718023174 0 3.3816692949368381 -1 0 0 0 0 1 forward_v I I I I #
coedge $-1 $318 $424 $425 $426 forward $210 $-1 #
coedge $-1 $423 $427 $212 $316 reversed $312 $-1 #
edge $-1 $428 -28.582003285722177 $429 28.582003285722177 $315 $430 forward 7 unknown #
coedge $-1 $214 $213 $423 $431 reversed $81 $-1 #
coedge $-1 $323 $314 $213 $319 forward $210 $-1 #
edge $-1 $432 -4.1070194486444507 $321 4.1070194486444507 $213 $433 forward 7 unknown #
edge $-1 $221 -4.1070194486444507 $428 4.1070194486444507 $214 $434 forward 7 unknown #
vertex $-1 $215 $435 #
straight-curve $-1 41.355021820734272 -28.582003285722177 0 0 0 -1 I I #
coedge $-1 $424 $318 $216 $324 reversed $210 $-1 #
edge $-1 $328 -28.582003285722177 $321 28.582003285722177 $323 $436 forward 7 unknown #
coedge $-1 $437 $217 $220 $330 reversed $327 $-1 #
coedge $-1 $217 $437 $424 $438 reversed $327 $-1 #
loop $-1 $-1 $217 $311 #
vertex $-1 $218 $439 #
straight-curve $-1 41.355021820734272 28.582003285722177 0 0 0 1 I I #
edge $-1 $429 -4.1070194486444507 $222 4.1070194486444507 $325 $440 forward 7 unknown #
point $-1 41.355021820734272 -28.582003285722177 6.2052770302464557 #
point $-1 41.355021820734272 28.582003285722177 6.2052770302464557 #
loop $-1 $-1 $232 $224 #
plane-surface $-1 0 -28.582003285722177 0 0 1 0 0 0 1 forward_v I I I I #
coedge $-1 $336 $227 $229 $340 reversed $137 $-1 #
coedge $-1 $227 $335 $441 $442 reversed $137 $-1 #
coedge $-1 $235 $230 $227 $338 forward $225 $-1 #
edge $-1 $341 -25.612921663919607 $443 -20.780046206443085 $337 $444 forward 7 unknown #
coedge $-1 $229 $228 $344 $445 reversed $85 $-1 #
edge $-1 $446 6.7785685355760754e-015 $341 9.1200224247938948 $335 $447 forward 7 unknown #
vertex $-1 $231 $448 #
straight-curve $-1 -13.500902359164913 -23.749127828245655 10.312095792834484 -1 0 0 I I #
coedge $-1 $441 $232 $235 $348 reversed $333 $-1 #
coedge $-1 $232 $441 $339 $445 forward $333 $-1 #
vertex $-1 $233 $449 #
straight-curve $-1 -20.862626513214281 -28.582003285722173 23.203761244280845 0 0 1 I I #
straight-curve $-1 -20.862626513214281 -28.58200328572218 2.5778780663113565 0 -0.52991925155115449 -0.84804810408105047 I I #
edge $-1 $443 -33.140982923445371 $236 -20.862626513214281 $343 $450 forward 7 unknown #
point $-1 -20.862626513214281 -28.582003285722177 10.312095792834484 #
point $-1 -20.862626513214281 -23.749127828245655 10.312095792834484 #
edge $-1 $451 1 $451 0 $239 $-1 forward 7 unknown #
vertex $-1 $240 $452 #
ellipse-curve $-1 -29.632881091950775 -24.801110585605603 5.5923808642701145 0 -0.84804810408105047 0.52991925155115449 1 0 0 1 I I #
point $-1 -28.632881091950775 -26.165565556983911 6.4449869295729147 #
edge $-1 $453 1 $453 0 $243 $-1 forward 7 unknown #
vertex $-1 $244 $454 #
ellipse-curve $-1 -24.37072834470888 -24.801110585605603 5.5923808642701145 0 -0.84804810408105047 0.52991925155115449 1 0 0 1 I I #
point $-1 -23.37072834470888 -26.165565556983911 6.4449869295729147 #
plane-surface $-1 0 0 10.312095792834484 0 0 1 1 0 0 forward_v I I I I #
coedge $-1 $370 $369 $362 $455 forward $248 $-1 #
coedge $-1 $362 $250 $252 $366 reversed $159 $-1 #
coedge $-1 $250 $361 $360 $455 reversed $159 $-1 #
coedge $-1 $258 $253 $250 $364 forward $259 $-1 #
edge $-1 $367 -10.466767874917068 $456 -5.6338924174405527 $363 $457 forward 7 unknown #
coedge $-1 $252 $251 $370 $458 reversed $99 $-1 #
edge $-1 $459 -57.164006571444339 $367 -48.043984146650459 $361 $460 forward 7 unknown #
vertex $-1 $254 $461 #
straight-curve $-1 -13.500902359164913 23.749127828245662 10.312095792834484 1 0 0 I I #
coedge $-1 $360 $255 $258 $374 reversed $248 $-1 #
coedge $-1 $255 $360 $365 $458 forward $248 $-1 #
vertex $-1 $256 $462 #
straight-curve $-1 -33.140982923445371 28.582003285722177 47.442674941575895 0 0 1 I I #
straight-curve $-1 -33.140982923445371 -1.7103042922828848 51.055705460901457 0 0.52991925155115449 -0.84804810408105047 I I #
edge $-1 $456 20.862626513214281 $260 33.140982923445371 $369 $463 forward 7 unknown #
point $-1 -33.140982923445371 28.582003285722177 10.312095792834484 #
point $-1 -33.140982923445371 23.749127828245662 10.312095792834484 #
edge $-1 $464 1 $464 0 $263 $-1 forward 7 unknown #
vertex $-1 $264 $465 #
ellipse-curve $-1 -29.632881091950775 24.801110585605606 5.5923808642701074 0 0.84804810408105047 0.52991925155115449 1 0 0 1 I I #
point $-1 -28.632881091950775 26.165565556983914 6.4449869295729076 #
edge $-1 $466 1 $466 0 $267 $-1 forward 7 unknown #
vertex $-1 $268 $467 #
ellipse-curve $-1 -24.37072834470888 24.801110585605606 5.5923808642701074 0 0.84804810408105047 0.52991925155115449 1 0 0 1 I I #
point $-1 -23.37072834470888 26.165565556983914 6.4449869295729076 #
plane-surface $-1 0 28.582003285722177 0 0 -1 0 0 0 -1 forward_v I I I I #
coedge $-1 $391 $468 $274 $388 reversed $272 $-1 #
coedge $-1 $283 $274 $275 $390 reversed $181 $-1 #
edge $-1 $395 -10.312095792834484 $469 10.312095792834484 $386 $470 forward 7 unknown #
coedge $-1 $276 $275 $468 $471 forward $113 $-1 #
edge $-1 $285 -41.355021820734272 $469 41.355021820734272 $387 $472 forward 7 unknown #
coedge $-1 $400 $386 $277 $392 reversed $272 $-1 #
edge $-1 $393 -28.582003285722177 $395 28.582003285722177 $391 $473 forward 7 unknown #
vertex $-1 $278 $474 #
straight-curve $-1 0 28.582003285722177 10.312095792834484 -1 0 0 I I #
vertex $-1 $392 $475 #
straight-curve $-1 0 -28.582003285722177 10.312095792834484 1 0 0 I I #
point $-1 41.355021820734272 -28.582003285722177 10.312095792834484 #
straight-curve $-1 41.355021820734272 -28.582003285722177 0 0 0 -1 I I #
point $-1 41.355021820734272 -28.582003285722177 -10.312095792834484 #
coedge $-1 $468 $391 $287 $401 forward $272 $-1 #
edge $-1 $393 -10.312095792834484 $402 10.312095792834484 $287 $476 forward 7 unknown #
vertex $-1 $288 $477 #
straight-curve $-1 0 28.582003285722177 -10.312095792834484 1 0 0 I I #
plane-surface $-1 0 -28.582003285722177 0 0 1 0 0 0 1 forward_v I I I I #
coedge $-1 $478 $418 $295 $407 forward $292 $-1 #
coedge $-1 $408 $294 $303 $416 forward $196 $-1 #
edge $-1 $411 -2.8236077353096176 $409 2.8236077353096176 $295 $479 forward 7 unknown #
coedge $-1 $296 $406 $478 $480 forward $196 $-1 #
vertex $-1 $297 $481 #
straight-curve $-1 -45.462041269378723 28.582003285722177 0.55806155962722048 1 0 0 I I #
vertex $-1 $298 $482 #
straight-curve $-1 -45.462041269378723 28.582003285722177 6.2052770302464557 -1 0 0 I I #
point $-1 -41.355021820734272 28.582003285722177 0.55806155962722048 #
straight-curve $-1 -41.355021820734272 0 0.55806155962722048 0 1 0 I I #
coedge $-1 $303 $302 $483 $484 forward $304 $-1 #
edge $-1 $305 -4.1070194486444507 $485 4.1070194486444507 $303 $486 forward 7 unknown #
point $-1 -41.355021820734272 -28.582003285722177 0.55806155962722048 #
coedge $-1 $405 $483 $307 $419 reversed $292 $-1 #
edge $-1 $411 -28.582003285722177 $420 28.582003285722177 $418 $487 forward 7 unknown #
vertex $-1 $419 $488 #
straight-curve $-1 -45.462041269378723 -28.582003285722177 6.2052770302464557 1 0 0 I I #
plane-surface $-1 0 28.582003285722177 0 0 -1 0 0 0 -1 forward_v I I I I #
coedge $-1 $425 $315 $317 $431 forward $312 $-1 #
coedge $-1 $314 $323 $326 $438 forward $210 $-1 #
coedge $-1 $427 $423 $314 $426 reversed $312 $-1 #
edge $-1 $489 -28.582003285722177 $432 28.582003285722177 $425 $490 forward 7 unknown #
coedge $-1 $315 $425 $437 $491 reversed $312 $-1 #
vertex $-1 $316 $492 #
vertex $-1 $316 $493 #
straight-curve $-1 49.569060718023174 0 6.2052770302464557 0 1 0 I I #
edge $-1 $428 -2.8236077353096176 $432 2.8236077353096176 $423 $494 forward 7 unknown #
vertex $-1 $431 $495 #
straight-curve $-1 45.462041269378723 -28.582003285722177 0.55806155962722048 -1 0 0 I I #
straight-curve $-1 45.462041269378723 -28.582003285722177 6.2052770302464557 1 0 0 I I #
point $-1 41.355021820734272 -28.582003285722177 0.55806155962722048 #
straight-curve $-1 41.355021820734272 0 0.55806155962722048 0 -1 0 I I #
coedge $-1 $326 $325 $427 $491 forward $327 $-1 #
edge $-1 $328 -4.1070194486444507 $489 4.1070194486444507 $326 $496 forward 7 unknown #
point $-1 41.355021820734272 28.582003285722177 0.55806155962722048 #
straight-curve $-1 45.462041269378723 28.582003285722177 6.2052770302464557 -1 0 0 I I #
coedge $-1 $344 $343 $336 $442 forward $333 $-1 #
edge $-1 $443 12.891665451446361 $446 20.625883177969481 $441 $497 forward 7 unknown #
vertex $-1 $348 $498 #
straight-curve $-1 -33.140982923445371 -49.362049492165262 10.312095792834484 0 -1 0 I I #
edge $-1 $446 -19.64008056428046 $345 -7.3617241540493676 $344 $499 forward 7 unknown #
vertex $-1 $445 $500 #
straight-curve $-1 -33.140982923445371 -28.58200328572218 2.5778780663113565 0 0.52991925155115449 0.84804810408105047 I I #
point $-1 -33.140982923445371 -23.749127828245655 10.312095792834484 #
point $-1 -20.862626513214281 -28.582003285722177 2.5778780663113623 #
straight-curve $-1 0 -28.582003285722177 10.312095792834484 1 0 0 I I #
vertex $-1 $351 $501 #
point $-1 -28.632881091950775 -24.801110585605603 5.5923808642701145 #
vertex $-1 $355 $502 #
point $-1 -23.37072834470888 -24.801110585605603 5.5923808642701145 #
edge $-1 $456 37.130579148741411 $459 44.864796875264517 $360 $503 forward 7 unknown #
vertex $-1 $374 $504 #
straight-curve $-1 -20.862626513214281 34.21589570316273 10.312095792834484 0 1 0 I I #
edge $-1 $459 7.3617241540493676 $371 19.64008056428046 $370 $505 forward 7 unknown #
vertex $-1 $458 $506 #
straight-curve $-1 -20.862626513214281 -1.7103042922828848 51.055705460901457 0 -0.52991925155115449 0.84804810408105047 I I #
point $-1 -20.862626513214281 23.749127828245662 10.312095792834484 #
point $-1 -33.140982923445371 28.582003285722177 2.5778780663113778 #
straight-curve $-1 0 28.582003285722177 10.312095792834484 -1 0 0 I I #
vertex $-1 $377 $507 #
point $-1 -28.632881091950775 24.801110585605606 5.5923808642701074 #
vertex $-1 $381 $508 #
point $-1 -23.37072834470888 24.801110585605606 5.5923808642701074 #
coedge $-1 $386 $400 $389 $471 reversed $272 $-1 #
vertex $-1 $471 $509 #
straight-curve $-1 -41.355021820734272 -28.582003285722177 0 0 0 -1 I I #
edge $-1 $469 -28.582003285722177 $402 28.582003285722177 $468 $510 forward 7 unknown #
straight-curve $-1 0 -28.582003285722177 -10.312095792834484 -1 0 0 I I #
straight-curve $-1 -41.355021820734272 0 10.312095792834484 0 -1 0 I I #
point $-1 -41.355021820734272 28.582003285722177 10.312095792834484 #
point $-1 -41.355021820734272 -28.582003285722177 10.312095792834484 #
straight-curve $-1 -41.355021820734272 28.582003285722177 0 0 0 -1 I I #
point $-1 -41.355021820734272 28.582003285722177 -10.312095792834484 #
coedge $-1 $483 $405 $408 $480 reversed $292 $-1 #
straight-curve $-1 -49.569060718023174 28.582003285722177 3.3816692949368381 0 0 -1 I I #
edge $-1 $485 -28.582003285722177 $409 28.582003285722177 $478 $511 forward 7 unknown #
point $-1 -49.569060718023174 28.582003285722177 0.55806155962722048 #
point $-1 -49.569060718023174 28.582003285722177 6.2052770302464557 #
coedge $-1 $418 $478 $415 $484 reversed $292 $-1 #
edge $-1 $420 -2.8236077353096176 $485 2.8236077353096176 $483 $512 forward 7 unknown #
vertex $-1 $480 $513 #
straight-curve $-1 -45.462041269378723 -28.582003285722177 0.55806155962722048 -1 0 0 I I #
straight-curve $-1 -49.569060718023174 0 6.2052770302464557 0 -1 0 I I #
point $-1 -49.569060718023174 -28.582003285722177 6.2052770302464557 #
vertex $-1 $426 $514 #
straight-curve $-1 49.569060718023174 0 0.55806155962722048 0 -1 0 I I #
edge $-1 $429 -2.8236077353096176 $489 2.8236077353096176 $427 $515 forward 7 unknown #
point $-1 49.569060718023174 -28.582003285722177 6.2052770302464557 #
point $-1 49.569060718023174 28.582003285722177 6.2052770302464557 #
straight-curve $-1 49.569060718023174 -28.582003285722177 3.3816692949368381 0 0 -1 I I #
point $-1 49.569060718023174 -28.582003285722177 0.55806155962722048 #
straight-curve $-1 45.462041269378723 28.582003285722177 0.55806155962722048 1 0 0 I I #
straight-curve $-1 -33.140982923445371 -28.582003285722173 23.203761244280845 0 0 -1 I I #
point $-1 -33.140982923445371 -28.582003285722177 10.312095792834484 #
straight-curve $-1 -13.500902359164913 -28.582003285722177 2.5778780663113672 1 0 0 I I #
point $-1 -33.140982923445371 -28.582003285722177 2.5778780663113623 #
point $-1 -29.632881091950775 -23.953062481524551 5.0624616127189599 #
point $-1 -24.37072834470888 -23.953062481524551 5.0624616127189599 #
straight-curve $-1 -20.862626513214281 28.582003285722177 47.442674941575895 0 0 -1 I I #
point $-1 -20.862626513214281 28.582003285722177 10.312095792834484 #
straight-curve $-1 -13.500902359164913 28.582003285722173 2.5778780663113778 -1 0 0 I I #
point $-1 -20.862626513214281 28.582003285722177 2.5778780663113778 #
point $-1 -29.632881091950775 23.953062481524555 5.0624616127189528 #
point $-1 -24.37072834470888 23.953062481524555 5.0624616127189528 #
point $-1 -41.355021820734272 -28.582003285722177 -10.312095792834484 #
straight-curve $-1 -41.355021820734272 0 -10.312095792834484 0 1 0 I I #
straight-curve $-1 -49.569060718023174 0 0.55806155962722048 0 1 0 I I #
straight-curve $-1 -49.569060718023174 -28.582003285722177 3.3816692949368381 0 0 -1 I I #
point $-1 -49.569060718023174 -28.582003285722177 0.55806155962722048 #
point $-1 49.569060718023174 28.582003285722177 0.55806155962722048 #
straight-curve $-1 49.569060718023174 28.582003285722177 3.3816692949368381 0 0 -1 I I #
End-of-ACIS-data 