500 0 8 0           
7 Unknown 11 ACIS 5.0 NT 24 Thu Mar 25 19:15:27 1999 
-1 9.9999999999999995e-007 1e-010 
body $-1 $8 $-1 $9 #
body $-1 $10 $-1 $11 #
body $-1 $12 $-1 $13 #
body $-1 $14 $-1 $15 #
body $-1 $16 $-1 $17 #
body $-1 $18 $-1 $19 #
body $-1 $20 $-1 $21 #
body $-1 $22 $-1 $23 #
lump $-1 $-1 $24 $0 #
transform $-1 1 0 0 0 1 0 0 0 1 65.434125797296062 26.918912800914057 10.70849746600649 1 rotate no_reflect no_shear #
lump $-1 $-1 $25 $1 #
transform $-1 1 0 0 0 1 0 0 0 1 65.434125797296062 26.918912800914057 10.70849746600649 1 rotate no_reflect no_shear #
lump $-1 $-1 $26 $2 #
transform $-1 1 0 0 0 1 0 0 0 1 65.434125797296062 26.918912800914057 10.70849746600649 1 rotate no_reflect no_shear #
lump $-1 $-1 $27 $3 #
transform $-1 1 0 0 0 1 0 0 0 1 65.434125797296062 26.918912800914057 10.70849746600649 1 rotate no_reflect no_shear #
lump $-1 $-1 $28 $4 #
transform $-1 1 0 0 0 1 0 0 0 1 65.434125797296062 26.918912800914057 10.70849746600649 1 rotate no_reflect no_shear #
lump $-1 $-1 $29 $5 #
transform $-1 1 0 0 0 1 0 0 0 1 65.434125797296062 26.918912800914057 10.70849746600649 1 rotate no_reflect no_shear #
lump $-1 $-1 $30 $6 #
transform $-1 1 0 0 0 1 0 0 0 1 65.434125797296062 26.918912800914057 10.70849746600649 1 rotate no_reflect no_shear #
lump $-1 $-1 $31 $7 #
transform $-1 1 0 0 0 1 0 0 0 1 65.434125797296062 26.918912800914057 10.70849746600649 1 rotate no_reflect no_shear #
shell $-1 $-1 $-1 $32 $-1 $8 #
shell $-1 $-1 $-1 $33 $-1 $10 #
shell $-1 $-1 $-1 $34 $-1 $12 #
shell $-1 $-1 $-1 $35 $-1 $14 #
shell $-1 $-1 $-1 $36 $-1 $16 #
shell $-1 $-1 $-1 $37 $-1 $18 #
shell $-1 $-1 $-1 $38 $-1 $20 #
shell $-1 $-1 $-1 $39 $-1 $22 #
face $-1 $40 $41 $24 $-1 $42 forward single #
face $-1 $43 $44 $25 $-1 $45 forward single #
face $-1 $46 $47 $26 $-1 $48 reversed single #
face $-1 $49 $50 $27 $-1 $51 forward single #
face $-1 $52 $53 $28 $-1 $54 forward single #
face $-1 $55 $56 $29 $-1 $57 reversed single #
face $-1 $58 $59 $30 $-1 $60 forward single #
face $-1 $61 $62 $31 $-1 $63 forward single #
face $-1 $64 $65 $24 $-1 $66 reversed single #
loop $-1 $-1 $67 $32 #
plane-surface $-1 0 0 10.70849746600649 0 0 1 1 0 0 forward_v I I I I #
face $-1 $68 $69 $25 $-1 $70 forward single #
loop $-1 $-1 $71 $33 #
plane-surface $-1 0 -26.918912800914057 0 0 1 0 0 0 1 forward_v I I I I #
face $-1 $72 $73 $26 $-1 $74 reversed single #
loop $-1 $-1 $75 $34 #
plane-surface $-1 -142.35655506063102 -11.468156247245831 112.106930938834 0 1 0 -0.5877852598018023 0 0.80901698891910034 forward_v I I I I #
face $-1 $76 $77 $27 $-1 $78 forward single #
loop $-1 $79 $80 $35 #
cone-surface $-1 -62.059749150683444 -9.1465064260300935 8.0658862828786049 0.5877852598018023 0 -0.80901698891910034 0.20225424722977509 0 0.14694631495045057 1 I I 0 1 0.25 forward I I I I #
face $-1 $81 $82 $28 $-1 $83 forward single #
loop $-1 $84 $85 $36 #
cone-surface $-1 -62.059749150683444 -5.6640316942064857 8.0658862828786049 0.5877852598018023 0 -0.80901698891910034 0.20225424722977509 0 0.14694631495045057 1 I I 0 1 0.25 forward I I I I #
face $-1 $86 $87 $29 $-1 $88 reversed single #
loop $-1 $-1 $89 $37 #
plane-surface $-1 -142.35655506063102 16.224207250569464 112.106930938834 0 1 0 -0.5877852598018023 0 0.80901698891910034 forward_v I I I I #
face $-1 $90 $91 $30 $-1 $92 forward single #
loop $-1 $93 $94 $38 #
cone-surface $-1 -62.059749150683444 18.5458570717852 8.0658862828786049 0.5877852598018023 0 -0.80901698891910034 0.20225424722977509 0 0.14694631495045057 1 I I 0 1 0.25 forward I I I I #
face $-1 $95 $96 $31 $-1 $97 forward single #
loop $-1 $98 $99 $39 #
cone-surface $-1 -62.059749150683444 22.028331803608808 8.0658862828786049 0.5877852598018023 0 -0.80901698891910034 0.20225424722977509 0 0.14694631495045057 1 I I 0 1 0.25 forward I I I I #
face $-1 $100 $101 $24 $-1 $102 reversed single #
loop $-1 $-1 $103 $40 #
plane-surface $-1 0 0 -10.70849746600649 0 0 1 1 0 0 forward_v I I I I #
coedge $-1 $104 $105 $106 $107 forward $41 $-1 #
face $-1 $108 $109 $25 $-1 $110 reversed single #
loop $-1 $-1 $111 $43 #
plane-surface $-1 0 0 10.70849746600649 0 0 1 1 0 0 forward_v I I I I #
coedge $-1 $112 $113 $114 $115 forward $44 $-1 #
face $-1 $116 $117 $26 $-1 $118 reversed single #
loop $-1 $-1 $119 $46 #
plane-surface $-1 -65.434125797296062 -7.405269060118286 6.2322920886698228 -0.5877852598018023 0 0.80901698891910034 0.80901698891910034 0 0.5877852598018023 forward_v I I I I #
coedge $-1 $120 $121 $122 $123 reversed $47 $-1 #
face $-1 $-1 $124 $27 $-1 $125 forward single #
loop $-1 $126 $127 $49 #
cone-surface $-1 -61.692383363307314 -9.1465064260300935 7.5602506648041672 0.5877852598018023 0 -0.80901698891910034 0.10112712361488754 0 0.073473157475225287 1 I I -0.70710678118654746 0.70710678118654746 0.125 forward I I I I #
loop $-1 $-1 $128 $35 #
coedge $-1 $80 $80 $129 $130 reversed $50 $-1 #
face $-1 $-1 $131 $28 $-1 $132 forward single #
loop $-1 $133 $134 $52 #
cone-surface $-1 -61.692383363307314 -5.6640316942064857 7.5602506648041672 0.5877852598018023 0 -0.80901698891910034 0.10112712361488754 0 0.073473157475225287 1 I I -0.70710678118654746 0.70710678118654746 0.125 forward I I I I #
loop $-1 $-1 $135 $36 #
coedge $-1 $85 $85 $136 $137 reversed $53 $-1 #
face $-1 $138 $139 $29 $-1 $140 reversed single #
loop $-1 $-1 $141 $55 #
plane-surface $-1 -65.434125797296062 20.287094437697007 6.2322920886698228 -0.5877852598018023 0 0.80901698891910034 0.80901698891910034 0 0.5877852598018023 forward_v I I I I #
coedge $-1 $142 $143 $144 $145 reversed $56 $-1 #
face $-1 $-1 $146 $30 $-1 $147 forward single #
loop $-1 $148 $149 $58 #
cone-surface $-1 -61.692383363307314 18.5458570717852 7.5602506648041672 0.5877852598018023 0 -0.80901698891910034 0.10112712361488754 0 0.073473157475225287 1 I I -0.70710678118654746 0.70710678118654746 0.125 forward I I I I #
loop $-1 $-1 $150 $38 #
coedge $-1 $94 $94 $151 $152 reversed $59 $-1 #
face $-1 $-1 $153 $31 $-1 $154 forward single #
loop $-1 $155 $156 $61 #
cone-surface $-1 -61.692383363307314 22.028331803608808 7.5602506648041672 0.5877852598018023 0 -0.80901698891910034 0.10112712361488754 0 0.073473157475225287 1 I I -0.70710678118654746 0.70710678118654746 0.125 forward I I I I #
loop $-1 $-1 $157 $39 #
coedge $-1 $99 $99 $158 $159 reversed $62 $-1 #
face $-1 $160 $161 $24 $-1 $162 reversed single #
loop $-1 $-1 $163 $64 #
plane-surface $-1 0 -26.918912800914057 0 0 1 0 0 0 1 forward_v I I I I #
coedge $-1 $164 $165 $166 $167 forward $65 $-1 #
coedge $-1 $168 $67 $169 $170 forward $41 $-1 #
coedge $-1 $67 $168 $171 $172 forward $41 $-1 #
coedge $-1 $173 $174 $67 $107 reversed $175 $-1 #
edge $-1 $176 -26.918912800914057 $177 26.918912800914057 $106 $178 forward 7 unknown #
face $-1 $179 $180 $25 $-1 $181 reversed single #
loop $-1 $-1 $182 $68 #
plane-surface $-1 -65.434125797296062 0 0 1 0 0 0 0 -1 forward_v I I I I #
coedge $-1 $183 $184 $185 $186 forward $69 $-1 #
coedge $-1 $185 $71 $182 $187 reversed $44 $-1 #
coedge $-1 $71 $185 $188 $189 reversed $44 $-1 #
coedge $-1 $190 $191 $71 $115 reversed $180 $-1 #
edge $-1 $192 -65.434125797296062 $193 65.434125797296062 $114 $194 forward 7 unknown #
face $-1 $195 $196 $26 $-1 $197 forward single #
loop $-1 $-1 $198 $72 #
plane-surface $-1 -142.35655506063102 -3.3423818729907406 112.106930938834 0 -1 0 0.5877852598018023 0 -0.80901698891910034 forward_v I I I I #
coedge $-1 $199 $200 $201 $202 reversed $73 $-1 #
coedge $-1 $121 $75 $203 $204 reversed $47 $-1 #
coedge $-1 $75 $120 $199 $205 reversed $47 $-1 #
coedge $-1 $201 $206 $75 $123 forward $196 $-1 #
edge $-1 $207 5.74415173301945 $208 11.905119766442894 $122 $209 forward 7 unknown #
loop $-1 $-1 $129 $76 #
plane-surface $-1 -65.434125797296062 -7.405269060118286 6.2322920886698228 -0.5877852598018023 0 0.80901698891910034 0.80901698891910034 0 0.5877852598018023 forward_v I I I I #
loop $-1 $-1 $210 $49 #
coedge $-1 $127 $127 $128 $211 reversed $77 $-1 #
coedge $-1 $128 $128 $127 $211 forward $79 $-1 #
coedge $-1 $129 $129 $80 $130 forward $124 $-1 #
edge $-1 $212 0 $212 6.2831853071796004 $129 $213 forward 7 unknown #
loop $-1 $-1 $136 $81 #
plane-surface $-1 -65.434125797296062 -7.405269060118286 6.2322920886698228 -0.5877852598018023 0 0.80901698891910034 0.80901698891910034 0 0.5877852598018023 forward_v I I I I #
loop $-1 $-1 $214 $52 #
coedge $-1 $134 $134 $135 $215 reversed $82 $-1 #
coedge $-1 $135 $135 $134 $215 forward $84 $-1 #
coedge $-1 $136 $136 $85 $137 forward $131 $-1 #
edge $-1 $216 0 $216 6.2831853071796004 $136 $217 forward 7 unknown #
face $-1 $218 $219 $29 $-1 $220 forward single #
loop $-1 $-1 $221 $86 #
plane-surface $-1 -142.35655506063102 24.349981624824551 112.106930938834 0 -1 0 0.5877852598018023 0 -0.80901698891910034 forward_v I I I I #
coedge $-1 $222 $223 $224 $225 reversed $87 $-1 #
coedge $-1 $143 $89 $226 $227 reversed $56 $-1 #
coedge $-1 $89 $142 $222 $228 reversed $56 $-1 #
coedge $-1 $224 $229 $89 $145 forward $219 $-1 #
edge $-1 $230 5.74415173301945 $231 11.905119766442894 $144 $232 forward 7 unknown #
loop $-1 $-1 $151 $90 #
plane-surface $-1 -65.434125797296062 20.287094437697007 6.2322920886698228 -0.5877852598018023 0 0.80901698891910034 0.80901698891910034 0 0.5877852598018023 forward_v I I I I #
loop $-1 $-1 $233 $58 #
coedge $-1 $149 $149 $150 $234 reversed $91 $-1 #
coedge $-1 $150 $150 $149 $234 forward $93 $-1 #
coedge $-1 $151 $151 $94 $152 forward $146 $-1 #
edge $-1 $235 0 $235 6.2831853071796004 $151 $236 forward 7 unknown #
loop $-1 $-1 $158 $95 #
plane-surface $-1 -65.434125797296062 20.287094437697007 6.2322920886698228 -0.5877852598018023 0 0.80901698891910034 0.80901698891910034 0 0.5877852598018023 forward_v I I I I #
loop $-1 $-1 $237 $61 #
coedge $-1 $156 $156 $157 $238 reversed $96 $-1 #
coedge $-1 $157 $157 $156 $238 forward $98 $-1 #
coedge $-1 $158 $158 $99 $159 forward $153 $-1 #
edge $-1 $239 0 $239 6.2831853071796004 $158 $240 forward 7 unknown #
face $-1 $241 $242 $24 $-1 $243 reversed single #
loop $-1 $-1 $244 $100 #
plane-surface $-1 -65.434125797296062 0 0 1 0 0 0 0 -1 forward_v I I I I #
coedge $-1 $245 $171 $246 $247 forward $101 $-1 #
coedge $-1 $248 $103 $245 $249 forward $65 $-1 #
coedge $-1 $103 $248 $250 $251 forward $65 $-1 #
coedge $-1 $174 $173 $103 $167 reversed $175 $-1 #
edge $-1 $252 -26.918912800914057 $253 26.918912800914057 $166 $254 forward 7 unknown #
coedge $-1 $105 $104 $255 $256 forward $41 $-1 #
coedge $-1 $257 $258 $104 $170 reversed $242 $-1 #
edge $-1 $177 -65.434125797296062 $259 65.434125797296062 $169 $260 forward 7 unknown #
coedge $-1 $163 $261 $105 $172 reversed $101 $-1 #
edge $-1 $262 -65.434125797296062 $176 65.434125797296062 $171 $263 forward 7 unknown #
coedge $-1 $166 $106 $261 $264 forward $175 $-1 #
coedge $-1 $106 $166 $257 $265 reversed $175 $-1 #
loop $-1 $-1 $173 $241 #
vertex $-1 $107 $266 #
vertex $-1 $107 $267 #
straight-curve $-1 65.434125797296062 0 10.70849746600649 0 1 0 I I #
face $-1 $268 $269 $25 $-1 $270 reversed single #
loop $-1 $-1 $190 $108 #
plane-surface $-1 0 -33.359825489703411 5.1613343357687205 0 0 1 1 0 0 forward_v I I I I #
coedge $-1 $271 $272 $112 $187 forward $109 $-1 #
coedge $-1 $273 $111 $272 $274 forward $69 $-1 #
coedge $-1 $111 $273 $275 $276 forward $69 $-1 #
coedge $-1 $113 $112 $111 $186 reversed $44 $-1 #
edge $-1 $277 -65.434125797296062 $278 65.434125797296062 $111 $279 forward 7 unknown #
edge $-1 $278 -10.70849746600649 $193 -5.1613343357687205 $182 $280 forward 7 unknown #
coedge $-1 $275 $281 $113 $189 forward $282 $-1 #
edge $-1 $192 5.1613343357687205 $277 10.70849746600649 $188 $283 forward 7 unknown #
coedge $-1 $284 $114 $281 $285 forward $180 $-1 #
coedge $-1 $114 $284 $271 $286 forward $180 $-1 #
vertex $-1 $189 $287 #
vertex $-1 $187 $288 #
straight-curve $-1 0 -26.918912800914057 5.1613343357687205 -1 0 0 I I #
face $-1 $-1 $289 $26 $-1 $290 reversed single #
loop $-1 $-1 $122 $116 #
plane-surface $-1 0 0 10.70849746600649 0 0 1 1 0 0 forward_v I I I I #
coedge $-1 $291 $292 $293 $294 reversed $117 $-1 #
coedge $-1 $295 $119 $121 $205 forward $73 $-1 #
coedge $-1 $119 $295 $291 $296 forward $73 $-1 #
coedge $-1 $293 $122 $119 $202 forward $196 $-1 #
edge $-1 $208 -7.7655217171866884 $297 0.36025265706840237 $201 $298 forward 7 unknown #
coedge $-1 $299 $300 $120 $204 forward $289 $-1 #
edge $-1 $301 -49.821173380747176 $207 -45.344968003410507 $203 $302 forward 7 unknown #
edge $-1 $208 -7.6153753478711232 $301 0 $121 $303 forward 7 unknown #
coedge $-1 $122 $293 $299 $304 forward $196 $-1 #
vertex $-1 $204 $305 #
vertex $-1 $123 $306 #
straight-curve $-1 -71.178277530315512 -11.468156247245831 10.708497466006492 1 0 0 I I #
coedge $-1 $210 $210 $-1 $307 reversed $126 $-1 #
edge $-1 $308 0 $308 6.2831853071796004 $127 $309 forward 7 unknown #
vertex $-1 $130 $310 #
ellipse-curve $-1 -62.353641780584347 -9.1465064260300935 8.4703947773381536 -0.5877852598018023 0 0.80901698891910034 0.20225424722977509 0 0.14694631495045057 1 I I #
coedge $-1 $214 $214 $-1 $311 reversed $133 $-1 #
edge $-1 $312 0 $312 6.2831853071796004 $134 $313 forward 7 unknown #
vertex $-1 $137 $314 #
ellipse-curve $-1 -62.353641780584347 -5.6640316942064857 8.4703947773381536 -0.5877852598018023 0 0.80901698891910034 0.20225424722977509 0 0.14694631495045057 1 I I #
face $-1 $-1 $315 $29 $-1 $316 reversed single #
loop $-1 $-1 $144 $138 #
plane-surface $-1 0 0 10.70849746600649 0 0 1 1 0 0 forward_v I I I I #
coedge $-1 $317 $318 $319 $320 reversed $139 $-1 #
coedge $-1 $321 $141 $143 $228 forward $87 $-1 #
coedge $-1 $141 $321 $317 $322 forward $87 $-1 #
coedge $-1 $319 $144 $141 $225 forward $219 $-1 #
edge $-1 $231 6.08066003172096 $323 14.206434405976047 $224 $324 forward 7 unknown #
coedge $-1 $325 $326 $142 $227 forward $315 $-1 #
edge $-1 $327 -49.821173380747176 $230 -45.344968003410507 $226 $328 forward 7 unknown #
edge $-1 $231 -7.6153753478711232 $327 0 $143 $329 forward 7 unknown #
coedge $-1 $144 $319 $325 $330 forward $219 $-1 #
vertex $-1 $145 $331 #
vertex $-1 $145 $332 #
straight-curve $-1 -71.178277530315512 16.224207250569464 10.708497466006492 1 0 0 I I #
coedge $-1 $233 $233 $-1 $333 reversed $148 $-1 #
edge $-1 $334 0 $334 6.2831853071796004 $149 $335 forward 7 unknown #
vertex $-1 $152 $336 #
ellipse-curve $-1 -62.353641780584347 18.5458570717852 8.4703947773381536 -0.5877852598018023 0 0.80901698891910034 0.20225424722977509 0 0.14694631495045057 1 I I #
coedge $-1 $237 $237 $-1 $337 reversed $155 $-1 #
edge $-1 $338 0 $338 6.2831853071796004 $156 $339 forward 7 unknown #
vertex $-1 $159 $340 #
ellipse-curve $-1 -62.353641780584347 22.028331803608808 8.4703947773381536 -0.5877852598018023 0 0.80901698891910034 0.20225424722977509 0 0.14694631495045057 1 I I #
face $-1 $-1 $175 $24 $-1 $341 reversed single #
loop $-1 $-1 $257 $160 #
plane-surface $-1 0 26.918912800914057 0 0 -1 0 0 0 -1 forward_v I I I I #
coedge $-1 $342 $255 $258 $343 forward $161 $-1 #
coedge $-1 $261 $163 $164 $249 reversed $101 $-1 #
coedge $-1 $255 $342 $163 $247 reversed $161 $-1 #
edge $-1 $262 -10.70849746600649 $344 10.70849746600649 $246 $345 forward 7 unknown #
coedge $-1 $165 $164 $342 $346 forward $65 $-1 #
edge $-1 $253 -65.434125797296062 $344 65.434125797296062 $245 $347 forward 7 unknown #
coedge $-1 $258 $257 $165 $251 reversed $242 $-1 #
edge $-1 $348 -65.434125797296062 $252 65.434125797296062 $250 $349 forward 7 unknown #
vertex $-1 $167 $350 #
vertex $-1 $264 $351 #
straight-curve $-1 65.434125797296062 0 -10.70849746600649 0 -1 0 I I #
coedge $-1 $244 $246 $168 $256 reversed $161 $-1 #
edge $-1 $259 -26.918912800914057 $262 26.918912800914057 $255 $352 forward 7 unknown #
coedge $-1 $250 $169 $174 $265 forward $242 $-1 #
coedge $-1 $169 $250 $244 $343 reversed $242 $-1 #
vertex $-1 $170 $353 #
straight-curve $-1 0 26.918912800914057 10.70849746600649 -1 0 0 I I #
coedge $-1 $171 $245 $173 $264 reversed $101 $-1 #
vertex $-1 $256 $354 #
straight-curve $-1 0 -26.918912800914057 10.70849746600649 1 0 0 I I #
edge $-1 $176 -10.70849746600649 $253 10.70849746600649 $173 $355 forward 7 unknown #
edge $-1 $177 -10.70849746600649 $252 10.70849746600649 $174 $356 forward 7 unknown #
point $-1 65.434125797296062 -26.918912800914057 10.70849746600649 #
point $-1 65.434125797296062 26.918912800914057 10.70849746600649 #
face $-1 $-1 $282 $25 $-1 $357 reversed single #
loop $-1 $-1 $358 $179 #
plane-surface $-1 0 -39.800738178492765 7.9349159008876047 0 1 0 0 0 1 forward_v I I I I #
coedge $-1 $359 $182 $191 $286 reversed $109 $-1 #
coedge $-1 $182 $359 $183 $274 reversed $109 $-1 #
coedge $-1 $184 $183 $360 $361 forward $69 $-1 #
edge $-1 $278 26.918912800914057 $362 39.800738178492765 $272 $363 forward 7 unknown #
coedge $-1 $364 $188 $184 $276 reversed $282 $-1 #
edge $-1 $365 -39.800738178492765 $277 -26.918912800914057 $275 $366 forward 7 unknown #
vertex $-1 $189 $367 #
vertex $-1 $274 $368 #
straight-curve $-1 0 -26.918912800914057 10.70849746600649 -1 0 0 I I #
straight-curve $-1 -65.434125797296062 -26.918912800914057 0 0 0 -1 I I #
coedge $-1 $188 $364 $190 $285 reversed $282 $-1 #
loop $-1 $-1 $188 $268 #
straight-curve $-1 65.434125797296062 -26.918912800914057 0 0 0 1 I I #
coedge $-1 $191 $190 $369 $370 forward $180 $-1 #
edge $-1 $192 -6.4409126887893571 $371 6.4409126887893535 $281 $372 forward 7 unknown #
edge $-1 $373 -6.4409126887893535 $193 6.4409126887893571 $271 $374 forward 7 unknown #
point $-1 65.434125797296062 -26.918912800914054 5.1613343357687205 #
point $-1 -65.434125797296062 -26.918912800914054 5.1613343357687205 #
loop $-1 $-1 $203 $195 #
plane-surface $-1 -65.434125797296062 0 0 1 0 0 0 0 -1 forward_v I I I I #
coedge $-1 $292 $198 $200 $296 reversed $117 $-1 #
coedge $-1 $198 $291 $375 $376 reversed $117 $-1 #
coedge $-1 $206 $201 $198 $294 forward $196 $-1 #
edge $-1 $297 -11.905119766442894 $377 -5.74415173301945 $293 $378 forward 7 unknown #
coedge $-1 $200 $199 $300 $379 reversed $73 $-1 #
edge $-1 $380 0 $297 7.6153753478711232 $291 $381 forward 7 unknown #
vertex $-1 $202 $382 #
straight-curve $-1 -59.273157763872618 -3.702634530059143 10.70849746600649 0 1 0 I I #
coedge $-1 $375 $203 $206 $304 reversed $289 $-1 #
coedge $-1 $203 $375 $295 $379 forward $289 $-1 #
vertex $-1 $204 $383 #
straight-curve $-1 -65.434125797296062 -11.468156247245831 56.053465469416999 0 0 1 I I #
straight-curve $-1 -65.434125797296062 -11.468156247245831 6.2322920886698228 -0.80901698891910034 0 -0.5877852598018023 I I #
edge $-1 $377 3.3423818729907406 $207 11.468156247245831 $299 $384 forward 7 unknown #
point $-1 -65.434125797296062 -11.468156247245831 10.70849746600649 #
point $-1 -59.273157763872618 -11.468156247245831 10.70849746600649 #
edge $-1 $385 1 $385 0 $210 $-1 forward 7 unknown #
vertex $-1 $211 $386 #
ellipse-curve $-1 -61.765856520782542 -9.1465064260300935 7.6613777884190544 -0.5877852598018023 0 0.80901698891910034 0.20225424722977509 0 0.14694631495045057 1 I I #
point $-1 -62.151387533354566 -9.1465064260300935 8.6173410922886049 #
edge $-1 $387 1 $387 0 $214 $-1 forward 7 unknown #
vertex $-1 $215 $388 #
ellipse-curve $-1 -61.765856520782542 -5.6640316942064857 7.6613777884190544 -0.5877852598018023 0 0.80901698891910034 0.20225424722977509 0 0.14694631495045057 1 I I #
point $-1 -62.151387533354566 -5.6640316942064857 8.6173410922886049 #
loop $-1 $-1 $226 $218 #
plane-surface $-1 -65.434125797296062 0 0 1 0 0 0 0 -1 forward_v I I I I #
coedge $-1 $318 $221 $223 $322 reversed $139 $-1 #
coedge $-1 $221 $317 $389 $390 reversed $139 $-1 #
coedge $-1 $229 $224 $221 $320 forward $219 $-1 #
edge $-1 $323 -11.905119766442894 $391 -5.74415173301945 $319 $392 forward 7 unknown #
coedge $-1 $223 $222 $326 $393 reversed $87 $-1 #
edge $-1 $394 0 $323 7.6153753478711232 $317 $395 forward 7 unknown #
vertex $-1 $225 $396 #
straight-curve $-1 -59.273157763872618 10.143547218848504 10.70849746600649 0 1 0 I I #
coedge $-1 $389 $226 $229 $330 reversed $315 $-1 #
coedge $-1 $226 $389 $321 $393 forward $315 $-1 #
vertex $-1 $227 $397 #
straight-curve $-1 -65.434125797296062 16.224207250569464 56.053465469416999 0 0 1 I I #
straight-curve $-1 -65.434125797296062 16.224207250569464 6.2322920886698228 -0.80901698891910034 0 -0.5877852598018023 I I #
edge $-1 $391 -24.349981624824551 $230 -16.224207250569464 $325 $398 forward 7 unknown #
point $-1 -65.434125797296062 16.224207250569464 10.70849746600649 #
point $-1 -59.273157763872618 16.224207250569464 10.70849746600649 #
edge $-1 $399 1 $399 0 $233 $-1 forward 7 unknown #
vertex $-1 $234 $400 #
ellipse-curve $-1 -61.765856520782542 18.5458570717852 7.6613777884190544 -0.5877852598018023 0 0.80901698891910034 0.20225424722977509 0 0.14694631495045057 1 I I #
point $-1 -62.151387533354566 18.5458570717852 8.6173410922886049 #
edge $-1 $401 1 $401 0 $237 $-1 forward 7 unknown #
vertex $-1 $238 $402 #
ellipse-curve $-1 -61.765856520782542 22.028331803608808 7.6613777884190544 -0.5877852598018023 0 0.80901698891910034 0.20225424722977509 0 0.14694631495045057 1 I I #
point $-1 -62.151387533354566 22.028331803608808 8.6173410922886049 #
plane-surface $-1 65.434125797296062 0 0 -1 0 0 0 0 1 forward_v I I I I #
coedge $-1 $246 $244 $248 $346 reversed $161 $-1 #
edge $-1 $259 -10.70849746600649 $348 10.70849746600649 $258 $403 forward 7 unknown #
vertex $-1 $346 $404 #
straight-curve $-1 -65.434125797296062 -26.918912800914057 0 0 0 -1 I I #
edge $-1 $344 -26.918912800914057 $348 26.918912800914057 $342 $405 forward 7 unknown #
straight-curve $-1 0 -26.918912800914057 -10.70849746600649 -1 0 0 I I #
vertex $-1 $251 $406 #
straight-curve $-1 0 26.918912800914057 -10.70849746600649 1 0 0 I I #
point $-1 65.434125797296062 26.918912800914057 -10.70849746600649 #
point $-1 65.434125797296062 -26.918912800914057 -10.70849746600649 #
straight-curve $-1 -65.434125797296062 0 10.70849746600649 0 -1 0 I I #
point $-1 -65.434125797296062 26.918912800914057 10.70849746600649 #
point $-1 -65.434125797296062 -26.918912800914057 10.70849746600649 #
straight-curve $-1 65.434125797296062 -26.918912800914057 0 0 0 -1 I I #
straight-curve $-1 65.434125797296062 26.918912800914057 0 0 0 -1 I I #
plane-surface $-1 65.434125797296062 0 0 -1 0 0 0 0 1 forward_v I I I I #
coedge $-1 $369 $360 $359 $407 forward $269 $-1 #
coedge $-1 $272 $271 $358 $407 reversed $109 $-1 #
coedge $-1 $358 $408 $273 $361 reversed $269 $-1 #
edge $-1 $362 -65.434125797296062 $365 65.434125797296062 $360 $409 forward 7 unknown #
vertex $-1 $274 $410 #
straight-curve $-1 -65.434125797296062 0 10.70849746600649 0 -1 0 I I #
coedge $-1 $281 $275 $408 $411 forward $282 $-1 #
vertex $-1 $276 $412 #
straight-curve $-1 65.434125797296062 0 10.70849746600649 0 1 0 I I #
point $-1 65.434125797296062 -26.918912800914057 10.70849746600649 #
point $-1 -65.434125797296062 -26.918912800914057 10.70849746600649 #
coedge $-1 $408 $358 $284 $370 reversed $269 $-1 #
edge $-1 $371 -65.434125797296062 $373 65.434125797296062 $369 $413 forward 7 unknown #
vertex $-1 $411 $414 #
straight-curve $-1 65.434125797296062 -33.359825489703411 5.1613343357687205 0 -1 0 I I #
vertex $-1 $286 $415 #
straight-curve $-1 -65.434125797296062 -33.359825489703411 5.1613343357687205 0 1 0 I I #
coedge $-1 $300 $299 $292 $376 forward $289 $-1 #
edge $-1 $377 45.344968003410507 $380 49.821173380747176 $375 $416 forward 7 unknown #
vertex $-1 $304 $417 #
straight-curve $-1 -71.178277530315512 -3.3423818729907406 10.708497466006492 -1 0 0 I I #
edge $-1 $380 -0.36025265706840237 $301 7.7655217171866884 $300 $418 forward 7 unknown #
vertex $-1 $379 $419 #
straight-curve $-1 -65.434125797296062 -3.3423818729907406 6.2322920886698228 0.80901698891910034 0 0.5877852598018023 I I #
point $-1 -59.273157763872618 -3.3423818729907406 10.70849746600649 #
point $-1 -65.434125797296062 -11.468156247245831 6.2322920886698228 #
straight-curve $-1 -65.434125797296062 0 10.70849746600649 0 -1 0 I I #
vertex $-1 $307 $420 #
point $-1 -61.563602273552767 -9.1465064260300935 7.8083241033695057 #
vertex $-1 $311 $421 #
point $-1 -61.563602273552767 -5.6640316942064857 7.8083241033695057 #
coedge $-1 $326 $325 $318 $390 forward $315 $-1 #
edge $-1 $391 45.344968003410507 $394 49.821173380747176 $389 $422 forward 7 unknown #
vertex $-1 $330 $423 #
straight-curve $-1 -71.178277530315512 24.349981624824551 10.708497466006492 -1 0 0 I I #
edge $-1 $394 -14.206434405976047 $327 -6.08066003172096 $326 $424 forward 7 unknown #
vertex $-1 $393 $425 #
straight-curve $-1 -65.434125797296062 24.349981624824551 6.2322920886698228 0.80901698891910034 0 0.5877852598018023 I I #
point $-1 -59.273157763872618 24.349981624824551 10.70849746600649 #
point $-1 -65.434125797296062 16.224207250569464 6.2322920886698228 #
straight-curve $-1 -65.434125797296062 0 10.70849746600649 0 -1 0 I I #
vertex $-1 $333 $426 #
point $-1 -61.563602273552767 18.5458570717852 7.8083241033695057 #
vertex $-1 $337 $427 #
point $-1 -61.563602273552767 22.028331803608808 7.8083241033695057 #
straight-curve $-1 -65.434125797296062 26.918912800914057 0 0 0 -1 I I #
point $-1 -65.434125797296062 -26.918912800914057 -10.70849746600649 #
straight-curve $-1 -65.434125797296062 0 -10.70849746600649 0 1 0 I I #
point $-1 -65.434125797296062 26.918912800914057 -10.70849746600649 #
edge $-1 $362 -2.7735815651188833 $373 2.7735815651188842 $359 $428 forward 7 unknown #
coedge $-1 $360 $369 $364 $411 reversed $269 $-1 #
straight-curve $-1 0 -39.800738178492765 10.708497466006488 1 0 0 I I #
point $-1 -65.434125797296062 -39.800738178492765 10.708497466006488 #
edge $-1 $365 -2.7735815651188833 $371 2.7735815651188842 $364 $429 forward 7 unknown #
point $-1 65.434125797296062 -39.800738178492765 10.708497466006488 #
straight-curve $-1 0 -39.800738178492765 5.1613343357687205 -1 0 0 I I #
point $-1 65.434125797296062 -39.800738178492765 5.1613343357687205 #
point $-1 -65.434125797296062 -39.800738178492765 5.1613343357687205 #
straight-curve $-1 -65.434125797296062 -3.3423818729907406 56.053465469416999 0 0 -1 I I #
point $-1 -65.434125797296062 -3.3423818729907406 10.70849746600649 #
straight-curve $-1 -65.434125797296062 -3.702634530059143 6.2322920886698263 0 -1 0 I I #
point $-1 -65.434125797296062 -3.3423818729907406 6.2322920886698228 #
point $-1 -61.618910205832087 -9.1465064260300935 7.45912354118928 #
point $-1 -61.618910205832087 -5.6640316942064857 7.45912354118928 #
straight-curve $-1 -65.434125797296062 24.349981624824551 56.053465469416999 0 0 -1 I I #
point $-1 -65.434125797296062 24.349981624824551 10.70849746600649 #
straight-curve $-1 -65.434125797296062 10.143547218848504 6.2322920886698263 0 -1 0 I I #
point $-1 -65.434125797296062 24.349981624824551 6.2322920886698228 #
point $-1 -61.618910205832087 18.5458570717852 7.45912354118928 #
point $-1 -61.618910205832087 22.028331803608808 7.45912354118928 #
straight-curve $-1 -65.434125797296062 -39.800738178492765 7.9349159008876047 0 0 -1 I I #
straight-curve $-1 65.434125797296062 -39.800738178492765 7.9349159008876047 0 0 -1 I I #
End-of-ACIS-data 