500 0 16 0           
7 Unknown 11 ACIS 5.0 NT 24 Fri Mar 26 00:20:59 1999 
-1 9.9999999999999995e-007 1e-010 
body $-1 $16 $-1 $17 #
body $-1 $18 $-1 $19 #
body $-1 $20 $-1 $21 #
body $-1 $22 $-1 $23 #
body $-1 $24 $-1 $25 #
body $-1 $26 $-1 $27 #
body $-1 $28 $-1 $29 #
body $-1 $30 $-1 $31 #
body $-1 $32 $-1 $33 #
body $-1 $34 $-1 $35 #
body $-1 $36 $-1 $37 #
body $-1 $38 $-1 $39 #
body $-1 $40 $-1 $41 #
body $-1 $42 $-1 $43 #
body $-1 $44 $-1 $45 #
body $-1 $46 $-1 $47 #
lump $-1 $-1 $48 $0 #
transform $-1 1 0 0 0 1 0 0 0 1 49.054231391338845 24.243572148029433 11.014633104188023 1 rotate no_reflect no_shear #
lump $-1 $-1 $49 $1 #
transform $-1 1 0 0 0 1 0 0 0 1 49.054231391338845 24.243572148029433 11.014633104188023 1 rotate no_reflect no_shear #
lump $-1 $-1 $50 $2 #
transform $-1 1 0 0 0 1 0 0 0 1 49.054231391338845 24.243572148029433 11.014633104188023 1 rotate no_reflect no_shear #
lump $-1 $-1 $51 $3 #
transform $-1 1 0 0 0 1 0 0 0 1 49.054231391338845 24.243572148029433 11.014633104188023 1 rotate no_reflect no_shear #
lump $-1 $-1 $52 $4 #
transform $-1 1 0 0 0 1 0 0 0 1 49.054231391338845 24.243572148029433 11.014633104188023 1 rotate no_reflect no_shear #
lump $-1 $-1 $53 $5 #
transform $-1 1 0 0 0 1 0 0 0 1 49.054231391338845 24.243572148029433 11.014633104188023 1 rotate no_reflect no_shear #
lump $-1 $-1 $54 $6 #
transform $-1 1 0 0 0 1 0 0 0 1 49.054231391338845 24.243572148029433 11.014633104188023 1 rotate no_reflect no_shear #
lump $-1 $-1 $55 $7 #
transform $-1 1 0 0 0 1 0 0 0 1 49.054231391338845 24.243572148029433 11.014633104188023 1 rotate no_reflect no_shear #
lump $-1 $-1 $56 $8 #
transform $-1 1 0 0 0 1 0 0 0 1 49.054231391338845 24.243572148029433 11.014633104188023 1 rotate no_reflect no_shear #
lump $-1 $-1 $57 $9 #
transform $-1 1 0 0 0 1 0 0 0 1 49.054231391338845 24.243572148029433 11.014633104188023 1 rotate no_reflect no_shear #
lump $-1 $-1 $58 $10 #
transform $-1 1 0 0 0 1 0 0 0 1 49.054231391338845 24.243572148029433 11.014633104188023 1 rotate no_reflect no_shear #
lump $-1 $-1 $59 $11 #
transform $-1 1 0 0 0 1 0 0 0 1 49.054231391338845 24.243572148029433 11.014633104188023 1 rotate no_reflect no_shear #
lump $-1 $-1 $60 $12 #
transform $-1 1 0 0 0 1 0 0 0 1 49.054231391338845 24.243572148029433 11.014633104188023 1 rotate no_reflect no_shear #
lump $-1 $-1 $61 $13 #
transform $-1 1 0 0 0 1 0 0 0 1 49.054231391338845 24.243572148029433 11.014633104188023 1 rotate no_reflect no_shear #
lump $-1 $-1 $62 $14 #
transform $-1 1 0 0 0 1 0 0 0 1 49.054231391338845 24.243572148029433 11.014633104188023 1 rotate no_reflect no_shear #
lump $-1 $-1 $63 $15 #
transform $-1 1 0 0 0 1 0 0 0 1 49.054231391338845 24.243572148029433 11.014633104188023 1 rotate no_reflect no_shear #
shell $-1 $-1 $-1 $64 $-1 $16 #
shell $-1 $-1 $-1 $65 $-1 $18 #
shell $-1 $-1 $-1 $66 $-1 $20 #
shell $-1 $-1 $-1 $67 $-1 $22 #
shell $-1 $-1 $-1 $68 $-1 $24 #
shell $-1 $-1 $-1 $69 $-1 $26 #
shell $-1 $-1 $-1 $70 $-1 $28 #
shell $-1 $-1 $-1 $71 $-1 $30 #
shell $-1 $-1 $-1 $72 $-1 $32 #
shell $-1 $-1 $-1 $73 $-1 $34 #
shell $-1 $-1 $-1 $74 $-1 $36 #
shell $-1 $-1 $-1 $75 $-1 $38 #
shell $-1 $-1 $-1 $76 $-1 $40 #
shell $-1 $-1 $-1 $77 $-1 $42 #
shell $-1 $-1 $-1 $78 $-1 $44 #
shell $-1 $-1 $-1 $79 $-1 $46 #
face $-1 $80 $81 $48 $-1 $82 forward single #
face $-1 $83 $84 $49 $-1 $85 forward single #
face $-1 $86 $87 $50 $-1 $88 reversed single #
face $-1 $89 $90 $51 $-1 $91 forward single #
face $-1 $92 $93 $52 $-1 $94 forward single #
face $-1 $95 $96 $53 $-1 $97 reversed single #
face $-1 $98 $99 $54 $-1 $100 forward single #
face $-1 $101 $102 $55 $-1 $103 forward single #
face $-1 $104 $105 $56 $-1 $106 reversed single #
face $-1 $107 $108 $57 $-1 $109 forward single #
face $-1 $110 $111 $58 $-1 $112 forward single #
face $-1 $113 $114 $59 $-1 $115 forward single #
face $-1 $116 $117 $60 $-1 $118 reversed single #
face $-1 $119 $120 $61 $-1 $121 forward single #
face $-1 $122 $123 $62 $-1 $124 forward single #
face $-1 $125 $126 $63 $-1 $127 forward single #
face $-1 $128 $129 $48 $-1 $130 reversed single #
loop $-1 $-1 $131 $64 #
plane-surface $-1 0 0 11.014633104188023 0 0 1 1 0 0 forward_v I I I I #
face $-1 $132 $133 $49 $-1 $134 reversed single #
loop $-1 $-1 $135 $65 #
plane-surface $-1 -44.169226314798053 0 -7.7461103976460199 0 0 1 1 0 0 forward_v I I I I #
face $-1 $136 $137 $50 $-1 $138 reversed single #
loop $-1 $-1 $139 $66 #
plane-surface $-1 -28.487950061929922 44.563164759232151 110.51847166825333 1 0 0 0 -0.6018150307709319 -0.79863550430605224 forward_v I I I I #
face $-1 $140 $141 $51 $-1 $142 forward single #
loop $-1 $143 $144 $67 #
cone-surface $-1 -25.500790190977831 17.912516548806021 5.668400680853412 0 -0.6018150307709319 -0.79863550430605224 1 0 0 1 I I 0 1 1 forward I I I I #
face $-1 $145 $146 $52 $-1 $147 forward single #
loop $-1 $148 $149 $68 #
cone-surface $-1 -21.020050384549691 17.912516548806021 5.668400680853412 0 -0.6018150307709319 -0.79863550430605224 1 0 0 1 I I 0 1 1 forward I I I I #
face $-1 $150 $151 $53 $-1 $152 reversed single #
loop $-1 $-1 $153 $69 #
plane-surface $-1 15.681276252868127 44.563164759232151 110.51847166825333 1 0 0 0 -0.6018150307709319 -0.79863550430605224 forward_v I I I I #
face $-1 $154 $155 $54 $-1 $156 forward single #
loop $-1 $157 $158 $70 #
cone-surface $-1 18.668436123820214 17.912516548806021 5.668400680853412 0 -0.6018150307709319 -0.79863550430605224 1 0 0 1 I I 0 1 1 forward I I I I #
face $-1 $159 $160 $55 $-1 $161 forward single #
loop $-1 $162 $163 $71 #
cone-surface $-1 23.149175930248362 17.912516548806021 5.668400680853412 0 -0.6018150307709319 -0.79863550430605224 1 0 0 1 I I 0 1 1 forward I I I I #
face $-1 $164 $165 $56 $-1 $166 reversed single #
loop $-1 $-1 $167 $72 #
plane-surface $-1 -30.376371930841863 -91.153383669574154 74.181545395850208 -1 0 0 0 -0.68199836817093118 0.7313536940579346 forward_v I I I I #
face $-1 $168 $169 $57 $-1 $170 forward single #
loop $-1 $171 $172 $73 #
cone-surface $-1 -37.502651376774175 -19.092076895134667 6.1341024524110246 0 0.68199836817093118 -0.7313536940579346 0.5 0 0 1 I I 0 1 0.5 forward I I I I #
face $-1 $173 $174 $58 $-1 $175 forward single #
loop $-1 $176 $177 $74 #
cone-surface $-1 -34.830296584549558 -19.092076895134667 6.1341024524110246 0 0.68199836817093118 -0.7313536940579346 0.5 0 0 1 I I 0 1 0.5 forward I I I I #
face $-1 $178 $179 $59 $-1 $180 forward single #
loop $-1 $181 $182 $75 #
cone-surface $-1 -32.157941792324948 -19.092076895134667 6.1341024524110246 0 0.68199836817093118 -0.7313536940579346 0.5 0 0 1 I I 0 1 0.5 forward I I I I #
face $-1 $183 $184 $60 $-1 $185 reversed single #
loop $-1 $-1 $186 $76 #
plane-surface $-1 13.79285438395619 -91.153383669574154 74.181545395850208 -1 0 0 0 -0.68199836817093118 0.7313536940579346 forward_v I I I I #
face $-1 $187 $188 $61 $-1 $189 forward single #
loop $-1 $190 $191 $77 #
cone-surface $-1 6.6665749380238779 -19.092076895134667 6.1341024524110246 0 0.68199836817093118 -0.7313536940579346 0.5 0 0 1 I I 0 1 0.5 forward I I I I #
face $-1 $192 $193 $62 $-1 $194 forward single #
loop $-1 $195 $196 $78 #
cone-surface $-1 9.3389297302484948 -19.092076895134667 6.1341024524110246 0 0.68199836817093118 -0.7313536940579346 0.5 0 0 1 I I 0 1 0.5 forward I I I I #
face $-1 $197 $198 $63 $-1 $199 forward single #
loop $-1 $200 $201 $79 #
cone-surface $-1 12.011284522473105 -19.092076895134667 6.1341024524110246 0 0.68199836817093118 -0.7313536940579346 0.5 0 0 1 I I 0 1 0.5 forward I I I I #
face $-1 $202 $203 $48 $-1 $204 reversed single #
loop $-1 $-1 $205 $80 #
plane-surface $-1 0 0 -11.014633104188023 0 0 1 1 0 0 forward_v I I I I #
coedge $-1 $206 $207 $208 $209 forward $81 $-1 #
face $-1 $210 $211 $49 $-1 $212 reversed single #
loop $-1 $-1 $213 $83 #
plane-surface $-1 -39.28422123825726 0 -9.3803717509170212 -1 0 0 0 0 1 forward_v I I I I #
coedge $-1 $214 $215 $216 $217 forward $84 $-1 #
face $-1 $218 $219 $50 $-1 $220 reversed single #
loop $-1 $-1 $221 $86 #
plane-surface $-1 -23.260420287763761 -14.47998278921385 32.165570017117972 0 0.6018150307709319 0.79863550430605224 1 0 0 forward_v I I I I #
coedge $-1 $222 $223 $224 $225 reversed $87 $-1 #
face $-1 $-1 $226 $51 $-1 $227 forward single #
loop $-1 $228 $229 $89 #
cone-surface $-1 -25.500790190977831 16.608210530015374 3.9375281671644426 0 -0.6018150307709319 -0.79863550430605224 0.5 0 0 1 I I -0.70710678118654746 0.70710678118654746 0.5 forward I I I I #
loop $-1 $-1 $230 $67 #
coedge $-1 $144 $144 $231 $232 reversed $90 $-1 #
face $-1 $-1 $233 $52 $-1 $234 forward single #
loop $-1 $235 $236 $92 #
cone-surface $-1 -21.020050384549691 16.608210530015374 3.9375281671644426 0 -0.6018150307709319 -0.79863550430605224 0.5 0 0 1 I I -0.70710678118654746 0.70710678118654746 0.5 forward I I I I #
loop $-1 $-1 $237 $68 #
coedge $-1 $149 $149 $238 $239 reversed $93 $-1 #
face $-1 $240 $241 $53 $-1 $242 reversed single #
loop $-1 $-1 $243 $95 #
plane-surface $-1 20.908806027034288 -14.47998278921385 32.165570017117972 0 0.6018150307709319 0.79863550430605224 1 0 0 forward_v I I I I #
coedge $-1 $244 $245 $246 $247 reversed $96 $-1 #
face $-1 $-1 $248 $54 $-1 $249 forward single #
loop $-1 $250 $251 $98 #
cone-surface $-1 18.668436123820214 16.608210530015374 3.9375281671644426 0 -0.6018150307709319 -0.79863550430605224 0.5 0 0 1 I I -0.70710678118654746 0.70710678118654746 0.5 forward I I I I #
loop $-1 $-1 $252 $70 #
coedge $-1 $158 $158 $253 $254 reversed $99 $-1 #
face $-1 $-1 $255 $55 $-1 $256 forward single #
loop $-1 $257 $258 $101 #
cone-surface $-1 23.149175930248362 16.608210530015374 3.9375281671644426 0 -0.6018150307709319 -0.79863550430605224 0.5 0 0 1 I I -0.70710678118654746 0.70710678118654746 0.5 forward I I I I #
loop $-1 $-1 $259 $71 #
coedge $-1 $163 $163 $260 $261 reversed $102 $-1 #
face $-1 $262 $263 $56 $-1 $264 reversed single #
loop $-1 $-1 $265 $104 #
plane-surface $-1 -34.830296584549558 -24.243572148029429 2.4295587213934908 0 -0.68199836817093118 0.7313536940579346 1 0 0 forward_v I I I I #
coedge $-1 $266 $267 $268 $269 reversed $105 $-1 #
face $-1 $-1 $270 $57 $-1 $271 forward single #
loop $-1 $272 $273 $107 #
cone-surface $-1 -37.502651376774175 -18.373264518549711 5.3632705685168229 0 0.68199836817093118 -0.7313536940579346 0.25 0 0 1 I I -0.70710678118654746 0.70710678118654746 0.25 forward I I I I #
loop $-1 $-1 $274 $73 #
coedge $-1 $172 $172 $275 $276 reversed $108 $-1 #
face $-1 $-1 $277 $58 $-1 $278 forward single #
loop $-1 $279 $280 $110 #
cone-surface $-1 -34.830296584549558 -18.373264518549711 5.3632705685168229 0 0.68199836817093118 -0.7313536940579346 0.25 0 0 1 I I -0.70710678118654746 0.70710678118654746 0.25 forward I I I I #
loop $-1 $-1 $281 $74 #
coedge $-1 $177 $177 $282 $283 reversed $111 $-1 #
face $-1 $-1 $284 $59 $-1 $285 forward single #
loop $-1 $286 $287 $113 #
cone-surface $-1 -32.157941792324948 -18.373264518549711 5.3632705685168229 0 0.68199836817093118 -0.7313536940579346 0.25 0 0 1 I I -0.70710678118654746 0.70710678118654746 0.25 forward I I I I #
loop $-1 $-1 $288 $75 #
coedge $-1 $182 $182 $289 $290 reversed $114 $-1 #
face $-1 $291 $292 $60 $-1 $293 reversed single #
loop $-1 $-1 $294 $116 #
plane-surface $-1 9.3389297302484948 -24.243572148029429 2.4295587213934908 0 -0.68199836817093118 0.7313536940579346 1 0 0 forward_v I I I I #
coedge $-1 $295 $296 $297 $298 reversed $117 $-1 #
face $-1 $-1 $299 $61 $-1 $300 forward single #
loop $-1 $301 $302 $119 #
cone-surface $-1 6.6665749380238779 -18.373264518549711 5.3632705685168229 0 0.68199836817093118 -0.7313536940579346 0.25 0 0 1 I I -0.70710678118654746 0.70710678118654746 0.25 forward I I I I #
loop $-1 $-1 $303 $77 #
coedge $-1 $191 $191 $304 $305 reversed $120 $-1 #
face $-1 $-1 $306 $62 $-1 $307 forward single #
loop $-1 $308 $309 $122 #
cone-surface $-1 9.3389297302484948 -18.373264518549711 5.3632705685168229 0 0.68199836817093118 -0.7313536940579346 0.25 0 0 1 I I -0.70710678118654746 0.70710678118654746 0.25 forward I I I I #
loop $-1 $-1 $310 $78 #
coedge $-1 $196 $196 $311 $312 reversed $123 $-1 #
face $-1 $-1 $313 $63 $-1 $314 forward single #
loop $-1 $315 $316 $125 #
cone-surface $-1 12.011284522473105 -18.373264518549711 5.3632705685168229 0 0.68199836817093118 -0.7313536940579346 0.25 0 0 1 I I -0.70710678118654746 0.70710678118654746 0.25 forward I I I I #
loop $-1 $-1 $317 $79 #
coedge $-1 $201 $201 $318 $319 reversed $126 $-1 #
face $-1 $320 $321 $48 $-1 $322 reversed single #
loop $-1 $-1 $323 $128 #
plane-surface $-1 0 -24.243572148029433 0 0 1 0 0 0 1 forward_v I I I I #
coedge $-1 $324 $325 $326 $327 forward $129 $-1 #
coedge $-1 $328 $131 $329 $330 forward $81 $-1 #
coedge $-1 $131 $328 $331 $332 forward $81 $-1 #
coedge $-1 $333 $334 $131 $209 reversed $335 $-1 #
edge $-1 $336 -24.243572148029433 $337 24.243572148029433 $208 $338 forward 7 unknown #
face $-1 $339 $340 $49 $-1 $341 reversed single #
loop $-1 $-1 $342 $132 #
plane-surface $-1 0 0 -11.014633104188023 0 0 1 1 0 0 forward_v I I I I #
coedge $-1 $343 $216 $344 $345 reversed $133 $-1 #
coedge $-1 $346 $135 $347 $348 reversed $84 $-1 #
coedge $-1 $135 $346 $349 $350 reversed $84 $-1 #
coedge $-1 $213 $351 $135 $217 reversed $133 $-1 #
edge $-1 $352 -24.243572148029433 $353 24.243572148029433 $216 $354 forward 7 unknown #
face $-1 $355 $356 $50 $-1 $357 reversed single #
loop $-1 $-1 $358 $136 #
plane-surface $-1 -18.0328905135976 44.563164759232151 110.51847166825333 -1 0 0 0 0.6018150307709319 0.79863550430605224 forward_v I I I I #
coedge $-1 $359 $360 $361 $362 reversed $137 $-1 #
coedge $-1 $223 $139 $363 $364 reversed $87 $-1 #
coedge $-1 $139 $222 $359 $365 reversed $87 $-1 #
coedge $-1 $361 $366 $139 $225 forward $367 $-1 #
edge $-1 $368 -1.9619897684133569 $369 8.6933244232230855 $224 $370 forward 7 unknown #
loop $-1 $-1 $231 $140 #
plane-surface $-1 -23.260420287763761 -14.47998278921385 32.165570017117972 0 0.6018150307709319 0.79863550430605224 1 0 0 forward_v I I I I #
loop $-1 $-1 $371 $89 #
coedge $-1 $229 $229 $230 $372 reversed $141 $-1 #
coedge $-1 $230 $230 $229 $372 forward $143 $-1 #
coedge $-1 $231 $231 $144 $232 forward $226 $-1 #
edge $-1 $373 -1.398493577192428e-015 $373 6.2831853071795987 $231 $374 forward 7 unknown #
loop $-1 $-1 $238 $145 #
plane-surface $-1 -23.260420287763761 -14.47998278921385 32.165570017117972 0 0.6018150307709319 0.79863550430605224 1 0 0 forward_v I I I I #
loop $-1 $-1 $375 $92 #
coedge $-1 $236 $236 $237 $376 reversed $146 $-1 #
coedge $-1 $237 $237 $236 $376 forward $148 $-1 #
coedge $-1 $238 $238 $149 $239 forward $233 $-1 #
edge $-1 $377 -1.398493577192428e-015 $377 6.2831853071795987 $238 $378 forward 7 unknown #
face $-1 $379 $380 $53 $-1 $381 forward single #
loop $-1 $-1 $382 $150 #
plane-surface $-1 26.136335801200449 44.563164759232151 110.51847166825333 -1 0 0 0 0.6018150307709319 0.79863550430605224 forward_v I I I I #
coedge $-1 $383 $384 $385 $386 reversed $151 $-1 #
coedge $-1 $245 $153 $387 $388 reversed $96 $-1 #
coedge $-1 $153 $244 $383 $389 reversed $96 $-1 #
coedge $-1 $385 $390 $153 $247 forward $380 $-1 #
edge $-1 $391 -1.9619897684133569 $392 8.6933244232230855 $246 $393 forward 7 unknown #
loop $-1 $-1 $253 $154 #
plane-surface $-1 20.908806027034288 -14.47998278921385 32.165570017117972 0 0.6018150307709319 0.79863550430605224 1 0 0 forward_v I I I I #
loop $-1 $-1 $394 $98 #
coedge $-1 $251 $251 $252 $395 reversed $155 $-1 #
coedge $-1 $252 $252 $251 $395 forward $157 $-1 #
coedge $-1 $253 $253 $158 $254 forward $248 $-1 #
edge $-1 $396 -1.398493577192428e-015 $396 6.2831853071795987 $253 $397 forward 7 unknown #
loop $-1 $-1 $260 $159 #
plane-surface $-1 20.908806027034288 -14.47998278921385 32.165570017117972 0 0.6018150307709319 0.79863550430605224 1 0 0 forward_v I I I I #
loop $-1 $-1 $398 $101 #
coedge $-1 $258 $258 $259 $399 reversed $160 $-1 #
coedge $-1 $259 $259 $258 $399 forward $162 $-1 #
coedge $-1 $260 $260 $163 $261 forward $255 $-1 #
edge $-1 $400 -1.398493577192428e-015 $400 6.2831853071795987 $260 $401 forward 7 unknown #
face $-1 $402 $403 $56 $-1 $404 forward single #
loop $-1 $-1 $405 $164 #
plane-surface $-1 -39.284221238257253 -91.153383669574154 74.181545395850208 1 0 0 0 0.68199836817093118 -0.7313536940579346 forward_v I I I I #
coedge $-1 $406 $407 $408 $409 reversed $165 $-1 #
coedge $-1 $267 $167 $410 $411 reversed $105 $-1 #
coedge $-1 $167 $266 $406 $412 reversed $105 $-1 #
coedge $-1 $408 $413 $167 $269 forward $403 $-1 #
edge $-1 $414 21.333119686757644 $415 30.539484623462702 $268 $416 forward 7 unknown #
loop $-1 $-1 $275 $168 #
plane-surface $-1 -34.830296584549558 -24.243572148029429 2.4295587213934908 0 -0.68199836817093118 0.7313536940579346 1 0 0 forward_v I I I I #
loop $-1 $-1 $417 $107 #
coedge $-1 $273 $273 $274 $418 reversed $169 $-1 #
coedge $-1 $274 $274 $273 $418 forward $171 $-1 #
coedge $-1 $275 $275 $172 $276 forward $270 $-1 #
edge $-1 $419 3.8257076627237955e-015 $419 6.283185307179604 $275 $420 forward 7 unknown #
loop $-1 $-1 $282 $173 #
plane-surface $-1 -34.830296584549558 -24.243572148029429 2.4295587213934908 0 -0.68199836817093118 0.7313536940579346 1 0 0 forward_v I I I I #
loop $-1 $-1 $421 $110 #
coedge $-1 $280 $280 $281 $422 reversed $174 $-1 #
coedge $-1 $281 $281 $280 $422 forward $176 $-1 #
coedge $-1 $282 $282 $177 $283 forward $277 $-1 #
edge $-1 $423 3.8257076627237955e-015 $423 6.283185307179604 $282 $424 forward 7 unknown #
loop $-1 $-1 $289 $178 #
plane-surface $-1 -34.830296584549558 -24.243572148029429 2.4295587213934908 0 -0.68199836817093118 0.7313536940579346 1 0 0 forward_v I I I I #
loop $-1 $-1 $425 $113 #
coedge $-1 $287 $287 $288 $426 reversed $179 $-1 #
coedge $-1 $288 $288 $287 $426 forward $181 $-1 #
coedge $-1 $289 $289 $182 $290 forward $284 $-1 #
edge $-1 $427 3.8257076627237955e-015 $427 6.283185307179604 $289 $428 forward 7 unknown #
face $-1 $429 $430 $60 $-1 $431 reversed single #
loop $-1 $-1 $432 $183 #
plane-surface $-1 4.8850050765408009 -91.153383669574154 74.181545395850208 1 0 0 0 0.68199836817093118 -0.7313536940579346 forward_v I I I I #
coedge $-1 $433 $434 $435 $436 reversed $184 $-1 #
coedge $-1 $296 $186 $437 $438 reversed $117 $-1 #
coedge $-1 $186 $295 $433 $439 reversed $117 $-1 #
coedge $-1 $435 $440 $186 $298 forward $441 $-1 #
edge $-1 $442 21.333119686757644 $443 30.539484623462702 $297 $444 forward 7 unknown #
loop $-1 $-1 $304 $187 #
plane-surface $-1 9.3389297302484948 -24.243572148029429 2.4295587213934908 0 -0.68199836817093118 0.7313536940579346 1 0 0 forward_v I I I I #
loop $-1 $-1 $445 $119 #
coedge $-1 $302 $302 $303 $446 reversed $188 $-1 #
coedge $-1 $303 $303 $302 $446 forward $190 $-1 #
coedge $-1 $304 $304 $191 $305 forward $299 $-1 #
edge $-1 $447 3.8257076627237955e-015 $447 6.283185307179604 $304 $448 forward 7 unknown #
loop $-1 $-1 $311 $192 #
plane-surface $-1 9.3389297302484948 -24.243572148029429 2.4295587213934908 0 -0.68199836817093118 0.7313536940579346 1 0 0 forward_v I I I I #
loop $-1 $-1 $449 $122 #
coedge $-1 $309 $309 $310 $450 reversed $193 $-1 #
coedge $-1 $310 $310 $309 $450 forward $195 $-1 #
coedge $-1 $311 $311 $196 $312 forward $306 $-1 #
edge $-1 $451 3.8257076627237955e-015 $451 6.283185307179604 $311 $452 forward 7 unknown #
loop $-1 $-1 $318 $197 #
plane-surface $-1 9.3389297302484948 -24.243572148029429 2.4295587213934908 0 -0.68199836817093118 0.7313536940579346 1 0 0 forward_v I I I I #
loop $-1 $-1 $453 $125 #
coedge $-1 $316 $316 $317 $454 reversed $198 $-1 #
coedge $-1 $317 $317 $316 $454 forward $200 $-1 #
coedge $-1 $318 $318 $201 $319 forward $313 $-1 #
edge $-1 $455 3.8257076627237955e-015 $455 6.283185307179604 $318 $456 forward 7 unknown #
face $-1 $457 $458 $48 $-1 $459 reversed single #
loop $-1 $-1 $460 $202 #
plane-surface $-1 -49.054231391338845 0 0 1 0 0 0 0 -1 forward_v I I I I #
coedge $-1 $461 $331 $462 $463 forward $203 $-1 #
coedge $-1 $464 $205 $461 $465 forward $129 $-1 #
coedge $-1 $205 $464 $466 $467 forward $129 $-1 #
coedge $-1 $334 $333 $205 $327 reversed $335 $-1 #
edge $-1 $468 -24.243572148029433 $469 24.243572148029433 $326 $470 forward 7 unknown #
coedge $-1 $207 $206 $471 $472 forward $81 $-1 #
coedge $-1 $473 $474 $206 $330 reversed $458 $-1 #
edge $-1 $337 -49.054231391338845 $475 49.054231391338845 $329 $476 forward 7 unknown #
coedge $-1 $323 $477 $207 $332 reversed $203 $-1 #
edge $-1 $478 -49.054231391338845 $336 49.054231391338845 $331 $479 forward 7 unknown #
coedge $-1 $326 $208 $477 $480 forward $335 $-1 #
coedge $-1 $208 $326 $473 $481 reversed $335 $-1 #
loop $-1 $-1 $333 $457 #
vertex $-1 $209 $482 #
vertex $-1 $209 $483 #
straight-curve $-1 49.054231391338845 0 11.014633104188023 0 1 0 I I #
face $-1 $484 $485 $49 $-1 $486 reversed single #
loop $-1 $-1 $344 $210 #
plane-surface $-1 0 -24.243572148029433 0 0 1 0 0 0 1 forward_v I I I I #
coedge $-1 $487 $488 $343 $489 forward $211 $-1 #
coedge $-1 $351 $213 $342 $489 reversed $133 $-1 #
coedge $-1 $349 $490 $213 $345 forward $340 $-1 #
edge $-1 $491 -6.3244472287295128 $352 -3.0559245221875093 $344 $492 forward 7 unknown #
coedge $-1 $215 $214 $493 $494 reversed $84 $-1 #
coedge $-1 $495 $496 $214 $348 forward $497 $-1 #
edge $-1 $498 -26.969618233939819 $353 -17.199608080858233 $347 $499 forward 7 unknown #
coedge $-1 $500 $344 $215 $350 forward $340 $-1 #
edge $-1 $352 17.199608080858233 $501 26.969618233939819 $349 $502 forward 7 unknown #
coedge $-1 $216 $343 $495 $503 reversed $133 $-1 #
vertex $-1 $350 $504 #
vertex $-1 $348 $505 #
straight-curve $-1 -39.28422123825726 0 -7.7461103976460199 0 1 0 I I #
face $-1 $-1 $367 $50 $-1 $506 forward single #
loop $-1 $-1 $507 $218 #
plane-surface $-1 0 24.243572148029433 0 0 -1 0 0 0 -1 forward_v I I I I #
coedge $-1 $508 $509 $510 $511 reversed $219 $-1 #
coedge $-1 $512 $221 $223 $365 forward $137 $-1 #
coedge $-1 $221 $512 $508 $513 forward $137 $-1 #
coedge $-1 $510 $224 $221 $362 forward $367 $-1 #
edge $-1 $369 -16.85773991804804 $514 -6.4026803697157195 $361 $515 forward 7 unknown #
coedge $-1 $516 $517 $222 $364 forward $356 $-1 #
edge $-1 $518 -52.273958053535964 $368 -44.244602729938642 $363 $519 forward 7 unknown #
edge $-1 $369 35.145245351940375 $518 48.487144296058844 $223 $520 forward 7 unknown #
coedge $-1 $224 $510 $516 $521 forward $367 $-1 #
loop $-1 $-1 $510 $355 #
vertex $-1 $364 $522 #
vertex $-1 $225 $523 #
straight-curve $-1 -28.487950061929922 22.281582379616076 11.014633104188022 0 -1 0 I I #
coedge $-1 $371 $371 $-1 $524 reversed $228 $-1 #
edge $-1 $525 0 $525 6.2831853071796004 $229 $526 forward 7 unknown #
vertex $-1 $232 $527 #
ellipse-curve $-1 -25.500790190977831 18.915915052211208 6.9999554423893624 0 0.6018150307709319 0.79863550430605224 1 0 0 1 I I #
coedge $-1 $375 $375 $-1 $528 reversed $235 $-1 #
edge $-1 $529 0 $529 6.2831853071796004 $236 $530 forward 7 unknown #
vertex $-1 $239 $531 #
ellipse-curve $-1 -21.020050384549691 18.915915052211208 6.9999554423893624 0 0.6018150307709319 0.79863550430605224 1 0 0 1 I I #
face $-1 $-1 $532 $53 $-1 $533 reversed single #
loop $-1 $-1 $246 $240 #
plane-surface $-1 0 0 11.014633104188023 0 0 1 1 0 0 forward_v I I I I #
coedge $-1 $534 $535 $536 $537 reversed $241 $-1 #
coedge $-1 $538 $243 $245 $389 forward $151 $-1 #
coedge $-1 $243 $538 $534 $539 forward $151 $-1 #
coedge $-1 $536 $246 $243 $386 forward $380 $-1 #
edge $-1 $392 5.2268732393509829 $540 15.681932787683305 $385 $541 forward 7 unknown #
coedge $-1 $542 $543 $244 $388 forward $532 $-1 #
edge $-1 $544 -52.273958053535964 $391 -44.244602729938642 $387 $545 forward 7 unknown #
edge $-1 $392 35.145245351940375 $544 48.487144296058844 $245 $546 forward 7 unknown #
coedge $-1 $246 $536 $542 $547 forward $380 $-1 #
vertex $-1 $247 $548 #
vertex $-1 $247 $549 #
straight-curve $-1 15.681276252868127 22.281582379616076 11.014633104188022 0 -1 0 I I #
coedge $-1 $394 $394 $-1 $550 reversed $250 $-1 #
edge $-1 $551 0 $551 6.2831853071796004 $251 $552 forward 7 unknown #
vertex $-1 $254 $553 #
ellipse-curve $-1 18.668436123820214 18.915915052211208 6.9999554423893624 0 0.6018150307709319 0.79863550430605224 1 0 0 1 I I #
coedge $-1 $398 $398 $-1 $554 reversed $257 $-1 #
edge $-1 $555 0 $555 6.2831853071796004 $258 $556 forward 7 unknown #
vertex $-1 $261 $557 #
ellipse-curve $-1 23.149175930248362 18.915915052211208 6.9999554423893624 0 0.6018150307709319 0.79863550430605224 1 0 0 1 I I #
face $-1 $-1 $558 $56 $-1 $559 reversed single #
loop $-1 $-1 $268 $262 #
plane-surface $-1 0 0 11.014633104188023 0 0 1 1 0 0 forward_v I I I I #
coedge $-1 $560 $561 $562 $563 reversed $263 $-1 #
coedge $-1 $564 $265 $267 $412 forward $165 $-1 #
coedge $-1 $265 $564 $560 $565 forward $165 $-1 #
coedge $-1 $562 $268 $265 $409 forward $403 $-1 #
edge $-1 $415 12.961223638567084 $566 21.869072945982474 $408 $567 forward 7 unknown #
coedge $-1 $568 $569 $266 $411 forward $558 $-1 #
edge $-1 $570 -34.661213976531613 $414 -26.076139593737082 $410 $571 forward 7 unknown #
edge $-1 $415 -12.588115724996619 $570 4.7183670880013277e-015 $267 $572 forward 7 unknown #
coedge $-1 $268 $562 $568 $573 forward $403 $-1 #
vertex $-1 $269 $574 #
vertex $-1 $269 $575 #
straight-curve $-1 -30.376371930841863 -45.576691834787077 11.014633104188022 0 1 0 I I #
coedge $-1 $417 $417 $-1 $576 reversed $272 $-1 #
edge $-1 $577 0 $577 6.2831853071796004 $273 $578 forward 7 unknown #
vertex $-1 $276 $579 #
ellipse-curve $-1 -37.502651376774175 -19.640389679676904 6.7220959127907562 0 -0.68199836817093118 0.7313536940579346 0.5 0 0 1 I I #
coedge $-1 $421 $421 $-1 $580 reversed $279 $-1 #
edge $-1 $581 0 $581 6.2831853071796004 $280 $582 forward 7 unknown #
vertex $-1 $283 $583 #
ellipse-curve $-1 -34.830296584549558 -19.640389679676904 6.7220959127907562 0 -0.68199836817093118 0.7313536940579346 0.5 0 0 1 I I #
coedge $-1 $425 $425 $-1 $584 reversed $286 $-1 #
edge $-1 $585 0 $585 6.2831853071796004 $287 $586 forward 7 unknown #
vertex $-1 $290 $587 #
ellipse-curve $-1 -32.157941792324948 -19.640389679676904 6.7220959127907562 0 -0.68199836817093118 0.7313536940579346 0.5 0 0 1 I I #
face $-1 $-1 $441 $60 $-1 $588 forward single #
loop $-1 $-1 $589 $291 #
plane-surface $-1 0 -24.243572148029433 0 0 1 0 0 0 1 forward_v I I I I #
coedge $-1 $590 $591 $592 $593 reversed $292 $-1 #
coedge $-1 $594 $294 $296 $439 forward $184 $-1 #
coedge $-1 $294 $594 $590 $595 forward $184 $-1 #
coedge $-1 $592 $297 $294 $436 forward $441 $-1 #
edge $-1 $443 -9.1233895188319423 $596 -0.21554021141655344 $435 $597 forward 7 unknown #
coedge $-1 $598 $599 $295 $438 forward $430 $-1 #
edge $-1 $600 -34.661213976531613 $442 -26.076139593737082 $437 $601 forward 7 unknown #
edge $-1 $443 -12.588115724996619 $600 4.7183670880013277e-015 $296 $602 forward 7 unknown #
coedge $-1 $297 $592 $598 $603 forward $441 $-1 #
loop $-1 $-1 $592 $429 #
vertex $-1 $438 $604 #
vertex $-1 $298 $605 #
straight-curve $-1 13.79285438395619 -45.576691834787077 11.014633104188022 0 1 0 I I #
coedge $-1 $445 $445 $-1 $606 reversed $301 $-1 #
edge $-1 $607 0 $607 6.2831853071796004 $302 $608 forward 7 unknown #
vertex $-1 $305 $609 #
ellipse-curve $-1 6.6665749380238779 -19.640389679676904 6.7220959127907562 0 -0.68199836817093118 0.7313536940579346 0.5 0 0 1 I I #
coedge $-1 $449 $449 $-1 $610 reversed $308 $-1 #
edge $-1 $611 0 $611 6.2831853071796004 $309 $612 forward 7 unknown #
vertex $-1 $312 $613 #
ellipse-curve $-1 9.3389297302484948 -19.640389679676904 6.7220959127907562 0 -0.68199836817093118 0.7313536940579346 0.5 0 0 1 I I #
coedge $-1 $453 $453 $-1 $614 reversed $315 $-1 #
edge $-1 $615 0 $615 6.2831853071796004 $316 $616 forward 7 unknown #
vertex $-1 $319 $617 #
ellipse-curve $-1 12.011284522473105 -19.640389679676904 6.7220959127907562 0 -0.68199836817093118 0.7313536940579346 0.5 0 0 1 I I #
face $-1 $-1 $335 $48 $-1 $618 reversed single #
loop $-1 $-1 $473 $320 #
plane-surface $-1 0 24.243572148029433 0 0 -1 0 0 0 -1 forward_v I I I I #
coedge $-1 $619 $471 $474 $620 forward $321 $-1 #
coedge $-1 $477 $323 $324 $465 reversed $203 $-1 #
coedge $-1 $471 $619 $323 $463 reversed $321 $-1 #
edge $-1 $478 -11.014633104188023 $621 11.014633104188023 $462 $622 forward 7 unknown #
coedge $-1 $325 $324 $619 $623 forward $129 $-1 #
edge $-1 $469 -49.054231391338845 $621 49.054231391338845 $461 $624 forward 7 unknown #
coedge $-1 $474 $473 $325 $467 reversed $458 $-1 #
edge $-1 $625 -49.054231391338845 $468 49.054231391338845 $466 $626 forward 7 unknown #
vertex $-1 $327 $627 #
vertex $-1 $480 $628 #
straight-curve $-1 49.054231391338845 0 -11.014633104188023 0 -1 0 I I #
coedge $-1 $460 $462 $328 $472 reversed $321 $-1 #
edge $-1 $475 -24.243572148029433 $478 24.243572148029433 $471 $629 forward 7 unknown #
coedge $-1 $466 $329 $334 $481 forward $458 $-1 #
coedge $-1 $329 $466 $460 $620 reversed $458 $-1 #
vertex $-1 $330 $630 #
straight-curve $-1 0 24.243572148029433 11.014633104188023 -1 0 0 I I #
coedge $-1 $331 $461 $333 $480 reversed $203 $-1 #
vertex $-1 $472 $631 #
straight-curve $-1 0 -24.243572148029433 11.014633104188023 1 0 0 I I #
edge $-1 $336 -11.014633104188023 $469 11.014633104188023 $333 $632 forward 7 unknown #
edge $-1 $337 -11.014633104188023 $468 11.014633104188023 $334 $633 forward 7 unknown #
point $-1 49.054231391338845 -24.243572148029433 11.014633104188023 #
point $-1 49.054231391338845 24.243572148029433 11.014633104188023 #
face $-1 $-1 $497 $49 $-1 $634 reversed single #
loop $-1 $-1 $493 $339 #
plane-surface $-1 -49.054231391338845 0 0 1 0 0 0 0 -1 forward_v I I I I #
coedge $-1 $635 $342 $490 $636 forward $211 $-1 #
coedge $-1 $342 $635 $637 $638 forward $211 $-1 #
edge $-1 $639 -24.243572148029433 $491 24.243572148029433 $342 $640 forward 7 unknown #
coedge $-1 $344 $500 $487 $636 reversed $340 $-1 #
vertex $-1 $636 $641 #
straight-curve $-1 -39.28422123825726 -24.243572148029433 -4.6901858754585106 0 0 1 I I #
coedge $-1 $642 $643 $346 $494 forward $485 $-1 #
edge $-1 $501 -24.243572148029433 $498 24.243572148029433 $493 $644 forward 7 unknown #
coedge $-1 $637 $347 $351 $503 forward $497 $-1 #
coedge $-1 $347 $637 $642 $645 reversed $497 $-1 #
loop $-1 $-1 $495 $484 #
vertex $-1 $645 $646 #
straight-curve $-1 -22.084613157399026 24.243572148029433 -7.7461103976460199 1 0 0 I I #
coedge $-1 $490 $349 $643 $647 forward $340 $-1 #
vertex $-1 $647 $648 #
straight-curve $-1 -22.084613157399026 -24.243572148029433 -7.7461103976460199 -1 0 0 I I #
edge $-1 $353 3.0559245221875093 $639 6.3244472287295128 $495 $649 forward 7 unknown #
point $-1 -39.28422123825726 -24.243572148029433 -7.7461103976460199 #
point $-1 -39.28422123825726 24.243572148029433 -7.7461103976460199 #
plane-surface $-1 0 0 11.014633104188023 0 0 1 1 0 0 forward_v I I I I #
coedge $-1 $517 $516 $509 $650 forward $356 $-1 #
coedge $-1 $509 $358 $360 $513 reversed $219 $-1 #
coedge $-1 $358 $508 $507 $650 reversed $219 $-1 #
coedge $-1 $366 $361 $358 $511 forward $367 $-1 #
edge $-1 $514 -8.6933244232230855 $651 1.9619897684133569 $510 $652 forward 7 unknown #
coedge $-1 $360 $359 $517 $653 reversed $137 $-1 #
edge $-1 $654 -48.487144296058844 $514 -35.145245351940375 $508 $655 forward 7 unknown #
vertex $-1 $362 $656 #
straight-curve $-1 -11.630210143881881 13.588257956392994 11.014633104188023 1 0 0 I I #
coedge $-1 $507 $363 $366 $521 reversed $356 $-1 #
coedge $-1 $363 $507 $512 $653 forward $356 $-1 #
vertex $-1 $364 $657 #
straight-curve $-1 -28.487950061929922 24.243572148029433 55.259235834126663 0 0 1 I I #
straight-curve $-1 -28.487950061929922 -14.47998278921385 32.165570017117972 0 0.79863550430605224 -0.6018150307709319 I I #
edge $-1 $651 18.0328905135976 $368 28.487950061929922 $516 $658 forward 7 unknown #
point $-1 -28.487950061929922 24.243572148029433 11.014633104188023 #
point $-1 -28.487950061929922 13.58825795639299 11.014633104188025 #
edge $-1 $659 1 $659 0 $371 $-1 forward 7 unknown #
vertex $-1 $372 $660 #
ellipse-curve $-1 -25.500790190977831 16.909118045400838 4.3368459193174687 0 0.6018150307709319 0.79863550430605224 1 0 0 1 I I #
point $-1 -24.500790190977831 18.915915052211201 6.9999554423893553 #
edge $-1 $661 1 $661 0 $375 $-1 forward 7 unknown #
vertex $-1 $376 $662 #
ellipse-curve $-1 -21.020050384549691 16.909118045400838 4.3368459193174687 0 0.6018150307709319 0.79863550430605224 1 0 0 1 I I #
point $-1 -20.020050384549691 18.915915052211201 6.9999554423893553 #
loop $-1 $-1 $387 $379 #
plane-surface $-1 0 24.243572148029433 0 0 -1 0 0 0 -1 forward_v I I I I #
coedge $-1 $535 $382 $384 $539 reversed $241 $-1 #
coedge $-1 $382 $534 $663 $664 reversed $241 $-1 #
coedge $-1 $390 $385 $382 $537 forward $380 $-1 #
edge $-1 $540 -8.6933244232230855 $665 1.9619897684133569 $536 $666 forward 7 unknown #
coedge $-1 $384 $383 $543 $667 reversed $151 $-1 #
edge $-1 $668 -48.487144296058844 $540 -35.145245351940375 $534 $669 forward 7 unknown #
vertex $-1 $386 $670 #
straight-curve $-1 10.454403013517144 13.588257956392994 11.014633104188023 1 0 0 I I #
coedge $-1 $663 $387 $390 $547 reversed $532 $-1 #
coedge $-1 $387 $663 $538 $667 forward $532 $-1 #
vertex $-1 $388 $671 #
straight-curve $-1 15.681276252868127 24.243572148029433 55.259235834126663 0 0 1 I I #
straight-curve $-1 15.681276252868127 -14.47998278921385 32.165570017117972 0 0.79863550430605224 -0.6018150307709319 I I #
edge $-1 $665 -26.136335801200449 $391 -15.681276252868127 $542 $672 forward 7 unknown #
point $-1 15.681276252868127 24.243572148029433 11.014633104188023 #
point $-1 15.681276252868127 13.58825795639299 11.014633104188025 #
edge $-1 $673 1 $673 0 $394 $-1 forward 7 unknown #
vertex $-1 $395 $674 #
ellipse-curve $-1 18.668436123820214 16.909118045400838 4.3368459193174687 0 0.6018150307709319 0.79863550430605224 1 0 0 1 I I #
point $-1 19.668436123820214 18.915915052211201 6.9999554423893553 #
edge $-1 $675 1 $675 0 $398 $-1 forward 7 unknown #
vertex $-1 $399 $676 #
ellipse-curve $-1 23.149175930248362 16.909118045400838 4.3368459193174687 0 0.6018150307709319 0.79863550430605224 1 0 0 1 I I #
point $-1 24.149175930248362 18.915915052211201 6.9999554423893553 #
loop $-1 $-1 $410 $402 #
plane-surface $-1 0 -24.243572148029433 0 0 1 0 0 0 1 forward_v I I I I #
coedge $-1 $561 $405 $407 $565 reversed $263 $-1 #
coedge $-1 $405 $560 $677 $678 reversed $263 $-1 #
coedge $-1 $413 $408 $405 $563 forward $403 $-1 #
edge $-1 $566 -30.539484623462702 $679 -21.333119686757644 $562 $680 forward 7 unknown #
coedge $-1 $407 $406 $569 $681 reversed $165 $-1 #
edge $-1 $682 -4.7183670880013277e-015 $566 12.588115724996619 $560 $683 forward 7 unknown #
vertex $-1 $409 $684 #
straight-curve $-1 -17.415148292274779 -15.037207211324377 11.014633104188023 -1 0 0 I I #
coedge $-1 $677 $410 $413 $573 reversed $558 $-1 #
coedge $-1 $410 $677 $564 $681 forward $558 $-1 #
vertex $-1 $411 $685 #
straight-curve $-1 -30.376371930841863 -24.243572148029429 37.090772697925104 0 0 1 I I #
straight-curve $-1 -30.376371930841863 -24.243572148029429 2.4295587213934908 0 -0.7313536940579346 -0.68199836817093118 I I #
edge $-1 $679 -39.284221238257253 $414 -30.376371930841863 $568 $686 forward 7 unknown #
point $-1 -30.376371930841863 -24.243572148029433 11.014633104188023 #
point $-1 -30.376371930841863 -15.037207211324375 11.014633104188023 #
edge $-1 $687 1 $687 0 $417 $-1 forward 7 unknown #
vertex $-1 $418 $688 #
ellipse-curve $-1 -37.502651376774175 -18.543764110592445 5.5461089920313063 0 -0.68199836817093118 0.7313536940579346 0.5 0 0 1 I I #
point $-1 -37.002651376774175 -19.64038967967689 6.7220959127907438 #
edge $-1 $689 1 $689 0 $421 $-1 forward 7 unknown #
vertex $-1 $422 $690 #
ellipse-curve $-1 -34.830296584549558 -18.543764110592445 5.5461089920313063 0 -0.68199836817093118 0.7313536940579346 0.5 0 0 1 I I #
point $-1 -34.330296584549558 -19.64038967967689 6.7220959127907438 #
edge $-1 $691 1 $691 0 $425 $-1 forward 7 unknown #
vertex $-1 $426 $692 #
ellipse-curve $-1 -32.157941792324948 -18.543764110592445 5.5461089920313063 0 -0.68199836817093118 0.7313536940579346 0.5 0 0 1 I I #
point $-1 -31.657941792324948 -19.64038967967689 6.7220959127907438 #
plane-surface $-1 0 0 11.014633104188023 0 0 1 1 0 0 forward_v I I I I #
coedge $-1 $599 $598 $591 $693 forward $430 $-1 #
coedge $-1 $591 $432 $434 $595 reversed $292 $-1 #
coedge $-1 $432 $590 $589 $693 reversed $292 $-1 #
coedge $-1 $440 $435 $432 $593 forward $441 $-1 #
edge $-1 $596 -30.539484623462702 $694 -21.333119686757644 $592 $695 forward 7 unknown #
coedge $-1 $434 $433 $599 $696 reversed $184 $-1 #
edge $-1 $697 -4.7183670880013277e-015 $596 12.588115724996619 $590 $698 forward 7 unknown #
vertex $-1 $436 $699 #
straight-curve $-1 4.6694648651242474 -15.037207211324377 11.014633104188023 -1 0 0 I I #
coedge $-1 $589 $437 $440 $603 reversed $430 $-1 #
coedge $-1 $437 $589 $594 $696 forward $430 $-1 #
vertex $-1 $438 $700 #
straight-curve $-1 13.79285438395619 -24.243572148029429 37.090772697925104 0 0 1 I I #
straight-curve $-1 13.79285438395619 -24.243572148029429 2.4295587213934908 0 -0.7313536940579346 -0.68199836817093118 I I #
edge $-1 $694 4.8850050765408009 $442 13.79285438395619 $598 $701 forward 7 unknown #
point $-1 13.79285438395619 -24.243572148029433 11.014633104188023 #
point $-1 13.79285438395619 -15.037207211324375 11.014633104188023 #
edge $-1 $702 1 $702 0 $445 $-1 forward 7 unknown #
vertex $-1 $446 $703 #
ellipse-curve $-1 6.6665749380238779 -18.543764110592445 5.5461089920313063 0 -0.68199836817093118 0.7313536940579346 0.5 0 0 1 I I #
point $-1 7.1665749380238779 -19.64038967967689 6.7220959127907438 #
edge $-1 $704 1 $704 0 $449 $-1 forward 7 unknown #
vertex $-1 $450 $705 #
ellipse-curve $-1 9.3389297302484948 -18.543764110592445 5.5461089920313063 0 -0.68199836817093118 0.7313536940579346 0.5 0 0 1 I I #
point $-1 9.8389297302484948 -19.64038967967689 6.7220959127907438 #
edge $-1 $706 1 $706 0 $453 $-1 forward 7 unknown #
vertex $-1 $454 $707 #
ellipse-curve $-1 12.011284522473105 -18.543764110592445 5.5461089920313063 0 -0.68199836817093118 0.7313536940579346 0.5 0 0 1 I I #
point $-1 12.511284522473105 -19.64038967967689 6.7220959127907438 #
plane-surface $-1 49.054231391338845 0 0 -1 0 0 0 0 1 forward_v I I I I #
coedge $-1 $462 $460 $464 $623 reversed $321 $-1 #
edge $-1 $475 -11.014633104188023 $625 11.014633104188023 $474 $708 forward 7 unknown #
vertex $-1 $623 $709 #
straight-curve $-1 -49.054231391338845 -24.243572148029433 0 0 0 -1 I I #
edge $-1 $621 -24.243572148029433 $625 24.243572148029433 $619 $710 forward 7 unknown #
straight-curve $-1 0 -24.243572148029433 -11.014633104188023 -1 0 0 I I #
vertex $-1 $467 $711 #
straight-curve $-1 0 24.243572148029433 -11.014633104188023 1 0 0 I I #
point $-1 49.054231391338845 24.243572148029433 -11.014633104188023 #
point $-1 49.054231391338845 -24.243572148029433 -11.014633104188023 #
straight-curve $-1 -49.054231391338845 0 11.014633104188023 0 -1 0 I I #
point $-1 -49.054231391338845 24.243572148029433 11.014633104188023 #
point $-1 -49.054231391338845 -24.243572148029433 11.014633104188023 #
straight-curve $-1 49.054231391338845 -24.243572148029433 0 0 0 -1 I I #
straight-curve $-1 49.054231391338845 24.243572148029433 0 0 0 -1 I I #
plane-surface $-1 0 24.243572148029433 0 0 -1 0 0 0 -1 forward_v I I I I #
coedge $-1 $488 $487 $712 $713 forward $211 $-1 #
edge $-1 $491 39.28422123825726 $714 49.054231391338845 $490 $715 forward 7 unknown #
coedge $-1 $496 $495 $488 $638 reversed $497 $-1 #
edge $-1 $716 -49.054231391338845 $639 -39.28422123825726 $637 $717 forward 7 unknown #
vertex $-1 $503 $718 #
straight-curve $-1 -39.28422123825726 0 -11.014633104188023 0 -1 0 I I #
point $-1 -39.28422123825726 -24.243572148029433 -11.014633104188023 #
coedge $-1 $712 $493 $496 $645 forward $485 $-1 #
coedge $-1 $493 $712 $500 $647 reversed $485 $-1 #
straight-curve $-1 -49.054231391338845 0 -7.7461103976460199 0 1 0 I I #
edge $-1 $498 7.7461103976460199 $716 11.014633104188023 $496 $719 forward 7 unknown #
point $-1 -49.054231391338845 24.243572148029433 -7.7461103976460199 #
edge $-1 $501 7.7461103976460199 $714 11.014633104188023 $643 $720 forward 7 unknown #
point $-1 -49.054231391338845 -24.243572148029433 -7.7461103976460199 #
straight-curve $-1 -39.28422123825726 24.243572148029433 -4.6901858754585106 0 0 -1 I I #
edge $-1 $651 44.244602729938642 $654 52.273958053535964 $507 $721 forward 7 unknown #
vertex $-1 $521 $722 #
straight-curve $-1 -18.0328905135976 22.281582379616076 11.014633104188022 0 1 0 I I #
edge $-1 $654 6.4026803697157195 $518 16.85773991804804 $517 $723 forward 7 unknown #
vertex $-1 $653 $724 #
straight-curve $-1 -18.0328905135976 -14.47998278921385 32.165570017117972 0 -0.79863550430605224 0.6018150307709319 I I #
point $-1 -18.0328905135976 13.58825795639299 11.014633104188025 #
point $-1 -28.487950061929922 24.243572148029429 2.9852777805907031 #
straight-curve $-1 0 24.243572148029433 11.014633104188023 -1 0 0 I I #
vertex $-1 $524 $725 #
point $-1 -24.500790190977831 16.909118045400838 4.3368459193174687 #
vertex $-1 $528 $726 #
point $-1 -20.020050384549691 16.909118045400838 4.3368459193174687 #
coedge $-1 $543 $542 $535 $664 forward $532 $-1 #
edge $-1 $665 44.244602729938642 $668 52.273958053535964 $663 $727 forward 7 unknown #
vertex $-1 $547 $728 #
straight-curve $-1 26.136335801200449 22.281582379616076 11.014633104188022 0 1 0 I I #
edge $-1 $668 -15.681932787683305 $544 -5.2268732393509829 $543 $729 forward 7 unknown #
vertex $-1 $667 $730 #
straight-curve $-1 26.136335801200449 -14.47998278921385 32.165570017117972 0 -0.79863550430605224 0.6018150307709319 I I #
point $-1 26.136335801200449 13.58825795639299 11.014633104188025 #
point $-1 15.681276252868127 24.243572148029429 2.9852777805907031 #
straight-curve $-1 0 24.243572148029433 11.014633104188023 -1 0 0 I I #
vertex $-1 $550 $731 #
point $-1 19.668436123820214 16.909118045400838 4.3368459193174687 #
vertex $-1 $554 $732 #
point $-1 24.149175930248362 16.909118045400838 4.3368459193174687 #
coedge $-1 $569 $568 $561 $678 forward $558 $-1 #
edge $-1 $679 26.076139593737082 $682 34.661213976531613 $677 $733 forward 7 unknown #
vertex $-1 $573 $734 #
straight-curve $-1 -39.284221238257253 -45.576691834787077 11.014633104188022 0 -1 0 I I #
edge $-1 $682 -21.869072945982474 $570 -12.961223638567084 $569 $735 forward 7 unknown #
vertex $-1 $681 $736 #
straight-curve $-1 -39.284221238257253 -24.243572148029429 2.4295587213934908 0 0.7313536940579346 0.68199836817093118 I I #
point $-1 -39.284221238257253 -15.037207211324375 11.014633104188023 #
point $-1 -30.376371930841863 -24.243572148029433 2.4295587213934877 #
straight-curve $-1 0 -24.243572148029433 11.014633104188023 1 0 0 I I #
vertex $-1 $576 $737 #
point $-1 -37.002651376774175 -18.543764110592445 5.5461089920313063 #
vertex $-1 $580 $738 #
point $-1 -34.330296584549558 -18.543764110592445 5.5461089920313063 #
vertex $-1 $584 $739 #
point $-1 -31.657941792324948 -18.543764110592445 5.5461089920313063 #
edge $-1 $694 26.076139593737082 $697 34.661213976531613 $589 $740 forward 7 unknown #
vertex $-1 $603 $741 #
straight-curve $-1 4.8850050765408009 -45.576691834787077 11.014633104188022 0 -1 0 I I #
edge $-1 $697 0.21554021141655344 $600 9.1233895188319423 $599 $742 forward 7 unknown #
vertex $-1 $696 $743 #
straight-curve $-1 4.8850050765408009 -24.243572148029429 2.4295587213934908 0 0.7313536940579346 0.68199836817093118 I I #
point $-1 4.8850050765408009 -15.037207211324375 11.014633104188023 #
point $-1 13.79285438395619 -24.243572148029433 2.4295587213934877 #
straight-curve $-1 0 -24.243572148029433 11.014633104188023 1 0 0 I I #
vertex $-1 $606 $744 #
point $-1 7.1665749380238779 -18.543764110592445 5.5461089920313063 #
vertex $-1 $610 $745 #
point $-1 9.8389297302484948 -18.543764110592445 5.5461089920313063 #
vertex $-1 $614 $746 #
point $-1 12.511284522473105 -18.543764110592445 5.5461089920313063 #
straight-curve $-1 -49.054231391338845 24.243572148029433 0 0 0 -1 I I #
point $-1 -49.054231391338845 -24.243572148029433 -11.014633104188023 #
straight-curve $-1 -49.054231391338845 0 -11.014633104188023 0 1 0 I I #
point $-1 -49.054231391338845 24.243572148029433 -11.014633104188023 #
coedge $-1 $643 $642 $635 $713 reversed $485 $-1 #
edge $-1 $714 -24.243572148029433 $716 24.243572148029433 $712 $747 forward 7 unknown #
vertex $-1 $713 $748 #
straight-curve $-1 0 -24.243572148029433 -11.014633104188023 -1 0 0 I I #
vertex $-1 $638 $749 #
straight-curve $-1 0 24.243572148029433 -11.014633104188023 1 0 0 I I #
point $-1 -39.28422123825726 24.243572148029433 -11.014633104188023 #
straight-curve $-1 -49.054231391338845 24.243572148029433 0 0 0 -1 I I #
straight-curve $-1 -49.054231391338845 -24.243572148029433 0 0 0 -1 I I #
straight-curve $-1 -18.0328905135976 24.243572148029433 55.259235834126663 0 0 -1 I I #
point $-1 -18.0328905135976 24.243572148029433 11.014633104188023 #
straight-curve $-1 -11.630210143881881 24.243572148029429 2.9852777805907014 -1 0 0 I I #
point $-1 -18.0328905135976 24.243572148029429 2.9852777805907031 #
point $-1 -25.500790190977831 16.307303014629909 3.5382104150114166 #
point $-1 -21.020050384549691 16.307303014629909 3.5382104150114166 #
straight-curve $-1 26.136335801200449 24.243572148029433 55.259235834126663 0 0 -1 I I #
point $-1 26.136335801200449 24.243572148029433 11.014633104188023 #
straight-curve $-1 10.454403013517144 24.243572148029429 2.9852777805907014 -1 0 0 I I #
point $-1 26.136335801200449 24.243572148029429 2.9852777805907031 #
point $-1 18.668436123820214 16.307303014629909 3.5382104150114166 #
point $-1 23.149175930248362 16.307303014629909 3.5382104150114166 #
straight-curve $-1 -39.284221238257253 -24.243572148029429 37.090772697925104 0 0 -1 I I #
point $-1 -39.284221238257253 -24.243572148029433 11.014633104188023 #
straight-curve $-1 -17.415148292274779 -24.243572148029433 2.4295587213934846 1 0 0 I I #
point $-1 -39.284221238257253 -24.243572148029433 2.4295587213934877 #
point $-1 -37.502651376774175 -18.202764926506976 5.1804321450023396 #
point $-1 -34.830296584549558 -18.202764926506976 5.1804321450023396 #
point $-1 -32.157941792324948 -18.202764926506976 5.1804321450023396 #
straight-curve $-1 4.8850050765408009 -24.243572148029429 37.090772697925104 0 0 -1 I I #
point $-1 4.8850050765408009 -24.243572148029433 11.014633104188023 #
straight-curve $-1 4.6694648651242474 -24.243572148029433 2.4295587213934846 1 0 0 I I #
point $-1 4.8850050765408009 -24.243572148029433 2.4295587213934877 #
point $-1 6.6665749380238779 -18.202764926506976 5.1804321450023396 #
point $-1 9.3389297302484948 -18.202764926506976 5.1804321450023396 #
point $-1 12.011284522473105 -18.202764926506976 5.1804321450023396 #
straight-curve $-1 -49.054231391338845 0 -11.014633104188023 0 1 0 I I #
point $-1 -49.054231391338845 -24.243572148029433 -11.014633104188023 #
point $-1 -49.054231391338845 24.243572148029433 -11.014633104188023 #
End-of-ACIS-data 