500 0 5 0           
7 Unknown 11 ACIS 5.0 NT 24 Fri Mar 26 17:53:29 1999 
-1 9.9999999999999995e-007 1e-010 
body $-1 $5 $-1 $6 #
body $-1 $7 $-1 $8 #
body $-1 $9 $-1 $10 #
body $-1 $11 $-1 $12 #
body $-1 $13 $-1 $14 #
lump $-1 $-1 $15 $0 #
transform $-1 1 0 0 0 1 0 0 0 1 64.031495101779228 26.864228419223291 11.942353491188518 1 rotate no_reflect no_shear #
lump $-1 $-1 $16 $1 #
transform $-1 1 0 0 0 1 0 0 0 1 64.031495101779228 26.864228419223291 11.942353491188518 1 rotate no_reflect no_shear #
lump $-1 $-1 $17 $2 #
transform $-1 1 0 0 0 1 0 0 0 1 64.031495101779228 26.864228419223291 11.942353491188518 1 rotate no_reflect no_shear #
lump $-1 $-1 $18 $3 #
transform $-1 1 0 0 0 1 0 0 0 1 64.031495101779228 26.864228419223291 11.942353491188518 1 rotate no_reflect no_shear #
lump $-1 $-1 $19 $4 #
transform $-1 1 0 0 0 1 0 0 0 1 64.031495101779228 26.864228419223291 11.942353491188518 1 rotate no_reflect no_shear #
shell $-1 $-1 $-1 $20 $-1 $5 #
shell $-1 $-1 $-1 $21 $-1 $7 #
shell $-1 $-1 $-1 $22 $-1 $9 #
shell $-1 $-1 $-1 $23 $-1 $11 #
shell $-1 $-1 $-1 $24 $-1 $13 #
face $-1 $25 $26 $15 $-1 $27 forward single #
face $-1 $28 $29 $16 $-1 $30 forward single #
face $-1 $31 $32 $17 $-1 $33 reversed single #
face $-1 $34 $35 $18 $-1 $36 forward single #
face $-1 $37 $38 $19 $-1 $39 reversed single #
face $-1 $40 $41 $15 $-1 $42 reversed single #
loop $-1 $-1 $43 $20 #
plane-surface $-1 0 0 11.942353491188518 0 0 1 1 0 0 forward_v I I I I #
face $-1 $44 $45 $16 $-1 $46 forward single #
loop $-1 $-1 $47 $21 #
plane-surface $-1 -21.069663432290483 -126.38786512778016 83.729173361348089 -1 0 0 0 -0.77714596973225614 0.62932038083071107 forward_v I I I I #
face $-1 $48 $49 $17 $-1 $50 reversed single #
loop $-1 $51 $52 $22 #
cone-surface $-1 -36.875380825757105 -20.507228475011452 5.2788537441717303 0 0.77714596973225614 -0.62932038083071107 2.5 0 0 1 I I 0 1 2.5 forward I I I I #
face $-1 $53 $54 $18 $-1 $55 forward single #
loop $-1 $-1 $56 $23 #
plane-surface $-1 42.705120436910391 83.880852427075737 128.15061899032793 1 0 0 0 -0.73135370988377701 -0.68199835119979291 forward_v I I I I #
face $-1 $57 $58 $19 $-1 $59 reversed single #
loop $-1 $60 $61 $24 #
cone-surface $-1 53.36830776934481 20.871526573111851 5.6742778633668749 0 -0.73135370988377701 -0.68199835119979291 2 0 0 1 I I 0 1 2 forward I I I I #
face $-1 $62 $63 $15 $-1 $64 reversed single #
loop $-1 $-1 $65 $25 #
plane-surface $-1 0 0 -11.942353491188518 0 0 1 1 0 0 forward_v I I I I #
coedge $-1 $66 $67 $68 $69 forward $26 $-1 #
face $-1 $70 $71 $16 $-1 $72 forward single #
loop $-1 $-1 $73 $28 #
plane-surface $-1 -36.875380825757105 -26.864228419223309 3.136523596125059 0 -0.77714596973225614 0.62932038083071107 1 0 0 forward_v I I I I #
coedge $-1 $74 $75 $76 $77 reversed $29 $-1 #
face $-1 $78 $79 $17 $-1 $80 forward single #
loop $-1 $81 $82 $31 #
cone-surface $-1 -36.875380825757105 -16.744206196799169 2.2316184686482874 0 0.77714596973225614 -0.62932038083071107 1.25 0 0 1 I I -0.70710678118654746 0.70710678118654746 1.25 forward I I I I #
loop $-1 $-1 $83 $22 #
coedge $-1 $52 $52 $84 $85 reversed $32 $-1 #
face $-1 $86 $87 $18 $-1 $88 forward single #
loop $-1 $-1 $89 $34 #
plane-surface $-1 53.36830776934481 -9.7784905571065366 40.811870821785831 0 0.73135370988377701 0.68199835119979291 1 0 0 forward_v I I I I #
coedge $-1 $90 $91 $92 $93 reversed $35 $-1 #
face $-1 $94 $95 $19 $-1 $96 forward single #
loop $-1 $97 $98 $37 #
cone-surface $-1 53.36830776934481 19.008200612168604 3.9366983366109221 0 -0.73135370988377701 -0.68199835119979291 1 0 0 1 I I -0.70710678118654746 0.70710678118654746 1 forward I I I I #
loop $-1 $-1 $99 $24 #
coedge $-1 $61 $61 $100 $101 reversed $38 $-1 #
face $-1 $102 $103 $15 $-1 $104 reversed single #
loop $-1 $-1 $105 $40 #
plane-surface $-1 0 -26.864228419223291 0 0 1 0 0 0 1 forward_v I I I I #
coedge $-1 $106 $107 $108 $109 forward $41 $-1 #
coedge $-1 $110 $43 $111 $112 forward $26 $-1 #
coedge $-1 $43 $110 $113 $114 forward $26 $-1 #
coedge $-1 $115 $116 $43 $69 reversed $117 $-1 #
edge $-1 $118 -26.864228419223291 $119 26.864228419223291 $68 $120 forward 7 unknown #
face $-1 $121 $122 $16 $-1 $123 forward single #
loop $-1 $-1 $124 $44 #
plane-surface $-1 -52.681098219223728 -126.38786512778016 83.729173361348089 1 0 0 0 0.77714596973225614 -0.62932038083071107 forward_v I I I I #
coedge $-1 $125 $126 $127 $128 reversed $45 $-1 #
coedge $-1 $75 $47 $126 $129 forward $29 $-1 #
coedge $-1 $47 $74 $130 $131 reversed $29 $-1 #
coedge $-1 $132 $127 $47 $77 forward $122 $-1 #
edge $-1 $133 -43.460524400996519 $134 -36.329704144666792 $76 $135 forward 7 unknown #
face $-1 $136 $137 $17 $-1 $138 forward single #
loop $-1 $-1 $139 $48 #
plane-surface $-1 -21.069663432290483 -126.38786512778016 83.729173361348089 -1 0 0 0 -0.77714596973225614 0.62932038083071107 forward_v I I I I #
loop $-1 $-1 $140 $31 #
coedge $-1 $82 $82 $83 $141 forward $49 $-1 #
coedge $-1 $83 $83 $82 $141 reversed $51 $-1 #
coedge $-1 $84 $84 $52 $85 forward $137 $-1 #
edge $-1 $142 2.8809576340912044e-016 $142 6.2831853071796004 $84 $143 forward 7 unknown #
face $-1 $144 $145 $18 $-1 $146 reversed single #
loop $-1 $-1 $147 $53 #
plane-surface $-1 0 0 11.942353491188518 0 0 1 1 0 0 forward_v I I I I #
coedge $-1 $148 $149 $147 $150 reversed $54 $-1 #
coedge $-1 $91 $56 $149 $151 forward $35 $-1 #
coedge $-1 $56 $90 $152 $153 reversed $35 $-1 #
coedge $-1 $154 $147 $56 $93 forward $87 $-1 #
edge $-1 $155 -24.797656984418555 $156 -15.076197794314577 $92 $157 forward 7 unknown #
face $-1 $158 $159 $19 $-1 $160 forward single #
loop $-1 $-1 $161 $57 #
plane-surface $-1 42.705120436910391 83.880852427075737 128.15061899032793 1 0 0 0 -0.73135370988377701 -0.68199835119979291 forward_v I I I I #
loop $-1 $-1 $162 $37 #
coedge $-1 $98 $98 $99 $163 forward $58 $-1 #
coedge $-1 $99 $99 $98 $163 reversed $60 $-1 #
coedge $-1 $100 $100 $61 $101 forward $159 $-1 #
edge $-1 $164 7.6314993593993704e-016 $164 6.2831853071796013 $100 $165 forward 7 unknown #
face $-1 $166 $167 $15 $-1 $168 reversed single #
loop $-1 $-1 $169 $62 #
plane-surface $-1 -64.031495101779228 0 0 1 0 0 0 0 -1 forward_v I I I I #
coedge $-1 $170 $113 $171 $172 forward $63 $-1 #
coedge $-1 $173 $65 $170 $174 forward $41 $-1 #
coedge $-1 $65 $173 $175 $176 forward $41 $-1 #
coedge $-1 $116 $115 $65 $109 reversed $117 $-1 #
edge $-1 $177 -26.864228419223291 $178 26.864228419223291 $108 $179 forward 7 unknown #
coedge $-1 $67 $66 $180 $181 forward $26 $-1 #
coedge $-1 $182 $183 $66 $112 reversed $167 $-1 #
edge $-1 $119 -64.031495101779228 $184 64.031495101779228 $111 $185 forward 7 unknown #
coedge $-1 $105 $186 $67 $114 reversed $63 $-1 #
edge $-1 $187 -64.031495101779228 $118 64.031495101779228 $113 $188 forward 7 unknown #
coedge $-1 $108 $68 $186 $189 forward $117 $-1 #
coedge $-1 $68 $108 $182 $190 reversed $117 $-1 #
loop $-1 $-1 $115 $166 #
vertex $-1 $69 $191 #
vertex $-1 $69 $192 #
straight-curve $-1 64.031495101779228 0 11.942353491188518 0 1 0 I I #
face $-1 $193 $194 $16 $-1 $195 reversed single #
loop $-1 $-1 $196 $70 #
plane-surface $-1 0 0 11.942353491188518 0 0 1 1 0 0 forward_v I I I I #
coedge $-1 $197 $198 $196 $199 reversed $71 $-1 #
coedge $-1 $200 $73 $198 $201 reversed $45 $-1 #
coedge $-1 $73 $200 $74 $129 reversed $45 $-1 #
coedge $-1 $76 $196 $73 $128 forward $122 $-1 #
edge $-1 $202 -34.243407806345175 $133 -2.6319730194119302 $127 $203 forward 7 unknown #
edge $-1 $133 -11.330985732445169 $204 -2.8089960468817396e-014 $74 $205 forward 7 unknown #
coedge $-1 $206 $207 $75 $131 forward $208 $-1 #
edge $-1 $134 29.922233189485524 $204 38.728063084548964 $130 $209 forward 7 unknown #
coedge $-1 $210 $76 $207 $211 forward $122 $-1 #
vertex $-1 $128 $212 #
vertex $-1 $211 $213 #
straight-curve $-1 -21.069663432290483 -63.19393256389008 11.94235349118852 0 -1 0 I I #
face $-1 $214 $215 $17 $-1 $216 forward single #
loop $-1 $217 $84 $78 #
plane-surface $-1 -36.875380825757105 -26.864228419223309 3.136523596125059 0 -0.77714596973225614 0.62932038083071107 1 0 0 forward_v I I I I #
coedge $-1 $218 $219 $220 $221 reversed $79 $-1 #
coedge $-1 $140 $140 $-1 $222 forward $81 $-1 #
edge $-1 $223 0 $223 6.2831853071796004 $82 $224 forward 7 unknown #
vertex $-1 $85 $225 #
ellipse-curve $-1 -36.875380825757105 -23.298818291058431 7.5394385436567957 0 0.77714596973225614 -0.62932038083071107 2.5 0 0 1 I I #
face $-1 $226 $227 $18 $-1 $228 reversed single #
loop $-1 $-1 $152 $86 #
plane-surface $-1 0 26.864228419223291 0 0 -1 0 0 0 -1 forward_v I I I I #
coedge $-1 $92 $229 $89 $150 forward $87 $-1 #
coedge $-1 $230 $89 $231 $232 reversed $54 $-1 #
coedge $-1 $89 $230 $90 $151 reversed $54 $-1 #
edge $-1 $233 -37.347341217106823 $155 -16.020966552237986 $147 $234 forward 7 unknown #
edge $-1 $155 39.474083388713659 $235 53.728456838446618 $90 $236 forward 7 unknown #
coedge $-1 $237 $238 $91 $153 forward $145 $-1 #
edge $-1 $156 52.132956003975444 $235 62.557944908506457 $152 $239 forward 7 unknown #
coedge $-1 $240 $92 $238 $241 forward $87 $-1 #
vertex $-1 $150 $242 #
vertex $-1 $241 $243 #
straight-curve $-1 42.705120436910391 41.940426213537869 11.94235349118852 0 1 0 I I #
face $-1 $244 $245 $19 $-1 $246 forward single #
loop $-1 $247 $100 $94 #
plane-surface $-1 53.36830776934481 -9.7784905571065366 40.811870821785831 0 0.73135370988377701 0.68199835119979291 1 0 0 forward_v I I I I #
coedge $-1 $248 $249 $250 $251 reversed $95 $-1 #
coedge $-1 $162 $162 $-1 $252 forward $97 $-1 #
edge $-1 $253 0 $253 6.2831853071796004 $98 $254 forward 7 unknown #
vertex $-1 $101 $255 #
ellipse-curve $-1 53.36830776934481 22.003498824171302 6.7298590389230171 0 -0.73135370988377701 -0.68199835119979291 2 0 0 1 I I #
face $-1 $-1 $117 $15 $-1 $256 reversed single #
loop $-1 $-1 $182 $102 #
plane-surface $-1 0 26.864228419223291 0 0 -1 0 0 0 -1 forward_v I I I I #
coedge $-1 $257 $180 $183 $258 forward $103 $-1 #
coedge $-1 $186 $105 $106 $174 reversed $63 $-1 #
coedge $-1 $180 $257 $105 $172 reversed $103 $-1 #
edge $-1 $187 -11.942353491188518 $259 11.942353491188518 $171 $260 forward 7 unknown #
coedge $-1 $107 $106 $257 $261 forward $41 $-1 #
edge $-1 $178 -64.031495101779228 $259 64.031495101779228 $170 $262 forward 7 unknown #
coedge $-1 $183 $182 $107 $176 reversed $167 $-1 #
edge $-1 $263 -64.031495101779228 $177 64.031495101779228 $175 $264 forward 7 unknown #
vertex $-1 $109 $265 #
vertex $-1 $189 $266 #
straight-curve $-1 64.031495101779228 0 -11.942353491188518 0 -1 0 I I #
coedge $-1 $169 $171 $110 $181 reversed $103 $-1 #
edge $-1 $184 -26.864228419223291 $187 26.864228419223291 $180 $267 forward 7 unknown #
coedge $-1 $175 $111 $116 $190 forward $167 $-1 #
coedge $-1 $111 $175 $169 $258 reversed $167 $-1 #
vertex $-1 $112 $268 #
straight-curve $-1 0 26.864228419223291 11.942353491188518 -1 0 0 I I #
coedge $-1 $113 $170 $115 $189 reversed $63 $-1 #
vertex $-1 $181 $269 #
straight-curve $-1 0 -26.864228419223291 11.942353491188518 1 0 0 I I #
edge $-1 $118 -11.942353491188518 $178 11.942353491188518 $115 $270 forward 7 unknown #
edge $-1 $119 -11.942353491188518 $177 11.942353491188518 $116 $271 forward 7 unknown #
point $-1 64.031495101779228 -26.864228419223291 11.942353491188518 #
point $-1 64.031495101779228 26.864228419223291 11.942353491188518 #
face $-1 $272 $208 $16 $-1 $273 reversed single #
loop $-1 $-1 $274 $121 #
plane-surface $-1 0 0 -11.942353491188518 0 0 1 1 0 0 forward_v I I I I #
coedge $-1 $127 $275 $124 $199 forward $122 $-1 #
coedge $-1 $198 $124 $276 $277 reversed $71 $-1 #
coedge $-1 $124 $197 $125 $201 forward $71 $-1 #
edge $-1 $278 36.329704144666792 $202 43.460524400996519 $196 $279 forward 7 unknown #
coedge $-1 $126 $125 $206 $280 reversed $45 $-1 #
edge $-1 $281 2.8089960468817396e-014 $202 11.330985732445169 $198 $282 forward 7 unknown #
vertex $-1 $128 $283 #
straight-curve $-1 -18.437690412878553 -19.733408162893564 11.942353491188518 1 0 0 I I #
vertex $-1 $280 $284 #
straight-curve $-1 -21.069663432290483 -26.864228419223309 3.136523596125059 0 -0.62932038083071107 -0.77714596973225614 I I #
coedge $-1 $276 $130 $200 $280 forward $208 $-1 #
coedge $-1 $130 $285 $132 $211 reversed $208 $-1 #
loop $-1 $-1 $276 $193 #
straight-curve $-1 -21.069663432290483 -26.864228419223295 41.864586680674044 0 0 -1 I I #
coedge $-1 $286 $132 $287 $288 forward $122 $-1 #
edge $-1 $134 -21.069663432290483 $289 64.031495101779228 $207 $290 forward 7 unknown #
point $-1 -21.069663432290483 -19.733408162893561 11.942353491188518 #
point $-1 -21.069663432290483 -26.864228419223291 11.942353491188518 #
face $-1 $291 $292 $17 $-1 $293 forward single #
loop $-1 $-1 $294 $136 #
plane-surface $-1 -52.681098219223728 -126.38786512778016 83.729173361348089 1 0 0 0 0.77714596973225614 -0.62932038083071107 forward_v I I I I #
loop $-1 $-1 $295 $78 #
coedge $-1 $219 $139 $296 $297 forward $79 $-1 #
coedge $-1 $139 $218 $298 $299 reversed $79 $-1 #
coedge $-1 $300 $301 $139 $221 forward $292 $-1 #
edge $-1 $302 -43.460524400996519 $303 -36.329704144666792 $220 $304 forward 7 unknown #
edge $-1 $305 1 $305 0 $140 $-1 forward 7 unknown #
vertex $-1 $141 $306 #
ellipse-curve $-1 -36.875380825757105 -17.71563865896449 3.0182689446866764 0 -0.77714596973225614 0.62932038083071107 2.5 0 0 1 I I #
point $-1 -34.375380825757105 -23.298818291058417 7.5394385436567832 #
face $-1 $307 $308 $18 $-1 $309 reversed single #
loop $-1 $310 $311 $144 #
cone-surface $-1 -36.875380825757105 -20.507228475011452 5.2788537441717303 0 0.77714596973225614 -0.62932038083071107 2.5 0 0 1 I I 0 1 2.5 forward I I I I #
coedge $-1 $147 $312 $313 $314 forward $87 $-1 #
coedge $-1 $149 $148 $237 $315 reversed $54 $-1 #
coedge $-1 $313 $316 $148 $232 forward $317 $-1 #
edge $-1 $318 -35.470043053456642 $233 -21.215669603723686 $231 $319 forward 7 unknown #
vertex $-1 $232 $320 #
straight-curve $-1 26.684153884672405 17.142769229119317 11.942353491188516 -1 0 0 I I #
vertex $-1 $315 $321 #
straight-curve $-1 42.705120436910391 -9.7784905571065366 40.811870821785831 0 0.68199835119979291 -0.73135370988377701 I I #
coedge $-1 $322 $152 $230 $315 forward $145 $-1 #
coedge $-1 $152 $323 $154 $241 reversed $145 $-1 #
straight-curve $-1 42.705120436910391 26.864228419223291 64.075309495163964 0 0 -1 I I #
coedge $-1 $324 $154 $325 $326 forward $87 $-1 #
edge $-1 $156 -42.705120436910391 $327 64.031495101779228 $238 $328 forward 7 unknown #
point $-1 42.705120436910391 17.142769229119313 11.94235349118852 #
point $-1 42.705120436910391 26.864228419223291 11.942353491188518 #
face $-1 $329 $330 $19 $-1 $331 reversed single #
loop $-1 $-1 $332 $158 #
plane-surface $-1 0 0 11.942353491188518 0 0 1 1 0 0 forward_v I I I I #
loop $-1 $-1 $333 $94 #
coedge $-1 $249 $161 $334 $335 forward $95 $-1 #
coedge $-1 $161 $248 $336 $337 reversed $95 $-1 #
coedge $-1 $338 $332 $161 $251 forward $245 $-1 #
edge $-1 $339 -24.797656984418555 $340 -15.076197794314577 $250 $341 forward 7 unknown #
edge $-1 $342 1 $342 0 $162 $-1 forward 7 unknown #
vertex $-1 $163 $343 #
ellipse-curve $-1 53.36830776934481 19.739554322052381 4.618696687810715 0 0.73135370988377701 0.68199835119979291 2 0 0 1 I I #
point $-1 55.36830776934481 22.00349882417132 6.7298590389230357 #
plane-surface $-1 64.031495101779228 0 0 -1 0 0 0 0 1 forward_v I I I I #
coedge $-1 $171 $169 $173 $261 reversed $103 $-1 #
edge $-1 $184 -11.942353491188518 $263 11.942353491188518 $183 $344 forward 7 unknown #
vertex $-1 $261 $345 #
straight-curve $-1 -64.031495101779228 -26.864228419223291 0 0 0 -1 I I #
edge $-1 $259 -26.864228419223291 $263 26.864228419223291 $257 $346 forward 7 unknown #
straight-curve $-1 0 -26.864228419223291 -11.942353491188518 -1 0 0 I I #
vertex $-1 $176 $347 #
straight-curve $-1 0 26.864228419223291 -11.942353491188518 1 0 0 I I #
point $-1 64.031495101779228 26.864228419223291 -11.942353491188518 #
point $-1 64.031495101779228 -26.864228419223291 -11.942353491188518 #
straight-curve $-1 -64.031495101779228 0 11.942353491188518 0 -1 0 I I #
point $-1 -64.031495101779228 26.864228419223291 11.942353491188518 #
point $-1 -64.031495101779228 -26.864228419223291 11.942353491188518 #
straight-curve $-1 64.031495101779228 -26.864228419223291 0 0 0 -1 I I #
straight-curve $-1 64.031495101779228 26.864228419223291 0 0 0 -1 I I #
face $-1 $348 $349 $16 $-1 $350 reversed single #
plane-surface $-1 0 -26.864228419223291 0 0 1 0 0 0 1 forward_v I I I I #
coedge $-1 $351 $352 $353 $354 forward $194 $-1 #
coedge $-1 $196 $355 $356 $357 forward $122 $-1 #
coedge $-1 $356 $206 $197 $277 forward $208 $-1 #
edge $-1 $281 -38.728063084548964 $278 -29.922233189485524 $276 $358 forward 7 unknown #
vertex $-1 $277 $359 #
straight-curve $-1 -52.681098219223728 -63.19393256389008 11.94235349118852 0 1 0 I I #
edge $-1 $204 2.6319730194119302 $281 34.243407806345175 $206 $360 forward 7 unknown #
vertex $-1 $280 $361 #
straight-curve $-1 -52.681098219223728 -26.864228419223309 3.136523596125059 0 0.62932038083071107 0.77714596973225614 I I #
point $-1 -52.681098219223728 -19.733408162893561 11.942353491188518 #
point $-1 -21.069663432290483 -26.864228419223291 3.1365235961250808 #
coedge $-1 $207 $362 $363 $364 reversed $208 $-1 #
coedge $-1 $355 $210 $365 $366 forward $122 $-1 #
coedge $-1 $363 $367 $210 $288 reversed $368 $-1 #
edge $-1 $289 -26.864228419223291 $369 26.864228419223291 $287 $370 forward 7 unknown #
vertex $-1 $288 $371 #
straight-curve $-1 0 -26.864228419223291 11.942353491188518 1 0 0 I I #
face $-1 $372 $373 $17 $-1 $374 reversed single #
loop $-1 $-1 $375 $214 #
plane-surface $-1 0 0 11.942353491188518 0 0 1 1 0 0 forward_v I I I I #
coedge $-1 $376 $377 $375 $378 reversed $215 $-1 #
coedge $-1 $379 $296 $301 $380 reversed $217 $-1 #
coedge $-1 $295 $381 $218 $297 reversed $217 $-1 #
edge $-1 $302 -11.330985732445169 $382 -2.8089960468817396e-014 $218 $383 forward 7 unknown #
coedge $-1 $384 $385 $219 $299 forward $386 $-1 #
edge $-1 $303 29.922233189485524 $382 38.728063084548964 $298 $387 forward 7 unknown #
coedge $-1 $388 $220 $385 $389 forward $292 $-1 #
coedge $-1 $220 $375 $295 $380 forward $292 $-1 #
vertex $-1 $380 $390 #
vertex $-1 $389 $391 #
straight-curve $-1 -21.069663432290483 -63.19393256389008 11.94235349118852 0 -1 0 I I #
vertex $-1 $222 $392 #
point $-1 -34.375380825757105 -17.71563865896449 3.0182689446866764 #
face $-1 $393 $394 $18 $-1 $395 forward single #
loop $-1 $396 $397 $226 #
cone-surface $-1 -36.875380825757105 -16.744206196799169 2.2316184686482874 0 0.77714596973225614 -0.62932038083071107 1.25 0 0 1 I I -0.70710678118654746 0.70710678118654746 1.25 forward I I I I #
loop $-1 $-1 $398 $144 #
coedge $-1 $311 $311 $399 $400 reversed $227 $-1 #
coedge $-1 $229 $401 $402 $403 forward $87 $-1 #
coedge $-1 $404 $231 $229 $314 reversed $317 $-1 #
edge $-1 $405 -26.864228419223291 $233 17.142769229119313 $313 $406 forward 7 unknown #
edge $-1 $235 16.020966552237986 $318 37.347341217106823 $237 $407 forward 7 unknown #
coedge $-1 $231 $408 $322 $409 reversed $317 $-1 #
loop $-1 $-1 $231 $410 #
vertex $-1 $409 $411 #
straight-curve $-1 64.031495101779228 2.6737175397801947 27.45851216354032 0 -0.68199835119979291 0.73135370988377701 I I #
point $-1 64.031495101779228 17.142769229119313 11.94235349118852 #
point $-1 42.705120436910391 26.864228419223295 1.5173645866575072 #
coedge $-1 $412 $237 $316 $409 forward $145 $-1 #
coedge $-1 $238 $412 $413 $414 reversed $145 $-1 #
coedge $-1 $415 $240 $416 $417 forward $87 $-1 #
coedge $-1 $413 $418 $240 $326 reversed $419 $-1 #
edge $-1 $327 -26.864228419223291 $420 26.864228419223291 $325 $421 forward 7 unknown #
vertex $-1 $241 $422 #
straight-curve $-1 0 26.864228419223291 11.942353491188518 -1 0 0 I I #
face $-1 $423 $424 $19 $-1 $425 reversed single #
loop $-1 $-1 $336 $244 #
plane-surface $-1 0 26.864228419223291 0 0 -1 0 0 0 -1 forward_v I I I I #
coedge $-1 $250 $426 $333 $427 forward $245 $-1 #
coedge $-1 $428 $334 $332 $427 reversed $247 $-1 #
coedge $-1 $333 $429 $248 $335 reversed $247 $-1 #
edge $-1 $339 39.474083388713659 $430 53.728456838446618 $248 $431 forward 7 unknown #
coedge $-1 $432 $433 $249 $337 forward $330 $-1 #
edge $-1 $340 52.132956003975444 $430 62.557944908506457 $336 $434 forward 7 unknown #
coedge $-1 $435 $250 $433 $436 forward $245 $-1 #
vertex $-1 $427 $437 #
vertex $-1 $436 $438 #
straight-curve $-1 42.705120436910391 41.940426213537869 11.94235349118852 0 1 0 I I #
vertex $-1 $252 $439 #
point $-1 55.36830776934481 19.739554322052381 4.618696687810715 #
straight-curve $-1 -64.031495101779228 26.864228419223291 0 0 0 -1 I I #
point $-1 -64.031495101779228 -26.864228419223291 -11.942353491188518 #
straight-curve $-1 -64.031495101779228 0 -11.942353491188518 0 1 0 I I #
point $-1 -64.031495101779228 26.864228419223291 -11.942353491188518 #
face $-1 $440 $441 $16 $-1 $442 reversed single #
loop $-1 $-1 $443 $272 #
plane-surface $-1 -64.031495101779228 0 0 1 0 0 0 0 -1 forward_v I I I I #
coedge $-1 $444 $274 $362 $445 forward $194 $-1 #
coedge $-1 $274 $444 $446 $447 forward $194 $-1 #
coedge $-1 $367 $363 $274 $354 reversed $368 $-1 #
edge $-1 $448 -26.864228419223291 $449 26.864228419223291 $353 $450 forward 7 unknown #
coedge $-1 $275 $286 $451 $452 forward $122 $-1 #
coedge $-1 $453 $276 $275 $357 reversed $208 $-1 #
edge $-1 $454 -64.031495101779228 $278 -52.681098219223728 $356 $290 forward 7 unknown #
straight-curve $-1 -52.681098219223728 -26.864228419223295 41.864586680674044 0 0 1 I I #
point $-1 -52.681098219223728 -26.864228419223291 11.942353491188518 #
straight-curve $-1 -18.437690412878553 -26.864228419223291 3.1365235961250844 -1 0 0 I I #
point $-1 -52.681098219223728 -26.864228419223291 3.1365235961250808 #
coedge $-1 $285 $453 $351 $445 reversed $208 $-1 #
coedge $-1 $353 $287 $285 $364 forward $368 $-1 #
edge $-1 $289 -11.942353491188518 $449 11.942353491188518 $363 $455 forward 7 unknown #
coedge $-1 $456 $457 $286 $366 reversed $441 $-1 #
edge $-1 $369 -64.031495101779228 $458 64.031495101779228 $365 $459 forward 7 unknown #
coedge $-1 $287 $353 $456 $460 reversed $368 $-1 #
loop $-1 $-1 $363 $440 #
vertex $-1 $288 $461 #
straight-curve $-1 64.031495101779228 0 11.942353491188518 0 1 0 I I #
point $-1 64.031495101779228 -26.864228419223291 11.942353491188518 #
face $-1 $462 $386 $17 $-1 $463 reversed single #
loop $-1 $-1 $464 $291 #
plane-surface $-1 0 0 -11.942353491188518 0 0 1 1 0 0 forward_v I I I I #
coedge $-1 $301 $465 $294 $378 forward $292 $-1 #
coedge $-1 $377 $294 $466 $467 reversed $215 $-1 #
coedge $-1 $294 $376 $379 $468 forward $215 $-1 #
edge $-1 $469 36.329704144666792 $470 43.460524400996519 $375 $471 forward 7 unknown #
coedge $-1 $381 $295 $377 $468 reversed $217 $-1 #
edge $-1 $470 -34.243407806345175 $302 -2.6319730194119302 $301 $472 forward 7 unknown #
coedge $-1 $296 $379 $384 $473 reversed $217 $-1 #
vertex $-1 $473 $474 #
straight-curve $-1 -21.069663432290483 -26.864228419223309 3.136523596125059 0 -0.62932038083071107 -0.77714596973225614 I I #
coedge $-1 $466 $298 $381 $473 forward $386 $-1 #
coedge $-1 $298 $475 $300 $389 reversed $386 $-1 #
loop $-1 $-1 $466 $372 #
straight-curve $-1 -21.069663432290483 -26.864228419223295 41.864586680674044 0 0 -1 I I #
coedge $-1 $476 $300 $477 $478 forward $292 $-1 #
edge $-1 $303 -21.069663432290483 $479 64.031495101779228 $385 $480 forward 7 unknown #
point $-1 -21.069663432290483 -19.733408162893561 11.942353491188518 #
point $-1 -21.069663432290483 -26.864228419223291 11.942353491188518 #
point $-1 -36.875380825757105 -15.77277373463385 1.4449679926098986 #
face $-1 $481 $482 $18 $-1 $483 forward single #
loop $-1 $-1 $484 $307 #
plane-surface $-1 -21.069663432290483 -126.38786512778016 83.729173361348089 -1 0 0 0 -0.77714596973225614 0.62932038083071107 forward_v I I I I #
loop $-1 $-1 $485 $226 #
coedge $-1 $397 $397 $398 $486 forward $308 $-1 #
coedge $-1 $398 $398 $397 $486 reversed $310 $-1 #
coedge $-1 $399 $399 $311 $400 forward $482 $-1 #
edge $-1 $487 2.8809576340912044e-016 $487 6.2831853071796004 $399 $488 forward 7 unknown #
coedge $-1 $312 $489 $484 $490 forward $87 $-1 #
coedge $-1 $491 $492 $312 $403 reversed $493 $-1 #
edge $-1 $494 -21.069663432290483 $405 64.031495101779228 $402 $495 forward 7 unknown #
coedge $-1 $408 $313 $492 $496 forward $317 $-1 #
vertex $-1 $314 $497 #
straight-curve $-1 64.031495101779228 0 11.942353491188518 0 1 0 I I #
straight-curve $-1 26.684153884672405 26.864228419223288 1.5173645866575143 1 0 0 I I #
coedge $-1 $316 $404 $498 $499 reversed $317 $-1 #
edge $-1 $318 -1.5173645866575072 $500 11.942353491188518 $316 $501 forward 7 unknown #
face $-1 $-1 $317 $18 $-1 $502 reversed single #
point $-1 64.031495101779228 26.864228419223295 1.5173645866575072 #
coedge $-1 $323 $322 $503 $504 reversed $145 $-1 #
coedge $-1 $505 $325 $323 $414 forward $419 $-1 #
edge $-1 $327 -11.942353491188518 $506 11.942353491188518 $323 $507 forward 7 unknown #
coedge $-1 $489 $324 $508 $509 forward $87 $-1 #
coedge $-1 $510 $511 $324 $417 reversed $493 $-1 #
edge $-1 $420 -64.031495101779228 $512 -52.681098219223728 $416 $495 forward 7 unknown #
coedge $-1 $325 $505 $510 $513 reversed $419 $-1 #
loop $-1 $-1 $413 $514 #
vertex $-1 $326 $515 #
straight-curve $-1 -64.031495101779228 0 11.942353491188518 0 -1 0 I I #
point $-1 -64.031495101779228 26.864228419223291 11.942353491188518 #
face $-1 $516 $517 $19 $-1 $518 reversed single #
loop $-1 $519 $520 $329 #
cone-surface $-1 -36.875380825757105 -20.507228475011452 5.2788537441717303 0 0.77714596973225614 -0.62932038083071107 2.5 0 0 1 I I 0 1 2.5 forward I I I I #
coedge $-1 $332 $521 $522 $523 forward $245 $-1 #
edge $-1 $524 -37.347341217106823 $339 -16.020966552237986 $332 $525 forward 7 unknown #
coedge $-1 $429 $333 $526 $527 reversed $247 $-1 #
coedge $-1 $334 $428 $432 $528 reversed $247 $-1 #
vertex $-1 $528 $529 #
straight-curve $-1 42.705120436910391 -9.7784905571065366 40.811870821785831 0 0.68199835119979291 -0.73135370988377701 I I #
coedge $-1 $530 $336 $429 $528 forward $330 $-1 #
coedge $-1 $336 $531 $338 $436 reversed $330 $-1 #
straight-curve $-1 42.705120436910391 26.864228419223291 64.075309495163964 0 0 -1 I I #
coedge $-1 $532 $338 $533 $534 forward $245 $-1 #
edge $-1 $340 -42.705120436910391 $535 64.031495101779228 $433 $536 forward 7 unknown #
point $-1 42.705120436910391 17.142769229119313 11.94235349118852 #
point $-1 42.705120436910391 26.864228419223291 11.942353491188518 #
point $-1 53.36830776934481 18.276846902284827 3.2546999854111291 #
face $-1 $-1 $368 $16 $-1 $537 reversed single #
loop $-1 $-1 $456 $348 #
plane-surface $-1 0 26.864228419223291 0 0 -1 0 0 0 -1 forward_v I I I I #
coedge $-1 $538 $451 $457 $539 forward $349 $-1 #
coedge $-1 $352 $351 $538 $540 forward $194 $-1 #
edge $-1 $449 -64.031495101779228 $541 64.031495101779228 $362 $542 forward 7 unknown #
coedge $-1 $457 $456 $352 $447 reversed $441 $-1 #
edge $-1 $543 -64.031495101779228 $448 64.031495101779228 $446 $544 forward 7 unknown #
vertex $-1 $354 $545 #
vertex $-1 $364 $546 #
straight-curve $-1 64.031495101779228 0 -11.942353491188518 0 -1 0 I I #
coedge $-1 $443 $547 $355 $452 reversed $349 $-1 #
edge $-1 $458 -26.864228419223291 $454 26.864228419223291 $451 $548 forward 7 unknown #
coedge $-1 $362 $356 $547 $549 forward $208 $-1 #
vertex $-1 $452 $550 #
straight-curve $-1 64.031495101779228 -26.864228419223291 0 0 0 -1 I I #
coedge $-1 $446 $365 $367 $460 forward $441 $-1 #
coedge $-1 $365 $446 $443 $539 reversed $441 $-1 #
vertex $-1 $366 $551 #
straight-curve $-1 0 26.864228419223291 11.942353491188518 -1 0 0 I I #
edge $-1 $369 -11.942353491188518 $448 11.942353491188518 $367 $552 forward 7 unknown #
point $-1 64.031495101779228 26.864228419223291 11.942353491188518 #
face $-1 $553 $554 $17 $-1 $555 reversed single #
plane-surface $-1 0 -26.864228419223291 0 0 1 0 0 0 1 forward_v I I I I #
coedge $-1 $556 $557 $558 $559 forward $373 $-1 #
coedge $-1 $375 $560 $561 $562 forward $292 $-1 #
coedge $-1 $561 $384 $376 $467 forward $386 $-1 #
edge $-1 $563 -38.728063084548964 $469 -29.922233189485524 $466 $564 forward 7 unknown #
edge $-1 $563 2.8089960468817396e-014 $470 11.330985732445169 $377 $565 forward 7 unknown #
vertex $-1 $467 $566 #
vertex $-1 $380 $567 #
straight-curve $-1 -52.681098219223728 -63.19393256389008 11.94235349118852 0 1 0 I I #
straight-curve $-1 -18.437690412878553 -19.733408162893564 11.942353491188518 1 0 0 I I #
edge $-1 $382 2.6319730194119302 $563 34.243407806345175 $384 $568 forward 7 unknown #
point $-1 -21.069663432290483 -26.864228419223291 3.1365235961250808 #
coedge $-1 $385 $569 $570 $571 reversed $386 $-1 #
coedge $-1 $560 $388 $572 $573 forward $292 $-1 #
coedge $-1 $570 $574 $388 $478 reversed $575 $-1 #
edge $-1 $479 -26.864228419223291 $576 26.864228419223291 $477 $577 forward 7 unknown #
vertex $-1 $478 $578 #
straight-curve $-1 0 -26.864228419223291 11.942353491188518 1 0 0 I I #
face $-1 $579 $580 $18 $-1 $581 forward single #
loop $-1 $582 $399 $393 #
plane-surface $-1 -36.875380825757105 -26.864228419223309 3.136523596125059 0 -0.77714596973225614 0.62932038083071107 1 0 0 forward_v I I I I #
coedge $-1 $583 $584 $401 $490 reversed $394 $-1 #
coedge $-1 $485 $485 $-1 $585 forward $396 $-1 #
edge $-1 $586 0 $586 6.2831853071796004 $397 $587 forward 7 unknown #
vertex $-1 $400 $588 #
ellipse-curve $-1 -36.875380825757105 -23.298818291058431 7.5394385436567957 0 0.77714596973225614 -0.62932038083071107 2.5 0 0 1 I I #
coedge $-1 $401 $415 $589 $590 forward $87 $-1 #
edge $-1 $591 -43.460524400996519 $494 -36.329704144666792 $401 $592 forward 7 unknown #
coedge $-1 $593 $402 $584 $594 forward $493 $-1 #
coedge $-1 $402 $595 $404 $496 reversed $493 $-1 #
loop $-1 $-1 $511 $596 #
vertex $-1 $403 $597 #
straight-curve $-1 0 -26.864228419223291 11.942353491188518 1 0 0 I I #
edge $-1 $405 -11.942353491188518 $598 11.942353491188518 $404 $599 forward 7 unknown #
point $-1 64.031495101779228 -26.864228419223291 11.942353491188518 #
coedge $-1 $600 $503 $408 $499 forward $601 $-1 #
edge $-1 $500 -26.864228419223291 $598 26.864228419223291 $408 $602 forward 7 unknown #
vertex $-1 $499 $603 #
straight-curve $-1 64.031495101779228 26.864228419223291 0 0 0 -1 I I #
plane-surface $-1 64.031495101779228 0 0 -1 0 0 0 0 1 forward_v I I I I #
coedge $-1 $498 $604 $412 $504 forward $601 $-1 #
edge $-1 $506 -64.031495101779228 $500 64.031495101779228 $412 $605 forward 7 unknown #
coedge $-1 $418 $413 $604 $606 reversed $419 $-1 #
vertex $-1 $504 $607 #
straight-curve $-1 -64.031495101779228 26.864228419223291 0 0 0 -1 I I #
coedge $-1 $608 $609 $415 $509 reversed $580 $-1 #
edge $-1 $512 36.329704144666792 $610 43.460524400996519 $415 $611 forward 7 unknown #
coedge $-1 $595 $416 $418 $513 forward $493 $-1 #
coedge $-1 $416 $593 $608 $612 forward $493 $-1 #
vertex $-1 $612 $613 #
edge $-1 $420 -11.942353491188518 $614 11.942353491188518 $418 $615 forward 7 unknown #
face $-1 $410 $419 $18 $-1 $616 reversed single #
point $-1 -64.031495101779228 -26.864228419223291 11.942353491188518 #
face $-1 $617 $618 $19 $-1 $619 forward single #
loop $-1 $620 $621 $423 #
cone-surface $-1 -36.875380825757105 -16.744206196799169 2.2316184686482874 0 0.77714596973225614 -0.62932038083071107 1.25 0 0 1 I I -0.70710678118654746 0.70710678118654746 1.25 forward I I I I #
loop $-1 $-1 $622 $329 #
coedge $-1 $520 $520 $623 $624 reversed $424 $-1 #
coedge $-1 $426 $625 $626 $627 forward $245 $-1 #
coedge $-1 $628 $526 $426 $523 reversed $629 $-1 #
edge $-1 $630 -26.864228419223291 $524 17.142769229119313 $522 $631 forward 7 unknown #
vertex $-1 $527 $632 #
straight-curve $-1 26.684153884672405 17.142769229119317 11.942353491188516 -1 0 0 I I #
coedge $-1 $522 $633 $428 $527 forward $629 $-1 #
edge $-1 $634 -35.470043053456642 $524 -21.215669603723686 $526 $635 forward 7 unknown #
edge $-1 $430 16.020966552237986 $634 37.347341217106823 $432 $636 forward 7 unknown #
point $-1 42.705120436910391 26.864228419223295 1.5173645866575072 #
coedge $-1 $637 $432 $633 $638 forward $330 $-1 #
coedge $-1 $433 $637 $639 $640 reversed $330 $-1 #
coedge $-1 $641 $435 $642 $643 forward $245 $-1 #
coedge $-1 $639 $644 $435 $534 reversed $645 $-1 #
edge $-1 $535 -26.864228419223291 $646 26.864228419223291 $533 $647 forward 7 unknown #
vertex $-1 $436 $648 #
straight-curve $-1 0 26.864228419223291 11.942353491188518 -1 0 0 I I #
plane-surface $-1 64.031495101779228 0 0 -1 0 0 0 0 1 forward_v I I I I #
coedge $-1 $547 $443 $444 $540 reversed $349 $-1 #
edge $-1 $458 -11.942353491188518 $543 11.942353491188518 $457 $649 forward 7 unknown #
edge $-1 $541 -26.864228419223291 $543 26.864228419223291 $538 $650 forward 7 unknown #
vertex $-1 $540 $651 #
straight-curve $-1 0 -26.864228419223291 -11.942353491188518 -1 0 0 I I #
vertex $-1 $447 $652 #
straight-curve $-1 0 26.864228419223291 -11.942353491188518 1 0 0 I I #
point $-1 64.031495101779228 26.864228419223291 -11.942353491188518 #
point $-1 64.031495101779228 -26.864228419223291 -11.942353491188518 #
coedge $-1 $451 $538 $453 $549 reversed $349 $-1 #
straight-curve $-1 -64.031495101779228 0 11.942353491188518 0 -1 0 I I #
edge $-1 $454 -11.942353491188518 $541 11.942353491188518 $547 $653 forward 7 unknown #
point $-1 -64.031495101779228 -26.864228419223291 11.942353491188518 #
point $-1 -64.031495101779228 26.864228419223291 11.942353491188518 #
straight-curve $-1 64.031495101779228 26.864228419223291 0 0 0 -1 I I #
face $-1 $654 $655 $17 $-1 $656 reversed single #
loop $-1 $-1 $657 $462 #
plane-surface $-1 -64.031495101779228 0 0 1 0 0 0 0 -1 forward_v I I I I #
coedge $-1 $658 $464 $569 $659 forward $373 $-1 #
coedge $-1 $464 $658 $660 $661 forward $373 $-1 #
coedge $-1 $574 $570 $464 $559 reversed $575 $-1 #
edge $-1 $662 -26.864228419223291 $663 26.864228419223291 $558 $664 forward 7 unknown #
coedge $-1 $465 $476 $665 $666 forward $292 $-1 #
coedge $-1 $667 $466 $465 $562 reversed $386 $-1 #
edge $-1 $668 -64.031495101779228 $469 -52.681098219223728 $561 $480 forward 7 unknown #
vertex $-1 $473 $669 #
straight-curve $-1 -52.681098219223728 -26.864228419223295 41.864586680674044 0 0 1 I I #
straight-curve $-1 -52.681098219223728 -26.864228419223309 3.136523596125059 0 0.62932038083071107 0.77714596973225614 I I #
point $-1 -52.681098219223728 -26.864228419223291 11.942353491188518 #
point $-1 -52.681098219223728 -19.733408162893561 11.942353491188518 #
straight-curve $-1 -18.437690412878553 -26.864228419223291 3.1365235961250844 -1 0 0 I I #
coedge $-1 $475 $667 $556 $659 reversed $386 $-1 #
coedge $-1 $558 $477 $475 $571 forward $575 $-1 #
edge $-1 $479 -11.942353491188518 $663 11.942353491188518 $570 $670 forward 7 unknown #
coedge $-1 $671 $672 $476 $573 reversed $655 $-1 #
edge $-1 $576 -64.031495101779228 $673 64.031495101779228 $572 $674 forward 7 unknown #
coedge $-1 $477 $558 $671 $675 reversed $575 $-1 #
loop $-1 $-1 $570 $654 #
vertex $-1 $478 $676 #
straight-curve $-1 64.031495101779228 0 11.942353491188518 0 1 0 I I #
point $-1 64.031495101779228 -26.864228419223291 11.942353491188518 #
face $-1 $596 $601 $18 $-1 $677 reversed single #
loop $-1 $-1 $508 $481 #
plane-surface $-1 -52.681098219223728 -126.38786512778016 83.729173361348089 1 0 0 0 0.77714596973225614 -0.62932038083071107 forward_v I I I I #
loop $-1 $-1 $589 $393 #
coedge $-1 $584 $484 $678 $679 forward $394 $-1 #
coedge $-1 $484 $583 $491 $594 reversed $394 $-1 #
edge $-1 $680 1 $680 0 $485 $-1 forward 7 unknown #
vertex $-1 $486 $681 #
ellipse-curve $-1 -36.875380825757105 -17.71563865896449 3.0182689446866764 0 -0.77714596973225614 0.62932038083071107 2.5 0 0 1 I I #
point $-1 -34.375380825757105 -23.298818291058417 7.5394385436567832 #
coedge $-1 $682 $678 $489 $590 reversed $582 $-1 #
edge $-1 $610 -34.243407806345175 $591 -2.6319730194119302 $489 $683 forward 7 unknown #
vertex $-1 $590 $684 #
straight-curve $-1 -21.069663432290483 -63.19393256389008 11.94235349118852 0 -1 0 I I #
coedge $-1 $511 $491 $685 $686 forward $493 $-1 #
edge $-1 $494 29.922233189485524 $687 38.728063084548964 $491 $688 forward 7 unknown #
coedge $-1 $492 $510 $600 $689 reversed $493 $-1 #
face $-1 $514 $493 $18 $-1 $690 reversed single #
point $-1 -21.069663432290483 -26.864228419223291 11.942353491188518 #
vertex $-1 $496 $691 #
straight-curve $-1 64.031495101779228 -26.864228419223291 0 0 0 -1 I I #
coedge $-1 $604 $498 $595 $689 forward $601 $-1 #
loop $-1 $-1 $498 $579 #
straight-curve $-1 64.031495101779228 0 -11.942353491188518 0 -1 0 I I #
point $-1 64.031495101779228 26.864228419223291 -11.942353491188518 #
coedge $-1 $503 $600 $505 $606 forward $601 $-1 #
straight-curve $-1 0 26.864228419223291 -11.942353491188518 1 0 0 I I #
edge $-1 $614 -26.864228419223291 $506 26.864228419223291 $505 $692 forward 7 unknown #
point $-1 -64.031495101779228 26.864228419223291 -11.942353491188518 #
coedge $-1 $609 $508 $511 $612 reversed $580 $-1 #
coedge $-1 $508 $608 $682 $693 forward $580 $-1 #
vertex $-1 $590 $694 #
straight-curve $-1 -52.681098219223728 -63.19393256389008 11.94235349118852 0 1 0 I I #
edge $-1 $695 -38.728063084548964 $512 -29.922233189485524 $511 $696 forward 7 unknown #
point $-1 -52.681098219223728 -26.864228419223291 11.942353491188518 #
vertex $-1 $606 $697 #
straight-curve $-1 -64.031495101779228 -26.864228419223291 0 0 0 -1 I I #
plane-surface $-1 -64.031495101779228 0 0 1 0 0 0 0 -1 forward_v I I I I #
face $-1 $698 $699 $19 $-1 $700 forward single #
loop $-1 $-1 $701 $516 #
plane-surface $-1 -21.069663432290483 -126.38786512778016 83.729173361348089 -1 0 0 0 -0.77714596973225614 0.62932038083071107 forward_v I I I I #
loop $-1 $-1 $702 $423 #
coedge $-1 $621 $621 $622 $703 forward $517 $-1 #
coedge $-1 $622 $622 $621 $703 reversed $519 $-1 #
coedge $-1 $623 $623 $520 $624 forward $699 $-1 #
edge $-1 $704 2.8809576340912044e-016 $704 6.2831853071796004 $623 $705 forward 7 unknown #
coedge $-1 $521 $706 $701 $707 forward $245 $-1 #
coedge $-1 $708 $709 $521 $627 reversed $710 $-1 #
edge $-1 $711 -21.069663432290483 $630 64.031495101779228 $626 $712 forward 7 unknown #
coedge $-1 $713 $522 $709 $714 forward $629 $-1 #
loop $-1 $-1 $526 $715 #
vertex $-1 $523 $716 #
straight-curve $-1 64.031495101779228 0 11.942353491188518 0 1 0 I I #
point $-1 64.031495101779228 17.142769229119313 11.94235349118852 #
coedge $-1 $526 $713 $530 $638 reversed $629 $-1 #
vertex $-1 $638 $717 #
straight-curve $-1 64.031495101779228 2.6737175397801947 27.45851216354032 0 -0.68199835119979291 0.73135370988377701 I I #
straight-curve $-1 26.684153884672405 26.864228419223288 1.5173645866575143 1 0 0 I I #
coedge $-1 $531 $530 $718 $719 reversed $330 $-1 #
edge $-1 $634 -1.5173645866575072 $720 11.942353491188518 $633 $721 forward 7 unknown #
coedge $-1 $722 $533 $531 $640 forward $645 $-1 #
edge $-1 $535 -11.942353491188518 $723 11.942353491188518 $531 $724 forward 7 unknown #
coedge $-1 $706 $532 $725 $726 forward $245 $-1 #
coedge $-1 $727 $728 $532 $643 reversed $710 $-1 #
edge $-1 $646 -64.031495101779228 $729 -52.681098219223728 $642 $712 forward 7 unknown #
coedge $-1 $533 $722 $727 $730 reversed $645 $-1 #
loop $-1 $-1 $639 $731 #
vertex $-1 $534 $732 #
straight-curve $-1 -64.031495101779228 0 11.942353491188518 0 -1 0 I I #
point $-1 -64.031495101779228 26.864228419223291 11.942353491188518 #
straight-curve $-1 -64.031495101779228 26.864228419223291 0 0 0 -1 I I #
straight-curve $-1 -64.031495101779228 0 -11.942353491188518 0 1 0 I I #
point $-1 -64.031495101779228 -26.864228419223291 -11.942353491188518 #
point $-1 -64.031495101779228 26.864228419223291 -11.942353491188518 #
straight-curve $-1 -64.031495101779228 -26.864228419223291 0 0 0 -1 I I #
face $-1 $-1 $575 $17 $-1 $733 reversed single #
loop $-1 $-1 $671 $553 #
plane-surface $-1 0 26.864228419223291 0 0 -1 0 0 0 -1 forward_v I I I I #
coedge $-1 $734 $665 $672 $735 forward $554 $-1 #
coedge $-1 $557 $556 $734 $736 forward $373 $-1 #
edge $-1 $663 -64.031495101779228 $737 64.031495101779228 $569 $738 forward 7 unknown #
coedge $-1 $672 $671 $557 $661 reversed $655 $-1 #
edge $-1 $739 -64.031495101779228 $662 64.031495101779228 $660 $740 forward 7 unknown #
vertex $-1 $559 $741 #
vertex $-1 $571 $742 #
straight-curve $-1 64.031495101779228 0 -11.942353491188518 0 -1 0 I I #
coedge $-1 $657 $743 $560 $666 reversed $554 $-1 #
edge $-1 $673 -26.864228419223291 $668 26.864228419223291 $665 $744 forward 7 unknown #
coedge $-1 $569 $561 $743 $745 forward $386 $-1 #
vertex $-1 $666 $746 #
point $-1 -52.681098219223728 -26.864228419223291 3.1365235961250808 #
straight-curve $-1 64.031495101779228 -26.864228419223291 0 0 0 -1 I I #
coedge $-1 $660 $572 $574 $675 forward $655 $-1 #
coedge $-1 $572 $660 $657 $735 reversed $655 $-1 #
vertex $-1 $573 $747 #
straight-curve $-1 0 26.864228419223291 11.942353491188518 -1 0 0 I I #
edge $-1 $576 -11.942353491188518 $662 11.942353491188518 $574 $748 forward 7 unknown #
point $-1 64.031495101779228 26.864228419223291 11.942353491188518 #
plane-surface $-1 0 0 -11.942353491188518 0 0 1 1 0 0 forward_v I I I I #
coedge $-1 $589 $685 $583 $679 reversed $582 $-1 #
edge $-1 $591 -11.330985732445169 $687 -2.8089960468817396e-014 $583 $749 forward 7 unknown #
vertex $-1 $585 $750 #
point $-1 -34.375380825757105 -17.71563865896449 3.0182689446866764 #
coedge $-1 $685 $589 $609 $693 reversed $582 $-1 #
straight-curve $-1 -18.437690412878553 -19.733408162893564 11.942353491188518 1 0 0 I I #
point $-1 -21.069663432290483 -19.733408162893561 11.942353491188518 #
coedge $-1 $678 $682 $593 $686 reversed $582 $-1 #
edge $-1 $687 2.6319730194119302 $695 34.243407806345175 $593 $751 forward 7 unknown #
vertex $-1 $686 $752 #
straight-curve $-1 -21.069663432290483 -26.864228419223295 41.864586680674044 0 0 -1 I I #
edge $-1 $598 -64.031495101779228 $614 64.031495101779228 $595 $753 forward 7 unknown #
plane-surface $-1 0 -26.864228419223291 0 0 1 0 0 0 1 forward_v I I I I #
point $-1 64.031495101779228 -26.864228419223291 -11.942353491188518 #
straight-curve $-1 -64.031495101779228 0 -11.942353491188518 0 1 0 I I #
edge $-1 $695 2.8089960468817396e-014 $610 11.330985732445169 $609 $754 forward 7 unknown #
point $-1 -52.681098219223728 -19.733408162893561 11.942353491188518 #
vertex $-1 $686 $755 #
straight-curve $-1 -52.681098219223728 -26.864228419223295 41.864586680674044 0 0 1 I I #
point $-1 -64.031495101779228 -26.864228419223291 -11.942353491188518 #
face $-1 $756 $757 $19 $-1 $758 forward single #
loop $-1 $759 $623 $617 #
plane-surface $-1 -36.875380825757105 -26.864228419223309 3.136523596125059 0 -0.77714596973225614 0.62932038083071107 1 0 0 forward_v I I I I #
coedge $-1 $760 $761 $625 $707 reversed $618 $-1 #
coedge $-1 $702 $702 $-1 $762 forward $620 $-1 #
edge $-1 $763 0 $763 6.2831853071796004 $621 $764 forward 7 unknown #
vertex $-1 $624 $765 #
ellipse-curve $-1 -36.875380825757105 -23.298818291058431 7.5394385436567957 0 0.77714596973225614 -0.62932038083071107 2.5 0 0 1 I I #
coedge $-1 $625 $641 $766 $767 forward $245 $-1 #
edge $-1 $768 -43.460524400996519 $711 -36.329704144666792 $625 $769 forward 7 unknown #
coedge $-1 $770 $626 $761 $771 forward $710 $-1 #
coedge $-1 $626 $772 $628 $714 reversed $710 $-1 #
loop $-1 $-1 $728 $773 #
vertex $-1 $627 $774 #
straight-curve $-1 0 -26.864228419223291 11.942353491188518 1 0 0 I I #
coedge $-1 $633 $628 $775 $776 reversed $629 $-1 #
edge $-1 $630 -11.942353491188518 $777 11.942353491188518 $628 $778 forward 7 unknown #
face $-1 $-1 $629 $19 $-1 $779 reversed single #
point $-1 64.031495101779228 -26.864228419223291 11.942353491188518 #
point $-1 64.031495101779228 26.864228419223295 1.5173645866575072 #
coedge $-1 $775 $780 $637 $719 forward $781 $-1 #
edge $-1 $723 -64.031495101779228 $720 64.031495101779228 $637 $782 forward 7 unknown #
vertex $-1 $776 $783 #
straight-curve $-1 64.031495101779228 26.864228419223291 0 0 0 -1 I I #
coedge $-1 $644 $639 $780 $784 reversed $645 $-1 #
vertex $-1 $719 $785 #
straight-curve $-1 -64.031495101779228 26.864228419223291 0 0 0 -1 I I #
coedge $-1 $786 $787 $641 $726 reversed $757 $-1 #
edge $-1 $729 36.329704144666792 $788 43.460524400996519 $641 $789 forward 7 unknown #
coedge $-1 $772 $642 $644 $730 forward $710 $-1 #
coedge $-1 $642 $770 $786 $790 forward $710 $-1 #
vertex $-1 $790 $791 #
edge $-1 $646 -11.942353491188518 $792 11.942353491188518 $644 $793 forward 7 unknown #
face $-1 $715 $645 $19 $-1 $794 reversed single #
point $-1 -64.031495101779228 -26.864228419223291 11.942353491188518 #
plane-surface $-1 64.031495101779228 0 0 -1 0 0 0 0 1 forward_v I I I I #
coedge $-1 $743 $657 $658 $736 reversed $554 $-1 #
edge $-1 $673 -11.942353491188518 $739 11.942353491188518 $672 $795 forward 7 unknown #
edge $-1 $737 -26.864228419223291 $739 26.864228419223291 $734 $796 forward 7 unknown #
vertex $-1 $736 $797 #
straight-curve $-1 0 -26.864228419223291 -11.942353491188518 -1 0 0 I I #
vertex $-1 $661 $798 #
straight-curve $-1 0 26.864228419223291 -11.942353491188518 1 0 0 I I #
point $-1 64.031495101779228 26.864228419223291 -11.942353491188518 #
point $-1 64.031495101779228 -26.864228419223291 -11.942353491188518 #
coedge $-1 $665 $734 $667 $745 reversed $554 $-1 #
straight-curve $-1 -64.031495101779228 0 11.942353491188518 0 -1 0 I I #
edge $-1 $668 -11.942353491188518 $737 11.942353491188518 $743 $799 forward 7 unknown #
point $-1 -64.031495101779228 -26.864228419223291 11.942353491188518 #
point $-1 -64.031495101779228 26.864228419223291 11.942353491188518 #
straight-curve $-1 64.031495101779228 26.864228419223291 0 0 0 -1 I I #
straight-curve $-1 -21.069663432290483 -26.864228419223309 3.136523596125059 0 -0.62932038083071107 -0.77714596973225614 I I #
point $-1 -36.875380825757105 -15.77277373463385 1.4449679926098986 #
straight-curve $-1 -18.437690412878553 -26.864228419223291 3.1365235961250844 -1 0 0 I I #
point $-1 -21.069663432290483 -26.864228419223291 3.1365235961250808 #
straight-curve $-1 0 -26.864228419223291 -11.942353491188518 -1 0 0 I I #
straight-curve $-1 -52.681098219223728 -26.864228419223309 3.136523596125059 0 0.62932038083071107 0.77714596973225614 I I #
point $-1 -52.681098219223728 -26.864228419223291 3.1365235961250808 #
face $-1 $773 $781 $19 $-1 $800 reversed single #
loop $-1 $-1 $725 $698 #
plane-surface $-1 -52.681098219223728 -126.38786512778016 83.729173361348089 1 0 0 0 0.77714596973225614 -0.62932038083071107 forward_v I I I I #
loop $-1 $-1 $766 $617 #
coedge $-1 $761 $701 $801 $802 forward $618 $-1 #
coedge $-1 $701 $760 $708 $771 reversed $618 $-1 #
edge $-1 $803 1 $803 0 $702 $-1 forward 7 unknown #
vertex $-1 $703 $804 #
ellipse-curve $-1 -36.875380825757105 -17.71563865896449 3.0182689446866764 0 -0.77714596973225614 0.62932038083071107 2.5 0 0 1 I I #
point $-1 -34.375380825757105 -23.298818291058417 7.5394385436567832 #
coedge $-1 $805 $801 $706 $767 reversed $759 $-1 #
edge $-1 $788 -34.243407806345175 $768 -2.6319730194119302 $706 $806 forward 7 unknown #
vertex $-1 $767 $807 #
straight-curve $-1 -21.069663432290483 -63.19393256389008 11.94235349118852 0 -1 0 I I #
coedge $-1 $728 $708 $808 $809 forward $710 $-1 #
edge $-1 $711 29.922233189485524 $810 38.728063084548964 $708 $811 forward 7 unknown #
coedge $-1 $709 $727 $812 $813 reversed $710 $-1 #
face $-1 $731 $710 $19 $-1 $814 reversed single #
point $-1 -21.069663432290483 -26.864228419223291 11.942353491188518 #
coedge $-1 $812 $718 $713 $776 forward $781 $-1 #
edge $-1 $720 -26.864228419223291 $777 26.864228419223291 $713 $815 forward 7 unknown #
vertex $-1 $714 $816 #
straight-curve $-1 64.031495101779228 -26.864228419223291 0 0 0 -1 I I #
plane-surface $-1 64.031495101779228 0 0 -1 0 0 0 0 1 forward_v I I I I #
coedge $-1 $718 $812 $722 $784 forward $781 $-1 #
loop $-1 $-1 $775 $756 #
straight-curve $-1 0 26.864228419223291 -11.942353491188518 1 0 0 I I #
point $-1 64.031495101779228 26.864228419223291 -11.942353491188518 #
edge $-1 $792 -26.864228419223291 $723 26.864228419223291 $722 $817 forward 7 unknown #
point $-1 -64.031495101779228 26.864228419223291 -11.942353491188518 #
coedge $-1 $787 $725 $728 $790 reversed $757 $-1 #
coedge $-1 $725 $786 $805 $818 forward $757 $-1 #
vertex $-1 $767 $819 #
straight-curve $-1 -52.681098219223728 -63.19393256389008 11.94235349118852 0 1 0 I I #
edge $-1 $820 -38.728063084548964 $729 -29.922233189485524 $728 $821 forward 7 unknown #
point $-1 -52.681098219223728 -26.864228419223291 11.942353491188518 #
vertex $-1 $784 $822 #
straight-curve $-1 -64.031495101779228 -26.864228419223291 0 0 0 -1 I I #
plane-surface $-1 -64.031495101779228 0 0 1 0 0 0 0 -1 forward_v I I I I #
straight-curve $-1 -64.031495101779228 26.864228419223291 0 0 0 -1 I I #
straight-curve $-1 -64.031495101779228 0 -11.942353491188518 0 1 0 I I #
point $-1 -64.031495101779228 -26.864228419223291 -11.942353491188518 #
point $-1 -64.031495101779228 26.864228419223291 -11.942353491188518 #
straight-curve $-1 -64.031495101779228 -26.864228419223291 0 0 0 -1 I I #
plane-surface $-1 0 0 -11.942353491188518 0 0 1 1 0 0 forward_v I I I I #
coedge $-1 $766 $808 $760 $802 reversed $759 $-1 #
edge $-1 $768 -11.330985732445169 $810 -2.8089960468817396e-014 $760 $823 forward 7 unknown #
vertex $-1 $762 $824 #
point $-1 -34.375380825757105 -17.71563865896449 3.0182689446866764 #
coedge $-1 $808 $766 $787 $818 reversed $759 $-1 #
straight-curve $-1 -18.437690412878553 -19.733408162893564 11.942353491188518 1 0 0 I I #
point $-1 -21.069663432290483 -19.733408162893561 11.942353491188518 #
coedge $-1 $801 $805 $770 $809 reversed $759 $-1 #
edge $-1 $810 2.6319730194119302 $820 34.243407806345175 $770 $825 forward 7 unknown #
vertex $-1 $809 $826 #
straight-curve $-1 -21.069663432290483 -26.864228419223295 41.864586680674044 0 0 -1 I I #
coedge $-1 $780 $775 $772 $813 forward $781 $-1 #
edge $-1 $777 -64.031495101779228 $792 64.031495101779228 $772 $827 forward 7 unknown #
plane-surface $-1 0 -26.864228419223291 0 0 1 0 0 0 1 forward_v I I I I #
straight-curve $-1 64.031495101779228 0 -11.942353491188518 0 -1 0 I I #
point $-1 64.031495101779228 -26.864228419223291 -11.942353491188518 #
straight-curve $-1 -64.031495101779228 0 -11.942353491188518 0 1 0 I I #
edge $-1 $820 2.8089960468817396e-014 $788 11.330985732445169 $787 $828 forward 7 unknown #
point $-1 -52.681098219223728 -19.733408162893561 11.942353491188518 #
vertex $-1 $809 $829 #
straight-curve $-1 -52.681098219223728 -26.864228419223295 41.864586680674044 0 0 1 I I #
point $-1 -64.031495101779228 -26.864228419223291 -11.942353491188518 #
straight-curve $-1 -21.069663432290483 -26.864228419223309 3.136523596125059 0 -0.62932038083071107 -0.77714596973225614 I I #
point $-1 -36.875380825757105 -15.77277373463385 1.4449679926098986 #
straight-curve $-1 -18.437690412878553 -26.864228419223291 3.1365235961250844 -1 0 0 I I #
point $-1 -21.069663432290483 -26.864228419223291 3.1365235961250808 #
straight-curve $-1 0 -26.864228419223291 -11.942353491188518 -1 0 0 I I #
straight-curve $-1 -52.681098219223728 -26.864228419223309 3.136523596125059 0 0.62932038083071107 0.77714596973225614 I I #
point $-1 -52.681098219223728 -26.864228419223291 3.1365235961250808 #
End-of-ACIS-data 