500 0 6 0           
7 Unknown 11 ACIS 5.0 NT 24 Thu Mar 25 23:18:14 1999 
-1 9.9999999999999995e-007 1e-010 
body $-1 $6 $-1 $7 #
body $-1 $8 $-1 $9 #
body $-1 $10 $-1 $11 #
body $-1 $12 $-1 $13 #
body $-1 $14 $-1 $15 #
body $-1 $16 $-1 $17 #
lump $-1 $-1 $18 $0 #
transform $-1 1 0 0 0 1 0 0 0 1 71.211890011291842 48.333763660119345 16.43468920546848 1 rotate no_reflect no_shear #
lump $-1 $-1 $19 $1 #
transform $-1 1 0 0 0 1 0 0 0 1 71.211890011291842 48.333763660119345 16.43468920546848 1 rotate no_reflect no_shear #
lump $-1 $-1 $20 $2 #
transform $-1 1 0 0 0 1 0 0 0 1 71.211890011291842 48.333763660119345 16.43468920546848 1 rotate no_reflect no_shear #
lump $-1 $-1 $21 $3 #
transform $-1 1 0 0 0 1 0 0 0 1 71.211890011291842 48.333763660119345 16.43468920546848 1 rotate no_reflect no_shear #
lump $-1 $-1 $22 $4 #
transform $-1 1 0 0 0 1 0 0 0 1 71.211890011291842 48.333763660119345 16.43468920546848 1 rotate no_reflect no_shear #
lump $-1 $-1 $23 $5 #
transform $-1 1 0 0 0 1 0 0 0 1 71.211890011291842 48.333763660119345 16.43468920546848 1 rotate no_reflect no_shear #
shell $-1 $-1 $-1 $24 $-1 $6 #
shell $-1 $-1 $-1 $25 $-1 $8 #
shell $-1 $-1 $-1 $26 $-1 $10 #
shell $-1 $-1 $-1 $27 $-1 $12 #
shell $-1 $-1 $-1 $28 $-1 $14 #
shell $-1 $-1 $-1 $29 $-1 $16 #
face $-1 $30 $31 $18 $-1 $32 forward single #
face $-1 $33 $34 $19 $-1 $35 forward single #
face $-1 $36 $37 $20 $-1 $38 reversed single #
face $-1 $39 $40 $21 $-1 $41 forward single #
face $-1 $42 $43 $22 $-1 $44 reversed single #
face $-1 $45 $46 $23 $-1 $47 forward single #
face $-1 $48 $49 $18 $-1 $50 reversed single #
loop $-1 $-1 $51 $24 #
plane-surface $-1 0 0 16.43468920546848 0 0 1 1 0 0 forward_v I I I I #
face $-1 $52 $53 $19 $-1 $54 reversed single #
loop $-1 $-1 $55 $25 #
plane-surface $-1 0 -40.947467528051469 7.0451788739159733 0 0 1 1 0 0 forward_v I I I I #
face $-1 $56 $57 $20 $-1 $58 reversed single #
loop $-1 $-1 $59 $26 #
plane-surface $-1 88.766596729093493 -30.163508462203303 206.28672810286076 0 1 0 0.7660444514056185 0 0.64278759981090561 forward_v I I I I #
face $-1 $60 $61 $21 $-1 $62 forward single #
loop $-1 $63 $64 $27 #
cone-surface $-1 64.791428763820178 -25.70361232093731 9.4494848831617126 -0.7660444514056185 0 -0.64278759981090561 0.96418139971635841 0 -1.1490666771084277 1 I I 0 1 1.5 forward I I I I #
face $-1 $65 $66 $22 $-1 $67 reversed single #
loop $-1 $-1 $68 $28 #
plane-surface $-1 88.766596729093493 10.783959065848164 206.28672810286076 0 1 0 0.7660444514056185 0 0.64278759981090561 forward_v I I I I #
face $-1 $69 $70 $23 $-1 $71 forward single #
loop $-1 $72 $73 $29 #
cone-surface $-1 64.791428763820178 15.243855207114159 9.4494848831617126 -0.7660444514056185 0 -0.64278759981090561 0.96418139971635841 0 -1.1490666771084277 1 I I 0 1 1.5 forward I I I I #
face $-1 $74 $75 $18 $-1 $76 reversed single #
loop $-1 $-1 $77 $30 #
plane-surface $-1 0 0 -16.43468920546848 0 0 1 1 0 0 forward_v I I I I #
coedge $-1 $78 $79 $80 $81 forward $31 $-1 #
face $-1 $82 $83 $19 $-1 $84 reversed single #
loop $-1 $-1 $85 $33 #
plane-surface $-1 0 -40.947467528051469 -1.8626664346860133 0 0 1 1 0 0 forward_v I I I I #
coedge $-1 $86 $87 $88 $89 reversed $34 $-1 #
face $-1 $90 $91 $20 $-1 $92 reversed single #
loop $-1 $-1 $93 $36 #
plane-surface $-1 -20.336349705421114 -25.70361232093731 114.73848838614779 0.7660444514056185 0 0.64278759981090561 0.64278759981090561 0 -0.7660444514056185 forward_v I I I I #
coedge $-1 $94 $95 $96 $97 reversed $37 $-1 #
face $-1 $-1 $98 $21 $-1 $99 forward single #
loop $-1 $100 $101 $39 #
cone-surface $-1 62.327214298034193 -25.70361232093731 7.3817634879144052 -0.7660444514056185 0 -0.64278759981090561 0.48209069985817921 0 -0.57453333855421385 1 I I -0.70710678118654791 0.70710678118654702 0.75 forward I I I I #
loop $-1 $-1 $102 $27 #
coedge $-1 $64 $64 $103 $104 reversed $40 $-1 #
face $-1 $105 $106 $22 $-1 $107 reversed single #
loop $-1 $-1 $108 $42 #
plane-surface $-1 -20.336349705421114 15.243855207114159 114.73848838614779 0.7660444514056185 0 0.64278759981090561 0.64278759981090561 0 -0.7660444514056185 forward_v I I I I #
coedge $-1 $109 $110 $111 $112 reversed $43 $-1 #
face $-1 $-1 $113 $23 $-1 $114 forward single #
loop $-1 $115 $116 $45 #
cone-surface $-1 62.327214298034193 15.243855207114159 7.3817634879144052 -0.7660444514056185 0 -0.64278759981090561 0.48209069985817921 0 -0.57453333855421385 1 I I -0.70710678118654791 0.70710678118654702 0.75 forward I I I I #
loop $-1 $-1 $117 $29 #
coedge $-1 $73 $73 $118 $119 reversed $46 $-1 #
face $-1 $120 $121 $18 $-1 $122 reversed single #
loop $-1 $-1 $123 $48 #
plane-surface $-1 0 -48.333763660119345 0 0 1 0 0 0 1 forward_v I I I I #
coedge $-1 $124 $125 $126 $127 forward $49 $-1 #
coedge $-1 $128 $51 $129 $130 forward $31 $-1 #
coedge $-1 $51 $128 $131 $132 forward $31 $-1 #
coedge $-1 $133 $134 $51 $81 reversed $135 $-1 #
edge $-1 $136 -48.333763660119345 $137 48.333763660119345 $80 $138 forward 7 unknown #
face $-1 $139 $140 $19 $-1 $141 reversed single #
loop $-1 $-1 $142 $52 #
plane-surface $-1 0 -33.561171395983592 2.59125621961498 0 -1 0 0 0 -1 forward_v I I I I #
coedge $-1 $143 $144 $145 $146 reversed $53 $-1 #
coedge $-1 $147 $55 $148 $149 forward $34 $-1 #
coedge $-1 $55 $147 $150 $151 reversed $34 $-1 #
coedge $-1 $152 $153 $55 $89 forward $154 $-1 #
edge $-1 $155 13.087437631957858 $156 27.860029896093611 $88 $157 forward 7 unknown #
face $-1 $158 $159 $20 $-1 $160 forward single #
loop $-1 $-1 $161 $56 #
plane-surface $-1 88.766596729093493 -21.243716179671317 206.28672810286076 0 -1 0 -0.7660444514056185 0 -0.64278759981090561 forward_v I I I I #
coedge $-1 $162 $163 $164 $165 reversed $57 $-1 #
coedge $-1 $95 $59 $166 $167 reversed $37 $-1 #
coedge $-1 $59 $94 $162 $168 reversed $37 $-1 #
coedge $-1 $164 $169 $59 $97 forward $170 $-1 #
edge $-1 $171 86.708674845961895 $172 97.507822099797167 $96 $173 forward 7 unknown #
loop $-1 $-1 $103 $60 #
plane-surface $-1 -20.336349705421114 -25.70361232093731 114.73848838614779 0.7660444514056185 0 0.64278759981090561 0.64278759981090561 0 -0.7660444514056185 forward_v I I I I #
loop $-1 $-1 $174 $39 #
coedge $-1 $101 $101 $102 $175 reversed $61 $-1 #
coedge $-1 $102 $102 $101 $175 forward $63 $-1 #
coedge $-1 $103 $103 $64 $104 forward $98 $-1 #
edge $-1 $176 0 $176 6.2831853071796004 $103 $177 forward 7 unknown #
face $-1 $178 $179 $22 $-1 $180 reversed single #
loop $-1 $-1 $181 $65 #
plane-surface $-1 88.766596729093493 19.703751348380152 206.28672810286076 0 -1 0 -0.7660444514056185 0 -0.64278759981090561 forward_v I I I I #
coedge $-1 $182 $183 $184 $185 reversed $66 $-1 #
coedge $-1 $110 $68 $186 $187 reversed $43 $-1 #
coedge $-1 $68 $109 $182 $188 reversed $43 $-1 #
coedge $-1 $184 $189 $68 $112 forward $179 $-1 #
edge $-1 $190 86.708674845961895 $191 97.507822099797167 $111 $192 forward 7 unknown #
loop $-1 $-1 $118 $69 #
plane-surface $-1 -20.336349705421114 15.243855207114159 114.73848838614779 0.7660444514056185 0 0.64278759981090561 0.64278759981090561 0 -0.7660444514056185 forward_v I I I I #
loop $-1 $-1 $193 $45 #
coedge $-1 $116 $116 $117 $194 reversed $70 $-1 #
coedge $-1 $117 $117 $116 $194 forward $72 $-1 #
coedge $-1 $118 $118 $73 $119 forward $113 $-1 #
edge $-1 $195 0 $195 6.2831853071796004 $118 $196 forward 7 unknown #
face $-1 $197 $198 $18 $-1 $199 reversed single #
loop $-1 $-1 $200 $74 #
plane-surface $-1 -71.211890011291842 0 0 1 0 0 0 0 -1 forward_v I I I I #
coedge $-1 $201 $131 $202 $203 forward $75 $-1 #
coedge $-1 $204 $77 $201 $205 forward $49 $-1 #
coedge $-1 $77 $204 $206 $207 forward $49 $-1 #
coedge $-1 $134 $133 $77 $127 reversed $135 $-1 #
edge $-1 $208 -48.333763660119345 $209 48.333763660119345 $126 $210 forward 7 unknown #
coedge $-1 $79 $78 $211 $212 forward $31 $-1 #
coedge $-1 $213 $214 $78 $130 reversed $198 $-1 #
edge $-1 $137 -71.211890011291842 $215 71.211890011291842 $129 $216 forward 7 unknown #
coedge $-1 $123 $217 $79 $132 reversed $75 $-1 #
edge $-1 $218 -71.211890011291842 $136 71.211890011291842 $131 $219 forward 7 unknown #
coedge $-1 $126 $80 $217 $220 forward $135 $-1 #
coedge $-1 $80 $126 $213 $221 reversed $135 $-1 #
loop $-1 $-1 $133 $197 #
vertex $-1 $81 $222 #
vertex $-1 $81 $223 #
straight-curve $-1 71.211890011291842 0 16.43468920546848 0 1 0 I I #
face $-1 $224 $225 $19 $-1 $226 reversed single #
loop $-1 $-1 $227 $82 #
plane-surface $-1 -71.211890011291842 0 0 1 0 0 0 0 -1 forward_v I I I I #
coedge $-1 $228 $148 $153 $229 reversed $83 $-1 #
coedge $-1 $230 $85 $231 $232 reversed $53 $-1 #
coedge $-1 $85 $230 $228 $233 forward $53 $-1 #
coedge $-1 $153 $152 $85 $146 forward $154 $-1 #
edge $-1 $234 -27.860029896093611 $235 -13.087437631957858 $145 $236 forward 7 unknown #
coedge $-1 $87 $86 $227 $237 reversed $34 $-1 #
coedge $-1 $142 $238 $86 $149 reversed $83 $-1 #
edge $-1 $155 -71.211890011291842 $239 71.211890011291842 $148 $240 forward 7 unknown #
coedge $-1 $241 $242 $87 $151 forward $225 $-1 #
edge $-1 $156 -71.211890011291842 $243 71.211890011291842 $150 $244 forward 7 unknown #
coedge $-1 $145 $88 $242 $245 forward $154 $-1 #
coedge $-1 $88 $145 $142 $229 forward $154 $-1 #
loop $-1 $-1 $88 $224 #
vertex $-1 $89 $246 #
vertex $-1 $245 $247 #
straight-curve $-1 71.211890011291842 -20.473733764025734 7.0451788739159733 0 -1 0 I I #
face $-1 $-1 $170 $20 $-1 $248 reversed single #
loop $-1 $-1 $249 $90 #
plane-surface $-1 0 0 16.43468920546848 0 0 1 1 0 0 forward_v I I I I #
coedge $-1 $250 $251 $252 $253 reversed $91 $-1 #
coedge $-1 $254 $93 $95 $168 forward $57 $-1 #
coedge $-1 $93 $254 $250 $255 forward $57 $-1 #
coedge $-1 $252 $96 $93 $165 forward $170 $-1 #
edge $-1 $172 -17.311702301734648 $256 -8.3919100192026619 $164 $257 forward 7 unknown #
coedge $-1 $258 $259 $94 $167 forward $159 $-1 #
edge $-1 $260 17.767031406265303 $171 26.828591646745096 $166 $261 forward 7 unknown #
edge $-1 $172 -142.42378002258371 $260 -128.32649463135104 $95 $262 forward 7 unknown #
coedge $-1 $96 $252 $258 $263 reversed $170 $-1 #
loop $-1 $-1 $252 $158 #
vertex $-1 $263 $264 #
vertex $-1 $97 $265 #
straight-curve $-1 71.211890011291842 -30.163508462203303 103.14336405143038 0 0 -1 I I #
coedge $-1 $174 $174 $-1 $266 reversed $100 $-1 #
edge $-1 $267 0 $267 6.2831853071796004 $101 $268 forward 7 unknown #
vertex $-1 $104 $269 #
ellipse-curve $-1 66.681109891051946 -25.70361232093731 11.035115578550846 0.7660444514056185 0 0.64278759981090561 0.96418139971635841 0 -1.1490666771084277 1 I I #
face $-1 $-1 $270 $22 $-1 $271 forward single #
loop $-1 $-1 $111 $105 #
plane-surface $-1 71.211890011291842 0 0 -1 0 0 0 0 1 forward_v I I I I #
coedge $-1 $272 $273 $274 $275 reversed $106 $-1 #
coedge $-1 $276 $108 $110 $188 forward $66 $-1 #
coedge $-1 $108 $276 $272 $277 forward $66 $-1 #
coedge $-1 $274 $111 $108 $185 forward $179 $-1 #
edge $-1 $191 3.1620314622910843 $278 12.081823744823073 $184 $279 forward 7 unknown #
coedge $-1 $280 $281 $109 $187 forward $270 $-1 #
edge $-1 $282 17.767031406265303 $190 26.828591646745096 $186 $283 forward 7 unknown #
edge $-1 $191 -142.42378002258371 $282 -128.32649463135104 $110 $284 forward 7 unknown #
coedge $-1 $111 $274 $280 $285 reversed $179 $-1 #
vertex $-1 $285 $286 #
vertex $-1 $112 $287 #
straight-curve $-1 71.211890011291842 10.783959065848164 103.14336405143038 0 0 -1 I I #
coedge $-1 $193 $193 $-1 $288 reversed $115 $-1 #
edge $-1 $289 0 $289 6.2831853071796004 $116 $290 forward 7 unknown #
vertex $-1 $119 $291 #
ellipse-curve $-1 66.681109891051946 15.243855207114159 11.035115578550846 0.7660444514056185 0 0.64278759981090561 0.96418139971635841 0 -1.1490666771084277 1 I I #
face $-1 $-1 $135 $18 $-1 $292 reversed single #
loop $-1 $-1 $213 $120 #
plane-surface $-1 0 48.333763660119345 0 0 -1 0 0 0 -1 forward_v I I I I #
coedge $-1 $293 $211 $214 $294 forward $121 $-1 #
coedge $-1 $217 $123 $124 $205 reversed $75 $-1 #
coedge $-1 $211 $293 $123 $203 reversed $121 $-1 #
edge $-1 $218 -16.43468920546848 $295 16.43468920546848 $202 $296 forward 7 unknown #
coedge $-1 $125 $124 $293 $297 forward $49 $-1 #
edge $-1 $209 -71.211890011291842 $295 71.211890011291842 $201 $298 forward 7 unknown #
coedge $-1 $214 $213 $125 $207 reversed $198 $-1 #
edge $-1 $299 -71.211890011291842 $208 71.211890011291842 $206 $300 forward 7 unknown #
vertex $-1 $127 $301 #
vertex $-1 $220 $302 #
straight-curve $-1 71.211890011291842 0 -16.43468920546848 0 -1 0 I I #
coedge $-1 $200 $202 $128 $212 reversed $121 $-1 #
edge $-1 $215 -48.333763660119345 $218 48.333763660119345 $211 $303 forward 7 unknown #
coedge $-1 $206 $129 $134 $221 forward $198 $-1 #
coedge $-1 $129 $206 $200 $294 reversed $198 $-1 #
vertex $-1 $130 $304 #
straight-curve $-1 0 48.333763660119345 16.43468920546848 -1 0 0 I I #
coedge $-1 $131 $201 $133 $220 reversed $75 $-1 #
vertex $-1 $212 $305 #
straight-curve $-1 0 -48.333763660119345 16.43468920546848 1 0 0 I I #
edge $-1 $136 -16.43468920546848 $209 16.43468920546848 $133 $306 forward 7 unknown #
edge $-1 $137 -16.43468920546848 $208 16.43468920546848 $134 $307 forward 7 unknown #
point $-1 71.211890011291842 -48.333763660119345 16.43468920546848 #
point $-1 71.211890011291842 48.333763660119345 16.43468920546848 #
face $-1 $-1 $154 $19 $-1 $308 reversed single #
loop $-1 $-1 $150 $139 #
plane-surface $-1 0 -48.333763660119345 0 0 1 0 0 0 1 forward_v I I I I #
coedge $-1 $309 $310 $147 $237 forward $140 $-1 #
coedge $-1 $238 $142 $144 $233 reversed $83 $-1 #
edge $-1 $235 -3.1582945444935033 $155 5.7495507641084833 $153 $311 forward 7 unknown #
coedge $-1 $144 $143 $312 $313 reversed $53 $-1 #
coedge $-1 $242 $241 $143 $232 forward $225 $-1 #
edge $-1 $314 -71.211890011291842 $234 71.211890011291842 $231 $315 forward 7 unknown #
edge $-1 $316 -71.211890011291842 $235 71.211890011291842 $228 $317 forward 7 unknown #
vertex $-1 $232 $318 #
vertex $-1 $146 $319 #
straight-curve $-1 71.211890011291842 -20.473733764025734 -1.8626664346860133 0 1 0 I I #
edge $-1 $243 -27.860029896093611 $239 -13.087437631957858 $227 $320 forward 7 unknown #
coedge $-1 $148 $228 $309 $321 reversed $83 $-1 #
vertex $-1 $237 $322 #
straight-curve $-1 0 -33.561171395983592 7.0451788739159733 -1 0 0 I I #
coedge $-1 $231 $150 $310 $323 forward $225 $-1 #
coedge $-1 $150 $231 $152 $245 reversed $225 $-1 #
vertex $-1 $323 $324 #
straight-curve $-1 0 -48.333763660119345 7.0451788739159733 -1 0 0 I I #
edge $-1 $156 -7.0451788739159733 $234 1.8626664346860133 $152 $325 forward 7 unknown #
point $-1 71.211890011291842 -33.561171395983592 7.0451788739159733 #
point $-1 71.211890011291842 -48.333763660119345 7.0451788739159733 #
plane-surface $-1 71.211890011291842 0 0 -1 0 0 0 0 1 forward_v I I I I #
coedge $-1 $259 $258 $251 $326 forward $159 $-1 #
coedge $-1 $251 $161 $163 $255 reversed $91 $-1 #
coedge $-1 $161 $250 $249 $326 reversed $91 $-1 #
coedge $-1 $169 $164 $161 $253 forward $170 $-1 #
edge $-1 $256 -97.507822099797167 $327 -86.708674845961895 $252 $328 forward 7 unknown #
coedge $-1 $163 $162 $259 $329 reversed $57 $-1 #
edge $-1 $330 128.32649463135104 $256 142.42378002258371 $250 $331 forward 7 unknown #
vertex $-1 $165 $332 #
straight-curve $-1 71.211890011291842 -12.851806160468655 5.6355419516332006 0 1 0 I I #
coedge $-1 $249 $166 $169 $263 forward $159 $-1 #
coedge $-1 $166 $249 $254 $329 forward $159 $-1 #
vertex $-1 $167 $333 #
straight-curve $-1 44.383298364546746 -30.163508462203303 16.434689205468487 1 0 0 I I #
straight-curve $-1 -20.336349705421114 -30.163508462203303 114.73848838614779 -0.64278759981090561 0 0.7660444514056185 I I #
edge $-1 $171 -30.163508462203303 $327 -21.243716179671317 $169 $334 forward 7 unknown #
point $-1 71.211890011291842 -30.163508462203303 16.43468920546848 #
point $-1 71.211890011291842 -30.163508462203303 5.6355419516332148 #
edge $-1 $335 1 $335 0 $174 $-1 forward 7 unknown #
vertex $-1 $175 $336 #
ellipse-curve $-1 62.901747636588404 -25.70361232093731 7.863854187772584 0.7660444514056185 0 0.64278759981090561 0.96418139971635841 0 -1.1490666771084277 1 I I #
point $-1 67.645291290768299 -25.70361232093731 9.8860489014424129 #
loop $-1 $-1 $186 $178 #
plane-surface $-1 0 0 16.43468920546848 0 0 1 1 0 0 forward_v I I I I #
coedge $-1 $273 $181 $183 $277 reversed $106 $-1 #
coedge $-1 $181 $272 $337 $338 reversed $106 $-1 #
coedge $-1 $189 $184 $181 $275 forward $179 $-1 #
edge $-1 $278 -97.507822099797167 $339 -86.708674845961895 $274 $340 forward 7 unknown #
coedge $-1 $183 $182 $281 $341 reversed $66 $-1 #
edge $-1 $342 128.32649463135104 $278 142.42378002258371 $272 $343 forward 7 unknown #
vertex $-1 $185 $344 #
straight-curve $-1 71.211890011291842 7.6219276035570793 5.6355419516332006 0 1 0 I I #
coedge $-1 $337 $186 $189 $285 forward $270 $-1 #
coedge $-1 $186 $337 $276 $341 forward $270 $-1 #
vertex $-1 $187 $345 #
straight-curve $-1 44.383298364546746 10.783959065848164 16.434689205468487 1 0 0 I I #
straight-curve $-1 -20.336349705421114 10.783959065848164 114.73848838614779 -0.64278759981090561 0 0.7660444514056185 I I #
edge $-1 $190 10.783959065848164 $339 19.703751348380152 $189 $346 forward 7 unknown #
point $-1 71.211890011291842 10.783959065848164 16.43468920546848 #
point $-1 71.211890011291842 10.783959065848164 5.6355419516332148 #
edge $-1 $347 1 $347 0 $193 $-1 forward 7 unknown #
vertex $-1 $194 $348 #
ellipse-curve $-1 62.901747636588404 15.243855207114159 7.863854187772584 0.7660444514056185 0 0.64278759981090561 0.96418139971635841 0 -1.1490666771084277 1 I I #
point $-1 67.645291290768299 15.243855207114159 9.8860489014424129 #
plane-surface $-1 71.211890011291842 0 0 -1 0 0 0 0 1 forward_v I I I I #
coedge $-1 $202 $200 $204 $297 reversed $121 $-1 #
edge $-1 $215 -16.43468920546848 $299 16.43468920546848 $214 $349 forward 7 unknown #
vertex $-1 $297 $350 #
straight-curve $-1 -71.211890011291842 -48.333763660119345 0 0 0 -1 I I #
edge $-1 $295 -48.333763660119345 $299 48.333763660119345 $293 $351 forward 7 unknown #
straight-curve $-1 0 -48.333763660119345 -16.43468920546848 -1 0 0 I I #
vertex $-1 $207 $352 #
straight-curve $-1 0 48.333763660119345 -16.43468920546848 1 0 0 I I #
point $-1 71.211890011291842 48.333763660119345 -16.43468920546848 #
point $-1 71.211890011291842 -48.333763660119345 -16.43468920546848 #
straight-curve $-1 -71.211890011291842 0 16.43468920546848 0 -1 0 I I #
point $-1 -71.211890011291842 48.333763660119345 16.43468920546848 #
point $-1 -71.211890011291842 -48.333763660119345 16.43468920546848 #
straight-curve $-1 71.211890011291842 -48.333763660119345 0 0 0 -1 I I #
straight-curve $-1 71.211890011291842 48.333763660119345 0 0 0 -1 I I #
plane-surface $-1 71.211890011291842 0 0 -1 0 0 0 0 1 forward_v I I I I #
coedge $-1 $312 $227 $238 $321 forward $140 $-1 #
coedge $-1 $227 $312 $241 $323 reversed $140 $-1 #
straight-curve $-1 71.211890011291842 -33.561171395983592 1.29562810980749 0 0 1 I I #
coedge $-1 $310 $309 $230 $313 forward $140 $-1 #
edge $-1 $316 13.087437631957858 $314 27.860029896093611 $312 $353 forward 7 unknown #
vertex $-1 $232 $354 #
straight-curve $-1 0 -48.333763660119345 -1.8626664346860133 1 0 0 I I #
vertex $-1 $313 $355 #
straight-curve $-1 0 -33.561171395983592 -1.8626664346860133 1 0 0 I I #
point $-1 71.211890011291842 -48.333763660119345 -1.8626664346860133 #
point $-1 71.211890011291842 -33.561171395983592 -1.8626664346860133 #
straight-curve $-1 -71.211890011291842 -20.473733764025734 7.0451788739159733 0 1 0 I I #
edge $-1 $239 -5.7495507641084833 $316 3.1582945444935033 $309 $356 forward 7 unknown #
point $-1 -71.211890011291842 -33.561171395983592 7.0451788739159733 #
edge $-1 $243 -7.0451788739159733 $314 1.8626664346860133 $310 $357 forward 7 unknown #
point $-1 -71.211890011291842 -48.333763660119345 7.0451788739159733 #
straight-curve $-1 71.211890011291842 -48.333763660119345 0 0 0 -1 I I #
edge $-1 $327 -26.828591646745096 $330 -17.767031406265303 $249 $358 forward 7 unknown #
vertex $-1 $326 $359 #
straight-curve $-1 71.211890011291842 -21.243716179671317 103.14336405143038 0 0 1 I I #
edge $-1 $330 8.3919100192026619 $260 17.311702301734648 $259 $360 forward 7 unknown #
vertex $-1 $329 $361 #
straight-curve $-1 -20.336349705421114 -21.243716179671317 114.73848838614779 0.64278759981090561 0 -0.7660444514056185 I I #
point $-1 71.211890011291842 -21.243716179671317 5.6355419516332148 #
point $-1 62.15032977081205 -30.163508462203303 16.434689205468487 #
straight-curve $-1 71.211890011291842 0 16.43468920546848 0 1 0 I I #
vertex $-1 $266 $362 #
point $-1 63.865929036304763 -25.70361232093731 6.7147875106641557 #
coedge $-1 $281 $280 $273 $338 forward $270 $-1 #
edge $-1 $339 -26.828591646745096 $342 -17.767031406265303 $337 $363 forward 7 unknown #
vertex $-1 $338 $364 #
straight-curve $-1 71.211890011291842 19.703751348380152 103.14336405143038 0 0 1 I I #
edge $-1 $342 -12.081823744823073 $282 -3.1620314622910843 $281 $365 forward 7 unknown #
vertex $-1 $341 $366 #
straight-curve $-1 -20.336349705421114 19.703751348380152 114.73848838614779 0.64278759981090561 0 -0.7660444514056185 I I #
point $-1 71.211890011291842 19.703751348380152 5.6355419516332148 #
point $-1 62.15032977081205 10.783959065848164 16.434689205468487 #
straight-curve $-1 71.211890011291842 0 16.43468920546848 0 1 0 I I #
vertex $-1 $288 $367 #
point $-1 63.865929036304763 15.243855207114159 6.7147875106641557 #
straight-curve $-1 -71.211890011291842 48.333763660119345 0 0 0 -1 I I #
point $-1 -71.211890011291842 -48.333763660119345 -16.43468920546848 #
straight-curve $-1 -71.211890011291842 0 -16.43468920546848 0 1 0 I I #
point $-1 -71.211890011291842 48.333763660119345 -16.43468920546848 #
straight-curve $-1 -71.211890011291842 -20.473733764025734 -1.8626664346860133 0 -1 0 I I #
point $-1 -71.211890011291842 -48.333763660119345 -1.8626664346860133 #
point $-1 -71.211890011291842 -33.561171395983592 -1.8626664346860133 #
straight-curve $-1 -71.211890011291842 -33.561171395983592 1.29562810980749 0 0 -1 I I #
straight-curve $-1 -71.211890011291842 -48.333763660119345 0 0 0 -1 I I #
straight-curve $-1 44.383298364546746 -21.243716179671317 16.434689205468487 -1 0 0 I I #
point $-1 71.211890011291842 -21.243716179671317 16.43468920546848 #
straight-curve $-1 62.15032977081205 -12.851806160468655 16.434689205468487 0 -1 0 I I #
point $-1 62.15032977081205 -21.243716179671317 16.434689205468487 #
point $-1 61.752680959479981 -25.70361232093731 6.8996727880562263 #
straight-curve $-1 44.383298364546746 19.703751348380152 16.434689205468487 -1 0 0 I I #
point $-1 71.211890011291842 19.703751348380152 16.43468920546848 #
straight-curve $-1 62.15032977081205 7.6219276035570793 16.434689205468487 0 -1 0 I I #
point $-1 62.15032977081205 19.703751348380152 16.434689205468487 #
point $-1 61.752680959479981 15.243855207114159 6.8996727880562263 #
End-of-ACIS-data 