500 0 13 0           
7 Unknown 11 ACIS 5.0 NT 24 Thu Mar 25 17:27:41 1999 
-1 9.9999999999999995e-007 1e-010 
body $-1 $13 $-1 $14 #
body $-1 $15 $-1 $16 #
body $-1 $17 $-1 $18 #
body $-1 $19 $-1 $20 #
body $-1 $21 $-1 $22 #
body $-1 $23 $-1 $24 #
body $-1 $25 $-1 $26 #
body $-1 $27 $-1 $28 #
body $-1 $29 $-1 $30 #
body $-1 $31 $-1 $32 #
body $-1 $33 $-1 $34 #
body $-1 $35 $-1 $36 #
body $-1 $37 $-1 $38 #
lump $-1 $-1 $39 $0 #
transform $-1 1 0 0 0 1 0 0 0 1 63.440656758323925 32.777253167039063 9.831875543326932 1 rotate no_reflect no_shear #
lump $-1 $-1 $40 $1 #
transform $-1 1 0 0 0 1 0 0 0 1 63.440656758323925 32.777253167039063 9.831875543326932 1 rotate no_reflect no_shear #
lump $-1 $-1 $41 $2 #
transform $-1 1 0 0 0 1 0 0 0 1 63.440656758323925 32.777253167039063 9.831875543326932 1 rotate no_reflect no_shear #
lump $-1 $-1 $42 $3 #
transform $-1 1 0 0 0 1 0 0 0 1 63.440656758323925 32.777253167039063 9.831875543326932 1 rotate no_reflect no_shear #
lump $-1 $-1 $43 $4 #
transform $-1 1 0 0 0 1 0 0 0 1 63.440656758323925 32.777253167039063 9.831875543326932 1 rotate no_reflect no_shear #
lump $-1 $-1 $44 $5 #
transform $-1 1 0 0 0 1 0 0 0 1 63.440656758323925 32.777253167039063 9.831875543326932 1 rotate no_reflect no_shear #
lump $-1 $-1 $45 $6 #
transform $-1 1 0 0 0 1 0 0 0 1 63.440656758323925 32.777253167039063 9.831875543326932 1 rotate no_reflect no_shear #
lump $-1 $-1 $46 $7 #
transform $-1 1 0 0 0 1 0 0 0 1 63.440656758323925 32.777253167039063 9.831875543326932 1 rotate no_reflect no_shear #
lump $-1 $-1 $47 $8 #
transform $-1 1 0 0 0 1 0 0 0 1 63.440656758323925 32.777253167039063 9.831875543326932 1 rotate no_reflect no_shear #
lump $-1 $-1 $48 $9 #
transform $-1 1 0 0 0 1 0 0 0 1 63.440656758323925 32.777253167039063 9.831875543326932 1 rotate no_reflect no_shear #
lump $-1 $-1 $49 $10 #
transform $-1 1 0 0 0 1 0 0 0 1 63.440656758323925 32.777253167039063 9.831875543326932 1 rotate no_reflect no_shear #
lump $-1 $-1 $50 $11 #
transform $-1 1 0 0 0 1 0 0 0 1 63.440656758323925 32.777253167039063 9.831875543326932 1 rotate no_reflect no_shear #
lump $-1 $-1 $51 $12 #
transform $-1 1 0 0 0 1 0 0 0 1 63.440656758323925 32.777253167039063 9.831875543326932 1 rotate no_reflect no_shear #
shell $-1 $-1 $-1 $52 $-1 $13 #
shell $-1 $-1 $-1 $53 $-1 $15 #
shell $-1 $-1 $-1 $54 $-1 $17 #
shell $-1 $-1 $-1 $55 $-1 $19 #
shell $-1 $-1 $-1 $56 $-1 $21 #
shell $-1 $-1 $-1 $57 $-1 $23 #
shell $-1 $-1 $-1 $58 $-1 $25 #
shell $-1 $-1 $-1 $59 $-1 $27 #
shell $-1 $-1 $-1 $60 $-1 $29 #
shell $-1 $-1 $-1 $61 $-1 $31 #
shell $-1 $-1 $-1 $62 $-1 $33 #
shell $-1 $-1 $-1 $63 $-1 $35 #
shell $-1 $-1 $-1 $64 $-1 $37 #
face $-1 $65 $66 $39 $-1 $67 forward single #
face $-1 $68 $69 $40 $-1 $70 reversed single #
face $-1 $71 $72 $41 $-1 $73 forward single #
face $-1 $74 $75 $42 $-1 $76 forward single #
face $-1 $77 $78 $43 $-1 $79 reversed single #
face $-1 $80 $81 $44 $-1 $82 forward single #
face $-1 $83 $84 $45 $-1 $85 forward single #
face $-1 $86 $87 $46 $-1 $88 reversed single #
face $-1 $89 $90 $47 $-1 $91 forward single #
face $-1 $92 $93 $48 $-1 $94 forward single #
face $-1 $95 $96 $49 $-1 $97 reversed single #
face $-1 $98 $99 $50 $-1 $100 forward single #
face $-1 $101 $102 $51 $-1 $103 forward single #
face $-1 $104 $105 $39 $-1 $106 reversed single #
loop $-1 $-1 $107 $52 #
plane-surface $-1 0 0 9.831875543326932 0 0 1 1 0 0 forward_v I I I I #
face $-1 $108 $109 $40 $-1 $110 reversed single #
loop $-1 $-1 $111 $53 #
plane-surface $-1 -42.686479686243686 59.23553527436458 143.80430103874804 -1 0 0 0 0.61566148304635926 0.78801074757464917 forward_v I I I I #
face $-1 $112 $113 $41 $-1 $114 forward single #
loop $-1 $115 $116 $54 #
cone-surface $-1 -57.510891880586712 26.934068653199681 4.3860230648572882 0 -0.61566148304635926 -0.78801074757464917 2 0 0 1 I I 0 1 2 forward I I I I #
face $-1 $117 $118 $42 $-1 $119 forward single #
loop $-1 $120 $121 $55 #
cone-surface $-1 -48.616244563980892 26.934068653199681 4.3860230648572882 0 -0.61566148304635926 -0.78801074757464917 2 0 0 1 I I 0 1 2 forward I I I I #
face $-1 $122 $123 $43 $-1 $124 reversed single #
loop $-1 $-1 $125 $56 #
plane-surface $-1 20.754177072080257 59.23553527436458 143.80430103874804 -1 0 0 0 0.61566148304635926 0.78801074757464917 forward_v I I I I #
face $-1 $126 $127 $44 $-1 $128 forward single #
loop $-1 $129 $130 $57 #
cone-surface $-1 5.9297648777372132 26.934068653199681 4.3860230648572882 0 -0.61566148304635926 -0.78801074757464917 2 0 0 1 I I 0 1 2 forward I I I I #
face $-1 $131 $132 $45 $-1 $133 forward single #
loop $-1 $134 $135 $58 #
cone-surface $-1 14.82441219434304 26.934068653199681 4.3860230648572882 0 -0.61566148304635926 -0.78801074757464917 2 0 0 1 I I 0 1 2 forward I I I I #
face $-1 $136 $137 $46 $-1 $138 reversed single #
loop $-1 $-1 $139 $59 #
plane-surface $-1 -42.686479686243686 -110.89319081756855 103.44491644873754 -1 0 0 0 -0.61566148304635926 0.78801074757464917 forward_v I I I I #
face $-1 $140 $141 $47 $-1 $142 forward single #
loop $-1 $143 $144 $60 #
cone-surface $-1 -57.510891880586712 -26.934068653199681 4.3860230648572864 0 0.61566148304635926 -0.78801074757464917 2 0 0 1 I I 0 1 2 forward I I I I #
face $-1 $145 $146 $48 $-1 $147 forward single #
loop $-1 $148 $149 $61 #
cone-surface $-1 -48.616244563980892 -26.934068653199681 4.3860230648572864 0 0.61566148304635926 -0.78801074757464917 2 0 0 1 I I 0 1 2 forward I I I I #
face $-1 $150 $151 $49 $-1 $152 reversed single #
loop $-1 $-1 $153 $62 #
plane-surface $-1 20.754177072080257 -110.89319081756855 103.44491644873754 -1 0 0 0 -0.61566148304635926 0.78801074757464917 forward_v I I I I #
face $-1 $154 $155 $50 $-1 $156 forward single #
loop $-1 $157 $158 $63 #
cone-surface $-1 5.9297648777372132 -26.934068653199681 4.3860230648572864 0 0.61566148304635926 -0.78801074757464917 2 0 0 1 I I 0 1 2 forward I I I I #
face $-1 $159 $160 $51 $-1 $161 forward single #
loop $-1 $162 $163 $64 #
cone-surface $-1 14.82441219434304 -26.934068653199681 4.3860230648572864 0 0.61566148304635926 -0.78801074757464917 2 0 0 1 I I 0 1 2 forward I I I I #
face $-1 $164 $165 $39 $-1 $166 reversed single #
loop $-1 $-1 $167 $65 #
plane-surface $-1 0 0 -9.831875543326932 0 0 1 1 0 0 forward_v I I I I #
coedge $-1 $168 $169 $170 $171 forward $66 $-1 #
face $-1 $172 $173 $40 $-1 $174 reversed single #
loop $-1 $-1 $175 $68 #
plane-surface $-1 -53.063568222283806 -18.880402376164909 43.820462321240925 0 0.61566148304635926 0.78801074757464917 1 0 0 forward_v I I I I #
coedge $-1 $176 $177 $178 $179 reversed $69 $-1 #
face $-1 $-1 $180 $41 $-1 $181 forward single #
loop $-1 $182 $183 $71 #
cone-surface $-1 -57.510891880586712 24.552347248968609 1.3375587448612531 0 -0.61566148304635926 -0.78801074757464917 1 0 0 1 I I -0.70710678118654746 0.70710678118654746 1 forward I I I I #
loop $-1 $-1 $184 $54 #
coedge $-1 $116 $116 $185 $186 reversed $72 $-1 #
face $-1 $-1 $187 $42 $-1 $188 forward single #
loop $-1 $189 $190 $74 #
cone-surface $-1 -48.616244563980892 24.552347248968609 1.3375587448612531 0 -0.61566148304635926 -0.78801074757464917 1 0 0 1 I I -0.70710678118654746 0.70710678118654746 1 forward I I I I #
loop $-1 $-1 $191 $55 #
coedge $-1 $121 $121 $192 $193 reversed $75 $-1 #
face $-1 $194 $195 $43 $-1 $196 reversed single #
loop $-1 $-1 $197 $77 #
plane-surface $-1 10.377088536040134 -18.880402376164909 43.820462321240925 0 0.61566148304635926 0.78801074757464917 1 0 0 forward_v I I I I #
coedge $-1 $198 $199 $200 $201 reversed $78 $-1 #
face $-1 $-1 $202 $44 $-1 $203 forward single #
loop $-1 $204 $205 $80 #
cone-surface $-1 5.9297648777372132 24.552347248968609 1.3375587448612531 0 -0.61566148304635926 -0.78801074757464917 1 0 0 1 I I -0.70710678118654746 0.70710678118654746 1 forward I I I I #
loop $-1 $-1 $206 $57 #
coedge $-1 $130 $130 $207 $208 reversed $81 $-1 #
face $-1 $-1 $209 $45 $-1 $210 forward single #
loop $-1 $211 $212 $83 #
cone-surface $-1 14.82441219434304 24.552347248968609 1.3375587448612531 0 -0.61566148304635926 -0.78801074757464917 1 0 0 1 I I -0.70710678118654746 0.70710678118654746 1 forward I I I I #
loop $-1 $-1 $213 $58 #
coedge $-1 $135 $135 $214 $215 reversed $84 $-1 #
face $-1 $216 $217 $46 $-1 $218 reversed single #
loop $-1 $-1 $219 $86 #
plane-surface $-1 -53.063568222283806 -32.777253167039063 3.4610777312304322 0 -0.61566148304635926 0.78801074757464917 1 0 0 forward_v I I I I #
coedge $-1 $220 $221 $222 $223 reversed $87 $-1 #
face $-1 $-1 $224 $47 $-1 $225 forward single #
loop $-1 $226 $227 $89 #
cone-surface $-1 -57.510891880586712 -24.552347248968609 1.3375587448612514 0 0.61566148304635926 -0.78801074757464917 1 0 0 1 I I -0.70710678118654746 0.70710678118654746 1 forward I I I I #
loop $-1 $-1 $228 $60 #
coedge $-1 $144 $144 $229 $230 reversed $90 $-1 #
face $-1 $-1 $231 $48 $-1 $232 forward single #
loop $-1 $233 $234 $92 #
cone-surface $-1 -48.616244563980892 -24.552347248968609 1.3375587448612514 0 0.61566148304635926 -0.78801074757464917 1 0 0 1 I I -0.70710678118654746 0.70710678118654746 1 forward I I I I #
loop $-1 $-1 $235 $61 #
coedge $-1 $149 $149 $236 $237 reversed $93 $-1 #
face $-1 $238 $239 $49 $-1 $240 reversed single #
loop $-1 $-1 $241 $95 #
plane-surface $-1 10.377088536040134 -32.777253167039063 3.4610777312304322 0 -0.61566148304635926 0.78801074757464917 1 0 0 forward_v I I I I #
coedge $-1 $242 $243 $244 $245 reversed $96 $-1 #
face $-1 $-1 $246 $50 $-1 $247 forward single #
loop $-1 $248 $249 $98 #
cone-surface $-1 5.9297648777372132 -24.552347248968609 1.3375587448612514 0 0.61566148304635926 -0.78801074757464917 1 0 0 1 I I -0.70710678118654746 0.70710678118654746 1 forward I I I I #
loop $-1 $-1 $250 $63 #
coedge $-1 $158 $158 $251 $252 reversed $99 $-1 #
face $-1 $-1 $253 $51 $-1 $254 forward single #
loop $-1 $255 $256 $101 #
cone-surface $-1 14.82441219434304 -24.552347248968609 1.3375587448612514 0 0.61566148304635926 -0.78801074757464917 1 0 0 1 I I -0.70710678118654746 0.70710678118654746 1 forward I I I I #
loop $-1 $-1 $257 $64 #
coedge $-1 $163 $163 $258 $259 reversed $102 $-1 #
face $-1 $260 $261 $39 $-1 $262 reversed single #
loop $-1 $-1 $263 $104 #
plane-surface $-1 0 -32.777253167039063 0 0 1 0 0 0 1 forward_v I I I I #
coedge $-1 $264 $265 $266 $267 forward $105 $-1 #
coedge $-1 $268 $107 $269 $270 forward $66 $-1 #
coedge $-1 $107 $268 $271 $272 forward $66 $-1 #
coedge $-1 $273 $274 $107 $171 reversed $275 $-1 #
edge $-1 $276 -32.777253167039063 $277 32.777253167039063 $170 $278 forward 7 unknown #
face $-1 $279 $280 $40 $-1 $281 forward single #
loop $-1 $-1 $178 $108 #
plane-surface $-1 0 32.777253167039063 0 0 -1 0 0 0 -1 forward_v I I I I #
coedge $-1 $282 $283 $284 $285 reversed $109 $-1 #
coedge $-1 $177 $111 $286 $287 reversed $69 $-1 #
coedge $-1 $111 $176 $282 $288 reversed $69 $-1 #
coedge $-1 $284 $289 $111 $179 forward $173 $-1 #
edge $-1 $290 62.070274976047088 $291 68.441072788143572 $178 $292 forward 7 unknown #
loop $-1 $-1 $185 $112 #
plane-surface $-1 -53.063568222283806 -18.880402376164909 43.820462321240925 0 0.61566148304635926 0.78801074757464917 1 0 0 forward_v I I I I #
loop $-1 $-1 $293 $71 #
coedge $-1 $183 $183 $184 $294 reversed $113 $-1 #
coedge $-1 $184 $184 $183 $294 forward $115 $-1 #
coedge $-1 $185 $185 $116 $186 forward $180 $-1 #
edge $-1 $295 -3.716441413489415e-016 $295 6.2831853071796004 $185 $296 forward 7 unknown #
loop $-1 $-1 $192 $117 #
plane-surface $-1 -53.063568222283806 -18.880402376164909 43.820462321240925 0 0.61566148304635926 0.78801074757464917 1 0 0 forward_v I I I I #
loop $-1 $-1 $297 $74 #
coedge $-1 $190 $190 $191 $298 reversed $118 $-1 #
coedge $-1 $191 $191 $190 $298 forward $120 $-1 #
coedge $-1 $192 $192 $121 $193 forward $187 $-1 #
edge $-1 $299 -3.716441413489415e-016 $299 6.2831853071796004 $192 $300 forward 7 unknown #
face $-1 $301 $302 $43 $-1 $303 forward single #
loop $-1 $-1 $304 $122 #
plane-surface $-1 1.0658141036401503e-014 59.23553527436458 143.80430103874804 1 0 0 0 -0.61566148304635926 -0.78801074757464917 forward_v I I I I #
coedge $-1 $305 $306 $307 $308 reversed $123 $-1 #
coedge $-1 $199 $125 $309 $310 reversed $78 $-1 #
coedge $-1 $125 $198 $305 $311 reversed $78 $-1 #
coedge $-1 $307 $312 $125 $201 forward $313 $-1 #
edge $-1 $314 62.070274976047088 $315 68.441072788143572 $200 $316 forward 7 unknown #
loop $-1 $-1 $207 $126 #
plane-surface $-1 10.377088536040134 -18.880402376164909 43.820462321240925 0 0.61566148304635926 0.78801074757464917 1 0 0 forward_v I I I I #
loop $-1 $-1 $317 $80 #
coedge $-1 $205 $205 $206 $318 reversed $127 $-1 #
coedge $-1 $206 $206 $205 $318 forward $129 $-1 #
coedge $-1 $207 $207 $130 $208 forward $202 $-1 #
edge $-1 $319 -3.716441413489415e-016 $319 6.2831853071796004 $207 $320 forward 7 unknown #
loop $-1 $-1 $214 $131 #
plane-surface $-1 10.377088536040134 -18.880402376164909 43.820462321240925 0 0.61566148304635926 0.78801074757464917 1 0 0 forward_v I I I I #
loop $-1 $-1 $321 $83 #
coedge $-1 $212 $212 $213 $322 reversed $132 $-1 #
coedge $-1 $213 $213 $212 $322 forward $134 $-1 #
coedge $-1 $214 $214 $135 $215 forward $209 $-1 #
edge $-1 $323 -3.716441413489415e-016 $323 6.2831853071796004 $214 $324 forward 7 unknown #
face $-1 $325 $326 $46 $-1 $327 forward single #
loop $-1 $-1 $328 $136 #
plane-surface $-1 -63.440656758323925 0 0 1 0 0 0 0 -1 forward_v I I I I #
coedge $-1 $329 $330 $331 $332 reversed $137 $-1 #
coedge $-1 $221 $139 $333 $334 reversed $87 $-1 #
coedge $-1 $139 $220 $329 $335 reversed $87 $-1 #
coedge $-1 $331 $336 $139 $223 forward $326 $-1 #
edge $-1 $337 22.669342241745213 $338 30.823591427054531 $222 $339 forward 7 unknown #
loop $-1 $-1 $229 $140 #
plane-surface $-1 -53.063568222283806 -32.777253167039063 3.4610777312304322 0 -0.61566148304635926 0.78801074757464917 1 0 0 forward_v I I I I #
loop $-1 $-1 $340 $89 #
coedge $-1 $227 $227 $228 $341 reversed $141 $-1 #
coedge $-1 $228 $228 $227 $341 forward $143 $-1 #
coedge $-1 $229 $229 $144 $230 forward $224 $-1 #
edge $-1 $342 -4.8132689654384008e-016 $342 6.2831853071795996 $229 $343 forward 7 unknown #
loop $-1 $-1 $236 $145 #
plane-surface $-1 -53.063568222283806 -32.777253167039063 3.4610777312304322 0 -0.61566148304635926 0.78801074757464917 1 0 0 forward_v I I I I #
loop $-1 $-1 $344 $92 #
coedge $-1 $234 $234 $235 $345 reversed $146 $-1 #
coedge $-1 $235 $235 $234 $345 forward $148 $-1 #
coedge $-1 $236 $236 $149 $237 forward $231 $-1 #
edge $-1 $346 -4.8132689654384008e-016 $346 6.2831853071795996 $236 $347 forward 7 unknown #
face $-1 $348 $349 $49 $-1 $350 reversed single #
loop $-1 $-1 $351 $150 #
plane-surface $-1 1.0658141036401503e-014 -110.89319081756855 103.44491644873754 1 0 0 0 0.61566148304635926 -0.78801074757464917 forward_v I I I I #
coedge $-1 $352 $353 $354 $355 reversed $151 $-1 #
coedge $-1 $243 $153 $356 $357 reversed $96 $-1 #
coedge $-1 $153 $242 $352 $358 reversed $96 $-1 #
coedge $-1 $354 $359 $153 $245 forward $360 $-1 #
edge $-1 $361 22.669342241745213 $362 30.823591427054531 $244 $363 forward 7 unknown #
loop $-1 $-1 $251 $154 #
plane-surface $-1 10.377088536040134 -32.777253167039063 3.4610777312304322 0 -0.61566148304635926 0.78801074757464917 1 0 0 forward_v I I I I #
loop $-1 $-1 $364 $98 #
coedge $-1 $249 $249 $250 $365 reversed $155 $-1 #
coedge $-1 $250 $250 $249 $365 forward $157 $-1 #
coedge $-1 $251 $251 $158 $252 forward $246 $-1 #
edge $-1 $366 -4.8132689654384008e-016 $366 6.2831853071795996 $251 $367 forward 7 unknown #
loop $-1 $-1 $258 $159 #
plane-surface $-1 10.377088536040134 -32.777253167039063 3.4610777312304322 0 -0.61566148304635926 0.78801074757464917 1 0 0 forward_v I I I I #
loop $-1 $-1 $368 $101 #
coedge $-1 $256 $256 $257 $369 reversed $160 $-1 #
coedge $-1 $257 $257 $256 $369 forward $162 $-1 #
coedge $-1 $258 $258 $163 $259 forward $253 $-1 #
edge $-1 $370 -4.8132689654384008e-016 $370 6.2831853071795996 $258 $371 forward 7 unknown #
face $-1 $372 $373 $39 $-1 $374 reversed single #
loop $-1 $-1 $375 $164 #
plane-surface $-1 -63.440656758323925 0 0 1 0 0 0 0 -1 forward_v I I I I #
coedge $-1 $376 $271 $377 $378 forward $165 $-1 #
coedge $-1 $379 $167 $376 $380 forward $105 $-1 #
coedge $-1 $167 $379 $381 $382 forward $105 $-1 #
coedge $-1 $274 $273 $167 $267 reversed $275 $-1 #
edge $-1 $383 -32.777253167039063 $384 32.777253167039063 $266 $385 forward 7 unknown #
coedge $-1 $169 $168 $386 $387 forward $66 $-1 #
coedge $-1 $388 $389 $168 $270 reversed $373 $-1 #
edge $-1 $277 -63.440656758323925 $390 63.440656758323925 $269 $391 forward 7 unknown #
coedge $-1 $263 $392 $169 $272 reversed $165 $-1 #
edge $-1 $393 -63.440656758323925 $276 63.440656758323925 $271 $394 forward 7 unknown #
coedge $-1 $266 $170 $392 $395 forward $275 $-1 #
coedge $-1 $170 $266 $388 $396 reversed $275 $-1 #
loop $-1 $-1 $273 $372 #
vertex $-1 $171 $397 #
vertex $-1 $171 $398 #
straight-curve $-1 63.440656758323925 0 9.831875543326932 0 1 0 I I #
face $-1 $-1 $399 $40 $-1 $400 reversed single #
loop $-1 $-1 $286 $172 #
plane-surface $-1 0 0 9.831875543326932 0 0 1 1 0 0 forward_v I I I I #
coedge $-1 $401 $175 $177 $288 forward $109 $-1 #
coedge $-1 $175 $401 $402 $403 reversed $109 $-1 #
coedge $-1 $404 $178 $175 $285 forward $173 $-1 #
edge $-1 $291 16.154695575101783 $405 36.908872647182022 $284 $406 forward 7 unknown #
coedge $-1 $407 $408 $176 $287 forward $280 $-1 #
edge $-1 $409 -4.9947636554525374 $290 3.1594855298567737 $286 $410 forward 7 unknown #
edge $-1 $291 -65.554506334078113 $409 -55.20661550846873 $177 $411 forward 7 unknown #
coedge $-1 $178 $404 $407 $412 reversed $173 $-1 #
vertex $-1 $412 $413 #
vertex $-1 $179 $414 #
straight-curve $-1 -42.686479686243686 32.777253167039063 71.902150519374018 0 0 -1 I I #
coedge $-1 $293 $293 $-1 $415 reversed $182 $-1 #
edge $-1 $416 0 $416 6.2831853071796004 $183 $417 forward 7 unknown #
vertex $-1 $186 $418 #
ellipse-curve $-1 -57.510891880586712 28.700128574384404 6.6464766372786865 0 0.61566148304635926 0.78801074757464917 2 0 0 1 I I #
coedge $-1 $297 $297 $-1 $419 reversed $189 $-1 #
edge $-1 $420 0 $420 6.2831853071796004 $190 $421 forward 7 unknown #
vertex $-1 $193 $422 #
ellipse-curve $-1 -48.616244563980892 28.700128574384404 6.6464766372786865 0 0.61566148304635926 0.78801074757464917 2 0 0 1 I I #
face $-1 $-1 $313 $43 $-1 $423 reversed single #
loop $-1 $-1 $424 $194 #
plane-surface $-1 0 0 9.831875543326932 0 0 1 1 0 0 forward_v I I I I #
coedge $-1 $425 $426 $427 $428 reversed $195 $-1 #
coedge $-1 $429 $197 $199 $311 forward $123 $-1 #
coedge $-1 $197 $429 $425 $430 forward $123 $-1 #
coedge $-1 $427 $200 $197 $308 forward $313 $-1 #
edge $-1 $315 -15.56563280406019 $431 5.1885442680200562 $307 $432 forward 7 unknown #
coedge $-1 $433 $434 $198 $310 forward $302 $-1 #
edge $-1 $435 -4.9947636554525374 $314 3.1594855298567737 $309 $436 forward 7 unknown #
edge $-1 $315 -65.554506334078113 $435 -55.20661550846873 $199 $437 forward 7 unknown #
coedge $-1 $200 $427 $433 $438 reversed $313 $-1 #
loop $-1 $-1 $427 $301 #
vertex $-1 $438 $439 #
vertex $-1 $201 $440 #
straight-curve $-1 20.754177072080257 32.777253167039063 71.902150519374018 0 0 -1 I I #
coedge $-1 $317 $317 $-1 $441 reversed $204 $-1 #
edge $-1 $442 0 $442 6.2831853071796004 $205 $443 forward 7 unknown #
vertex $-1 $208 $444 #
ellipse-curve $-1 5.9297648777372132 28.700128574384404 6.6464766372786865 0 0.61566148304635926 0.78801074757464917 2 0 0 1 I I #
coedge $-1 $321 $321 $-1 $445 reversed $211 $-1 #
edge $-1 $446 0 $446 6.2831853071796004 $212 $447 forward 7 unknown #
vertex $-1 $215 $448 #
ellipse-curve $-1 14.82441219434304 28.700128574384404 6.6464766372786865 0 0.61566148304635926 0.78801074757464917 2 0 0 1 I I #
face $-1 $-1 $449 $46 $-1 $450 reversed single #
loop $-1 $-1 $331 $216 #
plane-surface $-1 0 0 9.831875543326932 0 0 1 1 0 0 forward_v I I I I #
coedge $-1 $451 $452 $330 $453 forward $217 $-1 #
coedge $-1 $454 $219 $221 $335 forward $137 $-1 #
coedge $-1 $219 $454 $328 $453 reversed $137 $-1 #
coedge $-1 $455 $222 $219 $332 forward $326 $-1 #
edge $-1 $338 16.154695575101783 $456 36.908872647182022 $331 $457 forward 7 unknown #
coedge $-1 $458 $459 $220 $334 forward $449 $-1 #
edge $-1 $460 -48.26138049313834 $337 -41.890582681041842 $333 $461 forward 7 unknown #
edge $-1 $338 -10.347890825609401 $460 0 $221 $462 forward 7 unknown #
coedge $-1 $222 $455 $458 $463 forward $326 $-1 #
vertex $-1 $334 $464 #
vertex $-1 $223 $465 #
straight-curve $-1 -42.686479686243686 -55.446595408784276 9.8318755433269303 0 1 0 I I #
coedge $-1 $340 $340 $-1 $466 reversed $226 $-1 #
edge $-1 $467 0 $467 6.2831853071796004 $227 $468 forward 7 unknown #
vertex $-1 $230 $469 #
ellipse-curve $-1 -57.510891880586712 -28.700128574384401 6.646476637278683 0 -0.61566148304635926 0.78801074757464917 2 0 0 1 I I #
coedge $-1 $344 $344 $-1 $470 reversed $233 $-1 #
edge $-1 $471 0 $471 6.2831853071796004 $234 $472 forward 7 unknown #
vertex $-1 $237 $473 #
ellipse-curve $-1 -48.616244563980892 -28.700128574384401 6.646476637278683 0 -0.61566148304635926 0.78801074757464917 2 0 0 1 I I #
face $-1 $-1 $360 $49 $-1 $474 forward single #
loop $-1 $-1 $475 $238 #
plane-surface $-1 0 -32.777253167039063 0 0 1 0 0 0 1 forward_v I I I I #
coedge $-1 $476 $477 $478 $479 reversed $239 $-1 #
coedge $-1 $480 $241 $243 $358 forward $151 $-1 #
coedge $-1 $241 $480 $476 $481 forward $151 $-1 #
coedge $-1 $478 $244 $241 $355 forward $360 $-1 #
edge $-1 $362 -15.56563280406019 $482 5.1885442680200562 $354 $483 forward 7 unknown #
coedge $-1 $484 $485 $242 $357 forward $349 $-1 #
edge $-1 $486 -48.26138049313834 $361 -41.890582681041842 $356 $487 forward 7 unknown #
edge $-1 $362 -10.347890825609401 $486 0 $243 $488 forward 7 unknown #
coedge $-1 $244 $478 $484 $489 forward $360 $-1 #
loop $-1 $-1 $478 $348 #
vertex $-1 $357 $490 #
vertex $-1 $245 $491 #
straight-curve $-1 20.754177072080257 -55.446595408784276 9.8318755433269303 0 1 0 I I #
coedge $-1 $364 $364 $-1 $492 reversed $248 $-1 #
edge $-1 $493 0 $493 6.2831853071796004 $249 $494 forward 7 unknown #
vertex $-1 $252 $495 #
ellipse-curve $-1 5.9297648777372132 -28.700128574384401 6.646476637278683 0 -0.61566148304635926 0.78801074757464917 2 0 0 1 I I #
coedge $-1 $368 $368 $-1 $496 reversed $255 $-1 #
edge $-1 $497 0 $497 6.2831853071796004 $256 $498 forward 7 unknown #
vertex $-1 $259 $499 #
ellipse-curve $-1 14.82441219434304 -28.700128574384401 6.646476637278683 0 -0.61566148304635926 0.78801074757464917 2 0 0 1 I I #
face $-1 $-1 $275 $39 $-1 $500 reversed single #
loop $-1 $-1 $388 $260 #
plane-surface $-1 0 32.777253167039063 0 0 -1 0 0 0 -1 forward_v I I I I #
coedge $-1 $501 $386 $389 $502 forward $261 $-1 #
coedge $-1 $392 $263 $264 $380 reversed $165 $-1 #
coedge $-1 $386 $501 $263 $378 reversed $261 $-1 #
edge $-1 $393 -9.831875543326932 $503 9.831875543326932 $377 $504 forward 7 unknown #
coedge $-1 $265 $264 $501 $505 forward $105 $-1 #
edge $-1 $384 -63.440656758323925 $503 63.440656758323925 $376 $506 forward 7 unknown #
coedge $-1 $389 $388 $265 $382 reversed $373 $-1 #
edge $-1 $507 -63.440656758323925 $383 63.440656758323925 $381 $508 forward 7 unknown #
vertex $-1 $267 $509 #
vertex $-1 $395 $510 #
straight-curve $-1 63.440656758323925 0 -9.831875543326932 0 -1 0 I I #
coedge $-1 $375 $377 $268 $387 reversed $261 $-1 #
edge $-1 $390 -32.777253167039063 $393 32.777253167039063 $386 $511 forward 7 unknown #
coedge $-1 $381 $269 $274 $396 forward $373 $-1 #
coedge $-1 $269 $381 $375 $502 reversed $373 $-1 #
vertex $-1 $270 $512 #
straight-curve $-1 0 32.777253167039063 9.831875543326932 -1 0 0 I I #
coedge $-1 $271 $376 $273 $395 reversed $165 $-1 #
vertex $-1 $387 $513 #
straight-curve $-1 0 -32.777253167039063 9.831875543326932 1 0 0 I I #
edge $-1 $276 -9.831875543326932 $384 9.831875543326932 $273 $514 forward 7 unknown #
edge $-1 $277 -9.831875543326932 $383 9.831875543326932 $274 $515 forward 7 unknown #
point $-1 63.440656758323925 -32.777253167039063 9.831875543326932 #
point $-1 63.440656758323925 32.777253167039063 9.831875543326932 #
loop $-1 $-1 $402 $279 #
plane-surface $-1 -63.440656758323925 0 0 1 0 0 0 0 -1 forward_v I I I I #
coedge $-1 $283 $282 $408 $516 reversed $109 $-1 #
coedge $-1 $517 $518 $283 $403 forward $399 $-1 #
edge $-1 $405 -44.626240928366016 $519 -34.278350102756633 $402 $520 forward 7 unknown #
coedge $-1 $289 $284 $518 $521 reversed $173 $-1 #
vertex $-1 $285 $522 #
straight-curve $-1 -26.531784111141903 32.777253167039063 3.4610777312304393 -1 0 0 I I #
coedge $-1 $523 $286 $289 $412 forward $280 $-1 #
coedge $-1 $286 $523 $401 $516 forward $280 $-1 #
vertex $-1 $287 $524 #
straight-curve $-1 -42.686479686243686 29.61776763718229 9.8318755433269303 0 1 0 I I #
straight-curve $-1 -42.686479686243686 -18.880402376164909 43.820462321240925 0 -0.78801074757464917 0.61566148304635926 I I #
edge $-1 $290 42.686479686243686 $525 63.440656758323925 $289 $526 forward 7 unknown #
point $-1 -42.686479686243686 32.777253167039063 9.831875543326932 #
point $-1 -42.686479686243686 32.777253167039056 3.4610777312304393 #
edge $-1 $527 1 $527 0 $293 $-1 forward 7 unknown #
vertex $-1 $294 $528 #
ellipse-curve $-1 -57.510891880586712 25.168008732014968 2.1255694924359023 0 0.61566148304635926 0.78801074757464917 2 0 0 1 I I #
point $-1 -55.510891880586712 28.700128574384394 6.6464766372786741 #
edge $-1 $529 1 $529 0 $297 $-1 forward 7 unknown #
vertex $-1 $298 $530 #
ellipse-curve $-1 -48.616244563980892 25.168008732014968 2.1255694924359023 0 0.61566148304635926 0.78801074757464917 2 0 0 1 I I #
point $-1 -46.616244563980892 28.700128574384394 6.6464766372786741 #
plane-surface $-1 0 32.777253167039063 0 0 -1 0 0 0 -1 forward_v I I I I #
coedge $-1 $434 $433 $426 $531 forward $302 $-1 #
coedge $-1 $426 $304 $306 $430 reversed $195 $-1 #
coedge $-1 $304 $425 $424 $531 reversed $195 $-1 #
coedge $-1 $312 $307 $304 $428 forward $313 $-1 #
edge $-1 $431 -68.441072788143572 $532 -62.070274976047088 $427 $533 forward 7 unknown #
coedge $-1 $306 $305 $434 $534 reversed $123 $-1 #
edge $-1 $535 55.20661550846873 $431 65.554506334078113 $425 $536 forward 7 unknown #
vertex $-1 $308 $537 #
straight-curve $-1 5.1885442680200669 32.777253167039063 3.4610777312304393 -1 0 0 I I #
coedge $-1 $424 $309 $312 $438 forward $302 $-1 #
coedge $-1 $309 $424 $429 $534 forward $302 $-1 #
vertex $-1 $310 $538 #
straight-curve $-1 20.754177072080257 29.61776763718229 9.8318755433269303 0 1 0 I I #
straight-curve $-1 20.754177072080257 -18.880402376164909 43.820462321240925 0 -0.78801074757464917 0.61566148304635926 I I #
edge $-1 $314 -20.754177072080257 $532 -1.0658141036401503e-014 $312 $539 forward 7 unknown #
point $-1 20.754177072080257 32.777253167039063 9.831875543326932 #
point $-1 20.754177072080257 32.777253167039056 3.4610777312304393 #
edge $-1 $540 1 $540 0 $317 $-1 forward 7 unknown #
vertex $-1 $318 $541 #
ellipse-curve $-1 5.9297648777372132 25.168008732014968 2.1255694924359023 0 0.61566148304635926 0.78801074757464917 2 0 0 1 I I #
point $-1 7.9297648777372132 28.700128574384394 6.6464766372786741 #
edge $-1 $542 1 $542 0 $321 $-1 forward 7 unknown #
vertex $-1 $322 $543 #
ellipse-curve $-1 14.82441219434304 25.168008732014968 2.1255694924359023 0 0.61566148304635926 0.78801074757464917 2 0 0 1 I I #
point $-1 16.82441219434304 28.700128574384394 6.6464766372786741 #
loop $-1 $-1 $333 $325 #
plane-surface $-1 0 -32.777253167039063 0 0 1 0 0 0 1 forward_v I I I I #
coedge $-1 $452 $328 $544 $545 reversed $217 $-1 #
coedge $-1 $328 $451 $455 $546 reversed $217 $-1 #
edge $-1 $456 1.5010969357175643 $547 11.848987761326967 $328 $548 forward 7 unknown #
coedge $-1 $330 $329 $459 $549 reversed $137 $-1 #
coedge $-1 $336 $331 $452 $546 forward $326 $-1 #
vertex $-1 $546 $550 #
straight-curve $-1 -26.531784111141903 -24.623003981729742 9.831875543326932 -1 0 0 I I #
coedge $-1 $544 $333 $336 $463 reversed $449 $-1 #
coedge $-1 $333 $544 $454 $549 forward $449 $-1 #
vertex $-1 $334 $551 #
straight-curve $-1 -42.686479686243686 -32.777253167039063 51.722458224368772 0 0 1 I I #
straight-curve $-1 -42.686479686243686 -32.777253167039063 3.4610777312304322 0 -0.78801074757464917 -0.61566148304635926 I I #
edge $-1 $552 -63.440656758323925 $337 -42.686479686243686 $458 $553 forward 7 unknown #
point $-1 -42.686479686243686 -32.777253167039063 9.831875543326932 #
point $-1 -42.686479686243686 -24.623003981729745 9.831875543326932 #
edge $-1 $554 1 $554 0 $340 $-1 forward 7 unknown #
vertex $-1 $341 $555 #
ellipse-curve $-1 -57.510891880586712 -25.168008732014968 2.1255694924359005 0 -0.61566148304635926 0.78801074757464917 2 0 0 1 I I #
point $-1 -55.510891880586712 -28.700128574384394 6.6464766372786723 #
edge $-1 $556 1 $556 0 $344 $-1 forward 7 unknown #
vertex $-1 $345 $557 #
ellipse-curve $-1 -48.616244563980892 -25.168008732014968 2.1255694924359005 0 -0.61566148304635926 0.78801074757464917 2 0 0 1 I I #
point $-1 -46.616244563980892 -28.700128574384394 6.6464766372786723 #
plane-surface $-1 0 0 9.831875543326932 0 0 1 1 0 0 forward_v I I I I #
coedge $-1 $485 $484 $477 $558 forward $349 $-1 #
coedge $-1 $477 $351 $353 $481 reversed $239 $-1 #
coedge $-1 $351 $476 $475 $558 reversed $239 $-1 #
coedge $-1 $359 $354 $351 $479 forward $360 $-1 #
edge $-1 $482 -30.823591427054531 $559 -22.669342241745213 $478 $560 forward 7 unknown #
coedge $-1 $353 $352 $485 $561 reversed $151 $-1 #
edge $-1 $562 0 $482 10.347890825609401 $476 $563 forward 7 unknown #
vertex $-1 $355 $564 #
straight-curve $-1 5.1885442680200669 -24.623003981729742 9.831875543326932 -1 0 0 I I #
coedge $-1 $475 $356 $359 $489 reversed $349 $-1 #
coedge $-1 $356 $475 $480 $561 forward $349 $-1 #
vertex $-1 $357 $565 #
straight-curve $-1 20.754177072080257 -32.777253167039063 51.722458224368772 0 0 1 I I #
straight-curve $-1 20.754177072080257 -32.777253167039063 3.4610777312304322 0 -0.78801074757464917 -0.61566148304635926 I I #
edge $-1 $559 1.0658141036401503e-014 $361 20.754177072080257 $484 $566 forward 7 unknown #
point $-1 20.754177072080257 -32.777253167039063 9.831875543326932 #
point $-1 20.754177072080257 -24.623003981729745 9.831875543326932 #
edge $-1 $567 1 $567 0 $364 $-1 forward 7 unknown #
vertex $-1 $365 $568 #
ellipse-curve $-1 5.9297648777372132 -25.168008732014968 2.1255694924359005 0 -0.61566148304635926 0.78801074757464917 2 0 0 1 I I #
point $-1 7.9297648777372132 -28.700128574384394 6.6464766372786723 #
edge $-1 $569 1 $569 0 $368 $-1 forward 7 unknown #
vertex $-1 $369 $570 #
ellipse-curve $-1 14.82441219434304 -25.168008732014968 2.1255694924359005 0 -0.61566148304635926 0.78801074757464917 2 0 0 1 I I #
point $-1 16.82441219434304 -28.700128574384394 6.6464766372786723 #
plane-surface $-1 63.440656758323925 0 0 -1 0 0 0 0 1 forward_v I I I I #
coedge $-1 $377 $375 $379 $505 reversed $261 $-1 #
edge $-1 $390 -9.831875543326932 $507 9.831875543326932 $389 $571 forward 7 unknown #
vertex $-1 $505 $572 #
straight-curve $-1 -63.440656758323925 -32.777253167039063 0 0 0 -1 I I #
edge $-1 $503 -32.777253167039063 $507 32.777253167039063 $501 $573 forward 7 unknown #
straight-curve $-1 0 -32.777253167039063 -9.831875543326932 -1 0 0 I I #
vertex $-1 $382 $574 #
straight-curve $-1 0 32.777253167039063 -9.831875543326932 1 0 0 I I #
point $-1 63.440656758323925 32.777253167039063 -9.831875543326932 #
point $-1 63.440656758323925 -32.777253167039063 -9.831875543326932 #
straight-curve $-1 -63.440656758323925 0 9.831875543326932 0 -1 0 I I #
point $-1 -63.440656758323925 32.777253167039063 9.831875543326932 #
point $-1 -63.440656758323925 -32.777253167039063 9.831875543326932 #
straight-curve $-1 63.440656758323925 -32.777253167039063 0 0 0 -1 I I #
straight-curve $-1 63.440656758323925 32.777253167039063 0 0 0 -1 I I #
edge $-1 $519 -36.908872647182022 $409 -16.154695575101783 $408 $575 forward 7 unknown #
coedge $-1 $518 $402 $523 $576 reversed $399 $-1 #
coedge $-1 $402 $517 $404 $521 forward $399 $-1 #
vertex $-1 $403 $577 #
straight-curve $-1 -63.440656758323925 -2.3887043083690527 30.935735403972402 0 -0.78801074757464917 0.61566148304635926 I I #
edge $-1 $525 -9.831875543326932 $405 -3.4610777312304384 $404 $578 forward 7 unknown #
point $-1 -63.440656758323925 32.777253167039063 3.4610777312304384 #
coedge $-1 $408 $407 $517 $576 forward $280 $-1 #
point $-1 -42.686479686243686 24.623003981729752 9.8318755433269303 #
vertex $-1 $412 $579 #
straight-curve $-1 0 32.777253167039063 9.831875543326932 -1 0 0 I I #
vertex $-1 $415 $580 #
point $-1 -55.510891880586712 25.168008732014968 2.1255694924359023 #
vertex $-1 $419 $581 #
point $-1 -46.616244563980892 25.168008732014968 2.1255694924359023 #
edge $-1 $532 -3.1594855298567737 $535 4.9947636554525374 $424 $582 forward 7 unknown #
vertex $-1 $531 $583 #
straight-curve $-1 1.0658141036401503e-014 32.777253167039063 71.902150519374018 0 0 1 I I #
edge $-1 $535 -5.1885442680200562 $435 15.56563280406019 $434 $584 forward 7 unknown #
vertex $-1 $534 $585 #
straight-curve $-1 1.0658141036401503e-014 -18.880402376164909 43.820462321240925 0 0.78801074757464917 -0.61566148304635926 I I #
point $-1 1.0658141036401503e-014 32.777253167039056 3.4610777312304393 #
point $-1 20.754177072080257 24.623003981729752 9.8318755433269303 #
straight-curve $-1 0 32.777253167039063 9.831875543326932 -1 0 0 I I #
vertex $-1 $441 $586 #
point $-1 7.9297648777372132 25.168008732014968 2.1255694924359023 #
vertex $-1 $445 $587 #
point $-1 16.82441219434304 25.168008732014968 2.1255694924359023 #
coedge $-1 $459 $458 $451 $545 forward $449 $-1 #
edge $-1 $552 -9.831875543326932 $547 -3.4610777312304322 $451 $588 forward 7 unknown #
edge $-1 $456 24.623003981729745 $552 32.777253167039063 $452 $589 forward 7 unknown #
vertex $-1 $453 $590 #
straight-curve $-1 -63.440656758323925 -23.440123463232933 10.756043108967154 0 -0.78801074757464917 -0.61566148304635926 I I #
edge $-1 $547 -36.908872647182022 $460 -16.154695575101783 $459 $591 forward 7 unknown #
point $-1 -63.440656758323925 -24.623003981729745 9.831875543326932 #
point $-1 -42.686479686243686 -32.777253167039063 3.4610777312304322 #
vertex $-1 $546 $592 #
straight-curve $-1 0 -32.777253167039063 9.831875543326932 1 0 0 I I #
vertex $-1 $466 $593 #
point $-1 -55.510891880586712 -25.168008732014968 2.1255694924359005 #
vertex $-1 $470 $594 #
point $-1 -46.616244563980892 -25.168008732014968 2.1255694924359005 #
edge $-1 $559 41.890582681041842 $562 48.26138049313834 $475 $595 forward 7 unknown #
vertex $-1 $489 $596 #
straight-curve $-1 1.0658141036401503e-014 -55.446595408784276 9.8318755433269303 0 -1 0 I I #
edge $-1 $562 -5.1885442680200562 $486 15.56563280406019 $485 $597 forward 7 unknown #
vertex $-1 $561 $598 #
straight-curve $-1 1.0658141036401503e-014 -32.777253167039063 3.4610777312304322 0 0.78801074757464917 0.61566148304635926 I I #
point $-1 1.0658141036401503e-014 -24.623003981729745 9.831875543326932 #
point $-1 20.754177072080257 -32.777253167039063 3.4610777312304322 #
straight-curve $-1 0 -32.777253167039063 9.831875543326932 1 0 0 I I #
vertex $-1 $492 $599 #
point $-1 7.9297648777372132 -25.168008732014968 2.1255694924359005 #
vertex $-1 $496 $600 #
point $-1 16.82441219434304 -25.168008732014968 2.1255694924359005 #
straight-curve $-1 -63.440656758323925 32.777253167039063 0 0 0 -1 I I #
point $-1 -63.440656758323925 -32.777253167039063 -9.831875543326932 #
straight-curve $-1 -63.440656758323925 0 -9.831875543326932 0 1 0 I I #
point $-1 -63.440656758323925 32.777253167039063 -9.831875543326932 #
straight-curve $-1 -26.531784111141903 24.623003981729759 9.8318755433269303 1 0 0 I I #
edge $-1 $525 -32.777253167039063 $519 -24.623003981729752 $517 $601 forward 7 unknown #
point $-1 -63.440656758323925 24.623003981729752 9.8318755433269303 #
straight-curve $-1 -63.440656758323925 32.777253167039063 0 0 0 -1 I I #
point $-1 -63.440656758323925 32.777253167039063 9.831875543326932 #
point $-1 -57.510891880586712 23.936685765922249 0.54954799728660397 #
point $-1 -48.616244563980892 23.936685765922249 0.54954799728660397 #
straight-curve $-1 1.0658141036401503e-014 29.61776763718229 9.8318755433269303 0 -1 0 I I #
point $-1 1.0658141036401503e-014 32.777253167039063 9.831875543326932 #
straight-curve $-1 5.1885442680200669 24.623003981729759 9.8318755433269303 1 0 0 I I #
point $-1 1.0658141036401503e-014 24.623003981729752 9.8318755433269303 #
point $-1 5.9297648777372132 23.936685765922249 0.54954799728660397 #
point $-1 14.82441219434304 23.936685765922249 0.54954799728660397 #
straight-curve $-1 -63.440656758323925 -32.777253167039063 0 0 0 -1 I I #
straight-curve $-1 -63.440656758323925 0 9.831875543326932 0 -1 0 I I #
point $-1 -63.440656758323925 -32.777253167039063 3.4610777312304322 #
straight-curve $-1 -26.531784111141903 -32.777253167039063 3.4610777312304304 1 0 0 I I #
point $-1 -63.440656758323925 -32.777253167039063 9.831875543326932 #
point $-1 -57.510891880586712 -23.936685765922249 0.5495479972866022 #
point $-1 -48.616244563980892 -23.936685765922249 0.5495479972866022 #
straight-curve $-1 1.0658141036401503e-014 -32.777253167039063 51.722458224368772 0 0 -1 I I #
point $-1 1.0658141036401503e-014 -32.777253167039063 9.831875543326932 #
straight-curve $-1 5.1885442680200669 -32.777253167039063 3.4610777312304304 1 0 0 I I #
point $-1 1.0658141036401503e-014 -32.777253167039063 3.4610777312304322 #
point $-1 5.9297648777372132 -23.936685765922249 0.5495479972866022 #
point $-1 14.82441219434304 -23.936685765922249 0.5495479972866022 #
straight-curve $-1 -63.440656758323925 0 9.831875543326932 0 -1 0 I I #
End-of-ACIS-data 