500 0 8 0           
7 Unknown 11 ACIS 5.0 NT 24 Thu Mar 25 19:57:49 1999 
-1 9.9999999999999995e-007 1e-010 
body $-1 $8 $-1 $9 #
body $-1 $10 $-1 $11 #
body $-1 $12 $-1 $13 #
body $-1 $14 $-1 $15 #
body $-1 $16 $-1 $17 #
body $-1 $18 $-1 $19 #
body $-1 $20 $-1 $21 #
body $-1 $22 $-1 $23 #
lump $-1 $-1 $24 $0 #
transform $-1 1 0 0 0 1 0 0 0 1 43.375347148045293 30.012081378840989 9.8732026497151537 1 rotate no_reflect no_shear #
lump $-1 $-1 $25 $1 #
transform $-1 1 0 0 0 1 0 0 0 1 43.375347148045293 30.012081378840989 9.8732026497151537 1 rotate no_reflect no_shear #
lump $-1 $-1 $26 $2 #
transform $-1 1 0 0 0 1 0 0 0 1 43.375347148045293 30.012081378840989 9.8732026497151537 1 rotate no_reflect no_shear #
lump $-1 $-1 $27 $3 #
transform $-1 1 0 0 0 1 0 0 0 1 43.375347148045293 30.012081378840989 9.8732026497151537 1 rotate no_reflect no_shear #
lump $-1 $-1 $28 $4 #
transform $-1 1 0 0 0 1 0 0 0 1 43.375347148045293 30.012081378840989 9.8732026497151537 1 rotate no_reflect no_shear #
lump $-1 $-1 $29 $5 #
transform $-1 1 0 0 0 1 0 0 0 1 43.375347148045293 30.012081378840989 9.8732026497151537 1 rotate no_reflect no_shear #
lump $-1 $-1 $30 $6 #
transform $-1 1 0 0 0 1 0 0 0 1 43.375347148045293 30.012081378840989 9.8732026497151537 1 rotate no_reflect no_shear #
lump $-1 $-1 $31 $7 #
transform $-1 1 0 0 0 1 0 0 0 1 43.375347148045293 30.012081378840989 9.8732026497151537 1 rotate no_reflect no_shear #
shell $-1 $-1 $-1 $32 $-1 $8 #
shell $-1 $-1 $-1 $33 $-1 $10 #
shell $-1 $-1 $-1 $34 $-1 $12 #
shell $-1 $-1 $-1 $35 $-1 $14 #
shell $-1 $-1 $-1 $36 $-1 $16 #
shell $-1 $-1 $-1 $37 $-1 $18 #
shell $-1 $-1 $-1 $38 $-1 $20 #
shell $-1 $-1 $-1 $39 $-1 $22 #
face $-1 $40 $41 $24 $-1 $42 forward single #
face $-1 $43 $44 $25 $-1 $45 reversed single #
face $-1 $46 $47 $26 $-1 $48 reversed single #
face $-1 $49 $50 $27 $-1 $51 forward single #
face $-1 $52 $53 $28 $-1 $54 forward single #
face $-1 $55 $56 $29 $-1 $57 reversed single #
face $-1 $58 $59 $30 $-1 $60 forward single #
face $-1 $61 $62 $31 $-1 $63 forward single #
face $-1 $64 $65 $24 $-1 $66 reversed single #
loop $-1 $-1 $67 $32 #
plane-surface $-1 0 0 9.8732026497151537 0 0 1 1 0 0 forward_v I I I I #
face $-1 $68 $69 $25 $-1 $70 reversed single #
loop $-1 $-1 $71 $33 #
plane-surface $-1 0 -24.947505365138323 5.884087690165031 0 0 1 1 0 0 forward_v I I I I #
face $-1 $72 $73 $26 $-1 $74 reversed single #
loop $-1 $-1 $75 $34 #
plane-surface $-1 -43.375347148045286 -14.187752765287698 1.1945826316149635 -0.69465837861970381 0 0.71933979245794832 0.71933979245794832 0 0.69465837861970381 forward_v I I I I #
face $-1 $76 $77 $27 $-1 $78 forward single #
loop $-1 $79 $80 $35 #
cone-surface $-1 -38.290175216494823 -16.628542730779682 4.9211849233716505 0.69465837861970381 0 -0.71933979245794832 1.0790096886869225 0 1.0419875679295556 1 I I 0 1 1.5 forward I I I I #
face $-1 $81 $82 $28 $-1 $83 forward single #
loop $-1 $84 $85 $36 #
cone-surface $-1 -38.290175216494823 -11.746962799795718 4.9211849233716505 0.69465837861970381 0 -0.71933979245794832 1.0790096886869225 0 1.0419875679295556 1 I I 0 1 1.5 forward I I I I #
face $-1 $86 $87 $29 $-1 $88 reversed single #
loop $-1 $-1 $89 $37 #
plane-surface $-1 41.234217361368437 -8.4925761791397392 123.85990570600356 0 -1 0 -0.69465837861970381 0 -0.71933979245794832 forward_v I I I I #
face $-1 $90 $91 $30 $-1 $92 forward single #
loop $-1 $93 $94 $38 #
cone-surface $-1 38.290175216494823 -16.628542730779682 4.9211849233716558 -0.69465837861970381 0 -0.71933979245794832 1.0790096886869225 0 -1.0419875679295556 1 I I 0 1 1.5 forward I I I I #
face $-1 $95 $96 $31 $-1 $97 forward single #
loop $-1 $98 $99 $39 #
cone-surface $-1 38.290175216494823 -11.746962799795718 4.9211849233716558 -0.69465837861970381 0 -0.71933979245794832 1.0790096886869225 0 -1.0419875679295556 1 I I 0 1 1.5 forward I I I I #
face $-1 $100 $101 $24 $-1 $102 reversed single #
loop $-1 $-1 $103 $40 #
plane-surface $-1 0 0 -9.8732026497151537 0 0 1 1 0 0 forward_v I I I I #
coedge $-1 $104 $105 $106 $107 forward $41 $-1 #
face $-1 $108 $109 $25 $-1 $110 reversed single #
loop $-1 $-1 $111 $43 #
plane-surface $-1 0 -19.882929351435656 7.8786451699400928 0 -1 0 0 0 -1 forward_v I I I I #
coedge $-1 $112 $113 $114 $115 reversed $44 $-1 #
face $-1 $116 $117 $26 $-1 $118 forward single #
loop $-1 $-1 $119 $46 #
plane-surface $-1 -103.63744379190116 -8.4925761791397392 63.597809062147689 0 -1 0 0.69465837861970381 0 -0.71933979245794832 forward_v I I I I #
coedge $-1 $120 $121 $122 $123 reversed $47 $-1 #
face $-1 $-1 $124 $27 $-1 $125 forward single #
loop $-1 $126 $127 $49 #
cone-surface $-1 -37.177496454268947 -16.628542730779682 3.768972361734777 0.69465837861970381 0 -0.71933979245794832 0.53950484434346124 0 0.5209937839647778 1 I I -0.70710678118654757 0.70710678118654757 0.75 forward I I I I #
loop $-1 $-1 $128 $35 #
coedge $-1 $80 $80 $129 $130 reversed $50 $-1 #
face $-1 $-1 $131 $28 $-1 $132 forward single #
loop $-1 $133 $134 $52 #
cone-surface $-1 -37.177496454268947 -11.746962799795718 3.768972361734777 0.69465837861970381 0 -0.71933979245794832 0.53950484434346124 0 0.5209937839647778 1 I I -0.70710678118654757 0.70710678118654757 0.75 forward I I I I #
loop $-1 $-1 $135 $36 #
coedge $-1 $85 $85 $136 $137 reversed $53 $-1 #
face $-1 $138 $139 $29 $-1 $140 forward single #
loop $-1 $-1 $141 $55 #
plane-surface $-1 -19.02787928248744 -14.187752765287698 61.456679275470833 0.69465837861970381 0 0.71933979245794832 0.71933979245794832 0 -0.69465837861970381 forward_v I I I I #
coedge $-1 $142 $143 $144 $145 reversed $56 $-1 #
face $-1 $-1 $146 $30 $-1 $147 forward single #
loop $-1 $148 $149 $58 #
cone-surface $-1 37.177496454268947 -16.628542730779682 3.7689723617347823 -0.69465837861970381 0 -0.71933979245794832 0.53950484434346124 0 -0.5209937839647778 1 I I -0.70710678118654757 0.70710678118654757 0.75 forward I I I I #
loop $-1 $-1 $150 $38 #
coedge $-1 $94 $94 $151 $152 reversed $59 $-1 #
face $-1 $-1 $153 $31 $-1 $154 forward single #
loop $-1 $155 $156 $61 #
cone-surface $-1 37.177496454268947 -11.746962799795718 3.7689723617347823 -0.69465837861970381 0 -0.71933979245794832 0.53950484434346124 0 -0.5209937839647778 1 I I -0.70710678118654757 0.70710678118654757 0.75 forward I I I I #
loop $-1 $-1 $157 $39 #
coedge $-1 $99 $99 $158 $159 reversed $62 $-1 #
face $-1 $160 $161 $24 $-1 $162 reversed single #
loop $-1 $-1 $163 $64 #
plane-surface $-1 0 -30.012081378840989 0 0 1 0 0 0 1 forward_v I I I I #
coedge $-1 $164 $165 $166 $167 forward $65 $-1 #
coedge $-1 $168 $67 $169 $170 forward $41 $-1 #
coedge $-1 $67 $168 $171 $172 forward $41 $-1 #
coedge $-1 $173 $174 $67 $107 reversed $175 $-1 #
edge $-1 $176 -30.012081378840989 $177 30.012081378840989 $106 $178 forward 7 unknown #
face $-1 $179 $180 $25 $-1 $181 reversed single #
loop $-1 $-1 $182 $68 #
plane-surface $-1 -43.375347148045293 0 0 1 0 0 0 0 -1 forward_v I I I I #
coedge $-1 $183 $184 $113 $185 reversed $69 $-1 #
coedge $-1 $186 $71 $187 $188 reversed $44 $-1 #
coedge $-1 $71 $186 $111 $185 forward $44 $-1 #
coedge $-1 $189 $190 $71 $115 forward $191 $-1 #
edge $-1 $192 -17.538328696271826 $193 -7.4091766688664951 $114 $194 forward 7 unknown #
face $-1 $195 $196 $26 $-1 $197 reversed single #
loop $-1 $-1 $122 $72 #
plane-surface $-1 0 0 9.8732026497151537 0 0 1 1 0 0 forward_v I I I I #
coedge $-1 $198 $199 $200 $201 reversed $73 $-1 #
coedge $-1 $202 $75 $203 $204 reversed $47 $-1 #
coedge $-1 $75 $202 $198 $205 forward $47 $-1 #
coedge $-1 $200 $206 $75 $123 forward $117 $-1 #
edge $-1 $207 -12.789052968791808 $208 -1.3986997964958903 $122 $209 forward 7 unknown #
loop $-1 $-1 $129 $76 #
plane-surface $-1 -43.375347148045286 -14.187752765287698 1.1945826316149635 -0.69465837861970381 0 0.71933979245794832 0.71933979245794832 0 0.69465837861970381 forward_v I I I I #
loop $-1 $-1 $210 $49 #
coedge $-1 $127 $127 $128 $211 reversed $77 $-1 #
coedge $-1 $128 $128 $127 $211 forward $79 $-1 #
coedge $-1 $129 $129 $80 $130 forward $124 $-1 #
edge $-1 $212 0 $212 6.2831853071796004 $129 $213 forward 7 unknown #
loop $-1 $-1 $136 $81 #
plane-surface $-1 -43.375347148045286 -14.187752765287698 1.1945826316149635 -0.69465837861970381 0 0.71933979245794832 0.71933979245794832 0 0.69465837861970381 forward_v I I I I #
loop $-1 $-1 $214 $52 #
coedge $-1 $134 $134 $135 $215 reversed $82 $-1 #
coedge $-1 $135 $135 $134 $215 forward $84 $-1 #
coedge $-1 $136 $136 $85 $137 forward $131 $-1 #
edge $-1 $216 0 $216 6.2831853071796004 $136 $217 forward 7 unknown #
face $-1 $218 $219 $29 $-1 $220 forward single #
loop $-1 $-1 $221 $86 #
plane-surface $-1 0 -19.882929351435656 7.8786451699400928 0 -1 0 0 0 -1 forward_v I I I I #
coedge $-1 $222 $223 $224 $225 reversed $87 $-1 #
coedge $-1 $143 $89 $226 $227 reversed $56 $-1 #
coedge $-1 $89 $142 $222 $228 reversed $56 $-1 #
coedge $-1 $224 $229 $89 $145 forward $219 $-1 #
edge $-1 $230 -22.758238467361075 $231 -13.771264560782306 $144 $232 forward 7 unknown #
loop $-1 $-1 $151 $90 #
plane-surface $-1 -19.02787928248744 -14.187752765287698 61.456679275470833 0.69465837861970381 0 0.71933979245794832 0.71933979245794832 0 -0.69465837861970381 forward_v I I I I #
loop $-1 $-1 $233 $58 #
coedge $-1 $149 $149 $150 $234 reversed $91 $-1 #
coedge $-1 $150 $150 $149 $234 forward $93 $-1 #
coedge $-1 $151 $151 $94 $152 forward $146 $-1 #
edge $-1 $235 0 $235 6.2831853071796004 $151 $236 forward 7 unknown #
loop $-1 $-1 $158 $95 #
plane-surface $-1 -19.02787928248744 -14.187752765287698 61.456679275470833 0.69465837861970381 0 0.71933979245794832 0.71933979245794832 0 -0.69465837861970381 forward_v I I I I #
loop $-1 $-1 $237 $61 #
coedge $-1 $156 $156 $157 $238 reversed $96 $-1 #
coedge $-1 $157 $157 $156 $238 forward $98 $-1 #
coedge $-1 $158 $158 $99 $159 forward $153 $-1 #
edge $-1 $239 0 $239 6.2831853071796004 $158 $240 forward 7 unknown #
face $-1 $241 $242 $24 $-1 $243 reversed single #
loop $-1 $-1 $244 $100 #
plane-surface $-1 -43.375347148045293 0 0 1 0 0 0 0 -1 forward_v I I I I #
coedge $-1 $245 $171 $246 $247 forward $101 $-1 #
coedge $-1 $248 $103 $245 $249 forward $65 $-1 #
coedge $-1 $103 $248 $250 $251 forward $65 $-1 #
coedge $-1 $174 $173 $103 $167 reversed $175 $-1 #
edge $-1 $252 -30.012081378840989 $253 30.012081378840989 $166 $254 forward 7 unknown #
coedge $-1 $105 $104 $255 $256 forward $41 $-1 #
coedge $-1 $257 $258 $104 $170 reversed $242 $-1 #
edge $-1 $177 -43.375347148045293 $259 43.375347148045293 $169 $260 forward 7 unknown #
coedge $-1 $163 $261 $105 $172 reversed $101 $-1 #
edge $-1 $262 -43.375347148045293 $176 43.375347148045293 $171 $263 forward 7 unknown #
coedge $-1 $166 $106 $261 $264 forward $175 $-1 #
coedge $-1 $106 $166 $257 $265 reversed $175 $-1 #
loop $-1 $-1 $173 $241 #
vertex $-1 $107 $266 #
vertex $-1 $107 $267 #
straight-curve $-1 43.375347148045293 0 9.8732026497151537 0 1 0 I I #
face $-1 $268 $269 $25 $-1 $270 forward single #
loop $-1 $-1 $187 $108 #
plane-surface $-1 0 -30.012081378840989 0 0 1 0 0 0 1 forward_v I I I I #
coedge $-1 $271 $272 $183 $273 forward $109 $-1 #
coedge $-1 $274 $111 $182 $273 reversed $69 $-1 #
coedge $-1 $111 $274 $189 $275 reversed $69 $-1 #
edge $-1 $276 -43.375347148045293 $193 43.375347148045293 $111 $277 forward 7 unknown #
coedge $-1 $113 $112 $271 $278 reversed $44 $-1 #
coedge $-1 $279 $280 $112 $188 forward $180 $-1 #
edge $-1 $281 -43.375347148045293 $192 43.375347148045293 $187 $282 forward 7 unknown #
coedge $-1 $283 $114 $184 $275 forward $191 $-1 #
coedge $-1 $114 $283 $279 $284 forward $191 $-1 #
loop $-1 $-1 $189 $268 #
vertex $-1 $188 $285 #
vertex $-1 $115 $286 #
straight-curve $-1 43.375347148045293 -12.473752682569161 5.884087690165031 0 1 0 I I #
face $-1 $-1 $287 $26 $-1 $288 forward single #
loop $-1 $-1 $289 $116 #
plane-surface $-1 -43.375347148045293 0 0 1 0 0 0 0 -1 forward_v I I I I #
coedge $-1 $199 $119 $121 $205 reversed $73 $-1 #
coedge $-1 $119 $198 $289 $290 reversed $73 $-1 #
coedge $-1 $291 $122 $119 $201 forward $117 $-1 #
edge $-1 $208 -17.430348654484057 $292 -8.4433747479052883 $200 $293 forward 7 unknown #
coedge $-1 $121 $120 $294 $295 reversed $47 $-1 #
coedge $-1 $296 $297 $120 $204 forward $287 $-1 #
edge $-1 $298 -17.92237663036601 $207 -5.429012575152651 $203 $299 forward 7 unknown #
edge $-1 $300 -9.8928161431344572e-015 $208 12.493364055213345 $198 $301 forward 7 unknown #
coedge $-1 $122 $291 $296 $302 forward $117 $-1 #
vertex $-1 $204 $303 #
vertex $-1 $123 $304 #
straight-curve $-1 -34.388373241466525 -7.0938763826438489 9.8732026497151537 0 1 0 I I #
coedge $-1 $210 $210 $-1 $305 reversed $126 $-1 #
edge $-1 $306 0 $306 6.2831853071796004 $127 $307 forward 7 unknown #
vertex $-1 $130 $308 #
ellipse-curve $-1 -38.881860194755909 -16.628542730779682 5.5338926406650542 -0.69465837861970381 0 0.71933979245794832 1.0790096886869225 0 1.0419875679295556 1 I I #
coedge $-1 $214 $214 $-1 $309 reversed $133 $-1 #
edge $-1 $310 0 $310 6.2831853071796004 $134 $311 forward 7 unknown #
vertex $-1 $137 $312 #
ellipse-curve $-1 -38.881860194755909 -11.746962799795718 5.5338926406650542 -0.69465837861970381 0 0.71933979245794832 1.0790096886869225 0 1.0419875679295556 1 I I #
face $-1 $-1 $313 $29 $-1 $314 reversed single #
loop $-1 $-1 $224 $138 #
plane-surface $-1 0 0 9.8732026497151537 0 0 1 1 0 0 forward_v I I I I #
coedge $-1 $315 $316 $223 $317 reversed $139 $-1 #
coedge $-1 $318 $141 $143 $228 forward $87 $-1 #
coedge $-1 $141 $318 $221 $317 forward $87 $-1 #
coedge $-1 $319 $144 $141 $225 forward $219 $-1 #
edge $-1 $231 1.3986997964958903 $320 12.789052968791808 $224 $321 forward 7 unknown #
coedge $-1 $322 $323 $142 $227 forward $313 $-1 #
edge $-1 $324 -60.73537022138683 $230 -52.056750203286626 $226 $325 forward 7 unknown #
edge $-1 $231 74.257330240877224 $324 86.750694296090586 $143 $326 forward 7 unknown #
coedge $-1 $144 $319 $322 $327 forward $219 $-1 #
vertex $-1 $227 $328 #
vertex $-1 $145 $329 #
straight-curve $-1 20.617108680684218 -8.4925761791397392 9.8732026497151537 -1 0 0 I I #
coedge $-1 $233 $233 $-1 $330 reversed $148 $-1 #
edge $-1 $331 0 $331 6.2831853071796004 $149 $332 forward 7 unknown #
vertex $-1 $152 $333 #
ellipse-curve $-1 38.881860194755902 -16.628542730779682 5.5338926406650497 0.69465837861970381 0 0.71933979245794832 1.0790096886869225 0 -1.0419875679295556 1 I I #
coedge $-1 $237 $237 $-1 $334 reversed $155 $-1 #
edge $-1 $335 0 $335 6.2831853071796004 $156 $336 forward 7 unknown #
vertex $-1 $159 $337 #
ellipse-curve $-1 38.881860194755902 -11.746962799795718 5.5338926406650497 0.69465837861970381 0 0.71933979245794832 1.0790096886869225 0 -1.0419875679295556 1 I I #
face $-1 $-1 $175 $24 $-1 $338 reversed single #
loop $-1 $-1 $257 $160 #
plane-surface $-1 0 30.012081378840989 0 0 -1 0 0 0 -1 forward_v I I I I #
coedge $-1 $339 $255 $258 $340 forward $161 $-1 #
coedge $-1 $261 $163 $164 $249 reversed $101 $-1 #
coedge $-1 $255 $339 $163 $247 reversed $161 $-1 #
edge $-1 $262 -9.8732026497151537 $341 9.8732026497151537 $246 $342 forward 7 unknown #
coedge $-1 $165 $164 $339 $343 forward $65 $-1 #
edge $-1 $253 -43.375347148045293 $341 43.375347148045293 $245 $344 forward 7 unknown #
coedge $-1 $258 $257 $165 $251 reversed $242 $-1 #
edge $-1 $345 -43.375347148045293 $252 43.375347148045293 $250 $346 forward 7 unknown #
vertex $-1 $167 $347 #
vertex $-1 $264 $348 #
straight-curve $-1 43.375347148045293 0 -9.8732026497151537 0 -1 0 I I #
coedge $-1 $244 $246 $168 $256 reversed $161 $-1 #
edge $-1 $259 -30.012081378840989 $262 30.012081378840989 $255 $349 forward 7 unknown #
coedge $-1 $250 $169 $174 $265 forward $242 $-1 #
coedge $-1 $169 $250 $244 $340 reversed $242 $-1 #
vertex $-1 $170 $350 #
straight-curve $-1 0 30.012081378840989 9.8732026497151537 -1 0 0 I I #
coedge $-1 $171 $245 $173 $264 reversed $101 $-1 #
vertex $-1 $256 $351 #
straight-curve $-1 0 -30.012081378840989 9.8732026497151537 1 0 0 I I #
edge $-1 $176 -9.8732026497151537 $253 9.8732026497151537 $173 $352 forward 7 unknown #
edge $-1 $177 -9.8732026497151537 $252 9.8732026497151537 $174 $353 forward 7 unknown #
point $-1 43.375347148045293 -30.012081378840989 9.8732026497151537 #
point $-1 43.375347148045293 30.012081378840989 9.8732026497151537 #
face $-1 $-1 $191 $25 $-1 $354 reversed single #
loop $-1 $-1 $355 $179 #
plane-surface $-1 0 0 9.8732026497151537 0 0 1 1 0 0 forward_v I I I I #
coedge $-1 $356 $182 $186 $278 forward $109 $-1 #
coedge $-1 $182 $356 $357 $358 reversed $109 $-1 #
edge $-1 $359 -5.9338800647451073 $276 -1.9447651051949846 $182 $360 forward 7 unknown #
coedge $-1 $184 $183 $355 $361 reversed $69 $-1 #
edge $-1 $193 1.9447651051949846 $362 5.9338800647451073 $189 $363 forward 7 unknown #
vertex $-1 $278 $364 #
straight-curve $-1 0 -19.882929351435656 5.884087690165031 1 0 0 I I #
edge $-1 $276 7.4091766688664951 $281 17.538328696271826 $271 $365 forward 7 unknown #
coedge $-1 $366 $187 $190 $284 reversed $180 $-1 #
coedge $-1 $187 $366 $356 $367 forward $180 $-1 #
vertex $-1 $188 $368 #
straight-curve $-1 0 -30.012081378840989 5.884087690165031 1 0 0 I I #
coedge $-1 $190 $189 $369 $370 reversed $191 $-1 #
edge $-1 $371 -9.8732026497151537 $192 -5.884087690165031 $190 $372 forward 7 unknown #
point $-1 43.375347148045293 -30.012081378840989 5.884087690165031 #
point $-1 43.375347148045293 -19.882929351435656 5.884087690165031 #
loop $-1 $-1 $203 $195 #
plane-surface $-1 0 -19.882929351435656 7.8786451699400928 0 -1 0 0 0 -1 forward_v I I I I #
coedge $-1 $294 $373 $199 $290 forward $196 $-1 #
edge $-1 $292 21.925701881358691 $300 30.604321899458888 $289 $374 forward 7 unknown #
coedge $-1 $206 $200 $373 $375 forward $117 $-1 #
vertex $-1 $375 $376 #
straight-curve $-1 -51.818721895950581 -8.4925761791397392 9.8732026497151537 -1 0 0 I I #
coedge $-1 $377 $289 $202 $295 forward $196 $-1 #
edge $-1 $300 1.3986997964958903 $298 12.789052968791808 $294 $378 forward 7 unknown #
coedge $-1 $297 $203 $206 $302 reversed $287 $-1 #
coedge $-1 $203 $296 $377 $379 reversed $287 $-1 #
vertex $-1 $379 $380 #
straight-curve $-1 -30.483068462404624 -19.882929351435656 13.644511722676677 0.71933979245794832 0 0.69465837861970381 I I #
vertex $-1 $295 $381 #
straight-curve $-1 -43.375347148045286 -8.4925761791397392 1.1945826316149635 0.71933979245794832 0 0.69465837861970381 I I #
edge $-1 $382 -43.375347148045293 $207 -34.388373241466525 $206 $383 forward 7 unknown #
point $-1 -34.388373241466525 -19.882929351435656 9.8732026497151537 #
point $-1 -34.388373241466525 -8.4925761791397392 9.8732026497151537 #
edge $-1 $384 1 $384 0 $210 $-1 forward 7 unknown #
vertex $-1 $211 $385 #
ellipse-curve $-1 -37.698490238233724 -16.628542730779682 4.3084772060782379 -0.69465837861970381 0 0.71933979245794832 1.0790096886869225 0 1.0419875679295556 1 I I #
point $-1 -37.802850506068992 -16.628542730779682 6.5758802085946177 #
edge $-1 $386 1 $386 0 $214 $-1 forward 7 unknown #
vertex $-1 $215 $387 #
ellipse-curve $-1 -37.698490238233724 -11.746962799795718 4.3084772060782379 -0.69465837861970381 0 0.71933979245794832 1.0790096886869225 0 1.0419875679295556 1 I I #
point $-1 -37.802850506068992 -11.746962799795718 6.5758802085946177 #
loop $-1 $-1 $226 $218 #
plane-surface $-1 43.375347148045293 0 0 -1 0 0 0 0 1 forward_v I I I I #
coedge $-1 $316 $221 $388 $389 reversed $139 $-1 #
coedge $-1 $221 $315 $319 $390 reversed $139 $-1 #
edge $-1 $391 -86.750694296090586 $320 -74.257330240877224 $221 $392 forward 7 unknown #
coedge $-1 $223 $222 $323 $393 reversed $87 $-1 #
coedge $-1 $229 $224 $316 $390 forward $219 $-1 #
vertex $-1 $390 $394 #
straight-curve $-1 34.388373241466525 -7.0938763826438489 9.8732026497151537 0 -1 0 I I #
coedge $-1 $388 $226 $229 $327 reversed $313 $-1 #
coedge $-1 $226 $388 $318 $393 forward $313 $-1 #
vertex $-1 $227 $395 #
straight-curve $-1 43.375347148045293 -8.4925761791397392 61.92995285300178 0 0 1 I I #
straight-curve $-1 -19.02787928248744 -8.4925761791397392 61.456679275470833 0.71933979245794832 0 -0.69465837861970381 I I #
edge $-1 $396 -19.882929351435656 $230 -8.4925761791397392 $322 $397 forward 7 unknown #
point $-1 43.375347148045293 -8.4925761791397392 9.8732026497151537 #
point $-1 34.388373241466525 -8.4925761791397392 9.8732026497151537 #
edge $-1 $398 1 $398 0 $233 $-1 forward 7 unknown #
vertex $-1 $234 $399 #
ellipse-curve $-1 37.698490238233724 -16.628542730779682 4.3084772060782432 0.69465837861970381 0 0.71933979245794832 1.0790096886869225 0 -1.0419875679295556 1 I I #
point $-1 39.96086988344284 -16.628542730779682 4.4919050727355119 #
edge $-1 $400 1 $400 0 $237 $-1 forward 7 unknown #
vertex $-1 $238 $401 #
ellipse-curve $-1 37.698490238233724 -11.746962799795718 4.3084772060782432 0.69465837861970381 0 0.71933979245794832 1.0790096886869225 0 -1.0419875679295556 1 I I #
point $-1 39.96086988344284 -11.746962799795718 4.4919050727355119 #
plane-surface $-1 43.375347148045293 0 0 -1 0 0 0 0 1 forward_v I I I I #
coedge $-1 $246 $244 $248 $343 reversed $161 $-1 #
edge $-1 $259 -9.8732026497151537 $345 9.8732026497151537 $258 $402 forward 7 unknown #
vertex $-1 $343 $403 #
straight-curve $-1 -43.375347148045293 -30.012081378840989 0 0 0 -1 I I #
edge $-1 $341 -30.012081378840989 $345 30.012081378840989 $339 $404 forward 7 unknown #
straight-curve $-1 0 -30.012081378840989 -9.8732026497151537 -1 0 0 I I #
vertex $-1 $251 $405 #
straight-curve $-1 0 30.012081378840989 -9.8732026497151537 1 0 0 I I #
point $-1 43.375347148045293 30.012081378840989 -9.8732026497151537 #
point $-1 43.375347148045293 -30.012081378840989 -9.8732026497151537 #
straight-curve $-1 -43.375347148045293 0 9.8732026497151537 0 -1 0 I I #
point $-1 -43.375347148045293 30.012081378840989 9.8732026497151537 #
point $-1 -43.375347148045293 -30.012081378840989 9.8732026497151537 #
straight-curve $-1 43.375347148045293 -30.012081378840989 0 0 0 -1 I I #
straight-curve $-1 43.375347148045293 30.012081378840989 0 0 0 -1 I I #
plane-surface $-1 43.375347148045293 0 0 -1 0 0 0 0 1 forward_v I I I I #
coedge $-1 $357 $369 $274 $361 forward $269 $-1 #
coedge $-1 $272 $271 $280 $367 reversed $109 $-1 #
coedge $-1 $406 $355 $272 $358 forward $269 $-1 #
edge $-1 $359 19.882929351435656 $407 30.012081378840989 $272 $408 forward 7 unknown #
vertex $-1 $358 $409 #
straight-curve $-1 -43.375347148045293 -19.882929351435656 3.9393225849700464 0 0 -1 I I #
edge $-1 $362 -43.375347148045293 $359 43.375347148045293 $355 $410 forward 7 unknown #
vertex $-1 $275 $411 #
straight-curve $-1 43.375347148045293 -19.882929351435656 3.9393225849700464 0 0 1 I I #
point $-1 -43.375347148045293 -19.882929351435656 5.884087690165031 #
straight-curve $-1 -43.375347148045293 -12.473752682569161 5.884087690165031 0 -1 0 I I #
coedge $-1 $280 $279 $406 $412 reversed $180 $-1 #
edge $-1 $407 -9.8732026497151537 $281 -5.884087690165031 $356 $413 forward 7 unknown #
point $-1 -43.375347148045293 -30.012081378840989 5.884087690165031 #
coedge $-1 $355 $406 $283 $370 forward $269 $-1 #
edge $-1 $371 -30.012081378840989 $362 -19.882929351435656 $283 $414 forward 7 unknown #
vertex $-1 $370 $415 #
straight-curve $-1 43.375347148045293 -30.012081378840989 0 0 0 -1 I I #
coedge $-1 $289 $377 $291 $375 reversed $196 $-1 #
straight-curve $-1 -43.375347148045293 -8.4925761791397392 31.798904531073845 0 0 -1 I I #
edge $-1 $292 8.4925761791397392 $382 19.882929351435656 $373 $416 forward 7 unknown #
point $-1 -43.375347148045293 -8.4925761791397392 9.8732026497151537 #
coedge $-1 $373 $294 $297 $379 forward $196 $-1 #
straight-curve $-1 -43.375347148045293 -7.0938763826438489 1.194582631614957 0 -1 0 I I #
edge $-1 $298 -30.604321899458888 $382 -21.925701881358691 $377 $417 forward 7 unknown #
point $-1 -43.375347148045293 -19.882929351435656 1.1945826316149566 #
point $-1 -43.375347148045293 -8.4925761791397392 1.1945826316149566 #
vertex $-1 $379 $418 #
straight-curve $-1 0 -19.882929351435656 9.8732026497151537 1 0 0 I I #
vertex $-1 $305 $419 #
point $-1 -36.6194805495468 -16.628542730779682 5.3504647740077935 #
vertex $-1 $309 $420 #
point $-1 -36.6194805495468 -11.746962799795718 5.3504647740077935 #
coedge $-1 $323 $322 $315 $389 forward $313 $-1 #
edge $-1 $396 52.056750203286626 $391 60.73537022138683 $388 $421 forward 7 unknown #
edge $-1 $320 34.388373241466518 $396 43.375347148045293 $319 $422 forward 7 unknown #
vertex $-1 $389 $423 #
straight-curve $-1 -19.02787928248744 -19.882929351435656 61.456679275470833 -0.71933979245794832 0 0.69465837861970381 I I #
edge $-1 $391 -12.789052968791808 $324 -1.3986997964958903 $323 $424 forward 7 unknown #
point $-1 34.388373241466518 -19.882929351435656 9.8732026497151537 #
point $-1 43.375347148045293 -8.4925761791397392 1.1945826316149493 #
vertex $-1 $327 $425 #
straight-curve $-1 43.375347148045293 0 9.8732026497151537 0 1 0 I I #
vertex $-1 $330 $426 #
point $-1 38.777499926920648 -16.628542730779682 3.2664896381486881 #
vertex $-1 $334 $427 #
point $-1 38.777499926920648 -11.746962799795718 3.2664896381486881 #
straight-curve $-1 -43.375347148045293 30.012081378840989 0 0 0 -1 I I #
point $-1 -43.375347148045293 -30.012081378840989 -9.8732026497151537 #
straight-curve $-1 -43.375347148045293 0 -9.8732026497151537 0 1 0 I I #
point $-1 -43.375347148045293 30.012081378840989 -9.8732026497151537 #
coedge $-1 $369 $357 $366 $412 forward $269 $-1 #
vertex $-1 $358 $428 #
straight-curve $-1 -43.375347148045293 0 9.8732026497151537 0 -1 0 I I #
point $-1 -43.375347148045293 -19.882929351435656 9.8732026497151537 #
straight-curve $-1 0 -19.882929351435656 9.8732026497151537 -1 0 0 I I #
point $-1 43.375347148045293 -19.882929351435656 9.8732026497151537 #
edge $-1 $407 -43.375347148045293 $371 43.375347148045293 $366 $429 forward 7 unknown #
straight-curve $-1 -43.375347148045293 -30.012081378840989 0 0 0 -1 I I #
straight-curve $-1 43.375347148045293 0 9.8732026497151537 0 1 0 I I #
point $-1 43.375347148045293 -30.012081378840989 9.8732026497151537 #
straight-curve $-1 -43.375347148045293 0 9.8732026497151537 0 -1 0 I I #
straight-curve $-1 -43.375347148045293 -19.882929351435656 31.798904531073845 0 0 1 I I #
point $-1 -43.375347148045293 -19.882929351435656 9.8732026497151537 #
point $-1 -36.656502670304171 -16.628542730779682 3.2294675173913157 #
point $-1 -36.656502670304171 -11.746962799795718 3.2294675173913157 #
straight-curve $-1 43.375347148045293 -19.882929351435656 61.92995285300178 0 0 -1 I I #
straight-curve $-1 0 -19.882929351435656 9.8732026497151537 1 0 0 I I #
point $-1 43.375347148045293 -19.882929351435656 1.1945826316149493 #
straight-curve $-1 43.375347148045286 -7.0938763826438489 1.1945826316149564 0 1 0 I I #
point $-1 43.375347148045293 -19.882929351435656 9.8732026497151537 #
point $-1 36.656502670304171 -16.628542730779682 3.229467517391321 #
point $-1 36.656502670304171 -11.746962799795718 3.229467517391321 #
point $-1 -43.375347148045293 -30.012081378840989 9.8732026497151537 #
straight-curve $-1 0 -30.012081378840989 9.8732026497151537 1 0 0 I I #
End-of-ACIS-data 