500 0 7 0           
7 Unknown 11 ACIS 5.0 NT 24 Fri Mar 26 15:15:38 1999 
-1 9.9999999999999995e-007 1e-010 
body $-1 $7 $-1 $8 #
body $-1 $9 $-1 $10 #
body $-1 $11 $-1 $12 #
body $-1 $13 $-1 $14 #
body $-1 $15 $-1 $16 #
body $-1 $17 $-1 $18 #
body $-1 $19 $-1 $20 #
lump $-1 $-1 $21 $0 #
transform $-1 1 0 0 0 1 0 0 0 1 69.685964537491998 28.455616141486761 5.9623317283427122 1 rotate no_reflect no_shear #
lump $-1 $-1 $22 $1 #
transform $-1 1 0 0 0 1 0 0 0 1 69.685964537491998 28.455616141486761 5.9623317283427122 1 rotate no_reflect no_shear #
lump $-1 $-1 $23 $2 #
transform $-1 1 0 0 0 1 0 0 0 1 69.685964537491998 28.455616141486761 5.9623317283427122 1 rotate no_reflect no_shear #
lump $-1 $-1 $24 $3 #
transform $-1 1 0 0 0 1 0 0 0 1 69.685964537491998 28.455616141486761 5.9623317283427122 1 rotate no_reflect no_shear #
lump $-1 $-1 $25 $4 #
transform $-1 1 0 0 0 1 0 0 0 1 69.685964537491998 28.455616141486761 5.9623317283427122 1 rotate no_reflect no_shear #
lump $-1 $-1 $26 $5 #
transform $-1 1 0 0 0 1 0 0 0 1 69.685964537491998 28.455616141486761 5.9623317283427122 1 rotate no_reflect no_shear #
lump $-1 $-1 $27 $6 #
transform $-1 1 0 0 0 1 0 0 0 1 69.685964537491998 28.455616141486761 5.9623317283427122 1 rotate no_reflect no_shear #
shell $-1 $-1 $-1 $28 $-1 $7 #
shell $-1 $-1 $-1 $29 $-1 $9 #
shell $-1 $-1 $-1 $30 $-1 $11 #
shell $-1 $-1 $-1 $31 $-1 $13 #
shell $-1 $-1 $-1 $32 $-1 $15 #
shell $-1 $-1 $-1 $33 $-1 $17 #
shell $-1 $-1 $-1 $34 $-1 $19 #
face $-1 $35 $36 $21 $-1 $37 forward single #
face $-1 $38 $39 $22 $-1 $40 reversed single #
face $-1 $41 $42 $23 $-1 $43 reversed single #
face $-1 $44 $45 $24 $-1 $46 forward single #
face $-1 $47 $48 $25 $-1 $49 forward single #
face $-1 $50 $51 $26 $-1 $52 reversed single #
face $-1 $53 $54 $27 $-1 $55 forward single #
face $-1 $56 $57 $21 $-1 $58 reversed single #
loop $-1 $-1 $59 $28 #
plane-surface $-1 0 0 5.9623317283427122 0 0 1 1 0 0 forward_v I I I I #
face $-1 $60 $61 $22 $-1 $62 reversed single #
loop $-1 $-1 $63 $29 #
plane-surface $-1 0 -25.847702396960095 2.9623317283427122 0 0 1 1 0 0 forward_v I I I I #
face $-1 $64 $65 $23 $-1 $66 reversed single #
loop $-1 $-1 $67 $30 #
plane-surface $-1 -157.39556253347064 17.292864470397248 108.85458582076039 0 1 0 -0.62932039886446345 0 0.77714595512881146 forward_v I I I I #
face $-1 $68 $69 $24 $-1 $70 forward single #
loop $-1 $71 $72 $31 #
cone-surface $-1 -66.000361365383952 20.482222090708536 2.8336823211334297 0.62932039886446345 0 -0.77714595512881146 0.38857297756440573 0 0.31466019943223172 1 I I 0 1 0.5 forward I I I I #
face $-1 $73 $74 $25 $-1 $75 forward single #
loop $-1 $76 $77 $32 #
cone-surface $-1 -66.000361365383952 25.26625852117547 2.8336823211334297 0.62932039886446345 0 -0.77714595512881146 0.38857297756440573 0 0.31466019943223172 1 I I 0 1 0.5 forward I I I I #
face $-1 $78 $79 $26 $-1 $80 reversed single #
loop $-1 $-1 $81 $33 #
plane-surface $-1 42.254715459450438 -1.7409422456658739 195.37940233908782 0 -1 0 -0.6018150307709319 0 -0.79863550430605224 forward_v I I I I #
face $-1 $82 $83 $27 $-1 $84 forward single #
loop $-1 $85 $86 $34 #
cone-surface $-1 64.88067800176033 -5.888929745572014 1.779762899530096 -0.6018150307709319 0 -0.79863550430605224 1.5972710086121045 0 -1.2036300615418638 1 I I 0 1 2 forward I I I I #
face $-1 $87 $88 $21 $-1 $89 reversed single #
loop $-1 $-1 $90 $35 #
plane-surface $-1 0 0 -5.9623317283427122 0 0 1 1 0 0 forward_v I I I I #
coedge $-1 $91 $92 $93 $94 forward $36 $-1 #
face $-1 $95 $96 $22 $-1 $97 reversed single #
loop $-1 $-1 $98 $38 #
plane-surface $-1 0 -23.239788652433429 4.4623317283427122 0 -1 0 0 0 -1 forward_v I I I I #
coedge $-1 $99 $100 $101 $102 reversed $39 $-1 #
face $-1 $103 $104 $23 $-1 $105 forward single #
loop $-1 $-1 $106 $41 #
plane-surface $-1 -69.685964537491998 22.874240305942006 0.54225488163699254 -0.62932039886446345 0 0.77714595512881146 0.77714595512881146 0 0.62932039886446345 forward_v I I I I #
coedge $-1 $107 $108 $109 $110 reversed $42 $-1 #
face $-1 $-1 $111 $24 $-1 $112 forward single #
loop $-1 $113 $114 $44 #
cone-surface $-1 -65.504046767851193 20.482222090708536 2.2207848484948007 0.62932039886446345 0 -0.77714595512881146 0.19428648878220287 0 0.15733009971611586 1 I I -0.70710678118654746 0.70710678118654746 0.25 forward I I I I #
loop $-1 $-1 $115 $31 #
coedge $-1 $72 $72 $116 $117 reversed $45 $-1 #
face $-1 $-1 $118 $25 $-1 $119 forward single #
loop $-1 $120 $121 $47 #
cone-surface $-1 -65.504046767851193 25.26625852117547 2.2207848484948007 0.62932039886446345 0 -0.77714595512881146 0.19428648878220287 0 0.15733009971611586 1 I I -0.70710678118654746 0.70710678118654746 0.25 forward I I I I #
loop $-1 $-1 $122 $32 #
coedge $-1 $77 $77 $123 $124 reversed $48 $-1 #
face $-1 $125 $126 $26 $-1 $127 reversed single #
loop $-1 $-1 $128 $50 #
plane-surface $-1 -41.621406325415194 -5.888929745572014 84.072031476180626 0.6018150307709319 0 0.79863550430605224 0.79863550430605224 0 -0.6018150307709319 forward_v I I I I #
coedge $-1 $129 $130 $131 $132 reversed $51 $-1 #
face $-1 $-1 $133 $27 $-1 $134 forward single #
loop $-1 $135 $136 $53 #
cone-surface $-1 63.29972661107152 -5.888929745572014 -0.31823041507473082 -0.6018150307709319 0 -0.79863550430605224 0.79863550430605224 0 -0.6018150307709319 1 I I -0.70710678118654746 0.70710678118654746 1 forward I I I I #
loop $-1 $-1 $137 $34 #
coedge $-1 $86 $86 $138 $139 reversed $54 $-1 #
face $-1 $140 $141 $21 $-1 $142 reversed single #
loop $-1 $-1 $143 $56 #
plane-surface $-1 0 -28.455616141486761 0 0 1 0 0 0 1 forward_v I I I I #
coedge $-1 $144 $145 $146 $147 forward $57 $-1 #
coedge $-1 $148 $59 $149 $150 forward $36 $-1 #
coedge $-1 $59 $148 $151 $152 forward $36 $-1 #
coedge $-1 $153 $154 $59 $94 reversed $155 $-1 #
edge $-1 $156 -28.455616141486761 $157 28.455616141486761 $93 $158 forward 7 unknown #
face $-1 $159 $160 $22 $-1 $161 reversed single #
loop $-1 $-1 $162 $60 #
plane-surface $-1 -69.685964537491998 0 0 1 0 0 0 0 -1 forward_v I I I I #
coedge $-1 $163 $164 $165 $166 reversed $61 $-1 #
coedge $-1 $167 $63 $168 $169 reversed $39 $-1 #
coedge $-1 $63 $167 $163 $170 forward $39 $-1 #
coedge $-1 $165 $171 $63 $102 forward $172 $-1 #
edge $-1 $173 -15.531764943006714 $174 -10.315937453953381 $101 $175 forward 7 unknown #
face $-1 $176 $177 $23 $-1 $178 reversed single #
loop $-1 $-1 $109 $64 #
plane-surface $-1 0 0 5.9623317283427122 0 0 1 1 0 0 forward_v I I I I #
coedge $-1 $179 $180 $181 $182 reversed $65 $-1 #
coedge $-1 $108 $67 $183 $184 reversed $42 $-1 #
coedge $-1 $67 $107 $179 $185 reversed $42 $-1 #
coedge $-1 $181 $186 $67 $110 forward $104 $-1 #
edge $-1 $187 9.0118167292433213 $188 15.705054077826155 $109 $189 forward 7 unknown #
loop $-1 $-1 $116 $68 #
plane-surface $-1 -69.685964537491998 22.874240305942006 0.54225488163699254 -0.62932039886446345 0 0.77714595512881146 0.77714595512881146 0 0.62932039886446345 forward_v I I I I #
loop $-1 $-1 $190 $44 #
coedge $-1 $114 $114 $115 $191 reversed $69 $-1 #
coedge $-1 $115 $115 $114 $191 forward $71 $-1 #
coedge $-1 $116 $116 $72 $117 forward $111 $-1 #
edge $-1 $192 0 $192 6.2831853071796004 $116 $193 forward 7 unknown #
loop $-1 $-1 $123 $73 #
plane-surface $-1 -69.685964537491998 22.874240305942006 0.54225488163699254 -0.62932039886446345 0 0.77714595512881146 0.77714595512881146 0 0.62932039886446345 forward_v I I I I #
loop $-1 $-1 $194 $47 #
coedge $-1 $121 $121 $122 $195 reversed $74 $-1 #
coedge $-1 $122 $122 $121 $195 forward $76 $-1 #
coedge $-1 $123 $123 $77 $124 forward $118 $-1 #
edge $-1 $196 0 $196 6.2831853071796004 $123 $197 forward 7 unknown #
face $-1 $198 $199 $26 $-1 $200 reversed single #
loop $-1 $-1 $201 $78 #
plane-surface $-1 42.254715459450438 -10.036917245478154 195.37940233908782 0 1 0 0.6018150307709319 0 0.79863550430605224 forward_v I I I I #
coedge $-1 $202 $203 $204 $205 reversed $79 $-1 #
coedge $-1 $130 $81 $206 $207 reversed $51 $-1 #
coedge $-1 $81 $129 $202 $208 reversed $51 $-1 #
coedge $-1 $204 $209 $81 $132 forward $210 $-1 #
edge $-1 $211 -48.558606807766779 $212 -40.906306456139191 $131 $213 forward 7 unknown #
loop $-1 $-1 $138 $82 #
plane-surface $-1 -41.621406325415194 -5.888929745572014 84.072031476180626 0.6018150307709319 0 0.79863550430605224 0.79863550430605224 0 -0.6018150307709319 forward_v I I I I #
loop $-1 $-1 $214 $53 #
coedge $-1 $136 $136 $137 $215 reversed $83 $-1 #
coedge $-1 $137 $137 $136 $215 forward $85 $-1 #
coedge $-1 $138 $138 $86 $139 forward $133 $-1 #
edge $-1 $216 0 $216 6.2831853071796004 $138 $217 forward 7 unknown #
face $-1 $218 $219 $21 $-1 $220 reversed single #
loop $-1 $-1 $221 $87 #
plane-surface $-1 -69.685964537491998 0 0 1 0 0 0 0 -1 forward_v I I I I #
coedge $-1 $222 $151 $223 $224 forward $88 $-1 #
coedge $-1 $225 $90 $222 $226 forward $57 $-1 #
coedge $-1 $90 $225 $227 $228 forward $57 $-1 #
coedge $-1 $154 $153 $90 $147 reversed $155 $-1 #
edge $-1 $229 -28.455616141486761 $230 28.455616141486761 $146 $231 forward 7 unknown #
coedge $-1 $92 $91 $232 $233 forward $36 $-1 #
coedge $-1 $234 $235 $91 $150 reversed $219 $-1 #
edge $-1 $157 -69.685964537491998 $236 69.685964537491998 $149 $237 forward 7 unknown #
coedge $-1 $143 $238 $92 $152 reversed $88 $-1 #
edge $-1 $239 -69.685964537491998 $156 69.685964537491998 $151 $240 forward 7 unknown #
coedge $-1 $146 $93 $238 $241 forward $155 $-1 #
coedge $-1 $93 $146 $234 $242 reversed $155 $-1 #
loop $-1 $-1 $153 $218 #
vertex $-1 $94 $243 #
vertex $-1 $94 $244 #
straight-curve $-1 69.685964537491998 0 5.9623317283427122 0 1 0 I I #
face $-1 $245 $246 $22 $-1 $247 forward single #
loop $-1 $-1 $168 $95 #
plane-surface $-1 0 -28.455616141486761 0 0 1 0 0 0 1 forward_v I I I I #
coedge $-1 $248 $249 $250 $251 forward $96 $-1 #
coedge $-1 $250 $98 $100 $170 reversed $61 $-1 #
coedge $-1 $98 $250 $252 $253 reversed $61 $-1 #
coedge $-1 $254 $101 $98 $166 forward $172 $-1 #
edge $-1 $174 0.73116586417135609 $255 3.7311658641713561 $165 $256 forward 7 unknown #
coedge $-1 $100 $99 $248 $257 reversed $39 $-1 #
coedge $-1 $258 $259 $99 $169 forward $160 $-1 #
edge $-1 $260 -69.685964537491998 $173 69.685964537491998 $168 $261 forward 7 unknown #
edge $-1 $262 -69.685964537491998 $174 69.685964537491998 $163 $263 forward 7 unknown #
coedge $-1 $101 $254 $258 $264 forward $172 $-1 #
loop $-1 $-1 $165 $245 #
vertex $-1 $169 $265 #
vertex $-1 $102 $266 #
straight-curve $-1 69.685964537491998 -12.923851198480047 2.9623317283427122 0 1 0 I I #
face $-1 $-1 $267 $23 $-1 $268 reversed single #
loop $-1 $-1 $269 $103 #
plane-surface $-1 0 28.455616141486761 0 0 -1 0 0 0 -1 forward_v I I I I #
coedge $-1 $270 $106 $108 $185 forward $65 $-1 #
coedge $-1 $106 $270 $269 $271 reversed $65 $-1 #
coedge $-1 $272 $109 $106 $182 forward $104 $-1 #
edge $-1 $188 5.8557443174262449 $273 17.01849598851576 $181 $274 forward 7 unknown #
coedge $-1 $275 $276 $107 $184 forward $267 $-1 #
edge $-1 $277 -53.885038028743203 $187 -48.464961182037484 $183 $278 forward 7 unknown #
edge $-1 $188 -8.6125872552131266 $277 0 $108 $279 forward 7 unknown #
coedge $-1 $109 $272 $275 $280 forward $104 $-1 #
vertex $-1 $184 $281 #
vertex $-1 $110 $282 #
straight-curve $-1 -78.697781266735319 17.292864470397248 5.9623317283427113 1 0 0 I I #
coedge $-1 $190 $190 $-1 $283 reversed $113 $-1 #
edge $-1 $284 0 $284 6.2831853071796004 $114 $285 forward 7 unknown #
vertex $-1 $117 $286 #
ellipse-curve $-1 -66.339345863200592 20.482222090708536 3.2522933049898493 -0.62932039886446345 0 0.77714595512881146 0.38857297756440573 0 0.31466019943223172 1 I I #
coedge $-1 $194 $194 $-1 $287 reversed $120 $-1 #
edge $-1 $288 0 $288 6.2831853071796004 $121 $289 forward 7 unknown #
vertex $-1 $124 $290 #
ellipse-curve $-1 -66.339345863200592 25.26625852117547 3.2522933049898493 -0.62932039886446345 0 0.77714595512881146 0.38857297756440573 0 0.31466019943223172 1 I I #
face $-1 $-1 $210 $26 $-1 $291 forward single #
loop $-1 $-1 $292 $125 #
plane-surface $-1 69.685964537491998 0 0 -1 0 0 0 0 1 forward_v I I I I #
coedge $-1 $293 $294 $295 $296 reversed $126 $-1 #
coedge $-1 $297 $128 $130 $208 forward $79 $-1 #
coedge $-1 $128 $297 $293 $298 forward $79 $-1 #
coedge $-1 $295 $131 $128 $205 forward $210 $-1 #
edge $-1 $212 -1.2035226271201331 $299 7.0924523726921471 $204 $300 forward 7 unknown #
coedge $-1 $301 $302 $129 $207 forward $199 $-1 #
edge $-1 $303 -97.493791478228914 $211 -91.727369441201191 $206 $304 forward 7 unknown #
edge $-1 $212 129.7902108689085 $303 139.37192907498402 $130 $305 forward 7 unknown #
coedge $-1 $131 $295 $301 $306 forward $210 $-1 #
loop $-1 $-1 $295 $198 #
vertex $-1 $207 $307 #
vertex $-1 $132 $308 #
straight-curve $-1 21.127357729725219 -1.7409422456658739 5.9623317283427184 -1 0 0 I I #
coedge $-1 $214 $214 $-1 $309 reversed $135 $-1 #
edge $-1 $310 0 $310 6.2831853071796004 $136 $311 forward 7 unknown #
vertex $-1 $139 $312 #
ellipse-curve $-1 65.859814361678204 -5.888929745572014 3.0791207098288567 0.6018150307709319 0 0.79863550430605224 1.5972710086121045 0 -1.2036300615418638 1 I I #
face $-1 $-1 $155 $21 $-1 $313 reversed single #
loop $-1 $-1 $234 $140 #
plane-surface $-1 0 28.455616141486761 0 0 -1 0 0 0 -1 forward_v I I I I #
coedge $-1 $314 $232 $235 $315 forward $141 $-1 #
coedge $-1 $238 $143 $144 $226 reversed $88 $-1 #
coedge $-1 $232 $314 $143 $224 reversed $141 $-1 #
edge $-1 $239 -5.9623317283427122 $316 5.9623317283427122 $223 $317 forward 7 unknown #
coedge $-1 $145 $144 $314 $318 forward $57 $-1 #
edge $-1 $230 -69.685964537491998 $316 69.685964537491998 $222 $319 forward 7 unknown #
coedge $-1 $235 $234 $145 $228 reversed $219 $-1 #
edge $-1 $320 -69.685964537491998 $229 69.685964537491998 $227 $321 forward 7 unknown #
vertex $-1 $147 $322 #
vertex $-1 $241 $323 #
straight-curve $-1 69.685964537491998 0 -5.9623317283427122 0 -1 0 I I #
coedge $-1 $221 $223 $148 $233 reversed $141 $-1 #
edge $-1 $236 -28.455616141486761 $239 28.455616141486761 $232 $324 forward 7 unknown #
coedge $-1 $227 $149 $154 $242 forward $219 $-1 #
coedge $-1 $149 $227 $221 $315 reversed $219 $-1 #
vertex $-1 $150 $325 #
straight-curve $-1 0 28.455616141486761 5.9623317283427122 -1 0 0 I I #
coedge $-1 $151 $222 $153 $241 reversed $88 $-1 #
vertex $-1 $233 $326 #
straight-curve $-1 0 -28.455616141486761 5.9623317283427122 1 0 0 I I #
edge $-1 $156 -5.9623317283427122 $230 5.9623317283427122 $153 $327 forward 7 unknown #
edge $-1 $157 -5.9623317283427122 $229 5.9623317283427122 $154 $328 forward 7 unknown #
point $-1 69.685964537491998 -28.455616141486761 5.9623317283427122 #
point $-1 69.685964537491998 28.455616141486761 5.9623317283427122 #
face $-1 $-1 $172 $22 $-1 $329 reversed single #
loop $-1 $-1 $252 $159 #
plane-surface $-1 0 0 5.9623317283427122 0 0 1 1 0 0 forward_v I I I I #
coedge $-1 $330 $162 $167 $257 forward $96 $-1 #
coedge $-1 $162 $330 $331 $332 reversed $96 $-1 #
coedge $-1 $164 $163 $162 $251 reversed $61 $-1 #
edge $-1 $333 -3.7311658641713561 $262 -0.73116586417135609 $162 $334 forward 7 unknown #
coedge $-1 $331 $335 $164 $253 forward $246 $-1 #
edge $-1 $255 -69.685964537491998 $333 69.685964537491998 $252 $336 forward 7 unknown #
coedge $-1 $171 $165 $335 $337 reversed $172 $-1 #
vertex $-1 $166 $338 #
straight-curve $-1 69.685964537491998 -23.239788652433429 2.2311658641713561 0 0 1 I I #
edge $-1 $262 10.315937453953381 $260 15.531764943006714 $248 $339 forward 7 unknown #
coedge $-1 $340 $168 $171 $264 reversed $160 $-1 #
coedge $-1 $168 $340 $330 $341 forward $160 $-1 #
vertex $-1 $169 $342 #
straight-curve $-1 0 -28.455616141486761 2.9623317283427122 1 0 0 I I #
vertex $-1 $257 $343 #
straight-curve $-1 0 -23.239788652433429 2.9623317283427122 1 0 0 I I #
edge $-1 $344 -5.9623317283427122 $173 -2.9623317283427122 $171 $345 forward 7 unknown #
point $-1 69.685964537491998 -28.455616141486761 2.9623317283427122 #
point $-1 69.685964537491998 -23.239788652433429 2.9623317283427122 #
loop $-1 $-1 $183 $176 #
plane-surface $-1 -69.685964537491998 0 0 1 0 0 0 0 -1 forward_v I I I I #
coedge $-1 $346 $347 $180 $271 forward $177 $-1 #
coedge $-1 $180 $179 $276 $348 reversed $65 $-1 #
edge $-1 $273 18.294869450368733 $349 26.907456705581858 $269 $350 forward 7 unknown #
coedge $-1 $186 $181 $347 $351 forward $104 $-1 #
vertex $-1 $351 $352 #
straight-curve $-1 -62.992727188909171 11.437120152971003 5.9623317283427113 0 1 0 I I #
coedge $-1 $353 $183 $186 $280 reversed $267 $-1 #
coedge $-1 $183 $353 $270 $348 forward $267 $-1 #
vertex $-1 $184 $354 #
straight-curve $-1 -69.685964537491998 17.292864470397248 54.427292910380196 0 0 1 I I #
straight-curve $-1 -69.685964537491998 17.292864470397248 0.54225488163699254 -0.77714595512881146 0 -0.62932039886446345 I I #
edge $-1 $355 -28.455616141486761 $187 -17.292864470397248 $275 $356 forward 7 unknown #
point $-1 -69.685964537491998 17.292864470397248 5.9623317283427122 #
point $-1 -62.992727188909164 17.292864470397248 5.9623317283427122 #
edge $-1 $357 1 $357 0 $190 $-1 forward 7 unknown #
vertex $-1 $191 $358 #
ellipse-curve $-1 -65.661376867567313 20.482222090708536 2.4150713372770034 -0.62932039886446345 0 0.77714595512881146 0.38857297756440573 0 0.31466019943223172 1 I I #
point $-1 -65.950772885636184 20.482222090708536 3.5669535044220879 #
edge $-1 $359 1 $359 0 $194 $-1 forward 7 unknown #
vertex $-1 $195 $360 #
ellipse-curve $-1 -65.661376867567313 25.26625852117547 2.4150713372770034 -0.62932039886446345 0 0.77714595512881146 0.38857297756440573 0 0.31466019943223172 1 I I #
point $-1 -65.950772885636184 25.26625852117547 3.5669535044220879 #
plane-surface $-1 0 0 5.9623317283427122 0 0 1 1 0 0 forward_v I I I I #
coedge $-1 $302 $301 $294 $361 forward $199 $-1 #
coedge $-1 $294 $201 $203 $298 reversed $126 $-1 #
coedge $-1 $201 $293 $292 $361 reversed $126 $-1 #
coedge $-1 $209 $204 $201 $296 forward $210 $-1 #
edge $-1 $299 40.906306456139191 $362 48.558606807766779 $295 $363 forward 7 unknown #
coedge $-1 $203 $202 $302 $364 reversed $79 $-1 #
edge $-1 $365 -139.37192907498402 $299 -129.7902108689085 $293 $366 forward 7 unknown #
vertex $-1 $205 $367 #
straight-curve $-1 62.033664185864424 -2.944464872786007 5.9623317283427113 0 -1 0 I I #
coedge $-1 $292 $206 $209 $306 reversed $199 $-1 #
coedge $-1 $206 $292 $297 $364 forward $199 $-1 #
vertex $-1 $207 $368 #
straight-curve $-1 69.685964537491998 -1.7409422456658739 97.689701169543909 0 0 1 I I #
straight-curve $-1 -41.621406325415194 -1.7409422456658739 84.072031476180626 0.79863550430605224 0 -0.6018150307709319 I I #
edge $-1 $362 -10.036917245478154 $211 -1.7409422456658739 $301 $369 forward 7 unknown #
point $-1 69.685964537491998 -1.7409422456658739 5.9623317283427122 #
point $-1 62.03366418586441 -1.7409422456658739 5.9623317283427184 #
edge $-1 $370 1 $370 0 $214 $-1 forward 7 unknown #
vertex $-1 $215 $371 #
ellipse-curve $-1 63.901541641842449 -5.888929745572014 0.48040508923132141 0.6018150307709319 0 0.79863550430605224 1.5972710086121045 0 -1.2036300615418638 1 I I #
point $-1 67.457085370290315 -5.888929745572014 1.8754906482870073 #
plane-surface $-1 69.685964537491998 0 0 -1 0 0 0 0 1 forward_v I I I I #
coedge $-1 $223 $221 $225 $318 reversed $141 $-1 #
edge $-1 $236 -5.9623317283427122 $320 5.9623317283427122 $235 $372 forward 7 unknown #
vertex $-1 $318 $373 #
straight-curve $-1 -69.685964537491998 -28.455616141486761 0 0 0 -1 I I #
edge $-1 $316 -28.455616141486761 $320 28.455616141486761 $314 $374 forward 7 unknown #
straight-curve $-1 0 -28.455616141486761 -5.9623317283427122 -1 0 0 I I #
vertex $-1 $228 $375 #
straight-curve $-1 0 28.455616141486761 -5.9623317283427122 1 0 0 I I #
point $-1 69.685964537491998 28.455616141486761 -5.9623317283427122 #
point $-1 69.685964537491998 -28.455616141486761 -5.9623317283427122 #
straight-curve $-1 -69.685964537491998 0 5.9623317283427122 0 -1 0 I I #
point $-1 -69.685964537491998 28.455616141486761 5.9623317283427122 #
point $-1 -69.685964537491998 -28.455616141486761 5.9623317283427122 #
straight-curve $-1 69.685964537491998 -28.455616141486761 0 0 0 -1 I I #
straight-curve $-1 69.685964537491998 28.455616141486761 0 0 0 -1 I I #
plane-surface $-1 69.685964537491998 0 0 -1 0 0 0 0 1 forward_v I I I I #
coedge $-1 $249 $248 $259 $341 reversed $96 $-1 #
coedge $-1 $376 $252 $249 $332 forward $246 $-1 #
edge $-1 $333 23.239788652433429 $377 28.455616141486761 $249 $378 forward 7 unknown #
vertex $-1 $332 $379 #
straight-curve $-1 -69.685964537491998 -23.239788652433429 2.2311658641713561 0 0 -1 I I #
coedge $-1 $252 $376 $254 $337 forward $246 $-1 #
straight-curve $-1 0 -23.239788652433429 5.9623317283427122 -1 0 0 I I #
edge $-1 $344 -28.455616141486761 $255 -23.239788652433429 $254 $380 forward 7 unknown #
point $-1 69.685964537491998 -23.239788652433429 5.9623317283427122 #
straight-curve $-1 -69.685964537491998 -12.923851198480047 2.9623317283427122 0 -1 0 I I #
coedge $-1 $259 $258 $376 $381 reversed $160 $-1 #
edge $-1 $377 -5.9623317283427122 $260 -2.9623317283427122 $330 $382 forward 7 unknown #
point $-1 -69.685964537491998 -28.455616141486761 2.9623317283427122 #
point $-1 -69.685964537491998 -23.239788652433429 2.9623317283427122 #
vertex $-1 $337 $383 #
straight-curve $-1 69.685964537491998 -28.455616141486761 0 0 0 -1 I I #
coedge $-1 $347 $269 $353 $384 reversed $177 $-1 #
coedge $-1 $269 $346 $272 $351 reversed $177 $-1 #
edge $-1 $349 -17.01849598851576 $277 -5.8557443174262449 $276 $385 forward 7 unknown #
vertex $-1 $271 $386 #
straight-curve $-1 -48.774943395945442 28.455616141486761 17.475666268022049 -0.77714595512881146 0 -0.62932039886446345 I I #
edge $-1 $273 62.992727188909164 $355 69.685964537491998 $347 $387 forward 7 unknown #
point $-1 -62.992727188909164 28.455616141486765 5.9623317283427122 #
coedge $-1 $276 $275 $346 $384 forward $267 $-1 #
point $-1 -69.685964537491998 17.292864470397248 0.54225488163699254 #
vertex $-1 $351 $388 #
straight-curve $-1 -69.685964537491998 0 5.9623317283427122 0 -1 0 I I #
vertex $-1 $283 $389 #
point $-1 -65.272803890002905 20.482222090708536 2.7297315367092354 #
vertex $-1 $287 $390 #
point $-1 -65.272803890002905 25.26625852117547 2.7297315367092354 #
edge $-1 $362 91.727369441201191 $365 97.493791478228914 $292 $391 forward 7 unknown #
vertex $-1 $306 $392 #
straight-curve $-1 21.127357729725219 -10.036917245478154 5.9623317283427184 1 0 0 I I #
edge $-1 $365 -7.0924523726921471 $303 1.2035226271201331 $302 $393 forward 7 unknown #
vertex $-1 $364 $394 #
straight-curve $-1 -41.621406325415194 -10.036917245478154 84.072031476180626 -0.79863550430605224 0 0.6018150307709319 I I #
point $-1 62.03366418586441 -10.036917245478154 5.9623317283427184 #
point $-1 69.685964537491998 -1.7409422456658739 0.19590969131499492 #
straight-curve $-1 69.685964537491998 0 5.9623317283427122 0 1 0 I I #
vertex $-1 $309 $395 #
point $-1 65.498812650454553 -5.888929745572014 -0.72322497231054239 #
straight-curve $-1 -69.685964537491998 28.455616141486761 0 0 0 -1 I I #
point $-1 -69.685964537491998 -28.455616141486761 -5.9623317283427122 #
straight-curve $-1 -69.685964537491998 0 -5.9623317283427122 0 1 0 I I #
point $-1 -69.685964537491998 28.455616141486761 -5.9623317283427122 #
coedge $-1 $335 $331 $340 $381 forward $246 $-1 #
vertex $-1 $332 $396 #
straight-curve $-1 -69.685964537491998 0 5.9623317283427122 0 -1 0 I I #
point $-1 -69.685964537491998 -23.239788652433429 5.9623317283427122 #
straight-curve $-1 69.685964537491998 0 5.9623317283427122 0 1 0 I I #
edge $-1 $377 -69.685964537491998 $344 69.685964537491998 $340 $397 forward 7 unknown #
straight-curve $-1 -69.685964537491998 -28.455616141486761 0 0 0 -1 I I #
point $-1 69.685964537491998 -28.455616141486761 5.9623317283427122 #
edge $-1 $355 -5.9623317283427122 $349 -0.54225488163699254 $346 $398 forward 7 unknown #
straight-curve $-1 -69.685964537491998 11.437120152971003 0.54225488163699154 0 -1 0 I I #
point $-1 -69.685964537491998 28.455616141486765 0.54225488163699254 #
straight-curve $-1 0 28.455616141486761 5.9623317283427122 -1 0 0 I I #
point $-1 -69.685964537491998 28.455616141486761 5.9623317283427122 #
point $-1 -65.346716668135073 20.482222090708536 2.0264983597125981 #
point $-1 -65.346716668135073 25.26625852117547 2.0264983597125981 #
straight-curve $-1 69.685964537491998 -10.036917245478154 97.689701169543909 0 0 -1 I I #
point $-1 69.685964537491998 -10.036917245478154 5.9623317283427122 #
straight-curve $-1 69.685964537491998 -2.944464872786007 0.19590969131499492 0 1 0 I I #
point $-1 69.685964537491998 -10.036917245478154 0.19590969131499492 #
point $-1 62.697911580300591 -5.888929745572014 -1.1168659193807831 #
point $-1 -69.685964537491998 -28.455616141486761 5.9623317283427122 #
straight-curve $-1 0 -28.455616141486761 5.9623317283427122 1 0 0 I I #
straight-curve $-1 -69.685964537491998 28.455616141486761 0 0 0 -1 I I #
End-of-ACIS-data 