500 0 5 0           
7 Unknown 11 ACIS 5.0 NT 24 Fri Mar 26 20:22:02 1999 
-1 9.9999999999999995e-007 1e-010 
body $-1 $5 $-1 $6 #
body $-1 $7 $-1 $8 #
body $-1 $9 $-1 $10 #
body $-1 $11 $-1 $12 #
body $-1 $13 $-1 $14 #
lump $-1 $-1 $15 $0 #
transform $-1 1 0 0 0 1 0 0 0 1 40.390636921292767 25.434132112048534 6.2374051763294904 1 rotate no_reflect no_shear #
lump $-1 $-1 $16 $1 #
transform $-1 1 0 0 0 1 0 0 0 1 40.390636921292767 25.434132112048534 6.2374051763294904 1 rotate no_reflect no_shear #
lump $-1 $-1 $17 $2 #
transform $-1 1 0 0 0 1 0 0 0 1 40.390636921292767 25.434132112048534 6.2374051763294904 1 rotate no_reflect no_shear #
lump $-1 $-1 $18 $3 #
transform $-1 1 0 0 0 1 0 0 0 1 40.390636921292767 25.434132112048534 6.2374051763294904 1 rotate no_reflect no_shear #
lump $-1 $-1 $19 $4 #
transform $-1 1 0 0 0 1 0 0 0 1 40.390636921292767 25.434132112048534 6.2374051763294904 1 rotate no_reflect no_shear #
shell $-1 $-1 $-1 $20 $-1 $5 #
shell $-1 $-1 $-1 $21 $-1 $7 #
shell $-1 $-1 $-1 $22 $-1 $9 #
shell $-1 $-1 $-1 $23 $-1 $11 #
shell $-1 $-1 $-1 $24 $-1 $13 #
face $-1 $25 $26 $15 $-1 $27 forward single #
face $-1 $28 $29 $16 $-1 $30 forward single #
face $-1 $31 $32 $17 $-1 $33 reversed single #
face $-1 $34 $35 $18 $-1 $36 forward single #
face $-1 $37 $38 $19 $-1 $39 forward single #
face $-1 $40 $41 $15 $-1 $42 reversed single #
loop $-1 $-1 $43 $20 #
plane-surface $-1 0 0 6.2374051763294904 0 0 1 1 0 0 forward_v I I I I #
face $-1 $44 $45 $16 $-1 $46 reversed single #
loop $-1 $-1 $47 $21 #
plane-surface $-1 0 -25.434132112048534 0 0 1 0 0 0 1 forward_v I I I I #
face $-1 $48 $49 $17 $-1 $50 reversed single #
loop $-1 $-1 $51 $22 #
plane-surface $-1 -31.421541417685162 68.47810697518554 85.631997999589558 -1 0 0 0 0.85716730853699208 0.51503806187062418 forward_v I I I I #
face $-1 $52 $53 $18 $-1 $54 forward single #
loop $-1 $55 $56 $23 #
cone-surface $-1 -37.828038205976306 22.890987142187715 2.8520292200117479 0 -0.85716730853699208 -0.51503806187062418 1 0 0 1 I I 0 1 1 forward I I I I #
face $-1 $57 $58 $19 $-1 $59 forward single #
loop $-1 $60 $61 $24 #
cone-surface $-1 -33.984140133001617 22.890987142187715 2.8520292200117479 0 -0.85716730853699208 -0.51503806187062418 1 0 0 1 I I 0 1 1 forward I I I I #
face $-1 $62 $63 $15 $-1 $64 reversed single #
loop $-1 $-1 $65 $25 #
plane-surface $-1 0 0 -6.2374051763294904 0 0 1 1 0 0 forward_v I I I I #
coedge $-1 $66 $67 $68 $69 forward $26 $-1 #
face $-1 $70 $71 $16 $-1 $72 forward single #
loop $-1 $-1 $73 $28 #
plane-surface $-1 -40.390636921292767 0 0 1 0 0 0 0 -1 forward_v I I I I #
coedge $-1 $74 $75 $76 $77 forward $29 $-1 #
face $-1 $78 $79 $17 $-1 $80 forward single #
loop $-1 $-1 $81 $31 #
plane-surface $-1 -35.906089169488965 -0.76496010465322684 44.026567284264154 0 0.85716730853699208 0.51503806187062418 1 0 0 forward_v I I I I #
coedge $-1 $82 $83 $84 $85 reversed $32 $-1 #
face $-1 $-1 $86 $18 $-1 $87 forward single #
loop $-1 $88 $89 $34 #
cone-surface $-1 -37.828038205976306 21.665795349256282 2.1158597462502922 0 -0.85716730853699208 -0.51503806187062418 0.5 0 0 1 I I -0.70710678118654768 0.70710678118654735 0.5 forward I I I I #
loop $-1 $-1 $90 $23 #
coedge $-1 $56 $56 $91 $92 reversed $35 $-1 #
face $-1 $-1 $93 $19 $-1 $94 forward single #
loop $-1 $95 $96 $37 #
cone-surface $-1 -33.984140133001617 21.665795349256282 2.1158597462502922 0 -0.85716730853699208 -0.51503806187062418 0.5 0 0 1 I I -0.70710678118654768 0.70710678118654735 0.5 forward I I I I #
loop $-1 $-1 $97 $24 #
coedge $-1 $61 $61 $98 $99 reversed $38 $-1 #
face $-1 $100 $101 $15 $-1 $102 reversed single #
loop $-1 $-1 $103 $40 #
plane-surface $-1 0 -25.434132112048534 0 0 1 0 0 0 1 forward_v I I I I #
coedge $-1 $104 $105 $106 $107 forward $41 $-1 #
coedge $-1 $108 $43 $109 $110 forward $26 $-1 #
coedge $-1 $43 $108 $111 $112 forward $26 $-1 #
coedge $-1 $113 $114 $43 $69 reversed $115 $-1 #
edge $-1 $116 -25.434132112048534 $117 25.434132112048534 $68 $118 forward 7 unknown #
face $-1 $119 $120 $16 $-1 $121 reversed single #
loop $-1 $-1 $122 $44 #
plane-surface $-1 0 -27.512640264047459 3.2067497209561346 0 0 1 1 0 0 forward_v I I I I #
coedge $-1 $123 $124 $75 $125 forward $45 $-1 #
coedge $-1 $126 $47 $127 $128 reversed $29 $-1 #
coedge $-1 $47 $126 $73 $125 reversed $29 $-1 #
coedge $-1 $129 $122 $47 $77 reversed $71 $-1 #
edge $-1 $130 -40.390636921292767 $131 40.390636921292767 $76 $132 forward 7 unknown #
face $-1 $133 $134 $17 $-1 $135 reversed single #
loop $-1 $-1 $136 $48 #
plane-surface $-1 0 0 6.2374051763294904 0 0 1 1 0 0 forward_v I I I I #
coedge $-1 $137 $138 $139 $140 reversed $49 $-1 #
coedge $-1 $83 $51 $141 $142 reversed $32 $-1 #
coedge $-1 $51 $82 $137 $143 reversed $32 $-1 #
coedge $-1 $139 $144 $51 $85 forward $134 $-1 #
edge $-1 $145 36.57859382346529 $146 42.392044850448464 $84 $147 forward 7 unknown #
loop $-1 $-1 $91 $52 #
plane-surface $-1 -35.906089169488965 -0.76496010465322684 44.026567284264154 0 0.85716730853699208 0.51503806187062418 1 0 0 forward_v I I I I #
loop $-1 $-1 $148 $34 #
coedge $-1 $89 $89 $90 $149 reversed $53 $-1 #
coedge $-1 $90 $90 $89 $149 forward $55 $-1 #
coedge $-1 $91 $91 $56 $92 forward $86 $-1 #
edge $-1 $150 -1.6012576392702874e-016 $150 6.2831853071796004 $91 $151 forward 7 unknown #
loop $-1 $-1 $98 $57 #
plane-surface $-1 -35.906089169488965 -0.76496010465322684 44.026567284264154 0 0.85716730853699208 0.51503806187062418 1 0 0 forward_v I I I I #
loop $-1 $-1 $152 $37 #
coedge $-1 $96 $96 $97 $153 reversed $58 $-1 #
coedge $-1 $97 $97 $96 $153 forward $60 $-1 #
coedge $-1 $98 $98 $61 $99 forward $93 $-1 #
edge $-1 $154 -1.6012576392702874e-016 $154 6.2831853071796004 $98 $155 forward 7 unknown #
face $-1 $156 $157 $15 $-1 $158 reversed single #
loop $-1 $-1 $159 $62 #
plane-surface $-1 -40.390636921292767 0 0 1 0 0 0 0 -1 forward_v I I I I #
coedge $-1 $160 $111 $161 $162 forward $63 $-1 #
coedge $-1 $163 $65 $160 $164 forward $41 $-1 #
coedge $-1 $65 $163 $165 $166 forward $41 $-1 #
coedge $-1 $114 $113 $65 $107 reversed $115 $-1 #
edge $-1 $167 -25.434132112048534 $168 25.434132112048534 $106 $169 forward 7 unknown #
coedge $-1 $67 $66 $170 $171 forward $26 $-1 #
coedge $-1 $172 $173 $66 $110 reversed $157 $-1 #
edge $-1 $117 -40.390636921292767 $174 40.390636921292767 $109 $175 forward 7 unknown #
coedge $-1 $103 $176 $67 $112 reversed $63 $-1 #
edge $-1 $177 -40.390636921292767 $116 40.390636921292767 $111 $178 forward 7 unknown #
coedge $-1 $106 $68 $176 $179 forward $115 $-1 #
coedge $-1 $68 $106 $172 $180 reversed $115 $-1 #
loop $-1 $-1 $113 $156 #
vertex $-1 $69 $181 #
vertex $-1 $69 $182 #
straight-curve $-1 40.390636921292767 0 6.2374051763294904 0 1 0 I I #
face $-1 $183 $184 $16 $-1 $185 reversed single #
loop $-1 $-1 $186 $70 #
plane-surface $-1 0 -27.512640264047459 0.20674972095613375 0 0 1 1 0 0 forward_v I I I I #
coedge $-1 $76 $187 $188 $189 forward $71 $-1 #
coedge $-1 $190 $73 $191 $192 reversed $45 $-1 #
coedge $-1 $73 $190 $129 $193 reversed $45 $-1 #
edge $-1 $130 -3.2067497209561346 $194 -0.20674972095613375 $73 $195 forward 7 unknown #
coedge $-1 $75 $74 $196 $197 forward $29 $-1 #
coedge $-1 $188 $198 $74 $128 forward $199 $-1 #
edge $-1 $200 0.20674972095613375 $131 3.2067497209561346 $127 $201 forward 7 unknown #
coedge $-1 $187 $76 $124 $193 forward $71 $-1 #
vertex $-1 $125 $202 #
vertex $-1 $189 $203 #
straight-curve $-1 0 -25.434132112048534 3.2067497209561346 1 0 0 I I #
face $-1 $-1 $204 $17 $-1 $205 reversed single #
loop $-1 $-1 $84 $78 #
plane-surface $-1 0 25.434132112048534 0 0 -1 0 0 0 -1 forward_v I I I I #
coedge $-1 $141 $206 $207 $208 forward $79 $-1 #
coedge $-1 $207 $81 $83 $143 forward $49 $-1 #
coedge $-1 $81 $207 $209 $210 reversed $49 $-1 #
coedge $-1 $211 $84 $81 $140 forward $134 $-1 #
edge $-1 $146 13.46849683294068 $212 22.437592336548285 $139 $213 forward 7 unknown #
coedge $-1 $214 $136 $82 $142 forward $79 $-1 #
edge $-1 $215 -12.297995037939966 $145 -8.8049213755442359 $141 $216 forward 7 unknown #
edge $-1 $146 -50.868264224097068 $215 -44.086098164934661 $83 $217 forward 7 unknown #
coedge $-1 $84 $211 $214 $218 reversed $134 $-1 #
vertex $-1 $218 $219 #
vertex $-1 $85 $220 #
straight-curve $-1 -31.421541417685162 25.434132112048534 42.815998999794779 0 0 -1 I I #
coedge $-1 $148 $148 $-1 $221 reversed $88 $-1 #
edge $-1 $222 0 $222 6.2831853071796004 $89 $223 forward 7 unknown #
vertex $-1 $92 $224 #
ellipse-curve $-1 -37.828038205976306 23.687595280850665 3.3306796628378978 0 0.85716730853699208 0.51503806187062418 1 0 0 1 I I #
coedge $-1 $152 $152 $-1 $225 reversed $95 $-1 #
edge $-1 $226 0 $226 6.2831853071796004 $96 $227 forward 7 unknown #
vertex $-1 $99 $228 #
ellipse-curve $-1 -33.984140133001617 23.687595280850665 3.3306796628378978 0 0.85716730853699208 0.51503806187062418 1 0 0 1 I I #
face $-1 $-1 $115 $15 $-1 $229 reversed single #
loop $-1 $-1 $172 $100 #
plane-surface $-1 0 25.434132112048534 0 0 -1 0 0 0 -1 forward_v I I I I #
coedge $-1 $230 $170 $173 $231 forward $101 $-1 #
coedge $-1 $176 $103 $104 $164 reversed $63 $-1 #
coedge $-1 $170 $230 $103 $162 reversed $101 $-1 #
edge $-1 $177 -6.2374051763294904 $232 6.2374051763294904 $161 $233 forward 7 unknown #
coedge $-1 $105 $104 $230 $234 forward $41 $-1 #
edge $-1 $168 -40.390636921292767 $232 40.390636921292767 $160 $235 forward 7 unknown #
coedge $-1 $173 $172 $105 $166 reversed $157 $-1 #
edge $-1 $236 -40.390636921292767 $167 40.390636921292767 $165 $237 forward 7 unknown #
vertex $-1 $107 $238 #
vertex $-1 $179 $239 #
straight-curve $-1 40.390636921292767 0 -6.2374051763294904 0 -1 0 I I #
coedge $-1 $159 $161 $108 $171 reversed $101 $-1 #
edge $-1 $174 -25.434132112048534 $177 25.434132112048534 $170 $240 forward 7 unknown #
coedge $-1 $165 $109 $114 $180 forward $157 $-1 #
coedge $-1 $109 $165 $159 $231 reversed $157 $-1 #
vertex $-1 $110 $241 #
straight-curve $-1 0 25.434132112048534 6.2374051763294904 -1 0 0 I I #
coedge $-1 $111 $160 $113 $179 reversed $63 $-1 #
vertex $-1 $171 $242 #
straight-curve $-1 0 -25.434132112048534 6.2374051763294904 1 0 0 I I #
edge $-1 $116 -6.2374051763294904 $168 6.2374051763294904 $113 $243 forward 7 unknown #
edge $-1 $117 -6.2374051763294904 $167 6.2374051763294904 $114 $244 forward 7 unknown #
point $-1 40.390636921292767 -25.434132112048534 6.2374051763294904 #
point $-1 40.390636921292767 25.434132112048534 6.2374051763294904 #
face $-1 $-1 $199 $16 $-1 $245 reversed single #
loop $-1 $-1 $246 $119 #
plane-surface $-1 0 -29.591148416046384 1.7067497209561342 0 1 0 0 0 1 forward_v I I I I #
coedge $-1 $247 $196 $198 $248 forward $120 $-1 #
coedge $-1 $122 $129 $249 $250 forward $71 $-1 #
coedge $-1 $251 $127 $122 $189 reversed $199 $-1 #
edge $-1 $252 -2.0785081519989248 $131 2.0785081519989248 $188 $253 forward 7 unknown #
coedge $-1 $124 $123 $246 $254 reversed $45 $-1 #
coedge $-1 $196 $247 $123 $192 forward $120 $-1 #
edge $-1 $255 -2.0785081519989248 $194 2.0785081519989248 $123 $256 forward 7 unknown #
edge $-1 $130 -2.0785081519989248 $257 2.0785081519989248 $124 $258 forward 7 unknown #
vertex $-1 $125 $259 #
straight-curve $-1 -40.390636921292767 -25.434132112048534 0 0 0 -1 I I #
coedge $-1 $186 $191 $126 $197 reversed $120 $-1 #
edge $-1 $200 -40.390636921292767 $194 40.390636921292767 $196 $260 forward 7 unknown #
coedge $-1 $127 $251 $186 $248 reversed $199 $-1 #
loop $-1 $-1 $127 $183 #
vertex $-1 $128 $261 #
straight-curve $-1 40.390636921292767 -25.434132112048534 0 0 0 1 I I #
point $-1 -40.390636921292767 -25.434132112048534 3.2067497209561346 #
point $-1 40.390636921292767 -25.434132112048534 3.2067497209561346 #
loop $-1 $-1 $209 $133 #
plane-surface $-1 -40.390636921292767 0 0 1 0 0 0 0 -1 forward_v I I I I #
coedge $-1 $136 $214 $262 $263 forward $79 $-1 #
coedge $-1 $138 $137 $136 $208 reversed $49 $-1 #
edge $-1 $264 -22.437592336548285 $215 -13.46849683294068 $136 $265 forward 7 unknown #
coedge $-1 $262 $266 $138 $210 forward $204 $-1 #
edge $-1 $212 -31.802205347654841 $264 -25.020039288492434 $209 $267 forward 7 unknown #
coedge $-1 $144 $139 $266 $268 reversed $134 $-1 #
vertex $-1 $140 $269 #
straight-curve $-1 -17.953044584744482 25.434132112048534 0.42395414934631148 -1 0 0 I I #
coedge $-1 $206 $141 $144 $218 forward $79 $-1 #
vertex $-1 $142 $270 #
straight-curve $-1 -31.421541417685162 34.23905348759277 6.2374051763294887 0 1 0 I I #
straight-curve $-1 -31.421541417685162 -0.76496010465322684 44.026567284264154 0 -0.51503806187062418 0.85716730853699208 I I #
edge $-1 $145 31.421541417685162 $271 40.390636921292767 $144 $272 forward 7 unknown #
point $-1 -31.421541417685162 25.434132112048534 6.2374051763294904 #
point $-1 -31.421541417685162 25.434132112048534 0.42395414934631503 #
edge $-1 $273 1 $273 0 $148 $-1 forward 7 unknown #
vertex $-1 $149 $274 #
ellipse-curve $-1 -37.828038205976306 22.094379003524779 2.3733787771856041 0 0.85716730853699208 0.51503806187062418 1 0 0 1 I I #
point $-1 -36.828038205976306 23.687595280850655 3.3306796628378916 #
edge $-1 $275 1 $275 0 $152 $-1 forward 7 unknown #
vertex $-1 $153 $276 #
ellipse-curve $-1 -33.984140133001617 22.094379003524779 2.3733787771856041 0 0.85716730853699208 0.51503806187062418 1 0 0 1 I I #
point $-1 -32.984140133001617 23.687595280850655 3.3306796628378916 #
plane-surface $-1 40.390636921292767 0 0 -1 0 0 0 0 1 forward_v I I I I #
coedge $-1 $161 $159 $163 $234 reversed $101 $-1 #
edge $-1 $174 -6.2374051763294904 $236 6.2374051763294904 $173 $277 forward 7 unknown #
vertex $-1 $234 $278 #
straight-curve $-1 -40.390636921292767 -25.434132112048534 0 0 0 -1 I I #
edge $-1 $232 -25.434132112048534 $236 25.434132112048534 $230 $279 forward 7 unknown #
straight-curve $-1 0 -25.434132112048534 -6.2374051763294904 -1 0 0 I I #
vertex $-1 $166 $280 #
straight-curve $-1 0 25.434132112048534 -6.2374051763294904 1 0 0 I I #
point $-1 40.390636921292767 25.434132112048534 -6.2374051763294904 #
point $-1 40.390636921292767 -25.434132112048534 -6.2374051763294904 #
straight-curve $-1 -40.390636921292767 0 6.2374051763294904 0 -1 0 I I #
point $-1 -40.390636921292767 25.434132112048534 6.2374051763294904 #
point $-1 -40.390636921292767 -25.434132112048534 6.2374051763294904 #
straight-curve $-1 40.390636921292767 -25.434132112048534 0 0 0 -1 I I #
straight-curve $-1 40.390636921292767 25.434132112048534 0 0 0 -1 I I #
plane-surface $-1 40.390636921292767 0 0 -1 0 0 0 0 1 forward_v I I I I #
coedge $-1 $281 $249 $190 $254 forward $184 $-1 #
coedge $-1 $191 $186 $281 $282 forward $120 $-1 #
edge $-1 $200 -2.0785081519989248 $283 2.0785081519989248 $198 $284 forward 7 unknown #
coedge $-1 $246 $285 $187 $250 reversed $184 $-1 #
edge $-1 $257 -40.390636921292767 $252 40.390636921292767 $249 $286 forward 7 unknown #
coedge $-1 $198 $188 $285 $287 forward $199 $-1 #
vertex $-1 $189 $288 #
straight-curve $-1 40.390636921292767 -27.512640264047459 3.2067497209561346 0 1 0 I I #
edge $-1 $257 -1.5000000000000004 $255 1.5000000000000004 $190 $289 forward 7 unknown #
vertex $-1 $192 $290 #
straight-curve $-1 -40.390636921292767 -27.512640264047459 0.20674972095613375 0 1 0 I I #
vertex $-1 $193 $291 #
straight-curve $-1 -40.390636921292767 -27.512640264047459 3.2067497209561346 0 -1 0 I I #
point $-1 -40.390636921292767 -25.434132112048534 0.20674972095613375 #
straight-curve $-1 0 -25.434132112048534 0.20674972095613375 -1 0 0 I I #
point $-1 40.390636921292767 -25.434132112048534 0.20674972095613375 #
coedge $-1 $266 $209 $206 $263 reversed $204 $-1 #
edge $-1 $271 -25.434132112048534 $264 -21.941058449652804 $262 $292 forward 7 unknown #
vertex $-1 $210 $293 #
straight-curve $-1 -17.953044584744482 21.941058449652793 6.2374051763294922 1 0 0 I I #
coedge $-1 $209 $262 $211 $268 forward $204 $-1 #
straight-curve $-1 -40.390636921292767 9.0547859065807845 27.683764912736343 0 -0.51503806187062429 0.85716730853699219 I I #
edge $-1 $271 -6.2374051763294904 $212 -0.42395414934630948 $211 $294 forward 7 unknown #
point $-1 -40.390636921292767 25.434132112048534 0.42395414934630948 #
point $-1 -31.421541417685162 21.941058449652804 6.2374051763294887 #
vertex $-1 $218 $295 #
straight-curve $-1 0 25.434132112048534 6.2374051763294904 -1 0 0 I I #
vertex $-1 $221 $296 #
point $-1 -36.828038205976306 22.094379003524779 2.3733787771856041 #
vertex $-1 $225 $297 #
point $-1 -32.984140133001617 22.094379003524779 2.3733787771856041 #
straight-curve $-1 -40.390636921292767 25.434132112048534 0 0 0 -1 I I #
point $-1 -40.390636921292767 -25.434132112048534 -6.2374051763294904 #
straight-curve $-1 -40.390636921292767 0 -6.2374051763294904 0 1 0 I I #
point $-1 -40.390636921292767 25.434132112048534 -6.2374051763294904 #
coedge $-1 $285 $246 $247 $282 reversed $184 $-1 #
edge $-1 $283 -40.390636921292767 $255 40.390636921292767 $281 $298 forward 7 unknown #
vertex $-1 $287 $299 #
straight-curve $-1 40.390636921292767 -27.512640264047459 0.20674972095613375 0 -1 0 I I #
coedge $-1 $249 $281 $251 $287 reversed $184 $-1 #
straight-curve $-1 0 -29.591148416046384 3.2067497209561346 1 0 0 I I #
edge $-1 $252 -1.5000000000000004 $283 1.5000000000000004 $251 $300 forward 7 unknown #
point $-1 40.390636921292767 -29.591148416046384 3.2067497209561346 #
straight-curve $-1 -40.390636921292767 -29.591148416046384 1.7067497209561342 0 0 -1 I I #
point $-1 -40.390636921292767 -29.591148416046384 0.20674972095613375 #
point $-1 -40.390636921292767 -29.591148416046384 3.2067497209561346 #
straight-curve $-1 -40.390636921292767 0 6.2374051763294904 0 -1 0 I I #
point $-1 -40.390636921292767 21.941058449652804 6.2374051763294887 #
straight-curve $-1 -40.390636921292767 25.434132112048534 0 0 0 -1 I I #
point $-1 -40.390636921292767 25.434132112048534 6.2374051763294904 #
point $-1 -37.828038205976306 21.237211694987785 1.8583407153149802 #
point $-1 -33.984140133001617 21.237211694987785 1.8583407153149802 #
straight-curve $-1 0 -29.591148416046384 0.20674972095613375 -1 0 0 I I #
point $-1 40.390636921292767 -29.591148416046384 0.20674972095613375 #
straight-curve $-1 40.390636921292767 -29.591148416046384 1.7067497209561342 0 0 -1 I I #
End-of-ACIS-data 