500 0 17 0           
7 Unknown 11 ACIS 5.0 NT 24 Fri Mar 26 16:30:56 1999 
-1 9.9999999999999995e-007 1e-010 
body $-1 $17 $-1 $18 #
body $-1 $19 $-1 $20 #
body $-1 $21 $-1 $22 #
body $-1 $23 $-1 $24 #
body $-1 $25 $-1 $26 #
body $-1 $27 $-1 $28 #
body $-1 $29 $-1 $30 #
body $-1 $31 $-1 $32 #
body $-1 $33 $-1 $34 #
body $-1 $35 $-1 $36 #
body $-1 $37 $-1 $38 #
body $-1 $39 $-1 $40 #
body $-1 $41 $-1 $42 #
body $-1 $43 $-1 $44 #
body $-1 $45 $-1 $46 #
body $-1 $47 $-1 $48 #
body $-1 $49 $-1 $50 #
lump $-1 $-1 $51 $0 #
transform $-1 1 0 0 0 1 0 0 0 1 52.513809625537888 25.531227973313285 12.528588944709504 1 rotate no_reflect no_shear #
lump $-1 $-1 $52 $1 #
transform $-1 1 0 0 0 1 0 0 0 1 52.513809625537888 25.531227973313285 12.528588944709504 1 rotate no_reflect no_shear #
lump $-1 $-1 $53 $2 #
transform $-1 1 0 0 0 1 0 0 0 1 52.513809625537888 25.531227973313285 12.528588944709504 1 rotate no_reflect no_shear #
lump $-1 $-1 $54 $3 #
transform $-1 1 0 0 0 1 0 0 0 1 52.513809625537888 25.531227973313285 12.528588944709504 1 rotate no_reflect no_shear #
lump $-1 $-1 $55 $4 #
transform $-1 1 0 0 0 1 0 0 0 1 52.513809625537888 25.531227973313285 12.528588944709504 1 rotate no_reflect no_shear #
lump $-1 $-1 $56 $5 #
transform $-1 1 0 0 0 1 0 0 0 1 52.513809625537888 25.531227973313285 12.528588944709504 1 rotate no_reflect no_shear #
lump $-1 $-1 $57 $6 #
transform $-1 1 0 0 0 1 0 0 0 1 52.513809625537888 25.531227973313285 12.528588944709504 1 rotate no_reflect no_shear #
lump $-1 $-1 $58 $7 #
transform $-1 1 0 0 0 1 0 0 0 1 52.513809625537888 25.531227973313285 12.528588944709504 1 rotate no_reflect no_shear #
lump $-1 $-1 $59 $8 #
transform $-1 1 0 0 0 1 0 0 0 1 52.513809625537888 25.531227973313285 12.528588944709504 1 rotate no_reflect no_shear #
lump $-1 $-1 $60 $9 #
transform $-1 1 0 0 0 1 0 0 0 1 52.513809625537888 25.531227973313285 12.528588944709504 1 rotate no_reflect no_shear #
lump $-1 $-1 $61 $10 #
transform $-1 1 0 0 0 1 0 0 0 1 52.513809625537888 25.531227973313285 12.528588944709504 1 rotate no_reflect no_shear #
lump $-1 $-1 $62 $11 #
transform $-1 1 0 0 0 1 0 0 0 1 52.513809625537888 25.531227973313285 12.528588944709504 1 rotate no_reflect no_shear #
lump $-1 $-1 $63 $12 #
transform $-1 1 0 0 0 1 0 0 0 1 52.513809625537888 25.531227973313285 12.528588944709504 1 rotate no_reflect no_shear #
lump $-1 $-1 $64 $13 #
transform $-1 1 0 0 0 1 0 0 0 1 52.513809625537888 25.531227973313285 12.528588944709504 1 rotate no_reflect no_shear #
lump $-1 $-1 $65 $14 #
transform $-1 1 0 0 0 1 0 0 0 1 52.513809625537888 25.531227973313285 12.528588944709504 1 rotate no_reflect no_shear #
lump $-1 $-1 $66 $15 #
transform $-1 1 0 0 0 1 0 0 0 1 52.513809625537888 25.531227973313285 12.528588944709504 1 rotate no_reflect no_shear #
lump $-1 $-1 $67 $16 #
transform $-1 1 0 0 0 1 0 0 0 1 52.513809625537888 25.531227973313285 12.528588944709504 1 rotate no_reflect no_shear #
shell $-1 $-1 $-1 $68 $-1 $17 #
shell $-1 $-1 $-1 $69 $-1 $19 #
shell $-1 $-1 $-1 $70 $-1 $21 #
shell $-1 $-1 $-1 $71 $-1 $23 #
shell $-1 $-1 $-1 $72 $-1 $25 #
shell $-1 $-1 $-1 $73 $-1 $27 #
shell $-1 $-1 $-1 $74 $-1 $29 #
shell $-1 $-1 $-1 $75 $-1 $31 #
shell $-1 $-1 $-1 $76 $-1 $33 #
shell $-1 $-1 $-1 $77 $-1 $35 #
shell $-1 $-1 $-1 $78 $-1 $37 #
shell $-1 $-1 $-1 $79 $-1 $39 #
shell $-1 $-1 $-1 $80 $-1 $41 #
shell $-1 $-1 $-1 $81 $-1 $43 #
shell $-1 $-1 $-1 $82 $-1 $45 #
shell $-1 $-1 $-1 $83 $-1 $47 #
shell $-1 $-1 $-1 $84 $-1 $49 #
face $-1 $85 $86 $51 $-1 $87 forward single #
face $-1 $88 $89 $52 $-1 $90 reversed single #
face $-1 $91 $92 $53 $-1 $93 reversed single #
face $-1 $94 $95 $54 $-1 $96 forward single #
face $-1 $97 $98 $55 $-1 $99 forward single #
face $-1 $100 $101 $56 $-1 $102 reversed single #
face $-1 $103 $104 $57 $-1 $105 forward single #
face $-1 $106 $107 $58 $-1 $108 forward single #
face $-1 $109 $110 $59 $-1 $111 reversed single #
face $-1 $112 $113 $60 $-1 $114 forward single #
face $-1 $115 $116 $61 $-1 $117 forward single #
face $-1 $118 $119 $62 $-1 $120 reversed single #
face $-1 $121 $122 $63 $-1 $123 forward single #
face $-1 $124 $125 $64 $-1 $126 forward single #
face $-1 $127 $128 $65 $-1 $129 reversed single #
face $-1 $130 $131 $66 $-1 $132 forward single #
face $-1 $133 $134 $67 $-1 $135 forward single #
face $-1 $136 $137 $51 $-1 $138 reversed single #
loop $-1 $-1 $139 $68 #
plane-surface $-1 0 0 12.528588944709504 0 0 1 1 0 0 forward_v I I I I #
face $-1 $140 $141 $52 $-1 $142 reversed single #
loop $-1 $-1 $143 $69 #
plane-surface $-1 0 -17.904599049169267 7.7802892935736239 0 0 1 1 0 0 forward_v I I I I #
face $-1 $144 $145 $53 $-1 $146 reversed single #
loop $-1 $-1 $147 $70 #
plane-surface $-1 65.459183304913736 -3.8628796636593465 150.31708997978535 0 -1 0 -0.7660444514056185 0 -0.64278759981090561 forward_v I I I I #
face $-1 $148 $149 $54 $-1 $150 forward single #
loop $-1 $151 $152 $71 #
cone-surface $-1 47.547431424303028 -8.4450871360635631 6.8554408096925474 -0.7660444514056185 0 -0.64278759981090561 0.3213937999054528 0 -0.38302222570280925 1 I I 0 1 0.5 forward I I I I #
face $-1 $153 $154 $55 $-1 $155 forward single #
loop $-1 $156 $157 $72 #
cone-surface $-1 47.547431424303028 -5.6957626526210312 6.8554408096925474 -0.7660444514056185 0 -0.64278759981090561 0.3213937999054528 0 -0.38302222570280925 1 I I 0 1 0.5 forward I I I I #
face $-1 $158 $159 $56 $-1 $160 reversed single #
loop $-1 $-1 $161 $73 #
plane-surface $-1 65.459183304913736 8.0735197024535026 150.31708997978535 0 -1 0 -0.7660444514056185 0 -0.64278759981090561 forward_v I I I I #
face $-1 $162 $163 $57 $-1 $164 forward single #
loop $-1 $165 $166 $74 #
cone-surface $-1 47.547431424303028 3.4913122300492816 6.8554408096925474 -0.7660444514056185 0 -0.64278759981090561 0.3213937999054528 0 -0.38302222570280925 1 I I 0 1 0.5 forward I I I I #
face $-1 $167 $168 $58 $-1 $169 forward single #
loop $-1 $170 $171 $75 #
cone-surface $-1 47.547431424303028 6.240636713491817 6.8554408096925474 -0.7660444514056185 0 -0.64278759981090561 0.3213937999054528 0 -0.38302222570280925 1 I I 0 1 0.5 forward I I I I #
face $-1 $172 $173 $59 $-1 $174 reversed single #
loop $-1 $-1 $175 $76 #
plane-surface $-1 65.459183304913736 20.009919068566347 150.31708997978535 0 -1 0 -0.7660444514056185 0 -0.64278759981090561 forward_v I I I I #
face $-1 $176 $177 $60 $-1 $178 forward single #
loop $-1 $179 $180 $77 #
cone-surface $-1 47.547431424303028 15.427711596162126 6.8554408096925474 -0.7660444514056185 0 -0.64278759981090561 0.3213937999054528 0 -0.38302222570280925 1 I I 0 1 0.5 forward I I I I #
face $-1 $181 $182 $61 $-1 $183 forward single #
loop $-1 $184 $185 $78 #
cone-surface $-1 47.547431424303028 18.177036079604662 6.8554408096925474 -0.7660444514056185 0 -0.64278759981090561 0.3213937999054528 0 -0.38302222570280925 1 I I 0 1 0.5 forward I I I I #
face $-1 $186 $187 $62 $-1 $188 reversed single #
loop $-1 $-1 $189 $79 #
plane-surface $-1 -139.58565298868166 1.3568701797790652 66.303377460086324 0 1 0 -0.82903758062907751 0 0.55919289150049634 forward_v I I I I #
face $-1 $190 $191 $63 $-1 $192 forward single #
loop $-1 $193 $194 $80 #
cone-surface $-1 -50.427889276721665 3.1482298210261952 9.7710377084365305 0.82903758062907751 0 -0.55919289150049634 0.27959644575024817 0 0.41451879031453875 1 I I 0 1 0.5 forward I I I I #
face $-1 $195 $196 $64 $-1 $197 forward single #
loop $-1 $198 $199 $81 #
cone-surface $-1 -50.427889276721665 5.8352692828968884 9.7710377084365305 0.82903758062907751 0 -0.55919289150049634 0.27959644575024817 0 0.41451879031453875 1 I I 0 1 0.5 forward I I I I #
face $-1 $200 $201 $65 $-1 $202 reversed single #
loop $-1 $-1 $203 $82 #
plane-surface $-1 -52.513809625537874 4.49174955196154 7.572679363664065 -0.82903758062907751 0 0.55919289150049634 0.55919289150049634 0 0.82903758062907751 forward_v I I I I #
face $-1 $204 $205 $66 $-1 $206 forward single #
loop $-1 $207 $208 $83 #
cone-surface $-1 -50.427889276721665 9.4179885653911484 9.7710377084365305 0.82903758062907751 0 -0.55919289150049634 0.27959644575024817 0 0.41451879031453875 1 I I 0 1 0.5 forward I I I I #
face $-1 $209 $210 $67 $-1 $211 forward single #
loop $-1 $212 $213 $84 #
cone-surface $-1 -50.427889276721665 12.105028027261845 9.7710377084365305 0.82903758062907751 0 -0.55919289150049634 0.27959644575024817 0 0.41451879031453875 1 I I 0 1 0.5 forward I I I I #
face $-1 $214 $215 $51 $-1 $216 reversed single #
loop $-1 $-1 $217 $85 #
plane-surface $-1 0 0 -12.528588944709504 0 0 1 1 0 0 forward_v I I I I #
coedge $-1 $218 $219 $220 $221 forward $86 $-1 #
face $-1 $222 $223 $52 $-1 $224 reversed single #
loop $-1 $-1 $225 $88 #
plane-surface $-1 0 -10.277970125025249 10.154439119141564 0 -1 0 0 0 -1 forward_v I I I I #
coedge $-1 $226 $227 $228 $229 reversed $89 $-1 #
face $-1 $230 $231 $53 $-1 $232 forward single #
loop $-1 $-1 $233 $91 #
plane-surface $-1 -14.99664166671478 -7.0704248943422989 82.806638687532683 0.7660444514056185 0 0.64278759981090561 0.64278759981090561 0 -0.7660444514056185 forward_v I I I I #
coedge $-1 $234 $235 $236 $237 reversed $92 $-1 #
face $-1 $-1 $238 $54 $-1 $239 forward single #
loop $-1 $240 $241 $94 #
cone-surface $-1 46.659625718768766 -8.4450871360635631 6.110483389125541 -0.7660444514056185 0 -0.64278759981090561 0.1606968999527264 0 -0.19151111285140462 1 I I -0.70710678118654746 0.70710678118654746 0.25 forward I I I I #
loop $-1 $-1 $242 $71 #
coedge $-1 $152 $152 $243 $244 reversed $95 $-1 #
face $-1 $-1 $245 $55 $-1 $246 forward single #
loop $-1 $247 $248 $97 #
cone-surface $-1 46.659625718768766 -5.6957626526210312 6.110483389125541 -0.7660444514056185 0 -0.64278759981090561 0.1606968999527264 0 -0.19151111285140462 1 I I -0.70710678118654746 0.70710678118654746 0.25 forward I I I I #
loop $-1 $-1 $249 $72 #
coedge $-1 $157 $157 $250 $251 reversed $98 $-1 #
face $-1 $252 $253 $56 $-1 $254 reversed single #
loop $-1 $-1 $255 $100 #
plane-surface $-1 -14.99664166671478 4.8659744717705493 82.806638687532683 0.7660444514056185 0 0.64278759981090561 0.64278759981090561 0 -0.7660444514056185 forward_v I I I I #
coedge $-1 $256 $257 $258 $259 reversed $101 $-1 #
face $-1 $-1 $260 $57 $-1 $261 forward single #
loop $-1 $262 $263 $103 #
cone-surface $-1 46.659625718768766 3.4913122300492816 6.110483389125541 -0.7660444514056185 0 -0.64278759981090561 0.1606968999527264 0 -0.19151111285140462 1 I I -0.70710678118654746 0.70710678118654746 0.25 forward I I I I #
loop $-1 $-1 $264 $74 #
coedge $-1 $166 $166 $265 $266 reversed $104 $-1 #
face $-1 $-1 $267 $58 $-1 $268 forward single #
loop $-1 $269 $270 $106 #
cone-surface $-1 46.659625718768766 6.240636713491817 6.110483389125541 -0.7660444514056185 0 -0.64278759981090561 0.1606968999527264 0 -0.19151111285140462 1 I I -0.70710678118654746 0.70710678118654746 0.25 forward I I I I #
loop $-1 $-1 $271 $75 #
coedge $-1 $171 $171 $272 $273 reversed $107 $-1 #
face $-1 $274 $275 $59 $-1 $276 reversed single #
loop $-1 $-1 $277 $109 #
plane-surface $-1 -14.99664166671478 16.802373837883394 82.806638687532683 0.7660444514056185 0 0.64278759981090561 0.64278759981090561 0 -0.7660444514056185 forward_v I I I I #
coedge $-1 $278 $279 $280 $281 reversed $110 $-1 #
face $-1 $-1 $282 $60 $-1 $283 forward single #
loop $-1 $284 $285 $112 #
cone-surface $-1 46.659625718768766 15.427711596162126 6.110483389125541 -0.7660444514056185 0 -0.64278759981090561 0.1606968999527264 0 -0.19151111285140462 1 I I -0.70710678118654746 0.70710678118654746 0.25 forward I I I I #
loop $-1 $-1 $286 $77 #
coedge $-1 $180 $180 $287 $288 reversed $113 $-1 #
face $-1 $-1 $289 $61 $-1 $290 forward single #
loop $-1 $291 $292 $115 #
cone-surface $-1 46.659625718768766 18.177036079604662 6.110483389125541 -0.7660444514056185 0 -0.64278759981090561 0.1606968999527264 0 -0.19151111285140462 1 I I -0.70710678118654746 0.70710678118654746 0.25 forward I I I I #
loop $-1 $-1 $293 $78 #
coedge $-1 $185 $185 $294 $295 reversed $116 $-1 #
face $-1 $296 $297 $62 $-1 $298 reversed single #
loop $-1 $-1 $299 $118 #
plane-surface $-1 -52.513809625537874 4.49174955196154 7.572679363664065 -0.82903758062907751 0 0.55919289150049634 0.55919289150049634 0 0.82903758062907751 forward_v I I I I #
coedge $-1 $300 $301 $302 $303 reversed $119 $-1 #
face $-1 $-1 $304 $63 $-1 $305 forward single #
loop $-1 $306 $307 $121 #
cone-surface $-1 -49.806111091249853 3.1482298210261952 9.3516430398111581 0.82903758062907751 0 -0.55919289150049634 0.13979822287512408 0 0.20725939515726938 1 I I -0.70710678118654746 0.70710678118654746 0.25 forward I I I I #
loop $-1 $-1 $308 $80 #
coedge $-1 $194 $194 $309 $310 reversed $122 $-1 #
face $-1 $-1 $311 $64 $-1 $312 forward single #
loop $-1 $313 $314 $124 #
cone-surface $-1 -49.806111091249853 5.8352692828968884 9.3516430398111581 0.82903758062907751 0 -0.55919289150049634 0.13979822287512408 0 0.20725939515726938 1 I I -0.70710678118654746 0.70710678118654746 0.25 forward I I I I #
loop $-1 $-1 $315 $81 #
coedge $-1 $199 $199 $316 $317 reversed $125 $-1 #
face $-1 $318 $319 $65 $-1 $320 forward single #
loop $-1 $-1 $321 $127 #
plane-surface $-1 -139.58565298868166 13.896387668508964 66.303377460086324 0 -1 0 0.82903758062907751 0 -0.55919289150049634 forward_v I I I I #
coedge $-1 $322 $323 $324 $325 reversed $128 $-1 #
face $-1 $-1 $326 $66 $-1 $327 forward single #
loop $-1 $328 $329 $130 #
cone-surface $-1 -49.806111091249853 9.4179885653911484 9.3516430398111581 0.82903758062907751 0 -0.55919289150049634 0.13979822287512408 0 0.20725939515726938 1 I I -0.70710678118654746 0.70710678118654746 0.25 forward I I I I #
loop $-1 $-1 $330 $83 #
coedge $-1 $208 $208 $331 $332 reversed $131 $-1 #
face $-1 $-1 $333 $67 $-1 $334 forward single #
loop $-1 $335 $336 $133 #
cone-surface $-1 -49.806111091249853 12.105028027261845 9.3516430398111581 0.82903758062907751 0 -0.55919289150049634 0.13979822287512408 0 0.20725939515726938 1 I I -0.70710678118654746 0.70710678118654746 0.25 forward I I I I #
loop $-1 $-1 $337 $84 #
coedge $-1 $213 $213 $338 $339 reversed $134 $-1 #
face $-1 $340 $341 $51 $-1 $342 reversed single #
loop $-1 $-1 $343 $136 #
plane-surface $-1 0 -25.531227973313285 0 0 1 0 0 0 1 forward_v I I I I #
coedge $-1 $344 $345 $346 $347 forward $137 $-1 #
coedge $-1 $348 $139 $349 $350 forward $86 $-1 #
coedge $-1 $139 $348 $351 $352 forward $86 $-1 #
coedge $-1 $353 $354 $139 $221 reversed $355 $-1 #
edge $-1 $356 -25.531227973313285 $357 25.531227973313285 $220 $358 forward 7 unknown #
face $-1 $359 $360 $52 $-1 $361 reversed single #
loop $-1 $-1 $362 $140 #
plane-surface $-1 -52.513809625537888 0 0 1 0 0 0 0 -1 forward_v I I I I #
coedge $-1 $363 $364 $227 $365 reversed $141 $-1 #
coedge $-1 $366 $143 $367 $368 reversed $89 $-1 #
coedge $-1 $143 $366 $225 $365 forward $89 $-1 #
coedge $-1 $369 $370 $143 $229 forward $371 $-1 #
edge $-1 $372 -16.578928448728654 $373 -1.3256706004406151 $228 $374 forward 7 unknown #
face $-1 $375 $376 $53 $-1 $377 forward single #
loop $-1 $-1 $378 $144 #
plane-surface $-1 0 -10.277970125025249 10.154439119141564 0 -1 0 0 0 -1 forward_v I I I I #
coedge $-1 $379 $380 $381 $382 reversed $145 $-1 #
coedge $-1 $235 $147 $383 $384 reversed $92 $-1 #
coedge $-1 $147 $234 $379 $385 reversed $92 $-1 #
coedge $-1 $381 $386 $147 $237 forward $376 $-1 #
edge $-1 $387 -19.78421797308102 $388 -11.244050755977028 $236 $389 forward 7 unknown #
loop $-1 $-1 $243 $148 #
plane-surface $-1 -14.99664166671478 -7.0704248943422989 82.806638687532683 0.7660444514056185 0 0.64278759981090561 0.64278759981090561 0 -0.7660444514056185 forward_v I I I I #
loop $-1 $-1 $390 $94 #
coedge $-1 $241 $241 $242 $391 reversed $149 $-1 #
coedge $-1 $242 $242 $241 $391 forward $151 $-1 #
coedge $-1 $243 $243 $152 $244 forward $238 $-1 #
edge $-1 $392 0 $392 6.2831853071796004 $243 $393 forward 7 unknown #
loop $-1 $-1 $250 $153 #
plane-surface $-1 -14.99664166671478 -7.0704248943422989 82.806638687532683 0.7660444514056185 0 0.64278759981090561 0.64278759981090561 0 -0.7660444514056185 forward_v I I I I #
loop $-1 $-1 $394 $97 #
coedge $-1 $248 $248 $249 $395 reversed $154 $-1 #
coedge $-1 $249 $249 $248 $395 forward $156 $-1 #
coedge $-1 $250 $250 $157 $251 forward $245 $-1 #
edge $-1 $396 0 $396 6.2831853071796004 $250 $397 forward 7 unknown #
face $-1 $398 $399 $56 $-1 $400 reversed single #
loop $-1 $-1 $401 $158 #
plane-surface $-1 65.459183304913736 1.6584292410875969 150.31708997978535 0 1 0 0.7660444514056185 0 0.64278759981090561 forward_v I I I I #
coedge $-1 $402 $403 $404 $405 reversed $159 $-1 #
coedge $-1 $257 $161 $406 $407 reversed $101 $-1 #
coedge $-1 $161 $256 $402 $408 reversed $101 $-1 #
coedge $-1 $404 $409 $161 $259 forward $410 $-1 #
edge $-1 $411 -19.78421797308102 $412 -11.244050755977028 $258 $413 forward 7 unknown #
loop $-1 $-1 $265 $162 #
plane-surface $-1 -14.99664166671478 4.8659744717705493 82.806638687532683 0.7660444514056185 0 0.64278759981090561 0.64278759981090561 0 -0.7660444514056185 forward_v I I I I #
loop $-1 $-1 $414 $103 #
coedge $-1 $263 $263 $264 $415 reversed $163 $-1 #
coedge $-1 $264 $264 $263 $415 forward $165 $-1 #
coedge $-1 $265 $265 $166 $266 forward $260 $-1 #
edge $-1 $416 0 $416 6.2831853071796004 $265 $417 forward 7 unknown #
loop $-1 $-1 $272 $167 #
plane-surface $-1 -14.99664166671478 4.8659744717705493 82.806638687532683 0.7660444514056185 0 0.64278759981090561 0.64278759981090561 0 -0.7660444514056185 forward_v I I I I #
loop $-1 $-1 $418 $106 #
coedge $-1 $270 $270 $271 $419 reversed $168 $-1 #
coedge $-1 $271 $271 $270 $419 forward $170 $-1 #
coedge $-1 $272 $272 $171 $273 forward $267 $-1 #
edge $-1 $420 0 $420 6.2831853071796004 $272 $421 forward 7 unknown #
face $-1 $422 $423 $59 $-1 $424 reversed single #
loop $-1 $-1 $425 $172 #
plane-surface $-1 65.459183304913736 13.594828607200441 150.31708997978535 0 1 0 0.7660444514056185 0 0.64278759981090561 forward_v I I I I #
coedge $-1 $426 $427 $428 $429 reversed $173 $-1 #
coedge $-1 $279 $175 $430 $431 reversed $110 $-1 #
coedge $-1 $175 $278 $426 $432 reversed $110 $-1 #
coedge $-1 $428 $433 $175 $281 forward $434 $-1 #
edge $-1 $435 -19.78421797308102 $436 -11.244050755977028 $280 $437 forward 7 unknown #
loop $-1 $-1 $287 $176 #
plane-surface $-1 -14.99664166671478 16.802373837883394 82.806638687532683 0.7660444514056185 0 0.64278759981090561 0.64278759981090561 0 -0.7660444514056185 forward_v I I I I #
loop $-1 $-1 $438 $112 #
coedge $-1 $285 $285 $286 $439 reversed $177 $-1 #
coedge $-1 $286 $286 $285 $439 forward $179 $-1 #
coedge $-1 $287 $287 $180 $288 forward $282 $-1 #
edge $-1 $440 0 $440 6.2831853071796004 $287 $441 forward 7 unknown #
loop $-1 $-1 $294 $181 #
plane-surface $-1 -14.99664166671478 16.802373837883394 82.806638687532683 0.7660444514056185 0 0.64278759981090561 0.64278759981090561 0 -0.7660444514056185 forward_v I I I I #
loop $-1 $-1 $442 $115 #
coedge $-1 $292 $292 $293 $443 reversed $182 $-1 #
coedge $-1 $293 $293 $292 $443 forward $184 $-1 #
coedge $-1 $294 $294 $185 $295 forward $289 $-1 #
edge $-1 $444 0 $444 6.2831853071796004 $294 $445 forward 7 unknown #
face $-1 $446 $447 $62 $-1 $448 forward single #
loop $-1 $-1 $449 $186 #
plane-surface $-1 -139.58565298868166 7.6266289241440148 66.303377460086324 0 -1 0 0.82903758062907751 0 -0.55919289150049634 forward_v I I I I #
coedge $-1 $450 $451 $452 $453 reversed $187 $-1 #
coedge $-1 $301 $189 $454 $455 reversed $119 $-1 #
coedge $-1 $189 $300 $450 $456 reversed $119 $-1 #
coedge $-1 $452 $457 $189 $303 forward $447 $-1 #
edge $-1 $458 17.279016868802941 $459 20.621819985806326 $302 $460 forward 7 unknown #
loop $-1 $-1 $309 $190 #
plane-surface $-1 -52.513809625537874 4.49174955196154 7.572679363664065 -0.82903758062907751 0 0.55919289150049634 0.55919289150049634 0 0.82903758062907751 forward_v I I I I #
loop $-1 $-1 $461 $121 #
coedge $-1 $307 $307 $308 $462 reversed $191 $-1 #
coedge $-1 $308 $308 $307 $462 forward $193 $-1 #
coedge $-1 $309 $309 $194 $310 forward $304 $-1 #
edge $-1 $463 0 $463 6.2831853071796004 $309 $464 forward 7 unknown #
loop $-1 $-1 $316 $195 #
plane-surface $-1 -52.513809625537874 4.49174955196154 7.572679363664065 -0.82903758062907751 0 0.55919289150049634 0.55919289150049634 0 0.82903758062907751 forward_v I I I I #
loop $-1 $-1 $465 $124 #
coedge $-1 $314 $314 $315 $466 reversed $196 $-1 #
coedge $-1 $315 $315 $314 $466 forward $198 $-1 #
coedge $-1 $316 $316 $199 $317 forward $311 $-1 #
edge $-1 $467 0 $467 6.2831853071796004 $316 $468 forward 7 unknown #
face $-1 $469 $470 $65 $-1 $471 forward single #
loop $-1 $-1 $472 $200 #
plane-surface $-1 0 0 12.528588944709504 0 0 1 1 0 0 forward_v I I I I #
coedge $-1 $473 $474 $475 $476 reversed $201 $-1 #
coedge $-1 $477 $203 $478 $479 reversed $128 $-1 #
coedge $-1 $203 $477 $472 $480 reversed $128 $-1 #
coedge $-1 $481 $482 $203 $325 forward $470 $-1 #
edge $-1 $483 -2.5618607856530852e-014 $484 5.9779070296003631 $324 $485 forward 7 unknown #
loop $-1 $-1 $331 $204 #
plane-surface $-1 -52.513809625537874 4.49174955196154 7.572679363664065 -0.82903758062907751 0 0.55919289150049634 0.55919289150049634 0 0.82903758062907751 forward_v I I I I #
loop $-1 $-1 $486 $130 #
coedge $-1 $329 $329 $330 $487 reversed $205 $-1 #
coedge $-1 $330 $330 $329 $487 forward $207 $-1 #
coedge $-1 $331 $331 $208 $332 forward $326 $-1 #
edge $-1 $488 0 $488 6.2831853071796004 $331 $489 forward 7 unknown #
loop $-1 $-1 $338 $209 #
plane-surface $-1 -52.513809625537874 4.49174955196154 7.572679363664065 -0.82903758062907751 0 0.55919289150049634 0.55919289150049634 0 0.82903758062907751 forward_v I I I I #
loop $-1 $-1 $490 $133 #
coedge $-1 $336 $336 $337 $491 reversed $210 $-1 #
coedge $-1 $337 $337 $336 $491 forward $212 $-1 #
coedge $-1 $338 $338 $213 $339 forward $333 $-1 #
edge $-1 $492 0 $492 6.2831853071796004 $338 $493 forward 7 unknown #
face $-1 $494 $495 $51 $-1 $496 reversed single #
loop $-1 $-1 $497 $214 #
plane-surface $-1 -52.513809625537888 0 0 1 0 0 0 0 -1 forward_v I I I I #
coedge $-1 $498 $351 $499 $500 forward $215 $-1 #
coedge $-1 $501 $217 $498 $502 forward $137 $-1 #
coedge $-1 $217 $501 $503 $504 forward $137 $-1 #
coedge $-1 $354 $353 $217 $347 reversed $355 $-1 #
edge $-1 $505 -25.531227973313285 $506 25.531227973313285 $346 $507 forward 7 unknown #
coedge $-1 $219 $218 $508 $509 forward $86 $-1 #
coedge $-1 $510 $511 $218 $350 reversed $495 $-1 #
edge $-1 $357 -52.513809625537888 $512 52.513809625537888 $349 $513 forward 7 unknown #
coedge $-1 $343 $514 $219 $352 reversed $215 $-1 #
edge $-1 $515 -52.513809625537888 $356 52.513809625537888 $351 $516 forward 7 unknown #
coedge $-1 $346 $220 $514 $517 forward $355 $-1 #
coedge $-1 $220 $346 $510 $518 reversed $355 $-1 #
loop $-1 $-1 $353 $494 #
vertex $-1 $221 $519 #
vertex $-1 $221 $520 #
straight-curve $-1 52.513809625537888 0 12.528588944709504 0 1 0 I I #
face $-1 $521 $522 $52 $-1 $523 forward single #
loop $-1 $-1 $367 $222 #
plane-surface $-1 0 -25.531227973313285 0 0 1 0 0 0 1 forward_v I I I I #
coedge $-1 $524 $525 $363 $526 forward $223 $-1 #
coedge $-1 $527 $225 $362 $526 reversed $141 $-1 #
coedge $-1 $225 $527 $369 $528 reversed $141 $-1 #
edge $-1 $529 -52.513809625537888 $373 52.513809625537888 $225 $530 forward 7 unknown #
coedge $-1 $227 $226 $524 $531 reversed $89 $-1 #
coedge $-1 $532 $533 $226 $368 forward $360 $-1 #
edge $-1 $534 -52.513809625537888 $372 52.513809625537888 $367 $535 forward 7 unknown #
coedge $-1 $536 $228 $364 $528 forward $371 $-1 #
coedge $-1 $228 $536 $532 $537 forward $371 $-1 #
loop $-1 $-1 $369 $521 #
vertex $-1 $368 $538 #
vertex $-1 $229 $539 #
straight-curve $-1 52.513809625537888 -8.9522995245846335 7.7802892935736239 0 1 0 I I #
face $-1 $-1 $540 $53 $-1 $541 reversed single #
loop $-1 $-1 $381 $230 #
plane-surface $-1 0 0 12.528588944709504 0 0 1 1 0 0 forward_v I I I I #
coedge $-1 $542 $543 $380 $544 reversed $231 $-1 #
coedge $-1 $545 $233 $235 $385 forward $145 $-1 #
coedge $-1 $233 $545 $378 $544 forward $145 $-1 #
coedge $-1 $546 $236 $233 $382 forward $376 $-1 #
edge $-1 $388 0.32766721648819708 $547 6.7427576778540992 $381 $548 forward 7 unknown #
coedge $-1 $549 $550 $234 $384 forward $540 $-1 #
edge $-1 $551 -72.807731273988509 $387 -62.629956045183171 $383 $552 forward 7 unknown #
edge $-1 $388 91.741477421929872 $551 105.02761925107581 $235 $553 forward 7 unknown #
coedge $-1 $236 $546 $549 $554 forward $376 $-1 #
vertex $-1 $384 $555 #
vertex $-1 $237 $556 #
straight-curve $-1 32.729591652456868 -3.8628796636593465 12.528588944709497 -1 0 0 I I #
coedge $-1 $390 $390 $-1 $557 reversed $240 $-1 #
edge $-1 $558 0 $558 6.2831853071796004 $241 $559 forward 7 unknown #
vertex $-1 $244 $560 #
ellipse-curve $-1 48.243726016985889 -8.4450871360635631 7.4397013303068285 0.7660444514056185 0 0.64278759981090561 0.3213937999054528 0 -0.38302222570280925 1 I I #
coedge $-1 $394 $394 $-1 $561 reversed $247 $-1 #
edge $-1 $562 0 $562 6.2831853071796004 $248 $563 forward 7 unknown #
vertex $-1 $251 $564 #
ellipse-curve $-1 48.243726016985889 -5.6957626526210312 7.4397013303068285 0.7660444514056185 0 0.64278759981090561 0.3213937999054528 0 -0.38302222570280925 1 I I #
face $-1 $-1 $410 $56 $-1 $565 forward single #
loop $-1 $-1 $566 $252 #
plane-surface $-1 52.513809625537888 0 0 -1 0 0 0 0 1 forward_v I I I I #
coedge $-1 $567 $568 $569 $570 reversed $253 $-1 #
coedge $-1 $571 $255 $257 $408 forward $159 $-1 #
coedge $-1 $255 $571 $567 $572 forward $159 $-1 #
coedge $-1 $569 $258 $255 $405 forward $410 $-1 #
edge $-1 $412 -5.6405324665682279 $573 0.77455799479767773 $404 $574 forward 7 unknown #
coedge $-1 $575 $576 $256 $407 forward $399 $-1 #
edge $-1 $577 -72.807731273988509 $411 -62.629956045183171 $406 $578 forward 7 unknown #
edge $-1 $412 91.741477421929872 $577 105.02761925107581 $257 $579 forward 7 unknown #
coedge $-1 $258 $569 $575 $580 forward $410 $-1 #
loop $-1 $-1 $569 $398 #
vertex $-1 $407 $581 #
vertex $-1 $259 $582 #
straight-curve $-1 32.729591652456868 8.0735197024535026 12.528588944709497 -1 0 0 I I #
coedge $-1 $414 $414 $-1 $583 reversed $262 $-1 #
edge $-1 $584 0 $584 6.2831853071796004 $263 $585 forward 7 unknown #
vertex $-1 $266 $586 #
ellipse-curve $-1 48.243726016985889 3.4913122300492816 7.4397013303068285 0.7660444514056185 0 0.64278759981090561 0.3213937999054528 0 -0.38302222570280925 1 I I #
coedge $-1 $418 $418 $-1 $587 reversed $269 $-1 #
edge $-1 $588 0 $588 6.2831853071796004 $270 $589 forward 7 unknown #
vertex $-1 $273 $590 #
ellipse-curve $-1 48.243726016985889 6.240636713491817 7.4397013303068285 0.7660444514056185 0 0.64278759981090561 0.3213937999054528 0 -0.38302222570280925 1 I I #
face $-1 $-1 $434 $59 $-1 $591 forward single #
loop $-1 $-1 $592 $274 #
plane-surface $-1 52.513809625537888 0 0 -1 0 0 0 0 1 forward_v I I I I #
coedge $-1 $593 $594 $595 $596 reversed $275 $-1 #
coedge $-1 $597 $277 $279 $432 forward $173 $-1 #
coedge $-1 $277 $597 $593 $598 forward $173 $-1 #
coedge $-1 $595 $280 $277 $429 forward $434 $-1 #
edge $-1 $436 -11.60873214962465 $599 -5.1936416882587437 $428 $600 forward 7 unknown #
coedge $-1 $601 $602 $278 $431 forward $423 $-1 #
edge $-1 $603 -72.807731273988509 $435 -62.629956045183171 $430 $604 forward 7 unknown #
edge $-1 $436 91.741477421929872 $603 105.02761925107581 $279 $605 forward 7 unknown #
coedge $-1 $280 $595 $601 $606 forward $434 $-1 #
loop $-1 $-1 $595 $422 #
vertex $-1 $431 $607 #
vertex $-1 $281 $608 #
straight-curve $-1 32.729591652456868 20.009919068566347 12.528588944709497 -1 0 0 I I #
coedge $-1 $438 $438 $-1 $609 reversed $284 $-1 #
edge $-1 $610 0 $610 6.2831853071796004 $285 $611 forward 7 unknown #
vertex $-1 $288 $612 #
ellipse-curve $-1 48.243726016985889 15.427711596162126 7.4397013303068285 0.7660444514056185 0 0.64278759981090561 0.3213937999054528 0 -0.38302222570280925 1 I I #
coedge $-1 $442 $442 $-1 $613 reversed $291 $-1 #
edge $-1 $614 0 $614 6.2831853071796004 $292 $615 forward 7 unknown #
vertex $-1 $295 $616 #
ellipse-curve $-1 48.243726016985889 18.177036079604662 7.4397013303068285 0.7660444514056185 0 0.64278759981090561 0.3213937999054528 0 -0.38302222570280925 1 I I #
face $-1 $-1 $617 $62 $-1 $618 reversed single #
loop $-1 $-1 $302 $296 #
plane-surface $-1 0 0 12.528588944709504 0 0 1 1 0 0 forward_v I I I I #
coedge $-1 $619 $620 $621 $622 reversed $297 $-1 #
coedge $-1 $623 $299 $301 $456 forward $187 $-1 #
coedge $-1 $299 $623 $619 $624 forward $187 $-1 #
coedge $-1 $621 $302 $299 $453 forward $447 $-1 #
edge $-1 $459 -0.8890045962017048 $625 5.3807541481632448 $452 $626 forward 7 unknown #
coedge $-1 $627 $628 $300 $455 forward $617 $-1 #
edge $-1 $629 -25.579009366379118 $458 -20.623099785333658 $454 $630 forward 7 unknown #
edge $-1 $459 -5.9779070296003631 $629 2.5618607856530852e-014 $301 $631 forward 7 unknown #
coedge $-1 $302 $621 $627 $632 forward $447 $-1 #
vertex $-1 $455 $633 #
vertex $-1 $303 $634 #
straight-curve $-1 -69.792826494340829 1.3568701797790652 12.528588944709504 1 0 0 I I #
coedge $-1 $461 $461 $-1 $635 reversed $306 $-1 #
edge $-1 $636 0 $636 6.2831853071796004 $307 $637 forward 7 unknown #
vertex $-1 $310 $638 #
ellipse-curve $-1 -50.842408067036196 3.1482298210261952 10.050634154186774 -0.82903758062907751 0 0.55919289150049634 0.27959644575024817 0 0.41451879031453875 1 I I #
coedge $-1 $465 $465 $-1 $639 reversed $313 $-1 #
edge $-1 $640 0 $640 6.2831853071796004 $314 $641 forward 7 unknown #
vertex $-1 $317 $642 #
ellipse-curve $-1 -50.842408067036196 5.8352692828968884 10.050634154186774 -0.82903758062907751 0 0.55919289150049634 0.27959644575024817 0 0.41451879031453875 1 I I #
face $-1 $-1 $643 $65 $-1 $644 reversed single #
loop $-1 $-1 $481 $318 #
plane-surface $-1 -139.58565298868166 7.6266289241440148 66.303377460086324 0 -1 0 0.82903758062907751 0 -0.55919289150049634 forward_v I I I I #
coedge $-1 $475 $645 $323 $480 forward $319 $-1 #
coedge $-1 $474 $321 $477 $646 reversed $201 $-1 #
coedge $-1 $321 $473 $647 $648 reversed $201 $-1 #
coedge $-1 $649 $472 $321 $476 forward $319 $-1 #
edge $-1 $650 -20.621819985806326 $651 -17.279016868802941 $475 $652 forward 7 unknown #
coedge $-1 $323 $322 $473 $646 forward $128 $-1 #
coedge $-1 $653 $647 $322 $479 forward $643 $-1 #
edge $-1 $654 -11.650512892528194 $483 -5.3807541481632448 $478 $655 forward 7 unknown #
edge $-1 $484 5.3807541481632448 $650 11.650512892528194 $472 $656 forward 7 unknown #
coedge $-1 $482 $324 $645 $657 reversed $470 $-1 #
coedge $-1 $324 $481 $653 $658 reversed $470 $-1 #
vertex $-1 $479 $659 #
vertex $-1 $480 $660 #
straight-curve $-1 -52.513809625537874 7.6266289241440148 7.572679363664065 0.55919289150049634 0 0.82903758062907751 I I #
coedge $-1 $486 $486 $-1 $661 reversed $328 $-1 #
edge $-1 $662 0 $662 6.2831853071796004 $329 $663 forward 7 unknown #
vertex $-1 $332 $664 #
ellipse-curve $-1 -50.842408067036196 9.4179885653911484 10.050634154186774 -0.82903758062907751 0 0.55919289150049634 0.27959644575024817 0 0.41451879031453875 1 I I #
coedge $-1 $490 $490 $-1 $665 reversed $335 $-1 #
edge $-1 $666 0 $666 6.2831853071796004 $336 $667 forward 7 unknown #
vertex $-1 $339 $668 #
ellipse-curve $-1 -50.842408067036196 12.105028027261845 10.050634154186774 -0.82903758062907751 0 0.55919289150049634 0.27959644575024817 0 0.41451879031453875 1 I I #
face $-1 $-1 $355 $51 $-1 $669 reversed single #
loop $-1 $-1 $510 $340 #
plane-surface $-1 0 25.531227973313285 0 0 -1 0 0 0 -1 forward_v I I I I #
coedge $-1 $670 $508 $511 $671 forward $341 $-1 #
coedge $-1 $514 $343 $344 $502 reversed $215 $-1 #
coedge $-1 $508 $670 $343 $500 reversed $341 $-1 #
edge $-1 $515 -12.528588944709504 $672 12.528588944709504 $499 $673 forward 7 unknown #
coedge $-1 $345 $344 $670 $674 forward $137 $-1 #
edge $-1 $506 -52.513809625537888 $672 52.513809625537888 $498 $675 forward 7 unknown #
coedge $-1 $511 $510 $345 $504 reversed $495 $-1 #
edge $-1 $676 -52.513809625537888 $505 52.513809625537888 $503 $677 forward 7 unknown #
vertex $-1 $347 $678 #
vertex $-1 $517 $679 #
straight-curve $-1 52.513809625537888 0 -12.528588944709504 0 -1 0 I I #
coedge $-1 $497 $499 $348 $509 reversed $341 $-1 #
edge $-1 $512 -25.531227973313285 $515 25.531227973313285 $508 $680 forward 7 unknown #
coedge $-1 $503 $349 $354 $518 forward $495 $-1 #
coedge $-1 $349 $503 $497 $671 reversed $495 $-1 #
vertex $-1 $350 $681 #
straight-curve $-1 0 25.531227973313285 12.528588944709504 -1 0 0 I I #
coedge $-1 $351 $498 $353 $517 reversed $215 $-1 #
vertex $-1 $509 $682 #
straight-curve $-1 0 -25.531227973313285 12.528588944709504 1 0 0 I I #
edge $-1 $356 -12.528588944709504 $506 12.528588944709504 $353 $683 forward 7 unknown #
edge $-1 $357 -12.528588944709504 $505 12.528588944709504 $354 $684 forward 7 unknown #
point $-1 52.513809625537888 -25.531227973313285 12.528588944709504 #
point $-1 52.513809625537888 25.531227973313285 12.528588944709504 #
face $-1 $-1 $371 $52 $-1 $685 reversed single #
loop $-1 $-1 $686 $359 #
plane-surface $-1 0 0 12.528588944709504 0 0 1 1 0 0 forward_v I I I I #
coedge $-1 $687 $362 $366 $531 forward $223 $-1 #
coedge $-1 $362 $687 $688 $689 reversed $223 $-1 #
edge $-1 $690 -7.4513693851387224 $529 -2.7030697340028418 $362 $691 forward 7 unknown #
coedge $-1 $364 $363 $686 $692 reversed $141 $-1 #
edge $-1 $373 2.7030697340028418 $693 7.4513693851387224 $369 $694 forward 7 unknown #
vertex $-1 $531 $695 #
straight-curve $-1 0 -10.277970125025249 7.7802892935736239 1 0 0 I I #
edge $-1 $529 1.3256706004406151 $534 16.578928448728654 $524 $696 forward 7 unknown #
coedge $-1 $697 $367 $370 $537 reversed $360 $-1 #
coedge $-1 $367 $697 $687 $698 forward $360 $-1 #
vertex $-1 $368 $699 #
straight-curve $-1 0 -25.531227973313285 7.7802892935736239 1 0 0 I I #
coedge $-1 $370 $369 $700 $701 reversed $371 $-1 #
edge $-1 $702 -12.528588944709504 $372 -7.7802892935736239 $370 $703 forward 7 unknown #
point $-1 52.513809625537888 -25.531227973313285 7.7802892935736239 #
point $-1 52.513809625537888 -10.277970125025249 7.7802892935736239 #
loop $-1 $-1 $383 $375 #
plane-surface $-1 52.513809625537888 0 0 -1 0 0 0 0 1 forward_v I I I I #
coedge $-1 $543 $378 $704 $705 reversed $231 $-1 #
coedge $-1 $378 $542 $546 $706 reversed $231 $-1 #
edge $-1 $707 -105.02761925107581 $547 -91.741477421929872 $378 $708 forward 7 unknown #
coedge $-1 $380 $379 $550 $709 reversed $145 $-1 #
coedge $-1 $386 $381 $543 $706 forward $376 $-1 #
vertex $-1 $706 $710 #
straight-curve $-1 43.973642408433889 -3.5352124471711495 12.528588944709504 0 -1 0 I I #
coedge $-1 $704 $383 $386 $554 reversed $540 $-1 #
coedge $-1 $383 $704 $545 $709 forward $540 $-1 #
vertex $-1 $384 $711 #
straight-curve $-1 52.513809625537888 -3.8628796636593465 75.158544989892675 0 0 1 I I #
straight-curve $-1 -14.99664166671478 -3.8628796636593465 82.806638687532683 0.64278759981090561 0 -0.7660444514056185 I I #
edge $-1 $712 -10.277970125025249 $387 -3.8628796636593465 $549 $713 forward 7 unknown #
point $-1 52.513809625537888 -3.8628796636593465 12.528588944709504 #
point $-1 43.973642408433896 -3.8628796636593465 12.528588944709497 #
edge $-1 $714 1 $714 0 $390 $-1 forward 7 unknown #
vertex $-1 $391 $715 #
ellipse-curve $-1 46.851136831620167 -8.4450871360635631 6.2711802890782673 0.7660444514056185 0 0.64278759981090561 0.3213937999054528 0 -0.38302222570280925 1 I I #
point $-1 48.56511981689134 -8.4450871360635631 7.0566791046040187 #
edge $-1 $716 1 $716 0 $394 $-1 forward 7 unknown #
vertex $-1 $395 $717 #
ellipse-curve $-1 46.851136831620167 -5.6957626526210312 6.2711802890782673 0.7660444514056185 0 0.64278759981090561 0.3213937999054528 0 -0.38302222570280925 1 I I #
point $-1 48.56511981689134 -5.6957626526210312 7.0566791046040187 #
plane-surface $-1 0 0 12.528588944709504 0 0 1 1 0 0 forward_v I I I I #
coedge $-1 $576 $575 $568 $718 forward $399 $-1 #
coedge $-1 $568 $401 $403 $572 reversed $253 $-1 #
coedge $-1 $401 $567 $566 $718 reversed $253 $-1 #
coedge $-1 $409 $404 $401 $570 forward $410 $-1 #
edge $-1 $573 11.244050755977028 $719 19.78421797308102 $569 $720 forward 7 unknown #
coedge $-1 $403 $402 $576 $721 reversed $159 $-1 #
edge $-1 $722 -105.02761925107581 $573 -91.741477421929872 $567 $723 forward 7 unknown #
vertex $-1 $405 $724 #
straight-curve $-1 43.973642408433889 2.4329872358852747 12.528588944709504 0 -1 0 I I #
coedge $-1 $566 $406 $409 $580 reversed $399 $-1 #
coedge $-1 $406 $566 $571 $721 forward $399 $-1 #
vertex $-1 $407 $725 #
straight-curve $-1 52.513809625537888 8.0735197024535026 75.158544989892675 0 0 1 I I #
straight-curve $-1 -14.99664166671478 8.0735197024535026 82.806638687532683 0.64278759981090561 0 -0.7660444514056185 I I #
edge $-1 $719 1.6584292410875969 $411 8.0735197024535026 $575 $726 forward 7 unknown #
point $-1 52.513809625537888 8.0735197024535026 12.528588944709504 #
point $-1 43.973642408433896 8.0735197024535026 12.528588944709497 #
edge $-1 $727 1 $727 0 $414 $-1 forward 7 unknown #
vertex $-1 $415 $728 #
ellipse-curve $-1 46.851136831620167 3.4913122300492816 6.2711802890782673 0.7660444514056185 0 0.64278759981090561 0.3213937999054528 0 -0.38302222570280925 1 I I #
point $-1 48.56511981689134 3.4913122300492816 7.0566791046040187 #
edge $-1 $729 1 $729 0 $418 $-1 forward 7 unknown #
vertex $-1 $419 $730 #
ellipse-curve $-1 46.851136831620167 6.240636713491817 6.2711802890782673 0.7660444514056185 0 0.64278759981090561 0.3213937999054528 0 -0.38302222570280925 1 I I #
point $-1 48.56511981689134 6.240636713491817 7.0566791046040187 #
plane-surface $-1 0 0 12.528588944709504 0 0 1 1 0 0 forward_v I I I I #
coedge $-1 $602 $601 $594 $731 forward $423 $-1 #
coedge $-1 $594 $425 $427 $598 reversed $275 $-1 #
coedge $-1 $425 $593 $592 $731 reversed $275 $-1 #
coedge $-1 $433 $428 $425 $596 forward $434 $-1 #
edge $-1 $599 11.244050755977028 $732 19.78421797308102 $595 $733 forward 7 unknown #
coedge $-1 $427 $426 $602 $734 reversed $173 $-1 #
edge $-1 $735 -105.02761925107581 $599 -91.741477421929872 $593 $736 forward 7 unknown #
vertex $-1 $429 $737 #
straight-curve $-1 43.973642408433889 8.401186918941697 12.528588944709504 0 -1 0 I I #
coedge $-1 $592 $430 $433 $606 reversed $423 $-1 #
coedge $-1 $430 $592 $597 $734 forward $423 $-1 #
vertex $-1 $431 $738 #
straight-curve $-1 52.513809625537888 20.009919068566347 75.158544989892675 0 0 1 I I #
straight-curve $-1 -14.99664166671478 20.009919068566347 82.806638687532683 0.64278759981090561 0 -0.7660444514056185 I I #
edge $-1 $732 13.594828607200441 $435 20.009919068566347 $601 $739 forward 7 unknown #
point $-1 52.513809625537888 20.009919068566347 12.528588944709504 #
point $-1 43.973642408433896 20.009919068566347 12.528588944709497 #
edge $-1 $740 1 $740 0 $438 $-1 forward 7 unknown #
vertex $-1 $439 $741 #
ellipse-curve $-1 46.851136831620167 15.427711596162126 6.2711802890782673 0.7660444514056185 0 0.64278759981090561 0.3213937999054528 0 -0.38302222570280925 1 I I #
point $-1 48.56511981689134 15.427711596162126 7.0566791046040187 #
edge $-1 $742 1 $742 0 $442 $-1 forward 7 unknown #
vertex $-1 $443 $743 #
ellipse-curve $-1 46.851136831620167 18.177036079604662 6.2711802890782673 0.7660444514056185 0 0.64278759981090561 0.3213937999054528 0 -0.38302222570280925 1 I I #
point $-1 48.56511981689134 18.177036079604662 7.0566791046040187 #
loop $-1 $-1 $454 $446 #
plane-surface $-1 -52.513809625537888 0 0 1 0 0 0 0 -1 forward_v I I I I #
coedge $-1 $620 $449 $451 $624 reversed $297 $-1 #
coedge $-1 $449 $619 $744 $745 reversed $297 $-1 #
coedge $-1 $457 $452 $449 $622 forward $447 $-1 #
edge $-1 $625 -20.621819985806326 $746 -17.279016868802941 $621 $747 forward 7 unknown #
coedge $-1 $451 $450 $628 $748 reversed $187 $-1 #
edge $-1 $749 -2.5618607856530852e-014 $625 5.9779070296003631 $619 $750 forward 7 unknown #
vertex $-1 $453 $751 #
straight-curve $-1 -49.171006508534504 2.24587477598077 12.528588944709504 0 1 0 I I #
coedge $-1 $744 $454 $457 $632 reversed $617 $-1 #
coedge $-1 $454 $744 $623 $748 forward $617 $-1 #
vertex $-1 $455 $752 #
straight-curve $-1 -52.513809625537888 1.3568701797790652 33.151688730043162 0 0 1 I I #
straight-curve $-1 -52.513809625537874 1.3568701797790652 7.572679363664065 -0.55919289150049634 0 -0.82903758062907751 I I #
edge $-1 $746 -7.6266289241440148 $458 -1.3568701797790652 $627 $753 forward 7 unknown #
point $-1 -52.513809625537888 1.3568701797790652 12.528588944709504 #
point $-1 -49.171006508534504 1.3568701797790652 12.528588944709504 #
edge $-1 $754 1 $754 0 $461 $-1 forward 7 unknown #
vertex $-1 $462 $755 #
ellipse-curve $-1 -50.013370486407126 3.1482298210261952 9.4914412626862816 -0.82903758062907751 0 0.55919289150049634 0.27959644575024817 0 0.41451879031453875 1 I I #
point $-1 -50.562811621285952 3.1482298210261952 10.465152944501318 #
edge $-1 $756 1 $756 0 $465 $-1 forward 7 unknown #
vertex $-1 $466 $757 #
ellipse-curve $-1 -50.013370486407126 5.8352692828968884 9.4914412626862816 -0.82903758062907751 0 0.55919289150049634 0.27959644575024817 0 0.41451879031453875 1 I I #
point $-1 -50.562811621285952 5.8352692828968884 10.465152944501318 #
loop $-1 $-1 $478 $469 #
plane-surface $-1 -52.513809625537888 0 0 1 0 0 0 0 -1 forward_v I I I I #
coedge $-1 $472 $649 $481 $657 forward $319 $-1 #
edge $-1 $654 -2.5618607856530852e-014 $650 5.9779070296003631 $473 $758 forward 7 unknown #
coedge $-1 $478 $759 $474 $648 forward $643 $-1 #
edge $-1 $651 20.623099785333658 $654 25.579009366379118 $647 $760 forward 7 unknown #
coedge $-1 $645 $475 $759 $761 forward $319 $-1 #
vertex $-1 $476 $762 #
vertex $-1 $761 $763 #
straight-curve $-1 -69.792826494340829 13.896387668508964 12.528588944709504 -1 0 0 I I #
coedge $-1 $759 $478 $482 $658 forward $643 $-1 #
vertex $-1 $648 $764 #
straight-curve $-1 -52.513809625537888 2.24587477598077 7.5726793636640419 0 -1 0 I I #
straight-curve $-1 -49.171006508534504 2.24587477598077 12.528588944709504 0 1 0 I I #
edge $-1 $765 17.279016868802941 $484 20.621819985806326 $645 $766 forward 7 unknown #
edge $-1 $483 -25.579009366379118 $765 -20.623099785333658 $653 $767 forward 7 unknown #
point $-1 -52.513809625537888 7.6266289241440148 7.5726793636640437 #
point $-1 -49.171006508534504 7.6266289241440148 12.528588944709504 #
edge $-1 $768 1 $768 0 $486 $-1 forward 7 unknown #
vertex $-1 $487 $769 #
ellipse-curve $-1 -50.013370486407126 9.4179885653911484 9.4914412626862816 -0.82903758062907751 0 0.55919289150049634 0.27959644575024817 0 0.41451879031453875 1 I I #
point $-1 -50.562811621285952 9.4179885653911484 10.465152944501318 #
edge $-1 $770 1 $770 0 $490 $-1 forward 7 unknown #
vertex $-1 $491 $771 #
ellipse-curve $-1 -50.013370486407126 12.105028027261845 9.4914412626862816 -0.82903758062907751 0 0.55919289150049634 0.27959644575024817 0 0.41451879031453875 1 I I #
point $-1 -50.562811621285952 12.105028027261845 10.465152944501318 #
plane-surface $-1 52.513809625537888 0 0 -1 0 0 0 0 1 forward_v I I I I #
coedge $-1 $499 $497 $501 $674 reversed $341 $-1 #
edge $-1 $512 -12.528588944709504 $676 12.528588944709504 $511 $772 forward 7 unknown #
vertex $-1 $674 $773 #
straight-curve $-1 -52.513809625537888 -25.531227973313285 0 0 0 -1 I I #
edge $-1 $672 -25.531227973313285 $676 25.531227973313285 $670 $774 forward 7 unknown #
straight-curve $-1 0 -25.531227973313285 -12.528588944709504 -1 0 0 I I #
vertex $-1 $504 $775 #
straight-curve $-1 0 25.531227973313285 -12.528588944709504 1 0 0 I I #
point $-1 52.513809625537888 25.531227973313285 -12.528588944709504 #
point $-1 52.513809625537888 -25.531227973313285 -12.528588944709504 #
straight-curve $-1 -52.513809625537888 0 12.528588944709504 0 -1 0 I I #
point $-1 -52.513809625537888 25.531227973313285 12.528588944709504 #
point $-1 -52.513809625537888 -25.531227973313285 12.528588944709504 #
straight-curve $-1 52.513809625537888 -25.531227973313285 0 0 0 -1 I I #
straight-curve $-1 52.513809625537888 25.531227973313285 0 0 0 -1 I I #
plane-surface $-1 52.513809625537888 0 0 -1 0 0 0 0 1 forward_v I I I I #
coedge $-1 $688 $700 $527 $692 forward $522 $-1 #
coedge $-1 $525 $524 $533 $698 reversed $223 $-1 #
coedge $-1 $776 $686 $525 $689 forward $522 $-1 #
edge $-1 $690 10.277970125025249 $777 25.531227973313285 $525 $778 forward 7 unknown #
vertex $-1 $689 $779 #
straight-curve $-1 -52.513809625537888 -10.277970125025249 5.0772195595707821 0 0 -1 I I #
edge $-1 $693 -52.513809625537888 $690 52.513809625537888 $686 $780 forward 7 unknown #
vertex $-1 $528 $781 #
straight-curve $-1 52.513809625537888 -10.277970125025249 5.0772195595707821 0 0 1 I I #
point $-1 -52.513809625537888 -10.277970125025249 7.7802892935736239 #
straight-curve $-1 -52.513809625537888 -8.9522995245846335 7.7802892935736239 0 -1 0 I I #
coedge $-1 $533 $532 $776 $782 reversed $360 $-1 #
edge $-1 $777 -12.528588944709504 $534 -7.7802892935736239 $687 $783 forward 7 unknown #
point $-1 -52.513809625537888 -25.531227973313285 7.7802892935736239 #
coedge $-1 $686 $776 $536 $701 forward $522 $-1 #
edge $-1 $702 -25.531227973313285 $693 -10.277970125025249 $536 $784 forward 7 unknown #
vertex $-1 $701 $785 #
straight-curve $-1 52.513809625537888 -25.531227973313285 0 0 0 -1 I I #
coedge $-1 $550 $549 $542 $705 forward $540 $-1 #
edge $-1 $712 62.629956045183171 $707 72.807731273988509 $704 $786 forward 7 unknown #
edge $-1 $547 43.973642408433896 $712 52.513809625537888 $546 $787 forward 7 unknown #
vertex $-1 $705 $788 #
straight-curve $-1 -14.99664166671478 -10.277970125025252 82.806638687532683 -0.64278759981090561 0 0.7660444514056185 I I #
edge $-1 $707 -6.7427576778541027 $551 -0.32766721648819708 $550 $789 forward 7 unknown #
point $-1 43.973642408433896 -10.277970125025249 12.528588944709504 #
point $-1 52.513809625537888 -3.8628796636593465 2.3508137159041667 #
vertex $-1 $554 $790 #
straight-curve $-1 52.513809625537888 0 12.528588944709504 0 1 0 I I #
vertex $-1 $557 $791 #
point $-1 47.172530631525625 -8.4450871360635631 5.8881580633754584 #
vertex $-1 $561 $792 #
point $-1 47.172530631525625 -5.6957626526210312 5.8881580633754584 #
edge $-1 $719 62.629956045183171 $722 72.807731273988509 $566 $793 forward 7 unknown #
vertex $-1 $580 $794 #
straight-curve $-1 32.729591652456868 1.6584292410875969 12.528588944709497 1 0 0 I I #
edge $-1 $722 -0.77455799479767773 $577 5.6405324665682279 $576 $795 forward 7 unknown #
vertex $-1 $721 $796 #
straight-curve $-1 -14.99664166671478 1.6584292410875969 82.806638687532683 -0.64278759981090561 0 0.7660444514056185 I I #
point $-1 43.973642408433896 1.6584292410875969 12.528588944709497 #
point $-1 52.513809625537888 8.0735197024535026 2.3508137159041667 #
straight-curve $-1 52.513809625537888 0 12.528588944709504 0 1 0 I I #
vertex $-1 $583 $797 #
point $-1 47.172530631525625 3.4913122300492816 5.8881580633754584 #
vertex $-1 $587 $798 #
point $-1 47.172530631525625 6.240636713491817 5.8881580633754584 #
edge $-1 $732 62.629956045183171 $735 72.807731273988509 $592 $799 forward 7 unknown #
vertex $-1 $606 $800 #
straight-curve $-1 32.729591652456868 13.594828607200441 12.528588944709497 1 0 0 I I #
edge $-1 $735 5.1936416882587437 $603 11.60873214962465 $602 $801 forward 7 unknown #
vertex $-1 $734 $802 #
straight-curve $-1 -14.99664166671478 13.594828607200441 82.806638687532683 -0.64278759981090561 0 0.7660444514056185 I I #
point $-1 43.973642408433896 13.594828607200441 12.528588944709497 #
point $-1 52.513809625537888 20.009919068566347 2.3508137159041667 #
straight-curve $-1 52.513809625537888 0 12.528588944709504 0 1 0 I I #
vertex $-1 $609 $803 #
point $-1 47.172530631525625 15.427711596162126 5.8881580633754584 #
vertex $-1 $613 $804 #
point $-1 47.172530631525625 18.177036079604662 5.8881580633754584 #
coedge $-1 $628 $627 $620 $745 forward $617 $-1 #
edge $-1 $746 20.623099785333658 $749 25.579009366379118 $744 $805 forward 7 unknown #
vertex $-1 $632 $806 #
straight-curve $-1 -69.792826494340829 7.6266289241440148 12.528588944709504 -1 0 0 I I #
edge $-1 $749 -5.3807541481632448 $629 0.8890045962017048 $628 $807 forward 7 unknown #
vertex $-1 $748 $808 #
straight-curve $-1 -52.513809625537874 7.6266289241440148 7.572679363664065 0.55919289150049634 0 0.82903758062907751 I I #
point $-1 -49.171006508534504 7.6266289241440148 12.528588944709504 #
point $-1 -52.513809625537888 1.3568701797790652 7.5726793636640437 #
straight-curve $-1 -52.513809625537888 0 12.528588944709504 0 -1 0 I I #
vertex $-1 $635 $809 #
point $-1 -49.733774040656876 3.1482298210261952 9.9059600530008218 #
vertex $-1 $639 $810 #
point $-1 -49.733774040656876 5.8352692828968884 9.9059600530008218 #
straight-curve $-1 -52.513809625537874 13.896387668508964 7.572679363664065 0.55919289150049634 0 0.82903758062907751 I I #
coedge $-1 $647 $653 $649 $761 reversed $643 $-1 #
straight-curve $-1 -52.513809625537888 13.896387668508964 33.151688730043162 0 0 -1 I I #
edge $-1 $651 -13.896387668508964 $765 -7.6266289241440148 $759 $811 forward 7 unknown #
point $-1 -49.171006508534504 13.896387668508964 12.528588944709504 #
point $-1 -52.513809625537888 13.896387668508964 12.528588944709504 #
point $-1 -52.513809625537888 13.896387668508964 7.5726793636640437 #
vertex $-1 $658 $812 #
straight-curve $-1 -69.792826494340829 7.6266289241440148 12.528588944709504 1 0 0 I I #
straight-curve $-1 -52.513809625537888 7.6266289241440148 33.151688730043162 0 0 1 I I #
vertex $-1 $661 $813 #
point $-1 -49.733774040656876 9.4179885653911484 9.9059600530008218 #
vertex $-1 $665 $814 #
point $-1 -49.733774040656876 12.105028027261845 9.9059600530008218 #
straight-curve $-1 -52.513809625537888 25.531227973313285 0 0 0 -1 I I #
point $-1 -52.513809625537888 -25.531227973313285 -12.528588944709504 #
straight-curve $-1 -52.513809625537888 0 -12.528588944709504 0 1 0 I I #
point $-1 -52.513809625537888 25.531227973313285 -12.528588944709504 #
coedge $-1 $700 $688 $697 $782 forward $522 $-1 #
vertex $-1 $689 $815 #
straight-curve $-1 -52.513809625537888 0 12.528588944709504 0 -1 0 I I #
point $-1 -52.513809625537888 -10.277970125025249 12.528588944709504 #
straight-curve $-1 0 -10.277970125025249 12.528588944709504 -1 0 0 I I #
point $-1 52.513809625537888 -10.277970125025249 12.528588944709504 #
edge $-1 $777 -52.513809625537888 $702 52.513809625537888 $697 $816 forward 7 unknown #
straight-curve $-1 -52.513809625537888 -25.531227973313285 0 0 0 -1 I I #
straight-curve $-1 52.513809625537888 0 12.528588944709504 0 1 0 I I #
point $-1 52.513809625537888 -25.531227973313285 12.528588944709504 #
straight-curve $-1 52.513809625537888 -10.277970125025252 75.158544989892675 0 0 -1 I I #
straight-curve $-1 0 -10.277970125025249 12.528588944709504 1 0 0 I I #
point $-1 52.513809625537888 -10.277970125025252 2.3508137159041667 #
straight-curve $-1 52.513809625537888 -3.5352124471711495 2.3508137159041453 0 1 0 I I #
point $-1 52.513809625537888 -10.277970125025249 12.528588944709504 #
point $-1 46.468114605917364 -8.4450871360635631 5.9497864891728147 #
point $-1 46.468114605917364 -5.6957626526210312 5.9497864891728147 #
straight-curve $-1 52.513809625537888 1.6584292410875969 75.158544989892675 0 0 -1 I I #
point $-1 52.513809625537888 1.6584292410875969 12.528588944709504 #
straight-curve $-1 52.513809625537888 2.4329872358852747 2.3508137159041453 0 1 0 I I #
point $-1 52.513809625537888 1.6584292410875969 2.3508137159041667 #
point $-1 46.468114605917364 3.4913122300492816 5.9497864891728147 #
point $-1 46.468114605917364 6.240636713491817 5.9497864891728147 #
straight-curve $-1 52.513809625537888 13.594828607200441 75.158544989892675 0 0 -1 I I #
point $-1 52.513809625537888 13.594828607200441 12.528588944709504 #
straight-curve $-1 52.513809625537888 8.401186918941697 2.3508137159041453 0 1 0 I I #
point $-1 52.513809625537888 13.594828607200441 2.3508137159041667 #
point $-1 46.468114605917364 15.427711596162126 5.9497864891728147 #
point $-1 46.468114605917364 18.177036079604662 5.9497864891728147 #
straight-curve $-1 -52.513809625537888 7.6266289241440148 33.151688730043162 0 0 -1 I I #
point $-1 -52.513809625537888 7.6266289241440148 12.528588944709504 #
straight-curve $-1 -52.513809625537888 2.24587477598077 7.5726793636640419 0 -1 0 I I #
point $-1 -52.513809625537888 7.6266289241440148 7.5726793636640437 #
point $-1 -49.598851696092581 3.1482298210261952 9.2118448169360345 #
point $-1 -49.598851696092581 5.8352692828968884 9.2118448169360345 #
straight-curve $-1 -52.513809625537888 0 12.528588944709504 0 -1 0 I I #
point $-1 -52.513809625537888 7.6266289241440148 12.528588944709504 #
point $-1 -49.598851696092581 9.4179885653911484 9.2118448169360345 #
point $-1 -49.598851696092581 12.105028027261845 9.2118448169360345 #
point $-1 -52.513809625537888 -25.531227973313285 12.528588944709504 #
straight-curve $-1 0 -25.531227973313285 12.528588944709504 1 0 0 I I #
End-of-ACIS-data 