500 0 11 0           
7 Unknown 11 ACIS 5.0 NT 24 Fri Mar 26 19:26:00 1999 
-1 9.9999999999999995e-007 1e-010 
body $-1 $11 $-1 $12 #
body $-1 $13 $-1 $14 #
body $-1 $15 $-1 $16 #
body $-1 $17 $-1 $18 #
body $-1 $19 $-1 $20 #
body $-1 $21 $-1 $22 #
body $-1 $23 $-1 $24 #
body $-1 $25 $-1 $26 #
body $-1 $27 $-1 $28 #
body $-1 $29 $-1 $30 #
body $-1 $31 $-1 $32 #
lump $-1 $-1 $33 $0 #
transform $-1 1 0 0 0 1 0 0 0 1 48.052003540147098 32.803591027239307 7.5959729886525551 1 rotate no_reflect no_shear #
lump $-1 $-1 $34 $1 #
transform $-1 1 0 0 0 1 0 0 0 1 48.052003540147098 32.803591027239307 7.5959729886525551 1 rotate no_reflect no_shear #
lump $-1 $-1 $35 $2 #
transform $-1 1 0 0 0 1 0 0 0 1 48.052003540147098 32.803591027239307 7.5959729886525551 1 rotate no_reflect no_shear #
lump $-1 $-1 $36 $3 #
transform $-1 1 0 0 0 1 0 0 0 1 48.052003540147098 32.803591027239307 7.5959729886525551 1 rotate no_reflect no_shear #
lump $-1 $-1 $37 $4 #
transform $-1 1 0 0 0 1 0 0 0 1 48.052003540147098 32.803591027239307 7.5959729886525551 1 rotate no_reflect no_shear #
lump $-1 $-1 $38 $5 #
transform $-1 1 0 0 0 1 0 0 0 1 48.052003540147098 32.803591027239307 7.5959729886525551 1 rotate no_reflect no_shear #
lump $-1 $-1 $39 $6 #
transform $-1 1 0 0 0 1 0 0 0 1 48.052003540147098 32.803591027239307 7.5959729886525551 1 rotate no_reflect no_shear #
lump $-1 $-1 $40 $7 #
transform $-1 1 0 0 0 1 0 0 0 1 48.052003540147098 32.803591027239307 7.5959729886525551 1 rotate no_reflect no_shear #
lump $-1 $-1 $41 $8 #
transform $-1 1 0 0 0 1 0 0 0 1 48.052003540147098 32.803591027239307 7.5959729886525551 1 rotate no_reflect no_shear #
lump $-1 $-1 $42 $9 #
transform $-1 1 0 0 0 1 0 0 0 1 48.052003540147098 32.803591027239307 7.5959729886525551 1 rotate no_reflect no_shear #
lump $-1 $-1 $43 $10 #
transform $-1 1 0 0 0 1 0 0 0 1 48.052003540147098 32.803591027239307 7.5959729886525551 1 rotate no_reflect no_shear #
shell $-1 $-1 $-1 $44 $-1 $11 #
shell $-1 $-1 $-1 $45 $-1 $13 #
shell $-1 $-1 $-1 $46 $-1 $15 #
shell $-1 $-1 $-1 $47 $-1 $17 #
shell $-1 $-1 $-1 $48 $-1 $19 #
shell $-1 $-1 $-1 $49 $-1 $21 #
shell $-1 $-1 $-1 $50 $-1 $23 #
shell $-1 $-1 $-1 $51 $-1 $25 #
shell $-1 $-1 $-1 $52 $-1 $27 #
shell $-1 $-1 $-1 $53 $-1 $29 #
shell $-1 $-1 $-1 $54 $-1 $31 #
face $-1 $55 $56 $33 $-1 $57 forward single #
face $-1 $58 $59 $34 $-1 $60 reversed single #
face $-1 $61 $62 $35 $-1 $63 reversed single #
face $-1 $64 $65 $36 $-1 $66 reversed single #
face $-1 $67 $68 $37 $-1 $69 forward single #
face $-1 $70 $71 $38 $-1 $72 forward single #
face $-1 $73 $74 $39 $-1 $75 forward single #
face $-1 $76 $77 $40 $-1 $78 reversed single #
face $-1 $79 $80 $41 $-1 $81 forward single #
face $-1 $82 $83 $42 $-1 $84 forward single #
face $-1 $85 $86 $43 $-1 $87 forward single #
face $-1 $88 $89 $33 $-1 $90 reversed single #
loop $-1 $-1 $91 $44 #
plane-surface $-1 0 0 7.5959729886525551 0 0 1 1 0 0 forward_v I I I I #
face $-1 $92 $93 $34 $-1 $94 reversed single #
loop $-1 $-1 $95 $45 #
plane-surface $-1 0 -25.00014576754014 5.846003797269784 0 -1 0 0 0 -1 forward_v I I I I #
face $-1 $96 $97 $35 $-1 $98 reversed single #
loop $-1 $-1 $99 $46 #
plane-surface $-1 0 28.90186839738972 4.096034605887013 0 0 1 1 0 0 forward_v I I I I #
face $-1 $100 $101 $36 $-1 $102 reversed single #
loop $-1 $-1 $103 $47 #
plane-surface $-1 -48.052003540147091 -21.857714286765372 1.6708038648893506 -0.57357644374324357 0 0.81915203911291934 0.81915203911291934 0 0.57357644374324357 forward_v I I I I #
face $-1 $104 $105 $37 $-1 $106 forward single #
loop $-1 $107 $108 $48 #
cone-surface $-1 -43.36594225187401 -23.743173175230233 3.9835066430013208 0.57357644374324357 0 -0.81915203911291934 0.40957601955645967 0 0.28678822187162178 1 I I 0 1 0.5 forward I I I I #
face $-1 $109 $110 $38 $-1 $111 forward single #
loop $-1 $112 $113 $49 #
cone-surface $-1 -43.36594225187401 -21.857714286765372 3.9835066430013208 0.57357644374324357 0 -0.81915203911291934 0.40957601955645967 0 0.28678822187162178 1 I I 0 1 0.5 forward I I I I #
face $-1 $114 $115 $39 $-1 $116 forward single #
loop $-1 $117 $118 $50 #
cone-surface $-1 -43.36594225187401 -19.972255398300508 3.9835066430013208 0.57357644374324357 0 -0.81915203911291934 0.40957601955645967 0 0.28678822187162178 1 I I 0 1 0.5 forward I I I I #
face $-1 $119 $120 $40 $-1 $121 reversed single #
loop $-1 $-1 $122 $51 #
plane-surface $-1 -103.17499815073774 18.715282805990594 80.394597231634776 0 1 0 -0.57357644374324357 0 0.81915203911291934 forward_v I I I I #
face $-1 $123 $124 $41 $-1 $125 forward single #
loop $-1 $126 $127 $52 #
cone-surface $-1 -43.36594225187401 19.972255398300504 3.9835066430013208 0.57357644374324357 0 -0.81915203911291934 0.40957601955645967 0 0.28678822187162178 1 I I 0 1 0.5 forward I I I I #
face $-1 $128 $129 $42 $-1 $130 forward single #
loop $-1 $131 $132 $53 #
cone-surface $-1 -43.36594225187401 21.857714286765365 3.9835066430013208 0.57357644374324357 0 -0.81915203911291934 0.40957601955645967 0 0.28678822187162178 1 I I 0 1 0.5 forward I I I I #
face $-1 $133 $134 $43 $-1 $135 forward single #
loop $-1 $136 $137 $54 #
cone-surface $-1 -43.36594225187401 23.743173175230226 3.9835066430013208 0.57357644374324357 0 -0.81915203911291934 0.40957601955645967 0 0.28678822187162178 1 I I 0 1 0.5 forward I I I I #
face $-1 $138 $139 $33 $-1 $140 reversed single #
loop $-1 $-1 $141 $55 #
plane-surface $-1 0 0 -7.5959729886525551 0 0 1 1 0 0 forward_v I I I I #
coedge $-1 $142 $143 $144 $145 forward $56 $-1 #
face $-1 $146 $147 $34 $-1 $148 reversed single #
loop $-1 $-1 $149 $58 #
plane-surface $-1 0 -28.901868397389723 4.096034605887013 0 0 1 1 0 0 forward_v I I I I #
coedge $-1 $150 $151 $152 $153 reversed $59 $-1 #
face $-1 $154 $155 $35 $-1 $156 forward single #
loop $-1 $-1 $157 $61 #
plane-surface $-1 0 25.000145767540136 5.846003797269784 0 1 0 0 0 1 forward_v I I I I #
coedge $-1 $158 $159 $160 $161 reversed $62 $-1 #
face $-1 $162 $163 $36 $-1 $164 reversed single #
loop $-1 $-1 $165 $64 #
plane-surface $-1 -103.17499815073774 -18.715282805990601 80.394597231634776 0 -1 0 0.57357644374324357 0 -0.81915203911291934 forward_v I I I I #
coedge $-1 $166 $167 $168 $169 reversed $65 $-1 #
face $-1 $-1 $170 $37 $-1 $171 forward single #
loop $-1 $172 $173 $67 #
cone-surface $-1 -42.767496008257474 -23.743173175230233 3.128836849453462 0.57357644374324357 0 -0.81915203911291934 0.20478800977822983 0 0.14339411093581089 1 I I -0.70710678118654746 0.70710678118654746 0.25 forward I I I I #
loop $-1 $-1 $174 $48 #
coedge $-1 $108 $108 $175 $176 reversed $68 $-1 #
face $-1 $-1 $177 $38 $-1 $178 forward single #
loop $-1 $179 $180 $70 #
cone-surface $-1 -42.767496008257474 -21.857714286765372 3.128836849453462 0.57357644374324357 0 -0.81915203911291934 0.20478800977822983 0 0.14339411093581089 1 I I -0.70710678118654746 0.70710678118654746 0.25 forward I I I I #
loop $-1 $-1 $181 $49 #
coedge $-1 $113 $113 $182 $183 reversed $71 $-1 #
face $-1 $-1 $184 $39 $-1 $185 forward single #
loop $-1 $186 $187 $73 #
cone-surface $-1 -42.767496008257474 -19.972255398300508 3.128836849453462 0.57357644374324357 0 -0.81915203911291934 0.20478800977822983 0 0.14339411093581089 1 I I -0.70710678118654746 0.70710678118654746 0.25 forward I I I I #
loop $-1 $-1 $188 $50 #
coedge $-1 $118 $118 $189 $190 reversed $74 $-1 #
face $-1 $191 $192 $40 $-1 $193 forward single #
loop $-1 $-1 $194 $76 #
plane-surface $-1 -48.052003540147091 21.857714286765365 1.6708038648893506 -0.57357644374324357 0 0.81915203911291934 0.81915203911291934 0 0.57357644374324357 forward_v I I I I #
coedge $-1 $195 $196 $197 $198 reversed $77 $-1 #
face $-1 $-1 $199 $41 $-1 $200 forward single #
loop $-1 $201 $202 $79 #
cone-surface $-1 -42.767496008257474 19.972255398300504 3.128836849453462 0.57357644374324357 0 -0.81915203911291934 0.20478800977822983 0 0.14339411093581089 1 I I -0.70710678118654746 0.70710678118654746 0.25 forward I I I I #
loop $-1 $-1 $203 $52 #
coedge $-1 $127 $127 $204 $205 reversed $80 $-1 #
face $-1 $-1 $206 $42 $-1 $207 forward single #
loop $-1 $208 $209 $82 #
cone-surface $-1 -42.767496008257474 21.857714286765365 3.128836849453462 0.57357644374324357 0 -0.81915203911291934 0.20478800977822983 0 0.14339411093581089 1 I I -0.70710678118654746 0.70710678118654746 0.25 forward I I I I #
loop $-1 $-1 $210 $53 #
coedge $-1 $132 $132 $211 $212 reversed $83 $-1 #
face $-1 $-1 $213 $43 $-1 $214 forward single #
loop $-1 $215 $216 $85 #
cone-surface $-1 -42.767496008257474 23.743173175230226 3.128836849453462 0.57357644374324357 0 -0.81915203911291934 0.20478800977822983 0 0.14339411093581089 1 I I -0.70710678118654746 0.70710678118654746 0.25 forward I I I I #
loop $-1 $-1 $217 $54 #
coedge $-1 $137 $137 $218 $219 reversed $86 $-1 #
face $-1 $220 $221 $33 $-1 $222 reversed single #
loop $-1 $-1 $223 $88 #
plane-surface $-1 0 -32.803591027239307 0 0 1 0 0 0 1 forward_v I I I I #
coedge $-1 $224 $225 $226 $227 forward $89 $-1 #
coedge $-1 $228 $91 $229 $230 forward $56 $-1 #
coedge $-1 $91 $228 $231 $232 forward $56 $-1 #
coedge $-1 $233 $234 $91 $145 reversed $235 $-1 #
edge $-1 $236 -32.803591027239307 $237 32.803591027239307 $144 $238 forward 7 unknown #
face $-1 $239 $240 $34 $-1 $241 reversed single #
loop $-1 $-1 $242 $92 #
plane-surface $-1 -48.052003540147098 0 0 1 0 0 0 0 -1 forward_v I I I I #
coedge $-1 $243 $244 $245 $246 reversed $93 $-1 #
coedge $-1 $247 $95 $248 $249 reversed $59 $-1 #
coedge $-1 $95 $247 $242 $250 reversed $59 $-1 #
coedge $-1 $251 $252 $95 $153 forward $253 $-1 #
edge $-1 $254 -48.052003540147098 $255 48.052003540147098 $152 $256 forward 7 unknown #
face $-1 $257 $258 $35 $-1 $259 reversed single #
loop $-1 $-1 $260 $96 #
plane-surface $-1 0 0 7.5959729886525551 0 0 1 1 0 0 forward_v I I I I #
coedge $-1 $261 $262 $158 $263 reversed $97 $-1 #
coedge $-1 $264 $99 $157 $263 forward $62 $-1 #
coedge $-1 $99 $264 $265 $266 reversed $62 $-1 #
coedge $-1 $267 $268 $99 $161 forward $258 $-1 #
edge $-1 $269 10.549211568845276 $270 18.352656828544447 $160 $271 forward 7 unknown #
face $-1 $272 $273 $36 $-1 $274 forward single #
loop $-1 $-1 $275 $100 #
plane-surface $-1 -48.052003540147098 0 0 1 0 0 0 0 -1 forward_v I I I I #
coedge $-1 $276 $277 $278 $279 reversed $101 $-1 #
coedge $-1 $280 $103 $281 $282 reversed $65 $-1 #
coedge $-1 $103 $280 $276 $283 forward $65 $-1 #
coedge $-1 $278 $284 $103 $169 forward $273 $-1 #
edge $-1 $285 -14.071288624157457 $286 -7.7864256626079147 $168 $287 forward 7 unknown #
loop $-1 $-1 $175 $104 #
plane-surface $-1 -48.052003540147091 -21.857714286765372 1.6708038648893506 -0.57357644374324357 0 0.81915203911291934 0.81915203911291934 0 0.57357644374324357 forward_v I I I I #
loop $-1 $-1 $288 $67 #
coedge $-1 $173 $173 $174 $289 reversed $105 $-1 #
coedge $-1 $174 $174 $173 $289 forward $107 $-1 #
coedge $-1 $175 $175 $108 $176 forward $170 $-1 #
edge $-1 $290 0 $290 6.2831853071796004 $175 $291 forward 7 unknown #
loop $-1 $-1 $182 $109 #
plane-surface $-1 -48.052003540147091 -21.857714286765372 1.6708038648893506 -0.57357644374324357 0 0.81915203911291934 0.81915203911291934 0 0.57357644374324357 forward_v I I I I #
loop $-1 $-1 $292 $70 #
coedge $-1 $180 $180 $181 $293 reversed $110 $-1 #
coedge $-1 $181 $181 $180 $293 forward $112 $-1 #
coedge $-1 $182 $182 $113 $183 forward $177 $-1 #
edge $-1 $294 0 $294 6.2831853071796004 $182 $295 forward 7 unknown #
loop $-1 $-1 $189 $114 #
plane-surface $-1 -48.052003540147091 -21.857714286765372 1.6708038648893506 -0.57357644374324357 0 0.81915203911291934 0.81915203911291934 0 0.57357644374324357 forward_v I I I I #
loop $-1 $-1 $296 $73 #
coedge $-1 $187 $187 $188 $297 reversed $115 $-1 #
coedge $-1 $188 $188 $187 $297 forward $117 $-1 #
coedge $-1 $189 $189 $118 $190 forward $184 $-1 #
edge $-1 $298 0 $298 6.2831853071796004 $189 $299 forward 7 unknown #
face $-1 $300 $301 $40 $-1 $302 forward single #
loop $-1 $-1 $197 $119 #
plane-surface $-1 0 0 7.5959729886525551 0 0 1 1 0 0 forward_v I I I I #
coedge $-1 $303 $304 $305 $306 reversed $120 $-1 #
coedge $-1 $196 $122 $307 $308 reversed $77 $-1 #
coedge $-1 $122 $195 $303 $309 reversed $77 $-1 #
coedge $-1 $305 $310 $122 $198 forward $192 $-1 #
edge $-1 $311 3.5354955352217701 $312 11.997513846406498 $197 $313 forward 7 unknown #
loop $-1 $-1 $204 $123 #
plane-surface $-1 -48.052003540147091 21.857714286765365 1.6708038648893506 -0.57357644374324357 0 0.81915203911291934 0.81915203911291934 0 0.57357644374324357 forward_v I I I I #
loop $-1 $-1 $314 $79 #
coedge $-1 $202 $202 $203 $315 reversed $124 $-1 #
coedge $-1 $203 $203 $202 $315 forward $126 $-1 #
coedge $-1 $204 $204 $127 $205 forward $199 $-1 #
edge $-1 $316 0 $316 6.2831853071796004 $204 $317 forward 7 unknown #
loop $-1 $-1 $211 $128 #
plane-surface $-1 -48.052003540147091 21.857714286765365 1.6708038648893506 -0.57357644374324357 0 0.81915203911291934 0.81915203911291934 0 0.57357644374324357 forward_v I I I I #
loop $-1 $-1 $318 $82 #
coedge $-1 $209 $209 $210 $319 reversed $129 $-1 #
coedge $-1 $210 $210 $209 $319 forward $131 $-1 #
coedge $-1 $211 $211 $132 $212 forward $206 $-1 #
edge $-1 $320 0 $320 6.2831853071796004 $211 $321 forward 7 unknown #
loop $-1 $-1 $218 $133 #
plane-surface $-1 -48.052003540147091 21.857714286765365 1.6708038648893506 -0.57357644374324357 0 0.81915203911291934 0.81915203911291934 0 0.57357644374324357 forward_v I I I I #
loop $-1 $-1 $322 $85 #
coedge $-1 $216 $216 $217 $323 reversed $134 $-1 #
coedge $-1 $217 $217 $216 $323 forward $136 $-1 #
coedge $-1 $218 $218 $137 $219 forward $213 $-1 #
edge $-1 $324 0 $324 6.2831853071796004 $218 $325 forward 7 unknown #
face $-1 $326 $327 $33 $-1 $328 reversed single #
loop $-1 $-1 $329 $138 #
plane-surface $-1 -48.052003540147098 0 0 1 0 0 0 0 -1 forward_v I I I I #
coedge $-1 $330 $231 $331 $332 forward $139 $-1 #
coedge $-1 $333 $141 $330 $334 forward $89 $-1 #
coedge $-1 $141 $333 $335 $336 forward $89 $-1 #
coedge $-1 $234 $233 $141 $227 reversed $235 $-1 #
edge $-1 $337 -32.803591027239307 $338 32.803591027239307 $226 $339 forward 7 unknown #
coedge $-1 $143 $142 $340 $341 forward $56 $-1 #
coedge $-1 $342 $343 $142 $230 reversed $327 $-1 #
edge $-1 $237 -48.052003540147098 $344 48.052003540147098 $229 $345 forward 7 unknown #
coedge $-1 $223 $346 $143 $232 reversed $139 $-1 #
edge $-1 $347 -48.052003540147098 $236 48.052003540147098 $231 $348 forward 7 unknown #
coedge $-1 $226 $144 $346 $349 forward $235 $-1 #
coedge $-1 $144 $226 $342 $350 reversed $235 $-1 #
loop $-1 $-1 $233 $326 #
vertex $-1 $145 $351 #
vertex $-1 $145 $352 #
straight-curve $-1 48.052003540147098 0 7.5959729886525551 0 1 0 I I #
face $-1 $353 $253 $34 $-1 $354 forward single #
loop $-1 $-1 $355 $146 #
plane-surface $-1 0 -32.803591027239307 0 0 1 0 0 0 1 forward_v I I I I #
coedge $-1 $356 $357 $151 $250 forward $147 $-1 #
coedge $-1 $358 $149 $355 $359 reversed $93 $-1 #
coedge $-1 $149 $358 $247 $360 forward $93 $-1 #
coedge $-1 $248 $361 $149 $246 forward $362 $-1 #
edge $-1 $363 -18.352656828544447 $364 -10.549211568845278 $245 $365 forward 7 unknown #
coedge $-1 $151 $150 $244 $360 reversed $59 $-1 #
coedge $-1 $366 $245 $150 $249 forward $362 $-1 #
edge $-1 $364 1.1730327072521209 $254 4.6729710900176631 $248 $367 forward 7 unknown #
edge $-1 $255 -4.6729710900176631 $368 -1.1730327072521209 $242 $369 forward 7 unknown #
coedge $-1 $370 $152 $357 $371 forward $253 $-1 #
coedge $-1 $152 $370 $366 $372 forward $253 $-1 #
loop $-1 $-1 $152 $239 #
vertex $-1 $249 $373 #
vertex $-1 $371 $374 #
straight-curve $-1 0 -25.00014576754014 7.5959729886525551 -1 0 0 I I #
face $-1 $375 $376 $35 $-1 $377 reversed single #
loop $-1 $-1 $268 $154 #
plane-surface $-1 48.052003540147098 0 0 -1 0 0 0 0 1 forward_v I I I I #
coedge $-1 $378 $379 $380 $381 forward $155 $-1 #
coedge $-1 $380 $157 $268 $382 reversed $97 $-1 #
coedge $-1 $157 $380 $383 $384 reversed $97 $-1 #
edge $-1 $269 -48.052003540147098 $385 48.052003540147098 $157 $386 forward 7 unknown #
coedge $-1 $159 $158 $387 $388 reversed $62 $-1 #
coedge $-1 $389 $390 $159 $266 forward $391 $-1 #
edge $-1 $270 -48.052003540147098 $392 48.052003540147098 $265 $393 forward 7 unknown #
coedge $-1 $394 $160 $390 $395 reversed $258 $-1 #
coedge $-1 $160 $394 $261 $382 forward $258 $-1 #
vertex $-1 $161 $396 #
vertex $-1 $266 $397 #
straight-curve $-1 48.052003540147098 14.45093419869486 4.096034605887013 0 1 0 I I #
face $-1 $-1 $398 $36 $-1 $399 forward single #
loop $-1 $-1 $278 $162 #
plane-surface $-1 0 0 7.5959729886525551 0 0 1 1 0 0 forward_v I I I I #
coedge $-1 $400 $401 $277 $402 forward $163 $-1 #
coedge $-1 $277 $165 $167 $283 reversed $101 $-1 #
coedge $-1 $165 $276 $275 $402 reversed $101 $-1 #
coedge $-1 $403 $168 $165 $279 forward $273 $-1 #
edge $-1 $286 -11.997513846406498 $404 -3.5354955352217701 $278 $405 forward 7 unknown #
coedge $-1 $167 $166 $400 $406 reversed $65 $-1 #
coedge $-1 $407 $408 $166 $282 forward $398 $-1 #
edge $-1 $409 -20.878346506252264 $285 -10.548129517049057 $281 $410 forward 7 unknown #
edge $-1 $411 -8.6223355153435888e-015 $286 10.330216989203196 $276 $412 forward 7 unknown #
coedge $-1 $168 $403 $407 $413 forward $273 $-1 #
vertex $-1 $282 $414 #
vertex $-1 $169 $415 #
straight-curve $-1 -39.589985228962369 -10.928857143382686 7.595972988652556 0 1 0 I I #
coedge $-1 $288 $288 $-1 $416 reversed $172 $-1 #
edge $-1 $417 0 $417 6.2831853071796004 $173 $418 forward 7 unknown #
vertex $-1 $176 $419 #
ellipse-curve $-1 -43.820994384554737 -23.743173175230233 4.6333884267709502 -0.57357644374324357 0 0.81915203911291934 0.40957601955645967 0 0.28678822187162178 1 I I #
coedge $-1 $292 $292 $-1 $420 reversed $179 $-1 #
edge $-1 $421 0 $421 6.2831853071796004 $180 $422 forward 7 unknown #
vertex $-1 $183 $423 #
ellipse-curve $-1 -43.820994384554737 -21.857714286765372 4.6333884267709502 -0.57357644374324357 0 0.81915203911291934 0.40957601955645967 0 0.28678822187162178 1 I I #
coedge $-1 $296 $296 $-1 $424 reversed $186 $-1 #
edge $-1 $425 0 $425 6.2831853071796004 $187 $426 forward 7 unknown #
vertex $-1 $190 $427 #
ellipse-curve $-1 -43.820994384554737 -19.972255398300508 4.6333884267709502 -0.57357644374324357 0 0.81915203911291934 0.40957601955645967 0 0.28678822187162178 1 I I #
face $-1 $-1 $428 $40 $-1 $429 reversed single #
loop $-1 $-1 $430 $191 #
plane-surface $-1 0 25.000145767540136 5.846003797269784 0 1 0 0 0 1 forward_v I I I I #
coedge $-1 $431 $194 $196 $309 forward $120 $-1 #
coedge $-1 $194 $431 $430 $432 forward $120 $-1 #
coedge $-1 $433 $197 $194 $306 forward $192 $-1 #
edge $-1 $312 7.7864256626079111 $434 14.071288624157454 $305 $435 forward 7 unknown #
coedge $-1 $436 $437 $195 $308 forward $428 $-1 #
edge $-1 $438 -38.526494750928045 $311 -32.601325627164833 $307 $439 forward 7 unknown #
edge $-1 $312 -10.330216989203196 $438 8.6223355153435888e-015 $196 $440 forward 7 unknown #
coedge $-1 $197 $433 $436 $441 forward $192 $-1 #
vertex $-1 $308 $442 #
vertex $-1 $198 $443 #
straight-curve $-1 -51.587499075368868 18.715282805990594 7.5959729886525551 1 0 0 I I #
coedge $-1 $314 $314 $-1 $444 reversed $201 $-1 #
edge $-1 $445 0 $445 6.2831853071796004 $202 $446 forward 7 unknown #
vertex $-1 $205 $447 #
ellipse-curve $-1 -43.820994384554737 19.972255398300504 4.6333884267709502 -0.57357644374324357 0 0.81915203911291934 0.40957601955645967 0 0.28678822187162178 1 I I #
coedge $-1 $318 $318 $-1 $448 reversed $208 $-1 #
edge $-1 $449 0 $449 6.2831853071796004 $209 $450 forward 7 unknown #
vertex $-1 $212 $451 #
ellipse-curve $-1 -43.820994384554737 21.857714286765365 4.6333884267709502 -0.57357644374324357 0 0.81915203911291934 0.40957601955645967 0 0.28678822187162178 1 I I #
coedge $-1 $322 $322 $-1 $452 reversed $215 $-1 #
edge $-1 $453 0 $453 6.2831853071796004 $216 $454 forward 7 unknown #
vertex $-1 $219 $455 #
ellipse-curve $-1 -43.820994384554737 23.743173175230226 4.6333884267709502 -0.57357644374324357 0 0.81915203911291934 0.40957601955645967 0 0.28678822187162178 1 I I #
face $-1 $-1 $235 $33 $-1 $456 reversed single #
loop $-1 $-1 $342 $220 #
plane-surface $-1 0 32.803591027239307 0 0 -1 0 0 0 -1 forward_v I I I I #
coedge $-1 $457 $340 $343 $458 forward $221 $-1 #
coedge $-1 $346 $223 $224 $334 reversed $139 $-1 #
coedge $-1 $340 $457 $223 $332 reversed $221 $-1 #
edge $-1 $347 -7.5959729886525551 $459 7.5959729886525551 $331 $460 forward 7 unknown #
coedge $-1 $225 $224 $457 $461 forward $89 $-1 #
edge $-1 $338 -48.052003540147098 $459 48.052003540147098 $330 $462 forward 7 unknown #
coedge $-1 $343 $342 $225 $336 reversed $327 $-1 #
edge $-1 $463 -48.052003540147098 $337 48.052003540147098 $335 $464 forward 7 unknown #
vertex $-1 $227 $465 #
vertex $-1 $349 $466 #
straight-curve $-1 48.052003540147098 0 -7.5959729886525551 0 -1 0 I I #
coedge $-1 $329 $331 $228 $341 reversed $221 $-1 #
edge $-1 $344 -32.803591027239307 $347 32.803591027239307 $340 $467 forward 7 unknown #
coedge $-1 $335 $229 $234 $350 forward $327 $-1 #
coedge $-1 $229 $335 $329 $458 reversed $327 $-1 #
vertex $-1 $230 $468 #
straight-curve $-1 0 32.803591027239307 7.5959729886525551 -1 0 0 I I #
coedge $-1 $231 $330 $233 $349 reversed $139 $-1 #
vertex $-1 $341 $469 #
straight-curve $-1 0 -32.803591027239307 7.5959729886525551 1 0 0 I I #
edge $-1 $236 -7.5959729886525551 $338 7.5959729886525551 $233 $470 forward 7 unknown #
edge $-1 $237 -7.5959729886525551 $337 7.5959729886525551 $234 $471 forward 7 unknown #
point $-1 48.052003540147098 -32.803591027239307 7.5959729886525551 #
point $-1 48.052003540147098 32.803591027239307 7.5959729886525551 #
face $-1 $-1 $362 $34 $-1 $472 reversed single #
plane-surface $-1 0 0 7.5959729886525551 0 0 1 1 0 0 forward_v I I I I #
coedge $-1 $473 $474 $243 $359 forward $240 $-1 #
coedge $-1 $475 $242 $358 $476 forward $147 $-1 #
coedge $-1 $242 $475 $251 $371 reversed $147 $-1 #
coedge $-1 $244 $243 $356 $476 reversed $93 $-1 #
edge $-1 $477 -48.052003540147098 $363 48.052003540147098 $355 $478 forward 7 unknown #
edge $-1 $368 -48.052003540147098 $364 48.052003540147098 $247 $479 forward 7 unknown #
coedge $-1 $245 $366 $473 $480 forward $362 $-1 #
loop $-1 $-1 $248 $353 #
vertex $-1 $359 $481 #
vertex $-1 $246 $482 #
straight-curve $-1 48.052003540147098 -14.450934198694862 4.096034605887013 0 1 0 I I #
coedge $-1 $361 $248 $252 $372 reversed $362 $-1 #
straight-curve $-1 48.052003540147098 -25.00014576754014 2.923001898634892 0 0 1 I I #
vertex $-1 $476 $483 #
straight-curve $-1 -48.052003540147098 -25.00014576754014 2.923001898634892 0 0 -1 I I #
coedge $-1 $252 $251 $484 $485 forward $253 $-1 #
edge $-1 $255 25.00014576754014 $486 32.803591027239307 $357 $487 forward 7 unknown #
edge $-1 $488 -32.803591027239307 $254 -25.00014576754014 $366 $489 forward 7 unknown #
point $-1 48.052003540147098 -25.00014576754014 7.5959729886525551 #
point $-1 -48.052003540147098 -25.00014576754014 7.5959729886525551 #
face $-1 $-1 $391 $35 $-1 $490 reversed single #
loop $-1 $-1 $383 $257 #
plane-surface $-1 -48.052003540147098 0 0 1 0 0 0 0 -1 forward_v I I I I #
coedge $-1 $491 $260 $394 $492 forward $155 $-1 #
coedge $-1 $260 $491 $493 $494 forward $155 $-1 #
coedge $-1 $262 $261 $260 $381 reversed $97 $-1 #
edge $-1 $495 -48.052003540147098 $496 48.052003540147098 $260 $497 forward 7 unknown #
edge $-1 $496 -4.6729710900176631 $269 -1.1730327072521209 $268 $498 forward 7 unknown #
coedge $-1 $493 $387 $262 $384 forward $376 $-1 #
edge $-1 $385 1.1730327072521209 $495 4.6729710900176631 $383 $499 forward 7 unknown #
vertex $-1 $388 $500 #
straight-curve $-1 0 25.000145767540136 4.096034605887013 -1 0 0 I I #
coedge $-1 $383 $501 $264 $388 forward $376 $-1 #
edge $-1 $392 -18.352656828544447 $385 -10.549211568845276 $387 $502 forward 7 unknown #
coedge $-1 $503 $265 $501 $504 reversed $391 $-1 #
coedge $-1 $265 $503 $267 $395 forward $391 $-1 #
loop $-1 $-1 $265 $375 #
vertex $-1 $266 $505 #
straight-curve $-1 0 32.803591027239307 4.096034605887013 -1 0 0 I I #
coedge $-1 $268 $267 $378 $492 reversed $258 $-1 #
edge $-1 $506 -7.5959729886525551 $270 -4.096034605887013 $267 $507 forward 7 unknown #
point $-1 48.052003540147098 25.000145767540136 4.096034605887013 #
point $-1 48.052003540147098 32.803591027239307 4.096034605887013 #
loop $-1 $-1 $281 $272 #
plane-surface $-1 0 -25.00014576754014 5.846003797269784 0 -1 0 0 0 -1 forward_v I I I I #
coedge $-1 $508 $275 $280 $406 forward $163 $-1 #
coedge $-1 $275 $508 $403 $509 reversed $163 $-1 #
edge $-1 $404 32.601325627164833 $411 38.526494750928045 $275 $510 forward 7 unknown #
coedge $-1 $284 $278 $401 $509 forward $273 $-1 #
vertex $-1 $509 $511 #
straight-curve $-1 -51.587499075368868 -18.715282805990601 7.5959729886525551 -1 0 0 I I #
edge $-1 $411 7.7864256626079147 $409 14.071288624157457 $400 $512 forward 7 unknown #
coedge $-1 $408 $281 $284 $413 reversed $398 $-1 #
coedge $-1 $281 $407 $508 $513 reversed $398 $-1 #
vertex $-1 $513 $514 #
straight-curve $-1 -30.949463426244463 -25.00014576754014 13.646131605184694 0.81915203911291934 0 0.57357644374324357 I I #
vertex $-1 $406 $515 #
straight-curve $-1 -48.052003540147091 -18.715282805990601 1.6708038648893506 0.81915203911291934 0 0.57357644374324357 I I #
edge $-1 $516 -48.052003540147098 $285 -39.589985228962369 $284 $517 forward 7 unknown #
point $-1 -39.589985228962369 -25.000145767540143 7.5959729886525551 #
point $-1 -39.589985228962369 -18.715282805990601 7.5959729886525551 #
edge $-1 $518 1 $518 0 $288 $-1 forward 7 unknown #
vertex $-1 $289 $519 #
ellipse-curve $-1 -42.910890119193283 -23.743173175230233 3.3336248592316919 -0.57357644374324357 0 0.81915203911291934 0.40957601955645967 0 0.28678822187162178 1 I I #
point $-1 -43.411418364998276 -23.743173175230233 4.9201766486425722 #
edge $-1 $520 1 $520 0 $292 $-1 forward 7 unknown #
vertex $-1 $293 $521 #
ellipse-curve $-1 -42.910890119193283 -21.857714286765372 3.3336248592316919 -0.57357644374324357 0 0.81915203911291934 0.40957601955645967 0 0.28678822187162178 1 I I #
point $-1 -43.411418364998276 -21.857714286765372 4.9201766486425722 #
edge $-1 $522 1 $522 0 $296 $-1 forward 7 unknown #
vertex $-1 $297 $523 #
ellipse-curve $-1 -42.910890119193283 -19.972255398300508 3.3336248592316919 -0.57357644374324357 0 0.81915203911291934 0.40957601955645967 0 0.28678822187162178 1 I I #
point $-1 -43.411418364998276 -19.972255398300508 4.9201766486425722 #
loop $-1 $-1 $307 $300 #
plane-surface $-1 -48.052003540147098 0 0 1 0 0 0 0 -1 forward_v I I I I #
coedge $-1 $524 $525 $304 $432 reversed $301 $-1 #
coedge $-1 $304 $303 $437 $526 reversed $120 $-1 #
edge $-1 $527 -8.6223355153435888e-015 $434 10.330216989203196 $430 $528 forward 7 unknown #
coedge $-1 $310 $305 $525 $529 forward $192 $-1 #
vertex $-1 $529 $530 #
straight-curve $-1 -39.589985228962369 10.928857143382682 7.595972988652556 0 1 0 I I #
coedge $-1 $531 $307 $310 $441 reversed $428 $-1 #
coedge $-1 $307 $531 $431 $526 forward $428 $-1 #
vertex $-1 $308 $532 #
straight-curve $-1 -48.052003540147098 18.715282805990594 40.197298615817388 0 0 1 I I #
straight-curve $-1 -48.052003540147091 18.715282805990594 1.6708038648893506 -0.81915203911291934 0 -0.57357644374324357 I I #
edge $-1 $533 -25.000145767540136 $311 -18.715282805990594 $436 $534 forward 7 unknown #
point $-1 -48.052003540147098 18.715282805990594 7.5959729886525551 #
point $-1 -39.589985228962369 18.715282805990594 7.5959729886525551 #
edge $-1 $535 1 $535 0 $314 $-1 forward 7 unknown #
vertex $-1 $315 $536 #
ellipse-curve $-1 -42.910890119193283 19.972255398300504 3.3336248592316919 -0.57357644374324357 0 0.81915203911291934 0.40957601955645967 0 0.28678822187162178 1 I I #
point $-1 -43.411418364998276 19.972255398300504 4.9201766486425722 #
edge $-1 $537 1 $537 0 $318 $-1 forward 7 unknown #
vertex $-1 $319 $538 #
ellipse-curve $-1 -42.910890119193283 21.857714286765365 3.3336248592316919 -0.57357644374324357 0 0.81915203911291934 0.40957601955645967 0 0.28678822187162178 1 I I #
point $-1 -43.411418364998276 21.857714286765365 4.9201766486425722 #
edge $-1 $539 1 $539 0 $322 $-1 forward 7 unknown #
vertex $-1 $323 $540 #
ellipse-curve $-1 -42.910890119193283 23.743173175230226 3.3336248592316919 -0.57357644374324357 0 0.81915203911291934 0.40957601955645967 0 0.28678822187162178 1 I I #
point $-1 -43.411418364998276 23.743173175230226 4.9201766486425722 #
plane-surface $-1 48.052003540147098 0 0 -1 0 0 0 0 1 forward_v I I I I #
coedge $-1 $331 $329 $333 $461 reversed $221 $-1 #
edge $-1 $344 -7.5959729886525551 $463 7.5959729886525551 $343 $541 forward 7 unknown #
vertex $-1 $461 $542 #
straight-curve $-1 -48.052003540147098 -32.803591027239307 0 0 0 -1 I I #
edge $-1 $459 -32.803591027239307 $463 32.803591027239307 $457 $543 forward 7 unknown #
straight-curve $-1 0 -32.803591027239307 -7.5959729886525551 -1 0 0 I I #
vertex $-1 $336 $544 #
straight-curve $-1 0 32.803591027239307 -7.5959729886525551 1 0 0 I I #
point $-1 48.052003540147098 32.803591027239307 -7.5959729886525551 #
point $-1 48.052003540147098 -32.803591027239307 -7.5959729886525551 #
straight-curve $-1 -48.052003540147098 0 7.5959729886525551 0 -1 0 I I #
point $-1 -48.052003540147098 32.803591027239307 7.5959729886525551 #
point $-1 -48.052003540147098 -32.803591027239307 7.5959729886525551 #
straight-curve $-1 48.052003540147098 -32.803591027239307 0 0 0 -1 I I #
straight-curve $-1 48.052003540147098 32.803591027239307 0 0 0 -1 I I #
plane-surface $-1 48.052003540147098 0 0 -1 0 0 0 0 1 forward_v I I I I #
coedge $-1 $484 $355 $361 $480 reversed $240 $-1 #
coedge $-1 $355 $484 $475 $545 forward $240 $-1 #
coedge $-1 $357 $356 $474 $545 reversed $147 $-1 #
edge $-1 $368 10.549211568845278 $477 18.352656828544447 $356 $546 forward 7 unknown #
vertex $-1 $359 $547 #
straight-curve $-1 0 -32.803591027239307 4.096034605887013 1 0 0 I I #
straight-curve $-1 0 -25.00014576754014 4.096034605887013 1 0 0 I I #
edge $-1 $488 -7.5959729886525551 $363 -4.096034605887013 $361 $548 forward 7 unknown #
point $-1 48.052003540147098 -32.803591027239307 4.096034605887013 #
point $-1 48.052003540147098 -25.00014576754014 4.096034605887013 #
point $-1 -48.052003540147098 -25.00014576754014 4.096034605887013 #
coedge $-1 $474 $473 $370 $485 reversed $240 $-1 #
edge $-1 $486 -48.052003540147098 $488 48.052003540147098 $484 $549 forward 7 unknown #
vertex $-1 $371 $550 #
straight-curve $-1 -48.052003540147098 0 7.5959729886525551 0 -1 0 I I #
vertex $-1 $372 $551 #
straight-curve $-1 48.052003540147098 0 7.5959729886525551 0 1 0 I I #
plane-surface $-1 0 32.803591027239307 0 0 -1 0 0 0 -1 forward_v I I I I #
coedge $-1 $379 $378 $503 $552 forward $155 $-1 #
edge $-1 $496 25.000145767540136 $506 32.803591027239307 $394 $553 forward 7 unknown #
coedge $-1 $501 $383 $379 $494 reversed $376 $-1 #
edge $-1 $554 -32.803591027239307 $495 -25.000145767540136 $493 $555 forward 7 unknown #
vertex $-1 $384 $556 #
vertex $-1 $492 $557 #
straight-curve $-1 0 25.000145767540136 7.5959729886525551 1 0 0 I I #
straight-curve $-1 48.052003540147098 25.000145767540136 2.923001898634892 0 0 -1 I I #
straight-curve $-1 -48.052003540147098 25.000145767540136 2.923001898634892 0 0 1 I I #
point $-1 -48.052003540147098 25.000145767540136 4.096034605887013 #
coedge $-1 $387 $493 $389 $504 forward $376 $-1 #
straight-curve $-1 -48.052003540147098 14.45093419869486 4.096034605887013 0 -1 0 I I #
coedge $-1 $390 $389 $491 $552 reversed $391 $-1 #
edge $-1 $554 -7.5959729886525551 $392 -4.096034605887013 $389 $558 forward 7 unknown #
point $-1 -48.052003540147098 32.803591027239307 4.096034605887013 #
vertex $-1 $492 $559 #
straight-curve $-1 48.052003540147098 32.803591027239307 0 0 0 -1 I I #
coedge $-1 $401 $400 $408 $513 forward $163 $-1 #
edge $-1 $404 18.715282805990601 $516 25.00014576754014 $401 $560 forward 7 unknown #
straight-curve $-1 -48.052003540147098 -18.715282805990601 40.197298615817388 0 0 -1 I I #
point $-1 -48.052003540147098 -18.715282805990601 7.5959729886525551 #
straight-curve $-1 -48.052003540147098 -10.928857143382686 1.6708038648893504 0 -1 0 I I #
edge $-1 $409 -38.526494750928045 $516 -32.601325627164833 $508 $561 forward 7 unknown #
point $-1 -48.052003540147098 -25.000145767540143 1.6708038648893457 #
point $-1 -48.052003540147098 -18.715282805990601 1.6708038648893457 #
vertex $-1 $513 $562 #
straight-curve $-1 0 -25.00014576754014 7.5959729886525551 1 0 0 I I #
vertex $-1 $416 $563 #
point $-1 -42.501314099636822 -23.743173175230233 3.6204130811033135 #
vertex $-1 $420 $564 #
point $-1 -42.501314099636822 -21.857714286765372 3.6204130811033135 #
vertex $-1 $424 $565 #
point $-1 -42.501314099636822 -19.972255398300508 3.6204130811033135 #
coedge $-1 $525 $430 $531 $566 reversed $301 $-1 #
coedge $-1 $430 $524 $433 $529 reversed $301 $-1 #
edge $-1 $527 -14.071288624157454 $438 -7.7864256626079111 $437 $567 forward 7 unknown #
vertex $-1 $566 $568 #
straight-curve $-1 -48.052003540147091 25.000145767540136 1.6708038648893506 0.81915203911291934 0 0.57357644374324357 I I #
edge $-1 $434 39.589985228962369 $533 48.052003540147098 $433 $569 forward 7 unknown #
point $-1 -39.589985228962369 25.000145767540136 7.5959729886525551 #
coedge $-1 $437 $436 $524 $566 forward $428 $-1 #
point $-1 -48.052003540147098 18.715282805990594 1.6708038648893457 #
vertex $-1 $441 $570 #
straight-curve $-1 -48.052003540147098 0 7.5959729886525551 0 -1 0 I I #
vertex $-1 $444 $571 #
point $-1 -42.501314099636822 19.972255398300504 3.6204130811033135 #
vertex $-1 $448 $572 #
point $-1 -42.501314099636822 21.857714286765365 3.6204130811033135 #
vertex $-1 $452 $573 #
point $-1 -42.501314099636822 23.743173175230226 3.6204130811033135 #
straight-curve $-1 -48.052003540147098 32.803591027239307 0 0 0 -1 I I #
point $-1 -48.052003540147098 -32.803591027239307 -7.5959729886525551 #
straight-curve $-1 -48.052003540147098 0 -7.5959729886525551 0 1 0 I I #
point $-1 -48.052003540147098 32.803591027239307 -7.5959729886525551 #
edge $-1 $486 -7.5959729886525551 $477 -4.096034605887013 $475 $574 forward 7 unknown #
straight-curve $-1 -48.052003540147098 -14.450934198694862 4.096034605887013 0 -1 0 I I #
point $-1 -48.052003540147098 -32.803591027239307 4.096034605887013 #
straight-curve $-1 48.052003540147098 -32.803591027239307 0 0 0 -1 I I #
straight-curve $-1 0 -32.803591027239307 7.5959729886525551 1 0 0 I I #
point $-1 -48.052003540147098 -32.803591027239307 7.5959729886525551 #
point $-1 48.052003540147098 -32.803591027239307 7.5959729886525551 #
edge $-1 $506 -48.052003540147098 $554 48.052003540147098 $503 $575 forward 7 unknown #
straight-curve $-1 48.052003540147098 0 7.5959729886525551 0 1 0 I I #
vertex $-1 $552 $576 #
straight-curve $-1 -48.052003540147098 0 7.5959729886525551 0 -1 0 I I #
point $-1 -48.052003540147098 25.000145767540136 7.5959729886525551 #
point $-1 48.052003540147098 25.000145767540136 7.5959729886525551 #
straight-curve $-1 -48.052003540147098 32.803591027239307 0 0 0 -1 I I #
point $-1 48.052003540147098 32.803591027239307 7.5959729886525551 #
straight-curve $-1 -48.052003540147098 0 7.5959729886525551 0 -1 0 I I #
straight-curve $-1 -48.052003540147098 -25.000145767540143 40.197298615817388 0 0 1 I I #
point $-1 -48.052003540147098 -25.00014576754014 7.5959729886525551 #
point $-1 -42.624101897321665 -23.743173175230233 2.924048839675232 #
point $-1 -42.624101897321665 -21.857714286765372 2.924048839675232 #
point $-1 -42.624101897321665 -19.972255398300508 2.924048839675232 #
edge $-1 $533 32.601325627164833 $527 38.526494750928045 $531 $577 forward 7 unknown #
straight-curve $-1 -48.052003540147098 10.928857143382682 1.6708038648893504 0 -1 0 I I #
point $-1 -48.052003540147098 25.000145767540136 1.6708038648893457 #
straight-curve $-1 0 25.000145767540136 7.5959729886525551 -1 0 0 I I #
point $-1 -48.052003540147098 25.000145767540136 7.5959729886525551 #
point $-1 -42.624101897321665 19.972255398300504 2.924048839675232 #
point $-1 -42.624101897321665 21.857714286765365 2.924048839675232 #
point $-1 -42.624101897321665 23.743173175230226 2.924048839675232 #
straight-curve $-1 -48.052003540147098 -32.803591027239307 0 0 0 -1 I I #
straight-curve $-1 0 32.803591027239307 7.5959729886525551 -1 0 0 I I #
point $-1 -48.052003540147098 32.803591027239307 7.5959729886525551 #
straight-curve $-1 -48.052003540147098 25.000145767540136 40.197298615817388 0 0 -1 I I #
End-of-ACIS-data 