500 0 5 0           
7 Unknown 11 ACIS 5.0 NT 24 Thu Mar 25 23:31:39 1999 
-1 9.9999999999999995e-007 1e-010 
body $-1 $5 $-1 $6 #
body $-1 $7 $-1 $8 #
body $-1 $9 $-1 $10 #
body $-1 $11 $-1 $12 #
body $-1 $13 $-1 $14 #
lump $-1 $-1 $15 $0 #
transform $-1 1 0 0 0 1 0 0 0 1 49.228797265541552 23.414890843323821 7.945570628254095 1 rotate no_reflect no_shear #
lump $-1 $-1 $16 $1 #
transform $-1 1 0 0 0 1 0 0 0 1 49.228797265541552 23.414890843323821 7.945570628254095 1 rotate no_reflect no_shear #
lump $-1 $-1 $17 $2 #
transform $-1 1 0 0 0 1 0 0 0 1 49.228797265541552 23.414890843323821 7.945570628254095 1 rotate no_reflect no_shear #
lump $-1 $-1 $18 $3 #
transform $-1 1 0 0 0 1 0 0 0 1 49.228797265541552 23.414890843323821 7.945570628254095 1 rotate no_reflect no_shear #
lump $-1 $-1 $19 $4 #
transform $-1 1 0 0 0 1 0 0 0 1 49.228797265541552 23.414890843323821 7.945570628254095 1 rotate no_reflect no_shear #
shell $-1 $-1 $-1 $20 $-1 $5 #
shell $-1 $-1 $-1 $21 $-1 $7 #
shell $-1 $-1 $-1 $22 $-1 $9 #
shell $-1 $-1 $-1 $23 $-1 $11 #
shell $-1 $-1 $-1 $24 $-1 $13 #
face $-1 $25 $26 $15 $-1 $27 forward single #
face $-1 $28 $29 $16 $-1 $30 forward single #
face $-1 $31 $32 $17 $-1 $33 forward single #
face $-1 $34 $35 $18 $-1 $36 reversed single #
face $-1 $37 $38 $19 $-1 $39 forward single #
face $-1 $40 $41 $15 $-1 $42 reversed single #
loop $-1 $-1 $43 $20 #
plane-surface $-1 0 0 7.945570628254095 0 0 1 1 0 0 forward_v I I I I #
face $-1 $44 $45 $16 $-1 $46 forward single #
loop $-1 $-1 $47 $21 #
plane-surface $-1 -49.228797265541552 0 0 1 0 0 0 0 -1 forward_v I I I I #
face $-1 $48 $49 $17 $-1 $50 reversed single #
loop $-1 $-1 $51 $22 #
plane-surface $-1 49.228797265541552 0 0 -1 0 0 0 0 1 forward_v I I I I #
face $-1 $52 $53 $18 $-1 $54 reversed single #
loop $-1 $-1 $55 $23 #
plane-surface $-1 28.377008269131657 75.54290433400503 98.806523850727871 1 0 0 0 -0.80901700255871778 -0.5877852410284794 forward_v I I I I #
face $-1 $56 $57 $19 $-1 $58 forward single #
loop $-1 $59 $60 $24 #
cone-surface $-1 35.847098116440016 20.912143546115797 4.9711798401437211 0 -0.80901700255871778 -0.5877852410284794 1 0 0 1 I I 0 1 1 forward I I I I #
face $-1 $61 $62 $15 $-1 $63 reversed single #
loop $-1 $-1 $64 $25 #
plane-surface $-1 0 0 -7.945570628254095 0 0 1 1 0 0 forward_v I I I I #
coedge $-1 $65 $66 $67 $68 forward $26 $-1 #
face $-1 $69 $70 $16 $-1 $71 reversed single #
loop $-1 $-1 $72 $28 #
plane-surface $-1 0 0 7.945570628254095 0 0 1 1 0 0 forward_v I I I I #
coedge $-1 $73 $74 $75 $76 forward $29 $-1 #
face $-1 $77 $78 $17 $-1 $79 reversed single #
loop $-1 $-1 $80 $31 #
plane-surface $-1 0 -23.414890843323821 0 0 1 0 0 0 1 forward_v I I I I #
coedge $-1 $81 $82 $83 $84 forward $32 $-1 #
face $-1 $85 $86 $18 $-1 $87 reversed single #
loop $-1 $-1 $88 $34 #
plane-surface $-1 35.847098116440016 -4.1109636726734209 40.93460291819089 0 0.80901700255871778 0.5877852410284794 1 0 0 forward_v I I I I #
coedge $-1 $89 $90 $91 $92 reversed $35 $-1 #
face $-1 $-1 $93 $19 $-1 $94 forward single #
loop $-1 $95 $96 $37 #
cone-surface $-1 35.847098116440016 19.783847898316804 4.1514250918561162 0 -0.80901700255871778 -0.5877852410284794 0.5 0 0 1 I I -0.70710678118654813 0.70710678118654691 0.5 forward I I I I #
loop $-1 $-1 $97 $24 #
coedge $-1 $60 $60 $98 $99 reversed $38 $-1 #
face $-1 $100 $101 $15 $-1 $102 reversed single #
loop $-1 $-1 $103 $40 #
plane-surface $-1 0 -23.414890843323821 0 0 1 0 0 0 1 forward_v I I I I #
coedge $-1 $104 $105 $106 $107 forward $41 $-1 #
coedge $-1 $108 $43 $109 $110 forward $26 $-1 #
coedge $-1 $43 $108 $111 $112 forward $26 $-1 #
coedge $-1 $113 $114 $43 $68 reversed $115 $-1 #
edge $-1 $116 -23.414890843323821 $117 23.414890843323821 $67 $118 forward 7 unknown #
face $-1 $119 $120 $16 $-1 $121 reversed single #
loop $-1 $-1 $122 $44 #
plane-surface $-1 -55.140406567334729 -21.914890843323821 0 1 0 0 0 0 -1 forward_v I I I I #
coedge $-1 $123 $124 $73 $125 forward $45 $-1 #
coedge $-1 $126 $47 $72 $125 reversed $29 $-1 #
coedge $-1 $47 $126 $127 $128 reversed $29 $-1 #
coedge $-1 $129 $130 $47 $76 reversed $120 $-1 #
edge $-1 $131 -7.945570628254095 $132 7.945570628254095 $75 $133 forward 7 unknown #
face $-1 $134 $135 $17 $-1 $136 reversed single #
loop $-1 $-1 $137 $48 #
plane-surface $-1 0 0 -7.945570628254095 0 0 1 1 0 0 forward_v I I I I #
coedge $-1 $138 $139 $140 $141 forward $49 $-1 #
coedge $-1 $140 $51 $137 $142 reversed $32 $-1 #
coedge $-1 $51 $140 $143 $144 reversed $32 $-1 #
coedge $-1 $145 $146 $51 $84 reversed $135 $-1 #
edge $-1 $147 -7.945570628254095 $148 7.945570628254095 $83 $149 forward 7 unknown #
face $-1 $150 $151 $18 $-1 $152 reversed single #
loop $-1 $-1 $153 $52 #
plane-surface $-1 43.317187963748374 75.54290433400503 98.806523850727871 -1 0 0 0 0.80901700255871778 0.5877852410284794 forward_v I I I I #
coedge $-1 $154 $155 $156 $157 reversed $53 $-1 #
coedge $-1 $90 $55 $158 $159 reversed $35 $-1 #
coedge $-1 $55 $89 $154 $160 reversed $35 $-1 #
coedge $-1 $156 $161 $55 $92 forward $162 $-1 #
edge $-1 $163 14.356561323678694 $164 17.914481625055465 $91 $165 forward 7 unknown #
loop $-1 $-1 $98 $56 #
plane-surface $-1 35.847098116440016 -4.1109636726734209 40.93460291819089 0 0.80901700255871778 0.5877852410284794 1 0 0 forward_v I I I I #
loop $-1 $-1 $166 $37 #
coedge $-1 $96 $96 $97 $167 reversed $57 $-1 #
coedge $-1 $97 $97 $96 $167 forward $59 $-1 #
coedge $-1 $98 $98 $60 $99 forward $93 $-1 #
edge $-1 $168 -1.9533893409379798e-015 $168 6.2831853071795987 $98 $169 forward 7 unknown #
face $-1 $170 $171 $15 $-1 $172 reversed single #
loop $-1 $-1 $173 $61 #
plane-surface $-1 -49.228797265541552 0 0 1 0 0 0 0 -1 forward_v I I I I #
coedge $-1 $174 $111 $175 $176 forward $62 $-1 #
coedge $-1 $177 $64 $174 $178 forward $41 $-1 #
coedge $-1 $64 $177 $179 $180 forward $41 $-1 #
coedge $-1 $114 $113 $64 $107 reversed $115 $-1 #
edge $-1 $181 -23.414890843323821 $182 23.414890843323821 $106 $183 forward 7 unknown #
coedge $-1 $66 $65 $184 $185 forward $26 $-1 #
coedge $-1 $186 $187 $65 $110 reversed $171 $-1 #
edge $-1 $117 -49.228797265541552 $188 49.228797265541552 $109 $189 forward 7 unknown #
coedge $-1 $103 $190 $66 $112 reversed $62 $-1 #
edge $-1 $191 -49.228797265541552 $116 49.228797265541552 $111 $192 forward 7 unknown #
coedge $-1 $106 $67 $190 $193 forward $115 $-1 #
coedge $-1 $67 $106 $186 $194 reversed $115 $-1 #
loop $-1 $-1 $113 $170 #
vertex $-1 $68 $195 #
vertex $-1 $68 $196 #
straight-curve $-1 49.228797265541552 0 7.945570628254095 0 1 0 I I #
face $-1 $197 $198 $16 $-1 $199 reversed single #
loop $-1 $-1 $75 $69 #
plane-surface $-1 -52.18460191643814 -20.414890843323821 0 0 -1 0 0 0 -1 forward_v I I I I #
coedge $-1 $200 $201 $202 $203 forward $70 $-1 #
coedge $-1 $204 $72 $130 $205 forward $45 $-1 #
coedge $-1 $72 $204 $206 $207 forward $45 $-1 #
edge $-1 $208 -23.414890843323821 $132 -20.414890843323821 $72 $209 forward 7 unknown #
coedge $-1 $74 $73 $210 $211 reversed $29 $-1 #
coedge $-1 $212 $213 $74 $128 forward $198 $-1 #
edge $-1 $131 20.414890843323821 $214 23.414890843323821 $127 $215 forward 7 unknown #
coedge $-1 $202 $75 $213 $216 reversed $120 $-1 #
coedge $-1 $75 $202 $123 $205 reversed $120 $-1 #
vertex $-1 $128 $217 #
vertex $-1 $205 $218 #
straight-curve $-1 -49.228797265541552 -20.414890843323821 0 0 0 1 I I #
face $-1 $219 $220 $17 $-1 $221 reversed single #
loop $-1 $-1 $222 $77 #
plane-surface $-1 52.184601916438133 -20.414890843323821 0 0 -1 0 0 0 -1 forward_v I I I I #
coedge $-1 $223 $224 $81 $142 forward $78 $-1 #
coedge $-1 $225 $80 $224 $226 reversed $49 $-1 #
coedge $-1 $80 $225 $227 $228 reversed $49 $-1 #
coedge $-1 $82 $81 $80 $141 reversed $32 $-1 #
edge $-1 $229 -7.945570628254095 $230 7.945570628254095 $80 $231 forward 7 unknown #
edge $-1 $230 -23.414890843323821 $148 -20.414890843323821 $137 $232 forward 7 unknown #
coedge $-1 $227 $233 $82 $144 forward $234 $-1 #
edge $-1 $147 20.414890843323821 $229 23.414890843323821 $143 $235 forward 7 unknown #
coedge $-1 $222 $83 $233 $236 reversed $135 $-1 #
coedge $-1 $83 $222 $223 $237 reversed $135 $-1 #
vertex $-1 $144 $238 #
vertex $-1 $237 $239 #
straight-curve $-1 49.228797265541552 -20.414890843323821 0 0 0 -1 I I #
face $-1 $-1 $162 $18 $-1 $240 forward single #
loop $-1 $-1 $241 $85 #
plane-surface $-1 0 23.414890843323821 0 0 -1 0 0 0 -1 forward_v I I I I #
coedge $-1 $242 $243 $244 $245 reversed $86 $-1 #
coedge $-1 $246 $88 $90 $160 forward $53 $-1 #
coedge $-1 $88 $246 $242 $247 forward $53 $-1 #
coedge $-1 $244 $91 $88 $157 forward $162 $-1 #
edge $-1 $164 10.45345921091165 $248 25.393638905528366 $156 $249 forward 7 unknown #
coedge $-1 $250 $251 $89 $159 forward $151 $-1 #
edge $-1 $252 -46.354748617783841 $163 -41.457691297109839 $158 $253 forward 7 unknown #
edge $-1 $164 40.776686009812849 $252 46.829781686647621 $90 $254 forward 7 unknown #
coedge $-1 $91 $244 $250 $255 forward $162 $-1 #
loop $-1 $-1 $244 $150 #
vertex $-1 $159 $256 #
vertex $-1 $92 $257 #
straight-curve $-1 28.377008269131657 37.771452167002515 7.9455706282540959 0 -1 0 I I #
coedge $-1 $166 $166 $-1 $258 reversed $95 $-1 #
edge $-1 $259 0 $259 6.2831853071796004 $96 $260 forward 7 unknown #
vertex $-1 $99 $261 #
ellipse-curve $-1 35.847098116440016 21.635930692635437 5.4970419679170925 0 0.80901700255871778 0.5877852410284794 1 0 0 1 I I #
face $-1 $-1 $115 $15 $-1 $262 reversed single #
loop $-1 $-1 $186 $100 #
plane-surface $-1 0 23.414890843323821 0 0 -1 0 0 0 -1 forward_v I I I I #
coedge $-1 $263 $184 $187 $264 forward $101 $-1 #
coedge $-1 $190 $103 $104 $178 reversed $62 $-1 #
coedge $-1 $184 $263 $103 $176 reversed $101 $-1 #
edge $-1 $191 -7.945570628254095 $265 7.945570628254095 $175 $266 forward 7 unknown #
coedge $-1 $105 $104 $263 $267 forward $41 $-1 #
edge $-1 $182 -49.228797265541552 $265 49.228797265541552 $174 $268 forward 7 unknown #
coedge $-1 $187 $186 $105 $180 reversed $171 $-1 #
edge $-1 $269 -49.228797265541552 $181 49.228797265541552 $179 $270 forward 7 unknown #
vertex $-1 $107 $271 #
vertex $-1 $193 $272 #
straight-curve $-1 49.228797265541552 0 -7.945570628254095 0 -1 0 I I #
coedge $-1 $173 $175 $108 $185 reversed $101 $-1 #
edge $-1 $188 -23.414890843323821 $191 23.414890843323821 $184 $273 forward 7 unknown #
coedge $-1 $179 $109 $114 $194 forward $171 $-1 #
coedge $-1 $109 $179 $173 $264 reversed $171 $-1 #
vertex $-1 $110 $274 #
straight-curve $-1 0 23.414890843323821 7.945570628254095 -1 0 0 I I #
coedge $-1 $111 $174 $113 $193 reversed $62 $-1 #
vertex $-1 $185 $275 #
straight-curve $-1 0 -23.414890843323821 7.945570628254095 1 0 0 I I #
edge $-1 $116 -7.945570628254095 $182 7.945570628254095 $113 $276 forward 7 unknown #
edge $-1 $117 -7.945570628254095 $181 7.945570628254095 $114 $277 forward 7 unknown #
point $-1 49.228797265541552 -23.414890843323821 7.945570628254095 #
point $-1 49.228797265541552 23.414890843323821 7.945570628254095 #
face $-1 $-1 $278 $16 $-1 $279 reversed single #
loop $-1 $-1 $127 $119 #
plane-surface $-1 0 0 -7.945570628254095 0 0 1 1 0 0 forward_v I I I I #
coedge $-1 $280 $122 $281 $282 reversed $70 $-1 #
coedge $-1 $122 $280 $204 $283 reversed $70 $-1 #
coedge $-1 $130 $129 $122 $203 reversed $120 $-1 #
edge $-1 $284 -7.945570628254095 $285 7.945570628254095 $202 $286 forward 7 unknown #
coedge $-1 $124 $123 $201 $283 forward $45 $-1 #
edge $-1 $132 -2.9558046508965887 $284 2.9558046508965887 $130 $287 forward 7 unknown #
coedge $-1 $288 $210 $124 $207 reversed $278 $-1 #
edge $-1 $289 -55.140406567334729 $208 -49.228797265541552 $206 $290 forward 7 unknown #
vertex $-1 $211 $291 #
straight-curve $-1 -49.228797265541552 0 7.945570628254095 0 1 0 I I #
coedge $-1 $206 $292 $126 $211 forward $278 $-1 #
edge $-1 $214 -7.945570628254095 $208 7.945570628254095 $210 $293 forward 7 unknown #
coedge $-1 $281 $127 $292 $294 forward $198 $-1 #
coedge $-1 $127 $281 $129 $216 forward $198 $-1 #
vertex $-1 $294 $295 #
straight-curve $-1 -49.228797265541552 0 -7.945570628254095 0 -1 0 I I #
edge $-1 $285 -2.9558046508965887 $131 2.9558046508965887 $129 $296 forward 7 unknown #
point $-1 -49.228797265541552 -20.414890843323821 -7.945570628254095 #
point $-1 -49.228797265541552 -20.414890843323821 7.945570628254095 #
face $-1 $-1 $234 $17 $-1 $297 forward single #
loop $-1 $-1 $298 $134 #
plane-surface $-1 55.140406567334722 -21.914890843323821 0 -1 0 0 0 0 1 forward_v I I I I #
coedge $-1 $146 $145 $299 $300 forward $135 $-1 #
coedge $-1 $301 $137 $146 $237 forward $78 $-1 #
coedge $-1 $137 $301 $138 $226 forward $78 $-1 #
coedge $-1 $139 $138 $298 $302 reversed $49 $-1 #
edge $-1 $303 -2.9558046508965887 $230 2.9558046508965816 $138 $304 forward 7 unknown #
coedge $-1 $305 $143 $139 $228 forward $234 $-1 #
edge $-1 $229 -2.9558046508965816 $306 2.9558046508965887 $139 $307 forward 7 unknown #
vertex $-1 $228 $308 #
vertex $-1 $142 $309 #
straight-curve $-1 49.228797265541552 -23.414890843323821 0 0 0 -1 I I #
straight-curve $-1 49.228797265541552 0 -7.945570628254095 0 1 0 I I #
coedge $-1 $143 $305 $145 $236 forward $234 $-1 #
loop $-1 $-1 $143 $219 #
straight-curve $-1 49.228797265541552 0 7.945570628254095 0 -1 0 I I #
edge $-1 $310 -2.9558046508965887 $147 2.9558046508965887 $145 $311 forward 7 unknown #
edge $-1 $148 -2.9558046508965887 $312 2.9558046508965887 $146 $313 forward 7 unknown #
point $-1 49.228797265541544 -20.414890843323821 7.945570628254095 #
point $-1 49.228797265541544 -20.414890843323821 -7.945570628254095 #
plane-surface $-1 0 0 7.945570628254095 0 0 1 1 0 0 forward_v I I I I #
coedge $-1 $251 $250 $243 $314 forward $151 $-1 #
coedge $-1 $243 $153 $155 $247 reversed $86 $-1 #
coedge $-1 $153 $242 $241 $314 reversed $86 $-1 #
coedge $-1 $161 $156 $153 $245 forward $162 $-1 #
edge $-1 $248 -17.914481625055465 $315 -14.356561323678694 $244 $316 forward 7 unknown #
coedge $-1 $155 $154 $251 $317 reversed $53 $-1 #
edge $-1 $318 -46.829781686647621 $248 -40.776686009812849 $242 $319 forward 7 unknown #
vertex $-1 $157 $320 #
straight-curve $-1 17.923549058220008 19.856970541947046 7.9455706282540959 1 0 0 I I #
coedge $-1 $241 $158 $161 $255 reversed $151 $-1 #
coedge $-1 $158 $241 $246 $317 forward $151 $-1 #
vertex $-1 $159 $321 #
straight-curve $-1 28.377008269131657 23.414890843323821 49.403261925363935 0 0 1 I I #
straight-curve $-1 28.377008269131657 -4.1109636726734209 40.93460291819089 0 0.5877852410284794 -0.80901700255871778 I I #
edge $-1 $315 -43.317187963748374 $163 -28.377008269131657 $250 $322 forward 7 unknown #
point $-1 28.377008269131657 23.414890843323821 7.945570628254095 #
point $-1 28.377008269131657 19.856970541947049 7.9455706282540959 #
edge $-1 $323 1 $323 0 $166 $-1 forward 7 unknown #
vertex $-1 $167 $324 #
ellipse-curve $-1 35.847098116440016 20.188356399596163 4.4453177123703558 0 0.80901700255871778 0.5877852410284794 1 0 0 1 I I #
point $-1 36.847098116440016 21.635930692635426 5.4970419679170872 #
plane-surface $-1 49.228797265541552 0 0 -1 0 0 0 0 1 forward_v I I I I #
coedge $-1 $175 $173 $177 $267 reversed $101 $-1 #
edge $-1 $188 -7.945570628254095 $269 7.945570628254095 $187 $325 forward 7 unknown #
vertex $-1 $267 $326 #
straight-curve $-1 -49.228797265541552 -23.414890843323821 0 0 0 -1 I I #
edge $-1 $265 -23.414890843323821 $269 23.414890843323821 $263 $327 forward 7 unknown #
straight-curve $-1 0 -23.414890843323821 -7.945570628254095 -1 0 0 I I #
vertex $-1 $180 $328 #
straight-curve $-1 0 23.414890843323821 -7.945570628254095 1 0 0 I I #
point $-1 49.228797265541552 23.414890843323821 -7.945570628254095 #
point $-1 49.228797265541552 -23.414890843323821 -7.945570628254095 #
straight-curve $-1 -49.228797265541552 0 7.945570628254095 0 -1 0 I I #
point $-1 -49.228797265541552 23.414890843323821 7.945570628254095 #
point $-1 -49.228797265541552 -23.414890843323821 7.945570628254095 #
straight-curve $-1 49.228797265541552 -23.414890843323821 0 0 0 -1 I I #
straight-curve $-1 49.228797265541552 23.414890843323821 0 0 0 -1 I I #
loop $-1 $-1 $210 $197 #
plane-surface $-1 0 -23.414890843323821 0 0 1 0 0 0 1 forward_v I I I I #
coedge $-1 $201 $200 $288 $329 reversed $70 $-1 #
coedge $-1 $213 $212 $200 $282 forward $198 $-1 #
edge $-1 $330 -1.5 $285 1.5 $200 $331 forward 7 unknown #
edge $-1 $284 -1.5 $289 1.5 $201 $332 forward 7 unknown #
vertex $-1 $205 $333 #
vertex $-1 $216 $334 #
straight-curve $-1 -55.140406567334729 -20.414890843323821 0 0 0 -1 I I #
straight-curve $-1 -52.18460191643814 -20.414890843323821 7.945570628254095 -1 0 0 I I #
coedge $-1 $292 $206 $280 $329 forward $278 $-1 #
vertex $-1 $283 $335 #
straight-curve $-1 0 -23.414890843323821 7.945570628254095 1 0 0 I I #
point $-1 -49.228797265541552 -23.414890843323821 7.945570628254095 #
coedge $-1 $210 $288 $212 $294 reversed $278 $-1 #
straight-curve $-1 -49.228797265541552 -23.414890843323821 0 0 0 1 I I #
edge $-1 $214 -2.9558046508965887 $330 2.9558046508965887 $292 $336 forward 7 unknown #
point $-1 -49.228797265541552 -23.414890843323821 -7.945570628254095 #
straight-curve $-1 -52.18460191643814 -20.414890843323821 -7.945570628254095 1 0 0 I I #
plane-surface $-1 0 0 7.945570628254095 0 0 1 1 0 0 forward_v I I I I #
coedge $-1 $337 $338 $225 $302 forward $220 $-1 #
coedge $-1 $338 $337 $222 $300 reversed $220 $-1 #
edge $-1 $310 -7.945570628254095 $312 7.945570628254095 $299 $339 forward 7 unknown #
coedge $-1 $224 $223 $337 $340 forward $78 $-1 #
edge $-1 $306 -7.945570628254095 $303 7.945570628254095 $298 $341 forward 7 unknown #
vertex $-1 $302 $342 #
straight-curve $-1 52.184601916438133 -23.414890843323821 -7.945570628254095 -1 0 0 I I #
coedge $-1 $233 $227 $338 $343 forward $234 $-1 #
vertex $-1 $343 $344 #
straight-curve $-1 52.184601916438133 -23.414890843323821 7.945570628254095 1 0 0 I I #
point $-1 49.228797265541552 -23.414890843323821 7.945570628254095 #
point $-1 49.228797265541552 -23.414890843323821 -7.945570628254095 #
vertex $-1 $343 $345 #
straight-curve $-1 52.184601916438133 -20.414890843323821 7.945570628254095 -1 0 0 I I #
vertex $-1 $340 $346 #
straight-curve $-1 52.184601916438133 -20.414890843323821 -7.945570628254095 1 0 0 I I #
edge $-1 $315 41.457691297109839 $318 46.354748617783841 $241 $347 forward 7 unknown #
vertex $-1 $255 $348 #
straight-curve $-1 43.317187963748374 37.771452167002515 7.9455706282540959 0 1 0 I I #
edge $-1 $318 -25.393638905528366 $252 -10.45345921091165 $251 $349 forward 7 unknown #
vertex $-1 $317 $350 #
straight-curve $-1 43.317187963748374 -4.1109636726734209 40.93460291819089 0 -0.5877852410284794 0.80901700255871778 I I #
point $-1 43.317187963748374 19.856970541947049 7.9455706282540959 #
point $-1 28.377008269131657 23.414890843323821 3.0485133075800945 #
straight-curve $-1 0 23.414890843323821 7.945570628254095 -1 0 0 I I #
vertex $-1 $258 $351 #
point $-1 36.847098116440016 20.188356399596163 4.4453177123703558 #
straight-curve $-1 -49.228797265541552 23.414890843323821 0 0 0 -1 I I #
point $-1 -49.228797265541552 -23.414890843323821 -7.945570628254095 #
straight-curve $-1 -49.228797265541552 0 -7.945570628254095 0 1 0 I I #
point $-1 -49.228797265541552 23.414890843323821 -7.945570628254095 #
edge $-1 $289 -7.945570628254095 $330 7.945570628254095 $280 $352 forward 7 unknown #
vertex $-1 $282 $353 #
straight-curve $-1 -55.140406567334729 -21.914890843323821 -7.945570628254095 0 1 0 I I #
straight-curve $-1 -55.140406567334729 -21.914890843323821 7.945570628254095 0 -1 0 I I #
point $-1 -55.140406567334729 -20.414890843323821 7.945570628254095 #
point $-1 -55.140406567334729 -20.414890843323821 -7.945570628254095 #
point $-1 -55.140406567334729 -23.414890843323821 7.945570628254095 #
straight-curve $-1 -52.18460191643814 -23.414890843323821 -7.945570628254095 -1 0 0 I I #
coedge $-1 $299 $298 $301 $340 reversed $220 $-1 #
coedge $-1 $298 $299 $305 $343 reversed $220 $-1 #
straight-curve $-1 55.140406567334722 -20.414890843323821 0 0 0 -1 I I #
edge $-1 $312 -1.5 $303 1.5 $337 $354 forward 7 unknown #
straight-curve $-1 55.140406567334722 -23.414890843323821 0 0 0 -1 I I #
point $-1 55.140406567334722 -23.414890843323821 -7.945570628254095 #
edge $-1 $306 -1.5 $310 1.5 $338 $355 forward 7 unknown #
point $-1 55.140406567334722 -23.414890843323821 7.945570628254095 #
point $-1 55.140406567334722 -20.414890843323821 7.945570628254095 #
point $-1 55.140406567334722 -20.414890843323821 -7.945570628254095 #
straight-curve $-1 43.317187963748374 23.414890843323821 49.403261925363935 0 0 -1 I I #
point $-1 43.317187963748374 23.414890843323821 7.945570628254095 #
straight-curve $-1 17.923549058220008 23.414890843323821 3.0485133075800981 -1 0 0 I I #
point $-1 43.317187963748374 23.414890843323821 3.0485133075800945 #
point $-1 35.847098116440016 19.379339397037445 3.857532471341877 #
straight-curve $-1 -55.140406567334729 -23.414890843323821 0 0 0 -1 I I #
point $-1 -55.140406567334729 -23.414890843323821 -7.945570628254095 #
straight-curve $-1 55.140406567334722 -21.914890843323821 -7.945570628254095 0 -1 0 I I #
straight-curve $-1 55.140406567334722 -21.914890843323821 7.945570628254095 0 1 0 I I #
End-of-ACIS-data 