500 0 16 0           
7 Unknown 11 ACIS 5.0 NT 24 Thu Mar 25 18:56:18 1999 
-1 9.9999999999999995e-007 1e-010 
body $-1 $16 $-1 $17 #
body $-1 $18 $-1 $19 #
body $-1 $20 $-1 $21 #
body $-1 $22 $-1 $23 #
body $-1 $24 $-1 $25 #
body $-1 $26 $-1 $27 #
body $-1 $28 $-1 $29 #
body $-1 $30 $-1 $31 #
body $-1 $32 $-1 $33 #
body $-1 $34 $-1 $35 #
body $-1 $36 $-1 $37 #
body $-1 $38 $-1 $39 #
body $-1 $40 $-1 $41 #
body $-1 $42 $-1 $43 #
body $-1 $44 $-1 $45 #
body $-1 $46 $-1 $47 #
lump $-1 $-1 $48 $0 #
transform $-1 1 0 0 0 1 0 0 0 1 49.797662282174137 26.705054525051544 9.3835662642180697 1 rotate no_reflect no_shear #
lump $-1 $-1 $49 $1 #
transform $-1 1 0 0 0 1 0 0 0 1 49.797662282174137 26.705054525051544 9.3835662642180697 1 rotate no_reflect no_shear #
lump $-1 $-1 $50 $2 #
transform $-1 1 0 0 0 1 0 0 0 1 49.797662282174137 26.705054525051544 9.3835662642180697 1 rotate no_reflect no_shear #
lump $-1 $-1 $51 $3 #
transform $-1 1 0 0 0 1 0 0 0 1 49.797662282174137 26.705054525051544 9.3835662642180697 1 rotate no_reflect no_shear #
lump $-1 $-1 $52 $4 #
transform $-1 1 0 0 0 1 0 0 0 1 49.797662282174137 26.705054525051544 9.3835662642180697 1 rotate no_reflect no_shear #
lump $-1 $-1 $53 $5 #
transform $-1 1 0 0 0 1 0 0 0 1 49.797662282174137 26.705054525051544 9.3835662642180697 1 rotate no_reflect no_shear #
lump $-1 $-1 $54 $6 #
transform $-1 1 0 0 0 1 0 0 0 1 49.797662282174137 26.705054525051544 9.3835662642180697 1 rotate no_reflect no_shear #
lump $-1 $-1 $55 $7 #
transform $-1 1 0 0 0 1 0 0 0 1 49.797662282174137 26.705054525051544 9.3835662642180697 1 rotate no_reflect no_shear #
lump $-1 $-1 $56 $8 #
transform $-1 1 0 0 0 1 0 0 0 1 49.797662282174137 26.705054525051544 9.3835662642180697 1 rotate no_reflect no_shear #
lump $-1 $-1 $57 $9 #
transform $-1 1 0 0 0 1 0 0 0 1 49.797662282174137 26.705054525051544 9.3835662642180697 1 rotate no_reflect no_shear #
lump $-1 $-1 $58 $10 #
transform $-1 1 0 0 0 1 0 0 0 1 49.797662282174137 26.705054525051544 9.3835662642180697 1 rotate no_reflect no_shear #
lump $-1 $-1 $59 $11 #
transform $-1 1 0 0 0 1 0 0 0 1 49.797662282174137 26.705054525051544 9.3835662642180697 1 rotate no_reflect no_shear #
lump $-1 $-1 $60 $12 #
transform $-1 1 0 0 0 1 0 0 0 1 49.797662282174137 26.705054525051544 9.3835662642180697 1 rotate no_reflect no_shear #
lump $-1 $-1 $61 $13 #
transform $-1 1 0 0 0 1 0 0 0 1 49.797662282174137 26.705054525051544 9.3835662642180697 1 rotate no_reflect no_shear #
lump $-1 $-1 $62 $14 #
transform $-1 1 0 0 0 1 0 0 0 1 49.797662282174137 26.705054525051544 9.3835662642180697 1 rotate no_reflect no_shear #
lump $-1 $-1 $63 $15 #
transform $-1 1 0 0 0 1 0 0 0 1 49.797662282174137 26.705054525051544 9.3835662642180697 1 rotate no_reflect no_shear #
shell $-1 $-1 $-1 $64 $-1 $16 #
shell $-1 $-1 $-1 $65 $-1 $18 #
shell $-1 $-1 $-1 $66 $-1 $20 #
shell $-1 $-1 $-1 $67 $-1 $22 #
shell $-1 $-1 $-1 $68 $-1 $24 #
shell $-1 $-1 $-1 $69 $-1 $26 #
shell $-1 $-1 $-1 $70 $-1 $28 #
shell $-1 $-1 $-1 $71 $-1 $30 #
shell $-1 $-1 $-1 $72 $-1 $32 #
shell $-1 $-1 $-1 $73 $-1 $34 #
shell $-1 $-1 $-1 $74 $-1 $36 #
shell $-1 $-1 $-1 $75 $-1 $38 #
shell $-1 $-1 $-1 $76 $-1 $40 #
shell $-1 $-1 $-1 $77 $-1 $42 #
shell $-1 $-1 $-1 $78 $-1 $44 #
shell $-1 $-1 $-1 $79 $-1 $46 #
face $-1 $80 $81 $48 $-1 $82 forward single #
face $-1 $83 $84 $49 $-1 $85 forward single #
face $-1 $86 $87 $50 $-1 $88 reversed single #
face $-1 $89 $90 $51 $-1 $91 forward single #
face $-1 $92 $93 $52 $-1 $94 reversed single #
face $-1 $95 $96 $53 $-1 $97 forward single #
face $-1 $98 $99 $54 $-1 $100 reversed single #
face $-1 $101 $102 $55 $-1 $103 forward single #
face $-1 $104 $105 $56 $-1 $106 reversed single #
face $-1 $107 $108 $57 $-1 $109 forward single #
face $-1 $110 $111 $58 $-1 $112 reversed single #
face $-1 $113 $114 $59 $-1 $115 forward single #
face $-1 $116 $117 $60 $-1 $118 forward single #
face $-1 $119 $120 $61 $-1 $121 reversed single #
face $-1 $122 $123 $62 $-1 $124 forward single #
face $-1 $125 $126 $63 $-1 $127 forward single #
face $-1 $128 $129 $48 $-1 $130 reversed single #
loop $-1 $-1 $131 $64 #
plane-surface $-1 0 0 9.3835662642180697 0 0 1 1 0 0 forward_v I I I I #
face $-1 $132 $133 $49 $-1 $134 reversed single #
loop $-1 $-1 $135 $65 #
plane-surface $-1 -49.797662282174137 0 0 1 0 0 0 0 -1 forward_v I I I I #
face $-1 $136 $137 $50 $-1 $138 reversed single #
loop $-1 $-1 $139 $66 #
plane-surface $-1 -20.448515242624307 -104.10515961441078 63.214477852980899 -1 0 0 0 -0.77714596973225614 0.62932038083071107 forward_v I I I I #
face $-1 $140 $141 $51 $-1 $142 forward single #
loop $-1 $143 $144 $67 #
cone-surface $-1 -28.163770632661315 -22.507931925300891 4.4621078928715328 0 0.77714596973225614 -0.62932038083071107 1 0 0 1 I I 0 1 1 forward I I I I #
face $-1 $145 $146 $52 $-1 $147 reversed single #
loop $-1 $-1 $148 $68 #
plane-surface $-1 1.7388869135868825 -104.10515961441078 63.214477852980899 -1 0 0 0 -0.77714596973225614 0.62932038083071107 forward_v I I I I #
face $-1 $149 $150 $53 $-1 $151 forward single #
loop $-1 $152 $153 $69 #
cone-surface $-1 -5.9763684764501264 -22.507931925300891 4.4621078928715328 0 0.77714596973225614 -0.62932038083071107 1 0 0 1 I I 0 1 1 forward I I I I #
face $-1 $154 $155 $54 $-1 $156 reversed single #
loop $-1 $-1 $157 $70 #
plane-surface $-1 23.926289069798074 -104.10515961441078 63.214477852980899 -1 0 0 0 -0.77714596973225614 0.62932038083071107 forward_v I I I I #
face $-1 $158 $159 $55 $-1 $160 forward single #
loop $-1 $161 $162 $71 #
cone-surface $-1 16.211033679761066 -22.507931925300891 4.4621078928715328 0 0.77714596973225614 -0.62932038083071107 1 0 0 1 I I 0 1 1 forward I I I I #
face $-1 $163 $164 $56 $-1 $165 reversed single #
loop $-1 $-1 $166 $72 #
plane-surface $-1 46.113691226009266 -104.10515961441078 63.214477852980899 -1 0 0 0 -0.77714596973225614 0.62932038083071107 forward_v I I I I #
face $-1 $167 $168 $57 $-1 $169 forward single #
loop $-1 $170 $171 $73 #
cone-surface $-1 38.398435835972258 -22.507931925300891 4.4621078928715328 0 0.77714596973225614 -0.62932038083071107 1 0 0 1 I I 0 1 1 forward I I I I #
face $-1 $172 $173 $58 $-1 $174 reversed single #
loop $-1 $-1 $175 $74 #
plane-surface $-1 -20.890838001819478 74.102412744243338 107.77062625965353 1 0 0 0 -0.79863551827123203 -0.60181501223851219 forward_v I I I I #
face $-1 $176 $177 $59 $-1 $178 forward single #
loop $-1 $179 $180 $75 #
cone-surface $-1 -16.667021686063549 24.266935079948951 6.6374626667150336 0 -0.79863551827123203 -0.60181501223851219 1 0 0 1 I I 0 1 1 forward I I I I #
face $-1 $181 $182 $60 $-1 $183 forward single #
loop $-1 $184 $185 $76 #
cone-surface $-1 -10.331297212429654 24.266935079948951 6.6374626667150336 0 -0.79863551827123203 -0.60181501223851219 1 0 0 1 I I 0 1 1 forward I I I I #
face $-1 $186 $187 $61 $-1 $188 reversed single #
loop $-1 $-1 $189 $77 #
plane-surface $-1 23.789491678699189 74.102412744243338 107.77062625965353 1 0 0 0 -0.79863551827123203 -0.60181501223851219 forward_v I I I I #
face $-1 $190 $191 $62 $-1 $192 forward single #
loop $-1 $193 $194 $78 #
cone-surface $-1 28.013307994455126 24.266935079948951 6.6374626667150336 0 -0.79863551827123203 -0.60181501223851219 1 0 0 1 I I 0 1 1 forward I I I I #
face $-1 $195 $196 $63 $-1 $197 forward single #
loop $-1 $198 $199 $79 #
cone-surface $-1 34.349032468089014 24.266935079948951 6.6374626667150336 0 -0.79863551827123203 -0.60181501223851219 1 0 0 1 I I 0 1 1 forward I I I I #
face $-1 $200 $201 $48 $-1 $202 reversed single #
loop $-1 $-1 $203 $80 #
plane-surface $-1 0 0 -9.3835662642180697 0 0 1 1 0 0 forward_v I I I I #
coedge $-1 $204 $205 $206 $207 forward $81 $-1 #
face $-1 $208 $209 $49 $-1 $210 forward single #
loop $-1 $-1 $211 $83 #
plane-surface $-1 0 26.705054525051544 0 0 -1 0 0 0 -1 forward_v I I I I #
coedge $-1 $212 $213 $214 $215 forward $84 $-1 #
face $-1 $216 $217 $50 $-1 $218 reversed single #
loop $-1 $-1 $219 $86 #
plane-surface $-1 -28.163770632661315 -26.705054525051551 0.53711026918696803 0 -0.77714596973225614 0.62932038083071107 1 0 0 forward_v I I I I #
coedge $-1 $220 $221 $222 $223 reversed $87 $-1 #
face $-1 $-1 $224 $51 $-1 $225 forward single #
loop $-1 $226 $227 $89 #
cone-surface $-1 -28.163770632661315 -21.504095651949115 3.649217328625193 0 0.77714596973225614 -0.62932038083071107 0.5 0 0 1 I I -0.70710678118654746 0.70710678118654746 0.5 forward I I I I #
loop $-1 $-1 $228 $67 #
coedge $-1 $144 $144 $229 $230 reversed $90 $-1 #
face $-1 $231 $232 $52 $-1 $233 reversed single #
loop $-1 $-1 $234 $92 #
plane-surface $-1 -5.9763684764501264 -26.705054525051551 0.53711026918696803 0 -0.77714596973225614 0.62932038083071107 1 0 0 forward_v I I I I #
coedge $-1 $235 $236 $237 $238 reversed $93 $-1 #
face $-1 $-1 $239 $53 $-1 $240 forward single #
loop $-1 $241 $242 $95 #
cone-surface $-1 -5.9763684764501264 -21.504095651949115 3.649217328625193 0 0.77714596973225614 -0.62932038083071107 0.5 0 0 1 I I -0.70710678118654746 0.70710678118654746 0.5 forward I I I I #
loop $-1 $-1 $243 $69 #
coedge $-1 $153 $153 $244 $245 reversed $96 $-1 #
face $-1 $246 $247 $54 $-1 $248 reversed single #
loop $-1 $-1 $249 $98 #
plane-surface $-1 16.211033679761066 -26.705054525051551 0.53711026918696803 0 -0.77714596973225614 0.62932038083071107 1 0 0 forward_v I I I I #
coedge $-1 $250 $251 $252 $253 reversed $99 $-1 #
face $-1 $-1 $254 $55 $-1 $255 forward single #
loop $-1 $256 $257 $101 #
cone-surface $-1 16.211033679761066 -21.504095651949115 3.649217328625193 0 0.77714596973225614 -0.62932038083071107 0.5 0 0 1 I I -0.70710678118654746 0.70710678118654746 0.5 forward I I I I #
loop $-1 $-1 $258 $71 #
coedge $-1 $162 $162 $259 $260 reversed $102 $-1 #
face $-1 $261 $262 $56 $-1 $263 reversed single #
loop $-1 $-1 $264 $104 #
plane-surface $-1 38.398435835972258 -26.705054525051551 0.53711026918696803 0 -0.77714596973225614 0.62932038083071107 1 0 0 forward_v I I I I #
coedge $-1 $265 $266 $267 $268 reversed $105 $-1 #
face $-1 $-1 $269 $57 $-1 $270 forward single #
loop $-1 $271 $272 $107 #
cone-surface $-1 38.398435835972258 -21.504095651949115 3.649217328625193 0 0.77714596973225614 -0.62932038083071107 0.5 0 0 1 I I -0.70710678118654746 0.70710678118654746 0.5 forward I I I I #
loop $-1 $-1 $273 $73 #
coedge $-1 $171 $171 $274 $275 reversed $108 $-1 #
face $-1 $276 $277 $58 $-1 $278 reversed single #
loop $-1 $-1 $279 $110 #
plane-surface $-1 -13.499159449246598 -5.4379509065965124 47.832664788061678 0 0.79863551827123203 0.60181501223851219 1 0 0 forward_v I I I I #
coedge $-1 $280 $281 $282 $283 reversed $111 $-1 #
face $-1 $-1 $284 $59 $-1 $285 forward single #
loop $-1 $286 $287 $113 #
cone-surface $-1 -16.667021686063549 23.01426404569775 5.6935073622469883 0 -0.79863551827123203 -0.60181501223851219 0.5 0 0 1 I I -0.70710678118654746 0.70710678118654746 0.5 forward I I I I #
loop $-1 $-1 $288 $75 #
coedge $-1 $180 $180 $289 $290 reversed $114 $-1 #
face $-1 $-1 $291 $60 $-1 $292 forward single #
loop $-1 $293 $294 $116 #
cone-surface $-1 -10.331297212429654 23.01426404569775 5.6935073622469883 0 -0.79863551827123203 -0.60181501223851219 0.5 0 0 1 I I -0.70710678118654746 0.70710678118654746 0.5 forward I I I I #
loop $-1 $-1 $295 $76 #
coedge $-1 $185 $185 $296 $297 reversed $117 $-1 #
face $-1 $298 $299 $61 $-1 $300 reversed single #
loop $-1 $-1 $301 $119 #
plane-surface $-1 31.18117023127207 -5.4379509065965124 47.832664788061678 0 0.79863551827123203 0.60181501223851219 1 0 0 forward_v I I I I #
coedge $-1 $302 $303 $304 $305 reversed $120 $-1 #
face $-1 $-1 $306 $62 $-1 $307 forward single #
loop $-1 $308 $309 $122 #
cone-surface $-1 28.013307994455126 23.01426404569775 5.6935073622469883 0 -0.79863551827123203 -0.60181501223851219 0.5 0 0 1 I I -0.70710678118654746 0.70710678118654746 0.5 forward I I I I #
loop $-1 $-1 $310 $78 #
coedge $-1 $194 $194 $311 $312 reversed $123 $-1 #
face $-1 $-1 $313 $63 $-1 $314 forward single #
loop $-1 $315 $316 $125 #
cone-surface $-1 34.349032468089014 23.01426404569775 5.6935073622469883 0 -0.79863551827123203 -0.60181501223851219 0.5 0 0 1 I I -0.70710678118654746 0.70710678118654746 0.5 forward I I I I #
loop $-1 $-1 $317 $79 #
coedge $-1 $199 $199 $318 $319 reversed $126 $-1 #
face $-1 $320 $321 $48 $-1 $322 reversed single #
loop $-1 $-1 $323 $128 #
plane-surface $-1 0 -26.705054525051544 0 0 1 0 0 0 1 forward_v I I I I #
coedge $-1 $324 $325 $326 $327 forward $129 $-1 #
coedge $-1 $328 $131 $329 $330 forward $81 $-1 #
coedge $-1 $131 $328 $331 $332 forward $81 $-1 #
coedge $-1 $333 $334 $131 $207 reversed $335 $-1 #
edge $-1 $336 -26.705054525051544 $337 26.705054525051544 $206 $338 forward 7 unknown #
face $-1 $339 $340 $49 $-1 $341 reversed single #
loop $-1 $-1 $214 $132 #
plane-surface $-1 -54.914994883829607 0 -1.2634520404040264 0 0 1 1 0 0 forward_v I I I I #
coedge $-1 $342 $343 $213 $344 forward $133 $-1 #
coedge $-1 $345 $135 $346 $347 reversed $84 $-1 #
coedge $-1 $135 $345 $211 $344 reversed $84 $-1 #
coedge $-1 $348 $349 $135 $215 reversed $209 $-1 #
edge $-1 $350 -26.705054525051544 $351 26.705054525051544 $214 $352 forward 7 unknown #
face $-1 $353 $354 $50 $-1 $355 reversed single #
loop $-1 $-1 $356 $136 #
plane-surface $-1 -35.879026022698326 -104.10515961441078 63.214477852980899 1 0 0 0 0.77714596973225614 -0.62932038083071107 forward_v I I I I #
coedge $-1 $357 $358 $359 $360 reversed $137 $-1 #
coedge $-1 $221 $139 $361 $362 reversed $87 $-1 #
coedge $-1 $139 $220 $357 $363 reversed $87 $-1 #
coedge $-1 $359 $364 $139 $223 forward $365 $-1 #
edge $-1 $366 25.347525282153846 $367 32.511243904683838 $222 $368 forward 7 unknown #
loop $-1 $-1 $229 $140 #
plane-surface $-1 -28.163770632661315 -26.705054525051551 0.53711026918696803 0 -0.77714596973225614 0.62932038083071107 1 0 0 forward_v I I I I #
loop $-1 $-1 $369 $89 #
coedge $-1 $227 $227 $228 $370 reversed $141 $-1 #
coedge $-1 $228 $228 $227 $370 forward $143 $-1 #
coedge $-1 $229 $229 $144 $230 forward $224 $-1 #
edge $-1 $371 -1.2154262710403756e-015 $371 6.2831853071795996 $229 $372 forward 7 unknown #
face $-1 $373 $374 $52 $-1 $375 reversed single #
loop $-1 $-1 $376 $145 #
plane-surface $-1 -13.691623866487134 -104.10515961441078 63.214477852980899 1 0 0 0 0.77714596973225614 -0.62932038083071107 forward_v I I I I #
coedge $-1 $377 $378 $379 $380 reversed $146 $-1 #
coedge $-1 $236 $148 $381 $382 reversed $93 $-1 #
coedge $-1 $148 $235 $377 $383 reversed $93 $-1 #
coedge $-1 $379 $384 $148 $238 forward $385 $-1 #
edge $-1 $386 25.347525282153846 $387 32.511243904683838 $237 $388 forward 7 unknown #
loop $-1 $-1 $244 $149 #
plane-surface $-1 -5.9763684764501264 -26.705054525051551 0.53711026918696803 0 -0.77714596973225614 0.62932038083071107 1 0 0 forward_v I I I I #
loop $-1 $-1 $389 $95 #
coedge $-1 $242 $242 $243 $390 reversed $150 $-1 #
coedge $-1 $243 $243 $242 $390 forward $152 $-1 #
coedge $-1 $244 $244 $153 $245 forward $239 $-1 #
edge $-1 $391 -1.2154262710403756e-015 $391 6.2831853071795996 $244 $392 forward 7 unknown #
face $-1 $393 $394 $54 $-1 $395 reversed single #
loop $-1 $-1 $396 $154 #
plane-surface $-1 8.4957782897240577 -104.10515961441078 63.214477852980899 1 0 0 0 0.77714596973225614 -0.62932038083071107 forward_v I I I I #
coedge $-1 $397 $398 $399 $400 reversed $155 $-1 #
coedge $-1 $251 $157 $401 $402 reversed $99 $-1 #
coedge $-1 $157 $250 $397 $403 reversed $99 $-1 #
coedge $-1 $399 $404 $157 $253 forward $405 $-1 #
edge $-1 $406 25.347525282153846 $407 32.511243904683838 $252 $408 forward 7 unknown #
loop $-1 $-1 $259 $158 #
plane-surface $-1 16.211033679761066 -26.705054525051551 0.53711026918696803 0 -0.77714596973225614 0.62932038083071107 1 0 0 forward_v I I I I #
loop $-1 $-1 $409 $101 #
coedge $-1 $257 $257 $258 $410 reversed $159 $-1 #
coedge $-1 $258 $258 $257 $410 forward $161 $-1 #
coedge $-1 $259 $259 $162 $260 forward $254 $-1 #
edge $-1 $411 -1.2154262710403756e-015 $411 6.2831853071795996 $259 $412 forward 7 unknown #
face $-1 $413 $414 $56 $-1 $415 reversed single #
loop $-1 $-1 $416 $163 #
plane-surface $-1 30.68318044593525 -104.10515961441078 63.214477852980899 1 0 0 0 0.77714596973225614 -0.62932038083071107 forward_v I I I I #
coedge $-1 $417 $418 $419 $420 reversed $164 $-1 #
coedge $-1 $266 $166 $421 $422 reversed $105 $-1 #
coedge $-1 $166 $265 $417 $423 reversed $105 $-1 #
coedge $-1 $419 $424 $166 $268 forward $425 $-1 #
edge $-1 $426 25.347525282153846 $427 32.511243904683838 $267 $428 forward 7 unknown #
loop $-1 $-1 $274 $167 #
plane-surface $-1 38.398435835972258 -26.705054525051551 0.53711026918696803 0 -0.77714596973225614 0.62932038083071107 1 0 0 forward_v I I I I #
loop $-1 $-1 $429 $107 #
coedge $-1 $272 $272 $273 $430 reversed $168 $-1 #
coedge $-1 $273 $273 $272 $430 forward $170 $-1 #
coedge $-1 $274 $274 $171 $275 forward $269 $-1 #
edge $-1 $431 -1.2154262710403756e-015 $431 6.2831853071795996 $274 $432 forward 7 unknown #
face $-1 $433 $434 $58 $-1 $435 forward single #
loop $-1 $-1 $436 $172 #
plane-surface $-1 -6.1074808966737173 74.102412744243338 107.77062625965353 -1 0 0 0 0.79863551827123203 0.60181501223851219 forward_v I I I I #
coedge $-1 $437 $438 $439 $440 reversed $173 $-1 #
coedge $-1 $281 $175 $441 $442 reversed $111 $-1 #
coedge $-1 $175 $280 $437 $443 reversed $111 $-1 #
coedge $-1 $439 $444 $175 $283 forward $434 $-1 #
edge $-1 $445 10.346151847070125 $446 13.515684187044126 $282 $447 forward 7 unknown #
loop $-1 $-1 $289 $176 #
plane-surface $-1 -13.499159449246598 -5.4379509065965124 47.832664788061678 0 0.79863551827123203 0.60181501223851219 1 0 0 forward_v I I I I #
loop $-1 $-1 $448 $113 #
coedge $-1 $287 $287 $288 $449 reversed $177 $-1 #
coedge $-1 $288 $288 $287 $449 forward $179 $-1 #
coedge $-1 $289 $289 $180 $290 forward $284 $-1 #
edge $-1 $450 -2.0167856967305989e-017 $450 6.2831853071796004 $289 $451 forward 7 unknown #
loop $-1 $-1 $296 $181 #
plane-surface $-1 -13.499159449246598 -5.4379509065965124 47.832664788061678 0 0.79863551827123203 0.60181501223851219 1 0 0 forward_v I I I I #
loop $-1 $-1 $452 $116 #
coedge $-1 $294 $294 $295 $453 reversed $182 $-1 #
coedge $-1 $295 $295 $294 $453 forward $184 $-1 #
coedge $-1 $296 $296 $185 $297 forward $291 $-1 #
edge $-1 $454 -2.0167856967305989e-017 $454 6.2831853071796004 $296 $455 forward 7 unknown #
face $-1 $456 $457 $61 $-1 $458 forward single #
loop $-1 $-1 $459 $186 #
plane-surface $-1 38.572848783844947 74.102412744243338 107.77062625965353 -1 0 0 0 0.79863551827123203 0.60181501223851219 forward_v I I I I #
coedge $-1 $460 $461 $462 $463 reversed $187 $-1 #
coedge $-1 $303 $189 $464 $465 reversed $120 $-1 #
coedge $-1 $189 $302 $460 $466 reversed $120 $-1 #
coedge $-1 $462 $467 $189 $305 forward $457 $-1 #
edge $-1 $468 10.346151847070125 $469 13.515684187044126 $304 $470 forward 7 unknown #
loop $-1 $-1 $311 $190 #
plane-surface $-1 31.18117023127207 -5.4379509065965124 47.832664788061678 0 0.79863551827123203 0.60181501223851219 1 0 0 forward_v I I I I #
loop $-1 $-1 $471 $122 #
coedge $-1 $309 $309 $310 $472 reversed $191 $-1 #
coedge $-1 $310 $310 $309 $472 forward $193 $-1 #
coedge $-1 $311 $311 $194 $312 forward $306 $-1 #
edge $-1 $473 -2.0167856967305989e-017 $473 6.2831853071796004 $311 $474 forward 7 unknown #
loop $-1 $-1 $318 $195 #
plane-surface $-1 31.18117023127207 -5.4379509065965124 47.832664788061678 0 0.79863551827123203 0.60181501223851219 1 0 0 forward_v I I I I #
loop $-1 $-1 $475 $125 #
coedge $-1 $316 $316 $317 $476 reversed $196 $-1 #
coedge $-1 $317 $317 $316 $476 forward $198 $-1 #
coedge $-1 $318 $318 $199 $319 forward $313 $-1 #
edge $-1 $477 -2.0167856967305989e-017 $477 6.2831853071796004 $318 $478 forward 7 unknown #
face $-1 $479 $480 $48 $-1 $481 reversed single #
loop $-1 $-1 $482 $200 #
plane-surface $-1 -49.797662282174137 0 0 1 0 0 0 0 -1 forward_v I I I I #
coedge $-1 $483 $331 $482 $484 forward $201 $-1 #
coedge $-1 $485 $203 $483 $486 forward $129 $-1 #
coedge $-1 $203 $485 $487 $488 forward $129 $-1 #
coedge $-1 $334 $333 $203 $327 reversed $335 $-1 #
edge $-1 $489 -26.705054525051544 $490 26.705054525051544 $326 $491 forward 7 unknown #
coedge $-1 $205 $204 $492 $493 forward $81 $-1 #
coedge $-1 $494 $495 $204 $330 reversed $480 $-1 #
edge $-1 $337 -49.797662282174137 $496 49.797662282174137 $329 $497 forward 7 unknown #
coedge $-1 $323 $498 $205 $332 reversed $201 $-1 #
edge $-1 $499 -49.797662282174137 $336 49.797662282174137 $331 $500 forward 7 unknown #
coedge $-1 $326 $206 $498 $501 forward $335 $-1 #
coedge $-1 $206 $326 $494 $502 reversed $335 $-1 #
loop $-1 $-1 $333 $479 #
vertex $-1 $207 $503 #
vertex $-1 $207 $504 #
straight-curve $-1 49.797662282174137 0 9.3835662642180697 0 1 0 I I #
face $-1 $505 $506 $49 $-1 $507 reversed single #
loop $-1 $-1 $508 $208 #
plane-surface $-1 -54.914994883829607 0 -5.4236992570183524 0 0 1 1 0 0 forward_v I I I I #
coedge $-1 $509 $211 $510 $511 reversed $133 $-1 #
coedge $-1 $211 $509 $348 $512 reversed $133 $-1 #
edge $-1 $350 1.2634520404040264 $513 5.4236992570183524 $211 $514 forward 7 unknown #
coedge $-1 $213 $212 $508 $515 forward $84 $-1 #
coedge $-1 $516 $517 $212 $347 forward $518 $-1 #
edge $-1 $519 -5.4236992570183524 $351 -1.2634520404040264 $346 $520 forward 7 unknown #
coedge $-1 $521 $214 $343 $512 forward $209 $-1 #
coedge $-1 $214 $521 $516 $522 forward $209 $-1 #
vertex $-1 $344 $523 #
vertex $-1 $522 $524 #
straight-curve $-1 -49.797662282174137 0 -1.2634520404040264 0 -1 0 I I #
face $-1 $-1 $365 $50 $-1 $525 forward single #
loop $-1 $-1 $526 $216 #
plane-surface $-1 0 -26.705054525051544 0 0 1 0 0 0 1 forward_v I I I I #
coedge $-1 $527 $528 $529 $530 reversed $217 $-1 #
coedge $-1 $531 $219 $221 $363 forward $137 $-1 #
coedge $-1 $219 $531 $527 $532 forward $137 $-1 #
coedge $-1 $529 $222 $219 $360 forward $365 $-1 #
edge $-1 $367 6.3666299262936494 $533 21.797140706367671 $359 $534 forward 7 unknown #
coedge $-1 $535 $536 $220 $362 forward $354 $-1 #
edge $-1 $537 -31.070128657303474 $366 -22.223672662272378 $361 $538 forward 7 unknown #
edge $-1 $367 -11.383261754646814 $537 -1.1287752508472441e-014 $221 $539 forward 7 unknown #
coedge $-1 $222 $529 $535 $540 forward $365 $-1 #
loop $-1 $-1 $529 $353 #
vertex $-1 $362 $541 #
vertex $-1 $223 $542 #
straight-curve $-1 -20.448515242624307 -52.05257980720539 9.3835662642180679 0 1 0 I I #
coedge $-1 $369 $369 $-1 $543 reversed $226 $-1 #
edge $-1 $544 0 $544 6.2831853071796004 $227 $545 forward 7 unknown #
vertex $-1 $230 $546 #
ellipse-curve $-1 -28.163770632661315 -23.123195213786548 4.9603382667025224 0 -0.77714596973225614 0.62932038083071107 1 0 0 1 I I #
face $-1 $-1 $385 $52 $-1 $547 forward single #
loop $-1 $-1 $548 $231 #
plane-surface $-1 0 -26.705054525051544 0 0 1 0 0 0 1 forward_v I I I I #
coedge $-1 $549 $550 $551 $552 reversed $232 $-1 #
coedge $-1 $553 $234 $236 $383 forward $146 $-1 #
coedge $-1 $234 $553 $549 $554 forward $146 $-1 #
coedge $-1 $551 $237 $234 $380 forward $385 $-1 #
edge $-1 $387 -4.7270711518119457 $555 10.703439628262071 $379 $556 forward 7 unknown #
coedge $-1 $557 $558 $235 $382 forward $374 $-1 #
edge $-1 $559 -31.070128657303474 $386 -22.223672662272378 $381 $560 forward 7 unknown #
edge $-1 $387 -11.383261754646814 $559 -1.1287752508472441e-014 $236 $561 forward 7 unknown #
coedge $-1 $237 $551 $557 $562 forward $385 $-1 #
loop $-1 $-1 $551 $373 #
vertex $-1 $382 $563 #
vertex $-1 $238 $564 #
straight-curve $-1 1.7388869135868825 -52.05257980720539 9.3835662642180679 0 1 0 I I #
coedge $-1 $389 $389 $-1 $565 reversed $241 $-1 #
edge $-1 $566 0 $566 6.2831853071796004 $242 $567 forward 7 unknown #
vertex $-1 $245 $568 #
ellipse-curve $-1 -5.9763684764501264 -23.123195213786548 4.9603382667025224 0 -0.77714596973225614 0.62932038083071107 1 0 0 1 I I #
face $-1 $-1 $405 $54 $-1 $569 forward single #
loop $-1 $-1 $570 $246 #
plane-surface $-1 0 -26.705054525051544 0 0 1 0 0 0 1 forward_v I I I I #
coedge $-1 $571 $572 $573 $574 reversed $247 $-1 #
coedge $-1 $575 $249 $251 $403 forward $155 $-1 #
coedge $-1 $249 $575 $571 $576 forward $155 $-1 #
coedge $-1 $573 $252 $249 $400 forward $405 $-1 #
edge $-1 $407 -15.820772229917541 $577 -0.39026144984352484 $399 $578 forward 7 unknown #
coedge $-1 $579 $580 $250 $402 forward $394 $-1 #
edge $-1 $581 -31.070128657303474 $406 -22.223672662272378 $401 $582 forward 7 unknown #
edge $-1 $407 -11.383261754646814 $581 -1.1287752508472441e-014 $251 $583 forward 7 unknown #
coedge $-1 $252 $573 $579 $584 forward $405 $-1 #
loop $-1 $-1 $573 $393 #
vertex $-1 $402 $585 #
vertex $-1 $253 $586 #
straight-curve $-1 23.926289069798074 -52.05257980720539 9.3835662642180679 0 1 0 I I #
coedge $-1 $409 $409 $-1 $587 reversed $256 $-1 #
edge $-1 $588 0 $588 6.2831853071796004 $257 $589 forward 7 unknown #
vertex $-1 $260 $590 #
ellipse-curve $-1 16.211033679761066 -23.123195213786548 4.9603382667025224 0 -0.77714596973225614 0.62932038083071107 1 0 0 1 I I #
face $-1 $-1 $425 $56 $-1 $591 forward single #
loop $-1 $-1 $592 $261 #
plane-surface $-1 0 -26.705054525051544 0 0 1 0 0 0 1 forward_v I I I I #
coedge $-1 $593 $594 $595 $596 reversed $262 $-1 #
coedge $-1 $597 $264 $266 $423 forward $164 $-1 #
coedge $-1 $264 $597 $593 $598 forward $164 $-1 #
coedge $-1 $595 $267 $264 $420 forward $425 $-1 #
edge $-1 $427 -26.914473308023137 $599 -11.483962527949121 $419 $600 forward 7 unknown #
coedge $-1 $601 $602 $265 $422 forward $414 $-1 #
edge $-1 $603 -31.070128657303474 $426 -22.223672662272378 $421 $604 forward 7 unknown #
edge $-1 $427 -11.383261754646814 $603 -1.1287752508472441e-014 $266 $605 forward 7 unknown #
coedge $-1 $267 $595 $601 $606 forward $425 $-1 #
loop $-1 $-1 $595 $413 #
vertex $-1 $422 $607 #
vertex $-1 $268 $608 #
straight-curve $-1 46.113691226009266 -52.05257980720539 9.3835662642180679 0 1 0 I I #
coedge $-1 $429 $429 $-1 $609 reversed $271 $-1 #
edge $-1 $610 0 $610 6.2831853071796004 $272 $611 forward 7 unknown #
vertex $-1 $275 $612 #
ellipse-curve $-1 38.398435835972258 -23.123195213786548 4.9603382667025224 0 -0.77714596973225614 0.62932038083071107 1 0 0 1 I I #
face $-1 $-1 $613 $58 $-1 $614 reversed single #
loop $-1 $-1 $282 $276 #
plane-surface $-1 0 0 9.3835662642180697 0 0 1 1 0 0 forward_v I I I I #
coedge $-1 $615 $616 $617 $618 reversed $277 $-1 #
coedge $-1 $619 $279 $281 $443 forward $173 $-1 #
coedge $-1 $279 $619 $615 $620 forward $173 $-1 #
coedge $-1 $617 $282 $279 $440 forward $434 $-1 #
edge $-1 $446 -14.141258277196179 $621 0.64209882794958162 $439 $622 forward 7 unknown #
coedge $-1 $623 $624 $280 $442 forward $613 $-1 #
edge $-1 $625 -48.707858463917177 $445 -44.501746865608695 $441 $626 forward 7 unknown #
edge $-1 $446 48.143486789909531 $625 53.410109050103074 $281 $627 forward 7 unknown #
coedge $-1 $282 $617 $623 $628 forward $434 $-1 #
vertex $-1 $283 $629 #
vertex $-1 $283 $630 #
straight-curve $-1 -20.890838001819478 37.051206372121669 9.3835662642180679 0 -1 0 I I #
coedge $-1 $448 $448 $-1 $631 reversed $286 $-1 #
edge $-1 $632 0 $632 6.2831853071796004 $287 $633 forward 7 unknown #
vertex $-1 $290 $634 #
ellipse-curve $-1 -16.667021686063549 25.120288355064542 7.2805104650638288 0 0.79863551827123203 0.60181501223851219 1 0 0 1 I I #
coedge $-1 $452 $452 $-1 $635 reversed $293 $-1 #
edge $-1 $636 0 $636 6.2831853071796004 $294 $637 forward 7 unknown #
vertex $-1 $297 $638 #
ellipse-curve $-1 -10.331297212429654 25.120288355064542 7.2805104650638288 0 0.79863551827123203 0.60181501223851219 1 0 0 1 I I #
face $-1 $-1 $639 $61 $-1 $640 reversed single #
loop $-1 $-1 $304 $298 #
plane-surface $-1 0 0 9.3835662642180697 0 0 1 1 0 0 forward_v I I I I #
coedge $-1 $641 $642 $643 $644 reversed $299 $-1 #
coedge $-1 $645 $301 $303 $466 forward $187 $-1 #
coedge $-1 $301 $645 $641 $646 forward $187 $-1 #
coedge $-1 $643 $304 $301 $463 forward $457 $-1 #
edge $-1 $469 8.1989065630631544 $647 22.982263668208912 $462 $648 forward 7 unknown #
coedge $-1 $649 $650 $302 $465 forward $639 $-1 #
edge $-1 $651 -48.707858463917177 $468 -44.501746865608695 $464 $652 forward 7 unknown #
edge $-1 $469 48.143486789909531 $651 53.410109050103074 $303 $653 forward 7 unknown #
coedge $-1 $304 $643 $649 $654 forward $457 $-1 #
vertex $-1 $305 $655 #
vertex $-1 $305 $656 #
straight-curve $-1 23.789491678699189 37.051206372121669 9.3835662642180679 0 -1 0 I I #
coedge $-1 $471 $471 $-1 $657 reversed $308 $-1 #
edge $-1 $658 0 $658 6.2831853071796004 $309 $659 forward 7 unknown #
vertex $-1 $312 $660 #
ellipse-curve $-1 28.013307994455126 25.120288355064542 7.2805104650638288 0 0.79863551827123203 0.60181501223851219 1 0 0 1 I I #
coedge $-1 $475 $475 $-1 $661 reversed $315 $-1 #
edge $-1 $662 0 $662 6.2831853071796004 $316 $663 forward 7 unknown #
vertex $-1 $319 $664 #
ellipse-curve $-1 34.349032468089014 25.120288355064542 7.2805104650638288 0 0.79863551827123203 0.60181501223851219 1 0 0 1 I I #
face $-1 $-1 $335 $48 $-1 $665 reversed single #
loop $-1 $-1 $494 $320 #
plane-surface $-1 0 26.705054525051544 0 0 -1 0 0 0 -1 forward_v I I I I #
coedge $-1 $492 $666 $323 $484 reversed $321 $-1 #
coedge $-1 $498 $323 $324 $486 reversed $201 $-1 #
edge $-1 $499 -9.3835662642180697 $667 9.3835662642180697 $482 $668 forward 7 unknown #
coedge $-1 $325 $324 $666 $669 forward $129 $-1 #
edge $-1 $490 -49.797662282174137 $667 49.797662282174137 $483 $670 forward 7 unknown #
coedge $-1 $495 $494 $325 $488 reversed $480 $-1 #
edge $-1 $671 -49.797662282174137 $489 49.797662282174137 $487 $672 forward 7 unknown #
vertex $-1 $327 $673 #
vertex $-1 $501 $674 #
straight-curve $-1 49.797662282174137 0 -9.3835662642180697 0 -1 0 I I #
coedge $-1 $675 $482 $328 $493 reversed $321 $-1 #
edge $-1 $496 -26.705054525051544 $499 26.705054525051544 $492 $676 forward 7 unknown #
coedge $-1 $487 $329 $334 $502 forward $480 $-1 #
coedge $-1 $329 $487 $675 $677 reversed $480 $-1 #
vertex $-1 $330 $678 #
straight-curve $-1 0 26.705054525051544 9.3835662642180697 -1 0 0 I I #
coedge $-1 $331 $483 $333 $501 reversed $201 $-1 #
vertex $-1 $493 $679 #
straight-curve $-1 0 -26.705054525051544 9.3835662642180697 1 0 0 I I #
edge $-1 $336 -9.3835662642180697 $490 9.3835662642180697 $333 $680 forward 7 unknown #
edge $-1 $337 -9.3835662642180697 $489 9.3835662642180697 $334 $681 forward 7 unknown #
point $-1 49.797662282174137 -26.705054525051544 9.3835662642180697 #
point $-1 49.797662282174137 26.705054525051544 9.3835662642180697 #
face $-1 $-1 $518 $49 $-1 $682 reversed single #
loop $-1 $-1 $683 $339 #
plane-surface $-1 -60.032327485485077 0 -3.3435756487111892 1 0 0 0 0 -1 forward_v I I I I #
coedge $-1 $684 $510 $345 $515 reversed $340 $-1 #
coedge $-1 $343 $342 $683 $685 reversed $133 $-1 #
coedge $-1 $508 $686 $342 $511 forward $340 $-1 #
edge $-1 $687 -5.1173326016554697 $513 5.1173326016554697 $342 $688 forward 7 unknown #
edge $-1 $350 -5.1173326016554697 $689 5.1173326016554697 $343 $690 forward 7 unknown #
vertex $-1 $344 $691 #
straight-curve $-1 -49.797662282174137 26.705054525051544 0 0 0 -1 I I #
edge $-1 $519 -26.705054525051544 $513 26.705054525051544 $508 $692 forward 7 unknown #
coedge $-1 $693 $346 $349 $522 reversed $518 $-1 #
coedge $-1 $346 $693 $684 $694 reversed $518 $-1 #
loop $-1 $-1 $346 $505 #
vertex $-1 $347 $695 #
straight-curve $-1 -49.797662282174137 -26.705054525051544 0 0 0 1 I I #
coedge $-1 $349 $348 $696 $697 forward $209 $-1 #
edge $-1 $698 -5.1173326016554697 $351 5.1173326016554697 $516 $699 forward 7 unknown #
point $-1 -49.797662282174137 26.705054525051544 -1.2634520404040264 #
point $-1 -49.797662282174137 -26.705054525051544 -1.2634520404040264 #
plane-surface $-1 0 0 9.3835662642180697 0 0 1 1 0 0 forward_v I I I I #
coedge $-1 $536 $535 $528 $700 forward $354 $-1 #
coedge $-1 $528 $356 $358 $532 reversed $217 $-1 #
coedge $-1 $356 $527 $526 $700 reversed $217 $-1 #
coedge $-1 $364 $359 $356 $530 forward $365 $-1 #
edge $-1 $533 -32.511243904683838 $701 -25.347525282153846 $529 $702 forward 7 unknown #
coedge $-1 $358 $357 $536 $703 reversed $137 $-1 #
edge $-1 $704 1.1287752508472441e-014 $533 11.383261754646814 $527 $705 forward 7 unknown #
vertex $-1 $360 $706 #
straight-curve $-1 -14.081885316330657 -19.541335902521553 9.3835662642180697 -1 0 0 I I #
coedge $-1 $526 $361 $364 $540 reversed $354 $-1 #
coedge $-1 $361 $526 $531 $703 forward $354 $-1 #
vertex $-1 $362 $707 #
straight-curve $-1 -20.448515242624307 -26.705054525051544 31.607238926490449 0 0 1 I I #
straight-curve $-1 -20.448515242624307 -26.705054525051551 0.53711026918696803 0 -0.62932038083071107 -0.77714596973225614 I I #
edge $-1 $701 -35.879026022698326 $366 -20.448515242624307 $535 $708 forward 7 unknown #
point $-1 -20.448515242624307 -26.705054525051544 9.3835662642180697 #
point $-1 -20.448515242624307 -19.541335902521549 9.3835662642180697 #
edge $-1 $709 1 $709 0 $369 $-1 forward 7 unknown #
vertex $-1 $370 $710 #
ellipse-curve $-1 -28.163770632661315 -21.892668636815241 3.9638775190405484 0 -0.77714596973225614 0.62932038083071107 1 0 0 1 I I #
point $-1 -27.163770632661315 -23.123195213786545 4.960338266702518 #
plane-surface $-1 0 0 9.3835662642180697 0 0 1 1 0 0 forward_v I I I I #
coedge $-1 $558 $557 $550 $711 forward $374 $-1 #
coedge $-1 $550 $376 $378 $554 reversed $232 $-1 #
coedge $-1 $376 $549 $548 $711 reversed $232 $-1 #
coedge $-1 $384 $379 $376 $552 forward $385 $-1 #
edge $-1 $555 -32.511243904683838 $712 -25.347525282153846 $551 $713 forward 7 unknown #
coedge $-1 $378 $377 $558 $714 reversed $146 $-1 #
edge $-1 $715 1.1287752508472441e-014 $555 11.383261754646814 $549 $716 forward 7 unknown #
vertex $-1 $380 $717 #
straight-curve $-1 -2.9881842382250632 -19.541335902521553 9.3835662642180697 -1 0 0 I I #
coedge $-1 $548 $381 $384 $562 reversed $374 $-1 #
coedge $-1 $381 $548 $553 $714 forward $374 $-1 #
vertex $-1 $382 $718 #
straight-curve $-1 1.7388869135868825 -26.705054525051544 31.607238926490449 0 0 1 I I #
straight-curve $-1 1.7388869135868825 -26.705054525051551 0.53711026918696803 0 -0.62932038083071107 -0.77714596973225614 I I #
edge $-1 $712 -13.691623866487134 $386 1.7388869135868825 $557 $719 forward 7 unknown #
point $-1 1.7388869135868825 -26.705054525051544 9.3835662642180697 #
point $-1 1.7388869135868825 -19.541335902521549 9.3835662642180697 #
edge $-1 $720 1 $720 0 $389 $-1 forward 7 unknown #
vertex $-1 $390 $721 #
ellipse-curve $-1 -5.9763684764501264 -21.892668636815241 3.9638775190405484 0 -0.77714596973225614 0.62932038083071107 1 0 0 1 I I #
point $-1 -4.9763684764501264 -23.123195213786545 4.960338266702518 #
plane-surface $-1 0 0 9.3835662642180697 0 0 1 1 0 0 forward_v I I I I #
coedge $-1 $580 $579 $572 $722 forward $394 $-1 #
coedge $-1 $572 $396 $398 $576 reversed $247 $-1 #
coedge $-1 $396 $571 $570 $722 reversed $247 $-1 #
coedge $-1 $404 $399 $396 $574 forward $405 $-1 #
edge $-1 $577 -32.511243904683838 $723 -25.347525282153846 $573 $724 forward 7 unknown #
coedge $-1 $398 $397 $580 $725 reversed $155 $-1 #
edge $-1 $726 1.1287752508472441e-014 $577 11.383261754646814 $571 $727 forward 7 unknown #
vertex $-1 $400 $728 #
straight-curve $-1 8.1055168398805328 -19.541335902521553 9.3835662642180697 -1 0 0 I I #
coedge $-1 $570 $401 $404 $584 reversed $394 $-1 #
coedge $-1 $401 $570 $575 $725 forward $394 $-1 #
vertex $-1 $402 $729 #
straight-curve $-1 23.926289069798074 -26.705054525051544 31.607238926490449 0 0 1 I I #
straight-curve $-1 23.926289069798074 -26.705054525051551 0.53711026918696803 0 -0.62932038083071107 -0.77714596973225614 I I #
edge $-1 $723 8.4957782897240577 $406 23.926289069798074 $579 $730 forward 7 unknown #
point $-1 23.926289069798074 -26.705054525051544 9.3835662642180697 #
point $-1 23.926289069798074 -19.541335902521549 9.3835662642180697 #
edge $-1 $731 1 $731 0 $409 $-1 forward 7 unknown #
vertex $-1 $410 $732 #
ellipse-curve $-1 16.211033679761066 -21.892668636815241 3.9638775190405484 0 -0.77714596973225614 0.62932038083071107 1 0 0 1 I I #
point $-1 17.211033679761066 -23.123195213786545 4.960338266702518 #
plane-surface $-1 0 0 9.3835662642180697 0 0 1 1 0 0 forward_v I I I I #
coedge $-1 $602 $601 $594 $733 forward $414 $-1 #
coedge $-1 $594 $416 $418 $598 reversed $262 $-1 #
coedge $-1 $416 $593 $592 $733 reversed $262 $-1 #
coedge $-1 $424 $419 $416 $596 forward $425 $-1 #
edge $-1 $599 -32.511243904683838 $734 -25.347525282153846 $595 $735 forward 7 unknown #
coedge $-1 $418 $417 $602 $736 reversed $164 $-1 #
edge $-1 $737 1.1287752508472441e-014 $599 11.383261754646814 $593 $738 forward 7 unknown #
vertex $-1 $420 $739 #
straight-curve $-1 19.199217917986129 -19.541335902521553 9.3835662642180697 -1 0 0 I I #
coedge $-1 $592 $421 $424 $606 reversed $414 $-1 #
coedge $-1 $421 $592 $597 $736 forward $414 $-1 #
vertex $-1 $422 $740 #
straight-curve $-1 46.113691226009266 -26.705054525051544 31.607238926490449 0 0 1 I I #
straight-curve $-1 46.113691226009266 -26.705054525051551 0.53711026918696803 0 -0.62932038083071107 -0.77714596973225614 I I #
edge $-1 $734 30.68318044593525 $426 46.113691226009266 $601 $741 forward 7 unknown #
point $-1 46.113691226009266 -26.705054525051544 9.3835662642180697 #
point $-1 46.113691226009266 -19.541335902521549 9.3835662642180697 #
edge $-1 $742 1 $742 0 $429 $-1 forward 7 unknown #
vertex $-1 $430 $743 #
ellipse-curve $-1 38.398435835972258 -21.892668636815241 3.9638775190405484 0 -0.77714596973225614 0.62932038083071107 1 0 0 1 I I #
point $-1 39.398435835972258 -23.123195213786545 4.960338266702518 #
loop $-1 $-1 $441 $433 #
plane-surface $-1 0 26.705054525051544 0 0 -1 0 0 0 -1 forward_v I I I I #
coedge $-1 $616 $436 $438 $620 reversed $277 $-1 #
coedge $-1 $436 $615 $744 $745 reversed $277 $-1 #
coedge $-1 $444 $439 $436 $618 forward $434 $-1 #
edge $-1 $621 -13.515684187044126 $746 -10.346151847070125 $617 $747 forward 7 unknown #
coedge $-1 $438 $437 $624 $748 reversed $173 $-1 #
edge $-1 $749 -53.410109050103074 $621 -48.143486789909531 $615 $750 forward 7 unknown #
vertex $-1 $440 $751 #
straight-curve $-1 -6.7495797246232989 23.535522185077539 9.3835662642180679 1 0 0 I I #
coedge $-1 $744 $441 $444 $628 reversed $613 $-1 #
coedge $-1 $441 $744 $619 $748 forward $613 $-1 #
vertex $-1 $442 $752 #
straight-curve $-1 -20.890838001819478 26.705054525051544 53.885313129826763 0 0 1 I I #
straight-curve $-1 -20.890838001819478 -5.4379509065965124 47.832664788061678 0 0.60181501223851219 -0.79863551827123203 I I #
edge $-1 $746 6.1074808966737173 $445 20.890838001819478 $623 $753 forward 7 unknown #
point $-1 -20.890838001819478 26.705054525051544 9.3835662642180697 #
point $-1 -20.890838001819478 23.535522185077543 9.3835662642180679 #
edge $-1 $754 1 $754 0 $448 $-1 forward 7 unknown #
vertex $-1 $449 $755 #
ellipse-curve $-1 -16.667021686063549 23.413581804833367 5.9944148683662446 0 0.79863551827123203 0.60181501223851219 1 0 0 1 I I #
point $-1 -15.667021686063549 25.120288355064535 7.2805104650638235 #
edge $-1 $756 1 $756 0 $452 $-1 forward 7 unknown #
vertex $-1 $453 $757 #
ellipse-curve $-1 -10.331297212429654 23.413581804833367 5.9944148683662446 0 0.79863551827123203 0.60181501223851219 1 0 0 1 I I #
point $-1 -9.3312972124296536 25.120288355064535 7.2805104650638235 #
loop $-1 $-1 $464 $456 #
plane-surface $-1 0 26.705054525051544 0 0 -1 0 0 0 -1 forward_v I I I I #
coedge $-1 $642 $459 $461 $646 reversed $299 $-1 #
coedge $-1 $459 $641 $758 $759 reversed $299 $-1 #
coedge $-1 $467 $462 $459 $644 forward $457 $-1 #
edge $-1 $647 -13.515684187044126 $760 -10.346151847070125 $643 $761 forward 7 unknown #
coedge $-1 $461 $460 $650 $762 reversed $187 $-1 #
edge $-1 $763 -53.410109050103074 $647 -48.143486789909531 $641 $764 forward 7 unknown #
vertex $-1 $463 $765 #
straight-curve $-1 15.590585115636035 23.535522185077539 9.3835662642180679 1 0 0 I I #
coedge $-1 $758 $464 $467 $654 reversed $639 $-1 #
coedge $-1 $464 $758 $645 $762 forward $639 $-1 #
vertex $-1 $465 $766 #
straight-curve $-1 23.789491678699189 26.705054525051544 53.885313129826763 0 0 1 I I #
straight-curve $-1 23.789491678699189 -5.4379509065965124 47.832664788061678 0 0.60181501223851219 -0.79863551827123203 I I #
edge $-1 $760 -38.572848783844947 $468 -23.789491678699189 $649 $767 forward 7 unknown #
point $-1 23.789491678699189 26.705054525051544 9.3835662642180697 #
point $-1 23.789491678699189 23.535522185077543 9.3835662642180679 #
edge $-1 $768 1 $768 0 $471 $-1 forward 7 unknown #
vertex $-1 $472 $769 #
ellipse-curve $-1 28.013307994455126 23.413581804833367 5.9944148683662446 0 0.79863551827123203 0.60181501223851219 1 0 0 1 I I #
point $-1 29.013307994455126 25.120288355064535 7.2805104650638235 #
edge $-1 $770 1 $770 0 $475 $-1 forward 7 unknown #
vertex $-1 $476 $771 #
ellipse-curve $-1 34.349032468089014 23.413581804833367 5.9944148683662446 0 0.79863551827123203 0.60181501223851219 1 0 0 1 I I #
point $-1 35.349032468089014 25.120288355064535 7.2805104650638235 #
plane-surface $-1 49.797662282174137 0 0 -1 0 0 0 0 1 forward_v I I I I #
coedge $-1 $482 $675 $485 $669 reversed $321 $-1 #
vertex $-1 $669 $772 #
straight-curve $-1 -49.797662282174137 -26.705054525051544 0 0 0 -1 I I #
edge $-1 $667 -26.705054525051544 $671 26.705054525051544 $666 $773 forward 7 unknown #
straight-curve $-1 0 -26.705054525051544 -9.3835662642180697 -1 0 0 I I #
vertex $-1 $488 $774 #
straight-curve $-1 0 26.705054525051544 -9.3835662642180697 1 0 0 I I #
point $-1 49.797662282174137 26.705054525051544 -9.3835662642180697 #
point $-1 49.797662282174137 -26.705054525051544 -9.3835662642180697 #
coedge $-1 $666 $492 $495 $677 forward $321 $-1 #
straight-curve $-1 -49.797662282174137 0 9.3835662642180697 0 -1 0 I I #
edge $-1 $496 -9.3835662642180697 $671 9.3835662642180697 $495 $775 forward 7 unknown #
point $-1 -49.797662282174137 26.705054525051544 9.3835662642180697 #
point $-1 -49.797662282174137 -26.705054525051544 9.3835662642180697 #
straight-curve $-1 49.797662282174137 -26.705054525051544 0 0 0 -1 I I #
straight-curve $-1 49.797662282174137 26.705054525051544 0 0 0 -1 I I #
plane-surface $-1 0 -26.705054525051544 0 0 1 0 0 0 1 forward_v I I I I #
coedge $-1 $776 $696 $509 $685 forward $506 $-1 #
coedge $-1 $686 $508 $517 $694 forward $340 $-1 #
edge $-1 $689 -2.0801236083071628 $687 2.0801236083071633 $509 $777 forward 7 unknown #
coedge $-1 $510 $684 $776 $778 forward $340 $-1 #
vertex $-1 $511 $779 #
straight-curve $-1 -54.914994883829607 26.705054525051544 -5.4236992570183524 1 0 0 I I #
vertex $-1 $512 $780 #
straight-curve $-1 -54.914994883829607 26.705054525051544 -1.2634520404040264 -1 0 0 I I #
point $-1 -49.797662282174137 26.705054525051544 -5.4236992570183524 #
straight-curve $-1 -49.797662282174137 0 -5.4236992570183524 0 1 0 I I #
coedge $-1 $517 $516 $781 $782 forward $518 $-1 #
edge $-1 $519 -5.1173326016554697 $783 5.1173326016554697 $517 $784 forward 7 unknown #
point $-1 -49.797662282174137 -26.705054525051544 -5.4236992570183524 #
coedge $-1 $683 $781 $521 $697 reversed $506 $-1 #
edge $-1 $689 -26.705054525051544 $698 26.705054525051544 $696 $785 forward 7 unknown #
vertex $-1 $697 $786 #
straight-curve $-1 -54.914994883829607 -26.705054525051544 -1.2634520404040264 1 0 0 I I #
edge $-1 $701 22.223672662272378 $704 31.070128657303474 $526 $787 forward 7 unknown #
vertex $-1 $540 $788 #
straight-curve $-1 -35.879026022698326 -52.05257980720539 9.3835662642180679 0 -1 0 I I #
edge $-1 $704 -21.797140706367671 $537 -6.3666299262936494 $536 $789 forward 7 unknown #
vertex $-1 $703 $790 #
straight-curve $-1 -35.879026022698326 -26.705054525051551 0.53711026918696803 0 0.62932038083071107 0.77714596973225614 I I #
point $-1 -35.879026022698326 -19.541335902521549 9.3835662642180697 #
point $-1 -20.448515242624307 -26.705054525051544 0.5371102691869768 #
straight-curve $-1 0 -26.705054525051544 9.3835662642180697 1 0 0 I I #
vertex $-1 $543 $791 #
point $-1 -27.163770632661315 -21.892668636815241 3.9638775190405484 #
edge $-1 $712 22.223672662272378 $715 31.070128657303474 $548 $792 forward 7 unknown #
vertex $-1 $562 $793 #
straight-curve $-1 -13.691623866487134 -52.05257980720539 9.3835662642180679 0 -1 0 I I #
edge $-1 $715 -10.703439628262071 $559 4.7270711518119457 $558 $794 forward 7 unknown #
vertex $-1 $714 $795 #
straight-curve $-1 -13.691623866487134 -26.705054525051551 0.53711026918696803 0 0.62932038083071107 0.77714596973225614 I I #
point $-1 -13.691623866487134 -19.541335902521549 9.3835662642180697 #
point $-1 1.7388869135868825 -26.705054525051544 0.5371102691869768 #
straight-curve $-1 0 -26.705054525051544 9.3835662642180697 1 0 0 I I #
vertex $-1 $565 $796 #
point $-1 -4.9763684764501264 -21.892668636815241 3.9638775190405484 #
edge $-1 $723 22.223672662272378 $726 31.070128657303474 $570 $797 forward 7 unknown #
vertex $-1 $584 $798 #
straight-curve $-1 8.4957782897240577 -52.05257980720539 9.3835662642180679 0 -1 0 I I #
edge $-1 $726 0.39026144984352484 $581 15.820772229917541 $580 $799 forward 7 unknown #
vertex $-1 $725 $800 #
straight-curve $-1 8.4957782897240577 -26.705054525051551 0.53711026918696803 0 0.62932038083071107 0.77714596973225614 I I #
point $-1 8.4957782897240577 -19.541335902521549 9.3835662642180697 #
point $-1 23.926289069798074 -26.705054525051544 0.5371102691869768 #
straight-curve $-1 0 -26.705054525051544 9.3835662642180697 1 0 0 I I #
vertex $-1 $587 $801 #
point $-1 17.211033679761066 -21.892668636815241 3.9638775190405484 #
edge $-1 $734 22.223672662272378 $737 31.070128657303474 $592 $802 forward 7 unknown #
vertex $-1 $606 $803 #
straight-curve $-1 30.68318044593525 -52.05257980720539 9.3835662642180679 0 -1 0 I I #
edge $-1 $737 11.483962527949121 $603 26.914473308023137 $602 $804 forward 7 unknown #
vertex $-1 $736 $805 #
straight-curve $-1 30.68318044593525 -26.705054525051551 0.53711026918696803 0 0.62932038083071107 0.77714596973225614 I I #
point $-1 30.68318044593525 -19.541335902521549 9.3835662642180697 #
point $-1 46.113691226009266 -26.705054525051544 0.5371102691869768 #
straight-curve $-1 0 -26.705054525051544 9.3835662642180697 1 0 0 I I #
vertex $-1 $609 $806 #
point $-1 39.398435835972258 -21.892668636815241 3.9638775190405484 #
coedge $-1 $624 $623 $616 $745 forward $613 $-1 #
edge $-1 $746 44.501746865608695 $749 48.707858463917177 $744 $807 forward 7 unknown #
vertex $-1 $628 $808 #
straight-curve $-1 -6.1074808966737173 37.051206372121669 9.3835662642180679 0 1 0 I I #
edge $-1 $749 -0.64209882794958162 $625 14.141258277196179 $624 $809 forward 7 unknown #
vertex $-1 $748 $810 #
straight-curve $-1 -6.1074808966737173 -5.4379509065965124 47.832664788061678 0 -0.60181501223851219 0.79863551827123203 I I #
point $-1 -6.1074808966737173 23.535522185077543 9.3835662642180679 #
point $-1 -20.890838001819478 26.705054525051544 5.1774546659095861 #
straight-curve $-1 0 26.705054525051544 9.3835662642180697 -1 0 0 I I #
vertex $-1 $631 $811 #
point $-1 -15.667021686063549 23.413581804833367 5.9944148683662446 #
vertex $-1 $635 $812 #
point $-1 -9.3312972124296536 23.413581804833367 5.9944148683662446 #
coedge $-1 $650 $649 $642 $759 forward $639 $-1 #
edge $-1 $760 44.501746865608695 $763 48.707858463917177 $758 $813 forward 7 unknown #
vertex $-1 $654 $814 #
straight-curve $-1 38.572848783844947 37.051206372121669 9.3835662642180679 0 1 0 I I #
edge $-1 $763 -22.982263668208912 $651 -8.1989065630631544 $650 $815 forward 7 unknown #
vertex $-1 $762 $816 #
straight-curve $-1 38.572848783844947 -5.4379509065965124 47.832664788061678 0 -0.60181501223851219 0.79863551827123203 I I #
point $-1 38.572848783844947 23.535522185077543 9.3835662642180679 #
point $-1 23.789491678699189 26.705054525051544 5.1774546659095861 #
straight-curve $-1 0 26.705054525051544 9.3835662642180697 -1 0 0 I I #
vertex $-1 $657 $817 #
point $-1 29.013307994455126 23.413581804833367 5.9944148683662446 #
vertex $-1 $661 $818 #
point $-1 35.349032468089014 23.413581804833367 5.9944148683662446 #
point $-1 -49.797662282174137 -26.705054525051544 -9.3835662642180697 #
straight-curve $-1 -49.797662282174137 0 -9.3835662642180697 0 1 0 I I #
point $-1 -49.797662282174137 26.705054525051544 -9.3835662642180697 #
straight-curve $-1 -49.797662282174137 26.705054525051544 0 0 0 -1 I I #
coedge $-1 $781 $683 $686 $778 reversed $506 $-1 #
straight-curve $-1 -60.032327485485077 26.705054525051544 -3.3435756487111892 0 0 -1 I I #
edge $-1 $783 -26.705054525051544 $687 26.705054525051544 $776 $819 forward 7 unknown #
point $-1 -60.032327485485077 26.705054525051544 -5.4236992570183524 #
point $-1 -60.032327485485077 26.705054525051544 -1.2634520404040264 #
coedge $-1 $696 $776 $693 $782 reversed $506 $-1 #
edge $-1 $698 -2.0801236083071628 $783 2.0801236083071633 $781 $820 forward 7 unknown #
vertex $-1 $778 $821 #
straight-curve $-1 -54.914994883829607 -26.705054525051544 -5.4236992570183524 -1 0 0 I I #
straight-curve $-1 -60.032327485485077 0 -1.2634520404040264 0 -1 0 I I #
point $-1 -60.032327485485077 -26.705054525051544 -1.2634520404040264 #
straight-curve $-1 -35.879026022698326 -26.705054525051544 31.607238926490449 0 0 -1 I I #
point $-1 -35.879026022698326 -26.705054525051544 9.3835662642180697 #
straight-curve $-1 -14.081885316330657 -26.705054525051544 0.53711026918697513 1 0 0 I I #
point $-1 -35.879026022698326 -26.705054525051544 0.5371102691869768 #
point $-1 -28.163770632661315 -21.115522667082988 3.3345571382098376 #
straight-curve $-1 -13.691623866487134 -26.705054525051544 31.607238926490449 0 0 -1 I I #
point $-1 -13.691623866487134 -26.705054525051544 9.3835662642180697 #
straight-curve $-1 -2.9881842382250632 -26.705054525051544 0.53711026918697513 1 0 0 I I #
point $-1 -13.691623866487134 -26.705054525051544 0.5371102691869768 #
point $-1 -5.9763684764501264 -21.115522667082988 3.3345571382098376 #
straight-curve $-1 8.4957782897240577 -26.705054525051544 31.607238926490449 0 0 -1 I I #
point $-1 8.4957782897240577 -26.705054525051544 9.3835662642180697 #
straight-curve $-1 8.1055168398805328 -26.705054525051544 0.53711026918697513 1 0 0 I I #
point $-1 8.4957782897240577 -26.705054525051544 0.5371102691869768 #
point $-1 16.211033679761066 -21.115522667082988 3.3345571382098376 #
straight-curve $-1 30.68318044593525 -26.705054525051544 31.607238926490449 0 0 -1 I I #
point $-1 30.68318044593525 -26.705054525051544 9.3835662642180697 #
straight-curve $-1 19.199217917986129 -26.705054525051544 0.53711026918697513 1 0 0 I I #
point $-1 30.68318044593525 -26.705054525051544 0.5371102691869768 #
point $-1 38.398435835972258 -21.115522667082988 3.3345571382098376 #
straight-curve $-1 -6.1074808966737173 26.705054525051544 53.885313129826763 0 0 -1 I I #
point $-1 -6.1074808966737173 26.705054525051544 9.3835662642180697 #
straight-curve $-1 -6.7495797246232989 26.705054525051544 5.1774546659095826 -1 0 0 I I #
point $-1 -6.1074808966737173 26.705054525051544 5.1774546659095861 #
point $-1 -16.667021686063549 22.614946286562134 5.392599856127732 #
point $-1 -10.331297212429654 22.614946286562134 5.392599856127732 #
straight-curve $-1 38.572848783844947 26.705054525051544 53.885313129826763 0 0 -1 I I #
point $-1 38.572848783844947 26.705054525051544 9.3835662642180697 #
straight-curve $-1 15.590585115636035 26.705054525051544 5.1774546659095826 -1 0 0 I I #
point $-1 38.572848783844947 26.705054525051544 5.1774546659095861 #
point $-1 28.013307994455126 22.614946286562134 5.392599856127732 #
point $-1 34.349032468089014 22.614946286562134 5.392599856127732 #
straight-curve $-1 -60.032327485485077 0 -5.4236992570183524 0 1 0 I I #
straight-curve $-1 -60.032327485485077 -26.705054525051544 -3.3435756487111892 0 0 -1 I I #
point $-1 -60.032327485485077 -26.705054525051544 -5.4236992570183524 #
End-of-ACIS-data 