500 0 14 0           
7 Unknown 11 ACIS 5.0 NT 24 Thu Mar 25 17:15:05 1999 
-1 9.9999999999999995e-007 1e-010 
body $-1 $14 $-1 $15 #
body $-1 $16 $-1 $17 #
body $-1 $18 $-1 $19 #
body $-1 $20 $-1 $21 #
body $-1 $22 $-1 $23 #
body $-1 $24 $-1 $25 #
body $-1 $26 $-1 $27 #
body $-1 $28 $-1 $29 #
body $-1 $30 $-1 $31 #
body $-1 $32 $-1 $33 #
body $-1 $34 $-1 $35 #
body $-1 $36 $-1 $37 #
body $-1 $38 $-1 $39 #
body $-1 $40 $-1 $41 #
lump $-1 $-1 $42 $0 #
transform $-1 1 0 0 0 1 0 0 0 1 77.397381511886948 41.583229538936003 12.251741526987395 1 rotate no_reflect no_shear #
lump $-1 $-1 $43 $1 #
transform $-1 1 0 0 0 1 0 0 0 1 77.397381511886948 41.583229538936003 12.251741526987395 1 rotate no_reflect no_shear #
lump $-1 $-1 $44 $2 #
transform $-1 1 0 0 0 1 0 0 0 1 77.397381511886948 41.583229538936003 12.251741526987395 1 rotate no_reflect no_shear #
lump $-1 $-1 $45 $3 #
transform $-1 1 0 0 0 1 0 0 0 1 77.397381511886948 41.583229538936003 12.251741526987395 1 rotate no_reflect no_shear #
lump $-1 $-1 $46 $4 #
transform $-1 1 0 0 0 1 0 0 0 1 77.397381511886948 41.583229538936003 12.251741526987395 1 rotate no_reflect no_shear #
lump $-1 $-1 $47 $5 #
transform $-1 1 0 0 0 1 0 0 0 1 77.397381511886948 41.583229538936003 12.251741526987395 1 rotate no_reflect no_shear #
lump $-1 $-1 $48 $6 #
transform $-1 1 0 0 0 1 0 0 0 1 77.397381511886948 41.583229538936003 12.251741526987395 1 rotate no_reflect no_shear #
lump $-1 $-1 $49 $7 #
transform $-1 1 0 0 0 1 0 0 0 1 77.397381511886948 41.583229538936003 12.251741526987395 1 rotate no_reflect no_shear #
lump $-1 $-1 $50 $8 #
transform $-1 1 0 0 0 1 0 0 0 1 77.397381511886948 41.583229538936003 12.251741526987395 1 rotate no_reflect no_shear #
lump $-1 $-1 $51 $9 #
transform $-1 1 0 0 0 1 0 0 0 1 77.397381511886948 41.583229538936003 12.251741526987395 1 rotate no_reflect no_shear #
lump $-1 $-1 $52 $10 #
transform $-1 1 0 0 0 1 0 0 0 1 77.397381511886948 41.583229538936003 12.251741526987395 1 rotate no_reflect no_shear #
lump $-1 $-1 $53 $11 #
transform $-1 1 0 0 0 1 0 0 0 1 77.397381511886948 41.583229538936003 12.251741526987395 1 rotate no_reflect no_shear #
lump $-1 $-1 $54 $12 #
transform $-1 1 0 0 0 1 0 0 0 1 77.397381511886948 41.583229538936003 12.251741526987395 1 rotate no_reflect no_shear #
lump $-1 $-1 $55 $13 #
transform $-1 1 0 0 0 1 0 0 0 1 77.397381511886948 41.583229538936003 12.251741526987395 1 rotate no_reflect no_shear #
shell $-1 $-1 $-1 $56 $-1 $14 #
shell $-1 $-1 $-1 $57 $-1 $16 #
shell $-1 $-1 $-1 $58 $-1 $18 #
shell $-1 $-1 $-1 $59 $-1 $20 #
shell $-1 $-1 $-1 $60 $-1 $22 #
shell $-1 $-1 $-1 $61 $-1 $24 #
shell $-1 $-1 $-1 $62 $-1 $26 #
shell $-1 $-1 $-1 $63 $-1 $28 #
shell $-1 $-1 $-1 $64 $-1 $30 #
shell $-1 $-1 $-1 $65 $-1 $32 #
shell $-1 $-1 $-1 $66 $-1 $34 #
shell $-1 $-1 $-1 $67 $-1 $36 #
shell $-1 $-1 $-1 $68 $-1 $38 #
shell $-1 $-1 $-1 $69 $-1 $40 #
face $-1 $70 $71 $42 $-1 $72 forward single #
face $-1 $73 $74 $43 $-1 $75 forward single #
face $-1 $76 $77 $44 $-1 $78 forward single #
face $-1 $79 $80 $45 $-1 $81 reversed single #
face $-1 $82 $83 $46 $-1 $84 forward single #
face $-1 $85 $86 $47 $-1 $87 reversed single #
face $-1 $88 $89 $48 $-1 $90 forward single #
face $-1 $91 $92 $49 $-1 $93 reversed single #
face $-1 $94 $95 $50 $-1 $96 forward single #
face $-1 $97 $98 $51 $-1 $99 reversed single #
face $-1 $100 $101 $52 $-1 $102 forward single #
face $-1 $103 $104 $53 $-1 $105 reversed single #
face $-1 $106 $107 $54 $-1 $108 forward single #
face $-1 $109 $110 $55 $-1 $111 forward single #
face $-1 $112 $113 $42 $-1 $114 reversed single #
loop $-1 $-1 $115 $56 #
plane-surface $-1 0 0 12.251741526987395 0 0 1 1 0 0 forward_v I I I I #
face $-1 $116 $117 $43 $-1 $118 forward single #
loop $-1 $-1 $119 $57 #
plane-surface $-1 0 -41.583229538936003 0 0 1 0 0 0 1 forward_v I I I I #
face $-1 $120 $121 $44 $-1 $122 reversed single #
loop $-1 $-1 $123 $58 #
plane-surface $-1 0 41.583229538936003 0 0 -1 0 0 0 -1 forward_v I I I I #
face $-1 $124 $125 $45 $-1 $126 reversed single #
loop $-1 $-1 $127 $59 #
plane-surface $-1 -157.12257932634338 -23.477117709660938 133.41205815244001 0 1 0 -0.51503808176128008 0 0.85716729658548041 forward_v I I I I #
face $-1 $128 $129 $46 $-1 $130 forward single #
loop $-1 $131 $132 $60 #
cone-surface $-1 -66.780471838145203 -19.977286495502398 4.7805871608742052 0.51503808176128008 0 -0.85716729658548041 1.2857509448782207 0 0.77255712264192011 1 I I 0 1 1.5 forward I I I I #
face $-1 $133 $134 $47 $-1 $135 reversed single #
loop $-1 $-1 $136 $61 #
plane-surface $-1 -157.12257932634338 -10.158926712659339 133.41205815244001 0 1 0 -0.51503808176128008 0 0.85716729658548041 forward_v I I I I #
face $-1 $137 $138 $48 $-1 $139 forward single #
loop $-1 $140 $141 $62 #
cone-surface $-1 -66.780471838145203 -6.6590954985007969 4.7805871608742052 0.51503808176128008 0 -0.85716729658548041 1.2857509448782207 0 0.77255712264192011 1 I I 0 1 1.5 forward I I I I #
face $-1 $142 $143 $49 $-1 $144 reversed single #
loop $-1 $-1 $145 $63 #
plane-surface $-1 -157.12257932634338 3.159264284342262 133.41205815244001 0 1 0 -0.51503808176128008 0 0.85716729658548041 forward_v I I I I #
face $-1 $146 $147 $50 $-1 $148 forward single #
loop $-1 $149 $150 $64 #
cone-surface $-1 -66.780471838145203 6.659095498500804 4.7805871608742052 0.51503808176128008 0 -0.85716729658548041 1.2857509448782207 0 0.77255712264192011 1 I I 0 1 1.5 forward I I I I #
face $-1 $151 $152 $51 $-1 $153 reversed single #
loop $-1 $-1 $154 $65 #
plane-surface $-1 -157.12257932634338 16.477455281343865 133.41205815244001 0 1 0 -0.51503808176128008 0 0.85716729658548041 forward_v I I I I #
face $-1 $155 $156 $52 $-1 $157 forward single #
loop $-1 $158 $159 $66 #
cone-surface $-1 -66.780471838145203 19.977286495502405 4.7805871608742052 0.51503808176128008 0 -0.85716729658548041 1.2857509448782207 0 0.77255712264192011 1 I I 0 1 1.5 forward I I I I #
face $-1 $160 $161 $53 $-1 $162 reversed single #
loop $-1 $-1 $163 $67 #
plane-surface $-1 115.41120260427843 32.954910562687722 221.2696378268262 0 -1 0 -0.81915205242281985 0 -0.57357642473473569 forward_v I I I I #
face $-1 $164 $165 $54 $-1 $166 forward single #
loop $-1 $167 $168 $68 #
cone-surface $-1 74.109890172546244 21.803754680672796 8.275629311024117 -0.81915205242281985 0 -0.57357642473473569 1.1471528494694714 0 -1.6383041048456397 1 I I 0 1 2 forward I I I I #
face $-1 $169 $170 $55 $-1 $171 forward single #
loop $-1 $172 $173 $69 #
cone-surface $-1 74.109890172546244 28.49444820988176 8.275629311024117 -0.81915205242281985 0 -0.57357642473473569 1.1471528494694714 0 -1.6383041048456397 1 I I 0 1 2 forward I I I I #
face $-1 $174 $175 $42 $-1 $176 reversed single #
loop $-1 $-1 $177 $70 #
plane-surface $-1 0 0 -12.251741526987395 0 0 1 1 0 0 forward_v I I I I #
coedge $-1 $178 $179 $180 $181 forward $71 $-1 #
face $-1 $182 $183 $43 $-1 $184 reversed single #
loop $-1 $-1 $185 $73 #
plane-surface $-1 0 0 12.251741526987395 0 0 1 1 0 0 forward_v I I I I #
coedge $-1 $186 $187 $188 $189 forward $74 $-1 #
face $-1 $190 $191 $44 $-1 $192 reversed single #
loop $-1 $-1 $193 $76 #
plane-surface $-1 77.397381511886948 0 0 -1 0 0 0 0 1 forward_v I I I I #
coedge $-1 $194 $195 $196 $197 forward $77 $-1 #
face $-1 $198 $199 $45 $-1 $200 reversed single #
loop $-1 $-1 $201 $79 #
plane-surface $-1 -77.397381511886948 -19.977286495502398 0.727049605761664 -0.51503808176128008 0 0.85716729658548041 0.85716729658548041 0 0.51503808176128008 forward_v I I I I #
coedge $-1 $202 $203 $204 $205 reversed $80 $-1 #
face $-1 $-1 $206 $46 $-1 $207 forward single #
loop $-1 $208 $209 $82 #
cone-surface $-1 -65.367437581906444 -19.977286495502398 2.428903282934769 0.51503808176128008 0 -0.85716729658548041 0.64287547243911036 0 0.38627856132096006 1 I I -0.70710678118654757 0.70710678118654757 0.75 forward I I I I #
loop $-1 $-1 $210 $60 #
coedge $-1 $132 $132 $211 $212 reversed $83 $-1 #
face $-1 $213 $214 $47 $-1 $215 reversed single #
loop $-1 $-1 $216 $85 #
plane-surface $-1 -77.397381511886948 -6.6590954985007969 0.727049605761664 -0.51503808176128008 0 0.85716729658548041 0.85716729658548041 0 0.51503808176128008 forward_v I I I I #
coedge $-1 $217 $218 $219 $220 reversed $86 $-1 #
face $-1 $-1 $221 $48 $-1 $222 forward single #
loop $-1 $223 $224 $88 #
cone-surface $-1 -65.367437581906444 -6.6590954985007969 2.428903282934769 0.51503808176128008 0 -0.85716729658548041 0.64287547243911036 0 0.38627856132096006 1 I I -0.70710678118654757 0.70710678118654757 0.75 forward I I I I #
loop $-1 $-1 $225 $62 #
coedge $-1 $141 $141 $226 $227 reversed $89 $-1 #
face $-1 $228 $229 $49 $-1 $230 reversed single #
loop $-1 $-1 $231 $91 #
plane-surface $-1 -77.397381511886948 6.659095498500804 0.727049605761664 -0.51503808176128008 0 0.85716729658548041 0.85716729658548041 0 0.51503808176128008 forward_v I I I I #
coedge $-1 $232 $233 $234 $235 reversed $92 $-1 #
face $-1 $-1 $236 $50 $-1 $237 forward single #
loop $-1 $238 $239 $94 #
cone-surface $-1 -65.367437581906444 6.659095498500804 2.428903282934769 0.51503808176128008 0 -0.85716729658548041 0.64287547243911036 0 0.38627856132096006 1 I I -0.70710678118654757 0.70710678118654757 0.75 forward I I I I #
loop $-1 $-1 $240 $64 #
coedge $-1 $150 $150 $241 $242 reversed $95 $-1 #
face $-1 $243 $244 $51 $-1 $245 reversed single #
loop $-1 $-1 $246 $97 #
plane-surface $-1 -77.397381511886948 19.977286495502405 0.727049605761664 -0.51503808176128008 0 0.85716729658548041 0.85716729658548041 0 0.51503808176128008 forward_v I I I I #
coedge $-1 $247 $248 $249 $250 reversed $98 $-1 #
face $-1 $-1 $251 $52 $-1 $252 forward single #
loop $-1 $253 $254 $100 #
cone-surface $-1 -65.367437581906444 19.977286495502405 2.428903282934769 0.51503808176128008 0 -0.85716729658548041 0.64287547243911036 0 0.38627856132096006 1 I I -0.70710678118654757 0.70710678118654757 0.75 forward I I I I #
loop $-1 $-1 $255 $66 #
coedge $-1 $159 $159 $256 $257 reversed $101 $-1 #
face $-1 $258 $259 $53 $-1 $260 reversed single #
loop $-1 $-1 $261 $103 #
plane-surface $-1 -11.389245230949982 25.149101445277275 132.48301108398931 0.81915205242281985 0 0.57357642473473569 0.57357642473473569 0 -0.81915205242281985 forward_v I I I I #
coedge $-1 $262 $263 $264 $265 reversed $104 $-1 #
face $-1 $-1 $266 $54 $-1 $267 forward single #
loop $-1 $268 $269 $106 #
cone-surface $-1 72.303140786496186 21.803754680672796 7.0105298094393262 -0.81915205242281985 0 -0.57357642473473569 0.57357642473473569 0 -0.81915205242281985 1 I I -0.70710678118654746 0.70710678118654746 1 forward I I I I #
loop $-1 $-1 $270 $68 #
coedge $-1 $168 $168 $271 $272 reversed $107 $-1 #
face $-1 $-1 $273 $55 $-1 $274 forward single #
loop $-1 $275 $276 $109 #
cone-surface $-1 72.303140786496186 28.49444820988176 7.0105298094393262 -0.81915205242281985 0 -0.57357642473473569 0.57357642473473569 0 -0.81915205242281985 1 I I -0.70710678118654746 0.70710678118654746 1 forward I I I I #
loop $-1 $-1 $277 $69 #
coedge $-1 $173 $173 $278 $279 reversed $110 $-1 #
face $-1 $280 $281 $42 $-1 $282 reversed single #
loop $-1 $-1 $283 $112 #
plane-surface $-1 0 -41.583229538936003 0 0 1 0 0 0 1 forward_v I I I I #
coedge $-1 $284 $285 $286 $287 forward $113 $-1 #
coedge $-1 $288 $115 $289 $290 forward $71 $-1 #
coedge $-1 $115 $288 $291 $292 forward $71 $-1 #
coedge $-1 $293 $294 $115 $181 reversed $295 $-1 #
edge $-1 $296 -41.583229538936003 $297 41.583229538936003 $180 $298 forward 7 unknown #
face $-1 $299 $300 $43 $-1 $301 reversed single #
loop $-1 $-1 $302 $116 #
plane-surface $-1 -77.397381511886948 0 0 1 0 0 0 0 -1 forward_v I I I I #
coedge $-1 $303 $304 $305 $306 forward $117 $-1 #
coedge $-1 $305 $119 $302 $307 reversed $74 $-1 #
coedge $-1 $119 $305 $308 $309 reversed $74 $-1 #
coedge $-1 $310 $311 $119 $189 reversed $300 $-1 #
edge $-1 $312 -77.397381511886948 $313 77.397381511886948 $188 $314 forward 7 unknown #
face $-1 $315 $316 $44 $-1 $317 reversed single #
loop $-1 $-1 $318 $120 #
plane-surface $-1 0 45.897389027060136 7.2257867780796747 0 0 1 1 0 0 forward_v I I I I #
coedge $-1 $319 $320 $194 $321 forward $121 $-1 #
coedge $-1 $322 $123 $193 $321 reversed $77 $-1 #
coedge $-1 $123 $322 $323 $324 reversed $77 $-1 #
coedge $-1 $325 $318 $123 $197 reversed $191 $-1 #
edge $-1 $326 -77.397381511886948 $327 77.397381511886948 $196 $328 forward 7 unknown #
face $-1 $329 $330 $45 $-1 $331 reversed single #
loop $-1 $-1 $332 $124 #
plane-surface $-1 -157.12257932634338 -16.477455281343858 133.41205815244001 0 -1 0 0.51503808176128008 0 -0.85716729658548041 forward_v I I I I #
coedge $-1 $333 $334 $335 $336 reversed $125 $-1 #
coedge $-1 $203 $127 $337 $338 reversed $80 $-1 #
coedge $-1 $127 $202 $333 $339 reversed $80 $-1 #
coedge $-1 $335 $340 $127 $205 forward $341 $-1 #
edge $-1 $342 1.163908151284744 $343 20.344216108932642 $204 $344 forward 7 unknown #
loop $-1 $-1 $211 $128 #
plane-surface $-1 -77.397381511886948 -19.977286495502398 0.727049605761664 -0.51503808176128008 0 0.85716729658548041 0.85716729658548041 0 0.51503808176128008 forward_v I I I I #
loop $-1 $-1 $345 $82 #
coedge $-1 $209 $209 $210 $346 reversed $129 $-1 #
coedge $-1 $210 $210 $209 $346 forward $131 $-1 #
coedge $-1 $211 $211 $132 $212 forward $206 $-1 #
edge $-1 $347 0 $347 6.2831853071796004 $211 $348 forward 7 unknown #
face $-1 $349 $350 $47 $-1 $351 forward single #
loop $-1 $-1 $352 $133 #
plane-surface $-1 -157.12257932634338 -3.1592642843422549 133.41205815244001 0 -1 0 0.51503808176128008 0 -0.85716729658548041 forward_v I I I I #
coedge $-1 $353 $354 $355 $356 reversed $134 $-1 #
coedge $-1 $218 $136 $357 $358 reversed $86 $-1 #
coedge $-1 $136 $217 $353 $359 reversed $86 $-1 #
coedge $-1 $355 $360 $136 $220 forward $350 $-1 #
edge $-1 $361 1.163908151284744 $362 20.344216108932642 $219 $363 forward 7 unknown #
loop $-1 $-1 $226 $137 #
plane-surface $-1 -77.397381511886948 -6.6590954985007969 0.727049605761664 -0.51503808176128008 0 0.85716729658548041 0.85716729658548041 0 0.51503808176128008 forward_v I I I I #
loop $-1 $-1 $364 $88 #
coedge $-1 $224 $224 $225 $365 reversed $138 $-1 #
coedge $-1 $225 $225 $224 $365 forward $140 $-1 #
coedge $-1 $226 $226 $141 $227 forward $221 $-1 #
edge $-1 $366 0 $366 6.2831853071796004 $226 $367 forward 7 unknown #
face $-1 $368 $369 $49 $-1 $370 forward single #
loop $-1 $-1 $371 $142 #
plane-surface $-1 -157.12257932634338 10.158926712659346 133.41205815244001 0 -1 0 0.51503808176128008 0 -0.85716729658548041 forward_v I I I I #
coedge $-1 $372 $373 $374 $375 reversed $143 $-1 #
coedge $-1 $233 $145 $376 $377 reversed $92 $-1 #
coedge $-1 $145 $232 $372 $378 reversed $92 $-1 #
coedge $-1 $374 $379 $145 $235 forward $369 $-1 #
edge $-1 $380 1.163908151284744 $381 20.344216108932642 $234 $382 forward 7 unknown #
loop $-1 $-1 $241 $146 #
plane-surface $-1 -77.397381511886948 6.659095498500804 0.727049605761664 -0.51503808176128008 0 0.85716729658548041 0.85716729658548041 0 0.51503808176128008 forward_v I I I I #
loop $-1 $-1 $383 $94 #
coedge $-1 $239 $239 $240 $384 reversed $147 $-1 #
coedge $-1 $240 $240 $239 $384 forward $149 $-1 #
coedge $-1 $241 $241 $150 $242 forward $236 $-1 #
edge $-1 $385 0 $385 6.2831853071796004 $241 $386 forward 7 unknown #
face $-1 $387 $388 $51 $-1 $389 forward single #
loop $-1 $-1 $390 $151 #
plane-surface $-1 -157.12257932634338 23.477117709660945 133.41205815244001 0 -1 0 0.51503808176128008 0 -0.85716729658548041 forward_v I I I I #
coedge $-1 $391 $392 $393 $394 reversed $152 $-1 #
coedge $-1 $248 $154 $395 $396 reversed $98 $-1 #
coedge $-1 $154 $247 $391 $397 reversed $98 $-1 #
coedge $-1 $393 $398 $154 $250 forward $388 $-1 #
edge $-1 $399 1.163908151284744 $400 20.344216108932642 $249 $401 forward 7 unknown #
loop $-1 $-1 $256 $155 #
plane-surface $-1 -77.397381511886948 19.977286495502405 0.727049605761664 -0.51503808176128008 0 0.85716729658548041 0.85716729658548041 0 0.51503808176128008 forward_v I I I I #
loop $-1 $-1 $402 $100 #
coedge $-1 $254 $254 $255 $403 reversed $156 $-1 #
coedge $-1 $255 $255 $254 $403 forward $158 $-1 #
coedge $-1 $256 $256 $159 $257 forward $251 $-1 #
edge $-1 $404 0 $404 6.2831853071796004 $256 $405 forward 7 unknown #
face $-1 $406 $407 $53 $-1 $408 forward single #
loop $-1 $-1 $409 $160 #
plane-surface $-1 115.41120260427843 17.343292327866827 221.2696378268262 0 1 0 0.81915205242281985 0 0.57357642473473569 forward_v I I I I #
coedge $-1 $410 $411 $412 $413 reversed $161 $-1 #
coedge $-1 $263 $163 $414 $415 reversed $104 $-1 #
coedge $-1 $163 $262 $410 $416 reversed $104 $-1 #
coedge $-1 $412 $417 $163 $265 forward $407 $-1 #
edge $-1 $418 -19.691780209747733 $419 -15.091992198320781 $264 $420 forward 7 unknown #
loop $-1 $-1 $271 $164 #
plane-surface $-1 -11.389245230949982 25.149101445277275 132.48301108398931 0.81915205242281985 0 0.57357642473473569 0.57357642473473569 0 -0.81915205242281985 forward_v I I I I #
loop $-1 $-1 $421 $106 #
coedge $-1 $269 $269 $270 $422 reversed $165 $-1 #
coedge $-1 $270 $270 $269 $422 forward $167 $-1 #
coedge $-1 $271 $271 $168 $272 forward $266 $-1 #
edge $-1 $423 0 $423 6.2831853071796004 $271 $424 forward 7 unknown #
loop $-1 $-1 $278 $169 #
plane-surface $-1 -11.389245230949982 25.149101445277275 132.48301108398931 0.81915205242281985 0 0.57357642473473569 0.57357642473473569 0 -0.81915205242281985 forward_v I I I I #
loop $-1 $-1 $425 $109 #
coedge $-1 $276 $276 $277 $426 reversed $170 $-1 #
coedge $-1 $277 $277 $276 $426 forward $172 $-1 #
coedge $-1 $278 $278 $173 $279 forward $273 $-1 #
edge $-1 $427 0 $427 6.2831853071796004 $278 $428 forward 7 unknown #
face $-1 $429 $430 $42 $-1 $431 reversed single #
loop $-1 $-1 $432 $174 #
plane-surface $-1 -77.397381511886948 0 0 1 0 0 0 0 -1 forward_v I I I I #
coedge $-1 $433 $291 $434 $435 forward $175 $-1 #
coedge $-1 $436 $177 $433 $437 forward $113 $-1 #
coedge $-1 $177 $436 $438 $439 forward $113 $-1 #
coedge $-1 $294 $293 $177 $287 reversed $295 $-1 #
edge $-1 $440 -41.583229538936003 $441 41.583229538936003 $286 $442 forward 7 unknown #
coedge $-1 $179 $178 $443 $444 forward $71 $-1 #
coedge $-1 $445 $446 $178 $290 reversed $430 $-1 #
edge $-1 $297 -77.397381511886948 $447 77.397381511886948 $289 $448 forward 7 unknown #
coedge $-1 $283 $449 $179 $292 reversed $175 $-1 #
edge $-1 $450 -77.397381511886948 $296 77.397381511886948 $291 $451 forward 7 unknown #
coedge $-1 $286 $180 $449 $452 forward $295 $-1 #
coedge $-1 $180 $286 $445 $453 reversed $295 $-1 #
loop $-1 $-1 $293 $429 #
vertex $-1 $181 $454 #
vertex $-1 $181 $455 #
straight-curve $-1 77.397381511886948 0 12.251741526987395 0 1 0 I I #
face $-1 $456 $457 $43 $-1 $458 reversed single #
loop $-1 $-1 $310 $182 #
plane-surface $-1 0 -45.897389027060143 7.2257867780796747 0 0 1 1 0 0 forward_v I I I I #
coedge $-1 $459 $460 $186 $307 forward $183 $-1 #
coedge $-1 $461 $185 $460 $462 forward $117 $-1 #
coedge $-1 $185 $461 $463 $464 forward $117 $-1 #
coedge $-1 $187 $186 $185 $306 reversed $74 $-1 #
edge $-1 $465 -77.397381511886948 $466 77.397381511886948 $185 $467 forward 7 unknown #
edge $-1 $466 -12.251741526987395 $313 -7.2257867780796747 $302 $468 forward 7 unknown #
coedge $-1 $463 $469 $187 $309 forward $470 $-1 #
edge $-1 $312 7.2257867780796747 $465 12.251741526987395 $308 $471 forward 7 unknown #
coedge $-1 $472 $188 $469 $473 forward $300 $-1 #
coedge $-1 $188 $472 $459 $474 forward $300 $-1 #
vertex $-1 $309 $475 #
vertex $-1 $307 $476 #
straight-curve $-1 0 -41.583229538936003 7.2257867780796747 -1 0 0 I I #
face $-1 $477 $478 $44 $-1 $479 forward single #
loop $-1 $-1 $480 $190 #
plane-surface $-1 0 50.211548515184276 9.738764152533534 0 -1 0 0 0 -1 forward_v I I I I #
coedge $-1 $196 $481 $319 $482 forward $191 $-1 #
coedge $-1 $483 $193 $318 $482 reversed $121 $-1 #
coedge $-1 $193 $483 $484 $485 reversed $121 $-1 #
edge $-1 $486 -12.251741526987395 $327 -7.2257867780796747 $193 $487 forward 7 unknown #
coedge $-1 $195 $194 $488 $489 reversed $77 $-1 #
coedge $-1 $490 $491 $195 $324 forward $492 $-1 #
edge $-1 $326 7.2257867780796747 $493 12.251741526987395 $323 $494 forward 7 unknown #
coedge $-1 $481 $196 $491 $495 forward $191 $-1 #
vertex $-1 $324 $496 #
vertex $-1 $321 $497 #
straight-curve $-1 0 41.583229538936003 7.2257867780796747 1 0 0 I I #
face $-1 $-1 $341 $45 $-1 $498 forward single #
loop $-1 $-1 $499 $198 #
plane-surface $-1 -77.397381511886948 0 0 1 0 0 0 0 -1 forward_v I I I I #
coedge $-1 $500 $501 $502 $503 reversed $199 $-1 #
coedge $-1 $504 $201 $203 $339 forward $125 $-1 #
coedge $-1 $201 $504 $500 $505 forward $125 $-1 #
coedge $-1 $502 $204 $201 $336 forward $341 $-1 #
edge $-1 $343 -13.488474461909739 $506 -6.4888120335926587 $335 $507 forward 7 unknown #
coedge $-1 $508 $509 $202 $338 forward $330 $-1 #
edge $-1 $510 -65.978979470458341 $342 -54.45428754923261 $337 $511 forward 7 unknown #
edge $-1 $343 -22.376387939731849 $510 0 $203 $512 forward 7 unknown #
coedge $-1 $204 $502 $508 $513 forward $341 $-1 #
loop $-1 $-1 $502 $329 #
vertex $-1 $338 $514 #
vertex $-1 $205 $515 #
straight-curve $-1 -78.561289663171692 -23.477117709660938 12.251741526987395 1 0 0 I I #
coedge $-1 $345 $345 $-1 $516 reversed $208 $-1 #
edge $-1 $517 0 $517 6.2831853071796004 $209 $518 forward 7 unknown #
vertex $-1 $212 $519 #
ellipse-curve $-1 -67.807227533062999 -19.977286495502398 6.4893955663745277 -0.51503808176128008 0 0.85716729658548041 1.2857509448782207 0 0.77255712264192011 1 I I #
face $-1 $-1 $520 $47 $-1 $521 reversed single #
loop $-1 $-1 $219 $213 #
plane-surface $-1 0 0 12.251741526987395 0 0 1 1 0 0 forward_v I I I I #
coedge $-1 $522 $523 $524 $525 reversed $214 $-1 #
coedge $-1 $526 $216 $218 $359 forward $134 $-1 #
coedge $-1 $216 $526 $522 $527 forward $134 $-1 #
coedge $-1 $524 $219 $216 $356 forward $350 $-1 #
edge $-1 $362 -6.8293789634089404 $528 0.1702834649081435 $355 $529 forward 7 unknown #
coedge $-1 $530 $531 $217 $358 forward $520 $-1 #
edge $-1 $532 -65.978979470458341 $361 -54.45428754923261 $357 $533 forward 7 unknown #
edge $-1 $362 -22.376387939731849 $532 0 $218 $534 forward 7 unknown #
coedge $-1 $219 $524 $530 $535 forward $350 $-1 #
vertex $-1 $220 $536 #
vertex $-1 $220 $537 #
straight-curve $-1 -78.561289663171692 -10.158926712659339 12.251741526987395 1 0 0 I I #
coedge $-1 $364 $364 $-1 $538 reversed $223 $-1 #
edge $-1 $539 0 $539 6.2831853071796004 $224 $540 forward 7 unknown #
vertex $-1 $227 $541 #
ellipse-curve $-1 -67.807227533062999 -6.6590954985007969 6.4893955663745277 -0.51503808176128008 0 0.85716729658548041 1.2857509448782207 0 0.77255712264192011 1 I I #
face $-1 $-1 $542 $49 $-1 $543 reversed single #
loop $-1 $-1 $234 $228 #
plane-surface $-1 0 0 12.251741526987395 0 0 1 1 0 0 forward_v I I I I #
coedge $-1 $544 $545 $546 $547 reversed $229 $-1 #
coedge $-1 $548 $231 $233 $378 forward $143 $-1 #
coedge $-1 $231 $548 $544 $549 forward $143 $-1 #
coedge $-1 $546 $234 $231 $375 forward $369 $-1 #
edge $-1 $381 -0.17028346490813995 $550 6.8293789634089439 $374 $551 forward 7 unknown #
coedge $-1 $552 $553 $232 $377 forward $542 $-1 #
edge $-1 $554 -65.978979470458341 $380 -54.45428754923261 $376 $555 forward 7 unknown #
edge $-1 $381 -22.376387939731849 $554 0 $233 $556 forward 7 unknown #
coedge $-1 $234 $546 $552 $557 forward $369 $-1 #
vertex $-1 $235 $558 #
vertex $-1 $235 $559 #
straight-curve $-1 -78.561289663171692 3.159264284342262 12.251741526987395 1 0 0 I I #
coedge $-1 $383 $383 $-1 $560 reversed $238 $-1 #
edge $-1 $561 0 $561 6.2831853071796004 $239 $562 forward 7 unknown #
vertex $-1 $242 $563 #
ellipse-curve $-1 -67.807227533062999 6.659095498500804 6.4893955663745277 -0.51503808176128008 0 0.85716729658548041 1.2857509448782207 0 0.77255712264192011 1 I I #
face $-1 $-1 $564 $51 $-1 $565 reversed single #
loop $-1 $-1 $249 $243 #
plane-surface $-1 0 0 12.251741526987395 0 0 1 1 0 0 forward_v I I I I #
coedge $-1 $566 $567 $568 $569 reversed $244 $-1 #
coedge $-1 $570 $246 $248 $397 forward $152 $-1 #
coedge $-1 $246 $570 $566 $571 forward $152 $-1 #
coedge $-1 $568 $249 $246 $394 forward $388 $-1 #
edge $-1 $400 6.4888120335926622 $572 13.488474461909743 $393 $573 forward 7 unknown #
coedge $-1 $574 $575 $247 $396 forward $564 $-1 #
edge $-1 $576 -65.978979470458341 $399 -54.45428754923261 $395 $577 forward 7 unknown #
edge $-1 $400 -22.376387939731849 $576 0 $248 $578 forward 7 unknown #
coedge $-1 $249 $568 $574 $579 forward $388 $-1 #
vertex $-1 $250 $580 #
vertex $-1 $250 $581 #
straight-curve $-1 -78.561289663171692 16.477455281343865 12.251741526987395 1 0 0 I I #
coedge $-1 $402 $402 $-1 $582 reversed $253 $-1 #
edge $-1 $583 0 $583 6.2831853071796004 $254 $584 forward 7 unknown #
vertex $-1 $257 $585 #
ellipse-curve $-1 -67.807227533062999 19.977286495502405 6.4893955663745277 -0.51503808176128008 0 0.85716729658548041 1.2857509448782207 0 0.77255712264192011 1 I I #
face $-1 $-1 $586 $53 $-1 $587 reversed single #
loop $-1 $-1 $264 $258 #
plane-surface $-1 0 0 12.251741526987395 0 0 1 1 0 0 forward_v I I I I #
coedge $-1 $588 $589 $590 $591 reversed $259 $-1 #
coedge $-1 $592 $261 $263 $416 forward $161 $-1 #
coedge $-1 $261 $592 $588 $593 forward $161 $-1 #
coedge $-1 $590 $264 $261 $413 forward $407 $-1 #
edge $-1 $419 -20.380359840049085 $594 -4.7687416052281897 $412 $595 forward 7 unknown #
coedge $-1 $596 $597 $262 $415 forward $586 $-1 #
edge $-1 $598 -104.95225566465224 $418 -98.383077386425697 $414 $599 forward 7 unknown #
edge $-1 $419 146.7752771923013 $598 154.79476302377398 $263 $600 forward 7 unknown #
coedge $-1 $264 $590 $596 $601 forward $407 $-1 #
vertex $-1 $415 $602 #
vertex $-1 $265 $603 #
straight-curve $-1 57.705601302139215 32.954910562687722 12.251741526987388 -1 0 0 I I #
coedge $-1 $421 $421 $-1 $604 reversed $268 $-1 #
edge $-1 $605 0 $605 6.2831853071796004 $269 $606 forward 7 unknown #
vertex $-1 $272 $607 #
ellipse-curve $-1 75.097487506173451 21.803754680672796 8.967152387874151 0.81915205242281985 0 0.57357642473473569 1.1471528494694714 0 -1.6383041048456397 1 I I #
coedge $-1 $425 $425 $-1 $608 reversed $275 $-1 #
edge $-1 $609 0 $609 6.2831853071796004 $276 $610 forward 7 unknown #
vertex $-1 $279 $611 #
ellipse-curve $-1 75.097487506173451 28.49444820988176 8.967152387874151 0.81915205242281985 0 0.57357642473473569 1.1471528494694714 0 -1.6383041048456397 1 I I #
face $-1 $-1 $295 $42 $-1 $612 reversed single #
loop $-1 $-1 $445 $280 #
plane-surface $-1 0 41.583229538936003 0 0 -1 0 0 0 -1 forward_v I I I I #
coedge $-1 $613 $443 $446 $614 forward $281 $-1 #
coedge $-1 $449 $283 $284 $437 reversed $175 $-1 #
coedge $-1 $443 $613 $283 $435 reversed $281 $-1 #
edge $-1 $450 -12.251741526987395 $615 12.251741526987395 $434 $616 forward 7 unknown #
coedge $-1 $285 $284 $613 $617 forward $113 $-1 #
edge $-1 $441 -77.397381511886948 $615 77.397381511886948 $433 $618 forward 7 unknown #
coedge $-1 $446 $445 $285 $439 reversed $430 $-1 #
edge $-1 $619 -77.397381511886948 $440 77.397381511886948 $438 $620 forward 7 unknown #
vertex $-1 $287 $621 #
vertex $-1 $452 $622 #
straight-curve $-1 77.397381511886948 0 -12.251741526987395 0 -1 0 I I #
coedge $-1 $432 $434 $288 $444 reversed $281 $-1 #
edge $-1 $447 -41.583229538936003 $450 41.583229538936003 $443 $623 forward 7 unknown #
coedge $-1 $438 $289 $294 $453 forward $430 $-1 #
coedge $-1 $289 $438 $432 $614 reversed $430 $-1 #
vertex $-1 $290 $624 #
straight-curve $-1 0 41.583229538936003 12.251741526987395 -1 0 0 I I #
coedge $-1 $291 $433 $293 $452 reversed $175 $-1 #
vertex $-1 $444 $625 #
straight-curve $-1 0 -41.583229538936003 12.251741526987395 1 0 0 I I #
edge $-1 $296 -12.251741526987395 $441 12.251741526987395 $293 $626 forward 7 unknown #
edge $-1 $297 -12.251741526987395 $440 12.251741526987395 $294 $627 forward 7 unknown #
point $-1 77.397381511886948 -41.583229538936003 12.251741526987395 #
point $-1 77.397381511886948 41.583229538936003 12.251741526987395 #
face $-1 $-1 $470 $43 $-1 $628 reversed single #
loop $-1 $-1 $629 $299 #
plane-surface $-1 0 -50.211548515184283 9.738764152533534 0 1 0 0 0 1 forward_v I I I I #
coedge $-1 $630 $302 $311 $474 reversed $183 $-1 #
coedge $-1 $302 $630 $303 $462 reversed $183 $-1 #
coedge $-1 $304 $303 $631 $632 forward $117 $-1 #
edge $-1 $466 41.583229538936003 $633 50.211548515184283 $460 $634 forward 7 unknown #
coedge $-1 $635 $308 $304 $464 reversed $470 $-1 #
edge $-1 $636 -50.211548515184283 $465 -41.583229538936003 $463 $637 forward 7 unknown #
vertex $-1 $309 $638 #
vertex $-1 $462 $639 #
straight-curve $-1 0 -41.583229538936003 12.251741526987395 -1 0 0 I I #
straight-curve $-1 -77.397381511886948 -41.583229538936003 0 0 0 -1 I I #
coedge $-1 $308 $635 $310 $473 reversed $470 $-1 #
loop $-1 $-1 $308 $456 #
straight-curve $-1 77.397381511886948 -41.583229538936003 0 0 0 1 I I #
coedge $-1 $311 $310 $640 $641 forward $300 $-1 #
edge $-1 $312 -4.3141594881241403 $642 4.3141594881241403 $469 $643 forward 7 unknown #
edge $-1 $644 -4.3141594881241403 $313 4.3141594881241403 $459 $645 forward 7 unknown #
point $-1 77.397381511886948 -41.583229538936003 7.2257867780796747 #
point $-1 -77.397381511886948 -41.583229538936003 7.2257867780796747 #
face $-1 $-1 $492 $44 $-1 $646 reversed single #
loop $-1 $-1 $488 $315 #
plane-surface $-1 0 0 12.251741526987395 0 0 1 1 0 0 forward_v I I I I #
coedge $-1 $647 $648 $483 $649 forward $316 $-1 #
coedge $-1 $318 $325 $647 $650 forward $191 $-1 #
edge $-1 $651 -4.3141594881241403 $327 4.3141594881241403 $319 $652 forward 7 unknown #
coedge $-1 $320 $319 $480 $649 reversed $121 $-1 #
coedge $-1 $653 $488 $320 $485 forward $478 $-1 #
edge $-1 $486 41.583229538936003 $654 50.211548515184276 $320 $655 forward 7 unknown #
vertex $-1 $485 $656 #
straight-curve $-1 77.397381511886948 41.583229538936003 0 0 0 -1 I I #
coedge $-1 $484 $657 $322 $489 forward $478 $-1 #
edge $-1 $493 -77.397381511886948 $486 77.397381511886948 $488 $658 forward 7 unknown #
coedge $-1 $659 $323 $657 $660 reversed $492 $-1 #
coedge $-1 $323 $659 $325 $495 reversed $492 $-1 #
loop $-1 $-1 $323 $477 #
vertex $-1 $324 $661 #
straight-curve $-1 -77.397381511886948 41.583229538936003 0 0 0 1 I I #
edge $-1 $326 -4.3141594881241403 $662 4.3141594881241403 $491 $663 forward 7 unknown #
point $-1 -77.397381511886948 41.583229538935996 7.2257867780796747 #
point $-1 77.397381511886948 41.583229538935996 7.2257867780796747 #
plane-surface $-1 0 0 12.251741526987395 0 0 1 1 0 0 forward_v I I I I #
coedge $-1 $509 $508 $501 $664 forward $330 $-1 #
coedge $-1 $501 $332 $334 $505 reversed $199 $-1 #
coedge $-1 $332 $500 $499 $664 reversed $199 $-1 #
coedge $-1 $340 $335 $332 $503 forward $341 $-1 #
edge $-1 $506 -20.344216108932642 $665 -1.163908151284744 $502 $666 forward 7 unknown #
coedge $-1 $334 $333 $509 $667 reversed $125 $-1 #
edge $-1 $668 0 $506 22.376387939731849 $500 $669 forward 7 unknown #
vertex $-1 $336 $670 #
straight-curve $-1 -58.217073554239057 -9.9886432477511988 12.251741526987395 0 1 0 I I #
coedge $-1 $499 $337 $340 $513 reversed $330 $-1 #
coedge $-1 $337 $499 $504 $667 forward $330 $-1 #
vertex $-1 $338 $671 #
straight-curve $-1 -77.397381511886948 -23.477117709660938 66.706029076220005 0 0 1 I I #
straight-curve $-1 -77.397381511886948 -23.477117709660938 0.727049605761664 -0.85716729658548041 0 -0.51503808176128008 I I #
edge $-1 $665 16.477455281343858 $342 23.477117709660938 $508 $672 forward 7 unknown #
point $-1 -77.397381511886948 -23.477117709660938 12.251741526987395 #
point $-1 -58.21707355423905 -23.477117709660938 12.251741526987395 #
edge $-1 $673 1 $673 0 $345 $-1 forward 7 unknown #
vertex $-1 $346 $674 #
ellipse-curve $-1 -65.753716143227408 -19.977286495502398 3.0717787553738791 -0.51503808176128008 0 0.85716729658548041 1.2857509448782207 0 0.77255712264192011 1 I I #
point $-1 -66.521476588184782 -19.977286495502398 7.2619526890164519 #
loop $-1 $-1 $357 $349 #
plane-surface $-1 -77.397381511886948 0 0 1 0 0 0 0 -1 forward_v I I I I #
coedge $-1 $523 $352 $354 $527 reversed $214 $-1 #
coedge $-1 $352 $522 $675 $676 reversed $214 $-1 #
coedge $-1 $360 $355 $352 $525 forward $350 $-1 #
edge $-1 $528 -20.344216108932642 $677 -1.163908151284744 $524 $678 forward 7 unknown #
coedge $-1 $354 $353 $531 $679 reversed $134 $-1 #
edge $-1 $680 0 $528 22.376387939731849 $522 $681 forward 7 unknown #
vertex $-1 $356 $682 #
straight-curve $-1 -58.217073554239057 -3.3295477492503984 12.251741526987395 0 1 0 I I #
coedge $-1 $675 $357 $360 $535 reversed $520 $-1 #
coedge $-1 $357 $675 $526 $679 forward $520 $-1 #
vertex $-1 $358 $683 #
straight-curve $-1 -77.397381511886948 -10.158926712659339 66.706029076220005 0 0 1 I I #
straight-curve $-1 -77.397381511886948 -10.158926712659339 0.727049605761664 -0.85716729658548041 0 -0.51503808176128008 I I #
edge $-1 $677 3.1592642843422549 $361 10.158926712659339 $530 $684 forward 7 unknown #
point $-1 -77.397381511886948 -10.158926712659339 12.251741526987395 #
point $-1 -58.21707355423905 -10.158926712659339 12.251741526987395 #
edge $-1 $685 1 $685 0 $364 $-1 forward 7 unknown #
vertex $-1 $365 $686 #
ellipse-curve $-1 -65.753716143227408 -6.6590954985007969 3.0717787553738791 -0.51503808176128008 0 0.85716729658548041 1.2857509448782207 0 0.77255712264192011 1 I I #
point $-1 -66.521476588184782 -6.6590954985007969 7.2619526890164519 #
loop $-1 $-1 $376 $368 #
plane-surface $-1 -77.397381511886948 0 0 1 0 0 0 0 -1 forward_v I I I I #
coedge $-1 $545 $371 $373 $549 reversed $229 $-1 #
coedge $-1 $371 $544 $687 $688 reversed $229 $-1 #
coedge $-1 $379 $374 $371 $547 forward $369 $-1 #
edge $-1 $550 -20.344216108932642 $689 -1.163908151284744 $546 $690 forward 7 unknown #
coedge $-1 $373 $372 $553 $691 reversed $143 $-1 #
edge $-1 $692 0 $550 22.376387939731849 $544 $693 forward 7 unknown #
vertex $-1 $375 $694 #
straight-curve $-1 -58.217073554239057 3.329547749250402 12.251741526987395 0 1 0 I I #
coedge $-1 $687 $376 $379 $557 reversed $542 $-1 #
coedge $-1 $376 $687 $548 $691 forward $542 $-1 #
vertex $-1 $377 $695 #
straight-curve $-1 -77.397381511886948 3.159264284342262 66.706029076220005 0 0 1 I I #
straight-curve $-1 -77.397381511886948 3.159264284342262 0.727049605761664 -0.85716729658548041 0 -0.51503808176128008 I I #
edge $-1 $689 -10.158926712659346 $380 -3.159264284342262 $552 $696 forward 7 unknown #
point $-1 -77.397381511886948 3.159264284342262 12.251741526987395 #
point $-1 -58.21707355423905 3.159264284342262 12.251741526987395 #
edge $-1 $697 1 $697 0 $383 $-1 forward 7 unknown #
vertex $-1 $384 $698 #
ellipse-curve $-1 -65.753716143227408 6.659095498500804 3.0717787553738791 -0.51503808176128008 0 0.85716729658548041 1.2857509448782207 0 0.77255712264192011 1 I I #
point $-1 -66.521476588184782 6.659095498500804 7.2619526890164519 #
loop $-1 $-1 $395 $387 #
plane-surface $-1 -77.397381511886948 0 0 1 0 0 0 0 -1 forward_v I I I I #
coedge $-1 $567 $390 $392 $571 reversed $244 $-1 #
coedge $-1 $390 $566 $699 $700 reversed $244 $-1 #
coedge $-1 $398 $393 $390 $569 forward $388 $-1 #
edge $-1 $572 -20.344216108932642 $701 -1.163908151284744 $568 $702 forward 7 unknown #
coedge $-1 $392 $391 $575 $703 reversed $152 $-1 #
edge $-1 $704 0 $572 22.376387939731849 $566 $705 forward 7 unknown #
vertex $-1 $394 $706 #
straight-curve $-1 -58.217073554239057 9.9886432477512024 12.251741526987395 0 1 0 I I #
coedge $-1 $699 $395 $398 $579 reversed $564 $-1 #
coedge $-1 $395 $699 $570 $703 forward $564 $-1 #
vertex $-1 $396 $707 #
straight-curve $-1 -77.397381511886948 16.477455281343865 66.706029076220005 0 0 1 I I #
straight-curve $-1 -77.397381511886948 16.477455281343865 0.727049605761664 -0.85716729658548041 0 -0.51503808176128008 I I #
edge $-1 $701 -23.477117709660945 $399 -16.477455281343865 $574 $708 forward 7 unknown #
point $-1 -77.397381511886948 16.477455281343865 12.251741526987395 #
point $-1 -58.21707355423905 16.477455281343865 12.251741526987395 #
edge $-1 $709 1 $709 0 $402 $-1 forward 7 unknown #
vertex $-1 $403 $710 #
ellipse-curve $-1 -65.753716143227408 19.977286495502405 3.0717787553738791 -0.51503808176128008 0 0.85716729658548041 1.2857509448782207 0 0.77255712264192011 1 I I #
point $-1 -66.521476588184782 19.977286495502405 7.2619526890164519 #
loop $-1 $-1 $414 $406 #
plane-surface $-1 77.397381511886948 0 0 -1 0 0 0 0 1 forward_v I I I I #
coedge $-1 $589 $409 $411 $593 reversed $259 $-1 #
coedge $-1 $409 $588 $711 $712 reversed $259 $-1 #
coedge $-1 $417 $412 $409 $591 forward $407 $-1 #
edge $-1 $594 15.091992198320781 $713 19.691780209747733 $590 $714 forward 7 unknown #
coedge $-1 $411 $410 $597 $715 reversed $161 $-1 #
edge $-1 $716 -154.79476302377398 $594 -146.7752771923013 $588 $717 forward 7 unknown #
vertex $-1 $413 $718 #
straight-curve $-1 72.797593500459982 12.574550722638637 12.251741526987402 0 -1 0 I I #
coedge $-1 $711 $414 $417 $601 reversed $586 $-1 #
coedge $-1 $414 $711 $592 $715 forward $586 $-1 #
vertex $-1 $415 $719 #
straight-curve $-1 77.397381511886948 32.954910562687722 110.6348189134131 0 0 1 I I #
straight-curve $-1 -11.389245230949982 32.954910562687722 132.48301108398931 0.57357642473473569 0 -0.81915205242281985 I I #
edge $-1 $713 17.343292327866827 $418 32.954910562687722 $596 $720 forward 7 unknown #
point $-1 77.397381511886948 32.954910562687722 12.251741526987395 #
point $-1 72.797593500459996 32.954910562687722 12.251741526987402 #
edge $-1 $721 1 $721 0 $421 $-1 forward 7 unknown #
vertex $-1 $422 $722 #
ellipse-curve $-1 73.122292838919009 21.803754680672796 7.5841062341740617 0.81915205242281985 0 0.57357642473473569 1.1471528494694714 0 -1.6383041048456397 1 I I #
point $-1 76.244640355642943 21.803754680672796 7.3288482830285311 #
edge $-1 $723 1 $723 0 $425 $-1 forward 7 unknown #
vertex $-1 $426 $724 #
ellipse-curve $-1 73.122292838919009 28.49444820988176 7.5841062341740617 0.81915205242281985 0 0.57357642473473569 1.1471528494694714 0 -1.6383041048456397 1 I I #
point $-1 76.244640355642943 28.49444820988176 7.3288482830285311 #
plane-surface $-1 77.397381511886948 0 0 -1 0 0 0 0 1 forward_v I I I I #
coedge $-1 $434 $432 $436 $617 reversed $281 $-1 #
edge $-1 $447 -12.251741526987395 $619 12.251741526987395 $446 $725 forward 7 unknown #
vertex $-1 $617 $726 #
straight-curve $-1 -77.397381511886948 -41.583229538936003 0 0 0 -1 I I #
edge $-1 $615 -41.583229538936003 $619 41.583229538936003 $613 $727 forward 7 unknown #
straight-curve $-1 0 -41.583229538936003 -12.251741526987395 -1 0 0 I I #
vertex $-1 $439 $728 #
straight-curve $-1 0 41.583229538936003 -12.251741526987395 1 0 0 I I #
point $-1 77.397381511886948 41.583229538936003 -12.251741526987395 #
point $-1 77.397381511886948 -41.583229538936003 -12.251741526987395 #
straight-curve $-1 -77.397381511886948 0 12.251741526987395 0 -1 0 I I #
point $-1 -77.397381511886948 41.583229538936003 12.251741526987395 #
point $-1 -77.397381511886948 -41.583229538936003 12.251741526987395 #
straight-curve $-1 77.397381511886948 -41.583229538936003 0 0 0 -1 I I #
straight-curve $-1 77.397381511886948 41.583229538936003 0 0 0 -1 I I #
plane-surface $-1 77.397381511886948 0 0 -1 0 0 0 0 1 forward_v I I I I #
coedge $-1 $640 $631 $630 $729 forward $457 $-1 #
coedge $-1 $460 $459 $629 $729 reversed $183 $-1 #
coedge $-1 $629 $730 $461 $632 reversed $457 $-1 #
edge $-1 $633 -77.397381511886948 $636 77.397381511886948 $631 $731 forward 7 unknown #
vertex $-1 $462 $732 #
straight-curve $-1 -77.397381511886948 0 12.251741526987395 0 -1 0 I I #
coedge $-1 $469 $463 $730 $733 forward $470 $-1 #
vertex $-1 $464 $734 #
straight-curve $-1 77.397381511886948 0 12.251741526987395 0 1 0 I I #
point $-1 77.397381511886948 -41.583229538936003 12.251741526987395 #
point $-1 -77.397381511886948 -41.583229538936003 12.251741526987395 #
coedge $-1 $730 $629 $472 $641 reversed $457 $-1 #
edge $-1 $642 -77.397381511886948 $644 77.397381511886948 $640 $735 forward 7 unknown #
vertex $-1 $733 $736 #
straight-curve $-1 77.397381511886948 -45.897389027060143 7.2257867780796747 0 -1 0 I I #
vertex $-1 $474 $737 #
straight-curve $-1 -77.397381511886948 -45.897389027060143 7.2257867780796747 0 1 0 I I #
plane-surface $-1 -77.397381511886948 0 0 1 0 0 0 0 -1 forward_v I I I I #
coedge $-1 $738 $480 $481 $650 reversed $316 $-1 #
coedge $-1 $480 $738 $653 $739 reversed $316 $-1 #
edge $-1 $654 -2.5129773744538593 $651 2.5129773744538593 $483 $740 forward 7 unknown #
edge $-1 $662 -77.397381511886948 $651 77.397381511886948 $647 $741 forward 7 unknown #
vertex $-1 $482 $742 #
straight-curve $-1 77.397381511886948 45.897389027060136 7.2257867780796747 0 -1 0 I I #
coedge $-1 $657 $484 $648 $739 forward $478 $-1 #
vertex $-1 $485 $743 #
straight-curve $-1 77.397381511886948 0 12.251741526987395 0 1 0 I I #
point $-1 77.397381511886948 41.583229538936003 12.251741526987395 #
coedge $-1 $488 $653 $490 $660 forward $478 $-1 #
straight-curve $-1 0 41.583229538936003 12.251741526987395 1 0 0 I I #
coedge $-1 $491 $490 $738 $744 forward $492 $-1 #
edge $-1 $745 -50.211548515184276 $493 -41.583229538936003 $490 $746 forward 7 unknown #
point $-1 -77.397381511886948 41.583229538936003 12.251741526987395 #
vertex $-1 $650 $747 #
straight-curve $-1 -77.397381511886948 45.897389027060136 7.2257867780796747 0 1 0 I I #
edge $-1 $665 54.45428754923261 $668 65.978979470458341 $499 $748 forward 7 unknown #
vertex $-1 $513 $749 #
straight-curve $-1 -78.561289663171692 -16.477455281343858 12.251741526987395 -1 0 0 I I #
edge $-1 $668 6.4888120335926587 $510 13.488474461909739 $509 $750 forward 7 unknown #
vertex $-1 $667 $751 #
straight-curve $-1 -77.397381511886948 -16.477455281343858 0.727049605761664 0.85716729658548041 0 0.51503808176128008 I I #
point $-1 -58.21707355423905 -16.477455281343858 12.251741526987395 #
point $-1 -77.397381511886948 -23.477117709660938 0.727049605761664 #
straight-curve $-1 -77.397381511886948 0 12.251741526987395 0 -1 0 I I #
vertex $-1 $516 $752 #
point $-1 -64.467965198349177 -19.977286495502398 3.8443358780157997 #
coedge $-1 $531 $530 $523 $676 forward $520 $-1 #
edge $-1 $677 54.45428754923261 $680 65.978979470458341 $675 $753 forward 7 unknown #
vertex $-1 $535 $754 #
straight-curve $-1 -78.561289663171692 -3.1592642843422549 12.251741526987395 -1 0 0 I I #
edge $-1 $680 -0.1702834649081435 $532 6.8293789634089404 $531 $755 forward 7 unknown #
vertex $-1 $679 $756 #
straight-curve $-1 -77.397381511886948 -3.1592642843422549 0.727049605761664 0.85716729658548041 0 0.51503808176128008 I I #
point $-1 -58.21707355423905 -3.1592642843422549 12.251741526987395 #
point $-1 -77.397381511886948 -10.158926712659339 0.727049605761664 #
straight-curve $-1 -77.397381511886948 0 12.251741526987395 0 -1 0 I I #
vertex $-1 $538 $757 #
point $-1 -64.467965198349177 -6.6590954985007969 3.8443358780157997 #
coedge $-1 $553 $552 $545 $688 forward $542 $-1 #
edge $-1 $689 54.45428754923261 $692 65.978979470458341 $687 $758 forward 7 unknown #
vertex $-1 $557 $759 #
straight-curve $-1 -78.561289663171692 10.158926712659346 12.251741526987395 -1 0 0 I I #
edge $-1 $692 -6.8293789634089439 $554 0.17028346490813995 $553 $760 forward 7 unknown #
vertex $-1 $691 $761 #
straight-curve $-1 -77.397381511886948 10.158926712659346 0.727049605761664 0.85716729658548041 0 0.51503808176128008 I I #
point $-1 -58.21707355423905 10.158926712659346 12.251741526987395 #
point $-1 -77.397381511886948 3.159264284342262 0.727049605761664 #
straight-curve $-1 -77.397381511886948 0 12.251741526987395 0 -1 0 I I #
vertex $-1 $560 $762 #
point $-1 -64.467965198349177 6.659095498500804 3.8443358780157997 #
coedge $-1 $575 $574 $567 $700 forward $564 $-1 #
edge $-1 $701 54.45428754923261 $704 65.978979470458341 $699 $763 forward 7 unknown #
vertex $-1 $579 $764 #
straight-curve $-1 -78.561289663171692 23.477117709660945 12.251741526987395 -1 0 0 I I #
edge $-1 $704 -13.488474461909743 $576 -6.4888120335926622 $575 $765 forward 7 unknown #
vertex $-1 $703 $766 #
straight-curve $-1 -77.397381511886948 23.477117709660945 0.727049605761664 0.85716729658548041 0 0.51503808176128008 I I #
point $-1 -58.21707355423905 23.477117709660945 12.251741526987395 #
point $-1 -77.397381511886948 16.477455281343865 0.727049605761664 #
straight-curve $-1 -77.397381511886948 0 12.251741526987395 0 -1 0 I I #
vertex $-1 $582 $767 #
point $-1 -64.467965198349177 19.977286495502405 3.8443358780157997 #
coedge $-1 $597 $596 $589 $712 forward $586 $-1 #
edge $-1 $713 98.383077386425697 $716 104.95225566465224 $711 $768 forward 7 unknown #
vertex $-1 $601 $769 #
straight-curve $-1 57.705601302139215 17.343292327866827 12.251741526987388 1 0 0 I I #
edge $-1 $716 4.7687416052281897 $598 20.380359840049085 $597 $770 forward 7 unknown #
vertex $-1 $715 $771 #
straight-curve $-1 -11.389245230949982 17.343292327866827 132.48301108398931 -0.57357642473473569 0 0.81915205242281985 I I #
point $-1 72.797593500459996 17.343292327866827 12.251741526987402 #
point $-1 77.397381511886948 32.954910562687722 5.6825632487608573 #
straight-curve $-1 77.397381511886948 0 12.251741526987395 0 1 0 I I #
vertex $-1 $604 $772 #
point $-1 74.269445688388473 21.803754680672796 5.9458021293284222 #
vertex $-1 $608 $773 #
point $-1 74.269445688388473 28.49444820988176 5.9458021293284222 #
straight-curve $-1 -77.397381511886948 41.583229538936003 0 0 0 -1 I I #
point $-1 -77.397381511886948 -41.583229538936003 -12.251741526987395 #
straight-curve $-1 -77.397381511886948 0 -12.251741526987395 0 1 0 I I #
point $-1 -77.397381511886948 41.583229538936003 -12.251741526987395 #
edge $-1 $633 -2.5129773744538593 $644 2.5129773744538593 $630 $774 forward 7 unknown #
coedge $-1 $631 $640 $635 $733 reversed $457 $-1 #
straight-curve $-1 0 -50.211548515184283 12.251741526987393 1 0 0 I I #
point $-1 -77.397381511886948 -50.211548515184283 12.251741526987393 #
edge $-1 $636 -2.5129773744538593 $642 2.5129773744538593 $635 $775 forward 7 unknown #
point $-1 77.397381511886948 -50.211548515184283 12.251741526987393 #
straight-curve $-1 0 -50.211548515184283 7.2257867780796747 -1 0 0 I I #
point $-1 77.397381511886948 -50.211548515184283 7.2257867780796747 #
point $-1 -77.397381511886948 -50.211548515184283 7.2257867780796747 #
coedge $-1 $648 $647 $659 $744 reversed $316 $-1 #
edge $-1 $654 -77.397381511886948 $745 77.397381511886948 $648 $776 forward 7 unknown #
straight-curve $-1 77.397381511886948 50.211548515184276 9.738764152533534 0 0 -1 I I #
straight-curve $-1 0 50.211548515184276 7.2257867780796747 1 0 0 I I #
point $-1 77.397381511886948 50.211548515184276 7.2257867780796747 #
point $-1 77.397381511886948 50.211548515184276 12.251741526987393 #
edge $-1 $745 -2.5129773744538593 $662 2.5129773744538593 $738 $777 forward 7 unknown #
vertex $-1 $739 $778 #
straight-curve $-1 -77.397381511886948 0 12.251741526987395 0 -1 0 I I #
point $-1 -77.397381511886948 50.211548515184276 7.2257867780796747 #
straight-curve $-1 -77.397381511886948 -16.477455281343858 66.706029076220005 0 0 -1 I I #
point $-1 -77.397381511886948 -16.477455281343858 12.251741526987395 #
straight-curve $-1 -77.397381511886948 -9.9886432477511988 0.72704960576166289 0 -1 0 I I #
point $-1 -77.397381511886948 -16.477455281343858 0.727049605761664 #
point $-1 -64.98115902058548 -19.977286495502398 1.7860278104956586 #
straight-curve $-1 -77.397381511886948 -3.1592642843422549 66.706029076220005 0 0 -1 I I #
point $-1 -77.397381511886948 -3.1592642843422549 12.251741526987395 #
straight-curve $-1 -77.397381511886948 -3.3295477492503984 0.72704960576166289 0 -1 0 I I #
point $-1 -77.397381511886948 -3.1592642843422549 0.727049605761664 #
point $-1 -64.98115902058548 -6.6590954985007969 1.7860278104956586 #
straight-curve $-1 -77.397381511886948 10.158926712659346 66.706029076220005 0 0 -1 I I #
point $-1 -77.397381511886948 10.158926712659346 12.251741526987395 #
straight-curve $-1 -77.397381511886948 3.329547749250402 0.72704960576166289 0 -1 0 I I #
point $-1 -77.397381511886948 10.158926712659346 0.727049605761664 #
point $-1 -64.98115902058548 6.659095498500804 1.7860278104956586 #
straight-curve $-1 -77.397381511886948 23.477117709660945 66.706029076220005 0 0 -1 I I #
point $-1 -77.397381511886948 23.477117709660945 12.251741526987395 #
straight-curve $-1 -77.397381511886948 9.9886432477512024 0.72704960576166289 0 -1 0 I I #
point $-1 -77.397381511886948 23.477117709660945 0.727049605761664 #
point $-1 -64.98115902058548 19.977286495502405 1.7860278104956586 #
straight-curve $-1 77.397381511886948 17.343292327866827 110.6348189134131 0 0 -1 I I #
point $-1 77.397381511886948 17.343292327866827 12.251741526987395 #
straight-curve $-1 77.397381511886948 12.574550722638637 5.682563248760836 0 1 0 I I #
point $-1 77.397381511886948 17.343292327866827 5.6825632487608573 #
point $-1 71.483988734073364 21.803754680672796 6.4369533847045908 #
point $-1 71.483988734073364 28.49444820988176 6.4369533847045908 #
straight-curve $-1 -77.397381511886948 -50.211548515184283 9.738764152533534 0 0 -1 I I #
straight-curve $-1 77.397381511886948 -50.211548515184283 9.738764152533534 0 0 -1 I I #
straight-curve $-1 0 50.211548515184276 12.251741526987393 -1 0 0 I I #
straight-curve $-1 -77.397381511886948 50.211548515184276 9.738764152533534 0 0 -1 I I #
point $-1 -77.397381511886948 50.211548515184276 12.251741526987393 #
End-of-ACIS-data 