500 0 9 0           
7 Unknown 11 ACIS 5.0 NT 24 Fri Mar 26 19:15:28 1999 
-1 9.9999999999999995e-007 1e-010 
body $-1 $9 $-1 $10 #
body $-1 $11 $-1 $12 #
body $-1 $13 $-1 $14 #
body $-1 $15 $-1 $16 #
body $-1 $17 $-1 $18 #
body $-1 $19 $-1 $20 #
body $-1 $21 $-1 $22 #
body $-1 $23 $-1 $24 #
body $-1 $25 $-1 $26 #
lump $-1 $-1 $27 $0 #
transform $-1 1 0 0 0 1 0 0 0 1 50.791344950712606 29.23102587394477 13.102354390648793 1 rotate no_reflect no_shear #
lump $-1 $-1 $28 $1 #
transform $-1 1 0 0 0 1 0 0 0 1 50.791344950712606 29.23102587394477 13.102354390648793 1 rotate no_reflect no_shear #
lump $-1 $-1 $29 $2 #
transform $-1 1 0 0 0 1 0 0 0 1 50.791344950712606 29.23102587394477 13.102354390648793 1 rotate no_reflect no_shear #
lump $-1 $-1 $30 $3 #
transform $-1 1 0 0 0 1 0 0 0 1 50.791344950712606 29.23102587394477 13.102354390648793 1 rotate no_reflect no_shear #
lump $-1 $-1 $31 $4 #
transform $-1 1 0 0 0 1 0 0 0 1 50.791344950712606 29.23102587394477 13.102354390648793 1 rotate no_reflect no_shear #
lump $-1 $-1 $32 $5 #
transform $-1 1 0 0 0 1 0 0 0 1 50.791344950712606 29.23102587394477 13.102354390648793 1 rotate no_reflect no_shear #
lump $-1 $-1 $33 $6 #
transform $-1 1 0 0 0 1 0 0 0 1 50.791344950712606 29.23102587394477 13.102354390648793 1 rotate no_reflect no_shear #
lump $-1 $-1 $34 $7 #
transform $-1 1 0 0 0 1 0 0 0 1 50.791344950712606 29.23102587394477 13.102354390648793 1 rotate no_reflect no_shear #
lump $-1 $-1 $35 $8 #
transform $-1 1 0 0 0 1 0 0 0 1 50.791344950712606 29.23102587394477 13.102354390648793 1 rotate no_reflect no_shear #
shell $-1 $-1 $-1 $36 $-1 $9 #
shell $-1 $-1 $-1 $37 $-1 $11 #
shell $-1 $-1 $-1 $38 $-1 $13 #
shell $-1 $-1 $-1 $39 $-1 $15 #
shell $-1 $-1 $-1 $40 $-1 $17 #
shell $-1 $-1 $-1 $41 $-1 $19 #
shell $-1 $-1 $-1 $42 $-1 $21 #
shell $-1 $-1 $-1 $43 $-1 $23 #
shell $-1 $-1 $-1 $44 $-1 $25 #
face $-1 $45 $46 $27 $-1 $47 reversed single #
face $-1 $48 $49 $28 $-1 $50 forward single #
face $-1 $51 $52 $29 $-1 $53 forward single #
face $-1 $54 $55 $30 $-1 $56 reversed single #
face $-1 $57 $58 $31 $-1 $59 forward single #
face $-1 $60 $61 $32 $-1 $62 forward single #
face $-1 $63 $64 $33 $-1 $65 reversed single #
face $-1 $66 $67 $34 $-1 $68 forward single #
face $-1 $69 $70 $35 $-1 $71 forward single #
face $-1 $72 $73 $27 $-1 $74 forward single #
loop $-1 $-1 $75 $36 #
plane-surface $-1 50.791344950712606 0 0 -1 0 0 0 0 1 forward_v I I I I #
face $-1 $76 $77 $28 $-1 $78 reversed single #
loop $-1 $-1 $79 $37 #
plane-surface $-1 -43.988525137354117 0 -5.5503008470901687 0 0 1 1 0 0 forward_v I I I I #
face $-1 $80 $81 $29 $-1 $82 reversed single #
loop $-1 $-1 $83 $38 #
plane-surface $-1 50.791344950712606 0 0 -1 0 0 0 0 1 forward_v I I I I #
face $-1 $84 $85 $30 $-1 $86 reversed single #
loop $-1 $-1 $87 $39 #
plane-surface $-1 -21.613144278492122 71.384243255272352 118.60285290999758 1 0 0 0 -0.77714596973225614 -0.62932038083071107 forward_v I I I I #
face $-1 $88 $89 $31 $-1 $90 forward single #
loop $-1 $91 $92 $40 #
cone-surface $-1 -16.832697598617031 26.322589699388576 10.082556606751151 0 -0.77714596973225614 -0.62932038083071107 1 0 0 1 I I 0 1 1 forward I I I I #
face $-1 $93 $94 $32 $-1 $95 forward single #
loop $-1 $96 $97 $41 #
cone-surface $-1 -9.6620275788043912 26.322589699388576 10.082556606751151 0 -0.77714596973225614 -0.62932038083071107 1 0 0 1 I I 0 1 1 forward I I I I #
face $-1 $98 $99 $33 $-1 $100 reversed single #
loop $-1 $-1 $101 $42 #
plane-surface $-1 -4.8815808989292933 -108.17560392539893 73.169305011846632 -1 0 0 0 -0.77714596973225614 0.62932038083071107 forward_v I I I I #
face $-1 $102 $103 $34 $-1 $104 forward single #
loop $-1 $105 $106 $43 #
cone-surface $-1 -16.832697598617031 -26.322589699388573 10.082556606751151 0 0.77714596973225614 -0.62932038083071107 1 0 0 1 I I 0 1 1 forward I I I I #
face $-1 $107 $108 $35 $-1 $109 forward single #
loop $-1 $110 $111 $44 #
cone-surface $-1 -9.6620275788043912 -26.322589699388573 10.082556606751151 0 0.77714596973225614 -0.62932038083071107 1 0 0 1 I I 0 1 1 forward I I I I #
face $-1 $112 $113 $27 $-1 $114 reversed single #
loop $-1 $-1 $115 $45 #
plane-surface $-1 0 0 13.102354390648793 0 0 1 1 0 0 forward_v I I I I #
coedge $-1 $116 $117 $118 $119 reversed $46 $-1 #
face $-1 $120 $121 $28 $-1 $122 reversed single #
loop $-1 $-1 $123 $48 #
plane-surface $-1 -43.988525137354117 0 -9.4226669590296517 0 0 1 1 0 0 forward_v I I I I #
coedge $-1 $124 $125 $126 $127 forward $49 $-1 #
face $-1 $128 $129 $29 $-1 $130 forward single #
loop $-1 $-1 $131 $51 #
plane-surface $-1 0 29.23102587394477 0 0 -1 0 0 0 -1 forward_v I I I I #
coedge $-1 $132 $133 $134 $135 forward $52 $-1 #
face $-1 $136 $137 $30 $-1 $138 reversed single #
loop $-1 $-1 $139 $54 #
plane-surface $-1 -13.247362588710708 -7.5603347961818059 54.674795815424638 0 0.77714596973225614 0.62932038083071107 1 0 0 forward_v I I I I #
coedge $-1 $140 $141 $142 $143 reversed $55 $-1 #
face $-1 $-1 $144 $31 $-1 $145 forward single #
loop $-1 $146 $147 $57 #
cone-surface $-1 -16.832697598617031 24.588911684236027 8.6786518691257069 0 -0.77714596973225614 -0.62932038083071107 0.5 0 0 1 I I -0.70710678118654746 0.70710678118654746 0.5 forward I I I I #
loop $-1 $-1 $148 $40 #
coedge $-1 $92 $92 $149 $150 reversed $58 $-1 #
face $-1 $-1 $151 $32 $-1 $152 forward single #
loop $-1 $153 $154 $60 #
cone-surface $-1 -9.6620275788043912 24.588911684236027 8.6786518691257069 0 -0.77714596973225614 -0.62932038083071107 0.5 0 0 1 I I -0.70710678118654746 0.70710678118654746 0.5 forward I I I I #
loop $-1 $-1 $155 $41 #
coedge $-1 $97 $97 $156 $157 reversed $61 $-1 #
face $-1 $158 $159 $33 $-1 $160 reversed single #
loop $-1 $-1 $161 $63 #
plane-surface $-1 -13.247362588710708 -29.231025873944773 9.2412479172736894 0 -0.77714596973225614 0.62932038083071107 1 0 0 forward_v I I I I #
coedge $-1 $162 $163 $164 $165 reversed $64 $-1 #
face $-1 $-1 $166 $34 $-1 $167 forward single #
loop $-1 $168 $169 $66 #
cone-surface $-1 -16.832697598617031 -24.588911684236024 8.6786518691257069 0 0.77714596973225614 -0.62932038083071107 0.5 0 0 1 I I -0.70710678118654746 0.70710678118654746 0.5 forward I I I I #
loop $-1 $-1 $170 $43 #
coedge $-1 $106 $106 $171 $172 reversed $67 $-1 #
face $-1 $-1 $173 $35 $-1 $174 forward single #
loop $-1 $175 $176 $69 #
cone-surface $-1 -9.6620275788043912 -24.588911684236024 8.6786518691257069 0 0.77714596973225614 -0.62932038083071107 0.5 0 0 1 I I -0.70710678118654746 0.70710678118654746 0.5 forward I I I I #
loop $-1 $-1 $177 $44 #
coedge $-1 $111 $111 $178 $179 reversed $70 $-1 #
face $-1 $180 $181 $27 $-1 $182 reversed single #
loop $-1 $-1 $183 $72 #
plane-surface $-1 0 0 -13.102354390648793 0 0 1 1 0 0 forward_v I I I I #
coedge $-1 $184 $185 $116 $186 forward $73 $-1 #
coedge $-1 $187 $75 $115 $186 reversed $46 $-1 #
coedge $-1 $75 $187 $183 $188 reversed $46 $-1 #
coedge $-1 $189 $190 $75 $119 forward $191 $-1 #
edge $-1 $192 -13.102354390648793 $193 13.102354390648793 $75 $194 forward 7 unknown #
face $-1 $195 $196 $28 $-1 $197 reversed single #
loop $-1 $-1 $198 $76 #
plane-surface $-1 -37.185705323995627 0 -7.4864839030599102 -1 0 0 0 0 1 forward_v I I I I #
coedge $-1 $199 $200 $201 $202 forward $77 $-1 #
coedge $-1 $203 $79 $204 $205 reversed $49 $-1 #
coedge $-1 $79 $203 $206 $207 reversed $49 $-1 #
coedge $-1 $198 $208 $79 $127 reversed $121 $-1 #
edge $-1 $209 -29.23102587394477 $210 29.23102587394477 $126 $211 forward 7 unknown #
face $-1 $212 $213 $29 $-1 $214 reversed single #
loop $-1 $-1 $215 $80 #
plane-surface $-1 55.688335409135753 0 -3.1814461566788435 0 0 1 1 0 0 forward_v I I I I #
coedge $-1 $216 $217 $133 $218 forward $81 $-1 #
coedge $-1 $219 $83 $220 $221 reversed $52 $-1 #
coedge $-1 $83 $219 $131 $218 reversed $52 $-1 #
coedge $-1 $222 $223 $83 $135 reversed $213 $-1 #
edge $-1 $224 -29.23102587394477 $225 29.23102587394477 $134 $226 forward 7 unknown #
face $-1 $227 $228 $30 $-1 $229 reversed single #
loop $-1 $-1 $230 $84 #
plane-surface $-1 -4.8815808989292933 71.384243255272352 118.60285290999758 -1 0 0 0 0.77714596973225614 0.62932038083071107 forward_v I I I I #
coedge $-1 $231 $232 $233 $234 reversed $85 $-1 #
coedge $-1 $141 $87 $235 $236 reversed $55 $-1 #
coedge $-1 $87 $140 $231 $237 reversed $55 $-1 #
coedge $-1 $233 $238 $87 $143 forward $239 $-1 #
edge $-1 $240 6.4610957536914064 $241 9.5877580422309521 $142 $242 forward 7 unknown #
loop $-1 $-1 $149 $88 #
plane-surface $-1 -13.247362588710708 -7.5603347961818059 54.674795815424638 0 0.77714596973225614 0.62932038083071107 1 0 0 forward_v I I I I #
loop $-1 $-1 $243 $57 #
coedge $-1 $147 $147 $148 $244 reversed $89 $-1 #
coedge $-1 $148 $148 $147 $244 forward $91 $-1 #
coedge $-1 $149 $149 $92 $150 forward $144 $-1 #
edge $-1 $245 -8.5530656677897454e-016 $245 6.2831853071795996 $149 $246 forward 7 unknown #
loop $-1 $-1 $156 $93 #
plane-surface $-1 -13.247362588710708 -7.5603347961818059 54.674795815424638 0 0.77714596973225614 0.62932038083071107 1 0 0 forward_v I I I I #
loop $-1 $-1 $247 $60 #
coedge $-1 $154 $154 $155 $248 reversed $94 $-1 #
coedge $-1 $155 $155 $154 $248 forward $96 $-1 #
coedge $-1 $156 $156 $97 $157 forward $151 $-1 #
edge $-1 $249 -8.5530656677897454e-016 $249 6.2831853071795996 $156 $250 forward 7 unknown #
face $-1 $251 $252 $33 $-1 $253 forward single #
loop $-1 $-1 $254 $98 #
plane-surface $-1 -21.613144278492122 -108.17560392539893 73.169305011846632 1 0 0 0 0.77714596973225614 -0.62932038083071107 forward_v I I I I #
coedge $-1 $255 $256 $257 $258 reversed $99 $-1 #
coedge $-1 $163 $101 $259 $260 reversed $64 $-1 #
coedge $-1 $101 $162 $255 $261 reversed $64 $-1 #
coedge $-1 $257 $262 $101 $165 forward $252 $-1 #
edge $-1 $263 24.856776088754696 $264 27.983438377294242 $164 $265 forward 7 unknown #
loop $-1 $-1 $171 $102 #
plane-surface $-1 -13.247362588710708 -29.231025873944773 9.2412479172736894 0 -0.77714596973225614 0.62932038083071107 1 0 0 forward_v I I I I #
loop $-1 $-1 $266 $66 #
coedge $-1 $169 $169 $170 $267 reversed $103 $-1 #
coedge $-1 $170 $170 $169 $267 forward $105 $-1 #
coedge $-1 $171 $171 $106 $172 forward $166 $-1 #
edge $-1 $268 -5.2518199176725898e-016 $268 6.2831853071795996 $171 $269 forward 7 unknown #
loop $-1 $-1 $178 $107 #
plane-surface $-1 -13.247362588710708 -29.231025873944773 9.2412479172736894 0 -0.77714596973225614 0.62932038083071107 1 0 0 forward_v I I I I #
loop $-1 $-1 $270 $69 #
coedge $-1 $176 $176 $177 $271 reversed $108 $-1 #
coedge $-1 $177 $177 $176 $271 forward $110 $-1 #
coedge $-1 $178 $178 $111 $179 forward $173 $-1 #
edge $-1 $272 -5.2518199176725898e-016 $272 6.2831853071795996 $178 $273 forward 7 unknown #
face $-1 $274 $275 $27 $-1 $276 reversed single #
loop $-1 $-1 $277 $112 #
plane-surface $-1 0 -29.23102587394477 0 0 1 0 0 0 1 forward_v I I I I #
coedge $-1 $278 $279 $117 $188 forward $113 $-1 #
coedge $-1 $280 $115 $190 $281 forward $73 $-1 #
coedge $-1 $115 $280 $282 $283 forward $73 $-1 #
edge $-1 $284 -29.23102587394477 $192 29.23102587394477 $116 $285 forward 7 unknown #
coedge $-1 $117 $116 $286 $287 forward $46 $-1 #
edge $-1 $193 -29.23102587394477 $288 29.23102587394477 $117 $289 forward 7 unknown #
coedge $-1 $290 $118 $279 $291 reversed $191 $-1 #
coedge $-1 $118 $290 $184 $281 reversed $191 $-1 #
loop $-1 $-1 $118 $274 #
vertex $-1 $186 $292 #
vertex $-1 $188 $293 #
straight-curve $-1 50.791344950712606 29.23102587394477 0 0 0 -1 I I #
face $-1 $294 $295 $28 $-1 $296 reversed single #
loop $-1 $-1 $297 $120 #
plane-surface $-1 0 -29.23102587394477 0 0 1 0 0 0 1 forward_v I I I I #
coedge $-1 $201 $126 $298 $299 reversed $121 $-1 #
coedge $-1 $300 $123 $297 $301 reversed $77 $-1 #
coedge $-1 $123 $300 $302 $303 reversed $77 $-1 #
coedge $-1 $208 $198 $123 $202 reversed $121 $-1 #
edge $-1 $304 -29.23102587394477 $305 29.23102587394477 $201 $306 forward 7 unknown #
coedge $-1 $125 $124 $307 $308 reversed $49 $-1 #
coedge $-1 $309 $310 $124 $205 forward $311 $-1 #
edge $-1 $312 -28.797082382035548 $210 -15.191442755318569 $204 $313 forward 7 unknown #
coedge $-1 $314 $298 $125 $207 forward $196 $-1 #
edge $-1 $209 15.191442755318569 $315 28.797082382035548 $206 $316 forward 7 unknown #
coedge $-1 $126 $201 $309 $317 reversed $121 $-1 #
vertex $-1 $207 $318 #
vertex $-1 $205 $319 #
straight-curve $-1 -37.185705323995627 0 -5.5503008470901687 0 1 0 I I #
face $-1 $320 $321 $29 $-1 $322 reversed single #
loop $-1 $-1 $323 $128 #
plane-surface $-1 55.688335409135753 0 -10.805179435319909 0 0 1 1 0 0 forward_v I I I I #
coedge $-1 $324 $325 $326 $327 forward $129 $-1 #
coedge $-1 $328 $131 $324 $329 reversed $81 $-1 #
coedge $-1 $131 $328 $222 $330 reversed $81 $-1 #
edge $-1 $224 -10.805179435319909 $331 -3.1814461566788435 $131 $332 forward 7 unknown #
coedge $-1 $133 $132 $333 $334 forward $52 $-1 #
coedge $-1 $335 $336 $132 $221 forward $337 $-1 #
edge $-1 $338 3.1814461566788435 $225 10.805179435319909 $220 $339 forward 7 unknown #
coedge $-1 $323 $134 $217 $330 forward $213 $-1 #
coedge $-1 $134 $323 $335 $340 forward $213 $-1 #
vertex $-1 $218 $341 #
vertex $-1 $221 $342 #
straight-curve $-1 50.791344950712606 0 -10.805179435319909 0 -1 0 I I #
face $-1 $-1 $239 $30 $-1 $343 forward single #
loop $-1 $-1 $344 $136 #
plane-surface $-1 0 29.23102587394477 0 0 -1 0 0 0 -1 forward_v I I I I #
coedge $-1 $345 $346 $347 $348 reversed $137 $-1 #
coedge $-1 $349 $139 $141 $237 forward $85 $-1 #
coedge $-1 $139 $349 $345 $350 forward $85 $-1 #
coedge $-1 $347 $142 $139 $234 forward $239 $-1 #
edge $-1 $241 -14.989462984136768 $351 1.7421003954260605 $233 $352 forward 7 unknown #
coedge $-1 $353 $354 $140 $236 forward $228 $-1 #
edge $-1 $355 -50.060178537725101 $240 -46.199072064349998 $235 $356 forward 7 unknown #
edge $-1 $241 53.493736111246214 $355 58.462051747889532 $141 $357 forward 7 unknown #
coedge $-1 $142 $347 $353 $358 forward $239 $-1 #
loop $-1 $-1 $347 $227 #
vertex $-1 $236 $359 #
vertex $-1 $143 $360 #
straight-curve $-1 -21.613144278492122 35.692121627636176 13.102354390648792 0 -1 0 I I #
coedge $-1 $243 $243 $-1 $361 reversed $146 $-1 #
edge $-1 $362 0 $362 6.2831853071796004 $147 $363 forward 7 unknown #
vertex $-1 $150 $364 #
ellipse-curve $-1 -16.832697598617031 27.667694729675002 11.171801153961241 0 0.77714596973225614 0.62932038083071107 1 0 0 1 I I #
coedge $-1 $247 $247 $-1 $365 reversed $153 $-1 #
edge $-1 $366 0 $366 6.2831853071796004 $154 $367 forward 7 unknown #
vertex $-1 $157 $368 #
ellipse-curve $-1 -9.6620275788043912 27.667694729675002 11.171801153961241 0 0.77714596973225614 0.62932038083071107 1 0 0 1 I I #
face $-1 $-1 $369 $33 $-1 $370 reversed single #
loop $-1 $-1 $164 $158 #
plane-surface $-1 0 0 13.102354390648793 0 0 1 1 0 0 forward_v I I I I #
coedge $-1 $371 $372 $373 $374 reversed $159 $-1 #
coedge $-1 $375 $161 $163 $261 forward $99 $-1 #
coedge $-1 $161 $375 $371 $376 forward $99 $-1 #
coedge $-1 $373 $164 $161 $258 forward $252 $-1 #
edge $-1 $264 -1.7421003954260605 $377 14.989462984136768 $257 $378 forward 7 unknown #
coedge $-1 $379 $380 $162 $260 forward $369 $-1 #
edge $-1 $381 -27.343404588649623 $263 -23.482298115274524 $259 $382 forward 7 unknown #
edge $-1 $264 -4.968315636643319 $381 -4.9967722424176738e-015 $163 $383 forward 7 unknown #
coedge $-1 $164 $373 $379 $384 forward $252 $-1 #
vertex $-1 $165 $385 #
vertex $-1 $165 $386 #
straight-curve $-1 -4.8815808989292933 -54.087801962699466 13.102354390648792 0 1 0 I I #
coedge $-1 $266 $266 $-1 $387 reversed $168 $-1 #
edge $-1 $388 0 $388 6.2831853071796004 $169 $389 forward 7 unknown #
vertex $-1 $172 $390 #
ellipse-curve $-1 -16.832697598617031 -27.667694729674999 11.171801153961242 0 -0.77714596973225614 0.62932038083071107 1 0 0 1 I I #
coedge $-1 $270 $270 $-1 $391 reversed $175 $-1 #
edge $-1 $392 0 $392 6.2831853071796004 $176 $393 forward 7 unknown #
vertex $-1 $179 $394 #
ellipse-curve $-1 -9.6620275788043912 -27.667694729674999 11.171801153961242 0 -0.77714596973225614 0.62932038083071107 1 0 0 1 I I #
face $-1 $-1 $191 $27 $-1 $395 reversed single #
loop $-1 $-1 $396 $180 #
plane-surface $-1 -50.791344950712606 0 0 1 0 0 0 0 -1 forward_v I I I I #
coedge $-1 $397 $282 $398 $399 forward $181 $-1 #
coedge $-1 $400 $183 $397 $401 forward $113 $-1 #
coedge $-1 $183 $400 $189 $291 forward $113 $-1 #
coedge $-1 $185 $184 $402 $403 forward $73 $-1 #
edge $-1 $192 -50.791344950712606 $404 50.791344950712606 $190 $405 forward 7 unknown #
coedge $-1 $277 $286 $185 $283 reversed $181 $-1 #
edge $-1 $406 -50.791344950712606 $284 50.791344950712606 $282 $407 forward 7 unknown #
vertex $-1 $186 $408 #
straight-curve $-1 50.791344950712606 0 13.102354390648793 0 1 0 I I #
coedge $-1 $282 $397 $187 $287 reversed $181 $-1 #
edge $-1 $284 -13.102354390648793 $288 13.102354390648793 $187 $409 forward 7 unknown #
vertex $-1 $287 $410 #
straight-curve $-1 50.791344950712606 0 -13.102354390648793 0 -1 0 I I #
coedge $-1 $190 $189 $396 $411 reversed $191 $-1 #
edge $-1 $412 -50.791344950712606 $193 50.791344950712606 $189 $413 forward 7 unknown #
point $-1 50.791344950712606 29.23102587394477 13.102354390648793 #
point $-1 50.791344950712606 29.23102587394477 -13.102354390648793 #
face $-1 $-1 $311 $28 $-1 $414 reversed single #
loop $-1 $-1 $415 $195 #
plane-surface $-1 -50.791344950712606 0 0 1 0 0 0 0 -1 forward_v I I I I #
coedge $-1 $298 $314 $199 $301 forward $196 $-1 #
coedge $-1 $206 $297 $198 $299 forward $196 $-1 #
edge $-1 $305 -5.679425007499697 $209 -1.8070588955602136 $298 $416 forward 7 unknown #
coedge $-1 $200 $199 $415 $417 reversed $77 $-1 #
edge $-1 $418 -28.797082382035548 $305 -15.191442755318569 $297 $419 forward 7 unknown #
coedge $-1 $310 $309 $200 $303 forward $311 $-1 #
edge $-1 $304 15.191442755318569 $420 28.797082382035548 $302 $421 forward 7 unknown #
vertex $-1 $303 $422 #
vertex $-1 $301 $423 #
straight-curve $-1 -37.185705323995627 0 -9.4226669590296517 0 -1 0 I I #
coedge $-1 $424 $425 $203 $308 forward $295 $-1 #
edge $-1 $315 -29.23102587394477 $312 29.23102587394477 $307 $426 forward 7 unknown #
coedge $-1 $302 $204 $208 $317 forward $311 $-1 #
coedge $-1 $204 $302 $424 $427 reversed $311 $-1 #
loop $-1 $-1 $302 $294 #
vertex $-1 $427 $428 #
straight-curve $-1 -21.994262568677058 29.23102587394477 -5.5503008470901687 1 0 0 I I #
coedge $-1 $297 $206 $425 $429 forward $196 $-1 #
vertex $-1 $429 $430 #
straight-curve $-1 -21.994262568677058 -29.23102587394477 -5.5503008470901687 -1 0 0 I I #
edge $-1 $210 1.8070588955602136 $304 5.679425007499697 $309 $431 forward 7 unknown #
point $-1 -37.185705323995627 -29.23102587394477 -5.5503008470901687 #
point $-1 -37.185705323995627 29.23102587394477 -5.5503008470901687 #
face $-1 $-1 $337 $29 $-1 $432 reversed single #
loop $-1 $-1 $433 $212 #
plane-surface $-1 60.5853258675589 0 -6.9933127959993762 -1 0 0 0 0 1 forward_v I I I I #
coedge $-1 $223 $222 $434 $435 forward $213 $-1 #
coedge $-1 $333 $215 $216 $329 forward $129 $-1 #
coedge $-1 $215 $333 $336 $436 forward $129 $-1 #
coedge $-1 $433 $437 $215 $327 reversed $321 $-1 #
edge $-1 $438 -29.23102587394477 $439 29.23102587394477 $326 $440 forward 7 unknown #
coedge $-1 $217 $216 $437 $441 forward $81 $-1 #
edge $-1 $439 -4.8969904584231472 $331 4.8969904584231472 $216 $442 forward 7 unknown #
edge $-1 $224 -4.8969904584231472 $443 4.8969904584231472 $217 $444 forward 7 unknown #
vertex $-1 $329 $445 #
straight-curve $-1 50.791344950712606 29.23102587394477 0 0 0 1 I I #
coedge $-1 $325 $324 $219 $334 reversed $129 $-1 #
edge $-1 $338 -29.23102587394477 $331 29.23102587394477 $333 $446 forward 7 unknown #
coedge $-1 $447 $220 $223 $340 reversed $337 $-1 #
coedge $-1 $220 $447 $325 $436 reversed $337 $-1 #
loop $-1 $-1 $220 $320 #
vertex $-1 $221 $448 #
straight-curve $-1 50.791344950712606 -29.23102587394477 0 0 0 -1 I I #
edge $-1 $449 -4.8969904584231472 $225 4.8969904584231472 $335 $450 forward 7 unknown #
point $-1 50.791344950712606 29.23102587394477 -10.805179435319909 #
point $-1 50.791344950712606 -29.23102587394477 -10.805179435319909 #
plane-surface $-1 0 0 13.102354390648793 0 0 1 1 0 0 forward_v I I I I #
coedge $-1 $354 $353 $346 $451 forward $228 $-1 #
coedge $-1 $346 $230 $232 $350 reversed $137 $-1 #
coedge $-1 $230 $345 $344 $451 reversed $137 $-1 #
coedge $-1 $238 $233 $230 $348 forward $239 $-1 #
edge $-1 $351 -9.5877580422309521 $452 -6.4610957536914064 $347 $453 forward 7 unknown #
coedge $-1 $232 $231 $354 $454 reversed $85 $-1 #
edge $-1 $455 -58.462051747889532 $351 -53.493736111246214 $345 $456 forward 7 unknown #
vertex $-1 $234 $457 #
straight-curve $-1 -6.6236812943553538 26.104363585405221 13.102354390648792 1 0 0 I I #
coedge $-1 $344 $235 $238 $358 reversed $228 $-1 #
coedge $-1 $235 $344 $349 $454 forward $228 $-1 #
vertex $-1 $236 $458 #
straight-curve $-1 -21.613144278492122 29.23102587394477 59.30142645499879 0 0 1 I I #
straight-curve $-1 -21.613144278492122 -7.5603347961818059 54.674795815424638 0 0.62932038083071107 -0.77714596973225614 I I #
edge $-1 $452 4.8815808989292933 $240 21.613144278492122 $353 $459 forward 7 unknown #
point $-1 -21.613144278492122 29.23102587394477 13.102354390648793 #
point $-1 -21.613144278492122 26.104363585405224 13.102354390648792 #
edge $-1 $460 1 $460 0 $243 $-1 forward 7 unknown #
vertex $-1 $244 $461 #
ellipse-curve $-1 -16.832697598617031 24.977484669102154 8.9933120595410632 0 0.77714596973225614 0.62932038083071107 1 0 0 1 I I #
point $-1 -15.832697598617031 27.667694729674999 11.171801153961239 #
edge $-1 $462 1 $462 0 $247 $-1 forward 7 unknown #
vertex $-1 $248 $463 #
ellipse-curve $-1 -9.6620275788043912 24.977484669102154 8.9933120595410632 0 0.77714596973225614 0.62932038083071107 1 0 0 1 I I #
point $-1 -8.6620275788043912 27.667694729674999 11.171801153961239 #
loop $-1 $-1 $259 $251 #
plane-surface $-1 0 -29.23102587394477 0 0 1 0 0 0 1 forward_v I I I I #
coedge $-1 $372 $254 $256 $376 reversed $159 $-1 #
coedge $-1 $254 $371 $464 $465 reversed $159 $-1 #
coedge $-1 $262 $257 $254 $374 forward $252 $-1 #
edge $-1 $377 -27.983438377294242 $466 -24.856776088754696 $373 $467 forward 7 unknown #
coedge $-1 $256 $255 $380 $468 reversed $99 $-1 #
edge $-1 $469 4.9967722424176738e-015 $377 4.968315636643319 $371 $470 forward 7 unknown #
vertex $-1 $258 $471 #
straight-curve $-1 -6.6236812943553538 -26.104363585405224 13.102354390648793 -1 0 0 I I #
coedge $-1 $464 $259 $262 $384 reversed $369 $-1 #
coedge $-1 $259 $464 $375 $468 forward $369 $-1 #
vertex $-1 $260 $472 #
straight-curve $-1 -4.8815808989292933 -29.231025873944773 36.584652505923316 0 0 1 I I #
straight-curve $-1 -4.8815808989292933 -29.231025873944773 9.2412479172736894 0 -0.62932038083071107 -0.77714596973225614 I I #
edge $-1 $466 -21.613144278492122 $263 -4.8815808989292933 $379 $473 forward 7 unknown #
point $-1 -4.8815808989292933 -29.23102587394477 13.102354390648793 #
point $-1 -4.8815808989292933 -26.104363585405224 13.102354390648793 #
edge $-1 $474 1 $474 0 $266 $-1 forward 7 unknown #
vertex $-1 $267 $475 #
ellipse-curve $-1 -16.832697598617031 -24.97748466910215 8.9933120595410632 0 -0.77714596973225614 0.62932038083071107 1 0 0 1 I I #
point $-1 -15.832697598617031 -27.667694729674995 11.171801153961239 #
edge $-1 $476 1 $476 0 $270 $-1 forward 7 unknown #
vertex $-1 $271 $477 #
ellipse-curve $-1 -9.6620275788043912 -24.97748466910215 8.9933120595410632 0 -0.77714596973225614 0.62932038083071107 1 0 0 1 I I #
point $-1 -8.6620275788043912 -27.667694729674995 11.171801153961239 #
plane-surface $-1 0 29.23102587394477 0 0 -1 0 0 0 -1 forward_v I I I I #
coedge $-1 $478 $402 $290 $411 forward $275 $-1 #
coedge $-1 $286 $277 $278 $401 reversed $181 $-1 #
coedge $-1 $402 $478 $277 $399 reversed $275 $-1 #
edge $-1 $406 -13.102354390648793 $479 13.102354390648793 $398 $480 forward 7 unknown #
coedge $-1 $279 $278 $478 $481 forward $113 $-1 #
edge $-1 $288 -50.791344950712606 $479 50.791344950712606 $397 $482 forward 7 unknown #
coedge $-1 $396 $398 $280 $403 reversed $275 $-1 #
edge $-1 $404 -29.23102587394477 $406 29.23102587394477 $402 $483 forward 7 unknown #
vertex $-1 $281 $484 #
straight-curve $-1 0 29.23102587394477 13.102354390648793 -1 0 0 I I #
vertex $-1 $403 $485 #
straight-curve $-1 0 -29.23102587394477 13.102354390648793 1 0 0 I I #
point $-1 50.791344950712606 -29.23102587394477 13.102354390648793 #
straight-curve $-1 50.791344950712606 -29.23102587394477 0 0 0 -1 I I #
point $-1 50.791344950712606 -29.23102587394477 -13.102354390648793 #
edge $-1 $404 -13.102354390648793 $412 13.102354390648793 $290 $486 forward 7 unknown #
vertex $-1 $291 $487 #
straight-curve $-1 0 29.23102587394477 -13.102354390648793 1 0 0 I I #
plane-surface $-1 0 29.23102587394477 0 0 -1 0 0 0 -1 forward_v I I I I #
coedge $-1 $425 $424 $300 $417 forward $295 $-1 #
straight-curve $-1 -37.185705323995627 -29.23102587394477 -3.7432419515299551 0 0 1 I I #
edge $-1 $420 -29.23102587394477 $418 29.23102587394477 $415 $488 forward 7 unknown #
vertex $-1 $301 $489 #
straight-curve $-1 -21.994262568677058 -29.23102587394477 -9.4226669590296517 1 0 0 I I #
vertex $-1 $303 $490 #
straight-curve $-1 -21.994262568677058 29.23102587394477 -9.4226669590296517 -1 0 0 I I #
point $-1 -37.185705323995627 29.23102587394477 -9.4226669590296517 #
point $-1 -37.185705323995627 -29.23102587394477 -9.4226669590296517 #
coedge $-1 $415 $307 $310 $427 forward $295 $-1 #
coedge $-1 $307 $415 $314 $429 reversed $295 $-1 #
straight-curve $-1 -50.791344950712606 0 -5.5503008470901687 0 1 0 I I #
edge $-1 $312 5.5503008470901687 $420 9.4226669590296517 $310 $491 forward 7 unknown #
point $-1 -50.791344950712606 29.23102587394477 -5.5503008470901687 #
edge $-1 $315 5.5503008470901687 $418 9.4226669590296517 $425 $492 forward 7 unknown #
point $-1 -50.791344950712606 -29.23102587394477 -5.5503008470901687 #
straight-curve $-1 -37.185705323995627 29.23102587394477 -3.7432419515299551 0 0 -1 I I #
plane-surface $-1 0 -29.23102587394477 0 0 1 0 0 0 1 forward_v I I I I #
coedge $-1 $434 $326 $447 $493 forward $321 $-1 #
coedge $-1 $437 $433 $323 $435 reversed $321 $-1 #
edge $-1 $443 -29.23102587394477 $449 29.23102587394477 $434 $494 forward 7 unknown #
edge $-1 $338 -4.8969904584231472 $438 4.8969904584231472 $336 $495 forward 7 unknown #
coedge $-1 $326 $434 $328 $441 reversed $321 $-1 #
vertex $-1 $327 $496 #
vertex $-1 $327 $497 #
straight-curve $-1 60.5853258675589 0 -3.1814461566788435 0 1 0 I I #
edge $-1 $439 -3.8118666393205327 $443 3.8118666393205327 $437 $498 forward 7 unknown #
straight-curve $-1 55.688335409135753 29.23102587394477 -3.1814461566788435 -1 0 0 I I #
vertex $-1 $435 $499 #
straight-curve $-1 55.688335409135753 29.23102587394477 -10.805179435319909 1 0 0 I I #
point $-1 50.791344950712606 29.23102587394477 -3.1814461566788435 #
straight-curve $-1 50.791344950712606 0 -3.1814461566788435 0 1 0 I I #
coedge $-1 $336 $335 $433 $493 reversed $337 $-1 #
point $-1 50.791344950712606 -29.23102587394477 -3.1814461566788435 #
vertex $-1 $493 $500 #
straight-curve $-1 55.688335409135753 -29.23102587394477 -10.805179435319909 -1 0 0 I I #
edge $-1 $452 46.199072064349998 $455 50.060178537725101 $344 $501 forward 7 unknown #
vertex $-1 $358 $502 #
straight-curve $-1 -4.8815808989292933 35.692121627636176 13.102354390648792 0 1 0 I I #
edge $-1 $455 -1.7421003954260605 $355 14.989462984136768 $354 $503 forward 7 unknown #
vertex $-1 $454 $504 #
straight-curve $-1 -4.8815808989292933 -7.5603347961818059 54.674795815424638 0 -0.62932038083071107 0.77714596973225614 I I #
point $-1 -4.8815808989292933 26.104363585405224 13.102354390648792 #
point $-1 -21.613144278492122 29.231025873944773 9.2412479172736894 #
straight-curve $-1 0 29.23102587394477 13.102354390648793 -1 0 0 I I #
vertex $-1 $361 $505 #
point $-1 -15.832697598617031 24.977484669102154 8.9933120595410632 #
vertex $-1 $365 $506 #
point $-1 -8.6620275788043912 24.977484669102154 8.9933120595410632 #
coedge $-1 $380 $379 $372 $465 forward $369 $-1 #
edge $-1 $466 23.482298115274524 $469 27.343404588649623 $464 $507 forward 7 unknown #
vertex $-1 $384 $508 #
straight-curve $-1 -21.613144278492122 -54.087801962699466 13.102354390648792 0 -1 0 I I #
edge $-1 $469 -14.989462984136768 $381 1.7421003954260605 $380 $509 forward 7 unknown #
vertex $-1 $468 $510 #
straight-curve $-1 -21.613144278492122 -29.231025873944773 9.2412479172736894 0 0.62932038083071107 0.77714596973225614 I I #
point $-1 -21.613144278492122 -26.104363585405224 13.102354390648793 #
point $-1 -4.8815808989292933 -29.23102587394477 9.241247917273693 #
straight-curve $-1 0 -29.23102587394477 13.102354390648793 1 0 0 I I #
vertex $-1 $387 $511 #
point $-1 -15.832697598617031 -24.97748466910215 8.9933120595410632 #
vertex $-1 $391 $512 #
point $-1 -8.6620275788043912 -24.97748466910215 8.9933120595410632 #
coedge $-1 $398 $396 $400 $481 reversed $275 $-1 #
vertex $-1 $481 $513 #
straight-curve $-1 -50.791344950712606 -29.23102587394477 0 0 0 -1 I I #
edge $-1 $479 -29.23102587394477 $412 29.23102587394477 $478 $514 forward 7 unknown #
straight-curve $-1 0 -29.23102587394477 -13.102354390648793 -1 0 0 I I #
straight-curve $-1 -50.791344950712606 0 13.102354390648793 0 -1 0 I I #
point $-1 -50.791344950712606 29.23102587394477 13.102354390648793 #
point $-1 -50.791344950712606 -29.23102587394477 13.102354390648793 #
straight-curve $-1 -50.791344950712606 29.23102587394477 0 0 0 -1 I I #
point $-1 -50.791344950712606 29.23102587394477 -13.102354390648793 #
straight-curve $-1 -50.791344950712606 0 -9.4226669590296517 0 -1 0 I I #
point $-1 -50.791344950712606 -29.23102587394477 -9.4226669590296517 #
point $-1 -50.791344950712606 29.23102587394477 -9.4226669590296517 #
straight-curve $-1 -50.791344950712606 29.23102587394477 0 0 0 -1 I I #
straight-curve $-1 -50.791344950712606 -29.23102587394477 0 0 0 -1 I I #
edge $-1 $438 -3.8118666393205327 $449 3.8118666393205327 $433 $515 forward 7 unknown #
straight-curve $-1 60.5853258675589 0 -10.805179435319909 0 -1 0 I I #
straight-curve $-1 55.688335409135753 -29.23102587394477 -3.1814461566788435 1 0 0 I I #
point $-1 60.5853258675589 -29.23102587394477 -3.1814461566788435 #
point $-1 60.5853258675589 29.23102587394477 -3.1814461566788435 #
straight-curve $-1 60.5853258675589 29.23102587394477 -6.9933127959993762 0 0 -1 I I #
point $-1 60.5853258675589 29.23102587394477 -10.805179435319909 #
point $-1 60.5853258675589 -29.23102587394477 -10.805179435319909 #
straight-curve $-1 -4.8815808989292933 29.23102587394477 59.30142645499879 0 0 -1 I I #
point $-1 -4.8815808989292933 29.23102587394477 13.102354390648793 #
straight-curve $-1 -6.6236812943553538 29.23102587394477 9.2412479172736894 -1 0 0 I I #
point $-1 -4.8815808989292933 29.231025873944773 9.2412479172736894 #
point $-1 -16.832697598617031 24.200338699369901 8.3639916787103505 #
point $-1 -9.6620275788043912 24.200338699369901 8.3639916787103505 #
straight-curve $-1 -21.613144278492122 -29.231025873944773 36.584652505923316 0 0 -1 I I #
point $-1 -21.613144278492122 -29.23102587394477 13.102354390648793 #
straight-curve $-1 -6.6236812943553538 -29.23102587394477 9.2412479172736948 1 0 0 I I #
point $-1 -21.613144278492122 -29.23102587394477 9.241247917273693 #
point $-1 -16.832697598617031 -24.200338699369897 8.3639916787103505 #
point $-1 -9.6620275788043912 -24.200338699369897 8.3639916787103505 #
point $-1 -50.791344950712606 -29.23102587394477 -13.102354390648793 #
straight-curve $-1 -50.791344950712606 0 -13.102354390648793 0 1 0 I I #
straight-curve $-1 60.5853258675589 -29.23102587394477 -6.9933127959993762 0 0 -1 I I #
End-of-ACIS-data 