500 0 13 0           
7 Unknown 11 ACIS 5.0 NT 24 Thu Mar 25 17:37:18 1999 
-1 9.9999999999999995e-007 1e-010 
body $-1 $13 $-1 $14 #
body $-1 $15 $-1 $16 #
body $-1 $17 $-1 $18 #
body $-1 $19 $-1 $20 #
body $-1 $21 $-1 $22 #
body $-1 $23 $-1 $24 #
body $-1 $25 $-1 $26 #
body $-1 $27 $-1 $28 #
body $-1 $29 $-1 $30 #
body $-1 $31 $-1 $32 #
body $-1 $33 $-1 $34 #
body $-1 $35 $-1 $36 #
body $-1 $37 $-1 $38 #
lump $-1 $-1 $39 $0 #
transform $-1 1 0 0 0 1 0 0 0 1 70.414746543778804 29.854331075760584 11.550410820238032 1 rotate no_reflect no_shear #
lump $-1 $-1 $40 $1 #
transform $-1 1 0 0 0 1 0 0 0 1 70.414746543778804 29.854331075760584 11.550410820238032 1 rotate no_reflect no_shear #
lump $-1 $-1 $41 $2 #
transform $-1 1 0 0 0 1 0 0 0 1 70.414746543778804 29.854331075760584 11.550410820238032 1 rotate no_reflect no_shear #
lump $-1 $-1 $42 $3 #
transform $-1 1 0 0 0 1 0 0 0 1 70.414746543778804 29.854331075760584 11.550410820238032 1 rotate no_reflect no_shear #
lump $-1 $-1 $43 $4 #
transform $-1 1 0 0 0 1 0 0 0 1 70.414746543778804 29.854331075760584 11.550410820238032 1 rotate no_reflect no_shear #
lump $-1 $-1 $44 $5 #
transform $-1 1 0 0 0 1 0 0 0 1 70.414746543778804 29.854331075760584 11.550410820238032 1 rotate no_reflect no_shear #
lump $-1 $-1 $45 $6 #
transform $-1 1 0 0 0 1 0 0 0 1 70.414746543778804 29.854331075760584 11.550410820238032 1 rotate no_reflect no_shear #
lump $-1 $-1 $46 $7 #
transform $-1 1 0 0 0 1 0 0 0 1 70.414746543778804 29.854331075760584 11.550410820238032 1 rotate no_reflect no_shear #
lump $-1 $-1 $47 $8 #
transform $-1 1 0 0 0 1 0 0 0 1 70.414746543778804 29.854331075760584 11.550410820238032 1 rotate no_reflect no_shear #
lump $-1 $-1 $48 $9 #
transform $-1 1 0 0 0 1 0 0 0 1 70.414746543778804 29.854331075760584 11.550410820238032 1 rotate no_reflect no_shear #
lump $-1 $-1 $49 $10 #
transform $-1 1 0 0 0 1 0 0 0 1 70.414746543778804 29.854331075760584 11.550410820238032 1 rotate no_reflect no_shear #
lump $-1 $-1 $50 $11 #
transform $-1 1 0 0 0 1 0 0 0 1 70.414746543778804 29.854331075760584 11.550410820238032 1 rotate no_reflect no_shear #
lump $-1 $-1 $51 $12 #
transform $-1 1 0 0 0 1 0 0 0 1 70.414746543778804 29.854331075760584 11.550410820238032 1 rotate no_reflect no_shear #
shell $-1 $-1 $-1 $52 $-1 $13 #
shell $-1 $-1 $-1 $53 $-1 $15 #
shell $-1 $-1 $-1 $54 $-1 $17 #
shell $-1 $-1 $-1 $55 $-1 $19 #
shell $-1 $-1 $-1 $56 $-1 $21 #
shell $-1 $-1 $-1 $57 $-1 $23 #
shell $-1 $-1 $-1 $58 $-1 $25 #
shell $-1 $-1 $-1 $59 $-1 $27 #
shell $-1 $-1 $-1 $60 $-1 $29 #
shell $-1 $-1 $-1 $61 $-1 $31 #
shell $-1 $-1 $-1 $62 $-1 $33 #
shell $-1 $-1 $-1 $63 $-1 $35 #
shell $-1 $-1 $-1 $64 $-1 $37 #
face $-1 $65 $66 $39 $-1 $67 forward single #
face $-1 $68 $69 $40 $-1 $70 forward single #
face $-1 $71 $72 $41 $-1 $73 forward single #
face $-1 $74 $75 $42 $-1 $76 reversed single #
face $-1 $77 $78 $43 $-1 $79 forward single #
face $-1 $80 $81 $44 $-1 $82 forward single #
face $-1 $83 $84 $45 $-1 $85 reversed single #
face $-1 $86 $87 $46 $-1 $88 forward single #
face $-1 $89 $90 $47 $-1 $91 forward single #
face $-1 $92 $93 $48 $-1 $94 reversed single #
face $-1 $95 $96 $49 $-1 $97 forward single #
face $-1 $98 $99 $50 $-1 $100 forward single #
face $-1 $101 $102 $51 $-1 $103 forward single #
face $-1 $104 $105 $39 $-1 $106 reversed single #
loop $-1 $-1 $107 $52 #
plane-surface $-1 0 0 11.550410820238032 0 0 1 1 0 0 forward_v I I I I #
face $-1 $108 $109 $40 $-1 $110 reversed single #
loop $-1 $-1 $111 $53 #
plane-surface $-1 -64.816584922668994 0 -3.6445750229587173 0 0 1 1 0 0 forward_v I I I I #
face $-1 $112 $113 $41 $-1 $114 reversed single #
loop $-1 $-1 $115 $54 #
plane-surface $-1 64.81658492266898 0 -3.6445750229587173 0 0 1 1 0 0 forward_v I I I I #
face $-1 $116 $117 $42 $-1 $118 reversed single #
loop $-1 $-1 $119 $55 #
plane-surface $-1 -19.698740559010858 -140.8294872162046 90.402198620625413 1 0 0 0 0.78801076186113728 -0.61566146476048833 forward_v I I I I #
face $-1 $120 $121 $43 $-1 $122 forward single #
loop $-1 $123 $124 $56 #
cone-surface $-1 -14.802000791619918 -25.2616425954742 6.4327646569412167 0 0.78801076186113728 -0.61566146476048833 1 0 0 1 I I 0 1 1 forward I I I I #
face $-1 $125 $126 $44 $-1 $127 forward single #
loop $-1 $128 $129 $57 #
cone-surface $-1 -7.4568911405335072 -25.2616425954742 6.4327646569412167 0 0.78801076186113728 -0.61566146476048833 1 0 0 1 I I 0 1 1 forward I I I I #
face $-1 $130 $131 $45 $-1 $132 reversed single #
loop $-1 $-1 $133 $58 #
plane-surface $-1 39.519682742548326 -140.8294872162046 90.402198620625413 1 0 0 0 0.78801076186113728 -0.61566146476048833 forward_v I I I I #
face $-1 $134 $135 $46 $-1 $136 forward single #
loop $-1 $137 $138 $59 #
cone-surface $-1 44.416422509939267 -25.2616425954742 6.4327646569412167 0 0.78801076186113728 -0.61566146476048833 1 0 0 1 I I 0 1 1 forward I I I I #
face $-1 $139 $140 $47 $-1 $141 forward single #
loop $-1 $142 $143 $60 #
cone-surface $-1 51.76153216102567 -25.2616425954742 6.4327646569412167 0 0.78801076186113728 -0.61566146476048833 1 0 0 1 I I 0 1 1 forward I I I I #
face $-1 $144 $145 $48 $-1 $146 reversed single #
loop $-1 $-1 $147 $61 #
plane-surface $-1 -3.1306866421340835 117.64374612890437 131.94846475801103 -1 0 0 0 0.84804810408105047 0.52991925155115449 forward_v I I I I #
face $-1 $148 $149 $49 $-1 $150 forward single #
loop $-1 $151 $152 $62 #
cone-surface $-1 -30.083698901354062 27.454535913574258 8.5678385696704797 0 -0.84804810408105047 -0.52991925155115449 1 0 0 1 I I 0 1 1 forward I I I I #
face $-1 $153 $154 $50 $-1 $155 forward single #
loop $-1 $156 $157 $63 #
cone-surface $-1 -19.976319304146571 27.454535913574258 8.5678385696704797 0 -0.84804810408105047 -0.52991925155115449 1 0 0 1 I I 0 1 1 forward I I I I #
face $-1 $158 $159 $51 $-1 $160 forward single #
loop $-1 $161 $162 $64 #
cone-surface $-1 -9.8689397069390736 27.454535913574258 8.5678385696704797 0 -0.84804810408105047 -0.52991925155115449 1 0 0 1 I I 0 1 1 forward I I I I #
face $-1 $163 $164 $39 $-1 $165 reversed single #
loop $-1 $-1 $166 $65 #
plane-surface $-1 0 0 -11.550410820238032 0 0 1 1 0 0 forward_v I I I I #
coedge $-1 $167 $168 $169 $170 forward $66 $-1 #
face $-1 $171 $172 $40 $-1 $173 reversed single #
loop $-1 $-1 $174 $68 #
plane-surface $-1 -64.816584922668994 0 -8.1311413499897434 0 0 1 1 0 0 forward_v I I I I #
coedge $-1 $175 $176 $177 $178 forward $69 $-1 #
face $-1 $179 $180 $41 $-1 $181 reversed single #
loop $-1 $-1 $182 $71 #
plane-surface $-1 64.81658492266898 0 -8.1311413499897434 0 0 1 1 0 0 forward_v I I I I #
coedge $-1 $183 $184 $185 $186 reversed $72 $-1 #
face $-1 $187 $188 $42 $-1 $189 reversed single #
loop $-1 $-1 $190 $74 #
plane-surface $-1 -11.129445966076716 -29.854331075760555 3.6989066248626301 0 -0.78801076186113728 0.61566146476048833 1 0 0 forward_v I I I I #
coedge $-1 $191 $192 $193 $194 reversed $75 $-1 #
face $-1 $-1 $195 $43 $-1 $196 forward single #
loop $-1 $197 $198 $77 #
cone-surface $-1 -14.802000791619918 -23.3420823366469 4.9330398589518545 0 0.78801076186113728 -0.61566146476048833 0.5 0 0 1 I I -0.70710678118654746 0.70710678118654746 0.5 forward I I I I #
loop $-1 $-1 $199 $56 #
coedge $-1 $124 $124 $200 $201 reversed $78 $-1 #
face $-1 $-1 $202 $44 $-1 $203 forward single #
loop $-1 $204 $205 $80 #
cone-surface $-1 -7.4568911405335072 -23.3420823366469 4.9330398589518545 0 0.78801076186113728 -0.61566146476048833 0.5 0 0 1 I I -0.70710678118654746 0.70710678118654746 0.5 forward I I I I #
loop $-1 $-1 $206 $57 #
coedge $-1 $129 $129 $207 $208 reversed $81 $-1 #
face $-1 $209 $210 $45 $-1 $211 reversed single #
loop $-1 $-1 $212 $83 #
plane-surface $-1 48.088977335482468 -29.854331075760555 3.6989066248626301 0 -0.78801076186113728 0.61566146476048833 1 0 0 forward_v I I I I #
coedge $-1 $213 $214 $215 $216 reversed $84 $-1 #
face $-1 $-1 $217 $46 $-1 $218 forward single #
loop $-1 $219 $220 $86 #
cone-surface $-1 44.416422509939267 -23.3420823366469 4.9330398589518545 0 0.78801076186113728 -0.61566146476048833 0.5 0 0 1 I I -0.70710678118654746 0.70710678118654746 0.5 forward I I I I #
loop $-1 $-1 $221 $59 #
coedge $-1 $138 $138 $222 $223 reversed $87 $-1 #
face $-1 $-1 $224 $47 $-1 $225 forward single #
loop $-1 $226 $227 $89 #
cone-surface $-1 51.76153216102567 -23.3420823366469 4.9330398589518545 0 0.78801076186113728 -0.61566146476048833 0.5 0 0 1 I I -0.70710678118654746 0.70710678118654746 0.5 forward I I I I #
loop $-1 $-1 $228 $60 #
coedge $-1 $143 $143 $229 $230 reversed $90 $-1 #
face $-1 $231 $232 $48 $-1 $233 reversed single #
loop $-1 $-1 $234 $92 #
plane-surface $-1 -19.976319304146571 -1.7864384826942654 57.320205184724017 0 0.84804810408105047 0.52991925155115449 1 0 0 forward_v I I I I #
coedge $-1 $235 $236 $237 $238 reversed $93 $-1 #
face $-1 $-1 $239 $49 $-1 $240 forward single #
loop $-1 $241 $242 $95 #
cone-surface $-1 -30.083698901354062 26.151031083652626 7.7533183784911266 0 -0.84804810408105047 -0.52991925155115449 0.5 0 0 1 I I -0.70710678118654813 0.70710678118654691 0.5 forward I I I I #
loop $-1 $-1 $243 $62 #
coedge $-1 $152 $152 $244 $245 reversed $96 $-1 #
face $-1 $-1 $246 $50 $-1 $247 forward single #
loop $-1 $248 $249 $98 #
cone-surface $-1 -19.976319304146571 26.151031083652626 7.7533183784911266 0 -0.84804810408105047 -0.52991925155115449 0.5 0 0 1 I I -0.70710678118654813 0.70710678118654691 0.5 forward I I I I #
loop $-1 $-1 $250 $63 #
coedge $-1 $157 $157 $251 $252 reversed $99 $-1 #
face $-1 $-1 $253 $51 $-1 $254 forward single #
loop $-1 $255 $256 $101 #
cone-surface $-1 -9.8689397069390736 26.151031083652626 7.7533183784911266 0 -0.84804810408105047 -0.52991925155115449 0.5 0 0 1 I I -0.70710678118654813 0.70710678118654691 0.5 forward I I I I #
loop $-1 $-1 $257 $64 #
coedge $-1 $162 $162 $258 $259 reversed $102 $-1 #
face $-1 $260 $261 $39 $-1 $262 reversed single #
loop $-1 $-1 $263 $104 #
plane-surface $-1 0 -29.854331075760584 0 0 1 0 0 0 1 forward_v I I I I #
coedge $-1 $264 $265 $266 $267 forward $105 $-1 #
coedge $-1 $268 $107 $269 $270 forward $66 $-1 #
coedge $-1 $107 $268 $271 $272 forward $66 $-1 #
coedge $-1 $273 $274 $107 $170 reversed $275 $-1 #
edge $-1 $276 -29.854331075760584 $277 29.854331075760584 $169 $278 forward 7 unknown #
face $-1 $279 $280 $40 $-1 $281 reversed single #
loop $-1 $-1 $282 $108 #
plane-surface $-1 -59.218423301559184 0 -5.8878581864742303 -1 0 0 0 0 1 forward_v I I I I #
coedge $-1 $283 $284 $285 $286 forward $109 $-1 #
coedge $-1 $287 $111 $288 $289 reversed $69 $-1 #
coedge $-1 $111 $287 $290 $291 reversed $69 $-1 #
coedge $-1 $282 $292 $111 $178 reversed $172 $-1 #
edge $-1 $293 -29.854331075760584 $294 29.854331075760584 $177 $295 forward 7 unknown #
face $-1 $296 $297 $41 $-1 $298 reversed single #
loop $-1 $-1 $299 $112 #
plane-surface $-1 59.21842330155917 0 -5.8878581864742303 1 0 0 0 0 -1 forward_v I I I I #
coedge $-1 $300 $301 $302 $303 reversed $113 $-1 #
coedge $-1 $304 $115 $305 $306 reversed $72 $-1 #
coedge $-1 $115 $304 $307 $308 reversed $72 $-1 #
coedge $-1 $309 $310 $115 $186 forward $311 $-1 #
edge $-1 $312 -29.854331075760584 $313 29.854331075760584 $185 $314 forward 7 unknown #
face $-1 $315 $316 $42 $-1 $317 forward single #
loop $-1 $-1 $318 $116 #
plane-surface $-1 -2.560151373142574 -140.8294872162046 90.402198620625413 -1 0 0 0 -0.78801076186113728 0.61566146476048833 forward_v I I I I #
coedge $-1 $319 $320 $321 $322 reversed $117 $-1 #
coedge $-1 $192 $119 $323 $324 reversed $75 $-1 #
coedge $-1 $119 $191 $319 $325 reversed $75 $-1 #
coedge $-1 $321 $326 $119 $194 forward $327 $-1 #
edge $-1 $328 33.650688490074671 $329 41.502192685450112 $193 $330 forward 7 unknown #
loop $-1 $-1 $200 $120 #
plane-surface $-1 -11.129445966076716 -29.854331075760555 3.6989066248626301 0 -0.78801076186113728 0.61566146476048833 1 0 0 forward_v I I I I #
loop $-1 $-1 $331 $77 #
coedge $-1 $198 $198 $199 $332 reversed $121 $-1 #
coedge $-1 $199 $199 $198 $332 forward $123 $-1 #
coedge $-1 $200 $200 $124 $201 forward $195 $-1 #
edge $-1 $333 8.7426961934069557e-016 $333 6.2831853071796013 $200 $334 forward 7 unknown #
loop $-1 $-1 $207 $125 #
plane-surface $-1 -11.129445966076716 -29.854331075760555 3.6989066248626301 0 -0.78801076186113728 0.61566146476048833 1 0 0 forward_v I I I I #
loop $-1 $-1 $335 $80 #
coedge $-1 $205 $205 $206 $336 reversed $126 $-1 #
coedge $-1 $206 $206 $205 $336 forward $128 $-1 #
coedge $-1 $207 $207 $129 $208 forward $202 $-1 #
edge $-1 $337 8.7426961934069557e-016 $337 6.2831853071796013 $207 $338 forward 7 unknown #
face $-1 $339 $340 $45 $-1 $341 reversed single #
loop $-1 $-1 $342 $130 #
plane-surface $-1 56.65827192841661 -140.8294872162046 90.402198620625413 -1 0 0 0 -0.78801076186113728 0.61566146476048833 forward_v I I I I #
coedge $-1 $343 $344 $345 $346 reversed $131 $-1 #
coedge $-1 $214 $133 $347 $348 reversed $84 $-1 #
coedge $-1 $133 $213 $343 $349 reversed $84 $-1 #
coedge $-1 $345 $350 $133 $216 forward $340 $-1 #
edge $-1 $351 33.650688490074671 $352 41.502192685450112 $215 $353 forward 7 unknown #
loop $-1 $-1 $222 $134 #
plane-surface $-1 48.088977335482468 -29.854331075760555 3.6989066248626301 0 -0.78801076186113728 0.61566146476048833 1 0 0 forward_v I I I I #
loop $-1 $-1 $354 $86 #
coedge $-1 $220 $220 $221 $355 reversed $135 $-1 #
coedge $-1 $221 $221 $220 $355 forward $137 $-1 #
coedge $-1 $222 $222 $138 $223 forward $217 $-1 #
edge $-1 $356 8.7426961934069557e-016 $356 6.2831853071796013 $222 $357 forward 7 unknown #
loop $-1 $-1 $229 $139 #
plane-surface $-1 48.088977335482468 -29.854331075760555 3.6989066248626301 0 -0.78801076186113728 0.61566146476048833 1 0 0 forward_v I I I I #
loop $-1 $-1 $358 $89 #
coedge $-1 $227 $227 $228 $359 reversed $140 $-1 #
coedge $-1 $228 $228 $227 $359 forward $142 $-1 #
coedge $-1 $229 $229 $143 $230 forward $224 $-1 #
edge $-1 $360 8.7426961934069557e-016 $360 6.2831853071796013 $229 $361 forward 7 unknown #
face $-1 $362 $363 $48 $-1 $364 reversed single #
loop $-1 $-1 $365 $144 #
plane-surface $-1 -36.821951966159062 117.64374612890437 131.94846475801103 1 0 0 0 -0.84804810408105047 -0.52991925155115449 forward_v I I I I #
coedge $-1 $366 $367 $368 $369 reversed $145 $-1 #
coedge $-1 $236 $147 $370 $371 reversed $93 $-1 #
coedge $-1 $147 $235 $366 $372 reversed $93 $-1 #
coedge $-1 $368 $373 $147 $238 forward $363 $-1 #
edge $-1 $374 54.423821558767486 $375 59.289844929095011 $237 $376 forward 7 unknown #
loop $-1 $-1 $244 $148 #
plane-surface $-1 -19.976319304146571 -1.7864384826942654 57.320205184724017 0 0.84804810408105047 0.52991925155115449 1 0 0 forward_v I I I I #
loop $-1 $-1 $377 $95 #
coedge $-1 $242 $242 $243 $378 reversed $149 $-1 #
coedge $-1 $243 $243 $242 $378 forward $151 $-1 #
coedge $-1 $244 $244 $152 $245 forward $239 $-1 #
edge $-1 $379 -2.258866697466231e-015 $379 6.2831853071795978 $244 $380 forward 7 unknown #
loop $-1 $-1 $251 $153 #
plane-surface $-1 -19.976319304146571 -1.7864384826942654 57.320205184724017 0 0.84804810408105047 0.52991925155115449 1 0 0 forward_v I I I I #
loop $-1 $-1 $381 $98 #
coedge $-1 $249 $249 $250 $382 reversed $154 $-1 #
coedge $-1 $250 $250 $249 $382 forward $156 $-1 #
coedge $-1 $251 $251 $157 $252 forward $246 $-1 #
edge $-1 $383 -2.258866697466231e-015 $383 6.2831853071795978 $251 $384 forward 7 unknown #
loop $-1 $-1 $258 $158 #
plane-surface $-1 -19.976319304146571 -1.7864384826942654 57.320205184724017 0 0.84804810408105047 0.52991925155115449 1 0 0 forward_v I I I I #
loop $-1 $-1 $385 $101 #
coedge $-1 $256 $256 $257 $386 reversed $159 $-1 #
coedge $-1 $257 $257 $256 $386 forward $161 $-1 #
coedge $-1 $258 $258 $162 $259 forward $253 $-1 #
edge $-1 $387 -2.258866697466231e-015 $387 6.2831853071795978 $258 $388 forward 7 unknown #
face $-1 $389 $390 $39 $-1 $391 reversed single #
loop $-1 $-1 $392 $163 #
plane-surface $-1 -70.414746543778804 0 0 1 0 0 0 0 -1 forward_v I I I I #
coedge $-1 $393 $271 $394 $395 forward $164 $-1 #
coedge $-1 $396 $166 $393 $397 forward $105 $-1 #
coedge $-1 $166 $396 $398 $399 forward $105 $-1 #
coedge $-1 $274 $273 $166 $267 reversed $275 $-1 #
edge $-1 $400 -29.854331075760584 $401 29.854331075760584 $266 $402 forward 7 unknown #
coedge $-1 $168 $167 $403 $404 forward $66 $-1 #
coedge $-1 $405 $406 $167 $270 reversed $390 $-1 #
edge $-1 $277 -70.414746543778804 $407 70.414746543778804 $269 $408 forward 7 unknown #
coedge $-1 $263 $409 $168 $272 reversed $164 $-1 #
edge $-1 $410 -70.414746543778804 $276 70.414746543778804 $271 $411 forward 7 unknown #
coedge $-1 $266 $169 $409 $412 forward $275 $-1 #
coedge $-1 $169 $266 $405 $413 reversed $275 $-1 #
loop $-1 $-1 $273 $389 #
vertex $-1 $170 $414 #
vertex $-1 $170 $415 #
straight-curve $-1 70.414746543778804 0 11.550410820238032 0 1 0 I I #
face $-1 $416 $417 $40 $-1 $418 reversed single #
loop $-1 $-1 $419 $171 #
plane-surface $-1 0 -29.854331075760584 0 0 1 0 0 0 1 forward_v I I I I #
coedge $-1 $285 $177 $420 $421 reversed $172 $-1 #
coedge $-1 $422 $174 $419 $423 reversed $109 $-1 #
coedge $-1 $174 $422 $424 $425 reversed $109 $-1 #
coedge $-1 $292 $282 $174 $286 reversed $172 $-1 #
edge $-1 $426 -29.854331075760584 $427 29.854331075760584 $285 $428 forward 7 unknown #
coedge $-1 $176 $175 $429 $430 reversed $69 $-1 #
coedge $-1 $431 $432 $175 $289 forward $433 $-1 #
edge $-1 $434 -38.006454082444307 $294 -26.810130840224687 $288 $435 forward 7 unknown #
coedge $-1 $436 $420 $176 $291 forward $280 $-1 #
edge $-1 $293 26.810130840224687 $437 38.006454082444307 $290 $438 forward 7 unknown #
coedge $-1 $177 $285 $431 $439 reversed $172 $-1 #
vertex $-1 $291 $440 #
vertex $-1 $289 $441 #
straight-curve $-1 -59.218423301559184 0 -3.6445750229587173 0 1 0 I I #
face $-1 $442 $443 $41 $-1 $444 reversed single #
loop $-1 $-1 $307 $179 #
plane-surface $-1 0 -29.854331075760584 0 0 1 0 0 0 1 forward_v I I I I #
coedge $-1 $445 $446 $447 $448 reversed $180 $-1 #
coedge $-1 $449 $182 $450 $451 reversed $113 $-1 #
coedge $-1 $182 $449 $452 $453 reversed $113 $-1 #
coedge $-1 $310 $309 $182 $303 forward $311 $-1 #
edge $-1 $454 -29.854331075760584 $455 29.854331075760584 $302 $456 forward 7 unknown #
coedge $-1 $184 $183 $446 $457 forward $72 $-1 #
coedge $-1 $458 $447 $183 $306 forward $443 $-1 #
edge $-1 $459 26.81013084022468 $312 38.0064540824443 $305 $460 forward 7 unknown #
coedge $-1 $461 $462 $184 $308 forward $297 $-1 #
edge $-1 $313 -38.0064540824443 $463 -26.81013084022468 $307 $464 forward 7 unknown #
coedge $-1 $302 $185 $462 $465 forward $311 $-1 #
coedge $-1 $185 $302 $458 $466 reversed $311 $-1 #
loop $-1 $-1 $185 $442 #
vertex $-1 $466 $467 #
vertex $-1 $465 $468 #
straight-curve $-1 70.414746543778804 0 -3.6445750229587173 0 -1 0 I I #
face $-1 $-1 $327 $42 $-1 $469 reversed single #
loop $-1 $-1 $470 $187 #
plane-surface $-1 0 0 11.550410820238032 0 0 1 1 0 0 forward_v I I I I #
coedge $-1 $471 $472 $473 $474 reversed $188 $-1 #
coedge $-1 $475 $190 $192 $325 forward $117 $-1 #
coedge $-1 $190 $475 $471 $476 forward $117 $-1 #
coedge $-1 $473 $193 $190 $322 forward $327 $-1 #
edge $-1 $329 -14.1340175759725 $477 3.004571609895784 $321 $478 forward 7 unknown #
coedge $-1 $479 $480 $191 $324 forward $316 $-1 #
edge $-1 $481 -46.694679737121064 $328 -40.560412532341715 $323 $482 forward 7 unknown #
edge $-1 $329 -4.6193811539156697e-014 $481 9.963701735280349 $192 $483 forward 7 unknown #
coedge $-1 $193 $473 $479 $484 reversed $327 $-1 #
loop $-1 $-1 $473 $315 #
vertex $-1 $484 $485 #
vertex $-1 $194 $486 #
straight-curve $-1 -19.698740559010858 -29.854331075760584 45.201099310312706 0 0 -1 I I #
coedge $-1 $331 $331 $-1 $487 reversed $197 $-1 #
edge $-1 $488 0 $488 6.2831853071796004 $198 $489 forward 7 unknown #
vertex $-1 $201 $490 #
ellipse-curve $-1 -14.802000791619918 -26.78719747337091 7.6246587225503166 0 -0.78801076186113728 0.61566146476048833 1 0 0 1 I I #
coedge $-1 $335 $335 $-1 $491 reversed $204 $-1 #
edge $-1 $492 0 $492 6.2831853071796004 $205 $493 forward 7 unknown #
vertex $-1 $208 $494 #
ellipse-curve $-1 -7.4568911405335072 -26.78719747337091 7.6246587225503166 0 -0.78801076186113728 0.61566146476048833 1 0 0 1 I I #
face $-1 $-1 $495 $45 $-1 $496 forward single #
loop $-1 $-1 $215 $209 #
plane-surface $-1 0 -29.854331075760584 0 0 1 0 0 0 1 forward_v I I I I #
coedge $-1 $497 $498 $499 $500 reversed $210 $-1 #
coedge $-1 $501 $212 $214 $349 forward $131 $-1 #
coedge $-1 $212 $501 $497 $502 forward $131 $-1 #
coedge $-1 $499 $215 $212 $346 forward $340 $-1 #
edge $-1 $352 15.475194074807092 $503 32.613783260675376 $345 $504 forward 7 unknown #
coedge $-1 $505 $506 $213 $348 forward $495 $-1 #
edge $-1 $507 -46.694679737121064 $351 -40.560412532341715 $347 $508 forward 7 unknown #
edge $-1 $352 -4.6193811539156697e-014 $507 9.963701735280349 $214 $509 forward 7 unknown #
coedge $-1 $215 $499 $505 $510 reversed $340 $-1 #
vertex $-1 $510 $511 #
vertex $-1 $216 $512 #
straight-curve $-1 39.519682742548326 -29.854331075760584 45.201099310312706 0 0 -1 I I #
coedge $-1 $354 $354 $-1 $513 reversed $219 $-1 #
edge $-1 $514 0 $514 6.2831853071796004 $220 $515 forward 7 unknown #
vertex $-1 $223 $516 #
ellipse-curve $-1 44.416422509939267 -26.78719747337091 7.6246587225503166 0 -0.78801076186113728 0.61566146476048833 1 0 0 1 I I #
coedge $-1 $358 $358 $-1 $517 reversed $226 $-1 #
edge $-1 $518 0 $518 6.2831853071796004 $227 $519 forward 7 unknown #
vertex $-1 $230 $520 #
ellipse-curve $-1 51.76153216102567 -26.78719747337091 7.6246587225503166 0 -0.78801076186113728 0.61566146476048833 1 0 0 1 I I #
face $-1 $-1 $521 $48 $-1 $522 forward single #
loop $-1 $-1 $237 $231 #
plane-surface $-1 0 29.854331075760584 0 0 -1 0 0 0 -1 forward_v I I I I #
coedge $-1 $523 $524 $525 $526 reversed $232 $-1 #
coedge $-1 $527 $234 $236 $372 forward $145 $-1 #
coedge $-1 $234 $527 $523 $528 forward $145 $-1 #
coedge $-1 $525 $237 $234 $369 forward $363 $-1 #
edge $-1 $375 -6.8574730099392021 $529 26.833792314085777 $368 $530 forward 7 unknown #
coedge $-1 $531 $532 $235 $371 forward $521 $-1 #
edge $-1 $533 -32.008170757302047 $374 -28.9675419886916 $370 $534 forward 7 unknown #
edge $-1 $375 -59.708662151521182 $533 -53.970752536593885 $236 $535 forward 7 unknown #
coedge $-1 $237 $525 $531 $536 reversed $363 $-1 #
vertex $-1 $536 $537 #
vertex $-1 $238 $538 #
straight-curve $-1 -3.1306866421340835 29.854331075760584 65.974232379005514 0 0 -1 I I #
coedge $-1 $377 $377 $-1 $539 reversed $241 $-1 #
edge $-1 $540 0 $540 6.2831853071796004 $242 $541 forward 7 unknown #
vertex $-1 $245 $542 #
ellipse-curve $-1 -30.083698901354062 28.334016691455371 9.11739913507426 0 0.84804810408105047 0.52991925155115449 1 0 0 1 I I #
coedge $-1 $381 $381 $-1 $543 reversed $248 $-1 #
edge $-1 $544 0 $544 6.2831853071796004 $249 $545 forward 7 unknown #
vertex $-1 $252 $546 #
ellipse-curve $-1 -19.976319304146571 28.334016691455371 9.11739913507426 0 0.84804810408105047 0.52991925155115449 1 0 0 1 I I #
coedge $-1 $385 $385 $-1 $547 reversed $255 $-1 #
edge $-1 $548 0 $548 6.2831853071796004 $256 $549 forward 7 unknown #
vertex $-1 $259 $550 #
ellipse-curve $-1 -9.8689397069390736 28.334016691455371 9.11739913507426 0 0.84804810408105047 0.52991925155115449 1 0 0 1 I I #
face $-1 $-1 $275 $39 $-1 $551 reversed single #
loop $-1 $-1 $405 $260 #
plane-surface $-1 0 29.854331075760584 0 0 -1 0 0 0 -1 forward_v I I I I #
coedge $-1 $552 $403 $406 $553 forward $261 $-1 #
coedge $-1 $409 $263 $264 $397 reversed $164 $-1 #
coedge $-1 $403 $552 $263 $395 reversed $261 $-1 #
edge $-1 $410 -11.550410820238032 $554 11.550410820238032 $394 $555 forward 7 unknown #
coedge $-1 $265 $264 $552 $556 forward $105 $-1 #
edge $-1 $401 -70.414746543778804 $554 70.414746543778804 $393 $557 forward 7 unknown #
coedge $-1 $406 $405 $265 $399 reversed $390 $-1 #
edge $-1 $558 -70.414746543778804 $400 70.414746543778804 $398 $559 forward 7 unknown #
vertex $-1 $267 $560 #
vertex $-1 $412 $561 #
straight-curve $-1 70.414746543778804 0 -11.550410820238032 0 -1 0 I I #
coedge $-1 $392 $394 $268 $404 reversed $261 $-1 #
edge $-1 $407 -29.854331075760584 $410 29.854331075760584 $403 $562 forward 7 unknown #
coedge $-1 $398 $269 $274 $413 forward $390 $-1 #
coedge $-1 $269 $398 $392 $553 reversed $390 $-1 #
vertex $-1 $270 $563 #
straight-curve $-1 0 29.854331075760584 11.550410820238032 -1 0 0 I I #
coedge $-1 $271 $393 $273 $412 reversed $164 $-1 #
vertex $-1 $404 $564 #
straight-curve $-1 0 -29.854331075760584 11.550410820238032 1 0 0 I I #
edge $-1 $276 -11.550410820238032 $401 11.550410820238032 $273 $565 forward 7 unknown #
edge $-1 $277 -11.550410820238032 $400 11.550410820238032 $274 $566 forward 7 unknown #
point $-1 70.414746543778804 -29.854331075760584 11.550410820238032 #
point $-1 70.414746543778804 29.854331075760584 11.550410820238032 #
face $-1 $-1 $433 $40 $-1 $567 reversed single #
loop $-1 $-1 $568 $279 #
plane-surface $-1 -70.414746543778804 0 0 1 0 0 0 0 -1 forward_v I I I I #
coedge $-1 $420 $436 $283 $423 forward $280 $-1 #
coedge $-1 $290 $419 $282 $421 forward $280 $-1 #
edge $-1 $427 -5.1872122567526286 $293 -0.70064592972160211 $420 $569 forward 7 unknown #
coedge $-1 $284 $283 $568 $570 reversed $109 $-1 #
edge $-1 $571 -38.006454082444307 $427 -26.810130840224687 $419 $572 forward 7 unknown #
coedge $-1 $432 $431 $284 $425 forward $433 $-1 #
edge $-1 $426 26.810130840224687 $573 38.006454082444307 $424 $574 forward 7 unknown #
vertex $-1 $425 $575 #
vertex $-1 $423 $576 #
straight-curve $-1 -59.218423301559184 0 -8.1311413499897434 0 -1 0 I I #
coedge $-1 $577 $578 $287 $430 forward $417 $-1 #
edge $-1 $437 -29.854331075760584 $434 29.854331075760584 $429 $579 forward 7 unknown #
coedge $-1 $424 $288 $292 $439 forward $433 $-1 #
coedge $-1 $288 $424 $577 $580 reversed $433 $-1 #
loop $-1 $-1 $424 $416 #
vertex $-1 $580 $581 #
straight-curve $-1 -32.408292461334497 29.854331075760584 -3.6445750229587173 1 0 0 I I #
coedge $-1 $419 $290 $578 $582 forward $280 $-1 #
vertex $-1 $582 $583 #
straight-curve $-1 -32.408292461334497 -29.854331075760584 -3.6445750229587173 -1 0 0 I I #
edge $-1 $294 0.70064592972160211 $426 5.1872122567526286 $431 $584 forward 7 unknown #
point $-1 -59.218423301559184 -29.854331075760584 -3.6445750229587173 #
point $-1 -59.218423301559184 29.854331075760584 -3.6445750229587173 #
face $-1 $-1 $311 $41 $-1 $585 reversed single #
loop $-1 $-1 $305 $296 #
plane-surface $-1 0 29.854331075760584 0 0 -1 0 0 0 -1 forward_v I I I I #
coedge $-1 $586 $299 $449 $587 reversed $180 $-1 #
coedge $-1 $299 $586 $304 $457 reversed $180 $-1 #
coedge $-1 $305 $452 $299 $448 forward $443 $-1 #
edge $-1 $588 -5.1872122567526286 $459 -0.70064592972160211 $447 $589 forward 7 unknown #
coedge $-1 $301 $300 $445 $587 forward $113 $-1 #
coedge $-1 $462 $461 $300 $451 forward $297 $-1 #
edge $-1 $590 26.81013084022468 $454 38.0064540824443 $450 $591 forward 7 unknown #
coedge $-1 $447 $458 $301 $453 forward $443 $-1 #
edge $-1 $455 -38.0064540824443 $588 -26.81013084022468 $452 $592 forward 7 unknown #
vertex $-1 $303 $593 #
vertex $-1 $303 $594 #
straight-curve $-1 70.414746543778804 0 -8.1311413499897434 0 1 0 I I #
edge $-1 $459 -29.854331075760584 $463 29.854331075760584 $446 $595 forward 7 unknown #
coedge $-1 $452 $305 $310 $466 forward $443 $-1 #
vertex $-1 $306 $596 #
straight-curve $-1 32.40829246133449 29.854331075760584 -3.6445750229587173 1 0 0 I I #
coedge $-1 $450 $307 $586 $597 forward $297 $-1 #
coedge $-1 $307 $450 $309 $465 reversed $297 $-1 #
vertex $-1 $308 $598 #
straight-curve $-1 32.40829246133449 -29.854331075760584 -3.6445750229587173 -1 0 0 I I #
edge $-1 $313 3.6445750229587173 $454 8.1311413499897434 $309 $599 forward 7 unknown #
edge $-1 $312 3.6445750229587173 $455 8.1311413499897434 $310 $600 forward 7 unknown #
point $-1 70.41474654377879 29.854331075760584 -3.6445750229587173 #
point $-1 70.41474654377879 -29.854331075760584 -3.6445750229587173 #
plane-surface $-1 0 -29.854331075760584 0 0 1 0 0 0 1 forward_v I I I I #
coedge $-1 $480 $479 $472 $601 forward $316 $-1 #
coedge $-1 $472 $318 $320 $476 reversed $188 $-1 #
coedge $-1 $318 $471 $470 $601 reversed $188 $-1 #
coedge $-1 $326 $321 $318 $474 forward $327 $-1 #
edge $-1 $477 -41.502192685450112 $602 -33.650688490074671 $473 $603 forward 7 unknown #
coedge $-1 $320 $319 $480 $604 reversed $117 $-1 #
edge $-1 $605 -9.963701735280349 $477 4.6193811539156697e-014 $471 $606 forward 7 unknown #
vertex $-1 $322 $607 #
straight-curve $-1 -5.564722983038358 -29.854331075760584 3.6989066248625946 1 0 0 I I #
coedge $-1 $470 $323 $326 $484 forward $316 $-1 #
coedge $-1 $323 $470 $475 $604 forward $316 $-1 #
vertex $-1 $324 $608 #
straight-curve $-1 -19.698740559010858 -70.414743608102299 11.550410820238035 0 -1 0 I I #
straight-curve $-1 -19.698740559010858 -29.854331075760555 3.6989066248626301 0 0.61566146476048833 0.78801076186113728 I I #
edge $-1 $328 -19.698740559010858 $602 -2.560151373142574 $326 $609 forward 7 unknown #
point $-1 -19.698740559010858 -29.854331075760584 11.550410820238032 #
point $-1 -19.698740559010858 -29.854331075760584 3.6989066248625937 #
edge $-1 $610 1 $610 0 $331 $-1 forward 7 unknown #
vertex $-1 $332 $611 #
ellipse-curve $-1 -14.802000791619918 -23.736087717577469 5.240870591332099 0 -0.78801076186113728 0.61566146476048833 1 0 0 1 I I #
point $-1 -13.802000791619918 -26.787197473370931 7.6246587225503344 #
edge $-1 $612 1 $612 0 $335 $-1 forward 7 unknown #
vertex $-1 $336 $613 #
ellipse-curve $-1 -7.4568911405335072 -23.736087717577469 5.240870591332099 0 -0.78801076186113728 0.61566146476048833 1 0 0 1 I I #
point $-1 -6.4568911405335072 -26.787197473370931 7.6246587225503344 #
loop $-1 $-1 $347 $339 #
plane-surface $-1 0 0 11.550410820238032 0 0 1 1 0 0 forward_v I I I I #
coedge $-1 $498 $342 $344 $502 reversed $210 $-1 #
coedge $-1 $342 $497 $614 $615 reversed $210 $-1 #
coedge $-1 $350 $345 $342 $500 forward $340 $-1 #
edge $-1 $503 -41.502192685450112 $616 -33.650688490074671 $499 $617 forward 7 unknown #
coedge $-1 $344 $343 $506 $618 reversed $131 $-1 #
edge $-1 $619 -9.963701735280349 $503 4.6193811539156697e-014 $497 $620 forward 7 unknown #
vertex $-1 $346 $621 #
straight-curve $-1 24.044488667741234 -29.854331075760584 3.6989066248625946 1 0 0 I I #
coedge $-1 $614 $347 $350 $510 forward $495 $-1 #
coedge $-1 $347 $614 $501 $618 forward $495 $-1 #
vertex $-1 $348 $622 #
straight-curve $-1 39.519682742548326 -70.414743608102299 11.550410820238035 0 -1 0 I I #
straight-curve $-1 39.519682742548326 -29.854331075760555 3.6989066248626301 0 0.61566146476048833 0.78801076186113728 I I #
edge $-1 $351 39.519682742548326 $616 56.65827192841661 $350 $623 forward 7 unknown #
point $-1 39.519682742548326 -29.854331075760584 11.550410820238032 #
point $-1 39.519682742548326 -29.854331075760584 3.6989066248625937 #
edge $-1 $624 1 $624 0 $354 $-1 forward 7 unknown #
vertex $-1 $355 $625 #
ellipse-curve $-1 44.416422509939267 -23.736087717577469 5.240870591332099 0 -0.78801076186113728 0.61566146476048833 1 0 0 1 I I #
point $-1 45.416422509939267 -26.787197473370931 7.6246587225503344 #
edge $-1 $626 1 $626 0 $358 $-1 forward 7 unknown #
vertex $-1 $359 $627 #
ellipse-curve $-1 51.76153216102567 -23.736087717577469 5.240870591332099 0 -0.78801076186113728 0.61566146476048833 1 0 0 1 I I #
point $-1 52.76153216102567 -26.787197473370931 7.6246587225503344 #
loop $-1 $-1 $370 $362 #
plane-surface $-1 0 0 11.550410820238032 0 0 1 1 0 0 forward_v I I I I #
coedge $-1 $524 $365 $367 $528 reversed $232 $-1 #
coedge $-1 $365 $523 $628 $629 reversed $232 $-1 #
coedge $-1 $373 $368 $365 $526 forward $363 $-1 #
edge $-1 $529 -59.289844929095011 $630 -54.423821558767486 $525 $631 forward 7 unknown #
coedge $-1 $367 $366 $532 $632 reversed $145 $-1 #
edge $-1 $633 53.970752536593885 $529 59.708662151521182 $523 $634 forward 7 unknown #
vertex $-1 $369 $635 #
straight-curve $-1 -9.9881596520732856 29.854331075760584 6.6843874499105098 -1 0 0 I I #
coedge $-1 $628 $370 $373 $536 forward $521 $-1 #
coedge $-1 $370 $628 $527 $632 forward $521 $-1 #
vertex $-1 $371 $636 #
straight-curve $-1 -3.1306866421340835 58.821873064452184 11.550410820238028 0 1 0 I I #
straight-curve $-1 -3.1306866421340835 -1.7864384826942654 57.320205184724017 0 -0.52991925155115449 0.84804810408105047 I I #
edge $-1 $374 3.1306866421340835 $630 36.821951966159062 $373 $637 forward 7 unknown #
point $-1 -3.1306866421340835 29.854331075760584 11.550410820238032 #
point $-1 -3.1306866421340835 29.854331075760584 6.6843874499105027 #
edge $-1 $638 1 $638 0 $377 $-1 forward 7 unknown #
vertex $-1 $378 $639 #
ellipse-curve $-1 -30.083698901354062 26.575055135693152 8.018278004266703 0 0.84804810408105047 0.52991925155115449 1 0 0 1 I I #
point $-1 -29.083698901354062 28.334016691455364 9.1173991350742583 #
edge $-1 $640 1 $640 0 $381 $-1 forward 7 unknown #
vertex $-1 $382 $641 #
ellipse-curve $-1 -19.976319304146571 26.575055135693152 8.018278004266703 0 0.84804810408105047 0.52991925155115449 1 0 0 1 I I #
point $-1 -18.976319304146571 28.334016691455364 9.1173991350742583 #
edge $-1 $642 1 $642 0 $385 $-1 forward 7 unknown #
vertex $-1 $386 $643 #
ellipse-curve $-1 -9.8689397069390736 26.575055135693152 8.018278004266703 0 0.84804810408105047 0.52991925155115449 1 0 0 1 I I #
point $-1 -8.8689397069390736 28.334016691455364 9.1173991350742583 #
plane-surface $-1 70.414746543778804 0 0 -1 0 0 0 0 1 forward_v I I I I #
coedge $-1 $394 $392 $396 $556 reversed $261 $-1 #
edge $-1 $407 -11.550410820238032 $558 11.550410820238032 $406 $644 forward 7 unknown #
vertex $-1 $556 $645 #
straight-curve $-1 -70.414746543778804 -29.854331075760584 0 0 0 -1 I I #
edge $-1 $554 -29.854331075760584 $558 29.854331075760584 $552 $646 forward 7 unknown #
straight-curve $-1 0 -29.854331075760584 -11.550410820238032 -1 0 0 I I #
vertex $-1 $399 $647 #
straight-curve $-1 0 29.854331075760584 -11.550410820238032 1 0 0 I I #
point $-1 70.414746543778804 29.854331075760584 -11.550410820238032 #
point $-1 70.414746543778804 -29.854331075760584 -11.550410820238032 #
straight-curve $-1 -70.414746543778804 0 11.550410820238032 0 -1 0 I I #
point $-1 -70.414746543778804 29.854331075760584 11.550410820238032 #
point $-1 -70.414746543778804 -29.854331075760584 11.550410820238032 #
straight-curve $-1 70.414746543778804 -29.854331075760584 0 0 0 -1 I I #
straight-curve $-1 70.414746543778804 29.854331075760584 0 0 0 -1 I I #
plane-surface $-1 0 29.854331075760584 0 0 -1 0 0 0 -1 forward_v I I I I #
coedge $-1 $578 $577 $422 $570 forward $417 $-1 #
straight-curve $-1 -59.218423301559184 -29.854331075760584 -2.9439290932371152 0 0 1 I I #
edge $-1 $573 -29.854331075760584 $571 29.854331075760584 $568 $648 forward 7 unknown #
vertex $-1 $423 $649 #
straight-curve $-1 -32.408292461334497 -29.854331075760584 -8.1311413499897434 1 0 0 I I #
vertex $-1 $425 $650 #
straight-curve $-1 -32.408292461334497 29.854331075760584 -8.1311413499897434 -1 0 0 I I #
point $-1 -59.218423301559184 29.854331075760584 -8.1311413499897434 #
point $-1 -59.218423301559184 -29.854331075760584 -8.1311413499897434 #
coedge $-1 $568 $429 $432 $580 forward $417 $-1 #
coedge $-1 $429 $568 $436 $582 reversed $417 $-1 #
straight-curve $-1 -70.414746543778804 0 -3.6445750229587173 0 1 0 I I #
edge $-1 $434 3.6445750229587173 $573 8.1311413499897434 $432 $651 forward 7 unknown #
point $-1 -70.414746543778804 29.854331075760584 -3.6445750229587173 #
edge $-1 $437 3.6445750229587173 $571 8.1311413499897434 $578 $652 forward 7 unknown #
point $-1 -70.414746543778804 -29.854331075760584 -3.6445750229587173 #
straight-curve $-1 -59.218423301559184 29.854331075760584 -2.9439290932371152 0 0 -1 I I #
plane-surface $-1 70.414746543778804 0 0 -1 0 0 0 0 1 forward_v I I I I #
coedge $-1 $446 $445 $461 $597 reversed $180 $-1 #
edge $-1 $590 -29.854331075760584 $588 29.854331075760584 $445 $653 forward 7 unknown #
vertex $-1 $453 $654 #
straight-curve $-1 59.21842330155917 29.854331075760584 -2.9439290932371152 0 0 1 I I #
vertex $-1 $451 $655 #
straight-curve $-1 32.40829246133449 -29.854331075760584 -8.1311413499897434 1 0 0 I I #
straight-curve $-1 32.40829246133449 29.854331075760584 -8.1311413499897434 -1 0 0 I I #
point $-1 70.41474654377879 -29.854331075760584 -8.1311413499897434 #
point $-1 70.41474654377879 29.854331075760584 -8.1311413499897434 #
straight-curve $-1 59.21842330155917 0 -3.6445750229587173 0 -1 0 I I #
point $-1 59.21842330155917 29.854331075760584 -3.6445750229587173 #
edge $-1 $463 0.70064592972160211 $590 5.1872122567526286 $461 $656 forward 7 unknown #
point $-1 59.21842330155917 -29.854331075760584 -3.6445750229587173 #
straight-curve $-1 70.414746543778804 -29.854331075760584 0 0 0 -1 I I #
straight-curve $-1 70.414746543778804 29.854331075760584 0 0 0 -1 I I #
edge $-1 $602 40.560412532341715 $605 46.694679737121064 $470 $657 forward 7 unknown #
vertex $-1 $601 $658 #
straight-curve $-1 -2.560151373142574 -29.854331075760584 45.201099310312706 0 0 1 I I #
edge $-1 $605 -3.004571609895784 $481 14.1340175759725 $480 $659 forward 7 unknown #
vertex $-1 $604 $660 #
straight-curve $-1 -2.560151373142574 -29.854331075760555 3.6989066248626301 0 -0.61566146476048833 -0.78801076186113728 I I #
point $-1 -2.560151373142574 -29.854331075760584 3.6989066248625937 #
point $-1 -19.698740559010858 -23.720063870981235 11.550410820238032 #
straight-curve $-1 0 -29.854331075760584 11.550410820238032 1 0 0 I I #
vertex $-1 $487 $661 #
point $-1 -13.802000791619918 -23.736087717577469 5.240870591332099 #
vertex $-1 $491 $662 #
point $-1 -6.4568911405335072 -23.736087717577469 5.240870591332099 #
coedge $-1 $506 $505 $498 $615 forward $495 $-1 #
edge $-1 $616 40.560412532341715 $619 46.694679737121064 $614 $663 forward 7 unknown #
vertex $-1 $615 $664 #
straight-curve $-1 56.65827192841661 -29.854331075760584 45.201099310312706 0 0 1 I I #
edge $-1 $619 -32.613783260675376 $507 -15.475194074807092 $506 $665 forward 7 unknown #
vertex $-1 $618 $666 #
straight-curve $-1 56.65827192841661 -29.854331075760555 3.6989066248626301 0 -0.61566146476048833 -0.78801076186113728 I I #
point $-1 56.65827192841661 -29.854331075760584 3.6989066248625937 #
point $-1 39.519682742548326 -23.720063870981235 11.550410820238032 #
straight-curve $-1 0 -29.854331075760584 11.550410820238032 1 0 0 I I #
vertex $-1 $513 $667 #
point $-1 45.416422509939267 -23.736087717577469 5.240870591332099 #
vertex $-1 $517 $668 #
point $-1 52.76153216102567 -23.736087717577469 5.240870591332099 #
coedge $-1 $532 $531 $524 $629 forward $521 $-1 #
edge $-1 $630 28.9675419886916 $633 32.008170757302047 $628 $669 forward 7 unknown #
vertex $-1 $629 $670 #
straight-curve $-1 -36.821951966159062 29.854331075760584 65.974232379005514 0 0 1 I I #
edge $-1 $633 -26.833792314085777 $533 6.8574730099392021 $532 $671 forward 7 unknown #
vertex $-1 $632 $672 #
straight-curve $-1 -36.821951966159062 -1.7864384826942654 57.320205184724017 0 0.52991925155115449 -0.84804810408105047 I I #
point $-1 -36.821951966159062 29.854331075760584 6.6843874499105027 #
point $-1 -3.1306866421340835 26.813702307150137 11.550410820238028 #
straight-curve $-1 0 29.854331075760584 11.550410820238032 -1 0 0 I I #
vertex $-1 $539 $673 #
point $-1 -29.083698901354062 26.575055135693152 8.018278004266703 #
vertex $-1 $543 $674 #
point $-1 -18.976319304146571 26.575055135693152 8.018278004266703 #
vertex $-1 $547 $675 #
point $-1 -8.8689397069390736 26.575055135693152 8.018278004266703 #
straight-curve $-1 -70.414746543778804 29.854331075760584 0 0 0 -1 I I #
point $-1 -70.414746543778804 -29.854331075760584 -11.550410820238032 #
straight-curve $-1 -70.414746543778804 0 -11.550410820238032 0 1 0 I I #
point $-1 -70.414746543778804 29.854331075760584 -11.550410820238032 #
straight-curve $-1 -70.414746543778804 0 -8.1311413499897434 0 -1 0 I I #
point $-1 -70.414746543778804 -29.854331075760584 -8.1311413499897434 #
point $-1 -70.414746543778804 29.854331075760584 -8.1311413499897434 #
straight-curve $-1 -70.414746543778804 29.854331075760584 0 0 0 -1 I I #
straight-curve $-1 -70.414746543778804 -29.854331075760584 0 0 0 -1 I I #
straight-curve $-1 59.21842330155917 0 -8.1311413499897434 0 1 0 I I #
point $-1 59.21842330155917 29.854331075760584 -8.1311413499897434 #
point $-1 59.21842330155917 -29.854331075760584 -8.1311413499897434 #
straight-curve $-1 59.21842330155917 -29.854331075760584 -2.9439290932371152 0 0 -1 I I #
straight-curve $-1 -2.560151373142574 -70.414743608102299 11.550410820238035 0 1 0 I I #
point $-1 -2.560151373142574 -29.854331075760584 11.550410820238032 #
straight-curve $-1 -5.564722983038358 -23.720063870981242 11.550410820238032 -1 0 0 I I #
point $-1 -2.560151373142574 -23.720063870981235 11.550410820238032 #
point $-1 -14.802000791619918 -22.948076955716331 4.62520912657161 #
point $-1 -7.4568911405335072 -22.948076955716331 4.62520912657161 #
straight-curve $-1 56.65827192841661 -70.414743608102299 11.550410820238035 0 1 0 I I #
point $-1 56.65827192841661 -29.854331075760584 11.550410820238032 #
straight-curve $-1 24.044488667741234 -23.720063870981242 11.550410820238032 -1 0 0 I I #
point $-1 56.65827192841661 -23.720063870981235 11.550410820238032 #
point $-1 44.416422509939267 -22.948076955716331 4.62520912657161 #
point $-1 51.76153216102567 -22.948076955716331 4.62520912657161 #
straight-curve $-1 -36.821951966159062 58.821873064452184 11.550410820238028 0 -1 0 I I #
point $-1 -36.821951966159062 29.854331075760584 11.550410820238032 #
straight-curve $-1 -9.9881596520732856 26.813702307150137 11.550410820238032 1 0 0 I I #
point $-1 -36.821951966159062 26.813702307150137 11.550410820238028 #
point $-1 -30.083698901354062 25.7270070316121 7.4883587527155502 #
point $-1 -19.976319304146571 25.7270070316121 7.4883587527155502 #
point $-1 -9.8689397069390736 25.7270070316121 7.4883587527155502 #
End-of-ACIS-data 