500 0 10 0           
7 Unknown 11 ACIS 5.0 NT 24 Fri Mar 26 18:12:36 1999 
-1 9.9999999999999995e-007 1e-010 
body $-1 $10 $-1 $11 #
body $-1 $12 $-1 $13 #
body $-1 $14 $-1 $15 #
body $-1 $16 $-1 $17 #
body $-1 $18 $-1 $19 #
body $-1 $20 $-1 $21 #
body $-1 $22 $-1 $23 #
body $-1 $24 $-1 $25 #
body $-1 $26 $-1 $27 #
body $-1 $28 $-1 $29 #
lump $-1 $-1 $30 $0 #
transform $-1 1 0 0 0 1 0 0 0 1 59.876094851527455 35.770699397460568 8.9940378489272188 1 rotate no_reflect no_shear #
lump $-1 $-1 $31 $1 #
transform $-1 1 0 0 0 1 0 0 0 1 59.876094851527455 35.770699397460568 8.9940378489272188 1 rotate no_reflect no_shear #
lump $-1 $-1 $32 $2 #
transform $-1 1 0 0 0 1 0 0 0 1 59.876094851527455 35.770699397460568 8.9940378489272188 1 rotate no_reflect no_shear #
lump $-1 $-1 $33 $3 #
transform $-1 1 0 0 0 1 0 0 0 1 59.876094851527455 35.770699397460568 8.9940378489272188 1 rotate no_reflect no_shear #
lump $-1 $-1 $34 $4 #
transform $-1 1 0 0 0 1 0 0 0 1 59.876094851527455 35.770699397460568 8.9940378489272188 1 rotate no_reflect no_shear #
lump $-1 $-1 $35 $5 #
transform $-1 1 0 0 0 1 0 0 0 1 59.876094851527455 35.770699397460568 8.9940378489272188 1 rotate no_reflect no_shear #
lump $-1 $-1 $36 $6 #
transform $-1 1 0 0 0 1 0 0 0 1 59.876094851527455 35.770699397460568 8.9940378489272188 1 rotate no_reflect no_shear #
lump $-1 $-1 $37 $7 #
transform $-1 1 0 0 0 1 0 0 0 1 59.876094851527455 35.770699397460568 8.9940378489272188 1 rotate no_reflect no_shear #
lump $-1 $-1 $38 $8 #
transform $-1 1 0 0 0 1 0 0 0 1 59.876094851527455 35.770699397460568 8.9940378489272188 1 rotate no_reflect no_shear #
lump $-1 $-1 $39 $9 #
transform $-1 1 0 0 0 1 0 0 0 1 59.876094851527455 35.770699397460568 8.9940378489272188 1 rotate no_reflect no_shear #
shell $-1 $-1 $-1 $40 $-1 $10 #
shell $-1 $-1 $-1 $41 $-1 $12 #
shell $-1 $-1 $-1 $42 $-1 $14 #
shell $-1 $-1 $-1 $43 $-1 $16 #
shell $-1 $-1 $-1 $44 $-1 $18 #
shell $-1 $-1 $-1 $45 $-1 $20 #
shell $-1 $-1 $-1 $46 $-1 $22 #
shell $-1 $-1 $-1 $47 $-1 $24 #
shell $-1 $-1 $-1 $48 $-1 $26 #
shell $-1 $-1 $-1 $49 $-1 $28 #
face $-1 $50 $51 $30 $-1 $52 forward single #
face $-1 $53 $54 $31 $-1 $55 forward single #
face $-1 $56 $57 $32 $-1 $58 reversed single #
face $-1 $59 $60 $33 $-1 $61 forward single #
face $-1 $62 $63 $34 $-1 $64 forward single #
face $-1 $65 $66 $35 $-1 $67 forward single #
face $-1 $68 $69 $36 $-1 $70 reversed single #
face $-1 $71 $72 $37 $-1 $73 forward single #
face $-1 $74 $75 $38 $-1 $76 forward single #
face $-1 $77 $78 $39 $-1 $79 forward single #
face $-1 $80 $81 $30 $-1 $82 reversed single #
loop $-1 $-1 $83 $40 #
plane-surface $-1 0 0 8.9940378489272188 0 0 1 1 0 0 forward_v I I I I #
face $-1 $84 $85 $31 $-1 $86 reversed single #
loop $-1 $-1 $87 $41 #
plane-surface $-1 0 -35.770699397460568 0 0 1 0 0 0 1 forward_v I I I I #
face $-1 $88 $89 $32 $-1 $90 reversed single #
loop $-1 $-1 $91 $42 #
plane-surface $-1 -161.43171228875747 4.4858135635463228 63.599297359438879 0 1 0 -0.84804810408105047 0 0.52991925155115449 forward_v I I I I #
face $-1 $92 $93 $33 $-1 $94 forward single #
loop $-1 $95 $96 $43 #
cone-surface $-1 -56.352541201998207 6.9857256442684559 4.0939330116965218 0.84804810408105047 0 -0.52991925155115449 0.26495962577557725 0 0.42402405204052523 1 I I 0 1 0.5 forward I I I I #
face $-1 $97 $98 $34 $-1 $99 forward single #
loop $-1 $100 $101 $44 #
cone-surface $-1 -56.352541201998207 10.735593765351652 4.0939330116965218 0.84804810408105047 0 -0.52991925155115449 0.26495962577557725 0 0.42402405204052523 1 I I 0 1 0.5 forward I I I I #
face $-1 $102 $103 $35 $-1 $104 forward single #
loop $-1 $105 $106 $45 #
cone-surface $-1 -56.352541201998207 14.485461886434848 4.0939330116965218 0.84804810408105047 0 -0.52991925155115449 0.26495962577557725 0 0.42402405204052523 1 I I 0 1 0.5 forward I I I I #
face $-1 $107 $108 $36 $-1 $109 reversed single #
loop $-1 $-1 $110 $46 #
plane-surface $-1 68.739461753210378 -18.548943031941015 171.56188608961696 0 -1 0 -0.74314483375859142 0 -0.66913059716165679 forward_v I I I I #
face $-1 $111 $112 $37 $-1 $113 forward single #
loop $-1 $114 $115 $47 #
cone-surface $-1 56.553346022911903 -25.299084871342423 5.3818590124286736 -0.74314483375859142 0 -0.66913059716165679 0.1672826492904142 0 -0.18578620843964785 1 I I 0 1 0.25 forward I I I I #
face $-1 $116 $117 $38 $-1 $118 forward single #
loop $-1 $119 $120 $48 #
cone-surface $-1 56.553346022911903 -22.767781681566895 5.3818590124286736 -0.74314483375859142 0 -0.66913059716165679 0.1672826492904142 0 -0.18578620843964785 1 I I 0 1 0.25 forward I I I I #
face $-1 $121 $122 $39 $-1 $123 forward single #
loop $-1 $124 $125 $49 #
cone-surface $-1 56.553346022911903 -20.236478491791367 5.3818590124286736 -0.74314483375859142 0 -0.66913059716165679 0.1672826492904142 0 -0.18578620843964785 1 I I 0 1 0.25 forward I I I I #
face $-1 $126 $127 $30 $-1 $128 reversed single #
loop $-1 $-1 $129 $50 #
plane-surface $-1 0 0 -8.9940378489272188 0 0 1 1 0 0 forward_v I I I I #
coedge $-1 $130 $131 $132 $133 forward $51 $-1 #
face $-1 $134 $135 $31 $-1 $136 reversed single #
loop $-1 $-1 $137 $53 #
plane-surface $-1 0 0 -8.9940378489272188 0 0 1 1 0 0 forward_v I I I I #
coedge $-1 $138 $139 $140 $141 forward $54 $-1 #
face $-1 $142 $143 $32 $-1 $144 reversed single #
loop $-1 $-1 $145 $56 #
plane-surface $-1 -59.876094851527455 10.735593765351652 0.14030662038415187 -0.84804810408105047 0 0.52991925155115449 0.52991925155115449 0 0.84804810408105047 forward_v I I I I #
coedge $-1 $146 $147 $148 $149 reversed $57 $-1 #
face $-1 $-1 $150 $33 $-1 $151 forward single #
loop $-1 $152 $153 $59 #
cone-surface $-1 -55.383188081778115 6.9857256442684559 3.4882139758495736 0.84804810408105047 0 -0.52991925155115449 0.13247981288778862 0 0.21201202602026262 1 I I -0.70710678118654746 0.70710678118654746 0.25 forward I I I I #
loop $-1 $-1 $154 $43 #
coedge $-1 $96 $96 $155 $156 reversed $60 $-1 #
face $-1 $-1 $157 $34 $-1 $158 forward single #
loop $-1 $159 $160 $62 #
cone-surface $-1 -55.383188081778115 10.735593765351652 3.4882139758495736 0.84804810408105047 0 -0.52991925155115449 0.13247981288778862 0 0.21201202602026262 1 I I -0.70710678118654746 0.70710678118654746 0.25 forward I I I I #
loop $-1 $-1 $161 $44 #
coedge $-1 $101 $101 $162 $163 reversed $63 $-1 #
face $-1 $-1 $164 $35 $-1 $165 forward single #
loop $-1 $166 $167 $65 #
cone-surface $-1 -55.383188081778115 14.485461886434848 3.4882139758495736 0.84804810408105047 0 -0.52991925155115449 0.13247981288778862 0 0.21201202602026262 1 I I -0.70710678118654746 0.70710678118654746 0.25 forward I I I I #
loop $-1 $-1 $168 $45 #
coedge $-1 $106 $106 $169 $170 reversed $66 $-1 #
face $-1 $171 $172 $36 $-1 $173 reversed single #
loop $-1 $-1 $174 $68 #
plane-surface $-1 -20.253759355893663 -22.767781681566895 91.43203188219583 0.74314483375859142 0 0.66913059716165679 0.66913059716165679 0 -0.74314483375859142 forward_v I I I I #
coedge $-1 $175 $176 $177 $178 reversed $69 $-1 #
face $-1 $-1 $179 $37 $-1 $180 forward single #
loop $-1 $181 $182 $71 #
cone-surface $-1 56.088880501812781 -25.299084871342423 4.9636523892026378 -0.74314483375859142 0 -0.66913059716165679 0.083641324645207099 0 -0.092893104219823927 1 I I -0.70710678118654746 0.70710678118654746 0.125 forward I I I I #
loop $-1 $-1 $183 $47 #
coedge $-1 $115 $115 $184 $185 reversed $72 $-1 #
face $-1 $-1 $186 $38 $-1 $187 forward single #
loop $-1 $188 $189 $74 #
cone-surface $-1 56.088880501812781 -22.767781681566895 4.9636523892026378 -0.74314483375859142 0 -0.66913059716165679 0.083641324645207099 0 -0.092893104219823927 1 I I -0.70710678118654746 0.70710678118654746 0.125 forward I I I I #
loop $-1 $-1 $190 $48 #
coedge $-1 $120 $120 $191 $192 reversed $75 $-1 #
face $-1 $-1 $193 $39 $-1 $194 forward single #
loop $-1 $195 $196 $77 #
cone-surface $-1 56.088880501812781 -20.236478491791367 4.9636523892026378 -0.74314483375859142 0 -0.66913059716165679 0.083641324645207099 0 -0.092893104219823927 1 I I -0.70710678118654746 0.70710678118654746 0.125 forward I I I I #
loop $-1 $-1 $197 $49 #
coedge $-1 $125 $125 $198 $199 reversed $78 $-1 #
face $-1 $200 $201 $30 $-1 $202 reversed single #
loop $-1 $-1 $203 $80 #
plane-surface $-1 0 -35.770699397460568 0 0 1 0 0 0 1 forward_v I I I I #
coedge $-1 $204 $205 $206 $207 forward $81 $-1 #
coedge $-1 $208 $83 $209 $210 forward $51 $-1 #
coedge $-1 $83 $208 $211 $212 forward $51 $-1 #
coedge $-1 $213 $214 $83 $133 reversed $215 $-1 #
edge $-1 $216 -35.770699397460568 $217 35.770699397460568 $132 $218 forward 7 unknown #
face $-1 $219 $220 $31 $-1 $221 forward single #
loop $-1 $-1 $222 $84 #
plane-surface $-1 59.876094851527455 0 0 -1 0 0 0 0 1 forward_v I I I I #
coedge $-1 $223 $224 $225 $226 forward $85 $-1 #
coedge $-1 $225 $87 $222 $227 reversed $54 $-1 #
coedge $-1 $87 $225 $228 $229 reversed $54 $-1 #
coedge $-1 $230 $231 $87 $141 reversed $220 $-1 #
edge $-1 $232 -59.876094851527455 $233 59.876094851527455 $140 $234 forward 7 unknown #
face $-1 $235 $236 $32 $-1 $237 forward single #
loop $-1 $-1 $238 $88 #
plane-surface $-1 -161.43171228875747 16.985373967156981 63.599297359438879 0 -1 0 0.84804810408105047 0 -0.52991925155115449 forward_v I I I I #
coedge $-1 $239 $240 $241 $242 reversed $89 $-1 #
coedge $-1 $147 $91 $243 $244 reversed $57 $-1 #
coedge $-1 $91 $146 $239 $245 reversed $57 $-1 #
coedge $-1 $241 $246 $91 $149 forward $236 $-1 #
edge $-1 $247 20.839761292851279 $248 26.372186403510121 $148 $249 forward 7 unknown #
loop $-1 $-1 $155 $92 #
plane-surface $-1 -59.876094851527455 10.735593765351652 0.14030662038415187 -0.84804810408105047 0 0.52991925155115449 0.52991925155115449 0 0.84804810408105047 forward_v I I I I #
loop $-1 $-1 $250 $59 #
coedge $-1 $153 $153 $154 $251 reversed $93 $-1 #
coedge $-1 $154 $154 $153 $251 forward $95 $-1 #
coedge $-1 $155 $155 $96 $156 forward $150 $-1 #
edge $-1 $252 0 $252 6.2831853071796004 $155 $253 forward 7 unknown #
loop $-1 $-1 $162 $97 #
plane-surface $-1 -59.876094851527455 10.735593765351652 0.14030662038415187 -0.84804810408105047 0 0.52991925155115449 0.52991925155115449 0 0.84804810408105047 forward_v I I I I #
loop $-1 $-1 $254 $62 #
coedge $-1 $160 $160 $161 $255 reversed $98 $-1 #
coedge $-1 $161 $161 $160 $255 forward $100 $-1 #
coedge $-1 $162 $162 $101 $163 forward $157 $-1 #
edge $-1 $256 0 $256 6.2831853071796004 $162 $257 forward 7 unknown #
loop $-1 $-1 $169 $102 #
plane-surface $-1 -59.876094851527455 10.735593765351652 0.14030662038415187 -0.84804810408105047 0 0.52991925155115449 0.52991925155115449 0 0.84804810408105047 forward_v I I I I #
loop $-1 $-1 $258 $65 #
coedge $-1 $167 $167 $168 $259 reversed $103 $-1 #
coedge $-1 $168 $168 $167 $259 forward $105 $-1 #
coedge $-1 $169 $169 $106 $170 forward $164 $-1 #
edge $-1 $260 0 $260 6.2831853071796004 $169 $261 forward 7 unknown #
face $-1 $262 $263 $36 $-1 $264 reversed single #
loop $-1 $-1 $265 $107 #
plane-surface $-1 68.739461753210378 -26.986620331192775 171.56188608961696 0 1 0 0.74314483375859142 0 0.66913059716165679 forward_v I I I I #
coedge $-1 $266 $267 $268 $269 reversed $108 $-1 #
coedge $-1 $176 $110 $270 $271 reversed $69 $-1 #
coedge $-1 $110 $175 $266 $272 reversed $69 $-1 #
coedge $-1 $268 $273 $110 $178 forward $274 $-1 #
edge $-1 $275 -25.506363974922266 $276 -19.604011151449782 $177 $277 forward 7 unknown #
loop $-1 $-1 $184 $111 #
plane-surface $-1 -20.253759355893663 -22.767781681566895 91.43203188219583 0.74314483375859142 0 0.66913059716165679 0.66913059716165679 0 -0.74314483375859142 forward_v I I I I #
loop $-1 $-1 $278 $71 #
coedge $-1 $182 $182 $183 $279 reversed $112 $-1 #
coedge $-1 $183 $183 $182 $279 forward $114 $-1 #
coedge $-1 $184 $184 $115 $185 forward $179 $-1 #
edge $-1 $280 0 $280 6.2831853071796004 $184 $281 forward 7 unknown #
loop $-1 $-1 $191 $116 #
plane-surface $-1 -20.253759355893663 -22.767781681566895 91.43203188219583 0.74314483375859142 0 0.66913059716165679 0.66913059716165679 0 -0.74314483375859142 forward_v I I I I #
loop $-1 $-1 $282 $74 #
coedge $-1 $189 $189 $190 $283 reversed $117 $-1 #
coedge $-1 $190 $190 $189 $283 forward $119 $-1 #
coedge $-1 $191 $191 $120 $192 forward $186 $-1 #
edge $-1 $284 0 $284 6.2831853071796004 $191 $285 forward 7 unknown #
loop $-1 $-1 $198 $121 #
plane-surface $-1 -20.253759355893663 -22.767781681566895 91.43203188219583 0.74314483375859142 0 0.66913059716165679 0.66913059716165679 0 -0.74314483375859142 forward_v I I I I #
loop $-1 $-1 $286 $77 #
coedge $-1 $196 $196 $197 $287 reversed $122 $-1 #
coedge $-1 $197 $197 $196 $287 forward $124 $-1 #
coedge $-1 $198 $198 $125 $199 forward $193 $-1 #
edge $-1 $288 0 $288 6.2831853071796004 $198 $289 forward 7 unknown #
face $-1 $290 $291 $30 $-1 $292 reversed single #
loop $-1 $-1 $293 $126 #
plane-surface $-1 -59.876094851527455 0 0 1 0 0 0 0 -1 forward_v I I I I #
coedge $-1 $211 $294 $213 $295 reversed $127 $-1 #
coedge $-1 $296 $129 $294 $297 forward $81 $-1 #
coedge $-1 $129 $296 $298 $299 forward $81 $-1 #
coedge $-1 $214 $213 $129 $207 reversed $215 $-1 #
edge $-1 $300 -35.770699397460568 $301 35.770699397460568 $206 $302 forward 7 unknown #
coedge $-1 $131 $130 $303 $304 forward $51 $-1 #
coedge $-1 $305 $306 $130 $210 reversed $291 $-1 #
edge $-1 $217 -59.876094851527455 $307 59.876094851527455 $209 $308 forward 7 unknown #
coedge $-1 $309 $203 $131 $212 reversed $127 $-1 #
edge $-1 $310 -59.876094851527455 $216 59.876094851527455 $211 $311 forward 7 unknown #
coedge $-1 $206 $132 $203 $295 forward $215 $-1 #
coedge $-1 $132 $206 $305 $312 reversed $215 $-1 #
loop $-1 $-1 $213 $290 #
vertex $-1 $133 $313 #
vertex $-1 $133 $314 #
straight-curve $-1 59.876094851527455 0 8.9940378489272188 0 1 0 I I #
face $-1 $315 $316 $31 $-1 $317 reversed single #
loop $-1 $-1 $231 $134 #
plane-surface $-1 0 -40.162738930594465 -4.8521196894148453 0 0 1 1 0 0 forward_v I I I I #
coedge $-1 $318 $319 $138 $227 forward $135 $-1 #
coedge $-1 $320 $137 $319 $321 forward $85 $-1 #
coedge $-1 $137 $320 $322 $323 forward $85 $-1 #
coedge $-1 $139 $138 $137 $226 reversed $54 $-1 #
edge $-1 $324 -59.876094851527455 $325 59.876094851527455 $137 $326 forward 7 unknown #
edge $-1 $325 -8.9940378489272188 $233 -4.8521196894148453 $222 $327 forward 7 unknown #
coedge $-1 $322 $328 $139 $229 forward $329 $-1 #
edge $-1 $232 4.8521196894148453 $324 8.9940378489272188 $228 $330 forward 7 unknown #
coedge $-1 $331 $140 $328 $332 forward $220 $-1 #
coedge $-1 $140 $331 $318 $333 forward $220 $-1 #
vertex $-1 $229 $334 #
vertex $-1 $333 $335 #
straight-curve $-1 0 -35.770699397460568 -4.8521196894148453 1 0 0 I I #
face $-1 $-1 $336 $32 $-1 $337 reversed single #
loop $-1 $-1 $148 $142 #
plane-surface $-1 0 0 8.9940378489272188 0 0 1 1 0 0 forward_v I I I I #
coedge $-1 $338 $339 $340 $341 reversed $143 $-1 #
coedge $-1 $342 $145 $147 $245 forward $89 $-1 #
coedge $-1 $145 $342 $338 $343 forward $89 $-1 #
coedge $-1 $340 $148 $145 $242 forward $236 $-1 #
edge $-1 $248 -0.88198331912950323 $344 11.617577084481155 $241 $345 forward 7 unknown #
coedge $-1 $346 $347 $146 $244 forward $336 $-1 #
edge $-1 $348 -31.659342059335287 $247 -22.805610830792219 $243 $349 forward 7 unknown #
edge $-1 $248 -10.440128556312285 $348 0 $147 $350 forward 7 unknown #
coedge $-1 $148 $340 $346 $351 forward $236 $-1 #
vertex $-1 $244 $352 #
vertex $-1 $149 $353 #
straight-curve $-1 -80.715856144378733 4.4858135635463228 8.9940378489272206 1 0 0 I I #
coedge $-1 $250 $250 $-1 $354 reversed $152 $-1 #
edge $-1 $355 0 $355 6.2831853071796004 $153 $356 forward 7 unknown #
vertex $-1 $156 $357 #
ellipse-curve $-1 -57.109882296198037 6.9857256442684559 4.5671722346556827 -0.84804810408105047 0 0.52991925155115449 0.26495962577557725 0 0.42402405204052523 1 I I #
coedge $-1 $254 $254 $-1 $358 reversed $159 $-1 #
edge $-1 $359 0 $359 6.2831853071796004 $160 $360 forward 7 unknown #
vertex $-1 $163 $361 #
ellipse-curve $-1 -57.109882296198037 10.735593765351652 4.5671722346556827 -0.84804810408105047 0 0.52991925155115449 0.26495962577557725 0 0.42402405204052523 1 I I #
coedge $-1 $258 $258 $-1 $362 reversed $166 $-1 #
edge $-1 $363 0 $363 6.2831853071796004 $167 $364 forward 7 unknown #
vertex $-1 $170 $365 #
ellipse-curve $-1 -57.109882296198037 14.485461886434848 4.5671722346556827 -0.84804810408105047 0 0.52991925155115449 0.26495962577557725 0 0.42402405204052523 1 I I #
face $-1 $-1 $274 $36 $-1 $366 forward single #
loop $-1 $-1 $367 $171 #
plane-surface $-1 59.876094851527455 0 0 -1 0 0 0 0 1 forward_v I I I I #
coedge $-1 $368 $369 $370 $371 reversed $172 $-1 #
coedge $-1 $372 $174 $176 $272 forward $108 $-1 #
coedge $-1 $174 $372 $368 $373 forward $108 $-1 #
coedge $-1 $370 $177 $174 $269 forward $274 $-1 #
edge $-1 $276 7.1650521911575673 $374 15.602729490409327 $268 $375 forward 7 unknown #
coedge $-1 $376 $377 $175 $271 forward $263 $-1 #
edge $-1 $378 -83.342132271716679 $275 -76.786905195881261 $270 $379 forward 7 unknown #
edge $-1 $276 110.93126169810441 $378 119.75218970305487 $176 $380 forward 7 unknown #
coedge $-1 $177 $370 $376 $381 forward $274 $-1 #
loop $-1 $-1 $370 $262 #
vertex $-1 $271 $382 #
vertex $-1 $178 $383 #
straight-curve $-1 34.369730876605189 -18.548943031941015 8.9940378489272206 -1 0 0 I I #
coedge $-1 $278 $278 $-1 $384 reversed $181 $-1 #
edge $-1 $385 0 $385 6.2831853071796004 $182 $386 forward 7 unknown #
vertex $-1 $185 $387 #
ellipse-curve $-1 56.924918439791206 -25.299084871342423 5.7164243110095114 0.74314483375859142 0 0.66913059716165679 0.1672826492904142 0 -0.18578620843964785 1 I I #
coedge $-1 $282 $282 $-1 $388 reversed $188 $-1 #
edge $-1 $389 0 $389 6.2831853071796004 $189 $390 forward 7 unknown #
vertex $-1 $192 $391 #
ellipse-curve $-1 56.924918439791206 -22.767781681566895 5.7164243110095114 0.74314483375859142 0 0.66913059716165679 0.1672826492904142 0 -0.18578620843964785 1 I I #
coedge $-1 $286 $286 $-1 $392 reversed $195 $-1 #
edge $-1 $393 0 $393 6.2831853071796004 $196 $394 forward 7 unknown #
vertex $-1 $199 $395 #
ellipse-curve $-1 56.924918439791206 -20.236478491791367 5.7164243110095114 0.74314483375859142 0 0.66913059716165679 0.1672826492904142 0 -0.18578620843964785 1 I I #
face $-1 $-1 $215 $30 $-1 $396 reversed single #
loop $-1 $-1 $305 $200 #
plane-surface $-1 0 35.770699397460568 0 0 -1 0 0 0 -1 forward_v I I I I #
coedge $-1 $397 $303 $306 $398 forward $201 $-1 #
coedge $-1 $203 $309 $204 $297 reversed $127 $-1 #
edge $-1 $216 -8.9940378489272188 $301 8.9940378489272188 $213 $399 forward 7 unknown #
coedge $-1 $205 $204 $397 $400 forward $81 $-1 #
edge $-1 $301 -59.876094851527455 $401 59.876094851527455 $294 $402 forward 7 unknown #
coedge $-1 $306 $305 $205 $299 reversed $291 $-1 #
edge $-1 $403 -59.876094851527455 $300 59.876094851527455 $298 $404 forward 7 unknown #
vertex $-1 $207 $405 #
vertex $-1 $295 $406 #
straight-curve $-1 59.876094851527455 0 -8.9940378489272188 0 -1 0 I I #
coedge $-1 $293 $407 $208 $304 reversed $201 $-1 #
edge $-1 $307 -35.770699397460568 $310 35.770699397460568 $303 $408 forward 7 unknown #
coedge $-1 $298 $209 $214 $312 forward $291 $-1 #
coedge $-1 $209 $298 $293 $398 reversed $291 $-1 #
vertex $-1 $210 $409 #
straight-curve $-1 0 35.770699397460568 8.9940378489272188 -1 0 0 I I #
coedge $-1 $294 $211 $407 $410 forward $127 $-1 #
vertex $-1 $304 $411 #
straight-curve $-1 0 -35.770699397460568 8.9940378489272188 1 0 0 I I #
edge $-1 $217 -8.9940378489272188 $300 8.9940378489272188 $214 $412 forward 7 unknown #
point $-1 59.876094851527455 -35.770699397460568 8.9940378489272188 #
point $-1 59.876094851527455 35.770699397460568 8.9940378489272188 #
face $-1 $-1 $329 $31 $-1 $413 reversed single #
loop $-1 $-1 $414 $219 #
plane-surface $-1 0 -44.554778463728361 -6.923078769171032 0 1 0 0 0 1 forward_v I I I I #
coedge $-1 $415 $222 $231 $333 reversed $135 $-1 #
coedge $-1 $222 $415 $223 $321 reversed $135 $-1 #
coedge $-1 $224 $223 $416 $417 forward $85 $-1 #
edge $-1 $325 35.770699397460568 $418 44.554778463728361 $319 $419 forward 7 unknown #
coedge $-1 $420 $228 $224 $323 reversed $329 $-1 #
edge $-1 $421 -44.554778463728361 $324 -35.770699397460568 $322 $422 forward 7 unknown #
vertex $-1 $229 $423 #
vertex $-1 $321 $424 #
straight-curve $-1 0 -35.770699397460568 -8.9940378489272188 1 0 0 I I #
straight-curve $-1 59.876094851527455 -35.770699397460568 0 0 0 1 I I #
coedge $-1 $228 $420 $230 $332 reversed $329 $-1 #
loop $-1 $-1 $228 $315 #
straight-curve $-1 -59.876094851527455 -35.770699397460568 0 0 0 -1 I I #
coedge $-1 $231 $230 $425 $426 forward $220 $-1 #
edge $-1 $232 -4.3920395331338966 $427 4.3920395331338966 $328 $428 forward 7 unknown #
edge $-1 $429 -4.3920395331338966 $233 4.3920395331338966 $318 $430 forward 7 unknown #
point $-1 -59.876094851527455 -35.770699397460568 -4.8521196894148453 #
point $-1 59.876094851527455 -35.770699397460568 -4.8521196894148453 #
loop $-1 $-1 $243 $235 #
plane-surface $-1 -59.876094851527455 0 0 1 0 0 0 0 -1 forward_v I I I I #
coedge $-1 $339 $238 $240 $343 reversed $143 $-1 #
coedge $-1 $238 $338 $431 $432 reversed $143 $-1 #
coedge $-1 $246 $241 $238 $341 forward $236 $-1 #
edge $-1 $344 -26.372186403510121 $433 -20.839761292851279 $340 $434 forward 7 unknown #
coedge $-1 $240 $239 $347 $435 reversed $89 $-1 #
edge $-1 $436 0 $344 10.440128556312285 $338 $437 forward 7 unknown #
vertex $-1 $242 $438 #
straight-curve $-1 -54.343669740868613 5.367796882675826 8.9940378489272188 0 1 0 I I #
coedge $-1 $431 $243 $246 $351 reversed $336 $-1 #
coedge $-1 $243 $431 $342 $435 forward $336 $-1 #
vertex $-1 $244 $439 #
straight-curve $-1 -59.876094851527455 4.4858135635463228 31.799648679719439 0 0 1 I I #
straight-curve $-1 -59.876094851527455 4.4858135635463228 0.14030662038415187 -0.52991925155115449 0 -0.84804810408105047 I I #
edge $-1 $433 -16.985373967156981 $247 -4.4858135635463228 $346 $440 forward 7 unknown #
point $-1 -59.876094851527455 4.4858135635463228 8.9940378489272188 #
point $-1 -54.343669740868613 4.4858135635463228 8.9940378489272188 #
edge $-1 $441 1 $441 0 $250 $-1 forward 7 unknown #
vertex $-1 $251 $442 #
ellipse-curve $-1 -55.595200107798377 6.9857256442684559 3.6206937887373623 -0.84804810408105047 0 0.52991925155115449 0.26495962577557725 0 0.42402405204052523 1 I I #
point $-1 -56.844922670422456 6.9857256442684559 4.9911962866962059 #
edge $-1 $443 1 $443 0 $254 $-1 forward 7 unknown #
vertex $-1 $255 $444 #
ellipse-curve $-1 -55.595200107798377 10.735593765351652 3.6206937887373623 -0.84804810408105047 0 0.52991925155115449 0.26495962577557725 0 0.42402405204052523 1 I I #
point $-1 -56.844922670422456 10.735593765351652 4.9911962866962059 #
edge $-1 $445 1 $445 0 $258 $-1 forward 7 unknown #
vertex $-1 $259 $446 #
ellipse-curve $-1 -55.595200107798377 14.485461886434848 3.6206937887373623 -0.84804810408105047 0 0.52991925155115449 0.26495962577557725 0 0.42402405204052523 1 I I #
point $-1 -56.844922670422456 14.485461886434848 4.9911962866962059 #
plane-surface $-1 0 0 8.9940378489272188 0 0 1 1 0 0 forward_v I I I I #
coedge $-1 $377 $376 $369 $447 forward $263 $-1 #
coedge $-1 $369 $265 $267 $373 reversed $172 $-1 #
coedge $-1 $265 $368 $367 $447 reversed $172 $-1 #
coedge $-1 $273 $268 $265 $371 forward $274 $-1 #
edge $-1 $374 19.604011151449782 $448 25.506363974922266 $370 $449 forward 7 unknown #
coedge $-1 $267 $266 $377 $450 reversed $108 $-1 #
edge $-1 $451 -119.75218970305487 $374 -110.93126169810441 $368 $452 forward 7 unknown #
vertex $-1 $269 $453 #
straight-curve $-1 53.973742028054964 -11.383890840783447 8.9940378489272206 0 -1 0 I I #
coedge $-1 $367 $270 $273 $381 reversed $263 $-1 #
coedge $-1 $270 $367 $372 $450 forward $263 $-1 #
vertex $-1 $271 $454 #
straight-curve $-1 59.876094851527455 -18.548943031941015 85.780943044808481 0 0 1 I I #
straight-curve $-1 -20.253759355893663 -18.548943031941015 91.43203188219583 0.66913059716165679 0 -0.74314483375859142 I I #
edge $-1 $448 -26.986620331192775 $275 -18.548943031941015 $376 $455 forward 7 unknown #
point $-1 59.876094851527455 -18.548943031941015 8.9940378489272188 #
point $-1 53.973742028054971 -18.548943031941015 8.9940378489272206 #
edge $-1 $456 1 $456 0 $278 $-1 forward 7 unknown #
vertex $-1 $279 $457 #
ellipse-curve $-1 56.181773606032607 -25.299084871342423 5.0472937138478446 0.74314483375859142 0 0.66913059716165679 0.1672826492904142 0 -0.18578620843964785 1 I I #
point $-1 57.092201089081613 -25.299084871342423 5.5306381025698537 #
edge $-1 $458 1 $458 0 $282 $-1 forward 7 unknown #
vertex $-1 $283 $459 #
ellipse-curve $-1 56.181773606032607 -22.767781681566895 5.0472937138478446 0.74314483375859142 0 0.66913059716165679 0.1672826492904142 0 -0.18578620843964785 1 I I #
point $-1 57.092201089081613 -22.767781681566895 5.5306381025698537 #
edge $-1 $460 1 $460 0 $286 $-1 forward 7 unknown #
vertex $-1 $287 $461 #
ellipse-curve $-1 56.181773606032607 -20.236478491791367 5.0472937138478446 0.74314483375859142 0 0.66913059716165679 0.1672826492904142 0 -0.18578620843964785 1 I I #
point $-1 57.092201089081613 -20.236478491791367 5.5306381025698537 #
plane-surface $-1 59.876094851527455 0 0 -1 0 0 0 0 1 forward_v I I I I #
coedge $-1 $407 $293 $296 $400 reversed $201 $-1 #
edge $-1 $307 -8.9940378489272188 $403 8.9940378489272188 $306 $462 forward 7 unknown #
straight-curve $-1 59.876094851527455 -35.770699397460568 0 0 0 -1 I I #
edge $-1 $401 -35.770699397460568 $403 35.770699397460568 $397 $463 forward 7 unknown #
vertex $-1 $400 $464 #
straight-curve $-1 0 -35.770699397460568 -8.9940378489272188 -1 0 0 I I #
vertex $-1 $299 $465 #
straight-curve $-1 0 35.770699397460568 -8.9940378489272188 1 0 0 I I #
point $-1 59.876094851527455 35.770699397460568 -8.9940378489272188 #
point $-1 59.876094851527455 -35.770699397460568 -8.9940378489272188 #
coedge $-1 $303 $397 $309 $410 reversed $201 $-1 #
straight-curve $-1 -59.876094851527455 0 8.9940378489272188 0 -1 0 I I #
point $-1 -59.876094851527455 35.770699397460568 8.9940378489272188 #
edge $-1 $310 -8.9940378489272188 $401 8.9940378489272188 $407 $466 forward 7 unknown #
point $-1 -59.876094851527455 -35.770699397460568 8.9940378489272188 #
straight-curve $-1 59.876094851527455 35.770699397460568 0 0 0 -1 I I #
plane-surface $-1 -59.876094851527455 0 0 1 0 0 0 0 -1 forward_v I I I I #
coedge $-1 $416 $425 $420 $467 forward $316 $-1 #
coedge $-1 $319 $318 $468 $469 forward $135 $-1 #
coedge $-1 $468 $414 $320 $417 reversed $316 $-1 #
edge $-1 $418 -59.876094851527455 $421 59.876094851527455 $416 $470 forward 7 unknown #
vertex $-1 $469 $471 #
straight-curve $-1 59.876094851527455 0 -8.9940378489272188 0 -1 0 I I #
coedge $-1 $328 $322 $414 $467 reversed $329 $-1 #
vertex $-1 $323 $472 #
straight-curve $-1 -59.876094851527455 0 -8.9940378489272188 0 1 0 I I #
point $-1 -59.876094851527455 -35.770699397460568 -8.9940378489272188 #
point $-1 59.876094851527455 -35.770699397460568 -8.9940378489272188 #
coedge $-1 $414 $468 $331 $426 reversed $316 $-1 #
edge $-1 $427 -59.876094851527455 $429 59.876094851527455 $425 $473 forward 7 unknown #
vertex $-1 $332 $474 #
straight-curve $-1 -59.876094851527455 -40.162738930594465 -4.8521196894148453 0 -1 0 I I #
vertex $-1 $333 $475 #
straight-curve $-1 59.876094851527455 -40.162738930594465 -4.8521196894148453 0 1 0 I I #
coedge $-1 $347 $346 $339 $432 forward $336 $-1 #
edge $-1 $433 22.805610830792219 $436 31.659342059335287 $431 $476 forward 7 unknown #
vertex $-1 $351 $477 #
straight-curve $-1 -80.715856144378733 16.985373967156981 8.9940378489272206 -1 0 0 I I #
edge $-1 $436 -11.617577084481155 $348 0.88198331912950323 $347 $478 forward 7 unknown #
vertex $-1 $435 $479 #
straight-curve $-1 -59.876094851527455 16.985373967156981 0.14030662038415187 0.52991925155115449 0 0.84804810408105047 I I #
point $-1 -54.343669740868613 16.985373967156981 8.9940378489272188 #
point $-1 -59.876094851527455 4.4858135635463228 0.14030662038415187 #
straight-curve $-1 -59.876094851527455 0 8.9940378489272188 0 -1 0 I I #
vertex $-1 $354 $480 #
point $-1 -55.330240482022802 6.9857256442684559 4.0447178407778877 #
vertex $-1 $358 $481 #
point $-1 -55.330240482022802 10.735593765351652 4.0447178407778877 #
vertex $-1 $362 $482 #
point $-1 -55.330240482022802 14.485461886434848 4.0447178407778877 #
edge $-1 $448 76.786905195881261 $451 83.342132271716679 $367 $483 forward 7 unknown #
vertex $-1 $381 $484 #
straight-curve $-1 34.369730876605189 -26.986620331192775 8.9940378489272206 1 0 0 I I #
edge $-1 $451 -15.602729490409327 $378 -7.1650521911575673 $377 $485 forward 7 unknown #
vertex $-1 $450 $486 #
straight-curve $-1 -20.253759355893663 -26.986620331192775 91.43203188219583 -0.66913059716165679 0 0.74314483375859142 I I #
point $-1 53.973742028054971 -26.986620331192775 8.9940378489272206 #
point $-1 59.876094851527455 -18.548943031941015 2.4388107730918023 #
straight-curve $-1 59.876094851527455 0 8.9940378489272188 0 1 0 I I #
vertex $-1 $384 $487 #
point $-1 56.349056255323021 -25.299084871342423 4.8615075054081966 #
vertex $-1 $388 $488 #
point $-1 56.349056255323021 -22.767781681566895 4.8615075054081966 #
vertex $-1 $392 $489 #
point $-1 56.349056255323021 -20.236478491791367 4.8615075054081966 #
straight-curve $-1 -59.876094851527455 35.770699397460568 0 0 0 -1 I I #
straight-curve $-1 -59.876094851527455 0 -8.9940378489272188 0 1 0 I I #
point $-1 -59.876094851527455 -35.770699397460568 -8.9940378489272188 #
point $-1 -59.876094851527455 35.770699397460568 -8.9940378489272188 #
straight-curve $-1 -59.876094851527455 -35.770699397460568 0 0 0 -1 I I #
edge $-1 $427 -2.0709590797561868 $421 2.0709590797561868 $420 $490 forward 7 unknown #
coedge $-1 $425 $416 $415 $469 reversed $316 $-1 #
edge $-1 $429 -2.0709590797561868 $418 2.0709590797561868 $415 $491 forward 7 unknown #
straight-curve $-1 0 -44.554778463728361 -8.9940378489272188 -1 0 0 I I #
point $-1 59.876094851527455 -44.554778463728361 -8.9940378489272188 #
point $-1 -59.876094851527455 -44.554778463728361 -8.9940378489272188 #
straight-curve $-1 0 -44.554778463728361 -4.8521196894148453 1 0 0 I I #
point $-1 -59.876094851527455 -44.554778463728361 -4.8521196894148453 #
point $-1 59.876094851527455 -44.554778463728361 -4.8521196894148453 #
straight-curve $-1 -59.876094851527455 16.985373967156981 31.799648679719439 0 0 -1 I I #
point $-1 -59.876094851527455 16.985373967156981 8.9940378489272188 #
straight-curve $-1 -59.876094851527455 5.367796882675826 0.14030662038414704 0 -1 0 I I #
point $-1 -59.876094851527455 16.985373967156981 0.14030662038415187 #
point $-1 -55.171176055757854 6.9857256442684559 3.3557341629617849 #
point $-1 -55.171176055757854 10.735593765351652 3.3557341629617849 #
point $-1 -55.171176055757854 14.485461886434848 3.3557341629617849 #
straight-curve $-1 59.876094851527455 -26.986620331192775 85.780943044808481 0 0 -1 I I #
point $-1 59.876094851527455 -26.986620331192775 8.9940378489272188 #
straight-curve $-1 59.876094851527455 -11.383890840783447 2.4388107730918094 0 1 0 I I #
point $-1 59.876094851527455 -26.986620331192775 2.4388107730918023 #
point $-1 55.995987397592955 -25.299084871342423 4.8800110645574311 #
point $-1 55.995987397592955 -22.767781681566895 4.8800110645574311 #
point $-1 55.995987397592955 -20.236478491791367 4.8800110645574311 #
straight-curve $-1 -59.876094851527455 -44.554778463728361 -6.923078769171032 0 0 -1 I I #
straight-curve $-1 59.876094851527455 -44.554778463728361 -6.923078769171032 0 0 -1 I I #
End-of-ACIS-data 