500 0 16 0           
7 Unknown 11 ACIS 5.0 NT 24 Thu Mar 25 23:45:42 1999 
-1 9.9999999999999995e-007 1e-010 
body $-1 $16 $-1 $17 #
body $-1 $18 $-1 $19 #
body $-1 $20 $-1 $21 #
body $-1 $22 $-1 $23 #
body $-1 $24 $-1 $25 #
body $-1 $26 $-1 $27 #
body $-1 $28 $-1 $29 #
body $-1 $30 $-1 $31 #
body $-1 $32 $-1 $33 #
body $-1 $34 $-1 $35 #
body $-1 $36 $-1 $37 #
body $-1 $38 $-1 $39 #
body $-1 $40 $-1 $41 #
body $-1 $42 $-1 $43 #
body $-1 $44 $-1 $45 #
body $-1 $46 $-1 $47 #
lump $-1 $-1 $48 $0 #
transform $-1 1 0 0 0 1 0 0 0 1 43.982055116428114 23.162289538090008 6.8714250356109918 1 rotate no_reflect no_shear #
lump $-1 $-1 $49 $1 #
transform $-1 1 0 0 0 1 0 0 0 1 43.982055116428114 23.162289538090008 6.8714250356109918 1 rotate no_reflect no_shear #
lump $-1 $-1 $50 $2 #
transform $-1 1 0 0 0 1 0 0 0 1 43.982055116428114 23.162289538090008 6.8714250356109918 1 rotate no_reflect no_shear #
lump $-1 $-1 $51 $3 #
transform $-1 1 0 0 0 1 0 0 0 1 43.982055116428114 23.162289538090008 6.8714250356109918 1 rotate no_reflect no_shear #
lump $-1 $-1 $52 $4 #
transform $-1 1 0 0 0 1 0 0 0 1 43.982055116428114 23.162289538090008 6.8714250356109918 1 rotate no_reflect no_shear #
lump $-1 $-1 $53 $5 #
transform $-1 1 0 0 0 1 0 0 0 1 43.982055116428114 23.162289538090008 6.8714250356109918 1 rotate no_reflect no_shear #
lump $-1 $-1 $54 $6 #
transform $-1 1 0 0 0 1 0 0 0 1 43.982055116428114 23.162289538090008 6.8714250356109918 1 rotate no_reflect no_shear #
lump $-1 $-1 $55 $7 #
transform $-1 1 0 0 0 1 0 0 0 1 43.982055116428114 23.162289538090008 6.8714250356109918 1 rotate no_reflect no_shear #
lump $-1 $-1 $56 $8 #
transform $-1 1 0 0 0 1 0 0 0 1 43.982055116428114 23.162289538090008 6.8714250356109918 1 rotate no_reflect no_shear #
lump $-1 $-1 $57 $9 #
transform $-1 1 0 0 0 1 0 0 0 1 43.982055116428114 23.162289538090008 6.8714250356109918 1 rotate no_reflect no_shear #
lump $-1 $-1 $58 $10 #
transform $-1 1 0 0 0 1 0 0 0 1 43.982055116428114 23.162289538090008 6.8714250356109918 1 rotate no_reflect no_shear #
lump $-1 $-1 $59 $11 #
transform $-1 1 0 0 0 1 0 0 0 1 43.982055116428114 23.162289538090008 6.8714250356109918 1 rotate no_reflect no_shear #
lump $-1 $-1 $60 $12 #
transform $-1 1 0 0 0 1 0 0 0 1 43.982055116428114 23.162289538090008 6.8714250356109918 1 rotate no_reflect no_shear #
lump $-1 $-1 $61 $13 #
transform $-1 1 0 0 0 1 0 0 0 1 43.982055116428114 23.162289538090008 6.8714250356109918 1 rotate no_reflect no_shear #
lump $-1 $-1 $62 $14 #
transform $-1 1 0 0 0 1 0 0 0 1 43.982055116428114 23.162289538090008 6.8714250356109918 1 rotate no_reflect no_shear #
lump $-1 $-1 $63 $15 #
transform $-1 1 0 0 0 1 0 0 0 1 43.982055116428114 23.162289538090008 6.8714250356109918 1 rotate no_reflect no_shear #
shell $-1 $-1 $-1 $64 $-1 $16 #
shell $-1 $-1 $-1 $65 $-1 $18 #
shell $-1 $-1 $-1 $66 $-1 $20 #
shell $-1 $-1 $-1 $67 $-1 $22 #
shell $-1 $-1 $-1 $68 $-1 $24 #
shell $-1 $-1 $-1 $69 $-1 $26 #
shell $-1 $-1 $-1 $70 $-1 $28 #
shell $-1 $-1 $-1 $71 $-1 $30 #
shell $-1 $-1 $-1 $72 $-1 $32 #
shell $-1 $-1 $-1 $73 $-1 $34 #
shell $-1 $-1 $-1 $74 $-1 $36 #
shell $-1 $-1 $-1 $75 $-1 $38 #
shell $-1 $-1 $-1 $76 $-1 $40 #
shell $-1 $-1 $-1 $77 $-1 $42 #
shell $-1 $-1 $-1 $78 $-1 $44 #
shell $-1 $-1 $-1 $79 $-1 $46 #
face $-1 $80 $81 $48 $-1 $82 forward single #
face $-1 $83 $84 $49 $-1 $85 forward single #
face $-1 $86 $87 $50 $-1 $88 reversed single #
face $-1 $89 $90 $51 $-1 $91 forward single #
face $-1 $92 $93 $52 $-1 $94 forward single #
face $-1 $95 $96 $53 $-1 $97 forward single #
face $-1 $98 $99 $54 $-1 $100 reversed single #
face $-1 $101 $102 $55 $-1 $103 forward single #
face $-1 $104 $105 $56 $-1 $106 forward single #
face $-1 $107 $108 $57 $-1 $109 forward single #
face $-1 $110 $111 $58 $-1 $112 reversed single #
face $-1 $113 $114 $59 $-1 $115 forward single #
face $-1 $116 $117 $60 $-1 $118 forward single #
face $-1 $119 $120 $61 $-1 $121 reversed single #
face $-1 $122 $123 $62 $-1 $124 forward single #
face $-1 $125 $126 $63 $-1 $127 forward single #
face $-1 $128 $129 $48 $-1 $130 reversed single #
loop $-1 $-1 $131 $64 #
plane-surface $-1 0 0 6.8714250356109918 0 0 1 1 0 0 forward_v I I I I #
face $-1 $132 $133 $49 $-1 $134 reversed single #
loop $-1 $-1 $135 $65 #
plane-surface $-1 -43.982055116428114 0 0 1 0 0 0 0 -1 forward_v I I I I #
face $-1 $136 $137 $50 $-1 $138 reversed single #
loop $-1 $-1 $139 $66 #
plane-surface $-1 -25.441401712711809 -76.100413244614032 71.202015565446402 -1 0 0 0 -0.6018150307709319 0.79863550430605224 forward_v I I I I #
face $-1 $140 $141 $51 $-1 $142 forward single #
loop $-1 $143 $144 $67 #
cone-surface $-1 -35.066768735393438 -18.731073123683487 3.2439594407666372 0 0.6018150307709319 -0.79863550430605224 0.5 0 0 1 I I 0 1 0.5 forward I I I I #
face $-1 $145 $146 $52 $-1 $147 forward single #
loop $-1 $148 $149 $68 #
cone-surface $-1 -31.457256101887825 -18.731073123683487 3.2439594407666372 0 0.6018150307709319 -0.79863550430605224 0.5 0 0 1 I I 0 1 0.5 forward I I I I #
face $-1 $150 $151 $53 $-1 $152 forward single #
loop $-1 $153 $154 $69 #
cone-surface $-1 -27.847743468382216 -18.731073123683487 3.2439594407666372 0 0.6018150307709319 -0.79863550430605224 0.5 0 0 1 I I 0 1 0.5 forward I I I I #
face $-1 $155 $156 $54 $-1 $157 reversed single #
loop $-1 $-1 $158 $70 #
plane-surface $-1 15.28618109103417 -76.100413244614032 71.202015565446402 -1 0 0 0 -0.6018150307709319 0.79863550430605224 forward_v I I I I #
face $-1 $159 $160 $55 $-1 $161 forward single #
loop $-1 $162 $163 $71 #
cone-surface $-1 5.6608140683525434 -18.731073123683487 3.2439594407666372 0 0.6018150307709319 -0.79863550430605224 0.5 0 0 1 I I 0 1 0.5 forward I I I I #
face $-1 $164 $165 $56 $-1 $166 forward single #
loop $-1 $167 $168 $72 #
cone-surface $-1 9.2703267018581528 -18.731073123683487 3.2439594407666372 0 0.6018150307709319 -0.79863550430605224 0.5 0 0 1 I I 0 1 0.5 forward I I I I #
face $-1 $169 $170 $57 $-1 $171 forward single #
loop $-1 $172 $173 $73 #
cone-surface $-1 12.879839335363769 -18.731073123683487 3.2439594407666372 0 0.6018150307709319 -0.79863550430605224 0.5 0 0 1 I I 0 1 0.5 forward I I I I #
face $-1 $174 $175 $58 $-1 $176 reversed single #
loop $-1 $-1 $177 $74 #
plane-surface $-1 -30.174471794554293 52.605885486141332 95.505367970567903 1 0 0 0 -0.70710678939079041 -0.70710677298230451 forward_v I I I I #
face $-1 $178 $179 $59 $-1 $180 forward single #
loop $-1 $181 $182 $75 #
cone-surface $-1 -25.912768099317766 17.891221515546771 1.6003569886691844 0 -0.70710678939079041 -0.70710677298230451 2 0 0 1 I I 0 1 2 forward I I I I #
face $-1 $183 $184 $60 $-1 $185 forward single #
loop $-1 $186 $187 $76 #
cone-surface $-1 -19.520212556462972 17.891221515546771 1.6003569886691844 0 -0.70710678939079041 -0.70710677298230451 2 0 0 1 I I 0 1 2 forward I I I I #
face $-1 $188 $189 $61 $-1 $190 reversed single #
loop $-1 $-1 $191 $77 #
plane-surface $-1 10.55311100919168 52.605885486141332 95.505367970567903 1 0 0 0 -0.70710678939079041 -0.70710677298230451 forward_v I I I I #
face $-1 $192 $193 $62 $-1 $194 forward single #
loop $-1 $195 $196 $78 #
cone-surface $-1 14.814814704428208 17.891221515546771 1.6003569886691844 0 -0.70710678939079041 -0.70710677298230451 2 0 0 1 I I 0 1 2 forward I I I I #
face $-1 $197 $198 $63 $-1 $199 forward single #
loop $-1 $200 $201 $79 #
cone-surface $-1 21.207370247282995 17.891221515546771 1.6003569886691844 0 -0.70710678939079041 -0.70710677298230451 2 0 0 1 I I 0 1 2 forward I I I I #
face $-1 $202 $203 $48 $-1 $204 reversed single #
loop $-1 $-1 $205 $80 #
plane-surface $-1 0 0 -6.8714250356109918 0 0 1 1 0 0 forward_v I I I I #
coedge $-1 $206 $207 $208 $209 forward $81 $-1 #
face $-1 $210 $211 $49 $-1 $212 forward single #
loop $-1 $-1 $213 $83 #
plane-surface $-1 0 23.162289538090008 0 0 -1 0 0 0 -1 forward_v I I I I #
coedge $-1 $214 $215 $216 $217 forward $84 $-1 #
face $-1 $218 $219 $50 $-1 $220 reversed single #
loop $-1 $-1 $221 $86 #
plane-surface $-1 -31.457256101887825 -23.162289538090015 0.95075402879609783 0 -0.6018150307709319 0.79863550430605224 1 0 0 forward_v I I I I #
coedge $-1 $222 $223 $224 $225 reversed $87 $-1 #
face $-1 $-1 $226 $51 $-1 $227 forward single #
loop $-1 $228 $229 $89 #
cone-surface $-1 -35.066768735393438 -18.077900773664737 2.3771704732532175 0 0.6018150307709319 -0.79863550430605224 0.25 0 0 1 I I -0.70710678118654746 0.70710678118654746 0.25 forward I I I I #
loop $-1 $-1 $230 $67 #
coedge $-1 $144 $144 $231 $232 reversed $90 $-1 #
face $-1 $-1 $233 $52 $-1 $234 forward single #
loop $-1 $235 $236 $92 #
cone-surface $-1 -31.457256101887825 -18.077900773664737 2.3771704732532175 0 0.6018150307709319 -0.79863550430605224 0.25 0 0 1 I I -0.70710678118654746 0.70710678118654746 0.25 forward I I I I #
loop $-1 $-1 $237 $68 #
coedge $-1 $149 $149 $238 $239 reversed $93 $-1 #
face $-1 $-1 $240 $53 $-1 $241 forward single #
loop $-1 $242 $243 $95 #
cone-surface $-1 -27.847743468382216 -18.077900773664737 2.3771704732532175 0 0.6018150307709319 -0.79863550430605224 0.25 0 0 1 I I -0.70710678118654746 0.70710678118654746 0.25 forward I I I I #
loop $-1 $-1 $244 $69 #
coedge $-1 $154 $154 $245 $246 reversed $96 $-1 #
face $-1 $247 $248 $54 $-1 $249 reversed single #
loop $-1 $-1 $250 $98 #
plane-surface $-1 9.2703267018581528 -23.162289538090015 0.95075402879609783 0 -0.6018150307709319 0.79863550430605224 1 0 0 forward_v I I I I #
coedge $-1 $251 $252 $253 $254 reversed $99 $-1 #
face $-1 $-1 $255 $55 $-1 $256 forward single #
loop $-1 $257 $258 $101 #
cone-surface $-1 5.6608140683525434 -18.077900773664737 2.3771704732532175 0 0.6018150307709319 -0.79863550430605224 0.25 0 0 1 I I -0.70710678118654746 0.70710678118654746 0.25 forward I I I I #
loop $-1 $-1 $259 $71 #
coedge $-1 $163 $163 $260 $261 reversed $102 $-1 #
face $-1 $-1 $262 $56 $-1 $263 forward single #
loop $-1 $264 $265 $104 #
cone-surface $-1 9.2703267018581528 -18.077900773664737 2.3771704732532175 0 0.6018150307709319 -0.79863550430605224 0.25 0 0 1 I I -0.70710678118654746 0.70710678118654746 0.25 forward I I I I #
loop $-1 $-1 $266 $72 #
coedge $-1 $168 $168 $267 $268 reversed $105 $-1 #
face $-1 $-1 $269 $57 $-1 $270 forward single #
loop $-1 $271 $272 $107 #
cone-surface $-1 12.879839335363769 -18.077900773664737 2.3771704732532175 0 0.6018150307709319 -0.79863550430605224 0.25 0 0 1 I I -0.70710678118654746 0.70710678118654746 0.25 forward I I I I #
loop $-1 $-1 $273 $73 #
coedge $-1 $173 $173 $274 $275 reversed $108 $-1 #
face $-1 $276 $277 $58 $-1 $278 reversed single #
loop $-1 $-1 $279 $110 #
plane-surface $-1 -22.716490327890369 -9.5941340822312071 33.305349845553224 0 0.70710678939079041 0.70710677298230451 1 0 0 forward_v I I I I #
coedge $-1 $280 $281 $282 $283 reversed $111 $-1 #
face $-1 $-1 $284 $59 $-1 $285 forward single #
loop $-1 $286 $287 $113 #
cone-surface $-1 -25.912768099317766 15.074296415503227 -1.2165680460073229 0 -0.70710678939079041 -0.70710677298230451 1 0 0 1 I I -0.70710678118654746 0.70710678118654746 1 forward I I I I #
loop $-1 $-1 $288 $75 #
coedge $-1 $182 $182 $289 $290 reversed $114 $-1 #
face $-1 $-1 $291 $60 $-1 $292 forward single #
loop $-1 $293 $294 $116 #
cone-surface $-1 -19.520212556462972 15.074296415503227 -1.2165680460073229 0 -0.70710678939079041 -0.70710677298230451 1 0 0 1 I I -0.70710678118654746 0.70710678118654746 1 forward I I I I #
loop $-1 $-1 $295 $76 #
coedge $-1 $187 $187 $296 $297 reversed $117 $-1 #
face $-1 $298 $299 $61 $-1 $300 reversed single #
loop $-1 $-1 $301 $119 #
plane-surface $-1 18.011092475855605 -9.5941340822312071 33.305349845553224 0 0.70710678939079041 0.70710677298230451 1 0 0 forward_v I I I I #
coedge $-1 $302 $303 $304 $305 reversed $120 $-1 #
face $-1 $-1 $306 $62 $-1 $307 forward single #
loop $-1 $308 $309 $122 #
cone-surface $-1 14.814814704428208 15.074296415503227 -1.2165680460073229 0 -0.70710678939079041 -0.70710677298230451 1 0 0 1 I I -0.70710678118654746 0.70710678118654746 1 forward I I I I #
loop $-1 $-1 $310 $78 #
coedge $-1 $196 $196 $311 $312 reversed $123 $-1 #
face $-1 $-1 $313 $63 $-1 $314 forward single #
loop $-1 $315 $316 $125 #
cone-surface $-1 21.207370247282995 15.074296415503227 -1.2165680460073229 0 -0.70710678939079041 -0.70710677298230451 1 0 0 1 I I -0.70710678118654746 0.70710678118654746 1 forward I I I I #
loop $-1 $-1 $317 $79 #
coedge $-1 $201 $201 $318 $319 reversed $126 $-1 #
face $-1 $320 $321 $48 $-1 $322 reversed single #
loop $-1 $-1 $323 $128 #
plane-surface $-1 0 -23.162289538090008 0 0 1 0 0 0 1 forward_v I I I I #
coedge $-1 $324 $325 $326 $327 forward $129 $-1 #
coedge $-1 $328 $131 $329 $330 forward $81 $-1 #
coedge $-1 $131 $328 $331 $332 forward $81 $-1 #
coedge $-1 $333 $334 $131 $209 reversed $335 $-1 #
edge $-1 $336 -23.162289538090008 $337 23.162289538090008 $208 $338 forward 7 unknown #
face $-1 $339 $340 $49 $-1 $341 reversed single #
loop $-1 $-1 $216 $132 #
plane-surface $-1 -47.236527429110247 0 5.8495227290347342 0 0 1 1 0 0 forward_v I I I I #
coedge $-1 $342 $343 $215 $344 forward $133 $-1 #
coedge $-1 $345 $135 $346 $347 reversed $84 $-1 #
coedge $-1 $135 $345 $213 $344 reversed $84 $-1 #
coedge $-1 $348 $349 $135 $217 reversed $211 $-1 #
edge $-1 $350 -23.162289538090008 $351 23.162289538090008 $216 $352 forward 7 unknown #
face $-1 $353 $354 $50 $-1 $355 reversed single #
loop $-1 $-1 $356 $136 #
plane-surface $-1 -37.473110491063842 -76.100413244614032 71.202015565446402 1 0 0 0 0.6018150307709319 -0.79863550430605224 forward_v I I I I #
coedge $-1 $357 $358 $359 $360 reversed $137 $-1 #
coedge $-1 $223 $139 $361 $362 reversed $87 $-1 #
coedge $-1 $139 $222 $357 $363 reversed $87 $-1 #
coedge $-1 $359 $364 $139 $225 forward $365 $-1 #
edge $-1 $366 14.887917084217008 $367 22.744912728378011 $224 $368 forward 7 unknown #
loop $-1 $-1 $231 $140 #
plane-surface $-1 -31.457256101887825 -23.162289538090015 0.95075402879609783 0 -0.6018150307709319 0.79863550430605224 1 0 0 forward_v I I I I #
loop $-1 $-1 $369 $89 #
coedge $-1 $229 $229 $230 $370 reversed $141 $-1 #
coedge $-1 $230 $230 $229 $370 forward $143 $-1 #
coedge $-1 $231 $231 $144 $232 forward $226 $-1 #
edge $-1 $371 -2.0506379175329768e-016 $371 6.2831853071796004 $231 $372 forward 7 unknown #
loop $-1 $-1 $238 $145 #
plane-surface $-1 -31.457256101887825 -23.162289538090015 0.95075402879609783 0 -0.6018150307709319 0.79863550430605224 1 0 0 forward_v I I I I #
loop $-1 $-1 $373 $92 #
coedge $-1 $236 $236 $237 $374 reversed $146 $-1 #
coedge $-1 $237 $237 $236 $374 forward $148 $-1 #
coedge $-1 $238 $238 $149 $239 forward $233 $-1 #
edge $-1 $375 -2.0506379175329768e-016 $375 6.2831853071796004 $238 $376 forward 7 unknown #
loop $-1 $-1 $245 $150 #
plane-surface $-1 -31.457256101887825 -23.162289538090015 0.95075402879609783 0 -0.6018150307709319 0.79863550430605224 1 0 0 forward_v I I I I #
loop $-1 $-1 $377 $95 #
coedge $-1 $243 $243 $244 $378 reversed $151 $-1 #
coedge $-1 $244 $244 $243 $378 forward $153 $-1 #
coedge $-1 $245 $245 $154 $246 forward $240 $-1 #
edge $-1 $379 -2.0506379175329768e-016 $379 6.2831853071796004 $245 $380 forward 7 unknown #
face $-1 $381 $382 $54 $-1 $383 reversed single #
loop $-1 $-1 $384 $155 #
plane-surface $-1 3.254472312682136 -76.100413244614032 71.202015565446402 1 0 0 0 0.6018150307709319 -0.79863550430605224 forward_v I I I I #
coedge $-1 $385 $386 $387 $388 reversed $156 $-1 #
coedge $-1 $252 $158 $389 $390 reversed $99 $-1 #
coedge $-1 $158 $251 $385 $391 reversed $99 $-1 #
coedge $-1 $387 $392 $158 $254 forward $393 $-1 #
edge $-1 $394 14.887917084217008 $395 22.744912728378011 $253 $396 forward 7 unknown #
loop $-1 $-1 $260 $159 #
plane-surface $-1 9.2703267018581528 -23.162289538090015 0.95075402879609783 0 -0.6018150307709319 0.79863550430605224 1 0 0 forward_v I I I I #
loop $-1 $-1 $397 $101 #
coedge $-1 $258 $258 $259 $398 reversed $160 $-1 #
coedge $-1 $259 $259 $258 $398 forward $162 $-1 #
coedge $-1 $260 $260 $163 $261 forward $255 $-1 #
edge $-1 $399 -2.0506379175329768e-016 $399 6.2831853071796004 $260 $400 forward 7 unknown #
loop $-1 $-1 $267 $164 #
plane-surface $-1 9.2703267018581528 -23.162289538090015 0.95075402879609783 0 -0.6018150307709319 0.79863550430605224 1 0 0 forward_v I I I I #
loop $-1 $-1 $401 $104 #
coedge $-1 $265 $265 $266 $402 reversed $165 $-1 #
coedge $-1 $266 $266 $265 $402 forward $167 $-1 #
coedge $-1 $267 $267 $168 $268 forward $262 $-1 #
edge $-1 $403 -2.0506379175329768e-016 $403 6.2831853071796004 $267 $404 forward 7 unknown #
loop $-1 $-1 $274 $169 #
plane-surface $-1 9.2703267018581528 -23.162289538090015 0.95075402879609783 0 -0.6018150307709319 0.79863550430605224 1 0 0 forward_v I I I I #
loop $-1 $-1 $405 $107 #
coedge $-1 $272 $272 $273 $406 reversed $170 $-1 #
coedge $-1 $273 $273 $272 $406 forward $172 $-1 #
coedge $-1 $274 $274 $173 $275 forward $269 $-1 #
edge $-1 $407 -2.0506379175329768e-016 $407 6.2831853071796004 $274 $408 forward 7 unknown #
face $-1 $409 $410 $58 $-1 $411 forward single #
loop $-1 $-1 $412 $174 #
plane-surface $-1 -15.258508861226444 52.605885486141332 95.505367970567903 -1 0 0 0 0.70710678939079041 0.70710677298230451 forward_v I I I I #
coedge $-1 $413 $414 $415 $416 reversed $175 $-1 #
coedge $-1 $281 $177 $417 $418 reversed $111 $-1 #
coedge $-1 $177 $280 $413 $419 reversed $111 $-1 #
coedge $-1 $415 $420 $177 $283 forward $410 $-1 #
edge $-1 $421 3.1406532049806586 $422 9.4631526287615877 $282 $423 forward 7 unknown #
loop $-1 $-1 $289 $178 #
plane-surface $-1 -22.716490327890369 -9.5941340822312071 33.305349845553224 0 0.70710678939079041 0.70710677298230451 1 0 0 forward_v I I I I #
loop $-1 $-1 $424 $113 #
coedge $-1 $287 $287 $288 $425 reversed $179 $-1 #
coedge $-1 $288 $288 $287 $425 forward $181 $-1 #
coedge $-1 $289 $289 $182 $290 forward $284 $-1 #
edge $-1 $426 -4.7102759733362571e-016 $426 6.2831853071795996 $289 $427 forward 7 unknown #
loop $-1 $-1 $296 $183 #
plane-surface $-1 -22.716490327890369 -9.5941340822312071 33.305349845553224 0 0.70710678939079041 0.70710677298230451 1 0 0 forward_v I I I I #
loop $-1 $-1 $428 $116 #
coedge $-1 $294 $294 $295 $429 reversed $184 $-1 #
coedge $-1 $295 $295 $294 $429 forward $186 $-1 #
coedge $-1 $296 $296 $187 $297 forward $291 $-1 #
edge $-1 $430 -4.7102759733362571e-016 $430 6.2831853071795996 $296 $431 forward 7 unknown #
face $-1 $432 $433 $61 $-1 $434 forward single #
loop $-1 $-1 $435 $188 #
plane-surface $-1 25.469073942519529 52.605885486141332 95.505367970567903 -1 0 0 0 0.70710678939079041 0.70710677298230451 forward_v I I I I #
coedge $-1 $436 $437 $438 $439 reversed $189 $-1 #
coedge $-1 $303 $191 $440 $441 reversed $120 $-1 #
coedge $-1 $191 $302 $436 $442 reversed $120 $-1 #
coedge $-1 $438 $443 $191 $305 forward $433 $-1 #
edge $-1 $444 3.1406532049806586 $445 9.4631526287615877 $304 $446 forward 7 unknown #
loop $-1 $-1 $311 $192 #
plane-surface $-1 18.011092475855605 -9.5941340822312071 33.305349845553224 0 0.70710678939079041 0.70710677298230451 1 0 0 forward_v I I I I #
loop $-1 $-1 $447 $122 #
coedge $-1 $309 $309 $310 $448 reversed $193 $-1 #
coedge $-1 $310 $310 $309 $448 forward $195 $-1 #
coedge $-1 $311 $311 $196 $312 forward $306 $-1 #
edge $-1 $449 -4.7102759733362571e-016 $449 6.2831853071795996 $311 $450 forward 7 unknown #
loop $-1 $-1 $318 $197 #
plane-surface $-1 18.011092475855605 -9.5941340822312071 33.305349845553224 0 0.70710678939079041 0.70710677298230451 1 0 0 forward_v I I I I #
loop $-1 $-1 $451 $125 #
coedge $-1 $316 $316 $317 $452 reversed $198 $-1 #
coedge $-1 $317 $317 $316 $452 forward $200 $-1 #
coedge $-1 $318 $318 $201 $319 forward $313 $-1 #
edge $-1 $453 -4.7102759733362571e-016 $453 6.2831853071795996 $318 $454 forward 7 unknown #
face $-1 $455 $456 $48 $-1 $457 reversed single #
loop $-1 $-1 $458 $202 #
plane-surface $-1 -43.982055116428114 0 0 1 0 0 0 0 -1 forward_v I I I I #
coedge $-1 $459 $331 $460 $461 forward $203 $-1 #
coedge $-1 $462 $205 $459 $463 forward $129 $-1 #
coedge $-1 $205 $462 $464 $465 forward $129 $-1 #
coedge $-1 $334 $333 $205 $327 reversed $335 $-1 #
edge $-1 $466 -23.162289538090008 $467 23.162289538090008 $326 $468 forward 7 unknown #
coedge $-1 $207 $206 $469 $470 forward $81 $-1 #
coedge $-1 $471 $472 $206 $330 reversed $456 $-1 #
edge $-1 $337 -43.982055116428114 $473 43.982055116428114 $329 $474 forward 7 unknown #
coedge $-1 $323 $475 $207 $332 reversed $203 $-1 #
edge $-1 $476 -43.982055116428114 $336 43.982055116428114 $331 $477 forward 7 unknown #
coedge $-1 $326 $208 $475 $478 forward $335 $-1 #
coedge $-1 $208 $326 $471 $479 reversed $335 $-1 #
loop $-1 $-1 $333 $455 #
vertex $-1 $209 $480 #
vertex $-1 $209 $481 #
straight-curve $-1 43.982055116428114 0 6.8714250356109918 0 1 0 I I #
face $-1 $482 $483 $49 $-1 $484 reversed single #
loop $-1 $-1 $485 $210 #
plane-surface $-1 -47.236527429110247 0 1.8321077085197652 0 0 1 1 0 0 forward_v I I I I #
coedge $-1 $486 $213 $487 $488 reversed $133 $-1 #
coedge $-1 $213 $486 $348 $489 reversed $133 $-1 #
edge $-1 $350 -5.8495227290347342 $490 -1.8321077085197652 $213 $491 forward 7 unknown #
coedge $-1 $215 $214 $485 $492 forward $84 $-1 #
coedge $-1 $493 $494 $214 $347 forward $495 $-1 #
edge $-1 $496 1.8321077085197652 $351 5.8495227290347342 $346 $497 forward 7 unknown #
coedge $-1 $498 $216 $343 $489 forward $211 $-1 #
coedge $-1 $216 $498 $493 $499 forward $211 $-1 #
vertex $-1 $344 $500 #
vertex $-1 $499 $501 #
straight-curve $-1 -43.982055116428114 0 5.8495227290347342 0 -1 0 I I #
face $-1 $-1 $365 $50 $-1 $502 forward single #
loop $-1 $-1 $503 $218 #
plane-surface $-1 0 -23.162289538090008 0 0 1 0 0 0 1 forward_v I I I I #
coedge $-1 $504 $505 $506 $507 reversed $219 $-1 #
coedge $-1 $508 $221 $223 $363 forward $137 $-1 #
coedge $-1 $221 $508 $504 $509 forward $137 $-1 #
coedge $-1 $506 $224 $221 $360 forward $365 $-1 #
edge $-1 $367 9.7127736617678959 $510 21.744482440119931 $359 $511 forward 7 unknown #
coedge $-1 $512 $513 $222 $362 forward $354 $-1 #
edge $-1 $514 -34.650253753927096 $366 -28.729582747112211 $361 $515 forward 7 unknown #
edge $-1 $367 -9.8380244827558521 $514 -8.8817612989391469e-015 $223 $516 forward 7 unknown #
coedge $-1 $224 $506 $512 $517 forward $365 $-1 #
loop $-1 $-1 $506 $353 #
vertex $-1 $362 $518 #
vertex $-1 $225 $519 #
straight-curve $-1 -25.441401712711809 -38.050206622307016 6.8714250356109901 0 1 0 I I #
coedge $-1 $369 $369 $-1 $520 reversed $228 $-1 #
edge $-1 $521 0 $521 6.2831853071796004 $229 $522 forward 7 unknown #
vertex $-1 $232 $523 #
ellipse-curve $-1 -35.066768735393438 -19.233791716009506 3.9110895322035484 0 -0.6018150307709319 0.79863550430605224 0.5 0 0 1 I I #
coedge $-1 $373 $373 $-1 $524 reversed $235 $-1 #
edge $-1 $525 0 $525 6.2831853071796004 $236 $526 forward 7 unknown #
vertex $-1 $239 $527 #
ellipse-curve $-1 -31.457256101887825 -19.233791716009506 3.9110895322035484 0 -0.6018150307709319 0.79863550430605224 0.5 0 0 1 I I #
coedge $-1 $377 $377 $-1 $528 reversed $242 $-1 #
edge $-1 $529 0 $529 6.2831853071796004 $243 $530 forward 7 unknown #
vertex $-1 $246 $531 #
ellipse-curve $-1 -27.847743468382216 -19.233791716009506 3.9110895322035484 0 -0.6018150307709319 0.79863550430605224 0.5 0 0 1 I I #
face $-1 $-1 $393 $54 $-1 $532 forward single #
loop $-1 $-1 $533 $247 #
plane-surface $-1 0 -23.162289538090008 0 0 1 0 0 0 1 forward_v I I I I #
coedge $-1 $534 $535 $536 $537 reversed $248 $-1 #
coedge $-1 $538 $250 $252 $391 forward $156 $-1 #
coedge $-1 $250 $538 $534 $539 forward $156 $-1 #
coedge $-1 $536 $253 $250 $388 forward $393 $-1 #
edge $-1 $395 -10.651017740105093 $540 1.3806910382469404 $387 $541 forward 7 unknown #
coedge $-1 $542 $543 $251 $390 forward $382 $-1 #
edge $-1 $544 -34.650253753927096 $394 -28.729582747112211 $389 $545 forward 7 unknown #
edge $-1 $395 -9.8380244827558521 $544 -8.8817612989391469e-015 $252 $546 forward 7 unknown #
coedge $-1 $253 $536 $542 $547 forward $393 $-1 #
loop $-1 $-1 $536 $381 #
vertex $-1 $390 $548 #
vertex $-1 $254 $549 #
straight-curve $-1 15.28618109103417 -38.050206622307016 6.8714250356109901 0 1 0 I I #
coedge $-1 $397 $397 $-1 $550 reversed $257 $-1 #
edge $-1 $551 0 $551 6.2831853071796004 $258 $552 forward 7 unknown #
vertex $-1 $261 $553 #
ellipse-curve $-1 5.6608140683525434 -19.233791716009506 3.9110895322035484 0 -0.6018150307709319 0.79863550430605224 0.5 0 0 1 I I #
coedge $-1 $401 $401 $-1 $554 reversed $264 $-1 #
edge $-1 $555 0 $555 6.2831853071796004 $265 $556 forward 7 unknown #
vertex $-1 $268 $557 #
ellipse-curve $-1 9.2703267018581528 -19.233791716009506 3.9110895322035484 0 -0.6018150307709319 0.79863550430605224 0.5 0 0 1 I I #
coedge $-1 $405 $405 $-1 $558 reversed $271 $-1 #
edge $-1 $559 0 $559 6.2831853071796004 $272 $560 forward 7 unknown #
vertex $-1 $275 $561 #
ellipse-curve $-1 12.879839335363769 -19.233791716009506 3.9110895322035484 0 -0.6018150307709319 0.79863550430605224 0.5 0 0 1 I I #
face $-1 $-1 $562 $58 $-1 $563 reversed single #
loop $-1 $-1 $282 $276 #
plane-surface $-1 0 0 6.8714250356109918 0 0 1 1 0 0 forward_v I I I I #
coedge $-1 $564 $565 $566 $567 reversed $277 $-1 #
coedge $-1 $568 $279 $281 $419 forward $175 $-1 #
coedge $-1 $279 $568 $564 $569 forward $175 $-1 #
coedge $-1 $566 $282 $279 $416 forward $410 $-1 #
edge $-1 $422 -18.816226630609108 $570 -3.9002636972812592 $415 $571 forward 7 unknown #
coedge $-1 $572 $573 $280 $418 forward $562 $-1 #
edge $-1 $574 -47.203758520168144 $421 -40.881258949672961 $417 $575 forward 7 unknown #
edge $-1 $422 37.383214539230281 $574 46.324579076179994 $281 $576 forward 7 unknown #
coedge $-1 $282 $566 $572 $577 forward $410 $-1 #
vertex $-1 $283 $578 #
vertex $-1 $283 $579 #
straight-curve $-1 -30.174471794554293 26.302942743070666 6.8714250356109901 0 -1 0 I I #
coedge $-1 $424 $424 $-1 $580 reversed $286 $-1 #
edge $-1 $581 0 $581 6.2831853071796004 $287 $582 forward 7 unknown #
vertex $-1 $290 $583 #
ellipse-curve $-1 -25.912768099317766 20.001039826199541 3.7101752503634029 0 0.70710678939079041 0.70710677298230451 2 0 0 1 I I #
coedge $-1 $428 $428 $-1 $584 reversed $293 $-1 #
edge $-1 $585 0 $585 6.2831853071796004 $294 $586 forward 7 unknown #
vertex $-1 $297 $587 #
ellipse-curve $-1 -19.520212556462972 20.001039826199541 3.7101752503634029 0 0.70710678939079041 0.70710677298230451 2 0 0 1 I I #
face $-1 $-1 $588 $61 $-1 $589 reversed single #
loop $-1 $-1 $304 $298 #
plane-surface $-1 0 0 6.8714250356109918 0 0 1 1 0 0 forward_v I I I I #
coedge $-1 $590 $591 $592 $593 reversed $299 $-1 #
coedge $-1 $594 $301 $303 $442 forward $189 $-1 #
coedge $-1 $301 $594 $590 $595 forward $189 $-1 #
coedge $-1 $592 $304 $301 $439 forward $433 $-1 #
edge $-1 $445 1.5475647712638771 $596 16.463527704591726 $438 $597 forward 7 unknown #
coedge $-1 $598 $599 $302 $441 forward $588 $-1 #
edge $-1 $600 -47.203758520168144 $444 -40.881258949672961 $440 $601 forward 7 unknown #
edge $-1 $445 37.383214539230281 $600 46.324579076179994 $303 $602 forward 7 unknown #
coedge $-1 $304 $592 $598 $603 forward $433 $-1 #
vertex $-1 $305 $604 #
vertex $-1 $305 $605 #
straight-curve $-1 10.55311100919168 26.302942743070666 6.8714250356109901 0 -1 0 I I #
coedge $-1 $447 $447 $-1 $606 reversed $308 $-1 #
edge $-1 $607 0 $607 6.2831853071796004 $309 $608 forward 7 unknown #
vertex $-1 $312 $609 #
ellipse-curve $-1 14.814814704428208 20.001039826199541 3.7101752503634029 0 0.70710678939079041 0.70710677298230451 2 0 0 1 I I #
coedge $-1 $451 $451 $-1 $610 reversed $315 $-1 #
edge $-1 $611 0 $611 6.2831853071796004 $316 $612 forward 7 unknown #
vertex $-1 $319 $613 #
ellipse-curve $-1 21.207370247282995 20.001039826199541 3.7101752503634029 0 0.70710678939079041 0.70710677298230451 2 0 0 1 I I #
face $-1 $-1 $335 $48 $-1 $614 reversed single #
loop $-1 $-1 $471 $320 #
plane-surface $-1 0 23.162289538090008 0 0 -1 0 0 0 -1 forward_v I I I I #
coedge $-1 $615 $469 $472 $616 forward $321 $-1 #
coedge $-1 $475 $323 $324 $463 reversed $203 $-1 #
coedge $-1 $469 $615 $323 $461 reversed $321 $-1 #
edge $-1 $476 -6.8714250356109918 $617 6.8714250356109918 $460 $618 forward 7 unknown #
coedge $-1 $325 $324 $615 $619 forward $129 $-1 #
edge $-1 $467 -43.982055116428114 $617 43.982055116428114 $459 $620 forward 7 unknown #
coedge $-1 $472 $471 $325 $465 reversed $456 $-1 #
edge $-1 $621 -43.982055116428114 $466 43.982055116428114 $464 $622 forward 7 unknown #
vertex $-1 $327 $623 #
vertex $-1 $478 $624 #
straight-curve $-1 43.982055116428114 0 -6.8714250356109918 0 -1 0 I I #
coedge $-1 $458 $460 $328 $470 reversed $321 $-1 #
edge $-1 $473 -23.162289538090008 $476 23.162289538090008 $469 $625 forward 7 unknown #
coedge $-1 $464 $329 $334 $479 forward $456 $-1 #
coedge $-1 $329 $464 $458 $616 reversed $456 $-1 #
vertex $-1 $330 $626 #
straight-curve $-1 0 23.162289538090008 6.8714250356109918 -1 0 0 I I #
coedge $-1 $331 $459 $333 $478 reversed $203 $-1 #
vertex $-1 $470 $627 #
straight-curve $-1 0 -23.162289538090008 6.8714250356109918 1 0 0 I I #
edge $-1 $336 -6.8714250356109918 $467 6.8714250356109918 $333 $628 forward 7 unknown #
edge $-1 $337 -6.8714250356109918 $466 6.8714250356109918 $334 $629 forward 7 unknown #
point $-1 43.982055116428114 -23.162289538090008 6.8714250356109918 #
point $-1 43.982055116428114 23.162289538090008 6.8714250356109918 #
face $-1 $-1 $495 $49 $-1 $630 reversed single #
loop $-1 $-1 $631 $339 #
plane-surface $-1 -50.490999741792379 0 3.8408152187772497 1 0 0 0 0 -1 forward_v I I I I #
coedge $-1 $632 $487 $345 $492 reversed $340 $-1 #
coedge $-1 $343 $342 $631 $633 reversed $133 $-1 #
coedge $-1 $485 $634 $342 $488 forward $340 $-1 #
edge $-1 $635 -3.2544723126821324 $490 3.2544723126821324 $342 $636 forward 7 unknown #
edge $-1 $350 -3.2544723126821324 $637 3.2544723126821324 $343 $638 forward 7 unknown #
vertex $-1 $344 $639 #
straight-curve $-1 -43.982055116428114 23.162289538090008 0 0 0 -1 I I #
edge $-1 $496 -23.162289538090008 $490 23.162289538090008 $485 $640 forward 7 unknown #
coedge $-1 $641 $346 $349 $499 reversed $495 $-1 #
coedge $-1 $346 $641 $632 $642 reversed $495 $-1 #
loop $-1 $-1 $346 $482 #
vertex $-1 $347 $643 #
straight-curve $-1 -43.982055116428114 -23.162289538090008 0 0 0 1 I I #
coedge $-1 $349 $348 $644 $645 forward $211 $-1 #
edge $-1 $646 -3.2544723126821324 $351 3.2544723126821324 $493 $647 forward 7 unknown #
point $-1 -43.982055116428114 23.162289538090008 5.8495227290347342 #
point $-1 -43.982055116428114 -23.162289538090008 5.8495227290347342 #
plane-surface $-1 0 0 6.8714250356109918 0 0 1 1 0 0 forward_v I I I I #
coedge $-1 $513 $512 $505 $648 forward $354 $-1 #
coedge $-1 $505 $356 $358 $509 reversed $219 $-1 #
coedge $-1 $356 $504 $503 $648 reversed $219 $-1 #
coedge $-1 $364 $359 $356 $507 forward $365 $-1 #
edge $-1 $510 -22.744912728378011 $649 -14.887917084217008 $506 $650 forward 7 unknown #
coedge $-1 $358 $357 $513 $651 reversed $137 $-1 #
edge $-1 $652 8.8817612989391469e-015 $510 9.8380244827558521 $504 $653 forward 7 unknown #
vertex $-1 $360 $654 #
straight-curve $-1 -15.728628050943913 -15.305293893929008 6.8714250356109918 -1 0 0 I I #
coedge $-1 $503 $361 $364 $517 reversed $354 $-1 #
coedge $-1 $361 $503 $508 $651 forward $354 $-1 #
vertex $-1 $362 $655 #
straight-curve $-1 -25.441401712711809 -23.162289538090008 35.601007782723201 0 0 1 I I #
straight-curve $-1 -25.441401712711809 -23.162289538090015 0.95075402879609783 0 -0.79863550430605224 -0.6018150307709319 I I #
edge $-1 $649 -37.473110491063842 $366 -25.441401712711809 $512 $656 forward 7 unknown #
point $-1 -25.441401712711809 -23.162289538090008 6.8714250356109918 #
point $-1 -25.441401712711809 -15.305293893929006 6.8714250356109927 #
edge $-1 $657 1 $657 0 $369 $-1 forward 7 unknown #
vertex $-1 $370 $658 #
ellipse-curve $-1 -35.066768735393438 -18.228354531357471 2.5768293493297305 0 -0.6018150307709319 0.79863550430605224 0.5 0 0 1 I I #
point $-1 -34.566768735393438 -19.233791716009502 3.9110895322035435 #
edge $-1 $659 1 $659 0 $373 $-1 forward 7 unknown #
vertex $-1 $374 $660 #
ellipse-curve $-1 -31.457256101887825 -18.228354531357471 2.5768293493297305 0 -0.6018150307709319 0.79863550430605224 0.5 0 0 1 I I #
point $-1 -30.957256101887825 -19.233791716009502 3.9110895322035435 #
edge $-1 $661 1 $661 0 $377 $-1 forward 7 unknown #
vertex $-1 $378 $662 #
ellipse-curve $-1 -27.847743468382216 -18.228354531357471 2.5768293493297305 0 -0.6018150307709319 0.79863550430605224 0.5 0 0 1 I I #
point $-1 -27.347743468382216 -19.233791716009502 3.9110895322035435 #
plane-surface $-1 0 0 6.8714250356109918 0 0 1 1 0 0 forward_v I I I I #
coedge $-1 $543 $542 $535 $663 forward $382 $-1 #
coedge $-1 $535 $384 $386 $539 reversed $248 $-1 #
coedge $-1 $384 $534 $533 $663 reversed $248 $-1 #
coedge $-1 $392 $387 $384 $537 forward $393 $-1 #
edge $-1 $540 -22.744912728378011 $664 -14.887917084217008 $536 $665 forward 7 unknown #
coedge $-1 $386 $385 $543 $666 reversed $156 $-1 #
edge $-1 $667 8.8817612989391469e-015 $540 9.8380244827558521 $534 $668 forward 7 unknown #
vertex $-1 $388 $669 #
straight-curve $-1 4.6351633509290764 -15.305293893929008 6.8714250356109918 -1 0 0 I I #
coedge $-1 $533 $389 $392 $547 reversed $382 $-1 #
coedge $-1 $389 $533 $538 $666 forward $382 $-1 #
vertex $-1 $390 $670 #
straight-curve $-1 15.28618109103417 -23.162289538090008 35.601007782723201 0 0 1 I I #
straight-curve $-1 15.28618109103417 -23.162289538090015 0.95075402879609783 0 -0.79863550430605224 -0.6018150307709319 I I #
edge $-1 $664 3.254472312682136 $394 15.28618109103417 $542 $671 forward 7 unknown #
point $-1 15.28618109103417 -23.162289538090008 6.8714250356109918 #
point $-1 15.28618109103417 -15.305293893929006 6.8714250356109927 #
edge $-1 $672 1 $672 0 $397 $-1 forward 7 unknown #
vertex $-1 $398 $673 #
ellipse-curve $-1 5.6608140683525434 -18.228354531357471 2.5768293493297305 0 -0.6018150307709319 0.79863550430605224 0.5 0 0 1 I I #
point $-1 6.1608140683525434 -19.233791716009502 3.9110895322035435 #
edge $-1 $674 1 $674 0 $401 $-1 forward 7 unknown #
vertex $-1 $402 $675 #
ellipse-curve $-1 9.2703267018581528 -18.228354531357471 2.5768293493297305 0 -0.6018150307709319 0.79863550430605224 0.5 0 0 1 I I #
point $-1 9.7703267018581528 -19.233791716009502 3.9110895322035435 #
edge $-1 $676 1 $676 0 $405 $-1 forward 7 unknown #
vertex $-1 $406 $677 #
ellipse-curve $-1 12.879839335363769 -18.228354531357471 2.5768293493297305 0 -0.6018150307709319 0.79863550430605224 0.5 0 0 1 I I #
point $-1 13.379839335363769 -19.233791716009502 3.9110895322035435 #
loop $-1 $-1 $417 $409 #
plane-surface $-1 0 23.162289538090008 0 0 -1 0 0 0 -1 forward_v I I I I #
coedge $-1 $565 $412 $414 $569 reversed $277 $-1 #
coedge $-1 $412 $564 $678 $679 reversed $277 $-1 #
coedge $-1 $420 $415 $412 $567 forward $410 $-1 #
edge $-1 $570 -9.4631526287615877 $680 -3.1406532049806586 $566 $681 forward 7 unknown #
coedge $-1 $414 $413 $573 $682 reversed $175 $-1 #
edge $-1 $683 -46.324579076179994 $570 -37.383214539230281 $564 $684 forward 7 unknown #
vertex $-1 $416 $685 #
straight-curve $-1 -11.358245163945185 16.839790114309075 6.8714250356109936 1 0 0 I I #
coedge $-1 $678 $417 $420 $577 reversed $562 $-1 #
coedge $-1 $417 $678 $568 $682 forward $562 $-1 #
vertex $-1 $418 $686 #
straight-curve $-1 -30.174471794554293 23.162289538090008 47.752683985283952 0 0 1 I I #
straight-curve $-1 -30.174471794554293 -9.5941340822312071 33.305349845553224 0 0.70710677298230451 -0.70710678939079041 I I #
edge $-1 $680 15.258508861226444 $421 30.174471794554293 $572 $687 forward 7 unknown #
point $-1 -30.174471794554293 23.162289538090008 6.8714250356109918 #
point $-1 -30.174471794554293 16.839790114309078 6.8714250356109901 #
edge $-1 $688 1 $688 0 $424 $-1 forward 7 unknown #
vertex $-1 $425 $689 #
ellipse-curve $-1 -25.912768099317766 15.781403204894017 -0.50946127302501842 0 0.70710678939079041 0.70710677298230451 2 0 0 1 I I #
point $-1 -23.912768099317766 20.001039826199523 3.7101752503633865 #
edge $-1 $690 1 $690 0 $428 $-1 forward 7 unknown #
vertex $-1 $429 $691 #
ellipse-curve $-1 -19.520212556462972 15.781403204894017 -0.50946127302501842 0 0.70710678939079041 0.70710677298230451 2 0 0 1 I I #
point $-1 -17.520212556462972 20.001039826199523 3.7101752503633865 #
loop $-1 $-1 $440 $432 #
plane-surface $-1 0 23.162289538090008 0 0 -1 0 0 0 -1 forward_v I I I I #
coedge $-1 $591 $435 $437 $595 reversed $299 $-1 #
coedge $-1 $435 $590 $692 $693 reversed $299 $-1 #
coedge $-1 $443 $438 $435 $593 forward $433 $-1 #
edge $-1 $596 -9.4631526287615877 $694 -3.1406532049806586 $592 $695 forward 7 unknown #
coedge $-1 $437 $436 $599 $696 reversed $189 $-1 #
edge $-1 $697 -46.324579076179994 $596 -37.383214539230281 $590 $698 forward 7 unknown #
vertex $-1 $439 $699 #
straight-curve $-1 9.0055462379278026 16.839790114309075 6.8714250356109936 1 0 0 I I #
coedge $-1 $692 $440 $443 $603 reversed $588 $-1 #
coedge $-1 $440 $692 $594 $696 forward $588 $-1 #
vertex $-1 $441 $700 #
straight-curve $-1 10.55311100919168 23.162289538090008 47.752683985283952 0 0 1 I I #
straight-curve $-1 10.55311100919168 -9.5941340822312071 33.305349845553224 0 0.70710677298230451 -0.70710678939079041 I I #
edge $-1 $694 -25.469073942519529 $444 -10.55311100919168 $598 $701 forward 7 unknown #
point $-1 10.55311100919168 23.162289538090008 6.8714250356109918 #
point $-1 10.55311100919168 16.839790114309078 6.8714250356109901 #
edge $-1 $702 1 $702 0 $447 $-1 forward 7 unknown #
vertex $-1 $448 $703 #
ellipse-curve $-1 14.814814704428208 15.781403204894017 -0.50946127302501842 0 0.70710678939079041 0.70710677298230451 2 0 0 1 I I #
point $-1 16.814814704428208 20.001039826199523 3.7101752503633865 #
edge $-1 $704 1 $704 0 $451 $-1 forward 7 unknown #
vertex $-1 $452 $705 #
ellipse-curve $-1 21.207370247282995 15.781403204894017 -0.50946127302501842 0 0.70710678939079041 0.70710677298230451 2 0 0 1 I I #
point $-1 23.207370247282995 20.001039826199523 3.7101752503633865 #
plane-surface $-1 43.982055116428114 0 0 -1 0 0 0 0 1 forward_v I I I I #
coedge $-1 $460 $458 $462 $619 reversed $321 $-1 #
edge $-1 $473 -6.8714250356109918 $621 6.8714250356109918 $472 $706 forward 7 unknown #
vertex $-1 $619 $707 #
straight-curve $-1 -43.982055116428114 -23.162289538090008 0 0 0 -1 I I #
edge $-1 $617 -23.162289538090008 $621 23.162289538090008 $615 $708 forward 7 unknown #
straight-curve $-1 0 -23.162289538090008 -6.8714250356109918 -1 0 0 I I #
vertex $-1 $465 $709 #
straight-curve $-1 0 23.162289538090008 -6.8714250356109918 1 0 0 I I #
point $-1 43.982055116428114 23.162289538090008 -6.8714250356109918 #
point $-1 43.982055116428114 -23.162289538090008 -6.8714250356109918 #
straight-curve $-1 -43.982055116428114 0 6.8714250356109918 0 -1 0 I I #
point $-1 -43.982055116428114 23.162289538090008 6.8714250356109918 #
point $-1 -43.982055116428114 -23.162289538090008 6.8714250356109918 #
straight-curve $-1 43.982055116428114 -23.162289538090008 0 0 0 -1 I I #
straight-curve $-1 43.982055116428114 23.162289538090008 0 0 0 -1 I I #
plane-surface $-1 0 -23.162289538090008 0 0 1 0 0 0 1 forward_v I I I I #
coedge $-1 $710 $644 $486 $633 forward $483 $-1 #
coedge $-1 $634 $485 $494 $642 forward $340 $-1 #
edge $-1 $637 -2.0087075102574845 $635 2.0087075102574845 $486 $711 forward 7 unknown #
coedge $-1 $487 $632 $710 $712 forward $340 $-1 #
vertex $-1 $488 $713 #
straight-curve $-1 -47.236527429110247 23.162289538090008 1.8321077085197652 1 0 0 I I #
vertex $-1 $489 $714 #
straight-curve $-1 -47.236527429110247 23.162289538090008 5.8495227290347342 -1 0 0 I I #
point $-1 -43.982055116428114 23.162289538090008 1.8321077085197652 #
straight-curve $-1 -43.982055116428114 0 1.8321077085197652 0 1 0 I I #
coedge $-1 $494 $493 $715 $716 forward $495 $-1 #
edge $-1 $496 -3.2544723126821324 $717 3.2544723126821324 $494 $718 forward 7 unknown #
point $-1 -43.982055116428114 -23.162289538090008 1.8321077085197652 #
coedge $-1 $631 $715 $498 $645 reversed $483 $-1 #
edge $-1 $637 -23.162289538090008 $646 23.162289538090008 $644 $719 forward 7 unknown #
vertex $-1 $645 $720 #
straight-curve $-1 -47.236527429110247 -23.162289538090008 5.8495227290347342 1 0 0 I I #
edge $-1 $649 28.729582747112211 $652 34.650253753927096 $503 $721 forward 7 unknown #
vertex $-1 $517 $722 #
straight-curve $-1 -37.473110491063842 -38.050206622307016 6.8714250356109901 0 -1 0 I I #
edge $-1 $652 -21.744482440119931 $514 -9.7127736617678959 $513 $723 forward 7 unknown #
vertex $-1 $651 $724 #
straight-curve $-1 -37.473110491063842 -23.162289538090015 0.95075402879609783 0 0.79863550430605224 0.6018150307709319 I I #
point $-1 -37.473110491063842 -15.305293893929006 6.8714250356109927 #
point $-1 -25.441401712711809 -23.162289538090008 0.95075402879610316 #
straight-curve $-1 0 -23.162289538090008 6.8714250356109918 1 0 0 I I #
vertex $-1 $520 $725 #
point $-1 -34.566768735393438 -18.228354531357471 2.5768293493297305 #
vertex $-1 $524 $726 #
point $-1 -30.957256101887825 -18.228354531357471 2.5768293493297305 #
vertex $-1 $528 $727 #
point $-1 -27.347743468382216 -18.228354531357471 2.5768293493297305 #
edge $-1 $664 28.729582747112211 $667 34.650253753927096 $533 $728 forward 7 unknown #
vertex $-1 $547 $729 #
straight-curve $-1 3.254472312682136 -38.050206622307016 6.8714250356109901 0 -1 0 I I #
edge $-1 $667 -1.3806910382469404 $544 10.651017740105093 $543 $730 forward 7 unknown #
vertex $-1 $666 $731 #
straight-curve $-1 3.254472312682136 -23.162289538090015 0.95075402879609783 0 0.79863550430605224 0.6018150307709319 I I #
point $-1 3.254472312682136 -15.305293893929006 6.8714250356109927 #
point $-1 15.28618109103417 -23.162289538090008 0.95075402879610316 #
straight-curve $-1 0 -23.162289538090008 6.8714250356109918 1 0 0 I I #
vertex $-1 $550 $732 #
point $-1 6.1608140683525434 -18.228354531357471 2.5768293493297305 #
vertex $-1 $554 $733 #
point $-1 9.7703267018581528 -18.228354531357471 2.5768293493297305 #
vertex $-1 $558 $734 #
point $-1 13.379839335363769 -18.228354531357471 2.5768293493297305 #
coedge $-1 $573 $572 $565 $679 forward $562 $-1 #
edge $-1 $680 40.881258949672961 $683 47.203758520168144 $678 $735 forward 7 unknown #
vertex $-1 $577 $736 #
straight-curve $-1 -15.258508861226444 26.302942743070666 6.8714250356109901 0 1 0 I I #
edge $-1 $683 3.9002636972812592 $574 18.816226630609108 $573 $737 forward 7 unknown #
vertex $-1 $682 $738 #
straight-curve $-1 -15.258508861226444 -9.5941340822312071 33.305349845553224 0 -0.70710677298230451 0.70710678939079041 I I #
point $-1 -15.258508861226444 16.839790114309078 6.8714250356109901 #
point $-1 -30.174471794554293 23.162289538090008 0.54892546511580775 #
straight-curve $-1 0 23.162289538090008 6.8714250356109918 -1 0 0 I I #
vertex $-1 $580 $739 #
point $-1 -23.912768099317766 15.781403204894017 -0.50946127302501842 #
vertex $-1 $584 $740 #
point $-1 -17.520212556462972 15.781403204894017 -0.50946127302501842 #
coedge $-1 $599 $598 $591 $693 forward $588 $-1 #
edge $-1 $694 40.881258949672961 $697 47.203758520168144 $692 $741 forward 7 unknown #
vertex $-1 $603 $742 #
straight-curve $-1 25.469073942519529 26.302942743070666 6.8714250356109901 0 1 0 I I #
edge $-1 $697 -16.463527704591726 $600 -1.5475647712638771 $599 $743 forward 7 unknown #
vertex $-1 $696 $744 #
straight-curve $-1 25.469073942519529 -9.5941340822312071 33.305349845553224 0 -0.70710677298230451 0.70710678939079041 I I #
point $-1 25.469073942519529 16.839790114309078 6.8714250356109901 #
point $-1 10.55311100919168 23.162289538090008 0.54892546511580775 #
straight-curve $-1 0 23.162289538090008 6.8714250356109918 -1 0 0 I I #
vertex $-1 $606 $745 #
point $-1 16.814814704428208 15.781403204894017 -0.50946127302501842 #
vertex $-1 $610 $746 #
point $-1 23.207370247282995 15.781403204894017 -0.50946127302501842 #
straight-curve $-1 -43.982055116428114 23.162289538090008 0 0 0 -1 I I #
point $-1 -43.982055116428114 -23.162289538090008 -6.8714250356109918 #
straight-curve $-1 -43.982055116428114 0 -6.8714250356109918 0 1 0 I I #
point $-1 -43.982055116428114 23.162289538090008 -6.8714250356109918 #
coedge $-1 $715 $631 $634 $712 reversed $483 $-1 #
straight-curve $-1 -50.490999741792379 23.162289538090008 3.8408152187772497 0 0 -1 I I #
edge $-1 $717 -23.162289538090008 $635 23.162289538090008 $710 $747 forward 7 unknown #
point $-1 -50.490999741792379 23.162289538090008 1.8321077085197652 #
point $-1 -50.490999741792379 23.162289538090008 5.8495227290347342 #
coedge $-1 $644 $710 $641 $716 reversed $483 $-1 #
edge $-1 $646 -2.0087075102574845 $717 2.0087075102574845 $715 $748 forward 7 unknown #
vertex $-1 $712 $749 #
straight-curve $-1 -47.236527429110247 -23.162289538090008 1.8321077085197652 -1 0 0 I I #
straight-curve $-1 -50.490999741792379 0 5.8495227290347342 0 -1 0 I I #
point $-1 -50.490999741792379 -23.162289538090008 5.8495227290347342 #
straight-curve $-1 -37.473110491063842 -23.162289538090008 35.601007782723201 0 0 -1 I I #
point $-1 -37.473110491063842 -23.162289538090008 6.8714250356109918 #
straight-curve $-1 -15.728628050943913 -23.162289538090008 0.95075402879610249 1 0 0 I I #
point $-1 -37.473110491063842 -23.162289538090008 0.95075402879610316 #
point $-1 -35.066768735393438 -17.927447015972003 2.1775115971767045 #
point $-1 -31.457256101887825 -17.927447015972003 2.1775115971767045 #
point $-1 -27.847743468382216 -17.927447015972003 2.1775115971767045 #
straight-curve $-1 3.254472312682136 -23.162289538090008 35.601007782723201 0 0 -1 I I #
point $-1 3.254472312682136 -23.162289538090008 6.8714250356109918 #
straight-curve $-1 4.6351633509290764 -23.162289538090008 0.95075402879610249 1 0 0 I I #
point $-1 3.254472312682136 -23.162289538090008 0.95075402879610316 #
point $-1 5.6608140683525434 -17.927447015972003 2.1775115971767045 #
point $-1 9.2703267018581528 -17.927447015972003 2.1775115971767045 #
point $-1 12.879839335363769 -17.927447015972003 2.1775115971767045 #
straight-curve $-1 -15.258508861226444 23.162289538090008 47.752683985283952 0 0 -1 I I #
point $-1 -15.258508861226444 23.162289538090008 6.8714250356109918 #
straight-curve $-1 -11.358245163945185 23.162289538090008 0.54892546511580775 -1 0 0 I I #
point $-1 -15.258508861226444 23.162289538090008 0.54892546511580775 #
point $-1 -25.912768099317766 14.367189626112436 -1.9236748189896273 #
point $-1 -19.520212556462972 14.367189626112436 -1.9236748189896273 #
straight-curve $-1 25.469073942519529 23.162289538090008 47.752683985283952 0 0 -1 I I #
point $-1 25.469073942519529 23.162289538090008 6.8714250356109918 #
straight-curve $-1 9.0055462379278026 23.162289538090008 0.54892546511580775 -1 0 0 I I #
point $-1 25.469073942519529 23.162289538090008 0.54892546511580775 #
point $-1 14.814814704428208 14.367189626112436 -1.9236748189896273 #
point $-1 21.207370247282995 14.367189626112436 -1.9236748189896273 #
straight-curve $-1 -50.490999741792379 0 1.8321077085197652 0 1 0 I I #
straight-curve $-1 -50.490999741792379 -23.162289538090008 3.8408152187772497 0 0 -1 I I #
point $-1 -50.490999741792379 -23.162289538090008 1.8321077085197652 #
End-of-ACIS-data 