500 0 9 0           
7 Unknown 11 ACIS 5.0 NT 24 Fri Mar 26 18:26:16 1999 
-1 9.9999999999999995e-007 1e-010 
body $-1 $9 $-1 $10 #
body $-1 $11 $-1 $12 #
body $-1 $13 $-1 $14 #
body $-1 $15 $-1 $16 #
body $-1 $17 $-1 $18 #
body $-1 $19 $-1 $20 #
body $-1 $21 $-1 $22 #
body $-1 $23 $-1 $24 #
body $-1 $25 $-1 $26 #
lump $-1 $-1 $27 $0 #
transform $-1 1 0 0 0 1 0 0 0 1 71.745353556932287 34.575142780302194 16.445219741189788 1 rotate no_reflect no_shear #
lump $-1 $-1 $28 $1 #
transform $-1 1 0 0 0 1 0 0 0 1 71.745353556932287 34.575142780302194 16.445219741189788 1 rotate no_reflect no_shear #
lump $-1 $-1 $29 $2 #
transform $-1 1 0 0 0 1 0 0 0 1 71.745353556932287 34.575142780302194 16.445219741189788 1 rotate no_reflect no_shear #
lump $-1 $-1 $30 $3 #
transform $-1 1 0 0 0 1 0 0 0 1 71.745353556932287 34.575142780302194 16.445219741189788 1 rotate no_reflect no_shear #
lump $-1 $-1 $31 $4 #
transform $-1 1 0 0 0 1 0 0 0 1 71.745353556932287 34.575142780302194 16.445219741189788 1 rotate no_reflect no_shear #
lump $-1 $-1 $32 $5 #
transform $-1 1 0 0 0 1 0 0 0 1 71.745353556932287 34.575142780302194 16.445219741189788 1 rotate no_reflect no_shear #
lump $-1 $-1 $33 $6 #
transform $-1 1 0 0 0 1 0 0 0 1 71.745353556932287 34.575142780302194 16.445219741189788 1 rotate no_reflect no_shear #
lump $-1 $-1 $34 $7 #
transform $-1 1 0 0 0 1 0 0 0 1 71.745353556932287 34.575142780302194 16.445219741189788 1 rotate no_reflect no_shear #
lump $-1 $-1 $35 $8 #
transform $-1 1 0 0 0 1 0 0 0 1 71.745353556932287 34.575142780302194 16.445219741189788 1 rotate no_reflect no_shear #
shell $-1 $-1 $-1 $36 $-1 $9 #
shell $-1 $-1 $-1 $37 $-1 $11 #
shell $-1 $-1 $-1 $38 $-1 $13 #
shell $-1 $-1 $-1 $39 $-1 $15 #
shell $-1 $-1 $-1 $40 $-1 $17 #
shell $-1 $-1 $-1 $41 $-1 $19 #
shell $-1 $-1 $-1 $42 $-1 $21 #
shell $-1 $-1 $-1 $43 $-1 $23 #
shell $-1 $-1 $-1 $44 $-1 $25 #
face $-1 $45 $46 $27 $-1 $47 forward single #
face $-1 $48 $49 $28 $-1 $50 reversed single #
face $-1 $51 $52 $29 $-1 $53 reversed single #
face $-1 $54 $55 $30 $-1 $56 forward single #
face $-1 $57 $58 $31 $-1 $59 forward single #
face $-1 $60 $61 $32 $-1 $62 forward single #
face $-1 $63 $64 $33 $-1 $65 reversed single #
face $-1 $66 $67 $34 $-1 $68 forward single #
face $-1 $69 $70 $35 $-1 $71 forward single #
face $-1 $72 $73 $27 $-1 $74 reversed single #
loop $-1 $-1 $75 $36 #
plane-surface $-1 0 0 16.445219741189788 0 0 1 1 0 0 forward_v I I I I #
face $-1 $76 $77 $28 $-1 $78 reversed single #
loop $-1 $-1 $79 $37 #
plane-surface $-1 0 -27.728843272086138 8.6924231034122954 0 0 1 1 0 0 forward_v I I I I #
face $-1 $80 $81 $29 $-1 $82 reversed single #
loop $-1 $-1 $83 $38 #
plane-surface $-1 92.956951837938448 -14.26638705992246 214.73895427140695 0 -1 0 -0.77714596973225614 0 -0.62932038083071107 forward_v I I I I #
face $-1 $84 $85 $30 $-1 $86 forward single #
loop $-1 $87 $88 $39 #
cone-surface $-1 69.791283033596102 -19.559312423080556 14.25677272742035 -0.77714596973225614 0 -0.62932038083071107 0.31466019041535553 0 -0.38857298486612807 1 I I 0 1 0.5 forward I I I I #
face $-1 $89 $90 $31 $-1 $91 forward single #
loop $-1 $92 $93 $40 #
cone-surface $-1 69.791283033596102 -17.574465411896266 14.25677272742035 -0.77714596973225614 0 -0.62932038083071107 0.31466019041535553 0 -0.38857298486612807 1 I I 0 1 0.5 forward I I I I #
face $-1 $94 $95 $32 $-1 $96 forward single #
loop $-1 $97 $98 $41 #
cone-surface $-1 69.791283033596102 -15.589618400711981 14.25677272742035 -0.77714596973225614 0 -0.62932038083071107 0.31466019041535553 0 -0.38857298486612807 1 I I 0 1 0.5 forward I I I I #
face $-1 $99 $100 $33 $-1 $101 reversed single #
loop $-1 $-1 $102 $42 #
plane-surface $-1 -186.3421287999191 -11.766699694065407 98.967525752959972 0 -1 0 0.79863551827123203 0 -0.60181501223851219 forward_v I I I I #
face $-1 $103 $104 $34 $-1 $105 forward single #
loop $-1 $106 $107 $43 #
cone-surface $-1 -69.548307451235175 -18.278016886783028 13.961495213713819 0.79863551827123203 0 -0.60181501223851219 0.3009075061192561 0 0.39931775913561601 1 I I 0 1 0.5 forward I I I I #
face $-1 $108 $109 $35 $-1 $110 forward single #
loop $-1 $111 $112 $44 #
cone-surface $-1 -69.548307451235175 -14.371226571152455 13.961495213713819 0.79863551827123203 0 -0.60181501223851219 0.3009075061192561 0 0.39931775913561601 1 I I 0 1 0.5 forward I I I I #
face $-1 $113 $114 $27 $-1 $115 reversed single #
loop $-1 $-1 $116 $45 #
plane-surface $-1 0 0 -16.445219741189788 0 0 1 1 0 0 forward_v I I I I #
coedge $-1 $117 $118 $119 $120 forward $46 $-1 #
face $-1 $121 $122 $28 $-1 $123 reversed single #
loop $-1 $-1 $124 $48 #
plane-surface $-1 0 -20.882543763870082 12.568821422301042 0 -1 0 0 0 -1 forward_v I I I I #
coedge $-1 $125 $126 $127 $128 reversed $49 $-1 #
face $-1 $129 $130 $29 $-1 $131 forward single #
loop $-1 $-1 $132 $51 #
plane-surface $-1 -18.556272889632979 -17.57446541189627 124.43732782484167 0.77714596973225614 0 0.62932038083071107 0.62932038083071107 0 -0.77714596973225614 forward_v I I I I #
coedge $-1 $133 $134 $135 $136 reversed $52 $-1 #
face $-1 $-1 $137 $30 $-1 $138 forward single #
loop $-1 $139 $140 $54 #
cone-surface $-1 69.068597998126904 -19.559312423080556 13.671553940403001 -0.77714596973225614 0 -0.62932038083071107 0.15733009520767777 0 -0.19428649243306403 1 I I -0.70710678118654746 0.70710678118654746 0.25 forward I I I I #
loop $-1 $-1 $141 $39 #
coedge $-1 $88 $88 $142 $143 reversed $55 $-1 #
face $-1 $-1 $144 $31 $-1 $145 forward single #
loop $-1 $146 $147 $57 #
cone-surface $-1 69.068597998126904 -17.574465411896266 13.671553940403001 -0.77714596973225614 0 -0.62932038083071107 0.15733009520767777 0 -0.19428649243306403 1 I I -0.70710678118654746 0.70710678118654746 0.25 forward I I I I #
loop $-1 $-1 $148 $40 #
coedge $-1 $93 $93 $149 $150 reversed $58 $-1 #
face $-1 $-1 $151 $32 $-1 $152 forward single #
loop $-1 $153 $154 $60 #
cone-surface $-1 69.068597998126904 -15.589618400711981 13.671553940403001 -0.77714596973225614 0 -0.62932038083071107 0.15733009520767777 0 -0.19428649243306403 1 I I -0.70710678118654746 0.70710678118654746 0.25 forward I I I I #
loop $-1 $-1 $155 $41 #
coedge $-1 $98 $98 $156 $157 reversed $61 $-1 #
face $-1 $158 $159 $33 $-1 $160 forward single #
loop $-1 $-1 $161 $63 #
plane-surface $-1 -71.745353556932301 -16.324621728967742 12.612664095116799 -0.79863551827123203 0 0.60181501223851219 0.60181501223851219 0 0.79863551827123203 forward_v I I I I #
coedge $-1 $162 $163 $164 $165 reversed $64 $-1 #
face $-1 $-1 $166 $34 $-1 $167 forward single #
loop $-1 $168 $169 $66 #
cone-surface $-1 -68.595621339585449 -18.278016886783028 13.243594756214726 0.79863551827123203 0 -0.60181501223851219 0.15045375305962805 0 0.19965887956780801 1 I I -0.70710678118654746 0.70710678118654746 0.25 forward I I I I #
loop $-1 $-1 $170 $43 #
coedge $-1 $107 $107 $171 $172 reversed $67 $-1 #
face $-1 $-1 $173 $35 $-1 $174 forward single #
loop $-1 $175 $176 $69 #
cone-surface $-1 -68.595621339585449 -14.371226571152455 13.243594756214726 0.79863551827123203 0 -0.60181501223851219 0.15045375305962805 0 0.19965887956780801 1 I I -0.70710678118654746 0.70710678118654746 0.25 forward I I I I #
loop $-1 $-1 $177 $44 #
coedge $-1 $112 $112 $178 $179 reversed $70 $-1 #
face $-1 $180 $181 $27 $-1 $182 reversed single #
loop $-1 $-1 $183 $72 #
plane-surface $-1 0 -34.575142780302194 0 0 1 0 0 0 1 forward_v I I I I #
coedge $-1 $184 $185 $186 $187 forward $73 $-1 #
coedge $-1 $188 $75 $189 $190 forward $46 $-1 #
coedge $-1 $75 $188 $191 $192 forward $46 $-1 #
coedge $-1 $193 $194 $75 $120 reversed $195 $-1 #
edge $-1 $196 -34.575142780302194 $197 34.575142780302194 $119 $198 forward 7 unknown #
face $-1 $199 $200 $28 $-1 $201 reversed single #
loop $-1 $-1 $202 $76 #
plane-surface $-1 -71.745353556932287 0 0 1 0 0 0 0 -1 forward_v I I I I #
coedge $-1 $203 $204 $205 $206 reversed $77 $-1 #
coedge $-1 $207 $79 $208 $209 reversed $49 $-1 #
coedge $-1 $79 $207 $203 $210 forward $49 $-1 #
coedge $-1 $205 $211 $79 $128 forward $212 $-1 #
edge $-1 $213 -20.710721144259125 $214 -7.0181221278270129 $127 $215 forward 7 unknown #
face $-1 $216 $217 $29 $-1 $218 reversed single #
loop $-1 $-1 $219 $80 #
plane-surface $-1 0 -20.882543763870082 12.568821422301042 0 -1 0 0 0 -1 forward_v I I I I #
coedge $-1 $220 $221 $222 $223 reversed $81 $-1 #
coedge $-1 $134 $83 $224 $225 reversed $52 $-1 #
coedge $-1 $83 $133 $220 $226 reversed $52 $-1 #
coedge $-1 $222 $227 $83 $136 forward $228 $-1 #
edge $-1 $229 -25.266877637963063 $230 -22.41553367736293 $135 $231 forward 7 unknown #
loop $-1 $-1 $142 $84 #
plane-surface $-1 -18.556272889632979 -17.57446541189627 124.43732782484167 0.77714596973225614 0 0.62932038083071107 0.62932038083071107 0 -0.77714596973225614 forward_v I I I I #
loop $-1 $-1 $232 $54 #
coedge $-1 $140 $140 $141 $233 reversed $85 $-1 #
coedge $-1 $141 $141 $140 $233 forward $87 $-1 #
coedge $-1 $142 $142 $88 $143 forward $137 $-1 #
edge $-1 $234 0 $234 6.2831853071796004 $142 $235 forward 7 unknown #
loop $-1 $-1 $149 $89 #
plane-surface $-1 -18.556272889632979 -17.57446541189627 124.43732782484167 0.77714596973225614 0 0.62932038083071107 0.62932038083071107 0 -0.77714596973225614 forward_v I I I I #
loop $-1 $-1 $236 $57 #
coedge $-1 $147 $147 $148 $237 reversed $90 $-1 #
coedge $-1 $148 $148 $147 $237 forward $92 $-1 #
coedge $-1 $149 $149 $93 $150 forward $144 $-1 #
edge $-1 $238 0 $238 6.2831853071796004 $149 $239 forward 7 unknown #
loop $-1 $-1 $156 $94 #
plane-surface $-1 -18.556272889632979 -17.57446541189627 124.43732782484167 0.77714596973225614 0 0.62932038083071107 0.62932038083071107 0 -0.77714596973225614 forward_v I I I I #
loop $-1 $-1 $240 $60 #
coedge $-1 $154 $154 $155 $241 reversed $95 $-1 #
coedge $-1 $155 $155 $154 $241 forward $97 $-1 #
coedge $-1 $156 $156 $98 $157 forward $151 $-1 #
edge $-1 $242 0 $242 6.2831853071796004 $156 $243 forward 7 unknown #
face $-1 $244 $245 $33 $-1 $246 forward single #
loop $-1 $-1 $247 $99 #
plane-surface $-1 0 0 16.445219741189788 0 0 1 1 0 0 forward_v I I I I #
coedge $-1 $248 $249 $250 $251 reversed $100 $-1 #
coedge $-1 $163 $102 $252 $253 reversed $64 $-1 #
coedge $-1 $102 $162 $248 $254 reversed $64 $-1 #
coedge $-1 $250 $255 $102 $165 forward $256 $-1 #
edge $-1 $257 33.038543135290197 $258 36.871098781363166 $164 $259 forward 7 unknown #
loop $-1 $-1 $171 $103 #
plane-surface $-1 -71.745353556932301 -16.324621728967742 12.612664095116799 -0.79863551827123203 0 0.60181501223851219 0.60181501223851219 0 0.79863551827123203 forward_v I I I I #
loop $-1 $-1 $260 $66 #
coedge $-1 $169 $169 $170 $261 reversed $104 $-1 #
coedge $-1 $170 $170 $169 $261 forward $106 $-1 #
coedge $-1 $171 $171 $107 $172 forward $166 $-1 #
edge $-1 $262 0 $262 6.2831853071796004 $171 $263 forward 7 unknown #
loop $-1 $-1 $178 $108 #
plane-surface $-1 -71.745353556932301 -16.324621728967742 12.612664095116799 -0.79863551827123203 0 0.60181501223851219 0.60181501223851219 0 0.79863551827123203 forward_v I I I I #
loop $-1 $-1 $264 $69 #
coedge $-1 $176 $176 $177 $265 reversed $109 $-1 #
coedge $-1 $177 $177 $176 $265 forward $111 $-1 #
coedge $-1 $178 $178 $112 $179 forward $173 $-1 #
edge $-1 $266 0 $266 6.2831853071796004 $178 $267 forward 7 unknown #
face $-1 $268 $269 $27 $-1 $270 reversed single #
loop $-1 $-1 $271 $113 #
plane-surface $-1 -71.745353556932287 0 0 1 0 0 0 0 -1 forward_v I I I I #
coedge $-1 $272 $191 $273 $274 forward $114 $-1 #
coedge $-1 $275 $116 $272 $276 forward $73 $-1 #
coedge $-1 $116 $275 $277 $278 forward $73 $-1 #
coedge $-1 $194 $193 $116 $187 reversed $195 $-1 #
edge $-1 $279 -34.575142780302194 $280 34.575142780302194 $186 $281 forward 7 unknown #
coedge $-1 $118 $117 $282 $283 forward $46 $-1 #
coedge $-1 $284 $285 $117 $190 reversed $269 $-1 #
edge $-1 $197 -71.745353556932287 $286 71.745353556932287 $189 $287 forward 7 unknown #
coedge $-1 $183 $288 $118 $192 reversed $114 $-1 #
edge $-1 $289 -71.745353556932287 $196 71.745353556932287 $191 $290 forward 7 unknown #
coedge $-1 $186 $119 $288 $291 forward $195 $-1 #
coedge $-1 $119 $186 $284 $292 reversed $195 $-1 #
loop $-1 $-1 $193 $268 #
vertex $-1 $120 $293 #
vertex $-1 $120 $294 #
straight-curve $-1 71.745353556932287 0 16.445219741189788 0 1 0 I I #
face $-1 $295 $296 $28 $-1 $297 forward single #
loop $-1 $-1 $208 $121 #
plane-surface $-1 0 -34.575142780302194 0 0 1 0 0 0 1 forward_v I I I I #
coedge $-1 $298 $299 $300 $301 forward $122 $-1 #
coedge $-1 $300 $124 $126 $210 reversed $77 $-1 #
coedge $-1 $124 $300 $302 $303 reversed $77 $-1 #
coedge $-1 $304 $127 $124 $206 forward $212 $-1 #
edge $-1 $214 2.4080123922617744 $305 10.160809030039267 $205 $306 forward 7 unknown #
coedge $-1 $126 $125 $298 $307 reversed $49 $-1 #
coedge $-1 $308 $309 $125 $209 forward $200 $-1 #
edge $-1 $310 -71.745353556932287 $213 71.745353556932287 $208 $311 forward 7 unknown #
edge $-1 $312 -71.745353556932287 $214 71.745353556932287 $203 $313 forward 7 unknown #
coedge $-1 $127 $304 $308 $314 forward $212 $-1 #
loop $-1 $-1 $205 $295 #
vertex $-1 $209 $315 #
vertex $-1 $128 $316 #
straight-curve $-1 71.745353556932287 -13.864421636043069 8.6924231034122954 0 1 0 I I #
face $-1 $-1 $228 $29 $-1 $317 forward single #
loop $-1 $-1 $318 $129 #
plane-surface $-1 71.745353556932287 0 0 -1 0 0 0 0 1 forward_v I I I I #
coedge $-1 $319 $320 $221 $321 forward $130 $-1 #
coedge $-1 $322 $132 $134 $226 forward $81 $-1 #
coedge $-1 $132 $322 $219 $321 reversed $81 $-1 #
coedge $-1 $323 $135 $132 $223 forward $228 $-1 #
edge $-1 $230 5.4791543539743248 $324 12.095311057921947 $222 $325 forward 7 unknown #
coedge $-1 $326 $318 $133 $225 forward $217 $-1 #
edge $-1 $327 -94.445374038433215 $229 -90.924257394513688 $224 $328 forward 7 unknown #
edge $-1 $230 138.9598766379211 $327 143.49070711386454 $134 $329 forward 7 unknown #
coedge $-1 $135 $323 $326 $330 forward $228 $-1 #
loop $-1 $-1 $222 $216 #
vertex $-1 $225 $331 #
vertex $-1 $136 $332 #
straight-curve $-1 46.478475918969224 -14.26638705992246 16.445219741189788 -1 0 0 I I #
coedge $-1 $232 $232 $-1 $333 reversed $139 $-1 #
edge $-1 $334 0 $334 6.2831853071796004 $140 $335 forward 7 unknown #
vertex $-1 $143 $336 #
ellipse-curve $-1 70.319681576632235 -19.559312423080556 14.684661419230014 0.77714596973225614 0 0.62932038083071107 0.31466019041535553 0 -0.38857298486612807 1 I I #
coedge $-1 $236 $236 $-1 $337 reversed $146 $-1 #
edge $-1 $338 0 $338 6.2831853071796004 $147 $339 forward 7 unknown #
vertex $-1 $150 $340 #
ellipse-curve $-1 70.319681576632235 -17.574465411896266 14.684661419230014 0.77714596973225614 0 0.62932038083071107 0.31466019041535553 0 -0.38857298486612807 1 I I #
coedge $-1 $240 $240 $-1 $341 reversed $153 $-1 #
edge $-1 $342 0 $342 6.2831853071796004 $154 $343 forward 7 unknown #
vertex $-1 $157 $344 #
ellipse-curve $-1 70.319681576632235 -15.589618400711981 14.684661419230014 0.77714596973225614 0 0.62932038083071107 0.31466019041535553 0 -0.38857298486612807 1 I I #
face $-1 $-1 $256 $33 $-1 $345 reversed single #
loop $-1 $-1 $346 $158 #
plane-surface $-1 0 -20.882543763870082 12.568821422301042 0 -1 0 0 0 -1 forward_v I I I I #
coedge $-1 $252 $347 $348 $349 forward $159 $-1 #
coedge $-1 $348 $161 $163 $254 forward $100 $-1 #
coedge $-1 $161 $348 $346 $350 reversed $100 $-1 #
coedge $-1 $351 $164 $161 $251 forward $256 $-1 #
edge $-1 $258 3.6043888295815361 $352 12.720232899386211 $250 $353 forward 7 unknown #
coedge $-1 $354 $247 $162 $253 forward $159 $-1 #
edge $-1 $355 -24.313748590257603 $257 -21.425710843027261 $252 $356 forward 7 unknown #
edge $-1 $258 2.4157584020108747e-014 $355 4.7988795368995607 $163 $357 forward 7 unknown #
coedge $-1 $164 $351 $354 $358 reversed $256 $-1 #
loop $-1 $-1 $250 $244 #
vertex $-1 $358 $359 #
vertex $-1 $165 $360 #
straight-curve $-1 -71.745353556932287 -11.766699694065407 49.483762876479986 0 0 -1 I I #
coedge $-1 $260 $260 $-1 $361 reversed $168 $-1 #
edge $-1 $362 0 $362 6.2831853071796004 $169 $363 forward 7 unknown #
vertex $-1 $172 $364 #
ellipse-curve $-1 -70.301334683317123 -18.278016886783028 14.528941918153301 -0.79863551827123203 0 0.60181501223851219 0.3009075061192561 0 0.39931775913561601 1 I I #
coedge $-1 $264 $264 $-1 $365 reversed $175 $-1 #
edge $-1 $366 0 $366 6.2831853071796004 $176 $367 forward 7 unknown #
vertex $-1 $179 $368 #
ellipse-curve $-1 -70.301334683317123 -14.371226571152455 14.528941918153301 -0.79863551827123203 0 0.60181501223851219 0.3009075061192561 0 0.39931775913561601 1 I I #
face $-1 $-1 $195 $27 $-1 $369 reversed single #
loop $-1 $-1 $284 $180 #
plane-surface $-1 0 34.575142780302194 0 0 -1 0 0 0 -1 forward_v I I I I #
coedge $-1 $370 $282 $285 $371 forward $181 $-1 #
coedge $-1 $288 $183 $184 $276 reversed $114 $-1 #
coedge $-1 $282 $370 $183 $274 reversed $181 $-1 #
edge $-1 $289 -16.445219741189788 $372 16.445219741189788 $273 $373 forward 7 unknown #
coedge $-1 $185 $184 $370 $374 forward $73 $-1 #
edge $-1 $280 -71.745353556932287 $372 71.745353556932287 $272 $375 forward 7 unknown #
coedge $-1 $285 $284 $185 $278 reversed $269 $-1 #
edge $-1 $376 -71.745353556932287 $279 71.745353556932287 $277 $377 forward 7 unknown #
vertex $-1 $187 $378 #
vertex $-1 $291 $379 #
straight-curve $-1 71.745353556932287 0 -16.445219741189788 0 -1 0 I I #
coedge $-1 $271 $273 $188 $283 reversed $181 $-1 #
edge $-1 $286 -34.575142780302194 $289 34.575142780302194 $282 $380 forward 7 unknown #
coedge $-1 $277 $189 $194 $292 forward $269 $-1 #
coedge $-1 $189 $277 $271 $371 reversed $269 $-1 #
vertex $-1 $190 $381 #
straight-curve $-1 0 34.575142780302194 16.445219741189788 -1 0 0 I I #
coedge $-1 $191 $272 $193 $291 reversed $114 $-1 #
vertex $-1 $283 $382 #
straight-curve $-1 0 -34.575142780302194 16.445219741189788 1 0 0 I I #
edge $-1 $196 -16.445219741189788 $280 16.445219741189788 $193 $383 forward 7 unknown #
edge $-1 $197 -16.445219741189788 $279 16.445219741189788 $194 $384 forward 7 unknown #
point $-1 71.745353556932287 -34.575142780302194 16.445219741189788 #
point $-1 71.745353556932287 34.575142780302194 16.445219741189788 #
face $-1 $-1 $212 $28 $-1 $385 reversed single #
loop $-1 $-1 $302 $199 #
plane-surface $-1 0 0 16.445219741189788 0 0 1 1 0 0 forward_v I I I I #
coedge $-1 $386 $202 $207 $307 forward $122 $-1 #
coedge $-1 $202 $386 $387 $388 reversed $122 $-1 #
coedge $-1 $204 $203 $202 $301 reversed $77 $-1 #
edge $-1 $389 -10.160809030039267 $312 -2.4080123922617744 $202 $390 forward 7 unknown #
coedge $-1 $387 $391 $204 $303 forward $296 $-1 #
edge $-1 $305 -71.745353556932287 $389 71.745353556932287 $302 $392 forward 7 unknown #
coedge $-1 $211 $205 $391 $393 reversed $212 $-1 #
vertex $-1 $206 $394 #
straight-curve $-1 71.745353556932287 -20.882543763870082 6.284410711150521 0 0 1 I I #
edge $-1 $312 7.0181221278270129 $310 20.710721144259125 $298 $395 forward 7 unknown #
coedge $-1 $396 $208 $211 $314 reversed $200 $-1 #
coedge $-1 $208 $396 $386 $397 forward $200 $-1 #
vertex $-1 $209 $398 #
straight-curve $-1 0 -34.575142780302194 8.6924231034122954 1 0 0 I I #
vertex $-1 $307 $399 #
straight-curve $-1 0 -20.882543763870082 8.6924231034122954 1 0 0 I I #
edge $-1 $400 -16.445219741189788 $213 -8.6924231034122954 $211 $401 forward 7 unknown #
point $-1 71.745353556932287 -34.575142780302194 8.6924231034122954 #
point $-1 71.745353556932287 -20.882543763870082 8.6924231034122954 #
plane-surface $-1 0 0 16.445219741189788 0 0 1 1 0 0 forward_v I I I I #
coedge $-1 $224 $402 $322 $403 forward $217 $-1 #
coedge $-1 $320 $219 $402 $404 reversed $130 $-1 #
coedge $-1 $219 $319 $323 $405 reversed $130 $-1 #
edge $-1 $324 89.651876831719136 $406 94.182707307662582 $219 $407 forward 7 unknown #
coedge $-1 $221 $220 $318 $403 reversed $81 $-1 #
coedge $-1 $227 $222 $320 $405 forward $228 $-1 #
vertex $-1 $405 $408 #
straight-curve $-1 68.894009596332168 -8.787232705948135 16.445219741189788 0 -1 0 I I #
coedge $-1 $402 $224 $227 $330 reversed $217 $-1 #
vertex $-1 $225 $409 #
straight-curve $-1 71.745353556932287 -14.26638705992246 107.36947713570348 0 0 1 I I #
straight-curve $-1 -18.556272889632979 -14.26638705992246 124.43732782484167 0.62932038083071107 0 -0.77714596973225614 I I #
edge $-1 $410 -20.882543763870082 $229 -14.26638705992246 $326 $411 forward 7 unknown #
point $-1 71.745353556932287 -14.26638705992246 16.445219741189788 #
point $-1 68.894009596332154 -14.26638705992246 16.445219741189803 #
edge $-1 $412 1 $412 0 $232 $-1 forward 7 unknown #
vertex $-1 $233 $413 #
ellipse-curve $-1 69.262884490559969 -19.559312423080556 13.828884035610679 0.77714596973225614 0 0.62932038083071107 0.31466019041535553 0 -0.38857298486612807 1 I I #
point $-1 70.634341767047587 -19.559312423080556 14.29608843436389 #
edge $-1 $414 1 $414 0 $236 $-1 forward 7 unknown #
vertex $-1 $237 $415 #
ellipse-curve $-1 69.262884490559969 -17.574465411896266 13.828884035610679 0.77714596973225614 0 0.62932038083071107 0.31466019041535553 0 -0.38857298486612807 1 I I #
point $-1 70.634341767047587 -17.574465411896266 14.29608843436389 #
edge $-1 $416 1 $416 0 $240 $-1 forward 7 unknown #
vertex $-1 $241 $417 #
ellipse-curve $-1 69.262884490559969 -15.589618400711981 13.828884035610679 0.77714596973225614 0 0.62932038083071107 0.31466019041535553 0 -0.38857298486612807 1 I I #
point $-1 70.634341767047587 -15.589618400711981 14.29608843436389 #
plane-surface $-1 -71.745353556932287 0 0 1 0 0 0 0 -1 forward_v I I I I #
coedge $-1 $418 $419 $249 $350 forward $245 $-1 #
coedge $-1 $247 $354 $418 $420 forward $159 $-1 #
coedge $-1 $249 $248 $247 $349 reversed $100 $-1 #
edge $-1 $421 -12.720232899386211 $355 -3.6043888295815361 $247 $422 forward 7 unknown #
edge $-1 $352 -21.571208256597473 $421 -16.772328719697938 $346 $423 forward 7 unknown #
coedge $-1 $255 $250 $419 $424 forward $256 $-1 #
vertex $-1 $424 $425 #
straight-curve $-1 -71.745353556932287 -8.1623108644838709 12.612664095116806 0 -1 0 I I #
coedge $-1 $347 $252 $255 $358 forward $159 $-1 #
vertex $-1 $253 $426 #
straight-curve $-1 -93.171064399959548 -11.766699694065407 16.445219741189788 -1 0 0 I I #
straight-curve $-1 -71.745353556932301 -11.766699694065407 12.612664095116799 0.60181501223851219 0 0.79863551827123203 I I #
edge $-1 $257 11.766699694065407 $427 20.882543763870082 $255 $428 forward 7 unknown #
point $-1 -71.745353556932287 -11.766699694065407 16.445219741189788 #
point $-1 -71.745353556932287 -11.766699694065407 12.612664095116818 #
edge $-1 $429 1 $429 0 $260 $-1 forward 7 unknown #
vertex $-1 $261 $430 #
ellipse-curve $-1 -68.795280219153256 -18.278016886783028 13.394048509274354 -0.79863551827123203 0 0.60181501223851219 0.3009075061192561 0 0.39931775913561601 1 I I #
point $-1 -70.000427177197849 -18.278016886783028 14.928259677288903 #
edge $-1 $431 1 $431 0 $264 $-1 forward 7 unknown #
vertex $-1 $265 $432 #
ellipse-curve $-1 -68.795280219153256 -14.371226571152455 13.394048509274354 -0.79863551827123203 0 0.60181501223851219 0.3009075061192561 0 0.39931775913561601 1 I I #
point $-1 -70.000427177197849 -14.371226571152455 14.928259677288903 #
plane-surface $-1 71.745353556932287 0 0 -1 0 0 0 0 1 forward_v I I I I #
coedge $-1 $273 $271 $275 $374 reversed $181 $-1 #
edge $-1 $286 -16.445219741189788 $376 16.445219741189788 $285 $433 forward 7 unknown #
vertex $-1 $374 $434 #
straight-curve $-1 -71.745353556932287 -34.575142780302194 0 0 0 -1 I I #
edge $-1 $372 -34.575142780302194 $376 34.575142780302194 $370 $435 forward 7 unknown #
straight-curve $-1 0 -34.575142780302194 -16.445219741189788 -1 0 0 I I #
vertex $-1 $278 $436 #
straight-curve $-1 0 34.575142780302194 -16.445219741189788 1 0 0 I I #
point $-1 71.745353556932287 34.575142780302194 -16.445219741189788 #
point $-1 71.745353556932287 -34.575142780302194 -16.445219741189788 #
straight-curve $-1 -71.745353556932287 0 16.445219741189788 0 -1 0 I I #
point $-1 -71.745353556932287 34.575142780302194 16.445219741189788 #
point $-1 -71.745353556932287 -34.575142780302194 16.445219741189788 #
straight-curve $-1 71.745353556932287 -34.575142780302194 0 0 0 -1 I I #
straight-curve $-1 71.745353556932287 34.575142780302194 0 0 0 -1 I I #
plane-surface $-1 71.745353556932287 0 0 -1 0 0 0 0 1 forward_v I I I I #
coedge $-1 $299 $298 $309 $397 reversed $122 $-1 #
coedge $-1 $437 $302 $299 $388 forward $296 $-1 #
edge $-1 $389 20.882543763870082 $438 34.575142780302194 $299 $439 forward 7 unknown #
vertex $-1 $388 $440 #
straight-curve $-1 -71.745353556932287 -20.882543763870082 6.284410711150521 0 0 -1 I I #
coedge $-1 $302 $437 $304 $393 forward $296 $-1 #
straight-curve $-1 0 -20.882543763870082 16.445219741189788 -1 0 0 I I #
edge $-1 $400 -34.575142780302194 $305 -20.882543763870082 $304 $441 forward 7 unknown #
point $-1 71.745353556932287 -20.882543763870082 16.445219741189788 #
straight-curve $-1 -71.745353556932287 -13.864421636043069 8.6924231034122954 0 -1 0 I I #
coedge $-1 $309 $308 $437 $442 reversed $200 $-1 #
edge $-1 $438 -16.445219741189788 $310 -8.6924231034122954 $386 $443 forward 7 unknown #
point $-1 -71.745353556932287 -34.575142780302194 8.6924231034122954 #
point $-1 -71.745353556932287 -20.882543763870082 8.6924231034122954 #
vertex $-1 $393 $444 #
straight-curve $-1 71.745353556932287 -34.575142780302194 0 0 0 -1 I I #
coedge $-1 $318 $326 $319 $404 forward $217 $-1 #
edge $-1 $406 -12.095311057921947 $327 -5.4791543539743248 $318 $445 forward 7 unknown #
edge $-1 $410 -10.160809030039267 $406 -6.6396923861197354 $402 $446 forward 7 unknown #
edge $-1 $324 68.894009596332168 $410 71.745353556932287 $323 $447 forward 7 unknown #
vertex $-1 $321 $448 #
straight-curve $-1 12.474256326406682 -20.882543763870082 86.117814499892944 0.62932038083071107 0 -0.77714596973225614 I I #
point $-1 68.894009596332168 -20.882543763870082 16.445219741189788 #
point $-1 71.745353556932272 -14.26638705992246 12.924103097270262 #
vertex $-1 $330 $449 #
straight-curve $-1 71.745353556932287 0 16.445219741189788 0 1 0 I I #
vertex $-1 $333 $450 #
point $-1 69.577544680975322 -19.559312423080556 13.440311050744551 #
vertex $-1 $337 $451 #
point $-1 69.577544680975322 -17.574465411896266 13.440311050744551 #
vertex $-1 $341 $452 #
point $-1 69.577544680975322 -15.589618400711981 13.440311050744551 #
coedge $-1 $419 $346 $347 $420 reversed $245 $-1 #
coedge $-1 $346 $418 $351 $424 reversed $245 $-1 #
edge $-1 $427 -71.745353556932287 $421 -68.857315809701944 $347 $453 forward 7 unknown #
vertex $-1 $350 $454 #
straight-curve $-1 -68.857315809701944 -8.1623108644838709 16.445219741189788 0 1 0 I I #
straight-curve $-1 -58.763476595988578 -20.882543763870082 29.840197180861217 0.60181501223851219 0 0.79863551827123203 I I #
edge $-1 $352 6.3282533839662971 $427 10.160809030039267 $351 $455 forward 7 unknown #
point $-1 -71.745353556932287 -20.882543763870082 12.612664095116818 #
point $-1 -68.857315809701944 -11.766699694065407 16.445219741189788 #
vertex $-1 $424 $456 #
straight-curve $-1 -71.745353556932287 0 16.445219741189788 0 -1 0 I I #
vertex $-1 $361 $457 #
point $-1 -68.494372713033997 -18.278016886783028 13.79336626840997 #
vertex $-1 $365 $458 #
point $-1 -68.494372713033997 -14.371226571152455 13.79336626840997 #
straight-curve $-1 -71.745353556932287 34.575142780302194 0 0 0 -1 I I #
point $-1 -71.745353556932287 -34.575142780302194 -16.445219741189788 #
straight-curve $-1 -71.745353556932287 0 -16.445219741189788 0 1 0 I I #
point $-1 -71.745353556932287 34.575142780302194 -16.445219741189788 #
coedge $-1 $391 $387 $396 $442 forward $296 $-1 #
vertex $-1 $388 $459 #
straight-curve $-1 -71.745353556932287 0 16.445219741189788 0 -1 0 I I #
point $-1 -71.745353556932287 -20.882543763870082 16.445219741189788 #
straight-curve $-1 71.745353556932287 0 16.445219741189788 0 1 0 I I #
edge $-1 $438 -71.745353556932287 $400 71.745353556932287 $396 $460 forward 7 unknown #
straight-curve $-1 -71.745353556932287 -34.575142780302194 0 0 0 -1 I I #
point $-1 71.745353556932287 -34.575142780302194 16.445219741189788 #
straight-curve $-1 71.745353556932287 -8.787232705948135 12.924103097270269 0 1 0 I I #
straight-curve $-1 71.745353556932287 -20.882543763870082 6.284410711150521 0 0 -1 I I #
straight-curve $-1 0 -20.882543763870082 16.445219741189788 1 0 0 I I #
point $-1 71.745353556932287 -20.882543763870082 12.924103097270256 #
point $-1 71.745353556932287 -20.882543763870082 16.445219741189788 #
point $-1 68.874311505693839 -19.559312423080556 13.514223845195323 #
point $-1 68.874311505693839 -17.574465411896266 13.514223845195323 #
point $-1 68.874311505693839 -15.589618400711981 13.514223845195323 #
straight-curve $-1 0 -20.882543763870082 16.445219741189788 1 0 0 I I #
point $-1 -68.857315809701944 -20.882543763870082 16.445219741189788 #
straight-curve $-1 -71.745353556932287 -20.882543763870082 6.284410711150521 0 0 1 I I #
point $-1 -71.745353556932287 -20.882543763870082 16.445219741189788 #
point $-1 -68.395962460017643 -18.278016886783028 13.093141003155099 #
point $-1 -68.395962460017643 -14.371226571152455 13.093141003155099 #
point $-1 -71.745353556932287 -34.575142780302194 16.445219741189788 #
straight-curve $-1 0 -34.575142780302194 16.445219741189788 1 0 0 I I #
End-of-ACIS-data 