500 0 10 0           
7 Unknown 11 ACIS 5.0 NT 24 Fri Mar 26 19:29:53 1999 
-1 9.9999999999999995e-007 1e-010 
body $-1 $10 $-1 $11 #
body $-1 $12 $-1 $13 #
body $-1 $14 $-1 $15 #
body $-1 $16 $-1 $17 #
body $-1 $18 $-1 $19 #
body $-1 $20 $-1 $21 #
body $-1 $22 $-1 $23 #
body $-1 $24 $-1 $25 #
body $-1 $26 $-1 $27 #
body $-1 $28 $-1 $29 #
lump $-1 $-1 $30 $0 #
transform $-1 1 0 0 0 1 0 0 0 1 76.959135715811641 51.131896850522701 15.536968418894446 1 rotate no_reflect no_shear #
lump $-1 $-1 $31 $1 #
transform $-1 1 0 0 0 1 0 0 0 1 76.959135715811641 51.131896850522701 15.536968418894446 1 rotate no_reflect no_shear #
lump $-1 $-1 $32 $2 #
transform $-1 1 0 0 0 1 0 0 0 1 76.959135715811641 51.131896850522701 15.536968418894446 1 rotate no_reflect no_shear #
lump $-1 $-1 $33 $3 #
transform $-1 1 0 0 0 1 0 0 0 1 76.959135715811641 51.131896850522701 15.536968418894446 1 rotate no_reflect no_shear #
lump $-1 $-1 $34 $4 #
transform $-1 1 0 0 0 1 0 0 0 1 76.959135715811641 51.131896850522701 15.536968418894446 1 rotate no_reflect no_shear #
lump $-1 $-1 $35 $5 #
transform $-1 1 0 0 0 1 0 0 0 1 76.959135715811641 51.131896850522701 15.536968418894446 1 rotate no_reflect no_shear #
lump $-1 $-1 $36 $6 #
transform $-1 1 0 0 0 1 0 0 0 1 76.959135715811641 51.131896850522701 15.536968418894446 1 rotate no_reflect no_shear #
lump $-1 $-1 $37 $7 #
transform $-1 1 0 0 0 1 0 0 0 1 76.959135715811641 51.131896850522701 15.536968418894446 1 rotate no_reflect no_shear #
lump $-1 $-1 $38 $8 #
transform $-1 1 0 0 0 1 0 0 0 1 76.959135715811641 51.131896850522701 15.536968418894446 1 rotate no_reflect no_shear #
lump $-1 $-1 $39 $9 #
transform $-1 1 0 0 0 1 0 0 0 1 76.959135715811641 51.131896850522701 15.536968418894446 1 rotate no_reflect no_shear #
shell $-1 $-1 $-1 $40 $-1 $10 #
shell $-1 $-1 $-1 $41 $-1 $12 #
shell $-1 $-1 $-1 $42 $-1 $14 #
shell $-1 $-1 $-1 $43 $-1 $16 #
shell $-1 $-1 $-1 $44 $-1 $18 #
shell $-1 $-1 $-1 $45 $-1 $20 #
shell $-1 $-1 $-1 $46 $-1 $22 #
shell $-1 $-1 $-1 $47 $-1 $24 #
shell $-1 $-1 $-1 $48 $-1 $26 #
shell $-1 $-1 $-1 $49 $-1 $28 #
face $-1 $50 $51 $30 $-1 $52 forward single #
face $-1 $53 $54 $31 $-1 $55 reversed single #
face $-1 $56 $57 $32 $-1 $58 forward single #
face $-1 $59 $60 $33 $-1 $61 forward single #
face $-1 $62 $63 $34 $-1 $64 reversed single #
face $-1 $65 $66 $35 $-1 $67 forward single #
face $-1 $68 $69 $36 $-1 $70 forward single #
face $-1 $71 $72 $37 $-1 $73 reversed single #
face $-1 $74 $75 $38 $-1 $76 forward single #
face $-1 $77 $78 $39 $-1 $79 forward single #
face $-1 $80 $81 $30 $-1 $82 reversed single #
loop $-1 $-1 $83 $40 #
plane-surface $-1 0 0 15.536968418894446 0 0 1 1 0 0 forward_v I I I I #
face $-1 $84 $85 $31 $-1 $86 reversed single #
loop $-1 $-1 $87 $41 #
plane-surface $-1 -199.88373419201827 5.665802458333026 97.296250349211675 0 1 0 -0.79863551827123203 0 0.60181501223851219 forward_v I I I I #
face $-1 $88 $89 $32 $-1 $90 forward single #
loop $-1 $91 $92 $42 #
cone-surface $-1 -72.09172878375351 10.70807996088395 9.5201189967131192 0.79863551827123203 0 -0.60181501223851219 0.90272251835776829 0 1.197953277406848 1 I I 0 1 1.5 forward I I I I #
face $-1 $93 $94 $33 $-1 $95 forward single #
loop $-1 $96 $97 $43 #
cone-surface $-1 -72.09172878375351 18.271496214710332 9.5201189967131192 0.79863551827123203 0 -0.60181501223851219 0.90272251835776829 0 1.197953277406848 1 I I 0 1 1.5 forward I I I I #
face $-1 $98 $99 $34 $-1 $100 reversed single #
loop $-1 $-1 $101 $44 #
plane-surface $-1 92.143260780620153 -22.944212277090045 223.22349712448042 0 -1 0 -0.75470958851134928 0 -0.65605901945558964 forward_v I I I I #
face $-1 $102 $103 $35 $-1 $104 forward single #
loop $-1 $105 $106 $45 #
cone-surface $-1 72.102174493020755 -30.650032498794019 10.159568580514645 -0.75470958851134928 0 -0.65605901945558964 0.98408852918338452 0 -1.132064382767024 1 I I 0 1 1.5 forward I I I I #
face $-1 $107 $108 $36 $-1 $109 forward single #
loop $-1 $110 $111 $46 #
cone-surface $-1 72.102174493020755 -26.026540365771638 10.159568580514645 -0.75470958851134928 0 -0.65605901945558964 0.98408852918338452 0 -1.132064382767024 1 I I 0 1 1.5 forward I I I I #
face $-1 $112 $113 $37 $-1 $114 reversed single #
loop $-1 $-1 $115 $47 #
plane-surface $-1 92.143260780620153 33.732360587475604 223.22349712448042 0 -1 0 -0.75470958851134928 0 -0.65605901945558964 forward_v I I I I #
face $-1 $116 $117 $38 $-1 $118 forward single #
loop $-1 $119 $120 $48 #
cone-surface $-1 72.102174493020755 26.026540365771631 10.159568580514645 -0.75470958851134928 0 -0.65605901945558964 0.98408852918338452 0 -1.132064382767024 1 I I 0 1 1.5 forward I I I I #
face $-1 $121 $122 $39 $-1 $123 forward single #
loop $-1 $124 $125 $49 #
cone-surface $-1 72.102174493020755 30.650032498794012 10.159568580514645 -0.75470958851134928 0 -0.65605901945558964 0.98408852918338452 0 -1.132064382767024 1 I I 0 1 1.5 forward I I I I #
face $-1 $126 $127 $30 $-1 $128 reversed single #
loop $-1 $-1 $129 $50 #
plane-surface $-1 0 0 -15.536968418894446 0 0 1 1 0 0 forward_v I I I I #
coedge $-1 $130 $131 $132 $133 forward $51 $-1 #
face $-1 $134 $135 $31 $-1 $136 reversed single #
loop $-1 $-1 $137 $53 #
plane-surface $-1 -76.959135715811641 14.489788087797145 4.6659239438586724 -0.79863551827123203 0 0.60181501223851219 0.60181501223851219 0 0.79863551827123203 forward_v I I I I #
coedge $-1 $138 $139 $140 $141 reversed $54 $-1 #
face $-1 $-1 $142 $32 $-1 $143 forward single #
loop $-1 $144 $145 $56 #
cone-surface $-1 -70.721304893041605 10.70807996088395 8.4874305528707836 0.79863551827123203 0 -0.60181501223851219 0.45136125917888414 0 0.59897663870342399 1 I I -0.70710678118654757 0.70710678118654757 0.75 forward I I I I #
loop $-1 $-1 $146 $42 #
coedge $-1 $92 $92 $147 $148 reversed $57 $-1 #
face $-1 $-1 $149 $33 $-1 $150 forward single #
loop $-1 $151 $152 $59 #
cone-surface $-1 -70.721304893041605 18.271496214710332 8.4874305528707836 0.79863551827123203 0 -0.60181501223851219 0.45136125917888414 0 0.59897663870342399 1 I I -0.70710678118654757 0.70710678118654757 0.75 forward I I I I #
loop $-1 $-1 $153 $43 #
coedge $-1 $97 $97 $154 $155 reversed $60 $-1 #
face $-1 $156 $157 $34 $-1 $158 reversed single #
loop $-1 $-1 $159 $62 #
plane-surface $-1 -24.020334515918421 -28.338286432282828 122.24402689275036 0.75470958851134928 0 0.65605901945558964 0.65605901945558964 0 -0.75470958851134928 forward_v I I I I #
coedge $-1 $160 $161 $162 $163 reversed $63 $-1 #
face $-1 $-1 $164 $35 $-1 $165 forward single #
loop $-1 $166 $167 $65 #
cone-surface $-1 70.789401996783994 -30.650032498794019 9.0183928888844775 -0.75470958851134928 0 -0.65605901945558964 0.49204426459169226 0 -0.56603219138351202 1 I I -0.70710678118654757 0.70710678118654757 0.75 forward I I I I #
loop $-1 $-1 $168 $45 #
coedge $-1 $106 $106 $169 $170 reversed $66 $-1 #
face $-1 $-1 $171 $36 $-1 $172 forward single #
loop $-1 $173 $174 $68 #
cone-surface $-1 70.789401996783994 -26.026540365771638 9.0183928888844775 -0.75470958851134928 0 -0.65605901945558964 0.49204426459169226 0 -0.56603219138351202 1 I I -0.70710678118654757 0.70710678118654757 0.75 forward I I I I #
loop $-1 $-1 $175 $46 #
coedge $-1 $111 $111 $176 $177 reversed $69 $-1 #
face $-1 $178 $179 $37 $-1 $180 reversed single #
loop $-1 $-1 $181 $71 #
plane-surface $-1 -24.020334515918421 28.338286432282821 122.24402689275036 0.75470958851134928 0 0.65605901945558964 0.65605901945558964 0 -0.75470958851134928 forward_v I I I I #
coedge $-1 $182 $183 $184 $185 reversed $72 $-1 #
face $-1 $-1 $186 $38 $-1 $187 forward single #
loop $-1 $188 $189 $74 #
cone-surface $-1 70.789401996783994 26.026540365771631 9.0183928888844775 -0.75470958851134928 0 -0.65605901945558964 0.49204426459169226 0 -0.56603219138351202 1 I I -0.70710678118654757 0.70710678118654757 0.75 forward I I I I #
loop $-1 $-1 $190 $48 #
coedge $-1 $120 $120 $191 $192 reversed $75 $-1 #
face $-1 $-1 $193 $39 $-1 $194 forward single #
loop $-1 $195 $196 $77 #
cone-surface $-1 70.789401996783994 30.650032498794012 9.0183928888844775 -0.75470958851134928 0 -0.65605901945558964 0.49204426459169226 0 -0.56603219138351202 1 I I -0.70710678118654757 0.70710678118654757 0.75 forward I I I I #
loop $-1 $-1 $197 $49 #
coedge $-1 $125 $125 $198 $199 reversed $78 $-1 #
face $-1 $200 $201 $30 $-1 $202 reversed single #
loop $-1 $-1 $203 $80 #
plane-surface $-1 0 -51.131896850522701 0 0 1 0 0 0 1 forward_v I I I I #
coedge $-1 $204 $205 $206 $207 forward $81 $-1 #
coedge $-1 $208 $83 $209 $210 forward $51 $-1 #
coedge $-1 $83 $208 $211 $212 forward $51 $-1 #
coedge $-1 $213 $214 $83 $133 reversed $215 $-1 #
edge $-1 $216 -51.131896850522701 $217 51.131896850522701 $132 $218 forward 7 unknown #
face $-1 $219 $220 $31 $-1 $221 reversed single #
loop $-1 $-1 $222 $84 #
plane-surface $-1 -199.88373419201827 23.313773717261263 97.296250349211675 0 -1 0 0.79863551827123203 0 -0.60181501223851219 forward_v I I I I #
coedge $-1 $223 $224 $225 $226 reversed $85 $-1 #
coedge $-1 $139 $87 $227 $228 reversed $54 $-1 #
coedge $-1 $87 $138 $223 $229 reversed $54 $-1 #
coedge $-1 $225 $230 $87 $141 forward $231 $-1 #
edge $-1 $232 22.982731380197492 $233 31.174650740296812 $140 $234 forward 7 unknown #
loop $-1 $-1 $147 $88 #
plane-surface $-1 -76.959135715811641 14.489788087797145 4.6659239438586724 -0.79863551827123203 0 0.60181501223851219 0.60181501223851219 0 0.79863551827123203 forward_v I I I I #
loop $-1 $-1 $235 $56 #
coedge $-1 $145 $145 $146 $236 reversed $89 $-1 #
coedge $-1 $146 $146 $145 $236 forward $91 $-1 #
coedge $-1 $147 $147 $92 $148 forward $142 $-1 #
edge $-1 $237 0 $237 6.2831853071796004 $147 $238 forward 7 unknown #
loop $-1 $-1 $154 $93 #
plane-surface $-1 -76.959135715811641 14.489788087797145 4.6659239438586724 -0.79863551827123203 0 0.60181501223851219 0.60181501223851219 0 0.79863551827123203 forward_v I I I I #
loop $-1 $-1 $239 $59 #
coedge $-1 $152 $152 $153 $240 reversed $94 $-1 #
coedge $-1 $153 $153 $152 $240 forward $96 $-1 #
coedge $-1 $154 $154 $97 $155 forward $149 $-1 #
edge $-1 $241 0 $241 6.2831853071796004 $154 $242 forward 7 unknown #
face $-1 $243 $244 $34 $-1 $245 forward single #
loop $-1 $-1 $246 $98 #
plane-surface $-1 92.143260780620153 -33.732360587475611 223.22349712448042 0 1 0 0.75470958851134928 0 0.65605901945558964 forward_v I I I I #
coedge $-1 $247 $248 $249 $250 reversed $99 $-1 #
coedge $-1 $161 $101 $251 $252 reversed $63 $-1 #
coedge $-1 $101 $160 $247 $253 reversed $63 $-1 #
coedge $-1 $249 $254 $101 $163 forward $244 $-1 #
edge $-1 $255 -30.887505325501564 $256 -22.667063489626344 $162 $257 forward 7 unknown #
loop $-1 $-1 $169 $102 #
plane-surface $-1 -24.020334515918421 -28.338286432282828 122.24402689275036 0.75470958851134928 0 0.65605901945558964 0.65605901945558964 0 -0.75470958851134928 forward_v I I I I #
loop $-1 $-1 $258 $65 #
coedge $-1 $167 $167 $168 $259 reversed $103 $-1 #
coedge $-1 $168 $168 $167 $259 forward $105 $-1 #
coedge $-1 $169 $169 $106 $170 forward $164 $-1 #
edge $-1 $260 0 $260 6.2831853071796004 $169 $261 forward 7 unknown #
loop $-1 $-1 $176 $107 #
plane-surface $-1 -24.020334515918421 -28.338286432282828 122.24402689275036 0.75470958851134928 0 0.65605901945558964 0.65605901945558964 0 -0.75470958851134928 forward_v I I I I #
loop $-1 $-1 $262 $68 #
coedge $-1 $174 $174 $175 $263 reversed $108 $-1 #
coedge $-1 $175 $175 $174 $263 forward $110 $-1 #
coedge $-1 $176 $176 $111 $177 forward $171 $-1 #
edge $-1 $264 0 $264 6.2831853071796004 $176 $265 forward 7 unknown #
face $-1 $266 $267 $37 $-1 $268 reversed single #
loop $-1 $-1 $269 $112 #
plane-surface $-1 92.143260780620153 22.944212277090038 223.22349712448042 0 1 0 0.75470958851134928 0 0.65605901945558964 forward_v I I I I #
coedge $-1 $270 $271 $272 $273 reversed $113 $-1 #
coedge $-1 $183 $115 $274 $275 reversed $72 $-1 #
coedge $-1 $115 $182 $270 $276 reversed $72 $-1 #
coedge $-1 $272 $277 $115 $185 forward $278 $-1 #
edge $-1 $279 -30.887505325501564 $280 -22.667063489626344 $184 $281 forward 7 unknown #
loop $-1 $-1 $191 $116 #
plane-surface $-1 -24.020334515918421 28.338286432282821 122.24402689275036 0.75470958851134928 0 0.65605901945558964 0.65605901945558964 0 -0.75470958851134928 forward_v I I I I #
loop $-1 $-1 $282 $74 #
coedge $-1 $189 $189 $190 $283 reversed $117 $-1 #
coedge $-1 $190 $190 $189 $283 forward $119 $-1 #
coedge $-1 $191 $191 $120 $192 forward $186 $-1 #
edge $-1 $284 0 $284 6.2831853071796004 $191 $285 forward 7 unknown #
loop $-1 $-1 $198 $121 #
plane-surface $-1 -24.020334515918421 28.338286432282821 122.24402689275036 0.75470958851134928 0 0.65605901945558964 0.65605901945558964 0 -0.75470958851134928 forward_v I I I I #
loop $-1 $-1 $286 $77 #
coedge $-1 $196 $196 $197 $287 reversed $122 $-1 #
coedge $-1 $197 $197 $196 $287 forward $124 $-1 #
coedge $-1 $198 $198 $125 $199 forward $193 $-1 #
edge $-1 $288 0 $288 6.2831853071796004 $198 $289 forward 7 unknown #
face $-1 $290 $291 $30 $-1 $292 reversed single #
loop $-1 $-1 $293 $126 #
plane-surface $-1 -76.959135715811641 0 0 1 0 0 0 0 -1 forward_v I I I I #
coedge $-1 $294 $211 $295 $296 forward $127 $-1 #
coedge $-1 $297 $129 $294 $298 forward $81 $-1 #
coedge $-1 $129 $297 $299 $300 forward $81 $-1 #
coedge $-1 $214 $213 $129 $207 reversed $215 $-1 #
edge $-1 $301 -51.131896850522701 $302 51.131896850522701 $206 $303 forward 7 unknown #
coedge $-1 $131 $130 $304 $305 forward $51 $-1 #
coedge $-1 $306 $307 $130 $210 reversed $291 $-1 #
edge $-1 $217 -76.959135715811641 $308 76.959135715811641 $209 $309 forward 7 unknown #
coedge $-1 $203 $310 $131 $212 reversed $127 $-1 #
edge $-1 $311 -76.959135715811641 $216 76.959135715811641 $211 $312 forward 7 unknown #
coedge $-1 $206 $132 $310 $313 forward $215 $-1 #
coedge $-1 $132 $206 $306 $314 reversed $215 $-1 #
loop $-1 $-1 $213 $290 #
vertex $-1 $133 $315 #
vertex $-1 $133 $316 #
straight-curve $-1 76.959135715811641 0 15.536968418894446 0 1 0 I I #
face $-1 $-1 $231 $31 $-1 $317 forward single #
loop $-1 $-1 $318 $134 #
plane-surface $-1 -76.959135715811641 0 0 1 0 0 0 0 -1 forward_v I I I I #
coedge $-1 $319 $320 $321 $322 reversed $135 $-1 #
coedge $-1 $323 $137 $139 $229 forward $85 $-1 #
coedge $-1 $137 $323 $319 $324 forward $85 $-1 #
coedge $-1 $321 $140 $137 $226 forward $231 $-1 #
edge $-1 $233 -1.5790915855655463 $325 16.068879673362691 $225 $326 forward 7 unknown #
coedge $-1 $327 $328 $138 $228 forward $220 $-1 #
edge $-1 $329 -43.982201230747165 $232 -33.111156755711391 $227 $330 forward 7 unknown #
edge $-1 $233 -13.612022288424885 $329 0 $139 $331 forward 7 unknown #
coedge $-1 $140 $321 $327 $332 forward $231 $-1 #
loop $-1 $-1 $321 $219 #
vertex $-1 $228 $333 #
vertex $-1 $141 $334 #
straight-curve $-1 -99.941867096009133 5.665802458333026 15.536968418894446 1 0 0 I I #
coedge $-1 $235 $235 $-1 $335 reversed $144 $-1 #
edge $-1 $336 0 $336 6.2831853071796004 $145 $337 forward 7 unknown #
vertex $-1 $148 $338 #
ellipse-curve $-1 -72.863176035761981 10.70807996088395 10.101446181376559 -0.79863551827123203 0 0.60181501223851219 0.90272251835776829 0 1.197953277406848 1 I I #
coedge $-1 $239 $239 $-1 $339 reversed $151 $-1 #
edge $-1 $340 0 $340 6.2831853071796004 $152 $341 forward 7 unknown #
vertex $-1 $155 $342 #
ellipse-curve $-1 -72.863176035761981 18.271496214710332 10.101446181376559 -0.79863551827123203 0 0.60181501223851219 0.90272251835776829 0 1.197953277406848 1 I I #
face $-1 $-1 $343 $34 $-1 $344 reversed single #
loop $-1 $-1 $162 $156 #
plane-surface $-1 0 0 15.536968418894446 0 0 1 1 0 0 forward_v I I I I #
coedge $-1 $345 $346 $347 $348 reversed $157 $-1 #
coedge $-1 $349 $159 $161 $253 forward $99 $-1 #
coedge $-1 $159 $349 $345 $350 forward $99 $-1 #
coedge $-1 $347 $162 $159 $250 forward $244 $-1 #
edge $-1 $256 8.7750690609486313 $351 19.563217371334197 $249 $352 forward 7 unknown #
coedge $-1 $353 $354 $160 $252 forward $343 $-1 #
edge $-1 $355 -105.53131696602843 $255 -96.074780143345762 $251 $356 forward 7 unknown #
edge $-1 $256 141.38823740709805 $355 153.91827143162331 $161 $357 forward 7 unknown #
coedge $-1 $162 $347 $353 $358 forward $244 $-1 #
vertex $-1 $252 $359 #
vertex $-1 $163 $360 #
straight-curve $-1 46.071630390310077 -22.944212277090045 15.536968418894446 -1 0 0 I I #
coedge $-1 $258 $258 $-1 $361 reversed $166 $-1 #
edge $-1 $362 0 $362 6.2831853071796004 $167 $363 forward 7 unknown #
vertex $-1 $170 $364 #
ellipse-curve $-1 72.848914797874016 -30.650032498794019 10.808700007553128 0.75470958851134928 0 0.65605901945558964 0.98408852918338452 0 -1.132064382767024 1 I I #
coedge $-1 $262 $262 $-1 $365 reversed $173 $-1 #
edge $-1 $366 0 $366 6.2831853071796004 $174 $367 forward 7 unknown #
vertex $-1 $177 $368 #
ellipse-curve $-1 72.848914797874016 -26.026540365771638 10.808700007553128 0.75470958851134928 0 0.65605901945558964 0.98408852918338452 0 -1.132064382767024 1 I I #
face $-1 $-1 $278 $37 $-1 $369 forward single #
loop $-1 $-1 $370 $178 #
plane-surface $-1 76.959135715811641 0 0 -1 0 0 0 0 1 forward_v I I I I #
coedge $-1 $371 $372 $373 $374 reversed $179 $-1 #
coedge $-1 $375 $181 $183 $276 forward $113 $-1 #
coedge $-1 $181 $375 $371 $376 forward $113 $-1 #
coedge $-1 $373 $184 $181 $273 forward $278 $-1 #
edge $-1 $280 -19.563217371334193 $377 -8.7750690609486277 $272 $378 forward 7 unknown #
coedge $-1 $379 $380 $182 $275 forward $267 $-1 #
edge $-1 $381 -105.53131696602843 $279 -96.074780143345762 $274 $382 forward 7 unknown #
edge $-1 $280 141.38823740709805 $381 153.91827143162331 $183 $383 forward 7 unknown #
coedge $-1 $184 $373 $379 $384 forward $278 $-1 #
loop $-1 $-1 $373 $266 #
vertex $-1 $275 $385 #
vertex $-1 $185 $386 #
straight-curve $-1 46.071630390310077 33.732360587475604 15.536968418894446 -1 0 0 I I #
coedge $-1 $282 $282 $-1 $387 reversed $188 $-1 #
edge $-1 $388 0 $388 6.2831853071796004 $189 $389 forward 7 unknown #
vertex $-1 $192 $390 #
ellipse-curve $-1 72.848914797874016 26.026540365771631 10.808700007553128 0.75470958851134928 0 0.65605901945558964 0.98408852918338452 0 -1.132064382767024 1 I I #
coedge $-1 $286 $286 $-1 $391 reversed $195 $-1 #
edge $-1 $392 0 $392 6.2831853071796004 $196 $393 forward 7 unknown #
vertex $-1 $199 $394 #
ellipse-curve $-1 72.848914797874016 30.650032498794012 10.808700007553128 0.75470958851134928 0 0.65605901945558964 0.98408852918338452 0 -1.132064382767024 1 I I #
face $-1 $-1 $215 $30 $-1 $395 reversed single #
loop $-1 $-1 $306 $200 #
plane-surface $-1 0 51.131896850522701 0 0 -1 0 0 0 -1 forward_v I I I I #
coedge $-1 $396 $304 $307 $397 forward $201 $-1 #
coedge $-1 $310 $203 $204 $298 reversed $127 $-1 #
coedge $-1 $304 $396 $203 $296 reversed $201 $-1 #
edge $-1 $311 -15.536968418894446 $398 15.536968418894446 $295 $399 forward 7 unknown #
coedge $-1 $205 $204 $396 $400 forward $81 $-1 #
edge $-1 $302 -76.959135715811641 $398 76.959135715811641 $294 $401 forward 7 unknown #
coedge $-1 $307 $306 $205 $300 reversed $291 $-1 #
edge $-1 $402 -76.959135715811641 $301 76.959135715811641 $299 $403 forward 7 unknown #
vertex $-1 $207 $404 #
vertex $-1 $313 $405 #
straight-curve $-1 76.959135715811641 0 -15.536968418894446 0 -1 0 I I #
coedge $-1 $293 $295 $208 $305 reversed $201 $-1 #
edge $-1 $308 -51.131896850522701 $311 51.131896850522701 $304 $406 forward 7 unknown #
coedge $-1 $299 $209 $214 $314 forward $291 $-1 #
coedge $-1 $209 $299 $293 $397 reversed $291 $-1 #
vertex $-1 $210 $407 #
straight-curve $-1 0 51.131896850522701 15.536968418894446 -1 0 0 I I #
coedge $-1 $211 $294 $213 $313 reversed $127 $-1 #
vertex $-1 $305 $408 #
straight-curve $-1 0 -51.131896850522701 15.536968418894446 1 0 0 I I #
edge $-1 $216 -15.536968418894446 $302 15.536968418894446 $213 $409 forward 7 unknown #
edge $-1 $217 -15.536968418894446 $301 15.536968418894446 $214 $410 forward 7 unknown #
point $-1 76.959135715811641 -51.131896850522701 15.536968418894446 #
point $-1 76.959135715811641 51.131896850522701 15.536968418894446 #
plane-surface $-1 0 0 15.536968418894446 0 0 1 1 0 0 forward_v I I I I #
coedge $-1 $328 $327 $320 $411 forward $220 $-1 #
coedge $-1 $320 $222 $224 $324 reversed $135 $-1 #
coedge $-1 $222 $319 $318 $411 reversed $135 $-1 #
coedge $-1 $230 $225 $222 $322 forward $231 $-1 #
edge $-1 $325 -31.174650740296812 $412 -22.982731380197492 $321 $413 forward 7 unknown #
coedge $-1 $224 $223 $328 $414 reversed $85 $-1 #
edge $-1 $415 0 $325 13.612022288424885 $319 $416 forward 7 unknown #
vertex $-1 $226 $417 #
straight-curve $-1 -68.767216355712321 7.2448940438985723 15.536968418894446 0 1 0 I I #
coedge $-1 $318 $227 $230 $332 reversed $220 $-1 #
coedge $-1 $227 $318 $323 $414 forward $220 $-1 #
vertex $-1 $228 $418 #
straight-curve $-1 -76.959135715811641 5.665802458333026 48.648125174605838 0 0 1 I I #
straight-curve $-1 -76.959135715811641 5.665802458333026 4.6659239438586724 -0.60181501223851219 0 -0.79863551827123203 I I #
edge $-1 $412 -23.313773717261263 $232 -5.665802458333026 $327 $419 forward 7 unknown #
point $-1 -76.959135715811641 5.665802458333026 15.536968418894446 #
point $-1 -68.767216355712321 5.665802458333026 15.536968418894446 #
edge $-1 $420 1 $420 0 $235 $-1 forward 7 unknown #
vertex $-1 $236 $421 #
ellipse-curve $-1 -71.320281531745024 10.70807996088395 8.9387918120496686 -0.79863551827123203 0 0.60181501223851219 0.90272251835776829 0 1.197953277406848 1 I I #
point $-1 -71.960453517404218 10.70807996088395 11.299399458783416 #
edge $-1 $422 1 $422 0 $239 $-1 forward 7 unknown #
vertex $-1 $240 $423 #
ellipse-curve $-1 -71.320281531745024 18.271496214710332 8.9387918120496686 -0.79863551827123203 0 0.60181501223851219 0.90272251835776829 0 1.197953277406848 1 I I #
point $-1 -71.960453517404218 18.271496214710332 11.299399458783416 #
loop $-1 $-1 $251 $243 #
plane-surface $-1 76.959135715811641 0 0 -1 0 0 0 0 1 forward_v I I I I #
coedge $-1 $346 $246 $248 $350 reversed $157 $-1 #
coedge $-1 $246 $345 $424 $425 reversed $157 $-1 #
coedge $-1 $254 $249 $246 $348 forward $244 $-1 #
edge $-1 $351 22.667063489626344 $426 30.887505325501564 $347 $427 forward 7 unknown #
coedge $-1 $248 $247 $354 $428 reversed $99 $-1 #
edge $-1 $429 -153.91827143162331 $351 -141.38823740709805 $345 $430 forward 7 unknown #
vertex $-1 $250 $431 #
straight-curve $-1 68.738693879936434 -14.169143216141414 15.536968418894432 0 -1 0 I I #
coedge $-1 $424 $251 $254 $358 reversed $343 $-1 #
coedge $-1 $251 $424 $349 $428 forward $343 $-1 #
vertex $-1 $252 $432 #
straight-curve $-1 76.959135715811641 -22.944212277090045 111.61174856224021 0 0 1 I I #
straight-curve $-1 -24.020334515918421 -22.944212277090045 122.24402689275036 0.65605901945558964 0 -0.75470958851134928 I I #
edge $-1 $426 -33.732360587475611 $255 -22.944212277090045 $353 $433 forward 7 unknown #
point $-1 76.959135715811641 -22.944212277090045 15.536968418894446 #
point $-1 68.73869387993642 -22.944212277090045 15.53696841889446 #
edge $-1 $434 1 $434 0 $258 $-1 forward 7 unknown #
vertex $-1 $259 $435 #
ellipse-curve $-1 71.355434188167507 -30.650032498794019 9.51043715347617 0.75470958851134928 0 0.65605901945558964 0.98408852918338452 0 -1.132064382767024 1 I I #
point $-1 73.833003327057398 -30.650032498794019 9.6766356247860941 #
edge $-1 $436 1 $436 0 $262 $-1 forward 7 unknown #
vertex $-1 $263 $437 #
ellipse-curve $-1 71.355434188167507 -26.026540365771638 9.51043715347617 0.75470958851134928 0 0.65605901945558964 0.98408852918338452 0 -1.132064382767024 1 I I #
point $-1 73.833003327057398 -26.026540365771638 9.6766356247860941 #
plane-surface $-1 0 0 15.536968418894446 0 0 1 1 0 0 forward_v I I I I #
coedge $-1 $380 $379 $372 $438 forward $267 $-1 #
coedge $-1 $372 $269 $271 $376 reversed $179 $-1 #
coedge $-1 $269 $371 $370 $438 reversed $179 $-1 #
coedge $-1 $277 $272 $269 $374 forward $278 $-1 #
edge $-1 $377 22.667063489626344 $439 30.887505325501564 $373 $440 forward 7 unknown #
coedge $-1 $271 $270 $380 $441 reversed $113 $-1 #
edge $-1 $442 -153.91827143162331 $377 -141.38823740709805 $371 $443 forward 7 unknown #
vertex $-1 $273 $444 #
straight-curve $-1 68.738693879936434 14.169143216141411 15.536968418894432 0 -1 0 I I #
coedge $-1 $370 $274 $277 $384 reversed $267 $-1 #
coedge $-1 $274 $370 $375 $441 forward $267 $-1 #
vertex $-1 $275 $445 #
straight-curve $-1 76.959135715811641 33.732360587475604 111.61174856224021 0 0 1 I I #
straight-curve $-1 -24.020334515918421 33.732360587475604 122.24402689275036 0.65605901945558964 0 -0.75470958851134928 I I #
edge $-1 $439 22.944212277090038 $279 33.732360587475604 $379 $446 forward 7 unknown #
point $-1 76.959135715811641 33.732360587475604 15.536968418894446 #
point $-1 68.73869387993642 33.732360587475604 15.53696841889446 #
edge $-1 $447 1 $447 0 $282 $-1 forward 7 unknown #
vertex $-1 $283 $448 #
ellipse-curve $-1 71.355434188167507 26.026540365771631 9.51043715347617 0.75470958851134928 0 0.65605901945558964 0.98408852918338452 0 -1.132064382767024 1 I I #
point $-1 73.833003327057398 26.026540365771631 9.6766356247860941 #
edge $-1 $449 1 $449 0 $286 $-1 forward 7 unknown #
vertex $-1 $287 $450 #
ellipse-curve $-1 71.355434188167507 30.650032498794012 9.51043715347617 0.75470958851134928 0 0.65605901945558964 0.98408852918338452 0 -1.132064382767024 1 I I #
point $-1 73.833003327057398 30.650032498794012 9.6766356247860941 #
plane-surface $-1 76.959135715811641 0 0 -1 0 0 0 0 1 forward_v I I I I #
coedge $-1 $295 $293 $297 $400 reversed $201 $-1 #
edge $-1 $308 -15.536968418894446 $402 15.536968418894446 $307 $451 forward 7 unknown #
vertex $-1 $400 $452 #
straight-curve $-1 -76.959135715811641 -51.131896850522701 0 0 0 -1 I I #
edge $-1 $398 -51.131896850522701 $402 51.131896850522701 $396 $453 forward 7 unknown #
straight-curve $-1 0 -51.131896850522701 -15.536968418894446 -1 0 0 I I #
vertex $-1 $300 $454 #
straight-curve $-1 0 51.131896850522701 -15.536968418894446 1 0 0 I I #
point $-1 76.959135715811641 51.131896850522701 -15.536968418894446 #
point $-1 76.959135715811641 -51.131896850522701 -15.536968418894446 #
straight-curve $-1 -76.959135715811641 0 15.536968418894446 0 -1 0 I I #
point $-1 -76.959135715811641 51.131896850522701 15.536968418894446 #
point $-1 -76.959135715811641 -51.131896850522701 15.536968418894446 #
straight-curve $-1 76.959135715811641 -51.131896850522701 0 0 0 -1 I I #
straight-curve $-1 76.959135715811641 51.131896850522701 0 0 0 -1 I I #
edge $-1 $412 33.111156755711391 $415 43.982201230747165 $318 $455 forward 7 unknown #
vertex $-1 $332 $456 #
straight-curve $-1 -99.941867096009133 23.313773717261263 15.536968418894446 -1 0 0 I I #
edge $-1 $415 -16.068879673362691 $329 1.5790915855655463 $328 $457 forward 7 unknown #
vertex $-1 $414 $458 #
straight-curve $-1 -76.959135715811641 23.313773717261263 4.6659239438586724 0.60181501223851219 0 0.79863551827123203 I I #
point $-1 -68.767216355712321 23.313773717261263 15.536968418894446 #
point $-1 -76.959135715811641 5.665802458333026 4.6659239438586724 #
straight-curve $-1 -76.959135715811641 0 15.536968418894446 0 -1 0 I I #
vertex $-1 $335 $459 #
point $-1 -70.417559013387262 10.70807996088395 10.136745089456516 #
vertex $-1 $339 $460 #
point $-1 -70.417559013387262 18.271496214710332 10.136745089456516 #
coedge $-1 $354 $353 $346 $425 forward $343 $-1 #
edge $-1 $426 96.074780143345762 $429 105.53131696602843 $424 $461 forward 7 unknown #
vertex $-1 $358 $462 #
straight-curve $-1 46.071630390310077 -33.732360587475611 15.536968418894446 1 0 0 I I #
edge $-1 $429 -19.563217371334197 $355 -8.7750690609486313 $354 $463 forward 7 unknown #
vertex $-1 $428 $464 #
straight-curve $-1 -24.020334515918421 -33.732360587475611 122.24402689275036 -0.65605901945558964 0 0.75470958851134928 I I #
point $-1 68.73869387993642 -33.732360587475611 15.53696841889446 #
point $-1 76.959135715811641 -22.944212277090045 6.0804315962117812 #
straight-curve $-1 76.959135715811641 0 15.536968418894446 0 1 0 I I #
vertex $-1 $361 $465 #
point $-1 72.339522717350889 -30.650032498794019 8.3783727707091451 #
vertex $-1 $365 $466 #
point $-1 72.339522717350889 -26.026540365771638 8.3783727707091451 #
edge $-1 $439 96.074780143345762 $442 105.53131696602843 $370 $467 forward 7 unknown #
vertex $-1 $384 $468 #
straight-curve $-1 46.071630390310077 22.944212277090038 15.536968418894446 1 0 0 I I #
edge $-1 $442 8.7750690609486277 $381 19.563217371334193 $380 $469 forward 7 unknown #
vertex $-1 $441 $470 #
straight-curve $-1 -24.020334515918421 22.944212277090038 122.24402689275036 -0.65605901945558964 0 0.75470958851134928 I I #
point $-1 68.73869387993642 22.944212277090038 15.53696841889446 #
point $-1 76.959135715811641 33.732360587475604 6.0804315962117812 #
straight-curve $-1 76.959135715811641 0 15.536968418894446 0 1 0 I I #
vertex $-1 $387 $471 #
point $-1 72.339522717350889 26.026540365771631 8.3783727707091451 #
vertex $-1 $391 $472 #
point $-1 72.339522717350889 30.650032498794012 8.3783727707091451 #
straight-curve $-1 -76.959135715811641 51.131896850522701 0 0 0 -1 I I #
point $-1 -76.959135715811641 -51.131896850522701 -15.536968418894446 #
straight-curve $-1 -76.959135715811641 0 -15.536968418894446 0 1 0 I I #
point $-1 -76.959135715811641 51.131896850522701 -15.536968418894446 #
straight-curve $-1 -76.959135715811641 23.313773717261263 48.648125174605838 0 0 -1 I I #
point $-1 -76.959135715811641 23.313773717261263 15.536968418894446 #
straight-curve $-1 -76.959135715811641 7.2448940438985723 4.665923943858667 0 -1 0 I I #
point $-1 -76.959135715811641 23.313773717261263 4.6659239438586724 #
point $-1 -70.122328254338186 10.70807996088395 8.0360692936918987 #
point $-1 -70.122328254338186 18.271496214710332 8.0360692936918987 #
straight-curve $-1 76.959135715811641 -33.732360587475611 111.61174856224021 0 0 -1 I I #
point $-1 76.959135715811641 -33.732360587475611 15.536968418894446 #
straight-curve $-1 76.959135715811641 -14.169143216141414 6.0804315962117883 0 1 0 I I #
point $-1 76.959135715811641 -33.732360587475611 6.0804315962117812 #
point $-1 70.22336980540048 -30.650032498794019 8.5263486242927851 #
point $-1 70.22336980540048 -26.026540365771638 8.5263486242927851 #
straight-curve $-1 76.959135715811641 22.944212277090038 111.61174856224021 0 0 -1 I I #
point $-1 76.959135715811641 22.944212277090038 15.536968418894446 #
straight-curve $-1 76.959135715811641 14.169143216141411 6.0804315962117883 0 1 0 I I #
point $-1 76.959135715811641 22.944212277090038 6.0804315962117812 #
point $-1 70.22336980540048 26.026540365771631 8.5263486242927851 #
point $-1 70.22336980540048 30.650032498794012 8.5263486242927851 #
End-of-ACIS-data 