500 0 6 0           
7 Unknown 11 ACIS 5.0 NT 24 Thu Mar 25 21:00:16 1999 
-1 9.9999999999999995e-007 1e-010 
body $-1 $6 $-1 $7 #
body $-1 $8 $-1 $9 #
body $-1 $10 $-1 $11 #
body $-1 $12 $-1 $13 #
body $-1 $14 $-1 $15 #
body $-1 $16 $-1 $17 #
lump $-1 $-1 $18 $0 #
transform $-1 1 0 0 0 1 0 0 0 1 62.345652638325149 26.170637507670623 11.415260371055709 1 rotate no_reflect no_shear #
lump $-1 $-1 $19 $1 #
transform $-1 1 0 0 0 1 0 0 0 1 62.345652638325149 26.170637507670623 11.415260371055709 1 rotate no_reflect no_shear #
lump $-1 $-1 $20 $2 #
transform $-1 1 0 0 0 1 0 0 0 1 62.345652638325149 26.170637507670623 11.415260371055709 1 rotate no_reflect no_shear #
lump $-1 $-1 $21 $3 #
transform $-1 1 0 0 0 1 0 0 0 1 62.345652638325149 26.170637507670623 11.415260371055709 1 rotate no_reflect no_shear #
lump $-1 $-1 $22 $4 #
transform $-1 1 0 0 0 1 0 0 0 1 62.345652638325149 26.170637507670623 11.415260371055709 1 rotate no_reflect no_shear #
lump $-1 $-1 $23 $5 #
transform $-1 1 0 0 0 1 0 0 0 1 62.345652638325149 26.170637507670623 11.415260371055709 1 rotate no_reflect no_shear #
shell $-1 $-1 $-1 $24 $-1 $6 #
shell $-1 $-1 $-1 $25 $-1 $8 #
shell $-1 $-1 $-1 $26 $-1 $10 #
shell $-1 $-1 $-1 $27 $-1 $12 #
shell $-1 $-1 $-1 $28 $-1 $14 #
shell $-1 $-1 $-1 $29 $-1 $16 #
face $-1 $30 $31 $18 $-1 $32 forward single #
face $-1 $33 $34 $19 $-1 $35 forward single #
face $-1 $36 $37 $20 $-1 $38 reversed single #
face $-1 $39 $40 $21 $-1 $41 forward single #
face $-1 $42 $43 $22 $-1 $44 reversed single #
face $-1 $45 $46 $23 $-1 $47 forward single #
face $-1 $48 $49 $18 $-1 $50 reversed single #
loop $-1 $-1 $51 $24 #
plane-surface $-1 0 0 11.415260371055709 0 0 1 1 0 0 forward_v I I I I #
face $-1 $52 $53 $19 $-1 $54 reversed single #
loop $-1 $-1 $55 $25 #
plane-surface $-1 0 -26.170637507670623 0 0 1 0 0 0 1 forward_v I I I I #
face $-1 $56 $57 $20 $-1 $58 reversed single #
loop $-1 $-1 $59 $26 #
plane-surface $-1 -170.33149160343646 6.9276912504419244 66.645094733511939 0 1 0 -0.86602541151947299 0 0.49999998660252726 forward_v I I I I #
face $-1 $60 $61 $21 $-1 $62 forward single #
loop $-1 $63 $64 $27 #
cone-surface $-1 -59.116873583897778 12.484615681338934 7.1791850282460068 0.86602541151947299 0 -0.49999998660252726 0.99999997320505452 0 1.732050823038946 1 I I 0 1 2 forward I I I I #
face $-1 $65 $66 $22 $-1 $67 reversed single #
loop $-1 $-1 $68 $28 #
plane-surface $-1 83.836111457318268 -2.8006030541877109 178.90269500421249 0 -1 0 -0.78801076186113728 0 -0.61566146476048833 forward_v I I I I #
face $-1 $69 $70 $23 $-1 $71 forward single #
loop $-1 $72 $73 $29 #
cone-surface $-1 58.219303651617132 -8.9605499541691067 6.7229720292766197 -0.78801076186113728 0 -0.61566146476048833 1.2313229295209767 0 -1.5760215237222746 1 I I 0 1 2 forward I I I I #
face $-1 $74 $75 $18 $-1 $76 reversed single #
loop $-1 $-1 $77 $30 #
plane-surface $-1 0 0 -11.415260371055709 0 0 1 1 0 0 forward_v I I I I #
coedge $-1 $78 $79 $80 $81 forward $31 $-1 #
face $-1 $82 $83 $19 $-1 $84 reversed single #
loop $-1 $-1 $85 $33 #
plane-surface $-1 0 0 -11.415260371055709 0 0 1 1 0 0 forward_v I I I I #
coedge $-1 $86 $87 $88 $89 forward $34 $-1 #
face $-1 $90 $91 $20 $-1 $92 reversed single #
loop $-1 $-1 $93 $36 #
plane-surface $-1 -62.345652638325149 12.484615681338934 4.2994437657351483 -0.86602541151947299 0 0.49999998660252726 0.49999998660252726 0 0.86602541151947299 forward_v I I I I #
coedge $-1 $94 $95 $96 $97 reversed $37 $-1 #
face $-1 $-1 $98 $21 $-1 $99 forward single #
loop $-1 $100 $101 $39 #
cone-surface $-1 -57.076228360855737 12.484615681338934 6.0010180014940566 0.86602541151947299 0 -0.49999998660252726 0.49999998660252726 0 0.86602541151947299 1 I I -0.70710678118654746 0.70710678118654746 1 forward I I I I #
loop $-1 $-1 $102 $27 #
coedge $-1 $64 $64 $103 $104 reversed $40 $-1 #
face $-1 $105 $106 $22 $-1 $107 reversed single #
loop $-1 $-1 $108 $42 #
plane-surface $-1 -14.421979011194594 -8.9605499541691067 102.13506335469275 0.78801076186113728 0 0.61566146476048833 0.61566146476048833 0 -0.78801076186113728 forward_v I I I I #
coedge $-1 $109 $110 $111 $112 reversed $43 $-1 #
face $-1 $-1 $113 $23 $-1 $114 forward single #
loop $-1 $115 $116 $45 #
cone-surface $-1 56.249721651871496 -8.9605499541691067 5.1841659651749552 -0.78801076186113728 0 -0.61566146476048833 0.61566146476048833 0 -0.78801076186113728 1 I I -0.70710678118654746 0.70710678118654746 1 forward I I I I #
loop $-1 $-1 $117 $29 #
coedge $-1 $73 $73 $118 $119 reversed $46 $-1 #
face $-1 $120 $121 $18 $-1 $122 reversed single #
loop $-1 $-1 $123 $48 #
plane-surface $-1 0 -26.170637507670623 0 0 1 0 0 0 1 forward_v I I I I #
coedge $-1 $124 $125 $126 $127 forward $49 $-1 #
coedge $-1 $128 $51 $129 $130 forward $31 $-1 #
coedge $-1 $51 $128 $131 $132 forward $31 $-1 #
coedge $-1 $133 $134 $51 $81 reversed $135 $-1 #
edge $-1 $136 -26.170637507670623 $137 26.170637507670623 $80 $138 forward 7 unknown #
face $-1 $139 $140 $19 $-1 $141 forward single #
loop $-1 $-1 $142 $52 #
plane-surface $-1 62.345652638325149 0 0 -1 0 0 0 0 1 forward_v I I I I #
coedge $-1 $143 $144 $145 $146 forward $53 $-1 #
coedge $-1 $145 $55 $142 $147 reversed $34 $-1 #
coedge $-1 $55 $145 $148 $149 reversed $34 $-1 #
coedge $-1 $150 $151 $55 $89 reversed $140 $-1 #
edge $-1 $152 -62.345652638325149 $153 62.345652638325149 $88 $154 forward 7 unknown #
face $-1 $155 $156 $20 $-1 $157 forward single #
loop $-1 $-1 $158 $56 #
plane-surface $-1 -170.33149160343646 18.041540112235943 66.645094733511939 0 -1 0 0.86602541151947299 0 -0.49999998660252726 forward_v I I I I #
coedge $-1 $159 $160 $161 $162 reversed $57 $-1 #
coedge $-1 $95 $59 $163 $164 reversed $37 $-1 #
coedge $-1 $59 $94 $159 $165 reversed $37 $-1 #
coedge $-1 $161 $166 $59 $97 forward $156 $-1 #
edge $-1 $167 22.820093163393082 $168 26.928411649202687 $96 $169 forward 7 unknown #
loop $-1 $-1 $103 $60 #
plane-surface $-1 -62.345652638325149 12.484615681338934 4.2994437657351483 -0.86602541151947299 0 0.49999998660252726 0.49999998660252726 0 0.86602541151947299 forward_v I I I I #
loop $-1 $-1 $170 $39 #
coedge $-1 $101 $101 $102 $171 reversed $61 $-1 #
coedge $-1 $102 $102 $101 $171 forward $63 $-1 #
coedge $-1 $103 $103 $64 $104 forward $98 $-1 #
edge $-1 $172 0 $172 6.2831853071796004 $103 $173 forward 7 unknown #
face $-1 $174 $175 $22 $-1 $176 reversed single #
loop $-1 $-1 $177 $65 #
plane-surface $-1 83.836111457318268 -15.120496854150502 178.90269500421249 0 1 0 0.78801076186113728 0 0.61566146476048833 forward_v I I I I #
coedge $-1 $178 $179 $180 $181 reversed $66 $-1 #
coedge $-1 $110 $68 $182 $183 reversed $43 $-1 #
coedge $-1 $68 $109 $178 $184 reversed $43 $-1 #
coedge $-1 $180 $185 $68 $112 forward $186 $-1 #
edge $-1 $187 -20.427596909666015 $188 -14.538041412018963 $111 $189 forward 7 unknown #
loop $-1 $-1 $118 $69 #
plane-surface $-1 -14.421979011194594 -8.9605499541691067 102.13506335469275 0.78801076186113728 0 0.61566146476048833 0.61566146476048833 0 -0.78801076186113728 forward_v I I I I #
loop $-1 $-1 $190 $45 #
coedge $-1 $116 $116 $117 $191 reversed $70 $-1 #
coedge $-1 $117 $117 $116 $191 forward $72 $-1 #
coedge $-1 $118 $118 $73 $119 forward $113 $-1 #
edge $-1 $192 0 $192 6.2831853071796004 $118 $193 forward 7 unknown #
face $-1 $194 $195 $18 $-1 $196 reversed single #
loop $-1 $-1 $197 $74 #
plane-surface $-1 -62.345652638325149 0 0 1 0 0 0 0 -1 forward_v I I I I #
coedge $-1 $198 $131 $199 $200 forward $75 $-1 #
coedge $-1 $201 $77 $198 $202 forward $49 $-1 #
coedge $-1 $77 $201 $203 $204 forward $49 $-1 #
coedge $-1 $134 $133 $77 $127 reversed $135 $-1 #
edge $-1 $205 -26.170637507670623 $206 26.170637507670623 $126 $207 forward 7 unknown #
coedge $-1 $79 $78 $208 $209 forward $31 $-1 #
coedge $-1 $210 $211 $78 $130 reversed $195 $-1 #
edge $-1 $137 -62.345652638325149 $212 62.345652638325149 $129 $213 forward 7 unknown #
coedge $-1 $123 $214 $79 $132 reversed $75 $-1 #
edge $-1 $215 -62.345652638325149 $136 62.345652638325149 $131 $216 forward 7 unknown #
coedge $-1 $126 $80 $214 $217 forward $135 $-1 #
coedge $-1 $80 $126 $210 $218 reversed $135 $-1 #
loop $-1 $-1 $133 $194 #
vertex $-1 $81 $219 #
vertex $-1 $81 $220 #
straight-curve $-1 62.345652638325149 0 11.415260371055709 0 1 0 I I #
face $-1 $221 $222 $19 $-1 $223 reversed single #
loop $-1 $-1 $151 $82 #
plane-surface $-1 0 -31.695707834430685 -8.4152603710557088 0 0 1 1 0 0 forward_v I I I I #
coedge $-1 $224 $225 $86 $147 forward $83 $-1 #
coedge $-1 $226 $85 $225 $227 forward $53 $-1 #
coedge $-1 $85 $226 $228 $229 forward $53 $-1 #
coedge $-1 $87 $86 $85 $146 reversed $34 $-1 #
edge $-1 $230 -62.345652638325149 $231 62.345652638325149 $85 $232 forward 7 unknown #
edge $-1 $231 -11.415260371055709 $153 -8.4152603710557088 $142 $233 forward 7 unknown #
coedge $-1 $228 $234 $87 $149 forward $235 $-1 #
edge $-1 $152 8.4152603710557088 $230 11.415260371055709 $148 $236 forward 7 unknown #
coedge $-1 $237 $88 $234 $238 forward $140 $-1 #
coedge $-1 $88 $237 $224 $239 forward $140 $-1 #
vertex $-1 $149 $240 #
vertex $-1 $239 $241 #
straight-curve $-1 0 -26.170637507670623 -8.4152603710557088 1 0 0 I I #
face $-1 $-1 $242 $20 $-1 $243 reversed single #
loop $-1 $-1 $96 $90 #
plane-surface $-1 0 0 11.415260371055709 0 0 1 1 0 0 forward_v I I I I #
coedge $-1 $244 $245 $246 $247 reversed $91 $-1 #
coedge $-1 $248 $93 $95 $165 forward $57 $-1 #
coedge $-1 $93 $248 $244 $249 forward $57 $-1 #
coedge $-1 $246 $96 $93 $162 forward $156 $-1 #
edge $-1 $168 0.6853834097724576 $250 11.799232271566476 $161 $251 forward 7 unknown #
coedge $-1 $252 $253 $94 $164 forward $242 $-1 #
edge $-1 $254 -29.023103601020821 $167 -21.907286995700261 $163 $255 forward 7 unknown #
edge $-1 $168 -8.2166371917835548 $254 0 $95 $256 forward 7 unknown #
coedge $-1 $96 $246 $252 $257 forward $156 $-1 #
vertex $-1 $164 $258 #
vertex $-1 $97 $259 #
straight-curve $-1 -85.165745801718231 6.9276912504419244 11.415260371055709 1 0 0 I I #
coedge $-1 $170 $170 $-1 $260 reversed $100 $-1 #
edge $-1 $261 0 $261 6.2831853071796004 $101 $262 forward 7 unknown #
vertex $-1 $104 $263 #
ellipse-curve $-1 -60.291493395420346 12.484615681338934 7.8573520683954294 -0.86602541151947299 0 0.49999998660252726 0.99999997320505452 0 1.732050823038946 1 I I #
face $-1 $-1 $186 $22 $-1 $264 forward single #
loop $-1 $-1 $265 $105 #
plane-surface $-1 62.345652638325149 0 0 -1 0 0 0 0 1 forward_v I I I I #
coedge $-1 $266 $267 $268 $269 reversed $106 $-1 #
coedge $-1 $270 $108 $110 $184 forward $66 $-1 #
coedge $-1 $108 $270 $266 $271 forward $66 $-1 #
coedge $-1 $268 $111 $108 $181 forward $186 $-1 #
edge $-1 $188 -1.6796719228968424 $272 10.640221877065949 $180 $273 forward 7 unknown #
coedge $-1 $274 $275 $109 $183 forward $175 $-1 #
edge $-1 $276 -85.574374615926359 $187 -78.036087131050536 $182 $277 forward 7 unknown #
edge $-1 $188 115.12508124809548 $276 124.69130527665033 $110 $278 forward 7 unknown #
coedge $-1 $111 $268 $274 $279 forward $186 $-1 #
loop $-1 $-1 $268 $174 #
vertex $-1 $183 $280 #
vertex $-1 $112 $281 #
straight-curve $-1 41.918055728659134 -2.8006030541877109 11.415260371055709 -1 0 0 I I #
coedge $-1 $190 $190 $-1 $282 reversed $115 $-1 #
edge $-1 $283 0 $283 6.2831853071796004 $116 $284 forward 7 unknown #
vertex $-1 $119 $285 #
ellipse-curve $-1 59.400874889501623 -8.9605499541691067 7.6461166286177873 0.78801076186113728 0 0.61566146476048833 1.2313229295209767 0 -1.5760215237222746 1 I I #
face $-1 $-1 $135 $18 $-1 $286 reversed single #
loop $-1 $-1 $210 $120 #
plane-surface $-1 0 26.170637507670623 0 0 -1 0 0 0 -1 forward_v I I I I #
coedge $-1 $287 $208 $211 $288 forward $121 $-1 #
coedge $-1 $214 $123 $124 $202 reversed $75 $-1 #
coedge $-1 $208 $287 $123 $200 reversed $121 $-1 #
edge $-1 $215 -11.415260371055709 $289 11.415260371055709 $199 $290 forward 7 unknown #
coedge $-1 $125 $124 $287 $291 forward $49 $-1 #
edge $-1 $206 -62.345652638325149 $289 62.345652638325149 $198 $292 forward 7 unknown #
coedge $-1 $211 $210 $125 $204 reversed $195 $-1 #
edge $-1 $293 -62.345652638325149 $205 62.345652638325149 $203 $294 forward 7 unknown #
vertex $-1 $127 $295 #
vertex $-1 $217 $296 #
straight-curve $-1 62.345652638325149 0 -11.415260371055709 0 -1 0 I I #
coedge $-1 $197 $199 $128 $209 reversed $121 $-1 #
edge $-1 $212 -26.170637507670623 $215 26.170637507670623 $208 $297 forward 7 unknown #
coedge $-1 $203 $129 $134 $218 forward $195 $-1 #
coedge $-1 $129 $203 $197 $288 reversed $195 $-1 #
vertex $-1 $130 $298 #
straight-curve $-1 0 26.170637507670623 11.415260371055709 -1 0 0 I I #
coedge $-1 $131 $198 $133 $217 reversed $75 $-1 #
vertex $-1 $209 $299 #
straight-curve $-1 0 -26.170637507670623 11.415260371055709 1 0 0 I I #
edge $-1 $136 -11.415260371055709 $206 11.415260371055709 $133 $300 forward 7 unknown #
edge $-1 $137 -11.415260371055709 $205 11.415260371055709 $134 $301 forward 7 unknown #
point $-1 62.345652638325149 -26.170637507670623 11.415260371055709 #
point $-1 62.345652638325149 26.170637507670623 11.415260371055709 #
face $-1 $-1 $235 $19 $-1 $302 reversed single #
loop $-1 $-1 $303 $139 #
plane-surface $-1 0 -37.220778161190744 -9.9152603710557088 0 1 0 0 0 1 forward_v I I I I #
coedge $-1 $304 $142 $151 $239 reversed $83 $-1 #
coedge $-1 $142 $304 $143 $227 reversed $83 $-1 #
coedge $-1 $144 $143 $305 $306 forward $53 $-1 #
edge $-1 $231 26.170637507670623 $307 37.220778161190744 $225 $308 forward 7 unknown #
coedge $-1 $309 $148 $144 $229 reversed $235 $-1 #
edge $-1 $310 -37.220778161190744 $230 -26.170637507670623 $228 $311 forward 7 unknown #
vertex $-1 $149 $312 #
vertex $-1 $227 $313 #
straight-curve $-1 0 -26.170637507670623 -11.415260371055709 1 0 0 I I #
straight-curve $-1 62.345652638325149 -26.170637507670623 0 0 0 1 I I #
coedge $-1 $148 $309 $150 $238 reversed $235 $-1 #
loop $-1 $-1 $148 $221 #
straight-curve $-1 -62.345652638325149 -26.170637507670623 0 0 0 -1 I I #
coedge $-1 $151 $150 $314 $315 forward $140 $-1 #
edge $-1 $152 -5.5250703267600585 $316 5.5250703267600585 $234 $317 forward 7 unknown #
edge $-1 $318 -5.5250703267600585 $153 5.5250703267600585 $224 $319 forward 7 unknown #
point $-1 -62.345652638325149 -26.170637507670627 -8.4152603710557088 #
point $-1 62.345652638325149 -26.170637507670627 -8.4152603710557088 #
loop $-1 $-1 $163 $155 #
plane-surface $-1 -62.345652638325149 0 0 1 0 0 0 0 -1 forward_v I I I I #
coedge $-1 $245 $158 $160 $249 reversed $91 $-1 #
coedge $-1 $158 $244 $320 $321 reversed $91 $-1 #
coedge $-1 $166 $161 $158 $247 forward $156 $-1 #
edge $-1 $250 -26.928411649202687 $322 -22.820093163393082 $246 $323 forward 7 unknown #
coedge $-1 $160 $159 $253 $324 reversed $57 $-1 #
edge $-1 $325 0 $250 8.2166371917835548 $244 $326 forward 7 unknown #
vertex $-1 $162 $327 #
straight-curve $-1 -58.237334152515551 6.2423078406694668 11.415260371055709 0 1 0 I I #
coedge $-1 $320 $163 $166 $257 reversed $242 $-1 #
coedge $-1 $163 $320 $248 $324 forward $242 $-1 #
vertex $-1 $164 $328 #
straight-curve $-1 -62.345652638325149 6.9276912504419244 33.32254736675597 0 0 1 I I #
straight-curve $-1 -62.345652638325149 6.9276912504419244 4.2994437657351483 -0.49999998660252726 0 -0.86602541151947299 I I #
edge $-1 $322 -18.041540112235943 $167 -6.9276912504419244 $252 $329 forward 7 unknown #
point $-1 -62.345652638325149 6.9276912504419244 11.415260371055709 #
point $-1 -58.237334152515544 6.9276912504419244 11.415260371055709 #
edge $-1 $330 1 $330 0 $170 $-1 forward 7 unknown #
vertex $-1 $171 $331 #
ellipse-curve $-1 -57.94225377237521 12.484615681338934 6.5010179880965842 -0.86602541151947299 0 0.49999998660252726 0.99999997320505452 0 1.732050823038946 1 I I #
point $-1 -59.291493422215289 12.484615681338934 9.589402891434375 #
plane-surface $-1 0 0 11.415260371055709 0 0 1 1 0 0 forward_v I I I I #
coedge $-1 $275 $274 $267 $332 forward $175 $-1 #
coedge $-1 $267 $177 $179 $271 reversed $106 $-1 #
coedge $-1 $177 $266 $265 $332 reversed $106 $-1 #
coedge $-1 $185 $180 $177 $269 forward $186 $-1 #
edge $-1 $272 14.538041412018963 $333 20.427596909666015 $268 $334 forward 7 unknown #
coedge $-1 $179 $178 $275 $335 reversed $66 $-1 #
edge $-1 $336 -124.69130527665033 $272 -115.12508124809548 $266 $337 forward 7 unknown #
vertex $-1 $181 $338 #
straight-curve $-1 56.456097140678096 -4.4802749770845534 11.415260371055709 0 -1 0 I I #
coedge $-1 $265 $182 $185 $279 reversed $175 $-1 #
coedge $-1 $182 $265 $270 $335 forward $175 $-1 #
vertex $-1 $183 $339 #
straight-curve $-1 62.345652638325149 -2.8006030541877109 89.451347502106245 0 0 1 I I #
straight-curve $-1 -14.421979011194594 -2.8006030541877109 102.13506335469275 0.61566146476048833 0 -0.78801076186113728 I I #
edge $-1 $333 -15.120496854150502 $187 -2.8006030541877109 $274 $340 forward 7 unknown #
point $-1 62.345652638325149 -2.8006030541877109 11.415260371055709 #
point $-1 56.456097140678096 -2.8006030541877109 11.415260371055709 #
edge $-1 $341 1 $341 0 $190 $-1 forward 7 unknown #
vertex $-1 $191 $342 #
ellipse-curve $-1 57.037732413732634 -8.9605499541691067 5.7998274299354433 0.78801076186113728 0 0.61566146476048833 1.2313229295209767 0 -1.5760215237222746 1 I I #
point $-1 60.632197819022608 -8.9605499541691067 6.070095104895521 #
plane-surface $-1 62.345652638325149 0 0 -1 0 0 0 0 1 forward_v I I I I #
coedge $-1 $199 $197 $201 $291 reversed $121 $-1 #
edge $-1 $212 -11.415260371055709 $293 11.415260371055709 $211 $343 forward 7 unknown #
vertex $-1 $291 $344 #
straight-curve $-1 -62.345652638325149 -26.170637507670623 0 0 0 -1 I I #
edge $-1 $289 -26.170637507670623 $293 26.170637507670623 $287 $345 forward 7 unknown #
straight-curve $-1 0 -26.170637507670623 -11.415260371055709 -1 0 0 I I #
vertex $-1 $204 $346 #
straight-curve $-1 0 26.170637507670623 -11.415260371055709 1 0 0 I I #
point $-1 62.345652638325149 26.170637507670623 -11.415260371055709 #
point $-1 62.345652638325149 -26.170637507670623 -11.415260371055709 #
straight-curve $-1 -62.345652638325149 0 11.415260371055709 0 -1 0 I I #
point $-1 -62.345652638325149 26.170637507670623 11.415260371055709 #
point $-1 -62.345652638325149 -26.170637507670623 11.415260371055709 #
straight-curve $-1 62.345652638325149 -26.170637507670623 0 0 0 -1 I I #
straight-curve $-1 62.345652638325149 26.170637507670623 0 0 0 -1 I I #
plane-surface $-1 -62.345652638325149 0 0 1 0 0 0 0 -1 forward_v I I I I #
coedge $-1 $305 $314 $309 $347 forward $222 $-1 #
coedge $-1 $225 $224 $348 $349 forward $83 $-1 #
coedge $-1 $348 $303 $226 $306 reversed $222 $-1 #
edge $-1 $307 -62.345652638325149 $310 62.345652638325149 $305 $350 forward 7 unknown #
vertex $-1 $349 $351 #
straight-curve $-1 62.345652638325149 0 -11.415260371055709 0 -1 0 I I #
coedge $-1 $234 $228 $303 $347 reversed $235 $-1 #
vertex $-1 $229 $352 #
straight-curve $-1 -62.345652638325149 0 -11.415260371055709 0 1 0 I I #
point $-1 -62.345652638325149 -26.170637507670623 -11.415260371055709 #
point $-1 62.345652638325149 -26.170637507670623 -11.415260371055709 #
coedge $-1 $303 $348 $237 $315 reversed $222 $-1 #
edge $-1 $316 -62.345652638325149 $318 62.345652638325149 $314 $353 forward 7 unknown #
vertex $-1 $238 $354 #
straight-curve $-1 -62.345652638325149 -31.695707834430685 -8.4152603710557088 0 -1 0 I I #
vertex $-1 $239 $355 #
straight-curve $-1 62.345652638325149 -31.695707834430685 -8.4152603710557088 0 1 0 I I #
coedge $-1 $253 $252 $245 $321 forward $242 $-1 #
edge $-1 $322 21.907286995700261 $325 29.023103601020821 $320 $356 forward 7 unknown #
vertex $-1 $257 $357 #
straight-curve $-1 -85.165745801718231 18.041540112235943 11.415260371055709 -1 0 0 I I #
edge $-1 $325 -11.799232271566476 $254 -0.6853834097724576 $253 $358 forward 7 unknown #
vertex $-1 $324 $359 #
straight-curve $-1 -62.345652638325149 18.041540112235943 4.2994437657351483 0.49999998660252726 0 0.86602541151947299 I I #
point $-1 -58.237334152515544 18.041540112235943 11.415260371055709 #
point $-1 -62.345652638325149 6.9276912504419244 4.2994437657351483 #
straight-curve $-1 -62.345652638325149 0 11.415260371055709 0 -1 0 I I #
vertex $-1 $260 $360 #
point $-1 -56.942253799170153 12.484615681338934 8.2330688111355297 #
edge $-1 $333 78.036087131050536 $336 85.574374615926359 $265 $361 forward 7 unknown #
vertex $-1 $279 $362 #
straight-curve $-1 41.918055728659134 -15.120496854150502 11.415260371055709 1 0 0 I I #
edge $-1 $336 -10.640221877065949 $276 1.6796719228968424 $275 $363 forward 7 unknown #
vertex $-1 $335 $364 #
straight-curve $-1 -14.421979011194594 -15.120496854150502 102.13506335469275 -0.61566146476048833 0 0.78801076186113728 I I #
point $-1 56.456097140678096 -15.120496854150502 11.415260371055709 #
point $-1 62.345652638325149 -2.8006030541877109 3.8769728861798853 #
straight-curve $-1 62.345652638325149 0 11.415260371055709 0 1 0 I I #
vertex $-1 $282 $365 #
point $-1 58.269055343253612 -8.9605499541691067 4.223805906213169 #
straight-curve $-1 -62.345652638325149 26.170637507670623 0 0 0 -1 I I #
point $-1 -62.345652638325149 -26.170637507670623 -11.415260371055709 #
straight-curve $-1 -62.345652638325149 0 -11.415260371055709 0 1 0 I I #
point $-1 -62.345652638325149 26.170637507670623 -11.415260371055709 #
edge $-1 $316 -1.5 $310 1.5 $309 $366 forward 7 unknown #
coedge $-1 $314 $305 $304 $349 reversed $222 $-1 #
edge $-1 $318 -1.5 $307 1.5 $304 $367 forward 7 unknown #
straight-curve $-1 0 -37.220778161190744 -11.415260371055709 -1 0 0 I I #
point $-1 62.345652638325149 -37.220778161190744 -11.415260371055709 #
point $-1 -62.345652638325149 -37.220778161190744 -11.415260371055709 #
straight-curve $-1 0 -37.220778161190744 -8.4152603710557088 1 0 0 I I #
point $-1 -62.345652638325149 -37.220778161190744 -8.4152603710557088 #
point $-1 62.345652638325149 -37.220778161190744 -8.4152603710557088 #
straight-curve $-1 -62.345652638325149 18.041540112235943 33.32254736675597 0 0 -1 I I #
point $-1 -62.345652638325149 18.041540112235943 11.415260371055709 #
straight-curve $-1 -62.345652638325149 6.2423078406694668 4.299443765735151 0 -1 0 I I #
point $-1 -62.345652638325149 18.041540112235943 4.2994437657351483 #
point $-1 -56.210202949336264 12.484615681338934 5.5010180148915291 #
straight-curve $-1 62.345652638325149 -15.120496854150502 89.451347502106245 0 0 -1 I I #
point $-1 62.345652638325149 -15.120496854150502 11.415260371055709 #
straight-curve $-1 62.345652638325149 -4.4802749770845534 3.8769728861798782 0 1 0 I I #
point $-1 62.345652638325149 -15.120496854150502 3.8769728861798853 #
point $-1 55.461710890010359 -8.9605499541691067 4.5685045004144671 #
straight-curve $-1 -62.345652638325149 -37.220778161190744 -9.9152603710557088 0 0 -1 I I #
straight-curve $-1 62.345652638325149 -37.220778161190744 -9.9152603710557088 0 0 -1 I I #
End-of-ACIS-data 