500 0 9 0           
7 Unknown 11 ACIS 5.0 NT 24 Fri Mar 26 18:08:42 1999 
-1 9.9999999999999995e-007 1e-010 
body $-1 $9 $-1 $10 #
body $-1 $11 $-1 $12 #
body $-1 $13 $-1 $14 #
body $-1 $15 $-1 $16 #
body $-1 $17 $-1 $18 #
body $-1 $19 $-1 $20 #
body $-1 $21 $-1 $22 #
body $-1 $23 $-1 $24 #
body $-1 $25 $-1 $26 #
lump $-1 $-1 $27 $0 #
transform $-1 1 0 0 0 1 0 0 0 1 54.094668416394541 26.444924939569006 7.5593246084924814 1 rotate no_reflect no_shear #
lump $-1 $-1 $28 $1 #
transform $-1 1 0 0 0 1 0 0 0 1 54.094668416394541 26.444924939569006 7.5593246084924814 1 rotate no_reflect no_shear #
lump $-1 $-1 $29 $2 #
transform $-1 1 0 0 0 1 0 0 0 1 54.094668416394541 26.444924939569006 7.5593246084924814 1 rotate no_reflect no_shear #
lump $-1 $-1 $30 $3 #
transform $-1 1 0 0 0 1 0 0 0 1 54.094668416394541 26.444924939569006 7.5593246084924814 1 rotate no_reflect no_shear #
lump $-1 $-1 $31 $4 #
transform $-1 1 0 0 0 1 0 0 0 1 54.094668416394541 26.444924939569006 7.5593246084924814 1 rotate no_reflect no_shear #
lump $-1 $-1 $32 $5 #
transform $-1 1 0 0 0 1 0 0 0 1 54.094668416394541 26.444924939569006 7.5593246084924814 1 rotate no_reflect no_shear #
lump $-1 $-1 $33 $6 #
transform $-1 1 0 0 0 1 0 0 0 1 54.094668416394541 26.444924939569006 7.5593246084924814 1 rotate no_reflect no_shear #
lump $-1 $-1 $34 $7 #
transform $-1 1 0 0 0 1 0 0 0 1 54.094668416394541 26.444924939569006 7.5593246084924814 1 rotate no_reflect no_shear #
lump $-1 $-1 $35 $8 #
transform $-1 1 0 0 0 1 0 0 0 1 54.094668416394541 26.444924939569006 7.5593246084924814 1 rotate no_reflect no_shear #
shell $-1 $-1 $-1 $36 $-1 $9 #
shell $-1 $-1 $-1 $37 $-1 $11 #
shell $-1 $-1 $-1 $38 $-1 $13 #
shell $-1 $-1 $-1 $39 $-1 $15 #
shell $-1 $-1 $-1 $40 $-1 $17 #
shell $-1 $-1 $-1 $41 $-1 $19 #
shell $-1 $-1 $-1 $42 $-1 $21 #
shell $-1 $-1 $-1 $43 $-1 $23 #
shell $-1 $-1 $-1 $44 $-1 $25 #
face $-1 $45 $46 $27 $-1 $47 forward single #
face $-1 $48 $49 $28 $-1 $50 reversed single #
face $-1 $51 $52 $29 $-1 $53 reversed single #
face $-1 $54 $55 $30 $-1 $56 reversed single #
face $-1 $57 $58 $31 $-1 $59 forward single #
face $-1 $60 $61 $32 $-1 $62 forward single #
face $-1 $63 $64 $33 $-1 $65 reversed single #
face $-1 $66 $67 $34 $-1 $68 forward single #
face $-1 $69 $70 $35 $-1 $71 forward single #
face $-1 $72 $73 $27 $-1 $74 reversed single #
loop $-1 $-1 $75 $36 #
plane-surface $-1 0 0 7.5593246084924814 0 0 1 1 0 0 forward_v I I I I #
face $-1 $76 $77 $28 $-1 $78 reversed single #
loop $-1 $-1 $79 $37 #
plane-surface $-1 0 -22.521601554961414 3.0828811489671537 0 0 1 1 0 0 forward_v I I I I #
face $-1 $80 $81 $29 $-1 $82 reversed single #
loop $-1 $-1 $83 $38 #
plane-surface $-1 0 22.521601554961414 3.0828811489671537 0 0 1 1 0 0 forward_v I I I I #
face $-1 $84 $85 $30 $-1 $86 reversed single #
loop $-1 $-1 $87 $39 #
plane-surface $-1 27.526007611031972 -12.405409294496703 152.52133046369499 0 -1 0 -0.57357644374324357 0 -0.81915203911291934 forward_v I I I I #
face $-1 $88 $89 $31 $-1 $90 forward single #
loop $-1 $91 $92 $40 #
cone-surface $-1 49.533040159478496 -16.828887062966071 4.0160300156583988 -0.57357644374324357 0 -0.81915203911291934 0.40957601955645967 0 -0.28678822187162178 1 I I 0 1 0.5 forward I I I I #
face $-1 $93 $94 $32 $-1 $95 forward single #
loop $-1 $96 $97 $41 #
cone-surface $-1 49.533040159478496 -14.17480040188445 4.0160300156583988 -0.57357644374324357 0 -0.81915203911291934 0.40957601955645967 0 -0.28678822187162178 1 I I 0 1 0.5 forward I I I I #
face $-1 $98 $99 $33 $-1 $100 reversed single #
loop $-1 $-1 $101 $42 #
plane-surface $-1 -109.81629692577923 -10.063173611372378 93.745849577990185 0 1 0 -0.51503808176128008 0 0.85716729658548041 forward_v I I I I #
face $-1 $102 $103 $34 $-1 $104 forward single #
loop $-1 $105 $106 $43 #
cone-surface $-1 -48.36373529103809 -7.855908302796724 3.8174860580397603 0.51503808176128008 0 -0.85716729658548041 0.85716729658548041 0 0.51503808176128008 1 I I 0 1 1 forward I I I I #
face $-1 $107 $108 $35 $-1 $109 forward single #
loop $-1 $110 $111 $44 #
cone-surface $-1 -48.36373529103809 -4.5450103399332455 3.8174860580397603 0.51503808176128008 0 -0.85716729658548041 0.85716729658548041 0 0.51503808176128008 1 I I 0 1 1 forward I I I I #
face $-1 $112 $113 $27 $-1 $114 reversed single #
loop $-1 $-1 $115 $45 #
plane-surface $-1 0 0 -7.5593246084924814 0 0 1 1 0 0 forward_v I I I I #
coedge $-1 $116 $117 $118 $119 forward $46 $-1 #
face $-1 $120 $121 $28 $-1 $122 reversed single #
loop $-1 $-1 $123 $48 #
plane-surface $-1 0 -18.598278170353822 5.3211028787298176 0 -1 0 0 0 -1 forward_v I I I I #
coedge $-1 $124 $125 $126 $127 reversed $49 $-1 #
face $-1 $128 $129 $29 $-1 $130 forward single #
loop $-1 $-1 $131 $51 #
plane-surface $-1 0 18.598278170353822 5.3211028787298176 0 1 0 0 0 1 forward_v I I I I #
coedge $-1 $132 $133 $134 $135 reversed $52 $-1 #
face $-1 $136 $137 $30 $-1 $138 forward single #
loop $-1 $-1 $139 $54 #
plane-surface $-1 -34.528847460459104 -15.501843732425261 63.897814586841349 0.57357644374324357 0 0.81915203911291934 0.81915203911291934 0 -0.57357644374324357 forward_v I I I I #
coedge $-1 $140 $141 $142 $143 reversed $55 $-1 #
face $-1 $-1 $144 $31 $-1 $145 forward single #
loop $-1 $146 $147 $57 #
cone-surface $-1 48.909925420017203 -16.828887062966071 3.126129959617181 -0.57357644374324357 0 -0.81915203911291934 0.20478800977822983 0 -0.14339411093581089 1 I I -0.70710678118654746 0.70710678118654746 0.25 forward I I I I #
loop $-1 $-1 $148 $40 #
coedge $-1 $92 $92 $149 $150 reversed $58 $-1 #
face $-1 $-1 $151 $32 $-1 $152 forward single #
loop $-1 $153 $154 $60 #
cone-surface $-1 48.909925420017203 -14.17480040188445 3.126129959617181 -0.57357644374324357 0 -0.81915203911291934 0.20478800977822983 0 -0.14339411093581089 1 I I -0.70710678118654746 0.70710678118654746 0.25 forward I I I I #
loop $-1 $-1 $155 $41 #
coedge $-1 $97 $97 $156 $157 reversed $61 $-1 #
face $-1 $158 $159 $33 $-1 $160 reversed single #
loop $-1 $-1 $161 $63 #
plane-surface $-1 -54.094668416394533 -6.2004593213649848 1.0094882056524312 -0.51503808176128008 0 0.85716729658548041 0.85716729658548041 0 0.51503808176128008 forward_v I I I I #
coedge $-1 $162 $163 $164 $165 reversed $64 $-1 #
face $-1 $-1 $166 $34 $-1 $167 forward single #
loop $-1 $168 $169 $66 #
cone-surface $-1 -47.82566219512168 -7.855908302796724 2.9219820607143276 0.51503808176128008 0 -0.85716729658548041 0.4285836482927402 0 0.25751904088064004 1 I I -0.70710678118654746 0.70710678118654746 0.5 forward I I I I #
loop $-1 $-1 $170 $43 #
coedge $-1 $106 $106 $171 $172 reversed $67 $-1 #
face $-1 $-1 $173 $35 $-1 $174 forward single #
loop $-1 $175 $176 $69 #
cone-surface $-1 -47.82566219512168 -4.5450103399332455 2.9219820607143276 0.51503808176128008 0 -0.85716729658548041 0.4285836482927402 0 0.25751904088064004 1 I I -0.70710678118654746 0.70710678118654746 0.5 forward I I I I #
loop $-1 $-1 $177 $44 #
coedge $-1 $111 $111 $178 $179 reversed $70 $-1 #
face $-1 $180 $181 $27 $-1 $182 reversed single #
loop $-1 $-1 $183 $72 #
plane-surface $-1 0 -26.444924939569006 0 0 1 0 0 0 1 forward_v I I I I #
coedge $-1 $184 $185 $186 $187 forward $73 $-1 #
coedge $-1 $188 $75 $189 $190 forward $46 $-1 #
coedge $-1 $75 $188 $191 $192 forward $46 $-1 #
coedge $-1 $193 $194 $75 $119 reversed $195 $-1 #
edge $-1 $196 -26.444924939569006 $197 26.444924939569006 $118 $198 forward 7 unknown #
face $-1 $199 $200 $28 $-1 $201 reversed single #
loop $-1 $-1 $202 $76 #
plane-surface $-1 -54.094668416394541 0 0 1 0 0 0 0 -1 forward_v I I I I #
coedge $-1 $203 $204 $205 $206 reversed $77 $-1 #
coedge $-1 $207 $79 $208 $209 reversed $49 $-1 #
coedge $-1 $79 $207 $203 $210 forward $49 $-1 #
coedge $-1 $205 $211 $79 $127 forward $212 $-1 #
edge $-1 $213 -15.184124162088299 $214 -7.3374773928731152 $126 $215 forward 7 unknown #
face $-1 $216 $217 $29 $-1 $218 reversed single #
loop $-1 $-1 $219 $80 #
plane-surface $-1 0 0 7.5593246084924814 0 0 1 1 0 0 forward_v I I I I #
coedge $-1 $220 $221 $222 $223 reversed $81 $-1 #
coedge $-1 $224 $83 $220 $225 forward $52 $-1 #
coedge $-1 $83 $224 $226 $227 reversed $52 $-1 #
coedge $-1 $228 $229 $83 $135 forward $217 $-1 #
edge $-1 $230 7.3374773928731152 $231 15.184124162088299 $134 $232 forward 7 unknown #
face $-1 $233 $234 $30 $-1 $235 forward single #
loop $-1 $-1 $142 $84 #
plane-surface $-1 0 0 7.5593246084924814 0 0 1 1 0 0 forward_v I I I I #
coedge $-1 $236 $237 $238 $239 reversed $85 $-1 #
coedge $-1 $141 $87 $240 $241 reversed $55 $-1 #
coedge $-1 $87 $140 $236 $242 reversed $55 $-1 #
coedge $-1 $238 $243 $87 $143 forward $137 $-1 #
edge $-1 $244 -40.331664610878555 $245 -32.167849354097434 $142 $246 forward 7 unknown #
loop $-1 $-1 $149 $88 #
plane-surface $-1 -34.528847460459104 -15.501843732425261 63.897814586841349 0.57357644374324357 0 0.81915203911291934 0.81915203911291934 0 -0.57357644374324357 forward_v I I I I #
loop $-1 $-1 $247 $57 #
coedge $-1 $147 $147 $148 $248 reversed $89 $-1 #
coedge $-1 $148 $148 $147 $248 forward $91 $-1 #
coedge $-1 $149 $149 $92 $150 forward $144 $-1 #
edge $-1 $249 0 $249 6.2831853071796004 $149 $250 forward 7 unknown #
loop $-1 $-1 $156 $93 #
plane-surface $-1 -34.528847460459104 -15.501843732425261 63.897814586841349 0.57357644374324357 0 0.81915203911291934 0.81915203911291934 0 -0.57357644374324357 forward_v I I I I #
loop $-1 $-1 $251 $60 #
coedge $-1 $154 $154 $155 $252 reversed $94 $-1 #
coedge $-1 $155 $155 $154 $252 forward $96 $-1 #
coedge $-1 $156 $156 $97 $157 forward $151 $-1 #
edge $-1 $253 0 $253 6.2831853071796004 $156 $254 forward 7 unknown #
face $-1 $255 $256 $33 $-1 $257 reversed single #
loop $-1 $-1 $258 $98 #
plane-surface $-1 -109.81629692577923 -2.337745031357592 93.745849577990185 0 -1 0 0.51503808176128008 0 -0.85716729658548041 forward_v I I I I #
coedge $-1 $259 $260 $261 $262 reversed $99 $-1 #
coedge $-1 $163 $101 $263 $264 reversed $64 $-1 #
coedge $-1 $101 $162 $259 $265 reversed $64 $-1 #
coedge $-1 $261 $266 $101 $165 forward $267 $-1 #
edge $-1 $268 0.81348004649507288 $269 11.714238187136417 $164 $270 forward 7 unknown #
loop $-1 $-1 $171 $102 #
plane-surface $-1 -54.094668416394533 -6.2004593213649848 1.0094882056524312 -0.51503808176128008 0 0.85716729658548041 0.85716729658548041 0 0.51503808176128008 forward_v I I I I #
loop $-1 $-1 $271 $66 #
coedge $-1 $169 $169 $170 $272 reversed $103 $-1 #
coedge $-1 $170 $170 $169 $272 forward $105 $-1 #
coedge $-1 $171 $171 $106 $172 forward $166 $-1 #
edge $-1 $273 0 $273 6.2831853071796004 $171 $274 forward 7 unknown #
loop $-1 $-1 $178 $107 #
plane-surface $-1 -54.094668416394533 -6.2004593213649848 1.0094882056524312 -0.51503808176128008 0 0.85716729658548041 0.85716729658548041 0 0.51503808176128008 forward_v I I I I #
loop $-1 $-1 $275 $69 #
coedge $-1 $176 $176 $177 $276 reversed $108 $-1 #
coedge $-1 $177 $177 $176 $276 forward $110 $-1 #
coedge $-1 $178 $178 $111 $179 forward $173 $-1 #
edge $-1 $277 0 $277 6.2831853071796004 $178 $278 forward 7 unknown #
face $-1 $279 $280 $27 $-1 $281 reversed single #
loop $-1 $-1 $282 $112 #
plane-surface $-1 -54.094668416394541 0 0 1 0 0 0 0 -1 forward_v I I I I #
coedge $-1 $283 $191 $284 $285 forward $113 $-1 #
coedge $-1 $286 $115 $283 $287 forward $73 $-1 #
coedge $-1 $115 $286 $288 $289 forward $73 $-1 #
coedge $-1 $194 $193 $115 $187 reversed $195 $-1 #
edge $-1 $290 -26.444924939569006 $291 26.444924939569006 $186 $292 forward 7 unknown #
coedge $-1 $117 $116 $293 $294 forward $46 $-1 #
coedge $-1 $295 $296 $116 $190 reversed $280 $-1 #
edge $-1 $197 -54.094668416394541 $297 54.094668416394541 $189 $298 forward 7 unknown #
coedge $-1 $183 $299 $117 $192 reversed $113 $-1 #
edge $-1 $300 -54.094668416394541 $196 54.094668416394541 $191 $301 forward 7 unknown #
coedge $-1 $186 $118 $299 $302 forward $195 $-1 #
coedge $-1 $118 $186 $295 $303 reversed $195 $-1 #
loop $-1 $-1 $193 $279 #
vertex $-1 $119 $304 #
vertex $-1 $119 $305 #
straight-curve $-1 54.094668416394541 0 7.5593246084924814 0 1 0 I I #
face $-1 $306 $307 $28 $-1 $308 forward single #
loop $-1 $-1 $208 $120 #
plane-surface $-1 0 -26.444924939569006 0 0 1 0 0 0 1 forward_v I I I I #
coedge $-1 $309 $310 $311 $312 forward $121 $-1 #
coedge $-1 $311 $123 $125 $210 reversed $77 $-1 #
coedge $-1 $123 $311 $313 $314 reversed $77 $-1 #
coedge $-1 $315 $126 $123 $206 forward $212 $-1 #
edge $-1 $214 0.42232970960224492 $316 4.8987731691275727 $205 $317 forward 7 unknown #
coedge $-1 $125 $124 $309 $318 reversed $49 $-1 #
coedge $-1 $319 $320 $124 $209 forward $200 $-1 #
edge $-1 $321 -54.094668416394541 $213 54.094668416394541 $208 $322 forward 7 unknown #
edge $-1 $323 -54.094668416394541 $214 54.094668416394541 $203 $324 forward 7 unknown #
coedge $-1 $126 $315 $319 $325 forward $212 $-1 #
loop $-1 $-1 $205 $306 #
vertex $-1 $209 $326 #
vertex $-1 $127 $327 #
straight-curve $-1 54.094668416394541 -11.260800777480707 3.0828811489671537 0 1 0 I I #
face $-1 $328 $329 $29 $-1 $330 reversed single #
loop $-1 $-1 $229 $128 #
plane-surface $-1 54.094668416394541 0 0 -1 0 0 0 0 1 forward_v I I I I #
coedge $-1 $331 $332 $221 $333 forward $129 $-1 #
coedge $-1 $334 $131 $132 $225 reversed $81 $-1 #
coedge $-1 $131 $334 $219 $333 reversed $81 $-1 #
coedge $-1 $335 $336 $131 $223 forward $329 $-1 #
edge $-1 $337 0.42232970960224492 $338 4.8987731691275727 $222 $339 forward 7 unknown #
coedge $-1 $133 $132 $336 $340 reversed $52 $-1 #
edge $-1 $230 -54.094668416394541 $337 54.094668416394541 $220 $341 forward 7 unknown #
coedge $-1 $342 $343 $133 $227 forward $344 $-1 #
edge $-1 $231 -54.094668416394541 $345 54.094668416394541 $226 $346 forward 7 unknown #
coedge $-1 $347 $134 $343 $348 reversed $217 $-1 #
coedge $-1 $134 $347 $334 $349 forward $217 $-1 #
vertex $-1 $135 $350 #
vertex $-1 $227 $351 #
straight-curve $-1 54.094668416394541 11.260800777480707 3.0828811489671537 0 1 0 I I #
face $-1 $-1 $352 $30 $-1 $353 reversed single #
loop $-1 $-1 $354 $136 #
plane-surface $-1 0 -18.598278170353822 5.3211028787298176 0 -1 0 0 0 -1 forward_v I I I I #
coedge $-1 $355 $139 $141 $242 forward $85 $-1 #
coedge $-1 $139 $355 $354 $356 forward $85 $-1 #
coedge $-1 $357 $142 $139 $239 forward $137 $-1 #
edge $-1 $245 4.6544874282840727 $358 10.847356304141188 $238 $359 forward 7 unknown #
coedge $-1 $360 $361 $140 $241 forward $352 $-1 #
edge $-1 $362 -74.417705716497224 $244 -68.701340623355009 $240 $363 forward 7 unknown #
edge $-1 $245 98.223158556993141 $362 108.18933683278908 $141 $364 forward 7 unknown #
coedge $-1 $142 $357 $360 $365 forward $137 $-1 #
vertex $-1 $241 $366 #
vertex $-1 $143 $367 #
straight-curve $-1 13.763003805515986 -12.405409294496703 7.5593246084924886 -1 0 0 I I #
coedge $-1 $247 $247 $-1 $368 reversed $146 $-1 #
edge $-1 $369 0 $369 6.2831853071796004 $147 $370 forward 7 unknown #
vertex $-1 $150 $371 #
ellipse-curve $-1 50.012760788003973 -16.828887062966071 4.7011420619213737 0.57357644374324357 0 0.81915203911291934 0.40957601955645967 0 -0.28678822187162178 1 I I #
coedge $-1 $251 $251 $-1 $372 reversed $153 $-1 #
edge $-1 $373 0 $373 6.2831853071796004 $154 $374 forward 7 unknown #
vertex $-1 $157 $375 #
ellipse-curve $-1 50.012760788003973 -14.17480040188445 4.7011420619213737 0.57357644374324357 0 0.81915203911291934 0.40957601955645967 0 -0.28678822187162178 1 I I #
face $-1 $-1 $267 $33 $-1 $376 forward single #
loop $-1 $-1 $377 $158 #
plane-surface $-1 -54.094668416394541 0 0 1 0 0 0 0 -1 forward_v I I I I #
coedge $-1 $378 $379 $380 $381 reversed $159 $-1 #
coedge $-1 $382 $161 $163 $265 forward $99 $-1 #
coedge $-1 $161 $382 $378 $383 forward $99 $-1 #
coedge $-1 $380 $164 $161 $262 forward $267 $-1 #
edge $-1 $269 -6.9629439506898851 $384 0.76248462932490035 $261 $385 forward 7 unknown #
coedge $-1 $386 $387 $162 $264 forward $256 $-1 #
edge $-1 $388 -45.863436583342668 $268 -39.313600180502611 $263 $389 forward 7 unknown #
edge $-1 $269 -12.717188562914645 $388 8.2634070795339233e-015 $163 $390 forward 7 unknown #
coedge $-1 $164 $380 $386 $391 forward $267 $-1 #
loop $-1 $-1 $380 $255 #
vertex $-1 $264 $392 #
vertex $-1 $165 $393 #
straight-curve $-1 -54.908148462889613 -10.063173611372378 7.5593246084924814 1 0 0 I I #
coedge $-1 $271 $271 $-1 $394 reversed $168 $-1 #
edge $-1 $395 0 $395 6.2831853071796004 $169 $396 forward 7 unknown #
vertex $-1 $172 $397 #
ellipse-curve $-1 -48.644289346073862 -7.855908302796724 4.2844064070724563 -0.51503808176128008 0 0.85716729658548041 0.85716729658548041 0 0.51503808176128008 1 I I #
coedge $-1 $275 $275 $-1 $398 reversed $175 $-1 #
edge $-1 $399 0 $399 6.2831853071796004 $176 $400 forward 7 unknown #
vertex $-1 $179 $401 #
ellipse-curve $-1 -48.644289346073862 -4.5450103399332455 4.2844064070724563 -0.51503808176128008 0 0.85716729658548041 0.85716729658548041 0 0.51503808176128008 1 I I #
face $-1 $-1 $195 $27 $-1 $402 reversed single #
loop $-1 $-1 $295 $180 #
plane-surface $-1 0 26.444924939569006 0 0 -1 0 0 0 -1 forward_v I I I I #
coedge $-1 $403 $293 $296 $404 forward $181 $-1 #
coedge $-1 $299 $183 $184 $287 reversed $113 $-1 #
coedge $-1 $293 $403 $183 $285 reversed $181 $-1 #
edge $-1 $300 -7.5593246084924814 $405 7.5593246084924814 $284 $406 forward 7 unknown #
coedge $-1 $185 $184 $403 $407 forward $73 $-1 #
edge $-1 $291 -54.094668416394541 $405 54.094668416394541 $283 $408 forward 7 unknown #
coedge $-1 $296 $295 $185 $289 reversed $280 $-1 #
edge $-1 $409 -54.094668416394541 $290 54.094668416394541 $288 $410 forward 7 unknown #
vertex $-1 $187 $411 #
vertex $-1 $302 $412 #
straight-curve $-1 54.094668416394541 0 -7.5593246084924814 0 -1 0 I I #
coedge $-1 $282 $284 $188 $294 reversed $181 $-1 #
edge $-1 $297 -26.444924939569006 $300 26.444924939569006 $293 $413 forward 7 unknown #
coedge $-1 $288 $189 $194 $303 forward $280 $-1 #
coedge $-1 $189 $288 $282 $404 reversed $280 $-1 #
vertex $-1 $190 $414 #
straight-curve $-1 0 26.444924939569006 7.5593246084924814 -1 0 0 I I #
coedge $-1 $191 $283 $193 $302 reversed $113 $-1 #
vertex $-1 $294 $415 #
straight-curve $-1 0 -26.444924939569006 7.5593246084924814 1 0 0 I I #
edge $-1 $196 -7.5593246084924814 $291 7.5593246084924814 $193 $416 forward 7 unknown #
edge $-1 $197 -7.5593246084924814 $290 7.5593246084924814 $194 $417 forward 7 unknown #
point $-1 54.094668416394541 -26.444924939569006 7.5593246084924814 #
point $-1 54.094668416394541 26.444924939569006 7.5593246084924814 #
face $-1 $-1 $212 $28 $-1 $418 reversed single #
loop $-1 $-1 $313 $199 #
plane-surface $-1 0 0 7.5593246084924814 0 0 1 1 0 0 forward_v I I I I #
coedge $-1 $419 $202 $207 $318 forward $121 $-1 #
coedge $-1 $202 $419 $420 $421 reversed $121 $-1 #
coedge $-1 $204 $203 $202 $312 reversed $77 $-1 #
edge $-1 $422 -4.8987731691275727 $323 -0.42232970960224492 $202 $423 forward 7 unknown #
coedge $-1 $420 $424 $204 $314 forward $307 $-1 #
edge $-1 $316 -54.094668416394541 $422 54.094668416394541 $313 $425 forward 7 unknown #
coedge $-1 $211 $205 $424 $426 reversed $212 $-1 #
vertex $-1 $206 $427 #
straight-curve $-1 54.094668416394541 -18.598278170353822 2.6605514393649088 0 0 1 I I #
edge $-1 $323 7.3374773928731152 $321 15.184124162088299 $309 $428 forward 7 unknown #
coedge $-1 $429 $208 $211 $325 reversed $200 $-1 #
coedge $-1 $208 $429 $419 $430 forward $200 $-1 #
vertex $-1 $209 $431 #
straight-curve $-1 0 -26.444924939569006 3.0828811489671537 1 0 0 I I #
vertex $-1 $318 $432 #
straight-curve $-1 0 -18.598278170353822 3.0828811489671537 1 0 0 I I #
edge $-1 $433 -7.5593246084924814 $213 -3.0828811489671537 $211 $434 forward 7 unknown #
point $-1 54.094668416394541 -26.444924939569006 3.0828811489671537 #
point $-1 54.094668416394541 -18.598278170353822 3.0828811489671537 #
face $-1 $-1 $344 $29 $-1 $435 reversed single #
loop $-1 $-1 $222 $216 #
plane-surface $-1 -54.094668416394541 0 0 1 0 0 0 0 -1 forward_v I I I I #
coedge $-1 $436 $219 $347 $437 forward $129 $-1 #
coedge $-1 $219 $436 $335 $438 forward $129 $-1 #
edge $-1 $338 -54.094668416394541 $439 54.094668416394541 $219 $440 forward 7 unknown #
coedge $-1 $221 $220 $229 $349 reversed $81 $-1 #
coedge $-1 $441 $222 $332 $438 reversed $329 $-1 #
coedge $-1 $222 $441 $224 $340 forward $329 $-1 #
vertex $-1 $340 $442 #
vertex $-1 $223 $443 #
straight-curve $-1 -54.094668416394541 18.598278170353822 2.6605514393649088 0 0 1 I I #
edge $-1 $345 -15.184124162088299 $337 -7.3374773928731152 $336 $444 forward 7 unknown #
straight-curve $-1 0 18.598278170353822 3.0828811489671537 -1 0 0 I I #
coedge $-1 $445 $226 $441 $446 reversed $344 $-1 #
coedge $-1 $226 $445 $228 $348 forward $344 $-1 #
loop $-1 $-1 $226 $328 #
vertex $-1 $227 $447 #
straight-curve $-1 0 26.444924939569006 3.0828811489671537 -1 0 0 I I #
coedge $-1 $229 $228 $331 $437 reversed $217 $-1 #
edge $-1 $448 -7.5593246084924814 $231 -3.0828811489671537 $228 $449 forward 7 unknown #
edge $-1 $439 -4.8987731691275727 $230 -0.42232970960224492 $229 $450 forward 7 unknown #
point $-1 54.094668416394541 18.598278170353822 3.0828811489671537 #
point $-1 54.094668416394541 26.444924939569006 3.0828811489671537 #
loop $-1 $-1 $240 $233 #
plane-surface $-1 54.094668416394541 0 0 -1 0 0 0 0 1 forward_v I I I I #
coedge $-1 $451 $452 $237 $356 reversed $234 $-1 #
coedge $-1 $237 $236 $361 $453 reversed $85 $-1 #
edge $-1 $454 -108.18933683278908 $358 -98.223158556993141 $354 $455 forward 7 unknown #
coedge $-1 $243 $238 $452 $456 forward $137 $-1 #
vertex $-1 $456 $457 #
straight-curve $-1 45.930853159613413 -7.7509218662126305 7.5593246084924886 0 -1 0 I I #
coedge $-1 $458 $240 $243 $365 reversed $352 $-1 #
coedge $-1 $240 $458 $355 $453 forward $352 $-1 #
vertex $-1 $241 $459 #
straight-curve $-1 54.094668416394541 -12.405409294496703 76.260665231847497 0 0 1 I I #
straight-curve $-1 -34.528847460459104 -12.405409294496703 63.897814586841349 0.81915203911291934 0 -0.57357644374324357 I I #
edge $-1 $460 -18.598278170353822 $244 -12.405409294496703 $360 $461 forward 7 unknown #
point $-1 54.094668416394541 -12.405409294496703 7.5593246084924814 #
point $-1 45.93085315961342 -12.405409294496703 7.5593246084924814 #
edge $-1 $462 1 $462 0 $247 $-1 forward 7 unknown #
vertex $-1 $248 $463 #
ellipse-curve $-1 49.053319530953011 -16.828887062966071 3.330917969395411 0.57357644374324357 0 0.81915203911291934 0.40957601955645967 0 -0.28678822187162178 1 I I #
point $-1 50.422336807560441 -16.828887062966071 4.4143538400497651 #
edge $-1 $464 1 $464 0 $251 $-1 forward 7 unknown #
vertex $-1 $252 $465 #
ellipse-curve $-1 49.053319530953011 -14.17480040188445 3.330917969395411 0.57357644374324357 0 0.81915203911291934 0.40957601955645967 0 -0.28678822187162178 1 I I #
point $-1 50.422336807560441 -14.17480040188445 4.4143538400497651 #
plane-surface $-1 0 0 7.5593246084924814 0 0 1 1 0 0 forward_v I I I I #
coedge $-1 $387 $386 $379 $466 forward $256 $-1 #
coedge $-1 $379 $258 $260 $383 reversed $159 $-1 #
coedge $-1 $258 $378 $377 $466 reversed $159 $-1 #
coedge $-1 $266 $261 $258 $381 forward $267 $-1 #
edge $-1 $384 -11.714238187136417 $467 -0.81348004649507288 $380 $468 forward 7 unknown #
coedge $-1 $260 $259 $387 $469 reversed $99 $-1 #
edge $-1 $470 -8.2634070795339233e-015 $384 12.717188562914645 $378 $471 forward 7 unknown #
vertex $-1 $262 $472 #
straight-curve $-1 -43.193910275753197 -3.1002296606824924 7.5593246084924806 0 1 0 I I #
coedge $-1 $377 $263 $266 $391 reversed $256 $-1 #
coedge $-1 $263 $377 $382 $469 forward $256 $-1 #
vertex $-1 $264 $473 #
straight-curve $-1 -54.094668416394541 -10.063173611372378 46.872924788995093 0 0 1 I I #
straight-curve $-1 -54.094668416394533 -10.063173611372378 1.0094882056524312 -0.85716729658548041 0 -0.51503808176128008 I I #
edge $-1 $467 2.337745031357592 $268 10.063173611372378 $386 $474 forward 7 unknown #
point $-1 -54.094668416394541 -10.063173611372378 7.5593246084924814 #
point $-1 -43.193910275753197 -10.063173611372378 7.5593246084924814 #
edge $-1 $475 1 $475 0 $271 $-1 forward 7 unknown #
vertex $-1 $272 $476 #
ellipse-curve $-1 -48.083181236002318 -7.855908302796724 3.3505657090070677 -0.51503808176128008 0 0.85716729658548041 0.85716729658548041 0 0.51503808176128008 1 I I #
point $-1 -47.787122049488381 -7.855908302796724 4.7994444888337329 #
edge $-1 $477 1 $477 0 $275 $-1 forward 7 unknown #
vertex $-1 $276 $478 #
ellipse-curve $-1 -48.083181236002318 -4.5450103399332455 3.3505657090070677 -0.51503808176128008 0 0.85716729658548041 0.85716729658548041 0 0.51503808176128008 1 I I #
point $-1 -47.787122049488381 -4.5450103399332455 4.7994444888337329 #
plane-surface $-1 54.094668416394541 0 0 -1 0 0 0 0 1 forward_v I I I I #
coedge $-1 $284 $282 $286 $407 reversed $181 $-1 #
edge $-1 $297 -7.5593246084924814 $409 7.5593246084924814 $296 $479 forward 7 unknown #
vertex $-1 $407 $480 #
straight-curve $-1 -54.094668416394541 -26.444924939569006 0 0 0 -1 I I #
edge $-1 $405 -26.444924939569006 $409 26.444924939569006 $403 $481 forward 7 unknown #
straight-curve $-1 0 -26.444924939569006 -7.5593246084924814 -1 0 0 I I #
vertex $-1 $289 $482 #
straight-curve $-1 0 26.444924939569006 -7.5593246084924814 1 0 0 I I #
point $-1 54.094668416394541 26.444924939569006 -7.5593246084924814 #
point $-1 54.094668416394541 -26.444924939569006 -7.5593246084924814 #
straight-curve $-1 -54.094668416394541 0 7.5593246084924814 0 -1 0 I I #
point $-1 -54.094668416394541 26.444924939569006 7.5593246084924814 #
point $-1 -54.094668416394541 -26.444924939569006 7.5593246084924814 #
straight-curve $-1 54.094668416394541 -26.444924939569006 0 0 0 -1 I I #
straight-curve $-1 54.094668416394541 26.444924939569006 0 0 0 -1 I I #
plane-surface $-1 54.094668416394541 0 0 -1 0 0 0 0 1 forward_v I I I I #
coedge $-1 $310 $309 $320 $430 reversed $121 $-1 #
coedge $-1 $483 $313 $310 $421 forward $307 $-1 #
edge $-1 $422 18.598278170353822 $484 26.444924939569006 $310 $485 forward 7 unknown #
vertex $-1 $421 $486 #
straight-curve $-1 -54.094668416394541 -18.598278170353822 2.6605514393649088 0 0 -1 I I #
coedge $-1 $313 $483 $315 $426 forward $307 $-1 #
straight-curve $-1 0 -18.598278170353822 7.5593246084924814 -1 0 0 I I #
edge $-1 $433 -26.444924939569006 $316 -18.598278170353822 $315 $487 forward 7 unknown #
point $-1 54.094668416394541 -18.598278170353822 7.5593246084924814 #
straight-curve $-1 -54.094668416394541 -11.260800777480707 3.0828811489671537 0 -1 0 I I #
coedge $-1 $320 $319 $483 $488 reversed $200 $-1 #
edge $-1 $484 -7.5593246084924814 $321 -3.0828811489671537 $419 $489 forward 7 unknown #
point $-1 -54.094668416394541 -26.444924939569006 3.0828811489671537 #
point $-1 -54.094668416394541 -18.598278170353822 3.0828811489671537 #
vertex $-1 $426 $490 #
straight-curve $-1 54.094668416394541 -26.444924939569006 0 0 0 -1 I I #
plane-surface $-1 0 26.444924939569006 0 0 -1 0 0 0 -1 forward_v I I I I #
coedge $-1 $332 $331 $445 $491 forward $129 $-1 #
edge $-1 $439 18.598278170353822 $448 26.444924939569006 $347 $492 forward 7 unknown #
edge $-1 $493 -26.444924939569006 $338 -18.598278170353822 $335 $494 forward 7 unknown #
vertex $-1 $437 $495 #
straight-curve $-1 0 18.598278170353822 7.5593246084924814 1 0 0 I I #
coedge $-1 $336 $335 $342 $446 forward $329 $-1 #
point $-1 -54.094668416394541 18.598278170353822 3.0828811489671537 #
point $-1 -54.094668416394541 18.598278170353822 7.5593246084924814 #
straight-curve $-1 -54.094668416394541 11.260800777480707 3.0828811489671537 0 -1 0 I I #
coedge $-1 $343 $342 $436 $491 reversed $344 $-1 #
edge $-1 $493 -7.5593246084924814 $345 -3.0828811489671537 $342 $496 forward 7 unknown #
point $-1 -54.094668416394541 26.444924939569006 3.0828811489671537 #
vertex $-1 $437 $497 #
straight-curve $-1 54.094668416394541 26.444924939569006 0 0 0 -1 I I #
straight-curve $-1 54.094668416394541 18.598278170353822 2.6605514393649088 0 0 -1 I I #
coedge $-1 $452 $354 $458 $498 reversed $234 $-1 #
coedge $-1 $354 $451 $357 $456 reversed $234 $-1 #
edge $-1 $454 -10.847356304141188 $362 -4.6544874282840727 $361 $499 forward 7 unknown #
vertex $-1 $498 $500 #
straight-curve $-1 -34.528847460459104 -18.598278170353819 63.897814586841349 -0.81915203911291934 0 0.57357644374324357 I I #
edge $-1 $358 45.93085315961342 $460 54.094668416394541 $357 $501 forward 7 unknown #
point $-1 45.93085315961342 -18.598278170353819 7.5593246084924814 #
coedge $-1 $361 $360 $451 $498 forward $352 $-1 #
point $-1 54.094668416394541 -12.405409294496703 1.8429595153502731 #
vertex $-1 $365 $502 #
straight-curve $-1 54.094668416394541 0 7.5593246084924814 0 1 0 I I #
vertex $-1 $368 $503 #
point $-1 49.462895550509472 -16.828887062966071 3.044129747523789 #
vertex $-1 $372 $504 #
point $-1 49.462895550509472 -14.17480040188445 3.044129747523789 #
edge $-1 $467 39.313600180502611 $470 45.863436583342668 $377 $505 forward 7 unknown #
vertex $-1 $391 $506 #
straight-curve $-1 -54.908148462889613 -2.337745031357592 7.5593246084924814 -1 0 0 I I #
edge $-1 $470 -0.76248462932490035 $388 6.9629439506898851 $387 $507 forward 7 unknown #
vertex $-1 $469 $508 #
straight-curve $-1 -54.094668416394533 -2.337745031357592 1.0094882056524312 0.85716729658548041 0 0.51503808176128008 I I #
point $-1 -43.193910275753197 -2.337745031357592 7.5593246084924814 #
point $-1 -54.094668416394541 -10.063173611372378 1.009488205652427 #
straight-curve $-1 -54.094668416394541 0 7.5593246084924814 0 -1 0 I I #
vertex $-1 $394 $509 #
point $-1 -47.226013939416838 -7.855908302796724 3.8656037907683478 #
vertex $-1 $398 $510 #
point $-1 -47.226013939416838 -4.5450103399332455 3.8656037907683478 #
straight-curve $-1 -54.094668416394541 26.444924939569006 0 0 0 -1 I I #
point $-1 -54.094668416394541 -26.444924939569006 -7.5593246084924814 #
straight-curve $-1 -54.094668416394541 0 -7.5593246084924814 0 1 0 I I #
point $-1 -54.094668416394541 26.444924939569006 -7.5593246084924814 #
coedge $-1 $424 $420 $429 $488 forward $307 $-1 #
vertex $-1 $421 $511 #
straight-curve $-1 -54.094668416394541 0 7.5593246084924814 0 -1 0 I I #
point $-1 -54.094668416394541 -18.598278170353822 7.5593246084924814 #
straight-curve $-1 54.094668416394541 0 7.5593246084924814 0 1 0 I I #
edge $-1 $484 -54.094668416394541 $433 54.094668416394541 $429 $512 forward 7 unknown #
straight-curve $-1 -54.094668416394541 -26.444924939569006 0 0 0 -1 I I #
point $-1 54.094668416394541 -26.444924939569006 7.5593246084924814 #
edge $-1 $448 -54.094668416394541 $493 54.094668416394541 $445 $513 forward 7 unknown #
straight-curve $-1 54.094668416394541 0 7.5593246084924814 0 1 0 I I #
vertex $-1 $491 $514 #
straight-curve $-1 -54.094668416394541 0 7.5593246084924814 0 -1 0 I I #
point $-1 54.094668416394541 18.598278170353822 7.5593246084924814 #
straight-curve $-1 -54.094668416394541 26.444924939569006 0 0 0 -1 I I #
point $-1 54.094668416394541 26.444924939569006 7.5593246084924814 #
edge $-1 $460 68.701340623355009 $454 74.417705716497224 $458 $515 forward 7 unknown #
straight-curve $-1 54.094668416394548 -7.7509218662126305 1.8429595153502696 0 1 0 I I #
point $-1 54.094668416394541 -18.598278170353819 1.8429595153502731 #
straight-curve $-1 0 -18.598278170353822 7.5593246084924814 1 0 0 I I #
point $-1 54.094668416394541 -18.598278170353822 7.5593246084924814 #
point $-1 48.766531309081394 -16.828887062966071 2.921341949838951 #
point $-1 48.766531309081394 -14.17480040188445 2.921341949838951 #
straight-curve $-1 -54.094668416394541 -2.337745031357592 46.872924788995093 0 0 -1 I I #
point $-1 -54.094668416394541 -2.337745031357592 7.5593246084924814 #
straight-curve $-1 -54.094668416394541 -3.1002296606824924 1.0094882056524277 0 -1 0 I I #
point $-1 -54.094668416394541 -2.337745031357592 1.009488205652427 #
point $-1 -47.568143154241042 -7.855908302796724 2.4933984124215876 #
point $-1 -47.568143154241042 -4.5450103399332455 2.4933984124215876 #
point $-1 -54.094668416394541 -26.444924939569006 7.5593246084924814 #
straight-curve $-1 0 -26.444924939569006 7.5593246084924814 1 0 0 I I #
straight-curve $-1 0 26.444924939569006 7.5593246084924814 -1 0 0 I I #
point $-1 -54.094668416394541 26.444924939569006 7.5593246084924814 #
straight-curve $-1 54.094668416394541 -18.598278170353819 76.260665231847497 0 0 -1 I I #
End-of-ACIS-data 