500 0 8 0           
7 Unknown 11 ACIS 5.0 NT 24 Fri Mar 26 18:36:24 1999 
-1 9.9999999999999995e-007 1e-010 
body $-1 $8 $-1 $9 #
body $-1 $10 $-1 $11 #
body $-1 $12 $-1 $13 #
body $-1 $14 $-1 $15 #
body $-1 $16 $-1 $17 #
body $-1 $18 $-1 $19 #
body $-1 $20 $-1 $21 #
body $-1 $22 $-1 $23 #
lump $-1 $-1 $24 $0 #
transform $-1 1 0 0 0 1 0 0 0 1 42.789391766106142 18.063033685938091 4 1 rotate no_reflect no_shear #
lump $-1 $-1 $25 $1 #
transform $-1 1 0 0 0 1 0 0 0 1 42.789391766106142 18.063033685938091 4 1 rotate no_reflect no_shear #
lump $-1 $-1 $26 $2 #
transform $-1 1 0 0 0 1 0 0 0 1 42.789391766106142 18.063033685938091 4 1 rotate no_reflect no_shear #
lump $-1 $-1 $27 $3 #
transform $-1 1 0 0 0 1 0 0 0 1 42.789391766106142 18.063033685938091 4 1 rotate no_reflect no_shear #
lump $-1 $-1 $28 $4 #
transform $-1 1 0 0 0 1 0 0 0 1 42.789391766106142 18.063033685938091 4 1 rotate no_reflect no_shear #
lump $-1 $-1 $29 $5 #
transform $-1 1 0 0 0 1 0 0 0 1 42.789391766106142 18.063033685938091 4 1 rotate no_reflect no_shear #
lump $-1 $-1 $30 $6 #
transform $-1 1 0 0 0 1 0 0 0 1 42.789391766106142 18.063033685938091 4 1 rotate no_reflect no_shear #
lump $-1 $-1 $31 $7 #
transform $-1 1 0 0 0 1 0 0 0 1 42.789391766106142 18.063033685938091 4 1 rotate no_reflect no_shear #
shell $-1 $-1 $-1 $32 $-1 $8 #
shell $-1 $-1 $-1 $33 $-1 $10 #
shell $-1 $-1 $-1 $34 $-1 $12 #
shell $-1 $-1 $-1 $35 $-1 $14 #
shell $-1 $-1 $-1 $36 $-1 $16 #
shell $-1 $-1 $-1 $37 $-1 $18 #
shell $-1 $-1 $-1 $38 $-1 $20 #
shell $-1 $-1 $-1 $39 $-1 $22 #
face $-1 $40 $41 $24 $-1 $42 reversed single #
face $-1 $43 $44 $25 $-1 $45 forward single #
face $-1 $46 $47 $26 $-1 $48 reversed single #
face $-1 $49 $50 $27 $-1 $51 forward single #
face $-1 $52 $53 $28 $-1 $54 forward single #
face $-1 $55 $56 $29 $-1 $57 reversed single #
face $-1 $58 $59 $30 $-1 $60 forward single #
face $-1 $61 $62 $31 $-1 $63 forward single #
face $-1 $64 $65 $24 $-1 $66 forward single #
loop $-1 $-1 $67 $32 #
plane-surface $-1 0 -18.063033685938091 0 0 1 0 0 0 1 forward_v I I I I #
face $-1 $68 $69 $25 $-1 $70 forward single #
loop $-1 $-1 $71 $33 #
plane-surface $-1 0 -18.063033685938091 0 0 1 0 0 0 1 forward_v I I I I #
face $-1 $72 $73 $26 $-1 $74 reversed single #
loop $-1 $-1 $75 $34 #
plane-surface $-1 49.123440098137159 12.062806768398575 121.85760894709077 0 1 0 0.74314483375859142 0 0.66913059716165679 forward_v I I I I #
face $-1 $76 $77 $27 $-1 $78 forward single #
loop $-1 $79 $80 $35 #
cone-surface $-1 40.961438505375966 13.777157316267008 2.0698913794918328 -0.74314483375859142 0 -0.66913059716165679 0.3345652985808284 0 -0.37157241687929571 1 I I 0 1 0.5 forward I I I I #
face $-1 $81 $82 $28 $-1 $83 forward single #
loop $-1 $84 $85 $36 #
cone-surface $-1 40.961438505375966 16.348683138069664 2.0698913794918328 -0.74314483375859142 0 -0.66913059716165679 0.3345652985808284 0 -0.37157241687929571 1 I I 0 1 0.5 forward I I I I #
face $-1 $86 $87 $29 $-1 $88 reversed single #
loop $-1 $-1 $89 $37 #
plane-surface $-1 -106.38682262741452 12.062806768398575 58.260178085782385 0 1 0 -0.74314483375859142 0 0.66913059716165679 forward_v I I I I #
face $-1 $90 $91 $30 $-1 $92 forward single #
loop $-1 $93 $94 $38 #
cone-surface $-1 -40.961438505375959 13.777157316267008 2.0698913794918399 0.74314483375859142 0 -0.66913059716165679 0.3345652985808284 0 0.37157241687929571 1 I I 0 1 0.5 forward I I I I #
face $-1 $95 $96 $31 $-1 $97 forward single #
loop $-1 $98 $99 $39 #
cone-surface $-1 -40.961438505375959 16.348683138069664 2.0698913794918399 0.74314483375859142 0 -0.66913059716165679 0.3345652985808284 0 0.37157241687929571 1 I I 0 1 0.5 forward I I I I #
face $-1 $100 $101 $24 $-1 $102 reversed single #
loop $-1 $-1 $103 $40 #
plane-surface $-1 0 0 4 0 0 1 1 0 0 forward_v I I I I #
coedge $-1 $104 $105 $106 $107 reversed $41 $-1 #
face $-1 $108 $109 $25 $-1 $110 reversed single #
loop $-1 $-1 $111 $43 #
plane-surface $-1 0 0 4 0 0 1 1 0 0 forward_v I I I I #
coedge $-1 $112 $113 $114 $115 forward $44 $-1 #
face $-1 $116 $117 $26 $-1 $118 reversed single #
loop $-1 $-1 $119 $46 #
plane-surface $-1 -14.473990763171223 15.062920227168338 64.594226417813402 0.74314483375859142 0 0.66913059716165679 0.66913059716165679 0 -0.74314483375859142 forward_v I I I I #
coedge $-1 $120 $121 $122 $123 reversed $47 $-1 #
face $-1 $-1 $124 $27 $-1 $125 forward single #
loop $-1 $126 $127 $49 #
cone-surface $-1 40.299747715943802 13.777157316267008 1.4741023314407471 -0.74314483375859142 0 -0.66913059716165679 0.1672826492904142 0 -0.18578620843964785 1 I I -0.70710678118654746 0.70710678118654746 0.25 forward I I I I #
loop $-1 $-1 $128 $35 #
coedge $-1 $80 $80 $129 $130 reversed $50 $-1 #
face $-1 $-1 $131 $28 $-1 $132 forward single #
loop $-1 $133 $134 $52 #
cone-surface $-1 40.299747715943802 16.348683138069664 1.4741023314407471 -0.74314483375859142 0 -0.66913059716165679 0.1672826492904142 0 -0.18578620843964785 1 I I -0.70710678118654746 0.70710678118654746 0.25 forward I I I I #
loop $-1 $-1 $135 $36 #
coedge $-1 $85 $85 $136 $137 reversed $53 $-1 #
face $-1 $138 $139 $29 $-1 $140 reversed single #
loop $-1 $-1 $141 $55 #
plane-surface $-1 -42.789391766106135 15.062920227168338 0.99679555650502039 -0.74314483375859142 0 0.66913059716165679 0.66913059716165679 0 0.74314483375859142 forward_v I I I I #
coedge $-1 $142 $143 $144 $145 reversed $56 $-1 #
face $-1 $-1 $146 $30 $-1 $147 forward single #
loop $-1 $148 $149 $58 #
cone-surface $-1 -40.299747715943795 13.777157316267008 1.4741023314407542 0.74314483375859142 0 -0.66913059716165679 0.1672826492904142 0 0.18578620843964785 1 I I -0.70710678118654746 0.70710678118654746 0.25 forward I I I I #
loop $-1 $-1 $150 $38 #
coedge $-1 $94 $94 $151 $152 reversed $59 $-1 #
face $-1 $-1 $153 $31 $-1 $154 forward single #
loop $-1 $155 $156 $61 #
cone-surface $-1 -40.299747715943795 16.348683138069664 1.4741023314407542 0.74314483375859142 0 -0.66913059716165679 0.1672826492904142 0 0.18578620843964785 1 I I -0.70710678118654746 0.70710678118654746 0.25 forward I I I I #
loop $-1 $-1 $157 $39 #
coedge $-1 $99 $99 $158 $159 reversed $62 $-1 #
face $-1 $160 $161 $24 $-1 $162 reversed single #
loop $-1 $-1 $163 $64 #
plane-surface $-1 0 0 -4 0 0 1 1 0 0 forward_v I I I I #
coedge $-1 $164 $165 $166 $167 forward $65 $-1 #
coedge $-1 $168 $67 $169 $170 reversed $41 $-1 #
coedge $-1 $67 $168 $171 $172 forward $41 $-1 #
coedge $-1 $173 $163 $67 $107 forward $101 $-1 #
edge $-1 $174 -42.789391766106142 $175 42.789391766106142 $67 $176 forward 7 unknown #
face $-1 $177 $178 $25 $-1 $179 reversed single #
loop $-1 $-1 $180 $68 #
plane-surface $-1 -42.789391766106142 0 0 1 0 0 0 0 -1 forward_v I I I I #
coedge $-1 $181 $182 $113 $183 forward $69 $-1 #
coedge $-1 $184 $71 $185 $186 reversed $44 $-1 #
coedge $-1 $71 $184 $111 $183 reversed $44 $-1 #
coedge $-1 $187 $188 $71 $115 reversed $189 $-1 #
edge $-1 $190 -4 $191 4 $114 $192 forward 7 unknown #
face $-1 $193 $194 $26 $-1 $195 forward single #
loop $-1 $-1 $196 $72 #
plane-surface $-1 0 18.063033685938091 0 0 -1 0 0 0 -1 forward_v I I I I #
coedge $-1 $197 $198 $199 $200 reversed $73 $-1 #
coedge $-1 $121 $75 $201 $202 reversed $47 $-1 #
coedge $-1 $75 $120 $197 $203 reversed $47 $-1 #
coedge $-1 $199 $204 $75 $123 forward $205 $-1 #
edge $-1 $206 56.928804473545384 $207 59.932008917040363 $122 $208 forward 7 unknown #
loop $-1 $-1 $129 $76 #
plane-surface $-1 -14.473990763171223 15.062920227168338 64.594226417813402 0.74314483375859142 0 0.66913059716165679 0.66913059716165679 0 -0.74314483375859142 forward_v I I I I #
loop $-1 $-1 $209 $49 #
coedge $-1 $127 $127 $128 $210 reversed $77 $-1 #
coedge $-1 $128 $128 $127 $210 forward $79 $-1 #
coedge $-1 $129 $129 $80 $130 forward $124 $-1 #
edge $-1 $211 0 $211 6.2831853071796004 $129 $212 forward 7 unknown #
loop $-1 $-1 $136 $81 #
plane-surface $-1 -14.473990763171223 15.062920227168338 64.594226417813402 0.74314483375859142 0 0.66913059716165679 0.66913059716165679 0 -0.74314483375859142 forward_v I I I I #
loop $-1 $-1 $213 $52 #
coedge $-1 $134 $134 $135 $214 reversed $82 $-1 #
coedge $-1 $135 $135 $134 $214 forward $84 $-1 #
coedge $-1 $136 $136 $85 $137 forward $131 $-1 #
edge $-1 $215 0 $215 6.2831853071796004 $136 $216 forward 7 unknown #
face $-1 $217 $218 $29 $-1 $219 reversed single #
loop $-1 $-1 $220 $86 #
plane-surface $-1 0 18.063033685938091 0 0 -1 0 0 0 -1 forward_v I I I I #
coedge $-1 $221 $222 $223 $224 reversed $87 $-1 #
coedge $-1 $143 $89 $225 $226 reversed $56 $-1 #
coedge $-1 $89 $142 $221 $227 reversed $56 $-1 #
coedge $-1 $223 $228 $89 $145 forward $229 $-1 #
edge $-1 $230 10.404019547601116 $231 13.10811690707645 $144 $232 forward 7 unknown #
loop $-1 $-1 $151 $90 #
plane-surface $-1 -42.789391766106135 15.062920227168338 0.99679555650502039 -0.74314483375859142 0 0.66913059716165679 0.66913059716165679 0 0.74314483375859142 forward_v I I I I #
loop $-1 $-1 $233 $58 #
coedge $-1 $149 $149 $150 $234 reversed $91 $-1 #
coedge $-1 $150 $150 $149 $234 forward $93 $-1 #
coedge $-1 $151 $151 $94 $152 forward $146 $-1 #
edge $-1 $235 0 $235 6.2831853071796004 $151 $236 forward 7 unknown #
loop $-1 $-1 $158 $95 #
plane-surface $-1 -42.789391766106135 15.062920227168338 0.99679555650502039 -0.74314483375859142 0 0.66913059716165679 0.66913059716165679 0 0.74314483375859142 forward_v I I I I #
loop $-1 $-1 $237 $61 #
coedge $-1 $156 $156 $157 $238 reversed $96 $-1 #
coedge $-1 $157 $157 $156 $238 forward $98 $-1 #
coedge $-1 $158 $158 $99 $159 forward $153 $-1 #
edge $-1 $239 0 $239 6.2831853071796004 $158 $240 forward 7 unknown #
face $-1 $241 $242 $24 $-1 $243 reversed single #
loop $-1 $-1 $244 $100 #
plane-surface $-1 -42.789391766106142 0 0 1 0 0 0 0 -1 forward_v I I I I #
coedge $-1 $106 $245 $246 $247 forward $101 $-1 #
coedge $-1 $248 $103 $249 $250 forward $65 $-1 #
coedge $-1 $103 $248 $168 $251 forward $65 $-1 #
coedge $-1 $169 $252 $103 $167 reversed $253 $-1 #
edge $-1 $254 -18.063033685938091 $255 18.063033685938091 $166 $256 forward 7 unknown #
coedge $-1 $105 $104 $165 $251 reversed $41 $-1 #
coedge $-1 $246 $166 $104 $170 forward $253 $-1 #
edge $-1 $254 -4 $174 4 $169 $257 forward 7 unknown #
coedge $-1 $258 $259 $105 $172 reversed $161 $-1 #
edge $-1 $260 -4 $175 4 $171 $261 forward 7 unknown #
coedge $-1 $245 $106 $259 $262 forward $101 $-1 #
vertex $-1 $170 $263 #
vertex $-1 $262 $264 #
straight-curve $-1 0 -18.063033685938091 -4 -1 0 0 I I #
face $-1 $265 $189 $25 $-1 $266 reversed single #
loop $-1 $-1 $267 $108 #
plane-surface $-1 -41.289391766106142 -21.796756028538876 0 0 1 0 0 0 1 forward_v I I I I #
coedge $-1 $268 $269 $184 $270 forward $109 $-1 #
coedge $-1 $271 $111 $269 $272 forward $69 $-1 #
coedge $-1 $111 $271 $187 $273 forward $69 $-1 #
edge $-1 $190 39.789391766106142 $274 42.789391766106142 $111 $275 forward 7 unknown #
coedge $-1 $113 $112 $180 $270 reversed $44 $-1 #
coedge $-1 $276 $277 $112 $186 forward $278 $-1 #
edge $-1 $279 -42.789391766106142 $191 -39.789391766106142 $185 $280 forward 7 unknown #
coedge $-1 $281 $114 $182 $273 reversed $189 $-1 #
coedge $-1 $114 $281 $276 $282 reversed $189 $-1 #
loop $-1 $-1 $281 $177 #
vertex $-1 $183 $283 #
vertex $-1 $282 $284 #
straight-curve $-1 -39.789391766106142 -18.063033685938091 0 0 0 -1 I I #
face $-1 $-1 $205 $26 $-1 $285 reversed single #
loop $-1 $-1 $201 $116 #
plane-surface $-1 0 0 4 0 0 1 1 0 0 forward_v I I I I #
coedge $-1 $286 $287 $198 $288 forward $117 $-1 #
coedge $-1 $289 $119 $121 $203 forward $73 $-1 #
coedge $-1 $119 $289 $196 $288 reversed $73 $-1 #
coedge $-1 $290 $122 $119 $200 forward $205 $-1 #
edge $-1 $207 4.5313466548144063 $291 10.531573572353922 $199 $292 forward 7 unknown #
coedge $-1 $293 $294 $120 $202 forward $194 $-1 #
edge $-1 $295 15.523574357562236 $206 18.227671717037563 $201 $296 forward 7 unknown #
edge $-1 $207 -85.57878353221227 $295 -81.537573384379158 $121 $297 forward 7 unknown #
coedge $-1 $122 $290 $293 $298 reversed $205 $-1 #
loop $-1 $-1 $199 $193 #
vertex $-1 $298 $299 #
vertex $-1 $123 $300 #
straight-curve $-1 42.789391766106142 12.062806768398575 60.928804473545384 0 0 -1 I I #
coedge $-1 $209 $209 $-1 $301 reversed $126 $-1 #
edge $-1 $302 0 $302 6.2831853071796004 $127 $303 forward 7 unknown #
vertex $-1 $130 $304 #
ellipse-curve $-1 41.437343086368486 13.777157316267008 2.4983977782525062 0.74314483375859142 0 0.66913059716165679 0.3345652985808284 0 -0.37157241687929571 1 I I #
coedge $-1 $213 $213 $-1 $305 reversed $133 $-1 #
edge $-1 $306 0 $306 6.2831853071796004 $134 $307 forward 7 unknown #
vertex $-1 $137 $308 #
ellipse-curve $-1 41.437343086368486 16.348683138069664 2.4983977782525062 0.74314483375859142 0 0.66913059716165679 0.3345652985808284 0 -0.37157241687929571 1 I I #
face $-1 $-1 $229 $29 $-1 $309 forward single #
loop $-1 $-1 $310 $138 #
plane-surface $-1 -42.789391766106142 0 0 1 0 0 0 0 -1 forward_v I I I I #
coedge $-1 $311 $312 $222 $313 forward $139 $-1 #
coedge $-1 $314 $141 $143 $227 forward $87 $-1 #
coedge $-1 $141 $314 $220 $313 reversed $87 $-1 #
coedge $-1 $315 $144 $141 $224 forward $229 $-1 #
edge $-1 $231 4.5313466548144063 $316 10.531573572353933 $223 $317 forward 7 unknown #
coedge $-1 $318 $310 $142 $226 forward $218 $-1 #
edge $-1 $319 -28.133293486386179 $230 -25.130089042891193 $225 $320 forward 7 unknown #
edge $-1 $231 -4.0412101478331248 $319 1.0612360036877491e-014 $143 $321 forward 7 unknown #
coedge $-1 $144 $315 $318 $322 forward $229 $-1 #
loop $-1 $-1 $223 $217 #
vertex $-1 $226 $323 #
vertex $-1 $145 $324 #
straight-curve $-1 -53.193411313707259 12.062806768398575 4 1 0 0 I I #
coedge $-1 $233 $233 $-1 $325 reversed $148 $-1 #
edge $-1 $326 0 $326 6.2831853071796004 $149 $327 forward 7 unknown #
vertex $-1 $152 $328 #
ellipse-curve $-1 -41.437343086368472 13.777157316267008 2.4983977782525084 -0.74314483375859142 0 0.66913059716165679 0.3345652985808284 0 0.37157241687929571 1 I I #
coedge $-1 $237 $237 $-1 $329 reversed $155 $-1 #
edge $-1 $330 0 $330 6.2831853071796004 $156 $331 forward 7 unknown #
vertex $-1 $159 $332 #
ellipse-curve $-1 -41.437343086368472 16.348683138069664 2.4983977782525084 -0.74314483375859142 0 0.66913059716165679 0.3345652985808284 0 0.37157241687929571 1 I I #
face $-1 $-1 $253 $24 $-1 $333 reversed single #
loop $-1 $-1 $334 $160 #
plane-surface $-1 0 18.063033685938091 0 0 -1 0 0 0 -1 forward_v I I I I #
coedge $-1 $259 $258 $335 $336 forward $161 $-1 #
coedge $-1 $163 $173 $337 $338 forward $101 $-1 #
coedge $-1 $252 $169 $163 $247 reversed $253 $-1 #
edge $-1 $339 -18.063033685938091 $174 18.063033685938091 $246 $340 forward 7 unknown #
coedge $-1 $165 $164 $258 $341 forward $65 $-1 #
coedge $-1 $334 $335 $164 $250 reversed $242 $-1 #
edge $-1 $255 -42.789391766106142 $342 42.789391766106142 $249 $343 forward 7 unknown #
edge $-1 $260 -42.789391766106142 $254 42.789391766106142 $168 $344 forward 7 unknown #
coedge $-1 $166 $246 $334 $345 reversed $253 $-1 #
loop $-1 $-1 $169 $241 #
vertex $-1 $167 $346 #
vertex $-1 $167 $347 #
straight-curve $-1 42.789391766106142 0 4 0 1 0 I I #
straight-curve $-1 42.789391766106142 -18.063033685938091 0 0 0 -1 I I #
coedge $-1 $244 $171 $248 $341 reversed $161 $-1 #
coedge $-1 $171 $244 $173 $262 reversed $161 $-1 #
vertex $-1 $341 $348 #
straight-curve $-1 -42.789391766106142 -18.063033685938091 0 0 0 -1 I I #
edge $-1 $175 -18.063033685938091 $349 18.063033685938091 $259 $350 forward 7 unknown #
point $-1 42.789391766106142 -18.063033685938091 -4 #
point $-1 -42.789391766106142 -18.063033685938091 -4 #
face $-1 $-1 $278 $25 $-1 $351 reversed single #
plane-surface $-1 -39.789391766106142 -19.929894857238484 0 -1 0 0 0 0 1 forward_v I I I I #
coedge $-1 $352 $353 $354 $355 forward $178 $-1 #
coedge $-1 $354 $180 $277 $356 reversed $109 $-1 #
coedge $-1 $180 $354 $181 $272 reversed $109 $-1 #
edge $-1 $274 -4 $279 4 $180 $357 forward 7 unknown #
coedge $-1 $182 $181 $353 $358 forward $69 $-1 #
edge $-1 $274 18.063033685938091 $359 21.796756028538876 $269 $360 forward 7 unknown #
edge $-1 $361 -1.8668611713003926 $190 1.8668611713003926 $187 $362 forward 7 unknown #
vertex $-1 $272 $363 #
straight-curve $-1 0 -18.063033685938091 4 -1 0 0 I I #
coedge $-1 $364 $185 $188 $282 forward $278 $-1 #
coedge $-1 $185 $364 $268 $356 forward $278 $-1 #
loop $-1 $-1 $185 $265 #
vertex $-1 $270 $365 #
straight-curve $-1 0 -18.063033685938091 -4 1 0 0 I I #
coedge $-1 $188 $187 $366 $367 forward $189 $-1 #
edge $-1 $191 -1.8668611713003926 $368 1.8668611713003926 $188 $369 forward 7 unknown #
point $-1 -39.789391766106142 -18.063033685938091 4 #
point $-1 -39.789391766106142 -18.063033685938091 -4 #
plane-surface $-1 42.789391766106142 0 0 -1 0 0 0 0 1 forward_v I I I I #
coedge $-1 $287 $196 $370 $371 reversed $117 $-1 #
coedge $-1 $196 $286 $290 $372 forward $117 $-1 #
edge $-1 $291 -56.734855664360367 $373 -52.693645516527241 $196 $374 forward 7 unknown #
coedge $-1 $198 $197 $294 $375 reversed $73 $-1 #
coedge $-1 $204 $199 $287 $372 reversed $205 $-1 #
vertex $-1 $288 $376 #
straight-curve $-1 42.789391766106149 7.5314601135841688 0.99679555650502394 0 1 0 I I #
coedge $-1 $370 $201 $204 $298 forward $194 $-1 #
coedge $-1 $201 $370 $289 $375 forward $194 $-1 #
vertex $-1 $202 $377 #
straight-curve $-1 24.56172004906858 12.062806768398575 4 1 0 0 I I #
straight-curve $-1 -14.473990763171223 12.062806768398575 64.594226417813402 -0.66913059716165679 0 0.74314483375859142 I I #
edge $-1 $206 12.062806768398575 $378 18.063033685938091 $204 $379 forward 7 unknown #
point $-1 42.789391766106142 12.062806768398575 4 #
point $-1 42.789391766106142 12.062806768398575 0.99679555650502039 #
edge $-1 $380 1 $380 0 $209 $-1 forward 7 unknown #
vertex $-1 $210 $381 #
ellipse-curve $-1 40.485533924383446 13.777157316267008 1.6413849807311613 0.74314483375859142 0 0.66913059716165679 0.3345652985808284 0 -0.37157241687929571 1 I I #
point $-1 41.771908384949313 13.777157316267008 2.1268253613732084 #
edge $-1 $382 1 $382 0 $213 $-1 forward 7 unknown #
vertex $-1 $214 $383 #
ellipse-curve $-1 40.485533924383446 16.348683138069664 1.6413849807311613 0.74314483375859142 0 0.66913059716165679 0.3345652985808284 0 -0.37157241687929571 1 I I #
point $-1 41.771908384949313 16.348683138069664 2.1268253613732084 #
plane-surface $-1 0 0 4 0 0 1 1 0 0 forward_v I I I I #
coedge $-1 $225 $384 $314 $385 forward $218 $-1 #
coedge $-1 $312 $220 $384 $386 reversed $139 $-1 #
coedge $-1 $220 $311 $315 $387 reversed $139 $-1 #
edge $-1 $316 9.9042537504210983 $388 13.945463898254234 $220 $389 forward 7 unknown #
coedge $-1 $222 $221 $310 $385 reversed $87 $-1 #
coedge $-1 $228 $223 $312 $387 forward $229 $-1 #
vertex $-1 $387 $390 #
straight-curve $-1 -40.085294406630808 7.5314601135841688 4 0 1 0 I I #
coedge $-1 $384 $225 $228 $322 reversed $218 $-1 #
vertex $-1 $226 $391 #
straight-curve $-1 -42.789391766106142 12.062806768398575 29.130089042891193 0 0 1 I I #
straight-curve $-1 -42.789391766106135 12.062806768398575 0.99679555650502039 -0.66913059716165679 0 -0.74314483375859142 I I #
edge $-1 $392 -18.063033685938091 $230 -12.062806768398575 $318 $393 forward 7 unknown #
point $-1 -42.789391766106142 12.062806768398575 4 #
point $-1 -40.085294406630808 12.062806768398575 4 #
edge $-1 $394 1 $394 0 $233 $-1 forward 7 unknown #
vertex $-1 $234 $395 #
ellipse-curve $-1 -40.485533924383439 13.777157316267008 1.6413849807311685 -0.74314483375859142 0 0.66913059716165679 0.3345652985808284 0 0.37157241687929571 1 I I #
point $-1 -41.102777787787652 13.777157316267008 2.8699701951318071 #
edge $-1 $396 1 $396 0 $237 $-1 forward 7 unknown #
vertex $-1 $238 $397 #
ellipse-curve $-1 -40.485533924383439 16.348683138069664 1.6413849807311685 -0.74314483375859142 0 0.66913059716165679 0.3345652985808284 0 0.37157241687929571 1 I I #
point $-1 -41.102777787787652 16.348683138069664 2.8699701951318071 #
plane-surface $-1 42.789391766106142 0 0 -1 0 0 0 0 1 forward_v I I I I #
coedge $-1 $337 $249 $252 $345 forward $242 $-1 #
coedge $-1 $249 $337 $244 $336 reversed $242 $-1 #
edge $-1 $342 -4 $349 4 $335 $398 forward 7 unknown #
coedge $-1 $335 $334 $245 $338 reversed $242 $-1 #
edge $-1 $349 -42.789391766106142 $339 42.789391766106142 $337 $399 forward 7 unknown #
vertex $-1 $247 $400 #
straight-curve $-1 42.789391766106142 0 -4 0 -1 0 I I #
edge $-1 $342 -18.063033685938091 $260 18.063033685938091 $258 $401 forward 7 unknown #
vertex $-1 $250 $402 #
straight-curve $-1 0 18.063033685938091 4 -1 0 0 I I #
straight-curve $-1 0 -18.063033685938091 4 1 0 0 I I #
edge $-1 $255 -4 $339 4 $252 $403 forward 7 unknown #
point $-1 42.789391766106142 -18.063033685938091 4 #
point $-1 42.789391766106142 18.063033685938091 4 #
point $-1 -42.789391766106142 -18.063033685938091 4 #
vertex $-1 $338 $404 #
straight-curve $-1 -42.789391766106142 0 -4 0 1 0 I I #
plane-surface $-1 0 0 -4 0 0 1 1 0 0 forward_v I I I I #
coedge $-1 $366 $267 $364 $405 reversed $178 $-1 #
coedge $-1 $267 $366 $271 $358 reversed $178 $-1 #
coedge $-1 $269 $268 $267 $355 reversed $109 $-1 #
edge $-1 $359 -4 $406 4 $354 $407 forward 7 unknown #
edge $-1 $406 -21.796756028538876 $279 -18.063033685938091 $268 $408 forward 7 unknown #
straight-curve $-1 -42.789391766106142 -18.063033685938091 0 0 0 -1 I I #
edge $-1 $359 -1.5 $361 1.5 $353 $409 forward 7 unknown #
vertex $-1 $272 $410 #
straight-curve $-1 -42.789391766106142 0 4 0 -1 0 I I #
vertex $-1 $273 $411 #
straight-curve $-1 -39.789391766106142 -19.929894857238484 4 0 1 0 I I #
point $-1 -42.789391766106142 -18.063033685938091 4 #
coedge $-1 $277 $276 $352 $405 forward $278 $-1 #
point $-1 -42.789391766106142 -18.063033685938091 -4 #
coedge $-1 $353 $352 $281 $367 reversed $178 $-1 #
edge $-1 $361 -4 $368 4 $281 $412 forward 7 unknown #
vertex $-1 $367 $413 #
straight-curve $-1 -39.789391766106142 -19.929894857238484 -4 0 -1 0 I I #
coedge $-1 $294 $293 $286 $371 forward $194 $-1 #
edge $-1 $378 -42.789391766106142 $373 -40.085294406630815 $286 $414 forward 7 unknown #
edge $-1 $378 -4 $291 -0.99679555650502805 $290 $415 forward 7 unknown #
vertex $-1 $288 $416 #
straight-curve $-1 4.8263639155322817 18.063033685938091 43.159010437513793 -0.66913059716165679 0 0.74314483375859142 I I #
edge $-1 $373 -10.531573572353933 $295 -4.5313466548144063 $294 $417 forward 7 unknown #
point $-1 42.789391766106142 18.063033685938091 0.99679555650502805 #
point $-1 40.085294406630815 12.062806768398575 4.0000000000000071 #
vertex $-1 $298 $418 #
straight-curve $-1 42.789391766106142 0 4 0 1 0 I I #
vertex $-1 $301 $419 #
point $-1 40.820099222964281 13.777157316267008 1.2698125638518656 #
vertex $-1 $305 $420 #
point $-1 40.820099222964281 16.348683138069664 1.2698125638518656 #
coedge $-1 $310 $318 $311 $386 forward $218 $-1 #
edge $-1 $388 -10.531573572353933 $319 -4.5313466548144063 $310 $421 forward 7 unknown #
edge $-1 $392 -4 $388 -0.9967955565050125 $311 $422 forward 7 unknown #
edge $-1 $316 40.085294406630808 $392 42.789391766106142 $312 $423 forward 7 unknown #
vertex $-1 $385 $424 #
straight-curve $-1 -33.458055180170959 18.063033685938091 11.360295006859594 -0.66913059716165679 0 -0.74314483375859142 I I #
point $-1 -40.085294406630808 18.063033685938102 4 #
point $-1 -42.789391766106142 12.062806768398575 0.9967955565050125 #
vertex $-1 $387 $425 #
straight-curve $-1 -42.789391766106142 0 4 0 -1 0 I I #
vertex $-1 $325 $426 #
point $-1 -40.150968625802612 13.777157316267008 2.0129573976104642 #
vertex $-1 $329 $427 #
point $-1 -40.150968625802612 16.348683138069664 2.0129573976104642 #
straight-curve $-1 -42.789391766106142 18.063033685938091 0 0 0 -1 I I #
straight-curve $-1 0 18.063033685938091 -4 1 0 0 I I #
point $-1 42.789391766106142 18.063033685938091 -4 #
straight-curve $-1 -42.789391766106142 0 4 0 -1 0 I I #
point $-1 -42.789391766106142 18.063033685938091 4 #
straight-curve $-1 42.789391766106142 18.063033685938091 0 0 0 -1 I I #
point $-1 -42.789391766106142 18.063033685938091 -4 #
edge $-1 $368 -1.5 $406 1.5 $352 $428 forward 7 unknown #
vertex $-1 $356 $429 #
straight-curve $-1 -42.789391766106142 -21.796756028538876 0 0 0 -1 I I #
straight-curve $-1 -42.789391766106142 0 -4 0 1 0 I I #
straight-curve $-1 -41.289391766106142 -21.796756028538876 4 1 0 0 I I #
point $-1 -42.789391766106142 -21.796756028538876 4 #
point $-1 -39.789391766106142 -21.796756028538876 4 #
straight-curve $-1 -39.789391766106142 -21.796756028538876 0 0 0 -1 I I #
point $-1 -39.789391766106142 -21.796756028538876 -4 #
straight-curve $-1 0 18.063033685938091 4 -1 0 0 I I #
straight-curve $-1 42.789391766106142 18.063033685938091 0 0 0 -1 I I #
point $-1 40.085294406630815 18.063033685938102 4.0000000000000071 #
straight-curve $-1 40.085294406630823 7.5314601135841688 4 0 -1 0 I I #
point $-1 42.789391766106142 18.063033685938091 4 #
point $-1 40.113961507504158 13.777157316267008 1.3068196821503328 #
point $-1 40.113961507504158 16.348683138069664 1.3068196821503328 #
straight-curve $-1 -42.789391766106142 7.5314601135841688 0.99679555650501117 0 -1 0 I I #
straight-curve $-1 -42.789391766106142 18.063033685938091 0 0 0 -1 I I #
straight-curve $-1 0 18.063033685938091 4 -1 0 0 I I #
point $-1 -42.789391766106142 18.063033685938102 0.9967955565050125 #
point $-1 -42.789391766106142 18.063033685938091 4 #
point $-1 -40.11396150750415 13.777157316267008 1.3068196821503399 #
point $-1 -40.11396150750415 16.348683138069664 1.3068196821503399 #
straight-curve $-1 -41.289391766106142 -21.796756028538876 -4 -1 0 0 I I #
point $-1 -42.789391766106142 -21.796756028538876 -4 #
End-of-ACIS-data 