500 0 11 0           
7 Unknown 11 ACIS 5.0 NT 24 Thu Mar 25 16:28:11 1999 
-1 9.9999999999999995e-007 1e-010 
body $-1 $11 $-1 $12 #
body $-1 $13 $-1 $14 #
body $-1 $15 $-1 $16 #
body $-1 $17 $-1 $18 #
body $-1 $19 $-1 $20 #
body $-1 $21 $-1 $22 #
body $-1 $23 $-1 $24 #
body $-1 $25 $-1 $26 #
body $-1 $27 $-1 $28 #
body $-1 $29 $-1 $30 #
body $-1 $31 $-1 $32 #
lump $-1 $-1 $33 $0 #
transform $-1 1 0 0 0 1 0 0 0 1 76.132694479201632 32.158727104012634 6.7865346858588511 1 rotate no_reflect no_shear #
lump $-1 $-1 $34 $1 #
transform $-1 1 0 0 0 1 0 0 0 1 76.132694479201632 32.158727104012634 6.7865346858588511 1 rotate no_reflect no_shear #
lump $-1 $-1 $35 $2 #
transform $-1 1 0 0 0 1 0 0 0 1 76.132694479201632 32.158727104012634 6.7865346858588511 1 rotate no_reflect no_shear #
lump $-1 $-1 $36 $3 #
transform $-1 1 0 0 0 1 0 0 0 1 76.132694479201632 32.158727104012634 6.7865346858588511 1 rotate no_reflect no_shear #
lump $-1 $-1 $37 $4 #
transform $-1 1 0 0 0 1 0 0 0 1 76.132694479201632 32.158727104012634 6.7865346858588511 1 rotate no_reflect no_shear #
lump $-1 $-1 $38 $5 #
transform $-1 1 0 0 0 1 0 0 0 1 76.132694479201632 32.158727104012634 6.7865346858588511 1 rotate no_reflect no_shear #
lump $-1 $-1 $39 $6 #
transform $-1 1 0 0 0 1 0 0 0 1 76.132694479201632 32.158727104012634 6.7865346858588511 1 rotate no_reflect no_shear #
lump $-1 $-1 $40 $7 #
transform $-1 1 0 0 0 1 0 0 0 1 76.132694479201632 32.158727104012634 6.7865346858588511 1 rotate no_reflect no_shear #
lump $-1 $-1 $41 $8 #
transform $-1 1 0 0 0 1 0 0 0 1 76.132694479201632 32.158727104012634 6.7865346858588511 1 rotate no_reflect no_shear #
lump $-1 $-1 $42 $9 #
transform $-1 1 0 0 0 1 0 0 0 1 76.132694479201632 32.158727104012634 6.7865346858588511 1 rotate no_reflect no_shear #
lump $-1 $-1 $43 $10 #
transform $-1 1 0 0 0 1 0 0 0 1 76.132694479201632 32.158727104012634 6.7865346858588511 1 rotate no_reflect no_shear #
shell $-1 $-1 $-1 $44 $-1 $11 #
shell $-1 $-1 $-1 $45 $-1 $13 #
shell $-1 $-1 $-1 $46 $-1 $15 #
shell $-1 $-1 $-1 $47 $-1 $17 #
shell $-1 $-1 $-1 $48 $-1 $19 #
shell $-1 $-1 $-1 $49 $-1 $21 #
shell $-1 $-1 $-1 $50 $-1 $23 #
shell $-1 $-1 $-1 $51 $-1 $25 #
shell $-1 $-1 $-1 $52 $-1 $27 #
shell $-1 $-1 $-1 $53 $-1 $29 #
shell $-1 $-1 $-1 $54 $-1 $31 #
face $-1 $55 $56 $33 $-1 $57 forward single #
face $-1 $58 $59 $34 $-1 $60 reversed single #
face $-1 $61 $62 $35 $-1 $63 reversed single #
face $-1 $64 $65 $36 $-1 $66 forward single #
face $-1 $67 $68 $37 $-1 $69 forward single #
face $-1 $70 $71 $38 $-1 $72 reversed single #
face $-1 $73 $74 $39 $-1 $75 forward single #
face $-1 $76 $77 $40 $-1 $78 forward single #
face $-1 $79 $80 $41 $-1 $81 reversed single #
face $-1 $82 $83 $42 $-1 $84 forward single #
face $-1 $85 $86 $43 $-1 $87 forward single #
face $-1 $88 $89 $33 $-1 $90 reversed single #
loop $-1 $-1 $91 $44 #
plane-surface $-1 0 0 6.7865346858588511 0 0 1 1 0 0 forward_v I I I I #
face $-1 $92 $93 $34 $-1 $94 reversed single #
loop $-1 $-1 $95 $45 #
plane-surface $-1 -71.875302254032746 0 3.7865346858588511 0 0 1 1 0 0 forward_v I I I I #
face $-1 $96 $97 $35 $-1 $98 reversed single #
loop $-1 $-1 $99 $46 #
plane-surface $-1 13.987089324699703 -165.33303816330698 75.845017254396168 -1 0 0 0 -0.87461971476443456 0.48480960649040278 forward_v I I I I #
face $-1 $100 $101 $36 $-1 $102 forward single #
loop $-1 $103 $104 $47 #
cone-surface $-1 3.0861997558781269 -30.198263999195436 4.0506777621057255 0 0.87461971476443456 -0.48480960649040278 1 0 0 1 I I 0 1 1 forward I I I I #
face $-1 $105 $106 $37 $-1 $107 forward single #
loop $-1 $108 $109 $48 #
cone-surface $-1 9.6267334971710739 -30.198263999195436 4.0506777621057255 0 0.87461971476443456 -0.48480960649040278 1 0 0 1 I I 0 1 1 forward I I I I #
face $-1 $110 $111 $38 $-1 $112 reversed single #
loop $-1 $-1 $113 $49 #
plane-surface $-1 -23.095337781523614 69.624165173431464 162.35154325203916 1 0 0 0 -0.5877852598018023 -0.80901698891910034 forward_v I I I I #
face $-1 $114 $115 $39 $-1 $116 forward single #
loop $-1 $117 $118 $50 #
cone-surface $-1 -16.782178791463515 27.824375700748348 3.2470033437899031 0 -0.5877852598018023 -0.80901698891910034 1 0 0 1 I I 0 1 1 forward I I I I #
face $-1 $119 $120 $40 $-1 $121 forward single #
loop $-1 $122 $123 $51 #
cone-surface $-1 -7.312440306373361 27.824375700748348 3.2470033437899031 0 -0.5877852598018023 -0.80901698891910034 1 0 0 1 I I 0 1 1 forward I I I I #
face $-1 $124 $125 $41 $-1 $126 reversed single #
loop $-1 $-1 $127 $52 #
plane-surface $-1 48.779964472509121 69.624165173431464 162.35154325203916 1 0 0 0 -0.5877852598018023 -0.80901698891910034 forward_v I I I I #
face $-1 $128 $129 $42 $-1 $130 forward single #
loop $-1 $131 $132 $53 #
cone-surface $-1 55.093123462569224 27.824375700748348 3.2470033437899031 0 -0.5877852598018023 -0.80901698891910034 1 0 0 1 I I 0 1 1 forward I I I I #
face $-1 $133 $134 $43 $-1 $135 forward single #
loop $-1 $136 $137 $54 #
cone-surface $-1 64.562861947659371 27.824375700748348 3.2470033437899031 0 -0.5877852598018023 -0.80901698891910034 1 0 0 1 I I 0 1 1 forward I I I I #
face $-1 $138 $139 $33 $-1 $140 reversed single #
loop $-1 $-1 $141 $55 #
plane-surface $-1 0 0 -6.7865346858588511 0 0 1 1 0 0 forward_v I I I I #
coedge $-1 $142 $143 $144 $145 forward $56 $-1 #
face $-1 $146 $147 $34 $-1 $148 reversed single #
loop $-1 $-1 $149 $58 #
plane-surface $-1 -67.617910028863861 0 5.2865346858588511 -1 0 0 0 0 1 forward_v I I I I #
coedge $-1 $150 $151 $152 $153 forward $59 $-1 #
face $-1 $154 $155 $35 $-1 $156 reversed single #
loop $-1 $-1 $157 $61 #
plane-surface $-1 6.3564666265245933 -32.158727104012627 2.02529395136456 0 -0.87461971476443456 0.48480960649040278 1 0 0 forward_v I I I I #
coedge $-1 $158 $159 $160 $161 reversed $62 $-1 #
face $-1 $-1 $162 $36 $-1 $163 forward single #
loop $-1 $164 $165 $64 #
cone-surface $-1 3.0861997558781269 -29.120090405687339 3.4530364023545479 0 0.87461971476443456 -0.48480960649040278 0.5 0 0 1 I I -0.70710678118654746 0.70710678118654746 0.5 forward I I I I #
loop $-1 $-1 $166 $47 #
coedge $-1 $104 $104 $167 $168 reversed $65 $-1 #
face $-1 $-1 $169 $37 $-1 $170 forward single #
loop $-1 $171 $172 $67 #
cone-surface $-1 9.6267334971710739 -29.120090405687339 3.4530364023545479 0 0.87461971476443456 -0.48480960649040278 0.5 0 0 1 I I -0.70710678118654746 0.70710678118654746 0.5 forward I I I I #
loop $-1 $-1 $173 $48 #
coedge $-1 $109 $109 $174 $175 reversed $68 $-1 #
face $-1 $176 $177 $38 $-1 $178 reversed single #
loop $-1 $-1 $179 $70 #
plane-surface $-1 -12.047309548918435 -19.875186034306083 39.166256760316131 0 0.5877852598018023 0.80901698891910034 1 0 0 forward_v I I I I #
coedge $-1 $180 $181 $182 $183 reversed $71 $-1 #
face $-1 $-1 $184 $39 $-1 $185 forward single #
loop $-1 $186 $187 $73 #
cone-surface $-1 -16.782178791463515 26.929656645120296 2.0155282357601036 0 -0.5877852598018023 -0.80901698891910034 0.5 0 0 1 I I -0.70710678118654746 0.70710678118654746 0.5 forward I I I I #
loop $-1 $-1 $188 $50 #
coedge $-1 $118 $118 $189 $190 reversed $74 $-1 #
face $-1 $-1 $191 $40 $-1 $192 forward single #
loop $-1 $193 $194 $76 #
cone-surface $-1 -7.312440306373361 26.929656645120296 2.0155282357601036 0 -0.5877852598018023 -0.80901698891910034 0.5 0 0 1 I I -0.70710678118654746 0.70710678118654746 0.5 forward I I I I #
loop $-1 $-1 $195 $51 #
coedge $-1 $123 $123 $196 $197 reversed $77 $-1 #
face $-1 $198 $199 $41 $-1 $200 reversed single #
loop $-1 $-1 $201 $79 #
plane-surface $-1 59.827992705114298 -19.875186034306083 39.166256760316131 0 0.5877852598018023 0.80901698891910034 1 0 0 forward_v I I I I #
coedge $-1 $202 $203 $204 $205 reversed $80 $-1 #
face $-1 $-1 $206 $42 $-1 $207 forward single #
loop $-1 $208 $209 $82 #
cone-surface $-1 55.093123462569224 26.929656645120296 2.0155282357601036 0 -0.5877852598018023 -0.80901698891910034 0.5 0 0 1 I I -0.70710678118654746 0.70710678118654746 0.5 forward I I I I #
loop $-1 $-1 $210 $53 #
coedge $-1 $132 $132 $211 $212 reversed $83 $-1 #
face $-1 $-1 $213 $43 $-1 $214 forward single #
loop $-1 $215 $216 $85 #
cone-surface $-1 64.562861947659371 26.929656645120296 2.0155282357601036 0 -0.5877852598018023 -0.80901698891910034 0.5 0 0 1 I I -0.70710678118654746 0.70710678118654746 0.5 forward I I I I #
loop $-1 $-1 $217 $54 #
coedge $-1 $137 $137 $218 $219 reversed $86 $-1 #
face $-1 $220 $221 $33 $-1 $222 reversed single #
loop $-1 $-1 $223 $88 #
plane-surface $-1 0 -32.158727104012634 0 0 1 0 0 0 1 forward_v I I I I #
coedge $-1 $224 $225 $226 $227 forward $89 $-1 #
coedge $-1 $228 $91 $229 $230 forward $56 $-1 #
coedge $-1 $91 $228 $231 $232 forward $56 $-1 #
coedge $-1 $233 $234 $91 $145 reversed $235 $-1 #
edge $-1 $236 -32.158727104012634 $237 32.158727104012634 $144 $238 forward 7 unknown #
face $-1 $239 $240 $34 $-1 $241 reversed single #
loop $-1 $-1 $242 $92 #
plane-surface $-1 0 32.158727104012634 0 0 -1 0 0 0 -1 forward_v I I I I #
coedge $-1 $152 $243 $244 $245 reversed $93 $-1 #
coedge $-1 $246 $95 $247 $248 reversed $59 $-1 #
coedge $-1 $95 $246 $249 $250 reversed $59 $-1 #
coedge $-1 $251 $149 $95 $153 reversed $93 $-1 #
edge $-1 $252 -32.158727104012634 $253 32.158727104012634 $152 $254 forward 7 unknown #
face $-1 $255 $256 $35 $-1 $257 reversed single #
loop $-1 $-1 $258 $96 #
plane-surface $-1 -1.2741560716505163 -165.33303816330698 75.845017254396168 1 0 0 0 0.87461971476443456 -0.48480960649040278 forward_v I I I I #
coedge $-1 $259 $260 $261 $262 reversed $97 $-1 #
coedge $-1 $159 $99 $263 $264 reversed $62 $-1 #
coedge $-1 $99 $158 $259 $265 reversed $62 $-1 #
coedge $-1 $261 $266 $99 $161 forward $267 $-1 #
edge $-1 $268 50.507791977640856 $269 53.146990715023492 $160 $270 forward 7 unknown #
loop $-1 $-1 $167 $100 #
plane-surface $-1 6.3564666265245933 -32.158727104012627 2.02529395136456 0 -0.87461971476443456 0.48480960649040278 1 0 0 forward_v I I I I #
loop $-1 $-1 $271 $64 #
coedge $-1 $165 $165 $166 $272 reversed $101 $-1 #
coedge $-1 $166 $166 $165 $272 forward $103 $-1 #
coedge $-1 $167 $167 $104 $168 forward $162 $-1 #
edge $-1 $273 -9.4557136449429248e-016 $273 6.2831853071795996 $167 $274 forward 7 unknown #
loop $-1 $-1 $174 $105 #
plane-surface $-1 6.3564666265245933 -32.158727104012627 2.02529395136456 0 -0.87461971476443456 0.48480960649040278 1 0 0 forward_v I I I I #
loop $-1 $-1 $275 $67 #
coedge $-1 $172 $172 $173 $276 reversed $106 $-1 #
coedge $-1 $173 $173 $172 $276 forward $108 $-1 #
coedge $-1 $174 $174 $109 $175 forward $169 $-1 #
edge $-1 $277 -9.4557136449429248e-016 $277 6.2831853071795996 $174 $278 forward 7 unknown #
face $-1 $279 $280 $38 $-1 $281 forward single #
loop $-1 $-1 $282 $110 #
plane-surface $-1 -0.99928131631325456 69.624165173431464 162.35154325203916 -1 0 0 0 0.5877852598018023 0.80901698891910034 forward_v I I I I #
coedge $-1 $283 $284 $285 $286 reversed $111 $-1 #
coedge $-1 $181 $113 $287 $288 reversed $71 $-1 #
coedge $-1 $113 $180 $283 $289 reversed $71 $-1 #
coedge $-1 $285 $290 $113 $183 forward $280 $-1 #
edge $-1 $291 2.6533554827030983 $292 10.120405437777301 $182 $293 forward 7 unknown #
loop $-1 $-1 $189 $114 #
plane-surface $-1 -12.047309548918435 -19.875186034306083 39.166256760316131 0 0.5877852598018023 0.80901698891910034 1 0 0 forward_v I I I I #
loop $-1 $-1 $294 $73 #
coedge $-1 $187 $187 $188 $295 reversed $115 $-1 #
coedge $-1 $188 $188 $187 $295 forward $117 $-1 #
coedge $-1 $189 $189 $118 $190 forward $184 $-1 #
edge $-1 $296 1.5546316876852832e-015 $296 6.2831853071796022 $189 $297 forward 7 unknown #
loop $-1 $-1 $196 $119 #
plane-surface $-1 -12.047309548918435 -19.875186034306083 39.166256760316131 0 0.5877852598018023 0.80901698891910034 1 0 0 forward_v I I I I #
loop $-1 $-1 $298 $76 #
coedge $-1 $194 $194 $195 $299 reversed $120 $-1 #
coedge $-1 $195 $195 $194 $299 forward $122 $-1 #
coedge $-1 $196 $196 $123 $197 forward $191 $-1 #
edge $-1 $300 1.5546316876852832e-015 $300 6.2831853071796022 $196 $301 forward 7 unknown #
face $-1 $302 $303 $41 $-1 $304 forward single #
loop $-1 $-1 $305 $124 #
plane-surface $-1 70.876020937719474 69.624165173431464 162.35154325203916 -1 0 0 0 0.5877852598018023 0.80901698891910034 forward_v I I I I #
coedge $-1 $306 $307 $308 $309 reversed $125 $-1 #
coedge $-1 $203 $127 $310 $311 reversed $80 $-1 #
coedge $-1 $127 $202 $306 $312 reversed $80 $-1 #
coedge $-1 $308 $313 $127 $205 forward $303 $-1 #
edge $-1 $314 2.6533554827030983 $315 10.120405437777301 $204 $316 forward 7 unknown #
loop $-1 $-1 $211 $128 #
plane-surface $-1 59.827992705114298 -19.875186034306083 39.166256760316131 0 0.5877852598018023 0.80901698891910034 1 0 0 forward_v I I I I #
loop $-1 $-1 $317 $82 #
coedge $-1 $209 $209 $210 $318 reversed $129 $-1 #
coedge $-1 $210 $210 $209 $318 forward $131 $-1 #
coedge $-1 $211 $211 $132 $212 forward $206 $-1 #
edge $-1 $319 1.5546316876852832e-015 $319 6.2831853071796022 $211 $320 forward 7 unknown #
loop $-1 $-1 $218 $133 #
plane-surface $-1 59.827992705114298 -19.875186034306083 39.166256760316131 0 0.5877852598018023 0.80901698891910034 1 0 0 forward_v I I I I #
loop $-1 $-1 $321 $85 #
coedge $-1 $216 $216 $217 $322 reversed $134 $-1 #
coedge $-1 $217 $217 $216 $322 forward $136 $-1 #
coedge $-1 $218 $218 $137 $219 forward $213 $-1 #
edge $-1 $323 1.5546316876852832e-015 $323 6.2831853071796022 $218 $324 forward 7 unknown #
face $-1 $325 $326 $33 $-1 $327 reversed single #
loop $-1 $-1 $328 $138 #
plane-surface $-1 -76.132694479201632 0 0 1 0 0 0 0 -1 forward_v I I I I #
coedge $-1 $329 $231 $330 $331 forward $139 $-1 #
coedge $-1 $332 $141 $329 $333 forward $89 $-1 #
coedge $-1 $141 $332 $334 $335 forward $89 $-1 #
coedge $-1 $234 $233 $141 $227 reversed $235 $-1 #
edge $-1 $336 -32.158727104012634 $337 32.158727104012634 $226 $338 forward 7 unknown #
coedge $-1 $143 $142 $339 $340 forward $56 $-1 #
coedge $-1 $341 $342 $142 $230 reversed $326 $-1 #
edge $-1 $237 -76.132694479201632 $343 76.132694479201632 $229 $344 forward 7 unknown #
coedge $-1 $223 $345 $143 $232 reversed $139 $-1 #
edge $-1 $346 -76.132694479201632 $236 76.132694479201632 $231 $347 forward 7 unknown #
coedge $-1 $226 $144 $345 $348 forward $235 $-1 #
coedge $-1 $144 $226 $341 $349 reversed $235 $-1 #
loop $-1 $-1 $233 $325 #
vertex $-1 $145 $350 #
vertex $-1 $145 $351 #
straight-curve $-1 76.132694479201632 0 6.7865346858588511 0 1 0 I I #
face $-1 $352 $353 $34 $-1 $354 forward single #
loop $-1 $-1 $355 $146 #
plane-surface $-1 -76.132694479201632 0 0 1 0 0 0 0 -1 forward_v I I I I #
coedge $-1 $249 $356 $251 $357 forward $147 $-1 #
coedge $-1 $149 $251 $358 $359 reversed $93 $-1 #
coedge $-1 $360 $247 $149 $245 forward $361 $-1 #
edge $-1 $253 1.1432673429294256 $362 4.1432673429294251 $244 $363 forward 7 unknown #
coedge $-1 $151 $150 $355 $364 reversed $59 $-1 #
coedge $-1 $244 $365 $150 $248 forward $361 $-1 #
edge $-1 $366 -40.195043352185259 $253 -31.680258901847488 $247 $367 forward 7 unknown #
coedge $-1 $368 $242 $151 $250 forward $147 $-1 #
edge $-1 $252 31.680258901847488 $369 40.195043352185259 $249 $370 forward 7 unknown #
coedge $-1 $243 $152 $242 $357 reversed $93 $-1 #
vertex $-1 $250 $371 #
vertex $-1 $248 $372 #
straight-curve $-1 -67.617910028863861 0 3.7865346858588511 0 -1 0 I I #
face $-1 $-1 $267 $35 $-1 $373 forward single #
loop $-1 $-1 $374 $154 #
plane-surface $-1 0 -32.158727104012634 0 0 1 0 0 0 1 forward_v I I I I #
coedge $-1 $375 $376 $377 $378 reversed $155 $-1 #
coedge $-1 $379 $157 $159 $265 forward $97 $-1 #
coedge $-1 $157 $379 $375 $380 forward $97 $-1 #
coedge $-1 $377 $160 $157 $262 forward $267 $-1 #
edge $-1 $269 -10.808856011437406 $381 4.4523893849128129 $261 $382 forward 7 unknown #
coedge $-1 $383 $384 $158 $264 forward $256 $-1 #
edge $-1 $385 -35.897214675833538 $268 -31.135973941339234 $263 $386 forward 7 unknown #
edge $-1 $269 -5.4437839144486446 $385 1.4708645604606407e-014 $159 $387 forward 7 unknown #
coedge $-1 $160 $377 $383 $388 forward $267 $-1 #
loop $-1 $-1 $377 $255 #
vertex $-1 $264 $389 #
vertex $-1 $161 $390 #
straight-curve $-1 13.987089324699703 -82.66651908165349 6.7865346858588538 0 1 0 I I #
coedge $-1 $271 $271 $-1 $391 reversed $164 $-1 #
edge $-1 $392 0 $392 6.2831853071796004 $165 $393 forward 7 unknown #
vertex $-1 $168 $394 #
ellipse-curve $-1 3.0861997558781269 -30.839127735321313 4.4059143186117007 0 -0.87461971476443456 0.48480960649040278 1 0 0 1 I I #
coedge $-1 $275 $275 $-1 $395 reversed $171 $-1 #
edge $-1 $396 0 $396 6.2831853071796004 $172 $397 forward 7 unknown #
vertex $-1 $175 $398 #
ellipse-curve $-1 9.6267334971710739 -30.839127735321313 4.4059143186117007 0 -0.87461971476443456 0.48480960649040278 1 0 0 1 I I #
face $-1 $-1 $399 $38 $-1 $400 reversed single #
loop $-1 $-1 $182 $176 #
plane-surface $-1 0 0 6.7865346858588511 0 0 1 1 0 0 forward_v I I I I #
coedge $-1 $401 $402 $403 $404 reversed $177 $-1 #
coedge $-1 $405 $179 $181 $289 forward $111 $-1 #
coedge $-1 $179 $405 $401 $406 forward $111 $-1 #
coedge $-1 $403 $182 $179 $286 forward $280 $-1 #
edge $-1 $292 -17.071683007064397 $407 5.0243734581459627 $285 $408 forward 7 unknown #
coedge $-1 $409 $410 $180 $288 forward $399 $-1 #
edge $-1 $411 -79.814366397158096 $291 -74.389236940160728 $287 $412 forward 7 unknown #
edge $-1 $292 55.087672809923014 $411 64.317454208025254 $181 $413 forward 7 unknown #
coedge $-1 $182 $403 $409 $414 forward $280 $-1 #
vertex $-1 $288 $415 #
vertex $-1 $183 $416 #
straight-curve $-1 -23.095337781523614 34.812082586715732 6.7865346858588538 0 -1 0 I I #
coedge $-1 $294 $294 $-1 $417 reversed $186 $-1 #
edge $-1 $418 0 $418 6.2831853071796004 $187 $419 forward 7 unknown #
vertex $-1 $190 $420 #
ellipse-curve $-1 -16.782178791463515 28.425202126475515 4.0739699573601742 0 0.5877852598018023 0.80901698891910034 1 0 0 1 I I #
coedge $-1 $298 $298 $-1 $421 reversed $193 $-1 #
edge $-1 $422 0 $422 6.2831853071796004 $194 $423 forward 7 unknown #
vertex $-1 $197 $424 #
ellipse-curve $-1 -7.312440306373361 28.425202126475515 4.0739699573601742 0 0.5877852598018023 0.80901698891910034 1 0 0 1 I I #
face $-1 $-1 $425 $41 $-1 $426 reversed single #
loop $-1 $-1 $204 $198 #
plane-surface $-1 0 0 6.7865346858588511 0 0 1 1 0 0 forward_v I I I I #
coedge $-1 $427 $428 $429 $430 reversed $199 $-1 #
coedge $-1 $431 $201 $203 $312 forward $125 $-1 #
coedge $-1 $201 $431 $427 $432 forward $125 $-1 #
coedge $-1 $429 $204 $201 $309 forward $303 $-1 #
edge $-1 $315 18.865968119951972 $433 40.962024585162325 $308 $434 forward 7 unknown #
coedge $-1 $435 $436 $202 $311 forward $425 $-1 #
edge $-1 $437 -79.814366397158096 $314 -74.389236940160728 $310 $438 forward 7 unknown #
edge $-1 $315 55.087672809923014 $437 64.317454208025254 $203 $439 forward 7 unknown #
coedge $-1 $204 $429 $435 $440 forward $303 $-1 #
vertex $-1 $205 $441 #
vertex $-1 $205 $442 #
straight-curve $-1 48.779964472509121 34.812082586715732 6.7865346858588538 0 -1 0 I I #
coedge $-1 $317 $317 $-1 $443 reversed $208 $-1 #
edge $-1 $444 0 $444 6.2831853071796004 $209 $445 forward 7 unknown #
vertex $-1 $212 $446 #
ellipse-curve $-1 55.093123462569224 28.425202126475515 4.0739699573601742 0 0.5877852598018023 0.80901698891910034 1 0 0 1 I I #
coedge $-1 $321 $321 $-1 $447 reversed $215 $-1 #
edge $-1 $448 0 $448 6.2831853071796004 $216 $449 forward 7 unknown #
vertex $-1 $219 $450 #
ellipse-curve $-1 64.562861947659371 28.425202126475515 4.0739699573601742 0 0.5877852598018023 0.80901698891910034 1 0 0 1 I I #
face $-1 $-1 $235 $33 $-1 $451 reversed single #
loop $-1 $-1 $341 $220 #
plane-surface $-1 0 32.158727104012634 0 0 -1 0 0 0 -1 forward_v I I I I #
coedge $-1 $452 $339 $342 $453 forward $221 $-1 #
coedge $-1 $345 $223 $224 $333 reversed $139 $-1 #
coedge $-1 $339 $452 $223 $331 reversed $221 $-1 #
edge $-1 $346 -6.7865346858588511 $454 6.7865346858588511 $330 $455 forward 7 unknown #
coedge $-1 $225 $224 $452 $456 forward $89 $-1 #
edge $-1 $337 -76.132694479201632 $454 76.132694479201632 $329 $457 forward 7 unknown #
coedge $-1 $342 $341 $225 $335 reversed $326 $-1 #
edge $-1 $458 -76.132694479201632 $336 76.132694479201632 $334 $459 forward 7 unknown #
vertex $-1 $227 $460 #
vertex $-1 $348 $461 #
straight-curve $-1 76.132694479201632 0 -6.7865346858588511 0 -1 0 I I #
coedge $-1 $328 $330 $228 $340 reversed $221 $-1 #
edge $-1 $343 -32.158727104012634 $346 32.158727104012634 $339 $462 forward 7 unknown #
coedge $-1 $334 $229 $234 $349 forward $326 $-1 #
coedge $-1 $229 $334 $328 $453 reversed $326 $-1 #
vertex $-1 $230 $463 #
straight-curve $-1 0 32.158727104012634 6.7865346858588511 -1 0 0 I I #
coedge $-1 $231 $329 $233 $348 reversed $139 $-1 #
vertex $-1 $340 $464 #
straight-curve $-1 0 -32.158727104012634 6.7865346858588511 1 0 0 I I #
edge $-1 $236 -6.7865346858588511 $337 6.7865346858588511 $233 $465 forward 7 unknown #
edge $-1 $237 -6.7865346858588511 $336 6.7865346858588511 $234 $466 forward 7 unknown #
point $-1 76.132694479201632 -32.158727104012634 6.7865346858588511 #
point $-1 76.132694479201632 32.158727104012634 6.7865346858588511 #
face $-1 $-1 $361 $34 $-1 $467 reversed single #
loop $-1 $-1 $358 $239 #
plane-surface $-1 0 0 6.7865346858588511 0 0 1 1 0 0 forward_v I I I I #
coedge $-1 $468 $469 $246 $364 forward $240 $-1 #
coedge $-1 $242 $368 $470 $471 reversed $147 $-1 #
edge $-1 $472 -4.1432673429294251 $252 -1.1432673429294256 $242 $473 forward 7 unknown #
coedge $-1 $470 $474 $243 $359 forward $353 $-1 #
edge $-1 $362 -32.158727104012634 $472 32.158727104012634 $358 $475 forward 7 unknown #
coedge $-1 $365 $244 $474 $476 reversed $361 $-1 #
loop $-1 $-1 $244 $352 #
vertex $-1 $245 $477 #
straight-curve $-1 -67.617910028863861 -32.158727104012634 2.6432673429294256 0 0 1 I I #
edge $-1 $369 -32.158727104012634 $366 32.158727104012634 $355 $478 forward 7 unknown #
coedge $-1 $247 $360 $468 $479 forward $361 $-1 #
vertex $-1 $364 $480 #
straight-curve $-1 -35.937651127016373 -32.158727104012634 3.7865346858588511 1 0 0 I I #
coedge $-1 $356 $249 $469 $481 reversed $147 $-1 #
vertex $-1 $364 $482 #
straight-curve $-1 -35.937651127016373 32.158727104012634 3.7865346858588511 -1 0 0 I I #
point $-1 -67.617910028863861 32.158727104012634 3.7865346858588511 #
point $-1 -67.617910028863861 -32.158727104012634 3.7865346858588511 #
plane-surface $-1 0 0 6.7865346858588511 0 0 1 1 0 0 forward_v I I I I #
coedge $-1 $384 $383 $376 $483 forward $256 $-1 #
coedge $-1 $376 $258 $260 $380 reversed $155 $-1 #
coedge $-1 $258 $375 $374 $483 reversed $155 $-1 #
coedge $-1 $266 $261 $258 $378 forward $267 $-1 #
edge $-1 $381 -53.146990715023492 $484 -50.507791977640856 $377 $485 forward 7 unknown #
coedge $-1 $260 $259 $384 $486 reversed $97 $-1 #
edge $-1 $487 -1.4708645604606407e-014 $381 5.4437839144486446 $375 $488 forward 7 unknown #
vertex $-1 $262 $489 #
straight-curve $-1 3.1782333132622966 -29.519528366629995 6.786534685858852 -1 0 0 I I #
coedge $-1 $374 $263 $266 $388 reversed $256 $-1 #
coedge $-1 $263 $374 $379 $486 forward $256 $-1 #
vertex $-1 $264 $490 #
straight-curve $-1 13.987089324699703 -32.158727104012641 37.922508627198084 0 0 1 I I #
straight-curve $-1 13.987089324699703 -32.158727104012627 2.02529395136456 0 -0.48480960649040278 -0.87461971476443456 I I #
edge $-1 $484 -1.2741560716505163 $268 13.987089324699703 $383 $491 forward 7 unknown #
point $-1 13.987089324699703 -32.158727104012634 6.7865346858588511 #
point $-1 13.987089324699703 -29.519528366629995 6.7865346858588511 #
edge $-1 $492 1 $492 0 $271 $-1 forward 7 unknown #
vertex $-1 $272 $493 #
ellipse-curve $-1 3.0861997558781269 -29.557400263069557 3.6954412055997494 0 -0.87461971476443456 0.48480960649040278 1 0 0 1 I I #
point $-1 4.0861997558781269 -30.839127735321316 4.4059143186117016 #
edge $-1 $494 1 $494 0 $275 $-1 forward 7 unknown #
vertex $-1 $276 $495 #
ellipse-curve $-1 9.6267334971710739 -29.557400263069557 3.6954412055997494 0 -0.87461971476443456 0.48480960649040278 1 0 0 1 I I #
point $-1 10.626733497171074 -30.839127735321316 4.4059143186117016 #
loop $-1 $-1 $287 $279 #
plane-surface $-1 0 32.158727104012634 0 0 -1 0 0 0 -1 forward_v I I I I #
coedge $-1 $402 $282 $284 $406 reversed $177 $-1 #
coedge $-1 $282 $401 $496 $497 reversed $177 $-1 #
coedge $-1 $290 $285 $282 $404 forward $280 $-1 #
edge $-1 $407 -10.120405437777301 $498 -2.6533554827030983 $403 $499 forward 7 unknown #
coedge $-1 $284 $283 $410 $500 reversed $111 $-1 #
edge $-1 $501 -64.317454208025254 $407 -55.087672809923014 $401 $502 forward 7 unknown #
vertex $-1 $286 $503 #
straight-curve $-1 -6.0236547744592173 24.691677148938425 6.7865346858588538 1 0 0 I I #
coedge $-1 $496 $287 $290 $414 reversed $399 $-1 #
coedge $-1 $287 $496 $405 $500 forward $399 $-1 #
vertex $-1 $288 $504 #
straight-curve $-1 -23.095337781523614 32.158727104012634 81.175771626019582 0 0 1 I I #
straight-curve $-1 -23.095337781523614 -19.875186034306083 39.166256760316131 0 0.80901698891910034 -0.5877852598018023 I I #
edge $-1 $498 0.99928131631325456 $291 23.095337781523614 $409 $505 forward 7 unknown #
point $-1 -23.095337781523614 32.158727104012634 6.7865346858588511 #
point $-1 -23.095337781523614 24.691677148938432 6.7865346858588538 #
edge $-1 $506 1 $506 0 $294 $-1 forward 7 unknown #
vertex $-1 $295 $507 #
ellipse-curve $-1 -16.782178791463515 27.223549275021199 2.4200367302196537 0 0.5877852598018023 0.80901698891910034 1 0 0 1 I I #
point $-1 -15.782178791463515 28.425202126475501 4.073969957360152 #
edge $-1 $508 1 $508 0 $298 $-1 forward 7 unknown #
vertex $-1 $299 $509 #
ellipse-curve $-1 -7.312440306373361 27.223549275021199 2.4200367302196537 0 0.5877852598018023 0.80901698891910034 1 0 0 1 I I #
point $-1 -6.312440306373361 28.425202126475501 4.073969957360152 #
loop $-1 $-1 $310 $302 #
plane-surface $-1 0 32.158727104012634 0 0 -1 0 0 0 -1 forward_v I I I I #
coedge $-1 $428 $305 $307 $432 reversed $199 $-1 #
coedge $-1 $305 $427 $510 $511 reversed $199 $-1 #
coedge $-1 $313 $308 $305 $430 forward $303 $-1 #
edge $-1 $433 -10.120405437777301 $512 -2.6533554827030983 $429 $513 forward 7 unknown #
coedge $-1 $307 $306 $436 $514 reversed $125 $-1 #
edge $-1 $515 -64.317454208025254 $433 -55.087672809923014 $427 $516 forward 7 unknown #
vertex $-1 $309 $517 #
straight-curve $-1 29.913996352557149 24.691677148938425 6.7865346858588538 1 0 0 I I #
coedge $-1 $510 $310 $313 $440 reversed $425 $-1 #
coedge $-1 $310 $510 $431 $514 forward $425 $-1 #
vertex $-1 $311 $518 #
straight-curve $-1 48.779964472509121 32.158727104012634 81.175771626019582 0 0 1 I I #
straight-curve $-1 48.779964472509121 -19.875186034306083 39.166256760316131 0 0.80901698891910034 -0.5877852598018023 I I #
edge $-1 $512 -70.876020937719474 $314 -48.779964472509121 $435 $519 forward 7 unknown #
point $-1 48.779964472509121 32.158727104012634 6.7865346858588511 #
point $-1 48.779964472509121 24.691677148938432 6.7865346858588538 #
edge $-1 $520 1 $520 0 $317 $-1 forward 7 unknown #
vertex $-1 $318 $521 #
ellipse-curve $-1 55.093123462569224 27.223549275021199 2.4200367302196537 0 0.5877852598018023 0.80901698891910034 1 0 0 1 I I #
point $-1 56.093123462569224 28.425202126475501 4.073969957360152 #
edge $-1 $522 1 $522 0 $321 $-1 forward 7 unknown #
vertex $-1 $322 $523 #
ellipse-curve $-1 64.562861947659371 27.223549275021199 2.4200367302196537 0 0.5877852598018023 0.80901698891910034 1 0 0 1 I I #
point $-1 65.562861947659371 28.425202126475501 4.073969957360152 #
plane-surface $-1 76.132694479201632 0 0 -1 0 0 0 0 1 forward_v I I I I #
coedge $-1 $330 $328 $332 $456 reversed $221 $-1 #
edge $-1 $343 -6.7865346858588511 $458 6.7865346858588511 $342 $524 forward 7 unknown #
vertex $-1 $456 $525 #
straight-curve $-1 -76.132694479201632 -32.158727104012634 0 0 0 -1 I I #
edge $-1 $454 -32.158727104012634 $458 32.158727104012634 $452 $526 forward 7 unknown #
straight-curve $-1 0 -32.158727104012634 -6.7865346858588511 -1 0 0 I I #
vertex $-1 $335 $527 #
straight-curve $-1 0 32.158727104012634 -6.7865346858588511 1 0 0 I I #
point $-1 76.132694479201632 32.158727104012634 -6.7865346858588511 #
point $-1 76.132694479201632 -32.158727104012634 -6.7865346858588511 #
straight-curve $-1 -76.132694479201632 0 6.7865346858588511 0 -1 0 I I #
point $-1 -76.132694479201632 32.158727104012634 6.7865346858588511 #
point $-1 -76.132694479201632 -32.158727104012634 6.7865346858588511 #
straight-curve $-1 76.132694479201632 -32.158727104012634 0 0 0 -1 I I #
straight-curve $-1 76.132694479201632 32.158727104012634 0 0 0 -1 I I #
plane-surface $-1 0 -32.158727104012634 0 0 1 0 0 0 1 forward_v I I I I #
coedge $-1 $528 $355 $365 $479 reversed $240 $-1 #
coedge $-1 $355 $528 $368 $481 forward $240 $-1 #
coedge $-1 $529 $358 $356 $471 forward $353 $-1 #
edge $-1 $472 67.617910028863861 $530 76.132694479201632 $356 $531 forward 7 unknown #
vertex $-1 $471 $532 #
straight-curve $-1 -67.617910028863861 32.158727104012634 2.6432673429294256 0 0 -1 I I #
coedge $-1 $358 $529 $360 $476 forward $353 $-1 #
straight-curve $-1 -67.617910028863861 0 6.7865346858588511 0 1 0 I I #
edge $-1 $533 -76.132694479201632 $362 -67.617910028863861 $360 $534 forward 7 unknown #
point $-1 -67.617910028863861 -32.158727104012634 6.7865346858588511 #
straight-curve $-1 -76.132694479201632 0 3.7865346858588511 0 -1 0 I I #
edge $-1 $533 -6.7865346858588511 $366 -3.7865346858588511 $468 $535 forward 7 unknown #
point $-1 -76.132694479201632 -32.158727104012634 3.7865346858588511 #
edge $-1 $530 -6.7865346858588511 $369 -3.7865346858588511 $368 $536 forward 7 unknown #
point $-1 -76.132694479201632 32.158727104012634 3.7865346858588511 #
edge $-1 $484 31.135973941339234 $487 35.897214675833538 $374 $537 forward 7 unknown #
vertex $-1 $388 $538 #
straight-curve $-1 -1.2741560716505163 -82.66651908165349 6.7865346858588538 0 -1 0 I I #
edge $-1 $487 -4.4523893849128129 $385 10.808856011437406 $384 $539 forward 7 unknown #
vertex $-1 $486 $540 #
straight-curve $-1 -1.2741560716505163 -32.158727104012627 2.02529395136456 0 0.48480960649040278 0.87461971476443456 I I #
point $-1 -1.2741560716505163 -29.519528366629995 6.7865346858588511 #
point $-1 13.987089324699703 -32.158727104012634 2.0252939513645472 #
straight-curve $-1 0 -32.158727104012634 6.7865346858588511 1 0 0 I I #
vertex $-1 $391 $541 #
point $-1 4.0861997558781269 -29.557400263069557 3.6954412055997494 #
vertex $-1 $395 $542 #
point $-1 10.626733497171074 -29.557400263069557 3.6954412055997494 #
coedge $-1 $410 $409 $402 $497 forward $399 $-1 #
edge $-1 $498 74.389236940160728 $501 79.814366397158096 $496 $543 forward 7 unknown #
vertex $-1 $414 $544 #
straight-curve $-1 -0.99928131631325456 34.812082586715732 6.7865346858588538 0 1 0 I I #
edge $-1 $501 -5.0243734581459627 $411 17.071683007064397 $410 $545 forward 7 unknown #
vertex $-1 $500 $546 #
straight-curve $-1 -0.99928131631325456 -19.875186034306083 39.166256760316131 0 -0.80901698891910034 0.5877852598018023 I I #
point $-1 -0.99928131631325456 24.691677148938432 6.7865346858588538 #
point $-1 -23.095337781523614 32.158727104012641 1.3614052288614786 #
straight-curve $-1 0 32.158727104012634 6.7865346858588511 -1 0 0 I I #
vertex $-1 $417 $547 #
point $-1 -15.782178791463515 27.223549275021199 2.4200367302196537 #
vertex $-1 $421 $548 #
point $-1 -6.312440306373361 27.223549275021199 2.4200367302196537 #
coedge $-1 $436 $435 $428 $511 forward $425 $-1 #
edge $-1 $512 74.389236940160728 $515 79.814366397158096 $510 $549 forward 7 unknown #
vertex $-1 $440 $550 #
straight-curve $-1 70.876020937719474 34.812082586715732 6.7865346858588538 0 1 0 I I #
edge $-1 $515 -40.962024585162325 $437 -18.865968119951972 $436 $551 forward 7 unknown #
vertex $-1 $514 $552 #
straight-curve $-1 70.876020937719474 -19.875186034306083 39.166256760316131 0 -0.80901698891910034 0.5877852598018023 I I #
point $-1 70.876020937719474 24.691677148938432 6.7865346858588538 #
point $-1 48.779964472509121 32.158727104012641 1.3614052288614786 #
straight-curve $-1 0 32.158727104012634 6.7865346858588511 -1 0 0 I I #
vertex $-1 $443 $553 #
point $-1 56.093123462569224 27.223549275021199 2.4200367302196537 #
vertex $-1 $447 $554 #
point $-1 65.562861947659371 27.223549275021199 2.4200367302196537 #
straight-curve $-1 -76.132694479201632 32.158727104012634 0 0 0 -1 I I #
point $-1 -76.132694479201632 -32.158727104012634 -6.7865346858588511 #
straight-curve $-1 -76.132694479201632 0 -6.7865346858588511 0 1 0 I I #
point $-1 -76.132694479201632 32.158727104012634 -6.7865346858588511 #
coedge $-1 $469 $468 $529 $555 reversed $240 $-1 #
coedge $-1 $474 $470 $528 $555 forward $353 $-1 #
vertex $-1 $471 $556 #
straight-curve $-1 0 32.158727104012634 6.7865346858588511 -1 0 0 I I #
point $-1 -67.617910028863861 32.158727104012634 6.7865346858588511 #
vertex $-1 $555 $557 #
straight-curve $-1 0 -32.158727104012634 6.7865346858588511 1 0 0 I I #
straight-curve $-1 -76.132694479201632 -32.158727104012634 0 0 0 -1 I I #
straight-curve $-1 -76.132694479201632 32.158727104012634 0 0 0 -1 I I #
straight-curve $-1 -1.2741560716505163 -32.158727104012641 37.922508627198084 0 0 -1 I I #
point $-1 -1.2741560716505163 -32.158727104012634 6.7865346858588511 #
straight-curve $-1 3.1782333132622966 -32.158727104012634 2.0252939513645458 1 0 0 I I #
point $-1 -1.2741560716505163 -32.158727104012634 2.0252939513645472 #
point $-1 3.0861997558781269 -28.682780548305121 3.2106315991093464 #
point $-1 9.6267334971710739 -28.682780548305121 3.2106315991093464 #
straight-curve $-1 -0.99928131631325456 32.158727104012634 81.175771626019582 0 0 -1 I I #
point $-1 -0.99928131631325456 32.158727104012634 6.7865346858588511 #
straight-curve $-1 -6.0236547744592173 32.158727104012634 1.3614052288614786 -1 0 0 I I #
point $-1 -0.99928131631325456 32.158727104012641 1.3614052288614786 #
point $-1 -16.782178791463515 26.635764015219394 1.6110197413005536 #
point $-1 -7.312440306373361 26.635764015219394 1.6110197413005536 #
straight-curve $-1 70.876020937719474 32.158727104012634 81.175771626019582 0 0 -1 I I #
point $-1 70.876020937719474 32.158727104012634 6.7865346858588511 #
straight-curve $-1 29.913996352557149 32.158727104012634 1.3614052288614786 -1 0 0 I I #
point $-1 70.876020937719474 32.158727104012641 1.3614052288614786 #
point $-1 55.093123462569224 26.635764015219394 1.6110197413005536 #
point $-1 64.562861947659371 26.635764015219394 1.6110197413005536 #
edge $-1 $530 -32.158727104012634 $533 32.158727104012634 $528 $558 forward 7 unknown #
point $-1 -76.132694479201632 32.158727104012634 6.7865346858588511 #
point $-1 -76.132694479201632 -32.158727104012634 6.7865346858588511 #
straight-curve $-1 -76.132694479201632 0 6.7865346858588511 0 -1 0 I I #
End-of-ACIS-data 