500 0 16 0           
7 Unknown 11 ACIS 5.0 NT 24 Fri Mar 26 19:20:29 1999 
-1 9.9999999999999995e-007 1e-010 
body $-1 $16 $-1 $17 #
body $-1 $18 $-1 $19 #
body $-1 $20 $-1 $21 #
body $-1 $22 $-1 $23 #
body $-1 $24 $-1 $25 #
body $-1 $26 $-1 $27 #
body $-1 $28 $-1 $29 #
body $-1 $30 $-1 $31 #
body $-1 $32 $-1 $33 #
body $-1 $34 $-1 $35 #
body $-1 $36 $-1 $37 #
body $-1 $38 $-1 $39 #
body $-1 $40 $-1 $41 #
body $-1 $42 $-1 $43 #
body $-1 $44 $-1 $45 #
body $-1 $46 $-1 $47 #
lump $-1 $-1 $48 $0 #
transform $-1 1 0 0 0 1 0 0 0 1 52.231818597979675 29.272421863085402 10.084142521149571 1 rotate no_reflect no_shear #
lump $-1 $-1 $49 $1 #
transform $-1 1 0 0 0 1 0 0 0 1 52.231818597979675 29.272421863085402 10.084142521149571 1 rotate no_reflect no_shear #
lump $-1 $-1 $50 $2 #
transform $-1 1 0 0 0 1 0 0 0 1 52.231818597979675 29.272421863085402 10.084142521149571 1 rotate no_reflect no_shear #
lump $-1 $-1 $51 $3 #
transform $-1 1 0 0 0 1 0 0 0 1 52.231818597979675 29.272421863085402 10.084142521149571 1 rotate no_reflect no_shear #
lump $-1 $-1 $52 $4 #
transform $-1 1 0 0 0 1 0 0 0 1 52.231818597979675 29.272421863085402 10.084142521149571 1 rotate no_reflect no_shear #
lump $-1 $-1 $53 $5 #
transform $-1 1 0 0 0 1 0 0 0 1 52.231818597979675 29.272421863085402 10.084142521149571 1 rotate no_reflect no_shear #
lump $-1 $-1 $54 $6 #
transform $-1 1 0 0 0 1 0 0 0 1 52.231818597979675 29.272421863085402 10.084142521149571 1 rotate no_reflect no_shear #
lump $-1 $-1 $55 $7 #
transform $-1 1 0 0 0 1 0 0 0 1 52.231818597979675 29.272421863085402 10.084142521149571 1 rotate no_reflect no_shear #
lump $-1 $-1 $56 $8 #
transform $-1 1 0 0 0 1 0 0 0 1 52.231818597979675 29.272421863085402 10.084142521149571 1 rotate no_reflect no_shear #
lump $-1 $-1 $57 $9 #
transform $-1 1 0 0 0 1 0 0 0 1 52.231818597979675 29.272421863085402 10.084142521149571 1 rotate no_reflect no_shear #
lump $-1 $-1 $58 $10 #
transform $-1 1 0 0 0 1 0 0 0 1 52.231818597979675 29.272421863085402 10.084142521149571 1 rotate no_reflect no_shear #
lump $-1 $-1 $59 $11 #
transform $-1 1 0 0 0 1 0 0 0 1 52.231818597979675 29.272421863085402 10.084142521149571 1 rotate no_reflect no_shear #
lump $-1 $-1 $60 $12 #
transform $-1 1 0 0 0 1 0 0 0 1 52.231818597979675 29.272421863085402 10.084142521149571 1 rotate no_reflect no_shear #
lump $-1 $-1 $61 $13 #
transform $-1 1 0 0 0 1 0 0 0 1 52.231818597979675 29.272421863085402 10.084142521149571 1 rotate no_reflect no_shear #
lump $-1 $-1 $62 $14 #
transform $-1 1 0 0 0 1 0 0 0 1 52.231818597979675 29.272421863085402 10.084142521149571 1 rotate no_reflect no_shear #
lump $-1 $-1 $63 $15 #
transform $-1 1 0 0 0 1 0 0 0 1 52.231818597979675 29.272421863085402 10.084142521149571 1 rotate no_reflect no_shear #
shell $-1 $-1 $-1 $64 $-1 $16 #
shell $-1 $-1 $-1 $65 $-1 $18 #
shell $-1 $-1 $-1 $66 $-1 $20 #
shell $-1 $-1 $-1 $67 $-1 $22 #
shell $-1 $-1 $-1 $68 $-1 $24 #
shell $-1 $-1 $-1 $69 $-1 $26 #
shell $-1 $-1 $-1 $70 $-1 $28 #
shell $-1 $-1 $-1 $71 $-1 $30 #
shell $-1 $-1 $-1 $72 $-1 $32 #
shell $-1 $-1 $-1 $73 $-1 $34 #
shell $-1 $-1 $-1 $74 $-1 $36 #
shell $-1 $-1 $-1 $75 $-1 $38 #
shell $-1 $-1 $-1 $76 $-1 $40 #
shell $-1 $-1 $-1 $77 $-1 $42 #
shell $-1 $-1 $-1 $78 $-1 $44 #
shell $-1 $-1 $-1 $79 $-1 $46 #
face $-1 $80 $81 $48 $-1 $82 forward single #
face $-1 $83 $84 $49 $-1 $85 forward single #
face $-1 $86 $87 $50 $-1 $88 reversed single #
face $-1 $89 $90 $51 $-1 $91 forward single #
face $-1 $92 $93 $52 $-1 $94 forward single #
face $-1 $95 $96 $53 $-1 $97 reversed single #
face $-1 $98 $99 $54 $-1 $100 forward single #
face $-1 $101 $102 $55 $-1 $103 forward single #
face $-1 $104 $105 $56 $-1 $106 reversed single #
face $-1 $107 $108 $57 $-1 $109 forward single #
face $-1 $110 $111 $58 $-1 $112 forward single #
face $-1 $113 $114 $59 $-1 $115 reversed single #
face $-1 $116 $117 $60 $-1 $118 forward single #
face $-1 $119 $120 $61 $-1 $121 forward single #
face $-1 $122 $123 $62 $-1 $124 reversed single #
face $-1 $125 $126 $63 $-1 $127 forward single #
face $-1 $128 $129 $48 $-1 $130 reversed single #
loop $-1 $-1 $131 $64 #
plane-surface $-1 0 0 10.084142521149571 0 0 1 1 0 0 forward_v I I I I #
face $-1 $132 $133 $49 $-1 $134 reversed single #
loop $-1 $-1 $135 $65 #
plane-surface $-1 -48.423679909722281 0 -2.1202329596646479 0 0 1 1 0 0 forward_v I I I I #
face $-1 $136 $137 $50 $-1 $138 reversed single #
loop $-1 $-1 $139 $66 #
plane-surface $-1 -39.089160715072403 65.744803581805158 115.99987589856661 1 0 0 0 -0.73135370988377701 -0.68199835119979291 forward_v I I I I #
face $-1 $140 $141 $51 $-1 $142 forward single #
loop $-1 $143 $144 $67 #
cone-surface $-1 -35.353129902179639 23.415701865960134 4.0915266474112553 0 -0.73135370988377701 -0.68199835119979291 1.5 0 0 1 I I 0 1 1.5 forward I I I I #
face $-1 $145 $146 $52 $-1 $147 forward single #
loop $-1 $148 $149 $68 #
cone-surface $-1 -29.749083682840492 23.415701865960134 4.0915266474112553 0 -0.73135370988377701 -0.68199835119979291 1.5 0 0 1 I I 0 1 1.5 forward I I I I #
face $-1 $150 $151 $53 $-1 $152 reversed single #
loop $-1 $-1 $153 $69 #
plane-surface $-1 -14.877320760211266 65.744803581805158 115.99987589856661 1 0 0 0 -0.73135370988377701 -0.68199835119979291 forward_v I I I I #
face $-1 $154 $155 $54 $-1 $156 forward single #
loop $-1 $157 $158 $70 #
cone-surface $-1 -11.141289947318498 23.415701865960134 4.0915266474112553 0 -0.73135370988377701 -0.68199835119979291 1.5 0 0 1 I I 0 1 1.5 forward I I I I #
face $-1 $159 $160 $55 $-1 $161 forward single #
loop $-1 $162 $163 $71 #
cone-surface $-1 -5.5372437279793516 23.415701865960134 4.0915266474112553 0 -0.73135370988377701 -0.68199835119979291 1.5 0 0 1 I I 0 1 1.5 forward I I I I #
face $-1 $164 $165 $56 $-1 $166 reversed single #
loop $-1 $-1 $167 $72 #
plane-surface $-1 9.3345191946498822 65.744803581805158 115.99987589856661 1 0 0 0 -0.73135370988377701 -0.68199835119979291 forward_v I I I I #
face $-1 $168 $169 $57 $-1 $170 forward single #
loop $-1 $171 $172 $73 #
cone-surface $-1 13.070550007542643 23.415701865960134 4.0915266474112553 0 -0.73135370988377701 -0.68199835119979291 1.5 0 0 1 I I 0 1 1.5 forward I I I I #
face $-1 $173 $174 $58 $-1 $175 forward single #
loop $-1 $176 $177 $74 #
cone-surface $-1 18.674596226881782 23.415701865960134 4.0915266474112553 0 -0.73135370988377701 -0.68199835119979291 1.5 0 0 1 I I 0 1 1.5 forward I I I I #
face $-1 $178 $179 $59 $-1 $180 reversed single #
loop $-1 $-1 $181 $75 #
plane-surface $-1 33.546359149511034 65.744803581805158 115.99987589856661 1 0 0 0 -0.73135370988377701 -0.68199835119979291 forward_v I I I I #
face $-1 $182 $183 $60 $-1 $184 forward single #
loop $-1 $185 $186 $76 #
cone-surface $-1 37.282389962403776 23.415701865960134 4.0915266474112553 0 -0.73135370988377701 -0.68199835119979291 1.5 0 0 1 I I 0 1 1.5 forward I I I I #
face $-1 $187 $188 $61 $-1 $189 forward single #
loop $-1 $190 $191 $77 #
cone-surface $-1 42.88643618174293 23.415701865960134 4.0915266474112553 0 -0.73135370988377701 -0.68199835119979291 1.5 0 0 1 I I 0 1 1.5 forward I I I I #
face $-1 $192 $193 $62 $-1 $194 reversed single #
loop $-1 $-1 $195 $78 #
plane-surface $-1 42.730479896127882 -29.272421863085412 4.8080155500303832 0 -0.87461971476443456 0.48480960649040278 1 0 0 forward_v I I I I #
face $-1 $196 $197 $63 $-1 $198 forward single #
loop $-1 $199 $200 $79 #
cone-surface $-1 42.730479896127882 -27.155829591549907 7.0834002587994229 0 0.87461971476443456 -0.48480960649040278 0.5 0 0 1 I I 0 1 0.5 forward I I I I #
face $-1 $201 $202 $48 $-1 $203 reversed single #
loop $-1 $-1 $204 $80 #
plane-surface $-1 0 0 -10.084142521149571 0 0 1 1 0 0 forward_v I I I I #
coedge $-1 $205 $206 $207 $208 forward $81 $-1 #
face $-1 $209 $210 $49 $-1 $211 reversed single #
loop $-1 $-1 $212 $83 #
plane-surface $-1 -48.423679909722281 0 -6.8316236227182934 0 0 1 1 0 0 forward_v I I I I #
coedge $-1 $213 $214 $215 $216 forward $84 $-1 #
face $-1 $217 $218 $50 $-1 $219 reversed single #
loop $-1 $-1 $220 $86 #
plane-surface $-1 -32.551106792510069 -10.65506502941264 44.755847570588983 0 0.73135370988377701 0.68199835119979291 1 0 0 forward_v I I I I #
coedge $-1 $221 $222 $223 $224 reversed $87 $-1 #
face $-1 $-1 $225 $51 $-1 $226 forward single #
loop $-1 $227 $228 $89 #
cone-surface $-1 -35.353129902179639 20.808266415073948 1.6600538124038824 0 -0.73135370988377701 -0.68199835119979291 0.75 0 0 1 I I -0.70710678118654757 0.70710678118654757 0.75 forward I I I I #
loop $-1 $-1 $229 $67 #
coedge $-1 $144 $144 $230 $231 reversed $90 $-1 #
face $-1 $-1 $232 $52 $-1 $233 forward single #
loop $-1 $234 $235 $92 #
cone-surface $-1 -29.749083682840492 20.808266415073948 1.6600538124038824 0 -0.73135370988377701 -0.68199835119979291 0.75 0 0 1 I I -0.70710678118654757 0.70710678118654757 0.75 forward I I I I #
loop $-1 $-1 $236 $68 #
coedge $-1 $149 $149 $237 $238 reversed $93 $-1 #
face $-1 $239 $240 $53 $-1 $241 reversed single #
loop $-1 $-1 $242 $95 #
plane-surface $-1 -8.3392668376489283 -10.65506502941264 44.755847570588983 0 0.73135370988377701 0.68199835119979291 1 0 0 forward_v I I I I #
coedge $-1 $243 $244 $245 $246 reversed $96 $-1 #
face $-1 $-1 $247 $54 $-1 $248 forward single #
loop $-1 $249 $250 $98 #
cone-surface $-1 -11.141289947318498 20.808266415073948 1.6600538124038824 0 -0.73135370988377701 -0.68199835119979291 0.75 0 0 1 I I -0.70710678118654757 0.70710678118654757 0.75 forward I I I I #
loop $-1 $-1 $251 $70 #
coedge $-1 $158 $158 $252 $253 reversed $99 $-1 #
face $-1 $-1 $254 $55 $-1 $255 forward single #
loop $-1 $256 $257 $101 #
cone-surface $-1 -5.5372437279793516 20.808266415073948 1.6600538124038824 0 -0.73135370988377701 -0.68199835119979291 0.75 0 0 1 I I -0.70710678118654757 0.70710678118654757 0.75 forward I I I I #
loop $-1 $-1 $258 $71 #
coedge $-1 $163 $163 $259 $260 reversed $102 $-1 #
face $-1 $261 $262 $56 $-1 $263 reversed single #
loop $-1 $-1 $264 $104 #
plane-surface $-1 15.87257311721222 -10.65506502941264 44.755847570588983 0 0.73135370988377701 0.68199835119979291 1 0 0 forward_v I I I I #
coedge $-1 $265 $266 $267 $268 reversed $105 $-1 #
face $-1 $-1 $269 $57 $-1 $270 forward single #
loop $-1 $271 $272 $107 #
cone-surface $-1 13.070550007542643 20.808266415073948 1.6600538124038824 0 -0.73135370988377701 -0.68199835119979291 0.75 0 0 1 I I -0.70710678118654757 0.70710678118654757 0.75 forward I I I I #
loop $-1 $-1 $273 $73 #
coedge $-1 $172 $172 $274 $275 reversed $108 $-1 #
face $-1 $-1 $276 $58 $-1 $277 forward single #
loop $-1 $278 $279 $110 #
cone-surface $-1 18.674596226881782 20.808266415073948 1.6600538124038824 0 -0.73135370988377701 -0.68199835119979291 0.75 0 0 1 I I -0.70710678118654757 0.70710678118654757 0.75 forward I I I I #
loop $-1 $-1 $280 $74 #
coedge $-1 $177 $177 $281 $282 reversed $111 $-1 #
face $-1 $283 $284 $59 $-1 $285 reversed single #
loop $-1 $-1 $286 $113 #
plane-surface $-1 40.084413072073367 -10.65506502941264 44.755847570588983 0 0.73135370988377701 0.68199835119979291 1 0 0 forward_v I I I I #
coedge $-1 $287 $288 $289 $290 reversed $114 $-1 #
face $-1 $-1 $291 $60 $-1 $292 forward single #
loop $-1 $293 $294 $116 #
cone-surface $-1 37.282389962403776 20.808266415073948 1.6600538124038824 0 -0.73135370988377701 -0.68199835119979291 0.75 0 0 1 I I -0.70710678118654757 0.70710678118654757 0.75 forward I I I I #
loop $-1 $-1 $295 $76 #
coedge $-1 $186 $186 $296 $297 reversed $117 $-1 #
face $-1 $-1 $298 $61 $-1 $299 forward single #
loop $-1 $300 $301 $119 #
cone-surface $-1 42.88643618174293 20.808266415073948 1.6600538124038824 0 -0.73135370988377701 -0.68199835119979291 0.75 0 0 1 I I -0.70710678118654757 0.70710678118654757 0.75 forward I I I I #
loop $-1 $-1 $302 $77 #
coedge $-1 $191 $191 $303 $304 reversed $120 $-1 #
face $-1 $305 $306 $62 $-1 $307 reversed single #
loop $-1 $-1 $308 $122 #
plane-surface $-1 33.229141194276096 -120.63837843067076 55.452990391559638 1 0 0 0 0.87461971476443456 -0.48480960649040278 forward_v I I I I #
coedge $-1 $309 $310 $311 $312 reversed $123 $-1 #
face $-1 $-1 $313 $63 $-1 $314 forward single #
loop $-1 $315 $316 $125 #
cone-surface $-1 42.730479896127882 -26.282884805436293 6.5995190803862709 0 0.87461971476443456 -0.48480960649040278 0.25 0 0 1 I I -0.70710678118654746 0.70710678118654746 0.25 forward I I I I #
loop $-1 $-1 $317 $79 #
coedge $-1 $200 $200 $318 $319 reversed $126 $-1 #
face $-1 $320 $321 $48 $-1 $322 reversed single #
loop $-1 $-1 $323 $128 #
plane-surface $-1 0 -29.272421863085402 0 0 1 0 0 0 1 forward_v I I I I #
coedge $-1 $324 $325 $326 $327 forward $129 $-1 #
coedge $-1 $328 $131 $329 $330 forward $81 $-1 #
coedge $-1 $131 $328 $331 $332 forward $81 $-1 #
coedge $-1 $333 $334 $131 $208 reversed $335 $-1 #
edge $-1 $336 -29.272421863085402 $337 29.272421863085402 $207 $338 forward 7 unknown #
face $-1 $339 $340 $49 $-1 $341 reversed single #
loop $-1 $-1 $342 $132 #
plane-surface $-1 -44.615541221464888 0 -4.4759282911914706 -1 0 0 0 0 1 forward_v I I I I #
coedge $-1 $343 $344 $345 $346 forward $133 $-1 #
coedge $-1 $347 $135 $348 $349 reversed $84 $-1 #
coedge $-1 $135 $347 $350 $351 reversed $84 $-1 #
coedge $-1 $342 $352 $135 $216 reversed $210 $-1 #
edge $-1 $353 -29.272421863085402 $354 29.272421863085402 $215 $355 forward 7 unknown #
face $-1 $356 $357 $50 $-1 $358 forward single #
loop $-1 $-1 $359 $136 #
plane-surface $-1 -26.013052869947732 65.744803581805158 115.99987589856661 -1 0 0 0 0.73135370988377701 0.68199835119979291 forward_v I I I I #
coedge $-1 $360 $361 $362 $363 reversed $137 $-1 #
coedge $-1 $222 $139 $364 $365 reversed $87 $-1 #
coedge $-1 $139 $221 $360 $366 reversed $87 $-1 #
coedge $-1 $362 $367 $139 $224 forward $357 $-1 #
edge $-1 $368 3.5999799278171771 $369 11.195579585121024 $223 $370 forward 7 unknown #
loop $-1 $-1 $230 $140 #
plane-surface $-1 -32.551106792510069 -10.65506502941264 44.755847570588983 0 0.73135370988377701 0.68199835119979291 1 0 0 forward_v I I I I #
loop $-1 $-1 $371 $89 #
coedge $-1 $228 $228 $229 $372 reversed $141 $-1 #
coedge $-1 $229 $229 $228 $372 forward $143 $-1 #
coedge $-1 $230 $230 $144 $231 forward $225 $-1 #
edge $-1 $373 -2.33793943891594e-016 $373 6.2831853071796004 $230 $374 forward 7 unknown #
loop $-1 $-1 $237 $145 #
plane-surface $-1 -32.551106792510069 -10.65506502941264 44.755847570588983 0 0.73135370988377701 0.68199835119979291 1 0 0 forward_v I I I I #
loop $-1 $-1 $375 $92 #
coedge $-1 $235 $235 $236 $376 reversed $146 $-1 #
coedge $-1 $236 $236 $235 $376 forward $148 $-1 #
coedge $-1 $237 $237 $149 $238 forward $232 $-1 #
edge $-1 $377 -2.33793943891594e-016 $377 6.2831853071796004 $237 $378 forward 7 unknown #
face $-1 $379 $380 $53 $-1 $381 forward single #
loop $-1 $-1 $382 $150 #
plane-surface $-1 -1.8012129150865919 65.744803581805158 115.99987589856661 -1 0 0 0 0.73135370988377701 0.68199835119979291 forward_v I I I I #
coedge $-1 $383 $384 $385 $386 reversed $151 $-1 #
coedge $-1 $244 $153 $387 $388 reversed $96 $-1 #
coedge $-1 $153 $243 $383 $389 reversed $96 $-1 #
coedge $-1 $385 $390 $153 $246 forward $380 $-1 #
edge $-1 $391 3.5999799278171771 $392 11.195579585121024 $245 $393 forward 7 unknown #
loop $-1 $-1 $252 $154 #
plane-surface $-1 -8.3392668376489283 -10.65506502941264 44.755847570588983 0 0.73135370988377701 0.68199835119979291 1 0 0 forward_v I I I I #
loop $-1 $-1 $394 $98 #
coedge $-1 $250 $250 $251 $395 reversed $155 $-1 #
coedge $-1 $251 $251 $250 $395 forward $157 $-1 #
coedge $-1 $252 $252 $158 $253 forward $247 $-1 #
edge $-1 $396 -2.33793943891594e-016 $396 6.2831853071796004 $252 $397 forward 7 unknown #
loop $-1 $-1 $259 $159 #
plane-surface $-1 -8.3392668376489283 -10.65506502941264 44.755847570588983 0 0.73135370988377701 0.68199835119979291 1 0 0 forward_v I I I I #
loop $-1 $-1 $398 $101 #
coedge $-1 $257 $257 $258 $399 reversed $160 $-1 #
coedge $-1 $258 $258 $257 $399 forward $162 $-1 #
coedge $-1 $259 $259 $163 $260 forward $254 $-1 #
edge $-1 $400 -2.33793943891594e-016 $400 6.2831853071796004 $259 $401 forward 7 unknown #
face $-1 $402 $403 $56 $-1 $404 forward single #
loop $-1 $-1 $405 $164 #
plane-surface $-1 22.410627039774557 65.744803581805158 115.99987589856661 -1 0 0 0 0.73135370988377701 0.68199835119979291 forward_v I I I I #
coedge $-1 $406 $407 $408 $409 reversed $165 $-1 #
coedge $-1 $266 $167 $410 $411 reversed $105 $-1 #
coedge $-1 $167 $265 $406 $412 reversed $105 $-1 #
coedge $-1 $408 $413 $167 $268 forward $403 $-1 #
edge $-1 $414 3.5999799278171771 $415 11.195579585121024 $267 $416 forward 7 unknown #
loop $-1 $-1 $274 $168 #
plane-surface $-1 15.87257311721222 -10.65506502941264 44.755847570588983 0 0.73135370988377701 0.68199835119979291 1 0 0 forward_v I I I I #
loop $-1 $-1 $417 $107 #
coedge $-1 $272 $272 $273 $418 reversed $169 $-1 #
coedge $-1 $273 $273 $272 $418 forward $171 $-1 #
coedge $-1 $274 $274 $172 $275 forward $269 $-1 #
edge $-1 $419 -2.33793943891594e-016 $419 6.2831853071796004 $274 $420 forward 7 unknown #
loop $-1 $-1 $281 $173 #
plane-surface $-1 15.87257311721222 -10.65506502941264 44.755847570588983 0 0.73135370988377701 0.68199835119979291 1 0 0 forward_v I I I I #
loop $-1 $-1 $421 $110 #
coedge $-1 $279 $279 $280 $422 reversed $174 $-1 #
coedge $-1 $280 $280 $279 $422 forward $176 $-1 #
coedge $-1 $281 $281 $177 $282 forward $276 $-1 #
edge $-1 $423 -2.33793943891594e-016 $423 6.2831853071796004 $281 $424 forward 7 unknown #
face $-1 $425 $426 $59 $-1 $427 forward single #
loop $-1 $-1 $428 $178 #
plane-surface $-1 46.622466994635701 65.744803581805158 115.99987589856661 -1 0 0 0 0.73135370988377701 0.68199835119979291 forward_v I I I I #
coedge $-1 $429 $430 $431 $432 reversed $179 $-1 #
coedge $-1 $288 $181 $433 $434 reversed $114 $-1 #
coedge $-1 $181 $287 $429 $435 reversed $114 $-1 #
coedge $-1 $431 $436 $181 $290 forward $426 $-1 #
edge $-1 $437 3.5999799278171771 $438 11.195579585121024 $289 $439 forward 7 unknown #
loop $-1 $-1 $296 $182 #
plane-surface $-1 40.084413072073367 -10.65506502941264 44.755847570588983 0 0.73135370988377701 0.68199835119979291 1 0 0 forward_v I I I I #
loop $-1 $-1 $440 $116 #
coedge $-1 $294 $294 $295 $441 reversed $183 $-1 #
coedge $-1 $295 $295 $294 $441 forward $185 $-1 #
coedge $-1 $296 $296 $186 $297 forward $291 $-1 #
edge $-1 $442 -2.33793943891594e-016 $442 6.2831853071796004 $296 $443 forward 7 unknown #
loop $-1 $-1 $303 $187 #
plane-surface $-1 40.084413072073367 -10.65506502941264 44.755847570588983 0 0.73135370988377701 0.68199835119979291 1 0 0 forward_v I I I I #
loop $-1 $-1 $444 $119 #
coedge $-1 $301 $301 $302 $445 reversed $188 $-1 #
coedge $-1 $302 $302 $301 $445 forward $190 $-1 #
coedge $-1 $303 $303 $191 $304 forward $298 $-1 #
edge $-1 $446 -2.33793943891594e-016 $446 6.2831853071796004 $303 $447 forward 7 unknown #
face $-1 $448 $449 $62 $-1 $450 forward single #
loop $-1 $-1 $451 $192 #
plane-surface $-1 0 -29.272421863085402 0 0 1 0 0 0 1 forward_v I I I I #
coedge $-1 $452 $453 $454 $455 reversed $193 $-1 #
coedge $-1 $456 $195 $457 $458 reversed $123 $-1 #
coedge $-1 $195 $456 $452 $459 forward $123 $-1 #
coedge $-1 $454 $460 $195 $312 forward $449 $-1 #
edge $-1 $461 -30.866578649915727 $462 -11.863901246212155 $311 $463 forward 7 unknown #
loop $-1 $-1 $318 $196 #
plane-surface $-1 42.730479896127882 -29.272421863085412 4.8080155500303832 0 -0.87461971476443456 0.48480960649040278 1 0 0 forward_v I I I I #
loop $-1 $-1 $464 $125 #
coedge $-1 $316 $316 $317 $465 reversed $197 $-1 #
coedge $-1 $317 $317 $316 $465 forward $199 $-1 #
coedge $-1 $318 $318 $200 $319 forward $313 $-1 #
edge $-1 $466 1.0125180503774558e-015 $466 6.2831853071796013 $318 $467 forward 7 unknown #
face $-1 $468 $469 $48 $-1 $470 reversed single #
loop $-1 $-1 $471 $201 #
plane-surface $-1 -52.231818597979675 0 0 1 0 0 0 0 -1 forward_v I I I I #
coedge $-1 $472 $331 $473 $474 forward $202 $-1 #
coedge $-1 $475 $204 $472 $476 forward $129 $-1 #
coedge $-1 $204 $475 $477 $478 forward $129 $-1 #
coedge $-1 $334 $333 $204 $327 reversed $335 $-1 #
edge $-1 $479 -29.272421863085402 $480 29.272421863085402 $326 $481 forward 7 unknown #
coedge $-1 $206 $205 $482 $483 forward $81 $-1 #
coedge $-1 $484 $485 $205 $330 reversed $469 $-1 #
edge $-1 $337 -52.231818597979675 $486 52.231818597979675 $329 $487 forward 7 unknown #
coedge $-1 $323 $488 $206 $332 reversed $202 $-1 #
edge $-1 $489 -52.231818597979675 $336 52.231818597979675 $331 $490 forward 7 unknown #
coedge $-1 $326 $207 $488 $491 forward $335 $-1 #
coedge $-1 $207 $326 $484 $492 reversed $335 $-1 #
loop $-1 $-1 $333 $468 #
vertex $-1 $208 $493 #
vertex $-1 $208 $494 #
straight-curve $-1 52.231818597979675 0 10.084142521149571 0 1 0 I I #
face $-1 $495 $496 $49 $-1 $497 reversed single #
loop $-1 $-1 $498 $209 #
plane-surface $-1 0 -29.272421863085402 0 0 1 0 0 0 1 forward_v I I I I #
coedge $-1 $345 $215 $499 $500 reversed $210 $-1 #
coedge $-1 $501 $212 $498 $502 reversed $133 $-1 #
coedge $-1 $212 $501 $503 $504 reversed $133 $-1 #
coedge $-1 $352 $342 $212 $346 reversed $210 $-1 #
edge $-1 $505 -29.272421863085402 $506 29.272421863085402 $345 $507 forward 7 unknown #
coedge $-1 $214 $213 $508 $509 reversed $84 $-1 #
coedge $-1 $510 $511 $213 $349 forward $512 $-1 #
edge $-1 $513 -28.019978643118534 $354 -20.403701266603747 $348 $514 forward 7 unknown #
coedge $-1 $515 $499 $214 $351 forward $340 $-1 #
edge $-1 $353 20.403701266603747 $516 28.019978643118534 $350 $517 forward 7 unknown #
coedge $-1 $215 $345 $510 $518 reversed $210 $-1 #
vertex $-1 $351 $519 #
vertex $-1 $349 $520 #
straight-curve $-1 -44.615541221464888 0 -2.1202329596646479 0 1 0 I I #
face $-1 $-1 $521 $50 $-1 $522 reversed single #
loop $-1 $-1 $223 $217 #
plane-surface $-1 0 0 10.084142521149571 0 0 1 1 0 0 forward_v I I I I #
coedge $-1 $523 $524 $525 $526 reversed $218 $-1 #
coedge $-1 $527 $220 $222 $366 forward $137 $-1 #
coedge $-1 $220 $527 $523 $528 forward $137 $-1 #
coedge $-1 $525 $223 $220 $363 forward $357 $-1 #
edge $-1 $369 -22.813607318817368 $529 -9.7374994736926972 $362 $530 forward 7 unknown #
coedge $-1 $531 $532 $221 $365 forward $521 $-1 #
edge $-1 $533 -56.06107903239532 $368 -47.915795428133734 $364 $534 forward 7 unknown #
edge $-1 $369 47.407573901483666 $533 58.544843726170818 $222 $535 forward 7 unknown #
coedge $-1 $223 $525 $531 $536 forward $357 $-1 #
vertex $-1 $365 $537 #
vertex $-1 $224 $538 #
straight-curve $-1 -39.089160715072403 32.872401790902579 10.084142521149573 0 -1 0 I I #
coedge $-1 $371 $371 $-1 $539 reversed $227 $-1 #
edge $-1 $540 0 $540 6.2831853071796004 $228 $541 forward 7 unknown #
vertex $-1 $231 $542 #
ellipse-curve $-1 -35.353129902179639 25.47462203443348 6.0115007190187777 0 0.73135370988377701 0.68199835119979291 1.5 0 0 1 I I #
coedge $-1 $375 $375 $-1 $543 reversed $234 $-1 #
edge $-1 $544 0 $544 6.2831853071796004 $235 $545 forward 7 unknown #
vertex $-1 $238 $546 #
ellipse-curve $-1 -29.749083682840492 25.47462203443348 6.0115007190187777 0 0.73135370988377701 0.68199835119979291 1.5 0 0 1 I I #
face $-1 $-1 $547 $53 $-1 $548 reversed single #
loop $-1 $-1 $245 $239 #
plane-surface $-1 0 0 10.084142521149571 0 0 1 1 0 0 forward_v I I I I #
coedge $-1 $549 $550 $551 $552 reversed $240 $-1 #
coedge $-1 $553 $242 $244 $389 forward $151 $-1 #
coedge $-1 $242 $553 $549 $554 forward $151 $-1 #
coedge $-1 $551 $245 $242 $386 forward $380 $-1 #
edge $-1 $392 -10.707687341386801 $555 2.3684205037378723 $385 $556 forward 7 unknown #
coedge $-1 $557 $558 $243 $388 forward $547 $-1 #
edge $-1 $559 -56.06107903239532 $391 -47.915795428133734 $387 $560 forward 7 unknown #
edge $-1 $392 47.407573901483666 $559 58.544843726170818 $244 $561 forward 7 unknown #
coedge $-1 $245 $551 $557 $562 forward $380 $-1 #
vertex $-1 $246 $563 #
vertex $-1 $246 $564 #
straight-curve $-1 -14.877320760211266 32.872401790902579 10.084142521149573 0 -1 0 I I #
coedge $-1 $394 $394 $-1 $565 reversed $249 $-1 #
edge $-1 $566 0 $566 6.2831853071796004 $250 $567 forward 7 unknown #
vertex $-1 $253 $568 #
ellipse-curve $-1 -11.141289947318498 25.47462203443348 6.0115007190187777 0 0.73135370988377701 0.68199835119979291 1.5 0 0 1 I I #
coedge $-1 $398 $398 $-1 $569 reversed $256 $-1 #
edge $-1 $570 0 $570 6.2831853071796004 $257 $571 forward 7 unknown #
vertex $-1 $260 $572 #
ellipse-curve $-1 -5.5372437279793516 25.47462203443348 6.0115007190187777 0 0.73135370988377701 0.68199835119979291 1.5 0 0 1 I I #
face $-1 $-1 $573 $56 $-1 $574 reversed single #
loop $-1 $-1 $267 $261 #
plane-surface $-1 0 0 10.084142521149571 0 0 1 1 0 0 forward_v I I I I #
coedge $-1 $575 $576 $577 $578 reversed $262 $-1 #
coedge $-1 $579 $264 $266 $412 forward $165 $-1 #
coedge $-1 $264 $579 $575 $580 forward $165 $-1 #
coedge $-1 $577 $267 $264 $409 forward $403 $-1 #
edge $-1 $415 1.3982326360437725 $581 14.474340481168447 $408 $582 forward 7 unknown #
coedge $-1 $583 $584 $265 $411 forward $573 $-1 #
edge $-1 $585 -56.06107903239532 $414 -47.915795428133734 $410 $586 forward 7 unknown #
edge $-1 $415 47.407573901483666 $585 58.544843726170818 $266 $587 forward 7 unknown #
coedge $-1 $267 $577 $583 $588 forward $403 $-1 #
vertex $-1 $268 $589 #
vertex $-1 $268 $590 #
straight-curve $-1 9.3345191946498822 32.872401790902579 10.084142521149573 0 -1 0 I I #
coedge $-1 $417 $417 $-1 $591 reversed $271 $-1 #
edge $-1 $592 0 $592 6.2831853071796004 $272 $593 forward 7 unknown #
vertex $-1 $275 $594 #
ellipse-curve $-1 13.070550007542643 25.47462203443348 6.0115007190187777 0 0.73135370988377701 0.68199835119979291 1.5 0 0 1 I I #
coedge $-1 $421 $421 $-1 $595 reversed $278 $-1 #
edge $-1 $596 0 $596 6.2831853071796004 $279 $597 forward 7 unknown #
vertex $-1 $282 $598 #
ellipse-curve $-1 18.674596226881782 25.47462203443348 6.0115007190187777 0 0.73135370988377701 0.68199835119979291 1.5 0 0 1 I I #
face $-1 $-1 $599 $59 $-1 $600 reversed single #
loop $-1 $-1 $289 $283 #
plane-surface $-1 0 0 10.084142521149571 0 0 1 1 0 0 forward_v I I I I #
coedge $-1 $601 $602 $603 $604 reversed $284 $-1 #
coedge $-1 $605 $286 $288 $435 forward $179 $-1 #
coedge $-1 $286 $605 $601 $606 forward $179 $-1 #
coedge $-1 $603 $289 $286 $432 forward $426 $-1 #
edge $-1 $438 13.50415261347435 $607 26.580260458599017 $431 $608 forward 7 unknown #
coedge $-1 $609 $610 $287 $434 forward $599 $-1 #
edge $-1 $611 -56.06107903239532 $437 -47.915795428133734 $433 $612 forward 7 unknown #
edge $-1 $438 47.407573901483666 $611 58.544843726170818 $288 $613 forward 7 unknown #
coedge $-1 $289 $603 $609 $614 forward $426 $-1 #
vertex $-1 $290 $615 #
vertex $-1 $290 $616 #
straight-curve $-1 33.546359149511034 32.872401790902579 10.084142521149573 0 -1 0 I I #
coedge $-1 $440 $440 $-1 $617 reversed $293 $-1 #
edge $-1 $618 0 $618 6.2831853071796004 $294 $619 forward 7 unknown #
vertex $-1 $297 $620 #
ellipse-curve $-1 37.282389962403776 25.47462203443348 6.0115007190187777 0 0.73135370988377701 0.68199835119979291 1.5 0 0 1 I I #
coedge $-1 $444 $444 $-1 $621 reversed $300 $-1 #
edge $-1 $622 0 $622 6.2831853071796004 $301 $623 forward 7 unknown #
vertex $-1 $304 $624 #
ellipse-curve $-1 42.88643618174293 25.47462203443348 6.0115007190187777 0 0.73135370988377701 0.68199835119979291 1.5 0 0 1 I I #
face $-1 $-1 $625 $62 $-1 $626 reversed single #
loop $-1 $-1 $454 $305 #
plane-surface $-1 0 0 10.084142521149571 0 0 1 1 0 0 forward_v I I I I #
coedge $-1 $627 $628 $453 $629 forward $306 $-1 #
coedge $-1 $453 $308 $310 $459 reversed $193 $-1 #
coedge $-1 $308 $452 $451 $629 reversed $193 $-1 #
coedge $-1 $630 $311 $308 $455 forward $449 $-1 #
edge $-1 $462 -33.971372180475946 $631 -31.046767352249976 $454 $632 forward 7 unknown #
coedge $-1 $310 $309 $627 $633 reversed $123 $-1 #
coedge $-1 $634 $635 $309 $458 forward $625 $-1 #
edge $-1 $636 -4.9931830677564593 $461 1.0392981146968931 $457 $637 forward 7 unknown #
edge $-1 $638 2.2257172995934122e-014 $462 6.0324811824533739 $452 $639 forward 7 unknown #
coedge $-1 $311 $630 $634 $640 forward $449 $-1 #
vertex $-1 $458 $641 #
vertex $-1 $312 $642 #
straight-curve $-1 21.365239948063941 -26.347817034859435 10.084142521149571 -1 0 0 I I #
coedge $-1 $464 $464 $-1 $643 reversed $315 $-1 #
edge $-1 $644 0 $644 6.2831853071796004 $316 $645 forward 7 unknown #
vertex $-1 $319 $646 #
ellipse-curve $-1 42.730479896127882 -27.810119448972422 7.44607903558998 0 -0.87461971476443456 0.48480960649040278 0.5 0 0 1 I I #
face $-1 $-1 $335 $48 $-1 $647 reversed single #
loop $-1 $-1 $484 $320 #
plane-surface $-1 0 29.272421863085402 0 0 -1 0 0 0 -1 forward_v I I I I #
coedge $-1 $648 $482 $485 $649 forward $321 $-1 #
coedge $-1 $488 $323 $324 $476 reversed $202 $-1 #
coedge $-1 $482 $648 $323 $474 reversed $321 $-1 #
edge $-1 $489 -10.084142521149571 $650 10.084142521149571 $473 $651 forward 7 unknown #
coedge $-1 $325 $324 $648 $652 forward $129 $-1 #
edge $-1 $480 -52.231818597979675 $650 52.231818597979675 $472 $653 forward 7 unknown #
coedge $-1 $485 $484 $325 $478 reversed $469 $-1 #
edge $-1 $654 -52.231818597979675 $479 52.231818597979675 $477 $655 forward 7 unknown #
vertex $-1 $327 $656 #
vertex $-1 $491 $657 #
straight-curve $-1 52.231818597979675 0 -10.084142521149571 0 -1 0 I I #
coedge $-1 $471 $473 $328 $483 reversed $321 $-1 #
edge $-1 $486 -29.272421863085402 $489 29.272421863085402 $482 $658 forward 7 unknown #
coedge $-1 $477 $329 $334 $492 forward $469 $-1 #
coedge $-1 $329 $477 $471 $649 reversed $469 $-1 #
vertex $-1 $330 $659 #
straight-curve $-1 0 29.272421863085402 10.084142521149571 -1 0 0 I I #
coedge $-1 $331 $472 $333 $491 reversed $202 $-1 #
vertex $-1 $483 $660 #
straight-curve $-1 0 -29.272421863085402 10.084142521149571 1 0 0 I I #
edge $-1 $336 -10.084142521149571 $480 10.084142521149571 $333 $661 forward 7 unknown #
edge $-1 $337 -10.084142521149571 $479 10.084142521149571 $334 $662 forward 7 unknown #
point $-1 52.231818597979675 -29.272421863085402 10.084142521149571 #
point $-1 52.231818597979675 29.272421863085402 10.084142521149571 #
face $-1 $-1 $512 $49 $-1 $663 reversed single #
loop $-1 $-1 $664 $339 #
plane-surface $-1 -52.231818597979675 0 0 1 0 0 0 0 -1 forward_v I I I I #
coedge $-1 $499 $515 $343 $502 forward $340 $-1 #
coedge $-1 $350 $498 $342 $500 forward $340 $-1 #
edge $-1 $506 -4.5936594771225581 $353 0.11773118593108745 $499 $665 forward 7 unknown #
coedge $-1 $344 $343 $664 $666 reversed $133 $-1 #
edge $-1 $667 -28.019978643118534 $506 -20.403701266603747 $498 $668 forward 7 unknown #
coedge $-1 $511 $510 $344 $504 forward $512 $-1 #
edge $-1 $505 20.403701266603747 $669 28.019978643118534 $503 $670 forward 7 unknown #
vertex $-1 $504 $671 #
vertex $-1 $502 $672 #
straight-curve $-1 -44.615541221464888 0 -6.8316236227182934 0 -1 0 I I #
coedge $-1 $673 $674 $347 $509 forward $496 $-1 #
edge $-1 $516 -29.272421863085402 $513 29.272421863085402 $508 $675 forward 7 unknown #
coedge $-1 $503 $348 $352 $518 forward $512 $-1 #
coedge $-1 $348 $503 $673 $676 reversed $512 $-1 #
loop $-1 $-1 $503 $495 #
vertex $-1 $676 $677 #
straight-curve $-1 -24.211839954861141 29.272421863085402 -2.1202329596646479 1 0 0 I I #
coedge $-1 $498 $350 $674 $678 forward $340 $-1 #
vertex $-1 $678 $679 #
straight-curve $-1 -24.211839954861141 -29.272421863085402 -2.1202329596646479 -1 0 0 I I #
edge $-1 $354 -0.11773118593108745 $505 4.5936594771225581 $510 $680 forward 7 unknown #
point $-1 -44.615541221464888 -29.272421863085402 -2.1202329596646479 #
point $-1 -44.615541221464888 29.272421863085402 -2.1202329596646479 #
loop $-1 $-1 $364 $356 #
plane-surface $-1 0 29.272421863085402 0 0 -1 0 0 0 -1 forward_v I I I I #
coedge $-1 $524 $359 $361 $528 reversed $218 $-1 #
coedge $-1 $359 $523 $681 $682 reversed $218 $-1 #
coedge $-1 $367 $362 $359 $526 forward $357 $-1 #
edge $-1 $529 -11.195579585121024 $683 -3.5999799278171771 $525 $684 forward 7 unknown #
coedge $-1 $361 $360 $532 $685 reversed $137 $-1 #
edge $-1 $686 -58.544843726170818 $529 -47.407573901483666 $523 $687 forward 7 unknown #
vertex $-1 $363 $688 #
straight-curve $-1 -16.275553396255034 21.676822205781558 10.084142521149577 1 0 0 I I #
coedge $-1 $681 $364 $367 $536 reversed $521 $-1 #
coedge $-1 $364 $681 $527 $685 forward $521 $-1 #
vertex $-1 $365 $689 #
straight-curve $-1 -39.089160715072403 29.272421863085402 57.999937949283307 0 0 1 I I #
straight-curve $-1 -39.089160715072403 -10.65506502941264 44.755847570588983 0 0.68199835119979291 -0.73135370988377701 I I #
edge $-1 $683 26.013052869947732 $368 39.089160715072403 $531 $690 forward 7 unknown #
point $-1 -39.089160715072403 29.272421863085402 10.084142521149571 #
point $-1 -39.089160715072403 21.676822205781555 10.084142521149573 #
edge $-1 $691 1 $691 0 $371 $-1 forward 7 unknown #
vertex $-1 $372 $692 #
ellipse-curve $-1 -35.353129902179639 21.356781697486781 2.1715525758037271 0 0.73135370988377701 0.68199835119979291 1.5 0 0 1 I I #
point $-1 -33.853129902179639 25.474622034433487 6.0115007190187848 #
edge $-1 $693 1 $693 0 $375 $-1 forward 7 unknown #
vertex $-1 $376 $694 #
ellipse-curve $-1 -29.749083682840492 21.356781697486781 2.1715525758037271 0 0.73135370988377701 0.68199835119979291 1.5 0 0 1 I I #
point $-1 -28.249083682840492 25.474622034433487 6.0115007190187848 #
loop $-1 $-1 $387 $379 #
plane-surface $-1 0 29.272421863085402 0 0 -1 0 0 0 -1 forward_v I I I I #
coedge $-1 $550 $382 $384 $554 reversed $240 $-1 #
coedge $-1 $382 $549 $695 $696 reversed $240 $-1 #
coedge $-1 $390 $385 $382 $552 forward $380 $-1 #
edge $-1 $555 -11.195579585121024 $697 -3.5999799278171771 $551 $698 forward 7 unknown #
coedge $-1 $384 $383 $558 $699 reversed $151 $-1 #
edge $-1 $700 -58.544843726170818 $555 -47.407573901483666 $549 $701 forward 7 unknown #
vertex $-1 $386 $702 #
straight-curve $-1 -4.1696334188244641 21.676822205781558 10.084142521149577 1 0 0 I I #
coedge $-1 $695 $387 $390 $562 reversed $547 $-1 #
coedge $-1 $387 $695 $553 $699 forward $547 $-1 #
vertex $-1 $388 $703 #
straight-curve $-1 -14.877320760211266 29.272421863085402 57.999937949283307 0 0 1 I I #
straight-curve $-1 -14.877320760211266 -10.65506502941264 44.755847570588983 0 0.68199835119979291 -0.73135370988377701 I I #
edge $-1 $697 1.8012129150865919 $391 14.877320760211266 $557 $704 forward 7 unknown #
point $-1 -14.877320760211266 29.272421863085402 10.084142521149571 #
point $-1 -14.877320760211266 21.676822205781555 10.084142521149573 #
edge $-1 $705 1 $705 0 $394 $-1 forward 7 unknown #
vertex $-1 $395 $706 #
ellipse-curve $-1 -11.141289947318498 21.356781697486781 2.1715525758037271 0 0.73135370988377701 0.68199835119979291 1.5 0 0 1 I I #
point $-1 -9.6412899473184979 25.474622034433487 6.0115007190187848 #
edge $-1 $707 1 $707 0 $398 $-1 forward 7 unknown #
vertex $-1 $399 $708 #
ellipse-curve $-1 -5.5372437279793516 21.356781697486781 2.1715525758037271 0 0.73135370988377701 0.68199835119979291 1.5 0 0 1 I I #
point $-1 -4.0372437279793516 25.474622034433487 6.0115007190187848 #
loop $-1 $-1 $410 $402 #
plane-surface $-1 0 29.272421863085402 0 0 -1 0 0 0 -1 forward_v I I I I #
coedge $-1 $576 $405 $407 $580 reversed $262 $-1 #
coedge $-1 $405 $575 $709 $710 reversed $262 $-1 #
coedge $-1 $413 $408 $405 $578 forward $403 $-1 #
edge $-1 $581 -11.195579585121024 $711 -3.5999799278171771 $577 $712 forward 7 unknown #
coedge $-1 $407 $406 $584 $713 reversed $165 $-1 #
edge $-1 $714 -58.544843726170818 $581 -47.407573901483666 $575 $715 forward 7 unknown #
vertex $-1 $409 $716 #
straight-curve $-1 7.9362865586061098 21.676822205781558 10.084142521149577 1 0 0 I I #
coedge $-1 $709 $410 $413 $588 reversed $573 $-1 #
coedge $-1 $410 $709 $579 $713 forward $573 $-1 #
vertex $-1 $411 $717 #
straight-curve $-1 9.3345191946498822 29.272421863085402 57.999937949283307 0 0 1 I I #
straight-curve $-1 9.3345191946498822 -10.65506502941264 44.755847570588983 0 0.68199835119979291 -0.73135370988377701 I I #
edge $-1 $711 -22.410627039774557 $414 -9.3345191946498822 $583 $718 forward 7 unknown #
point $-1 9.3345191946498822 29.272421863085402 10.084142521149571 #
point $-1 9.3345191946498822 21.676822205781555 10.084142521149573 #
edge $-1 $719 1 $719 0 $417 $-1 forward 7 unknown #
vertex $-1 $418 $720 #
ellipse-curve $-1 13.070550007542643 21.356781697486781 2.1715525758037271 0 0.73135370988377701 0.68199835119979291 1.5 0 0 1 I I #
point $-1 14.570550007542643 25.474622034433487 6.0115007190187848 #
edge $-1 $721 1 $721 0 $421 $-1 forward 7 unknown #
vertex $-1 $422 $722 #
ellipse-curve $-1 18.674596226881782 21.356781697486781 2.1715525758037271 0 0.73135370988377701 0.68199835119979291 1.5 0 0 1 I I #
point $-1 20.174596226881782 25.474622034433487 6.0115007190187848 #
loop $-1 $-1 $433 $425 #
plane-surface $-1 0 29.272421863085402 0 0 -1 0 0 0 -1 forward_v I I I I #
coedge $-1 $602 $428 $430 $606 reversed $284 $-1 #
coedge $-1 $428 $601 $723 $724 reversed $284 $-1 #
coedge $-1 $436 $431 $428 $604 forward $426 $-1 #
edge $-1 $607 -11.195579585121024 $725 -3.5999799278171771 $603 $726 forward 7 unknown #
coedge $-1 $430 $429 $610 $727 reversed $179 $-1 #
edge $-1 $728 -58.544843726170818 $607 -47.407573901483666 $601 $729 forward 7 unknown #
vertex $-1 $432 $730 #
straight-curve $-1 20.042206536036684 21.676822205781558 10.084142521149577 1 0 0 I I #
coedge $-1 $723 $433 $436 $614 reversed $599 $-1 #
coedge $-1 $433 $723 $605 $727 forward $599 $-1 #
vertex $-1 $434 $731 #
straight-curve $-1 33.546359149511034 29.272421863085402 57.999937949283307 0 0 1 I I #
straight-curve $-1 33.546359149511034 -10.65506502941264 44.755847570588983 0 0.68199835119979291 -0.73135370988377701 I I #
edge $-1 $725 -46.622466994635701 $437 -33.546359149511034 $609 $732 forward 7 unknown #
point $-1 33.546359149511034 29.272421863085402 10.084142521149571 #
point $-1 33.546359149511034 21.676822205781555 10.084142521149573 #
edge $-1 $733 1 $733 0 $440 $-1 forward 7 unknown #
vertex $-1 $441 $734 #
ellipse-curve $-1 37.282389962403776 21.356781697486781 2.1715525758037271 0 0.73135370988377701 0.68199835119979291 1.5 0 0 1 I I #
point $-1 38.782389962403776 25.474622034433487 6.0115007190187848 #
edge $-1 $735 1 $735 0 $444 $-1 forward 7 unknown #
vertex $-1 $445 $736 #
ellipse-curve $-1 42.88643618174293 21.356781697486781 2.1715525758037271 0 0.73135370988377701 0.68199835119979291 1.5 0 0 1 I I #
point $-1 44.38643618174293 25.474622034433487 6.0115007190187848 #
loop $-1 $-1 $457 $448 #
plane-surface $-1 52.231818597979675 0 0 -1 0 0 0 0 1 forward_v I I I I #
coedge $-1 $737 $451 $456 $633 forward $306 $-1 #
coedge $-1 $451 $737 $630 $738 reversed $306 $-1 #
edge $-1 $631 17.642352674630246 $638 22.918479645749414 $451 $739 forward 7 unknown #
coedge $-1 $460 $454 $628 $738 forward $449 $-1 #
vertex $-1 $738 $740 #
straight-curve $-1 33.229141194276096 -60.319189215335378 10.084142521149573 0 -1 0 I I #
edge $-1 $638 11.863901246212155 $636 30.866578649915727 $627 $741 forward 7 unknown #
coedge $-1 $635 $457 $460 $640 reversed $625 $-1 #
coedge $-1 $457 $634 $737 $742 forward $625 $-1 #
vertex $-1 $633 $743 #
straight-curve $-1 52.231818597979675 -26.851678744871855 9.1751519005181628 0 0.48480960649040278 0.87461971476443456 I I #
vertex $-1 $633 $744 #
straight-curve $-1 33.229141194276096 -29.272421863085412 4.8080155500303832 0 0.48480960649040278 0.87461971476443456 I I #
edge $-1 $745 -29.272421863085402 $461 -26.347817034859432 $634 $746 forward 7 unknown #
point $-1 52.231818597979668 -26.347817034859432 10.084142521149571 #
point $-1 33.229141194276096 -26.347817034859432 10.084142521149571 #
edge $-1 $747 1 $747 0 $464 $-1 forward 7 unknown #
vertex $-1 $465 $748 #
ellipse-curve $-1 42.730479896127882 -26.501539734127402 6.7207214820088712 0 -0.87461971476443456 0.48480960649040278 0.5 0 0 1 I I #
point $-1 43.230479896127882 -27.810119448972412 7.4460790355899746 #
plane-surface $-1 52.231818597979675 0 0 -1 0 0 0 0 1 forward_v I I I I #
coedge $-1 $473 $471 $475 $652 reversed $321 $-1 #
edge $-1 $486 -10.084142521149571 $654 10.084142521149571 $485 $749 forward 7 unknown #
vertex $-1 $652 $750 #
straight-curve $-1 -52.231818597979675 -29.272421863085402 0 0 0 -1 I I #
edge $-1 $650 -29.272421863085402 $654 29.272421863085402 $648 $751 forward 7 unknown #
straight-curve $-1 0 -29.272421863085402 -10.084142521149571 -1 0 0 I I #
vertex $-1 $478 $752 #
straight-curve $-1 0 29.272421863085402 -10.084142521149571 1 0 0 I I #
point $-1 52.231818597979675 29.272421863085402 -10.084142521149571 #
point $-1 52.231818597979675 -29.272421863085402 -10.084142521149571 #
straight-curve $-1 -52.231818597979675 0 10.084142521149571 0 -1 0 I I #
point $-1 -52.231818597979675 29.272421863085402 10.084142521149571 #
point $-1 -52.231818597979675 -29.272421863085402 10.084142521149571 #
straight-curve $-1 52.231818597979675 -29.272421863085402 0 0 0 -1 I I #
straight-curve $-1 52.231818597979675 29.272421863085402 0 0 0 -1 I I #
plane-surface $-1 0 29.272421863085402 0 0 -1 0 0 0 -1 forward_v I I I I #
coedge $-1 $674 $673 $501 $666 forward $496 $-1 #
straight-curve $-1 -44.615541221464888 -29.272421863085402 -2.2379641455957353 0 0 1 I I #
edge $-1 $669 -29.272421863085402 $667 29.272421863085402 $664 $753 forward 7 unknown #
vertex $-1 $502 $754 #
straight-curve $-1 -24.211839954861141 -29.272421863085402 -6.8316236227182934 1 0 0 I I #
vertex $-1 $504 $755 #
straight-curve $-1 -24.211839954861141 29.272421863085402 -6.8316236227182934 -1 0 0 I I #
point $-1 -44.615541221464888 29.272421863085402 -6.8316236227182934 #
point $-1 -44.615541221464888 -29.272421863085402 -6.8316236227182934 #
coedge $-1 $664 $508 $511 $676 forward $496 $-1 #
coedge $-1 $508 $664 $515 $678 reversed $496 $-1 #
straight-curve $-1 -52.231818597979675 0 -2.1202329596646479 0 1 0 I I #
edge $-1 $513 2.1202329596646479 $669 6.8316236227182934 $511 $756 forward 7 unknown #
point $-1 -52.231818597979675 29.272421863085402 -2.1202329596646479 #
edge $-1 $516 2.1202329596646479 $667 6.8316236227182934 $674 $757 forward 7 unknown #
point $-1 -52.231818597979675 -29.272421863085402 -2.1202329596646479 #
straight-curve $-1 -44.615541221464888 29.272421863085402 -2.2379641455957353 0 0 -1 I I #
coedge $-1 $532 $531 $524 $682 forward $521 $-1 #
edge $-1 $683 47.915795428133734 $686 56.06107903239532 $681 $758 forward 7 unknown #
vertex $-1 $536 $759 #
straight-curve $-1 -26.013052869947732 32.872401790902579 10.084142521149573 0 1 0 I I #
edge $-1 $686 9.7374994736926972 $533 22.813607318817368 $532 $760 forward 7 unknown #
vertex $-1 $685 $761 #
straight-curve $-1 -26.013052869947732 -10.65506502941264 44.755847570588983 0 -0.68199835119979291 0.73135370988377701 I I #
point $-1 -26.013052869947732 21.676822205781555 10.084142521149573 #
point $-1 -39.089160715072403 29.272421863085398 1.9388589168879875 #
straight-curve $-1 0 29.272421863085402 10.084142521149571 -1 0 0 I I #
vertex $-1 $539 $762 #
point $-1 -33.853129902179639 21.356781697486781 2.1715525758037271 #
vertex $-1 $543 $763 #
point $-1 -28.249083682840492 21.356781697486781 2.1715525758037271 #
coedge $-1 $558 $557 $550 $696 forward $547 $-1 #
edge $-1 $697 47.915795428133734 $700 56.06107903239532 $695 $764 forward 7 unknown #
vertex $-1 $562 $765 #
straight-curve $-1 -1.8012129150865919 32.872401790902579 10.084142521149573 0 1 0 I I #
edge $-1 $700 -2.3684205037378723 $559 10.707687341386801 $558 $766 forward 7 unknown #
vertex $-1 $699 $767 #
straight-curve $-1 -1.8012129150865919 -10.65506502941264 44.755847570588983 0 -0.68199835119979291 0.73135370988377701 I I #
point $-1 -1.8012129150865919 21.676822205781555 10.084142521149573 #
point $-1 -14.877320760211266 29.272421863085398 1.9388589168879875 #
straight-curve $-1 0 29.272421863085402 10.084142521149571 -1 0 0 I I #
vertex $-1 $565 $768 #
point $-1 -9.6412899473184979 21.356781697486781 2.1715525758037271 #
vertex $-1 $569 $769 #
point $-1 -4.0372437279793516 21.356781697486781 2.1715525758037271 #
coedge $-1 $584 $583 $576 $710 forward $573 $-1 #
edge $-1 $711 47.915795428133734 $714 56.06107903239532 $709 $770 forward 7 unknown #
vertex $-1 $588 $771 #
straight-curve $-1 22.410627039774557 32.872401790902579 10.084142521149573 0 1 0 I I #
edge $-1 $714 -14.474340481168447 $585 -1.3982326360437725 $584 $772 forward 7 unknown #
vertex $-1 $713 $773 #
straight-curve $-1 22.410627039774557 -10.65506502941264 44.755847570588983 0 -0.68199835119979291 0.73135370988377701 I I #
point $-1 22.410627039774557 21.676822205781555 10.084142521149573 #
point $-1 9.3345191946498822 29.272421863085398 1.9388589168879875 #
straight-curve $-1 0 29.272421863085402 10.084142521149571 -1 0 0 I I #
vertex $-1 $591 $774 #
point $-1 14.570550007542643 21.356781697486781 2.1715525758037271 #
vertex $-1 $595 $775 #
point $-1 20.174596226881782 21.356781697486781 2.1715525758037271 #
coedge $-1 $610 $609 $602 $724 forward $599 $-1 #
edge $-1 $725 47.915795428133734 $728 56.06107903239532 $723 $776 forward 7 unknown #
vertex $-1 $614 $777 #
straight-curve $-1 46.622466994635701 32.872401790902579 10.084142521149573 0 1 0 I I #
edge $-1 $728 -26.580260458599017 $611 -13.50415261347435 $610 $778 forward 7 unknown #
vertex $-1 $727 $779 #
straight-curve $-1 46.622466994635701 -10.65506502941264 44.755847570588983 0 -0.68199835119979291 0.73135370988377701 I I #
point $-1 46.622466994635701 21.676822205781555 10.084142521149573 #
point $-1 33.546359149511034 29.272421863085398 1.9388589168879875 #
straight-curve $-1 0 29.272421863085402 10.084142521149571 -1 0 0 I I #
vertex $-1 $617 $780 #
point $-1 38.782389962403776 21.356781697486781 2.1715525758037271 #
vertex $-1 $621 $781 #
point $-1 44.38643618174293 21.356781697486781 2.1715525758037271 #
coedge $-1 $628 $627 $635 $742 reversed $306 $-1 #
edge $-1 $631 33.229141194276096 $745 52.231818597979675 $628 $782 forward 7 unknown #
straight-curve $-1 33.229141194276096 -29.272421863085398 27.726495195779819 0 0 -1 I I #
point $-1 33.229141194276096 -29.272421863085402 10.084142521149571 #
straight-curve $-1 21.365239948063941 -29.272421863085402 4.8080155500303992 1 0 0 I I #
edge $-1 $745 -10.084142521149571 $636 -4.8080155500304027 $635 $783 forward 7 unknown #
point $-1 52.231818597979668 -29.272421863085402 4.8080155500304027 #
point $-1 33.229141194276096 -29.272421863085402 4.8080155500304027 #
vertex $-1 $640 $784 #
straight-curve $-1 52.231818597979675 0 10.084142521149571 0 1 0 I I #
vertex $-1 $643 $785 #
point $-1 43.230479896127882 -26.501539734127402 6.7207214820088712 #
straight-curve $-1 -52.231818597979675 29.272421863085402 0 0 0 -1 I I #
point $-1 -52.231818597979675 -29.272421863085402 -10.084142521149571 #
straight-curve $-1 -52.231818597979675 0 -10.084142521149571 0 1 0 I I #
point $-1 -52.231818597979675 29.272421863085402 -10.084142521149571 #
straight-curve $-1 -52.231818597979675 0 -6.8316236227182934 0 -1 0 I I #
point $-1 -52.231818597979675 -29.272421863085402 -6.8316236227182934 #
point $-1 -52.231818597979675 29.272421863085402 -6.8316236227182934 #
straight-curve $-1 -52.231818597979675 29.272421863085402 0 0 0 -1 I I #
straight-curve $-1 -52.231818597979675 -29.272421863085402 0 0 0 -1 I I #
straight-curve $-1 -26.013052869947732 29.272421863085402 57.999937949283307 0 0 -1 I I #
point $-1 -26.013052869947732 29.272421863085402 10.084142521149571 #
straight-curve $-1 -16.275553396255034 29.272421863085398 1.9388589168879875 -1 0 0 I I #
point $-1 -26.013052869947732 29.272421863085398 1.9388589168879875 #
point $-1 -35.353129902179639 20.259751132661115 1.1485550490040377 #
point $-1 -29.749083682840492 20.259751132661115 1.1485550490040377 #
straight-curve $-1 -1.8012129150865919 29.272421863085402 57.999937949283307 0 0 -1 I I #
point $-1 -1.8012129150865919 29.272421863085402 10.084142521149571 #
straight-curve $-1 -4.1696334188244641 29.272421863085398 1.9388589168879875 -1 0 0 I I #
point $-1 -1.8012129150865919 29.272421863085398 1.9388589168879875 #
point $-1 -11.141289947318498 20.259751132661115 1.1485550490040377 #
point $-1 -5.5372437279793516 20.259751132661115 1.1485550490040377 #
straight-curve $-1 22.410627039774557 29.272421863085402 57.999937949283307 0 0 -1 I I #
point $-1 22.410627039774557 29.272421863085402 10.084142521149571 #
straight-curve $-1 7.9362865586061098 29.272421863085398 1.9388589168879875 -1 0 0 I I #
point $-1 22.410627039774557 29.272421863085398 1.9388589168879875 #
point $-1 13.070550007542643 20.259751132661115 1.1485550490040377 #
point $-1 18.674596226881782 20.259751132661115 1.1485550490040377 #
straight-curve $-1 46.622466994635701 29.272421863085402 57.999937949283307 0 0 -1 I I #
point $-1 46.622466994635701 29.272421863085402 10.084142521149571 #
straight-curve $-1 20.042206536036684 29.272421863085398 1.9388589168879875 -1 0 0 I I #
point $-1 46.622466994635701 29.272421863085398 1.9388589168879875 #
point $-1 37.282389962403776 20.259751132661115 1.1485550490040377 #
point $-1 42.88643618174293 20.259751132661115 1.1485550490040377 #
straight-curve $-1 0 -29.272421863085402 10.084142521149571 1 0 0 I I #
straight-curve $-1 52.231818597979675 -29.272421863085402 0 0 0 -1 I I #
point $-1 52.231818597979675 -29.272421863085402 10.084142521149571 #
point $-1 42.730479896127882 -26.064229876745184 6.4783166787636706 #
End-of-ACIS-data 