500 0 7 0           
7 Unknown 11 ACIS 5.0 NT 24 Fri Mar 26 01:54:14 1999 
-1 9.9999999999999995e-007 1e-010 
body $-1 $7 $-1 $8 #
body $-1 $9 $-1 $10 #
body $-1 $11 $-1 $12 #
body $-1 $13 $-1 $14 #
body $-1 $15 $-1 $16 #
body $-1 $17 $-1 $18 #
body $-1 $19 $-1 $20 #
lump $-1 $-1 $21 $0 #
transform $-1 1 0 0 0 1 0 0 0 1 79.132053590502636 52.40968048983337 21.338307029841548 1 rotate no_reflect no_shear #
lump $-1 $-1 $22 $1 #
transform $-1 1 0 0 0 1 0 0 0 1 79.132053590502636 52.40968048983337 21.338307029841548 1 rotate no_reflect no_shear #
lump $-1 $-1 $23 $2 #
transform $-1 1 0 0 0 1 0 0 0 1 79.132053590502636 52.40968048983337 21.338307029841548 1 rotate no_reflect no_shear #
lump $-1 $-1 $24 $3 #
transform $-1 1 0 0 0 1 0 0 0 1 79.132053590502636 52.40968048983337 21.338307029841548 1 rotate no_reflect no_shear #
lump $-1 $-1 $25 $4 #
transform $-1 1 0 0 0 1 0 0 0 1 79.132053590502636 52.40968048983337 21.338307029841548 1 rotate no_reflect no_shear #
lump $-1 $-1 $26 $5 #
transform $-1 1 0 0 0 1 0 0 0 1 79.132053590502636 52.40968048983337 21.338307029841548 1 rotate no_reflect no_shear #
lump $-1 $-1 $27 $6 #
transform $-1 1 0 0 0 1 0 0 0 1 79.132053590502636 52.40968048983337 21.338307029841548 1 rotate no_reflect no_shear #
shell $-1 $-1 $-1 $28 $-1 $7 #
shell $-1 $-1 $-1 $29 $-1 $9 #
shell $-1 $-1 $-1 $30 $-1 $11 #
shell $-1 $-1 $-1 $31 $-1 $13 #
shell $-1 $-1 $-1 $32 $-1 $15 #
shell $-1 $-1 $-1 $33 $-1 $17 #
shell $-1 $-1 $-1 $34 $-1 $19 #
face $-1 $35 $36 $21 $-1 $37 forward single #
face $-1 $38 $39 $22 $-1 $40 forward single #
face $-1 $41 $42 $23 $-1 $43 forward single #
face $-1 $44 $45 $24 $-1 $46 reversed single #
face $-1 $47 $48 $25 $-1 $49 forward single #
face $-1 $50 $51 $26 $-1 $52 reversed single #
face $-1 $53 $54 $27 $-1 $55 forward single #
face $-1 $56 $57 $21 $-1 $58 reversed single #
loop $-1 $-1 $59 $28 #
plane-surface $-1 0 0 21.338307029841548 0 0 1 1 0 0 forward_v I I I I #
face $-1 $60 $61 $22 $-1 $62 reversed single #
loop $-1 $-1 $63 $29 #
plane-surface $-1 -79.132053590502636 0 0 1 0 0 0 0 -1 forward_v I I I I #
face $-1 $64 $65 $23 $-1 $66 reversed single #
loop $-1 $-1 $67 $30 #
plane-surface $-1 79.132053590502636 0 0 -1 0 0 0 0 1 forward_v I I I I #
face $-1 $68 $69 $24 $-1 $70 reversed single #
loop $-1 $-1 $71 $31 #
plane-surface $-1 -56.261923504109831 118.83676073615732 194.75056305039766 1 0 0 0 -0.80901700255871778 -0.5877852410284794 forward_v I I I I #
face $-1 $72 $73 $25 $-1 $74 forward single #
loop $-1 $75 $76 $32 #
cone-surface $-1 -49.279964229694663 50.101486527253662 18.619373741645202 0 -0.80901700255871778 -0.5877852410284794 1 0 0 1 I I 0 1 1 forward I I I I #
face $-1 $77 $78 $26 $-1 $79 reversed single #
loop $-1 $-1 $80 $33 #
plane-surface $-1 -42.298004955279495 -180.4480340940419 109.94991782050745 -1 0 0 0 -0.80901700255871778 0.5877852410284794 forward_v I I I I #
face $-1 $81 $82 $27 $-1 $83 forward single #
loop $-1 $84 $85 $34 #
cone-surface $-1 -49.279964229694663 -50.101486527253662 18.619373741645195 0 0.80901700255871778 -0.5877852410284794 1 0 0 1 I I 0 1 1 forward I I I I #
face $-1 $86 $87 $21 $-1 $88 reversed single #
loop $-1 $-1 $89 $35 #
plane-surface $-1 0 0 -21.338307029841548 0 0 1 1 0 0 forward_v I I I I #
coedge $-1 $90 $91 $92 $93 forward $36 $-1 #
face $-1 $94 $95 $22 $-1 $96 forward single #
loop $-1 $-1 $97 $38 #
plane-surface $-1 0 52.40968048983337 0 0 -1 0 0 0 -1 forward_v I I I I #
coedge $-1 $98 $99 $100 $101 forward $39 $-1 #
face $-1 $102 $103 $23 $-1 $104 forward single #
loop $-1 $-1 $105 $41 #
plane-surface $-1 0 -52.40968048983337 0 0 1 0 0 0 1 forward_v I I I I #
coedge $-1 $106 $107 $108 $109 forward $42 $-1 #
face $-1 $110 $111 $24 $-1 $112 reversed single #
loop $-1 $-1 $113 $44 #
plane-surface $-1 -49.279964229694663 -9.2015928680512218 101.72525666485338 0 0.80901700255871778 0.5877852410284794 1 0 0 forward_v I I I I #
coedge $-1 $114 $115 $116 $117 reversed $45 $-1 #
face $-1 $-1 $118 $25 $-1 $119 forward single #
loop $-1 $120 $121 $47 #
cone-surface $-1 -49.279964229694663 48.992152794123847 17.813395630373794 0 -0.80901700255871778 -0.5877852410284794 0.5 0 0 1 I I -0.70710678118654746 0.70710678118654746 0.5 forward I I I I #
loop $-1 $-1 $122 $32 #
coedge $-1 $76 $76 $123 $124 reversed $48 $-1 #
face $-1 $125 $126 $26 $-1 $127 reversed single #
loop $-1 $-1 $128 $50 #
plane-surface $-1 -49.279964229694663 -52.409680489833363 16.924611434963168 0 -0.80901700255871778 0.5877852410284794 1 0 0 forward_v I I I I #
coedge $-1 $129 $130 $131 $132 reversed $51 $-1 #
face $-1 $-1 $133 $27 $-1 $134 forward single #
loop $-1 $135 $136 $53 #
cone-surface $-1 -49.279964229694663 -48.992152794123847 17.813395630373787 0 0.80901700255871778 -0.5877852410284794 0.5 0 0 1 I I -0.70710678118654746 0.70710678118654746 0.5 forward I I I I #
loop $-1 $-1 $137 $34 #
coedge $-1 $85 $85 $138 $139 reversed $54 $-1 #
face $-1 $140 $141 $21 $-1 $142 reversed single #
loop $-1 $-1 $143 $56 #
plane-surface $-1 0 -52.40968048983337 0 0 1 0 0 0 1 forward_v I I I I #
coedge $-1 $144 $145 $146 $147 forward $57 $-1 #
coedge $-1 $148 $59 $149 $150 forward $36 $-1 #
coedge $-1 $59 $148 $151 $152 forward $36 $-1 #
coedge $-1 $153 $154 $59 $93 reversed $155 $-1 #
edge $-1 $156 -52.40968048983337 $157 52.40968048983337 $92 $158 forward 7 unknown #
face $-1 $159 $160 $22 $-1 $161 reversed single #
loop $-1 $-1 $100 $60 #
plane-surface $-1 -90.567118633699039 0 -9.9819948417582189 0 0 1 1 0 0 forward_v I I I I #
coedge $-1 $162 $163 $99 $164 forward $61 $-1 #
coedge $-1 $165 $63 $166 $167 reversed $39 $-1 #
coedge $-1 $63 $165 $97 $164 reversed $39 $-1 #
coedge $-1 $168 $169 $63 $101 reversed $95 $-1 #
edge $-1 $170 -52.40968048983337 $171 52.40968048983337 $100 $172 forward 7 unknown #
face $-1 $173 $174 $23 $-1 $175 reversed single #
loop $-1 $-1 $176 $64 #
plane-surface $-1 90.567118633699039 0 -9.9819948417582189 0 0 1 1 0 0 forward_v I I I I #
coedge $-1 $177 $178 $107 $179 forward $65 $-1 #
coedge $-1 $180 $67 $181 $182 reversed $42 $-1 #
coedge $-1 $67 $180 $105 $179 reversed $42 $-1 #
coedge $-1 $183 $184 $67 $109 reversed $103 $-1 #
edge $-1 $185 -52.40968048983337 $186 52.40968048983337 $108 $187 forward 7 unknown #
face $-1 $188 $189 $24 $-1 $190 reversed single #
loop $-1 $-1 $191 $68 #
plane-surface $-1 -42.298004955279495 118.83676073615732 194.75056305039766 -1 0 0 0 0.80901700255871778 0.5877852410284794 forward_v I I I I #
coedge $-1 $192 $193 $194 $195 reversed $69 $-1 #
coedge $-1 $115 $71 $196 $197 reversed $45 $-1 #
coedge $-1 $71 $114 $192 $198 reversed $45 $-1 #
coedge $-1 $194 $199 $71 $117 forward $200 $-1 #
edge $-1 $201 7.0086998782452881 $202 10.215437339703804 $116 $203 forward 7 unknown #
loop $-1 $-1 $123 $72 #
plane-surface $-1 -49.279964229694663 -9.2015928680512218 101.72525666485338 0 0.80901700255871778 0.5877852410284794 1 0 0 forward_v I I I I #
loop $-1 $-1 $204 $47 #
coedge $-1 $121 $121 $122 $205 reversed $73 $-1 #
coedge $-1 $122 $122 $121 $205 forward $75 $-1 #
coedge $-1 $123 $123 $76 $124 forward $118 $-1 #
edge $-1 $206 0 $206 6.2831853071796004 $123 $207 forward 7 unknown #
face $-1 $208 $209 $26 $-1 $210 forward single #
loop $-1 $-1 $211 $77 #
plane-surface $-1 -56.261923504109831 -180.4480340940419 109.94991782050745 1 0 0 0 0.80901700255871778 -0.5877852410284794 forward_v I I I I #
coedge $-1 $212 $213 $214 $215 reversed $78 $-1 #
coedge $-1 $130 $80 $216 $217 reversed $51 $-1 #
coedge $-1 $80 $129 $212 $218 reversed $51 $-1 #
coedge $-1 $214 $219 $80 $132 forward $209 $-1 #
edge $-1 $220 37.81433655718758 $221 41.021074018646111 $131 $222 forward 7 unknown #
loop $-1 $-1 $138 $81 #
plane-surface $-1 -49.279964229694663 -52.409680489833363 16.924611434963168 0 -0.80901700255871778 0.5877852410284794 1 0 0 forward_v I I I I #
loop $-1 $-1 $223 $53 #
coedge $-1 $136 $136 $137 $224 reversed $82 $-1 #
coedge $-1 $137 $137 $136 $224 forward $84 $-1 #
coedge $-1 $138 $138 $85 $139 forward $133 $-1 #
edge $-1 $225 -1.30225956062532e-015 $225 6.2831853071795996 $138 $226 forward 7 unknown #
face $-1 $227 $228 $21 $-1 $229 reversed single #
loop $-1 $-1 $230 $86 #
plane-surface $-1 -79.132053590502636 0 0 1 0 0 0 0 -1 forward_v I I I I #
coedge $-1 $231 $151 $232 $233 forward $87 $-1 #
coedge $-1 $234 $89 $231 $235 forward $57 $-1 #
coedge $-1 $89 $234 $236 $237 forward $57 $-1 #
coedge $-1 $154 $153 $89 $147 reversed $155 $-1 #
edge $-1 $238 -52.40968048983337 $239 52.40968048983337 $146 $240 forward 7 unknown #
coedge $-1 $91 $90 $241 $242 forward $36 $-1 #
coedge $-1 $243 $244 $90 $150 reversed $228 $-1 #
edge $-1 $157 -79.132053590502636 $245 79.132053590502636 $149 $246 forward 7 unknown #
coedge $-1 $143 $247 $91 $152 reversed $87 $-1 #
edge $-1 $248 -79.132053590502636 $156 79.132053590502636 $151 $249 forward 7 unknown #
coedge $-1 $146 $92 $247 $250 forward $155 $-1 #
coedge $-1 $92 $146 $243 $251 reversed $155 $-1 #
loop $-1 $-1 $153 $227 #
vertex $-1 $93 $252 #
vertex $-1 $93 $253 #
straight-curve $-1 79.132053590502636 0 21.338307029841548 0 1 0 I I #
face $-1 $254 $255 $22 $-1 $256 reversed single #
loop $-1 $-1 $257 $94 #
plane-surface $-1 -90.567118633699039 0 -16.220748740720222 0 0 1 1 0 0 forward_v I I I I #
coedge $-1 $258 $97 $259 $260 reversed $61 $-1 #
coedge $-1 $97 $258 $168 $261 reversed $61 $-1 #
edge $-1 $170 9.9819948417582189 $262 16.220748740720222 $97 $263 forward 7 unknown #
coedge $-1 $99 $98 $257 $264 forward $39 $-1 #
coedge $-1 $265 $266 $98 $167 forward $267 $-1 #
edge $-1 $268 -16.220748740720222 $171 -9.9819948417582189 $166 $269 forward 7 unknown #
coedge $-1 $270 $100 $163 $261 forward $95 $-1 #
coedge $-1 $100 $270 $265 $271 forward $95 $-1 #
vertex $-1 $164 $272 #
vertex $-1 $271 $273 #
straight-curve $-1 -79.132053590502636 0 -9.9819948417582189 0 -1 0 I I #
face $-1 $274 $275 $23 $-1 $276 reversed single #
loop $-1 $-1 $277 $102 #
plane-surface $-1 90.567118633699039 0 -16.220748740720222 0 0 1 1 0 0 forward_v I I I I #
coedge $-1 $184 $183 $278 $279 forward $103 $-1 #
coedge $-1 $280 $105 $281 $282 reversed $65 $-1 #
coedge $-1 $105 $280 $183 $283 reversed $65 $-1 #
edge $-1 $185 9.9819948417582189 $284 16.220748740720222 $105 $285 forward 7 unknown #
coedge $-1 $107 $106 $286 $287 forward $42 $-1 #
coedge $-1 $288 $289 $106 $182 forward $290 $-1 #
edge $-1 $291 -16.220748740720222 $186 -9.9819948417582189 $181 $292 forward 7 unknown #
coedge $-1 $176 $108 $178 $283 forward $103 $-1 #
coedge $-1 $108 $176 $288 $293 forward $103 $-1 #
vertex $-1 $179 $294 #
vertex $-1 $293 $295 #
straight-curve $-1 79.132053590502636 0 -9.9819948417582189 0 1 0 I I #
face $-1 $-1 $200 $24 $-1 $296 forward single #
loop $-1 $-1 $297 $110 #
plane-surface $-1 0 52.40968048983337 0 0 -1 0 0 0 -1 forward_v I I I I #
coedge $-1 $298 $299 $300 $301 reversed $111 $-1 #
coedge $-1 $302 $113 $115 $198 forward $69 $-1 #
coedge $-1 $113 $302 $298 $303 forward $69 $-1 #
coedge $-1 $300 $116 $113 $195 forward $200 $-1 #
edge $-1 $202 -31.621941389262499 $304 -17.658022840432164 $194 $305 forward 7 unknown #
coedge $-1 $306 $307 $114 $197 forward $189 $-1 #
edge $-1 $308 -80.450670090235647 $201 -76.036974495357285 $196 $309 forward 7 unknown #
edge $-1 $202 99.36373324759316 $308 104.81936097966673 $115 $310 forward 7 unknown #
coedge $-1 $116 $300 $306 $311 forward $200 $-1 #
loop $-1 $-1 $300 $188 #
vertex $-1 $197 $312 #
vertex $-1 $117 $313 #
straight-curve $-1 -56.261923504109831 59.418380368078658 21.338307029841545 0 -1 0 I I #
coedge $-1 $204 $204 $-1 $314 reversed $120 $-1 #
edge $-1 $315 0 $315 6.2831853071796004 $121 $316 forward 7 unknown #
vertex $-1 $124 $317 #
ellipse-curve $-1 -49.279964229694663 50.806311759104112 19.131459232402364 0 0.80901700255871778 0.5877852410284794 1 0 0 1 I I #
face $-1 $-1 $318 $26 $-1 $319 reversed single #
loop $-1 $-1 $131 $125 #
plane-surface $-1 0 0 21.338307029841548 0 0 1 1 0 0 forward_v I I I I #
coedge $-1 $320 $321 $322 $323 reversed $126 $-1 #
coedge $-1 $324 $128 $130 $218 forward $78 $-1 #
coedge $-1 $128 $324 $320 $325 forward $78 $-1 #
coedge $-1 $322 $131 $128 $215 forward $209 $-1 #
edge $-1 $221 17.658022840432164 $326 31.621941389262499 $214 $327 forward 7 unknown #
coedge $-1 $328 $329 $129 $217 forward $318 $-1 #
edge $-1 $330 -38.050347475290565 $220 -33.636651880412174 $216 $331 forward 7 unknown #
edge $-1 $221 -5.4556277320735758 $330 1.2799082646115467e-014 $130 $332 forward 7 unknown #
coedge $-1 $131 $322 $328 $333 forward $209 $-1 #
vertex $-1 $217 $334 #
vertex $-1 $132 $335 #
straight-curve $-1 -42.298004955279495 -90.224017047020951 21.338307029841545 0 1 0 I I #
coedge $-1 $223 $223 $-1 $336 reversed $135 $-1 #
edge $-1 $337 0 $337 6.2831853071796004 $136 $338 forward 7 unknown #
vertex $-1 $139 $339 #
ellipse-curve $-1 -49.279964229694663 -50.806311759104105 19.131459232402353 0 -0.80901700255871778 0.5877852410284794 1 0 0 1 I I #
face $-1 $-1 $155 $21 $-1 $340 reversed single #
loop $-1 $-1 $243 $140 #
plane-surface $-1 0 52.40968048983337 0 0 -1 0 0 0 -1 forward_v I I I I #
coedge $-1 $341 $241 $244 $342 forward $141 $-1 #
coedge $-1 $247 $143 $144 $235 reversed $87 $-1 #
coedge $-1 $241 $341 $143 $233 reversed $141 $-1 #
edge $-1 $248 -21.338307029841548 $343 21.338307029841548 $232 $344 forward 7 unknown #
coedge $-1 $145 $144 $341 $345 forward $57 $-1 #
edge $-1 $239 -79.132053590502636 $343 79.132053590502636 $231 $346 forward 7 unknown #
coedge $-1 $244 $243 $145 $237 reversed $228 $-1 #
edge $-1 $347 -79.132053590502636 $238 79.132053590502636 $236 $348 forward 7 unknown #
vertex $-1 $147 $349 #
vertex $-1 $250 $350 #
straight-curve $-1 79.132053590502636 0 -21.338307029841548 0 -1 0 I I #
coedge $-1 $230 $232 $148 $242 reversed $141 $-1 #
edge $-1 $245 -52.40968048983337 $248 52.40968048983337 $241 $351 forward 7 unknown #
coedge $-1 $236 $149 $154 $251 forward $228 $-1 #
coedge $-1 $149 $236 $230 $342 reversed $228 $-1 #
vertex $-1 $150 $352 #
straight-curve $-1 0 52.40968048983337 21.338307029841548 -1 0 0 I I #
coedge $-1 $151 $231 $153 $250 reversed $87 $-1 #
vertex $-1 $242 $353 #
straight-curve $-1 0 -52.40968048983337 21.338307029841548 1 0 0 I I #
edge $-1 $156 -21.338307029841548 $239 21.338307029841548 $153 $354 forward 7 unknown #
edge $-1 $157 -21.338307029841548 $238 21.338307029841548 $154 $355 forward 7 unknown #
point $-1 79.132053590502636 -52.40968048983337 21.338307029841548 #
point $-1 79.132053590502636 52.40968048983337 21.338307029841548 #
face $-1 $-1 $267 $22 $-1 $356 reversed single #
loop $-1 $-1 $357 $159 #
plane-surface $-1 -102.00218367689544 0 -13.10137179123922 1 0 0 0 0 -1 forward_v I I I I #
coedge $-1 $358 $259 $165 $264 reversed $160 $-1 #
coedge $-1 $163 $162 $357 $359 reversed $61 $-1 #
coedge $-1 $257 $360 $162 $260 forward $160 $-1 #
edge $-1 $361 -11.435065043196403 $262 11.435065043196403 $162 $362 forward 7 unknown #
edge $-1 $170 -11.435065043196403 $363 11.435065043196403 $163 $364 forward 7 unknown #
vertex $-1 $164 $365 #
straight-curve $-1 -79.132053590502636 52.40968048983337 0 0 0 -1 I I #
edge $-1 $268 -52.40968048983337 $262 52.40968048983337 $257 $366 forward 7 unknown #
coedge $-1 $367 $166 $169 $271 reversed $267 $-1 #
coedge $-1 $166 $367 $358 $368 reversed $267 $-1 #
loop $-1 $-1 $166 $254 #
vertex $-1 $167 $369 #
straight-curve $-1 -79.132053590502636 -52.40968048983337 0 0 0 1 I I #
coedge $-1 $169 $168 $370 $371 forward $95 $-1 #
edge $-1 $372 -11.435065043196403 $171 11.435065043196403 $265 $373 forward 7 unknown #
point $-1 -79.132053590502636 52.40968048983337 -9.9819948417582189 #
point $-1 -79.132053590502636 -52.40968048983337 -9.9819948417582189 #
face $-1 $-1 $290 $23 $-1 $374 reversed single #
loop $-1 $-1 $375 $173 #
plane-surface $-1 102.00218367689544 0 -13.10137179123922 -1 0 0 0 0 1 forward_v I I I I #
coedge $-1 $281 $376 $377 $378 forward $174 $-1 #
coedge $-1 $375 $379 $176 $279 reversed $275 $-1 #
edge $-1 $380 -52.40968048983337 $381 52.40968048983337 $278 $382 forward 7 unknown #
coedge $-1 $178 $177 $375 $383 reversed $65 $-1 #
coedge $-1 $286 $277 $177 $282 forward $174 $-1 #
edge $-1 $384 -11.435065043196403 $284 11.435065043196403 $177 $385 forward 7 unknown #
edge $-1 $185 -11.435065043196403 $380 11.435065043196403 $178 $386 forward 7 unknown #
vertex $-1 $179 $387 #
straight-curve $-1 79.132053590502636 -52.40968048983337 0 0 0 -1 I I #
coedge $-1 $376 $281 $180 $287 reversed $174 $-1 #
edge $-1 $291 -52.40968048983337 $284 52.40968048983337 $286 $388 forward 7 unknown #
coedge $-1 $389 $181 $184 $293 reversed $290 $-1 #
coedge $-1 $181 $389 $376 $390 reversed $290 $-1 #
loop $-1 $-1 $181 $274 #
vertex $-1 $182 $391 #
straight-curve $-1 79.132053590502636 52.40968048983337 0 0 0 1 I I #
edge $-1 $381 -11.435065043196403 $186 11.435065043196403 $288 $392 forward 7 unknown #
point $-1 79.132053590502636 -52.40968048983337 -9.9819948417582189 #
point $-1 79.132053590502636 52.40968048983337 -9.9819948417582189 #
plane-surface $-1 0 0 21.338307029841548 0 0 1 1 0 0 forward_v I I I I #
coedge $-1 $307 $306 $299 $393 forward $189 $-1 #
coedge $-1 $299 $191 $193 $303 reversed $111 $-1 #
coedge $-1 $191 $298 $297 $393 reversed $111 $-1 #
coedge $-1 $199 $194 $191 $301 forward $200 $-1 #
edge $-1 $304 -10.215437339703804 $394 -7.0086998782452881 $300 $395 forward 7 unknown #
coedge $-1 $193 $192 $307 $396 reversed $69 $-1 #
edge $-1 $397 -104.81936097966673 $304 -99.36373324759316 $298 $398 forward 7 unknown #
vertex $-1 $195 $399 #
straight-curve $-1 -24.639982114847331 49.202943028374861 21.338307029841545 1 0 0 I I #
coedge $-1 $297 $196 $199 $311 reversed $189 $-1 #
coedge $-1 $196 $297 $302 $396 forward $189 $-1 #
vertex $-1 $197 $400 #
straight-curve $-1 -56.261923504109831 52.40968048983337 97.37528152519883 0 0 1 I I #
straight-curve $-1 -56.261923504109831 -9.2015928680512218 101.72525666485338 0 0.5877852410284794 -0.80901700255871778 I I #
edge $-1 $394 42.298004955279495 $201 56.261923504109831 $306 $401 forward 7 unknown #
point $-1 -56.261923504109831 52.40968048983337 21.338307029841548 #
point $-1 -56.261923504109831 49.202943028374854 21.338307029841545 #
edge $-1 $402 1 $402 0 $204 $-1 forward 7 unknown #
vertex $-1 $205 $403 #
ellipse-curve $-1 -49.279964229694663 49.396661295403206 18.107288250888033 0 0.80901700255871778 0.5877852410284794 1 0 0 1 I I #
point $-1 -48.279964229694663 50.806311759104112 19.131459232402364 #
loop $-1 $-1 $216 $208 #
plane-surface $-1 0 -52.40968048983337 0 0 1 0 0 0 1 forward_v I I I I #
coedge $-1 $321 $211 $213 $325 reversed $126 $-1 #
coedge $-1 $211 $320 $404 $405 reversed $126 $-1 #
coedge $-1 $219 $214 $211 $323 forward $209 $-1 #
edge $-1 $326 -41.021074018646111 $406 -37.81433655718758 $322 $407 forward 7 unknown #
coedge $-1 $213 $212 $329 $408 reversed $78 $-1 #
edge $-1 $409 -1.2799082646115467e-014 $326 5.4556277320735758 $320 $410 forward 7 unknown #
vertex $-1 $215 $411 #
straight-curve $-1 -24.639982114847331 -49.202943028374833 21.338307029841548 -1 0 0 I I #
coedge $-1 $404 $216 $219 $333 reversed $318 $-1 #
coedge $-1 $216 $404 $324 $408 forward $318 $-1 #
vertex $-1 $217 $412 #
straight-curve $-1 -42.298004955279495 -52.409680489833377 54.974958910253726 0 0 1 I I #
straight-curve $-1 -42.298004955279495 -52.409680489833363 16.924611434963168 0 -0.5877852410284794 -0.80901700255871778 I I #
edge $-1 $406 -56.261923504109831 $220 -42.298004955279495 $328 $413 forward 7 unknown #
point $-1 -42.298004955279495 -52.40968048983337 21.338307029841548 #
point $-1 -42.298004955279495 -49.20294302837484 21.338307029841548 #
edge $-1 $414 1 $414 0 $223 $-1 forward 7 unknown #
vertex $-1 $224 $415 #
ellipse-curve $-1 -49.279964229694663 -49.396661295403206 18.107288250888026 0 -0.80901700255871778 0.5877852410284794 1 0 0 1 I I #
point $-1 -48.279964229694663 -50.806311759104112 19.131459232402356 #
plane-surface $-1 79.132053590502636 0 0 -1 0 0 0 0 1 forward_v I I I I #
coedge $-1 $232 $230 $234 $345 reversed $141 $-1 #
edge $-1 $245 -21.338307029841548 $347 21.338307029841548 $244 $416 forward 7 unknown #
vertex $-1 $345 $417 #
straight-curve $-1 -79.132053590502636 -52.40968048983337 0 0 0 -1 I I #
edge $-1 $343 -52.40968048983337 $347 52.40968048983337 $341 $418 forward 7 unknown #
straight-curve $-1 0 -52.40968048983337 -21.338307029841548 -1 0 0 I I #
vertex $-1 $237 $419 #
straight-curve $-1 0 52.40968048983337 -21.338307029841548 1 0 0 I I #
point $-1 79.132053590502636 52.40968048983337 -21.338307029841548 #
point $-1 79.132053590502636 -52.40968048983337 -21.338307029841548 #
straight-curve $-1 -79.132053590502636 0 21.338307029841548 0 -1 0 I I #
point $-1 -79.132053590502636 52.40968048983337 21.338307029841548 #
point $-1 -79.132053590502636 -52.40968048983337 21.338307029841548 #
straight-curve $-1 79.132053590502636 -52.40968048983337 0 0 0 -1 I I #
straight-curve $-1 79.132053590502636 52.40968048983337 0 0 0 -1 I I #
plane-surface $-1 0 -52.40968048983337 0 0 1 0 0 0 1 forward_v I I I I #
coedge $-1 $420 $370 $258 $359 forward $255 $-1 #
coedge $-1 $360 $257 $266 $368 forward $160 $-1 #
edge $-1 $363 -3.1193769494810013 $361 3.1193769494810013 $258 $421 forward 7 unknown #
coedge $-1 $259 $358 $420 $422 forward $160 $-1 #
vertex $-1 $260 $423 #
straight-curve $-1 -90.567118633699039 52.40968048983337 -16.220748740720222 1 0 0 I I #
vertex $-1 $261 $424 #
straight-curve $-1 -90.567118633699039 52.40968048983337 -9.9819948417582189 -1 0 0 I I #
point $-1 -79.132053590502636 52.40968048983337 -16.220748740720222 #
straight-curve $-1 -79.132053590502636 0 -16.220748740720222 0 1 0 I I #
coedge $-1 $266 $265 $425 $426 forward $267 $-1 #
edge $-1 $268 -11.435065043196403 $427 11.435065043196403 $266 $428 forward 7 unknown #
point $-1 -79.132053590502636 -52.40968048983337 -16.220748740720222 #
coedge $-1 $357 $425 $270 $371 reversed $255 $-1 #
edge $-1 $363 -52.40968048983337 $372 52.40968048983337 $370 $429 forward 7 unknown #
vertex $-1 $371 $430 #
straight-curve $-1 -90.567118633699039 -52.40968048983337 -9.9819948417582189 1 0 0 I I #
plane-surface $-1 0 52.40968048983337 0 0 -1 0 0 0 -1 forward_v I I I I #
coedge $-1 $377 $278 $280 $383 forward $275 $-1 #
coedge $-1 $277 $286 $289 $390 forward $174 $-1 #
coedge $-1 $379 $375 $277 $378 reversed $275 $-1 #
edge $-1 $431 -52.40968048983337 $384 52.40968048983337 $377 $432 forward 7 unknown #
coedge $-1 $278 $377 $389 $433 reversed $275 $-1 #
vertex $-1 $279 $434 #
vertex $-1 $279 $435 #
straight-curve $-1 102.00218367689544 0 -9.9819948417582189 0 1 0 I I #
edge $-1 $380 -3.1193769494810013 $384 3.1193769494810013 $375 $436 forward 7 unknown #
vertex $-1 $383 $437 #
straight-curve $-1 90.567118633699039 -52.40968048983337 -16.220748740720222 -1 0 0 I I #
straight-curve $-1 90.567118633699039 -52.40968048983337 -9.9819948417582189 1 0 0 I I #
point $-1 79.132053590502636 -52.40968048983337 -16.220748740720222 #
straight-curve $-1 79.132053590502636 0 -16.220748740720222 0 -1 0 I I #
coedge $-1 $289 $288 $379 $433 forward $290 $-1 #
edge $-1 $291 -11.435065043196403 $431 11.435065043196403 $289 $438 forward 7 unknown #
point $-1 79.132053590502636 52.40968048983337 -16.220748740720222 #
straight-curve $-1 90.567118633699039 52.40968048983337 -9.9819948417582189 -1 0 0 I I #
edge $-1 $394 76.036974495357285 $397 80.450670090235647 $297 $439 forward 7 unknown #
vertex $-1 $311 $440 #
straight-curve $-1 -42.298004955279495 59.418380368078658 21.338307029841545 0 1 0 I I #
edge $-1 $397 17.658022840432164 $308 31.621941389262499 $307 $441 forward 7 unknown #
vertex $-1 $396 $442 #
straight-curve $-1 -42.298004955279495 -9.2015928680512218 101.72525666485338 0 -0.5877852410284794 0.80901700255871778 I I #
point $-1 -42.298004955279495 49.202943028374854 21.338307029841545 #
point $-1 -56.261923504109831 52.40968048983337 16.924611434963182 #
straight-curve $-1 0 52.40968048983337 21.338307029841548 -1 0 0 I I #
vertex $-1 $314 $443 #
point $-1 -48.279964229694663 49.396661295403206 18.107288250888033 #
coedge $-1 $329 $328 $321 $405 forward $318 $-1 #
edge $-1 $406 33.636651880412174 $409 38.050347475290565 $404 $444 forward 7 unknown #
vertex $-1 $333 $445 #
straight-curve $-1 -56.261923504109831 -90.224017047020951 21.338307029841545 0 -1 0 I I #
edge $-1 $409 -31.621941389262499 $330 -17.658022840432164 $329 $446 forward 7 unknown #
vertex $-1 $408 $447 #
straight-curve $-1 -56.261923504109831 -52.409680489833363 16.924611434963168 0 0.5877852410284794 0.80901700255871778 I I #
point $-1 -56.261923504109831 -49.20294302837484 21.338307029841548 #
point $-1 -42.298004955279495 -52.40968048983337 16.924611434963158 #
straight-curve $-1 0 -52.40968048983337 21.338307029841548 1 0 0 I I #
vertex $-1 $336 $448 #
point $-1 -48.279964229694663 -49.396661295403206 18.107288250888026 #
straight-curve $-1 -79.132053590502636 52.40968048983337 0 0 0 -1 I I #
point $-1 -79.132053590502636 -52.40968048983337 -21.338307029841548 #
straight-curve $-1 -79.132053590502636 0 -21.338307029841548 0 1 0 I I #
point $-1 -79.132053590502636 52.40968048983337 -21.338307029841548 #
coedge $-1 $425 $357 $360 $422 reversed $255 $-1 #
straight-curve $-1 -102.00218367689544 52.40968048983337 -13.10137179123922 0 0 -1 I I #
edge $-1 $427 -52.40968048983337 $361 52.40968048983337 $420 $449 forward 7 unknown #
point $-1 -102.00218367689544 52.40968048983337 -16.220748740720222 #
point $-1 -102.00218367689544 52.40968048983337 -9.9819948417582189 #
coedge $-1 $370 $420 $367 $426 reversed $255 $-1 #
edge $-1 $372 -3.1193769494810013 $427 3.1193769494810013 $425 $450 forward 7 unknown #
vertex $-1 $422 $451 #
straight-curve $-1 -90.567118633699039 -52.40968048983337 -16.220748740720222 -1 0 0 I I #
straight-curve $-1 -102.00218367689544 0 -9.9819948417582189 0 -1 0 I I #
point $-1 -102.00218367689544 -52.40968048983337 -9.9819948417582189 #
vertex $-1 $378 $452 #
straight-curve $-1 102.00218367689544 0 -16.220748740720222 0 -1 0 I I #
edge $-1 $381 -3.1193769494810013 $431 3.1193769494810013 $379 $453 forward 7 unknown #
point $-1 102.00218367689544 -52.40968048983337 -9.9819948417582189 #
point $-1 102.00218367689544 52.40968048983337 -9.9819948417582189 #
straight-curve $-1 102.00218367689544 -52.40968048983337 -13.10137179123922 0 0 -1 I I #
point $-1 102.00218367689544 -52.40968048983337 -16.220748740720222 #
straight-curve $-1 90.567118633699039 52.40968048983337 -16.220748740720222 1 0 0 I I #
straight-curve $-1 -42.298004955279495 52.40968048983337 97.37528152519883 0 0 -1 I I #
point $-1 -42.298004955279495 52.40968048983337 21.338307029841548 #
straight-curve $-1 -24.639982114847331 52.40968048983337 16.924611434963182 -1 0 0 I I #
point $-1 -42.298004955279495 52.40968048983337 16.924611434963182 #
point $-1 -49.279964229694663 48.587644292844487 17.519503009859555 #
straight-curve $-1 -56.261923504109831 -52.409680489833377 54.974958910253726 0 0 -1 I I #
point $-1 -56.261923504109831 -52.40968048983337 21.338307029841548 #
straight-curve $-1 -24.639982114847331 -52.40968048983337 16.924611434963161 1 0 0 I I #
point $-1 -56.261923504109831 -52.40968048983337 16.924611434963158 #
point $-1 -49.279964229694663 -48.587644292844487 17.519503009859548 #
straight-curve $-1 -102.00218367689544 0 -16.220748740720222 0 1 0 I I #
straight-curve $-1 -102.00218367689544 -52.40968048983337 -13.10137179123922 0 0 -1 I I #
point $-1 -102.00218367689544 -52.40968048983337 -16.220748740720222 #
point $-1 102.00218367689544 52.40968048983337 -16.220748740720222 #
straight-curve $-1 102.00218367689544 52.40968048983337 -13.10137179123922 0 0 -1 I I #
End-of-ACIS-data 