500 0 10 0           
7 Unknown 11 ACIS 5.0 NT 24 Fri Mar 26 17:54:09 1999 
-1 9.9999999999999995e-007 1e-010 
body $-1 $10 $-1 $11 #
body $-1 $12 $-1 $13 #
body $-1 $14 $-1 $15 #
body $-1 $16 $-1 $17 #
body $-1 $18 $-1 $19 #
body $-1 $20 $-1 $21 #
body $-1 $22 $-1 $23 #
body $-1 $24 $-1 $25 #
body $-1 $26 $-1 $27 #
body $-1 $28 $-1 $29 #
lump $-1 $-1 $30 $0 #
transform $-1 1 0 0 0 1 0 0 0 1 79.280983916745498 54.182879901523087 18.80749654908729 1 rotate no_reflect no_shear #
lump $-1 $-1 $31 $1 #
transform $-1 1 0 0 0 1 0 0 0 1 79.280983916745498 54.182879901523087 18.80749654908729 1 rotate no_reflect no_shear #
lump $-1 $-1 $32 $2 #
transform $-1 1 0 0 0 1 0 0 0 1 79.280983916745498 54.182879901523087 18.80749654908729 1 rotate no_reflect no_shear #
lump $-1 $-1 $33 $3 #
transform $-1 1 0 0 0 1 0 0 0 1 79.280983916745498 54.182879901523087 18.80749654908729 1 rotate no_reflect no_shear #
lump $-1 $-1 $34 $4 #
transform $-1 1 0 0 0 1 0 0 0 1 79.280983916745498 54.182879901523087 18.80749654908729 1 rotate no_reflect no_shear #
lump $-1 $-1 $35 $5 #
transform $-1 1 0 0 0 1 0 0 0 1 79.280983916745498 54.182879901523087 18.80749654908729 1 rotate no_reflect no_shear #
lump $-1 $-1 $36 $6 #
transform $-1 1 0 0 0 1 0 0 0 1 79.280983916745498 54.182879901523087 18.80749654908729 1 rotate no_reflect no_shear #
lump $-1 $-1 $37 $7 #
transform $-1 1 0 0 0 1 0 0 0 1 79.280983916745498 54.182879901523087 18.80749654908729 1 rotate no_reflect no_shear #
lump $-1 $-1 $38 $8 #
transform $-1 1 0 0 0 1 0 0 0 1 79.280983916745498 54.182879901523087 18.80749654908729 1 rotate no_reflect no_shear #
lump $-1 $-1 $39 $9 #
transform $-1 1 0 0 0 1 0 0 0 1 79.280983916745498 54.182879901523087 18.80749654908729 1 rotate no_reflect no_shear #
shell $-1 $-1 $-1 $40 $-1 $10 #
shell $-1 $-1 $-1 $41 $-1 $12 #
shell $-1 $-1 $-1 $42 $-1 $14 #
shell $-1 $-1 $-1 $43 $-1 $16 #
shell $-1 $-1 $-1 $44 $-1 $18 #
shell $-1 $-1 $-1 $45 $-1 $20 #
shell $-1 $-1 $-1 $46 $-1 $22 #
shell $-1 $-1 $-1 $47 $-1 $24 #
shell $-1 $-1 $-1 $48 $-1 $26 #
shell $-1 $-1 $-1 $49 $-1 $28 #
face $-1 $50 $51 $30 $-1 $52 reversed single #
face $-1 $53 $54 $31 $-1 $55 forward single #
face $-1 $56 $57 $32 $-1 $58 forward single #
face $-1 $59 $60 $33 $-1 $61 reversed single #
face $-1 $62 $63 $34 $-1 $64 forward single #
face $-1 $65 $66 $35 $-1 $67 forward single #
face $-1 $68 $69 $36 $-1 $70 reversed single #
face $-1 $71 $72 $37 $-1 $73 forward single #
face $-1 $74 $75 $38 $-1 $76 forward single #
face $-1 $77 $78 $39 $-1 $79 forward single #
face $-1 $80 $81 $30 $-1 $82 forward single #
loop $-1 $-1 $83 $40 #
plane-surface $-1 0 -54.182879901523087 0 0 1 0 0 0 1 forward_v I I I I #
face $-1 $84 $85 $31 $-1 $86 forward single #
loop $-1 $-1 $87 $41 #
plane-surface $-1 0 -54.182879901523087 0 0 1 0 0 0 1 forward_v I I I I #
face $-1 $88 $89 $32 $-1 $90 forward single #
loop $-1 $-1 $91 $42 #
plane-surface $-1 0 54.182879901523087 0 0 -1 0 0 0 -1 forward_v I I I I #
face $-1 $92 $93 $33 $-1 $94 reversed single #
loop $-1 $-1 $95 $43 #
plane-surface $-1 36.493884107021273 32.681782625696357 220.34295264867743 0 -1 0 -0.55919291073839883 0 -0.82903756765294845 forward_v I I I I #
face $-1 $96 $97 $34 $-1 $98 forward single #
loop $-1 $99 $100 $44 #
cone-surface $-1 65.144159123025702 22.899857087601497 8.9811460635454772 -0.55919291073839883 0 -0.82903756765294845 0.82903756765294845 0 -0.55919291073839883 1 I I 0 1 1 forward I I I I #
face $-1 $101 $102 $35 $-1 $103 forward single #
loop $-1 $104 $105 $45 #
cone-surface $-1 65.144159123025702 28.769012410458423 8.9811460635454772 -0.55919291073839883 0 -0.82903756765294845 0.82903756765294845 0 -0.55919291073839883 1 I I 0 1 1 forward I I I I #
face $-1 $106 $107 $36 $-1 $108 reversed single #
loop $-1 $-1 $109 $46 #
plane-surface $-1 -197.11549114280029 9.7992855272161457 120.3185124940947 0 1 0 -0.74314483375859142 0 0.66913059716165679 forward_v I I I I #
face $-1 $110 $111 $37 $-1 $112 forward single #
loop $-1 $113 $114 $47 #
cone-surface $-1 -76.24798153266353 13.18040657365534 15.642410951318972 0.74314483375859142 0 -0.66913059716165679 1.0036958957424851 0 1.1147172506378871 1 I I 0 1 1.5 forward I I I I #
face $-1 $115 $116 $38 $-1 $117 forward single #
loop $-1 $118 $119 $48 #
cone-surface $-1 -76.24798153266353 18.252088143314133 15.642410951318972 0.74314483375859142 0 -0.66913059716165679 1.0036958957424851 0 1.1147172506378871 1 I I 0 1 1.5 forward I I I I #
face $-1 $120 $121 $39 $-1 $122 forward single #
loop $-1 $123 $124 $49 #
cone-surface $-1 -76.24798153266353 23.323769712972926 15.642410951318972 0.74314483375859142 0 -0.66913059716165679 1.0036958957424851 0 1.1147172506378871 1 I I 0 1 1.5 forward I I I I #
face $-1 $125 $126 $30 $-1 $127 reversed single #
loop $-1 $-1 $128 $50 #
plane-surface $-1 0 0 18.80749654908729 0 0 1 1 0 0 forward_v I I I I #
coedge $-1 $129 $130 $131 $132 reversed $51 $-1 #
face $-1 $133 $134 $31 $-1 $135 reversed single #
loop $-1 $-1 $136 $53 #
plane-surface $-1 0 0 18.80749654908729 0 0 1 1 0 0 forward_v I I I I #
coedge $-1 $137 $138 $139 $140 forward $54 $-1 #
face $-1 $141 $142 $32 $-1 $143 reversed single #
loop $-1 $-1 $144 $56 #
plane-surface $-1 0 0 18.80749654908729 0 0 1 1 0 0 forward_v I I I I #
coedge $-1 $145 $146 $147 $148 forward $57 $-1 #
face $-1 $149 $150 $33 $-1 $151 reversed single #
loop $-1 $-1 $152 $59 #
plane-surface $-1 -52.172844218196929 25.834434749029946 88.889124513734998 0.55919291073839883 0 0.82903756765294845 0.82903756765294845 0 -0.55919291073839883 forward_v I I I I #
coedge $-1 $153 $154 $155 $156 reversed $60 $-1 #
face $-1 $-1 $157 $34 $-1 $158 forward single #
loop $-1 $159 $160 $62 #
cone-surface $-1 64.504509808659378 22.899857087601497 8.0328269744624379 -0.55919291073839883 0 -0.82903756765294845 0.41451878382647422 0 -0.27959645536919941 1 I I -0.70710678118654746 0.70710678118654746 0.5 forward I I I I #
loop $-1 $-1 $161 $44 #
coedge $-1 $100 $100 $162 $163 reversed $63 $-1 #
face $-1 $-1 $164 $35 $-1 $165 forward single #
loop $-1 $166 $167 $65 #
cone-surface $-1 64.504509808659378 28.769012410458423 8.0328269744624379 -0.55919291073839883 0 -0.82903756765294845 0.41451878382647422 0 -0.27959645536919941 1 I I -0.70710678118654746 0.70710678118654746 0.5 forward I I I I #
loop $-1 $-1 $168 $45 #
coedge $-1 $105 $105 $169 $170 reversed $66 $-1 #
face $-1 $171 $172 $36 $-1 $173 reversed single #
loop $-1 $-1 $174 $68 #
plane-surface $-1 -79.280983916745512 18.252088143314133 14.219848270543466 -0.74314483375859142 0 0.66913059716165679 0.66913059716165679 0 0.74314483375859142 forward_v I I I I #
coedge $-1 $175 $176 $177 $178 reversed $69 $-1 #
face $-1 $-1 $179 $37 $-1 $180 forward single #
loop $-1 $181 $182 $71 #
cone-surface $-1 -74.722989003767239 13.18040657365534 14.269301544951333 0.74314483375859142 0 -0.66913059716165679 0.50184794787124254 0 0.55735862531894353 1 I I -0.70710678118654757 0.70710678118654757 0.75 forward I I I I #
loop $-1 $-1 $183 $47 #
coedge $-1 $114 $114 $184 $185 reversed $72 $-1 #
face $-1 $-1 $186 $38 $-1 $187 forward single #
loop $-1 $188 $189 $74 #
cone-surface $-1 -74.722989003767239 18.252088143314133 14.269301544951333 0.74314483375859142 0 -0.66913059716165679 0.50184794787124254 0 0.55735862531894353 1 I I -0.70710678118654757 0.70710678118654757 0.75 forward I I I I #
loop $-1 $-1 $190 $48 #
coedge $-1 $119 $119 $191 $192 reversed $75 $-1 #
face $-1 $-1 $193 $39 $-1 $194 forward single #
loop $-1 $195 $196 $77 #
cone-surface $-1 -74.722989003767239 23.323769712972926 14.269301544951333 0.74314483375859142 0 -0.66913059716165679 0.50184794787124254 0 0.55735862531894353 1 I I -0.70710678118654757 0.70710678118654757 0.75 forward I I I I #
loop $-1 $-1 $197 $49 #
coedge $-1 $124 $124 $198 $199 reversed $78 $-1 #
face $-1 $200 $201 $30 $-1 $202 reversed single #
loop $-1 $-1 $203 $80 #
plane-surface $-1 0 0 -18.80749654908729 0 0 1 1 0 0 forward_v I I I I #
coedge $-1 $204 $205 $206 $207 forward $81 $-1 #
coedge $-1 $208 $83 $209 $210 reversed $51 $-1 #
coedge $-1 $83 $208 $211 $212 forward $51 $-1 #
coedge $-1 $213 $203 $83 $132 forward $126 $-1 #
edge $-1 $214 -79.280983916745498 $215 79.280983916745498 $83 $216 forward 7 unknown #
face $-1 $217 $218 $31 $-1 $219 reversed single #
loop $-1 $-1 $220 $84 #
plane-surface $-1 -79.280983916745498 0 0 1 0 0 0 0 -1 forward_v I I I I #
coedge $-1 $221 $222 $138 $223 forward $85 $-1 #
coedge $-1 $224 $87 $225 $226 reversed $54 $-1 #
coedge $-1 $87 $224 $136 $223 reversed $54 $-1 #
coedge $-1 $227 $228 $87 $140 reversed $229 $-1 #
edge $-1 $230 -18.80749654908729 $231 18.80749654908729 $139 $232 forward 7 unknown #
face $-1 $233 $234 $32 $-1 $235 reversed single #
loop $-1 $-1 $236 $88 #
plane-surface $-1 -73.794856631188964 68.171738220715454 0 0 -1 0 0 0 -1 forward_v I I I I #
coedge $-1 $237 $238 $145 $239 forward $89 $-1 #
coedge $-1 $240 $91 $144 $239 reversed $57 $-1 #
coedge $-1 $91 $240 $241 $242 reversed $57 $-1 #
coedge $-1 $243 $244 $91 $148 reversed $234 $-1 #
edge $-1 $245 -18.80749654908729 $246 18.80749654908729 $147 $247 forward 7 unknown #
face $-1 $248 $249 $33 $-1 $250 forward single #
loop $-1 $-1 $251 $92 #
plane-surface $-1 36.493884107021273 18.987086872363534 220.34295264867743 0 1 0 0.55919291073839883 0 0.82903756765294845 forward_v I I I I #
coedge $-1 $252 $253 $254 $255 reversed $93 $-1 #
coedge $-1 $154 $95 $256 $257 reversed $60 $-1 #
coedge $-1 $95 $153 $252 $258 reversed $60 $-1 #
coedge $-1 $254 $259 $95 $156 forward $249 $-1 #
edge $-1 $260 -61.034041863234862 $261 -33.480497993789541 $155 $262 forward 7 unknown #
loop $-1 $-1 $162 $96 #
plane-surface $-1 -52.172844218196929 25.834434749029946 88.889124513734998 0.55919291073839883 0 0.82903756765294845 0.82903756765294845 0 -0.55919291073839883 forward_v I I I I #
loop $-1 $-1 $263 $62 #
coedge $-1 $160 $160 $161 $264 reversed $97 $-1 #
coedge $-1 $161 $161 $160 $264 forward $99 $-1 #
coedge $-1 $162 $162 $100 $163 forward $157 $-1 #
edge $-1 $265 0 $265 6.2831853071796004 $162 $266 forward 7 unknown #
loop $-1 $-1 $169 $101 #
plane-surface $-1 -52.172844218196929 25.834434749029946 88.889124513734998 0.55919291073839883 0 0.82903756765294845 0.82903756765294845 0 -0.55919291073839883 forward_v I I I I #
loop $-1 $-1 $267 $65 #
coedge $-1 $167 $167 $168 $268 reversed $102 $-1 #
coedge $-1 $168 $168 $167 $268 forward $104 $-1 #
coedge $-1 $169 $169 $105 $170 forward $164 $-1 #
edge $-1 $269 0 $269 6.2831853071796004 $169 $270 forward 7 unknown #
face $-1 $271 $272 $36 $-1 $273 reversed single #
loop $-1 $-1 $274 $106 #
plane-surface $-1 -197.11549114280029 26.70489075941212 120.3185124940947 0 -1 0 0.74314483375859142 0 -0.66913059716165679 forward_v I I I I #
coedge $-1 $275 $276 $277 $278 reversed $107 $-1 #
coedge $-1 $176 $109 $279 $280 reversed $69 $-1 #
coedge $-1 $109 $175 $275 $281 reversed $69 $-1 #
coedge $-1 $277 $282 $109 $178 forward $283 $-1 #
edge $-1 $284 19.276761654654649 $285 23.407498615663869 $177 $286 forward 7 unknown #
loop $-1 $-1 $184 $110 #
plane-surface $-1 -79.280983916745512 18.252088143314133 14.219848270543466 -0.74314483375859142 0 0.66913059716165679 0.66913059716165679 0 0.74314483375859142 forward_v I I I I #
loop $-1 $-1 $287 $71 #
coedge $-1 $182 $182 $183 $288 reversed $111 $-1 #
coedge $-1 $183 $183 $182 $288 forward $113 $-1 #
coedge $-1 $184 $184 $114 $185 forward $179 $-1 #
edge $-1 $289 0 $289 6.2831853071796004 $184 $290 forward 7 unknown #
loop $-1 $-1 $191 $115 #
plane-surface $-1 -79.280983916745512 18.252088143314133 14.219848270543466 -0.74314483375859142 0 0.66913059716165679 0.66913059716165679 0 0.74314483375859142 forward_v I I I I #
loop $-1 $-1 $291 $74 #
coedge $-1 $189 $189 $190 $292 reversed $116 $-1 #
coedge $-1 $190 $190 $189 $292 forward $118 $-1 #
coedge $-1 $191 $191 $119 $192 forward $186 $-1 #
edge $-1 $293 0 $293 6.2831853071796004 $191 $294 forward 7 unknown #
loop $-1 $-1 $198 $120 #
plane-surface $-1 -79.280983916745512 18.252088143314133 14.219848270543466 -0.74314483375859142 0 0.66913059716165679 0.66913059716165679 0 0.74314483375859142 forward_v I I I I #
loop $-1 $-1 $295 $77 #
coedge $-1 $196 $196 $197 $296 reversed $121 $-1 #
coedge $-1 $197 $197 $196 $296 forward $123 $-1 #
coedge $-1 $198 $198 $124 $199 forward $193 $-1 #
edge $-1 $297 0 $297 6.2831853071796004 $198 $298 forward 7 unknown #
face $-1 $299 $300 $30 $-1 $301 reversed single #
loop $-1 $-1 $302 $125 #
plane-surface $-1 -79.280983916745498 0 0 1 0 0 0 0 -1 forward_v I I I I #
coedge $-1 $131 $303 $304 $305 forward $126 $-1 #
coedge $-1 $306 $128 $307 $308 forward $81 $-1 #
coedge $-1 $128 $306 $208 $309 forward $81 $-1 #
coedge $-1 $209 $310 $128 $207 reversed $311 $-1 #
edge $-1 $312 -54.182879901523087 $313 54.182879901523087 $206 $314 forward 7 unknown #
coedge $-1 $130 $129 $205 $309 reversed $51 $-1 #
coedge $-1 $304 $206 $129 $210 forward $311 $-1 #
edge $-1 $312 -18.80749654908729 $214 18.80749654908729 $209 $315 forward 7 unknown #
coedge $-1 $316 $317 $130 $212 reversed $201 $-1 #
edge $-1 $318 -18.80749654908729 $215 18.80749654908729 $211 $319 forward 7 unknown #
coedge $-1 $303 $131 $317 $320 forward $126 $-1 #
vertex $-1 $210 $321 #
vertex $-1 $320 $322 #
straight-curve $-1 0 -54.182879901523087 -18.80749654908729 -1 0 0 I I #
face $-1 $323 $229 $31 $-1 $324 reversed single #
loop $-1 $-1 $325 $133 #
plane-surface $-1 -73.794856631188964 -68.171738220715469 0 0 1 0 0 0 1 forward_v I I I I #
coedge $-1 $326 $327 $224 $328 forward $134 $-1 #
coedge $-1 $329 $136 $327 $330 forward $85 $-1 #
coedge $-1 $136 $329 $227 $331 forward $85 $-1 #
edge $-1 $230 68.308729345632429 $332 79.280983916745498 $136 $333 forward 7 unknown #
coedge $-1 $138 $137 $220 $328 reversed $54 $-1 #
coedge $-1 $334 $335 $137 $226 forward $336 $-1 #
edge $-1 $337 -79.280983916745498 $231 -68.308729345632429 $225 $338 forward 7 unknown #
coedge $-1 $339 $139 $222 $331 reversed $229 $-1 #
coedge $-1 $139 $339 $334 $340 reversed $229 $-1 #
loop $-1 $-1 $339 $217 #
vertex $-1 $223 $341 #
vertex $-1 $340 $342 #
straight-curve $-1 -68.308729345632429 -54.182879901523087 0 0 0 -1 I I #
face $-1 $343 $344 $32 $-1 $345 reversed single #
loop $-1 $-1 $147 $141 #
plane-surface $-1 -68.308729345632429 61.177309061119267 0 -1 0 0 0 0 1 forward_v I I I I #
coedge $-1 $346 $347 $348 $349 forward $142 $-1 #
coedge $-1 $350 $144 $244 $351 forward $89 $-1 #
coedge $-1 $144 $350 $352 $353 forward $89 $-1 #
edge $-1 $354 -79.280983916745498 $246 -68.308729345632429 $144 $355 forward 7 unknown #
coedge $-1 $146 $145 $356 $357 reversed $57 $-1 #
coedge $-1 $358 $359 $146 $242 forward $344 $-1 #
edge $-1 $245 68.308729345632429 $360 79.280983916745498 $241 $361 forward 7 unknown #
coedge $-1 $348 $147 $359 $362 reversed $234 $-1 #
coedge $-1 $147 $348 $237 $351 reversed $234 $-1 #
vertex $-1 $242 $363 #
vertex $-1 $351 $364 #
straight-curve $-1 -68.308729345632429 54.182879901523087 0 0 0 1 I I #
face $-1 $-1 $365 $33 $-1 $366 reversed single #
loop $-1 $-1 $155 $149 #
plane-surface $-1 0 0 18.80749654908729 0 0 1 1 0 0 forward_v I I I I #
coedge $-1 $367 $368 $369 $370 reversed $150 $-1 #
coedge $-1 $371 $152 $154 $258 forward $93 $-1 #
coedge $-1 $152 $371 $367 $372 forward $93 $-1 #
coedge $-1 $369 $155 $152 $255 forward $249 $-1 #
edge $-1 $261 -19.764565251181384 $373 -6.0698694978485612 $254 $374 forward 7 unknown #
coedge $-1 $375 $376 $153 $257 forward $365 $-1 #
edge $-1 $377 -109.94908013582192 $260 -91.363979775251423 $256 $378 forward 7 unknown #
edge $-1 $261 125.32638847675454 $377 158.561967833491 $154 $379 forward 7 unknown #
coedge $-1 $155 $369 $375 $380 forward $249 $-1 #
vertex $-1 $156 $381 #
vertex $-1 $156 $382 #
straight-curve $-1 18.246942053510637 32.681782625696357 18.80749654908729 -1 0 0 I I #
coedge $-1 $263 $263 $-1 $383 reversed $159 $-1 #
edge $-1 $384 0 $384 6.2831853071796004 $160 $385 forward 7 unknown #
vertex $-1 $163 $386 #
ellipse-curve $-1 65.504211982022824 22.899857087601497 9.5149463688020521 0.55919291073839883 0 0.82903756765294845 0.82903756765294845 0 -0.55919291073839883 1 I I #
coedge $-1 $267 $267 $-1 $387 reversed $166 $-1 #
edge $-1 $388 0 $388 6.2831853071796004 $167 $389 forward 7 unknown #
vertex $-1 $170 $390 #
ellipse-curve $-1 65.504211982022824 28.769012410458423 9.5149463688020521 0.55919291073839883 0 0.82903756765294845 0.82903756765294845 0 -0.55919291073839883 1 I I #
face $-1 $-1 $283 $36 $-1 $391 forward single #
loop $-1 $-1 $392 $171 #
plane-surface $-1 -79.280983916745498 0 0 1 0 0 0 0 -1 forward_v I I I I #
coedge $-1 $393 $394 $395 $396 reversed $172 $-1 #
coedge $-1 $397 $174 $176 $281 forward $107 $-1 #
coedge $-1 $174 $397 $393 $398 forward $107 $-1 #
coedge $-1 $395 $177 $174 $278 forward $283 $-1 #
edge $-1 $285 0.67324145555907933 $399 17.578846687755053 $277 $400 forward 7 unknown #
coedge $-1 $401 $402 $175 $280 forward $272 $-1 #
edge $-1 $403 -45.939407976503873 $284 -41.351759697960063 $279 $404 forward 7 unknown #
edge $-1 $285 -6.1732896067391749 $403 -2.1389731374768986e-014 $176 $405 forward 7 unknown #
coedge $-1 $177 $395 $401 $406 forward $283 $-1 #
loop $-1 $-1 $395 $271 #
vertex $-1 $280 $407 #
vertex $-1 $178 $408 #
straight-curve $-1 -98.557745571400147 9.7992855272161457 18.80749654908729 1 0 0 I I #
coedge $-1 $287 $287 $-1 $409 reversed $181 $-1 #
edge $-1 $410 0 $410 6.2831853071796004 $182 $411 forward 7 unknown #
vertex $-1 $185 $412 #
ellipse-curve $-1 -77.215615436240896 13.18040657365534 16.513672409815385 -0.74314483375859142 0 0.66913059716165679 1.0036958957424851 0 1.1147172506378871 1 I I #
coedge $-1 $291 $291 $-1 $413 reversed $188 $-1 #
edge $-1 $414 0 $414 6.2831853071796004 $189 $415 forward 7 unknown #
vertex $-1 $192 $416 #
ellipse-curve $-1 -77.215615436240896 18.252088143314133 16.513672409815385 -0.74314483375859142 0 0.66913059716165679 1.0036958957424851 0 1.1147172506378871 1 I I #
coedge $-1 $295 $295 $-1 $417 reversed $195 $-1 #
edge $-1 $418 0 $418 6.2831853071796004 $196 $419 forward 7 unknown #
vertex $-1 $199 $420 #
ellipse-curve $-1 -77.215615436240896 23.323769712972926 16.513672409815385 -0.74314483375859142 0 0.66913059716165679 1.0036958957424851 0 1.1147172506378871 1 I I #
face $-1 $-1 $311 $30 $-1 $421 reversed single #
loop $-1 $-1 $307 $200 #
plane-surface $-1 0 54.182879901523087 0 0 -1 0 0 0 -1 forward_v I I I I #
coedge $-1 $317 $316 $422 $423 forward $201 $-1 #
coedge $-1 $203 $213 $424 $425 forward $126 $-1 #
coedge $-1 $310 $209 $203 $305 reversed $311 $-1 #
edge $-1 $426 -54.182879901523087 $214 54.182879901523087 $304 $427 forward 7 unknown #
coedge $-1 $205 $204 $316 $428 forward $81 $-1 #
coedge $-1 $429 $422 $204 $308 reversed $300 $-1 #
edge $-1 $313 -79.280983916745498 $430 79.280983916745498 $307 $431 forward 7 unknown #
edge $-1 $318 -79.280983916745498 $312 79.280983916745498 $208 $432 forward 7 unknown #
coedge $-1 $206 $304 $429 $433 reversed $311 $-1 #
loop $-1 $-1 $209 $299 #
vertex $-1 $207 $434 #
vertex $-1 $207 $435 #
straight-curve $-1 79.280983916745498 0 18.80749654908729 0 1 0 I I #
straight-curve $-1 79.280983916745498 -54.182879901523087 0 0 0 -1 I I #
coedge $-1 $302 $211 $306 $428 reversed $201 $-1 #
coedge $-1 $211 $302 $213 $320 reversed $201 $-1 #
vertex $-1 $428 $436 #
straight-curve $-1 -79.280983916745498 -54.182879901523087 0 0 0 -1 I I #
edge $-1 $215 -54.182879901523087 $437 54.182879901523087 $317 $438 forward 7 unknown #
point $-1 79.280983916745498 -54.182879901523087 -18.80749654908729 #
point $-1 -79.280983916745498 -54.182879901523087 -18.80749654908729 #
face $-1 $-1 $336 $31 $-1 $439 reversed single #
plane-surface $-1 -68.308729345632429 -61.177309061119274 0 -1 0 0 0 0 1 forward_v I I I I #
coedge $-1 $440 $441 $442 $443 forward $218 $-1 #
coedge $-1 $442 $220 $335 $444 reversed $134 $-1 #
coedge $-1 $220 $442 $221 $330 reversed $134 $-1 #
edge $-1 $332 -18.80749654908729 $337 18.80749654908729 $220 $445 forward 7 unknown #
coedge $-1 $222 $221 $441 $446 forward $85 $-1 #
edge $-1 $332 54.182879901523087 $447 68.171738220715469 $327 $448 forward 7 unknown #
edge $-1 $449 -6.9944291595961943 $230 6.9944291595961872 $227 $450 forward 7 unknown #
vertex $-1 $330 $451 #
straight-curve $-1 0 -54.182879901523087 18.80749654908729 -1 0 0 I I #
coedge $-1 $452 $225 $228 $340 forward $336 $-1 #
coedge $-1 $225 $452 $326 $444 forward $336 $-1 #
loop $-1 $-1 $225 $323 #
vertex $-1 $328 $453 #
straight-curve $-1 0 -54.182879901523087 -18.80749654908729 1 0 0 I I #
coedge $-1 $228 $227 $454 $455 forward $229 $-1 #
edge $-1 $231 -6.9944291595961872 $456 6.9944291595961943 $228 $457 forward 7 unknown #
point $-1 -68.308729345632429 -54.182879901523087 18.80749654908729 #
point $-1 -68.308729345632429 -54.182879901523087 -18.80749654908729 #
face $-1 $-1 $458 $32 $-1 $459 reversed single #
loop $-1 $-1 $241 $233 #
plane-surface $-1 0 0 -18.80749654908729 0 0 1 1 0 0 forward_v I I I I #
coedge $-1 $460 $236 $461 $462 reversed $142 $-1 #
coedge $-1 $236 $460 $350 $463 reversed $142 $-1 #
coedge $-1 $244 $243 $236 $349 reversed $234 $-1 #
edge $-1 $464 -18.80749654908729 $465 18.80749654908729 $348 $466 forward 7 unknown #
coedge $-1 $238 $237 $347 $463 forward $89 $-1 #
edge $-1 $246 -6.9944291595961872 $464 6.9944291595961872 $244 $467 forward 7 unknown #
coedge $-1 $468 $356 $238 $353 reversed $458 $-1 #
edge $-1 $469 -68.171738220715454 $354 -54.182879901523087 $352 $470 forward 7 unknown #
vertex $-1 $357 $471 #
straight-curve $-1 0 54.182879901523087 18.80749654908729 1 0 0 I I #
coedge $-1 $352 $472 $240 $357 forward $458 $-1 #
edge $-1 $360 -18.80749654908729 $354 18.80749654908729 $356 $473 forward 7 unknown #
coedge $-1 $461 $241 $472 $474 forward $344 $-1 #
coedge $-1 $241 $461 $243 $362 forward $344 $-1 #
vertex $-1 $474 $475 #
straight-curve $-1 0 54.182879901523087 -18.80749654908729 -1 0 0 I I #
edge $-1 $465 -6.9944291595961872 $245 6.9944291595961872 $243 $476 forward 7 unknown #
point $-1 -68.308729345632429 54.18287990152308 -18.80749654908729 #
point $-1 -68.308729345632429 54.18287990152308 18.80749654908729 #
loop $-1 $-1 $256 $248 #
plane-surface $-1 79.280983916745498 0 0 -1 0 0 0 0 1 forward_v I I I I #
coedge $-1 $368 $251 $253 $372 reversed $150 $-1 #
coedge $-1 $251 $367 $477 $478 reversed $150 $-1 #
coedge $-1 $259 $254 $251 $370 forward $249 $-1 #
edge $-1 $373 33.480497993789541 $479 61.034041863234862 $369 $480 forward 7 unknown #
coedge $-1 $253 $252 $376 $481 reversed $93 $-1 #
edge $-1 $482 -158.561967833491 $373 -125.32638847675454 $367 $483 forward 7 unknown #
vertex $-1 $255 $484 #
straight-curve $-1 51.727440047300171 12.917217374514973 18.80749654908729 0 -1 0 I I #
coedge $-1 $477 $256 $259 $380 reversed $365 $-1 #
coedge $-1 $256 $477 $371 $481 forward $365 $-1 #
vertex $-1 $257 $485 #
straight-curve $-1 79.280983916745498 32.681782625696357 110.17147632433871 0 0 1 I I #
straight-curve $-1 -52.172844218196929 32.681782625696357 88.889124513734998 0.82903756765294845 0 -0.55919291073839883 I I #
edge $-1 $479 18.987086872363534 $260 32.681782625696357 $375 $486 forward 7 unknown #
point $-1 79.280983916745498 32.681782625696357 18.80749654908729 #
point $-1 51.727440047300178 32.681782625696357 18.80749654908729 #
edge $-1 $487 1 $487 0 $263 $-1 forward 7 unknown #
vertex $-1 $264 $488 #
ellipse-curve $-1 64.78410626402858 22.899857087601497 8.4473457582889129 0.55919291073839883 0 0.82903756765294845 0.82903756765294845 0 -0.55919291073839883 1 I I #
point $-1 66.33324954967577 22.899857087601497 8.9557534580636453 #
edge $-1 $489 1 $489 0 $267 $-1 forward 7 unknown #
vertex $-1 $268 $490 #
ellipse-curve $-1 64.78410626402858 28.769012410458423 8.4473457582889129 0.55919291073839883 0 0.82903756765294845 0.82903756765294845 0 -0.55919291073839883 1 I I #
point $-1 66.33324954967577 28.769012410458423 8.9557534580636453 #
plane-surface $-1 0 0 18.80749654908729 0 0 1 1 0 0 forward_v I I I I #
coedge $-1 $402 $401 $394 $491 forward $272 $-1 #
coedge $-1 $394 $274 $276 $398 reversed $172 $-1 #
coedge $-1 $274 $393 $392 $491 reversed $172 $-1 #
coedge $-1 $282 $277 $274 $396 forward $283 $-1 #
edge $-1 $399 -23.407498615663869 $492 -19.276761654654649 $395 $493 forward 7 unknown #
coedge $-1 $276 $275 $402 $494 reversed $107 $-1 #
edge $-1 $495 2.1389731374768986e-014 $399 6.1732896067391749 $393 $496 forward 7 unknown #
vertex $-1 $278 $497 #
straight-curve $-1 -75.150246955736279 9.1260440716570663 18.80749654908729 0 1 0 I I #
coedge $-1 $392 $279 $282 $406 reversed $272 $-1 #
coedge $-1 $279 $392 $397 $494 forward $272 $-1 #
vertex $-1 $280 $498 #
straight-curve $-1 -79.280983916745498 9.7992855272161457 60.159256247047352 0 0 1 I I #
straight-curve $-1 -79.280983916745512 9.7992855272161457 14.219848270543466 -0.66913059716165679 0 -0.74314483375859142 I I #
edge $-1 $492 -26.70489075941212 $284 -9.7992855272161457 $401 $499 forward 7 unknown #
point $-1 -79.280983916745498 9.7992855272161457 18.80749654908729 #
point $-1 -75.150246955736279 9.7992855272161457 18.80749654908729 #
edge $-1 $500 1 $500 0 $287 $-1 forward 7 unknown #
vertex $-1 $288 $501 #
ellipse-curve $-1 -75.280347629086179 13.18040657365534 14.771149492822575 -0.74314483375859142 0 0.66913059716165679 1.0036958957424851 0 1.1147172506378871 1 I I #
point $-1 -76.211919540498386 13.18040657365534 17.628389660453255 #
edge $-1 $502 1 $502 0 $291 $-1 forward 7 unknown #
vertex $-1 $292 $503 #
ellipse-curve $-1 -75.280347629086179 18.252088143314133 14.771149492822575 -0.74314483375859142 0 0.66913059716165679 1.0036958957424851 0 1.1147172506378871 1 I I #
point $-1 -76.211919540498386 18.252088143314133 17.628389660453255 #
edge $-1 $504 1 $504 0 $295 $-1 forward 7 unknown #
vertex $-1 $296 $505 #
ellipse-curve $-1 -75.280347629086179 23.323769712972926 14.771149492822575 -0.74314483375859142 0 0.66913059716165679 1.0036958957424851 0 1.1147172506378871 1 I I #
point $-1 -76.211919540498386 23.323769712972926 17.628389660453255 #
plane-surface $-1 79.280983916745498 0 0 -1 0 0 0 0 1 forward_v I I I I #
coedge $-1 $307 $424 $302 $423 reversed $300 $-1 #
edge $-1 $430 -18.80749654908729 $437 18.80749654908729 $422 $506 forward 7 unknown #
coedge $-1 $422 $429 $303 $425 reversed $300 $-1 #
edge $-1 $437 -79.280983916745498 $426 79.280983916745498 $424 $507 forward 7 unknown #
vertex $-1 $305 $508 #
straight-curve $-1 79.280983916745498 0 -18.80749654908729 0 -1 0 I I #
edge $-1 $430 -54.182879901523087 $318 54.182879901523087 $316 $509 forward 7 unknown #
coedge $-1 $424 $307 $310 $433 forward $300 $-1 #
vertex $-1 $308 $510 #
straight-curve $-1 0 54.182879901523087 18.80749654908729 -1 0 0 I I #
straight-curve $-1 0 -54.182879901523087 18.80749654908729 1 0 0 I I #
edge $-1 $313 -18.80749654908729 $426 18.80749654908729 $310 $511 forward 7 unknown #
point $-1 79.280983916745498 -54.182879901523087 18.80749654908729 #
point $-1 79.280983916745498 54.182879901523087 18.80749654908729 #
point $-1 -79.280983916745498 -54.182879901523087 18.80749654908729 #
vertex $-1 $425 $512 #
straight-curve $-1 -79.280983916745498 0 -18.80749654908729 0 1 0 I I #
plane-surface $-1 0 0 -18.80749654908729 0 0 1 1 0 0 forward_v I I I I #
coedge $-1 $454 $325 $452 $513 reversed $218 $-1 #
coedge $-1 $325 $454 $329 $446 reversed $218 $-1 #
coedge $-1 $327 $326 $325 $443 reversed $134 $-1 #
edge $-1 $447 -18.80749654908729 $514 18.80749654908729 $442 $515 forward 7 unknown #
edge $-1 $514 -68.171738220715469 $337 -54.182879901523087 $326 $516 forward 7 unknown #
straight-curve $-1 -79.280983916745498 -54.182879901523087 0 0 0 -1 I I #
edge $-1 $447 -5.4861272855565346 $449 5.4861272855565346 $441 $517 forward 7 unknown #
vertex $-1 $330 $518 #
straight-curve $-1 -79.280983916745498 0 18.80749654908729 0 -1 0 I I #
vertex $-1 $331 $519 #
straight-curve $-1 -68.308729345632429 -61.177309061119274 18.80749654908729 0 1 0 I I #
point $-1 -79.280983916745498 -54.182879901523087 18.80749654908729 #
coedge $-1 $335 $334 $440 $513 forward $336 $-1 #
point $-1 -79.280983916745498 -54.182879901523087 -18.80749654908729 #
coedge $-1 $441 $440 $339 $455 reversed $218 $-1 #
edge $-1 $449 -18.80749654908729 $456 18.80749654908729 $339 $520 forward 7 unknown #
vertex $-1 $455 $521 #
straight-curve $-1 -68.308729345632429 -61.177309061119274 -18.80749654908729 0 -1 0 I I #
loop $-1 $-1 $356 $343 #
plane-surface $-1 -79.280983916745498 0 0 1 0 0 0 0 -1 forward_v I I I I #
coedge $-1 $347 $346 $468 $522 reversed $142 $-1 #
coedge $-1 $359 $358 $346 $462 forward $344 $-1 #
edge $-1 $523 -5.4861272855565346 $465 5.4861272855565346 $346 $524 forward 7 unknown #
edge $-1 $464 -5.4861272855565346 $469 5.4861272855565346 $347 $525 forward 7 unknown #
vertex $-1 $351 $526 #
vertex $-1 $362 $527 #
straight-curve $-1 -68.308729345632429 68.171738220715454 0 0 0 -1 I I #
straight-curve $-1 -68.308729345632429 61.177309061119267 18.80749654908729 0 1 0 I I #
coedge $-1 $472 $352 $460 $522 forward $458 $-1 #
vertex $-1 $463 $528 #
straight-curve $-1 -79.280983916745498 0 18.80749654908729 0 -1 0 I I #
point $-1 -79.280983916745498 54.182879901523087 18.80749654908729 #
coedge $-1 $356 $468 $358 $474 reversed $458 $-1 #
straight-curve $-1 -79.280983916745498 54.182879901523087 0 0 0 1 I I #
edge $-1 $360 -6.9944291595961801 $523 6.9944291595961872 $472 $529 forward 7 unknown #
point $-1 -79.280983916745498 54.182879901523087 -18.80749654908729 #
straight-curve $-1 -68.308729345632429 61.177309061119267 -18.80749654908729 0 -1 0 I I #
coedge $-1 $376 $375 $368 $478 forward $365 $-1 #
edge $-1 $479 91.363979775251423 $482 109.94908013582192 $477 $530 forward 7 unknown #
vertex $-1 $380 $531 #
straight-curve $-1 18.246942053510637 18.987086872363534 18.80749654908729 1 0 0 I I #
edge $-1 $482 6.0698694978485612 $377 19.764565251181384 $376 $532 forward 7 unknown #
vertex $-1 $481 $533 #
straight-curve $-1 -52.172844218196929 18.987086872363534 88.889124513734998 -0.82903756765294845 0 0.55919291073839883 I I #
point $-1 51.727440047300178 18.987086872363534 18.80749654908729 #
point $-1 79.280983916745498 32.681782625696357 0.22239618851679666 #
straight-curve $-1 79.280983916745498 0 18.80749654908729 0 1 0 I I #
vertex $-1 $383 $534 #
point $-1 65.613143831681526 22.899857087601497 7.8881528475505132 #
vertex $-1 $387 $535 #
point $-1 65.613143831681526 28.769012410458423 7.8881528475505132 #
edge $-1 $492 41.351759697960063 $495 45.939407976503873 $392 $536 forward 7 unknown #
vertex $-1 $406 $537 #
straight-curve $-1 -98.557745571400147 26.70489075941212 18.80749654908729 -1 0 0 I I #
edge $-1 $495 -17.578846687755053 $403 -0.67324145555907933 $402 $538 forward 7 unknown #
vertex $-1 $494 $539 #
straight-curve $-1 -79.280983916745512 26.70489075941212 14.219848270543466 0.66913059716165679 0 0.74314483375859142 I I #
point $-1 -75.150246955736279 26.70489075941212 18.80749654908729 #
point $-1 -79.280983916745498 9.7992855272161457 14.219848270543482 #
straight-curve $-1 -79.280983916745498 0 18.80749654908729 0 -1 0 I I #
vertex $-1 $409 $540 #
point $-1 -74.276651733343698 13.18040657365534 15.885866743460461 #
vertex $-1 $413 $541 #
point $-1 -74.276651733343698 18.252088143314133 15.885866743460461 #
vertex $-1 $417 $542 #
point $-1 -74.276651733343698 23.323769712972926 15.885866743460461 #
straight-curve $-1 -79.280983916745498 54.182879901523087 0 0 0 -1 I I #
straight-curve $-1 0 54.182879901523087 -18.80749654908729 1 0 0 I I #
point $-1 79.280983916745498 54.182879901523087 -18.80749654908729 #
straight-curve $-1 -79.280983916745498 0 18.80749654908729 0 -1 0 I I #
point $-1 -79.280983916745498 54.182879901523087 18.80749654908729 #
straight-curve $-1 79.280983916745498 54.182879901523087 0 0 0 -1 I I #
point $-1 -79.280983916745498 54.182879901523087 -18.80749654908729 #
edge $-1 $456 -5.4861272855565346 $514 5.4861272855565346 $440 $543 forward 7 unknown #
vertex $-1 $444 $544 #
straight-curve $-1 -79.280983916745498 -68.171738220715469 0 0 0 -1 I I #
straight-curve $-1 -79.280983916745498 0 -18.80749654908729 0 1 0 I I #
straight-curve $-1 -73.794856631188964 -68.171738220715469 18.80749654908729 1 0 0 I I #
point $-1 -79.280983916745498 -68.171738220715469 18.80749654908729 #
point $-1 -68.308729345632429 -68.171738220715469 18.80749654908729 #
straight-curve $-1 -68.308729345632429 -68.171738220715469 0 0 0 -1 I I #
point $-1 -68.308729345632429 -68.171738220715469 -18.80749654908729 #
edge $-1 $469 -18.80749654908729 $523 18.80749654908729 $460 $545 forward 7 unknown #
vertex $-1 $462 $546 #
straight-curve $-1 -73.794856631188964 68.171738220715454 -18.80749654908729 1 0 0 I I #
straight-curve $-1 -73.794856631188964 68.171738220715454 18.80749654908729 -1 0 0 I I #
point $-1 -68.308729345632429 68.171738220715454 18.80749654908729 #
point $-1 -68.308729345632429 68.171738220715454 -18.80749654908729 #
point $-1 -79.280983916745498 68.171738220715454 18.80749654908729 #
straight-curve $-1 -79.280983916745498 61.177309061119267 -18.80749654908729 0 1 0 I I #
straight-curve $-1 79.280983916745498 18.987086872363534 110.17147632433871 0 0 -1 I I #
point $-1 79.280983916745498 18.987086872363534 18.80749654908729 #
straight-curve $-1 79.280983916745512 12.917217374514973 0.22239618851680376 0 1 0 I I #
point $-1 79.280983916745498 18.987086872363534 0.22239618851679666 #
point $-1 64.224913353290177 22.899857087601497 7.6183081906359638 #
point $-1 64.224913353290177 28.769012410458423 7.6183081906359638 #
straight-curve $-1 -79.280983916745498 26.70489075941212 60.159256247047352 0 0 -1 I I #
point $-1 -79.280983916745498 26.70489075941212 18.80749654908729 #
straight-curve $-1 -79.280983916745498 9.1260440716570663 14.219848270543476 0 -1 0 I I #
point $-1 -79.280983916745498 26.70489075941212 14.219848270543482 #
point $-1 -74.165630378448299 13.18040657365534 13.76745359708009 #
point $-1 -74.165630378448299 18.252088143314133 13.76745359708009 #
point $-1 -74.165630378448299 23.323769712972926 13.76745359708009 #
straight-curve $-1 -73.794856631188964 -68.171738220715469 -18.80749654908729 -1 0 0 I I #
point $-1 -79.280983916745498 -68.171738220715469 -18.80749654908729 #
straight-curve $-1 -79.280983916745498 68.171738220715454 0 0 0 -1 I I #
point $-1 -79.280983916745498 68.171738220715454 -18.80749654908729 #
End-of-ACIS-data 