500 0 7 0           
7 Unknown 11 ACIS 5.0 NT 24 Thu Mar 25 20:34:22 1999 
-1 9.9999999999999995e-007 1e-010 
body $-1 $7 $-1 $8 #
body $-1 $9 $-1 $10 #
body $-1 $11 $-1 $12 #
body $-1 $13 $-1 $14 #
body $-1 $15 $-1 $16 #
body $-1 $17 $-1 $18 #
body $-1 $19 $-1 $20 #
lump $-1 $-1 $21 $0 #
transform $-1 1 0 0 0 1 0 0 0 1 44.09558397167882 28.438132573867428 13.181244120368858 1 rotate no_reflect no_shear #
lump $-1 $-1 $22 $1 #
transform $-1 1 0 0 0 1 0 0 0 1 44.09558397167882 28.438132573867428 13.181244120368858 1 rotate no_reflect no_shear #
lump $-1 $-1 $23 $2 #
transform $-1 1 0 0 0 1 0 0 0 1 44.09558397167882 28.438132573867428 13.181244120368858 1 rotate no_reflect no_shear #
lump $-1 $-1 $24 $3 #
transform $-1 1 0 0 0 1 0 0 0 1 44.09558397167882 28.438132573867428 13.181244120368858 1 rotate no_reflect no_shear #
lump $-1 $-1 $25 $4 #
transform $-1 1 0 0 0 1 0 0 0 1 44.09558397167882 28.438132573867428 13.181244120368858 1 rotate no_reflect no_shear #
lump $-1 $-1 $26 $5 #
transform $-1 1 0 0 0 1 0 0 0 1 44.09558397167882 28.438132573867428 13.181244120368858 1 rotate no_reflect no_shear #
lump $-1 $-1 $27 $6 #
transform $-1 1 0 0 0 1 0 0 0 1 44.09558397167882 28.438132573867428 13.181244120368858 1 rotate no_reflect no_shear #
shell $-1 $-1 $-1 $28 $-1 $7 #
shell $-1 $-1 $-1 $29 $-1 $9 #
shell $-1 $-1 $-1 $30 $-1 $11 #
shell $-1 $-1 $-1 $31 $-1 $13 #
shell $-1 $-1 $-1 $32 $-1 $15 #
shell $-1 $-1 $-1 $33 $-1 $17 #
shell $-1 $-1 $-1 $34 $-1 $19 #
face $-1 $35 $36 $21 $-1 $37 forward single #
face $-1 $38 $39 $22 $-1 $40 forward single #
face $-1 $41 $42 $23 $-1 $43 reversed single #
face $-1 $44 $45 $24 $-1 $46 forward single #
face $-1 $47 $48 $25 $-1 $49 forward single #
face $-1 $50 $51 $26 $-1 $52 reversed single #
face $-1 $53 $54 $27 $-1 $55 forward single #
face $-1 $56 $57 $21 $-1 $58 reversed single #
loop $-1 $-1 $59 $28 #
plane-surface $-1 0 0 13.181244120368858 0 0 1 1 0 0 forward_v I I I I #
face $-1 $60 $61 $22 $-1 $62 reversed single #
loop $-1 $-1 $63 $29 #
plane-surface $-1 -37.109894678053031 0 -7.7422863502385706 0 0 1 1 0 0 forward_v I I I I #
face $-1 $64 $65 $23 $-1 $66 reversed single #
loop $-1 $-1 $67 $30 #
plane-surface $-1 -8.1630735195479858 54.147551375067842 110.81271022274714 1 0 0 0 -0.73135370988377701 -0.68199835119979291 forward_v I I I I #
face $-1 $68 $69 $24 $-1 $70 forward single #
loop $-1 $71 $72 $31 #
cone-surface $-1 -1.8857675992412126 25.670850125304458 10.332613965133806 0 -0.73135370988377701 -0.68199835119979291 1 0 0 1 I I 0 1 1 forward I I I I #
face $-1 $73 $74 $25 $-1 $75 forward single #
loop $-1 $76 $77 $32 #
cone-surface $-1 7.5301912812189471 25.670850125304458 10.332613965133806 0 -0.73135370988377701 -0.68199835119979291 1 0 0 1 I I 0 1 1 forward I I I I #
face $-1 $78 $79 $26 $-1 $80 reversed single #
loop $-1 $-1 $81 $33 #
plane-surface $-1 37.712482760247354 -28.438132573867435 3.4557877470242104 0 -0.69465837861970381 0.71933979245794832 1 0 0 forward_v I I I I #
face $-1 $82 $83 $27 $-1 $84 forward single #
loop $-1 $85 $86 $34 #
cone-surface $-1 37.712482760247369 -21.592674909939813 6.4442523620850487 0 0.69465837861970381 -0.71933979245794832 3 0 0 1 I I 0 1 3 forward I I I I #
face $-1 $87 $88 $21 $-1 $89 reversed single #
loop $-1 $-1 $90 $35 #
plane-surface $-1 0 0 -13.181244120368858 0 0 1 1 0 0 forward_v I I I I #
coedge $-1 $91 $92 $93 $94 forward $36 $-1 #
face $-1 $95 $96 $22 $-1 $97 reversed single #
loop $-1 $-1 $98 $38 #
plane-surface $-1 -30.124205384427242 0 -10.461765235303714 -1 0 0 0 0 1 forward_v I I I I #
coedge $-1 $99 $100 $101 $102 forward $39 $-1 #
face $-1 $103 $104 $23 $-1 $105 reversed single #
loop $-1 $-1 $106 $41 #
plane-surface $-1 2.8222118409888637 -10.351386479289992 50.6664790949932 0 0.73135370988377701 0.68199835119979291 1 0 0 forward_v I I I I #
coedge $-1 $107 $108 $109 $110 reversed $42 $-1 #
face $-1 $-1 $111 $24 $-1 $112 forward single #
loop $-1 $113 $114 $44 #
cone-surface $-1 -1.8857675992412126 24.454877212385568 9.1987009070513093 0 -0.73135370988377701 -0.68199835119979291 0.5 0 0 1 I I -0.70710678118654746 0.70710678118654746 0.5 forward I I I I #
loop $-1 $-1 $115 $31 #
coedge $-1 $72 $72 $116 $117 reversed $45 $-1 #
face $-1 $-1 $118 $25 $-1 $119 forward single #
loop $-1 $120 $121 $47 #
cone-surface $-1 7.5301912812189471 24.454877212385568 9.1987009070513093 0 -0.73135370988377701 -0.68199835119979291 0.5 0 0 1 I I -0.70710678118654746 0.70710678118654746 0.5 forward I I I I #
loop $-1 $-1 $122 $32 #
coedge $-1 $77 $77 $123 $124 reversed $48 $-1 #
face $-1 $125 $126 $26 $-1 $127 reversed single #
loop $-1 $-1 $128 $50 #
plane-surface $-1 31.329381548815896 -89.700866305978252 66.895204192023158 1 0 0 0 0.69465837861970381 -0.71933979245794832 forward_v I I I I #
coedge $-1 $129 $130 $131 $132 reversed $51 $-1 #
face $-1 $-1 $133 $27 $-1 $134 forward single #
loop $-1 $135 $136 $53 #
cone-surface $-1 37.712482760247369 -18.740732008783336 3.4909791017866407 0 0.69465837861970381 -0.71933979245794832 1.5 0 0 1 I I -0.70710678118654757 0.70710678118654757 1.5 forward I I I I #
loop $-1 $-1 $137 $34 #
coedge $-1 $86 $86 $138 $139 reversed $54 $-1 #
face $-1 $140 $141 $21 $-1 $142 reversed single #
loop $-1 $-1 $143 $56 #
plane-surface $-1 0 -28.438132573867428 0 0 1 0 0 0 1 forward_v I I I I #
coedge $-1 $144 $145 $146 $147 forward $57 $-1 #
coedge $-1 $148 $59 $149 $150 forward $36 $-1 #
coedge $-1 $59 $148 $151 $152 forward $36 $-1 #
coedge $-1 $153 $154 $59 $94 reversed $155 $-1 #
edge $-1 $156 -28.438132573867428 $157 28.438132573867428 $93 $158 forward 7 unknown #
face $-1 $159 $160 $22 $-1 $161 reversed single #
loop $-1 $-1 $162 $60 #
plane-surface $-1 0 0 -13.181244120368858 0 0 1 1 0 0 forward_v I I I I #
coedge $-1 $163 $101 $164 $165 reversed $61 $-1 #
coedge $-1 $166 $63 $167 $168 reversed $39 $-1 #
coedge $-1 $63 $166 $169 $170 reversed $39 $-1 #
coedge $-1 $98 $171 $63 $102 reversed $61 $-1 #
edge $-1 $172 -28.438132573867428 $173 28.438132573867428 $101 $174 forward 7 unknown #
face $-1 $175 $176 $23 $-1 $177 reversed single #
loop $-1 $-1 $178 $64 #
plane-surface $-1 13.807497201525713 54.147551375067842 110.81271022274714 -1 0 0 0 0.73135370988377701 0.68199835119979291 forward_v I I I I #
coedge $-1 $179 $180 $181 $182 reversed $65 $-1 #
coedge $-1 $108 $67 $183 $184 reversed $42 $-1 #
coedge $-1 $67 $107 $179 $185 reversed $42 $-1 #
coedge $-1 $181 $186 $67 $110 forward $187 $-1 #
edge $-1 $188 -1.3643568863335069 $189 2.4696158948384301 $109 $190 forward 7 unknown #
loop $-1 $-1 $116 $68 #
plane-surface $-1 2.8222118409888637 -10.351386479289992 50.6664790949932 0 0.73135370988377701 0.68199835119979291 1 0 0 forward_v I I I I #
loop $-1 $-1 $191 $44 #
coedge $-1 $114 $114 $115 $192 reversed $69 $-1 #
coedge $-1 $115 $115 $114 $192 forward $71 $-1 #
coedge $-1 $116 $116 $72 $117 forward $111 $-1 #
edge $-1 $193 -3.5069091583739096e-016 $193 6.2831853071796004 $116 $194 forward 7 unknown #
loop $-1 $-1 $123 $73 #
plane-surface $-1 2.8222118409888637 -10.351386479289992 50.6664790949932 0 0.73135370988377701 0.68199835119979291 1 0 0 forward_v I I I I #
loop $-1 $-1 $195 $47 #
coedge $-1 $121 $121 $122 $196 reversed $74 $-1 #
coedge $-1 $122 $122 $121 $196 forward $76 $-1 #
coedge $-1 $123 $123 $77 $124 forward $118 $-1 #
edge $-1 $197 -3.5069091583739096e-016 $197 6.2831853071796004 $123 $198 forward 7 unknown #
face $-1 $199 $200 $26 $-1 $201 forward single #
loop $-1 $-1 $202 $78 #
plane-surface $-1 44.09558397167882 0 0 -1 0 0 0 0 1 forward_v I I I I #
coedge $-1 $203 $204 $205 $206 reversed $79 $-1 #
coedge $-1 $207 $81 $202 $208 reversed $51 $-1 #
coedge $-1 $81 $207 $203 $209 forward $51 $-1 #
coedge $-1 $205 $210 $81 $132 forward $200 $-1 #
edge $-1 $211 -25.239342591555136 $212 -12.473140168692218 $131 $213 forward 7 unknown #
loop $-1 $-1 $138 $82 #
plane-surface $-1 37.712482760247354 -28.438132573867435 3.4557877470242104 0 -0.69465837861970381 0.71933979245794832 1 0 0 forward_v I I I I #
loop $-1 $-1 $214 $53 #
coedge $-1 $136 $136 $137 $215 reversed $83 $-1 #
coedge $-1 $137 $137 $136 $215 forward $85 $-1 #
coedge $-1 $138 $138 $86 $139 forward $133 $-1 #
edge $-1 $216 4.4054905282102231e-016 $216 6.2831853071796004 $138 $217 forward 7 unknown #
face $-1 $218 $219 $21 $-1 $220 reversed single #
loop $-1 $-1 $221 $87 #
plane-surface $-1 -44.09558397167882 0 0 1 0 0 0 0 -1 forward_v I I I I #
coedge $-1 $222 $151 $223 $224 forward $88 $-1 #
coedge $-1 $225 $90 $222 $226 forward $57 $-1 #
coedge $-1 $90 $225 $227 $228 forward $57 $-1 #
coedge $-1 $154 $153 $90 $147 reversed $155 $-1 #
edge $-1 $229 -28.438132573867428 $230 28.438132573867428 $146 $231 forward 7 unknown #
coedge $-1 $92 $91 $232 $233 forward $36 $-1 #
coedge $-1 $234 $235 $91 $150 reversed $219 $-1 #
edge $-1 $157 -44.09558397167882 $236 44.09558397167882 $149 $237 forward 7 unknown #
coedge $-1 $143 $238 $92 $152 reversed $88 $-1 #
edge $-1 $239 -44.09558397167882 $156 44.09558397167882 $151 $240 forward 7 unknown #
coedge $-1 $146 $93 $238 $241 forward $155 $-1 #
coedge $-1 $93 $146 $234 $242 reversed $155 $-1 #
loop $-1 $-1 $153 $218 #
vertex $-1 $94 $243 #
vertex $-1 $94 $244 #
straight-curve $-1 44.09558397167882 0 13.181244120368858 0 1 0 I I #
face $-1 $245 $246 $22 $-1 $247 reversed single #
loop $-1 $-1 $164 $95 #
plane-surface $-1 0 -28.438132573867428 0 0 1 0 0 0 1 forward_v I I I I #
coedge $-1 $248 $249 $163 $250 forward $96 $-1 #
coedge $-1 $171 $98 $162 $250 reversed $61 $-1 #
coedge $-1 $169 $251 $98 $165 forward $160 $-1 #
edge $-1 $252 -7.9503615027170005 $172 -2.5114037325867136 $164 $253 forward 7 unknown #
coedge $-1 $100 $99 $254 $255 reversed $39 $-1 #
coedge $-1 $256 $257 $99 $168 forward $258 $-1 #
edge $-1 $259 -25.540636632652305 $173 -11.569258045400726 $167 $260 forward 7 unknown #
coedge $-1 $261 $164 $100 $170 forward $160 $-1 #
edge $-1 $172 11.569258045400726 $262 25.540636632652305 $169 $263 forward 7 unknown #
coedge $-1 $101 $163 $256 $264 reversed $61 $-1 #
vertex $-1 $170 $265 #
vertex $-1 $168 $266 #
straight-curve $-1 -30.124205384427242 0 -7.7422863502385706 0 1 0 I I #
face $-1 $-1 $187 $23 $-1 $267 forward single #
loop $-1 $-1 $268 $103 #
plane-surface $-1 0 28.438132573867428 0 0 -1 0 0 0 -1 forward_v I I I I #
coedge $-1 $269 $270 $271 $272 reversed $104 $-1 #
coedge $-1 $273 $106 $108 $185 forward $65 $-1 #
coedge $-1 $106 $273 $269 $274 forward $65 $-1 #
coedge $-1 $271 $109 $106 $182 forward $187 $-1 #
edge $-1 $189 -9.5741794400424176 $275 12.396391281031281 $181 $276 forward 7 unknown #
coedge $-1 $277 $278 $107 $184 forward $176 $-1 #
edge $-1 $279 -46.33654353650963 $188 -42.225110991004712 $183 $280 forward 7 unknown #
edge $-1 $189 51.254590587338789 $279 56.876265147734856 $108 $281 forward 7 unknown #
coedge $-1 $109 $271 $277 $282 forward $187 $-1 #
loop $-1 $-1 $271 $175 #
vertex $-1 $184 $283 #
vertex $-1 $110 $284 #
straight-curve $-1 -8.1630735195479858 27.073775687533921 13.181244120368859 0 -1 0 I I #
coedge $-1 $191 $191 $-1 $285 reversed $113 $-1 #
edge $-1 $286 0 $286 6.2831853071796004 $114 $287 forward 7 unknown #
vertex $-1 $117 $288 #
ellipse-curve $-1 -1.8857675992412126 26.521146183281452 11.125527847616398 0 0.73135370988377701 0.68199835119979291 1 0 0 1 I I #
coedge $-1 $195 $195 $-1 $289 reversed $120 $-1 #
edge $-1 $290 0 $290 6.2831853071796004 $121 $291 forward 7 unknown #
vertex $-1 $124 $292 #
ellipse-curve $-1 7.5301912812189471 26.521146183281452 11.125527847616398 0 0.73135370988377701 0.68199835119979291 1 0 0 1 I I #
face $-1 $-1 $293 $26 $-1 $294 reversed single #
loop $-1 $-1 $131 $125 #
plane-surface $-1 0 0 13.181244120368858 0 0 1 1 0 0 forward_v I I I I #
coedge $-1 $295 $296 $129 $208 forward $126 $-1 #
coedge $-1 $204 $128 $130 $209 reversed $79 $-1 #
coedge $-1 $128 $203 $297 $298 reversed $79 $-1 #
coedge $-1 $299 $131 $128 $206 forward $200 $-1 #
edge $-1 $212 -26.48330524052308 $300 -16.412300579121698 $205 $301 forward 7 unknown #
coedge $-1 $130 $129 $302 $303 reversed $51 $-1 #
edge $-1 $304 -9.0280442351878598 $211 4.9722999234318923 $202 $305 forward 7 unknown #
edge $-1 $306 9.7385709978959816e-015 $212 14.000344158619763 $203 $307 forward 7 unknown #
coedge $-1 $131 $299 $295 $308 forward $200 $-1 #
vertex $-1 $132 $309 #
vertex $-1 $132 $310 #
straight-curve $-1 18.856241380123677 -18.367127912466049 13.181244120368858 -1 0 0 I I #
coedge $-1 $214 $214 $-1 $311 reversed $135 $-1 #
edge $-1 $312 0 $312 6.2831853071796004 $136 $313 forward 7 unknown #
vertex $-1 $139 $314 #
ellipse-curve $-1 37.712482760247369 -23.402630243166737 8.3185159336965366 0 -0.69465837861970381 0.71933979245794832 3 0 0 1 I I #
face $-1 $-1 $155 $21 $-1 $315 reversed single #
loop $-1 $-1 $234 $140 #
plane-surface $-1 0 28.438132573867428 0 0 -1 0 0 0 -1 forward_v I I I I #
coedge $-1 $316 $232 $235 $317 forward $141 $-1 #
coedge $-1 $238 $143 $144 $226 reversed $88 $-1 #
coedge $-1 $232 $316 $143 $224 reversed $141 $-1 #
edge $-1 $239 -13.181244120368858 $318 13.181244120368858 $223 $319 forward 7 unknown #
coedge $-1 $145 $144 $316 $320 forward $57 $-1 #
edge $-1 $230 -44.09558397167882 $318 44.09558397167882 $222 $321 forward 7 unknown #
coedge $-1 $235 $234 $145 $228 reversed $219 $-1 #
edge $-1 $322 -44.09558397167882 $229 44.09558397167882 $227 $323 forward 7 unknown #
vertex $-1 $147 $324 #
vertex $-1 $241 $325 #
straight-curve $-1 44.09558397167882 0 -13.181244120368858 0 -1 0 I I #
coedge $-1 $221 $223 $148 $233 reversed $141 $-1 #
edge $-1 $236 -28.438132573867428 $239 28.438132573867428 $232 $326 forward 7 unknown #
coedge $-1 $227 $149 $154 $242 forward $219 $-1 #
coedge $-1 $149 $227 $221 $317 reversed $219 $-1 #
vertex $-1 $150 $327 #
straight-curve $-1 0 28.438132573867428 13.181244120368858 -1 0 0 I I #
coedge $-1 $151 $222 $153 $241 reversed $88 $-1 #
vertex $-1 $233 $328 #
straight-curve $-1 0 -28.438132573867428 13.181244120368858 1 0 0 I I #
edge $-1 $156 -13.181244120368858 $230 13.181244120368858 $153 $329 forward 7 unknown #
edge $-1 $157 -13.181244120368858 $229 13.181244120368858 $154 $330 forward 7 unknown #
point $-1 44.09558397167882 -28.438132573867428 13.181244120368858 #
point $-1 44.09558397167882 28.438132573867428 13.181244120368858 #
face $-1 $-1 $258 $22 $-1 $331 reversed single #
loop $-1 $-1 $254 $159 #
plane-surface $-1 -44.09558397167882 0 0 1 0 0 0 0 -1 forward_v I I I I #
coedge $-1 $332 $162 $251 $333 forward $96 $-1 #
coedge $-1 $162 $332 $334 $335 forward $96 $-1 #
edge $-1 $336 -28.438132573867428 $252 28.438132573867428 $162 $337 forward 7 unknown #
coedge $-1 $164 $261 $248 $333 reversed $160 $-1 #
vertex $-1 $333 $338 #
straight-curve $-1 -30.124205384427242 -28.438132573867428 -5.230882617651857 0 0 1 I I #
coedge $-1 $339 $340 $166 $255 forward $246 $-1 #
edge $-1 $262 -28.438132573867428 $259 28.438132573867428 $254 $341 forward 7 unknown #
coedge $-1 $334 $167 $171 $264 forward $258 $-1 #
coedge $-1 $167 $334 $339 $342 reversed $258 $-1 #
loop $-1 $-1 $256 $245 #
vertex $-1 $342 $343 #
straight-curve $-1 -18.554947339026516 28.438132573867428 -7.7422863502385706 1 0 0 I I #
coedge $-1 $251 $169 $340 $344 forward $160 $-1 #
vertex $-1 $344 $345 #
straight-curve $-1 -18.554947339026516 -28.438132573867428 -7.7422863502385706 -1 0 0 I I #
edge $-1 $173 2.5114037325867136 $336 7.9503615027170005 $256 $346 forward 7 unknown #
point $-1 -30.124205384427242 -28.438132573867428 -7.7422863502385706 #
point $-1 -30.124205384427242 28.438132573867428 -7.7422863502385706 #
plane-surface $-1 0 0 13.181244120368858 0 0 1 1 0 0 forward_v I I I I #
coedge $-1 $278 $277 $270 $347 forward $176 $-1 #
coedge $-1 $270 $178 $180 $274 reversed $104 $-1 #
coedge $-1 $178 $269 $268 $347 reversed $104 $-1 #
coedge $-1 $186 $181 $178 $272 forward $187 $-1 #
edge $-1 $275 -2.4696158948384301 $348 1.3643568863335069 $271 $349 forward 7 unknown #
coedge $-1 $180 $179 $278 $350 reversed $65 $-1 #
edge $-1 $351 -56.876265147734856 $275 -51.254590587338789 $269 $352 forward 7 unknown #
vertex $-1 $182 $353 #
straight-curve $-1 1.4111059204944318 24.604159792695491 13.181244120368859 1 0 0 I I #
coedge $-1 $268 $183 $186 $282 reversed $176 $-1 #
coedge $-1 $183 $268 $273 $350 forward $176 $-1 #
vertex $-1 $184 $354 #
straight-curve $-1 -8.1630735195479858 28.438132573867428 55.406355111373571 0 0 1 I I #
straight-curve $-1 -8.1630735195479858 -10.351386479289992 50.6664790949932 0 0.68199835119979291 -0.73135370988377701 I I #
edge $-1 $348 -13.807497201525713 $188 8.1630735195479858 $277 $355 forward 7 unknown #
point $-1 -8.1630735195479858 28.438132573867428 13.181244120368858 #
point $-1 -8.1630735195479858 24.604159792695491 13.181244120368859 #
edge $-1 $356 1 $356 0 $191 $-1 forward 7 unknown #
vertex $-1 $192 $357 #
ellipse-curve $-1 -1.8857675992412126 24.820554067327457 9.5397000826512048 0 0.73135370988377701 0.68199835119979291 1 0 0 1 I I #
point $-1 -0.88576759924121262 26.521146183281459 11.125527847616405 #
edge $-1 $358 1 $358 0 $195 $-1 forward 7 unknown #
vertex $-1 $196 $359 #
ellipse-curve $-1 7.5301912812189471 24.820554067327457 9.5397000826512048 0 0.73135370988377701 0.68199835119979291 1 0 0 1 I I #
point $-1 8.5301912812189471 26.521146183281459 11.125527847616405 #
loop $-1 $-1 $302 $199 #
plane-surface $-1 0 -28.438132573867428 0 0 1 0 0 0 1 forward_v I I I I #
coedge $-1 $296 $202 $210 $308 reversed $126 $-1 #
coedge $-1 $202 $295 $360 $361 forward $126 $-1 #
coedge $-1 $302 $362 $204 $298 forward $293 $-1 #
edge $-1 $300 20.26635797564272 $306 29.991814348987361 $297 $363 forward 7 unknown #
coedge $-1 $210 $205 $362 $364 forward $200 $-1 #
vertex $-1 $364 $365 #
straight-curve $-1 31.329381548815896 -44.850433152989126 13.181244120368859 0 -1 0 I I #
coedge $-1 $360 $297 $207 $303 forward $293 $-1 #
edge $-1 $306 12.473140168692218 $304 25.239342591555136 $302 $366 forward 7 unknown #
vertex $-1 $303 $367 #
straight-curve $-1 44.09558397167882 -21.943901107426214 9.7271943175467808 0 0.71933979245794832 0.69465837861970381 I I #
vertex $-1 $303 $368 #
straight-curve $-1 31.329381548815896 -28.438132573867435 3.4557877470242104 0 0.71933979245794832 0.69465837861970381 I I #
edge $-1 $369 -28.438132573867428 $211 -18.367127912466046 $295 $370 forward 7 unknown #
point $-1 44.095583971678813 -18.367127912466046 13.181244120368858 #
point $-1 31.329381548815896 -18.367127912466046 13.181244120368858 #
edge $-1 $371 1 $371 0 $214 $-1 forward 7 unknown #
vertex $-1 $215 $372 #
ellipse-curve $-1 37.712482760247369 -19.782719576712893 4.5699887904735634 0 -0.69465837861970381 0.71933979245794832 3 0 0 1 I I #
point $-1 40.712482760247369 -23.402630243166733 8.3185159336965349 #
plane-surface $-1 44.09558397167882 0 0 -1 0 0 0 0 1 forward_v I I I I #
coedge $-1 $223 $221 $225 $320 reversed $141 $-1 #
edge $-1 $236 -13.181244120368858 $322 13.181244120368858 $235 $373 forward 7 unknown #
vertex $-1 $320 $374 #
straight-curve $-1 -44.09558397167882 -28.438132573867428 0 0 0 -1 I I #
edge $-1 $318 -28.438132573867428 $322 28.438132573867428 $316 $375 forward 7 unknown #
straight-curve $-1 0 -28.438132573867428 -13.181244120368858 -1 0 0 I I #
vertex $-1 $228 $376 #
straight-curve $-1 0 28.438132573867428 -13.181244120368858 1 0 0 I I #
point $-1 44.09558397167882 28.438132573867428 -13.181244120368858 #
point $-1 44.09558397167882 -28.438132573867428 -13.181244120368858 #
straight-curve $-1 -44.09558397167882 0 13.181244120368858 0 -1 0 I I #
point $-1 -44.09558397167882 28.438132573867428 13.181244120368858 #
point $-1 -44.09558397167882 -28.438132573867428 13.181244120368858 #
straight-curve $-1 44.09558397167882 -28.438132573867428 0 0 0 -1 I I #
straight-curve $-1 44.09558397167882 28.438132573867428 0 0 0 -1 I I #
plane-surface $-1 0 28.438132573867428 0 0 -1 0 0 0 -1 forward_v I I I I #
coedge $-1 $249 $248 $377 $378 forward $96 $-1 #
edge $-1 $252 30.124205384427242 $379 44.09558397167882 $251 $380 forward 7 unknown #
coedge $-1 $257 $256 $249 $335 reversed $258 $-1 #
edge $-1 $381 -44.09558397167882 $336 -30.124205384427242 $334 $382 forward 7 unknown #
vertex $-1 $264 $383 #
straight-curve $-1 -30.124205384427242 0 -13.181244120368858 0 -1 0 I I #
point $-1 -30.124205384427242 -28.438132573867428 -13.181244120368858 #
coedge $-1 $377 $254 $257 $342 forward $246 $-1 #
coedge $-1 $254 $377 $261 $344 reversed $246 $-1 #
straight-curve $-1 -44.09558397167882 0 -7.7422863502385706 0 1 0 I I #
edge $-1 $259 7.7422863502385706 $381 13.181244120368858 $257 $384 forward 7 unknown #
point $-1 -44.09558397167882 28.438132573867428 -7.7422863502385706 #
edge $-1 $262 7.7422863502385706 $379 13.181244120368858 $340 $385 forward 7 unknown #
point $-1 -44.09558397167882 -28.438132573867428 -7.7422863502385706 #
straight-curve $-1 -30.124205384427242 28.438132573867428 -5.230882617651857 0 0 -1 I I #
edge $-1 $348 42.225110991004712 $351 46.33654353650963 $268 $386 forward 7 unknown #
vertex $-1 $282 $387 #
straight-curve $-1 13.807497201525713 27.073775687533921 13.181244120368859 0 1 0 I I #
edge $-1 $351 -12.396391281031281 $279 9.5741794400424176 $278 $388 forward 7 unknown #
vertex $-1 $350 $389 #
straight-curve $-1 13.807497201525713 -10.351386479289992 50.6664790949932 0 -0.68199835119979291 0.73135370988377701 I I #
point $-1 13.807497201525713 24.604159792695491 13.181244120368859 #
point $-1 -8.1630735195479858 28.438132573867428 9.069811574863941 #
straight-curve $-1 0 28.438132573867428 13.181244120368858 -1 0 0 I I #
vertex $-1 $285 $390 #
point $-1 -0.88576759924121262 24.820554067327457 9.5397000826512048 #
vertex $-1 $289 $391 #
point $-1 8.5301912812189471 24.820554067327457 9.5397000826512048 #
coedge $-1 $362 $302 $296 $361 reversed $293 $-1 #
edge $-1 $369 -13.181244120368858 $304 -3.4557877470242171 $296 $392 forward 7 unknown #
coedge $-1 $297 $360 $299 $364 reversed $293 $-1 #
straight-curve $-1 31.329381548815896 -28.438132573867428 33.447602096011579 0 0 -1 I I #
edge $-1 $300 31.329381548815896 $369 44.09558397167882 $362 $393 forward 7 unknown #
point $-1 31.329381548815896 -28.438132573867428 13.181244120368858 #
straight-curve $-1 18.856241380123677 -28.438132573867428 3.455787747024218 1 0 0 I I #
point $-1 44.095583971678813 -28.438132573867428 3.4557877470242171 #
point $-1 31.329381548815896 -28.438132573867428 3.4557877470242171 #
vertex $-1 $308 $394 #
straight-curve $-1 44.09558397167882 0 13.181244120368858 0 1 0 I I #
vertex $-1 $311 $395 #
point $-1 40.712482760247369 -19.782719576712893 4.5699887904735634 #
straight-curve $-1 -44.09558397167882 28.438132573867428 0 0 0 -1 I I #
point $-1 -44.09558397167882 -28.438132573867428 -13.181244120368858 #
straight-curve $-1 -44.09558397167882 0 -13.181244120368858 0 1 0 I I #
point $-1 -44.09558397167882 28.438132573867428 -13.181244120368858 #
coedge $-1 $340 $339 $332 $378 reversed $246 $-1 #
edge $-1 $379 -28.438132573867428 $381 28.438132573867428 $377 $396 forward 7 unknown #
vertex $-1 $378 $397 #
straight-curve $-1 0 -28.438132573867428 -13.181244120368858 -1 0 0 I I #
vertex $-1 $335 $398 #
straight-curve $-1 0 28.438132573867428 -13.181244120368858 1 0 0 I I #
point $-1 -30.124205384427242 28.438132573867428 -13.181244120368858 #
straight-curve $-1 -44.09558397167882 28.438132573867428 0 0 0 -1 I I #
straight-curve $-1 -44.09558397167882 -28.438132573867428 0 0 0 -1 I I #
straight-curve $-1 13.807497201525713 28.438132573867428 55.406355111373571 0 0 -1 I I #
point $-1 13.807497201525713 28.438132573867428 13.181244120368858 #
straight-curve $-1 1.4111059204944318 28.438132573867424 9.0698115748639445 -1 0 0 I I #
point $-1 13.807497201525713 28.438132573867428 9.069811574863941 #
point $-1 -1.8857675992412126 24.08920035744368 8.8577017314514137 #
point $-1 7.5301912812189471 24.08920035744368 8.8577017314514137 #
straight-curve $-1 44.09558397167882 -28.438132573867428 0 0 0 -1 I I #
straight-curve $-1 0 -28.438132573867428 13.181244120368858 1 0 0 I I #
point $-1 44.09558397167882 -28.438132573867428 13.181244120368858 #
point $-1 37.712482760247369 -17.69874444085378 2.411969413099718 #
straight-curve $-1 -44.09558397167882 0 -13.181244120368858 0 1 0 I I #
point $-1 -44.09558397167882 -28.438132573867428 -13.181244120368858 #
point $-1 -44.09558397167882 28.438132573867428 -13.181244120368858 #
End-of-ACIS-data 