500 0 17 0           
7 Unknown 11 ACIS 5.0 NT 24 Fri Mar 26 02:05:48 1999 
-1 9.9999999999999995e-007 1e-010 
body $-1 $17 $-1 $18 #
body $-1 $19 $-1 $20 #
body $-1 $21 $-1 $22 #
body $-1 $23 $-1 $24 #
body $-1 $25 $-1 $26 #
body $-1 $27 $-1 $28 #
body $-1 $29 $-1 $30 #
body $-1 $31 $-1 $32 #
body $-1 $33 $-1 $34 #
body $-1 $35 $-1 $36 #
body $-1 $37 $-1 $38 #
body $-1 $39 $-1 $40 #
body $-1 $41 $-1 $42 #
body $-1 $43 $-1 $44 #
body $-1 $45 $-1 $46 #
body $-1 $47 $-1 $48 #
body $-1 $49 $-1 $50 #
lump $-1 $-1 $51 $0 #
transform $-1 1 0 0 0 1 0 0 0 1 75.33433027130954 40.590000124329833 8.7315510689524132 1 rotate no_reflect no_shear #
lump $-1 $-1 $52 $1 #
transform $-1 1 0 0 0 1 0 0 0 1 75.33433027130954 40.590000124329833 8.7315510689524132 1 rotate no_reflect no_shear #
lump $-1 $-1 $53 $2 #
transform $-1 1 0 0 0 1 0 0 0 1 75.33433027130954 40.590000124329833 8.7315510689524132 1 rotate no_reflect no_shear #
lump $-1 $-1 $54 $3 #
transform $-1 1 0 0 0 1 0 0 0 1 75.33433027130954 40.590000124329833 8.7315510689524132 1 rotate no_reflect no_shear #
lump $-1 $-1 $55 $4 #
transform $-1 1 0 0 0 1 0 0 0 1 75.33433027130954 40.590000124329833 8.7315510689524132 1 rotate no_reflect no_shear #
lump $-1 $-1 $56 $5 #
transform $-1 1 0 0 0 1 0 0 0 1 75.33433027130954 40.590000124329833 8.7315510689524132 1 rotate no_reflect no_shear #
lump $-1 $-1 $57 $6 #
transform $-1 1 0 0 0 1 0 0 0 1 75.33433027130954 40.590000124329833 8.7315510689524132 1 rotate no_reflect no_shear #
lump $-1 $-1 $58 $7 #
transform $-1 1 0 0 0 1 0 0 0 1 75.33433027130954 40.590000124329833 8.7315510689524132 1 rotate no_reflect no_shear #
lump $-1 $-1 $59 $8 #
transform $-1 1 0 0 0 1 0 0 0 1 75.33433027130954 40.590000124329833 8.7315510689524132 1 rotate no_reflect no_shear #
lump $-1 $-1 $60 $9 #
transform $-1 1 0 0 0 1 0 0 0 1 75.33433027130954 40.590000124329833 8.7315510689524132 1 rotate no_reflect no_shear #
lump $-1 $-1 $61 $10 #
transform $-1 1 0 0 0 1 0 0 0 1 75.33433027130954 40.590000124329833 8.7315510689524132 1 rotate no_reflect no_shear #
lump $-1 $-1 $62 $11 #
transform $-1 1 0 0 0 1 0 0 0 1 75.33433027130954 40.590000124329833 8.7315510689524132 1 rotate no_reflect no_shear #
lump $-1 $-1 $63 $12 #
transform $-1 1 0 0 0 1 0 0 0 1 75.33433027130954 40.590000124329833 8.7315510689524132 1 rotate no_reflect no_shear #
lump $-1 $-1 $64 $13 #
transform $-1 1 0 0 0 1 0 0 0 1 75.33433027130954 40.590000124329833 8.7315510689524132 1 rotate no_reflect no_shear #
lump $-1 $-1 $65 $14 #
transform $-1 1 0 0 0 1 0 0 0 1 75.33433027130954 40.590000124329833 8.7315510689524132 1 rotate no_reflect no_shear #
lump $-1 $-1 $66 $15 #
transform $-1 1 0 0 0 1 0 0 0 1 75.33433027130954 40.590000124329833 8.7315510689524132 1 rotate no_reflect no_shear #
lump $-1 $-1 $67 $16 #
transform $-1 1 0 0 0 1 0 0 0 1 75.33433027130954 40.590000124329833 8.7315510689524132 1 rotate no_reflect no_shear #
shell $-1 $-1 $-1 $68 $-1 $17 #
shell $-1 $-1 $-1 $69 $-1 $19 #
shell $-1 $-1 $-1 $70 $-1 $21 #
shell $-1 $-1 $-1 $71 $-1 $23 #
shell $-1 $-1 $-1 $72 $-1 $25 #
shell $-1 $-1 $-1 $73 $-1 $27 #
shell $-1 $-1 $-1 $74 $-1 $29 #
shell $-1 $-1 $-1 $75 $-1 $31 #
shell $-1 $-1 $-1 $76 $-1 $33 #
shell $-1 $-1 $-1 $77 $-1 $35 #
shell $-1 $-1 $-1 $78 $-1 $37 #
shell $-1 $-1 $-1 $79 $-1 $39 #
shell $-1 $-1 $-1 $80 $-1 $41 #
shell $-1 $-1 $-1 $81 $-1 $43 #
shell $-1 $-1 $-1 $82 $-1 $45 #
shell $-1 $-1 $-1 $83 $-1 $47 #
shell $-1 $-1 $-1 $84 $-1 $49 #
face $-1 $85 $86 $51 $-1 $87 forward single #
face $-1 $88 $89 $52 $-1 $90 forward single #
face $-1 $91 $92 $53 $-1 $93 forward single #
face $-1 $94 $95 $54 $-1 $96 reversed single #
face $-1 $97 $98 $55 $-1 $99 forward single #
face $-1 $100 $101 $56 $-1 $102 reversed single #
face $-1 $103 $104 $57 $-1 $105 forward single #
face $-1 $106 $107 $58 $-1 $108 forward single #
face $-1 $109 $110 $59 $-1 $111 reversed single #
face $-1 $112 $113 $60 $-1 $114 forward single #
face $-1 $115 $116 $61 $-1 $117 forward single #
face $-1 $118 $119 $62 $-1 $120 reversed single #
face $-1 $121 $122 $63 $-1 $123 forward single #
face $-1 $124 $125 $64 $-1 $126 forward single #
face $-1 $127 $128 $65 $-1 $129 reversed single #
face $-1 $130 $131 $66 $-1 $132 forward single #
face $-1 $133 $134 $67 $-1 $135 forward single #
face $-1 $136 $137 $51 $-1 $138 reversed single #
loop $-1 $-1 $139 $68 #
plane-surface $-1 0 0 8.7315510689524132 0 0 1 1 0 0 forward_v I I I I #
face $-1 $140 $141 $52 $-1 $142 reversed single #
loop $-1 $-1 $143 $69 #
plane-surface $-1 0 -36.726074930994351 6.0499302699955075 0 0 1 1 0 0 forward_v I I I I #
face $-1 $144 $145 $53 $-1 $146 reversed single #
loop $-1 $-1 $147 $70 #
plane-surface $-1 0 36.726074930994344 6.0499302699955075 0 0 1 1 0 0 forward_v I I I I #
face $-1 $148 $149 $54 $-1 $150 reversed single #
loop $-1 $-1 $151 $71 #
plane-surface $-1 119.63567055830421 -21.788521293468342 209.01787607174589 0 1 0 0.83867057594974714 0 0.54463902268945019 forward_v I I I I #
face $-1 $152 $153 $55 $-1 $154 forward single #
loop $-1 $155 $156 $72 #
cone-surface $-1 71.963638345051436 -15.204959113443877 4.1904628362170238 -0.83867057594974714 0 -0.54463902268945019 0.54463902268945019 0 -0.83867057594974714 1 I I 0 1 1 forward I I I I #
face $-1 $157 $158 $56 $-1 $159 reversed single #
loop $-1 $-1 $160 $73 #
plane-surface $-1 -174.18186660826473 -21.581236752441384 115.17024976208747 0 -1 0 0.6560590369687036 0 -0.75470957328743171 forward_v I I I I #
face $-1 $161 $162 $57 $-1 $163 forward single #
loop $-1 $164 $165 $74 #
cone-surface $-1 -69.246128083657112 -29.639031741882441 2.9036286980587258 0.6560590369687036 0 -0.75470957328743171 1.1320643599311475 0 0.9840885554530554 1 I I 0 1 1.5 forward I I I I #
face $-1 $166 $167 $58 $-1 $168 forward single #
loop $-1 $169 $170 $75 #
cone-surface $-1 -69.246128083657112 -24.804354748217804 2.9036286980587258 0.6560590369687036 0 -0.75470957328743171 1.1320643599311475 0 0.9840885554530554 1 I I 0 1 1.5 forward I I I I #
face $-1 $171 $172 $59 $-1 $173 reversed single #
loop $-1 $-1 $174 $76 #
plane-surface $-1 -174.18186660826473 -14.714354240958786 115.17024976208747 0 1 0 -0.6560590369687036 0 0.75470957328743171 forward_v I I I I #
face $-1 $175 $176 $60 $-1 $177 forward single #
loop $-1 $178 $179 $77 #
cone-surface $-1 -69.246128083657112 -11.491236245182357 2.9036286980587258 0.6560590369687036 0 -0.75470957328743171 1.1320643599311475 0 0.9840885554530554 1 I I 0 1 1.5 forward I I I I #
face $-1 $180 $181 $61 $-1 $182 forward single #
loop $-1 $183 $184 $78 #
cone-surface $-1 -69.246128083657112 -6.6565592515177201 2.9036286980587258 0.6560590369687036 0 -0.75470957328743171 1.1320643599311475 0 0.9840885554530554 1 I I 0 1 1.5 forward I I I I #
face $-1 $185 $186 $62 $-1 $187 reversed single #
loop $-1 $-1 $188 $79 #
plane-surface $-1 -174.18186660826473 3.4334412557412985 115.17024976208747 0 1 0 -0.6560590369687036 0 0.75470957328743171 forward_v I I I I #
face $-1 $189 $190 $63 $-1 $191 forward single #
loop $-1 $192 $193 $80 #
cone-surface $-1 -69.246128083657112 6.6565592515177272 2.9036286980587258 0.6560590369687036 0 -0.75470957328743171 1.1320643599311475 0 0.9840885554530554 1 I I 0 1 1.5 forward I I I I #
face $-1 $194 $195 $64 $-1 $196 forward single #
loop $-1 $197 $198 $81 #
cone-surface $-1 -69.246128083657112 11.491236245182364 2.9036286980587258 0.6560590369687036 0 -0.75470957328743171 1.1320643599311475 0 0.9840885554530554 1 I I 0 1 1.5 forward I I I I #
face $-1 $199 $200 $65 $-1 $201 reversed single #
loop $-1 $-1 $202 $82 #
plane-surface $-1 -174.18186660826473 21.581236752441377 115.17024976208747 0 1 0 -0.6560590369687036 0 0.75470957328743171 forward_v I I I I #
face $-1 $203 $204 $66 $-1 $205 forward single #
loop $-1 $206 $207 $83 #
cone-surface $-1 -69.246128083657112 24.804354748217804 2.9036286980587258 0.6560590369687036 0 -0.75470957328743171 1.1320643599311475 0 0.9840885554530554 1 I I 0 1 1.5 forward I I I I #
face $-1 $208 $209 $67 $-1 $210 forward single #
loop $-1 $211 $212 $84 #
cone-surface $-1 -69.246128083657112 29.639031741882448 2.9036286980587258 0.6560590369687036 0 -0.75470957328743171 1.1320643599311475 0 0.9840885554530554 1 I I 0 1 1.5 forward I I I I #
face $-1 $213 $214 $51 $-1 $215 reversed single #
loop $-1 $-1 $216 $85 #
plane-surface $-1 0 0 -8.7315510689524132 0 0 1 1 0 0 forward_v I I I I #
coedge $-1 $217 $218 $219 $220 forward $86 $-1 #
face $-1 $221 $222 $52 $-1 $223 reversed single #
loop $-1 $-1 $224 $88 #
plane-surface $-1 0 -36.726074930994351 1.3048291046512395 0 0 1 1 0 0 forward_v I I I I #
coedge $-1 $225 $226 $227 $228 reversed $89 $-1 #
face $-1 $229 $230 $53 $-1 $231 reversed single #
loop $-1 $-1 $232 $91 #
plane-surface $-1 0 36.726074930994344 1.3048291046512395 0 0 1 1 0 0 forward_v I I I I #
coedge $-1 $233 $234 $235 $236 reversed $92 $-1 #
face $-1 $237 $238 $54 $-1 $239 reversed single #
loop $-1 $-1 $240 $94 #
plane-surface $-1 -6.7257017565510751 -15.204959113443877 126.9578440438853 0.83867057594974714 0 0.54463902268945019 0.54463902268945019 0 -0.83867057594974714 forward_v I I I I #
coedge $-1 $241 $242 $243 $244 reversed $95 $-1 #
face $-1 $-1 $245 $55 $-1 $246 forward single #
loop $-1 $247 $248 $97 #
cone-surface $-1 70.815102193133924 -15.204959113443877 3.4445947620980917 -0.83867057594974714 0 -0.54463902268945019 0.2723195113447251 0 -0.41933528797487357 1 I I -0.70710678118654746 0.70710678118654746 0.5 forward I I I I #
loop $-1 $-1 $249 $72 #
coedge $-1 $156 $156 $250 $251 reversed $98 $-1 #
face $-1 $252 $253 $56 $-1 $254 forward single #
loop $-1 $-1 $255 $100 #
plane-surface $-1 -75.33433027130954 -27.221693245050126 1.4591692561785266 -0.6560590369687036 0 0.75470957328743171 0.75470957328743171 0 0.6560590369687036 forward_v I I I I #
coedge $-1 $256 $257 $258 $259 reversed $101 $-1 #
face $-1 $-1 $260 $57 $-1 $261 forward single #
loop $-1 $262 $263 $103 #
cone-surface $-1 -66.848840670303019 -29.639031741882441 0.14586505358641944 0.6560590369687036 0 -0.75470957328743171 0.56603217996557376 0 0.4920442777265277 1 I I -0.70710678118654757 0.70710678118654757 0.75 forward I I I I #
loop $-1 $-1 $264 $74 #
coedge $-1 $165 $165 $265 $266 reversed $104 $-1 #
face $-1 $-1 $267 $58 $-1 $268 forward single #
loop $-1 $269 $270 $106 #
cone-surface $-1 -66.848840670303019 -24.804354748217804 0.14586505358641944 0.6560590369687036 0 -0.75470957328743171 0.56603217996557376 0 0.4920442777265277 1 I I -0.70710678118654757 0.70710678118654757 0.75 forward I I I I #
loop $-1 $-1 $271 $75 #
coedge $-1 $170 $170 $272 $273 reversed $107 $-1 #
face $-1 $274 $275 $59 $-1 $276 reversed single #
loop $-1 $-1 $277 $109 #
plane-surface $-1 -75.33433027130954 -9.073897748350042 1.4591692561785266 -0.6560590369687036 0 0.75470957328743171 0.75470957328743171 0 0.6560590369687036 forward_v I I I I #
coedge $-1 $278 $279 $280 $281 reversed $110 $-1 #
face $-1 $-1 $282 $60 $-1 $283 forward single #
loop $-1 $284 $285 $112 #
cone-surface $-1 -66.848840670303019 -11.491236245182357 0.14586505358641944 0.6560590369687036 0 -0.75470957328743171 0.56603217996557376 0 0.4920442777265277 1 I I -0.70710678118654757 0.70710678118654757 0.75 forward I I I I #
loop $-1 $-1 $286 $77 #
coedge $-1 $179 $179 $287 $288 reversed $113 $-1 #
face $-1 $-1 $289 $61 $-1 $290 forward single #
loop $-1 $291 $292 $115 #
cone-surface $-1 -66.848840670303019 -6.6565592515177201 0.14586505358641944 0.6560590369687036 0 -0.75470957328743171 0.56603217996557376 0 0.4920442777265277 1 I I -0.70710678118654757 0.70710678118654757 0.75 forward I I I I #
loop $-1 $-1 $293 $78 #
coedge $-1 $184 $184 $294 $295 reversed $116 $-1 #
face $-1 $296 $297 $62 $-1 $298 reversed single #
loop $-1 $-1 $299 $118 #
plane-surface $-1 -75.33433027130954 9.073897748350042 1.4591692561785266 -0.6560590369687036 0 0.75470957328743171 0.75470957328743171 0 0.6560590369687036 forward_v I I I I #
coedge $-1 $300 $301 $302 $303 reversed $119 $-1 #
face $-1 $-1 $304 $63 $-1 $305 forward single #
loop $-1 $306 $307 $121 #
cone-surface $-1 -66.848840670303019 6.6565592515177272 0.14586505358641944 0.6560590369687036 0 -0.75470957328743171 0.56603217996557376 0 0.4920442777265277 1 I I -0.70710678118654757 0.70710678118654757 0.75 forward I I I I #
loop $-1 $-1 $308 $80 #
coedge $-1 $193 $193 $309 $310 reversed $122 $-1 #
face $-1 $-1 $311 $64 $-1 $312 forward single #
loop $-1 $313 $314 $124 #
cone-surface $-1 -66.848840670303019 11.491236245182364 0.14586505358641944 0.6560590369687036 0 -0.75470957328743171 0.56603217996557376 0 0.4920442777265277 1 I I -0.70710678118654757 0.70710678118654757 0.75 forward I I I I #
loop $-1 $-1 $315 $81 #
coedge $-1 $198 $198 $316 $317 reversed $125 $-1 #
face $-1 $318 $319 $65 $-1 $320 reversed single #
loop $-1 $-1 $321 $127 #
plane-surface $-1 -75.33433027130954 27.221693245050119 1.4591692561785266 -0.6560590369687036 0 0.75470957328743171 0.75470957328743171 0 0.6560590369687036 forward_v I I I I #
coedge $-1 $322 $323 $324 $325 reversed $128 $-1 #
face $-1 $-1 $326 $66 $-1 $327 forward single #
loop $-1 $328 $329 $130 #
cone-surface $-1 -66.848840670303019 24.804354748217804 0.14586505358641944 0.6560590369687036 0 -0.75470957328743171 0.56603217996557376 0 0.4920442777265277 1 I I -0.70710678118654757 0.70710678118654757 0.75 forward I I I I #
loop $-1 $-1 $330 $83 #
coedge $-1 $207 $207 $331 $332 reversed $131 $-1 #
face $-1 $-1 $333 $67 $-1 $334 forward single #
loop $-1 $335 $336 $133 #
cone-surface $-1 -66.848840670303019 29.639031741882448 0.14586505358641944 0.6560590369687036 0 -0.75470957328743171 0.56603217996557376 0 0.4920442777265277 1 I I -0.70710678118654757 0.70710678118654757 0.75 forward I I I I #
loop $-1 $-1 $337 $84 #
coedge $-1 $212 $212 $338 $339 reversed $134 $-1 #
face $-1 $340 $341 $51 $-1 $342 reversed single #
loop $-1 $-1 $343 $136 #
plane-surface $-1 0 -40.590000124329833 0 0 1 0 0 0 1 forward_v I I I I #
coedge $-1 $344 $345 $346 $347 forward $137 $-1 #
coedge $-1 $348 $139 $349 $350 forward $86 $-1 #
coedge $-1 $139 $348 $351 $352 forward $86 $-1 #
coedge $-1 $353 $354 $139 $220 reversed $355 $-1 #
edge $-1 $356 -40.590000124329833 $357 40.590000124329833 $219 $358 forward 7 unknown #
face $-1 $359 $360 $52 $-1 $361 reversed single #
loop $-1 $-1 $362 $140 #
plane-surface $-1 0 -32.862149737658868 3.6773796873233735 0 -1 0 0 0 -1 forward_v I I I I #
coedge $-1 $363 $364 $365 $366 reversed $141 $-1 #
coedge $-1 $367 $143 $362 $368 forward $89 $-1 #
coedge $-1 $143 $367 $369 $370 reversed $89 $-1 #
coedge $-1 $371 $372 $143 $228 forward $373 $-1 #
edge $-1 $374 14.499112272161693 $375 22.226962658832658 $227 $376 forward 7 unknown #
face $-1 $377 $378 $53 $-1 $379 reversed single #
loop $-1 $-1 $380 $144 #
plane-surface $-1 0 32.862149737658861 3.6773796873233735 0 1 0 0 0 1 forward_v I I I I #
coedge $-1 $381 $382 $383 $384 reversed $145 $-1 #
coedge $-1 $385 $147 $386 $387 reversed $92 $-1 #
coedge $-1 $147 $385 $388 $389 forward $92 $-1 #
coedge $-1 $390 $391 $147 $236 forward $378 $-1 #
edge $-1 $392 -22.226962658832655 $393 -14.499112272161689 $235 $394 forward 7 unknown #
face $-1 $395 $396 $54 $-1 $397 forward single #
loop $-1 $-1 $398 $148 #
plane-surface $-1 119.63567055830421 -8.6213969334194136 209.01787607174589 0 -1 0 -0.83867057594974714 0 -0.54463902268945019 forward_v I I I I #
coedge $-1 $399 $400 $401 $402 reversed $149 $-1 #
coedge $-1 $242 $151 $403 $404 reversed $95 $-1 #
coedge $-1 $151 $241 $399 $405 reversed $95 $-1 #
coedge $-1 $401 $406 $151 $244 forward $407 $-1 #
edge $-1 $408 95.777386966920531 $409 103.91246630684297 $243 $410 forward 7 unknown #
loop $-1 $-1 $250 $152 #
plane-surface $-1 -6.7257017565510751 -15.204959113443877 126.9578440438853 0.83867057594974714 0 0.54463902268945019 0.54463902268945019 0 -0.83867057594974714 forward_v I I I I #
loop $-1 $-1 $411 $97 #
coedge $-1 $248 $248 $249 $412 reversed $153 $-1 #
coedge $-1 $249 $249 $248 $412 forward $155 $-1 #
coedge $-1 $250 $250 $156 $251 forward $245 $-1 #
edge $-1 $413 0 $413 6.2831853071796004 $250 $414 forward 7 unknown #
face $-1 $415 $416 $56 $-1 $417 reversed single #
loop $-1 $-1 $418 $157 #
plane-surface $-1 0 0 8.7315510689524132 0 0 1 1 0 0 forward_v I I I I #
coedge $-1 $419 $420 $421 $422 reversed $158 $-1 #
coedge $-1 $257 $160 $423 $424 reversed $101 $-1 #
coedge $-1 $160 $256 $419 $425 reversed $101 $-1 #
coedge $-1 $421 $426 $160 $259 forward $416 $-1 #
edge $-1 $427 48.853573812091319 $428 56.125955624865206 $258 $429 forward 7 unknown #
loop $-1 $-1 $265 $161 #
plane-surface $-1 -75.33433027130954 -27.221693245050126 1.4591692561785266 -0.6560590369687036 0 0.75470957328743171 0.75470957328743171 0 0.6560590369687036 forward_v I I I I #
loop $-1 $-1 $430 $103 #
coedge $-1 $263 $263 $264 $431 reversed $162 $-1 #
coedge $-1 $264 $264 $263 $431 forward $164 $-1 #
coedge $-1 $265 $265 $165 $266 forward $260 $-1 #
edge $-1 $432 0 $432 6.2831853071796004 $265 $433 forward 7 unknown #
loop $-1 $-1 $272 $166 #
plane-surface $-1 -75.33433027130954 -27.221693245050126 1.4591692561785266 -0.6560590369687036 0 0.75470957328743171 0.75470957328743171 0 0.6560590369687036 forward_v I I I I #
loop $-1 $-1 $434 $106 #
coedge $-1 $270 $270 $271 $435 reversed $167 $-1 #
coedge $-1 $271 $271 $270 $435 forward $169 $-1 #
coedge $-1 $272 $272 $170 $273 forward $267 $-1 #
edge $-1 $436 0 $436 6.2831853071796004 $272 $437 forward 7 unknown #
face $-1 $438 $439 $59 $-1 $440 reversed single #
loop $-1 $-1 $441 $171 #
plane-surface $-1 -174.18186660826473 -3.4334412557412985 115.17024976208747 0 -1 0 0.6560590369687036 0 -0.75470957328743171 forward_v I I I I #
coedge $-1 $442 $443 $444 $445 reversed $172 $-1 #
coedge $-1 $279 $174 $446 $447 reversed $110 $-1 #
coedge $-1 $174 $278 $442 $448 reversed $110 $-1 #
coedge $-1 $444 $449 $174 $281 forward $450 $-1 #
edge $-1 $451 11.756603032822824 $452 20.122521136872479 $280 $453 forward 7 unknown #
loop $-1 $-1 $287 $175 #
plane-surface $-1 -75.33433027130954 -9.073897748350042 1.4591692561785266 -0.6560590369687036 0 0.75470957328743171 0.75470957328743171 0 0.6560590369687036 forward_v I I I I #
loop $-1 $-1 $454 $112 #
coedge $-1 $285 $285 $286 $455 reversed $176 $-1 #
coedge $-1 $286 $286 $285 $455 forward $178 $-1 #
coedge $-1 $287 $287 $179 $288 forward $282 $-1 #
edge $-1 $456 0 $456 6.2831853071796004 $287 $457 forward 7 unknown #
loop $-1 $-1 $294 $180 #
plane-surface $-1 -75.33433027130954 -9.073897748350042 1.4591692561785266 -0.6560590369687036 0 0.75470957328743171 0.75470957328743171 0 0.6560590369687036 forward_v I I I I #
loop $-1 $-1 $458 $115 #
coedge $-1 $292 $292 $293 $459 reversed $181 $-1 #
coedge $-1 $293 $293 $292 $459 forward $183 $-1 #
coedge $-1 $294 $294 $184 $295 forward $289 $-1 #
edge $-1 $460 0 $460 6.2831853071796004 $294 $461 forward 7 unknown #
face $-1 $462 $463 $62 $-1 $464 forward single #
loop $-1 $-1 $465 $185 #
plane-surface $-1 -174.18186660826473 14.714354240958786 115.17024976208747 0 -1 0 0.6560590369687036 0 -0.75470957328743171 forward_v I I I I #
coedge $-1 $466 $467 $468 $469 reversed $186 $-1 #
coedge $-1 $301 $188 $470 $471 reversed $119 $-1 #
coedge $-1 $188 $300 $466 $472 reversed $119 $-1 #
coedge $-1 $468 $473 $188 $303 forward $463 $-1 #
edge $-1 $474 11.756603032822824 $475 20.122521136872479 $302 $476 forward 7 unknown #
loop $-1 $-1 $309 $189 #
plane-surface $-1 -75.33433027130954 9.073897748350042 1.4591692561785266 -0.6560590369687036 0 0.75470957328743171 0.75470957328743171 0 0.6560590369687036 forward_v I I I I #
loop $-1 $-1 $477 $121 #
coedge $-1 $307 $307 $308 $478 reversed $190 $-1 #
coedge $-1 $308 $308 $307 $478 forward $192 $-1 #
coedge $-1 $309 $309 $193 $310 forward $304 $-1 #
edge $-1 $479 0 $479 6.2831853071796004 $309 $480 forward 7 unknown #
loop $-1 $-1 $316 $194 #
plane-surface $-1 -75.33433027130954 9.073897748350042 1.4591692561785266 -0.6560590369687036 0 0.75470957328743171 0.75470957328743171 0 0.6560590369687036 forward_v I I I I #
loop $-1 $-1 $481 $124 #
coedge $-1 $314 $314 $315 $482 reversed $195 $-1 #
coedge $-1 $315 $315 $314 $482 forward $197 $-1 #
coedge $-1 $316 $316 $198 $317 forward $311 $-1 #
edge $-1 $483 0 $483 6.2831853071796004 $316 $484 forward 7 unknown #
face $-1 $485 $486 $65 $-1 $487 forward single #
loop $-1 $-1 $488 $199 #
plane-surface $-1 -75.33433027130954 0 0 1 0 0 0 0 -1 forward_v I I I I #
coedge $-1 $489 $490 $491 $492 reversed $200 $-1 #
coedge $-1 $323 $202 $493 $494 reversed $128 $-1 #
coedge $-1 $202 $322 $489 $495 reversed $128 $-1 #
coedge $-1 $491 $496 $202 $325 forward $497 $-1 #
edge $-1 $498 11.756603032822824 $499 20.122521136872479 $324 $500 forward 7 unknown #
loop $-1 $-1 $331 $203 #
plane-surface $-1 -75.33433027130954 27.221693245050119 1.4591692561785266 -0.6560590369687036 0 0.75470957328743171 0.75470957328743171 0 0.6560590369687036 forward_v I I I I #
loop $-1 $-1 $501 $130 #
coedge $-1 $329 $329 $330 $502 reversed $204 $-1 #
coedge $-1 $330 $330 $329 $502 forward $206 $-1 #
coedge $-1 $331 $331 $207 $332 forward $326 $-1 #
edge $-1 $503 0 $503 6.2831853071796004 $331 $504 forward 7 unknown #
loop $-1 $-1 $338 $208 #
plane-surface $-1 -75.33433027130954 27.221693245050119 1.4591692561785266 -0.6560590369687036 0 0.75470957328743171 0.75470957328743171 0 0.6560590369687036 forward_v I I I I #
loop $-1 $-1 $505 $133 #
coedge $-1 $336 $336 $337 $506 reversed $209 $-1 #
coedge $-1 $337 $337 $336 $506 forward $211 $-1 #
coedge $-1 $338 $338 $212 $339 forward $333 $-1 #
edge $-1 $507 0 $507 6.2831853071796004 $338 $508 forward 7 unknown #
face $-1 $509 $510 $51 $-1 $511 reversed single #
loop $-1 $-1 $512 $213 #
plane-surface $-1 -75.33433027130954 0 0 1 0 0 0 0 -1 forward_v I I I I #
coedge $-1 $513 $351 $514 $515 forward $214 $-1 #
coedge $-1 $516 $216 $513 $517 forward $137 $-1 #
coedge $-1 $216 $516 $518 $519 forward $137 $-1 #
coedge $-1 $354 $353 $216 $347 reversed $355 $-1 #
edge $-1 $520 -40.590000124329833 $521 40.590000124329833 $346 $522 forward 7 unknown #
coedge $-1 $218 $217 $523 $524 forward $86 $-1 #
coedge $-1 $525 $526 $217 $350 reversed $510 $-1 #
edge $-1 $357 -75.33433027130954 $527 75.33433027130954 $349 $528 forward 7 unknown #
coedge $-1 $343 $529 $218 $352 reversed $214 $-1 #
edge $-1 $530 -75.33433027130954 $356 75.33433027130954 $351 $531 forward 7 unknown #
coedge $-1 $346 $219 $529 $532 forward $355 $-1 #
coedge $-1 $219 $346 $525 $533 reversed $355 $-1 #
loop $-1 $-1 $353 $509 #
vertex $-1 $220 $534 #
vertex $-1 $220 $535 #
straight-curve $-1 75.33433027130954 0 8.7315510689524132 0 1 0 I I #
face $-1 $536 $537 $52 $-1 $538 reversed single #
loop $-1 $-1 $539 $221 #
plane-surface $-1 -75.33433027130954 0 0 1 0 0 0 0 -1 forward_v I I I I #
coedge $-1 $540 $541 $225 $368 reversed $222 $-1 #
coedge $-1 $542 $224 $543 $544 reversed $141 $-1 #
coedge $-1 $224 $542 $545 $546 forward $141 $-1 #
coedge $-1 $372 $371 $224 $366 forward $373 $-1 #
edge $-1 $547 -22.226962658832658 $548 -14.499112272161693 $365 $549 forward 7 unknown #
coedge $-1 $226 $225 $539 $550 reversed $89 $-1 #
edge $-1 $374 -75.33433027130954 $551 75.33433027130954 $362 $552 forward 7 unknown #
coedge $-1 $553 $554 $226 $370 forward $537 $-1 #
edge $-1 $375 -75.33433027130954 $555 75.33433027130954 $369 $556 forward 7 unknown #
coedge $-1 $365 $227 $554 $557 forward $373 $-1 #
coedge $-1 $227 $365 $540 $558 forward $373 $-1 #
loop $-1 $-1 $227 $536 #
vertex $-1 $228 $559 #
vertex $-1 $557 $560 #
straight-curve $-1 75.33433027130954 -18.363037465497175 6.0499302699955075 0 -1 0 I I #
face $-1 $561 $562 $53 $-1 $563 reversed single #
loop $-1 $-1 $235 $229 #
plane-surface $-1 75.33433027130954 0 0 -1 0 0 0 0 1 forward_v I I I I #
coedge $-1 $564 $388 $565 $566 reversed $230 $-1 #
coedge $-1 $567 $232 $564 $568 forward $145 $-1 #
coedge $-1 $232 $567 $569 $570 reversed $145 $-1 #
coedge $-1 $391 $390 $232 $384 forward $378 $-1 #
edge $-1 $571 14.499112272161689 $572 22.226962658832655 $383 $573 forward 7 unknown #
coedge $-1 $234 $233 $574 $575 reversed $92 $-1 #
coedge $-1 $576 $577 $233 $387 forward $578 $-1 #
edge $-1 $579 -75.33433027130954 $392 75.33433027130954 $386 $580 forward 7 unknown #
coedge $-1 $380 $581 $234 $389 reversed $230 $-1 #
edge $-1 $582 -75.33433027130954 $393 75.33433027130954 $388 $583 forward 7 unknown #
coedge $-1 $383 $235 $581 $584 forward $378 $-1 #
coedge $-1 $235 $383 $576 $585 reversed $378 $-1 #
vertex $-1 $585 $586 #
vertex $-1 $236 $587 #
straight-curve $-1 75.33433027130954 18.363037465497172 6.0499302699955075 0 -1 0 I I #
face $-1 $-1 $407 $54 $-1 $588 reversed single #
loop $-1 $-1 $589 $237 #
plane-surface $-1 0 0 8.7315510689524132 0 0 1 1 0 0 forward_v I I I I #
coedge $-1 $590 $591 $592 $593 reversed $238 $-1 #
coedge $-1 $594 $240 $242 $405 forward $149 $-1 #
coedge $-1 $240 $594 $590 $595 forward $149 $-1 #
coedge $-1 $592 $243 $240 $402 forward $407 $-1 #
edge $-1 $409 -14.186041736746404 $596 -1.0189173766974751 $401 $597 forward 7 unknown #
coedge $-1 $598 $599 $241 $404 forward $396 $-1 #
edge $-1 $600 10.233512867526443 $408 15.516494992157433 $403 $601 forward 7 unknown #
edge $-1 $409 -150.66866054261914 $600 -140.96869064596467 $242 $602 forward 7 unknown #
coedge $-1 $243 $592 $598 $603 reversed $407 $-1 #
loop $-1 $-1 $592 $395 #
vertex $-1 $603 $604 #
vertex $-1 $244 $605 #
straight-curve $-1 75.33433027130954 -21.788521293468342 104.50893803587294 0 0 -1 I I #
coedge $-1 $411 $411 $-1 $606 reversed $247 $-1 #
edge $-1 $607 0 $607 6.2831853071796004 $248 $608 forward 7 unknown #
vertex $-1 $251 $609 #
ellipse-curve $-1 72.69283920899403 -15.204959113443877 4.6640113989912013 0.83867057594974714 0 0.54463902268945019 0.54463902268945019 0 -0.83867057594974714 1 I I #
face $-1 $-1 $610 $56 $-1 $611 forward single #
loop $-1 $-1 $612 $252 #
plane-surface $-1 -75.33433027130954 0 0 1 0 0 0 0 -1 forward_v I I I I #
coedge $-1 $613 $614 $615 $616 forward $253 $-1 #
coedge $-1 $617 $255 $257 $425 forward $158 $-1 #
coedge $-1 $255 $617 $618 $619 forward $158 $-1 #
coedge $-1 $612 $258 $255 $422 forward $416 $-1 #
edge $-1 $428 7.9703901299163213 $620 19.251303115133805 $421 $621 forward 7 unknown #
coedge $-1 $614 $613 $256 $424 forward $253 $-1 #
edge $-1 $622 -20.122521136872479 $427 -11.756603032822824 $423 $623 forward 7 unknown #
edge $-1 $428 0 $622 11.084950291022066 $257 $624 forward 7 unknown #
coedge $-1 $258 $612 $614 $625 reversed $416 $-1 #
vertex $-1 $625 $626 #
vertex $-1 $259 $627 #
straight-curve $-1 -75.33433027130954 -21.581236752441384 57.585124881043733 0 0 -1 I I #
coedge $-1 $430 $430 $-1 $628 reversed $262 $-1 #
edge $-1 $629 0 $629 6.2831853071796004 $263 $630 forward 7 unknown #
vertex $-1 $266 $631 #
ellipse-curve $-1 -71.151371219284698 -29.639031741882441 5.0953601625654787 -0.6560590369687036 0 0.75470957328743171 1.1320643599311475 0 0.9840885554530554 1 I I #
coedge $-1 $434 $434 $-1 $632 reversed $269 $-1 #
edge $-1 $633 0 $633 6.2831853071796004 $270 $634 forward 7 unknown #
vertex $-1 $273 $635 #
ellipse-curve $-1 -71.151371219284698 -24.804354748217804 5.0953601625654787 -0.6560590369687036 0 0.75470957328743171 1.1320643599311475 0 0.9840885554530554 1 I I #
face $-1 $-1 $450 $59 $-1 $636 forward single #
loop $-1 $-1 $637 $274 #
plane-surface $-1 -75.33433027130954 0 0 1 0 0 0 0 -1 forward_v I I I I #
coedge $-1 $638 $639 $640 $641 reversed $275 $-1 #
coedge $-1 $642 $277 $279 $448 forward $172 $-1 #
coedge $-1 $277 $642 $638 $643 forward $172 $-1 #
coedge $-1 $640 $280 $277 $445 forward $450 $-1 #
edge $-1 $452 -10.177405366783765 $644 1.1035076184337225 $444 $645 forward 7 unknown #
coedge $-1 $646 $647 $278 $447 forward $439 $-1 #
edge $-1 $648 -56.125955624865206 $451 -48.853573812091319 $446 $649 forward 7 unknown #
edge $-1 $452 -11.084950291022066 $648 0 $279 $650 forward 7 unknown #
coedge $-1 $280 $640 $646 $651 forward $450 $-1 #
loop $-1 $-1 $640 $438 #
vertex $-1 $447 $652 #
vertex $-1 $281 $653 #
straight-curve $-1 -87.090933304132363 -14.714354240958786 8.7315510689524132 1 0 0 I I #
coedge $-1 $454 $454 $-1 $654 reversed $284 $-1 #
edge $-1 $655 0 $655 6.2831853071796004 $285 $656 forward 7 unknown #
vertex $-1 $288 $657 #
ellipse-curve $-1 -71.151371219284698 -11.491236245182357 5.0953601625654787 -0.6560590369687036 0 0.75470957328743171 1.1320643599311475 0 0.9840885554530554 1 I I #
coedge $-1 $458 $458 $-1 $658 reversed $291 $-1 #
edge $-1 $659 0 $659 6.2831853071796004 $292 $660 forward 7 unknown #
vertex $-1 $295 $661 #
ellipse-curve $-1 -71.151371219284698 -6.6565592515177201 5.0953601625654787 -0.6560590369687036 0 0.75470957328743171 1.1320643599311475 0 0.9840885554530554 1 I I #
face $-1 $-1 $662 $62 $-1 $663 reversed single #
loop $-1 $-1 $302 $296 #
plane-surface $-1 0 0 8.7315510689524132 0 0 1 1 0 0 forward_v I I I I #
coedge $-1 $664 $665 $666 $667 reversed $297 $-1 #
coedge $-1 $668 $299 $301 $472 forward $186 $-1 #
coedge $-1 $299 $668 $664 $669 forward $186 $-1 #
coedge $-1 $666 $302 $299 $469 forward $463 $-1 #
edge $-1 $475 -1.1035076184337225 $670 10.177405366783765 $468 $671 forward 7 unknown #
coedge $-1 $672 $673 $300 $471 forward $662 $-1 #
edge $-1 $674 -56.125955624865206 $474 -48.853573812091319 $470 $675 forward 7 unknown #
edge $-1 $475 -11.084950291022066 $674 0 $301 $676 forward 7 unknown #
coedge $-1 $302 $666 $672 $677 forward $463 $-1 #
vertex $-1 $471 $678 #
vertex $-1 $303 $679 #
straight-curve $-1 -87.090933304132363 3.4334412557412985 8.7315510689524132 1 0 0 I I #
coedge $-1 $477 $477 $-1 $680 reversed $306 $-1 #
edge $-1 $681 0 $681 6.2831853071796004 $307 $682 forward 7 unknown #
vertex $-1 $310 $683 #
ellipse-curve $-1 -71.151371219284698 6.6565592515177272 5.0953601625654787 -0.6560590369687036 0 0.75470957328743171 1.1320643599311475 0 0.9840885554530554 1 I I #
coedge $-1 $481 $481 $-1 $684 reversed $313 $-1 #
edge $-1 $685 0 $685 6.2831853071796004 $314 $686 forward 7 unknown #
vertex $-1 $317 $687 #
ellipse-curve $-1 -71.151371219284698 11.491236245182364 5.0953601625654787 -0.6560590369687036 0 0.75470957328743171 1.1320643599311475 0 0.9840885554530554 1 I I #
face $-1 $-1 $497 $65 $-1 $688 forward single #
loop $-1 $-1 $689 $318 #
plane-surface $-1 0 32.862149737658861 3.6773796873233735 0 1 0 0 0 1 forward_v I I I I #
coedge $-1 $690 $691 $692 $693 forward $319 $-1 #
coedge $-1 $694 $321 $323 $495 forward $200 $-1 #
coedge $-1 $321 $694 $689 $695 reversed $200 $-1 #
coedge $-1 $696 $324 $321 $492 forward $497 $-1 #
edge $-1 $499 7.9703901299163178 $697 19.251303115133801 $491 $698 forward 7 unknown #
coedge $-1 $691 $690 $322 $494 forward $319 $-1 #
edge $-1 $699 -56.125955624865206 $498 -48.853573812091319 $493 $700 forward 7 unknown #
edge $-1 $499 -11.084950291022066 $699 0 $323 $701 forward 7 unknown #
coedge $-1 $324 $696 $691 $702 forward $497 $-1 #
loop $-1 $-1 $696 $485 #
vertex $-1 $494 $703 #
vertex $-1 $325 $704 #
straight-curve $-1 -87.090933304132363 21.581236752441377 8.7315510689524132 1 0 0 I I #
coedge $-1 $501 $501 $-1 $705 reversed $328 $-1 #
edge $-1 $706 0 $706 6.2831853071796004 $329 $707 forward 7 unknown #
vertex $-1 $332 $708 #
ellipse-curve $-1 -71.151371219284698 24.804354748217804 5.0953601625654787 -0.6560590369687036 0 0.75470957328743171 1.1320643599311475 0 0.9840885554530554 1 I I #
coedge $-1 $505 $505 $-1 $709 reversed $335 $-1 #
edge $-1 $710 0 $710 6.2831853071796004 $336 $711 forward 7 unknown #
vertex $-1 $339 $712 #
ellipse-curve $-1 -71.151371219284698 29.639031741882448 5.0953601625654787 -0.6560590369687036 0 0.75470957328743171 1.1320643599311475 0 0.9840885554530554 1 I I #
face $-1 $-1 $355 $51 $-1 $713 reversed single #
loop $-1 $-1 $525 $340 #
plane-surface $-1 0 40.590000124329833 0 0 -1 0 0 0 -1 forward_v I I I I #
coedge $-1 $714 $523 $526 $715 forward $341 $-1 #
coedge $-1 $529 $343 $344 $517 reversed $214 $-1 #
coedge $-1 $523 $714 $343 $515 reversed $341 $-1 #
edge $-1 $530 -8.7315510689524132 $716 8.7315510689524132 $514 $717 forward 7 unknown #
coedge $-1 $345 $344 $714 $718 forward $137 $-1 #
edge $-1 $521 -75.33433027130954 $716 75.33433027130954 $513 $719 forward 7 unknown #
coedge $-1 $526 $525 $345 $519 reversed $510 $-1 #
edge $-1 $720 -75.33433027130954 $520 75.33433027130954 $518 $721 forward 7 unknown #
vertex $-1 $347 $722 #
vertex $-1 $532 $723 #
straight-curve $-1 75.33433027130954 0 -8.7315510689524132 0 -1 0 I I #
coedge $-1 $512 $514 $348 $524 reversed $341 $-1 #
edge $-1 $527 -40.590000124329833 $530 40.590000124329833 $523 $724 forward 7 unknown #
coedge $-1 $518 $349 $354 $533 forward $510 $-1 #
coedge $-1 $349 $518 $512 $715 reversed $510 $-1 #
vertex $-1 $350 $725 #
straight-curve $-1 0 40.590000124329833 8.7315510689524132 -1 0 0 I I #
coedge $-1 $351 $513 $353 $532 reversed $214 $-1 #
vertex $-1 $524 $726 #
straight-curve $-1 0 -40.590000124329833 8.7315510689524132 1 0 0 I I #
edge $-1 $356 -8.7315510689524132 $521 8.7315510689524132 $353 $727 forward 7 unknown #
edge $-1 $357 -8.7315510689524132 $520 8.7315510689524132 $354 $728 forward 7 unknown #
point $-1 75.33433027130954 -40.590000124329833 8.7315510689524132 #
point $-1 75.33433027130954 40.590000124329833 8.7315510689524132 #
face $-1 $-1 $373 $52 $-1 $729 reversed single #
loop $-1 $-1 $369 $359 #
plane-surface $-1 0 -40.590000124329833 0 0 1 0 0 0 1 forward_v I I I I #
coedge $-1 $730 $731 $367 $550 forward $360 $-1 #
coedge $-1 $545 $362 $372 $558 reversed $222 $-1 #
coedge $-1 $362 $545 $730 $732 reversed $222 $-1 #
coedge $-1 $364 $363 $733 $734 reversed $141 $-1 #
coedge $-1 $554 $553 $363 $544 forward $537 $-1 #
edge $-1 $735 -75.33433027130954 $547 75.33433027130954 $543 $736 forward 7 unknown #
coedge $-1 $541 $540 $364 $546 reversed $222 $-1 #
edge $-1 $737 -75.33433027130954 $548 75.33433027130954 $545 $738 forward 7 unknown #
vertex $-1 $544 $739 #
vertex $-1 $366 $740 #
straight-curve $-1 75.33433027130954 -18.363037465497175 1.3048291046512395 0 1 0 I I #
edge $-1 $555 -22.226962658832658 $551 -14.499112272161693 $539 $741 forward 7 unknown #
vertex $-1 $550 $742 #
straight-curve $-1 0 -32.862149737658868 6.0499302699955075 -1 0 0 I I #
coedge $-1 $543 $369 $731 $743 forward $537 $-1 #
coedge $-1 $369 $543 $371 $557 reversed $537 $-1 #
vertex $-1 $743 $744 #
straight-curve $-1 0 -40.590000124329833 6.0499302699955075 -1 0 0 I I #
edge $-1 $375 -6.0499302699955075 $547 -1.3048291046512395 $371 $745 forward 7 unknown #
edge $-1 $548 -0.53386073901044728 $374 4.2112404263338208 $372 $746 forward 7 unknown #
point $-1 75.33433027130954 -32.862149737658868 6.0499302699955075 #
point $-1 75.33433027130954 -40.590000124329833 6.0499302699955075 #
face $-1 $-1 $578 $53 $-1 $747 reversed single #
loop $-1 $-1 $574 $377 #
plane-surface $-1 -75.33433027130954 0 0 1 0 0 0 0 -1 forward_v I I I I #
coedge $-1 $581 $380 $381 $568 reversed $230 $-1 #
coedge $-1 $574 $748 $380 $566 forward $562 $-1 #
edge $-1 $749 -0.53386073901044728 $582 4.2112404263338208 $565 $750 forward 7 unknown #
coedge $-1 $382 $381 $748 $751 reversed $145 $-1 #
edge $-1 $571 -75.33433027130954 $749 75.33433027130954 $564 $752 forward 7 unknown #
coedge $-1 $577 $576 $382 $570 forward $578 $-1 #
edge $-1 $572 -75.33433027130954 $753 75.33433027130954 $569 $754 forward 7 unknown #
vertex $-1 $384 $755 #
vertex $-1 $570 $756 #
straight-curve $-1 75.33433027130954 18.363037465497172 1.3048291046512395 0 1 0 I I #
coedge $-1 $757 $565 $385 $575 forward $562 $-1 #
edge $-1 $582 14.499112272161689 $579 22.226962658832655 $574 $758 forward 7 unknown #
coedge $-1 $569 $386 $391 $585 forward $578 $-1 #
coedge $-1 $386 $569 $757 $759 reversed $578 $-1 #
loop $-1 $-1 $386 $561 #
vertex $-1 $759 $760 #
straight-curve $-1 0 40.590000124329833 6.0499302699955075 1 0 0 I I #
coedge $-1 $388 $564 $390 $584 reversed $230 $-1 #
vertex $-1 $575 $761 #
straight-curve $-1 0 32.862149737658861 6.0499302699955075 1 0 0 I I #
edge $-1 $393 -4.2112404263338208 $571 0.53386073901044728 $390 $762 forward 7 unknown #
edge $-1 $392 -6.0499302699955075 $572 -1.3048291046512395 $391 $763 forward 7 unknown #
point $-1 75.33433027130954 40.590000124329826 6.0499302699955075 #
point $-1 75.33433027130954 32.862149737658861 6.0499302699955075 #
plane-surface $-1 75.33433027130954 0 0 -1 0 0 0 0 1 forward_v I I I I #
coedge $-1 $599 $598 $591 $764 forward $396 $-1 #
coedge $-1 $591 $398 $400 $595 reversed $238 $-1 #
coedge $-1 $398 $590 $589 $764 reversed $238 $-1 #
coedge $-1 $406 $401 $398 $593 forward $407 $-1 #
edge $-1 $596 -103.91246630684297 $765 -95.777386966920531 $592 $766 forward 7 unknown #
coedge $-1 $400 $399 $599 $767 reversed $149 $-1 #
edge $-1 $768 140.96869064596467 $596 150.66866054261914 $590 $769 forward 7 unknown #
vertex $-1 $402 $770 #
straight-curve $-1 75.33433027130954 -7.6024795567219385 0.59647172902995749 0 1 0 I I #
coedge $-1 $589 $403 $406 $603 forward $396 $-1 #
coedge $-1 $403 $589 $594 $767 forward $396 $-1 #
vertex $-1 $404 $771 #
straight-curve $-1 59.817835279152106 -21.788521293468342 8.7315510689524132 1 0 0 I I #
straight-curve $-1 -6.7257017565510751 -21.788521293468342 126.9578440438853 -0.54463902268945019 0 0.83867057594974714 I I #
edge $-1 $408 -21.788521293468342 $765 -8.6213969334194136 $406 $772 forward 7 unknown #
point $-1 75.33433027130954 -21.788521293468342 8.7315510689524132 #
point $-1 75.33433027130954 -21.788521293468342 0.5964717290299717 #
edge $-1 $773 1 $773 0 $411 $-1 forward 7 unknown #
vertex $-1 $412 $774 #
ellipse-curve $-1 71.234437481108799 -15.204959113443877 3.7169142734428169 0.83867057594974714 0 0.54463902268945019 0.54463902268945019 0 -0.83867057594974714 1 I I #
point $-1 73.237478231683511 -15.204959113443877 3.8253408230414836 #
loop $-1 $-1 $618 $415 #
plane-surface $-1 0 -32.862149737658868 3.6773796873233735 0 -1 0 0 0 -1 forward_v I I I I #
coedge $-1 $426 $421 $775 $776 forward $416 $-1 #
coedge $-1 $423 $418 $617 $777 forward $253 $-1 #
coedge $-1 $418 $423 $426 $625 forward $253 $-1 #
coedge $-1 $775 $618 $418 $616 reversed $610 $-1 #
edge $-1 $778 11.756603032822824 $779 20.122521136872479 $418 $780 forward 7 unknown #
coedge $-1 $420 $419 $613 $777 reversed $158 $-1 #
coedge $-1 $615 $775 $420 $619 reversed $610 $-1 #
edge $-1 $779 -11.084950291022066 $620 0 $618 $781 forward 7 unknown #
vertex $-1 $776 $782 #
straight-curve $-1 -75.33433027130954 -13.610846622525063 1.4591692561785274 0 -1 0 I I #
vertex $-1 $424 $783 #
straight-curve $-1 -87.090933304132363 -21.581236752441384 8.7315510689524132 -1 0 0 I I #
straight-curve $-1 -75.33433027130954 -21.581236752441384 1.4591692561785266 0.75470957328743171 0 0.6560590369687036 I I #
edge $-1 $427 21.581236752441384 $778 32.862149737658868 $426 $784 forward 7 unknown #
point $-1 -75.33433027130954 -21.581236752441384 8.7315510689524132 #
point $-1 -75.33433027130954 -21.581236752441384 1.4591692561785266 #
edge $-1 $785 1 $785 0 $430 $-1 forward 7 unknown #
vertex $-1 $431 $786 #
ellipse-curve $-1 -67.34088494802954 -29.639031741882441 0.71189723355199319 -0.6560590369687036 0 0.75470957328743171 1.1320643599311475 0 0.9840885554530554 1 I I #
point $-1 -70.019306859353549 -29.639031741882441 6.0794487180185133 #
edge $-1 $787 1 $787 0 $434 $-1 forward 7 unknown #
vertex $-1 $435 $788 #
ellipse-curve $-1 -67.34088494802954 -24.804354748217804 0.71189723355199319 -0.6560590369687036 0 0.75470957328743171 1.1320643599311475 0 0.9840885554530554 1 I I #
point $-1 -70.019306859353549 -24.804354748217804 6.0794487180185133 #
plane-surface $-1 0 0 8.7315510689524132 0 0 1 1 0 0 forward_v I I I I #
coedge $-1 $647 $646 $639 $789 forward $439 $-1 #
coedge $-1 $639 $441 $443 $643 reversed $275 $-1 #
coedge $-1 $441 $638 $637 $789 reversed $275 $-1 #
coedge $-1 $449 $444 $441 $641 forward $450 $-1 #
edge $-1 $644 -20.122521136872479 $790 -11.756603032822824 $640 $791 forward 7 unknown #
coedge $-1 $443 $442 $647 $792 reversed $172 $-1 #
edge $-1 $793 0 $644 11.084950291022066 $638 $794 forward 7 unknown #
vertex $-1 $445 $795 #
straight-curve $-1 -66.968412167259885 -4.536948874175021 8.7315510689524132 0 1 0 I I #
coedge $-1 $637 $446 $449 $651 reversed $439 $-1 #
coedge $-1 $446 $637 $642 $792 forward $439 $-1 #
vertex $-1 $447 $796 #
straight-curve $-1 -75.33433027130954 -14.714354240958786 57.585124881043733 0 0 1 I I #
straight-curve $-1 -75.33433027130954 -14.714354240958786 1.4591692561785266 -0.75470957328743171 0 -0.6560590369687036 I I #
edge $-1 $790 3.4334412557412985 $451 14.714354240958786 $646 $797 forward 7 unknown #
point $-1 -75.33433027130954 -14.714354240958786 8.7315510689524132 #
point $-1 -66.968412167259885 -14.714354240958786 8.7315510689524132 #
edge $-1 $798 1 $798 0 $454 $-1 forward 7 unknown #
vertex $-1 $455 $799 #
ellipse-curve $-1 -67.34088494802954 -11.491236245182357 0.71189723355199319 -0.6560590369687036 0 0.75470957328743171 1.1320643599311475 0 0.9840885554530554 1 I I #
point $-1 -70.019306859353549 -11.491236245182357 6.0794487180185133 #
edge $-1 $800 1 $800 0 $458 $-1 forward 7 unknown #
vertex $-1 $459 $801 #
ellipse-curve $-1 -67.34088494802954 -6.6565592515177201 0.71189723355199319 -0.6560590369687036 0 0.75470957328743171 1.1320643599311475 0 0.9840885554530554 1 I I #
point $-1 -70.019306859353549 -6.6565592515177201 6.0794487180185133 #
loop $-1 $-1 $470 $462 #
plane-surface $-1 -75.33433027130954 0 0 1 0 0 0 0 -1 forward_v I I I I #
coedge $-1 $665 $465 $467 $669 reversed $297 $-1 #
coedge $-1 $465 $664 $802 $803 reversed $297 $-1 #
coedge $-1 $473 $468 $465 $667 forward $463 $-1 #
edge $-1 $670 -20.122521136872479 $804 -11.756603032822824 $666 $805 forward 7 unknown #
coedge $-1 $467 $466 $673 $806 reversed $186 $-1 #
edge $-1 $807 0 $670 11.084950291022066 $664 $808 forward 7 unknown #
vertex $-1 $469 $809 #
straight-curve $-1 -66.968412167259885 4.536948874175021 8.7315510689524132 0 1 0 I I #
coedge $-1 $802 $470 $473 $677 reversed $662 $-1 #
coedge $-1 $470 $802 $668 $806 forward $662 $-1 #
vertex $-1 $471 $810 #
straight-curve $-1 -75.33433027130954 3.4334412557412985 57.585124881043733 0 0 1 I I #
straight-curve $-1 -75.33433027130954 3.4334412557412985 1.4591692561785266 -0.75470957328743171 0 -0.6560590369687036 I I #
edge $-1 $804 -14.714354240958786 $474 -3.4334412557412985 $672 $811 forward 7 unknown #
point $-1 -75.33433027130954 3.4334412557412985 8.7315510689524132 #
point $-1 -66.968412167259885 3.4334412557412985 8.7315510689524132 #
edge $-1 $812 1 $812 0 $477 $-1 forward 7 unknown #
vertex $-1 $478 $813 #
ellipse-curve $-1 -67.34088494802954 6.6565592515177272 0.71189723355199319 -0.6560590369687036 0 0.75470957328743171 1.1320643599311475 0 0.9840885554530554 1 I I #
point $-1 -70.019306859353549 6.6565592515177272 6.0794487180185133 #
edge $-1 $814 1 $814 0 $481 $-1 forward 7 unknown #
vertex $-1 $482 $815 #
ellipse-curve $-1 -67.34088494802954 11.491236245182364 0.71189723355199319 -0.6560590369687036 0 0.75470957328743171 1.1320643599311475 0 0.9840885554530554 1 I I #
point $-1 -70.019306859353549 11.491236245182364 6.0794487180185133 #
plane-surface $-1 0 0 8.7315510689524132 0 0 1 1 0 0 forward_v I I I I #
coedge $-1 $692 $816 $490 $695 forward $486 $-1 #
coedge $-1 $493 $488 $694 $817 forward $319 $-1 #
coedge $-1 $488 $493 $496 $702 reversed $319 $-1 #
coedge $-1 $816 $689 $488 $693 reversed $486 $-1 #
edge $-1 $818 48.853573812091319 $819 56.125955624865206 $488 $820 forward 7 unknown #
coedge $-1 $490 $489 $690 $817 reversed $200 $-1 #
edge $-1 $697 18.070458335080581 $819 29.155408626102648 $689 $821 forward 7 unknown #
coedge $-1 $496 $491 $816 $822 forward $497 $-1 #
vertex $-1 $492 $823 #
straight-curve $-1 -66.968412167259885 13.61084662252506 8.7315510689524132 0 1 0 I I #
vertex $-1 $494 $824 #
straight-curve $-1 -75.33433027130954 21.581236752441377 57.585124881043733 0 0 1 I I #
straight-curve $-1 -75.33433027130954 21.581236752441377 1.4591692561785266 -0.75470957328743171 0 -0.6560590369687036 I I #
edge $-1 $818 -32.862149737658861 $498 -21.581236752441377 $691 $825 forward 7 unknown #
point $-1 -75.33433027130954 21.581236752441377 8.7315510689524132 #
point $-1 -66.968412167259885 21.581236752441377 8.7315510689524132 #
edge $-1 $826 1 $826 0 $501 $-1 forward 7 unknown #
vertex $-1 $502 $827 #
ellipse-curve $-1 -67.34088494802954 24.804354748217804 0.71189723355199319 -0.6560590369687036 0 0.75470957328743171 1.1320643599311475 0 0.9840885554530554 1 I I #
point $-1 -70.019306859353549 24.804354748217804 6.0794487180185133 #
edge $-1 $828 1 $828 0 $505 $-1 forward 7 unknown #
vertex $-1 $506 $829 #
ellipse-curve $-1 -67.34088494802954 29.639031741882448 0.71189723355199319 -0.6560590369687036 0 0.75470957328743171 1.1320643599311475 0 0.9840885554530554 1 I I #
point $-1 -70.019306859353549 29.639031741882448 6.0794487180185133 #
plane-surface $-1 75.33433027130954 0 0 -1 0 0 0 0 1 forward_v I I I I #
coedge $-1 $514 $512 $516 $718 reversed $341 $-1 #
edge $-1 $527 -8.7315510689524132 $720 8.7315510689524132 $526 $830 forward 7 unknown #
vertex $-1 $718 $831 #
straight-curve $-1 -75.33433027130954 -40.590000124329833 0 0 0 -1 I I #
edge $-1 $716 -40.590000124329833 $720 40.590000124329833 $714 $832 forward 7 unknown #
straight-curve $-1 0 -40.590000124329833 -8.7315510689524132 -1 0 0 I I #
vertex $-1 $519 $833 #
straight-curve $-1 0 40.590000124329833 -8.7315510689524132 1 0 0 I I #
point $-1 75.33433027130954 40.590000124329833 -8.7315510689524132 #
point $-1 75.33433027130954 -40.590000124329833 -8.7315510689524132 #
straight-curve $-1 -75.33433027130954 0 8.7315510689524132 0 -1 0 I I #
point $-1 -75.33433027130954 40.590000124329833 8.7315510689524132 #
point $-1 -75.33433027130954 -40.590000124329833 8.7315510689524132 #
straight-curve $-1 75.33433027130954 -40.590000124329833 0 0 0 -1 I I #
straight-curve $-1 75.33433027130954 40.590000124329833 0 0 0 -1 I I #
plane-surface $-1 75.33433027130954 0 0 -1 0 0 0 0 1 forward_v I I I I #
coedge $-1 $733 $539 $541 $732 forward $360 $-1 #
coedge $-1 $539 $733 $553 $743 reversed $360 $-1 #
edge $-1 $551 -4.2112404263338208 $737 0.53386073901044728 $730 $834 forward 7 unknown #
coedge $-1 $731 $730 $542 $734 forward $360 $-1 #
edge $-1 $737 14.499112272161693 $735 22.226962658832658 $733 $835 forward 7 unknown #
vertex $-1 $544 $836 #
straight-curve $-1 0 -40.590000124329833 1.3048291046512395 1 0 0 I I #
vertex $-1 $734 $837 #
straight-curve $-1 0 -32.862149737658868 1.3048291046512395 1 0 0 I I #
point $-1 75.33433027130954 -40.590000124329833 1.3048291046512395 #
point $-1 75.33433027130954 -32.862149737658868 1.3048291046512395 #
straight-curve $-1 -75.33433027130954 -18.363037465497175 6.0499302699955075 0 1 0 I I #
point $-1 -75.33433027130954 -32.862149737658868 6.0499302699955075 #
edge $-1 $555 -6.0499302699955075 $735 -1.3048291046512395 $731 $838 forward 7 unknown #
point $-1 -75.33433027130954 -40.590000124329833 6.0499302699955075 #
straight-curve $-1 75.33433027130954 -40.590000124329833 0 0 0 -1 I I #
straight-curve $-1 75.33433027130954 -32.862149737658868 1.8386898436616868 0 0 1 I I #
plane-surface $-1 0 40.590000124329833 0 0 -1 0 0 0 -1 forward_v I I I I #
coedge $-1 $565 $757 $567 $751 forward $562 $-1 #
vertex $-1 $751 $839 #
straight-curve $-1 -75.33433027130954 32.862149737658861 1.8386898436616868 0 0 1 I I #
edge $-1 $753 -22.226962658832655 $749 -14.499112272161689 $748 $840 forward 7 unknown #
straight-curve $-1 0 32.862149737658861 1.3048291046512395 -1 0 0 I I #
vertex $-1 $570 $841 #
straight-curve $-1 0 40.590000124329833 1.3048291046512395 -1 0 0 I I #
point $-1 75.33433027130954 32.862149737658861 1.3048291046512395 #
point $-1 75.33433027130954 40.590000124329826 1.3048291046512395 #
coedge $-1 $748 $574 $577 $759 forward $562 $-1 #
straight-curve $-1 -75.33433027130954 18.363037465497172 6.0499302699955075 0 1 0 I I #
edge $-1 $579 -6.0499302699955075 $753 -1.3048291046512395 $577 $842 forward 7 unknown #
point $-1 -75.33433027130954 40.590000124329826 6.0499302699955075 #
point $-1 -75.33433027130954 32.862149737658861 6.0499302699955075 #
straight-curve $-1 75.33433027130954 32.862149737658861 1.8386898436616868 0 0 -1 I I #
straight-curve $-1 75.33433027130954 40.590000124329833 0 0 0 -1 I I #
edge $-1 $765 -15.516494992157433 $768 -10.233512867526443 $589 $843 forward 7 unknown #
vertex $-1 $764 $844 #
straight-curve $-1 75.33433027130954 -8.6213969334194136 104.50893803587294 0 0 1 I I #
edge $-1 $768 1.0189173766974751 $600 14.186041736746404 $599 $845 forward 7 unknown #
vertex $-1 $767 $846 #
straight-curve $-1 -6.7257017565510751 -8.6213969334194136 126.9578440438853 0.54463902268945019 0 -0.83867057594974714 I I #
point $-1 75.33433027130954 -8.6213969334194136 0.5964717290299717 #
point $-1 70.051348146678549 -21.788521293468342 8.731551068952399 #
straight-curve $-1 75.33433027130954 0 8.7315510689524132 0 1 0 I I #
vertex $-1 $606 $847 #
point $-1 71.779076503798251 -15.204959113443877 2.8782436974930699 #
coedge $-1 $618 $615 $612 $776 reversed $610 $-1 #
edge $-1 $620 -56.125955624865206 $778 -48.853573812091319 $612 $848 forward 7 unknown #
edge $-1 $779 -19.251303115133805 $622 -7.9703901299163213 $613 $849 forward 7 unknown #
vertex $-1 $776 $850 #
vertex $-1 $616 $851 #
straight-curve $-1 -87.090933304132363 -32.862149737658868 8.7315510689524132 1 0 0 I I #
straight-curve $-1 -75.33433027130954 -32.862149737658868 1.4591692561785266 -0.75470957328743171 0 -0.6560590369687036 I I #
point $-1 -75.33433027130954 -32.862149737658868 1.4591692561785266 #
point $-1 -66.968412167259885 -21.581236752441384 8.7315510689524132 #
straight-curve $-1 -75.33433027130954 0 8.7315510689524132 0 -1 0 I I #
vertex $-1 $628 $852 #
point $-1 -66.208820588098405 -29.639031741882441 1.6959857890050487 #
vertex $-1 $632 $853 #
point $-1 -66.208820588098405 -24.804354748217804 1.6959857890050487 #
edge $-1 $790 48.853573812091319 $793 56.125955624865206 $637 $854 forward 7 unknown #
vertex $-1 $651 $855 #
straight-curve $-1 -87.090933304132363 -3.4334412557412985 8.7315510689524132 -1 0 0 I I #
edge $-1 $793 -1.1035076184337225 $648 10.177405366783765 $647 $856 forward 7 unknown #
vertex $-1 $792 $857 #
straight-curve $-1 -75.33433027130954 -3.4334412557412985 1.4591692561785266 0.75470957328743171 0 0.6560590369687036 I I #
point $-1 -66.968412167259885 -3.4334412557412985 8.7315510689524132 #
point $-1 -75.33433027130954 -14.714354240958786 1.4591692561785266 #
straight-curve $-1 -75.33433027130954 0 8.7315510689524132 0 -1 0 I I #
vertex $-1 $654 $858 #
point $-1 -66.208820588098405 -11.491236245182357 1.6959857890050487 #
vertex $-1 $658 $859 #
point $-1 -66.208820588098405 -6.6565592515177201 1.6959857890050487 #
coedge $-1 $673 $672 $665 $803 forward $662 $-1 #
edge $-1 $804 48.853573812091319 $807 56.125955624865206 $802 $860 forward 7 unknown #
vertex $-1 $677 $861 #
straight-curve $-1 -87.090933304132363 14.714354240958786 8.7315510689524132 -1 0 0 I I #
edge $-1 $807 -10.177405366783765 $674 1.1035076184337225 $673 $862 forward 7 unknown #
vertex $-1 $806 $863 #
straight-curve $-1 -75.33433027130954 14.714354240958786 1.4591692561785266 0.75470957328743171 0 0.6560590369687036 I I #
point $-1 -66.968412167259885 14.714354240958786 8.7315510689524132 #
point $-1 -75.33433027130954 3.4334412557412985 1.4591692561785266 #
straight-curve $-1 -75.33433027130954 0 8.7315510689524132 0 -1 0 I I #
vertex $-1 $680 $864 #
point $-1 -66.208820588098405 6.6565592515177272 1.6959857890050487 #
vertex $-1 $684 $865 #
point $-1 -66.208820588098405 11.491236245182364 1.6959857890050487 #
coedge $-1 $689 $692 $696 $822 reversed $486 $-1 #
edge $-1 $819 -19.251303115133801 $699 -7.9703901299163178 $690 $866 forward 7 unknown #
vertex $-1 $702 $867 #
vertex $-1 $695 $868 #
straight-curve $-1 -75.33433027130954 32.862149737658861 57.585124881043733 0 0 -1 I I #
straight-curve $-1 -53.330464268082906 32.862149737658861 20.586838561848463 -0.75470957328743171 0 -0.6560590369687036 I I #
edge $-1 $697 -20.122521136872479 $818 -11.756603032822824 $696 $869 forward 7 unknown #
point $-1 -66.968412167259885 32.862149737658861 8.7315510689524132 #
point $-1 -75.33433027130954 21.581236752441377 1.4591692561785266 #
straight-curve $-1 -75.33433027130954 0 8.7315510689524132 0 -1 0 I I #
vertex $-1 $705 $870 #
point $-1 -66.208820588098405 24.804354748217804 1.6959857890050487 #
vertex $-1 $709 $871 #
point $-1 -66.208820588098405 29.639031741882448 1.6959857890050487 #
straight-curve $-1 -75.33433027130954 40.590000124329833 0 0 0 -1 I I #
point $-1 -75.33433027130954 -40.590000124329833 -8.7315510689524132 #
straight-curve $-1 -75.33433027130954 0 -8.7315510689524132 0 1 0 I I #
point $-1 -75.33433027130954 40.590000124329833 -8.7315510689524132 #
straight-curve $-1 -75.33433027130954 -32.862149737658868 1.8386898436616868 0 0 -1 I I #
straight-curve $-1 -75.33433027130954 -18.363037465497175 1.3048291046512395 0 -1 0 I I #
point $-1 -75.33433027130954 -40.590000124329833 1.3048291046512395 #
point $-1 -75.33433027130954 -32.862149737658868 1.3048291046512395 #
straight-curve $-1 -75.33433027130954 -40.590000124329833 0 0 0 -1 I I #
point $-1 -75.33433027130954 32.862149737658861 1.3048291046512395 #
straight-curve $-1 -75.33433027130954 18.363037465497172 1.3048291046512395 0 -1 0 I I #
point $-1 -75.33433027130954 40.590000124329826 1.3048291046512395 #
straight-curve $-1 -75.33433027130954 40.590000124329833 0 0 0 -1 I I #
straight-curve $-1 59.817835279152106 -8.6213969334194136 8.7315510689524132 -1 0 0 I I #
point $-1 75.33433027130954 -8.6213969334194136 8.7315510689524132 #
straight-curve $-1 70.051348146678535 -7.6024795567219385 8.7315510689524132 0 -1 0 I I #
point $-1 70.051348146678549 -8.6213969334194136 8.731551068952399 #
point $-1 70.39576690515905 -15.204959113443877 3.1722752507533665 #
straight-curve $-1 -75.33433027130954 -32.862149737658868 57.585124881043733 0 0 1 I I #
straight-curve $-1 -66.968412167259885 -13.610846622525063 8.7315510689524132 0 1 0 I I #
point $-1 -75.33433027130954 -32.862149737658868 8.7315510689524132 #
point $-1 -66.968412167259885 -32.862149737658868 8.7315510689524132 #
point $-1 -66.356796392576499 -29.639031741882441 -0.42016712637915432 #
point $-1 -66.356796392576499 -24.804354748217804 -0.42016712637915432 #
straight-curve $-1 -75.33433027130954 -3.4334412557412985 57.585124881043733 0 0 -1 I I #
point $-1 -75.33433027130954 -3.4334412557412985 8.7315510689524132 #
straight-curve $-1 -75.33433027130954 -4.536948874175021 1.4591692561785274 0 -1 0 I I #
point $-1 -75.33433027130954 -3.4334412557412985 1.4591692561785266 #
point $-1 -66.356796392576499 -11.491236245182357 -0.42016712637915432 #
point $-1 -66.356796392576499 -6.6565592515177201 -0.42016712637915432 #
straight-curve $-1 -75.33433027130954 14.714354240958786 57.585124881043733 0 0 -1 I I #
point $-1 -75.33433027130954 14.714354240958786 8.7315510689524132 #
straight-curve $-1 -75.33433027130954 4.536948874175021 1.4591692561785274 0 -1 0 I I #
point $-1 -75.33433027130954 14.714354240958786 1.4591692561785266 #
point $-1 -66.356796392576499 6.6565592515177272 -0.42016712637915432 #
point $-1 -66.356796392576499 11.491236245182364 -0.42016712637915432 #
straight-curve $-1 -75.33433027130954 13.61084662252506 1.4591692561785274 0 -1 0 I I #
point $-1 -75.33433027130954 32.862149737658861 8.7315510689524132 #
point $-1 -75.33433027130954 32.862149737658861 1.4591692561785266 #
straight-curve $-1 -87.090933304132363 32.862149737658861 8.7315510689524132 -1 0 0 I I #
point $-1 -66.356796392576499 24.804354748217804 -0.42016712637915432 #
point $-1 -66.356796392576499 29.639031741882448 -0.42016712637915432 #
End-of-ACIS-data 