500 0 8 0           
7 Unknown 11 ACIS 5.0 NT 24 Fri Mar 26 20:25:49 1999 
-1 9.9999999999999995e-007 1e-010 
body $-1 $8 $-1 $9 #
body $-1 $10 $-1 $11 #
body $-1 $12 $-1 $13 #
body $-1 $14 $-1 $15 #
body $-1 $16 $-1 $17 #
body $-1 $18 $-1 $19 #
body $-1 $20 $-1 $21 #
body $-1 $22 $-1 $23 #
lump $-1 $-1 $24 $0 #
transform $-1 1 0 0 0 1 0 0 0 1 68.250373851741074 41.186633424853433 14.780152789477954 1 rotate no_reflect no_shear #
lump $-1 $-1 $25 $1 #
transform $-1 1 0 0 0 1 0 0 0 1 68.250373851741074 41.186633424853433 14.780152789477954 1 rotate no_reflect no_shear #
lump $-1 $-1 $26 $2 #
transform $-1 1 0 0 0 1 0 0 0 1 68.250373851741074 41.186633424853433 14.780152789477954 1 rotate no_reflect no_shear #
lump $-1 $-1 $27 $3 #
transform $-1 1 0 0 0 1 0 0 0 1 68.250373851741074 41.186633424853433 14.780152789477954 1 rotate no_reflect no_shear #
lump $-1 $-1 $28 $4 #
transform $-1 1 0 0 0 1 0 0 0 1 68.250373851741074 41.186633424853433 14.780152789477954 1 rotate no_reflect no_shear #
lump $-1 $-1 $29 $5 #
transform $-1 1 0 0 0 1 0 0 0 1 68.250373851741074 41.186633424853433 14.780152789477954 1 rotate no_reflect no_shear #
lump $-1 $-1 $30 $6 #
transform $-1 1 0 0 0 1 0 0 0 1 68.250373851741074 41.186633424853433 14.780152789477954 1 rotate no_reflect no_shear #
lump $-1 $-1 $31 $7 #
transform $-1 1 0 0 0 1 0 0 0 1 68.250373851741074 41.186633424853433 14.780152789477954 1 rotate no_reflect no_shear #
shell $-1 $-1 $-1 $32 $-1 $8 #
shell $-1 $-1 $-1 $33 $-1 $10 #
shell $-1 $-1 $-1 $34 $-1 $12 #
shell $-1 $-1 $-1 $35 $-1 $14 #
shell $-1 $-1 $-1 $36 $-1 $16 #
shell $-1 $-1 $-1 $37 $-1 $18 #
shell $-1 $-1 $-1 $38 $-1 $20 #
shell $-1 $-1 $-1 $39 $-1 $22 #
face $-1 $40 $41 $24 $-1 $42 forward single #
face $-1 $43 $44 $25 $-1 $45 forward single #
face $-1 $46 $47 $26 $-1 $48 reversed single #
face $-1 $49 $50 $27 $-1 $51 forward single #
face $-1 $52 $53 $28 $-1 $54 forward single #
face $-1 $55 $56 $29 $-1 $57 forward single #
face $-1 $58 $59 $30 $-1 $60 reversed single #
face $-1 $61 $62 $31 $-1 $63 forward single #
face $-1 $64 $65 $24 $-1 $66 reversed single #
loop $-1 $-1 $67 $32 #
plane-surface $-1 0 0 14.780152789477954 0 0 1 1 0 0 forward_v I I I I #
face $-1 $68 $69 $25 $-1 $70 reversed single #
loop $-1 $-1 $71 $33 #
plane-surface $-1 -59.585073434229521 0 1.85220007486223 0 0 1 1 0 0 forward_v I I I I #
face $-1 $72 $73 $26 $-1 $74 reversed single #
loop $-1 $-1 $75 $34 #
plane-surface $-1 29.688861678345162 -155.66579411890393 76.334974696019643 1 0 0 0 0.83867057594974714 -0.54463902268945019 forward_v I I I I #
face $-1 $76 $77 $27 $-1 $78 forward single #
loop $-1 $79 $80 $35 #
cone-surface $-1 33.771567555343196 -34.837061826364511 6.9590010250031131 0 0.83867057594974714 -0.54463902268945019 2 0 0 1 I I 0 1 2 forward I I I I #
face $-1 $81 $82 $28 $-1 $83 forward single #
loop $-1 $84 $85 $36 #
cone-surface $-1 39.895626370840262 -34.837061826364511 6.9590010250031131 0 0.83867057594974714 -0.54463902268945019 2 0 0 1 I I 0 1 2 forward I I I I #
face $-1 $86 $87 $29 $-1 $88 forward single #
loop $-1 $89 $90 $37 #
cone-surface $-1 46.019685186337327 -34.837061826364511 6.9590010250031131 0 0.83867057594974714 -0.54463902268945019 2 0 0 1 I I 0 1 2 forward I I I I #
face $-1 $91 $92 $30 $-1 $93 reversed single #
loop $-1 $-1 $94 $38 #
plane-surface $-1 32.756821975360815 60.313866602512611 158.53443643271657 1 0 0 0 -0.61566148304635926 -0.78801074757464917 forward_v I I I I #
face $-1 $95 $96 $31 $-1 $97 forward single #
loop $-1 $98 $99 $39 #
cone-surface $-1 50.503597913550948 30.473378598702052 5.7027300739946121 0 -0.61566148304635926 -0.78801074757464917 2.5 0 0 1 I I 0 1 2.5 forward I I I I #
face $-1 $100 $101 $24 $-1 $102 reversed single #
loop $-1 $-1 $103 $40 #
plane-surface $-1 0 0 -14.780152789477954 0 0 1 1 0 0 forward_v I I I I #
coedge $-1 $104 $105 $106 $107 forward $41 $-1 #
face $-1 $108 $109 $25 $-1 $110 reversed single #
loop $-1 $-1 $111 $43 #
plane-surface $-1 -59.585073434229521 0 -6.2930998623256453 0 0 1 1 0 0 forward_v I I I I #
coedge $-1 $112 $113 $114 $115 forward $44 $-1 #
face $-1 $116 $117 $26 $-1 $118 reversed single #
loop $-1 $-1 $119 $46 #
plane-surface $-1 39.895626370840262 -41.18663342485344 1.991340870415911 0 -0.83867057594974714 0.54463902268945019 1 0 0 forward_v I I I I #
coedge $-1 $120 $121 $122 $123 reversed $47 $-1 #
face $-1 $-1 $124 $27 $-1 $125 forward single #
loop $-1 $126 $127 $49 #
cone-surface $-1 33.771567555343196 -31.801395302424453 4.987616197369837 0 0.83867057594974714 -0.54463902268945019 1 0 0 1 I I -0.70710678118654746 0.70710678118654746 1 forward I I I I #
loop $-1 $-1 $128 $35 #
coedge $-1 $80 $80 $129 $130 reversed $50 $-1 #
face $-1 $-1 $131 $28 $-1 $132 forward single #
loop $-1 $133 $134 $52 #
cone-surface $-1 39.895626370840262 -31.801395302424453 4.987616197369837 0 0.83867057594974714 -0.54463902268945019 1 0 0 1 I I -0.70710678118654746 0.70710678118654746 1 forward I I I I #
loop $-1 $-1 $135 $36 #
coedge $-1 $85 $85 $136 $137 reversed $53 $-1 #
face $-1 $-1 $138 $29 $-1 $139 forward single #
loop $-1 $140 $141 $55 #
cone-surface $-1 46.019685186337327 -31.801395302424453 4.987616197369837 0 0.83867057594974714 -0.54463902268945019 1 0 0 1 I I -0.70710678118654746 0.70710678118654746 1 forward I I I I #
loop $-1 $-1 $142 $37 #
coedge $-1 $90 $90 $143 $144 reversed $56 $-1 #
face $-1 $145 $146 $30 $-1 $147 forward single #
loop $-1 $-1 $148 $58 #
plane-surface $-1 50.503597913550948 -23.724386165550122 50.970380190397037 0 0.61566148304635926 0.78801074757464917 1 0 0 forward_v I I I I #
coedge $-1 $149 $150 $151 $152 reversed $59 $-1 #
face $-1 $-1 $153 $31 $-1 $154 forward single #
loop $-1 $155 $156 $61 #
cone-surface $-1 50.503597913550948 28.285367817196196 2.9022040396154392 0 -0.61566148304635926 -0.78801074757464917 1.25 0 0 1 I I -0.70710678118654746 0.70710678118654746 1.25 forward I I I I #
loop $-1 $-1 $157 $39 #
coedge $-1 $99 $99 $158 $159 reversed $62 $-1 #
face $-1 $160 $161 $24 $-1 $162 reversed single #
loop $-1 $-1 $163 $64 #
plane-surface $-1 0 -41.186633424853433 0 0 1 0 0 0 1 forward_v I I I I #
coedge $-1 $164 $165 $166 $167 forward $65 $-1 #
coedge $-1 $168 $67 $169 $170 forward $41 $-1 #
coedge $-1 $67 $168 $171 $172 forward $41 $-1 #
coedge $-1 $173 $174 $67 $107 reversed $175 $-1 #
edge $-1 $176 -41.186633424853433 $177 41.186633424853433 $106 $178 forward 7 unknown #
face $-1 $179 $180 $25 $-1 $181 reversed single #
loop $-1 $-1 $182 $68 #
plane-surface $-1 -50.919773016717969 0 -2.2204498937317076 -1 0 0 0 0 1 forward_v I I I I #
coedge $-1 $183 $184 $185 $186 forward $69 $-1 #
coedge $-1 $187 $71 $188 $189 reversed $44 $-1 #
coedge $-1 $71 $187 $190 $191 reversed $44 $-1 #
coedge $-1 $182 $192 $71 $115 reversed $109 $-1 #
edge $-1 $193 -41.186633424853433 $194 41.186633424853433 $114 $195 forward 7 unknown #
face $-1 $196 $197 $26 $-1 $198 forward single #
loop $-1 $-1 $199 $72 #
plane-surface $-1 50.102391063335361 -155.66579411890393 76.334974696019643 -1 0 0 0 -0.83867057594974714 0.54463902268945019 forward_v I I I I #
coedge $-1 $200 $201 $202 $203 reversed $73 $-1 #
coedge $-1 $121 $75 $204 $205 reversed $47 $-1 #
coedge $-1 $75 $120 $200 $206 reversed $47 $-1 #
coedge $-1 $202 $207 $75 $123 forward $208 $-1 #
edge $-1 $209 23.387334558531869 $210 36.176146477593896 $122 $211 forward 7 unknown #
loop $-1 $-1 $129 $76 #
plane-surface $-1 39.895626370840262 -41.18663342485344 1.991340870415911 0 -0.83867057594974714 0.54463902268945019 1 0 0 forward_v I I I I #
loop $-1 $-1 $212 $49 #
coedge $-1 $127 $127 $128 $213 reversed $77 $-1 #
coedge $-1 $128 $128 $127 $213 forward $79 $-1 #
coedge $-1 $129 $129 $80 $130 forward $124 $-1 #
edge $-1 $214 0 $214 6.2831853071796004 $129 $215 forward 7 unknown #
loop $-1 $-1 $136 $81 #
plane-surface $-1 39.895626370840262 -41.18663342485344 1.991340870415911 0 -0.83867057594974714 0.54463902268945019 1 0 0 forward_v I I I I #
loop $-1 $-1 $216 $52 #
coedge $-1 $134 $134 $135 $217 reversed $82 $-1 #
coedge $-1 $135 $135 $134 $217 forward $84 $-1 #
coedge $-1 $136 $136 $85 $137 forward $131 $-1 #
edge $-1 $218 0 $218 6.2831853071796004 $136 $219 forward 7 unknown #
loop $-1 $-1 $143 $86 #
plane-surface $-1 39.895626370840262 -41.18663342485344 1.991340870415911 0 -0.83867057594974714 0.54463902268945019 1 0 0 forward_v I I I I #
loop $-1 $-1 $220 $55 #
coedge $-1 $141 $141 $142 $221 reversed $87 $-1 #
coedge $-1 $142 $142 $141 $221 forward $89 $-1 #
coedge $-1 $143 $143 $90 $144 forward $138 $-1 #
edge $-1 $222 0 $222 6.2831853071796004 $143 $223 forward 7 unknown #
face $-1 $224 $225 $30 $-1 $226 reversed single #
loop $-1 $-1 $151 $91 #
plane-surface $-1 0 0 14.780152789477954 0 0 1 1 0 0 forward_v I I I I #
coedge $-1 $227 $228 $229 $230 reversed $92 $-1 #
coedge $-1 $150 $94 $231 $232 reversed $59 $-1 #
coedge $-1 $94 $149 $227 $233 reversed $59 $-1 #
coedge $-1 $229 $234 $94 $152 forward $146 $-1 #
edge $-1 $235 -11.029700123597127 $236 7.5599416733098401 $151 $237 forward 7 unknown #
loop $-1 $-1 $158 $95 #
plane-surface $-1 50.503597913550948 -23.724386165550122 50.970380190397037 0 0.61566148304635926 0.78801074757464917 1 0 0 forward_v I I I I #
loop $-1 $-1 $238 $61 #
coedge $-1 $156 $156 $157 $239 reversed $96 $-1 #
coedge $-1 $157 $157 $156 $239 forward $98 $-1 #
coedge $-1 $158 $158 $99 $159 forward $153 $-1 #
edge $-1 $240 -2.4492303584834461e-016 $240 6.2831853071796004 $158 $241 forward 7 unknown #
face $-1 $242 $243 $24 $-1 $244 reversed single #
loop $-1 $-1 $245 $100 #
plane-surface $-1 -68.250373851741074 0 0 1 0 0 0 0 -1 forward_v I I I I #
coedge $-1 $246 $171 $247 $248 forward $101 $-1 #
coedge $-1 $249 $103 $246 $250 forward $65 $-1 #
coedge $-1 $103 $249 $251 $252 forward $65 $-1 #
coedge $-1 $174 $173 $103 $167 reversed $175 $-1 #
edge $-1 $253 -41.186633424853433 $254 41.186633424853433 $166 $255 forward 7 unknown #
coedge $-1 $105 $104 $256 $257 forward $41 $-1 #
coedge $-1 $258 $259 $104 $170 reversed $243 $-1 #
edge $-1 $177 -68.250373851741074 $260 68.250373851741074 $169 $261 forward 7 unknown #
coedge $-1 $163 $262 $105 $172 reversed $101 $-1 #
edge $-1 $263 -68.250373851741074 $176 68.250373851741074 $171 $264 forward 7 unknown #
coedge $-1 $166 $106 $262 $265 forward $175 $-1 #
coedge $-1 $106 $166 $258 $266 reversed $175 $-1 #
loop $-1 $-1 $173 $242 #
vertex $-1 $107 $267 #
vertex $-1 $107 $268 #
straight-curve $-1 68.250373851741074 0 14.780152789477954 0 1 0 I I #
face $-1 $269 $270 $25 $-1 $271 reversed single #
loop $-1 $-1 $272 $108 #
plane-surface $-1 0 -41.186633424853433 0 0 1 0 0 0 1 forward_v I I I I #
coedge $-1 $185 $114 $273 $274 reversed $109 $-1 #
coedge $-1 $275 $111 $272 $276 reversed $69 $-1 #
coedge $-1 $111 $275 $277 $278 reversed $69 $-1 #
coedge $-1 $192 $182 $111 $186 reversed $109 $-1 #
edge $-1 $279 -41.186633424853433 $280 41.186633424853433 $185 $281 forward 7 unknown #
coedge $-1 $113 $112 $282 $283 reversed $44 $-1 #
coedge $-1 $284 $285 $112 $189 forward $286 $-1 #
edge $-1 $287 -38.457837134626317 $194 -21.127236299603208 $188 $288 forward 7 unknown #
coedge $-1 $289 $273 $113 $191 forward $180 $-1 #
edge $-1 $193 21.127236299603208 $290 38.457837134626317 $190 $291 forward 7 unknown #
coedge $-1 $114 $185 $284 $292 reversed $109 $-1 #
vertex $-1 $191 $293 #
vertex $-1 $189 $294 #
straight-curve $-1 -50.919773016717969 0 1.85220007486223 0 1 0 I I #
face $-1 $-1 $208 $26 $-1 $295 reversed single #
loop $-1 $-1 $296 $116 #
plane-surface $-1 0 0 14.780152789477954 0 0 1 1 0 0 forward_v I I I I #
coedge $-1 $297 $298 $299 $300 reversed $117 $-1 #
coedge $-1 $301 $119 $121 $206 forward $73 $-1 #
coedge $-1 $119 $301 $297 $302 forward $73 $-1 #
coedge $-1 $299 $122 $119 $203 forward $208 $-1 #
edge $-1 $210 9.7410484929250316 $303 30.15457787791523 $202 $304 forward 7 unknown #
coedge $-1 $305 $306 $120 $205 forward $197 $-1 #
edge $-1 $307 -44.951414935595764 $209 -36.646263634598533 $204 $308 forward 7 unknown #
edge $-1 $210 1.2994784570086186e-014 $307 15.248909745735906 $121 $309 forward 7 unknown #
coedge $-1 $122 $299 $305 $310 reversed $208 $-1 #
loop $-1 $-1 $299 $196 #
vertex $-1 $310 $311 #
vertex $-1 $123 $312 #
straight-curve $-1 29.688861678345162 -41.186633424853433 38.167487348009821 0 0 -1 I I #
coedge $-1 $212 $212 $-1 $313 reversed $126 $-1 #
edge $-1 $314 0 $314 6.2831853071796004 $127 $315 forward 7 unknown #
vertex $-1 $130 $316 #
ellipse-curve $-1 33.771567555343196 -37.034057774354821 8.3857468299469389 0 -0.83867057594974714 0.54463902268945019 2 0 0 1 I I #
coedge $-1 $216 $216 $-1 $317 reversed $133 $-1 #
edge $-1 $318 0 $318 6.2831853071796004 $134 $319 forward 7 unknown #
vertex $-1 $137 $320 #
ellipse-curve $-1 39.895626370840262 -37.034057774354821 8.3857468299469389 0 -0.83867057594974714 0.54463902268945019 2 0 0 1 I I #
coedge $-1 $220 $220 $-1 $321 reversed $140 $-1 #
edge $-1 $322 0 $322 6.2831853071796004 $141 $323 forward 7 unknown #
vertex $-1 $144 $324 #
ellipse-curve $-1 46.019685186337327 -37.034057774354821 8.3857468299469389 0 -0.83867057594974714 0.54463902268945019 2 0 0 1 I I #
face $-1 $-1 $325 $30 $-1 $326 reversed single #
loop $-1 $-1 $327 $145 #
plane-surface $-1 68.250373851741074 0 0 -1 0 0 0 0 1 forward_v I I I I #
coedge $-1 $328 $148 $150 $233 forward $92 $-1 #
coedge $-1 $148 $328 $327 $329 reversed $92 $-1 #
coedge $-1 $330 $151 $148 $230 forward $146 $-1 #
edge $-1 $236 7.5050230185853408 $331 42.9985748949656 $229 $332 forward 7 unknown #
coedge $-1 $333 $334 $149 $232 forward $325 $-1 #
edge $-1 $335 -79.010885658025273 $235 -64.487065426880335 $231 $336 forward 7 unknown #
edge $-1 $236 58.782672617175834 $335 82.373266849706837 $150 $337 forward 7 unknown #
coedge $-1 $151 $330 $333 $338 forward $146 $-1 #
vertex $-1 $232 $339 #
vertex $-1 $152 $340 #
straight-curve $-1 32.756821975360815 30.156933301256306 14.780152789477953 0 -1 0 I I #
coedge $-1 $238 $238 $-1 $341 reversed $155 $-1 #
edge $-1 $342 0 $342 6.2831853071796004 $156 $343 forward 7 unknown #
vertex $-1 $159 $344 #
ellipse-curve $-1 50.503597913550948 31.89181252639996 7.518242673905478 0 0.61566148304635926 0.78801074757464917 2.5 0 0 1 I I #
face $-1 $-1 $175 $24 $-1 $345 reversed single #
loop $-1 $-1 $258 $160 #
plane-surface $-1 0 41.186633424853433 0 0 -1 0 0 0 -1 forward_v I I I I #
coedge $-1 $346 $256 $259 $347 forward $161 $-1 #
coedge $-1 $262 $163 $164 $250 reversed $101 $-1 #
coedge $-1 $256 $346 $163 $248 reversed $161 $-1 #
edge $-1 $263 -14.780152789477954 $348 14.780152789477954 $247 $349 forward 7 unknown #
coedge $-1 $165 $164 $346 $350 forward $65 $-1 #
edge $-1 $254 -68.250373851741074 $348 68.250373851741074 $246 $351 forward 7 unknown #
coedge $-1 $259 $258 $165 $252 reversed $243 $-1 #
edge $-1 $352 -68.250373851741074 $253 68.250373851741074 $251 $353 forward 7 unknown #
vertex $-1 $167 $354 #
vertex $-1 $265 $355 #
straight-curve $-1 68.250373851741074 0 -14.780152789477954 0 -1 0 I I #
coedge $-1 $245 $247 $168 $257 reversed $161 $-1 #
edge $-1 $260 -41.186633424853433 $263 41.186633424853433 $256 $356 forward 7 unknown #
coedge $-1 $251 $169 $174 $266 forward $243 $-1 #
coedge $-1 $169 $251 $245 $347 reversed $243 $-1 #
vertex $-1 $170 $357 #
straight-curve $-1 0 41.186633424853433 14.780152789477954 -1 0 0 I I #
coedge $-1 $171 $246 $173 $265 reversed $101 $-1 #
vertex $-1 $257 $358 #
straight-curve $-1 0 -41.186633424853433 14.780152789477954 1 0 0 I I #
edge $-1 $176 -14.780152789477954 $254 14.780152789477954 $173 $359 forward 7 unknown #
edge $-1 $177 -14.780152789477954 $253 14.780152789477954 $174 $360 forward 7 unknown #
point $-1 68.250373851741074 -41.186633424853433 14.780152789477954 #
point $-1 68.250373851741074 41.186633424853433 14.780152789477954 #
face $-1 $-1 $286 $25 $-1 $361 reversed single #
loop $-1 $-1 $362 $179 #
plane-surface $-1 -68.250373851741074 0 0 1 0 0 0 0 -1 forward_v I I I I #
coedge $-1 $273 $289 $183 $276 forward $180 $-1 #
coedge $-1 $190 $272 $182 $274 forward $180 $-1 #
edge $-1 $280 -5.1828749154597915 $193 2.9624250217280839 $273 $363 forward 7 unknown #
coedge $-1 $184 $183 $362 $364 reversed $69 $-1 #
edge $-1 $365 -38.457837134626317 $280 -21.127236299603208 $272 $366 forward 7 unknown #
coedge $-1 $285 $284 $184 $278 forward $286 $-1 #
edge $-1 $279 21.127236299603208 $367 38.457837134626317 $277 $368 forward 7 unknown #
vertex $-1 $278 $369 #
vertex $-1 $276 $370 #
straight-curve $-1 -50.919773016717969 0 -6.2930998623256453 0 -1 0 I I #
coedge $-1 $371 $372 $187 $283 forward $270 $-1 #
edge $-1 $290 -41.186633424853433 $287 41.186633424853433 $282 $373 forward 7 unknown #
coedge $-1 $277 $188 $192 $292 forward $286 $-1 #
coedge $-1 $188 $277 $371 $374 reversed $286 $-1 #
loop $-1 $-1 $277 $269 #
vertex $-1 $374 $375 #
straight-curve $-1 -29.792536717114761 41.186633424853433 1.85220007486223 1 0 0 I I #
coedge $-1 $272 $190 $372 $376 forward $180 $-1 #
vertex $-1 $376 $377 #
straight-curve $-1 -29.792536717114761 -41.186633424853433 1.85220007486223 -1 0 0 I I #
edge $-1 $194 -2.9624250217280839 $279 5.1828749154597915 $284 $378 forward 7 unknown #
point $-1 -50.919773016717969 -41.186633424853433 1.85220007486223 #
point $-1 -50.919773016717969 41.186633424853433 1.85220007486223 #
plane-surface $-1 0 -41.186633424853433 0 0 1 0 0 0 1 forward_v I I I I #
coedge $-1 $306 $305 $298 $379 forward $197 $-1 #
coedge $-1 $298 $199 $201 $302 reversed $117 $-1 #
coedge $-1 $199 $297 $296 $379 reversed $117 $-1 #
coedge $-1 $207 $202 $199 $300 forward $208 $-1 #
edge $-1 $303 -36.176146477593896 $380 -23.387334558531869 $299 $381 forward 7 unknown #
coedge $-1 $201 $200 $306 $382 reversed $73 $-1 #
edge $-1 $383 -15.248909745735906 $303 -1.2994784570086186e-014 $297 $384 forward 7 unknown #
vertex $-1 $203 $385 #
straight-curve $-1 19.947813185420131 -41.186633424853433 1.9913408704159226 1 0 0 I I #
coedge $-1 $296 $204 $207 $310 forward $197 $-1 #
coedge $-1 $204 $296 $301 $382 forward $197 $-1 #
vertex $-1 $205 $386 #
straight-curve $-1 29.688861678345162 -77.832897059451966 14.780152789477953 0 -1 0 I I #
straight-curve $-1 29.688861678345162 -41.18663342485344 1.991340870415911 0 0.54463902268945019 0.83867057594974714 I I #
edge $-1 $209 29.688861678345162 $380 50.102391063335361 $207 $387 forward 7 unknown #
point $-1 29.688861678345162 -41.186633424853433 14.780152789477954 #
point $-1 29.688861678345162 -41.186633424853433 1.9913408704159219 #
edge $-1 $388 1 $388 0 $212 $-1 forward 7 unknown #
vertex $-1 $213 $389 #
ellipse-curve $-1 33.771567555343196 -32.640065878374202 5.5322552200592874 0 -0.83867057594974714 0.54463902268945019 2 0 0 1 I I #
point $-1 35.771567555343196 -37.034057774354821 8.3857468299469389 #
edge $-1 $390 1 $390 0 $216 $-1 forward 7 unknown #
vertex $-1 $217 $391 #
ellipse-curve $-1 39.895626370840262 -32.640065878374202 5.5322552200592874 0 -0.83867057594974714 0.54463902268945019 2 0 0 1 I I #
point $-1 41.895626370840262 -37.034057774354821 8.3857468299469389 #
edge $-1 $392 1 $392 0 $220 $-1 forward 7 unknown #
vertex $-1 $221 $393 #
ellipse-curve $-1 46.019685186337327 -32.640065878374202 5.5322552200592874 0 -0.83867057594974714 0.54463902268945019 2 0 0 1 I I #
point $-1 48.019685186337327 -37.034057774354821 8.3857468299469389 #
loop $-1 $-1 $231 $224 #
plane-surface $-1 0 41.186633424853433 0 0 -1 0 0 0 -1 forward_v I I I I #
coedge $-1 $394 $395 $228 $329 forward $225 $-1 #
coedge $-1 $228 $227 $334 $396 reversed $92 $-1 #
edge $-1 $331 33.744887048415123 $397 57.335481280946127 $327 $398 forward 7 unknown #
coedge $-1 $234 $229 $395 $399 forward $146 $-1 #
vertex $-1 $399 $400 #
straight-curve $-1 25.251798956775474 22.596991627946469 14.780152789477949 1 0 0 I I #
coedge $-1 $401 $231 $234 $338 reversed $325 $-1 #
coedge $-1 $231 $401 $328 $396 forward $325 $-1 #
vertex $-1 $232 $402 #
straight-curve $-1 32.756821975360815 41.186633424853433 79.267218216358287 0 0 1 I I #
straight-curve $-1 32.756821975360815 -23.724386165550122 50.970380190397037 0 0.78801074757464917 -0.61566148304635926 I I #
edge $-1 $403 -68.250373851741074 $235 -32.756821975360815 $333 $404 forward 7 unknown #
point $-1 32.756821975360815 41.186633424853433 14.780152789477954 #
point $-1 32.756821975360815 22.596991627946466 14.780152789477953 #
edge $-1 $405 1 $405 0 $238 $-1 forward 7 unknown #
vertex $-1 $239 $406 #
ellipse-curve $-1 50.503597913550948 29.054944671004144 3.8872174740837506 0 0.61566148304635926 0.78801074757464917 2.5 0 0 1 I I #
point $-1 53.003597913550948 31.891812526399956 7.5182426739054744 #
plane-surface $-1 68.250373851741074 0 0 -1 0 0 0 0 1 forward_v I I I I #
coedge $-1 $247 $245 $249 $350 reversed $161 $-1 #
edge $-1 $260 -14.780152789477954 $352 14.780152789477954 $259 $407 forward 7 unknown #
vertex $-1 $350 $408 #
straight-curve $-1 -68.250373851741074 -41.186633424853433 0 0 0 -1 I I #
edge $-1 $348 -41.186633424853433 $352 41.186633424853433 $346 $409 forward 7 unknown #
straight-curve $-1 0 -41.186633424853433 -14.780152789477954 -1 0 0 I I #
vertex $-1 $252 $410 #
straight-curve $-1 0 41.186633424853433 -14.780152789477954 1 0 0 I I #
point $-1 68.250373851741074 41.186633424853433 -14.780152789477954 #
point $-1 68.250373851741074 -41.186633424853433 -14.780152789477954 #
straight-curve $-1 -68.250373851741074 0 14.780152789477954 0 -1 0 I I #
point $-1 -68.250373851741074 41.186633424853433 14.780152789477954 #
point $-1 -68.250373851741074 -41.186633424853433 14.780152789477954 #
straight-curve $-1 68.250373851741074 -41.186633424853433 0 0 0 -1 I I #
straight-curve $-1 68.250373851741074 41.186633424853433 0 0 0 -1 I I #
plane-surface $-1 0 41.186633424853433 0 0 -1 0 0 0 -1 forward_v I I I I #
coedge $-1 $372 $371 $275 $364 forward $270 $-1 #
straight-curve $-1 -50.919773016717969 -41.186633424853433 -1.1102249468658538 0 0 1 I I #
edge $-1 $367 -41.186633424853433 $365 41.186633424853433 $362 $411 forward 7 unknown #
vertex $-1 $276 $412 #
straight-curve $-1 -29.792536717114761 -41.186633424853433 -6.2930998623256453 1 0 0 I I #
vertex $-1 $278 $413 #
straight-curve $-1 -29.792536717114761 41.186633424853433 -6.2930998623256453 -1 0 0 I I #
point $-1 -50.919773016717969 41.186633424853433 -6.2930998623256453 #
point $-1 -50.919773016717969 -41.186633424853433 -6.2930998623256453 #
coedge $-1 $362 $282 $285 $374 forward $270 $-1 #
coedge $-1 $282 $362 $289 $376 reversed $270 $-1 #
straight-curve $-1 -68.250373851741074 0 1.85220007486223 0 1 0 I I #
edge $-1 $287 -1.85220007486223 $367 6.2930998623256453 $285 $414 forward 7 unknown #
point $-1 -68.250373851741074 41.186633424853433 1.85220007486223 #
edge $-1 $290 -1.85220007486223 $365 6.2930998623256453 $372 $415 forward 7 unknown #
point $-1 -68.250373851741074 -41.186633424853433 1.85220007486223 #
straight-curve $-1 -50.919773016717969 41.186633424853433 -1.1102249468658538 0 0 -1 I I #
edge $-1 $380 36.646263634598533 $383 44.951414935595764 $296 $416 forward 7 unknown #
vertex $-1 $379 $417 #
straight-curve $-1 50.102391063335361 -41.186633424853433 38.167487348009821 0 0 1 I I #
edge $-1 $383 -30.15457787791523 $307 -9.7410484929250316 $306 $418 forward 7 unknown #
vertex $-1 $382 $419 #
straight-curve $-1 50.102391063335361 -41.18663342485344 1.991340870415911 0 -0.54463902268945019 -0.83867057594974714 I I #
point $-1 50.102391063335361 -41.186633424853433 1.9913408704159219 #
point $-1 29.688861678345162 -32.881482123856202 14.780152789477954 #
straight-curve $-1 0 -41.186633424853433 14.780152789477954 1 0 0 I I #
vertex $-1 $313 $420 #
point $-1 35.771567555343196 -32.640065878374202 5.5322552200592874 #
vertex $-1 $317 $421 #
point $-1 41.895626370840262 -32.640065878374202 5.5322552200592874 #
vertex $-1 $321 $422 #
point $-1 48.019685186337327 -32.640065878374202 5.5322552200592874 #
coedge $-1 $395 $327 $401 $423 reversed $225 $-1 #
coedge $-1 $327 $394 $330 $399 reversed $225 $-1 #
edge $-1 $397 -42.9985748949656 $335 -7.5050230185853408 $334 $424 forward 7 unknown #
vertex $-1 $329 $425 #
straight-curve $-1 68.250373851741074 -3.9943420418972302 35.555579994937084 0 0.78801074757464917 -0.61566148304635926 I I #
edge $-1 $331 22.596991627946466 $403 41.186633424853433 $395 $426 forward 7 unknown #
point $-1 68.250373851741074 22.596991627946466 14.780152789477953 #
coedge $-1 $334 $333 $394 $423 forward $325 $-1 #
point $-1 32.756821975360815 41.186633424853433 0.25633255833302115 #
vertex $-1 $399 $427 #
straight-curve $-1 0 41.186633424853433 14.780152789477954 -1 0 0 I I #
vertex $-1 $341 $428 #
point $-1 53.003597913550948 29.054944671004144 3.8872174740837506 #
straight-curve $-1 -68.250373851741074 41.186633424853433 0 0 0 -1 I I #
point $-1 -68.250373851741074 -41.186633424853433 -14.780152789477954 #
straight-curve $-1 -68.250373851741074 0 -14.780152789477954 0 1 0 I I #
point $-1 -68.250373851741074 41.186633424853433 -14.780152789477954 #
straight-curve $-1 -68.250373851741074 0 -6.2930998623256453 0 -1 0 I I #
point $-1 -68.250373851741074 -41.186633424853433 -6.2930998623256453 #
point $-1 -68.250373851741074 41.186633424853433 -6.2930998623256453 #
straight-curve $-1 -68.250373851741074 41.186633424853433 0 0 0 -1 I I #
straight-curve $-1 -68.250373851741074 -41.186633424853433 0 0 0 -1 I I #
straight-curve $-1 50.102391063335361 -77.832897059451966 14.780152789477953 0 1 0 I I #
point $-1 50.102391063335361 -41.186633424853433 14.780152789477954 #
straight-curve $-1 19.947813185420131 -32.881482123856202 14.780152789477954 -1 0 0 I I #
point $-1 50.102391063335361 -32.881482123856202 14.780152789477954 #
point $-1 33.771567555343196 -30.962724726474704 4.4429771746803866 #
point $-1 39.895626370840262 -30.962724726474704 4.4429771746803866 #
point $-1 46.019685186337327 -30.962724726474704 4.4429771746803866 #
edge $-1 $403 -14.780152789477954 $397 -0.25633255833302115 $394 $429 forward 7 unknown #
straight-curve $-1 25.251798956775474 41.186633424853433 0.25633255833302115 -1 0 0 I I #
point $-1 68.250373851741074 41.186633424853433 0.25633255833302115 #
straight-curve $-1 68.250373851741074 0 14.780152789477954 0 1 0 I I #
point $-1 68.250373851741074 41.186633424853433 14.780152789477954 #
point $-1 50.503597913550948 27.515790963388248 1.9171906051471277 #
straight-curve $-1 68.250373851741074 41.186633424853433 0 0 0 -1 I I #
End-of-ACIS-data 