500 0 11 0           
7 Unknown 11 ACIS 5.0 NT 24 Fri Mar 26 03:29:58 1999 
-1 9.9999999999999995e-007 1e-010 
body $-1 $11 $-1 $12 #
body $-1 $13 $-1 $14 #
body $-1 $15 $-1 $16 #
body $-1 $17 $-1 $18 #
body $-1 $19 $-1 $20 #
body $-1 $21 $-1 $22 #
body $-1 $23 $-1 $24 #
body $-1 $25 $-1 $26 #
body $-1 $27 $-1 $28 #
body $-1 $29 $-1 $30 #
body $-1 $31 $-1 $32 #
lump $-1 $-1 $33 $0 #
transform $-1 1 0 0 0 1 0 0 0 1 60.149540696432382 27.24728118122761 11.955724803593133 1 rotate no_reflect no_shear #
lump $-1 $-1 $34 $1 #
transform $-1 1 0 0 0 1 0 0 0 1 60.149540696432382 27.24728118122761 11.955724803593133 1 rotate no_reflect no_shear #
lump $-1 $-1 $35 $2 #
transform $-1 1 0 0 0 1 0 0 0 1 60.149540696432382 27.24728118122761 11.955724803593133 1 rotate no_reflect no_shear #
lump $-1 $-1 $36 $3 #
transform $-1 1 0 0 0 1 0 0 0 1 60.149540696432382 27.24728118122761 11.955724803593133 1 rotate no_reflect no_shear #
lump $-1 $-1 $37 $4 #
transform $-1 1 0 0 0 1 0 0 0 1 60.149540696432382 27.24728118122761 11.955724803593133 1 rotate no_reflect no_shear #
lump $-1 $-1 $38 $5 #
transform $-1 1 0 0 0 1 0 0 0 1 60.149540696432382 27.24728118122761 11.955724803593133 1 rotate no_reflect no_shear #
lump $-1 $-1 $39 $6 #
transform $-1 1 0 0 0 1 0 0 0 1 60.149540696432382 27.24728118122761 11.955724803593133 1 rotate no_reflect no_shear #
lump $-1 $-1 $40 $7 #
transform $-1 1 0 0 0 1 0 0 0 1 60.149540696432382 27.24728118122761 11.955724803593133 1 rotate no_reflect no_shear #
lump $-1 $-1 $41 $8 #
transform $-1 1 0 0 0 1 0 0 0 1 60.149540696432382 27.24728118122761 11.955724803593133 1 rotate no_reflect no_shear #
lump $-1 $-1 $42 $9 #
transform $-1 1 0 0 0 1 0 0 0 1 60.149540696432382 27.24728118122761 11.955724803593133 1 rotate no_reflect no_shear #
lump $-1 $-1 $43 $10 #
transform $-1 1 0 0 0 1 0 0 0 1 60.149540696432382 27.24728118122761 11.955724803593133 1 rotate no_reflect no_shear #
shell $-1 $-1 $-1 $44 $-1 $11 #
shell $-1 $-1 $-1 $45 $-1 $13 #
shell $-1 $-1 $-1 $46 $-1 $15 #
shell $-1 $-1 $-1 $47 $-1 $17 #
shell $-1 $-1 $-1 $48 $-1 $19 #
shell $-1 $-1 $-1 $49 $-1 $21 #
shell $-1 $-1 $-1 $50 $-1 $23 #
shell $-1 $-1 $-1 $51 $-1 $25 #
shell $-1 $-1 $-1 $52 $-1 $27 #
shell $-1 $-1 $-1 $53 $-1 $29 #
shell $-1 $-1 $-1 $54 $-1 $31 #
face $-1 $55 $56 $33 $-1 $57 reversed single #
face $-1 $58 $59 $34 $-1 $60 forward single #
face $-1 $61 $62 $35 $-1 $63 reversed single #
face $-1 $64 $65 $36 $-1 $66 forward single #
face $-1 $67 $68 $37 $-1 $69 forward single #
face $-1 $70 $71 $38 $-1 $72 reversed single #
face $-1 $73 $74 $39 $-1 $75 forward single #
face $-1 $76 $77 $40 $-1 $78 forward single #
face $-1 $79 $80 $41 $-1 $81 reversed single #
face $-1 $82 $83 $42 $-1 $84 forward single #
face $-1 $85 $86 $43 $-1 $87 forward single #
face $-1 $88 $89 $33 $-1 $90 forward single #
loop $-1 $-1 $91 $44 #
plane-surface $-1 -60.149540696432382 0 0 1 0 0 0 0 -1 forward_v I I I I #
face $-1 $92 $93 $34 $-1 $94 reversed single #
loop $-1 $-1 $95 $45 #
plane-surface $-1 -60.149540696432382 0 0 1 0 0 0 0 -1 forward_v I I I I #
face $-1 $96 $97 $35 $-1 $98 reversed single #
loop $-1 $-1 $99 $46 #
plane-surface $-1 -22.651089320650073 -126.97974057106867 72.363896446793348 -1 0 0 0 -0.82903758062907751 0.55919289150049634 forward_v I I I I #
face $-1 $100 $101 $36 $-1 $102 forward single #
loop $-1 $103 $104 $47 #
cone-surface $-1 -33.69539082493057 -24.114614258964867 7.9726281552228864 0 0.82903758062907751 -0.55919289150049634 0.5 0 0 1 I I 0 1 0.5 forward I I I I #
face $-1 $105 $106 $37 $-1 $107 forward single #
loop $-1 $108 $109 $48 #
cone-surface $-1 -27.068809922362277 -24.114614258964867 7.9726281552228864 0 0.82903758062907751 -0.55919289150049634 0.5 0 0 1 I I 0 1 0.5 forward I I I I #
face $-1 $110 $111 $38 $-1 $112 reversed single #
loop $-1 $-1 $113 $49 #
plane-surface $-1 -19.370859539875369 98.458715872230115 112.16905125711385 1 0 0 0 -0.83867057594974714 -0.54463902268945019 forward_v I I I I #
face $-1 $114 $115 $39 $-1 $116 forward single #
loop $-1 $117 $118 $50 #
cone-surface $-1 -12.263188396841485 21.331176916490907 4.9306081917482727 0 -0.83867057594974714 -0.54463902268945019 3 0 0 1 I I 0 1 3 forward I I I I #
face $-1 $119 $120 $40 $-1 $121 forward single #
loop $-1 $122 $123 $51 #
cone-surface $-1 -1.6016816822906605 21.331176916490907 4.9306081917482727 0 -0.83867057594974714 -0.54463902268945019 3 0 0 1 I I 0 1 3 forward I I I I #
face $-1 $124 $125 $41 $-1 $126 reversed single #
loop $-1 $-1 $127 $52 #
plane-surface $-1 -6.932435039566073 -2.4325840057492911 46.649477136865357 0 0.83867057594974714 0.54463902268945019 1 0 0 forward_v I I I I #
face $-1 $128 $129 $42 $-1 $130 forward single #
loop $-1 $131 $132 $53 #
cone-surface $-1 12.613660603777106 21.331176916490907 4.9306081917482727 0 -0.83867057594974714 -0.54463902268945019 3 0 0 1 I I 0 1 3 forward I I I I #
face $-1 $133 $134 $43 $-1 $135 forward single #
loop $-1 $136 $137 $54 #
cone-surface $-1 23.275167318327931 21.331176916490907 4.9306081917482727 0 -0.83867057594974714 -0.54463902268945019 3 0 0 1 I I 0 1 3 forward I I I I #
face $-1 $138 $139 $33 $-1 $140 reversed single #
loop $-1 $-1 $141 $55 #
plane-surface $-1 0 0 11.955724803593133 0 0 1 1 0 0 forward_v I I I I #
coedge $-1 $142 $143 $144 $145 reversed $56 $-1 #
face $-1 $146 $147 $34 $-1 $148 reversed single #
loop $-1 $-1 $149 $58 #
plane-surface $-1 0 0 -11.955724803593133 0 0 1 1 0 0 forward_v I I I I #
coedge $-1 $150 $151 $152 $153 forward $59 $-1 #
face $-1 $154 $155 $35 $-1 $156 reversed single #
loop $-1 $-1 $157 $61 #
plane-surface $-1 -30.382100373646423 -27.247281181227606 5.0935052778637555 0 -0.82903758062907751 0.55919289150049634 1 0 0 forward_v I I I I #
coedge $-1 $158 $159 $160 $161 reversed $62 $-1 #
face $-1 $-1 $162 $36 $-1 $163 forward single #
loop $-1 $164 $165 $64 #
cone-surface $-1 -33.69539082493057 -23.089000626738219 7.2808430468422021 0 0.82903758062907751 -0.55919289150049634 0.25 0 0 1 I I -0.70710678118654746 0.70710678118654746 0.25 forward I I I I #
loop $-1 $-1 $166 $47 #
coedge $-1 $104 $104 $167 $168 reversed $65 $-1 #
face $-1 $-1 $169 $37 $-1 $170 forward single #
loop $-1 $171 $172 $67 #
cone-surface $-1 -27.068809922362277 -23.089000626738219 7.2808430468422021 0 0.82903758062907751 -0.55919289150049634 0.25 0 0 1 I I -0.70710678118654746 0.70710678118654746 0.25 forward I I I I #
loop $-1 $-1 $173 $48 #
coedge $-1 $109 $109 $174 $175 reversed $68 $-1 #
face $-1 $176 $177 $38 $-1 $178 reversed single #
loop $-1 $-1 $179 $70 #
plane-surface $-1 -6.932435039566073 -2.4325840057492911 46.649477136865357 0 0.83867057594974714 0.54463902268945019 1 0 0 forward_v I I I I #
coedge $-1 $180 $181 $182 $183 reversed $71 $-1 #
face $-1 $-1 $184 $39 $-1 $185 forward single #
loop $-1 $186 $187 $73 #
cone-surface $-1 -12.263188396841485 17.731806642902814 2.5931498805579896 0 -0.83867057594974714 -0.54463902268945019 1.5 0 0 1 I I -0.70710678118654757 0.70710678118654757 1.5 forward I I I I #
loop $-1 $-1 $188 $50 #
coedge $-1 $118 $118 $189 $190 reversed $74 $-1 #
face $-1 $-1 $191 $40 $-1 $192 forward single #
loop $-1 $193 $194 $76 #
cone-surface $-1 -1.6016816822906605 17.731806642902814 2.5931498805579896 0 -0.83867057594974714 -0.54463902268945019 1.5 0 0 1 I I -0.70710678118654757 0.70710678118654757 1.5 forward I I I I #
loop $-1 $-1 $195 $51 #
coedge $-1 $123 $123 $196 $197 reversed $77 $-1 #
face $-1 $198 $199 $41 $-1 $200 forward single #
loop $-1 $-1 $201 $79 #
plane-surface $-1 30.382838461361814 98.458715872230115 112.16905125711385 -1 0 0 0 0.83867057594974714 0.54463902268945019 forward_v I I I I #
coedge $-1 $202 $203 $204 $205 reversed $80 $-1 #
face $-1 $-1 $206 $42 $-1 $207 forward single #
loop $-1 $208 $209 $82 #
cone-surface $-1 12.613660603777106 17.731806642902814 2.5931498805579896 0 -0.83867057594974714 -0.54463902268945019 1.5 0 0 1 I I -0.70710678118654757 0.70710678118654757 1.5 forward I I I I #
loop $-1 $-1 $210 $53 #
coedge $-1 $132 $132 $211 $212 reversed $83 $-1 #
face $-1 $-1 $213 $43 $-1 $214 forward single #
loop $-1 $215 $216 $85 #
cone-surface $-1 23.275167318327931 17.731806642902814 2.5931498805579896 0 -0.83867057594974714 -0.54463902268945019 1.5 0 0 1 I I -0.70710678118654757 0.70710678118654757 1.5 forward I I I I #
loop $-1 $-1 $217 $54 #
coedge $-1 $137 $137 $218 $219 reversed $86 $-1 #
face $-1 $220 $221 $33 $-1 $222 reversed single #
loop $-1 $-1 $223 $88 #
plane-surface $-1 0 0 -11.955724803593133 0 0 1 1 0 0 forward_v I I I I #
coedge $-1 $224 $225 $226 $227 forward $89 $-1 #
coedge $-1 $228 $91 $229 $230 reversed $56 $-1 #
coedge $-1 $91 $228 $231 $232 forward $56 $-1 #
coedge $-1 $233 $234 $91 $145 forward $139 $-1 #
edge $-1 $235 -27.24728118122761 $236 27.24728118122761 $91 $237 forward 7 unknown #
face $-1 $238 $239 $34 $-1 $240 reversed single #
loop $-1 $-1 $241 $92 #
plane-surface $-1 -65.655530157175605 -19.074209281936682 0 0 1 0 0 0 1 forward_v I I I I #
coedge $-1 $242 $243 $151 $244 forward $93 $-1 #
coedge $-1 $245 $95 $246 $247 reversed $59 $-1 #
coedge $-1 $95 $245 $149 $244 reversed $59 $-1 #
coedge $-1 $248 $249 $95 $153 reversed $250 $-1 #
edge $-1 $251 -11.955724803593133 $252 11.955724803593133 $152 $253 forward 7 unknown #
face $-1 $254 $255 $35 $-1 $256 forward single #
loop $-1 $-1 $257 $96 #
plane-surface $-1 -38.113111426642774 -126.97974057106867 72.363896446793348 1 0 0 0 0.82903758062907751 -0.55919289150049634 forward_v I I I I #
coedge $-1 $258 $259 $260 $261 reversed $97 $-1 #
coedge $-1 $159 $99 $262 $263 reversed $62 $-1 #
coedge $-1 $99 $158 $258 $264 reversed $62 $-1 #
coedge $-1 $260 $265 $99 $161 forward $255 $-1 #
edge $-1 $266 36.242589104306731 $267 40.871214474693453 $160 $268 forward 7 unknown #
loop $-1 $-1 $167 $100 #
plane-surface $-1 -30.382100373646423 -27.247281181227606 5.0935052778637555 0 -0.82903758062907751 0.55919289150049634 1 0 0 forward_v I I I I #
loop $-1 $-1 $269 $64 #
coedge $-1 $165 $165 $166 $270 reversed $101 $-1 #
coedge $-1 $166 $166 $165 $270 forward $103 $-1 #
coedge $-1 $167 $167 $104 $168 forward $162 $-1 #
edge $-1 $271 -3.9733044694436354e-015 $271 6.2831853071795969 $167 $272 forward 7 unknown #
loop $-1 $-1 $174 $105 #
plane-surface $-1 -30.382100373646423 -27.247281181227606 5.0935052778637555 0 -0.82903758062907751 0.55919289150049634 1 0 0 forward_v I I I I #
loop $-1 $-1 $273 $67 #
coedge $-1 $172 $172 $173 $274 reversed $106 $-1 #
coedge $-1 $173 $173 $172 $274 forward $108 $-1 #
coedge $-1 $174 $174 $109 $175 forward $169 $-1 #
edge $-1 $275 -3.9733044694436354e-015 $275 6.2831853071795969 $174 $276 forward 7 unknown #
face $-1 $277 $278 $38 $-1 $279 reversed single #
loop $-1 $-1 $280 $110 #
plane-surface $-1 5.5059894607432227 98.458715872230115 112.16905125711385 -1 0 0 0 0.83867057594974714 0.54463902268945019 forward_v I I I I #
coedge $-1 $281 $282 $283 $284 reversed $111 $-1 #
coedge $-1 $181 $113 $285 $286 reversed $71 $-1 #
coedge $-1 $113 $180 $281 $287 reversed $71 $-1 #
coedge $-1 $283 $288 $113 $183 forward $289 $-1 #
edge $-1 $290 21.982076754887448 $291 29.131556465033896 $182 $292 forward 7 unknown #
loop $-1 $-1 $189 $114 #
plane-surface $-1 -6.932435039566073 -2.4325840057492911 46.649477136865357 0 0.83867057594974714 0.54463902268945019 1 0 0 forward_v I I I I #
loop $-1 $-1 $293 $73 #
coedge $-1 $187 $187 $188 $294 reversed $115 $-1 #
coedge $-1 $188 $188 $187 $294 forward $117 $-1 #
coedge $-1 $189 $189 $118 $190 forward $184 $-1 #
edge $-1 $295 1.9981387631384989e-016 $295 6.2831853071796004 $189 $296 forward 7 unknown #
loop $-1 $-1 $196 $119 #
plane-surface $-1 -6.932435039566073 -2.4325840057492911 46.649477136865357 0 0.83867057594974714 0.54463902268945019 1 0 0 forward_v I I I I #
loop $-1 $-1 $297 $76 #
coedge $-1 $194 $194 $195 $298 reversed $120 $-1 #
coedge $-1 $195 $195 $194 $298 forward $122 $-1 #
coedge $-1 $196 $196 $123 $197 forward $191 $-1 #
edge $-1 $299 1.9981387631384989e-016 $299 6.2831853071796004 $196 $300 forward 7 unknown #
face $-1 $301 $302 $41 $-1 $303 forward single #
loop $-1 $-1 $304 $124 #
plane-surface $-1 0 0 11.955724803593133 0 0 1 1 0 0 forward_v I I I I #
coedge $-1 $305 $306 $307 $308 reversed $125 $-1 #
coedge $-1 $309 $127 $310 $311 reversed $80 $-1 #
coedge $-1 $127 $309 $304 $312 reversed $80 $-1 #
coedge $-1 $313 $314 $127 $205 forward $302 $-1 #
edge $-1 $315 -54.494562362455206 $316 -41.367556378120824 $204 $317 forward 7 unknown #
loop $-1 $-1 $211 $128 #
plane-surface $-1 -6.932435039566073 -2.4325840057492911 46.649477136865357 0 0.83867057594974714 0.54463902268945019 1 0 0 forward_v I I I I #
loop $-1 $-1 $318 $82 #
coedge $-1 $209 $209 $210 $319 reversed $129 $-1 #
coedge $-1 $210 $210 $209 $319 forward $131 $-1 #
coedge $-1 $211 $211 $132 $212 forward $206 $-1 #
edge $-1 $320 1.9981387631384989e-016 $320 6.2831853071796004 $211 $321 forward 7 unknown #
loop $-1 $-1 $218 $133 #
plane-surface $-1 -6.932435039566073 -2.4325840057492911 46.649477136865357 0 0.83867057594974714 0.54463902268945019 1 0 0 forward_v I I I I #
loop $-1 $-1 $322 $85 #
coedge $-1 $216 $216 $217 $323 reversed $134 $-1 #
coedge $-1 $217 $217 $216 $323 forward $136 $-1 #
coedge $-1 $218 $218 $137 $219 forward $213 $-1 #
edge $-1 $324 1.9981387631384989e-016 $324 6.2831853071796004 $218 $325 forward 7 unknown #
face $-1 $326 $327 $33 $-1 $328 reversed single #
loop $-1 $-1 $229 $138 #
plane-surface $-1 0 -27.24728118122761 0 0 1 0 0 0 1 forward_v I I I I #
coedge $-1 $234 $233 $329 $330 forward $139 $-1 #
coedge $-1 $331 $141 $332 $333 forward $89 $-1 #
coedge $-1 $141 $331 $334 $335 forward $89 $-1 #
coedge $-1 $336 $337 $141 $227 reversed $338 $-1 #
edge $-1 $339 -27.24728118122761 $340 27.24728118122761 $226 $341 forward 7 unknown #
coedge $-1 $143 $142 $331 $342 reversed $56 $-1 #
coedge $-1 $343 $334 $142 $230 forward $221 $-1 #
edge $-1 $344 -11.955724803593133 $235 11.955724803593133 $142 $345 forward 7 unknown #
coedge $-1 $332 $346 $143 $232 reversed $327 $-1 #
edge $-1 $347 -11.955724803593133 $236 11.955724803593133 $231 $348 forward 7 unknown #
coedge $-1 $223 $144 $346 $349 forward $139 $-1 #
coedge $-1 $144 $223 $343 $350 forward $139 $-1 #
vertex $-1 $145 $351 #
vertex $-1 $349 $352 #
straight-curve $-1 -60.149540696432382 0 -11.955724803593133 0 1 0 I I #
face $-1 $353 $250 $34 $-1 $354 reversed single #
loop $-1 $-1 $355 $146 #
plane-surface $-1 -71.161519617918827 -17.380077202846032 0 1 0 0 0 0 -1 forward_v I I I I #
coedge $-1 $356 $357 $358 $359 forward $147 $-1 #
coedge $-1 $360 $149 $356 $361 forward $93 $-1 #
coedge $-1 $149 $360 $248 $362 forward $93 $-1 #
edge $-1 $251 15.685945123755383 $363 19.074209281936682 $149 $364 forward 7 unknown #
coedge $-1 $151 $150 $365 $366 forward $59 $-1 #
coedge $-1 $367 $368 $150 $247 forward $369 $-1 #
edge $-1 $370 -19.074209281936682 $252 -15.685945123755383 $246 $371 forward 7 unknown #
coedge $-1 $372 $152 $243 $362 reversed $250 $-1 #
coedge $-1 $152 $372 $367 $373 reversed $250 $-1 #
loop $-1 $-1 $152 $238 #
vertex $-1 $244 $374 #
vertex $-1 $373 $375 #
straight-curve $-1 -60.149540696432382 -15.685945123755383 0 0 0 1 I I #
face $-1 $-1 $376 $35 $-1 $377 reversed single #
loop $-1 $-1 $160 $154 #
plane-surface $-1 0 0 11.955724803593133 0 0 1 1 0 0 forward_v I I I I #
coedge $-1 $378 $379 $380 $381 reversed $155 $-1 #
coedge $-1 $382 $157 $159 $264 forward $97 $-1 #
coedge $-1 $157 $382 $378 $383 forward $97 $-1 #
coedge $-1 $380 $160 $157 $261 forward $255 $-1 #
edge $-1 $267 7.4600391338268608 $384 22.922061239819563 $260 $385 forward 7 unknown #
coedge $-1 $386 $387 $158 $263 forward $376 $-1 #
edge $-1 $388 -31.088442945532925 $266 -24.226223419803539 $262 $389 forward 7 unknown #
edge $-1 $267 -8.2773322778954057 $388 6.404651964132713e-015 $159 $390 forward 7 unknown #
coedge $-1 $160 $380 $386 $391 forward $255 $-1 #
vertex $-1 $161 $392 #
vertex $-1 $161 $393 #
straight-curve $-1 -22.651089320650073 -63.489870285534337 11.955724803593135 0 1 0 I I #
coedge $-1 $269 $269 $-1 $394 reversed $164 $-1 #
edge $-1 $395 0 $395 6.2831853071796004 $165 $396 forward 7 unknown #
vertex $-1 $168 $397 #
ellipse-curve $-1 -33.69539082493057 -24.932968496034245 8.5246150407284453 0 -0.82903758062907751 0.55919289150049634 0.5 0 0 1 I I #
coedge $-1 $273 $273 $-1 $398 reversed $171 $-1 #
edge $-1 $399 0 $399 6.2831853071796004 $172 $400 forward 7 unknown #
vertex $-1 $175 $401 #
ellipse-curve $-1 -27.068809922362277 -24.932968496034245 8.5246150407284453 0 -0.82903758062907751 0.55919289150049634 0.5 0 0 1 I I #
face $-1 $-1 $289 $38 $-1 $402 forward single #
loop $-1 $-1 $403 $176 #
plane-surface $-1 0 27.24728118122761 0 0 -1 0 0 0 -1 forward_v I I I I #
coedge $-1 $404 $405 $406 $407 reversed $177 $-1 #
coedge $-1 $408 $179 $181 $287 forward $111 $-1 #
coedge $-1 $179 $408 $404 $409 forward $111 $-1 #
coedge $-1 $406 $182 $179 $284 forward $289 $-1 #
edge $-1 $291 -15.904642020092332 $410 8.9722069805262592 $283 $411 forward 7 unknown #
coedge $-1 $412 $413 $180 $286 forward $278 $-1 #
edge $-1 $414 -55.138034494341291 $290 -44.12880082496379 $285 $415 forward 7 unknown #
edge $-1 $291 41.367556378120824 $414 54.494562362455206 $181 $416 forward 7 unknown #
coedge $-1 $182 $406 $412 $417 forward $289 $-1 #
loop $-1 $-1 $406 $277 #
vertex $-1 $286 $418 #
vertex $-1 $183 $419 #
straight-curve $-1 -19.370859539875369 49.229357936115058 11.955724803593135 0 -1 0 I I #
coedge $-1 $293 $293 $-1 $420 reversed $186 $-1 #
edge $-1 $421 0 $421 6.2831853071796004 $187 $422 forward 7 unknown #
vertex $-1 $190 $423 #
ellipse-curve $-1 -12.263188396841485 23.672541326154388 6.4511079689043855 0 0.83867057594974714 0.54463902268945019 3 0 0 1 I I #
coedge $-1 $297 $297 $-1 $424 reversed $193 $-1 #
edge $-1 $425 0 $425 6.2831853071796004 $194 $426 forward 7 unknown #
vertex $-1 $197 $427 #
ellipse-curve $-1 -1.6016816822906605 23.672541326154388 6.4511079689043855 0 0.83867057594974714 0.54463902268945019 3 0 0 1 I I #
face $-1 $-1 $428 $41 $-1 $429 reversed single #
loop $-1 $-1 $313 $198 #
plane-surface $-1 5.5059894607432227 98.458715872230115 112.16905125711385 -1 0 0 0 0.83867057594974714 0.54463902268945019 forward_v I I I I #
coedge $-1 $307 $430 $203 $312 forward $199 $-1 #
coedge $-1 $306 $201 $309 $431 reversed $125 $-1 #
coedge $-1 $201 $305 $432 $433 reversed $125 $-1 #
coedge $-1 $434 $304 $201 $308 forward $199 $-1 #
edge $-1 $435 -29.131556465033896 $436 -21.982076754887448 $307 $437 forward 7 unknown #
coedge $-1 $203 $202 $305 $431 forward $80 $-1 #
coedge $-1 $438 $432 $202 $311 forward $428 $-1 #
edge $-1 $439 -33.849055981144851 $315 -8.9722069805262592 $310 $440 forward 7 unknown #
edge $-1 $316 8.9722069805262592 $435 33.849055981144851 $304 $441 forward 7 unknown #
coedge $-1 $314 $204 $430 $442 reversed $302 $-1 #
coedge $-1 $204 $313 $438 $443 reversed $302 $-1 #
vertex $-1 $311 $444 #
vertex $-1 $312 $445 #
straight-curve $-1 5.5059894607432227 -2.4325840057492911 46.649477136865357 0 -0.54463902268945019 0.83867057594974714 I I #
coedge $-1 $318 $318 $-1 $446 reversed $208 $-1 #
edge $-1 $447 0 $447 6.2831853071796004 $209 $448 forward 7 unknown #
vertex $-1 $212 $449 #
ellipse-curve $-1 12.613660603777106 23.672541326154388 6.4511079689043855 0 0.83867057594974714 0.54463902268945019 3 0 0 1 I I #
coedge $-1 $322 $322 $-1 $450 reversed $215 $-1 #
edge $-1 $451 0 $451 6.2831853071796004 $216 $452 forward 7 unknown #
vertex $-1 $219 $453 #
ellipse-curve $-1 23.275167318327931 23.672541326154388 6.4511079689043855 0 0.83867057594974714 0.54463902268945019 3 0 0 1 I I #
face $-1 $-1 $338 $33 $-1 $454 reversed single #
loop $-1 $-1 $455 $220 #
plane-surface $-1 0 27.24728118122761 0 0 -1 0 0 0 -1 forward_v I I I I #
coedge $-1 $337 $336 $223 $330 reversed $338 $-1 #
edge $-1 $456 -27.24728118122761 $457 27.24728118122761 $329 $458 forward 7 unknown #
coedge $-1 $225 $224 $228 $342 forward $89 $-1 #
coedge $-1 $455 $231 $224 $333 reversed $327 $-1 #
edge $-1 $340 -60.149540696432382 $347 60.149540696432382 $332 $459 forward 7 unknown #
coedge $-1 $229 $460 $225 $335 reversed $221 $-1 #
edge $-1 $344 -60.149540696432382 $339 60.149540696432382 $334 $461 forward 7 unknown #
coedge $-1 $329 $226 $460 $462 forward $338 $-1 #
coedge $-1 $226 $329 $455 $463 reversed $338 $-1 #
loop $-1 $-1 $336 $326 #
vertex $-1 $227 $464 #
vertex $-1 $227 $465 #
straight-curve $-1 60.149540696432382 0 11.955724803593133 0 1 0 I I #
edge $-1 $347 -27.24728118122761 $344 27.24728118122761 $228 $466 forward 7 unknown #
coedge $-1 $460 $229 $234 $350 reversed $221 $-1 #
vertex $-1 $342 $467 #
straight-curve $-1 -60.149540696432382 -27.24728118122761 0 0 0 -1 I I #
coedge $-1 $231 $455 $233 $349 reversed $327 $-1 #
vertex $-1 $333 $468 #
straight-curve $-1 -60.149540696432382 27.24728118122761 0 0 0 -1 I I #
edge $-1 $236 -60.149540696432382 $456 60.149540696432382 $346 $469 forward 7 unknown #
edge $-1 $457 -60.149540696432382 $235 60.149540696432382 $343 $470 forward 7 unknown #
point $-1 -60.149540696432382 -27.24728118122761 -11.955724803593133 #
point $-1 -60.149540696432382 27.24728118122761 -11.955724803593133 #
face $-1 $-1 $369 $34 $-1 $471 forward single #
plane-surface $-1 -65.655530157175605 -15.685945123755383 0 0 -1 0 0 0 -1 forward_v I I I I #
coedge $-1 $472 $473 $372 $474 forward $239 $-1 #
coedge $-1 $365 $241 $242 $361 reversed $147 $-1 #
coedge $-1 $241 $365 $368 $475 reversed $147 $-1 #
coedge $-1 $473 $472 $241 $359 reversed $239 $-1 #
edge $-1 $476 -11.955724803593133 $477 11.955724803593133 $358 $478 forward 7 unknown #
coedge $-1 $243 $242 $472 $479 forward $93 $-1 #
edge $-1 $363 -5.5059894607432227 $477 5.5059894607432227 $356 $480 forward 7 unknown #
edge $-1 $481 -5.5059894607432227 $251 5.5059894607432227 $248 $482 forward 7 unknown #
vertex $-1 $361 $483 #
straight-curve $-1 -60.149540696432382 0 -11.955724803593133 0 -1 0 I I #
coedge $-1 $357 $356 $245 $366 reversed $147 $-1 #
edge $-1 $370 -11.955724803593133 $363 11.955724803593133 $365 $484 forward 7 unknown #
coedge $-1 $485 $246 $249 $373 forward $369 $-1 #
coedge $-1 $246 $485 $357 $475 forward $369 $-1 #
loop $-1 $-1 $246 $353 #
vertex $-1 $247 $486 #
straight-curve $-1 -60.149540696432382 0 11.955724803593133 0 1 0 I I #
coedge $-1 $249 $248 $355 $474 reversed $250 $-1 #
edge $-1 $252 -5.5059894607432227 $487 5.5059894607432227 $249 $488 forward 7 unknown #
point $-1 -60.149540696432382 -15.685945123755383 -11.955724803593133 #
point $-1 -60.149540696432382 -15.685945123755383 11.955724803593133 #
loop $-1 $-1 $262 $254 #
plane-surface $-1 0 -27.24728118122761 0 0 1 0 0 0 1 forward_v I I I I #
coedge $-1 $379 $257 $259 $383 reversed $155 $-1 #
coedge $-1 $257 $378 $489 $490 reversed $155 $-1 #
coedge $-1 $265 $260 $257 $381 forward $255 $-1 #
edge $-1 $384 -40.871214474693453 $491 -36.242589104306731 $380 $492 forward 7 unknown #
coedge $-1 $259 $258 $387 $493 reversed $97 $-1 #
edge $-1 $494 -6.404651964132713e-015 $384 8.2773322778954057 $378 $495 forward 7 unknown #
vertex $-1 $261 $496 #
straight-curve $-1 -15.191050186823212 -22.618655810840885 11.955724803593133 -1 0 0 I I #
coedge $-1 $489 $262 $265 $391 reversed $376 $-1 #
coedge $-1 $262 $489 $382 $493 forward $376 $-1 #
vertex $-1 $263 $497 #
straight-curve $-1 -22.651089320650073 -27.247281181227606 36.181948223396674 0 0 1 I I #
straight-curve $-1 -22.651089320650073 -27.247281181227606 5.0935052778637555 0 -0.55919289150049634 -0.82903758062907751 I I #
edge $-1 $491 -38.113111426642774 $266 -22.651089320650073 $386 $498 forward 7 unknown #
point $-1 -22.651089320650073 -27.24728118122761 11.955724803593133 #
point $-1 -22.651089320650073 -22.618655810840885 11.955724803593133 #
edge $-1 $499 1 $499 0 $269 $-1 forward 7 unknown #
vertex $-1 $270 $500 #
ellipse-curve $-1 -33.69539082493057 -23.296260021895488 7.4206412697173265 0 -0.82903758062907751 0.55919289150049634 0.5 0 0 1 I I #
point $-1 -33.19539082493057 -24.932968496034249 8.5246150407284453 #
edge $-1 $501 1 $501 0 $273 $-1 forward 7 unknown #
vertex $-1 $274 $502 #
ellipse-curve $-1 -27.068809922362277 -23.296260021895488 7.4206412697173265 0 -0.82903758062907751 0.55919289150049634 0.5 0 0 1 I I #
point $-1 -26.568809922362277 -24.932968496034249 8.5246150407284453 #
plane-surface $-1 0 0 11.955724803593133 0 0 1 1 0 0 forward_v I I I I #
coedge $-1 $413 $412 $405 $503 forward $278 $-1 #
coedge $-1 $405 $280 $282 $409 reversed $177 $-1 #
coedge $-1 $280 $404 $403 $503 reversed $177 $-1 #
coedge $-1 $288 $283 $280 $407 forward $289 $-1 #
edge $-1 $410 -29.131556465033896 $504 -21.982076754887448 $406 $505 forward 7 unknown #
coedge $-1 $282 $281 $413 $506 reversed $111 $-1 #
edge $-1 $507 -54.494562362455206 $410 -41.367556378120824 $404 $508 forward 7 unknown #
vertex $-1 $284 $509 #
straight-curve $-1 -3.4662175197830365 20.097801471081162 11.955724803593135 1 0 0 I I #
coedge $-1 $403 $285 $288 $417 reversed $278 $-1 #
coedge $-1 $285 $403 $408 $506 forward $278 $-1 #
vertex $-1 $286 $510 #
straight-curve $-1 -19.370859539875369 27.247281181227613 56.084525628556925 0 0 1 I I #
straight-curve $-1 -19.370859539875369 -2.4325840057492911 46.649477136865357 0 0.54463902268945019 -0.83867057594974714 I I #
edge $-1 $504 -5.5059894607432227 $290 19.370859539875369 $412 $511 forward 7 unknown #
point $-1 -19.370859539875369 27.24728118122761 11.955724803593133 #
point $-1 -19.370859539875369 20.097801471081162 11.955724803593135 #
edge $-1 $512 1 $512 0 $293 $-1 forward 7 unknown #
vertex $-1 $294 $513 #
ellipse-curve $-1 -12.263188396841485 18.989812506827434 3.4101084145921647 0 0.83867057594974714 0.54463902268945019 3 0 0 1 I I #
point $-1 -9.2631883968414854 23.672541326154381 6.4511079689043802 #
edge $-1 $514 1 $514 0 $297 $-1 forward 7 unknown #
vertex $-1 $298 $515 #
ellipse-curve $-1 -1.6016816822906605 18.989812506827434 3.4101084145921647 0 0.83867057594974714 0.54463902268945019 3 0 0 1 I I #
point $-1 1.3983183177093395 23.672541326154381 6.4511079689043802 #
loop $-1 $-1 $310 $301 #
plane-surface $-1 0 27.24728118122761 0 0 -1 0 0 0 -1 forward_v I I I I #
coedge $-1 $304 $434 $313 $442 forward $199 $-1 #
edge $-1 $439 -54.494562362455206 $435 -41.367556378120824 $305 $516 forward 7 unknown #
coedge $-1 $310 $517 $306 $433 forward $428 $-1 #
edge $-1 $436 44.12880082496379 $439 55.138034494341291 $432 $518 forward 7 unknown #
coedge $-1 $430 $307 $517 $519 forward $199 $-1 #
vertex $-1 $308 $520 #
vertex $-1 $519 $521 #
straight-curve $-1 30.382838461361814 49.229357936115058 11.955724803593135 0 1 0 I I #
coedge $-1 $517 $310 $314 $443 forward $428 $-1 #
vertex $-1 $433 $522 #
straight-curve $-1 -3.4662175197830365 27.24728118122761 0.94649113421563769 -1 0 0 I I #
straight-curve $-1 -3.4662175197830365 20.097801471081162 11.955724803593135 1 0 0 I I #
edge $-1 $523 21.982076754887448 $316 29.131556465033896 $430 $524 forward 7 unknown #
edge $-1 $315 -55.138034494341291 $523 -44.12880082496379 $438 $525 forward 7 unknown #
point $-1 5.5059894607432227 27.247281181227606 0.94649113421563413 #
point $-1 5.5059894607432227 20.097801471081162 11.955724803593135 #
edge $-1 $526 1 $526 0 $318 $-1 forward 7 unknown #
vertex $-1 $319 $527 #
ellipse-curve $-1 12.613660603777106 18.989812506827434 3.4101084145921647 0 0.83867057594974714 0.54463902268945019 3 0 0 1 I I #
point $-1 15.613660603777106 23.672541326154381 6.4511079689043802 #
edge $-1 $528 1 $528 0 $322 $-1 forward 7 unknown #
vertex $-1 $323 $529 #
ellipse-curve $-1 23.275167318327931 18.989812506827434 3.4101084145921647 0 0.83867057594974714 0.54463902268945019 3 0 0 1 I I #
point $-1 26.275167318327931 23.672541326154381 6.4511079689043802 #
plane-surface $-1 60.149540696432382 0 0 -1 0 0 0 0 1 forward_v I I I I #
coedge $-1 $346 $332 $337 $463 forward $327 $-1 #
vertex $-1 $330 $530 #
vertex $-1 $462 $531 #
straight-curve $-1 60.149540696432382 0 -11.955724803593133 0 -1 0 I I #
straight-curve $-1 0 27.24728118122761 11.955724803593133 -1 0 0 I I #
coedge $-1 $334 $343 $336 $462 reversed $221 $-1 #
straight-curve $-1 0 -27.24728118122761 11.955724803593133 1 0 0 I I #
edge $-1 $339 -11.955724803593133 $457 11.955724803593133 $336 $532 forward 7 unknown #
edge $-1 $340 -11.955724803593133 $456 11.955724803593133 $337 $533 forward 7 unknown #
point $-1 60.149540696432382 -27.24728118122761 11.955724803593133 #
point $-1 60.149540696432382 27.24728118122761 11.955724803593133 #
straight-curve $-1 -60.149540696432382 0 11.955724803593133 0 -1 0 I I #
point $-1 -60.149540696432382 -27.24728118122761 11.955724803593133 #
point $-1 -60.149540696432382 27.24728118122761 11.955724803593133 #
straight-curve $-1 0 27.24728118122761 -11.955724803593133 1 0 0 I I #
straight-curve $-1 0 -27.24728118122761 -11.955724803593133 -1 0 0 I I #
plane-surface $-1 0 0 11.955724803593133 0 0 1 1 0 0 forward_v I I I I #
coedge $-1 $358 $355 $360 $479 reversed $239 $-1 #
coedge $-1 $355 $358 $485 $534 reversed $239 $-1 #
edge $-1 $487 -11.955724803593133 $481 11.955724803593133 $372 $535 forward 7 unknown #
edge $-1 $476 -5.5059894607432227 $370 5.5059894607432227 $357 $536 forward 7 unknown #
vertex $-1 $534 $537 #
vertex $-1 $479 $538 #
straight-curve $-1 -71.161519617918827 -19.074209281936682 0 0 0 -1 I I #
edge $-1 $477 -1.6941320790906502 $481 1.6941320790906484 $472 $539 forward 7 unknown #
straight-curve $-1 -65.655530157175605 -19.074209281936682 -11.955724803593133 -1 0 0 I I #
vertex $-1 $362 $540 #
straight-curve $-1 -65.655530157175605 -15.685945123755383 -11.955724803593133 1 0 0 I I #
point $-1 -60.149540696432382 -19.074209281936682 -11.955724803593133 #
straight-curve $-1 -60.149540696432382 -19.074209281936682 0 0 0 -1 I I #
coedge $-1 $368 $367 $473 $534 forward $369 $-1 #
point $-1 -60.149540696432382 -19.074209281936682 11.955724803593133 #
vertex $-1 $373 $541 #
straight-curve $-1 -65.655530157175605 -15.685945123755383 11.955724803593133 -1 0 0 I I #
coedge $-1 $387 $386 $379 $490 forward $376 $-1 #
edge $-1 $491 24.226223419803539 $494 31.088442945532925 $489 $542 forward 7 unknown #
vertex $-1 $391 $543 #
straight-curve $-1 -38.113111426642774 -63.489870285534337 11.955724803593135 0 -1 0 I I #
edge $-1 $494 -22.922061239819563 $388 -7.4600391338268608 $387 $544 forward 7 unknown #
vertex $-1 $493 $545 #
straight-curve $-1 -38.113111426642774 -27.247281181227606 5.0935052778637555 0 0.55919289150049634 0.82903758062907751 I I #
point $-1 -38.113111426642774 -22.618655810840885 11.955724803593133 #
point $-1 -22.651089320650073 -27.24728118122761 5.0935052778637502 #
straight-curve $-1 0 -27.24728118122761 11.955724803593133 1 0 0 I I #
vertex $-1 $394 $546 #
point $-1 -33.19539082493057 -23.296260021895488 7.4206412697173265 #
vertex $-1 $398 $547 #
point $-1 -26.568809922362277 -23.296260021895488 7.4206412697173265 #
edge $-1 $504 44.12880082496379 $507 55.138034494341291 $403 $548 forward 7 unknown #
vertex $-1 $417 $549 #
straight-curve $-1 5.5059894607432227 49.229357936115058 11.955724803593135 0 1 0 I I #
edge $-1 $507 -8.9722069805262592 $414 15.904642020092332 $413 $550 forward 7 unknown #
vertex $-1 $506 $551 #
straight-curve $-1 5.5059894607432227 -2.4325840057492911 46.649477136865357 0 -0.54463902268945019 0.83867057594974714 I I #
point $-1 5.5059894607432227 20.097801471081162 11.955724803593135 #
point $-1 -19.370859539875369 27.247281181227606 0.94649113421563413 #
straight-curve $-1 0 27.24728118122761 11.955724803593133 -1 0 0 I I #
vertex $-1 $420 $552 #
point $-1 -9.2631883968414854 18.989812506827434 3.4101084145921647 #
vertex $-1 $424 $553 #
point $-1 1.3983183177093395 18.989812506827434 3.4101084145921647 #
straight-curve $-1 30.382838461361814 -2.4325840057492911 46.649477136865357 0 -0.54463902268945019 0.83867057594974714 I I #
coedge $-1 $432 $438 $434 $519 reversed $428 $-1 #
straight-curve $-1 30.382838461361814 27.247281181227613 56.084525628556925 0 0 -1 I I #
edge $-1 $436 -30.382838461361814 $523 -5.5059894607432227 $517 $554 forward 7 unknown #
point $-1 30.382838461361814 20.097801471081162 11.955724803593135 #
point $-1 30.382838461361814 27.24728118122761 11.955724803593133 #
point $-1 30.382838461361814 27.247281181227606 0.94649113421563413 #
vertex $-1 $443 $555 #
straight-curve $-1 5.5059894607432227 49.229357936115058 11.955724803593135 0 -1 0 I I #
straight-curve $-1 5.5059894607432227 27.247281181227613 56.084525628556925 0 0 1 I I #
vertex $-1 $446 $556 #
point $-1 15.613660603777106 18.989812506827434 3.4101084145921647 #
vertex $-1 $450 $557 #
point $-1 26.275167318327931 18.989812506827434 3.4101084145921647 #
point $-1 60.149540696432382 27.24728118122761 -11.955724803593133 #
point $-1 60.149540696432382 -27.24728118122761 -11.955724803593133 #
straight-curve $-1 60.149540696432382 -27.24728118122761 0 0 0 -1 I I #
straight-curve $-1 60.149540696432382 27.24728118122761 0 0 0 -1 I I #
edge $-1 $487 -1.6941320790906484 $476 1.6941320790906502 $473 $558 forward 7 unknown #
straight-curve $-1 -71.161519617918827 -15.685945123755383 0 0 0 -1 I I #
straight-curve $-1 -65.655530157175605 -19.074209281936682 11.955724803593133 1 0 0 I I #
point $-1 -71.161519617918827 -19.074209281936682 11.955724803593133 #
point $-1 -71.161519617918827 -19.074209281936682 -11.955724803593133 #
straight-curve $-1 -71.161519617918827 -17.380077202846032 -11.955724803593133 0 1 0 I I #
point $-1 -71.161519617918827 -15.685945123755383 -11.955724803593133 #
point $-1 -71.161519617918827 -15.685945123755383 11.955724803593133 #
straight-curve $-1 -38.113111426642774 -27.247281181227606 36.181948223396674 0 0 -1 I I #
point $-1 -38.113111426642774 -27.24728118122761 11.955724803593133 #
straight-curve $-1 -15.191050186823212 -27.24728118122761 5.0935052778637457 1 0 0 I I #
point $-1 -38.113111426642774 -27.24728118122761 5.0935052778637502 #
point $-1 -33.69539082493057 -22.88174123158095 7.1410448239670776 #
point $-1 -27.068809922362277 -22.88174123158095 7.1410448239670776 #
straight-curve $-1 5.5059894607432227 27.247281181227613 56.084525628556925 0 0 -1 I I #
point $-1 5.5059894607432227 27.24728118122761 11.955724803593133 #
straight-curve $-1 -3.4662175197830365 27.24728118122761 0.94649113421563769 -1 0 0 I I #
point $-1 5.5059894607432227 27.247281181227606 0.94649113421563413 #
point $-1 -12.263188396841485 16.473800778978195 1.7761913465238144 #
point $-1 -1.6016816822906605 16.473800778978195 1.7761913465238144 #
straight-curve $-1 0 27.24728118122761 11.955724803593133 -1 0 0 I I #
point $-1 5.5059894607432227 27.24728118122761 11.955724803593133 #
point $-1 12.613660603777106 16.473800778978195 1.7761913465238144 #
point $-1 23.275167318327931 16.473800778978195 1.7761913465238144 #
straight-curve $-1 -71.161519617918827 -17.380077202846032 11.955724803593133 0 -1 0 I I #
End-of-ACIS-data 