500 0 5 0           
7 Unknown 11 ACIS 5.0 NT 24 Fri Mar 26 18:33:07 1999 
-1 9.9999999999999995e-007 1e-010 
body $-1 $5 $-1 $6 #
body $-1 $7 $-1 $8 #
body $-1 $9 $-1 $10 #
body $-1 $11 $-1 $12 #
body $-1 $13 $-1 $14 #
lump $-1 $-1 $15 $0 #
transform $-1 1 0 0 0 1 0 0 0 1 54.874721518601035 38.284693326220975 15.731110033720102 1 rotate no_reflect no_shear #
lump $-1 $-1 $16 $1 #
transform $-1 1 0 0 0 1 0 0 0 1 54.874721518601035 38.284693326220975 15.731110033720102 1 rotate no_reflect no_shear #
lump $-1 $-1 $17 $2 #
transform $-1 1 0 0 0 1 0 0 0 1 54.874721518601035 38.284693326220975 15.731110033720102 1 rotate no_reflect no_shear #
lump $-1 $-1 $18 $3 #
transform $-1 1 0 0 0 1 0 0 0 1 54.874721518601035 38.284693326220975 15.731110033720102 1 rotate no_reflect no_shear #
lump $-1 $-1 $19 $4 #
transform $-1 1 0 0 0 1 0 0 0 1 54.874721518601035 38.284693326220975 15.731110033720102 1 rotate no_reflect no_shear #
shell $-1 $-1 $-1 $20 $-1 $5 #
shell $-1 $-1 $-1 $21 $-1 $7 #
shell $-1 $-1 $-1 $22 $-1 $9 #
shell $-1 $-1 $-1 $23 $-1 $11 #
shell $-1 $-1 $-1 $24 $-1 $13 #
face $-1 $25 $26 $15 $-1 $27 forward single #
face $-1 $28 $29 $16 $-1 $30 forward single #
face $-1 $31 $32 $17 $-1 $33 reversed single #
face $-1 $34 $35 $18 $-1 $36 forward single #
face $-1 $37 $38 $19 $-1 $39 forward single #
face $-1 $40 $41 $15 $-1 $42 reversed single #
loop $-1 $-1 $43 $20 #
plane-surface $-1 0 0 15.731110033720102 0 0 1 1 0 0 forward_v I I I I #
face $-1 $44 $45 $16 $-1 $46 reversed single #
loop $-1 $-1 $47 $21 #
plane-surface $-1 -47.370856729018556 0 -11.981126804453227 0 0 1 1 0 0 forward_v I I I I #
face $-1 $48 $49 $17 $-1 $50 reversed single #
loop $-1 $-1 $51 $22 #
plane-surface $-1 35.926667964581611 82.06750337575852 138.24239823354773 1 0 0 0 -0.80901700255871778 -0.5877852410284794 forward_v I I I I #
face $-1 $52 $53 $18 $-1 $54 forward single #
loop $-1 $55 $56 $23 #
cone-surface $-1 41.340397551444312 35.446144624893414 12.737790525355061 0 -0.80901700255871778 -0.5877852410284794 1 0 0 1 I I 0 1 1 forward I I I I #
face $-1 $57 $58 $19 $-1 $59 forward single #
loop $-1 $60 $61 $24 #
cone-surface $-1 49.460991931738349 35.446144624893414 12.737790525355061 0 -0.80901700255871778 -0.5877852410284794 1 0 0 1 I I 0 1 1 forward I I I I #
face $-1 $62 $63 $15 $-1 $64 reversed single #
loop $-1 $-1 $65 $25 #
plane-surface $-1 0 0 -15.731110033720102 0 0 1 1 0 0 forward_v I I I I #
coedge $-1 $66 $67 $68 $69 forward $26 $-1 #
face $-1 $70 $71 $16 $-1 $72 reversed single #
loop $-1 $-1 $73 $28 #
plane-surface $-1 -39.866991939436076 0 -13.856118419086664 -1 0 0 0 0 1 forward_v I I I I #
coedge $-1 $74 $75 $76 $77 forward $29 $-1 #
face $-1 $78 $79 $17 $-1 $80 reversed single #
loop $-1 $-1 $81 $31 #
plane-surface $-1 45.400694741591323 -6.721662062687443 73.733295405184549 0 0.80901700255871778 0.5877852410284794 1 0 0 forward_v I I I I #
coedge $-1 $82 $83 $84 $85 reversed $32 $-1 #
face $-1 $-1 $86 $18 $-1 $87 forward single #
loop $-1 $88 $89 $34 #
cone-surface $-1 41.340397551444312 33.635738538858092 11.422453549402617 0 -0.80901700255871778 -0.5877852410284794 0.5 0 0 1 I I -0.70710678118654746 0.70710678118654746 0.5 forward I I I I #
loop $-1 $-1 $90 $23 #
coedge $-1 $56 $56 $91 $92 reversed $35 $-1 #
face $-1 $-1 $93 $19 $-1 $94 forward single #
loop $-1 $95 $96 $37 #
cone-surface $-1 49.460991931738349 33.635738538858092 11.422453549402617 0 -0.80901700255871778 -0.5877852410284794 0.5 0 0 1 I I -0.70710678118654746 0.70710678118654746 0.5 forward I I I I #
loop $-1 $-1 $97 $24 #
coedge $-1 $61 $61 $98 $99 reversed $38 $-1 #
face $-1 $100 $101 $15 $-1 $102 reversed single #
loop $-1 $-1 $103 $40 #
plane-surface $-1 0 -38.284693326220975 0 0 1 0 0 0 1 forward_v I I I I #
coedge $-1 $104 $105 $106 $107 forward $41 $-1 #
coedge $-1 $108 $43 $109 $110 forward $26 $-1 #
coedge $-1 $43 $108 $111 $112 forward $26 $-1 #
coedge $-1 $113 $114 $43 $69 reversed $115 $-1 #
edge $-1 $116 -38.284693326220975 $117 38.284693326220975 $68 $118 forward 7 unknown #
face $-1 $119 $120 $16 $-1 $121 reversed single #
loop $-1 $-1 $122 $44 #
plane-surface $-1 0 0 -15.731110033720102 0 0 1 1 0 0 forward_v I I I I #
coedge $-1 $123 $76 $124 $125 reversed $45 $-1 #
coedge $-1 $126 $47 $127 $128 reversed $29 $-1 #
coedge $-1 $47 $126 $129 $130 reversed $29 $-1 #
coedge $-1 $73 $131 $47 $77 reversed $45 $-1 #
edge $-1 $132 -38.284693326220975 $133 38.284693326220975 $76 $134 forward 7 unknown #
face $-1 $135 $136 $17 $-1 $137 reversed single #
loop $-1 $-1 $138 $48 #
plane-surface $-1 54.874721518601035 0 0 -1 0 0 0 0 1 forward_v I I I I #
coedge $-1 $139 $140 $141 $142 reversed $49 $-1 #
coedge $-1 $83 $51 $143 $144 reversed $32 $-1 #
coedge $-1 $51 $82 $139 $145 reversed $32 $-1 #
coedge $-1 $141 $146 $51 $85 forward $147 $-1 #
edge $-1 $148 2.7490583616582853 $149 5.6143605948014823 $84 $150 forward 7 unknown #
loop $-1 $-1 $91 $52 #
plane-surface $-1 45.400694741591323 -6.721662062687443 73.733295405184549 0 0.80901700255871778 0.5877852410284794 1 0 0 forward_v I I I I #
loop $-1 $-1 $151 $34 #
coedge $-1 $89 $89 $90 $152 reversed $53 $-1 #
coedge $-1 $90 $90 $89 $152 forward $55 $-1 #
coedge $-1 $91 $91 $56 $92 forward $86 $-1 #
edge $-1 $153 -1.1674162355643722e-015 $153 6.2831853071795996 $91 $154 forward 7 unknown #
loop $-1 $-1 $98 $57 #
plane-surface $-1 45.400694741591323 -6.721662062687443 73.733295405184549 0 0.80901700255871778 0.5877852410284794 1 0 0 forward_v I I I I #
loop $-1 $-1 $155 $37 #
coedge $-1 $96 $96 $97 $156 reversed $58 $-1 #
coedge $-1 $97 $97 $96 $156 forward $60 $-1 #
coedge $-1 $98 $98 $61 $99 forward $93 $-1 #
edge $-1 $157 -1.1674162355643722e-015 $157 6.2831853071795996 $98 $158 forward 7 unknown #
face $-1 $159 $160 $15 $-1 $161 reversed single #
loop $-1 $-1 $162 $62 #
plane-surface $-1 -54.874721518601035 0 0 1 0 0 0 0 -1 forward_v I I I I #
coedge $-1 $163 $111 $164 $165 forward $63 $-1 #
coedge $-1 $166 $65 $163 $167 forward $41 $-1 #
coedge $-1 $65 $166 $168 $169 forward $41 $-1 #
coedge $-1 $114 $113 $65 $107 reversed $115 $-1 #
edge $-1 $170 -38.284693326220975 $171 38.284693326220975 $106 $172 forward 7 unknown #
coedge $-1 $67 $66 $173 $174 forward $26 $-1 #
coedge $-1 $175 $176 $66 $110 reversed $160 $-1 #
edge $-1 $117 -54.874721518601035 $177 54.874721518601035 $109 $178 forward 7 unknown #
coedge $-1 $103 $179 $67 $112 reversed $63 $-1 #
edge $-1 $180 -54.874721518601035 $116 54.874721518601035 $111 $181 forward 7 unknown #
coedge $-1 $106 $68 $179 $182 forward $115 $-1 #
coedge $-1 $68 $106 $175 $183 reversed $115 $-1 #
loop $-1 $-1 $113 $159 #
vertex $-1 $69 $184 #
vertex $-1 $69 $185 #
straight-curve $-1 54.874721518601035 0 15.731110033720102 0 1 0 I I #
face $-1 $186 $187 $16 $-1 $188 reversed single #
loop $-1 $-1 $124 $70 #
plane-surface $-1 0 -38.284693326220975 0 0 1 0 0 0 1 forward_v I I I I #
coedge $-1 $189 $190 $123 $191 forward $71 $-1 #
coedge $-1 $131 $73 $122 $191 reversed $45 $-1 #
coedge $-1 $129 $192 $73 $125 forward $120 $-1 #
edge $-1 $193 -8.8030508241767684 $132 -5.0530675949098951 $124 $194 forward 7 unknown #
coedge $-1 $75 $74 $195 $196 reversed $29 $-1 #
coedge $-1 $197 $198 $74 $128 forward $199 $-1 #
edge $-1 $200 -31.189293154091757 $133 -16.181563574926798 $127 $201 forward 7 unknown #
coedge $-1 $202 $124 $75 $130 forward $120 $-1 #
edge $-1 $132 16.181563574926798 $203 31.189293154091757 $129 $204 forward 7 unknown #
coedge $-1 $76 $123 $197 $205 reversed $45 $-1 #
vertex $-1 $130 $206 #
vertex $-1 $128 $207 #
straight-curve $-1 -39.866991939436076 0 -11.981126804453227 0 1 0 I I #
face $-1 $-1 $147 $17 $-1 $208 forward single #
loop $-1 $-1 $209 $78 #
plane-surface $-1 0 38.284693326220975 0 0 -1 0 0 0 -1 forward_v I I I I #
coedge $-1 $210 $211 $140 $212 forward $79 $-1 #
coedge $-1 $213 $81 $83 $145 forward $49 $-1 #
coedge $-1 $81 $213 $138 $212 reversed $49 $-1 #
coedge $-1 $214 $84 $81 $142 forward $147 $-1 #
edge $-1 $149 13.22632059378595 $215 32.174374147805374 $141 $216 forward 7 unknown #
coedge $-1 $217 $209 $82 $144 forward $136 $-1 #
edge $-1 $218 -57.333839388907386 $148 -53.390089083053766 $143 $219 forward 7 unknown #
edge $-1 $149 71.6946432374327 $218 76.569386652441935 $83 $220 forward 7 unknown #
coedge $-1 $84 $214 $217 $221 forward $147 $-1 #
loop $-1 $-1 $141 $135 #
vertex $-1 $144 $222 #
vertex $-1 $85 $223 #
straight-curve $-1 35.926667964581611 41.03375168787926 15.7311100337201 0 -1 0 I I #
coedge $-1 $151 $151 $-1 $224 reversed $88 $-1 #
edge $-1 $225 0 $225 6.2831853071796004 $89 $226 forward 7 unknown #
vertex $-1 $92 $227 #
ellipse-curve $-1 41.340397551444312 36.852042209649383 13.759234880793276 0 0.80901700255871778 0.5877852410284794 1 0 0 1 I I #
coedge $-1 $155 $155 $-1 $228 reversed $95 $-1 #
edge $-1 $229 0 $229 6.2831853071796004 $96 $230 forward 7 unknown #
vertex $-1 $99 $231 #
ellipse-curve $-1 49.460991931738349 36.852042209649383 13.759234880793276 0 0.80901700255871778 0.5877852410284794 1 0 0 1 I I #
face $-1 $-1 $115 $15 $-1 $232 reversed single #
loop $-1 $-1 $175 $100 #
plane-surface $-1 0 38.284693326220975 0 0 -1 0 0 0 -1 forward_v I I I I #
coedge $-1 $233 $173 $176 $234 forward $101 $-1 #
coedge $-1 $179 $103 $104 $167 reversed $63 $-1 #
coedge $-1 $173 $233 $103 $165 reversed $101 $-1 #
edge $-1 $180 -15.731110033720102 $235 15.731110033720102 $164 $236 forward 7 unknown #
coedge $-1 $105 $104 $233 $237 forward $41 $-1 #
edge $-1 $171 -54.874721518601035 $235 54.874721518601035 $163 $238 forward 7 unknown #
coedge $-1 $176 $175 $105 $169 reversed $160 $-1 #
edge $-1 $239 -54.874721518601035 $170 54.874721518601035 $168 $240 forward 7 unknown #
vertex $-1 $107 $241 #
vertex $-1 $182 $242 #
straight-curve $-1 54.874721518601035 0 -15.731110033720102 0 -1 0 I I #
coedge $-1 $162 $164 $108 $174 reversed $101 $-1 #
edge $-1 $177 -38.284693326220975 $180 38.284693326220975 $173 $243 forward 7 unknown #
coedge $-1 $168 $109 $114 $183 forward $160 $-1 #
coedge $-1 $109 $168 $162 $234 reversed $160 $-1 #
vertex $-1 $110 $244 #
straight-curve $-1 0 38.284693326220975 15.731110033720102 -1 0 0 I I #
coedge $-1 $111 $163 $113 $182 reversed $63 $-1 #
vertex $-1 $174 $245 #
straight-curve $-1 0 -38.284693326220975 15.731110033720102 1 0 0 I I #
edge $-1 $116 -15.731110033720102 $171 15.731110033720102 $113 $246 forward 7 unknown #
edge $-1 $117 -15.731110033720102 $170 15.731110033720102 $114 $247 forward 7 unknown #
point $-1 54.874721518601035 -38.284693326220975 15.731110033720102 #
point $-1 54.874721518601035 38.284693326220975 15.731110033720102 #
face $-1 $-1 $199 $16 $-1 $248 reversed single #
loop $-1 $-1 $195 $119 #
plane-surface $-1 -54.874721518601035 0 0 1 0 0 0 0 -1 forward_v I I I I #
coedge $-1 $249 $122 $192 $250 forward $71 $-1 #
coedge $-1 $122 $249 $251 $252 forward $71 $-1 #
edge $-1 $253 -38.284693326220975 $193 38.284693326220975 $122 $254 forward 7 unknown #
coedge $-1 $124 $202 $189 $250 reversed $120 $-1 #
vertex $-1 $250 $255 #
straight-curve $-1 -39.866991939436076 -38.284693326220975 -6.9280592095433322 0 0 1 I I #
coedge $-1 $256 $257 $126 $196 forward $187 $-1 #
edge $-1 $203 -38.284693326220975 $200 38.284693326220975 $195 $258 forward 7 unknown #
coedge $-1 $251 $127 $131 $205 forward $199 $-1 #
coedge $-1 $127 $251 $256 $259 reversed $199 $-1 #
loop $-1 $-1 $197 $186 #
vertex $-1 $259 $260 #
straight-curve $-1 -23.685428364509278 38.284693326220975 -11.981126804453227 1 0 0 I I #
coedge $-1 $192 $129 $257 $261 forward $120 $-1 #
vertex $-1 $261 $262 #
straight-curve $-1 -23.685428364509278 -38.284693326220975 -11.981126804453227 -1 0 0 I I #
edge $-1 $133 5.0530675949098951 $253 8.8030508241767684 $197 $263 forward 7 unknown #
point $-1 -39.866991939436076 -38.284693326220975 -11.981126804453227 #
point $-1 -39.866991939436076 38.284693326220975 -11.981126804453227 #
plane-surface $-1 0 0 15.731110033720102 0 0 1 1 0 0 forward_v I I I I #
coedge $-1 $143 $264 $213 $265 forward $136 $-1 #
coedge $-1 $211 $138 $264 $266 reversed $79 $-1 #
coedge $-1 $138 $210 $214 $267 reversed $79 $-1 #
edge $-1 $215 39.893451540878893 $268 44.768194955888134 $138 $269 forward 7 unknown #
coedge $-1 $140 $139 $209 $265 reversed $49 $-1 #
coedge $-1 $146 $141 $211 $267 forward $147 $-1 #
vertex $-1 $267 $270 #
straight-curve $-1 22.700347370795662 35.419391093077778 15.7311100337201 1 0 0 I I #
coedge $-1 $264 $143 $146 $221 reversed $136 $-1 #
vertex $-1 $144 $271 #
straight-curve $-1 35.926667964581611 38.284693326220975 69.121199116773866 0 0 1 I I #
straight-curve $-1 35.926667964581611 -6.721662062687443 73.733295405184549 0 0.5877852410284794 -0.80901700255871778 I I #
edge $-1 $272 -54.874721518601035 $148 -35.926667964581611 $217 $273 forward 7 unknown #
point $-1 35.926667964581611 38.284693326220975 15.731110033720102 #
point $-1 35.926667964581611 35.419391093077778 15.7311100337201 #
edge $-1 $274 1 $274 0 $151 $-1 forward 7 unknown #
vertex $-1 $152 $275 #
ellipse-curve $-1 41.340397551444312 34.040247040137452 11.716346169916857 0 0.80901700255871778 0.5877852410284794 1 0 0 1 I I #
point $-1 42.340397551444312 36.852042209649369 13.759234880793267 #
edge $-1 $276 1 $276 0 $155 $-1 forward 7 unknown #
vertex $-1 $156 $277 #
ellipse-curve $-1 49.460991931738349 34.040247040137452 11.716346169916857 0 0.80901700255871778 0.5877852410284794 1 0 0 1 I I #
point $-1 50.460991931738349 36.852042209649369 13.759234880793267 #
plane-surface $-1 54.874721518601035 0 0 -1 0 0 0 0 1 forward_v I I I I #
coedge $-1 $164 $162 $166 $237 reversed $101 $-1 #
edge $-1 $177 -15.731110033720102 $239 15.731110033720102 $176 $278 forward 7 unknown #
vertex $-1 $237 $279 #
straight-curve $-1 -54.874721518601035 -38.284693326220975 0 0 0 -1 I I #
edge $-1 $235 -38.284693326220975 $239 38.284693326220975 $233 $280 forward 7 unknown #
straight-curve $-1 0 -38.284693326220975 -15.731110033720102 -1 0 0 I I #
vertex $-1 $169 $281 #
straight-curve $-1 0 38.284693326220975 -15.731110033720102 1 0 0 I I #
point $-1 54.874721518601035 38.284693326220975 -15.731110033720102 #
point $-1 54.874721518601035 -38.284693326220975 -15.731110033720102 #
straight-curve $-1 -54.874721518601035 0 15.731110033720102 0 -1 0 I I #
point $-1 -54.874721518601035 38.284693326220975 15.731110033720102 #
point $-1 -54.874721518601035 -38.284693326220975 15.731110033720102 #
straight-curve $-1 54.874721518601035 -38.284693326220975 0 0 0 -1 I I #
straight-curve $-1 54.874721518601035 38.284693326220975 0 0 0 -1 I I #
plane-surface $-1 0 38.284693326220975 0 0 -1 0 0 0 -1 forward_v I I I I #
coedge $-1 $190 $189 $282 $283 forward $71 $-1 #
edge $-1 $193 39.866991939436076 $284 54.874721518601035 $192 $285 forward 7 unknown #
coedge $-1 $198 $197 $190 $252 reversed $199 $-1 #
edge $-1 $286 -54.874721518601035 $253 -39.866991939436076 $251 $287 forward 7 unknown #
vertex $-1 $205 $288 #
straight-curve $-1 -39.866991939436076 0 -15.731110033720102 0 -1 0 I I #
point $-1 -39.866991939436076 -38.284693326220975 -15.731110033720102 #
coedge $-1 $282 $195 $198 $259 forward $187 $-1 #
coedge $-1 $195 $282 $202 $261 reversed $187 $-1 #
straight-curve $-1 -54.874721518601035 0 -11.981126804453227 0 1 0 I I #
edge $-1 $200 11.981126804453227 $286 15.731110033720102 $198 $289 forward 7 unknown #
point $-1 -54.874721518601035 38.284693326220975 -11.981126804453227 #
edge $-1 $203 11.981126804453227 $284 15.731110033720102 $257 $290 forward 7 unknown #
point $-1 -54.874721518601035 -38.284693326220975 -11.981126804453227 #
straight-curve $-1 -39.866991939436076 38.284693326220975 -6.9280592095433322 0 0 -1 I I #
coedge $-1 $209 $217 $210 $266 forward $136 $-1 #
edge $-1 $268 -32.174374147805374 $218 -13.22632059378595 $209 $291 forward 7 unknown #
edge $-1 $272 -15.731110033720102 $268 -11.78735972786648 $210 $292 forward 7 unknown #
edge $-1 $215 35.419391093077778 $272 38.284693326220975 $211 $293 forward 7 unknown #
vertex $-1 $212 $294 #
straight-curve $-1 54.874721518601035 11.970609063664313 48.005590621043403 0 0.5877852410284794 -0.80901700255871778 I I #
point $-1 54.874721518601035 35.419391093077778 15.7311100337201 #
point $-1 35.926667964581611 38.284693326220975 11.78735972786648 #
vertex $-1 $267 $295 #
straight-curve $-1 0 38.284693326220975 15.731110033720102 -1 0 0 I I #
vertex $-1 $224 $296 #
point $-1 42.340397551444312 34.040247040137452 11.716346169916857 #
vertex $-1 $228 $297 #
point $-1 50.460991931738349 34.040247040137452 11.716346169916857 #
straight-curve $-1 -54.874721518601035 38.284693326220975 0 0 0 -1 I I #
point $-1 -54.874721518601035 -38.284693326220975 -15.731110033720102 #
straight-curve $-1 -54.874721518601035 0 -15.731110033720102 0 1 0 I I #
point $-1 -54.874721518601035 38.284693326220975 -15.731110033720102 #
coedge $-1 $257 $256 $249 $283 reversed $187 $-1 #
edge $-1 $284 -38.284693326220975 $286 38.284693326220975 $282 $298 forward 7 unknown #
vertex $-1 $283 $299 #
straight-curve $-1 0 -38.284693326220975 -15.731110033720102 -1 0 0 I I #
vertex $-1 $252 $300 #
straight-curve $-1 0 38.284693326220975 -15.731110033720102 1 0 0 I I #
point $-1 -39.866991939436076 38.284693326220975 -15.731110033720102 #
straight-curve $-1 -54.874721518601035 38.284693326220975 0 0 0 -1 I I #
straight-curve $-1 -54.874721518601035 -38.284693326220975 0 0 0 -1 I I #
straight-curve $-1 22.700347370795662 38.284693326220975 11.787359727866484 -1 0 0 I I #
straight-curve $-1 54.874721518601035 38.284693326220975 0 0 0 -1 I I #
straight-curve $-1 54.874721518601035 0 15.731110033720102 0 1 0 I I #
point $-1 54.874721518601035 38.284693326220975 11.78735972786648 #
point $-1 54.874721518601035 38.284693326220975 15.731110033720102 #
point $-1 41.340397551444312 33.231230037578733 11.128560928888376 #
point $-1 49.460991931738349 33.231230037578733 11.128560928888376 #
straight-curve $-1 -54.874721518601035 0 -15.731110033720102 0 1 0 I I #
point $-1 -54.874721518601035 -38.284693326220975 -15.731110033720102 #
point $-1 -54.874721518601035 38.284693326220975 -15.731110033720102 #
End-of-ACIS-data 