500 0 12 0           
7 Unknown 11 ACIS 5.0 NT 24 Thu Mar 25 18:27:22 1999 
-1 9.9999999999999995e-007 1e-010 
body $-1 $12 $-1 $13 #
body $-1 $14 $-1 $15 #
body $-1 $16 $-1 $17 #
body $-1 $18 $-1 $19 #
body $-1 $20 $-1 $21 #
body $-1 $22 $-1 $23 #
body $-1 $24 $-1 $25 #
body $-1 $26 $-1 $27 #
body $-1 $28 $-1 $29 #
body $-1 $30 $-1 $31 #
body $-1 $32 $-1 $33 #
body $-1 $34 $-1 $35 #
lump $-1 $-1 $36 $0 #
transform $-1 1 0 0 0 1 0 0 0 1 58.369701223792234 36.480929663149148 15.651940967112715 1 rotate no_reflect no_shear #
lump $-1 $-1 $37 $1 #
transform $-1 1 0 0 0 1 0 0 0 1 58.369701223792234 36.480929663149148 15.651940967112715 1 rotate no_reflect no_shear #
lump $-1 $-1 $38 $2 #
transform $-1 1 0 0 0 1 0 0 0 1 58.369701223792234 36.480929663149148 15.651940967112715 1 rotate no_reflect no_shear #
lump $-1 $-1 $39 $3 #
transform $-1 1 0 0 0 1 0 0 0 1 58.369701223792234 36.480929663149148 15.651940967112715 1 rotate no_reflect no_shear #
lump $-1 $-1 $40 $4 #
transform $-1 1 0 0 0 1 0 0 0 1 58.369701223792234 36.480929663149148 15.651940967112715 1 rotate no_reflect no_shear #
lump $-1 $-1 $41 $5 #
transform $-1 1 0 0 0 1 0 0 0 1 58.369701223792234 36.480929663149148 15.651940967112715 1 rotate no_reflect no_shear #
lump $-1 $-1 $42 $6 #
transform $-1 1 0 0 0 1 0 0 0 1 58.369701223792234 36.480929663149148 15.651940967112715 1 rotate no_reflect no_shear #
lump $-1 $-1 $43 $7 #
transform $-1 1 0 0 0 1 0 0 0 1 58.369701223792234 36.480929663149148 15.651940967112715 1 rotate no_reflect no_shear #
lump $-1 $-1 $44 $8 #
transform $-1 1 0 0 0 1 0 0 0 1 58.369701223792234 36.480929663149148 15.651940967112715 1 rotate no_reflect no_shear #
lump $-1 $-1 $45 $9 #
transform $-1 1 0 0 0 1 0 0 0 1 58.369701223792234 36.480929663149148 15.651940967112715 1 rotate no_reflect no_shear #
lump $-1 $-1 $46 $10 #
transform $-1 1 0 0 0 1 0 0 0 1 58.369701223792234 36.480929663149148 15.651940967112715 1 rotate no_reflect no_shear #
lump $-1 $-1 $47 $11 #
transform $-1 1 0 0 0 1 0 0 0 1 58.369701223792234 36.480929663149148 15.651940967112715 1 rotate no_reflect no_shear #
shell $-1 $-1 $-1 $48 $-1 $12 #
shell $-1 $-1 $-1 $49 $-1 $14 #
shell $-1 $-1 $-1 $50 $-1 $16 #
shell $-1 $-1 $-1 $51 $-1 $18 #
shell $-1 $-1 $-1 $52 $-1 $20 #
shell $-1 $-1 $-1 $53 $-1 $22 #
shell $-1 $-1 $-1 $54 $-1 $24 #
shell $-1 $-1 $-1 $55 $-1 $26 #
shell $-1 $-1 $-1 $56 $-1 $28 #
shell $-1 $-1 $-1 $57 $-1 $30 #
shell $-1 $-1 $-1 $58 $-1 $32 #
shell $-1 $-1 $-1 $59 $-1 $34 #
face $-1 $60 $61 $36 $-1 $62 forward single #
face $-1 $63 $64 $37 $-1 $65 reversed single #
face $-1 $66 $67 $38 $-1 $68 reversed single #
face $-1 $69 $70 $39 $-1 $71 reversed single #
face $-1 $72 $73 $40 $-1 $74 forward single #
face $-1 $75 $76 $41 $-1 $77 forward single #
face $-1 $78 $79 $42 $-1 $80 reversed single #
face $-1 $81 $82 $43 $-1 $83 forward single #
face $-1 $84 $85 $44 $-1 $86 forward single #
face $-1 $87 $88 $45 $-1 $89 reversed single #
face $-1 $90 $91 $46 $-1 $92 forward single #
face $-1 $93 $94 $47 $-1 $95 forward single #
face $-1 $96 $97 $36 $-1 $98 reversed single #
loop $-1 $-1 $99 $48 #
plane-surface $-1 0 0 15.651940967112715 0 0 1 1 0 0 forward_v I I I I #
face $-1 $100 $101 $37 $-1 $102 reversed single #
loop $-1 $-1 $103 $49 #
plane-surface $-1 -52.889926454447647 0 10.663019129632367 0 0 1 1 0 0 forward_v I I I I #
face $-1 $104 $105 $38 $-1 $106 reversed single #
loop $-1 $-1 $107 $50 #
plane-surface $-1 52.889926454447647 0 10.663019129632367 0 0 1 1 0 0 forward_v I I I I #
face $-1 $108 $109 $39 $-1 $110 reversed single #
loop $-1 $-1 $111 $51 #
plane-surface $-1 -20.250343362357427 72.098856971798654 134.83384977844483 1 0 0 0 -0.73135370988377701 -0.68199835119979291 forward_v I I I I #
face $-1 $112 $113 $40 $-1 $114 forward single #
loop $-1 $115 $116 $52 #
cone-surface $-1 -14.464530973112453 28.066436922672903 6.9057513759239306 0 -0.73135370988377701 -0.68199835119979291 2 0 0 1 I I 0 1 2 forward I I I I #
face $-1 $117 $118 $41 $-1 $119 forward single #
loop $-1 $120 $121 $53 #
cone-surface $-1 -5.7858123892449882 28.066436922672903 6.9057513759239306 0 -0.73135370988377701 -0.68199835119979291 2 0 0 1 I I 0 1 2 forward I I I I #
face $-1 $122 $123 $42 $-1 $124 reversed single #
loop $-1 $-1 $125 $54 #
plane-surface $-1 27.159808322745626 72.098856971798654 134.83384977844483 1 0 0 0 -0.73135370988377701 -0.68199835119979291 forward_v I I I I #
face $-1 $126 $127 $43 $-1 $128 forward single #
loop $-1 $129 $130 $55 #
cone-surface $-1 32.9456207119906 28.066436922672903 6.9057513759239306 0 -0.73135370988377701 -0.68199835119979291 2 0 0 1 I I 0 1 2 forward I I I I #
face $-1 $131 $132 $44 $-1 $133 forward single #
loop $-1 $134 $135 $56 #
cone-surface $-1 41.624339295858064 28.066436922672903 6.9057513759239306 0 -0.73135370988377701 -0.68199835119979291 2 0 0 1 I I 0 1 2 forward I I I I #
face $-1 $136 $137 $45 $-1 $138 reversed single #
loop $-1 $-1 $139 $57 #
plane-surface $-1 38.865707011681472 -123.23521348813659 89.293963773476918 -1 0 0 0 -0.74314483375859142 0.66913059716165679 forward_v I I I I #
face $-1 $140 $141 $46 $-1 $142 forward single #
loop $-1 $143 $144 $58 #
cone-surface $-1 27.532239860297096 -34.09610640735216 13.081434035690405 0 0.74314483375859142 -0.66913059716165679 0.5 0 0 1 I I 0 1 0.5 forward I I I I #
face $-1 $145 $146 $47 $-1 $147 forward single #
loop $-1 $148 $149 $59 #
cone-surface $-1 34.332320151127732 -34.09610640735216 13.081434035690405 0 0.74314483375859142 -0.66913059716165679 0.5 0 0 1 I I 0 1 0.5 forward I I I I #
face $-1 $150 $151 $36 $-1 $152 reversed single #
loop $-1 $-1 $153 $60 #
plane-surface $-1 0 0 -15.651940967112715 0 0 1 1 0 0 forward_v I I I I #
coedge $-1 $154 $155 $156 $157 forward $61 $-1 #
face $-1 $158 $159 $37 $-1 $160 reversed single #
loop $-1 $-1 $161 $63 #
plane-surface $-1 -47.41015168510306 0 13.157480048372541 -1 0 0 0 0 1 forward_v I I I I #
coedge $-1 $162 $163 $164 $165 forward $64 $-1 #
face $-1 $166 $167 $38 $-1 $168 forward single #
loop $-1 $-1 $169 $66 #
plane-surface $-1 47.41015168510306 0 13.157480048372541 1 0 0 0 0 -1 forward_v I I I I #
coedge $-1 $170 $171 $172 $173 reversed $67 $-1 #
face $-1 $174 $175 $39 $-1 $176 reversed single #
loop $-1 $-1 $177 $69 #
plane-surface $-1 -10.12517168117872 -13.27893809785752 55.217769789143148 0 0.73135370988377701 0.68199835119979291 1 0 0 forward_v I I I I #
coedge $-1 $178 $179 $180 $181 reversed $70 $-1 #
face $-1 $-1 $182 $40 $-1 $183 forward single #
loop $-1 $184 $185 $72 #
cone-surface $-1 -14.464530973112453 25.352658664976779 4.3751122716733732 0 -0.73135370988377701 -0.68199835119979291 1 0 0 1 I I -0.70710678118654746 0.70710678118654746 1 forward I I I I #
loop $-1 $-1 $186 $52 #
coedge $-1 $116 $116 $187 $188 reversed $73 $-1 #
face $-1 $-1 $189 $41 $-1 $190 forward single #
loop $-1 $191 $192 $75 #
cone-surface $-1 -5.7858123892449882 25.352658664976779 4.3751122716733732 0 -0.73135370988377701 -0.68199835119979291 1 0 0 1 I I -0.70710678118654746 0.70710678118654746 1 forward I I I I #
loop $-1 $-1 $193 $53 #
coedge $-1 $121 $121 $194 $195 reversed $76 $-1 #
face $-1 $196 $197 $42 $-1 $198 forward single #
loop $-1 $-1 $199 $78 #
plane-surface $-1 37.284980003924332 -13.27893809785752 55.217769789143148 0 0.73135370988377701 0.68199835119979291 1 0 0 forward_v I I I I #
coedge $-1 $200 $201 $202 $203 reversed $79 $-1 #
face $-1 $-1 $204 $43 $-1 $205 forward single #
loop $-1 $206 $207 $81 #
cone-surface $-1 32.9456207119906 25.352658664976779 4.3751122716733732 0 -0.73135370988377701 -0.68199835119979291 1 0 0 1 I I -0.70710678118654746 0.70710678118654746 1 forward I I I I #
loop $-1 $-1 $208 $55 #
coedge $-1 $130 $130 $209 $210 reversed $82 $-1 #
face $-1 $-1 $211 $44 $-1 $212 forward single #
loop $-1 $213 $214 $84 #
cone-surface $-1 41.624339295858064 25.352658664976779 4.3751122716733732 0 -0.73135370988377701 -0.68199835119979291 1 0 0 1 I I -0.70710678118654746 0.70710678118654746 1 forward I I I I #
loop $-1 $-1 $215 $56 #
coedge $-1 $135 $135 $216 $217 reversed $85 $-1 #
face $-1 $218 $219 $45 $-1 $220 reversed single #
loop $-1 $-1 $221 $87 #
plane-surface $-1 30.9322800057124 -36.480929663149141 11.18005770142976 0 -0.74314483375859142 0.66913059716165679 1 0 0 forward_v I I I I #
coedge $-1 $222 $223 $224 $225 reversed $88 $-1 #
face $-1 $-1 $226 $46 $-1 $227 forward single #
loop $-1 $228 $229 $90 #
cone-surface $-1 27.532239860297096 -33.538747782033219 12.579586087819163 0 0.74314483375859142 -0.66913059716165679 0.25 0 0 1 I I -0.70710678118654746 0.70710678118654746 0.25 forward I I I I #
loop $-1 $-1 $230 $58 #
coedge $-1 $144 $144 $231 $232 reversed $91 $-1 #
face $-1 $-1 $233 $47 $-1 $234 forward single #
loop $-1 $235 $236 $93 #
cone-surface $-1 34.332320151127732 -33.538747782033219 12.579586087819163 0 0.74314483375859142 -0.66913059716165679 0.25 0 0 1 I I -0.70710678118654746 0.70710678118654746 0.25 forward I I I I #
loop $-1 $-1 $237 $59 #
coedge $-1 $149 $149 $238 $239 reversed $94 $-1 #
face $-1 $240 $241 $36 $-1 $242 reversed single #
loop $-1 $-1 $243 $96 #
plane-surface $-1 0 -36.480929663149148 0 0 1 0 0 0 1 forward_v I I I I #
coedge $-1 $244 $245 $246 $247 forward $97 $-1 #
coedge $-1 $248 $99 $249 $250 forward $61 $-1 #
coedge $-1 $99 $248 $251 $252 forward $61 $-1 #
coedge $-1 $253 $254 $99 $157 reversed $255 $-1 #
edge $-1 $256 -36.480929663149148 $257 36.480929663149148 $156 $258 forward 7 unknown #
face $-1 $259 $260 $37 $-1 $261 reversed single #
loop $-1 $-1 $262 $100 #
plane-surface $-1 0 36.480929663149148 0 0 -1 0 0 0 -1 forward_v I I I I #
coedge $-1 $164 $263 $264 $265 reversed $101 $-1 #
coedge $-1 $266 $103 $267 $268 reversed $64 $-1 #
coedge $-1 $103 $266 $269 $270 reversed $64 $-1 #
coedge $-1 $271 $161 $103 $165 reversed $101 $-1 #
edge $-1 $272 -36.480929663149148 $273 36.480929663149148 $164 $274 forward 7 unknown #
face $-1 $275 $276 $38 $-1 $277 reversed single #
loop $-1 $-1 $278 $104 #
plane-surface $-1 0 0 15.651940967112715 0 0 1 1 0 0 forward_v I I I I #
coedge $-1 $279 $280 $281 $282 reversed $105 $-1 #
coedge $-1 $281 $107 $283 $284 reversed $67 $-1 #
coedge $-1 $107 $281 $285 $286 reversed $67 $-1 #
coedge $-1 $287 $288 $107 $173 forward $289 $-1 #
edge $-1 $290 -36.480929663149148 $291 36.480929663149148 $172 $292 forward 7 unknown #
face $-1 $293 $294 $39 $-1 $295 reversed single #
loop $-1 $-1 $296 $108 #
plane-surface $-1 -1.4210854715202004e-014 72.098856971798654 134.83384977844483 -1 0 0 0 0.73135370988377701 0.68199835119979291 forward_v I I I I #
coedge $-1 $297 $298 $299 $300 reversed $109 $-1 #
coedge $-1 $179 $111 $301 $302 reversed $70 $-1 #
coedge $-1 $111 $178 $297 $303 reversed $70 $-1 #
coedge $-1 $299 $304 $111 $181 forward $305 $-1 #
edge $-1 $306 -0.43150117724982096 $307 12.432635208077997 $180 $308 forward 7 unknown #
loop $-1 $-1 $187 $112 #
plane-surface $-1 -10.12517168117872 -13.27893809785752 55.217769789143148 0 0.73135370988377701 0.68199835119979291 1 0 0 forward_v I I I I #
loop $-1 $-1 $309 $72 #
coedge $-1 $185 $185 $186 $310 reversed $113 $-1 #
coedge $-1 $186 $186 $185 $310 forward $115 $-1 #
coedge $-1 $187 $187 $116 $188 forward $182 $-1 #
edge $-1 $311 2.1120893748965833e-016 $311 6.2831853071796004 $187 $312 forward 7 unknown #
loop $-1 $-1 $194 $117 #
plane-surface $-1 -10.12517168117872 -13.27893809785752 55.217769789143148 0 0.73135370988377701 0.68199835119979291 1 0 0 forward_v I I I I #
loop $-1 $-1 $313 $75 #
coedge $-1 $192 $192 $193 $314 reversed $118 $-1 #
coedge $-1 $193 $193 $192 $314 forward $120 $-1 #
coedge $-1 $194 $194 $121 $195 forward $189 $-1 #
edge $-1 $315 2.1120893748965833e-016 $315 6.2831853071796004 $194 $316 forward 7 unknown #
face $-1 $317 $318 $42 $-1 $319 forward single #
loop $-1 $-1 $202 $122 #
plane-surface $-1 0 0 15.651940967112715 0 0 1 1 0 0 forward_v I I I I #
coedge $-1 $320 $321 $322 $323 reversed $123 $-1 #
coedge $-1 $201 $125 $324 $325 reversed $79 $-1 #
coedge $-1 $125 $200 $320 $326 reversed $79 $-1 #
coedge $-1 $322 $327 $125 $203 forward $197 $-1 #
edge $-1 $328 -0.43150117724982096 $329 12.432635208077997 $202 $330 forward 7 unknown #
loop $-1 $-1 $209 $126 #
plane-surface $-1 37.284980003924332 -13.27893809785752 55.217769789143148 0 0.73135370988377701 0.68199835119979291 1 0 0 forward_v I I I I #
loop $-1 $-1 $331 $81 #
coedge $-1 $207 $207 $208 $332 reversed $127 $-1 #
coedge $-1 $208 $208 $207 $332 forward $129 $-1 #
coedge $-1 $209 $209 $130 $210 forward $204 $-1 #
edge $-1 $333 2.1120893748965833e-016 $333 6.2831853071796004 $209 $334 forward 7 unknown #
loop $-1 $-1 $216 $131 #
plane-surface $-1 37.284980003924332 -13.27893809785752 55.217769789143148 0 0.73135370988377701 0.68199835119979291 1 0 0 forward_v I I I I #
loop $-1 $-1 $335 $84 #
coedge $-1 $214 $214 $215 $336 reversed $132 $-1 #
coedge $-1 $215 $215 $214 $336 forward $134 $-1 #
coedge $-1 $216 $216 $135 $217 forward $211 $-1 #
edge $-1 $337 2.1120893748965833e-016 $337 6.2831853071796004 $216 $338 forward 7 unknown #
face $-1 $339 $340 $45 $-1 $341 forward single #
loop $-1 $-1 $342 $136 #
plane-surface $-1 22.998852999743328 -123.23521348813659 89.293963773476918 1 0 0 0 0.74314483375859142 -0.66913059716165679 forward_v I I I I #
coedge $-1 $343 $344 $345 $346 reversed $137 $-1 #
coedge $-1 $223 $139 $347 $348 reversed $88 $-1 #
coedge $-1 $139 $222 $343 $349 reversed $88 $-1 #
coedge $-1 $345 $350 $139 $225 forward $340 $-1 #
edge $-1 $351 25.136677080919149 $352 29.163178758754526 $224 $353 forward 7 unknown #
loop $-1 $-1 $231 $140 #
plane-surface $-1 30.9322800057124 -36.480929663149141 11.18005770142976 0 -0.74314483375859142 0.66913059716165679 1 0 0 forward_v I I I I #
loop $-1 $-1 $354 $90 #
coedge $-1 $229 $229 $230 $355 reversed $141 $-1 #
coedge $-1 $230 $230 $229 $355 forward $143 $-1 #
coedge $-1 $231 $231 $144 $232 forward $226 $-1 #
edge $-1 $356 -2.640180816224072e-015 $356 6.2831853071795978 $231 $357 forward 7 unknown #
loop $-1 $-1 $238 $145 #
plane-surface $-1 30.9322800057124 -36.480929663149141 11.18005770142976 0 -0.74314483375859142 0.66913059716165679 1 0 0 forward_v I I I I #
loop $-1 $-1 $358 $93 #
coedge $-1 $236 $236 $237 $359 reversed $146 $-1 #
coedge $-1 $237 $237 $236 $359 forward $148 $-1 #
coedge $-1 $238 $238 $149 $239 forward $233 $-1 #
edge $-1 $360 -2.640180816224072e-015 $360 6.2831853071795978 $238 $361 forward 7 unknown #
face $-1 $362 $363 $36 $-1 $364 reversed single #
loop $-1 $-1 $365 $150 #
plane-surface $-1 -58.369701223792234 0 0 1 0 0 0 0 -1 forward_v I I I I #
coedge $-1 $366 $251 $367 $368 forward $151 $-1 #
coedge $-1 $369 $153 $366 $370 forward $97 $-1 #
coedge $-1 $153 $369 $371 $372 forward $97 $-1 #
coedge $-1 $254 $253 $153 $247 reversed $255 $-1 #
edge $-1 $373 -36.480929663149148 $374 36.480929663149148 $246 $375 forward 7 unknown #
coedge $-1 $155 $154 $376 $377 forward $61 $-1 #
coedge $-1 $378 $379 $154 $250 reversed $363 $-1 #
edge $-1 $257 -58.369701223792234 $380 58.369701223792234 $249 $381 forward 7 unknown #
coedge $-1 $243 $382 $155 $252 reversed $151 $-1 #
edge $-1 $383 -58.369701223792234 $256 58.369701223792234 $251 $384 forward 7 unknown #
coedge $-1 $246 $156 $382 $385 forward $255 $-1 #
coedge $-1 $156 $246 $378 $386 reversed $255 $-1 #
loop $-1 $-1 $253 $362 #
vertex $-1 $157 $387 #
vertex $-1 $157 $388 #
straight-curve $-1 58.369701223792234 0 15.651940967112715 0 1 0 I I #
face $-1 $389 $390 $37 $-1 $391 forward single #
loop $-1 $-1 $392 $158 #
plane-surface $-1 -58.369701223792234 0 0 1 0 0 0 0 -1 forward_v I I I I #
coedge $-1 $269 $393 $271 $394 forward $159 $-1 #
coedge $-1 $161 $271 $395 $396 reversed $101 $-1 #
coedge $-1 $397 $267 $161 $265 forward $398 $-1 #
edge $-1 $273 4.0842791054460967 $399 9.0732009429264444 $264 $400 forward 7 unknown #
coedge $-1 $163 $162 $392 $401 reversed $64 $-1 #
coedge $-1 $264 $402 $162 $268 forward $398 $-1 #
edge $-1 $403 -31.92473799656841 $273 -20.965188457879236 $267 $404 forward 7 unknown #
coedge $-1 $405 $262 $163 $270 forward $159 $-1 #
edge $-1 $272 20.965188457879236 $406 31.92473799656841 $269 $407 forward 7 unknown #
coedge $-1 $263 $164 $262 $394 reversed $101 $-1 #
vertex $-1 $270 $408 #
vertex $-1 $268 $409 #
straight-curve $-1 -47.41015168510306 0 10.663019129632367 0 -1 0 I I #
face $-1 $410 $411 $38 $-1 $412 reversed single #
loop $-1 $-1 $413 $166 #
plane-surface $-1 0 -36.480929663149148 0 0 1 0 0 0 1 forward_v I I I I #
coedge $-1 $414 $415 $416 $417 forward $167 $-1 #
coedge $-1 $416 $169 $413 $418 reversed $105 $-1 #
coedge $-1 $169 $416 $419 $420 reversed $105 $-1 #
coedge $-1 $171 $170 $169 $282 forward $67 $-1 #
edge $-1 $421 -36.480929663149148 $422 36.480929663149148 $169 $423 forward 7 unknown #
coedge $-1 $424 $413 $170 $284 forward $276 $-1 #
edge $-1 $421 20.965188457879236 $290 31.92473799656841 $283 $425 forward 7 unknown #
coedge $-1 $419 $426 $171 $286 forward $411 $-1 #
edge $-1 $291 -31.92473799656841 $422 -20.965188457879236 $285 $427 forward 7 unknown #
coedge $-1 $428 $172 $426 $429 reversed $289 $-1 #
coedge $-1 $172 $428 $424 $430 forward $289 $-1 #
loop $-1 $-1 $172 $410 #
vertex $-1 $284 $431 #
vertex $-1 $173 $432 #
straight-curve $-1 58.369701223792234 0 10.663019129632367 0 1 0 I I #
face $-1 $-1 $305 $39 $-1 $433 forward single #
loop $-1 $-1 $434 $174 #
plane-surface $-1 0 36.480929663149148 0 0 -1 0 0 0 -1 forward_v I I I I #
coedge $-1 $435 $436 $437 $438 reversed $175 $-1 #
coedge $-1 $439 $177 $179 $303 forward $109 $-1 #
coedge $-1 $177 $439 $435 $440 forward $109 $-1 #
coedge $-1 $437 $180 $177 $300 forward $305 $-1 #
edge $-1 $307 -15.187757521768066 $441 5.062585840589346 $299 $442 forward 7 unknown #
coedge $-1 $443 $444 $178 $302 forward $294 $-1 #
edge $-1 $445 -65.560081598385779 $306 -51.7649839221097 $301 $446 forward 7 unknown #
edge $-1 $307 54.099443658141865 $445 72.961859326298281 $179 $447 forward 7 unknown #
coedge $-1 $180 $437 $443 $448 forward $305 $-1 #
loop $-1 $-1 $437 $293 #
vertex $-1 $302 $449 #
vertex $-1 $181 $450 #
straight-curve $-1 -20.250343362357427 36.049428485899327 15.651940967112715 0 -1 0 I I #
coedge $-1 $309 $309 $-1 $451 reversed $184 $-1 #
edge $-1 $452 0 $452 6.2831853071796004 $185 $453 forward 7 unknown #
vertex $-1 $188 $454 #
ellipse-curve $-1 -14.464530973112453 30.048861470485232 8.7543921289746791 0 0.73135370988377701 0.68199835119979291 2 0 0 1 I I #
coedge $-1 $313 $313 $-1 $455 reversed $191 $-1 #
edge $-1 $456 0 $456 6.2831853071796004 $192 $457 forward 7 unknown #
vertex $-1 $195 $458 #
ellipse-curve $-1 -5.7858123892449882 30.048861470485232 8.7543921289746791 0 0.73135370988377701 0.68199835119979291 2 0 0 1 I I #
face $-1 $-1 $459 $42 $-1 $460 reversed single #
loop $-1 $-1 $461 $196 #
plane-surface $-1 47.41015168510306 0 13.157480048372541 1 0 0 0 0 -1 forward_v I I I I #
coedge $-1 $462 $199 $201 $326 forward $123 $-1 #
coedge $-1 $199 $462 $461 $463 forward $123 $-1 #
coedge $-1 $464 $202 $199 $323 forward $197 $-1 #
edge $-1 $329 8.5173183207834597 $465 28.767661683140872 $322 $466 forward 7 unknown #
coedge $-1 $467 $468 $200 $325 forward $459 $-1 #
edge $-1 $469 -65.560081598385779 $328 -51.7649839221097 $324 $470 forward 7 unknown #
edge $-1 $329 54.099443658141865 $469 72.961859326298281 $201 $471 forward 7 unknown #
coedge $-1 $202 $464 $467 $472 forward $197 $-1 #
vertex $-1 $325 $473 #
vertex $-1 $203 $474 #
straight-curve $-1 27.159808322745626 36.049428485899327 15.651940967112715 0 -1 0 I I #
coedge $-1 $331 $331 $-1 $475 reversed $206 $-1 #
edge $-1 $476 0 $476 6.2831853071796004 $207 $477 forward 7 unknown #
vertex $-1 $210 $478 #
ellipse-curve $-1 32.9456207119906 30.048861470485232 8.7543921289746791 0 0.73135370988377701 0.68199835119979291 2 0 0 1 I I #
coedge $-1 $335 $335 $-1 $479 reversed $213 $-1 #
edge $-1 $480 0 $480 6.2831853071796004 $214 $481 forward 7 unknown #
vertex $-1 $217 $482 #
ellipse-curve $-1 41.624339295858064 30.048861470485232 8.7543921289746791 0 0.73135370988377701 0.68199835119979291 2 0 0 1 I I #
face $-1 $-1 $483 $45 $-1 $484 reversed single #
loop $-1 $-1 $224 $218 #
plane-surface $-1 0 0 15.651940967112715 0 0 1 1 0 0 forward_v I I I I #
coedge $-1 $485 $486 $487 $488 reversed $219 $-1 #
coedge $-1 $489 $221 $223 $349 forward $137 $-1 #
coedge $-1 $221 $489 $485 $490 forward $137 $-1 #
coedge $-1 $487 $224 $221 $346 forward $340 $-1 #
edge $-1 $352 -23.399567008825272 $491 -7.5327129968871276 $345 $492 forward 7 unknown #
coedge $-1 $493 $494 $222 $348 forward $483 $-1 #
edge $-1 $495 -33.466924185308706 $351 -28.995040919625744 $347 $496 forward 7 unknown #
edge $-1 $352 -6.0175124182261808 $495 1.0034820483328475e-014 $223 $497 forward 7 unknown #
coedge $-1 $224 $487 $493 $498 forward $340 $-1 #
vertex $-1 $348 $499 #
vertex $-1 $225 $500 #
straight-curve $-1 38.865707011681472 -61.617606744068297 15.651940967112715 0 1 0 I I #
coedge $-1 $354 $354 $-1 $501 reversed $228 $-1 #
edge $-1 $502 0 $502 6.2831853071796004 $229 $503 forward 7 unknown #
vertex $-1 $232 $504 #
ellipse-curve $-1 27.532239860297096 -34.467678824231456 13.415999334271236 0 -0.74314483375859142 0.66913059716165679 0.5 0 0 1 I I #
coedge $-1 $358 $358 $-1 $505 reversed $235 $-1 #
edge $-1 $506 0 $506 6.2831853071796004 $236 $507 forward 7 unknown #
vertex $-1 $239 $508 #
ellipse-curve $-1 34.332320151127732 -34.467678824231456 13.415999334271236 0 -0.74314483375859142 0.66913059716165679 0.5 0 0 1 I I #
face $-1 $-1 $255 $36 $-1 $509 reversed single #
loop $-1 $-1 $378 $240 #
plane-surface $-1 0 36.480929663149148 0 0 -1 0 0 0 -1 forward_v I I I I #
coedge $-1 $510 $376 $379 $511 forward $241 $-1 #
coedge $-1 $382 $243 $244 $370 reversed $151 $-1 #
coedge $-1 $376 $510 $243 $368 reversed $241 $-1 #
edge $-1 $383 -15.651940967112715 $512 15.651940967112715 $367 $513 forward 7 unknown #
coedge $-1 $245 $244 $510 $514 forward $97 $-1 #
edge $-1 $374 -58.369701223792234 $512 58.369701223792234 $366 $515 forward 7 unknown #
coedge $-1 $379 $378 $245 $372 reversed $363 $-1 #
edge $-1 $516 -58.369701223792234 $373 58.369701223792234 $371 $517 forward 7 unknown #
vertex $-1 $247 $518 #
vertex $-1 $385 $519 #
straight-curve $-1 58.369701223792234 0 -15.651940967112715 0 -1 0 I I #
coedge $-1 $365 $367 $248 $377 reversed $241 $-1 #
edge $-1 $380 -36.480929663149148 $383 36.480929663149148 $376 $520 forward 7 unknown #
coedge $-1 $371 $249 $254 $386 forward $363 $-1 #
coedge $-1 $249 $371 $365 $511 reversed $363 $-1 #
vertex $-1 $250 $521 #
straight-curve $-1 0 36.480929663149148 15.651940967112715 -1 0 0 I I #
coedge $-1 $251 $366 $253 $385 reversed $151 $-1 #
vertex $-1 $377 $522 #
straight-curve $-1 0 -36.480929663149148 15.651940967112715 1 0 0 I I #
edge $-1 $256 -15.651940967112715 $374 15.651940967112715 $253 $523 forward 7 unknown #
edge $-1 $257 -15.651940967112715 $373 15.651940967112715 $254 $524 forward 7 unknown #
point $-1 58.369701223792234 -36.480929663149148 15.651940967112715 #
point $-1 58.369701223792234 36.480929663149148 15.651940967112715 #
face $-1 $-1 $398 $37 $-1 $525 reversed single #
loop $-1 $-1 $395 $259 #
plane-surface $-1 0 0 15.651940967112715 0 0 1 1 0 0 forward_v I I I I #
coedge $-1 $526 $527 $266 $401 forward $260 $-1 #
coedge $-1 $262 $405 $528 $529 reversed $159 $-1 #
edge $-1 $530 -9.0732009429264444 $272 -4.0842791054460967 $262 $531 forward 7 unknown #
coedge $-1 $528 $532 $263 $396 forward $390 $-1 #
edge $-1 $399 -36.480929663149148 $530 36.480929663149148 $395 $533 forward 7 unknown #
coedge $-1 $402 $264 $532 $534 reversed $398 $-1 #
loop $-1 $-1 $264 $389 #
vertex $-1 $265 $535 #
straight-curve $-1 -47.41015168510306 -36.480929663149148 6.5787400241862706 0 0 1 I I #
edge $-1 $406 -36.480929663149148 $403 36.480929663149148 $392 $536 forward 7 unknown #
coedge $-1 $267 $397 $526 $537 forward $398 $-1 #
vertex $-1 $401 $538 #
straight-curve $-1 -26.444963227223823 -36.480929663149148 10.663019129632367 1 0 0 I I #
coedge $-1 $393 $269 $527 $539 reversed $159 $-1 #
vertex $-1 $401 $540 #
straight-curve $-1 -26.444963227223823 36.480929663149148 10.663019129632367 -1 0 0 I I #
point $-1 -47.41015168510306 36.480929663149148 10.663019129632367 #
point $-1 -47.41015168510306 -36.480929663149148 10.663019129632367 #
face $-1 $-1 $289 $38 $-1 $541 reversed single #
loop $-1 $-1 $419 $275 #
plane-surface $-1 0 36.480929663149148 0 0 -1 0 0 0 -1 forward_v I I I I #
coedge $-1 $283 $542 $279 $418 forward $276 $-1 #
coedge $-1 $543 $278 $542 $544 forward $167 $-1 #
coedge $-1 $278 $543 $545 $546 forward $167 $-1 #
coedge $-1 $280 $279 $278 $417 reversed $105 $-1 #
edge $-1 $547 -36.480929663149148 $548 36.480929663149148 $278 $549 forward 7 unknown #
edge $-1 $548 -9.0732009429264444 $421 -4.0842791054460967 $413 $550 forward 7 unknown #
coedge $-1 $545 $285 $280 $420 forward $411 $-1 #
edge $-1 $422 4.0842791054460967 $547 9.0732009429264444 $419 $551 forward 7 unknown #
vertex $-1 $284 $552 #
vertex $-1 $286 $553 #
straight-curve $-1 47.41015168510306 0 10.663019129632367 0 1 0 I I #
coedge $-1 $542 $283 $288 $430 reversed $276 $-1 #
straight-curve $-1 26.444963227223823 -36.480929663149148 10.663019129632367 1 0 0 I I #
coedge $-1 $285 $545 $287 $429 forward $411 $-1 #
straight-curve $-1 26.444963227223823 36.480929663149148 10.663019129632367 -1 0 0 I I #
coedge $-1 $288 $287 $543 $554 reversed $289 $-1 #
edge $-1 $555 -15.651940967112715 $291 -10.663019129632367 $287 $556 forward 7 unknown #
edge $-1 $557 -15.651940967112715 $290 -10.663019129632367 $288 $558 forward 7 unknown #
point $-1 58.369701223792234 -36.480929663149148 10.663019129632367 #
point $-1 58.369701223792234 36.480929663149148 10.663019129632367 #
plane-surface $-1 0 0 15.651940967112715 0 0 1 1 0 0 forward_v I I I I #
coedge $-1 $444 $443 $436 $559 forward $294 $-1 #
coedge $-1 $436 $296 $298 $440 reversed $175 $-1 #
coedge $-1 $296 $435 $434 $559 reversed $175 $-1 #
coedge $-1 $304 $299 $296 $438 forward $305 $-1 #
edge $-1 $441 -12.432635208077997 $560 0.43150117724982096 $437 $561 forward 7 unknown #
coedge $-1 $298 $297 $444 $562 reversed $109 $-1 #
edge $-1 $563 -72.961859326298281 $441 -54.099443658141865 $435 $564 forward 7 unknown #
vertex $-1 $300 $565 #
straight-curve $-1 -5.0625858405893602 23.616793277821337 15.651940967112715 1 0 0 I I #
coedge $-1 $434 $301 $304 $448 reversed $294 $-1 #
coedge $-1 $301 $434 $439 $562 forward $294 $-1 #
vertex $-1 $302 $566 #
straight-curve $-1 -20.250343362357427 36.480929663149148 67.416924889222415 0 0 1 I I #
straight-curve $-1 -20.250343362357427 -13.27893809785752 55.217769789143148 0 0.68199835119979291 -0.73135370988377701 I I #
edge $-1 $560 1.4210854715202004e-014 $306 20.250343362357427 $443 $567 forward 7 unknown #
point $-1 -20.250343362357427 36.480929663149148 15.651940967112715 #
point $-1 -20.250343362357427 23.61679327782133 15.651940967112715 #
edge $-1 $568 1 $568 0 $309 $-1 forward 7 unknown #
vertex $-1 $310 $569 #
ellipse-curve $-1 -14.464530973112453 26.084012374860556 5.0571106228731662 0 0.73135370988377701 0.68199835119979291 2 0 0 1 I I #
point $-1 -12.464530973112453 30.048861470485249 8.7543921289746951 #
edge $-1 $570 1 $570 0 $313 $-1 forward 7 unknown #
vertex $-1 $314 $571 #
ellipse-curve $-1 -5.7858123892449882 26.084012374860556 5.0571106228731662 0 0.73135370988377701 0.68199835119979291 2 0 0 1 I I #
point $-1 -3.7858123892449882 30.048861470485249 8.7543921289746951 #
loop $-1 $-1 $324 $317 #
plane-surface $-1 0 36.480929663149148 0 0 -1 0 0 0 -1 forward_v I I I I #
coedge $-1 $572 $573 $321 $463 reversed $318 $-1 #
coedge $-1 $321 $320 $468 $574 reversed $123 $-1 #
edge $-1 $575 -72.961859326298281 $465 -54.099443658141865 $461 $576 forward 7 unknown #
coedge $-1 $327 $322 $573 $577 forward $197 $-1 #
vertex $-1 $577 $578 #
straight-curve $-1 18.642490001962166 23.616793277821337 15.651940967112715 1 0 0 I I #
coedge $-1 $579 $324 $327 $472 reversed $459 $-1 #
coedge $-1 $324 $579 $462 $574 forward $459 $-1 #
vertex $-1 $325 $580 #
straight-curve $-1 27.159808322745626 36.480929663149148 67.416924889222415 0 0 1 I I #
straight-curve $-1 27.159808322745626 -13.27893809785752 55.217769789143148 0 0.68199835119979291 -0.73135370988377701 I I #
edge $-1 $581 -47.41015168510306 $328 -27.159808322745626 $467 $582 forward 7 unknown #
point $-1 27.159808322745626 36.480929663149148 15.651940967112715 #
point $-1 27.159808322745626 23.61679327782133 15.651940967112715 #
edge $-1 $583 1 $583 0 $331 $-1 forward 7 unknown #
vertex $-1 $332 $584 #
ellipse-curve $-1 32.9456207119906 26.084012374860556 5.0571106228731662 0 0.73135370988377701 0.68199835119979291 2 0 0 1 I I #
point $-1 34.9456207119906 30.048861470485249 8.7543921289746951 #
edge $-1 $585 1 $585 0 $335 $-1 forward 7 unknown #
vertex $-1 $336 $586 #
ellipse-curve $-1 41.624339295858064 26.084012374860556 5.0571106228731662 0 0.73135370988377701 0.68199835119979291 2 0 0 1 I I #
point $-1 43.624339295858064 30.048861470485249 8.7543921289746951 #
loop $-1 $-1 $347 $339 #
plane-surface $-1 0 -36.480929663149148 0 0 1 0 0 0 1 forward_v I I I I #
coedge $-1 $486 $342 $344 $490 reversed $219 $-1 #
coedge $-1 $342 $485 $587 $588 reversed $219 $-1 #
coedge $-1 $350 $345 $342 $488 forward $340 $-1 #
edge $-1 $491 -29.163178758754526 $589 -25.136677080919149 $487 $590 forward 7 unknown #
coedge $-1 $344 $343 $494 $591 reversed $137 $-1 #
edge $-1 $592 -1.0034820483328475e-014 $491 6.0175124182261808 $485 $593 forward 7 unknown #
vertex $-1 $346 $594 #
straight-curve $-1 15.4661400028562 -32.454427985313771 15.651940967112715 -1 0 0 I I #
coedge $-1 $587 $347 $350 $498 reversed $483 $-1 #
coedge $-1 $347 $587 $489 $591 forward $483 $-1 #
vertex $-1 $348 $595 #
straight-curve $-1 38.865707011681472 -36.480929663149148 44.646981886738459 0 0 1 I I #
straight-curve $-1 38.865707011681472 -36.480929663149141 11.18005770142976 0 -0.66913059716165679 -0.74314483375859142 I I #
edge $-1 $589 22.998852999743328 $351 38.865707011681472 $493 $596 forward 7 unknown #
point $-1 38.865707011681472 -36.480929663149148 15.651940967112715 #
point $-1 38.865707011681472 -32.454427985313771 15.651940967112715 #
edge $-1 $597 1 $597 0 $354 $-1 forward 7 unknown #
vertex $-1 $355 $598 #
ellipse-curve $-1 27.532239860297096 -33.724533990472864 12.746868737109576 0 -0.74314483375859142 0.66913059716165679 0.5 0 0 1 I I #
point $-1 28.032239860297096 -34.467678824231456 13.415999334271234 #
edge $-1 $599 1 $599 0 $358 $-1 forward 7 unknown #
vertex $-1 $359 $600 #
ellipse-curve $-1 34.332320151127732 -33.724533990472864 12.746868737109576 0 -0.74314483375859142 0.66913059716165679 0.5 0 0 1 I I #
point $-1 34.832320151127732 -34.467678824231456 13.415999334271234 #
plane-surface $-1 58.369701223792234 0 0 -1 0 0 0 0 1 forward_v I I I I #
coedge $-1 $367 $365 $369 $514 reversed $241 $-1 #
edge $-1 $380 -15.651940967112715 $516 15.651940967112715 $379 $601 forward 7 unknown #
vertex $-1 $514 $602 #
straight-curve $-1 -58.369701223792234 -36.480929663149148 0 0 0 -1 I I #
edge $-1 $512 -36.480929663149148 $516 36.480929663149148 $510 $603 forward 7 unknown #
straight-curve $-1 0 -36.480929663149148 -15.651940967112715 -1 0 0 I I #
vertex $-1 $372 $604 #
straight-curve $-1 0 36.480929663149148 -15.651940967112715 1 0 0 I I #
point $-1 58.369701223792234 36.480929663149148 -15.651940967112715 #
point $-1 58.369701223792234 -36.480929663149148 -15.651940967112715 #
straight-curve $-1 -58.369701223792234 0 15.651940967112715 0 -1 0 I I #
point $-1 -58.369701223792234 36.480929663149148 15.651940967112715 #
point $-1 -58.369701223792234 -36.480929663149148 15.651940967112715 #
straight-curve $-1 58.369701223792234 -36.480929663149148 0 0 0 -1 I I #
straight-curve $-1 58.369701223792234 36.480929663149148 0 0 0 -1 I I #
plane-surface $-1 0 -36.480929663149148 0 0 1 0 0 0 1 forward_v I I I I #
coedge $-1 $605 $392 $402 $537 reversed $260 $-1 #
coedge $-1 $392 $605 $405 $539 forward $260 $-1 #
coedge $-1 $606 $395 $393 $529 forward $390 $-1 #
edge $-1 $530 47.41015168510306 $607 58.369701223792234 $393 $608 forward 7 unknown #
vertex $-1 $529 $609 #
straight-curve $-1 -47.41015168510306 36.480929663149148 6.5787400241862706 0 0 -1 I I #
coedge $-1 $395 $606 $397 $534 forward $390 $-1 #
straight-curve $-1 -47.41015168510306 0 15.651940967112715 0 1 0 I I #
edge $-1 $610 -58.369701223792234 $399 -47.41015168510306 $397 $611 forward 7 unknown #
point $-1 -47.41015168510306 -36.480929663149148 15.651940967112715 #
straight-curve $-1 -58.369701223792234 0 10.663019129632367 0 -1 0 I I #
edge $-1 $610 -15.651940967112715 $403 -10.663019129632367 $526 $612 forward 7 unknown #
point $-1 -58.369701223792234 -36.480929663149148 10.663019129632367 #
edge $-1 $607 -15.651940967112715 $406 -10.663019129632367 $405 $613 forward 7 unknown #
point $-1 -58.369701223792234 36.480929663149148 10.663019129632367 #
plane-surface $-1 58.369701223792234 0 0 -1 0 0 0 0 1 forward_v I I I I #
coedge $-1 $413 $424 $414 $544 reversed $276 $-1 #
coedge $-1 $415 $414 $428 $554 forward $167 $-1 #
edge $-1 $548 47.41015168510306 $557 58.369701223792234 $542 $614 forward 7 unknown #
coedge $-1 $426 $419 $415 $546 reversed $411 $-1 #
edge $-1 $555 -58.369701223792234 $547 -47.41015168510306 $545 $615 forward 7 unknown #
vertex $-1 $420 $616 #
vertex $-1 $544 $617 #
straight-curve $-1 47.41015168510306 0 15.651940967112715 0 -1 0 I I #
straight-curve $-1 47.41015168510306 -36.480929663149148 6.5787400241862706 0 0 -1 I I #
straight-curve $-1 47.41015168510306 36.480929663149148 6.5787400241862706 0 0 1 I I #
point $-1 47.41015168510306 -36.480929663149148 10.663019129632367 #
point $-1 47.41015168510306 36.480929663149148 10.663019129632367 #
edge $-1 $557 -36.480929663149148 $555 36.480929663149148 $428 $618 forward 7 unknown #
vertex $-1 $554 $619 #
straight-curve $-1 58.369701223792234 36.480929663149148 0 0 0 -1 I I #
vertex $-1 $554 $620 #
straight-curve $-1 58.369701223792234 -36.480929663149148 0 0 0 -1 I I #
edge $-1 $560 51.7649839221097 $563 65.560081598385779 $434 $621 forward 7 unknown #
vertex $-1 $448 $622 #
straight-curve $-1 -1.4210854715202004e-014 36.049428485899327 15.651940967112715 0 1 0 I I #
edge $-1 $563 -5.062585840589346 $445 15.187757521768066 $444 $623 forward 7 unknown #
vertex $-1 $562 $624 #
straight-curve $-1 -1.4210854715202004e-014 -13.27893809785752 55.217769789143148 0 -0.68199835119979291 0.73135370988377701 I I #
point $-1 -1.4210854715202004e-014 23.61679327782133 15.651940967112715 #
point $-1 -20.250343362357427 36.480929663149148 1.8568432908366361 #
straight-curve $-1 0 36.480929663149148 15.651940967112715 -1 0 0 I I #
vertex $-1 $451 $625 #
point $-1 -12.464530973112453 26.084012374860556 5.0571106228731662 #
vertex $-1 $455 $626 #
point $-1 -3.7858123892449882 26.084012374860556 5.0571106228731662 #
coedge $-1 $573 $461 $579 $627 reversed $318 $-1 #
coedge $-1 $461 $572 $464 $577 reversed $318 $-1 #
edge $-1 $575 -28.767661683140872 $469 -8.5173183207834597 $468 $628 forward 7 unknown #
vertex $-1 $627 $629 #
straight-curve $-1 47.410151685103038 -13.27893809785752 55.217769789143148 0 -0.68199835119979291 0.73135370988377701 I I #
edge $-1 $465 23.61679327782133 $581 36.480929663149148 $464 $630 forward 7 unknown #
point $-1 47.410151685103038 23.61679327782133 15.651940967112715 #
coedge $-1 $468 $467 $572 $627 forward $459 $-1 #
point $-1 27.159808322745626 36.480929663149148 1.8568432908366361 #
vertex $-1 $472 $631 #
straight-curve $-1 0 36.480929663149148 15.651940967112715 -1 0 0 I I #
vertex $-1 $475 $632 #
point $-1 34.9456207119906 26.084012374860556 5.0571106228731662 #
vertex $-1 $479 $633 #
point $-1 43.624339295858064 26.084012374860556 5.0571106228731662 #
coedge $-1 $494 $493 $486 $588 forward $483 $-1 #
edge $-1 $589 28.995040919625744 $592 33.466924185308706 $587 $634 forward 7 unknown #
vertex $-1 $498 $635 #
straight-curve $-1 22.998852999743328 -61.617606744068297 15.651940967112715 0 -1 0 I I #
edge $-1 $592 7.5327129968871276 $495 23.399567008825272 $494 $636 forward 7 unknown #
vertex $-1 $591 $637 #
straight-curve $-1 22.998852999743328 -36.480929663149141 11.18005770142976 0 0.66913059716165679 0.74314483375859142 I I #
point $-1 22.998852999743328 -32.454427985313771 15.651940967112715 #
point $-1 38.865707011681472 -36.480929663149148 11.180057701429753 #
straight-curve $-1 0 -36.480929663149148 15.651940967112715 1 0 0 I I #
vertex $-1 $501 $638 #
point $-1 28.032239860297096 -33.724533990472864 12.746868737109576 #
vertex $-1 $505 $639 #
point $-1 34.832320151127732 -33.724533990472864 12.746868737109576 #
straight-curve $-1 -58.369701223792234 36.480929663149148 0 0 0 -1 I I #
point $-1 -58.369701223792234 -36.480929663149148 -15.651940967112715 #
straight-curve $-1 -58.369701223792234 0 -15.651940967112715 0 1 0 I I #
point $-1 -58.369701223792234 36.480929663149148 -15.651940967112715 #
coedge $-1 $527 $526 $606 $640 reversed $260 $-1 #
coedge $-1 $532 $528 $605 $640 forward $390 $-1 #
vertex $-1 $529 $641 #
straight-curve $-1 0 36.480929663149148 15.651940967112715 -1 0 0 I I #
point $-1 -47.41015168510306 36.480929663149148 15.651940967112715 #
vertex $-1 $640 $642 #
straight-curve $-1 0 -36.480929663149148 15.651940967112715 1 0 0 I I #
straight-curve $-1 -58.369701223792234 -36.480929663149148 0 0 0 -1 I I #
straight-curve $-1 -58.369701223792234 36.480929663149148 0 0 0 -1 I I #
straight-curve $-1 0 -36.480929663149148 15.651940967112715 1 0 0 I I #
straight-curve $-1 0 36.480929663149148 15.651940967112715 -1 0 0 I I #
point $-1 47.41015168510306 36.480929663149148 15.651940967112715 #
point $-1 47.41015168510306 -36.480929663149148 15.651940967112715 #
straight-curve $-1 58.369701223792234 0 15.651940967112715 0 1 0 I I #
point $-1 58.369701223792234 36.480929663149148 15.651940967112715 #
point $-1 58.369701223792234 -36.480929663149148 15.651940967112715 #
straight-curve $-1 -1.4210854715202004e-014 36.480929663149148 67.416924889222415 0 0 -1 I I #
point $-1 -1.4210854715202004e-014 36.480929663149148 15.651940967112715 #
straight-curve $-1 -5.0625858405893602 36.480929663149155 1.8568432908366361 -1 0 0 I I #
point $-1 -1.4210854715202004e-014 36.480929663149148 1.8568432908366361 #
point $-1 -14.464530973112453 24.621304955093002 3.6931139204735803 #
point $-1 -5.7858123892449882 24.621304955093002 3.6931139204735803 #
edge $-1 $581 51.7649839221097 $575 65.560081598385779 $579 $643 forward 7 unknown #
straight-curve $-1 18.642490001962166 36.480929663149155 1.8568432908366361 -1 0 0 I I #
point $-1 47.410151685103038 36.480929663149148 1.8568432908366361 #
straight-curve $-1 47.41015168510306 0 15.651940967112715 0 1 0 I I #
point $-1 47.41015168510306 36.480929663149148 15.651940967112715 #
point $-1 32.9456207119906 24.621304955093002 3.6931139204735803 #
point $-1 41.624339295858064 24.621304955093002 3.6931139204735803 #
straight-curve $-1 22.998852999743328 -36.480929663149148 44.646981886738459 0 0 -1 I I #
point $-1 22.998852999743328 -36.480929663149148 15.651940967112715 #
straight-curve $-1 15.4661400028562 -36.480929663149148 11.180057701429744 1 0 0 I I #
point $-1 22.998852999743328 -36.480929663149148 11.180057701429753 #
point $-1 27.532239860297096 -33.352961573593575 12.412303438528749 #
point $-1 34.332320151127732 -33.352961573593575 12.412303438528749 #
edge $-1 $607 -36.480929663149148 $610 36.480929663149148 $605 $644 forward 7 unknown #
point $-1 -58.369701223792234 36.480929663149148 15.651940967112715 #
point $-1 -58.369701223792234 -36.480929663149148 15.651940967112715 #
straight-curve $-1 47.410151685103038 36.480929663149148 67.416924889222415 0 0 -1 I I #
straight-curve $-1 -58.369701223792234 0 15.651940967112715 0 -1 0 I I #
End-of-ACIS-data 