500 0 8 0           
7 Unknown 11 ACIS 5.0 NT 24 Fri Mar 26 17:13:20 1999 
-1 9.9999999999999995e-007 1e-010 
body $-1 $8 $-1 $9 #
body $-1 $10 $-1 $11 #
body $-1 $12 $-1 $13 #
body $-1 $14 $-1 $15 #
body $-1 $16 $-1 $17 #
body $-1 $18 $-1 $19 #
body $-1 $20 $-1 $21 #
body $-1 $22 $-1 $23 #
lump $-1 $-1 $24 $0 #
transform $-1 1 0 0 0 1 0 0 0 1 58.48078859828486 29.026046244372264 11.617416567921046 1 rotate no_reflect no_shear #
lump $-1 $-1 $25 $1 #
transform $-1 1 0 0 0 1 0 0 0 1 58.48078859828486 29.026046244372264 11.617416567921046 1 rotate no_reflect no_shear #
lump $-1 $-1 $26 $2 #
transform $-1 1 0 0 0 1 0 0 0 1 58.48078859828486 29.026046244372264 11.617416567921046 1 rotate no_reflect no_shear #
lump $-1 $-1 $27 $3 #
transform $-1 1 0 0 0 1 0 0 0 1 58.48078859828486 29.026046244372264 11.617416567921046 1 rotate no_reflect no_shear #
lump $-1 $-1 $28 $4 #
transform $-1 1 0 0 0 1 0 0 0 1 58.48078859828486 29.026046244372264 11.617416567921046 1 rotate no_reflect no_shear #
lump $-1 $-1 $29 $5 #
transform $-1 1 0 0 0 1 0 0 0 1 58.48078859828486 29.026046244372264 11.617416567921046 1 rotate no_reflect no_shear #
lump $-1 $-1 $30 $6 #
transform $-1 1 0 0 0 1 0 0 0 1 58.48078859828486 29.026046244372264 11.617416567921046 1 rotate no_reflect no_shear #
lump $-1 $-1 $31 $7 #
transform $-1 1 0 0 0 1 0 0 0 1 58.48078859828486 29.026046244372264 11.617416567921046 1 rotate no_reflect no_shear #
shell $-1 $-1 $-1 $32 $-1 $8 #
shell $-1 $-1 $-1 $33 $-1 $10 #
shell $-1 $-1 $-1 $34 $-1 $12 #
shell $-1 $-1 $-1 $35 $-1 $14 #
shell $-1 $-1 $-1 $36 $-1 $16 #
shell $-1 $-1 $-1 $37 $-1 $18 #
shell $-1 $-1 $-1 $38 $-1 $20 #
shell $-1 $-1 $-1 $39 $-1 $22 #
face $-1 $40 $41 $24 $-1 $42 forward single #
face $-1 $43 $44 $25 $-1 $45 forward single #
face $-1 $46 $47 $26 $-1 $48 forward single #
face $-1 $49 $50 $27 $-1 $51 reversed single #
face $-1 $52 $53 $28 $-1 $54 forward single #
face $-1 $55 $56 $29 $-1 $57 reversed single #
face $-1 $58 $59 $30 $-1 $60 forward single #
face $-1 $61 $62 $31 $-1 $63 forward single #
face $-1 $64 $65 $24 $-1 $66 reversed single #
loop $-1 $-1 $67 $32 #
plane-surface $-1 0 0 11.617416567921046 0 0 1 1 0 0 forward_v I I I I #
face $-1 $68 $69 $25 $-1 $70 reversed single #
loop $-1 $-1 $71 $33 #
plane-surface $-1 -53.333713230186646 0 7.1404269487603473 0 0 1 1 0 0 forward_v I I I I #
face $-1 $72 $73 $26 $-1 $74 reversed single #
loop $-1 $-1 $75 $34 #
plane-surface $-1 53.333713230186646 0 7.1404269487603473 0 0 1 1 0 0 forward_v I I I I #
face $-1 $76 $77 $27 $-1 $78 reversed single #
loop $-1 $-1 $79 $35 #
plane-surface $-1 -25.415227216033109 93.529271773542192 117.14178531004775 -1 0 0 0 0.82903758062907751 0.55919289150049634 forward_v I I I I #
face $-1 $80 $81 $28 $-1 $82 forward single #
loop $-1 $83 $84 $36 #
cone-surface $-1 -36.800932539060767 23.958400468316718 6.0171638157820304 0 -0.82903758062907751 -0.55919289150049634 1.5 0 0 1 I I 0 1 1.5 forward I I I I #
face $-1 $85 $86 $29 $-1 $87 reversed single #
loop $-1 $-1 $88 $37 #
plane-surface $-1 35.753288237997154 -29.026046244372267 5.7084763336068036 0 -0.83867057594974714 0.54463902268945019 1 0 0 forward_v I I I I #
face $-1 $89 $90 $30 $-1 $91 forward single #
loop $-1 $92 $93 $38 #
cone-surface $-1 30.424709827672316 -26.309928313428042 8.1450681576661381 0 0.83867057594974714 -0.54463902268945019 1 0 0 1 I I 0 1 1 forward I I I I #
face $-1 $94 $95 $31 $-1 $96 forward single #
loop $-1 $97 $98 $39 #
cone-surface $-1 41.081866648321991 -26.309928313428042 8.1450681576661381 0 0.83867057594974714 -0.54463902268945019 1 0 0 1 I I 0 1 1 forward I I I I #
face $-1 $99 $100 $24 $-1 $101 reversed single #
loop $-1 $-1 $102 $40 #
plane-surface $-1 0 0 -11.617416567921046 0 0 1 1 0 0 forward_v I I I I #
coedge $-1 $103 $104 $105 $106 forward $41 $-1 #
face $-1 $107 $108 $25 $-1 $109 reversed single #
loop $-1 $-1 $110 $43 #
plane-surface $-1 -53.333713230186646 0 0.34781740079525658 0 0 1 1 0 0 forward_v I I I I #
coedge $-1 $111 $112 $113 $114 forward $44 $-1 #
face $-1 $115 $116 $26 $-1 $117 reversed single #
loop $-1 $-1 $118 $46 #
plane-surface $-1 53.333713230186646 0 0.34781740079525658 0 0 1 1 0 0 forward_v I I I I #
coedge $-1 $119 $120 $121 $122 reversed $47 $-1 #
face $-1 $123 $124 $27 $-1 $125 forward single #
loop $-1 $-1 $126 $49 #
plane-surface $-1 -36.800932539060767 -3.4362712120630476 51.737702763039408 0 0.82903758062907751 0.55919289150049634 1 0 0 forward_v I I I I #
coedge $-1 $127 $128 $129 $130 reversed $50 $-1 #
face $-1 $-1 $131 $28 $-1 $132 forward single #
loop $-1 $133 $134 $52 #
cone-surface $-1 -36.800932539060767 20.969398288045017 4.0010564511205491 0 -0.82903758062907751 -0.55919289150049634 0.75 0 0 1 I I -0.70710678118654757 0.70710678118654757 0.75 forward I I I I #
loop $-1 $-1 $135 $36 #
coedge $-1 $84 $84 $136 $137 reversed $53 $-1 #
face $-1 $138 $139 $29 $-1 $140 forward single #
loop $-1 $-1 $141 $55 #
plane-surface $-1 23.319938613905876 -127.1182795558102 69.410315430163223 1 0 0 0 0.83867057594974714 -0.54463902268945019 forward_v I I I I #
coedge $-1 $142 $143 $144 $145 reversed $56 $-1 #
face $-1 $-1 $146 $30 $-1 $147 forward single #
loop $-1 $148 $149 $58 #
cone-surface $-1 30.424709827672316 -25.093130360733596 7.3548703532236264 0 0.83867057594974714 -0.54463902268945019 0.5 0 0 1 I I -0.70710678118654746 0.70710678118654746 0.5 forward I I I I #
loop $-1 $-1 $150 $38 #
coedge $-1 $93 $93 $151 $152 reversed $59 $-1 #
face $-1 $-1 $153 $31 $-1 $154 forward single #
loop $-1 $155 $156 $61 #
cone-surface $-1 41.081866648321991 -25.093130360733596 7.3548703532236264 0 0.83867057594974714 -0.54463902268945019 0.5 0 0 1 I I -0.70710678118654746 0.70710678118654746 0.5 forward I I I I #
loop $-1 $-1 $157 $39 #
coedge $-1 $98 $98 $158 $159 reversed $62 $-1 #
face $-1 $160 $161 $24 $-1 $162 reversed single #
loop $-1 $-1 $163 $64 #
plane-surface $-1 0 -29.026046244372264 0 0 1 0 0 0 1 forward_v I I I I #
coedge $-1 $164 $165 $166 $167 forward $65 $-1 #
coedge $-1 $168 $67 $169 $170 forward $41 $-1 #
coedge $-1 $67 $168 $171 $172 forward $41 $-1 #
coedge $-1 $173 $174 $67 $106 reversed $175 $-1 #
edge $-1 $176 -29.026046244372264 $177 29.026046244372264 $105 $178 forward 7 unknown #
face $-1 $179 $180 $25 $-1 $181 reversed single #
loop $-1 $-1 $113 $68 #
plane-surface $-1 -48.186637862088432 0 3.744122174777802 -1 0 0 0 0 1 forward_v I I I I #
coedge $-1 $182 $183 $184 $185 forward $69 $-1 #
coedge $-1 $186 $71 $187 $188 reversed $44 $-1 #
coedge $-1 $71 $186 $189 $190 reversed $44 $-1 #
coedge $-1 $191 $192 $71 $114 reversed $108 $-1 #
edge $-1 $193 -29.026046244372264 $194 29.026046244372264 $113 $195 forward 7 unknown #
face $-1 $196 $197 $26 $-1 $198 reversed single #
loop $-1 $-1 $199 $72 #
plane-surface $-1 48.186637862088432 0 3.744122174777802 1 0 0 0 0 -1 forward_v I I I I #
coedge $-1 $200 $201 $202 $203 reversed $73 $-1 #
coedge $-1 $204 $75 $205 $206 reversed $47 $-1 #
coedge $-1 $75 $204 $207 $208 reversed $47 $-1 #
coedge $-1 $209 $210 $75 $122 forward $211 $-1 #
edge $-1 $212 -29.026046244372264 $213 29.026046244372264 $121 $214 forward 7 unknown #
face $-1 $215 $216 $27 $-1 $217 reversed single #
loop $-1 $-1 $218 $76 #
plane-surface $-1 0 0 11.617416567921046 0 0 1 1 0 0 forward_v I I I I #
coedge $-1 $219 $220 $221 $222 reversed $77 $-1 #
coedge $-1 $128 $79 $223 $224 reversed $50 $-1 #
coedge $-1 $79 $127 $219 $225 reversed $50 $-1 #
coedge $-1 $221 $226 $79 $130 forward $216 $-1 #
edge $-1 $227 46.953476087102828 $228 54.960556199308705 $129 $229 forward 7 unknown #
loop $-1 $-1 $136 $80 #
plane-surface $-1 -36.800932539060767 -3.4362712120630476 51.737702763039408 0 0.82903758062907751 0.55919289150049634 1 0 0 forward_v I I I I #
loop $-1 $-1 $230 $52 #
coedge $-1 $134 $134 $135 $231 reversed $81 $-1 #
coedge $-1 $135 $135 $134 $231 forward $83 $-1 #
coedge $-1 $136 $136 $84 $137 forward $131 $-1 #
edge $-1 $232 -1.0203815446624646e-016 $232 6.2831853071796004 $136 $233 forward 7 unknown #
face $-1 $234 $235 $29 $-1 $236 reversed single #
loop $-1 $-1 $237 $85 #
plane-surface $-1 0 0 11.617416567921046 0 0 1 1 0 0 forward_v I I I I #
coedge $-1 $238 $239 $240 $241 reversed $86 $-1 #
coedge $-1 $242 $88 $243 $244 forward $56 $-1 #
coedge $-1 $88 $242 $238 $245 forward $56 $-1 #
coedge $-1 $240 $237 $88 $145 forward $139 $-1 #
edge $-1 $246 -30.309993743089855 $247 -5.443294494907299 $144 $248 forward 7 unknown #
loop $-1 $-1 $151 $89 #
plane-surface $-1 35.753288237997154 -29.026046244372267 5.7084763336068036 0 -0.83867057594974714 0.54463902268945019 1 0 0 forward_v I I I I #
loop $-1 $-1 $249 $58 #
coedge $-1 $149 $149 $150 $250 reversed $90 $-1 #
coedge $-1 $150 $150 $149 $250 forward $92 $-1 #
coedge $-1 $151 $151 $93 $152 forward $146 $-1 #
edge $-1 $251 2.3801147982426114e-015 $251 6.2831853071796031 $151 $252 forward 7 unknown #
loop $-1 $-1 $158 $94 #
plane-surface $-1 35.753288237997154 -29.026046244372267 5.7084763336068036 0 -0.83867057594974714 0.54463902268945019 1 0 0 forward_v I I I I #
loop $-1 $-1 $253 $61 #
coedge $-1 $156 $156 $157 $254 reversed $95 $-1 #
coedge $-1 $157 $157 $156 $254 forward $97 $-1 #
coedge $-1 $158 $158 $98 $159 forward $153 $-1 #
edge $-1 $255 2.3801147982426114e-015 $255 6.2831853071796031 $158 $256 forward 7 unknown #
face $-1 $257 $258 $24 $-1 $259 reversed single #
loop $-1 $-1 $260 $99 #
plane-surface $-1 -58.48078859828486 0 0 1 0 0 0 0 -1 forward_v I I I I #
coedge $-1 $261 $171 $262 $263 forward $100 $-1 #
coedge $-1 $264 $102 $261 $265 forward $65 $-1 #
coedge $-1 $102 $264 $266 $267 forward $65 $-1 #
coedge $-1 $174 $173 $102 $167 reversed $175 $-1 #
edge $-1 $268 -29.026046244372264 $269 29.026046244372264 $166 $270 forward 7 unknown #
coedge $-1 $104 $103 $271 $272 forward $41 $-1 #
coedge $-1 $273 $274 $103 $170 reversed $258 $-1 #
edge $-1 $177 -58.48078859828486 $275 58.48078859828486 $169 $276 forward 7 unknown #
coedge $-1 $163 $277 $104 $172 reversed $100 $-1 #
edge $-1 $278 -58.48078859828486 $176 58.48078859828486 $171 $279 forward 7 unknown #
coedge $-1 $166 $105 $277 $280 forward $175 $-1 #
coedge $-1 $105 $166 $273 $281 reversed $175 $-1 #
loop $-1 $-1 $173 $257 #
vertex $-1 $106 $282 #
vertex $-1 $106 $283 #
straight-curve $-1 58.48078859828486 0 11.617416567921046 0 1 0 I I #
face $-1 $284 $285 $25 $-1 $286 reversed single #
loop $-1 $-1 $287 $107 #
plane-surface $-1 0 -29.026046244372264 0 0 1 0 0 0 1 forward_v I I I I #
coedge $-1 $288 $110 $287 $289 reversed $69 $-1 #
coedge $-1 $110 $288 $290 $291 reversed $69 $-1 #
coedge $-1 $192 $191 $110 $185 reversed $108 $-1 #
edge $-1 $292 -29.026046244372264 $293 29.026046244372264 $184 $294 forward 7 unknown #
coedge $-1 $112 $111 $295 $296 reversed $44 $-1 #
coedge $-1 $297 $298 $111 $188 forward $299 $-1 #
edge $-1 $300 -31.813931983191537 $194 -21.519781246995109 $187 $301 forward 7 unknown #
coedge $-1 $302 $303 $112 $190 forward $180 $-1 #
edge $-1 $193 21.519781246995109 $304 31.813931983191537 $189 $305 forward 7 unknown #
coedge $-1 $184 $113 $303 $306 reversed $108 $-1 #
coedge $-1 $113 $184 $297 $307 reversed $108 $-1 #
vertex $-1 $190 $308 #
vertex $-1 $188 $309 #
straight-curve $-1 -48.186637862088432 0 7.1404269487603473 0 1 0 I I #
face $-1 $310 $311 $26 $-1 $312 reversed single #
loop $-1 $-1 $207 $115 #
plane-surface $-1 0 -29.026046244372264 0 0 1 0 0 0 1 forward_v I I I I #
coedge $-1 $313 $314 $204 $315 reversed $116 $-1 #
coedge $-1 $316 $118 $317 $318 reversed $73 $-1 #
coedge $-1 $118 $316 $319 $320 reversed $73 $-1 #
coedge $-1 $210 $209 $118 $203 forward $211 $-1 #
edge $-1 $321 -29.026046244372264 $322 29.026046244372264 $202 $323 forward 7 unknown #
coedge $-1 $120 $119 $199 $315 forward $47 $-1 #
coedge $-1 $324 $325 $119 $206 forward $311 $-1 #
edge $-1 $326 21.519781246995109 $212 31.813931983191537 $205 $327 forward 7 unknown #
coedge $-1 $328 $329 $120 $208 forward $197 $-1 #
edge $-1 $213 -31.813931983191537 $330 -21.519781246995109 $207 $331 forward 7 unknown #
coedge $-1 $202 $121 $329 $332 forward $211 $-1 #
coedge $-1 $121 $202 $324 $333 reversed $211 $-1 #
loop $-1 $-1 $121 $310 #
vertex $-1 $333 $334 #
vertex $-1 $332 $335 #
straight-curve $-1 58.48078859828486 0 7.1404269487603473 0 -1 0 I I #
face $-1 $-1 $336 $27 $-1 $337 forward single #
loop $-1 $-1 $338 $123 #
plane-surface $-1 0 29.026046244372264 0 0 -1 0 0 0 -1 forward_v I I I I #
coedge $-1 $339 $340 $341 $342 forward $124 $-1 #
coedge $-1 $343 $126 $128 $225 forward $77 $-1 #
coedge $-1 $126 $343 $344 $345 forward $77 $-1 #
coedge $-1 $338 $129 $126 $222 forward $216 $-1 #
edge $-1 $228 7.0147609465027259 $346 29.786171592558041 $221 $347 forward 7 unknown #
coedge $-1 $340 $339 $127 $224 forward $124 $-1 #
edge $-1 $348 -23.139433204910155 $227 -17.738589642398832 $223 $349 forward 7 unknown #
edge $-1 $228 -58.052092488744563 $348 -48.393808836355653 $128 $350 forward 7 unknown #
coedge $-1 $129 $338 $340 $351 reversed $216 $-1 #
vertex $-1 $351 $352 #
vertex $-1 $130 $353 #
straight-curve $-1 -25.415227216033109 29.026046244372267 58.570892655023876 0 0 -1 I I #
coedge $-1 $230 $230 $-1 $354 reversed $133 $-1 #
edge $-1 $355 0 $355 6.2831853071796004 $134 $356 forward 7 unknown #
vertex $-1 $137 $357 #
ellipse-curve $-1 -36.800932539060767 26.325624463116597 7.6138765118181304 0 0.82903758062907751 0.55919289150049634 1.5 0 0 1 I I #
face $-1 $-1 $358 $29 $-1 $359 forward single #
loop $-1 $-1 $360 $138 #
plane-surface $-1 0 -29.026046244372264 0 0 1 0 0 0 1 forward_v I I I I #
coedge $-1 $144 $361 $362 $363 forward $139 $-1 #
coedge $-1 $239 $141 $143 $245 reversed $86 $-1 #
coedge $-1 $141 $238 $364 $365 reversed $86 $-1 #
coedge $-1 $361 $144 $141 $241 forward $139 $-1 #
edge $-1 $247 -38.370404065982129 $366 -34.533093533532835 $240 $367 forward 7 unknown #
coedge $-1 $143 $142 $368 $369 reversed $56 $-1 #
coedge $-1 $362 $370 $142 $244 reversed $358 $-1 #
edge $-1 $246 -7.0456033677140768 $371 -6.4042811466935879e-015 $243 $372 forward 7 unknown #
edge $-1 $373 6.4042811466935879e-015 $247 7.0456033677140768 $238 $374 forward 7 unknown #
vertex $-1 $145 $375 #
vertex $-1 $145 $376 #
straight-curve $-1 17.876644118998577 -25.188735711922973 11.617416567921046 -1 0 0 I I #
coedge $-1 $249 $249 $-1 $377 reversed $148 $-1 #
edge $-1 $378 0 $378 6.2831853071796004 $149 $379 forward 7 unknown #
vertex $-1 $152 $380 #
ellipse-curve $-1 30.424709827672316 -27.10739097814762 8.6629464507639273 0 -0.83867057594974714 0.54463902268945019 1 0 0 1 I I #
coedge $-1 $253 $253 $-1 $381 reversed $155 $-1 #
edge $-1 $382 0 $382 6.2831853071796004 $156 $383 forward 7 unknown #
vertex $-1 $159 $384 #
ellipse-curve $-1 41.081866648321991 -27.10739097814762 8.6629464507639273 0 -0.83867057594974714 0.54463902268945019 1 0 0 1 I I #
face $-1 $-1 $175 $24 $-1 $385 reversed single #
loop $-1 $-1 $273 $160 #
plane-surface $-1 0 29.026046244372264 0 0 -1 0 0 0 -1 forward_v I I I I #
coedge $-1 $386 $271 $274 $387 forward $161 $-1 #
coedge $-1 $277 $163 $164 $265 reversed $100 $-1 #
coedge $-1 $271 $386 $163 $263 reversed $161 $-1 #
edge $-1 $278 -11.617416567921046 $388 11.617416567921046 $262 $389 forward 7 unknown #
coedge $-1 $165 $164 $386 $390 forward $65 $-1 #
edge $-1 $269 -58.48078859828486 $388 58.48078859828486 $261 $391 forward 7 unknown #
coedge $-1 $274 $273 $165 $267 reversed $258 $-1 #
edge $-1 $392 -58.48078859828486 $268 58.48078859828486 $266 $393 forward 7 unknown #
vertex $-1 $167 $394 #
vertex $-1 $280 $395 #
straight-curve $-1 58.48078859828486 0 -11.617416567921046 0 -1 0 I I #
coedge $-1 $260 $262 $168 $272 reversed $161 $-1 #
edge $-1 $275 -29.026046244372264 $278 29.026046244372264 $271 $396 forward 7 unknown #
coedge $-1 $266 $169 $174 $281 forward $258 $-1 #
coedge $-1 $169 $266 $260 $387 reversed $258 $-1 #
vertex $-1 $170 $397 #
straight-curve $-1 0 29.026046244372264 11.617416567921046 -1 0 0 I I #
coedge $-1 $171 $261 $173 $280 reversed $100 $-1 #
vertex $-1 $272 $398 #
straight-curve $-1 0 -29.026046244372264 11.617416567921046 1 0 0 I I #
edge $-1 $176 -11.617416567921046 $269 11.617416567921046 $173 $399 forward 7 unknown #
edge $-1 $177 -11.617416567921046 $268 11.617416567921046 $174 $400 forward 7 unknown #
point $-1 58.48078859828486 -29.026046244372264 11.617416567921046 #
point $-1 58.48078859828486 29.026046244372264 11.617416567921046 #
face $-1 $-1 $299 $25 $-1 $401 reversed single #
loop $-1 $-1 $402 $179 #
plane-surface $-1 -58.48078859828486 0 0 1 0 0 0 0 -1 forward_v I I I I #
coedge $-1 $303 $302 $182 $289 forward $180 $-1 #
coedge $-1 $183 $182 $402 $403 reversed $69 $-1 #
edge $-1 $404 -31.813931983191537 $293 -21.519781246995109 $287 $405 forward 7 unknown #
coedge $-1 $298 $297 $183 $291 forward $299 $-1 #
edge $-1 $292 21.519781246995109 $406 31.813931983191537 $290 $407 forward 7 unknown #
vertex $-1 $291 $408 #
vertex $-1 $289 $409 #
straight-curve $-1 -48.186637862088432 0 0.34781740079525658 0 -1 0 I I #
coedge $-1 $410 $411 $186 $296 forward $285 $-1 #
edge $-1 $304 -29.026046244372264 $300 29.026046244372264 $295 $412 forward 7 unknown #
coedge $-1 $290 $187 $192 $307 forward $299 $-1 #
coedge $-1 $187 $290 $410 $413 reversed $299 $-1 #
loop $-1 $-1 $290 $284 #
vertex $-1 $413 $414 #
straight-curve $-1 -26.666856615093323 29.026046244372264 7.1404269487603473 1 0 0 I I #
coedge $-1 $287 $189 $411 $415 forward $180 $-1 #
coedge $-1 $189 $287 $191 $306 forward $180 $-1 #
vertex $-1 $415 $416 #
straight-curve $-1 -26.666856615093323 -29.026046244372264 7.1404269487603473 -1 0 0 I I #
edge $-1 $293 -1.5242436865936444 $193 5.2683658613714464 $303 $417 forward 7 unknown #
edge $-1 $194 -5.2683658613714464 $292 1.5242436865936444 $297 $418 forward 7 unknown #
point $-1 -48.186637862088432 -29.026046244372264 7.1404269487603473 #
point $-1 -48.186637862088432 29.026046244372264 7.1404269487603473 #
face $-1 $-1 $211 $26 $-1 $419 reversed single #
loop $-1 $-1 $205 $196 #
plane-surface $-1 0 29.026046244372264 0 0 -1 0 0 0 -1 forward_v I I I I #
coedge $-1 $420 $199 $325 $421 reversed $116 $-1 #
coedge $-1 $199 $420 $328 $422 reversed $116 $-1 #
edge $-1 $326 -29.026046244372264 $330 29.026046244372264 $199 $423 forward 7 unknown #
coedge $-1 $201 $200 $420 $424 forward $73 $-1 #
coedge $-1 $329 $328 $200 $318 forward $197 $-1 #
edge $-1 $425 21.519781246995109 $321 31.813931983191537 $317 $426 forward 7 unknown #
coedge $-1 $325 $324 $201 $320 forward $311 $-1 #
edge $-1 $322 -31.813931983191537 $427 -21.519781246995109 $319 $428 forward 7 unknown #
vertex $-1 $203 $429 #
vertex $-1 $203 $430 #
straight-curve $-1 58.48078859828486 0 0.34781740079525658 0 1 0 I I #
coedge $-1 $319 $205 $210 $333 forward $311 $-1 #
coedge $-1 $205 $319 $313 $421 forward $311 $-1 #
vertex $-1 $206 $431 #
straight-curve $-1 26.666856615093323 29.026046244372264 7.1404269487603473 1 0 0 I I #
coedge $-1 $317 $207 $314 $422 forward $197 $-1 #
coedge $-1 $207 $317 $209 $332 reversed $197 $-1 #
vertex $-1 $208 $432 #
straight-curve $-1 26.666856615093323 -29.026046244372264 7.1404269487603473 -1 0 0 I I #
edge $-1 $213 -7.1404269487603473 $321 -0.34781740079525658 $209 $433 forward 7 unknown #
edge $-1 $212 -7.1404269487603473 $322 -0.34781740079525658 $210 $434 forward 7 unknown #
point $-1 58.48078859828486 29.026046244372264 7.1404269487603473 #
point $-1 58.48078859828486 -29.026046244372264 7.1404269487603473 #
loop $-1 $-1 $344 $215 #
plane-surface $-1 -48.186637862088432 0 3.744122174777802 -1 0 0 0 0 1 forward_v I I I I #
coedge $-1 $226 $221 $435 $436 forward $216 $-1 #
coedge $-1 $223 $218 $343 $437 forward $124 $-1 #
coedge $-1 $218 $223 $226 $351 forward $124 $-1 #
coedge $-1 $435 $344 $218 $342 reversed $336 $-1 #
edge $-1 $438 17.738589642398832 $439 23.139433204910155 $218 $440 forward 7 unknown #
coedge $-1 $220 $219 $339 $437 reversed $77 $-1 #
coedge $-1 $341 $435 $220 $345 reversed $336 $-1 #
edge $-1 $439 48.393808836355653 $346 58.052092488744563 $344 $441 forward 7 unknown #
vertex $-1 $436 $442 #
straight-curve $-1 -18.400466269530384 29.026046244372267 3.6103364557151743 -1 0 0 I I #
vertex $-1 $224 $443 #
straight-curve $-1 -25.415227216033109 46.764635886771096 11.617416567921047 0 1 0 I I #
straight-curve $-1 -25.415227216033109 -3.4362712120630476 51.737702763039408 0 -0.55919289150049634 0.82903758062907751 I I #
edge $-1 $227 25.415227216033109 $438 48.186637862088425 $226 $444 forward 7 unknown #
point $-1 -25.415227216033109 29.026046244372264 11.617416567921046 #
point $-1 -25.415227216033109 29.026046244372267 3.6103364557151707 #
edge $-1 $445 1 $445 0 $230 $-1 forward 7 unknown #
vertex $-1 $231 $446 #
ellipse-curve $-1 -36.800932539060767 21.591176473516825 4.4204511197459215 0 0.82903758062907751 0.55919289150049634 1.5 0 0 1 I I #
point $-1 -35.300932539060767 26.325624463116611 7.6138765118181402 #
loop $-1 $-1 $243 $234 #
plane-surface $-1 48.186637862088432 0 3.744122174777802 1 0 0 0 0 -1 forward_v I I I I #
coedge $-1 $447 $368 $370 $448 forward $235 $-1 #
coedge $-1 $237 $240 $447 $449 forward $139 $-1 #
coedge $-1 $370 $243 $237 $363 reversed $358 $-1 #
edge $-1 $450 34.533093533532835 $246 38.370404065982129 $237 $451 forward 7 unknown #
coedge $-1 $368 $447 $239 $365 forward $235 $-1 #
edge $-1 $366 23.087741147160564 $373 28.996681381474801 $364 $452 forward 7 unknown #
vertex $-1 $449 $453 #
straight-curve $-1 23.319938613905876 -63.559139777905102 11.617416567921047 0 -1 0 I I #
coedge $-1 $360 $364 $242 $369 forward $235 $-1 #
edge $-1 $373 5.443294494907299 $371 30.309993743089855 $368 $454 forward 7 unknown #
coedge $-1 $243 $362 $360 $448 reversed $358 $-1 #
vertex $-1 $448 $455 #
straight-curve $-1 48.186637862088432 -29.026046244372267 5.7084763336068036 0 -0.54463902268945019 -0.83867057594974714 I I #
vertex $-1 $369 $456 #
straight-curve $-1 23.319938613905876 -29.026046244372267 5.7084763336068036 0 0.54463902268945019 0.83867057594974714 I I #
point $-1 48.186637862088432 -25.188735711922973 11.617416567921046 #
point $-1 23.319938613905876 -25.188735711922973 11.617416567921046 #
edge $-1 $457 1 $457 0 $249 $-1 forward 7 unknown #
vertex $-1 $250 $458 #
ellipse-curve $-1 30.424709827672316 -25.512465648708471 7.6271898645683516 0 -0.83867057594974714 0.54463902268945019 1 0 0 1 I I #
point $-1 31.424709827672316 -27.107390978147613 8.6629464507639256 #
edge $-1 $459 1 $459 0 $253 $-1 forward 7 unknown #
vertex $-1 $254 $460 #
ellipse-curve $-1 41.081866648321991 -25.512465648708471 7.6271898645683516 0 -0.83867057594974714 0.54463902268945019 1 0 0 1 I I #
point $-1 42.081866648321991 -27.107390978147613 8.6629464507639256 #
plane-surface $-1 58.48078859828486 0 0 -1 0 0 0 0 1 forward_v I I I I #
coedge $-1 $262 $260 $264 $390 reversed $161 $-1 #
edge $-1 $275 -11.617416567921046 $392 11.617416567921046 $274 $461 forward 7 unknown #
vertex $-1 $390 $462 #
straight-curve $-1 -58.48078859828486 -29.026046244372264 0 0 0 -1 I I #
edge $-1 $388 -29.026046244372264 $392 29.026046244372264 $386 $463 forward 7 unknown #
straight-curve $-1 0 -29.026046244372264 -11.617416567921046 -1 0 0 I I #
vertex $-1 $267 $464 #
straight-curve $-1 0 29.026046244372264 -11.617416567921046 1 0 0 I I #
point $-1 58.48078859828486 29.026046244372264 -11.617416567921046 #
point $-1 58.48078859828486 -29.026046244372264 -11.617416567921046 #
straight-curve $-1 -58.48078859828486 0 11.617416567921046 0 -1 0 I I #
point $-1 -58.48078859828486 29.026046244372264 11.617416567921046 #
point $-1 -58.48078859828486 -29.026046244372264 11.617416567921046 #
straight-curve $-1 58.48078859828486 -29.026046244372264 0 0 0 -1 I I #
straight-curve $-1 58.48078859828486 29.026046244372264 0 0 0 -1 I I #
plane-surface $-1 0 29.026046244372264 0 0 -1 0 0 0 -1 forward_v I I I I #
coedge $-1 $411 $410 $288 $403 forward $285 $-1 #
edge $-1 $406 -29.026046244372264 $404 29.026046244372264 $402 $465 forward 7 unknown #
vertex $-1 $289 $466 #
straight-curve $-1 -26.666856615093323 -29.026046244372264 0.34781740079525658 1 0 0 I I #
vertex $-1 $291 $467 #
straight-curve $-1 -26.666856615093323 29.026046244372264 0.34781740079525658 -1 0 0 I I #
point $-1 -48.186637862088432 29.026046244372264 0.34781740079525658 #
point $-1 -48.186637862088432 -29.026046244372264 0.34781740079525658 #
coedge $-1 $402 $295 $298 $413 forward $285 $-1 #
coedge $-1 $295 $402 $302 $415 reversed $285 $-1 #
straight-curve $-1 -58.48078859828486 0 7.1404269487603473 0 1 0 I I #
edge $-1 $300 -7.1404269487603473 $406 -0.34781740079525658 $298 $468 forward 7 unknown #
point $-1 -58.48078859828486 29.026046244372264 7.1404269487603473 #
edge $-1 $304 -7.1404269487603473 $404 -0.34781740079525658 $411 $469 forward 7 unknown #
point $-1 -58.48078859828486 -29.026046244372264 7.1404269487603473 #
straight-curve $-1 -48.186637862088432 -29.026046244372264 1.872061087388901 0 0 1 I I #
straight-curve $-1 -48.186637862088432 29.026046244372264 1.872061087388901 0 0 -1 I I #
plane-surface $-1 58.48078859828486 0 0 -1 0 0 0 0 1 forward_v I I I I #
coedge $-1 $314 $313 $316 $424 reversed $116 $-1 #
edge $-1 $427 -1.5242436865936444 $326 5.2683658613714464 $325 $470 forward 7 unknown #
edge $-1 $330 -5.2683658613714464 $425 1.5242436865936444 $328 $471 forward 7 unknown #
straight-curve $-1 48.186637862088432 0 7.1404269487603473 0 -1 0 I I #
edge $-1 $425 -29.026046244372264 $427 29.026046244372264 $420 $472 forward 7 unknown #
vertex $-1 $318 $473 #
straight-curve $-1 26.666856615093323 -29.026046244372264 0.34781740079525658 1 0 0 I I #
vertex $-1 $320 $474 #
straight-curve $-1 26.666856615093323 29.026046244372264 0.34781740079525658 -1 0 0 I I #
point $-1 58.48078859828486 -29.026046244372264 0.34781740079525658 #
point $-1 58.48078859828486 29.026046244372264 0.34781740079525658 #
point $-1 48.186637862088432 29.026046244372264 7.1404269487603473 #
point $-1 48.186637862088432 -29.026046244372264 7.1404269487603473 #
straight-curve $-1 58.48078859828486 -29.026046244372264 0 0 0 -1 I I #
straight-curve $-1 58.48078859828486 29.026046244372264 0 0 0 -1 I I #
coedge $-1 $344 $341 $338 $436 reversed $336 $-1 #
edge $-1 $346 -54.960556199308705 $438 -46.953476087102828 $338 $475 forward 7 unknown #
edge $-1 $439 -29.786171592558041 $348 -7.0147609465027259 $339 $476 forward 7 unknown #
vertex $-1 $436 $477 #
vertex $-1 $342 $478 #
straight-curve $-1 -48.186637862088425 46.764635886771096 11.617416567921047 0 -1 0 I I #
straight-curve $-1 -48.186637862088425 -3.4362712120630476 51.737702763039408 0 0.55919289150049634 -0.82903758062907751 I I #
point $-1 -48.186637862088425 29.026046244372267 3.6103364557151707 #
point $-1 -25.415227216033109 23.625202681860941 11.617416567921047 #
straight-curve $-1 0 29.026046244372264 11.617416567921046 -1 0 0 I I #
vertex $-1 $354 $479 #
point $-1 -35.300932539060767 21.591176473516825 4.4204511197459215 #
coedge $-1 $364 $360 $361 $449 reversed $235 $-1 #
edge $-1 $371 -28.996681381474801 $450 -23.087741147160564 $360 $480 forward 7 unknown #
edge $-1 $366 23.319938613905876 $450 48.186637862088432 $447 $481 forward 7 unknown #
vertex $-1 $448 $482 #
straight-curve $-1 48.186637862088432 -63.559139777905102 11.617416567921047 0 1 0 I I #
straight-curve $-1 23.319938613905876 -29.026046244372267 34.705157715081612 0 0 -1 I I #
point $-1 23.319938613905876 -29.026046244372264 11.617416567921046 #
straight-curve $-1 17.876644118998577 -29.026046244372264 5.7084763336068134 1 0 0 I I #
point $-1 48.186637862088432 -29.026046244372264 5.708476333606809 #
point $-1 23.319938613905876 -29.026046244372264 5.708476333606809 #
vertex $-1 $377 $483 #
point $-1 31.424709827672316 -25.512465648708471 7.6271898645683516 #
vertex $-1 $381 $484 #
point $-1 42.081866648321991 -25.512465648708471 7.6271898645683516 #
straight-curve $-1 -58.48078859828486 29.026046244372264 0 0 0 -1 I I #
point $-1 -58.48078859828486 -29.026046244372264 -11.617416567921046 #
straight-curve $-1 -58.48078859828486 0 -11.617416567921046 0 1 0 I I #
point $-1 -58.48078859828486 29.026046244372264 -11.617416567921046 #
straight-curve $-1 -58.48078859828486 0 0.34781740079525658 0 -1 0 I I #
point $-1 -58.48078859828486 -29.026046244372264 0.34781740079525658 #
point $-1 -58.48078859828486 29.026046244372264 0.34781740079525658 #
straight-curve $-1 -58.48078859828486 29.026046244372264 0 0 0 -1 I I #
straight-curve $-1 -58.48078859828486 -29.026046244372264 0 0 0 -1 I I #
straight-curve $-1 48.186637862088432 29.026046244372264 1.872061087388901 0 0 1 I I #
straight-curve $-1 48.186637862088432 -29.026046244372264 1.872061087388901 0 0 -1 I I #
straight-curve $-1 48.186637862088432 0 0.34781740079525658 0 1 0 I I #
point $-1 48.186637862088432 -29.026046244372264 0.34781740079525658 #
point $-1 48.186637862088432 29.026046244372264 0.34781740079525658 #
straight-curve $-1 -48.186637862088425 29.026046244372267 58.570892655023876 0 0 1 I I #
straight-curve $-1 -18.400466269530384 23.625202681860941 11.617416567921051 1 0 0 I I #
point $-1 -48.186637862088425 29.026046244372264 11.617416567921046 #
point $-1 -48.186637862088425 23.625202681860941 11.617416567921047 #
point $-1 -36.800932539060767 20.34762010257321 3.5816617824951766 #
straight-curve $-1 48.186637862088432 -29.026046244372267 34.705157715081612 0 0 1 I I #
straight-curve $-1 0 -29.026046244372264 11.617416567921046 1 0 0 I I #
point $-1 48.186637862088432 -29.026046244372264 11.617416567921046 #
point $-1 30.424709827672316 -24.673795072758722 7.0825508418789012 #
point $-1 41.081866648321991 -24.673795072758722 7.0825508418789012 #
End-of-ACIS-data 