500 0 9 0           
7 Unknown 11 ACIS 5.0 NT 24 Fri Mar 26 01:39:53 1999 
-1 9.9999999999999995e-007 1e-010 
body $-1 $9 $-1 $10 #
body $-1 $11 $-1 $12 #
body $-1 $13 $-1 $14 #
body $-1 $15 $-1 $16 #
body $-1 $17 $-1 $18 #
body $-1 $19 $-1 $20 #
body $-1 $21 $-1 $22 #
body $-1 $23 $-1 $24 #
body $-1 $25 $-1 $26 #
lump $-1 $-1 $27 $0 #
transform $-1 1 0 0 0 1 0 0 0 1 51.59825434125797 34.768628703506735 16.724106191735 1 rotate no_reflect no_shear #
lump $-1 $-1 $28 $1 #
transform $-1 1 0 0 0 1 0 0 0 1 51.59825434125797 34.768628703506735 16.724106191735 1 rotate no_reflect no_shear #
lump $-1 $-1 $29 $2 #
transform $-1 1 0 0 0 1 0 0 0 1 51.59825434125797 34.768628703506735 16.724106191735 1 rotate no_reflect no_shear #
lump $-1 $-1 $30 $3 #
transform $-1 1 0 0 0 1 0 0 0 1 51.59825434125797 34.768628703506735 16.724106191735 1 rotate no_reflect no_shear #
lump $-1 $-1 $31 $4 #
transform $-1 1 0 0 0 1 0 0 0 1 51.59825434125797 34.768628703506735 16.724106191735 1 rotate no_reflect no_shear #
lump $-1 $-1 $32 $5 #
transform $-1 1 0 0 0 1 0 0 0 1 51.59825434125797 34.768628703506735 16.724106191735 1 rotate no_reflect no_shear #
lump $-1 $-1 $33 $6 #
transform $-1 1 0 0 0 1 0 0 0 1 51.59825434125797 34.768628703506735 16.724106191735 1 rotate no_reflect no_shear #
lump $-1 $-1 $34 $7 #
transform $-1 1 0 0 0 1 0 0 0 1 51.59825434125797 34.768628703506735 16.724106191735 1 rotate no_reflect no_shear #
lump $-1 $-1 $35 $8 #
transform $-1 1 0 0 0 1 0 0 0 1 51.59825434125797 34.768628703506735 16.724106191735 1 rotate no_reflect no_shear #
shell $-1 $-1 $-1 $36 $-1 $9 #
shell $-1 $-1 $-1 $37 $-1 $11 #
shell $-1 $-1 $-1 $38 $-1 $13 #
shell $-1 $-1 $-1 $39 $-1 $15 #
shell $-1 $-1 $-1 $40 $-1 $17 #
shell $-1 $-1 $-1 $41 $-1 $19 #
shell $-1 $-1 $-1 $42 $-1 $21 #
shell $-1 $-1 $-1 $43 $-1 $23 #
shell $-1 $-1 $-1 $44 $-1 $25 #
face $-1 $45 $46 $27 $-1 $47 forward single #
face $-1 $48 $49 $28 $-1 $50 forward single #
face $-1 $51 $52 $29 $-1 $53 reversed single #
face $-1 $54 $55 $30 $-1 $56 forward single #
face $-1 $57 $58 $31 $-1 $59 forward single #
face $-1 $60 $61 $32 $-1 $62 reversed single #
face $-1 $63 $64 $33 $-1 $65 forward single #
face $-1 $66 $67 $34 $-1 $68 reversed single #
face $-1 $69 $70 $35 $-1 $71 forward single #
face $-1 $72 $73 $27 $-1 $74 reversed single #
loop $-1 $-1 $75 $36 #
plane-surface $-1 0 0 16.724106191735 0 0 1 1 0 0 forward_v I I I I #
face $-1 $76 $77 $28 $-1 $78 reversed single #
loop $-1 $-1 $79 $37 #
plane-surface $-1 0 -27.914695246800601 11.145379155968405 0 0 1 1 0 0 forward_v I I I I #
face $-1 $80 $81 $29 $-1 $82 reversed single #
loop $-1 $-1 $83 $38 #
plane-surface $-1 -120.65019760058622 6.2795823385029408 79.522141795975116 0 1 0 -0.66913061440640931 0 0.74314481823134659 forward_v I I I I #
face $-1 $84 $85 $30 $-1 $86 forward single #
loop $-1 $87 $88 $39 #
cone-surface $-1 -43.058555190632944 10.420879724370614 8.8614136212902341 0.66913061440640931 0 -0.74314481823134659 0.74314481823134659 0 0.66913061440640931 1 I I 0 1 1 forward I I I I #
face $-1 $89 $90 $31 $-1 $91 forward single #
loop $-1 $92 $93 $40 #
cone-surface $-1 -43.058555190632944 16.632825803172125 8.8614136212902341 0.66913061440640931 0 -0.74314481823134659 0.74314481823134659 0 0.66913061440640931 1 I I 0 1 1 forward I I I I #
face $-1 $94 $95 $32 $-1 $96 reversed single #
loop $-1 $-1 $97 $41 #
plane-surface $-1 46.504957024831441 6.8539334567061339 149.12832141247426 0 -1 0 -0.68199836817093118 0 -0.7313536940579346 forward_v I I I I #
face $-1 $98 $99 $33 $-1 $100 forward single #
loop $-1 $101 $102 $42 #
cone-surface $-1 43.045740531220048 0.63706876682387303 8.5611461237130513 -0.68199836817093118 0 -0.7313536940579346 1.8283842351448365 0 -1.7049959204273279 1 I I 0 1 2.5 forward I I I I #
face $-1 $103 $104 $34 $-1 $105 reversed single #
loop $-1 $-1 $106 $43 #
plane-surface $-1 46.504957024831441 19.287662836470663 149.12832141247426 0 -1 0 -0.68199836817093118 0 -0.7313536940579346 forward_v I I I I #
face $-1 $107 $108 $35 $-1 $109 forward single #
loop $-1 $110 $111 $44 #
cone-surface $-1 43.045740531220048 13.070798146588402 8.5611461237130513 -0.68199836817093118 0 -0.7313536940579346 1.8283842351448365 0 -1.7049959204273279 1 I I 0 1 2.5 forward I I I I #
face $-1 $112 $113 $27 $-1 $114 reversed single #
loop $-1 $-1 $115 $45 #
plane-surface $-1 0 0 -16.724106191735 0 0 1 1 0 0 forward_v I I I I #
coedge $-1 $116 $117 $118 $119 forward $46 $-1 #
face $-1 $120 $121 $28 $-1 $122 reversed single #
loop $-1 $-1 $123 $48 #
plane-surface $-1 0 -27.914695246800601 3.3278662650620578 0 0 1 1 0 0 forward_v I I I I #
coedge $-1 $124 $125 $126 $127 reversed $49 $-1 #
face $-1 $128 $129 $29 $-1 $130 reversed single #
loop $-1 $-1 $131 $51 #
plane-surface $-1 -51.598254341257984 13.526852763771366 2.8321911089972218 -0.66913061440640931 0 0.74314481823134659 0.74314481823134659 0 0.66913061440640931 forward_v I I I I #
coedge $-1 $132 $133 $134 $135 reversed $52 $-1 #
face $-1 $-1 $136 $30 $-1 $137 forward single #
loop $-1 $138 $139 $54 #
cone-surface $-1 -41.898557937724561 10.420879724370614 7.5731061830986839 0.66913061440640931 0 -0.74314481823134659 0.3715724091156733 0 0.33456530720320465 1 I I -0.70710678118654746 0.70710678118654746 0.5 forward I I I I #
loop $-1 $-1 $140 $39 #
coedge $-1 $88 $88 $141 $142 reversed $55 $-1 #
face $-1 $-1 $143 $31 $-1 $144 forward single #
loop $-1 $145 $146 $57 #
cone-surface $-1 -41.898557937724561 16.632825803172125 7.5731061830986839 0.66913061440640931 0 -0.74314481823134659 0.3715724091156733 0 0.33456530720320465 1 I I -0.70710678118654746 0.70710678118654746 0.5 forward I I I I #
loop $-1 $-1 $147 $40 #
coedge $-1 $93 $93 $148 $149 reversed $58 $-1 #
face $-1 $150 $151 $32 $-1 $152 reversed single #
loop $-1 $-1 $153 $60 #
plane-surface $-1 -23.874893497581766 0.63706876682387303 73.655173573634514 0.68199836817093118 0 0.7313536940579346 0.7313536940579346 0 -0.68199836817093118 forward_v I I I I #
coedge $-1 $154 $155 $156 $157 reversed $61 $-1 #
face $-1 $-1 $158 $33 $-1 $159 forward single #
loop $-1 $160 $161 $63 #
cone-surface $-1 40.851755714579582 0.63706876682387303 6.2083855083755317 -0.68199836817093118 0 -0.7313536940579346 0.91419211757241825 0 -0.85249796021366397 1 I I -0.70710678118654779 0.70710678118654724 1.25 forward I I I I #
loop $-1 $-1 $162 $42 #
coedge $-1 $102 $102 $163 $164 reversed $64 $-1 #
face $-1 $165 $166 $34 $-1 $167 reversed single #
loop $-1 $-1 $168 $66 #
plane-surface $-1 -23.874893497581766 0.63706876682387303 73.655173573634514 0.68199836817093118 0 0.7313536940579346 0.7313536940579346 0 -0.68199836817093118 forward_v I I I I #
coedge $-1 $169 $170 $171 $172 reversed $67 $-1 #
face $-1 $-1 $173 $35 $-1 $174 forward single #
loop $-1 $175 $176 $69 #
cone-surface $-1 40.851755714579582 13.070798146588402 6.2083855083755317 -0.68199836817093118 0 -0.7313536940579346 0.91419211757241825 0 -0.85249796021366397 1 I I -0.70710678118654779 0.70710678118654724 1.25 forward I I I I #
loop $-1 $-1 $177 $44 #
coedge $-1 $111 $111 $178 $179 reversed $70 $-1 #
face $-1 $180 $181 $27 $-1 $182 reversed single #
loop $-1 $-1 $183 $72 #
plane-surface $-1 0 -34.768628703506735 0 0 1 0 0 0 1 forward_v I I I I #
coedge $-1 $184 $185 $186 $187 forward $73 $-1 #
coedge $-1 $188 $75 $189 $190 forward $46 $-1 #
coedge $-1 $75 $188 $191 $192 forward $46 $-1 #
coedge $-1 $193 $194 $75 $119 reversed $195 $-1 #
edge $-1 $196 -34.768628703506735 $197 34.768628703506735 $118 $198 forward 7 unknown #
face $-1 $199 $200 $28 $-1 $201 reversed single #
loop $-1 $-1 $202 $76 #
plane-surface $-1 0 -21.060761790094467 7.2366227105152312 0 -1 0 0 0 -1 forward_v I I I I #
coedge $-1 $203 $204 $205 $206 reversed $77 $-1 #
coedge $-1 $207 $79 $208 $209 forward $49 $-1 #
coedge $-1 $79 $207 $210 $211 reversed $49 $-1 #
coedge $-1 $212 $213 $79 $127 forward $214 $-1 #
edge $-1 $215 7.1034141666941668 $216 20.811281080106433 $126 $217 forward 7 unknown #
face $-1 $218 $219 $29 $-1 $220 reversed single #
loop $-1 $-1 $221 $80 #
plane-surface $-1 -120.65019760058622 20.774123189039791 79.522141795975116 0 -1 0 0.66913061440640931 0 -0.74314481823134659 forward_v I I I I #
coedge $-1 $222 $223 $224 $225 reversed $81 $-1 #
coedge $-1 $133 $83 $226 $227 reversed $52 $-1 #
coedge $-1 $83 $132 $222 $228 reversed $52 $-1 #
coedge $-1 $224 $229 $83 $135 forward $230 $-1 #
edge $-1 $231 8.7268444590351422 $232 24.155378868874827 $134 $233 forward 7 unknown #
loop $-1 $-1 $141 $84 #
plane-surface $-1 -51.598254341257984 13.526852763771366 2.8321911089972218 -0.66913061440640931 0 0.74314481823134659 0.74314481823134659 0 0.66913061440640931 forward_v I I I I #
loop $-1 $-1 $234 $54 #
coedge $-1 $139 $139 $140 $235 reversed $85 $-1 #
coedge $-1 $140 $140 $139 $235 forward $87 $-1 #
coedge $-1 $141 $141 $88 $142 forward $136 $-1 #
edge $-1 $236 0 $236 6.2831853071796004 $141 $237 forward 7 unknown #
loop $-1 $-1 $148 $89 #
plane-surface $-1 -51.598254341257984 13.526852763771366 2.8321911089972218 -0.66913061440640931 0 0.74314481823134659 0.74314481823134659 0 0.66913061440640931 forward_v I I I I #
loop $-1 $-1 $238 $57 #
coedge $-1 $146 $146 $147 $239 reversed $90 $-1 #
coedge $-1 $147 $147 $146 $239 forward $92 $-1 #
coedge $-1 $148 $148 $93 $149 forward $143 $-1 #
edge $-1 $240 0 $240 6.2831853071796004 $148 $241 forward 7 unknown #
face $-1 $242 $243 $32 $-1 $244 forward single #
loop $-1 $-1 $245 $94 #
plane-surface $-1 46.504957024831441 -5.5797959230583878 149.12832141247426 0 1 0 0.68199836817093118 0 0.7313536940579346 forward_v I I I I #
coedge $-1 $246 $247 $248 $249 reversed $95 $-1 #
coedge $-1 $155 $97 $250 $251 reversed $61 $-1 #
coedge $-1 $97 $154 $246 $252 reversed $61 $-1 #
coedge $-1 $248 $253 $97 $157 forward $243 $-1 #
edge $-1 $254 -28.34577582884225 $255 -13.923721921620043 $156 $256 forward 7 unknown #
loop $-1 $-1 $163 $98 #
plane-surface $-1 -23.874893497581766 0.63706876682387303 73.655173573634514 0.68199836817093118 0 0.7313536940579346 0.7313536940579346 0 -0.68199836817093118 forward_v I I I I #
loop $-1 $-1 $257 $63 #
coedge $-1 $161 $161 $162 $258 reversed $99 $-1 #
coedge $-1 $162 $162 $161 $258 forward $101 $-1 #
coedge $-1 $163 $163 $102 $164 forward $158 $-1 #
edge $-1 $259 0 $259 6.2831853071796004 $163 $260 forward 7 unknown #
face $-1 $261 $262 $34 $-1 $263 forward single #
loop $-1 $-1 $264 $103 #
plane-surface $-1 51.59825434125797 0 0 -1 0 0 0 0 1 forward_v I I I I #
coedge $-1 $265 $266 $267 $268 reversed $104 $-1 #
coedge $-1 $170 $106 $269 $270 reversed $67 $-1 #
coedge $-1 $106 $169 $271 $272 reversed $67 $-1 #
coedge $-1 $273 $264 $106 $172 forward $166 $-1 #
edge $-1 $274 -71.288837655015797 $275 -57.840054514502128 $171 $276 forward 7 unknown #
loop $-1 $-1 $178 $107 #
plane-surface $-1 -23.874893497581766 0.63706876682387303 73.655173573634514 0.68199836817093118 0 0.7313536940579346 0.7313536940579346 0 -0.68199836817093118 forward_v I I I I #
loop $-1 $-1 $277 $69 #
coedge $-1 $176 $176 $177 $278 reversed $108 $-1 #
coedge $-1 $177 $177 $176 $278 forward $110 $-1 #
coedge $-1 $178 $178 $111 $179 forward $173 $-1 #
edge $-1 $279 0 $279 6.2831853071796004 $178 $280 forward 7 unknown #
face $-1 $281 $282 $27 $-1 $283 reversed single #
loop $-1 $-1 $284 $112 #
plane-surface $-1 -51.59825434125797 0 0 1 0 0 0 0 -1 forward_v I I I I #
coedge $-1 $285 $191 $286 $287 forward $113 $-1 #
coedge $-1 $288 $115 $285 $289 forward $73 $-1 #
coedge $-1 $115 $288 $290 $291 forward $73 $-1 #
coedge $-1 $194 $193 $115 $187 reversed $195 $-1 #
edge $-1 $292 -34.768628703506735 $293 34.768628703506735 $186 $294 forward 7 unknown #
coedge $-1 $117 $116 $295 $296 forward $46 $-1 #
coedge $-1 $297 $298 $116 $190 reversed $282 $-1 #
edge $-1 $197 -51.59825434125797 $299 51.59825434125797 $189 $300 forward 7 unknown #
coedge $-1 $183 $301 $117 $192 reversed $113 $-1 #
edge $-1 $302 -51.59825434125797 $196 51.59825434125797 $191 $303 forward 7 unknown #
coedge $-1 $186 $118 $301 $304 forward $195 $-1 #
coedge $-1 $118 $186 $297 $305 reversed $195 $-1 #
loop $-1 $-1 $193 $281 #
vertex $-1 $119 $306 #
vertex $-1 $119 $307 #
straight-curve $-1 51.59825434125797 0 16.724106191735 0 1 0 I I #
face $-1 $308 $309 $28 $-1 $310 reversed single #
loop $-1 $-1 $311 $120 #
plane-surface $-1 -51.59825434125797 0 0 1 0 0 0 0 -1 forward_v I I I I #
coedge $-1 $312 $208 $213 $313 reversed $121 $-1 #
coedge $-1 $314 $123 $315 $316 reversed $77 $-1 #
coedge $-1 $123 $314 $312 $317 forward $77 $-1 #
coedge $-1 $213 $212 $123 $206 forward $214 $-1 #
edge $-1 $318 -20.811281080106433 $319 -7.1034141666941668 $205 $320 forward 7 unknown #
coedge $-1 $125 $124 $311 $321 reversed $49 $-1 #
coedge $-1 $202 $322 $124 $209 reversed $121 $-1 #
edge $-1 $215 -51.59825434125797 $323 51.59825434125797 $208 $324 forward 7 unknown #
coedge $-1 $325 $326 $125 $211 forward $309 $-1 #
edge $-1 $216 -51.59825434125797 $327 51.59825434125797 $210 $328 forward 7 unknown #
coedge $-1 $205 $126 $326 $329 forward $214 $-1 #
coedge $-1 $126 $205 $202 $313 forward $214 $-1 #
loop $-1 $-1 $126 $308 #
vertex $-1 $127 $330 #
vertex $-1 $329 $331 #
straight-curve $-1 51.59825434125797 -13.957347623400301 11.145379155968405 0 -1 0 I I #
face $-1 $-1 $230 $29 $-1 $332 forward single #
loop $-1 $-1 $333 $128 #
plane-surface $-1 -51.59825434125797 0 0 1 0 0 0 0 -1 forward_v I I I I #
coedge $-1 $334 $335 $336 $337 reversed $129 $-1 #
coedge $-1 $338 $131 $133 $228 forward $81 $-1 #
coedge $-1 $131 $338 $334 $339 forward $81 $-1 #
coedge $-1 $336 $134 $131 $225 forward $230 $-1 #
edge $-1 $232 -0.48384404338274223 $340 14.010696807154108 $224 $341 forward 7 unknown #
coedge $-1 $342 $343 $132 $227 forward $219 $-1 #
edge $-1 $344 -36.928879788990322 $231 -23.036964706252558 $226 $345 forward 7 unknown #
edge $-1 $232 -20.761141074170393 $344 -1.9178179933549516e-014 $133 $346 forward 7 unknown #
coedge $-1 $134 $336 $342 $347 forward $230 $-1 #
loop $-1 $-1 $336 $218 #
vertex $-1 $227 $348 #
vertex $-1 $135 $349 #
straight-curve $-1 -60.325098800293112 6.2795823385029408 16.724106191735 1 0 0 I I #
coedge $-1 $234 $234 $-1 $350 reversed $138 $-1 #
edge $-1 $351 0 $351 6.2831853071796004 $139 $352 forward 7 unknown #
vertex $-1 $142 $353 #
ellipse-curve $-1 -43.883987136338128 10.420879724370614 9.7781486503661181 -0.66913061440640931 0 0.74314481823134659 0.74314481823134659 0 0.66913061440640931 1 I I #
coedge $-1 $238 $238 $-1 $354 reversed $145 $-1 #
edge $-1 $355 0 $355 6.2831853071796004 $146 $356 forward 7 unknown #
vertex $-1 $149 $357 #
ellipse-curve $-1 -43.883987136338128 16.632825803172125 9.7781486503661181 -0.66913061440640931 0 0.74314481823134659 0.74314481823134659 0 0.66913061440640931 1 I I #
face $-1 $-1 $358 $32 $-1 $359 reversed single #
loop $-1 $-1 $156 $150 #
plane-surface $-1 0 0 16.724106191735 0 0 1 1 0 0 forward_v I I I I #
coedge $-1 $360 $361 $362 $363 reversed $151 $-1 #
coedge $-1 $364 $153 $155 $252 forward $95 $-1 #
coedge $-1 $153 $364 $360 $365 forward $95 $-1 #
coedge $-1 $362 $156 $153 $249 forward $243 $-1 #
edge $-1 $255 -6.5353990732941973 $366 5.8983303064703243 $248 $367 forward 7 unknown #
coedge $-1 $368 $369 $154 $251 forward $358 $-1 #
edge $-1 $370 -71.288837655015797 $254 -57.840054514502128 $250 $371 forward 7 unknown #
edge $-1 $255 83.476838125851231 $370 103.19650868251591 $155 $372 forward 7 unknown #
coedge $-1 $156 $362 $368 $373 forward $243 $-1 #
vertex $-1 $251 $374 #
vertex $-1 $157 $375 #
straight-curve $-1 23.252478512415721 6.8539334567061339 16.724106191735004 -1 0 0 I I #
coedge $-1 $257 $257 $-1 $376 reversed $160 $-1 #
edge $-1 $377 0 $377 6.2831853071796004 $161 $378 forward 7 unknown #
vertex $-1 $164 $379 #
ellipse-curve $-1 44.387227387646867 0.63706876682387303 9.9997146214781729 0.68199836817093118 0 0.7313536940579346 1.8283842351448365 0 -1.7049959204273279 1 I I #
face $-1 $-1 $380 $34 $-1 $381 forward single #
loop $-1 $-1 $382 $165 #
plane-surface $-1 46.504957024831441 6.8539334567061339 149.12832141247426 0 -1 0 -0.68199836817093118 0 -0.7313536940579346 forward_v I I I I #
coedge $-1 $171 $383 $266 $384 forward $166 $-1 #
coedge $-1 $269 $168 $385 $386 reversed $104 $-1 #
coedge $-1 $168 $269 $264 $384 reversed $104 $-1 #
coedge $-1 $387 $382 $168 $268 forward $262 $-1 #
edge $-1 $388 83.476838125851231 $389 103.19650868251591 $267 $390 forward 7 unknown #
coedge $-1 $266 $265 $169 $270 forward $104 $-1 #
edge $-1 $391 83.476838125851231 $274 103.19650868251591 $169 $392 forward 7 unknown #
coedge $-1 $385 $393 $170 $272 forward $380 $-1 #
edge $-1 $275 -28.34577582884225 $391 -13.923721921620043 $271 $394 forward 7 unknown #
coedge $-1 $383 $171 $393 $395 reversed $166 $-1 #
vertex $-1 $172 $396 #
vertex $-1 $172 $397 #
straight-curve $-1 51.59825434125797 19.287662836470663 74.564160706237132 0 0 1 I I #
coedge $-1 $277 $277 $-1 $398 reversed $175 $-1 #
edge $-1 $399 0 $399 6.2831853071796004 $176 $400 forward 7 unknown #
vertex $-1 $179 $401 #
ellipse-curve $-1 44.387227387646867 13.070798146588402 9.9997146214781729 0.68199836817093118 0 0.7313536940579346 1.8283842351448365 0 -1.7049959204273279 1 I I #
face $-1 $-1 $195 $27 $-1 $402 reversed single #
loop $-1 $-1 $297 $180 #
plane-surface $-1 0 34.768628703506735 0 0 -1 0 0 0 -1 forward_v I I I I #
coedge $-1 $403 $295 $298 $404 forward $181 $-1 #
coedge $-1 $301 $183 $184 $289 reversed $113 $-1 #
coedge $-1 $295 $403 $183 $287 reversed $181 $-1 #
edge $-1 $302 -16.724106191735 $405 16.724106191735 $286 $406 forward 7 unknown #
coedge $-1 $185 $184 $403 $407 forward $73 $-1 #
edge $-1 $293 -51.59825434125797 $405 51.59825434125797 $285 $408 forward 7 unknown #
coedge $-1 $298 $297 $185 $291 reversed $282 $-1 #
edge $-1 $409 -51.59825434125797 $292 51.59825434125797 $290 $410 forward 7 unknown #
vertex $-1 $187 $411 #
vertex $-1 $304 $412 #
straight-curve $-1 51.59825434125797 0 -16.724106191735 0 -1 0 I I #
coedge $-1 $284 $286 $188 $296 reversed $181 $-1 #
edge $-1 $299 -34.768628703506735 $302 34.768628703506735 $295 $413 forward 7 unknown #
coedge $-1 $290 $189 $194 $305 forward $282 $-1 #
coedge $-1 $189 $290 $284 $404 reversed $282 $-1 #
vertex $-1 $190 $414 #
straight-curve $-1 0 34.768628703506735 16.724106191735 -1 0 0 I I #
coedge $-1 $191 $285 $193 $304 reversed $113 $-1 #
vertex $-1 $296 $415 #
straight-curve $-1 0 -34.768628703506735 16.724106191735 1 0 0 I I #
edge $-1 $196 -16.724106191735 $293 16.724106191735 $193 $416 forward 7 unknown #
edge $-1 $197 -16.724106191735 $292 16.724106191735 $194 $417 forward 7 unknown #
point $-1 51.59825434125797 -34.768628703506735 16.724106191735 #
point $-1 51.59825434125797 34.768628703506735 16.724106191735 #
face $-1 $-1 $214 $28 $-1 $418 reversed single #
loop $-1 $-1 $210 $199 #
plane-surface $-1 0 -34.768628703506735 0 0 1 0 0 0 1 forward_v I I I I #
coedge $-1 $419 $420 $207 $321 forward $200 $-1 #
coedge $-1 $322 $202 $204 $317 reversed $121 $-1 #
edge $-1 $319 -0.29044509019555775 $215 7.527067800710789 $213 $421 forward 7 unknown #
coedge $-1 $204 $203 $422 $423 reversed $77 $-1 #
coedge $-1 $326 $325 $203 $316 forward $309 $-1 #
edge $-1 $424 -51.59825434125797 $318 51.59825434125797 $315 $425 forward 7 unknown #
edge $-1 $426 -51.59825434125797 $319 51.59825434125797 $312 $427 forward 7 unknown #
vertex $-1 $316 $428 #
vertex $-1 $206 $429 #
straight-curve $-1 51.59825434125797 -13.957347623400301 3.3278662650620578 0 1 0 I I #
edge $-1 $327 -20.811281080106433 $323 -7.1034141666941668 $311 $430 forward 7 unknown #
coedge $-1 $208 $312 $419 $431 reversed $121 $-1 #
vertex $-1 $321 $432 #
straight-curve $-1 0 -21.060761790094467 11.145379155968405 -1 0 0 I I #
coedge $-1 $315 $210 $420 $433 forward $309 $-1 #
coedge $-1 $210 $315 $212 $329 reversed $309 $-1 #
vertex $-1 $433 $434 #
straight-curve $-1 0 -34.768628703506735 11.145379155968405 -1 0 0 I I #
edge $-1 $216 -11.145379155968405 $318 -3.3278662650620578 $212 $435 forward 7 unknown #
point $-1 51.59825434125797 -21.060761790094467 11.145379155968405 #
point $-1 51.59825434125797 -34.768628703506735 11.145379155968405 #
plane-surface $-1 0 0 16.724106191735 0 0 1 1 0 0 forward_v I I I I #
coedge $-1 $343 $342 $335 $436 forward $219 $-1 #
coedge $-1 $335 $221 $223 $339 reversed $129 $-1 #
coedge $-1 $221 $334 $333 $436 reversed $129 $-1 #
coedge $-1 $229 $224 $221 $337 forward $230 $-1 #
edge $-1 $340 -24.155378868874827 $437 -8.7268444590351422 $336 $438 forward 7 unknown #
coedge $-1 $223 $222 $343 $439 reversed $81 $-1 #
edge $-1 $440 1.9178179933549516e-014 $340 20.761141074170393 $334 $441 forward 7 unknown #
vertex $-1 $225 $442 #
straight-curve $-1 -36.169719931418285 6.763426381885683 16.724106191735 0 1 0 I I #
coedge $-1 $333 $226 $229 $347 reversed $219 $-1 #
coedge $-1 $226 $333 $338 $439 forward $219 $-1 #
vertex $-1 $227 $443 #
straight-curve $-1 -51.59825434125797 6.2795823385029408 39.761070897987558 0 0 1 I I #
straight-curve $-1 -51.598254341257984 6.2795823385029408 2.8321911089972218 -0.74314481823134659 0 -0.66913061440640931 I I #
edge $-1 $437 -20.774123189039791 $231 -6.2795823385029408 $342 $444 forward 7 unknown #
point $-1 -51.59825434125797 6.2795823385029408 16.724106191735 #
point $-1 -36.169719931418285 6.2795823385029408 16.724106191735 #
edge $-1 $445 1 $445 0 $234 $-1 forward 7 unknown #
vertex $-1 $235 $446 #
ellipse-curve $-1 -42.233123244927768 10.420879724370614 7.9446785922143572 -0.66913061440640931 0 0.74314481823134659 0.74314481823134659 0 0.66913061440640931 1 I I #
point $-1 -43.14084231810677 10.420879724370614 10.447279264772522 #
edge $-1 $447 1 $447 0 $238 $-1 forward 7 unknown #
vertex $-1 $239 $448 #
ellipse-curve $-1 -42.233123244927768 16.632825803172125 7.9446785922143572 -0.66913061440640931 0 0.74314481823134659 0.74314481823134659 0 0.66913061440640931 1 I I #
point $-1 -43.14084231810677 16.632825803172125 10.447279264772522 #
loop $-1 $-1 $250 $242 #
plane-surface $-1 51.59825434125797 0 0 -1 0 0 0 0 1 forward_v I I I I #
coedge $-1 $361 $245 $247 $365 reversed $151 $-1 #
coedge $-1 $245 $360 $449 $450 reversed $151 $-1 #
coedge $-1 $253 $248 $245 $363 forward $243 $-1 #
edge $-1 $366 13.923721921620043 $451 28.34577582884225 $362 $452 forward 7 unknown #
coedge $-1 $247 $246 $369 $453 reversed $95 $-1 #
edge $-1 $454 -103.19650868251591 $366 -83.476838125851231 $360 $455 forward 7 unknown #
vertex $-1 $249 $456 #
straight-curve $-1 37.176200434035771 0.31853438341193652 16.724106191734997 0 -1 0 I I #
coedge $-1 $449 $250 $253 $373 reversed $358 $-1 #
coedge $-1 $250 $449 $364 $453 forward $358 $-1 #
vertex $-1 $251 $457 #
straight-curve $-1 51.59825434125797 6.8539334567061339 74.564160706237132 0 0 1 I I #
straight-curve $-1 -23.874893497581766 6.8539334567061339 73.655173573634514 0.7313536940579346 0 -0.68199836817093118 I I #
edge $-1 $451 -5.5797959230583878 $254 6.8539334567061339 $368 $458 forward 7 unknown #
point $-1 51.59825434125797 6.8539334567061339 16.724106191735 #
point $-1 37.176200434035763 6.8539334567061339 16.724106191735004 #
edge $-1 $459 1 $459 0 $257 $-1 forward 7 unknown #
vertex $-1 $258 $460 #
ellipse-curve $-1 41.704253674793243 0.63706876682387303 7.1225776259479492 0.68199836817093118 0 0.7313536940579346 1.8283842351448365 0 -1.7049959204273279 1 I I #
point $-1 46.215611622791684 0.63706876682387303 8.2947187010508223 #
loop $-1 $-1 $385 $261 #
plane-surface $-1 0 0 16.724106191735 0 0 1 1 0 0 forward_v I I I I #
coedge $-1 $267 $387 $461 $462 reversed $262 $-1 #
coedge $-1 $264 $273 $387 $463 forward $166 $-1 #
edge $-1 $389 6.5353990732941973 $274 18.969128453058726 $264 $464 forward 7 unknown #
coedge $-1 $461 $271 $265 $386 forward $380 $-1 #
edge $-1 $391 -18.969128453058726 $388 -6.5353990732941973 $385 $465 forward 7 unknown #
coedge $-1 $382 $267 $383 $463 reversed $262 $-1 #
vertex $-1 $386 $466 #
vertex $-1 $384 $467 #
straight-curve $-1 -23.874893497581766 6.8539334567061339 73.655173573634514 0.7313536940579346 0 -0.68199836817093118 I I #
vertex $-1 $272 $468 #
straight-curve $-1 -23.874893497581766 19.287662836470663 73.655173573634514 0.7313536940579346 0 -0.68199836817093118 I I #
coedge $-1 $271 $461 $273 $395 forward $380 $-1 #
straight-curve $-1 23.252478512415721 19.287662836470663 16.724106191735004 -1 0 0 I I #
edge $-1 $469 6.8539334567061339 $275 19.287662836470663 $273 $470 forward 7 unknown #
point $-1 51.59825434125797 19.287662836470663 3.2753230512213349 #
point $-1 51.59825434125797 19.287662836470663 16.724106191735 #
edge $-1 $471 1 $471 0 $277 $-1 forward 7 unknown #
vertex $-1 $278 $472 #
ellipse-curve $-1 41.704253674793243 13.070798146588402 7.1225776259479492 0.68199836817093118 0 0.7313536940579346 1.8283842351448365 0 -1.7049959204273279 1 I I #
point $-1 46.215611622791684 13.070798146588402 8.2947187010508223 #
plane-surface $-1 51.59825434125797 0 0 -1 0 0 0 0 1 forward_v I I I I #
coedge $-1 $286 $284 $288 $407 reversed $181 $-1 #
edge $-1 $299 -16.724106191735 $409 16.724106191735 $298 $473 forward 7 unknown #
vertex $-1 $407 $474 #
straight-curve $-1 -51.59825434125797 -34.768628703506735 0 0 0 -1 I I #
edge $-1 $405 -34.768628703506735 $409 34.768628703506735 $403 $475 forward 7 unknown #
straight-curve $-1 0 -34.768628703506735 -16.724106191735 -1 0 0 I I #
vertex $-1 $291 $476 #
straight-curve $-1 0 34.768628703506735 -16.724106191735 1 0 0 I I #
point $-1 51.59825434125797 34.768628703506735 -16.724106191735 #
point $-1 51.59825434125797 -34.768628703506735 -16.724106191735 #
straight-curve $-1 -51.59825434125797 0 16.724106191735 0 -1 0 I I #
point $-1 -51.59825434125797 34.768628703506735 16.724106191735 #
point $-1 -51.59825434125797 -34.768628703506735 16.724106191735 #
straight-curve $-1 51.59825434125797 -34.768628703506735 0 0 0 -1 I I #
straight-curve $-1 51.59825434125797 34.768628703506735 0 0 0 -1 I I #
plane-surface $-1 51.59825434125797 0 0 -1 0 0 0 0 1 forward_v I I I I #
coedge $-1 $422 $311 $322 $431 forward $200 $-1 #
coedge $-1 $311 $422 $325 $433 reversed $200 $-1 #
straight-curve $-1 51.59825434125797 -21.060761790094467 3.6183113552576156 0 0 1 I I #
coedge $-1 $420 $419 $314 $423 forward $200 $-1 #
edge $-1 $426 7.1034141666941668 $424 20.811281080106433 $422 $477 forward 7 unknown #
vertex $-1 $316 $478 #
straight-curve $-1 0 -34.768628703506735 3.3278662650620578 1 0 0 I I #
vertex $-1 $423 $479 #
straight-curve $-1 0 -21.060761790094467 3.3278662650620578 1 0 0 I I #
point $-1 51.59825434125797 -34.768628703506735 3.3278662650620578 #
point $-1 51.59825434125797 -21.060761790094467 3.3278662650620578 #
straight-curve $-1 -51.59825434125797 -13.957347623400301 11.145379155968405 0 1 0 I I #
edge $-1 $323 -7.527067800710789 $426 0.29044509019555775 $419 $480 forward 7 unknown #
point $-1 -51.59825434125797 -21.060761790094467 11.145379155968405 #
edge $-1 $327 -11.145379155968405 $424 -3.3278662650620578 $420 $481 forward 7 unknown #
point $-1 -51.59825434125797 -34.768628703506735 11.145379155968405 #
straight-curve $-1 51.59825434125797 -34.768628703506735 0 0 0 -1 I I #
edge $-1 $437 23.036964706252558 $440 36.928879788990322 $333 $482 forward 7 unknown #
vertex $-1 $347 $483 #
straight-curve $-1 -60.325098800293112 20.774123189039791 16.724106191735 -1 0 0 I I #
edge $-1 $440 -14.010696807154108 $344 0.48384404338274223 $343 $484 forward 7 unknown #
vertex $-1 $439 $485 #
straight-curve $-1 -51.598254341257984 20.774123189039791 2.8321911089972218 0.74314481823134659 0 0.66913061440640931 I I #
point $-1 -36.169719931418285 20.774123189039791 16.724106191735 #
point $-1 -51.59825434125797 6.2795823385029408 2.8321911089972347 #
straight-curve $-1 -51.59825434125797 0 16.724106191735 0 -1 0 I I #
vertex $-1 $350 $486 #
point $-1 -41.489978426696418 10.420879724370614 8.6138092066207665 #
vertex $-1 $354 $487 #
point $-1 -41.489978426696418 16.632825803172125 8.6138092066207665 #
coedge $-1 $369 $368 $361 $450 forward $358 $-1 #
edge $-1 $451 57.840054514502128 $454 71.288837655015797 $449 $488 forward 7 unknown #
vertex $-1 $373 $489 #
straight-curve $-1 23.252478512415721 -5.5797959230583878 16.724106191735004 1 0 0 I I #
edge $-1 $454 -5.8983303064703243 $370 6.5353990732941973 $369 $490 forward 7 unknown #
vertex $-1 $453 $491 #
straight-curve $-1 -23.874893497581766 -5.5797959230583878 73.655173573634514 -0.7313536940579346 0 0.68199836817093118 I I #
point $-1 37.176200434035763 -5.5797959230583878 16.724106191735004 #
point $-1 51.59825434125797 6.8539334567061339 3.2753230512213349 #
straight-curve $-1 51.59825434125797 0 16.724106191735 0 1 0 I I #
vertex $-1 $376 $492 #
point $-1 43.532637909938082 0.63706876682387303 5.4175817055206217 #
coedge $-1 $393 $385 $382 $462 forward $380 $-1 #
edge $-1 $388 13.923721921620043 $469 28.34577582884225 $461 $493 forward 7 unknown #
edge $-1 $469 57.840054514502128 $389 71.288837655015797 $383 $494 forward 7 unknown #
straight-curve $-1 51.59825434125797 0.31853438341193652 3.2753230512213278 0 1 0 I I #
straight-curve $-1 37.176200434035771 0.31853438341193652 16.724106191734997 0 -1 0 I I #
point $-1 37.176200434035763 6.8539334567061339 16.724106191735004 #
point $-1 51.59825434125797 6.8539334567061339 3.2753230512213349 #
point $-1 37.176200434035763 19.287662836470663 16.724106191735004 #
vertex $-1 $395 $495 #
straight-curve $-1 51.59825434125797 0 16.724106191735 0 1 0 I I #
vertex $-1 $398 $496 #
point $-1 43.532637909938082 13.070798146588402 5.4175817055206217 #
straight-curve $-1 -51.59825434125797 34.768628703506735 0 0 0 -1 I I #
point $-1 -51.59825434125797 -34.768628703506735 -16.724106191735 #
straight-curve $-1 -51.59825434125797 0 -16.724106191735 0 1 0 I I #
point $-1 -51.59825434125797 34.768628703506735 -16.724106191735 #
straight-curve $-1 -51.59825434125797 -13.957347623400301 3.3278662650620578 0 -1 0 I I #
point $-1 -51.59825434125797 -34.768628703506735 3.3278662650620578 #
point $-1 -51.59825434125797 -21.060761790094467 3.3278662650620578 #
straight-curve $-1 -51.59825434125797 -21.060761790094467 3.6183113552576156 0 0 -1 I I #
straight-curve $-1 -51.59825434125797 -34.768628703506735 0 0 0 -1 I I #
straight-curve $-1 -51.59825434125797 20.774123189039791 39.761070897987558 0 0 -1 I I #
point $-1 -51.59825434125797 20.774123189039791 16.724106191735 #
straight-curve $-1 -51.59825434125797 6.763426381885683 2.8321911089972338 0 -1 0 I I #
point $-1 -51.59825434125797 20.774123189039791 2.8321911089972347 #
point $-1 -41.563992630521355 10.420879724370614 7.2015337739830105 #
point $-1 -41.563992630521355 16.632825803172125 7.2015337739830105 #
straight-curve $-1 51.59825434125797 -5.5797959230583878 74.564160706237132 0 0 -1 I I #
point $-1 51.59825434125797 -5.5797959230583878 16.724106191735 #
straight-curve $-1 51.59825434125797 0.31853438341193652 3.2753230512213278 0 1 0 I I #
point $-1 51.59825434125797 -5.5797959230583878 3.2753230512213349 #
point $-1 39.999257754365921 0.63706876682387303 5.2941933908031142 #
straight-curve $-1 23.252478512415721 6.8539334567061339 16.724106191735004 1 0 0 I I #
straight-curve $-1 51.59825434125797 6.8539334567061339 74.564160706237132 0 0 -1 I I #
point $-1 51.59825434125797 6.8539334567061339 16.724106191735 #
point $-1 39.999257754365921 13.070798146588402 5.2941933908031142 #
End-of-ACIS-data 