500 0 6 0           
7 Unknown 11 ACIS 5.0 NT 24 Fri Mar 26 19:16:30 1999 
-1 9.9999999999999995e-007 1e-010 
body $-1 $6 $-1 $7 #
body $-1 $8 $-1 $9 #
body $-1 $10 $-1 $11 #
body $-1 $12 $-1 $13 #
body $-1 $14 $-1 $15 #
body $-1 $16 $-1 $17 #
lump $-1 $-1 $18 $0 #
transform $-1 1 0 0 0 1 0 0 0 1 46.670125431073949 25.018446035553644 7.08055541583626 1 rotate no_reflect no_shear #
lump $-1 $-1 $19 $1 #
transform $-1 1 0 0 0 1 0 0 0 1 46.670125431073949 25.018446035553644 7.08055541583626 1 rotate no_reflect no_shear #
lump $-1 $-1 $20 $2 #
transform $-1 1 0 0 0 1 0 0 0 1 46.670125431073949 25.018446035553644 7.08055541583626 1 rotate no_reflect no_shear #
lump $-1 $-1 $21 $3 #
transform $-1 1 0 0 0 1 0 0 0 1 46.670125431073949 25.018446035553644 7.08055541583626 1 rotate no_reflect no_shear #
lump $-1 $-1 $22 $4 #
transform $-1 1 0 0 0 1 0 0 0 1 46.670125431073949 25.018446035553644 7.08055541583626 1 rotate no_reflect no_shear #
lump $-1 $-1 $23 $5 #
transform $-1 1 0 0 0 1 0 0 0 1 46.670125431073949 25.018446035553644 7.08055541583626 1 rotate no_reflect no_shear #
shell $-1 $-1 $-1 $24 $-1 $6 #
shell $-1 $-1 $-1 $25 $-1 $8 #
shell $-1 $-1 $-1 $26 $-1 $10 #
shell $-1 $-1 $-1 $27 $-1 $12 #
shell $-1 $-1 $-1 $28 $-1 $14 #
shell $-1 $-1 $-1 $29 $-1 $16 #
face $-1 $30 $31 $18 $-1 $32 forward single #
face $-1 $33 $34 $19 $-1 $35 forward single #
face $-1 $36 $37 $20 $-1 $38 reversed single #
face $-1 $39 $40 $21 $-1 $41 forward single #
face $-1 $42 $43 $22 $-1 $44 forward single #
face $-1 $45 $46 $23 $-1 $47 forward single #
face $-1 $48 $49 $18 $-1 $50 reversed single #
loop $-1 $-1 $51 $24 #
plane-surface $-1 0 0 7.08055541583626 0 0 1 1 0 0 forward_v I I I I #
face $-1 $52 $53 $19 $-1 $54 reversed single #
loop $-1 $-1 $55 $25 #
plane-surface $-1 0 -21.533644599247431 5.0889475471638388 0 0 1 1 0 0 forward_v I I I I #
face $-1 $56 $57 $20 $-1 $58 reversed single #
loop $-1 $-1 $59 $26 #
plane-surface $-1 -17.164915374526242 59.158106893410753 101.61519811298994 1 0 0 0 -0.73135370988377701 -0.68199835119979291 forward_v I I I I #
face $-1 $60 $61 $21 $-1 $62 forward single #
loop $-1 $63 $64 $27 #
cone-surface $-1 -12.762623724775565 21.670250263531248 3.5854592037262742 0 -0.73135370988377701 -0.68199835119979291 0.5 0 0 1 I I 0 1 0.5 forward I I I I #
face $-1 $65 $66 $22 $-1 $67 forward single #
loop $-1 $68 $69 $28 #
cone-surface $-1 -6.1591862501495456 21.670250263531248 3.5854592037262742 0 -0.73135370988377701 -0.68199835119979291 0.5 0 0 1 I I 0 1 0.5 forward I I I I #
face $-1 $70 $71 $23 $-1 $72 forward single #
loop $-1 $73 $74 $29 #
cone-surface $-1 0.44425122447647425 21.670250263531248 3.5854592037262742 0 -0.73135370988377701 -0.68199835119979291 0.5 0 0 1 I I 0 1 0.5 forward I I I I #
face $-1 $75 $76 $18 $-1 $77 reversed single #
loop $-1 $-1 $78 $30 #
plane-surface $-1 0 0 -7.08055541583626 0 0 1 1 0 0 forward_v I I I I #
coedge $-1 $79 $80 $81 $82 forward $31 $-1 #
face $-1 $83 $84 $19 $-1 $85 reversed single #
loop $-1 $-1 $86 $33 #
plane-surface $-1 0 -21.533644599247431 2.0889475471638388 0 0 1 1 0 0 forward_v I I I I #
coedge $-1 $87 $88 $89 $90 reversed $34 $-1 #
face $-1 $91 $92 $20 $-1 $93 reversed single #
loop $-1 $-1 $94 $36 #
plane-surface $-1 -6.1591862501495385 -9.106631856103526 37.957300924430029 0 0.73135370988377701 0.68199835119979291 1 0 0 forward_v I I I I #
coedge $-1 $95 $96 $97 $98 reversed $37 $-1 #
face $-1 $-1 $99 $21 $-1 $100 forward single #
loop $-1 $101 $102 $39 #
cone-surface $-1 -12.762623724775565 20.805239860840331 2.7788239731486879 0 -0.73135370988377701 -0.68199835119979291 0.25 0 0 1 I I -0.70710678118654746 0.70710678118654746 0.25 forward I I I I #
loop $-1 $-1 $103 $27 #
coedge $-1 $64 $64 $104 $105 reversed $40 $-1 #
face $-1 $-1 $106 $22 $-1 $107 forward single #
loop $-1 $108 $109 $42 #
cone-surface $-1 -6.1591862501495456 20.805239860840331 2.7788239731486879 0 -0.73135370988377701 -0.68199835119979291 0.25 0 0 1 I I -0.70710678118654746 0.70710678118654746 0.25 forward I I I I #
loop $-1 $-1 $110 $28 #
coedge $-1 $69 $69 $111 $112 reversed $43 $-1 #
face $-1 $-1 $113 $23 $-1 $114 forward single #
loop $-1 $115 $116 $45 #
cone-surface $-1 0.44425122447647425 20.805239860840331 2.7788239731486879 0 -0.73135370988377701 -0.68199835119979291 0.25 0 0 1 I I -0.70710678118654746 0.70710678118654746 0.25 forward I I I I #
loop $-1 $-1 $117 $29 #
coedge $-1 $74 $74 $118 $119 reversed $46 $-1 #
face $-1 $120 $121 $18 $-1 $122 reversed single #
loop $-1 $-1 $123 $48 #
plane-surface $-1 0 -25.018446035553644 0 0 1 0 0 0 1 forward_v I I I I #
coedge $-1 $124 $125 $126 $127 forward $49 $-1 #
coedge $-1 $128 $51 $129 $130 forward $31 $-1 #
coedge $-1 $51 $128 $131 $132 forward $31 $-1 #
coedge $-1 $133 $134 $51 $82 reversed $135 $-1 #
edge $-1 $136 -25.018446035553644 $137 25.018446035553644 $81 $138 forward 7 unknown #
face $-1 $139 $140 $19 $-1 $141 reversed single #
loop $-1 $-1 $142 $52 #
plane-surface $-1 0 -18.048843162941218 3.5889475471638388 0 -1 0 0 0 -1 forward_v I I I I #
coedge $-1 $143 $144 $145 $146 reversed $53 $-1 #
coedge $-1 $147 $55 $148 $149 forward $34 $-1 #
coedge $-1 $55 $147 $150 $151 reversed $34 $-1 #
coedge $-1 $152 $153 $55 $90 forward $154 $-1 #
edge $-1 $155 7.2820208633175021 $156 14.251623735929929 $89 $157 forward 7 unknown #
face $-1 $158 $159 $20 $-1 $160 reversed single #
loop $-1 $-1 $161 $56 #
plane-surface $-1 4.8465428742271648 59.158106893410753 101.61519811298994 -1 0 0 0 0.73135370988377701 0.68199835119979291 forward_v I I I I #
coedge $-1 $162 $163 $164 $165 reversed $57 $-1 #
coedge $-1 $96 $59 $166 $167 reversed $37 $-1 #
coedge $-1 $59 $95 $162 $168 reversed $37 $-1 #
coedge $-1 $164 $169 $59 $98 forward $170 $-1 #
edge $-1 $171 4.5606074111517323 $172 9.8926550047565733 $97 $173 forward 7 unknown #
loop $-1 $-1 $104 $60 #
plane-surface $-1 -6.1591862501495385 -9.106631856103526 37.957300924430029 0 0.73135370988377701 0.68199835119979291 1 0 0 forward_v I I I I #
loop $-1 $-1 $174 $39 #
coedge $-1 $102 $102 $103 $175 reversed $61 $-1 #
coedge $-1 $103 $103 $102 $175 forward $63 $-1 #
coedge $-1 $104 $104 $64 $105 forward $99 $-1 #
edge $-1 $176 2.2475994133081969e-015 $176 6.2831853071796031 $104 $177 forward 7 unknown #
loop $-1 $-1 $111 $65 #
plane-surface $-1 -6.1591862501495385 -9.106631856103526 37.957300924430029 0 0.73135370988377701 0.68199835119979291 1 0 0 forward_v I I I I #
loop $-1 $-1 $178 $42 #
coedge $-1 $109 $109 $110 $179 reversed $66 $-1 #
coedge $-1 $110 $110 $109 $179 forward $68 $-1 #
coedge $-1 $111 $111 $69 $112 forward $106 $-1 #
edge $-1 $180 2.2475994133081969e-015 $180 6.2831853071796031 $111 $181 forward 7 unknown #
loop $-1 $-1 $118 $70 #
plane-surface $-1 -6.1591862501495385 -9.106631856103526 37.957300924430029 0 0.73135370988377701 0.68199835119979291 1 0 0 forward_v I I I I #
loop $-1 $-1 $182 $45 #
coedge $-1 $116 $116 $117 $183 reversed $71 $-1 #
coedge $-1 $117 $117 $116 $183 forward $73 $-1 #
coedge $-1 $118 $118 $74 $119 forward $113 $-1 #
edge $-1 $184 2.2475994133081969e-015 $184 6.2831853071796031 $118 $185 forward 7 unknown #
face $-1 $186 $187 $18 $-1 $188 reversed single #
loop $-1 $-1 $189 $75 #
plane-surface $-1 -46.670125431073949 0 0 1 0 0 0 0 -1 forward_v I I I I #
coedge $-1 $190 $131 $191 $192 forward $76 $-1 #
coedge $-1 $193 $78 $190 $194 forward $49 $-1 #
coedge $-1 $78 $193 $195 $196 forward $49 $-1 #
coedge $-1 $134 $133 $78 $127 reversed $135 $-1 #
edge $-1 $197 -25.018446035553644 $198 25.018446035553644 $126 $199 forward 7 unknown #
coedge $-1 $80 $79 $200 $201 forward $31 $-1 #
coedge $-1 $202 $203 $79 $130 reversed $187 $-1 #
edge $-1 $137 -46.670125431073949 $204 46.670125431073949 $129 $205 forward 7 unknown #
coedge $-1 $123 $206 $80 $132 reversed $76 $-1 #
edge $-1 $207 -46.670125431073949 $136 46.670125431073949 $131 $208 forward 7 unknown #
coedge $-1 $126 $81 $206 $209 forward $135 $-1 #
coedge $-1 $81 $126 $202 $210 reversed $135 $-1 #
loop $-1 $-1 $133 $186 #
vertex $-1 $82 $211 #
vertex $-1 $82 $212 #
straight-curve $-1 46.670125431073949 0 7.08055541583626 0 1 0 I I #
face $-1 $213 $214 $19 $-1 $215 reversed single #
loop $-1 $-1 $216 $83 #
plane-surface $-1 -46.670125431073949 0 0 1 0 0 0 0 -1 forward_v I I I I #
coedge $-1 $217 $148 $153 $218 reversed $84 $-1 #
coedge $-1 $219 $86 $220 $221 reversed $53 $-1 #
coedge $-1 $86 $219 $217 $222 forward $53 $-1 #
coedge $-1 $153 $152 $86 $146 forward $154 $-1 #
edge $-1 $223 -14.251623735929929 $224 -7.2820208633175021 $145 $225 forward 7 unknown #
coedge $-1 $88 $87 $216 $226 reversed $34 $-1 #
coedge $-1 $142 $227 $87 $149 reversed $84 $-1 #
edge $-1 $155 -46.670125431073949 $228 46.670125431073949 $148 $229 forward 7 unknown #
coedge $-1 $230 $231 $88 $151 forward $214 $-1 #
edge $-1 $156 -46.670125431073949 $232 46.670125431073949 $150 $233 forward 7 unknown #
coedge $-1 $145 $89 $231 $234 forward $154 $-1 #
coedge $-1 $89 $145 $142 $218 forward $154 $-1 #
loop $-1 $-1 $89 $213 #
vertex $-1 $90 $235 #
vertex $-1 $234 $236 #
straight-curve $-1 46.670125431073949 -10.766822299623716 5.0889475471638388 0 -1 0 I I #
face $-1 $-1 $170 $20 $-1 $237 forward single #
loop $-1 $-1 $238 $91 #
plane-surface $-1 0 25.018446035553644 0 0 -1 0 0 0 -1 forward_v I I I I #
coedge $-1 $239 $240 $241 $242 reversed $92 $-1 #
coedge $-1 $243 $94 $96 $168 forward $57 $-1 #
coedge $-1 $94 $243 $239 $244 forward $57 $-1 #
coedge $-1 $241 $97 $94 $165 forward $170 $-1 #
edge $-1 $172 -14.085322249451472 $245 7.926135999301934 $164 $246 forward 7 unknown #
coedge $-1 $247 $248 $95 $167 forward $159 $-1 #
edge $-1 $249 -49.444964779323413 $171 -43.727043640658714 $166 $250 forward 7 unknown #
edge $-1 $172 42.218621566164671 $249 50.036892071107303 $96 $251 forward 7 unknown #
coedge $-1 $97 $241 $247 $252 forward $170 $-1 #
loop $-1 $-1 $241 $158 #
vertex $-1 $167 $253 #
vertex $-1 $98 $254 #
straight-curve $-1 -17.164915374526242 29.579053446705377 7.0805554158362582 0 -1 0 I I #
coedge $-1 $174 $174 $-1 $255 reversed $101 $-1 #
edge $-1 $256 0 $256 6.2831853071796004 $102 $257 forward 7 unknown #
vertex $-1 $105 $258 #
ellipse-curve $-1 -12.762623724775565 22.352422238751217 4.221594846503911 0 0.73135370988377701 0.68199835119979291 0.5 0 0 1 I I #
coedge $-1 $178 $178 $-1 $259 reversed $108 $-1 #
edge $-1 $260 0 $260 6.2831853071796004 $109 $261 forward 7 unknown #
vertex $-1 $112 $262 #
ellipse-curve $-1 -6.1591862501495456 22.352422238751217 4.221594846503911 0 0.73135370988377701 0.68199835119979291 0.5 0 0 1 I I #
coedge $-1 $182 $182 $-1 $263 reversed $115 $-1 #
edge $-1 $264 0 $264 6.2831853071796004 $116 $265 forward 7 unknown #
vertex $-1 $119 $266 #
ellipse-curve $-1 0.44425122447647425 22.352422238751217 4.221594846503911 0 0.73135370988377701 0.68199835119979291 0.5 0 0 1 I I #
face $-1 $-1 $135 $18 $-1 $267 reversed single #
loop $-1 $-1 $202 $120 #
plane-surface $-1 0 25.018446035553644 0 0 -1 0 0 0 -1 forward_v I I I I #
coedge $-1 $268 $200 $203 $269 forward $121 $-1 #
coedge $-1 $206 $123 $124 $194 reversed $76 $-1 #
coedge $-1 $200 $268 $123 $192 reversed $121 $-1 #
edge $-1 $207 -7.08055541583626 $270 7.08055541583626 $191 $271 forward 7 unknown #
coedge $-1 $125 $124 $268 $272 forward $49 $-1 #
edge $-1 $198 -46.670125431073949 $270 46.670125431073949 $190 $273 forward 7 unknown #
coedge $-1 $203 $202 $125 $196 reversed $187 $-1 #
edge $-1 $274 -46.670125431073949 $197 46.670125431073949 $195 $275 forward 7 unknown #
vertex $-1 $127 $276 #
vertex $-1 $209 $277 #
straight-curve $-1 46.670125431073949 0 -7.08055541583626 0 -1 0 I I #
coedge $-1 $189 $191 $128 $201 reversed $121 $-1 #
edge $-1 $204 -25.018446035553644 $207 25.018446035553644 $200 $278 forward 7 unknown #
coedge $-1 $195 $129 $134 $210 forward $187 $-1 #
coedge $-1 $129 $195 $189 $269 reversed $187 $-1 #
vertex $-1 $130 $279 #
straight-curve $-1 0 25.018446035553644 7.08055541583626 -1 0 0 I I #
coedge $-1 $131 $190 $133 $209 reversed $76 $-1 #
vertex $-1 $201 $280 #
straight-curve $-1 0 -25.018446035553644 7.08055541583626 1 0 0 I I #
edge $-1 $136 -7.08055541583626 $198 7.08055541583626 $133 $281 forward 7 unknown #
edge $-1 $137 -7.08055541583626 $197 7.08055541583626 $134 $282 forward 7 unknown #
point $-1 46.670125431073949 -25.018446035553644 7.08055541583626 #
point $-1 46.670125431073949 25.018446035553644 7.08055541583626 #
face $-1 $-1 $154 $19 $-1 $283 reversed single #
loop $-1 $-1 $150 $139 #
plane-surface $-1 0 -25.018446035553644 0 0 1 0 0 0 1 forward_v I I I I #
coedge $-1 $284 $285 $147 $226 forward $140 $-1 #
coedge $-1 $227 $142 $144 $222 reversed $84 $-1 #
edge $-1 $224 0.2944737735819194 $155 3.2944737735819194 $153 $286 forward 7 unknown #
coedge $-1 $144 $143 $287 $288 reversed $53 $-1 #
coedge $-1 $231 $230 $143 $221 forward $214 $-1 #
edge $-1 $289 -46.670125431073949 $223 46.670125431073949 $220 $290 forward 7 unknown #
edge $-1 $291 -46.670125431073949 $224 46.670125431073949 $217 $292 forward 7 unknown #
vertex $-1 $221 $293 #
vertex $-1 $146 $294 #
straight-curve $-1 46.670125431073949 -10.766822299623716 2.0889475471638388 0 1 0 I I #
edge $-1 $232 -14.251623735929929 $228 -7.2820208633175021 $216 $295 forward 7 unknown #
coedge $-1 $148 $217 $284 $296 reversed $84 $-1 #
vertex $-1 $226 $297 #
straight-curve $-1 0 -18.048843162941218 5.0889475471638388 -1 0 0 I I #
coedge $-1 $220 $150 $285 $298 forward $214 $-1 #
coedge $-1 $150 $220 $152 $234 reversed $214 $-1 #
vertex $-1 $298 $299 #
straight-curve $-1 0 -25.018446035553644 5.0889475471638388 -1 0 0 I I #
edge $-1 $156 -5.0889475471638388 $223 -2.0889475471638388 $152 $300 forward 7 unknown #
point $-1 46.670125431073949 -18.048843162941218 5.0889475471638388 #
point $-1 46.670125431073949 -25.018446035553644 5.0889475471638388 #
plane-surface $-1 0 0 7.08055541583626 0 0 1 1 0 0 forward_v I I I I #
coedge $-1 $248 $247 $240 $301 forward $159 $-1 #
coedge $-1 $240 $161 $163 $244 reversed $92 $-1 #
coedge $-1 $161 $239 $238 $301 reversed $92 $-1 #
coedge $-1 $169 $164 $161 $242 forward $170 $-1 #
edge $-1 $245 -9.8926550047565733 $302 -4.5606074111517323 $241 $303 forward 7 unknown #
coedge $-1 $163 $162 $248 $304 reversed $57 $-1 #
edge $-1 $305 -50.036892071107303 $245 -42.218621566164671 $239 $306 forward 7 unknown #
vertex $-1 $165 $307 #
straight-curve $-1 -3.0795931250747692 19.6863984419488 7.0805554158362582 1 0 0 I I #
coedge $-1 $238 $166 $169 $252 reversed $159 $-1 #
coedge $-1 $166 $238 $243 $304 forward $159 $-1 #
vertex $-1 $167 $308 #
straight-curve $-1 -17.164915374526242 25.018446035553644 50.807599056494972 0 0 1 I I #
straight-curve $-1 -17.164915374526242 -9.106631856103526 37.957300924430029 0 0.68199835119979291 -0.73135370988377701 I I #
edge $-1 $302 -4.8465428742271648 $171 17.164915374526242 $247 $309 forward 7 unknown #
point $-1 -17.164915374526242 25.018446035553644 7.08055541583626 #
point $-1 -17.164915374526242 19.686398441948803 7.0805554158362547 #
edge $-1 $310 1 $310 0 $174 $-1 forward 7 unknown #
vertex $-1 $175 $311 #
ellipse-curve $-1 -12.762623724775565 20.988078288311275 2.9493235609486361 0 0.73135370988377701 0.68199835119979291 0.5 0 0 1 I I #
point $-1 -12.262623724775565 22.35242223875122 4.2215948465039128 #
edge $-1 $312 1 $312 0 $178 $-1 forward 7 unknown #
vertex $-1 $179 $313 #
ellipse-curve $-1 -6.1591862501495456 20.988078288311275 2.9493235609486361 0 0.73135370988377701 0.68199835119979291 0.5 0 0 1 I I #
point $-1 -5.6591862501495456 22.35242223875122 4.2215948465039128 #
edge $-1 $314 1 $314 0 $182 $-1 forward 7 unknown #
vertex $-1 $183 $315 #
ellipse-curve $-1 0.44425122447647425 20.988078288311275 2.9493235609486361 0 0.73135370988377701 0.68199835119979291 0.5 0 0 1 I I #
point $-1 0.94425122447647425 22.35242223875122 4.2215948465039128 #
plane-surface $-1 46.670125431073949 0 0 -1 0 0 0 0 1 forward_v I I I I #
coedge $-1 $191 $189 $193 $272 reversed $121 $-1 #
edge $-1 $204 -7.08055541583626 $274 7.08055541583626 $203 $316 forward 7 unknown #
vertex $-1 $272 $317 #
straight-curve $-1 -46.670125431073949 -25.018446035553644 0 0 0 -1 I I #
edge $-1 $270 -25.018446035553644 $274 25.018446035553644 $268 $318 forward 7 unknown #
straight-curve $-1 0 -25.018446035553644 -7.08055541583626 -1 0 0 I I #
vertex $-1 $196 $319 #
straight-curve $-1 0 25.018446035553644 -7.08055541583626 1 0 0 I I #
point $-1 46.670125431073949 25.018446035553644 -7.08055541583626 #
point $-1 46.670125431073949 -25.018446035553644 -7.08055541583626 #
straight-curve $-1 -46.670125431073949 0 7.08055541583626 0 -1 0 I I #
point $-1 -46.670125431073949 25.018446035553644 7.08055541583626 #
point $-1 -46.670125431073949 -25.018446035553644 7.08055541583626 #
straight-curve $-1 46.670125431073949 -25.018446035553644 0 0 0 -1 I I #
straight-curve $-1 46.670125431073949 25.018446035553644 0 0 0 -1 I I #
plane-surface $-1 46.670125431073949 0 0 -1 0 0 0 0 1 forward_v I I I I #
coedge $-1 $287 $216 $227 $296 forward $140 $-1 #
coedge $-1 $216 $287 $230 $298 reversed $140 $-1 #
straight-curve $-1 46.670125431073949 -18.048843162941218 1.7944737735819194 0 0 1 I I #
coedge $-1 $285 $284 $219 $288 forward $140 $-1 #
edge $-1 $291 7.2820208633175021 $289 14.251623735929929 $287 $320 forward 7 unknown #
vertex $-1 $221 $321 #
straight-curve $-1 0 -25.018446035553644 2.0889475471638388 1 0 0 I I #
vertex $-1 $288 $322 #
straight-curve $-1 0 -18.048843162941218 2.0889475471638388 1 0 0 I I #
point $-1 46.670125431073949 -25.018446035553644 2.0889475471638388 #
point $-1 46.670125431073949 -18.048843162941218 2.0889475471638388 #
straight-curve $-1 -46.670125431073949 -10.766822299623716 5.0889475471638388 0 1 0 I I #
edge $-1 $228 -3.2944737735819194 $291 -0.2944737735819194 $284 $323 forward 7 unknown #
point $-1 -46.670125431073949 -18.048843162941218 5.0889475471638388 #
edge $-1 $232 -5.0889475471638388 $289 -2.0889475471638388 $285 $324 forward 7 unknown #
point $-1 -46.670125431073949 -25.018446035553644 5.0889475471638388 #
straight-curve $-1 46.670125431073949 -25.018446035553644 0 0 0 -1 I I #
edge $-1 $302 43.727043640658714 $305 49.444964779323413 $238 $325 forward 7 unknown #
vertex $-1 $252 $326 #
straight-curve $-1 4.8465428742271648 29.579053446705377 7.0805554158362582 0 1 0 I I #
edge $-1 $305 -7.926135999301934 $249 14.085322249451472 $248 $327 forward 7 unknown #
vertex $-1 $304 $328 #
straight-curve $-1 4.8465428742271648 -9.106631856103526 37.957300924430029 0 -0.68199835119979291 0.73135370988377701 I I #
point $-1 4.8465428742271648 19.686398441948803 7.0805554158362547 #
point $-1 -17.164915374526242 25.018446035553644 1.3626342771715585 #
straight-curve $-1 0 25.018446035553644 7.08055541583626 -1 0 0 I I #
vertex $-1 $255 $329 #
point $-1 -12.262623724775565 20.988078288311275 2.9493235609486361 #
vertex $-1 $259 $330 #
point $-1 -5.6591862501495456 20.988078288311275 2.9493235609486361 #
vertex $-1 $263 $331 #
point $-1 0.94425122447647425 20.988078288311275 2.9493235609486361 #
straight-curve $-1 -46.670125431073949 25.018446035553644 0 0 0 -1 I I #
point $-1 -46.670125431073949 -25.018446035553644 -7.08055541583626 #
straight-curve $-1 -46.670125431073949 0 -7.08055541583626 0 1 0 I I #
point $-1 -46.670125431073949 25.018446035553644 -7.08055541583626 #
straight-curve $-1 -46.670125431073949 -10.766822299623716 2.0889475471638388 0 -1 0 I I #
point $-1 -46.670125431073949 -25.018446035553644 2.0889475471638388 #
point $-1 -46.670125431073949 -18.048843162941218 2.0889475471638388 #
straight-curve $-1 -46.670125431073949 -18.048843162941218 1.7944737735819194 0 0 -1 I I #
straight-curve $-1 -46.670125431073949 -25.018446035553644 0 0 0 -1 I I #
straight-curve $-1 4.8465428742271648 25.018446035553644 50.807599056494972 0 0 -1 I I #
point $-1 4.8465428742271648 25.018446035553644 7.08055541583626 #
straight-curve $-1 -3.0795931250747692 25.018446035553644 1.362634277171562 -1 0 0 I I #
point $-1 4.8465428742271648 25.018446035553644 1.3626342771715585 #
point $-1 -12.762623724775565 20.622401433369387 2.6083243853487397 #
point $-1 -6.1591862501495456 20.622401433369387 2.6083243853487397 #
point $-1 0.44425122447647425 20.622401433369387 2.6083243853487397 #
End-of-ACIS-data 