500 0 7 0           
7 Unknown 11 ACIS 5.0 NT 24 Thu Mar 25 16:52:38 1999 
-1 9.9999999999999995e-007 1e-010 
body $-1 $7 $-1 $8 #
body $-1 $9 $-1 $10 #
body $-1 $11 $-1 $12 #
body $-1 $13 $-1 $14 #
body $-1 $15 $-1 $16 #
body $-1 $17 $-1 $18 #
body $-1 $19 $-1 $20 #
lump $-1 $-1 $21 $0 #
transform $-1 1 0 0 0 1 0 0 0 1 51.024506363109225 26.835554841986458 9.0350817765519817 1 rotate no_reflect no_shear #
lump $-1 $-1 $22 $1 #
transform $-1 1 0 0 0 1 0 0 0 1 51.024506363109225 26.835554841986458 9.0350817765519817 1 rotate no_reflect no_shear #
lump $-1 $-1 $23 $2 #
transform $-1 1 0 0 0 1 0 0 0 1 51.024506363109225 26.835554841986458 9.0350817765519817 1 rotate no_reflect no_shear #
lump $-1 $-1 $24 $3 #
transform $-1 1 0 0 0 1 0 0 0 1 51.024506363109225 26.835554841986458 9.0350817765519817 1 rotate no_reflect no_shear #
lump $-1 $-1 $25 $4 #
transform $-1 1 0 0 0 1 0 0 0 1 51.024506363109225 26.835554841986458 9.0350817765519817 1 rotate no_reflect no_shear #
lump $-1 $-1 $26 $5 #
transform $-1 1 0 0 0 1 0 0 0 1 51.024506363109225 26.835554841986458 9.0350817765519817 1 rotate no_reflect no_shear #
lump $-1 $-1 $27 $6 #
transform $-1 1 0 0 0 1 0 0 0 1 51.024506363109225 26.835554841986458 9.0350817765519817 1 rotate no_reflect no_shear #
shell $-1 $-1 $-1 $28 $-1 $7 #
shell $-1 $-1 $-1 $29 $-1 $9 #
shell $-1 $-1 $-1 $30 $-1 $11 #
shell $-1 $-1 $-1 $31 $-1 $13 #
shell $-1 $-1 $-1 $32 $-1 $15 #
shell $-1 $-1 $-1 $33 $-1 $17 #
shell $-1 $-1 $-1 $34 $-1 $19 #
face $-1 $35 $36 $21 $-1 $37 forward single #
face $-1 $38 $39 $22 $-1 $40 reversed single #
face $-1 $41 $42 $23 $-1 $43 reversed single #
face $-1 $44 $45 $24 $-1 $46 forward single #
face $-1 $47 $48 $25 $-1 $49 reversed single #
face $-1 $50 $51 $26 $-1 $52 forward single #
face $-1 $53 $54 $27 $-1 $55 forward single #
face $-1 $56 $57 $21 $-1 $58 reversed single #
loop $-1 $-1 $59 $28 #
plane-surface $-1 0 0 9.0350817765519817 0 0 1 1 0 0 forward_v I I I I #
face $-1 $60 $61 $22 $-1 $62 reversed single #
loop $-1 $-1 $63 $29 #
plane-surface $-1 0 -21.117536780622469 5.6198556079061648 0 0 1 1 0 0 forward_v I I I I #
face $-1 $64 $65 $23 $-1 $66 reversed single #
loop $-1 $-1 $67 $30 #
plane-surface $-1 -51.024506363109225 -10.633816239323259 4.0739150308405812 -0.51503808176128008 0 0.85716729658548041 0.85716729658548041 0 0.51503808176128008 forward_v I I I I #
face $-1 $68 $69 $24 $-1 $70 forward single #
loop $-1 $71 $72 $31 #
cone-surface $-1 -46.190206518973149 -10.633816239323259 5.3796570643876356 0.51503808176128008 0 -0.85716729658548041 1.2857509448782207 0 0.77255712264192011 1 I I 0 1 1.5 forward I I I I #
face $-1 $73 $74 $25 $-1 $75 reversed single #
loop $-1 $-1 $76 $32 #
plane-surface $-1 -13.197017189152632 22.543671756995515 84.100676071285946 0.77714596973225614 0 0.62932038083071107 0.62932038083071107 0 -0.77714596973225614 forward_v I I I I #
face $-1 $77 $78 $26 $-1 $79 forward single #
loop $-1 $80 $81 $33 #
cone-surface $-1 47.77286982020405 20.704293291999399 5.6719104662742375 -0.77714596973225614 0 -0.62932038083071107 0.62932038083071107 0 -0.77714596973225614 1 I I 0 1 1 forward I I I I #
face $-1 $82 $83 $27 $-1 $84 forward single #
loop $-1 $85 $86 $34 #
cone-surface $-1 47.77286982020405 24.383050221991631 5.6719104662742375 -0.77714596973225614 0 -0.62932038083071107 0.62932038083071107 0 -0.77714596973225614 1 I I 0 1 1 forward I I I I #
face $-1 $87 $88 $21 $-1 $89 reversed single #
loop $-1 $-1 $90 $35 #
plane-surface $-1 0 0 -9.0350817765519817 0 0 1 1 0 0 forward_v I I I I #
coedge $-1 $91 $92 $93 $94 forward $36 $-1 #
face $-1 $95 $96 $22 $-1 $97 reversed single #
loop $-1 $-1 $98 $38 #
plane-surface $-1 0 -15.399518719258481 7.3274686922290737 0 -1 0 0 0 -1 forward_v I I I I #
coedge $-1 $99 $100 $101 $102 reversed $39 $-1 #
face $-1 $103 $104 $23 $-1 $105 forward single #
loop $-1 $-1 $106 $41 #
plane-surface $-1 -103.58363412325323 -5.868113759388037 91.546991388590541 0 -1 0 0.51503808176128008 0 -0.85716729658548041 forward_v I I I I #
coedge $-1 $107 $108 $109 $110 reversed $42 $-1 #
face $-1 $-1 $111 $24 $-1 $112 forward single #
loop $-1 $113 $114 $44 #
cone-surface $-1 -45.098012050475447 -10.633816239323259 3.5619402526398805 0.51503808176128008 0 -0.85716729658548041 0.64287547243911036 0 0.38627856132096006 1 I I -0.70710678118654757 0.70710678118654757 0.75 forward I I I I #
loop $-1 $-1 $115 $31 #
coedge $-1 $72 $72 $116 $117 reversed $45 $-1 #
face $-1 $118 $119 $25 $-1 $120 reversed single #
loop $-1 $-1 $121 $47 #
plane-surface $-1 66.109961766183758 18.251788672004576 148.32219962354782 0 1 0 0.77714596973225614 0 0.62932038083071107 forward_v I I I I #
coedge $-1 $122 $123 $124 $125 reversed $48 $-1 #
face $-1 $-1 $126 $26 $-1 $127 forward single #
loop $-1 $128 $129 $50 #
cone-surface $-1 45.849963034657236 20.704293291999399 4.1147712958823579 -0.77714596973225614 0 -0.62932038083071107 0.31466019041535553 0 -0.38857298486612807 1 I I -0.70710678118654746 0.70710678118654746 0.5 forward I I I I #
loop $-1 $-1 $130 $33 #
coedge $-1 $81 $81 $131 $132 reversed $51 $-1 #
face $-1 $-1 $133 $27 $-1 $134 forward single #
loop $-1 $135 $136 $53 #
cone-surface $-1 45.849963034657236 24.383050221991631 4.1147712958823579 -0.77714596973225614 0 -0.62932038083071107 0.31466019041535553 0 -0.38857298486612807 1 I I -0.70710678118654746 0.70710678118654746 0.5 forward I I I I #
loop $-1 $-1 $137 $34 #
coedge $-1 $86 $86 $138 $139 reversed $54 $-1 #
face $-1 $140 $141 $21 $-1 $142 reversed single #
loop $-1 $-1 $143 $56 #
plane-surface $-1 0 -26.835554841986458 0 0 1 0 0 0 1 forward_v I I I I #
coedge $-1 $144 $145 $146 $147 forward $57 $-1 #
coedge $-1 $148 $59 $149 $150 forward $36 $-1 #
coedge $-1 $59 $148 $151 $152 forward $36 $-1 #
coedge $-1 $153 $154 $59 $94 reversed $155 $-1 #
edge $-1 $156 -26.835554841986458 $157 26.835554841986458 $93 $158 forward 7 unknown #
face $-1 $159 $160 $22 $-1 $161 reversed single #
loop $-1 $-1 $162 $60 #
plane-surface $-1 -51.024506363109225 0 0 1 0 0 0 0 -1 forward_v I I I I #
coedge $-1 $163 $164 $165 $166 reversed $61 $-1 #
coedge $-1 $167 $63 $168 $169 reversed $39 $-1 #
coedge $-1 $63 $167 $163 $170 forward $39 $-1 #
coedge $-1 $165 $171 $63 $102 forward $172 $-1 #
edge $-1 $173 -16.276786451675221 $174 -4.8407503289472462 $101 $175 forward 7 unknown #
face $-1 $176 $177 $23 $-1 $178 reversed single #
loop $-1 $-1 $109 $64 #
plane-surface $-1 0 0 9.0350817765519817 0 0 1 1 0 0 forward_v I I I I #
coedge $-1 $179 $180 $181 $182 reversed $65 $-1 #
coedge $-1 $183 $67 $184 $185 reversed $42 $-1 #
coedge $-1 $67 $183 $179 $186 forward $42 $-1 #
coedge $-1 $181 $187 $67 $110 forward $104 $-1 #
edge $-1 $188 -10.082610599596851 $189 -0.55120563972640735 $109 $190 forward 7 unknown #
loop $-1 $-1 $116 $68 #
plane-surface $-1 -51.024506363109225 -10.633816239323259 4.0739150308405812 -0.51503808176128008 0 0.85716729658548041 0.85716729658548041 0 0.51503808176128008 forward_v I I I I #
loop $-1 $-1 $191 $44 #
coedge $-1 $114 $114 $115 $192 reversed $69 $-1 #
coedge $-1 $115 $115 $114 $192 forward $71 $-1 #
coedge $-1 $116 $116 $72 $117 forward $111 $-1 #
edge $-1 $193 0 $193 6.2831853071796004 $116 $194 forward 7 unknown #
face $-1 $195 $196 $25 $-1 $197 forward single #
loop $-1 $-1 $198 $73 #
plane-surface $-1 0 26.835554841986458 0 0 -1 0 0 0 -1 forward_v I I I I #
coedge $-1 $199 $200 $201 $202 reversed $74 $-1 #
coedge $-1 $203 $76 $198 $204 reversed $48 $-1 #
coedge $-1 $76 $203 $199 $205 forward $48 $-1 #
coedge $-1 $201 $206 $76 $125 forward $196 $-1 #
edge $-1 $207 -15.563718963488697 $208 -6.9799527935068184 $124 $209 forward 7 unknown #
loop $-1 $-1 $131 $77 #
plane-surface $-1 -13.197017189152632 22.543671756995515 84.100676071285946 0.77714596973225614 0 0.62932038083071107 0.62932038083071107 0 -0.77714596973225614 forward_v I I I I #
loop $-1 $-1 $210 $50 #
coedge $-1 $129 $129 $130 $211 reversed $78 $-1 #
coedge $-1 $130 $130 $129 $211 forward $80 $-1 #
coedge $-1 $131 $131 $81 $132 forward $126 $-1 #
edge $-1 $212 0 $212 6.2831853071796004 $131 $213 forward 7 unknown #
loop $-1 $-1 $138 $82 #
plane-surface $-1 -13.197017189152632 22.543671756995515 84.100676071285946 0.77714596973225614 0 0.62932038083071107 0.62932038083071107 0 -0.77714596973225614 forward_v I I I I #
loop $-1 $-1 $214 $53 #
coedge $-1 $136 $136 $137 $215 reversed $83 $-1 #
coedge $-1 $137 $137 $136 $215 forward $85 $-1 #
coedge $-1 $138 $138 $86 $139 forward $133 $-1 #
edge $-1 $216 0 $216 6.2831853071796004 $138 $217 forward 7 unknown #
face $-1 $218 $219 $21 $-1 $220 reversed single #
loop $-1 $-1 $221 $87 #
plane-surface $-1 -51.024506363109225 0 0 1 0 0 0 0 -1 forward_v I I I I #
coedge $-1 $222 $151 $223 $224 forward $88 $-1 #
coedge $-1 $225 $90 $222 $226 forward $57 $-1 #
coedge $-1 $90 $225 $227 $228 forward $57 $-1 #
coedge $-1 $154 $153 $90 $147 reversed $155 $-1 #
edge $-1 $229 -26.835554841986458 $230 26.835554841986458 $146 $231 forward 7 unknown #
coedge $-1 $92 $91 $232 $233 forward $36 $-1 #
coedge $-1 $234 $235 $91 $150 reversed $219 $-1 #
edge $-1 $157 -51.024506363109225 $236 51.024506363109225 $149 $237 forward 7 unknown #
coedge $-1 $143 $238 $92 $152 reversed $88 $-1 #
edge $-1 $239 -51.024506363109225 $156 51.024506363109225 $151 $240 forward 7 unknown #
coedge $-1 $146 $93 $238 $241 forward $155 $-1 #
coedge $-1 $93 $146 $234 $242 reversed $155 $-1 #
loop $-1 $-1 $153 $218 #
vertex $-1 $94 $243 #
vertex $-1 $94 $244 #
straight-curve $-1 51.024506363109225 0 9.0350817765519817 0 1 0 I I #
face $-1 $245 $246 $22 $-1 $247 forward single #
loop $-1 $-1 $168 $95 #
plane-surface $-1 0 -26.835554841986458 0 0 1 0 0 0 1 forward_v I I I I #
coedge $-1 $248 $249 $250 $251 forward $96 $-1 #
coedge $-1 $250 $98 $100 $170 reversed $61 $-1 #
coedge $-1 $98 $250 $252 $253 reversed $61 $-1 #
coedge $-1 $254 $101 $98 $166 forward $172 $-1 #
edge $-1 $174 1.9561212617916279 $255 5.3713474304374467 $165 $256 forward 7 unknown #
coedge $-1 $100 $99 $248 $257 reversed $39 $-1 #
coedge $-1 $258 $259 $99 $169 forward $160 $-1 #
edge $-1 $260 -51.024506363109225 $173 51.024506363109225 $168 $261 forward 7 unknown #
edge $-1 $262 -51.024506363109225 $174 51.024506363109225 $163 $263 forward 7 unknown #
coedge $-1 $101 $254 $258 $264 forward $172 $-1 #
loop $-1 $-1 $165 $245 #
vertex $-1 $169 $265 #
vertex $-1 $102 $266 #
straight-curve $-1 51.024506363109225 -10.558768390311235 5.6198556079061648 0 1 0 I I #
face $-1 $-1 $267 $23 $-1 $268 forward single #
loop $-1 $-1 $269 $103 #
plane-surface $-1 -51.024506363109225 0 0 1 0 0 0 0 -1 forward_v I I I I #
coedge $-1 $180 $106 $108 $186 reversed $65 $-1 #
coedge $-1 $106 $179 $269 $270 reversed $65 $-1 #
coedge $-1 $271 $109 $106 $182 forward $104 $-1 #
edge $-1 $189 -9.0240785724360464 $272 -0.76731069851739164 $181 $273 forward 7 unknown #
coedge $-1 $108 $107 $274 $275 reversed $42 $-1 #
coedge $-1 $276 $277 $107 $185 forward $267 $-1 #
edge $-1 $278 -22.706121107771949 $188 -13.073499906742196 $184 $279 forward 7 unknown #
edge $-1 $280 0 $189 9.6326212010297496 $179 $281 forward 7 unknown #
coedge $-1 $109 $271 $276 $282 forward $104 $-1 #
vertex $-1 $185 $283 #
vertex $-1 $110 $284 #
straight-curve $-1 -42.76773848919057 -5.3169081196616297 9.03508177655198 0 1 0 I I #
coedge $-1 $191 $191 $-1 $285 reversed $113 $-1 #
edge $-1 $286 0 $286 6.2831853071796004 $114 $287 forward 7 unknown #
vertex $-1 $117 $288 #
ellipse-curve $-1 -46.896122426149894 -10.633816239323259 6.5544984036962832 -0.51503808176128008 0 0.85716729658548041 1.2857509448782207 0 0.77255712264192011 1 I I #
face $-1 $-1 $289 $25 $-1 $290 reversed single #
loop $-1 $-1 $124 $118 #
plane-surface $-1 0 0 9.0350817765519817 0 0 1 1 0 0 forward_v I I I I #
coedge $-1 $291 $292 $122 $204 forward $119 $-1 #
coedge $-1 $200 $121 $123 $205 reversed $74 $-1 #
coedge $-1 $121 $199 $293 $294 reversed $74 $-1 #
coedge $-1 $295 $124 $121 $202 forward $196 $-1 #
edge $-1 $208 14.534919995568359 $296 17.969525480017346 $201 $297 forward 7 unknown #
coedge $-1 $123 $122 $298 $299 reversed $48 $-1 #
edge $-1 $300 -65.217186054286003 $207 -59.759543827737943 $198 $301 forward 7 unknown #
edge $-1 $302 -102.04901272621842 $208 -96.591370499670376 $199 $303 forward 7 unknown #
coedge $-1 $124 $295 $291 $304 forward $196 $-1 #
vertex $-1 $204 $305 #
vertex $-1 $125 $306 #
straight-curve $-1 47.589900878660231 11.271835878497757 9.0350817765519906 0 -1 0 I I #
coedge $-1 $210 $210 $-1 $307 reversed $128 $-1 #
edge $-1 $308 0 $308 6.2831853071796004 $129 $309 forward 7 unknown #
vertex $-1 $132 $310 #
ellipse-curve $-1 49.307203620884742 20.704293291999399 6.9143894462507669 0.77714596973225614 0 0.62932038083071107 0.62932038083071107 0 -0.77714596973225614 1 I I #
coedge $-1 $214 $214 $-1 $311 reversed $135 $-1 #
edge $-1 $312 0 $312 6.2831853071796004 $136 $313 forward 7 unknown #
vertex $-1 $139 $314 #
ellipse-curve $-1 49.307203620884742 24.383050221991631 6.9143894462507669 0.77714596973225614 0 0.62932038083071107 0.62932038083071107 0 -0.77714596973225614 1 I I #
face $-1 $-1 $155 $21 $-1 $315 reversed single #
loop $-1 $-1 $234 $140 #
plane-surface $-1 0 26.835554841986458 0 0 -1 0 0 0 -1 forward_v I I I I #
coedge $-1 $316 $232 $235 $317 forward $141 $-1 #
coedge $-1 $238 $143 $144 $226 reversed $88 $-1 #
coedge $-1 $232 $316 $143 $224 reversed $141 $-1 #
edge $-1 $239 -9.0350817765519817 $318 9.0350817765519817 $223 $319 forward 7 unknown #
coedge $-1 $145 $144 $316 $320 forward $57 $-1 #
edge $-1 $230 -51.024506363109225 $318 51.024506363109225 $222 $321 forward 7 unknown #
coedge $-1 $235 $234 $145 $228 reversed $219 $-1 #
edge $-1 $322 -51.024506363109225 $229 51.024506363109225 $227 $323 forward 7 unknown #
vertex $-1 $147 $324 #
vertex $-1 $241 $325 #
straight-curve $-1 51.024506363109225 0 -9.0350817765519817 0 -1 0 I I #
coedge $-1 $221 $223 $148 $233 reversed $141 $-1 #
edge $-1 $236 -26.835554841986458 $239 26.835554841986458 $232 $326 forward 7 unknown #
coedge $-1 $227 $149 $154 $242 forward $219 $-1 #
coedge $-1 $149 $227 $221 $317 reversed $219 $-1 #
vertex $-1 $150 $327 #
straight-curve $-1 0 26.835554841986458 9.0350817765519817 -1 0 0 I I #
coedge $-1 $151 $222 $153 $241 reversed $88 $-1 #
vertex $-1 $233 $328 #
straight-curve $-1 0 -26.835554841986458 9.0350817765519817 1 0 0 I I #
edge $-1 $156 -9.0350817765519817 $230 9.0350817765519817 $153 $329 forward 7 unknown #
edge $-1 $157 -9.0350817765519817 $229 9.0350817765519817 $154 $330 forward 7 unknown #
point $-1 51.024506363109225 -26.835554841986458 9.0350817765519817 #
point $-1 51.024506363109225 26.835554841986458 9.0350817765519817 #
face $-1 $-1 $172 $22 $-1 $331 reversed single #
loop $-1 $-1 $252 $159 #
plane-surface $-1 0 0 9.0350817765519817 0 0 1 1 0 0 forward_v I I I I #
coedge $-1 $332 $162 $167 $257 forward $96 $-1 #
coedge $-1 $162 $332 $333 $334 reversed $96 $-1 #
coedge $-1 $164 $163 $162 $251 reversed $61 $-1 #
edge $-1 $335 -5.3713474304374467 $262 -1.9561212617916279 $162 $336 forward 7 unknown #
coedge $-1 $333 $337 $164 $253 forward $246 $-1 #
edge $-1 $255 -51.024506363109225 $335 51.024506363109225 $252 $338 forward 7 unknown #
coedge $-1 $171 $165 $337 $339 reversed $172 $-1 #
vertex $-1 $166 $340 #
straight-curve $-1 51.024506363109225 -15.399518719258481 3.6637343461145369 0 0 1 I I #
edge $-1 $262 4.8407503289472462 $260 16.276786451675221 $248 $341 forward 7 unknown #
coedge $-1 $342 $168 $171 $264 reversed $160 $-1 #
coedge $-1 $168 $342 $332 $343 forward $160 $-1 #
vertex $-1 $169 $344 #
straight-curve $-1 0 -26.835554841986458 5.6198556079061648 1 0 0 I I #
vertex $-1 $257 $345 #
straight-curve $-1 0 -15.399518719258481 5.6198556079061648 1 0 0 I I #
edge $-1 $346 -9.0350817765519817 $173 -5.6198556079061648 $171 $347 forward 7 unknown #
point $-1 51.024506363109225 -26.835554841986458 5.6198556079061648 #
point $-1 51.024506363109225 -15.399518719258481 5.6198556079061648 #
loop $-1 $-1 $184 $176 #
plane-surface $-1 0 -15.399518719258481 7.3274686922290737 0 -1 0 0 0 -1 forward_v I I I I #
coedge $-1 $274 $348 $180 $270 forward $177 $-1 #
edge $-1 $272 36.738413917743287 $280 41.699580663454689 $269 $349 forward 7 unknown #
coedge $-1 $187 $181 $348 $350 forward $104 $-1 #
vertex $-1 $350 $351 #
straight-curve $-1 -51.791817061626617 -5.868113759388037 9.0350817765519835 -1 0 0 I I #
coedge $-1 $352 $269 $183 $275 forward $177 $-1 #
edge $-1 $280 0.55120563972640735 $278 10.082610599596851 $274 $353 forward 7 unknown #
coedge $-1 $277 $184 $187 $282 reversed $267 $-1 #
coedge $-1 $184 $276 $352 $354 reversed $267 $-1 #
vertex $-1 $354 $355 #
straight-curve $-1 -31.56156191721783 -15.399518719258481 15.768432090426757 0.85716729658548041 0 0.51503808176128008 I I #
vertex $-1 $275 $356 #
straight-curve $-1 -51.024506363109225 -5.868113759388037 4.0739150308405812 0.85716729658548041 0 0.51503808176128008 I I #
edge $-1 $357 -51.024506363109225 $188 -42.76773848919057 $187 $358 forward 7 unknown #
point $-1 -42.76773848919057 -15.399518719258481 9.0350817765519817 #
point $-1 -42.76773848919057 -5.868113759388037 9.0350817765519817 #
edge $-1 $359 1 $359 0 $191 $-1 forward 7 unknown #
vertex $-1 $192 $360 #
ellipse-curve $-1 -45.484290611796403 -10.633816239323259 4.2048157250789906 -0.51503808176128008 0 0.85716729658548041 1.2857509448782207 0 0.77255712264192011 1 I I #
point $-1 -45.610371481271677 -10.633816239323259 7.3270555263382011 #
loop $-1 $-1 $298 $195 #
plane-surface $-1 51.024506363109225 0 0 -1 0 0 0 0 1 forward_v I I I I #
coedge $-1 $292 $198 $206 $304 reversed $119 $-1 #
coedge $-1 $198 $291 $361 $362 forward $119 $-1 #
coedge $-1 $298 $363 $200 $294 forward $289 $-1 #
edge $-1 $296 65.126018035221932 $302 69.367402695824325 $293 $364 forward 7 unknown #
coedge $-1 $206 $201 $363 $365 forward $196 $-1 #
vertex $-1 $365 $366 #
straight-curve $-1 33.054980883091879 18.251788672004576 9.0350817765519764 1 0 0 I I #
coedge $-1 $361 $293 $203 $299 forward $289 $-1 #
edge $-1 $302 6.9799527935068184 $300 15.563718963488697 $298 $367 forward 7 unknown #
vertex $-1 $204 $368 #
straight-curve $-1 9.9820019987186193 26.835554841986458 55.476970415316643 -0.62932038083071107 0 0.77714596973225614 I I #
vertex $-1 $299 $369 #
straight-curve $-1 -13.197017189152632 18.251788672004576 84.100676071285946 -0.62932038083071107 0 0.77714596973225614 I I #
edge $-1 $370 -51.024506363109225 $207 -47.589900878660238 $291 $371 forward 7 unknown #
point $-1 47.589900878660238 26.835554841986454 9.0350817765519764 #
point $-1 47.589900878660238 18.251788672004576 9.0350817765519764 #
edge $-1 $372 1 $372 0 $210 $-1 forward 7 unknown #
vertex $-1 $211 $373 #
ellipse-curve $-1 46.238536019523366 20.704293291999399 4.4294314862977133 0.77714596973225614 0 0.62932038083071107 0.62932038083071107 0 -0.77714596973225614 1 I I #
point $-1 49.936524001715441 20.704293291999399 6.1372434765185053 #
edge $-1 $374 1 $374 0 $214 $-1 forward 7 unknown #
vertex $-1 $215 $375 #
ellipse-curve $-1 46.238536019523366 24.383050221991631 4.4294314862977133 0.77714596973225614 0 0.62932038083071107 0.62932038083071107 0 -0.77714596973225614 1 I I #
point $-1 49.936524001715441 24.383050221991631 6.1372434765185053 #
plane-surface $-1 51.024506363109225 0 0 -1 0 0 0 0 1 forward_v I I I I #
coedge $-1 $223 $221 $225 $320 reversed $141 $-1 #
edge $-1 $236 -9.0350817765519817 $322 9.0350817765519817 $235 $376 forward 7 unknown #
vertex $-1 $320 $377 #
straight-curve $-1 -51.024506363109225 -26.835554841986458 0 0 0 -1 I I #
edge $-1 $318 -26.835554841986458 $322 26.835554841986458 $316 $378 forward 7 unknown #
straight-curve $-1 0 -26.835554841986458 -9.0350817765519817 -1 0 0 I I #
vertex $-1 $228 $379 #
straight-curve $-1 0 26.835554841986458 -9.0350817765519817 1 0 0 I I #
point $-1 51.024506363109225 26.835554841986458 -9.0350817765519817 #
point $-1 51.024506363109225 -26.835554841986458 -9.0350817765519817 #
straight-curve $-1 -51.024506363109225 0 9.0350817765519817 0 -1 0 I I #
point $-1 -51.024506363109225 26.835554841986458 9.0350817765519817 #
point $-1 -51.024506363109225 -26.835554841986458 9.0350817765519817 #
straight-curve $-1 51.024506363109225 -26.835554841986458 0 0 0 -1 I I #
straight-curve $-1 51.024506363109225 26.835554841986458 0 0 0 -1 I I #
plane-surface $-1 51.024506363109225 0 0 -1 0 0 0 0 1 forward_v I I I I #
coedge $-1 $249 $248 $259 $343 reversed $96 $-1 #
coedge $-1 $380 $252 $249 $334 forward $246 $-1 #
edge $-1 $335 15.399518719258481 $381 26.835554841986458 $249 $382 forward 7 unknown #
vertex $-1 $334 $383 #
straight-curve $-1 -51.024506363109225 -15.399518719258481 3.6637343461145369 0 0 -1 I I #
coedge $-1 $252 $380 $254 $339 forward $246 $-1 #
straight-curve $-1 0 -15.399518719258481 9.0350817765519817 -1 0 0 I I #
edge $-1 $346 -26.835554841986458 $255 -15.399518719258481 $254 $384 forward 7 unknown #
point $-1 51.024506363109225 -15.399518719258481 9.0350817765519835 #
straight-curve $-1 -51.024506363109225 -10.558768390311235 5.6198556079061648 0 -1 0 I I #
coedge $-1 $259 $258 $380 $385 reversed $160 $-1 #
edge $-1 $381 -9.0350817765519817 $260 -5.6198556079061648 $332 $386 forward 7 unknown #
point $-1 -51.024506363109225 -26.835554841986458 5.6198556079061648 #
point $-1 -51.024506363109225 -15.399518719258481 5.6198556079061648 #
vertex $-1 $339 $387 #
straight-curve $-1 51.024506363109225 -26.835554841986458 0 0 0 -1 I I #
coedge $-1 $269 $352 $271 $350 reversed $177 $-1 #
straight-curve $-1 -51.024506363109225 -5.868113759388037 45.773495694295271 0 0 -1 I I #
edge $-1 $272 5.868113759388037 $357 15.399518719258481 $348 $388 forward 7 unknown #
point $-1 -51.024506363109225 -5.868113759388037 9.0350817765519817 #
coedge $-1 $348 $274 $277 $354 forward $177 $-1 #
straight-curve $-1 -51.024506363109225 -5.3169081196616297 4.0739150308405803 0 -1 0 I I #
edge $-1 $278 -41.699580663454689 $357 -36.738413917743287 $352 $389 forward 7 unknown #
point $-1 -51.024506363109225 -15.399518719258481 4.0739150308405812 #
point $-1 -51.024506363109225 -5.868113759388037 4.0739150308405812 #
vertex $-1 $354 $390 #
straight-curve $-1 0 -15.399518719258481 9.0350817765519817 1 0 0 I I #
vertex $-1 $285 $391 #
point $-1 -44.198539666918187 -10.633816239323259 4.9773728477209112 #
coedge $-1 $363 $298 $292 $362 reversed $289 $-1 #
edge $-1 $370 -9.0350817765519817 $300 -4.793697115949584 $361 $392 forward 7 unknown #
coedge $-1 $293 $361 $295 $365 reversed $289 $-1 #
straight-curve $-1 51.024506363109225 18.251788672004576 74.161099811773909 0 0 -1 I I #
edge $-1 $296 18.251788672004576 $370 26.835554841986458 $363 $393 forward 7 unknown #
point $-1 51.024506363109225 18.251788672004576 9.0350817765519817 #
straight-curve $-1 51.024506363109225 11.271835878497757 4.7936971159495769 0 1 0 I I #
point $-1 51.024506363109225 26.835554841986454 4.793697115949584 #
point $-1 51.024506363109225 18.251788672004576 4.793697115949584 #
vertex $-1 $365 $394 #
straight-curve $-1 0 26.835554841986458 9.0350817765519817 -1 0 0 I I #
vertex $-1 $307 $395 #
point $-1 46.867856400354079 20.704293291999399 3.6522855165654571 #
vertex $-1 $311 $396 #
point $-1 46.867856400354079 24.383050221991631 3.6522855165654571 #
straight-curve $-1 -51.024506363109225 26.835554841986458 0 0 0 -1 I I #
point $-1 -51.024506363109225 -26.835554841986458 -9.0350817765519817 #
straight-curve $-1 -51.024506363109225 0 -9.0350817765519817 0 1 0 I I #
point $-1 -51.024506363109225 26.835554841986458 -9.0350817765519817 #
coedge $-1 $337 $333 $342 $385 forward $246 $-1 #
vertex $-1 $334 $397 #
straight-curve $-1 -51.024506363109225 0 9.0350817765519817 0 -1 0 I I #
point $-1 -51.024506363109225 -15.399518719258481 9.0350817765519835 #
straight-curve $-1 51.024506363109225 0 9.0350817765519817 0 1 0 I I #
edge $-1 $381 -51.024506363109225 $346 51.024506363109225 $342 $398 forward 7 unknown #
straight-curve $-1 -51.024506363109225 -26.835554841986458 0 0 0 -1 I I #
point $-1 51.024506363109225 -26.835554841986458 9.0350817765519817 #
straight-curve $-1 -51.024506363109225 0 9.0350817765519817 0 -1 0 I I #
straight-curve $-1 -51.024506363109225 -15.399518719258481 45.773495694295271 0 0 1 I I #
point $-1 -51.024506363109225 -15.399518719258481 9.0350817765519835 #
point $-1 -44.71173348915449 -10.633816239323259 2.9190647802007703 #
straight-curve $-1 51.024506363109225 26.835554841986458 0 0 0 -1 I I #
straight-curve $-1 51.024506363109225 0 9.0350817765519817 0 1 0 I I #
point $-1 51.024506363109225 26.835554841986458 9.0350817765519817 #
point $-1 45.461390049791106 20.704293291999399 3.8001111054670025 #
point $-1 45.461390049791106 24.383050221991631 3.8001111054670025 #
point $-1 -51.024506363109225 -26.835554841986458 9.0350817765519817 #
straight-curve $-1 0 -26.835554841986458 9.0350817765519817 1 0 0 I I #
End-of-ACIS-data 