500 0 5 0           
7 Unknown 11 ACIS 5.0 NT 24 Fri Mar 26 19:09:49 1999 
-1 9.9999999999999995e-007 1e-010 
body $-1 $5 $-1 $6 #
body $-1 $7 $-1 $8 #
body $-1 $9 $-1 $10 #
body $-1 $11 $-1 $12 #
body $-1 $13 $-1 $14 #
lump $-1 $-1 $15 $0 #
transform $-1 1 0 0 0 1 0 0 0 1 59.645374919888908 37.626079828610237 16.870474551407693 1 rotate no_reflect no_shear #
lump $-1 $-1 $16 $1 #
transform $-1 1 0 0 0 1 0 0 0 1 59.645374919888908 37.626079828610237 16.870474551407693 1 rotate no_reflect no_shear #
lump $-1 $-1 $17 $2 #
transform $-1 1 0 0 0 1 0 0 0 1 59.645374919888908 37.626079828610237 16.870474551407693 1 rotate no_reflect no_shear #
lump $-1 $-1 $18 $3 #
transform $-1 1 0 0 0 1 0 0 0 1 59.645374919888908 37.626079828610237 16.870474551407693 1 rotate no_reflect no_shear #
lump $-1 $-1 $19 $4 #
transform $-1 1 0 0 0 1 0 0 0 1 59.645374919888908 37.626079828610237 16.870474551407693 1 rotate no_reflect no_shear #
shell $-1 $-1 $-1 $20 $-1 $5 #
shell $-1 $-1 $-1 $21 $-1 $7 #
shell $-1 $-1 $-1 $22 $-1 $9 #
shell $-1 $-1 $-1 $23 $-1 $11 #
shell $-1 $-1 $-1 $24 $-1 $13 #
face $-1 $25 $26 $15 $-1 $27 forward single #
face $-1 $28 $29 $16 $-1 $30 reversed single #
face $-1 $31 $32 $17 $-1 $33 reversed single #
face $-1 $34 $35 $18 $-1 $36 forward single #
face $-1 $37 $38 $19 $-1 $39 forward single #
face $-1 $40 $41 $15 $-1 $42 reversed single #
loop $-1 $-1 $43 $20 #
plane-surface $-1 0 0 16.870474551407693 0 0 1 1 0 0 forward_v I I I I #
face $-1 $44 $45 $16 $-1 $46 reversed single #
loop $-1 $-1 $47 $21 #
plane-surface $-1 -55.781389066412558 -15.452539678581735 0 0 -1 0 0 0 -1 forward_v I I I I #
face $-1 $48 $49 $17 $-1 $50 reversed single #
loop $-1 $-1 $51 $22 #
plane-surface $-1 -157.36263748620007 26.122937077685364 77.429471312844854 0 1 0 -0.81915205242281985 0 0.57357642473473569 forward_v I I I I #
face $-1 $52 $53 $18 $-1 $54 forward single #
loop $-1 $55 $56 $23 #
cone-surface $-1 -55.556806180731392 29.409549292235319 12.003612319167868 0.81915205242281985 0 -0.57357642473473569 0.57357642473473569 0 0.81915205242281985 1 I I 0 1 1 forward I I I I #
face $-1 $57 $58 $19 $-1 $59 forward single #
loop $-1 $60 $61 $24 #
cone-surface $-1 -55.556806180731392 34.339467614060261 12.003612319167868 0.81915205242281985 0 -0.57357642473473569 0.57357642473473569 0 0.81915205242281985 1 I I 0 1 1 forward I I I I #
face $-1 $62 $63 $15 $-1 $64 reversed single #
loop $-1 $-1 $65 $25 #
plane-surface $-1 0 0 -16.870474551407693 0 0 1 1 0 0 forward_v I I I I #
coedge $-1 $66 $67 $68 $69 forward $26 $-1 #
face $-1 $70 $71 $16 $-1 $72 forward single #
loop $-1 $-1 $73 $28 #
plane-surface $-1 -51.917403212936208 -26.539309753595987 0 -1 0 0 0 0 1 forward_v I I I I #
coedge $-1 $74 $75 $76 $77 forward $29 $-1 #
face $-1 $78 $79 $17 $-1 $80 reversed single #
loop $-1 $-1 $81 $31 #
plane-surface $-1 -59.645374919888923 31.874508453147804 9.0071095158193515 -0.81915205242281985 0 0.57357642473473569 0.57357642473473569 0 0.81915205242281985 forward_v I I I I #
coedge $-1 $82 $83 $84 $85 reversed $32 $-1 #
face $-1 $-1 $86 $18 $-1 $87 forward single #
loop $-1 $88 $89 $34 #
cone-surface $-1 -53.811655069078441 29.409549292235319 10.781644392354842 0.81915205242281985 0 -0.57357642473473569 0.28678821236736785 0 0.40957602621140993 1 I I -0.70710678118654746 0.70710678118654746 0.5 forward I I I I #
loop $-1 $-1 $90 $23 #
coedge $-1 $56 $56 $91 $92 reversed $35 $-1 #
face $-1 $-1 $93 $19 $-1 $94 forward single #
loop $-1 $95 $96 $37 #
cone-surface $-1 -53.811655069078441 34.339467614060261 10.781644392354842 0.81915205242281985 0 -0.57357642473473569 0.28678821236736785 0 0.40957602621140993 1 I I -0.70710678118654746 0.70710678118654746 0.5 forward I I I I #
loop $-1 $-1 $97 $24 #
coedge $-1 $61 $61 $98 $99 reversed $38 $-1 #
face $-1 $100 $101 $15 $-1 $102 reversed single #
loop $-1 $-1 $103 $40 #
plane-surface $-1 0 -37.626079828610237 0 0 1 0 0 0 1 forward_v I I I I #
coedge $-1 $104 $105 $106 $107 forward $41 $-1 #
coedge $-1 $108 $43 $109 $110 forward $26 $-1 #
coedge $-1 $43 $108 $111 $112 forward $26 $-1 #
coedge $-1 $113 $114 $43 $69 reversed $115 $-1 #
edge $-1 $116 -37.626079828610237 $117 37.626079828610237 $68 $118 forward 7 unknown #
face $-1 $119 $120 $16 $-1 $121 reversed single #
loop $-1 $-1 $122 $44 #
plane-surface $-1 0 0 16.870474551407693 0 0 1 1 0 0 forward_v I I I I #
coedge $-1 $123 $124 $125 $126 reversed $45 $-1 #
coedge $-1 $127 $47 $128 $129 reversed $29 $-1 #
coedge $-1 $47 $127 $130 $131 reversed $29 $-1 #
coedge $-1 $124 $123 $47 $77 reversed $45 $-1 #
edge $-1 $132 -16.870474551407693 $133 16.870474551407693 $76 $134 forward 7 unknown #
face $-1 $135 $136 $17 $-1 $137 reversed single #
loop $-1 $-1 $138 $48 #
plane-surface $-1 0 37.626079828610237 0 0 -1 0 0 0 -1 forward_v I I I I #
coedge $-1 $139 $140 $141 $142 reversed $49 $-1 #
coedge $-1 $83 $51 $143 $144 reversed $32 $-1 #
coedge $-1 $51 $82 $139 $145 reversed $32 $-1 #
coedge $-1 $141 $146 $51 $85 forward $147 $-1 #
edge $-1 $148 19.035943823211127 $149 24.541931130643079 $84 $150 forward 7 unknown #
loop $-1 $-1 $91 $52 #
plane-surface $-1 -59.645374919888923 31.874508453147804 9.0071095158193515 -0.81915205242281985 0 0.57357642473473569 0.57357642473473569 0 0.81915205242281985 forward_v I I I I #
loop $-1 $-1 $151 $34 #
coedge $-1 $89 $89 $90 $152 reversed $53 $-1 #
coedge $-1 $90 $90 $89 $152 forward $55 $-1 #
coedge $-1 $91 $91 $56 $92 forward $86 $-1 #
edge $-1 $153 0 $153 6.2831853071796004 $91 $154 forward 7 unknown #
loop $-1 $-1 $98 $57 #
plane-surface $-1 -59.645374919888923 31.874508453147804 9.0071095158193515 -0.81915205242281985 0 0.57357642473473569 0.57357642473473569 0 0.81915205242281985 forward_v I I I I #
loop $-1 $-1 $155 $37 #
coedge $-1 $96 $96 $97 $156 reversed $58 $-1 #
coedge $-1 $97 $97 $96 $156 forward $60 $-1 #
coedge $-1 $98 $98 $61 $99 forward $93 $-1 #
edge $-1 $157 0 $157 6.2831853071796004 $98 $158 forward 7 unknown #
face $-1 $159 $160 $15 $-1 $161 reversed single #
loop $-1 $-1 $162 $62 #
plane-surface $-1 -59.645374919888908 0 0 1 0 0 0 0 -1 forward_v I I I I #
coedge $-1 $163 $111 $164 $165 forward $63 $-1 #
coedge $-1 $166 $65 $163 $167 forward $41 $-1 #
coedge $-1 $65 $166 $168 $169 forward $41 $-1 #
coedge $-1 $114 $113 $65 $107 reversed $115 $-1 #
edge $-1 $170 -37.626079828610237 $171 37.626079828610237 $106 $172 forward 7 unknown #
coedge $-1 $67 $66 $173 $174 forward $26 $-1 #
coedge $-1 $175 $176 $66 $110 reversed $160 $-1 #
edge $-1 $117 -59.645374919888908 $177 59.645374919888908 $109 $178 forward 7 unknown #
coedge $-1 $103 $179 $67 $112 reversed $63 $-1 #
edge $-1 $180 -59.645374919888908 $116 59.645374919888908 $111 $181 forward 7 unknown #
coedge $-1 $106 $68 $179 $182 forward $115 $-1 #
coedge $-1 $68 $106 $175 $183 reversed $115 $-1 #
loop $-1 $-1 $113 $159 #
vertex $-1 $69 $184 #
vertex $-1 $69 $185 #
straight-curve $-1 59.645374919888908 0 16.870474551407693 0 1 0 I I #
face $-1 $186 $187 $16 $-1 $188 reversed single #
loop $-1 $-1 $189 $70 #
plane-surface $-1 -59.645374919888908 0 0 1 0 0 0 0 -1 forward_v I I I I #
coedge $-1 $130 $190 $124 $191 forward $71 $-1 #
coedge $-1 $76 $73 $192 $193 reversed $45 $-1 #
coedge $-1 $73 $76 $122 $191 reversed $45 $-1 #
coedge $-1 $194 $195 $73 $126 forward $196 $-1 #
edge $-1 $197 -16.870474551407693 $198 16.870474551407693 $125 $199 forward 7 unknown #
coedge $-1 $75 $74 $189 $200 reversed $29 $-1 #
coedge $-1 $192 $201 $74 $129 forward $187 $-1 #
edge $-1 $202 -31.754680386682629 $133 -24.026708679729929 $128 $203 forward 7 unknown #
coedge $-1 $204 $122 $75 $131 forward $71 $-1 #
edge $-1 $132 24.026708679729929 $205 31.754680386682629 $130 $206 forward 7 unknown #
vertex $-1 $131 $207 #
vertex $-1 $129 $208 #
straight-curve $-1 -51.917403212936208 -15.452539678581735 0 0 0 -1 I I #
face $-1 $-1 $147 $17 $-1 $209 forward single #
loop $-1 $-1 $210 $78 #
plane-surface $-1 -59.645374919888908 0 0 1 0 0 0 0 -1 forward_v I I I I #
coedge $-1 $211 $212 $140 $213 forward $79 $-1 #
coedge $-1 $214 $81 $83 $145 forward $49 $-1 #
coedge $-1 $81 $214 $138 $213 reversed $49 $-1 #
coedge $-1 $215 $84 $81 $142 forward $147 $-1 #
edge $-1 $149 10.185682851111462 $216 21.688825602036342 $141 $217 forward 7 unknown #
coedge $-1 $218 $210 $82 $144 forward $136 $-1 #
edge $-1 $219 -29.707626140603054 $148 -21.844261105014734 $143 $220 forward 7 unknown #
edge $-1 $149 -9.5993961222836894 $219 -2.4157181099100639e-014 $83 $221 forward 7 unknown #
coedge $-1 $84 $215 $218 $222 forward $147 $-1 #
loop $-1 $-1 $141 $135 #
vertex $-1 $144 $223 #
vertex $-1 $85 $224 #
straight-curve $-1 -78.681318743100036 26.122937077685364 16.870474551407693 1 0 0 I I #
coedge $-1 $151 $151 $-1 $225 reversed $88 $-1 #
edge $-1 $226 0 $226 6.2831853071796004 $89 $227 forward 7 unknown #
vertex $-1 $92 $228 #
ellipse-curve $-1 -56.892381266172933 29.409549292235319 12.938792033613529 -0.81915205242281985 0 0.57357642473473569 0.57357642473473569 0 0.81915205242281985 1 I I #
coedge $-1 $155 $155 $-1 $229 reversed $95 $-1 #
edge $-1 $230 0 $230 6.2831853071796004 $96 $231 forward 7 unknown #
vertex $-1 $99 $232 #
ellipse-curve $-1 -56.892381266172933 34.339467614060261 12.938792033613529 -0.81915205242281985 0 0.57357642473473569 0.57357642473473569 0 0.81915205242281985 1 I I #
face $-1 $-1 $115 $15 $-1 $233 reversed single #
loop $-1 $-1 $175 $100 #
plane-surface $-1 0 37.626079828610237 0 0 -1 0 0 0 -1 forward_v I I I I #
coedge $-1 $234 $173 $176 $235 forward $101 $-1 #
coedge $-1 $179 $103 $104 $167 reversed $63 $-1 #
coedge $-1 $173 $234 $103 $165 reversed $101 $-1 #
edge $-1 $180 -16.870474551407693 $236 16.870474551407693 $164 $237 forward 7 unknown #
coedge $-1 $105 $104 $234 $238 forward $41 $-1 #
edge $-1 $171 -59.645374919888908 $236 59.645374919888908 $163 $239 forward 7 unknown #
coedge $-1 $176 $175 $105 $169 reversed $160 $-1 #
edge $-1 $240 -59.645374919888908 $170 59.645374919888908 $168 $241 forward 7 unknown #
vertex $-1 $107 $242 #
vertex $-1 $182 $243 #
straight-curve $-1 59.645374919888908 0 -16.870474551407693 0 -1 0 I I #
coedge $-1 $162 $164 $108 $174 reversed $101 $-1 #
edge $-1 $177 -37.626079828610237 $180 37.626079828610237 $173 $244 forward 7 unknown #
coedge $-1 $168 $109 $114 $183 forward $160 $-1 #
coedge $-1 $109 $168 $162 $235 reversed $160 $-1 #
vertex $-1 $110 $245 #
straight-curve $-1 0 37.626079828610237 16.870474551407693 -1 0 0 I I #
coedge $-1 $111 $163 $113 $182 reversed $63 $-1 #
vertex $-1 $174 $246 #
straight-curve $-1 0 -37.626079828610237 16.870474551407693 1 0 0 I I #
edge $-1 $116 -16.870474551407693 $171 16.870474551407693 $113 $247 forward 7 unknown #
edge $-1 $117 -16.870474551407693 $170 16.870474551407693 $114 $248 forward 7 unknown #
point $-1 59.645374919888908 -37.626079828610237 16.870474551407693 #
point $-1 59.645374919888908 37.626079828610237 16.870474551407693 #
face $-1 $-1 $196 $16 $-1 $249 reversed single #
loop $-1 $-1 $192 $119 #
plane-surface $-1 0 0 -16.870474551407693 0 0 1 1 0 0 forward_v I I I I #
coedge $-1 $250 $251 $127 $200 forward $120 $-1 #
coedge $-1 $122 $204 $194 $252 forward $71 $-1 #
edge $-1 $198 -24.356424951812244 $132 -2.1828848017837412 $122 $253 forward 7 unknown #
coedge $-1 $254 $128 $123 $193 forward $187 $-1 #
edge $-1 $133 2.1828848017837412 $197 24.356424951812244 $192 $255 forward 7 unknown #
coedge $-1 $256 $125 $190 $252 reversed $196 $-1 #
coedge $-1 $125 $256 $254 $257 reversed $196 $-1 #
loop $-1 $-1 $125 $186 #
vertex $-1 $257 $258 #
vertex $-1 $126 $259 #
straight-curve $-1 -51.917403212936208 -37.626079828610237 0 0 0 1 I I #
edge $-1 $205 -16.870474551407693 $202 16.870474551407693 $189 $260 forward 7 unknown #
coedge $-1 $128 $254 $250 $261 forward $187 $-1 #
vertex $-1 $129 $262 #
straight-curve $-1 -27.890694533206279 -15.452539678581735 -16.870474551407693 1 0 0 I I #
coedge $-1 $190 $130 $251 $263 forward $71 $-1 #
vertex $-1 $263 $264 #
straight-curve $-1 -27.890694533206279 -15.452539678581735 16.870474551407693 -1 0 0 I I #
point $-1 -51.917403212936208 -15.452539678581735 16.870474551407693 #
point $-1 -51.917403212936208 -15.452539678581735 -16.870474551407693 #
plane-surface $-1 0 0 16.870474551407693 0 0 1 1 0 0 forward_v I I I I #
coedge $-1 $143 $265 $214 $266 forward $136 $-1 #
coedge $-1 $212 $138 $265 $267 reversed $79 $-1 #
coedge $-1 $138 $211 $215 $268 reversed $79 $-1 #
edge $-1 $216 3.8170982038324235 $269 13.416494326116091 $138 $270 forward 7 unknown #
coedge $-1 $140 $139 $210 $266 reversed $49 $-1 #
coedge $-1 $146 $141 $212 $268 forward $147 $-1 #
vertex $-1 $268 $271 #
straight-curve $-1 -54.139387612456957 15.937254226573902 16.870474551407693 0 1 0 I I #
coedge $-1 $265 $143 $146 $222 reversed $136 $-1 #
vertex $-1 $144 $272 #
straight-curve $-1 -59.645374919888908 26.122937077685364 38.714735656422427 0 0 1 I I #
straight-curve $-1 -59.645374919888923 26.122937077685364 9.0071095158193515 -0.57357642473473569 0 -0.81915205242281985 I I #
edge $-1 $273 -37.626079828610237 $148 -26.122937077685364 $218 $274 forward 7 unknown #
point $-1 -59.645374919888908 26.122937077685364 16.870474551407693 #
point $-1 -54.139387612456957 26.122937077685364 16.870474551407693 #
edge $-1 $275 1 $275 0 $151 $-1 forward 7 unknown #
vertex $-1 $152 $276 #
ellipse-curve $-1 -54.221231095289852 29.409549292235319 11.06843260472221 -0.81915205242281985 0 0.57357642473473569 0.57357642473473569 0 0.81915205242281985 1 I I #
point $-1 -56.318804841438194 29.409549292235319 13.757944086036346 #
edge $-1 $277 1 $277 0 $155 $-1 forward 7 unknown #
vertex $-1 $156 $278 #
ellipse-curve $-1 -54.221231095289852 34.339467614060261 11.06843260472221 -0.81915205242281985 0 0.57357642473473569 0.57357642473473569 0 0.81915205242281985 1 I I #
point $-1 -56.318804841438194 34.339467614060261 13.757944086036346 #
plane-surface $-1 59.645374919888908 0 0 -1 0 0 0 0 1 forward_v I I I I #
coedge $-1 $164 $162 $166 $238 reversed $101 $-1 #
edge $-1 $177 -16.870474551407693 $240 16.870474551407693 $176 $279 forward 7 unknown #
vertex $-1 $238 $280 #
straight-curve $-1 -59.645374919888908 -37.626079828610237 0 0 0 -1 I I #
edge $-1 $236 -37.626079828610237 $240 37.626079828610237 $234 $281 forward 7 unknown #
straight-curve $-1 0 -37.626079828610237 -16.870474551407693 -1 0 0 I I #
vertex $-1 $169 $282 #
straight-curve $-1 0 37.626079828610237 -16.870474551407693 1 0 0 I I #
point $-1 59.645374919888908 37.626079828610237 -16.870474551407693 #
point $-1 59.645374919888908 -37.626079828610237 -16.870474551407693 #
straight-curve $-1 -59.645374919888908 0 16.870474551407693 0 -1 0 I I #
point $-1 -59.645374919888908 37.626079828610237 16.870474551407693 #
point $-1 -59.645374919888908 -37.626079828610237 16.870474551407693 #
straight-curve $-1 59.645374919888908 -37.626079828610237 0 0 0 -1 I I #
straight-curve $-1 59.645374919888908 37.626079828610237 0 0 0 -1 I I #
plane-surface $-1 0 -37.626079828610237 0 0 1 0 0 0 1 forward_v I I I I #
coedge $-1 $283 $189 $201 $261 reversed $120 $-1 #
coedge $-1 $189 $283 $204 $263 reversed $120 $-1 #
edge $-1 $284 -59.645374919888908 $198 -51.917403212936208 $194 $285 forward 7 unknown #
straight-curve $-1 -51.917403212936208 -13.269654876797993 16.870474551407693 0 1 0 I I #
coedge $-1 $201 $192 $195 $257 forward $187 $-1 #
straight-curve $-1 -51.917403212936208 -13.269654876797993 -16.870474551407693 0 -1 0 I I #
coedge $-1 $195 $194 $283 $286 forward $196 $-1 #
edge $-1 $197 51.917403212936208 $287 59.645374919888908 $195 $288 forward 7 unknown #
point $-1 -51.917403212936208 -37.626079828610237 -16.870474551407693 #
point $-1 -51.917403212936208 -37.626079828610237 16.870474551407693 #
straight-curve $-1 -59.645374919888908 -15.452539678581735 0 0 0 -1 I I #
edge $-1 $287 -37.626079828610237 $202 -15.452539678581735 $250 $289 forward 7 unknown #
point $-1 -59.645374919888908 -15.452539678581735 -16.870474551407693 #
edge $-1 $205 15.452539678581735 $284 37.626079828610237 $251 $290 forward 7 unknown #
point $-1 -59.645374919888908 -15.452539678581735 16.870474551407693 #
coedge $-1 $210 $218 $211 $267 forward $136 $-1 #
edge $-1 $269 -21.688825602036342 $219 -10.185682851111462 $210 $291 forward 7 unknown #
edge $-1 $273 -16.870474551407693 $269 -9.007109515819371 $211 $292 forward 7 unknown #
edge $-1 $216 54.139387612456957 $273 59.645374919888908 $212 $293 forward 7 unknown #
vertex $-1 $266 $294 #
straight-curve $-1 -51.949990071841377 37.626079828610237 19.997258379376483 -0.57357642473473569 0 -0.81915205242281985 I I #
point $-1 -54.139387612456957 37.626079828610244 16.870474551407693 #
point $-1 -59.645374919888908 26.122937077685364 9.007109515819371 #
vertex $-1 $268 $295 #
straight-curve $-1 -59.645374919888908 0 16.870474551407693 0 -1 0 I I #
vertex $-1 $225 $296 #
point $-1 -53.647654670555113 29.409549292235319 11.88758465714503 #
vertex $-1 $229 $297 #
point $-1 -53.647654670555113 34.339467614060261 11.88758465714503 #
straight-curve $-1 -59.645374919888908 37.626079828610237 0 0 0 -1 I I #
point $-1 -59.645374919888908 -37.626079828610237 -16.870474551407693 #
straight-curve $-1 -59.645374919888908 0 -16.870474551407693 0 1 0 I I #
point $-1 -59.645374919888908 37.626079828610237 -16.870474551407693 #
coedge $-1 $251 $250 $256 $286 reversed $120 $-1 #
vertex $-1 $263 $298 #
straight-curve $-1 0 -37.626079828610237 16.870474551407693 1 0 0 I I #
edge $-1 $284 -16.870474551407693 $287 16.870474551407693 $283 $299 forward 7 unknown #
vertex $-1 $261 $300 #
straight-curve $-1 0 -37.626079828610237 -16.870474551407693 -1 0 0 I I #
straight-curve $-1 -59.645374919888908 0 -16.870474551407693 0 1 0 I I #
straight-curve $-1 -59.645374919888908 0 16.870474551407693 0 -1 0 I I #
straight-curve $-1 -59.645374919888908 15.937254226573902 9.0071095158193728 0 -1 0 I I #
straight-curve $-1 -59.645374919888908 37.626079828610237 0 0 0 -1 I I #
straight-curve $-1 0 37.626079828610237 16.870474551407693 -1 0 0 I I #
point $-1 -59.645374919888908 37.626079828610244 9.007109515819371 #
point $-1 -59.645374919888908 37.626079828610237 16.870474551407693 #
point $-1 -53.40207904286703 29.409549292235319 10.494856179987474 #
point $-1 -53.40207904286703 34.339467614060261 10.494856179987474 #
point $-1 -59.645374919888908 -37.626079828610237 16.870474551407693 #
straight-curve $-1 -59.645374919888908 -37.626079828610237 0 0 0 -1 I I #
point $-1 -59.645374919888908 -37.626079828610237 -16.870474551407693 #
End-of-ACIS-data 