500 0 5 0           
7 Unknown 11 ACIS 5.0 NT 24 Thu Mar 25 15:49:01 1999 
-1 9.9999999999999995e-007 1e-010 
body $-1 $5 $-1 $6 #
body $-1 $7 $-1 $8 #
body $-1 $9 $-1 $10 #
body $-1 $11 $-1 $12 #
body $-1 $13 $-1 $14 #
lump $-1 $-1 $15 $0 #
transform $-1 1 0 0 0 1 0 0 0 1 63.311258278145694 38.520805438034586 15.755828815659497 1 rotate no_reflect no_shear #
lump $-1 $-1 $16 $1 #
transform $-1 1 0 0 0 1 0 0 0 1 63.311258278145694 38.520805438034586 15.755828815659497 1 rotate no_reflect no_shear #
lump $-1 $-1 $17 $2 #
transform $-1 1 0 0 0 1 0 0 0 1 63.311258278145694 38.520805438034586 15.755828815659497 1 rotate no_reflect no_shear #
lump $-1 $-1 $18 $3 #
transform $-1 1 0 0 0 1 0 0 0 1 63.311258278145694 38.520805438034586 15.755828815659497 1 rotate no_reflect no_shear #
lump $-1 $-1 $19 $4 #
transform $-1 1 0 0 0 1 0 0 0 1 63.311258278145694 38.520805438034586 15.755828815659497 1 rotate no_reflect no_shear #
shell $-1 $-1 $-1 $20 $-1 $5 #
shell $-1 $-1 $-1 $21 $-1 $7 #
shell $-1 $-1 $-1 $22 $-1 $9 #
shell $-1 $-1 $-1 $23 $-1 $11 #
shell $-1 $-1 $-1 $24 $-1 $13 #
face $-1 $25 $26 $15 $-1 $27 forward single #
face $-1 $28 $29 $16 $-1 $30 reversed single #
face $-1 $31 $32 $17 $-1 $33 forward single #
face $-1 $34 $35 $18 $-1 $36 reversed single #
face $-1 $37 $38 $19 $-1 $39 reversed single #
face $-1 $40 $41 $15 $-1 $42 reversed single #
loop $-1 $-1 $43 $20 #
plane-surface $-1 0 0 15.755828815659497 0 0 1 1 0 0 forward_v I I I I #
face $-1 $44 $45 $16 $-1 $46 forward single #
loop $-1 $-1 $47 $21 #
plane-surface $-1 0 -30.448980904575667 -7.0232134672543305 0 0 1 1 0 0 forward_v I I I I #
face $-1 $48 $49 $17 $-1 $50 forward single #
loop $-1 $-1 $51 $22 #
plane-surface $-1 -53.780555053262439 88.441127960773002 141.63595321243926 1 0 0 0 -0.77714596973225614 -0.62932038083071107 forward_v I I I I #
face $-1 $52 $53 $18 $-1 $54 reversed single #
loop $-1 $55 $56 $23 #
cone-surface $-1 -44.618006686694201 32.332251540254191 8.3900116510866933 0 -0.77714596973225614 -0.62932038083071107 1.5 0 0 1 I I 0 1 1.5 forward I I I I #
face $-1 $57 $58 $19 $-1 $59 reversed single #
loop $-1 $60 $61 $24 #
cone-surface $-1 -30.874184136841841 32.332251540254191 8.3900116510866933 0 -0.77714596973225614 -0.62932038083071107 1.5 0 0 1 I I 0 1 1.5 forward I I I I #
face $-1 $62 $63 $15 $-1 $64 reversed single #
loop $-1 $-1 $65 $25 #
plane-surface $-1 0 0 -15.755828815659497 0 0 1 1 0 0 forward_v I I I I #
coedge $-1 $66 $67 $68 $69 forward $26 $-1 #
face $-1 $70 $71 $16 $-1 $72 reversed single #
loop $-1 $-1 $73 $28 #
plane-surface $-1 0 -22.377156371116747 -11.389521141456914 0 -1 0 0 0 -1 forward_v I I I I #
coedge $-1 $74 $75 $76 $77 reversed $29 $-1 #
face $-1 $78 $79 $17 $-1 $80 forward single #
loop $-1 $-1 $81 $31 #
plane-surface $-1 -37.746095411768025 -9.9630504583047212 61.949822871490952 0 0.77714596973225614 0.62932038083071107 1 0 0 forward_v I I I I #
coedge $-1 $82 $83 $84 $85 reversed $32 $-1 #
face $-1 $86 $87 $18 $-1 $88 forward single #
loop $-1 $89 $90 $34 #
cone-surface $-1 -44.618006686694201 31.099187208262251 7.3914958699840998 0 -0.77714596973225614 -0.62932038083071107 0.75 0 0 1 I I -0.70710678118654713 0.70710678118654802 0.75 forward I I I I #
loop $-1 $-1 $91 $23 #
coedge $-1 $56 $56 $92 $93 reversed $35 $-1 #
face $-1 $94 $95 $19 $-1 $96 reversed single #
loop $-1 $97 $98 $37 #
cone-surface $-1 -30.874184136841841 31.099187208262251 7.3914958699840998 0 -0.77714596973225614 -0.62932038083071107 0.75 0 0 1 I I -0.70710678118654713 0.70710678118654802 0.75 forward I I I I #
loop $-1 $-1 $99 $24 #
coedge $-1 $61 $61 $100 $101 reversed $38 $-1 #
face $-1 $102 $103 $15 $-1 $104 reversed single #
loop $-1 $-1 $105 $40 #
plane-surface $-1 0 -38.520805438034586 0 0 1 0 0 0 1 forward_v I I I I #
coedge $-1 $106 $107 $108 $109 forward $41 $-1 #
coedge $-1 $110 $43 $111 $112 forward $26 $-1 #
coedge $-1 $43 $110 $113 $114 forward $26 $-1 #
coedge $-1 $115 $116 $43 $69 reversed $117 $-1 #
edge $-1 $118 -38.520805438034586 $119 38.520805438034586 $68 $120 forward 7 unknown #
face $-1 $121 $122 $16 $-1 $123 reversed single #
loop $-1 $-1 $124 $44 #
plane-surface $-1 0 -38.520805438034586 0 0 1 0 0 0 1 forward_v I I I I #
coedge $-1 $125 $126 $127 $128 reversed $45 $-1 #
coedge $-1 $129 $47 $124 $130 reversed $29 $-1 #
coedge $-1 $47 $129 $125 $131 reversed $29 $-1 #
coedge $-1 $127 $132 $47 $77 forward $133 $-1 #
edge $-1 $134 -23.296314985746754 $135 -7.1526659188289141 $76 $136 forward 7 unknown #
face $-1 $137 $138 $17 $-1 $139 forward single #
loop $-1 $-1 $140 $48 #
plane-surface $-1 -21.71163577027361 88.441127960773002 141.63595321243926 -1 0 0 0 0.77714596973225614 0.62932038083071107 forward_v I I I I #
coedge $-1 $141 $142 $143 $144 reversed $49 $-1 #
coedge $-1 $83 $51 $142 $145 forward $32 $-1 #
coedge $-1 $51 $82 $146 $147 reversed $32 $-1 #
coedge $-1 $148 $143 $51 $85 forward $138 $-1 #
edge $-1 $149 -16.776456628527207 $150 -5.6997585423519155 $84 $151 forward 7 unknown #
face $-1 $152 $153 $18 $-1 $154 forward single #
loop $-1 $-1 $155 $52 #
plane-surface $-1 -53.780555053262439 88.441127960773002 141.63595321243926 1 0 0 0 -0.77714596973225614 -0.62932038083071107 forward_v I I I I #
loop $-1 $-1 $156 $34 #
coedge $-1 $90 $90 $91 $157 forward $53 $-1 #
coedge $-1 $91 $91 $90 $157 reversed $55 $-1 #
coedge $-1 $92 $92 $56 $93 forward $153 $-1 #
edge $-1 $158 -1.8406514113949776e-015 $158 6.2831853071795987 $92 $159 forward 7 unknown #
face $-1 $160 $161 $19 $-1 $162 reversed single #
loop $-1 $163 $164 $57 #
cone-surface $-1 -44.618006686694201 32.332251540254191 8.3900116510866933 0 -0.77714596973225614 -0.62932038083071107 1.5 0 0 1 I I 0 1 1.5 forward I I I I #
loop $-1 $-1 $165 $37 #
coedge $-1 $98 $98 $99 $166 forward $58 $-1 #
coedge $-1 $99 $99 $98 $166 reversed $60 $-1 #
coedge $-1 $100 $100 $61 $101 forward $167 $-1 #
edge $-1 $168 -1.8406514113949776e-015 $168 6.2831853071795987 $100 $169 forward 7 unknown #
face $-1 $170 $171 $15 $-1 $172 reversed single #
loop $-1 $-1 $173 $62 #
plane-surface $-1 -63.311258278145694 0 0 1 0 0 0 0 -1 forward_v I I I I #
coedge $-1 $174 $113 $175 $176 forward $63 $-1 #
coedge $-1 $177 $65 $174 $178 forward $41 $-1 #
coedge $-1 $65 $177 $179 $180 forward $41 $-1 #
coedge $-1 $116 $115 $65 $109 reversed $117 $-1 #
edge $-1 $181 -38.520805438034586 $182 38.520805438034586 $108 $183 forward 7 unknown #
coedge $-1 $67 $66 $184 $185 forward $26 $-1 #
coedge $-1 $186 $187 $66 $112 reversed $171 $-1 #
edge $-1 $119 -63.311258278145694 $188 63.311258278145694 $111 $189 forward 7 unknown #
coedge $-1 $105 $190 $67 $114 reversed $63 $-1 #
edge $-1 $191 -63.311258278145694 $118 63.311258278145694 $113 $192 forward 7 unknown #
coedge $-1 $108 $68 $190 $193 forward $117 $-1 #
coedge $-1 $68 $108 $186 $194 reversed $117 $-1 #
loop $-1 $-1 $115 $170 #
vertex $-1 $69 $195 #
vertex $-1 $69 $196 #
straight-curve $-1 63.311258278145694 0 15.755828815659497 0 1 0 I I #
face $-1 $197 $198 $16 $-1 $199 forward single #
loop $-1 $-1 $200 $70 #
plane-surface $-1 0 0 -15.755828815659497 0 0 1 1 0 0 forward_v I I I I #
coedge $-1 $201 $202 $74 $130 forward $71 $-1 #
coedge $-1 $203 $73 $75 $131 forward $45 $-1 #
coedge $-1 $73 $203 $200 $204 reversed $45 $-1 #
coedge $-1 $205 $76 $73 $128 forward $133 $-1 #
edge $-1 $135 1.3284528965258735 $206 10.061068244931041 $127 $207 forward 7 unknown #
coedge $-1 $75 $74 $208 $209 reversed $29 $-1 #
edge $-1 $210 -63.311258278145694 $134 63.311258278145694 $124 $211 forward 7 unknown #
edge $-1 $135 -63.311258278145694 $212 63.311258278145694 $125 $213 forward 7 unknown #
coedge $-1 $76 $214 $201 $215 forward $133 $-1 #
loop $-1 $-1 $127 $216 #
vertex $-1 $130 $217 #
vertex $-1 $77 $218 #
straight-curve $-1 63.311258278145694 -15.224490452287833 -7.0232134672543305 0 1 0 I I #
face $-1 $219 $220 $17 $-1 $221 reversed single #
loop $-1 $-1 $222 $78 #
plane-surface $-1 0 0 15.755828815659497 0 0 1 1 0 0 forward_v I I I I #
coedge $-1 $223 $224 $222 $225 reversed $79 $-1 #
coedge $-1 $226 $81 $224 $227 reversed $49 $-1 #
coedge $-1 $81 $226 $82 $145 reversed $49 $-1 #
coedge $-1 $84 $222 $81 $144 forward $138 $-1 #
edge $-1 $228 2.8385880643895973 $149 34.907507347378427 $143 $229 forward 7 unknown #
edge $-1 $149 59.440563105212135 $230 77.041610876069171 $82 $231 forward 7 unknown #
coedge $-1 $232 $233 $83 $147 forward $234 $-1 #
edge $-1 $150 55.062147790560132 $230 68.740731128746589 $146 $235 forward 7 unknown #
coedge $-1 $236 $84 $233 $237 forward $138 $-1 #
vertex $-1 $144 $238 #
vertex $-1 $237 $239 #
straight-curve $-1 -53.780555053262439 44.220563980386501 15.755828815659498 0 1 0 I I #
face $-1 $240 $241 $18 $-1 $242 forward single #
loop $-1 $243 $92 $86 #
plane-surface $-1 -37.746095411768025 -9.9630504583047212 61.949822871490952 0 0.77714596973225614 0.62932038083071107 1 0 0 forward_v I I I I #
coedge $-1 $244 $245 $246 $247 reversed $87 $-1 #
coedge $-1 $156 $156 $-1 $248 forward $89 $-1 #
edge $-1 $249 0 $249 6.2831853071796004 $90 $250 forward 7 unknown #
vertex $-1 $93 $251 #
ellipse-curve $-1 -44.618006686694201 32.982456394946944 8.916537146566256 0 -0.77714596973225614 -0.62932038083071107 1.5 0 0 1 I I #
face $-1 $252 $253 $19 $-1 $254 forward single #
loop $-1 $255 $256 $94 #
cone-surface $-1 -44.618006686694201 31.099187208262251 7.3914958699840998 0 -0.77714596973225614 -0.62932038083071107 0.75 0 0 1 I I -0.70710678118654713 0.70710678118654802 0.75 forward I I I I #
loop $-1 $-1 $257 $57 #
coedge $-1 $164 $164 $258 $259 reversed $95 $-1 #
coedge $-1 $165 $165 $-1 $260 forward $97 $-1 #
edge $-1 $261 0 $261 6.2831853071796004 $98 $262 forward 7 unknown #
loop $-1 $263 $100 $252 #
vertex $-1 $101 $264 #
ellipse-curve $-1 -30.874184136841841 32.982456394946944 8.916537146566256 0 -0.77714596973225614 -0.62932038083071107 1.5 0 0 1 I I #
face $-1 $-1 $117 $15 $-1 $265 reversed single #
loop $-1 $-1 $186 $102 #
plane-surface $-1 0 38.520805438034586 0 0 -1 0 0 0 -1 forward_v I I I I #
coedge $-1 $266 $184 $187 $267 forward $103 $-1 #
coedge $-1 $190 $105 $106 $178 reversed $63 $-1 #
coedge $-1 $184 $266 $105 $176 reversed $103 $-1 #
edge $-1 $191 -15.755828815659497 $268 15.755828815659497 $175 $269 forward 7 unknown #
coedge $-1 $107 $106 $266 $270 forward $41 $-1 #
edge $-1 $182 -63.311258278145694 $268 63.311258278145694 $174 $271 forward 7 unknown #
coedge $-1 $187 $186 $107 $180 reversed $171 $-1 #
edge $-1 $272 -63.311258278145694 $181 63.311258278145694 $179 $273 forward 7 unknown #
vertex $-1 $109 $274 #
vertex $-1 $193 $275 #
straight-curve $-1 63.311258278145694 0 -15.755828815659497 0 -1 0 I I #
coedge $-1 $173 $175 $110 $185 reversed $103 $-1 #
edge $-1 $188 -38.520805438034586 $191 38.520805438034586 $184 $276 forward 7 unknown #
coedge $-1 $179 $111 $116 $194 forward $171 $-1 #
coedge $-1 $111 $179 $173 $267 reversed $171 $-1 #
vertex $-1 $112 $277 #
straight-curve $-1 0 38.520805438034586 15.755828815659497 -1 0 0 I I #
coedge $-1 $113 $174 $115 $193 reversed $63 $-1 #
vertex $-1 $185 $278 #
straight-curve $-1 0 -38.520805438034586 15.755828815659497 1 0 0 I I #
edge $-1 $118 -15.755828815659497 $182 15.755828815659497 $115 $279 forward 7 unknown #
edge $-1 $119 -15.755828815659497 $181 15.755828815659497 $116 $280 forward 7 unknown #
point $-1 63.311258278145694 -38.520805438034586 15.755828815659497 #
point $-1 63.311258278145694 38.520805438034586 15.755828815659497 #
face $-1 $281 $282 $16 $-1 $283 reversed single #
loop $-1 $-1 $284 $121 #
plane-surface $-1 0 0 15.755828815659497 0 0 1 1 0 0 forward_v I I I I #
coedge $-1 $285 $286 $126 $204 forward $122 $-1 #
coedge $-1 $287 $124 $132 $215 reversed $71 $-1 #
coedge $-1 $124 $287 $288 $289 forward $71 $-1 #
coedge $-1 $126 $125 $290 $291 reversed $45 $-1 #
edge $-1 $206 -63.311258278145694 $292 63.311258278145694 $200 $293 forward 7 unknown #
coedge $-1 $294 $127 $286 $295 reversed $133 $-1 #
vertex $-1 $204 $296 #
straight-curve $-1 63.311258278145694 -22.377156371116747 -5.694760570728457 0 0 -1 I I #
coedge $-1 $288 $290 $129 $209 forward $282 $-1 #
edge $-1 $212 7.1526659188289141 $210 23.296314985746754 $208 $297 forward 7 unknown #
vertex $-1 $130 $298 #
straight-curve $-1 0 -38.520805438034586 -7.0232134672543305 1 0 0 I I #
vertex $-1 $209 $299 #
straight-curve $-1 0 -22.377156371116747 -7.0232134672543305 -1 0 0 I I #
coedge $-1 $132 $294 $284 $300 reversed $133 $-1 #
edge $-1 $301 -15.755828815659497 $134 7.0232134672543305 $132 $302 forward 7 unknown #
face $-1 $-1 $133 $16 $-1 $303 reversed single #
point $-1 63.311258278145694 -38.520805438034586 -7.0232134672543305 #
point $-1 63.311258278145694 -22.377156371116747 -7.0232134672543305 #
face $-1 $304 $305 $17 $-1 $306 forward single #
loop $-1 $-1 $307 $137 #
plane-surface $-1 0 -30.448980904575667 -7.0232134672543305 0 0 1 1 0 0 forward_v I I I I #
coedge $-1 $143 $308 $140 $225 forward $138 $-1 #
coedge $-1 $224 $140 $309 $310 reversed $79 $-1 #
coedge $-1 $140 $223 $141 $227 forward $79 $-1 #
edge $-1 $311 5.6997585423519155 $228 16.776456628527207 $222 $312 forward 7 unknown #
coedge $-1 $142 $141 $232 $313 reversed $49 $-1 #
edge $-1 $314 -77.041610876069171 $228 -59.440563105212135 $224 $315 forward 7 unknown #
vertex $-1 $144 $316 #
straight-curve $-1 -18.873047705884012 27.444107351859298 15.755828815659495 -1 0 0 I I #
vertex $-1 $313 $317 #
straight-curve $-1 -53.780555053262439 -9.9630504583047212 61.949822871490952 0 0.62932038083071107 -0.77714596973225614 I I #
coedge $-1 $309 $146 $226 $313 forward $234 $-1 #
coedge $-1 $146 $318 $148 $237 reversed $234 $-1 #
loop $-1 $-1 $309 $319 #
straight-curve $-1 -53.780555053262439 38.520805438034586 70.817976606219631 0 0 -1 I I #
coedge $-1 $320 $148 $321 $322 forward $138 $-1 #
edge $-1 $150 53.780555053262439 $323 63.311258278145694 $233 $324 forward 7 unknown #
point $-1 -53.780555053262439 27.444107351859294 15.755828815659498 #
point $-1 -53.780555053262439 38.520805438034586 15.755828815659497 #
face $-1 $325 $326 $18 $-1 $327 forward single #
loop $-1 $-1 $328 $152 #
plane-surface $-1 -21.71163577027361 88.441127960773002 141.63595321243926 -1 0 0 0 0.77714596973225614 0.62932038083071107 forward_v I I I I #
loop $-1 $-1 $329 $86 #
coedge $-1 $245 $155 $330 $331 forward $87 $-1 #
coedge $-1 $155 $244 $332 $333 reversed $87 $-1 #
coedge $-1 $334 $335 $155 $247 forward $326 $-1 #
edge $-1 $336 -16.776456628527207 $337 -5.6997585423519155 $246 $338 forward 7 unknown #
edge $-1 $339 1 $339 0 $156 $-1 forward 7 unknown #
vertex $-1 $157 $340 #
ellipse-curve $-1 -44.618006686694201 31.682046685561442 7.8634861556071334 0 0.77714596973225614 0.62932038083071107 1.5 0 0 1 I I #
point $-1 -43.118006686694201 32.982456394946944 8.9165371465662524 #
face $-1 $341 $167 $19 $-1 $342 forward single #
loop $-1 $-1 $343 $160 #
plane-surface $-1 -53.780555053262439 88.441127960773002 141.63595321243926 1 0 0 0 -0.77714596973225614 -0.62932038083071107 forward_v I I I I #
loop $-1 $-1 $344 $94 #
coedge $-1 $256 $256 $257 $345 forward $161 $-1 #
coedge $-1 $257 $257 $256 $345 reversed $163 $-1 #
coedge $-1 $258 $258 $164 $259 forward $263 $-1 #
edge $-1 $346 -1.8406514113949776e-015 $346 6.2831853071795987 $258 $347 forward 7 unknown #
edge $-1 $348 1 $348 0 $165 $-1 forward 7 unknown #
vertex $-1 $166 $349 #
ellipse-curve $-1 -30.874184136841841 31.682046685561442 7.8634861556071334 0 0.77714596973225614 0.62932038083071107 1.5 0 0 1 I I #
loop $-1 $350 $258 $252 #
point $-1 -29.374184136841841 32.982456394946944 8.9165371465662524 #
plane-surface $-1 63.311258278145694 0 0 -1 0 0 0 0 1 forward_v I I I I #
coedge $-1 $175 $173 $177 $270 reversed $103 $-1 #
edge $-1 $188 -15.755828815659497 $272 15.755828815659497 $187 $351 forward 7 unknown #
vertex $-1 $270 $352 #
straight-curve $-1 -63.311258278145694 -38.520805438034586 0 0 0 -1 I I #
edge $-1 $268 -38.520805438034586 $272 38.520805438034586 $266 $353 forward 7 unknown #
straight-curve $-1 0 -38.520805438034586 -15.755828815659497 -1 0 0 I I #
vertex $-1 $180 $354 #
straight-curve $-1 0 38.520805438034586 -15.755828815659497 1 0 0 I I #
point $-1 63.311258278145694 38.520805438034586 -15.755828815659497 #
point $-1 63.311258278145694 -38.520805438034586 -15.755828815659497 #
straight-curve $-1 -63.311258278145694 0 15.755828815659497 0 -1 0 I I #
point $-1 -63.311258278145694 38.520805438034586 15.755828815659497 #
point $-1 -63.311258278145694 -38.520805438034586 15.755828815659497 #
straight-curve $-1 63.311258278145694 -38.520805438034586 0 0 0 -1 I I #
straight-curve $-1 63.311258278145694 38.520805438034586 0 0 0 -1 I I #
face $-1 $216 $355 $16 $-1 $356 reversed single #
loop $-1 $-1 $208 $197 #
plane-surface $-1 -63.311258278145694 0 0 1 0 0 0 0 -1 forward_v I I I I #
coedge $-1 $357 $358 $214 $300 forward $198 $-1 #
coedge $-1 $359 $200 $360 $361 forward $122 $-1 #
coedge $-1 $200 $359 $205 $295 forward $122 $-1 #
coedge $-1 $202 $201 $358 $362 reversed $71 $-1 #
coedge $-1 $363 $208 $202 $289 reversed $282 $-1 #
edge $-1 $364 -15.755828815659497 $210 7.0232134672543305 $288 $365 forward 7 unknown #
coedge $-1 $208 $360 $203 $291 forward $282 $-1 #
edge $-1 $292 -10.061068244931041 $212 -1.3284528965258735 $290 $366 forward 7 unknown #
vertex $-1 $361 $367 #
straight-curve $-1 0 -22.377156371116747 -15.755828815659497 -1 0 0 I I #
coedge $-1 $214 $205 $368 $369 reversed $133 $-1 #
edge $-1 $370 -38.520805438034586 $206 22.377156371116747 $205 $371 forward 7 unknown #
point $-1 63.311258278145694 -22.377156371116747 -15.755828815659498 #
straight-curve $-1 -63.311258278145694 -15.224490452287833 -7.0232134672543305 0 -1 0 I I #
point $-1 -63.311258278145694 -38.520805438034586 -7.0232134672543305 #
point $-1 -63.311258278145694 -22.377156371116747 -7.0232134672543305 #
edge $-1 $301 -38.520805438034586 $372 38.520805438034586 $214 $373 forward 7 unknown #
vertex $-1 $300 $374 #
straight-curve $-1 63.311258278145694 -38.520805438034586 0 0 0 -1 I I #
plane-surface $-1 63.311258278145694 0 0 -1 0 0 0 0 1 forward_v I I I I #
face $-1 $375 $376 $17 $-1 $377 reversed single #
loop $-1 $-1 $378 $219 #
plane-surface $-1 0 -22.377156371116747 -11.389521141456914 0 -1 0 0 0 -1 forward_v I I I I #
coedge $-1 $379 $380 $381 $382 reversed $220 $-1 #
coedge $-1 $222 $383 $384 $385 forward $138 $-1 #
coedge $-1 $384 $232 $223 $310 forward $234 $-1 #
edge $-1 $314 -68.740731128746589 $311 -55.062147790560132 $309 $386 forward 7 unknown #
vertex $-1 $310 $387 #
straight-curve $-1 -21.71163577027361 44.220563980386501 15.755828815659498 0 -1 0 I I #
edge $-1 $230 -34.907507347378427 $314 -2.8385880643895973 $232 $388 forward 7 unknown #
vertex $-1 $313 $389 #
straight-curve $-1 -21.71163577027361 -9.9630504583047212 61.949822871490952 0 -0.62932038083071107 0.77714596973225614 I I #
point $-1 -21.71163577027361 27.444107351859294 15.755828815659498 #
point $-1 -53.780555053262439 38.520805438034579 2.077245477473042 #
coedge $-1 $233 $390 $391 $392 reversed $234 $-1 #
face $-1 $393 $234 $17 $-1 $394 reversed single #
coedge $-1 $383 $236 $395 $396 forward $138 $-1 #
coedge $-1 $391 $397 $236 $322 reversed $398 $-1 #
edge $-1 $323 -38.520805438034586 $399 38.520805438034586 $321 $400 forward 7 unknown #
vertex $-1 $237 $401 #
straight-curve $-1 0 38.520805438034586 15.755828815659497 -1 0 0 I I #
face $-1 $402 $403 $18 $-1 $404 reversed single #
loop $-1 $-1 $405 $240 #
plane-surface $-1 0 0 15.755828815659497 0 0 1 1 0 0 forward_v I I I I #
coedge $-1 $406 $407 $405 $408 reversed $241 $-1 #
coedge $-1 $409 $330 $335 $410 reversed $243 $-1 #
coedge $-1 $329 $411 $244 $331 reversed $243 $-1 #
edge $-1 $336 59.440563105212135 $412 77.041610876069171 $244 $413 forward 7 unknown #
coedge $-1 $414 $415 $245 $333 forward $416 $-1 #
edge $-1 $337 55.062147790560132 $412 68.740731128746589 $332 $417 forward 7 unknown #
coedge $-1 $418 $246 $415 $419 forward $326 $-1 #
coedge $-1 $246 $405 $329 $410 forward $326 $-1 #
vertex $-1 $410 $420 #
vertex $-1 $419 $421 #
straight-curve $-1 -53.780555053262439 44.220563980386501 15.755828815659498 0 1 0 I I #
vertex $-1 $248 $422 #
point $-1 -43.118006686694201 31.682046685561442 7.8634861556071334 #
face $-1 $423 $424 $19 $-1 $425 forward single #
plane-surface $-1 -37.746095411768025 -9.9630504583047212 61.949822871490952 0 0.77714596973225614 0.62932038083071107 1 0 0 forward_v I I I I #
coedge $-1 $426 $427 $428 $429 reversed $253 $-1 #
coedge $-1 $344 $344 $-1 $430 forward $255 $-1 #
edge $-1 $431 0 $431 6.2831853071796004 $256 $432 forward 7 unknown #
vertex $-1 $259 $433 #
ellipse-curve $-1 -44.618006686694201 32.982456394946944 8.916537146566256 0 -0.77714596973225614 -0.62932038083071107 1.5 0 0 1 I I #
vertex $-1 $260 $434 #
point $-1 -29.374184136841841 31.682046685561442 7.8634861556071334 #
loop $-1 $-1 $435 $252 #
straight-curve $-1 -63.311258278145694 38.520805438034586 0 0 0 -1 I I #
point $-1 -63.311258278145694 -38.520805438034586 -15.755828815659497 #
straight-curve $-1 -63.311258278145694 0 -15.755828815659497 0 1 0 I I #
point $-1 -63.311258278145694 38.520805438034586 -15.755828815659497 #
loop $-1 $-1 $368 $281 #
plane-surface $-1 0 38.520805438034586 0 0 -1 0 0 0 -1 forward_v I I I I #
coedge $-1 $436 $284 $437 $438 forward $198 $-1 #
coedge $-1 $284 $436 $287 $362 forward $198 $-1 #
coedge $-1 $286 $285 $439 $440 forward $122 $-1 #
coedge $-1 $290 $441 $285 $361 reversed $282 $-1 #
edge $-1 $292 -22.377156371116747 $442 38.520805438034586 $360 $443 forward 7 unknown #
edge $-1 $364 -63.311258278145694 $301 63.311258278145694 $287 $444 forward 7 unknown #
coedge $-1 $441 $288 $436 $445 reversed $282 $-1 #
vertex $-1 $445 $446 #
straight-curve $-1 -63.311258278145694 -38.520805438034586 0 0 0 -1 I I #
straight-curve $-1 -63.311258278145694 -22.377156371116747 -5.694760570728457 0 0 1 I I #
point $-1 -63.311258278145694 -22.377156371116747 -15.755828815659498 #
coedge $-1 $439 $437 $294 $369 forward $355 $-1 #
edge $-1 $372 -15.755828815659497 $370 15.755828815659497 $294 $447 forward 7 unknown #
vertex $-1 $295 $448 #
straight-curve $-1 63.311258278145694 0 -15.755828815659497 0 -1 0 I I #
vertex $-1 $300 $449 #
straight-curve $-1 63.311258278145694 0 15.755828815659497 0 1 0 I I #
point $-1 63.311258278145694 -38.520805438034586 15.755828815659497 #
face $-1 $450 $451 $17 $-1 $452 reversed single #
loop $-1 $-1 $453 $304 #
plane-surface $-1 0 -38.520805438034586 0 0 1 0 0 0 1 forward_v I I I I #
coedge $-1 $454 $455 $456 $457 reversed $305 $-1 #
coedge $-1 $458 $307 $453 $459 reversed $220 $-1 #
coedge $-1 $307 $458 $454 $460 reversed $220 $-1 #
coedge $-1 $456 $461 $307 $382 forward $462 $-1 #
edge $-1 $463 -23.296314985746754 $464 -7.1526659188289141 $381 $465 forward 7 unknown #
coedge $-1 $308 $320 $466 $467 forward $138 $-1 #
coedge $-1 $468 $309 $308 $385 reversed $234 $-1 #
edge $-1 $469 -63.311258278145694 $311 21.71163577027361 $384 $324 forward 7 unknown #
straight-curve $-1 -21.71163577027361 38.520805438034586 70.817976606219631 0 0 1 I I #
point $-1 -21.71163577027361 38.520805438034586 15.755828815659497 #
straight-curve $-1 -18.873047705884012 38.520805438034586 2.0772454774730384 1 0 0 I I #
point $-1 -21.71163577027361 38.520805438034579 2.077245477473042 #
coedge $-1 $318 $468 $470 $471 reversed $234 $-1 #
coedge $-1 $472 $321 $318 $392 forward $398 $-1 #
edge $-1 $323 -15.755828815659497 $473 15.755828815659497 $318 $474 forward 7 unknown #
face $-1 $-1 $462 $17 $-1 $475 reversed single #
plane-surface $-1 0 38.520805438034586 0 0 -1 0 0 0 -1 forward_v I I I I #
coedge $-1 $476 $477 $320 $396 reversed $376 $-1 #
edge $-1 $399 -63.311258278145694 $478 63.311258278145694 $395 $479 forward 7 unknown #
coedge $-1 $321 $480 $476 $481 reversed $398 $-1 #
loop $-1 $-1 $480 $450 #
vertex $-1 $322 $482 #
straight-curve $-1 -63.311258278145694 0 15.755828815659497 0 -1 0 I I #
point $-1 -63.311258278145694 38.520805438034586 15.755828815659497 #
face $-1 $483 $484 $18 $-1 $485 forward single #
loop $-1 $-1 $486 $325 #
plane-surface $-1 0 -30.448980904575667 -7.0232134672543305 0 0 1 1 0 0 forward_v I I I I #
coedge $-1 $335 $487 $328 $408 forward $326 $-1 #
coedge $-1 $407 $328 $488 $489 reversed $241 $-1 #
coedge $-1 $328 $406 $409 $490 forward $241 $-1 #
edge $-1 $491 5.6997585423519155 $492 16.776456628527207 $405 $493 forward 7 unknown #
coedge $-1 $411 $329 $407 $490 reversed $243 $-1 #
edge $-1 $492 2.8385880643895973 $336 34.907507347378427 $335 $494 forward 7 unknown #
coedge $-1 $330 $409 $414 $495 reversed $243 $-1 #
vertex $-1 $495 $496 #
straight-curve $-1 -53.780555053262439 -9.9630504583047212 61.949822871490952 0 0.62932038083071107 -0.77714596973225614 I I #
coedge $-1 $488 $332 $411 $495 forward $416 $-1 #
coedge $-1 $332 $497 $334 $419 reversed $416 $-1 #
loop $-1 $-1 $488 $498 #
straight-curve $-1 -53.780555053262439 38.520805438034586 70.817976606219631 0 0 -1 I I #
coedge $-1 $499 $334 $500 $501 forward $326 $-1 #
edge $-1 $337 53.780555053262439 $502 63.311258278145694 $415 $503 forward 7 unknown #
point $-1 -53.780555053262439 27.444107351859294 15.755828815659498 #
point $-1 -53.780555053262439 38.520805438034586 15.755828815659497 #
point $-1 -44.618006686694201 30.516327730963059 6.9195055843610662 #
face $-1 $504 $505 $19 $-1 $506 forward single #
loop $-1 $-1 $507 $341 #
plane-surface $-1 -21.71163577027361 88.441127960773002 141.63595321243926 -1 0 0 0 0.77714596973225614 0.62932038083071107 forward_v I I I I #
coedge $-1 $427 $343 $508 $509 forward $253 $-1 #
coedge $-1 $343 $426 $510 $511 reversed $253 $-1 #
coedge $-1 $512 $513 $343 $429 forward $505 $-1 #
edge $-1 $514 -16.776456628527207 $515 -5.6997585423519155 $428 $516 forward 7 unknown #
edge $-1 $517 1 $517 0 $344 $-1 forward 7 unknown #
vertex $-1 $345 $518 #
ellipse-curve $-1 -44.618006686694201 31.682046685561442 7.8634861556071334 0 0.77714596973225614 0.62932038083071107 1.5 0 0 1 I I #
point $-1 -43.118006686694201 32.982456394946944 8.9165371465662524 #
point $-1 -30.874184136841841 30.516327730963059 6.9195055843610662 #
coedge $-1 $519 $508 $513 $520 reversed $350 $-1 #
coedge $-1 $358 $357 $363 $445 forward $198 $-1 #
coedge $-1 $368 $521 $357 $438 reversed $355 $-1 #
edge $-1 $372 -63.311258278145694 $522 63.311258278145694 $437 $523 forward 7 unknown #
coedge $-1 $521 $368 $359 $440 reversed $355 $-1 #
edge $-1 $442 -63.311258278145694 $370 63.311258278145694 $439 $524 forward 7 unknown #
coedge $-1 $360 $363 $521 $525 forward $282 $-1 #
vertex $-1 $440 $526 #
straight-curve $-1 -63.311258278145694 0 -15.755828815659497 0 1 0 I I #
straight-curve $-1 0 -38.520805438034586 15.755828815659497 1 0 0 I I #
edge $-1 $522 -38.520805438034586 $364 38.520805438034586 $363 $527 forward 7 unknown #
point $-1 -63.311258278145694 -38.520805438034586 15.755828815659497 #
straight-curve $-1 63.311258278145694 38.520805438034586 0 0 0 -1 I I #
point $-1 63.311258278145694 38.520805438034586 -15.755828815659497 #
point $-1 63.311258278145694 38.520805438034586 15.755828815659497 #
face $-1 $319 $398 $17 $-1 $528 reversed single #
loop $-1 $-1 $529 $375 #
plane-surface $-1 0 0 -15.755828815659497 0 0 1 1 0 0 forward_v I I I I #
coedge $-1 $477 $476 $379 $459 forward $376 $-1 #
coedge $-1 $530 $378 $380 $460 forward $305 $-1 #
coedge $-1 $378 $530 $529 $531 reversed $305 $-1 #
coedge $-1 $532 $381 $378 $457 forward $462 $-1 #
edge $-1 $464 1.3284528965258735 $533 10.061068244931041 $456 $534 forward 7 unknown #
coedge $-1 $380 $379 $480 $535 reversed $220 $-1 #
edge $-1 $536 -63.311258278145694 $463 63.311258278145694 $453 $537 forward 7 unknown #
edge $-1 $464 -63.311258278145694 $538 63.311258278145694 $454 $539 forward 7 unknown #
coedge $-1 $381 $466 $477 $540 forward $462 $-1 #
loop $-1 $-1 $456 $393 #
vertex $-1 $459 $541 #
vertex $-1 $382 $542 #
straight-curve $-1 63.311258278145694 -15.224490452287833 -7.0232134672543305 0 1 0 I I #
coedge $-1 $461 $543 $383 $467 reversed $462 $-1 #
edge $-1 $478 -38.520805438034586 $469 38.520805438034586 $466 $544 forward 7 unknown #
coedge $-1 $390 $384 $543 $545 forward $234 $-1 #
vertex $-1 $467 $546 #
coedge $-1 $547 $548 $390 $471 forward $451 $-1 #
edge $-1 $473 -63.311258278145694 $549 63.311258278145694 $390 $550 forward 7 unknown #
coedge $-1 $551 $391 $548 $552 reversed $398 $-1 #
vertex $-1 $471 $553 #
straight-curve $-1 -63.311258278145694 38.520805438034586 0 0 0 -1 I I #
plane-surface $-1 63.311258278145694 0 0 -1 0 0 0 0 1 forward_v I I I I #
coedge $-1 $453 $395 $397 $481 forward $376 $-1 #
coedge $-1 $395 $453 $461 $540 reversed $376 $-1 #
vertex $-1 $467 $554 #
straight-curve $-1 0 -38.520805438034586 15.755828815659497 1 0 0 I I #
coedge $-1 $397 $551 $458 $535 forward $398 $-1 #
edge $-1 $399 -15.755828815659497 $536 7.0232134672543305 $397 $555 forward 7 unknown #
point $-1 -63.311258278145694 -38.520805438034586 15.755828815659497 #
face $-1 $556 $557 $18 $-1 $558 reversed single #
loop $-1 $-1 $559 $402 #
plane-surface $-1 0 -22.377156371116747 -11.389521141456914 0 -1 0 0 0 -1 forward_v I I I I #
coedge $-1 $560 $561 $562 $563 reversed $403 $-1 #
coedge $-1 $405 $564 $565 $566 forward $326 $-1 #
coedge $-1 $565 $414 $406 $489 forward $416 $-1 #
edge $-1 $567 -68.740731128746589 $491 -55.062147790560132 $488 $568 forward 7 unknown #
edge $-1 $567 -77.041610876069171 $492 -59.440563105212135 $407 $569 forward 7 unknown #
vertex $-1 $489 $570 #
vertex $-1 $410 $571 #
straight-curve $-1 -21.71163577027361 44.220563980386501 15.755828815659498 0 -1 0 I I #
straight-curve $-1 -18.873047705884012 27.444107351859298 15.755828815659495 -1 0 0 I I #
edge $-1 $412 -34.907507347378427 $567 -2.8385880643895973 $414 $572 forward 7 unknown #
point $-1 -53.780555053262439 38.520805438034579 2.077245477473042 #
coedge $-1 $415 $573 $574 $575 reversed $416 $-1 #
face $-1 $576 $416 $18 $-1 $577 reversed single #
coedge $-1 $564 $418 $578 $579 forward $326 $-1 #
coedge $-1 $574 $580 $418 $501 reversed $581 $-1 #
edge $-1 $502 -38.520805438034586 $582 38.520805438034586 $500 $583 forward 7 unknown #
vertex $-1 $419 $584 #
straight-curve $-1 0 38.520805438034586 15.755828815659497 -1 0 0 I I #
face $-1 $585 $586 $19 $-1 $587 reversed single #
loop $-1 $-1 $588 $423 #
plane-surface $-1 0 0 15.755828815659497 0 0 1 1 0 0 forward_v I I I I #
coedge $-1 $589 $590 $588 $591 reversed $424 $-1 #
coedge $-1 $435 $592 $426 $509 reversed $350 $-1 #
edge $-1 $514 59.440563105212135 $593 77.041610876069171 $426 $594 forward 7 unknown #
coedge $-1 $595 $596 $427 $511 forward $597 $-1 #
edge $-1 $515 55.062147790560132 $593 68.740731128746589 $510 $598 forward 7 unknown #
coedge $-1 $599 $428 $596 $600 forward $505 $-1 #
coedge $-1 $428 $588 $435 $520 forward $505 $-1 #
vertex $-1 $520 $601 #
vertex $-1 $600 $602 #
straight-curve $-1 -53.780555053262439 44.220563980386501 15.755828815659498 0 1 0 I I #
vertex $-1 $430 $603 #
point $-1 -43.118006686694201 31.682046685561442 7.8634861556071334 #
coedge $-1 $592 $435 $590 $604 reversed $350 $-1 #
edge $-1 $605 2.8385880643895973 $514 34.907507347378427 $513 $606 forward 7 unknown #
coedge $-1 $437 $439 $441 $525 reversed $355 $-1 #
vertex $-1 $438 $607 #
straight-curve $-1 0 38.520805438034586 15.755828815659497 -1 0 0 I I #
straight-curve $-1 0 38.520805438034586 -15.755828815659497 1 0 0 I I #
edge $-1 $522 -15.755828815659497 $442 15.755828815659497 $521 $608 forward 7 unknown #
point $-1 -63.311258278145694 38.520805438034586 -15.755828815659497 #
straight-curve $-1 -63.311258278145694 0 15.755828815659497 0 -1 0 I I #
plane-surface $-1 -63.311258278145694 0 0 1 0 0 0 0 -1 forward_v I I I I #
coedge $-1 $548 $547 $455 $531 forward $451 $-1 #
coedge $-1 $455 $454 $551 $609 reversed $305 $-1 #
edge $-1 $533 -63.311258278145694 $610 63.311258278145694 $529 $611 forward 7 unknown #
coedge $-1 $543 $456 $547 $612 reversed $462 $-1 #
vertex $-1 $531 $613 #
straight-curve $-1 63.311258278145694 -22.377156371116747 -5.694760570728457 0 0 -1 I I #
edge $-1 $538 7.1526659188289141 $536 23.296314985746754 $480 $614 forward 7 unknown #
vertex $-1 $459 $615 #
straight-curve $-1 0 -38.520805438034586 -7.0232134672543305 1 0 0 I I #
vertex $-1 $535 $616 #
straight-curve $-1 0 -22.377156371116747 -7.0232134672543305 -1 0 0 I I #
edge $-1 $478 -15.755828815659497 $463 7.0232134672543305 $461 $617 forward 7 unknown #
point $-1 63.311258278145694 -38.520805438034586 -7.0232134672543305 #
point $-1 63.311258278145694 -22.377156371116747 -7.0232134672543305 #
coedge $-1 $466 $532 $468 $545 reversed $462 $-1 #
straight-curve $-1 63.311258278145694 0 15.755828815659497 0 1 0 I I #
edge $-1 $469 -15.755828815659497 $549 15.755828815659497 $543 $618 forward 7 unknown #
point $-1 63.311258278145694 38.520805438034586 15.755828815659497 #
coedge $-1 $529 $470 $532 $612 forward $451 $-1 #
coedge $-1 $470 $529 $472 $552 forward $451 $-1 #
vertex $-1 $612 $619 #
straight-curve $-1 0 38.520805438034586 -15.755828815659497 1 0 0 I I #
coedge $-1 $480 $472 $530 $609 forward $398 $-1 #
edge $-1 $610 -22.377156371116747 $473 38.520805438034586 $472 $620 forward 7 unknown #
point $-1 -63.311258278145694 38.520805438034586 -15.755828815659497 #
point $-1 63.311258278145694 -38.520805438034586 15.755828815659497 #
straight-curve $-1 -63.311258278145694 -38.520805438034586 0 0 0 -1 I I #
face $-1 $621 $622 $18 $-1 $623 reversed single #
loop $-1 $-1 $624 $483 #
plane-surface $-1 0 -38.520805438034586 0 0 1 0 0 0 1 forward_v I I I I #
coedge $-1 $625 $626 $627 $628 reversed $484 $-1 #
coedge $-1 $629 $486 $624 $630 reversed $403 $-1 #
coedge $-1 $486 $629 $625 $631 reversed $403 $-1 #
coedge $-1 $627 $632 $486 $563 forward $633 $-1 #
edge $-1 $634 -23.296314985746754 $635 -7.1526659188289141 $562 $636 forward 7 unknown #
coedge $-1 $487 $499 $637 $638 forward $326 $-1 #
coedge $-1 $639 $488 $487 $566 reversed $416 $-1 #
edge $-1 $640 -63.311258278145694 $491 21.71163577027361 $565 $503 forward 7 unknown #
vertex $-1 $495 $641 #
straight-curve $-1 -21.71163577027361 38.520805438034586 70.817976606219631 0 0 1 I I #
straight-curve $-1 -21.71163577027361 -9.9630504583047212 61.949822871490952 0 -0.62932038083071107 0.77714596973225614 I I #
point $-1 -21.71163577027361 38.520805438034586 15.755828815659497 #
point $-1 -21.71163577027361 27.444107351859294 15.755828815659498 #
straight-curve $-1 -18.873047705884012 38.520805438034586 2.0772454774730384 1 0 0 I I #
coedge $-1 $497 $639 $642 $643 reversed $416 $-1 #
coedge $-1 $644 $500 $497 $575 forward $581 $-1 #
edge $-1 $502 -15.755828815659497 $645 15.755828815659497 $497 $646 forward 7 unknown #
face $-1 $-1 $633 $18 $-1 $647 reversed single #
plane-surface $-1 0 38.520805438034586 0 0 -1 0 0 0 -1 forward_v I I I I #
coedge $-1 $648 $649 $499 $579 reversed $557 $-1 #
edge $-1 $582 -63.311258278145694 $650 63.311258278145694 $578 $651 forward 7 unknown #
coedge $-1 $500 $652 $648 $653 reversed $581 $-1 #
loop $-1 $-1 $652 $621 #
vertex $-1 $501 $654 #
straight-curve $-1 -63.311258278145694 0 15.755828815659497 0 -1 0 I I #
point $-1 -63.311258278145694 38.520805438034586 15.755828815659497 #
face $-1 $655 $656 $19 $-1 $657 forward single #
loop $-1 $-1 $658 $504 #
plane-surface $-1 0 -30.448980904575667 -7.0232134672543305 0 0 1 1 0 0 forward_v I I I I #
coedge $-1 $513 $659 $507 $591 forward $505 $-1 #
coedge $-1 $590 $507 $660 $661 reversed $424 $-1 #
coedge $-1 $507 $589 $519 $604 forward $424 $-1 #
edge $-1 $662 5.6997585423519155 $605 16.776456628527207 $588 $663 forward 7 unknown #
coedge $-1 $508 $519 $595 $664 reversed $350 $-1 #
vertex $-1 $664 $665 #
straight-curve $-1 -53.780555053262439 -9.9630504583047212 61.949822871490952 0 0.62932038083071107 -0.77714596973225614 I I #
coedge $-1 $660 $510 $592 $664 forward $597 $-1 #
coedge $-1 $510 $666 $512 $600 reversed $597 $-1 #
loop $-1 $-1 $660 $667 #
straight-curve $-1 -53.780555053262439 38.520805438034586 70.817976606219631 0 0 -1 I I #
coedge $-1 $668 $512 $669 $670 forward $505 $-1 #
edge $-1 $515 53.780555053262439 $671 63.311258278145694 $596 $672 forward 7 unknown #
point $-1 -53.780555053262439 27.444107351859294 15.755828815659498 #
point $-1 -53.780555053262439 38.520805438034586 15.755828815659497 #
point $-1 -44.618006686694201 30.516327730963059 6.9195055843610662 #
edge $-1 $673 -77.041610876069171 $605 -59.440563105212135 $590 $674 forward 7 unknown #
vertex $-1 $520 $675 #
straight-curve $-1 -18.873047705884012 27.444107351859298 15.755828815659495 -1 0 0 I I #
point $-1 -63.311258278145694 38.520805438034586 15.755828815659497 #
straight-curve $-1 -63.311258278145694 38.520805438034586 0 0 0 -1 I I #
edge $-1 $610 -10.061068244931041 $538 -1.3284528965258735 $551 $676 forward 7 unknown #
vertex $-1 $552 $677 #
straight-curve $-1 0 -22.377156371116747 -15.755828815659497 -1 0 0 I I #
edge $-1 $549 -38.520805438034586 $533 22.377156371116747 $532 $678 forward 7 unknown #
point $-1 63.311258278145694 -22.377156371116747 -15.755828815659498 #
straight-curve $-1 -63.311258278145694 -15.224490452287833 -7.0232134672543305 0 -1 0 I I #
point $-1 -63.311258278145694 -38.520805438034586 -7.0232134672543305 #
point $-1 -63.311258278145694 -22.377156371116747 -7.0232134672543305 #
straight-curve $-1 63.311258278145694 -38.520805438034586 0 0 0 -1 I I #
straight-curve $-1 63.311258278145694 38.520805438034586 0 0 0 -1 I I #
point $-1 63.311258278145694 38.520805438034586 -15.755828815659497 #
straight-curve $-1 -63.311258278145694 0 -15.755828815659497 0 1 0 I I #
face $-1 $498 $581 $18 $-1 $679 reversed single #
loop $-1 $-1 $680 $556 #
plane-surface $-1 0 0 -15.755828815659497 0 0 1 1 0 0 forward_v I I I I #
coedge $-1 $649 $648 $560 $630 forward $557 $-1 #
coedge $-1 $681 $559 $561 $631 forward $484 $-1 #
coedge $-1 $559 $681 $680 $682 reversed $484 $-1 #
coedge $-1 $683 $562 $559 $628 forward $633 $-1 #
edge $-1 $635 1.3284528965258735 $684 10.061068244931041 $627 $685 forward 7 unknown #
coedge $-1 $561 $560 $652 $686 reversed $403 $-1 #
edge $-1 $687 -63.311258278145694 $634 63.311258278145694 $624 $688 forward 7 unknown #
edge $-1 $635 -63.311258278145694 $689 63.311258278145694 $625 $690 forward 7 unknown #
coedge $-1 $562 $637 $649 $691 forward $633 $-1 #
loop $-1 $-1 $627 $576 #
vertex $-1 $630 $692 #
vertex $-1 $563 $693 #
straight-curve $-1 63.311258278145694 -15.224490452287833 -7.0232134672543305 0 1 0 I I #
coedge $-1 $632 $694 $564 $638 reversed $633 $-1 #
edge $-1 $650 -38.520805438034586 $640 38.520805438034586 $637 $695 forward 7 unknown #
coedge $-1 $573 $565 $694 $696 forward $416 $-1 #
vertex $-1 $638 $697 #
point $-1 -21.71163577027361 38.520805438034579 2.077245477473042 #
coedge $-1 $698 $699 $573 $643 forward $622 $-1 #
edge $-1 $645 -63.311258278145694 $700 63.311258278145694 $573 $701 forward 7 unknown #
coedge $-1 $702 $574 $699 $703 reversed $581 $-1 #
vertex $-1 $643 $704 #
straight-curve $-1 -63.311258278145694 38.520805438034586 0 0 0 -1 I I #
plane-surface $-1 63.311258278145694 0 0 -1 0 0 0 0 1 forward_v I I I I #
coedge $-1 $624 $578 $580 $653 forward $557 $-1 #
coedge $-1 $578 $624 $632 $691 reversed $557 $-1 #
vertex $-1 $638 $705 #
straight-curve $-1 0 -38.520805438034586 15.755828815659497 1 0 0 I I #
coedge $-1 $580 $702 $629 $686 forward $581 $-1 #
edge $-1 $582 -15.755828815659497 $687 7.0232134672543305 $580 $706 forward 7 unknown #
point $-1 -63.311258278145694 -38.520805438034586 15.755828815659497 #
face $-1 $707 $708 $19 $-1 $709 reversed single #
loop $-1 $-1 $710 $585 #
plane-surface $-1 0 -22.377156371116747 -11.389521141456914 0 -1 0 0 0 -1 forward_v I I I I #
coedge $-1 $711 $712 $713 $714 reversed $586 $-1 #
coedge $-1 $588 $715 $716 $717 forward $505 $-1 #
coedge $-1 $716 $595 $589 $661 forward $597 $-1 #
edge $-1 $673 -68.740731128746589 $662 -55.062147790560132 $660 $718 forward 7 unknown #
vertex $-1 $661 $719 #
straight-curve $-1 -21.71163577027361 44.220563980386501 15.755828815659498 0 -1 0 I I #
edge $-1 $593 -34.907507347378427 $673 -2.8385880643895973 $595 $720 forward 7 unknown #
point $-1 -53.780555053262439 38.520805438034579 2.077245477473042 #
coedge $-1 $596 $721 $722 $723 reversed $597 $-1 #
face $-1 $724 $597 $19 $-1 $725 reversed single #
coedge $-1 $715 $599 $726 $727 forward $505 $-1 #
coedge $-1 $722 $728 $599 $670 reversed $729 $-1 #
edge $-1 $671 -38.520805438034586 $730 38.520805438034586 $669 $731 forward 7 unknown #
vertex $-1 $600 $732 #
straight-curve $-1 0 38.520805438034586 15.755828815659497 -1 0 0 I I #
vertex $-1 $664 $733 #
straight-curve $-1 -21.71163577027361 -9.9630504583047212 61.949822871490952 0 -0.62932038083071107 0.77714596973225614 I I #
point $-1 -21.71163577027361 27.444107351859294 15.755828815659498 #
straight-curve $-1 -63.311258278145694 -22.377156371116747 -5.694760570728457 0 0 1 I I #
point $-1 -63.311258278145694 -22.377156371116747 -15.755828815659498 #
straight-curve $-1 63.311258278145694 0 -15.755828815659497 0 -1 0 I I #
plane-surface $-1 -63.311258278145694 0 0 1 0 0 0 0 -1 forward_v I I I I #
coedge $-1 $699 $698 $626 $682 forward $622 $-1 #
coedge $-1 $626 $625 $702 $734 reversed $484 $-1 #
edge $-1 $684 -63.311258278145694 $735 63.311258278145694 $680 $736 forward 7 unknown #
coedge $-1 $694 $627 $698 $737 reversed $633 $-1 #
vertex $-1 $682 $738 #
straight-curve $-1 63.311258278145694 -22.377156371116747 -5.694760570728457 0 0 -1 I I #
edge $-1 $689 7.1526659188289141 $687 23.296314985746754 $652 $739 forward 7 unknown #
vertex $-1 $630 $740 #
straight-curve $-1 0 -38.520805438034586 -7.0232134672543305 1 0 0 I I #
vertex $-1 $686 $741 #
straight-curve $-1 0 -22.377156371116747 -7.0232134672543305 -1 0 0 I I #
edge $-1 $650 -15.755828815659497 $634 7.0232134672543305 $632 $742 forward 7 unknown #
point $-1 63.311258278145694 -38.520805438034586 -7.0232134672543305 #
point $-1 63.311258278145694 -22.377156371116747 -7.0232134672543305 #
coedge $-1 $637 $683 $639 $696 reversed $633 $-1 #
straight-curve $-1 63.311258278145694 0 15.755828815659497 0 1 0 I I #
edge $-1 $640 -15.755828815659497 $700 15.755828815659497 $694 $743 forward 7 unknown #
point $-1 63.311258278145694 38.520805438034586 15.755828815659497 #
coedge $-1 $680 $642 $683 $737 forward $622 $-1 #
coedge $-1 $642 $680 $644 $703 forward $622 $-1 #
vertex $-1 $737 $744 #
straight-curve $-1 0 38.520805438034586 -15.755828815659497 1 0 0 I I #
coedge $-1 $652 $644 $681 $734 forward $581 $-1 #
edge $-1 $735 -22.377156371116747 $645 38.520805438034586 $644 $745 forward 7 unknown #
point $-1 -63.311258278145694 38.520805438034586 -15.755828815659497 #
point $-1 63.311258278145694 -38.520805438034586 15.755828815659497 #
straight-curve $-1 -63.311258278145694 -38.520805438034586 0 0 0 -1 I I #
face $-1 $746 $747 $19 $-1 $748 reversed single #
loop $-1 $-1 $749 $655 #
plane-surface $-1 0 -38.520805438034586 0 0 1 0 0 0 1 forward_v I I I I #
coedge $-1 $750 $751 $752 $753 reversed $656 $-1 #
coedge $-1 $754 $658 $749 $755 reversed $586 $-1 #
coedge $-1 $658 $754 $750 $756 reversed $586 $-1 #
coedge $-1 $752 $757 $658 $714 forward $758 $-1 #
edge $-1 $759 -23.296314985746754 $760 -7.1526659188289141 $713 $761 forward 7 unknown #
coedge $-1 $659 $668 $762 $763 forward $505 $-1 #
coedge $-1 $764 $660 $659 $717 reversed $597 $-1 #
edge $-1 $765 -63.311258278145694 $662 21.71163577027361 $716 $672 forward 7 unknown #
straight-curve $-1 -21.71163577027361 38.520805438034586 70.817976606219631 0 0 1 I I #
point $-1 -21.71163577027361 38.520805438034586 15.755828815659497 #
straight-curve $-1 -18.873047705884012 38.520805438034586 2.0772454774730384 1 0 0 I I #
coedge $-1 $666 $764 $766 $767 reversed $597 $-1 #
coedge $-1 $768 $669 $666 $723 forward $729 $-1 #
edge $-1 $671 -15.755828815659497 $769 15.755828815659497 $666 $770 forward 7 unknown #
face $-1 $-1 $758 $19 $-1 $771 reversed single #
plane-surface $-1 0 38.520805438034586 0 0 -1 0 0 0 -1 forward_v I I I I #
coedge $-1 $772 $773 $668 $727 reversed $708 $-1 #
edge $-1 $730 -63.311258278145694 $774 63.311258278145694 $726 $775 forward 7 unknown #
coedge $-1 $669 $776 $772 $777 reversed $729 $-1 #
loop $-1 $-1 $776 $746 #
vertex $-1 $670 $778 #
straight-curve $-1 -63.311258278145694 0 15.755828815659497 0 -1 0 I I #
point $-1 -63.311258278145694 38.520805438034586 15.755828815659497 #
point $-1 -21.71163577027361 38.520805438034579 2.077245477473042 #
edge $-1 $735 -10.061068244931041 $689 -1.3284528965258735 $702 $779 forward 7 unknown #
vertex $-1 $703 $780 #
straight-curve $-1 0 -22.377156371116747 -15.755828815659497 -1 0 0 I I #
edge $-1 $700 -38.520805438034586 $684 22.377156371116747 $683 $781 forward 7 unknown #
point $-1 63.311258278145694 -22.377156371116747 -15.755828815659498 #
straight-curve $-1 -63.311258278145694 -15.224490452287833 -7.0232134672543305 0 -1 0 I I #
point $-1 -63.311258278145694 -38.520805438034586 -7.0232134672543305 #
point $-1 -63.311258278145694 -22.377156371116747 -7.0232134672543305 #
straight-curve $-1 63.311258278145694 -38.520805438034586 0 0 0 -1 I I #
straight-curve $-1 63.311258278145694 38.520805438034586 0 0 0 -1 I I #
point $-1 63.311258278145694 38.520805438034586 -15.755828815659497 #
straight-curve $-1 -63.311258278145694 0 -15.755828815659497 0 1 0 I I #
face $-1 $667 $729 $19 $-1 $782 reversed single #
loop $-1 $-1 $783 $707 #
plane-surface $-1 0 0 -15.755828815659497 0 0 1 1 0 0 forward_v I I I I #
coedge $-1 $773 $772 $711 $755 forward $708 $-1 #
coedge $-1 $784 $710 $712 $756 forward $656 $-1 #
coedge $-1 $710 $784 $783 $785 reversed $656 $-1 #
coedge $-1 $786 $713 $710 $753 forward $758 $-1 #
edge $-1 $760 1.3284528965258735 $787 10.061068244931041 $752 $788 forward 7 unknown #
coedge $-1 $712 $711 $776 $789 reversed $586 $-1 #
edge $-1 $790 -63.311258278145694 $759 63.311258278145694 $749 $791 forward 7 unknown #
edge $-1 $760 -63.311258278145694 $792 63.311258278145694 $750 $793 forward 7 unknown #
coedge $-1 $713 $762 $773 $794 forward $758 $-1 #
loop $-1 $-1 $752 $724 #
vertex $-1 $755 $795 #
vertex $-1 $714 $796 #
straight-curve $-1 63.311258278145694 -15.224490452287833 -7.0232134672543305 0 1 0 I I #
coedge $-1 $757 $797 $715 $763 reversed $758 $-1 #
edge $-1 $774 -38.520805438034586 $765 38.520805438034586 $762 $798 forward 7 unknown #
coedge $-1 $721 $716 $797 $799 forward $597 $-1 #
vertex $-1 $763 $800 #
coedge $-1 $801 $802 $721 $767 forward $747 $-1 #
edge $-1 $769 -63.311258278145694 $803 63.311258278145694 $721 $804 forward 7 unknown #
coedge $-1 $805 $722 $802 $806 reversed $729 $-1 #
vertex $-1 $767 $807 #
straight-curve $-1 -63.311258278145694 38.520805438034586 0 0 0 -1 I I #
plane-surface $-1 63.311258278145694 0 0 -1 0 0 0 0 1 forward_v I I I I #
coedge $-1 $749 $726 $728 $777 forward $708 $-1 #
coedge $-1 $726 $749 $757 $794 reversed $708 $-1 #
vertex $-1 $763 $808 #
straight-curve $-1 0 -38.520805438034586 15.755828815659497 1 0 0 I I #
coedge $-1 $728 $805 $754 $789 forward $729 $-1 #
edge $-1 $730 -15.755828815659497 $790 7.0232134672543305 $728 $809 forward 7 unknown #
point $-1 -63.311258278145694 -38.520805438034586 15.755828815659497 #
straight-curve $-1 -63.311258278145694 -22.377156371116747 -5.694760570728457 0 0 1 I I #
point $-1 -63.311258278145694 -22.377156371116747 -15.755828815659498 #
straight-curve $-1 63.311258278145694 0 -15.755828815659497 0 -1 0 I I #
plane-surface $-1 -63.311258278145694 0 0 1 0 0 0 0 -1 forward_v I I I I #
coedge $-1 $802 $801 $751 $785 forward $747 $-1 #
coedge $-1 $751 $750 $805 $810 reversed $656 $-1 #
edge $-1 $787 -63.311258278145694 $811 63.311258278145694 $783 $812 forward 7 unknown #
coedge $-1 $797 $752 $801 $813 reversed $758 $-1 #
vertex $-1 $785 $814 #
straight-curve $-1 63.311258278145694 -22.377156371116747 -5.694760570728457 0 0 -1 I I #
edge $-1 $792 7.1526659188289141 $790 23.296314985746754 $776 $815 forward 7 unknown #
vertex $-1 $755 $816 #
straight-curve $-1 0 -38.520805438034586 -7.0232134672543305 1 0 0 I I #
vertex $-1 $789 $817 #
straight-curve $-1 0 -22.377156371116747 -7.0232134672543305 -1 0 0 I I #
edge $-1 $774 -15.755828815659497 $759 7.0232134672543305 $757 $818 forward 7 unknown #
point $-1 63.311258278145694 -38.520805438034586 -7.0232134672543305 #
point $-1 63.311258278145694 -22.377156371116747 -7.0232134672543305 #
coedge $-1 $762 $786 $764 $799 reversed $758 $-1 #
straight-curve $-1 63.311258278145694 0 15.755828815659497 0 1 0 I I #
edge $-1 $765 -15.755828815659497 $803 15.755828815659497 $797 $819 forward 7 unknown #
point $-1 63.311258278145694 38.520805438034586 15.755828815659497 #
coedge $-1 $783 $766 $786 $813 forward $747 $-1 #
coedge $-1 $766 $783 $768 $806 forward $747 $-1 #
vertex $-1 $813 $820 #
straight-curve $-1 0 38.520805438034586 -15.755828815659497 1 0 0 I I #
coedge $-1 $776 $768 $784 $810 forward $729 $-1 #
edge $-1 $811 -22.377156371116747 $769 38.520805438034586 $768 $821 forward 7 unknown #
point $-1 -63.311258278145694 38.520805438034586 -15.755828815659497 #
point $-1 63.311258278145694 -38.520805438034586 15.755828815659497 #
straight-curve $-1 -63.311258278145694 -38.520805438034586 0 0 0 -1 I I #
edge $-1 $811 -10.061068244931041 $792 -1.3284528965258735 $805 $822 forward 7 unknown #
vertex $-1 $806 $823 #
straight-curve $-1 0 -22.377156371116747 -15.755828815659497 -1 0 0 I I #
edge $-1 $803 -38.520805438034586 $787 22.377156371116747 $786 $824 forward 7 unknown #
point $-1 63.311258278145694 -22.377156371116747 -15.755828815659498 #
straight-curve $-1 -63.311258278145694 -15.224490452287833 -7.0232134672543305 0 -1 0 I I #
point $-1 -63.311258278145694 -38.520805438034586 -7.0232134672543305 #
point $-1 -63.311258278145694 -22.377156371116747 -7.0232134672543305 #
straight-curve $-1 63.311258278145694 -38.520805438034586 0 0 0 -1 I I #
straight-curve $-1 63.311258278145694 38.520805438034586 0 0 0 -1 I I #
point $-1 63.311258278145694 38.520805438034586 -15.755828815659497 #
straight-curve $-1 -63.311258278145694 0 -15.755828815659497 0 1 0 I I #
straight-curve $-1 -63.311258278145694 -22.377156371116747 -5.694760570728457 0 0 1 I I #
point $-1 -63.311258278145694 -22.377156371116747 -15.755828815659498 #
straight-curve $-1 63.311258278145694 0 -15.755828815659497 0 -1 0 I I #
End-of-ACIS-data 