500 0 5 0           
7 Unknown 11 ACIS 5.0 NT 24 Thu Mar 25 21:50:48 1999 
-1 9.9999999999999995e-007 1e-010 
body $-1 $5 $-1 $6 #
body $-1 $7 $-1 $8 #
body $-1 $9 $-1 $10 #
body $-1 $11 $-1 $12 #
body $-1 $13 $-1 $14 #
lump $-1 $-1 $15 $0 #
transform $-1 1 0 0 0 1 0 0 0 1 68.111209448530531 32.26817136128448 11.42724795248906 1 rotate no_reflect no_shear #
lump $-1 $-1 $16 $1 #
transform $-1 1 0 0 0 1 0 0 0 1 68.111209448530531 32.26817136128448 11.42724795248906 1 rotate no_reflect no_shear #
lump $-1 $-1 $17 $2 #
transform $-1 1 0 0 0 1 0 0 0 1 68.111209448530531 32.26817136128448 11.42724795248906 1 rotate no_reflect no_shear #
lump $-1 $-1 $18 $3 #
transform $-1 1 0 0 0 1 0 0 0 1 68.111209448530531 32.26817136128448 11.42724795248906 1 rotate no_reflect no_shear #
lump $-1 $-1 $19 $4 #
transform $-1 1 0 0 0 1 0 0 0 1 68.111209448530531 32.26817136128448 11.42724795248906 1 rotate no_reflect no_shear #
shell $-1 $-1 $-1 $20 $-1 $5 #
shell $-1 $-1 $-1 $21 $-1 $7 #
shell $-1 $-1 $-1 $22 $-1 $9 #
shell $-1 $-1 $-1 $23 $-1 $11 #
shell $-1 $-1 $-1 $24 $-1 $13 #
face $-1 $25 $26 $15 $-1 $27 forward single #
face $-1 $28 $29 $16 $-1 $30 forward single #
face $-1 $31 $32 $17 $-1 $33 forward single #
face $-1 $34 $35 $18 $-1 $36 reversed single #
face $-1 $37 $38 $19 $-1 $39 forward single #
face $-1 $40 $41 $15 $-1 $42 reversed single #
loop $-1 $-1 $43 $20 #
plane-surface $-1 0 0 11.42724795248906 0 0 1 1 0 0 forward_v I I I I #
face $-1 $44 $45 $16 $-1 $46 reversed single #
loop $-1 $-1 $47 $21 #
plane-surface $-1 -68.111209448530531 0 0 1 0 0 0 0 -1 forward_v I I I I #
face $-1 $48 $49 $17 $-1 $50 reversed single #
loop $-1 $-1 $51 $22 #
plane-surface $-1 68.111209448530531 0 0 -1 0 0 0 0 1 forward_v I I I I #
face $-1 $52 $53 $18 $-1 $54 reversed single #
loop $-1 $-1 $55 $23 #
plane-surface $-1 -25.209053697521902 -117.99571835586499 108.9118539705818 -1 0 0 0 -0.62932039886446345 0.77714595512881146 forward_v I I I I #
face $-1 $56 $57 $19 $-1 $58 forward single #
loop $-1 $59 $60 $24 #
cone-surface $-1 -39.307002490981276 -25.169901710837607 4.8612684515888152 0 0.62932039886446345 -0.77714595512881146 2 0 0 1 I I 0 1 2 forward I I I I #
face $-1 $61 $62 $15 $-1 $63 reversed single #
loop $-1 $-1 $64 $25 #
plane-surface $-1 0 0 -11.42724795248906 0 0 1 1 0 0 forward_v I I I I #
coedge $-1 $65 $66 $67 $68 forward $26 $-1 #
face $-1 $69 $70 $16 $-1 $71 forward single #
loop $-1 $-1 $72 $28 #
plane-surface $-1 0 32.26817136128448 0 0 -1 0 0 0 -1 forward_v I I I I #
coedge $-1 $73 $74 $75 $76 forward $29 $-1 #
face $-1 $77 $78 $17 $-1 $79 forward single #
loop $-1 $-1 $80 $31 #
plane-surface $-1 0 32.26817136128448 0 0 -1 0 0 0 -1 forward_v I I I I #
coedge $-1 $81 $82 $83 $84 forward $32 $-1 #
face $-1 $85 $86 $18 $-1 $87 reversed single #
loop $-1 $-1 $88 $34 #
plane-surface $-1 -39.307002490981276 -32.268171361284502 3.0471521268682267 0 -0.62932039886446345 0.77714595512881146 1 0 0 forward_v I I I I #
coedge $-1 $89 $90 $91 $92 reversed $35 $-1 #
face $-1 $-1 $93 $19 $-1 $94 forward single #
loop $-1 $95 $96 $37 #
cone-surface $-1 -39.307002490981276 -22.616589808416354 1.7081909083701898 0 0.62932039886446345 -0.77714595512881146 1 0 0 1 I I -0.70710678118654746 0.70710678118654746 1 forward I I I I #
loop $-1 $-1 $97 $24 #
coedge $-1 $60 $60 $98 $99 reversed $38 $-1 #
face $-1 $100 $101 $15 $-1 $102 reversed single #
loop $-1 $-1 $103 $40 #
plane-surface $-1 0 -32.26817136128448 0 0 1 0 0 0 1 forward_v I I I I #
coedge $-1 $104 $105 $106 $107 forward $41 $-1 #
coedge $-1 $108 $43 $109 $110 forward $26 $-1 #
coedge $-1 $43 $108 $111 $112 forward $26 $-1 #
coedge $-1 $113 $114 $43 $68 reversed $115 $-1 #
edge $-1 $116 -32.26817136128448 $117 32.26817136128448 $67 $118 forward 7 unknown #
face $-1 $119 $120 $16 $-1 $121 reversed single #
loop $-1 $-1 $75 $44 #
plane-surface $-1 -75.464338530575475 0 -6.246677002013735 0 0 1 1 0 0 forward_v I I I I #
coedge $-1 $122 $123 $74 $124 forward $45 $-1 #
coedge $-1 $125 $47 $126 $127 reversed $29 $-1 #
coedge $-1 $47 $125 $72 $124 reversed $29 $-1 #
coedge $-1 $128 $129 $47 $76 reversed $70 $-1 #
edge $-1 $130 -32.26817136128448 $131 32.26817136128448 $75 $132 forward 7 unknown #
face $-1 $133 $134 $17 $-1 $135 reversed single #
loop $-1 $-1 $136 $48 #
plane-surface $-1 75.464338530575475 0 -6.246677002013735 0 0 1 1 0 0 forward_v I I I I #
coedge $-1 $137 $138 $81 $139 forward $49 $-1 #
coedge $-1 $140 $51 $80 $139 reversed $32 $-1 #
coedge $-1 $51 $140 $141 $142 reversed $32 $-1 #
coedge $-1 $143 $144 $51 $84 reversed $78 $-1 #
edge $-1 $145 -32.26817136128448 $146 32.26817136128448 $83 $147 forward 7 unknown #
face $-1 $148 $149 $18 $-1 $150 forward single #
loop $-1 $-1 $151 $52 #
plane-surface $-1 -53.404951284440649 -117.99571835586499 108.9118539705818 1 0 0 0 0.62932039886446345 -0.77714595512881146 forward_v I I I I #
coedge $-1 $152 $153 $154 $155 reversed $53 $-1 #
coedge $-1 $90 $55 $156 $157 reversed $35 $-1 #
coedge $-1 $55 $89 $152 $158 reversed $35 $-1 #
coedge $-1 $154 $159 $55 $92 forward $149 $-1 #
edge $-1 $160 26.729687816648017 $161 37.07824411042813 $91 $162 forward 7 unknown #
loop $-1 $-1 $98 $56 #
plane-surface $-1 -39.307002490981276 -32.268171361284502 3.0471521268682267 0 -0.62932039886446345 0.77714595512881146 1 0 0 forward_v I I I I #
loop $-1 $-1 $163 $37 #
coedge $-1 $96 $96 $97 $164 reversed $57 $-1 #
coedge $-1 $97 $97 $96 $164 forward $59 $-1 #
coedge $-1 $98 $98 $60 $99 forward $93 $-1 #
edge $-1 $165 -1.0130076459554845e-016 $165 6.2831853071796004 $98 $166 forward 7 unknown #
face $-1 $167 $168 $15 $-1 $169 reversed single #
loop $-1 $-1 $170 $61 #
plane-surface $-1 -68.111209448530531 0 0 1 0 0 0 0 -1 forward_v I I I I #
coedge $-1 $171 $111 $172 $173 forward $62 $-1 #
coedge $-1 $174 $64 $171 $175 forward $41 $-1 #
coedge $-1 $64 $174 $176 $177 forward $41 $-1 #
coedge $-1 $114 $113 $64 $107 reversed $115 $-1 #
edge $-1 $178 -32.26817136128448 $179 32.26817136128448 $106 $180 forward 7 unknown #
coedge $-1 $66 $65 $181 $182 forward $26 $-1 #
coedge $-1 $183 $184 $65 $110 reversed $168 $-1 #
edge $-1 $117 -68.111209448530531 $185 68.111209448530531 $109 $186 forward 7 unknown #
coedge $-1 $103 $187 $66 $112 reversed $62 $-1 #
edge $-1 $188 -68.111209448530531 $116 68.111209448530531 $111 $189 forward 7 unknown #
coedge $-1 $106 $67 $187 $190 forward $115 $-1 #
coedge $-1 $67 $106 $183 $191 reversed $115 $-1 #
loop $-1 $-1 $113 $167 #
vertex $-1 $68 $192 #
vertex $-1 $68 $193 #
straight-curve $-1 68.111209448530531 0 11.42724795248906 0 1 0 I I #
face $-1 $194 $195 $16 $-1 $196 reversed single #
loop $-1 $-1 $197 $69 #
plane-surface $-1 -82.817467612620419 0 -8.8369624772513973 1 0 0 0 0 -1 forward_v I I I I #
coedge $-1 $198 $72 $199 $200 reversed $45 $-1 #
coedge $-1 $72 $198 $128 $201 reversed $45 $-1 #
edge $-1 $130 6.246677002013735 $202 11.42724795248906 $72 $203 forward 7 unknown #
coedge $-1 $74 $73 $204 $205 reversed $29 $-1 #
coedge $-1 $206 $207 $73 $127 forward $208 $-1 #
edge $-1 $209 -11.42724795248906 $131 -6.246677002013735 $126 $210 forward 7 unknown #
coedge $-1 $211 $75 $123 $201 forward $70 $-1 #
coedge $-1 $75 $211 $206 $212 forward $70 $-1 #
vertex $-1 $124 $213 #
vertex $-1 $212 $214 #
straight-curve $-1 -68.111209448530531 0 -6.246677002013735 0 -1 0 I I #
face $-1 $215 $216 $17 $-1 $217 reversed single #
loop $-1 $-1 $218 $77 #
plane-surface $-1 82.817467612620419 0 -8.8369624772513973 -1 0 0 0 0 1 forward_v I I I I #
coedge $-1 $144 $143 $219 $220 forward $78 $-1 #
coedge $-1 $221 $80 $144 $222 reversed $49 $-1 #
coedge $-1 $80 $221 $223 $224 reversed $49 $-1 #
edge $-1 $225 -11.42724795248906 $146 -6.246677002013735 $80 $226 forward 7 unknown #
coedge $-1 $82 $81 $227 $228 reversed $32 $-1 #
coedge $-1 $229 $230 $82 $142 forward $231 $-1 #
edge $-1 $145 6.246677002013735 $232 11.42724795248906 $141 $233 forward 7 unknown #
coedge $-1 $136 $83 $230 $234 forward $78 $-1 #
coedge $-1 $83 $136 $137 $222 forward $78 $-1 #
vertex $-1 $142 $235 #
vertex $-1 $222 $236 #
straight-curve $-1 68.111209448530531 0 -6.246677002013735 0 1 0 I I #
face $-1 $-1 $237 $18 $-1 $238 reversed single #
loop $-1 $-1 $91 $85 #
plane-surface $-1 0 0 11.42724795248906 0 0 1 1 0 0 forward_v I I I I #
coedge $-1 $239 $240 $241 $242 reversed $86 $-1 #
coedge $-1 $243 $88 $90 $158 forward $53 $-1 #
coedge $-1 $88 $243 $239 $244 forward $53 $-1 #
coedge $-1 $241 $91 $88 $155 forward $149 $-1 #
edge $-1 $161 5.5555524520312645 $245 33.751450038950011 $154 $246 forward 7 unknown #
coedge $-1 $247 $248 $89 $157 forward $237 $-1 #
edge $-1 $249 -51.40877485842266 $160 -43.02867903280184 $156 $250 forward 7 unknown #
edge $-1 $161 -13.316103912636162 $249 -2.7465363939559239e-014 $90 $251 forward 7 unknown #
coedge $-1 $91 $241 $247 $252 forward $149 $-1 #
vertex $-1 $157 $253 #
vertex $-1 $92 $254 #
straight-curve $-1 -25.209053697521902 -58.997859177932497 11.427247952489061 0 1 0 I I #
coedge $-1 $163 $163 $-1 $255 reversed $95 $-1 #
edge $-1 $256 0 $256 6.2831853071796004 $96 $257 forward 7 unknown #
vertex $-1 $99 $258 #
ellipse-curve $-1 -39.307002490981276 -27.09389321439442 7.2372000396786564 0 -0.62932039886446345 0.77714595512881146 2 0 0 1 I I #
face $-1 $-1 $115 $15 $-1 $259 reversed single #
loop $-1 $-1 $183 $100 #
plane-surface $-1 0 32.26817136128448 0 0 -1 0 0 0 -1 forward_v I I I I #
coedge $-1 $260 $181 $184 $261 forward $101 $-1 #
coedge $-1 $187 $103 $104 $175 reversed $62 $-1 #
coedge $-1 $181 $260 $103 $173 reversed $101 $-1 #
edge $-1 $188 -11.42724795248906 $262 11.42724795248906 $172 $263 forward 7 unknown #
coedge $-1 $105 $104 $260 $264 forward $41 $-1 #
edge $-1 $179 -68.111209448530531 $262 68.111209448530531 $171 $265 forward 7 unknown #
coedge $-1 $184 $183 $105 $177 reversed $168 $-1 #
edge $-1 $266 -68.111209448530531 $178 68.111209448530531 $176 $267 forward 7 unknown #
vertex $-1 $107 $268 #
vertex $-1 $190 $269 #
straight-curve $-1 68.111209448530531 0 -11.42724795248906 0 -1 0 I I #
coedge $-1 $170 $172 $108 $182 reversed $101 $-1 #
edge $-1 $185 -32.26817136128448 $188 32.26817136128448 $181 $270 forward 7 unknown #
coedge $-1 $176 $109 $114 $191 forward $168 $-1 #
coedge $-1 $109 $176 $170 $261 reversed $168 $-1 #
vertex $-1 $110 $271 #
straight-curve $-1 0 32.26817136128448 11.42724795248906 -1 0 0 I I #
coedge $-1 $111 $171 $113 $190 reversed $62 $-1 #
vertex $-1 $182 $272 #
straight-curve $-1 0 -32.26817136128448 11.42724795248906 1 0 0 I I #
edge $-1 $116 -11.42724795248906 $179 11.42724795248906 $113 $273 forward 7 unknown #
edge $-1 $117 -11.42724795248906 $178 11.42724795248906 $114 $274 forward 7 unknown #
point $-1 68.111209448530531 -32.26817136128448 11.42724795248906 #
point $-1 68.111209448530531 32.26817136128448 11.42724795248906 #
face $-1 $-1 $208 $16 $-1 $275 reversed single #
loop $-1 $-1 $204 $119 #
plane-surface $-1 0 0 -11.42724795248906 0 0 1 1 0 0 forward_v I I I I #
coedge $-1 $276 $277 $198 $278 forward $120 $-1 #
coedge $-1 $123 $122 $197 $278 reversed $45 $-1 #
coedge $-1 $204 $279 $122 $200 forward $195 $-1 #
edge $-1 $280 -82.817467612620419 $202 -68.111209448530531 $122 $281 forward 7 unknown #
edge $-1 $130 -7.3531290820449442 $282 7.3531290820449442 $123 $283 forward 7 unknown #
vertex $-1 $124 $284 #
straight-curve $-1 -68.111209448530531 32.26817136128448 0 0 0 -1 I I #
coedge $-1 $285 $199 $125 $205 forward $195 $-1 #
edge $-1 $202 -32.26817136128448 $209 32.26817136128448 $204 $286 forward 7 unknown #
coedge $-1 $287 $126 $129 $212 reversed $208 $-1 #
coedge $-1 $126 $287 $285 $288 reversed $208 $-1 #
loop $-1 $-1 $126 $194 #
vertex $-1 $288 $289 #
straight-curve $-1 -68.111209448530531 -32.26817136128448 0 0 0 1 I I #
coedge $-1 $129 $128 $277 $290 forward $70 $-1 #
edge $-1 $291 -7.3531290820449442 $131 7.3531290820449442 $206 $292 forward 7 unknown #
point $-1 -68.111209448530531 32.26817136128448 -6.246677002013735 #
point $-1 -68.111209448530531 -32.26817136128448 -6.246677002013735 #
face $-1 $-1 $231 $17 $-1 $293 reversed single #
loop $-1 $-1 $227 $133 #
plane-surface $-1 0 0 -11.42724795248906 0 0 1 1 0 0 forward_v I I I I #
coedge $-1 $294 $219 $295 $296 forward $134 $-1 #
coedge $-1 $218 $297 $136 $220 reversed $134 $-1 #
edge $-1 $298 -32.26817136128448 $299 32.26817136128448 $219 $300 forward 7 unknown #
coedge $-1 $138 $137 $297 $301 forward $49 $-1 #
edge $-1 $299 -7.3531290820449442 $146 7.3531290820449442 $137 $302 forward 7 unknown #
coedge $-1 $303 $227 $138 $224 forward $216 $-1 #
edge $-1 $225 -7.3531290820449442 $304 7.3531290820449442 $138 $305 forward 7 unknown #
vertex $-1 $224 $306 #
straight-curve $-1 68.111209448530531 32.26817136128448 0 0 0 1 I I #
coedge $-1 $223 $307 $140 $228 forward $216 $-1 #
edge $-1 $232 -32.26817136128448 $225 32.26817136128448 $227 $308 forward 7 unknown #
coedge $-1 $295 $141 $307 $309 reversed $231 $-1 #
coedge $-1 $141 $295 $143 $234 reversed $231 $-1 #
loop $-1 $-1 $141 $215 #
vertex $-1 $142 $310 #
straight-curve $-1 68.111209448530531 -32.26817136128448 0 0 0 -1 I I #
edge $-1 $145 -7.3531290820449442 $298 7.3531290820449442 $230 $311 forward 7 unknown #
point $-1 68.111209448530531 -32.26817136128448 -6.246677002013735 #
point $-1 68.111209448530531 32.26817136128448 -6.246677002013735 #
loop $-1 $-1 $156 $148 #
plane-surface $-1 0 -32.26817136128448 0 0 1 0 0 0 1 forward_v I I I I #
coedge $-1 $240 $151 $153 $244 reversed $86 $-1 #
coedge $-1 $151 $239 $312 $313 reversed $86 $-1 #
coedge $-1 $159 $154 $151 $242 forward $149 $-1 #
edge $-1 $245 -37.07824411042813 $314 -26.729687816648017 $241 $315 forward 7 unknown #
coedge $-1 $153 $152 $248 $316 reversed $53 $-1 #
edge $-1 $317 2.7465363939559239e-014 $245 13.316103912636162 $239 $318 forward 7 unknown #
vertex $-1 $155 $319 #
straight-curve $-1 -19.653501245490638 -21.919615067504363 11.42724795248906 -1 0 0 I I #
coedge $-1 $312 $156 $159 $252 reversed $237 $-1 #
coedge $-1 $156 $312 $243 $316 forward $237 $-1 #
vertex $-1 $157 $320 #
straight-curve $-1 -25.209053697521902 -32.26817136128448 54.455926985290901 0 0 1 I I #
straight-curve $-1 -25.209053697521902 -32.268171361284502 3.0471521268682267 0 -0.77714595512881146 -0.62932039886446345 I I #
edge $-1 $314 -53.404951284440649 $160 -25.209053697521902 $247 $321 forward 7 unknown #
point $-1 -25.209053697521902 -32.26817136128448 11.42724795248906 #
point $-1 -25.209053697521902 -21.919615067504367 11.42724795248906 #
edge $-1 $322 1 $322 0 $163 $-1 forward 7 unknown #
vertex $-1 $164 $323 #
ellipse-curve $-1 -39.307002490981276 -23.245910207280819 2.4853368634990014 0 -0.62932039886446345 0.77714595512881146 2 0 0 1 I I #
point $-1 -37.307002490981276 -27.093893214394399 7.2372000396786298 #
plane-surface $-1 68.111209448530531 0 0 -1 0 0 0 0 1 forward_v I I I I #
coedge $-1 $172 $170 $174 $264 reversed $101 $-1 #
edge $-1 $185 -11.42724795248906 $266 11.42724795248906 $184 $324 forward 7 unknown #
vertex $-1 $264 $325 #
straight-curve $-1 -68.111209448530531 -32.26817136128448 0 0 0 -1 I I #
edge $-1 $262 -32.26817136128448 $266 32.26817136128448 $260 $326 forward 7 unknown #
straight-curve $-1 0 -32.26817136128448 -11.42724795248906 -1 0 0 I I #
vertex $-1 $177 $327 #
straight-curve $-1 0 32.26817136128448 -11.42724795248906 1 0 0 I I #
point $-1 68.111209448530531 32.26817136128448 -11.42724795248906 #
point $-1 68.111209448530531 -32.26817136128448 -11.42724795248906 #
straight-curve $-1 -68.111209448530531 0 11.42724795248906 0 -1 0 I I #
point $-1 -68.111209448530531 32.26817136128448 11.42724795248906 #
point $-1 -68.111209448530531 -32.26817136128448 11.42724795248906 #
straight-curve $-1 68.111209448530531 -32.26817136128448 0 0 0 -1 I I #
straight-curve $-1 68.111209448530531 32.26817136128448 0 0 0 -1 I I #
plane-surface $-1 0 -32.26817136128448 0 0 1 0 0 0 1 forward_v I I I I #
coedge $-1 $328 $197 $279 $329 reversed $120 $-1 #
coedge $-1 $197 $328 $211 $290 reversed $120 $-1 #
edge $-1 $282 -2.5902854752376623 $280 2.5902854752376623 $198 $330 forward 7 unknown #
coedge $-1 $199 $285 $276 $329 forward $195 $-1 #
vertex $-1 $200 $331 #
straight-curve $-1 0 32.26817136128448 -11.42724795248906 1 0 0 I I #
vertex $-1 $201 $332 #
straight-curve $-1 -75.464338530575475 32.26817136128448 -6.246677002013735 -1 0 0 I I #
point $-1 -68.111209448530531 32.26817136128448 -11.42724795248906 #
coedge $-1 $279 $204 $207 $288 forward $195 $-1 #
straight-curve $-1 -68.111209448530531 0 -11.42724795248906 0 -1 0 I I #
coedge $-1 $207 $206 $328 $333 forward $208 $-1 #
edge $-1 $209 -7.3531290820449442 $334 7.3531290820449442 $207 $335 forward 7 unknown #
point $-1 -68.111209448530531 -32.26817136128448 -11.42724795248906 #
edge $-1 $282 -32.26817136128448 $291 32.26817136128448 $277 $336 forward 7 unknown #
vertex $-1 $290 $337 #
straight-curve $-1 -75.464338530575475 -32.26817136128448 -6.246677002013735 1 0 0 I I #
plane-surface $-1 0 -32.26817136128448 0 0 1 0 0 0 1 forward_v I I I I #
coedge $-1 $297 $218 $303 $338 reversed $134 $-1 #
coedge $-1 $230 $229 $218 $296 reversed $231 $-1 #
edge $-1 $298 -2.5902854752376623 $339 2.5902854752376623 $218 $340 forward 7 unknown #
coedge $-1 $219 $294 $221 $301 reversed $134 $-1 #
vertex $-1 $220 $341 #
vertex $-1 $220 $342 #
straight-curve $-1 82.817467612620419 0 -6.246677002013735 0 1 0 I I #
edge $-1 $299 -2.5902854752376623 $304 2.5902854752376623 $297 $343 forward 7 unknown #
straight-curve $-1 75.464338530575475 32.26817136128448 -6.246677002013735 -1 0 0 I I #
coedge $-1 $307 $223 $294 $338 forward $216 $-1 #
vertex $-1 $338 $344 #
straight-curve $-1 75.464338530575475 32.26817136128448 -11.42724795248906 1 0 0 I I #
point $-1 68.111209448530531 32.26817136128448 -11.42724795248906 #
coedge $-1 $227 $303 $229 $309 forward $216 $-1 #
straight-curve $-1 68.111209448530531 0 -11.42724795248906 0 1 0 I I #
edge $-1 $339 -7.3531290820449442 $232 7.3531290820449442 $229 $345 forward 7 unknown #
point $-1 68.111209448530531 -32.26817136128448 -11.42724795248906 #
straight-curve $-1 75.464338530575475 -32.26817136128448 -6.246677002013735 1 0 0 I I #
coedge $-1 $248 $247 $240 $313 forward $237 $-1 #
edge $-1 $314 43.02867903280184 $317 51.40877485842266 $312 $346 forward 7 unknown #
vertex $-1 $252 $347 #
straight-curve $-1 -53.404951284440649 -58.997859177932497 11.427247952489061 0 -1 0 I I #
edge $-1 $317 -33.751450038950011 $249 -5.5555524520312645 $248 $348 forward 7 unknown #
vertex $-1 $316 $349 #
straight-curve $-1 -53.404951284440649 -32.268171361284502 3.0471521268682267 0 0.77714595512881146 0.62932039886446345 I I #
point $-1 -53.404951284440649 -21.919615067504367 11.42724795248906 #
point $-1 -25.209053697521902 -32.26817136128448 3.047152126868244 #
straight-curve $-1 0 -32.26817136128448 11.42724795248906 1 0 0 I I #
vertex $-1 $255 $350 #
point $-1 -37.307002490981276 -23.245910207280819 2.4853368634990014 #
straight-curve $-1 -68.111209448530531 32.26817136128448 0 0 0 -1 I I #
point $-1 -68.111209448530531 -32.26817136128448 -11.42724795248906 #
straight-curve $-1 -68.111209448530531 0 -11.42724795248906 0 1 0 I I #
point $-1 -68.111209448530531 32.26817136128448 -11.42724795248906 #
coedge $-1 $277 $276 $287 $333 reversed $120 $-1 #
edge $-1 $334 -32.26817136128448 $280 32.26817136128448 $276 $351 forward 7 unknown #
straight-curve $-1 -82.817467612620419 32.26817136128448 -8.8369624772513973 0 0 -1 I I #
point $-1 -82.817467612620419 32.26817136128448 -11.42724795248906 #
point $-1 -82.817467612620419 32.26817136128448 -6.246677002013735 #
edge $-1 $291 -2.5902854752376623 $334 2.5902854752376623 $328 $352 forward 7 unknown #
vertex $-1 $329 $353 #
straight-curve $-1 -75.464338530575475 -32.26817136128448 -11.42724795248906 -1 0 0 I I #
straight-curve $-1 -82.817467612620419 0 -6.246677002013735 0 -1 0 I I #
point $-1 -82.817467612620419 -32.26817136128448 -6.246677002013735 #
edge $-1 $304 -32.26817136128448 $339 32.26817136128448 $294 $354 forward 7 unknown #
vertex $-1 $296 $355 #
straight-curve $-1 82.817467612620419 -32.26817136128448 -8.8369624772513973 0 0 -1 I I #
point $-1 82.817467612620419 -32.26817136128448 -6.246677002013735 #
point $-1 82.817467612620419 32.26817136128448 -6.246677002013735 #
straight-curve $-1 82.817467612620419 32.26817136128448 -8.8369624772513973 0 0 -1 I I #
point $-1 82.817467612620419 32.26817136128448 -11.42724795248906 #
straight-curve $-1 75.464338530575475 -32.26817136128448 -11.42724795248906 -1 0 0 I I #
straight-curve $-1 -53.404951284440649 -32.26817136128448 54.455926985290901 0 0 -1 I I #
point $-1 -53.404951284440649 -32.26817136128448 11.42724795248906 #
straight-curve $-1 -19.653501245490638 -32.26817136128448 3.0471521268682387 1 0 0 I I #
point $-1 -53.404951284440649 -32.26817136128448 3.047152126868244 #
point $-1 -39.307002490981276 -21.987269409551889 0.93104495324137837 #
straight-curve $-1 -82.817467612620419 0 -11.42724795248906 0 1 0 I I #
straight-curve $-1 -82.817467612620419 -32.26817136128448 -8.8369624772513973 0 0 -1 I I #
point $-1 -82.817467612620419 -32.26817136128448 -11.42724795248906 #
straight-curve $-1 82.817467612620419 0 -11.42724795248906 0 -1 0 I I #
point $-1 82.817467612620419 -32.26817136128448 -11.42724795248906 #
End-of-ACIS-data 