500 0 5 0           
7 Unknown 11 ACIS 5.0 NT 24 Fri Mar 26 00:14:39 1999 
-1 9.9999999999999995e-007 1e-010 
body $-1 $5 $-1 $6 #
body $-1 $7 $-1 $8 #
body $-1 $9 $-1 $10 #
body $-1 $11 $-1 $12 #
body $-1 $13 $-1 $14 #
lump $-1 $-1 $15 $0 #
transform $-1 1 0 0 0 1 0 0 0 1 72.403332621234767 29.129044860559457 9.5098992980840737 1 rotate no_reflect no_shear #
lump $-1 $-1 $16 $1 #
transform $-1 1 0 0 0 1 0 0 0 1 72.403332621234767 29.129044860559457 9.5098992980840737 1 rotate no_reflect no_shear #
lump $-1 $-1 $17 $2 #
transform $-1 1 0 0 0 1 0 0 0 1 72.403332621234767 29.129044860559457 9.5098992980840737 1 rotate no_reflect no_shear #
lump $-1 $-1 $18 $3 #
transform $-1 1 0 0 0 1 0 0 0 1 72.403332621234767 29.129044860559457 9.5098992980840737 1 rotate no_reflect no_shear #
lump $-1 $-1 $19 $4 #
transform $-1 1 0 0 0 1 0 0 0 1 72.403332621234767 29.129044860559457 9.5098992980840737 1 rotate no_reflect no_shear #
shell $-1 $-1 $-1 $20 $-1 $5 #
shell $-1 $-1 $-1 $21 $-1 $7 #
shell $-1 $-1 $-1 $22 $-1 $9 #
shell $-1 $-1 $-1 $23 $-1 $11 #
shell $-1 $-1 $-1 $24 $-1 $13 #
face $-1 $25 $26 $15 $-1 $27 forward single #
face $-1 $28 $29 $16 $-1 $30 forward single #
face $-1 $31 $32 $17 $-1 $33 reversed single #
face $-1 $34 $35 $18 $-1 $36 forward single #
face $-1 $37 $38 $19 $-1 $39 forward single #
face $-1 $40 $41 $15 $-1 $42 reversed single #
loop $-1 $-1 $43 $20 #
plane-surface $-1 0 0 9.5098992980840737 0 0 1 1 0 0 forward_v I I I I #
face $-1 $44 $45 $16 $-1 $46 reversed single #
loop $-1 $-1 $47 $21 #
plane-surface $-1 0 -24.727119785302342 5.6390748284228112 0 0 1 1 0 0 forward_v I I I I #
face $-1 $48 $49 $17 $-1 $50 reversed single #
loop $-1 $-1 $51 $22 #
plane-surface $-1 93.809463187571708 17.562250212383013 206.1993714165983 0 1 0 0.77714596973225614 0 0.62932038083071107 forward_v I I I I #
face $-1 $52 $53 $18 $-1 $54 forward single #
loop $-1 $55 $56 $23 #
cone-surface $-1 68.291241009657725 20.867048683290566 4.9792101953605679 -0.77714596973225614 0 -0.62932038083071107 0.62932038083071107 0 -0.77714596973225614 1 I I 0 1 1 forward I I I I #
face $-1 $57 $58 $19 $-1 $59 forward single #
loop $-1 $60 $61 $24 #
cone-surface $-1 68.291241009657725 25.824246389651901 4.9792101953605679 -0.77714596973225614 0 -0.62932038083071107 0.62932038083071107 0 -0.77714596973225614 1 I I 0 1 1 forward I I I I #
face $-1 $62 $63 $15 $-1 $64 reversed single #
loop $-1 $-1 $65 $25 #
plane-surface $-1 0 0 -9.5098992980840737 0 0 1 1 0 0 forward_v I I I I #
coedge $-1 $66 $67 $68 $69 forward $26 $-1 #
face $-1 $70 $71 $16 $-1 $72 reversed single #
loop $-1 $-1 $73 $28 #
plane-surface $-1 0 -24.727119785302342 1.9338506584066328 0 0 1 1 0 0 forward_v I I I I #
coedge $-1 $74 $75 $76 $77 reversed $29 $-1 #
face $-1 $78 $79 $17 $-1 $80 forward single #
loop $-1 $-1 $81 $31 #
plane-surface $-1 -18.726453095981469 23.345647536471237 115.06958569938207 0.77714596973225614 0 0.62932038083071107 0.62932038083071107 0 -0.77714596973225614 forward_v I I I I #
coedge $-1 $82 $83 $84 $85 reversed $32 $-1 #
face $-1 $-1 $86 $18 $-1 $87 forward single #
loop $-1 $88 $89 $34 #
cone-surface $-1 66.615196122544035 20.867048683290566 3.6219758433492668 -0.77714596973225614 0 -0.62932038083071107 0.31466019041535553 0 -0.38857298486612807 1 I I -0.70710678118654746 0.70710678118654746 0.5 forward I I I I #
loop $-1 $-1 $90 $23 #
coedge $-1 $56 $56 $91 $92 reversed $35 $-1 #
face $-1 $-1 $93 $19 $-1 $94 forward single #
loop $-1 $95 $96 $37 #
cone-surface $-1 66.615196122544035 25.824246389651901 3.6219758433492668 -0.77714596973225614 0 -0.62932038083071107 0.31466019041535553 0 -0.38857298486612807 1 I I -0.70710678118654746 0.70710678118654746 0.5 forward I I I I #
loop $-1 $-1 $97 $24 #
coedge $-1 $61 $61 $98 $99 reversed $38 $-1 #
face $-1 $100 $101 $15 $-1 $102 reversed single #
loop $-1 $-1 $103 $40 #
plane-surface $-1 0 -29.129044860559457 0 0 1 0 0 0 1 forward_v I I I I #
coedge $-1 $104 $105 $106 $107 forward $41 $-1 #
coedge $-1 $108 $43 $109 $110 forward $26 $-1 #
coedge $-1 $43 $108 $111 $112 forward $26 $-1 #
coedge $-1 $113 $114 $43 $69 reversed $115 $-1 #
edge $-1 $116 -29.129044860559457 $117 29.129044860559457 $68 $118 forward 7 unknown #
face $-1 $119 $120 $16 $-1 $121 reversed single #
loop $-1 $-1 $122 $44 #
plane-surface $-1 0 -20.325194710045228 3.786462743414722 0 -1 0 0 0 -1 forward_v I I I I #
coedge $-1 $123 $124 $125 $126 reversed $45 $-1 #
coedge $-1 $127 $47 $128 $129 forward $29 $-1 #
coedge $-1 $47 $127 $130 $131 reversed $29 $-1 #
coedge $-1 $132 $133 $47 $77 forward $134 $-1 #
edge $-1 $135 7.9616348173940565 $136 16.765484967908286 $76 $137 forward 7 unknown #
face $-1 $138 $139 $17 $-1 $140 reversed single #
loop $-1 $-1 $141 $48 #
plane-surface $-1 0 0 9.5098992980840737 0 0 1 1 0 0 forward_v I I I I #
coedge $-1 $142 $143 $144 $145 reversed $49 $-1 #
coedge $-1 $83 $51 $146 $147 reversed $32 $-1 #
coedge $-1 $51 $82 $142 $148 reversed $32 $-1 #
coedge $-1 $144 $149 $51 $85 forward $139 $-1 #
edge $-1 $150 93.589786410215069 $151 100.56601629247027 $84 $152 forward 7 unknown #
loop $-1 $-1 $91 $52 #
plane-surface $-1 -18.726453095981469 23.345647536471237 115.06958569938207 0.77714596973225614 0 0.62932038083071107 0.62932038083071107 0 -0.77714596973225614 forward_v I I I I #
loop $-1 $-1 $153 $34 #
coedge $-1 $89 $89 $90 $154 reversed $53 $-1 #
coedge $-1 $90 $90 $89 $154 forward $55 $-1 #
coedge $-1 $91 $91 $56 $92 forward $86 $-1 #
edge $-1 $155 0 $155 6.2831853071796004 $91 $156 forward 7 unknown #
loop $-1 $-1 $98 $57 #
plane-surface $-1 -18.726453095981469 23.345647536471237 115.06958569938207 0.77714596973225614 0 0.62932038083071107 0.62932038083071107 0 -0.77714596973225614 forward_v I I I I #
loop $-1 $-1 $157 $37 #
coedge $-1 $96 $96 $97 $158 reversed $58 $-1 #
coedge $-1 $97 $97 $96 $158 forward $60 $-1 #
coedge $-1 $98 $98 $61 $99 forward $93 $-1 #
edge $-1 $159 0 $159 6.2831853071796004 $98 $160 forward 7 unknown #
face $-1 $161 $162 $15 $-1 $163 reversed single #
loop $-1 $-1 $164 $62 #
plane-surface $-1 -72.403332621234767 0 0 1 0 0 0 0 -1 forward_v I I I I #
coedge $-1 $165 $111 $166 $167 forward $63 $-1 #
coedge $-1 $168 $65 $165 $169 forward $41 $-1 #
coedge $-1 $65 $168 $170 $171 forward $41 $-1 #
coedge $-1 $114 $113 $65 $107 reversed $115 $-1 #
edge $-1 $172 -29.129044860559457 $173 29.129044860559457 $106 $174 forward 7 unknown #
coedge $-1 $67 $66 $175 $176 forward $26 $-1 #
coedge $-1 $177 $178 $66 $110 reversed $162 $-1 #
edge $-1 $117 -72.403332621234767 $179 72.403332621234767 $109 $180 forward 7 unknown #
coedge $-1 $103 $181 $67 $112 reversed $63 $-1 #
edge $-1 $182 -72.403332621234767 $116 72.403332621234767 $111 $183 forward 7 unknown #
coedge $-1 $106 $68 $181 $184 forward $115 $-1 #
coedge $-1 $68 $106 $177 $185 reversed $115 $-1 #
loop $-1 $-1 $113 $161 #
vertex $-1 $69 $186 #
vertex $-1 $69 $187 #
straight-curve $-1 72.403332621234767 0 9.5098992980840737 0 1 0 I I #
face $-1 $188 $189 $16 $-1 $190 reversed single #
loop $-1 $-1 $191 $70 #
plane-surface $-1 -72.403332621234767 0 0 1 0 0 0 0 -1 forward_v I I I I #
coedge $-1 $192 $128 $133 $193 reversed $71 $-1 #
coedge $-1 $194 $73 $195 $196 reversed $45 $-1 #
coedge $-1 $73 $194 $192 $197 forward $45 $-1 #
coedge $-1 $133 $132 $73 $126 forward $134 $-1 #
edge $-1 $198 -16.765484967908286 $199 -7.9616348173940565 $125 $200 forward 7 unknown #
coedge $-1 $75 $74 $191 $201 reversed $29 $-1 #
coedge $-1 $122 $202 $74 $129 reversed $71 $-1 #
edge $-1 $135 -72.403332621234767 $203 72.403332621234767 $128 $204 forward 7 unknown #
coedge $-1 $205 $206 $75 $131 forward $189 $-1 #
edge $-1 $136 -72.403332621234767 $207 72.403332621234767 $130 $208 forward 7 unknown #
coedge $-1 $125 $76 $206 $209 forward $134 $-1 #
coedge $-1 $76 $125 $122 $193 forward $134 $-1 #
loop $-1 $-1 $76 $188 #
vertex $-1 $77 $210 #
vertex $-1 $209 $211 #
straight-curve $-1 72.403332621234767 -12.363559892651171 5.6390748284228112 0 -1 0 I I #
face $-1 $-1 $212 $17 $-1 $213 reversed single #
loop $-1 $-1 $84 $78 #
plane-surface $-1 72.403332621234767 0 0 -1 0 0 0 0 1 forward_v I I I I #
coedge $-1 $146 $214 $215 $216 forward $79 $-1 #
coedge $-1 $215 $81 $83 $148 forward $49 $-1 #
coedge $-1 $81 $215 $217 $218 reversed $49 $-1 #
coedge $-1 $219 $84 $81 $145 forward $139 $-1 #
edge $-1 $151 5.8894264441473947 $220 17.456221092323844 $144 $221 forward 7 unknown #
coedge $-1 $222 $141 $82 $147 forward $79 $-1 #
edge $-1 $223 19.849361608789906 $150 25.498601027448913 $146 $224 forward 7 unknown #
edge $-1 $151 -144.80666524246956 $223 -135.82993480319482 $83 $225 forward 7 unknown #
coedge $-1 $84 $219 $222 $226 reversed $139 $-1 #
vertex $-1 $226 $227 #
vertex $-1 $85 $228 #
straight-curve $-1 72.403332621234767 17.562250212383013 103.09968570829915 0 0 -1 I I #
coedge $-1 $153 $153 $-1 $229 reversed $88 $-1 #
edge $-1 $230 0 $230 6.2831853071796004 $89 $231 forward 7 unknown #
vertex $-1 $92 $232 #
ellipse-curve $-1 69.578712911905271 20.867048683290566 6.021784356956501 0.77714596973225614 0 0.62932038083071107 0.62932038083071107 0 -0.77714596973225614 1 I I #
coedge $-1 $157 $157 $-1 $233 reversed $95 $-1 #
edge $-1 $234 0 $234 6.2831853071796004 $96 $235 forward 7 unknown #
vertex $-1 $99 $236 #
ellipse-curve $-1 69.578712911905271 25.824246389651901 6.021784356956501 0.77714596973225614 0 0.62932038083071107 0.62932038083071107 0 -0.77714596973225614 1 I I #
face $-1 $-1 $115 $15 $-1 $237 reversed single #
loop $-1 $-1 $177 $100 #
plane-surface $-1 0 29.129044860559457 0 0 -1 0 0 0 -1 forward_v I I I I #
coedge $-1 $238 $175 $178 $239 forward $101 $-1 #
coedge $-1 $181 $103 $104 $169 reversed $63 $-1 #
coedge $-1 $175 $238 $103 $167 reversed $101 $-1 #
edge $-1 $182 -9.5098992980840737 $240 9.5098992980840737 $166 $241 forward 7 unknown #
coedge $-1 $105 $104 $238 $242 forward $41 $-1 #
edge $-1 $173 -72.403332621234767 $240 72.403332621234767 $165 $243 forward 7 unknown #
coedge $-1 $178 $177 $105 $171 reversed $162 $-1 #
edge $-1 $244 -72.403332621234767 $172 72.403332621234767 $170 $245 forward 7 unknown #
vertex $-1 $107 $246 #
vertex $-1 $184 $247 #
straight-curve $-1 72.403332621234767 0 -9.5098992980840737 0 -1 0 I I #
coedge $-1 $164 $166 $108 $176 reversed $101 $-1 #
edge $-1 $179 -29.129044860559457 $182 29.129044860559457 $175 $248 forward 7 unknown #
coedge $-1 $170 $109 $114 $185 forward $162 $-1 #
coedge $-1 $109 $170 $164 $239 reversed $162 $-1 #
vertex $-1 $110 $249 #
straight-curve $-1 0 29.129044860559457 9.5098992980840737 -1 0 0 I I #
coedge $-1 $111 $165 $113 $184 reversed $63 $-1 #
vertex $-1 $176 $250 #
straight-curve $-1 0 -29.129044860559457 9.5098992980840737 1 0 0 I I #
edge $-1 $116 -9.5098992980840737 $173 9.5098992980840737 $113 $251 forward 7 unknown #
edge $-1 $117 -9.5098992980840737 $172 9.5098992980840737 $114 $252 forward 7 unknown #
point $-1 72.403332621234767 -29.129044860559457 9.5098992980840737 #
point $-1 72.403332621234767 29.129044860559457 9.5098992980840737 #
face $-1 $-1 $134 $16 $-1 $253 reversed single #
loop $-1 $-1 $130 $119 #
plane-surface $-1 0 -29.129044860559457 0 0 1 0 0 0 1 forward_v I I I I #
coedge $-1 $254 $255 $127 $201 forward $120 $-1 #
coedge $-1 $202 $122 $124 $197 reversed $71 $-1 #
edge $-1 $199 0.040619286699271839 $135 3.7458434567154502 $133 $256 forward 7 unknown #
coedge $-1 $124 $123 $257 $258 reversed $45 $-1 #
coedge $-1 $206 $205 $123 $196 forward $189 $-1 #
edge $-1 $259 -72.403332621234767 $198 72.403332621234767 $195 $260 forward 7 unknown #
edge $-1 $261 -72.403332621234767 $199 72.403332621234767 $192 $262 forward 7 unknown #
vertex $-1 $196 $263 #
vertex $-1 $126 $264 #
straight-curve $-1 72.403332621234767 -12.363559892651171 1.9338506584066328 0 1 0 I I #
edge $-1 $207 -16.765484967908286 $203 -7.9616348173940565 $191 $265 forward 7 unknown #
coedge $-1 $128 $192 $254 $266 reversed $71 $-1 #
vertex $-1 $201 $267 #
straight-curve $-1 0 -20.325194710045228 5.6390748284228112 -1 0 0 I I #
coedge $-1 $195 $130 $255 $268 forward $189 $-1 #
coedge $-1 $130 $195 $132 $209 reversed $189 $-1 #
vertex $-1 $268 $269 #
straight-curve $-1 0 -29.129044860559457 5.6390748284228112 -1 0 0 I I #
edge $-1 $136 -5.6390748284228112 $198 -1.9338506584066328 $132 $270 forward 7 unknown #
point $-1 72.403332621234767 -20.325194710045228 5.6390748284228112 #
point $-1 72.403332621234767 -29.129044860559457 5.6390748284228112 #
loop $-1 $-1 $217 $138 #
plane-surface $-1 0 29.129044860559457 0 0 -1 0 0 0 -1 forward_v I I I I #
coedge $-1 $141 $222 $271 $272 forward $79 $-1 #
coedge $-1 $143 $142 $141 $216 reversed $49 $-1 #
edge $-1 $273 -17.456221092323844 $223 -5.8894264441473947 $141 $274 forward 7 unknown #
coedge $-1 $271 $275 $143 $218 forward $212 $-1 #
edge $-1 $220 -94.201263562966176 $273 -85.224533123691458 $217 $276 forward 7 unknown #
coedge $-1 $149 $144 $275 $277 reversed $139 $-1 #
vertex $-1 $218 $278 #
straight-curve $-1 72.403332621234767 11.672823768235618 2.533669415828868 0 1 0 I I #
coedge $-1 $214 $146 $149 $226 forward $79 $-1 #
vertex $-1 $147 $279 #
straight-curve $-1 46.904731593785854 17.562250212383013 9.5098992980840791 1 0 0 I I #
straight-curve $-1 -18.726453095981469 17.562250212383013 115.06958569938207 -0.62932038083071107 0 0.77714596973225614 I I #
edge $-1 $150 17.562250212383013 $280 29.129044860559457 $149 $281 forward 7 unknown #
point $-1 72.403332621234767 17.562250212383013 9.5098992980840737 #
point $-1 72.403332621234767 17.562250212383013 2.5336694158288822 #
edge $-1 $282 1 $282 0 $153 $-1 forward 7 unknown #
vertex $-1 $154 $283 #
ellipse-curve $-1 67.003769107410164 20.867048683290566 3.9366360337646222 0.77714596973225614 0 0.62932038083071107 0.62932038083071107 0 -0.77714596973225614 1 I I #
point $-1 70.20803329273599 20.867048683290566 5.2446383872242563 #
edge $-1 $284 1 $284 0 $157 $-1 forward 7 unknown #
vertex $-1 $158 $285 #
ellipse-curve $-1 67.003769107410164 25.824246389651901 3.9366360337646222 0.77714596973225614 0 0.62932038083071107 0.62932038083071107 0 -0.77714596973225614 1 I I #
point $-1 70.20803329273599 25.824246389651901 5.2446383872242563 #
plane-surface $-1 72.403332621234767 0 0 -1 0 0 0 0 1 forward_v I I I I #
coedge $-1 $166 $164 $168 $242 reversed $101 $-1 #
edge $-1 $179 -9.5098992980840737 $244 9.5098992980840737 $178 $286 forward 7 unknown #
vertex $-1 $242 $287 #
straight-curve $-1 -72.403332621234767 -29.129044860559457 0 0 0 -1 I I #
edge $-1 $240 -29.129044860559457 $244 29.129044860559457 $238 $288 forward 7 unknown #
straight-curve $-1 0 -29.129044860559457 -9.5098992980840737 -1 0 0 I I #
vertex $-1 $171 $289 #
straight-curve $-1 0 29.129044860559457 -9.5098992980840737 1 0 0 I I #
point $-1 72.403332621234767 29.129044860559457 -9.5098992980840737 #
point $-1 72.403332621234767 -29.129044860559457 -9.5098992980840737 #
straight-curve $-1 -72.403332621234767 0 9.5098992980840737 0 -1 0 I I #
point $-1 -72.403332621234767 29.129044860559457 9.5098992980840737 #
point $-1 -72.403332621234767 -29.129044860559457 9.5098992980840737 #
straight-curve $-1 72.403332621234767 -29.129044860559457 0 0 0 -1 I I #
straight-curve $-1 72.403332621234767 29.129044860559457 0 0 0 -1 I I #
plane-surface $-1 72.403332621234767 0 0 -1 0 0 0 0 1 forward_v I I I I #
coedge $-1 $257 $191 $202 $266 forward $120 $-1 #
coedge $-1 $191 $257 $205 $268 reversed $120 $-1 #
straight-curve $-1 72.403332621234767 -20.325194710045228 1.893231371707361 0 0 1 I I #
coedge $-1 $255 $254 $194 $258 forward $120 $-1 #
edge $-1 $261 7.9616348173940565 $259 16.765484967908286 $257 $290 forward 7 unknown #
vertex $-1 $196 $291 #
straight-curve $-1 0 -29.129044860559457 1.9338506584066328 1 0 0 I I #
vertex $-1 $258 $292 #
straight-curve $-1 0 -20.325194710045228 1.9338506584066328 1 0 0 I I #
point $-1 72.403332621234767 -29.129044860559457 1.9338506584066328 #
point $-1 72.403332621234767 -20.325194710045228 1.9338506584066328 #
straight-curve $-1 -72.403332621234767 -12.363559892651171 5.6390748284228112 0 1 0 I I #
edge $-1 $203 -3.7458434567154502 $261 -0.040619286699271839 $254 $293 forward 7 unknown #
point $-1 -72.403332621234767 -20.325194710045228 5.6390748284228112 #
edge $-1 $207 -5.6390748284228112 $259 -1.9338506584066328 $255 $294 forward 7 unknown #
point $-1 -72.403332621234767 -29.129044860559457 5.6390748284228112 #
straight-curve $-1 72.403332621234767 -29.129044860559457 0 0 0 -1 I I #
coedge $-1 $275 $217 $214 $272 reversed $212 $-1 #
edge $-1 $280 -72.403332621234767 $273 -66.75409320257576 $271 $295 forward 7 unknown #
vertex $-1 $218 $296 #
straight-curve $-1 66.754093202575774 11.672823768235618 9.5098992980840791 0 -1 0 I I #
coedge $-1 $217 $271 $219 $277 forward $212 $-1 #
straight-curve $-1 13.120557561054696 29.129044860559457 75.741801737474077 -0.62932038083071107 0 0.77714596973225614 I I #
edge $-1 $280 -9.5098992980840737 $220 -2.5336694158288822 $219 $297 forward 7 unknown #
point $-1 72.403332621234767 29.129044860559461 2.5336694158288822 #
point $-1 66.75409320257576 17.562250212383013 9.5098992980840933 #
vertex $-1 $226 $298 #
straight-curve $-1 72.403332621234767 0 9.5098992980840737 0 1 0 I I #
vertex $-1 $229 $299 #
point $-1 67.63308948824087 20.867048683290566 3.159490064032366 #
vertex $-1 $233 $300 #
point $-1 67.63308948824087 25.824246389651901 3.159490064032366 #
straight-curve $-1 -72.403332621234767 29.129044860559457 0 0 0 -1 I I #
point $-1 -72.403332621234767 -29.129044860559457 -9.5098992980840737 #
straight-curve $-1 -72.403332621234767 0 -9.5098992980840737 0 1 0 I I #
point $-1 -72.403332621234767 29.129044860559457 -9.5098992980840737 #
straight-curve $-1 -72.403332621234767 -12.363559892651171 1.9338506584066328 0 -1 0 I I #
point $-1 -72.403332621234767 -29.129044860559457 1.9338506584066328 #
point $-1 -72.403332621234767 -20.325194710045228 1.9338506584066328 #
straight-curve $-1 -72.403332621234767 -20.325194710045228 1.893231371707361 0 0 -1 I I #
straight-curve $-1 -72.403332621234767 -29.129044860559457 0 0 0 -1 I I #
straight-curve $-1 0 29.129044860559457 9.5098992980840737 -1 0 0 I I #
point $-1 66.75409320257576 29.129044860559461 9.5098992980840933 #
straight-curve $-1 72.403332621234767 29.129044860559457 0 0 0 -1 I I #
point $-1 72.403332621234767 29.129044860559457 9.5098992980840737 #
point $-1 66.226623137677905 20.867048683290566 3.3073156529339114 #
point $-1 66.226623137677905 25.824246389651901 3.3073156529339114 #
End-of-ACIS-data 