500 0 6 0           
7 Unknown 11 ACIS 5.0 NT 24 Thu Mar 25 17:00:05 1999 
-1 9.9999999999999995e-007 1e-010 
body $-1 $6 $-1 $7 #
body $-1 $8 $-1 $9 #
body $-1 $10 $-1 $11 #
body $-1 $12 $-1 $13 #
body $-1 $14 $-1 $15 #
body $-1 $16 $-1 $17 #
lump $-1 $-1 $18 $0 #
transform $-1 1 0 0 0 1 0 0 0 1 47.096163823358864 23.884267486137993 10.79059818062505 1 rotate no_reflect no_shear #
lump $-1 $-1 $19 $1 #
transform $-1 1 0 0 0 1 0 0 0 1 47.096163823358864 23.884267486137993 10.79059818062505 1 rotate no_reflect no_shear #
lump $-1 $-1 $20 $2 #
transform $-1 1 0 0 0 1 0 0 0 1 47.096163823358864 23.884267486137993 10.79059818062505 1 rotate no_reflect no_shear #
lump $-1 $-1 $21 $3 #
transform $-1 1 0 0 0 1 0 0 0 1 47.096163823358864 23.884267486137993 10.79059818062505 1 rotate no_reflect no_shear #
lump $-1 $-1 $22 $4 #
transform $-1 1 0 0 0 1 0 0 0 1 47.096163823358864 23.884267486137993 10.79059818062505 1 rotate no_reflect no_shear #
lump $-1 $-1 $23 $5 #
transform $-1 1 0 0 0 1 0 0 0 1 47.096163823358864 23.884267486137993 10.79059818062505 1 rotate no_reflect no_shear #
shell $-1 $-1 $-1 $24 $-1 $6 #
shell $-1 $-1 $-1 $25 $-1 $8 #
shell $-1 $-1 $-1 $26 $-1 $10 #
shell $-1 $-1 $-1 $27 $-1 $12 #
shell $-1 $-1 $-1 $28 $-1 $14 #
shell $-1 $-1 $-1 $29 $-1 $16 #
face $-1 $30 $31 $18 $-1 $32 forward single #
face $-1 $33 $34 $19 $-1 $35 forward single #
face $-1 $36 $37 $20 $-1 $38 reversed single #
face $-1 $39 $40 $21 $-1 $41 forward single #
face $-1 $42 $43 $22 $-1 $44 forward single #
face $-1 $45 $46 $23 $-1 $47 forward single #
face $-1 $48 $49 $18 $-1 $50 reversed single #
loop $-1 $-1 $51 $24 #
plane-surface $-1 0 0 10.79059818062505 0 0 1 1 0 0 forward_v I I I I #
face $-1 $52 $53 $19 $-1 $54 reversed single #
loop $-1 $-1 $55 $25 #
plane-surface $-1 -47.096163823358864 0 0 1 0 0 0 0 -1 forward_v I I I I #
face $-1 $56 $57 $20 $-1 $58 reversed single #
loop $-1 $-1 $59 $26 #
plane-surface $-1 -38.592479582531496 42.420978029688193 105.78487116244099 1 0 0 0 -0.6018150307709319 -0.79863550430605224 forward_v I I I I #
face $-1 $60 $61 $21 $-1 $62 forward single #
loop $-1 $63 $64 $27 #
cone-surface $-1 -34.328157451843637 17.309424161472695 5.4821678562199763 0 -0.6018150307709319 -0.79863550430605224 1 0 0 1 I I 0 1 1 forward I I I I #
face $-1 $65 $66 $22 $-1 $67 forward single #
loop $-1 $68 $69 $28 #
cone-surface $-1 -27.931674255811842 17.309424161472695 5.4821678562199763 0 -0.6018150307709319 -0.79863550430605224 1 0 0 1 I I 0 1 1 forward I I I I #
face $-1 $70 $71 $23 $-1 $72 forward single #
loop $-1 $73 $74 $29 #
cone-surface $-1 -21.53519105978005 17.309424161472695 5.4821678562199763 0 -0.6018150307709319 -0.79863550430605224 1 0 0 1 I I 0 1 1 forward I I I I #
face $-1 $75 $76 $18 $-1 $77 reversed single #
loop $-1 $-1 $78 $30 #
plane-surface $-1 0 0 -10.79059818062505 0 0 1 1 0 0 forward_v I I I I #
coedge $-1 $79 $80 $81 $82 forward $31 $-1 #
face $-1 $83 $84 $19 $-1 $85 reversed single #
loop $-1 $-1 $86 $33 #
plane-surface $-1 0 0 -10.79059818062505 0 0 1 1 0 0 forward_v I I I I #
coedge $-1 $87 $88 $89 $90 forward $34 $-1 #
face $-1 $91 $92 $20 $-1 $93 reversed single #
loop $-1 $-1 $94 $36 #
plane-surface $-1 -27.931674255811842 -14.26538053140694 30.559534070543677 0 0.6018150307709319 0.79863550430605224 1 0 0 forward_v I I I I #
coedge $-1 $95 $96 $97 $98 reversed $37 $-1 #
face $-1 $-1 $99 $21 $-1 $100 forward single #
loop $-1 $101 $102 $39 #
cone-surface $-1 -34.328157451843637 16.391365589720614 4.2638630068138603 0 -0.6018150307709319 -0.79863550430605224 0.5 0 0 1 I I -0.70710678118654746 0.70710678118654746 0.5 forward I I I I #
loop $-1 $-1 $103 $27 #
coedge $-1 $64 $64 $104 $105 reversed $40 $-1 #
face $-1 $-1 $106 $22 $-1 $107 forward single #
loop $-1 $108 $109 $42 #
cone-surface $-1 -27.931674255811842 16.391365589720614 4.2638630068138603 0 -0.6018150307709319 -0.79863550430605224 0.5 0 0 1 I I -0.70710678118654746 0.70710678118654746 0.5 forward I I I I #
loop $-1 $-1 $110 $28 #
coedge $-1 $69 $69 $111 $112 reversed $43 $-1 #
face $-1 $-1 $113 $23 $-1 $114 forward single #
loop $-1 $115 $116 $45 #
cone-surface $-1 -21.53519105978005 16.391365589720614 4.2638630068138603 0 -0.6018150307709319 -0.79863550430605224 0.5 0 0 1 I I -0.70710678118654746 0.70710678118654746 0.5 forward I I I I #
loop $-1 $-1 $117 $29 #
coedge $-1 $74 $74 $118 $119 reversed $46 $-1 #
face $-1 $120 $121 $18 $-1 $122 reversed single #
loop $-1 $-1 $123 $48 #
plane-surface $-1 0 -23.884267486137993 0 0 1 0 0 0 1 forward_v I I I I #
coedge $-1 $124 $125 $126 $127 forward $49 $-1 #
coedge $-1 $128 $51 $129 $130 forward $31 $-1 #
coedge $-1 $51 $128 $131 $132 forward $31 $-1 #
coedge $-1 $133 $134 $51 $82 reversed $135 $-1 #
edge $-1 $136 -23.884267486137993 $137 23.884267486137993 $81 $138 forward 7 unknown #
face $-1 $139 $140 $19 $-1 $141 reversed single #
loop $-1 $-1 $142 $52 #
plane-surface $-1 -51.348005943772549 -5.303071124887893 0 0 1 0 0 0 1 forward_v I I I I #
coedge $-1 $143 $144 $88 $145 forward $53 $-1 #
coedge $-1 $146 $55 $147 $148 reversed $34 $-1 #
coedge $-1 $55 $146 $86 $145 reversed $34 $-1 #
coedge $-1 $149 $150 $55 $90 reversed $151 $-1 #
edge $-1 $152 -10.79059818062505 $153 10.79059818062505 $89 $154 forward 7 unknown #
face $-1 $155 $156 $20 $-1 $157 forward single #
loop $-1 $-1 $158 $56 #
plane-surface $-1 -17.270868929092188 42.420978029688193 105.78487116244099 -1 0 0 0 0.6018150307709319 0.79863550430605224 forward_v I I I I #
coedge $-1 $159 $160 $161 $162 reversed $57 $-1 #
coedge $-1 $96 $59 $163 $164 reversed $37 $-1 #
coedge $-1 $59 $95 $159 $165 reversed $37 $-1 #
coedge $-1 $161 $166 $59 $98 forward $156 $-1 #
edge $-1 $167 -2.6737784712938968 $168 9.2416060653035004 $97 $169 forward 7 unknown #
loop $-1 $-1 $104 $60 #
plane-surface $-1 -27.931674255811842 -14.26538053140694 30.559534070543677 0 0.6018150307709319 0.79863550430605224 1 0 0 forward_v I I I I #
loop $-1 $-1 $170 $39 #
coedge $-1 $102 $102 $103 $171 reversed $61 $-1 #
coedge $-1 $103 $103 $102 $171 forward $63 $-1 #
coedge $-1 $104 $104 $64 $105 forward $99 $-1 #
edge $-1 $172 1.5632212428067335e-015 $172 6.2831853071796022 $104 $173 forward 7 unknown #
loop $-1 $-1 $111 $65 #
plane-surface $-1 -27.931674255811842 -14.26538053140694 30.559534070543677 0 0.6018150307709319 0.79863550430605224 1 0 0 forward_v I I I I #
loop $-1 $-1 $174 $42 #
coedge $-1 $109 $109 $110 $175 reversed $66 $-1 #
coedge $-1 $110 $110 $109 $175 forward $68 $-1 #
coedge $-1 $111 $111 $69 $112 forward $106 $-1 #
edge $-1 $176 1.5632212428067335e-015 $176 6.2831853071796022 $111 $177 forward 7 unknown #
loop $-1 $-1 $118 $70 #
plane-surface $-1 -27.931674255811842 -14.26538053140694 30.559534070543677 0 0.6018150307709319 0.79863550430605224 1 0 0 forward_v I I I I #
loop $-1 $-1 $178 $45 #
coedge $-1 $116 $116 $117 $179 reversed $71 $-1 #
coedge $-1 $117 $117 $116 $179 forward $73 $-1 #
coedge $-1 $118 $118 $74 $119 forward $113 $-1 #
edge $-1 $180 1.5632212428067335e-015 $180 6.2831853071796022 $118 $181 forward 7 unknown #
face $-1 $182 $183 $18 $-1 $184 reversed single #
loop $-1 $-1 $185 $75 #
plane-surface $-1 -47.096163823358864 0 0 1 0 0 0 0 -1 forward_v I I I I #
coedge $-1 $186 $131 $187 $188 forward $76 $-1 #
coedge $-1 $189 $78 $186 $190 forward $49 $-1 #
coedge $-1 $78 $189 $191 $192 forward $49 $-1 #
coedge $-1 $134 $133 $78 $127 reversed $135 $-1 #
edge $-1 $193 -23.884267486137993 $194 23.884267486137993 $126 $195 forward 7 unknown #
coedge $-1 $80 $79 $196 $197 forward $31 $-1 #
coedge $-1 $198 $199 $79 $130 reversed $183 $-1 #
edge $-1 $137 -47.096163823358864 $200 47.096163823358864 $129 $201 forward 7 unknown #
coedge $-1 $123 $202 $80 $132 reversed $76 $-1 #
edge $-1 $203 -47.096163823358864 $136 47.096163823358864 $131 $204 forward 7 unknown #
coedge $-1 $126 $81 $202 $205 forward $135 $-1 #
coedge $-1 $81 $126 $198 $206 reversed $135 $-1 #
loop $-1 $-1 $133 $182 #
vertex $-1 $82 $207 #
vertex $-1 $82 $208 #
straight-curve $-1 47.096163823358864 0 10.79059818062505 0 1 0 I I #
face $-1 $209 $151 $19 $-1 $210 reversed single #
loop $-1 $-1 $211 $83 #
plane-surface $-1 -55.599848064186233 -3.803071124887893 0 1 0 0 0 0 -1 forward_v I I I I #
coedge $-1 $212 $213 $214 $215 forward $84 $-1 #
coedge $-1 $216 $86 $212 $217 forward $53 $-1 #
coedge $-1 $86 $216 $149 $218 forward $53 $-1 #
edge $-1 $152 2.303071124887893 $219 5.303071124887893 $86 $220 forward 7 unknown #
coedge $-1 $88 $87 $221 $222 forward $34 $-1 #
coedge $-1 $223 $224 $87 $148 forward $225 $-1 #
edge $-1 $226 -5.303071124887893 $153 -2.303071124887893 $147 $227 forward 7 unknown #
coedge $-1 $228 $89 $144 $218 reversed $151 $-1 #
coedge $-1 $89 $228 $223 $229 reversed $151 $-1 #
loop $-1 $-1 $89 $139 #
vertex $-1 $145 $230 #
vertex $-1 $229 $231 #
straight-curve $-1 -47.096163823358864 -2.303071124887893 0 0 0 1 I I #
face $-1 $-1 $232 $20 $-1 $233 reversed single #
loop $-1 $-1 $97 $91 #
plane-surface $-1 0 0 10.79059818062505 0 0 1 1 0 0 forward_v I I I I #
coedge $-1 $234 $235 $236 $237 reversed $92 $-1 #
coedge $-1 $238 $94 $96 $165 forward $57 $-1 #
coedge $-1 $94 $238 $234 $239 forward $57 $-1 #
coedge $-1 $236 $97 $94 $162 forward $156 $-1 #
edge $-1 $168 -24.626642454625575 $240 -3.3050318011862672 $161 $241 forward 7 unknown #
coedge $-1 $242 $243 $95 $164 forward $232 $-1 #
edge $-1 $244 -51.080723854899432 $167 -42.101837400595443 $163 $245 forward 7 unknown #
edge $-1 $168 32.848857006104339 $244 47.768534972276001 $96 $246 forward 7 unknown #
coedge $-1 $97 $236 $242 $247 forward $156 $-1 #
vertex $-1 $164 $248 #
vertex $-1 $98 $249 #
straight-curve $-1 -38.592479582531496 21.210489014844097 10.790598180625047 0 -1 0 I I #
coedge $-1 $170 $170 $-1 $250 reversed $101 $-1 #
edge $-1 $251 0 $251 6.2831853071796004 $102 $252 forward 7 unknown #
vertex $-1 $105 $253 #
ellipse-curve $-1 -34.328157451843637 17.9265752178393 6.3011549534730538 0 0.6018150307709319 0.79863550430605224 1 0 0 1 I I #
coedge $-1 $174 $174 $-1 $254 reversed $108 $-1 #
edge $-1 $255 0 $255 6.2831853071796004 $109 $256 forward 7 unknown #
vertex $-1 $112 $257 #
ellipse-curve $-1 -27.931674255811842 17.9265752178393 6.3011549534730538 0 0.6018150307709319 0.79863550430605224 1 0 0 1 I I #
coedge $-1 $178 $178 $-1 $258 reversed $115 $-1 #
edge $-1 $259 0 $259 6.2831853071796004 $116 $260 forward 7 unknown #
vertex $-1 $119 $261 #
ellipse-curve $-1 -21.53519105978005 17.9265752178393 6.3011549534730538 0 0.6018150307709319 0.79863550430605224 1 0 0 1 I I #
face $-1 $-1 $135 $18 $-1 $262 reversed single #
loop $-1 $-1 $198 $120 #
plane-surface $-1 0 23.884267486137993 0 0 -1 0 0 0 -1 forward_v I I I I #
coedge $-1 $263 $196 $199 $264 forward $121 $-1 #
coedge $-1 $202 $123 $124 $190 reversed $76 $-1 #
coedge $-1 $196 $263 $123 $188 reversed $121 $-1 #
edge $-1 $203 -10.79059818062505 $265 10.79059818062505 $187 $266 forward 7 unknown #
coedge $-1 $125 $124 $263 $267 forward $49 $-1 #
edge $-1 $194 -47.096163823358864 $265 47.096163823358864 $186 $268 forward 7 unknown #
coedge $-1 $199 $198 $125 $192 reversed $183 $-1 #
edge $-1 $269 -47.096163823358864 $193 47.096163823358864 $191 $270 forward 7 unknown #
vertex $-1 $127 $271 #
vertex $-1 $205 $272 #
straight-curve $-1 47.096163823358864 0 -10.79059818062505 0 -1 0 I I #
coedge $-1 $185 $187 $128 $197 reversed $121 $-1 #
edge $-1 $200 -23.884267486137993 $203 23.884267486137993 $196 $273 forward 7 unknown #
coedge $-1 $191 $129 $134 $206 forward $183 $-1 #
coedge $-1 $129 $191 $185 $264 reversed $183 $-1 #
vertex $-1 $130 $274 #
straight-curve $-1 0 23.884267486137993 10.79059818062505 -1 0 0 I I #
coedge $-1 $131 $186 $133 $205 reversed $76 $-1 #
vertex $-1 $197 $275 #
straight-curve $-1 0 -23.884267486137993 10.79059818062505 1 0 0 I I #
edge $-1 $136 -10.79059818062505 $194 10.79059818062505 $133 $276 forward 7 unknown #
edge $-1 $137 -10.79059818062505 $193 10.79059818062505 $134 $277 forward 7 unknown #
point $-1 47.096163823358864 -23.884267486137993 10.79059818062505 #
point $-1 47.096163823358864 23.884267486137993 10.79059818062505 #
face $-1 $-1 $225 $19 $-1 $278 forward single #
plane-surface $-1 -51.348005943772549 -2.303071124887893 0 0 -1 0 0 0 -1 forward_v I I I I #
coedge $-1 $279 $280 $228 $281 forward $140 $-1 #
coedge $-1 $221 $142 $143 $217 reversed $84 $-1 #
coedge $-1 $142 $221 $224 $282 reversed $84 $-1 #
coedge $-1 $280 $279 $142 $215 reversed $140 $-1 #
edge $-1 $283 -10.79059818062505 $284 10.79059818062505 $214 $285 forward 7 unknown #
coedge $-1 $144 $143 $279 $286 forward $53 $-1 #
edge $-1 $219 -4.2518421204136843 $284 4.2518421204136843 $212 $287 forward 7 unknown #
edge $-1 $288 -4.2518421204136843 $152 4.2518421204136843 $149 $289 forward 7 unknown #
vertex $-1 $217 $290 #
straight-curve $-1 -47.096163823358864 0 -10.79059818062505 0 -1 0 I I #
coedge $-1 $213 $212 $146 $222 reversed $84 $-1 #
edge $-1 $226 -10.79059818062505 $219 10.79059818062505 $221 $291 forward 7 unknown #
coedge $-1 $292 $147 $150 $229 forward $225 $-1 #
coedge $-1 $147 $292 $213 $282 forward $225 $-1 #
loop $-1 $-1 $147 $209 #
vertex $-1 $148 $293 #
straight-curve $-1 -47.096163823358864 0 10.79059818062505 0 1 0 I I #
coedge $-1 $150 $149 $211 $281 reversed $151 $-1 #
edge $-1 $153 -4.2518421204136843 $294 4.2518421204136843 $150 $295 forward 7 unknown #
point $-1 -47.096163823358864 -2.303071124887893 -10.79059818062505 #
point $-1 -47.096163823358864 -2.303071124887893 10.79059818062505 #
loop $-1 $-1 $163 $155 #
plane-surface $-1 0 23.884267486137993 0 0 -1 0 0 0 -1 forward_v I I I I #
coedge $-1 $235 $158 $160 $239 reversed $92 $-1 #
coedge $-1 $158 $234 $296 $297 reversed $92 $-1 #
coedge $-1 $166 $161 $158 $237 forward $156 $-1 #
edge $-1 $240 -9.2416060653035004 $298 2.6737784712938968 $236 $299 forward 7 unknown #
coedge $-1 $160 $159 $243 $300 reversed $57 $-1 #
edge $-1 $301 -47.768534972276001 $240 -32.848857006104339 $234 $302 forward 7 unknown #
vertex $-1 $162 $303 #
straight-curve $-1 -13.965837127905921 11.9688829495406 10.79059818062505 1 0 0 I I #
coedge $-1 $296 $163 $166 $247 reversed $232 $-1 #
coedge $-1 $163 $296 $238 $300 forward $232 $-1 #
vertex $-1 $164 $304 #
straight-curve $-1 -38.592479582531496 23.884267486137993 52.892435581220496 0 0 1 I I #
straight-curve $-1 -38.592479582531496 -14.26538053140694 30.559534070543677 0 0.79863550430605224 -0.6018150307709319 I I #
edge $-1 $298 17.270868929092188 $167 38.592479582531496 $242 $305 forward 7 unknown #
point $-1 -38.592479582531496 23.884267486137993 10.79059818062505 #
point $-1 -38.592479582531496 11.968882949540596 10.790598180625054 #
edge $-1 $306 1 $306 0 $170 $-1 forward 7 unknown #
vertex $-1 $171 $307 #
ellipse-curve $-1 -34.328157451843637 16.692273105106079 4.6631807589668863 0 0.6018150307709319 0.79863550430605224 1 0 0 1 I I #
point $-1 -33.328157451843637 17.926575217839311 6.3011549534730653 #
edge $-1 $308 1 $308 0 $174 $-1 forward 7 unknown #
vertex $-1 $175 $309 #
ellipse-curve $-1 -27.931674255811842 16.692273105106079 4.6631807589668863 0 0.6018150307709319 0.79863550430605224 1 0 0 1 I I #
point $-1 -26.931674255811842 17.926575217839311 6.3011549534730653 #
edge $-1 $310 1 $310 0 $178 $-1 forward 7 unknown #
vertex $-1 $179 $311 #
ellipse-curve $-1 -21.53519105978005 16.692273105106079 4.6631807589668863 0 0.6018150307709319 0.79863550430605224 1 0 0 1 I I #
point $-1 -20.53519105978005 17.926575217839311 6.3011549534730653 #
plane-surface $-1 47.096163823358864 0 0 -1 0 0 0 0 1 forward_v I I I I #
coedge $-1 $187 $185 $189 $267 reversed $121 $-1 #
edge $-1 $200 -10.79059818062505 $269 10.79059818062505 $199 $312 forward 7 unknown #
vertex $-1 $267 $313 #
straight-curve $-1 -47.096163823358864 -23.884267486137993 0 0 0 -1 I I #
edge $-1 $265 -23.884267486137993 $269 23.884267486137993 $263 $314 forward 7 unknown #
straight-curve $-1 0 -23.884267486137993 -10.79059818062505 -1 0 0 I I #
vertex $-1 $192 $315 #
straight-curve $-1 0 23.884267486137993 -10.79059818062505 1 0 0 I I #
point $-1 47.096163823358864 23.884267486137993 -10.79059818062505 #
point $-1 47.096163823358864 -23.884267486137993 -10.79059818062505 #
straight-curve $-1 -47.096163823358864 0 10.79059818062505 0 -1 0 I I #
point $-1 -47.096163823358864 23.884267486137993 10.79059818062505 #
point $-1 -47.096163823358864 -23.884267486137993 10.79059818062505 #
straight-curve $-1 47.096163823358864 -23.884267486137993 0 0 0 -1 I I #
straight-curve $-1 47.096163823358864 23.884267486137993 0 0 0 -1 I I #
plane-surface $-1 0 0 10.79059818062505 0 0 1 1 0 0 forward_v I I I I #
coedge $-1 $214 $211 $216 $286 reversed $140 $-1 #
coedge $-1 $211 $214 $292 $316 reversed $140 $-1 #
edge $-1 $294 -10.79059818062505 $288 10.79059818062505 $228 $317 forward 7 unknown #
edge $-1 $283 -4.2518421204136843 $226 4.2518421204136843 $213 $318 forward 7 unknown #
vertex $-1 $316 $319 #
vertex $-1 $286 $320 #
straight-curve $-1 -55.599848064186233 -5.303071124887893 0 0 0 -1 I I #
edge $-1 $284 -1.5 $288 1.5 $279 $321 forward 7 unknown #
straight-curve $-1 -51.348005943772549 -5.303071124887893 -10.79059818062505 -1 0 0 I I #
vertex $-1 $218 $322 #
straight-curve $-1 -51.348005943772549 -2.303071124887893 -10.79059818062505 1 0 0 I I #
point $-1 -47.096163823358864 -5.303071124887893 -10.79059818062505 #
straight-curve $-1 -47.096163823358864 -5.303071124887893 0 0 0 -1 I I #
coedge $-1 $224 $223 $280 $316 forward $225 $-1 #
point $-1 -47.096163823358864 -5.303071124887893 10.79059818062505 #
vertex $-1 $229 $323 #
straight-curve $-1 -51.348005943772549 -2.303071124887893 10.79059818062505 -1 0 0 I I #
coedge $-1 $243 $242 $235 $297 forward $232 $-1 #
edge $-1 $298 42.101837400595443 $301 51.080723854899432 $296 $324 forward 7 unknown #
vertex $-1 $247 $325 #
straight-curve $-1 -17.270868929092188 21.210489014844097 10.790598180625047 0 1 0 I I #
edge $-1 $301 3.3050318011862672 $244 24.626642454625575 $243 $326 forward 7 unknown #
vertex $-1 $300 $327 #
straight-curve $-1 -17.270868929092188 -14.26538053140694 30.559534070543677 0 -0.79863550430605224 0.6018150307709319 I I #
point $-1 -17.270868929092188 11.968882949540596 10.790598180625054 #
point $-1 -38.592479582531496 23.884267486137993 1.8117117263210645 #
straight-curve $-1 0 23.884267486137993 10.79059818062505 -1 0 0 I I #
vertex $-1 $250 $328 #
point $-1 -33.328157451843637 16.692273105106079 4.6631807589668863 #
vertex $-1 $254 $329 #
point $-1 -26.931674255811842 16.692273105106079 4.6631807589668863 #
vertex $-1 $258 $330 #
point $-1 -20.53519105978005 16.692273105106079 4.6631807589668863 #
straight-curve $-1 -47.096163823358864 23.884267486137993 0 0 0 -1 I I #
point $-1 -47.096163823358864 -23.884267486137993 -10.79059818062505 #
straight-curve $-1 -47.096163823358864 0 -10.79059818062505 0 1 0 I I #
point $-1 -47.096163823358864 23.884267486137993 -10.79059818062505 #
edge $-1 $294 -1.5 $283 1.5 $280 $331 forward 7 unknown #
straight-curve $-1 -55.599848064186233 -2.303071124887893 0 0 0 -1 I I #
straight-curve $-1 -51.348005943772549 -5.303071124887893 10.79059818062505 1 0 0 I I #
point $-1 -55.599848064186233 -5.303071124887893 10.79059818062505 #
point $-1 -55.599848064186233 -5.303071124887893 -10.79059818062505 #
straight-curve $-1 -55.599848064186233 -3.803071124887893 -10.79059818062505 0 1 0 I I #
point $-1 -55.599848064186233 -2.303071124887893 -10.79059818062505 #
point $-1 -55.599848064186233 -2.303071124887893 10.79059818062505 #
straight-curve $-1 -17.270868929092188 23.884267486137993 52.892435581220496 0 0 -1 I I #
point $-1 -17.270868929092188 23.884267486137993 10.79059818062505 #
straight-curve $-1 -13.965837127905921 23.884267486137993 1.8117117263210645 -1 0 0 I I #
point $-1 -17.270868929092188 23.884267486137993 1.8117117263210645 #
point $-1 -34.328157451843637 16.09045807433515 3.8645452546608343 #
point $-1 -27.931674255811842 16.09045807433515 3.8645452546608343 #
point $-1 -21.53519105978005 16.09045807433515 3.8645452546608343 #
straight-curve $-1 -55.599848064186233 -3.803071124887893 10.79059818062505 0 -1 0 I I #
End-of-ACIS-data 