500 0 4 0           
7 Unknown 11 ACIS 5.0 NT 24 Thu Mar 25 17:17:39 1999 
-1 9.9999999999999995e-007 1e-010 
body $-1 $4 $-1 $5 #
body $-1 $6 $-1 $7 #
body $-1 $8 $-1 $9 #
body $-1 $10 $-1 $11 #
lump $-1 $-1 $12 $0 #
transform $-1 1 0 0 0 1 0 0 0 1 78.892788476210825 34.86455957303906 16.115561976783031 1 rotate no_reflect no_shear #
lump $-1 $-1 $13 $1 #
transform $-1 1 0 0 0 1 0 0 0 1 78.892788476210825 34.86455957303906 16.115561976783031 1 rotate no_reflect no_shear #
lump $-1 $-1 $14 $2 #
transform $-1 1 0 0 0 1 0 0 0 1 78.892788476210825 34.86455957303906 16.115561976783031 1 rotate no_reflect no_shear #
lump $-1 $-1 $15 $3 #
transform $-1 1 0 0 0 1 0 0 0 1 78.892788476210825 34.86455957303906 16.115561976783031 1 rotate no_reflect no_shear #
shell $-1 $-1 $-1 $16 $-1 $4 #
shell $-1 $-1 $-1 $17 $-1 $6 #
shell $-1 $-1 $-1 $18 $-1 $8 #
shell $-1 $-1 $-1 $19 $-1 $10 #
face $-1 $20 $21 $12 $-1 $22 forward single #
face $-1 $23 $24 $13 $-1 $25 forward single #
face $-1 $26 $27 $14 $-1 $28 reversed single #
face $-1 $29 $30 $15 $-1 $31 reversed single #
face $-1 $32 $33 $12 $-1 $34 reversed single #
loop $-1 $-1 $35 $16 #
plane-surface $-1 0 0 16.115561976783031 0 0 1 1 0 0 forward_v I I I I #
face $-1 $36 $37 $13 $-1 $38 forward single #
loop $-1 $-1 $39 $17 #
plane-surface $-1 -18.249710948395816 -30.253653206579976 130.64894964195216 0.78801076186113728 0 0.61566146476048833 0.61566146476048833 0 -0.78801076186113728 forward_v I I I I #
face $-1 $40 $41 $14 $-1 $42 reversed single #
loop $-1 $43 $44 $18 #
cone-surface $-1 73.573159688795769 -32.229755935062443 10.049756242558937 -0.78801076186113728 0 -0.61566146476048833 0.61566146476048833 0 -0.78801076186113728 1 I I 0 1 1 forward I I I I #
face $-1 $45 $46 $15 $-1 $47 reversed single #
loop $-1 $48 $49 $19 #
cone-surface $-1 73.573159688795769 -28.27755047809751 10.049756242558937 -0.78801076186113728 0 -0.61566146476048833 0.61566146476048833 0 -0.78801076186113728 1 I I 0 1 1 forward I I I I #
face $-1 $50 $51 $12 $-1 $52 reversed single #
loop $-1 $-1 $53 $20 #
plane-surface $-1 0 0 -16.115561976783031 0 0 1 1 0 0 forward_v I I I I #
coedge $-1 $54 $55 $56 $57 forward $21 $-1 #
face $-1 $58 $59 $13 $-1 $60 reversed single #
loop $-1 $-1 $61 $23 #
plane-surface $-1 106.08702175658107 -25.642746840120893 227.79144906655881 0 -1 0 -0.78801076186113728 0 -0.61566146476048833 forward_v I I I I #
coedge $-1 $62 $63 $64 $65 reversed $24 $-1 #
face $-1 $66 $67 $14 $-1 $68 forward single #
loop $-1 $69 $70 $26 #
cone-surface $-1 71.689131700260219 -32.229755935062443 8.5777922958584831 -0.78801076186113728 0 -0.61566146476048833 0.30783073238024417 0 -0.39400538093056864 1 I I -0.70710678118654746 0.70710678118654746 0.5 forward I I I I #
loop $-1 $-1 $71 $18 #
coedge $-1 $44 $44 $72 $73 reversed $27 $-1 #
face $-1 $74 $75 $15 $-1 $76 reversed single #
loop $-1 $77 $78 $29 #
cone-surface $-1 71.689131700260219 -28.27755047809751 8.5777922958584831 -0.78801076186113728 0 -0.61566146476048833 0.30783073238024417 0 -0.39400538093056864 1 I I -0.70710678118654746 0.70710678118654746 0.5 forward I I I I #
loop $-1 $-1 $79 $19 #
coedge $-1 $49 $49 $80 $81 reversed $30 $-1 #
face $-1 $82 $83 $12 $-1 $84 reversed single #
loop $-1 $-1 $85 $32 #
plane-surface $-1 0 -34.86455957303906 0 0 1 0 0 0 1 forward_v I I I I #
coedge $-1 $86 $87 $88 $89 forward $33 $-1 #
coedge $-1 $90 $35 $91 $92 forward $21 $-1 #
coedge $-1 $35 $90 $93 $94 forward $21 $-1 #
coedge $-1 $95 $96 $35 $57 reversed $97 $-1 #
edge $-1 $98 -34.86455957303906 $99 34.86455957303906 $56 $100 forward 7 unknown #
face $-1 $101 $102 $13 $-1 $103 reversed single #
loop $-1 $-1 $104 $36 #
plane-surface $-1 78.892788476210825 0 0 -1 0 0 0 0 1 forward_v I I I I #
coedge $-1 $105 $106 $104 $107 reversed $37 $-1 #
coedge $-1 $108 $39 $106 $109 reversed $24 $-1 #
coedge $-1 $39 $108 $110 $111 reversed $24 $-1 #
coedge $-1 $112 $104 $39 $65 forward $59 $-1 #
edge $-1 $113 10.515920236830905 $114 19.737732969749072 $64 $115 forward 7 unknown #
face $-1 $116 $117 $14 $-1 $118 forward single #
loop $-1 $119 $72 $40 #
plane-surface $-1 -18.249710948395816 -30.253653206579976 130.64894964195216 0.78801076186113728 0 0.61566146476048833 0.61566146476048833 0 -0.78801076186113728 forward_v I I I I #
loop $-1 $-1 $120 $26 #
coedge $-1 $70 $70 $71 $121 forward $41 $-1 #
coedge $-1 $71 $71 $70 $121 reversed $43 $-1 #
coedge $-1 $72 $72 $44 $73 forward $67 $-1 #
edge $-1 $122 0 $122 6.2831853071796004 $72 $123 forward 7 unknown #
face $-1 $124 $125 $15 $-1 $126 reversed single #
loop $-1 $127 $128 $45 #
cone-surface $-1 73.573159688795769 -32.229755935062443 10.049756242558937 -0.78801076186113728 0 -0.61566146476048833 0.61566146476048833 0 -0.78801076186113728 1 I I 0 1 1 forward I I I I #
loop $-1 $-1 $129 $29 #
coedge $-1 $78 $78 $79 $130 forward $46 $-1 #
coedge $-1 $79 $79 $78 $130 reversed $48 $-1 #
coedge $-1 $80 $80 $49 $81 forward $131 $-1 #
edge $-1 $132 0 $132 6.2831853071796004 $80 $133 forward 7 unknown #
face $-1 $134 $135 $12 $-1 $136 reversed single #
loop $-1 $-1 $137 $50 #
plane-surface $-1 -78.892788476210825 0 0 1 0 0 0 0 -1 forward_v I I I I #
coedge $-1 $138 $93 $139 $140 forward $51 $-1 #
coedge $-1 $141 $53 $138 $142 forward $33 $-1 #
coedge $-1 $53 $141 $143 $144 forward $33 $-1 #
coedge $-1 $96 $95 $53 $89 reversed $97 $-1 #
edge $-1 $145 -34.86455957303906 $146 34.86455957303906 $88 $147 forward 7 unknown #
coedge $-1 $55 $54 $148 $149 forward $21 $-1 #
coedge $-1 $150 $151 $54 $92 reversed $135 $-1 #
edge $-1 $99 -78.892788476210825 $152 78.892788476210825 $91 $153 forward 7 unknown #
coedge $-1 $85 $154 $55 $94 reversed $51 $-1 #
edge $-1 $155 -78.892788476210825 $98 78.892788476210825 $93 $156 forward 7 unknown #
coedge $-1 $88 $56 $154 $157 forward $97 $-1 #
coedge $-1 $56 $88 $150 $158 reversed $97 $-1 #
loop $-1 $-1 $95 $134 #
vertex $-1 $57 $159 #
vertex $-1 $57 $160 #
straight-curve $-1 78.892788476210825 0 16.115561976783031 0 1 0 I I #
face $-1 $161 $162 $13 $-1 $163 forward single #
loop $-1 $-1 $110 $58 #
plane-surface $-1 0 -34.86455957303906 0 0 1 0 0 0 1 forward_v I I I I #
coedge $-1 $64 $164 $61 $107 forward $59 $-1 #
coedge $-1 $106 $61 $165 $166 reversed $37 $-1 #
coedge $-1 $61 $105 $62 $109 forward $37 $-1 #
edge $-1 $167 97.780162556496379 $113 107.58350759630412 $104 $168 forward 7 unknown #
coedge $-1 $63 $62 $169 $170 reversed $24 $-1 #
edge $-1 $171 145.34495365857975 $113 157.78557695242162 $106 $172 forward 7 unknown #
coedge $-1 $173 $174 $63 $111 forward $102 $-1 #
edge $-1 $114 -100.69136589359313 $175 -88.250742599751277 $110 $176 forward 7 unknown #
coedge $-1 $177 $64 $174 $178 forward $59 $-1 #
vertex $-1 $65 $179 #
vertex $-1 $178 $180 #
straight-curve $-1 78.892788476210825 -15.126826603289988 6.3122169369753038 0 -1 0 I I #
face $-1 $181 $182 $14 $-1 $183 reversed single #
loop $-1 $-1 $184 $66 #
plane-surface $-1 106.08702175658107 -25.642746840120893 227.79144906655881 0 -1 0 -0.78801076186113728 0 -0.61566146476048833 forward_v I I I I #
loop $-1 $-1 $185 $40 #
coedge $-1 $120 $120 $-1 $186 forward $69 $-1 #
edge $-1 $187 0 $187 6.2831853071796004 $70 $188 forward 7 unknown #
vertex $-1 $73 $189 #
ellipse-curve $-1 75.063182296400768 -32.229755935062443 11.213889456879159 -0.78801076186113728 0 -0.61566146476048833 0.61566146476048833 0 -0.78801076186113728 1 I I #
face $-1 $190 $131 $15 $-1 $191 forward single #
loop $-1 $192 $193 $74 #
cone-surface $-1 71.689131700260219 -32.229755935062443 8.5777922958584831 -0.78801076186113728 0 -0.61566146476048833 0.30783073238024417 0 -0.39400538093056864 1 I I -0.70710678118654746 0.70710678118654746 0.5 forward I I I I #
loop $-1 $-1 $194 $45 #
coedge $-1 $128 $128 $195 $196 reversed $75 $-1 #
coedge $-1 $129 $129 $-1 $197 forward $77 $-1 #
edge $-1 $198 0 $198 6.2831853071796004 $78 $199 forward 7 unknown #
loop $-1 $200 $80 $124 #
vertex $-1 $81 $201 #
ellipse-curve $-1 75.063182296400768 -28.27755047809751 11.213889456879159 -0.78801076186113728 0 -0.61566146476048833 0.61566146476048833 0 -0.78801076186113728 1 I I #
face $-1 $-1 $97 $12 $-1 $202 reversed single #
loop $-1 $-1 $150 $82 #
plane-surface $-1 0 34.86455957303906 0 0 -1 0 0 0 -1 forward_v I I I I #
coedge $-1 $203 $148 $151 $204 forward $83 $-1 #
coedge $-1 $154 $85 $86 $142 reversed $51 $-1 #
coedge $-1 $148 $203 $85 $140 reversed $83 $-1 #
edge $-1 $155 -16.115561976783031 $205 16.115561976783031 $139 $206 forward 7 unknown #
coedge $-1 $87 $86 $203 $207 forward $33 $-1 #
edge $-1 $146 -78.892788476210825 $205 78.892788476210825 $138 $208 forward 7 unknown #
coedge $-1 $151 $150 $87 $144 reversed $135 $-1 #
edge $-1 $209 -78.892788476210825 $145 78.892788476210825 $143 $210 forward 7 unknown #
vertex $-1 $89 $211 #
vertex $-1 $157 $212 #
straight-curve $-1 78.892788476210825 0 -16.115561976783031 0 -1 0 I I #
coedge $-1 $137 $139 $90 $149 reversed $83 $-1 #
edge $-1 $152 -34.86455957303906 $155 34.86455957303906 $148 $213 forward 7 unknown #
coedge $-1 $143 $91 $96 $158 forward $135 $-1 #
coedge $-1 $91 $143 $137 $204 reversed $135 $-1 #
vertex $-1 $92 $214 #
straight-curve $-1 0 34.86455957303906 16.115561976783031 -1 0 0 I I #
coedge $-1 $93 $138 $95 $157 reversed $51 $-1 #
vertex $-1 $149 $215 #
straight-curve $-1 0 -34.86455957303906 16.115561976783031 1 0 0 I I #
edge $-1 $98 -16.115561976783031 $146 16.115561976783031 $95 $216 forward 7 unknown #
edge $-1 $99 -16.115561976783031 $145 16.115561976783031 $96 $217 forward 7 unknown #
point $-1 78.892788476210825 -34.86455957303906 16.115561976783031 #
point $-1 78.892788476210825 34.86455957303906 16.115561976783031 #
face $-1 $218 $219 $13 $-1 $220 reversed single #
loop $-1 $-1 $165 $101 #
plane-surface $-1 0 0 16.115561976783031 0 0 1 1 0 0 forward_v I I I I #
coedge $-1 $104 $221 $222 $223 reversed $59 $-1 #
coedge $-1 $222 $169 $105 $166 forward $162 $-1 #
edge $-1 $171 18.190065238300164 $167 25.849277597920292 $165 $224 forward 7 unknown #
vertex $-1 $223 $225 #
straight-curve $-1 78.892788476210825 -25.642746840120893 113.89572453327941 0 0 -1 I I #
coedge $-1 $165 $226 $108 $170 forward $162 $-1 #
edge $-1 $175 -19.737732969749072 $171 -10.515920236830905 $169 $227 forward 7 unknown #
vertex $-1 $170 $228 #
straight-curve $-1 -18.249710948395816 -25.642746840120893 130.64894964195216 0.61566146476048833 0 -0.78801076186113728 I I #
coedge $-1 $229 $110 $226 $230 reversed $102 $-1 #
coedge $-1 $110 $231 $112 $178 reversed $102 $-1 #
vertex $-1 $170 $232 #
straight-curve $-1 16.900994661426999 -34.86455957303906 85.658096887624154 -0.61566146476048833 0 0.78801076186113728 I I #
coedge $-1 $221 $112 $233 $234 reversed $59 $-1 #
edge $-1 $114 -6.3122169369753065 $235 16.115561976783031 $112 $236 forward 7 unknown #
point $-1 78.892788476210825 -25.642746840120893 6.3122169369752896 #
point $-1 78.892788476210825 -34.86455957303906 6.3122169369753065 #
face $-1 $237 $238 $14 $-1 $239 reversed single #
loop $-1 $-1 $240 $116 #
plane-surface $-1 78.892788476210825 0 0 -1 0 0 0 0 1 forward_v I I I I #
coedge $-1 $241 $242 $240 $243 reversed $117 $-1 #
coedge $-1 $244 $245 $246 $247 reversed $119 $-1 #
edge $-1 $248 1 $248 0 $120 $-1 forward 7 unknown #
vertex $-1 $121 $249 #
ellipse-curve $-1 72.083137081190785 -32.229755935062443 8.8856230282387276 0.78801076186113728 0 0.61566146476048833 0.61566146476048833 0 -0.78801076186113728 1 I I #
point $-1 75.678843761161232 -32.229755935062443 10.42587869501801 #
face $-1 $250 $251 $15 $-1 $252 forward single #
plane-surface $-1 -18.249710948395816 -30.253653206579976 130.64894964195216 0.78801076186113728 0 0.61566146476048833 0.61566146476048833 0 -0.78801076186113728 forward_v I I I I #
loop $-1 $-1 $253 $74 #
coedge $-1 $193 $193 $194 $254 forward $125 $-1 #
coedge $-1 $194 $194 $193 $254 reversed $127 $-1 #
coedge $-1 $195 $195 $128 $196 forward $200 $-1 #
edge $-1 $255 0 $255 6.2831853071796004 $195 $256 forward 7 unknown #
edge $-1 $257 1 $257 0 $129 $-1 forward 7 unknown #
vertex $-1 $130 $258 #
ellipse-curve $-1 72.083137081190785 -28.27755047809751 8.8856230282387276 0.78801076186113728 0 0.61566146476048833 0.61566146476048833 0 -0.78801076186113728 1 I I #
loop $-1 $259 $195 $124 #
point $-1 75.678843761161232 -28.27755047809751 10.42587869501801 #
plane-surface $-1 78.892788476210825 0 0 -1 0 0 0 0 1 forward_v I I I I #
coedge $-1 $139 $137 $141 $207 reversed $83 $-1 #
edge $-1 $152 -16.115561976783031 $209 16.115561976783031 $151 $260 forward 7 unknown #
vertex $-1 $207 $261 #
straight-curve $-1 -78.892788476210825 -34.86455957303906 0 0 0 -1 I I #
edge $-1 $205 -34.86455957303906 $209 34.86455957303906 $203 $262 forward 7 unknown #
straight-curve $-1 0 -34.86455957303906 -16.115561976783031 -1 0 0 I I #
vertex $-1 $144 $263 #
straight-curve $-1 0 34.86455957303906 -16.115561976783031 1 0 0 I I #
point $-1 78.892788476210825 34.86455957303906 -16.115561976783031 #
point $-1 78.892788476210825 -34.86455957303906 -16.115561976783031 #
straight-curve $-1 -78.892788476210825 0 16.115561976783031 0 -1 0 I I #
point $-1 -78.892788476210825 34.86455957303906 16.115561976783031 #
point $-1 -78.892788476210825 -34.86455957303906 16.115561976783031 #
straight-curve $-1 78.892788476210825 -34.86455957303906 0 0 0 -1 I I #
straight-curve $-1 78.892788476210825 34.86455957303906 0 0 0 -1 I I #
face $-1 $264 $265 $13 $-1 $266 reversed single #
loop $-1 $-1 $233 $161 #
plane-surface $-1 0 0 -16.115561976783031 0 0 1 1 0 0 forward_v I I I I #
coedge $-1 $164 $177 $267 $268 reversed $59 $-1 #
coedge $-1 $269 $165 $164 $223 forward $162 $-1 #
edge $-1 $167 -25.642746840120893 $270 34.86455957303906 $164 $271 forward 7 unknown #
straight-curve $-1 53.043510878290533 -25.642746840120893 16.115561976783027 1 0 0 I I #
point $-1 78.892788476210825 -25.642746840120893 16.115561976783031 #
coedge $-1 $169 $272 $173 $230 forward $162 $-1 #
straight-curve $-1 71.233576116590697 -15.126826603289988 16.115561976783027 0 1 0 I I #
point $-1 71.233576116590697 -25.642746840120893 16.115561976783027 #
coedge $-1 $231 $173 $273 $274 forward $102 $-1 #
edge $-1 $275 -78.892788476210825 $175 71.233576116590697 $173 $276 forward 7 unknown #
coedge $-1 $174 $229 $277 $278 reversed $102 $-1 #
point $-1 71.233576116590697 -34.86455957303906 16.115561976783027 #
coedge $-1 $277 $279 $177 $234 forward $219 $-1 #
edge $-1 $280 -34.86455957303906 $235 34.86455957303906 $177 $281 forward 7 unknown #
vertex $-1 $178 $282 #
straight-curve $-1 78.892788476210825 -34.86455957303906 0 0 0 -1 I I #
face $-1 $283 $284 $14 $-1 $285 forward single #
loop $-1 $-1 $286 $181 #
plane-surface $-1 0 -34.86455957303906 0 0 1 0 0 0 1 forward_v I I I I #
coedge $-1 $246 $287 $184 $243 forward $182 $-1 #
coedge $-1 $242 $184 $288 $289 reversed $117 $-1 #
coedge $-1 $184 $241 $244 $290 forward $117 $-1 #
edge $-1 $291 97.780162556496379 $292 107.58350759630412 $240 $293 forward 7 unknown #
coedge $-1 $294 $185 $242 $290 reversed $119 $-1 #
coedge $-1 $185 $294 $286 $295 reversed $119 $-1 #
coedge $-1 $296 $240 $185 $247 forward $182 $-1 #
edge $-1 $292 10.515920236830905 $297 19.737732969749072 $246 $298 forward 7 unknown #
vertex $-1 $186 $299 #
point $-1 72.698798545951277 -32.229755935062443 8.09761226637759 #
face $-1 $300 $301 $15 $-1 $302 reversed single #
loop $-1 $-1 $303 $190 #
plane-surface $-1 106.08702175658107 -25.642746840120893 227.79144906655881 0 -1 0 -0.78801076186113728 0 -0.61566146476048833 forward_v I I I I #
coedge $-1 $253 $253 $-1 $304 forward $192 $-1 #
edge $-1 $305 0 $305 6.2831853071796004 $193 $306 forward 7 unknown #
vertex $-1 $196 $307 #
ellipse-curve $-1 75.063182296400768 -32.229755935062443 11.213889456879159 -0.78801076186113728 0 -0.61566146476048833 0.61566146476048833 0 -0.78801076186113728 1 I I #
vertex $-1 $197 $308 #
point $-1 72.698798545951277 -28.27755047809751 8.09761226637759 #
loop $-1 $-1 $309 $124 #
straight-curve $-1 -78.892788476210825 34.86455957303906 0 0 0 -1 I I #
point $-1 -78.892788476210825 -34.86455957303906 -16.115561976783031 #
straight-curve $-1 -78.892788476210825 0 -16.115561976783031 0 1 0 I I #
point $-1 -78.892788476210825 34.86455957303906 -16.115561976783031 #
face $-1 $-1 $310 $13 $-1 $311 reversed single #
loop $-1 $-1 $312 $218 #
plane-surface $-1 -78.892788476210825 0 0 1 0 0 0 0 -1 forward_v I I I I #
coedge $-1 $313 $314 $221 $268 forward $310 $-1 #
edge $-1 $270 -16.115561976783031 $280 16.115561976783031 $221 $315 forward 7 unknown #
coedge $-1 $272 $222 $314 $316 forward $162 $-1 #
vertex $-1 $223 $317 #
straight-curve $-1 78.892788476210825 0 16.115561976783031 0 1 0 I I #
coedge $-1 $226 $269 $318 $319 forward $162 $-1 #
coedge $-1 $318 $320 $229 $274 reversed $265 $-1 #
edge $-1 $275 -16.115561976783031 $321 16.115561976783031 $273 $322 forward 7 unknown #
vertex $-1 $319 $323 #
straight-curve $-1 0 -34.86455957303906 16.115561976783031 1 0 0 I I #
coedge $-1 $324 $233 $231 $278 forward $219 $-1 #
edge $-1 $235 -78.892788476210825 $321 78.892788476210825 $231 $325 forward 7 unknown #
coedge $-1 $233 $324 $313 $326 forward $219 $-1 #
vertex $-1 $234 $327 #
straight-curve $-1 78.892788476210825 0 -16.115561976783031 0 -1 0 I I #
point $-1 78.892788476210825 -34.86455957303906 -16.115561976783031 #
face $-1 $328 $329 $14 $-1 $330 reversed single #
loop $-1 $-1 $288 $237 #
plane-surface $-1 0 0 16.115561976783031 0 0 1 1 0 0 forward_v I I I I #
coedge $-1 $331 $332 $245 $295 forward $238 $-1 #
coedge $-1 $240 $333 $334 $335 reversed $182 $-1 #
coedge $-1 $334 $336 $241 $289 forward $284 $-1 #
edge $-1 $337 18.190065238300164 $291 25.849277597920292 $288 $338 forward 7 unknown #
edge $-1 $337 145.34495365857975 $292 157.78557695242162 $242 $339 forward 7 unknown #
vertex $-1 $335 $340 #
vertex $-1 $247 $341 #
straight-curve $-1 78.892788476210825 -25.642746840120893 113.89572453327941 0 0 -1 I I #
coedge $-1 $245 $244 $336 $342 reversed $119 $-1 #
edge $-1 $297 -100.69136589359313 $343 -88.250742599751277 $286 $344 forward 7 unknown #
coedge $-1 $345 $246 $332 $346 forward $182 $-1 #
vertex $-1 $346 $347 #
straight-curve $-1 78.892788476210825 -15.126826603289988 6.3122169369753038 0 -1 0 I I #
point $-1 71.295126319329654 -32.229755935062443 8.2699615634782386 #
face $-1 $348 $349 $15 $-1 $350 reversed single #
loop $-1 $-1 $351 $250 #
plane-surface $-1 78.892788476210825 0 0 -1 0 0 0 0 1 forward_v I I I I #
coedge $-1 $352 $353 $351 $354 reversed $251 $-1 #
edge $-1 $355 1 $355 0 $253 $-1 forward 7 unknown #
vertex $-1 $254 $356 #
ellipse-curve $-1 72.083137081190785 -32.229755935062443 8.8856230282387276 0.78801076186113728 0 0.61566146476048833 0.61566146476048833 0 -0.78801076186113728 1 I I #
point $-1 75.678843761161232 -32.229755935062443 10.42587869501801 #
point $-1 71.295126319329654 -28.27755047809751 8.2699615634782386 #
coedge $-1 $357 $358 $359 $360 reversed $259 $-1 #
loop $-1 $-1 $267 $264 #
plane-surface $-1 0 34.86455957303906 0 0 -1 0 0 0 -1 forward_v I I I I #
coedge $-1 $320 $318 $361 $362 forward $265 $-1 #
coedge $-1 $361 $267 $279 $326 reversed $310 $-1 #
coedge $-1 $267 $361 $269 $316 reversed $310 $-1 #
straight-curve $-1 78.892788476210825 34.86455957303906 0 0 0 -1 I I #
edge $-1 $270 -78.892788476210825 $363 78.892788476210825 $314 $364 forward 7 unknown #
point $-1 78.892788476210825 34.86455957303906 16.115561976783031 #
coedge $-1 $312 $273 $272 $319 reversed $265 $-1 #
edge $-1 $363 -34.86455957303906 $275 34.86455957303906 $318 $365 forward 7 unknown #
coedge $-1 $273 $312 $324 $366 reversed $265 $-1 #
vertex $-1 $366 $367 #
straight-curve $-1 -78.892788476210825 -34.86455957303906 0 0 0 -1 I I #
point $-1 -78.892788476210825 -34.86455957303906 16.115561976783031 #
coedge $-1 $279 $277 $320 $366 forward $219 $-1 #
straight-curve $-1 0 -34.86455957303906 -16.115561976783031 -1 0 0 I I #
edge $-1 $368 -78.892788476210825 $280 78.892788476210825 $313 $369 forward 7 unknown #
point $-1 78.892788476210825 34.86455957303906 -16.115561976783031 #
face $-1 $370 $371 $14 $-1 $372 reversed single #
loop $-1 $-1 $373 $283 #
plane-surface $-1 0 0 -16.115561976783031 0 0 1 1 0 0 forward_v I I I I #
coedge $-1 $374 $286 $375 $376 reversed $238 $-1 #
coedge $-1 $286 $377 $296 $346 reversed $238 $-1 #
coedge $-1 $287 $345 $378 $379 reversed $182 $-1 #
coedge $-1 $380 $288 $287 $335 forward $284 $-1 #
edge $-1 $291 -25.642746840120893 $381 34.86455957303906 $287 $382 forward 7 unknown #
coedge $-1 $288 $375 $294 $342 forward $284 $-1 #
vertex $-1 $342 $383 #
straight-curve $-1 53.043510878290533 -25.642746840120893 16.115561976783027 1 0 0 I I #
straight-curve $-1 -18.249710948395816 -25.642746840120893 130.64894964195216 0.61566146476048833 0 -0.78801076186113728 I I #
point $-1 78.892788476210825 -25.642746840120893 16.115561976783031 #
point $-1 78.892788476210825 -25.642746840120893 6.3122169369752896 #
edge $-1 $343 -19.737732969749072 $337 -10.515920236830905 $336 $384 forward 7 unknown #
vertex $-1 $342 $385 #
straight-curve $-1 16.900994661426999 -34.86455957303906 85.658096887624154 -0.61566146476048833 0 0.78801076186113728 I I #
coedge $-1 $333 $296 $373 $386 reversed $182 $-1 #
edge $-1 $297 -6.3122169369753065 $387 16.115561976783031 $296 $388 forward 7 unknown #
point $-1 78.892788476210825 -34.86455957303906 6.3122169369753065 #
face $-1 $389 $390 $15 $-1 $391 forward single #
loop $-1 $-1 $392 $300 #
plane-surface $-1 0 -34.86455957303906 0 0 1 0 0 0 1 forward_v I I I I #
coedge $-1 $359 $393 $303 $354 forward $301 $-1 #
coedge $-1 $353 $303 $394 $395 reversed $251 $-1 #
coedge $-1 $303 $352 $357 $396 forward $251 $-1 #
edge $-1 $397 97.780162556496379 $398 107.58350759630412 $351 $399 forward 7 unknown #
vertex $-1 $304 $400 #
point $-1 72.698798545951277 -32.229755935062443 8.09761226637759 #
coedge $-1 $401 $309 $353 $396 reversed $259 $-1 #
coedge $-1 $309 $401 $392 $402 reversed $259 $-1 #
coedge $-1 $403 $351 $309 $360 forward $301 $-1 #
edge $-1 $398 10.515920236830905 $404 19.737732969749072 $359 $405 forward 7 unknown #
coedge $-1 $314 $313 $312 $362 reversed $310 $-1 #
edge $-1 $363 -16.115561976783031 $368 16.115561976783031 $361 $406 forward 7 unknown #
vertex $-1 $316 $407 #
straight-curve $-1 0 34.86455957303906 16.115561976783031 -1 0 0 I I #
straight-curve $-1 -78.892788476210825 0 16.115561976783031 0 -1 0 I I #
edge $-1 $321 -34.86455957303906 $368 34.86455957303906 $320 $408 forward 7 unknown #
point $-1 -78.892788476210825 -34.86455957303906 -16.115561976783031 #
vertex $-1 $326 $409 #
straight-curve $-1 0 34.86455957303906 -16.115561976783031 1 0 0 I I #
face $-1 $-1 $410 $14 $-1 $411 reversed single #
loop $-1 $-1 $412 $328 #
plane-surface $-1 -78.892788476210825 0 0 1 0 0 0 0 -1 forward_v I I I I #
coedge $-1 $413 $414 $345 $386 forward $329 $-1 #
coedge $-1 $377 $331 $415 $416 forward $238 $-1 #
coedge $-1 $336 $417 $331 $376 forward $284 $-1 #
edge $-1 $418 -78.892788476210825 $343 71.233576116590697 $331 $419 forward 7 unknown #
coedge $-1 $332 $374 $413 $420 reversed $238 $-1 #
coedge $-1 $421 $422 $333 $379 forward $410 $-1 #
edge $-1 $381 -16.115561976783031 $423 16.115561976783031 $333 $424 forward 7 unknown #
coedge $-1 $417 $334 $422 $425 forward $284 $-1 #
vertex $-1 $335 $426 #
straight-curve $-1 78.892788476210825 0 16.115561976783031 0 1 0 I I #
point $-1 71.233576116590697 -25.642746840120893 16.115561976783027 #
straight-curve $-1 71.233576116590697 -15.126826603289988 16.115561976783027 0 1 0 I I #
point $-1 71.233576116590697 -34.86455957303906 16.115561976783027 #
edge $-1 $423 -34.86455957303906 $387 34.86455957303906 $345 $427 forward 7 unknown #
vertex $-1 $346 $428 #
straight-curve $-1 78.892788476210825 -34.86455957303906 0 0 0 -1 I I #
face $-1 $429 $430 $15 $-1 $431 reversed single #
loop $-1 $-1 $394 $348 #
plane-surface $-1 0 0 16.115561976783031 0 0 1 1 0 0 forward_v I I I I #
coedge $-1 $432 $433 $358 $402 forward $349 $-1 #
coedge $-1 $351 $434 $435 $436 reversed $301 $-1 #
coedge $-1 $435 $437 $352 $395 forward $390 $-1 #
edge $-1 $438 18.190065238300164 $397 25.849277597920292 $394 $439 forward 7 unknown #
edge $-1 $438 145.34495365857975 $398 157.78557695242162 $353 $440 forward 7 unknown #
vertex $-1 $436 $441 #
vertex $-1 $360 $442 #
straight-curve $-1 78.892788476210825 -25.642746840120893 113.89572453327941 0 0 -1 I I #
point $-1 71.295126319329654 -32.229755935062443 8.2699615634782386 #
coedge $-1 $358 $357 $437 $443 reversed $259 $-1 #
edge $-1 $404 -100.69136589359313 $444 -88.250742599751277 $392 $445 forward 7 unknown #
coedge $-1 $446 $359 $433 $447 forward $301 $-1 #
vertex $-1 $447 $448 #
straight-curve $-1 78.892788476210825 -15.126826603289988 6.3122169369753038 0 -1 0 I I #
straight-curve $-1 -78.892788476210825 34.86455957303906 0 0 0 -1 I I #
point $-1 -78.892788476210825 34.86455957303906 16.115561976783031 #
straight-curve $-1 -78.892788476210825 0 -16.115561976783031 0 1 0 I I #
point $-1 -78.892788476210825 34.86455957303906 -16.115561976783031 #
loop $-1 $-1 $378 $370 #
plane-surface $-1 0 34.86455957303906 0 0 -1 0 0 0 -1 forward_v I I I I #
coedge $-1 $449 $450 $451 $452 forward $371 $-1 #
coedge $-1 $453 $373 $377 $420 forward $329 $-1 #
coedge $-1 $373 $453 $421 $454 forward $329 $-1 #
coedge $-1 $450 $449 $374 $416 reversed $371 $-1 #
edge $-1 $418 -16.115561976783031 $455 16.115561976783031 $415 $456 forward 7 unknown #
coedge $-1 $375 $380 $450 $457 forward $284 $-1 #
vertex $-1 $457 $458 #
straight-curve $-1 0 -34.86455957303906 16.115561976783031 1 0 0 I I #
edge $-1 $387 -78.892788476210825 $455 78.892788476210825 $377 $459 forward 7 unknown #
coedge $-1 $451 $378 $414 $454 reversed $410 $-1 #
coedge $-1 $378 $451 $380 $425 reversed $410 $-1 #
vertex $-1 $386 $460 #
straight-curve $-1 78.892788476210825 34.86455957303906 0 0 0 -1 I I #
edge $-1 $381 -78.892788476210825 $461 78.892788476210825 $422 $462 forward 7 unknown #
point $-1 78.892788476210825 34.86455957303906 16.115561976783031 #
straight-curve $-1 78.892788476210825 0 -16.115561976783031 0 -1 0 I I #
point $-1 78.892788476210825 -34.86455957303906 -16.115561976783031 #
face $-1 $463 $464 $15 $-1 $465 reversed single #
loop $-1 $-1 $466 $389 #
plane-surface $-1 0 0 -16.115561976783031 0 0 1 1 0 0 forward_v I I I I #
coedge $-1 $467 $392 $468 $469 reversed $349 $-1 #
coedge $-1 $392 $470 $403 $447 reversed $349 $-1 #
coedge $-1 $393 $446 $471 $472 reversed $301 $-1 #
coedge $-1 $473 $394 $393 $436 forward $390 $-1 #
edge $-1 $397 -25.642746840120893 $474 34.86455957303906 $393 $475 forward 7 unknown #
coedge $-1 $394 $468 $401 $443 forward $390 $-1 #
vertex $-1 $443 $476 #
straight-curve $-1 53.043510878290533 -25.642746840120893 16.115561976783027 1 0 0 I I #
straight-curve $-1 -18.249710948395816 -25.642746840120893 130.64894964195216 0.61566146476048833 0 -0.78801076186113728 I I #
point $-1 78.892788476210825 -25.642746840120893 16.115561976783031 #
point $-1 78.892788476210825 -25.642746840120893 6.3122169369752896 #
edge $-1 $444 -19.737732969749072 $438 -10.515920236830905 $437 $477 forward 7 unknown #
vertex $-1 $443 $478 #
straight-curve $-1 16.900994661426999 -34.86455957303906 85.658096887624154 -0.61566146476048833 0 0.78801076186113728 I I #
coedge $-1 $434 $403 $466 $479 reversed $301 $-1 #
edge $-1 $404 -6.3122169369753065 $480 16.115561976783031 $403 $481 forward 7 unknown #
point $-1 78.892788476210825 -34.86455957303906 6.3122169369753065 #
coedge $-1 $415 $412 $453 $482 reversed $371 $-1 #
coedge $-1 $412 $415 $417 $457 reversed $371 $-1 #
coedge $-1 $422 $421 $412 $452 reversed $410 $-1 #
edge $-1 $461 -16.115561976783031 $483 16.115561976783031 $451 $484 forward 7 unknown #
coedge $-1 $414 $413 $449 $482 forward $329 $-1 #
edge $-1 $483 -78.892788476210825 $423 78.892788476210825 $421 $485 forward 7 unknown #
vertex $-1 $482 $486 #
straight-curve $-1 -78.892788476210825 -34.86455957303906 0 0 0 -1 I I #
edge $-1 $461 -34.86455957303906 $418 34.86455957303906 $450 $487 forward 7 unknown #
point $-1 -78.892788476210825 -34.86455957303906 16.115561976783031 #
straight-curve $-1 0 -34.86455957303906 -16.115561976783031 -1 0 0 I I #
point $-1 78.892788476210825 34.86455957303906 -16.115561976783031 #
vertex $-1 $425 $488 #
straight-curve $-1 0 34.86455957303906 16.115561976783031 -1 0 0 I I #
face $-1 $-1 $489 $15 $-1 $490 reversed single #
loop $-1 $-1 $491 $429 #
plane-surface $-1 -78.892788476210825 0 0 1 0 0 0 0 -1 forward_v I I I I #
coedge $-1 $492 $493 $446 $479 forward $430 $-1 #
coedge $-1 $470 $432 $494 $495 forward $349 $-1 #
coedge $-1 $437 $496 $432 $469 forward $390 $-1 #
edge $-1 $497 -78.892788476210825 $444 71.233576116590697 $432 $498 forward 7 unknown #
coedge $-1 $433 $467 $492 $499 reversed $349 $-1 #
coedge $-1 $500 $501 $434 $472 forward $489 $-1 #
edge $-1 $474 -16.115561976783031 $502 16.115561976783031 $434 $503 forward 7 unknown #
coedge $-1 $496 $435 $501 $504 forward $390 $-1 #
vertex $-1 $436 $505 #
straight-curve $-1 78.892788476210825 0 16.115561976783031 0 1 0 I I #
point $-1 71.233576116590697 -25.642746840120893 16.115561976783027 #
straight-curve $-1 71.233576116590697 -15.126826603289988 16.115561976783027 0 1 0 I I #
point $-1 71.233576116590697 -34.86455957303906 16.115561976783027 #
edge $-1 $502 -34.86455957303906 $480 34.86455957303906 $446 $506 forward 7 unknown #
vertex $-1 $447 $507 #
straight-curve $-1 78.892788476210825 -34.86455957303906 0 0 0 -1 I I #
edge $-1 $455 -34.86455957303906 $483 34.86455957303906 $449 $508 forward 7 unknown #
vertex $-1 $454 $509 #
straight-curve $-1 -78.892788476210825 34.86455957303906 0 0 0 -1 I I #
straight-curve $-1 0 34.86455957303906 -16.115561976783031 1 0 0 I I #
point $-1 -78.892788476210825 -34.86455957303906 -16.115561976783031 #
straight-curve $-1 -78.892788476210825 0 16.115561976783031 0 -1 0 I I #
point $-1 -78.892788476210825 34.86455957303906 16.115561976783031 #
loop $-1 $-1 $471 $463 #
plane-surface $-1 0 34.86455957303906 0 0 -1 0 0 0 -1 forward_v I I I I #
coedge $-1 $510 $511 $512 $513 forward $464 $-1 #
coedge $-1 $514 $466 $470 $499 forward $430 $-1 #
coedge $-1 $466 $514 $500 $515 forward $430 $-1 #
coedge $-1 $511 $510 $467 $495 reversed $464 $-1 #
edge $-1 $497 -16.115561976783031 $516 16.115561976783031 $494 $517 forward 7 unknown #
coedge $-1 $468 $473 $511 $518 forward $390 $-1 #
vertex $-1 $518 $519 #
straight-curve $-1 0 -34.86455957303906 16.115561976783031 1 0 0 I I #
edge $-1 $480 -78.892788476210825 $516 78.892788476210825 $470 $520 forward 7 unknown #
coedge $-1 $512 $471 $493 $515 reversed $489 $-1 #
coedge $-1 $471 $512 $473 $504 reversed $489 $-1 #
vertex $-1 $479 $521 #
straight-curve $-1 78.892788476210825 34.86455957303906 0 0 0 -1 I I #
edge $-1 $474 -78.892788476210825 $522 78.892788476210825 $501 $523 forward 7 unknown #
point $-1 78.892788476210825 34.86455957303906 16.115561976783031 #
straight-curve $-1 78.892788476210825 0 -16.115561976783031 0 -1 0 I I #
point $-1 78.892788476210825 -34.86455957303906 -16.115561976783031 #
straight-curve $-1 -78.892788476210825 0 -16.115561976783031 0 1 0 I I #
point $-1 -78.892788476210825 34.86455957303906 -16.115561976783031 #
coedge $-1 $494 $491 $514 $524 reversed $464 $-1 #
coedge $-1 $491 $494 $496 $518 reversed $464 $-1 #
coedge $-1 $501 $500 $491 $513 reversed $489 $-1 #
edge $-1 $522 -16.115561976783031 $525 16.115561976783031 $512 $526 forward 7 unknown #
coedge $-1 $493 $492 $510 $524 forward $430 $-1 #
edge $-1 $525 -78.892788476210825 $502 78.892788476210825 $500 $527 forward 7 unknown #
vertex $-1 $524 $528 #
straight-curve $-1 -78.892788476210825 -34.86455957303906 0 0 0 -1 I I #
edge $-1 $522 -34.86455957303906 $497 34.86455957303906 $511 $529 forward 7 unknown #
point $-1 -78.892788476210825 -34.86455957303906 16.115561976783031 #
straight-curve $-1 0 -34.86455957303906 -16.115561976783031 -1 0 0 I I #
point $-1 78.892788476210825 34.86455957303906 -16.115561976783031 #
vertex $-1 $504 $530 #
straight-curve $-1 0 34.86455957303906 16.115561976783031 -1 0 0 I I #
edge $-1 $516 -34.86455957303906 $525 34.86455957303906 $510 $531 forward 7 unknown #
vertex $-1 $515 $532 #
straight-curve $-1 -78.892788476210825 34.86455957303906 0 0 0 -1 I I #
straight-curve $-1 0 34.86455957303906 -16.115561976783031 1 0 0 I I #
point $-1 -78.892788476210825 -34.86455957303906 -16.115561976783031 #
straight-curve $-1 -78.892788476210825 0 16.115561976783031 0 -1 0 I I #
point $-1 -78.892788476210825 34.86455957303906 16.115561976783031 #
straight-curve $-1 -78.892788476210825 0 -16.115561976783031 0 1 0 I I #
point $-1 -78.892788476210825 34.86455957303906 -16.115561976783031 #
End-of-ACIS-data 