500 0 6 0           
7 Unknown 11 ACIS 5.0 NT 24 Fri Mar 26 20:20:41 1999 
-1 9.9999999999999995e-007 1e-010 
body $-1 $6 $-1 $7 #
body $-1 $8 $-1 $9 #
body $-1 $10 $-1 $11 #
body $-1 $12 $-1 $13 #
body $-1 $14 $-1 $15 #
body $-1 $16 $-1 $17 #
lump $-1 $-1 $18 $0 #
transform $-1 1 0 0 0 1 0 0 0 1 49.137241737113555 30.371455141634407 10.979122998693006 1 rotate no_reflect no_shear #
lump $-1 $-1 $19 $1 #
transform $-1 1 0 0 0 1 0 0 0 1 49.137241737113555 30.371455141634407 10.979122998693006 1 rotate no_reflect no_shear #
lump $-1 $-1 $20 $2 #
transform $-1 1 0 0 0 1 0 0 0 1 49.137241737113555 30.371455141634407 10.979122998693006 1 rotate no_reflect no_shear #
lump $-1 $-1 $21 $3 #
transform $-1 1 0 0 0 1 0 0 0 1 49.137241737113555 30.371455141634407 10.979122998693006 1 rotate no_reflect no_shear #
lump $-1 $-1 $22 $4 #
transform $-1 1 0 0 0 1 0 0 0 1 49.137241737113555 30.371455141634407 10.979122998693006 1 rotate no_reflect no_shear #
lump $-1 $-1 $23 $5 #
transform $-1 1 0 0 0 1 0 0 0 1 49.137241737113555 30.371455141634407 10.979122998693006 1 rotate no_reflect no_shear #
shell $-1 $-1 $-1 $24 $-1 $6 #
shell $-1 $-1 $-1 $25 $-1 $8 #
shell $-1 $-1 $-1 $26 $-1 $10 #
shell $-1 $-1 $-1 $27 $-1 $12 #
shell $-1 $-1 $-1 $28 $-1 $14 #
shell $-1 $-1 $-1 $29 $-1 $16 #
face $-1 $30 $31 $18 $-1 $32 forward single #
face $-1 $33 $34 $19 $-1 $35 forward single #
face $-1 $36 $37 $20 $-1 $38 reversed single #
face $-1 $39 $40 $21 $-1 $41 forward single #
face $-1 $42 $43 $22 $-1 $44 reversed single #
face $-1 $45 $46 $23 $-1 $47 forward single #
face $-1 $48 $49 $18 $-1 $50 reversed single #
loop $-1 $-1 $51 $24 #
plane-surface $-1 0 0 10.979122998693006 0 0 1 1 0 0 forward_v I I I I #
face $-1 $52 $53 $19 $-1 $54 reversed single #
loop $-1 $-1 $55 $25 #
plane-surface $-1 -43.383299390851292 0 3.2746876473593458 0 0 1 1 0 0 forward_v I I I I #
face $-1 $56 $57 $20 $-1 $58 reversed single #
loop $-1 $-1 $59 $26 #
plane-surface $-1 -15.980971660566553 49.002062228210072 118.32514565608828 1 0 0 0 -0.6560590369687036 -0.75470957328743171 forward_v I I I I #
face $-1 $60 $61 $21 $-1 $62 forward single #
loop $-1 $63 $64 $27 #
cone-surface $-1 -8.0601797477955373 24.033723354391476 4.7673433686986471 0 -0.6560590369687036 -0.75470957328743171 2 0 0 1 I I 0 1 2 forward I I I I #
face $-1 $65 $66 $22 $-1 $67 reversed single #
loop $-1 $-1 $68 $28 #
plane-surface $-1 -0.13938783502452168 -94.845318128332622 78.474210432970594 -1 0 0 0 -0.6560590369687036 0.75470957328743171 forward_v I I I I #
face $-1 $69 $70 $23 $-1 $71 forward single #
loop $-1 $72 $73 $29 #
cone-surface $-1 -8.0601797477955373 -24.033723354391473 4.7673433686986471 0 0.6560590369687036 -0.75470957328743171 2 0 0 1 I I 0 1 2 forward I I I I #
face $-1 $74 $75 $18 $-1 $76 reversed single #
loop $-1 $-1 $77 $30 #
plane-surface $-1 0 0 -10.979122998693006 0 0 1 1 0 0 forward_v I I I I #
coedge $-1 $78 $79 $80 $81 forward $31 $-1 #
face $-1 $82 $83 $19 $-1 $84 reversed single #
loop $-1 $-1 $85 $33 #
plane-surface $-1 -43.383299390851292 0 -2.4643978516553195 0 0 1 1 0 0 forward_v I I I I #
coedge $-1 $86 $87 $88 $89 forward $34 $-1 #
face $-1 $90 $91 $20 $-1 $92 reversed single #
loop $-1 $-1 $93 $36 #
plane-surface $-1 -8.0601797477955373 -15.471800758488151 44.156452168211572 0 0.6560590369687036 0.75470957328743171 1 0 0 forward_v I I I I #
coedge $-1 $94 $95 $96 $97 reversed $37 $-1 #
face $-1 $-1 $98 $21 $-1 $99 forward single #
loop $-1 $100 $101 $39 #
cone-surface $-1 -8.0601797477955373 20.878485231375606 1.1376571922164214 0 -0.6560590369687036 -0.75470957328743171 1 0 0 1 I I -0.70710678118654746 0.70710678118654746 1 forward I I I I #
loop $-1 $-1 $102 $27 #
coedge $-1 $64 $64 $103 $104 reversed $40 $-1 #
face $-1 $105 $106 $22 $-1 $107 reversed single #
loop $-1 $-1 $108 $42 #
plane-surface $-1 -8.0601797477955373 -30.371455141634399 4.3055169450938848 0 -0.6560590369687036 0.75470957328743171 1 0 0 forward_v I I I I #
coedge $-1 $109 $110 $111 $112 reversed $43 $-1 #
face $-1 $-1 $113 $23 $-1 $114 forward single #
loop $-1 $115 $116 $45 #
cone-surface $-1 -8.0601797477955373 -20.878485231375603 1.1376571922164214 0 0.6560590369687036 -0.75470957328743171 1 0 0 1 I I -0.70710678118654746 0.70710678118654746 1 forward I I I I #
loop $-1 $-1 $117 $29 #
coedge $-1 $73 $73 $118 $119 reversed $46 $-1 #
face $-1 $120 $121 $18 $-1 $122 reversed single #
loop $-1 $-1 $123 $48 #
plane-surface $-1 0 -30.371455141634407 0 0 1 0 0 0 1 forward_v I I I I #
coedge $-1 $124 $125 $126 $127 forward $49 $-1 #
coedge $-1 $128 $51 $129 $130 forward $31 $-1 #
coedge $-1 $51 $128 $131 $132 forward $31 $-1 #
coedge $-1 $133 $134 $51 $81 reversed $135 $-1 #
edge $-1 $136 -30.371455141634407 $137 30.371455141634407 $80 $138 forward 7 unknown #
face $-1 $139 $140 $19 $-1 $141 reversed single #
loop $-1 $-1 $142 $52 #
plane-surface $-1 -37.629357044589028 0 0.40514489785201313 -1 0 0 0 0 1 forward_v I I I I #
coedge $-1 $143 $144 $145 $146 forward $53 $-1 #
coedge $-1 $147 $55 $148 $149 reversed $34 $-1 #
coedge $-1 $55 $147 $150 $151 reversed $34 $-1 #
coedge $-1 $142 $152 $55 $89 reversed $83 $-1 #
edge $-1 $153 -30.371455141634407 $154 30.371455141634407 $88 $155 forward 7 unknown #
face $-1 $156 $157 $20 $-1 $158 forward single #
loop $-1 $-1 $159 $56 #
plane-surface $-1 -0.13938783502452168 49.002062228210072 118.32514565608828 -1 0 0 0 0.6560590369687036 0.75470957328743171 forward_v I I I I #
coedge $-1 $160 $161 $162 $163 reversed $57 $-1 #
coedge $-1 $95 $59 $164 $165 reversed $37 $-1 #
coedge $-1 $59 $94 $160 $166 reversed $37 $-1 #
coedge $-1 $162 $167 $59 $97 forward $157 $-1 #
edge $-1 $168 -5.8704240275293706 $169 1.8066813748621691 $96 $170 forward 7 unknown #
loop $-1 $-1 $103 $60 #
plane-surface $-1 -8.0601797477955373 -15.471800758488151 44.156452168211572 0 0.6560590369687036 0.75470957328743171 1 0 0 forward_v I I I I #
loop $-1 $-1 $171 $39 #
coedge $-1 $101 $101 $102 $172 reversed $61 $-1 #
coedge $-1 $102 $102 $101 $172 forward $63 $-1 #
coedge $-1 $103 $103 $64 $104 forward $98 $-1 #
edge $-1 $173 1.7523855490027546e-016 $173 6.2831853071796004 $103 $174 forward 7 unknown #
face $-1 $175 $176 $22 $-1 $177 reversed single #
loop $-1 $-1 $178 $65 #
plane-surface $-1 -15.980971660566553 -94.845318128332622 78.474210432970594 1 0 0 0 0.6560590369687036 -0.75470957328743171 forward_v I I I I #
coedge $-1 $179 $180 $181 $182 reversed $66 $-1 #
coedge $-1 $110 $68 $183 $184 reversed $43 $-1 #
coedge $-1 $68 $109 $179 $185 reversed $43 $-1 #
coedge $-1 $181 $186 $68 $112 forward $187 $-1 #
edge $-1 $188 17.051203922531904 $189 24.728309324923433 $111 $190 forward 7 unknown #
loop $-1 $-1 $118 $69 #
plane-surface $-1 -8.0601797477955373 -30.371455141634399 4.3055169450938848 0 -0.6560590369687036 0.75470957328743171 1 0 0 forward_v I I I I #
loop $-1 $-1 $191 $45 #
coedge $-1 $116 $116 $117 $192 reversed $70 $-1 #
coedge $-1 $117 $117 $116 $192 forward $72 $-1 #
coedge $-1 $118 $118 $73 $119 forward $113 $-1 #
edge $-1 $193 -8.740462180272739e-016 $193 6.2831853071795996 $118 $194 forward 7 unknown #
face $-1 $195 $196 $18 $-1 $197 reversed single #
loop $-1 $-1 $198 $74 #
plane-surface $-1 -49.137241737113555 0 0 1 0 0 0 0 -1 forward_v I I I I #
coedge $-1 $199 $131 $200 $201 forward $75 $-1 #
coedge $-1 $202 $77 $199 $203 forward $49 $-1 #
coedge $-1 $77 $202 $204 $205 forward $49 $-1 #
coedge $-1 $134 $133 $77 $127 reversed $135 $-1 #
edge $-1 $206 -30.371455141634407 $207 30.371455141634407 $126 $208 forward 7 unknown #
coedge $-1 $79 $78 $209 $210 forward $31 $-1 #
coedge $-1 $211 $212 $78 $130 reversed $196 $-1 #
edge $-1 $137 -49.137241737113555 $213 49.137241737113555 $129 $214 forward 7 unknown #
coedge $-1 $123 $215 $79 $132 reversed $75 $-1 #
edge $-1 $216 -49.137241737113555 $136 49.137241737113555 $131 $217 forward 7 unknown #
coedge $-1 $126 $80 $215 $218 forward $135 $-1 #
coedge $-1 $80 $126 $211 $219 reversed $135 $-1 #
loop $-1 $-1 $133 $195 #
vertex $-1 $81 $220 #
vertex $-1 $81 $221 #
straight-curve $-1 49.137241737113555 0 10.979122998693006 0 1 0 I I #
face $-1 $222 $223 $19 $-1 $224 reversed single #
loop $-1 $-1 $225 $82 #
plane-surface $-1 0 -30.371455141634407 0 0 1 0 0 0 1 forward_v I I I I #
coedge $-1 $145 $88 $226 $227 reversed $83 $-1 #
coedge $-1 $228 $85 $225 $229 reversed $53 $-1 #
coedge $-1 $85 $228 $230 $231 reversed $53 $-1 #
coedge $-1 $152 $142 $85 $146 reversed $83 $-1 #
edge $-1 $232 -30.371455141634407 $233 30.371455141634407 $145 $234 forward 7 unknown #
coedge $-1 $87 $86 $235 $236 reversed $34 $-1 #
coedge $-1 $237 $238 $86 $149 forward $239 $-1 #
edge $-1 $240 -27.44559204168791 $154 -15.937707349163382 $148 $241 forward 7 unknown #
coedge $-1 $242 $226 $87 $151 forward $140 $-1 #
edge $-1 $153 15.937707349163382 $243 27.44559204168791 $150 $244 forward 7 unknown #
coedge $-1 $88 $145 $237 $245 reversed $83 $-1 #
vertex $-1 $151 $246 #
vertex $-1 $149 $247 #
straight-curve $-1 -37.629357044589028 0 3.2746876473593458 0 1 0 I I #
face $-1 $-1 $248 $20 $-1 $249 reversed single #
loop $-1 $-1 $96 $90 #
plane-surface $-1 0 0 10.979122998693006 0 0 1 1 0 0 forward_v I I I I #
coedge $-1 $250 $251 $252 $253 reversed $91 $-1 #
coedge $-1 $254 $93 $95 $166 forward $57 $-1 #
coedge $-1 $93 $254 $250 $255 forward $57 $-1 #
coedge $-1 $252 $96 $93 $163 forward $157 $-1 #
edge $-1 $169 -11.950881786668784 $256 3.8907020388732469 $162 $257 forward 7 unknown #
coedge $-1 $258 $259 $94 $165 forward $248 $-1 #
edge $-1 $260 -54.85705588295027 $168 -48.183449829351133 $164 $261 forward 7 unknown #
edge $-1 $169 50.570645780314507 $260 60.742910283268827 $95 $262 forward 7 unknown #
coedge $-1 $96 $252 $258 $263 forward $157 $-1 #
vertex $-1 $165 $264 #
vertex $-1 $97 $265 #
straight-curve $-1 -15.980971660566553 24.501031114105036 10.979122998693008 0 -1 0 I I #
coedge $-1 $171 $171 $-1 $266 reversed $100 $-1 #
edge $-1 $267 0 $267 6.2831853071796004 $101 $268 forward 7 unknown #
vertex $-1 $104 $269 #
ellipse-curve $-1 -8.0601797477955373 26.53290244043864 7.6423199718934365 0 0.6560590369687036 0.75470957328743171 2 0 0 1 I I #
face $-1 $-1 $187 $22 $-1 $270 forward single #
loop $-1 $-1 $271 $105 #
plane-surface $-1 0 -30.371455141634407 0 0 1 0 0 0 1 forward_v I I I I #
coedge $-1 $272 $273 $274 $275 reversed $106 $-1 #
coedge $-1 $276 $108 $110 $185 forward $66 $-1 #
coedge $-1 $108 $276 $272 $277 forward $66 $-1 #
coedge $-1 $274 $111 $108 $182 forward $187 $-1 #
edge $-1 $189 -3.8907020388732469 $278 11.950881786668784 $181 $279 forward 7 unknown #
coedge $-1 $280 $281 $109 $184 forward $176 $-1 #
edge $-1 $282 -34.931588271391419 $188 -28.257982217792289 $183 $283 forward 7 unknown #
edge $-1 $189 -10.172264502954292 $282 9.44141639987384e-015 $110 $284 forward 7 unknown #
coedge $-1 $111 $274 $280 $285 forward $187 $-1 #
loop $-1 $-1 $274 $175 #
vertex $-1 $184 $286 #
vertex $-1 $112 $287 #
straight-curve $-1 -0.13938783502452168 -47.422659064166311 10.979122998693008 0 1 0 I I #
coedge $-1 $191 $191 $-1 $288 reversed $115 $-1 #
edge $-1 $289 0 $289 6.2831853071796004 $116 $290 forward 7 unknown #
vertex $-1 $119 $291 #
ellipse-curve $-1 -8.0601797477955373 -26.53290244043864 7.6423199718934427 0 -0.6560590369687036 0.75470957328743171 2 0 0 1 I I #
face $-1 $-1 $135 $18 $-1 $292 reversed single #
loop $-1 $-1 $211 $120 #
plane-surface $-1 0 30.371455141634407 0 0 -1 0 0 0 -1 forward_v I I I I #
coedge $-1 $293 $209 $212 $294 forward $121 $-1 #
coedge $-1 $215 $123 $124 $203 reversed $75 $-1 #
coedge $-1 $209 $293 $123 $201 reversed $121 $-1 #
edge $-1 $216 -10.979122998693006 $295 10.979122998693006 $200 $296 forward 7 unknown #
coedge $-1 $125 $124 $293 $297 forward $49 $-1 #
edge $-1 $207 -49.137241737113555 $295 49.137241737113555 $199 $298 forward 7 unknown #
coedge $-1 $212 $211 $125 $205 reversed $196 $-1 #
edge $-1 $299 -49.137241737113555 $206 49.137241737113555 $204 $300 forward 7 unknown #
vertex $-1 $127 $301 #
vertex $-1 $218 $302 #
straight-curve $-1 49.137241737113555 0 -10.979122998693006 0 -1 0 I I #
coedge $-1 $198 $200 $128 $210 reversed $121 $-1 #
edge $-1 $213 -30.371455141634407 $216 30.371455141634407 $209 $303 forward 7 unknown #
coedge $-1 $204 $129 $134 $219 forward $196 $-1 #
coedge $-1 $129 $204 $198 $294 reversed $196 $-1 #
vertex $-1 $130 $304 #
straight-curve $-1 0 30.371455141634407 10.979122998693006 -1 0 0 I I #
coedge $-1 $131 $199 $133 $218 reversed $75 $-1 #
vertex $-1 $210 $305 #
straight-curve $-1 0 -30.371455141634407 10.979122998693006 1 0 0 I I #
edge $-1 $136 -10.979122998693006 $207 10.979122998693006 $133 $306 forward 7 unknown #
edge $-1 $137 -10.979122998693006 $206 10.979122998693006 $134 $307 forward 7 unknown #
point $-1 49.137241737113555 -30.371455141634407 10.979122998693006 #
point $-1 49.137241737113555 30.371455141634407 10.979122998693006 #
face $-1 $-1 $239 $19 $-1 $308 reversed single #
loop $-1 $-1 $309 $139 #
plane-surface $-1 -49.137241737113555 0 0 1 0 0 0 0 -1 forward_v I I I I #
coedge $-1 $226 $242 $143 $229 forward $140 $-1 #
coedge $-1 $150 $225 $142 $227 forward $140 $-1 #
edge $-1 $233 -2.6669703005813261 $153 3.0721151984333392 $226 $310 forward 7 unknown #
coedge $-1 $144 $143 $309 $311 reversed $53 $-1 #
edge $-1 $312 -27.44559204168791 $233 -15.937707349163382 $225 $313 forward 7 unknown #
coedge $-1 $238 $237 $144 $231 forward $239 $-1 #
edge $-1 $232 15.937707349163382 $314 27.44559204168791 $230 $315 forward 7 unknown #
vertex $-1 $231 $316 #
vertex $-1 $229 $317 #
straight-curve $-1 -37.629357044589028 0 -2.4643978516553195 0 -1 0 I I #
coedge $-1 $318 $319 $147 $236 forward $223 $-1 #
edge $-1 $243 -30.371455141634407 $240 30.371455141634407 $235 $320 forward 7 unknown #
coedge $-1 $230 $148 $152 $245 forward $239 $-1 #
coedge $-1 $148 $230 $318 $321 reversed $239 $-1 #
loop $-1 $-1 $230 $222 #
vertex $-1 $321 $322 #
straight-curve $-1 -21.691649695425646 30.371455141634407 3.2746876473593458 1 0 0 I I #
coedge $-1 $225 $150 $319 $323 forward $140 $-1 #
vertex $-1 $323 $324 #
straight-curve $-1 -21.691649695425646 -30.371455141634407 3.2746876473593458 -1 0 0 I I #
edge $-1 $154 -3.0721151984333392 $232 2.6669703005813261 $237 $325 forward 7 unknown #
point $-1 -37.629357044589028 -30.371455141634407 3.2746876473593458 #
point $-1 -37.629357044589028 30.371455141634407 3.2746876473593458 #
loop $-1 $-1 $164 $156 #
plane-surface $-1 0 30.371455141634407 0 0 -1 0 0 0 -1 forward_v I I I I #
coedge $-1 $251 $159 $161 $255 reversed $91 $-1 #
coedge $-1 $159 $250 $326 $327 reversed $91 $-1 #
coedge $-1 $167 $162 $159 $253 forward $157 $-1 #
edge $-1 $256 -1.8066813748621691 $328 5.8704240275293706 $252 $329 forward 7 unknown #
coedge $-1 $161 $160 $259 $330 reversed $57 $-1 #
edge $-1 $331 -60.742910283268827 $256 -50.570645780314507 $250 $332 forward 7 unknown #
vertex $-1 $163 $333 #
straight-curve $-1 -4.0300898738977686 22.69434973924286 10.979122998693011 1 0 0 I I #
coedge $-1 $326 $164 $167 $263 reversed $248 $-1 #
coedge $-1 $164 $326 $254 $330 forward $248 $-1 #
vertex $-1 $165 $334 #
straight-curve $-1 -15.980971660566553 30.371455141634407 59.162572828044141 0 0 1 I I #
straight-curve $-1 -15.980971660566553 -15.471800758488151 44.156452168211572 0 0.75470957328743171 -0.6560590369687036 I I #
edge $-1 $328 0.13938783502452168 $168 15.980971660566553 $258 $335 forward 7 unknown #
point $-1 -15.980971660566553 30.371455141634407 10.979122998693006 #
point $-1 -15.980971660566553 22.694349739242867 10.979122998693008 #
edge $-1 $336 1 $336 0 $171 $-1 forward 7 unknown #
vertex $-1 $172 $337 #
ellipse-curve $-1 -8.0601797477955373 21.534544268344309 1.8923667655038532 0 0.6560590369687036 0.75470957328743171 2 0 0 1 I I #
point $-1 -6.0601797477955373 26.532902440438644 7.64231997189344 #
plane-surface $-1 0 0 10.979122998693006 0 0 1 1 0 0 forward_v I I I I #
coedge $-1 $281 $280 $273 $338 forward $176 $-1 #
coedge $-1 $273 $178 $180 $277 reversed $106 $-1 #
coedge $-1 $178 $272 $271 $338 reversed $106 $-1 #
coedge $-1 $186 $181 $178 $275 forward $187 $-1 #
edge $-1 $278 -24.728309324923433 $339 -17.051203922531904 $274 $340 forward 7 unknown #
coedge $-1 $180 $179 $281 $341 reversed $66 $-1 #
edge $-1 $342 -9.44141639987384e-015 $278 10.172264502954292 $272 $343 forward 7 unknown #
vertex $-1 $182 $344 #
straight-curve $-1 -4.0300898738977686 -22.694349739242877 10.979122998693006 -1 0 0 I I #
coedge $-1 $271 $183 $186 $285 reversed $176 $-1 #
coedge $-1 $183 $271 $276 $341 forward $176 $-1 #
vertex $-1 $184 $345 #
straight-curve $-1 -0.13938783502452168 -30.371455141634407 39.237105216485297 0 0 1 I I #
straight-curve $-1 -0.13938783502452168 -30.371455141634399 4.3055169450938848 0 -0.75470957328743171 -0.6560590369687036 I I #
edge $-1 $339 -15.980971660566553 $188 -0.13938783502452168 $280 $346 forward 7 unknown #
point $-1 -0.13938783502452168 -30.371455141634407 10.979122998693006 #
point $-1 -0.13938783502452168 -22.694349739242877 10.979122998693006 #
edge $-1 $347 1 $347 0 $191 $-1 forward 7 unknown #
vertex $-1 $192 $348 #
ellipse-curve $-1 -8.0601797477955373 -21.534544268344305 1.8923667655038532 0 -0.6560590369687036 0.75470957328743171 2 0 0 1 I I #
point $-1 -6.0601797477955373 -26.53290244043864 7.64231997189344 #
plane-surface $-1 49.137241737113555 0 0 -1 0 0 0 0 1 forward_v I I I I #
coedge $-1 $200 $198 $202 $297 reversed $121 $-1 #
edge $-1 $213 -10.979122998693006 $299 10.979122998693006 $212 $349 forward 7 unknown #
vertex $-1 $297 $350 #
straight-curve $-1 -49.137241737113555 -30.371455141634407 0 0 0 -1 I I #
edge $-1 $295 -30.371455141634407 $299 30.371455141634407 $293 $351 forward 7 unknown #
straight-curve $-1 0 -30.371455141634407 -10.979122998693006 -1 0 0 I I #
vertex $-1 $205 $352 #
straight-curve $-1 0 30.371455141634407 -10.979122998693006 1 0 0 I I #
point $-1 49.137241737113555 30.371455141634407 -10.979122998693006 #
point $-1 49.137241737113555 -30.371455141634407 -10.979122998693006 #
straight-curve $-1 -49.137241737113555 0 10.979122998693006 0 -1 0 I I #
point $-1 -49.137241737113555 30.371455141634407 10.979122998693006 #
point $-1 -49.137241737113555 -30.371455141634407 10.979122998693006 #
straight-curve $-1 49.137241737113555 -30.371455141634407 0 0 0 -1 I I #
straight-curve $-1 49.137241737113555 30.371455141634407 0 0 0 -1 I I #
plane-surface $-1 0 30.371455141634407 0 0 -1 0 0 0 -1 forward_v I I I I #
coedge $-1 $319 $318 $228 $311 forward $223 $-1 #
straight-curve $-1 -37.629357044589028 -30.371455141634407 0.20257244892600657 0 0 1 I I #
edge $-1 $314 -30.371455141634407 $312 30.371455141634407 $309 $353 forward 7 unknown #
vertex $-1 $229 $354 #
straight-curve $-1 -21.691649695425646 -30.371455141634407 -2.4643978516553195 1 0 0 I I #
vertex $-1 $231 $355 #
straight-curve $-1 -21.691649695425646 30.371455141634407 -2.4643978516553195 -1 0 0 I I #
point $-1 -37.629357044589028 30.371455141634407 -2.4643978516553195 #
point $-1 -37.629357044589028 -30.371455141634407 -2.4643978516553195 #
coedge $-1 $309 $235 $238 $321 forward $223 $-1 #
coedge $-1 $235 $309 $242 $323 reversed $223 $-1 #
straight-curve $-1 -49.137241737113555 0 3.2746876473593458 0 1 0 I I #
edge $-1 $240 -3.2746876473593458 $314 2.4643978516553195 $238 $356 forward 7 unknown #
point $-1 -49.137241737113555 30.371455141634407 3.2746876473593458 #
edge $-1 $243 -3.2746876473593458 $312 2.4643978516553195 $319 $357 forward 7 unknown #
point $-1 -49.137241737113555 -30.371455141634407 3.2746876473593458 #
straight-curve $-1 -37.629357044589028 30.371455141634407 0.20257244892600657 0 0 -1 I I #
coedge $-1 $259 $258 $251 $327 forward $248 $-1 #
edge $-1 $328 48.183449829351133 $331 54.85705588295027 $326 $358 forward 7 unknown #
vertex $-1 $263 $359 #
straight-curve $-1 -0.13938783502452168 24.501031114105036 10.979122998693008 0 1 0 I I #
edge $-1 $331 -3.8907020388732469 $260 11.950881786668784 $259 $360 forward 7 unknown #
vertex $-1 $330 $361 #
straight-curve $-1 -0.13938783502452168 -15.471800758488151 44.156452168211572 0 -0.75470957328743171 0.6560590369687036 I I #
point $-1 -0.13938783502452168 22.694349739242867 10.979122998693008 #
point $-1 -15.980971660566553 30.371455141634407 4.3055169450938706 #
straight-curve $-1 0 30.371455141634407 10.979122998693006 -1 0 0 I I #
vertex $-1 $266 $362 #
point $-1 -6.0601797477955373 21.534544268344309 1.8923667655038532 #
edge $-1 $339 28.257982217792289 $342 34.931588271391419 $271 $363 forward 7 unknown #
vertex $-1 $285 $364 #
straight-curve $-1 -15.980971660566553 -47.422659064166311 10.979122998693008 0 -1 0 I I #
edge $-1 $342 -11.950881786668784 $282 3.8907020388732469 $281 $365 forward 7 unknown #
vertex $-1 $341 $366 #
straight-curve $-1 -15.980971660566553 -30.371455141634399 4.3055169450938848 0 0.75470957328743171 0.6560590369687036 I I #
point $-1 -15.980971660566553 -22.694349739242877 10.979122998693006 #
point $-1 -0.13938783502452168 -30.371455141634407 4.3055169450938786 #
straight-curve $-1 0 -30.371455141634407 10.979122998693006 1 0 0 I I #
vertex $-1 $288 $367 #
point $-1 -6.0601797477955373 -21.534544268344305 1.8923667655038532 #
straight-curve $-1 -49.137241737113555 30.371455141634407 0 0 0 -1 I I #
point $-1 -49.137241737113555 -30.371455141634407 -10.979122998693006 #
straight-curve $-1 -49.137241737113555 0 -10.979122998693006 0 1 0 I I #
point $-1 -49.137241737113555 30.371455141634407 -10.979122998693006 #
straight-curve $-1 -49.137241737113555 0 -2.4643978516553195 0 -1 0 I I #
point $-1 -49.137241737113555 -30.371455141634407 -2.4643978516553195 #
point $-1 -49.137241737113555 30.371455141634407 -2.4643978516553195 #
straight-curve $-1 -49.137241737113555 30.371455141634407 0 0 0 -1 I I #
straight-curve $-1 -49.137241737113555 -30.371455141634407 0 0 0 -1 I I #
straight-curve $-1 -0.13938783502452168 30.371455141634407 59.162572828044141 0 0 -1 I I #
point $-1 -0.13938783502452168 30.371455141634407 10.979122998693006 #
straight-curve $-1 -4.0300898738977686 30.371455141634407 4.3055169450938671 -1 0 0 I I #
point $-1 -0.13938783502452168 30.371455141634407 4.3055169450938706 #
point $-1 -8.0601797477955373 20.222426194406903 0.38294761892898965 #
straight-curve $-1 -15.980971660566553 -30.371455141634407 39.237105216485297 0 0 -1 I I #
point $-1 -15.980971660566553 -30.371455141634407 10.979122998693006 #
straight-curve $-1 -4.0300898738977686 -30.371455141634407 4.3055169450938786 1 0 0 I I #
point $-1 -15.980971660566553 -30.371455141634407 4.3055169450938786 #
point $-1 -8.0601797477955373 -20.2224261944069 0.38294761892898965 #
End-of-ACIS-data 