500 0 11 0           
7 Unknown 11 ACIS 5.0 NT 24 Thu Mar 25 20:29:46 1999 
-1 9.9999999999999995e-007 1e-010 
body $-1 $11 $-1 $12 #
body $-1 $13 $-1 $14 #
body $-1 $15 $-1 $16 #
body $-1 $17 $-1 $18 #
body $-1 $19 $-1 $20 #
body $-1 $21 $-1 $22 #
body $-1 $23 $-1 $24 #
body $-1 $25 $-1 $26 #
body $-1 $27 $-1 $28 #
body $-1 $29 $-1 $30 #
body $-1 $31 $-1 $32 #
lump $-1 $-1 $33 $0 #
transform $-1 1 0 0 0 1 0 0 0 1 67.438581499679557 44.271709191111704 12.786467307715807 1 rotate no_reflect no_shear #
lump $-1 $-1 $34 $1 #
transform $-1 1 0 0 0 1 0 0 0 1 67.438581499679557 44.271709191111704 12.786467307715807 1 rotate no_reflect no_shear #
lump $-1 $-1 $35 $2 #
transform $-1 1 0 0 0 1 0 0 0 1 67.438581499679557 44.271709191111704 12.786467307715807 1 rotate no_reflect no_shear #
lump $-1 $-1 $36 $3 #
transform $-1 1 0 0 0 1 0 0 0 1 67.438581499679557 44.271709191111704 12.786467307715807 1 rotate no_reflect no_shear #
lump $-1 $-1 $37 $4 #
transform $-1 1 0 0 0 1 0 0 0 1 67.438581499679557 44.271709191111704 12.786467307715807 1 rotate no_reflect no_shear #
lump $-1 $-1 $38 $5 #
transform $-1 1 0 0 0 1 0 0 0 1 67.438581499679557 44.271709191111704 12.786467307715807 1 rotate no_reflect no_shear #
lump $-1 $-1 $39 $6 #
transform $-1 1 0 0 0 1 0 0 0 1 67.438581499679557 44.271709191111704 12.786467307715807 1 rotate no_reflect no_shear #
lump $-1 $-1 $40 $7 #
transform $-1 1 0 0 0 1 0 0 0 1 67.438581499679557 44.271709191111704 12.786467307715807 1 rotate no_reflect no_shear #
lump $-1 $-1 $41 $8 #
transform $-1 1 0 0 0 1 0 0 0 1 67.438581499679557 44.271709191111704 12.786467307715807 1 rotate no_reflect no_shear #
lump $-1 $-1 $42 $9 #
transform $-1 1 0 0 0 1 0 0 0 1 67.438581499679557 44.271709191111704 12.786467307715807 1 rotate no_reflect no_shear #
lump $-1 $-1 $43 $10 #
transform $-1 1 0 0 0 1 0 0 0 1 67.438581499679557 44.271709191111704 12.786467307715807 1 rotate no_reflect no_shear #
shell $-1 $-1 $-1 $44 $-1 $11 #
shell $-1 $-1 $-1 $45 $-1 $13 #
shell $-1 $-1 $-1 $46 $-1 $15 #
shell $-1 $-1 $-1 $47 $-1 $17 #
shell $-1 $-1 $-1 $48 $-1 $19 #
shell $-1 $-1 $-1 $49 $-1 $21 #
shell $-1 $-1 $-1 $50 $-1 $23 #
shell $-1 $-1 $-1 $51 $-1 $25 #
shell $-1 $-1 $-1 $52 $-1 $27 #
shell $-1 $-1 $-1 $53 $-1 $29 #
shell $-1 $-1 $-1 $54 $-1 $31 #
face $-1 $55 $56 $33 $-1 $57 forward single #
face $-1 $58 $59 $34 $-1 $60 reversed single #
face $-1 $61 $62 $35 $-1 $63 reversed single #
face $-1 $64 $65 $36 $-1 $66 forward single #
face $-1 $67 $68 $37 $-1 $69 forward single #
face $-1 $70 $71 $38 $-1 $72 reversed single #
face $-1 $73 $74 $39 $-1 $75 forward single #
face $-1 $76 $77 $40 $-1 $78 forward single #
face $-1 $79 $80 $41 $-1 $81 reversed single #
face $-1 $82 $83 $42 $-1 $84 forward single #
face $-1 $85 $86 $43 $-1 $87 forward single #
face $-1 $88 $89 $33 $-1 $90 reversed single #
loop $-1 $-1 $91 $44 #
plane-surface $-1 0 0 12.786467307715807 0 0 1 1 0 0 forward_v I I I I #
face $-1 $92 $93 $34 $-1 $94 reversed single #
loop $-1 $-1 $95 $45 #
plane-surface $-1 0 -35.968368453158888 9.4835339727761383 0 0 1 1 0 0 forward_v I I I I #
face $-1 $96 $97 $35 $-1 $98 reversed single #
loop $-1 $-1 $99 $46 #
plane-surface $-1 80.744290382192801 -2.2324600914318466 198.67663341888343 0 -1 0 -0.75470958851134928 0 -0.65605901945558964 forward_v I I I I #
face $-1 $100 $101 $36 $-1 $102 forward single #
loop $-1 $103 $104 $47 #
cone-surface $-1 64.804384002525623 -8.6322921050260746 9.9602299671843468 -0.75470958851134928 0 -0.65605901945558964 0.32802950972779482 0 -0.37735479425567464 1 I I 0 1 0.5 forward I I I I #
face $-1 $105 $106 $37 $-1 $107 forward single #
loop $-1 $108 $109 $48 #
cone-surface $-1 64.804384002525623 -4.7923928968695364 9.9602299671843468 -0.75470958851134928 0 -0.65605901945558964 0.32802950972779482 0 -0.37735479425567464 1 I I 0 1 0.5 forward I I I I #
face $-1 $110 $111 $38 $-1 $112 reversed single #
loop $-1 $-1 $113 $49 #
plane-surface $-1 80.744290382192801 27.79890638636941 198.67663341888343 0 -1 0 -0.75470958851134928 0 -0.65605901945558964 forward_v I I I I #
face $-1 $114 $115 $39 $-1 $116 forward single #
loop $-1 $117 $118 $50 #
cone-surface $-1 64.804384002525623 21.399074372775182 9.9602299671843468 -0.75470958851134928 0 -0.65605901945558964 0.32802950972779482 0 -0.37735479425567464 1 I I 0 1 0.5 forward I I I I #
face $-1 $119 $120 $40 $-1 $121 forward single #
loop $-1 $122 $123 $51 #
cone-surface $-1 64.804384002525623 25.23897358093172 9.9602299671843468 -0.75470958851134928 0 -0.65605901945558964 0.32802950972779482 0 -0.37735479425567464 1 I I 0 1 0.5 forward I I I I #
face $-1 $124 $125 $41 $-1 $126 reversed single #
loop $-1 $-1 $127 $52 #
plane-surface $-1 -162.81113919029468 26.335586637271518 102.67230972620733 0 1 0 -0.70710678939079041 0 0.70710677298230451 forward_v I I I I #
face $-1 $128 $129 $42 $-1 $130 forward single #
loop $-1 $131 $132 $53 #
cone-surface $-1 -63.670063695196937 30.292641904317257 9.0179494633622888 0.70710678939079041 0 -0.70710677298230451 0.70710677298230451 0 0.70710678939079041 1 I I 0 1 1 forward I I I I #
face $-1 $133 $134 $43 $-1 $135 forward single #
loop $-1 $136 $137 $54 #
cone-surface $-1 -63.670063695196937 36.228224804885848 9.0179494633622888 0.70710678939079041 0 -0.70710677298230451 0.70710677298230451 0 0.70710678939079041 1 I I 0 1 1 forward I I I I #
face $-1 $138 $139 $33 $-1 $140 reversed single #
loop $-1 $-1 $141 $55 #
plane-surface $-1 0 0 -12.786467307715807 0 0 1 1 0 0 forward_v I I I I #
coedge $-1 $142 $143 $144 $145 forward $56 $-1 #
face $-1 $146 $147 $34 $-1 $148 reversed single #
loop $-1 $-1 $149 $58 #
plane-surface $-1 0 -27.665027715206069 11.135000640245973 0 -1 0 0 0 -1 forward_v I I I I #
coedge $-1 $150 $151 $152 $153 reversed $59 $-1 #
face $-1 $154 $155 $35 $-1 $156 reversed single #
loop $-1 $-1 $157 $61 #
plane-surface $-1 -21.048797804631718 -6.7123425009478055 110.18925411457214 0.75470958851134928 0 0.65605901945558964 0.65605901945558964 0 -0.75470958851134928 forward_v I I I I #
coedge $-1 $158 $159 $160 $161 reversed $62 $-1 #
face $-1 $-1 $162 $36 $-1 $163 forward single #
loop $-1 $164 $165 $64 #
cone-surface $-1 63.889724441864942 -8.6322921050260746 9.1651285617730913 -0.75470958851134928 0 -0.65605901945558964 0.16401475486389741 0 -0.18867739712783732 1 I I -0.70710678118654746 0.70710678118654746 0.25 forward I I I I #
loop $-1 $-1 $166 $47 #
coedge $-1 $104 $104 $167 $168 reversed $65 $-1 #
face $-1 $-1 $169 $37 $-1 $170 forward single #
loop $-1 $171 $172 $67 #
cone-surface $-1 63.889724441864942 -4.7923928968695364 9.1651285617730913 -0.75470958851134928 0 -0.65605901945558964 0.16401475486389741 0 -0.18867739712783732 1 I I -0.70710678118654746 0.70710678118654746 0.25 forward I I I I #
loop $-1 $-1 $173 $48 #
coedge $-1 $109 $109 $174 $175 reversed $68 $-1 #
face $-1 $176 $177 $38 $-1 $178 reversed single #
loop $-1 $-1 $179 $70 #
plane-surface $-1 -21.048797804631718 23.319023976853451 110.18925411457214 0.75470958851134928 0 0.65605901945558964 0.65605901945558964 0 -0.75470958851134928 forward_v I I I I #
coedge $-1 $180 $181 $182 $183 reversed $71 $-1 #
face $-1 $-1 $184 $39 $-1 $185 forward single #
loop $-1 $186 $187 $73 #
cone-surface $-1 63.889724441864942 21.399074372775182 9.1651285617730913 -0.75470958851134928 0 -0.65605901945558964 0.16401475486389741 0 -0.18867739712783732 1 I I -0.70710678118654746 0.70710678118654746 0.25 forward I I I I #
loop $-1 $-1 $188 $50 #
coedge $-1 $118 $118 $189 $190 reversed $74 $-1 #
face $-1 $-1 $191 $40 $-1 $192 forward single #
loop $-1 $193 $194 $76 #
cone-surface $-1 63.889724441864942 25.23897358093172 9.1651285617730913 -0.75470958851134928 0 -0.65605901945558964 0.16401475486389741 0 -0.18867739712783732 1 I I -0.70710678118654746 0.70710678118654746 0.25 forward I I I I #
loop $-1 $-1 $195 $51 #
coedge $-1 $123 $123 $196 $197 reversed $77 $-1 #
face $-1 $198 $199 $41 $-1 $200 reversed single #
loop $-1 $-1 $201 $79 #
plane-surface $-1 -67.438581499679543 33.260433354601538 7.2997542487222233 -0.70710678939079041 0 0.70710677298230451 0.70710677298230451 0 0.70710678939079041 forward_v I I I I #
coedge $-1 $202 $203 $204 $205 reversed $80 $-1 #
face $-1 $-1 $206 $42 $-1 $207 forward single #
loop $-1 $208 $209 $82 #
cone-surface $-1 -62.291348961855824 30.292641904317257 7.639234762014393 0.70710678939079041 0 -0.70710677298230451 0.35355338649115226 0 0.35355339469539521 1 I I -0.70710678118654746 0.70710678118654746 0.5 forward I I I I #
loop $-1 $-1 $210 $53 #
coedge $-1 $132 $132 $211 $212 reversed $83 $-1 #
face $-1 $-1 $213 $43 $-1 $214 forward single #
loop $-1 $215 $216 $85 #
cone-surface $-1 -62.291348961855824 36.228224804885848 7.639234762014393 0.70710678939079041 0 -0.70710677298230451 0.35355338649115226 0 0.35355339469539521 1 I I -0.70710678118654746 0.70710678118654746 0.5 forward I I I I #
loop $-1 $-1 $217 $54 #
coedge $-1 $137 $137 $218 $219 reversed $86 $-1 #
face $-1 $220 $221 $33 $-1 $222 reversed single #
loop $-1 $-1 $223 $88 #
plane-surface $-1 0 -44.271709191111704 0 0 1 0 0 0 1 forward_v I I I I #
coedge $-1 $224 $225 $226 $227 forward $89 $-1 #
coedge $-1 $228 $91 $229 $230 forward $56 $-1 #
coedge $-1 $91 $228 $231 $232 forward $56 $-1 #
coedge $-1 $233 $234 $91 $145 reversed $235 $-1 #
edge $-1 $236 -44.271709191111704 $237 44.271709191111704 $144 $238 forward 7 unknown #
face $-1 $239 $240 $34 $-1 $241 reversed single #
loop $-1 $-1 $242 $92 #
plane-surface $-1 -67.438581499679557 0 0 1 0 0 0 0 -1 forward_v I I I I #
coedge $-1 $243 $244 $245 $246 reversed $93 $-1 #
coedge $-1 $247 $95 $248 $249 reversed $59 $-1 #
coedge $-1 $95 $247 $243 $250 forward $59 $-1 #
coedge $-1 $245 $251 $95 $153 forward $252 $-1 #
edge $-1 $253 -26.287524964532267 $254 -9.6808434886266248 $152 $255 forward 7 unknown #
face $-1 $256 $257 $35 $-1 $258 reversed single #
loop $-1 $-1 $259 $96 #
plane-surface $-1 80.744290382192801 -11.192224910463764 198.67663341888343 0 1 0 0.75470958851134928 0 0.65605901945558964 forward_v I I I I #
coedge $-1 $260 $261 $262 $263 reversed $97 $-1 #
coedge $-1 $159 $99 $264 $265 reversed $62 $-1 #
coedge $-1 $99 $158 $260 $266 reversed $62 $-1 #
coedge $-1 $262 $267 $99 $161 forward $268 $-1 #
edge $-1 $269 -27.066436308583157 $270 -23.250005641340969 $160 $271 forward 7 unknown #
loop $-1 $-1 $167 $100 #
plane-surface $-1 -21.048797804631718 -6.7123425009478055 110.18925411457214 0.75470958851134928 0 0.65605901945558964 0.65605901945558964 0 -0.75470958851134928 forward_v I I I I #
loop $-1 $-1 $272 $64 #
coedge $-1 $165 $165 $166 $273 reversed $101 $-1 #
coedge $-1 $166 $166 $165 $273 forward $103 $-1 #
coedge $-1 $167 $167 $104 $168 forward $162 $-1 #
edge $-1 $274 0 $274 6.2831853071796004 $167 $275 forward 7 unknown #
loop $-1 $-1 $174 $105 #
plane-surface $-1 -21.048797804631718 -6.7123425009478055 110.18925411457214 0.75470958851134928 0 0.65605901945558964 0.65605901945558964 0 -0.75470958851134928 forward_v I I I I #
loop $-1 $-1 $276 $67 #
coedge $-1 $172 $172 $173 $277 reversed $106 $-1 #
coedge $-1 $173 $173 $172 $277 forward $108 $-1 #
coedge $-1 $174 $174 $109 $175 forward $169 $-1 #
edge $-1 $278 0 $278 6.2831853071796004 $174 $279 forward 7 unknown #
face $-1 $280 $281 $38 $-1 $282 reversed single #
loop $-1 $-1 $283 $110 #
plane-surface $-1 80.744290382192801 18.839141567337492 198.67663341888343 0 1 0 0.75470958851134928 0 0.65605901945558964 forward_v I I I I #
coedge $-1 $284 $285 $286 $287 reversed $111 $-1 #
coedge $-1 $181 $113 $288 $289 reversed $71 $-1 #
coedge $-1 $113 $180 $284 $290 reversed $71 $-1 #
coedge $-1 $286 $291 $113 $183 forward $292 $-1 #
edge $-1 $293 -27.066436308583157 $294 -23.250005641340969 $182 $295 forward 7 unknown #
loop $-1 $-1 $189 $114 #
plane-surface $-1 -21.048797804631718 23.319023976853451 110.18925411457214 0.75470958851134928 0 0.65605901945558964 0.65605901945558964 0 -0.75470958851134928 forward_v I I I I #
loop $-1 $-1 $296 $73 #
coedge $-1 $187 $187 $188 $297 reversed $115 $-1 #
coedge $-1 $188 $188 $187 $297 forward $117 $-1 #
coedge $-1 $189 $189 $118 $190 forward $184 $-1 #
edge $-1 $298 0 $298 6.2831853071796004 $189 $299 forward 7 unknown #
loop $-1 $-1 $196 $119 #
plane-surface $-1 -21.048797804631718 23.319023976853451 110.18925411457214 0.75470958851134928 0 0.65605901945558964 0.65605901945558964 0 -0.75470958851134928 forward_v I I I I #
loop $-1 $-1 $300 $76 #
coedge $-1 $194 $194 $195 $301 reversed $120 $-1 #
coedge $-1 $195 $195 $194 $301 forward $122 $-1 #
coedge $-1 $196 $196 $123 $197 forward $191 $-1 #
edge $-1 $302 0 $302 6.2831853071796004 $196 $303 forward 7 unknown #
face $-1 $304 $305 $41 $-1 $306 forward single #
loop $-1 $-1 $307 $124 #
plane-surface $-1 -162.81113919029468 40.185280071931558 102.67230972620733 0 -1 0 0.70710678939079041 0 -0.70710677298230451 forward_v I I I I #
coedge $-1 $308 $309 $310 $311 reversed $125 $-1 #
coedge $-1 $203 $127 $312 $313 reversed $80 $-1 #
coedge $-1 $127 $202 $308 $314 reversed $80 $-1 #
coedge $-1 $310 $315 $127 $205 forward $305 $-1 #
edge $-1 $316 13.966988095467784 $317 19.453701027141641 $204 $318 forward 7 unknown #
loop $-1 $-1 $211 $128 #
plane-surface $-1 -67.438581499679543 33.260433354601538 7.2997542487222233 -0.70710678939079041 0 0.70710677298230451 0.70710677298230451 0 0.70710678939079041 forward_v I I I I #
loop $-1 $-1 $319 $82 #
coedge $-1 $209 $209 $210 $320 reversed $129 $-1 #
coedge $-1 $210 $210 $209 $320 forward $131 $-1 #
coedge $-1 $211 $211 $132 $212 forward $206 $-1 #
edge $-1 $321 0 $321 6.2831853071796004 $211 $322 forward 7 unknown #
loop $-1 $-1 $218 $133 #
plane-surface $-1 -67.438581499679543 33.260433354601538 7.2997542487222233 -0.70710678939079041 0 0.70710677298230451 0.70710677298230451 0 0.70710678939079041 forward_v I I I I #
loop $-1 $-1 $323 $85 #
coedge $-1 $216 $216 $217 $324 reversed $134 $-1 #
coedge $-1 $217 $217 $216 $324 forward $136 $-1 #
coedge $-1 $218 $218 $137 $219 forward $213 $-1 #
edge $-1 $325 0 $325 6.2831853071796004 $218 $326 forward 7 unknown #
face $-1 $327 $328 $33 $-1 $329 reversed single #
loop $-1 $-1 $330 $138 #
plane-surface $-1 -67.438581499679557 0 0 1 0 0 0 0 -1 forward_v I I I I #
coedge $-1 $331 $231 $332 $333 forward $139 $-1 #
coedge $-1 $334 $141 $331 $335 forward $89 $-1 #
coedge $-1 $141 $334 $336 $337 forward $89 $-1 #
coedge $-1 $234 $233 $141 $227 reversed $235 $-1 #
edge $-1 $338 -44.271709191111704 $339 44.271709191111704 $226 $340 forward 7 unknown #
coedge $-1 $143 $142 $341 $342 forward $56 $-1 #
coedge $-1 $343 $344 $142 $230 reversed $328 $-1 #
edge $-1 $237 -67.438581499679557 $345 67.438581499679557 $229 $346 forward 7 unknown #
coedge $-1 $223 $347 $143 $232 reversed $139 $-1 #
edge $-1 $348 -67.438581499679557 $236 67.438581499679557 $231 $349 forward 7 unknown #
coedge $-1 $226 $144 $347 $350 forward $235 $-1 #
coedge $-1 $144 $226 $343 $351 reversed $235 $-1 #
loop $-1 $-1 $233 $327 #
vertex $-1 $145 $352 #
vertex $-1 $145 $353 #
straight-curve $-1 67.438581499679557 0 12.786467307715807 0 1 0 I I #
face $-1 $354 $355 $34 $-1 $356 forward single #
loop $-1 $-1 $248 $146 #
plane-surface $-1 0 -44.271709191111704 0 0 1 0 0 0 1 forward_v I I I I #
coedge $-1 $357 $358 $359 $360 forward $147 $-1 #
coedge $-1 $359 $149 $151 $250 reversed $93 $-1 #
coedge $-1 $149 $359 $361 $362 reversed $93 $-1 #
coedge $-1 $363 $152 $149 $246 forward $252 $-1 #
edge $-1 $254 3.9160336526531516 $364 7.2189669875928217 $245 $365 forward 7 unknown #
coedge $-1 $151 $150 $357 $366 reversed $59 $-1 #
coedge $-1 $367 $368 $150 $249 forward $240 $-1 #
edge $-1 $369 -67.438581499679557 $253 67.438581499679557 $248 $370 forward 7 unknown #
edge $-1 $371 -67.438581499679557 $254 67.438581499679557 $243 $372 forward 7 unknown #
coedge $-1 $152 $363 $367 $373 forward $252 $-1 #
loop $-1 $-1 $245 $354 #
vertex $-1 $249 $374 #
vertex $-1 $153 $375 #
straight-curve $-1 67.438581499679557 -17.984184226579444 9.4835339727761383 0 1 0 I I #
face $-1 $-1 $268 $35 $-1 $376 forward single #
loop $-1 $-1 $377 $154 #
plane-surface $-1 67.438581499679557 0 0 -1 0 0 0 0 1 forward_v I I I I #
coedge $-1 $378 $379 $380 $381 reversed $155 $-1 #
coedge $-1 $382 $157 $159 $266 forward $97 $-1 #
coedge $-1 $157 $382 $378 $383 forward $97 $-1 #
coedge $-1 $380 $160 $157 $263 forward $268 $-1 #
edge $-1 $270 -1.1237111590420561 $384 7.8360536599898616 $262 $385 forward 7 unknown #
coedge $-1 $386 $387 $158 $265 forward $257 $-1 #
edge $-1 $388 -90.942150781694068 $269 -86.551849401725903 $264 $389 forward 7 unknown #
edge $-1 $270 129.0599566900714 $388 134.87716299935914 $159 $390 forward 7 unknown #
coedge $-1 $160 $380 $386 $391 forward $268 $-1 #
loop $-1 $-1 $380 $256 #
vertex $-1 $265 $392 #
vertex $-1 $161 $393 #
straight-curve $-1 40.372145191096401 -2.2324600914318466 12.78646730771581 -1 0 0 I I #
coedge $-1 $272 $272 $-1 $394 reversed $164 $-1 #
edge $-1 $395 0 $395 6.2831853071796004 $165 $396 forward 7 unknown #
vertex $-1 $168 $397 #
ellipse-curve $-1 65.530366166058471 -8.6322921050260746 10.591316617731712 0.75470958851134928 0 0.65605901945558964 0.32802950972779482 0 -0.37735479425567464 1 I I #
coedge $-1 $276 $276 $-1 $398 reversed $171 $-1 #
edge $-1 $399 0 $399 6.2831853071796004 $172 $400 forward 7 unknown #
vertex $-1 $175 $401 #
ellipse-curve $-1 65.530366166058471 -4.7923928968695364 10.591316617731712 0.75470958851134928 0 0.65605901945558964 0.32802950972779482 0 -0.37735479425567464 1 I I #
face $-1 $-1 $292 $38 $-1 $402 forward single #
loop $-1 $-1 $403 $176 #
plane-surface $-1 67.438581499679557 0 0 -1 0 0 0 0 1 forward_v I I I I #
coedge $-1 $404 $405 $406 $407 reversed $177 $-1 #
coedge $-1 $408 $179 $181 $290 forward $111 $-1 #
coedge $-1 $179 $408 $404 $409 forward $111 $-1 #
coedge $-1 $406 $182 $179 $287 forward $292 $-1 #
edge $-1 $294 -16.139394397942684 $410 -7.1796295789107667 $286 $411 forward 7 unknown #
coedge $-1 $412 $413 $180 $289 forward $281 $-1 #
edge $-1 $414 -90.942150781694068 $293 -86.551849401725903 $288 $415 forward 7 unknown #
edge $-1 $294 129.0599566900714 $414 134.87716299935914 $181 $416 forward 7 unknown #
coedge $-1 $182 $406 $412 $417 forward $292 $-1 #
loop $-1 $-1 $406 $280 #
vertex $-1 $289 $418 #
vertex $-1 $183 $419 #
straight-curve $-1 40.372145191096401 27.79890638636941 12.78646730771581 -1 0 0 I I #
coedge $-1 $296 $296 $-1 $420 reversed $186 $-1 #
edge $-1 $421 0 $421 6.2831853071796004 $187 $422 forward 7 unknown #
vertex $-1 $190 $423 #
ellipse-curve $-1 65.530366166058471 21.399074372775182 10.591316617731712 0.75470958851134928 0 0.65605901945558964 0.32802950972779482 0 -0.37735479425567464 1 I I #
coedge $-1 $300 $300 $-1 $424 reversed $193 $-1 #
edge $-1 $425 0 $425 6.2831853071796004 $194 $426 forward 7 unknown #
vertex $-1 $197 $427 #
ellipse-curve $-1 65.530366166058471 25.23897358093172 10.591316617731712 0.75470958851134928 0 0.65605901945558964 0.32802950972779482 0 -0.37735479425567464 1 I I #
face $-1 $-1 $428 $41 $-1 $429 reversed single #
loop $-1 $-1 $204 $198 #
plane-surface $-1 0 0 12.786467307715807 0 0 1 1 0 0 forward_v I I I I #
coedge $-1 $430 $431 $432 $433 reversed $199 $-1 #
coedge $-1 $434 $201 $203 $314 forward $125 $-1 #
coedge $-1 $201 $434 $430 $435 forward $125 $-1 #
coedge $-1 $432 $204 $201 $311 forward $305 $-1 #
edge $-1 $317 9.7053699599707492 $436 23.555063394630789 $310 $437 forward 7 unknown #
coedge $-1 $438 $439 $202 $313 forward $428 $-1 #
edge $-1 $440 -44.036400614381456 $316 -38.549687555387862 $312 $441 forward 7 unknown #
edge $-1 $317 -7.7593839308496477 $440 2.0097183471152325e-014 $203 $442 forward 7 unknown #
coedge $-1 $204 $432 $438 $443 forward $305 $-1 #
vertex $-1 $313 $444 #
vertex $-1 $205 $445 #
straight-curve $-1 -81.405569595147341 26.335586637271518 12.786467307715803 1 0 0 I I #
coedge $-1 $319 $319 $-1 $446 reversed $208 $-1 #
edge $-1 $447 0 $447 6.2831853071796004 $209 $448 forward 7 unknown #
vertex $-1 $212 $449 #
ellipse-curve $-1 -64.695225033842632 30.292641904317257 10.043110778219006 -0.70710678939079041 0 0.70710677298230451 0.70710677298230451 0 0.70710678939079041 1 I I #
coedge $-1 $323 $323 $-1 $450 reversed $215 $-1 #
edge $-1 $451 0 $451 6.2831853071796004 $216 $452 forward 7 unknown #
vertex $-1 $219 $453 #
ellipse-curve $-1 -64.695225033842632 36.228224804885848 10.043110778219006 -0.70710678939079041 0 0.70710677298230451 0.70710677298230451 0 0.70710678939079041 1 I I #
face $-1 $-1 $235 $33 $-1 $454 reversed single #
loop $-1 $-1 $343 $220 #
plane-surface $-1 0 44.271709191111704 0 0 -1 0 0 0 -1 forward_v I I I I #
coedge $-1 $455 $341 $344 $456 forward $221 $-1 #
coedge $-1 $347 $223 $224 $335 reversed $139 $-1 #
coedge $-1 $341 $455 $223 $333 reversed $221 $-1 #
edge $-1 $348 -12.786467307715807 $457 12.786467307715807 $332 $458 forward 7 unknown #
coedge $-1 $225 $224 $455 $459 forward $89 $-1 #
edge $-1 $339 -67.438581499679557 $457 67.438581499679557 $331 $460 forward 7 unknown #
coedge $-1 $344 $343 $225 $337 reversed $328 $-1 #
edge $-1 $461 -67.438581499679557 $338 67.438581499679557 $336 $462 forward 7 unknown #
vertex $-1 $227 $463 #
vertex $-1 $350 $464 #
straight-curve $-1 67.438581499679557 0 -12.786467307715807 0 -1 0 I I #
coedge $-1 $330 $332 $228 $342 reversed $221 $-1 #
edge $-1 $345 -44.271709191111704 $348 44.271709191111704 $341 $465 forward 7 unknown #
coedge $-1 $336 $229 $234 $351 forward $328 $-1 #
coedge $-1 $229 $336 $330 $456 reversed $328 $-1 #
vertex $-1 $230 $466 #
straight-curve $-1 0 44.271709191111704 12.786467307715807 -1 0 0 I I #
coedge $-1 $231 $331 $233 $350 reversed $139 $-1 #
vertex $-1 $342 $467 #
straight-curve $-1 0 -44.271709191111704 12.786467307715807 1 0 0 I I #
edge $-1 $236 -12.786467307715807 $339 12.786467307715807 $233 $468 forward 7 unknown #
edge $-1 $237 -12.786467307715807 $338 12.786467307715807 $234 $469 forward 7 unknown #
point $-1 67.438581499679557 -44.271709191111704 12.786467307715807 #
point $-1 67.438581499679557 44.271709191111704 12.786467307715807 #
face $-1 $-1 $252 $34 $-1 $470 reversed single #
loop $-1 $-1 $361 $239 #
plane-surface $-1 0 0 12.786467307715807 0 0 1 1 0 0 forward_v I I I I #
coedge $-1 $471 $242 $247 $366 forward $147 $-1 #
coedge $-1 $242 $471 $472 $473 reversed $147 $-1 #
coedge $-1 $244 $243 $242 $360 reversed $93 $-1 #
edge $-1 $474 -7.2189669875928217 $371 -3.9160336526531516 $242 $475 forward 7 unknown #
coedge $-1 $472 $476 $244 $362 forward $355 $-1 #
edge $-1 $364 -67.438581499679557 $474 67.438581499679557 $361 $477 forward 7 unknown #
coedge $-1 $251 $245 $476 $478 reversed $252 $-1 #
vertex $-1 $246 $479 #
straight-curve $-1 67.438581499679557 -27.665027715206069 5.5675003201229867 0 0 1 I I #
edge $-1 $371 9.6808434886266248 $369 26.287524964532267 $357 $480 forward 7 unknown #
coedge $-1 $481 $248 $251 $373 reversed $240 $-1 #
coedge $-1 $248 $481 $471 $482 forward $240 $-1 #
vertex $-1 $249 $483 #
straight-curve $-1 0 -44.271709191111704 9.4835339727761383 1 0 0 I I #
vertex $-1 $366 $484 #
straight-curve $-1 0 -27.665027715206069 9.4835339727761383 1 0 0 I I #
edge $-1 $485 -12.786467307715807 $253 -9.4835339727761383 $251 $486 forward 7 unknown #
point $-1 67.438581499679557 -44.271709191111711 9.4835339727761383 #
point $-1 67.438581499679557 -27.665027715206069 9.4835339727761383 #
plane-surface $-1 0 0 12.786467307715807 0 0 1 1 0 0 forward_v I I I I #
coedge $-1 $387 $386 $379 $487 forward $257 $-1 #
coedge $-1 $379 $259 $261 $383 reversed $155 $-1 #
coedge $-1 $259 $378 $377 $487 reversed $155 $-1 #
coedge $-1 $267 $262 $259 $381 forward $268 $-1 #
edge $-1 $384 23.250005641340969 $488 27.066436308583157 $380 $489 forward 7 unknown #
coedge $-1 $261 $260 $387 $490 reversed $97 $-1 #
edge $-1 $491 -134.87716299935914 $384 -129.0599566900714 $378 $492 forward 7 unknown #
vertex $-1 $263 $493 #
straight-curve $-1 63.622150832437384 -3.3561712504739027 12.78646730771581 0 -1 0 I I #
coedge $-1 $377 $264 $267 $391 reversed $257 $-1 #
coedge $-1 $264 $377 $382 $490 forward $257 $-1 #
vertex $-1 $265 $494 #
straight-curve $-1 67.438581499679557 -2.2324600914318466 99.338316709441713 0 0 1 I I #
straight-curve $-1 -21.048797804631718 -2.2324600914318466 110.18925411457214 0.65605901945558964 0 -0.75470958851134928 I I #
edge $-1 $488 -11.192224910463764 $269 -2.2324600914318466 $386 $495 forward 7 unknown #
point $-1 67.438581499679557 -2.2324600914318466 12.786467307715807 #
point $-1 63.62215083243737 -2.2324600914318466 12.78646730771581 #
edge $-1 $496 1 $496 0 $272 $-1 forward 7 unknown #
vertex $-1 $273 $497 #
ellipse-curve $-1 64.078401838992775 -8.6322921050260746 9.3291433166369888 0.75470958851134928 0 0.65605901945558964 0.32802950972779482 0 -0.37735479425567464 1 I I #
point $-1 65.858395675786255 -8.6322921050260746 10.21396182347603 #
edge $-1 $498 1 $498 0 $276 $-1 forward 7 unknown #
vertex $-1 $277 $499 #
ellipse-curve $-1 64.078401838992775 -4.7923928968695364 9.3291433166369888 0.75470958851134928 0 0.65605901945558964 0.32802950972779482 0 -0.37735479425567464 1 I I #
point $-1 65.858395675786255 -4.7923928968695364 10.21396182347603 #
plane-surface $-1 0 0 12.786467307715807 0 0 1 1 0 0 forward_v I I I I #
coedge $-1 $413 $412 $405 $500 forward $281 $-1 #
coedge $-1 $405 $283 $285 $409 reversed $177 $-1 #
coedge $-1 $283 $404 $403 $500 reversed $177 $-1 #
coedge $-1 $291 $286 $283 $407 forward $292 $-1 #
edge $-1 $410 23.250005641340969 $501 27.066436308583157 $406 $502 forward 7 unknown #
coedge $-1 $285 $284 $413 $503 reversed $111 $-1 #
edge $-1 $504 -134.87716299935914 $410 -129.0599566900714 $404 $505 forward 7 unknown #
vertex $-1 $287 $506 #
straight-curve $-1 63.622150832437384 11.659511988426726 12.78646730771581 0 -1 0 I I #
coedge $-1 $403 $288 $291 $417 reversed $281 $-1 #
coedge $-1 $288 $403 $408 $503 forward $281 $-1 #
vertex $-1 $289 $507 #
straight-curve $-1 67.438581499679557 27.79890638636941 99.338316709441713 0 0 1 I I #
straight-curve $-1 -21.048797804631718 27.79890638636941 110.18925411457214 0.65605901945558964 0 -0.75470958851134928 I I #
edge $-1 $501 18.839141567337492 $293 27.79890638636941 $412 $508 forward 7 unknown #
point $-1 67.438581499679557 27.79890638636941 12.786467307715807 #
point $-1 63.62215083243737 27.79890638636941 12.78646730771581 #
edge $-1 $509 1 $509 0 $296 $-1 forward 7 unknown #
vertex $-1 $297 $510 #
ellipse-curve $-1 64.078401838992775 21.399074372775182 9.3291433166369888 0.75470958851134928 0 0.65605901945558964 0.32802950972779482 0 -0.37735479425567464 1 I I #
point $-1 65.858395675786255 21.399074372775182 10.21396182347603 #
edge $-1 $511 1 $511 0 $300 $-1 forward 7 unknown #
vertex $-1 $301 $512 #
ellipse-curve $-1 64.078401838992775 25.23897358093172 9.3291433166369888 0.75470958851134928 0 0.65605901945558964 0.32802950972779482 0 -0.37735479425567464 1 I I #
point $-1 65.858395675786255 25.23897358093172 10.21396182347603 #
loop $-1 $-1 $312 $304 #
plane-surface $-1 -67.438581499679557 0 0 1 0 0 0 0 -1 forward_v I I I I #
coedge $-1 $431 $307 $309 $435 reversed $199 $-1 #
coedge $-1 $307 $430 $513 $514 reversed $199 $-1 #
coedge $-1 $315 $310 $307 $433 forward $305 $-1 #
edge $-1 $436 -19.453701027141641 $515 -13.966988095467784 $432 $516 forward 7 unknown #
coedge $-1 $309 $308 $439 $517 reversed $125 $-1 #
edge $-1 $518 -2.0097183471152325e-014 $436 7.7593839308496477 $430 $519 forward 7 unknown #
vertex $-1 $311 $520 #
straight-curve $-1 -61.9518685680057 16.630216677300769 12.786467307715805 0 1 0 I I #
coedge $-1 $513 $312 $315 $443 reversed $428 $-1 #
coedge $-1 $312 $513 $434 $517 forward $428 $-1 #
vertex $-1 $313 $521 #
straight-curve $-1 -67.438581499679557 26.335586637271518 51.336154863103665 0 0 1 I I #
straight-curve $-1 -67.438581499679543 26.335586637271518 7.2997542487222233 -0.70710677298230451 0 -0.70710678939079041 I I #
edge $-1 $515 -40.185280071931558 $316 -26.335586637271518 $438 $522 forward 7 unknown #
point $-1 -67.438581499679557 26.335586637271518 12.786467307715807 #
point $-1 -61.9518685680057 26.335586637271518 12.786467307715807 #
edge $-1 $523 1 $523 0 $319 $-1 forward 7 unknown #
vertex $-1 $320 $524 #
ellipse-curve $-1 -62.644902356551221 30.292641904317257 7.9927881485055456 -0.70710678939079041 0 0.70710677298230451 0.70710677298230451 0 0.70710678939079041 1 I I #
point $-1 -63.988118260860347 30.292641904317257 10.75021756760982 #
edge $-1 $525 1 $525 0 $323 $-1 forward 7 unknown #
vertex $-1 $324 $526 #
ellipse-curve $-1 -62.644902356551221 36.228224804885848 7.9927881485055456 -0.70710678939079041 0 0.70710677298230451 0.70710677298230451 0 0.70710678939079041 1 I I #
point $-1 -63.988118260860347 36.228224804885848 10.75021756760982 #
plane-surface $-1 67.438581499679557 0 0 -1 0 0 0 0 1 forward_v I I I I #
coedge $-1 $332 $330 $334 $459 reversed $221 $-1 #
edge $-1 $345 -12.786467307715807 $461 12.786467307715807 $344 $527 forward 7 unknown #
vertex $-1 $459 $528 #
straight-curve $-1 -67.438581499679557 -44.271709191111704 0 0 0 -1 I I #
edge $-1 $457 -44.271709191111704 $461 44.271709191111704 $455 $529 forward 7 unknown #
straight-curve $-1 0 -44.271709191111704 -12.786467307715807 -1 0 0 I I #
vertex $-1 $337 $530 #
straight-curve $-1 0 44.271709191111704 -12.786467307715807 1 0 0 I I #
point $-1 67.438581499679557 44.271709191111704 -12.786467307715807 #
point $-1 67.438581499679557 -44.271709191111704 -12.786467307715807 #
straight-curve $-1 -67.438581499679557 0 12.786467307715807 0 -1 0 I I #
point $-1 -67.438581499679557 44.271709191111704 12.786467307715807 #
point $-1 -67.438581499679557 -44.271709191111704 12.786467307715807 #
straight-curve $-1 67.438581499679557 -44.271709191111704 0 0 0 -1 I I #
straight-curve $-1 67.438581499679557 44.271709191111704 0 0 0 -1 I I #
plane-surface $-1 67.438581499679557 0 0 -1 0 0 0 0 1 forward_v I I I I #
coedge $-1 $358 $357 $368 $482 reversed $147 $-1 #
coedge $-1 $531 $361 $358 $473 forward $355 $-1 #
edge $-1 $474 27.665027715206069 $532 44.271709191111704 $358 $533 forward 7 unknown #
vertex $-1 $473 $534 #
straight-curve $-1 -67.438581499679557 -27.665027715206069 5.5675003201229867 0 0 -1 I I #
coedge $-1 $361 $531 $363 $478 forward $355 $-1 #
straight-curve $-1 0 -27.665027715206069 12.786467307715807 -1 0 0 I I #
edge $-1 $485 -44.271709191111704 $364 -27.665027715206069 $363 $535 forward 7 unknown #
point $-1 67.438581499679557 -27.665027715206069 12.786467307715808 #
straight-curve $-1 -67.438581499679557 -17.984184226579444 9.4835339727761383 0 -1 0 I I #
coedge $-1 $368 $367 $531 $536 reversed $240 $-1 #
edge $-1 $532 -12.786467307715807 $369 -9.4835339727761383 $471 $537 forward 7 unknown #
point $-1 -67.438581499679557 -44.271709191111711 9.4835339727761383 #
point $-1 -67.438581499679557 -27.665027715206069 9.4835339727761383 #
vertex $-1 $478 $538 #
straight-curve $-1 67.438581499679557 -44.271709191111704 0 0 0 -1 I I #
edge $-1 $488 86.551849401725903 $491 90.942150781694068 $377 $539 forward 7 unknown #
vertex $-1 $391 $540 #
straight-curve $-1 40.372145191096401 -11.192224910463764 12.78646730771581 1 0 0 I I #
edge $-1 $491 -7.8360536599898616 $388 1.1237111590420561 $387 $541 forward 7 unknown #
vertex $-1 $490 $542 #
straight-curve $-1 -21.048797804631718 -11.192224910463764 110.18925411457214 -0.65605901945558964 0 0.75470958851134928 I I #
point $-1 63.62215083243737 -11.192224910463764 12.78646730771581 #
point $-1 67.438581499679557 -2.2324600914318466 8.3961659277476457 #
straight-curve $-1 67.438581499679557 0 12.786467307715807 0 1 0 I I #
vertex $-1 $394 $543 #
point $-1 64.406431348720574 -8.6322921050260746 8.9517885223813138 #
vertex $-1 $398 $544 #
point $-1 64.406431348720574 -4.7923928968695364 8.9517885223813138 #
edge $-1 $501 86.551849401725903 $504 90.942150781694068 $403 $545 forward 7 unknown #
vertex $-1 $417 $546 #
straight-curve $-1 40.372145191096401 18.839141567337492 12.78646730771581 1 0 0 I I #
edge $-1 $504 7.1796295789107667 $414 16.139394397942684 $413 $547 forward 7 unknown #
vertex $-1 $503 $548 #
straight-curve $-1 -21.048797804631718 18.839141567337492 110.18925411457214 -0.65605901945558964 0 0.75470958851134928 I I #
point $-1 63.62215083243737 18.839141567337492 12.78646730771581 #
point $-1 67.438581499679557 27.79890638636941 8.3961659277476457 #
straight-curve $-1 67.438581499679557 0 12.786467307715807 0 1 0 I I #
vertex $-1 $420 $549 #
point $-1 64.406431348720574 21.399074372775182 8.9517885223813138 #
vertex $-1 $424 $550 #
point $-1 64.406431348720574 25.23897358093172 8.9517885223813138 #
coedge $-1 $439 $438 $431 $514 forward $428 $-1 #
edge $-1 $515 38.549687555387862 $518 44.036400614381456 $513 $551 forward 7 unknown #
vertex $-1 $443 $552 #
straight-curve $-1 -81.405569595147341 40.185280071931558 12.786467307715803 -1 0 0 I I #
edge $-1 $518 -23.555063394630789 $440 -9.7053699599707492 $439 $553 forward 7 unknown #
vertex $-1 $517 $554 #
straight-curve $-1 -67.438581499679543 40.185280071931558 7.2997542487222233 0.70710677298230451 0 0.70710678939079041 I I #
point $-1 -61.9518685680057 40.185280071931558 12.786467307715807 #
point $-1 -67.438581499679557 26.335586637271518 7.2997542487222091 #
straight-curve $-1 -67.438581499679557 0 12.786467307715807 0 -1 0 I I #
vertex $-1 $446 $555 #
point $-1 -61.937795583568914 30.292641904317257 8.6998949378963353 #
vertex $-1 $450 $556 #
point $-1 -61.937795583568914 36.228224804885848 8.6998949378963353 #
straight-curve $-1 -67.438581499679557 44.271709191111704 0 0 0 -1 I I #
point $-1 -67.438581499679557 -44.271709191111704 -12.786467307715807 #
straight-curve $-1 -67.438581499679557 0 -12.786467307715807 0 1 0 I I #
point $-1 -67.438581499679557 44.271709191111704 -12.786467307715807 #
coedge $-1 $476 $472 $481 $536 forward $355 $-1 #
vertex $-1 $473 $557 #
straight-curve $-1 -67.438581499679557 0 12.786467307715807 0 -1 0 I I #
point $-1 -67.438581499679557 -27.665027715206069 12.786467307715808 #
straight-curve $-1 67.438581499679557 0 12.786467307715807 0 1 0 I I #
edge $-1 $532 -67.438581499679557 $485 67.438581499679557 $481 $558 forward 7 unknown #
straight-curve $-1 -67.438581499679557 -44.271709191111704 0 0 0 -1 I I #
point $-1 67.438581499679557 -44.271709191111704 12.786467307715807 #
straight-curve $-1 67.438581499679557 -11.192224910463764 99.338316709441713 0 0 -1 I I #
point $-1 67.438581499679557 -11.192224910463764 12.786467307715807 #
straight-curve $-1 67.438581499679557 -3.3561712504739027 8.3961659277476315 0 1 0 I I #
point $-1 67.438581499679557 -11.192224910463764 8.3961659277476457 #
point $-1 63.701047044737102 -8.6322921050260746 9.0011138069091938 #
point $-1 63.701047044737102 -4.7923928968695364 9.0011138069091938 #
straight-curve $-1 67.438581499679557 18.839141567337492 99.338316709441713 0 0 -1 I I #
point $-1 67.438581499679557 18.839141567337492 12.786467307715807 #
straight-curve $-1 67.438581499679557 11.659511988426726 8.3961659277476315 0 1 0 I I #
point $-1 67.438581499679557 18.839141567337492 8.3961659277476457 #
point $-1 63.701047044737102 21.399074372775182 9.0011138069091938 #
point $-1 63.701047044737102 25.23897358093172 9.0011138069091938 #
straight-curve $-1 -67.438581499679557 40.185280071931558 51.336154863103665 0 0 -1 I I #
point $-1 -67.438581499679557 40.185280071931558 12.786467307715807 #
straight-curve $-1 -67.438581499679557 16.630216677300769 7.2997542487221985 0 -1 0 I I #
point $-1 -67.438581499679557 40.185280071931558 7.2997542487222091 #
point $-1 -61.937795567160428 30.292641904317257 7.2856813755232404 #
point $-1 -61.937795567160428 36.228224804885848 7.2856813755232404 #
point $-1 -67.438581499679557 -44.271709191111704 12.786467307715807 #
straight-curve $-1 0 -44.271709191111704 12.786467307715807 1 0 0 I I #
End-of-ACIS-data 