500 0 7 0           
7 Unknown 11 ACIS 5.0 NT 24 Thu Mar 25 17:15:37 1999 
-1 9.9999999999999995e-007 1e-010 
body $-1 $7 $-1 $8 #
body $-1 $9 $-1 $10 #
body $-1 $11 $-1 $12 #
body $-1 $13 $-1 $14 #
body $-1 $15 $-1 $16 #
body $-1 $17 $-1 $18 #
body $-1 $19 $-1 $20 #
lump $-1 $-1 $21 $0 #
transform $-1 1 0 0 0 1 0 0 0 1 46.546830652790916 24.718388504898801 6.794445069305171 1 rotate no_reflect no_shear #
lump $-1 $-1 $22 $1 #
transform $-1 1 0 0 0 1 0 0 0 1 46.546830652790916 24.718388504898801 6.794445069305171 1 rotate no_reflect no_shear #
lump $-1 $-1 $23 $2 #
transform $-1 1 0 0 0 1 0 0 0 1 46.546830652790916 24.718388504898801 6.794445069305171 1 rotate no_reflect no_shear #
lump $-1 $-1 $24 $3 #
transform $-1 1 0 0 0 1 0 0 0 1 46.546830652790916 24.718388504898801 6.794445069305171 1 rotate no_reflect no_shear #
lump $-1 $-1 $25 $4 #
transform $-1 1 0 0 0 1 0 0 0 1 46.546830652790916 24.718388504898801 6.794445069305171 1 rotate no_reflect no_shear #
lump $-1 $-1 $26 $5 #
transform $-1 1 0 0 0 1 0 0 0 1 46.546830652790916 24.718388504898801 6.794445069305171 1 rotate no_reflect no_shear #
lump $-1 $-1 $27 $6 #
transform $-1 1 0 0 0 1 0 0 0 1 46.546830652790916 24.718388504898801 6.794445069305171 1 rotate no_reflect no_shear #
shell $-1 $-1 $-1 $28 $-1 $7 #
shell $-1 $-1 $-1 $29 $-1 $9 #
shell $-1 $-1 $-1 $30 $-1 $11 #
shell $-1 $-1 $-1 $31 $-1 $13 #
shell $-1 $-1 $-1 $32 $-1 $15 #
shell $-1 $-1 $-1 $33 $-1 $17 #
shell $-1 $-1 $-1 $34 $-1 $19 #
face $-1 $35 $36 $21 $-1 $37 forward single #
face $-1 $38 $39 $22 $-1 $40 forward single #
face $-1 $41 $42 $23 $-1 $43 reversed single #
face $-1 $44 $45 $24 $-1 $46 forward single #
face $-1 $47 $48 $25 $-1 $49 forward single #
face $-1 $50 $51 $26 $-1 $52 reversed single #
face $-1 $53 $54 $27 $-1 $55 forward single #
face $-1 $56 $57 $21 $-1 $58 reversed single #
loop $-1 $-1 $59 $28 #
plane-surface $-1 0 0 6.794445069305171 0 0 1 1 0 0 forward_v I I I I #
face $-1 $60 $61 $22 $-1 $62 reversed single #
loop $-1 $-1 $63 $29 #
plane-surface $-1 -42.070913500737149 0 -3.794445069305171 0 0 1 1 0 0 forward_v I I I I #
face $-1 $64 $65 $23 $-1 $66 reversed single #
loop $-1 $-1 $67 $30 #
plane-surface $-1 33.169956987249982 -74.050513660103647 82.298829802821942 1 0 0 0 0.52991927123019833 -0.84804809178421925 forward_v I I I I #
face $-1 $68 $69 $24 $-1 $70 forward single #
loop $-1 $71 $72 $31 #
cone-surface $-1 36.991920891690242 -21.036242597386927 3.5895664350873888 0 0.52991927123019833 -0.84804809178421925 1 0 0 1 I I 0 1 1 forward I I I I #
face $-1 $73 $74 $25 $-1 $75 forward single #
loop $-1 $76 $77 $32 #
cone-surface $-1 42.724866748350649 -21.036242597386927 3.5895664350873888 0 0.52991927123019833 -0.84804809178421925 1 0 0 1 I I 0 1 1 forward I I I I #
face $-1 $78 $79 $26 $-1 $80 reversed single #
loop $-1 $-1 $81 $33 #
plane-surface $-1 -4.1003832396954785 52.052344113929138 104.9651462156117 1 0 0 0 -0.68199836817093118 -0.7313536940579346 forward_v I I I I #
face $-1 $82 $83 $27 $-1 $84 forward single #
loop $-1 $85 $86 $34 #
cone-surface $-1 4.6508341231901795 21.708248349308644 3.8386309185882164 0 -0.68199836817093118 -0.7313536940579346 1 0 0 1 I I 0 1 1 forward I I I I #
face $-1 $87 $88 $21 $-1 $89 reversed single #
loop $-1 $-1 $90 $35 #
plane-surface $-1 0 0 -6.794445069305171 0 0 1 1 0 0 forward_v I I I I #
coedge $-1 $91 $92 $93 $94 forward $36 $-1 #
face $-1 $95 $96 $22 $-1 $97 reversed single #
loop $-1 $-1 $98 $38 #
plane-surface $-1 -37.594996348683381 0 -5.294445069305171 -1 0 0 0 0 1 forward_v I I I I #
coedge $-1 $99 $100 $101 $102 forward $39 $-1 #
face $-1 $103 $104 $23 $-1 $105 forward single #
loop $-1 $-1 $106 $41 #
plane-surface $-1 39.858393820020453 -24.718388504898812 3.3509279754168659 0 -0.52991927123019833 0.84804809178421925 1 0 0 forward_v I I I I #
coedge $-1 $107 $108 $109 $110 reversed $42 $-1 #
face $-1 $-1 $111 $24 $-1 $112 forward single #
loop $-1 $113 $114 $44 #
cone-surface $-1 36.991920891690242 -19.844526657018676 1.68242230192166 0 0.52991927123019833 -0.84804809178421925 0.5 0 0 1 I I -0.70710678118654746 0.70710678118654746 0.5 forward I I I I #
loop $-1 $-1 $115 $31 #
coedge $-1 $72 $72 $116 $117 reversed $45 $-1 #
face $-1 $-1 $118 $25 $-1 $119 forward single #
loop $-1 $120 $121 $47 #
cone-surface $-1 42.724866748350649 -19.844526657018676 1.68242230192166 0 0.52991927123019833 -0.84804809178421925 0.5 0 0 1 I I -0.70710678118654746 0.70710678118654746 0.5 forward I I I I #
loop $-1 $-1 $122 $32 #
coedge $-1 $77 $77 $123 $124 reversed $48 $-1 #
face $-1 $125 $126 $26 $-1 $127 reversed single #
loop $-1 $-1 $128 $50 #
plane-surface $-1 4.6508341231901795 -11.437380983535029 36.880753126396215 0 0.68199836817093118 0.7313536940579346 1 0 0 forward_v I I I I #
coedge $-1 $129 $130 $131 $132 reversed $51 $-1 #
face $-1 $-1 $133 $27 $-1 $134 forward single #
loop $-1 $135 $136 $53 #
cone-surface $-1 4.6508341231901795 20.303186432132367 2.331886516452867 0 -0.68199836817093118 -0.7313536940579346 0.5 0 0 1 I I -0.70710678118654746 0.70710678118654746 0.5 forward I I I I #
loop $-1 $-1 $137 $34 #
coedge $-1 $86 $86 $138 $139 reversed $54 $-1 #
face $-1 $140 $141 $21 $-1 $142 reversed single #
loop $-1 $-1 $143 $56 #
plane-surface $-1 0 -24.718388504898801 0 0 1 0 0 0 1 forward_v I I I I #
coedge $-1 $144 $145 $146 $147 forward $57 $-1 #
coedge $-1 $148 $59 $149 $150 forward $36 $-1 #
coedge $-1 $59 $148 $151 $152 forward $36 $-1 #
coedge $-1 $153 $154 $59 $94 reversed $155 $-1 #
edge $-1 $156 -24.718388504898801 $157 24.718388504898801 $93 $158 forward 7 unknown #
face $-1 $159 $160 $22 $-1 $161 reversed single #
loop $-1 $-1 $162 $60 #
plane-surface $-1 0 0 -6.794445069305171 0 0 1 1 0 0 forward_v I I I I #
coedge $-1 $163 $101 $164 $165 reversed $61 $-1 #
coedge $-1 $166 $63 $167 $168 reversed $39 $-1 #
coedge $-1 $63 $166 $169 $170 reversed $39 $-1 #
coedge $-1 $98 $171 $63 $102 reversed $61 $-1 #
edge $-1 $172 -24.718388504898801 $173 24.718388504898801 $101 $174 forward 7 unknown #
face $-1 $175 $176 $23 $-1 $177 reversed single #
loop $-1 $-1 $178 $64 #
plane-surface $-1 0 0 6.794445069305171 0 0 1 1 0 0 forward_v I I I I #
coedge $-1 $179 $180 $181 $182 reversed $65 $-1 #
coedge $-1 $108 $67 $183 $184 reversed $42 $-1 #
coedge $-1 $67 $107 $179 $185 reversed $42 $-1 #
coedge $-1 $181 $186 $67 $110 forward $176 $-1 #
edge $-1 $187 34.354969832105802 $188 37.798486925994098 $109 $189 forward 7 unknown #
loop $-1 $-1 $116 $68 #
plane-surface $-1 39.858393820020453 -24.718388504898812 3.3509279754168659 0 -0.52991927123019833 0.84804809178421925 1 0 0 forward_v I I I I #
loop $-1 $-1 $190 $44 #
coedge $-1 $114 $114 $115 $191 reversed $69 $-1 #
coedge $-1 $115 $115 $114 $191 forward $71 $-1 #
coedge $-1 $116 $116 $72 $117 forward $111 $-1 #
edge $-1 $192 -1.3159667716899759e-015 $192 6.2831853071795996 $116 $193 forward 7 unknown #
loop $-1 $-1 $123 $73 #
plane-surface $-1 39.858393820020453 -24.718388504898812 3.3509279754168659 0 -0.52991927123019833 0.84804809178421925 1 0 0 forward_v I I I I #
loop $-1 $-1 $194 $47 #
coedge $-1 $121 $121 $122 $195 reversed $74 $-1 #
coedge $-1 $122 $122 $121 $195 forward $76 $-1 #
coedge $-1 $123 $123 $77 $124 forward $118 $-1 #
edge $-1 $196 -1.3159667716899759e-015 $196 6.2831853071795996 $123 $197 forward 7 unknown #
face $-1 $198 $199 $26 $-1 $200 reversed single #
loop $-1 $-1 $201 $78 #
plane-surface $-1 13.402051486075838 52.052344113929138 104.9651462156117 -1 0 0 0 0.68199836817093118 0.7313536940579346 forward_v I I I I #
coedge $-1 $202 $203 $204 $205 reversed $79 $-1 #
coedge $-1 $130 $81 $206 $207 reversed $51 $-1 #
coedge $-1 $81 $129 $202 $208 reversed $51 $-1 #
coedge $-1 $204 $209 $81 $132 forward $210 $-1 #
edge $-1 $211 1.3077835520657679 $212 5.1999383970644359 $131 $213 forward 7 unknown #
loop $-1 $-1 $138 $82 #
plane-surface $-1 4.6508341231901795 -11.437380983535029 36.880753126396215 0 0.68199836817093118 0.7313536940579346 1 0 0 forward_v I I I I #
loop $-1 $-1 $214 $53 #
coedge $-1 $136 $136 $137 $215 reversed $83 $-1 #
coedge $-1 $137 $137 $136 $215 forward $85 $-1 #
coedge $-1 $138 $138 $86 $139 forward $133 $-1 #
edge $-1 $216 -2.7099047412194486e-016 $216 6.2831853071796004 $138 $217 forward 7 unknown #
face $-1 $218 $219 $21 $-1 $220 reversed single #
loop $-1 $-1 $221 $87 #
plane-surface $-1 -46.546830652790916 0 0 1 0 0 0 0 -1 forward_v I I I I #
coedge $-1 $222 $151 $223 $224 forward $88 $-1 #
coedge $-1 $225 $90 $222 $226 forward $57 $-1 #
coedge $-1 $90 $225 $227 $228 forward $57 $-1 #
coedge $-1 $154 $153 $90 $147 reversed $155 $-1 #
edge $-1 $229 -24.718388504898801 $230 24.718388504898801 $146 $231 forward 7 unknown #
coedge $-1 $92 $91 $232 $233 forward $36 $-1 #
coedge $-1 $234 $235 $91 $150 reversed $219 $-1 #
edge $-1 $157 -46.546830652790916 $236 46.546830652790916 $149 $237 forward 7 unknown #
coedge $-1 $143 $238 $92 $152 reversed $88 $-1 #
edge $-1 $239 -46.546830652790916 $156 46.546830652790916 $151 $240 forward 7 unknown #
coedge $-1 $146 $93 $238 $241 forward $155 $-1 #
coedge $-1 $93 $146 $234 $242 reversed $155 $-1 #
loop $-1 $-1 $153 $218 #
vertex $-1 $94 $243 #
vertex $-1 $94 $244 #
straight-curve $-1 46.546830652790916 0 6.794445069305171 0 1 0 I I #
face $-1 $245 $246 $22 $-1 $247 reversed single #
loop $-1 $-1 $164 $95 #
plane-surface $-1 0 -24.718388504898801 0 0 1 0 0 0 1 forward_v I I I I #
coedge $-1 $248 $249 $163 $250 forward $96 $-1 #
coedge $-1 $171 $98 $162 $250 reversed $61 $-1 #
coedge $-1 $169 $251 $98 $165 forward $160 $-1 #
edge $-1 $252 -4.1472225346525855 $172 -1.1472225346525855 $164 $253 forward 7 unknown #
coedge $-1 $100 $99 $254 $255 reversed $39 $-1 #
coedge $-1 $256 $257 $99 $168 forward $258 $-1 #
edge $-1 $259 -25.511373902422342 $173 -16.559539598314807 $167 $260 forward 7 unknown #
coedge $-1 $261 $164 $100 $170 forward $160 $-1 #
edge $-1 $172 16.559539598314807 $262 25.511373902422342 $169 $263 forward 7 unknown #
coedge $-1 $101 $163 $256 $264 reversed $61 $-1 #
vertex $-1 $170 $265 #
vertex $-1 $168 $266 #
straight-curve $-1 -37.594996348683381 0 -3.794445069305171 0 1 0 I I #
face $-1 $-1 $267 $23 $-1 $268 reversed single #
loop $-1 $-1 $181 $103 #
plane-surface $-1 0 -24.718388504898801 0 0 1 0 0 0 1 forward_v I I I I #
coedge $-1 $183 $269 $270 $271 forward $104 $-1 #
coedge $-1 $270 $106 $108 $185 forward $65 $-1 #
coedge $-1 $106 $270 $272 $273 reversed $65 $-1 #
coedge $-1 $274 $109 $106 $182 forward $176 $-1 #
edge $-1 $188 13.240760077239756 $275 26.617633742780697 $181 $276 forward 7 unknown #
coedge $-1 $277 $178 $107 $184 forward $104 $-1 #
edge $-1 $278 -17.817647530670421 $187 -12.306868325153022 $183 $279 forward 7 unknown #
edge $-1 $188 1.2568587624561472e-014 $278 6.4981918583452156 $108 $280 forward 7 unknown #
coedge $-1 $109 $274 $277 $281 reversed $176 $-1 #
vertex $-1 $281 $282 #
vertex $-1 $110 $283 #
straight-curve $-1 33.169956987249982 -24.718388504898801 41.149414901410971 0 0 -1 I I #
coedge $-1 $190 $190 $-1 $284 reversed $113 $-1 #
edge $-1 $285 0 $285 6.2831853071796004 $114 $286 forward 7 unknown #
vertex $-1 $117 $287 #
ellipse-curve $-1 36.991920891690242 -21.96299890214009 5.0726865223610282 0 -0.52991927123019833 0.84804809178421925 1 0 0 1 I I #
coedge $-1 $194 $194 $-1 $288 reversed $120 $-1 #
edge $-1 $289 0 $289 6.2831853071796004 $121 $290 forward 7 unknown #
vertex $-1 $124 $291 #
ellipse-curve $-1 42.724866748350649 -21.96299890214009 5.0726865223610282 0 -0.52991927123019833 0.84804809178421925 1 0 0 1 I I #
face $-1 $-1 $210 $26 $-1 $292 forward single #
loop $-1 $-1 $293 $125 #
plane-surface $-1 0 24.718388504898801 0 0 -1 0 0 0 -1 forward_v I I I I #
coedge $-1 $294 $295 $296 $297 reversed $126 $-1 #
coedge $-1 $298 $128 $130 $208 forward $79 $-1 #
coedge $-1 $128 $298 $294 $299 forward $79 $-1 #
coedge $-1 $296 $131 $128 $205 forward $210 $-1 #
edge $-1 $212 -6.4258003012905682 $300 11.076634424480748 $204 $301 forward 7 unknown #
coedge $-1 $302 $303 $129 $207 forward $199 $-1 #
edge $-1 $304 -49.317621229721787 $211 -45.688128038500679 $206 $305 forward 7 unknown #
edge $-1 $212 44.11492675236201 $304 49.436777009797581 $130 $306 forward 7 unknown #
coedge $-1 $131 $296 $302 $307 forward $210 $-1 #
loop $-1 $-1 $296 $198 #
vertex $-1 $207 $308 #
vertex $-1 $132 $309 #
straight-curve $-1 -4.1003832396954785 26.026172056964569 6.7944450693051692 0 -1 0 I I #
coedge $-1 $214 $214 $-1 $310 reversed $135 $-1 #
edge $-1 $311 0 $311 6.2831853071796004 $136 $312 forward 7 unknown #
vertex $-1 $139 $313 #
ellipse-curve $-1 4.6508341231901795 22.772311082399472 4.9796984736946177 0 0.68199836817093118 0.7313536940579346 1 0 0 1 I I #
face $-1 $-1 $155 $21 $-1 $314 reversed single #
loop $-1 $-1 $234 $140 #
plane-surface $-1 0 24.718388504898801 0 0 -1 0 0 0 -1 forward_v I I I I #
coedge $-1 $315 $232 $235 $316 forward $141 $-1 #
coedge $-1 $238 $143 $144 $226 reversed $88 $-1 #
coedge $-1 $232 $315 $143 $224 reversed $141 $-1 #
edge $-1 $239 -6.794445069305171 $317 6.794445069305171 $223 $318 forward 7 unknown #
coedge $-1 $145 $144 $315 $319 forward $57 $-1 #
edge $-1 $230 -46.546830652790916 $317 46.546830652790916 $222 $320 forward 7 unknown #
coedge $-1 $235 $234 $145 $228 reversed $219 $-1 #
edge $-1 $321 -46.546830652790916 $229 46.546830652790916 $227 $322 forward 7 unknown #
vertex $-1 $147 $323 #
vertex $-1 $241 $324 #
straight-curve $-1 46.546830652790916 0 -6.794445069305171 0 -1 0 I I #
coedge $-1 $221 $223 $148 $233 reversed $141 $-1 #
edge $-1 $236 -24.718388504898801 $239 24.718388504898801 $232 $325 forward 7 unknown #
coedge $-1 $227 $149 $154 $242 forward $219 $-1 #
coedge $-1 $149 $227 $221 $316 reversed $219 $-1 #
vertex $-1 $150 $326 #
straight-curve $-1 0 24.718388504898801 6.794445069305171 -1 0 0 I I #
coedge $-1 $151 $222 $153 $241 reversed $88 $-1 #
vertex $-1 $233 $327 #
straight-curve $-1 0 -24.718388504898801 6.794445069305171 1 0 0 I I #
edge $-1 $156 -6.794445069305171 $230 6.794445069305171 $153 $328 forward 7 unknown #
edge $-1 $157 -6.794445069305171 $229 6.794445069305171 $154 $329 forward 7 unknown #
point $-1 46.546830652790916 -24.718388504898801 6.794445069305171 #
point $-1 46.546830652790916 24.718388504898801 6.794445069305171 #
face $-1 $-1 $258 $22 $-1 $330 reversed single #
loop $-1 $-1 $254 $159 #
plane-surface $-1 -46.546830652790916 0 0 1 0 0 0 0 -1 forward_v I I I I #
coedge $-1 $331 $162 $251 $332 forward $96 $-1 #
coedge $-1 $162 $331 $333 $334 forward $96 $-1 #
edge $-1 $335 -24.718388504898801 $252 24.718388504898801 $162 $336 forward 7 unknown #
coedge $-1 $164 $261 $248 $332 reversed $160 $-1 #
vertex $-1 $332 $337 #
straight-curve $-1 -37.594996348683381 -24.718388504898801 -2.6472225346525855 0 0 1 I I #
coedge $-1 $338 $339 $166 $255 forward $246 $-1 #
edge $-1 $262 -24.718388504898801 $259 24.718388504898801 $254 $340 forward 7 unknown #
coedge $-1 $333 $167 $171 $264 forward $258 $-1 #
coedge $-1 $167 $333 $338 $341 reversed $258 $-1 #
loop $-1 $-1 $256 $245 #
vertex $-1 $341 $342 #
straight-curve $-1 -21.035456750368574 24.718388504898801 -3.794445069305171 1 0 0 I I #
coedge $-1 $251 $169 $339 $343 forward $160 $-1 #
vertex $-1 $343 $344 #
straight-curve $-1 -21.035456750368574 -24.718388504898801 -3.794445069305171 -1 0 0 I I #
edge $-1 $173 1.1472225346525855 $335 4.1472225346525855 $256 $345 forward 7 unknown #
point $-1 -37.594996348683381 -24.718388504898801 -3.794445069305171 #
point $-1 -37.594996348683381 24.718388504898801 -3.794445069305171 #
loop $-1 $-1 $272 $175 #
plane-surface $-1 46.546830652790916 0 0 -1 0 0 0 0 1 forward_v I I I I #
coedge $-1 $178 $277 $346 $347 forward $104 $-1 #
coedge $-1 $180 $179 $178 $271 reversed $65 $-1 #
edge $-1 $348 -26.617633742780697 $278 -13.240760077239756 $178 $349 forward 7 unknown #
coedge $-1 $346 $350 $180 $273 forward $267 $-1 #
edge $-1 $275 -9.5933304464412998 $348 -3.095138588096098 $272 $351 forward 7 unknown #
coedge $-1 $186 $181 $350 $352 reversed $176 $-1 #
vertex $-1 $182 $353 #
straight-curve $-1 19.929196910010226 -24.718388504898801 3.350927975416873 1 0 0 I I #
coedge $-1 $269 $183 $186 $281 forward $104 $-1 #
vertex $-1 $184 $354 #
straight-curve $-1 33.169956987249982 -37.025256830051823 6.7944450693051692 0 -1 0 I I #
straight-curve $-1 33.169956987249982 -24.718388504898812 3.3509279754168659 0 0.84804809178421925 0.52991927123019833 I I #
edge $-1 $187 33.169956987249982 $355 46.546830652790916 $186 $356 forward 7 unknown #
point $-1 33.169956987249982 -24.718388504898801 6.794445069305171 #
point $-1 33.169956987249982 -24.718388504898801 3.3509279754168726 #
edge $-1 $357 1 $357 0 $190 $-1 forward 7 unknown #
vertex $-1 $191 $358 #
ellipse-curve $-1 36.991920891690242 -20.109486292633775 2.1064463478137698 0 -0.52991927123019833 0.84804809178421925 1 0 0 1 I I #
point $-1 37.991920891690242 -21.962998902140079 5.0726865223610087 #
edge $-1 $359 1 $359 0 $194 $-1 forward 7 unknown #
vertex $-1 $195 $360 #
ellipse-curve $-1 42.724866748350649 -20.109486292633775 2.1064463478137698 0 -0.52991927123019833 0.84804809178421925 1 0 0 1 I I #
point $-1 43.724866748350649 -21.962998902140079 5.0726865223610087 #
plane-surface $-1 0 0 6.794445069305171 0 0 1 1 0 0 forward_v I I I I #
coedge $-1 $303 $302 $295 $361 forward $199 $-1 #
coedge $-1 $295 $201 $203 $299 reversed $126 $-1 #
coedge $-1 $201 $294 $293 $361 reversed $126 $-1 #
coedge $-1 $209 $204 $201 $297 forward $210 $-1 #
edge $-1 $300 -5.1999383970644359 $362 -1.3077835520657679 $296 $363 forward 7 unknown #
coedge $-1 $203 $202 $303 $364 reversed $79 $-1 #
edge $-1 $365 -49.436777009797581 $300 -44.11492675236201 $294 $366 forward 7 unknown #
vertex $-1 $205 $367 #
straight-curve $-1 2.3254170615950898 20.826233659900126 6.7944450693051692 1 0 0 I I #
coedge $-1 $293 $206 $209 $307 reversed $199 $-1 #
coedge $-1 $206 $293 $298 $364 forward $199 $-1 #
vertex $-1 $207 $368 #
straight-curve $-1 -4.1003832396954785 24.718388504898801 52.482573107805848 0 0 1 I I #
straight-curve $-1 -4.1003832396954785 -11.437380983535029 36.880753126396215 0 0.7313536940579346 -0.68199836817093118 I I #
edge $-1 $362 -13.402051486075838 $211 4.1003832396954785 $302 $369 forward 7 unknown #
point $-1 -4.1003832396954785 24.718388504898801 6.794445069305171 #
point $-1 -4.1003832396954785 20.826233659900133 6.7944450693051692 #
edge $-1 $370 1 $370 0 $214 $-1 forward 7 unknown #
vertex $-1 $215 $371 #
ellipse-curve $-1 4.6508341231901795 20.644185616217833 2.6975633634818346 0 0.68199836817093118 0.7313536940579346 1 0 0 1 I I #
point $-1 5.6508341231901795 22.772311082399455 4.9796984736945991 #
plane-surface $-1 46.546830652790916 0 0 -1 0 0 0 0 1 forward_v I I I I #
coedge $-1 $223 $221 $225 $319 reversed $141 $-1 #
edge $-1 $236 -6.794445069305171 $321 6.794445069305171 $235 $372 forward 7 unknown #
vertex $-1 $319 $373 #
straight-curve $-1 -46.546830652790916 -24.718388504898801 0 0 0 -1 I I #
edge $-1 $317 -24.718388504898801 $321 24.718388504898801 $315 $374 forward 7 unknown #
straight-curve $-1 0 -24.718388504898801 -6.794445069305171 -1 0 0 I I #
vertex $-1 $228 $375 #
straight-curve $-1 0 24.718388504898801 -6.794445069305171 1 0 0 I I #
point $-1 46.546830652790916 24.718388504898801 -6.794445069305171 #
point $-1 46.546830652790916 -24.718388504898801 -6.794445069305171 #
straight-curve $-1 -46.546830652790916 0 6.794445069305171 0 -1 0 I I #
point $-1 -46.546830652790916 24.718388504898801 6.794445069305171 #
point $-1 -46.546830652790916 -24.718388504898801 6.794445069305171 #
straight-curve $-1 46.546830652790916 -24.718388504898801 0 0 0 -1 I I #
straight-curve $-1 46.546830652790916 24.718388504898801 0 0 0 -1 I I #
plane-surface $-1 0 24.718388504898801 0 0 -1 0 0 0 -1 forward_v I I I I #
coedge $-1 $249 $248 $376 $377 forward $96 $-1 #
edge $-1 $252 37.594996348683381 $378 46.546830652790916 $251 $379 forward 7 unknown #
coedge $-1 $257 $256 $249 $334 reversed $258 $-1 #
edge $-1 $380 -46.546830652790916 $335 -37.594996348683381 $333 $381 forward 7 unknown #
vertex $-1 $264 $382 #
straight-curve $-1 -37.594996348683381 0 -6.794445069305171 0 -1 0 I I #
point $-1 -37.594996348683381 -24.718388504898801 -6.794445069305171 #
coedge $-1 $376 $254 $257 $341 forward $246 $-1 #
coedge $-1 $254 $376 $261 $343 reversed $246 $-1 #
straight-curve $-1 -46.546830652790916 0 -3.794445069305171 0 1 0 I I #
edge $-1 $259 3.794445069305171 $380 6.794445069305171 $257 $383 forward 7 unknown #
point $-1 -46.546830652790916 24.718388504898801 -3.794445069305171 #
edge $-1 $262 3.794445069305171 $378 6.794445069305171 $339 $384 forward 7 unknown #
point $-1 -46.546830652790916 -24.718388504898801 -3.794445069305171 #
straight-curve $-1 -37.594996348683381 24.718388504898801 -2.6472225346525855 0 0 -1 I I #
coedge $-1 $350 $272 $269 $347 reversed $267 $-1 #
edge $-1 $355 -24.718388504898801 $348 -19.207609299381403 $346 $385 forward 7 unknown #
vertex $-1 $271 $386 #
straight-curve $-1 19.929196910010226 -19.207609299381403 6.794445069305171 -1 0 0 I I #
coedge $-1 $272 $346 $274 $352 forward $267 $-1 #
straight-curve $-1 46.546830652790916 -16.582782925938805 8.4346186542655204 0 0.84804809178421925 0.52991927123019833 I I #
edge $-1 $355 -6.794445069305171 $275 -3.3509279754168726 $350 $387 forward 7 unknown #
point $-1 46.546830652790923 -24.718388504898801 3.3509279754168726 #
point $-1 33.169956987249982 -19.207609299381403 6.794445069305171 #
vertex $-1 $347 $388 #
straight-curve $-1 0 -24.718388504898801 6.794445069305171 1 0 0 I I #
vertex $-1 $284 $389 #
point $-1 37.991920891690242 -20.109486292633775 2.1064463478137698 #
vertex $-1 $288 $390 #
point $-1 43.724866748350649 -20.109486292633775 2.1064463478137698 #
edge $-1 $362 45.688128038500679 $365 49.317621229721787 $293 $391 forward 7 unknown #
vertex $-1 $307 $392 #
straight-curve $-1 13.402051486075838 26.026172056964569 6.7944450693051692 0 1 0 I I #
edge $-1 $365 -11.076634424480748 $304 6.4258003012905682 $303 $393 forward 7 unknown #
vertex $-1 $364 $394 #
straight-curve $-1 13.402051486075838 -11.437380983535029 36.880753126396215 0 -0.7313536940579346 0.68199836817093118 I I #
point $-1 13.402051486075838 20.826233659900133 6.7944450693051692 #
point $-1 -4.1003832396954785 24.718388504898805 3.1649518780840609 #
straight-curve $-1 0 24.718388504898801 6.794445069305171 -1 0 0 I I #
vertex $-1 $310 $395 #
point $-1 5.6508341231901795 20.644185616217833 2.6975633634818346 #
straight-curve $-1 -46.546830652790916 24.718388504898801 0 0 0 -1 I I #
point $-1 -46.546830652790916 -24.718388504898801 -6.794445069305171 #
straight-curve $-1 -46.546830652790916 0 -6.794445069305171 0 1 0 I I #
point $-1 -46.546830652790916 24.718388504898801 -6.794445069305171 #
coedge $-1 $339 $338 $331 $377 reversed $246 $-1 #
edge $-1 $378 -24.718388504898801 $380 24.718388504898801 $376 $396 forward 7 unknown #
vertex $-1 $377 $397 #
straight-curve $-1 0 -24.718388504898801 -6.794445069305171 -1 0 0 I I #
vertex $-1 $334 $398 #
straight-curve $-1 0 24.718388504898801 -6.794445069305171 1 0 0 I I #
point $-1 -37.594996348683381 24.718388504898801 -6.794445069305171 #
straight-curve $-1 -46.546830652790916 24.718388504898801 0 0 0 -1 I I #
straight-curve $-1 -46.546830652790916 -24.718388504898801 0 0 0 -1 I I #
straight-curve $-1 46.546830652790916 0 6.794445069305171 0 1 0 I I #
point $-1 46.546830652790923 -19.207609299381403 6.794445069305171 #
straight-curve $-1 46.546830652790916 -24.718388504898801 0 0 0 -1 I I #
point $-1 46.546830652790916 -24.718388504898801 6.794445069305171 #
point $-1 36.991920891690242 -19.579567021403577 1.2583982560295504 #
point $-1 42.724866748350649 -19.579567021403577 1.2583982560295504 #
straight-curve $-1 13.402051486075838 24.718388504898801 52.482573107805848 0 0 -1 I I #
point $-1 13.402051486075838 24.718388504898801 6.794445069305171 #
straight-curve $-1 2.3254170615950898 24.718388504898801 3.1649518780840609 -1 0 0 I I #
point $-1 13.402051486075838 24.718388504898805 3.1649518780840609 #
point $-1 4.6508341231901795 19.962187248046902 1.9662096694238997 #
straight-curve $-1 -46.546830652790916 0 -6.794445069305171 0 1 0 I I #
point $-1 -46.546830652790916 -24.718388504898801 -6.794445069305171 #
point $-1 -46.546830652790916 24.718388504898801 -6.794445069305171 #
End-of-ACIS-data 