500 0 9 0           
7 Unknown 11 ACIS 5.0 NT 24 Thu Mar 25 18:40:08 1999 
-1 9.9999999999999995e-007 1e-010 
body $-1 $9 $-1 $10 #
body $-1 $11 $-1 $12 #
body $-1 $13 $-1 $14 #
body $-1 $15 $-1 $16 #
body $-1 $17 $-1 $18 #
body $-1 $19 $-1 $20 #
body $-1 $21 $-1 $22 #
body $-1 $23 $-1 $24 #
body $-1 $25 $-1 $26 #
lump $-1 $-1 $27 $0 #
transform $-1 1 0 0 0 1 0 0 0 1 59.357280190435503 36.312880863107154 10.860506987470629 1 rotate no_reflect no_shear #
lump $-1 $-1 $28 $1 #
transform $-1 1 0 0 0 1 0 0 0 1 59.357280190435503 36.312880863107154 10.860506987470629 1 rotate no_reflect no_shear #
lump $-1 $-1 $29 $2 #
transform $-1 1 0 0 0 1 0 0 0 1 59.357280190435503 36.312880863107154 10.860506987470629 1 rotate no_reflect no_shear #
lump $-1 $-1 $30 $3 #
transform $-1 1 0 0 0 1 0 0 0 1 59.357280190435503 36.312880863107154 10.860506987470629 1 rotate no_reflect no_shear #
lump $-1 $-1 $31 $4 #
transform $-1 1 0 0 0 1 0 0 0 1 59.357280190435503 36.312880863107154 10.860506987470629 1 rotate no_reflect no_shear #
lump $-1 $-1 $32 $5 #
transform $-1 1 0 0 0 1 0 0 0 1 59.357280190435503 36.312880863107154 10.860506987470629 1 rotate no_reflect no_shear #
lump $-1 $-1 $33 $6 #
transform $-1 1 0 0 0 1 0 0 0 1 59.357280190435503 36.312880863107154 10.860506987470629 1 rotate no_reflect no_shear #
lump $-1 $-1 $34 $7 #
transform $-1 1 0 0 0 1 0 0 0 1 59.357280190435503 36.312880863107154 10.860506987470629 1 rotate no_reflect no_shear #
lump $-1 $-1 $35 $8 #
transform $-1 1 0 0 0 1 0 0 0 1 59.357280190435503 36.312880863107154 10.860506987470629 1 rotate no_reflect no_shear #
shell $-1 $-1 $-1 $36 $-1 $9 #
shell $-1 $-1 $-1 $37 $-1 $11 #
shell $-1 $-1 $-1 $38 $-1 $13 #
shell $-1 $-1 $-1 $39 $-1 $15 #
shell $-1 $-1 $-1 $40 $-1 $17 #
shell $-1 $-1 $-1 $41 $-1 $19 #
shell $-1 $-1 $-1 $42 $-1 $21 #
shell $-1 $-1 $-1 $43 $-1 $23 #
shell $-1 $-1 $-1 $44 $-1 $25 #
face $-1 $45 $46 $27 $-1 $47 forward single #
face $-1 $48 $49 $28 $-1 $50 forward single #
face $-1 $51 $52 $29 $-1 $53 reversed single #
face $-1 $54 $55 $30 $-1 $56 forward single #
face $-1 $57 $58 $31 $-1 $59 reversed single #
face $-1 $60 $61 $32 $-1 $62 forward single #
face $-1 $63 $64 $33 $-1 $65 reversed single #
face $-1 $66 $67 $34 $-1 $68 forward single #
face $-1 $69 $70 $35 $-1 $71 forward single #
face $-1 $72 $73 $27 $-1 $74 reversed single #
loop $-1 $-1 $75 $36 #
plane-surface $-1 0 0 10.860506987470629 0 0 1 1 0 0 forward_v I I I I #
face $-1 $76 $77 $28 $-1 $78 reversed single #
loop $-1 $-1 $79 $37 #
plane-surface $-1 -52.401428241324986 0 -7.8605069874706288 0 0 1 1 0 0 forward_v I I I I #
face $-1 $80 $81 $29 $-1 $82 reversed single #
loop $-1 $-1 $83 $38 #
plane-surface $-1 -34.752874094261315 -139.12270687030428 64.825113182479967 1 0 0 0 0.86602541151947299 -0.49999998660252726 forward_v I I I I #
face $-1 $84 $85 $30 $-1 $86 forward single #
loop $-1 $87 $88 $39 #
cone-surface $-1 -22.933007270840029 -32.65539727995435 6.951300399085123 0 0.86602541151947299 -0.49999998660252726 1.5 0 0 1 I I 0 1 1.5 forward I I I I #
face $-1 $89 $90 $31 $-1 $91 reversed single #
loop $-1 $-1 $92 $40 #
plane-surface $-1 17.648554147063681 -139.12270687030428 64.825113182479967 1 0 0 0 0.86602541151947299 -0.49999998660252726 forward_v I I I I #
face $-1 $93 $94 $32 $-1 $95 forward single #
loop $-1 $96 $97 $41 #
cone-surface $-1 29.468420970484956 -32.65539727995435 6.951300399085123 0 0.86602541151947299 -0.49999998660252726 1.5 0 0 1 I I 0 1 1.5 forward I I I I #
face $-1 $98 $99 $33 $-1 $100 reversed single #
loop $-1 $-1 $101 $42 #
plane-surface $-1 18.266384935568048 47.336074509136225 143.1360458297313 1 0 0 0 -0.5877852598018023 -0.80901698891910034 forward_v I I I I #
face $-1 $102 $103 $34 $-1 $104 forward single #
loop $-1 $105 $106 $43 #
cone-surface $-1 27.114604685344688 30.068182293437957 5.1521400205270798 0 -0.5877852598018023 -0.80901698891910034 2.5 0 0 1 I I 0 1 2.5 forward I I I I #
face $-1 $107 $108 $35 $-1 $109 forward single #
loop $-1 $110 $111 $44 #
cone-surface $-1 40.386934310009636 30.068182293437957 5.1521400205270798 0 -0.5877852598018023 -0.80901698891910034 2.5 0 0 1 I I 0 1 2.5 forward I I I I #
face $-1 $112 $113 $27 $-1 $114 reversed single #
loop $-1 $-1 $115 $45 #
plane-surface $-1 0 0 -10.860506987470629 0 0 1 1 0 0 forward_v I I I I #
coedge $-1 $116 $117 $118 $119 forward $46 $-1 #
face $-1 $120 $121 $28 $-1 $122 reversed single #
loop $-1 $-1 $123 $48 #
plane-surface $-1 -45.445576292214469 0 -9.3605069874706288 -1 0 0 0 0 1 forward_v I I I I #
coedge $-1 $124 $125 $126 $127 forward $49 $-1 #
face $-1 $128 $129 $29 $-1 $130 reversed single #
loop $-1 $-1 $131 $51 #
plane-surface $-1 -22.933007270840037 -36.312880863107154 5.4678345825195507 0 -0.86602541151947299 0.49999998660252726 1 0 0 forward_v I I I I #
coedge $-1 $132 $133 $134 $135 reversed $52 $-1 #
face $-1 $-1 $136 $30 $-1 $137 forward single #
loop $-1 $138 $139 $54 #
cone-surface $-1 -22.933007270840029 -29.905125014870254 5.363430023223259 0 0.86602541151947299 -0.49999998660252726 0.75 0 0 1 I I -0.70710678118654757 0.70710678118654757 0.75 forward I I I I #
loop $-1 $-1 $140 $39 #
coedge $-1 $88 $88 $141 $142 reversed $55 $-1 #
face $-1 $143 $144 $31 $-1 $145 reversed single #
loop $-1 $-1 $146 $57 #
plane-surface $-1 29.468420970484956 -36.312880863107154 5.4678345825195507 0 -0.86602541151947299 0.49999998660252726 1 0 0 forward_v I I I I #
coedge $-1 $147 $148 $149 $150 reversed $58 $-1 #
face $-1 $-1 $151 $32 $-1 $152 forward single #
loop $-1 $153 $154 $60 #
cone-surface $-1 29.468420970484956 -29.905125014870254 5.363430023223259 0 0.86602541151947299 -0.49999998660252726 0.75 0 0 1 I I -0.70710678118654757 0.70710678118654757 0.75 forward I I I I #
loop $-1 $-1 $155 $41 #
coedge $-1 $97 $97 $156 $157 reversed $61 $-1 #
face $-1 $158 $159 $33 $-1 $160 reversed single #
loop $-1 $-1 $161 $63 #
plane-surface $-1 33.750769497677155 -22.442594206590783 47.093949649544314 0 0.5877852598018023 0.80901698891910034 1 0 0 forward_v I I I I #
coedge $-1 $162 $163 $164 $165 reversed $64 $-1 #
face $-1 $-1 $166 $34 $-1 $167 forward single #
loop $-1 $168 $169 $66 #
cone-surface $-1 27.114604685344688 27.53096247233924 1.6599565986711369 0 -0.5877852598018023 -0.80901698891910034 1.25 0 0 1 I I -0.70710678118654746 0.70710678118654746 1.25 forward I I I I #
loop $-1 $-1 $170 $43 #
coedge $-1 $106 $106 $171 $172 reversed $67 $-1 #
face $-1 $-1 $173 $35 $-1 $174 forward single #
loop $-1 $175 $176 $69 #
cone-surface $-1 40.386934310009636 27.53096247233924 1.6599565986711369 0 -0.5877852598018023 -0.80901698891910034 1.25 0 0 1 I I -0.70710678118654746 0.70710678118654746 1.25 forward I I I I #
loop $-1 $-1 $177 $44 #
coedge $-1 $111 $111 $178 $179 reversed $70 $-1 #
face $-1 $180 $181 $27 $-1 $182 reversed single #
loop $-1 $-1 $183 $72 #
plane-surface $-1 0 -36.312880863107154 0 0 1 0 0 0 1 forward_v I I I I #
coedge $-1 $184 $185 $186 $187 forward $73 $-1 #
coedge $-1 $188 $75 $189 $190 forward $46 $-1 #
coedge $-1 $75 $188 $191 $192 forward $46 $-1 #
coedge $-1 $193 $194 $75 $119 reversed $195 $-1 #
edge $-1 $196 -36.312880863107154 $197 36.312880863107154 $118 $198 forward 7 unknown #
face $-1 $199 $200 $28 $-1 $201 reversed single #
loop $-1 $-1 $202 $76 #
plane-surface $-1 0 0 -10.860506987470629 0 0 1 1 0 0 forward_v I I I I #
coedge $-1 $203 $126 $204 $205 reversed $77 $-1 #
coedge $-1 $206 $79 $207 $208 reversed $49 $-1 #
coedge $-1 $79 $206 $209 $210 reversed $49 $-1 #
coedge $-1 $123 $211 $79 $127 reversed $77 $-1 #
edge $-1 $212 -36.312880863107154 $213 36.312880863107154 $126 $214 forward 7 unknown #
face $-1 $215 $216 $29 $-1 $217 forward single #
loop $-1 $-1 $218 $80 #
plane-surface $-1 -11.113140447418761 -139.12270687030428 64.825113182479967 -1 0 0 0 -0.86602541151947299 0.49999998660252726 forward_v I I I I #
coedge $-1 $219 $220 $221 $222 reversed $81 $-1 #
coedge $-1 $133 $83 $223 $224 reversed $52 $-1 #
coedge $-1 $83 $132 $219 $225 reversed $52 $-1 #
coedge $-1 $221 $226 $83 $135 forward $227 $-1 #
edge $-1 $228 21.552049603769355 $229 26.944722008720433 $134 $230 forward 7 unknown #
loop $-1 $-1 $141 $84 #
plane-surface $-1 -22.933007270840037 -36.312880863107154 5.4678345825195507 0 -0.86602541151947299 0.49999998660252726 1 0 0 forward_v I I I I #
loop $-1 $-1 $231 $54 #
coedge $-1 $139 $139 $140 $232 reversed $85 $-1 #
coedge $-1 $140 $140 $139 $232 forward $87 $-1 #
coedge $-1 $141 $141 $88 $142 forward $136 $-1 #
edge $-1 $233 0 $233 6.2831853071796004 $141 $234 forward 7 unknown #
face $-1 $235 $236 $31 $-1 $237 reversed single #
loop $-1 $-1 $238 $89 #
plane-surface $-1 41.288287793906235 -139.12270687030428 64.825113182479967 -1 0 0 0 -0.86602541151947299 0.49999998660252726 forward_v I I I I #
coedge $-1 $239 $240 $241 $242 reversed $90 $-1 #
coedge $-1 $148 $92 $243 $244 reversed $58 $-1 #
coedge $-1 $92 $147 $239 $245 reversed $58 $-1 #
coedge $-1 $241 $246 $92 $150 forward $236 $-1 #
edge $-1 $247 21.552049603769355 $248 26.944722008720433 $149 $249 forward 7 unknown #
loop $-1 $-1 $156 $93 #
plane-surface $-1 29.468420970484956 -36.312880863107154 5.4678345825195507 0 -0.86602541151947299 0.49999998660252726 1 0 0 forward_v I I I I #
loop $-1 $-1 $250 $60 #
coedge $-1 $154 $154 $155 $251 reversed $94 $-1 #
coedge $-1 $155 $155 $154 $251 forward $96 $-1 #
coedge $-1 $156 $156 $97 $157 forward $151 $-1 #
edge $-1 $252 0 $252 6.2831853071796004 $156 $253 forward 7 unknown #
face $-1 $254 $255 $33 $-1 $256 reversed single #
loop $-1 $-1 $257 $98 #
plane-surface $-1 49.235154059786261 47.336074509136225 143.1360458297313 -1 0 0 0 0.5877852598018023 0.80901698891910034 forward_v I I I I #
coedge $-1 $258 $259 $260 $261 reversed $99 $-1 #
coedge $-1 $163 $101 $262 $263 reversed $64 $-1 #
coedge $-1 $101 $162 $258 $264 reversed $64 $-1 #
coedge $-1 $260 $265 $101 $165 forward $266 $-1 #
edge $-1 $267 -12.644843608539041 $268 -3.7604229618935818 $164 $269 forward 7 unknown #
loop $-1 $-1 $171 $102 #
plane-surface $-1 33.750769497677155 -22.442594206590783 47.093949649544314 0 0.5877852598018023 0.80901698891910034 1 0 0 forward_v I I I I #
loop $-1 $-1 $270 $66 #
coedge $-1 $169 $169 $170 $271 reversed $103 $-1 #
coedge $-1 $170 $170 $169 $271 forward $105 $-1 #
coedge $-1 $171 $171 $106 $172 forward $166 $-1 #
edge $-1 $272 1.0556592281836782e-016 $272 6.2831853071796004 $171 $273 forward 7 unknown #
loop $-1 $-1 $178 $107 #
plane-surface $-1 33.750769497677155 -22.442594206590783 47.093949649544314 0 0.5877852598018023 0.80901698891910034 1 0 0 forward_v I I I I #
loop $-1 $-1 $274 $69 #
coedge $-1 $176 $176 $177 $275 reversed $108 $-1 #
coedge $-1 $177 $177 $176 $275 forward $110 $-1 #
coedge $-1 $178 $178 $111 $179 forward $173 $-1 #
edge $-1 $276 1.0556592281836782e-016 $276 6.2831853071796004 $178 $277 forward 7 unknown #
face $-1 $278 $279 $27 $-1 $280 reversed single #
loop $-1 $-1 $281 $112 #
plane-surface $-1 -59.357280190435503 0 0 1 0 0 0 0 -1 forward_v I I I I #
coedge $-1 $282 $191 $283 $284 forward $113 $-1 #
coedge $-1 $285 $115 $282 $286 forward $73 $-1 #
coedge $-1 $115 $285 $287 $288 forward $73 $-1 #
coedge $-1 $194 $193 $115 $187 reversed $195 $-1 #
edge $-1 $289 -36.312880863107154 $290 36.312880863107154 $186 $291 forward 7 unknown #
coedge $-1 $117 $116 $292 $293 forward $46 $-1 #
coedge $-1 $294 $295 $116 $190 reversed $279 $-1 #
edge $-1 $197 -59.357280190435503 $296 59.357280190435503 $189 $297 forward 7 unknown #
coedge $-1 $183 $298 $117 $192 reversed $113 $-1 #
edge $-1 $299 -59.357280190435503 $196 59.357280190435503 $191 $300 forward 7 unknown #
coedge $-1 $186 $118 $298 $301 forward $195 $-1 #
coedge $-1 $118 $186 $294 $302 reversed $195 $-1 #
loop $-1 $-1 $193 $278 #
vertex $-1 $119 $303 #
vertex $-1 $119 $304 #
straight-curve $-1 59.357280190435503 0 10.860506987470629 0 1 0 I I #
face $-1 $305 $306 $28 $-1 $307 reversed single #
loop $-1 $-1 $204 $120 #
plane-surface $-1 0 -36.312880863107154 0 0 1 0 0 0 1 forward_v I I I I #
coedge $-1 $308 $309 $203 $310 forward $121 $-1 #
coedge $-1 $211 $123 $202 $310 reversed $77 $-1 #
coedge $-1 $209 $311 $123 $205 forward $200 $-1 #
edge $-1 $312 -6.1802534937353144 $212 -3.1802534937353144 $204 $313 forward 7 unknown #
coedge $-1 $125 $124 $314 $315 reversed $49 $-1 #
coedge $-1 $316 $317 $124 $208 forward $318 $-1 #
edge $-1 $319 -33.156566069773007 $213 -19.244862171551976 $207 $320 forward 7 unknown #
coedge $-1 $321 $204 $125 $210 forward $200 $-1 #
edge $-1 $212 19.244862171551976 $322 33.156566069773007 $209 $323 forward 7 unknown #
coedge $-1 $126 $203 $316 $324 reversed $77 $-1 #
vertex $-1 $210 $325 #
vertex $-1 $208 $326 #
straight-curve $-1 -45.445576292214469 0 -7.8605069874706288 0 1 0 I I #
face $-1 $-1 $227 $29 $-1 $327 reversed single #
loop $-1 $-1 $328 $128 #
plane-surface $-1 0 0 10.860506987470629 0 0 1 1 0 0 forward_v I I I I #
coedge $-1 $329 $330 $331 $332 reversed $129 $-1 #
coedge $-1 $333 $131 $133 $225 forward $81 $-1 #
coedge $-1 $131 $333 $329 $334 forward $81 $-1 #
coedge $-1 $331 $134 $131 $222 forward $227 $-1 #
edge $-1 $229 -23.286370458841297 $335 0.3533631880012571 $221 $336 forward 7 unknown #
coedge $-1 $337 $338 $132 $224 forward $216 $-1 #
edge $-1 $339 -36.361933325461607 $228 -33.248472572044989 $223 $340 forward 7 unknown #
edge $-1 $229 0 $339 6.2269216736832673 $133 $341 forward 7 unknown #
coedge $-1 $134 $331 $337 $342 reversed $227 $-1 #
loop $-1 $-1 $331 $215 #
vertex $-1 $342 $343 #
vertex $-1 $135 $344 #
straight-curve $-1 -34.752874094261315 -36.312880863107154 32.412556591239984 0 0 -1 I I #
coedge $-1 $231 $231 $-1 $345 reversed $138 $-1 #
edge $-1 $346 0 $346 6.2831853071796004 $139 $347 forward 7 unknown #
vertex $-1 $142 $348 #
ellipse-curve $-1 -22.933007270840029 -34.756150486398845 8.1641707849950915 0 -0.86602541151947299 0.49999998660252726 1.5 0 0 1 I I #
face $-1 $-1 $349 $31 $-1 $350 forward single #
loop $-1 $-1 $149 $143 #
plane-surface $-1 0 -36.312880863107154 0 0 1 0 0 0 1 forward_v I I I I #
coedge $-1 $351 $352 $353 $354 reversed $144 $-1 #
coedge $-1 $355 $146 $148 $245 forward $90 $-1 #
coedge $-1 $146 $355 $351 $356 forward $90 $-1 #
coedge $-1 $353 $149 $146 $242 forward $236 $-1 #
edge $-1 $248 2.9143436618212029 $357 26.554077308663757 $241 $358 forward 7 unknown #
coedge $-1 $359 $360 $147 $244 forward $349 $-1 #
edge $-1 $361 -36.361933325461607 $247 -33.248472572044989 $243 $362 forward 7 unknown #
edge $-1 $248 0 $361 6.2269216736832673 $148 $363 forward 7 unknown #
coedge $-1 $149 $353 $359 $364 reversed $236 $-1 #
vertex $-1 $364 $365 #
vertex $-1 $150 $366 #
straight-curve $-1 17.648554147063681 -36.312880863107154 32.412556591239984 0 0 -1 I I #
coedge $-1 $250 $250 $-1 $367 reversed $153 $-1 #
edge $-1 $368 0 $368 6.2831853071796004 $154 $369 forward 7 unknown #
vertex $-1 $157 $370 #
ellipse-curve $-1 29.468420970484956 -34.756150486398845 8.1641707849950915 0 -0.86602541151947299 0.49999998660252726 1.5 0 0 1 I I #
face $-1 $-1 $266 $33 $-1 $371 forward single #
loop $-1 $-1 $372 $158 #
plane-surface $-1 0 36.312880863107154 0 0 -1 0 0 0 -1 forward_v I I I I #
coedge $-1 $373 $374 $375 $376 reversed $159 $-1 #
coedge $-1 $377 $161 $163 $264 forward $99 $-1 #
coedge $-1 $161 $377 $373 $378 forward $99 $-1 #
coedge $-1 $375 $164 $161 $261 forward $266 $-1 #
edge $-1 $268 1.391000186729471 $379 32.359769310947684 $260 $380 forward 7 unknown #
coedge $-1 $381 $382 $162 $263 forward $255 $-1 #
edge $-1 $383 -67.162425489868014 $267 -60.707515927395022 $262 $384 forward 7 unknown #
edge $-1 $268 61.644013792199182 $383 72.625761726214307 $163 $385 forward 7 unknown #
coedge $-1 $164 $375 $381 $386 forward $266 $-1 #
loop $-1 $-1 $375 $254 #
vertex $-1 $263 $387 #
vertex $-1 $165 $388 #
straight-curve $-1 18.266384935568048 23.668037254568112 10.860506987470629 0 -1 0 I I #
coedge $-1 $270 $270 $-1 $389 reversed $168 $-1 #
edge $-1 $390 0 $390 6.2831853071796004 $169 $391 forward 7 unknown #
vertex $-1 $172 $392 #
ellipse-curve $-1 27.114604685344688 31.870670539784417 7.6330522062341437 0 0.5877852598018023 0.80901698891910034 2.5 0 0 1 I I #
coedge $-1 $274 $274 $-1 $393 reversed $175 $-1 #
edge $-1 $394 0 $394 6.2831853071796004 $176 $395 forward 7 unknown #
vertex $-1 $179 $396 #
ellipse-curve $-1 40.386934310009636 31.870670539784417 7.6330522062341437 0 0.5877852598018023 0.80901698891910034 2.5 0 0 1 I I #
face $-1 $-1 $195 $27 $-1 $397 reversed single #
loop $-1 $-1 $294 $180 #
plane-surface $-1 0 36.312880863107154 0 0 -1 0 0 0 -1 forward_v I I I I #
coedge $-1 $398 $292 $295 $399 forward $181 $-1 #
coedge $-1 $298 $183 $184 $286 reversed $113 $-1 #
coedge $-1 $292 $398 $183 $284 reversed $181 $-1 #
edge $-1 $299 -10.860506987470629 $400 10.860506987470629 $283 $401 forward 7 unknown #
coedge $-1 $185 $184 $398 $402 forward $73 $-1 #
edge $-1 $290 -59.357280190435503 $400 59.357280190435503 $282 $403 forward 7 unknown #
coedge $-1 $295 $294 $185 $288 reversed $279 $-1 #
edge $-1 $404 -59.357280190435503 $289 59.357280190435503 $287 $405 forward 7 unknown #
vertex $-1 $187 $406 #
vertex $-1 $301 $407 #
straight-curve $-1 59.357280190435503 0 -10.860506987470629 0 -1 0 I I #
coedge $-1 $281 $283 $188 $293 reversed $181 $-1 #
edge $-1 $296 -36.312880863107154 $299 36.312880863107154 $292 $408 forward 7 unknown #
coedge $-1 $287 $189 $194 $302 forward $279 $-1 #
coedge $-1 $189 $287 $281 $399 reversed $279 $-1 #
vertex $-1 $190 $409 #
straight-curve $-1 0 36.312880863107154 10.860506987470629 -1 0 0 I I #
coedge $-1 $191 $282 $193 $301 reversed $113 $-1 #
vertex $-1 $293 $410 #
straight-curve $-1 0 -36.312880863107154 10.860506987470629 1 0 0 I I #
edge $-1 $196 -10.860506987470629 $290 10.860506987470629 $193 $411 forward 7 unknown #
edge $-1 $197 -10.860506987470629 $289 10.860506987470629 $194 $412 forward 7 unknown #
point $-1 59.357280190435503 -36.312880863107154 10.860506987470629 #
point $-1 59.357280190435503 36.312880863107154 10.860506987470629 #
face $-1 $-1 $318 $28 $-1 $413 reversed single #
loop $-1 $-1 $314 $199 #
plane-surface $-1 -59.357280190435503 0 0 1 0 0 0 0 -1 forward_v I I I I #
coedge $-1 $414 $202 $311 $415 forward $121 $-1 #
coedge $-1 $202 $414 $416 $417 forward $121 $-1 #
edge $-1 $418 -36.312880863107154 $312 36.312880863107154 $202 $419 forward 7 unknown #
coedge $-1 $204 $321 $308 $415 reversed $200 $-1 #
vertex $-1 $415 $420 #
straight-curve $-1 -45.445576292214469 -36.312880863107154 -4.6802534937353144 0 0 1 I I #
coedge $-1 $421 $422 $206 $315 forward $306 $-1 #
edge $-1 $322 -36.312880863107154 $319 36.312880863107154 $314 $423 forward 7 unknown #
coedge $-1 $416 $207 $211 $324 forward $318 $-1 #
coedge $-1 $207 $416 $421 $424 reversed $318 $-1 #
loop $-1 $-1 $316 $305 #
vertex $-1 $424 $425 #
straight-curve $-1 -26.200714120662493 36.312880863107154 -7.8605069874706288 1 0 0 I I #
coedge $-1 $311 $209 $422 $426 forward $200 $-1 #
vertex $-1 $426 $427 #
straight-curve $-1 -26.200714120662493 -36.312880863107154 -7.8605069874706288 -1 0 0 I I #
edge $-1 $213 3.1802534937353144 $418 6.1802534937353144 $316 $428 forward 7 unknown #
point $-1 -45.445576292214469 -36.312880863107154 -7.8605069874706288 #
point $-1 -45.445576292214469 36.312880863107154 -7.8605069874706288 #
plane-surface $-1 0 -36.312880863107154 0 0 1 0 0 0 1 forward_v I I I I #
coedge $-1 $338 $337 $330 $429 forward $216 $-1 #
coedge $-1 $330 $218 $220 $334 reversed $129 $-1 #
coedge $-1 $218 $329 $328 $429 reversed $129 $-1 #
coedge $-1 $226 $221 $218 $332 forward $227 $-1 #
edge $-1 $335 -26.944722008720433 $430 -21.552049603769355 $331 $431 forward 7 unknown #
coedge $-1 $220 $219 $338 $432 reversed $81 $-1 #
edge $-1 $433 -6.2269216736832673 $335 0 $329 $434 forward 7 unknown #
vertex $-1 $222 $435 #
straight-curve $-1 -11.466503635420018 -36.312880863107154 5.4678345825195516 1 0 0 I I #
coedge $-1 $328 $223 $226 $342 forward $216 $-1 #
coedge $-1 $223 $328 $333 $432 forward $216 $-1 #
vertex $-1 $224 $436 #
straight-curve $-1 -34.752874094261315 -69.561353435152142 10.860506987470629 0 -1 0 I I #
straight-curve $-1 -34.752874094261315 -36.312880863107154 5.4678345825195507 0 0.49999998660252726 0.86602541151947299 I I #
edge $-1 $228 -34.752874094261315 $430 -11.113140447418761 $226 $437 forward 7 unknown #
point $-1 -34.752874094261315 -36.312880863107154 10.860506987470629 #
point $-1 -34.752874094261315 -36.312880863107154 5.4678345825195507 #
edge $-1 $438 1 $438 0 $231 $-1 forward 7 unknown #
vertex $-1 $232 $439 #
ellipse-curve $-1 -22.933007270840029 -30.554644073509859 5.7384300131751544 0 -0.86602541151947299 0.49999998660252726 1.5 0 0 1 I I #
point $-1 -21.433007270840029 -34.756150486398845 8.1641707849950915 #
loop $-1 $-1 $243 $235 #
plane-surface $-1 0 0 10.860506987470629 0 0 1 1 0 0 forward_v I I I I #
coedge $-1 $352 $238 $240 $356 reversed $144 $-1 #
coedge $-1 $238 $351 $440 $441 reversed $144 $-1 #
coedge $-1 $246 $241 $238 $354 forward $236 $-1 #
edge $-1 $357 -26.944722008720433 $442 -21.552049603769355 $353 $443 forward 7 unknown #
coedge $-1 $240 $239 $360 $444 reversed $90 $-1 #
edge $-1 $445 -6.2269216736832673 $357 0 $351 $446 forward 7 unknown #
vertex $-1 $242 $447 #
straight-curve $-1 14.734210485242478 -36.312880863107154 5.4678345825195516 1 0 0 I I #
coedge $-1 $440 $243 $246 $364 forward $349 $-1 #
coedge $-1 $243 $440 $355 $444 forward $349 $-1 #
vertex $-1 $244 $448 #
straight-curve $-1 17.648554147063681 -69.561353435152142 10.860506987470629 0 -1 0 I I #
straight-curve $-1 17.648554147063681 -36.312880863107154 5.4678345825195507 0 0.49999998660252726 0.86602541151947299 I I #
edge $-1 $247 17.648554147063681 $442 41.288287793906235 $246 $449 forward 7 unknown #
point $-1 17.648554147063681 -36.312880863107154 10.860506987470629 #
point $-1 17.648554147063681 -36.312880863107154 5.4678345825195507 #
edge $-1 $450 1 $450 0 $250 $-1 forward 7 unknown #
vertex $-1 $251 $451 #
ellipse-curve $-1 29.468420970484956 -30.554644073509859 5.7384300131751544 0 -0.86602541151947299 0.49999998660252726 1.5 0 0 1 I I #
point $-1 30.968420970484956 -34.756150486398845 8.1641707849950915 #
plane-surface $-1 0 0 10.860506987470629 0 0 1 1 0 0 forward_v I I I I #
coedge $-1 $382 $381 $374 $452 forward $255 $-1 #
coedge $-1 $374 $257 $259 $378 reversed $159 $-1 #
coedge $-1 $257 $373 $372 $452 reversed $159 $-1 #
coedge $-1 $265 $260 $257 $376 forward $266 $-1 #
edge $-1 $379 3.7604229618935818 $453 12.644843608539041 $375 $454 forward 7 unknown #
coedge $-1 $259 $258 $382 $455 reversed $99 $-1 #
edge $-1 $456 -72.625761726214307 $379 -61.644013792199182 $373 $457 forward 7 unknown #
vertex $-1 $261 $458 #
straight-curve $-1 16.875384748838577 27.428460216461701 10.860506987470629 1 0 0 I I #
coedge $-1 $372 $262 $265 $386 reversed $255 $-1 #
coedge $-1 $262 $372 $377 $455 forward $255 $-1 #
vertex $-1 $263 $459 #
straight-curve $-1 18.266384935568048 36.312880863107154 71.568022914865651 0 0 1 I I #
straight-curve $-1 18.266384935568048 -22.442594206590783 47.093949649544314 0 0.80901698891910034 -0.5877852598018023 I I #
edge $-1 $453 -49.235154059786261 $267 -18.266384935568048 $381 $460 forward 7 unknown #
point $-1 18.266384935568048 36.312880863107154 10.860506987470629 #
point $-1 18.266384935568048 27.428460216461694 10.860506987470629 #
edge $-1 $461 1 $461 0 $270 $-1 forward 7 unknown #
vertex $-1 $271 $462 #
ellipse-curve $-1 27.114604685344688 28.265694047091493 2.6712278348200122 0 0.5877852598018023 0.80901698891910034 2.5 0 0 1 I I #
point $-1 29.614604685344688 31.87067053978442 7.6330522062341482 #
edge $-1 $463 1 $463 0 $274 $-1 forward 7 unknown #
vertex $-1 $275 $464 #
ellipse-curve $-1 40.386934310009636 28.265694047091493 2.6712278348200122 0 0.5877852598018023 0.80901698891910034 2.5 0 0 1 I I #
point $-1 42.886934310009636 31.87067053978442 7.6330522062341482 #
plane-surface $-1 59.357280190435503 0 0 -1 0 0 0 0 1 forward_v I I I I #
coedge $-1 $283 $281 $285 $402 reversed $181 $-1 #
edge $-1 $296 -10.860506987470629 $404 10.860506987470629 $295 $465 forward 7 unknown #
vertex $-1 $402 $466 #
straight-curve $-1 -59.357280190435503 -36.312880863107154 0 0 0 -1 I I #
edge $-1 $400 -36.312880863107154 $404 36.312880863107154 $398 $467 forward 7 unknown #
straight-curve $-1 0 -36.312880863107154 -10.860506987470629 -1 0 0 I I #
vertex $-1 $288 $468 #
straight-curve $-1 0 36.312880863107154 -10.860506987470629 1 0 0 I I #
point $-1 59.357280190435503 36.312880863107154 -10.860506987470629 #
point $-1 59.357280190435503 -36.312880863107154 -10.860506987470629 #
straight-curve $-1 -59.357280190435503 0 10.860506987470629 0 -1 0 I I #
point $-1 -59.357280190435503 36.312880863107154 10.860506987470629 #
point $-1 -59.357280190435503 -36.312880863107154 10.860506987470629 #
straight-curve $-1 59.357280190435503 -36.312880863107154 0 0 0 -1 I I #
straight-curve $-1 59.357280190435503 36.312880863107154 0 0 0 -1 I I #
plane-surface $-1 0 36.312880863107154 0 0 -1 0 0 0 -1 forward_v I I I I #
coedge $-1 $309 $308 $469 $470 forward $121 $-1 #
edge $-1 $312 45.445576292214469 $471 59.357280190435503 $311 $472 forward 7 unknown #
coedge $-1 $317 $316 $309 $417 reversed $318 $-1 #
edge $-1 $473 -59.357280190435503 $418 -45.445576292214469 $416 $474 forward 7 unknown #
vertex $-1 $324 $475 #
straight-curve $-1 -45.445576292214469 0 -10.860506987470629 0 -1 0 I I #
point $-1 -45.445576292214469 -36.312880863107154 -10.860506987470629 #
coedge $-1 $469 $314 $317 $424 forward $306 $-1 #
coedge $-1 $314 $469 $321 $426 reversed $306 $-1 #
straight-curve $-1 -59.357280190435503 0 -7.8605069874706288 0 1 0 I I #
edge $-1 $319 7.8605069874706288 $473 10.860506987470629 $317 $476 forward 7 unknown #
point $-1 -59.357280190435503 36.312880863107154 -7.8605069874706288 #
edge $-1 $322 7.8605069874706288 $471 10.860506987470629 $422 $477 forward 7 unknown #
point $-1 -59.357280190435503 -36.312880863107154 -7.8605069874706288 #
straight-curve $-1 -45.445576292214469 36.312880863107154 -4.6802534937353144 0 0 -1 I I #
edge $-1 $430 33.248472572044989 $433 36.361933325461607 $328 $478 forward 7 unknown #
vertex $-1 $332 $479 #
straight-curve $-1 -11.113140447418761 -36.312880863107154 32.412556591239984 0 0 1 I I #
edge $-1 $433 -0.3533631880012571 $339 23.286370458841297 $338 $480 forward 7 unknown #
vertex $-1 $432 $481 #
straight-curve $-1 -11.113140447418761 -36.312880863107154 5.4678345825195507 0 -0.49999998660252726 -0.86602541151947299 I I #
point $-1 -11.113140447418761 -36.312880863107154 5.4678345825195507 #
point $-1 -34.752874094261315 -33.199420109690536 10.860506987470629 #
straight-curve $-1 0 -36.312880863107154 10.860506987470629 1 0 0 I I #
vertex $-1 $345 $482 #
point $-1 -21.433007270840029 -30.554644073509859 5.7384300131751544 #
coedge $-1 $360 $359 $352 $441 forward $349 $-1 #
edge $-1 $442 33.248472572044989 $445 36.361933325461607 $440 $483 forward 7 unknown #
vertex $-1 $441 $484 #
straight-curve $-1 41.288287793906235 -36.312880863107154 32.412556591239984 0 0 1 I I #
edge $-1 $445 -26.554077308663757 $361 -2.9143436618212029 $360 $485 forward 7 unknown #
vertex $-1 $444 $486 #
straight-curve $-1 41.288287793906235 -36.312880863107154 5.4678345825195507 0 -0.49999998660252726 -0.86602541151947299 I I #
point $-1 41.288287793906235 -36.312880863107154 5.4678345825195507 #
point $-1 17.648554147063681 -33.199420109690536 10.860506987470629 #
straight-curve $-1 0 -36.312880863107154 10.860506987470629 1 0 0 I I #
vertex $-1 $367 $487 #
point $-1 30.968420970484956 -30.554644073509859 5.7384300131751544 #
edge $-1 $453 60.707515927395022 $456 67.162425489868014 $372 $488 forward 7 unknown #
vertex $-1 $386 $489 #
straight-curve $-1 49.235154059786261 23.668037254568112 10.860506987470629 0 1 0 I I #
edge $-1 $456 -32.359769310947684 $383 -1.391000186729471 $382 $490 forward 7 unknown #
vertex $-1 $455 $491 #
straight-curve $-1 49.235154059786261 -22.442594206590783 47.093949649544314 0 -0.80901698891910034 0.5877852598018023 I I #
point $-1 49.235154059786261 27.428460216461694 10.860506987470629 #
point $-1 18.266384935568048 36.312880863107161 4.4055974249976444 #
straight-curve $-1 0 36.312880863107154 10.860506987470629 -1 0 0 I I #
vertex $-1 $389 $492 #
point $-1 29.614604685344688 28.265694047091493 2.6712278348200122 #
vertex $-1 $393 $493 #
point $-1 42.886934310009636 28.265694047091493 2.6712278348200122 #
straight-curve $-1 -59.357280190435503 36.312880863107154 0 0 0 -1 I I #
point $-1 -59.357280190435503 -36.312880863107154 -10.860506987470629 #
straight-curve $-1 -59.357280190435503 0 -10.860506987470629 0 1 0 I I #
point $-1 -59.357280190435503 36.312880863107154 -10.860506987470629 #
coedge $-1 $422 $421 $414 $470 reversed $306 $-1 #
edge $-1 $471 -36.312880863107154 $473 36.312880863107154 $469 $494 forward 7 unknown #
vertex $-1 $470 $495 #
straight-curve $-1 0 -36.312880863107154 -10.860506987470629 -1 0 0 I I #
vertex $-1 $417 $496 #
straight-curve $-1 0 36.312880863107154 -10.860506987470629 1 0 0 I I #
point $-1 -45.445576292214469 36.312880863107154 -10.860506987470629 #
straight-curve $-1 -59.357280190435503 36.312880863107154 0 0 0 -1 I I #
straight-curve $-1 -59.357280190435503 -36.312880863107154 0 0 0 -1 I I #
straight-curve $-1 -11.113140447418761 -69.561353435152142 10.860506987470629 0 1 0 I I #
point $-1 -11.113140447418761 -36.312880863107154 10.860506987470629 #
straight-curve $-1 -11.466503635420018 -33.199420109690529 10.860506987470629 -1 0 0 I I #
point $-1 -11.113140447418761 -33.199420109690536 10.860506987470629 #
point $-1 -22.933007270840029 -29.255605956230649 4.9884300332713636 #
straight-curve $-1 41.288287793906235 -69.561353435152142 10.860506987470629 0 1 0 I I #
point $-1 41.288287793906235 -36.312880863107154 10.860506987470629 #
straight-curve $-1 14.734210485242478 -33.199420109690529 10.860506987470629 -1 0 0 I I #
point $-1 41.288287793906235 -33.199420109690536 10.860506987470629 #
point $-1 29.468420970484956 -29.255605956230649 4.9884300332713636 #
straight-curve $-1 49.235154059786261 36.312880863107154 71.568022914865651 0 0 -1 I I #
point $-1 49.235154059786261 36.312880863107154 10.860506987470629 #
straight-curve $-1 16.875384748838577 36.312880863107154 4.4055974249976479 -1 0 0 I I #
point $-1 49.235154059786261 36.312880863107161 4.4055974249976444 #
point $-1 27.114604685344688 26.796230897586987 0.6486853625222615 #
point $-1 40.386934310009636 26.796230897586987 0.6486853625222615 #
straight-curve $-1 -59.357280190435503 0 -10.860506987470629 0 1 0 I I #
point $-1 -59.357280190435503 -36.312880863107154 -10.860506987470629 #
point $-1 -59.357280190435503 36.312880863107154 -10.860506987470629 #
End-of-ACIS-data 