500 0 11 0           
7 Unknown 11 ACIS 5.0 NT 24 Fri Mar 26 14:57:03 1999 
-1 9.9999999999999995e-007 1e-010 
body $-1 $11 $-1 $12 #
body $-1 $13 $-1 $14 #
body $-1 $15 $-1 $16 #
body $-1 $17 $-1 $18 #
body $-1 $19 $-1 $20 #
body $-1 $21 $-1 $22 #
body $-1 $23 $-1 $24 #
body $-1 $25 $-1 $26 #
body $-1 $27 $-1 $28 #
body $-1 $29 $-1 $30 #
body $-1 $31 $-1 $32 #
lump $-1 $-1 $33 $0 #
transform $-1 1 0 0 0 1 0 0 0 1 70.607623523667101 30.982712257697997 8.1515537697565978 1 rotate no_reflect no_shear #
lump $-1 $-1 $34 $1 #
transform $-1 1 0 0 0 1 0 0 0 1 70.607623523667101 30.982712257697997 8.1515537697565978 1 rotate no_reflect no_shear #
lump $-1 $-1 $35 $2 #
transform $-1 1 0 0 0 1 0 0 0 1 70.607623523667101 30.982712257697997 8.1515537697565978 1 rotate no_reflect no_shear #
lump $-1 $-1 $36 $3 #
transform $-1 1 0 0 0 1 0 0 0 1 70.607623523667101 30.982712257697997 8.1515537697565978 1 rotate no_reflect no_shear #
lump $-1 $-1 $37 $4 #
transform $-1 1 0 0 0 1 0 0 0 1 70.607623523667101 30.982712257697997 8.1515537697565978 1 rotate no_reflect no_shear #
lump $-1 $-1 $38 $5 #
transform $-1 1 0 0 0 1 0 0 0 1 70.607623523667101 30.982712257697997 8.1515537697565978 1 rotate no_reflect no_shear #
lump $-1 $-1 $39 $6 #
transform $-1 1 0 0 0 1 0 0 0 1 70.607623523667101 30.982712257697997 8.1515537697565978 1 rotate no_reflect no_shear #
lump $-1 $-1 $40 $7 #
transform $-1 1 0 0 0 1 0 0 0 1 70.607623523667101 30.982712257697997 8.1515537697565978 1 rotate no_reflect no_shear #
lump $-1 $-1 $41 $8 #
transform $-1 1 0 0 0 1 0 0 0 1 70.607623523667101 30.982712257697997 8.1515537697565978 1 rotate no_reflect no_shear #
lump $-1 $-1 $42 $9 #
transform $-1 1 0 0 0 1 0 0 0 1 70.607623523667101 30.982712257697997 8.1515537697565978 1 rotate no_reflect no_shear #
lump $-1 $-1 $43 $10 #
transform $-1 1 0 0 0 1 0 0 0 1 70.607623523667101 30.982712257697997 8.1515537697565978 1 rotate no_reflect no_shear #
shell $-1 $-1 $-1 $44 $-1 $11 #
shell $-1 $-1 $-1 $45 $-1 $13 #
shell $-1 $-1 $-1 $46 $-1 $15 #
shell $-1 $-1 $-1 $47 $-1 $17 #
shell $-1 $-1 $-1 $48 $-1 $19 #
shell $-1 $-1 $-1 $49 $-1 $21 #
shell $-1 $-1 $-1 $50 $-1 $23 #
shell $-1 $-1 $-1 $51 $-1 $25 #
shell $-1 $-1 $-1 $52 $-1 $27 #
shell $-1 $-1 $-1 $53 $-1 $29 #
shell $-1 $-1 $-1 $54 $-1 $31 #
face $-1 $55 $56 $33 $-1 $57 forward single #
face $-1 $58 $59 $34 $-1 $60 forward single #
face $-1 $61 $62 $35 $-1 $63 forward single #
face $-1 $64 $65 $36 $-1 $66 reversed single #
face $-1 $67 $68 $37 $-1 $69 forward single #
face $-1 $70 $71 $38 $-1 $72 reversed single #
face $-1 $73 $74 $39 $-1 $75 forward single #
face $-1 $76 $77 $40 $-1 $78 reversed single #
face $-1 $79 $80 $41 $-1 $81 forward single #
face $-1 $82 $83 $42 $-1 $84 forward single #
face $-1 $85 $86 $43 $-1 $87 forward single #
face $-1 $88 $89 $33 $-1 $90 reversed single #
loop $-1 $-1 $91 $44 #
plane-surface $-1 0 0 8.1515537697565978 0 0 1 1 0 0 forward_v I I I I #
face $-1 $92 $93 $34 $-1 $94 reversed single #
loop $-1 $-1 $95 $45 #
plane-surface $-1 0 -26.292204181598134 5.7972118824420136 0 0 1 1 0 0 forward_v I I I I #
face $-1 $96 $97 $35 $-1 $98 reversed single #
loop $-1 $-1 $99 $46 #
plane-surface $-1 0 26.292204181598137 5.7972118824420136 0 0 1 1 0 0 forward_v I I I I #
face $-1 $100 $101 $36 $-1 $102 reversed single #
loop $-1 $-1 $103 $47 #
plane-surface $-1 53.201881392065175 -7.3038345537099687 203.8278192043262 0 1 0 0.64278761758704617 0 0.76604443648966558 forward_v I I I I #
face $-1 $104 $105 $37 $-1 $106 forward single #
loop $-1 $107 $108 $48 #
cone-surface $-1 68.040704648968841 -3.6519172768549844 5.7800547838880316 -0.64278761758704617 0 -0.76604443648966558 0.76604443648966558 0 -0.64278761758704617 1 I I 0 1 1 forward I I I I #
face $-1 $109 $110 $38 $-1 $111 reversed single #
loop $-1 $-1 $112 $49 #
plane-surface $-1 53.201881392065175 14.297861551788305 203.8278192043262 0 1 0 0.64278761758704617 0 0.76604443648966558 forward_v I I I I #
face $-1 $113 $114 $39 $-1 $115 forward single #
loop $-1 $116 $117 $50 #
cone-surface $-1 68.040704648968841 17.949778828643289 5.7800547838880316 -0.64278761758704617 0 -0.76604443648966558 0.76604443648966558 0 -0.64278761758704617 1 I I 0 1 1 forward I I I I #
face $-1 $118 $119 $40 $-1 $120 reversed single #
loop $-1 $-1 $121 $51 #
plane-surface $-1 -189.04069609774069 2.1889558894971763 81.914946014737282 0 1 0 -0.83867057594974714 0 0.54463902268945019 forward_v I I I I #
face $-1 $122 $123 $41 $-1 $124 forward single #
loop $-1 $125 $126 $52 #
cone-surface $-1 -69.051832421108386 3.7655268270246793 6.2310313736802367 0.83867057594974714 0 -0.54463902268945019 0.2723195113447251 0 0.41933528797487357 1 I I 0 1 0.5 forward I I I I #
face $-1 $127 $128 $42 $-1 $129 forward single #
loop $-1 $130 $131 $53 #
cone-surface $-1 -69.051832421108386 6.1303832333159392 6.2310313736802367 0.83867057594974714 0 -0.54463902268945019 0.2723195113447251 0 0.41933528797487357 1 I I 0 1 0.5 forward I I I I #
face $-1 $132 $133 $43 $-1 $134 forward single #
loop $-1 $135 $136 $54 #
cone-surface $-1 -69.051832421108386 8.4952396396071919 6.2310313736802367 0.83867057594974714 0 -0.54463902268945019 0.2723195113447251 0 0.41933528797487357 1 I I 0 1 0.5 forward I I I I #
face $-1 $137 $138 $33 $-1 $139 reversed single #
loop $-1 $-1 $140 $55 #
plane-surface $-1 0 0 -8.1515537697565978 0 0 1 1 0 0 forward_v I I I I #
coedge $-1 $141 $142 $143 $144 forward $56 $-1 #
face $-1 $145 $146 $34 $-1 $147 reversed single #
loop $-1 $-1 $148 $58 #
plane-surface $-1 0 -26.292204181598134 2.7972118824420136 0 0 1 1 0 0 forward_v I I I I #
coedge $-1 $149 $150 $151 $152 reversed $59 $-1 #
face $-1 $153 $154 $35 $-1 $155 reversed single #
loop $-1 $-1 $156 $61 #
plane-surface $-1 0 26.292204181598137 2.7972118824420136 0 0 1 1 0 0 forward_v I I I I #
coedge $-1 $157 $158 $159 $160 reversed $62 $-1 #
face $-1 $161 $162 $36 $-1 $163 reversed single #
loop $-1 $-1 $164 $64 #
plane-surface $-1 -37.569530824456933 -3.6519172768549844 95.65066485620217 0.64278761758704617 0 0.76604443648966558 0.76604443648966558 0 -0.64278761758704617 forward_v I I I I #
coedge $-1 $165 $166 $167 $168 reversed $65 $-1 #
face $-1 $-1 $169 $37 $-1 $170 forward single #
loop $-1 $171 $172 $67 #
cone-surface $-1 67.102280238546157 -3.6519172768549844 4.6616841448129147 -0.64278761758704617 0 -0.76604443648966558 0.38302221824483279 0 -0.32139380879352308 1 I I -0.70710678118654746 0.70710678118654746 0.5 forward I I I I #
loop $-1 $-1 $173 $48 #
coedge $-1 $108 $108 $174 $175 reversed $68 $-1 #
face $-1 $176 $177 $38 $-1 $178 reversed single #
loop $-1 $-1 $179 $70 #
plane-surface $-1 -37.569530824456933 17.949778828643289 95.65066485620217 0.64278761758704617 0 0.76604443648966558 0.76604443648966558 0 -0.64278761758704617 forward_v I I I I #
coedge $-1 $180 $181 $182 $183 reversed $71 $-1 #
face $-1 $-1 $184 $39 $-1 $185 forward single #
loop $-1 $186 $187 $73 #
cone-surface $-1 67.102280238546157 17.949778828643289 4.6616841448129147 -0.64278761758704617 0 -0.76604443648966558 0.38302221824483279 0 -0.32139380879352308 1 I I -0.70710678118654746 0.70710678118654746 0.5 forward I I I I #
loop $-1 $-1 $188 $50 #
coedge $-1 $117 $117 $189 $190 reversed $74 $-1 #
face $-1 $191 $192 $40 $-1 $193 reversed single #
loop $-1 $-1 $194 $76 #
plane-surface $-1 -70.607623523667087 6.1303832333159392 5.0036118740279107 -0.83867057594974714 0 0.54463902268945019 0.54463902268945019 0 0.83867057594974714 forward_v I I I I #
coedge $-1 $195 $196 $197 $198 reversed $77 $-1 #
face $-1 $-1 $199 $41 $-1 $200 forward single #
loop $-1 $201 $202 $79 #
cone-surface $-1 -68.308522326690209 3.7655268270246793 5.748320169795841 0.83867057594974714 0 -0.54463902268945019 0.13615975567236255 0 0.20966764398743679 1 I I -0.70710678118654746 0.70710678118654746 0.25 forward I I I I #
loop $-1 $-1 $203 $52 #
coedge $-1 $126 $126 $204 $205 reversed $80 $-1 #
face $-1 $-1 $206 $42 $-1 $207 forward single #
loop $-1 $208 $209 $82 #
cone-surface $-1 -68.308522326690209 6.1303832333159392 5.748320169795841 0.83867057594974714 0 -0.54463902268945019 0.13615975567236255 0 0.20966764398743679 1 I I -0.70710678118654746 0.70710678118654746 0.25 forward I I I I #
loop $-1 $-1 $210 $53 #
coedge $-1 $131 $131 $211 $212 reversed $83 $-1 #
face $-1 $-1 $213 $43 $-1 $214 forward single #
loop $-1 $215 $216 $85 #
cone-surface $-1 -68.308522326690209 8.4952396396071919 5.748320169795841 0.83867057594974714 0 -0.54463902268945019 0.13615975567236255 0 0.20966764398743679 1 I I -0.70710678118654746 0.70710678118654746 0.25 forward I I I I #
loop $-1 $-1 $217 $54 #
coedge $-1 $136 $136 $218 $219 reversed $86 $-1 #
face $-1 $220 $221 $33 $-1 $222 reversed single #
loop $-1 $-1 $223 $88 #
plane-surface $-1 0 -30.982712257697997 0 0 1 0 0 0 1 forward_v I I I I #
coedge $-1 $224 $225 $226 $227 forward $89 $-1 #
coedge $-1 $228 $91 $229 $230 forward $56 $-1 #
coedge $-1 $91 $228 $231 $232 forward $56 $-1 #
coedge $-1 $233 $234 $91 $144 reversed $235 $-1 #
edge $-1 $236 -30.982712257697997 $237 30.982712257697997 $143 $238 forward 7 unknown #
face $-1 $239 $240 $34 $-1 $241 reversed single #
loop $-1 $-1 $242 $92 #
plane-surface $-1 0 -21.60169610549827 4.2972118824420136 0 -1 0 0 0 -1 forward_v I I I I #
coedge $-1 $243 $244 $245 $246 reversed $93 $-1 #
coedge $-1 $247 $95 $248 $249 forward $59 $-1 #
coedge $-1 $95 $247 $250 $251 reversed $59 $-1 #
coedge $-1 $252 $253 $95 $152 forward $254 $-1 #
edge $-1 $255 8.4555940146992032 $256 17.836610166898929 $151 $257 forward 7 unknown #
face $-1 $258 $259 $35 $-1 $260 reversed single #
loop $-1 $-1 $261 $96 #
plane-surface $-1 0 21.601696105498274 4.2972118824420136 0 1 0 0 0 1 forward_v I I I I #
coedge $-1 $262 $263 $264 $265 reversed $97 $-1 #
coedge $-1 $266 $99 $267 $268 reversed $62 $-1 #
coedge $-1 $99 $266 $261 $269 forward $62 $-1 #
coedge $-1 $270 $271 $99 $160 forward $259 $-1 #
edge $-1 $272 -17.836610166898932 $273 -8.455594014699205 $159 $274 forward 7 unknown #
face $-1 $275 $276 $36 $-1 $277 forward single #
loop $-1 $-1 $278 $100 #
plane-surface $-1 53.201881392065175 0 203.8278192043262 0 -1 0 -0.64278761758704617 0 -0.76604443648966558 forward_v I I I I #
coedge $-1 $279 $280 $281 $282 reversed $101 $-1 #
coedge $-1 $166 $103 $283 $284 reversed $65 $-1 #
coedge $-1 $103 $165 $279 $285 reversed $65 $-1 #
coedge $-1 $281 $286 $103 $168 forward $287 $-1 #
edge $-1 $288 93.762355832406499 $289 97.034656962483041 $167 $290 forward 7 unknown #
loop $-1 $-1 $174 $104 #
plane-surface $-1 -37.569530824456933 -3.6519172768549844 95.65066485620217 0.64278761758704617 0 0.76604443648966558 0.76604443648966558 0 -0.64278761758704617 forward_v I I I I #
loop $-1 $-1 $291 $67 #
coedge $-1 $172 $172 $173 $292 reversed $105 $-1 #
coedge $-1 $173 $173 $172 $292 forward $107 $-1 #
coedge $-1 $174 $174 $108 $175 forward $169 $-1 #
edge $-1 $293 0 $293 6.2831853071796004 $174 $294 forward 7 unknown #
face $-1 $295 $296 $38 $-1 $297 forward single #
loop $-1 $-1 $182 $109 #
plane-surface $-1 70.607623523667101 0 0 -1 0 0 0 0 1 forward_v I I I I #
coedge $-1 $298 $299 $300 $301 reversed $110 $-1 #
coedge $-1 $181 $112 $302 $303 reversed $71 $-1 #
coedge $-1 $112 $180 $298 $304 reversed $71 $-1 #
coedge $-1 $300 $305 $112 $183 forward $177 $-1 #
edge $-1 $306 93.762355832406499 $307 97.034656962483041 $182 $308 forward 7 unknown #
loop $-1 $-1 $189 $113 #
plane-surface $-1 -37.569530824456933 17.949778828643289 95.65066485620217 0.64278761758704617 0 0.76604443648966558 0.76604443648966558 0 -0.64278761758704617 forward_v I I I I #
loop $-1 $-1 $309 $73 #
coedge $-1 $187 $187 $188 $310 reversed $114 $-1 #
coedge $-1 $188 $188 $187 $310 forward $116 $-1 #
coedge $-1 $189 $189 $117 $190 forward $184 $-1 #
edge $-1 $311 0 $311 6.2831853071796004 $189 $312 forward 7 unknown #
face $-1 $313 $314 $40 $-1 $315 reversed single #
loop $-1 $-1 $316 $118 #
plane-surface $-1 -189.04069609774069 10.071810577134702 81.914946014737282 0 -1 0 0.83867057594974714 0 -0.54463902268945019 forward_v I I I I #
coedge $-1 $317 $318 $319 $320 reversed $119 $-1 #
coedge $-1 $196 $121 $321 $322 reversed $77 $-1 #
coedge $-1 $121 $195 $317 $323 reversed $77 $-1 #
coedge $-1 $319 $324 $121 $198 forward $325 $-1 #
edge $-1 $326 23.912724525203245 $327 25.957021829459208 $197 $328 forward 7 unknown #
loop $-1 $-1 $204 $122 #
plane-surface $-1 -70.607623523667087 6.1303832333159392 5.0036118740279107 -0.83867057594974714 0 0.54463902268945019 0.54463902268945019 0 0.83867057594974714 forward_v I I I I #
loop $-1 $-1 $329 $79 #
coedge $-1 $202 $202 $203 $330 reversed $123 $-1 #
coedge $-1 $203 $203 $202 $330 forward $125 $-1 #
coedge $-1 $204 $204 $126 $205 forward $199 $-1 #
edge $-1 $331 0 $331 6.2831853071796004 $204 $332 forward 7 unknown #
loop $-1 $-1 $211 $127 #
plane-surface $-1 -70.607623523667087 6.1303832333159392 5.0036118740279107 -0.83867057594974714 0 0.54463902268945019 0.54463902268945019 0 0.83867057594974714 forward_v I I I I #
loop $-1 $-1 $333 $82 #
coedge $-1 $209 $209 $210 $334 reversed $128 $-1 #
coedge $-1 $210 $210 $209 $334 forward $130 $-1 #
coedge $-1 $211 $211 $131 $212 forward $206 $-1 #
edge $-1 $335 0 $335 6.2831853071796004 $211 $336 forward 7 unknown #
loop $-1 $-1 $218 $132 #
plane-surface $-1 -70.607623523667087 6.1303832333159392 5.0036118740279107 -0.83867057594974714 0 0.54463902268945019 0.54463902268945019 0 0.83867057594974714 forward_v I I I I #
loop $-1 $-1 $337 $85 #
coedge $-1 $216 $216 $217 $338 reversed $133 $-1 #
coedge $-1 $217 $217 $216 $338 forward $135 $-1 #
coedge $-1 $218 $218 $136 $219 forward $213 $-1 #
edge $-1 $339 0 $339 6.2831853071796004 $218 $340 forward 7 unknown #
face $-1 $341 $342 $33 $-1 $343 reversed single #
loop $-1 $-1 $344 $137 #
plane-surface $-1 -70.607623523667101 0 0 1 0 0 0 0 -1 forward_v I I I I #
coedge $-1 $345 $231 $346 $347 forward $138 $-1 #
coedge $-1 $348 $140 $345 $349 forward $89 $-1 #
coedge $-1 $140 $348 $350 $351 forward $89 $-1 #
coedge $-1 $234 $233 $140 $227 reversed $235 $-1 #
edge $-1 $352 -30.982712257697997 $353 30.982712257697997 $226 $354 forward 7 unknown #
coedge $-1 $142 $141 $355 $356 forward $56 $-1 #
coedge $-1 $357 $358 $141 $230 reversed $342 $-1 #
edge $-1 $237 -70.607623523667101 $359 70.607623523667101 $229 $360 forward 7 unknown #
coedge $-1 $223 $361 $142 $232 reversed $138 $-1 #
edge $-1 $362 -70.607623523667101 $236 70.607623523667101 $231 $363 forward 7 unknown #
coedge $-1 $226 $143 $361 $364 forward $235 $-1 #
coedge $-1 $143 $226 $357 $365 reversed $235 $-1 #
loop $-1 $-1 $233 $341 #
vertex $-1 $144 $366 #
vertex $-1 $144 $367 #
straight-curve $-1 70.607623523667101 0 8.1515537697565978 0 1 0 I I #
face $-1 $368 $369 $34 $-1 $370 reversed single #
loop $-1 $-1 $371 $145 #
plane-surface $-1 -70.607623523667101 0 0 1 0 0 0 0 -1 forward_v I I I I #
coedge $-1 $372 $248 $253 $373 reversed $146 $-1 #
coedge $-1 $374 $148 $375 $376 reversed $93 $-1 #
coedge $-1 $148 $374 $372 $377 forward $93 $-1 #
coedge $-1 $253 $252 $148 $246 forward $254 $-1 #
edge $-1 $378 -17.836610166898929 $379 -8.4555940146992032 $245 $380 forward 7 unknown #
coedge $-1 $150 $149 $371 $381 reversed $59 $-1 #
coedge $-1 $242 $382 $149 $249 reversed $146 $-1 #
edge $-1 $255 -70.607623523667101 $383 70.607623523667101 $248 $384 forward 7 unknown #
coedge $-1 $385 $386 $150 $251 forward $369 $-1 #
edge $-1 $256 -70.607623523667101 $387 70.607623523667101 $250 $388 forward 7 unknown #
coedge $-1 $245 $151 $386 $389 forward $254 $-1 #
coedge $-1 $151 $245 $242 $373 forward $254 $-1 #
loop $-1 $-1 $151 $368 #
vertex $-1 $152 $390 #
vertex $-1 $389 $391 #
straight-curve $-1 70.607623523667101 -13.146102090799067 5.7972118824420136 0 -1 0 I I #
face $-1 $392 $393 $35 $-1 $394 reversed single #
loop $-1 $-1 $159 $153 #
plane-surface $-1 70.607623523667101 0 0 -1 0 0 0 0 1 forward_v I I I I #
coedge $-1 $395 $396 $158 $269 reversed $154 $-1 #
coedge $-1 $397 $156 $398 $399 forward $97 $-1 #
coedge $-1 $156 $397 $400 $401 reversed $97 $-1 #
coedge $-1 $271 $270 $156 $265 forward $259 $-1 #
edge $-1 $402 8.455594014699205 $403 17.836610166898932 $264 $404 forward 7 unknown #
coedge $-1 $158 $157 $405 $406 reversed $62 $-1 #
coedge $-1 $407 $408 $157 $268 forward $409 $-1 #
edge $-1 $410 -70.607623523667101 $272 70.607623523667101 $267 $411 forward 7 unknown #
edge $-1 $412 -70.607623523667101 $273 70.607623523667101 $261 $413 forward 7 unknown #
coedge $-1 $264 $159 $396 $414 forward $259 $-1 #
coedge $-1 $159 $264 $407 $415 reversed $259 $-1 #
vertex $-1 $415 $416 #
vertex $-1 $160 $417 #
straight-curve $-1 70.607623523667101 13.146102090799069 5.7972118824420136 0 -1 0 I I #
face $-1 $-1 $287 $36 $-1 $418 reversed single #
loop $-1 $-1 $419 $161 #
plane-surface $-1 0 0 8.1515537697565978 0 0 1 1 0 0 forward_v I I I I #
coedge $-1 $420 $421 $422 $423 reversed $162 $-1 #
coedge $-1 $424 $164 $166 $285 forward $101 $-1 #
coedge $-1 $164 $424 $420 $425 forward $101 $-1 #
coedge $-1 $422 $167 $164 $282 forward $287 $-1 #
edge $-1 $289 -5.4778759152824765 $426 1.8259586384274922 $281 $427 forward 7 unknown #
coedge $-1 $428 $429 $165 $284 forward $276 $-1 #
edge $-1 $430 40.106906281496386 $288 44.006682827634513 $283 $431 forward 7 unknown #
edge $-1 $289 -141.2152470473342 $430 -136.1244502731829 $166 $432 forward 7 unknown #
coedge $-1 $167 $422 $428 $433 reversed $287 $-1 #
loop $-1 $-1 $422 $275 #
vertex $-1 $433 $434 #
vertex $-1 $168 $435 #
straight-curve $-1 70.607623523667101 -7.3038345537099687 101.9139096021631 0 0 -1 I I #
coedge $-1 $291 $291 $-1 $436 reversed $171 $-1 #
edge $-1 $437 0 $437 6.2831853071796004 $172 $438 forward 7 unknown #
vertex $-1 $175 $439 #
ellipse-curve $-1 68.657735250598023 -3.6519172768549844 6.5154032047183392 0.64278761758704617 0 0.76604443648966558 0.76604443648966558 0 -0.64278761758704617 1 I I #
face $-1 $-1 $440 $38 $-1 $441 forward single #
loop $-1 $-1 $442 $176 #
plane-surface $-1 0 21.601696105498274 4.2972118824420136 0 1 0 0 0 1 forward_v I I I I #
coedge $-1 $443 $179 $181 $304 forward $110 $-1 #
coedge $-1 $179 $443 $442 $444 forward $110 $-1 #
coedge $-1 $445 $182 $179 $301 forward $177 $-1 #
edge $-1 $307 5.3229721374666603 $446 12.626806691176629 $300 $447 forward 7 unknown #
coedge $-1 $448 $449 $180 $303 forward $440 $-1 #
edge $-1 $450 40.106906281496386 $306 44.006682827634513 $302 $451 forward 7 unknown #
edge $-1 $307 -141.2152470473342 $450 -136.1244502731829 $181 $452 forward 7 unknown #
coedge $-1 $182 $445 $448 $453 reversed $177 $-1 #
vertex $-1 $453 $454 #
vertex $-1 $183 $455 #
straight-curve $-1 70.607623523667101 14.297861551788305 101.9139096021631 0 0 -1 I I #
coedge $-1 $309 $309 $-1 $456 reversed $186 $-1 #
edge $-1 $457 0 $457 6.2831853071796004 $187 $458 forward 7 unknown #
vertex $-1 $190 $459 #
ellipse-curve $-1 68.657735250598023 17.949778828643289 6.5154032047183392 0.64278761758704617 0 0.76604443648966558 0.76604443648966558 0 -0.64278761758704617 1 I I #
face $-1 $-1 $325 $40 $-1 $460 forward single #
loop $-1 $-1 $461 $191 #
plane-surface $-1 -70.607623523667101 0 0 1 0 0 0 0 -1 forward_v I I I I #
coedge $-1 $462 $463 $464 $465 reversed $192 $-1 #
coedge $-1 $466 $194 $196 $323 forward $119 $-1 #
coedge $-1 $194 $466 $462 $467 forward $119 $-1 #
coedge $-1 $464 $197 $194 $320 forward $325 $-1 #
edge $-1 $327 -0.87623572716079323 $468 7.0066189604767324 $319 $469 forward 7 unknown #
coedge $-1 $470 $471 $195 $322 forward $314 $-1 #
edge $-1 $472 -35.953861133340752 $326 -32.805919237612045 $321 $473 forward 7 unknown #
edge $-1 $327 -3.7534903286237542 $472 2.636201369357039e-014 $196 $474 forward 7 unknown #
coedge $-1 $197 $464 $470 $475 forward $325 $-1 #
loop $-1 $-1 $464 $313 #
vertex $-1 $322 $476 #
vertex $-1 $198 $477 #
straight-curve $-1 -94.520348048870346 2.1889558894971763 8.1515537697565961 1 0 0 I I #
coedge $-1 $329 $329 $-1 $478 reversed $201 $-1 #
edge $-1 $479 0 $479 6.2831853071796004 $202 $480 forward 7 unknown #
vertex $-1 $205 $481 #
ellipse-curve $-1 -69.58547487153912 3.7655268270246793 6.577582821892257 -0.83867057594974714 0 0.54463902268945019 0.2723195113447251 0 0.41933528797487357 1 I I #
coedge $-1 $333 $333 $-1 $482 reversed $208 $-1 #
edge $-1 $483 0 $483 6.2831853071796004 $209 $484 forward 7 unknown #
vertex $-1 $212 $485 #
ellipse-curve $-1 -69.58547487153912 6.1303832333159392 6.577582821892257 -0.83867057594974714 0 0.54463902268945019 0.2723195113447251 0 0.41933528797487357 1 I I #
coedge $-1 $337 $337 $-1 $486 reversed $215 $-1 #
edge $-1 $487 0 $487 6.2831853071796004 $216 $488 forward 7 unknown #
vertex $-1 $219 $489 #
ellipse-curve $-1 -69.58547487153912 8.4952396396071919 6.577582821892257 -0.83867057594974714 0 0.54463902268945019 0.2723195113447251 0 0.41933528797487357 1 I I #
face $-1 $-1 $235 $33 $-1 $490 reversed single #
loop $-1 $-1 $357 $220 #
plane-surface $-1 0 30.982712257697997 0 0 -1 0 0 0 -1 forward_v I I I I #
coedge $-1 $491 $355 $358 $492 forward $221 $-1 #
coedge $-1 $361 $223 $224 $349 reversed $138 $-1 #
coedge $-1 $355 $491 $223 $347 reversed $221 $-1 #
edge $-1 $362 -8.1515537697565978 $493 8.1515537697565978 $346 $494 forward 7 unknown #
coedge $-1 $225 $224 $491 $495 forward $89 $-1 #
edge $-1 $353 -70.607623523667101 $493 70.607623523667101 $345 $496 forward 7 unknown #
coedge $-1 $358 $357 $225 $351 reversed $342 $-1 #
edge $-1 $497 -70.607623523667101 $352 70.607623523667101 $350 $498 forward 7 unknown #
vertex $-1 $227 $499 #
vertex $-1 $364 $500 #
straight-curve $-1 70.607623523667101 0 -8.1515537697565978 0 -1 0 I I #
coedge $-1 $344 $346 $228 $356 reversed $221 $-1 #
edge $-1 $359 -30.982712257697997 $362 30.982712257697997 $355 $501 forward 7 unknown #
coedge $-1 $350 $229 $234 $365 forward $342 $-1 #
coedge $-1 $229 $350 $344 $492 reversed $342 $-1 #
vertex $-1 $230 $502 #
straight-curve $-1 0 30.982712257697997 8.1515537697565978 -1 0 0 I I #
coedge $-1 $231 $345 $233 $364 reversed $138 $-1 #
vertex $-1 $356 $503 #
straight-curve $-1 0 -30.982712257697997 8.1515537697565978 1 0 0 I I #
edge $-1 $236 -8.1515537697565978 $353 8.1515537697565978 $233 $504 forward 7 unknown #
edge $-1 $237 -8.1515537697565978 $352 8.1515537697565978 $234 $505 forward 7 unknown #
point $-1 70.607623523667101 -30.982712257697997 8.1515537697565978 #
point $-1 70.607623523667101 30.982712257697997 8.1515537697565978 #
face $-1 $-1 $254 $34 $-1 $506 reversed single #
loop $-1 $-1 $250 $239 #
plane-surface $-1 0 -30.982712257697997 0 0 1 0 0 0 1 forward_v I I I I #
coedge $-1 $507 $508 $247 $381 forward $240 $-1 #
coedge $-1 $382 $242 $244 $377 reversed $146 $-1 #
edge $-1 $379 0.64860594122100679 $255 3.6486059412210068 $253 $509 forward 7 unknown #
coedge $-1 $244 $243 $510 $511 reversed $93 $-1 #
coedge $-1 $386 $385 $243 $376 forward $369 $-1 #
edge $-1 $512 -70.607623523667101 $378 70.607623523667101 $375 $513 forward 7 unknown #
edge $-1 $514 -70.607623523667101 $379 70.607623523667101 $372 $515 forward 7 unknown #
vertex $-1 $376 $516 #
vertex $-1 $246 $517 #
straight-curve $-1 70.607623523667101 -13.146102090799067 2.7972118824420136 0 1 0 I I #
edge $-1 $387 -17.836610166898929 $383 -8.4555940146992032 $371 $518 forward 7 unknown #
coedge $-1 $248 $372 $507 $519 reversed $146 $-1 #
vertex $-1 $381 $520 #
straight-curve $-1 0 -21.60169610549827 5.7972118824420136 -1 0 0 I I #
coedge $-1 $375 $250 $508 $521 forward $369 $-1 #
coedge $-1 $250 $375 $252 $389 reversed $369 $-1 #
vertex $-1 $521 $522 #
straight-curve $-1 0 -30.982712257697997 5.7972118824420136 -1 0 0 I I #
edge $-1 $256 -5.7972118824420136 $378 -2.7972118824420136 $252 $523 forward 7 unknown #
point $-1 70.607623523667101 -21.60169610549827 5.7972118824420136 #
point $-1 70.607623523667101 -30.982712257697997 5.7972118824420136 #
face $-1 $-1 $409 $35 $-1 $524 reversed single #
loop $-1 $-1 $405 $258 #
plane-surface $-1 -70.607623523667101 0 0 1 0 0 0 0 -1 forward_v I I I I #
coedge $-1 $398 $261 $525 $526 reversed $154 $-1 #
coedge $-1 $261 $398 $270 $414 reversed $154 $-1 #
coedge $-1 $263 $262 $527 $528 reversed $97 $-1 #
coedge $-1 $396 $395 $262 $399 reversed $154 $-1 #
edge $-1 $402 -70.607623523667101 $529 70.607623523667101 $398 $530 forward 7 unknown #
coedge $-1 $408 $407 $263 $401 forward $409 $-1 #
edge $-1 $403 -70.607623523667101 $531 70.607623523667101 $400 $532 forward 7 unknown #
vertex $-1 $265 $533 #
vertex $-1 $401 $534 #
straight-curve $-1 70.607623523667101 13.146102090799069 2.7972118824420136 0 1 0 I I #
coedge $-1 $535 $525 $266 $406 forward $393 $-1 #
edge $-1 $412 8.455594014699205 $410 17.836610166898932 $405 $536 forward 7 unknown #
coedge $-1 $400 $267 $271 $415 forward $409 $-1 #
coedge $-1 $267 $400 $535 $537 reversed $409 $-1 #
loop $-1 $-1 $267 $392 #
vertex $-1 $537 $538 #
straight-curve $-1 0 30.982712257697997 5.7972118824420136 1 0 0 I I #
vertex $-1 $406 $539 #
straight-curve $-1 0 21.601696105498274 5.7972118824420136 1 0 0 I I #
edge $-1 $273 -3.6486059412210068 $402 -0.64860594122100679 $270 $540 forward 7 unknown #
edge $-1 $272 -5.7972118824420136 $403 -2.7972118824420136 $271 $541 forward 7 unknown #
point $-1 70.607623523667101 30.982712257698001 5.7972118824420136 #
point $-1 70.607623523667101 21.601696105498274 5.7972118824420136 #
plane-surface $-1 70.607623523667101 0 0 -1 0 0 0 0 1 forward_v I I I I #
coedge $-1 $429 $428 $421 $542 forward $276 $-1 #
coedge $-1 $421 $278 $280 $425 reversed $162 $-1 #
coedge $-1 $278 $420 $419 $542 reversed $162 $-1 #
coedge $-1 $286 $281 $278 $423 forward $287 $-1 #
edge $-1 $426 -97.034656962483041 $543 -93.762355832406499 $422 $544 forward 7 unknown #
coedge $-1 $280 $279 $429 $545 reversed $101 $-1 #
edge $-1 $546 136.1244502731829 $426 141.2152470473342 $420 $547 forward 7 unknown #
vertex $-1 $282 $548 #
straight-curve $-1 70.607623523667087 -1.8259586384274922 4.8792526396800753 0 1 0 I I #
coedge $-1 $419 $283 $286 $433 forward $276 $-1 #
coedge $-1 $283 $419 $424 $545 forward $276 $-1 #
vertex $-1 $284 $549 #
straight-curve $-1 26.600940696032588 -7.3038345537099687 8.1515537697566032 1 0 0 I I #
straight-curve $-1 -37.569530824456933 -7.3038345537099687 95.65066485620217 -0.76604443648966558 0 0.64278761758704617 I I #
edge $-1 $288 -7.3038345537099687 $543 0 $286 $550 forward 7 unknown #
point $-1 70.607623523667101 -7.3038345537099687 8.1515537697565978 #
point $-1 70.607623523667101 -7.3038345537099687 4.8792526396800611 #
edge $-1 $551 1 $551 0 $291 $-1 forward 7 unknown #
vertex $-1 $292 $552 #
ellipse-curve $-1 67.423674047339674 -3.6519172768549844 5.0447063630577471 0.64278761758704617 0 0.76604443648966558 0.76604443648966558 0 -0.64278761758704617 1 I I #
point $-1 69.423779687087688 -3.6519172768549844 5.8726155871312704 #
loop $-1 $-1 $302 $295 #
plane-surface $-1 0 0 8.1515537697565978 0 0 1 1 0 0 forward_v I I I I #
coedge $-1 $553 $554 $299 $444 reversed $296 $-1 #
coedge $-1 $299 $298 $449 $555 reversed $110 $-1 #
edge $-1 $556 136.1244502731829 $446 141.2152470473342 $442 $557 forward 7 unknown #
coedge $-1 $305 $300 $554 $558 forward $177 $-1 #
vertex $-1 $558 $559 #
straight-curve $-1 70.607623523667087 8.9748894143216447 4.8792526396800753 0 1 0 I I #
coedge $-1 $560 $302 $305 $453 forward $440 $-1 #
coedge $-1 $302 $560 $443 $555 forward $440 $-1 #
vertex $-1 $303 $561 #
straight-curve $-1 26.600940696032588 14.297861551788305 8.1515537697566032 1 0 0 I I #
straight-curve $-1 -37.569530824456933 14.297861551788305 95.65066485620217 -0.76604443648966558 0 0.64278761758704617 I I #
edge $-1 $306 14.297861551788305 $562 21.601696105498274 $305 $563 forward 7 unknown #
point $-1 70.607623523667101 14.297861551788305 8.1515537697565978 #
point $-1 70.607623523667101 14.297861551788305 4.8792526396800611 #
edge $-1 $564 1 $564 0 $309 $-1 forward 7 unknown #
vertex $-1 $310 $565 #
ellipse-curve $-1 67.423674047339674 17.949778828643289 5.0447063630577471 0.64278761758704617 0 0.76604443648966558 0.76604443648966558 0 -0.64278761758704617 1 I I #
point $-1 69.423779687087688 17.949778828643289 5.8726155871312704 #
plane-surface $-1 0 0 8.1515537697565978 0 0 1 1 0 0 forward_v I I I I #
coedge $-1 $471 $470 $463 $566 forward $314 $-1 #
coedge $-1 $463 $316 $318 $467 reversed $192 $-1 #
coedge $-1 $316 $462 $461 $566 reversed $192 $-1 #
coedge $-1 $324 $319 $316 $465 forward $325 $-1 #
edge $-1 $468 -25.957021829459208 $567 -23.912724525203245 $464 $568 forward 7 unknown #
coedge $-1 $318 $317 $471 $569 reversed $119 $-1 #
edge $-1 $570 -2.636201369357039e-014 $468 3.7534903286237542 $462 $571 forward 7 unknown #
vertex $-1 $320 $572 #
straight-curve $-1 -68.563326219411138 3.0651916166579696 8.1515537697565961 0 1 0 I I #
coedge $-1 $461 $321 $324 $475 reversed $314 $-1 #
coedge $-1 $321 $461 $466 $569 forward $314 $-1 #
vertex $-1 $322 $573 #
straight-curve $-1 -70.607623523667101 2.1889558894971763 40.957473007368641 0 0 1 I I #
straight-curve $-1 -70.607623523667087 2.1889558894971763 5.0036118740279107 -0.54463902268945019 0 -0.83867057594974714 I I #
edge $-1 $567 -10.071810577134702 $326 -2.1889558894971763 $470 $574 forward 7 unknown #
point $-1 -70.607623523667101 2.1889558894971763 8.1515537697565978 #
point $-1 -68.563326219411138 2.1889558894971763 8.1515537697565978 #
edge $-1 $575 1 $575 0 $329 $-1 forward 7 unknown #
vertex $-1 $330 $576 #
ellipse-curve $-1 -68.518189970677639 3.7655268270246793 5.8844799254682032 -0.83867057594974714 0 0.54463902268945019 0.2723195113447251 0 0.41933528797487357 1 I I #
point $-1 -69.313155360194415 3.7655268270246793 6.9969181098671429 #
edge $-1 $577 1 $577 0 $333 $-1 forward 7 unknown #
vertex $-1 $334 $578 #
ellipse-curve $-1 -68.518189970677639 6.1303832333159392 5.8844799254682032 -0.83867057594974714 0 0.54463902268945019 0.2723195113447251 0 0.41933528797487357 1 I I #
point $-1 -69.313155360194415 6.1303832333159392 6.9969181098671429 #
edge $-1 $579 1 $579 0 $337 $-1 forward 7 unknown #
vertex $-1 $338 $580 #
ellipse-curve $-1 -68.518189970677639 8.4952396396071919 5.8844799254682032 -0.83867057594974714 0 0.54463902268945019 0.2723195113447251 0 0.41933528797487357 1 I I #
point $-1 -69.313155360194415 8.4952396396071919 6.9969181098671429 #
plane-surface $-1 70.607623523667101 0 0 -1 0 0 0 0 1 forward_v I I I I #
coedge $-1 $346 $344 $348 $495 reversed $221 $-1 #
edge $-1 $359 -8.1515537697565978 $497 8.1515537697565978 $358 $581 forward 7 unknown #
vertex $-1 $495 $582 #
straight-curve $-1 -70.607623523667101 -30.982712257697997 0 0 0 -1 I I #
edge $-1 $493 -30.982712257697997 $497 30.982712257697997 $491 $583 forward 7 unknown #
straight-curve $-1 0 -30.982712257697997 -8.1515537697565978 -1 0 0 I I #
vertex $-1 $351 $584 #
straight-curve $-1 0 30.982712257697997 -8.1515537697565978 1 0 0 I I #
point $-1 70.607623523667101 30.982712257697997 -8.1515537697565978 #
point $-1 70.607623523667101 -30.982712257697997 -8.1515537697565978 #
straight-curve $-1 -70.607623523667101 0 8.1515537697565978 0 -1 0 I I #
point $-1 -70.607623523667101 30.982712257697997 8.1515537697565978 #
point $-1 -70.607623523667101 -30.982712257697997 8.1515537697565978 #
straight-curve $-1 70.607623523667101 -30.982712257697997 0 0 0 -1 I I #
straight-curve $-1 70.607623523667101 30.982712257697997 0 0 0 -1 I I #
plane-surface $-1 70.607623523667101 0 0 -1 0 0 0 0 1 forward_v I I I I #
coedge $-1 $510 $371 $382 $519 forward $240 $-1 #
coedge $-1 $371 $510 $385 $521 reversed $240 $-1 #
straight-curve $-1 70.607623523667101 -21.60169610549827 2.1486059412210068 0 0 1 I I #
coedge $-1 $508 $507 $374 $511 forward $240 $-1 #
edge $-1 $514 8.4555940146992032 $512 17.836610166898929 $510 $585 forward 7 unknown #
vertex $-1 $376 $586 #
straight-curve $-1 0 -30.982712257697997 2.7972118824420136 1 0 0 I I #
vertex $-1 $511 $587 #
straight-curve $-1 0 -21.60169610549827 2.7972118824420136 1 0 0 I I #
point $-1 70.607623523667101 -30.982712257697997 2.7972118824420136 #
point $-1 70.607623523667101 -21.60169610549827 2.7972118824420136 #
straight-curve $-1 -70.607623523667101 -13.146102090799067 5.7972118824420136 0 1 0 I I #
edge $-1 $383 -3.6486059412210068 $514 -0.64860594122100679 $507 $588 forward 7 unknown #
point $-1 -70.607623523667101 -21.60169610549827 5.7972118824420136 #
edge $-1 $387 -5.7972118824420136 $512 -2.7972118824420136 $508 $589 forward 7 unknown #
point $-1 -70.607623523667101 -30.982712257697997 5.7972118824420136 #
straight-curve $-1 70.607623523667101 -30.982712257697997 0 0 0 -1 I I #
plane-surface $-1 0 30.982712257697997 0 0 -1 0 0 0 -1 forward_v I I I I #
coedge $-1 $405 $527 $395 $526 forward $393 $-1 #
edge $-1 $529 0.64860594122100679 $412 3.6486059412210068 $525 $590 forward 7 unknown #
coedge $-1 $525 $535 $397 $528 forward $393 $-1 #
edge $-1 $531 -17.836610166898932 $529 -8.455594014699205 $527 $591 forward 7 unknown #
vertex $-1 $528 $592 #
straight-curve $-1 0 21.601696105498274 2.7972118824420136 -1 0 0 I I #
vertex $-1 $401 $593 #
straight-curve $-1 0 30.982712257697997 2.7972118824420136 -1 0 0 I I #
point $-1 70.607623523667101 21.601696105498274 2.7972118824420136 #
point $-1 70.607623523667101 30.982712257698001 2.7972118824420136 #
coedge $-1 $527 $405 $408 $537 forward $393 $-1 #
straight-curve $-1 -70.607623523667101 13.146102090799069 5.7972118824420136 0 1 0 I I #
edge $-1 $410 -5.7972118824420136 $531 -2.7972118824420136 $408 $594 forward 7 unknown #
point $-1 -70.607623523667101 30.982712257698001 5.7972118824420136 #
point $-1 -70.607623523667101 21.601696105498274 5.7972118824420136 #
straight-curve $-1 70.607623523667101 21.601696105498274 2.1486059412210068 0 0 -1 I I #
straight-curve $-1 70.607623523667101 30.982712257697997 0 0 0 -1 I I #
edge $-1 $543 -44.006682827634513 $546 -40.106906281496386 $419 $595 forward 7 unknown #
vertex $-1 $542 $596 #
straight-curve $-1 70.607623523667101 0 101.9139096021631 0 0 1 I I #
edge $-1 $546 -1.8259586384274922 $430 5.4778759152824765 $429 $597 forward 7 unknown #
vertex $-1 $545 $598 #
straight-curve $-1 -37.569530824456933 0 95.65066485620217 0.76604443648966558 0 -0.64278761758704617 I I #
point $-1 70.607623523667101 0 4.8792526396800611 #
point $-1 66.707846977528973 -7.3038345537099687 8.1515537697566032 #
straight-curve $-1 70.607623523667101 0 8.1515537697565978 0 1 0 I I #
vertex $-1 $436 $599 #
point $-1 68.189718483829353 -3.6519172768549844 4.4019187454707014 #
coedge $-1 $554 $442 $560 $600 reversed $296 $-1 #
coedge $-1 $442 $553 $445 $558 reversed $296 $-1 #
edge $-1 $556 -12.626806691176629 $450 -5.3229721374666603 $449 $601 forward 7 unknown #
vertex $-1 $600 $602 #
straight-curve $-1 -37.569530824456933 21.601696105498274 95.65066485620217 0.76604443648966558 0 -0.64278761758704617 I I #
edge $-1 $446 -97.034656962483041 $562 -93.762355832406499 $445 $603 forward 7 unknown #
point $-1 70.607623523667101 21.601696105498274 4.8792526396800611 #
coedge $-1 $449 $448 $553 $600 forward $440 $-1 #
point $-1 66.707846977528973 14.297861551788305 8.1515537697566032 #
vertex $-1 $600 $604 #
straight-curve $-1 70.607623523667101 0 8.1515537697565978 0 1 0 I I #
vertex $-1 $456 $605 #
point $-1 68.189718483829353 17.949778828643289 4.4019187454707014 #
edge $-1 $567 32.805919237612045 $570 35.953861133340752 $461 $606 forward 7 unknown #
vertex $-1 $475 $607 #
straight-curve $-1 -94.520348048870346 10.071810577134702 8.1515537697565961 -1 0 0 I I #
edge $-1 $570 -7.0066189604767324 $472 0.87623572716079323 $471 $608 forward 7 unknown #
vertex $-1 $569 $609 #
straight-curve $-1 -70.607623523667087 10.071810577134702 5.0036118740279107 0.54463902268945019 0 0.83867057594974714 I I #
point $-1 -68.563326219411138 10.071810577134702 8.1515537697565978 #
point $-1 -70.607623523667101 2.1889558894971763 5.0036118740278885 #
straight-curve $-1 -70.607623523667101 0 8.1515537697565978 0 -1 0 I I #
vertex $-1 $478 $610 #
point $-1 -68.24587045933292 3.7655268270246793 6.3038152134430767 #
vertex $-1 $482 $611 #
point $-1 -68.24587045933292 6.1303832333159392 6.3038152134430767 #
vertex $-1 $486 $612 #
point $-1 -68.24587045933292 8.4952396396071919 6.3038152134430767 #
straight-curve $-1 -70.607623523667101 30.982712257697997 0 0 0 -1 I I #
point $-1 -70.607623523667101 -30.982712257697997 -8.1515537697565978 #
straight-curve $-1 -70.607623523667101 0 -8.1515537697565978 0 1 0 I I #
point $-1 -70.607623523667101 30.982712257697997 -8.1515537697565978 #
straight-curve $-1 -70.607623523667101 -13.146102090799067 2.7972118824420136 0 -1 0 I I #
point $-1 -70.607623523667101 -30.982712257697997 2.7972118824420136 #
point $-1 -70.607623523667101 -21.60169610549827 2.7972118824420136 #
straight-curve $-1 -70.607623523667101 -21.60169610549827 2.1486059412210068 0 0 -1 I I #
straight-curve $-1 -70.607623523667101 -30.982712257697997 0 0 0 -1 I I #
straight-curve $-1 -70.607623523667101 21.601696105498274 2.1486059412210068 0 0 1 I I #
straight-curve $-1 -70.607623523667101 13.146102090799069 2.7972118824420136 0 -1 0 I I #
point $-1 -70.607623523667101 21.601696105498274 2.7972118824420136 #
point $-1 -70.607623523667101 30.982712257698001 2.7972118824420136 #
straight-curve $-1 -70.607623523667101 30.982712257697997 0 0 0 -1 I I #
straight-curve $-1 26.600940696032588 0 8.1515537697566032 -1 0 0 I I #
point $-1 70.607623523667101 0 8.1515537697565978 #
straight-curve $-1 66.707846977528959 -1.8259586384274922 8.1515537697565961 0 -1 0 I I #
point $-1 66.707846977528973 0 8.1515537697566032 #
point $-1 66.780886429752641 -3.6519172768549844 4.2786619265680823 #
edge $-1 $562 -44.006682827634513 $556 -40.106906281496386 $560 $613 forward 7 unknown #
straight-curve $-1 66.707846977528959 8.9748894143216447 8.1515537697565961 0 -1 0 I I #
point $-1 66.707846977528973 21.601696105498274 8.1515537697566032 #
straight-curve $-1 70.607623523667101 21.601696105498274 101.9139096021631 0 0 1 I I #
point $-1 70.607623523667101 21.601696105498274 8.1515537697565978 #
point $-1 66.780886429752641 17.949778828643289 4.2786619265680823 #
straight-curve $-1 -70.607623523667101 10.071810577134702 40.957473007368641 0 0 -1 I I #
point $-1 -70.607623523667101 10.071810577134702 8.1515537697565978 #
straight-curve $-1 -70.607623523667101 3.0651916166579696 5.003611874027869 0 -1 0 I I #
point $-1 -70.607623523667101 10.071810577134702 5.0036118740278885 #
point $-1 -68.098854682702779 3.7655268270246793 5.6121604141234789 #
point $-1 -68.098854682702779 6.1303832333159392 5.6121604141234789 #
point $-1 -68.098854682702779 8.4952396396071919 5.6121604141234789 #
straight-curve $-1 26.600940696032588 21.601696105498274 8.1515537697566032 -1 0 0 I I #
End-of-ACIS-data 