500 0 17 0           
7 Unknown 11 ACIS 5.0 NT 24 Fri Mar 26 03:35:29 1999 
-1 9.9999999999999995e-007 1e-010 
body $-1 $17 $-1 $18 #
body $-1 $19 $-1 $20 #
body $-1 $21 $-1 $22 #
body $-1 $23 $-1 $24 #
body $-1 $25 $-1 $26 #
body $-1 $27 $-1 $28 #
body $-1 $29 $-1 $30 #
body $-1 $31 $-1 $32 #
body $-1 $33 $-1 $34 #
body $-1 $35 $-1 $36 #
body $-1 $37 $-1 $38 #
body $-1 $39 $-1 $40 #
body $-1 $41 $-1 $42 #
body $-1 $43 $-1 $44 #
body $-1 $45 $-1 $46 #
body $-1 $47 $-1 $48 #
body $-1 $49 $-1 $50 #
lump $-1 $-1 $51 $0 #
transform $-1 1 0 0 0 1 0 0 0 1 69.526047547837763 29.150355510924392 7.3788199625922468 1 rotate no_reflect no_shear #
lump $-1 $-1 $52 $1 #
transform $-1 1 0 0 0 1 0 0 0 1 69.526047547837763 29.150355510924392 7.3788199625922468 1 rotate no_reflect no_shear #
lump $-1 $-1 $53 $2 #
transform $-1 1 0 0 0 1 0 0 0 1 69.526047547837763 29.150355510924392 7.3788199625922468 1 rotate no_reflect no_shear #
lump $-1 $-1 $54 $3 #
transform $-1 1 0 0 0 1 0 0 0 1 69.526047547837763 29.150355510924392 7.3788199625922468 1 rotate no_reflect no_shear #
lump $-1 $-1 $55 $4 #
transform $-1 1 0 0 0 1 0 0 0 1 69.526047547837763 29.150355510924392 7.3788199625922468 1 rotate no_reflect no_shear #
lump $-1 $-1 $56 $5 #
transform $-1 1 0 0 0 1 0 0 0 1 69.526047547837763 29.150355510924392 7.3788199625922468 1 rotate no_reflect no_shear #
lump $-1 $-1 $57 $6 #
transform $-1 1 0 0 0 1 0 0 0 1 69.526047547837763 29.150355510924392 7.3788199625922468 1 rotate no_reflect no_shear #
lump $-1 $-1 $58 $7 #
transform $-1 1 0 0 0 1 0 0 0 1 69.526047547837763 29.150355510924392 7.3788199625922468 1 rotate no_reflect no_shear #
lump $-1 $-1 $59 $8 #
transform $-1 1 0 0 0 1 0 0 0 1 69.526047547837763 29.150355510924392 7.3788199625922468 1 rotate no_reflect no_shear #
lump $-1 $-1 $60 $9 #
transform $-1 1 0 0 0 1 0 0 0 1 69.526047547837763 29.150355510924392 7.3788199625922468 1 rotate no_reflect no_shear #
lump $-1 $-1 $61 $10 #
transform $-1 1 0 0 0 1 0 0 0 1 69.526047547837763 29.150355510924392 7.3788199625922468 1 rotate no_reflect no_shear #
lump $-1 $-1 $62 $11 #
transform $-1 1 0 0 0 1 0 0 0 1 69.526047547837763 29.150355510924392 7.3788199625922468 1 rotate no_reflect no_shear #
lump $-1 $-1 $63 $12 #
transform $-1 1 0 0 0 1 0 0 0 1 69.526047547837763 29.150355510924392 7.3788199625922468 1 rotate no_reflect no_shear #
lump $-1 $-1 $64 $13 #
transform $-1 1 0 0 0 1 0 0 0 1 69.526047547837763 29.150355510924392 7.3788199625922468 1 rotate no_reflect no_shear #
lump $-1 $-1 $65 $14 #
transform $-1 1 0 0 0 1 0 0 0 1 69.526047547837763 29.150355510924392 7.3788199625922468 1 rotate no_reflect no_shear #
lump $-1 $-1 $66 $15 #
transform $-1 1 0 0 0 1 0 0 0 1 69.526047547837763 29.150355510924392 7.3788199625922468 1 rotate no_reflect no_shear #
lump $-1 $-1 $67 $16 #
transform $-1 1 0 0 0 1 0 0 0 1 69.526047547837763 29.150355510924392 7.3788199625922468 1 rotate no_reflect no_shear #
shell $-1 $-1 $-1 $68 $-1 $17 #
shell $-1 $-1 $-1 $69 $-1 $19 #
shell $-1 $-1 $-1 $70 $-1 $21 #
shell $-1 $-1 $-1 $71 $-1 $23 #
shell $-1 $-1 $-1 $72 $-1 $25 #
shell $-1 $-1 $-1 $73 $-1 $27 #
shell $-1 $-1 $-1 $74 $-1 $29 #
shell $-1 $-1 $-1 $75 $-1 $31 #
shell $-1 $-1 $-1 $76 $-1 $33 #
shell $-1 $-1 $-1 $77 $-1 $35 #
shell $-1 $-1 $-1 $78 $-1 $37 #
shell $-1 $-1 $-1 $79 $-1 $39 #
shell $-1 $-1 $-1 $80 $-1 $41 #
shell $-1 $-1 $-1 $81 $-1 $43 #
shell $-1 $-1 $-1 $82 $-1 $45 #
shell $-1 $-1 $-1 $83 $-1 $47 #
shell $-1 $-1 $-1 $84 $-1 $49 #
face $-1 $85 $86 $51 $-1 $87 forward single #
face $-1 $88 $89 $52 $-1 $90 forward single #
face $-1 $91 $92 $53 $-1 $93 forward single #
face $-1 $94 $95 $54 $-1 $96 reversed single #
face $-1 $97 $98 $55 $-1 $99 forward single #
face $-1 $100 $101 $56 $-1 $102 forward single #
face $-1 $103 $104 $57 $-1 $105 forward single #
face $-1 $106 $107 $58 $-1 $108 reversed single #
face $-1 $109 $110 $59 $-1 $111 forward single #
face $-1 $112 $113 $60 $-1 $114 forward single #
face $-1 $115 $116 $61 $-1 $117 forward single #
face $-1 $118 $119 $62 $-1 $120 reversed single #
face $-1 $121 $122 $63 $-1 $123 forward single #
face $-1 $124 $125 $64 $-1 $126 forward single #
face $-1 $127 $128 $65 $-1 $129 reversed single #
face $-1 $130 $131 $66 $-1 $132 forward single #
face $-1 $133 $134 $67 $-1 $135 forward single #
face $-1 $136 $137 $51 $-1 $138 reversed single #
loop $-1 $-1 $139 $68 #
plane-surface $-1 0 0 7.3788199625922468 0 0 1 1 0 0 forward_v I I I I #
face $-1 $140 $141 $52 $-1 $142 reversed single #
loop $-1 $-1 $143 $69 #
plane-surface $-1 -69.526047547837763 0 0 1 0 0 0 0 -1 forward_v I I I I #
face $-1 $144 $145 $53 $-1 $146 reversed single #
loop $-1 $-1 $147 $70 #
plane-surface $-1 69.526047547837763 0 0 -1 0 0 0 0 1 forward_v I I I I #
face $-1 $148 $149 $54 $-1 $150 reversed single #
loop $-1 $-1 $151 $71 #
plane-surface $-1 -9.7964460855529865 -112.8339963996909 112.39270063369975 -1 0 0 0 -0.6018150307709319 0.79863550430605224 forward_v I I I I #
face $-1 $152 $153 $55 $-1 $154 forward single #
loop $-1 $155 $156 $72 #
cone-surface $-1 -33.890027422922557 -23.335969811684095 1.9604958694902286 0 0.6018150307709319 -0.79863550430605224 2 0 0 1 I I 0 1 2 forward I I I I #
face $-1 $157 $158 $56 $-1 $159 forward single #
loop $-1 $160 $161 $73 #
cone-surface $-1 -24.85493442140897 -23.335969811684095 1.9604958694902286 0 0.6018150307709319 -0.79863550430605224 2 0 0 1 I I 0 1 2 forward I I I I #
face $-1 $162 $163 $57 $-1 $164 forward single #
loop $-1 $165 $166 $74 #
cone-surface $-1 -15.819841419895383 -23.335969811684095 1.9604958694902286 0 0.6018150307709319 -0.79863550430605224 2 0 0 1 I I 0 1 2 forward I I I I #
face $-1 $167 $168 $58 $-1 $169 reversed single #
loop $-1 $-1 $170 $75 #
plane-surface $-1 39.913422757264954 -112.8339963996909 112.39270063369975 -1 0 0 0 -0.6018150307709319 0.79863550430605224 forward_v I I I I #
face $-1 $171 $172 $59 $-1 $173 forward single #
loop $-1 $174 $175 $76 #
cone-surface $-1 15.819841419895383 -23.335969811684095 1.9604958694902286 0 0.6018150307709319 -0.79863550430605224 2 0 0 1 I I 0 1 2 forward I I I I #
face $-1 $176 $177 $60 $-1 $178 forward single #
loop $-1 $179 $180 $77 #
cone-surface $-1 24.85493442140897 -23.335969811684095 1.9604958694902286 0 0.6018150307709319 -0.79863550430605224 2 0 0 1 I I 0 1 2 forward I I I I #
face $-1 $181 $182 $61 $-1 $183 forward single #
loop $-1 $184 $185 $78 #
cone-surface $-1 33.890027422922557 -23.335969811684095 1.9604958694902286 0 0.6018150307709319 -0.79863550430605224 2 0 0 1 I I 0 1 2 forward I I I I #
face $-1 $186 $187 $62 $-1 $188 reversed single #
loop $-1 $-1 $189 $79 #
plane-surface $-1 -46.742484259108203 111.82842483760518 128.11312378605115 1 0 0 0 -0.82903758062907751 -0.55919289150049634 forward_v I I I I #
face $-1 $190 $191 $63 $-1 $192 forward single #
loop $-1 $193 $194 $80 #
cone-surface $-1 -41.758540558923386 26.025116612648951 3.8111746110044242 0 -0.82903758062907751 -0.55919289150049634 1 0 0 1 I I 0 1 1 forward I I I I #
face $-1 $195 $196 $64 $-1 $197 forward single #
loop $-1 $198 $199 $81 #
cone-surface $-1 -34.282625008646164 26.025116612648951 3.8111746110044242 0 -0.82903758062907751 -0.55919289150049634 1 0 0 1 I I 0 1 1 forward I I I I #
face $-1 $200 $201 $65 $-1 $202 reversed single #
loop $-1 $-1 $203 $82 #
plane-surface $-1 29.298681308461333 111.82842483760518 128.11312378605115 1 0 0 0 -0.82903758062907751 -0.55919289150049634 forward_v I I I I #
face $-1 $204 $205 $66 $-1 $206 forward single #
loop $-1 $207 $208 $83 #
cone-surface $-1 34.28262500864615 26.025116612648951 3.8111746110044242 0 -0.82903758062907751 -0.55919289150049634 1 0 0 1 I I 0 1 1 forward I I I I #
face $-1 $209 $210 $67 $-1 $211 forward single #
loop $-1 $212 $213 $84 #
cone-surface $-1 41.758540558923372 26.025116612648951 3.8111746110044242 0 -0.82903758062907751 -0.55919289150049634 1 0 0 1 I I 0 1 1 forward I I I I #
face $-1 $214 $215 $51 $-1 $216 reversed single #
loop $-1 $-1 $217 $85 #
plane-surface $-1 0 0 -7.3788199625922468 0 0 1 1 0 0 forward_v I I I I #
coedge $-1 $218 $219 $220 $221 forward $86 $-1 #
face $-1 $222 $223 $52 $-1 $224 forward single #
loop $-1 $-1 $225 $88 #
plane-surface $-1 0 29.150355510924392 0 0 -1 0 0 0 -1 forward_v I I I I #
coedge $-1 $226 $227 $228 $229 forward $89 $-1 #
face $-1 $230 $231 $53 $-1 $232 forward single #
loop $-1 $-1 $233 $91 #
plane-surface $-1 0 29.150355510924392 0 0 -1 0 0 0 -1 forward_v I I I I #
coedge $-1 $234 $235 $236 $237 forward $92 $-1 #
face $-1 $238 $239 $54 $-1 $240 reversed single #
loop $-1 $-1 $241 $94 #
plane-surface $-1 -24.85493442140897 -29.150355510924385 1.3407605421517843 0 -0.6018150307709319 0.79863550430605224 1 0 0 forward_v I I I I #
coedge $-1 $242 $243 $244 $245 reversed $95 $-1 #
face $-1 $-1 $246 $55 $-1 $247 forward single #
loop $-1 $248 $249 $97 #
cone-surface $-1 -33.890027422922557 -20.926156745417373 -1.2374340176976188 0 0.6018150307709319 -0.79863550430605224 1 0 0 1 I I -0.70710678118654746 0.70710678118654746 1 forward I I I I #
loop $-1 $-1 $250 $72 #
coedge $-1 $156 $156 $251 $252 reversed $98 $-1 #
face $-1 $-1 $253 $56 $-1 $254 forward single #
loop $-1 $255 $256 $100 #
cone-surface $-1 -24.85493442140897 -20.926156745417373 -1.2374340176976188 0 0.6018150307709319 -0.79863550430605224 1 0 0 1 I I -0.70710678118654746 0.70710678118654746 1 forward I I I I #
loop $-1 $-1 $257 $73 #
coedge $-1 $161 $161 $258 $259 reversed $101 $-1 #
face $-1 $-1 $260 $57 $-1 $261 forward single #
loop $-1 $262 $263 $103 #
cone-surface $-1 -15.819841419895383 -20.926156745417373 -1.2374340176976188 0 0.6018150307709319 -0.79863550430605224 1 0 0 1 I I -0.70710678118654746 0.70710678118654746 1 forward I I I I #
loop $-1 $-1 $264 $74 #
coedge $-1 $166 $166 $265 $266 reversed $104 $-1 #
face $-1 $267 $268 $58 $-1 $269 reversed single #
loop $-1 $-1 $270 $106 #
plane-surface $-1 24.85493442140897 -29.150355510924385 1.3407605421517843 0 -0.6018150307709319 0.79863550430605224 1 0 0 forward_v I I I I #
coedge $-1 $271 $272 $273 $274 reversed $107 $-1 #
face $-1 $-1 $275 $59 $-1 $276 forward single #
loop $-1 $277 $278 $109 #
cone-surface $-1 15.819841419895383 -20.926156745417373 -1.2374340176976188 0 0.6018150307709319 -0.79863550430605224 1 0 0 1 I I -0.70710678118654746 0.70710678118654746 1 forward I I I I #
loop $-1 $-1 $279 $76 #
coedge $-1 $175 $175 $280 $281 reversed $110 $-1 #
face $-1 $-1 $282 $60 $-1 $283 forward single #
loop $-1 $284 $285 $112 #
cone-surface $-1 24.85493442140897 -20.926156745417373 -1.2374340176976188 0 0.6018150307709319 -0.79863550430605224 1 0 0 1 I I -0.70710678118654746 0.70710678118654746 1 forward I I I I #
loop $-1 $-1 $286 $77 #
coedge $-1 $180 $180 $287 $288 reversed $113 $-1 #
face $-1 $-1 $289 $61 $-1 $290 forward single #
loop $-1 $291 $292 $115 #
cone-surface $-1 33.890027422922557 -20.926156745417373 -1.2374340176976188 0 0.6018150307709319 -0.79863550430605224 1 0 0 1 I I -0.70710678118654746 0.70710678118654746 1 forward I I I I #
loop $-1 $-1 $293 $78 #
coedge $-1 $185 $185 $294 $295 reversed $116 $-1 #
face $-1 $296 $297 $62 $-1 $298 reversed single #
loop $-1 $-1 $299 $118 #
plane-surface $-1 -38.020582783784775 -3.4509876619180631 50.356180660298364 0 0.82903758062907751 0.55919289150049634 1 0 0 forward_v I I I I #
coedge $-1 $300 $301 $302 $303 reversed $119 $-1 #
face $-1 $-1 $304 $63 $-1 $305 forward single #
loop $-1 $306 $307 $121 #
cone-surface $-1 -41.758540558923386 24.291733050904256 2.641992672067544 0 -0.82903758062907751 -0.55919289150049634 0.5 0 0 1 I I -0.70710678118654746 0.70710678118654746 0.5 forward I I I I #
loop $-1 $-1 $308 $80 #
coedge $-1 $194 $194 $309 $310 reversed $122 $-1 #
face $-1 $-1 $311 $64 $-1 $312 forward single #
loop $-1 $313 $314 $124 #
cone-surface $-1 -34.282625008646164 24.291733050904256 2.641992672067544 0 -0.82903758062907751 -0.55919289150049634 0.5 0 0 1 I I -0.70710678118654746 0.70710678118654746 0.5 forward I I I I #
loop $-1 $-1 $315 $81 #
coedge $-1 $199 $199 $316 $317 reversed $125 $-1 #
face $-1 $318 $319 $65 $-1 $320 reversed single #
loop $-1 $-1 $321 $127 #
plane-surface $-1 38.020582783784761 -3.4509876619180631 50.356180660298364 0 0.82903758062907751 0.55919289150049634 1 0 0 forward_v I I I I #
coedge $-1 $322 $323 $324 $325 reversed $128 $-1 #
face $-1 $-1 $326 $66 $-1 $327 forward single #
loop $-1 $328 $329 $130 #
cone-surface $-1 34.28262500864615 24.291733050904256 2.641992672067544 0 -0.82903758062907751 -0.55919289150049634 0.5 0 0 1 I I -0.70710678118654746 0.70710678118654746 0.5 forward I I I I #
loop $-1 $-1 $330 $83 #
coedge $-1 $208 $208 $331 $332 reversed $131 $-1 #
face $-1 $-1 $333 $67 $-1 $334 forward single #
loop $-1 $335 $336 $133 #
cone-surface $-1 41.758540558923372 24.291733050904256 2.641992672067544 0 -0.82903758062907751 -0.55919289150049634 0.5 0 0 1 I I -0.70710678118654746 0.70710678118654746 0.5 forward I I I I #
loop $-1 $-1 $337 $84 #
coedge $-1 $213 $213 $338 $339 reversed $134 $-1 #
face $-1 $340 $341 $51 $-1 $342 reversed single #
loop $-1 $-1 $343 $136 #
plane-surface $-1 0 -29.150355510924392 0 0 1 0 0 0 1 forward_v I I I I #
coedge $-1 $344 $345 $346 $347 forward $137 $-1 #
coedge $-1 $348 $139 $349 $350 forward $86 $-1 #
coedge $-1 $139 $348 $351 $352 forward $86 $-1 #
coedge $-1 $353 $354 $139 $221 reversed $355 $-1 #
edge $-1 $356 -29.150355510924392 $357 29.150355510924392 $220 $358 forward 7 unknown #
face $-1 $359 $360 $52 $-1 $361 reversed single #
loop $-1 $-1 $228 $140 #
plane-surface $-1 -73.408153114387048 0 -4.1290946023160933 0 0 1 1 0 0 forward_v I I I I #
coedge $-1 $362 $363 $227 $364 forward $141 $-1 #
coedge $-1 $365 $143 $366 $367 reversed $89 $-1 #
coedge $-1 $143 $365 $225 $364 reversed $89 $-1 #
coedge $-1 $368 $369 $143 $229 reversed $223 $-1 #
edge $-1 $370 -29.150355510924392 $371 29.150355510924392 $228 $372 forward 7 unknown #
face $-1 $373 $374 $53 $-1 $375 reversed single #
loop $-1 $-1 $376 $144 #
plane-surface $-1 73.408153114387048 0 -4.1290946023160933 0 0 1 1 0 0 forward_v I I I I #
coedge $-1 $377 $378 $234 $379 forward $145 $-1 #
coedge $-1 $380 $147 $233 $379 reversed $92 $-1 #
coedge $-1 $147 $380 $381 $382 reversed $92 $-1 #
coedge $-1 $383 $384 $147 $237 reversed $231 $-1 #
edge $-1 $385 -29.150355510924392 $386 29.150355510924392 $236 $387 forward 7 unknown #
face $-1 $388 $389 $54 $-1 $390 forward single #
loop $-1 $-1 $391 $148 #
plane-surface $-1 -39.913422757264954 -112.8339963996909 112.39270063369975 1 0 0 0 0.6018150307709319 -0.79863550430605224 forward_v I I I I #
coedge $-1 $392 $393 $394 $395 reversed $149 $-1 #
coedge $-1 $243 $151 $396 $397 reversed $95 $-1 #
coedge $-1 $151 $242 $392 $398 reversed $95 $-1 #
coedge $-1 $394 $399 $151 $245 forward $389 $-1 #
edge $-1 $400 27.26664268892106 $401 35.279418016410105 $244 $402 forward 7 unknown #
loop $-1 $-1 $251 $152 #
plane-surface $-1 -24.85493442140897 -29.150355510924385 1.3407605421517843 0 -0.6018150307709319 0.79863550430605224 1 0 0 forward_v I I I I #
loop $-1 $-1 $403 $97 #
coedge $-1 $249 $249 $250 $404 reversed $153 $-1 #
coedge $-1 $250 $250 $249 $404 forward $155 $-1 #
coedge $-1 $251 $251 $156 $252 forward $246 $-1 #
edge $-1 $405 -5.1435105991241275e-016 $405 6.2831853071795996 $251 $406 forward 7 unknown #
loop $-1 $-1 $258 $157 #
plane-surface $-1 -24.85493442140897 -29.150355510924385 1.3407605421517843 0 -0.6018150307709319 0.79863550430605224 1 0 0 forward_v I I I I #
loop $-1 $-1 $407 $100 #
coedge $-1 $256 $256 $257 $408 reversed $158 $-1 #
coedge $-1 $257 $257 $256 $408 forward $160 $-1 #
coedge $-1 $258 $258 $161 $259 forward $253 $-1 #
edge $-1 $409 -5.1435105991241275e-016 $409 6.2831853071795996 $258 $410 forward 7 unknown #
loop $-1 $-1 $265 $162 #
plane-surface $-1 -24.85493442140897 -29.150355510924385 1.3407605421517843 0 -0.6018150307709319 0.79863550430605224 1 0 0 forward_v I I I I #
loop $-1 $-1 $411 $103 #
coedge $-1 $263 $263 $264 $412 reversed $163 $-1 #
coedge $-1 $264 $264 $263 $412 forward $165 $-1 #
coedge $-1 $265 $265 $166 $266 forward $260 $-1 #
edge $-1 $413 -5.1435105991241275e-016 $413 6.2831853071795996 $265 $414 forward 7 unknown #
face $-1 $415 $416 $58 $-1 $417 reversed single #
loop $-1 $-1 $418 $167 #
plane-surface $-1 9.7964460855529865 -112.8339963996909 112.39270063369975 1 0 0 0 0.6018150307709319 -0.79863550430605224 forward_v I I I I #
coedge $-1 $419 $420 $421 $422 reversed $168 $-1 #
coedge $-1 $272 $170 $423 $424 reversed $107 $-1 #
coedge $-1 $170 $271 $419 $425 reversed $107 $-1 #
coedge $-1 $421 $426 $170 $274 forward $427 $-1 #
edge $-1 $428 27.26664268892106 $429 35.279418016410105 $273 $430 forward 7 unknown #
loop $-1 $-1 $280 $171 #
plane-surface $-1 24.85493442140897 -29.150355510924385 1.3407605421517843 0 -0.6018150307709319 0.79863550430605224 1 0 0 forward_v I I I I #
loop $-1 $-1 $431 $109 #
coedge $-1 $278 $278 $279 $432 reversed $172 $-1 #
coedge $-1 $279 $279 $278 $432 forward $174 $-1 #
coedge $-1 $280 $280 $175 $281 forward $275 $-1 #
edge $-1 $433 -5.1435105991241275e-016 $433 6.2831853071795996 $280 $434 forward 7 unknown #
loop $-1 $-1 $287 $176 #
plane-surface $-1 24.85493442140897 -29.150355510924385 1.3407605421517843 0 -0.6018150307709319 0.79863550430605224 1 0 0 forward_v I I I I #
loop $-1 $-1 $435 $112 #
coedge $-1 $285 $285 $286 $436 reversed $177 $-1 #
coedge $-1 $286 $286 $285 $436 forward $179 $-1 #
coedge $-1 $287 $287 $180 $288 forward $282 $-1 #
edge $-1 $437 -5.1435105991241275e-016 $437 6.2831853071795996 $287 $438 forward 7 unknown #
loop $-1 $-1 $294 $181 #
plane-surface $-1 24.85493442140897 -29.150355510924385 1.3407605421517843 0 -0.6018150307709319 0.79863550430605224 1 0 0 forward_v I I I I #
loop $-1 $-1 $439 $115 #
coedge $-1 $292 $292 $293 $440 reversed $182 $-1 #
coedge $-1 $293 $293 $292 $440 forward $184 $-1 #
coedge $-1 $294 $294 $185 $295 forward $289 $-1 #
edge $-1 $441 -5.1435105991241275e-016 $441 6.2831853071795996 $294 $442 forward 7 unknown #
face $-1 $443 $444 $62 $-1 $445 reversed single #
loop $-1 $-1 $446 $186 #
plane-surface $-1 -29.298681308461347 111.82842483760518 128.11312378605115 -1 0 0 0 0.82903758062907751 0.55919289150049634 forward_v I I I I #
coedge $-1 $447 $448 $449 $450 reversed $187 $-1 #
coedge $-1 $301 $189 $451 $452 reversed $119 $-1 #
coedge $-1 $189 $300 $447 $453 reversed $119 $-1 #
coedge $-1 $449 $454 $189 $303 forward $455 $-1 #
edge $-1 $456 26.7638569078782 $457 30.376605161568737 $302 $458 forward 7 unknown #
loop $-1 $-1 $309 $190 #
plane-surface $-1 -38.020582783784775 -3.4509876619180631 50.356180660298364 0 0.82903758062907751 0.55919289150049634 1 0 0 forward_v I I I I #
loop $-1 $-1 $459 $121 #
coedge $-1 $307 $307 $308 $460 reversed $191 $-1 #
coedge $-1 $308 $308 $307 $460 forward $193 $-1 #
coedge $-1 $309 $309 $194 $310 forward $304 $-1 #
edge $-1 $461 8.8939051993451917e-016 $461 6.2831853071796013 $309 $462 forward 7 unknown #
loop $-1 $-1 $316 $195 #
plane-surface $-1 -38.020582783784775 -3.4509876619180631 50.356180660298364 0 0.82903758062907751 0.55919289150049634 1 0 0 forward_v I I I I #
loop $-1 $-1 $463 $124 #
coedge $-1 $314 $314 $315 $464 reversed $196 $-1 #
coedge $-1 $315 $315 $314 $464 forward $198 $-1 #
coedge $-1 $316 $316 $199 $317 forward $311 $-1 #
edge $-1 $465 8.8939051993451917e-016 $465 6.2831853071796013 $316 $466 forward 7 unknown #
face $-1 $467 $468 $65 $-1 $469 forward single #
loop $-1 $-1 $470 $200 #
plane-surface $-1 46.742484259108188 111.82842483760518 128.11312378605115 -1 0 0 0 0.82903758062907751 0.55919289150049634 forward_v I I I I #
coedge $-1 $471 $472 $473 $474 reversed $201 $-1 #
coedge $-1 $323 $203 $475 $476 reversed $128 $-1 #
coedge $-1 $203 $322 $471 $477 reversed $128 $-1 #
coedge $-1 $473 $478 $203 $325 forward $468 $-1 #
edge $-1 $479 26.7638569078782 $480 30.376605161568737 $324 $481 forward 7 unknown #
loop $-1 $-1 $331 $204 #
plane-surface $-1 38.020582783784761 -3.4509876619180631 50.356180660298364 0 0.82903758062907751 0.55919289150049634 1 0 0 forward_v I I I I #
loop $-1 $-1 $482 $130 #
coedge $-1 $329 $329 $330 $483 reversed $205 $-1 #
coedge $-1 $330 $330 $329 $483 forward $207 $-1 #
coedge $-1 $331 $331 $208 $332 forward $326 $-1 #
edge $-1 $484 8.8939051993451917e-016 $484 6.2831853071796013 $331 $485 forward 7 unknown #
loop $-1 $-1 $338 $209 #
plane-surface $-1 38.020582783784761 -3.4509876619180631 50.356180660298364 0 0.82903758062907751 0.55919289150049634 1 0 0 forward_v I I I I #
loop $-1 $-1 $486 $133 #
coedge $-1 $336 $336 $337 $487 reversed $210 $-1 #
coedge $-1 $337 $337 $336 $487 forward $212 $-1 #
coedge $-1 $338 $338 $213 $339 forward $333 $-1 #
edge $-1 $488 8.8939051993451917e-016 $488 6.2831853071796013 $338 $489 forward 7 unknown #
face $-1 $490 $491 $51 $-1 $492 reversed single #
loop $-1 $-1 $493 $214 #
plane-surface $-1 -69.526047547837763 0 0 1 0 0 0 0 -1 forward_v I I I I #
coedge $-1 $494 $351 $495 $496 forward $215 $-1 #
coedge $-1 $497 $217 $494 $498 forward $137 $-1 #
coedge $-1 $217 $497 $499 $500 forward $137 $-1 #
coedge $-1 $354 $353 $217 $347 reversed $355 $-1 #
edge $-1 $501 -29.150355510924392 $502 29.150355510924392 $346 $503 forward 7 unknown #
coedge $-1 $219 $218 $504 $505 forward $86 $-1 #
coedge $-1 $506 $507 $218 $350 reversed $491 $-1 #
edge $-1 $357 -69.526047547837763 $508 69.526047547837763 $349 $509 forward 7 unknown #
coedge $-1 $343 $510 $219 $352 reversed $215 $-1 #
edge $-1 $511 -69.526047547837763 $356 69.526047547837763 $351 $512 forward 7 unknown #
coedge $-1 $346 $220 $510 $513 forward $355 $-1 #
coedge $-1 $220 $346 $506 $514 reversed $355 $-1 #
loop $-1 $-1 $353 $490 #
vertex $-1 $221 $515 #
vertex $-1 $221 $516 #
straight-curve $-1 69.526047547837763 0 7.3788199625922468 0 1 0 I I #
face $-1 $517 $518 $52 $-1 $519 reversed single #
loop $-1 $-1 $520 $222 #
plane-surface $-1 -77.290258680936333 0 -5.75395728245417 1 0 0 0 0 -1 forward_v I I I I #
coedge $-1 $521 $225 $522 $523 reversed $141 $-1 #
coedge $-1 $225 $521 $368 $524 reversed $141 $-1 #
edge $-1 $370 4.1290946023160933 $525 7.3788199625922468 $225 $526 forward 7 unknown #
coedge $-1 $227 $226 $527 $528 reversed $89 $-1 #
coedge $-1 $529 $530 $226 $367 forward $531 $-1 #
edge $-1 $532 -7.3788199625922468 $371 -4.1290946023160933 $366 $533 forward 7 unknown #
coedge $-1 $534 $228 $363 $524 forward $223 $-1 #
coedge $-1 $228 $534 $529 $535 forward $223 $-1 #
vertex $-1 $364 $536 #
vertex $-1 $535 $537 #
straight-curve $-1 -69.526047547837763 0 -4.1290946023160933 0 -1 0 I I #
face $-1 $538 $539 $53 $-1 $540 reversed single #
loop $-1 $-1 $541 $230 #
plane-surface $-1 77.290258680936333 0 -5.75395728245417 -1 0 0 0 0 1 forward_v I I I I #
coedge $-1 $384 $383 $542 $543 forward $231 $-1 #
coedge $-1 $544 $233 $384 $545 reversed $145 $-1 #
coedge $-1 $233 $544 $546 $547 reversed $145 $-1 #
edge $-1 $548 -7.3788199625922468 $386 -4.1290946023160933 $233 $549 forward 7 unknown #
coedge $-1 $235 $234 $550 $551 reversed $92 $-1 #
coedge $-1 $552 $553 $235 $382 forward $554 $-1 #
edge $-1 $385 4.1290946023160933 $555 7.3788199625922468 $381 $556 forward 7 unknown #
coedge $-1 $376 $236 $553 $557 forward $231 $-1 #
coedge $-1 $236 $376 $377 $545 forward $231 $-1 #
vertex $-1 $382 $558 #
vertex $-1 $545 $559 #
straight-curve $-1 69.526047547837763 0 -4.1290946023160933 0 1 0 I I #
face $-1 $-1 $560 $54 $-1 $561 reversed single #
loop $-1 $-1 $244 $238 #
plane-surface $-1 0 0 7.3788199625922468 0 0 1 1 0 0 forward_v I I I I #
coedge $-1 $562 $563 $564 $565 reversed $239 $-1 #
coedge $-1 $566 $241 $243 $398 forward $149 $-1 #
coedge $-1 $241 $566 $562 $567 forward $149 $-1 #
coedge $-1 $564 $244 $241 $395 forward $389 $-1 #
edge $-1 $401 -2.6310211251514986 $568 27.485955546560469 $394 $569 forward 7 unknown #
coedge $-1 $570 $571 $242 $397 forward $560 $-1 #
edge $-1 $572 -54.855589774698096 $400 -48.817530354257627 $396 $573 forward 7 unknown #
edge $-1 $401 -10.033081780469391 $572 8.8817612989391469e-015 $243 $574 forward 7 unknown #
coedge $-1 $244 $564 $570 $575 forward $389 $-1 #
vertex $-1 $397 $576 #
vertex $-1 $245 $577 #
straight-curve $-1 -9.7964460855529865 -56.416998199845452 7.3788199625922459 0 1 0 I I #
coedge $-1 $403 $403 $-1 $578 reversed $248 $-1 #
edge $-1 $579 0 $579 6.2831853071796004 $249 $580 forward 7 unknown #
vertex $-1 $252 $581 #
ellipse-curve $-1 -33.890027422922557 -25.143967847179873 4.3597902523720107 0 -0.6018150307709319 0.79863550430605224 2 0 0 1 I I #
coedge $-1 $407 $407 $-1 $582 reversed $255 $-1 #
edge $-1 $583 0 $583 6.2831853071796004 $256 $584 forward 7 unknown #
vertex $-1 $259 $585 #
ellipse-curve $-1 -24.85493442140897 -25.143967847179873 4.3597902523720107 0 -0.6018150307709319 0.79863550430605224 2 0 0 1 I I #
coedge $-1 $411 $411 $-1 $586 reversed $262 $-1 #
edge $-1 $587 0 $587 6.2831853071796004 $263 $588 forward 7 unknown #
vertex $-1 $266 $589 #
ellipse-curve $-1 -15.819841419895383 -25.143967847179873 4.3597902523720107 0 -0.6018150307709319 0.79863550430605224 2 0 0 1 I I #
face $-1 $-1 $427 $58 $-1 $590 forward single #
loop $-1 $-1 $591 $267 #
plane-surface $-1 0 -29.150355510924392 0 0 1 0 0 0 1 forward_v I I I I #
coedge $-1 $592 $593 $594 $595 reversed $268 $-1 #
coedge $-1 $596 $270 $272 $425 forward $168 $-1 #
coedge $-1 $270 $596 $592 $597 forward $168 $-1 #
coedge $-1 $594 $273 $270 $422 forward $427 $-1 #
edge $-1 $429 -27.485955546560469 $598 2.6310211251514986 $421 $599 forward 7 unknown #
coedge $-1 $600 $601 $271 $424 forward $416 $-1 #
edge $-1 $602 -54.855589774698096 $428 -48.817530354257627 $423 $603 forward 7 unknown #
edge $-1 $429 -10.033081780469391 $602 8.8817612989391469e-015 $272 $604 forward 7 unknown #
coedge $-1 $273 $594 $600 $605 forward $427 $-1 #
loop $-1 $-1 $594 $415 #
vertex $-1 $424 $606 #
vertex $-1 $274 $607 #
straight-curve $-1 39.913422757264954 -56.416998199845452 7.3788199625922459 0 1 0 I I #
coedge $-1 $431 $431 $-1 $608 reversed $277 $-1 #
edge $-1 $609 0 $609 6.2831853071796004 $278 $610 forward 7 unknown #
vertex $-1 $281 $611 #
ellipse-curve $-1 15.819841419895383 -25.143967847179873 4.3597902523720107 0 -0.6018150307709319 0.79863550430605224 2 0 0 1 I I #
coedge $-1 $435 $435 $-1 $612 reversed $284 $-1 #
edge $-1 $613 0 $613 6.2831853071796004 $285 $614 forward 7 unknown #
vertex $-1 $288 $615 #
ellipse-curve $-1 24.85493442140897 -25.143967847179873 4.3597902523720107 0 -0.6018150307709319 0.79863550430605224 2 0 0 1 I I #
coedge $-1 $439 $439 $-1 $616 reversed $291 $-1 #
edge $-1 $617 0 $617 6.2831853071796004 $292 $618 forward 7 unknown #
vertex $-1 $295 $619 #
ellipse-curve $-1 33.890027422922557 -25.143967847179873 4.3597902523720107 0 -0.6018150307709319 0.79863550430605224 2 0 0 1 I I #
face $-1 $-1 $455 $62 $-1 $620 forward single #
loop $-1 $-1 $621 $296 #
plane-surface $-1 0 29.150355510924392 0 0 -1 0 0 0 -1 forward_v I I I I #
coedge $-1 $622 $623 $624 $625 reversed $297 $-1 #
coedge $-1 $626 $299 $301 $453 forward $187 $-1 #
coedge $-1 $299 $626 $622 $627 forward $187 $-1 #
coedge $-1 $624 $302 $299 $450 forward $455 $-1 #
edge $-1 $457 -27.732192867215815 $628 -10.28838991656896 $449 $629 forward 7 unknown #
coedge $-1 $630 $631 $300 $452 forward $444 $-1 #
edge $-1 $632 -62.033861647235682 $456 -56.677741930433328 $451 $633 forward 7 unknown #
edge $-1 $457 51.840063348026639 $632 58.300711021848741 $301 $634 forward 7 unknown #
coedge $-1 $302 $624 $630 $635 forward $455 $-1 #
loop $-1 $-1 $624 $443 #
vertex $-1 $452 $636 #
vertex $-1 $303 $637 #
straight-curve $-1 -46.742484259108203 55.914212418802592 7.3788199625922459 0 -1 0 I I #
coedge $-1 $459 $459 $-1 $638 reversed $306 $-1 #
edge $-1 $639 0 $639 6.2831853071796004 $307 $640 forward 7 unknown #
vertex $-1 $310 $641 #
ellipse-curve $-1 -41.758540558923386 27.343981384079122 4.7007601041910672 0 0.82903758062907751 0.55919289150049634 1 0 0 1 I I #
coedge $-1 $463 $463 $-1 $642 reversed $313 $-1 #
edge $-1 $643 0 $643 6.2831853071796004 $314 $644 forward 7 unknown #
vertex $-1 $317 $645 #
ellipse-curve $-1 -34.282625008646164 27.343981384079122 4.7007601041910672 0 0.82903758062907751 0.55919289150049634 1 0 0 1 I I #
face $-1 $-1 $646 $65 $-1 $647 reversed single #
loop $-1 $-1 $324 $318 #
plane-surface $-1 0 0 7.3788199625922468 0 0 1 1 0 0 forward_v I I I I #
coedge $-1 $648 $649 $650 $651 reversed $319 $-1 #
coedge $-1 $652 $321 $323 $477 forward $201 $-1 #
coedge $-1 $321 $652 $648 $653 forward $201 $-1 #
coedge $-1 $650 $324 $321 $474 forward $468 $-1 #
edge $-1 $480 10.288389916568953 $654 27.732192867215808 $473 $655 forward 7 unknown #
coedge $-1 $656 $657 $322 $476 forward $646 $-1 #
edge $-1 $658 -62.033861647235682 $479 -56.677741930433328 $475 $659 forward 7 unknown #
edge $-1 $480 51.840063348026639 $658 58.300711021848741 $323 $660 forward 7 unknown #
coedge $-1 $324 $650 $656 $661 forward $468 $-1 #
vertex $-1 $325 $662 #
vertex $-1 $325 $663 #
straight-curve $-1 29.298681308461333 55.914212418802592 7.3788199625922459 0 -1 0 I I #
coedge $-1 $482 $482 $-1 $664 reversed $328 $-1 #
edge $-1 $665 0 $665 6.2831853071796004 $329 $666 forward 7 unknown #
vertex $-1 $332 $667 #
ellipse-curve $-1 34.28262500864615 27.343981384079122 4.7007601041910672 0 0.82903758062907751 0.55919289150049634 1 0 0 1 I I #
coedge $-1 $486 $486 $-1 $668 reversed $335 $-1 #
edge $-1 $669 0 $669 6.2831853071796004 $336 $670 forward 7 unknown #
vertex $-1 $339 $671 #
ellipse-curve $-1 41.758540558923372 27.343981384079122 4.7007601041910672 0 0.82903758062907751 0.55919289150049634 1 0 0 1 I I #
face $-1 $-1 $355 $51 $-1 $672 reversed single #
loop $-1 $-1 $506 $340 #
plane-surface $-1 0 29.150355510924392 0 0 -1 0 0 0 -1 forward_v I I I I #
coedge $-1 $673 $504 $507 $674 forward $341 $-1 #
coedge $-1 $510 $343 $344 $498 reversed $215 $-1 #
coedge $-1 $504 $673 $343 $496 reversed $341 $-1 #
edge $-1 $511 -7.3788199625922468 $675 7.3788199625922468 $495 $676 forward 7 unknown #
coedge $-1 $345 $344 $673 $677 forward $137 $-1 #
edge $-1 $502 -69.526047547837763 $675 69.526047547837763 $494 $678 forward 7 unknown #
coedge $-1 $507 $506 $345 $500 reversed $491 $-1 #
edge $-1 $679 -69.526047547837763 $501 69.526047547837763 $499 $680 forward 7 unknown #
vertex $-1 $347 $681 #
vertex $-1 $513 $682 #
straight-curve $-1 69.526047547837763 0 -7.3788199625922468 0 -1 0 I I #
coedge $-1 $493 $495 $348 $505 reversed $341 $-1 #
edge $-1 $508 -29.150355510924392 $511 29.150355510924392 $504 $683 forward 7 unknown #
coedge $-1 $499 $349 $354 $514 forward $491 $-1 #
coedge $-1 $349 $499 $493 $674 reversed $491 $-1 #
vertex $-1 $350 $684 #
straight-curve $-1 0 29.150355510924392 7.3788199625922468 -1 0 0 I I #
coedge $-1 $351 $494 $353 $513 reversed $215 $-1 #
vertex $-1 $505 $685 #
straight-curve $-1 0 -29.150355510924392 7.3788199625922468 1 0 0 I I #
edge $-1 $356 -7.3788199625922468 $502 7.3788199625922468 $353 $686 forward 7 unknown #
edge $-1 $357 -7.3788199625922468 $501 7.3788199625922468 $354 $687 forward 7 unknown #
point $-1 69.526047547837763 -29.150355510924392 7.3788199625922468 #
point $-1 69.526047547837763 29.150355510924392 7.3788199625922468 #
face $-1 $-1 $531 $52 $-1 $688 reversed single #
loop $-1 $-1 $527 $359 #
plane-surface $-1 0 0 -7.3788199625922468 0 0 1 1 0 0 forward_v I I I I #
coedge $-1 $689 $690 $521 $691 forward $360 $-1 #
coedge $-1 $363 $362 $520 $691 reversed $141 $-1 #
coedge $-1 $527 $692 $362 $523 forward $518 $-1 #
edge $-1 $693 -77.290258680936333 $525 -69.526047547837763 $362 $694 forward 7 unknown #
edge $-1 $370 -3.882105566549285 $695 3.882105566549285 $363 $696 forward 7 unknown #
vertex $-1 $364 $697 #
straight-curve $-1 -69.526047547837763 29.150355510924392 0 0 0 -1 I I #
coedge $-1 $698 $522 $365 $528 forward $518 $-1 #
edge $-1 $525 -29.150355510924392 $532 29.150355510924392 $527 $699 forward 7 unknown #
coedge $-1 $700 $366 $369 $535 reversed $531 $-1 #
coedge $-1 $366 $700 $698 $701 reversed $531 $-1 #
loop $-1 $-1 $366 $517 #
vertex $-1 $701 $702 #
straight-curve $-1 -69.526047547837763 -29.150355510924392 0 0 0 1 I I #
coedge $-1 $369 $368 $690 $703 forward $223 $-1 #
edge $-1 $704 -3.882105566549285 $371 3.882105566549285 $529 $705 forward 7 unknown #
point $-1 -69.526047547837763 29.150355510924392 -4.1290946023160933 #
point $-1 -69.526047547837763 -29.150355510924392 -4.1290946023160933 #
face $-1 $-1 $554 $53 $-1 $706 reversed single #
loop $-1 $-1 $550 $373 #
plane-surface $-1 0 0 -7.3788199625922468 0 0 1 1 0 0 forward_v I I I I #
coedge $-1 $707 $542 $708 $709 forward $374 $-1 #
coedge $-1 $541 $710 $376 $543 reversed $374 $-1 #
edge $-1 $711 -29.150355510924392 $712 29.150355510924392 $542 $713 forward 7 unknown #
coedge $-1 $378 $377 $710 $714 forward $145 $-1 #
edge $-1 $712 -3.882105566549285 $386 3.882105566549285 $377 $715 forward 7 unknown #
coedge $-1 $716 $550 $378 $547 forward $539 $-1 #
edge $-1 $548 -3.882105566549285 $717 3.882105566549285 $378 $718 forward 7 unknown #
vertex $-1 $547 $719 #
straight-curve $-1 69.526047547837763 29.150355510924392 0 0 0 1 I I #
coedge $-1 $546 $720 $380 $551 forward $539 $-1 #
edge $-1 $555 -29.150355510924392 $548 29.150355510924392 $550 $721 forward 7 unknown #
coedge $-1 $708 $381 $720 $722 reversed $554 $-1 #
coedge $-1 $381 $708 $383 $557 reversed $554 $-1 #
loop $-1 $-1 $381 $538 #
vertex $-1 $382 $723 #
straight-curve $-1 69.526047547837763 -29.150355510924392 0 0 0 -1 I I #
edge $-1 $385 -3.882105566549285 $711 3.882105566549285 $553 $724 forward 7 unknown #
point $-1 69.526047547837763 -29.150355510924392 -4.1290946023160933 #
point $-1 69.526047547837763 29.150355510924392 -4.1290946023160933 #
loop $-1 $-1 $396 $388 #
plane-surface $-1 0 -29.150355510924392 0 0 1 0 0 0 1 forward_v I I I I #
coedge $-1 $563 $391 $393 $567 reversed $239 $-1 #
coedge $-1 $391 $562 $725 $726 reversed $239 $-1 #
coedge $-1 $399 $394 $391 $565 forward $389 $-1 #
edge $-1 $568 -35.279418016410105 $727 -27.26664268892106 $564 $728 forward 7 unknown #
coedge $-1 $393 $392 $571 $729 reversed $149 $-1 #
edge $-1 $730 -8.8817612989391469e-015 $568 10.033081780469391 $562 $731 forward 7 unknown #
vertex $-1 $395 $732 #
straight-curve $-1 -12.427467210704485 -21.13758018343535 7.3788199625922468 -1 0 0 I I #
coedge $-1 $725 $396 $399 $575 reversed $560 $-1 #
coedge $-1 $396 $725 $566 $729 forward $560 $-1 #
vertex $-1 $397 $733 #
straight-curve $-1 -9.7964460855529865 -29.150355510924392 56.196350316849873 0 0 1 I I #
straight-curve $-1 -9.7964460855529865 -29.150355510924385 1.3407605421517843 0 -0.79863550430605224 -0.6018150307709319 I I #
edge $-1 $727 -39.913422757264954 $400 -9.7964460855529865 $570 $734 forward 7 unknown #
point $-1 -9.7964460855529865 -29.150355510924392 7.3788199625922468 #
point $-1 -9.7964460855529865 -21.137580183435347 7.3788199625922459 #
edge $-1 $735 1 $735 0 $403 $-1 forward 7 unknown #
vertex $-1 $404 $736 #
ellipse-curve $-1 -33.890027422922557 -21.527971776188306 -0.43879851339156661 0 -0.6018150307709319 0.79863550430605224 2 0 0 1 I I #
point $-1 -31.890027422922557 -25.143967847179884 4.3597902523720231 #
edge $-1 $737 1 $737 0 $407 $-1 forward 7 unknown #
vertex $-1 $408 $738 #
ellipse-curve $-1 -24.85493442140897 -21.527971776188306 -0.43879851339156661 0 -0.6018150307709319 0.79863550430605224 2 0 0 1 I I #
point $-1 -22.85493442140897 -25.143967847179884 4.3597902523720231 #
edge $-1 $739 1 $739 0 $411 $-1 forward 7 unknown #
vertex $-1 $412 $740 #
ellipse-curve $-1 -15.819841419895383 -21.527971776188306 -0.43879851339156661 0 -0.6018150307709319 0.79863550430605224 2 0 0 1 I I #
point $-1 -13.819841419895383 -25.143967847179884 4.3597902523720231 #
plane-surface $-1 0 0 7.3788199625922468 0 0 1 1 0 0 forward_v I I I I #
coedge $-1 $601 $600 $593 $741 forward $416 $-1 #
coedge $-1 $593 $418 $420 $597 reversed $268 $-1 #
coedge $-1 $418 $592 $591 $741 reversed $268 $-1 #
coedge $-1 $426 $421 $418 $595 forward $427 $-1 #
edge $-1 $598 -35.279418016410105 $742 -27.26664268892106 $594 $743 forward 7 unknown #
coedge $-1 $420 $419 $601 $744 reversed $168 $-1 #
edge $-1 $745 -8.8817612989391469e-015 $598 10.033081780469391 $592 $746 forward 7 unknown #
vertex $-1 $422 $747 #
straight-curve $-1 12.427467210704485 -21.13758018343535 7.3788199625922468 -1 0 0 I I #
coedge $-1 $591 $423 $426 $605 reversed $416 $-1 #
coedge $-1 $423 $591 $596 $744 forward $416 $-1 #
vertex $-1 $424 $748 #
straight-curve $-1 39.913422757264954 -29.150355510924392 56.196350316849873 0 0 1 I I #
straight-curve $-1 39.913422757264954 -29.150355510924385 1.3407605421517843 0 -0.79863550430605224 -0.6018150307709319 I I #
edge $-1 $742 9.7964460855529865 $428 39.913422757264954 $600 $749 forward 7 unknown #
point $-1 39.913422757264954 -29.150355510924392 7.3788199625922468 #
point $-1 39.913422757264954 -21.137580183435347 7.3788199625922459 #
edge $-1 $750 1 $750 0 $431 $-1 forward 7 unknown #
vertex $-1 $432 $751 #
ellipse-curve $-1 15.819841419895383 -21.527971776188306 -0.43879851339156661 0 -0.6018150307709319 0.79863550430605224 2 0 0 1 I I #
point $-1 17.819841419895383 -25.143967847179884 4.3597902523720231 #
edge $-1 $752 1 $752 0 $435 $-1 forward 7 unknown #
vertex $-1 $436 $753 #
ellipse-curve $-1 24.85493442140897 -21.527971776188306 -0.43879851339156661 0 -0.6018150307709319 0.79863550430605224 2 0 0 1 I I #
point $-1 26.85493442140897 -25.143967847179884 4.3597902523720231 #
edge $-1 $754 1 $754 0 $439 $-1 forward 7 unknown #
vertex $-1 $440 $755 #
ellipse-curve $-1 33.890027422922557 -21.527971776188306 -0.43879851339156661 0 -0.6018150307709319 0.79863550430605224 2 0 0 1 I I #
point $-1 35.890027422922557 -25.143967847179884 4.3597902523720231 #
plane-surface $-1 0 0 7.3788199625922468 0 0 1 1 0 0 forward_v I I I I #
coedge $-1 $631 $630 $623 $756 forward $444 $-1 #
coedge $-1 $623 $446 $448 $627 reversed $297 $-1 #
coedge $-1 $446 $622 $621 $756 reversed $297 $-1 #
coedge $-1 $454 $449 $446 $625 forward $455 $-1 #
edge $-1 $628 -30.376605161568737 $757 -26.7638569078782 $624 $758 forward 7 unknown #
coedge $-1 $448 $447 $631 $759 reversed $187 $-1 #
edge $-1 $760 -58.300711021848741 $628 -51.840063348026639 $622 $761 forward 7 unknown #
vertex $-1 $450 $762 #
straight-curve $-1 -19.010291391892387 25.537607257233851 7.3788199625922424 1 0 0 I I #
coedge $-1 $621 $451 $454 $635 reversed $444 $-1 #
coedge $-1 $451 $621 $626 $759 forward $444 $-1 #
vertex $-1 $452 $763 #
straight-curve $-1 -46.742484259108203 29.150355510924392 64.056561893025574 0 0 1 I I #
straight-curve $-1 -46.742484259108203 -3.4509876619180631 50.356180660298364 0 0.55919289150049634 -0.82903758062907751 I I #
edge $-1 $757 29.298681308461347 $456 46.742484259108203 $630 $764 forward 7 unknown #
point $-1 -46.742484259108203 29.150355510924392 7.3788199625922468 #
point $-1 -46.742484259108203 25.537607257233855 7.3788199625922459 #
edge $-1 $765 1 $765 0 $459 $-1 forward 7 unknown #
vertex $-1 $460 $766 #
ellipse-curve $-1 -41.758540558923386 24.706251841218794 2.921589117817792 0 0.82903758062907751 0.55919289150049634 1 0 0 1 I I #
point $-1 -40.758540558923386 27.343981384079107 4.7007601041910565 #
edge $-1 $767 1 $767 0 $463 $-1 forward 7 unknown #
vertex $-1 $464 $768 #
ellipse-curve $-1 -34.282625008646164 24.706251841218794 2.921589117817792 0 0.82903758062907751 0.55919289150049634 1 0 0 1 I I #
point $-1 -33.282625008646164 27.343981384079107 4.7007601041910565 #
loop $-1 $-1 $475 $467 #
plane-surface $-1 0 29.150355510924392 0 0 -1 0 0 0 -1 forward_v I I I I #
coedge $-1 $649 $470 $472 $653 reversed $319 $-1 #
coedge $-1 $470 $648 $769 $770 reversed $319 $-1 #
coedge $-1 $478 $473 $470 $651 forward $468 $-1 #
edge $-1 $654 -30.376605161568737 $771 -26.7638569078782 $650 $772 forward 7 unknown #
coedge $-1 $472 $471 $657 $773 reversed $201 $-1 #
edge $-1 $774 -58.300711021848741 $654 -51.840063348026639 $648 $775 forward 7 unknown #
vertex $-1 $474 $776 #
straight-curve $-1 19.01029139189238 25.537607257233851 7.3788199625922424 1 0 0 I I #
coedge $-1 $769 $475 $478 $661 reversed $646 $-1 #
coedge $-1 $475 $769 $652 $773 forward $646 $-1 #
vertex $-1 $476 $777 #
straight-curve $-1 29.298681308461333 29.150355510924392 64.056561893025574 0 0 1 I I #
straight-curve $-1 29.298681308461333 -3.4509876619180631 50.356180660298364 0 0.55919289150049634 -0.82903758062907751 I I #
edge $-1 $771 -46.742484259108188 $479 -29.298681308461333 $656 $778 forward 7 unknown #
point $-1 29.298681308461333 29.150355510924392 7.3788199625922468 #
point $-1 29.298681308461333 25.537607257233855 7.3788199625922459 #
edge $-1 $779 1 $779 0 $482 $-1 forward 7 unknown #
vertex $-1 $483 $780 #
ellipse-curve $-1 34.28262500864615 24.706251841218794 2.921589117817792 0 0.82903758062907751 0.55919289150049634 1 0 0 1 I I #
point $-1 35.28262500864615 27.343981384079107 4.7007601041910565 #
edge $-1 $781 1 $781 0 $486 $-1 forward 7 unknown #
vertex $-1 $487 $782 #
ellipse-curve $-1 41.758540558923372 24.706251841218794 2.921589117817792 0 0.82903758062907751 0.55919289150049634 1 0 0 1 I I #
point $-1 42.758540558923372 27.343981384079107 4.7007601041910565 #
plane-surface $-1 69.526047547837763 0 0 -1 0 0 0 0 1 forward_v I I I I #
coedge $-1 $495 $493 $497 $677 reversed $341 $-1 #
edge $-1 $508 -7.3788199625922468 $679 7.3788199625922468 $507 $783 forward 7 unknown #
vertex $-1 $677 $784 #
straight-curve $-1 -69.526047547837763 -29.150355510924392 0 0 0 -1 I I #
edge $-1 $675 -29.150355510924392 $679 29.150355510924392 $673 $785 forward 7 unknown #
straight-curve $-1 0 -29.150355510924392 -7.3788199625922468 -1 0 0 I I #
vertex $-1 $500 $786 #
straight-curve $-1 0 29.150355510924392 -7.3788199625922468 1 0 0 I I #
point $-1 69.526047547837763 29.150355510924392 -7.3788199625922468 #
point $-1 69.526047547837763 -29.150355510924392 -7.3788199625922468 #
straight-curve $-1 -69.526047547837763 0 7.3788199625922468 0 -1 0 I I #
point $-1 -69.526047547837763 29.150355510924392 7.3788199625922468 #
point $-1 -69.526047547837763 -29.150355510924392 7.3788199625922468 #
straight-curve $-1 69.526047547837763 -29.150355510924392 0 0 0 -1 I I #
straight-curve $-1 69.526047547837763 29.150355510924392 0 0 0 -1 I I #
plane-surface $-1 0 -29.150355510924392 0 0 1 0 0 0 1 forward_v I I I I #
coedge $-1 $787 $520 $692 $788 reversed $360 $-1 #
coedge $-1 $520 $787 $534 $703 reversed $360 $-1 #
edge $-1 $695 -1.6248626801380768 $693 1.6248626801380768 $521 $789 forward 7 unknown #
coedge $-1 $522 $698 $689 $788 forward $518 $-1 #
vertex $-1 $523 $790 #
straight-curve $-1 0 29.150355510924392 -7.3788199625922468 1 0 0 I I #
vertex $-1 $524 $791 #
straight-curve $-1 -73.408153114387048 29.150355510924392 -4.1290946023160933 -1 0 0 I I #
point $-1 -69.526047547837763 29.150355510924392 -7.3788199625922468 #
coedge $-1 $692 $527 $530 $701 forward $518 $-1 #
straight-curve $-1 -69.526047547837763 0 -7.3788199625922468 0 -1 0 I I #
coedge $-1 $530 $529 $787 $792 forward $531 $-1 #
edge $-1 $532 -3.882105566549285 $793 3.882105566549285 $530 $794 forward 7 unknown #
point $-1 -69.526047547837763 -29.150355510924392 -7.3788199625922468 #
edge $-1 $695 -29.150355510924392 $704 29.150355510924392 $690 $795 forward 7 unknown #
vertex $-1 $703 $796 #
straight-curve $-1 -73.408153114387048 -29.150355510924392 -4.1290946023160933 1 0 0 I I #
plane-surface $-1 0 -29.150355510924392 0 0 1 0 0 0 1 forward_v I I I I #
coedge $-1 $710 $541 $716 $797 reversed $374 $-1 #
coedge $-1 $553 $552 $541 $709 reversed $554 $-1 #
edge $-1 $711 -1.6248626801380768 $798 1.6248626801380768 $541 $799 forward 7 unknown #
coedge $-1 $542 $707 $544 $714 reversed $374 $-1 #
vertex $-1 $543 $800 #
vertex $-1 $543 $801 #
straight-curve $-1 77.290258680936333 0 -4.1290946023160933 0 1 0 I I #
edge $-1 $712 -1.6248626801380768 $717 1.6248626801380768 $710 $802 forward 7 unknown #
straight-curve $-1 73.408153114387048 29.150355510924392 -4.1290946023160933 -1 0 0 I I #
coedge $-1 $720 $546 $707 $797 forward $539 $-1 #
vertex $-1 $797 $803 #
straight-curve $-1 73.408153114387048 29.150355510924392 -7.3788199625922468 1 0 0 I I #
point $-1 69.526047547837763 29.150355510924392 -7.3788199625922468 #
coedge $-1 $550 $716 $552 $722 forward $539 $-1 #
straight-curve $-1 69.526047547837763 0 -7.3788199625922468 0 1 0 I I #
edge $-1 $798 -3.882105566549285 $555 3.882105566549285 $552 $804 forward 7 unknown #
point $-1 69.526047547837763 -29.150355510924392 -7.3788199625922468 #
straight-curve $-1 73.408153114387048 -29.150355510924392 -4.1290946023160933 1 0 0 I I #
coedge $-1 $571 $570 $563 $726 forward $560 $-1 #
edge $-1 $727 48.817530354257627 $730 54.855589774698096 $725 $805 forward 7 unknown #
vertex $-1 $575 $806 #
straight-curve $-1 -39.913422757264954 -56.416998199845452 7.3788199625922459 0 -1 0 I I #
edge $-1 $730 -27.485955546560469 $572 2.6310211251514986 $571 $807 forward 7 unknown #
vertex $-1 $729 $808 #
straight-curve $-1 -39.913422757264954 -29.150355510924385 1.3407605421517843 0 0.79863550430605224 0.6018150307709319 I I #
point $-1 -39.913422757264954 -21.137580183435347 7.3788199625922459 #
point $-1 -9.7964460855529865 -29.150355510924392 1.340760542151779 #
straight-curve $-1 0 -29.150355510924392 7.3788199625922468 1 0 0 I I #
vertex $-1 $578 $809 #
point $-1 -31.890027422922557 -21.527971776188306 -0.43879851339156661 #
vertex $-1 $582 $810 #
point $-1 -22.85493442140897 -21.527971776188306 -0.43879851339156661 #
vertex $-1 $586 $811 #
point $-1 -13.819841419895383 -21.527971776188306 -0.43879851339156661 #
edge $-1 $742 48.817530354257627 $745 54.855589774698096 $591 $812 forward 7 unknown #
vertex $-1 $605 $813 #
straight-curve $-1 9.7964460855529865 -56.416998199845452 7.3788199625922459 0 -1 0 I I #
edge $-1 $745 -2.6310211251514986 $602 27.485955546560469 $601 $814 forward 7 unknown #
vertex $-1 $744 $815 #
straight-curve $-1 9.7964460855529865 -29.150355510924385 1.3407605421517843 0 0.79863550430605224 0.6018150307709319 I I #
point $-1 9.7964460855529865 -21.137580183435347 7.3788199625922459 #
point $-1 39.913422757264954 -29.150355510924392 1.340760542151779 #
straight-curve $-1 0 -29.150355510924392 7.3788199625922468 1 0 0 I I #
vertex $-1 $608 $816 #
point $-1 17.819841419895383 -21.527971776188306 -0.43879851339156661 #
vertex $-1 $612 $817 #
point $-1 26.85493442140897 -21.527971776188306 -0.43879851339156661 #
vertex $-1 $616 $818 #
point $-1 35.890027422922557 -21.527971776188306 -0.43879851339156661 #
edge $-1 $757 56.677741930433328 $760 62.033861647235682 $621 $819 forward 7 unknown #
vertex $-1 $635 $820 #
straight-curve $-1 -29.298681308461347 55.914212418802592 7.3788199625922459 0 1 0 I I #
edge $-1 $760 10.28838991656896 $632 27.732192867215815 $631 $821 forward 7 unknown #
vertex $-1 $759 $822 #
straight-curve $-1 -29.298681308461347 -3.4509876619180631 50.356180660298364 0 -0.55919289150049634 0.82903758062907751 I I #
point $-1 -29.298681308461347 25.537607257233855 7.3788199625922459 #
point $-1 -46.742484259108203 29.150355510924392 2.0227002457898919 #
straight-curve $-1 0 29.150355510924392 7.3788199625922468 -1 0 0 I I #
vertex $-1 $638 $823 #
point $-1 -40.758540558923386 24.706251841218794 2.921589117817792 #
vertex $-1 $642 $824 #
point $-1 -33.282625008646164 24.706251841218794 2.921589117817792 #
coedge $-1 $657 $656 $649 $770 forward $646 $-1 #
edge $-1 $771 56.677741930433328 $774 62.033861647235682 $769 $825 forward 7 unknown #
vertex $-1 $661 $826 #
straight-curve $-1 46.742484259108188 55.914212418802592 7.3788199625922459 0 1 0 I I #
edge $-1 $774 -27.732192867215808 $658 -10.288389916568953 $657 $827 forward 7 unknown #
vertex $-1 $773 $828 #
straight-curve $-1 46.742484259108188 -3.4509876619180631 50.356180660298364 0 -0.55919289150049634 0.82903758062907751 I I #
point $-1 46.742484259108188 25.537607257233855 7.3788199625922459 #
point $-1 29.298681308461333 29.150355510924392 2.0227002457898919 #
straight-curve $-1 0 29.150355510924392 7.3788199625922468 -1 0 0 I I #
vertex $-1 $664 $829 #
point $-1 35.28262500864615 24.706251841218794 2.921589117817792 #
vertex $-1 $668 $830 #
point $-1 42.758540558923372 24.706251841218794 2.921589117817792 #
straight-curve $-1 -69.526047547837763 29.150355510924392 0 0 0 -1 I I #
point $-1 -69.526047547837763 -29.150355510924392 -7.3788199625922468 #
straight-curve $-1 -69.526047547837763 0 -7.3788199625922468 0 1 0 I I #
point $-1 -69.526047547837763 29.150355510924392 -7.3788199625922468 #
coedge $-1 $690 $689 $700 $792 reversed $360 $-1 #
edge $-1 $793 -29.150355510924392 $693 29.150355510924392 $689 $831 forward 7 unknown #
straight-curve $-1 -77.290258680936333 29.150355510924392 -5.75395728245417 0 0 -1 I I #
point $-1 -77.290258680936333 29.150355510924392 -7.3788199625922468 #
point $-1 -77.290258680936333 29.150355510924392 -4.1290946023160933 #
edge $-1 $704 -1.6248626801380768 $793 1.6248626801380768 $787 $832 forward 7 unknown #
vertex $-1 $788 $833 #
straight-curve $-1 -73.408153114387048 -29.150355510924392 -7.3788199625922468 -1 0 0 I I #
straight-curve $-1 -77.290258680936333 0 -4.1290946023160933 0 -1 0 I I #
point $-1 -77.290258680936333 -29.150355510924392 -4.1290946023160933 #
edge $-1 $717 -29.150355510924392 $798 29.150355510924392 $707 $834 forward 7 unknown #
vertex $-1 $709 $835 #
straight-curve $-1 77.290258680936333 -29.150355510924392 -5.75395728245417 0 0 -1 I I #
point $-1 77.290258680936333 -29.150355510924392 -4.1290946023160933 #
point $-1 77.290258680936333 29.150355510924392 -4.1290946023160933 #
straight-curve $-1 77.290258680936333 29.150355510924392 -5.75395728245417 0 0 -1 I I #
point $-1 77.290258680936333 29.150355510924392 -7.3788199625922468 #
straight-curve $-1 73.408153114387048 -29.150355510924392 -7.3788199625922468 -1 0 0 I I #
straight-curve $-1 -39.913422757264954 -29.150355510924392 56.196350316849873 0 0 -1 I I #
point $-1 -39.913422757264954 -29.150355510924392 7.3788199625922468 #
straight-curve $-1 -12.427467210704485 -29.150355510924392 1.3407605421517781 1 0 0 I I #
point $-1 -39.913422757264954 -29.150355510924392 1.340760542151779 #
point $-1 -33.890027422922557 -20.32434171464644 -2.0360695220036709 #
point $-1 -24.85493442140897 -20.32434171464644 -2.0360695220036709 #
point $-1 -15.819841419895383 -20.32434171464644 -2.0360695220036709 #
straight-curve $-1 9.7964460855529865 -29.150355510924392 56.196350316849873 0 0 -1 I I #
point $-1 9.7964460855529865 -29.150355510924392 7.3788199625922468 #
straight-curve $-1 12.427467210704485 -29.150355510924392 1.3407605421517781 1 0 0 I I #
point $-1 9.7964460855529865 -29.150355510924392 1.340760542151779 #
point $-1 15.819841419895383 -20.32434171464644 -2.0360695220036709 #
point $-1 24.85493442140897 -20.32434171464644 -2.0360695220036709 #
point $-1 33.890027422922557 -20.32434171464644 -2.0360695220036709 #
straight-curve $-1 -29.298681308461347 29.150355510924392 64.056561893025574 0 0 -1 I I #
point $-1 -29.298681308461347 29.150355510924392 7.3788199625922468 #
straight-curve $-1 -19.010291391892387 29.150355510924392 2.0227002457898848 -1 0 0 I I #
point $-1 -29.298681308461347 29.150355510924392 2.0227002457898919 #
point $-1 -41.758540558923386 23.877214260589717 2.362396226317296 #
point $-1 -34.282625008646164 23.877214260589717 2.362396226317296 #
straight-curve $-1 46.742484259108188 29.150355510924392 64.056561893025574 0 0 -1 I I #
point $-1 46.742484259108188 29.150355510924392 7.3788199625922468 #
straight-curve $-1 19.01029139189238 29.150355510924392 2.0227002457898848 -1 0 0 I I #
point $-1 46.742484259108188 29.150355510924392 2.0227002457898919 #
point $-1 34.28262500864615 23.877214260589717 2.362396226317296 #
point $-1 41.758540558923372 23.877214260589717 2.362396226317296 #
straight-curve $-1 -77.290258680936333 0 -7.3788199625922468 0 1 0 I I #
straight-curve $-1 -77.290258680936333 -29.150355510924392 -5.75395728245417 0 0 -1 I I #
point $-1 -77.290258680936333 -29.150355510924392 -7.3788199625922468 #
straight-curve $-1 77.290258680936333 0 -7.3788199625922468 0 -1 0 I I #
point $-1 77.290258680936333 -29.150355510924392 -7.3788199625922468 #
End-of-ACIS-data 