500 0 12 0           
7 Unknown 11 ACIS 5.0 NT 24 Thu Mar 25 16:22:33 1999 
-1 9.9999999999999995e-007 1e-010 
body $-1 $12 $-1 $13 #
body $-1 $14 $-1 $15 #
body $-1 $16 $-1 $17 #
body $-1 $18 $-1 $19 #
body $-1 $20 $-1 $21 #
body $-1 $22 $-1 $23 #
body $-1 $24 $-1 $25 #
body $-1 $26 $-1 $27 #
body $-1 $28 $-1 $29 #
body $-1 $30 $-1 $31 #
body $-1 $32 $-1 $33 #
body $-1 $34 $-1 $35 #
lump $-1 $-1 $36 $0 #
transform $-1 1 0 0 0 1 0 0 0 1 48.608661152989285 33.842261631615486 8.9813625644254369 1 rotate no_reflect no_shear #
lump $-1 $-1 $37 $1 #
transform $-1 1 0 0 0 1 0 0 0 1 48.608661152989285 33.842261631615486 8.9813625644254369 1 rotate no_reflect no_shear #
lump $-1 $-1 $38 $2 #
transform $-1 1 0 0 0 1 0 0 0 1 48.608661152989285 33.842261631615486 8.9813625644254369 1 rotate no_reflect no_shear #
lump $-1 $-1 $39 $3 #
transform $-1 1 0 0 0 1 0 0 0 1 48.608661152989285 33.842261631615486 8.9813625644254369 1 rotate no_reflect no_shear #
lump $-1 $-1 $40 $4 #
transform $-1 1 0 0 0 1 0 0 0 1 48.608661152989285 33.842261631615486 8.9813625644254369 1 rotate no_reflect no_shear #
lump $-1 $-1 $41 $5 #
transform $-1 1 0 0 0 1 0 0 0 1 48.608661152989285 33.842261631615486 8.9813625644254369 1 rotate no_reflect no_shear #
lump $-1 $-1 $42 $6 #
transform $-1 1 0 0 0 1 0 0 0 1 48.608661152989285 33.842261631615486 8.9813625644254369 1 rotate no_reflect no_shear #
lump $-1 $-1 $43 $7 #
transform $-1 1 0 0 0 1 0 0 0 1 48.608661152989285 33.842261631615486 8.9813625644254369 1 rotate no_reflect no_shear #
lump $-1 $-1 $44 $8 #
transform $-1 1 0 0 0 1 0 0 0 1 48.608661152989285 33.842261631615486 8.9813625644254369 1 rotate no_reflect no_shear #
lump $-1 $-1 $45 $9 #
transform $-1 1 0 0 0 1 0 0 0 1 48.608661152989285 33.842261631615486 8.9813625644254369 1 rotate no_reflect no_shear #
lump $-1 $-1 $46 $10 #
transform $-1 1 0 0 0 1 0 0 0 1 48.608661152989285 33.842261631615486 8.9813625644254369 1 rotate no_reflect no_shear #
lump $-1 $-1 $47 $11 #
transform $-1 1 0 0 0 1 0 0 0 1 48.608661152989285 33.842261631615486 8.9813625644254369 1 rotate no_reflect no_shear #
shell $-1 $-1 $-1 $48 $-1 $12 #
shell $-1 $-1 $-1 $49 $-1 $14 #
shell $-1 $-1 $-1 $50 $-1 $16 #
shell $-1 $-1 $-1 $51 $-1 $18 #
shell $-1 $-1 $-1 $52 $-1 $20 #
shell $-1 $-1 $-1 $53 $-1 $22 #
shell $-1 $-1 $-1 $54 $-1 $24 #
shell $-1 $-1 $-1 $55 $-1 $26 #
shell $-1 $-1 $-1 $56 $-1 $28 #
shell $-1 $-1 $-1 $57 $-1 $30 #
shell $-1 $-1 $-1 $58 $-1 $32 #
shell $-1 $-1 $-1 $59 $-1 $34 #
face $-1 $60 $61 $36 $-1 $62 forward single #
face $-1 $63 $64 $37 $-1 $65 forward single #
face $-1 $66 $67 $38 $-1 $68 forward single #
face $-1 $69 $70 $39 $-1 $71 reversed single #
face $-1 $72 $73 $40 $-1 $74 forward single #
face $-1 $75 $76 $41 $-1 $77 forward single #
face $-1 $78 $79 $42 $-1 $80 reversed single #
face $-1 $81 $82 $43 $-1 $83 forward single #
face $-1 $84 $85 $44 $-1 $86 forward single #
face $-1 $87 $88 $45 $-1 $89 reversed single #
face $-1 $90 $91 $46 $-1 $92 forward single #
face $-1 $93 $94 $47 $-1 $95 forward single #
face $-1 $96 $97 $36 $-1 $98 reversed single #
loop $-1 $-1 $99 $48 #
plane-surface $-1 0 0 8.9813625644254369 0 0 1 1 0 0 forward_v I I I I #
face $-1 $100 $101 $37 $-1 $102 reversed single #
loop $-1 $-1 $103 $49 #
plane-surface $-1 0 -33.842261631615486 0 0 1 0 0 0 1 forward_v I I I I #
face $-1 $104 $105 $38 $-1 $106 forward single #
loop $-1 $-1 $107 $50 #
plane-surface $-1 0 33.842261631615486 0 0 -1 0 0 0 -1 forward_v I I I I #
face $-1 $108 $109 $39 $-1 $110 reversed single #
loop $-1 $-1 $111 $51 #
plane-surface $-1 -126.24986773776588 -22.039687174306568 64.107058317820773 0 1 0 -0.79863551827123203 0 0.60181501223851219 forward_v I I I I #
face $-1 $112 $113 $40 $-1 $114 forward single #
loop $-1 $115 $116 $52 #
cone-surface $-1 -46.751094568913047 -19.929867627082967 6.8509934768428877 0.79863551827123203 0 -0.60181501223851219 0.3009075061192561 0 0.39931775913561601 1 I I 0 1 0.5 forward I I I I #
face $-1 $117 $118 $41 $-1 $119 forward single #
loop $-1 $120 $121 $53 #
cone-surface $-1 -46.751094568913047 -16.765138306247565 6.8509934768428877 0.79863551827123203 0 -0.60181501223851219 0.3009075061192561 0 0.39931775913561601 1 I I 0 1 0.5 forward I I I I #
face $-1 $122 $123 $42 $-1 $124 reversed single #
loop $-1 $-1 $125 $54 #
plane-surface $-1 -126.24986773776588 19.96016369612164 64.107058317820773 0 1 0 -0.79863551827123203 0 0.60181501223851219 forward_v I I I I #
face $-1 $126 $127 $43 $-1 $128 forward single #
loop $-1 $129 $130 $55 #
cone-surface $-1 -46.751094568913047 22.069983243345234 6.8509934768428877 0.79863551827123203 0 -0.60181501223851219 0.3009075061192561 0 0.39931775913561601 1 I I 0 1 0.5 forward I I I I #
face $-1 $131 $132 $44 $-1 $133 forward single #
loop $-1 $134 $135 $56 #
cone-surface $-1 -46.751094568913047 25.23471256418064 6.8509934768428877 0.79863551827123203 0 -0.60181501223851219 0.3009075061192561 0 0.39931775913561601 1 I I 0 1 0.5 forward I I I I #
face $-1 $136 $137 $45 $-1 $138 reversed single #
loop $-1 $-1 $139 $57 #
plane-surface $-1 77.193621434423065 27.344532111404249 138.870336357648 0 -1 0 -0.83867057594974714 0 -0.54463902268945019 forward_v I I I I #
face $-1 $140 $141 $46 $-1 $142 forward single #
loop $-1 $143 $144 $58 #
cone-surface $-1 46.132351900904162 19.986124917896085 6.0453241228674095 -0.83867057594974714 0 -0.54463902268945019 0.54463902268945019 0 -0.83867057594974714 1 I I 0 1 1 forward I I I I #
face $-1 $145 $146 $47 $-1 $147 forward single #
loop $-1 $148 $149 $59 #
cone-surface $-1 46.132351900904162 24.401169234000982 6.0453241228674095 -0.83867057594974714 0 -0.54463902268945019 0.54463902268945019 0 -0.83867057594974714 1 I I 0 1 1 forward I I I I #
face $-1 $150 $151 $36 $-1 $152 reversed single #
loop $-1 $-1 $153 $60 #
plane-surface $-1 0 0 -8.9813625644254369 0 0 1 1 0 0 forward_v I I I I #
coedge $-1 $154 $155 $156 $157 forward $61 $-1 #
face $-1 $158 $159 $37 $-1 $160 reversed single #
loop $-1 $-1 $161 $63 #
plane-surface $-1 0 0 -8.9813625644254369 0 0 1 1 0 0 forward_v I I I I #
coedge $-1 $162 $163 $164 $165 forward $64 $-1 #
face $-1 $166 $167 $38 $-1 $168 reversed single #
loop $-1 $-1 $169 $66 #
plane-surface $-1 0 0 8.9813625644254369 0 0 1 1 0 0 forward_v I I I I #
coedge $-1 $170 $171 $172 $173 forward $67 $-1 #
face $-1 $174 $175 $39 $-1 $176 reversed single #
loop $-1 $-1 $177 $69 #
plane-surface $-1 -48.608661152989285 -18.347502966665264 5.6002143044528978 -0.79863551827123203 0 0.60181501223851219 0.60181501223851219 0 0.79863551827123203 forward_v I I I I #
coedge $-1 $178 $179 $180 $181 reversed $70 $-1 #
face $-1 $-1 $182 $40 $-1 $183 forward single #
loop $-1 $184 $185 $72 #
cone-surface $-1 -45.967808051698711 -19.929867627082967 6.2607447661869795 0.79863551827123203 0 -0.60181501223851219 0.15045375305962805 0 0.19965887956780801 1 I I -0.70710678118654746 0.70710678118654746 0.25 forward I I I I #
loop $-1 $-1 $186 $52 #
coedge $-1 $116 $116 $187 $188 reversed $73 $-1 #
face $-1 $-1 $189 $41 $-1 $190 forward single #
loop $-1 $191 $192 $75 #
cone-surface $-1 -45.967808051698711 -16.765138306247565 6.2607447661869795 0.79863551827123203 0 -0.60181501223851219 0.15045375305962805 0 0.19965887956780801 1 I I -0.70710678118654746 0.70710678118654746 0.25 forward I I I I #
loop $-1 $-1 $193 $53 #
coedge $-1 $121 $121 $194 $195 reversed $76 $-1 #
face $-1 $196 $197 $42 $-1 $198 reversed single #
loop $-1 $-1 $199 $78 #
plane-surface $-1 -48.608661152989285 23.652347903762944 5.6002143044528978 -0.79863551827123203 0 0.60181501223851219 0.60181501223851219 0 0.79863551827123203 forward_v I I I I #
coedge $-1 $200 $201 $202 $203 reversed $79 $-1 #
face $-1 $-1 $204 $43 $-1 $205 forward single #
loop $-1 $206 $207 $81 #
cone-surface $-1 -45.967808051698711 22.069983243345234 6.2607447661869795 0.79863551827123203 0 -0.60181501223851219 0.15045375305962805 0 0.19965887956780801 1 I I -0.70710678118654746 0.70710678118654746 0.25 forward I I I I #
loop $-1 $-1 $208 $55 #
coedge $-1 $130 $130 $209 $210 reversed $82 $-1 #
face $-1 $-1 $211 $44 $-1 $212 forward single #
loop $-1 $213 $214 $84 #
cone-surface $-1 -45.967808051698711 25.23471256418064 6.2607447661869795 0.79863551827123203 0 -0.60181501223851219 0.15045375305962805 0 0.19965887956780801 1 I I -0.70710678118654746 0.70710678118654746 0.25 forward I I I I #
loop $-1 $-1 $215 $56 #
coedge $-1 $135 $135 $216 $217 reversed $85 $-1 #
face $-1 $218 $219 $45 $-1 $220 reversed single #
loop $-1 $-1 $221 $87 #
plane-surface $-1 -4.3396862562241836 22.193647075948533 85.921988948434546 0.83867057594974714 0 0.54463902268945019 0.54463902268945019 0 -0.83867057594974714 forward_v I I I I #
coedge $-1 $222 $223 $224 $225 reversed $88 $-1 #
face $-1 $-1 $226 $46 $-1 $227 forward single #
loop $-1 $228 $229 $90 #
cone-surface $-1 44.727968369696711 19.986124917896085 5.1333068232837196 -0.83867057594974714 0 -0.54463902268945019 0.2723195113447251 0 -0.41933528797487357 1 I I -0.70710678118654746 0.70710678118654746 0.5 forward I I I I #
loop $-1 $-1 $230 $58 #
coedge $-1 $144 $144 $231 $232 reversed $91 $-1 #
face $-1 $-1 $233 $47 $-1 $234 forward single #
loop $-1 $235 $236 $93 #
cone-surface $-1 44.727968369696711 24.401169234000982 5.1333068232837196 -0.83867057594974714 0 -0.54463902268945019 0.2723195113447251 0 -0.41933528797487357 1 I I -0.70710678118654746 0.70710678118654746 0.5 forward I I I I #
loop $-1 $-1 $237 $59 #
coedge $-1 $149 $149 $238 $239 reversed $94 $-1 #
face $-1 $240 $241 $36 $-1 $242 reversed single #
loop $-1 $-1 $243 $96 #
plane-surface $-1 0 -33.842261631615486 0 0 1 0 0 0 1 forward_v I I I I #
coedge $-1 $244 $245 $246 $247 forward $97 $-1 #
coedge $-1 $248 $99 $249 $250 forward $61 $-1 #
coedge $-1 $99 $248 $251 $252 forward $61 $-1 #
coedge $-1 $253 $254 $99 $157 reversed $255 $-1 #
edge $-1 $256 -33.842261631615486 $257 33.842261631615486 $156 $258 forward 7 unknown #
face $-1 $259 $260 $37 $-1 $261 forward single #
loop $-1 $-1 $262 $100 #
plane-surface $-1 48.608661152989285 0 0 -1 0 0 0 0 1 forward_v I I I I #
coedge $-1 $263 $264 $265 $266 forward $101 $-1 #
coedge $-1 $265 $103 $262 $267 reversed $64 $-1 #
coedge $-1 $103 $265 $268 $269 reversed $64 $-1 #
coedge $-1 $270 $271 $103 $165 reversed $260 $-1 #
edge $-1 $272 -48.608661152989285 $273 48.608661152989285 $164 $274 forward 7 unknown #
face $-1 $275 $276 $38 $-1 $277 reversed single #
loop $-1 $-1 $278 $104 #
plane-surface $-1 -46.250570382457695 40.339991151826723 0 0 -1 0 0 0 -1 forward_v I I I I #
coedge $-1 $279 $280 $170 $281 forward $105 $-1 #
coedge $-1 $282 $107 $169 $281 reversed $67 $-1 #
coedge $-1 $107 $282 $283 $284 reversed $67 $-1 #
coedge $-1 $285 $286 $107 $173 reversed $276 $-1 #
edge $-1 $287 -8.9813625644254369 $288 8.9813625644254369 $172 $289 forward 7 unknown #
face $-1 $290 $291 $39 $-1 $292 forward single #
loop $-1 $-1 $293 $108 #
plane-surface $-1 -126.24986773776588 -14.65531875902396 64.107058317820773 0 -1 0 0.79863551827123203 0 -0.60181501223851219 forward_v I I I I #
coedge $-1 $294 $295 $296 $297 reversed $109 $-1 #
coedge $-1 $179 $111 $298 $299 reversed $70 $-1 #
coedge $-1 $111 $178 $294 $300 reversed $70 $-1 #
coedge $-1 $296 $301 $111 $181 forward $291 $-1 #
edge $-1 $302 14.516272715893656 $303 17.064150608753074 $180 $304 forward 7 unknown #
loop $-1 $-1 $187 $112 #
plane-surface $-1 -48.608661152989285 -18.347502966665264 5.6002143044528978 -0.79863551827123203 0 0.60181501223851219 0.60181501223851219 0 0.79863551827123203 forward_v I I I I #
loop $-1 $-1 $305 $72 #
coedge $-1 $185 $185 $186 $306 reversed $113 $-1 #
coedge $-1 $186 $186 $185 $306 forward $115 $-1 #
coedge $-1 $187 $187 $116 $188 forward $182 $-1 #
edge $-1 $307 0 $307 6.2831853071796004 $187 $308 forward 7 unknown #
loop $-1 $-1 $194 $117 #
plane-surface $-1 -48.608661152989285 -18.347502966665264 5.6002143044528978 -0.79863551827123203 0 0.60181501223851219 0.60181501223851219 0 0.79863551827123203 forward_v I I I I #
loop $-1 $-1 $309 $75 #
coedge $-1 $192 $192 $193 $310 reversed $118 $-1 #
coedge $-1 $193 $193 $192 $310 forward $120 $-1 #
coedge $-1 $194 $194 $121 $195 forward $189 $-1 #
edge $-1 $311 0 $311 6.2831853071796004 $194 $312 forward 7 unknown #
face $-1 $313 $314 $42 $-1 $315 forward single #
loop $-1 $-1 $316 $122 #
plane-surface $-1 -126.24986773776588 27.344532111404249 64.107058317820773 0 -1 0 0.79863551827123203 0 -0.60181501223851219 forward_v I I I I #
coedge $-1 $317 $318 $319 $320 reversed $123 $-1 #
coedge $-1 $201 $125 $321 $322 reversed $79 $-1 #
coedge $-1 $125 $200 $317 $323 reversed $79 $-1 #
coedge $-1 $319 $324 $125 $203 forward $314 $-1 #
edge $-1 $325 14.516272715893656 $326 17.064150608753074 $202 $327 forward 7 unknown #
loop $-1 $-1 $209 $126 #
plane-surface $-1 -48.608661152989285 23.652347903762944 5.6002143044528978 -0.79863551827123203 0 0.60181501223851219 0.60181501223851219 0 0.79863551827123203 forward_v I I I I #
loop $-1 $-1 $328 $81 #
coedge $-1 $207 $207 $208 $329 reversed $127 $-1 #
coedge $-1 $208 $208 $207 $329 forward $129 $-1 #
coedge $-1 $209 $209 $130 $210 forward $204 $-1 #
edge $-1 $330 0 $330 6.2831853071796004 $209 $331 forward 7 unknown #
loop $-1 $-1 $216 $131 #
plane-surface $-1 -48.608661152989285 23.652347903762944 5.6002143044528978 -0.79863551827123203 0 0.60181501223851219 0.60181501223851219 0 0.79863551827123203 forward_v I I I I #
loop $-1 $-1 $332 $84 #
coedge $-1 $214 $214 $215 $333 reversed $132 $-1 #
coedge $-1 $215 $215 $214 $333 forward $134 $-1 #
coedge $-1 $216 $216 $135 $217 forward $211 $-1 #
edge $-1 $334 0 $334 6.2831853071796004 $216 $335 forward 7 unknown #
face $-1 $336 $337 $45 $-1 $338 reversed single #
loop $-1 $-1 $339 $136 #
plane-surface $-1 77.193621434423065 17.042762040492818 138.870336357648 0 1 0 0.83867057594974714 0 0.54463902268945019 forward_v I I I I #
coedge $-1 $340 $341 $342 $343 reversed $137 $-1 #
coedge $-1 $223 $139 $344 $345 reversed $88 $-1 #
coedge $-1 $139 $222 $340 $346 reversed $88 $-1 #
coedge $-1 $342 $347 $139 $225 forward $348 $-1 #
edge $-1 $349 -10.011850435777752 $350 -7.0293284180726801 $224 $351 forward 7 unknown #
loop $-1 $-1 $231 $140 #
plane-surface $-1 -4.3396862562241836 22.193647075948533 85.921988948434546 0.83867057594974714 0 0.54463902268945019 0.54463902268945019 0 -0.83867057594974714 forward_v I I I I #
loop $-1 $-1 $352 $90 #
coedge $-1 $229 $229 $230 $353 reversed $141 $-1 #
coedge $-1 $230 $230 $229 $353 forward $143 $-1 #
coedge $-1 $231 $231 $144 $232 forward $226 $-1 #
edge $-1 $354 0 $354 6.2831853071796004 $231 $355 forward 7 unknown #
loop $-1 $-1 $238 $145 #
plane-surface $-1 -4.3396862562241836 22.193647075948533 85.921988948434546 0.83867057594974714 0 0.54463902268945019 0.54463902268945019 0 -0.83867057594974714 forward_v I I I I #
loop $-1 $-1 $356 $93 #
coedge $-1 $236 $236 $237 $357 reversed $146 $-1 #
coedge $-1 $237 $237 $236 $357 forward $148 $-1 #
coedge $-1 $238 $238 $149 $239 forward $233 $-1 #
edge $-1 $358 0 $358 6.2831853071796004 $238 $359 forward 7 unknown #
face $-1 $360 $361 $36 $-1 $362 reversed single #
loop $-1 $-1 $363 $150 #
plane-surface $-1 -48.608661152989285 0 0 1 0 0 0 0 -1 forward_v I I I I #
coedge $-1 $251 $364 $253 $365 reversed $151 $-1 #
coedge $-1 $366 $153 $364 $367 forward $97 $-1 #
coedge $-1 $153 $366 $368 $369 forward $97 $-1 #
coedge $-1 $254 $253 $153 $247 reversed $255 $-1 #
edge $-1 $370 -33.842261631615486 $371 33.842261631615486 $246 $372 forward 7 unknown #
coedge $-1 $155 $154 $373 $374 forward $61 $-1 #
coedge $-1 $375 $376 $154 $250 reversed $361 $-1 #
edge $-1 $257 -48.608661152989285 $377 48.608661152989285 $249 $378 forward 7 unknown #
coedge $-1 $379 $243 $155 $252 reversed $151 $-1 #
edge $-1 $380 -48.608661152989285 $256 48.608661152989285 $251 $381 forward 7 unknown #
coedge $-1 $246 $156 $243 $365 forward $255 $-1 #
coedge $-1 $156 $246 $375 $382 reversed $255 $-1 #
loop $-1 $-1 $253 $360 #
vertex $-1 $157 $383 #
vertex $-1 $157 $384 #
straight-curve $-1 48.608661152989285 0 8.9813625644254369 0 1 0 I I #
face $-1 $385 $386 $37 $-1 $387 reversed single #
loop $-1 $-1 $271 $158 #
plane-surface $-1 0 -39.743548860269946 -4.4338059890177881 0 0 1 1 0 0 forward_v I I I I #
coedge $-1 $388 $389 $162 $267 forward $159 $-1 #
coedge $-1 $390 $161 $389 $391 forward $101 $-1 #
coedge $-1 $161 $390 $392 $393 forward $101 $-1 #
coedge $-1 $163 $162 $161 $266 reversed $64 $-1 #
edge $-1 $394 -48.608661152989285 $395 48.608661152989285 $161 $396 forward 7 unknown #
edge $-1 $395 -8.9813625644254369 $273 -4.4338059890177881 $262 $397 forward 7 unknown #
coedge $-1 $392 $398 $163 $269 forward $399 $-1 #
edge $-1 $272 4.4338059890177881 $394 8.9813625644254369 $268 $400 forward 7 unknown #
coedge $-1 $401 $164 $398 $402 forward $260 $-1 #
coedge $-1 $164 $401 $388 $403 forward $260 $-1 #
vertex $-1 $269 $404 #
vertex $-1 $403 $405 #
straight-curve $-1 0 -33.842261631615486 -4.4338059890177881 1 0 0 I I #
face $-1 $406 $407 $38 $-1 $408 reversed single #
loop $-1 $-1 $172 $166 #
plane-surface $-1 -43.892479611926106 37.091126391721104 0 -1 0 0 0 0 1 forward_v I I I I #
coedge $-1 $409 $410 $411 $412 forward $167 $-1 #
coedge $-1 $413 $169 $286 $414 forward $105 $-1 #
coedge $-1 $169 $413 $415 $416 forward $105 $-1 #
edge $-1 $417 -48.608661152989285 $288 -43.892479611926106 $169 $418 forward 7 unknown #
coedge $-1 $171 $170 $419 $420 reversed $67 $-1 #
coedge $-1 $421 $422 $171 $284 forward $407 $-1 #
edge $-1 $287 43.892479611926106 $423 48.608661152989285 $283 $424 forward 7 unknown #
coedge $-1 $411 $172 $422 $425 reversed $276 $-1 #
coedge $-1 $172 $411 $279 $414 reversed $276 $-1 #
vertex $-1 $284 $426 #
vertex $-1 $414 $427 #
straight-curve $-1 -43.892479611926106 33.842261631615486 0 0 0 1 I I #
face $-1 $-1 $428 $39 $-1 $429 reversed single #
loop $-1 $-1 $180 $174 #
plane-surface $-1 0 0 8.9813625644254369 0 0 1 1 0 0 forward_v I I I I #
coedge $-1 $430 $431 $432 $433 reversed $175 $-1 #
coedge $-1 $434 $177 $179 $300 forward $109 $-1 #
coedge $-1 $177 $434 $430 $435 forward $109 $-1 #
coedge $-1 $432 $180 $177 $297 forward $291 $-1 #
edge $-1 $303 -12.865935690973936 $436 -5.4815672756913276 $296 $437 forward 7 unknown #
coedge $-1 $438 $439 $178 $299 forward $428 $-1 #
edge $-1 $440 -26.453314854457489 $302 -23.072166594484948 $298 $441 forward 7 unknown #
edge $-1 $303 -4.2336562582284678 $440 0 $179 $442 forward 7 unknown #
coedge $-1 $180 $432 $438 $443 forward $291 $-1 #
vertex $-1 $299 $444 #
vertex $-1 $181 $445 #
straight-curve $-1 -63.124933868882941 -22.039687174306568 8.9813625644254387 1 0 0 I I #
coedge $-1 $305 $305 $-1 $446 reversed $184 $-1 #
edge $-1 $447 0 $447 6.2831853071796004 $185 $448 forward 7 unknown #
vertex $-1 $188 $449 #
ellipse-curve $-1 -47.334722206559576 -19.929867627082967 7.2907884344391674 -0.79863551827123203 0 0.60181501223851219 0.3009075061192561 0 0.39931775913561601 1 I I #
coedge $-1 $309 $309 $-1 $450 reversed $191 $-1 #
edge $-1 $451 0 $451 6.2831853071796004 $192 $452 forward 7 unknown #
vertex $-1 $195 $453 #
ellipse-curve $-1 -47.334722206559576 -16.765138306247565 7.2907884344391674 -0.79863551827123203 0 0.60181501223851219 0.3009075061192561 0 0.39931775913561601 1 I I #
face $-1 $-1 $454 $42 $-1 $455 reversed single #
loop $-1 $-1 $202 $196 #
plane-surface $-1 0 0 8.9813625644254369 0 0 1 1 0 0 forward_v I I I I #
coedge $-1 $456 $457 $458 $459 reversed $197 $-1 #
coedge $-1 $460 $199 $201 $323 forward $123 $-1 #
coedge $-1 $199 $460 $456 $461 forward $123 $-1 #
coedge $-1 $458 $202 $199 $320 forward $314 $-1 #
edge $-1 $326 8.1339897442401679 $462 15.518358159522776 $319 $463 forward 7 unknown #
coedge $-1 $464 $465 $200 $322 forward $454 $-1 #
edge $-1 $466 -26.453314854457489 $325 -23.072166594484948 $321 $467 forward 7 unknown #
edge $-1 $326 -4.2336562582284678 $466 0 $201 $468 forward 7 unknown #
coedge $-1 $202 $458 $464 $469 forward $314 $-1 #
vertex $-1 $203 $470 #
vertex $-1 $203 $471 #
straight-curve $-1 -63.124933868882941 19.96016369612164 8.9813625644254387 1 0 0 I I #
coedge $-1 $328 $328 $-1 $472 reversed $206 $-1 #
edge $-1 $473 0 $473 6.2831853071796004 $207 $474 forward 7 unknown #
vertex $-1 $210 $475 #
ellipse-curve $-1 -47.334722206559576 22.069983243345234 7.2907884344391674 -0.79863551827123203 0 0.60181501223851219 0.3009075061192561 0 0.39931775913561601 1 I I #
coedge $-1 $332 $332 $-1 $476 reversed $213 $-1 #
edge $-1 $477 0 $477 6.2831853071796004 $214 $478 forward 7 unknown #
vertex $-1 $217 $479 #
ellipse-curve $-1 -47.334722206559576 25.23471256418064 7.2907884344391674 -0.79863551827123203 0 0.60181501223851219 0.3009075061192561 0 0.39931775913561601 1 I I #
face $-1 $-1 $348 $45 $-1 $480 forward single #
loop $-1 $-1 $481 $218 #
plane-surface $-1 48.608661152989285 0 0 -1 0 0 0 0 1 forward_v I I I I #
coedge $-1 $482 $483 $484 $485 reversed $219 $-1 #
coedge $-1 $486 $221 $223 $346 forward $137 $-1 #
coedge $-1 $221 $486 $482 $487 forward $137 $-1 #
coedge $-1 $484 $224 $221 $343 forward $348 $-1 #
edge $-1 $350 -16.247708573429982 $488 -5.9459385025185512 $342 $489 forward 7 unknown #
coedge $-1 $490 $491 $222 $345 forward $337 $-1 #
edge $-1 $492 -65.046486921036731 $349 -60.453805614398561 $344 $493 forward 7 unknown #
edge $-1 $350 91.741177752514076 $492 97.217322305978598 $223 $494 forward 7 unknown #
coedge $-1 $224 $484 $490 $495 forward $348 $-1 #
loop $-1 $-1 $484 $336 #
vertex $-1 $345 $496 #
vertex $-1 $225 $497 #
straight-curve $-1 38.596810717211532 27.344532111404249 8.9813625644254387 -1 0 0 I I #
coedge $-1 $352 $352 $-1 $498 reversed $228 $-1 #
edge $-1 $499 0 $499 6.2831853071796004 $229 $500 forward 7 unknown #
vertex $-1 $232 $501 #
ellipse-curve $-1 47.117400144136738 19.986124917896085 6.6850219111063724 0.83867057594974714 0 0.54463902268945019 0.54463902268945019 0 -0.83867057594974714 1 I I #
coedge $-1 $356 $356 $-1 $502 reversed $235 $-1 #
edge $-1 $503 0 $503 6.2831853071796004 $236 $504 forward 7 unknown #
vertex $-1 $239 $505 #
ellipse-curve $-1 47.117400144136738 24.401169234000982 6.6850219111063724 0.83867057594974714 0 0.54463902268945019 0.54463902268945019 0 -0.83867057594974714 1 I I #
face $-1 $-1 $255 $36 $-1 $506 reversed single #
loop $-1 $-1 $249 $240 #
plane-surface $-1 0 33.842261631615486 0 0 -1 0 0 0 -1 forward_v I I I I #
coedge $-1 $507 $373 $376 $508 forward $241 $-1 #
coedge $-1 $243 $379 $244 $367 reversed $151 $-1 #
edge $-1 $256 -8.9813625644254369 $371 8.9813625644254369 $253 $509 forward 7 unknown #
coedge $-1 $245 $244 $507 $510 forward $97 $-1 #
edge $-1 $371 -48.608661152989285 $511 48.608661152989285 $364 $512 forward 7 unknown #
coedge $-1 $376 $375 $245 $369 reversed $361 $-1 #
edge $-1 $513 -48.608661152989285 $370 48.608661152989285 $368 $514 forward 7 unknown #
vertex $-1 $247 $515 #
vertex $-1 $365 $516 #
straight-curve $-1 48.608661152989285 0 -8.9813625644254369 0 -1 0 I I #
coedge $-1 $363 $517 $248 $374 reversed $241 $-1 #
edge $-1 $377 -33.842261631615486 $380 33.842261631615486 $373 $518 forward 7 unknown #
coedge $-1 $368 $249 $254 $382 forward $361 $-1 #
coedge $-1 $249 $368 $363 $508 reversed $361 $-1 #
vertex $-1 $250 $519 #
straight-curve $-1 0 33.842261631615486 8.9813625644254369 -1 0 0 I I #
coedge $-1 $364 $251 $517 $520 forward $151 $-1 #
vertex $-1 $374 $521 #
straight-curve $-1 0 -33.842261631615486 8.9813625644254369 1 0 0 I I #
edge $-1 $257 -8.9813625644254369 $370 8.9813625644254369 $254 $522 forward 7 unknown #
point $-1 48.608661152989285 -33.842261631615486 8.9813625644254369 #
point $-1 48.608661152989285 33.842261631615486 8.9813625644254369 #
face $-1 $-1 $399 $37 $-1 $523 reversed single #
loop $-1 $-1 $524 $259 #
plane-surface $-1 0 -45.644836088924407 -6.7075842767216125 0 1 0 0 0 1 forward_v I I I I #
coedge $-1 $525 $262 $271 $403 reversed $159 $-1 #
coedge $-1 $262 $525 $263 $391 reversed $159 $-1 #
coedge $-1 $264 $263 $526 $527 forward $101 $-1 #
edge $-1 $395 33.842261631615486 $528 45.644836088924407 $389 $529 forward 7 unknown #
coedge $-1 $530 $268 $264 $393 reversed $399 $-1 #
edge $-1 $531 -45.644836088924407 $394 -33.842261631615486 $392 $532 forward 7 unknown #
vertex $-1 $269 $533 #
vertex $-1 $391 $534 #
straight-curve $-1 0 -33.842261631615486 -8.9813625644254369 1 0 0 I I #
straight-curve $-1 48.608661152989285 -33.842261631615486 0 0 0 1 I I #
coedge $-1 $268 $530 $270 $402 reversed $399 $-1 #
loop $-1 $-1 $268 $385 #
straight-curve $-1 -48.608661152989285 -33.842261631615486 0 0 0 -1 I I #
coedge $-1 $271 $270 $535 $536 forward $260 $-1 #
edge $-1 $272 -5.9012872286544606 $537 5.9012872286544606 $398 $538 forward 7 unknown #
edge $-1 $539 -5.9012872286544606 $273 5.9012872286544606 $388 $540 forward 7 unknown #
point $-1 -48.608661152989285 -33.842261631615486 -4.4338059890177881 #
point $-1 48.608661152989285 -33.842261631615486 -4.4338059890177881 #
face $-1 $-1 $541 $38 $-1 $542 reversed single #
loop $-1 $-1 $283 $275 #
plane-surface $-1 0 0 -8.9813625644254369 0 0 1 1 0 0 forward_v I I I I #
coedge $-1 $543 $278 $544 $545 reversed $167 $-1 #
coedge $-1 $278 $543 $413 $546 reversed $167 $-1 #
coedge $-1 $286 $285 $278 $412 reversed $276 $-1 #
edge $-1 $547 -8.9813625644254369 $548 8.9813625644254369 $411 $549 forward 7 unknown #
coedge $-1 $280 $279 $410 $546 forward $105 $-1 #
edge $-1 $288 -3.2488647601056186 $547 3.2488647601056186 $286 $550 forward 7 unknown #
coedge $-1 $551 $419 $280 $416 reversed $541 $-1 #
edge $-1 $552 -40.339991151826723 $417 -33.842261631615486 $415 $553 forward 7 unknown #
vertex $-1 $420 $554 #
straight-curve $-1 0 33.842261631615486 8.9813625644254369 1 0 0 I I #
coedge $-1 $415 $555 $282 $420 forward $541 $-1 #
edge $-1 $423 -8.9813625644254369 $417 8.9813625644254369 $419 $556 forward 7 unknown #
coedge $-1 $544 $283 $555 $557 forward $407 $-1 #
coedge $-1 $283 $544 $285 $425 forward $407 $-1 #
vertex $-1 $557 $558 #
straight-curve $-1 0 33.842261631615486 -8.9813625644254369 -1 0 0 I I #
edge $-1 $548 -3.2488647601056186 $287 3.2488647601056186 $285 $559 forward 7 unknown #
point $-1 -43.892479611926106 33.842261631615486 -8.9813625644254369 #
point $-1 -43.892479611926106 33.842261631615486 8.9813625644254369 #
loop $-1 $-1 $298 $290 #
plane-surface $-1 -48.608661152989285 0 0 1 0 0 0 0 -1 forward_v I I I I #
coedge $-1 $431 $293 $295 $435 reversed $175 $-1 #
coedge $-1 $293 $430 $560 $561 reversed $175 $-1 #
coedge $-1 $301 $296 $293 $433 forward $291 $-1 #
edge $-1 $436 -17.064150608753074 $562 -14.516272715893656 $432 $563 forward 7 unknown #
coedge $-1 $295 $294 $439 $564 reversed $109 $-1 #
edge $-1 $565 0 $436 4.2336562582284678 $430 $566 forward 7 unknown #
vertex $-1 $297 $567 #
straight-curve $-1 -46.060783260129867 -9.1737514833326319 8.9813625644254369 0 1 0 I I #
coedge $-1 $560 $298 $301 $443 reversed $428 $-1 #
coedge $-1 $298 $560 $434 $564 forward $428 $-1 #
vertex $-1 $299 $568 #
straight-curve $-1 -48.608661152989285 -22.039687174306568 32.053529158910386 0 0 1 I I #
straight-curve $-1 -48.608661152989285 -22.039687174306568 5.6002143044528978 -0.60181501223851219 0 -0.79863551827123203 I I #
edge $-1 $562 14.65531875902396 $302 22.039687174306568 $438 $569 forward 7 unknown #
point $-1 -48.608661152989285 -22.039687174306568 8.9813625644254369 #
point $-1 -46.060783260129867 -22.039687174306568 8.9813625644254369 #
edge $-1 $570 1 $570 0 $305 $-1 forward 7 unknown #
vertex $-1 $306 $571 #
ellipse-curve $-1 -46.167466931266517 -19.929867627082967 6.4111985192466072 -0.79863551827123203 0 0.60181501223851219 0.3009075061192561 0 0.39931775913561601 1 I I #
point $-1 -47.033814700440317 -19.929867627082967 7.690106193574783 #
edge $-1 $572 1 $572 0 $309 $-1 forward 7 unknown #
vertex $-1 $310 $573 #
ellipse-curve $-1 -46.167466931266517 -16.765138306247565 6.4111985192466072 -0.79863551827123203 0 0.60181501223851219 0.3009075061192561 0 0.39931775913561601 1 I I #
point $-1 -47.033814700440317 -16.765138306247565 7.690106193574783 #
loop $-1 $-1 $321 $313 #
plane-surface $-1 -48.608661152989285 0 0 1 0 0 0 0 -1 forward_v I I I I #
coedge $-1 $457 $316 $318 $461 reversed $197 $-1 #
coedge $-1 $316 $456 $574 $575 reversed $197 $-1 #
coedge $-1 $324 $319 $316 $459 forward $314 $-1 #
edge $-1 $462 -17.064150608753074 $576 -14.516272715893656 $458 $577 forward 7 unknown #
coedge $-1 $318 $317 $465 $578 reversed $123 $-1 #
edge $-1 $579 0 $462 4.2336562582284678 $456 $580 forward 7 unknown #
vertex $-1 $320 $581 #
straight-curve $-1 -46.060783260129867 11.826173951881472 8.9813625644254369 0 1 0 I I #
coedge $-1 $574 $321 $324 $469 reversed $454 $-1 #
coedge $-1 $321 $574 $460 $578 forward $454 $-1 #
vertex $-1 $322 $582 #
straight-curve $-1 -48.608661152989285 19.96016369612164 32.053529158910386 0 0 1 I I #
straight-curve $-1 -48.608661152989285 19.96016369612164 5.6002143044528978 -0.60181501223851219 0 -0.79863551827123203 I I #
edge $-1 $576 -27.344532111404249 $325 -19.96016369612164 $464 $583 forward 7 unknown #
point $-1 -48.608661152989285 19.96016369612164 8.9813625644254369 #
point $-1 -46.060783260129867 19.96016369612164 8.9813625644254369 #
edge $-1 $584 1 $584 0 $328 $-1 forward 7 unknown #
vertex $-1 $329 $585 #
ellipse-curve $-1 -46.167466931266517 22.069983243345234 6.4111985192466072 -0.79863551827123203 0 0.60181501223851219 0.3009075061192561 0 0.39931775913561601 1 I I #
point $-1 -47.033814700440317 22.069983243345234 7.690106193574783 #
edge $-1 $586 1 $586 0 $332 $-1 forward 7 unknown #
vertex $-1 $333 $587 #
ellipse-curve $-1 -46.167466931266517 25.23471256418064 6.4111985192466072 -0.79863551827123203 0 0.60181501223851219 0.3009075061192561 0 0.39931775913561601 1 I I #
point $-1 -47.033814700440317 25.23471256418064 7.690106193574783 #
plane-surface $-1 0 0 8.9813625644254369 0 0 1 1 0 0 forward_v I I I I #
coedge $-1 $491 $490 $483 $588 forward $337 $-1 #
coedge $-1 $483 $339 $341 $487 reversed $219 $-1 #
coedge $-1 $339 $482 $481 $588 reversed $219 $-1 #
coedge $-1 $347 $342 $339 $485 forward $348 $-1 #
edge $-1 $488 7.0293284180726801 $589 10.011850435777752 $484 $590 forward 7 unknown #
coedge $-1 $341 $340 $491 $591 reversed $137 $-1 #
edge $-1 $592 -97.217322305978598 $488 -91.741177752514076 $482 $593 forward 7 unknown #
vertex $-1 $343 $594 #
straight-curve $-1 45.626139135284205 11.096823537974267 8.9813625644254387 0 -1 0 I I #
coedge $-1 $481 $344 $347 $495 reversed $337 $-1 #
coedge $-1 $344 $481 $486 $591 forward $337 $-1 #
vertex $-1 $345 $595 #
straight-curve $-1 48.608661152989285 27.344532111404249 69.435168178824 0 0 1 I I #
straight-curve $-1 -4.3396862562241836 27.344532111404249 85.921988948434546 0.54463902268945019 0 -0.83867057594974714 I I #
edge $-1 $589 17.042762040492818 $349 27.344532111404249 $490 $596 forward 7 unknown #
point $-1 48.608661152989285 27.344532111404249 8.9813625644254369 #
point $-1 45.626139135284213 27.344532111404249 8.9813625644254387 #
edge $-1 $597 1 $597 0 $352 $-1 forward 7 unknown #
vertex $-1 $353 $598 #
ellipse-curve $-1 45.147303657671586 19.986124917896085 5.4056263346284448 0.83867057594974714 0 0.54463902268945019 0.54463902268945019 0 -0.83867057594974714 1 I I #
point $-1 47.662039166826197 19.986124917896085 5.8463513351566272 #
edge $-1 $599 1 $599 0 $356 $-1 forward 7 unknown #
vertex $-1 $357 $600 #
ellipse-curve $-1 45.147303657671586 24.401169234000982 5.4056263346284448 0.83867057594974714 0 0.54463902268945019 0.54463902268945019 0 -0.83867057594974714 1 I I #
point $-1 47.662039166826197 24.401169234000982 5.8463513351566272 #
plane-surface $-1 48.608661152989285 0 0 -1 0 0 0 0 1 forward_v I I I I #
coedge $-1 $517 $363 $366 $510 reversed $241 $-1 #
edge $-1 $377 -8.9813625644254369 $513 8.9813625644254369 $376 $601 forward 7 unknown #
straight-curve $-1 48.608661152989285 -33.842261631615486 0 0 0 -1 I I #
edge $-1 $511 -33.842261631615486 $513 33.842261631615486 $507 $602 forward 7 unknown #
vertex $-1 $510 $603 #
straight-curve $-1 0 -33.842261631615486 -8.9813625644254369 -1 0 0 I I #
vertex $-1 $369 $604 #
straight-curve $-1 0 33.842261631615486 -8.9813625644254369 1 0 0 I I #
point $-1 48.608661152989285 33.842261631615486 -8.9813625644254369 #
point $-1 48.608661152989285 -33.842261631615486 -8.9813625644254369 #
coedge $-1 $373 $507 $379 $520 reversed $241 $-1 #
straight-curve $-1 -48.608661152989285 0 8.9813625644254369 0 -1 0 I I #
point $-1 -48.608661152989285 33.842261631615486 8.9813625644254369 #
edge $-1 $380 -8.9813625644254369 $511 8.9813625644254369 $517 $605 forward 7 unknown #
point $-1 -48.608661152989285 -33.842261631615486 8.9813625644254369 #
straight-curve $-1 48.608661152989285 33.842261631615486 0 0 0 -1 I I #
plane-surface $-1 -48.608661152989285 0 0 1 0 0 0 0 -1 forward_v I I I I #
coedge $-1 $526 $535 $530 $606 forward $386 $-1 #
coedge $-1 $389 $388 $607 $608 forward $159 $-1 #
coedge $-1 $607 $524 $390 $527 reversed $386 $-1 #
edge $-1 $528 -48.608661152989285 $531 48.608661152989285 $526 $609 forward 7 unknown #
vertex $-1 $608 $610 #
straight-curve $-1 48.608661152989285 0 -8.9813625644254369 0 -1 0 I I #
coedge $-1 $398 $392 $524 $606 reversed $399 $-1 #
vertex $-1 $393 $611 #
straight-curve $-1 -48.608661152989285 0 -8.9813625644254369 0 1 0 I I #
point $-1 -48.608661152989285 -33.842261631615486 -8.9813625644254369 #
point $-1 48.608661152989285 -33.842261631615486 -8.9813625644254369 #
coedge $-1 $524 $607 $401 $536 reversed $386 $-1 #
edge $-1 $537 -48.608661152989285 $539 48.608661152989285 $535 $612 forward 7 unknown #
vertex $-1 $402 $613 #
straight-curve $-1 -48.608661152989285 -39.743548860269946 -4.4338059890177881 0 -1 0 I I #
vertex $-1 $403 $614 #
straight-curve $-1 48.608661152989285 -39.743548860269946 -4.4338059890177881 0 1 0 I I #
loop $-1 $-1 $419 $406 #
plane-surface $-1 -48.608661152989285 0 0 1 0 0 0 0 -1 forward_v I I I I #
coedge $-1 $410 $409 $551 $615 reversed $167 $-1 #
coedge $-1 $422 $421 $409 $545 forward $407 $-1 #
edge $-1 $616 -2.3580907705315894 $548 2.3580907705315894 $409 $617 forward 7 unknown #
edge $-1 $547 -2.3580907705315894 $552 2.3580907705315894 $410 $618 forward 7 unknown #
vertex $-1 $414 $619 #
vertex $-1 $425 $620 #
straight-curve $-1 -43.892479611926106 40.339991151826723 0 0 0 -1 I I #
straight-curve $-1 -43.892479611926106 37.091126391721104 8.9813625644254369 0 1 0 I I #
coedge $-1 $555 $415 $543 $615 forward $541 $-1 #
vertex $-1 $546 $621 #
straight-curve $-1 -48.608661152989285 0 8.9813625644254369 0 -1 0 I I #
point $-1 -48.608661152989285 33.842261631615486 8.9813625644254369 #
coedge $-1 $419 $551 $421 $557 reversed $541 $-1 #
straight-curve $-1 -48.608661152989285 33.842261631615486 0 0 0 1 I I #
edge $-1 $423 -3.2488647601056186 $616 3.2488647601056186 $555 $622 forward 7 unknown #
point $-1 -48.608661152989285 33.842261631615486 -8.9813625644254369 #
straight-curve $-1 -43.892479611926106 37.091126391721104 -8.9813625644254369 0 -1 0 I I #
coedge $-1 $439 $438 $431 $561 forward $428 $-1 #
edge $-1 $562 23.072166594484948 $565 26.453314854457489 $560 $623 forward 7 unknown #
vertex $-1 $443 $624 #
straight-curve $-1 -63.124933868882941 -14.65531875902396 8.9813625644254387 -1 0 0 I I #
edge $-1 $565 5.4815672756913276 $440 12.865935690973936 $439 $625 forward 7 unknown #
vertex $-1 $564 $626 #
straight-curve $-1 -48.608661152989285 -14.65531875902396 5.6002143044528978 0.60181501223851219 0 0.79863551827123203 I I #
point $-1 -46.060783260129867 -14.65531875902396 8.9813625644254369 #
point $-1 -48.608661152989285 -22.039687174306568 5.6002143044528978 #
straight-curve $-1 -48.608661152989285 0 8.9813625644254369 0 -1 0 I I #
vertex $-1 $446 $627 #
point $-1 -45.866559425147265 -19.929867627082967 6.8105162783822237 #
vertex $-1 $450 $628 #
point $-1 -45.866559425147265 -16.765138306247565 6.8105162783822237 #
coedge $-1 $465 $464 $457 $575 forward $454 $-1 #
edge $-1 $576 23.072166594484948 $579 26.453314854457489 $574 $629 forward 7 unknown #
vertex $-1 $469 $630 #
straight-curve $-1 -63.124933868882941 27.344532111404249 8.9813625644254387 -1 0 0 I I #
edge $-1 $579 -15.518358159522776 $466 -8.1339897442401679 $465 $631 forward 7 unknown #
vertex $-1 $578 $632 #
straight-curve $-1 -48.608661152989285 27.344532111404249 5.6002143044528978 0.60181501223851219 0 0.79863551827123203 I I #
point $-1 -46.060783260129867 27.344532111404249 8.9813625644254369 #
point $-1 -48.608661152989285 19.96016369612164 5.6002143044528978 #
straight-curve $-1 -48.608661152989285 0 8.9813625644254369 0 -1 0 I I #
vertex $-1 $472 $633 #
point $-1 -45.866559425147265 22.069983243345234 6.8105162783822237 #
vertex $-1 $476 $634 #
point $-1 -45.866559425147265 25.23471256418064 6.8105162783822237 #
edge $-1 $589 60.453805614398561 $592 65.046486921036731 $481 $635 forward 7 unknown #
vertex $-1 $495 $636 #
straight-curve $-1 38.596810717211532 17.042762040492818 8.9813625644254387 1 0 0 I I #
edge $-1 $592 5.9459385025185512 $492 16.247708573429982 $491 $637 forward 7 unknown #
vertex $-1 $591 $638 #
straight-curve $-1 -4.3396862562241836 17.042762040492818 85.921988948434546 -0.54463902268945019 0 0.83867057594974714 I I #
point $-1 45.626139135284213 17.042762040492818 8.9813625644254387 #
point $-1 48.608661152989285 27.344532111404249 4.3886812577872689 #
straight-curve $-1 48.608661152989285 0 8.9813625644254369 0 1 0 I I #
vertex $-1 $498 $639 #
point $-1 45.691942680361038 19.986124917896085 4.5669557586786977 #
vertex $-1 $502 $640 #
point $-1 45.691942680361038 24.401169234000982 4.5669557586786977 #
straight-curve $-1 -48.608661152989285 33.842261631615486 0 0 0 -1 I I #
straight-curve $-1 -48.608661152989285 0 -8.9813625644254369 0 1 0 I I #
point $-1 -48.608661152989285 -33.842261631615486 -8.9813625644254369 #
point $-1 -48.608661152989285 33.842261631615486 -8.9813625644254369 #
straight-curve $-1 -48.608661152989285 -33.842261631615486 0 0 0 -1 I I #
edge $-1 $537 -2.2737782877038244 $531 2.2737782877038244 $530 $641 forward 7 unknown #
coedge $-1 $535 $526 $525 $608 reversed $386 $-1 #
edge $-1 $539 -2.2737782877038244 $528 2.2737782877038244 $525 $642 forward 7 unknown #
straight-curve $-1 0 -45.644836088924407 -8.9813625644254369 -1 0 0 I I #
point $-1 48.608661152989285 -45.644836088924407 -8.9813625644254369 #
point $-1 -48.608661152989285 -45.644836088924407 -8.9813625644254369 #
straight-curve $-1 0 -45.644836088924407 -4.4338059890177881 1 0 0 I I #
point $-1 -48.608661152989285 -45.644836088924407 -4.4338059890177881 #
point $-1 48.608661152989285 -45.644836088924407 -4.4338059890177881 #
edge $-1 $552 -8.9813625644254369 $616 8.9813625644254369 $543 $643 forward 7 unknown #
vertex $-1 $545 $644 #
straight-curve $-1 -46.250570382457695 40.339991151826723 -8.9813625644254369 1 0 0 I I #
straight-curve $-1 -46.250570382457695 40.339991151826723 8.9813625644254369 -1 0 0 I I #
point $-1 -43.892479611926106 40.339991151826723 8.9813625644254369 #
point $-1 -43.892479611926106 40.339991151826723 -8.9813625644254369 #
point $-1 -48.608661152989285 40.339991151826723 8.9813625644254369 #
straight-curve $-1 -48.608661152989285 37.091126391721104 -8.9813625644254369 0 1 0 I I #
straight-curve $-1 -48.608661152989285 -14.65531875902396 32.053529158910386 0 0 -1 I I #
point $-1 -48.608661152989285 -14.65531875902396 8.9813625644254369 #
straight-curve $-1 -48.608661152989285 -9.1737514833326319 5.6002143044529014 0 -1 0 I I #
point $-1 -48.608661152989285 -14.65531875902396 5.6002143044528978 #
point $-1 -45.768149172130904 -19.929867627082967 6.1102910131273518 #
point $-1 -45.768149172130904 -16.765138306247565 6.1102910131273518 #
straight-curve $-1 -48.608661152989285 27.344532111404249 32.053529158910386 0 0 -1 I I #
point $-1 -48.608661152989285 27.344532111404249 8.9813625644254369 #
straight-curve $-1 -48.608661152989285 11.826173951881472 5.6002143044529014 0 -1 0 I I #
point $-1 -48.608661152989285 27.344532111404249 5.6002143044528978 #
point $-1 -45.768149172130904 22.069983243345234 6.1102910131273518 #
point $-1 -45.768149172130904 25.23471256418064 6.1102910131273518 #
straight-curve $-1 48.608661152989285 17.042762040492818 69.435168178824 0 0 -1 I I #
point $-1 48.608661152989285 17.042762040492818 8.9813625644254369 #
straight-curve $-1 48.608661152989285 11.096823537974267 4.3886812577872689 0 1 0 I I #
point $-1 48.608661152989285 17.042762040492818 4.3886812577872689 #
point $-1 44.308633081721837 19.986124917896085 4.8609873119389944 #
point $-1 44.308633081721837 24.401169234000982 4.8609873119389944 #
straight-curve $-1 -48.608661152989285 -45.644836088924407 -6.7075842767216125 0 0 -1 I I #
straight-curve $-1 48.608661152989285 -45.644836088924407 -6.7075842767216125 0 0 -1 I I #
straight-curve $-1 -48.608661152989285 40.339991151826723 0 0 0 -1 I I #
point $-1 -48.608661152989285 40.339991151826723 -8.9813625644254369 #
End-of-ACIS-data 