500 0 4 0           
7 Unknown 11 ACIS 5.0 NT 24 Thu Mar 25 15:13:04 1999 
-1 9.9999999999999995e-007 1e-010 
body $-1 $4 $-1 $5 #
body $-1 $6 $-1 $7 #
body $-1 $8 $-1 $9 #
body $-1 $10 $-1 $11 #
lump $-1 $-1 $12 $0 #
transform $-1 1 0 0 0 1 0 0 0 1 62.532425916318246 43.755522573526811 17.870499477903987 1 rotate no_reflect no_shear #
lump $-1 $-1 $13 $1 #
transform $-1 1 0 0 0 1 0 0 0 1 62.532425916318246 43.755522573526811 17.870499477903987 1 rotate no_reflect no_shear #
lump $-1 $-1 $14 $2 #
transform $-1 1 0 0 0 1 0 0 0 1 62.532425916318246 43.755522573526811 17.870499477903987 1 rotate no_reflect no_shear #
lump $-1 $-1 $15 $3 #
transform $-1 1 0 0 0 1 0 0 0 1 62.532425916318246 43.755522573526811 17.870499477903987 1 rotate no_reflect no_shear #
shell $-1 $-1 $-1 $16 $-1 $4 #
shell $-1 $-1 $-1 $17 $-1 $6 #
shell $-1 $-1 $-1 $18 $-1 $8 #
shell $-1 $-1 $-1 $19 $-1 $10 #
face $-1 $20 $21 $12 $-1 $22 forward single #
face $-1 $23 $24 $13 $-1 $25 reversed single #
face $-1 $26 $27 $14 $-1 $28 forward single #
face $-1 $29 $30 $15 $-1 $31 reversed single #
face $-1 $32 $33 $12 $-1 $34 reversed single #
loop $-1 $-1 $35 $16 #
plane-surface $-1 0 0 17.870499477903987 0 0 1 1 0 0 forward_v I I I I #
face $-1 $36 $37 $13 $-1 $38 forward single #
loop $-1 $-1 $39 $17 #
plane-surface $-1 0 -32.888407867821201 -12.379276264206545 0 0 1 1 0 0 forward_v I I I I #
face $-1 $40 $41 $14 $-1 $42 forward single #
loop $-1 $-1 $43 $18 #
plane-surface $-1 39.006859729580938 90.971294628220249 149.33915132475443 1 0 0 0 -0.79863551827123203 -0.60181501223851219 forward_v I I I I #
face $-1 $44 $45 $15 $-1 $46 reversed single #
loop $-1 $47 $48 $19 #
cone-surface $-1 50.769642822949592 34.951281477936902 8.2786349445146126 0 -0.79863551827123203 -0.60181501223851219 2.5 0 0 1 I I 0 1 2.5 forward I I I I #
face $-1 $49 $50 $12 $-1 $51 reversed single #
loop $-1 $-1 $52 $20 #
plane-surface $-1 0 0 -17.870499477903987 0 0 1 1 0 0 forward_v I I I I #
coedge $-1 $53 $54 $55 $56 forward $21 $-1 #
face $-1 $57 $58 $13 $-1 $59 reversed single #
loop $-1 $-1 $60 $23 #
plane-surface $-1 0 -22.021293162115587 -15.124887871055266 0 -1 0 0 0 -1 forward_v I I I I #
coedge $-1 $61 $62 $63 $64 reversed $24 $-1 #
face $-1 $65 $66 $14 $-1 $67 forward single #
loop $-1 $-1 $68 $26 #
plane-surface $-1 50.769642822949592 -8.9099381326522433 74.07324598848858 0 0.79863551827123203 0.60181501223851219 1 0 0 forward_v I I I I #
coedge $-1 $69 $70 $71 $72 reversed $27 $-1 #
face $-1 $73 $74 $15 $-1 $75 forward single #
loop $-1 $76 $77 $29 #
cone-surface $-1 50.769642822949592 30.305573309691901 4.7778428382719831 0 -0.79863551827123203 -0.60181501223851219 1.25 0 0 1 I I -0.70710678118654746 0.70710678118654746 1.25 forward I I I I #
loop $-1 $-1 $78 $19 #
coedge $-1 $48 $48 $79 $80 reversed $30 $-1 #
face $-1 $81 $82 $12 $-1 $83 reversed single #
loop $-1 $-1 $84 $32 #
plane-surface $-1 0 -43.755522573526811 0 0 1 0 0 0 1 forward_v I I I I #
coedge $-1 $85 $86 $87 $88 forward $33 $-1 #
coedge $-1 $89 $35 $90 $91 forward $21 $-1 #
coedge $-1 $35 $89 $92 $93 forward $21 $-1 #
coedge $-1 $94 $95 $35 $56 reversed $96 $-1 #
edge $-1 $97 -43.755522573526811 $98 43.755522573526811 $55 $99 forward 7 unknown #
face $-1 $100 $101 $13 $-1 $102 reversed single #
loop $-1 $-1 $103 $36 #
plane-surface $-1 0 -43.755522573526811 0 0 1 0 0 0 1 forward_v I I I I #
coedge $-1 $104 $105 $106 $107 reversed $37 $-1 #
coedge $-1 $108 $39 $103 $109 reversed $24 $-1 #
coedge $-1 $39 $108 $104 $110 reversed $24 $-1 #
coedge $-1 $106 $111 $39 $64 forward $112 $-1 #
edge $-1 $113 -27.311318639616218 $114 -5.5770892282049864 $63 $115 forward 7 unknown #
face $-1 $116 $117 $14 $-1 $118 reversed single #
loop $-1 $-1 $119 $40 #
plane-surface $-1 0 0 17.870499477903987 0 0 1 1 0 0 forward_v I I I I #
coedge $-1 $120 $121 $119 $122 reversed $41 $-1 #
coedge $-1 $70 $43 $121 $123 forward $27 $-1 #
coedge $-1 $43 $69 $124 $125 reversed $27 $-1 #
coedge $-1 $126 $119 $43 $72 forward $66 $-1 #
edge $-1 $127 -12.043779390951187 $128 -1.7301247405833138 $71 $129 forward 7 unknown #
face $-1 $130 $131 $15 $-1 $132 forward single #
loop $-1 $-1 $133 $44 #
plane-surface $-1 39.006859729580938 90.971294628220249 149.33915132475443 1 0 0 0 -0.79863551827123203 -0.60181501223851219 forward_v I I I I #
loop $-1 $-1 $134 $29 #
coedge $-1 $77 $77 $78 $135 forward $45 $-1 #
coedge $-1 $78 $78 $77 $135 reversed $47 $-1 #
coedge $-1 $79 $79 $48 $80 forward $131 $-1 #
edge $-1 $136 1.7265954264436475e-015 $136 6.2831853071796022 $79 $137 forward 7 unknown #
face $-1 $138 $139 $12 $-1 $140 reversed single #
loop $-1 $-1 $141 $49 #
plane-surface $-1 -62.532425916318246 0 0 1 0 0 0 0 -1 forward_v I I I I #
coedge $-1 $142 $92 $143 $144 forward $50 $-1 #
coedge $-1 $145 $52 $142 $146 forward $33 $-1 #
coedge $-1 $52 $145 $147 $148 forward $33 $-1 #
coedge $-1 $95 $94 $52 $88 reversed $96 $-1 #
edge $-1 $149 -43.755522573526811 $150 43.755522573526811 $87 $151 forward 7 unknown #
coedge $-1 $54 $53 $152 $153 forward $21 $-1 #
coedge $-1 $154 $155 $53 $91 reversed $139 $-1 #
edge $-1 $98 -62.532425916318246 $156 62.532425916318246 $90 $157 forward 7 unknown #
coedge $-1 $84 $158 $54 $93 reversed $50 $-1 #
edge $-1 $159 -62.532425916318246 $97 62.532425916318246 $92 $160 forward 7 unknown #
coedge $-1 $87 $55 $158 $161 forward $96 $-1 #
coedge $-1 $55 $87 $154 $162 reversed $96 $-1 #
loop $-1 $-1 $94 $138 #
vertex $-1 $56 $163 #
vertex $-1 $56 $164 #
straight-curve $-1 62.532425916318246 0 17.870499477903987 0 1 0 I I #
face $-1 $165 $166 $13 $-1 $167 forward single #
loop $-1 $-1 $168 $57 #
plane-surface $-1 0 0 -17.870499477903987 0 0 1 1 0 0 forward_v I I I I #
coedge $-1 $169 $170 $61 $109 forward $58 $-1 #
coedge $-1 $171 $60 $62 $110 forward $37 $-1 #
coedge $-1 $60 $171 $168 $172 reversed $37 $-1 #
coedge $-1 $173 $63 $60 $107 forward $112 $-1 #
edge $-1 $114 4.8168323286789123 $174 10.308055542376355 $106 $175 forward 7 unknown #
coedge $-1 $62 $61 $176 $177 reversed $24 $-1 #
edge $-1 $178 -62.532425916318246 $113 62.532425916318246 $103 $179 forward 7 unknown #
edge $-1 $114 -62.532425916318246 $180 62.532425916318246 $104 $181 forward 7 unknown #
coedge $-1 $63 $182 $169 $183 forward $112 $-1 #
loop $-1 $-1 $106 $184 #
vertex $-1 $109 $185 #
vertex $-1 $64 $186 #
straight-curve $-1 62.532425916318246 -16.4442039339106 -12.379276264206545 0 1 0 I I #
face $-1 $187 $188 $14 $-1 $189 reversed single #
loop $-1 $-1 $124 $65 #
plane-surface $-1 0 43.755522573526811 0 0 -1 0 0 0 -1 forward_v I I I I #
coedge $-1 $71 $190 $68 $122 forward $66 $-1 #
coedge $-1 $191 $68 $192 $193 reversed $41 $-1 #
coedge $-1 $68 $191 $69 $123 reversed $41 $-1 #
edge $-1 $194 -37.14760450484345 $127 -13.622038318106142 $119 $195 forward 7 unknown #
edge $-1 $127 70.373462267548504 $196 87.511045147053579 $69 $197 forward 7 unknown #
coedge $-1 $198 $199 $70 $125 forward $117 $-1 #
edge $-1 $128 56.799076184473222 $196 70.485758569362957 $124 $200 forward 7 unknown #
coedge $-1 $201 $71 $199 $202 forward $66 $-1 #
vertex $-1 $122 $203 #
vertex $-1 $202 $204 #
straight-curve $-1 39.006859729580938 45.485647314110125 17.870499477903991 0 1 0 I I #
face $-1 $205 $206 $15 $-1 $207 forward single #
loop $-1 $208 $79 $73 #
plane-surface $-1 50.769642822949592 -8.9099381326522433 74.07324598848858 0 0.79863551827123203 0.60181501223851219 1 0 0 forward_v I I I I #
coedge $-1 $209 $210 $211 $212 reversed $74 $-1 #
coedge $-1 $134 $134 $-1 $213 forward $76 $-1 #
edge $-1 $214 0 $214 6.2831853071796004 $77 $215 forward 7 unknown #
vertex $-1 $80 $216 #
ellipse-curve $-1 50.769642822949592 38.598695248342878 11.027158285459112 0 -0.79863551827123203 -0.60181501223851219 2.5 0 0 1 I I #
face $-1 $-1 $96 $12 $-1 $217 reversed single #
loop $-1 $-1 $154 $81 #
plane-surface $-1 0 43.755522573526811 0 0 -1 0 0 0 -1 forward_v I I I I #
coedge $-1 $218 $152 $155 $219 forward $82 $-1 #
coedge $-1 $158 $84 $85 $146 reversed $50 $-1 #
coedge $-1 $152 $218 $84 $144 reversed $82 $-1 #
edge $-1 $159 -17.870499477903987 $220 17.870499477903987 $143 $221 forward 7 unknown #
coedge $-1 $86 $85 $218 $222 forward $33 $-1 #
edge $-1 $150 -62.532425916318246 $220 62.532425916318246 $142 $223 forward 7 unknown #
coedge $-1 $155 $154 $86 $148 reversed $139 $-1 #
edge $-1 $224 -62.532425916318246 $149 62.532425916318246 $147 $225 forward 7 unknown #
vertex $-1 $88 $226 #
vertex $-1 $161 $227 #
straight-curve $-1 62.532425916318246 0 -17.870499477903987 0 -1 0 I I #
coedge $-1 $141 $143 $89 $153 reversed $82 $-1 #
edge $-1 $156 -43.755522573526811 $159 43.755522573526811 $152 $228 forward 7 unknown #
coedge $-1 $147 $90 $95 $162 forward $139 $-1 #
coedge $-1 $90 $147 $141 $219 reversed $139 $-1 #
vertex $-1 $91 $229 #
straight-curve $-1 0 43.755522573526811 17.870499477903987 -1 0 0 I I #
coedge $-1 $92 $142 $94 $161 reversed $50 $-1 #
vertex $-1 $153 $230 #
straight-curve $-1 0 -43.755522573526811 17.870499477903987 1 0 0 I I #
edge $-1 $97 -17.870499477903987 $150 17.870499477903987 $94 $231 forward 7 unknown #
edge $-1 $98 -17.870499477903987 $149 17.870499477903987 $95 $232 forward 7 unknown #
point $-1 62.532425916318246 -43.755522573526811 17.870499477903987 #
point $-1 62.532425916318246 43.755522573526811 17.870499477903987 #
face $-1 $233 $234 $13 $-1 $235 reversed single #
loop $-1 $-1 $236 $100 #
plane-surface $-1 0 0 17.870499477903987 0 0 1 1 0 0 forward_v I I I I #
coedge $-1 $237 $238 $105 $172 forward $101 $-1 #
coedge $-1 $239 $103 $111 $183 reversed $58 $-1 #
coedge $-1 $103 $239 $240 $241 forward $58 $-1 #
coedge $-1 $105 $104 $242 $243 reversed $37 $-1 #
edge $-1 $174 -62.532425916318246 $244 62.532425916318246 $168 $245 forward 7 unknown #
coedge $-1 $246 $106 $238 $247 reversed $112 $-1 #
vertex $-1 $172 $248 #
straight-curve $-1 62.532425916318246 -22.021293162115587 -7.5624439355276332 0 0 -1 I I #
coedge $-1 $240 $242 $108 $177 forward $234 $-1 #
edge $-1 $180 5.5770892282049864 $178 27.311318639616218 $176 $249 forward 7 unknown #
vertex $-1 $109 $250 #
straight-curve $-1 0 -43.755522573526811 -12.379276264206545 1 0 0 I I #
vertex $-1 $177 $251 #
straight-curve $-1 0 -22.021293162115587 -12.379276264206545 -1 0 0 I I #
coedge $-1 $111 $246 $236 $252 reversed $112 $-1 #
edge $-1 $253 -17.870499477903987 $113 12.379276264206545 $111 $254 forward 7 unknown #
face $-1 $-1 $112 $13 $-1 $255 reversed single #
point $-1 62.532425916318246 -43.755522573526818 -12.379276264206545 #
point $-1 62.532425916318246 -22.021293162115587 -12.379276264206545 #
face $-1 $256 $257 $14 $-1 $258 forward single #
loop $-1 $-1 $259 $116 #
plane-surface $-1 0 -32.888407867821201 -12.379276264206545 0 0 1 1 0 0 forward_v I I I I #
coedge $-1 $119 $260 $261 $262 forward $66 $-1 #
coedge $-1 $121 $120 $198 $263 reversed $41 $-1 #
coedge $-1 $261 $264 $120 $193 forward $265 $-1 #
edge $-1 $266 -55.251215283855821 $194 -38.113632404350739 $192 $267 forward 7 unknown #
vertex $-1 $193 $268 #
straight-curve $-1 25.384821411474796 33.441867923158931 17.870499477903991 -1 0 0 I I #
vertex $-1 $263 $269 #
straight-curve $-1 39.006859729580938 -8.9099381326522433 74.07324598848858 0 0.60181501223851219 -0.79863551827123203 I I #
coedge $-1 $270 $124 $191 $263 forward $117 $-1 #
coedge $-1 $124 $271 $126 $202 reversed $117 $-1 #
straight-curve $-1 39.006859729580938 43.755522573526811 74.669575662377213 0 0 -1 I I #
coedge $-1 $260 $126 $272 $273 forward $66 $-1 #
edge $-1 $128 -39.006859729580938 $274 62.532425916318246 $199 $275 forward 7 unknown #
point $-1 39.006859729580938 33.441867923158938 17.870499477903991 #
point $-1 39.006859729580938 43.755522573526811 17.870499477903987 #
face $-1 $276 $277 $15 $-1 $278 reversed single #
loop $-1 $-1 $279 $130 #
plane-surface $-1 0 0 17.870499477903987 0 0 1 1 0 0 forward_v I I I I #
loop $-1 $-1 $280 $73 #
coedge $-1 $210 $133 $281 $282 forward $74 $-1 #
coedge $-1 $133 $209 $283 $284 reversed $74 $-1 #
coedge $-1 $285 $279 $133 $212 forward $206 $-1 #
edge $-1 $286 -12.043779390951187 $287 -1.7301247405833138 $211 $288 forward 7 unknown #
edge $-1 $289 1 $289 0 $134 $-1 forward 7 unknown #
vertex $-1 $135 $290 #
ellipse-curve $-1 50.769642822949592 31.303867707530941 5.5301116035701234 0 0.79863551827123203 0.60181501223851219 2.5 0 0 1 I I #
point $-1 53.269642822949592 38.598695248342857 11.027158285459102 #
plane-surface $-1 62.532425916318246 0 0 -1 0 0 0 0 1 forward_v I I I I #
coedge $-1 $143 $141 $145 $222 reversed $82 $-1 #
edge $-1 $156 -17.870499477903987 $224 17.870499477903987 $155 $291 forward 7 unknown #
vertex $-1 $222 $292 #
straight-curve $-1 -62.532425916318246 -43.755522573526811 0 0 0 -1 I I #
edge $-1 $220 -43.755522573526811 $224 43.755522573526811 $218 $293 forward 7 unknown #
straight-curve $-1 0 -43.755522573526811 -17.870499477903987 -1 0 0 I I #
vertex $-1 $148 $294 #
straight-curve $-1 0 43.755522573526811 -17.870499477903987 1 0 0 I I #
point $-1 62.532425916318246 43.755522573526811 -17.870499477903987 #
point $-1 62.532425916318246 -43.755522573526811 -17.870499477903987 #
straight-curve $-1 -62.532425916318246 0 17.870499477903987 0 -1 0 I I #
point $-1 -62.532425916318246 43.755522573526811 17.870499477903987 #
point $-1 -62.532425916318246 -43.755522573526811 17.870499477903987 #
straight-curve $-1 62.532425916318246 -43.755522573526811 0 0 0 -1 I I #
straight-curve $-1 62.532425916318246 43.755522573526811 0 0 0 -1 I I #
face $-1 $184 $295 $13 $-1 $296 reversed single #
loop $-1 $-1 $176 $165 #
plane-surface $-1 -62.532425916318246 0 0 1 0 0 0 0 -1 forward_v I I I I #
coedge $-1 $297 $298 $182 $252 forward $166 $-1 #
coedge $-1 $299 $168 $300 $301 forward $101 $-1 #
coedge $-1 $168 $299 $173 $247 forward $101 $-1 #
coedge $-1 $170 $169 $298 $302 reversed $58 $-1 #
coedge $-1 $303 $176 $170 $241 reversed $234 $-1 #
edge $-1 $304 -17.870499477903987 $178 12.379276264206545 $240 $305 forward 7 unknown #
coedge $-1 $176 $300 $171 $243 forward $234 $-1 #
edge $-1 $244 -10.308055542376355 $180 -4.8168323286789123 $242 $306 forward 7 unknown #
vertex $-1 $301 $307 #
straight-curve $-1 0 -22.021293162115587 -17.870499477903987 -1 0 0 I I #
coedge $-1 $182 $173 $308 $309 reversed $112 $-1 #
edge $-1 $310 -43.755522573526811 $174 22.021293162115587 $173 $311 forward 7 unknown #
point $-1 62.532425916318246 -22.021293162115587 -17.870499477903987 #
straight-curve $-1 -62.532425916318246 -16.4442039339106 -12.379276264206545 0 -1 0 I I #
point $-1 -62.532425916318246 -43.755522573526818 -12.379276264206545 #
point $-1 -62.532425916318246 -22.021293162115587 -12.379276264206545 #
edge $-1 $253 -43.755522573526811 $312 43.755522573526811 $182 $313 forward 7 unknown #
vertex $-1 $252 $314 #
straight-curve $-1 62.532425916318246 -43.755522573526811 0 0 0 -1 I I #
plane-surface $-1 62.532425916318246 0 0 -1 0 0 0 0 1 forward_v I I I I #
face $-1 $315 $316 $14 $-1 $317 reversed single #
loop $-1 $-1 $318 $187 #
plane-surface $-1 0 -22.021293162115587 -15.124887871055266 0 -1 0 0 0 -1 forward_v I I I I #
coedge $-1 $319 $320 $321 $322 reversed $188 $-1 #
coedge $-1 $190 $201 $323 $324 forward $66 $-1 #
coedge $-1 $325 $192 $190 $262 reversed $265 $-1 #
edge $-1 $326 -43.755522573526811 $194 33.441867923158938 $261 $327 forward 7 unknown #
edge $-1 $196 13.622038318106142 $266 37.14760450484345 $198 $328 forward 7 unknown #
coedge $-1 $192 $329 $270 $330 reversed $265 $-1 #
loop $-1 $-1 $192 $331 #
vertex $-1 $330 $332 #
straight-curve $-1 62.532425916318246 10.504511771280443 48.309400046351861 0 -0.60181501223851219 0.79863551827123203 I I #
point $-1 62.532425916318246 33.441867923158938 17.870499477903991 #
point $-1 39.006859729580938 43.755522573526811 4.1838170930142553 #
coedge $-1 $333 $198 $264 $330 forward $117 $-1 #
coedge $-1 $199 $333 $334 $335 reversed $117 $-1 #
coedge $-1 $334 $336 $201 $273 reversed $337 $-1 #
edge $-1 $274 -43.755522573526811 $338 43.755522573526811 $272 $339 forward 7 unknown #
vertex $-1 $202 $340 #
straight-curve $-1 0 43.755522573526811 17.870499477903987 -1 0 0 I I #
face $-1 $341 $342 $15 $-1 $343 reversed single #
loop $-1 $-1 $283 $205 #
plane-surface $-1 0 43.755522573526811 0 0 -1 0 0 0 -1 forward_v I I I I #
coedge $-1 $211 $344 $280 $345 forward $206 $-1 #
coedge $-1 $346 $281 $279 $345 reversed $208 $-1 #
coedge $-1 $280 $347 $209 $282 reversed $208 $-1 #
edge $-1 $286 70.373462267548504 $348 87.511045147053579 $209 $349 forward 7 unknown #
coedge $-1 $350 $351 $210 $284 forward $277 $-1 #
edge $-1 $287 56.799076184473222 $348 70.485758569362957 $283 $352 forward 7 unknown #
coedge $-1 $353 $211 $351 $354 forward $206 $-1 #
vertex $-1 $345 $355 #
vertex $-1 $354 $356 #
straight-curve $-1 39.006859729580938 45.485647314110125 17.870499477903991 0 1 0 I I #
vertex $-1 $213 $357 #
point $-1 53.269642822949592 31.303867707530941 5.5301116035701234 #
straight-curve $-1 -62.532425916318246 43.755522573526811 0 0 0 -1 I I #
point $-1 -62.532425916318246 -43.755522573526811 -17.870499477903987 #
straight-curve $-1 -62.532425916318246 0 -17.870499477903987 0 1 0 I I #
point $-1 -62.532425916318246 43.755522573526811 -17.870499477903987 #
loop $-1 $-1 $308 $233 #
plane-surface $-1 0 43.755522573526811 0 0 -1 0 0 0 -1 forward_v I I I I #
coedge $-1 $358 $236 $359 $360 forward $166 $-1 #
coedge $-1 $236 $358 $239 $302 forward $166 $-1 #
coedge $-1 $238 $237 $361 $362 forward $101 $-1 #
coedge $-1 $242 $363 $237 $301 reversed $234 $-1 #
edge $-1 $244 -22.021293162115587 $364 43.755522573526811 $300 $365 forward 7 unknown #
edge $-1 $304 -62.532425916318246 $253 62.532425916318246 $239 $366 forward 7 unknown #
coedge $-1 $363 $240 $358 $367 reversed $234 $-1 #
vertex $-1 $367 $368 #
straight-curve $-1 -62.532425916318246 -43.755522573526811 0 0 0 -1 I I #
straight-curve $-1 -62.532425916318246 -22.021293162115587 -7.5624439355276332 0 0 1 I I #
point $-1 -62.532425916318246 -22.021293162115587 -17.870499477903987 #
coedge $-1 $361 $359 $246 $309 forward $295 $-1 #
edge $-1 $312 -17.870499477903987 $310 17.870499477903987 $246 $369 forward 7 unknown #
vertex $-1 $247 $370 #
straight-curve $-1 62.532425916318246 0 -17.870499477903987 0 -1 0 I I #
vertex $-1 $252 $371 #
straight-curve $-1 62.532425916318246 0 17.870499477903987 0 1 0 I I #
point $-1 62.532425916318246 -43.755522573526811 17.870499477903987 #
face $-1 $372 $373 $14 $-1 $374 reversed single #
loop $-1 $-1 $375 $256 #
plane-surface $-1 0 -43.755522573526811 0 0 1 0 0 0 1 forward_v I I I I #
coedge $-1 $376 $377 $378 $379 reversed $257 $-1 #
coedge $-1 $380 $259 $375 $381 reversed $188 $-1 #
coedge $-1 $259 $380 $376 $382 reversed $188 $-1 #
coedge $-1 $378 $325 $259 $322 forward $265 $-1 #
edge $-1 $383 -27.311318639616218 $384 -5.5770892282049864 $321 $385 forward 7 unknown #
coedge $-1 $386 $387 $260 $324 reversed $316 $-1 #
edge $-1 $338 -62.532425916318246 $326 62.532425916318246 $323 $388 forward 7 unknown #
coedge $-1 $321 $261 $387 $389 forward $265 $-1 #
vertex $-1 $262 $390 #
straight-curve $-1 62.532425916318246 0 17.870499477903987 0 1 0 I I #
straight-curve $-1 25.384821411474796 43.755522573526811 4.1838170930142482 1 0 0 I I #
coedge $-1 $264 $378 $391 $392 reversed $265 $-1 #
edge $-1 $266 -4.1838170930142553 $393 17.870499477903987 $264 $394 forward 7 unknown #
face $-1 $-1 $265 $14 $-1 $395 reversed single #
point $-1 62.532425916318246 43.755522573526811 4.1838170930142553 #
coedge $-1 $271 $270 $396 $397 reversed $117 $-1 #
coedge $-1 $398 $272 $271 $335 forward $337 $-1 #
edge $-1 $274 -17.870499477903987 $399 17.870499477903987 $271 $400 forward 7 unknown #
coedge $-1 $272 $401 $386 $402 reversed $337 $-1 #
loop $-1 $-1 $401 $372 #
vertex $-1 $273 $403 #
straight-curve $-1 -62.532425916318246 0 17.870499477903987 0 -1 0 I I #
point $-1 -62.532425916318246 43.755522573526811 17.870499477903987 #
face $-1 $404 $405 $15 $-1 $406 forward single #
loop $-1 $-1 $407 $276 #
plane-surface $-1 0 -32.888407867821201 -12.379276264206545 0 0 1 1 0 0 forward_v I I I I #
coedge $-1 $279 $408 $409 $410 forward $206 $-1 #
edge $-1 $411 -37.14760450484345 $286 -13.622038318106142 $279 $412 forward 7 unknown #
coedge $-1 $347 $280 $413 $414 reversed $208 $-1 #
coedge $-1 $281 $346 $350 $415 reversed $208 $-1 #
vertex $-1 $415 $416 #
straight-curve $-1 39.006859729580938 -8.9099381326522433 74.07324598848858 0 0.60181501223851219 -0.79863551827123203 I I #
coedge $-1 $417 $283 $347 $415 forward $277 $-1 #
coedge $-1 $283 $418 $285 $354 reversed $277 $-1 #
straight-curve $-1 39.006859729580938 43.755522573526811 74.669575662377213 0 0 -1 I I #
coedge $-1 $408 $285 $419 $420 forward $206 $-1 #
edge $-1 $287 -39.006859729580938 $421 62.532425916318246 $351 $422 forward 7 unknown #
point $-1 39.006859729580938 33.441867923158938 17.870499477903991 #
point $-1 39.006859729580938 43.755522573526811 17.870499477903987 #
point $-1 50.769642822949592 29.307278911852862 4.0255740729738427 #
coedge $-1 $298 $297 $303 $367 forward $166 $-1 #
coedge $-1 $308 $423 $297 $360 reversed $295 $-1 #
edge $-1 $312 -62.532425916318246 $424 62.532425916318246 $359 $425 forward 7 unknown #
coedge $-1 $423 $308 $299 $362 reversed $295 $-1 #
edge $-1 $364 -62.532425916318246 $310 62.532425916318246 $361 $426 forward 7 unknown #
coedge $-1 $300 $303 $423 $427 forward $234 $-1 #
vertex $-1 $362 $428 #
straight-curve $-1 -62.532425916318246 0 -17.870499477903987 0 1 0 I I #
straight-curve $-1 0 -43.755522573526811 17.870499477903987 1 0 0 I I #
edge $-1 $424 -43.755522573526811 $304 43.755522573526811 $303 $429 forward 7 unknown #
point $-1 -62.532425916318246 -43.755522573526811 17.870499477903987 #
straight-curve $-1 62.532425916318246 43.755522573526811 0 0 0 -1 I I #
point $-1 62.532425916318246 43.755522573526811 -17.870499477903987 #
point $-1 62.532425916318246 43.755522573526811 17.870499477903987 #
face $-1 $331 $337 $14 $-1 $430 reversed single #
loop $-1 $-1 $431 $315 #
plane-surface $-1 0 0 -17.870499477903987 0 0 1 1 0 0 forward_v I I I I #
coedge $-1 $387 $386 $319 $381 forward $316 $-1 #
coedge $-1 $432 $318 $320 $382 forward $257 $-1 #
coedge $-1 $318 $432 $431 $433 reversed $257 $-1 #
coedge $-1 $329 $321 $318 $379 forward $265 $-1 #
edge $-1 $384 4.8168323286789123 $434 10.308055542376355 $378 $435 forward 7 unknown #
coedge $-1 $320 $319 $401 $436 reversed $188 $-1 #
edge $-1 $437 -62.532425916318246 $383 62.532425916318246 $375 $438 forward 7 unknown #
edge $-1 $384 -62.532425916318246 $439 62.532425916318246 $376 $440 forward 7 unknown #
vertex $-1 $381 $441 #
vertex $-1 $322 $442 #
straight-curve $-1 62.532425916318246 -16.4442039339106 -12.379276264206545 0 1 0 I I #
coedge $-1 $375 $323 $336 $402 forward $316 $-1 #
coedge $-1 $323 $375 $325 $389 reversed $316 $-1 #
straight-curve $-1 0 -43.755522573526811 17.870499477903987 1 0 0 I I #
edge $-1 $326 -17.870499477903987 $383 12.379276264206545 $325 $443 forward 7 unknown #
point $-1 62.532425916318246 -43.755522573526811 17.870499477903987 #
coedge $-1 $431 $396 $329 $392 forward $373 $-1 #
edge $-1 $393 -43.755522573526811 $434 22.021293162115587 $329 $444 forward 7 unknown #
vertex $-1 $392 $445 #
straight-curve $-1 62.532425916318246 43.755522573526811 0 0 0 -1 I I #
plane-surface $-1 62.532425916318246 0 0 -1 0 0 0 0 1 forward_v I I I I #
coedge $-1 $391 $446 $333 $397 forward $373 $-1 #
edge $-1 $399 -62.532425916318246 $393 62.532425916318246 $333 $447 forward 7 unknown #
coedge $-1 $448 $334 $446 $449 reversed $337 $-1 #
vertex $-1 $397 $450 #
straight-curve $-1 -62.532425916318246 43.755522573526811 0 0 0 -1 I I #
coedge $-1 $336 $448 $380 $436 forward $337 $-1 #
edge $-1 $338 -17.870499477903987 $437 12.379276264206545 $336 $451 forward 7 unknown #
point $-1 -62.532425916318246 -43.755522573526811 17.870499477903987 #
face $-1 $452 $453 $15 $-1 $454 reversed single #
loop $-1 $-1 $455 $341 #
plane-surface $-1 0 -22.021293162115587 -15.124887871055266 0 -1 0 0 0 -1 forward_v I I I I #
coedge $-1 $456 $457 $458 $459 reversed $342 $-1 #
coedge $-1 $344 $353 $460 $461 forward $206 $-1 #
coedge $-1 $462 $413 $344 $410 reversed $463 $-1 #
edge $-1 $464 -43.755522573526811 $411 33.441867923158938 $409 $465 forward 7 unknown #
vertex $-1 $414 $466 #
straight-curve $-1 25.384821411474796 33.441867923158931 17.870499477903991 -1 0 0 I I #
coedge $-1 $409 $467 $346 $414 forward $463 $-1 #
edge $-1 $468 -55.251215283855821 $411 -38.113632404350739 $413 $469 forward 7 unknown #
edge $-1 $348 13.622038318106142 $468 37.14760450484345 $350 $470 forward 7 unknown #
point $-1 39.006859729580938 43.755522573526811 4.1838170930142553 #
coedge $-1 $471 $350 $467 $472 forward $277 $-1 #
coedge $-1 $351 $471 $473 $474 reversed $277 $-1 #
coedge $-1 $473 $475 $353 $420 reversed $476 $-1 #
edge $-1 $421 -43.755522573526811 $477 43.755522573526811 $419 $478 forward 7 unknown #
vertex $-1 $354 $479 #
straight-curve $-1 0 43.755522573526811 17.870499477903987 -1 0 0 I I #
coedge $-1 $359 $361 $363 $427 reversed $295 $-1 #
vertex $-1 $360 $480 #
straight-curve $-1 0 43.755522573526811 17.870499477903987 -1 0 0 I I #
straight-curve $-1 0 43.755522573526811 -17.870499477903987 1 0 0 I I #
edge $-1 $424 -17.870499477903987 $364 17.870499477903987 $423 $481 forward 7 unknown #
point $-1 -62.532425916318246 43.755522573526811 -17.870499477903987 #
straight-curve $-1 -62.532425916318246 0 17.870499477903987 0 -1 0 I I #
plane-surface $-1 -62.532425916318246 0 0 1 0 0 0 0 -1 forward_v I I I I #
coedge $-1 $446 $391 $377 $433 forward $373 $-1 #
coedge $-1 $377 $376 $448 $482 reversed $257 $-1 #
edge $-1 $434 -62.532425916318246 $483 62.532425916318246 $431 $484 forward 7 unknown #
vertex $-1 $433 $485 #
straight-curve $-1 62.532425916318246 -22.021293162115587 -7.5624439355276332 0 0 -1 I I #
edge $-1 $439 5.5770892282049864 $437 27.311318639616218 $401 $486 forward 7 unknown #
vertex $-1 $381 $487 #
straight-curve $-1 0 -43.755522573526811 -12.379276264206545 1 0 0 I I #
vertex $-1 $436 $488 #
straight-curve $-1 0 -22.021293162115587 -12.379276264206545 -1 0 0 I I #
point $-1 62.532425916318246 -43.755522573526818 -12.379276264206545 #
point $-1 62.532425916318246 -22.021293162115587 -12.379276264206545 #
straight-curve $-1 62.532425916318246 -43.755522573526811 0 0 0 -1 I I #
straight-curve $-1 62.532425916318246 0 -17.870499477903987 0 -1 0 I I #
point $-1 62.532425916318246 43.755522573526811 -17.870499477903987 #
coedge $-1 $396 $431 $398 $449 forward $373 $-1 #
straight-curve $-1 0 43.755522573526811 -17.870499477903987 1 0 0 I I #
coedge $-1 $401 $398 $432 $482 forward $337 $-1 #
edge $-1 $483 -22.021293162115587 $399 43.755522573526811 $398 $489 forward 7 unknown #
point $-1 -62.532425916318246 43.755522573526811 -17.870499477903987 #
straight-curve $-1 -62.532425916318246 -43.755522573526811 0 0 0 -1 I I #
face $-1 $490 $491 $15 $-1 $492 reversed single #
loop $-1 $-1 $493 $404 #
plane-surface $-1 0 -43.755522573526811 0 0 1 0 0 0 1 forward_v I I I I #
coedge $-1 $494 $495 $496 $497 reversed $405 $-1 #
coedge $-1 $498 $407 $493 $499 reversed $342 $-1 #
coedge $-1 $407 $498 $494 $500 reversed $342 $-1 #
coedge $-1 $496 $462 $407 $459 forward $463 $-1 #
edge $-1 $501 -27.311318639616218 $502 -5.5770892282049864 $458 $503 forward 7 unknown #
coedge $-1 $504 $505 $408 $461 reversed $453 $-1 #
edge $-1 $477 -62.532425916318246 $464 62.532425916318246 $460 $506 forward 7 unknown #
coedge $-1 $458 $409 $505 $507 forward $463 $-1 #
loop $-1 $-1 $413 $508 #
vertex $-1 $410 $509 #
straight-curve $-1 62.532425916318246 0 17.870499477903987 0 1 0 I I #
point $-1 62.532425916318246 33.441867923158938 17.870499477903991 #
coedge $-1 $413 $510 $417 $472 reversed $463 $-1 #
vertex $-1 $472 $511 #
straight-curve $-1 62.532425916318246 10.504511771280443 48.309400046351861 0 -0.60181501223851219 0.79863551827123203 I I #
straight-curve $-1 25.384821411474796 43.755522573526811 4.1838170930142482 1 0 0 I I #
coedge $-1 $418 $417 $512 $513 reversed $277 $-1 #
edge $-1 $468 -4.1838170930142553 $514 17.870499477903987 $467 $515 forward 7 unknown #
coedge $-1 $516 $419 $418 $474 forward $476 $-1 #
edge $-1 $421 -17.870499477903987 $517 17.870499477903987 $418 $518 forward 7 unknown #
coedge $-1 $419 $519 $504 $520 reversed $476 $-1 #
loop $-1 $-1 $519 $490 #
vertex $-1 $420 $521 #
straight-curve $-1 -62.532425916318246 0 17.870499477903987 0 -1 0 I I #
point $-1 -62.532425916318246 43.755522573526811 17.870499477903987 #
point $-1 -62.532425916318246 43.755522573526811 17.870499477903987 #
straight-curve $-1 -62.532425916318246 43.755522573526811 0 0 0 -1 I I #
edge $-1 $483 -10.308055542376355 $439 -4.8168323286789123 $448 $522 forward 7 unknown #
vertex $-1 $449 $523 #
straight-curve $-1 0 -22.021293162115587 -17.870499477903987 -1 0 0 I I #
point $-1 62.532425916318246 -22.021293162115587 -17.870499477903987 #
straight-curve $-1 -62.532425916318246 -16.4442039339106 -12.379276264206545 0 -1 0 I I #
point $-1 -62.532425916318246 -43.755522573526818 -12.379276264206545 #
point $-1 -62.532425916318246 -22.021293162115587 -12.379276264206545 #
straight-curve $-1 -62.532425916318246 0 -17.870499477903987 0 1 0 I I #
face $-1 $508 $476 $15 $-1 $524 reversed single #
loop $-1 $-1 $525 $452 #
plane-surface $-1 0 0 -17.870499477903987 0 0 1 1 0 0 forward_v I I I I #
coedge $-1 $505 $504 $456 $499 forward $453 $-1 #
coedge $-1 $526 $455 $457 $500 forward $405 $-1 #
coedge $-1 $455 $526 $525 $527 reversed $405 $-1 #
coedge $-1 $510 $458 $455 $497 forward $463 $-1 #
edge $-1 $502 4.8168323286789123 $528 10.308055542376355 $496 $529 forward 7 unknown #
coedge $-1 $457 $456 $519 $530 reversed $342 $-1 #
edge $-1 $531 -62.532425916318246 $501 62.532425916318246 $493 $532 forward 7 unknown #
edge $-1 $502 -62.532425916318246 $533 62.532425916318246 $494 $534 forward 7 unknown #
vertex $-1 $499 $535 #
vertex $-1 $459 $536 #
straight-curve $-1 62.532425916318246 -16.4442039339106 -12.379276264206545 0 1 0 I I #
coedge $-1 $493 $460 $475 $520 forward $453 $-1 #
coedge $-1 $460 $493 $462 $507 reversed $453 $-1 #
straight-curve $-1 0 -43.755522573526811 17.870499477903987 1 0 0 I I #
edge $-1 $464 -17.870499477903987 $501 12.379276264206545 $462 $537 forward 7 unknown #
face $-1 $-1 $463 $15 $-1 $538 reversed single #
point $-1 62.532425916318246 -43.755522573526811 17.870499477903987 #
coedge $-1 $467 $496 $539 $540 reversed $463 $-1 #
point $-1 62.532425916318246 43.755522573526811 4.1838170930142553 #
coedge $-1 $539 $541 $471 $513 forward $491 $-1 #
edge $-1 $517 -62.532425916318246 $514 62.532425916318246 $471 $542 forward 7 unknown #
vertex $-1 $540 $543 #
straight-curve $-1 62.532425916318246 43.755522573526811 0 0 0 -1 I I #
coedge $-1 $544 $473 $541 $545 reversed $476 $-1 #
vertex $-1 $513 $546 #
straight-curve $-1 -62.532425916318246 43.755522573526811 0 0 0 -1 I I #
coedge $-1 $475 $544 $498 $530 forward $476 $-1 #
edge $-1 $477 -17.870499477903987 $531 12.379276264206545 $475 $547 forward 7 unknown #
point $-1 -62.532425916318246 -43.755522573526811 17.870499477903987 #
straight-curve $-1 -62.532425916318246 -22.021293162115587 -7.5624439355276332 0 0 1 I I #
point $-1 -62.532425916318246 -22.021293162115587 -17.870499477903987 #
plane-surface $-1 -62.532425916318246 0 0 1 0 0 0 0 -1 forward_v I I I I #
coedge $-1 $541 $539 $495 $527 forward $491 $-1 #
coedge $-1 $495 $494 $544 $548 reversed $405 $-1 #
edge $-1 $528 -62.532425916318246 $549 62.532425916318246 $525 $550 forward 7 unknown #
vertex $-1 $527 $551 #
straight-curve $-1 62.532425916318246 -22.021293162115587 -7.5624439355276332 0 0 -1 I I #
edge $-1 $533 5.5770892282049864 $531 27.311318639616218 $519 $552 forward 7 unknown #
vertex $-1 $499 $553 #
straight-curve $-1 0 -43.755522573526811 -12.379276264206545 1 0 0 I I #
vertex $-1 $530 $554 #
straight-curve $-1 0 -22.021293162115587 -12.379276264206545 -1 0 0 I I #
point $-1 62.532425916318246 -43.755522573526818 -12.379276264206545 #
point $-1 62.532425916318246 -22.021293162115587 -12.379276264206545 #
straight-curve $-1 62.532425916318246 -43.755522573526811 0 0 0 -1 I I #
plane-surface $-1 62.532425916318246 0 0 -1 0 0 0 0 1 forward_v I I I I #
coedge $-1 $525 $512 $510 $540 forward $491 $-1 #
edge $-1 $514 -43.755522573526811 $528 22.021293162115587 $510 $555 forward 7 unknown #
coedge $-1 $512 $525 $516 $545 forward $491 $-1 #
straight-curve $-1 0 43.755522573526811 -17.870499477903987 1 0 0 I I #
point $-1 62.532425916318246 43.755522573526811 -17.870499477903987 #
coedge $-1 $519 $516 $526 $548 forward $476 $-1 #
edge $-1 $549 -22.021293162115587 $517 43.755522573526811 $516 $556 forward 7 unknown #
point $-1 -62.532425916318246 43.755522573526811 -17.870499477903987 #
straight-curve $-1 -62.532425916318246 -43.755522573526811 0 0 0 -1 I I #
edge $-1 $549 -10.308055542376355 $533 -4.8168323286789123 $544 $557 forward 7 unknown #
vertex $-1 $545 $558 #
straight-curve $-1 0 -22.021293162115587 -17.870499477903987 -1 0 0 I I #
point $-1 62.532425916318246 -22.021293162115587 -17.870499477903987 #
straight-curve $-1 -62.532425916318246 -16.4442039339106 -12.379276264206545 0 -1 0 I I #
point $-1 -62.532425916318246 -43.755522573526818 -12.379276264206545 #
point $-1 -62.532425916318246 -22.021293162115587 -12.379276264206545 #
straight-curve $-1 62.532425916318246 0 -17.870499477903987 0 -1 0 I I #
straight-curve $-1 -62.532425916318246 0 -17.870499477903987 0 1 0 I I #
straight-curve $-1 -62.532425916318246 -22.021293162115587 -7.5624439355276332 0 0 1 I I #
point $-1 -62.532425916318246 -22.021293162115587 -17.870499477903987 #
End-of-ACIS-data 