500 0 6 0           
7 Unknown 11 ACIS 5.0 NT 24 Fri Mar 26 14:45:29 1999 
-1 9.9999999999999995e-007 1e-010 
body $-1 $6 $-1 $7 #
body $-1 $8 $-1 $9 #
body $-1 $10 $-1 $11 #
body $-1 $12 $-1 $13 #
body $-1 $14 $-1 $15 #
body $-1 $16 $-1 $17 #
lump $-1 $-1 $18 $0 #
transform $-1 1 0 0 0 1 0 0 0 1 78.983123264259774 38.385648458704111 8.8593800175113895 1 rotate no_reflect no_shear #
lump $-1 $-1 $19 $1 #
transform $-1 1 0 0 0 1 0 0 0 1 78.983123264259774 38.385648458704111 8.8593800175113895 1 rotate no_reflect no_shear #
lump $-1 $-1 $20 $2 #
transform $-1 1 0 0 0 1 0 0 0 1 78.983123264259774 38.385648458704111 8.8593800175113895 1 rotate no_reflect no_shear #
lump $-1 $-1 $21 $3 #
transform $-1 1 0 0 0 1 0 0 0 1 78.983123264259774 38.385648458704111 8.8593800175113895 1 rotate no_reflect no_shear #
lump $-1 $-1 $22 $4 #
transform $-1 1 0 0 0 1 0 0 0 1 78.983123264259774 38.385648458704111 8.8593800175113895 1 rotate no_reflect no_shear #
lump $-1 $-1 $23 $5 #
transform $-1 1 0 0 0 1 0 0 0 1 78.983123264259774 38.385648458704111 8.8593800175113895 1 rotate no_reflect no_shear #
shell $-1 $-1 $-1 $24 $-1 $6 #
shell $-1 $-1 $-1 $25 $-1 $8 #
shell $-1 $-1 $-1 $26 $-1 $10 #
shell $-1 $-1 $-1 $27 $-1 $12 #
shell $-1 $-1 $-1 $28 $-1 $14 #
shell $-1 $-1 $-1 $29 $-1 $16 #
face $-1 $30 $31 $18 $-1 $32 forward single #
face $-1 $33 $34 $19 $-1 $35 forward single #
face $-1 $36 $37 $20 $-1 $38 reversed single #
face $-1 $39 $40 $21 $-1 $41 forward single #
face $-1 $42 $43 $22 $-1 $44 reversed single #
face $-1 $45 $46 $23 $-1 $47 forward single #
face $-1 $48 $49 $18 $-1 $50 reversed single #
loop $-1 $-1 $51 $24 #
plane-surface $-1 0 0 8.8593800175113895 0 0 1 1 0 0 forward_v I I I I #
face $-1 $52 $53 $19 $-1 $54 reversed single #
loop $-1 $-1 $55 $25 #
plane-surface $-1 0 -34.585697143761898 -5.6629518293030348 0 0 1 1 0 0 forward_v I I I I #
face $-1 $56 $57 $20 $-1 $58 reversed single #
loop $-1 $-1 $59 $26 #
plane-surface $-1 -203.46222553954271 7.0361420063053259 97.448644024065558 0 1 0 -0.78801076186113728 0 0.61566146476048833 forward_v I I I I #
face $-1 $60 $61 $21 $-1 $62 forward single #
loop $-1 $63 $64 $27 #
cone-surface $-1 -72.788807155185893 13.914966642543327 2.3320430700187598 0.78801076186113728 0 -0.61566146476048833 1.5391536619012207 0 1.9700269046528431 1 I I 0 1 2.5 forward I I I I #
face $-1 $65 $66 $22 $-1 $67 reversed single #
loop $-1 $-1 $68 $28 #
plane-surface $-1 90.674874409151329 31.235453763087435 227.69108757371964 0 1 0 0.74314483375859142 0 0.66913059716165679 forward_v I I I I #
face $-1 $69 $70 $23 $-1 $71 forward single #
loop $-1 $72 $73 $29 #
cone-surface $-1 75.747918323346553 34.810551110895773 5.5432244696722641 -0.74314483375859142 0 -0.66913059716165679 0.66913059716165679 0 -0.74314483375859142 1 I I 0 1 1 forward I I I I #
face $-1 $74 $75 $18 $-1 $76 reversed single #
loop $-1 $-1 $77 $30 #
plane-surface $-1 0 0 -8.8593800175113895 0 0 1 1 0 0 forward_v I I I I #
coedge $-1 $78 $79 $80 $81 forward $31 $-1 #
face $-1 $82 $83 $19 $-1 $84 reversed single #
loop $-1 $-1 $85 $33 #
plane-surface $-1 0 -30.785745828819682 -7.2611659234072121 0 -1 0 0 0 -1 forward_v I I I I #
coedge $-1 $86 $87 $88 $89 reversed $34 $-1 #
face $-1 $90 $91 $20 $-1 $92 reversed single #
loop $-1 $-1 $93 $36 #
plane-surface $-1 -78.983123264259788 13.914966642543327 0.19491330360081349 -0.78801076186113728 0 0.61566146476048833 0.61566146476048833 0 0.78801076186113728 forward_v I I I I #
coedge $-1 $94 $95 $96 $97 reversed $37 $-1 #
face $-1 $-1 $98 $21 $-1 $99 forward single #
loop $-1 $100 $101 $39 #
cone-surface $-1 -68.994189152708884 13.914966642543327 -0.63263735146918698 0.78801076186113728 0 -0.61566146476048833 0.76957683095061036 0 0.98501345232642157 1 I I -0.70710678118654746 0.70710678118654746 1.25 forward I I I I #
loop $-1 $-1 $102 $27 #
coedge $-1 $64 $64 $103 $104 reversed $40 $-1 #
face $-1 $105 $106 $22 $-1 $107 reversed single #
loop $-1 $-1 $108 $42 #
plane-surface $-1 -26.716925606754003 34.810551110895773 121.99103870270586 0.74314483375859142 0 0.66913059716165679 0.66913059716165679 0 -0.74314483375859142 forward_v I I I I #
coedge $-1 $109 $110 $111 $112 reversed $43 $-1 #
face $-1 $-1 $113 $23 $-1 $114 forward single #
loop $-1 $115 $116 $45 #
cone-surface $-1 74.059065159546066 34.810551110895773 4.0225742886077374 -0.74314483375859142 0 -0.66913059716165679 0.3345652985808284 0 -0.37157241687929571 1 I I -0.70710678118654746 0.70710678118654746 0.5 forward I I I I #
loop $-1 $-1 $117 $29 #
coedge $-1 $73 $73 $118 $119 reversed $46 $-1 #
face $-1 $120 $121 $18 $-1 $122 reversed single #
loop $-1 $-1 $123 $48 #
plane-surface $-1 0 -38.385648458704111 0 0 1 0 0 0 1 forward_v I I I I #
coedge $-1 $124 $125 $126 $127 forward $49 $-1 #
coedge $-1 $128 $51 $129 $130 forward $31 $-1 #
coedge $-1 $51 $128 $131 $132 forward $31 $-1 #
coedge $-1 $133 $134 $51 $81 reversed $135 $-1 #
edge $-1 $136 -38.385648458704111 $137 38.385648458704111 $80 $138 forward 7 unknown #
face $-1 $139 $140 $19 $-1 $141 reversed single #
loop $-1 $-1 $142 $52 #
plane-surface $-1 0 0 -8.8593800175113895 0 0 1 1 0 0 forward_v I I I I #
coedge $-1 $143 $144 $145 $146 reversed $53 $-1 #
coedge $-1 $147 $55 $144 $148 forward $34 $-1 #
coedge $-1 $55 $147 $149 $150 reversed $34 $-1 #
coedge $-1 $151 $145 $55 $89 forward $140 $-1 #
edge $-1 $152 13.492897256938733 $153 21.092799886823162 $88 $154 forward 7 unknown #
face $-1 $155 $156 $20 $-1 $157 forward single #
loop $-1 $-1 $158 $56 #
plane-surface $-1 -203.46222553954271 20.793791278781327 97.448644024065558 0 -1 0 0.78801076186113728 0 -0.61566146476048833 forward_v I I I I #
coedge $-1 $159 $160 $161 $162 reversed $57 $-1 #
coedge $-1 $95 $59 $163 $164 reversed $37 $-1 #
coedge $-1 $59 $94 $159 $165 reversed $37 $-1 #
coedge $-1 $161 $166 $59 $97 forward $156 $-1 #
edge $-1 $167 22.747989505511583 $168 29.517412623358155 $96 $169 forward 7 unknown #
loop $-1 $-1 $103 $60 #
plane-surface $-1 -78.983123264259788 13.914966642543327 0.19491330360081349 -0.78801076186113728 0 0.61566146476048833 0.61566146476048833 0 0.78801076186113728 forward_v I I I I #
loop $-1 $-1 $170 $39 #
coedge $-1 $101 $101 $102 $171 reversed $61 $-1 #
coedge $-1 $102 $102 $101 $171 forward $63 $-1 #
coedge $-1 $103 $103 $64 $104 forward $98 $-1 #
edge $-1 $172 0 $172 6.2831853071796004 $103 $173 forward 7 unknown #
face $-1 $174 $175 $22 $-1 $176 forward single #
loop $-1 $-1 $177 $65 #
plane-surface $-1 0 38.385648458704111 0 0 -1 0 0 0 -1 forward_v I I I I #
coedge $-1 $178 $179 $180 $181 reversed $66 $-1 #
coedge $-1 $110 $68 $182 $183 reversed $43 $-1 #
coedge $-1 $68 $109 $178 $184 reversed $43 $-1 #
coedge $-1 $180 $185 $68 $112 forward $186 $-1 #
edge $-1 $187 104.98616376934844 $188 109.24630510005929 $111 $189 forward 7 unknown #
loop $-1 $-1 $118 $69 #
plane-surface $-1 -26.716925606754003 34.810551110895773 121.99103870270586 0.74314483375859142 0 0.66913059716165679 0.66913059716165679 0 -0.74314483375859142 forward_v I I I I #
loop $-1 $-1 $190 $45 #
coedge $-1 $116 $116 $117 $191 reversed $70 $-1 #
coedge $-1 $117 $117 $116 $191 forward $72 $-1 #
coedge $-1 $118 $118 $73 $119 forward $113 $-1 #
edge $-1 $192 0 $192 6.2831853071796004 $118 $193 forward 7 unknown #
face $-1 $194 $195 $18 $-1 $196 reversed single #
loop $-1 $-1 $197 $74 #
plane-surface $-1 -78.983123264259774 0 0 1 0 0 0 0 -1 forward_v I I I I #
coedge $-1 $198 $131 $199 $200 forward $75 $-1 #
coedge $-1 $201 $77 $198 $202 forward $49 $-1 #
coedge $-1 $77 $201 $203 $204 forward $49 $-1 #
coedge $-1 $134 $133 $77 $127 reversed $135 $-1 #
edge $-1 $205 -38.385648458704111 $206 38.385648458704111 $126 $207 forward 7 unknown #
coedge $-1 $79 $78 $208 $209 forward $31 $-1 #
coedge $-1 $210 $211 $78 $130 reversed $195 $-1 #
edge $-1 $137 -78.983123264259774 $212 78.983123264259774 $129 $213 forward 7 unknown #
coedge $-1 $123 $214 $79 $132 reversed $75 $-1 #
edge $-1 $215 -78.983123264259774 $136 78.983123264259774 $131 $216 forward 7 unknown #
coedge $-1 $126 $80 $214 $217 forward $135 $-1 #
coedge $-1 $80 $126 $210 $218 reversed $135 $-1 #
loop $-1 $-1 $133 $194 #
vertex $-1 $81 $219 #
vertex $-1 $81 $220 #
straight-curve $-1 78.983123264259774 0 8.8593800175113895 0 1 0 I I #
face $-1 $221 $222 $19 $-1 $223 reversed single #
loop $-1 $-1 $145 $82 #
plane-surface $-1 78.983123264259774 0 0 -1 0 0 0 0 1 forward_v I I I I #
coedge $-1 $224 $225 $143 $226 forward $83 $-1 #
coedge $-1 $227 $85 $142 $226 reversed $53 $-1 #
coedge $-1 $85 $227 $86 $148 reversed $53 $-1 #
coedge $-1 $88 $228 $85 $146 forward $140 $-1 #
edge $-1 $229 -5.2287970558077834 $152 -2.0323688675994287 $145 $230 forward 7 unknown #
coedge $-1 $87 $86 $231 $232 reversed $34 $-1 #
edge $-1 $152 -78.983123264259774 $233 78.983123264259774 $144 $234 forward 7 unknown #
coedge $-1 $235 $236 $87 $150 forward $222 $-1 #
edge $-1 $153 -78.983123264259774 $237 78.983123264259774 $149 $238 forward 7 unknown #
coedge $-1 $228 $88 $236 $239 forward $140 $-1 #
vertex $-1 $89 $240 #
vertex $-1 $239 $241 #
straight-curve $-1 78.983123264259774 -17.292848571880949 -5.6629518293030348 0 -1 0 I I #
face $-1 $-1 $242 $20 $-1 $243 reversed single #
loop $-1 $-1 $96 $90 #
plane-surface $-1 0 0 8.8593800175113895 0 0 1 1 0 0 forward_v I I I I #
coedge $-1 $244 $245 $246 $247 reversed $91 $-1 #
coedge $-1 $248 $93 $95 $165 forward $57 $-1 #
coedge $-1 $93 $248 $244 $249 forward $57 $-1 #
coedge $-1 $246 $96 $93 $162 forward $156 $-1 #
edge $-1 $168 0.078658685033662579 $250 13.836307957509664 $161 $251 forward 7 unknown #
coedge $-1 $252 $253 $94 $164 forward $242 $-1 #
edge $-1 $254 -48.529408708431944 $167 -39.864941994521388 $163 $255 forward 7 unknown #
edge $-1 $168 -10.995365968666079 $254 -2.3075034077291584e-014 $95 $256 forward 7 unknown #
coedge $-1 $96 $246 $252 $257 forward $156 $-1 #
vertex $-1 $164 $258 #
vertex $-1 $97 $259 #
straight-curve $-1 -101.73111276977136 7.0361420063053259 8.8593800175113913 1 0 0 I I #
coedge $-1 $170 $170 $-1 $260 reversed $100 $-1 #
edge $-1 $261 0 $261 6.2831853071796004 $101 $262 forward 7 unknown #
vertex $-1 $104 $263 #
ellipse-curve $-1 -75.598411705336488 13.914966642543327 4.5271466605561059 -0.78801076186113728 0 0.61566146476048833 1.5391536619012207 0 1.9700269046528431 1 I I #
face $-1 $-1 $186 $22 $-1 $264 reversed single #
loop $-1 $-1 $265 $105 #
plane-surface $-1 0 0 8.8593800175113895 0 0 1 1 0 0 forward_v I I I I #
coedge $-1 $266 $267 $179 $268 forward $106 $-1 #
coedge $-1 $269 $108 $110 $184 forward $66 $-1 #
coedge $-1 $108 $269 $177 $268 reversed $66 $-1 #
coedge $-1 $270 $111 $108 $181 forward $186 $-1 #
edge $-1 $188 13.830178207639548 $271 20.980372903256225 $180 $272 forward 7 unknown #
coedge $-1 $273 $265 $109 $183 forward $175 $-1 #
edge $-1 $274 29.809837671700009 $187 33.64568605968411 $182 $275 forward 7 unknown #
edge $-1 $188 -157.96624652851955 $274 -152.23366098504692 $110 $276 forward 7 unknown #
coedge $-1 $111 $270 $273 $277 reversed $186 $-1 #
loop $-1 $-1 $180 $174 #
vertex $-1 $277 $278 #
vertex $-1 $112 $279 #
straight-curve $-1 78.983123264259774 31.235453763087435 113.84554378685982 0 0 -1 I I #
coedge $-1 $190 $190 $-1 $280 reversed $115 $-1 #
edge $-1 $281 0 $281 6.2831853071796004 $116 $282 forward 7 unknown #
vertex $-1 $119 $283 #
ellipse-curve $-1 77.065199070267738 34.810551110895773 6.7293093521559575 0.74314483375859142 0 0.66913059716165679 0.66913059716165679 0 -0.74314483375859142 1 I I #
face $-1 $-1 $135 $18 $-1 $284 reversed single #
loop $-1 $-1 $210 $120 #
plane-surface $-1 0 38.385648458704111 0 0 -1 0 0 0 -1 forward_v I I I I #
coedge $-1 $285 $208 $211 $286 forward $121 $-1 #
coedge $-1 $214 $123 $124 $202 reversed $75 $-1 #
coedge $-1 $208 $285 $123 $200 reversed $121 $-1 #
edge $-1 $215 -8.8593800175113895 $287 8.8593800175113895 $199 $288 forward 7 unknown #
coedge $-1 $125 $124 $285 $289 forward $49 $-1 #
edge $-1 $206 -78.983123264259774 $287 78.983123264259774 $198 $290 forward 7 unknown #
coedge $-1 $211 $210 $125 $204 reversed $195 $-1 #
edge $-1 $291 -78.983123264259774 $205 78.983123264259774 $203 $292 forward 7 unknown #
vertex $-1 $127 $293 #
vertex $-1 $217 $294 #
straight-curve $-1 78.983123264259774 0 -8.8593800175113895 0 -1 0 I I #
coedge $-1 $197 $199 $128 $209 reversed $121 $-1 #
edge $-1 $212 -38.385648458704111 $215 38.385648458704111 $208 $295 forward 7 unknown #
coedge $-1 $203 $129 $134 $218 forward $195 $-1 #
coedge $-1 $129 $203 $197 $286 reversed $195 $-1 #
vertex $-1 $130 $296 #
straight-curve $-1 0 38.385648458704111 8.8593800175113895 -1 0 0 I I #
coedge $-1 $131 $198 $133 $217 reversed $75 $-1 #
vertex $-1 $209 $297 #
straight-curve $-1 0 -38.385648458704111 8.8593800175113895 1 0 0 I I #
edge $-1 $136 -8.8593800175113895 $206 8.8593800175113895 $133 $298 forward 7 unknown #
edge $-1 $137 -8.8593800175113895 $205 8.8593800175113895 $134 $299 forward 7 unknown #
point $-1 78.983123264259774 -38.385648458704111 8.8593800175113895 #
point $-1 78.983123264259774 38.385648458704111 8.8593800175113895 #
face $-1 $-1 $300 $19 $-1 $301 reversed single #
loop $-1 $-1 $149 $139 #
plane-surface $-1 0 -38.385648458704111 0 0 1 0 0 0 1 forward_v I I I I #
coedge $-1 $302 $142 $228 $303 forward $83 $-1 #
coedge $-1 $142 $302 $304 $305 forward $83 $-1 #
edge $-1 $306 -78.983123264259774 $229 78.983123264259774 $142 $307 forward 7 unknown #
coedge $-1 $144 $143 $308 $309 reversed $53 $-1 #
coedge $-1 $145 $151 $224 $303 reversed $140 $-1 #
vertex $-1 $303 $310 #
straight-curve $-1 78.983123264259774 -30.785745828819682 -3.6305829617036061 0 0 1 I I #
coedge $-1 $308 $311 $147 $232 forward $300 $-1 #
edge $-1 $237 -21.092799886823162 $233 -13.492897256938733 $231 $312 forward 7 unknown #
vertex $-1 $232 $313 #
straight-curve $-1 0 -30.785745828819682 -5.6629518293030348 -1 0 0 I I #
coedge $-1 $314 $149 $311 $315 forward $222 $-1 #
coedge $-1 $149 $314 $151 $239 reversed $222 $-1 #
vertex $-1 $315 $316 #
straight-curve $-1 0 -38.385648458704111 -5.6629518293030348 -1 0 0 I I #
edge $-1 $153 5.6629518293030348 $317 8.8593800175113895 $151 $318 forward 7 unknown #
point $-1 78.983123264259774 -30.785745828819682 -5.6629518293030348 #
point $-1 78.983123264259774 -38.385648458704111 -5.6629518293030348 #
loop $-1 $-1 $163 $155 #
plane-surface $-1 -78.983123264259774 0 0 1 0 0 0 0 -1 forward_v I I I I #
coedge $-1 $245 $158 $160 $249 reversed $91 $-1 #
coedge $-1 $158 $244 $319 $320 reversed $91 $-1 #
coedge $-1 $166 $161 $158 $247 forward $156 $-1 #
edge $-1 $250 -29.517412623358155 $321 -22.747989505511583 $246 $322 forward 7 unknown #
coedge $-1 $160 $159 $253 $323 reversed $57 $-1 #
edge $-1 $324 2.3075034077291584e-014 $250 10.995365968666079 $244 $325 forward 7 unknown #
vertex $-1 $162 $326 #
straight-curve $-1 -72.213700146413203 6.9574833212716634 8.8593800175113877 0 1 0 I I #
coedge $-1 $319 $163 $166 $257 reversed $242 $-1 #
coedge $-1 $163 $319 $248 $323 forward $242 $-1 #
vertex $-1 $164 $327 #
straight-curve $-1 -78.983123264259774 7.0361420063053259 48.724322012032779 0 0 1 I I #
straight-curve $-1 -78.983123264259788 7.0361420063053259 0.19491330360081349 -0.61566146476048833 0 -0.78801076186113728 I I #
edge $-1 $321 -20.793791278781327 $167 -7.0361420063053259 $252 $328 forward 7 unknown #
point $-1 -78.983123264259774 7.0361420063053259 8.8593800175113895 #
point $-1 -72.213700146413203 7.0361420063053259 8.8593800175113895 #
edge $-1 $329 1 $329 0 $170 $-1 forward 7 unknown #
vertex $-1 $171 $330 #
ellipse-curve $-1 -69.979202605035312 13.914966642543327 0.13693947948142338 -0.78801076186113728 0 0.61566146476048833 1.5391536619012207 0 1.9700269046528431 1 I I #
point $-1 -74.059258043435264 13.914966642543327 6.4971735652089393 #
plane-surface $-1 78.983123264259774 0 0 -1 0 0 0 0 1 forward_v I I I I #
coedge $-1 $182 $331 $269 $332 forward $175 $-1 #
coedge $-1 $267 $177 $331 $333 reversed $106 $-1 #
coedge $-1 $177 $266 $270 $334 forward $106 $-1 #
edge $-1 $271 -103.69918524735397 $335 -97.966599703881386 $177 $336 forward 7 unknown #
coedge $-1 $179 $178 $265 $332 reversed $66 $-1 #
coedge $-1 $185 $180 $267 $334 reversed $186 $-1 #
vertex $-1 $268 $337 #
straight-curve $-1 78.983123264259774 17.405275555447886 4.5992386868005397 0 1 0 I I #
coedge $-1 $331 $182 $185 $277 forward $175 $-1 #
vertex $-1 $183 $338 #
straight-curve $-1 45.337437204575664 31.235453763087435 8.8593800175113842 1 0 0 I I #
straight-curve $-1 -26.716925606754003 31.235453763087435 121.99103870270586 -0.66913059716165679 0 0.74314483375859142 I I #
edge $-1 $187 31.235453763087435 $339 38.385648458704111 $185 $340 forward 7 unknown #
point $-1 78.983123264259774 31.235453763087435 8.8593800175113895 #
point $-1 78.983123264259774 31.235453763087435 4.5992386868005326 #
edge $-1 $341 1 $341 0 $190 $-1 forward 7 unknown #
vertex $-1 $191 $342 #
ellipse-curve $-1 74.430637576425354 34.810551110895773 4.3571395871885654 0.74314483375859142 0 0.66913059716165679 0.66913059716165679 0 -0.74314483375859142 1 I I #
point $-1 77.734329667429392 34.810551110895773 5.9861645183973708 #
plane-surface $-1 78.983123264259774 0 0 -1 0 0 0 0 1 forward_v I I I I #
coedge $-1 $199 $197 $201 $289 reversed $121 $-1 #
edge $-1 $212 -8.8593800175113895 $291 8.8593800175113895 $211 $343 forward 7 unknown #
vertex $-1 $289 $344 #
straight-curve $-1 -78.983123264259774 -38.385648458704111 0 0 0 -1 I I #
edge $-1 $287 -38.385648458704111 $291 38.385648458704111 $285 $345 forward 7 unknown #
straight-curve $-1 0 -38.385648458704111 -8.8593800175113895 -1 0 0 I I #
vertex $-1 $204 $346 #
straight-curve $-1 0 38.385648458704111 -8.8593800175113895 1 0 0 I I #
point $-1 78.983123264259774 38.385648458704111 -8.8593800175113895 #
point $-1 78.983123264259774 -38.385648458704111 -8.8593800175113895 #
straight-curve $-1 -78.983123264259774 0 8.8593800175113895 0 -1 0 I I #
point $-1 -78.983123264259774 38.385648458704111 8.8593800175113895 #
point $-1 -78.983123264259774 -38.385648458704111 8.8593800175113895 #
straight-curve $-1 78.983123264259774 -38.385648458704111 0 0 0 -1 I I #
straight-curve $-1 78.983123264259774 38.385648458704111 0 0 0 -1 I I #
loop $-1 $-1 $308 $221 #
plane-surface $-1 -78.983123264259774 0 0 1 0 0 0 0 -1 forward_v I I I I #
coedge $-1 $225 $224 $314 $347 forward $83 $-1 #
edge $-1 $229 30.785745828819682 $317 38.385648458704111 $228 $348 forward 7 unknown #
coedge $-1 $311 $308 $225 $305 reversed $300 $-1 #
edge $-1 $349 -38.385648458704111 $306 -30.785745828819682 $304 $350 forward 7 unknown #
vertex $-1 $309 $351 #
straight-curve $-1 0 -30.785745828819682 -8.8593800175113895 1 0 0 I I #
coedge $-1 $304 $231 $227 $309 forward $300 $-1 #
edge $-1 $233 2.0323688675994287 $306 5.2287970558077834 $308 $352 forward 7 unknown #
point $-1 78.983123264259774 -30.785745828819682 -8.8593800175113895 #
coedge $-1 $231 $304 $235 $315 reversed $300 $-1 #
straight-curve $-1 -78.983123264259774 -17.292848571880949 -5.6629518293030348 0 1 0 I I #
point $-1 -78.983123264259774 -30.785745828819682 -5.6629518293030348 #
coedge $-1 $236 $235 $302 $347 reversed $222 $-1 #
edge $-1 $237 5.6629518293030348 $349 8.8593800175113895 $311 $353 forward 7 unknown #
point $-1 -78.983123264259774 -38.385648458704111 -5.6629518293030348 #
vertex $-1 $239 $354 #
straight-curve $-1 78.983123264259774 -38.385648458704111 0 0 0 -1 I I #
coedge $-1 $253 $252 $245 $320 forward $242 $-1 #
edge $-1 $321 39.864941994521388 $324 48.529408708431944 $319 $355 forward 7 unknown #
vertex $-1 $257 $356 #
straight-curve $-1 -101.73111276977136 20.793791278781327 8.8593800175113913 -1 0 0 I I #
edge $-1 $324 -13.836307957509664 $254 -0.078658685033662579 $253 $357 forward 7 unknown #
vertex $-1 $323 $358 #
straight-curve $-1 -78.983123264259788 20.793791278781327 0.19491330360081349 0.61566146476048833 0 0.78801076186113728 I I #
point $-1 -72.213700146413203 20.793791278781327 8.8593800175113895 #
point $-1 -78.983123264259774 7.0361420063053259 0.19491330360083167 #
straight-curve $-1 -78.983123264259774 0 8.8593800175113895 0 -1 0 I I #
vertex $-1 $260 $359 #
point $-1 -68.440048943134087 13.914966642543327 2.1069663841342665 #
coedge $-1 $265 $273 $266 $333 forward $175 $-1 #
edge $-1 $335 -20.980372903256225 $274 -13.830178207639548 $265 $360 forward 7 unknown #
edge $-1 $339 -78.983123264259774 $335 -75.147274876275674 $266 $361 forward 7 unknown #
edge $-1 $339 -8.8593800175113895 $271 -4.5992386868005513 $270 $362 forward 7 unknown #
vertex $-1 $268 $363 #
straight-curve $-1 9.5948255145205295 38.385648458704111 81.662752468346795 -0.66913059716165679 0 0.74314483375859142 I I #
point $-1 78.983123264259774 38.385648458704111 4.5992386868005513 #
point $-1 75.147274876275674 31.235453763087435 8.8593800175113842 #
vertex $-1 $277 $364 #
straight-curve $-1 78.983123264259774 0 8.8593800175113895 0 1 0 I I #
vertex $-1 $280 $365 #
point $-1 75.099768173587023 34.810551110895773 3.6139947534299743 #
straight-curve $-1 -78.983123264259774 38.385648458704111 0 0 0 -1 I I #
point $-1 -78.983123264259774 -38.385648458704111 -8.8593800175113895 #
straight-curve $-1 -78.983123264259774 0 -8.8593800175113895 0 1 0 I I #
point $-1 -78.983123264259774 38.385648458704111 -8.8593800175113895 #
edge $-1 $317 -78.983123264259774 $349 78.983123264259774 $314 $366 forward 7 unknown #
straight-curve $-1 78.983123264259774 0 -8.8593800175113895 0 -1 0 I I #
vertex $-1 $305 $367 #
straight-curve $-1 -78.983123264259774 0 -8.8593800175113895 0 1 0 I I #
point $-1 -78.983123264259774 -30.785745828819682 -8.8593800175113895 #
straight-curve $-1 -78.983123264259774 -30.785745828819682 -3.6305829617036061 0 0 -1 I I #
straight-curve $-1 -78.983123264259774 -38.385648458704111 0 0 0 -1 I I #
point $-1 78.983123264259774 -38.385648458704111 -8.8593800175113895 #
straight-curve $-1 -78.983123264259774 20.793791278781327 48.724322012032779 0 0 -1 I I #
point $-1 -78.983123264259774 20.793791278781327 8.8593800175113895 #
straight-curve $-1 -78.983123264259774 6.9574833212716634 0.1949133036008304 0 -1 0 I I #
point $-1 -78.983123264259774 20.793791278781327 0.19491330360083167 #
point $-1 -68.009175700382457 13.914966642543327 -1.4022141824197973 #
straight-curve $-1 75.147274876275688 17.405275555447886 8.8593800175113842 0 -1 0 I I #
straight-curve $-1 0 38.385648458704111 8.8593800175113895 -1 0 0 I I #
straight-curve $-1 78.983123264259774 38.385648458704111 0 0 0 -1 I I #
point $-1 75.147274876275674 38.385648458704111 8.8593800175113842 #
point $-1 78.983123264259774 38.385648458704111 8.8593800175113895 #
point $-1 73.687492742666777 34.810551110895773 3.6880089900269089 #
straight-curve $-1 0 -38.385648458704111 -8.8593800175113895 -1 0 0 I I #
point $-1 -78.983123264259774 -38.385648458704111 -8.8593800175113895 #
End-of-ACIS-data 