500 0 7 0           
7 Unknown 11 ACIS 5.0 NT 24 Fri Mar 26 16:41:34 1999 
-1 9.9999999999999995e-007 1e-010 
body $-1 $7 $-1 $8 #
body $-1 $9 $-1 $10 #
body $-1 $11 $-1 $12 #
body $-1 $13 $-1 $14 #
body $-1 $15 $-1 $16 #
body $-1 $17 $-1 $18 #
body $-1 $19 $-1 $20 #
lump $-1 $-1 $21 $0 #
transform $-1 1 0 0 0 1 0 0 0 1 59.515976439710684 39.026039044809337 18.69443385281339 1 rotate no_reflect no_shear #
lump $-1 $-1 $22 $1 #
transform $-1 1 0 0 0 1 0 0 0 1 59.515976439710684 39.026039044809337 18.69443385281339 1 rotate no_reflect no_shear #
lump $-1 $-1 $23 $2 #
transform $-1 1 0 0 0 1 0 0 0 1 59.515976439710684 39.026039044809337 18.69443385281339 1 rotate no_reflect no_shear #
lump $-1 $-1 $24 $3 #
transform $-1 1 0 0 0 1 0 0 0 1 59.515976439710684 39.026039044809337 18.69443385281339 1 rotate no_reflect no_shear #
lump $-1 $-1 $25 $4 #
transform $-1 1 0 0 0 1 0 0 0 1 59.515976439710684 39.026039044809337 18.69443385281339 1 rotate no_reflect no_shear #
lump $-1 $-1 $26 $5 #
transform $-1 1 0 0 0 1 0 0 0 1 59.515976439710684 39.026039044809337 18.69443385281339 1 rotate no_reflect no_shear #
lump $-1 $-1 $27 $6 #
transform $-1 1 0 0 0 1 0 0 0 1 59.515976439710684 39.026039044809337 18.69443385281339 1 rotate no_reflect no_shear #
shell $-1 $-1 $-1 $28 $-1 $7 #
shell $-1 $-1 $-1 $29 $-1 $9 #
shell $-1 $-1 $-1 $30 $-1 $11 #
shell $-1 $-1 $-1 $31 $-1 $13 #
shell $-1 $-1 $-1 $32 $-1 $15 #
shell $-1 $-1 $-1 $33 $-1 $17 #
shell $-1 $-1 $-1 $34 $-1 $19 #
face $-1 $35 $36 $21 $-1 $37 forward single #
face $-1 $38 $39 $22 $-1 $40 forward single #
face $-1 $41 $42 $23 $-1 $43 reversed single #
face $-1 $44 $45 $24 $-1 $46 forward single #
face $-1 $47 $48 $25 $-1 $49 forward single #
face $-1 $50 $51 $26 $-1 $52 reversed single #
face $-1 $53 $54 $27 $-1 $55 forward single #
face $-1 $56 $57 $21 $-1 $58 reversed single #
loop $-1 $-1 $59 $28 #
plane-surface $-1 0 0 18.69443385281339 0 0 1 1 0 0 forward_v I I I I #
face $-1 $60 $61 $22 $-1 $62 reversed single #
loop $-1 $-1 $63 $29 #
plane-surface $-1 -59.515976439710684 0 0 1 0 0 0 0 -1 forward_v I I I I #
face $-1 $64 $65 $23 $-1 $66 reversed single #
loop $-1 $-1 $67 $30 #
plane-surface $-1 -18.848969704813914 65.566616782067314 153.88449822192052 1 0 0 0 -0.69465837861970381 -0.71933979245794832 forward_v I I I I #
face $-1 $68 $69 $24 $-1 $70 forward single #
loop $-1 $71 $72 $31 #
cone-surface $-1 -10.319097920600555 35.352553001267339 15.058719237988976 0 -0.69465837861970381 -0.71933979245794832 1 0 0 1 I I 0 1 1 forward I I I I #
face $-1 $73 $74 $25 $-1 $75 forward single #
loop $-1 $76 $77 $32 #
cone-surface $-1 2.4757097557194925 35.352553001267339 15.058719237988976 0 -0.69465837861970381 -0.71933979245794832 1 0 0 1 I I 0 1 1 forward I I I I #
face $-1 $78 $79 $26 $-1 $80 reversed single #
loop $-1 $-1 $81 $33 #
plane-surface $-1 -13.29218989968696 -126.08049937788506 90.742725164245982 -1 0 0 0 -0.73135370988377701 0.68199835119979291 forward_v I I I I #
face $-1 $82 $83 $27 $-1 $84 forward single #
loop $-1 $85 $86 $34 #
cone-surface $-1 -27.590616377471669 -33.007231083291956 12.486372243044926 0 0.73135370988377701 -0.68199835119979291 1.5 0 0 1 I I 0 1 1.5 forward I I I I #
face $-1 $87 $88 $21 $-1 $89 reversed single #
loop $-1 $-1 $90 $35 #
plane-surface $-1 0 0 -18.69443385281339 0 0 1 1 0 0 forward_v I I I I #
coedge $-1 $91 $92 $93 $94 forward $36 $-1 #
face $-1 $95 $96 $22 $-1 $97 forward single #
loop $-1 $-1 $98 $38 #
plane-surface $-1 0 39.026039044809337 0 0 -1 0 0 0 -1 forward_v I I I I #
coedge $-1 $99 $100 $101 $102 forward $39 $-1 #
face $-1 $103 $104 $23 $-1 $105 reversed single #
loop $-1 $-1 $106 $41 #
plane-surface $-1 -3.9216940824405242 -17.119926609088523 68.260077941773275 0 0.69465837861970381 0.71933979245794832 1 0 0 forward_v I I I I #
coedge $-1 $107 $108 $109 $110 reversed $42 $-1 #
face $-1 $-1 $111 $24 $-1 $112 forward single #
loop $-1 $113 $114 $44 #
cone-surface $-1 -10.319097920600555 33.74135768967038 13.390277689272153 0 -0.69465837861970381 -0.71933979245794832 0.5 0 0 1 I I -0.70710678118654746 0.70710678118654746 0.5 forward I I I I #
loop $-1 $-1 $115 $31 #
coedge $-1 $72 $72 $116 $117 reversed $45 $-1 #
face $-1 $-1 $118 $25 $-1 $119 forward single #
loop $-1 $120 $121 $47 #
cone-surface $-1 2.4757097557194925 33.74135768967038 13.390277689272153 0 -0.69465837861970381 -0.71933979245794832 0.5 0 0 1 I I -0.70710678118654746 0.70710678118654746 0.5 forward I I I I #
loop $-1 $-1 $122 $32 #
coedge $-1 $77 $77 $123 $124 reversed $48 $-1 #
face $-1 $125 $126 $26 $-1 $127 reversed single #
loop $-1 $-1 $128 $50 #
plane-surface $-1 -27.590616377471669 -39.026039044809323 9.5631295603891715 0 -0.73135370988377701 0.68199835119979291 1 0 0 forward_v I I I I #
coedge $-1 $129 $130 $131 $132 reversed $51 $-1 #
face $-1 $-1 $133 $27 $-1 $134 forward single #
loop $-1 $135 $136 $53 #
cone-surface $-1 -27.590616377471669 -30.697447240321736 10.332464016088721 0 0.73135370988377701 -0.68199835119979291 0.75 0 0 1 I I -0.70710678118654757 0.70710678118654757 0.75 forward I I I I #
loop $-1 $-1 $137 $34 #
coedge $-1 $86 $86 $138 $139 reversed $54 $-1 #
face $-1 $140 $141 $21 $-1 $142 reversed single #
loop $-1 $-1 $143 $56 #
plane-surface $-1 0 -39.026039044809337 0 0 1 0 0 0 1 forward_v I I I I #
coedge $-1 $144 $145 $146 $147 forward $57 $-1 #
coedge $-1 $148 $59 $149 $150 forward $36 $-1 #
coedge $-1 $59 $148 $151 $152 forward $36 $-1 #
coedge $-1 $153 $154 $59 $94 reversed $155 $-1 #
edge $-1 $156 -39.026039044809337 $157 39.026039044809337 $93 $158 forward 7 unknown #
face $-1 $159 $160 $22 $-1 $161 reversed single #
loop $-1 $-1 $101 $60 #
plane-surface $-1 -68.32944323193783 0 -11.104951270629016 0 0 1 1 0 0 forward_v I I I I #
coedge $-1 $162 $163 $100 $164 forward $61 $-1 #
coedge $-1 $165 $63 $166 $167 reversed $39 $-1 #
coedge $-1 $63 $165 $98 $164 reversed $39 $-1 #
coedge $-1 $168 $169 $63 $102 reversed $96 $-1 #
edge $-1 $170 -39.026039044809337 $171 39.026039044809337 $101 $172 forward 7 unknown #
face $-1 $173 $174 $23 $-1 $175 forward single #
loop $-1 $-1 $176 $64 #
plane-surface $-1 11.005581539932866 65.566616782067314 153.88449822192052 -1 0 0 0 0.69465837861970381 0.71933979245794832 forward_v I I I I #
coedge $-1 $177 $178 $179 $180 reversed $65 $-1 #
coedge $-1 $108 $67 $181 $182 reversed $42 $-1 #
coedge $-1 $67 $107 $177 $183 reversed $42 $-1 #
coedge $-1 $179 $184 $67 $110 forward $174 $-1 #
edge $-1 $185 -6.2427306537756806 $186 -1.4234908112658857 $109 $187 forward 7 unknown #
loop $-1 $-1 $116 $68 #
plane-surface $-1 -3.9216940824405242 -17.119926609088523 68.260077941773275 0 0.69465837861970381 0.71933979245794832 1 0 0 forward_v I I I I #
loop $-1 $-1 $188 $44 #
coedge $-1 $114 $114 $115 $189 reversed $69 $-1 #
coedge $-1 $115 $115 $114 $189 forward $71 $-1 #
coedge $-1 $116 $116 $72 $117 forward $111 $-1 #
edge $-1 $190 -2.6432943169261337e-015 $190 6.2831853071795978 $116 $191 forward 7 unknown #
loop $-1 $-1 $123 $73 #
plane-surface $-1 -3.9216940824405242 -17.119926609088523 68.260077941773275 0 0.69465837861970381 0.71933979245794832 1 0 0 forward_v I I I I #
loop $-1 $-1 $192 $47 #
coedge $-1 $121 $121 $122 $193 reversed $74 $-1 #
coedge $-1 $122 $122 $121 $193 forward $76 $-1 #
coedge $-1 $123 $123 $77 $124 forward $118 $-1 #
edge $-1 $194 -2.6432943169261337e-015 $194 6.2831853071795978 $123 $195 forward 7 unknown #
face $-1 $196 $197 $26 $-1 $198 reversed single #
loop $-1 $-1 $199 $78 #
plane-surface $-1 -41.889042855256378 -126.08049937788506 90.742725164245982 1 0 0 0 0.73135370988377701 -0.68199835119979291 forward_v I I I I #
coedge $-1 $200 $201 $202 $203 reversed $79 $-1 #
coedge $-1 $130 $81 $204 $205 reversed $51 $-1 #
coedge $-1 $81 $129 $200 $206 reversed $51 $-1 #
coedge $-1 $202 $207 $81 $132 forward $208 $-1 #
edge $-1 $209 24.014210644133193 $210 32.52928944605322 $131 $211 forward 7 unknown #
loop $-1 $-1 $138 $82 #
plane-surface $-1 -27.590616377471669 -39.026039044809323 9.5631295603891715 0 -0.73135370988377701 0.68199835119979291 1 0 0 forward_v I I I I #
loop $-1 $-1 $212 $53 #
coedge $-1 $136 $136 $137 $213 reversed $83 $-1 #
coedge $-1 $137 $137 $136 $213 forward $85 $-1 #
coedge $-1 $138 $138 $86 $139 forward $133 $-1 #
edge $-1 $214 -3.9850888859867493e-016 $214 6.2831853071796004 $138 $215 forward 7 unknown #
face $-1 $216 $217 $21 $-1 $218 reversed single #
loop $-1 $-1 $219 $87 #
plane-surface $-1 -59.515976439710684 0 0 1 0 0 0 0 -1 forward_v I I I I #
coedge $-1 $220 $151 $219 $221 forward $88 $-1 #
coedge $-1 $222 $90 $220 $223 forward $57 $-1 #
coedge $-1 $90 $222 $224 $225 forward $57 $-1 #
coedge $-1 $154 $153 $90 $147 reversed $155 $-1 #
edge $-1 $226 -39.026039044809337 $227 39.026039044809337 $146 $228 forward 7 unknown #
coedge $-1 $92 $91 $229 $230 forward $36 $-1 #
coedge $-1 $231 $232 $91 $150 reversed $217 $-1 #
edge $-1 $157 -59.515976439710684 $233 59.515976439710684 $149 $234 forward 7 unknown #
coedge $-1 $143 $235 $92 $152 reversed $88 $-1 #
edge $-1 $236 -59.515976439710684 $156 59.515976439710684 $151 $237 forward 7 unknown #
coedge $-1 $146 $93 $235 $238 forward $155 $-1 #
coedge $-1 $93 $146 $231 $239 reversed $155 $-1 #
loop $-1 $-1 $153 $216 #
vertex $-1 $94 $240 #
vertex $-1 $94 $241 #
straight-curve $-1 59.515976439710684 0 18.69443385281339 0 1 0 I I #
face $-1 $242 $243 $22 $-1 $244 reversed single #
loop $-1 $-1 $245 $95 #
plane-surface $-1 -77.142910024164991 0 -14.899692561721203 1 0 0 0 0 -1 forward_v I I I I #
coedge $-1 $246 $98 $247 $248 reversed $61 $-1 #
coedge $-1 $98 $246 $168 $249 reversed $61 $-1 #
edge $-1 $170 11.104951270629016 $250 18.69443385281339 $98 $251 forward 7 unknown #
coedge $-1 $100 $99 $252 $253 reversed $39 $-1 #
coedge $-1 $254 $255 $99 $167 forward $256 $-1 #
edge $-1 $257 -18.69443385281339 $171 -11.104951270629016 $166 $258 forward 7 unknown #
coedge $-1 $259 $101 $163 $249 forward $96 $-1 #
coedge $-1 $101 $259 $254 $260 forward $96 $-1 #
vertex $-1 $164 $261 #
vertex $-1 $260 $262 #
straight-curve $-1 -59.515976439710684 0 -11.104951270629016 0 -1 0 I I #
face $-1 $-1 $263 $23 $-1 $264 reversed single #
loop $-1 $-1 $109 $103 #
plane-surface $-1 0 0 18.69443385281339 0 0 1 1 0 0 forward_v I I I I #
coedge $-1 $265 $266 $267 $268 reversed $104 $-1 #
coedge $-1 $269 $106 $108 $183 forward $65 $-1 #
coedge $-1 $106 $269 $265 $270 forward $65 $-1 #
coedge $-1 $267 $109 $106 $180 forward $174 $-1 #
edge $-1 $186 -16.888122663593652 $271 12.966428581153128 $179 $272 forward 7 unknown #
coedge $-1 $273 $274 $107 $182 forward $263 $-1 #
edge $-1 $275 -62.901701182819991 $185 -58.247815258146872 $181 $276 forward 7 unknown #
edge $-1 $186 71.352546250788095 $275 78.052078089618647 $108 $277 forward 7 unknown #
coedge $-1 $109 $267 $273 $278 forward $174 $-1 #
vertex $-1 $182 $279 #
vertex $-1 $110 $280 #
straight-curve $-1 -18.848969704813914 32.783308391033657 18.69443385281339 0 -1 0 I I #
coedge $-1 $188 $188 $-1 $281 reversed $113 $-1 #
edge $-1 $282 0 $282 6.2831853071796004 $114 $283 forward 7 unknown #
vertex $-1 $117 $284 #
ellipse-curve $-1 -10.319097920600555 36.616419123554451 16.367490890476827 0 0.69465837861970381 0.71933979245794832 1 0 0 1 I I #
coedge $-1 $192 $192 $-1 $285 reversed $120 $-1 #
edge $-1 $286 0 $286 6.2831853071796004 $121 $287 forward 7 unknown #
vertex $-1 $124 $288 #
ellipse-curve $-1 2.4757097557194925 36.616419123554451 16.367490890476827 0 0.69465837861970381 0.71933979245794832 1 0 0 1 I I #
face $-1 $-1 $208 $26 $-1 $289 forward single #
loop $-1 $-1 $290 $125 #
plane-surface $-1 0 -39.026039044809337 0 0 1 0 0 0 1 forward_v I I I I #
coedge $-1 $291 $292 $293 $294 reversed $126 $-1 #
coedge $-1 $295 $128 $130 $206 forward $79 $-1 #
coedge $-1 $128 $295 $291 $296 forward $79 $-1 #
coedge $-1 $293 $131 $128 $203 forward $208 $-1 #
edge $-1 $210 -0.50311828904887435 $297 28.093734666520543 $202 $298 forward 7 unknown #
coedge $-1 $299 $300 $129 $205 forward $197 $-1 #
edge $-1 $301 -35.808233021733834 $209 -26.676928729309601 $204 $302 forward 7 unknown #
edge $-1 $210 -12.485482973587866 $301 2.1384085966062714e-014 $130 $303 forward 7 unknown #
coedge $-1 $131 $293 $299 $304 forward $208 $-1 #
loop $-1 $-1 $293 $196 #
vertex $-1 $205 $305 #
vertex $-1 $132 $306 #
straight-curve $-1 -13.29218989968696 -63.040249688942531 18.69443385281339 0 1 0 I I #
coedge $-1 $212 $212 $-1 $307 reversed $135 $-1 #
edge $-1 $308 0 $308 6.2831853071796004 $136 $309 forward 7 unknown #
vertex $-1 $139 $310 #
ellipse-curve $-1 -27.590616377471669 -34.768499643849324 14.128781706601274 0 -0.73135370988377701 0.68199835119979291 1.5 0 0 1 I I #
face $-1 $-1 $155 $21 $-1 $311 reversed single #
loop $-1 $-1 $231 $140 #
plane-surface $-1 0 39.026039044809337 0 0 -1 0 0 0 -1 forward_v I I I I #
coedge $-1 $229 $312 $143 $221 reversed $141 $-1 #
coedge $-1 $235 $143 $144 $223 reversed $88 $-1 #
edge $-1 $236 -18.69443385281339 $313 18.69443385281339 $219 $314 forward 7 unknown #
coedge $-1 $145 $144 $312 $315 forward $57 $-1 #
edge $-1 $227 -59.515976439710684 $313 59.515976439710684 $220 $316 forward 7 unknown #
coedge $-1 $232 $231 $145 $225 reversed $217 $-1 #
edge $-1 $317 -59.515976439710684 $226 59.515976439710684 $224 $318 forward 7 unknown #
vertex $-1 $147 $319 #
vertex $-1 $238 $320 #
straight-curve $-1 59.515976439710684 0 -18.69443385281339 0 -1 0 I I #
coedge $-1 $321 $219 $148 $230 reversed $141 $-1 #
edge $-1 $233 -39.026039044809337 $236 39.026039044809337 $229 $322 forward 7 unknown #
coedge $-1 $224 $149 $154 $239 forward $217 $-1 #
coedge $-1 $149 $224 $321 $323 reversed $217 $-1 #
vertex $-1 $150 $324 #
straight-curve $-1 0 39.026039044809337 18.69443385281339 -1 0 0 I I #
coedge $-1 $151 $220 $153 $238 reversed $88 $-1 #
vertex $-1 $230 $325 #
straight-curve $-1 0 -39.026039044809337 18.69443385281339 1 0 0 I I #
edge $-1 $156 -18.69443385281339 $227 18.69443385281339 $153 $326 forward 7 unknown #
edge $-1 $157 -18.69443385281339 $226 18.69443385281339 $154 $327 forward 7 unknown #
point $-1 59.515976439710684 -39.026039044809337 18.69443385281339 #
point $-1 59.515976439710684 39.026039044809337 18.69443385281339 #
face $-1 $-1 $256 $22 $-1 $328 reversed single #
loop $-1 $-1 $252 $159 #
plane-surface $-1 0 0 -18.69443385281339 0 0 1 1 0 0 forward_v I I I I #
coedge $-1 $329 $330 $246 $331 forward $160 $-1 #
coedge $-1 $163 $162 $245 $331 reversed $61 $-1 #
coedge $-1 $252 $332 $162 $248 forward $243 $-1 #
edge $-1 $333 -77.142910024164991 $250 -59.515976439710684 $162 $334 forward 7 unknown #
edge $-1 $170 -8.8134667922271532 $335 8.8134667922271603 $163 $336 forward 7 unknown #
vertex $-1 $164 $337 #
straight-curve $-1 -59.515976439710684 39.026039044809337 0 0 0 -1 I I #
coedge $-1 $338 $247 $165 $253 forward $243 $-1 #
edge $-1 $250 -39.026039044809337 $257 39.026039044809337 $252 $339 forward 7 unknown #
coedge $-1 $340 $166 $169 $260 reversed $256 $-1 #
coedge $-1 $166 $340 $338 $341 reversed $256 $-1 #
loop $-1 $-1 $166 $242 #
vertex $-1 $341 $342 #
straight-curve $-1 -59.515976439710684 -39.026039044809337 0 0 0 1 I I #
coedge $-1 $169 $168 $330 $343 forward $96 $-1 #
edge $-1 $344 -8.8134667922271603 $171 8.8134667922271532 $254 $345 forward 7 unknown #
point $-1 -59.515976439710677 39.026039044809337 -11.104951270629016 #
point $-1 -59.515976439710677 -39.026039044809337 -11.104951270629016 #
loop $-1 $-1 $181 $173 #
plane-surface $-1 0 39.026039044809337 0 0 -1 0 0 0 -1 forward_v I I I I #
coedge $-1 $266 $176 $178 $270 reversed $104 $-1 #
coedge $-1 $176 $265 $346 $347 reversed $104 $-1 #
coedge $-1 $184 $179 $176 $268 forward $174 $-1 #
edge $-1 $271 1.4234908112658857 $348 6.2427306537756806 $267 $349 forward 7 unknown #
coedge $-1 $178 $177 $274 $350 reversed $65 $-1 #
edge $-1 $351 -78.052078089618647 $271 -71.352546250788095 $265 $352 forward 7 unknown #
vertex $-1 $180 $353 #
straight-curve $-1 -1.9608470412202621 34.206799202299543 18.69443385281339 1 0 0 I I #
coedge $-1 $346 $181 $184 $278 reversed $263 $-1 #
coedge $-1 $181 $346 $269 $350 forward $263 $-1 #
vertex $-1 $182 $354 #
straight-curve $-1 -18.848969704813914 39.026039044809337 76.942249110960262 0 0 1 I I #
straight-curve $-1 -18.848969704813914 -17.119926609088523 68.260077941773275 0 0.71933979245794832 -0.69465837861970381 I I #
edge $-1 $348 -11.005581539932866 $185 18.848969704813914 $273 $355 forward 7 unknown #
point $-1 -18.848969704813914 39.026039044809337 18.69443385281339 #
point $-1 -18.848969704813914 34.206799202299543 18.69443385281339 #
edge $-1 $356 1 $356 0 $188 $-1 forward 7 unknown #
vertex $-1 $189 $357 #
ellipse-curve $-1 -10.319097920600555 34.088686878980234 13.749947585501127 0 0.69465837861970381 0.71933979245794832 1 0 0 1 I I #
point $-1 -9.3190979206005551 36.616419123554444 16.367490890476823 #
edge $-1 $358 1 $358 0 $192 $-1 forward 7 unknown #
vertex $-1 $193 $359 #
ellipse-curve $-1 2.4757097557194925 34.088686878980234 13.749947585501127 0 0.69465837861970381 0.71933979245794832 1 0 0 1 I I #
point $-1 3.4757097557194925 36.616419123554444 16.367490890476823 #
plane-surface $-1 0 0 18.69443385281339 0 0 1 1 0 0 forward_v I I I I #
coedge $-1 $300 $299 $292 $360 forward $197 $-1 #
coedge $-1 $292 $199 $201 $296 reversed $126 $-1 #
coedge $-1 $199 $291 $290 $360 reversed $126 $-1 #
coedge $-1 $207 $202 $199 $294 forward $208 $-1 #
edge $-1 $297 -32.52928944605322 $361 -24.014210644133193 $293 $362 forward 7 unknown #
coedge $-1 $201 $200 $300 $363 reversed $79 $-1 #
edge $-1 $364 -2.1384085966062714e-014 $297 12.485482973587866 $291 $365 forward 7 unknown #
vertex $-1 $203 $366 #
straight-curve $-1 -13.795308188735834 -30.510960242889311 18.69443385281339 -1 0 0 I I #
coedge $-1 $290 $204 $207 $304 reversed $197 $-1 #
coedge $-1 $204 $290 $295 $363 forward $197 $-1 #
vertex $-1 $205 $367 #
straight-curve $-1 -13.29218989968696 -39.026039044809337 45.371362582122991 0 0 1 I I #
straight-curve $-1 -13.29218989968696 -39.026039044809323 9.5631295603891715 0 -0.68199835119979291 -0.73135370988377701 I I #
edge $-1 $361 -41.889042855256378 $209 -13.29218989968696 $299 $368 forward 7 unknown #
point $-1 -13.29218989968696 -39.026039044809337 18.69443385281339 #
point $-1 -13.29218989968696 -30.510960242889311 18.69443385281339 #
edge $-1 $369 1 $369 0 $212 $-1 forward 7 unknown #
vertex $-1 $213 $370 #
ellipse-curve $-1 -27.590616377471669 -31.245962522734569 10.843962779488566 0 -0.73135370988377701 0.68199835119979291 1.5 0 0 1 I I #
point $-1 -26.090616377471669 -34.768499643849339 14.128781706601286 #
plane-surface $-1 59.515976439710684 0 0 -1 0 0 0 0 1 forward_v I I I I #
coedge $-1 $219 $321 $222 $315 reversed $141 $-1 #
vertex $-1 $315 $371 #
straight-curve $-1 -59.515976439710684 -39.026039044809337 0 0 0 -1 I I #
edge $-1 $313 -39.026039044809337 $317 39.026039044809337 $312 $372 forward 7 unknown #
straight-curve $-1 0 -39.026039044809337 -18.69443385281339 -1 0 0 I I #
vertex $-1 $225 $373 #
straight-curve $-1 0 39.026039044809337 -18.69443385281339 1 0 0 I I #
point $-1 59.515976439710684 39.026039044809337 -18.69443385281339 #
point $-1 59.515976439710684 -39.026039044809337 -18.69443385281339 #
coedge $-1 $312 $229 $232 $323 forward $141 $-1 #
straight-curve $-1 -59.515976439710684 0 18.69443385281339 0 -1 0 I I #
edge $-1 $233 -18.69443385281339 $317 18.69443385281339 $232 $374 forward 7 unknown #
point $-1 -59.515976439710684 39.026039044809337 18.69443385281339 #
point $-1 -59.515976439710684 -39.026039044809337 18.69443385281339 #
straight-curve $-1 59.515976439710684 -39.026039044809337 0 0 0 -1 I I #
straight-curve $-1 59.515976439710684 39.026039044809337 0 0 0 -1 I I #
plane-surface $-1 0 -39.026039044809337 0 0 1 0 0 0 1 forward_v I I I I #
coedge $-1 $375 $245 $332 $376 reversed $160 $-1 #
coedge $-1 $245 $375 $259 $343 reversed $160 $-1 #
edge $-1 $335 -3.7947412910921869 $333 3.7947412910921869 $246 $377 forward 7 unknown #
coedge $-1 $247 $338 $329 $376 forward $243 $-1 #
vertex $-1 $248 $378 #
straight-curve $-1 0 39.026039044809337 -18.69443385281339 1 0 0 I I #
vertex $-1 $249 $379 #
straight-curve $-1 -68.32944323193783 39.026039044809337 -11.104951270629016 -1 0 0 I I #
point $-1 -59.515976439710684 39.026039044809337 -18.69443385281339 #
coedge $-1 $332 $252 $255 $341 forward $243 $-1 #
straight-curve $-1 -59.515976439710684 0 -18.69443385281339 0 -1 0 I I #
coedge $-1 $255 $254 $375 $380 forward $256 $-1 #
edge $-1 $257 -8.8134667922271461 $381 8.8134667922271603 $255 $382 forward 7 unknown #
point $-1 -59.515976439710684 -39.026039044809337 -18.69443385281339 #
edge $-1 $335 -39.026039044809337 $344 39.026039044809337 $330 $383 forward 7 unknown #
vertex $-1 $343 $384 #
straight-curve $-1 -68.32944323193783 -39.026039044809337 -11.104951270629016 1 0 0 I I #
coedge $-1 $274 $273 $266 $347 forward $263 $-1 #
edge $-1 $348 58.247815258146872 $351 62.901701182819991 $346 $385 forward 7 unknown #
vertex $-1 $278 $386 #
straight-curve $-1 11.005581539932866 32.783308391033657 18.69443385281339 0 1 0 I I #
edge $-1 $351 -12.966428581153128 $275 16.888122663593652 $274 $387 forward 7 unknown #
vertex $-1 $350 $388 #
straight-curve $-1 11.005581539932866 -17.119926609088523 68.260077941773275 0 -0.71933979245794832 0.69465837861970381 I I #
point $-1 11.005581539932866 34.206799202299543 18.69443385281339 #
point $-1 -18.848969704813914 39.026039044809337 14.040547928140271 #
straight-curve $-1 0 39.026039044809337 18.69443385281339 -1 0 0 I I #
vertex $-1 $281 $389 #
point $-1 -9.3190979206005551 34.088686878980234 13.749947585501127 #
vertex $-1 $285 $390 #
point $-1 3.4757097557194925 34.088686878980234 13.749947585501127 #
edge $-1 $361 26.676928729309601 $364 35.808233021733834 $290 $391 forward 7 unknown #
vertex $-1 $304 $392 #
straight-curve $-1 -41.889042855256378 -63.040249688942531 18.69443385281339 0 -1 0 I I #
edge $-1 $364 -28.093734666520543 $301 0.50311828904887435 $300 $393 forward 7 unknown #
vertex $-1 $363 $394 #
straight-curve $-1 -41.889042855256378 -39.026039044809323 9.5631295603891715 0 0.68199835119979291 0.73135370988377701 I I #
point $-1 -41.889042855256378 -30.510960242889311 18.69443385281339 #
point $-1 -13.29218989968696 -39.026039044809337 9.5631295603891555 #
straight-curve $-1 0 -39.026039044809337 18.69443385281339 1 0 0 I I #
vertex $-1 $307 $395 #
point $-1 -26.090616377471669 -31.245962522734569 10.843962779488566 #
point $-1 -59.515976439710684 -39.026039044809337 -18.69443385281339 #
straight-curve $-1 -59.515976439710684 0 -18.69443385281339 0 1 0 I I #
point $-1 -59.515976439710684 39.026039044809337 -18.69443385281339 #
straight-curve $-1 -59.515976439710684 39.026039044809337 0 0 0 -1 I I #
coedge $-1 $330 $329 $340 $380 reversed $160 $-1 #
edge $-1 $381 -39.026039044809337 $333 39.026039044809337 $329 $396 forward 7 unknown #
straight-curve $-1 -77.142910024164991 39.026039044809337 -14.899692561721203 0 0 -1 I I #
point $-1 -77.142910024164991 39.026039044809337 -18.69443385281339 #
point $-1 -77.142910024164991 39.026039044809337 -11.104951270629016 #
edge $-1 $344 -3.7947412910921869 $381 3.7947412910921869 $375 $397 forward 7 unknown #
vertex $-1 $376 $398 #
straight-curve $-1 -68.32944323193783 -39.026039044809337 -18.69443385281339 -1 0 0 I I #
straight-curve $-1 -77.142910024164991 0 -11.104951270629016 0 -1 0 I I #
point $-1 -77.142910024164991 -39.026039044809337 -11.104951270629016 #
straight-curve $-1 11.005581539932866 39.026039044809337 76.942249110960262 0 0 -1 I I #
point $-1 11.005581539932866 39.026039044809337 18.69443385281339 #
straight-curve $-1 -1.9608470412202621 39.026039044809337 14.040547928140267 -1 0 0 I I #
point $-1 11.005581539932866 39.026039044809337 14.040547928140271 #
point $-1 -10.319097920600555 33.394028500360527 13.030607793043179 #
point $-1 2.4757097557194925 33.394028500360527 13.030607793043179 #
straight-curve $-1 -41.889042855256378 -39.026039044809337 45.371362582122991 0 0 -1 I I #
point $-1 -41.889042855256378 -39.026039044809337 18.69443385281339 #
straight-curve $-1 -13.795308188735834 -39.026039044809337 9.5631295603891573 1 0 0 I I #
point $-1 -41.889042855256378 -39.026039044809337 9.5631295603891555 #
point $-1 -27.590616377471669 -30.148931957908903 9.8209652526888771 #
straight-curve $-1 -77.142910024164991 0 -18.69443385281339 0 1 0 I I #
straight-curve $-1 -77.142910024164991 -39.026039044809337 -14.899692561721203 0 0 -1 I I #
point $-1 -77.142910024164991 -39.026039044809337 -18.69443385281339 #
End-of-ACIS-data 