500 0 5 0           
7 Unknown 11 ACIS 5.0 NT 24 Thu Mar 25 16:02:34 1999 
-1 9.9999999999999995e-007 1e-010 
body $-1 $5 $-1 $6 #
body $-1 $7 $-1 $8 #
body $-1 $9 $-1 $10 #
body $-1 $11 $-1 $12 #
body $-1 $13 $-1 $14 #
lump $-1 $-1 $15 $0 #
transform $-1 1 0 0 0 1 0 0 0 1 61.687673574022647 42.616586746659543 15.280427087287626 1 rotate no_reflect no_shear #
lump $-1 $-1 $16 $1 #
transform $-1 1 0 0 0 1 0 0 0 1 61.687673574022647 42.616586746659543 15.280427087287626 1 rotate no_reflect no_shear #
lump $-1 $-1 $17 $2 #
transform $-1 1 0 0 0 1 0 0 0 1 61.687673574022647 42.616586746659543 15.280427087287626 1 rotate no_reflect no_shear #
lump $-1 $-1 $18 $3 #
transform $-1 1 0 0 0 1 0 0 0 1 61.687673574022647 42.616586746659543 15.280427087287626 1 rotate no_reflect no_shear #
lump $-1 $-1 $19 $4 #
transform $-1 1 0 0 0 1 0 0 0 1 61.687673574022647 42.616586746659543 15.280427087287626 1 rotate no_reflect no_shear #
shell $-1 $-1 $-1 $20 $-1 $5 #
shell $-1 $-1 $-1 $21 $-1 $7 #
shell $-1 $-1 $-1 $22 $-1 $9 #
shell $-1 $-1 $-1 $23 $-1 $11 #
shell $-1 $-1 $-1 $24 $-1 $13 #
face $-1 $25 $26 $15 $-1 $27 reversed single #
face $-1 $28 $29 $16 $-1 $30 forward single #
face $-1 $31 $32 $17 $-1 $33 reversed single #
face $-1 $34 $35 $18 $-1 $36 forward single #
face $-1 $37 $38 $19 $-1 $39 forward single #
face $-1 $40 $41 $15 $-1 $42 forward single #
loop $-1 $-1 $43 $20 #
plane-surface $-1 -61.687673574022647 0 0 1 0 0 0 0 -1 forward_v I I I I #
face $-1 $44 $45 $16 $-1 $46 reversed single #
loop $-1 $-1 $47 $21 #
plane-surface $-1 -61.687673574022647 0 0 1 0 0 0 0 -1 forward_v I I I I #
face $-1 $48 $49 $17 $-1 $50 reversed single #
loop $-1 $-1 $51 $22 #
plane-surface $-1 -28.543342318380347 -34.005739373582699 87.099551795263778 0.68199836817093118 0 0.7313536940579346 0.7313536940579346 0 -0.68199836817093118 forward_v I I I I #
face $-1 $52 $53 $18 $-1 $54 forward single #
loop $-1 $55 $56 $23 #
cone-surface $-1 54.425411040680231 -37.696102533472775 8.4166472063851767 -0.68199836817093118 0 -0.7313536940579346 0.7313536940579346 0 -0.68199836817093118 1 I I 0 1 1 forward I I I I #
face $-1 $57 $58 $19 $-1 $59 forward single #
loop $-1 $60 $61 $24 #
cone-surface $-1 54.425411040680231 -30.315376213692627 8.4166472063851767 -0.68199836817093118 0 -0.7313536940579346 0.7313536940579346 0 -0.68199836817093118 1 I I 0 1 1 forward I I I I #
face $-1 $62 $63 $15 $-1 $64 reversed single #
loop $-1 $-1 $65 $25 #
plane-surface $-1 0 0 15.280427087287626 0 0 1 1 0 0 forward_v I I I I #
coedge $-1 $66 $67 $68 $69 reversed $26 $-1 #
face $-1 $70 $71 $16 $-1 $72 reversed single #
loop $-1 $-1 $73 $28 #
plane-surface $-1 0 0 -15.280427087287626 0 0 1 1 0 0 forward_v I I I I #
coedge $-1 $74 $75 $76 $77 forward $29 $-1 #
face $-1 $78 $79 $17 $-1 $80 reversed single #
loop $-1 $-1 $81 $31 #
plane-surface $-1 55.598443109108679 -25.394892000505855 177.33056768766676 0 -1 0 -0.68199836817093118 0 -0.7313536940579346 forward_v I I I I #
coedge $-1 $82 $83 $84 $85 reversed $32 $-1 #
face $-1 $-1 $86 $18 $-1 $87 forward single #
loop $-1 $88 $89 $34 #
cone-surface $-1 53.429367066315656 -37.696102533472775 7.3485208382102005 -0.68199836817093118 0 -0.7313536940579346 0.3656768470289673 0 -0.34099918408546559 1 I I -0.70710678118654691 0.70710678118654813 0.5 forward I I I I #
loop $-1 $-1 $90 $23 #
coedge $-1 $56 $56 $91 $92 reversed $35 $-1 #
face $-1 $-1 $93 $19 $-1 $94 forward single #
loop $-1 $95 $96 $37 #
cone-surface $-1 53.429367066315656 -30.315376213692627 7.3485208382102005 -0.68199836817093118 0 -0.7313536940579346 0.3656768470289673 0 -0.34099918408546559 1 I I -0.70710678118654691 0.70710678118654813 0.5 forward I I I I #
loop $-1 $-1 $97 $24 #
coedge $-1 $61 $61 $98 $99 reversed $38 $-1 #
face $-1 $100 $101 $15 $-1 $102 reversed single #
loop $-1 $-1 $103 $40 #
plane-surface $-1 0 0 -15.280427087287626 0 0 1 1 0 0 forward_v I I I I #
coedge $-1 $104 $105 $106 $107 forward $41 $-1 #
coedge $-1 $108 $43 $109 $110 reversed $26 $-1 #
coedge $-1 $43 $108 $111 $112 forward $26 $-1 #
coedge $-1 $113 $114 $43 $69 forward $63 $-1 #
edge $-1 $115 -42.616586746659543 $116 42.616586746659543 $43 $117 forward 7 unknown #
face $-1 $118 $119 $16 $-1 $120 reversed single #
loop $-1 $-1 $121 $44 #
plane-surface $-1 -70.639349463464555 -19.764544120566509 0 0 1 0 0 0 1 forward_v I I I I #
coedge $-1 $122 $123 $75 $124 forward $45 $-1 #
coedge $-1 $125 $47 $126 $127 reversed $29 $-1 #
coedge $-1 $47 $125 $73 $124 reversed $29 $-1 #
coedge $-1 $128 $129 $47 $77 reversed $130 $-1 #
edge $-1 $131 -15.280427087287626 $132 15.280427087287626 $76 $133 forward 7 unknown #
face $-1 $134 $135 $17 $-1 $136 reversed single #
loop $-1 $-1 $137 $48 #
plane-surface $-1 0 -42.616586746659543 0 0 1 0 0 0 1 forward_v I I I I #
coedge $-1 $138 $139 $140 $141 reversed $49 $-1 #
coedge $-1 $142 $51 $137 $143 reversed $32 $-1 #
coedge $-1 $51 $142 $138 $144 forward $32 $-1 #
coedge $-1 $140 $145 $51 $85 forward $135 $-1 #
edge $-1 $146 -25.613717059868193 $147 -8.3920223137145058 $84 $148 forward 7 unknown #
loop $-1 $-1 $91 $52 #
plane-surface $-1 -28.543342318380347 -34.005739373582699 87.099551795263778 0.68199836817093118 0 0.7313536940579346 0.7313536940579346 0 -0.68199836817093118 forward_v I I I I #
loop $-1 $-1 $149 $34 #
coedge $-1 $89 $89 $90 $150 reversed $53 $-1 #
coedge $-1 $90 $90 $89 $150 forward $55 $-1 #
coedge $-1 $91 $91 $56 $92 forward $86 $-1 #
edge $-1 $151 0 $151 6.2831853071796004 $91 $152 forward 7 unknown #
loop $-1 $-1 $98 $57 #
plane-surface $-1 -28.543342318380347 -34.005739373582699 87.099551795263778 0.68199836817093118 0 0.7313536940579346 0.7313536940579346 0 -0.68199836817093118 forward_v I I I I #
loop $-1 $-1 $153 $37 #
coedge $-1 $96 $96 $97 $154 reversed $58 $-1 #
coedge $-1 $97 $97 $96 $154 forward $60 $-1 #
coedge $-1 $98 $98 $61 $99 forward $93 $-1 #
edge $-1 $155 0 $155 6.2831853071796004 $98 $156 forward 7 unknown #
face $-1 $157 $158 $15 $-1 $159 reversed single #
loop $-1 $-1 $109 $62 #
plane-surface $-1 0 -42.616586746659543 0 0 1 0 0 0 1 forward_v I I I I #
coedge $-1 $114 $113 $160 $161 forward $63 $-1 #
coedge $-1 $162 $65 $163 $164 forward $41 $-1 #
coedge $-1 $65 $162 $165 $166 forward $41 $-1 #
coedge $-1 $167 $168 $65 $107 reversed $169 $-1 #
edge $-1 $170 -42.616586746659543 $171 42.616586746659543 $106 $172 forward 7 unknown #
coedge $-1 $67 $66 $162 $173 reversed $26 $-1 #
coedge $-1 $174 $165 $66 $110 forward $101 $-1 #
edge $-1 $175 -15.280427087287626 $115 15.280427087287626 $66 $176 forward 7 unknown #
coedge $-1 $163 $177 $67 $112 reversed $158 $-1 #
edge $-1 $178 -15.280427087287626 $116 15.280427087287626 $111 $179 forward 7 unknown #
coedge $-1 $103 $68 $177 $180 forward $63 $-1 #
coedge $-1 $68 $103 $174 $181 forward $63 $-1 #
vertex $-1 $69 $182 #
vertex $-1 $180 $183 #
straight-curve $-1 -61.687673574022647 0 -15.280427087287626 0 1 0 I I #
face $-1 $184 $130 $16 $-1 $185 reversed single #
loop $-1 $-1 $186 $70 #
plane-surface $-1 -79.59102535290647 -15.9101383463254 0 1 0 0 0 0 -1 forward_v I I I I #
coedge $-1 $187 $188 $189 $190 forward $71 $-1 #
coedge $-1 $191 $73 $187 $192 forward $45 $-1 #
coedge $-1 $73 $191 $128 $193 forward $45 $-1 #
edge $-1 $131 12.055732572084292 $194 19.764544120566509 $73 $195 forward 7 unknown #
coedge $-1 $75 $74 $196 $197 forward $29 $-1 #
coedge $-1 $198 $199 $74 $127 forward $200 $-1 #
edge $-1 $201 -19.764544120566509 $132 -12.055732572084292 $126 $202 forward 7 unknown #
coedge $-1 $203 $76 $123 $193 reversed $130 $-1 #
coedge $-1 $76 $203 $198 $204 reversed $130 $-1 #
loop $-1 $-1 $76 $118 #
vertex $-1 $124 $205 #
vertex $-1 $204 $206 #
straight-curve $-1 -61.687673574022647 -12.055732572084292 0 0 0 1 I I #
face $-1 $-1 $207 $17 $-1 $208 forward single #
loop $-1 $-1 $84 $78 #
plane-surface $-1 61.687673574022647 0 0 -1 0 0 0 0 1 forward_v I I I I #
coedge $-1 $209 $210 $82 $143 forward $79 $-1 #
coedge $-1 $139 $81 $83 $144 reversed $49 $-1 #
coedge $-1 $81 $138 $211 $212 reversed $49 $-1 #
coedge $-1 $213 $84 $81 $141 forward $135 $-1 #
edge $-1 $147 -85.707517476058641 $214 -73.384856756545759 $140 $215 forward 7 unknown #
coedge $-1 $83 $82 $216 $217 reversed $32 $-1 #
edge $-1 $218 65.168370919096049 $146 83.236831628996782 $137 $219 forward 7 unknown #
edge $-1 $220 105.30688643814457 $147 123.37534714804531 $138 $221 forward 7 unknown #
coedge $-1 $84 $213 $209 $222 forward $135 $-1 #
vertex $-1 $85 $223 #
vertex $-1 $85 $224 #
straight-curve $-1 61.687673574022639 -17.00286968679135 2.9577663677747452 0 1 0 I I #
coedge $-1 $149 $149 $-1 $225 reversed $88 $-1 #
edge $-1 $226 0 $226 6.2831853071796004 $89 $227 forward 7 unknown #
vertex $-1 $92 $228 #
ellipse-curve $-1 55.080455830959352 -37.696102533472775 9.119096727531204 0.68199836817093118 0 0.7313536940579346 0.7313536940579346 0 -0.68199836817093118 1 I I #
coedge $-1 $153 $153 $-1 $229 reversed $95 $-1 #
edge $-1 $230 0 $230 6.2831853071796004 $96 $231 forward 7 unknown #
vertex $-1 $99 $232 #
ellipse-curve $-1 55.080455830959352 -30.315376213692627 9.119096727531204 0.68199836817093118 0 0.7313536940579346 0.7313536940579346 0 -0.68199836817093118 1 I I #
face $-1 $-1 $169 $15 $-1 $233 reversed single #
loop $-1 $-1 $234 $100 #
plane-surface $-1 0 42.616586746659543 0 0 -1 0 0 0 -1 forward_v I I I I #
coedge $-1 $168 $167 $103 $161 reversed $169 $-1 #
edge $-1 $235 -42.616586746659543 $236 42.616586746659543 $160 $237 forward 7 unknown #
coedge $-1 $105 $104 $108 $173 forward $41 $-1 #
coedge $-1 $234 $111 $104 $164 reversed $158 $-1 #
edge $-1 $171 -61.687673574022647 $178 61.687673574022647 $163 $238 forward 7 unknown #
coedge $-1 $109 $239 $105 $166 reversed $101 $-1 #
edge $-1 $175 -61.687673574022647 $170 61.687673574022647 $165 $240 forward 7 unknown #
coedge $-1 $160 $106 $239 $241 forward $169 $-1 #
coedge $-1 $106 $160 $234 $242 reversed $169 $-1 #
loop $-1 $-1 $167 $157 #
vertex $-1 $107 $243 #
vertex $-1 $107 $244 #
straight-curve $-1 61.687673574022647 0 15.280427087287626 0 1 0 I I #
edge $-1 $178 -42.616586746659543 $175 42.616586746659543 $108 $245 forward 7 unknown #
coedge $-1 $239 $109 $114 $181 reversed $101 $-1 #
vertex $-1 $173 $246 #
straight-curve $-1 -61.687673574022647 -42.616586746659543 0 0 0 -1 I I #
coedge $-1 $111 $234 $113 $180 reversed $158 $-1 #
vertex $-1 $164 $247 #
straight-curve $-1 -61.687673574022647 42.616586746659543 0 0 0 -1 I I #
edge $-1 $116 -61.687673574022647 $235 61.687673574022647 $177 $248 forward 7 unknown #
edge $-1 $236 -61.687673574022647 $115 61.687673574022647 $174 $249 forward 7 unknown #
point $-1 -61.687673574022647 -42.616586746659543 -15.280427087287626 #
point $-1 -61.687673574022647 42.616586746659543 -15.280427087287626 #
face $-1 $-1 $200 $16 $-1 $250 forward single #
plane-surface $-1 -70.639349463464555 -12.055732572084292 0 0 -1 0 0 0 -1 forward_v I I I I #
coedge $-1 $251 $252 $203 $253 forward $119 $-1 #
coedge $-1 $196 $121 $122 $192 reversed $71 $-1 #
coedge $-1 $121 $196 $199 $254 reversed $71 $-1 #
coedge $-1 $252 $251 $121 $190 reversed $119 $-1 #
edge $-1 $255 -15.280427087287626 $256 15.280427087287626 $189 $257 forward 7 unknown #
coedge $-1 $123 $122 $251 $258 forward $45 $-1 #
edge $-1 $194 -8.9516758894419155 $256 8.9516758894419155 $187 $259 forward 7 unknown #
edge $-1 $260 -8.9516758894419155 $131 8.9516758894419155 $128 $261 forward 7 unknown #
vertex $-1 $192 $262 #
straight-curve $-1 -61.687673574022647 0 -15.280427087287626 0 -1 0 I I #
coedge $-1 $188 $187 $125 $197 reversed $71 $-1 #
edge $-1 $201 -15.280427087287626 $194 15.280427087287626 $196 $263 forward 7 unknown #
coedge $-1 $264 $126 $129 $204 forward $200 $-1 #
coedge $-1 $126 $264 $188 $254 forward $200 $-1 #
loop $-1 $-1 $126 $184 #
vertex $-1 $127 $265 #
straight-curve $-1 -61.687673574022647 0 15.280427087287626 0 1 0 I I #
coedge $-1 $129 $128 $186 $253 reversed $130 $-1 #
edge $-1 $132 -8.9516758894419155 $266 8.9516758894419155 $129 $267 forward 7 unknown #
point $-1 -61.687673574022639 -12.055732572084292 -15.280427087287626 #
point $-1 -61.687673574022639 -12.055732572084292 15.280427087287626 #
loop $-1 $-1 $216 $134 #
plane-surface $-1 0 0 15.280427087287626 0 0 1 1 0 0 forward_v I I I I #
coedge $-1 $210 $137 $145 $222 reversed $79 $-1 #
coedge $-1 $137 $209 $268 $269 reversed $79 $-1 #
coedge $-1 $216 $270 $139 $212 forward $207 $-1 #
edge $-1 $214 -33.888452019468303 $220 -20.67401653334176 $211 $271 forward 7 unknown #
coedge $-1 $145 $140 $270 $272 reversed $135 $-1 #
vertex $-1 $141 $273 #
straight-curve $-1 61.687673574022647 -25.394892000505855 88.665283843833379 0 0 1 I I #
coedge $-1 $268 $211 $142 $217 forward $207 $-1 #
edge $-1 $220 8.3920223137145058 $218 25.613717059868193 $216 $274 forward 7 unknown #
vertex $-1 $269 $275 #
straight-curve $-1 0.81210928047751985 -42.616586746659543 59.72514971046909 0.7313536940579346 0 -0.68199836817093118 I I #
vertex $-1 $217 $276 #
straight-curve $-1 -28.543342318380347 -25.394892000505855 87.099551795263778 0.7313536940579346 0 -0.68199836817093118 I I #
edge $-1 $277 -15.280427087287626 $146 -2.9577663677747377 $145 $278 forward 7 unknown #
point $-1 61.687673574022647 -42.616586746659543 2.9577663677747377 #
point $-1 61.687673574022647 -25.394892000505855 2.9577663677747381 #
edge $-1 $279 1 $279 0 $149 $-1 forward 7 unknown #
vertex $-1 $150 $280 #
ellipse-curve $-1 53.770366250401125 -37.696102533472775 7.7141976852391689 0.68199836817093118 0 0.7313536940579346 0.7313536940579346 0 -0.68199836817093118 1 I I #
point $-1 55.811809525017267 -37.696102533472775 8.4370983593602542 #
edge $-1 $281 1 $281 0 $153 $-1 forward 7 unknown #
vertex $-1 $154 $282 #
ellipse-curve $-1 53.770366250401125 -30.315376213692627 7.7141976852391689 0.68199836817093118 0 0.7313536940579346 0.7313536940579346 0 -0.68199836817093118 1 I I #
point $-1 55.811809525017267 -30.315376213692627 8.4370983593602542 #
plane-surface $-1 61.687673574022647 0 0 -1 0 0 0 0 1 forward_v I I I I #
coedge $-1 $177 $163 $168 $242 forward $158 $-1 #
vertex $-1 $161 $283 #
vertex $-1 $241 $284 #
straight-curve $-1 61.687673574022647 0 -15.280427087287626 0 -1 0 I I #
straight-curve $-1 0 42.616586746659543 15.280427087287626 -1 0 0 I I #
coedge $-1 $165 $174 $167 $241 reversed $101 $-1 #
straight-curve $-1 0 -42.616586746659543 15.280427087287626 1 0 0 I I #
edge $-1 $170 -15.280427087287626 $236 15.280427087287626 $167 $285 forward 7 unknown #
edge $-1 $171 -15.280427087287626 $235 15.280427087287626 $168 $286 forward 7 unknown #
point $-1 61.687673574022647 -42.616586746659543 15.280427087287626 #
point $-1 61.687673574022647 42.616586746659543 15.280427087287626 #
straight-curve $-1 -61.687673574022647 0 15.280427087287626 0 -1 0 I I #
point $-1 -61.687673574022647 -42.616586746659543 15.280427087287626 #
point $-1 -61.687673574022647 42.616586746659543 15.280427087287626 #
straight-curve $-1 0 42.616586746659543 -15.280427087287626 1 0 0 I I #
straight-curve $-1 0 -42.616586746659543 -15.280427087287626 -1 0 0 I I #
plane-surface $-1 0 0 15.280427087287626 0 0 1 1 0 0 forward_v I I I I #
coedge $-1 $189 $186 $191 $258 reversed $119 $-1 #
coedge $-1 $186 $189 $264 $287 reversed $119 $-1 #
edge $-1 $266 -15.280427087287626 $260 15.280427087287626 $203 $288 forward 7 unknown #
edge $-1 $255 -8.9516758894419155 $201 8.9516758894419155 $188 $289 forward 7 unknown #
vertex $-1 $287 $290 #
vertex $-1 $258 $291 #
straight-curve $-1 -79.59102535290647 -19.764544120566509 0 0 0 -1 I I #
edge $-1 $256 -3.8544057742411084 $260 3.8544057742411084 $251 $292 forward 7 unknown #
straight-curve $-1 -70.639349463464555 -19.764544120566509 -15.280427087287626 -1 0 0 I I #
vertex $-1 $193 $293 #
straight-curve $-1 -70.639349463464555 -12.055732572084292 -15.280427087287626 1 0 0 I I #
point $-1 -61.687673574022639 -19.764544120566509 -15.280427087287626 #
straight-curve $-1 -61.687673574022647 -19.764544120566509 0 0 0 -1 I I #
coedge $-1 $199 $198 $252 $287 forward $200 $-1 #
point $-1 -61.687673574022639 -19.764544120566509 15.280427087287626 #
vertex $-1 $204 $294 #
straight-curve $-1 -70.639349463464555 -12.055732572084292 15.280427087287626 -1 0 0 I I #
coedge $-1 $270 $216 $210 $269 forward $207 $-1 #
edge $-1 $218 48.4732380878961 $277 61.687673574022647 $210 $295 forward 7 unknown #
coedge $-1 $211 $268 $213 $272 forward $207 $-1 #
straight-curve $-1 27.79922155455434 -25.394892000505855 15.28042708728762 -1 0 0 I I #
edge $-1 $277 -42.616586746659543 $214 -25.394892000505855 $213 $296 forward 7 unknown #
point $-1 61.687673574022647 -25.394892000505855 15.280427087287626 #
straight-curve $-1 48.4732380878961 -17.00286968679135 15.280427087287627 0 -1 0 I I #
point $-1 48.4732380878961 -42.616586746659543 15.28042708728762 #
point $-1 48.4732380878961 -25.394892000505855 15.28042708728762 #
vertex $-1 $272 $297 #
straight-curve $-1 61.687673574022647 -42.616586746659543 0 0 0 -1 I I #
vertex $-1 $225 $298 #
point $-1 54.501719944459055 -37.696102533472775 7.0321993170682369 #
vertex $-1 $229 $299 #
point $-1 54.501719944459055 -30.315376213692627 7.0321993170682369 #
point $-1 61.687673574022647 42.616586746659543 -15.280427087287626 #
point $-1 61.687673574022647 -42.616586746659543 -15.280427087287626 #
straight-curve $-1 61.687673574022647 -42.616586746659543 0 0 0 -1 I I #
straight-curve $-1 61.687673574022647 42.616586746659543 0 0 0 -1 I I #
edge $-1 $266 -3.8544057742411084 $255 3.8544057742411084 $252 $300 forward 7 unknown #
straight-curve $-1 -79.59102535290647 -12.055732572084292 0 0 0 -1 I I #
straight-curve $-1 -70.639349463464555 -19.764544120566509 15.280427087287626 1 0 0 I I #
point $-1 -79.59102535290647 -19.764544120566509 15.280427087287626 #
point $-1 -79.59102535290647 -19.764544120566509 -15.280427087287626 #
straight-curve $-1 -79.59102535290647 -15.9101383463254 -15.280427087287626 0 1 0 I I #
point $-1 -79.59102535290647 -12.055732572084292 -15.280427087287626 #
point $-1 -79.59102535290647 -12.055732572084292 15.280427087287626 #
straight-curve $-1 0 -42.616586746659543 15.280427087287626 1 0 0 I I #
straight-curve $-1 61.687673574022647 0 15.280427087287626 0 1 0 I I #
point $-1 61.687673574022647 -42.616586746659543 15.280427087287626 #
point $-1 53.088367882230187 -37.696102533472775 6.9828439911812321 #
point $-1 53.088367882230187 -30.315376213692627 6.9828439911812321 #
straight-curve $-1 -79.59102535290647 -15.9101383463254 15.280427087287626 0 -1 0 I I #
End-of-ACIS-data 