500 0 9 0           
7 Unknown 11 ACIS 5.0 NT 24 Thu Mar 25 17:32:54 1999 
-1 9.9999999999999995e-007 1e-010 
body $-1 $9 $-1 $10 #
body $-1 $11 $-1 $12 #
body $-1 $13 $-1 $14 #
body $-1 $15 $-1 $16 #
body $-1 $17 $-1 $18 #
body $-1 $19 $-1 $20 #
body $-1 $21 $-1 $22 #
body $-1 $23 $-1 $24 #
body $-1 $25 $-1 $26 #
lump $-1 $-1 $27 $0 #
transform $-1 1 0 0 0 1 0 0 0 1 44.504531998657185 26.190673282159068 12.234729996501127 1 rotate no_reflect no_shear #
lump $-1 $-1 $28 $1 #
transform $-1 1 0 0 0 1 0 0 0 1 44.504531998657185 26.190673282159068 12.234729996501127 1 rotate no_reflect no_shear #
lump $-1 $-1 $29 $2 #
transform $-1 1 0 0 0 1 0 0 0 1 44.504531998657185 26.190673282159068 12.234729996501127 1 rotate no_reflect no_shear #
lump $-1 $-1 $30 $3 #
transform $-1 1 0 0 0 1 0 0 0 1 44.504531998657185 26.190673282159068 12.234729996501127 1 rotate no_reflect no_shear #
lump $-1 $-1 $31 $4 #
transform $-1 1 0 0 0 1 0 0 0 1 44.504531998657185 26.190673282159068 12.234729996501127 1 rotate no_reflect no_shear #
lump $-1 $-1 $32 $5 #
transform $-1 1 0 0 0 1 0 0 0 1 44.504531998657185 26.190673282159068 12.234729996501127 1 rotate no_reflect no_shear #
lump $-1 $-1 $33 $6 #
transform $-1 1 0 0 0 1 0 0 0 1 44.504531998657185 26.190673282159068 12.234729996501127 1 rotate no_reflect no_shear #
lump $-1 $-1 $34 $7 #
transform $-1 1 0 0 0 1 0 0 0 1 44.504531998657185 26.190673282159068 12.234729996501127 1 rotate no_reflect no_shear #
lump $-1 $-1 $35 $8 #
transform $-1 1 0 0 0 1 0 0 0 1 44.504531998657185 26.190673282159068 12.234729996501127 1 rotate no_reflect no_shear #
shell $-1 $-1 $-1 $36 $-1 $9 #
shell $-1 $-1 $-1 $37 $-1 $11 #
shell $-1 $-1 $-1 $38 $-1 $13 #
shell $-1 $-1 $-1 $39 $-1 $15 #
shell $-1 $-1 $-1 $40 $-1 $17 #
shell $-1 $-1 $-1 $41 $-1 $19 #
shell $-1 $-1 $-1 $42 $-1 $21 #
shell $-1 $-1 $-1 $43 $-1 $23 #
shell $-1 $-1 $-1 $44 $-1 $25 #
face $-1 $45 $46 $27 $-1 $47 forward single #
face $-1 $48 $49 $28 $-1 $50 forward single #
face $-1 $51 $52 $29 $-1 $53 forward single #
face $-1 $54 $55 $30 $-1 $56 reversed single #
face $-1 $57 $58 $31 $-1 $59 forward single #
face $-1 $60 $61 $32 $-1 $62 forward single #
face $-1 $63 $64 $33 $-1 $65 reversed single #
face $-1 $66 $67 $34 $-1 $68 forward single #
face $-1 $69 $70 $35 $-1 $71 forward single #
face $-1 $72 $73 $27 $-1 $74 reversed single #
loop $-1 $-1 $75 $36 #
plane-surface $-1 0 0 12.234729996501127 0 0 1 1 0 0 forward_v I I I I #
face $-1 $76 $77 $28 $-1 $78 reversed single #
loop $-1 $-1 $79 $37 #
plane-surface $-1 0 -20.020074681332709 5.9731211318669359 0 0 1 1 0 0 forward_v I I I I #
face $-1 $80 $81 $29 $-1 $82 reversed single #
loop $-1 $-1 $83 $38 #
plane-surface $-1 0 20.855611116009989 4.6418685592615594 0 0 1 1 0 0 forward_v I I I I #
face $-1 $84 $85 $30 $-1 $86 reversed single #
loop $-1 $-1 $87 $39 #
plane-surface $-1 -120.80019182063204 11.595740330693236 49.463446493863984 0 -1 0 0.85716730853699208 0 -0.51503806187062418 forward_v I I I I #
face $-1 $88 $89 $31 $-1 $90 forward single #
loop $-1 $91 $92 $40 #
cone-surface $-1 -41.487939807584993 6.287190846192992 7.6700413091996662 0.85716730853699208 0 -0.51503806187062418 0.12875951546765604 0 0.21429182713424802 1 I I 0 1 0.25 forward I I I I #
face $-1 $93 $94 $32 $-1 $95 forward single #
loop $-1 $96 $97 $41 #
cone-surface $-1 -41.487939807584993 9.472320536893136 7.6700413091996662 0.85716730853699208 0 -0.51503806187062418 0.12875951546765604 0 0.21429182713424802 1 I I 0 1 0.25 forward I I I I #
face $-1 $98 $99 $33 $-1 $100 reversed single #
loop $-1 $-1 $101 $42 #
plane-surface $-1 74.9571360105369 4.1637710523928995 125.75910631583884 0 1 0 0.85716730853699208 0 0.51503806187062418 forward_v I I I I #
face $-1 $102 $103 $34 $-1 $104 forward single #
loop $-1 $105 $106 $43 #
cone-surface $-1 41.487939807584993 6.287190846192992 7.6700413091996591 -0.85716730853699208 0 -0.51503806187062418 0.12875951546765604 0 -0.21429182713424802 1 I I 0 1 0.25 forward I I I I #
face $-1 $107 $108 $35 $-1 $109 forward single #
loop $-1 $110 $111 $44 #
cone-surface $-1 41.487939807584993 9.472320536893136 7.6700413091996591 -0.85716730853699208 0 -0.51503806187062418 0.12875951546765604 0 -0.21429182713424802 1 I I 0 1 0.25 forward I I I I #
face $-1 $112 $113 $27 $-1 $114 reversed single #
loop $-1 $-1 $115 $45 #
plane-surface $-1 0 0 -12.234729996501127 0 0 1 1 0 0 forward_v I I I I #
coedge $-1 $116 $117 $118 $119 forward $46 $-1 #
face $-1 $120 $121 $28 $-1 $122 reversed single #
loop $-1 $-1 $123 $48 #
plane-surface $-1 0 -20.020074681332709 1.3081145816705266 0 0 1 1 0 0 forward_v I I I I #
coedge $-1 $124 $125 $126 $127 reversed $49 $-1 #
face $-1 $128 $129 $29 $-1 $130 reversed single #
loop $-1 $-1 $131 $51 #
plane-surface $-1 0 20.855611116009989 -2.5932266017907883 0 0 1 1 0 0 forward_v I I I I #
coedge $-1 $132 $133 $134 $135 reversed $52 $-1 #
face $-1 $136 $137 $30 $-1 $138 reversed single #
loop $-1 $-1 $139 $54 #
plane-surface $-1 -44.5045319986572 7.8797556915430675 3.6203906837688393 -0.85716730853699208 0 0.51503806187062418 0.51503806187062418 0 0.85716730853699208 forward_v I I I I #
coedge $-1 $140 $141 $142 $143 reversed $55 $-1 #
face $-1 $-1 $144 $31 $-1 $145 forward single #
loop $-1 $146 $147 $57 #
cone-surface $-1 -40.952210239749377 6.287190846192992 7.3481425205305264 0.85716730853699208 0 -0.51503806187062418 0.064379757733828022 0 0.10714591356712401 1 I I -0.70710678118654746 0.70710678118654746 0.125 forward I I I I #
loop $-1 $-1 $148 $40 #
coedge $-1 $92 $92 $149 $150 reversed $58 $-1 #
face $-1 $-1 $151 $32 $-1 $152 forward single #
loop $-1 $153 $154 $60 #
cone-surface $-1 -40.952210239749377 9.472320536893136 7.3481425205305264 0.85716730853699208 0 -0.51503806187062418 0.064379757733828022 0 0.10714591356712401 1 I I -0.70710678118654746 0.70710678118654746 0.125 forward I I I I #
loop $-1 $-1 $155 $41 #
coedge $-1 $97 $97 $156 $157 reversed $61 $-1 #
face $-1 $158 $159 $33 $-1 $160 reversed single #
loop $-1 $-1 $161 $63 #
plane-surface $-1 -1.3385238114379376 7.8797556915430675 79.916050505743698 0.85716730853699208 0 0.51503806187062418 0.51503806187062418 0 -0.85716730853699208 forward_v I I I I #
coedge $-1 $162 $163 $164 $165 reversed $64 $-1 #
face $-1 $-1 $166 $34 $-1 $167 forward single #
loop $-1 $168 $169 $66 #
cone-surface $-1 40.952210239749377 6.287190846192992 7.3481425205305193 -0.85716730853699208 0 -0.51503806187062418 0.064379757733828022 0 -0.10714591356712401 1 I I -0.70710678118654746 0.70710678118654746 0.125 forward I I I I #
loop $-1 $-1 $170 $43 #
coedge $-1 $106 $106 $171 $172 reversed $67 $-1 #
face $-1 $-1 $173 $35 $-1 $174 forward single #
loop $-1 $175 $176 $69 #
cone-surface $-1 40.952210239749377 9.472320536893136 7.3481425205305193 -0.85716730853699208 0 -0.51503806187062418 0.064379757733828022 0 -0.10714591356712401 1 I I -0.70710678118654746 0.70710678118654746 0.125 forward I I I I #
loop $-1 $-1 $177 $44 #
coedge $-1 $111 $111 $178 $179 reversed $70 $-1 #
face $-1 $180 $181 $27 $-1 $182 reversed single #
loop $-1 $-1 $183 $72 #
plane-surface $-1 0 -26.190673282159068 0 0 1 0 0 0 1 forward_v I I I I #
coedge $-1 $184 $185 $186 $187 forward $73 $-1 #
coedge $-1 $188 $75 $189 $190 forward $46 $-1 #
coedge $-1 $75 $188 $191 $192 forward $46 $-1 #
coedge $-1 $193 $194 $75 $119 reversed $195 $-1 #
edge $-1 $196 -26.190673282159068 $197 26.190673282159068 $118 $198 forward 7 unknown #
face $-1 $199 $200 $28 $-1 $201 reversed single #
loop $-1 $-1 $202 $76 #
plane-surface $-1 0 -13.849476080506347 3.6406178567687313 0 -1 0 0 0 -1 forward_v I I I I #
coedge $-1 $203 $204 $205 $206 reversed $77 $-1 #
coedge $-1 $207 $79 $208 $209 forward $49 $-1 #
coedge $-1 $79 $207 $210 $211 reversed $49 $-1 #
coedge $-1 $212 $213 $79 $127 forward $214 $-1 #
edge $-1 $215 3.8394387398399932 $216 16.180635941492714 $126 $217 forward 7 unknown #
face $-1 $218 $219 $29 $-1 $220 reversed single #
loop $-1 $-1 $221 $80 #
plane-surface $-1 0 15.52054894986091 1.0243209787353855 0 1 0 0 0 1 forward_v I I I I #
coedge $-1 $222 $223 $224 $225 reversed $81 $-1 #
coedge $-1 $226 $83 $227 $228 reversed $52 $-1 #
coedge $-1 $83 $226 $229 $230 forward $52 $-1 #
coedge $-1 $231 $232 $83 $135 forward $219 $-1 #
edge $-1 $233 -15.762867724154074 $234 -5.0927433918559153 $134 $235 forward 7 unknown #
face $-1 $236 $237 $30 $-1 $238 reversed single #
loop $-1 $-1 $239 $84 #
plane-surface $-1 -120.80019182063204 4.1637710523928995 49.463446493863984 0 1 0 -0.85716730853699208 0 0.51503806187062418 forward_v I I I I #
coedge $-1 $240 $241 $242 $243 reversed $85 $-1 #
coedge $-1 $141 $87 $244 $245 reversed $55 $-1 #
coedge $-1 $87 $140 $240 $246 reversed $55 $-1 #
coedge $-1 $242 $247 $87 $143 forward $237 $-1 #
edge $-1 $248 12.496993250430865 $249 21.111332563163128 $142 $250 forward 7 unknown #
loop $-1 $-1 $149 $88 #
plane-surface $-1 -44.5045319986572 7.8797556915430675 3.6203906837688393 -0.85716730853699208 0 0.51503806187062418 0.51503806187062418 0 0.85716730853699208 forward_v I I I I #
loop $-1 $-1 $251 $57 #
coedge $-1 $147 $147 $148 $252 reversed $89 $-1 #
coedge $-1 $148 $148 $147 $252 forward $91 $-1 #
coedge $-1 $149 $149 $92 $150 forward $144 $-1 #
edge $-1 $253 0 $253 6.2831853071796004 $149 $254 forward 7 unknown #
loop $-1 $-1 $156 $93 #
plane-surface $-1 -44.5045319986572 7.8797556915430675 3.6203906837688393 -0.85716730853699208 0 0.51503806187062418 0.51503806187062418 0 0.85716730853699208 forward_v I I I I #
loop $-1 $-1 $255 $60 #
coedge $-1 $154 $154 $155 $256 reversed $94 $-1 #
coedge $-1 $155 $155 $154 $256 forward $96 $-1 #
coedge $-1 $156 $156 $97 $157 forward $151 $-1 #
edge $-1 $257 0 $257 6.2831853071796004 $156 $258 forward 7 unknown #
face $-1 $259 $260 $33 $-1 $261 forward single #
loop $-1 $-1 $262 $98 #
plane-surface $-1 74.9571360105369 11.595740330693236 125.75910631583884 0 -1 0 -0.85716730853699208 0 -0.51503806187062418 forward_v I I I I #
coedge $-1 $263 $264 $265 $266 reversed $99 $-1 #
coedge $-1 $163 $101 $267 $268 reversed $64 $-1 #
coedge $-1 $101 $162 $263 $269 reversed $64 $-1 #
coedge $-1 $265 $270 $101 $165 forward $271 $-1 #
edge $-1 $272 50.644823161418287 $273 59.259162474150529 $164 $274 forward 7 unknown #
loop $-1 $-1 $171 $102 #
plane-surface $-1 -1.3385238114379376 7.8797556915430675 79.916050505743698 0.85716730853699208 0 0.51503806187062418 0.51503806187062418 0 -0.85716730853699208 forward_v I I I I #
loop $-1 $-1 $275 $66 #
coedge $-1 $169 $169 $170 $276 reversed $103 $-1 #
coedge $-1 $170 $170 $169 $276 forward $105 $-1 #
coedge $-1 $171 $171 $106 $172 forward $166 $-1 #
edge $-1 $277 0 $277 6.2831853071796004 $171 $278 forward 7 unknown #
loop $-1 $-1 $178 $107 #
plane-surface $-1 -1.3385238114379376 7.8797556915430675 79.916050505743698 0.85716730853699208 0 0.51503806187062418 0.51503806187062418 0 -0.85716730853699208 forward_v I I I I #
loop $-1 $-1 $279 $69 #
coedge $-1 $176 $176 $177 $280 reversed $108 $-1 #
coedge $-1 $177 $177 $176 $280 forward $110 $-1 #
coedge $-1 $178 $178 $111 $179 forward $173 $-1 #
edge $-1 $281 0 $281 6.2831853071796004 $178 $282 forward 7 unknown #
face $-1 $283 $284 $27 $-1 $285 reversed single #
loop $-1 $-1 $286 $112 #
plane-surface $-1 -44.504531998657185 0 0 1 0 0 0 0 -1 forward_v I I I I #
coedge $-1 $287 $191 $288 $289 forward $113 $-1 #
coedge $-1 $290 $115 $287 $291 forward $73 $-1 #
coedge $-1 $115 $290 $292 $293 forward $73 $-1 #
coedge $-1 $194 $193 $115 $187 reversed $195 $-1 #
edge $-1 $294 -26.190673282159068 $295 26.190673282159068 $186 $296 forward 7 unknown #
coedge $-1 $117 $116 $297 $298 forward $46 $-1 #
coedge $-1 $299 $300 $116 $190 reversed $284 $-1 #
edge $-1 $197 -44.504531998657185 $301 44.504531998657185 $189 $302 forward 7 unknown #
coedge $-1 $183 $303 $117 $192 reversed $113 $-1 #
edge $-1 $304 -44.504531998657185 $196 44.504531998657185 $191 $305 forward 7 unknown #
coedge $-1 $186 $118 $303 $306 forward $195 $-1 #
coedge $-1 $118 $186 $299 $307 reversed $195 $-1 #
loop $-1 $-1 $193 $283 #
vertex $-1 $119 $308 #
vertex $-1 $119 $309 #
straight-curve $-1 44.504531998657185 0 12.234729996501127 0 1 0 I I #
face $-1 $310 $311 $28 $-1 $312 reversed single #
loop $-1 $-1 $313 $120 #
plane-surface $-1 -44.504531998657185 0 0 1 0 0 0 0 -1 forward_v I I I I #
coedge $-1 $314 $208 $213 $315 reversed $121 $-1 #
coedge $-1 $316 $123 $317 $318 reversed $77 $-1 #
coedge $-1 $123 $316 $314 $319 forward $77 $-1 #
coedge $-1 $213 $212 $123 $206 forward $214 $-1 #
edge $-1 $320 -16.180635941492714 $321 -3.8394387398399932 $205 $322 forward 7 unknown #
coedge $-1 $125 $124 $313 $323 reversed $49 $-1 #
coedge $-1 $202 $324 $124 $209 reversed $121 $-1 #
edge $-1 $215 -44.504531998657185 $325 44.504531998657185 $208 $326 forward 7 unknown #
coedge $-1 $327 $328 $125 $211 forward $311 $-1 #
edge $-1 $216 -44.504531998657185 $329 44.504531998657185 $210 $330 forward 7 unknown #
coedge $-1 $205 $126 $328 $331 forward $214 $-1 #
coedge $-1 $126 $205 $202 $315 forward $214 $-1 #
loop $-1 $-1 $126 $310 #
vertex $-1 $127 $332 #
vertex $-1 $331 $333 #
straight-curve $-1 44.504531998657185 -10.010037340666354 5.9731211318669359 0 -1 0 I I #
face $-1 $334 $335 $29 $-1 $336 reversed single #
loop $-1 $-1 $134 $128 #
plane-surface $-1 44.504531998657185 0 0 -1 0 0 0 0 1 forward_v I I I I #
coedge $-1 $337 $229 $338 $339 reversed $129 $-1 #
coedge $-1 $340 $131 $337 $341 forward $81 $-1 #
coedge $-1 $131 $340 $342 $343 reversed $81 $-1 #
coedge $-1 $232 $231 $131 $225 forward $219 $-1 #
edge $-1 $344 5.0927433918559153 $345 15.762867724154074 $224 $346 forward 7 unknown #
coedge $-1 $133 $132 $347 $348 reversed $52 $-1 #
coedge $-1 $349 $350 $132 $228 forward $351 $-1 #
edge $-1 $352 -44.504531998657185 $233 44.504531998657185 $227 $353 forward 7 unknown #
coedge $-1 $221 $354 $133 $230 reversed $129 $-1 #
edge $-1 $355 -44.504531998657185 $234 44.504531998657185 $229 $356 forward 7 unknown #
coedge $-1 $224 $134 $354 $357 forward $219 $-1 #
coedge $-1 $134 $224 $349 $358 reversed $219 $-1 #
vertex $-1 $358 $359 #
vertex $-1 $135 $360 #
straight-curve $-1 44.504531998657185 10.427805558004994 4.6418685592615594 0 -1 0 I I #
face $-1 $-1 $361 $30 $-1 $362 forward single #
loop $-1 $-1 $142 $136 #
plane-surface $-1 -44.504531998657185 0 0 1 0 0 0 0 -1 forward_v I I I I #
coedge $-1 $363 $364 $365 $366 reversed $137 $-1 #
coedge $-1 $367 $139 $141 $246 forward $85 $-1 #
coedge $-1 $139 $367 $363 $368 forward $85 $-1 #
coedge $-1 $365 $142 $139 $243 forward $237 $-1 #
edge $-1 $249 -7.6558624849217018 $369 -0.22389320662136569 $242 $370 forward 7 unknown #
coedge $-1 $371 $372 $140 $245 forward $361 $-1 #
edge $-1 $373 -21.071580985266209 $248 -15.895563911658833 $244 $374 forward 7 unknown #
edge $-1 $249 2.7494044966190042e-014 $373 10.04977584531915 $141 $375 forward 7 unknown #
coedge $-1 $142 $365 $371 $376 reversed $237 $-1 #
vertex $-1 $376 $377 #
vertex $-1 $143 $378 #
straight-curve $-1 -44.504531998657185 11.595740330693236 24.731723246931992 0 0 -1 I I #
coedge $-1 $251 $251 $-1 $379 reversed $146 $-1 #
edge $-1 $380 0 $380 6.2831853071796004 $147 $381 forward 7 unknown #
vertex $-1 $150 $382 #
ellipse-curve $-1 -41.916523461853501 6.287190846192992 7.9275603401349866 -0.85716730853699208 0 0.51503806187062418 0.12875951546765604 0 0.21429182713424802 1 I I #
coedge $-1 $255 $255 $-1 $383 reversed $153 $-1 #
edge $-1 $384 0 $384 6.2831853071796004 $154 $385 forward 7 unknown #
vertex $-1 $157 $386 #
ellipse-curve $-1 -41.916523461853501 9.472320536893136 7.9275603401349866 -0.85716730853699208 0 0.51503806187062418 0.12875951546765604 0 0.21429182713424802 1 I I #
face $-1 $-1 $271 $33 $-1 $387 reversed single #
loop $-1 $-1 $388 $158 #
plane-surface $-1 0 0 12.234729996501127 0 0 1 1 0 0 forward_v I I I I #
coedge $-1 $389 $390 $391 $392 reversed $159 $-1 #
coedge $-1 $393 $161 $163 $269 forward $99 $-1 #
coedge $-1 $161 $393 $389 $394 forward $99 $-1 #
coedge $-1 $391 $164 $161 $266 forward $271 $-1 #
edge $-1 $273 0.22389320662136569 $395 7.6558624849217018 $265 $396 forward 7 unknown #
coedge $-1 $397 $398 $162 $268 forward $260 $-1 #
edge $-1 $399 1.8499469197813809 $272 7.0259639933887357 $267 $400 forward 7 unknown #
edge $-1 $273 -89.009063997314357 $399 -78.959288151995253 $163 $401 forward 7 unknown #
coedge $-1 $164 $391 $397 $402 reversed $271 $-1 #
loop $-1 $-1 $391 $259 #
vertex $-1 $402 $403 #
vertex $-1 $165 $404 #
straight-curve $-1 44.504531998657185 4.1637710523928995 62.879553157919418 0 0 -1 I I #
coedge $-1 $275 $275 $-1 $405 reversed $168 $-1 #
edge $-1 $406 0 $406 6.2831853071796004 $169 $407 forward 7 unknown #
vertex $-1 $172 $408 #
ellipse-curve $-1 41.916523461853522 6.287190846192992 7.9275603401349892 0.85716730853699208 0 0.51503806187062418 0.12875951546765604 0 -0.21429182713424802 1 I I #
coedge $-1 $279 $279 $-1 $409 reversed $175 $-1 #
edge $-1 $410 0 $410 6.2831853071796004 $176 $411 forward 7 unknown #
vertex $-1 $179 $412 #
ellipse-curve $-1 41.916523461853522 9.472320536893136 7.9275603401349892 0.85716730853699208 0 0.51503806187062418 0.12875951546765604 0 -0.21429182713424802 1 I I #
face $-1 $-1 $195 $27 $-1 $413 reversed single #
loop $-1 $-1 $299 $180 #
plane-surface $-1 0 26.190673282159068 0 0 -1 0 0 0 -1 forward_v I I I I #
coedge $-1 $414 $297 $300 $415 forward $181 $-1 #
coedge $-1 $303 $183 $184 $291 reversed $113 $-1 #
coedge $-1 $297 $414 $183 $289 reversed $181 $-1 #
edge $-1 $304 -12.234729996501127 $416 12.234729996501127 $288 $417 forward 7 unknown #
coedge $-1 $185 $184 $414 $418 forward $73 $-1 #
edge $-1 $295 -44.504531998657185 $416 44.504531998657185 $287 $419 forward 7 unknown #
coedge $-1 $300 $299 $185 $293 reversed $284 $-1 #
edge $-1 $420 -44.504531998657185 $294 44.504531998657185 $292 $421 forward 7 unknown #
vertex $-1 $187 $422 #
vertex $-1 $306 $423 #
straight-curve $-1 44.504531998657185 0 -12.234729996501127 0 -1 0 I I #
coedge $-1 $286 $288 $188 $298 reversed $181 $-1 #
edge $-1 $301 -26.190673282159068 $304 26.190673282159068 $297 $424 forward 7 unknown #
coedge $-1 $292 $189 $194 $307 forward $284 $-1 #
coedge $-1 $189 $292 $286 $415 reversed $284 $-1 #
vertex $-1 $190 $425 #
straight-curve $-1 0 26.190673282159068 12.234729996501127 -1 0 0 I I #
coedge $-1 $191 $287 $193 $306 reversed $113 $-1 #
vertex $-1 $298 $426 #
straight-curve $-1 0 -26.190673282159068 12.234729996501127 1 0 0 I I #
edge $-1 $196 -12.234729996501127 $295 12.234729996501127 $193 $427 forward 7 unknown #
edge $-1 $197 -12.234729996501127 $294 12.234729996501127 $194 $428 forward 7 unknown #
point $-1 44.504531998657185 -26.190673282159068 12.234729996501127 #
point $-1 44.504531998657185 26.190673282159068 12.234729996501127 #
face $-1 $-1 $214 $28 $-1 $429 reversed single #
loop $-1 $-1 $210 $199 #
plane-surface $-1 0 -26.190673282159068 0 0 1 0 0 0 1 forward_v I I I I #
coedge $-1 $430 $431 $207 $323 forward $200 $-1 #
coedge $-1 $324 $202 $204 $319 reversed $121 $-1 #
edge $-1 $321 -0.51219434671383901 $215 4.1528122034825703 $213 $432 forward 7 unknown #
coedge $-1 $204 $203 $433 $434 reversed $77 $-1 #
coedge $-1 $328 $327 $203 $318 forward $311 $-1 #
edge $-1 $435 -44.504531998657185 $320 44.504531998657185 $317 $436 forward 7 unknown #
edge $-1 $437 -44.504531998657185 $321 44.504531998657185 $314 $438 forward 7 unknown #
vertex $-1 $318 $439 #
vertex $-1 $206 $440 #
straight-curve $-1 44.504531998657185 -10.010037340666354 1.3081145816705266 0 1 0 I I #
edge $-1 $329 -16.180635941492714 $325 -3.8394387398399932 $313 $441 forward 7 unknown #
coedge $-1 $208 $314 $430 $442 reversed $121 $-1 #
vertex $-1 $323 $443 #
straight-curve $-1 0 -13.849476080506347 5.9731211318669359 -1 0 0 I I #
coedge $-1 $317 $210 $431 $444 forward $311 $-1 #
coedge $-1 $210 $317 $212 $331 reversed $311 $-1 #
vertex $-1 $444 $445 #
straight-curve $-1 0 -26.190673282159068 5.9731211318669359 -1 0 0 I I #
edge $-1 $216 -5.9731211318669359 $320 -1.3081145816705266 $212 $446 forward 7 unknown #
point $-1 44.504531998657185 -13.849476080506347 5.9731211318669359 #
point $-1 44.504531998657185 -26.190673282159068 5.9731211318669359 #
face $-1 $-1 $351 $29 $-1 $447 reversed single #
loop $-1 $-1 $347 $218 #
plane-surface $-1 -44.504531998657185 0 0 1 0 0 0 0 -1 forward_v I I I I #
coedge $-1 $354 $221 $222 $341 reversed $129 $-1 #
coedge $-1 $347 $448 $221 $339 forward $335 $-1 #
edge $-1 $449 -3.1053870911584811 $355 4.1297080698938666 $338 $450 forward 7 unknown #
coedge $-1 $223 $222 $448 $451 reversed $81 $-1 #
edge $-1 $344 -44.504531998657185 $449 44.504531998657185 $337 $452 forward 7 unknown #
coedge $-1 $350 $349 $223 $343 forward $351 $-1 #
edge $-1 $345 -44.504531998657185 $453 44.504531998657185 $342 $454 forward 7 unknown #
vertex $-1 $225 $455 #
vertex $-1 $343 $456 #
straight-curve $-1 44.504531998657185 10.427805558004994 -2.5932266017907883 0 1 0 I I #
coedge $-1 $457 $338 $226 $348 forward $335 $-1 #
edge $-1 $355 5.0927433918559153 $352 15.762867724154074 $347 $458 forward 7 unknown #
coedge $-1 $342 $227 $232 $358 forward $351 $-1 #
coedge $-1 $227 $342 $457 $459 reversed $351 $-1 #
loop $-1 $-1 $227 $334 #
vertex $-1 $459 $460 #
straight-curve $-1 0 26.190673282159068 4.6418685592615594 1 0 0 I I #
coedge $-1 $229 $337 $231 $357 reversed $129 $-1 #
vertex $-1 $348 $461 #
straight-curve $-1 0 15.52054894986091 4.6418685592615594 1 0 0 I I #
edge $-1 $234 -4.1297080698938666 $344 3.1053870911584811 $231 $462 forward 7 unknown #
edge $-1 $233 -4.6418685592615594 $345 2.5932266017907883 $232 $463 forward 7 unknown #
point $-1 44.504531998657185 26.190673282159068 4.6418685592615594 #
point $-1 44.504531998657185 15.52054894986091 4.6418685592615594 #
loop $-1 $-1 $244 $236 #
plane-surface $-1 0 0 12.234729996501127 0 0 1 1 0 0 forward_v I I I I #
coedge $-1 $364 $239 $241 $368 reversed $137 $-1 #
coedge $-1 $239 $363 $464 $465 reversed $137 $-1 #
coedge $-1 $247 $242 $239 $366 forward $237 $-1 #
edge $-1 $369 -21.111332563163128 $466 -12.496993250430865 $365 $467 forward 7 unknown #
coedge $-1 $241 $240 $372 $468 reversed $85 $-1 #
edge $-1 $469 -10.04977584531915 $369 -2.7494044966190042e-014 $363 $470 forward 7 unknown #
vertex $-1 $243 $471 #
straight-curve $-1 -44.504531998657185 3.9398778457715338 3.620390683768862 0 -1 0 I I #
coedge $-1 $464 $244 $247 $376 forward $361 $-1 #
coedge $-1 $244 $464 $367 $468 forward $361 $-1 #
vertex $-1 $245 $472 #
straight-curve $-1 -60.400095910316018 11.595740330693236 12.234729996501127 -1 0 0 I I #
straight-curve $-1 -44.5045319986572 11.595740330693236 3.6203906837688393 0.51503806187062418 0 0.85716730853699208 I I #
edge $-1 $248 -11.595740330693236 $466 -4.1637710523928995 $247 $473 forward 7 unknown #
point $-1 -44.504531998657185 11.595740330693236 12.234729996501127 #
point $-1 -44.504531998657185 11.595740330693236 3.6203906837688629 #
edge $-1 $474 1 $474 0 $251 $-1 forward 7 unknown #
vertex $-1 $252 $475 #
ellipse-curve $-1 -41.0593561533165 6.287190846192992 7.4125222782643547 -0.85716730853699208 0 0.51503806187062418 0.12875951546765604 0 0.21429182713424802 1 I I #
point $-1 -41.787763946385837 6.287190846192992 8.1418521672692261 #
edge $-1 $476 1 $476 0 $255 $-1 forward 7 unknown #
vertex $-1 $256 $477 #
ellipse-curve $-1 -41.0593561533165 9.472320536893136 7.4125222782643547 -0.85716730853699208 0 0.51503806187062418 0.12875951546765604 0 0.21429182713424802 1 I I #
point $-1 -41.787763946385837 9.472320536893136 8.1418521672692261 #
plane-surface $-1 44.504531998657185 0 0 -1 0 0 0 0 1 forward_v I I I I #
coedge $-1 $398 $397 $390 $478 forward $260 $-1 #
coedge $-1 $390 $262 $264 $394 reversed $159 $-1 #
coedge $-1 $262 $389 $388 $478 reversed $159 $-1 #
coedge $-1 $270 $265 $262 $392 forward $271 $-1 #
edge $-1 $395 -59.259162474150529 $479 -50.644823161418287 $391 $480 forward 7 unknown #
coedge $-1 $264 $263 $398 $481 reversed $99 $-1 #
edge $-1 $482 78.959288151995253 $395 89.009063997314357 $389 $483 forward 7 unknown #
vertex $-1 $266 $484 #
straight-curve $-1 44.504531998657185 3.9398778457715338 3.6203906837688962 0 1 0 I I #
coedge $-1 $388 $267 $270 $402 forward $260 $-1 #
coedge $-1 $267 $388 $393 $481 forward $260 $-1 #
vertex $-1 $268 $485 #
straight-curve $-1 37.47856800526845 4.1637710523928995 12.23472999650113 1 0 0 I I #
straight-curve $-1 -1.3385238114379376 4.1637710523928995 79.916050505743698 -0.51503806187062418 0 0.85716730853699208 I I #
edge $-1 $272 4.1637710523928995 $479 11.595740330693236 $270 $486 forward 7 unknown #
point $-1 44.504531998657185 4.1637710523928995 12.234729996501127 #
point $-1 44.504531998657185 4.1637710523928995 3.6203906837688891 #
edge $-1 $487 1 $487 0 $275 $-1 forward 7 unknown #
vertex $-1 $276 $488 #
ellipse-curve $-1 41.0593561533165 6.287190846192992 7.4125222782643476 0.85716730853699208 0 0.51503806187062418 0.12875951546765604 0 -0.21429182713424802 1 I I #
point $-1 42.04528297732115 6.287190846192992 7.7132685130007239 #
edge $-1 $489 1 $489 0 $279 $-1 forward 7 unknown #
vertex $-1 $280 $490 #
ellipse-curve $-1 41.0593561533165 9.472320536893136 7.4125222782643476 0.85716730853699208 0 0.51503806187062418 0.12875951546765604 0 -0.21429182713424802 1 I I #
point $-1 42.04528297732115 9.472320536893136 7.7132685130007239 #
plane-surface $-1 44.504531998657185 0 0 -1 0 0 0 0 1 forward_v I I I I #
coedge $-1 $288 $286 $290 $418 reversed $181 $-1 #
edge $-1 $301 -12.234729996501127 $420 12.234729996501127 $300 $491 forward 7 unknown #
vertex $-1 $418 $492 #
straight-curve $-1 -44.504531998657185 -26.190673282159068 0 0 0 -1 I I #
edge $-1 $416 -26.190673282159068 $420 26.190673282159068 $414 $493 forward 7 unknown #
straight-curve $-1 0 -26.190673282159068 -12.234729996501127 -1 0 0 I I #
vertex $-1 $293 $494 #
straight-curve $-1 0 26.190673282159068 -12.234729996501127 1 0 0 I I #
point $-1 44.504531998657185 26.190673282159068 -12.234729996501127 #
point $-1 44.504531998657185 -26.190673282159068 -12.234729996501127 #
straight-curve $-1 -44.504531998657185 0 12.234729996501127 0 -1 0 I I #
point $-1 -44.504531998657185 26.190673282159068 12.234729996501127 #
point $-1 -44.504531998657185 -26.190673282159068 12.234729996501127 #
straight-curve $-1 44.504531998657185 -26.190673282159068 0 0 0 -1 I I #
straight-curve $-1 44.504531998657185 26.190673282159068 0 0 0 -1 I I #
plane-surface $-1 44.504531998657185 0 0 -1 0 0 0 0 1 forward_v I I I I #
coedge $-1 $433 $313 $324 $442 forward $200 $-1 #
coedge $-1 $313 $433 $327 $444 reversed $200 $-1 #
straight-curve $-1 44.504531998657185 -13.849476080506347 1.8203089283843656 0 0 1 I I #
coedge $-1 $431 $430 $316 $434 forward $200 $-1 #
edge $-1 $437 3.8394387398399932 $435 16.180635941492714 $433 $495 forward 7 unknown #
vertex $-1 $318 $496 #
straight-curve $-1 0 -26.190673282159068 1.3081145816705266 1 0 0 I I #
vertex $-1 $434 $497 #
straight-curve $-1 0 -13.849476080506347 1.3081145816705266 1 0 0 I I #
point $-1 44.504531998657185 -26.190673282159068 1.3081145816705266 #
point $-1 44.504531998657185 -13.849476080506347 1.3081145816705266 #
straight-curve $-1 -44.504531998657185 -10.010037340666354 5.9731211318669359 0 1 0 I I #
edge $-1 $325 -4.1528122034825703 $437 0.51219434671383901 $430 $498 forward 7 unknown #
point $-1 -44.504531998657185 -13.849476080506347 5.9731211318669359 #
edge $-1 $329 -5.9731211318669359 $435 -1.3081145816705266 $431 $499 forward 7 unknown #
point $-1 -44.504531998657185 -26.190673282159068 5.9731211318669359 #
straight-curve $-1 44.504531998657185 -26.190673282159068 0 0 0 -1 I I #
plane-surface $-1 0 26.190673282159068 0 0 -1 0 0 0 -1 forward_v I I I I #
coedge $-1 $338 $457 $340 $451 forward $335 $-1 #
vertex $-1 $451 $500 #
straight-curve $-1 -44.504531998657185 15.52054894986091 0.51216048936769276 0 0 1 I I #
edge $-1 $453 -15.762867724154074 $449 -5.0927433918559153 $448 $501 forward 7 unknown #
straight-curve $-1 0 15.52054894986091 -2.5932266017907883 -1 0 0 I I #
vertex $-1 $343 $502 #
straight-curve $-1 0 26.190673282159068 -2.5932266017907883 -1 0 0 I I #
point $-1 44.504531998657185 15.52054894986091 -2.5932266017907883 #
point $-1 44.504531998657185 26.190673282159068 -2.5932266017907883 #
coedge $-1 $448 $347 $350 $459 forward $335 $-1 #
straight-curve $-1 -44.504531998657185 10.427805558004994 4.6418685592615594 0 1 0 I I #
edge $-1 $352 -4.6418685592615594 $453 2.5932266017907883 $350 $503 forward 7 unknown #
point $-1 -44.504531998657185 26.190673282159068 4.6418685592615594 #
point $-1 -44.504531998657185 15.52054894986091 4.6418685592615594 #
straight-curve $-1 44.504531998657185 15.52054894986091 0.51216048936769276 0 0 -1 I I #
straight-curve $-1 44.504531998657185 26.190673282159068 0 0 0 -1 I I #
coedge $-1 $372 $371 $364 $465 forward $361 $-1 #
edge $-1 $466 15.895563911658833 $469 21.071580985266209 $464 $504 forward 7 unknown #
vertex $-1 $465 $505 #
straight-curve $-1 -44.504531998657185 4.1637710523928995 24.731723246931992 0 0 1 I I #
edge $-1 $469 0.22389320662136569 $373 7.6558624849217018 $372 $506 forward 7 unknown #
vertex $-1 $468 $507 #
straight-curve $-1 -44.5045319986572 4.1637710523928995 3.6203906837688393 -0.51503806187062418 0 -0.85716730853699208 I I #
point $-1 -44.504531998657185 4.1637710523928995 3.6203906837688629 #
point $-1 -39.328514925049809 11.595740330693236 12.234729996501127 #
straight-curve $-1 -44.504531998657185 0 12.234729996501127 0 -1 0 I I #
vertex $-1 $379 $508 #
point $-1 -40.930596637848843 6.287190846192992 7.6268141053986023 #
vertex $-1 $383 $509 #
point $-1 -40.930596637848843 9.472320536893136 7.6268141053986023 #
edge $-1 $479 -7.0259639933887357 $482 -1.8499469197813809 $388 $510 forward 7 unknown #
vertex $-1 $392 $511 #
straight-curve $-1 44.504531998657185 11.595740330693236 62.879553157919418 0 0 1 I I #
edge $-1 $482 -7.6558624849217018 $399 -0.22389320662136569 $398 $512 forward 7 unknown #
vertex $-1 $481 $513 #
straight-curve $-1 -1.3385238114379376 11.595740330693236 79.916050505743698 0.51503806187062418 0 -0.85716730853699208 I I #
point $-1 44.504531998657185 11.595740330693236 3.6203906837688891 #
point $-1 39.328514925049831 4.1637710523928995 12.23472999650113 #
straight-curve $-1 44.504531998657185 0 12.234729996501127 0 1 0 I I #
vertex $-1 $405 $514 #
point $-1 41.188115668784157 6.287190846192992 7.1982304511300992 #
vertex $-1 $409 $515 #
point $-1 41.188115668784157 9.472320536893136 7.1982304511300992 #
straight-curve $-1 -44.504531998657185 26.190673282159068 0 0 0 -1 I I #
point $-1 -44.504531998657185 -26.190673282159068 -12.234729996501127 #
straight-curve $-1 -44.504531998657185 0 -12.234729996501127 0 1 0 I I #
point $-1 -44.504531998657185 26.190673282159068 -12.234729996501127 #
straight-curve $-1 -44.504531998657185 -10.010037340666354 1.3081145816705266 0 -1 0 I I #
point $-1 -44.504531998657185 -26.190673282159068 1.3081145816705266 #
point $-1 -44.504531998657185 -13.849476080506347 1.3081145816705266 #
straight-curve $-1 -44.504531998657185 -13.849476080506347 1.8203089283843656 0 0 -1 I I #
straight-curve $-1 -44.504531998657185 -26.190673282159068 0 0 0 -1 I I #
point $-1 -44.504531998657185 15.52054894986091 -2.5932266017907883 #
straight-curve $-1 -44.504531998657185 10.427805558004994 -2.5932266017907883 0 -1 0 I I #
point $-1 -44.504531998657185 26.190673282159068 -2.5932266017907883 #
straight-curve $-1 -44.504531998657185 26.190673282159068 0 0 0 -1 I I #
straight-curve $-1 -60.400095910316018 4.1637710523928995 12.234729996501127 1 0 0 I I #
point $-1 -44.504531998657185 4.1637710523928995 12.234729996501127 #
straight-curve $-1 -39.328514925049802 3.9398778457715338 12.234729996501127 0 1 0 I I #
point $-1 -39.328514925049809 4.1637710523928995 12.234729996501127 #
point $-1 -40.845064326182253 6.287190846192992 7.2837627627966981 #
point $-1 -40.845064326182253 9.472320536893136 7.2837627627966981 #
straight-curve $-1 37.47856800526845 11.595740330693236 12.23472999650113 -1 0 0 I I #
point $-1 44.504531998657185 11.595740330693236 12.234729996501127 #
straight-curve $-1 39.328514925049831 3.9398778457715338 12.234729996501123 0 -1 0 I I #
point $-1 39.328514925049831 11.595740330693236 12.23472999650113 #
point $-1 40.845064326182253 6.287190846192992 7.283762762796691 #
point $-1 40.845064326182253 9.472320536893136 7.283762762796691 #
End-of-ACIS-data 