500 0 4 0           
7 Unknown 11 ACIS 5.0 NT 24 Thu Mar 25 18:40:35 1999 
-1 9.9999999999999995e-007 1e-010 
body $-1 $4 $-1 $5 #
body $-1 $6 $-1 $7 #
body $-1 $8 $-1 $9 #
body $-1 $10 $-1 $11 #
lump $-1 $-1 $12 $0 #
transform $-1 1 0 0 0 1 0 0 0 1 57.66655476546525 32.113373966853054 10.445985526996672 1 rotate no_reflect no_shear #
lump $-1 $-1 $13 $1 #
transform $-1 1 0 0 0 1 0 0 0 1 57.66655476546525 32.113373966853054 10.445985526996672 1 rotate no_reflect no_shear #
lump $-1 $-1 $14 $2 #
transform $-1 1 0 0 0 1 0 0 0 1 57.66655476546525 32.113373966853054 10.445985526996672 1 rotate no_reflect no_shear #
lump $-1 $-1 $15 $3 #
transform $-1 1 0 0 0 1 0 0 0 1 57.66655476546525 32.113373966853054 10.445985526996672 1 rotate no_reflect no_shear #
shell $-1 $-1 $-1 $16 $-1 $4 #
shell $-1 $-1 $-1 $17 $-1 $6 #
shell $-1 $-1 $-1 $18 $-1 $8 #
shell $-1 $-1 $-1 $19 $-1 $10 #
face $-1 $20 $21 $12 $-1 $22 forward single #
face $-1 $23 $24 $13 $-1 $25 forward single #
face $-1 $26 $27 $14 $-1 $28 reversed single #
face $-1 $29 $30 $15 $-1 $31 forward single #
face $-1 $32 $33 $12 $-1 $34 reversed single #
loop $-1 $-1 $35 $16 #
plane-surface $-1 0 0 10.445985526996672 0 0 1 1 0 0 forward_v I I I I #
face $-1 $36 $37 $13 $-1 $38 reversed single #
loop $-1 $-1 $39 $17 #
plane-surface $-1 -57.66655476546525 0 0 1 0 0 0 0 -1 forward_v I I I I #
face $-1 $40 $41 $14 $-1 $42 reversed single #
loop $-1 $-1 $43 $18 #
plane-surface $-1 46.924095209972947 -99.904475716240768 99.775978610112162 -1 0 0 0 -0.5877852598018023 0.80901698891910034 forward_v I I I I #
face $-1 $44 $45 $15 $-1 $46 forward single #
loop $-1 $47 $48 $19 #
cone-surface $-1 37.555930816848857 -28.78029453390808 7.6367185555232995 0 0.5877852598018023 -0.80901698891910034 1 0 0 1 I I 0 1 1 forward I I I I #
face $-1 $49 $50 $12 $-1 $51 reversed single #
loop $-1 $-1 $52 $20 #
plane-surface $-1 0 0 -10.445985526996672 0 0 1 1 0 0 forward_v I I I I #
coedge $-1 $53 $54 $55 $56 forward $21 $-1 #
face $-1 $57 $58 $13 $-1 $59 forward single #
loop $-1 $-1 $60 $23 #
plane-surface $-1 0 32.113373966853054 0 0 -1 0 0 0 -1 forward_v I I I I #
coedge $-1 $61 $62 $63 $64 forward $24 $-1 #
face $-1 $65 $66 $14 $-1 $67 reversed single #
loop $-1 $-1 $68 $26 #
plane-surface $-1 37.555930816848857 -32.113373966853061 6.469533614721982 0 -0.5877852598018023 0.80901698891910034 1 0 0 forward_v I I I I #
coedge $-1 $69 $70 $71 $72 reversed $27 $-1 #
face $-1 $-1 $73 $15 $-1 $74 forward single #
loop $-1 $75 $76 $29 #
cone-surface $-1 37.555930816848857 -27.889880677485095 6.4111690457277177 0 0.5877852598018023 -0.80901698891910034 0.5 0 0 1 I I -0.70710678118654746 0.70710678118654746 0.5 forward I I I I #
loop $-1 $-1 $77 $19 #
coedge $-1 $48 $48 $78 $79 reversed $30 $-1 #
face $-1 $80 $81 $12 $-1 $82 reversed single #
loop $-1 $-1 $83 $32 #
plane-surface $-1 0 -32.113373966853054 0 0 1 0 0 0 1 forward_v I I I I #
coedge $-1 $84 $85 $86 $87 forward $33 $-1 #
coedge $-1 $88 $35 $89 $90 forward $21 $-1 #
coedge $-1 $35 $88 $91 $92 forward $21 $-1 #
coedge $-1 $93 $94 $35 $56 reversed $95 $-1 #
edge $-1 $96 -32.113373966853054 $97 32.113373966853054 $55 $98 forward 7 unknown #
face $-1 $99 $100 $13 $-1 $101 reversed single #
loop $-1 $-1 $63 $36 #
plane-surface $-1 -62.05971221580284 0 -2.3503748859289533 0 0 1 1 0 0 forward_v I I I I #
coedge $-1 $102 $103 $62 $104 forward $37 $-1 #
coedge $-1 $105 $39 $106 $107 reversed $24 $-1 #
coedge $-1 $39 $105 $60 $104 reversed $24 $-1 #
coedge $-1 $108 $109 $39 $64 reversed $58 $-1 #
edge $-1 $110 -32.113373966853054 $111 32.113373966853054 $63 $112 forward 7 unknown #
face $-1 $113 $114 $14 $-1 $115 reversed single #
loop $-1 $-1 $116 $40 #
plane-surface $-1 28.187766423724767 -99.904475716240768 99.775978610112162 1 0 0 0 0.5877852598018023 -0.80901698891910034 forward_v I I I I #
coedge $-1 $117 $118 $119 $120 reversed $41 $-1 #
coedge $-1 $70 $43 $121 $122 reversed $27 $-1 #
coedge $-1 $43 $69 $117 $123 reversed $27 $-1 #
coedge $-1 $119 $124 $43 $72 forward $125 $-1 #
edge $-1 $126 17.83886389126733 $127 23.31198030411311 $71 $128 forward 7 unknown #
loop $-1 $-1 $78 $44 #
plane-surface $-1 37.555930816848857 -32.113373966853061 6.469533614721982 0 -0.5877852598018023 0.80901698891910034 1 0 0 forward_v I I I I #
loop $-1 $-1 $129 $29 #
coedge $-1 $76 $76 $77 $130 reversed $45 $-1 #
coedge $-1 $77 $77 $76 $130 forward $47 $-1 #
coedge $-1 $78 $78 $48 $79 forward $73 $-1 #
edge $-1 $131 -2.8742057229148815e-015 $131 6.2831853071795978 $78 $132 forward 7 unknown #
face $-1 $133 $134 $12 $-1 $135 reversed single #
loop $-1 $-1 $136 $49 #
plane-surface $-1 -57.66655476546525 0 0 1 0 0 0 0 -1 forward_v I I I I #
coedge $-1 $137 $91 $136 $138 forward $50 $-1 #
coedge $-1 $139 $52 $137 $140 forward $33 $-1 #
coedge $-1 $52 $139 $141 $142 forward $33 $-1 #
coedge $-1 $94 $93 $52 $87 reversed $95 $-1 #
edge $-1 $143 -32.113373966853054 $144 32.113373966853054 $86 $145 forward 7 unknown #
coedge $-1 $54 $53 $146 $147 forward $21 $-1 #
coedge $-1 $148 $149 $53 $90 reversed $134 $-1 #
edge $-1 $97 -57.66655476546525 $150 57.66655476546525 $89 $151 forward 7 unknown #
coedge $-1 $83 $152 $54 $92 reversed $50 $-1 #
edge $-1 $153 -57.66655476546525 $96 57.66655476546525 $91 $154 forward 7 unknown #
coedge $-1 $86 $55 $152 $155 forward $95 $-1 #
coedge $-1 $55 $86 $148 $156 reversed $95 $-1 #
loop $-1 $-1 $93 $133 #
vertex $-1 $56 $157 #
vertex $-1 $56 $158 #
straight-curve $-1 57.66655476546525 0 10.445985526996672 0 1 0 I I #
face $-1 $159 $160 $13 $-1 $161 reversed single #
loop $-1 $-1 $162 $57 #
plane-surface $-1 -62.05971221580284 0 -5.3503748859289537 0 0 1 1 0 0 forward_v I I I I #
coedge $-1 $163 $60 $164 $165 reversed $37 $-1 #
coedge $-1 $60 $163 $108 $166 reversed $37 $-1 #
edge $-1 $110 2.3503748859289533 $167 5.3503748859289537 $60 $168 forward 7 unknown #
coedge $-1 $62 $61 $162 $169 forward $24 $-1 #
coedge $-1 $170 $171 $61 $107 forward $172 $-1 #
edge $-1 $173 -5.3503748859289537 $111 -2.3503748859289533 $106 $174 forward 7 unknown #
coedge $-1 $175 $63 $103 $166 forward $58 $-1 #
coedge $-1 $63 $175 $170 $176 forward $58 $-1 #
vertex $-1 $104 $177 #
vertex $-1 $176 $178 #
straight-curve $-1 -57.66655476546525 0 -2.3503748859289533 0 -1 0 I I #
face $-1 $-1 $125 $14 $-1 $179 forward single #
loop $-1 $-1 $180 $65 #
plane-surface $-1 0 -32.113373966853054 0 0 1 0 0 0 1 forward_v I I I I #
coedge $-1 $181 $182 $183 $184 reversed $66 $-1 #
coedge $-1 $185 $68 $70 $123 forward $41 $-1 #
coedge $-1 $68 $185 $181 $186 forward $41 $-1 #
coedge $-1 $183 $71 $68 $120 forward $125 $-1 #
edge $-1 $127 -28.146129801548518 $187 -9.4098010153003386 $119 $188 forward 7 unknown #
coedge $-1 $189 $190 $69 $122 forward $114 $-1 #
edge $-1 $191 -43.418455690334092 $126 -39.442003778059409 $121 $192 forward 7 unknown #
edge $-1 $127 -6.7651439806699596 $191 -8.8807605448725156e-015 $70 $193 forward 7 unknown #
coedge $-1 $71 $183 $189 $194 forward $125 $-1 #
loop $-1 $-1 $183 $113 #
vertex $-1 $122 $195 #
vertex $-1 $72 $196 #
straight-curve $-1 46.924095209972947 -49.952237858120384 10.445985526996672 0 1 0 I I #
coedge $-1 $129 $129 $-1 $197 reversed $75 $-1 #
edge $-1 $198 0 $198 6.2831853071796004 $76 $199 forward 7 unknown #
vertex $-1 $79 $200 #
ellipse-curve $-1 37.555930816848857 -29.376815760430162 8.4577595708593307 0 -0.5877852598018023 0.80901698891910034 1 0 0 1 I I #
face $-1 $-1 $95 $12 $-1 $201 reversed single #
loop $-1 $-1 $148 $80 #
plane-surface $-1 0 32.113373966853054 0 0 -1 0 0 0 -1 forward_v I I I I #
coedge $-1 $146 $202 $83 $138 reversed $81 $-1 #
coedge $-1 $152 $83 $84 $140 reversed $50 $-1 #
edge $-1 $153 -10.445985526996672 $203 10.445985526996672 $136 $204 forward 7 unknown #
coedge $-1 $85 $84 $202 $205 forward $33 $-1 #
edge $-1 $144 -57.66655476546525 $203 57.66655476546525 $137 $206 forward 7 unknown #
coedge $-1 $149 $148 $85 $142 reversed $134 $-1 #
edge $-1 $207 -57.66655476546525 $143 57.66655476546525 $141 $208 forward 7 unknown #
vertex $-1 $87 $209 #
vertex $-1 $155 $210 #
straight-curve $-1 57.66655476546525 0 -10.445985526996672 0 -1 0 I I #
coedge $-1 $211 $136 $88 $147 reversed $81 $-1 #
edge $-1 $150 -32.113373966853054 $153 32.113373966853054 $146 $212 forward 7 unknown #
coedge $-1 $141 $89 $94 $156 forward $134 $-1 #
coedge $-1 $89 $141 $211 $213 reversed $134 $-1 #
vertex $-1 $90 $214 #
straight-curve $-1 0 32.113373966853054 10.445985526996672 -1 0 0 I I #
coedge $-1 $91 $137 $93 $155 reversed $50 $-1 #
vertex $-1 $147 $215 #
straight-curve $-1 0 -32.113373966853054 10.445985526996672 1 0 0 I I #
edge $-1 $96 -10.445985526996672 $144 10.445985526996672 $93 $216 forward 7 unknown #
edge $-1 $97 -10.445985526996672 $143 10.445985526996672 $94 $217 forward 7 unknown #
point $-1 57.66655476546525 -32.113373966853054 10.445985526996672 #
point $-1 57.66655476546525 32.113373966853054 10.445985526996672 #
face $-1 $-1 $172 $13 $-1 $218 reversed single #
loop $-1 $-1 $219 $99 #
plane-surface $-1 -66.45286966614043 0 -3.8503748859289537 1 0 0 0 0 -1 forward_v I I I I #
coedge $-1 $220 $164 $105 $169 reversed $100 $-1 #
coedge $-1 $103 $102 $219 $221 reversed $37 $-1 #
coedge $-1 $162 $222 $102 $165 forward $100 $-1 #
edge $-1 $223 -4.3931574503375899 $167 4.3931574503375899 $102 $224 forward 7 unknown #
edge $-1 $110 -4.3931574503375899 $225 4.3931574503375899 $103 $226 forward 7 unknown #
vertex $-1 $104 $227 #
straight-curve $-1 -57.66655476546525 32.113373966853054 0 0 0 -1 I I #
edge $-1 $173 -32.113373966853054 $167 32.113373966853054 $162 $228 forward 7 unknown #
coedge $-1 $229 $106 $109 $176 reversed $172 $-1 #
coedge $-1 $106 $229 $220 $230 reversed $172 $-1 #
loop $-1 $-1 $106 $159 #
vertex $-1 $107 $231 #
straight-curve $-1 -57.66655476546525 -32.113373966853054 0 0 0 1 I I #
coedge $-1 $109 $108 $232 $233 forward $58 $-1 #
edge $-1 $234 -4.3931574503375899 $111 4.3931574503375899 $170 $235 forward 7 unknown #
point $-1 -57.66655476546525 32.113373966853054 -2.3503748859289533 #
point $-1 -57.66655476546525 -32.113373966853054 -2.3503748859289533 #
plane-surface $-1 0 0 10.445985526996672 0 0 1 1 0 0 forward_v I I I I #
coedge $-1 $190 $189 $182 $236 forward $114 $-1 #
coedge $-1 $182 $116 $118 $186 reversed $66 $-1 #
coedge $-1 $116 $181 $180 $236 reversed $66 $-1 #
coedge $-1 $124 $119 $116 $184 forward $125 $-1 #
edge $-1 $187 -23.31198030411311 $237 -17.83886389126733 $183 $238 forward 7 unknown #
coedge $-1 $118 $117 $190 $239 reversed $41 $-1 #
edge $-1 $240 8.8807605448725156e-015 $187 6.7651439806699596 $181 $241 forward 7 unknown #
vertex $-1 $120 $242 #
straight-curve $-1 18.777965408424429 -26.64025755400727 10.445985526996672 -1 0 0 I I #
coedge $-1 $180 $121 $124 $194 reversed $114 $-1 #
coedge $-1 $121 $180 $185 $239 forward $114 $-1 #
vertex $-1 $122 $243 #
straight-curve $-1 46.924095209972947 -32.113373966853054 49.887989305056081 0 0 1 I I #
straight-curve $-1 46.924095209972947 -32.113373966853061 6.469533614721982 0 -0.80901698891910034 -0.5877852598018023 I I #
edge $-1 $237 28.187766423724767 $126 46.924095209972947 $189 $244 forward 7 unknown #
point $-1 46.924095209972947 -32.113373966853054 10.445985526996672 #
point $-1 46.924095209972947 -26.640257554007274 10.445985526996672 #
edge $-1 $245 1 $245 0 $129 $-1 forward 7 unknown #
vertex $-1 $130 $246 #
ellipse-curve $-1 37.555930816848857 -28.183773307385998 6.8156775401872682 0 -0.5877852598018023 0.80901698891910034 1 0 0 1 I I #
point $-1 38.555930816848857 -29.376815760430166 8.4577595708593307 #
plane-surface $-1 57.66655476546525 0 0 -1 0 0 0 0 1 forward_v I I I I #
coedge $-1 $136 $211 $139 $205 reversed $81 $-1 #
vertex $-1 $205 $247 #
straight-curve $-1 -57.66655476546525 -32.113373966853054 0 0 0 -1 I I #
edge $-1 $203 -32.113373966853054 $207 32.113373966853054 $202 $248 forward 7 unknown #
straight-curve $-1 0 -32.113373966853054 -10.445985526996672 -1 0 0 I I #
vertex $-1 $142 $249 #
straight-curve $-1 0 32.113373966853054 -10.445985526996672 1 0 0 I I #
point $-1 57.66655476546525 32.113373966853054 -10.445985526996672 #
point $-1 57.66655476546525 -32.113373966853054 -10.445985526996672 #
coedge $-1 $202 $146 $149 $213 forward $81 $-1 #
straight-curve $-1 -57.66655476546525 0 10.445985526996672 0 -1 0 I I #
edge $-1 $150 -10.445985526996672 $207 10.445985526996672 $149 $250 forward 7 unknown #
point $-1 -57.66655476546525 32.113373966853054 10.445985526996672 #
point $-1 -57.66655476546525 -32.113373966853054 10.445985526996672 #
straight-curve $-1 57.66655476546525 -32.113373966853054 0 0 0 -1 I I #
straight-curve $-1 57.66655476546525 32.113373966853054 0 0 0 -1 I I #
plane-surface $-1 0 -32.113373966853054 0 0 1 0 0 0 1 forward_v I I I I #
coedge $-1 $251 $232 $163 $221 forward $160 $-1 #
coedge $-1 $222 $162 $171 $230 forward $100 $-1 #
edge $-1 $225 -1.5000000000000004 $223 1.5 $163 $252 forward 7 unknown #
coedge $-1 $164 $220 $251 $253 forward $100 $-1 #
vertex $-1 $165 $254 #
straight-curve $-1 -62.05971221580284 32.113373966853054 -5.3503748859289537 1 0 0 I I #
vertex $-1 $166 $255 #
straight-curve $-1 -62.05971221580284 32.113373966853054 -2.3503748859289533 -1 0 0 I I #
point $-1 -57.66655476546525 32.113373966853054 -5.3503748859289537 #
straight-curve $-1 -57.66655476546525 0 -5.3503748859289537 0 1 0 I I #
coedge $-1 $171 $170 $256 $257 forward $172 $-1 #
edge $-1 $173 -4.3931574503375899 $258 4.3931574503375899 $171 $259 forward 7 unknown #
point $-1 -57.66655476546525 -32.113373966853054 -5.3503748859289537 #
coedge $-1 $219 $256 $175 $233 reversed $160 $-1 #
edge $-1 $225 -32.113373966853054 $234 32.113373966853054 $232 $260 forward 7 unknown #
vertex $-1 $233 $261 #
straight-curve $-1 -62.05971221580284 -32.113373966853054 -2.3503748859289533 1 0 0 I I #
edge $-1 $237 39.442003778059409 $240 43.418455690334092 $180 $262 forward 7 unknown #
vertex $-1 $194 $263 #
straight-curve $-1 28.187766423724767 -49.952237858120384 10.445985526996672 0 -1 0 I I #
edge $-1 $240 9.4098010153003386 $191 28.146129801548518 $190 $264 forward 7 unknown #
vertex $-1 $239 $265 #
straight-curve $-1 28.187766423724767 -32.113373966853061 6.469533614721982 0 0.80901698891910034 0.5877852598018023 I I #
point $-1 28.187766423724767 -26.640257554007274 10.445985526996672 #
point $-1 46.924095209972947 -32.113373966853054 6.4695336147219873 #
straight-curve $-1 0 -32.113373966853054 10.445985526996672 1 0 0 I I #
vertex $-1 $197 $266 #
point $-1 38.555930816848857 -28.183773307385998 6.8156775401872682 #
point $-1 -57.66655476546525 -32.113373966853054 -10.445985526996672 #
straight-curve $-1 -57.66655476546525 0 -10.445985526996672 0 1 0 I I #
point $-1 -57.66655476546525 32.113373966853054 -10.445985526996672 #
straight-curve $-1 -57.66655476546525 32.113373966853054 0 0 0 -1 I I #
coedge $-1 $256 $219 $222 $253 reversed $160 $-1 #
straight-curve $-1 -66.45286966614043 32.113373966853054 -3.8503748859289537 0 0 -1 I I #
edge $-1 $258 -32.113373966853054 $223 32.113373966853054 $251 $267 forward 7 unknown #
point $-1 -66.45286966614043 32.113373966853054 -5.3503748859289537 #
point $-1 -66.45286966614043 32.113373966853054 -2.3503748859289533 #
coedge $-1 $232 $251 $229 $257 reversed $160 $-1 #
edge $-1 $234 -1.5000000000000004 $258 1.5 $256 $268 forward 7 unknown #
vertex $-1 $253 $269 #
straight-curve $-1 -62.05971221580284 -32.113373966853054 -5.3503748859289537 -1 0 0 I I #
straight-curve $-1 -66.45286966614043 0 -2.3503748859289533 0 -1 0 I I #
point $-1 -66.45286966614043 -32.113373966853054 -2.3503748859289533 #
straight-curve $-1 28.187766423724767 -32.113373966853054 49.887989305056081 0 0 -1 I I #
point $-1 28.187766423724767 -32.113373966853054 10.445985526996672 #
straight-curve $-1 18.777965408424429 -32.113373966853054 6.4695336147219891 1 0 0 I I #
point $-1 28.187766423724767 -32.113373966853054 6.4695336147219873 #
point $-1 37.555930816848857 -27.595988047584193 6.0066605512681672 #
straight-curve $-1 -66.45286966614043 0 -5.3503748859289537 0 1 0 I I #
straight-curve $-1 -66.45286966614043 -32.113373966853054 -3.8503748859289537 0 0 -1 I I #
point $-1 -66.45286966614043 -32.113373966853054 -5.3503748859289537 #
End-of-ACIS-data 