500 0 6 0           
7 Unknown 11 ACIS 5.0 NT 24 Fri Mar 26 03:29:45 1999 
-1 9.9999999999999995e-007 1e-010 
body $-1 $6 $-1 $7 #
body $-1 $8 $-1 $9 #
body $-1 $10 $-1 $11 #
body $-1 $12 $-1 $13 #
body $-1 $14 $-1 $15 #
body $-1 $16 $-1 $17 #
lump $-1 $-1 $18 $0 #
transform $-1 1 0 0 0 1 0 0 0 1 49.128696554460277 31.675092510122479 6.6633018790940355 1 rotate no_reflect no_shear #
lump $-1 $-1 $19 $1 #
transform $-1 1 0 0 0 1 0 0 0 1 49.128696554460277 31.675092510122479 6.6633018790940355 1 rotate no_reflect no_shear #
lump $-1 $-1 $20 $2 #
transform $-1 1 0 0 0 1 0 0 0 1 49.128696554460277 31.675092510122479 6.6633018790940355 1 rotate no_reflect no_shear #
lump $-1 $-1 $21 $3 #
transform $-1 1 0 0 0 1 0 0 0 1 49.128696554460277 31.675092510122479 6.6633018790940355 1 rotate no_reflect no_shear #
lump $-1 $-1 $22 $4 #
transform $-1 1 0 0 0 1 0 0 0 1 49.128696554460277 31.675092510122479 6.6633018790940355 1 rotate no_reflect no_shear #
lump $-1 $-1 $23 $5 #
transform $-1 1 0 0 0 1 0 0 0 1 49.128696554460277 31.675092510122479 6.6633018790940355 1 rotate no_reflect no_shear #
shell $-1 $-1 $-1 $24 $-1 $6 #
shell $-1 $-1 $-1 $25 $-1 $8 #
shell $-1 $-1 $-1 $26 $-1 $10 #
shell $-1 $-1 $-1 $27 $-1 $12 #
shell $-1 $-1 $-1 $28 $-1 $14 #
shell $-1 $-1 $-1 $29 $-1 $16 #
face $-1 $30 $31 $18 $-1 $32 reversed single #
face $-1 $33 $34 $19 $-1 $35 forward single #
face $-1 $36 $37 $20 $-1 $38 forward single #
face $-1 $39 $40 $21 $-1 $41 reversed single #
face $-1 $42 $43 $22 $-1 $44 forward single #
face $-1 $45 $46 $23 $-1 $47 forward single #
face $-1 $48 $49 $18 $-1 $50 forward single #
loop $-1 $-1 $51 $24 #
plane-surface $-1 49.128696554460277 0 0 -1 0 0 0 0 1 forward_v I I I I #
face $-1 $52 $53 $19 $-1 $54 forward single #
loop $-1 $-1 $55 $25 #
plane-surface $-1 -49.128696554460277 0 0 1 0 0 0 0 -1 forward_v I I I I #
face $-1 $56 $57 $20 $-1 $58 reversed single #
loop $-1 $-1 $59 $26 #
plane-surface $-1 49.128696554460277 0 0 -1 0 0 0 0 1 forward_v I I I I #
face $-1 $60 $61 $21 $-1 $62 reversed single #
loop $-1 $-1 $63 $27 #
plane-surface $-1 23.399291105284007 -82.281391775804948 87.239683299972754 -1 0 0 0 -0.51503808176128008 0.85716729658548041 forward_v I I I I #
face $-1 $64 $65 $22 $-1 $66 forward single #
loop $-1 $67 $68 $28 #
cone-surface $-1 15.518514995515105 -27.814750251810569 3.4655751963555241 0 0.51503808176128008 -0.85716729658548041 1 0 0 1 I I 0 1 1 forward I I I I #
face $-1 $69 $70 $23 $-1 $71 forward single #
loop $-1 $72 $73 $29 #
cone-surface $-1 20.246980661376455 -27.814750251810569 3.4655751963555241 0 0.51503808176128008 -0.85716729658548041 1 0 0 1 I I 0 1 1 forward I I I I #
face $-1 $74 $75 $18 $-1 $76 reversed single #
loop $-1 $-1 $77 $30 #
plane-surface $-1 0 0 6.6633018790940355 0 0 1 1 0 0 forward_v I I I I #
coedge $-1 $78 $79 $80 $81 reversed $31 $-1 #
face $-1 $82 $83 $19 $-1 $84 reversed single #
loop $-1 $-1 $85 $33 #
plane-surface $-1 0 0 6.6633018790940355 0 0 1 1 0 0 forward_v I I I I #
coedge $-1 $86 $87 $88 $89 forward $34 $-1 #
face $-1 $90 $91 $20 $-1 $92 reversed single #
loop $-1 $-1 $93 $36 #
plane-surface $-1 0 -31.675092510122479 0 0 1 0 0 0 1 forward_v I I I I #
coedge $-1 $94 $95 $96 $97 forward $37 $-1 #
face $-1 $98 $99 $21 $-1 $100 reversed single #
loop $-1 $-1 $101 $39 #
plane-surface $-1 17.882747828445773 -31.675092510122489 3.0166592792625124 0 -0.51503808176128008 0.85716729658548041 1 0 0 forward_v I I I I #
coedge $-1 $102 $103 $104 $105 reversed $40 $-1 #
face $-1 $-1 $106 $22 $-1 $107 forward single #
loop $-1 $108 $109 $42 #
cone-surface $-1 15.518514995515105 -26.73140512686069 1.6625861652400395 0 0.51503808176128008 -0.85716729658548041 0.5 0 0 1 I I -0.70710678118654746 0.70710678118654746 0.5 forward I I I I #
loop $-1 $-1 $110 $28 #
coedge $-1 $68 $68 $111 $112 reversed $43 $-1 #
face $-1 $-1 $113 $23 $-1 $114 forward single #
loop $-1 $115 $116 $45 #
cone-surface $-1 20.246980661376455 -26.73140512686069 1.6625861652400395 0 0.51503808176128008 -0.85716729658548041 0.5 0 0 1 I I -0.70710678118654746 0.70710678118654746 0.5 forward I I I I #
loop $-1 $-1 $117 $29 #
coedge $-1 $73 $73 $118 $119 reversed $46 $-1 #
face $-1 $120 $121 $18 $-1 $122 reversed single #
loop $-1 $-1 $80 $48 #
plane-surface $-1 0 0 -6.6633018790940355 0 0 1 1 0 0 forward_v I I I I #
coedge $-1 $123 $124 $125 $126 forward $49 $-1 #
coedge $-1 $125 $51 $127 $128 reversed $31 $-1 #
coedge $-1 $51 $125 $129 $130 forward $31 $-1 #
coedge $-1 $131 $132 $51 $81 forward $75 $-1 #
edge $-1 $133 -31.675092510122479 $134 31.675092510122479 $51 $135 forward 7 unknown #
face $-1 $136 $137 $19 $-1 $138 reversed single #
loop $-1 $-1 $139 $52 #
plane-surface $-1 -56.51997743269655 -30.175092510122479 0 1 0 0 0 0 -1 forward_v I I I I #
coedge $-1 $140 $141 $86 $142 forward $53 $-1 #
coedge $-1 $143 $55 $85 $142 reversed $34 $-1 #
coedge $-1 $55 $143 $144 $145 reversed $34 $-1 #
coedge $-1 $146 $147 $55 $89 reversed $137 $-1 #
edge $-1 $148 -6.6633018790940355 $149 6.6633018790940355 $88 $150 forward 7 unknown #
face $-1 $151 $152 $20 $-1 $153 reversed single #
loop $-1 $-1 $154 $56 #
plane-surface $-1 0 0 -6.6633018790940355 0 0 1 1 0 0 forward_v I I I I #
coedge $-1 $155 $156 $157 $158 forward $57 $-1 #
coedge $-1 $157 $59 $154 $159 reversed $37 $-1 #
coedge $-1 $59 $157 $160 $161 reversed $37 $-1 #
coedge $-1 $162 $163 $59 $97 reversed $152 $-1 #
edge $-1 $164 -6.6633018790940355 $165 6.6633018790940355 $96 $166 forward 7 unknown #
face $-1 $167 $168 $21 $-1 $169 forward single #
loop $-1 $-1 $170 $60 #
plane-surface $-1 12.366204551607538 -82.281391775804948 87.239683299972754 1 0 0 0 0.51503808176128008 -0.85716729658548041 forward_v I I I I #
coedge $-1 $171 $172 $173 $174 reversed $61 $-1 #
coedge $-1 $103 $63 $175 $176 reversed $40 $-1 #
coedge $-1 $63 $102 $171 $177 reversed $40 $-1 #
coedge $-1 $173 $178 $63 $105 forward $168 $-1 #
edge $-1 $179 9.4656033777799955 $180 15.5346357262653 $104 $181 forward 7 unknown #
loop $-1 $-1 $111 $64 #
plane-surface $-1 17.882747828445773 -31.675092510122489 3.0166592792625124 0 -0.51503808176128008 0.85716729658548041 1 0 0 forward_v I I I I #
loop $-1 $-1 $182 $42 #
coedge $-1 $109 $109 $110 $183 reversed $65 $-1 #
coedge $-1 $110 $110 $109 $183 forward $67 $-1 #
coedge $-1 $111 $111 $68 $112 forward $106 $-1 #
edge $-1 $184 -1.2285913935065173e-015 $184 6.2831853071795996 $111 $185 forward 7 unknown #
loop $-1 $-1 $118 $69 #
plane-surface $-1 17.882747828445773 -31.675092510122489 3.0166592792625124 0 -0.51503808176128008 0.85716729658548041 1 0 0 forward_v I I I I #
loop $-1 $-1 $186 $45 #
coedge $-1 $116 $116 $117 $187 reversed $70 $-1 #
coedge $-1 $117 $117 $116 $187 forward $72 $-1 #
coedge $-1 $118 $118 $73 $119 forward $113 $-1 #
edge $-1 $188 -1.2285913935065173e-015 $188 6.2831853071795996 $118 $189 forward 7 unknown #
face $-1 $190 $191 $18 $-1 $192 reversed single #
loop $-1 $-1 $193 $74 #
plane-surface $-1 0 -31.675092510122479 0 0 1 0 0 0 1 forward_v I I I I #
coedge $-1 $194 $77 $195 $196 forward $49 $-1 #
coedge $-1 $77 $194 $197 $198 forward $49 $-1 #
coedge $-1 $79 $78 $77 $126 reversed $31 $-1 #
edge $-1 $199 -31.675092510122479 $200 31.675092510122479 $125 $201 forward 7 unknown #
coedge $-1 $202 $195 $78 $128 forward $203 $-1 #
edge $-1 $200 -6.6633018790940355 $133 6.6633018790940355 $78 $204 forward 7 unknown #
coedge $-1 $197 $205 $79 $130 reversed $121 $-1 #
edge $-1 $199 -6.6633018790940355 $134 6.6633018790940355 $79 $206 forward 7 unknown #
coedge $-1 $207 $80 $205 $208 forward $75 $-1 #
coedge $-1 $80 $207 $202 $209 forward $75 $-1 #
vertex $-1 $81 $210 #
vertex $-1 $130 $211 #
straight-curve $-1 49.128696554460277 0 -6.6633018790940355 0 -1 0 I I #
face $-1 $212 $213 $19 $-1 $214 reversed single #
loop $-1 $-1 $88 $82 #
plane-surface $-1 -52.824336993578413 -28.675092510122479 0 0 -1 0 0 0 -1 forward_v I I I I #
coedge $-1 $215 $216 $217 $218 forward $83 $-1 #
coedge $-1 $219 $85 $147 $220 forward $53 $-1 #
coedge $-1 $85 $219 $221 $222 forward $53 $-1 #
edge $-1 $223 -31.675092510122479 $149 -28.675092510122479 $85 $224 forward 7 unknown #
coedge $-1 $87 $86 $225 $226 reversed $34 $-1 #
coedge $-1 $227 $228 $87 $145 forward $213 $-1 #
edge $-1 $148 28.675092510122479 $229 31.675092510122479 $144 $230 forward 7 unknown #
coedge $-1 $217 $88 $228 $231 reversed $137 $-1 #
coedge $-1 $88 $217 $140 $220 reversed $137 $-1 #
vertex $-1 $145 $232 #
vertex $-1 $220 $233 #
straight-curve $-1 -49.128696554460277 -28.675092510122479 0 0 0 1 I I #
face $-1 $234 $235 $20 $-1 $236 reversed single #
loop $-1 $-1 $237 $90 #
plane-surface $-1 52.824336993578413 -28.675092510122479 0 0 -1 0 0 0 -1 forward_v I I I I #
coedge $-1 $238 $239 $94 $159 forward $91 $-1 #
coedge $-1 $240 $93 $239 $241 reversed $57 $-1 #
coedge $-1 $93 $240 $242 $243 reversed $57 $-1 #
coedge $-1 $95 $94 $93 $158 reversed $37 $-1 #
edge $-1 $244 -6.6633018790940355 $245 6.6633018790940355 $93 $246 forward 7 unknown #
edge $-1 $245 -31.675092510122479 $165 -28.675092510122479 $154 $247 forward 7 unknown #
coedge $-1 $242 $248 $95 $161 forward $249 $-1 #
edge $-1 $164 28.675092510122479 $244 31.675092510122479 $160 $250 forward 7 unknown #
coedge $-1 $237 $96 $248 $251 reversed $152 $-1 #
coedge $-1 $96 $237 $238 $252 reversed $152 $-1 #
vertex $-1 $161 $253 #
vertex $-1 $252 $254 #
straight-curve $-1 49.128696554460277 -28.675092510122479 0 0 0 -1 I I #
face $-1 $-1 $255 $21 $-1 $256 reversed single #
loop $-1 $-1 $104 $98 #
plane-surface $-1 0 0 6.6633018790940355 0 0 1 1 0 0 forward_v I I I I #
coedge $-1 $257 $258 $259 $260 reversed $99 $-1 #
coedge $-1 $261 $101 $103 $177 forward $61 $-1 #
coedge $-1 $101 $261 $257 $262 forward $61 $-1 #
coedge $-1 $259 $104 $101 $174 forward $168 $-1 #
edge $-1 $180 -14.457917191061121 $263 -3.4248306373846518 $173 $264 forward 7 unknown #
coedge $-1 $265 $266 $102 $176 forward $255 $-1 #
edge $-1 $267 -40.603182370723857 $179 -36.956539770892341 $175 $268 forward 7 unknown #
edge $-1 $180 -7.0803358605271818 $267 -1.2337929905607871e-014 $103 $269 forward 7 unknown #
coedge $-1 $104 $259 $265 $270 forward $168 $-1 #
vertex $-1 $105 $271 #
vertex $-1 $105 $272 #
straight-curve $-1 23.399291105284007 -41.140695887902474 6.6633018790940355 0 1 0 I I #
coedge $-1 $182 $182 $-1 $273 reversed $108 $-1 #
edge $-1 $274 0 $274 6.2831853071796004 $109 $275 forward 7 unknown #
vertex $-1 $112 $276 #
ellipse-curve $-1 15.518514995515105 -28.640576335879818 4.8399805791782819 0 -0.51503808176128008 0.85716729658548041 1 0 0 1 I I #
coedge $-1 $186 $186 $-1 $277 reversed $115 $-1 #
edge $-1 $278 0 $278 6.2831853071796004 $116 $279 forward 7 unknown #
vertex $-1 $119 $280 #
ellipse-curve $-1 20.246980661376455 -28.640576335879818 4.8399805791782819 0 -0.51503808176128008 0.85716729658548041 1 0 0 1 I I #
face $-1 $-1 $203 $18 $-1 $281 reversed single #
loop $-1 $-1 $282 $120 #
plane-surface $-1 -49.128696554460277 0 0 1 0 0 0 0 -1 forward_v I I I I #
coedge $-1 $205 $197 $283 $284 forward $121 $-1 #
coedge $-1 $124 $123 $282 $285 forward $49 $-1 #
coedge $-1 $127 $286 $123 $196 reversed $203 $-1 #
edge $-1 $200 -49.128696554460277 $287 49.128696554460277 $195 $288 forward 7 unknown #
coedge $-1 $193 $129 $124 $198 reversed $121 $-1 #
edge $-1 $289 -49.128696554460277 $199 49.128696554460277 $197 $290 forward 7 unknown #
vertex $-1 $126 $291 #
vertex $-1 $126 $292 #
straight-curve $-1 49.128696554460277 0 6.6633018790940355 0 1 0 I I #
coedge $-1 $286 $127 $132 $209 reversed $203 $-1 #
loop $-1 $-1 $127 $190 #
straight-curve $-1 49.128696554460277 31.675092510122479 0 0 0 -1 I I #
coedge $-1 $129 $193 $131 $208 reversed $121 $-1 #
straight-curve $-1 49.128696554460277 -31.675092510122479 0 0 0 -1 I I #
coedge $-1 $132 $131 $293 $294 forward $75 $-1 #
edge $-1 $134 -49.128696554460277 $295 49.128696554460277 $205 $296 forward 7 unknown #
edge $-1 $297 -49.128696554460277 $133 49.128696554460277 $202 $298 forward 7 unknown #
point $-1 49.128696554460277 31.675092510122479 -6.6633018790940355 #
point $-1 49.128696554460277 -31.675092510122479 -6.6633018790940355 #
face $-1 $-1 $299 $19 $-1 $300 reversed single #
loop $-1 $-1 $144 $136 #
plane-surface $-1 0 0 -6.6633018790940355 0 0 1 1 0 0 forward_v I I I I #
coedge $-1 $301 $139 $302 $303 reversed $83 $-1 #
coedge $-1 $139 $301 $219 $304 reversed $83 $-1 #
coedge $-1 $147 $146 $139 $218 reversed $137 $-1 #
edge $-1 $305 -6.6633018790940355 $306 6.6633018790940355 $217 $307 forward 7 unknown #
coedge $-1 $141 $140 $216 $304 forward $53 $-1 #
edge $-1 $149 -3.6956404391181366 $305 3.6956404391181366 $147 $308 forward 7 unknown #
coedge $-1 $309 $225 $141 $222 reversed $299 $-1 #
edge $-1 $310 -56.51997743269655 $223 -49.128696554460277 $221 $311 forward 7 unknown #
vertex $-1 $226 $312 #
straight-curve $-1 -49.128696554460277 0 6.6633018790940355 0 1 0 I I #
coedge $-1 $221 $313 $143 $226 forward $299 $-1 #
edge $-1 $229 -6.6633018790940355 $223 6.6633018790940355 $225 $314 forward 7 unknown #
coedge $-1 $302 $144 $313 $315 forward $213 $-1 #
coedge $-1 $144 $302 $146 $231 forward $213 $-1 #
vertex $-1 $315 $316 #
straight-curve $-1 -49.128696554460277 0 -6.6633018790940355 0 -1 0 I I #
edge $-1 $306 -3.6956404391181366 $148 3.6956404391181366 $146 $317 forward 7 unknown #
point $-1 -49.128696554460277 -28.675092510122479 -6.6633018790940355 #
point $-1 -49.128696554460277 -28.675092510122479 6.6633018790940355 #
face $-1 $-1 $249 $20 $-1 $318 forward single #
loop $-1 $-1 $319 $151 #
plane-surface $-1 56.51997743269655 -30.175092510122479 0 -1 0 0 0 0 1 forward_v I I I I #
coedge $-1 $163 $162 $320 $321 forward $152 $-1 #
coedge $-1 $322 $154 $163 $252 forward $91 $-1 #
coedge $-1 $154 $322 $155 $241 forward $91 $-1 #
coedge $-1 $156 $155 $319 $323 reversed $57 $-1 #
edge $-1 $324 -3.6956404391181366 $245 3.6956404391181366 $155 $325 forward 7 unknown #
coedge $-1 $326 $160 $156 $243 forward $249 $-1 #
edge $-1 $244 -3.6956404391181366 $327 3.6956404391181366 $156 $328 forward 7 unknown #
vertex $-1 $243 $329 #
vertex $-1 $159 $330 #
straight-curve $-1 49.128696554460277 -31.675092510122479 0 0 0 -1 I I #
straight-curve $-1 49.128696554460277 0 -6.6633018790940355 0 1 0 I I #
coedge $-1 $160 $326 $162 $251 forward $249 $-1 #
loop $-1 $-1 $160 $234 #
straight-curve $-1 49.128696554460277 0 6.6633018790940355 0 -1 0 I I #
edge $-1 $331 -3.6956404391181366 $164 3.6956404391181366 $162 $332 forward 7 unknown #
edge $-1 $165 -3.6956404391181366 $333 3.6956404391181366 $163 $334 forward 7 unknown #
point $-1 49.128696554460277 -28.675092510122479 6.6633018790940355 #
point $-1 49.128696554460277 -28.675092510122479 -6.6633018790940355 #
loop $-1 $-1 $175 $167 #
plane-surface $-1 0 -31.675092510122479 0 0 1 0 0 0 1 forward_v I I I I #
coedge $-1 $258 $170 $172 $262 reversed $99 $-1 #
coedge $-1 $170 $257 $335 $336 reversed $99 $-1 #
coedge $-1 $178 $173 $170 $260 forward $168 $-1 #
edge $-1 $263 -15.5346357262653 $337 -9.4656033777799955 $259 $338 forward 7 unknown #
coedge $-1 $172 $171 $266 $339 reversed $61 $-1 #
edge $-1 $340 1.2337929905607871e-014 $263 7.0803358605271818 $257 $341 forward 7 unknown #
vertex $-1 $174 $342 #
straight-curve $-1 8.9413739142228863 -25.606060161637171 6.6633018790940346 -1 0 0 I I #
coedge $-1 $335 $175 $178 $270 reversed $255 $-1 #
coedge $-1 $175 $335 $261 $339 forward $255 $-1 #
vertex $-1 $176 $343 #
straight-curve $-1 23.399291105284007 -31.675092510122479 43.619841649986377 0 0 1 I I #
straight-curve $-1 23.399291105284007 -31.675092510122489 3.0166592792625124 0 -0.85716729658548041 -0.51503808176128008 I I #
edge $-1 $337 -40.458132441970875 $179 -29.425045888294406 $265 $344 forward 7 unknown #
point $-1 23.399291105284007 -31.675092510122479 6.6633018790940355 #
point $-1 23.399291105284007 -25.606060161637174 6.6633018790940355 #
edge $-1 $345 1 $345 0 $182 $-1 forward 7 unknown #
vertex $-1 $183 $346 #
ellipse-curve $-1 15.518514995515105 -26.988924167741331 2.0911698135327796 0 -0.51503808176128008 0.85716729658548041 1 0 0 1 I I #
point $-1 16.518514995515105 -28.64057633587981 4.8399805791782677 #
edge $-1 $347 1 $347 0 $186 $-1 forward 7 unknown #
vertex $-1 $187 $348 #
ellipse-curve $-1 20.246980661376455 -26.988924167741331 2.0911698135327796 0 -0.51503808176128008 0.85716729658548041 1 0 0 1 I I #
point $-1 21.246980661376455 -28.64057633587981 4.8399805791782677 #
plane-surface $-1 0 31.675092510122479 0 0 -1 0 0 0 -1 forward_v I I I I #
coedge $-1 $349 $283 $194 $285 reversed $191 $-1 #
coedge $-1 $282 $293 $193 $284 reversed $191 $-1 #
edge $-1 $289 -6.6633018790940355 $295 6.6633018790940355 $283 $350 forward 7 unknown #
edge $-1 $287 -31.675092510122479 $289 31.675092510122479 $282 $351 forward 7 unknown #
coedge $-1 $195 $202 $349 $352 reversed $203 $-1 #
vertex $-1 $196 $353 #
straight-curve $-1 0 31.675092510122479 6.6633018790940355 -1 0 0 I I #
vertex $-1 $285 $354 #
straight-curve $-1 0 -31.675092510122479 6.6633018790940355 1 0 0 I I #
point $-1 49.128696554460277 -31.675092510122479 6.6633018790940355 #
point $-1 49.128696554460277 31.675092510122479 6.6633018790940355 #
coedge $-1 $283 $349 $207 $294 reversed $191 $-1 #
edge $-1 $295 -31.675092510122479 $297 31.675092510122479 $293 $355 forward 7 unknown #
vertex $-1 $294 $356 #
straight-curve $-1 0 -31.675092510122479 -6.6633018790940355 -1 0 0 I I #
vertex $-1 $209 $357 #
straight-curve $-1 0 31.675092510122479 -6.6633018790940355 1 0 0 I I #
loop $-1 $-1 $225 $212 #
plane-surface $-1 0 -31.675092510122479 0 0 1 0 0 0 1 forward_v I I I I #
coedge $-1 $216 $215 $309 $358 reversed $83 $-1 #
coedge $-1 $228 $227 $215 $303 forward $213 $-1 #
edge $-1 $359 -1.5 $306 1.5 $215 $360 forward 7 unknown #
edge $-1 $305 -1.5 $310 1.5 $216 $361 forward 7 unknown #
vertex $-1 $220 $362 #
vertex $-1 $231 $363 #
straight-curve $-1 -56.51997743269655 -28.675092510122479 0 0 0 -1 I I #
straight-curve $-1 -52.824336993578413 -28.675092510122479 6.6633018790940355 -1 0 0 I I #
coedge $-1 $313 $221 $301 $358 forward $299 $-1 #
vertex $-1 $304 $364 #
straight-curve $-1 0 -31.675092510122479 6.6633018790940355 1 0 0 I I #
point $-1 -49.128696554460277 -31.675092510122479 6.6633018790940355 #
coedge $-1 $225 $309 $227 $315 reversed $299 $-1 #
straight-curve $-1 -49.128696554460277 -31.675092510122479 0 0 0 1 I I #
edge $-1 $229 -3.6956404391181366 $359 3.6956404391181366 $313 $365 forward 7 unknown #
point $-1 -49.128696554460277 -31.675092510122479 -6.6633018790940355 #
straight-curve $-1 -52.824336993578413 -28.675092510122479 -6.6633018790940355 1 0 0 I I #
plane-surface $-1 0 0 6.6633018790940355 0 0 1 1 0 0 forward_v I I I I #
coedge $-1 $366 $367 $240 $323 forward $235 $-1 #
coedge $-1 $367 $366 $237 $321 reversed $235 $-1 #
edge $-1 $331 -6.6633018790940355 $333 6.6633018790940355 $320 $368 forward 7 unknown #
coedge $-1 $239 $238 $366 $369 forward $91 $-1 #
edge $-1 $327 -6.6633018790940355 $324 6.6633018790940355 $319 $370 forward 7 unknown #
vertex $-1 $323 $371 #
straight-curve $-1 52.824336993578413 -31.675092510122479 -6.6633018790940355 -1 0 0 I I #
coedge $-1 $248 $242 $367 $372 forward $249 $-1 #
vertex $-1 $372 $373 #
straight-curve $-1 52.824336993578413 -31.675092510122479 6.6633018790940355 1 0 0 I I #
point $-1 49.128696554460277 -31.675092510122479 6.6633018790940355 #
point $-1 49.128696554460277 -31.675092510122479 -6.6633018790940355 #
vertex $-1 $372 $374 #
straight-curve $-1 52.824336993578413 -28.675092510122479 6.6633018790940355 -1 0 0 I I #
vertex $-1 $369 $375 #
straight-curve $-1 52.824336993578413 -28.675092510122479 -6.6633018790940355 1 0 0 I I #
coedge $-1 $266 $265 $258 $336 forward $255 $-1 #
edge $-1 $337 36.956539770892341 $340 40.603182370723857 $335 $376 forward 7 unknown #
vertex $-1 $270 $377 #
straight-curve $-1 12.366204551607538 -41.140695887902474 6.6633018790940355 0 -1 0 I I #
edge $-1 $340 3.4248306373846518 $267 14.457917191061121 $266 $378 forward 7 unknown #
vertex $-1 $339 $379 #
straight-curve $-1 12.366204551607538 -31.675092510122489 3.0166592792625124 0 0.85716729658548041 0.51503808176128008 I I #
point $-1 12.366204551607538 -25.606060161637174 6.6633018790940355 #
point $-1 23.399291105284007 -31.675092510122479 3.0166592792625186 #
straight-curve $-1 52.824336993578413 -31.675092510122479 6.6633018790940355 1 0 0 I I #
vertex $-1 $273 $380 #
point $-1 16.518514995515105 -26.988924167741331 2.0911698135327796 #
vertex $-1 $277 $381 #
point $-1 21.246980661376455 -26.988924167741331 2.0911698135327796 #
coedge $-1 $293 $282 $286 $352 forward $191 $-1 #
straight-curve $-1 -49.128696554460277 -31.675092510122479 0 0 0 -1 I I #
straight-curve $-1 -49.128696554460277 0 6.6633018790940355 0 -1 0 I I #
edge $-1 $287 -6.6633018790940355 $297 6.6633018790940355 $286 $382 forward 7 unknown #
point $-1 -49.128696554460277 31.675092510122479 6.6633018790940355 #
point $-1 -49.128696554460277 -31.675092510122479 6.6633018790940355 #
straight-curve $-1 -49.128696554460277 0 -6.6633018790940355 0 1 0 I I #
point $-1 -49.128696554460277 -31.675092510122479 -6.6633018790940355 #
point $-1 -49.128696554460277 31.675092510122479 -6.6633018790940355 #
edge $-1 $310 -6.6633018790940355 $359 6.6633018790940355 $301 $383 forward 7 unknown #
vertex $-1 $303 $384 #
straight-curve $-1 -56.51997743269655 -30.175092510122479 -6.6633018790940355 0 1 0 I I #
straight-curve $-1 -56.51997743269655 -30.175092510122479 6.6633018790940355 0 -1 0 I I #
point $-1 -56.51997743269655 -28.675092510122479 6.6633018790940355 #
point $-1 -56.51997743269655 -28.675092510122479 -6.6633018790940355 #
point $-1 -56.51997743269655 -31.675092510122479 6.6633018790940355 #
straight-curve $-1 -52.824336993578413 -31.675092510122479 -6.6633018790940355 -1 0 0 I I #
coedge $-1 $320 $319 $322 $369 reversed $235 $-1 #
coedge $-1 $319 $320 $326 $372 reversed $235 $-1 #
straight-curve $-1 56.51997743269655 -28.675092510122479 0 0 0 -1 I I #
edge $-1 $333 -1.5 $324 1.5 $366 $385 forward 7 unknown #
straight-curve $-1 56.51997743269655 -31.675092510122479 0 0 0 -1 I I #
point $-1 56.51997743269655 -31.675092510122479 -6.6633018790940355 #
edge $-1 $327 -1.5 $331 1.5 $367 $386 forward 7 unknown #
point $-1 56.51997743269655 -31.675092510122479 6.6633018790940355 #
point $-1 56.51997743269655 -28.675092510122479 6.6633018790940355 #
point $-1 56.51997743269655 -28.675092510122479 -6.6633018790940355 #
straight-curve $-1 12.366204551607538 -31.675092510122479 43.619841649986377 0 0 -1 I I #
point $-1 12.366204551607538 -31.675092510122479 6.6633018790940355 #
straight-curve $-1 8.9413739142228863 -31.675092510122479 3.0166592792625173 1 0 0 I I #
point $-1 12.366204551607538 -31.675092510122479 3.0166592792625186 #
point $-1 15.518514995515105 -26.473886085980048 1.2340025169472995 #
point $-1 20.246980661376455 -26.473886085980048 1.2340025169472995 #
straight-curve $-1 -49.128696554460277 31.675092510122479 0 0 0 -1 I I #
straight-curve $-1 -56.51997743269655 -31.675092510122479 0 0 0 -1 I I #
point $-1 -56.51997743269655 -31.675092510122479 -6.6633018790940355 #
straight-curve $-1 56.51997743269655 -30.175092510122479 -6.6633018790940355 0 -1 0 I I #
straight-curve $-1 56.51997743269655 -30.175092510122479 6.6633018790940355 0 1 0 I I #
End-of-ACIS-data 