500 0 9 0           
7 Unknown 11 ACIS 5.0 NT 24 Fri Mar 26 17:19:46 1999 
-1 9.9999999999999995e-007 1e-010 
body $-1 $9 $-1 $10 #
body $-1 $11 $-1 $12 #
body $-1 $13 $-1 $14 #
body $-1 $15 $-1 $16 #
body $-1 $17 $-1 $18 #
body $-1 $19 $-1 $20 #
body $-1 $21 $-1 $22 #
body $-1 $23 $-1 $24 #
body $-1 $25 $-1 $26 #
lump $-1 $-1 $27 $0 #
transform $-1 1 0 0 0 1 0 0 0 1 73.135776848658708 32.498515324855049 14.471444963071383 1 rotate no_reflect no_shear #
lump $-1 $-1 $28 $1 #
transform $-1 1 0 0 0 1 0 0 0 1 73.135776848658708 32.498515324855049 14.471444963071383 1 rotate no_reflect no_shear #
lump $-1 $-1 $29 $2 #
transform $-1 1 0 0 0 1 0 0 0 1 73.135776848658708 32.498515324855049 14.471444963071383 1 rotate no_reflect no_shear #
lump $-1 $-1 $30 $3 #
transform $-1 1 0 0 0 1 0 0 0 1 73.135776848658708 32.498515324855049 14.471444963071383 1 rotate no_reflect no_shear #
lump $-1 $-1 $31 $4 #
transform $-1 1 0 0 0 1 0 0 0 1 73.135776848658708 32.498515324855049 14.471444963071383 1 rotate no_reflect no_shear #
lump $-1 $-1 $32 $5 #
transform $-1 1 0 0 0 1 0 0 0 1 73.135776848658708 32.498515324855049 14.471444963071383 1 rotate no_reflect no_shear #
lump $-1 $-1 $33 $6 #
transform $-1 1 0 0 0 1 0 0 0 1 73.135776848658708 32.498515324855049 14.471444963071383 1 rotate no_reflect no_shear #
lump $-1 $-1 $34 $7 #
transform $-1 1 0 0 0 1 0 0 0 1 73.135776848658708 32.498515324855049 14.471444963071383 1 rotate no_reflect no_shear #
lump $-1 $-1 $35 $8 #
transform $-1 1 0 0 0 1 0 0 0 1 73.135776848658708 32.498515324855049 14.471444963071383 1 rotate no_reflect no_shear #
shell $-1 $-1 $-1 $36 $-1 $9 #
shell $-1 $-1 $-1 $37 $-1 $11 #
shell $-1 $-1 $-1 $38 $-1 $13 #
shell $-1 $-1 $-1 $39 $-1 $15 #
shell $-1 $-1 $-1 $40 $-1 $17 #
shell $-1 $-1 $-1 $41 $-1 $19 #
shell $-1 $-1 $-1 $42 $-1 $21 #
shell $-1 $-1 $-1 $43 $-1 $23 #
shell $-1 $-1 $-1 $44 $-1 $25 #
face $-1 $45 $46 $27 $-1 $47 reversed single #
face $-1 $48 $49 $28 $-1 $50 forward single #
face $-1 $51 $52 $29 $-1 $53 forward single #
face $-1 $54 $55 $30 $-1 $56 reversed single #
face $-1 $57 $58 $31 $-1 $59 forward single #
face $-1 $60 $61 $32 $-1 $62 forward single #
face $-1 $63 $64 $33 $-1 $65 reversed single #
face $-1 $66 $67 $34 $-1 $68 forward single #
face $-1 $69 $70 $35 $-1 $71 forward single #
face $-1 $72 $73 $27 $-1 $74 forward single #
loop $-1 $-1 $75 $36 #
plane-surface $-1 0 -32.498515324855049 0 0 1 0 0 0 1 forward_v I I I I #
face $-1 $76 $77 $28 $-1 $78 forward single #
loop $-1 $-1 $79 $37 #
plane-surface $-1 0 -32.498515324855049 0 0 1 0 0 0 1 forward_v I I I I #
face $-1 $80 $81 $29 $-1 $82 forward single #
loop $-1 $-1 $83 $38 #
plane-surface $-1 0 32.498515324855049 0 0 -1 0 0 0 -1 forward_v I I I I #
face $-1 $84 $85 $30 $-1 $86 reversed single #
loop $-1 $-1 $87 $39 #
plane-surface $-1 119.66897838415139 17.993866630312656 211.13592680599734 0 -1 0 -0.84804810408105047 0 -0.52991925155115449 forward_v I I I I #
face $-1 $88 $89 $31 $-1 $90 forward single #
loop $-1 $91 $92 $40 #
cone-surface $-1 71.183027408904394 13.498295566656758 11.760013232505491 -0.84804810408105047 0 -0.52991925155115449 0.26495962577557725 0 -0.42402405204052523 1 I I 0 1 0.5 forward I I I I #
face $-1 $93 $94 $32 $-1 $95 forward single #
loop $-1 $96 $97 $41 #
cone-surface $-1 71.183027408904394 16.19563820485029 11.760013232505491 -0.84804810408105047 0 -0.52991925155115449 0.26495962577557725 0 -0.42402405204052523 1 I I 0 1 0.5 forward I I I I #
face $-1 $98 $99 $33 $-1 $100 reversed single #
loop $-1 $-1 $101 $42 #
plane-surface $-1 -171.01055144432479 -3.583480436059796 119.80829708999974 0 1 0 -0.66913061440640931 0 0.74314481823134659 forward_v I I I I #
face $-1 $102 $103 $34 $-1 $104 forward single #
loop $-1 $105 $106 $43 #
cone-surface $-1 -70.141718188870854 -1.379879590726599 11.538897009458664 0.66913061440640931 0 -0.74314481823134659 0.74314481823134659 0 0.66913061440640931 1 I I 0 1 1 forward I I I I #
face $-1 $107 $108 $35 $-1 $109 forward single #
loop $-1 $110 $111 $44 #
cone-surface $-1 -70.141718188870854 1.9255216772732027 11.538897009458664 0.66913061440640931 0 -0.74314481823134659 0.74314481823134659 0 0.66913061440640931 1 I I 0 1 1 forward I I I I #
face $-1 $112 $113 $27 $-1 $114 reversed single #
loop $-1 $-1 $115 $45 #
plane-surface $-1 0 0 14.471444963071383 0 0 1 1 0 0 forward_v I I I I #
coedge $-1 $116 $117 $118 $119 reversed $46 $-1 #
face $-1 $120 $121 $28 $-1 $122 reversed single #
loop $-1 $-1 $123 $48 #
plane-surface $-1 0 0 14.471444963071383 0 0 1 1 0 0 forward_v I I I I #
coedge $-1 $124 $125 $126 $127 forward $49 $-1 #
face $-1 $128 $129 $29 $-1 $130 reversed single #
loop $-1 $-1 $131 $51 #
plane-surface $-1 0 0 14.471444963071383 0 0 1 1 0 0 forward_v I I I I #
coedge $-1 $132 $133 $134 $135 forward $52 $-1 #
face $-1 $136 $137 $30 $-1 $138 reversed single #
loop $-1 $-1 $139 $54 #
plane-surface $-1 -4.3763354098482097 14.846966885753531 133.62381454749038 0.84804810408105047 0 0.52991925155115449 0.52991925155115449 0 -0.84804810408105047 forward_v I I I I #
coedge $-1 $140 $141 $142 $143 reversed $55 $-1 #
face $-1 $-1 $144 $31 $-1 $145 forward single #
loop $-1 $146 $147 $57 #
cone-surface $-1 70.546991330843611 13.498295566656758 11.362573793842126 -0.84804810408105047 0 -0.52991925155115449 0.13247981288778862 0 -0.21201202602026262 1 I I -0.70710678118654746 0.70710678118654746 0.25 forward I I I I #
loop $-1 $-1 $148 $40 #
coedge $-1 $92 $92 $149 $150 reversed $58 $-1 #
face $-1 $-1 $151 $32 $-1 $152 forward single #
loop $-1 $153 $154 $60 #
cone-surface $-1 70.546991330843611 16.19563820485029 11.362573793842126 -0.84804810408105047 0 -0.52991925155115449 0.13247981288778862 0 -0.21201202602026262 1 I I -0.70710678118654746 0.70710678118654746 0.25 forward I I I I #
loop $-1 $-1 $155 $41 #
coedge $-1 $97 $97 $156 $157 reversed $61 $-1 #
face $-1 $158 $159 $33 $-1 $160 reversed single #
loop $-1 $-1 $161 $63 #
plane-surface $-1 -73.135776848658693 0.27282104327330359 11.107349905190134 -0.66913061440640931 0 0.74314481823134659 0.74314481823134659 0 0.66913061440640931 forward_v I I I I #
coedge $-1 $162 $163 $164 $165 reversed $64 $-1 #
face $-1 $-1 $166 $34 $-1 $167 forward single #
loop $-1 $168 $169 $66 #
cone-surface $-1 -68.681197217376337 -1.379879590726599 9.9168241756708841 0.66913061440640931 0 -0.74314481823134659 0.3715724091156733 0 0.33456530720320465 1 I I -0.70710678118654746 0.70710678118654746 0.5 forward I I I I #
loop $-1 $-1 $170 $43 #
coedge $-1 $106 $106 $171 $172 reversed $67 $-1 #
face $-1 $-1 $173 $35 $-1 $174 forward single #
loop $-1 $175 $176 $69 #
cone-surface $-1 -68.681197217376337 1.9255216772732027 9.9168241756708841 0.66913061440640931 0 -0.74314481823134659 0.3715724091156733 0 0.33456530720320465 1 I I -0.70710678118654746 0.70710678118654746 0.5 forward I I I I #
loop $-1 $-1 $177 $44 #
coedge $-1 $111 $111 $178 $179 reversed $70 $-1 #
face $-1 $180 $181 $27 $-1 $182 reversed single #
loop $-1 $-1 $183 $72 #
plane-surface $-1 0 0 -14.471444963071383 0 0 1 1 0 0 forward_v I I I I #
coedge $-1 $184 $185 $186 $187 forward $73 $-1 #
coedge $-1 $188 $75 $189 $190 reversed $46 $-1 #
coedge $-1 $75 $188 $191 $192 forward $46 $-1 #
coedge $-1 $193 $183 $75 $119 forward $113 $-1 #
edge $-1 $194 -73.135776848658708 $195 73.135776848658708 $75 $196 forward 7 unknown #
face $-1 $197 $198 $28 $-1 $199 reversed single #
loop $-1 $-1 $200 $76 #
plane-surface $-1 -73.135776848658708 0 0 1 0 0 0 0 -1 forward_v I I I I #
coedge $-1 $201 $202 $125 $203 forward $77 $-1 #
coedge $-1 $204 $79 $205 $206 reversed $49 $-1 #
coedge $-1 $79 $204 $123 $203 reversed $49 $-1 #
coedge $-1 $207 $208 $79 $127 reversed $209 $-1 #
edge $-1 $210 -14.471444963071383 $211 14.471444963071383 $126 $212 forward 7 unknown #
face $-1 $213 $214 $29 $-1 $215 reversed single #
loop $-1 $-1 $216 $80 #
plane-surface $-1 -69.722861865867273 44.413336872294053 0 0 -1 0 0 0 -1 forward_v I I I I #
coedge $-1 $217 $218 $132 $219 forward $81 $-1 #
coedge $-1 $220 $83 $131 $219 reversed $52 $-1 #
coedge $-1 $83 $220 $221 $222 reversed $52 $-1 #
coedge $-1 $223 $224 $83 $135 reversed $214 $-1 #
edge $-1 $225 -14.471444963071383 $226 14.471444963071383 $134 $227 forward 7 unknown #
face $-1 $228 $229 $30 $-1 $230 forward single #
loop $-1 $-1 $231 $84 #
plane-surface $-1 119.66897838415139 11.700067141194406 211.13592680599734 0 1 0 0.84804810408105047 0 0.52991925155115449 forward_v I I I I #
coedge $-1 $232 $233 $234 $235 reversed $85 $-1 #
coedge $-1 $141 $87 $236 $237 reversed $55 $-1 #
coedge $-1 $87 $140 $232 $238 reversed $55 $-1 #
coedge $-1 $234 $239 $87 $143 forward $229 $-1 #
edge $-1 $240 -13.301287656583014 $241 -10.24383688115546 $142 $242 forward 7 unknown #
loop $-1 $-1 $149 $88 #
plane-surface $-1 -4.3763354098482097 14.846966885753531 133.62381454749038 0.84804810408105047 0 0.52991925155115449 0.52991925155115449 0 -0.84804810408105047 forward_v I I I I #
loop $-1 $-1 $243 $57 #
coedge $-1 $147 $147 $148 $244 reversed $89 $-1 #
coedge $-1 $148 $148 $147 $244 forward $91 $-1 #
coedge $-1 $149 $149 $92 $150 forward $144 $-1 #
edge $-1 $245 0 $245 6.2831853071796004 $149 $246 forward 7 unknown #
loop $-1 $-1 $156 $93 #
plane-surface $-1 -4.3763354098482097 14.846966885753531 133.62381454749038 0.84804810408105047 0 0.52991925155115449 0.52991925155115449 0 -0.84804810408105047 forward_v I I I I #
loop $-1 $-1 $247 $60 #
coedge $-1 $154 $154 $155 $248 reversed $94 $-1 #
coedge $-1 $155 $155 $154 $248 forward $96 $-1 #
coedge $-1 $156 $156 $97 $157 forward $151 $-1 #
edge $-1 $249 0 $249 6.2831853071796004 $156 $250 forward 7 unknown #
face $-1 $251 $252 $33 $-1 $253 reversed single #
loop $-1 $-1 $254 $98 #
plane-surface $-1 -171.01055144432479 4.1291225226064032 119.80829708999974 0 -1 0 0.66913061440640931 0 -0.74314481823134659 forward_v I I I I #
coedge $-1 $255 $256 $257 $258 reversed $99 $-1 #
coedge $-1 $163 $101 $259 $260 reversed $64 $-1 #
coedge $-1 $101 $162 $255 $261 reversed $64 $-1 #
coedge $-1 $257 $262 $101 $165 forward $263 $-1 #
edge $-1 $264 12.369498873503687 $265 16.105704864496815 $164 $266 forward 7 unknown #
loop $-1 $-1 $171 $102 #
plane-surface $-1 -73.135776848658693 0.27282104327330359 11.107349905190134 -0.66913061440640931 0 0.74314481823134659 0.74314481823134659 0 0.66913061440640931 forward_v I I I I #
loop $-1 $-1 $267 $66 #
coedge $-1 $169 $169 $170 $268 reversed $103 $-1 #
coedge $-1 $170 $170 $169 $268 forward $105 $-1 #
coedge $-1 $171 $171 $106 $172 forward $166 $-1 #
edge $-1 $269 0 $269 6.2831853071796004 $171 $270 forward 7 unknown #
loop $-1 $-1 $178 $107 #
plane-surface $-1 -73.135776848658693 0.27282104327330359 11.107349905190134 -0.66913061440640931 0 0.74314481823134659 0.74314481823134659 0 0.66913061440640931 forward_v I I I I #
loop $-1 $-1 $271 $69 #
coedge $-1 $176 $176 $177 $272 reversed $108 $-1 #
coedge $-1 $177 $177 $176 $272 forward $110 $-1 #
coedge $-1 $178 $178 $111 $179 forward $173 $-1 #
edge $-1 $273 0 $273 6.2831853071796004 $178 $274 forward 7 unknown #
face $-1 $275 $276 $27 $-1 $277 reversed single #
loop $-1 $-1 $278 $112 #
plane-surface $-1 -73.135776848658708 0 0 1 0 0 0 0 -1 forward_v I I I I #
coedge $-1 $118 $279 $280 $281 forward $113 $-1 #
coedge $-1 $282 $115 $283 $284 forward $73 $-1 #
coedge $-1 $115 $282 $188 $285 forward $73 $-1 #
coedge $-1 $189 $286 $115 $187 reversed $287 $-1 #
edge $-1 $288 -32.498515324855049 $289 32.498515324855049 $186 $290 forward 7 unknown #
coedge $-1 $117 $116 $185 $285 reversed $46 $-1 #
coedge $-1 $280 $186 $116 $190 forward $287 $-1 #
edge $-1 $288 -14.471444963071383 $194 14.471444963071383 $189 $291 forward 7 unknown #
coedge $-1 $292 $293 $117 $192 reversed $181 $-1 #
edge $-1 $294 -14.471444963071383 $195 14.471444963071383 $191 $295 forward 7 unknown #
coedge $-1 $279 $118 $293 $296 forward $113 $-1 #
vertex $-1 $190 $297 #
vertex $-1 $296 $298 #
straight-curve $-1 0 -32.498515324855049 -14.471444963071383 -1 0 0 I I #
face $-1 $299 $209 $28 $-1 $300 reversed single #
loop $-1 $-1 $301 $120 #
plane-surface $-1 -69.722861865867273 -44.413336872294053 0 0 1 0 0 0 1 forward_v I I I I #
coedge $-1 $302 $303 $204 $304 forward $121 $-1 #
coedge $-1 $305 $123 $303 $306 forward $77 $-1 #
coedge $-1 $123 $305 $207 $307 forward $77 $-1 #
edge $-1 $210 66.309946883075838 $308 73.135776848658708 $123 $309 forward 7 unknown #
coedge $-1 $125 $124 $200 $304 reversed $49 $-1 #
coedge $-1 $310 $311 $124 $206 forward $312 $-1 #
edge $-1 $313 -73.135776848658708 $211 -66.309946883075838 $205 $314 forward 7 unknown #
coedge $-1 $315 $126 $202 $307 reversed $209 $-1 #
coedge $-1 $126 $315 $310 $316 reversed $209 $-1 #
loop $-1 $-1 $315 $197 #
vertex $-1 $203 $317 #
vertex $-1 $316 $318 #
straight-curve $-1 -66.309946883075838 -32.498515324855049 0 0 0 -1 I I #
face $-1 $319 $320 $29 $-1 $321 reversed single #
loop $-1 $-1 $134 $128 #
plane-surface $-1 -66.309946883075838 38.455926098574551 0 -1 0 0 0 0 1 forward_v I I I I #
coedge $-1 $322 $323 $324 $325 forward $129 $-1 #
coedge $-1 $326 $131 $224 $327 forward $81 $-1 #
coedge $-1 $131 $326 $328 $329 forward $81 $-1 #
edge $-1 $330 -73.135776848658708 $226 -66.309946883075838 $131 $331 forward 7 unknown #
coedge $-1 $133 $132 $332 $333 reversed $52 $-1 #
coedge $-1 $334 $335 $133 $222 forward $320 $-1 #
edge $-1 $225 66.309946883075838 $336 73.135776848658708 $221 $337 forward 7 unknown #
coedge $-1 $324 $134 $335 $338 reversed $214 $-1 #
coedge $-1 $134 $324 $217 $327 reversed $214 $-1 #
vertex $-1 $222 $339 #
vertex $-1 $327 $340 #
straight-curve $-1 -66.309946883075838 32.498515324855049 0 0 0 1 I I #
face $-1 $-1 $341 $30 $-1 $342 reversed single #
loop $-1 $-1 $142 $136 #
plane-surface $-1 0 0 14.471444963071383 0 0 1 1 0 0 forward_v I I I I #
coedge $-1 $343 $344 $345 $346 reversed $137 $-1 #
coedge $-1 $347 $139 $141 $238 forward $85 $-1 #
coedge $-1 $139 $347 $343 $348 forward $85 $-1 #
coedge $-1 $345 $142 $139 $235 forward $229 $-1 #
edge $-1 $241 -10.57038318743589 $349 -4.2765836983176406 $234 $350 forward 7 unknown #
coedge $-1 $351 $352 $140 $237 forward $341 $-1 #
edge $-1 $353 -95.989462649507843 $240 -91.096518439927294 $236 $354 forward 7 unknown #
edge $-1 $241 140.50189961043915 $353 146.27155369731736 $141 $355 forward 7 unknown #
coedge $-1 $142 $345 $351 $356 forward $229 $-1 #
vertex $-1 $143 $357 #
vertex $-1 $143 $358 #
straight-curve $-1 59.834489192075694 17.993866630312656 14.471444963071377 -1 0 0 I I #
coedge $-1 $243 $243 $-1 $359 reversed $146 $-1 #
edge $-1 $360 0 $360 6.2831853071796004 $147 $361 forward 7 unknown #
vertex $-1 $150 $362 #
ellipse-curve $-1 71.607051460944945 13.498295566656758 12.024972858281084 0.84804810408105047 0 0.52991925155115449 0.26495962577557725 0 -0.42402405204052523 1 I I #
coedge $-1 $247 $247 $-1 $363 reversed $153 $-1 #
edge $-1 $364 0 $364 6.2831853071796004 $154 $365 forward 7 unknown #
vertex $-1 $157 $366 #
ellipse-curve $-1 71.607051460944945 16.19563820485029 12.024972858281084 0.84804810408105047 0 0.52991925155115449 0.26495962577557725 0 -0.42402405204052523 1 I I #
face $-1 $-1 $263 $33 $-1 $367 forward single #
loop $-1 $-1 $368 $158 #
plane-surface $-1 -73.135776848658708 0 0 1 0 0 0 0 -1 forward_v I I I I #
coedge $-1 $369 $370 $371 $372 reversed $159 $-1 #
coedge $-1 $373 $161 $163 $261 forward $99 $-1 #
coedge $-1 $161 $373 $369 $374 forward $99 $-1 #
coedge $-1 $371 $164 $161 $258 forward $263 $-1 #
edge $-1 $265 -3.7198909576964478 $375 3.9927120009697514 $257 $376 forward 7 unknown #
coedge $-1 $377 $378 $162 $260 forward $252 $-1 #
edge $-1 $379 -48.796798639809751 $264 -45.432703581928486 $259 $380 forward 7 unknown #
edge $-1 $265 -5.027561115053091 $379 1.8881026247711288e-014 $163 $381 forward 7 unknown #
coedge $-1 $164 $371 $377 $382 forward $263 $-1 #
loop $-1 $-1 $371 $251 #
vertex $-1 $260 $383 #
vertex $-1 $165 $384 #
straight-curve $-1 -85.505275722162395 -3.583480436059796 14.471444963071384 1 0 0 I I #
coedge $-1 $267 $267 $-1 $385 reversed $168 $-1 #
edge $-1 $386 0 $386 6.2831853071796004 $169 $387 forward 7 unknown #
vertex $-1 $172 $388 #
ellipse-curve $-1 -71.267673853162151 -1.379879590726599 12.789397434130748 -0.66913061440640931 0 0.74314481823134659 0.74314481823134659 0 0.66913061440640931 1 I I #
coedge $-1 $271 $271 $-1 $389 reversed $175 $-1 #
edge $-1 $390 0 $390 6.2831853071796004 $176 $391 forward 7 unknown #
vertex $-1 $179 $392 #
ellipse-curve $-1 -71.267673853162151 1.9255216772732027 12.789397434130748 -0.66913061440640931 0 0.74314481823134659 0.74314481823134659 0 0.66913061440640931 1 I I #
face $-1 $-1 $287 $27 $-1 $393 reversed single #
loop $-1 $-1 $283 $180 #
plane-surface $-1 0 32.498515324855049 0 0 -1 0 0 0 -1 forward_v I I I I #
coedge $-1 $293 $292 $394 $395 forward $181 $-1 #
coedge $-1 $183 $193 $396 $397 forward $113 $-1 #
coedge $-1 $286 $189 $183 $281 reversed $287 $-1 #
edge $-1 $398 -32.498515324855049 $194 32.498515324855049 $280 $399 forward 7 unknown #
coedge $-1 $185 $184 $292 $400 forward $73 $-1 #
coedge $-1 $401 $394 $184 $284 reversed $276 $-1 #
edge $-1 $289 -73.135776848658708 $402 73.135776848658708 $283 $403 forward 7 unknown #
edge $-1 $294 -73.135776848658708 $288 73.135776848658708 $188 $404 forward 7 unknown #
coedge $-1 $186 $280 $401 $405 reversed $287 $-1 #
loop $-1 $-1 $189 $275 #
vertex $-1 $187 $406 #
vertex $-1 $187 $407 #
straight-curve $-1 73.135776848658708 0 14.471444963071383 0 1 0 I I #
straight-curve $-1 73.135776848658708 -32.498515324855049 0 0 0 -1 I I #
coedge $-1 $278 $191 $282 $400 reversed $181 $-1 #
coedge $-1 $191 $278 $193 $296 reversed $181 $-1 #
vertex $-1 $400 $408 #
straight-curve $-1 -73.135776848658708 -32.498515324855049 0 0 0 -1 I I #
edge $-1 $195 -32.498515324855049 $409 32.498515324855049 $293 $410 forward 7 unknown #
point $-1 73.135776848658708 -32.498515324855049 -14.471444963071383 #
point $-1 -73.135776848658708 -32.498515324855049 -14.471444963071383 #
face $-1 $-1 $312 $28 $-1 $411 reversed single #
plane-surface $-1 -66.309946883075838 -38.455926098574551 0 -1 0 0 0 0 1 forward_v I I I I #
coedge $-1 $412 $413 $414 $415 forward $198 $-1 #
coedge $-1 $414 $200 $311 $416 reversed $121 $-1 #
coedge $-1 $200 $414 $201 $306 reversed $121 $-1 #
edge $-1 $308 -14.471444963071383 $313 14.471444963071383 $200 $417 forward 7 unknown #
coedge $-1 $202 $201 $413 $418 forward $77 $-1 #
edge $-1 $308 32.498515324855049 $419 44.413336872294053 $303 $420 forward 7 unknown #
edge $-1 $421 -5.9574107737195021 $210 5.9574107737195021 $207 $422 forward 7 unknown #
vertex $-1 $306 $423 #
straight-curve $-1 0 -32.498515324855049 14.471444963071383 -1 0 0 I I #
coedge $-1 $424 $205 $208 $316 forward $312 $-1 #
coedge $-1 $205 $424 $302 $416 forward $312 $-1 #
loop $-1 $-1 $205 $299 #
vertex $-1 $304 $425 #
straight-curve $-1 0 -32.498515324855049 -14.471444963071383 1 0 0 I I #
coedge $-1 $208 $207 $426 $427 forward $209 $-1 #
edge $-1 $211 -5.9574107737195021 $428 5.9574107737195021 $208 $429 forward 7 unknown #
point $-1 -66.309946883075838 -32.498515324855049 14.471444963071383 #
point $-1 -66.309946883075838 -32.498515324855049 -14.471444963071383 #
face $-1 $-1 $430 $29 $-1 $431 reversed single #
loop $-1 $-1 $221 $213 #
plane-surface $-1 0 0 -14.471444963071383 0 0 1 1 0 0 forward_v I I I I #
coedge $-1 $432 $216 $433 $434 reversed $129 $-1 #
coedge $-1 $216 $432 $326 $435 reversed $129 $-1 #
coedge $-1 $224 $223 $216 $325 reversed $214 $-1 #
edge $-1 $436 -14.471444963071383 $437 14.471444963071383 $324 $438 forward 7 unknown #
coedge $-1 $218 $217 $323 $435 forward $81 $-1 #
edge $-1 $226 -5.9574107737195021 $436 5.9574107737195021 $224 $439 forward 7 unknown #
coedge $-1 $440 $332 $218 $329 reversed $430 $-1 #
edge $-1 $441 -44.413336872294053 $330 -32.498515324855049 $328 $442 forward 7 unknown #
vertex $-1 $333 $443 #
straight-curve $-1 0 32.498515324855049 14.471444963071383 1 0 0 I I #
coedge $-1 $328 $444 $220 $333 forward $430 $-1 #
edge $-1 $336 -14.471444963071383 $330 14.471444963071383 $332 $445 forward 7 unknown #
coedge $-1 $433 $221 $444 $446 forward $320 $-1 #
coedge $-1 $221 $433 $223 $338 forward $320 $-1 #
vertex $-1 $446 $447 #
straight-curve $-1 0 32.498515324855049 -14.471444963071383 -1 0 0 I I #
edge $-1 $437 -5.9574107737195021 $225 5.9574107737195021 $223 $448 forward 7 unknown #
point $-1 -66.309946883075838 32.498515324855049 -14.471444963071383 #
point $-1 -66.309946883075838 32.498515324855049 14.471444963071383 #
loop $-1 $-1 $236 $228 #
plane-surface $-1 73.135776848658708 0 0 -1 0 0 0 0 1 forward_v I I I I #
coedge $-1 $344 $231 $233 $348 reversed $137 $-1 #
coedge $-1 $231 $343 $449 $450 reversed $137 $-1 #
coedge $-1 $239 $234 $231 $346 forward $229 $-1 #
edge $-1 $349 10.24383688115546 $451 13.301287656583014 $345 $452 forward 7 unknown #
coedge $-1 $233 $232 $352 $453 reversed $85 $-1 #
edge $-1 $454 -146.27155369731736 $349 -140.50189961043915 $343 $455 forward 7 unknown #
vertex $-1 $235 $456 #
straight-curve $-1 70.078326073231139 7.4234834428767655 14.471444963071377 0 -1 0 I I #
coedge $-1 $449 $236 $239 $356 reversed $341 $-1 #
coedge $-1 $236 $449 $347 $453 forward $341 $-1 #
vertex $-1 $237 $457 #
straight-curve $-1 73.135776848658708 17.993866630312656 105.56796340299867 0 0 1 I I #
straight-curve $-1 -4.3763354098482097 17.993866630312656 133.62381454749038 0.52991925155115449 0 -0.84804810408105047 I I #
edge $-1 $451 11.700067141194406 $240 17.993866630312656 $351 $458 forward 7 unknown #
point $-1 73.135776848658708 17.993866630312656 14.471444963071383 #
point $-1 70.078326073231153 17.993866630312656 14.471444963071377 #
edge $-1 $459 1 $459 0 $243 $-1 forward 7 unknown #
vertex $-1 $244 $460 #
ellipse-curve $-1 70.759003356863872 13.498295566656758 11.495053606729915 0.84804810408105047 0 0.52991925155115449 0.26495962577557725 0 -0.42402405204052523 1 I I #
point $-1 71.872011086720505 13.498295566656758 11.600948806240543 #
edge $-1 $461 1 $461 0 $247 $-1 forward 7 unknown #
vertex $-1 $248 $462 #
ellipse-curve $-1 70.759003356863872 16.19563820485029 11.495053606729915 0.84804810408105047 0 0.52991925155115449 0.26495962577557725 0 -0.42402405204052523 1 I I #
point $-1 71.872011086720505 16.19563820485029 11.600948806240543 #
plane-surface $-1 0 0 14.471444963071383 0 0 1 1 0 0 forward_v I I I I #
coedge $-1 $378 $377 $370 $463 forward $252 $-1 #
coedge $-1 $370 $254 $256 $374 reversed $159 $-1 #
coedge $-1 $254 $369 $368 $463 reversed $159 $-1 #
coedge $-1 $262 $257 $254 $372 forward $263 $-1 #
edge $-1 $375 -16.105704864496815 $464 -12.369498873503687 $371 $465 forward 7 unknown #
coedge $-1 $256 $255 $378 $466 reversed $99 $-1 #
edge $-1 $467 -1.8881026247711288e-014 $375 5.027561115053091 $369 $468 forward 7 unknown #
vertex $-1 $258 $469 #
straight-curve $-1 -69.399570857665566 0.13641052163665179 14.471444963071381 0 1 0 I I #
coedge $-1 $368 $259 $262 $382 reversed $252 $-1 #
coedge $-1 $259 $368 $373 $466 forward $252 $-1 #
vertex $-1 $260 $470 #
straight-curve $-1 -73.135776848658708 -3.583480436059796 59.90414854499987 0 0 1 I I #
straight-curve $-1 -73.135776848658693 -3.583480436059796 11.107349905190134 -0.74314481823134659 0 -0.66913061440640931 I I #
edge $-1 $464 -4.1291225226064032 $264 3.583480436059796 $377 $471 forward 7 unknown #
point $-1 -73.135776848658708 -3.583480436059796 14.471444963071383 #
point $-1 -69.39957085766558 -3.583480436059796 14.471444963071383 #
edge $-1 $472 1 $472 0 $267 $-1 forward 7 unknown #
vertex $-1 $268 $473 #
ellipse-curve $-1 -69.015762524579543 -1.379879590726599 10.288396584786557 -0.66913061440640931 0 0.74314481823134659 0.74314481823134659 0 0.66913061440640931 1 I I #
point $-1 -70.524529034930822 -1.379879590726599 13.458528048537179 #
edge $-1 $474 1 $474 0 $271 $-1 forward 7 unknown #
vertex $-1 $272 $475 #
ellipse-curve $-1 -69.015762524579543 1.9255216772732027 10.288396584786557 -0.66913061440640931 0 0.74314481823134659 0.74314481823134659 0 0.66913061440640931 1 I I #
point $-1 -70.524529034930822 1.9255216772732027 13.458528048537179 #
plane-surface $-1 73.135776848658708 0 0 -1 0 0 0 0 1 forward_v I I I I #
coedge $-1 $283 $396 $278 $395 reversed $276 $-1 #
edge $-1 $402 -14.471444963071383 $409 14.471444963071383 $394 $476 forward 7 unknown #
coedge $-1 $394 $401 $279 $397 reversed $276 $-1 #
edge $-1 $409 -73.135776848658708 $398 73.135776848658708 $396 $477 forward 7 unknown #
vertex $-1 $281 $478 #
straight-curve $-1 73.135776848658708 0 -14.471444963071383 0 -1 0 I I #
edge $-1 $402 -32.498515324855049 $294 32.498515324855049 $292 $479 forward 7 unknown #
coedge $-1 $396 $283 $286 $405 forward $276 $-1 #
vertex $-1 $284 $480 #
straight-curve $-1 0 32.498515324855049 14.471444963071383 -1 0 0 I I #
straight-curve $-1 0 -32.498515324855049 14.471444963071383 1 0 0 I I #
edge $-1 $289 -14.471444963071383 $398 14.471444963071383 $286 $481 forward 7 unknown #
point $-1 73.135776848658708 -32.498515324855049 14.471444963071383 #
point $-1 73.135776848658708 32.498515324855049 14.471444963071383 #
point $-1 -73.135776848658708 -32.498515324855049 14.471444963071383 #
vertex $-1 $397 $482 #
straight-curve $-1 -73.135776848658708 0 -14.471444963071383 0 1 0 I I #
plane-surface $-1 0 0 -14.471444963071383 0 0 1 1 0 0 forward_v I I I I #
coedge $-1 $426 $301 $424 $483 reversed $198 $-1 #
coedge $-1 $301 $426 $305 $418 reversed $198 $-1 #
coedge $-1 $303 $302 $301 $415 reversed $121 $-1 #
edge $-1 $419 -14.471444963071383 $484 14.471444963071383 $414 $485 forward 7 unknown #
edge $-1 $484 -44.413336872294053 $313 -32.498515324855049 $302 $486 forward 7 unknown #
straight-curve $-1 -73.135776848658708 -32.498515324855049 0 0 0 -1 I I #
edge $-1 $419 -3.4129149827914347 $421 3.4129149827914347 $413 $487 forward 7 unknown #
vertex $-1 $306 $488 #
straight-curve $-1 -73.135776848658708 0 14.471444963071383 0 -1 0 I I #
vertex $-1 $307 $489 #
straight-curve $-1 -66.309946883075838 -38.455926098574551 14.471444963071383 0 1 0 I I #
point $-1 -73.135776848658708 -32.498515324855049 14.471444963071383 #
coedge $-1 $311 $310 $412 $483 forward $312 $-1 #
point $-1 -73.135776848658708 -32.498515324855049 -14.471444963071383 #
coedge $-1 $413 $412 $315 $427 reversed $198 $-1 #
edge $-1 $421 -14.471444963071383 $428 14.471444963071383 $315 $490 forward 7 unknown #
vertex $-1 $427 $491 #
straight-curve $-1 -66.309946883075838 -38.455926098574551 -14.471444963071383 0 -1 0 I I #
loop $-1 $-1 $332 $319 #
plane-surface $-1 -73.135776848658708 0 0 1 0 0 0 0 -1 forward_v I I I I #
coedge $-1 $323 $322 $440 $492 reversed $129 $-1 #
coedge $-1 $335 $334 $322 $434 forward $320 $-1 #
edge $-1 $493 -3.4129149827914347 $437 3.4129149827914347 $322 $494 forward 7 unknown #
edge $-1 $436 -3.4129149827914347 $441 3.4129149827914347 $323 $495 forward 7 unknown #
vertex $-1 $327 $496 #
vertex $-1 $338 $497 #
straight-curve $-1 -66.309946883075838 44.413336872294053 0 0 0 -1 I I #
straight-curve $-1 -66.309946883075838 38.455926098574551 14.471444963071383 0 1 0 I I #
coedge $-1 $444 $328 $432 $492 forward $430 $-1 #
vertex $-1 $435 $498 #
straight-curve $-1 -73.135776848658708 0 14.471444963071383 0 -1 0 I I #
point $-1 -73.135776848658708 32.498515324855049 14.471444963071383 #
coedge $-1 $332 $440 $334 $446 reversed $430 $-1 #
straight-curve $-1 -73.135776848658708 32.498515324855049 0 0 0 1 I I #
edge $-1 $336 -5.9574107737195021 $493 5.9574107737195021 $444 $499 forward 7 unknown #
point $-1 -73.135776848658708 32.498515324855049 -14.471444963071383 #
straight-curve $-1 -66.309946883075838 38.455926098574551 -14.471444963071383 0 -1 0 I I #
coedge $-1 $352 $351 $344 $450 forward $341 $-1 #
edge $-1 $451 91.096518439927294 $454 95.989462649507843 $449 $500 forward 7 unknown #
vertex $-1 $356 $501 #
straight-curve $-1 59.834489192075694 11.700067141194406 14.471444963071377 1 0 0 I I #
edge $-1 $454 4.2765836983176406 $353 10.57038318743589 $352 $502 forward 7 unknown #
vertex $-1 $453 $503 #
straight-curve $-1 -4.3763354098482097 11.700067141194406 133.62381454749038 -0.52991925155115449 0 0.84804810408105047 I I #
point $-1 70.078326073231153 11.700067141194406 14.471444963071377 #
point $-1 73.135776848658708 17.993866630312656 9.5785007534908289 #
straight-curve $-1 73.135776848658708 0 14.471444963071383 0 1 0 I I #
vertex $-1 $359 $504 #
point $-1 71.023962982639446 13.498295566656758 11.071029554689389 #
vertex $-1 $363 $505 #
point $-1 71.023962982639446 16.19563820485029 11.071029554689389 #
edge $-1 $464 45.432703581928486 $467 48.796798639809751 $368 $506 forward 7 unknown #
vertex $-1 $382 $507 #
straight-curve $-1 -85.505275722162395 4.1291225226064032 14.471444963071384 -1 0 0 I I #
edge $-1 $467 -3.9927120009697514 $379 3.7198909576964478 $378 $508 forward 7 unknown #
vertex $-1 $466 $509 #
straight-curve $-1 -73.135776848658693 4.1291225226064032 11.107349905190134 0.74314481823134659 0 0.66913061440640931 I I #
point $-1 -69.39957085766558 4.1291225226064032 14.471444963071383 #
point $-1 -73.135776848658708 -3.583480436059796 11.107349905190121 #
straight-curve $-1 -73.135776848658708 0 14.471444963071383 0 -1 0 I I #
vertex $-1 $385 $510 #
point $-1 -68.2726177063482 -1.379879590726599 10.957527199192967 #
vertex $-1 $389 $511 #
point $-1 -68.2726177063482 1.9255216772732027 10.957527199192967 #
straight-curve $-1 -73.135776848658708 32.498515324855049 0 0 0 -1 I I #
straight-curve $-1 0 32.498515324855049 -14.471444963071383 1 0 0 I I #
point $-1 73.135776848658708 32.498515324855049 -14.471444963071383 #
straight-curve $-1 -73.135776848658708 0 14.471444963071383 0 -1 0 I I #
point $-1 -73.135776848658708 32.498515324855049 14.471444963071383 #
straight-curve $-1 73.135776848658708 32.498515324855049 0 0 0 -1 I I #
point $-1 -73.135776848658708 32.498515324855049 -14.471444963071383 #
edge $-1 $428 -3.4129149827914347 $484 3.4129149827914347 $412 $512 forward 7 unknown #
vertex $-1 $416 $513 #
straight-curve $-1 -73.135776848658708 -44.413336872294053 0 0 0 -1 I I #
straight-curve $-1 -73.135776848658708 0 -14.471444963071383 0 1 0 I I #
straight-curve $-1 -69.722861865867273 -44.413336872294053 14.471444963071383 1 0 0 I I #
point $-1 -73.135776848658708 -44.413336872294053 14.471444963071383 #
point $-1 -66.309946883075838 -44.413336872294053 14.471444963071383 #
straight-curve $-1 -66.309946883075838 -44.413336872294053 0 0 0 -1 I I #
point $-1 -66.309946883075838 -44.413336872294053 -14.471444963071383 #
edge $-1 $441 -14.471444963071383 $493 14.471444963071383 $432 $514 forward 7 unknown #
vertex $-1 $434 $515 #
straight-curve $-1 -69.722861865867273 44.413336872294053 -14.471444963071383 1 0 0 I I #
straight-curve $-1 -69.722861865867273 44.413336872294053 14.471444963071383 -1 0 0 I I #
point $-1 -66.309946883075838 44.413336872294053 14.471444963071383 #
point $-1 -66.309946883075838 44.413336872294053 -14.471444963071383 #
point $-1 -73.135776848658708 44.413336872294053 14.471444963071383 #
straight-curve $-1 -73.135776848658708 38.455926098574551 -14.471444963071383 0 1 0 I I #
straight-curve $-1 73.135776848658708 11.700067141194406 105.56796340299867 0 0 -1 I I #
point $-1 73.135776848658708 11.700067141194406 14.471444963071383 #
straight-curve $-1 73.135776848658708 7.4234834428767655 9.578500753490836 0 1 0 I I #
point $-1 73.135776848658708 11.700067141194406 9.5785007534908289 #
point $-1 70.334979304823349 13.498295566656758 11.230093980954337 #
point $-1 70.334979304823349 16.19563820485029 11.230093980954337 #
straight-curve $-1 -73.135776848658708 4.1291225226064032 59.90414854499987 0 0 -1 I I #
point $-1 -73.135776848658708 4.1291225226064032 14.471444963071383 #
straight-curve $-1 -73.135776848658708 0.13641052163665179 11.107349905190121 0 -1 0 I I #
point $-1 -73.135776848658708 4.1291225226064032 11.107349905190121 #
point $-1 -68.34663191017313 -1.379879590726599 9.5452517665552108 #
point $-1 -68.34663191017313 1.9255216772732027 9.5452517665552108 #
straight-curve $-1 -69.722861865867273 -44.413336872294053 -14.471444963071383 -1 0 0 I I #
point $-1 -73.135776848658708 -44.413336872294053 -14.471444963071383 #
straight-curve $-1 -73.135776848658708 44.413336872294053 0 0 0 -1 I I #
point $-1 -73.135776848658708 44.413336872294053 -14.471444963071383 #
End-of-ACIS-data 