500 0 8 0           
7 Unknown 11 ACIS 5.0 NT 24 Thu Mar 25 23:13:08 1999 
-1 9.9999999999999995e-007 1e-010 
body $-1 $8 $-1 $9 #
body $-1 $10 $-1 $11 #
body $-1 $12 $-1 $13 #
body $-1 $14 $-1 $15 #
body $-1 $16 $-1 $17 #
body $-1 $18 $-1 $19 #
body $-1 $20 $-1 $21 #
body $-1 $22 $-1 $23 #
lump $-1 $-1 $24 $0 #
transform $-1 1 0 0 0 1 0 0 0 1 40.656758323923462 26.658485181467949 7.8022056608867958 1 rotate no_reflect no_shear #
lump $-1 $-1 $25 $1 #
transform $-1 1 0 0 0 1 0 0 0 1 40.656758323923462 26.658485181467949 7.8022056608867958 1 rotate no_reflect no_shear #
lump $-1 $-1 $26 $2 #
transform $-1 1 0 0 0 1 0 0 0 1 40.656758323923462 26.658485181467949 7.8022056608867958 1 rotate no_reflect no_shear #
lump $-1 $-1 $27 $3 #
transform $-1 1 0 0 0 1 0 0 0 1 40.656758323923462 26.658485181467949 7.8022056608867958 1 rotate no_reflect no_shear #
lump $-1 $-1 $28 $4 #
transform $-1 1 0 0 0 1 0 0 0 1 40.656758323923462 26.658485181467949 7.8022056608867958 1 rotate no_reflect no_shear #
lump $-1 $-1 $29 $5 #
transform $-1 1 0 0 0 1 0 0 0 1 40.656758323923462 26.658485181467949 7.8022056608867958 1 rotate no_reflect no_shear #
lump $-1 $-1 $30 $6 #
transform $-1 1 0 0 0 1 0 0 0 1 40.656758323923462 26.658485181467949 7.8022056608867958 1 rotate no_reflect no_shear #
lump $-1 $-1 $31 $7 #
transform $-1 1 0 0 0 1 0 0 0 1 40.656758323923462 26.658485181467949 7.8022056608867958 1 rotate no_reflect no_shear #
shell $-1 $-1 $-1 $32 $-1 $8 #
shell $-1 $-1 $-1 $33 $-1 $10 #
shell $-1 $-1 $-1 $34 $-1 $12 #
shell $-1 $-1 $-1 $35 $-1 $14 #
shell $-1 $-1 $-1 $36 $-1 $16 #
shell $-1 $-1 $-1 $37 $-1 $18 #
shell $-1 $-1 $-1 $38 $-1 $20 #
shell $-1 $-1 $-1 $39 $-1 $22 #
face $-1 $40 $41 $24 $-1 $42 forward single #
face $-1 $43 $44 $25 $-1 $45 reversed single #
face $-1 $46 $47 $26 $-1 $48 reversed single #
face $-1 $49 $50 $27 $-1 $51 forward single #
face $-1 $52 $53 $28 $-1 $54 forward single #
face $-1 $55 $56 $29 $-1 $57 reversed single #
face $-1 $58 $59 $30 $-1 $60 forward single #
face $-1 $61 $62 $31 $-1 $63 forward single #
face $-1 $64 $65 $24 $-1 $66 reversed single #
loop $-1 $-1 $67 $32 #
plane-surface $-1 0 0 7.8022056608867958 0 0 1 1 0 0 forward_v I I I I #
face $-1 $68 $69 $25 $-1 $70 reversed single #
loop $-1 $-1 $71 $33 #
plane-surface $-1 -35.644419202924851 0 4.8022056608867958 0 0 1 1 0 0 forward_v I I I I #
face $-1 $72 $73 $26 $-1 $74 reversed single #
loop $-1 $-1 $75 $34 #
plane-surface $-1 -10.724421215840032 -94.070446295641176 48.004336149407564 -1 0 0 0 -0.82903758062907751 0.55919289150049634 forward_v I I I I #
face $-1 $76 $77 $27 $-1 $78 forward single #
loop $-1 $79 $80 $35 #
cone-surface $-1 -24.944177548758745 -24.247591704298308 4.7404584522188857 0 0.82903758062907751 -0.55919289150049634 1.5 0 0 1 I I 0 1 1.5 forward I I I I #
face $-1 $81 $82 $28 $-1 $83 forward single #
loop $-1 $84 $85 $36 #
cone-surface $-1 -16.41232374900752 -24.247591704298308 4.7404584522188857 0 0.82903758062907751 -0.55919289150049634 1.5 0 0 1 I I 0 1 1.5 forward I I I I #
face $-1 $86 $87 $29 $-1 $88 reversed single #
loop $-1 $-1 $89 $37 #
plane-surface $-1 -8.3822726006524277 41.445618286577457 99.096265896211975 1 0 0 0 -0.66913061440640931 -0.74314481823134659 forward_v I I I I #
face $-1 $90 $91 $30 $-1 $92 forward single #
loop $-1 $93 $94 $38 #
cone-surface $-1 -6.0248230791025676 23.653077058393826 5.0257955263060214 0 -0.66913061440640931 -0.74314481823134659 0.5 0 0 1 I I 0 1 0.5 forward I I I I #
face $-1 $95 $96 $31 $-1 $97 forward single #
loop $-1 $98 $99 $39 #
cone-surface $-1 -2.488648796777774 23.653077058393826 5.0257955263060214 0 -0.66913061440640931 -0.74314481823134659 0.5 0 0 1 I I 0 1 0.5 forward I I I I #
face $-1 $100 $101 $24 $-1 $102 reversed single #
loop $-1 $-1 $103 $40 #
plane-surface $-1 0 0 -7.8022056608867958 0 0 1 1 0 0 forward_v I I I I #
coedge $-1 $104 $105 $106 $107 forward $41 $-1 #
face $-1 $108 $109 $25 $-1 $110 reversed single #
loop $-1 $-1 $111 $43 #
plane-surface $-1 -30.632080081926237 0 6.3022056608867958 -1 0 0 0 0 1 forward_v I I I I #
coedge $-1 $112 $113 $114 $115 forward $44 $-1 #
face $-1 $116 $117 $26 $-1 $118 forward single #
loop $-1 $-1 $119 $46 #
plane-surface $-1 -20.678250648883132 -26.658485181467938 2.534395657024298 0 -0.82903758062907751 0.55919289150049634 1 0 0 forward_v I I I I #
coedge $-1 $120 $121 $122 $123 reversed $47 $-1 #
face $-1 $-1 $124 $27 $-1 $125 forward single #
loop $-1 $126 $127 $49 #
cone-surface $-1 -24.944177548758745 -22.991511342680802 3.8932215768568481 0 0.82903758062907751 -0.55919289150049634 0.75 0 0 1 I I -0.70710678118654724 0.70710678118654768 0.75 forward I I I I #
loop $-1 $-1 $128 $35 #
coedge $-1 $80 $80 $129 $130 reversed $50 $-1 #
face $-1 $-1 $131 $28 $-1 $132 forward single #
loop $-1 $133 $134 $52 #
cone-surface $-1 -16.41232374900752 -22.991511342680802 3.8932215768568481 0 0.82903758062907751 -0.55919289150049634 0.75 0 0 1 I I -0.70710678118654724 0.70710678118654768 0.75 forward I I I I #
loop $-1 $-1 $135 $36 #
coedge $-1 $85 $85 $136 $137 reversed $53 $-1 #
face $-1 $138 $139 $29 $-1 $140 reversed single #
loop $-1 $-1 $141 $55 #
plane-surface $-1 -4.2567359379401708 -12.963745067542135 38.66854734719621 0 0.66913061440640931 0.74314481823134659 1 0 0 forward_v I I I I #
coedge $-1 $142 $143 $144 $145 reversed $56 $-1 #
face $-1 $-1 $146 $30 $-1 $147 forward single #
loop $-1 $148 $149 $58 #
cone-surface $-1 -6.0248230791025676 23.15122909758902 4.4684369126325114 0 -0.66913061440640931 -0.74314481823134659 0.25 0 0 1 I I -0.70710678118654746 0.70710678118654746 0.25 forward I I I I #
loop $-1 $-1 $150 $38 #
coedge $-1 $94 $94 $151 $152 reversed $59 $-1 #
face $-1 $-1 $153 $31 $-1 $154 forward single #
loop $-1 $155 $156 $61 #
cone-surface $-1 -2.488648796777774 23.15122909758902 4.4684369126325114 0 -0.66913061440640931 -0.74314481823134659 0.25 0 0 1 I I -0.70710678118654746 0.70710678118654746 0.25 forward I I I I #
loop $-1 $-1 $157 $39 #
coedge $-1 $99 $99 $158 $159 reversed $62 $-1 #
face $-1 $160 $161 $24 $-1 $162 reversed single #
loop $-1 $-1 $163 $64 #
plane-surface $-1 0 -26.658485181467949 0 0 1 0 0 0 1 forward_v I I I I #
coedge $-1 $164 $165 $166 $167 forward $65 $-1 #
coedge $-1 $168 $67 $169 $170 forward $41 $-1 #
coedge $-1 $67 $168 $171 $172 forward $41 $-1 #
coedge $-1 $173 $174 $67 $107 reversed $175 $-1 #
edge $-1 $176 -26.658485181467949 $177 26.658485181467949 $106 $178 forward 7 unknown #
face $-1 $179 $180 $25 $-1 $181 reversed single #
loop $-1 $-1 $182 $68 #
plane-surface $-1 0 26.658485181467949 0 0 -1 0 0 0 -1 forward_v I I I I #
coedge $-1 $114 $183 $184 $185 reversed $69 $-1 #
coedge $-1 $186 $71 $187 $188 reversed $44 $-1 #
coedge $-1 $71 $186 $189 $190 reversed $44 $-1 #
coedge $-1 $191 $111 $71 $115 reversed $69 $-1 #
edge $-1 $192 -26.658485181467949 $193 26.658485181467949 $114 $194 forward 7 unknown #
face $-1 $195 $196 $26 $-1 $197 forward single #
loop $-1 $-1 $198 $72 #
plane-surface $-1 -30.632080081926237 0 6.3022056608867958 -1 0 0 0 0 1 forward_v I I I I #
coedge $-1 $199 $200 $201 $202 reversed $73 $-1 #
coedge $-1 $121 $75 $203 $204 reversed $47 $-1 #
coedge $-1 $75 $120 $199 $205 reversed $47 $-1 #
coedge $-1 $201 $206 $75 $123 forward $196 $-1 #
edge $-1 $207 20.376737966352639 $208 23.929920568400536 $122 $209 forward 7 unknown #
loop $-1 $-1 $129 $76 #
plane-surface $-1 -20.678250648883132 -26.658485181467938 2.534395657024298 0 -0.82903758062907751 0.55919289150049634 1 0 0 forward_v I I I I #
loop $-1 $-1 $210 $49 #
coedge $-1 $127 $127 $128 $211 reversed $77 $-1 #
coedge $-1 $128 $128 $127 $211 forward $79 $-1 #
coedge $-1 $129 $129 $80 $130 forward $124 $-1 #
edge $-1 $212 -4.619359885617304e-017 $212 6.2831853071796004 $129 $213 forward 7 unknown #
loop $-1 $-1 $136 $81 #
plane-surface $-1 -20.678250648883132 -26.658485181467938 2.534395657024298 0 -0.82903758062907751 0.55919289150049634 1 0 0 forward_v I I I I #
loop $-1 $-1 $214 $52 #
coedge $-1 $134 $134 $135 $215 reversed $82 $-1 #
coedge $-1 $135 $135 $134 $215 forward $84 $-1 #
coedge $-1 $136 $136 $85 $137 forward $131 $-1 #
edge $-1 $216 -4.619359885617304e-017 $216 6.2831853071796004 $136 $217 forward 7 unknown #
face $-1 $218 $219 $29 $-1 $220 forward single #
loop $-1 $-1 $221 $86 #
plane-surface $-1 -0.13119927522791386 41.445618286577457 99.096265896211975 -1 0 0 0 0.66913061440640931 0.74314481823134659 forward_v I I I I #
coedge $-1 $222 $223 $224 $225 reversed $87 $-1 #
coedge $-1 $143 $89 $226 $227 reversed $56 $-1 #
coedge $-1 $89 $142 $222 $228 reversed $56 $-1 #
coedge $-1 $224 $229 $89 $145 forward $219 $-1 #
edge $-1 $230 -5.9356760381792206 $231 -0.59399040643740619 $144 $232 forward 7 unknown #
loop $-1 $-1 $151 $90 #
plane-surface $-1 -4.2567359379401708 -12.963745067542135 38.66854734719621 0 0.66913061440640931 0.74314481823134659 1 0 0 forward_v I I I I #
loop $-1 $-1 $233 $58 #
coedge $-1 $149 $149 $150 $234 reversed $91 $-1 #
coedge $-1 $150 $150 $149 $234 forward $93 $-1 #
coedge $-1 $151 $151 $94 $152 forward $146 $-1 #
edge $-1 $235 1.3680964593538434e-016 $235 6.2831853071796004 $151 $236 forward 7 unknown #
loop $-1 $-1 $158 $95 #
plane-surface $-1 -4.2567359379401708 -12.963745067542135 38.66854734719621 0 0.66913061440640931 0.74314481823134659 1 0 0 forward_v I I I I #
loop $-1 $-1 $237 $61 #
coedge $-1 $156 $156 $157 $238 reversed $96 $-1 #
coedge $-1 $157 $157 $156 $238 forward $98 $-1 #
coedge $-1 $158 $158 $99 $159 forward $153 $-1 #
edge $-1 $239 1.3680964593538434e-016 $239 6.2831853071796004 $158 $240 forward 7 unknown #
face $-1 $241 $242 $24 $-1 $243 reversed single #
loop $-1 $-1 $244 $100 #
plane-surface $-1 -40.656758323923462 0 0 1 0 0 0 0 -1 forward_v I I I I #
coedge $-1 $245 $171 $246 $247 forward $101 $-1 #
coedge $-1 $248 $103 $245 $249 forward $65 $-1 #
coedge $-1 $103 $248 $250 $251 forward $65 $-1 #
coedge $-1 $174 $173 $103 $167 reversed $175 $-1 #
edge $-1 $252 -26.658485181467949 $253 26.658485181467949 $166 $254 forward 7 unknown #
coedge $-1 $105 $104 $255 $256 forward $41 $-1 #
coedge $-1 $257 $258 $104 $170 reversed $242 $-1 #
edge $-1 $177 -40.656758323923462 $259 40.656758323923462 $169 $260 forward 7 unknown #
coedge $-1 $163 $261 $105 $172 reversed $101 $-1 #
edge $-1 $262 -40.656758323923462 $176 40.656758323923462 $171 $263 forward 7 unknown #
coedge $-1 $166 $106 $261 $264 forward $175 $-1 #
coedge $-1 $106 $166 $257 $265 reversed $175 $-1 #
loop $-1 $-1 $173 $241 #
vertex $-1 $107 $266 #
vertex $-1 $107 $267 #
straight-curve $-1 40.656758323923462 0 7.8022056608867958 0 1 0 I I #
face $-1 $268 $269 $25 $-1 $270 forward single #
loop $-1 $-1 $271 $108 #
plane-surface $-1 -40.656758323923462 0 0 1 0 0 0 0 -1 forward_v I I I I #
coedge $-1 $189 $272 $191 $273 forward $109 $-1 #
coedge $-1 $111 $191 $274 $275 reversed $69 $-1 #
coedge $-1 $276 $187 $111 $185 forward $277 $-1 #
edge $-1 $193 1.6511028304433979 $278 4.6511028304433975 $184 $279 forward 7 unknown #
coedge $-1 $113 $112 $271 $280 reversed $44 $-1 #
coedge $-1 $184 $281 $112 $188 forward $277 $-1 #
edge $-1 $282 -22.834548722461044 $193 -12.809870480463811 $187 $283 forward 7 unknown #
coedge $-1 $284 $182 $113 $190 forward $109 $-1 #
edge $-1 $192 12.809870480463811 $285 22.834548722461044 $189 $286 forward 7 unknown #
coedge $-1 $183 $114 $182 $273 reversed $69 $-1 #
vertex $-1 $190 $287 #
vertex $-1 $188 $288 #
straight-curve $-1 -30.632080081926237 0 4.8022056608867958 0 -1 0 I I #
face $-1 $-1 $289 $26 $-1 $290 reversed single #
loop $-1 $-1 $201 $116 #
plane-surface $-1 0 0 7.8022056608867958 0 0 1 1 0 0 forward_v I I I I #
coedge $-1 $291 $292 $200 $293 reversed $117 $-1 #
coedge $-1 $294 $119 $121 $205 forward $73 $-1 #
coedge $-1 $119 $294 $198 $293 forward $73 $-1 #
coedge $-1 $295 $122 $119 $202 forward $196 $-1 #
edge $-1 $208 0.38529589139846543 $296 20.292954757484672 $201 $297 forward 7 unknown #
coedge $-1 $298 $299 $120 $204 forward $289 $-1 #
edge $-1 $300 -21.467772417679498 $207 -16.199962413816987 $203 $301 forward 7 unknown #
edge $-1 $208 -6.3541269140842322 $300 1.9213955892398137e-014 $121 $302 forward 7 unknown #
coedge $-1 $122 $295 $298 $303 forward $196 $-1 #
vertex $-1 $204 $304 #
vertex $-1 $123 $305 #
straight-curve $-1 -10.724421215840032 -47.035223147820588 7.8022056608867949 0 1 0 I I #
coedge $-1 $210 $210 $-1 $306 reversed $126 $-1 #
edge $-1 $307 0 $307 6.2831853071796004 $127 $308 forward 7 unknown #
vertex $-1 $130 $309 #
ellipse-curve $-1 -24.944177548758745 -24.881893880443997 5.1683006589555438 0 -0.82903758062907751 0.55919289150049634 1.5 0 0 1 I I #
coedge $-1 $214 $214 $-1 $310 reversed $133 $-1 #
edge $-1 $311 0 $311 6.2831853071796004 $134 $312 forward 7 unknown #
vertex $-1 $137 $313 #
ellipse-curve $-1 -16.41232374900752 -24.881893880443997 5.1683006589555438 0 -0.82903758062907751 0.55919289150049634 1.5 0 0 1 I I #
face $-1 $-1 $314 $29 $-1 $315 reversed single #
loop $-1 $-1 $144 $138 #
plane-surface $-1 0 0 7.8022056608867958 0 0 1 1 0 0 forward_v I I I I #
coedge $-1 $316 $317 $318 $319 reversed $139 $-1 #
coedge $-1 $320 $141 $143 $228 forward $87 $-1 #
coedge $-1 $141 $320 $316 $321 forward $87 $-1 #
coedge $-1 $318 $144 $141 $225 forward $219 $-1 #
edge $-1 $231 -6.2539046316823423 $322 1.9971686937421715 $224 $323 forward 7 unknown #
coedge $-1 $324 $325 $142 $227 forward $314 $-1 #
edge $-1 $326 -46.555602738149389 $230 -41.745927287219189 $226 $327 forward 7 unknown #
edge $-1 $231 46.12902327550978 $326 53.316970362935891 $143 $328 forward 7 unknown #
coedge $-1 $144 $318 $324 $329 forward $219 $-1 #
vertex $-1 $227 $330 #
vertex $-1 $145 $331 #
straight-curve $-1 -8.3822726006524277 20.722809143288728 7.8022056608867985 0 -1 0 I I #
coedge $-1 $233 $233 $-1 $332 reversed $148 $-1 #
edge $-1 $333 0 $333 6.2831853071796004 $149 $334 forward 7 unknown #
vertex $-1 $152 $335 #
ellipse-curve $-1 -6.0248230791025676 23.98764236559704 5.3973679354217028 0 0.66913061440640931 0.74314481823134659 0.5 0 0 1 I I #
coedge $-1 $237 $237 $-1 $336 reversed $155 $-1 #
edge $-1 $337 0 $337 6.2831853071796004 $156 $338 forward 7 unknown #
vertex $-1 $159 $339 #
ellipse-curve $-1 -2.488648796777774 23.98764236559704 5.3973679354217028 0 0.66913061440640931 0.74314481823134659 0.5 0 0 1 I I #
face $-1 $-1 $175 $24 $-1 $340 reversed single #
loop $-1 $-1 $257 $160 #
plane-surface $-1 0 26.658485181467949 0 0 -1 0 0 0 -1 forward_v I I I I #
coedge $-1 $341 $255 $258 $342 forward $161 $-1 #
coedge $-1 $261 $163 $164 $249 reversed $101 $-1 #
coedge $-1 $255 $341 $163 $247 reversed $161 $-1 #
edge $-1 $262 -7.8022056608867958 $343 7.8022056608867958 $246 $344 forward 7 unknown #
coedge $-1 $165 $164 $341 $345 forward $65 $-1 #
edge $-1 $253 -40.656758323923462 $343 40.656758323923462 $245 $346 forward 7 unknown #
coedge $-1 $258 $257 $165 $251 reversed $242 $-1 #
edge $-1 $347 -40.656758323923462 $252 40.656758323923462 $250 $348 forward 7 unknown #
vertex $-1 $167 $349 #
vertex $-1 $264 $350 #
straight-curve $-1 40.656758323923462 0 -7.8022056608867958 0 -1 0 I I #
coedge $-1 $244 $246 $168 $256 reversed $161 $-1 #
edge $-1 $259 -26.658485181467949 $262 26.658485181467949 $255 $351 forward 7 unknown #
coedge $-1 $250 $169 $174 $265 forward $242 $-1 #
coedge $-1 $169 $250 $244 $342 reversed $242 $-1 #
vertex $-1 $170 $352 #
straight-curve $-1 0 26.658485181467949 7.8022056608867958 -1 0 0 I I #
coedge $-1 $171 $245 $173 $264 reversed $101 $-1 #
vertex $-1 $256 $353 #
straight-curve $-1 0 -26.658485181467949 7.8022056608867958 1 0 0 I I #
edge $-1 $176 -7.8022056608867958 $253 7.8022056608867958 $173 $354 forward 7 unknown #
edge $-1 $177 -7.8022056608867958 $252 7.8022056608867958 $174 $355 forward 7 unknown #
point $-1 40.656758323923462 -26.658485181467949 7.8022056608867958 #
point $-1 40.656758323923462 26.658485181467949 7.8022056608867958 #
face $-1 $-1 $277 $25 $-1 $356 reversed single #
loop $-1 $-1 $274 $179 #
plane-surface $-1 0 0 7.8022056608867958 0 0 1 1 0 0 forward_v I I I I #
coedge $-1 $357 $358 $186 $280 forward $180 $-1 #
coedge $-1 $182 $284 $359 $360 reversed $109 $-1 #
edge $-1 $361 -4.6511028304433975 $192 -1.6511028304433979 $182 $362 forward 7 unknown #
coedge $-1 $359 $363 $183 $275 forward $269 $-1 #
edge $-1 $278 -26.658485181467949 $361 26.658485181467949 $274 $364 forward 7 unknown #
coedge $-1 $281 $184 $363 $365 reversed $277 $-1 #
loop $-1 $-1 $184 $268 #
vertex $-1 $185 $366 #
straight-curve $-1 -30.632080081926237 -26.658485181467949 3.1511028304433979 0 0 1 I I #
edge $-1 $285 -26.658485181467949 $282 26.658485181467949 $271 $367 forward 7 unknown #
coedge $-1 $187 $276 $357 $368 forward $277 $-1 #
vertex $-1 $280 $369 #
straight-curve $-1 -17.822209601462426 -26.658485181467949 4.8022056608867958 1 0 0 I I #
coedge $-1 $272 $189 $358 $370 reversed $109 $-1 #
vertex $-1 $280 $371 #
straight-curve $-1 -17.822209601462426 26.658485181467949 4.8022056608867958 -1 0 0 I I #
point $-1 -30.632080081926237 26.658485181467949 4.8022056608867958 #
point $-1 -30.632080081926237 -26.658485181467949 4.8022056608867958 #
loop $-1 $-1 $203 $195 #
plane-surface $-1 0 -26.658485181467949 0 0 1 0 0 0 1 forward_v I I I I #
coedge $-1 $292 $198 $372 $373 reversed $117 $-1 #
coedge $-1 $198 $291 $295 $374 reversed $117 $-1 #
edge $-1 $375 -1.9213955892398137e-014 $296 6.3541269140842322 $198 $376 forward 7 unknown #
coedge $-1 $200 $199 $299 $377 reversed $73 $-1 #
coedge $-1 $206 $201 $292 $374 forward $196 $-1 #
vertex $-1 $374 $378 #
straight-curve $-1 -10.339125324441566 -23.105302579420048 7.8022056608867958 -1 0 0 I I #
coedge $-1 $372 $203 $206 $303 reversed $289 $-1 #
coedge $-1 $203 $372 $294 $377 forward $289 $-1 #
vertex $-1 $204 $379 #
straight-curve $-1 -10.724421215840032 -26.658485181467945 24.002168074703782 0 0 1 I I #
straight-curve $-1 -10.724421215840032 -26.658485181467938 2.534395657024298 0 -0.55919289150049634 -0.82903758062907751 I I #
edge $-1 $380 -30.632080081926237 $207 -10.724421215840032 $298 $381 forward 7 unknown #
point $-1 -10.724421215840032 -26.658485181467949 7.8022056608867958 #
point $-1 -10.724421215840032 -23.105302579420052 7.8022056608867958 #
edge $-1 $382 1 $382 0 $210 $-1 forward 7 unknown #
vertex $-1 $211 $383 #
ellipse-curve $-1 -24.944177548758745 -23.61328952815261 4.3126162454822206 0 -0.82903758062907751 0.55919289150049634 1.5 0 0 1 I I #
point $-1 -23.444177548758745 -24.881893880444007 5.1683006589555509 #
edge $-1 $384 1 $384 0 $214 $-1 forward 7 unknown #
vertex $-1 $215 $385 #
ellipse-curve $-1 -16.41232374900752 -23.61328952815261 4.3126162454822206 0 -0.82903758062907751 0.55919289150049634 1.5 0 0 1 I I #
point $-1 -14.91232374900752 -24.881893880444007 5.1683006589555509 #
loop $-1 $-1 $226 $218 #
plane-surface $-1 0 26.658485181467949 0 0 -1 0 0 0 -1 forward_v I I I I #
coedge $-1 $317 $221 $223 $321 reversed $139 $-1 #
coedge $-1 $221 $316 $386 $387 reversed $139 $-1 #
coedge $-1 $229 $224 $221 $319 forward $219 $-1 #
edge $-1 $322 0.59399040643740619 $388 5.9356760381792206 $318 $389 forward 7 unknown #
coedge $-1 $223 $222 $325 $390 reversed $87 $-1 #
edge $-1 $391 -53.316970362935891 $322 -46.12902327550978 $316 $392 forward 7 unknown #
vertex $-1 $225 $393 #
straight-curve $-1 -2.1283679689700854 21.316799549726134 7.8022056608867913 1 0 0 I I #
coedge $-1 $386 $226 $229 $329 reversed $314 $-1 #
coedge $-1 $226 $386 $320 $390 forward $314 $-1 #
vertex $-1 $227 $394 #
straight-curve $-1 -8.3822726006524277 26.658485181467949 49.548132948105987 0 0 1 I I #
straight-curve $-1 -8.3822726006524277 -12.963745067542135 38.66854734719621 0 0.74314481823134659 -0.66913061440640931 I I #
edge $-1 $388 0.13119927522791386 $230 8.3822726006524277 $324 $395 forward 7 unknown #
point $-1 -8.3822726006524277 26.658485181467949 7.8022056608867958 #
point $-1 -8.3822726006524277 21.316799549726134 7.8022056608867949 #
edge $-1 $396 1 $396 0 $233 $-1 forward 7 unknown #
vertex $-1 $234 $397 #
ellipse-curve $-1 -6.0248230791025676 23.318511751190623 4.6542231171903481 0 0.66913061440640931 0.74314481823134659 0.5 0 0 1 I I #
point $-1 -5.5248230791025676 23.987642365597033 5.3973679354216948 #
edge $-1 $398 1 $398 0 $237 $-1 forward 7 unknown #
vertex $-1 $238 $399 #
ellipse-curve $-1 -2.488648796777774 23.318511751190623 4.6542231171903481 0 0.66913061440640931 0.74314481823134659 0.5 0 0 1 I I #
point $-1 -1.988648796777774 23.987642365597033 5.3973679354216948 #
plane-surface $-1 40.656758323923462 0 0 -1 0 0 0 0 1 forward_v I I I I #
coedge $-1 $246 $244 $248 $345 reversed $161 $-1 #
edge $-1 $259 -7.8022056608867958 $347 7.8022056608867958 $258 $400 forward 7 unknown #
vertex $-1 $345 $401 #
straight-curve $-1 -40.656758323923462 -26.658485181467949 0 0 0 -1 I I #
edge $-1 $343 -26.658485181467949 $347 26.658485181467949 $341 $402 forward 7 unknown #
straight-curve $-1 0 -26.658485181467949 -7.8022056608867958 -1 0 0 I I #
vertex $-1 $251 $403 #
straight-curve $-1 0 26.658485181467949 -7.8022056608867958 1 0 0 I I #
point $-1 40.656758323923462 26.658485181467949 -7.8022056608867958 #
point $-1 40.656758323923462 -26.658485181467949 -7.8022056608867958 #
straight-curve $-1 -40.656758323923462 0 7.8022056608867958 0 -1 0 I I #
point $-1 -40.656758323923462 26.658485181467949 7.8022056608867958 #
point $-1 -40.656758323923462 -26.658485181467949 7.8022056608867958 #
straight-curve $-1 40.656758323923462 -26.658485181467949 0 0 0 -1 I I #
straight-curve $-1 40.656758323923462 26.658485181467949 0 0 0 -1 I I #
plane-surface $-1 0 -26.658485181467949 0 0 1 0 0 0 1 forward_v I I I I #
coedge $-1 $404 $271 $281 $368 reversed $180 $-1 #
coedge $-1 $271 $404 $284 $370 forward $180 $-1 #
coedge $-1 $405 $274 $272 $360 forward $269 $-1 #
edge $-1 $361 30.632080081926237 $406 40.656758323923462 $272 $407 forward 7 unknown #
vertex $-1 $360 $408 #
straight-curve $-1 -30.632080081926237 26.658485181467949 3.1511028304433979 0 0 -1 I I #
coedge $-1 $274 $405 $276 $365 forward $269 $-1 #
straight-curve $-1 -30.632080081926237 0 7.8022056608867958 0 1 0 I I #
edge $-1 $409 -40.656758323923462 $278 -30.632080081926237 $276 $410 forward 7 unknown #
point $-1 -30.632080081926237 -26.658485181467949 7.8022056608867958 #
straight-curve $-1 -40.656758323923462 0 4.8022056608867958 0 -1 0 I I #
edge $-1 $409 -7.8022056608867958 $282 -4.8022056608867958 $357 $411 forward 7 unknown #
point $-1 -40.656758323923469 -26.658485181467949 4.8022056608867958 #
edge $-1 $406 -7.8022056608867958 $285 -4.8022056608867958 $284 $412 forward 7 unknown #
point $-1 -40.656758323923469 26.658485181467949 4.8022056608867958 #
coedge $-1 $299 $298 $291 $373 forward $289 $-1 #
edge $-1 $380 16.199962413816987 $375 21.467772417679498 $372 $413 forward 7 unknown #
edge $-1 $296 23.105302579420052 $380 26.658485181467949 $295 $414 forward 7 unknown #
vertex $-1 $373 $415 #
straight-curve $-1 -30.632080081926233 -26.658485181467938 2.534395657024298 0 0.55919289150049634 0.82903758062907751 I I #
edge $-1 $375 -20.292954757484665 $300 -0.38529589139846543 $299 $416 forward 7 unknown #
point $-1 -30.632080081926237 -23.105302579420052 7.8022056608867958 #
point $-1 -10.724421215840032 -26.658485181467949 2.534395657024282 #
vertex $-1 $303 $417 #
straight-curve $-1 0 -26.658485181467949 7.8022056608867958 1 0 0 I I #
vertex $-1 $306 $418 #
point $-1 -23.444177548758745 -23.61328952815261 4.3126162454822206 #
vertex $-1 $310 $419 #
point $-1 -14.91232374900752 -23.61328952815261 4.3126162454822206 #
coedge $-1 $325 $324 $317 $387 forward $314 $-1 #
edge $-1 $388 41.745927287219189 $391 46.555602738149389 $386 $420 forward 7 unknown #
vertex $-1 $329 $421 #
straight-curve $-1 -0.13119927522791386 20.722809143288728 7.8022056608867985 0 1 0 I I #
edge $-1 $391 -1.9971686937421715 $326 6.2539046316823423 $325 $422 forward 7 unknown #
vertex $-1 $390 $423 #
straight-curve $-1 -0.13119927522791386 -12.963745067542135 38.66854734719621 0 -0.74314481823134659 0.66913061440640931 I I #
point $-1 -0.13119927522791386 21.316799549726134 7.8022056608867949 #
point $-1 -8.3822726006524277 26.658485181467952 2.9925302099565982 #
straight-curve $-1 0 26.658485181467949 7.8022056608867958 -1 0 0 I I #
vertex $-1 $332 $424 #
point $-1 -5.5248230791025676 23.318511751190623 4.6542231171903481 #
vertex $-1 $336 $425 #
point $-1 -1.988648796777774 23.318511751190623 4.6542231171903481 #
straight-curve $-1 -40.656758323923462 26.658485181467949 0 0 0 -1 I I #
point $-1 -40.656758323923462 -26.658485181467949 -7.8022056608867958 #
straight-curve $-1 -40.656758323923462 0 -7.8022056608867958 0 1 0 I I #
point $-1 -40.656758323923462 26.658485181467949 -7.8022056608867958 #
coedge $-1 $358 $357 $405 $426 reversed $180 $-1 #
coedge $-1 $363 $359 $404 $426 forward $269 $-1 #
vertex $-1 $360 $427 #
straight-curve $-1 0 26.658485181467949 7.8022056608867958 -1 0 0 I I #
point $-1 -30.632080081926237 26.658485181467949 7.8022056608867958 #
vertex $-1 $426 $428 #
straight-curve $-1 0 -26.658485181467949 7.8022056608867958 1 0 0 I I #
straight-curve $-1 -40.656758323923462 -26.658485181467949 0 0 0 -1 I I #
straight-curve $-1 -40.656758323923462 26.658485181467949 0 0 0 -1 I I #
straight-curve $-1 -30.632080081926233 -26.658485181467945 24.002168074703782 0 0 -1 I I #
straight-curve $-1 -30.632080081926237 0 7.8022056608867958 0 -1 0 I I #
point $-1 -30.632080081926233 -26.658485181467949 2.534395657024282 #
straight-curve $-1 -10.339125324441566 -26.658485181467949 2.5343956570242829 1 0 0 I I #
point $-1 -30.632080081926237 -26.658485181467949 7.8022056608867958 #
point $-1 -24.944177548758745 -22.369733157208994 3.4738269082314757 #
point $-1 -16.41232374900752 -22.369733157208994 3.4738269082314757 #
straight-curve $-1 -0.13119927522791386 26.658485181467949 49.548132948105987 0 0 -1 I I #
point $-1 -0.13119927522791386 26.658485181467949 7.8022056608867958 #
straight-curve $-1 -2.1283679689700854 26.658485181467945 2.9925302099566018 -1 0 0 I I #
point $-1 -0.13119927522791386 26.658485181467952 2.9925302099565982 #
point $-1 -6.0248230791025676 22.983946443987417 4.2826507080746747 #
point $-1 -2.488648796777774 22.983946443987417 4.2826507080746747 #
edge $-1 $406 -26.658485181467949 $409 26.658485181467949 $404 $429 forward 7 unknown #
point $-1 -40.656758323923462 26.658485181467949 7.8022056608867958 #
point $-1 -40.656758323923462 -26.658485181467949 7.8022056608867958 #
straight-curve $-1 -40.656758323923462 0 7.8022056608867958 0 -1 0 I I #
End-of-ACIS-data 