500 0 6 0           
7 Unknown 11 ACIS 5.0 NT 24 Thu Mar 25 23:26:20 1999 
-1 9.9999999999999995e-007 1e-010 
body $-1 $6 $-1 $7 #
body $-1 $8 $-1 $9 #
body $-1 $10 $-1 $11 #
body $-1 $12 $-1 $13 #
body $-1 $14 $-1 $15 #
body $-1 $16 $-1 $17 #
lump $-1 $-1 $18 $0 #
transform $-1 1 0 0 0 1 0 0 0 1 52.486953337199012 34.398680893287377 8.0185553880156153 1 rotate no_reflect no_shear #
lump $-1 $-1 $19 $1 #
transform $-1 1 0 0 0 1 0 0 0 1 52.486953337199012 34.398680893287377 8.0185553880156153 1 rotate no_reflect no_shear #
lump $-1 $-1 $20 $2 #
transform $-1 1 0 0 0 1 0 0 0 1 52.486953337199012 34.398680893287377 8.0185553880156153 1 rotate no_reflect no_shear #
lump $-1 $-1 $21 $3 #
transform $-1 1 0 0 0 1 0 0 0 1 52.486953337199012 34.398680893287377 8.0185553880156153 1 rotate no_reflect no_shear #
lump $-1 $-1 $22 $4 #
transform $-1 1 0 0 0 1 0 0 0 1 52.486953337199012 34.398680893287377 8.0185553880156153 1 rotate no_reflect no_shear #
lump $-1 $-1 $23 $5 #
transform $-1 1 0 0 0 1 0 0 0 1 52.486953337199012 34.398680893287377 8.0185553880156153 1 rotate no_reflect no_shear #
shell $-1 $-1 $-1 $24 $-1 $6 #
shell $-1 $-1 $-1 $25 $-1 $8 #
shell $-1 $-1 $-1 $26 $-1 $10 #
shell $-1 $-1 $-1 $27 $-1 $12 #
shell $-1 $-1 $-1 $28 $-1 $14 #
shell $-1 $-1 $-1 $29 $-1 $16 #
face $-1 $30 $31 $18 $-1 $32 forward single #
face $-1 $33 $34 $19 $-1 $35 forward single #
face $-1 $36 $37 $20 $-1 $38 reversed single #
face $-1 $39 $40 $21 $-1 $41 forward single #
face $-1 $42 $43 $22 $-1 $44 forward single #
face $-1 $45 $46 $23 $-1 $47 forward single #
face $-1 $48 $49 $18 $-1 $50 reversed single #
loop $-1 $-1 $51 $24 #
plane-surface $-1 0 0 8.0185553880156153 0 0 1 1 0 0 forward_v I I I I #
face $-1 $52 $53 $19 $-1 $54 reversed single #
loop $-1 $-1 $55 $25 #
plane-surface $-1 -52.486953337199012 0 0 1 0 0 0 0 -1 forward_v I I I I #
face $-1 $56 $57 $20 $-1 $58 reversed single #
loop $-1 $-1 $59 $26 #
plane-surface $-1 -11.105619163858311 -96.100795900308555 86.101321073142458 -1 0 0 0 -0.5877852598018023 0.80901698891910034 forward_v I I I I #
face $-1 $60 $61 $21 $-1 $62 forward single #
loop $-1 $63 $64 $27 #
cone-surface $-1 -19.115108133283961 -29.262992041629481 4.010127571594662 0 0.5877852598018023 -0.80901698891910034 0.5 0 0 1 I I 0 1 0.5 forward I I I I #
face $-1 $65 $66 $22 $-1 $67 forward single #
loop $-1 $68 $69 $28 #
cone-surface $-1 -16.111549769749338 -29.262992041629481 4.010127571594662 0 0.5877852598018023 -0.80901698891910034 0.5 0 0 1 I I 0 1 0.5 forward I I I I #
face $-1 $70 $71 $23 $-1 $72 forward single #
loop $-1 $73 $74 $29 #
cone-surface $-1 -13.107991406214715 -29.262992041629481 4.010127571594662 0 0.5877852598018023 -0.80901698891910034 0.5 0 0 1 I I 0 1 0.5 forward I I I I #
face $-1 $75 $76 $18 $-1 $77 reversed single #
loop $-1 $-1 $78 $30 #
plane-surface $-1 0 0 -8.0185553880156153 0 0 1 1 0 0 forward_v I I I I #
coedge $-1 $79 $80 $81 $82 forward $31 $-1 #
face $-1 $83 $84 $19 $-1 $85 reversed single #
loop $-1 $-1 $86 $33 #
plane-surface $-1 0 34.398680893287377 0 0 -1 0 0 0 -1 forward_v I I I I #
coedge $-1 $87 $88 $89 $90 forward $34 $-1 #
face $-1 $91 $92 $20 $-1 $93 reversed single #
loop $-1 $-1 $94 $36 #
plane-surface $-1 -16.111549769749345 -34.398680893287363 1.1756471803463171 0 -0.5877852598018023 0.80901698891910034 1 0 0 forward_v I I I I #
coedge $-1 $95 $96 $97 $98 reversed $37 $-1 #
face $-1 $-1 $99 $21 $-1 $100 forward single #
loop $-1 $101 $102 $39 #
cone-surface $-1 -19.115108133283961 -28.689584353339601 3.2208996117785826 0 0.5877852598018023 -0.80901698891910034 0.25 0 0 1 I I -0.70710678118654746 0.70710678118654746 0.25 forward I I I I #
loop $-1 $-1 $103 $27 #
coedge $-1 $64 $64 $104 $105 reversed $40 $-1 #
face $-1 $-1 $106 $22 $-1 $107 forward single #
loop $-1 $108 $109 $42 #
cone-surface $-1 -16.111549769749338 -28.689584353339601 3.2208996117785826 0 0.5877852598018023 -0.80901698891910034 0.25 0 0 1 I I -0.70710678118654746 0.70710678118654746 0.25 forward I I I I #
loop $-1 $-1 $110 $28 #
coedge $-1 $69 $69 $111 $112 reversed $43 $-1 #
face $-1 $-1 $113 $23 $-1 $114 forward single #
loop $-1 $115 $116 $45 #
cone-surface $-1 -13.107991406214715 -28.689584353339601 3.2208996117785826 0 0.5877852598018023 -0.80901698891910034 0.25 0 0 1 I I -0.70710678118654746 0.70710678118654746 0.25 forward I I I I #
loop $-1 $-1 $117 $29 #
coedge $-1 $74 $74 $118 $119 reversed $46 $-1 #
face $-1 $120 $121 $18 $-1 $122 reversed single #
loop $-1 $-1 $123 $48 #
plane-surface $-1 0 -34.398680893287377 0 0 1 0 0 0 1 forward_v I I I I #
coedge $-1 $124 $125 $126 $127 forward $49 $-1 #
coedge $-1 $128 $51 $129 $130 forward $31 $-1 #
coedge $-1 $51 $128 $131 $132 forward $31 $-1 #
coedge $-1 $133 $134 $51 $82 reversed $135 $-1 #
edge $-1 $136 -34.398680893287377 $137 34.398680893287377 $81 $138 forward 7 unknown #
face $-1 $139 $140 $19 $-1 $141 reversed single #
loop $-1 $-1 $89 $52 #
plane-surface $-1 -57.108684997888183 0 3.3960479828097032 0 0 1 1 0 0 forward_v I I I I #
coedge $-1 $142 $143 $87 $144 forward $53 $-1 #
coedge $-1 $145 $55 $86 $144 reversed $34 $-1 #
coedge $-1 $55 $145 $146 $147 reversed $34 $-1 #
coedge $-1 $148 $149 $55 $90 reversed $84 $-1 #
edge $-1 $150 -34.398680893287377 $151 34.398680893287377 $89 $152 forward 7 unknown #
face $-1 $153 $154 $20 $-1 $155 reversed single #
loop $-1 $-1 $156 $56 #
plane-surface $-1 -21.11748037564038 -96.100795900308555 86.101321073142458 1 0 0 0 0.5877852598018023 -0.80901698891910034 forward_v I I I I #
coedge $-1 $157 $158 $159 $160 reversed $57 $-1 #
coedge $-1 $96 $59 $161 $162 reversed $37 $-1 #
coedge $-1 $59 $95 $157 $163 reversed $37 $-1 #
coedge $-1 $159 $164 $59 $98 forward $165 $-1 #
edge $-1 $166 13.6517170568669 $167 23.07017201350385 $97 $168 forward 7 unknown #
loop $-1 $-1 $104 $60 #
plane-surface $-1 -16.111549769749345 -34.398680893287363 1.1756471803463171 0 -0.5877852598018023 0.80901698891910034 1 0 0 forward_v I I I I #
loop $-1 $-1 $169 $39 #
coedge $-1 $102 $102 $103 $170 reversed $61 $-1 #
coedge $-1 $103 $103 $102 $170 forward $63 $-1 #
coedge $-1 $104 $104 $64 $105 forward $99 $-1 #
edge $-1 $171 3.648635851298499e-015 $171 6.283185307179604 $104 $172 forward 7 unknown #
loop $-1 $-1 $111 $65 #
plane-surface $-1 -16.111549769749345 -34.398680893287363 1.1756471803463171 0 -0.5877852598018023 0.80901698891910034 1 0 0 forward_v I I I I #
loop $-1 $-1 $173 $42 #
coedge $-1 $109 $109 $110 $174 reversed $66 $-1 #
coedge $-1 $110 $110 $109 $174 forward $68 $-1 #
coedge $-1 $111 $111 $69 $112 forward $106 $-1 #
edge $-1 $175 3.648635851298499e-015 $175 6.283185307179604 $111 $176 forward 7 unknown #
loop $-1 $-1 $118 $70 #
plane-surface $-1 -16.111549769749345 -34.398680893287363 1.1756471803463171 0 -0.5877852598018023 0.80901698891910034 1 0 0 forward_v I I I I #
loop $-1 $-1 $177 $45 #
coedge $-1 $116 $116 $117 $178 reversed $71 $-1 #
coedge $-1 $117 $117 $116 $178 forward $73 $-1 #
coedge $-1 $118 $118 $74 $119 forward $113 $-1 #
edge $-1 $179 3.648635851298499e-015 $179 6.283185307179604 $118 $180 forward 7 unknown #
face $-1 $181 $182 $18 $-1 $183 reversed single #
loop $-1 $-1 $184 $75 #
plane-surface $-1 -52.486953337199012 0 0 1 0 0 0 0 -1 forward_v I I I I #
coedge $-1 $185 $131 $186 $187 forward $76 $-1 #
coedge $-1 $188 $78 $185 $189 forward $49 $-1 #
coedge $-1 $78 $188 $190 $191 forward $49 $-1 #
coedge $-1 $134 $133 $78 $127 reversed $135 $-1 #
edge $-1 $192 -34.398680893287377 $193 34.398680893287377 $126 $194 forward 7 unknown #
coedge $-1 $80 $79 $195 $196 forward $31 $-1 #
coedge $-1 $197 $198 $79 $130 reversed $182 $-1 #
edge $-1 $137 -52.486953337199012 $199 52.486953337199012 $129 $200 forward 7 unknown #
coedge $-1 $123 $201 $80 $132 reversed $76 $-1 #
edge $-1 $202 -52.486953337199012 $136 52.486953337199012 $131 $203 forward 7 unknown #
coedge $-1 $126 $81 $201 $204 forward $135 $-1 #
coedge $-1 $81 $126 $197 $205 reversed $135 $-1 #
loop $-1 $-1 $133 $181 #
vertex $-1 $82 $206 #
vertex $-1 $82 $207 #
straight-curve $-1 52.486953337199012 0 8.0185553880156153 0 1 0 I I #
face $-1 $208 $209 $19 $-1 $210 forward single #
loop $-1 $-1 $211 $83 #
plane-surface $-1 -61.730416658577354 0 5.7073016854126593 1 0 0 0 0 -1 forward_v I I I I #
coedge $-1 $212 $86 $149 $213 reversed $53 $-1 #
coedge $-1 $86 $212 $214 $215 reversed $53 $-1 #
edge $-1 $216 -8.0185553880156153 $151 -3.3960479828097032 $86 $217 forward 7 unknown #
coedge $-1 $88 $87 $218 $219 reversed $34 $-1 #
coedge $-1 $220 $221 $88 $147 forward $222 $-1 #
edge $-1 $150 3.3960479828097032 $223 8.0185553880156153 $146 $224 forward 7 unknown #
coedge $-1 $225 $89 $221 $226 forward $84 $-1 #
coedge $-1 $89 $225 $142 $213 forward $84 $-1 #
vertex $-1 $147 $227 #
vertex $-1 $144 $228 #
straight-curve $-1 -52.486953337199012 0 3.3960479828097032 0 1 0 I I #
face $-1 $-1 $165 $20 $-1 $229 forward single #
loop $-1 $-1 $230 $91 #
plane-surface $-1 0 -34.398680893287377 0 0 1 0 0 0 1 forward_v I I I I #
coedge $-1 $231 $232 $233 $234 reversed $92 $-1 #
coedge $-1 $235 $94 $96 $163 forward $57 $-1 #
coedge $-1 $94 $235 $231 $236 forward $57 $-1 #
coedge $-1 $233 $97 $94 $160 forward $165 $-1 #
edge $-1 $167 3.0498442789836382 $237 13.061705490765707 $159 $238 forward 7 unknown #
coedge $-1 $239 $240 $95 $162 forward $154 $-1 #
edge $-1 $241 -41.875013356224919 $166 -35.032105148555615 $161 $242 forward 7 unknown #
edge $-1 $167 -11.641850647933374 $241 1.7500491998158137e-014 $96 $243 forward 7 unknown #
coedge $-1 $97 $233 $239 $244 forward $165 $-1 #
loop $-1 $-1 $233 $153 #
vertex $-1 $162 $245 #
vertex $-1 $98 $246 #
straight-curve $-1 -11.105619163858311 -48.050397950154277 8.0185553880156135 0 1 0 I I #
coedge $-1 $169 $169 $-1 $247 reversed $101 $-1 #
edge $-1 $248 0 $248 6.2831853071796004 $102 $249 forward 7 unknown #
vertex $-1 $105 $250 #
ellipse-curve $-1 -19.115108133283961 -29.689453414968906 4.5971012841809591 0 -0.5877852598018023 0.80901698891910034 0.5 0 0 1 I I #
coedge $-1 $173 $173 $-1 $251 reversed $108 $-1 #
edge $-1 $252 0 $252 6.2831853071796004 $109 $253 forward 7 unknown #
vertex $-1 $112 $254 #
ellipse-curve $-1 -16.111549769749338 -29.689453414968906 4.5971012841809591 0 -0.5877852598018023 0.80901698891910034 0.5 0 0 1 I I #
coedge $-1 $177 $177 $-1 $255 reversed $115 $-1 #
edge $-1 $256 0 $256 6.2831853071796004 $116 $257 forward 7 unknown #
vertex $-1 $119 $258 #
ellipse-curve $-1 -13.107991406214715 -29.689453414968906 4.5971012841809591 0 -0.5877852598018023 0.80901698891910034 0.5 0 0 1 I I #
face $-1 $-1 $135 $18 $-1 $259 reversed single #
loop $-1 $-1 $197 $120 #
plane-surface $-1 0 34.398680893287377 0 0 -1 0 0 0 -1 forward_v I I I I #
coedge $-1 $260 $195 $198 $261 forward $121 $-1 #
coedge $-1 $201 $123 $124 $189 reversed $76 $-1 #
coedge $-1 $195 $260 $123 $187 reversed $121 $-1 #
edge $-1 $202 -8.0185553880156153 $262 8.0185553880156153 $186 $263 forward 7 unknown #
coedge $-1 $125 $124 $260 $264 forward $49 $-1 #
edge $-1 $193 -52.486953337199012 $262 52.486953337199012 $185 $265 forward 7 unknown #
coedge $-1 $198 $197 $125 $191 reversed $182 $-1 #
edge $-1 $266 -52.486953337199012 $192 52.486953337199012 $190 $267 forward 7 unknown #
vertex $-1 $127 $268 #
vertex $-1 $204 $269 #
straight-curve $-1 52.486953337199012 0 -8.0185553880156153 0 -1 0 I I #
coedge $-1 $184 $186 $128 $196 reversed $121 $-1 #
edge $-1 $199 -34.398680893287377 $202 34.398680893287377 $195 $270 forward 7 unknown #
coedge $-1 $190 $129 $134 $205 forward $182 $-1 #
coedge $-1 $129 $190 $184 $261 reversed $182 $-1 #
vertex $-1 $130 $271 #
straight-curve $-1 0 34.398680893287377 8.0185553880156153 -1 0 0 I I #
coedge $-1 $131 $185 $133 $204 reversed $76 $-1 #
vertex $-1 $196 $272 #
straight-curve $-1 0 -34.398680893287377 8.0185553880156153 1 0 0 I I #
edge $-1 $136 -8.0185553880156153 $193 8.0185553880156153 $133 $273 forward 7 unknown #
edge $-1 $137 -8.0185553880156153 $192 8.0185553880156153 $134 $274 forward 7 unknown #
point $-1 52.486953337199012 -34.398680893287377 8.0185553880156153 #
point $-1 52.486953337199012 34.398680893287377 8.0185553880156153 #
face $-1 $-1 $222 $19 $-1 $275 reversed single #
loop $-1 $-1 $218 $139 #
plane-surface $-1 0 0 8.0185553880156153 0 0 1 1 0 0 forward_v I I I I #
coedge $-1 $276 $277 $212 $278 forward $140 $-1 #
coedge $-1 $143 $142 $211 $278 reversed $53 $-1 #
edge $-1 $279 -4.6217316606891714 $151 4.6217316606891714 $142 $280 forward 7 unknown #
coedge $-1 $281 $218 $143 $215 forward $209 $-1 #
edge $-1 $216 52.486953337199012 $282 61.730416658577354 $143 $283 forward 7 unknown #
vertex $-1 $215 $284 #
straight-curve $-1 -52.486953337199012 34.398680893287377 0 0 0 -1 I I #
coedge $-1 $214 $285 $145 $219 forward $209 $-1 #
edge $-1 $223 -34.398680893287377 $216 34.398680893287377 $218 $286 forward 7 unknown #
coedge $-1 $287 $146 $285 $288 reversed $222 $-1 #
coedge $-1 $146 $287 $148 $226 reversed $222 $-1 #
loop $-1 $-1 $146 $208 #
vertex $-1 $147 $289 #
straight-curve $-1 -52.486953337199012 -34.398680893287377 0 0 0 1 I I #
coedge $-1 $149 $148 $276 $290 forward $84 $-1 #
edge $-1 $150 -4.6217316606891714 $291 4.6217316606891714 $221 $292 forward 7 unknown #
point $-1 -52.486953337199012 -34.398680893287377 3.3960479828097032 #
point $-1 -52.486953337199012 34.398680893287377 3.3960479828097032 #
plane-surface $-1 0 0 8.0185553880156153 0 0 1 1 0 0 forward_v I I I I #
coedge $-1 $240 $239 $232 $293 forward $154 $-1 #
coedge $-1 $232 $156 $158 $236 reversed $92 $-1 #
coedge $-1 $156 $231 $230 $293 reversed $92 $-1 #
coedge $-1 $164 $159 $156 $234 forward $165 $-1 #
edge $-1 $237 -23.07017201350385 $294 -13.6517170568669 $233 $295 forward 7 unknown #
coedge $-1 $158 $157 $240 $296 reversed $57 $-1 #
edge $-1 $297 -1.7500491998158137e-014 $237 11.641850647933374 $231 $298 forward 7 unknown #
vertex $-1 $160 $299 #
straight-curve $-1 -8.0557748848746726 -24.980225936650427 8.0185553880156153 -1 0 0 I I #
coedge $-1 $230 $161 $164 $244 reversed $154 $-1 #
coedge $-1 $161 $230 $235 $296 forward $154 $-1 #
vertex $-1 $162 $300 #
straight-curve $-1 -11.105619163858311 -34.398680893287377 43.050660536571229 0 0 1 I I #
straight-curve $-1 -11.105619163858311 -34.398680893287363 1.1756471803463171 0 -0.80901698891910034 -0.5877852598018023 I I #
edge $-1 $294 -21.11748037564038 $166 -11.105619163858311 $239 $301 forward 7 unknown #
point $-1 -11.105619163858311 -34.398680893287377 8.0185553880156153 #
point $-1 -11.105619163858311 -24.980225936650427 8.0185553880156153 #
edge $-1 $302 1 $302 0 $169 $-1 forward 7 unknown #
vertex $-1 $170 $303 #
ellipse-curve $-1 -19.115108133283961 -28.836530668290052 3.4231538590083579 0 -0.5877852598018023 0.80901698891910034 0.5 0 0 1 I I #
point $-1 -18.615108133283961 -29.689453414968909 4.5971012841809671 #
edge $-1 $304 1 $304 0 $173 $-1 forward 7 unknown #
vertex $-1 $174 $305 #
ellipse-curve $-1 -16.111549769749338 -28.836530668290052 3.4231538590083579 0 -0.5877852598018023 0.80901698891910034 0.5 0 0 1 I I #
point $-1 -15.611549769749338 -29.689453414968909 4.5971012841809671 #
edge $-1 $306 1 $306 0 $177 $-1 forward 7 unknown #
vertex $-1 $178 $307 #
ellipse-curve $-1 -13.107991406214715 -28.836530668290052 3.4231538590083579 0 -0.5877852598018023 0.80901698891910034 0.5 0 0 1 I I #
point $-1 -12.607991406214715 -29.689453414968909 4.5971012841809671 #
plane-surface $-1 52.486953337199012 0 0 -1 0 0 0 0 1 forward_v I I I I #
coedge $-1 $186 $184 $188 $264 reversed $121 $-1 #
edge $-1 $199 -8.0185553880156153 $266 8.0185553880156153 $198 $308 forward 7 unknown #
vertex $-1 $264 $309 #
straight-curve $-1 -52.486953337199012 -34.398680893287377 0 0 0 -1 I I #
edge $-1 $262 -34.398680893287377 $266 34.398680893287377 $260 $310 forward 7 unknown #
straight-curve $-1 0 -34.398680893287377 -8.0185553880156153 -1 0 0 I I #
vertex $-1 $191 $311 #
straight-curve $-1 0 34.398680893287377 -8.0185553880156153 1 0 0 I I #
point $-1 52.486953337199012 34.398680893287377 -8.0185553880156153 #
point $-1 52.486953337199012 -34.398680893287377 -8.0185553880156153 #
straight-curve $-1 -52.486953337199012 0 8.0185553880156153 0 -1 0 I I #
point $-1 -52.486953337199012 34.398680893287377 8.0185553880156153 #
point $-1 -52.486953337199012 -34.398680893287377 8.0185553880156153 #
straight-curve $-1 52.486953337199012 -34.398680893287377 0 0 0 -1 I I #
straight-curve $-1 52.486953337199012 34.398680893287377 0 0 0 -1 I I #
plane-surface $-1 0 -34.398680893287377 0 0 1 0 0 0 1 forward_v I I I I #
coedge $-1 $312 $211 $225 $290 reversed $140 $-1 #
coedge $-1 $211 $312 $281 $313 reversed $140 $-1 #
edge $-1 $282 -2.311253702602956 $279 2.311253702602956 $212 $314 forward 7 unknown #
vertex $-1 $213 $315 #
straight-curve $-1 -57.108684997888183 34.398680893287377 3.3960479828097032 1 0 0 I I #
coedge $-1 $285 $214 $277 $313 forward $209 $-1 #
vertex $-1 $215 $316 #
straight-curve $-1 0 34.398680893287377 8.0185553880156153 -1 0 0 I I #
point $-1 -52.486953337199012 34.398680893287377 8.0185553880156153 #
coedge $-1 $218 $281 $220 $288 forward $209 $-1 #
straight-curve $-1 -52.486953337199012 0 8.0185553880156153 0 1 0 I I #
coedge $-1 $221 $220 $312 $317 forward $222 $-1 #
edge $-1 $318 -61.730416658577354 $223 -52.486953337199012 $220 $319 forward 7 unknown #
point $-1 -52.486953337199012 -34.398680893287377 8.0185553880156153 #
edge $-1 $291 -34.398680893287377 $279 34.398680893287377 $276 $320 forward 7 unknown #
vertex $-1 $290 $321 #
straight-curve $-1 -57.108684997888183 -34.398680893287377 3.3960479828097032 -1 0 0 I I #
edge $-1 $294 35.032105148555615 $297 41.875013356224919 $230 $322 forward 7 unknown #
vertex $-1 $244 $323 #
straight-curve $-1 -21.11748037564038 -48.050397950154277 8.0185553880156135 0 -1 0 I I #
edge $-1 $297 -13.061705490765707 $241 -3.0498442789836382 $240 $324 forward 7 unknown #
vertex $-1 $296 $325 #
straight-curve $-1 -21.11748037564038 -34.398680893287363 1.1756471803463171 0 0.80901698891910034 0.5877852598018023 I I #
point $-1 -21.11748037564038 -24.980225936650427 8.0185553880156153 #
point $-1 -11.105619163858311 -34.398680893287377 1.1756471803463069 #
straight-curve $-1 0 -34.398680893287377 8.0185553880156153 1 0 0 I I #
vertex $-1 $247 $326 #
point $-1 -18.615108133283961 -28.836530668290052 3.4231538590083579 #
vertex $-1 $251 $327 #
point $-1 -15.611549769749338 -28.836530668290052 3.4231538590083579 #
vertex $-1 $255 $328 #
point $-1 -12.607991406214715 -28.836530668290052 3.4231538590083579 #
straight-curve $-1 -52.486953337199012 34.398680893287377 0 0 0 -1 I I #
point $-1 -52.486953337199012 -34.398680893287377 -8.0185553880156153 #
straight-curve $-1 -52.486953337199012 0 -8.0185553880156153 0 1 0 I I #
point $-1 -52.486953337199012 34.398680893287377 -8.0185553880156153 #
coedge $-1 $277 $276 $287 $317 reversed $140 $-1 #
edge $-1 $282 -34.398680893287377 $318 34.398680893287377 $277 $329 forward 7 unknown #
straight-curve $-1 -61.730416658577354 34.398680893287377 5.7073016854126593 0 0 -1 I I #
point $-1 -61.730416658577354 34.398680893287377 3.3960479828097032 #
point $-1 -61.730416658577354 34.398680893287377 8.0185553880156153 #
edge $-1 $318 -2.311253702602956 $291 2.311253702602956 $312 $330 forward 7 unknown #
vertex $-1 $313 $331 #
straight-curve $-1 0 -34.398680893287377 8.0185553880156153 1 0 0 I I #
straight-curve $-1 -61.730416658577354 0 3.3960479828097032 0 1 0 I I #
point $-1 -61.730416658577354 -34.398680893287377 3.3960479828097032 #
straight-curve $-1 -21.11748037564038 -34.398680893287377 43.050660536571229 0 0 -1 I I #
point $-1 -21.11748037564038 -34.398680893287377 8.0185553880156153 #
straight-curve $-1 -8.0557748848746726 -34.398680893287377 1.1756471803463089 1 0 0 I I #
point $-1 -21.11748037564038 -34.398680893287377 1.1756471803463069 #
point $-1 -19.115108133283961 -28.54263803838915 3.0186453645488074 #
point $-1 -16.111549769749338 -28.54263803838915 3.0186453645488074 #
point $-1 -13.107991406214715 -28.54263803838915 3.0186453645488074 #
straight-curve $-1 -61.730416658577354 0 8.0185553880156153 0 -1 0 I I #
straight-curve $-1 -61.730416658577354 -34.398680893287377 5.7073016854126593 0 0 -1 I I #
point $-1 -61.730416658577354 -34.398680893287377 8.0185553880156153 #
End-of-ACIS-data 