500 0 14 0           
7 Unknown 11 ACIS 5.0 NT 24 Fri Mar 26 18:30:20 1999 
-1 9.9999999999999995e-007 1e-010 
body $-1 $14 $-1 $15 #
body $-1 $16 $-1 $17 #
body $-1 $18 $-1 $19 #
body $-1 $20 $-1 $21 #
body $-1 $22 $-1 $23 #
body $-1 $24 $-1 $25 #
body $-1 $26 $-1 $27 #
body $-1 $28 $-1 $29 #
body $-1 $30 $-1 $31 #
body $-1 $32 $-1 $33 #
body $-1 $34 $-1 $35 #
body $-1 $36 $-1 $37 #
body $-1 $38 $-1 $39 #
body $-1 $40 $-1 $41 #
lump $-1 $-1 $42 $0 #
transform $-1 1 0 0 0 1 0 0 0 1 40.559099093600267 24.792703976719743 7.3269639646279279 1 rotate no_reflect no_shear #
lump $-1 $-1 $43 $1 #
transform $-1 1 0 0 0 1 0 0 0 1 40.559099093600267 24.792703976719743 7.3269639646279279 1 rotate no_reflect no_shear #
lump $-1 $-1 $44 $2 #
transform $-1 1 0 0 0 1 0 0 0 1 40.559099093600267 24.792703976719743 7.3269639646279279 1 rotate no_reflect no_shear #
lump $-1 $-1 $45 $3 #
transform $-1 1 0 0 0 1 0 0 0 1 40.559099093600267 24.792703976719743 7.3269639646279279 1 rotate no_reflect no_shear #
lump $-1 $-1 $46 $4 #
transform $-1 1 0 0 0 1 0 0 0 1 40.559099093600267 24.792703976719743 7.3269639646279279 1 rotate no_reflect no_shear #
lump $-1 $-1 $47 $5 #
transform $-1 1 0 0 0 1 0 0 0 1 40.559099093600267 24.792703976719743 7.3269639646279279 1 rotate no_reflect no_shear #
lump $-1 $-1 $48 $6 #
transform $-1 1 0 0 0 1 0 0 0 1 40.559099093600267 24.792703976719743 7.3269639646279279 1 rotate no_reflect no_shear #
lump $-1 $-1 $49 $7 #
transform $-1 1 0 0 0 1 0 0 0 1 40.559099093600267 24.792703976719743 7.3269639646279279 1 rotate no_reflect no_shear #
lump $-1 $-1 $50 $8 #
transform $-1 1 0 0 0 1 0 0 0 1 40.559099093600267 24.792703976719743 7.3269639646279279 1 rotate no_reflect no_shear #
lump $-1 $-1 $51 $9 #
transform $-1 1 0 0 0 1 0 0 0 1 40.559099093600267 24.792703976719743 7.3269639646279279 1 rotate no_reflect no_shear #
lump $-1 $-1 $52 $10 #
transform $-1 1 0 0 0 1 0 0 0 1 40.559099093600267 24.792703976719743 7.3269639646279279 1 rotate no_reflect no_shear #
lump $-1 $-1 $53 $11 #
transform $-1 1 0 0 0 1 0 0 0 1 40.559099093600267 24.792703976719743 7.3269639646279279 1 rotate no_reflect no_shear #
lump $-1 $-1 $54 $12 #
transform $-1 1 0 0 0 1 0 0 0 1 40.559099093600267 24.792703976719743 7.3269639646279279 1 rotate no_reflect no_shear #
lump $-1 $-1 $55 $13 #
transform $-1 1 0 0 0 1 0 0 0 1 40.559099093600267 24.792703976719743 7.3269639646279279 1 rotate no_reflect no_shear #
shell $-1 $-1 $-1 $56 $-1 $14 #
shell $-1 $-1 $-1 $57 $-1 $16 #
shell $-1 $-1 $-1 $58 $-1 $18 #
shell $-1 $-1 $-1 $59 $-1 $20 #
shell $-1 $-1 $-1 $60 $-1 $22 #
shell $-1 $-1 $-1 $61 $-1 $24 #
shell $-1 $-1 $-1 $62 $-1 $26 #
shell $-1 $-1 $-1 $63 $-1 $28 #
shell $-1 $-1 $-1 $64 $-1 $30 #
shell $-1 $-1 $-1 $65 $-1 $32 #
shell $-1 $-1 $-1 $66 $-1 $34 #
shell $-1 $-1 $-1 $67 $-1 $36 #
shell $-1 $-1 $-1 $68 $-1 $38 #
shell $-1 $-1 $-1 $69 $-1 $40 #
face $-1 $70 $71 $42 $-1 $72 forward single #
face $-1 $73 $74 $43 $-1 $75 forward single #
face $-1 $76 $77 $44 $-1 $78 reversed single #
face $-1 $79 $80 $45 $-1 $81 forward single #
face $-1 $82 $83 $46 $-1 $84 forward single #
face $-1 $85 $86 $47 $-1 $87 reversed single #
face $-1 $88 $89 $48 $-1 $90 forward single #
face $-1 $91 $92 $49 $-1 $93 forward single #
face $-1 $94 $95 $50 $-1 $96 reversed single #
face $-1 $97 $98 $51 $-1 $99 forward single #
face $-1 $100 $101 $52 $-1 $102 forward single #
face $-1 $103 $104 $53 $-1 $105 reversed single #
face $-1 $106 $107 $54 $-1 $108 forward single #
face $-1 $109 $110 $55 $-1 $111 forward single #
face $-1 $112 $113 $42 $-1 $114 reversed single #
loop $-1 $-1 $115 $56 #
plane-surface $-1 0 0 7.3269639646279279 0 0 1 1 0 0 forward_v I I I I #
face $-1 $116 $117 $43 $-1 $118 reversed single #
loop $-1 $-1 $119 $57 #
plane-surface $-1 -40.559099093600267 0 0 1 0 0 0 0 -1 forward_v I I I I #
face $-1 $120 $121 $44 $-1 $122 reversed single #
loop $-1 $-1 $123 $58 #
plane-surface $-1 14.753062378838841 -15.23147729790708 112.57305359036279 0 -1 0 -0.52991927123019833 0 -0.84804809178421925 forward_v I I I I #
face $-1 $124 $125 $45 $-1 $126 forward single #
loop $-1 $127 $128 $59 #
cone-surface $-1 34.813340155644234 -20.002795306962213 3.2303932904680179 -0.52991927123019833 0 -0.84804809178421925 0.42402404589210962 0 -0.26495963561509916 1 I I 0 1 0.5 forward I I I I #
face $-1 $129 $130 $46 $-1 $131 forward single #
loop $-1 $132 $133 $60 #
cone-surface $-1 34.813340155644234 -17.140004501529134 3.2303932904680179 -0.52991927123019833 0 -0.84804809178421925 0.42402404589210962 0 -0.26495963561509916 1 I I 0 1 0.5 forward I I I I #
face $-1 $134 $135 $47 $-1 $136 reversed single #
loop $-1 $-1 $137 $61 #
plane-surface $-1 14.753062378838841 -2.8505440284099643 112.57305359036279 0 -1 0 -0.52991927123019833 0 -0.84804809178421925 forward_v I I I I #
face $-1 $138 $139 $48 $-1 $140 forward single #
loop $-1 $141 $142 $62 #
cone-surface $-1 34.813340155644234 -7.6218620374650961 3.2303932904680179 -0.52991927123019833 0 -0.84804809178421925 0.42402404589210962 0 -0.26495963561509916 1 I I 0 1 0.5 forward I I I I #
face $-1 $143 $144 $49 $-1 $145 forward single #
loop $-1 $146 $147 $63 #
cone-surface $-1 34.813340155644234 -4.7590712320320172 3.2303932904680179 -0.52991927123019833 0 -0.84804809178421925 0.42402404589210962 0 -0.26495963561509916 1 I I 0 1 0.5 forward I I I I #
face $-1 $148 $149 $50 $-1 $150 reversed single #
loop $-1 $-1 $151 $64 #
plane-surface $-1 14.753062378838841 9.5303892410871534 112.57305359036279 0 -1 0 -0.52991927123019833 0 -0.84804809178421925 forward_v I I I I #
face $-1 $152 $153 $51 $-1 $154 forward single #
loop $-1 $155 $156 $65 #
cone-surface $-1 34.813340155644234 4.7590712320320208 3.2303932904680179 -0.52991927123019833 0 -0.84804809178421925 0.42402404589210962 0 -0.26495963561509916 1 I I 0 1 0.5 forward I I I I #
face $-1 $157 $158 $52 $-1 $159 forward single #
loop $-1 $160 $161 $66 #
cone-surface $-1 34.813340155644234 7.6218620374650996 3.2303932904680179 -0.52991927123019833 0 -0.84804809178421925 0.42402404589210962 0 -0.26495963561509916 1 I I 0 1 0.5 forward I I I I #
face $-1 $162 $163 $53 $-1 $164 reversed single #
loop $-1 $-1 $165 $67 #
plane-surface $-1 14.753062378838841 21.911322510584267 112.57305359036279 0 -1 0 -0.52991927123019833 0 -0.84804809178421925 forward_v I I I I #
face $-1 $166 $167 $54 $-1 $168 forward single #
loop $-1 $169 $170 $68 #
cone-surface $-1 34.813340155644234 17.140004501529134 3.2303932904680179 -0.52991927123019833 0 -0.84804809178421925 0.42402404589210962 0 -0.26495963561509916 1 I I 0 1 0.5 forward I I I I #
face $-1 $171 $172 $55 $-1 $173 forward single #
loop $-1 $174 $175 $69 #
cone-surface $-1 34.813340155644234 20.002795306962213 3.2303932904680179 -0.52991927123019833 0 -0.84804809178421925 0.42402404589210962 0 -0.26495963561509916 1 I I 0 1 0.5 forward I I I I #
face $-1 $176 $177 $42 $-1 $178 reversed single #
loop $-1 $-1 $179 $70 #
plane-surface $-1 0 0 -7.3269639646279279 0 0 1 1 0 0 forward_v I I I I #
coedge $-1 $180 $181 $182 $183 forward $71 $-1 #
face $-1 $184 $185 $43 $-1 $186 forward single #
loop $-1 $-1 $187 $73 #
plane-surface $-1 0 24.792703976719743 0 0 -1 0 0 0 -1 forward_v I I I I #
coedge $-1 $188 $189 $190 $191 forward $74 $-1 #
face $-1 $192 $193 $44 $-1 $194 reversed single #
loop $-1 $-1 $195 $76 #
plane-surface $-1 -28.233034088029264 -18.571399904245673 43.780920408733266 0.52991927123019833 0 0.84804809178421925 0.84804809178421925 0 -0.52991927123019833 forward_v I I I I #
coedge $-1 $196 $197 $198 $199 reversed $77 $-1 #
face $-1 $-1 $200 $45 $-1 $201 forward single #
loop $-1 $202 $203 $79 #
cone-surface $-1 34.161905917398258 -20.002795306962213 2.1878806047434418 -0.52991927123019833 0 -0.84804809178421925 0.21201202294605481 0 -0.13247981780754958 1 I I -0.70710678118654746 0.70710678118654746 0.25 forward I I I I #
loop $-1 $-1 $204 $59 #
coedge $-1 $128 $128 $205 $206 reversed $80 $-1 #
face $-1 $-1 $207 $46 $-1 $208 forward single #
loop $-1 $209 $210 $82 #
cone-surface $-1 34.161905917398258 -17.140004501529134 2.1878806047434418 -0.52991927123019833 0 -0.84804809178421925 0.21201202294605481 0 -0.13247981780754958 1 I I -0.70710678118654746 0.70710678118654746 0.25 forward I I I I #
loop $-1 $-1 $211 $60 #
coedge $-1 $133 $133 $212 $213 reversed $83 $-1 #
face $-1 $214 $215 $47 $-1 $216 reversed single #
loop $-1 $-1 $217 $85 #
plane-surface $-1 -28.233034088029264 -6.1904666347485566 43.780920408733266 0.52991927123019833 0 0.84804809178421925 0.84804809178421925 0 -0.52991927123019833 forward_v I I I I #
coedge $-1 $218 $219 $220 $221 reversed $86 $-1 #
face $-1 $-1 $222 $48 $-1 $223 forward single #
loop $-1 $224 $225 $88 #
cone-surface $-1 34.161905917398258 -7.6218620374650961 2.1878806047434418 -0.52991927123019833 0 -0.84804809178421925 0.21201202294605481 0 -0.13247981780754958 1 I I -0.70710678118654746 0.70710678118654746 0.25 forward I I I I #
loop $-1 $-1 $226 $62 #
coedge $-1 $142 $142 $227 $228 reversed $89 $-1 #
face $-1 $-1 $229 $49 $-1 $230 forward single #
loop $-1 $231 $232 $91 #
cone-surface $-1 34.161905917398258 -4.7590712320320172 2.1878806047434418 -0.52991927123019833 0 -0.84804809178421925 0.21201202294605481 0 -0.13247981780754958 1 I I -0.70710678118654746 0.70710678118654746 0.25 forward I I I I #
loop $-1 $-1 $233 $63 #
coedge $-1 $147 $147 $234 $235 reversed $92 $-1 #
face $-1 $236 $237 $50 $-1 $238 reversed single #
loop $-1 $-1 $239 $94 #
plane-surface $-1 -28.233034088029264 6.1904666347485602 43.780920408733266 0.52991927123019833 0 0.84804809178421925 0.84804809178421925 0 -0.52991927123019833 forward_v I I I I #
coedge $-1 $240 $241 $242 $243 reversed $95 $-1 #
face $-1 $-1 $244 $51 $-1 $245 forward single #
loop $-1 $246 $247 $97 #
cone-surface $-1 34.161905917398258 4.7590712320320208 2.1878806047434418 -0.52991927123019833 0 -0.84804809178421925 0.21201202294605481 0 -0.13247981780754958 1 I I -0.70710678118654746 0.70710678118654746 0.25 forward I I I I #
loop $-1 $-1 $248 $65 #
coedge $-1 $156 $156 $249 $250 reversed $98 $-1 #
face $-1 $-1 $251 $52 $-1 $252 forward single #
loop $-1 $253 $254 $100 #
cone-surface $-1 34.161905917398258 7.6218620374650996 2.1878806047434418 -0.52991927123019833 0 -0.84804809178421925 0.21201202294605481 0 -0.13247981780754958 1 I I -0.70710678118654746 0.70710678118654746 0.25 forward I I I I #
loop $-1 $-1 $255 $66 #
coedge $-1 $161 $161 $256 $257 reversed $101 $-1 #
face $-1 $258 $259 $53 $-1 $260 reversed single #
loop $-1 $-1 $261 $103 #
plane-surface $-1 -28.233034088029264 18.571399904245673 43.780920408733266 0.52991927123019833 0 0.84804809178421925 0.84804809178421925 0 -0.52991927123019833 forward_v I I I I #
coedge $-1 $262 $263 $264 $265 reversed $104 $-1 #
face $-1 $-1 $266 $54 $-1 $267 forward single #
loop $-1 $268 $269 $106 #
cone-surface $-1 34.161905917398258 17.140004501529134 2.1878806047434418 -0.52991927123019833 0 -0.84804809178421925 0.21201202294605481 0 -0.13247981780754958 1 I I -0.70710678118654746 0.70710678118654746 0.25 forward I I I I #
loop $-1 $-1 $270 $68 #
coedge $-1 $170 $170 $271 $272 reversed $107 $-1 #
face $-1 $-1 $273 $55 $-1 $274 forward single #
loop $-1 $275 $276 $109 #
cone-surface $-1 34.161905917398258 20.002795306962213 2.1878806047434418 -0.52991927123019833 0 -0.84804809178421925 0.21201202294605481 0 -0.13247981780754958 1 I I -0.70710678118654746 0.70710678118654746 0.25 forward I I I I #
loop $-1 $-1 $277 $69 #
coedge $-1 $175 $175 $278 $279 reversed $110 $-1 #
face $-1 $280 $281 $42 $-1 $282 reversed single #
loop $-1 $-1 $283 $112 #
plane-surface $-1 0 -24.792703976719743 0 0 1 0 0 0 1 forward_v I I I I #
coedge $-1 $284 $285 $286 $287 forward $113 $-1 #
coedge $-1 $288 $115 $289 $290 forward $71 $-1 #
coedge $-1 $115 $288 $291 $292 forward $71 $-1 #
coedge $-1 $293 $294 $115 $183 reversed $295 $-1 #
edge $-1 $296 -24.792703976719743 $297 24.792703976719743 $182 $298 forward 7 unknown #
face $-1 $299 $300 $43 $-1 $301 reversed single #
loop $-1 $-1 $190 $116 #
plane-surface $-1 -45.213517901573155 0 2.1051563576656038 0 0 1 1 0 0 forward_v I I I I #
coedge $-1 $302 $303 $189 $304 forward $117 $-1 #
coedge $-1 $305 $119 $306 $307 reversed $74 $-1 #
coedge $-1 $119 $305 $187 $304 reversed $74 $-1 #
coedge $-1 $308 $309 $119 $191 reversed $185 $-1 #
edge $-1 $310 -24.792703976719743 $311 24.792703976719743 $190 $312 forward 7 unknown #
face $-1 $313 $314 $44 $-1 $315 forward single #
loop $-1 $-1 $316 $120 #
plane-surface $-1 14.753062378838841 -21.911322510584267 112.57305359036279 0 1 0 0.52991927123019833 0 0.84804809178421925 forward_v I I I I #
coedge $-1 $317 $318 $319 $320 reversed $121 $-1 #
coedge $-1 $197 $123 $321 $322 reversed $77 $-1 #
coedge $-1 $123 $196 $317 $323 reversed $77 $-1 #
coedge $-1 $319 $324 $123 $199 forward $314 $-1 #
edge $-1 $325 -33.182567904180843 $326 -22.728958869145611 $198 $327 forward 7 unknown #
loop $-1 $-1 $205 $124 #
plane-surface $-1 -28.233034088029264 -18.571399904245673 43.780920408733266 0.52991927123019833 0 0.84804809178421925 0.84804809178421925 0 -0.52991927123019833 forward_v I I I I #
loop $-1 $-1 $328 $79 #
coedge $-1 $203 $203 $204 $329 reversed $125 $-1 #
coedge $-1 $204 $204 $203 $329 forward $127 $-1 #
coedge $-1 $205 $205 $128 $206 forward $200 $-1 #
edge $-1 $330 0 $330 6.2831853071796004 $205 $331 forward 7 unknown #
loop $-1 $-1 $212 $129 #
plane-surface $-1 -28.233034088029264 -18.571399904245673 43.780920408733266 0.52991927123019833 0 0.84804809178421925 0.84804809178421925 0 -0.52991927123019833 forward_v I I I I #
loop $-1 $-1 $332 $82 #
coedge $-1 $210 $210 $211 $333 reversed $130 $-1 #
coedge $-1 $211 $211 $210 $333 forward $132 $-1 #
coedge $-1 $212 $212 $133 $213 forward $207 $-1 #
edge $-1 $334 0 $334 6.2831853071796004 $212 $335 forward 7 unknown #
face $-1 $336 $337 $47 $-1 $338 reversed single #
loop $-1 $-1 $339 $134 #
plane-surface $-1 14.753062378838841 -9.5303892410871498 112.57305359036279 0 1 0 0.52991927123019833 0 0.84804809178421925 forward_v I I I I #
coedge $-1 $340 $341 $342 $343 reversed $135 $-1 #
coedge $-1 $219 $137 $344 $345 reversed $86 $-1 #
coedge $-1 $137 $218 $340 $346 reversed $86 $-1 #
coedge $-1 $342 $347 $137 $221 forward $348 $-1 #
edge $-1 $349 -33.182567904180843 $350 -22.728958869145611 $220 $351 forward 7 unknown #
loop $-1 $-1 $227 $138 #
plane-surface $-1 -28.233034088029264 -6.1904666347485566 43.780920408733266 0.52991927123019833 0 0.84804809178421925 0.84804809178421925 0 -0.52991927123019833 forward_v I I I I #
loop $-1 $-1 $352 $88 #
coedge $-1 $225 $225 $226 $353 reversed $139 $-1 #
coedge $-1 $226 $226 $225 $353 forward $141 $-1 #
coedge $-1 $227 $227 $142 $228 forward $222 $-1 #
edge $-1 $354 0 $354 6.2831853071796004 $227 $355 forward 7 unknown #
loop $-1 $-1 $234 $143 #
plane-surface $-1 -28.233034088029264 -6.1904666347485566 43.780920408733266 0.52991927123019833 0 0.84804809178421925 0.84804809178421925 0 -0.52991927123019833 forward_v I I I I #
loop $-1 $-1 $356 $91 #
coedge $-1 $232 $232 $233 $357 reversed $144 $-1 #
coedge $-1 $233 $233 $232 $357 forward $146 $-1 #
coedge $-1 $234 $234 $147 $235 forward $229 $-1 #
edge $-1 $358 0 $358 6.2831853071796004 $234 $359 forward 7 unknown #
face $-1 $360 $361 $50 $-1 $362 reversed single #
loop $-1 $-1 $363 $148 #
plane-surface $-1 14.753062378838841 2.8505440284099679 112.57305359036279 0 1 0 0.52991927123019833 0 0.84804809178421925 forward_v I I I I #
coedge $-1 $364 $365 $366 $367 reversed $149 $-1 #
coedge $-1 $241 $151 $368 $369 reversed $95 $-1 #
coedge $-1 $151 $240 $364 $370 reversed $95 $-1 #
coedge $-1 $366 $371 $151 $243 forward $372 $-1 #
edge $-1 $373 -33.182567904180843 $374 -22.728958869145611 $242 $375 forward 7 unknown #
loop $-1 $-1 $249 $152 #
plane-surface $-1 -28.233034088029264 6.1904666347485602 43.780920408733266 0.52991927123019833 0 0.84804809178421925 0.84804809178421925 0 -0.52991927123019833 forward_v I I I I #
loop $-1 $-1 $376 $97 #
coedge $-1 $247 $247 $248 $377 reversed $153 $-1 #
coedge $-1 $248 $248 $247 $377 forward $155 $-1 #
coedge $-1 $249 $249 $156 $250 forward $244 $-1 #
edge $-1 $378 0 $378 6.2831853071796004 $249 $379 forward 7 unknown #
loop $-1 $-1 $256 $157 #
plane-surface $-1 -28.233034088029264 6.1904666347485602 43.780920408733266 0.52991927123019833 0 0.84804809178421925 0.84804809178421925 0 -0.52991927123019833 forward_v I I I I #
loop $-1 $-1 $380 $100 #
coedge $-1 $254 $254 $255 $381 reversed $158 $-1 #
coedge $-1 $255 $255 $254 $381 forward $160 $-1 #
coedge $-1 $256 $256 $161 $257 forward $251 $-1 #
edge $-1 $382 0 $382 6.2831853071796004 $256 $383 forward 7 unknown #
face $-1 $384 $385 $53 $-1 $386 reversed single #
loop $-1 $-1 $387 $162 #
plane-surface $-1 14.753062378838841 15.23147729790708 112.57305359036279 0 1 0 0.52991927123019833 0 0.84804809178421925 forward_v I I I I #
coedge $-1 $388 $389 $390 $391 reversed $163 $-1 #
coedge $-1 $263 $165 $392 $393 reversed $104 $-1 #
coedge $-1 $165 $262 $388 $394 reversed $104 $-1 #
coedge $-1 $390 $395 $165 $265 forward $396 $-1 #
edge $-1 $397 -33.182567904180843 $398 -22.728958869145611 $264 $399 forward 7 unknown #
loop $-1 $-1 $271 $166 #
plane-surface $-1 -28.233034088029264 18.571399904245673 43.780920408733266 0.52991927123019833 0 0.84804809178421925 0.84804809178421925 0 -0.52991927123019833 forward_v I I I I #
loop $-1 $-1 $400 $106 #
coedge $-1 $269 $269 $270 $401 reversed $167 $-1 #
coedge $-1 $270 $270 $269 $401 forward $169 $-1 #
coedge $-1 $271 $271 $170 $272 forward $266 $-1 #
edge $-1 $402 0 $402 6.2831853071796004 $271 $403 forward 7 unknown #
loop $-1 $-1 $278 $171 #
plane-surface $-1 -28.233034088029264 18.571399904245673 43.780920408733266 0.52991927123019833 0 0.84804809178421925 0.84804809178421925 0 -0.52991927123019833 forward_v I I I I #
loop $-1 $-1 $404 $109 #
coedge $-1 $276 $276 $277 $405 reversed $172 $-1 #
coedge $-1 $277 $277 $276 $405 forward $174 $-1 #
coedge $-1 $278 $278 $175 $279 forward $273 $-1 #
edge $-1 $406 0 $406 6.2831853071796004 $278 $407 forward 7 unknown #
face $-1 $408 $409 $42 $-1 $410 reversed single #
loop $-1 $-1 $411 $176 #
plane-surface $-1 -40.559099093600267 0 0 1 0 0 0 0 -1 forward_v I I I I #
coedge $-1 $412 $291 $411 $413 forward $177 $-1 #
coedge $-1 $414 $179 $412 $415 forward $113 $-1 #
coedge $-1 $179 $414 $416 $417 forward $113 $-1 #
coedge $-1 $294 $293 $179 $287 reversed $295 $-1 #
edge $-1 $418 -24.792703976719743 $419 24.792703976719743 $286 $420 forward 7 unknown #
coedge $-1 $181 $180 $421 $422 forward $71 $-1 #
coedge $-1 $423 $424 $180 $290 reversed $409 $-1 #
edge $-1 $297 -40.559099093600267 $425 40.559099093600267 $289 $426 forward 7 unknown #
coedge $-1 $283 $427 $181 $292 reversed $177 $-1 #
edge $-1 $428 -40.559099093600267 $296 40.559099093600267 $291 $429 forward 7 unknown #
coedge $-1 $286 $182 $427 $430 forward $295 $-1 #
coedge $-1 $182 $286 $423 $431 reversed $295 $-1 #
loop $-1 $-1 $293 $408 #
vertex $-1 $183 $432 #
vertex $-1 $183 $433 #
straight-curve $-1 40.559099093600267 0 7.3269639646279279 0 1 0 I I #
face $-1 $434 $435 $43 $-1 $436 reversed single #
loop $-1 $-1 $437 $184 #
plane-surface $-1 -45.213517901573155 0 -0.89484364233439617 0 0 1 1 0 0 forward_v I I I I #
coedge $-1 $438 $187 $439 $440 reversed $117 $-1 #
coedge $-1 $187 $438 $308 $441 reversed $117 $-1 #
edge $-1 $310 -2.1051563576656038 $442 0.89484364233439617 $187 $443 forward 7 unknown #
coedge $-1 $189 $188 $437 $444 forward $74 $-1 #
coedge $-1 $445 $446 $188 $307 forward $447 $-1 #
edge $-1 $448 -0.89484364233439617 $311 2.1051563576656038 $306 $449 forward 7 unknown #
coedge $-1 $450 $190 $303 $441 forward $185 $-1 #
coedge $-1 $190 $450 $445 $451 forward $185 $-1 #
vertex $-1 $304 $452 #
vertex $-1 $451 $453 #
straight-curve $-1 -40.559099093600267 0 2.1051563576656038 0 -1 0 I I #
face $-1 $-1 $454 $44 $-1 $455 reversed single #
loop $-1 $-1 $198 $192 #
plane-surface $-1 0 0 7.3269639646279279 0 0 1 1 0 0 forward_v I I I I #
coedge $-1 $456 $457 $458 $459 reversed $193 $-1 #
coedge $-1 $460 $195 $197 $323 forward $121 $-1 #
coedge $-1 $195 $460 $456 $461 forward $121 $-1 #
coedge $-1 $458 $198 $195 $320 forward $314 $-1 #
edge $-1 $326 5.9457773457842436 $462 12.62562255846143 $319 $463 forward 7 unknown #
coedge $-1 $464 $465 $196 $322 forward $454 $-1 #
edge $-1 $466 -55.491702853316241 $325 -48.959562830553466 $321 $467 forward 7 unknown #
edge $-1 $326 68.791528112344579 $466 81.118198187200562 $197 $468 forward 7 unknown #
coedge $-1 $198 $458 $464 $469 forward $314 $-1 #
vertex $-1 $322 $470 #
vertex $-1 $199 $471 #
straight-curve $-1 7.3765311894194205 -15.23147729790708 7.3269639646279288 -1 0 0 I I #
coedge $-1 $328 $328 $-1 $472 reversed $202 $-1 #
edge $-1 $473 0 $473 6.2831853071796004 $203 $474 forward 7 unknown #
vertex $-1 $206 $475 #
ellipse-curve $-1 35.33229457608266 -20.002795306962213 4.0608939532465396 0.52991927123019833 0 0.84804809178421925 0.42402404589210962 0 -0.26495963561509916 1 I I #
coedge $-1 $332 $332 $-1 $476 reversed $209 $-1 #
edge $-1 $477 0 $477 6.2831853071796004 $210 $478 forward 7 unknown #
vertex $-1 $213 $479 #
ellipse-curve $-1 35.33229457608266 -17.140004501529134 4.0608939532465396 0.52991927123019833 0 0.84804809178421925 0.42402404589210962 0 -0.26495963561509916 1 I I #
face $-1 $-1 $348 $47 $-1 $480 forward single #
loop $-1 $-1 $481 $214 #
plane-surface $-1 40.559099093600267 0 0 -1 0 0 0 0 1 forward_v I I I I #
coedge $-1 $482 $483 $484 $485 reversed $215 $-1 #
coedge $-1 $486 $217 $219 $346 forward $135 $-1 #
coedge $-1 $217 $486 $482 $487 forward $135 $-1 #
coedge $-1 $484 $220 $217 $343 forward $348 $-1 #
edge $-1 $350 -0.24468928896431397 $488 6.4351559237128715 $342 $489 forward 7 unknown #
coedge $-1 $490 $491 $218 $345 forward $337 $-1 #
edge $-1 $492 -55.491702853316241 $349 -48.959562830553466 $344 $493 forward 7 unknown #
edge $-1 $350 68.791528112344579 $492 81.118198187200562 $219 $494 forward 7 unknown #
coedge $-1 $220 $484 $490 $495 forward $348 $-1 #
loop $-1 $-1 $484 $336 #
vertex $-1 $345 $496 #
vertex $-1 $221 $497 #
straight-curve $-1 7.3765311894194205 -2.8505440284099643 7.3269639646279288 -1 0 0 I I #
coedge $-1 $352 $352 $-1 $498 reversed $224 $-1 #
edge $-1 $499 0 $499 6.2831853071796004 $225 $500 forward 7 unknown #
vertex $-1 $228 $501 #
ellipse-curve $-1 35.33229457608266 -7.6218620374650961 4.0608939532465396 0.52991927123019833 0 0.84804809178421925 0.42402404589210962 0 -0.26495963561509916 1 I I #
coedge $-1 $356 $356 $-1 $502 reversed $231 $-1 #
edge $-1 $503 0 $503 6.2831853071796004 $232 $504 forward 7 unknown #
vertex $-1 $235 $505 #
ellipse-curve $-1 35.33229457608266 -4.7590712320320172 4.0608939532465396 0.52991927123019833 0 0.84804809178421925 0.42402404589210962 0 -0.26495963561509916 1 I I #
face $-1 $-1 $372 $50 $-1 $506 forward single #
loop $-1 $-1 $507 $236 #
plane-surface $-1 40.559099093600267 0 0 -1 0 0 0 0 1 forward_v I I I I #
coedge $-1 $508 $509 $510 $511 reversed $237 $-1 #
coedge $-1 $512 $239 $241 $370 forward $149 $-1 #
coedge $-1 $239 $512 $508 $513 forward $149 $-1 #
coedge $-1 $510 $242 $239 $367 forward $372 $-1 #
edge $-1 $374 -6.4351559237128733 $514 0.24468928896431219 $366 $515 forward 7 unknown #
coedge $-1 $516 $517 $240 $369 forward $361 $-1 #
edge $-1 $518 -55.491702853316241 $373 -48.959562830553466 $368 $519 forward 7 unknown #
edge $-1 $374 68.791528112344579 $518 81.118198187200562 $241 $520 forward 7 unknown #
coedge $-1 $242 $510 $516 $521 forward $372 $-1 #
loop $-1 $-1 $510 $360 #
vertex $-1 $369 $522 #
vertex $-1 $243 $523 #
straight-curve $-1 7.3765311894194205 9.5303892410871534 7.3269639646279288 -1 0 0 I I #
coedge $-1 $376 $376 $-1 $524 reversed $246 $-1 #
edge $-1 $525 0 $525 6.2831853071796004 $247 $526 forward 7 unknown #
vertex $-1 $250 $527 #
ellipse-curve $-1 35.33229457608266 4.7590712320320208 4.0608939532465396 0.52991927123019833 0 0.84804809178421925 0.42402404589210962 0 -0.26495963561509916 1 I I #
coedge $-1 $380 $380 $-1 $528 reversed $253 $-1 #
edge $-1 $529 0 $529 6.2831853071796004 $254 $530 forward 7 unknown #
vertex $-1 $257 $531 #
ellipse-curve $-1 35.33229457608266 7.6218620374650996 4.0608939532465396 0.52991927123019833 0 0.84804809178421925 0.42402404589210962 0 -0.26495963561509916 1 I I #
face $-1 $-1 $396 $53 $-1 $532 forward single #
loop $-1 $-1 $533 $258 #
plane-surface $-1 40.559099093600267 0 0 -1 0 0 0 0 1 forward_v I I I I #
coedge $-1 $534 $535 $536 $537 reversed $259 $-1 #
coedge $-1 $538 $261 $263 $394 forward $163 $-1 #
coedge $-1 $261 $538 $534 $539 forward $163 $-1 #
coedge $-1 $536 $264 $261 $391 forward $396 $-1 #
edge $-1 $398 -12.62562255846143 $540 -5.9457773457842436 $390 $541 forward 7 unknown #
coedge $-1 $542 $543 $262 $393 forward $385 $-1 #
edge $-1 $544 -55.491702853316241 $397 -48.959562830553466 $392 $545 forward 7 unknown #
edge $-1 $398 68.791528112344579 $544 81.118198187200562 $263 $546 forward 7 unknown #
coedge $-1 $264 $536 $542 $547 forward $396 $-1 #
loop $-1 $-1 $536 $384 #
vertex $-1 $393 $548 #
vertex $-1 $265 $549 #
straight-curve $-1 7.3765311894194205 21.911322510584267 7.3269639646279288 -1 0 0 I I #
coedge $-1 $400 $400 $-1 $550 reversed $268 $-1 #
edge $-1 $551 0 $551 6.2831853071796004 $269 $552 forward 7 unknown #
vertex $-1 $272 $553 #
ellipse-curve $-1 35.33229457608266 17.140004501529134 4.0608939532465396 0.52991927123019833 0 0.84804809178421925 0.42402404589210962 0 -0.26495963561509916 1 I I #
coedge $-1 $404 $404 $-1 $554 reversed $275 $-1 #
edge $-1 $555 0 $555 6.2831853071796004 $276 $556 forward 7 unknown #
vertex $-1 $279 $557 #
ellipse-curve $-1 35.33229457608266 20.002795306962213 4.0608939532465396 0.52991927123019833 0 0.84804809178421925 0.42402404589210962 0 -0.26495963561509916 1 I I #
face $-1 $-1 $295 $42 $-1 $558 reversed single #
loop $-1 $-1 $423 $280 #
plane-surface $-1 0 24.792703976719743 0 0 -1 0 0 0 -1 forward_v I I I I #
coedge $-1 $421 $559 $283 $413 reversed $281 $-1 #
coedge $-1 $427 $283 $284 $415 reversed $177 $-1 #
edge $-1 $428 -7.3269639646279279 $560 7.3269639646279279 $411 $561 forward 7 unknown #
coedge $-1 $285 $284 $559 $562 forward $113 $-1 #
edge $-1 $419 -40.559099093600267 $560 40.559099093600267 $412 $563 forward 7 unknown #
coedge $-1 $424 $423 $285 $417 reversed $409 $-1 #
edge $-1 $564 -40.559099093600267 $418 40.559099093600267 $416 $565 forward 7 unknown #
vertex $-1 $287 $566 #
vertex $-1 $430 $567 #
straight-curve $-1 40.559099093600267 0 -7.3269639646279279 0 -1 0 I I #
coedge $-1 $568 $411 $288 $422 reversed $281 $-1 #
edge $-1 $425 -24.792703976719743 $428 24.792703976719743 $421 $569 forward 7 unknown #
coedge $-1 $416 $289 $294 $431 forward $409 $-1 #
coedge $-1 $289 $416 $568 $570 reversed $409 $-1 #
vertex $-1 $290 $571 #
straight-curve $-1 0 24.792703976719743 7.3269639646279279 -1 0 0 I I #
coedge $-1 $291 $412 $293 $430 reversed $177 $-1 #
vertex $-1 $422 $572 #
straight-curve $-1 0 -24.792703976719743 7.3269639646279279 1 0 0 I I #
edge $-1 $296 -7.3269639646279279 $419 7.3269639646279279 $293 $573 forward 7 unknown #
edge $-1 $297 -7.3269639646279279 $418 7.3269639646279279 $294 $574 forward 7 unknown #
point $-1 40.559099093600267 -24.792703976719743 7.3269639646279279 #
point $-1 40.559099093600267 24.792703976719743 7.3269639646279279 #
face $-1 $-1 $447 $43 $-1 $575 reversed single #
loop $-1 $-1 $576 $299 #
plane-surface $-1 -49.867936709546044 0 0.60515635766560383 1 0 0 0 0 -1 forward_v I I I I #
coedge $-1 $577 $439 $305 $444 reversed $300 $-1 #
coedge $-1 $303 $302 $576 $578 reversed $117 $-1 #
coedge $-1 $437 $579 $302 $440 forward $300 $-1 #
edge $-1 $580 -4.6544188079728883 $442 4.6544188079728883 $302 $581 forward 7 unknown #
edge $-1 $310 -4.6544188079728883 $582 4.6544188079728883 $303 $583 forward 7 unknown #
vertex $-1 $304 $584 #
straight-curve $-1 -40.559099093600267 24.792703976719743 0 0 0 -1 I I #
edge $-1 $448 -24.792703976719743 $442 24.792703976719743 $437 $585 forward 7 unknown #
coedge $-1 $586 $306 $309 $451 reversed $447 $-1 #
coedge $-1 $306 $586 $577 $587 reversed $447 $-1 #
loop $-1 $-1 $306 $434 #
vertex $-1 $307 $588 #
straight-curve $-1 -40.559099093600267 -24.792703976719743 0 0 0 1 I I #
coedge $-1 $309 $308 $589 $590 forward $185 $-1 #
edge $-1 $591 -4.6544188079728883 $311 4.6544188079728883 $445 $592 forward 7 unknown #
point $-1 -40.559099093600267 24.792703976719743 2.1051563576656038 #
point $-1 -40.559099093600267 -24.792703976719743 2.1051563576656038 #
loop $-1 $-1 $321 $313 #
plane-surface $-1 40.559099093600267 0 0 -1 0 0 0 0 1 forward_v I I I I #
coedge $-1 $457 $316 $318 $461 reversed $193 $-1 #
coedge $-1 $316 $456 $593 $594 reversed $193 $-1 #
coedge $-1 $324 $319 $316 $459 forward $314 $-1 #
edge $-1 $462 22.728958869145611 $595 33.182567904180843 $458 $596 forward 7 unknown #
coedge $-1 $318 $317 $465 $597 reversed $121 $-1 #
edge $-1 $598 -81.118198187200562 $462 -68.791528112344579 $456 $599 forward 7 unknown #
vertex $-1 $320 $600 #
straight-curve $-1 30.105490058565032 -9.2856999521228367 7.3269639646279252 0 -1 0 I I #
coedge $-1 $593 $321 $324 $469 reversed $454 $-1 #
coedge $-1 $321 $593 $460 $597 forward $454 $-1 #
vertex $-1 $322 $601 #
straight-curve $-1 40.559099093600267 -15.23147729790708 56.286526795181395 0 0 1 I I #
straight-curve $-1 -28.233034088029264 -15.23147729790708 43.780920408733266 0.84804809178421925 0 -0.52991927123019833 I I #
edge $-1 $595 -21.911322510584267 $325 -15.23147729790708 $464 $602 forward 7 unknown #
point $-1 40.559099093600267 -15.23147729790708 7.3269639646279279 #
point $-1 30.105490058565032 -15.23147729790708 7.3269639646279288 #
edge $-1 $603 1 $603 0 $328 $-1 forward 7 unknown #
vertex $-1 $329 $604 #
ellipse-curve $-1 34.294385735205807 -20.002795306962213 2.3998926276894967 0.52991927123019833 0 0.84804809178421925 0.42402404589210962 0 -0.26495963561509916 1 I I #
point $-1 35.756318621974764 -20.002795306962213 3.7959343176314402 #
edge $-1 $605 1 $605 0 $332 $-1 forward 7 unknown #
vertex $-1 $333 $606 #
ellipse-curve $-1 34.294385735205807 -17.140004501529134 2.3998926276894967 0.52991927123019833 0 0.84804809178421925 0.42402404589210962 0 -0.26495963561509916 1 I I #
point $-1 35.756318621974764 -17.140004501529134 3.7959343176314402 #
plane-surface $-1 0 0 7.3269639646279279 0 0 1 1 0 0 forward_v I I I I #
coedge $-1 $491 $490 $483 $607 forward $337 $-1 #
coedge $-1 $483 $339 $341 $487 reversed $215 $-1 #
coedge $-1 $339 $482 $481 $607 reversed $215 $-1 #
coedge $-1 $347 $342 $339 $485 forward $348 $-1 #
edge $-1 $488 22.728958869145611 $608 33.182567904180843 $484 $609 forward 7 unknown #
coedge $-1 $341 $340 $491 $610 reversed $135 $-1 #
edge $-1 $611 -81.118198187200562 $488 -68.791528112344579 $482 $612 forward 7 unknown #
vertex $-1 $343 $613 #
straight-curve $-1 30.105490058565032 -3.0952333173742783 7.3269639646279252 0 -1 0 I I #
coedge $-1 $481 $344 $347 $495 reversed $337 $-1 #
coedge $-1 $344 $481 $486 $610 forward $337 $-1 #
vertex $-1 $345 $614 #
straight-curve $-1 40.559099093600267 -2.8505440284099643 56.286526795181395 0 0 1 I I #
straight-curve $-1 -28.233034088029264 -2.8505440284099643 43.780920408733266 0.84804809178421925 0 -0.52991927123019833 I I #
edge $-1 $608 -9.5303892410871498 $349 -2.8505440284099643 $490 $615 forward 7 unknown #
point $-1 40.559099093600267 -2.8505440284099643 7.3269639646279279 #
point $-1 30.105490058565032 -2.8505440284099643 7.3269639646279288 #
edge $-1 $616 1 $616 0 $352 $-1 forward 7 unknown #
vertex $-1 $353 $617 #
ellipse-curve $-1 34.294385735205807 -7.6218620374650961 2.3998926276894967 0.52991927123019833 0 0.84804809178421925 0.42402404589210962 0 -0.26495963561509916 1 I I #
point $-1 35.756318621974764 -7.6218620374650961 3.7959343176314402 #
edge $-1 $618 1 $618 0 $356 $-1 forward 7 unknown #
vertex $-1 $357 $619 #
ellipse-curve $-1 34.294385735205807 -4.7590712320320172 2.3998926276894967 0.52991927123019833 0 0.84804809178421925 0.42402404589210962 0 -0.26495963561509916 1 I I #
point $-1 35.756318621974764 -4.7590712320320172 3.7959343176314402 #
plane-surface $-1 0 0 7.3269639646279279 0 0 1 1 0 0 forward_v I I I I #
coedge $-1 $517 $516 $509 $620 forward $361 $-1 #
coedge $-1 $509 $363 $365 $513 reversed $237 $-1 #
coedge $-1 $363 $508 $507 $620 reversed $237 $-1 #
coedge $-1 $371 $366 $363 $511 forward $372 $-1 #
edge $-1 $514 22.728958869145611 $621 33.182567904180843 $510 $622 forward 7 unknown #
coedge $-1 $365 $364 $517 $623 reversed $149 $-1 #
edge $-1 $624 -81.118198187200562 $514 -68.791528112344579 $508 $625 forward 7 unknown #
vertex $-1 $367 $626 #
straight-curve $-1 30.105490058565032 3.0952333173742801 7.3269639646279252 0 -1 0 I I #
coedge $-1 $507 $368 $371 $521 reversed $361 $-1 #
coedge $-1 $368 $507 $512 $623 forward $361 $-1 #
vertex $-1 $369 $627 #
straight-curve $-1 40.559099093600267 9.5303892410871534 56.286526795181395 0 0 1 I I #
straight-curve $-1 -28.233034088029264 9.5303892410871534 43.780920408733266 0.84804809178421925 0 -0.52991927123019833 I I #
edge $-1 $621 2.8505440284099679 $373 9.5303892410871534 $516 $628 forward 7 unknown #
point $-1 40.559099093600267 9.5303892410871534 7.3269639646279279 #
point $-1 30.105490058565032 9.5303892410871534 7.3269639646279288 #
edge $-1 $629 1 $629 0 $376 $-1 forward 7 unknown #
vertex $-1 $377 $630 #
ellipse-curve $-1 34.294385735205807 4.7590712320320208 2.3998926276894967 0.52991927123019833 0 0.84804809178421925 0.42402404589210962 0 -0.26495963561509916 1 I I #
point $-1 35.756318621974764 4.7590712320320208 3.7959343176314402 #
edge $-1 $631 1 $631 0 $380 $-1 forward 7 unknown #
vertex $-1 $381 $632 #
ellipse-curve $-1 34.294385735205807 7.6218620374650996 2.3998926276894967 0.52991927123019833 0 0.84804809178421925 0.42402404589210962 0 -0.26495963561509916 1 I I #
point $-1 35.756318621974764 7.6218620374650996 3.7959343176314402 #
plane-surface $-1 0 0 7.3269639646279279 0 0 1 1 0 0 forward_v I I I I #
coedge $-1 $543 $542 $535 $633 forward $385 $-1 #
coedge $-1 $535 $387 $389 $539 reversed $259 $-1 #
coedge $-1 $387 $534 $533 $633 reversed $259 $-1 #
coedge $-1 $395 $390 $387 $537 forward $396 $-1 #
edge $-1 $540 22.728958869145611 $634 33.182567904180843 $536 $635 forward 7 unknown #
coedge $-1 $389 $388 $543 $636 reversed $163 $-1 #
edge $-1 $637 -81.118198187200562 $540 -68.791528112344579 $534 $638 forward 7 unknown #
vertex $-1 $391 $639 #
straight-curve $-1 30.105490058565032 9.2856999521228367 7.3269639646279252 0 -1 0 I I #
coedge $-1 $533 $392 $395 $547 reversed $385 $-1 #
coedge $-1 $392 $533 $538 $636 forward $385 $-1 #
vertex $-1 $393 $640 #
straight-curve $-1 40.559099093600267 21.911322510584267 56.286526795181395 0 0 1 I I #
straight-curve $-1 -28.233034088029264 21.911322510584267 43.780920408733266 0.84804809178421925 0 -0.52991927123019833 I I #
edge $-1 $634 15.23147729790708 $397 21.911322510584267 $542 $641 forward 7 unknown #
point $-1 40.559099093600267 21.911322510584267 7.3269639646279279 #
point $-1 30.105490058565032 21.911322510584267 7.3269639646279288 #
edge $-1 $642 1 $642 0 $400 $-1 forward 7 unknown #
vertex $-1 $401 $643 #
ellipse-curve $-1 34.294385735205807 17.140004501529134 2.3998926276894967 0.52991927123019833 0 0.84804809178421925 0.42402404589210962 0 -0.26495963561509916 1 I I #
point $-1 35.756318621974764 17.140004501529134 3.7959343176314402 #
edge $-1 $644 1 $644 0 $404 $-1 forward 7 unknown #
vertex $-1 $405 $645 #
ellipse-curve $-1 34.294385735205807 20.002795306962213 2.3998926276894967 0.52991927123019833 0 0.84804809178421925 0.42402404589210962 0 -0.26495963561509916 1 I I #
point $-1 35.756318621974764 20.002795306962213 3.7959343176314402 #
plane-surface $-1 40.559099093600267 0 0 -1 0 0 0 0 1 forward_v I I I I #
coedge $-1 $411 $568 $414 $562 reversed $281 $-1 #
vertex $-1 $562 $646 #
straight-curve $-1 -40.559099093600267 -24.792703976719743 0 0 0 -1 I I #
edge $-1 $560 -24.792703976719743 $564 24.792703976719743 $559 $647 forward 7 unknown #
straight-curve $-1 0 -24.792703976719743 -7.3269639646279279 -1 0 0 I I #
vertex $-1 $417 $648 #
straight-curve $-1 0 24.792703976719743 -7.3269639646279279 1 0 0 I I #
point $-1 40.559099093600267 24.792703976719743 -7.3269639646279279 #
point $-1 40.559099093600267 -24.792703976719743 -7.3269639646279279 #
coedge $-1 $559 $421 $424 $570 forward $281 $-1 #
straight-curve $-1 -40.559099093600267 0 7.3269639646279279 0 -1 0 I I #
edge $-1 $425 -7.3269639646279279 $564 7.3269639646279279 $424 $649 forward 7 unknown #
point $-1 -40.559099093600267 24.792703976719743 7.3269639646279279 #
point $-1 -40.559099093600267 -24.792703976719743 7.3269639646279279 #
straight-curve $-1 40.559099093600267 -24.792703976719743 0 0 0 -1 I I #
straight-curve $-1 40.559099093600267 24.792703976719743 0 0 0 -1 I I #
plane-surface $-1 0 -24.792703976719743 0 0 1 0 0 0 1 forward_v I I I I #
coedge $-1 $650 $589 $438 $578 forward $435 $-1 #
coedge $-1 $579 $437 $446 $587 forward $300 $-1 #
edge $-1 $582 -1.5 $580 1.5 $438 $651 forward 7 unknown #
coedge $-1 $439 $577 $650 $652 forward $300 $-1 #
vertex $-1 $440 $653 #
straight-curve $-1 -45.213517901573155 24.792703976719743 -0.89484364233439617 1 0 0 I I #
vertex $-1 $441 $654 #
straight-curve $-1 -45.213517901573155 24.792703976719743 2.1051563576656038 -1 0 0 I I #
point $-1 -40.559099093600267 24.792703976719743 -0.89484364233439617 #
straight-curve $-1 -40.559099093600267 0 -0.89484364233439617 0 1 0 I I #
coedge $-1 $446 $445 $655 $656 forward $447 $-1 #
edge $-1 $448 -4.6544188079728883 $657 4.6544188079728883 $446 $658 forward 7 unknown #
point $-1 -40.559099093600267 -24.792703976719743 -0.89484364233439617 #
coedge $-1 $576 $655 $450 $590 reversed $435 $-1 #
edge $-1 $582 -24.792703976719743 $591 24.792703976719743 $589 $659 forward 7 unknown #
vertex $-1 $590 $660 #
straight-curve $-1 -45.213517901573155 -24.792703976719743 2.1051563576656038 1 0 0 I I #
coedge $-1 $465 $464 $457 $594 forward $454 $-1 #
edge $-1 $595 48.959562830553466 $598 55.491702853316241 $593 $661 forward 7 unknown #
vertex $-1 $469 $662 #
straight-curve $-1 7.3765311894194205 -21.911322510584267 7.3269639646279288 1 0 0 I I #
edge $-1 $598 -12.62562255846143 $466 -5.9457773457842436 $465 $663 forward 7 unknown #
vertex $-1 $597 $664 #
straight-curve $-1 -28.233034088029264 -21.911322510584267 43.780920408733266 -0.84804809178421925 0 0.52991927123019833 I I #
point $-1 30.105490058565032 -21.911322510584267 7.3269639646279288 #
point $-1 40.559099093600274 -15.23147729790708 0.79482394186515393 #
straight-curve $-1 40.559099093600267 0 7.3269639646279279 0 1 0 I I #
vertex $-1 $472 $665 #
point $-1 34.718409781097918 -20.002795306962213 2.1349329920743974 #
vertex $-1 $476 $666 #
point $-1 34.718409781097918 -17.140004501529134 2.1349329920743974 #
edge $-1 $608 48.959562830553466 $611 55.491702853316241 $481 $667 forward 7 unknown #
vertex $-1 $495 $668 #
straight-curve $-1 7.3765311894194205 -9.5303892410871498 7.3269639646279288 1 0 0 I I #
edge $-1 $611 -6.4351559237128715 $492 0.24468928896431397 $491 $669 forward 7 unknown #
vertex $-1 $610 $670 #
straight-curve $-1 -28.233034088029264 -9.5303892410871498 43.780920408733266 -0.84804809178421925 0 0.52991927123019833 I I #
point $-1 30.105490058565032 -9.5303892410871498 7.3269639646279288 #
point $-1 40.559099093600274 -2.8505440284099643 0.79482394186515393 #
straight-curve $-1 40.559099093600267 0 7.3269639646279279 0 1 0 I I #
vertex $-1 $498 $671 #
point $-1 34.718409781097918 -7.6218620374650961 2.1349329920743974 #
vertex $-1 $502 $672 #
point $-1 34.718409781097918 -4.7590712320320172 2.1349329920743974 #
edge $-1 $621 48.959562830553466 $624 55.491702853316241 $507 $673 forward 7 unknown #
vertex $-1 $521 $674 #
straight-curve $-1 7.3765311894194205 2.8505440284099679 7.3269639646279288 1 0 0 I I #
edge $-1 $624 -0.24468928896431219 $518 6.4351559237128733 $517 $675 forward 7 unknown #
vertex $-1 $623 $676 #
straight-curve $-1 -28.233034088029264 2.8505440284099679 43.780920408733266 -0.84804809178421925 0 0.52991927123019833 I I #
point $-1 30.105490058565032 2.8505440284099679 7.3269639646279288 #
point $-1 40.559099093600274 9.5303892410871534 0.79482394186515393 #
straight-curve $-1 40.559099093600267 0 7.3269639646279279 0 1 0 I I #
vertex $-1 $524 $677 #
point $-1 34.718409781097918 4.7590712320320208 2.1349329920743974 #
vertex $-1 $528 $678 #
point $-1 34.718409781097918 7.6218620374650996 2.1349329920743974 #
edge $-1 $634 48.959562830553466 $637 55.491702853316241 $533 $679 forward 7 unknown #
vertex $-1 $547 $680 #
straight-curve $-1 7.3765311894194205 15.23147729790708 7.3269639646279288 1 0 0 I I #
edge $-1 $637 5.9457773457842436 $544 12.62562255846143 $543 $681 forward 7 unknown #
vertex $-1 $636 $682 #
straight-curve $-1 -28.233034088029264 15.23147729790708 43.780920408733266 -0.84804809178421925 0 0.52991927123019833 I I #
point $-1 30.105490058565032 15.23147729790708 7.3269639646279288 #
point $-1 40.559099093600274 21.911322510584267 0.79482394186515393 #
straight-curve $-1 40.559099093600267 0 7.3269639646279279 0 1 0 I I #
vertex $-1 $550 $683 #
point $-1 34.718409781097918 17.140004501529134 2.1349329920743974 #
vertex $-1 $554 $684 #
point $-1 34.718409781097918 20.002795306962213 2.1349329920743974 #
point $-1 -40.559099093600267 -24.792703976719743 -7.3269639646279279 #
straight-curve $-1 -40.559099093600267 0 -7.3269639646279279 0 1 0 I I #
point $-1 -40.559099093600267 24.792703976719743 -7.3269639646279279 #
straight-curve $-1 -40.559099093600267 24.792703976719743 0 0 0 -1 I I #
coedge $-1 $655 $576 $579 $652 reversed $435 $-1 #
straight-curve $-1 -49.867936709546044 24.792703976719743 0.60515635766560383 0 0 -1 I I #
edge $-1 $657 -24.792703976719743 $580 24.792703976719743 $650 $685 forward 7 unknown #
point $-1 -49.867936709546044 24.792703976719743 -0.89484364233439617 #
point $-1 -49.867936709546044 24.792703976719743 2.1051563576656038 #
coedge $-1 $589 $650 $586 $656 reversed $435 $-1 #
edge $-1 $591 -1.5 $657 1.5 $655 $686 forward 7 unknown #
vertex $-1 $652 $687 #
straight-curve $-1 -45.213517901573155 -24.792703976719743 -0.89484364233439617 -1 0 0 I I #
straight-curve $-1 -49.867936709546044 0 2.1051563576656038 0 -1 0 I I #
point $-1 -49.867936709546044 -24.792703976719743 2.1051563576656038 #
straight-curve $-1 40.559099093600267 -21.911322510584267 56.286526795181395 0 0 -1 I I #
point $-1 40.559099093600267 -21.911322510584267 7.3269639646279279 #
straight-curve $-1 40.559099093600267 -9.2856999521228367 0.79482394186515393 0 1 0 I I #
point $-1 40.559099093600274 -21.911322510584267 0.79482394186515393 #
point $-1 34.029426099590708 -20.002795306962213 1.9758685817973869 #
point $-1 34.029426099590708 -17.140004501529134 1.9758685817973869 #
straight-curve $-1 40.559099093600267 -9.5303892410871498 56.286526795181395 0 0 -1 I I #
point $-1 40.559099093600267 -9.5303892410871498 7.3269639646279279 #
straight-curve $-1 40.559099093600267 -3.0952333173742783 0.79482394186515393 0 1 0 I I #
point $-1 40.559099093600274 -9.5303892410871498 0.79482394186515393 #
point $-1 34.029426099590708 -7.6218620374650961 1.9758685817973869 #
point $-1 34.029426099590708 -4.7590712320320172 1.9758685817973869 #
straight-curve $-1 40.559099093600267 2.8505440284099679 56.286526795181395 0 0 -1 I I #
point $-1 40.559099093600267 2.8505440284099679 7.3269639646279279 #
straight-curve $-1 40.559099093600267 3.0952333173742801 0.79482394186515393 0 1 0 I I #
point $-1 40.559099093600274 2.8505440284099679 0.79482394186515393 #
point $-1 34.029426099590708 4.7590712320320208 1.9758685817973869 #
point $-1 34.029426099590708 7.6218620374650996 1.9758685817973869 #
straight-curve $-1 40.559099093600267 15.23147729790708 56.286526795181395 0 0 -1 I I #
point $-1 40.559099093600267 15.23147729790708 7.3269639646279279 #
straight-curve $-1 40.559099093600267 9.2856999521228367 0.79482394186515393 0 1 0 I I #
point $-1 40.559099093600274 15.23147729790708 0.79482394186515393 #
point $-1 34.029426099590708 17.140004501529134 1.9758685817973869 #
point $-1 34.029426099590708 20.002795306962213 1.9758685817973869 #
straight-curve $-1 -49.867936709546044 0 -0.89484364233439617 0 1 0 I I #
straight-curve $-1 -49.867936709546044 -24.792703976719743 0.60515635766560383 0 0 -1 I I #
point $-1 -49.867936709546044 -24.792703976719743 -0.89484364233439617 #
End-of-ACIS-data 