500 0 7 0           
7 Unknown 11 ACIS 5.0 NT 24 Thu Mar 25 17:19:12 1999 
-1 9.9999999999999995e-007 1e-010 
body $-1 $7 $-1 $8 #
body $-1 $9 $-1 $10 #
body $-1 $11 $-1 $12 #
body $-1 $13 $-1 $14 #
body $-1 $15 $-1 $16 #
body $-1 $17 $-1 $18 #
body $-1 $19 $-1 $20 #
lump $-1 $-1 $21 $0 #
transform $-1 1 0 0 0 1 0 0 0 1 68.603167821283606 47.495241635162898 12.222483780638573 1 rotate no_reflect no_shear #
lump $-1 $-1 $22 $1 #
transform $-1 1 0 0 0 1 0 0 0 1 68.603167821283606 47.495241635162898 12.222483780638573 1 rotate no_reflect no_shear #
lump $-1 $-1 $23 $2 #
transform $-1 1 0 0 0 1 0 0 0 1 68.603167821283606 47.495241635162898 12.222483780638573 1 rotate no_reflect no_shear #
lump $-1 $-1 $24 $3 #
transform $-1 1 0 0 0 1 0 0 0 1 68.603167821283606 47.495241635162898 12.222483780638573 1 rotate no_reflect no_shear #
lump $-1 $-1 $25 $4 #
transform $-1 1 0 0 0 1 0 0 0 1 68.603167821283606 47.495241635162898 12.222483780638573 1 rotate no_reflect no_shear #
lump $-1 $-1 $26 $5 #
transform $-1 1 0 0 0 1 0 0 0 1 68.603167821283606 47.495241635162898 12.222483780638573 1 rotate no_reflect no_shear #
lump $-1 $-1 $27 $6 #
transform $-1 1 0 0 0 1 0 0 0 1 68.603167821283606 47.495241635162898 12.222483780638573 1 rotate no_reflect no_shear #
shell $-1 $-1 $-1 $28 $-1 $7 #
shell $-1 $-1 $-1 $29 $-1 $9 #
shell $-1 $-1 $-1 $30 $-1 $11 #
shell $-1 $-1 $-1 $31 $-1 $13 #
shell $-1 $-1 $-1 $32 $-1 $15 #
shell $-1 $-1 $-1 $33 $-1 $17 #
shell $-1 $-1 $-1 $34 $-1 $19 #
face $-1 $35 $36 $21 $-1 $37 reversed single #
face $-1 $38 $39 $22 $-1 $40 forward single #
face $-1 $41 $42 $23 $-1 $43 reversed single #
face $-1 $44 $45 $24 $-1 $46 forward single #
face $-1 $47 $48 $25 $-1 $49 forward single #
face $-1 $50 $51 $26 $-1 $52 reversed single #
face $-1 $53 $54 $27 $-1 $55 forward single #
face $-1 $56 $57 $21 $-1 $58 forward single #
loop $-1 $-1 $59 $28 #
plane-surface $-1 -68.603167821283606 0 0 1 0 0 0 0 -1 forward_v I I I I #
face $-1 $60 $61 $22 $-1 $62 reversed single #
loop $-1 $-1 $63 $29 #
plane-surface $-1 -68.603167821283606 0 0 1 0 0 0 0 -1 forward_v I I I I #
face $-1 $64 $65 $23 $-1 $66 reversed single #
loop $-1 $-1 $67 $30 #
plane-surface $-1 -14.995372220867651 68.712515880491893 173.06290321386939 1 0 0 0 -0.66913061440640931 -0.74314481823134659 forward_v I I I I #
face $-1 $68 $69 $24 $-1 $70 forward single #
loop $-1 $71 $72 $31 #
cone-surface $-1 -4.6394269288184873 44.384365690709139 9.3143628571053316 0 -0.66913061440640931 -0.74314481823134659 1 0 0 1 I I 0 1 1 forward I I I I #
face $-1 $73 $74 $25 $-1 $75 forward single #
loop $-1 $76 $77 $32 #
cone-surface $-1 10.894491009255262 44.384365690709139 9.3143628571053316 0 -0.66913061440640931 -0.74314481823134659 1 0 0 1 I I 0 1 1 forward I I I I #
face $-1 $78 $79 $26 $-1 $80 reversed single #
loop $-1 $-1 $81 $33 #
plane-surface $-1 -24.995392988468822 -139.30420130412591 105.55865779472497 -1 0 0 0 -0.66913061440640931 0.74314481823134659 forward_v I I I I #
face $-1 $82 $83 $27 $-1 $84 forward single #
loop $-1 $85 $86 $34 #
cone-surface $-1 -35.495441044835808 -40.152367806358683 5.0745436701334192 0 0.66913061440640931 -0.74314481823134659 2.5 0 0 1 I I 0 1 2.5 forward I I I I #
face $-1 $87 $88 $21 $-1 $89 reversed single #
loop $-1 $-1 $90 $35 #
plane-surface $-1 0 0 12.222483780638573 0 0 1 1 0 0 forward_v I I I I #
coedge $-1 $91 $92 $93 $94 reversed $36 $-1 #
face $-1 $95 $96 $22 $-1 $97 reversed single #
loop $-1 $-1 $98 $38 #
plane-surface $-1 0 0 -12.222483780638573 0 0 1 1 0 0 forward_v I I I I #
coedge $-1 $99 $100 $101 $102 forward $39 $-1 #
face $-1 $103 $104 $23 $-1 $105 reversed single #
loop $-1 $-1 $106 $41 #
plane-surface $-1 3.1275320402183837 -23.09644378847112 71.09872585258465 0 0.66913061440640931 0.74314481823134659 1 0 0 forward_v I I I I #
coedge $-1 $107 $108 $109 $110 reversed $42 $-1 #
face $-1 $-1 $111 $24 $-1 $112 forward single #
loop $-1 $113 $114 $44 #
cone-surface $-1 -4.6394269288184873 43.540422227258688 8.3770687052007951 0 -0.66913061440640931 -0.74314481823134659 0.5 0 0 1 I I -0.70710678118654746 0.70710678118654746 0.5 forward I I I I #
loop $-1 $-1 $115 $31 #
coedge $-1 $72 $72 $116 $117 reversed $45 $-1 #
face $-1 $-1 $118 $25 $-1 $119 forward single #
loop $-1 $120 $121 $47 #
cone-surface $-1 10.894491009255262 43.540422227258688 8.3770687052007951 0 -0.66913061440640931 -0.74314481823134659 0.5 0 0 1 I I -0.70710678118654746 0.70710678118654746 0.5 forward I I I I #
loop $-1 $-1 $122 $32 #
coedge $-1 $77 $77 $123 $124 reversed $48 $-1 #
face $-1 $125 $126 $26 $-1 $127 reversed single #
loop $-1 $-1 $128 $50 #
plane-surface $-1 -35.495441044835808 -47.495241635162898 3.5944804334402249 0 -0.66913061440640931 0.74314481823134659 1 0 0 forward_v I I I I #
coedge $-1 $129 $130 $131 $132 reversed $51 $-1 #
face $-1 $-1 $133 $27 $-1 $134 forward single #
loop $-1 $135 $136 $53 #
cone-surface $-1 -35.495441044835808 -36.764264852900283 1.3116742104382659 0 0.66913061440640931 -0.74314481823134659 1.25 0 0 1 I I -0.70710678118654746 0.70710678118654746 1.25 forward I I I I #
loop $-1 $-1 $137 $34 #
coedge $-1 $86 $86 $138 $139 reversed $54 $-1 #
face $-1 $140 $141 $21 $-1 $142 reversed single #
loop $-1 $-1 $143 $56 #
plane-surface $-1 0 0 -12.222483780638573 0 0 1 1 0 0 forward_v I I I I #
coedge $-1 $144 $145 $146 $147 forward $57 $-1 #
coedge $-1 $148 $59 $149 $150 reversed $36 $-1 #
coedge $-1 $59 $148 $151 $152 forward $36 $-1 #
coedge $-1 $153 $154 $59 $94 forward $88 $-1 #
edge $-1 $155 -47.495241635162898 $156 47.495241635162898 $59 $157 forward 7 unknown #
face $-1 $158 $159 $22 $-1 $160 reversed single #
loop $-1 $-1 $161 $60 #
plane-surface $-1 -75.575332568142315 -28.413216616924572 0 0 1 0 0 0 1 forward_v I I I I #
coedge $-1 $162 $163 $100 $164 forward $61 $-1 #
coedge $-1 $165 $63 $166 $167 reversed $39 $-1 #
coedge $-1 $63 $165 $98 $164 reversed $39 $-1 #
coedge $-1 $168 $169 $63 $102 reversed $170 $-1 #
edge $-1 $171 -12.222483780638573 $172 12.222483780638573 $101 $173 forward 7 unknown #
face $-1 $174 $175 $23 $-1 $176 forward single #
loop $-1 $-1 $177 $64 #
plane-surface $-1 21.250436301304418 68.712515880491893 173.06290321386939 -1 0 0 0 0.66913061440640931 0.74314481823134659 forward_v I I I I #
coedge $-1 $178 $179 $180 $181 reversed $65 $-1 #
coedge $-1 $108 $67 $182 $183 reversed $42 $-1 #
coedge $-1 $67 $107 $178 $184 reversed $42 $-1 #
coedge $-1 $180 $185 $67 $110 forward $175 $-1 #
edge $-1 $186 -13.138983694916952 $187 -7.9359881185039498 $109 $188 forward 7 unknown #
loop $-1 $-1 $116 $68 #
plane-surface $-1 3.1275320402183837 -23.09644378847112 71.09872585258465 0 0.66913061440640931 0.74314481823134659 1 0 0 forward_v I I I I #
loop $-1 $-1 $189 $44 #
coedge $-1 $114 $114 $115 $190 reversed $69 $-1 #
coedge $-1 $115 $115 $114 $190 forward $71 $-1 #
coedge $-1 $116 $116 $72 $117 forward $111 $-1 #
edge $-1 $191 -1.1886147433529169e-015 $191 6.2831853071795996 $116 $192 forward 7 unknown #
loop $-1 $-1 $123 $73 #
plane-surface $-1 3.1275320402183837 -23.09644378847112 71.09872585258465 0 0.66913061440640931 0.74314481823134659 1 0 0 forward_v I I I I #
loop $-1 $-1 $193 $47 #
coedge $-1 $121 $121 $122 $194 reversed $74 $-1 #
coedge $-1 $122 $122 $121 $194 forward $76 $-1 #
coedge $-1 $123 $123 $77 $124 forward $118 $-1 #
edge $-1 $195 -1.1886147433529169e-015 $195 6.2831853071795996 $123 $196 forward 7 unknown #
face $-1 $197 $198 $26 $-1 $199 forward single #
loop $-1 $-1 $200 $78 #
plane-surface $-1 -45.995489101202793 -139.30420130412591 105.55865779472497 1 0 0 0 0.66913061440640931 -0.74314481823134659 forward_v I I I I #
coedge $-1 $201 $202 $203 $204 reversed $79 $-1 #
coedge $-1 $130 $81 $205 $206 reversed $51 $-1 #
coedge $-1 $81 $129 $201 $207 reversed $51 $-1 #
coedge $-1 $203 $208 $81 $132 forward $198 $-1 #
edge $-1 $209 22.156859016900057 $210 31.739227303607684 $131 $211 forward 7 unknown #
loop $-1 $-1 $138 $82 #
plane-surface $-1 -35.495441044835808 -47.495241635162898 3.5944804334402249 0 -0.66913061440640931 0.74314481823134659 1 0 0 forward_v I I I I #
loop $-1 $-1 $212 $53 #
coedge $-1 $136 $136 $137 $213 reversed $83 $-1 #
coedge $-1 $137 $137 $136 $213 forward $85 $-1 #
coedge $-1 $138 $138 $86 $139 forward $133 $-1 #
edge $-1 $214 -9.7825372386941065e-016 $214 6.2831853071795996 $138 $215 forward 7 unknown #
face $-1 $216 $217 $21 $-1 $218 reversed single #
loop $-1 $-1 $149 $87 #
plane-surface $-1 0 -47.495241635162898 0 0 1 0 0 0 1 forward_v I I I I #
coedge $-1 $154 $153 $219 $220 forward $88 $-1 #
coedge $-1 $221 $90 $222 $223 forward $57 $-1 #
coedge $-1 $90 $221 $224 $225 forward $57 $-1 #
coedge $-1 $226 $227 $90 $147 reversed $228 $-1 #
edge $-1 $229 -47.495241635162898 $230 47.495241635162898 $146 $231 forward 7 unknown #
coedge $-1 $92 $91 $221 $232 reversed $36 $-1 #
coedge $-1 $233 $224 $91 $150 forward $141 $-1 #
edge $-1 $234 -12.222483780638573 $155 12.222483780638573 $91 $235 forward 7 unknown #
coedge $-1 $222 $236 $92 $152 reversed $217 $-1 #
edge $-1 $237 -12.222483780638573 $156 12.222483780638573 $151 $238 forward 7 unknown #
coedge $-1 $143 $93 $236 $239 forward $88 $-1 #
coedge $-1 $93 $143 $233 $240 forward $88 $-1 #
vertex $-1 $94 $241 #
vertex $-1 $239 $242 #
straight-curve $-1 -68.603167821283606 0 -12.222483780638573 0 1 0 I I #
face $-1 $243 $170 $22 $-1 $244 reversed single #
loop $-1 $-1 $245 $95 #
plane-surface $-1 -82.547497315001024 -25.731745345405162 0 1 0 0 0 0 -1 forward_v I I I I #
coedge $-1 $246 $247 $248 $249 forward $96 $-1 #
coedge $-1 $250 $98 $246 $251 forward $61 $-1 #
coedge $-1 $98 $250 $168 $252 forward $61 $-1 #
edge $-1 $171 23.050274073885753 $253 28.413216616924572 $98 $254 forward 7 unknown #
coedge $-1 $100 $99 $255 $256 forward $39 $-1 #
coedge $-1 $257 $258 $99 $167 forward $259 $-1 #
edge $-1 $260 -28.413216616924572 $172 -23.050274073885753 $166 $261 forward 7 unknown #
coedge $-1 $262 $101 $163 $252 reversed $170 $-1 #
coedge $-1 $101 $262 $257 $263 reversed $170 $-1 #
loop $-1 $-1 $101 $158 #
vertex $-1 $164 $264 #
vertex $-1 $263 $265 #
straight-curve $-1 -68.603167821283606 -23.050274073885753 0 0 0 1 I I #
face $-1 $-1 $266 $23 $-1 $267 reversed single #
loop $-1 $-1 $109 $103 #
plane-surface $-1 0 0 12.222483780638573 0 0 1 1 0 0 forward_v I I I I #
coedge $-1 $268 $269 $270 $271 reversed $104 $-1 #
coedge $-1 $272 $106 $108 $184 forward $65 $-1 #
coedge $-1 $106 $272 $268 $273 forward $65 $-1 #
coedge $-1 $270 $109 $106 $181 forward $175 $-1 #
edge $-1 $187 -16.559138240976843 $274 19.686670281195227 $180 $275 forward 7 unknown #
coedge $-1 $276 $277 $107 $183 forward $266 $-1 #
edge $-1 $278 -78.993766187784871 $186 -74.308967826296126 $182 $279 forward 7 unknown #
edge $-1 $187 87.989162062440727 $278 94.990483270325768 $108 $280 forward 7 unknown #
coedge $-1 $109 $270 $276 $281 forward $175 $-1 #
vertex $-1 $183 $282 #
vertex $-1 $110 $283 #
straight-curve $-1 -14.995372220867651 34.356257940245946 12.222483780638569 0 -1 0 I I #
coedge $-1 $189 $189 $-1 $284 reversed $113 $-1 #
edge $-1 $285 0 $285 6.2831853071796004 $114 $286 forward 7 unknown #
vertex $-1 $117 $287 #
ellipse-curve $-1 -4.6394269288184873 44.893743846956383 9.8800845998941949 0 0.66913061440640931 0.74314481823134659 1 0 0 1 I I #
coedge $-1 $193 $193 $-1 $288 reversed $120 $-1 #
edge $-1 $289 0 $289 6.2831853071796004 $121 $290 forward 7 unknown #
vertex $-1 $124 $291 #
ellipse-curve $-1 10.894491009255262 44.893743846956383 9.8800845998941949 0 0.66913061440640931 0.74314481823134659 1 0 0 1 I I #
face $-1 $-1 $292 $26 $-1 $293 reversed single #
loop $-1 $-1 $131 $125 #
plane-surface $-1 0 0 12.222483780638573 0 0 1 1 0 0 forward_v I I I I #
coedge $-1 $294 $295 $296 $297 reversed $126 $-1 #
coedge $-1 $298 $128 $130 $207 forward $79 $-1 #
coedge $-1 $128 $298 $294 $299 forward $79 $-1 #
coedge $-1 $296 $131 $128 $204 forward $198 $-1 #
edge $-1 $210 7.2476724660509184 $300 28.247768578784889 $203 $301 forward 7 unknown #
coedge $-1 $302 $303 $129 $206 forward $292 $-1 #
edge $-1 $304 -49.184848463922258 $209 -40.556845116723906 $205 $305 forward 7 unknown #
edge $-1 $210 -12.894348519462547 $304 0 $130 $306 forward 7 unknown #
coedge $-1 $131 $296 $302 $307 forward $198 $-1 #
vertex $-1 $132 $308 #
vertex $-1 $132 $309 #
straight-curve $-1 -24.995392988468822 -69.652100652062956 12.222483780638569 0 1 0 I I #
coedge $-1 $212 $212 $-1 $310 reversed $135 $-1 #
edge $-1 $311 0 $311 6.2831853071796004 $136 $312 forward 7 unknown #
vertex $-1 $139 $313 #
ellipse-curve $-1 -35.495441044835808 -42.704057491809081 7.9084821070394007 0 -0.66913061440640931 0.74314481823134659 2.5 0 0 1 I I #
face $-1 $-1 $228 $21 $-1 $314 reversed single #
loop $-1 $-1 $315 $140 #
plane-surface $-1 0 47.495241635162898 0 0 -1 0 0 0 -1 forward_v I I I I #
coedge $-1 $227 $226 $143 $220 reversed $228 $-1 #
edge $-1 $316 -47.495241635162898 $317 47.495241635162898 $219 $318 forward 7 unknown #
coedge $-1 $145 $144 $148 $232 forward $57 $-1 #
coedge $-1 $315 $151 $144 $223 reversed $217 $-1 #
edge $-1 $230 -68.603167821283606 $237 68.603167821283606 $222 $319 forward 7 unknown #
coedge $-1 $149 $320 $145 $225 reversed $141 $-1 #
edge $-1 $234 -68.603167821283606 $229 68.603167821283606 $224 $321 forward 7 unknown #
coedge $-1 $219 $146 $320 $322 forward $228 $-1 #
coedge $-1 $146 $219 $315 $323 reversed $228 $-1 #
loop $-1 $-1 $226 $216 #
vertex $-1 $147 $324 #
vertex $-1 $147 $325 #
straight-curve $-1 68.603167821283606 0 12.222483780638573 0 1 0 I I #
edge $-1 $237 -47.495241635162898 $234 47.495241635162898 $148 $326 forward 7 unknown #
coedge $-1 $320 $149 $154 $240 reversed $141 $-1 #
vertex $-1 $232 $327 #
straight-curve $-1 -68.603167821283606 -47.495241635162898 0 0 0 -1 I I #
coedge $-1 $151 $315 $153 $239 reversed $217 $-1 #
vertex $-1 $223 $328 #
straight-curve $-1 -68.603167821283606 47.495241635162898 0 0 0 -1 I I #
edge $-1 $156 -68.603167821283606 $316 68.603167821283606 $236 $329 forward 7 unknown #
edge $-1 $317 -68.603167821283606 $155 68.603167821283606 $233 $330 forward 7 unknown #
point $-1 -68.603167821283606 -47.495241635162898 -12.222483780638573 #
point $-1 -68.603167821283606 47.495241635162898 -12.222483780638573 #
face $-1 $-1 $259 $22 $-1 $331 forward single #
plane-surface $-1 -75.575332568142315 -23.050274073885753 0 0 -1 0 0 0 -1 forward_v I I I I #
coedge $-1 $332 $333 $262 $334 forward $159 $-1 #
coedge $-1 $255 $161 $162 $251 reversed $96 $-1 #
coedge $-1 $161 $255 $258 $335 reversed $96 $-1 #
coedge $-1 $333 $332 $161 $249 reversed $159 $-1 #
edge $-1 $336 -12.222483780638573 $337 12.222483780638573 $248 $338 forward 7 unknown #
coedge $-1 $163 $162 $332 $339 forward $61 $-1 #
edge $-1 $253 -6.9721647468587093 $337 6.9721647468587093 $246 $340 forward 7 unknown #
edge $-1 $341 -6.9721647468587093 $171 6.9721647468587093 $168 $342 forward 7 unknown #
vertex $-1 $251 $343 #
straight-curve $-1 -68.603167821283606 0 -12.222483780638573 0 -1 0 I I #
coedge $-1 $247 $246 $165 $256 reversed $96 $-1 #
edge $-1 $260 -12.222483780638573 $253 12.222483780638573 $255 $344 forward 7 unknown #
coedge $-1 $345 $166 $169 $263 forward $259 $-1 #
coedge $-1 $166 $345 $247 $335 forward $259 $-1 #
loop $-1 $-1 $166 $243 #
vertex $-1 $167 $346 #
straight-curve $-1 -68.603167821283606 0 12.222483780638573 0 1 0 I I #
coedge $-1 $169 $168 $245 $334 reversed $170 $-1 #
edge $-1 $172 -6.9721647468587093 $347 6.9721647468587093 $169 $348 forward 7 unknown #
point $-1 -68.603167821283606 -23.050274073885753 -12.222483780638573 #
point $-1 -68.603167821283606 -23.050274073885753 12.222483780638573 #
loop $-1 $-1 $182 $174 #
plane-surface $-1 0 47.495241635162898 0 0 -1 0 0 0 -1 forward_v I I I I #
coedge $-1 $269 $177 $179 $273 reversed $104 $-1 #
coedge $-1 $177 $268 $349 $350 reversed $104 $-1 #
coedge $-1 $185 $180 $177 $271 forward $175 $-1 #
edge $-1 $274 7.9359881185039498 $351 13.138983694916952 $270 $352 forward 7 unknown #
coedge $-1 $179 $178 $277 $353 reversed $65 $-1 #
edge $-1 $354 -94.990483270325768 $274 -87.989162062440727 $268 $355 forward 7 unknown #
vertex $-1 $181 $356 #
straight-curve $-1 1.5637660201091919 42.292246058749889 12.222483780638569 1 0 0 I I #
coedge $-1 $349 $182 $185 $281 reversed $266 $-1 #
coedge $-1 $182 $349 $272 $353 forward $266 $-1 #
vertex $-1 $183 $357 #
straight-curve $-1 -14.995372220867651 47.495241635162898 86.531451606934695 0 0 1 I I #
straight-curve $-1 -14.995372220867651 -23.09644378847112 71.09872585258465 0 0.74314481823134659 -0.66913061440640931 I I #
edge $-1 $351 -21.250436301304418 $186 14.995372220867651 $276 $358 forward 7 unknown #
point $-1 -14.995372220867651 47.495241635162898 12.222483780638573 #
point $-1 -14.995372220867651 42.292246058749896 12.222483780638562 #
edge $-1 $359 1 $359 0 $189 $-1 forward 7 unknown #
vertex $-1 $190 $360 #
ellipse-curve $-1 -4.6394269288184873 43.874987534461894 8.7486411143164684 0 0.66913061440640931 0.74314481823134659 1 0 0 1 I I #
point $-1 -3.6394269288184873 44.893743846956383 9.8800845998941966 #
edge $-1 $361 1 $361 0 $193 $-1 forward 7 unknown #
vertex $-1 $194 $362 #
ellipse-curve $-1 10.894491009255262 43.874987534461894 8.7486411143164684 0 0.66913061440640931 0.74314481823134659 1 0 0 1 I I #
point $-1 11.894491009255262 44.893743846956383 9.8800845998941966 #
loop $-1 $-1 $205 $197 #
plane-surface $-1 0 -47.495241635162898 0 0 1 0 0 0 1 forward_v I I I I #
coedge $-1 $295 $200 $202 $299 reversed $126 $-1 #
coedge $-1 $200 $294 $363 $364 reversed $126 $-1 #
coedge $-1 $208 $203 $200 $297 forward $198 $-1 #
edge $-1 $300 -31.739227303607684 $365 -22.156859016900057 $296 $366 forward 7 unknown #
coedge $-1 $202 $201 $303 $367 reversed $79 $-1 #
edge $-1 $368 0 $300 12.894348519462547 $294 $369 forward 7 unknown #
vertex $-1 $204 $370 #
straight-curve $-1 -17.747720522417904 -37.912873348455278 12.222483780638573 -1 0 0 I I #
coedge $-1 $363 $205 $208 $307 reversed $292 $-1 #
coedge $-1 $205 $363 $298 $367 forward $292 $-1 #
vertex $-1 $206 $371 #
straight-curve $-1 -24.995392988468822 -47.495241635162898 52.779328897362483 0 0 1 I I #
straight-curve $-1 -24.995392988468822 -47.495241635162898 3.5944804334402249 0 -0.74314481823134659 -0.66913061440640931 I I #
edge $-1 $365 -45.995489101202793 $209 -24.995392988468822 $302 $372 forward 7 unknown #
point $-1 -24.995392988468822 -47.495241635162898 12.222483780638573 #
point $-1 -24.995392988468822 -37.912873348455271 12.222483780638573 #
edge $-1 $373 1 $373 0 $212 $-1 forward 7 unknown #
vertex $-1 $213 $374 #
ellipse-curve $-1 -35.495441044835808 -37.600678120908292 2.2406052332274493 0 -0.66913061440640931 0.74314481823134659 2.5 0 0 1 I I #
point $-1 -32.995441044835808 -42.704057491809074 7.9084821070393891 #
plane-surface $-1 68.603167821283606 0 0 -1 0 0 0 0 1 forward_v I I I I #
coedge $-1 $236 $222 $227 $323 forward $217 $-1 #
vertex $-1 $220 $375 #
vertex $-1 $322 $376 #
straight-curve $-1 68.603167821283606 0 -12.222483780638573 0 -1 0 I I #
straight-curve $-1 0 47.495241635162898 12.222483780638573 -1 0 0 I I #
coedge $-1 $224 $233 $226 $322 reversed $141 $-1 #
straight-curve $-1 0 -47.495241635162898 12.222483780638573 1 0 0 I I #
edge $-1 $229 -12.222483780638573 $317 12.222483780638573 $226 $377 forward 7 unknown #
edge $-1 $230 -12.222483780638573 $316 12.222483780638573 $227 $378 forward 7 unknown #
point $-1 68.603167821283606 -47.495241635162898 12.222483780638573 #
point $-1 68.603167821283606 47.495241635162898 12.222483780638573 #
straight-curve $-1 -68.603167821283606 0 12.222483780638573 0 -1 0 I I #
point $-1 -68.603167821283606 -47.495241635162898 12.222483780638573 #
point $-1 -68.603167821283606 47.495241635162898 12.222483780638573 #
straight-curve $-1 0 47.495241635162898 -12.222483780638573 1 0 0 I I #
straight-curve $-1 0 -47.495241635162898 -12.222483780638573 -1 0 0 I I #
plane-surface $-1 0 0 12.222483780638573 0 0 1 1 0 0 forward_v I I I I #
coedge $-1 $248 $245 $250 $339 reversed $159 $-1 #
coedge $-1 $245 $248 $345 $379 reversed $159 $-1 #
edge $-1 $347 -12.222483780638573 $341 12.222483780638573 $262 $380 forward 7 unknown #
edge $-1 $336 -6.9721647468587093 $260 6.9721647468587093 $247 $381 forward 7 unknown #
vertex $-1 $379 $382 #
vertex $-1 $339 $383 #
straight-curve $-1 -82.547497315001024 -28.413216616924572 0 0 0 -1 I I #
edge $-1 $337 -2.6814712715194098 $341 2.6814712715194098 $332 $384 forward 7 unknown #
straight-curve $-1 -75.575332568142315 -28.413216616924572 -12.222483780638573 -1 0 0 I I #
vertex $-1 $252 $385 #
straight-curve $-1 -75.575332568142315 -23.050274073885753 -12.222483780638573 1 0 0 I I #
point $-1 -68.603167821283606 -28.413216616924572 -12.222483780638573 #
straight-curve $-1 -68.603167821283606 -28.413216616924572 0 0 0 -1 I I #
coedge $-1 $258 $257 $333 $379 forward $259 $-1 #
point $-1 -68.603167821283606 -28.413216616924572 12.222483780638573 #
vertex $-1 $263 $386 #
straight-curve $-1 -75.575332568142315 -23.050274073885753 12.222483780638573 -1 0 0 I I #
coedge $-1 $277 $276 $269 $350 forward $266 $-1 #
edge $-1 $351 74.308967826296126 $354 78.993766187784871 $349 $387 forward 7 unknown #
vertex $-1 $281 $388 #
straight-curve $-1 21.250436301304418 34.356257940245946 12.222483780638569 0 1 0 I I #
edge $-1 $354 -19.686670281195227 $278 16.559138240976843 $277 $389 forward 7 unknown #
vertex $-1 $353 $390 #
straight-curve $-1 21.250436301304418 -23.09644378847112 71.09872585258465 0 -0.74314481823134659 0.66913061440640931 I I #
point $-1 21.250436301304418 42.292246058749896 12.222483780638562 #
point $-1 -14.995372220867651 47.495241635162898 7.5376854191498168 #
straight-curve $-1 0 47.495241635162898 12.222483780638573 -1 0 0 I I #
vertex $-1 $284 $391 #
point $-1 -3.6394269288184873 43.874987534461894 8.7486411143164684 #
vertex $-1 $288 $392 #
point $-1 11.894491009255262 43.874987534461894 8.7486411143164684 #
coedge $-1 $303 $302 $295 $364 forward $292 $-1 #
edge $-1 $365 40.556845116723906 $368 49.184848463922258 $363 $393 forward 7 unknown #
vertex $-1 $307 $394 #
straight-curve $-1 -45.995489101202793 -69.652100652062956 12.222483780638569 0 -1 0 I I #
edge $-1 $368 -28.247768578784889 $304 -7.2476724660509184 $303 $395 forward 7 unknown #
vertex $-1 $367 $396 #
straight-curve $-1 -45.995489101202793 -47.495241635162898 3.5944804334402249 0 0.74314481823134659 0.66913061440640931 I I #
point $-1 -45.995489101202793 -37.912873348455271 12.222483780638573 #
point $-1 -24.995392988468822 -47.495241635162898 3.5944804334402249 #
straight-curve $-1 0 -47.495241635162898 12.222483780638573 1 0 0 I I #
vertex $-1 $310 $397 #
point $-1 -32.995441044835808 -37.600678120908292 2.2406052332274493 #
point $-1 68.603167821283606 47.495241635162898 -12.222483780638573 #
point $-1 68.603167821283606 -47.495241635162898 -12.222483780638573 #
straight-curve $-1 68.603167821283606 -47.495241635162898 0 0 0 -1 I I #
straight-curve $-1 68.603167821283606 47.495241635162898 0 0 0 -1 I I #
edge $-1 $347 -2.6814712715194098 $336 2.6814712715194098 $333 $398 forward 7 unknown #
straight-curve $-1 -82.547497315001024 -23.050274073885753 0 0 0 -1 I I #
straight-curve $-1 -75.575332568142315 -28.413216616924572 12.222483780638573 1 0 0 I I #
point $-1 -82.547497315001024 -28.413216616924572 12.222483780638573 #
point $-1 -82.547497315001024 -28.413216616924572 -12.222483780638573 #
straight-curve $-1 -82.547497315001024 -25.731745345405162 -12.222483780638573 0 1 0 I I #
point $-1 -82.547497315001024 -23.050274073885753 -12.222483780638573 #
point $-1 -82.547497315001024 -23.050274073885753 12.222483780638573 #
straight-curve $-1 21.250436301304418 47.495241635162898 86.531451606934695 0 0 -1 I I #
point $-1 21.250436301304418 47.495241635162898 12.222483780638573 #
straight-curve $-1 1.5637660201091919 47.495241635162898 7.5376854191498168 -1 0 0 I I #
point $-1 21.250436301304418 47.495241635162898 7.5376854191498168 #
point $-1 -4.6394269288184873 43.205856920055481 8.0054962960851217 #
point $-1 10.894491009255262 43.205856920055481 8.0054962960851217 #
straight-curve $-1 -45.995489101202793 -47.495241635162898 52.779328897362483 0 0 -1 I I #
point $-1 -45.995489101202793 -47.495241635162898 12.222483780638573 #
straight-curve $-1 -17.747720522417904 -47.495241635162898 3.5944804334402281 1 0 0 I I #
point $-1 -45.995489101202793 -47.495241635162898 3.5944804334402249 #
point $-1 -35.495441044835808 -35.927851584892274 0.38274318764908266 #
straight-curve $-1 -82.547497315001024 -25.731745345405162 12.222483780638573 0 -1 0 I I #
End-of-ACIS-data 