500 0 8 0           
7 Unknown 11 ACIS 5.0 NT 24 Fri Mar 26 14:38:58 1999 
-1 9.9999999999999995e-007 1e-010 
body $-1 $8 $-1 $9 #
body $-1 $10 $-1 $11 #
body $-1 $12 $-1 $13 #
body $-1 $14 $-1 $15 #
body $-1 $16 $-1 $17 #
body $-1 $18 $-1 $19 #
body $-1 $20 $-1 $21 #
body $-1 $22 $-1 $23 #
lump $-1 $-1 $24 $0 #
transform $-1 1 0 0 0 1 0 0 0 1 53.846858119449443 22.458184060726708 9.1745660578777937 1 rotate no_reflect no_shear #
lump $-1 $-1 $25 $1 #
transform $-1 1 0 0 0 1 0 0 0 1 53.846858119449443 22.458184060726708 9.1745660578777937 1 rotate no_reflect no_shear #
lump $-1 $-1 $26 $2 #
transform $-1 1 0 0 0 1 0 0 0 1 53.846858119449443 22.458184060726708 9.1745660578777937 1 rotate no_reflect no_shear #
lump $-1 $-1 $27 $3 #
transform $-1 1 0 0 0 1 0 0 0 1 53.846858119449443 22.458184060726708 9.1745660578777937 1 rotate no_reflect no_shear #
lump $-1 $-1 $28 $4 #
transform $-1 1 0 0 0 1 0 0 0 1 53.846858119449443 22.458184060726708 9.1745660578777937 1 rotate no_reflect no_shear #
lump $-1 $-1 $29 $5 #
transform $-1 1 0 0 0 1 0 0 0 1 53.846858119449443 22.458184060726708 9.1745660578777937 1 rotate no_reflect no_shear #
lump $-1 $-1 $30 $6 #
transform $-1 1 0 0 0 1 0 0 0 1 53.846858119449443 22.458184060726708 9.1745660578777937 1 rotate no_reflect no_shear #
lump $-1 $-1 $31 $7 #
transform $-1 1 0 0 0 1 0 0 0 1 53.846858119449443 22.458184060726708 9.1745660578777937 1 rotate no_reflect no_shear #
shell $-1 $-1 $-1 $32 $-1 $8 #
shell $-1 $-1 $-1 $33 $-1 $10 #
shell $-1 $-1 $-1 $34 $-1 $12 #
shell $-1 $-1 $-1 $35 $-1 $14 #
shell $-1 $-1 $-1 $36 $-1 $16 #
shell $-1 $-1 $-1 $37 $-1 $18 #
shell $-1 $-1 $-1 $38 $-1 $20 #
shell $-1 $-1 $-1 $39 $-1 $22 #
face $-1 $40 $41 $24 $-1 $42 forward single #
face $-1 $43 $44 $25 $-1 $45 reversed single #
face $-1 $46 $47 $26 $-1 $48 reversed single #
face $-1 $49 $50 $27 $-1 $51 forward single #
face $-1 $52 $53 $28 $-1 $54 forward single #
face $-1 $55 $56 $29 $-1 $57 reversed single #
face $-1 $58 $59 $30 $-1 $60 forward single #
face $-1 $61 $62 $31 $-1 $63 forward single #
face $-1 $64 $65 $24 $-1 $66 reversed single #
loop $-1 $-1 $67 $32 #
plane-surface $-1 0 0 9.1745660578777937 0 0 1 1 0 0 forward_v I I I I #
face $-1 $68 $69 $25 $-1 $70 reversed single #
loop $-1 $-1 $71 $33 #
plane-surface $-1 0 -16.769883106322183 5.8942114016418063 0 0 1 1 0 0 forward_v I I I I #
face $-1 $72 $73 $26 $-1 $74 reversed single #
loop $-1 $-1 $75 $34 #
plane-surface $-1 90.692028126965511 -4.3727557423845838 151.48617806168929 0 -1 0 -0.85716730853699208 0 -0.51503806187062418 forward_v I I I I #
face $-1 $76 $77 $27 $-1 $78 forward single #
loop $-1 $79 $80 $35 #
cone-surface $-1 51.433191198506307 -9.1647746063367777 5.9779024875696898 -0.85716730853699208 0 -0.51503806187062418 0.25751903093531209 0 -0.42858365426849604 1 I I 0 1 0.5 forward I I I I #
face $-1 $81 $82 $28 $-1 $83 forward single #
loop $-1 $84 $85 $36 #
cone-surface $-1 51.433191198506307 -6.2895632879654606 5.9779024875696898 -0.85716730853699208 0 -0.51503806187062418 0.25751903093531209 0 -0.42858365426849604 1 I I 0 1 0.5 forward I I I I #
face $-1 $86 $87 $29 $-1 $88 reversed single #
loop $-1 $-1 $89 $37 #
plane-surface $-1 -120.1497311738637 -0.47848948437437144 87.78139995469661 0 1 0 -0.61566148304635926 0 0.78801074757464917 forward_v I I I I #
face $-1 $90 $91 $30 $-1 $92 forward single #
loop $-1 $93 $94 $38 #
cone-surface $-1 -48.906309965225475 2.3902910905089527 4.8477107025142132 0.61566148304635926 0 -0.78801074757464917 0.78801074757464917 0 0.61566148304635926 1 I I 0 1 1 forward I I I I #
face $-1 $95 $96 $31 $-1 $97 forward single #
loop $-1 $98 $99 $39 #
cone-surface $-1 -48.906309965225475 6.6934619528339425 4.8477107025142132 0.61566148304635926 0 -0.78801074757464917 0.78801074757464917 0 0.61566148304635926 1 I I 0 1 1 forward I I I I #
face $-1 $100 $101 $24 $-1 $102 reversed single #
loop $-1 $-1 $103 $40 #
plane-surface $-1 0 0 -9.1745660578777937 0 0 1 1 0 0 forward_v I I I I #
coedge $-1 $104 $105 $106 $107 forward $41 $-1 #
face $-1 $108 $109 $25 $-1 $110 reversed single #
loop $-1 $-1 $111 $43 #
plane-surface $-1 0 -11.081582151917656 7.5343887297598009 0 -1 0 0 0 -1 forward_v I I I I #
coedge $-1 $112 $113 $114 $115 reversed $44 $-1 #
face $-1 $116 $117 $26 $-1 $118 forward single #
loop $-1 $-1 $119 $46 #
plane-surface $-1 -1.6195047678779986 -7.7271689471511191 96.019815174361838 0.85716730853699208 0 0.51503806187062418 0.51503806187062418 0 -0.85716730853699208 forward_v I I I I #
coedge $-1 $120 $121 $122 $123 reversed $47 $-1 #
face $-1 $-1 $124 $27 $-1 $125 forward single #
loop $-1 $126 $127 $49 #
cone-surface $-1 50.447469721263666 -9.1647746063367777 5.3856212909736492 -0.85716730853699208 0 -0.51503806187062418 0.12875951546765604 0 -0.21429182713424802 1 I I -0.70710678118654746 0.70710678118654746 0.25 forward I I I I #
loop $-1 $-1 $128 $35 #
coedge $-1 $80 $80 $129 $130 reversed $50 $-1 #
face $-1 $-1 $131 $28 $-1 $132 forward single #
loop $-1 $133 $134 $52 #
cone-surface $-1 50.447469721263666 -6.2895632879654606 5.3856212909736492 -0.85716730853699208 0 -0.51503806187062418 0.12875951546765604 0 -0.21429182713424802 1 I I -0.70710678118654746 0.70710678118654746 0.25 forward I I I I #
loop $-1 $-1 $135 $36 #
coedge $-1 $85 $85 $136 $137 reversed $53 $-1 #
face $-1 $138 $139 $29 $-1 $140 reversed single #
loop $-1 $-1 $141 $55 #
plane-surface $-1 -53.846858119449422 4.5418765216714476 2.9175941121897608 -0.61566148304635926 0 0.78801074757464917 0.78801074757464917 0 0.61566148304635926 forward_v I I I I #
coedge $-1 $142 $143 $144 $145 reversed $56 $-1 #
face $-1 $-1 $146 $30 $-1 $147 forward single #
loop $-1 $148 $149 $58 #
cone-surface $-1 -47.662210430985795 2.3902910905089527 3.2553359462073246 0.61566148304635926 0 -0.78801074757464917 0.39400537378732459 0 0.30783074152317963 1 I I -0.70710678118654746 0.70710678118654746 0.5 forward I I I I #
loop $-1 $-1 $150 $38 #
coedge $-1 $94 $94 $151 $152 reversed $59 $-1 #
face $-1 $-1 $153 $31 $-1 $154 forward single #
loop $-1 $155 $156 $61 #
cone-surface $-1 -47.662210430985795 6.6934619528339425 3.2553359462073246 0.61566148304635926 0 -0.78801074757464917 0.39400537378732459 0 0.30783074152317963 1 I I -0.70710678118654746 0.70710678118654746 0.5 forward I I I I #
loop $-1 $-1 $157 $39 #
coedge $-1 $99 $99 $158 $159 reversed $62 $-1 #
face $-1 $160 $161 $24 $-1 $162 reversed single #
loop $-1 $-1 $163 $64 #
plane-surface $-1 0 -22.458184060726708 0 0 1 0 0 0 1 forward_v I I I I #
coedge $-1 $164 $165 $166 $167 forward $65 $-1 #
coedge $-1 $168 $67 $169 $170 forward $41 $-1 #
coedge $-1 $67 $168 $171 $172 forward $41 $-1 #
coedge $-1 $173 $174 $67 $107 reversed $175 $-1 #
edge $-1 $176 -22.458184060726708 $177 22.458184060726708 $106 $178 forward 7 unknown #
face $-1 $179 $180 $25 $-1 $181 reversed single #
loop $-1 $-1 $182 $68 #
plane-surface $-1 -53.846858119449443 0 0 1 0 0 0 0 -1 forward_v I I I I #
coedge $-1 $183 $184 $185 $186 reversed $69 $-1 #
coedge $-1 $187 $71 $188 $189 reversed $44 $-1 #
coedge $-1 $71 $187 $183 $190 forward $44 $-1 #
coedge $-1 $185 $191 $71 $115 forward $192 $-1 #
edge $-1 $193 -14.073242507565617 $194 -2.6966405987565647 $114 $195 forward 7 unknown #
face $-1 $196 $197 $26 $-1 $198 forward single #
loop $-1 $-1 $199 $72 #
plane-surface $-1 0 -11.081582151917656 7.5343887297598009 0 -1 0 0 0 -1 forward_v I I I I #
coedge $-1 $200 $201 $202 $203 reversed $73 $-1 #
coedge $-1 $121 $75 $204 $205 reversed $47 $-1 #
coedge $-1 $75 $120 $200 $206 reversed $47 $-1 #
coedge $-1 $202 $207 $75 $123 forward $197 $-1 #
edge $-1 $208 -8.500844055966688 $209 -5.2163695142972273 $122 $210 forward 7 unknown #
loop $-1 $-1 $129 $76 #
plane-surface $-1 -1.6195047678779986 -7.7271689471511191 96.019815174361838 0.85716730853699208 0 0.51503806187062418 0.51503806187062418 0 -0.85716730853699208 forward_v I I I I #
loop $-1 $-1 $211 $49 #
coedge $-1 $127 $127 $128 $212 reversed $77 $-1 #
coedge $-1 $128 $128 $127 $212 forward $79 $-1 #
coedge $-1 $129 $129 $80 $130 forward $124 $-1 #
edge $-1 $213 0 $213 6.2831853071796004 $129 $214 forward 7 unknown #
loop $-1 $-1 $136 $81 #
plane-surface $-1 -1.6195047678779986 -7.7271689471511191 96.019815174361838 0.85716730853699208 0 0.51503806187062418 0.51503806187062418 0 -0.85716730853699208 forward_v I I I I #
loop $-1 $-1 $215 $52 #
coedge $-1 $134 $134 $135 $216 reversed $82 $-1 #
coedge $-1 $135 $135 $134 $216 forward $84 $-1 #
coedge $-1 $136 $136 $85 $137 forward $131 $-1 #
edge $-1 $217 0 $217 6.2831853071796004 $136 $218 forward 7 unknown #
face $-1 $219 $220 $29 $-1 $221 forward single #
loop $-1 $-1 $222 $86 #
plane-surface $-1 -120.1497311738637 9.5622425277172667 87.78139995469661 0 -1 0 0.61566148304635926 0 -0.78801074757464917 forward_v I I I I #
coedge $-1 $223 $224 $225 $226 reversed $87 $-1 #
coedge $-1 $143 $89 $227 $228 reversed $56 $-1 #
coedge $-1 $89 $142 $223 $229 reversed $56 $-1 #
coedge $-1 $225 $230 $89 $145 forward $220 $-1 #
edge $-1 $231 6.2280074674824064 $232 14.236566190497363 $144 $233 forward 7 unknown #
loop $-1 $-1 $151 $90 #
plane-surface $-1 -53.846858119449422 4.5418765216714476 2.9175941121897608 -0.61566148304635926 0 0.78801074757464917 0.78801074757464917 0 0.61566148304635926 forward_v I I I I #
loop $-1 $-1 $234 $58 #
coedge $-1 $149 $149 $150 $235 reversed $91 $-1 #
coedge $-1 $150 $150 $149 $235 forward $93 $-1 #
coedge $-1 $151 $151 $94 $152 forward $146 $-1 #
edge $-1 $236 0 $236 6.2831853071796004 $151 $237 forward 7 unknown #
loop $-1 $-1 $158 $95 #
plane-surface $-1 -53.846858119449422 4.5418765216714476 2.9175941121897608 -0.61566148304635926 0 0.78801074757464917 0.78801074757464917 0 0.61566148304635926 forward_v I I I I #
loop $-1 $-1 $238 $61 #
coedge $-1 $156 $156 $157 $239 reversed $96 $-1 #
coedge $-1 $157 $157 $156 $239 forward $98 $-1 #
coedge $-1 $158 $158 $99 $159 forward $153 $-1 #
edge $-1 $240 0 $240 6.2831853071796004 $158 $241 forward 7 unknown #
face $-1 $242 $243 $24 $-1 $244 reversed single #
loop $-1 $-1 $245 $100 #
plane-surface $-1 -53.846858119449443 0 0 1 0 0 0 0 -1 forward_v I I I I #
coedge $-1 $246 $171 $247 $248 forward $101 $-1 #
coedge $-1 $249 $103 $246 $250 forward $65 $-1 #
coedge $-1 $103 $249 $251 $252 forward $65 $-1 #
coedge $-1 $174 $173 $103 $167 reversed $175 $-1 #
edge $-1 $253 -22.458184060726708 $254 22.458184060726708 $166 $255 forward 7 unknown #
coedge $-1 $105 $104 $256 $257 forward $41 $-1 #
coedge $-1 $258 $259 $104 $170 reversed $243 $-1 #
edge $-1 $177 -53.846858119449443 $260 53.846858119449443 $169 $261 forward 7 unknown #
coedge $-1 $163 $262 $105 $172 reversed $101 $-1 #
edge $-1 $263 -53.846858119449443 $176 53.846858119449443 $171 $264 forward 7 unknown #
coedge $-1 $166 $106 $262 $265 forward $175 $-1 #
coedge $-1 $106 $166 $258 $266 reversed $175 $-1 #
loop $-1 $-1 $173 $242 #
vertex $-1 $107 $267 #
vertex $-1 $107 $268 #
straight-curve $-1 53.846858119449443 0 9.1745660578777937 0 1 0 I I #
face $-1 $269 $270 $25 $-1 $271 forward single #
loop $-1 $-1 $188 $108 #
plane-surface $-1 0 -22.458184060726708 0 0 1 0 0 0 1 forward_v I I I I #
coedge $-1 $272 $273 $274 $275 forward $109 $-1 #
coedge $-1 $274 $111 $113 $190 reversed $69 $-1 #
coedge $-1 $111 $274 $276 $277 reversed $69 $-1 #
coedge $-1 $278 $114 $111 $186 forward $192 $-1 #
edge $-1 $194 2.1270170367619059 $279 5.407371692997895 $185 $280 forward 7 unknown #
coedge $-1 $113 $112 $272 $281 reversed $44 $-1 #
coedge $-1 $282 $283 $112 $189 forward $180 $-1 #
edge $-1 $284 -53.846858119449443 $193 53.846858119449443 $188 $285 forward 7 unknown #
edge $-1 $286 -53.846858119449443 $194 53.846858119449443 $183 $287 forward 7 unknown #
coedge $-1 $114 $278 $282 $288 forward $192 $-1 #
loop $-1 $-1 $185 $269 #
vertex $-1 $189 $289 #
vertex $-1 $115 $290 #
straight-curve $-1 53.846858119449443 -8.3849415531610916 5.8942114016418063 0 1 0 I I #
face $-1 $-1 $291 $26 $-1 $292 reversed single #
loop $-1 $-1 $202 $116 #
plane-surface $-1 0 0 9.1745660578777937 0 0 1 1 0 0 forward_v I I I I #
coedge $-1 $293 $294 $201 $295 reversed $117 $-1 #
coedge $-1 $296 $119 $121 $206 forward $73 $-1 #
coedge $-1 $119 $296 $199 $295 forward $73 $-1 #
coedge $-1 $297 $122 $119 $203 forward $197 $-1 #
edge $-1 $209 0.50917126880902419 $298 7.2179976783420967 $202 $299 forward 7 unknown #
coedge $-1 $300 $301 $120 $205 forward $291 $-1 #
edge $-1 $302 -72.0348067513263 $208 -66.568522972966846 $204 $303 forward 7 unknown #
edge $-1 $209 101.31656708269826 $302 107.69371623889889 $121 $304 forward 7 unknown #
coedge $-1 $122 $297 $300 $305 forward $197 $-1 #
vertex $-1 $205 $306 #
vertex $-1 $123 $307 #
straight-curve $-1 45.346014063482755 -4.3727557423845838 9.1745660578777972 -1 0 0 I I #
coedge $-1 $211 $211 $-1 $308 reversed $126 $-1 #
edge $-1 $309 0 $309 6.2831853071796004 $127 $310 forward 7 unknown #
vertex $-1 $130 $311 #
ellipse-curve $-1 52.204620848614702 -9.1647746063367777 6.4414241686980755 0.85716730853699208 0 0.51503806187062418 0.25751903093531209 0 -0.42858365426849604 1 I I #
coedge $-1 $215 $215 $-1 $312 reversed $133 $-1 #
edge $-1 $313 0 $313 6.2831853071796004 $134 $314 forward 7 unknown #
vertex $-1 $137 $315 #
ellipse-curve $-1 52.204620848614702 -6.2895632879654606 6.4414241686980755 0.85716730853699208 0 0.51503806187062418 0.25751903093531209 0 -0.42858365426849604 1 I I #
face $-1 $-1 $316 $29 $-1 $317 reversed single #
loop $-1 $-1 $144 $138 #
plane-surface $-1 0 0 9.1745660578777937 0 0 1 1 0 0 forward_v I I I I #
coedge $-1 $318 $319 $320 $321 reversed $139 $-1 #
coedge $-1 $322 $141 $143 $229 forward $87 $-1 #
coedge $-1 $141 $322 $318 $323 forward $87 $-1 #
coedge $-1 $320 $144 $141 $226 forward $220 $-1 #
edge $-1 $232 -2.7494277452100953 $324 7.2913042668815429 $225 $325 forward 7 unknown #
coedge $-1 $326 $327 $142 $228 forward $316 $-1 #
edge $-1 $328 -40.973105865158558 $231 -34.716133919470508 $227 $329 forward 7 unknown #
edge $-1 $232 -10.163006973780234 $328 2.7186986990266253e-014 $143 $330 forward 7 unknown #
coedge $-1 $144 $320 $326 $331 forward $220 $-1 #
vertex $-1 $228 $332 #
vertex $-1 $145 $333 #
straight-curve $-1 -60.07486558693185 -0.47848948437437144 9.1745660578777972 1 0 0 I I #
coedge $-1 $234 $234 $-1 $334 reversed $148 $-1 #
edge $-1 $335 0 $335 6.2831853071796004 $149 $336 forward 7 unknown #
vertex $-1 $152 $337 #
ellipse-curve $-1 -49.842578757941965 2.3902910905089527 6.0460800850337657 -0.61566148304635926 0 0.78801074757464917 0.78801074757464917 0 0.61566148304635926 1 I I #
coedge $-1 $238 $238 $-1 $338 reversed $155 $-1 #
edge $-1 $339 0 $339 6.2831853071796004 $156 $340 forward 7 unknown #
vertex $-1 $159 $341 #
ellipse-curve $-1 -49.842578757941965 6.6934619528339425 6.0460800850337657 -0.61566148304635926 0 0.78801074757464917 0.78801074757464917 0 0.61566148304635926 1 I I #
face $-1 $-1 $175 $24 $-1 $342 reversed single #
loop $-1 $-1 $258 $160 #
plane-surface $-1 0 22.458184060726708 0 0 -1 0 0 0 -1 forward_v I I I I #
coedge $-1 $343 $256 $259 $344 forward $161 $-1 #
coedge $-1 $262 $163 $164 $250 reversed $101 $-1 #
coedge $-1 $256 $343 $163 $248 reversed $161 $-1 #
edge $-1 $263 -9.1745660578777937 $345 9.1745660578777937 $247 $346 forward 7 unknown #
coedge $-1 $165 $164 $343 $347 forward $65 $-1 #
edge $-1 $254 -53.846858119449443 $345 53.846858119449443 $246 $348 forward 7 unknown #
coedge $-1 $259 $258 $165 $252 reversed $243 $-1 #
edge $-1 $349 -53.846858119449443 $253 53.846858119449443 $251 $350 forward 7 unknown #
vertex $-1 $167 $351 #
vertex $-1 $265 $352 #
straight-curve $-1 53.846858119449443 0 -9.1745660578777937 0 -1 0 I I #
coedge $-1 $245 $247 $168 $257 reversed $161 $-1 #
edge $-1 $260 -22.458184060726708 $263 22.458184060726708 $256 $353 forward 7 unknown #
coedge $-1 $251 $169 $174 $266 forward $243 $-1 #
coedge $-1 $169 $251 $245 $344 reversed $243 $-1 #
vertex $-1 $170 $354 #
straight-curve $-1 0 22.458184060726708 9.1745660578777937 -1 0 0 I I #
coedge $-1 $171 $246 $173 $265 reversed $101 $-1 #
vertex $-1 $257 $355 #
straight-curve $-1 0 -22.458184060726708 9.1745660578777937 1 0 0 I I #
edge $-1 $176 -9.1745660578777937 $254 9.1745660578777937 $173 $356 forward 7 unknown #
edge $-1 $177 -9.1745660578777937 $253 9.1745660578777937 $174 $357 forward 7 unknown #
point $-1 53.846858119449443 -22.458184060726708 9.1745660578777937 #
point $-1 53.846858119449443 22.458184060726708 9.1745660578777937 #
face $-1 $-1 $192 $25 $-1 $358 reversed single #
loop $-1 $-1 $276 $179 #
plane-surface $-1 0 0 9.1745660578777937 0 0 1 1 0 0 forward_v I I I I #
coedge $-1 $359 $182 $187 $281 forward $109 $-1 #
coedge $-1 $182 $359 $360 $361 reversed $109 $-1 #
coedge $-1 $184 $183 $182 $275 reversed $69 $-1 #
edge $-1 $362 -5.407371692997895 $286 -2.1270170367619059 $182 $363 forward 7 unknown #
coedge $-1 $360 $364 $184 $277 forward $270 $-1 #
edge $-1 $279 -53.846858119449443 $362 53.846858119449443 $276 $365 forward 7 unknown #
coedge $-1 $191 $185 $364 $366 reversed $192 $-1 #
vertex $-1 $186 $367 #
straight-curve $-1 53.846858119449443 -11.081582151917656 3.7671943648799004 0 0 1 I I #
edge $-1 $286 2.6966405987565647 $284 14.073242507565617 $272 $368 forward 7 unknown #
coedge $-1 $369 $188 $191 $288 reversed $180 $-1 #
coedge $-1 $188 $369 $359 $370 forward $180 $-1 #
vertex $-1 $189 $371 #
straight-curve $-1 0 -22.458184060726708 5.8942114016418063 1 0 0 I I #
vertex $-1 $281 $372 #
straight-curve $-1 0 -11.081582151917656 5.8942114016418063 1 0 0 I I #
edge $-1 $373 -9.1745660578777937 $193 -5.8942114016418063 $191 $374 forward 7 unknown #
point $-1 53.846858119449443 -22.458184060726708 5.8942114016418063 #
point $-1 53.846858119449443 -11.081582151917656 5.8942114016418063 #
loop $-1 $-1 $204 $196 #
plane-surface $-1 53.846858119449443 0 0 -1 0 0 0 0 1 forward_v I I I I #
coedge $-1 $294 $199 $375 $376 reversed $117 $-1 #
coedge $-1 $199 $293 $297 $377 reversed $117 $-1 #
edge $-1 $378 -107.69371623889889 $298 -101.31656708269824 $199 $379 forward 7 unknown #
coedge $-1 $201 $200 $301 $380 reversed $73 $-1 #
coedge $-1 $207 $202 $294 $377 forward $197 $-1 #
vertex $-1 $377 $381 #
straight-curve $-1 50.562383577779968 -3.8635844735755596 9.1745660578777901 0 -1 0 I I #
coedge $-1 $375 $204 $207 $305 reversed $291 $-1 #
coedge $-1 $204 $375 $296 $380 forward $291 $-1 #
vertex $-1 $205 $382 #
straight-curve $-1 53.846858119449443 -4.3727557423845838 75.743089030844644 0 0 1 I I #
straight-curve $-1 -1.6195047678779986 -4.3727557423845838 96.019815174361838 0.51503806187062418 0 -0.85716730853699208 I I #
edge $-1 $383 -11.081582151917656 $208 -4.3727557423845838 $300 $384 forward 7 unknown #
point $-1 53.846858119449443 -4.3727557423845838 9.1745660578777937 #
point $-1 50.562383577779983 -4.3727557423845838 9.1745660578777972 #
edge $-1 $385 1 $385 0 $211 $-1 forward 7 unknown #
vertex $-1 $212 $386 #
ellipse-curve $-1 50.661761548397912 -9.1647746063367777 5.5143808064413049 0.85716730853699208 0 0.51503806187062418 0.25751903093531209 0 -0.42858365426849604 1 I I #
point $-1 52.462139879550008 -9.1647746063367777 6.0128405144295787 #
edge $-1 $387 1 $387 0 $215 $-1 forward 7 unknown #
vertex $-1 $216 $388 #
ellipse-curve $-1 50.661761548397912 -6.2895632879654606 5.5143808064413049 0.85716730853699208 0 0.51503806187062418 0.25751903093531209 0 -0.42858365426849604 1 I I #
point $-1 52.462139879550008 -6.2895632879654606 6.0128405144295787 #
loop $-1 $-1 $227 $219 #
plane-surface $-1 -53.846858119449443 0 0 1 0 0 0 0 -1 forward_v I I I I #
coedge $-1 $319 $222 $224 $323 reversed $139 $-1 #
coedge $-1 $222 $318 $389 $390 reversed $139 $-1 #
coedge $-1 $230 $225 $222 $321 forward $220 $-1 #
edge $-1 $324 -14.236566190497363 $391 -6.2280074674824064 $320 $392 forward 7 unknown #
coedge $-1 $224 $223 $327 $393 reversed $87 $-1 #
edge $-1 $394 -2.7186986990266253e-014 $324 10.163006973780234 $318 $395 forward 7 unknown #
vertex $-1 $226 $396 #
straight-curve $-1 -45.838299396434486 2.2709382608357238 9.1745660578777937 0 1 0 I I #
coedge $-1 $389 $227 $230 $331 reversed $316 $-1 #
coedge $-1 $227 $389 $322 $393 forward $316 $-1 #
vertex $-1 $228 $397 #
straight-curve $-1 -53.846858119449443 -0.47848948437437144 43.890699977348305 0 0 1 I I #
straight-curve $-1 -53.846858119449422 -0.47848948437437144 2.9175941121897608 -0.78801074757464917 0 -0.61566148304635926 I I #
edge $-1 $391 -9.5622425277172667 $231 0.47848948437437144 $326 $398 forward 7 unknown #
point $-1 -53.846858119449443 -0.47848948437437144 9.1745660578777937 #
point $-1 -45.838299396434486 -0.47848948437437144 9.1745660578777937 #
edge $-1 $399 1 $399 0 $234 $-1 forward 7 unknown #
vertex $-1 $235 $400 #
ellipse-curve $-1 -47.970041172508971 2.3902910905089527 3.6493413199946492 -0.61566148304635926 0 0.78801074757464917 0.78801074757464917 0 0.61566148304635926 1 I I #
point $-1 -49.054568010367326 2.3902910905089527 6.6617415680801351 #
edge $-1 $401 1 $401 0 $238 $-1 forward 7 unknown #
vertex $-1 $239 $402 #
ellipse-curve $-1 -47.970041172508971 6.6934619528339425 3.6493413199946492 -0.61566148304635926 0 0.78801074757464917 0.78801074757464917 0 0.61566148304635926 1 I I #
point $-1 -49.054568010367326 6.6934619528339425 6.6617415680801351 #
plane-surface $-1 53.846858119449443 0 0 -1 0 0 0 0 1 forward_v I I I I #
coedge $-1 $247 $245 $249 $347 reversed $161 $-1 #
edge $-1 $260 -9.1745660578777937 $349 9.1745660578777937 $259 $403 forward 7 unknown #
vertex $-1 $347 $404 #
straight-curve $-1 -53.846858119449443 -22.458184060726708 0 0 0 -1 I I #
edge $-1 $345 -22.458184060726708 $349 22.458184060726708 $343 $405 forward 7 unknown #
straight-curve $-1 0 -22.458184060726708 -9.1745660578777937 -1 0 0 I I #
vertex $-1 $252 $406 #
straight-curve $-1 0 22.458184060726708 -9.1745660578777937 1 0 0 I I #
point $-1 53.846858119449443 22.458184060726708 -9.1745660578777937 #
point $-1 53.846858119449443 -22.458184060726708 -9.1745660578777937 #
straight-curve $-1 -53.846858119449443 0 9.1745660578777937 0 -1 0 I I #
point $-1 -53.846858119449443 22.458184060726708 9.1745660578777937 #
point $-1 -53.846858119449443 -22.458184060726708 9.1745660578777937 #
straight-curve $-1 53.846858119449443 -22.458184060726708 0 0 0 -1 I I #
straight-curve $-1 53.846858119449443 22.458184060726708 0 0 0 -1 I I #
plane-surface $-1 53.846858119449443 0 0 -1 0 0 0 0 1 forward_v I I I I #
coedge $-1 $273 $272 $283 $370 reversed $109 $-1 #
coedge $-1 $407 $276 $273 $361 forward $270 $-1 #
edge $-1 $362 11.081582151917656 $408 22.458184060726708 $273 $409 forward 7 unknown #
vertex $-1 $361 $410 #
straight-curve $-1 -53.846858119449443 -11.081582151917656 3.7671943648799004 0 0 -1 I I #
coedge $-1 $276 $407 $278 $366 forward $270 $-1 #
straight-curve $-1 0 -11.081582151917656 9.1745660578777937 -1 0 0 I I #
edge $-1 $373 -22.458184060726708 $279 -11.081582151917656 $278 $411 forward 7 unknown #
point $-1 53.846858119449443 -11.081582151917656 9.1745660578777954 #
straight-curve $-1 -53.846858119449443 -8.3849415531610916 5.8942114016418063 0 -1 0 I I #
coedge $-1 $283 $282 $407 $412 reversed $180 $-1 #
edge $-1 $408 -9.1745660578777937 $284 -5.8942114016418063 $359 $413 forward 7 unknown #
point $-1 -53.846858119449443 -22.458184060726708 5.8942114016418063 #
point $-1 -53.846858119449443 -11.081582151917656 5.8942114016418063 #
vertex $-1 $366 $414 #
straight-curve $-1 53.846858119449443 -22.458184060726708 0 0 0 -1 I I #
coedge $-1 $301 $300 $293 $376 forward $291 $-1 #
edge $-1 $383 66.568522972966846 $378 72.0348067513263 $375 $415 forward 7 unknown #
edge $-1 $298 50.562383577779968 $383 53.846858119449443 $297 $416 forward 7 unknown #
vertex $-1 $376 $417 #
straight-curve $-1 -1.6195047678779986 -11.081582151917654 96.019815174361838 -0.51503806187062418 0 0.85716730853699208 I I #
edge $-1 $378 -7.2179976783420949 $302 -0.50917126880902419 $301 $418 forward 7 unknown #
point $-1 50.562383577779968 -11.081582151917656 9.1745660578777937 #
point $-1 53.846858119449436 -4.3727557423845838 3.7082822795183432 #
vertex $-1 $305 $419 #
straight-curve $-1 53.846858119449443 0 9.1745660578777937 0 1 0 I I #
vertex $-1 $308 $420 #
point $-1 50.919280579333225 -9.1647746063367777 5.0857971521728089 #
vertex $-1 $312 $421 #
point $-1 50.919280579333225 -6.2895632879654606 5.0857971521728089 #
coedge $-1 $327 $326 $319 $390 forward $316 $-1 #
edge $-1 $391 34.716133919470508 $394 40.973105865158558 $389 $422 forward 7 unknown #
vertex $-1 $331 $423 #
straight-curve $-1 -60.07486558693185 9.5622425277172667 9.1745660578777972 -1 0 0 I I #
edge $-1 $394 -7.2913042668815429 $328 2.7494277452100953 $327 $424 forward 7 unknown #
vertex $-1 $393 $425 #
straight-curve $-1 -53.846858119449422 9.5622425277172667 2.9175941121897608 0.78801074757464917 0 0.61566148304635926 I I #
point $-1 -45.838299396434486 9.5622425277172667 9.1745660578777937 #
point $-1 -53.846858119449443 -0.47848948437437144 2.917594112189744 #
straight-curve $-1 -53.846858119449443 0 9.1745660578777937 0 -1 0 I I #
vertex $-1 $334 $426 #
point $-1 -47.182030424934325 2.3902910905089527 4.2650028030410088 #
vertex $-1 $338 $427 #
point $-1 -47.182030424934325 6.6934619528339425 4.2650028030410088 #
straight-curve $-1 -53.846858119449443 22.458184060726708 0 0 0 -1 I I #
point $-1 -53.846858119449443 -22.458184060726708 -9.1745660578777937 #
straight-curve $-1 -53.846858119449443 0 -9.1745660578777937 0 1 0 I I #
point $-1 -53.846858119449443 22.458184060726708 -9.1745660578777937 #
coedge $-1 $364 $360 $369 $412 forward $270 $-1 #
vertex $-1 $361 $428 #
straight-curve $-1 -53.846858119449443 0 9.1745660578777937 0 -1 0 I I #
point $-1 -53.846858119449443 -11.081582151917656 9.1745660578777954 #
straight-curve $-1 53.846858119449443 0 9.1745660578777937 0 1 0 I I #
edge $-1 $408 -53.846858119449443 $373 53.846858119449443 $369 $429 forward 7 unknown #
straight-curve $-1 -53.846858119449443 -22.458184060726708 0 0 0 -1 I I #
point $-1 53.846858119449443 -22.458184060726708 9.1745660578777937 #
straight-curve $-1 53.846858119449443 -11.081582151917654 75.743089030844644 0 0 -1 I I #
straight-curve $-1 0 -11.081582151917656 9.1745660578777937 1 0 0 I I #
point $-1 53.846858119449436 -11.081582151917654 3.7082822795183432 #
straight-curve $-1 53.846858119449443 -3.8635844735755596 3.7082822795183361 0 1 0 I I #
point $-1 53.846858119449443 -11.081582151917656 9.1745660578777954 #
point $-1 50.233177894129419 -9.1647746063367777 5.2568617755059934 #
point $-1 50.233177894129419 -6.2895632879654606 5.2568617755059934 #
straight-curve $-1 -53.846858119449443 9.5622425277172667 43.890699977348305 0 0 -1 I I #
point $-1 -53.846858119449443 9.5622425277172667 9.1745660578777937 #
straight-curve $-1 -53.846858119449443 2.2709382608357238 2.9175941121897462 0 -1 0 I I #
point $-1 -53.846858119449443 9.5622425277172667 2.917594112189744 #
point $-1 -47.354379689462618 2.3902910905089527 2.86133057242 #
point $-1 -47.354379689462618 6.6934619528339425 2.86133057242 #
point $-1 -53.846858119449443 -22.458184060726708 9.1745660578777937 #
straight-curve $-1 0 -22.458184060726708 9.1745660578777937 1 0 0 I I #
End-of-ACIS-data 