500 0 13 0           
7 Unknown 11 ACIS 5.0 NT 24 Thu Mar 25 19:30:11 1999 
-1 9.9999999999999995e-007 1e-010 
body $-1 $13 $-1 $14 #
body $-1 $15 $-1 $16 #
body $-1 $17 $-1 $18 #
body $-1 $19 $-1 $20 #
body $-1 $21 $-1 $22 #
body $-1 $23 $-1 $24 #
body $-1 $25 $-1 $26 #
body $-1 $27 $-1 $28 #
body $-1 $29 $-1 $30 #
body $-1 $31 $-1 $32 #
body $-1 $33 $-1 $34 #
body $-1 $35 $-1 $36 #
body $-1 $37 $-1 $38 #
lump $-1 $-1 $39 $0 #
transform $-1 1 0 0 0 1 0 0 0 1 50.834070863979008 22.468017050528349 7.7215594960173268 1 rotate no_reflect no_shear #
lump $-1 $-1 $40 $1 #
transform $-1 1 0 0 0 1 0 0 0 1 50.834070863979008 22.468017050528349 7.7215594960173268 1 rotate no_reflect no_shear #
lump $-1 $-1 $41 $2 #
transform $-1 1 0 0 0 1 0 0 0 1 50.834070863979008 22.468017050528349 7.7215594960173268 1 rotate no_reflect no_shear #
lump $-1 $-1 $42 $3 #
transform $-1 1 0 0 0 1 0 0 0 1 50.834070863979008 22.468017050528349 7.7215594960173268 1 rotate no_reflect no_shear #
lump $-1 $-1 $43 $4 #
transform $-1 1 0 0 0 1 0 0 0 1 50.834070863979008 22.468017050528349 7.7215594960173268 1 rotate no_reflect no_shear #
lump $-1 $-1 $44 $5 #
transform $-1 1 0 0 0 1 0 0 0 1 50.834070863979008 22.468017050528349 7.7215594960173268 1 rotate no_reflect no_shear #
lump $-1 $-1 $45 $6 #
transform $-1 1 0 0 0 1 0 0 0 1 50.834070863979008 22.468017050528349 7.7215594960173268 1 rotate no_reflect no_shear #
lump $-1 $-1 $46 $7 #
transform $-1 1 0 0 0 1 0 0 0 1 50.834070863979008 22.468017050528349 7.7215594960173268 1 rotate no_reflect no_shear #
lump $-1 $-1 $47 $8 #
transform $-1 1 0 0 0 1 0 0 0 1 50.834070863979008 22.468017050528349 7.7215594960173268 1 rotate no_reflect no_shear #
lump $-1 $-1 $48 $9 #
transform $-1 1 0 0 0 1 0 0 0 1 50.834070863979008 22.468017050528349 7.7215594960173268 1 rotate no_reflect no_shear #
lump $-1 $-1 $49 $10 #
transform $-1 1 0 0 0 1 0 0 0 1 50.834070863979008 22.468017050528349 7.7215594960173268 1 rotate no_reflect no_shear #
lump $-1 $-1 $50 $11 #
transform $-1 1 0 0 0 1 0 0 0 1 50.834070863979008 22.468017050528349 7.7215594960173268 1 rotate no_reflect no_shear #
lump $-1 $-1 $51 $12 #
transform $-1 1 0 0 0 1 0 0 0 1 50.834070863979008 22.468017050528349 7.7215594960173268 1 rotate no_reflect no_shear #
shell $-1 $-1 $-1 $52 $-1 $13 #
shell $-1 $-1 $-1 $53 $-1 $15 #
shell $-1 $-1 $-1 $54 $-1 $17 #
shell $-1 $-1 $-1 $55 $-1 $19 #
shell $-1 $-1 $-1 $56 $-1 $21 #
shell $-1 $-1 $-1 $57 $-1 $23 #
shell $-1 $-1 $-1 $58 $-1 $25 #
shell $-1 $-1 $-1 $59 $-1 $27 #
shell $-1 $-1 $-1 $60 $-1 $29 #
shell $-1 $-1 $-1 $61 $-1 $31 #
shell $-1 $-1 $-1 $62 $-1 $33 #
shell $-1 $-1 $-1 $63 $-1 $35 #
shell $-1 $-1 $-1 $64 $-1 $37 #
face $-1 $65 $66 $39 $-1 $67 reversed single #
face $-1 $68 $69 $40 $-1 $70 forward single #
face $-1 $71 $72 $41 $-1 $73 reversed single #
face $-1 $74 $75 $42 $-1 $76 forward single #
face $-1 $77 $78 $43 $-1 $79 reversed single #
face $-1 $80 $81 $44 $-1 $82 forward single #
face $-1 $83 $84 $45 $-1 $85 forward single #
face $-1 $86 $87 $46 $-1 $88 reversed single #
face $-1 $89 $90 $47 $-1 $91 forward single #
face $-1 $92 $93 $48 $-1 $94 forward single #
face $-1 $95 $96 $49 $-1 $97 reversed single #
face $-1 $98 $99 $50 $-1 $100 forward single #
face $-1 $101 $102 $51 $-1 $103 forward single #
face $-1 $104 $105 $39 $-1 $106 forward single #
loop $-1 $-1 $107 $52 #
plane-surface $-1 0 -22.468017050528349 0 0 1 0 0 0 1 forward_v I I I I #
face $-1 $108 $109 $40 $-1 $110 forward single #
loop $-1 $-1 $111 $53 #
plane-surface $-1 0 -22.468017050528349 0 0 1 0 0 0 1 forward_v I I I I #
face $-1 $112 $113 $41 $-1 $114 reversed single #
loop $-1 $-1 $115 $54 #
plane-surface $-1 58.358960760202791 -6.6553143901238592 146.29182750442885 0 -1 0 -0.74314483375859142 0 -0.66913059716165679 forward_v I I I I #
face $-1 $116 $117 $42 $-1 $118 forward single #
loop $-1 $119 $120 $55 #
cone-surface $-1 47.709155263228944 -11.227972485319146 4.4334468977110486 -0.74314483375859142 0 -0.66913059716165679 0.66913059716165679 0 -0.74314483375859142 1 I I 0 1 1 forward I I I I #
face $-1 $121 $122 $43 $-1 $123 reversed single #
loop $-1 $-1 $124 $56 #
plane-surface $-1 -137.98067827289023 -12.30663420073169 56.244160369229697 0 1 0 -0.85716730853699208 0 0.51503806187062418 forward_v I I I I #
face $-1 $125 $126 $44 $-1 $127 forward single #
loop $-1 $128 $129 $57 #
cone-surface $-1 -49.171076524565947 -10.355671220060055 5.4954003748957403 0.85716730853699208 0 -0.51503806187062418 0.25751903093531209 0 0.42858365426849604 1 I I 0 1 0.5 forward I I I I #
face $-1 $130 $131 $45 $-1 $132 forward single #
loop $-1 $133 $134 $58 #
cone-surface $-1 -49.171076524565947 -7.4292267490525994 5.4954003748957403 0.85716730853699208 0 -0.51503806187062418 0.25751903093531209 0 0.42858365426849604 1 I I 0 1 0.5 forward I I I I #
face $-1 $135 $136 $46 $-1 $137 reversed single #
loop $-1 $-1 $138 $59 #
plane-surface $-1 -137.98067827289023 0.44958167628256884 56.244160369229697 0 1 0 -0.85716730853699208 0 0.51503806187062418 forward_v I I I I #
face $-1 $139 $140 $47 $-1 $141 forward single #
loop $-1 $142 $143 $60 #
cone-surface $-1 -49.171076524565947 2.4005446569542066 5.4954003748957403 0.85716730853699208 0 -0.51503806187062418 0.25751903093531209 0 0.42858365426849604 1 I I 0 1 0.5 forward I I I I #
face $-1 $144 $145 $48 $-1 $146 forward single #
loop $-1 $147 $148 $61 #
cone-surface $-1 -49.171076524565947 5.3269891279616637 5.4954003748957403 0.85716730853699208 0 -0.51503806187062418 0.25751903093531209 0 0.42858365426849604 1 I I 0 1 0.5 forward I I I I #
face $-1 $149 $150 $49 $-1 $151 reversed single #
loop $-1 $-1 $152 $62 #
plane-surface $-1 -137.98067827289023 13.205797553296833 56.244160369229697 0 1 0 -0.85716730853699208 0 0.51503806187062418 forward_v I I I I #
face $-1 $153 $154 $50 $-1 $155 forward single #
loop $-1 $156 $157 $63 #
cone-surface $-1 -49.171076524565947 15.15676053396847 5.4954003748957403 0.85716730853699208 0 -0.51503806187062418 0.25751903093531209 0 0.42858365426849604 1 I I 0 1 0.5 forward I I I I #
face $-1 $158 $159 $51 $-1 $160 forward single #
loop $-1 $161 $162 $64 #
cone-surface $-1 -49.171076524565947 18.083205004975927 5.4954003748957403 0.85716730853699208 0 -0.51503806187062418 0.25751903093531209 0 0.42858365426849604 1 I I 0 1 0.5 forward I I I I #
face $-1 $163 $164 $39 $-1 $165 reversed single #
loop $-1 $-1 $166 $65 #
plane-surface $-1 0 0 7.7215594960173268 0 0 1 1 0 0 forward_v I I I I #
coedge $-1 $167 $168 $169 $170 reversed $66 $-1 #
face $-1 $171 $172 $40 $-1 $173 reversed single #
loop $-1 $-1 $174 $68 #
plane-surface $-1 0 0 7.7215594960173268 0 0 1 1 0 0 forward_v I I I I #
coedge $-1 $175 $176 $177 $178 forward $69 $-1 #
face $-1 $179 $180 $41 $-1 $181 reversed single #
loop $-1 $-1 $182 $71 #
plane-surface $-1 -17.195193522765479 -11.227972485319144 78.262563117684351 0.74314483375859142 0 0.66913059716165679 0.66913059716165679 0 -0.74314483375859142 forward_v I I I I #
coedge $-1 $183 $184 $185 $186 reversed $72 $-1 #
face $-1 $-1 $187 $42 $-1 $188 forward single #
loop $-1 $189 $190 $74 #
cone-surface $-1 46.469597754483075 -11.227972485319146 3.3173443314745805 -0.74314483375859142 0 -0.66913059716165679 0.3345652985808284 0 -0.37157241687929571 1 I I -0.70710678118654779 0.70710678118654713 0.5 forward I I I I #
loop $-1 $-1 $191 $55 #
coedge $-1 $120 $120 $192 $193 reversed $75 $-1 #
face $-1 $194 $195 $43 $-1 $196 reversed single #
loop $-1 $-1 $197 $77 #
plane-surface $-1 -50.834070863979008 -8.8924489845563244 3.8811976996742672 -0.85716730853699208 0 0.51503806187062418 0.51503806187062418 0 0.85716730853699208 forward_v I I I I #
coedge $-1 $198 $199 $200 $201 reversed $78 $-1 #
face $-1 $-1 $202 $44 $-1 $203 forward single #
loop $-1 $204 $205 $80 #
cone-surface $-1 -48.447551401382768 -10.355671220060055 5.0606626364780274 0.85716730853699208 0 -0.51503806187062418 0.12875951546765604 0 0.21429182713424802 1 I I -0.70710678118654746 0.70710678118654746 0.25 forward I I I I #
loop $-1 $-1 $206 $57 #
coedge $-1 $129 $129 $207 $208 reversed $81 $-1 #
face $-1 $-1 $209 $45 $-1 $210 forward single #
loop $-1 $211 $212 $83 #
cone-surface $-1 -48.447551401382768 -7.4292267490525994 5.0606626364780274 0.85716730853699208 0 -0.51503806187062418 0.12875951546765604 0 0.21429182713424802 1 I I -0.70710678118654746 0.70710678118654746 0.25 forward I I I I #
loop $-1 $-1 $213 $58 #
coedge $-1 $134 $134 $214 $215 reversed $84 $-1 #
face $-1 $216 $217 $46 $-1 $218 reversed single #
loop $-1 $-1 $219 $86 #
plane-surface $-1 -50.834070863979008 3.8637668924579351 3.8811976996742672 -0.85716730853699208 0 0.51503806187062418 0.51503806187062418 0 0.85716730853699208 forward_v I I I I #
coedge $-1 $220 $221 $222 $223 reversed $87 $-1 #
face $-1 $-1 $224 $47 $-1 $225 forward single #
loop $-1 $226 $227 $89 #
cone-surface $-1 -48.447551401382768 2.4005446569542066 5.0606626364780274 0.85716730853699208 0 -0.51503806187062418 0.12875951546765604 0 0.21429182713424802 1 I I -0.70710678118654746 0.70710678118654746 0.25 forward I I I I #
loop $-1 $-1 $228 $60 #
coedge $-1 $143 $143 $229 $230 reversed $90 $-1 #
face $-1 $-1 $231 $48 $-1 $232 forward single #
loop $-1 $233 $234 $92 #
cone-surface $-1 -48.447551401382768 5.3269891279616637 5.0606626364780274 0.85716730853699208 0 -0.51503806187062418 0.12875951546765604 0 0.21429182713424802 1 I I -0.70710678118654746 0.70710678118654746 0.25 forward I I I I #
loop $-1 $-1 $235 $61 #
coedge $-1 $148 $148 $236 $237 reversed $93 $-1 #
face $-1 $238 $239 $49 $-1 $240 reversed single #
loop $-1 $-1 $241 $95 #
plane-surface $-1 -50.834070863979008 16.619982769472198 3.8811976996742672 -0.85716730853699208 0 0.51503806187062418 0.51503806187062418 0 0.85716730853699208 forward_v I I I I #
coedge $-1 $242 $243 $244 $245 reversed $96 $-1 #
face $-1 $-1 $246 $50 $-1 $247 forward single #
loop $-1 $248 $249 $98 #
cone-surface $-1 -48.447551401382768 15.15676053396847 5.0606626364780274 0.85716730853699208 0 -0.51503806187062418 0.12875951546765604 0 0.21429182713424802 1 I I -0.70710678118654746 0.70710678118654746 0.25 forward I I I I #
loop $-1 $-1 $250 $63 #
coedge $-1 $157 $157 $251 $252 reversed $99 $-1 #
face $-1 $-1 $253 $51 $-1 $254 forward single #
loop $-1 $255 $256 $101 #
cone-surface $-1 -48.447551401382768 18.083205004975927 5.0606626364780274 0.85716730853699208 0 -0.51503806187062418 0.12875951546765604 0 0.21429182713424802 1 I I -0.70710678118654746 0.70710678118654746 0.25 forward I I I I #
loop $-1 $-1 $257 $64 #
coedge $-1 $162 $162 $258 $259 reversed $102 $-1 #
face $-1 $260 $261 $39 $-1 $262 reversed single #
loop $-1 $-1 $263 $104 #
plane-surface $-1 0 0 -7.7215594960173268 0 0 1 1 0 0 forward_v I I I I #
coedge $-1 $264 $265 $266 $267 forward $105 $-1 #
coedge $-1 $268 $107 $269 $270 reversed $66 $-1 #
coedge $-1 $107 $268 $271 $272 forward $66 $-1 #
coedge $-1 $273 $263 $107 $170 forward $164 $-1 #
edge $-1 $274 -50.834070863979008 $275 50.834070863979008 $107 $276 forward 7 unknown #
face $-1 $277 $278 $40 $-1 $279 reversed single #
loop $-1 $-1 $280 $108 #
plane-surface $-1 -50.834070863979008 0 0 1 0 0 0 0 -1 forward_v I I I I #
coedge $-1 $281 $282 $176 $283 forward $109 $-1 #
coedge $-1 $284 $111 $285 $286 reversed $69 $-1 #
coedge $-1 $111 $284 $174 $283 reversed $69 $-1 #
coedge $-1 $287 $288 $111 $178 reversed $289 $-1 #
edge $-1 $290 -7.7215594960173268 $291 7.7215594960173268 $177 $292 forward 7 unknown #
face $-1 $293 $294 $41 $-1 $295 forward single #
loop $-1 $-1 $296 $112 #
plane-surface $-1 58.358960760202791 -15.800630580514429 146.29182750442885 0 1 0 0.74314483375859142 0 0.66913059716165679 forward_v I I I I #
coedge $-1 $297 $298 $299 $300 reversed $113 $-1 #
coedge $-1 $184 $115 $301 $302 reversed $72 $-1 #
coedge $-1 $115 $183 $297 $303 reversed $72 $-1 #
coedge $-1 $299 $304 $115 $186 forward $294 $-1 #
edge $-1 $305 -21.654590483877612 $306 -17.140729466110614 $185 $307 forward 7 unknown #
loop $-1 $-1 $192 $116 #
plane-surface $-1 -17.195193522765479 -11.227972485319144 78.262563117684351 0.74314483375859142 0 0.66913059716165679 0.66913059716165679 0 -0.74314483375859142 forward_v I I I I #
loop $-1 $-1 $308 $74 #
coedge $-1 $190 $190 $191 $309 reversed $117 $-1 #
coedge $-1 $191 $191 $190 $309 forward $119 $-1 #
coedge $-1 $192 $192 $120 $193 forward $187 $-1 #
edge $-1 $310 0 $310 6.2831853071796004 $192 $311 forward 7 unknown #
face $-1 $312 $313 $43 $-1 $314 reversed single #
loop $-1 $-1 $315 $121 #
plane-surface $-1 -137.98067827289023 -5.4782637683809581 56.244160369229697 0 -1 0 0.85716730853699208 0 -0.51503806187062418 forward_v I I I I #
coedge $-1 $316 $317 $318 $319 reversed $122 $-1 #
coedge $-1 $199 $124 $320 $321 reversed $78 $-1 #
coedge $-1 $124 $198 $316 $322 reversed $78 $-1 #
coedge $-1 $318 $323 $124 $201 forward $324 $-1 #
edge $-1 $325 18.156268272466107 $326 20.463790359194356 $200 $327 forward 7 unknown #
loop $-1 $-1 $207 $125 #
plane-surface $-1 -50.834070863979008 -8.8924489845563244 3.8811976996742672 -0.85716730853699208 0 0.51503806187062418 0.51503806187062418 0 0.85716730853699208 forward_v I I I I #
loop $-1 $-1 $328 $80 #
coedge $-1 $205 $205 $206 $329 reversed $126 $-1 #
coedge $-1 $206 $206 $205 $329 forward $128 $-1 #
coedge $-1 $207 $207 $129 $208 forward $202 $-1 #
edge $-1 $330 0 $330 6.2831853071796004 $207 $331 forward 7 unknown #
loop $-1 $-1 $214 $130 #
plane-surface $-1 -50.834070863979008 -8.8924489845563244 3.8811976996742672 -0.85716730853699208 0 0.51503806187062418 0.51503806187062418 0 0.85716730853699208 forward_v I I I I #
loop $-1 $-1 $332 $83 #
coedge $-1 $212 $212 $213 $333 reversed $131 $-1 #
coedge $-1 $213 $213 $212 $333 forward $133 $-1 #
coedge $-1 $214 $214 $134 $215 forward $209 $-1 #
edge $-1 $334 0 $334 6.2831853071796004 $214 $335 forward 7 unknown #
face $-1 $336 $337 $46 $-1 $338 forward single #
loop $-1 $-1 $339 $135 #
plane-surface $-1 -137.98067827289023 7.2779521086333014 56.244160369229697 0 -1 0 0.85716730853699208 0 -0.51503806187062418 forward_v I I I I #
coedge $-1 $340 $341 $342 $343 reversed $136 $-1 #
coedge $-1 $221 $138 $344 $345 reversed $87 $-1 #
coedge $-1 $138 $220 $340 $346 reversed $87 $-1 #
coedge $-1 $342 $347 $138 $223 forward $337 $-1 #
edge $-1 $348 18.156268272466107 $349 20.463790359194356 $222 $350 forward 7 unknown #
loop $-1 $-1 $229 $139 #
plane-surface $-1 -50.834070863979008 3.8637668924579351 3.8811976996742672 -0.85716730853699208 0 0.51503806187062418 0.51503806187062418 0 0.85716730853699208 forward_v I I I I #
loop $-1 $-1 $351 $89 #
coedge $-1 $227 $227 $228 $352 reversed $140 $-1 #
coedge $-1 $228 $228 $227 $352 forward $142 $-1 #
coedge $-1 $229 $229 $143 $230 forward $224 $-1 #
edge $-1 $353 0 $353 6.2831853071796004 $229 $354 forward 7 unknown #
loop $-1 $-1 $236 $144 #
plane-surface $-1 -50.834070863979008 3.8637668924579351 3.8811976996742672 -0.85716730853699208 0 0.51503806187062418 0.51503806187062418 0 0.85716730853699208 forward_v I I I I #
loop $-1 $-1 $355 $92 #
coedge $-1 $234 $234 $235 $356 reversed $145 $-1 #
coedge $-1 $235 $235 $234 $356 forward $147 $-1 #
coedge $-1 $236 $236 $148 $237 forward $231 $-1 #
edge $-1 $357 0 $357 6.2831853071796004 $236 $358 forward 7 unknown #
face $-1 $359 $360 $49 $-1 $361 forward single #
loop $-1 $-1 $362 $149 #
plane-surface $-1 -137.98067827289023 20.034167985647564 56.244160369229697 0 -1 0 0.85716730853699208 0 -0.51503806187062418 forward_v I I I I #
coedge $-1 $363 $364 $365 $366 reversed $150 $-1 #
coedge $-1 $243 $152 $367 $368 reversed $96 $-1 #
coedge $-1 $152 $242 $363 $369 reversed $96 $-1 #
coedge $-1 $365 $370 $152 $245 forward $360 $-1 #
edge $-1 $371 18.156268272466107 $372 20.463790359194356 $244 $373 forward 7 unknown #
loop $-1 $-1 $251 $153 #
plane-surface $-1 -50.834070863979008 16.619982769472198 3.8811976996742672 -0.85716730853699208 0 0.51503806187062418 0.51503806187062418 0 0.85716730853699208 forward_v I I I I #
loop $-1 $-1 $374 $98 #
coedge $-1 $249 $249 $250 $375 reversed $154 $-1 #
coedge $-1 $250 $250 $249 $375 forward $156 $-1 #
coedge $-1 $251 $251 $157 $252 forward $246 $-1 #
edge $-1 $376 0 $376 6.2831853071796004 $251 $377 forward 7 unknown #
loop $-1 $-1 $258 $158 #
plane-surface $-1 -50.834070863979008 16.619982769472198 3.8811976996742672 -0.85716730853699208 0 0.51503806187062418 0.51503806187062418 0 0.85716730853699208 forward_v I I I I #
loop $-1 $-1 $378 $101 #
coedge $-1 $256 $256 $257 $379 reversed $159 $-1 #
coedge $-1 $257 $257 $256 $379 forward $161 $-1 #
coedge $-1 $258 $258 $162 $259 forward $253 $-1 #
edge $-1 $380 0 $380 6.2831853071796004 $258 $381 forward 7 unknown #
face $-1 $382 $383 $39 $-1 $384 reversed single #
loop $-1 $-1 $385 $163 #
plane-surface $-1 -50.834070863979008 0 0 1 0 0 0 0 -1 forward_v I I I I #
coedge $-1 $169 $386 $387 $388 forward $164 $-1 #
coedge $-1 $389 $166 $390 $391 forward $105 $-1 #
coedge $-1 $166 $389 $268 $392 forward $105 $-1 #
coedge $-1 $269 $393 $166 $267 reversed $394 $-1 #
edge $-1 $395 -22.468017050528349 $396 22.468017050528349 $266 $397 forward 7 unknown #
coedge $-1 $168 $167 $265 $392 reversed $66 $-1 #
coedge $-1 $387 $266 $167 $270 forward $394 $-1 #
edge $-1 $395 -7.7215594960173268 $274 7.7215594960173268 $269 $398 forward 7 unknown #
coedge $-1 $399 $400 $168 $272 reversed $261 $-1 #
edge $-1 $401 -7.7215594960173268 $275 7.7215594960173268 $271 $402 forward 7 unknown #
coedge $-1 $386 $169 $400 $403 forward $164 $-1 #
vertex $-1 $270 $404 #
vertex $-1 $403 $405 #
straight-curve $-1 0 -22.468017050528349 -7.7215594960173268 -1 0 0 I I #
face $-1 $406 $289 $40 $-1 $407 reversed single #
loop $-1 $-1 $408 $171 #
plane-surface $-1 -49.261881512205001 -29.135403520542265 0 0 1 0 0 0 1 forward_v I I I I #
coedge $-1 $409 $410 $284 $411 forward $172 $-1 #
coedge $-1 $412 $174 $410 $413 forward $109 $-1 #
coedge $-1 $174 $412 $287 $414 forward $109 $-1 #
edge $-1 $290 47.689692160430994 $415 50.834070863979008 $174 $416 forward 7 unknown #
coedge $-1 $176 $175 $280 $411 reversed $69 $-1 #
coedge $-1 $417 $418 $175 $286 forward $419 $-1 #
edge $-1 $420 -50.834070863979008 $291 -47.689692160430994 $285 $421 forward 7 unknown #
coedge $-1 $422 $177 $282 $414 reversed $289 $-1 #
coedge $-1 $177 $422 $417 $423 reversed $289 $-1 #
loop $-1 $-1 $422 $277 #
vertex $-1 $283 $424 #
vertex $-1 $423 $425 #
straight-curve $-1 -47.689692160430994 -22.468017050528349 0 0 0 -1 I I #
face $-1 $-1 $426 $41 $-1 $427 reversed single #
loop $-1 $-1 $185 $179 #
plane-surface $-1 0 0 7.7215594960173268 0 0 1 1 0 0 forward_v I I I I #
coedge $-1 $428 $429 $430 $431 reversed $180 $-1 #
coedge $-1 $432 $182 $184 $303 forward $113 $-1 #
coedge $-1 $182 $432 $428 $433 forward $113 $-1 #
coedge $-1 $430 $185 $182 $300 forward $294 $-1 #
edge $-1 $306 1.041328147464287 $434 10.186644337854858 $299 $435 forward 7 unknown #
coedge $-1 $436 $437 $183 $302 forward $426 $-1 #
edge $-1 $438 -70.43750491749833 $305 -65.424354256197105 $301 $439 forward 7 unknown #
edge $-1 $306 94.922282194835361 $438 101.66814172795799 $184 $440 forward 7 unknown #
coedge $-1 $185 $430 $436 $441 forward $294 $-1 #
vertex $-1 $302 $442 #
vertex $-1 $186 $443 #
straight-curve $-1 29.179480380101396 -6.6553143901238592 7.7215594960173206 -1 0 0 I I #
coedge $-1 $308 $308 $-1 $444 reversed $189 $-1 #
edge $-1 $445 0 $445 6.2831853071796004 $190 $446 forward 7 unknown #
vertex $-1 $193 $447 #
ellipse-curve $-1 48.57714035509553 -11.227972485319146 5.2149841653666993 0.74314483375859142 0 0.66913059716165679 0.66913059716165679 0 -0.74314483375859142 1 I I #
face $-1 $-1 $324 $43 $-1 $448 forward single #
loop $-1 $-1 $449 $194 #
plane-surface $-1 -50.834070863979008 0 0 1 0 0 0 0 -1 forward_v I I I I #
coedge $-1 $450 $451 $452 $453 reversed $195 $-1 #
coedge $-1 $454 $197 $199 $322 forward $122 $-1 #
coedge $-1 $197 $454 $450 $455 forward $122 $-1 #
coedge $-1 $452 $200 $197 $319 forward $324 $-1 #
edge $-1 $326 -7.8604097084535276 $456 -1.0320392761027959 $318 $457 forward 7 unknown #
coedge $-1 $458 $459 $198 $321 forward $313 $-1 #
edge $-1 $460 -24.240882484940581 $325 -20.400520688597521 $320 $461 forward 7 unknown #
edge $-1 $326 -4.4802942880518453 $460 0 $199 $462 forward 7 unknown #
coedge $-1 $200 $452 $458 $463 forward $324 $-1 #
loop $-1 $-1 $452 $312 #
vertex $-1 $321 $464 #
vertex $-1 $201 $465 #
straight-curve $-1 -68.990339136445115 -12.30663420073169 7.7215594960173277 1 0 0 I I #
coedge $-1 $328 $328 $-1 $466 reversed $204 $-1 #
edge $-1 $467 0 $467 6.2831853071796004 $205 $468 forward 7 unknown #
vertex $-1 $208 $469 #
ellipse-curve $-1 -49.68030982061488 -10.355671220060055 5.8013785978457983 -0.85716730853699208 0 0.51503806187062418 0.25751903093531209 0 0.42858365426849604 1 I I #
coedge $-1 $332 $332 $-1 $470 reversed $211 $-1 #
edge $-1 $471 0 $471 6.2831853071796004 $212 $472 forward 7 unknown #
vertex $-1 $215 $473 #
ellipse-curve $-1 -49.68030982061488 -7.4292267490525994 5.8013785978457983 -0.85716730853699208 0 0.51503806187062418 0.25751903093531209 0 0.42858365426849604 1 I I #
face $-1 $-1 $474 $46 $-1 $475 reversed single #
loop $-1 $-1 $222 $216 #
plane-surface $-1 0 0 7.7215594960173268 0 0 1 1 0 0 forward_v I I I I #
coedge $-1 $476 $477 $478 $479 reversed $217 $-1 #
coedge $-1 $480 $219 $221 $346 forward $136 $-1 #
coedge $-1 $219 $480 $476 $481 forward $136 $-1 #
coedge $-1 $478 $222 $219 $343 forward $337 $-1 #
edge $-1 $349 -1.4823017699463987 $482 5.3460686624043339 $342 $483 forward 7 unknown #
coedge $-1 $484 $485 $220 $345 forward $474 $-1 #
edge $-1 $486 -24.240882484940581 $348 -20.400520688597521 $344 $487 forward 7 unknown #
edge $-1 $349 -4.4802942880518453 $486 0 $221 $488 forward 7 unknown #
coedge $-1 $222 $478 $484 $489 forward $337 $-1 #
vertex $-1 $345 $490 #
vertex $-1 $223 $491 #
straight-curve $-1 -68.990339136445115 0.44958167628256884 7.7215594960173277 1 0 0 I I #
coedge $-1 $351 $351 $-1 $492 reversed $226 $-1 #
edge $-1 $493 0 $493 6.2831853071796004 $227 $494 forward 7 unknown #
vertex $-1 $230 $495 #
ellipse-curve $-1 -49.68030982061488 2.4005446569542066 5.8013785978457983 -0.85716730853699208 0 0.51503806187062418 0.25751903093531209 0 0.42858365426849604 1 I I #
coedge $-1 $355 $355 $-1 $496 reversed $233 $-1 #
edge $-1 $497 0 $497 6.2831853071796004 $234 $498 forward 7 unknown #
vertex $-1 $237 $499 #
ellipse-curve $-1 -49.68030982061488 5.3269891279616637 5.8013785978457983 -0.85716730853699208 0 0.51503806187062418 0.25751903093531209 0 0.42858365426849604 1 I I #
face $-1 $-1 $500 $49 $-1 $501 reversed single #
loop $-1 $-1 $244 $238 #
plane-surface $-1 0 0 7.7215594960173268 0 0 1 1 0 0 forward_v I I I I #
coedge $-1 $502 $503 $504 $505 reversed $239 $-1 #
coedge $-1 $506 $241 $243 $369 forward $150 $-1 #
coedge $-1 $241 $506 $502 $507 forward $150 $-1 #
coedge $-1 $504 $244 $241 $366 forward $360 $-1 #
edge $-1 $372 4.8958061685607337 $508 11.724176600911465 $365 $509 forward 7 unknown #
coedge $-1 $510 $511 $242 $368 forward $500 $-1 #
edge $-1 $512 -24.240882484940581 $371 -20.400520688597521 $367 $513 forward 7 unknown #
edge $-1 $372 -4.4802942880518453 $512 0 $243 $514 forward 7 unknown #
coedge $-1 $244 $504 $510 $515 forward $360 $-1 #
vertex $-1 $245 $516 #
vertex $-1 $245 $517 #
straight-curve $-1 -68.990339136445115 13.205797553296833 7.7215594960173277 1 0 0 I I #
coedge $-1 $374 $374 $-1 $518 reversed $248 $-1 #
edge $-1 $519 0 $519 6.2831853071796004 $249 $520 forward 7 unknown #
vertex $-1 $252 $521 #
ellipse-curve $-1 -49.68030982061488 15.15676053396847 5.8013785978457983 -0.85716730853699208 0 0.51503806187062418 0.25751903093531209 0 0.42858365426849604 1 I I #
coedge $-1 $378 $378 $-1 $522 reversed $255 $-1 #
edge $-1 $523 0 $523 6.2831853071796004 $256 $524 forward 7 unknown #
vertex $-1 $259 $525 #
ellipse-curve $-1 -49.68030982061488 18.083205004975927 5.8013785978457983 -0.85716730853699208 0 0.51503806187062418 0.25751903093531209 0 0.42858365426849604 1 I I #
face $-1 $-1 $394 $39 $-1 $526 reversed single #
loop $-1 $-1 $527 $260 #
plane-surface $-1 0 22.468017050528349 0 0 -1 0 0 0 -1 forward_v I I I I #
coedge $-1 $400 $399 $528 $529 forward $261 $-1 #
coedge $-1 $263 $273 $530 $531 forward $164 $-1 #
coedge $-1 $393 $269 $263 $388 reversed $394 $-1 #
edge $-1 $532 -22.468017050528349 $274 22.468017050528349 $387 $533 forward 7 unknown #
coedge $-1 $265 $264 $399 $534 forward $105 $-1 #
coedge $-1 $527 $528 $264 $391 reversed $383 $-1 #
edge $-1 $396 -50.834070863979008 $535 50.834070863979008 $390 $536 forward 7 unknown #
edge $-1 $401 -50.834070863979008 $395 50.834070863979008 $268 $537 forward 7 unknown #
coedge $-1 $266 $387 $527 $538 reversed $394 $-1 #
loop $-1 $-1 $269 $382 #
vertex $-1 $267 $539 #
vertex $-1 $267 $540 #
straight-curve $-1 50.834070863979008 0 7.7215594960173268 0 1 0 I I #
straight-curve $-1 50.834070863979008 -22.468017050528349 0 0 0 -1 I I #
coedge $-1 $385 $271 $389 $534 reversed $261 $-1 #
coedge $-1 $271 $385 $273 $403 reversed $261 $-1 #
vertex $-1 $534 $541 #
straight-curve $-1 -50.834070863979008 -22.468017050528349 0 0 0 -1 I I #
edge $-1 $275 -22.468017050528349 $542 22.468017050528349 $400 $543 forward 7 unknown #
point $-1 50.834070863979008 -22.468017050528349 -7.7215594960173268 #
point $-1 -50.834070863979008 -22.468017050528349 -7.7215594960173268 #
face $-1 $-1 $419 $40 $-1 $544 reversed single #
plane-surface $-1 -47.689692160430994 -25.801710285535307 0 -1 0 0 0 0 1 forward_v I I I I #
coedge $-1 $545 $546 $547 $548 forward $278 $-1 #
coedge $-1 $547 $280 $418 $549 reversed $172 $-1 #
coedge $-1 $280 $547 $281 $413 reversed $172 $-1 #
edge $-1 $415 -7.7215594960173268 $420 7.7215594960173268 $280 $550 forward 7 unknown #
coedge $-1 $282 $281 $546 $551 forward $109 $-1 #
edge $-1 $415 22.468017050528349 $552 29.135403520542265 $410 $553 forward 7 unknown #
edge $-1 $554 -3.3336932350069581 $290 3.3336932350069581 $287 $555 forward 7 unknown #
vertex $-1 $413 $556 #
straight-curve $-1 0 -22.468017050528349 7.7215594960173268 -1 0 0 I I #
coedge $-1 $557 $285 $288 $423 forward $419 $-1 #
coedge $-1 $285 $557 $409 $549 forward $419 $-1 #
loop $-1 $-1 $285 $406 #
vertex $-1 $411 $558 #
straight-curve $-1 0 -22.468017050528349 -7.7215594960173268 1 0 0 I I #
coedge $-1 $288 $287 $559 $560 forward $289 $-1 #
edge $-1 $291 -3.3336932350069581 $561 3.3336932350069581 $288 $562 forward 7 unknown #
point $-1 -47.689692160430994 -22.468017050528349 7.7215594960173268 #
point $-1 -47.689692160430994 -22.468017050528349 -7.7215594960173268 #
loop $-1 $-1 $301 $293 #
plane-surface $-1 50.834070863979008 0 0 -1 0 0 0 0 1 forward_v I I I I #
coedge $-1 $429 $296 $298 $433 reversed $180 $-1 #
coedge $-1 $296 $428 $563 $564 reversed $180 $-1 #
coedge $-1 $304 $299 $296 $431 forward $294 $-1 #
edge $-1 $434 17.140729466110614 $565 21.654590483877612 $430 $566 forward 7 unknown #
coedge $-1 $298 $297 $437 $567 reversed $113 $-1 #
edge $-1 $568 -101.66814172795799 $434 -94.922282194835361 $428 $569 forward 7 unknown #
vertex $-1 $300 $570 #
straight-curve $-1 46.320209846212002 -5.6139862426595721 7.7215594960173277 0 -1 0 I I #
coedge $-1 $563 $301 $304 $441 reversed $426 $-1 #
coedge $-1 $301 $563 $432 $567 forward $426 $-1 #
vertex $-1 $302 $571 #
straight-curve $-1 50.834070863979008 -6.6553143901238592 73.145913752214426 0 0 1 I I #
straight-curve $-1 -17.195193522765479 -6.6553143901238592 78.262563117684351 0.66913059716165679 0 -0.74314483375859142 I I #
edge $-1 $565 -15.800630580514429 $305 -6.6553143901238592 $436 $572 forward 7 unknown #
point $-1 50.834070863979008 -6.6553143901238592 7.7215594960173268 #
point $-1 46.320209846212009 -6.6553143901238592 7.7215594960173206 #
edge $-1 $573 1 $573 0 $308 $-1 forward 7 unknown #
vertex $-1 $309 $574 #
ellipse-curve $-1 46.841170171362371 -11.227972485319146 3.6519096300554086 0.74314483375859142 0 0.66913059716165679 0.66913059716165679 0 -0.74314483375859142 1 I I #
point $-1 49.24627095225717 -11.227972485319146 4.4718393316080975 #
plane-surface $-1 0 0 7.7215594960173268 0 0 1 1 0 0 forward_v I I I I #
coedge $-1 $459 $458 $451 $575 forward $313 $-1 #
coedge $-1 $451 $315 $317 $455 reversed $195 $-1 #
coedge $-1 $315 $450 $449 $575 reversed $195 $-1 #
coedge $-1 $323 $318 $315 $453 forward $324 $-1 #
edge $-1 $456 -20.463790359194356 $576 -18.156268272466107 $452 $577 forward 7 unknown #
coedge $-1 $317 $316 $459 $578 reversed $122 $-1 #
edge $-1 $579 0 $456 4.4802942880518453 $450 $580 forward 7 unknown #
vertex $-1 $319 $581 #
straight-curve $-1 -48.526548777250753 -4.4462244922781622 7.7215594960173277 0 1 0 I I #
coedge $-1 $449 $320 $323 $463 reversed $313 $-1 #
coedge $-1 $320 $449 $454 $578 forward $313 $-1 #
vertex $-1 $321 $582 #
straight-curve $-1 -50.834070863979008 -12.30663420073169 28.122080184614848 0 0 1 I I #
straight-curve $-1 -50.834070863979008 -12.30663420073169 3.8811976996742672 -0.51503806187062418 0 -0.85716730853699208 I I #
edge $-1 $576 5.4782637683809581 $325 12.30663420073169 $458 $583 forward 7 unknown #
point $-1 -50.834070863979008 -12.30663420073169 7.7215594960173268 #
point $-1 -48.52654877725076 -12.30663420073169 7.7215594960173268 #
edge $-1 $584 1 $584 0 $328 $-1 forward 7 unknown #
vertex $-1 $329 $585 #
ellipse-curve $-1 -48.661843228517014 -10.355671220060055 5.1894221519456831 -0.85716730853699208 0 0.51503806187062418 0.25751903093531209 0 0.42858365426849604 1 I I #
point $-1 -49.422790789679567 -10.355671220060055 6.2299622521142934 #
edge $-1 $586 1 $586 0 $332 $-1 forward 7 unknown #
vertex $-1 $333 $587 #
ellipse-curve $-1 -48.661843228517014 -7.4292267490525994 5.1894221519456831 -0.85716730853699208 0 0.51503806187062418 0.25751903093531209 0 0.42858365426849604 1 I I #
point $-1 -49.422790789679567 -7.4292267490525994 6.2299622521142934 #
loop $-1 $-1 $344 $336 #
plane-surface $-1 -50.834070863979008 0 0 1 0 0 0 0 -1 forward_v I I I I #
coedge $-1 $477 $339 $341 $481 reversed $217 $-1 #
coedge $-1 $339 $476 $588 $589 reversed $217 $-1 #
coedge $-1 $347 $342 $339 $479 forward $337 $-1 #
edge $-1 $482 -20.463790359194356 $590 -18.156268272466107 $478 $591 forward 7 unknown #
coedge $-1 $341 $340 $485 $592 reversed $136 $-1 #
edge $-1 $593 0 $482 4.4802942880518453 $476 $594 forward 7 unknown #
vertex $-1 $343 $595 #
straight-curve $-1 -48.526548777250753 1.9318834462289676 7.7215594960173277 0 1 0 I I #
coedge $-1 $588 $344 $347 $489 reversed $474 $-1 #
coedge $-1 $344 $588 $480 $592 forward $474 $-1 #
vertex $-1 $345 $596 #
straight-curve $-1 -50.834070863979008 0.44958167628256884 28.122080184614848 0 0 1 I I #
straight-curve $-1 -50.834070863979008 0.44958167628256884 3.8811976996742672 -0.51503806187062418 0 -0.85716730853699208 I I #
edge $-1 $590 -7.2779521086333014 $348 -0.44958167628256884 $484 $597 forward 7 unknown #
point $-1 -50.834070863979008 0.44958167628256884 7.7215594960173268 #
point $-1 -48.52654877725076 0.44958167628256884 7.7215594960173268 #
edge $-1 $598 1 $598 0 $351 $-1 forward 7 unknown #
vertex $-1 $352 $599 #
ellipse-curve $-1 -48.661843228517014 2.4005446569542066 5.1894221519456831 -0.85716730853699208 0 0.51503806187062418 0.25751903093531209 0 0.42858365426849604 1 I I #
point $-1 -49.422790789679567 2.4005446569542066 6.2299622521142934 #
edge $-1 $600 1 $600 0 $355 $-1 forward 7 unknown #
vertex $-1 $356 $601 #
ellipse-curve $-1 -48.661843228517014 5.3269891279616637 5.1894221519456831 -0.85716730853699208 0 0.51503806187062418 0.25751903093531209 0 0.42858365426849604 1 I I #
point $-1 -49.422790789679567 5.3269891279616637 6.2299622521142934 #
loop $-1 $-1 $367 $359 #
plane-surface $-1 -50.834070863979008 0 0 1 0 0 0 0 -1 forward_v I I I I #
coedge $-1 $503 $362 $364 $507 reversed $239 $-1 #
coedge $-1 $362 $502 $602 $603 reversed $239 $-1 #
coedge $-1 $370 $365 $362 $505 forward $360 $-1 #
edge $-1 $508 -20.463790359194356 $604 -18.156268272466107 $504 $605 forward 7 unknown #
coedge $-1 $364 $363 $511 $606 reversed $150 $-1 #
edge $-1 $607 0 $508 4.4802942880518453 $502 $608 forward 7 unknown #
vertex $-1 $366 $609 #
straight-curve $-1 -48.526548777250753 8.3099913847360991 7.7215594960173277 0 1 0 I I #
coedge $-1 $602 $367 $370 $515 reversed $500 $-1 #
coedge $-1 $367 $602 $506 $606 forward $500 $-1 #
vertex $-1 $368 $610 #
straight-curve $-1 -50.834070863979008 13.205797553296833 28.122080184614848 0 0 1 I I #
straight-curve $-1 -50.834070863979008 13.205797553296833 3.8811976996742672 -0.51503806187062418 0 -0.85716730853699208 I I #
edge $-1 $604 -20.034167985647564 $371 -13.205797553296833 $510 $611 forward 7 unknown #
point $-1 -50.834070863979008 13.205797553296833 7.7215594960173268 #
point $-1 -48.52654877725076 13.205797553296833 7.7215594960173268 #
edge $-1 $612 1 $612 0 $374 $-1 forward 7 unknown #
vertex $-1 $375 $613 #
ellipse-curve $-1 -48.661843228517014 15.15676053396847 5.1894221519456831 -0.85716730853699208 0 0.51503806187062418 0.25751903093531209 0 0.42858365426849604 1 I I #
point $-1 -49.422790789679567 15.15676053396847 6.2299622521142934 #
edge $-1 $614 1 $614 0 $378 $-1 forward 7 unknown #
vertex $-1 $379 $615 #
ellipse-curve $-1 -48.661843228517014 18.083205004975927 5.1894221519456831 -0.85716730853699208 0 0.51503806187062418 0.25751903093531209 0 0.42858365426849604 1 I I #
point $-1 -49.422790789679567 18.083205004975927 6.2299622521142934 #
plane-surface $-1 50.834070863979008 0 0 -1 0 0 0 0 1 forward_v I I I I #
coedge $-1 $530 $390 $393 $538 forward $383 $-1 #
coedge $-1 $390 $530 $385 $529 reversed $383 $-1 #
edge $-1 $535 -7.7215594960173268 $542 7.7215594960173268 $528 $616 forward 7 unknown #
coedge $-1 $528 $527 $386 $531 reversed $383 $-1 #
edge $-1 $542 -50.834070863979008 $532 50.834070863979008 $530 $617 forward 7 unknown #
vertex $-1 $388 $618 #
straight-curve $-1 50.834070863979008 0 -7.7215594960173268 0 -1 0 I I #
edge $-1 $535 -22.468017050528349 $401 22.468017050528349 $399 $619 forward 7 unknown #
vertex $-1 $391 $620 #
straight-curve $-1 0 22.468017050528349 7.7215594960173268 -1 0 0 I I #
straight-curve $-1 0 -22.468017050528349 7.7215594960173268 1 0 0 I I #
edge $-1 $396 -7.7215594960173268 $532 7.7215594960173268 $393 $621 forward 7 unknown #
point $-1 50.834070863979008 -22.468017050528349 7.7215594960173268 #
point $-1 50.834070863979008 22.468017050528349 7.7215594960173268 #
point $-1 -50.834070863979008 -22.468017050528349 7.7215594960173268 #
vertex $-1 $531 $622 #
straight-curve $-1 -50.834070863979008 0 -7.7215594960173268 0 1 0 I I #
plane-surface $-1 0 0 -7.7215594960173268 0 0 1 1 0 0 forward_v I I I I #
coedge $-1 $559 $408 $557 $623 reversed $278 $-1 #
coedge $-1 $408 $559 $412 $551 reversed $278 $-1 #
coedge $-1 $410 $409 $408 $548 reversed $172 $-1 #
edge $-1 $552 -7.7215594960173268 $624 7.7215594960173268 $547 $625 forward 7 unknown #
edge $-1 $624 -29.135403520542265 $420 -22.468017050528349 $409 $626 forward 7 unknown #
straight-curve $-1 -50.834070863979008 -22.468017050528349 0 0 0 -1 I I #
edge $-1 $552 -1.5721893517740071 $554 1.5721893517740071 $546 $627 forward 7 unknown #
vertex $-1 $413 $628 #
straight-curve $-1 -50.834070863979008 0 7.7215594960173268 0 -1 0 I I #
vertex $-1 $414 $629 #
straight-curve $-1 -47.689692160430994 -25.801710285535307 7.7215594960173268 0 1 0 I I #
point $-1 -50.834070863979008 -22.468017050528349 7.7215594960173268 #
coedge $-1 $418 $417 $545 $623 forward $419 $-1 #
point $-1 -50.834070863979008 -22.468017050528349 -7.7215594960173268 #
coedge $-1 $546 $545 $422 $560 reversed $278 $-1 #
edge $-1 $554 -7.7215594960173268 $561 7.7215594960173268 $422 $630 forward 7 unknown #
vertex $-1 $560 $631 #
straight-curve $-1 -47.689692160430994 -25.801710285535307 -7.7215594960173268 0 -1 0 I I #
coedge $-1 $437 $436 $429 $564 forward $426 $-1 #
edge $-1 $565 65.424354256197105 $568 70.43750491749833 $563 $632 forward 7 unknown #
vertex $-1 $441 $633 #
straight-curve $-1 29.179480380101396 -15.800630580514429 7.7215594960173206 1 0 0 I I #
edge $-1 $568 -10.186644337854858 $438 -1.041328147464287 $437 $634 forward 7 unknown #
vertex $-1 $567 $635 #
straight-curve $-1 -17.195193522765479 -15.800630580514429 78.262563117684351 -0.66913059716165679 0 0.74314483375859142 I I #
point $-1 46.320209846212009 -15.800630580514429 7.7215594960173206 #
point $-1 50.834070863979008 -6.6553143901238592 2.7084088347160957 #
straight-curve $-1 50.834070863979008 0 7.7215594960173268 0 1 0 I I #
vertex $-1 $444 $636 #
point $-1 47.510300768524026 -11.227972485319146 2.9087647962968171 #
edge $-1 $576 20.400520688597521 $579 24.240882484940581 $449 $637 forward 7 unknown #
vertex $-1 $463 $638 #
straight-curve $-1 -68.990339136445115 -5.4782637683809581 7.7215594960173277 -1 0 0 I I #
edge $-1 $579 1.0320392761027959 $460 7.8604097084535276 $459 $639 forward 7 unknown #
vertex $-1 $578 $640 #
straight-curve $-1 -50.834070863979008 -5.4782637683809581 3.8811976996742672 0.51503806187062418 0 0.85716730853699208 I I #
point $-1 -48.52654877725076 -5.4782637683809581 7.7215594960173268 #
point $-1 -50.834070863979008 -12.30663420073169 3.8811976996742672 #
straight-curve $-1 -50.834070863979008 0 7.7215594960173268 0 -1 0 I I #
vertex $-1 $466 $641 #
point $-1 -48.404324197581701 -10.355671220060055 5.6180058062141791 #
vertex $-1 $470 $642 #
point $-1 -48.404324197581701 -7.4292267490525994 5.6180058062141791 #
coedge $-1 $485 $484 $477 $589 forward $474 $-1 #
edge $-1 $590 20.400520688597521 $593 24.240882484940581 $588 $643 forward 7 unknown #
vertex $-1 $489 $644 #
straight-curve $-1 -68.990339136445115 7.2779521086333014 7.7215594960173277 -1 0 0 I I #
edge $-1 $593 -5.3460686624043339 $486 1.4823017699463987 $485 $645 forward 7 unknown #
vertex $-1 $592 $646 #
straight-curve $-1 -50.834070863979008 7.2779521086333014 3.8811976996742672 0.51503806187062418 0 0.85716730853699208 I I #
point $-1 -48.52654877725076 7.2779521086333014 7.7215594960173268 #
point $-1 -50.834070863979008 0.44958167628256884 3.8811976996742672 #
straight-curve $-1 -50.834070863979008 0 7.7215594960173268 0 -1 0 I I #
vertex $-1 $492 $647 #
point $-1 -48.404324197581701 2.4005446569542066 5.6180058062141791 #
vertex $-1 $496 $648 #
point $-1 -48.404324197581701 5.3269891279616637 5.6180058062141791 #
coedge $-1 $511 $510 $503 $603 forward $500 $-1 #
edge $-1 $604 20.400520688597521 $607 24.240882484940581 $602 $649 forward 7 unknown #
vertex $-1 $515 $650 #
straight-curve $-1 -68.990339136445115 20.034167985647564 7.7215594960173277 -1 0 0 I I #
edge $-1 $607 -11.724176600911465 $512 -4.8958061685607337 $511 $651 forward 7 unknown #
vertex $-1 $606 $652 #
straight-curve $-1 -50.834070863979008 20.034167985647564 3.8811976996742672 0.51503806187062418 0 0.85716730853699208 I I #
point $-1 -48.52654877725076 20.034167985647564 7.7215594960173268 #
point $-1 -50.834070863979008 13.205797553296833 3.8811976996742672 #
straight-curve $-1 -50.834070863979008 0 7.7215594960173268 0 -1 0 I I #
vertex $-1 $518 $653 #
point $-1 -48.404324197581701 15.15676053396847 5.6180058062141791 #
vertex $-1 $522 $654 #
point $-1 -48.404324197581701 18.083205004975927 5.6180058062141791 #
straight-curve $-1 -50.834070863979008 22.468017050528349 0 0 0 -1 I I #
straight-curve $-1 0 22.468017050528349 -7.7215594960173268 1 0 0 I I #
point $-1 50.834070863979008 22.468017050528349 -7.7215594960173268 #
straight-curve $-1 -50.834070863979008 0 7.7215594960173268 0 -1 0 I I #
point $-1 -50.834070863979008 22.468017050528349 7.7215594960173268 #
straight-curve $-1 50.834070863979008 22.468017050528349 0 0 0 -1 I I #
point $-1 -50.834070863979008 22.468017050528349 -7.7215594960173268 #
edge $-1 $561 -1.5721893517740071 $624 1.5721893517740071 $545 $655 forward 7 unknown #
vertex $-1 $549 $656 #
straight-curve $-1 -50.834070863979008 -29.135403520542265 0 0 0 -1 I I #
straight-curve $-1 -50.834070863979008 0 -7.7215594960173268 0 1 0 I I #
straight-curve $-1 -49.261881512205001 -29.135403520542265 7.7215594960173268 1 0 0 I I #
point $-1 -50.834070863979008 -29.135403520542265 7.7215594960173268 #
point $-1 -47.689692160430994 -29.135403520542265 7.7215594960173268 #
straight-curve $-1 -47.689692160430994 -29.135403520542265 0 0 0 -1 I I #
point $-1 -47.689692160430994 -29.135403520542265 -7.7215594960173268 #
straight-curve $-1 50.834070863979008 -15.800630580514429 73.145913752214426 0 0 -1 I I #
point $-1 50.834070863979008 -15.800630580514429 7.7215594960173268 #
straight-curve $-1 50.834070863979008 -5.6139862426595721 2.7084088347161028 0 1 0 I I #
point $-1 50.834070863979008 -15.800630580514429 2.7084088347160957 #
point $-1 46.098025337603779 -11.227972485319146 2.9827790328937525 #
straight-curve $-1 -50.834070863979008 -5.4782637683809581 28.122080184614848 0 0 -1 I I #
point $-1 -50.834070863979008 -5.4782637683809581 7.7215594960173268 #
straight-curve $-1 -50.834070863979008 -4.4462244922781622 3.8811976996742663 0 -1 0 I I #
point $-1 -50.834070863979008 -5.4782637683809581 3.8811976996742672 #
point $-1 -48.233259574248521 -10.355671220060055 4.9319031210103716 #
point $-1 -48.233259574248521 -7.4292267490525994 4.9319031210103716 #
straight-curve $-1 -50.834070863979008 7.2779521086333014 28.122080184614848 0 0 -1 I I #
point $-1 -50.834070863979008 7.2779521086333014 7.7215594960173268 #
straight-curve $-1 -50.834070863979008 1.9318834462289676 3.8811976996742663 0 -1 0 I I #
point $-1 -50.834070863979008 7.2779521086333014 3.8811976996742672 #
point $-1 -48.233259574248521 2.4005446569542066 4.9319031210103716 #
point $-1 -48.233259574248521 5.3269891279616637 4.9319031210103716 #
straight-curve $-1 -50.834070863979008 20.034167985647564 28.122080184614848 0 0 -1 I I #
point $-1 -50.834070863979008 20.034167985647564 7.7215594960173268 #
straight-curve $-1 -50.834070863979008 8.3099913847360991 3.8811976996742663 0 -1 0 I I #
point $-1 -50.834070863979008 20.034167985647564 3.8811976996742672 #
point $-1 -48.233259574248521 15.15676053396847 4.9319031210103716 #
point $-1 -48.233259574248521 18.083205004975927 4.9319031210103716 #
straight-curve $-1 -49.261881512205001 -29.135403520542265 -7.7215594960173268 -1 0 0 I I #
point $-1 -50.834070863979008 -29.135403520542265 -7.7215594960173268 #
End-of-ACIS-data 