500 0 4 0           
7 Unknown 11 ACIS 5.0 NT 24 Fri Mar 26 16:55:23 1999 
-1 9.9999999999999995e-007 1e-010 
body $-1 $4 $-1 $5 #
body $-1 $6 $-1 $7 #
body $-1 $8 $-1 $9 #
body $-1 $10 $-1 $11 #
lump $-1 $-1 $12 $0 #
transform $-1 1 0 0 0 1 0 0 0 1 44.63393047883541 28.869504659425328 7.1932793310773686 1 rotate no_reflect no_shear #
lump $-1 $-1 $13 $1 #
transform $-1 1 0 0 0 1 0 0 0 1 44.63393047883541 28.869504659425328 7.1932793310773686 1 rotate no_reflect no_shear #
lump $-1 $-1 $14 $2 #
transform $-1 1 0 0 0 1 0 0 0 1 44.63393047883541 28.869504659425328 7.1932793310773686 1 rotate no_reflect no_shear #
lump $-1 $-1 $15 $3 #
transform $-1 1 0 0 0 1 0 0 0 1 44.63393047883541 28.869504659425328 7.1932793310773686 1 rotate no_reflect no_shear #
shell $-1 $-1 $-1 $16 $-1 $4 #
shell $-1 $-1 $-1 $17 $-1 $6 #
shell $-1 $-1 $-1 $18 $-1 $8 #
shell $-1 $-1 $-1 $19 $-1 $10 #
face $-1 $20 $21 $12 $-1 $22 forward single #
face $-1 $23 $24 $13 $-1 $25 forward single #
face $-1 $26 $27 $14 $-1 $28 forward single #
face $-1 $29 $30 $15 $-1 $31 reversed single #
face $-1 $32 $33 $12 $-1 $34 reversed single #
loop $-1 $-1 $35 $16 #
plane-surface $-1 0 0 7.1932793310773686 0 0 1 1 0 0 forward_v I I I I #
face $-1 $36 $37 $13 $-1 $38 forward single #
loop $-1 $-1 $39 $17 #
plane-surface $-1 -40.365657568975571 -17.482945997270591 0 0 1 0 0 0 1 forward_v I I I I #
face $-1 $40 $41 $14 $-1 $42 forward single #
loop $-1 $-1 $43 $18 #
plane-surface $-1 -21.567960846278751 25.353862004633687 106.64367659866078 1 0 0 0 -0.51503808176128008 -0.85716729658548041 forward_v I I I I #
face $-1 $44 $45 $15 $-1 $46 reversed single #
loop $-1 $47 $48 $19 #
cone-surface $-1 -11.211010473048113 20.655337522613618 -0.45566104337369229 0 -0.51503808176128008 -0.85716729658548041 2.5 0 0 1 I I 0 1 2.5 forward I I I I #
face $-1 $49 $50 $12 $-1 $51 reversed single #
loop $-1 $-1 $52 $20 #
plane-surface $-1 0 0 -7.1932793310773686 0 0 1 1 0 0 forward_v I I I I #
coedge $-1 $53 $54 $55 $56 forward $21 $-1 #
face $-1 $57 $58 $13 $-1 $59 forward single #
loop $-1 $-1 $60 $23 #
plane-surface $-1 -40.365657568975571 -14.482945997270591 0 0 -1 0 0 0 -1 forward_v I I I I #
coedge $-1 $61 $62 $63 $64 reversed $24 $-1 #
face $-1 $65 $66 $14 $-1 $67 forward single #
loop $-1 $-1 $68 $26 #
plane-surface $-1 -11.211010473048113 -20.622485865937758 30.126185549605523 0 0.51503808176128008 0.85716729658548041 1 0 0 forward_v I I I I #
coedge $-1 $69 $70 $71 $72 reversed $27 $-1 #
face $-1 $73 $74 $15 $-1 $75 forward single #
loop $-1 $76 $77 $29 #
cone-surface $-1 -11.211010473048113 17.459985746703385 -5.7736193466319197 0 -0.51503808176128008 -0.85716729658548041 1.25 0 0 1 I I -0.70710678118654746 0.70710678118654746 1.25 forward I I I I #
loop $-1 $-1 $78 $19 #
coedge $-1 $48 $48 $79 $80 reversed $30 $-1 #
face $-1 $81 $82 $12 $-1 $83 reversed single #
loop $-1 $-1 $84 $32 #
plane-surface $-1 0 -28.869504659425328 0 0 1 0 0 0 1 forward_v I I I I #
coedge $-1 $85 $86 $87 $88 forward $33 $-1 #
coedge $-1 $89 $35 $90 $91 forward $21 $-1 #
coedge $-1 $35 $89 $92 $93 forward $21 $-1 #
coedge $-1 $94 $95 $35 $56 reversed $96 $-1 #
edge $-1 $97 -28.869504659425328 $98 28.869504659425328 $55 $99 forward 7 unknown #
face $-1 $100 $101 $13 $-1 $102 forward single #
loop $-1 $-1 $103 $36 #
plane-surface $-1 -36.097384659115733 -15.982945997270591 0 -1 0 0 0 0 1 forward_v I I I I #
coedge $-1 $104 $105 $106 $107 reversed $37 $-1 #
coedge $-1 $108 $39 $109 $110 reversed $24 $-1 #
coedge $-1 $39 $108 $111 $112 reversed $24 $-1 #
coedge $-1 $113 $114 $39 $64 forward $115 $-1 #
edge $-1 $116 -7.1932793310773686 $117 7.1932793310773686 $63 $118 forward 7 unknown #
face $-1 $119 $120 $14 $-1 $121 forward single #
loop $-1 $-1 $122 $40 #
plane-surface $-1 -0.85406009981747388 25.353862004633687 106.64367659866078 -1 0 0 0 0.51503808176128008 0.85716729658548041 forward_v I I I I #
coedge $-1 $123 $124 $125 $126 reversed $41 $-1 #
coedge $-1 $70 $43 $124 $127 forward $27 $-1 #
coedge $-1 $43 $69 $128 $129 reversed $27 $-1 #
coedge $-1 $130 $125 $43 $72 forward $120 $-1 #
edge $-1 $131 4.8673477309023543 $132 16.192573657108483 $71 $133 forward 7 unknown #
face $-1 $134 $135 $15 $-1 $136 forward single #
loop $-1 $-1 $137 $44 #
plane-surface $-1 -21.567960846278751 25.353862004633687 106.64367659866078 1 0 0 0 -0.51503808176128008 -0.85716729658548041 forward_v I I I I #
loop $-1 $-1 $138 $29 #
coedge $-1 $77 $77 $78 $139 forward $45 $-1 #
coedge $-1 $78 $78 $77 $139 reversed $47 $-1 #
coedge $-1 $79 $79 $48 $80 forward $135 $-1 #
edge $-1 $140 -4.2869656251895058e-016 $140 6.2831853071796004 $79 $141 forward 7 unknown #
face $-1 $142 $143 $12 $-1 $144 reversed single #
loop $-1 $-1 $145 $49 #
plane-surface $-1 -44.63393047883541 0 0 1 0 0 0 0 -1 forward_v I I I I #
coedge $-1 $146 $92 $147 $148 forward $50 $-1 #
coedge $-1 $149 $52 $146 $150 forward $33 $-1 #
coedge $-1 $52 $149 $151 $152 forward $33 $-1 #
coedge $-1 $95 $94 $52 $88 reversed $96 $-1 #
edge $-1 $153 -28.869504659425328 $154 28.869504659425328 $87 $155 forward 7 unknown #
coedge $-1 $54 $53 $156 $157 forward $21 $-1 #
coedge $-1 $158 $159 $53 $91 reversed $143 $-1 #
edge $-1 $98 -44.63393047883541 $160 44.63393047883541 $90 $161 forward 7 unknown #
coedge $-1 $84 $162 $54 $93 reversed $50 $-1 #
edge $-1 $163 -44.63393047883541 $97 44.63393047883541 $92 $164 forward 7 unknown #
coedge $-1 $87 $55 $162 $165 forward $96 $-1 #
coedge $-1 $55 $87 $158 $166 reversed $96 $-1 #
loop $-1 $-1 $94 $142 #
vertex $-1 $56 $167 #
vertex $-1 $56 $168 #
straight-curve $-1 44.63393047883541 0 7.1932793310773686 0 1 0 I I #
face $-1 $169 $115 $13 $-1 $170 reversed single #
loop $-1 $-1 $171 $57 #
plane-surface $-1 0 0 7.1932793310773686 0 0 1 1 0 0 forward_v I I I I #
coedge $-1 $172 $173 $108 $174 reversed $58 $-1 #
coedge $-1 $175 $60 $171 $176 reversed $37 $-1 #
coedge $-1 $60 $175 $177 $178 reversed $37 $-1 #
coedge $-1 $173 $172 $60 $107 forward $58 $-1 #
edge $-1 $179 -7.1932793310773686 $180 7.1932793310773686 $106 $181 forward 7 unknown #
coedge $-1 $62 $61 $103 $174 forward $24 $-1 #
coedge $-1 $182 $183 $61 $110 forward $101 $-1 #
edge $-1 $184 15.914555874627947 $116 24.451101694347624 $109 $185 forward 7 unknown #
coedge $-1 $186 $187 $62 $112 forward $188 $-1 #
edge $-1 $117 -24.451101694347624 $189 -15.914555874627947 $111 $190 forward 7 unknown #
coedge $-1 $191 $63 $187 $192 reversed $115 $-1 #
coedge $-1 $63 $191 $182 $193 reversed $115 $-1 #
loop $-1 $-1 $63 $100 #
vertex $-1 $193 $194 #
vertex $-1 $64 $195 #
straight-curve $-1 -44.63393047883541 -17.482945997270591 0 0 0 -1 I I #
face $-1 $196 $197 $14 $-1 $198 forward single #
loop $-1 $-1 $199 $65 #
plane-surface $-1 0 0 7.1932793310773686 0 0 1 1 0 0 forward_v I I I I #
coedge $-1 $200 $201 $199 $202 reversed $66 $-1 #
coedge $-1 $203 $68 $201 $204 reversed $41 $-1 #
coedge $-1 $68 $203 $69 $127 reversed $41 $-1 #
coedge $-1 $71 $199 $68 $126 forward $120 $-1 #
edge $-1 $205 -4.7514451367065824 $131 15.962455609754695 $125 $206 forward 7 unknown #
edge $-1 $131 44.526622458875856 $207 57.739009318850663 $69 $208 forward 7 unknown #
coedge $-1 $209 $210 $70 $129 forward $211 $-1 #
edge $-1 $132 46.128558968253017 $207 52.933441352102385 $128 $212 forward 7 unknown #
coedge $-1 $213 $71 $210 $214 forward $120 $-1 #
vertex $-1 $126 $215 #
vertex $-1 $214 $216 #
straight-curve $-1 -21.567960846278751 12.676931002316843 7.1932793310773704 0 1 0 I I #
face $-1 $217 $218 $15 $-1 $219 forward single #
loop $-1 $220 $79 $73 #
plane-surface $-1 -11.211010473048113 -20.622485865937758 30.126185549605523 0 0.51503808176128008 0.85716729658548041 1 0 0 forward_v I I I I #
coedge $-1 $221 $222 $223 $224 reversed $74 $-1 #
coedge $-1 $138 $138 $-1 $225 forward $76 $-1 #
edge $-1 $226 0 $226 6.2831853071796004 $77 $227 forward 7 unknown #
vertex $-1 $80 $228 #
ellipse-curve $-1 -11.211010473048113 23.206891696322256 3.7908381391526911 0 -0.51503808176128008 -0.85716729658548041 2.5 0 0 1 I I #
face $-1 $-1 $96 $12 $-1 $229 reversed single #
loop $-1 $-1 $158 $81 #
plane-surface $-1 0 28.869504659425328 0 0 -1 0 0 0 -1 forward_v I I I I #
coedge $-1 $230 $156 $159 $231 forward $82 $-1 #
coedge $-1 $162 $84 $85 $150 reversed $50 $-1 #
coedge $-1 $156 $230 $84 $148 reversed $82 $-1 #
edge $-1 $163 -7.1932793310773686 $232 7.1932793310773686 $147 $233 forward 7 unknown #
coedge $-1 $86 $85 $230 $234 forward $33 $-1 #
edge $-1 $154 -44.63393047883541 $232 44.63393047883541 $146 $235 forward 7 unknown #
coedge $-1 $159 $158 $86 $152 reversed $143 $-1 #
edge $-1 $236 -44.63393047883541 $153 44.63393047883541 $151 $237 forward 7 unknown #
vertex $-1 $88 $238 #
vertex $-1 $165 $239 #
straight-curve $-1 44.63393047883541 0 -7.1932793310773686 0 -1 0 I I #
coedge $-1 $145 $147 $89 $157 reversed $82 $-1 #
edge $-1 $160 -28.869504659425328 $163 28.869504659425328 $156 $240 forward 7 unknown #
coedge $-1 $151 $90 $95 $166 forward $143 $-1 #
coedge $-1 $90 $151 $145 $231 reversed $143 $-1 #
vertex $-1 $91 $241 #
straight-curve $-1 0 28.869504659425328 7.1932793310773686 -1 0 0 I I #
coedge $-1 $92 $146 $94 $165 reversed $50 $-1 #
vertex $-1 $157 $242 #
straight-curve $-1 0 -28.869504659425328 7.1932793310773686 1 0 0 I I #
edge $-1 $97 -7.1932793310773686 $154 7.1932793310773686 $94 $243 forward 7 unknown #
edge $-1 $98 -7.1932793310773686 $153 7.1932793310773686 $95 $244 forward 7 unknown #
point $-1 44.63393047883541 -28.869504659425328 7.1932793310773686 #
point $-1 44.63393047883541 28.869504659425328 7.1932793310773686 #
face $-1 $245 $188 $13 $-1 $246 reversed single #
plane-surface $-1 -44.63393047883541 0 0 1 0 0 0 0 -1 forward_v I I I I #
coedge $-1 $183 $247 $104 $176 forward $101 $-1 #
coedge $-1 $106 $103 $183 $248 reversed $58 $-1 #
coedge $-1 $103 $106 $186 $249 reversed $58 $-1 #
edge $-1 $184 -7.1932793310773686 $189 7.1932793310773686 $103 $250 forward 7 unknown #
coedge $-1 $105 $104 $251 $252 reversed $37 $-1 #
edge $-1 $253 -24.451101694347624 $179 -15.914555874627947 $171 $254 forward 7 unknown #
coedge $-1 $255 $186 $105 $178 forward $188 $-1 #
edge $-1 $180 15.914555874627947 $256 24.451101694347624 $177 $257 forward 7 unknown #
vertex $-1 $176 $258 #
vertex $-1 $178 $259 #
straight-curve $-1 -36.097384659115733 -14.482945997270591 0 0 0 -1 I I #
coedge $-1 $260 $109 $114 $193 forward $101 $-1 #
coedge $-1 $109 $171 $172 $248 forward $101 $-1 #
vertex $-1 $110 $261 #
straight-curve $-1 -20.182828784487786 -17.482945997270591 7.1932793310773686 -1 0 0 I I #
coedge $-1 $177 $111 $173 $249 forward $188 $-1 #
coedge $-1 $111 $262 $113 $192 forward $188 $-1 #
loop $-1 $-1 $177 $169 #
vertex $-1 $112 $263 #
straight-curve $-1 -20.182828784487786 -17.482945997270591 -7.1932793310773686 1 0 0 I I #
coedge $-1 $114 $113 $264 $265 reversed $115 $-1 #
edge $-1 $266 -28.869504659425328 $117 -17.482945997270591 $113 $267 forward 7 unknown #
edge $-1 $116 17.482945997270591 $268 28.869504659425328 $114 $269 forward 7 unknown #
point $-1 -44.63393047883541 -17.482945997270591 7.1932793310773686 #
point $-1 -44.63393047883541 -17.482945997270591 -7.1932793310773686 #
face $-1 $270 $271 $14 $-1 $272 forward single #
loop $-1 $-1 $273 $119 #
plane-surface $-1 -40.365657568975571 -17.482945997270591 0 0 1 0 0 0 1 forward_v I I I I #
coedge $-1 $125 $274 $122 $202 forward $120 $-1 #
coedge $-1 $201 $122 $275 $276 reversed $66 $-1 #
coedge $-1 $122 $200 $123 $204 forward $66 $-1 #
edge $-1 $277 -16.192573657108483 $205 -4.8673477309023543 $199 $278 forward 7 unknown #
coedge $-1 $124 $123 $209 $279 reversed $41 $-1 #
edge $-1 $280 -57.739009318850663 $205 -44.526622458875856 $201 $281 forward 7 unknown #
vertex $-1 $126 $282 #
straight-curve $-1 -5.6055052365240563 17.544278733219201 7.1932793310773668 -1 0 0 I I #
vertex $-1 $279 $283 #
straight-curve $-1 -21.567960846278751 -20.622485865937758 30.126185549605523 0 0.85716729658548041 -0.51503808176128008 I I #
coedge $-1 $275 $128 $203 $279 forward $211 $-1 #
coedge $-1 $128 $284 $130 $214 reversed $211 $-1 #
loop $-1 $-1 $275 $285 #
straight-curve $-1 -21.567960846278751 28.869504659425328 53.321838299330388 0 0 -1 I I #
coedge $-1 $286 $130 $287 $288 forward $120 $-1 #
edge $-1 $132 21.567960846278751 $289 44.63393047883541 $210 $290 forward 7 unknown #
point $-1 -21.567960846278751 17.544278733219198 7.1932793310773704 #
point $-1 -21.567960846278751 28.869504659425328 7.1932793310773686 #
face $-1 $291 $292 $15 $-1 $293 forward single #
loop $-1 $-1 $294 $134 #
plane-surface $-1 -0.85406009981747388 25.353862004633687 106.64367659866078 -1 0 0 0 0.51503808176128008 0.85716729658548041 forward_v I I I I #
loop $-1 $-1 $295 $73 #
coedge $-1 $222 $137 $296 $297 forward $74 $-1 #
coedge $-1 $137 $221 $298 $299 reversed $74 $-1 #
coedge $-1 $300 $301 $137 $224 forward $292 $-1 #
edge $-1 $302 4.8673477309023543 $303 16.192573657108483 $223 $304 forward 7 unknown #
edge $-1 $305 1 $305 0 $138 $-1 forward 7 unknown #
vertex $-1 $139 $306 #
ellipse-curve $-1 -11.211010473048113 18.103783348904987 -4.7021602259000694 0 0.51503808176128008 0.85716729658548041 2.5 0 0 1 I I #
point $-1 -8.7110104730481126 23.206891696322252 3.7908381391526831 #
plane-surface $-1 44.63393047883541 0 0 -1 0 0 0 0 1 forward_v I I I I #
coedge $-1 $147 $145 $149 $234 reversed $82 $-1 #
edge $-1 $160 -7.1932793310773686 $236 7.1932793310773686 $159 $307 forward 7 unknown #
vertex $-1 $234 $308 #
straight-curve $-1 -44.63393047883541 -28.869504659425328 0 0 0 -1 I I #
edge $-1 $232 -28.869504659425328 $236 28.869504659425328 $230 $309 forward 7 unknown #
straight-curve $-1 0 -28.869504659425328 -7.1932793310773686 -1 0 0 I I #
vertex $-1 $152 $310 #
straight-curve $-1 0 28.869504659425328 -7.1932793310773686 1 0 0 I I #
point $-1 44.63393047883541 28.869504659425328 -7.1932793310773686 #
point $-1 44.63393047883541 -28.869504659425328 -7.1932793310773686 #
straight-curve $-1 -44.63393047883541 0 7.1932793310773686 0 -1 0 I I #
point $-1 -44.63393047883541 28.869504659425328 7.1932793310773686 #
point $-1 -44.63393047883541 -28.869504659425328 7.1932793310773686 #
straight-curve $-1 44.63393047883541 -28.869504659425328 0 0 0 -1 I I #
straight-curve $-1 44.63393047883541 28.869504659425328 0 0 0 -1 I I #
face $-1 $311 $312 $13 $-1 $313 reversed single #
plane-surface $-1 0 0 -7.1932793310773686 0 0 1 1 0 0 forward_v I I I I #
coedge $-1 $171 $314 $315 $316 forward $101 $-1 #
edge $-1 $179 6.4914729986352953 $184 9.4914729986352953 $183 $317 forward 7 unknown #
edge $-1 $189 -9.4914729986352953 $180 -6.4914729986352953 $186 $318 forward 7 unknown #
straight-curve $-1 -36.097384659115733 -17.482945997270591 0 0 0 -1 I I #
coedge $-1 $315 $319 $175 $252 forward $320 $-1 #
edge $-1 $256 -7.1932793310773686 $253 7.1932793310773686 $251 $321 forward 7 unknown #
vertex $-1 $252 $322 #
straight-curve $-1 -20.182828784487786 -14.482945997270591 7.1932793310773686 1 0 0 I I #
coedge $-1 $323 $177 $319 $324 forward $188 $-1 #
vertex $-1 $324 $325 #
straight-curve $-1 -20.182828784487786 -14.482945997270591 -7.1932793310773686 -1 0 0 I I #
point $-1 -36.097384659115733 -14.482945997270591 7.1932793310773686 #
point $-1 -36.097384659115733 -14.482945997270591 -7.1932793310773686 #
coedge $-1 $326 $182 $327 $328 forward $101 $-1 #
point $-1 -36.097384659115733 -17.482945997270591 7.1932793310773686 #
coedge $-1 $187 $329 $330 $331 forward $188 $-1 #
point $-1 -36.097384659115733 -17.482945997270591 -7.1932793310773686 #
coedge $-1 $330 $327 $191 $265 forward $312 $-1 #
edge $-1 $268 -7.1932793310773686 $266 7.1932793310773686 $191 $332 forward 7 unknown #
vertex $-1 $192 $333 #
straight-curve $-1 -44.63393047883541 0 -7.1932793310773686 0 1 0 I I #
vertex $-1 $193 $334 #
straight-curve $-1 -44.63393047883541 0 7.1932793310773686 0 -1 0 I I #
face $-1 $335 $336 $14 $-1 $337 forward single #
loop $-1 $-1 $338 $196 #
plane-surface $-1 -40.365657568975571 -14.482945997270591 0 0 -1 0 0 0 -1 forward_v I I I I #
coedge $-1 $339 $340 $341 $342 reversed $197 $-1 #
coedge $-1 $199 $343 $344 $345 forward $120 $-1 #
coedge $-1 $344 $209 $200 $276 forward $211 $-1 #
edge $-1 $280 -52.933441352102385 $277 -46.128558968253017 $275 $346 forward 7 unknown #
vertex $-1 $276 $347 #
straight-curve $-1 -0.85406009981747388 12.676931002316843 7.1932793310773704 0 -1 0 I I #
edge $-1 $207 -15.962455609754695 $280 4.7514451367065824 $209 $348 forward 7 unknown #
vertex $-1 $279 $349 #
straight-curve $-1 -0.85406009981747388 -20.622485865937758 30.126185549605523 0 -0.85716729658548041 0.51503808176128008 I I #
point $-1 -0.85406009981747388 17.544278733219198 7.1932793310773704 #
point $-1 -21.567960846278751 28.869504659425328 0.38839694722800289 #
coedge $-1 $210 $350 $351 $352 reversed $211 $-1 #
face $-1 $353 $211 $14 $-1 $354 reversed single #
coedge $-1 $355 $213 $356 $357 forward $120 $-1 #
coedge $-1 $351 $358 $213 $288 reversed $359 $-1 #
edge $-1 $289 -28.869504659425328 $360 14.482945997270591 $287 $361 forward 7 unknown #
vertex $-1 $214 $362 #
straight-curve $-1 0 28.869504659425328 7.1932793310773686 -1 0 0 I I #
face $-1 $363 $364 $15 $-1 $365 forward single #
loop $-1 $-1 $366 $217 #
plane-surface $-1 0 0 7.1932793310773686 0 0 1 1 0 0 forward_v I I I I #
coedge $-1 $367 $368 $366 $369 reversed $218 $-1 #
coedge $-1 $370 $296 $301 $371 reversed $220 $-1 #
coedge $-1 $295 $372 $221 $297 reversed $220 $-1 #
edge $-1 $302 44.526622458875856 $373 57.739009318850663 $221 $374 forward 7 unknown #
coedge $-1 $375 $376 $222 $299 forward $377 $-1 #
edge $-1 $303 46.128558968253017 $373 52.933441352102385 $298 $378 forward 7 unknown #
coedge $-1 $379 $223 $376 $380 forward $292 $-1 #
coedge $-1 $223 $366 $295 $371 forward $292 $-1 #
vertex $-1 $371 $381 #
vertex $-1 $380 $382 #
straight-curve $-1 -21.567960846278751 12.676931002316843 7.1932793310773704 0 1 0 I I #
vertex $-1 $225 $383 #
point $-1 -8.7110104730481126 18.103783348904987 -4.7021602259000694 #
straight-curve $-1 -44.63393047883541 28.869504659425328 0 0 0 -1 I I #
point $-1 -44.63393047883541 -28.869504659425328 -7.1932793310773686 #
straight-curve $-1 -44.63393047883541 0 -7.1932793310773686 0 1 0 I I #
point $-1 -44.63393047883541 28.869504659425328 -7.1932793310773686 #
face $-1 $384 $320 $13 $-1 $170 reversed single #
loop $-1 $-1 $264 $245 #
plane-surface $-1 0 -28.869504659425328 0 0 1 0 0 0 1 forward_v I I I I #
coedge $-1 $247 $326 $385 $386 forward $101 $-1 #
coedge $-1 $387 $251 $247 $316 reversed $320 $-1 #
edge $-1 $388 -28.869504659425328 $253 14.482945997270591 $315 $269 forward 7 unknown #
straight-curve $-1 -36.097384659115733 -7.9914729986352953 7.1932793310773686 0 -1 0 I I #
straight-curve $-1 -36.097384659115733 -7.9914729986352953 -7.1932793310773686 0 1 0 I I #
coedge $-1 $251 $387 $255 $324 reversed $320 $-1 #
loop $-1 $-1 $251 $311 #
straight-curve $-1 -44.63393047883541 -14.482945997270591 0 0 0 1 I I #
point $-1 -44.63393047883541 -14.482945997270591 7.1932793310773686 #
coedge $-1 $329 $255 $389 $390 forward $188 $-1 #
edge $-1 $256 -14.482945997270591 $391 28.869504659425328 $319 $267 forward 7 unknown #
point $-1 -44.63393047883541 -14.482945997270591 -7.1932793310773686 #
coedge $-1 $314 $260 $392 $393 forward $101 $-1 #
coedge $-1 $264 $394 $260 $328 reversed $312 $-1 #
edge $-1 $268 -44.63393047883541 $395 44.63393047883541 $327 $396 forward 7 unknown #
coedge $-1 $262 $323 $397 $398 forward $188 $-1 #
coedge $-1 $394 $264 $262 $331 reversed $312 $-1 #
edge $-1 $399 -44.63393047883541 $266 44.63393047883541 $330 $400 forward 7 unknown #
straight-curve $-1 -44.63393047883541 -28.869504659425328 0 0 0 -1 I I #
point $-1 -44.63393047883541 -28.869504659425328 -7.1932793310773686 #
point $-1 -44.63393047883541 -28.869504659425328 7.1932793310773686 #
face $-1 $401 $402 $14 $-1 $403 reversed single #
loop $-1 $-1 $404 $270 #
plane-surface $-1 -36.097384659115733 -15.982945997270591 0 -1 0 0 0 0 1 forward_v I I I I #
coedge $-1 $356 $405 $406 $407 reversed $271 $-1 #
coedge $-1 $408 $273 $409 $410 reversed $197 $-1 #
coedge $-1 $273 $408 $411 $412 reversed $197 $-1 #
coedge $-1 $413 $414 $273 $342 forward $402 $-1 #
edge $-1 $415 -7.1932793310773686 $416 7.1932793310773686 $341 $417 forward 7 unknown #
coedge $-1 $274 $418 $419 $420 forward $120 $-1 #
coedge $-1 $421 $275 $274 $345 reversed $211 $-1 #
edge $-1 $422 -44.63393047883541 $277 0.85406009981747388 $344 $290 forward 7 unknown #
straight-curve $-1 -0.85406009981747388 28.869504659425328 53.321838299330388 0 0 1 I I #
point $-1 -0.85406009981747388 28.869504659425328 7.1932793310773686 #
straight-curve $-1 -5.6055052365240563 28.869504659425324 0.38839694722800289 1 0 0 I I #
point $-1 -0.85406009981747388 28.869504659425328 0.38839694722800289 #
coedge $-1 $284 $421 $423 $424 reversed $211 $-1 #
coedge $-1 $425 $287 $284 $352 forward $359 $-1 #
edge $-1 $289 -7.1932793310773686 $426 7.1932793310773686 $284 $427 forward 7 unknown #
face $-1 $-1 $428 $14 $-1 $429 reversed single #
plane-surface $-1 0 28.869504659425328 0 0 -1 0 0 0 -1 forward_v I I I I #
coedge $-1 $409 $286 $430 $431 forward $120 $-1 #
coedge $-1 $432 $338 $286 $357 reversed $271 $-1 #
edge $-1 $360 -24.451101694347624 $433 -15.914555874627947 $286 $434 forward 7 unknown #
coedge $-1 $287 $425 $432 $435 forward $359 $-1 #
loop $-1 $-1 $358 $436 #
vertex $-1 $435 $437 #
straight-curve $-1 -44.63393047883541 0 7.1932793310773686 0 -1 0 I I #
point $-1 -44.63393047883541 28.869504659425328 7.1932793310773686 #
face $-1 $438 $439 $15 $-1 $440 forward single #
loop $-1 $-1 $441 $291 #
plane-surface $-1 -40.365657568975571 -17.482945997270591 0 0 1 0 0 0 1 forward_v I I I I #
coedge $-1 $301 $442 $294 $369 forward $292 $-1 #
coedge $-1 $368 $294 $443 $444 reversed $218 $-1 #
coedge $-1 $294 $367 $370 $445 forward $218 $-1 #
edge $-1 $446 -16.192573657108483 $447 -4.8673477309023543 $366 $448 forward 7 unknown #
coedge $-1 $372 $295 $368 $445 reversed $220 $-1 #
edge $-1 $447 -4.7514451367065824 $302 15.962455609754695 $301 $449 forward 7 unknown #
coedge $-1 $296 $370 $375 $450 reversed $220 $-1 #
vertex $-1 $450 $451 #
straight-curve $-1 -21.567960846278751 -20.622485865937758 30.126185549605523 0 0.85716729658548041 -0.51503808176128008 I I #
coedge $-1 $443 $298 $372 $450 forward $377 $-1 #
coedge $-1 $298 $452 $300 $380 reversed $377 $-1 #
loop $-1 $-1 $443 $453 #
straight-curve $-1 -21.567960846278751 28.869504659425328 53.321838299330388 0 0 -1 I I #
coedge $-1 $454 $300 $455 $456 forward $292 $-1 #
edge $-1 $303 21.567960846278751 $457 44.63393047883541 $376 $458 forward 7 unknown #
point $-1 -21.567960846278751 17.544278733219198 7.1932793310773704 #
point $-1 -21.567960846278751 28.869504659425328 7.1932793310773686 #
point $-1 -11.211010473048113 16.816188144501783 -6.8450784673637699 #
face $-1 $459 $460 $13 $-1 $461 reversed single #
coedge $-1 $462 $463 $314 $386 reversed $460 $-1 #
edge $-1 $464 -44.63393047883541 $388 44.63393047883541 $385 $465 forward 7 unknown #
coedge $-1 $319 $315 $463 $466 forward $320 $-1 #
vertex $-1 $386 $467 #
coedge $-1 $463 $462 $323 $390 reversed $460 $-1 #
edge $-1 $391 -44.63393047883541 $468 44.63393047883541 $389 $469 forward 7 unknown #
vertex $-1 $390 $470 #
coedge $-1 $471 $472 $326 $393 reversed $473 $-1 #
edge $-1 $395 -28.869504659425328 $464 28.869504659425328 $392 $474 forward 7 unknown #
coedge $-1 $327 $330 $471 $475 reversed $312 $-1 #
vertex $-1 $393 $476 #
straight-curve $-1 0 -28.869504659425328 7.1932793310773686 1 0 0 I I #
coedge $-1 $472 $471 $329 $398 reversed $473 $-1 #
edge $-1 $468 -28.869504659425328 $399 28.869504659425328 $397 $477 forward 7 unknown #
vertex $-1 $475 $478 #
straight-curve $-1 0 -28.869504659425328 -7.1932793310773686 -1 0 0 I I #
face $-1 $479 $480 $14 $-1 $481 reversed single #
loop $-1 $-1 $341 $335 #
plane-surface $-1 -44.63393047883541 0 0 1 0 0 0 0 -1 forward_v I I I I #
coedge $-1 $430 $482 $408 $483 reversed $336 $-1 #
coedge $-1 $338 $432 $484 $485 reversed $271 $-1 #
coedge $-1 $482 $430 $338 $407 forward $336 $-1 #
edge $-1 $433 -7.1932793310773686 $486 7.1932793310773686 $406 $487 forward 7 unknown #
coedge $-1 $340 $339 $404 $483 forward $197 $-1 #
coedge $-1 $488 $355 $339 $410 forward $120 $-1 #
edge $-1 $489 15.914555874627947 $415 24.451101694347624 $409 $490 forward 7 unknown #
coedge $-1 $491 $492 $340 $412 forward $480 $-1 #
edge $-1 $416 -24.451101694347624 $493 -15.914555874627947 $411 $494 forward 7 unknown #
coedge $-1 $495 $341 $492 $496 reversed $402 $-1 #
coedge $-1 $341 $495 $488 $497 reversed $402 $-1 #
vertex $-1 $497 $498 #
vertex $-1 $342 $499 #
straight-curve $-1 -44.63393047883541 -17.482945997270591 0 0 0 -1 I I #
coedge $-1 $343 $488 $500 $501 forward $120 $-1 #
coedge $-1 $502 $503 $343 $420 reversed $428 $-1 #
edge $-1 $504 -28.869504659425328 $422 28.869504659425328 $419 $505 forward 7 unknown #
coedge $-1 $350 $344 $503 $506 forward $211 $-1 #
vertex $-1 $420 $507 #
coedge $-1 $508 $509 $350 $424 forward $480 $-1 #
edge $-1 $426 -44.63393047883541 $510 44.63393047883541 $350 $511 forward 7 unknown #
coedge $-1 $358 $351 $509 $512 reversed $359 $-1 #
vertex $-1 $424 $513 #
straight-curve $-1 -44.63393047883541 28.869504659425328 0 0 0 -1 I I #
loop $-1 $-1 $502 $353 #
plane-surface $-1 44.63393047883541 0 0 -1 0 0 0 0 1 forward_v I I I I #
coedge $-1 $406 $404 $355 $431 reversed $336 $-1 #
edge $-1 $433 6.4914729986352953 $489 9.4914729986352953 $355 $514 forward 7 unknown #
coedge $-1 $405 $356 $358 $435 reversed $271 $-1 #
vertex $-1 $357 $515 #
straight-curve $-1 -20.182828784487786 -14.482945997270591 7.1932793310773686 1 0 0 I I #
edge $-1 $516 -7.1932793310773686 $360 7.1932793310773686 $358 $517 forward 7 unknown #
face $-1 $285 $359 $14 $-1 $403 reversed single #
point $-1 -44.63393047883541 -14.482945997270591 7.1932793310773686 #
face $-1 $518 $519 $15 $-1 $520 forward single #
loop $-1 $-1 $521 $363 #
plane-surface $-1 -40.365657568975571 -14.482945997270591 0 0 -1 0 0 0 -1 forward_v I I I I #
coedge $-1 $522 $523 $524 $525 reversed $364 $-1 #
coedge $-1 $366 $526 $527 $528 forward $292 $-1 #
coedge $-1 $527 $375 $367 $444 forward $377 $-1 #
edge $-1 $529 -52.933441352102385 $446 -46.128558968253017 $443 $530 forward 7 unknown #
edge $-1 $529 -57.739009318850663 $447 -44.526622458875856 $368 $531 forward 7 unknown #
vertex $-1 $444 $532 #
vertex $-1 $371 $533 #
straight-curve $-1 -0.85406009981747388 12.676931002316843 7.1932793310773704 0 -1 0 I I #
straight-curve $-1 -5.6055052365240563 17.544278733219201 7.1932793310773668 -1 0 0 I I #
edge $-1 $373 -15.962455609754695 $529 4.7514451367065824 $375 $534 forward 7 unknown #
point $-1 -21.567960846278751 28.869504659425328 0.38839694722800289 #
coedge $-1 $376 $535 $536 $537 reversed $377 $-1 #
face $-1 $538 $377 $15 $-1 $539 reversed single #
coedge $-1 $540 $379 $541 $542 forward $292 $-1 #
coedge $-1 $536 $543 $379 $456 reversed $544 $-1 #
edge $-1 $457 -28.869504659425328 $545 14.482945997270591 $455 $546 forward 7 unknown #
vertex $-1 $380 $547 #
straight-curve $-1 0 28.869504659425328 7.1932793310773686 -1 0 0 I I #
face $-1 $-1 $473 $13 $-1 $548 reversed single #
loop $-1 $-1 $462 $384 #
plane-surface $-1 0 28.869504659425328 0 0 -1 0 0 0 -1 forward_v I I I I #
coedge $-1 $389 $385 $472 $549 forward $460 $-1 #
coedge $-1 $385 $389 $387 $466 reversed $460 $-1 #
vertex $-1 $393 $550 #
straight-curve $-1 0 28.869504659425328 7.1932793310773686 -1 0 0 I I #
edge $-1 $388 -7.1932793310773686 $391 7.1932793310773686 $463 $551 forward 7 unknown #
point $-1 -44.63393047883541 28.869504659425328 7.1932793310773686 #
vertex $-1 $398 $552 #
straight-curve $-1 0 28.869504659425328 -7.1932793310773686 1 0 0 I I #
point $-1 -44.63393047883541 28.869504659425328 -7.1932793310773686 #
coedge $-1 $397 $392 $394 $475 forward $473 $-1 #
coedge $-1 $392 $397 $462 $549 reversed $473 $-1 #
loop $-1 $-1 $471 $459 #
straight-curve $-1 44.63393047883541 0 7.1932793310773686 0 1 0 I I #
edge $-1 $395 -7.1932793310773686 $399 7.1932793310773686 $471 $553 forward 7 unknown #
point $-1 44.63393047883541 -28.869504659425328 7.1932793310773686 #
straight-curve $-1 44.63393047883541 0 -7.1932793310773686 0 -1 0 I I #
point $-1 44.63393047883541 -28.869504659425328 -7.1932793310773686 #
face $-1 $436 $554 $14 $-1 $555 reversed single #
loop $-1 $-1 $484 $401 #
plane-surface $-1 0 0 -7.1932793310773686 0 0 1 1 0 0 forward_v I I I I #
coedge $-1 $404 $406 $491 $556 reversed $336 $-1 #
edge $-1 $489 -7.1932793310773686 $493 7.1932793310773686 $404 $557 forward 7 unknown #
coedge $-1 $509 $491 $405 $485 forward $480 $-1 #
edge $-1 $486 15.914555874627947 $516 24.451101694347624 $484 $558 forward 7 unknown #
vertex $-1 $485 $559 #
straight-curve $-1 -36.097384659115733 -14.482945997270591 0 0 0 -1 I I #
coedge $-1 $418 $409 $414 $497 forward $120 $-1 #
vertex $-1 $410 $560 #
straight-curve $-1 -20.182828784487786 -17.482945997270591 7.1932793310773686 -1 0 0 I I #
coedge $-1 $484 $411 $482 $556 forward $480 $-1 #
coedge $-1 $411 $561 $413 $496 forward $480 $-1 #
vertex $-1 $412 $562 #
straight-curve $-1 -20.182828784487786 -17.482945997270591 -7.1932793310773686 1 0 0 I I #
coedge $-1 $414 $413 $563 $564 reversed $402 $-1 #
edge $-1 $565 -28.869504659425328 $416 -17.482945997270591 $413 $566 forward 7 unknown #
edge $-1 $415 17.482945997270591 $567 28.869504659425328 $414 $361 forward 7 unknown #
point $-1 -44.63393047883541 -17.482945997270591 7.1932793310773686 #
point $-1 -44.63393047883541 -17.482945997270591 -7.1932793310773686 #
coedge $-1 $563 $568 $418 $501 reversed $554 $-1 #
edge $-1 $567 -44.63393047883541 $504 44.63393047883541 $500 $569 forward 7 unknown #
coedge $-1 $570 $419 $568 $571 forward $428 $-1 #
coedge $-1 $419 $570 $421 $506 reversed $428 $-1 #
vertex $-1 $420 $572 #
straight-curve $-1 44.63393047883541 0 7.1932793310773686 0 1 0 I I #
edge $-1 $422 -7.1932793310773686 $510 7.1932793310773686 $503 $573 forward 7 unknown #
point $-1 44.63393047883541 28.869504659425328 7.1932793310773686 #
coedge $-1 $561 $423 $570 $574 forward $480 $-1 #
coedge $-1 $423 $484 $425 $512 forward $480 $-1 #
vertex $-1 $574 $575 #
straight-curve $-1 0 28.869504659425328 -7.1932793310773686 1 0 0 I I #
edge $-1 $516 -14.482945997270591 $426 28.869504659425328 $425 $566 forward 7 unknown #
point $-1 -44.63393047883541 28.869504659425328 -7.1932793310773686 #
straight-curve $-1 -36.097384659115733 -7.9914729986352953 7.1932793310773686 0 -1 0 I I #
point $-1 -36.097384659115733 -14.482945997270591 7.1932793310773686 #
vertex $-1 $512 $576 #
straight-curve $-1 -44.63393047883541 -14.482945997270591 0 0 0 1 I I #
face $-1 $577 $578 $15 $-1 $579 reversed single #
loop $-1 $-1 $580 $438 #
plane-surface $-1 -36.097384659115733 -15.982945997270591 0 -1 0 0 0 0 1 forward_v I I I I #
coedge $-1 $541 $581 $582 $583 reversed $439 $-1 #
coedge $-1 $584 $441 $585 $586 reversed $364 $-1 #
coedge $-1 $441 $584 $587 $588 reversed $364 $-1 #
coedge $-1 $589 $590 $441 $525 forward $578 $-1 #
edge $-1 $591 -7.1932793310773686 $592 7.1932793310773686 $524 $593 forward 7 unknown #
coedge $-1 $442 $594 $595 $596 forward $292 $-1 #
coedge $-1 $597 $443 $442 $528 reversed $377 $-1 #
edge $-1 $598 -44.63393047883541 $446 0.85406009981747388 $527 $458 forward 7 unknown #
vertex $-1 $450 $599 #
straight-curve $-1 -0.85406009981747388 28.869504659425328 53.321838299330388 0 0 1 I I #
straight-curve $-1 -0.85406009981747388 -20.622485865937758 30.126185549605523 0 -0.85716729658548041 0.51503808176128008 I I #
point $-1 -0.85406009981747388 28.869504659425328 7.1932793310773686 #
point $-1 -0.85406009981747388 17.544278733219198 7.1932793310773704 #
straight-curve $-1 -5.6055052365240563 28.869504659425324 0.38839694722800289 1 0 0 I I #
coedge $-1 $452 $597 $600 $601 reversed $377 $-1 #
coedge $-1 $602 $455 $452 $537 forward $544 $-1 #
edge $-1 $457 -7.1932793310773686 $603 7.1932793310773686 $452 $604 forward 7 unknown #
face $-1 $-1 $605 $15 $-1 $606 reversed single #
plane-surface $-1 0 28.869504659425328 0 0 -1 0 0 0 -1 forward_v I I I I #
coedge $-1 $585 $454 $607 $608 forward $292 $-1 #
coedge $-1 $609 $521 $454 $542 reversed $439 $-1 #
edge $-1 $545 -24.451101694347624 $610 -15.914555874627947 $454 $611 forward 7 unknown #
coedge $-1 $455 $602 $609 $612 forward $544 $-1 #
loop $-1 $-1 $543 $613 #
vertex $-1 $612 $614 #
straight-curve $-1 -44.63393047883541 0 7.1932793310773686 0 -1 0 I I #
point $-1 -44.63393047883541 28.869504659425328 7.1932793310773686 #
plane-surface $-1 44.63393047883541 0 0 -1 0 0 0 0 1 forward_v I I I I #
edge $-1 $464 -7.1932793310773686 $468 7.1932793310773686 $472 $615 forward 7 unknown #
point $-1 44.63393047883541 28.869504659425328 7.1932793310773686 #
straight-curve $-1 -44.63393047883541 28.869504659425328 0 0 0 -1 I I #
point $-1 44.63393047883541 28.869504659425328 -7.1932793310773686 #
straight-curve $-1 44.63393047883541 -28.869504659425328 0 0 0 -1 I I #
loop $-1 $-1 $563 $479 #
plane-surface $-1 0 -28.869504659425328 0 0 1 0 0 0 1 forward_v I I I I #
edge $-1 $493 -9.4914729986352953 $486 -6.4914729986352953 $491 $616 forward 7 unknown #
straight-curve $-1 -36.097384659115733 -17.482945997270591 0 0 0 -1 I I #
straight-curve $-1 -20.182828784487786 -14.482945997270591 -7.1932793310773686 -1 0 0 I I #
point $-1 -36.097384659115733 -14.482945997270591 -7.1932793310773686 #
point $-1 -36.097384659115733 -17.482945997270591 7.1932793310773686 #
coedge $-1 $492 $508 $617 $618 forward $480 $-1 #
point $-1 -36.097384659115733 -17.482945997270591 -7.1932793310773686 #
coedge $-1 $617 $500 $495 $564 forward $554 $-1 #
edge $-1 $567 -7.1932793310773686 $565 7.1932793310773686 $495 $619 forward 7 unknown #
vertex $-1 $496 $620 #
straight-curve $-1 -44.63393047883541 0 -7.1932793310773686 0 1 0 I I #
vertex $-1 $497 $621 #
coedge $-1 $500 $617 $502 $571 reversed $554 $-1 #
straight-curve $-1 0 -28.869504659425328 7.1932793310773686 1 0 0 I I #
coedge $-1 $503 $502 $508 $574 reversed $428 $-1 #
edge $-1 $504 -7.1932793310773686 $622 7.1932793310773686 $502 $623 forward 7 unknown #
point $-1 44.63393047883541 -28.869504659425328 7.1932793310773686 #
straight-curve $-1 44.63393047883541 28.869504659425328 0 0 0 -1 I I #
edge $-1 $510 -28.869504659425328 $622 28.869504659425328 $570 $624 forward 7 unknown #
point $-1 44.63393047883541 28.869504659425328 -7.1932793310773686 #
point $-1 -44.63393047883541 -14.482945997270591 -7.1932793310773686 #
face $-1 $625 $626 $15 $-1 $627 reversed single #
loop $-1 $-1 $524 $518 #
plane-surface $-1 -44.63393047883541 0 0 1 0 0 0 0 -1 forward_v I I I I #
coedge $-1 $607 $628 $584 $629 reversed $519 $-1 #
coedge $-1 $521 $609 $630 $631 reversed $439 $-1 #
coedge $-1 $628 $607 $521 $583 forward $519 $-1 #
edge $-1 $610 -7.1932793310773686 $632 7.1932793310773686 $582 $633 forward 7 unknown #
coedge $-1 $523 $522 $580 $629 forward $364 $-1 #
coedge $-1 $634 $540 $522 $586 forward $292 $-1 #
edge $-1 $635 15.914555874627947 $591 24.451101694347624 $585 $636 forward 7 unknown #
coedge $-1 $637 $638 $523 $588 forward $626 $-1 #
edge $-1 $592 -24.451101694347624 $639 -15.914555874627947 $587 $640 forward 7 unknown #
coedge $-1 $641 $524 $638 $642 reversed $578 $-1 #
coedge $-1 $524 $641 $634 $643 reversed $578 $-1 #
vertex $-1 $643 $644 #
vertex $-1 $525 $645 #
straight-curve $-1 -44.63393047883541 -17.482945997270591 0 0 0 -1 I I #
coedge $-1 $526 $634 $646 $647 forward $292 $-1 #
coedge $-1 $648 $649 $526 $596 reversed $605 $-1 #
edge $-1 $650 -28.869504659425328 $598 28.869504659425328 $595 $651 forward 7 unknown #
coedge $-1 $535 $527 $649 $652 forward $377 $-1 #
vertex $-1 $596 $653 #
point $-1 -0.85406009981747388 28.869504659425328 0.38839694722800289 #
coedge $-1 $654 $655 $535 $601 forward $626 $-1 #
edge $-1 $603 -44.63393047883541 $656 44.63393047883541 $535 $657 forward 7 unknown #
coedge $-1 $543 $536 $655 $658 reversed $544 $-1 #
vertex $-1 $601 $659 #
straight-curve $-1 -44.63393047883541 28.869504659425328 0 0 0 -1 I I #
loop $-1 $-1 $648 $538 #
plane-surface $-1 44.63393047883541 0 0 -1 0 0 0 0 1 forward_v I I I I #
coedge $-1 $582 $580 $540 $608 reversed $519 $-1 #
edge $-1 $610 6.4914729986352953 $635 9.4914729986352953 $540 $660 forward 7 unknown #
coedge $-1 $581 $541 $543 $612 reversed $439 $-1 #
vertex $-1 $542 $661 #
straight-curve $-1 -20.182828784487786 -14.482945997270591 7.1932793310773686 1 0 0 I I #
edge $-1 $662 -7.1932793310773686 $545 7.1932793310773686 $543 $663 forward 7 unknown #
face $-1 $453 $544 $15 $-1 $579 reversed single #
point $-1 -44.63393047883541 -14.482945997270591 7.1932793310773686 #
straight-curve $-1 44.63393047883541 28.869504659425328 0 0 0 -1 I I #
straight-curve $-1 -36.097384659115733 -7.9914729986352953 -7.1932793310773686 0 1 0 I I #
coedge $-1 $568 $563 $561 $618 reversed $554 $-1 #
edge $-1 $622 -44.63393047883541 $565 44.63393047883541 $617 $664 forward 7 unknown #
straight-curve $-1 -44.63393047883541 -28.869504659425328 0 0 0 -1 I I #
point $-1 -44.63393047883541 -28.869504659425328 -7.1932793310773686 #
point $-1 -44.63393047883541 -28.869504659425328 7.1932793310773686 #
vertex $-1 $571 $665 #
straight-curve $-1 44.63393047883541 -28.869504659425328 0 0 0 -1 I I #
straight-curve $-1 44.63393047883541 0 -7.1932793310773686 0 -1 0 I I #
face $-1 $613 $666 $15 $-1 $667 reversed single #
loop $-1 $-1 $630 $577 #
plane-surface $-1 0 0 -7.1932793310773686 0 0 1 1 0 0 forward_v I I I I #
coedge $-1 $580 $582 $637 $668 reversed $519 $-1 #
edge $-1 $635 -7.1932793310773686 $639 7.1932793310773686 $580 $669 forward 7 unknown #
coedge $-1 $655 $637 $581 $631 forward $626 $-1 #
edge $-1 $632 15.914555874627947 $662 24.451101694347624 $630 $670 forward 7 unknown #
vertex $-1 $631 $671 #
straight-curve $-1 -36.097384659115733 -14.482945997270591 0 0 0 -1 I I #
coedge $-1 $594 $585 $590 $643 forward $292 $-1 #
vertex $-1 $586 $672 #
straight-curve $-1 -20.182828784487786 -17.482945997270591 7.1932793310773686 -1 0 0 I I #
coedge $-1 $630 $587 $628 $668 forward $626 $-1 #
coedge $-1 $587 $673 $589 $642 forward $626 $-1 #
vertex $-1 $588 $674 #
straight-curve $-1 -20.182828784487786 -17.482945997270591 -7.1932793310773686 1 0 0 I I #
coedge $-1 $590 $589 $675 $676 reversed $578 $-1 #
edge $-1 $677 -28.869504659425328 $592 -17.482945997270591 $589 $678 forward 7 unknown #
edge $-1 $591 17.482945997270591 $679 28.869504659425328 $590 $546 forward 7 unknown #
point $-1 -44.63393047883541 -17.482945997270591 7.1932793310773686 #
point $-1 -44.63393047883541 -17.482945997270591 -7.1932793310773686 #
coedge $-1 $675 $680 $594 $647 reversed $666 $-1 #
edge $-1 $679 -44.63393047883541 $650 44.63393047883541 $646 $681 forward 7 unknown #
coedge $-1 $682 $595 $680 $683 forward $605 $-1 #
coedge $-1 $595 $682 $597 $652 reversed $605 $-1 #
vertex $-1 $596 $684 #
straight-curve $-1 44.63393047883541 0 7.1932793310773686 0 1 0 I I #
edge $-1 $598 -7.1932793310773686 $656 7.1932793310773686 $649 $685 forward 7 unknown #
point $-1 44.63393047883541 28.869504659425328 7.1932793310773686 #
coedge $-1 $673 $600 $682 $686 forward $626 $-1 #
coedge $-1 $600 $630 $602 $658 forward $626 $-1 #
vertex $-1 $686 $687 #
straight-curve $-1 0 28.869504659425328 -7.1932793310773686 1 0 0 I I #
edge $-1 $662 -14.482945997270591 $603 28.869504659425328 $602 $678 forward 7 unknown #
point $-1 -44.63393047883541 28.869504659425328 -7.1932793310773686 #
straight-curve $-1 -36.097384659115733 -7.9914729986352953 7.1932793310773686 0 -1 0 I I #
point $-1 -36.097384659115733 -14.482945997270591 7.1932793310773686 #
vertex $-1 $658 $688 #
straight-curve $-1 -44.63393047883541 -14.482945997270591 0 0 0 1 I I #
straight-curve $-1 0 -28.869504659425328 -7.1932793310773686 -1 0 0 I I #
point $-1 44.63393047883541 -28.869504659425328 -7.1932793310773686 #
loop $-1 $-1 $675 $625 #
plane-surface $-1 0 -28.869504659425328 0 0 1 0 0 0 1 forward_v I I I I #
edge $-1 $639 -9.4914729986352953 $632 -6.4914729986352953 $637 $689 forward 7 unknown #
straight-curve $-1 -36.097384659115733 -17.482945997270591 0 0 0 -1 I I #
straight-curve $-1 -20.182828784487786 -14.482945997270591 -7.1932793310773686 -1 0 0 I I #
point $-1 -36.097384659115733 -14.482945997270591 -7.1932793310773686 #
point $-1 -36.097384659115733 -17.482945997270591 7.1932793310773686 #
coedge $-1 $638 $654 $690 $691 forward $626 $-1 #
point $-1 -36.097384659115733 -17.482945997270591 -7.1932793310773686 #
coedge $-1 $690 $646 $641 $676 forward $666 $-1 #
edge $-1 $679 -7.1932793310773686 $677 7.1932793310773686 $641 $692 forward 7 unknown #
vertex $-1 $642 $693 #
straight-curve $-1 -44.63393047883541 0 -7.1932793310773686 0 1 0 I I #
vertex $-1 $643 $694 #
coedge $-1 $646 $690 $648 $683 reversed $666 $-1 #
straight-curve $-1 0 -28.869504659425328 7.1932793310773686 1 0 0 I I #
coedge $-1 $649 $648 $654 $686 reversed $605 $-1 #
edge $-1 $650 -7.1932793310773686 $695 7.1932793310773686 $648 $696 forward 7 unknown #
point $-1 44.63393047883541 -28.869504659425328 7.1932793310773686 #
straight-curve $-1 44.63393047883541 28.869504659425328 0 0 0 -1 I I #
edge $-1 $656 -28.869504659425328 $695 28.869504659425328 $682 $697 forward 7 unknown #
point $-1 44.63393047883541 28.869504659425328 -7.1932793310773686 #
point $-1 -44.63393047883541 -14.482945997270591 -7.1932793310773686 #
straight-curve $-1 -36.097384659115733 -7.9914729986352953 -7.1932793310773686 0 1 0 I I #
coedge $-1 $680 $675 $673 $691 reversed $666 $-1 #
edge $-1 $695 -44.63393047883541 $677 44.63393047883541 $690 $698 forward 7 unknown #
straight-curve $-1 -44.63393047883541 -28.869504659425328 0 0 0 -1 I I #
point $-1 -44.63393047883541 -28.869504659425328 -7.1932793310773686 #
point $-1 -44.63393047883541 -28.869504659425328 7.1932793310773686 #
vertex $-1 $683 $699 #
straight-curve $-1 44.63393047883541 -28.869504659425328 0 0 0 -1 I I #
straight-curve $-1 44.63393047883541 0 -7.1932793310773686 0 -1 0 I I #
straight-curve $-1 0 -28.869504659425328 -7.1932793310773686 -1 0 0 I I #
point $-1 44.63393047883541 -28.869504659425328 -7.1932793310773686 #
End-of-ACIS-data 