500 0 6 0           
7 Unknown 11 ACIS 5.0 NT 24 Thu Mar 25 18:09:16 1999 
-1 9.9999999999999995e-007 1e-010 
body $-1 $6 $-1 $7 #
body $-1 $8 $-1 $9 #
body $-1 $10 $-1 $11 #
body $-1 $12 $-1 $13 #
body $-1 $14 $-1 $15 #
body $-1 $16 $-1 $17 #
lump $-1 $-1 $18 $0 #
transform $-1 1 0 0 0 1 0 0 0 1 74.173406170842611 48.263080486077484 20.116662323517577 1 rotate no_reflect no_shear #
lump $-1 $-1 $19 $1 #
transform $-1 1 0 0 0 1 0 0 0 1 74.173406170842611 48.263080486077484 20.116662323517577 1 rotate no_reflect no_shear #
lump $-1 $-1 $20 $2 #
transform $-1 1 0 0 0 1 0 0 0 1 74.173406170842611 48.263080486077484 20.116662323517577 1 rotate no_reflect no_shear #
lump $-1 $-1 $21 $3 #
transform $-1 1 0 0 0 1 0 0 0 1 74.173406170842611 48.263080486077484 20.116662323517577 1 rotate no_reflect no_shear #
lump $-1 $-1 $22 $4 #
transform $-1 1 0 0 0 1 0 0 0 1 74.173406170842611 48.263080486077484 20.116662323517577 1 rotate no_reflect no_shear #
lump $-1 $-1 $23 $5 #
transform $-1 1 0 0 0 1 0 0 0 1 74.173406170842611 48.263080486077484 20.116662323517577 1 rotate no_reflect no_shear #
shell $-1 $-1 $-1 $24 $-1 $6 #
shell $-1 $-1 $-1 $25 $-1 $8 #
shell $-1 $-1 $-1 $26 $-1 $10 #
shell $-1 $-1 $-1 $27 $-1 $12 #
shell $-1 $-1 $-1 $28 $-1 $14 #
shell $-1 $-1 $-1 $29 $-1 $16 #
face $-1 $30 $31 $18 $-1 $32 forward single #
face $-1 $33 $34 $19 $-1 $35 reversed single #
face $-1 $36 $37 $20 $-1 $38 reversed single #
face $-1 $39 $40 $21 $-1 $41 forward single #
face $-1 $42 $43 $22 $-1 $44 reversed single #
face $-1 $45 $46 $23 $-1 $47 forward single #
face $-1 $48 $49 $18 $-1 $50 reversed single #
loop $-1 $-1 $51 $24 #
plane-surface $-1 0 0 20.116662323517577 0 0 1 1 0 0 forward_v I I I I #
face $-1 $52 $53 $19 $-1 $54 reversed single #
loop $-1 $-1 $55 $25 #
plane-surface $-1 0 -35.489131905712014 10.15858602053226 0 0 1 1 0 0 forward_v I I I I #
face $-1 $56 $57 $20 $-1 $58 reversed single #
loop $-1 $-1 $59 $26 #
plane-surface $-1 106.99243278258933 -5.3472026919771007 213.30779918167389 0 -1 0 -0.80901700255871778 0 -0.5877852410284794 forward_v I I I I #
face $-1 $60 $61 $21 $-1 $62 forward single #
loop $-1 $63 $64 $27 #
cone-surface $-1 67.762555680507944 -14.031193008661823 12.149228141020643 -0.80901700255871778 0 -0.5877852410284794 0.8816778615427191 0 -1.2135255038380768 1 I I 0 1 1.5 forward I I I I #
face $-1 $65 $66 $22 $-1 $67 reversed single #
loop $-1 $-1 $68 $28 #
plane-surface $-1 -74.173406170842597 -14.031193008661823 6.0966388737990655 -0.80901700255871778 0 0.5877852410284794 0.5877852410284794 0 0.80901700255871778 forward_v I I I I #
face $-1 $69 $70 $23 $-1 $71 forward single #
loop $-1 $72 $73 $29 #
cone-surface $-1 -67.762555680507944 -14.031193008661823 12.149228141020664 0.80901700255871778 0 -0.5877852410284794 0.8816778615427191 0 1.2135255038380768 1 I I 0 1 1.5 forward I I I I #
face $-1 $74 $75 $18 $-1 $76 reversed single #
loop $-1 $-1 $77 $30 #
plane-surface $-1 0 0 -20.116662323517577 0 0 1 1 0 0 forward_v I I I I #
coedge $-1 $78 $79 $80 $81 forward $31 $-1 #
face $-1 $82 $83 $19 $-1 $84 reversed single #
loop $-1 $-1 $85 $33 #
plane-surface $-1 0 -22.715183325346544 15.137624172024918 0 -1 0 0 0 -1 forward_v I I I I #
coedge $-1 $86 $87 $88 $89 reversed $34 $-1 #
face $-1 $90 $91 $20 $-1 $92 forward single #
loop $-1 $-1 $93 $36 #
plane-surface $-1 -13.022660677221452 -14.031193008661823 126.11173233360984 0.80901700255871778 0 0.5877852410284794 0.5877852410284794 0 -0.80901700255871778 forward_v I I I I #
coedge $-1 $94 $95 $96 $97 reversed $37 $-1 #
face $-1 $-1 $98 $21 $-1 $99 forward single #
loop $-1 $100 $101 $39 #
cone-surface $-1 65.838013929059912 -14.031193008661823 10.750966752611628 -0.80901700255871778 0 -0.5877852410284794 0.44083893077135955 0 -0.60676275191903839 1 I I -0.70710678118654757 0.70710678118654757 0.75 forward I I I I #
loop $-1 $-1 $102 $27 #
coedge $-1 $64 $64 $103 $104 reversed $40 $-1 #
face $-1 $105 $106 $22 $-1 $107 forward single #
loop $-1 $-1 $108 $42 #
plane-surface $-1 -194.18849963065338 -5.3472026919771007 93.292705721863115 0 -1 0 0.80901700255871778 0 -0.5877852410284794 forward_v I I I I #
coedge $-1 $109 $110 $111 $112 reversed $43 $-1 #
face $-1 $-1 $113 $23 $-1 $114 forward single #
loop $-1 $115 $116 $45 #
cone-surface $-1 -65.838013929059912 -14.031193008661823 10.750966752611649 0.80901700255871778 0 -0.5877852410284794 0.44083893077135955 0 0.60676275191903839 1 I I -0.70710678118654757 0.70710678118654757 0.75 forward I I I I #
loop $-1 $-1 $117 $29 #
coedge $-1 $73 $73 $118 $119 reversed $46 $-1 #
face $-1 $120 $121 $18 $-1 $122 reversed single #
loop $-1 $-1 $123 $48 #
plane-surface $-1 0 -48.263080486077484 0 0 1 0 0 0 1 forward_v I I I I #
coedge $-1 $124 $125 $126 $127 forward $49 $-1 #
coedge $-1 $128 $51 $129 $130 forward $31 $-1 #
coedge $-1 $51 $128 $131 $132 forward $31 $-1 #
coedge $-1 $133 $134 $51 $81 reversed $135 $-1 #
edge $-1 $136 -48.263080486077484 $137 48.263080486077484 $80 $138 forward 7 unknown #
face $-1 $139 $140 $19 $-1 $141 reversed single #
loop $-1 $-1 $142 $52 #
plane-surface $-1 -74.173406170842611 0 0 1 0 0 0 0 -1 forward_v I I I I #
coedge $-1 $143 $144 $145 $146 reversed $53 $-1 #
coedge $-1 $147 $55 $148 $149 reversed $34 $-1 #
coedge $-1 $55 $147 $143 $150 forward $34 $-1 #
coedge $-1 $145 $151 $55 $89 forward $152 $-1 #
edge $-1 $153 -30.518514533221477 $154 -4.9706173724905369 $88 $155 forward 7 unknown #
face $-1 $156 $157 $20 $-1 $158 forward single #
loop $-1 $-1 $159 $56 #
plane-surface $-1 0 -22.715183325346544 15.137624172024918 0 -1 0 0 0 -1 forward_v I I I I #
coedge $-1 $160 $161 $162 $163 reversed $57 $-1 #
coedge $-1 $95 $59 $164 $165 reversed $37 $-1 #
coedge $-1 $59 $94 $160 $166 reversed $37 $-1 #
coedge $-1 $162 $167 $59 $97 forward $157 $-1 #
edge $-1 $168 -20.677189779547945 $169 -10.491046797936576 $96 $170 forward 7 unknown #
loop $-1 $-1 $103 $60 #
plane-surface $-1 -13.022660677221452 -14.031193008661823 126.11173233360984 0.80901700255871778 0 0.5877852410284794 0.5877852410284794 0 -0.80901700255871778 forward_v I I I I #
loop $-1 $-1 $171 $39 #
coedge $-1 $101 $101 $102 $172 reversed $61 $-1 #
coedge $-1 $102 $102 $101 $172 forward $63 $-1 #
coedge $-1 $103 $103 $64 $104 forward $98 $-1 #
edge $-1 $173 0 $173 6.2831853071796004 $103 $174 forward 7 unknown #
face $-1 $175 $176 $22 $-1 $177 reversed single #
loop $-1 $-1 $111 $65 #
plane-surface $-1 0 0 20.116662323517577 0 0 1 1 0 0 forward_v I I I I #
coedge $-1 $178 $179 $180 $181 reversed $66 $-1 #
coedge $-1 $182 $68 $183 $184 reversed $43 $-1 #
coedge $-1 $68 $182 $178 $185 forward $43 $-1 #
coedge $-1 $180 $186 $68 $112 forward $106 $-1 #
edge $-1 $187 -15.699586821015632 $188 1.6683938123538109 $111 $189 forward 7 unknown #
loop $-1 $-1 $118 $69 #
plane-surface $-1 -74.173406170842597 -14.031193008661823 6.0966388737990655 -0.80901700255871778 0 0.5877852410284794 0.5877852410284794 0 0.80901700255871778 forward_v I I I I #
loop $-1 $-1 $190 $45 #
coedge $-1 $116 $116 $117 $191 reversed $70 $-1 #
coedge $-1 $117 $117 $116 $191 forward $72 $-1 #
coedge $-1 $118 $118 $73 $119 forward $113 $-1 #
edge $-1 $192 0 $192 6.2831853071796004 $118 $193 forward 7 unknown #
face $-1 $194 $195 $18 $-1 $196 reversed single #
loop $-1 $-1 $197 $74 #
plane-surface $-1 -74.173406170842611 0 0 1 0 0 0 0 -1 forward_v I I I I #
coedge $-1 $198 $131 $199 $200 forward $75 $-1 #
coedge $-1 $201 $77 $198 $202 forward $49 $-1 #
coedge $-1 $77 $201 $203 $204 forward $49 $-1 #
coedge $-1 $134 $133 $77 $127 reversed $135 $-1 #
edge $-1 $205 -48.263080486077484 $206 48.263080486077484 $126 $207 forward 7 unknown #
coedge $-1 $79 $78 $208 $209 forward $31 $-1 #
coedge $-1 $210 $211 $78 $130 reversed $195 $-1 #
edge $-1 $137 -74.173406170842611 $212 74.173406170842611 $129 $213 forward 7 unknown #
coedge $-1 $123 $214 $79 $132 reversed $75 $-1 #
edge $-1 $215 -74.173406170842611 $136 74.173406170842611 $131 $216 forward 7 unknown #
coedge $-1 $126 $80 $214 $217 forward $135 $-1 #
coedge $-1 $80 $126 $210 $218 reversed $135 $-1 #
loop $-1 $-1 $133 $194 #
vertex $-1 $81 $219 #
vertex $-1 $81 $220 #
straight-curve $-1 74.173406170842611 0 20.116662323517577 0 1 0 I I #
face $-1 $221 $222 $19 $-1 $223 forward single #
loop $-1 $-1 $148 $82 #
plane-surface $-1 0 -48.263080486077484 0 0 1 0 0 0 1 forward_v I I I I #
coedge $-1 $224 $225 $226 $227 forward $83 $-1 #
coedge $-1 $226 $85 $87 $150 reversed $53 $-1 #
coedge $-1 $85 $226 $228 $229 reversed $53 $-1 #
coedge $-1 $230 $88 $85 $146 forward $152 $-1 #
edge $-1 $154 2.5897739345198012 $231 12.547850237505115 $145 $232 forward 7 unknown #
coedge $-1 $87 $86 $224 $233 reversed $34 $-1 #
coedge $-1 $234 $235 $86 $149 forward $140 $-1 #
edge $-1 $236 -74.173406170842611 $153 74.173406170842611 $148 $237 forward 7 unknown #
edge $-1 $238 -74.173406170842611 $154 74.173406170842611 $143 $239 forward 7 unknown #
coedge $-1 $88 $230 $234 $240 forward $152 $-1 #
loop $-1 $-1 $145 $221 #
vertex $-1 $149 $241 #
vertex $-1 $89 $242 #
straight-curve $-1 74.173406170842611 -17.744565952856007 10.15858602053226 0 1 0 I I #
face $-1 $-1 $243 $20 $-1 $244 reversed single #
loop $-1 $-1 $162 $90 #
plane-surface $-1 0 0 20.116662323517577 0 0 1 1 0 0 forward_v I I I I #
coedge $-1 $245 $246 $161 $247 reversed $91 $-1 #
coedge $-1 $248 $93 $95 $166 forward $57 $-1 #
coedge $-1 $93 $248 $159 $247 forward $57 $-1 #
coedge $-1 $249 $96 $93 $163 forward $157 $-1 #
edge $-1 $169 -1.6683938123538109 $250 15.699586821015632 $162 $251 forward 7 unknown #
coedge $-1 $252 $253 $94 $165 forward $243 $-1 #
edge $-1 $254 -100.55726071703791 $168 -86.537237267319369 $164 $255 forward 7 unknown #
edge $-1 $169 131.01711048699403 $254 148.34681234168525 $95 $256 forward 7 unknown #
coedge $-1 $96 $249 $252 $257 forward $157 $-1 #
vertex $-1 $165 $258 #
vertex $-1 $97 $259 #
straight-curve $-1 53.496216391294666 -5.3472026919771007 20.116662323517573 -1 0 0 I I #
coedge $-1 $171 $171 $-1 $260 reversed $100 $-1 #
edge $-1 $261 0 $261 6.2831853071796004 $101 $262 forward 7 unknown #
vertex $-1 $104 $263 #
ellipse-curve $-1 69.080334680036927 -14.031193008661823 13.106650598658296 0.80901700255871778 0 0.5877852410284794 0.8816778615427191 0 -1.2135255038380768 1 I I #
face $-1 $-1 $264 $22 $-1 $265 forward single #
loop $-1 $-1 $266 $105 #
plane-surface $-1 -74.173406170842611 0 0 1 0 0 0 0 -1 forward_v I I I I #
coedge $-1 $179 $108 $110 $185 reversed $66 $-1 #
coedge $-1 $108 $178 $266 $267 reversed $66 $-1 #
coedge $-1 $268 $111 $108 $181 forward $106 $-1 #
edge $-1 $188 -33.106986626095434 $269 -22.92084364448408 $180 $270 forward 7 unknown #
coedge $-1 $110 $109 $271 $272 reversed $43 $-1 #
coedge $-1 $273 $274 $109 $184 forward $264 $-1 #
edge $-1 $275 -25.456172125090092 $187 -8.1264702703988867 $183 $276 forward 7 unknown #
edge $-1 $277 -2.4161062406544664e-014 $188 17.32970185469118 $178 $278 forward 7 unknown #
coedge $-1 $111 $268 $273 $279 forward $106 $-1 #
vertex $-1 $184 $280 #
vertex $-1 $112 $281 #
straight-curve $-1 -63.98726318923125 -7.0155965043309116 20.116662323517577 0 1 0 I I #
coedge $-1 $190 $190 $-1 $282 reversed $115 $-1 #
edge $-1 $283 0 $283 6.2831853071796004 $116 $284 forward 7 unknown #
vertex $-1 $119 $285 #
ellipse-curve $-1 -69.080334680036927 -14.031193008661823 13.106650598658316 -0.80901700255871778 0 0.5877852410284794 0.8816778615427191 0 1.2135255038380768 1 I I #
face $-1 $-1 $135 $18 $-1 $286 reversed single #
loop $-1 $-1 $210 $120 #
plane-surface $-1 0 48.263080486077484 0 0 -1 0 0 0 -1 forward_v I I I I #
coedge $-1 $287 $208 $211 $288 forward $121 $-1 #
coedge $-1 $214 $123 $124 $202 reversed $75 $-1 #
coedge $-1 $208 $287 $123 $200 reversed $121 $-1 #
edge $-1 $215 -20.116662323517577 $289 20.116662323517577 $199 $290 forward 7 unknown #
coedge $-1 $125 $124 $287 $291 forward $49 $-1 #
edge $-1 $206 -74.173406170842611 $289 74.173406170842611 $198 $292 forward 7 unknown #
coedge $-1 $211 $210 $125 $204 reversed $195 $-1 #
edge $-1 $293 -74.173406170842611 $205 74.173406170842611 $203 $294 forward 7 unknown #
vertex $-1 $127 $295 #
vertex $-1 $217 $296 #
straight-curve $-1 74.173406170842611 0 -20.116662323517577 0 -1 0 I I #
coedge $-1 $197 $199 $128 $209 reversed $121 $-1 #
edge $-1 $212 -48.263080486077484 $215 48.263080486077484 $208 $297 forward 7 unknown #
coedge $-1 $203 $129 $134 $218 forward $195 $-1 #
coedge $-1 $129 $203 $197 $288 reversed $195 $-1 #
vertex $-1 $130 $298 #
straight-curve $-1 0 48.263080486077484 20.116662323517577 -1 0 0 I I #
coedge $-1 $131 $198 $133 $217 reversed $75 $-1 #
vertex $-1 $209 $299 #
straight-curve $-1 0 -48.263080486077484 20.116662323517577 1 0 0 I I #
edge $-1 $136 -20.116662323517577 $206 20.116662323517577 $133 $300 forward 7 unknown #
edge $-1 $137 -20.116662323517577 $205 20.116662323517577 $134 $301 forward 7 unknown #
point $-1 74.173406170842611 -48.263080486077484 20.116662323517577 #
point $-1 74.173406170842611 48.263080486077484 20.116662323517577 #
face $-1 $-1 $152 $19 $-1 $302 reversed single #
loop $-1 $-1 $228 $139 #
plane-surface $-1 0 0 20.116662323517577 0 0 1 1 0 0 forward_v I I I I #
coedge $-1 $303 $142 $147 $233 forward $83 $-1 #
coedge $-1 $142 $303 $304 $305 reversed $83 $-1 #
coedge $-1 $144 $143 $142 $227 reversed $53 $-1 #
edge $-1 $306 -12.547850237505115 $238 -2.5897739345198012 $142 $307 forward 7 unknown #
coedge $-1 $304 $308 $144 $229 forward $222 $-1 #
edge $-1 $231 -74.173406170842611 $306 74.173406170842611 $228 $309 forward 7 unknown #
coedge $-1 $151 $145 $308 $310 reversed $152 $-1 #
vertex $-1 $146 $311 #
straight-curve $-1 74.173406170842611 -22.715183325346544 7.5688120860124588 0 0 1 I I #
edge $-1 $238 4.9706173724905369 $236 30.518514533221477 $224 $312 forward 7 unknown #
coedge $-1 $313 $148 $151 $240 reversed $140 $-1 #
coedge $-1 $148 $313 $303 $314 forward $140 $-1 #
vertex $-1 $149 $315 #
straight-curve $-1 0 -48.263080486077484 10.15858602053226 1 0 0 I I #
vertex $-1 $233 $316 #
straight-curve $-1 0 -22.715183325346544 10.15858602053226 1 0 0 I I #
edge $-1 $317 -20.116662323517577 $153 -10.15858602053226 $151 $318 forward 7 unknown #
point $-1 74.173406170842611 -48.263080486077484 10.15858602053226 #
point $-1 74.173406170842611 -22.715183325346544 10.15858602053226 #
loop $-1 $-1 $164 $156 #
plane-surface $-1 74.173406170842611 0 0 -1 0 0 0 0 1 forward_v I I I I #
coedge $-1 $246 $159 $319 $320 reversed $91 $-1 #
coedge $-1 $159 $245 $249 $321 reversed $91 $-1 #
edge $-1 $322 -148.34681234168525 $250 -131.01711048699406 $159 $323 forward 7 unknown #
coedge $-1 $161 $160 $253 $324 reversed $57 $-1 #
coedge $-1 $167 $162 $246 $321 forward $157 $-1 #
vertex $-1 $321 $325 #
straight-curve $-1 63.987263189231243 -7.0155965043309116 20.116662323517573 0 -1 0 I I #
coedge $-1 $319 $164 $167 $257 reversed $243 $-1 #
coedge $-1 $164 $319 $248 $324 forward $243 $-1 #
vertex $-1 $165 $326 #
straight-curve $-1 74.173406170842611 -5.3472026919771007 106.65389959083694 0 0 1 I I #
straight-curve $-1 -13.022660677221452 -5.3472026919771007 126.11173233360984 0.5877852410284794 0 -0.80901700255871778 I I #
edge $-1 $327 -22.715183325346544 $168 -5.3472026919771007 $252 $328 forward 7 unknown #
point $-1 74.173406170842611 -5.3472026919771007 20.116662323517577 #
point $-1 63.987263189231243 -5.3472026919771007 20.116662323517573 #
edge $-1 $329 1 $329 0 $171 $-1 forward 7 unknown #
vertex $-1 $172 $330 #
ellipse-curve $-1 66.444776680978947 -14.031193008661823 11.191805683382988 0.80901700255871778 0 0.5877852410284794 0.8816778615427191 0 -1.2135255038380768 1 I I #
point $-1 69.962012541579654 -14.031193008661823 11.893125094820221 #
loop $-1 $-1 $183 $175 #
plane-surface $-1 0 -22.715183325346544 15.137624172024918 0 -1 0 0 0 -1 forward_v I I I I #
coedge $-1 $271 $331 $179 $267 forward $176 $-1 #
edge $-1 $269 26.52969053741398 $277 40.549713987132513 $266 $332 forward 7 unknown #
coedge $-1 $186 $180 $331 $333 forward $106 $-1 #
vertex $-1 $333 $334 #
straight-curve $-1 -97.094249815326691 -5.3472026919771007 20.116662323517573 -1 0 0 I I #
coedge $-1 $335 $266 $182 $272 forward $176 $-1 #
edge $-1 $277 -1.6683938123538109 $275 15.699586821015632 $271 $336 forward 7 unknown #
coedge $-1 $274 $183 $186 $279 reversed $264 $-1 #
coedge $-1 $183 $273 $335 $337 reversed $264 $-1 #
vertex $-1 $337 $338 #
straight-curve $-1 -59.210643902634075 -22.715183325346544 26.691114943058217 0.5877852410284794 0 0.80901700255871778 I I #
vertex $-1 $272 $339 #
straight-curve $-1 -74.173406170842597 -5.3472026919771007 6.0966388737990655 0.5877852410284794 0 0.80901700255871778 I I #
edge $-1 $340 -74.173406170842611 $187 -63.987263189231257 $186 $341 forward 7 unknown #
point $-1 -63.987263189231257 -22.715183325346544 20.116662323517577 #
point $-1 -63.987263189231257 -5.3472026919771007 20.116662323517577 #
edge $-1 $342 1 $342 0 $190 $-1 forward 7 unknown #
vertex $-1 $191 $343 #
ellipse-curve $-1 -66.444776680978947 -14.031193008661823 11.191805683383009 -0.80901700255871778 0 0.5877852410284794 0.8816778615427191 0 1.2135255038380768 1 I I #
point $-1 -68.198656818494214 -14.031193008661823 14.320176102496395 #
plane-surface $-1 74.173406170842611 0 0 -1 0 0 0 0 1 forward_v I I I I #
coedge $-1 $199 $197 $201 $291 reversed $121 $-1 #
edge $-1 $212 -20.116662323517577 $293 20.116662323517577 $211 $344 forward 7 unknown #
vertex $-1 $291 $345 #
straight-curve $-1 -74.173406170842611 -48.263080486077484 0 0 0 -1 I I #
edge $-1 $289 -48.263080486077484 $293 48.263080486077484 $287 $346 forward 7 unknown #
straight-curve $-1 0 -48.263080486077484 -20.116662323517577 -1 0 0 I I #
vertex $-1 $204 $347 #
straight-curve $-1 0 48.263080486077484 -20.116662323517577 1 0 0 I I #
point $-1 74.173406170842611 48.263080486077484 -20.116662323517577 #
point $-1 74.173406170842611 -48.263080486077484 -20.116662323517577 #
straight-curve $-1 -74.173406170842611 0 20.116662323517577 0 -1 0 I I #
point $-1 -74.173406170842611 48.263080486077484 20.116662323517577 #
point $-1 -74.173406170842611 -48.263080486077484 20.116662323517577 #
straight-curve $-1 74.173406170842611 -48.263080486077484 0 0 0 -1 I I #
straight-curve $-1 74.173406170842611 48.263080486077484 0 0 0 -1 I I #
plane-surface $-1 74.173406170842611 0 0 -1 0 0 0 0 1 forward_v I I I I #
coedge $-1 $225 $224 $235 $314 reversed $83 $-1 #
coedge $-1 $348 $228 $225 $305 forward $222 $-1 #
edge $-1 $306 22.715183325346544 $349 48.263080486077484 $225 $350 forward 7 unknown #
vertex $-1 $305 $351 #
straight-curve $-1 -74.173406170842611 -22.715183325346544 7.5688120860124588 0 0 -1 I I #
coedge $-1 $228 $348 $230 $310 forward $222 $-1 #
straight-curve $-1 0 -22.715183325346544 20.116662323517577 -1 0 0 I I #
edge $-1 $317 -48.263080486077484 $231 -22.715183325346544 $230 $352 forward 7 unknown #
point $-1 74.173406170842611 -22.715183325346544 20.116662323517573 #
straight-curve $-1 -74.173406170842611 -17.744565952856007 10.15858602053226 0 -1 0 I I #
coedge $-1 $235 $234 $348 $353 reversed $140 $-1 #
edge $-1 $349 -20.116662323517577 $236 -10.15858602053226 $303 $354 forward 7 unknown #
point $-1 -74.173406170842611 -48.263080486077484 10.15858602053226 #
point $-1 -74.173406170842611 -22.715183325346544 10.15858602053226 #
vertex $-1 $310 $355 #
straight-curve $-1 74.173406170842611 -48.263080486077484 0 0 0 -1 I I #
coedge $-1 $253 $252 $245 $320 forward $243 $-1 #
edge $-1 $327 86.537237267319369 $322 100.55726071703791 $319 $356 forward 7 unknown #
edge $-1 $250 63.987263189231257 $327 74.173406170842611 $249 $357 forward 7 unknown #
vertex $-1 $320 $358 #
straight-curve $-1 -13.022660677221452 -22.715183325346544 126.11173233360984 -0.5877852410284794 0 0.80901700255871778 I I #
edge $-1 $322 -15.699586821015632 $254 1.6683938123538109 $253 $359 forward 7 unknown #
point $-1 63.987263189231257 -22.715183325346544 20.116662323517577 #
point $-1 74.173406170842611 -5.3472026919771007 6.0966388737990371 #
vertex $-1 $257 $360 #
straight-curve $-1 74.173406170842611 0 20.116662323517577 0 1 0 I I #
vertex $-1 $260 $361 #
point $-1 67.326454542521674 -14.031193008661823 9.9782801795449103 #
coedge $-1 $266 $335 $268 $333 reversed $176 $-1 #
straight-curve $-1 -74.173406170842611 -5.3472026919771007 46.646352860931557 0 0 -1 I I #
edge $-1 $269 5.3472026919771007 $340 22.715183325346544 $331 $362 forward 7 unknown #
point $-1 -74.173406170842611 -5.3472026919771007 20.116662323517577 #
coedge $-1 $331 $271 $274 $337 forward $176 $-1 #
straight-curve $-1 -74.173406170842611 -7.0155965043309116 6.0966388737990496 0 -1 0 I I #
edge $-1 $275 -40.549713987132513 $340 -26.529690537413984 $335 $363 forward 7 unknown #
point $-1 -74.173406170842611 -22.715183325346544 6.096638873799046 #
point $-1 -74.173406170842611 -5.3472026919771007 6.096638873799046 #
vertex $-1 $337 $364 #
straight-curve $-1 0 -22.715183325346544 20.116662323517577 1 0 0 I I #
vertex $-1 $282 $365 #
point $-1 -65.563098819436235 -14.031193008661823 12.405331187221085 #
straight-curve $-1 -74.173406170842611 48.263080486077484 0 0 0 -1 I I #
point $-1 -74.173406170842611 -48.263080486077484 -20.116662323517577 #
straight-curve $-1 -74.173406170842611 0 -20.116662323517577 0 1 0 I I #
point $-1 -74.173406170842611 48.263080486077484 -20.116662323517577 #
coedge $-1 $308 $304 $313 $353 forward $222 $-1 #
vertex $-1 $305 $366 #
straight-curve $-1 -74.173406170842611 0 20.116662323517577 0 -1 0 I I #
point $-1 -74.173406170842611 -22.715183325346544 20.116662323517573 #
straight-curve $-1 74.173406170842611 0 20.116662323517577 0 1 0 I I #
edge $-1 $349 -74.173406170842611 $317 74.173406170842611 $313 $367 forward 7 unknown #
straight-curve $-1 -74.173406170842611 -48.263080486077484 0 0 0 -1 I I #
point $-1 74.173406170842611 -48.263080486077484 20.116662323517577 #
straight-curve $-1 74.173406170842611 -22.715183325346544 106.65389959083694 0 0 -1 I I #
straight-curve $-1 0 -22.715183325346544 20.116662323517577 1 0 0 I I #
point $-1 74.173406170842611 -22.715183325346544 6.0966388737990371 #
straight-curve $-1 74.173406170842611 -7.0155965043309116 6.0966388737990442 0 1 0 I I #
point $-1 74.173406170842611 -22.715183325346544 20.116662323517573 #
point $-1 65.231251177140877 -14.031193008661823 10.310127821840268 #
straight-curve $-1 -74.173406170842611 0 20.116662323517577 0 -1 0 I I #
straight-curve $-1 -74.173406170842611 -22.715183325346544 46.646352860931557 0 0 1 I I #
point $-1 -74.173406170842611 -22.715183325346544 20.116662323517573 #
point $-1 -65.231251177140877 -14.031193008661823 10.31012782184029 #
point $-1 -74.173406170842611 -48.263080486077484 20.116662323517577 #
straight-curve $-1 0 -48.263080486077484 20.116662323517577 1 0 0 I I #
End-of-ACIS-data 