500 0 9 0           
7 Unknown 11 ACIS 5.0 NT 24 Fri Mar 26 18:22:22 1999 
-1 9.9999999999999995e-007 1e-010 
body $-1 $9 $-1 $10 #
body $-1 $11 $-1 $12 #
body $-1 $13 $-1 $14 #
body $-1 $15 $-1 $16 #
body $-1 $17 $-1 $18 #
body $-1 $19 $-1 $20 #
body $-1 $21 $-1 $22 #
body $-1 $23 $-1 $24 #
body $-1 $25 $-1 $26 #
lump $-1 $-1 $27 $0 #
transform $-1 1 0 0 0 1 0 0 0 1 66.902676473281048 41.978790499302903 14.475232950637034 1 rotate no_reflect no_shear #
lump $-1 $-1 $28 $1 #
transform $-1 1 0 0 0 1 0 0 0 1 66.902676473281048 41.978790499302903 14.475232950637034 1 rotate no_reflect no_shear #
lump $-1 $-1 $29 $2 #
transform $-1 1 0 0 0 1 0 0 0 1 66.902676473281048 41.978790499302903 14.475232950637034 1 rotate no_reflect no_shear #
lump $-1 $-1 $30 $3 #
transform $-1 1 0 0 0 1 0 0 0 1 66.902676473281048 41.978790499302903 14.475232950637034 1 rotate no_reflect no_shear #
lump $-1 $-1 $31 $4 #
transform $-1 1 0 0 0 1 0 0 0 1 66.902676473281048 41.978790499302903 14.475232950637034 1 rotate no_reflect no_shear #
lump $-1 $-1 $32 $5 #
transform $-1 1 0 0 0 1 0 0 0 1 66.902676473281048 41.978790499302903 14.475232950637034 1 rotate no_reflect no_shear #
lump $-1 $-1 $33 $6 #
transform $-1 1 0 0 0 1 0 0 0 1 66.902676473281048 41.978790499302903 14.475232950637034 1 rotate no_reflect no_shear #
lump $-1 $-1 $34 $7 #
transform $-1 1 0 0 0 1 0 0 0 1 66.902676473281048 41.978790499302903 14.475232950637034 1 rotate no_reflect no_shear #
lump $-1 $-1 $35 $8 #
transform $-1 1 0 0 0 1 0 0 0 1 66.902676473281048 41.978790499302903 14.475232950637034 1 rotate no_reflect no_shear #
shell $-1 $-1 $-1 $36 $-1 $9 #
shell $-1 $-1 $-1 $37 $-1 $11 #
shell $-1 $-1 $-1 $38 $-1 $13 #
shell $-1 $-1 $-1 $39 $-1 $15 #
shell $-1 $-1 $-1 $40 $-1 $17 #
shell $-1 $-1 $-1 $41 $-1 $19 #
shell $-1 $-1 $-1 $42 $-1 $21 #
shell $-1 $-1 $-1 $43 $-1 $23 #
shell $-1 $-1 $-1 $44 $-1 $25 #
face $-1 $45 $46 $27 $-1 $47 forward single #
face $-1 $48 $49 $28 $-1 $50 forward single #
face $-1 $51 $52 $29 $-1 $53 reversed single #
face $-1 $54 $55 $30 $-1 $56 forward single #
face $-1 $57 $58 $31 $-1 $59 forward single #
face $-1 $60 $61 $32 $-1 $62 forward single #
face $-1 $63 $64 $33 $-1 $65 reversed single #
face $-1 $66 $67 $34 $-1 $68 forward single #
face $-1 $69 $70 $35 $-1 $71 forward single #
face $-1 $72 $73 $27 $-1 $74 reversed single #
loop $-1 $-1 $75 $36 #
plane-surface $-1 0 0 14.475232950637034 0 0 1 1 0 0 forward_v I I I I #
face $-1 $76 $77 $28 $-1 $78 reversed single #
loop $-1 $-1 $79 $37 #
plane-surface $-1 0 -41.978790499302903 0 0 1 0 0 0 1 forward_v I I I I #
face $-1 $80 $81 $29 $-1 $82 reversed single #
loop $-1 $-1 $83 $38 #
plane-surface $-1 -145.55149061784789 -23.88029192703884 119.55688670904476 0 1 0 -0.5877852598018023 0 0.80901698891910034 forward_v I I I I #
face $-1 $84 $85 $30 $-1 $86 forward single #
loop $-1 $87 $88 $39 #
cone-surface $-1 -64.427803515554089 -22.298283083453111 12.486149464338776 0.5877852598018023 0 -0.80901698891910034 0.20225424722977509 0 0.14694631495045057 1 I I 0 1 0.25 forward I I I I #
face $-1 $89 $90 $31 $-1 $91 forward single #
loop $-1 $92 $93 $40 #
cone-surface $-1 -64.427803515554089 -19.925269818074518 12.486149464338776 0.5877852598018023 0 -0.80901698891910034 0.20225424722977509 0 0.14694631495045057 1 I I 0 1 0.25 forward I I I I #
face $-1 $94 $95 $32 $-1 $96 forward single #
loop $-1 $97 $98 $41 #
cone-surface $-1 -64.427803515554089 -17.552256552695926 12.486149464338776 0.5877852598018023 0 -0.80901698891910034 0.20225424722977509 0 0.14694631495045057 1 I I 0 1 0.25 forward I I I I #
face $-1 $99 $100 $33 $-1 $101 reversed single #
loop $-1 $-1 $102 $42 #
plane-surface $-1 66.902678668824279 -15.654690107226116 193.87904326774512 0 -1 0 -0.70710678939079041 0 -0.70710677298230451 forward_v I I I I #
face $-1 $103 $104 $34 $-1 $105 forward single #
loop $-1 $106 $107 $43 #
cone-surface $-1 60.774899291007792 -21.530119978520919 8.3474556825569195 -0.70710678939079041 0 -0.70710677298230451 0.70710677298230451 0 -0.70710678939079041 1 I I 0 1 1 forward I I I I #
face $-1 $108 $109 $35 $-1 $110 forward single #
loop $-1 $111 $112 $44 #
cone-surface $-1 60.774899291007792 -18.004862055744034 8.3474556825569195 -0.70710678939079041 0 -0.70710677298230451 0.70710677298230451 0 -0.70710678939079041 1 I I 0 1 1 forward I I I I #
face $-1 $113 $114 $27 $-1 $115 reversed single #
loop $-1 $-1 $116 $45 #
plane-surface $-1 0 0 -14.475232950637034 0 0 1 1 0 0 forward_v I I I I #
coedge $-1 $117 $118 $119 $120 forward $46 $-1 #
face $-1 $121 $122 $28 $-1 $123 forward single #
loop $-1 $-1 $124 $48 #
plane-surface $-1 -66.902676473281048 0 0 1 0 0 0 0 -1 forward_v I I I I #
coedge $-1 $125 $126 $127 $128 forward $49 $-1 #
face $-1 $129 $130 $29 $-1 $131 reversed single #
loop $-1 $-1 $132 $51 #
plane-surface $-1 -66.902676473281034 -19.925269818074518 11.306082966959622 -0.5877852598018023 0 0.80901698891910034 0.80901698891910034 0 0.5877852598018023 forward_v I I I I #
coedge $-1 $133 $134 $135 $136 reversed $52 $-1 #
face $-1 $-1 $137 $30 $-1 $138 forward single #
loop $-1 $139 $140 $54 #
cone-surface $-1 -64.060437728177959 -22.298283083453111 11.980513846264339 0.5877852598018023 0 -0.80901698891910034 0.10112712361488754 0 0.073473157475225287 1 I I -0.70710678118654746 0.70710678118654746 0.125 forward I I I I #
loop $-1 $-1 $141 $39 #
coedge $-1 $88 $88 $142 $143 reversed $55 $-1 #
face $-1 $-1 $144 $31 $-1 $145 forward single #
loop $-1 $146 $147 $57 #
cone-surface $-1 -64.060437728177959 -19.925269818074518 11.980513846264339 0.5877852598018023 0 -0.80901698891910034 0.10112712361488754 0 0.073473157475225287 1 I I -0.70710678118654746 0.70710678118654746 0.125 forward I I I I #
loop $-1 $-1 $148 $40 #
coedge $-1 $93 $93 $149 $150 reversed $58 $-1 #
face $-1 $-1 $151 $32 $-1 $152 forward single #
loop $-1 $153 $154 $60 #
cone-surface $-1 -64.060437728177959 -17.552256552695926 11.980513846264339 0.5877852598018023 0 -0.80901698891910034 0.10112712361488754 0 0.073473157475225287 1 I I -0.70710678118654746 0.70710678118654746 0.125 forward I I I I #
loop $-1 $-1 $155 $41 #
coedge $-1 $98 $98 $156 $157 reversed $61 $-1 #
face $-1 $158 $159 $33 $-1 $160 reversed single #
loop $-1 $-1 $161 $63 #
plane-surface $-1 -27.711994856520775 -19.767491017132478 99.264371937943309 0.70710678939079041 0 0.70710677298230451 0.70710677298230451 0 -0.70710678939079041 forward_v I I I I #
coedge $-1 $162 $163 $164 $165 reversed $64 $-1 #
face $-1 $-1 $166 $34 $-1 $167 forward single #
loop $-1 $168 $169 $66 #
cone-surface $-1 59.206335869057241 -21.530119978520919 6.7788922970050454 -0.70710678939079041 0 -0.70710677298230451 0.35355338649115226 0 -0.35355339469539521 1 I I -0.70710678118654746 0.70710678118654746 0.5 forward I I I I #
loop $-1 $-1 $170 $43 #
coedge $-1 $107 $107 $171 $172 reversed $67 $-1 #
face $-1 $-1 $173 $35 $-1 $174 forward single #
loop $-1 $175 $176 $69 #
cone-surface $-1 59.206335869057241 -18.004862055744034 6.7788922970050454 -0.70710678939079041 0 -0.70710677298230451 0.35355338649115226 0 -0.35355339469539521 1 I I -0.70710678118654746 0.70710678118654746 0.5 forward I I I I #
loop $-1 $-1 $177 $44 #
coedge $-1 $112 $112 $178 $179 reversed $70 $-1 #
face $-1 $180 $181 $27 $-1 $182 reversed single #
loop $-1 $-1 $183 $72 #
plane-surface $-1 0 -41.978790499302903 0 0 1 0 0 0 1 forward_v I I I I #
coedge $-1 $184 $185 $186 $187 forward $73 $-1 #
coedge $-1 $188 $75 $189 $190 forward $46 $-1 #
coedge $-1 $75 $188 $191 $192 forward $46 $-1 #
coedge $-1 $193 $194 $75 $120 reversed $195 $-1 #
edge $-1 $196 -41.978790499302903 $197 41.978790499302903 $119 $198 forward 7 unknown #
face $-1 $199 $200 $28 $-1 $201 reversed single #
loop $-1 $-1 $202 $76 #
plane-surface $-1 0 -51.028039785434935 7.779487068281469 0 0 1 1 0 0 forward_v I I I I #
coedge $-1 $203 $204 $126 $205 forward $77 $-1 #
coedge $-1 $206 $79 $207 $208 reversed $49 $-1 #
coedge $-1 $79 $206 $124 $205 reversed $49 $-1 #
coedge $-1 $209 $202 $79 $128 reversed $122 $-1 #
edge $-1 $210 -66.902676473281048 $211 66.902676473281048 $127 $212 forward 7 unknown #
face $-1 $213 $214 $29 $-1 $215 forward single #
loop $-1 $-1 $216 $80 #
plane-surface $-1 -145.55149061784789 -15.970247709110195 119.55688670904476 0 -1 0 0.5877852598018023 0 -0.80901698891910034 forward_v I I I I #
coedge $-1 $217 $218 $219 $220 reversed $81 $-1 #
coedge $-1 $134 $83 $221 $222 reversed $52 $-1 #
coedge $-1 $83 $133 $217 $223 reversed $52 $-1 #
coedge $-1 $219 $224 $83 $136 forward $214 $-1 #
edge $-1 $225 5.8730688356428971 $226 10.235029491295023 $135 $227 forward 7 unknown #
loop $-1 $-1 $142 $84 #
plane-surface $-1 -66.902676473281034 -19.925269818074518 11.306082966959622 -0.5877852598018023 0 0.80901698891910034 0.80901698891910034 0 0.5877852598018023 forward_v I I I I #
loop $-1 $-1 $228 $54 #
coedge $-1 $140 $140 $141 $229 reversed $85 $-1 #
coedge $-1 $141 $141 $140 $229 forward $87 $-1 #
coedge $-1 $142 $142 $88 $143 forward $137 $-1 #
edge $-1 $230 0 $230 6.2831853071796004 $142 $231 forward 7 unknown #
loop $-1 $-1 $149 $89 #
plane-surface $-1 -66.902676473281034 -19.925269818074518 11.306082966959622 -0.5877852598018023 0 0.80901698891910034 0.80901698891910034 0 0.5877852598018023 forward_v I I I I #
loop $-1 $-1 $232 $57 #
coedge $-1 $147 $147 $148 $233 reversed $90 $-1 #
coedge $-1 $148 $148 $147 $233 forward $92 $-1 #
coedge $-1 $149 $149 $93 $150 forward $144 $-1 #
edge $-1 $234 0 $234 6.2831853071796004 $149 $235 forward 7 unknown #
loop $-1 $-1 $156 $94 #
plane-surface $-1 -66.902676473281034 -19.925269818074518 11.306082966959622 -0.5877852598018023 0 0.80901698891910034 0.80901698891910034 0 0.5877852598018023 forward_v I I I I #
loop $-1 $-1 $236 $60 #
coedge $-1 $154 $154 $155 $237 reversed $95 $-1 #
coedge $-1 $155 $155 $154 $237 forward $97 $-1 #
coedge $-1 $156 $156 $98 $157 forward $151 $-1 #
edge $-1 $238 0 $238 6.2831853071796004 $156 $239 forward 7 unknown #
face $-1 $240 $241 $33 $-1 $242 reversed single #
loop $-1 $-1 $243 $99 #
plane-surface $-1 66.902678668824279 -23.88029192703884 193.87904326774512 0 1 0 0.70710678939079041 0 0.70710677298230451 forward_v I I I I #
coedge $-1 $244 $245 $246 $247 reversed $100 $-1 #
coedge $-1 $163 $102 $248 $249 reversed $64 $-1 #
coedge $-1 $102 $162 $244 $250 reversed $64 $-1 #
coedge $-1 $246 $251 $102 $165 forward $252 $-1 #
edge $-1 $253 -33.451337138868908 $254 -23.625802828832661 $164 $255 forward 7 unknown #
loop $-1 $-1 $171 $103 #
plane-surface $-1 -27.711994856520775 -19.767491017132478 99.264371937943309 0.70710678939079041 0 0.70710677298230451 0.70710677298230451 0 -0.70710678939079041 forward_v I I I I #
loop $-1 $-1 $256 $66 #
coedge $-1 $169 $169 $170 $257 reversed $104 $-1 #
coedge $-1 $170 $170 $169 $257 forward $106 $-1 #
coedge $-1 $171 $171 $107 $172 forward $166 $-1 #
edge $-1 $258 0 $258 6.2831853071796004 $171 $259 forward 7 unknown #
loop $-1 $-1 $178 $108 #
plane-surface $-1 -27.711994856520775 -19.767491017132478 99.264371937943309 0.70710678939079041 0 0.70710677298230451 0.70710677298230451 0 -0.70710678939079041 forward_v I I I I #
loop $-1 $-1 $260 $69 #
coedge $-1 $176 $176 $177 $261 reversed $109 $-1 #
coedge $-1 $177 $177 $176 $261 forward $111 $-1 #
coedge $-1 $178 $178 $112 $179 forward $173 $-1 #
edge $-1 $262 0 $262 6.2831853071796004 $178 $263 forward 7 unknown #
face $-1 $264 $265 $27 $-1 $266 reversed single #
loop $-1 $-1 $267 $113 #
plane-surface $-1 -66.902676473281048 0 0 1 0 0 0 0 -1 forward_v I I I I #
coedge $-1 $268 $191 $269 $270 forward $114 $-1 #
coedge $-1 $271 $116 $268 $272 forward $73 $-1 #
coedge $-1 $116 $271 $273 $274 forward $73 $-1 #
coedge $-1 $194 $193 $116 $187 reversed $195 $-1 #
edge $-1 $275 -41.978790499302903 $276 41.978790499302903 $186 $277 forward 7 unknown #
coedge $-1 $118 $117 $278 $279 forward $46 $-1 #
coedge $-1 $280 $281 $117 $190 reversed $265 $-1 #
edge $-1 $197 -66.902676473281048 $282 66.902676473281048 $189 $283 forward 7 unknown #
coedge $-1 $183 $284 $118 $192 reversed $114 $-1 #
edge $-1 $285 -66.902676473281048 $196 66.902676473281048 $191 $286 forward 7 unknown #
coedge $-1 $186 $119 $284 $287 forward $195 $-1 #
coedge $-1 $119 $186 $280 $288 reversed $195 $-1 #
loop $-1 $-1 $193 $264 #
vertex $-1 $120 $289 #
vertex $-1 $120 $290 #
straight-curve $-1 66.902676473281048 0 14.475232950637034 0 1 0 I I #
face $-1 $291 $292 $28 $-1 $293 reversed single #
loop $-1 $-1 $294 $121 #
plane-surface $-1 0 -51.028039785434935 1.8461744745131661 0 0 1 1 0 0 forward_v I I I I #
coedge $-1 $127 $295 $296 $297 forward $122 $-1 #
coedge $-1 $298 $124 $299 $300 reversed $77 $-1 #
coedge $-1 $124 $298 $209 $301 reversed $77 $-1 #
edge $-1 $210 -7.779487068281469 $302 -1.8461744745131661 $124 $303 forward 7 unknown #
coedge $-1 $126 $125 $304 $305 forward $49 $-1 #
coedge $-1 $296 $306 $125 $208 forward $307 $-1 #
edge $-1 $308 1.8461744745131661 $211 7.779487068281469 $207 $309 forward 7 unknown #
coedge $-1 $295 $127 $204 $301 forward $122 $-1 #
vertex $-1 $205 $310 #
vertex $-1 $297 $311 #
straight-curve $-1 0 -41.978790499302903 7.779487068281469 1 0 0 I I #
face $-1 $-1 $312 $29 $-1 $313 reversed single #
loop $-1 $-1 $135 $129 #
plane-surface $-1 0 0 14.475232950637034 0 0 1 1 0 0 forward_v I I I I #
coedge $-1 $314 $315 $316 $317 reversed $130 $-1 #
coedge $-1 $318 $132 $134 $223 forward $81 $-1 #
coedge $-1 $132 $318 $314 $319 forward $81 $-1 #
coedge $-1 $316 $135 $132 $220 forward $214 $-1 #
edge $-1 $226 -13.917657018001581 $320 -6.0076128000729359 $219 $321 forward 7 unknown #
coedge $-1 $322 $323 $133 $222 forward $312 $-1 #
edge $-1 $324 -48.472360387562773 $225 -45.303210403885345 $221 $325 forward 7 unknown #
edge $-1 $226 -5.3916799219259621 $324 1.7761521089745031e-014 $134 $326 forward 7 unknown #
coedge $-1 $135 $316 $322 $327 forward $214 $-1 #
vertex $-1 $222 $328 #
vertex $-1 $136 $329 #
straight-curve $-1 -72.775745308923945 -23.88029192703884 14.475232950637036 1 0 0 I I #
coedge $-1 $228 $228 $-1 $330 reversed $139 $-1 #
edge $-1 $331 0 $331 6.2831853071796004 $140 $332 forward 7 unknown #
vertex $-1 $143 $333 #
ellipse-curve $-1 -64.721696145454985 -22.298283083453111 12.890657958798322 -0.5877852598018023 0 0.80901698891910034 0.20225424722977509 0 0.14694631495045057 1 I I #
coedge $-1 $232 $232 $-1 $334 reversed $146 $-1 #
edge $-1 $335 0 $335 6.2831853071796004 $147 $336 forward 7 unknown #
vertex $-1 $150 $337 #
ellipse-curve $-1 -64.721696145454985 -19.925269818074518 12.890657958798322 -0.5877852598018023 0 0.80901698891910034 0.20225424722977509 0 0.14694631495045057 1 I I #
coedge $-1 $236 $236 $-1 $338 reversed $153 $-1 #
edge $-1 $339 0 $339 6.2831853071796004 $154 $340 forward 7 unknown #
vertex $-1 $157 $341 #
ellipse-curve $-1 -64.721696145454985 -17.552256552695926 12.890657958798322 -0.5877852598018023 0 0.80901698891910034 0.20225424722977509 0 0.14694631495045057 1 I I #
face $-1 $-1 $252 $33 $-1 $342 forward single #
loop $-1 $-1 $343 $158 #
plane-surface $-1 66.902676473281048 0 0 -1 0 0 0 0 1 forward_v I I I I #
coedge $-1 $344 $345 $346 $347 reversed $159 $-1 #
coedge $-1 $348 $161 $163 $250 forward $100 $-1 #
coedge $-1 $161 $348 $344 $349 forward $100 $-1 #
coedge $-1 $346 $164 $161 $247 forward $252 $-1 #
edge $-1 $254 5.7709445986598773 $350 13.996546418472601 $246 $351 forward 7 unknown #
coedge $-1 $352 $353 $162 $249 forward $241 $-1 #
edge $-1 $354 -92.289823221274332 $253 -82.464288683235523 $248 $355 forward 7 unknown #
edge $-1 $254 119.90994890652455 $354 133.80535294656215 $163 $356 forward 7 unknown #
coedge $-1 $164 $346 $352 $357 forward $252 $-1 #
loop $-1 $-1 $346 $240 #
vertex $-1 $249 $358 #
vertex $-1 $165 $359 #
straight-curve $-1 33.45133933441214 -15.654690107226116 14.475232950637036 -1 0 0 I I #
coedge $-1 $256 $256 $-1 $360 reversed $168 $-1 #
edge $-1 $361 0 $361 6.2831853071796004 $169 $362 forward 7 unknown #
vertex $-1 $172 $363 #
ellipse-curve $-1 61.989909318262924 -21.530119978520919 9.5624656816176223 0.70710678939079041 0 0.70710677298230451 0.70710677298230451 0 -0.70710678939079041 1 I I #
coedge $-1 $260 $260 $-1 $364 reversed $175 $-1 #
edge $-1 $365 0 $365 6.2831853071796004 $176 $366 forward 7 unknown #
vertex $-1 $179 $367 #
ellipse-curve $-1 61.989909318262924 -18.004862055744034 9.5624656816176223 0.70710678939079041 0 0.70710677298230451 0.70710677298230451 0 -0.70710678939079041 1 I I #
face $-1 $-1 $195 $27 $-1 $368 reversed single #
loop $-1 $-1 $280 $180 #
plane-surface $-1 0 41.978790499302903 0 0 -1 0 0 0 -1 forward_v I I I I #
coedge $-1 $369 $278 $281 $370 forward $181 $-1 #
coedge $-1 $284 $183 $184 $272 reversed $114 $-1 #
coedge $-1 $278 $369 $183 $270 reversed $181 $-1 #
edge $-1 $285 -14.475232950637034 $371 14.475232950637034 $269 $372 forward 7 unknown #
coedge $-1 $185 $184 $369 $373 forward $73 $-1 #
edge $-1 $276 -66.902676473281048 $371 66.902676473281048 $268 $374 forward 7 unknown #
coedge $-1 $281 $280 $185 $274 reversed $265 $-1 #
edge $-1 $375 -66.902676473281048 $275 66.902676473281048 $273 $376 forward 7 unknown #
vertex $-1 $187 $377 #
vertex $-1 $287 $378 #
straight-curve $-1 66.902676473281048 0 -14.475232950637034 0 -1 0 I I #
coedge $-1 $267 $269 $188 $279 reversed $181 $-1 #
edge $-1 $282 -41.978790499302903 $285 41.978790499302903 $278 $379 forward 7 unknown #
coedge $-1 $273 $189 $194 $288 forward $265 $-1 #
coedge $-1 $189 $273 $267 $370 reversed $265 $-1 #
vertex $-1 $190 $380 #
straight-curve $-1 0 41.978790499302903 14.475232950637034 -1 0 0 I I #
coedge $-1 $191 $268 $193 $287 reversed $114 $-1 #
vertex $-1 $279 $381 #
straight-curve $-1 0 -41.978790499302903 14.475232950637034 1 0 0 I I #
edge $-1 $196 -14.475232950637034 $276 14.475232950637034 $193 $382 forward 7 unknown #
edge $-1 $197 -14.475232950637034 $275 14.475232950637034 $194 $383 forward 7 unknown #
point $-1 66.902676473281048 -41.978790499302903 14.475232950637034 #
point $-1 66.902676473281048 41.978790499302903 14.475232950637034 #
face $-1 $-1 $307 $28 $-1 $384 reversed single #
loop $-1 $-1 $385 $199 #
plane-surface $-1 0 -60.077289071566966 4.8128307713973175 0 1 0 0 0 1 forward_v I I I I #
coedge $-1 $386 $304 $306 $387 forward $200 $-1 #
coedge $-1 $202 $209 $388 $389 forward $122 $-1 #
coedge $-1 $390 $207 $202 $297 reversed $307 $-1 #
edge $-1 $391 -9.0492492861320315 $211 9.0492492861320315 $296 $392 forward 7 unknown #
coedge $-1 $204 $203 $385 $393 reversed $77 $-1 #
coedge $-1 $304 $386 $203 $300 forward $200 $-1 #
edge $-1 $394 -9.0492492861320315 $302 9.0492492861320315 $203 $395 forward 7 unknown #
edge $-1 $210 -9.0492492861320315 $396 9.0492492861320315 $204 $397 forward 7 unknown #
vertex $-1 $205 $398 #
straight-curve $-1 -66.902676473281048 -41.978790499302903 0 0 0 -1 I I #
coedge $-1 $294 $299 $206 $305 reversed $200 $-1 #
edge $-1 $308 -66.902676473281048 $302 66.902676473281048 $304 $399 forward 7 unknown #
coedge $-1 $207 $390 $294 $387 reversed $307 $-1 #
loop $-1 $-1 $207 $291 #
vertex $-1 $208 $400 #
straight-curve $-1 66.902676473281048 -41.978790499302903 0 0 0 1 I I #
point $-1 -66.902676473281048 -41.978790499302903 7.779487068281469 #
point $-1 66.902676473281048 -41.978790499302903 7.779487068281469 #
loop $-1 $-1 $221 $213 #
plane-surface $-1 -66.902676473281048 0 0 1 0 0 0 0 -1 forward_v I I I I #
coedge $-1 $315 $216 $218 $319 reversed $130 $-1 #
coedge $-1 $216 $314 $401 $402 reversed $130 $-1 #
coedge $-1 $224 $219 $216 $317 forward $214 $-1 #
edge $-1 $320 -10.235029491295023 $403 -5.8730688356428971 $316 $404 forward 7 unknown #
coedge $-1 $218 $217 $323 $405 reversed $81 $-1 #
edge $-1 $406 -1.7761521089745031e-014 $320 5.3916799219259621 $314 $407 forward 7 unknown #
vertex $-1 $220 $408 #
straight-curve $-1 -62.540715817628922 -9.9626349090372592 14.475232950637034 0 1 0 I I #
coedge $-1 $401 $221 $224 $327 reversed $312 $-1 #
coedge $-1 $221 $401 $318 $405 forward $312 $-1 #
vertex $-1 $222 $409 #
straight-curve $-1 -66.902676473281048 -23.88029192703884 59.778443354522381 0 0 1 I I #
straight-curve $-1 -66.902676473281034 -23.88029192703884 11.306082966959622 -0.80901698891910034 0 -0.5877852598018023 I I #
edge $-1 $403 15.970247709110195 $225 23.88029192703884 $322 $410 forward 7 unknown #
point $-1 -66.902676473281048 -23.88029192703884 14.475232950637034 #
point $-1 -62.540715817628922 -23.88029192703884 14.475232950637034 #
edge $-1 $411 1 $411 0 $228 $-1 forward 7 unknown #
vertex $-1 $229 $412 #
ellipse-curve $-1 -64.133910885653179 -22.298283083453111 12.081640969879226 -0.5877852598018023 0 0.80901698891910034 0.20225424722977509 0 0.14694631495045057 1 I I #
point $-1 -64.51944189822521 -22.298283083453111 13.037604273748777 #
edge $-1 $413 1 $413 0 $232 $-1 forward 7 unknown #
vertex $-1 $233 $414 #
ellipse-curve $-1 -64.133910885653179 -19.925269818074518 12.081640969879226 -0.5877852598018023 0 0.80901698891910034 0.20225424722977509 0 0.14694631495045057 1 I I #
point $-1 -64.51944189822521 -19.925269818074518 13.037604273748777 #
edge $-1 $415 1 $415 0 $236 $-1 forward 7 unknown #
vertex $-1 $237 $416 #
ellipse-curve $-1 -64.133910885653179 -17.552256552695926 12.081640969879226 -0.5877852598018023 0 0.80901698891910034 0.20225424722977509 0 0.14694631495045057 1 I I #
point $-1 -64.51944189822521 -17.552256552695926 13.037604273748777 #
plane-surface $-1 0 0 14.475232950637034 0 0 1 1 0 0 forward_v I I I I #
coedge $-1 $353 $352 $345 $417 forward $241 $-1 #
coedge $-1 $345 $243 $245 $349 reversed $159 $-1 #
coedge $-1 $243 $344 $343 $417 reversed $159 $-1 #
coedge $-1 $251 $246 $243 $347 forward $252 $-1 #
edge $-1 $350 23.625802828832661 $418 33.451337138868908 $346 $419 forward 7 unknown #
coedge $-1 $245 $244 $353 $420 reversed $100 $-1 #
edge $-1 $421 -133.80535294656215 $350 -119.90994890652455 $344 $422 forward 7 unknown #
vertex $-1 $247 $423 #
straight-curve $-1 57.077142163244808 -9.8837455085662391 14.475232950637029 0 -1 0 I I #
coedge $-1 $343 $248 $251 $357 reversed $241 $-1 #
coedge $-1 $248 $343 $348 $420 forward $241 $-1 #
vertex $-1 $249 $424 #
straight-curve $-1 66.902676473281048 -15.654690107226116 96.939521633872559 0 0 1 I I #
straight-curve $-1 -27.711994856520775 -15.654690107226116 99.264371937943309 0.70710677298230451 0 -0.70710678939079041 I I #
edge $-1 $418 -23.88029192703884 $253 -15.654690107226116 $352 $425 forward 7 unknown #
point $-1 66.902676473281048 -15.654690107226116 14.475232950637034 #
point $-1 57.077142163244801 -15.654690107226116 14.475232950637036 #
edge $-1 $426 1 $426 0 $256 $-1 forward 7 unknown #
vertex $-1 $257 $427 #
ellipse-curve $-1 59.559889263752638 -21.530119978520919 7.132445683496198 0.70710678939079041 0 0.70710677298230451 0.70710677298230451 0 -0.70710678939079041 1 I I #
point $-1 62.697016091245253 -21.530119978520919 8.8553588922268514 #
edge $-1 $428 1 $428 0 $260 $-1 forward 7 unknown #
vertex $-1 $261 $429 #
ellipse-curve $-1 59.559889263752638 -18.004862055744034 7.132445683496198 0.70710678939079041 0 0.70710677298230451 0.70710677298230451 0 -0.70710678939079041 1 I I #
point $-1 62.697016091245253 -18.004862055744034 8.8553588922268514 #
plane-surface $-1 66.902676473281048 0 0 -1 0 0 0 0 1 forward_v I I I I #
coedge $-1 $269 $267 $271 $373 reversed $181 $-1 #
edge $-1 $282 -14.475232950637034 $375 14.475232950637034 $281 $430 forward 7 unknown #
vertex $-1 $373 $431 #
straight-curve $-1 -66.902676473281048 -41.978790499302903 0 0 0 -1 I I #
edge $-1 $371 -41.978790499302903 $375 41.978790499302903 $369 $432 forward 7 unknown #
straight-curve $-1 0 -41.978790499302903 -14.475232950637034 -1 0 0 I I #
vertex $-1 $274 $433 #
straight-curve $-1 0 41.978790499302903 -14.475232950637034 1 0 0 I I #
point $-1 66.902676473281048 41.978790499302903 -14.475232950637034 #
point $-1 66.902676473281048 -41.978790499302903 -14.475232950637034 #
straight-curve $-1 -66.902676473281048 0 14.475232950637034 0 -1 0 I I #
point $-1 -66.902676473281048 41.978790499302903 14.475232950637034 #
point $-1 -66.902676473281048 -41.978790499302903 14.475232950637034 #
straight-curve $-1 66.902676473281048 -41.978790499302903 0 0 0 -1 I I #
straight-curve $-1 66.902676473281048 41.978790499302903 0 0 0 -1 I I #
plane-surface $-1 66.902676473281048 0 0 -1 0 0 0 0 1 forward_v I I I I #
coedge $-1 $434 $388 $298 $393 forward $292 $-1 #
coedge $-1 $299 $294 $434 $435 forward $200 $-1 #
edge $-1 $308 -9.0492492861320315 $436 9.0492492861320315 $306 $437 forward 7 unknown #
coedge $-1 $385 $438 $295 $389 reversed $292 $-1 #
edge $-1 $396 -66.902676473281048 $391 66.902676473281048 $388 $439 forward 7 unknown #
coedge $-1 $306 $296 $438 $440 forward $307 $-1 #
vertex $-1 $297 $441 #
straight-curve $-1 66.902676473281048 -51.028039785434935 7.779487068281469 0 1 0 I I #
edge $-1 $396 -2.9666562968841514 $394 2.9666562968841514 $298 $442 forward 7 unknown #
vertex $-1 $300 $443 #
straight-curve $-1 -66.902676473281048 -51.028039785434935 1.8461744745131661 0 1 0 I I #
vertex $-1 $301 $444 #
straight-curve $-1 -66.902676473281048 -51.028039785434935 7.779487068281469 0 -1 0 I I #
point $-1 -66.902676473281048 -41.978790499302903 1.8461744745131661 #
straight-curve $-1 0 -41.978790499302903 1.8461744745131661 -1 0 0 I I #
point $-1 66.902676473281048 -41.978790499302903 1.8461744745131661 #
coedge $-1 $323 $322 $315 $402 forward $312 $-1 #
edge $-1 $403 45.303210403885345 $406 48.472360387562773 $401 $445 forward 7 unknown #
vertex $-1 $327 $446 #
straight-curve $-1 -72.775745308923945 -15.970247709110195 14.475232950637036 -1 0 0 I I #
edge $-1 $406 6.0076128000729359 $324 13.917657018001581 $323 $447 forward 7 unknown #
vertex $-1 $405 $448 #
straight-curve $-1 -66.902676473281034 -15.970247709110195 11.306082966959622 0.80901698891910034 0 0.5877852598018023 I I #
point $-1 -62.540715817628922 -15.970247709110195 14.475232950637034 #
point $-1 -66.902676473281048 -23.88029192703884 11.306082966959611 #
straight-curve $-1 -66.902676473281048 0 14.475232950637034 0 -1 0 I I #
vertex $-1 $330 $449 #
point $-1 -63.931656638423412 -22.298283083453111 12.228587284829677 #
vertex $-1 $334 $450 #
point $-1 -63.931656638423412 -19.925269818074518 12.228587284829677 #
vertex $-1 $338 $451 #
point $-1 -63.931656638423412 -17.552256552695926 12.228587284829677 #
edge $-1 $418 82.464288683235523 $421 92.289823221274332 $343 $452 forward 7 unknown #
vertex $-1 $357 $453 #
straight-curve $-1 33.45133933441214 -23.88029192703884 14.475232950637036 1 0 0 I I #
edge $-1 $421 -13.996546418472601 $354 -5.7709445986598773 $353 $454 forward 7 unknown #
vertex $-1 $420 $455 #
straight-curve $-1 -27.711994856520775 -23.88029192703884 99.264371937943309 -0.70710677298230451 0 0.70710678939079041 I I #
point $-1 57.077142163244801 -23.88029192703884 14.475232950637036 #
point $-1 66.902676473281048 -15.654690107226116 4.6496984125982266 #
straight-curve $-1 66.902676473281048 0 14.475232950637034 0 1 0 I I #
vertex $-1 $360 $456 #
point $-1 60.266996036734938 -21.530119978520919 6.4253388941054075 #
vertex $-1 $364 $457 #
point $-1 60.266996036734938 -18.004862055744034 6.4253388941054075 #
straight-curve $-1 -66.902676473281048 41.978790499302903 0 0 0 -1 I I #
point $-1 -66.902676473281048 -41.978790499302903 -14.475232950637034 #
straight-curve $-1 -66.902676473281048 0 -14.475232950637034 0 1 0 I I #
point $-1 -66.902676473281048 41.978790499302903 -14.475232950637034 #
coedge $-1 $438 $385 $386 $435 reversed $292 $-1 #
edge $-1 $436 -66.902676473281048 $394 66.902676473281048 $434 $458 forward 7 unknown #
vertex $-1 $440 $459 #
straight-curve $-1 66.902676473281048 -51.028039785434935 1.8461744745131661 0 -1 0 I I #
coedge $-1 $388 $434 $390 $440 reversed $292 $-1 #
straight-curve $-1 0 -60.077289071566966 7.779487068281469 1 0 0 I I #
edge $-1 $391 -2.9666562968841514 $436 2.9666562968841514 $390 $460 forward 7 unknown #
point $-1 66.902676473281048 -60.077289071566966 7.779487068281469 #
straight-curve $-1 -66.902676473281048 -60.077289071566966 4.8128307713973175 0 0 -1 I I #
point $-1 -66.902676473281048 -60.077289071566966 1.8461744745131661 #
point $-1 -66.902676473281048 -60.077289071566966 7.779487068281469 #
straight-curve $-1 -66.902676473281048 -15.970247709110195 59.778443354522381 0 0 -1 I I #
point $-1 -66.902676473281048 -15.970247709110195 14.475232950637034 #
straight-curve $-1 -66.902676473281048 -9.9626349090372592 11.306082966959609 0 -1 0 I I #
point $-1 -66.902676473281048 -15.970247709110195 11.306082966959611 #
point $-1 -63.986964570702732 -22.298283083453111 11.879386722649452 #
point $-1 -63.986964570702732 -19.925269818074518 11.879386722649452 #
point $-1 -63.986964570702732 -17.552256552695926 11.879386722649452 #
straight-curve $-1 66.902676473281048 -23.88029192703884 96.939521633872559 0 0 -1 I I #
point $-1 66.902676473281048 -23.88029192703884 14.475232950637034 #
straight-curve $-1 66.902676473281062 -9.8837455085662391 4.6496984125982337 0 1 0 I I #
point $-1 66.902676473281048 -23.88029192703884 4.6496984125982266 #
point $-1 58.852782474361845 -21.530119978520919 6.4253389105138927 #
point $-1 58.852782474361845 -18.004862055744034 6.4253389105138927 #
straight-curve $-1 0 -60.077289071566966 1.8461744745131661 -1 0 0 I I #
point $-1 66.902676473281048 -60.077289071566966 1.8461744745131661 #
straight-curve $-1 66.902676473281048 -60.077289071566966 4.8128307713973175 0 0 -1 I I #
End-of-ACIS-data 