500 0 9 0           
7 Unknown 11 ACIS 5.0 NT 24 Fri Mar 26 19:08:27 1999 
-1 9.9999999999999995e-007 1e-010 
body $-1 $9 $-1 $10 #
body $-1 $11 $-1 $12 #
body $-1 $13 $-1 $14 #
body $-1 $15 $-1 $16 #
body $-1 $17 $-1 $18 #
body $-1 $19 $-1 $20 #
body $-1 $21 $-1 $22 #
body $-1 $23 $-1 $24 #
body $-1 $25 $-1 $26 #
lump $-1 $-1 $27 $0 #
transform $-1 1 0 0 0 1 0 0 0 1 40.780053102206487 20.292454110439984 4.8683434860554753 1 rotate no_reflect no_shear #
lump $-1 $-1 $28 $1 #
transform $-1 1 0 0 0 1 0 0 0 1 40.780053102206487 20.292454110439984 4.8683434860554753 1 rotate no_reflect no_shear #
lump $-1 $-1 $29 $2 #
transform $-1 1 0 0 0 1 0 0 0 1 40.780053102206487 20.292454110439984 4.8683434860554753 1 rotate no_reflect no_shear #
lump $-1 $-1 $30 $3 #
transform $-1 1 0 0 0 1 0 0 0 1 40.780053102206487 20.292454110439984 4.8683434860554753 1 rotate no_reflect no_shear #
lump $-1 $-1 $31 $4 #
transform $-1 1 0 0 0 1 0 0 0 1 40.780053102206487 20.292454110439984 4.8683434860554753 1 rotate no_reflect no_shear #
lump $-1 $-1 $32 $5 #
transform $-1 1 0 0 0 1 0 0 0 1 40.780053102206487 20.292454110439984 4.8683434860554753 1 rotate no_reflect no_shear #
lump $-1 $-1 $33 $6 #
transform $-1 1 0 0 0 1 0 0 0 1 40.780053102206487 20.292454110439984 4.8683434860554753 1 rotate no_reflect no_shear #
lump $-1 $-1 $34 $7 #
transform $-1 1 0 0 0 1 0 0 0 1 40.780053102206487 20.292454110439984 4.8683434860554753 1 rotate no_reflect no_shear #
lump $-1 $-1 $35 $8 #
transform $-1 1 0 0 0 1 0 0 0 1 40.780053102206487 20.292454110439984 4.8683434860554753 1 rotate no_reflect no_shear #
shell $-1 $-1 $-1 $36 $-1 $9 #
shell $-1 $-1 $-1 $37 $-1 $11 #
shell $-1 $-1 $-1 $38 $-1 $13 #
shell $-1 $-1 $-1 $39 $-1 $15 #
shell $-1 $-1 $-1 $40 $-1 $17 #
shell $-1 $-1 $-1 $41 $-1 $19 #
shell $-1 $-1 $-1 $42 $-1 $21 #
shell $-1 $-1 $-1 $43 $-1 $23 #
shell $-1 $-1 $-1 $44 $-1 $25 #
face $-1 $45 $46 $27 $-1 $47 forward single #
face $-1 $48 $49 $28 $-1 $50 forward single #
face $-1 $51 $52 $29 $-1 $53 reversed single #
face $-1 $54 $55 $30 $-1 $56 forward single #
face $-1 $57 $58 $31 $-1 $59 forward single #
face $-1 $60 $61 $32 $-1 $62 reversed single #
face $-1 $63 $64 $33 $-1 $65 forward single #
face $-1 $66 $67 $34 $-1 $68 forward single #
face $-1 $69 $70 $35 $-1 $71 forward single #
face $-1 $72 $73 $27 $-1 $74 reversed single #
loop $-1 $-1 $75 $36 #
plane-surface $-1 0 0 4.8683434860554753 0 0 1 1 0 0 forward_v I I I I #
face $-1 $76 $77 $28 $-1 $78 reversed single #
loop $-1 $-1 $79 $37 #
plane-surface $-1 0 -17.37631977950825 -1.3683434860554753 0 0 1 1 0 0 forward_v I I I I #
face $-1 $80 $81 $29 $-1 $82 reversed single #
loop $-1 $-1 $83 $38 #
plane-surface $-1 -94.288297833738852 -14.460185448576517 61.893285291017413 0 1 0 -0.6560590369687036 0 0.75470957328743171 forward_v I I I I #
face $-1 $84 $85 $30 $-1 $86 forward single #
loop $-1 $87 $88 $39 #
cone-surface $-1 -37.757136578828437 -12.444851184923047 2.1231367209552365 0.6560590369687036 0 -0.75470957328743171 0.37735478664371586 0 0.3280295184843518 1 I I 0 1 0.5 forward I I I I #
face $-1 $89 $90 $31 $-1 $91 forward single #
loop $-1 $92 $93 $40 #
cone-surface $-1 -37.757136578828437 -9.4218497894428435 2.1231367209552365 0.6560590369687036 0 -0.75470957328743171 0.37735478664371586 0 0.3280295184843518 1 I I 0 1 0.5 forward I I I I #
face $-1 $94 $95 $32 $-1 $96 reversed single #
loop $-1 $-1 $97 $41 #
plane-surface $-1 16.79881100891469 3.2471752589471254 113.81079054063832 0 -1 0 -0.54463904215088732 0 -0.83867056331134215 forward_v I I I I #
face $-1 $98 $99 $33 $-1 $100 forward single #
loop $-1 $101 $102 $42 #
cone-surface $-1 37.520063550116923 -4.7111601517074497 2.5087925641492066 -0.54463904215088732 0 -0.83867056331134215 0.41933528165567108 0 -0.27231952107544366 1 I I 0 1 0.5 forward I I I I #
face $-1 $103 $104 $34 $-1 $105 forward single #
loop $-1 $106 $107 $43 #
cone-surface $-1 37.520063550116923 -1.726784372711986 2.5087925641492066 -0.54463904215088732 0 -0.83867056331134215 0.41933528165567108 0 -0.27231952107544366 1 I I 0 1 0.5 forward I I I I #
face $-1 $108 $109 $35 $-1 $110 forward single #
loop $-1 $111 $112 $44 #
cone-surface $-1 37.520063550116923 1.2575914062834777 2.5087925641492066 -0.54463904215088732 0 -0.83867056331134215 0.41933528165567108 0 -0.27231952107544366 1 I I 0 1 0.5 forward I I I I #
face $-1 $113 $114 $27 $-1 $115 reversed single #
loop $-1 $-1 $116 $45 #
plane-surface $-1 0 0 -4.8683434860554753 0 0 1 1 0 0 forward_v I I I I #
coedge $-1 $117 $118 $119 $120 forward $46 $-1 #
face $-1 $121 $122 $28 $-1 $123 reversed single #
loop $-1 $-1 $124 $48 #
plane-surface $-1 0 -17.37631977950825 -4.3683434860554753 0 0 1 1 0 0 forward_v I I I I #
coedge $-1 $125 $126 $127 $128 reversed $49 $-1 #
face $-1 $129 $130 $29 $-1 $131 reversed single #
loop $-1 $-1 $132 $51 #
plane-surface $-1 -40.780053102206487 -10.933350487182945 0.33909234020728718 -0.6560590369687036 0 0.75470957328743171 0.75470957328743171 0 0.6560590369687036 forward_v I I I I #
coedge $-1 $133 $134 $135 $136 reversed $52 $-1 #
face $-1 $-1 $137 $30 $-1 $138 forward single #
loop $-1 $139 $140 $54 #
cone-surface $-1 -37.175358953864311 -12.444851184923047 1.4538781354572388 0.6560590369687036 0 -0.75470957328743171 0.18867739332185793 0 0.1640147592421759 1 I I -0.70710678118654746 0.70710678118654746 0.25 forward I I I I #
loop $-1 $-1 $141 $39 #
coedge $-1 $88 $88 $142 $143 reversed $55 $-1 #
face $-1 $-1 $144 $31 $-1 $145 forward single #
loop $-1 $146 $147 $57 #
cone-surface $-1 -37.175358953864311 -9.4218497894428435 1.4538781354572388 0.6560590369687036 0 -0.75470957328743171 0.18867739332185793 0 0.1640147592421759 1 I I -0.70710678118654746 0.70710678118654746 0.25 forward I I I I #
loop $-1 $-1 $148 $40 #
coedge $-1 $93 $93 $149 $150 reversed $58 $-1 #
face $-1 $151 $152 $32 $-1 $153 reversed single #
loop $-1 $-1 $154 $60 #
plane-surface $-1 -27.622007111981432 -1.7267843727119825 45.408730326450396 0.54463904215088732 0 0.83867056331134215 0.83867056331134215 0 -0.54463904215088732 forward_v I I I I #
coedge $-1 $155 $156 $157 $158 reversed $61 $-1 #
face $-1 $-1 $159 $33 $-1 $160 forward single #
loop $-1 $161 $162 $63 #
cone-surface $-1 37.111584268503755 -4.7111601517074497 1.8797896416656998 -0.54463904215088732 0 -0.83867056331134215 0.20966764082783554 0 -0.13615976053772183 1 I I -0.70710678118654746 0.70710678118654746 0.25 forward I I I I #
loop $-1 $-1 $163 $42 #
coedge $-1 $102 $102 $164 $165 reversed $64 $-1 #
face $-1 $-1 $166 $34 $-1 $167 forward single #
loop $-1 $168 $169 $66 #
cone-surface $-1 37.111584268503755 -1.726784372711986 1.8797896416656998 -0.54463904215088732 0 -0.83867056331134215 0.20966764082783554 0 -0.13615976053772183 1 I I -0.70710678118654746 0.70710678118654746 0.25 forward I I I I #
loop $-1 $-1 $170 $43 #
coedge $-1 $107 $107 $171 $172 reversed $67 $-1 #
face $-1 $-1 $173 $35 $-1 $174 forward single #
loop $-1 $175 $176 $69 #
cone-surface $-1 37.111584268503755 1.2575914062834777 1.8797896416656998 -0.54463904215088732 0 -0.83867056331134215 0.20966764082783554 0 -0.13615976053772183 1 I I -0.70710678118654746 0.70710678118654746 0.25 forward I I I I #
loop $-1 $-1 $177 $44 #
coedge $-1 $112 $112 $178 $179 reversed $70 $-1 #
face $-1 $180 $181 $27 $-1 $182 reversed single #
loop $-1 $-1 $183 $72 #
plane-surface $-1 0 -20.292454110439984 0 0 1 0 0 0 1 forward_v I I I I #
coedge $-1 $184 $185 $186 $187 forward $73 $-1 #
coedge $-1 $188 $75 $189 $190 forward $46 $-1 #
coedge $-1 $75 $188 $191 $192 forward $46 $-1 #
coedge $-1 $193 $194 $75 $120 reversed $195 $-1 #
edge $-1 $196 -20.292454110439984 $197 20.292454110439984 $119 $198 forward 7 unknown #
face $-1 $199 $200 $28 $-1 $201 reversed single #
loop $-1 $-1 $202 $76 #
plane-surface $-1 0 -14.460185448576517 -2.8683434860554753 0 -1 0 0 0 -1 forward_v I I I I #
coedge $-1 $203 $204 $205 $206 reversed $77 $-1 #
coedge $-1 $207 $79 $208 $209 forward $49 $-1 #
coedge $-1 $79 $207 $210 $211 reversed $49 $-1 #
coedge $-1 $212 $213 $79 $128 forward $214 $-1 #
edge $-1 $215 5.7720255588223921 $216 11.604294220685858 $127 $217 forward 7 unknown #
face $-1 $218 $219 $29 $-1 $220 reversed single #
loop $-1 $-1 $221 $80 #
plane-surface $-1 -94.288297833738852 -7.4065155257893736 61.893285291017413 0 -1 0 0.6560590369687036 0 -0.75470957328743171 forward_v I I I I #
coedge $-1 $222 $223 $224 $225 reversed $81 $-1 #
coedge $-1 $134 $83 $226 $227 reversed $52 $-1 #
coedge $-1 $83 $133 $222 $228 reversed $52 $-1 #
coedge $-1 $224 $229 $83 $136 forward $230 $-1 #
edge $-1 $231 6.3640958146629387 $232 11.574403129975117 $135 $233 forward 7 unknown #
loop $-1 $-1 $142 $84 #
plane-surface $-1 -40.780053102206487 -10.933350487182945 0.33909234020728718 -0.6560590369687036 0 0.75470957328743171 0.75470957328743171 0 0.6560590369687036 forward_v I I I I #
loop $-1 $-1 $234 $54 #
coedge $-1 $140 $140 $141 $235 reversed $85 $-1 #
coedge $-1 $141 $141 $140 $235 forward $87 $-1 #
coedge $-1 $142 $142 $88 $143 forward $137 $-1 #
edge $-1 $236 0 $236 6.2831853071796004 $142 $237 forward 7 unknown #
loop $-1 $-1 $149 $89 #
plane-surface $-1 -40.780053102206487 -10.933350487182945 0.33909234020728718 -0.6560590369687036 0 0.75470957328743171 0.75470957328743171 0 0.6560590369687036 forward_v I I I I #
loop $-1 $-1 $238 $57 #
coedge $-1 $147 $147 $148 $239 reversed $90 $-1 #
coedge $-1 $148 $148 $147 $239 forward $92 $-1 #
coedge $-1 $149 $149 $93 $150 forward $144 $-1 #
edge $-1 $240 0 $240 6.2831853071796004 $149 $241 forward 7 unknown #
face $-1 $242 $243 $32 $-1 $244 forward single #
loop $-1 $-1 $245 $94 #
plane-surface $-1 16.79881100891469 -6.7007440043710904 113.81079054063832 0 1 0 0.54463904215088732 0 0.83867056331134215 forward_v I I I I #
coedge $-1 $246 $247 $248 $249 reversed $95 $-1 #
coedge $-1 $156 $97 $250 $251 reversed $61 $-1 #
coedge $-1 $97 $155 $246 $252 reversed $61 $-1 #
coedge $-1 $248 $253 $97 $158 forward $243 $-1 #
edge $-1 $254 -32.380647597749146 $255 -26.40530753572089 $157 $256 forward 7 unknown #
loop $-1 $-1 $164 $98 #
plane-surface $-1 -27.622007111981432 -1.7267843727119825 45.408730326450396 0.54463904215088732 0 0.83867056331134215 0.83867056331134215 0 -0.54463904215088732 forward_v I I I I #
loop $-1 $-1 $257 $63 #
coedge $-1 $162 $162 $163 $258 reversed $99 $-1 #
coedge $-1 $163 $163 $162 $258 forward $101 $-1 #
coedge $-1 $164 $164 $102 $165 forward $159 $-1 #
edge $-1 $259 0 $259 6.2831853071796004 $164 $260 forward 7 unknown #
loop $-1 $-1 $171 $103 #
plane-surface $-1 -27.622007111981432 -1.7267843727119825 45.408730326450396 0.54463904215088732 0 0.83867056331134215 0.83867056331134215 0 -0.54463904215088732 forward_v I I I I #
loop $-1 $-1 $261 $66 #
coedge $-1 $169 $169 $170 $262 reversed $104 $-1 #
coedge $-1 $170 $170 $169 $262 forward $106 $-1 #
coedge $-1 $171 $171 $107 $172 forward $166 $-1 #
edge $-1 $263 0 $263 6.2831853071796004 $171 $264 forward 7 unknown #
loop $-1 $-1 $178 $108 #
plane-surface $-1 -27.622007111981432 -1.7267843727119825 45.408730326450396 0.54463904215088732 0 0.83867056331134215 0.83867056331134215 0 -0.54463904215088732 forward_v I I I I #
loop $-1 $-1 $265 $69 #
coedge $-1 $176 $176 $177 $266 reversed $109 $-1 #
coedge $-1 $177 $177 $176 $266 forward $111 $-1 #
coedge $-1 $178 $178 $112 $179 forward $173 $-1 #
edge $-1 $267 0 $267 6.2831853071796004 $178 $268 forward 7 unknown #
face $-1 $269 $270 $27 $-1 $271 reversed single #
loop $-1 $-1 $272 $113 #
plane-surface $-1 -40.780053102206487 0 0 1 0 0 0 0 -1 forward_v I I I I #
coedge $-1 $273 $191 $274 $275 forward $114 $-1 #
coedge $-1 $276 $116 $273 $277 forward $73 $-1 #
coedge $-1 $116 $276 $278 $279 forward $73 $-1 #
coedge $-1 $194 $193 $116 $187 reversed $195 $-1 #
edge $-1 $280 -20.292454110439984 $281 20.292454110439984 $186 $282 forward 7 unknown #
coedge $-1 $118 $117 $283 $284 forward $46 $-1 #
coedge $-1 $285 $286 $117 $190 reversed $270 $-1 #
edge $-1 $197 -40.780053102206487 $287 40.780053102206487 $189 $288 forward 7 unknown #
coedge $-1 $183 $289 $118 $192 reversed $114 $-1 #
edge $-1 $290 -40.780053102206487 $196 40.780053102206487 $191 $291 forward 7 unknown #
coedge $-1 $186 $119 $289 $292 forward $195 $-1 #
coedge $-1 $119 $186 $285 $293 reversed $195 $-1 #
loop $-1 $-1 $193 $269 #
vertex $-1 $120 $294 #
vertex $-1 $120 $295 #
straight-curve $-1 40.780053102206487 0 4.8683434860554753 0 1 0 I I #
face $-1 $296 $297 $28 $-1 $298 reversed single #
loop $-1 $-1 $299 $121 #
plane-surface $-1 -40.780053102206487 0 0 1 0 0 0 0 -1 forward_v I I I I #
coedge $-1 $300 $208 $213 $301 reversed $122 $-1 #
coedge $-1 $302 $124 $303 $304 reversed $77 $-1 #
coedge $-1 $124 $302 $300 $305 forward $77 $-1 #
coedge $-1 $213 $212 $124 $206 forward $214 $-1 #
edge $-1 $306 -11.604294220685858 $307 -5.7720255588223921 $205 $308 forward 7 unknown #
coedge $-1 $126 $125 $299 $309 reversed $49 $-1 #
coedge $-1 $202 $310 $125 $209 reversed $122 $-1 #
edge $-1 $215 -40.780053102206487 $311 40.780053102206487 $208 $312 forward 7 unknown #
coedge $-1 $313 $314 $126 $211 forward $297 $-1 #
edge $-1 $216 -40.780053102206487 $315 40.780053102206487 $210 $316 forward 7 unknown #
coedge $-1 $205 $127 $314 $317 forward $214 $-1 #
coedge $-1 $127 $205 $202 $301 forward $214 $-1 #
loop $-1 $-1 $127 $296 #
vertex $-1 $128 $318 #
vertex $-1 $317 $319 #
straight-curve $-1 40.780053102206487 -8.6881598897541252 -1.3683434860554753 0 -1 0 I I #
face $-1 $-1 $230 $29 $-1 $320 forward single #
loop $-1 $-1 $321 $129 #
plane-surface $-1 -40.780053102206487 0 0 1 0 0 0 0 -1 forward_v I I I I #
coedge $-1 $322 $323 $324 $325 reversed $130 $-1 #
coedge $-1 $326 $132 $134 $228 forward $81 $-1 #
coedge $-1 $132 $326 $322 $327 forward $81 $-1 #
coedge $-1 $324 $135 $132 $225 forward $230 $-1 #
edge $-1 $232 -8.9935102049850446 $328 -1.9398402821979008 $224 $329 forward 7 unknown #
coedge $-1 $330 $331 $133 $227 forward $219 $-1 #
edge $-1 $332 -30.60755030530142 $231 -26.078299159453231 $226 $333 forward 7 unknown #
edge $-1 $232 -6.9037249555701976 $332 0 $134 $334 forward 7 unknown #
coedge $-1 $135 $324 $330 $335 forward $230 $-1 #
loop $-1 $-1 $324 $218 #
vertex $-1 $227 $336 #
vertex $-1 $136 $337 #
straight-curve $-1 -47.144148916869426 -14.460185448576517 4.8683434860554762 1 0 0 I I #
coedge $-1 $234 $234 $-1 $338 reversed $139 $-1 #
edge $-1 $339 0 $339 6.2831853071796004 $140 $340 forward 7 unknown #
vertex $-1 $143 $341 #
ellipse-curve $-1 -38.174899444550398 -12.444851184923047 2.6037179131313839 -0.6560590369687036 0 0.75470957328743171 0.37735478664371586 0 0.3280295184843518 1 I I #
coedge $-1 $238 $238 $-1 $342 reversed $146 $-1 #
edge $-1 $343 0 $343 6.2831853071796004 $147 $344 forward 7 unknown #
vertex $-1 $150 $345 #
ellipse-curve $-1 -38.174899444550398 -9.4218497894428435 2.6037179131313839 -0.6560590369687036 0 0.75470957328743171 0.37735478664371586 0 0.3280295184843518 1 I I #
face $-1 $-1 $346 $32 $-1 $347 reversed single #
loop $-1 $-1 $157 $151 #
plane-surface $-1 0 0 4.8683434860554753 0 0 1 1 0 0 forward_v I I I I #
coedge $-1 $348 $349 $350 $351 reversed $152 $-1 #
coedge $-1 $352 $154 $156 $252 forward $95 $-1 #
coedge $-1 $154 $352 $348 $353 forward $95 $-1 #
coedge $-1 $350 $157 $154 $249 forward $243 $-1 #
edge $-1 $255 -4.1105674453031167 $354 5.8373518180150992 $248 $355 forward 7 unknown #
coedge $-1 $356 $357 $155 $251 forward $346 $-1 #
edge $-1 $358 -55.91748306476488 $254 -52.037051784263689 $250 $359 forward 7 unknown #
edge $-1 $255 74.435330012870395 $358 81.560106204412961 $156 $360 forward 7 unknown #
coedge $-1 $157 $350 $356 $361 forward $243 $-1 #
vertex $-1 $251 $362 #
vertex $-1 $158 $363 #
straight-curve $-1 8.399405504457345 3.2471752589471254 4.8683434860554726 -1 0 0 I I #
coedge $-1 $257 $257 $-1 $364 reversed $161 $-1 #
edge $-1 $365 0 $365 6.2831853071796004 $162 $366 forward 7 unknown #
vertex $-1 $165 $367 #
ellipse-curve $-1 37.792383071192369 -4.7111601517074497 2.9281278458048776 0.54463904215088732 0 0.83867056331134215 0.41933528165567108 0 -0.27231952107544366 1 I I #
coedge $-1 $261 $261 $-1 $368 reversed $168 $-1 #
edge $-1 $369 0 $369 6.2831853071796004 $169 $370 forward 7 unknown #
vertex $-1 $172 $371 #
ellipse-curve $-1 37.792383071192369 -1.726784372711986 2.9281278458048776 0.54463904215088732 0 0.83867056331134215 0.41933528165567108 0 -0.27231952107544366 1 I I #
coedge $-1 $265 $265 $-1 $372 reversed $175 $-1 #
edge $-1 $373 0 $373 6.2831853071796004 $176 $374 forward 7 unknown #
vertex $-1 $179 $375 #
ellipse-curve $-1 37.792383071192369 1.2575914062834777 2.9281278458048776 0.54463904215088732 0 0.83867056331134215 0.41933528165567108 0 -0.27231952107544366 1 I I #
face $-1 $-1 $195 $27 $-1 $376 reversed single #
loop $-1 $-1 $285 $180 #
plane-surface $-1 0 20.292454110439984 0 0 -1 0 0 0 -1 forward_v I I I I #
coedge $-1 $377 $283 $286 $378 forward $181 $-1 #
coedge $-1 $289 $183 $184 $277 reversed $114 $-1 #
coedge $-1 $283 $377 $183 $275 reversed $181 $-1 #
edge $-1 $290 -4.8683434860554753 $379 4.8683434860554753 $274 $380 forward 7 unknown #
coedge $-1 $185 $184 $377 $381 forward $73 $-1 #
edge $-1 $281 -40.780053102206487 $379 40.780053102206487 $273 $382 forward 7 unknown #
coedge $-1 $286 $285 $185 $279 reversed $270 $-1 #
edge $-1 $383 -40.780053102206487 $280 40.780053102206487 $278 $384 forward 7 unknown #
vertex $-1 $187 $385 #
vertex $-1 $292 $386 #
straight-curve $-1 40.780053102206487 0 -4.8683434860554753 0 -1 0 I I #
coedge $-1 $272 $274 $188 $284 reversed $181 $-1 #
edge $-1 $287 -20.292454110439984 $290 20.292454110439984 $283 $387 forward 7 unknown #
coedge $-1 $278 $189 $194 $293 forward $270 $-1 #
coedge $-1 $189 $278 $272 $378 reversed $270 $-1 #
vertex $-1 $190 $388 #
straight-curve $-1 0 20.292454110439984 4.8683434860554753 -1 0 0 I I #
coedge $-1 $191 $273 $193 $292 reversed $114 $-1 #
vertex $-1 $284 $389 #
straight-curve $-1 0 -20.292454110439984 4.8683434860554753 1 0 0 I I #
edge $-1 $196 -4.8683434860554753 $281 4.8683434860554753 $193 $390 forward 7 unknown #
edge $-1 $197 -4.8683434860554753 $280 4.8683434860554753 $194 $391 forward 7 unknown #
point $-1 40.780053102206487 -20.292454110439984 4.8683434860554753 #
point $-1 40.780053102206487 20.292454110439984 4.8683434860554753 #
face $-1 $-1 $214 $28 $-1 $392 reversed single #
loop $-1 $-1 $210 $199 #
plane-surface $-1 0 -20.292454110439984 0 0 1 0 0 0 1 forward_v I I I I #
coedge $-1 $393 $394 $207 $309 forward $200 $-1 #
coedge $-1 $310 $202 $204 $305 reversed $122 $-1 #
edge $-1 $307 -2.9341717430277376 $215 0.065828256972262356 $213 $395 forward 7 unknown #
coedge $-1 $204 $203 $396 $397 reversed $77 $-1 #
coedge $-1 $314 $313 $203 $304 forward $297 $-1 #
edge $-1 $398 -40.780053102206487 $306 40.780053102206487 $303 $399 forward 7 unknown #
edge $-1 $400 -40.780053102206487 $307 40.780053102206487 $300 $401 forward 7 unknown #
vertex $-1 $304 $402 #
vertex $-1 $206 $403 #
straight-curve $-1 40.780053102206487 -8.6881598897541252 -4.3683434860554753 0 1 0 I I #
edge $-1 $315 -11.604294220685858 $311 -5.7720255588223921 $299 $404 forward 7 unknown #
coedge $-1 $208 $300 $393 $405 reversed $122 $-1 #
vertex $-1 $309 $406 #
straight-curve $-1 0 -14.460185448576517 -1.3683434860554753 -1 0 0 I I #
coedge $-1 $303 $210 $394 $407 forward $297 $-1 #
coedge $-1 $210 $303 $212 $317 reversed $297 $-1 #
vertex $-1 $407 $408 #
straight-curve $-1 0 -20.292454110439984 -1.3683434860554753 -1 0 0 I I #
edge $-1 $216 1.3683434860554753 $306 4.3683434860554753 $212 $409 forward 7 unknown #
point $-1 40.780053102206487 -14.460185448576517 -1.3683434860554753 #
point $-1 40.780053102206487 -20.292454110439984 -1.3683434860554753 #
plane-surface $-1 0 0 4.8683434860554753 0 0 1 1 0 0 forward_v I I I I #
coedge $-1 $331 $330 $323 $410 forward $219 $-1 #
coedge $-1 $323 $221 $223 $327 reversed $130 $-1 #
coedge $-1 $221 $322 $321 $410 reversed $130 $-1 #
coedge $-1 $229 $224 $221 $325 forward $230 $-1 #
edge $-1 $328 -11.574403129975117 $411 -6.3640958146629387 $324 $412 forward 7 unknown #
coedge $-1 $223 $222 $331 $413 reversed $81 $-1 #
edge $-1 $414 0 $328 6.9037249555701976 $322 $415 forward 7 unknown #
vertex $-1 $225 $416 #
straight-curve $-1 -35.569745786894309 -5.4666752435914727 4.8683434860554771 0 1 0 I I #
coedge $-1 $321 $226 $229 $335 reversed $219 $-1 #
coedge $-1 $226 $321 $326 $413 forward $219 $-1 #
vertex $-1 $227 $417 #
straight-curve $-1 -40.780053102206487 -14.460185448576517 30.946642645508707 0 0 1 I I #
straight-curve $-1 -40.780053102206487 -14.460185448576517 0.33909234020728718 -0.75470957328743171 0 -0.6560590369687036 I I #
edge $-1 $411 7.4065155257893736 $231 14.460185448576517 $330 $418 forward 7 unknown #
point $-1 -40.780053102206487 -14.460185448576517 4.8683434860554753 #
point $-1 -35.569745786894309 -14.460185448576517 4.8683434860554753 #
edge $-1 $419 1 $419 0 $234 $-1 forward 7 unknown #
vertex $-1 $235 $420 #
ellipse-curve $-1 -37.33937371310649 -12.444851184923047 1.6425555287790967 -0.6560590369687036 0 0.75470957328743171 0.37735478664371586 0 0.3280295184843518 1 I I #
point $-1 -37.797544657906677 -12.444851184923047 2.9317474316157286 #
edge $-1 $421 1 $421 0 $238 $-1 forward 7 unknown #
vertex $-1 $239 $422 #
ellipse-curve $-1 -37.33937371310649 -9.4218497894428435 1.6425555287790967 -0.6560590369687036 0 0.75470957328743171 0.37735478664371586 0 0.3280295184843518 1 I I #
point $-1 -37.797544657906677 -9.4218497894428435 2.9317474316157286 #
loop $-1 $-1 $250 $242 #
plane-surface $-1 40.780053102206487 0 0 -1 0 0 0 0 1 forward_v I I I I #
coedge $-1 $349 $245 $247 $353 reversed $152 $-1 #
coedge $-1 $245 $348 $423 $424 reversed $152 $-1 #
coedge $-1 $253 $248 $245 $351 forward $243 $-1 #
edge $-1 $354 26.40530753572089 $425 32.380647597749146 $350 $426 forward 7 unknown #
coedge $-1 $247 $246 $357 $427 reversed $95 $-1 #
edge $-1 $428 -81.560106204412961 $354 -74.435330012870395 $348 $429 forward 7 unknown #
vertex $-1 $249 $430 #
straight-curve $-1 34.804713040178228 -0.86339218635599124 4.8683434860554762 0 -1 0 I I #
coedge $-1 $423 $250 $253 $361 reversed $346 $-1 #
coedge $-1 $250 $423 $352 $427 forward $346 $-1 #
vertex $-1 $251 $431 #
straight-curve $-1 40.780053102206487 3.2471752589471254 56.905395270319161 0 0 1 I I #
straight-curve $-1 -27.622007111981432 3.2471752589471254 45.408730326450396 0.83867056331134215 0 -0.54463904215088732 I I #
edge $-1 $425 -6.7007440043710904 $254 3.2471752589471254 $356 $432 forward 7 unknown #
point $-1 40.780053102206487 3.2471752589471254 4.8683434860554753 #
point $-1 34.804713040178235 3.2471752589471254 4.8683434860554655 #
edge $-1 $433 1 $433 0 $257 $-1 forward 7 unknown #
vertex $-1 $258 $434 #
ellipse-curve $-1 37.247744029041478 -4.7111601517074497 2.0894572824935356 0.54463904215088732 0 0.83867056331134215 0.41933528165567108 0 -0.27231952107544366 1 I I #
point $-1 38.211718352848038 -4.7111601517074497 2.655808324729434 #
edge $-1 $435 1 $435 0 $261 $-1 forward 7 unknown #
vertex $-1 $262 $436 #
ellipse-curve $-1 37.247744029041478 -1.726784372711986 2.0894572824935356 0.54463904215088732 0 0.83867056331134215 0.41933528165567108 0 -0.27231952107544366 1 I I #
point $-1 38.211718352848038 -1.726784372711986 2.655808324729434 #
edge $-1 $437 1 $437 0 $265 $-1 forward 7 unknown #
vertex $-1 $266 $438 #
ellipse-curve $-1 37.247744029041478 1.2575914062834777 2.0894572824935356 0.54463904215088732 0 0.83867056331134215 0.41933528165567108 0 -0.27231952107544366 1 I I #
point $-1 38.211718352848038 1.2575914062834777 2.655808324729434 #
plane-surface $-1 40.780053102206487 0 0 -1 0 0 0 0 1 forward_v I I I I #
coedge $-1 $274 $272 $276 $381 reversed $181 $-1 #
edge $-1 $287 -4.8683434860554753 $383 4.8683434860554753 $286 $439 forward 7 unknown #
vertex $-1 $381 $440 #
straight-curve $-1 -40.780053102206487 -20.292454110439984 0 0 0 -1 I I #
edge $-1 $379 -20.292454110439984 $383 20.292454110439984 $377 $441 forward 7 unknown #
straight-curve $-1 0 -20.292454110439984 -4.8683434860554753 -1 0 0 I I #
vertex $-1 $279 $442 #
straight-curve $-1 0 20.292454110439984 -4.8683434860554753 1 0 0 I I #
point $-1 40.780053102206487 20.292454110439984 -4.8683434860554753 #
point $-1 40.780053102206487 -20.292454110439984 -4.8683434860554753 #
straight-curve $-1 -40.780053102206487 0 4.8683434860554753 0 -1 0 I I #
point $-1 -40.780053102206487 20.292454110439984 4.8683434860554753 #
point $-1 -40.780053102206487 -20.292454110439984 4.8683434860554753 #
straight-curve $-1 40.780053102206487 -20.292454110439984 0 0 0 -1 I I #
straight-curve $-1 40.780053102206487 20.292454110439984 0 0 0 -1 I I #
plane-surface $-1 40.780053102206487 0 0 -1 0 0 0 0 1 forward_v I I I I #
coedge $-1 $396 $299 $310 $405 forward $200 $-1 #
coedge $-1 $299 $396 $313 $407 reversed $200 $-1 #
straight-curve $-1 40.780053102206487 -14.460185448576517 -1.4341717430277376 0 0 1 I I #
coedge $-1 $394 $393 $302 $397 forward $200 $-1 #
edge $-1 $400 5.7720255588223921 $398 11.604294220685858 $396 $443 forward 7 unknown #
vertex $-1 $304 $444 #
straight-curve $-1 0 -20.292454110439984 -4.3683434860554753 1 0 0 I I #
vertex $-1 $397 $445 #
straight-curve $-1 0 -14.460185448576517 -4.3683434860554753 1 0 0 I I #
point $-1 40.780053102206487 -20.292454110439984 -4.3683434860554753 #
point $-1 40.780053102206487 -14.460185448576517 -4.3683434860554753 #
straight-curve $-1 -40.780053102206487 -8.6881598897541252 -1.3683434860554753 0 1 0 I I #
edge $-1 $311 -0.065828256972262356 $400 2.9341717430277376 $393 $446 forward 7 unknown #
point $-1 -40.780053102206487 -14.460185448576517 -1.3683434860554753 #
edge $-1 $315 1.3683434860554753 $398 4.3683434860554753 $394 $447 forward 7 unknown #
point $-1 -40.780053102206487 -20.292454110439984 -1.3683434860554753 #
straight-curve $-1 40.780053102206487 -20.292454110439984 0 0 0 -1 I I #
edge $-1 $411 26.078299159453231 $414 30.60755030530142 $321 $448 forward 7 unknown #
vertex $-1 $335 $449 #
straight-curve $-1 -47.144148916869426 -7.4065155257893736 4.8683434860554762 -1 0 0 I I #
edge $-1 $414 1.9398402821979008 $332 8.9935102049850446 $331 $450 forward 7 unknown #
vertex $-1 $413 $451 #
straight-curve $-1 -40.780053102206487 -7.4065155257893736 0.33909234020728718 0.75470957328743171 0 0.6560590369687036 I I #
point $-1 -35.569745786894309 -7.4065155257893736 4.8683434860554753 #
point $-1 -40.780053102206487 -14.460185448576517 0.33909234020728718 #
straight-curve $-1 -40.780053102206487 0 4.8683434860554753 0 -1 0 I I #
vertex $-1 $338 $452 #
point $-1 -36.962018926462768 -12.444851184923047 1.9705850472634485 #
vertex $-1 $342 $453 #
point $-1 -36.962018926462768 -9.4218497894428435 1.9705850472634485 #
coedge $-1 $357 $356 $349 $424 forward $346 $-1 #
edge $-1 $425 52.037051784263689 $428 55.91748306476488 $423 $454 forward 7 unknown #
vertex $-1 $361 $455 #
straight-curve $-1 8.399405504457345 -6.7007440043710904 4.8683434860554726 1 0 0 I I #
edge $-1 $428 -5.8373518180150992 $358 4.1105674453031167 $357 $456 forward 7 unknown #
vertex $-1 $427 $457 #
straight-curve $-1 -27.622007111981432 -6.7007440043710904 45.408730326450396 -0.83867056331134215 0 0.54463904215088732 I I #
point $-1 34.804713040178235 -6.7007440043710904 4.8683434860554655 #
point $-1 40.78005310220648 3.2471752589471254 0.98791220555428083 #
straight-curve $-1 40.780053102206487 0 4.8683434860554753 0 1 0 I I #
vertex $-1 $364 $458 #
point $-1 37.667079310697147 -4.7111601517074497 1.8171377614180917 #
vertex $-1 $368 $459 #
point $-1 37.667079310697147 -1.726784372711986 1.8171377614180917 #
vertex $-1 $372 $460 #
point $-1 37.667079310697147 1.2575914062834777 1.8171377614180917 #
straight-curve $-1 -40.780053102206487 20.292454110439984 0 0 0 -1 I I #
point $-1 -40.780053102206487 -20.292454110439984 -4.8683434860554753 #
straight-curve $-1 -40.780053102206487 0 -4.8683434860554753 0 1 0 I I #
point $-1 -40.780053102206487 20.292454110439984 -4.8683434860554753 #
straight-curve $-1 -40.780053102206487 -8.6881598897541252 -4.3683434860554753 0 -1 0 I I #
point $-1 -40.780053102206487 -20.292454110439984 -4.3683434860554753 #
point $-1 -40.780053102206487 -14.460185448576517 -4.3683434860554753 #
straight-curve $-1 -40.780053102206487 -14.460185448576517 -1.4341717430277376 0 0 -1 I I #
straight-curve $-1 -40.780053102206487 -20.292454110439984 0 0 0 -1 I I #
straight-curve $-1 -40.780053102206487 -7.4065155257893736 30.946642645508707 0 0 -1 I I #
point $-1 -40.780053102206487 -7.4065155257893736 4.8683434860554753 #
straight-curve $-1 -40.780053102206487 -5.4666752435914727 0.33909234020728796 0 -1 0 I I #
point $-1 -40.780053102206487 -7.4065155257893736 0.33909234020728718 #
point $-1 -37.011344194622133 -12.444851184923047 1.2652007421353808 #
point $-1 -37.011344194622133 -9.4218497894428435 1.2652007421353808 #
straight-curve $-1 40.780053102206487 -6.7007440043710904 56.905395270319161 0 0 -1 I I #
point $-1 40.780053102206487 -6.7007440043710904 4.8683434860554753 #
straight-curve $-1 40.780053102206487 -0.86339218635599124 0.98791220555427728 0 1 0 I I #
point $-1 40.78005310220648 -6.7007440043710904 0.98791220555428083 #
point $-1 36.975424507966032 -4.7111601517074497 1.6701220008378643 #
point $-1 36.975424507966032 -1.726784372711986 1.6701220008378643 #
point $-1 36.975424507966032 1.2575914062834777 1.6701220008378643 #
End-of-ACIS-data 