500 0 8 0           
7 Unknown 11 ACIS 5.0 NT 24 Fri Mar 26 17:00:46 1999 
-1 9.9999999999999995e-007 1e-010 
body $-1 $8 $-1 $9 #
body $-1 $10 $-1 $11 #
body $-1 $12 $-1 $13 #
body $-1 $14 $-1 $15 #
body $-1 $16 $-1 $17 #
body $-1 $18 $-1 $19 #
body $-1 $20 $-1 $21 #
body $-1 $22 $-1 $23 #
lump $-1 $-1 $24 $0 #
transform $-1 1 0 0 0 1 0 0 0 1 75.441755424665061 48.274020513458495 19.871948170286718 1 rotate no_reflect no_shear #
lump $-1 $-1 $25 $1 #
transform $-1 1 0 0 0 1 0 0 0 1 75.441755424665061 48.274020513458495 19.871948170286718 1 rotate no_reflect no_shear #
lump $-1 $-1 $26 $2 #
transform $-1 1 0 0 0 1 0 0 0 1 75.441755424665061 48.274020513458495 19.871948170286718 1 rotate no_reflect no_shear #
lump $-1 $-1 $27 $3 #
transform $-1 1 0 0 0 1 0 0 0 1 75.441755424665061 48.274020513458495 19.871948170286718 1 rotate no_reflect no_shear #
lump $-1 $-1 $28 $4 #
transform $-1 1 0 0 0 1 0 0 0 1 75.441755424665061 48.274020513458495 19.871948170286718 1 rotate no_reflect no_shear #
lump $-1 $-1 $29 $5 #
transform $-1 1 0 0 0 1 0 0 0 1 75.441755424665061 48.274020513458495 19.871948170286718 1 rotate no_reflect no_shear #
lump $-1 $-1 $30 $6 #
transform $-1 1 0 0 0 1 0 0 0 1 75.441755424665061 48.274020513458495 19.871948170286718 1 rotate no_reflect no_shear #
lump $-1 $-1 $31 $7 #
transform $-1 1 0 0 0 1 0 0 0 1 75.441755424665061 48.274020513458495 19.871948170286718 1 rotate no_reflect no_shear #
shell $-1 $-1 $-1 $32 $-1 $8 #
shell $-1 $-1 $-1 $33 $-1 $10 #
shell $-1 $-1 $-1 $34 $-1 $12 #
shell $-1 $-1 $-1 $35 $-1 $14 #
shell $-1 $-1 $-1 $36 $-1 $16 #
shell $-1 $-1 $-1 $37 $-1 $18 #
shell $-1 $-1 $-1 $38 $-1 $20 #
shell $-1 $-1 $-1 $39 $-1 $22 #
face $-1 $40 $41 $24 $-1 $42 forward single #
face $-1 $43 $44 $25 $-1 $45 reversed single #
face $-1 $46 $47 $26 $-1 $48 reversed single #
face $-1 $49 $50 $27 $-1 $51 forward single #
face $-1 $52 $53 $28 $-1 $54 reversed single #
face $-1 $55 $56 $29 $-1 $57 forward single #
face $-1 $58 $59 $30 $-1 $60 forward single #
face $-1 $61 $62 $31 $-1 $63 forward single #
face $-1 $64 $65 $24 $-1 $66 reversed single #
loop $-1 $-1 $67 $32 #
plane-surface $-1 0 0 19.871948170286718 0 0 1 1 0 0 forward_v I I I I #
face $-1 $68 $69 $25 $-1 $70 reversed single #
loop $-1 $-1 $71 $33 #
plane-surface $-1 -71.480040851393227 -31.729063537586157 0 0 -1 0 0 0 -1 forward_v I I I I #
face $-1 $72 $73 $26 $-1 $74 reversed single #
loop $-1 $-1 $75 $34 #
plane-surface $-1 -168.33492148140508 34.057950782106602 132.39353305314128 0 1 0 -0.61566148304635926 0 0.78801074757464917 forward_v I I I I #
face $-1 $76 $77 $27 $-1 $78 forward single #
loop $-1 $79 $80 $35 #
cone-surface $-1 -69.791741768275372 41.165985647782549 14.67508090156128 0.61566148304635926 0 -0.78801074757464917 1.1820161213619738 0 0.92349222456953894 1 I I 0 1 1.5 forward I I I I #
face $-1 $81 $82 $28 $-1 $83 reversed single #
loop $-1 $-1 $84 $36 #
plane-surface $-1 67.994850575721173 -12.632773938647111 215.3224760033084 0 -1 0 -0.68199836817093118 0 -0.7313536940579346 forward_v I I I I #
face $-1 $85 $86 $29 $-1 $87 forward single #
loop $-1 $88 $89 $37 #
cone-surface $-1 64.806322899569565 -27.909805617798344 9.8016917894972728 -0.68199836817093118 0 -0.7313536940579346 0.7313536940579346 0 -0.68199836817093118 1 I I 0 1 1 forward I I I I #
face $-1 $90 $91 $30 $-1 $92 forward single #
loop $-1 $93 $94 $38 #
cone-surface $-1 64.806322899569565 -22.180918738116631 9.8016917894972728 -0.68199836817093118 0 -0.7313536940579346 0.7313536940579346 0 -0.68199836817093118 1 I I 0 1 1 forward I I I I #
face $-1 $95 $96 $31 $-1 $97 forward single #
loop $-1 $98 $99 $39 #
cone-surface $-1 64.806322899569565 -16.452031858434921 9.8016917894972728 -0.68199836817093118 0 -0.7313536940579346 0.7313536940579346 0 -0.68199836817093118 1 I I 0 1 1 forward I I I I #
face $-1 $100 $101 $24 $-1 $102 reversed single #
loop $-1 $-1 $103 $40 #
plane-surface $-1 0 0 -19.871948170286718 0 0 1 1 0 0 forward_v I I I I #
coedge $-1 $104 $105 $106 $107 forward $41 $-1 #
face $-1 $108 $109 $25 $-1 $110 forward single #
loop $-1 $-1 $111 $43 #
plane-surface $-1 -67.518326278121393 -40.001542025522326 0 -1 0 0 0 0 1 forward_v I I I I #
coedge $-1 $112 $113 $114 $115 forward $44 $-1 #
face $-1 $116 $117 $26 $-1 $118 reversed single #
loop $-1 $-1 $119 $46 #
plane-surface $-1 -75.441755424665061 41.165985647782549 13.495704872072963 -0.61566148304635926 0 0.78801074757464917 0.78801074757464917 0 0.61566148304635926 forward_v I I I I #
coedge $-1 $120 $121 $122 $123 reversed $47 $-1 #
face $-1 $-1 $124 $27 $-1 $125 forward single #
loop $-1 $126 $127 $49 #
cone-surface $-1 -67.760591544379693 41.165985647782549 12.075327221261727 0.61566148304635926 0 -0.78801074757464917 0.59100806068098688 0 0.46174611228476947 1 I I -0.70710678118654757 0.70710678118654757 0.75 forward I I I I #
loop $-1 $-1 $128 $35 #
coedge $-1 $80 $80 $129 $130 reversed $50 $-1 #
face $-1 $131 $132 $28 $-1 $133 reversed single #
loop $-1 $-1 $134 $52 #
plane-surface $-1 -34.907457607422955 -22.180918738116631 104.97326297122035 0.68199836817093118 0 0.7313536940579346 0.7313536940579346 0 -0.68199836817093118 forward_v I I I I #
coedge $-1 $135 $136 $137 $138 reversed $53 $-1 #
face $-1 $-1 $139 $29 $-1 $140 forward single #
loop $-1 $141 $142 $55 #
cone-surface $-1 63.374505133451251 -27.909805617798344 8.2662552527841022 -0.68199836817093118 0 -0.7313536940579346 0.3656768470289673 0 -0.34099918408546559 1 I I -0.70710678118654746 0.70710678118654746 0.5 forward I I I I #
loop $-1 $-1 $143 $37 #
coedge $-1 $89 $89 $144 $145 reversed $56 $-1 #
face $-1 $-1 $146 $30 $-1 $147 forward single #
loop $-1 $148 $149 $58 #
cone-surface $-1 63.374505133451251 -22.180918738116631 8.2662552527841022 -0.68199836817093118 0 -0.7313536940579346 0.3656768470289673 0 -0.34099918408546559 1 I I -0.70710678118654746 0.70710678118654746 0.5 forward I I I I #
loop $-1 $-1 $150 $38 #
coedge $-1 $94 $94 $151 $152 reversed $59 $-1 #
face $-1 $-1 $153 $31 $-1 $154 forward single #
loop $-1 $155 $156 $61 #
cone-surface $-1 63.374505133451251 -16.452031858434921 8.2662552527841022 -0.68199836817093118 0 -0.7313536940579346 0.3656768470289673 0 -0.34099918408546559 1 I I -0.70710678118654746 0.70710678118654746 0.5 forward I I I I #
loop $-1 $-1 $157 $39 #
coedge $-1 $99 $99 $158 $159 reversed $62 $-1 #
face $-1 $160 $161 $24 $-1 $162 reversed single #
loop $-1 $-1 $163 $64 #
plane-surface $-1 0 -48.274020513458495 0 0 1 0 0 0 1 forward_v I I I I #
coedge $-1 $164 $165 $166 $167 forward $65 $-1 #
coedge $-1 $168 $67 $169 $170 forward $41 $-1 #
coedge $-1 $67 $168 $171 $172 forward $41 $-1 #
coedge $-1 $173 $174 $67 $107 reversed $175 $-1 #
edge $-1 $176 -48.274020513458495 $177 48.274020513458495 $106 $178 forward 7 unknown #
face $-1 $179 $180 $25 $-1 $181 reversed single #
loop $-1 $-1 $182 $68 #
plane-surface $-1 0 0 19.871948170286718 0 0 1 1 0 0 forward_v I I I I #
coedge $-1 $183 $184 $185 $186 reversed $69 $-1 #
coedge $-1 $187 $71 $188 $189 reversed $44 $-1 #
coedge $-1 $71 $187 $190 $191 reversed $44 $-1 #
coedge $-1 $184 $183 $71 $115 reversed $69 $-1 #
edge $-1 $192 -19.871948170286718 $193 19.871948170286718 $114 $194 forward 7 unknown #
face $-1 $195 $196 $26 $-1 $197 reversed single #
loop $-1 $-1 $198 $72 #
plane-surface $-1 0 48.274020513458495 0 0 -1 0 0 0 -1 forward_v I I I I #
coedge $-1 $199 $200 $201 $202 reversed $73 $-1 #
coedge $-1 $121 $75 $203 $204 reversed $47 $-1 #
coedge $-1 $75 $120 $199 $205 reversed $47 $-1 #
coedge $-1 $201 $206 $75 $123 forward $207 $-1 #
edge $-1 $208 8.7257053160374767 $209 16.886924405595039 $122 $210 forward 7 unknown #
loop $-1 $-1 $129 $76 #
plane-surface $-1 -75.441755424665061 41.165985647782549 13.495704872072963 -0.61566148304635926 0 0.78801074757464917 0.78801074757464917 0 0.61566148304635926 forward_v I I I I #
loop $-1 $-1 $211 $49 #
coedge $-1 $127 $127 $128 $212 reversed $77 $-1 #
coedge $-1 $128 $128 $127 $212 forward $79 $-1 #
coedge $-1 $129 $129 $80 $130 forward $124 $-1 #
edge $-1 $213 0 $213 6.2831853071796004 $129 $214 forward 7 unknown #
face $-1 $215 $216 $28 $-1 $217 reversed single #
loop $-1 $-1 $218 $81 #
plane-surface $-1 67.994850575721173 -31.72906353758615 215.3224760033084 0 1 0 0.68199836817093118 0 0.7313536940579346 forward_v I I I I #
coedge $-1 $219 $220 $221 $222 reversed $82 $-1 #
coedge $-1 $136 $84 $223 $224 reversed $53 $-1 #
coedge $-1 $84 $135 $219 $225 reversed $53 $-1 #
coedge $-1 $221 $226 $84 $138 forward $227 $-1 #
edge $-1 $228 -41.444330136804474 $229 -22.355102250679188 $137 $230 forward 7 unknown #
loop $-1 $-1 $144 $85 #
plane-surface $-1 -34.907457607422955 -22.180918738116631 104.97326297122035 0.68199836817093118 0 0.7313536940579346 0.7313536940579346 0 -0.68199836817093118 forward_v I I I I #
loop $-1 $-1 $231 $55 #
coedge $-1 $142 $142 $143 $232 reversed $86 $-1 #
coedge $-1 $143 $143 $142 $232 forward $88 $-1 #
coedge $-1 $144 $144 $89 $145 forward $139 $-1 #
edge $-1 $233 0 $233 6.2831853071796004 $144 $234 forward 7 unknown #
loop $-1 $-1 $151 $90 #
plane-surface $-1 -34.907457607422955 -22.180918738116631 104.97326297122035 0.68199836817093118 0 0.7313536940579346 0.7313536940579346 0 -0.68199836817093118 forward_v I I I I #
loop $-1 $-1 $235 $58 #
coedge $-1 $149 $149 $150 $236 reversed $91 $-1 #
coedge $-1 $150 $150 $149 $236 forward $93 $-1 #
coedge $-1 $151 $151 $94 $152 forward $146 $-1 #
edge $-1 $237 0 $237 6.2831853071796004 $151 $238 forward 7 unknown #
loop $-1 $-1 $158 $95 #
plane-surface $-1 -34.907457607422955 -22.180918738116631 104.97326297122035 0.68199836817093118 0 0.7313536940579346 0.7313536940579346 0 -0.68199836817093118 forward_v I I I I #
loop $-1 $-1 $239 $61 #
coedge $-1 $156 $156 $157 $240 reversed $96 $-1 #
coedge $-1 $157 $157 $156 $240 forward $98 $-1 #
coedge $-1 $158 $158 $99 $159 forward $153 $-1 #
edge $-1 $241 0 $241 6.2831853071796004 $158 $242 forward 7 unknown #
face $-1 $243 $244 $24 $-1 $245 reversed single #
loop $-1 $-1 $246 $100 #
plane-surface $-1 -75.441755424665061 0 0 1 0 0 0 0 -1 forward_v I I I I #
coedge $-1 $247 $171 $248 $249 forward $101 $-1 #
coedge $-1 $250 $103 $247 $251 forward $65 $-1 #
coedge $-1 $103 $250 $252 $253 forward $65 $-1 #
coedge $-1 $174 $173 $103 $167 reversed $175 $-1 #
edge $-1 $254 -48.274020513458495 $255 48.274020513458495 $166 $256 forward 7 unknown #
coedge $-1 $105 $104 $257 $258 forward $41 $-1 #
coedge $-1 $259 $260 $104 $170 reversed $244 $-1 #
edge $-1 $177 -75.441755424665061 $261 75.441755424665061 $169 $262 forward 7 unknown #
coedge $-1 $163 $263 $105 $172 reversed $101 $-1 #
edge $-1 $264 -75.441755424665061 $176 75.441755424665061 $171 $265 forward 7 unknown #
coedge $-1 $166 $106 $263 $266 forward $175 $-1 #
coedge $-1 $106 $166 $259 $267 reversed $175 $-1 #
loop $-1 $-1 $173 $243 #
vertex $-1 $107 $268 #
vertex $-1 $107 $269 #
straight-curve $-1 75.441755424665061 0 19.871948170286718 0 1 0 I I #
face $-1 $270 $271 $25 $-1 $272 reversed single #
loop $-1 $-1 $273 $108 #
plane-surface $-1 -75.441755424665061 0 0 1 0 0 0 0 -1 forward_v I I I I #
coedge $-1 $190 $274 $184 $275 forward $109 $-1 #
coedge $-1 $114 $111 $276 $277 reversed $69 $-1 #
coedge $-1 $111 $114 $182 $275 reversed $69 $-1 #
coedge $-1 $278 $279 $111 $186 forward $280 $-1 #
edge $-1 $281 -19.871948170286718 $282 19.871948170286718 $185 $283 forward 7 unknown #
coedge $-1 $113 $112 $273 $284 reversed $44 $-1 #
coedge $-1 $276 $285 $112 $189 forward $271 $-1 #
edge $-1 $286 -39.701734998968448 $193 -31.778305852424779 $188 $287 forward 7 unknown #
coedge $-1 $288 $182 $113 $191 forward $109 $-1 #
edge $-1 $192 31.778305852424779 $289 39.701734998968448 $190 $290 forward 7 unknown #
vertex $-1 $191 $291 #
vertex $-1 $189 $292 #
straight-curve $-1 -67.518326278121393 -31.729063537586157 0 0 0 -1 I I #
face $-1 $-1 $207 $26 $-1 $293 forward single #
loop $-1 $-1 $294 $116 #
plane-surface $-1 -75.441755424665061 0 0 1 0 0 0 0 -1 forward_v I I I I #
coedge $-1 $295 $296 $200 $297 forward $117 $-1 #
coedge $-1 $298 $119 $121 $205 forward $73 $-1 #
coedge $-1 $119 $298 $198 $297 reversed $73 $-1 #
coedge $-1 $299 $122 $119 $202 forward $207 $-1 #
edge $-1 $209 13.474957958215327 $300 27.691027689567221 $201 $301 forward 7 unknown #
coedge $-1 $302 $294 $120 $204 forward $196 $-1 #
edge $-1 $303 -52.701061654497678 $208 -46.324818356283927 $203 $304 forward 7 unknown #
edge $-1 $209 -10.356735761125442 $303 0 $121 $305 forward 7 unknown #
coedge $-1 $122 $299 $302 $306 forward $207 $-1 #
loop $-1 $-1 $201 $195 #
vertex $-1 $204 $307 #
vertex $-1 $123 $308 #
straight-curve $-1 -84.167460740702538 34.057950782106602 19.871948170286714 1 0 0 I I #
coedge $-1 $211 $211 $-1 $309 reversed $126 $-1 #
edge $-1 $310 0 $310 6.2831853071796004 $127 $311 forward 7 unknown #
vertex $-1 $130 $312 #
ellipse-curve $-1 -71.36114587988628 41.165985647782549 16.683826521179839 -0.61566148304635926 0 0.78801074757464917 1.1820161213619738 0 0.92349222456953894 1 I I #
face $-1 $-1 $227 $28 $-1 $313 forward single #
loop $-1 $-1 $314 $131 #
plane-surface $-1 75.441755424665061 0 0 -1 0 0 0 0 1 forward_v I I I I #
coedge $-1 $315 $316 $317 $318 reversed $132 $-1 #
coedge $-1 $319 $134 $136 $225 forward $82 $-1 #
coedge $-1 $134 $319 $315 $320 forward $82 $-1 #
coedge $-1 $317 $137 $134 $222 forward $227 $-1 #
edge $-1 $229 1.542314569588795 $321 20.638604168527834 $221 $322 forward 7 unknown #
coedge $-1 $323 $324 $135 $224 forward $216 $-1 #
edge $-1 $325 -105.59028321357796 $228 -87.789289831367483 $223 $326 forward 7 unknown #
edge $-1 $229 124.78228507960952 $325 150.88351084933009 $136 $327 forward 7 unknown #
coedge $-1 $137 $317 $323 $328 forward $227 $-1 #
loop $-1 $-1 $317 $215 #
vertex $-1 $224 $329 #
vertex $-1 $138 $330 #
straight-curve $-1 33.997425287860587 -12.632773938647111 19.871948170286714 -1 0 0 I I #
coedge $-1 $231 $231 $-1 $331 reversed $141 $-1 #
edge $-1 $332 0 $332 6.2831853071796004 $142 $333 forward 7 unknown #
vertex $-1 $145 $334 #
ellipse-curve $-1 65.897141481602418 -27.909805617798344 10.971451479181475 0.68199836817093118 0 0.7313536940579346 0.7313536940579346 0 -0.68199836817093118 1 I I #
coedge $-1 $235 $235 $-1 $335 reversed $148 $-1 #
edge $-1 $336 0 $336 6.2831853071796004 $149 $337 forward 7 unknown #
vertex $-1 $152 $338 #
ellipse-curve $-1 65.897141481602418 -22.180918738116631 10.971451479181475 0.68199836817093118 0 0.7313536940579346 0.7313536940579346 0 -0.68199836817093118 1 I I #
coedge $-1 $239 $239 $-1 $339 reversed $155 $-1 #
edge $-1 $340 0 $340 6.2831853071796004 $156 $341 forward 7 unknown #
vertex $-1 $159 $342 #
ellipse-curve $-1 65.897141481602418 -16.452031858434921 10.971451479181475 0.68199836817093118 0 0.7313536940579346 0.7313536940579346 0 -0.68199836817093118 1 I I #
face $-1 $-1 $175 $24 $-1 $343 reversed single #
loop $-1 $-1 $259 $160 #
plane-surface $-1 0 48.274020513458495 0 0 -1 0 0 0 -1 forward_v I I I I #
coedge $-1 $344 $257 $260 $345 forward $161 $-1 #
coedge $-1 $263 $163 $164 $251 reversed $101 $-1 #
coedge $-1 $257 $344 $163 $249 reversed $161 $-1 #
edge $-1 $264 -19.871948170286718 $346 19.871948170286718 $248 $347 forward 7 unknown #
coedge $-1 $165 $164 $344 $348 forward $65 $-1 #
edge $-1 $255 -75.441755424665061 $346 75.441755424665061 $247 $349 forward 7 unknown #
coedge $-1 $260 $259 $165 $253 reversed $244 $-1 #
edge $-1 $350 -75.441755424665061 $254 75.441755424665061 $252 $351 forward 7 unknown #
vertex $-1 $167 $352 #
vertex $-1 $266 $353 #
straight-curve $-1 75.441755424665061 0 -19.871948170286718 0 -1 0 I I #
coedge $-1 $246 $248 $168 $258 reversed $161 $-1 #
edge $-1 $261 -48.274020513458495 $264 48.274020513458495 $257 $354 forward 7 unknown #
coedge $-1 $252 $169 $174 $267 forward $244 $-1 #
coedge $-1 $169 $252 $246 $345 reversed $244 $-1 #
vertex $-1 $170 $355 #
straight-curve $-1 0 48.274020513458495 19.871948170286718 -1 0 0 I I #
coedge $-1 $171 $247 $173 $266 reversed $101 $-1 #
vertex $-1 $258 $356 #
straight-curve $-1 0 -48.274020513458495 19.871948170286718 1 0 0 I I #
edge $-1 $176 -19.871948170286718 $255 19.871948170286718 $173 $357 forward 7 unknown #
edge $-1 $177 -19.871948170286718 $254 19.871948170286718 $174 $358 forward 7 unknown #
point $-1 75.441755424665061 -48.274020513458495 19.871948170286718 #
point $-1 75.441755424665061 48.274020513458495 19.871948170286718 #
face $-1 $-1 $280 $25 $-1 $359 reversed single #
loop $-1 $-1 $276 $179 #
plane-surface $-1 0 0 -19.871948170286718 0 0 1 1 0 0 forward_v I I I I #
coedge $-1 $360 $361 $187 $284 forward $180 $-1 #
coedge $-1 $182 $288 $278 $362 forward $109 $-1 #
edge $-1 $282 -28.273249500697332 $192 -11.728292524824994 $182 $363 forward 7 unknown #
coedge $-1 $364 $188 $183 $277 forward $271 $-1 #
edge $-1 $193 11.728292524824994 $281 28.273249500697332 $276 $365 forward 7 unknown #
coedge $-1 $366 $185 $274 $362 reversed $280 $-1 #
coedge $-1 $185 $366 $364 $367 reversed $280 $-1 #
loop $-1 $-1 $185 $270 #
vertex $-1 $367 $368 #
vertex $-1 $186 $369 #
straight-curve $-1 -67.518326278121393 -48.274020513458495 0 0 0 1 I I #
edge $-1 $289 -19.871948170286718 $286 19.871948170286718 $273 $370 forward 7 unknown #
coedge $-1 $188 $364 $360 $371 forward $271 $-1 #
vertex $-1 $189 $372 #
straight-curve $-1 -35.740020425696613 -31.729063537586157 -19.871948170286718 1 0 0 I I #
coedge $-1 $274 $190 $361 $373 forward $109 $-1 #
vertex $-1 $373 $374 #
straight-curve $-1 -35.740020425696613 -31.729063537586157 19.871948170286718 -1 0 0 I I #
point $-1 -67.518326278121393 -31.729063537586157 19.871948170286718 #
point $-1 -67.518326278121393 -31.729063537586157 -19.871948170286718 #
plane-surface $-1 0 0 19.871948170286718 0 0 1 1 0 0 forward_v I I I I #
coedge $-1 $203 $375 $298 $376 forward $196 $-1 #
coedge $-1 $296 $198 $375 $377 reversed $117 $-1 #
coedge $-1 $198 $295 $299 $378 reversed $117 $-1 #
edge $-1 $300 15.213328445993429 $379 25.570064207118868 $198 $380 forward 7 unknown #
coedge $-1 $200 $199 $294 $376 reversed $73 $-1 #
coedge $-1 $206 $201 $296 $378 forward $207 $-1 #
vertex $-1 $378 $381 #
straight-curve $-1 -67.280536335107499 20.582992823891274 19.871948170286714 0 1 0 I I #
coedge $-1 $375 $203 $206 $306 reversed $196 $-1 #
vertex $-1 $204 $382 #
straight-curve $-1 -75.441755424665061 34.057950782106602 66.196766526570642 0 0 1 I I #
straight-curve $-1 -75.441755424665061 34.057950782106602 13.495704872072963 -0.78801074757464917 0 -0.61566148304635926 I I #
edge $-1 $383 -48.274020513458495 $208 -34.057950782106602 $302 $384 forward 7 unknown #
point $-1 -75.441755424665061 34.057950782106602 19.871948170286718 #
point $-1 -67.280536335107499 34.057950782106602 19.871948170286718 #
edge $-1 $385 1 $385 0 $211 $-1 forward 7 unknown #
vertex $-1 $212 $386 #
ellipse-curve $-1 -68.222337656664465 41.165985647782549 12.666335281942715 -0.61566148304635926 0 0.78801074757464917 1.1820161213619738 0 0.92349222456953894 1 I I #
point $-1 -70.179129758524311 41.165985647782549 17.607318745749382 #
plane-surface $-1 0 0 19.871948170286718 0 0 1 1 0 0 forward_v I I I I #
coedge $-1 $324 $323 $316 $387 forward $216 $-1 #
coedge $-1 $316 $218 $220 $320 reversed $132 $-1 #
coedge $-1 $218 $315 $314 $387 reversed $132 $-1 #
coedge $-1 $226 $221 $218 $318 forward $227 $-1 #
edge $-1 $321 22.355102250679188 $388 41.444330136804474 $317 $389 forward 7 unknown #
coedge $-1 $220 $219 $324 $390 reversed $82 $-1 #
edge $-1 $391 -150.88351084933009 $321 -124.78228507960952 $315 $392 forward 7 unknown #
vertex $-1 $222 $393 #
straight-curve $-1 56.352527538539775 -11.090459369058316 19.871948170286714 0 -1 0 I I #
coedge $-1 $314 $223 $226 $328 reversed $216 $-1 #
coedge $-1 $223 $314 $319 $390 forward $216 $-1 #
vertex $-1 $224 $394 #
straight-curve $-1 75.441755424665061 -12.632773938647111 107.6612380016542 0 0 1 I I #
straight-curve $-1 -34.907457607422955 -12.632773938647111 104.97326297122035 0.7313536940579346 0 -0.68199836817093118 I I #
edge $-1 $388 -31.72906353758615 $228 -12.632773938647111 $323 $395 forward 7 unknown #
point $-1 75.441755424665061 -12.632773938647111 19.871948170286718 #
point $-1 56.352527538539775 -12.632773938647111 19.871948170286714 #
edge $-1 $396 1 $396 0 $231 $-1 forward 7 unknown #
vertex $-1 $232 $397 #
ellipse-curve $-1 63.71550431753672 -27.909805617798344 8.6319320998130689 0.68199836817093118 0 0.7313536940579346 0.7313536940579346 0 -0.68199836817093118 1 I I #
point $-1 66.628495175660348 -27.909805617798344 10.289453111010546 #
edge $-1 $398 1 $398 0 $235 $-1 forward 7 unknown #
vertex $-1 $236 $399 #
ellipse-curve $-1 63.71550431753672 -22.180918738116631 8.6319320998130689 0.68199836817093118 0 0.7313536940579346 0.7313536940579346 0 -0.68199836817093118 1 I I #
point $-1 66.628495175660348 -22.180918738116631 10.289453111010546 #
edge $-1 $400 1 $400 0 $239 $-1 forward 7 unknown #
vertex $-1 $240 $401 #
ellipse-curve $-1 63.71550431753672 -16.452031858434921 8.6319320998130689 0.68199836817093118 0 0.7313536940579346 0.7313536940579346 0 -0.68199836817093118 1 I I #
point $-1 66.628495175660348 -16.452031858434921 10.289453111010546 #
plane-surface $-1 75.441755424665061 0 0 -1 0 0 0 0 1 forward_v I I I I #
coedge $-1 $248 $246 $250 $348 reversed $161 $-1 #
edge $-1 $261 -19.871948170286718 $350 19.871948170286718 $260 $402 forward 7 unknown #
vertex $-1 $348 $403 #
straight-curve $-1 -75.441755424665061 -48.274020513458495 0 0 0 -1 I I #
edge $-1 $346 -48.274020513458495 $350 48.274020513458495 $344 $404 forward 7 unknown #
straight-curve $-1 0 -48.274020513458495 -19.871948170286718 -1 0 0 I I #
vertex $-1 $253 $405 #
straight-curve $-1 0 48.274020513458495 -19.871948170286718 1 0 0 I I #
point $-1 75.441755424665061 48.274020513458495 -19.871948170286718 #
point $-1 75.441755424665061 -48.274020513458495 -19.871948170286718 #
straight-curve $-1 -75.441755424665061 0 19.871948170286718 0 -1 0 I I #
point $-1 -75.441755424665061 48.274020513458495 19.871948170286718 #
point $-1 -75.441755424665061 -48.274020513458495 19.871948170286718 #
straight-curve $-1 75.441755424665061 -48.274020513458495 0 0 0 -1 I I #
straight-curve $-1 75.441755424665061 48.274020513458495 0 0 0 -1 I I #
plane-surface $-1 0 -48.274020513458495 0 0 1 0 0 0 1 forward_v I I I I #
coedge $-1 $406 $273 $285 $371 reversed $180 $-1 #
coedge $-1 $273 $406 $288 $373 reversed $180 $-1 #
edge $-1 $407 -75.441755424665061 $282 -67.518326278121393 $278 $408 forward 7 unknown #
straight-curve $-1 -67.518326278121393 -20.000771012761163 19.871948170286718 0 1 0 I I #
coedge $-1 $285 $276 $279 $367 forward $271 $-1 #
straight-curve $-1 -67.518326278121393 -20.000771012761163 -19.871948170286718 0 -1 0 I I #
coedge $-1 $279 $278 $406 $409 forward $280 $-1 #
edge $-1 $281 67.518326278121393 $410 75.441755424665061 $279 $411 forward 7 unknown #
point $-1 -67.518326278121393 -48.274020513458495 -19.871948170286718 #
point $-1 -67.518326278121393 -48.274020513458495 19.871948170286718 #
straight-curve $-1 -75.441755424665061 -31.729063537586157 0 0 0 -1 I I #
edge $-1 $410 -48.274020513458495 $286 -31.729063537586157 $360 $412 forward 7 unknown #
point $-1 -75.441755424665061 -31.729063537586157 -19.871948170286718 #
edge $-1 $289 31.729063537586157 $407 48.274020513458495 $361 $413 forward 7 unknown #
point $-1 -75.441755424665061 -31.729063537586157 19.871948170286718 #
coedge $-1 $294 $302 $295 $377 forward $196 $-1 #
edge $-1 $379 -27.691027689567221 $303 -13.474957958215327 $294 $414 forward 7 unknown #
edge $-1 $383 -19.871948170286718 $379 -13.495704872072963 $295 $415 forward 7 unknown #
edge $-1 $300 67.280536335107499 $383 75.441755424665061 $296 $416 forward 7 unknown #
vertex $-1 $376 $417 #
straight-curve $-1 -55.292270013281538 48.274020513458495 29.238208523418393 -0.78801074757464917 0 -0.61566148304635926 I I #
point $-1 -67.280536335107499 48.274020513458495 19.871948170286718 #
point $-1 -75.441755424665061 34.057950782106602 13.495704872072963 #
vertex $-1 $378 $418 #
straight-curve $-1 -75.441755424665061 0 19.871948170286718 0 -1 0 I I #
vertex $-1 $309 $419 #
point $-1 -67.040321535302482 41.165985647782549 13.589827506512252 #
edge $-1 $388 87.789289831367483 $391 105.59028321357796 $314 $420 forward 7 unknown #
vertex $-1 $328 $421 #
straight-curve $-1 33.997425287860587 -31.72906353758615 19.871948170286714 1 0 0 I I #
edge $-1 $391 -20.638604168527834 $325 -1.542314569588795 $324 $422 forward 7 unknown #
vertex $-1 $390 $423 #
straight-curve $-1 -34.907457607422955 -31.72906353758615 104.97326297122035 -0.7313536940579346 0 0.68199836817093118 I I #
point $-1 56.352527538539775 -31.72906353758615 19.871948170286714 #
point $-1 75.441755424665061 -12.632773938647111 2.0709547880762358 #
straight-curve $-1 75.441755424665061 0 19.871948170286718 0 1 0 I I #
vertex $-1 $331 $424 #
point $-1 64.446858011594657 -27.909805617798344 7.9499337316421386 #
vertex $-1 $335 $425 #
point $-1 64.446858011594657 -22.180918738116631 7.9499337316421386 #
vertex $-1 $339 $426 #
point $-1 64.446858011594657 -16.452031858434921 7.9499337316421386 #
straight-curve $-1 -75.441755424665061 48.274020513458495 0 0 0 -1 I I #
point $-1 -75.441755424665061 -48.274020513458495 -19.871948170286718 #
straight-curve $-1 -75.441755424665061 0 -19.871948170286718 0 1 0 I I #
point $-1 -75.441755424665061 48.274020513458495 -19.871948170286718 #
coedge $-1 $361 $360 $366 $409 reversed $180 $-1 #
vertex $-1 $373 $427 #
straight-curve $-1 0 -48.274020513458495 19.871948170286718 1 0 0 I I #
edge $-1 $407 -19.871948170286718 $410 19.871948170286718 $406 $428 forward 7 unknown #
vertex $-1 $371 $429 #
straight-curve $-1 0 -48.274020513458495 -19.871948170286718 -1 0 0 I I #
straight-curve $-1 -75.441755424665061 0 -19.871948170286718 0 1 0 I I #
straight-curve $-1 -75.441755424665061 0 19.871948170286718 0 -1 0 I I #
straight-curve $-1 -75.441755424665061 20.582992823891274 13.495704872072968 0 -1 0 I I #
straight-curve $-1 -75.441755424665061 48.274020513458495 0 0 0 -1 I I #
straight-curve $-1 0 48.274020513458495 19.871948170286718 -1 0 0 I I #
point $-1 -75.441755424665061 48.274020513458495 13.495704872072963 #
point $-1 -75.441755424665061 48.274020513458495 19.871948170286718 #
point $-1 -67.298845432094922 41.165985647782549 11.484319160580739 #
straight-curve $-1 75.441755424665061 -31.72906353758615 107.6612380016542 0 0 -1 I I #
point $-1 75.441755424665061 -31.72906353758615 19.871948170286718 #
straight-curve $-1 75.441755424665047 -11.090459369058316 2.0709547880762429 0 1 0 I I #
point $-1 75.441755424665061 -31.72906353758615 2.0709547880762358 #
point $-1 63.033505949365782 -27.909805617798344 7.9005784057551347 #
point $-1 63.033505949365782 -22.180918738116631 7.9005784057551347 #
point $-1 63.033505949365782 -16.452031858434921 7.9005784057551347 #
point $-1 -75.441755424665061 -48.274020513458495 19.871948170286718 #
straight-curve $-1 -75.441755424665061 -48.274020513458495 0 0 0 -1 I I #
point $-1 -75.441755424665061 -48.274020513458495 -19.871948170286718 #
End-of-ACIS-data 