500 0 14 0           
7 Unknown 11 ACIS 5.0 NT 24 Fri Mar 26 20:31:12 1999 
-1 9.9999999999999995e-007 1e-010 
body $-1 $14 $-1 $15 #
body $-1 $16 $-1 $17 #
body $-1 $18 $-1 $19 #
body $-1 $20 $-1 $21 #
body $-1 $22 $-1 $23 #
body $-1 $24 $-1 $25 #
body $-1 $26 $-1 $27 #
body $-1 $28 $-1 $29 #
body $-1 $30 $-1 $31 #
body $-1 $32 $-1 $33 #
body $-1 $34 $-1 $35 #
body $-1 $36 $-1 $37 #
body $-1 $38 $-1 $39 #
body $-1 $40 $-1 $41 #
lump $-1 $-1 $42 $0 #
transform $-1 1 0 0 0 1 0 0 0 1 62.80587176122318 31.332591464167091 12.471168893545752 1 rotate no_reflect no_shear #
lump $-1 $-1 $43 $1 #
transform $-1 1 0 0 0 1 0 0 0 1 62.80587176122318 31.332591464167091 12.471168893545752 1 rotate no_reflect no_shear #
lump $-1 $-1 $44 $2 #
transform $-1 1 0 0 0 1 0 0 0 1 62.80587176122318 31.332591464167091 12.471168893545752 1 rotate no_reflect no_shear #
lump $-1 $-1 $45 $3 #
transform $-1 1 0 0 0 1 0 0 0 1 62.80587176122318 31.332591464167091 12.471168893545752 1 rotate no_reflect no_shear #
lump $-1 $-1 $46 $4 #
transform $-1 1 0 0 0 1 0 0 0 1 62.80587176122318 31.332591464167091 12.471168893545752 1 rotate no_reflect no_shear #
lump $-1 $-1 $47 $5 #
transform $-1 1 0 0 0 1 0 0 0 1 62.80587176122318 31.332591464167091 12.471168893545752 1 rotate no_reflect no_shear #
lump $-1 $-1 $48 $6 #
transform $-1 1 0 0 0 1 0 0 0 1 62.80587176122318 31.332591464167091 12.471168893545752 1 rotate no_reflect no_shear #
lump $-1 $-1 $49 $7 #
transform $-1 1 0 0 0 1 0 0 0 1 62.80587176122318 31.332591464167091 12.471168893545752 1 rotate no_reflect no_shear #
lump $-1 $-1 $50 $8 #
transform $-1 1 0 0 0 1 0 0 0 1 62.80587176122318 31.332591464167091 12.471168893545752 1 rotate no_reflect no_shear #
lump $-1 $-1 $51 $9 #
transform $-1 1 0 0 0 1 0 0 0 1 62.80587176122318 31.332591464167091 12.471168893545752 1 rotate no_reflect no_shear #
lump $-1 $-1 $52 $10 #
transform $-1 1 0 0 0 1 0 0 0 1 62.80587176122318 31.332591464167091 12.471168893545752 1 rotate no_reflect no_shear #
lump $-1 $-1 $53 $11 #
transform $-1 1 0 0 0 1 0 0 0 1 62.80587176122318 31.332591464167091 12.471168893545752 1 rotate no_reflect no_shear #
lump $-1 $-1 $54 $12 #
transform $-1 1 0 0 0 1 0 0 0 1 62.80587176122318 31.332591464167091 12.471168893545752 1 rotate no_reflect no_shear #
lump $-1 $-1 $55 $13 #
transform $-1 1 0 0 0 1 0 0 0 1 62.80587176122318 31.332591464167091 12.471168893545752 1 rotate no_reflect no_shear #
shell $-1 $-1 $-1 $56 $-1 $14 #
shell $-1 $-1 $-1 $57 $-1 $16 #
shell $-1 $-1 $-1 $58 $-1 $18 #
shell $-1 $-1 $-1 $59 $-1 $20 #
shell $-1 $-1 $-1 $60 $-1 $22 #
shell $-1 $-1 $-1 $61 $-1 $24 #
shell $-1 $-1 $-1 $62 $-1 $26 #
shell $-1 $-1 $-1 $63 $-1 $28 #
shell $-1 $-1 $-1 $64 $-1 $30 #
shell $-1 $-1 $-1 $65 $-1 $32 #
shell $-1 $-1 $-1 $66 $-1 $34 #
shell $-1 $-1 $-1 $67 $-1 $36 #
shell $-1 $-1 $-1 $68 $-1 $38 #
shell $-1 $-1 $-1 $69 $-1 $40 #
face $-1 $70 $71 $42 $-1 $72 forward single #
face $-1 $73 $74 $43 $-1 $75 reversed single #
face $-1 $76 $77 $44 $-1 $78 reversed single #
face $-1 $79 $80 $45 $-1 $81 forward single #
face $-1 $82 $83 $46 $-1 $84 forward single #
face $-1 $85 $86 $47 $-1 $87 reversed single #
face $-1 $88 $89 $48 $-1 $90 forward single #
face $-1 $91 $92 $49 $-1 $93 forward single #
face $-1 $94 $95 $50 $-1 $96 reversed single #
face $-1 $97 $98 $51 $-1 $99 forward single #
face $-1 $100 $101 $52 $-1 $102 forward single #
face $-1 $103 $104 $53 $-1 $105 reversed single #
face $-1 $106 $107 $54 $-1 $108 forward single #
face $-1 $109 $110 $55 $-1 $111 forward single #
face $-1 $112 $113 $42 $-1 $114 reversed single #
loop $-1 $-1 $115 $56 #
plane-surface $-1 0 0 12.471168893545752 0 0 1 1 0 0 forward_v I I I I #
face $-1 $116 $117 $43 $-1 $118 reversed single #
loop $-1 $-1 $119 $57 #
plane-surface $-1 -41.363533974131677 -24.760399257112809 0 1 0 0 0 0 -1 forward_v I I I I #
face $-1 $120 $121 $44 $-1 $122 reversed single #
loop $-1 $-1 $123 $58 #
plane-surface $-1 108.78296355858501 -4.222674057667799 180.25442976368922 0 -1 0 -0.86602541151947299 0 -0.49999998660252726 forward_v I I I I #
face $-1 $124 $125 $45 $-1 $126 forward single #
loop $-1 $127 $128 $59 #
cone-surface $-1 60.944996412750321 -10.467908430375775 10.128268308605428 -0.86602541151947299 0 -0.49999998660252726 0.49999998660252726 0 -0.86602541151947299 1 I I 0 1 1 forward I I I I #
face $-1 $129 $130 $46 $-1 $131 forward single #
loop $-1 $132 $133 $60 #
cone-surface $-1 60.944996412750321 -6.7207678067509882 10.128268308605428 -0.86602541151947299 0 -0.49999998660252726 0.49999998660252726 0 -0.86602541151947299 1 I I 0 1 1 forward I I I I #
face $-1 $134 $135 $47 $-1 $136 reversed single #
loop $-1 $-1 $137 $61 #
plane-surface $-1 108.78296355858501 20.53772519944501 180.25442976368922 0 -1 0 -0.86602541151947299 0 -0.49999998660252726 forward_v I I I I #
face $-1 $138 $139 $48 $-1 $140 forward single #
loop $-1 $141 $142 $62 #
cone-surface $-1 60.944996412750321 14.292490826737033 10.128268308605428 -0.86602541151947299 0 -0.49999998660252726 0.49999998660252726 0 -0.86602541151947299 1 I I 0 1 1 forward I I I I #
face $-1 $143 $144 $49 $-1 $145 forward single #
loop $-1 $146 $147 $63 #
cone-surface $-1 60.944996412750321 18.039631450361821 10.128268308605428 -0.86602541151947299 0 -0.49999998660252726 0.49999998660252726 0 -0.86602541151947299 1 I I 0 1 1 forward I I I I #
face $-1 $148 $149 $50 $-1 $150 reversed single #
loop $-1 $-1 $151 $64 #
plane-surface $-1 -161.7892774730519 -1.0608756442809852 80.499363244157678 0 1 0 -0.78801076186113728 0 0.61566146476048833 forward_v I I I I #
face $-1 $152 $153 $51 $-1 $154 forward single #
loop $-1 $155 $156 $65 #
cone-surface $-1 -58.77649927983741 1.1200008846719491 7.5102803323974214 0.78801076186113728 0 -0.61566146476048833 0.30783073238024417 0 0.39400538093056864 1 I I 0 1 0.5 forward I I I I #
face $-1 $157 $158 $52 $-1 $159 forward single #
loop $-1 $160 $161 $66 #
cone-surface $-1 -58.77649927983741 4.3913156781013463 7.5102803323974214 0.78801076186113728 0 -0.61566146476048833 0.30783073238024417 0 0.39400538093056864 1 I I 0 1 0.5 forward I I I I #
face $-1 $162 $163 $53 $-1 $164 reversed single #
loop $-1 $-1 $165 $67 #
plane-surface $-1 -62.805871761223173 2.7556582813866477 3.1650532360095838 -0.78801076186113728 0 0.61566146476048833 0.61566146476048833 0 0.78801076186113728 forward_v I I I I #
face $-1 $166 $167 $54 $-1 $168 forward single #
loop $-1 $169 $170 $68 #
cone-surface $-1 -58.77649927983741 8.7530687360072115 7.5102803323974214 0.78801076186113728 0 -0.61566146476048833 0.30783073238024417 0 0.39400538093056864 1 I I 0 1 0.5 forward I I I I #
face $-1 $171 $172 $55 $-1 $173 forward single #
loop $-1 $174 $175 $69 #
cone-surface $-1 -58.77649927983741 12.024383529436609 7.5102803323974214 0.78801076186113728 0 -0.61566146476048833 0.30783073238024417 0 0.39400538093056864 1 I I 0 1 0.5 forward I I I I #
face $-1 $176 $177 $42 $-1 $178 reversed single #
loop $-1 $-1 $179 $70 #
plane-surface $-1 0 0 -12.471168893545752 0 0 1 1 0 0 forward_v I I I I #
coedge $-1 $180 $181 $182 $183 forward $71 $-1 #
face $-1 $184 $185 $43 $-1 $186 reversed single #
loop $-1 $-1 $187 $73 #
plane-surface $-1 -39.863533974131677 -18.18820705005853 0 0 -1 0 0 0 -1 forward_v I I I I #
coedge $-1 $188 $189 $190 $191 forward $74 $-1 #
face $-1 $192 $193 $44 $-1 $194 reversed single #
loop $-1 $-1 $195 $76 #
plane-surface $-1 1.6828798976575854e-006 -8.5943381185633818 117.44855968534594 0.86602541151947299 0 0.49999998660252726 0.49999998660252726 0 -0.86602541151947299 forward_v I I I I #
coedge $-1 $196 $197 $198 $199 reversed $77 $-1 #
face $-1 $-1 $200 $45 $-1 $201 forward single #
loop $-1 $202 $203 $79 #
cone-surface $-1 59.7496820641258 -10.467908430375775 9.4381532723162991 -0.86602541151947299 0 -0.49999998660252726 0.24999999330126363 0 -0.43301270575973649 1 I I -0.70710678118654746 0.70710678118654746 0.5 forward I I I I #
loop $-1 $-1 $204 $59 #
coedge $-1 $128 $128 $205 $206 reversed $80 $-1 #
face $-1 $-1 $207 $46 $-1 $208 forward single #
loop $-1 $209 $210 $82 #
cone-surface $-1 59.7496820641258 -6.7207678067509882 9.4381532723162991 -0.86602541151947299 0 -0.49999998660252726 0.24999999330126363 0 -0.43301270575973649 1 I I -0.70710678118654746 0.70710678118654746 0.5 forward I I I I #
loop $-1 $-1 $211 $60 #
coedge $-1 $133 $133 $212 $213 reversed $83 $-1 #
face $-1 $214 $215 $47 $-1 $216 reversed single #
loop $-1 $-1 $217 $85 #
plane-surface $-1 1.6828798976575854e-006 16.166061138549427 117.44855968534594 0.86602541151947299 0 0.49999998660252726 0.49999998660252726 0 -0.86602541151947299 forward_v I I I I #
coedge $-1 $218 $219 $220 $221 reversed $86 $-1 #
face $-1 $-1 $222 $48 $-1 $223 forward single #
loop $-1 $224 $225 $88 #
cone-surface $-1 59.7496820641258 14.292490826737033 9.4381532723162991 -0.86602541151947299 0 -0.49999998660252726 0.24999999330126363 0 -0.43301270575973649 1 I I -0.70710678118654746 0.70710678118654746 0.5 forward I I I I #
loop $-1 $-1 $226 $62 #
coedge $-1 $142 $142 $227 $228 reversed $89 $-1 #
face $-1 $-1 $229 $49 $-1 $230 forward single #
loop $-1 $231 $232 $91 #
cone-surface $-1 59.7496820641258 18.039631450361821 9.4381532723162991 -0.86602541151947299 0 -0.49999998660252726 0.24999999330126363 0 -0.43301270575973649 1 I I -0.70710678118654746 0.70710678118654746 0.5 forward I I I I #
loop $-1 $-1 $233 $63 #
coedge $-1 $147 $147 $234 $235 reversed $92 $-1 #
face $-1 $236 $237 $50 $-1 $238 reversed single #
loop $-1 $-1 $239 $94 #
plane-surface $-1 -62.805871761223173 2.7556582813866477 3.1650532360095838 -0.78801076186113728 0 0.61566146476048833 0.61566146476048833 0 0.78801076186113728 forward_v I I I I #
coedge $-1 $240 $241 $242 $243 reversed $95 $-1 #
face $-1 $-1 $244 $51 $-1 $245 forward single #
loop $-1 $246 $247 $97 #
cone-surface $-1 -58.185491208441555 1.1200008846719491 7.0485342338270556 0.78801076186113728 0 -0.61566146476048833 0.15391536619012208 0 0.19700269046528432 1 I I -0.70710678118654746 0.70710678118654746 0.25 forward I I I I #
loop $-1 $-1 $248 $65 #
coedge $-1 $156 $156 $249 $250 reversed $98 $-1 #
face $-1 $-1 $251 $52 $-1 $252 forward single #
loop $-1 $253 $254 $100 #
cone-surface $-1 -58.185491208441555 4.3913156781013463 7.0485342338270556 0.78801076186113728 0 -0.61566146476048833 0.15391536619012208 0 0.19700269046528432 1 I I -0.70710678118654746 0.70710678118654746 0.25 forward I I I I #
loop $-1 $-1 $255 $66 #
coedge $-1 $161 $161 $256 $257 reversed $101 $-1 #
face $-1 $258 $259 $53 $-1 $260 reversed single #
loop $-1 $-1 $261 $103 #
plane-surface $-1 -161.7892774730519 14.205260058389543 80.499363244157678 0 -1 0 0.78801076186113728 0 -0.61566146476048833 forward_v I I I I #
coedge $-1 $262 $263 $264 $265 reversed $104 $-1 #
face $-1 $-1 $266 $54 $-1 $267 forward single #
loop $-1 $268 $269 $106 #
cone-surface $-1 -58.185491208441555 8.7530687360072115 7.0485342338270556 0.78801076186113728 0 -0.61566146476048833 0.15391536619012208 0 0.19700269046528432 1 I I -0.70710678118654746 0.70710678118654746 0.25 forward I I I I #
loop $-1 $-1 $270 $68 #
coedge $-1 $170 $170 $271 $272 reversed $107 $-1 #
face $-1 $-1 $273 $55 $-1 $274 forward single #
loop $-1 $275 $276 $109 #
cone-surface $-1 -58.185491208441555 12.024383529436609 7.0485342338270556 0.78801076186113728 0 -0.61566146476048833 0.15391536619012208 0 0.19700269046528432 1 I I -0.70710678118654746 0.70710678118654746 0.25 forward I I I I #
loop $-1 $-1 $277 $69 #
coedge $-1 $175 $175 $278 $279 reversed $110 $-1 #
face $-1 $280 $281 $42 $-1 $282 reversed single #
loop $-1 $-1 $283 $112 #
plane-surface $-1 0 -31.332591464167091 0 0 1 0 0 0 1 forward_v I I I I #
coedge $-1 $284 $285 $286 $287 forward $113 $-1 #
coedge $-1 $288 $115 $289 $290 forward $71 $-1 #
coedge $-1 $115 $288 $291 $292 forward $71 $-1 #
coedge $-1 $293 $294 $115 $183 reversed $295 $-1 #
edge $-1 $296 -31.332591464167091 $297 31.332591464167091 $182 $298 forward 7 unknown #
face $-1 $299 $300 $43 $-1 $301 forward single #
loop $-1 $-1 $302 $116 #
plane-surface $-1 -38.363533974131677 -24.760399257112809 0 -1 0 0 0 0 1 forward_v I I I I #
coedge $-1 $303 $304 $305 $306 forward $117 $-1 #
coedge $-1 $307 $119 $308 $309 reversed $74 $-1 #
coedge $-1 $119 $307 $310 $311 reversed $74 $-1 #
coedge $-1 $304 $303 $119 $191 reversed $117 $-1 #
edge $-1 $312 -12.471168893545752 $313 12.471168893545752 $190 $314 forward 7 unknown #
face $-1 $315 $316 $44 $-1 $317 reversed single #
loop $-1 $-1 $318 $120 #
plane-surface $-1 108.78296355858501 -12.966002179458965 180.25442976368922 0 1 0 0.86602541151947299 0 0.49999998660252726 forward_v I I I I #
coedge $-1 $319 $320 $321 $322 reversed $121 $-1 #
coedge $-1 $197 $123 $323 $324 reversed $77 $-1 #
coedge $-1 $123 $196 $319 $325 reversed $77 $-1 #
coedge $-1 $321 $326 $123 $199 forward $327 $-1 #
edge $-1 $328 -8.4143899819306753 $329 -6.2172425707145038 $198 $330 forward 7 unknown #
loop $-1 $-1 $205 $124 #
plane-surface $-1 1.6828798976575854e-006 -8.5943381185633818 117.44855968534594 0.86602541151947299 0 0.49999998660252726 0.49999998660252726 0 -0.86602541151947299 forward_v I I I I #
loop $-1 $-1 $331 $79 #
coedge $-1 $203 $203 $204 $332 reversed $125 $-1 #
coedge $-1 $204 $204 $203 $332 forward $127 $-1 #
coedge $-1 $205 $205 $128 $206 forward $200 $-1 #
edge $-1 $333 0 $333 6.2831853071796004 $205 $334 forward 7 unknown #
loop $-1 $-1 $212 $129 #
plane-surface $-1 1.6828798976575854e-006 -8.5943381185633818 117.44855968534594 0.86602541151947299 0 0.49999998660252726 0.49999998660252726 0 -0.86602541151947299 forward_v I I I I #
loop $-1 $-1 $335 $82 #
coedge $-1 $210 $210 $211 $336 reversed $130 $-1 #
coedge $-1 $211 $211 $210 $336 forward $132 $-1 #
coedge $-1 $212 $212 $133 $213 forward $207 $-1 #
edge $-1 $337 0 $337 6.2831853071796004 $212 $338 forward 7 unknown #
face $-1 $339 $340 $47 $-1 $341 reversed single #
loop $-1 $-1 $342 $134 #
plane-surface $-1 108.78296355858501 11.794397077653844 180.25442976368922 0 1 0 0.86602541151947299 0 0.49999998660252726 forward_v I I I I #
coedge $-1 $343 $344 $345 $346 reversed $135 $-1 #
coedge $-1 $219 $137 $347 $348 reversed $86 $-1 #
coedge $-1 $137 $218 $343 $349 reversed $86 $-1 #
coedge $-1 $345 $350 $137 $221 forward $351 $-1 #
edge $-1 $352 -8.4143899819306753 $353 -6.2172425707145038 $220 $354 forward 7 unknown #
loop $-1 $-1 $227 $138 #
plane-surface $-1 1.6828798976575854e-006 16.166061138549427 117.44855968534594 0.86602541151947299 0 0.49999998660252726 0.49999998660252726 0 -0.86602541151947299 forward_v I I I I #
loop $-1 $-1 $355 $88 #
coedge $-1 $225 $225 $226 $356 reversed $139 $-1 #
coedge $-1 $226 $226 $225 $356 forward $141 $-1 #
coedge $-1 $227 $227 $142 $228 forward $222 $-1 #
edge $-1 $357 0 $357 6.2831853071796004 $227 $358 forward 7 unknown #
loop $-1 $-1 $234 $143 #
plane-surface $-1 1.6828798976575854e-006 16.166061138549427 117.44855968534594 0.86602541151947299 0 0.49999998660252726 0.49999998660252726 0 -0.86602541151947299 forward_v I I I I #
loop $-1 $-1 $359 $91 #
coedge $-1 $232 $232 $233 $360 reversed $144 $-1 #
coedge $-1 $233 $233 $232 $360 forward $146 $-1 #
coedge $-1 $234 $234 $147 $235 forward $229 $-1 #
edge $-1 $361 0 $361 6.2831853071796004 $234 $362 forward 7 unknown #
face $-1 $363 $364 $50 $-1 $365 reversed single #
loop $-1 $-1 $366 $148 #
plane-surface $-1 -161.7892774730519 6.5721922070542806 80.499363244157678 0 -1 0 0.78801076186113728 0 -0.61566146476048833 forward_v I I I I #
coedge $-1 $367 $368 $369 $370 reversed $149 $-1 #
coedge $-1 $241 $151 $371 $372 reversed $95 $-1 #
coedge $-1 $151 $240 $367 $373 reversed $95 $-1 #
coedge $-1 $369 $374 $151 $243 forward $375 $-1 #
edge $-1 $376 18.088766975302768 $377 25.359501176213179 $242 $378 forward 7 unknown #
loop $-1 $-1 $249 $152 #
plane-surface $-1 -62.805871761223173 2.7556582813866477 3.1650532360095838 -0.78801076186113728 0 0.61566146476048833 0.61566146476048833 0 0.78801076186113728 forward_v I I I I #
loop $-1 $-1 $379 $97 #
coedge $-1 $247 $247 $248 $380 reversed $153 $-1 #
coedge $-1 $248 $248 $247 $380 forward $155 $-1 #
coedge $-1 $249 $249 $156 $250 forward $244 $-1 #
edge $-1 $381 0 $381 6.2831853071796004 $249 $382 forward 7 unknown #
loop $-1 $-1 $256 $157 #
plane-surface $-1 -62.805871761223173 2.7556582813866477 3.1650532360095838 -0.78801076186113728 0 0.61566146476048833 0.61566146476048833 0 0.78801076186113728 forward_v I I I I #
loop $-1 $-1 $383 $100 #
coedge $-1 $254 $254 $255 $384 reversed $158 $-1 #
coedge $-1 $255 $255 $254 $384 forward $160 $-1 #
coedge $-1 $256 $256 $161 $257 forward $251 $-1 #
edge $-1 $385 0 $385 6.2831853071796004 $256 $386 forward 7 unknown #
face $-1 $387 $388 $53 $-1 $389 forward single #
loop $-1 $-1 $390 $162 #
plane-surface $-1 -62.80587176122318 0 0 1 0 0 0 0 -1 forward_v I I I I #
coedge $-1 $391 $392 $393 $394 reversed $163 $-1 #
coedge $-1 $395 $165 $396 $397 reversed $104 $-1 #
coedge $-1 $165 $395 $398 $399 reversed $104 $-1 #
coedge $-1 $400 $401 $165 $265 forward $388 $-1 #
edge $-1 $402 -1.1373479346495045e-014 $403 11.809630157279612 $264 $404 forward 7 unknown #
loop $-1 $-1 $271 $166 #
plane-surface $-1 -62.805871761223173 2.7556582813866477 3.1650532360095838 -0.78801076186113728 0 0.61566146476048833 0.61566146476048833 0 0.78801076186113728 forward_v I I I I #
loop $-1 $-1 $405 $106 #
coedge $-1 $269 $269 $270 $406 reversed $167 $-1 #
coedge $-1 $270 $270 $269 $406 forward $169 $-1 #
coedge $-1 $271 $271 $170 $272 forward $266 $-1 #
edge $-1 $407 0 $407 6.2831853071796004 $271 $408 forward 7 unknown #
loop $-1 $-1 $278 $171 #
plane-surface $-1 -62.805871761223173 2.7556582813866477 3.1650532360095838 -0.78801076186113728 0 0.61566146476048833 0.61566146476048833 0 0.78801076186113728 forward_v I I I I #
loop $-1 $-1 $409 $109 #
coedge $-1 $276 $276 $277 $410 reversed $172 $-1 #
coedge $-1 $277 $277 $276 $410 forward $174 $-1 #
coedge $-1 $278 $278 $175 $279 forward $273 $-1 #
edge $-1 $411 0 $411 6.2831853071796004 $278 $412 forward 7 unknown #
face $-1 $413 $414 $42 $-1 $415 reversed single #
loop $-1 $-1 $416 $176 #
plane-surface $-1 -62.80587176122318 0 0 1 0 0 0 0 -1 forward_v I I I I #
coedge $-1 $417 $291 $418 $419 forward $177 $-1 #
coedge $-1 $420 $179 $417 $421 forward $113 $-1 #
coedge $-1 $179 $420 $422 $423 forward $113 $-1 #
coedge $-1 $294 $293 $179 $287 reversed $295 $-1 #
edge $-1 $424 -31.332591464167091 $425 31.332591464167091 $286 $426 forward 7 unknown #
coedge $-1 $181 $180 $427 $428 forward $71 $-1 #
coedge $-1 $429 $430 $180 $290 reversed $414 $-1 #
edge $-1 $297 -62.80587176122318 $431 62.80587176122318 $289 $432 forward 7 unknown #
coedge $-1 $283 $433 $181 $292 reversed $177 $-1 #
edge $-1 $434 -62.80587176122318 $296 62.80587176122318 $291 $435 forward 7 unknown #
coedge $-1 $286 $182 $433 $436 forward $295 $-1 #
coedge $-1 $182 $286 $429 $437 reversed $295 $-1 #
loop $-1 $-1 $293 $413 #
vertex $-1 $183 $438 #
vertex $-1 $183 $439 #
straight-curve $-1 62.80587176122318 0 12.471168893545752 0 1 0 I I #
face $-1 $440 $441 $43 $-1 $442 reversed single #
loop $-1 $-1 $443 $184 #
plane-surface $-1 0 0 12.471168893545752 0 0 1 1 0 0 forward_v I I I I #
coedge $-1 $444 $445 $446 $447 reversed $185 $-1 #
coedge $-1 $190 $187 $448 $449 reversed $117 $-1 #
coedge $-1 $187 $190 $450 $451 reversed $117 $-1 #
coedge $-1 $445 $444 $187 $306 reversed $185 $-1 #
edge $-1 $452 -12.471168893545752 $453 12.471168893545752 $305 $454 forward 7 unknown #
coedge $-1 $189 $188 $455 $456 reversed $74 $-1 #
coedge $-1 $448 $457 $188 $309 forward $441 $-1 #
edge $-1 $458 -18.952391835610683 $313 -5.8080074215021256 $308 $459 forward 7 unknown #
coedge $-1 $460 $450 $189 $311 forward $300 $-1 #
edge $-1 $312 5.8080074215021256 $461 18.952391835610683 $310 $462 forward 7 unknown #
vertex $-1 $311 $463 #
vertex $-1 $309 $464 #
straight-curve $-1 -41.363533974131677 -18.18820705005853 0 0 0 -1 I I #
face $-1 $-1 $327 $44 $-1 $465 forward single #
loop $-1 $-1 $466 $192 #
plane-surface $-1 62.80587176122318 0 0 -1 0 0 0 0 1 forward_v I I I I #
coedge $-1 $467 $468 $469 $470 reversed $193 $-1 #
coedge $-1 $471 $195 $197 $325 forward $121 $-1 #
coedge $-1 $195 $471 $467 $472 forward $121 $-1 #
coedge $-1 $469 $198 $195 $322 forward $327 $-1 #
edge $-1 $329 -0.074495001613891887 $473 8.6688331201772737 $321 $474 forward 7 unknown #
coedge $-1 $475 $476 $196 $324 forward $316 $-1 #
edge $-1 $477 -81.461617072203794 $328 -77.656045988298857 $323 $478 forward 7 unknown #
edge $-1 $329 121.21744858226914 $477 125.61174352244639 $197 $479 forward 7 unknown #
coedge $-1 $198 $469 $475 $480 forward $327 $-1 #
loop $-1 $-1 $469 $315 #
vertex $-1 $324 $481 #
vertex $-1 $199 $482 #
straight-curve $-1 54.391481779292505 -4.222674057667799 12.471168893545752 -1 0 0 I I #
coedge $-1 $331 $331 $-1 $483 reversed $202 $-1 #
edge $-1 $484 0 $484 6.2831853071796004 $203 $485 forward 7 unknown #
vertex $-1 $206 $486 #
ellipse-curve $-1 61.707298055615091 -10.467908430375775 10.568383351593285 0.86602541151947299 0 0.49999998660252726 0.49999998660252726 0 -0.86602541151947299 1 I I #
coedge $-1 $335 $335 $-1 $487 reversed $209 $-1 #
edge $-1 $488 0 $488 6.2831853071796004 $210 $489 forward 7 unknown #
vertex $-1 $213 $490 #
ellipse-curve $-1 61.707298055615091 -6.7207678067509882 10.568383351593285 0.86602541151947299 0 0.49999998660252726 0.49999998660252726 0 -0.86602541151947299 1 I I #
face $-1 $-1 $351 $47 $-1 $491 forward single #
loop $-1 $-1 $492 $214 #
plane-surface $-1 62.80587176122318 0 0 -1 0 0 0 0 1 forward_v I I I I #
coedge $-1 $493 $494 $495 $496 reversed $215 $-1 #
coedge $-1 $497 $217 $219 $349 forward $135 $-1 #
coedge $-1 $217 $497 $493 $498 forward $135 $-1 #
coedge $-1 $495 $220 $217 $346 forward $351 $-1 #
edge $-1 $353 -12.454694630170296 $499 -3.7113665083791307 $345 $500 forward 7 unknown #
coedge $-1 $501 $502 $218 $348 forward $340 $-1 #
edge $-1 $503 -81.461617072203794 $352 -77.656045988298857 $347 $504 forward 7 unknown #
edge $-1 $353 121.21744858226914 $503 125.61174352244639 $219 $505 forward 7 unknown #
coedge $-1 $220 $495 $501 $506 forward $351 $-1 #
loop $-1 $-1 $495 $339 #
vertex $-1 $348 $507 #
vertex $-1 $221 $508 #
straight-curve $-1 54.391481779292505 20.53772519944501 12.471168893545752 -1 0 0 I I #
coedge $-1 $355 $355 $-1 $509 reversed $224 $-1 #
edge $-1 $510 0 $510 6.2831853071796004 $225 $511 forward 7 unknown #
vertex $-1 $228 $512 #
ellipse-curve $-1 61.707298055615091 14.292490826737033 10.568383351593285 0.86602541151947299 0 0.49999998660252726 0.49999998660252726 0 -0.86602541151947299 1 I I #
coedge $-1 $359 $359 $-1 $513 reversed $231 $-1 #
edge $-1 $514 0 $514 6.2831853071796004 $232 $515 forward 7 unknown #
vertex $-1 $235 $516 #
ellipse-curve $-1 61.707298055615091 18.039631450361821 10.568383351593285 0.86602541151947299 0 0.49999998660252726 0.49999998660252726 0 -0.86602541151947299 1 I I #
face $-1 $-1 $375 $50 $-1 $517 forward single #
loop $-1 $-1 $518 $236 #
plane-surface $-1 -62.80587176122318 0 0 1 0 0 0 0 -1 forward_v I I I I #
coedge $-1 $519 $520 $521 $522 reversed $237 $-1 #
coedge $-1 $523 $239 $241 $373 forward $149 $-1 #
coedge $-1 $239 $523 $519 $524 forward $149 $-1 #
coedge $-1 $521 $242 $239 $370 forward $375 $-1 #
edge $-1 $377 -2.4387047849743091 $525 5.1943630663609568 $369 $526 forward 7 unknown #
coedge $-1 $527 $528 $240 $372 forward $364 $-1 #
edge $-1 $529 -37.084628386069262 $376 -27.778512728533087 $371 $530 forward 7 unknown #
edge $-1 $377 -11.809630157279612 $529 1.1373479346495045e-014 $241 $531 forward 7 unknown #
coedge $-1 $242 $521 $527 $532 forward $375 $-1 #
loop $-1 $-1 $521 $363 #
vertex $-1 $372 $533 #
vertex $-1 $243 $534 #
straight-curve $-1 -80.894638736525948 -1.0608756442809852 12.471168893545752 1 0 0 I I #
coedge $-1 $379 $379 $-1 $535 reversed $246 $-1 #
edge $-1 $536 0 $536 6.2831853071796004 $247 $537 forward 7 unknown #
vertex $-1 $250 $538 #
ellipse-curve $-1 -59.170504660767975 1.1200008846719491 7.8181110647776642 -0.78801076186113728 0 0.61566146476048833 0.30783073238024417 0 0.39400538093056864 1 I I #
coedge $-1 $383 $383 $-1 $539 reversed $253 $-1 #
edge $-1 $540 0 $540 6.2831853071796004 $254 $541 forward 7 unknown #
vertex $-1 $257 $542 #
ellipse-curve $-1 -59.170504660767975 4.3913156781013463 7.8181110647776642 -0.78801076186113728 0 0.61566146476048833 0.30783073238024417 0 0.39400538093056864 1 I I #
face $-1 $-1 $543 $53 $-1 $544 forward single #
loop $-1 $-1 $400 $258 #
plane-surface $-1 -161.7892774730519 6.5721922070542806 80.499363244157678 0 -1 0 0.78801076186113728 0 -0.61566146476048833 forward_v I I I I #
coedge $-1 $396 $545 $392 $546 forward $259 $-1 #
coedge $-1 $392 $261 $395 $547 reversed $163 $-1 #
coedge $-1 $261 $391 $390 $546 reversed $163 $-1 #
coedge $-1 $548 $398 $261 $394 forward $543 $-1 #
edge $-1 $549 -25.359501176213179 $550 -18.088766975302768 $393 $551 forward 7 unknown #
coedge $-1 $263 $262 $391 $547 forward $104 $-1 #
coedge $-1 $552 $390 $262 $397 forward $259 $-1 #
edge $-1 $553 -12.827430917696219 $402 -5.1943630663609568 $396 $554 forward 7 unknown #
coedge $-1 $393 $555 $263 $399 forward $543 $-1 #
edge $-1 $403 5.1943630663609568 $549 12.827430917696219 $398 $556 forward 7 unknown #
coedge $-1 $401 $264 $555 $557 reversed $388 $-1 #
coedge $-1 $264 $400 $552 $558 reversed $388 $-1 #
vertex $-1 $397 $559 #
vertex $-1 $399 $560 #
straight-curve $-1 -62.805871761223173 6.5721922070542806 3.1650532360095838 0.61566146476048833 0 0.78801076186113728 I I #
coedge $-1 $405 $405 $-1 $561 reversed $268 $-1 #
edge $-1 $562 0 $562 6.2831853071796004 $269 $563 forward 7 unknown #
vertex $-1 $272 $564 #
ellipse-curve $-1 -59.170504660767975 8.7530687360072115 7.8181110647776642 -0.78801076186113728 0 0.61566146476048833 0.30783073238024417 0 0.39400538093056864 1 I I #
coedge $-1 $409 $409 $-1 $565 reversed $275 $-1 #
edge $-1 $566 0 $566 6.2831853071796004 $276 $567 forward 7 unknown #
vertex $-1 $279 $568 #
ellipse-curve $-1 -59.170504660767975 12.024383529436609 7.8181110647776642 -0.78801076186113728 0 0.61566146476048833 0.30783073238024417 0 0.39400538093056864 1 I I #
face $-1 $-1 $295 $42 $-1 $569 reversed single #
loop $-1 $-1 $429 $280 #
plane-surface $-1 0 31.332591464167091 0 0 -1 0 0 0 -1 forward_v I I I I #
coedge $-1 $570 $427 $430 $571 forward $281 $-1 #
coedge $-1 $433 $283 $284 $421 reversed $177 $-1 #
coedge $-1 $427 $570 $283 $419 reversed $281 $-1 #
edge $-1 $434 -12.471168893545752 $572 12.471168893545752 $418 $573 forward 7 unknown #
coedge $-1 $285 $284 $570 $574 forward $113 $-1 #
edge $-1 $425 -62.80587176122318 $572 62.80587176122318 $417 $575 forward 7 unknown #
coedge $-1 $430 $429 $285 $423 reversed $414 $-1 #
edge $-1 $576 -62.80587176122318 $424 62.80587176122318 $422 $577 forward 7 unknown #
vertex $-1 $287 $578 #
vertex $-1 $436 $579 #
straight-curve $-1 62.80587176122318 0 -12.471168893545752 0 -1 0 I I #
coedge $-1 $416 $418 $288 $428 reversed $281 $-1 #
edge $-1 $431 -31.332591464167091 $434 31.332591464167091 $427 $580 forward 7 unknown #
coedge $-1 $422 $289 $294 $437 forward $414 $-1 #
coedge $-1 $289 $422 $416 $571 reversed $414 $-1 #
vertex $-1 $290 $581 #
straight-curve $-1 0 31.332591464167091 12.471168893545752 -1 0 0 I I #
coedge $-1 $291 $417 $293 $436 reversed $177 $-1 #
vertex $-1 $428 $582 #
straight-curve $-1 0 -31.332591464167091 12.471168893545752 1 0 0 I I #
edge $-1 $296 -12.471168893545752 $425 12.471168893545752 $293 $583 forward 7 unknown #
edge $-1 $297 -12.471168893545752 $424 12.471168893545752 $294 $584 forward 7 unknown #
point $-1 62.80587176122318 -31.332591464167091 12.471168893545752 #
point $-1 62.80587176122318 31.332591464167091 12.471168893545752 #
face $-1 $-1 $585 $43 $-1 $586 reversed single #
loop $-1 $-1 $587 $299 #
plane-surface $-1 0 0 -12.471168893545752 0 0 1 1 0 0 forward_v I I I I #
coedge $-1 $450 $460 $445 $588 forward $300 $-1 #
coedge $-1 $305 $302 $587 $589 reversed $185 $-1 #
coedge $-1 $302 $305 $443 $588 reversed $185 $-1 #
coedge $-1 $590 $591 $302 $447 forward $585 $-1 #
edge $-1 $592 -12.471168893545752 $593 12.471168893545752 $446 $594 forward 7 unknown #
coedge $-1 $587 $308 $303 $449 forward $441 $-1 #
edge $-1 $313 -21.431766987065838 $453 -18.431766987065838 $448 $595 forward 7 unknown #
coedge $-1 $310 $443 $304 $451 forward $300 $-1 #
edge $-1 $452 18.431766987065838 $312 21.431766987065838 $450 $596 forward 7 unknown #
vertex $-1 $451 $597 #
vertex $-1 $449 $598 #
straight-curve $-1 -38.363533974131677 -18.18820705005853 0 0 0 -1 I I #
coedge $-1 $591 $590 $307 $456 forward $585 $-1 #
edge $-1 $461 -12.471168893545752 $458 12.471168893545752 $455 $599 forward 7 unknown #
coedge $-1 $308 $587 $591 $600 forward $441 $-1 #
vertex $-1 $309 $601 #
straight-curve $-1 -41.363533974131677 -12.380199628556404 -12.471168893545752 0 1 0 I I #
coedge $-1 $443 $310 $590 $602 forward $300 $-1 #
vertex $-1 $602 $603 #
straight-curve $-1 -41.363533974131677 -12.380199628556404 12.471168893545752 0 -1 0 I I #
point $-1 -41.363533974131677 -18.18820705005853 12.471168893545752 #
point $-1 -41.363533974131677 -18.18820705005853 -12.471168893545752 #
plane-surface $-1 0 0 12.471168893545752 0 0 1 1 0 0 forward_v I I I I #
coedge $-1 $476 $475 $468 $604 forward $316 $-1 #
coedge $-1 $468 $318 $320 $472 reversed $193 $-1 #
coedge $-1 $318 $467 $466 $604 reversed $193 $-1 #
coedge $-1 $326 $321 $318 $470 forward $327 $-1 #
edge $-1 $473 6.2172425707145038 $605 8.4143899819306753 $469 $606 forward 7 unknown #
coedge $-1 $320 $319 $476 $607 reversed $121 $-1 #
edge $-1 $608 -125.61174352244639 $473 -121.21744858226914 $467 $609 forward 7 unknown #
vertex $-1 $322 $610 #
straight-curve $-1 60.608724350007009 -4.2971690592816909 12.471168893545752 0 -1 0 I I #
coedge $-1 $466 $323 $326 $480 reversed $316 $-1 #
coedge $-1 $323 $466 $471 $607 forward $316 $-1 #
vertex $-1 $324 $611 #
straight-curve $-1 62.80587176122318 -4.222674057667799 90.127214881844608 0 0 1 I I #
straight-curve $-1 1.6828798976575854e-006 -4.222674057667799 117.44855968534594 0.49999998660252726 0 -0.86602541151947299 I I #
edge $-1 $605 -12.966002179458965 $328 -4.222674057667799 $475 $612 forward 7 unknown #
point $-1 62.80587176122318 -4.222674057667799 12.471168893545752 #
point $-1 60.608724350007009 -4.222674057667799 12.471168893545752 #
edge $-1 $613 1 $613 0 $331 $-1 forward 7 unknown #
vertex $-1 $332 $614 #
ellipse-curve $-1 60.182694769885536 -10.467908430375775 9.6881532656175633 0.86602541151947299 0 0.49999998660252726 0.49999998660252726 0 -0.86602541151947299 1 I I #
point $-1 62.20729804221763 -10.467908430375775 9.7023579400738207 #
edge $-1 $615 1 $615 0 $335 $-1 forward 7 unknown #
vertex $-1 $336 $616 #
ellipse-curve $-1 60.182694769885536 -6.7207678067509882 9.6881532656175633 0.86602541151947299 0 0.49999998660252726 0.49999998660252726 0 -0.86602541151947299 1 I I #
point $-1 62.20729804221763 -6.7207678067509882 9.7023579400738207 #
plane-surface $-1 0 0 12.471168893545752 0 0 1 1 0 0 forward_v I I I I #
coedge $-1 $502 $501 $494 $617 forward $340 $-1 #
coedge $-1 $494 $342 $344 $498 reversed $215 $-1 #
coedge $-1 $342 $493 $492 $617 reversed $215 $-1 #
coedge $-1 $350 $345 $342 $496 forward $351 $-1 #
edge $-1 $499 6.2172425707145038 $618 8.4143899819306753 $495 $619 forward 7 unknown #
coedge $-1 $344 $343 $502 $620 reversed $135 $-1 #
edge $-1 $621 -125.61174352244639 $499 -121.21744858226914 $493 $622 forward 7 unknown #
vertex $-1 $346 $623 #
straight-curve $-1 60.608724350007009 8.0830305692747135 12.471168893545752 0 -1 0 I I #
coedge $-1 $492 $347 $350 $506 reversed $340 $-1 #
coedge $-1 $347 $492 $497 $620 forward $340 $-1 #
vertex $-1 $348 $624 #
straight-curve $-1 62.80587176122318 20.53772519944501 90.127214881844608 0 0 1 I I #
straight-curve $-1 1.6828798976575854e-006 20.53772519944501 117.44855968534594 0.49999998660252726 0 -0.86602541151947299 I I #
edge $-1 $618 11.794397077653844 $352 20.53772519944501 $501 $625 forward 7 unknown #
point $-1 62.80587176122318 20.53772519944501 12.471168893545752 #
point $-1 60.608724350007009 20.53772519944501 12.471168893545752 #
edge $-1 $626 1 $626 0 $355 $-1 forward 7 unknown #
vertex $-1 $356 $627 #
ellipse-curve $-1 60.182694769885536 14.292490826737033 9.6881532656175633 0.86602541151947299 0 0.49999998660252726 0.49999998660252726 0 -0.86602541151947299 1 I I #
point $-1 62.20729804221763 14.292490826737033 9.7023579400738207 #
edge $-1 $628 1 $628 0 $359 $-1 forward 7 unknown #
vertex $-1 $360 $629 #
ellipse-curve $-1 60.182694769885536 18.039631450361821 9.6881532656175633 0.86602541151947299 0 0.49999998660252726 0.49999998660252726 0 -0.86602541151947299 1 I I #
point $-1 62.20729804221763 18.039631450361821 9.7023579400738207 #
plane-surface $-1 0 0 12.471168893545752 0 0 1 1 0 0 forward_v I I I I #
coedge $-1 $528 $527 $520 $630 forward $364 $-1 #
coedge $-1 $520 $366 $368 $524 reversed $237 $-1 #
coedge $-1 $366 $519 $518 $630 reversed $237 $-1 #
coedge $-1 $374 $369 $366 $522 forward $375 $-1 #
edge $-1 $525 -25.359501176213179 $631 -18.088766975302768 $521 $632 forward 7 unknown #
coedge $-1 $368 $367 $528 $633 reversed $149 $-1 #
edge $-1 $634 -1.1373479346495045e-014 $525 11.809630157279612 $519 $635 forward 7 unknown #
vertex $-1 $370 $636 #
straight-curve $-1 -55.535137560312769 1.3778291406933239 12.471168893545752 0 1 0 I I #
coedge $-1 $518 $371 $374 $532 reversed $364 $-1 #
coedge $-1 $371 $518 $523 $633 forward $364 $-1 #
vertex $-1 $372 $637 #
straight-curve $-1 -62.80587176122318 -1.0608756442809852 40.249681622078839 0 0 1 I I #
straight-curve $-1 -62.805871761223173 -1.0608756442809852 3.1650532360095838 -0.61566146476048833 0 -0.78801076186113728 I I #
edge $-1 $631 -6.5721922070542806 $376 1.0608756442809852 $527 $638 forward 7 unknown #
point $-1 -62.80587176122318 -1.0608756442809852 12.471168893545752 #
point $-1 -55.535137560312769 -1.0608756442809852 12.471168893545752 #
edge $-1 $639 1 $639 0 $379 $-1 forward 7 unknown #
vertex $-1 $380 $640 #
ellipse-curve $-1 -58.382493898906837 1.1200008846719491 7.2024496000171778 -0.78801076186113728 0 0.61566146476048833 0.30783073238024417 0 0.39400538093056864 1 I I #
point $-1 -58.862673928387728 1.1200008846719491 8.2121164457082347 #
edge $-1 $641 1 $641 0 $383 $-1 forward 7 unknown #
vertex $-1 $384 $642 #
ellipse-curve $-1 -58.382493898906837 4.3913156781013463 7.2024496000171778 -0.78801076186113728 0 0.61566146476048833 0.30783073238024417 0 0.39400538093056864 1 I I #
point $-1 -58.862673928387728 4.3913156781013463 8.2121164457082347 #
loop $-1 $-1 $393 $387 #
plane-surface $-1 0 0 12.471168893545752 0 0 1 1 0 0 forward_v I I I I #
coedge $-1 $390 $552 $548 $643 reversed $259 $-1 #
edge $-1 $550 27.778512728533087 $553 37.084628386069262 $390 $644 forward 7 unknown #
edge $-1 $553 -1.1373479346495045e-014 $549 11.809630157279612 $391 $645 forward 7 unknown #
coedge $-1 $555 $393 $545 $643 forward $543 $-1 #
vertex $-1 $394 $646 #
vertex $-1 $643 $647 #
straight-curve $-1 -80.894638736525948 14.205260058389543 12.471168893545752 -1 0 0 I I #
coedge $-1 $545 $396 $401 $558 forward $259 $-1 #
vertex $-1 $546 $648 #
straight-curve $-1 -62.80587176122318 1.3778291406933239 3.1650532360095678 0 -1 0 I I #
coedge $-1 $398 $548 $400 $557 forward $543 $-1 #
straight-curve $-1 -55.535137560312769 1.3778291406933239 12.471168893545752 0 1 0 I I #
edge $-1 $649 18.088766975302768 $403 25.359501176213179 $555 $650 forward 7 unknown #
edge $-1 $402 -37.084628386069262 $649 -27.778512728533087 $552 $651 forward 7 unknown #
point $-1 -62.80587176122318 6.5721922070542806 3.1650532360095749 #
point $-1 -55.535137560312769 6.5721922070542806 12.471168893545752 #
edge $-1 $652 1 $652 0 $405 $-1 forward 7 unknown #
vertex $-1 $406 $653 #
ellipse-curve $-1 -58.382493898906837 8.7530687360072115 7.2024496000171778 -0.78801076186113728 0 0.61566146476048833 0.30783073238024417 0 0.39400538093056864 1 I I #
point $-1 -58.862673928387728 8.7530687360072115 8.2121164457082347 #
edge $-1 $654 1 $654 0 $409 $-1 forward 7 unknown #
vertex $-1 $410 $655 #
ellipse-curve $-1 -58.382493898906837 12.024383529436609 7.2024496000171778 -0.78801076186113728 0 0.61566146476048833 0.30783073238024417 0 0.39400538093056864 1 I I #
point $-1 -58.862673928387728 12.024383529436609 8.2121164457082347 #
plane-surface $-1 62.80587176122318 0 0 -1 0 0 0 0 1 forward_v I I I I #
coedge $-1 $418 $416 $420 $574 reversed $281 $-1 #
edge $-1 $431 -12.471168893545752 $576 12.471168893545752 $430 $656 forward 7 unknown #
vertex $-1 $574 $657 #
straight-curve $-1 -62.80587176122318 -31.332591464167091 0 0 0 -1 I I #
edge $-1 $572 -31.332591464167091 $576 31.332591464167091 $570 $658 forward 7 unknown #
straight-curve $-1 0 -31.332591464167091 -12.471168893545752 -1 0 0 I I #
vertex $-1 $423 $659 #
straight-curve $-1 0 31.332591464167091 -12.471168893545752 1 0 0 I I #
point $-1 62.80587176122318 31.332591464167091 -12.471168893545752 #
point $-1 62.80587176122318 -31.332591464167091 -12.471168893545752 #
straight-curve $-1 -62.80587176122318 0 12.471168893545752 0 -1 0 I I #
point $-1 -62.80587176122318 31.332591464167091 12.471168893545752 #
point $-1 -62.80587176122318 -31.332591464167091 12.471168893545752 #
straight-curve $-1 62.80587176122318 -31.332591464167091 0 0 0 -1 I I #
straight-curve $-1 62.80587176122318 31.332591464167091 0 0 0 -1 I I #
loop $-1 $-1 $446 $440 #
plane-surface $-1 0 -31.332591464167091 0 0 1 0 0 0 1 forward_v I I I I #
coedge $-1 $457 $448 $444 $589 forward $441 $-1 #
edge $-1 $593 -18.952391835610683 $452 -5.8080074215021256 $443 $660 forward 7 unknown #
edge $-1 $453 5.8080074215021256 $592 18.952391835610683 $587 $661 forward 7 unknown #
coedge $-1 $455 $446 $460 $602 reversed $585 $-1 #
coedge $-1 $446 $455 $457 $600 reversed $585 $-1 #
vertex $-1 $600 $662 #
vertex $-1 $447 $663 #
straight-curve $-1 -38.363533974131677 -31.332591464167091 0 0 0 1 I I #
straight-curve $-1 -19.931766987065838 -18.18820705005853 -12.471168893545752 1 0 0 I I #
straight-curve $-1 -19.931766987065838 -18.18820705005853 12.471168893545752 -1 0 0 I I #
point $-1 -38.363533974131677 -18.18820705005853 12.471168893545752 #
point $-1 -38.363533974131677 -18.18820705005853 -12.471168893545752 #
straight-curve $-1 -41.363533974131677 -31.332591464167091 0 0 0 -1 I I #
edge $-1 $592 38.363533974131677 $458 41.363533974131677 $591 $664 forward 7 unknown #
point $-1 -41.363533974131677 -31.332591464167088 -12.471168893545752 #
edge $-1 $461 -41.363533974131677 $593 -38.363533974131677 $590 $665 forward 7 unknown #
point $-1 -41.363533974131677 -31.332591464167088 12.471168893545752 #
edge $-1 $605 77.656045988298857 $608 81.461617072203794 $466 $666 forward 7 unknown #
vertex $-1 $480 $667 #
straight-curve $-1 54.391481779292505 -12.966002179458965 12.471168893545752 1 0 0 I I #
edge $-1 $608 -8.6688331201772737 $477 0.074495001613891887 $476 $668 forward 7 unknown #
vertex $-1 $607 $669 #
straight-curve $-1 1.6828798976575854e-006 -12.966002179458965 117.44855968534594 -0.49999998660252726 0 0.86602541151947299 I I #
point $-1 60.608724350007009 -12.966002179458965 12.471168893545752 #
point $-1 62.80587176122318 -4.222674057667799 8.6655978096408148 #
straight-curve $-1 62.80587176122318 0 12.471168893545752 0 1 0 I I #
vertex $-1 $483 $670 #
point $-1 60.682694756488061 -10.467908430375775 8.8221278540980901 #
vertex $-1 $487 $671 #
point $-1 60.682694756488061 -6.7207678067509882 8.8221278540980901 #
edge $-1 $618 77.656045988298857 $621 81.461617072203794 $492 $672 forward 7 unknown #
vertex $-1 $506 $673 #
straight-curve $-1 54.391481779292505 11.794397077653844 12.471168893545752 1 0 0 I I #
edge $-1 $621 3.7113665083791307 $503 12.454694630170296 $502 $674 forward 7 unknown #
vertex $-1 $620 $675 #
straight-curve $-1 1.6828798976575854e-006 11.794397077653844 117.44855968534594 -0.49999998660252726 0 0.86602541151947299 I I #
point $-1 60.608724350007009 11.794397077653844 12.471168893545752 #
point $-1 62.80587176122318 20.53772519944501 8.6655978096408148 #
straight-curve $-1 62.80587176122318 0 12.471168893545752 0 1 0 I I #
vertex $-1 $509 $676 #
point $-1 60.682694756488061 14.292490826737033 8.8221278540980901 #
vertex $-1 $513 $677 #
point $-1 60.682694756488061 18.039631450361821 8.8221278540980901 #
edge $-1 $631 27.778512728533087 $634 37.084628386069262 $518 $678 forward 7 unknown #
vertex $-1 $532 $679 #
straight-curve $-1 -80.894638736525948 6.5721922070542806 12.471168893545752 -1 0 0 I I #
edge $-1 $634 -5.1943630663609568 $529 2.4387047849743091 $528 $680 forward 7 unknown #
vertex $-1 $633 $681 #
straight-curve $-1 -62.805871761223173 6.5721922070542806 3.1650532360095838 0.61566146476048833 0 0.78801076186113728 I I #
point $-1 -55.535137560312769 6.5721922070542806 12.471168893545752 #
point $-1 -62.80587176122318 -1.0608756442809852 3.1650532360095749 #
straight-curve $-1 -62.80587176122318 0 12.471168893545752 0 -1 0 I I #
vertex $-1 $535 $682 #
point $-1 -58.074663166526598 1.1200008846719491 7.5964549809477466 #
vertex $-1 $539 $683 #
point $-1 -58.074663166526598 4.3913156781013463 7.5964549809477466 #
edge $-1 $550 -14.205260058389543 $649 -6.5721922070542806 $545 $684 forward 7 unknown #
straight-curve $-1 -62.80587176122318 14.205260058389543 40.249681622078839 0 0 -1 I I #
straight-curve $-1 -62.805871761223173 14.205260058389543 3.1650532360095838 0.61566146476048833 0 0.78801076186113728 I I #
point $-1 -55.535137560312769 14.205260058389543 12.471168893545752 #
point $-1 -62.80587176122318 14.205260058389543 12.471168893545752 #
point $-1 -62.80587176122318 14.205260058389543 3.1650532360095749 #
vertex $-1 $558 $685 #
straight-curve $-1 -80.894638736525948 6.5721922070542806 12.471168893545752 1 0 0 I I #
straight-curve $-1 -62.80587176122318 6.5721922070542806 40.249681622078839 0 0 1 I I #
vertex $-1 $561 $686 #
point $-1 -58.074663166526598 8.7530687360072115 7.5964549809477466 #
vertex $-1 $565 $687 #
point $-1 -58.074663166526598 12.024383529436609 7.5964549809477466 #
straight-curve $-1 -62.80587176122318 31.332591464167091 0 0 0 -1 I I #
point $-1 -62.80587176122318 -31.332591464167091 -12.471168893545752 #
straight-curve $-1 -62.80587176122318 0 -12.471168893545752 0 1 0 I I #
point $-1 -62.80587176122318 31.332591464167091 -12.471168893545752 #
straight-curve $-1 -38.363533974131677 -12.380199628556404 12.471168893545752 0 1 0 I I #
straight-curve $-1 -38.363533974131677 -12.380199628556404 -12.471168893545752 0 -1 0 I I #
point $-1 -38.363533974131677 -31.332591464167088 -12.471168893545752 #
point $-1 -38.363533974131677 -31.332591464167088 12.471168893545752 #
straight-curve $-1 0 -31.332591464167091 -12.471168893545752 -1 0 0 I I #
straight-curve $-1 0 -31.332591464167091 12.471168893545752 1 0 0 I I #
straight-curve $-1 62.80587176122318 -12.966002179458965 90.127214881844608 0 0 -1 I I #
point $-1 62.80587176122318 -12.966002179458965 12.471168893545752 #
straight-curve $-1 62.80587176122318 -4.2971690592816909 8.6655978096408148 0 1 0 I I #
point $-1 62.80587176122318 -12.966002179458965 8.6655978096408148 #
point $-1 59.316669358366063 -10.467908430375775 9.1881532790150349 #
point $-1 59.316669358366063 -6.7207678067509882 9.1881532790150349 #
straight-curve $-1 62.80587176122318 11.794397077653844 90.127214881844608 0 0 -1 I I #
point $-1 62.80587176122318 11.794397077653844 12.471168893545752 #
straight-curve $-1 62.80587176122318 8.0830305692747135 8.6655978096408148 0 1 0 I I #
point $-1 62.80587176122318 11.794397077653844 8.6655978096408148 #
point $-1 59.316669358366063 14.292490826737033 9.1881532790150349 #
point $-1 59.316669358366063 18.039631450361821 9.1881532790150349 #
straight-curve $-1 -62.80587176122318 6.5721922070542806 40.249681622078839 0 0 -1 I I #
point $-1 -62.80587176122318 6.5721922070542806 12.471168893545752 #
straight-curve $-1 -62.80587176122318 1.3778291406933239 3.1650532360095678 0 -1 0 I I #
point $-1 -62.80587176122318 6.5721922070542806 3.1650532360095749 #
point $-1 -57.988488517976272 1.1200008846719491 6.8946188676369333 #
point $-1 -57.988488517976272 4.3913156781013463 6.8946188676369333 #
straight-curve $-1 -62.80587176122318 0 12.471168893545752 0 -1 0 I I #
point $-1 -62.80587176122318 6.5721922070542806 12.471168893545752 #
point $-1 -57.988488517976272 8.7530687360072115 6.8946188676369333 #
point $-1 -57.988488517976272 12.024383529436609 6.8946188676369333 #
End-of-ACIS-data 