500 0 12 0           
7 Unknown 11 ACIS 5.0 NT 24 Fri Mar 26 02:06:55 1999 
-1 9.9999999999999995e-007 1e-010 
body $-1 $12 $-1 $13 #
body $-1 $14 $-1 $15 #
body $-1 $16 $-1 $17 #
body $-1 $18 $-1 $19 #
body $-1 $20 $-1 $21 #
body $-1 $22 $-1 $23 #
body $-1 $24 $-1 $25 #
body $-1 $26 $-1 $27 #
body $-1 $28 $-1 $29 #
body $-1 $30 $-1 $31 #
body $-1 $32 $-1 $33 #
body $-1 $34 $-1 $35 #
lump $-1 $-1 $36 $0 #
transform $-1 1 0 0 0 1 0 0 0 1 72.072511978514967 43.342046831770908 10.847350183211882 1 rotate no_reflect no_shear #
lump $-1 $-1 $37 $1 #
transform $-1 1 0 0 0 1 0 0 0 1 72.072511978514967 43.342046831770908 10.847350183211882 1 rotate no_reflect no_shear #
lump $-1 $-1 $38 $2 #
transform $-1 1 0 0 0 1 0 0 0 1 72.072511978514967 43.342046831770908 10.847350183211882 1 rotate no_reflect no_shear #
lump $-1 $-1 $39 $3 #
transform $-1 1 0 0 0 1 0 0 0 1 72.072511978514967 43.342046831770908 10.847350183211882 1 rotate no_reflect no_shear #
lump $-1 $-1 $40 $4 #
transform $-1 1 0 0 0 1 0 0 0 1 72.072511978514967 43.342046831770908 10.847350183211882 1 rotate no_reflect no_shear #
lump $-1 $-1 $41 $5 #
transform $-1 1 0 0 0 1 0 0 0 1 72.072511978514967 43.342046831770908 10.847350183211882 1 rotate no_reflect no_shear #
lump $-1 $-1 $42 $6 #
transform $-1 1 0 0 0 1 0 0 0 1 72.072511978514967 43.342046831770908 10.847350183211882 1 rotate no_reflect no_shear #
lump $-1 $-1 $43 $7 #
transform $-1 1 0 0 0 1 0 0 0 1 72.072511978514967 43.342046831770908 10.847350183211882 1 rotate no_reflect no_shear #
lump $-1 $-1 $44 $8 #
transform $-1 1 0 0 0 1 0 0 0 1 72.072511978514967 43.342046831770908 10.847350183211882 1 rotate no_reflect no_shear #
lump $-1 $-1 $45 $9 #
transform $-1 1 0 0 0 1 0 0 0 1 72.072511978514967 43.342046831770908 10.847350183211882 1 rotate no_reflect no_shear #
lump $-1 $-1 $46 $10 #
transform $-1 1 0 0 0 1 0 0 0 1 72.072511978514967 43.342046831770908 10.847350183211882 1 rotate no_reflect no_shear #
lump $-1 $-1 $47 $11 #
transform $-1 1 0 0 0 1 0 0 0 1 72.072511978514967 43.342046831770908 10.847350183211882 1 rotate no_reflect no_shear #
shell $-1 $-1 $-1 $48 $-1 $12 #
shell $-1 $-1 $-1 $49 $-1 $14 #
shell $-1 $-1 $-1 $50 $-1 $16 #
shell $-1 $-1 $-1 $51 $-1 $18 #
shell $-1 $-1 $-1 $52 $-1 $20 #
shell $-1 $-1 $-1 $53 $-1 $22 #
shell $-1 $-1 $-1 $54 $-1 $24 #
shell $-1 $-1 $-1 $55 $-1 $26 #
shell $-1 $-1 $-1 $56 $-1 $28 #
shell $-1 $-1 $-1 $57 $-1 $30 #
shell $-1 $-1 $-1 $58 $-1 $32 #
shell $-1 $-1 $-1 $59 $-1 $34 #
face $-1 $60 $61 $36 $-1 $62 forward single #
face $-1 $63 $64 $37 $-1 $65 reversed single #
face $-1 $66 $67 $38 $-1 $68 reversed single #
face $-1 $69 $70 $39 $-1 $71 forward single #
face $-1 $72 $73 $40 $-1 $74 reversed single #
face $-1 $75 $76 $41 $-1 $77 forward single #
face $-1 $78 $79 $42 $-1 $80 forward single #
face $-1 $81 $82 $43 $-1 $83 forward single #
face $-1 $84 $85 $44 $-1 $86 reversed single #
face $-1 $87 $88 $45 $-1 $89 forward single #
face $-1 $90 $91 $46 $-1 $92 forward single #
face $-1 $93 $94 $47 $-1 $95 forward single #
face $-1 $96 $97 $36 $-1 $98 reversed single #
loop $-1 $-1 $99 $48 #
plane-surface $-1 0 0 10.847350183211882 0 0 1 1 0 0 forward_v I I I I #
face $-1 $100 $101 $37 $-1 $102 reversed single #
loop $-1 $-1 $103 $49 #
plane-surface $-1 -66.447386097792233 0 7.8473501832118817 0 0 1 1 0 0 forward_v I I I I #
face $-1 $104 $105 $38 $-1 $106 reversed single #
loop $-1 $-1 $107 $50 #
plane-surface $-1 -49.552749466580877 -2.5935232038033433 78.307578160818579 0 0.84804810408105047 0.52991925155115449 1 0 0 forward_v I I I I #
face $-1 $108 $109 $39 $-1 $110 forward single #
loop $-1 $111 $112 $51 #
cone-surface $-1 -49.552749466580877 39.903274918104621 6.8540878777155916 0 -0.84804810408105047 -0.52991925155115449 1.5 0 0 1 I I 0 1 1.5 forward I I I I #
face $-1 $113 $114 $40 $-1 $115 reversed single #
loop $-1 $-1 $116 $52 #
plane-surface $-1 -18.443209613604541 -132.08658605490896 114.58649901451389 -1 0 0 0 -0.61566148304635926 0.78801074757464917 forward_v I I I I #
face $-1 $117 $118 $41 $-1 $119 forward single #
loop $-1 $120 $121 $53 #
cone-surface $-1 -35.500560036847851 -35.045057995360445 3.3706512710060723 0 0.61566148304635926 -0.78801074757464917 2 0 0 1 I I 0 1 2 forward I I I I #
face $-1 $122 $123 $42 $-1 $124 forward single #
loop $-1 $125 $126 $54 #
cone-surface $-1 -29.104053628131609 -35.045057995360445 3.3706512710060723 0 0.61566148304635926 -0.78801074757464917 2 0 0 1 I I 0 1 2 forward I I I I #
face $-1 $127 $128 $43 $-1 $129 forward single #
loop $-1 $130 $131 $55 #
cone-surface $-1 -22.707547219415368 -35.045057995360445 3.3706512710060723 0 0.61566148304635926 -0.78801074757464917 2 0 0 1 I I 0 1 2 forward I I I I #
face $-1 $132 $133 $44 $-1 $134 reversed single #
loop $-1 $-1 $135 $56 #
plane-surface $-1 51.01514940410415 -132.08658605490896 114.58649901451389 -1 0 0 0 -0.61566148304635926 0.78801074757464917 forward_v I I I I #
face $-1 $136 $137 $45 $-1 $138 forward single #
loop $-1 $139 $140 $57 #
cone-surface $-1 33.957798980860844 -35.045057995360445 3.3706512710060723 0 0.61566148304635926 -0.78801074757464917 2 0 0 1 I I 0 1 2 forward I I I I #
face $-1 $141 $142 $46 $-1 $143 forward single #
loop $-1 $144 $145 $58 #
cone-surface $-1 40.354305389577078 -35.045057995360445 3.3706512710060723 0 0.61566148304635926 -0.78801074757464917 2 0 0 1 I I 0 1 2 forward I I I I #
face $-1 $146 $147 $47 $-1 $148 forward single #
loop $-1 $149 $150 $59 #
cone-surface $-1 46.750811798293313 -35.045057995360445 3.3706512710060723 0 0.61566148304635926 -0.78801074757464917 2 0 0 1 I I 0 1 2 forward I I I I #
face $-1 $151 $152 $36 $-1 $153 reversed single #
loop $-1 $-1 $154 $60 #
plane-surface $-1 0 0 -10.847350183211882 0 0 1 1 0 0 forward_v I I I I #
coedge $-1 $155 $156 $157 $158 forward $61 $-1 #
face $-1 $159 $160 $37 $-1 $161 reversed single #
loop $-1 $-1 $162 $63 #
plane-surface $-1 -60.822260217069498 0 9.3473501832118817 -1 0 0 0 0 1 forward_v I I I I #
coedge $-1 $163 $164 $165 $166 forward $64 $-1 #
face $-1 $167 $168 $38 $-1 $169 forward single #
loop $-1 $-1 $170 $66 #
plane-surface $-1 -38.283238716092256 119.64839107567349 154.69280137095112 -1 0 0 0 0.84804810408105047 0.52991925155115449 forward_v I I I I #
coedge $-1 $171 $172 $173 $174 reversed $67 $-1 #
face $-1 $-1 $175 $39 $-1 $176 forward single #
loop $-1 $177 $178 $69 #
cone-surface $-1 -49.552749466580877 37.719338177521188 5.4894127874279857 0 -0.84804810408105047 -0.52991925155115449 0.75 0 0 1 I I -0.70710678118654757 0.70710678118654757 0.75 forward I I I I #
loop $-1 $-1 $179 $51 #
coedge $-1 $112 $112 $180 $181 reversed $70 $-1 #
face $-1 $182 $183 $40 $-1 $184 reversed single #
loop $-1 $-1 $185 $72 #
plane-surface $-1 -29.104053628131609 -43.342046831770929 0.99867092696901238 0 -0.61566148304635926 0.78801074757464917 1 0 0 forward_v I I I I #
coedge $-1 $186 $187 $188 $189 reversed $73 $-1 #
face $-1 $-1 $190 $41 $-1 $191 forward single #
loop $-1 $192 $193 $75 #
cone-surface $-1 -35.500560036847851 -32.43527484970609 0.030281239347049294 0 0.61566148304635926 -0.78801074757464917 1 0 0 1 I I -0.70710678118654735 0.70710678118654768 1 forward I I I I #
loop $-1 $-1 $194 $53 #
coedge $-1 $121 $121 $195 $196 reversed $76 $-1 #
face $-1 $-1 $197 $42 $-1 $198 forward single #
loop $-1 $199 $200 $78 #
cone-surface $-1 -29.104053628131609 -32.43527484970609 0.030281239347049294 0 0.61566148304635926 -0.78801074757464917 1 0 0 1 I I -0.70710678118654735 0.70710678118654768 1 forward I I I I #
loop $-1 $-1 $201 $54 #
coedge $-1 $126 $126 $202 $203 reversed $79 $-1 #
face $-1 $-1 $204 $43 $-1 $205 forward single #
loop $-1 $206 $207 $81 #
cone-surface $-1 -22.707547219415368 -32.43527484970609 0.030281239347049294 0 0.61566148304635926 -0.78801074757464917 1 0 0 1 I I -0.70710678118654735 0.70710678118654768 1 forward I I I I #
loop $-1 $-1 $208 $55 #
coedge $-1 $131 $131 $209 $210 reversed $82 $-1 #
face $-1 $211 $212 $44 $-1 $213 reversed single #
loop $-1 $-1 $214 $84 #
plane-surface $-1 40.354305389577078 -43.342046831770929 0.99867092696901238 0 -0.61566148304635926 0.78801074757464917 1 0 0 forward_v I I I I #
coedge $-1 $215 $216 $217 $218 reversed $85 $-1 #
face $-1 $-1 $219 $45 $-1 $220 forward single #
loop $-1 $221 $222 $87 #
cone-surface $-1 33.957798980860844 -32.43527484970609 0.030281239347049294 0 0.61566148304635926 -0.78801074757464917 1 0 0 1 I I -0.70710678118654735 0.70710678118654768 1 forward I I I I #
loop $-1 $-1 $223 $57 #
coedge $-1 $140 $140 $224 $225 reversed $88 $-1 #
face $-1 $-1 $226 $46 $-1 $227 forward single #
loop $-1 $228 $229 $90 #
cone-surface $-1 40.354305389577078 -32.43527484970609 0.030281239347049294 0 0.61566148304635926 -0.78801074757464917 1 0 0 1 I I -0.70710678118654735 0.70710678118654768 1 forward I I I I #
loop $-1 $-1 $230 $58 #
coedge $-1 $145 $145 $231 $232 reversed $91 $-1 #
face $-1 $-1 $233 $47 $-1 $234 forward single #
loop $-1 $235 $236 $93 #
cone-surface $-1 46.750811798293313 -32.43527484970609 0.030281239347049294 0 0.61566148304635926 -0.78801074757464917 1 0 0 1 I I -0.70710678118654735 0.70710678118654768 1 forward I I I I #
loop $-1 $-1 $237 $59 #
coedge $-1 $150 $150 $238 $239 reversed $94 $-1 #
face $-1 $240 $241 $36 $-1 $242 reversed single #
loop $-1 $-1 $243 $96 #
plane-surface $-1 0 -43.342046831770908 0 0 1 0 0 0 1 forward_v I I I I #
coedge $-1 $244 $245 $246 $247 forward $97 $-1 #
coedge $-1 $248 $99 $249 $250 forward $61 $-1 #
coedge $-1 $99 $248 $251 $252 forward $61 $-1 #
coedge $-1 $253 $254 $99 $158 reversed $255 $-1 #
edge $-1 $256 -43.342046831770908 $257 43.342046831770908 $157 $258 forward 7 unknown #
face $-1 $259 $260 $37 $-1 $261 reversed single #
loop $-1 $-1 $262 $100 #
plane-surface $-1 0 43.342046831770908 0 0 -1 0 0 0 -1 forward_v I I I I #
coedge $-1 $165 $263 $264 $265 reversed $101 $-1 #
coedge $-1 $266 $103 $267 $268 reversed $64 $-1 #
coedge $-1 $103 $266 $269 $270 reversed $64 $-1 #
coedge $-1 $271 $162 $103 $166 reversed $101 $-1 #
edge $-1 $272 -43.342046831770908 $273 43.342046831770908 $165 $274 forward 7 unknown #
face $-1 $275 $276 $38 $-1 $277 reversed single #
loop $-1 $-1 $173 $104 #
plane-surface $-1 0 0 10.847350183211882 0 0 1 1 0 0 forward_v I I I I #
coedge $-1 $278 $279 $280 $281 reversed $105 $-1 #
coedge $-1 $282 $107 $283 $284 reversed $67 $-1 #
coedge $-1 $107 $282 $278 $285 forward $67 $-1 #
coedge $-1 $280 $286 $107 $174 forward $168 $-1 #
edge $-1 $287 -36.04588548377906 $288 -13.506863982801818 $173 $289 forward 7 unknown #
loop $-1 $-1 $180 $108 #
plane-surface $-1 -49.552749466580877 -2.5935232038033433 78.307578160818579 0 0.84804810408105047 0.52991925155115449 1 0 0 forward_v I I I I #
loop $-1 $-1 $290 $69 #
coedge $-1 $178 $178 $179 $291 reversed $109 $-1 #
coedge $-1 $179 $179 $178 $291 forward $111 $-1 #
coedge $-1 $180 $180 $112 $181 forward $175 $-1 #
edge $-1 $292 -5.0267026812223208e-016 $292 6.2831853071795996 $180 $293 forward 7 unknown #
face $-1 $294 $295 $40 $-1 $296 reversed single #
loop $-1 $-1 $297 $113 #
plane-surface $-1 -39.764897642658681 -132.08658605490896 114.58649901451389 1 0 0 0 0.61566148304635926 -0.78801074757464917 forward_v I I I I #
coedge $-1 $298 $299 $300 $301 reversed $114 $-1 #
coedge $-1 $187 $116 $302 $303 reversed $73 $-1 #
coedge $-1 $116 $186 $298 $304 reversed $73 $-1 #
coedge $-1 $300 $305 $116 $189 forward $306 $-1 #
edge $-1 $307 22.701246195683574 $308 35.306980543288489 $188 $309 forward 7 unknown #
loop $-1 $-1 $195 $117 #
plane-surface $-1 -29.104053628131609 -43.342046831770929 0.99867092696901238 0 -0.61566148304635926 0.78801074757464917 1 0 0 forward_v I I I I #
loop $-1 $-1 $310 $75 #
coedge $-1 $193 $193 $194 $311 reversed $118 $-1 #
coedge $-1 $194 $194 $193 $311 forward $120 $-1 #
coedge $-1 $195 $195 $121 $196 forward $190 $-1 #
edge $-1 $312 -4.8132689654384008e-016 $312 6.2831853071795996 $195 $313 forward 7 unknown #
loop $-1 $-1 $202 $122 #
plane-surface $-1 -29.104053628131609 -43.342046831770929 0.99867092696901238 0 -0.61566148304635926 0.78801074757464917 1 0 0 forward_v I I I I #
loop $-1 $-1 $314 $78 #
coedge $-1 $200 $200 $201 $315 reversed $123 $-1 #
coedge $-1 $201 $201 $200 $315 forward $125 $-1 #
coedge $-1 $202 $202 $126 $203 forward $197 $-1 #
edge $-1 $316 -4.8132689654384008e-016 $316 6.2831853071795996 $202 $317 forward 7 unknown #
loop $-1 $-1 $209 $127 #
plane-surface $-1 -29.104053628131609 -43.342046831770929 0.99867092696901238 0 -0.61566148304635926 0.78801074757464917 1 0 0 forward_v I I I I #
loop $-1 $-1 $318 $81 #
coedge $-1 $207 $207 $208 $319 reversed $128 $-1 #
coedge $-1 $208 $208 $207 $319 forward $130 $-1 #
coedge $-1 $209 $209 $131 $210 forward $204 $-1 #
edge $-1 $320 -4.8132689654384008e-016 $320 6.2831853071795996 $209 $321 forward 7 unknown #
face $-1 $322 $323 $44 $-1 $324 reversed single #
loop $-1 $-1 $325 $132 #
plane-surface $-1 29.69346137505001 -132.08658605490896 114.58649901451389 1 0 0 0 0.61566148304635926 -0.78801074757464917 forward_v I I I I #
coedge $-1 $326 $327 $328 $329 reversed $133 $-1 #
coedge $-1 $216 $135 $330 $331 reversed $85 $-1 #
coedge $-1 $135 $215 $326 $332 reversed $85 $-1 #
coedge $-1 $328 $333 $135 $218 forward $334 $-1 #
edge $-1 $335 22.701246195683574 $336 35.306980543288489 $217 $337 forward 7 unknown #
loop $-1 $-1 $224 $136 #
plane-surface $-1 40.354305389577078 -43.342046831770929 0.99867092696901238 0 -0.61566148304635926 0.78801074757464917 1 0 0 forward_v I I I I #
loop $-1 $-1 $338 $87 #
coedge $-1 $222 $222 $223 $339 reversed $137 $-1 #
coedge $-1 $223 $223 $222 $339 forward $139 $-1 #
coedge $-1 $224 $224 $140 $225 forward $219 $-1 #
edge $-1 $340 -4.8132689654384008e-016 $340 6.2831853071795996 $224 $341 forward 7 unknown #
loop $-1 $-1 $231 $141 #
plane-surface $-1 40.354305389577078 -43.342046831770929 0.99867092696901238 0 -0.61566148304635926 0.78801074757464917 1 0 0 forward_v I I I I #
loop $-1 $-1 $342 $90 #
coedge $-1 $229 $229 $230 $343 reversed $142 $-1 #
coedge $-1 $230 $230 $229 $343 forward $144 $-1 #
coedge $-1 $231 $231 $145 $232 forward $226 $-1 #
edge $-1 $344 -4.8132689654384008e-016 $344 6.2831853071795996 $231 $345 forward 7 unknown #
loop $-1 $-1 $238 $146 #
plane-surface $-1 40.354305389577078 -43.342046831770929 0.99867092696901238 0 -0.61566148304635926 0.78801074757464917 1 0 0 forward_v I I I I #
loop $-1 $-1 $346 $93 #
coedge $-1 $236 $236 $237 $347 reversed $147 $-1 #
coedge $-1 $237 $237 $236 $347 forward $149 $-1 #
coedge $-1 $238 $238 $150 $239 forward $233 $-1 #
edge $-1 $348 -4.8132689654384008e-016 $348 6.2831853071795996 $238 $349 forward 7 unknown #
face $-1 $350 $351 $36 $-1 $352 reversed single #
loop $-1 $-1 $353 $151 #
plane-surface $-1 -72.072511978514967 0 0 1 0 0 0 0 -1 forward_v I I I I #
coedge $-1 $354 $251 $355 $356 forward $152 $-1 #
coedge $-1 $357 $154 $354 $358 forward $97 $-1 #
coedge $-1 $154 $357 $359 $360 forward $97 $-1 #
coedge $-1 $254 $253 $154 $247 reversed $255 $-1 #
edge $-1 $361 -43.342046831770908 $362 43.342046831770908 $246 $363 forward 7 unknown #
coedge $-1 $156 $155 $364 $365 forward $61 $-1 #
coedge $-1 $366 $367 $155 $250 reversed $351 $-1 #
edge $-1 $257 -72.072511978514967 $368 72.072511978514967 $249 $369 forward 7 unknown #
coedge $-1 $243 $370 $156 $252 reversed $152 $-1 #
edge $-1 $371 -72.072511978514967 $256 72.072511978514967 $251 $372 forward 7 unknown #
coedge $-1 $246 $157 $370 $373 forward $255 $-1 #
coedge $-1 $157 $246 $366 $374 reversed $255 $-1 #
loop $-1 $-1 $253 $350 #
vertex $-1 $158 $375 #
vertex $-1 $158 $376 #
straight-curve $-1 72.072511978514967 0 10.847350183211882 0 1 0 I I #
face $-1 $377 $378 $37 $-1 $379 forward single #
loop $-1 $-1 $380 $159 #
plane-surface $-1 -72.072511978514967 0 0 1 0 0 0 0 -1 forward_v I I I I #
coedge $-1 $269 $381 $271 $382 forward $160 $-1 #
coedge $-1 $162 $271 $383 $384 reversed $101 $-1 #
coedge $-1 $385 $267 $162 $265 forward $386 $-1 #
edge $-1 $273 3.1736750916059409 $387 6.1736750916059409 $264 $388 forward 7 unknown #
coedge $-1 $164 $163 $380 $389 reversed $64 $-1 #
coedge $-1 $264 $390 $163 $268 forward $386 $-1 #
edge $-1 $391 -38.848818929618851 $273 -27.598567168173382 $267 $392 forward 7 unknown #
coedge $-1 $393 $262 $164 $270 forward $160 $-1 #
edge $-1 $272 27.598567168173382 $394 38.848818929618851 $269 $395 forward 7 unknown #
coedge $-1 $263 $165 $262 $382 reversed $101 $-1 #
vertex $-1 $270 $396 #
vertex $-1 $268 $397 #
straight-curve $-1 -60.822260217069498 0 7.8473501832118817 0 -1 0 I I #
face $-1 $-1 $398 $38 $-1 $399 forward single #
loop $-1 $-1 $400 $167 #
plane-surface $-1 0 43.342046831770908 0 0 -1 0 0 0 -1 forward_v I I I I #
coedge $-1 $279 $170 $172 $285 reversed $105 $-1 #
coedge $-1 $170 $278 $400 $401 reversed $105 $-1 #
coedge $-1 $402 $173 $170 $281 forward $168 $-1 #
edge $-1 $288 -20.26389120835313 $403 -16.482148706065836 $280 $404 forward 7 unknown #
coedge $-1 $172 $171 $405 $406 reversed $67 $-1 #
coedge $-1 $407 $408 $171 $284 forward $398 $-1 #
edge $-1 $409 -56.756119429318623 $287 -49.619668939517481 $283 $410 forward 7 unknown #
edge $-1 $411 -86.684093663541816 $288 -79.547643173740667 $278 $412 forward 7 unknown #
coedge $-1 $173 $402 $407 $413 forward $168 $-1 #
vertex $-1 $284 $414 #
vertex $-1 $174 $415 #
straight-curve $-1 -24.776374733290439 39.560304329483628 10.84735018321188 1 0 0 I I #
coedge $-1 $290 $290 $-1 $416 reversed $177 $-1 #
edge $-1 $417 0 $417 6.2831853071796004 $178 $418 forward 7 unknown #
vertex $-1 $181 $419 #
ellipse-curve $-1 -49.552749466580877 41.451175580627257 7.8213235293398258 0 0.84804810408105047 0.52991925155115449 1.5 0 0 1 I I #
face $-1 $-1 $306 $40 $-1 $420 forward single #
loop $-1 $-1 $421 $182 #
plane-surface $-1 0 -43.342046831770908 0 0 1 0 0 0 1 forward_v I I I I #
coedge $-1 $422 $423 $424 $425 reversed $183 $-1 #
coedge $-1 $426 $185 $187 $304 forward $114 $-1 #
coedge $-1 $185 $426 $422 $427 forward $114 $-1 #
coedge $-1 $424 $188 $185 $301 forward $306 $-1 #
edge $-1 $308 3.8911827995387362 $428 25.212870828592877 $300 $429 forward 7 unknown #
coedge $-1 $430 $431 $186 $303 forward $295 $-1 #
edge $-1 $432 -56.294578580287919 $307 -46.445899324045065 $302 $433 forward 7 unknown #
edge $-1 $308 -15.996906623929995 $432 -2.7050282679495667e-014 $187 $434 forward 7 unknown #
coedge $-1 $188 $424 $430 $435 forward $306 $-1 #
loop $-1 $-1 $424 $294 #
vertex $-1 $303 $436 #
vertex $-1 $189 $437 #
straight-curve $-1 -18.443209613604541 -66.043293027454482 10.84735018321188 0 1 0 I I #
coedge $-1 $310 $310 $-1 $438 reversed $192 $-1 #
edge $-1 $439 0 $439 6.2831853071796004 $193 $440 forward 7 unknown #
vertex $-1 $196 $441 #
ellipse-curve $-1 -35.500560036847851 -37.039179657968447 5.9230105550904568 0 -0.61566148304635926 0.78801074757464917 2 0 0 1 I I #
coedge $-1 $314 $314 $-1 $442 reversed $199 $-1 #
edge $-1 $443 0 $443 6.2831853071796004 $200 $444 forward 7 unknown #
vertex $-1 $203 $445 #
ellipse-curve $-1 -29.104053628131609 -37.039179657968447 5.9230105550904568 0 -0.61566148304635926 0.78801074757464917 2 0 0 1 I I #
coedge $-1 $318 $318 $-1 $446 reversed $206 $-1 #
edge $-1 $447 0 $447 6.2831853071796004 $207 $448 forward 7 unknown #
vertex $-1 $210 $449 #
ellipse-curve $-1 -22.707547219415368 -37.039179657968447 5.9230105550904568 0 -0.61566148304635926 0.78801074757464917 2 0 0 1 I I #
face $-1 $-1 $334 $44 $-1 $450 forward single #
loop $-1 $-1 $451 $211 #
plane-surface $-1 0 -43.342046831770908 0 0 1 0 0 0 1 forward_v I I I I #
coedge $-1 $452 $453 $454 $455 reversed $212 $-1 #
coedge $-1 $456 $214 $216 $332 forward $133 $-1 #
coedge $-1 $214 $456 $452 $457 forward $133 $-1 #
coedge $-1 $454 $217 $214 $329 forward $334 $-1 #
edge $-1 $336 -30.837996709315611 $458 -9.5163086802614707 $328 $459 forward 7 unknown #
coedge $-1 $460 $461 $215 $331 forward $323 $-1 #
edge $-1 $462 -56.294578580287919 $335 -46.445899324045065 $330 $463 forward 7 unknown #
edge $-1 $336 -15.996906623929995 $462 -2.7050282679495667e-014 $216 $464 forward 7 unknown #
coedge $-1 $217 $454 $460 $465 forward $334 $-1 #
loop $-1 $-1 $454 $322 #
vertex $-1 $331 $466 #
vertex $-1 $218 $467 #
straight-curve $-1 51.01514940410415 -66.043293027454482 10.84735018321188 0 1 0 I I #
coedge $-1 $338 $338 $-1 $468 reversed $221 $-1 #
edge $-1 $469 0 $469 6.2831853071796004 $222 $470 forward 7 unknown #
vertex $-1 $225 $471 #
ellipse-curve $-1 33.957798980860844 -37.039179657968447 5.9230105550904568 0 -0.61566148304635926 0.78801074757464917 2 0 0 1 I I #
coedge $-1 $342 $342 $-1 $472 reversed $228 $-1 #
edge $-1 $473 0 $473 6.2831853071796004 $229 $474 forward 7 unknown #
vertex $-1 $232 $475 #
ellipse-curve $-1 40.354305389577078 -37.039179657968447 5.9230105550904568 0 -0.61566148304635926 0.78801074757464917 2 0 0 1 I I #
coedge $-1 $346 $346 $-1 $476 reversed $235 $-1 #
edge $-1 $477 0 $477 6.2831853071796004 $236 $478 forward 7 unknown #
vertex $-1 $239 $479 #
ellipse-curve $-1 46.750811798293313 -37.039179657968447 5.9230105550904568 0 -0.61566148304635926 0.78801074757464917 2 0 0 1 I I #
face $-1 $-1 $255 $36 $-1 $480 reversed single #
loop $-1 $-1 $366 $240 #
plane-surface $-1 0 43.342046831770908 0 0 -1 0 0 0 -1 forward_v I I I I #
coedge $-1 $481 $364 $367 $482 forward $241 $-1 #
coedge $-1 $370 $243 $244 $358 reversed $152 $-1 #
coedge $-1 $364 $481 $243 $356 reversed $241 $-1 #
edge $-1 $371 -10.847350183211882 $483 10.847350183211882 $355 $484 forward 7 unknown #
coedge $-1 $245 $244 $481 $485 forward $97 $-1 #
edge $-1 $362 -72.072511978514967 $483 72.072511978514967 $354 $486 forward 7 unknown #
coedge $-1 $367 $366 $245 $360 reversed $351 $-1 #
edge $-1 $487 -72.072511978514967 $361 72.072511978514967 $359 $488 forward 7 unknown #
vertex $-1 $247 $489 #
vertex $-1 $373 $490 #
straight-curve $-1 72.072511978514967 0 -10.847350183211882 0 -1 0 I I #
coedge $-1 $353 $355 $248 $365 reversed $241 $-1 #
edge $-1 $368 -43.342046831770908 $371 43.342046831770908 $364 $491 forward 7 unknown #
coedge $-1 $359 $249 $254 $374 forward $351 $-1 #
coedge $-1 $249 $359 $353 $482 reversed $351 $-1 #
vertex $-1 $250 $492 #
straight-curve $-1 0 43.342046831770908 10.847350183211882 -1 0 0 I I #
coedge $-1 $251 $354 $253 $373 reversed $152 $-1 #
vertex $-1 $365 $493 #
straight-curve $-1 0 -43.342046831770908 10.847350183211882 1 0 0 I I #
edge $-1 $256 -10.847350183211882 $362 10.847350183211882 $253 $494 forward 7 unknown #
edge $-1 $257 -10.847350183211882 $361 10.847350183211882 $254 $495 forward 7 unknown #
point $-1 72.072511978514967 -43.342046831770908 10.847350183211882 #
point $-1 72.072511978514967 43.342046831770908 10.847350183211882 #
face $-1 $-1 $386 $37 $-1 $496 reversed single #
loop $-1 $-1 $383 $259 #
plane-surface $-1 0 0 10.847350183211882 0 0 1 1 0 0 forward_v I I I I #
coedge $-1 $497 $498 $266 $389 forward $260 $-1 #
coedge $-1 $262 $393 $499 $500 reversed $160 $-1 #
edge $-1 $501 -6.1736750916059409 $272 -3.1736750916059409 $262 $502 forward 7 unknown #
coedge $-1 $499 $503 $263 $384 forward $378 $-1 #
edge $-1 $387 -43.342046831770908 $501 43.342046831770908 $383 $504 forward 7 unknown #
coedge $-1 $390 $264 $503 $505 reversed $386 $-1 #
loop $-1 $-1 $264 $377 #
vertex $-1 $265 $506 #
straight-curve $-1 -60.822260217069498 -43.342046831770908 4.6736750916059409 0 0 1 I I #
edge $-1 $394 -43.342046831770908 $391 43.342046831770908 $380 $507 forward 7 unknown #
coedge $-1 $267 $385 $497 $508 forward $386 $-1 #
vertex $-1 $389 $509 #
straight-curve $-1 -33.223693048896116 -43.342046831770908 7.8473501832118817 1 0 0 I I #
coedge $-1 $381 $269 $498 $510 reversed $160 $-1 #
vertex $-1 $389 $511 #
straight-curve $-1 -33.223693048896116 43.342046831770908 7.8473501832118817 -1 0 0 I I #
point $-1 -60.822260217069498 43.342046831770908 7.8473501832118817 #
point $-1 -60.822260217069498 -43.342046831770908 7.8473501832118817 #
loop $-1 $-1 $283 $275 #
plane-surface $-1 -60.822260217069498 0 9.3473501832118817 -1 0 0 0 0 1 forward_v I I I I #
coedge $-1 $405 $512 $279 $401 forward $276 $-1 #
edge $-1 $403 66.499050502263671 $411 72.551103810007817 $400 $513 forward 7 unknown #
coedge $-1 $286 $280 $512 $514 forward $168 $-1 #
vertex $-1 $514 $515 #
straight-curve $-1 -38.283238716092256 59.824195537836744 10.847350183211887 0 1 0 I I #
coedge $-1 $516 $400 $282 $406 forward $276 $-1 #
edge $-1 $411 13.506863982801818 $409 36.04588548377906 $405 $517 forward 7 unknown #
coedge $-1 $408 $283 $286 $413 reversed $398 $-1 #
coedge $-1 $283 $407 $516 $518 reversed $398 $-1 #
vertex $-1 $518 $519 #
straight-curve $-1 -60.822260217069498 13.265886502838448 52.927216352499073 0 -0.52991925155115449 0.84804810408105047 I I #
vertex $-1 $406 $520 #
straight-curve $-1 -38.283238716092256 -2.5935232038033433 78.307578160818579 0 -0.52991925155115449 0.84804810408105047 I I #
edge $-1 $521 -43.342046831770908 $287 -39.560304329483621 $286 $522 forward 7 unknown #
point $-1 -60.822260217069498 39.560304329483621 10.847350183211882 #
point $-1 -38.283238716092256 39.560304329483614 10.847350183211887 #
edge $-1 $523 1 $523 0 $290 $-1 forward 7 unknown #
vertex $-1 $291 $524 #
ellipse-curve $-1 -49.552749466580877 38.355374255581978 5.8868522260913512 0 0.84804810408105047 0.52991925155115449 1.5 0 0 1 I I #
point $-1 -48.052749466580877 41.451175580627265 7.8213235293398311 #
plane-surface $-1 0 0 10.847350183211882 0 0 1 1 0 0 forward_v I I I I #
coedge $-1 $431 $430 $423 $525 forward $295 $-1 #
coedge $-1 $423 $297 $299 $427 reversed $183 $-1 #
coedge $-1 $297 $422 $421 $525 reversed $183 $-1 #
coedge $-1 $305 $300 $297 $425 forward $306 $-1 #
edge $-1 $428 -35.306980543288489 $526 -22.701246195683574 $424 $527 forward 7 unknown #
coedge $-1 $299 $298 $431 $528 reversed $114 $-1 #
edge $-1 $529 2.7050282679495667e-014 $428 15.996906623929995 $422 $530 forward 7 unknown #
vertex $-1 $301 $531 #
straight-curve $-1 -14.552026814065805 -30.736312484166 10.847350183211882 -1 0 0 I I #
coedge $-1 $421 $302 $305 $435 reversed $295 $-1 #
coedge $-1 $302 $421 $426 $528 forward $295 $-1 #
vertex $-1 $303 $532 #
straight-curve $-1 -18.443209613604541 -43.342046831770908 57.293249507256945 0 0 1 I I #
straight-curve $-1 -18.443209613604541 -43.342046831770929 0.99867092696901238 0 -0.78801074757464917 -0.61566148304635926 I I #
edge $-1 $526 -39.764897642658681 $307 -18.443209613604541 $430 $533 forward 7 unknown #
point $-1 -18.443209613604541 -43.342046831770908 10.847350183211882 #
point $-1 -18.443209613604541 -30.736312484165996 10.847350183211882 #
edge $-1 $534 1 $534 0 $310 $-1 forward 7 unknown #
vertex $-1 $311 $535 #
ellipse-curve $-1 -35.500560036847851 -33.05093633275245 0.8182919869216988 0 -0.61566148304635926 0.78801074757464917 2 0 0 1 I I #
point $-1 -33.500560036847851 -37.03917965796844 5.9230105550904462 #
edge $-1 $536 1 $536 0 $314 $-1 forward 7 unknown #
vertex $-1 $315 $537 #
ellipse-curve $-1 -29.104053628131609 -33.05093633275245 0.8182919869216988 0 -0.61566148304635926 0.78801074757464917 2 0 0 1 I I #
point $-1 -27.104053628131609 -37.03917965796844 5.9230105550904462 #
edge $-1 $538 1 $538 0 $318 $-1 forward 7 unknown #
vertex $-1 $319 $539 #
ellipse-curve $-1 -22.707547219415368 -33.05093633275245 0.8182919869216988 0 -0.61566148304635926 0.78801074757464917 2 0 0 1 I I #
point $-1 -20.707547219415368 -37.03917965796844 5.9230105550904462 #
plane-surface $-1 0 0 10.847350183211882 0 0 1 1 0 0 forward_v I I I I #
coedge $-1 $461 $460 $453 $540 forward $323 $-1 #
coedge $-1 $453 $325 $327 $457 reversed $212 $-1 #
coedge $-1 $325 $452 $451 $540 reversed $212 $-1 #
coedge $-1 $333 $328 $325 $455 forward $334 $-1 #
edge $-1 $458 -35.306980543288489 $541 -22.701246195683574 $454 $542 forward 7 unknown #
coedge $-1 $327 $326 $461 $543 reversed $133 $-1 #
edge $-1 $544 2.7050282679495667e-014 $458 15.996906623929995 $452 $545 forward 7 unknown #
vertex $-1 $329 $546 #
straight-curve $-1 20.177152694788539 -30.736312484166 10.847350183211882 -1 0 0 I I #
coedge $-1 $451 $330 $333 $465 reversed $323 $-1 #
coedge $-1 $330 $451 $456 $543 forward $323 $-1 #
vertex $-1 $331 $547 #
straight-curve $-1 51.01514940410415 -43.342046831770908 57.293249507256945 0 0 1 I I #
straight-curve $-1 51.01514940410415 -43.342046831770929 0.99867092696901238 0 -0.78801074757464917 -0.61566148304635926 I I #
edge $-1 $541 29.69346137505001 $335 51.01514940410415 $460 $548 forward 7 unknown #
point $-1 51.01514940410415 -43.342046831770908 10.847350183211882 #
point $-1 51.01514940410415 -30.736312484165996 10.847350183211882 #
edge $-1 $549 1 $549 0 $338 $-1 forward 7 unknown #
vertex $-1 $339 $550 #
ellipse-curve $-1 33.957798980860844 -33.05093633275245 0.8182919869216988 0 -0.61566148304635926 0.78801074757464917 2 0 0 1 I I #
point $-1 35.957798980860844 -37.03917965796844 5.9230105550904462 #
edge $-1 $551 1 $551 0 $342 $-1 forward 7 unknown #
vertex $-1 $343 $552 #
ellipse-curve $-1 40.354305389577078 -33.05093633275245 0.8182919869216988 0 -0.61566148304635926 0.78801074757464917 2 0 0 1 I I #
point $-1 42.354305389577078 -37.03917965796844 5.9230105550904462 #
edge $-1 $553 1 $553 0 $346 $-1 forward 7 unknown #
vertex $-1 $347 $554 #
ellipse-curve $-1 46.750811798293313 -33.05093633275245 0.8182919869216988 0 -0.61566148304635926 0.78801074757464917 2 0 0 1 I I #
point $-1 48.750811798293313 -37.03917965796844 5.9230105550904462 #
plane-surface $-1 72.072511978514967 0 0 -1 0 0 0 0 1 forward_v I I I I #
coedge $-1 $355 $353 $357 $485 reversed $241 $-1 #
edge $-1 $368 -10.847350183211882 $487 10.847350183211882 $367 $555 forward 7 unknown #
vertex $-1 $485 $556 #
straight-curve $-1 -72.072511978514967 -43.342046831770908 0 0 0 -1 I I #
edge $-1 $483 -43.342046831770908 $487 43.342046831770908 $481 $557 forward 7 unknown #
straight-curve $-1 0 -43.342046831770908 -10.847350183211882 -1 0 0 I I #
vertex $-1 $360 $558 #
straight-curve $-1 0 43.342046831770908 -10.847350183211882 1 0 0 I I #
point $-1 72.072511978514967 43.342046831770908 -10.847350183211882 #
point $-1 72.072511978514967 -43.342046831770908 -10.847350183211882 #
straight-curve $-1 -72.072511978514967 0 10.847350183211882 0 -1 0 I I #
point $-1 -72.072511978514967 43.342046831770908 10.847350183211882 #
point $-1 -72.072511978514967 -43.342046831770908 10.847350183211882 #
straight-curve $-1 72.072511978514967 -43.342046831770908 0 0 0 -1 I I #
straight-curve $-1 72.072511978514967 43.342046831770908 0 0 0 -1 I I #
plane-surface $-1 0 -43.342046831770908 0 0 1 0 0 0 1 forward_v I I I I #
coedge $-1 $559 $380 $390 $508 reversed $260 $-1 #
coedge $-1 $380 $559 $393 $510 forward $260 $-1 #
coedge $-1 $560 $383 $381 $500 forward $378 $-1 #
edge $-1 $501 60.822260217069498 $561 72.072511978514967 $381 $562 forward 7 unknown #
vertex $-1 $500 $563 #
straight-curve $-1 -60.822260217069498 43.342046831770908 4.6736750916059409 0 0 -1 I I #
coedge $-1 $383 $560 $385 $505 forward $378 $-1 #
straight-curve $-1 -60.822260217069498 0 10.847350183211882 0 1 0 I I #
edge $-1 $564 -72.072511978514967 $387 -60.822260217069498 $385 $565 forward 7 unknown #
point $-1 -60.822260217069498 -43.342046831770908 10.847350183211882 #
straight-curve $-1 -72.072511978514967 0 7.8473501832118817 0 -1 0 I I #
edge $-1 $564 -10.847350183211882 $391 -7.8473501832118817 $497 $566 forward 7 unknown #
point $-1 -72.072511978514967 -43.342046831770908 7.8473501832118817 #
edge $-1 $561 -10.847350183211882 $394 -7.8473501832118817 $393 $567 forward 7 unknown #
point $-1 -72.072511978514967 43.342046831770908 7.8473501832118817 #
coedge $-1 $400 $516 $402 $514 reversed $276 $-1 #
straight-curve $-1 -38.283238716092256 43.342046831770908 77.346400685475558 0 0 -1 I I #
edge $-1 $403 38.283238716092256 $521 60.822260217069498 $512 $568 forward 7 unknown #
point $-1 -38.283238716092256 43.342046831770908 10.847350183211882 #
coedge $-1 $512 $405 $408 $518 forward $276 $-1 #
straight-curve $-1 -24.776374733290439 43.342046831770901 4.7952968754677485 -1 0 0 I I #
edge $-1 $409 -72.551103810007817 $521 -66.499050502263671 $516 $569 forward 7 unknown #
point $-1 -60.822260217069498 43.342046831770908 4.7952968754677414 #
point $-1 -38.283238716092256 43.342046831770908 4.7952968754677414 #
vertex $-1 $413 $570 #
straight-curve $-1 -60.822260217069498 0 10.847350183211882 0 -1 0 I I #
vertex $-1 $416 $571 #
point $-1 -48.052749466580877 38.355374255581978 5.8868522260913512 #
edge $-1 $526 46.445899324045065 $529 56.294578580287919 $421 $572 forward 7 unknown #
vertex $-1 $435 $573 #
straight-curve $-1 -39.764897642658681 -66.043293027454482 10.84735018321188 0 -1 0 I I #
edge $-1 $529 -25.212870828592877 $432 -3.8911827995387362 $431 $574 forward 7 unknown #
vertex $-1 $528 $575 #
straight-curve $-1 -39.764897642658681 -43.342046831770929 0.99867092696901238 0 0.78801074757464917 0.61566148304635926 I I #
point $-1 -39.764897642658681 -30.736312484165996 10.847350183211882 #
point $-1 -18.443209613604541 -43.342046831770908 0.99867092696902904 #
straight-curve $-1 0 -43.342046831770908 10.847350183211882 1 0 0 I I #
vertex $-1 $438 $576 #
point $-1 -33.500560036847851 -33.05093633275245 0.8182919869216988 #
vertex $-1 $442 $577 #
point $-1 -27.104053628131609 -33.05093633275245 0.8182919869216988 #
vertex $-1 $446 $578 #
point $-1 -20.707547219415368 -33.05093633275245 0.8182919869216988 #
edge $-1 $541 46.445899324045065 $544 56.294578580287919 $451 $579 forward 7 unknown #
vertex $-1 $465 $580 #
straight-curve $-1 29.69346137505001 -66.043293027454482 10.84735018321188 0 -1 0 I I #
edge $-1 $544 9.5163086802614707 $462 30.837996709315611 $461 $581 forward 7 unknown #
vertex $-1 $543 $582 #
straight-curve $-1 29.69346137505001 -43.342046831770929 0.99867092696901238 0 0.78801074757464917 0.61566148304635926 I I #
point $-1 29.69346137505001 -30.736312484165996 10.847350183211882 #
point $-1 51.01514940410415 -43.342046831770908 0.99867092696902904 #
straight-curve $-1 0 -43.342046831770908 10.847350183211882 1 0 0 I I #
vertex $-1 $468 $583 #
point $-1 35.957798980860844 -33.05093633275245 0.8182919869216988 #
vertex $-1 $472 $584 #
point $-1 42.354305389577078 -33.05093633275245 0.8182919869216988 #
vertex $-1 $476 $585 #
point $-1 48.750811798293313 -33.05093633275245 0.8182919869216988 #
straight-curve $-1 -72.072511978514967 43.342046831770908 0 0 0 -1 I I #
point $-1 -72.072511978514967 -43.342046831770908 -10.847350183211882 #
straight-curve $-1 -72.072511978514967 0 -10.847350183211882 0 1 0 I I #
point $-1 -72.072511978514967 43.342046831770908 -10.847350183211882 #
coedge $-1 $498 $497 $560 $586 reversed $260 $-1 #
coedge $-1 $503 $499 $559 $586 forward $378 $-1 #
vertex $-1 $500 $587 #
straight-curve $-1 0 43.342046831770908 10.847350183211882 -1 0 0 I I #
point $-1 -60.822260217069498 43.342046831770908 10.847350183211882 #
vertex $-1 $586 $588 #
straight-curve $-1 0 -43.342046831770908 10.847350183211882 1 0 0 I I #
straight-curve $-1 -72.072511978514967 -43.342046831770908 0 0 0 -1 I I #
straight-curve $-1 -72.072511978514967 43.342046831770908 0 0 0 -1 I I #
straight-curve $-1 0 43.342046831770908 10.847350183211882 -1 0 0 I I #
straight-curve $-1 -60.822260217069498 43.342046831770908 77.346400685475558 0 0 1 I I #
point $-1 -60.822260217069498 43.342046831770908 10.847350183211882 #
point $-1 -49.552749466580877 37.083302099460397 5.0919733487646202 #
straight-curve $-1 -39.764897642658681 -43.342046831770908 57.293249507256945 0 0 -1 I I #
point $-1 -39.764897642658681 -43.342046831770908 10.847350183211882 #
straight-curve $-1 -14.552026814065805 -43.342046831770908 0.9986709269690246 1 0 0 I I #
point $-1 -39.764897642658681 -43.342046831770908 0.99867092696902904 #
point $-1 -35.500560036847851 -31.819613366659731 -0.75772950822760021 #
point $-1 -29.104053628131609 -31.819613366659731 -0.75772950822760021 #
point $-1 -22.707547219415368 -31.819613366659731 -0.75772950822760021 #
straight-curve $-1 29.69346137505001 -43.342046831770908 57.293249507256945 0 0 -1 I I #
point $-1 29.69346137505001 -43.342046831770908 10.847350183211882 #
straight-curve $-1 20.177152694788539 -43.342046831770908 0.9986709269690246 1 0 0 I I #
point $-1 29.69346137505001 -43.342046831770908 0.99867092696902904 #
point $-1 33.957798980860844 -31.819613366659731 -0.75772950822760021 #
point $-1 40.354305389577078 -31.819613366659731 -0.75772950822760021 #
point $-1 46.750811798293313 -31.819613366659731 -0.75772950822760021 #
edge $-1 $561 -43.342046831770908 $564 43.342046831770908 $559 $589 forward 7 unknown #
point $-1 -72.072511978514967 43.342046831770908 10.847350183211882 #
point $-1 -72.072511978514967 -43.342046831770908 10.847350183211882 #
straight-curve $-1 -72.072511978514967 0 10.847350183211882 0 -1 0 I I #
End-of-ACIS-data 