500 0 18 0           
7 Unknown 11 ACIS 5.0 NT 24 Thu Mar 25 17:33:57 1999 
-1 9.9999999999999995e-007 1e-010 
body $-1 $18 $-1 $19 #
body $-1 $20 $-1 $21 #
body $-1 $22 $-1 $23 #
body $-1 $24 $-1 $25 #
body $-1 $26 $-1 $27 #
body $-1 $28 $-1 $29 #
body $-1 $30 $-1 $31 #
body $-1 $32 $-1 $33 #
body $-1 $34 $-1 $35 #
body $-1 $36 $-1 $37 #
body $-1 $38 $-1 $39 #
body $-1 $40 $-1 $41 #
body $-1 $42 $-1 $43 #
body $-1 $44 $-1 $45 #
body $-1 $46 $-1 $47 #
body $-1 $48 $-1 $49 #
body $-1 $50 $-1 $51 #
body $-1 $52 $-1 $53 #
lump $-1 $-1 $54 $0 #
transform $-1 1 0 0 0 1 0 0 0 1 61.994079409161657 25.045668624242108 9.6239359441196921 1 rotate no_reflect no_shear #
lump $-1 $-1 $55 $1 #
transform $-1 1 0 0 0 1 0 0 0 1 61.994079409161657 25.045668624242108 9.6239359441196921 1 rotate no_reflect no_shear #
lump $-1 $-1 $56 $2 #
transform $-1 1 0 0 0 1 0 0 0 1 61.994079409161657 25.045668624242108 9.6239359441196921 1 rotate no_reflect no_shear #
lump $-1 $-1 $57 $3 #
transform $-1 1 0 0 0 1 0 0 0 1 61.994079409161657 25.045668624242108 9.6239359441196921 1 rotate no_reflect no_shear #
lump $-1 $-1 $58 $4 #
transform $-1 1 0 0 0 1 0 0 0 1 61.994079409161657 25.045668624242108 9.6239359441196921 1 rotate no_reflect no_shear #
lump $-1 $-1 $59 $5 #
transform $-1 1 0 0 0 1 0 0 0 1 61.994079409161657 25.045668624242108 9.6239359441196921 1 rotate no_reflect no_shear #
lump $-1 $-1 $60 $6 #
transform $-1 1 0 0 0 1 0 0 0 1 61.994079409161657 25.045668624242108 9.6239359441196921 1 rotate no_reflect no_shear #
lump $-1 $-1 $61 $7 #
transform $-1 1 0 0 0 1 0 0 0 1 61.994079409161657 25.045668624242108 9.6239359441196921 1 rotate no_reflect no_shear #
lump $-1 $-1 $62 $8 #
transform $-1 1 0 0 0 1 0 0 0 1 61.994079409161657 25.045668624242108 9.6239359441196921 1 rotate no_reflect no_shear #
lump $-1 $-1 $63 $9 #
transform $-1 1 0 0 0 1 0 0 0 1 61.994079409161657 25.045668624242108 9.6239359441196921 1 rotate no_reflect no_shear #
lump $-1 $-1 $64 $10 #
transform $-1 1 0 0 0 1 0 0 0 1 61.994079409161657 25.045668624242108 9.6239359441196921 1 rotate no_reflect no_shear #
lump $-1 $-1 $65 $11 #
transform $-1 1 0 0 0 1 0 0 0 1 61.994079409161657 25.045668624242108 9.6239359441196921 1 rotate no_reflect no_shear #
lump $-1 $-1 $66 $12 #
transform $-1 1 0 0 0 1 0 0 0 1 61.994079409161657 25.045668624242108 9.6239359441196921 1 rotate no_reflect no_shear #
lump $-1 $-1 $67 $13 #
transform $-1 1 0 0 0 1 0 0 0 1 61.994079409161657 25.045668624242108 9.6239359441196921 1 rotate no_reflect no_shear #
lump $-1 $-1 $68 $14 #
transform $-1 1 0 0 0 1 0 0 0 1 61.994079409161657 25.045668624242108 9.6239359441196921 1 rotate no_reflect no_shear #
lump $-1 $-1 $69 $15 #
transform $-1 1 0 0 0 1 0 0 0 1 61.994079409161657 25.045668624242108 9.6239359441196921 1 rotate no_reflect no_shear #
lump $-1 $-1 $70 $16 #
transform $-1 1 0 0 0 1 0 0 0 1 61.994079409161657 25.045668624242108 9.6239359441196921 1 rotate no_reflect no_shear #
lump $-1 $-1 $71 $17 #
transform $-1 1 0 0 0 1 0 0 0 1 61.994079409161657 25.045668624242108 9.6239359441196921 1 rotate no_reflect no_shear #
shell $-1 $-1 $-1 $72 $-1 $18 #
shell $-1 $-1 $-1 $73 $-1 $20 #
shell $-1 $-1 $-1 $74 $-1 $22 #
shell $-1 $-1 $-1 $75 $-1 $24 #
shell $-1 $-1 $-1 $76 $-1 $26 #
shell $-1 $-1 $-1 $77 $-1 $28 #
shell $-1 $-1 $-1 $78 $-1 $30 #
shell $-1 $-1 $-1 $79 $-1 $32 #
shell $-1 $-1 $-1 $80 $-1 $34 #
shell $-1 $-1 $-1 $81 $-1 $36 #
shell $-1 $-1 $-1 $82 $-1 $38 #
shell $-1 $-1 $-1 $83 $-1 $40 #
shell $-1 $-1 $-1 $84 $-1 $42 #
shell $-1 $-1 $-1 $85 $-1 $44 #
shell $-1 $-1 $-1 $86 $-1 $46 #
shell $-1 $-1 $-1 $87 $-1 $48 #
shell $-1 $-1 $-1 $88 $-1 $50 #
shell $-1 $-1 $-1 $89 $-1 $52 #
face $-1 $90 $91 $54 $-1 $92 forward single #
face $-1 $93 $94 $55 $-1 $95 reversed single #
face $-1 $96 $97 $56 $-1 $98 reversed single #
face $-1 $99 $100 $57 $-1 $101 forward single #
face $-1 $102 $103 $58 $-1 $104 forward single #
face $-1 $105 $106 $59 $-1 $107 forward single #
face $-1 $108 $109 $60 $-1 $110 reversed single #
face $-1 $111 $112 $61 $-1 $113 forward single #
face $-1 $114 $115 $62 $-1 $116 forward single #
face $-1 $117 $118 $63 $-1 $119 forward single #
face $-1 $120 $121 $64 $-1 $122 reversed single #
face $-1 $123 $124 $65 $-1 $125 forward single #
face $-1 $126 $127 $66 $-1 $128 forward single #
face $-1 $129 $130 $67 $-1 $131 forward single #
face $-1 $132 $133 $68 $-1 $134 reversed single #
face $-1 $135 $136 $69 $-1 $137 forward single #
face $-1 $138 $139 $70 $-1 $140 forward single #
face $-1 $141 $142 $71 $-1 $143 forward single #
face $-1 $144 $145 $54 $-1 $146 reversed single #
loop $-1 $-1 $147 $72 #
plane-surface $-1 0 0 9.6239359441196921 0 0 1 1 0 0 forward_v I I I I #
face $-1 $148 $149 $55 $-1 $150 reversed single #
loop $-1 $-1 $151 $73 #
plane-surface $-1 -57.590641893418038 -20.945208718975987 0 0 -1 0 0 0 -1 forward_v I I I I #
face $-1 $152 $153 $56 $-1 $154 reversed single #
loop $-1 $-1 $155 $74 #
plane-surface $-1 -42.999828112690615 -25.045668624242104 3.7590285616902861 0 -0.51503808176128008 0.85716729658548041 1 0 0 forward_v I I I I #
face $-1 $156 $157 $57 $-1 $158 forward single #
loop $-1 $159 $160 $75 #
cone-surface $-1 -49.112253871680899 -18.343365985944192 3.659364445967324 0 0.51503808176128008 -0.85716729658548041 2 0 0 1 I I 0 1 2 forward I I I I #
face $-1 $161 $162 $58 $-1 $163 forward single #
loop $-1 $164 $165 $76 #
cone-surface $-1 -42.999828112690615 -18.343365985944192 3.659364445967324 0 0.51503808176128008 -0.85716729658548041 2 0 0 1 I I 0 1 2 forward I I I I #
face $-1 $166 $167 $59 $-1 $168 forward single #
loop $-1 $169 $170 $77 #
cone-surface $-1 -36.887402353700331 -18.343365985944192 3.659364445967324 0 0.51503808176128008 -0.85716729658548041 2 0 0 1 I I 0 1 2 forward I I I I #
face $-1 $171 $172 $60 $-1 $173 reversed single #
loop $-1 $-1 $174 $78 #
plane-surface $-1 24.77819004571122 -88.904292103144286 110.03762346460367 -1 0 0 0 -0.51503808176128008 0.85716729658548041 forward_v I I I I #
face $-1 $175 $176 $61 $-1 $177 forward single #
loop $-1 $178 $179 $79 #
cone-surface $-1 8.4783880217371461 -18.343365985944192 3.659364445967324 0 0.51503808176128008 -0.85716729658548041 2 0 0 1 I I 0 1 2 forward I I I I #
face $-1 $180 $181 $62 $-1 $182 forward single #
loop $-1 $183 $184 $80 #
cone-surface $-1 14.590813780727416 -18.343365985944192 3.659364445967324 0 0.51503808176128008 -0.85716729658548041 2 0 0 1 I I 0 1 2 forward I I I I #
face $-1 $185 $186 $63 $-1 $187 forward single #
loop $-1 $188 $189 $81 #
cone-surface $-1 20.703239539717714 -18.343365985944192 3.659364445967324 0 0.51503808176128008 -0.85716729658548041 2 0 0 1 I I 0 1 2 forward I I I I #
face $-1 $190 $191 $64 $-1 $192 reversed single #
loop $-1 $-1 $193 $82 #
plane-surface $-1 -53.187204377674419 45.967635971509495 135.83656971392034 1 0 0 0 -0.51503808176128008 -0.85716729658548041 forward_v I I I I #
face $-1 $194 $195 $65 $-1 $196 forward single #
loop $-1 $197 $198 $83 #
cone-surface $-1 -49.112253871680899 18.343365985944192 3.6593644459673276 0 -0.51503808176128008 -0.85716729658548041 2 0 0 1 I I 0 1 2 forward I I I I #
face $-1 $199 $200 $66 $-1 $201 forward single #
loop $-1 $202 $203 $84 #
cone-surface $-1 -42.999828112690615 18.343365985944192 3.6593644459673276 0 -0.51503808176128008 -0.85716729658548041 2 0 0 1 I I 0 1 2 forward I I I I #
face $-1 $204 $205 $67 $-1 $206 forward single #
loop $-1 $207 $208 $85 #
cone-surface $-1 -36.887402353700331 18.343365985944192 3.6593644459673276 0 -0.51503808176128008 -0.85716729658548041 2 0 0 1 I I 0 1 2 forward I I I I #
face $-1 $209 $210 $68 $-1 $211 reversed single #
loop $-1 $-1 $212 $86 #
plane-surface $-1 4.4034375157436116 45.967635971509495 135.83656971392034 1 0 0 0 -0.51503808176128008 -0.85716729658548041 forward_v I I I I #
face $-1 $213 $214 $69 $-1 $215 forward single #
loop $-1 $216 $217 $87 #
cone-surface $-1 8.4783880217371461 18.343365985944192 3.6593644459673276 0 -0.51503808176128008 -0.85716729658548041 2 0 0 1 I I 0 1 2 forward I I I I #
face $-1 $218 $219 $70 $-1 $220 forward single #
loop $-1 $221 $222 $88 #
cone-surface $-1 14.590813780727416 18.343365985944192 3.6593644459673276 0 -0.51503808176128008 -0.85716729658548041 2 0 0 1 I I 0 1 2 forward I I I I #
face $-1 $223 $224 $71 $-1 $225 forward single #
loop $-1 $226 $227 $89 #
cone-surface $-1 20.703239539717714 18.343365985944192 3.6593644459673276 0 -0.51503808176128008 -0.85716729658548041 2 0 0 1 I I 0 1 2 forward I I I I #
face $-1 $228 $229 $54 $-1 $230 reversed single #
loop $-1 $-1 $231 $90 #
plane-surface $-1 0 0 -9.6239359441196921 0 0 1 1 0 0 forward_v I I I I #
coedge $-1 $232 $233 $234 $235 forward $91 $-1 #
face $-1 $236 $237 $55 $-1 $238 forward single #
loop $-1 $-1 $239 $93 #
plane-surface $-1 -53.187204377674419 -22.995438671609048 0 -1 0 0 0 0 1 forward_v I I I I #
coedge $-1 $240 $241 $242 $243 forward $94 $-1 #
face $-1 $244 $245 $56 $-1 $246 forward single #
loop $-1 $-1 $247 $96 #
plane-surface $-1 -32.812451847706811 -88.904292103144286 110.03762346460367 -1 0 0 0 -0.51503808176128008 0.85716729658548041 forward_v I I I I #
coedge $-1 $248 $249 $250 $251 reversed $97 $-1 #
face $-1 $-1 $252 $57 $-1 $253 forward single #
loop $-1 $254 $255 $99 #
cone-surface $-1 -49.112253871680899 -16.006447688756776 -0.22992065755582125 0 0.51503808176128008 -0.85716729658548041 1 0 0 1 I I -0.70710678118654735 0.70710678118654768 1 forward I I I I #
loop $-1 $-1 $256 $75 #
coedge $-1 $160 $160 $257 $258 reversed $100 $-1 #
face $-1 $-1 $259 $58 $-1 $260 forward single #
loop $-1 $261 $262 $102 #
cone-surface $-1 -42.999828112690615 -16.006447688756776 -0.22992065755582125 0 0.51503808176128008 -0.85716729658548041 1 0 0 1 I I -0.70710678118654735 0.70710678118654768 1 forward I I I I #
loop $-1 $-1 $263 $76 #
coedge $-1 $165 $165 $264 $265 reversed $103 $-1 #
face $-1 $-1 $266 $59 $-1 $267 forward single #
loop $-1 $268 $269 $105 #
cone-surface $-1 -36.887402353700331 -16.006447688756776 -0.22992065755582125 0 0.51503808176128008 -0.85716729658548041 1 0 0 1 I I -0.70710678118654735 0.70710678118654768 1 forward I I I I #
loop $-1 $-1 $270 $77 #
coedge $-1 $170 $170 $271 $272 reversed $106 $-1 #
face $-1 $273 $274 $60 $-1 $275 reversed single #
loop $-1 $-1 $276 $108 #
plane-surface $-1 14.590813780727416 -25.045668624242104 3.7590285616902861 0 -0.51503808176128008 0.85716729658548041 1 0 0 forward_v I I I I #
coedge $-1 $277 $278 $279 $280 reversed $109 $-1 #
face $-1 $-1 $281 $61 $-1 $282 forward single #
loop $-1 $283 $284 $111 #
cone-surface $-1 8.4783880217371461 -16.006447688756776 -0.22992065755582125 0 0.51503808176128008 -0.85716729658548041 1 0 0 1 I I -0.70710678118654735 0.70710678118654768 1 forward I I I I #
loop $-1 $-1 $285 $79 #
coedge $-1 $179 $179 $286 $287 reversed $112 $-1 #
face $-1 $-1 $288 $62 $-1 $289 forward single #
loop $-1 $290 $291 $114 #
cone-surface $-1 14.590813780727416 -16.006447688756776 -0.22992065755582125 0 0.51503808176128008 -0.85716729658548041 1 0 0 1 I I -0.70710678118654735 0.70710678118654768 1 forward I I I I #
loop $-1 $-1 $292 $80 #
coedge $-1 $184 $184 $293 $294 reversed $115 $-1 #
face $-1 $-1 $295 $63 $-1 $296 forward single #
loop $-1 $297 $298 $117 #
cone-surface $-1 20.703239539717714 -16.006447688756776 -0.22992065755582125 0 0.51503808176128008 -0.85716729658548041 1 0 0 1 I I -0.70710678118654735 0.70710678118654768 1 forward I I I I #
loop $-1 $-1 $299 $81 #
coedge $-1 $189 $189 $300 $301 reversed $118 $-1 #
face $-1 $302 $303 $64 $-1 $304 reversed single #
loop $-1 $-1 $305 $120 #
plane-surface $-1 -42.999828112690615 -17.890987507392687 29.557974811006957 0 0.51503808176128008 0.85716729658548041 1 0 0 forward_v I I I I #
coedge $-1 $306 $307 $308 $309 reversed $121 $-1 #
face $-1 $-1 $310 $65 $-1 $311 forward single #
loop $-1 $312 $313 $123 #
cone-surface $-1 -49.112253871680899 16.006447688756776 -0.2299206575558177 0 -0.51503808176128008 -0.85716729658548041 1 0 0 1 I I -0.70710678118654735 0.70710678118654768 1 forward I I I I #
loop $-1 $-1 $314 $83 #
coedge $-1 $198 $198 $315 $316 reversed $124 $-1 #
face $-1 $-1 $317 $66 $-1 $318 forward single #
loop $-1 $319 $320 $126 #
cone-surface $-1 -42.999828112690615 16.006447688756776 -0.2299206575558177 0 -0.51503808176128008 -0.85716729658548041 1 0 0 1 I I -0.70710678118654735 0.70710678118654768 1 forward I I I I #
loop $-1 $-1 $321 $84 #
coedge $-1 $203 $203 $322 $323 reversed $127 $-1 #
face $-1 $-1 $324 $67 $-1 $325 forward single #
loop $-1 $326 $327 $129 #
cone-surface $-1 -36.887402353700331 16.006447688756776 -0.2299206575558177 0 -0.51503808176128008 -0.85716729658548041 1 0 0 1 I I -0.70710678118654735 0.70710678118654768 1 forward I I I I #
loop $-1 $-1 $328 $85 #
coedge $-1 $208 $208 $329 $330 reversed $130 $-1 #
face $-1 $331 $332 $68 $-1 $333 reversed single #
loop $-1 $-1 $334 $132 #
plane-surface $-1 14.590813780727416 -17.890987507392687 29.557974811006957 0 0.51503808176128008 0.85716729658548041 1 0 0 forward_v I I I I #
coedge $-1 $335 $336 $337 $338 reversed $133 $-1 #
face $-1 $-1 $339 $69 $-1 $340 forward single #
loop $-1 $341 $342 $135 #
cone-surface $-1 8.4783880217371461 16.006447688756776 -0.2299206575558177 0 -0.51503808176128008 -0.85716729658548041 1 0 0 1 I I -0.70710678118654735 0.70710678118654768 1 forward I I I I #
loop $-1 $-1 $343 $87 #
coedge $-1 $217 $217 $344 $345 reversed $136 $-1 #
face $-1 $-1 $346 $70 $-1 $347 forward single #
loop $-1 $348 $349 $138 #
cone-surface $-1 14.590813780727416 16.006447688756776 -0.2299206575558177 0 -0.51503808176128008 -0.85716729658548041 1 0 0 1 I I -0.70710678118654735 0.70710678118654768 1 forward I I I I #
loop $-1 $-1 $350 $88 #
coedge $-1 $222 $222 $351 $352 reversed $139 $-1 #
face $-1 $-1 $353 $71 $-1 $354 forward single #
loop $-1 $355 $356 $141 #
cone-surface $-1 20.703239539717714 16.006447688756776 -0.2299206575558177 0 -0.51503808176128008 -0.85716729658548041 1 0 0 1 I I -0.70710678118654735 0.70710678118654768 1 forward I I I I #
loop $-1 $-1 $357 $89 #
coedge $-1 $227 $227 $358 $359 reversed $142 $-1 #
face $-1 $360 $361 $54 $-1 $362 reversed single #
loop $-1 $-1 $363 $144 #
plane-surface $-1 0 -25.045668624242108 0 0 1 0 0 0 1 forward_v I I I I #
coedge $-1 $364 $365 $366 $367 forward $145 $-1 #
coedge $-1 $368 $147 $369 $370 forward $91 $-1 #
coedge $-1 $147 $368 $371 $372 forward $91 $-1 #
coedge $-1 $373 $374 $147 $235 reversed $375 $-1 #
edge $-1 $376 -25.045668624242108 $377 25.045668624242108 $234 $378 forward 7 unknown #
face $-1 $379 $380 $55 $-1 $381 reversed single #
loop $-1 $-1 $382 $148 #
plane-surface $-1 0 0 9.6239359441196921 0 0 1 1 0 0 forward_v I I I I #
coedge $-1 $383 $384 $385 $386 reversed $149 $-1 #
coedge $-1 $387 $151 $388 $389 reversed $94 $-1 #
coedge $-1 $151 $387 $390 $391 reversed $94 $-1 #
coedge $-1 $384 $383 $151 $243 reversed $149 $-1 #
edge $-1 $392 -9.6239359441196921 $393 9.6239359441196921 $242 $394 forward 7 unknown #
face $-1 $395 $396 $56 $-1 $397 forward single #
loop $-1 $-1 $398 $152 #
plane-surface $-1 0 0 9.6239359441196921 0 0 1 1 0 0 forward_v I I I I #
coedge $-1 $399 $400 $401 $402 reversed $153 $-1 #
coedge $-1 $403 $155 $404 $405 reversed $97 $-1 #
coedge $-1 $155 $403 $399 $406 forward $97 $-1 #
coedge $-1 $401 $407 $155 $251 forward $408 $-1 #
edge $-1 $409 -31.687290321329112 $410 -11.312537791361503 $250 $411 forward 7 unknown #
loop $-1 $-1 $257 $156 #
plane-surface $-1 -42.999828112690615 -25.045668624242104 3.7590285616902861 0 -0.51503808176128008 0.85716729658548041 1 0 0 forward_v I I I I #
loop $-1 $-1 $412 $99 #
coedge $-1 $255 $255 $256 $413 reversed $157 $-1 #
coedge $-1 $256 $256 $255 $413 forward $159 $-1 #
coedge $-1 $257 $257 $160 $258 forward $252 $-1 #
edge $-1 $414 -1.0651892802557235e-015 $414 6.2831853071795996 $257 $415 forward 7 unknown #
loop $-1 $-1 $264 $161 #
plane-surface $-1 -42.999828112690615 -25.045668624242104 3.7590285616902861 0 -0.51503808176128008 0.85716729658548041 1 0 0 forward_v I I I I #
loop $-1 $-1 $416 $102 #
coedge $-1 $262 $262 $263 $417 reversed $162 $-1 #
coedge $-1 $263 $263 $262 $417 forward $164 $-1 #
coedge $-1 $264 $264 $165 $265 forward $259 $-1 #
edge $-1 $418 -1.0651892802557235e-015 $418 6.2831853071795996 $264 $419 forward 7 unknown #
loop $-1 $-1 $271 $166 #
plane-surface $-1 -42.999828112690615 -25.045668624242104 3.7590285616902861 0 -0.51503808176128008 0.85716729658548041 1 0 0 forward_v I I I I #
loop $-1 $-1 $420 $105 #
coedge $-1 $269 $269 $270 $421 reversed $167 $-1 #
coedge $-1 $270 $270 $269 $421 forward $169 $-1 #
coedge $-1 $271 $271 $170 $272 forward $266 $-1 #
edge $-1 $422 -1.0651892802557235e-015 $422 6.2831853071795996 $271 $423 forward 7 unknown #
face $-1 $424 $425 $60 $-1 $426 forward single #
loop $-1 $-1 $427 $171 #
plane-surface $-1 4.4034375157436116 -88.904292103144286 110.03762346460367 1 0 0 0 0.51503808176128008 -0.85716729658548041 forward_v I I I I #
coedge $-1 $428 $429 $430 $431 reversed $172 $-1 #
coedge $-1 $278 $174 $432 $433 reversed $109 $-1 #
coedge $-1 $174 $277 $428 $434 reversed $109 $-1 #
coedge $-1 $430 $435 $174 $280 forward $425 $-1 #
edge $-1 $436 19.406477427330035 $437 29.167322273073598 $279 $438 forward 7 unknown #
loop $-1 $-1 $286 $175 #
plane-surface $-1 14.590813780727416 -25.045668624242104 3.7590285616902861 0 -0.51503808176128008 0.85716729658548041 1 0 0 forward_v I I I I #
loop $-1 $-1 $439 $111 #
coedge $-1 $284 $284 $285 $440 reversed $176 $-1 #
coedge $-1 $285 $285 $284 $440 forward $178 $-1 #
coedge $-1 $286 $286 $179 $287 forward $281 $-1 #
edge $-1 $441 -1.0651892802557235e-015 $441 6.2831853071795996 $286 $442 forward 7 unknown #
loop $-1 $-1 $293 $180 #
plane-surface $-1 14.590813780727416 -25.045668624242104 3.7590285616902861 0 -0.51503808176128008 0.85716729658548041 1 0 0 forward_v I I I I #
loop $-1 $-1 $443 $114 #
coedge $-1 $291 $291 $292 $444 reversed $181 $-1 #
coedge $-1 $292 $292 $291 $444 forward $183 $-1 #
coedge $-1 $293 $293 $184 $294 forward $288 $-1 #
edge $-1 $445 -1.0651892802557235e-015 $445 6.2831853071795996 $293 $446 forward 7 unknown #
loop $-1 $-1 $300 $185 #
plane-surface $-1 14.590813780727416 -25.045668624242104 3.7590285616902861 0 -0.51503808176128008 0.85716729658548041 1 0 0 forward_v I I I I #
loop $-1 $-1 $447 $117 #
coedge $-1 $298 $298 $299 $448 reversed $186 $-1 #
coedge $-1 $299 $299 $298 $448 forward $188 $-1 #
coedge $-1 $300 $300 $189 $301 forward $295 $-1 #
edge $-1 $449 -1.0651892802557235e-015 $449 6.2831853071795996 $300 $450 forward 7 unknown #
face $-1 $451 $452 $64 $-1 $453 reversed single #
loop $-1 $-1 $454 $190 #
plane-surface $-1 -32.812451847706811 45.967635971509495 135.83656971392034 -1 0 0 0 0.51503808176128008 0.85716729658548041 forward_v I I I I #
coedge $-1 $455 $456 $457 $458 reversed $191 $-1 #
coedge $-1 $307 $193 $459 $460 reversed $121 $-1 #
coedge $-1 $193 $306 $455 $461 reversed $121 $-1 #
coedge $-1 $457 $462 $193 $309 forward $463 $-1 #
edge $-1 $464 -2.0618506384873605 $465 7.6989942072561988 $308 $466 forward 7 unknown #
loop $-1 $-1 $315 $194 #
plane-surface $-1 -42.999828112690615 -17.890987507392687 29.557974811006957 0 0.51503808176128008 0.85716729658548041 1 0 0 forward_v I I I I #
loop $-1 $-1 $467 $123 #
coedge $-1 $313 $313 $314 $468 reversed $195 $-1 #
coedge $-1 $314 $314 $313 $468 forward $197 $-1 #
coedge $-1 $315 $315 $198 $316 forward $310 $-1 #
edge $-1 $469 3.7902071593954706e-016 $469 6.2831853071796004 $315 $470 forward 7 unknown #
loop $-1 $-1 $322 $199 #
plane-surface $-1 -42.999828112690615 -17.890987507392687 29.557974811006957 0 0.51503808176128008 0.85716729658548041 1 0 0 forward_v I I I I #
loop $-1 $-1 $471 $126 #
coedge $-1 $320 $320 $321 $472 reversed $200 $-1 #
coedge $-1 $321 $321 $320 $472 forward $202 $-1 #
coedge $-1 $322 $322 $203 $323 forward $317 $-1 #
edge $-1 $473 3.7902071593954706e-016 $473 6.2831853071796004 $322 $474 forward 7 unknown #
loop $-1 $-1 $329 $204 #
plane-surface $-1 -42.999828112690615 -17.890987507392687 29.557974811006957 0 0.51503808176128008 0.85716729658548041 1 0 0 forward_v I I I I #
loop $-1 $-1 $475 $129 #
coedge $-1 $327 $327 $328 $476 reversed $205 $-1 #
coedge $-1 $328 $328 $327 $476 forward $207 $-1 #
coedge $-1 $329 $329 $208 $330 forward $324 $-1 #
edge $-1 $477 3.7902071593954706e-016 $477 6.2831853071796004 $329 $478 forward 7 unknown #
face $-1 $479 $480 $68 $-1 $481 forward single #
loop $-1 $-1 $482 $209 #
plane-surface $-1 24.77819004571122 45.967635971509495 135.83656971392034 -1 0 0 0 0.51503808176128008 0.85716729658548041 forward_v I I I I #
coedge $-1 $483 $484 $485 $486 reversed $210 $-1 #
coedge $-1 $336 $212 $487 $488 reversed $133 $-1 #
coedge $-1 $212 $335 $483 $489 reversed $133 $-1 #
coedge $-1 $485 $490 $212 $338 forward $480 $-1 #
edge $-1 $491 -2.0618506384873605 $492 7.6989942072561988 $337 $493 forward 7 unknown #
loop $-1 $-1 $344 $213 #
plane-surface $-1 14.590813780727416 -17.890987507392687 29.557974811006957 0 0.51503808176128008 0.85716729658548041 1 0 0 forward_v I I I I #
loop $-1 $-1 $494 $135 #
coedge $-1 $342 $342 $343 $495 reversed $214 $-1 #
coedge $-1 $343 $343 $342 $495 forward $216 $-1 #
coedge $-1 $344 $344 $217 $345 forward $339 $-1 #
edge $-1 $496 3.7902071593954706e-016 $496 6.2831853071796004 $344 $497 forward 7 unknown #
loop $-1 $-1 $351 $218 #
plane-surface $-1 14.590813780727416 -17.890987507392687 29.557974811006957 0 0.51503808176128008 0.85716729658548041 1 0 0 forward_v I I I I #
loop $-1 $-1 $498 $138 #
coedge $-1 $349 $349 $350 $499 reversed $219 $-1 #
coedge $-1 $350 $350 $349 $499 forward $221 $-1 #
coedge $-1 $351 $351 $222 $352 forward $346 $-1 #
edge $-1 $500 3.7902071593954706e-016 $500 6.2831853071796004 $351 $501 forward 7 unknown #
loop $-1 $-1 $358 $223 #
plane-surface $-1 14.590813780727416 -17.890987507392687 29.557974811006957 0 0.51503808176128008 0.85716729658548041 1 0 0 forward_v I I I I #
loop $-1 $-1 $502 $141 #
coedge $-1 $356 $356 $357 $503 reversed $224 $-1 #
coedge $-1 $357 $357 $356 $503 forward $226 $-1 #
coedge $-1 $358 $358 $227 $359 forward $353 $-1 #
edge $-1 $504 3.7902071593954706e-016 $504 6.2831853071796004 $358 $505 forward 7 unknown #
face $-1 $506 $507 $54 $-1 $508 reversed single #
loop $-1 $-1 $509 $228 #
plane-surface $-1 -61.994079409161657 0 0 1 0 0 0 0 -1 forward_v I I I I #
coedge $-1 $510 $371 $511 $512 forward $229 $-1 #
coedge $-1 $513 $231 $510 $514 forward $145 $-1 #
coedge $-1 $231 $513 $515 $516 forward $145 $-1 #
coedge $-1 $374 $373 $231 $367 reversed $375 $-1 #
edge $-1 $517 -25.045668624242108 $518 25.045668624242108 $366 $519 forward 7 unknown #
coedge $-1 $233 $232 $520 $521 forward $91 $-1 #
coedge $-1 $522 $523 $232 $370 reversed $507 $-1 #
edge $-1 $377 -61.994079409161657 $524 61.994079409161657 $369 $525 forward 7 unknown #
coedge $-1 $363 $526 $233 $372 reversed $229 $-1 #
edge $-1 $527 -61.994079409161657 $376 61.994079409161657 $371 $528 forward 7 unknown #
coedge $-1 $366 $234 $526 $529 forward $375 $-1 #
coedge $-1 $234 $366 $522 $530 reversed $375 $-1 #
loop $-1 $-1 $373 $506 #
vertex $-1 $235 $531 #
vertex $-1 $235 $532 #
straight-curve $-1 61.994079409161657 0 9.6239359441196921 0 1 0 I I #
face $-1 $533 $534 $55 $-1 $535 reversed single #
loop $-1 $-1 $536 $236 #
plane-surface $-1 -61.994079409161657 0 0 1 0 0 0 0 -1 forward_v I I I I #
coedge $-1 $390 $537 $384 $538 forward $237 $-1 #
coedge $-1 $242 $239 $539 $540 reversed $149 $-1 #
coedge $-1 $239 $242 $382 $538 reversed $149 $-1 #
coedge $-1 $541 $542 $239 $386 forward $543 $-1 #
edge $-1 $544 -9.6239359441196921 $545 9.6239359441196921 $385 $546 forward 7 unknown #
coedge $-1 $241 $240 $536 $547 reversed $94 $-1 #
coedge $-1 $539 $548 $240 $389 forward $534 $-1 #
edge $-1 $549 -33.198758462452638 $393 -24.3918834309654 $388 $550 forward 7 unknown #
coedge $-1 $551 $382 $241 $391 forward $237 $-1 #
edge $-1 $392 24.3918834309654 $552 33.198758462452638 $390 $553 forward 7 unknown #
vertex $-1 $391 $554 #
vertex $-1 $389 $555 #
straight-curve $-1 -53.187204377674419 -20.945208718975987 0 0 0 -1 I I #
face $-1 $-1 $408 $56 $-1 $556 reversed single #
loop $-1 $-1 $404 $244 #
plane-surface $-1 -53.187204377674419 -22.995438671609048 0 -1 0 0 0 0 1 forward_v I I I I #
coedge $-1 $557 $558 $400 $559 forward $245 $-1 #
coedge $-1 $400 $247 $249 $406 reversed $153 $-1 #
coedge $-1 $247 $399 $398 $559 reversed $153 $-1 #
coedge $-1 $560 $250 $247 $402 forward $408 $-1 #
edge $-1 $410 -51.259783170611549 $561 -45.394875788182141 $401 $562 forward 7 unknown #
coedge $-1 $249 $248 $557 $563 reversed $97 $-1 #
coedge $-1 $564 $565 $248 $405 forward $396 $-1 #
edge $-1 $566 -11.476654033681225 $409 -0.089326396910880734 $404 $567 forward 7 unknown #
edge $-1 $568 -11.387327636770339 $410 4.1888842534599766e-015 $399 $569 forward 7 unknown #
coedge $-1 $250 $560 $564 $570 forward $408 $-1 #
loop $-1 $-1 $401 $395 #
vertex $-1 $405 $571 #
vertex $-1 $251 $572 #
straight-curve $-1 -21.499914056345308 -25.045668624242108 3.759028561690283 1 0 0 I I #
coedge $-1 $412 $412 $-1 $573 reversed $254 $-1 #
edge $-1 $574 0 $574 6.2831853071796004 $255 $575 forward 7 unknown #
vertex $-1 $258 $576 #
ellipse-curve $-1 -49.112253871680899 -20.165246201370326 6.6914822529049873 0 -0.51503808176128008 0.85716729658548041 2 0 0 1 I I #
coedge $-1 $416 $416 $-1 $577 reversed $261 $-1 #
edge $-1 $578 0 $578 6.2831853071796004 $262 $579 forward 7 unknown #
vertex $-1 $265 $580 #
ellipse-curve $-1 -42.999828112690615 -20.165246201370326 6.6914822529049873 0 -0.51503808176128008 0.85716729658548041 2 0 0 1 I I #
coedge $-1 $420 $420 $-1 $581 reversed $268 $-1 #
edge $-1 $582 0 $582 6.2831853071796004 $269 $583 forward 7 unknown #
vertex $-1 $272 $584 #
ellipse-curve $-1 -36.887402353700331 -20.165246201370326 6.6914822529049873 0 -0.51503808176128008 0.85716729658548041 2 0 0 1 I I #
face $-1 $-1 $585 $60 $-1 $586 reversed single #
loop $-1 $-1 $279 $273 #
plane-surface $-1 0 0 9.6239359441196921 0 0 1 1 0 0 forward_v I I I I #
coedge $-1 $587 $588 $589 $590 reversed $274 $-1 #
coedge $-1 $591 $276 $278 $434 forward $172 $-1 #
coedge $-1 $276 $591 $587 $592 forward $172 $-1 #
coedge $-1 $589 $279 $276 $431 forward $425 $-1 #
edge $-1 $437 -17.482783155347512 $593 2.8919693746200963 $430 $594 forward 7 unknown #
coedge $-1 $595 $596 $277 $433 forward $585 $-1 #
edge $-1 $597 -51.259783170611549 $436 -45.394875788182141 $432 $598 forward 7 unknown #
edge $-1 $437 -11.387327636770339 $597 4.1888842534599766e-015 $278 $599 forward 7 unknown #
coedge $-1 $279 $589 $595 $600 forward $425 $-1 #
vertex $-1 $433 $601 #
vertex $-1 $280 $602 #
straight-curve $-1 24.77819004571122 -44.452146051572143 9.6239359441196939 0 1 0 I I #
coedge $-1 $439 $439 $-1 $603 reversed $283 $-1 #
edge $-1 $604 0 $604 6.2831853071796004 $284 $605 forward 7 unknown #
vertex $-1 $287 $606 #
ellipse-curve $-1 8.4783880217371461 -20.165246201370326 6.6914822529049873 0 -0.51503808176128008 0.85716729658548041 2 0 0 1 I I #
coedge $-1 $443 $443 $-1 $607 reversed $290 $-1 #
edge $-1 $608 0 $608 6.2831853071796004 $291 $609 forward 7 unknown #
vertex $-1 $294 $610 #
ellipse-curve $-1 14.590813780727416 -20.165246201370326 6.6914822529049873 0 -0.51503808176128008 0.85716729658548041 2 0 0 1 I I #
coedge $-1 $447 $447 $-1 $611 reversed $297 $-1 #
edge $-1 $612 0 $612 6.2831853071796004 $298 $613 forward 7 unknown #
vertex $-1 $301 $614 #
ellipse-curve $-1 20.703239539717714 -20.165246201370326 6.6914822529049873 0 -0.51503808176128008 0.85716729658548041 2 0 0 1 I I #
face $-1 $-1 $463 $64 $-1 $615 forward single #
loop $-1 $-1 $616 $302 #
plane-surface $-1 0 25.045668624242108 0 0 -1 0 0 0 -1 forward_v I I I I #
coedge $-1 $617 $618 $619 $620 reversed $303 $-1 #
coedge $-1 $621 $305 $307 $461 forward $191 $-1 #
coedge $-1 $305 $621 $617 $622 forward $191 $-1 #
coedge $-1 $619 $308 $305 $458 forward $463 $-1 #
edge $-1 $465 -31.687290321329112 $623 -11.312537791361503 $457 $624 forward 7 unknown #
coedge $-1 $625 $626 $306 $460 forward $452 $-1 #
edge $-1 $627 -64.159256295269884 $464 -58.294348912840476 $459 $628 forward 7 unknown #
edge $-1 $465 38.704009611713879 $627 50.091337248484209 $307 $629 forward 7 unknown #
coedge $-1 $308 $619 $625 $630 forward $463 $-1 #
loop $-1 $-1 $619 $451 #
vertex $-1 $460 $631 #
vertex $-1 $309 $632 #
straight-curve $-1 -53.187204377674419 22.983817985754747 9.6239359441196939 0 -1 0 I I #
coedge $-1 $467 $467 $-1 $633 reversed $312 $-1 #
edge $-1 $634 0 $634 6.2831853071796004 $313 $635 forward 7 unknown #
vertex $-1 $316 $636 #
ellipse-curve $-1 -49.112253871680899 20.165246201370326 6.6914822529049882 0 0.51503808176128008 0.85716729658548041 2 0 0 1 I I #
coedge $-1 $471 $471 $-1 $637 reversed $319 $-1 #
edge $-1 $638 0 $638 6.2831853071796004 $320 $639 forward 7 unknown #
vertex $-1 $323 $640 #
ellipse-curve $-1 -42.999828112690615 20.165246201370326 6.6914822529049882 0 0.51503808176128008 0.85716729658548041 2 0 0 1 I I #
coedge $-1 $475 $475 $-1 $641 reversed $326 $-1 #
edge $-1 $642 0 $642 6.2831853071796004 $327 $643 forward 7 unknown #
vertex $-1 $330 $644 #
ellipse-curve $-1 -36.887402353700331 20.165246201370326 6.6914822529049882 0 0.51503808176128008 0.85716729658548041 2 0 0 1 I I #
face $-1 $-1 $645 $68 $-1 $646 reversed single #
loop $-1 $-1 $337 $331 #
plane-surface $-1 0 0 9.6239359441196921 0 0 1 1 0 0 forward_v I I I I #
coedge $-1 $647 $648 $649 $650 reversed $332 $-1 #
coedge $-1 $651 $334 $336 $489 forward $210 $-1 #
coedge $-1 $334 $651 $647 $652 forward $210 $-1 #
coedge $-1 $649 $337 $334 $486 forward $480 $-1 #
edge $-1 $492 -2.8919693746200963 $653 17.482783155347512 $485 $654 forward 7 unknown #
coedge $-1 $655 $656 $335 $488 forward $645 $-1 #
edge $-1 $657 -64.159256295269884 $491 -58.294348912840476 $487 $658 forward 7 unknown #
edge $-1 $492 38.704009611713879 $657 50.091337248484209 $336 $659 forward 7 unknown #
coedge $-1 $337 $649 $655 $660 forward $480 $-1 #
vertex $-1 $488 $661 #
vertex $-1 $338 $662 #
straight-curve $-1 4.4034375157436116 22.983817985754747 9.6239359441196939 0 -1 0 I I #
coedge $-1 $494 $494 $-1 $663 reversed $341 $-1 #
edge $-1 $664 0 $664 6.2831853071796004 $342 $665 forward 7 unknown #
vertex $-1 $345 $666 #
ellipse-curve $-1 8.4783880217371461 20.165246201370326 6.6914822529049882 0 0.51503808176128008 0.85716729658548041 2 0 0 1 I I #
coedge $-1 $498 $498 $-1 $667 reversed $348 $-1 #
edge $-1 $668 0 $668 6.2831853071796004 $349 $669 forward 7 unknown #
vertex $-1 $352 $670 #
ellipse-curve $-1 14.590813780727416 20.165246201370326 6.6914822529049882 0 0.51503808176128008 0.85716729658548041 2 0 0 1 I I #
coedge $-1 $502 $502 $-1 $671 reversed $355 $-1 #
edge $-1 $672 0 $672 6.2831853071796004 $356 $673 forward 7 unknown #
vertex $-1 $359 $674 #
ellipse-curve $-1 20.703239539717714 20.165246201370326 6.6914822529049882 0 0.51503808176128008 0.85716729658548041 2 0 0 1 I I #
face $-1 $-1 $375 $54 $-1 $675 reversed single #
loop $-1 $-1 $522 $360 #
plane-surface $-1 0 25.045668624242108 0 0 -1 0 0 0 -1 forward_v I I I I #
coedge $-1 $676 $520 $523 $677 forward $361 $-1 #
coedge $-1 $526 $363 $364 $514 reversed $229 $-1 #
coedge $-1 $520 $676 $363 $512 reversed $361 $-1 #
edge $-1 $527 -9.6239359441196921 $678 9.6239359441196921 $511 $679 forward 7 unknown #
coedge $-1 $365 $364 $676 $680 forward $145 $-1 #
edge $-1 $518 -61.994079409161657 $678 61.994079409161657 $510 $681 forward 7 unknown #
coedge $-1 $523 $522 $365 $516 reversed $507 $-1 #
edge $-1 $682 -61.994079409161657 $517 61.994079409161657 $515 $683 forward 7 unknown #
vertex $-1 $367 $684 #
vertex $-1 $529 $685 #
straight-curve $-1 61.994079409161657 0 -9.6239359441196921 0 -1 0 I I #
coedge $-1 $509 $511 $368 $521 reversed $361 $-1 #
edge $-1 $524 -25.045668624242108 $527 25.045668624242108 $520 $686 forward 7 unknown #
coedge $-1 $515 $369 $374 $530 forward $507 $-1 #
coedge $-1 $369 $515 $509 $677 reversed $507 $-1 #
vertex $-1 $370 $687 #
straight-curve $-1 0 25.045668624242108 9.6239359441196921 -1 0 0 I I #
coedge $-1 $371 $510 $373 $529 reversed $229 $-1 #
vertex $-1 $521 $688 #
straight-curve $-1 0 -25.045668624242108 9.6239359441196921 1 0 0 I I #
edge $-1 $376 -9.6239359441196921 $518 9.6239359441196921 $373 $689 forward 7 unknown #
edge $-1 $377 -9.6239359441196921 $517 9.6239359441196921 $374 $690 forward 7 unknown #
point $-1 61.994079409161657 -25.045668624242108 9.6239359441196921 #
point $-1 61.994079409161657 25.045668624242108 9.6239359441196921 #
face $-1 $-1 $543 $55 $-1 $691 reversed single #
loop $-1 $-1 $539 $379 #
plane-surface $-1 0 0 -9.6239359441196921 0 0 1 1 0 0 forward_v I I I I #
coedge $-1 $692 $693 $387 $547 forward $380 $-1 #
coedge $-1 $382 $551 $541 $694 forward $237 $-1 #
edge $-1 $545 -13.547949288437584 $392 -9.4474893831714635 $382 $695 forward 7 unknown #
coedge $-1 $696 $388 $383 $540 forward $534 $-1 #
edge $-1 $393 9.4474893831714635 $544 13.547949288437584 $539 $697 forward 7 unknown #
coedge $-1 $698 $385 $537 $694 reversed $543 $-1 #
coedge $-1 $385 $698 $696 $699 reversed $543 $-1 #
loop $-1 $-1 $385 $533 #
vertex $-1 $699 $700 #
vertex $-1 $386 $701 #
straight-curve $-1 -53.187204377674419 -25.045668624242108 0 0 0 1 I I #
edge $-1 $552 -9.6239359441196921 $549 9.6239359441196921 $536 $702 forward 7 unknown #
coedge $-1 $388 $696 $692 $703 forward $534 $-1 #
vertex $-1 $389 $704 #
straight-curve $-1 -28.795320946709019 -20.945208718975987 -9.6239359441196921 1 0 0 I I #
coedge $-1 $537 $390 $693 $705 forward $237 $-1 #
vertex $-1 $705 $706 #
straight-curve $-1 -28.795320946709019 -20.945208718975987 9.6239359441196921 -1 0 0 I I #
point $-1 -53.187204377674419 -20.945208718975987 9.6239359441196921 #
point $-1 -53.187204377674419 -20.945208718975987 -9.6239359441196921 #
plane-surface $-1 0 -25.045668624242108 0 0 1 0 0 0 1 forward_v I I I I #
coedge $-1 $707 $398 $403 $563 forward $245 $-1 #
coedge $-1 $398 $707 $560 $708 forward $245 $-1 #
edge $-1 $561 19.406477427330035 $568 29.167322273073598 $398 $709 forward 7 unknown #
coedge $-1 $407 $401 $558 $708 reversed $408 $-1 #
vertex $-1 $559 $710 #
straight-curve $-1 -32.812451847706811 -25.045668624242108 55.018811732301835 0 0 1 I I #
edge $-1 $568 11.312537791361503 $566 31.687290321329112 $557 $711 forward 7 unknown #
coedge $-1 $565 $404 $407 $570 reversed $396 $-1 #
coedge $-1 $404 $564 $707 $712 reversed $396 $-1 #
vertex $-1 $712 $713 #
straight-curve $-1 -53.187204377674419 -25.122236290395929 3.7130220655746564 0 -0.85716729658548041 -0.51503808176128008 I I #
vertex $-1 $563 $714 #
straight-curve $-1 -32.812451847706811 -25.045668624242104 3.7590285616902861 0 -0.85716729658548041 -0.51503808176128008 I I #
edge $-1 $715 -9.6239359441196921 $409 -3.7590285616902839 $407 $716 forward 7 unknown #
point $-1 -53.187204377674419 -25.045668624242108 3.7590285616902839 #
point $-1 -32.812451847706811 -25.045668624242108 3.7590285616902839 #
edge $-1 $717 1 $717 0 $412 $-1 forward 7 unknown #
vertex $-1 $413 $718 #
ellipse-curve $-1 -49.112253871680899 -16.521485770518055 0.62724663902965949 0 -0.51503808176128008 0.85716729658548041 2 0 0 1 I I #
point $-1 -47.112253871680899 -20.16524620137033 6.6914822529049891 #
edge $-1 $719 1 $719 0 $416 $-1 forward 7 unknown #
vertex $-1 $417 $720 #
ellipse-curve $-1 -42.999828112690615 -16.521485770518055 0.62724663902965949 0 -0.51503808176128008 0.85716729658548041 2 0 0 1 I I #
point $-1 -40.999828112690615 -20.16524620137033 6.6914822529049891 #
edge $-1 $721 1 $721 0 $420 $-1 forward 7 unknown #
vertex $-1 $421 $722 #
ellipse-curve $-1 -36.887402353700331 -16.521485770518055 0.62724663902965949 0 -0.51503808176128008 0.85716729658548041 2 0 0 1 I I #
point $-1 -34.887402353700331 -20.16524620137033 6.6914822529049891 #
loop $-1 $-1 $432 $424 #
plane-surface $-1 0 -25.045668624242108 0 0 1 0 0 0 1 forward_v I I I I #
coedge $-1 $588 $427 $429 $592 reversed $274 $-1 #
coedge $-1 $427 $587 $723 $724 reversed $274 $-1 #
coedge $-1 $435 $430 $427 $590 forward $425 $-1 #
edge $-1 $593 -29.167322273073598 $725 -19.406477427330035 $589 $726 forward 7 unknown #
coedge $-1 $429 $428 $596 $727 reversed $172 $-1 #
edge $-1 $728 -4.1888842534599766e-015 $593 11.387327636770339 $587 $729 forward 7 unknown #
vertex $-1 $431 $730 #
straight-curve $-1 7.2954068903637079 -15.284823778498545 9.6239359441196921 -1 0 0 I I #
coedge $-1 $723 $432 $435 $600 reversed $585 $-1 #
coedge $-1 $432 $723 $591 $727 forward $585 $-1 #
vertex $-1 $433 $731 #
straight-curve $-1 24.77819004571122 -25.045668624242108 55.018811732301835 0 0 1 I I #
straight-curve $-1 24.77819004571122 -25.045668624242104 3.7590285616902861 0 -0.85716729658548041 -0.51503808176128008 I I #
edge $-1 $725 4.4034375157436116 $436 24.77819004571122 $595 $732 forward 7 unknown #
point $-1 24.77819004571122 -25.045668624242108 9.6239359441196921 #
point $-1 24.77819004571122 -15.284823778498545 9.6239359441196921 #
edge $-1 $733 1 $733 0 $439 $-1 forward 7 unknown #
vertex $-1 $440 $734 #
ellipse-curve $-1 8.4783880217371461 -16.521485770518055 0.62724663902965949 0 -0.51503808176128008 0.85716729658548041 2 0 0 1 I I #
point $-1 10.478388021737146 -20.16524620137033 6.6914822529049891 #
edge $-1 $735 1 $735 0 $443 $-1 forward 7 unknown #
vertex $-1 $444 $736 #
ellipse-curve $-1 14.590813780727416 -16.521485770518055 0.62724663902965949 0 -0.51503808176128008 0.85716729658548041 2 0 0 1 I I #
point $-1 16.590813780727416 -20.16524620137033 6.6914822529049891 #
edge $-1 $737 1 $737 0 $447 $-1 forward 7 unknown #
vertex $-1 $448 $738 #
ellipse-curve $-1 20.703239539717714 -16.521485770518055 0.62724663902965949 0 -0.51503808176128008 0.85716729658548041 2 0 0 1 I I #
point $-1 22.703239539717714 -20.16524620137033 6.6914822529049891 #
plane-surface $-1 0 0 9.6239359441196921 0 0 1 1 0 0 forward_v I I I I #
coedge $-1 $626 $625 $618 $739 forward $452 $-1 #
coedge $-1 $618 $454 $456 $622 reversed $303 $-1 #
coedge $-1 $454 $617 $616 $739 reversed $303 $-1 #
coedge $-1 $462 $457 $454 $620 forward $463 $-1 #
edge $-1 $623 -7.6989942072561988 $740 2.0618506384873605 $619 $741 forward 7 unknown #
coedge $-1 $456 $455 $626 $742 reversed $191 $-1 #
edge $-1 $743 -50.091337248484209 $623 -38.704009611713879 $617 $744 forward 7 unknown #
vertex $-1 $458 $745 #
straight-curve $-1 -21.499914056345308 15.28482377849855 9.6239359441196903 1 0 0 I I #
coedge $-1 $616 $459 $462 $630 reversed $452 $-1 #
coedge $-1 $459 $616 $621 $742 forward $452 $-1 #
vertex $-1 $460 $746 #
straight-curve $-1 -53.187204377674419 25.045668624242108 67.91828485696017 0 0 1 I I #
straight-curve $-1 -53.187204377674419 -17.890987507392687 29.557974811006957 0 0.85716729658548041 -0.51503808176128008 I I #
edge $-1 $740 32.812451847706811 $464 53.187204377674419 $625 $747 forward 7 unknown #
point $-1 -53.187204377674419 25.045668624242108 9.6239359441196921 #
point $-1 -53.187204377674419 15.284823778498549 9.6239359441196939 #
edge $-1 $748 1 $748 0 $467 $-1 forward 7 unknown #
vertex $-1 $468 $749 #
ellipse-curve $-1 -49.112253871680899 16.521485770518055 0.62724663902966304 0 0.51503808176128008 0.85716729658548041 2 0 0 1 I I #
point $-1 -47.112253871680899 20.16524620137033 6.6914822529049927 #
edge $-1 $750 1 $750 0 $471 $-1 forward 7 unknown #
vertex $-1 $472 $751 #
ellipse-curve $-1 -42.999828112690615 16.521485770518055 0.62724663902966304 0 0.51503808176128008 0.85716729658548041 2 0 0 1 I I #
point $-1 -40.999828112690615 20.16524620137033 6.6914822529049927 #
edge $-1 $752 1 $752 0 $475 $-1 forward 7 unknown #
vertex $-1 $476 $753 #
ellipse-curve $-1 -36.887402353700331 16.521485770518055 0.62724663902966304 0 0.51503808176128008 0.85716729658548041 2 0 0 1 I I #
point $-1 -34.887402353700331 20.16524620137033 6.6914822529049927 #
loop $-1 $-1 $487 $479 #
plane-surface $-1 0 25.045668624242108 0 0 -1 0 0 0 -1 forward_v I I I I #
coedge $-1 $648 $482 $484 $652 reversed $332 $-1 #
coedge $-1 $482 $647 $754 $755 reversed $332 $-1 #
coedge $-1 $490 $485 $482 $650 forward $480 $-1 #
edge $-1 $653 -7.6989942072561988 $756 2.0618506384873605 $649 $757 forward 7 unknown #
coedge $-1 $484 $483 $656 $758 reversed $210 $-1 #
edge $-1 $759 -50.091337248484209 $653 -38.704009611713879 $647 $760 forward 7 unknown #
vertex $-1 $486 $761 #
straight-curve $-1 7.2954068903637079 15.28482377849855 9.6239359441196903 1 0 0 I I #
coedge $-1 $754 $487 $490 $660 reversed $645 $-1 #
coedge $-1 $487 $754 $651 $758 forward $645 $-1 #
vertex $-1 $488 $762 #
straight-curve $-1 4.4034375157436116 25.045668624242108 67.91828485696017 0 0 1 I I #
straight-curve $-1 4.4034375157436116 -17.890987507392687 29.557974811006957 0 0.85716729658548041 -0.51503808176128008 I I #
edge $-1 $756 -24.77819004571122 $491 -4.4034375157436116 $655 $763 forward 7 unknown #
point $-1 4.4034375157436116 25.045668624242108 9.6239359441196921 #
point $-1 4.4034375157436116 15.284823778498549 9.6239359441196939 #
edge $-1 $764 1 $764 0 $494 $-1 forward 7 unknown #
vertex $-1 $495 $765 #
ellipse-curve $-1 8.4783880217371461 16.521485770518055 0.62724663902966304 0 0.51503808176128008 0.85716729658548041 2 0 0 1 I I #
point $-1 10.478388021737146 20.16524620137033 6.6914822529049927 #
edge $-1 $766 1 $766 0 $498 $-1 forward 7 unknown #
vertex $-1 $499 $767 #
ellipse-curve $-1 14.590813780727416 16.521485770518055 0.62724663902966304 0 0.51503808176128008 0.85716729658548041 2 0 0 1 I I #
point $-1 16.590813780727416 20.16524620137033 6.6914822529049927 #
edge $-1 $768 1 $768 0 $502 $-1 forward 7 unknown #
vertex $-1 $503 $769 #
ellipse-curve $-1 20.703239539717714 16.521485770518055 0.62724663902966304 0 0.51503808176128008 0.85716729658548041 2 0 0 1 I I #
point $-1 22.703239539717714 20.16524620137033 6.6914822529049927 #
plane-surface $-1 61.994079409161657 0 0 -1 0 0 0 0 1 forward_v I I I I #
coedge $-1 $511 $509 $513 $680 reversed $361 $-1 #
edge $-1 $524 -9.6239359441196921 $682 9.6239359441196921 $523 $770 forward 7 unknown #
vertex $-1 $680 $771 #
straight-curve $-1 -61.994079409161657 -25.045668624242108 0 0 0 -1 I I #
edge $-1 $678 -25.045668624242108 $682 25.045668624242108 $676 $772 forward 7 unknown #
straight-curve $-1 0 -25.045668624242108 -9.6239359441196921 -1 0 0 I I #
vertex $-1 $516 $773 #
straight-curve $-1 0 25.045668624242108 -9.6239359441196921 1 0 0 I I #
point $-1 61.994079409161657 25.045668624242108 -9.6239359441196921 #
point $-1 61.994079409161657 -25.045668624242108 -9.6239359441196921 #
straight-curve $-1 -61.994079409161657 0 9.6239359441196921 0 -1 0 I I #
point $-1 -61.994079409161657 25.045668624242108 9.6239359441196921 #
point $-1 -61.994079409161657 -25.045668624242108 9.6239359441196921 #
straight-curve $-1 61.994079409161657 -25.045668624242108 0 0 0 -1 I I #
straight-curve $-1 61.994079409161657 25.045668624242108 0 0 0 -1 I I #
plane-surface $-1 0 -25.045668624242108 0 0 1 0 0 0 1 forward_v I I I I #
coedge $-1 $774 $536 $548 $703 reversed $380 $-1 #
coedge $-1 $536 $774 $551 $705 reversed $380 $-1 #
edge $-1 $775 -61.994079409161657 $545 -53.187204377674419 $541 $776 forward 7 unknown #
straight-curve $-1 -53.187204377674419 -11.497719335804524 9.6239359441196921 0 1 0 I I #
coedge $-1 $548 $539 $542 $699 forward $534 $-1 #
straight-curve $-1 -53.187204377674419 -11.497719335804524 -9.6239359441196921 0 -1 0 I I #
coedge $-1 $542 $541 $774 $777 forward $543 $-1 #
edge $-1 $544 53.187204377674419 $778 61.994079409161657 $542 $779 forward 7 unknown #
point $-1 -53.187204377674419 -25.045668624242108 -9.6239359441196921 #
point $-1 -53.187204377674419 -25.045668624242108 9.6239359441196921 #
straight-curve $-1 -61.994079409161657 -20.945208718975987 0 0 0 -1 I I #
edge $-1 $778 -25.045668624242108 $549 -20.945208718975987 $692 $780 forward 7 unknown #
point $-1 -61.994079409161657 -20.945208718975987 -9.6239359441196921 #
edge $-1 $552 20.945208718975987 $775 25.045668624242108 $693 $781 forward 7 unknown #
point $-1 -61.994079409161657 -20.945208718975987 9.6239359441196921 #
coedge $-1 $558 $557 $565 $712 forward $245 $-1 #
edge $-1 $715 -53.187204377674419 $561 -32.812451847706811 $560 $782 forward 7 unknown #
straight-curve $-1 -32.812451847706811 -44.452146051572143 9.6239359441196939 0 1 0 I I #
point $-1 -32.812451847706811 -25.045668624242108 9.6239359441196921 #
straight-curve $-1 -21.499914056345308 -15.284823778498545 9.6239359441196921 -1 0 0 I I #
edge $-1 $566 -29.167322273073598 $715 -19.406477427330035 $707 $783 forward 7 unknown #
point $-1 -53.187204377674419 -15.284823778498545 9.6239359441196921 #
point $-1 -32.812451847706811 -15.284823778498545 9.6239359441196921 #
vertex $-1 $708 $784 #
straight-curve $-1 -53.187204377674419 -25.045668624242108 0 0 0 -1 I I #
vertex $-1 $573 $785 #
point $-1 -47.112253871680899 -16.521485770518055 0.62724663902965949 #
vertex $-1 $577 $786 #
point $-1 -40.999828112690615 -16.521485770518055 0.62724663902965949 #
vertex $-1 $581 $787 #
point $-1 -34.887402353700331 -16.521485770518055 0.62724663902965949 #
coedge $-1 $596 $595 $588 $724 forward $585 $-1 #
edge $-1 $725 45.394875788182141 $728 51.259783170611549 $723 $788 forward 7 unknown #
vertex $-1 $600 $789 #
straight-curve $-1 4.4034375157436116 -44.452146051572143 9.6239359441196939 0 -1 0 I I #
edge $-1 $728 -2.8919693746200963 $597 17.482783155347512 $596 $790 forward 7 unknown #
vertex $-1 $727 $791 #
straight-curve $-1 4.4034375157436116 -25.045668624242104 3.7590285616902861 0 0.85716729658548041 0.51503808176128008 I I #
point $-1 4.4034375157436116 -15.284823778498545 9.6239359441196921 #
point $-1 24.77819004571122 -25.045668624242108 3.7590285616902839 #
straight-curve $-1 0 -25.045668624242108 9.6239359441196921 1 0 0 I I #
vertex $-1 $603 $792 #
point $-1 10.478388021737146 -16.521485770518055 0.62724663902965949 #
vertex $-1 $607 $793 #
point $-1 16.590813780727416 -16.521485770518055 0.62724663902965949 #
vertex $-1 $611 $794 #
point $-1 22.703239539717714 -16.521485770518055 0.62724663902965949 #
edge $-1 $740 58.294348912840476 $743 64.159256295269884 $616 $795 forward 7 unknown #
vertex $-1 $630 $796 #
straight-curve $-1 -32.812451847706811 22.983817985754747 9.6239359441196939 0 1 0 I I #
edge $-1 $743 11.312537791361503 $627 31.687290321329112 $626 $797 forward 7 unknown #
vertex $-1 $742 $798 #
straight-curve $-1 -32.812451847706811 -17.890987507392687 29.557974811006957 0 -0.85716729658548041 0.51503808176128008 I I #
point $-1 -32.812451847706811 15.284823778498549 9.6239359441196939 #
point $-1 -53.187204377674419 25.045668624242104 3.7590285616902896 #
straight-curve $-1 0 25.045668624242108 9.6239359441196921 -1 0 0 I I #
vertex $-1 $633 $799 #
point $-1 -47.112253871680899 16.521485770518055 0.62724663902966304 #
vertex $-1 $637 $800 #
point $-1 -40.999828112690615 16.521485770518055 0.62724663902966304 #
vertex $-1 $641 $801 #
point $-1 -34.887402353700331 16.521485770518055 0.62724663902966304 #
coedge $-1 $656 $655 $648 $755 forward $645 $-1 #
edge $-1 $756 58.294348912840476 $759 64.159256295269884 $754 $802 forward 7 unknown #
vertex $-1 $660 $803 #
straight-curve $-1 24.77819004571122 22.983817985754747 9.6239359441196939 0 1 0 I I #
edge $-1 $759 -17.482783155347512 $657 2.8919693746200963 $656 $804 forward 7 unknown #
vertex $-1 $758 $805 #
straight-curve $-1 24.77819004571122 -17.890987507392687 29.557974811006957 0 -0.85716729658548041 0.51503808176128008 I I #
point $-1 24.77819004571122 15.284823778498549 9.6239359441196939 #
point $-1 4.4034375157436116 25.045668624242104 3.7590285616902896 #
straight-curve $-1 0 25.045668624242108 9.6239359441196921 -1 0 0 I I #
vertex $-1 $663 $806 #
point $-1 10.478388021737146 16.521485770518055 0.62724663902966304 #
vertex $-1 $667 $807 #
point $-1 16.590813780727416 16.521485770518055 0.62724663902966304 #
vertex $-1 $671 $808 #
point $-1 22.703239539717714 16.521485770518055 0.62724663902966304 #
straight-curve $-1 -61.994079409161657 25.045668624242108 0 0 0 -1 I I #
point $-1 -61.994079409161657 -25.045668624242108 -9.6239359441196921 #
straight-curve $-1 -61.994079409161657 0 -9.6239359441196921 0 1 0 I I #
point $-1 -61.994079409161657 25.045668624242108 -9.6239359441196921 #
coedge $-1 $693 $692 $698 $777 reversed $380 $-1 #
vertex $-1 $705 $809 #
straight-curve $-1 0 -25.045668624242108 9.6239359441196921 1 0 0 I I #
edge $-1 $775 -9.6239359441196921 $778 9.6239359441196921 $774 $810 forward 7 unknown #
vertex $-1 $703 $811 #
straight-curve $-1 0 -25.045668624242108 -9.6239359441196921 -1 0 0 I I #
straight-curve $-1 -61.994079409161657 0 -9.6239359441196921 0 1 0 I I #
straight-curve $-1 -61.994079409161657 0 9.6239359441196921 0 -1 0 I I #
straight-curve $-1 0 -25.045668624242108 9.6239359441196921 1 0 0 I I #
straight-curve $-1 -53.187204377674419 -44.452146051572143 9.6239359441196939 0 -1 0 I I #
point $-1 -53.187204377674419 -25.045668624242108 9.6239359441196921 #
point $-1 -49.112253871680899 -15.491409606995495 -1.0870879541413019 #
point $-1 -42.999828112690615 -15.491409606995495 -1.0870879541413019 #
point $-1 -36.887402353700331 -15.491409606995495 -1.0870879541413019 #
straight-curve $-1 4.4034375157436116 -25.045668624242108 55.018811732301835 0 0 -1 I I #
point $-1 4.4034375157436116 -25.045668624242108 9.6239359441196921 #
straight-curve $-1 7.2954068903637079 -25.045668624242108 3.759028561690283 1 0 0 I I #
point $-1 4.4034375157436116 -25.045668624242108 3.7590285616902839 #
point $-1 8.4783880217371461 -15.491409606995495 -1.0870879541413019 #
point $-1 14.590813780727416 -15.491409606995495 -1.0870879541413019 #
point $-1 20.703239539717714 -15.491409606995495 -1.0870879541413019 #
straight-curve $-1 -32.812451847706811 25.045668624242108 67.91828485696017 0 0 -1 I I #
point $-1 -32.812451847706811 25.045668624242108 9.6239359441196921 #
straight-curve $-1 -21.499914056345308 25.045668624242104 3.7590285616902932 -1 0 0 I I #
point $-1 -32.812451847706811 25.045668624242104 3.7590285616902896 #
point $-1 -49.112253871680899 15.491409606995495 -1.0870879541412983 #
point $-1 -42.999828112690615 15.491409606995495 -1.0870879541412983 #
point $-1 -36.887402353700331 15.491409606995495 -1.0870879541412983 #
straight-curve $-1 24.77819004571122 25.045668624242108 67.91828485696017 0 0 -1 I I #
point $-1 24.77819004571122 25.045668624242108 9.6239359441196921 #
straight-curve $-1 7.2954068903637079 25.045668624242104 3.7590285616902932 -1 0 0 I I #
point $-1 24.77819004571122 25.045668624242104 3.7590285616902896 #
point $-1 8.4783880217371461 15.491409606995495 -1.0870879541412983 #
point $-1 14.590813780727416 15.491409606995495 -1.0870879541412983 #
point $-1 20.703239539717714 15.491409606995495 -1.0870879541412983 #
point $-1 -61.994079409161657 -25.045668624242108 9.6239359441196921 #
straight-curve $-1 -61.994079409161657 -25.045668624242108 0 0 0 -1 I I #
point $-1 -61.994079409161657 -25.045668624242108 -9.6239359441196921 #
End-of-ACIS-data 