500 0 12 0           
7 Unknown 11 ACIS 5.0 NT 24 Thu Mar 25 16:16:41 1999 
-1 9.9999999999999995e-007 1e-010 
body $-1 $12 $-1 $13 #
body $-1 $14 $-1 $15 #
body $-1 $16 $-1 $17 #
body $-1 $18 $-1 $19 #
body $-1 $20 $-1 $21 #
body $-1 $22 $-1 $23 #
body $-1 $24 $-1 $25 #
body $-1 $26 $-1 $27 #
body $-1 $28 $-1 $29 #
body $-1 $30 $-1 $31 #
body $-1 $32 $-1 $33 #
body $-1 $34 $-1 $35 #
lump $-1 $-1 $36 $0 #
transform $-1 1 0 0 0 1 0 0 0 1 64.805444502090523 27.115957100175848 10.089516042260932 1 rotate no_reflect no_shear #
lump $-1 $-1 $37 $1 #
transform $-1 1 0 0 0 1 0 0 0 1 64.805444502090523 27.115957100175848 10.089516042260932 1 rotate no_reflect no_shear #
lump $-1 $-1 $38 $2 #
transform $-1 1 0 0 0 1 0 0 0 1 64.805444502090523 27.115957100175848 10.089516042260932 1 rotate no_reflect no_shear #
lump $-1 $-1 $39 $3 #
transform $-1 1 0 0 0 1 0 0 0 1 64.805444502090523 27.115957100175848 10.089516042260932 1 rotate no_reflect no_shear #
lump $-1 $-1 $40 $4 #
transform $-1 1 0 0 0 1 0 0 0 1 64.805444502090523 27.115957100175848 10.089516042260932 1 rotate no_reflect no_shear #
lump $-1 $-1 $41 $5 #
transform $-1 1 0 0 0 1 0 0 0 1 64.805444502090523 27.115957100175848 10.089516042260932 1 rotate no_reflect no_shear #
lump $-1 $-1 $42 $6 #
transform $-1 1 0 0 0 1 0 0 0 1 64.805444502090523 27.115957100175848 10.089516042260932 1 rotate no_reflect no_shear #
lump $-1 $-1 $43 $7 #
transform $-1 1 0 0 0 1 0 0 0 1 64.805444502090523 27.115957100175848 10.089516042260932 1 rotate no_reflect no_shear #
lump $-1 $-1 $44 $8 #
transform $-1 1 0 0 0 1 0 0 0 1 64.805444502090523 27.115957100175848 10.089516042260932 1 rotate no_reflect no_shear #
lump $-1 $-1 $45 $9 #
transform $-1 1 0 0 0 1 0 0 0 1 64.805444502090523 27.115957100175848 10.089516042260932 1 rotate no_reflect no_shear #
lump $-1 $-1 $46 $10 #
transform $-1 1 0 0 0 1 0 0 0 1 64.805444502090523 27.115957100175848 10.089516042260932 1 rotate no_reflect no_shear #
lump $-1 $-1 $47 $11 #
transform $-1 1 0 0 0 1 0 0 0 1 64.805444502090523 27.115957100175848 10.089516042260932 1 rotate no_reflect no_shear #
shell $-1 $-1 $-1 $48 $-1 $12 #
shell $-1 $-1 $-1 $49 $-1 $14 #
shell $-1 $-1 $-1 $50 $-1 $16 #
shell $-1 $-1 $-1 $51 $-1 $18 #
shell $-1 $-1 $-1 $52 $-1 $20 #
shell $-1 $-1 $-1 $53 $-1 $22 #
shell $-1 $-1 $-1 $54 $-1 $24 #
shell $-1 $-1 $-1 $55 $-1 $26 #
shell $-1 $-1 $-1 $56 $-1 $28 #
shell $-1 $-1 $-1 $57 $-1 $30 #
shell $-1 $-1 $-1 $58 $-1 $32 #
shell $-1 $-1 $-1 $59 $-1 $34 #
face $-1 $60 $61 $36 $-1 $62 forward single #
face $-1 $63 $64 $37 $-1 $65 reversed single #
face $-1 $66 $67 $38 $-1 $68 reversed single #
face $-1 $69 $70 $39 $-1 $71 reversed single #
face $-1 $72 $73 $40 $-1 $74 forward single #
face $-1 $75 $76 $41 $-1 $77 forward single #
face $-1 $78 $79 $42 $-1 $80 reversed single #
face $-1 $81 $82 $43 $-1 $83 forward single #
face $-1 $84 $85 $44 $-1 $86 forward single #
face $-1 $87 $88 $45 $-1 $89 reversed single #
face $-1 $90 $91 $46 $-1 $92 forward single #
face $-1 $93 $94 $47 $-1 $95 forward single #
face $-1 $96 $97 $36 $-1 $98 reversed single #
loop $-1 $-1 $99 $48 #
plane-surface $-1 0 0 10.089516042260932 0 0 1 1 0 0 forward_v I I I I #
face $-1 $100 $101 $37 $-1 $102 reversed single #
loop $-1 $-1 $103 $49 #
plane-surface $-1 0 -20.733059578140914 5.0830936865029912 0 0 1 1 0 0 forward_v I I I I #
face $-1 $104 $105 $38 $-1 $106 reversed single #
loop $-1 $-1 $107 $50 #
plane-surface $-1 0 20.73305957814091 5.0830936865029912 0 0 1 1 0 0 forward_v I I I I #
face $-1 $108 $109 $39 $-1 $110 reversed single #
loop $-1 $-1 $111 $51 #
plane-surface $-1 -131.55998815017813 -10.762695876217299 116.96312550017512 0 1 0 -0.51503808176128008 0 0.85716729658548041 forward_v I I I I #
face $-1 $112 $113 $40 $-1 $114 forward single #
loop $-1 $115 $116 $52 #
cone-surface $-1 -61.032463083103622 -9.0543220121653043 7.5486294550479824 0.51503808176128008 0 -0.85716729658548041 0.2142918241463701 0 0.12875952044032002 1 I I 0 1 0.25 forward I I I I #
face $-1 $117 $118 $41 $-1 $119 forward single #
loop $-1 $120 $121 $53 #
cone-surface $-1 -61.032463083103622 -6.491761216087319 7.5486294550479824 0.51503808176128008 0 -0.85716729658548041 0.2142918241463701 0 0.12875952044032002 1 I I 0 1 0.25 forward I I I I #
face $-1 $122 $123 $42 $-1 $124 reversed single #
loop $-1 $-1 $125 $54 #
plane-surface $-1 -131.55998815017813 -1.1959211721466456 116.96312550017512 0 1 0 -0.51503808176128008 0 0.85716729658548041 forward_v I I I I #
face $-1 $126 $127 $43 $-1 $128 forward single #
loop $-1 $129 $130 $55 #
cone-surface $-1 -61.032463083103622 0.5124526919053487 7.5486294550479824 0.51503808176128008 0 -0.85716729658548041 0.2142918241463701 0 0.12875952044032002 1 I I 0 1 0.25 forward I I I I #
face $-1 $131 $132 $44 $-1 $133 forward single #
loop $-1 $134 $135 $56 #
cone-surface $-1 -61.032463083103622 3.075013487983334 7.5486294550479824 0.51503808176128008 0 -0.85716729658548041 0.2142918241463701 0 0.12875952044032002 1 I I 0 1 0.25 forward I I I I #
face $-1 $136 $137 $45 $-1 $138 reversed single #
loop $-1 $-1 $139 $57 #
plane-surface $-1 -64.805444502090538 11.360507794014993 5.8649101644204933 -0.51503808176128008 0 0.85716729658548041 0.85716729658548041 0 0.51503808176128008 forward_v I I I I #
face $-1 $140 $141 $46 $-1 $142 forward single #
loop $-1 $143 $144 $58 #
cone-surface $-1 -61.032463083103622 10.079227395976005 7.5486294550479824 0.51503808176128008 0 -0.85716729658548041 0.2142918241463701 0 0.12875952044032002 1 I I 0 1 0.25 forward I I I I #
face $-1 $145 $146 $47 $-1 $147 forward single #
loop $-1 $148 $149 $59 #
cone-surface $-1 -61.032463083103622 12.641788192053987 7.5486294550479824 0.51503808176128008 0 -0.85716729658548041 0.2142918241463701 0 0.12875952044032002 1 I I 0 1 0.25 forward I I I I #
face $-1 $150 $151 $36 $-1 $152 reversed single #
loop $-1 $-1 $153 $60 #
plane-surface $-1 0 0 -10.089516042260932 0 0 1 1 0 0 forward_v I I I I #
coedge $-1 $154 $155 $156 $157 forward $61 $-1 #
face $-1 $158 $159 $37 $-1 $160 reversed single #
loop $-1 $-1 $161 $63 #
plane-surface $-1 0 -14.35016205610598 7.5863048643819617 0 -1 0 0 0 -1 forward_v I I I I #
coedge $-1 $162 $163 $164 $165 reversed $64 $-1 #
face $-1 $166 $167 $38 $-1 $168 forward single #
loop $-1 $-1 $169 $66 #
plane-surface $-1 0 14.350162056105976 7.5863048643819617 0 1 0 0 0 1 forward_v I I I I #
coedge $-1 $170 $171 $172 $173 reversed $67 $-1 #
face $-1 $174 $175 $39 $-1 $176 reversed single #
loop $-1 $-1 $177 $69 #
plane-surface $-1 -64.805444502090538 -7.7730416141263134 5.8649101644204933 -0.51503808176128008 0 0.85716729658548041 0.85716729658548041 0 0.51503808176128008 forward_v I I I I #
coedge $-1 $178 $179 $180 $181 reversed $70 $-1 #
face $-1 $-1 $182 $40 $-1 $183 forward single #
loop $-1 $184 $185 $72 #
cone-surface $-1 -60.710564282002821 -9.0543220121653043 7.0128998946820573 0.51503808176128008 0 -0.85716729658548041 0.10714591207318505 0 0.064379760220160009 1 I I -0.70710678118654746 0.70710678118654746 0.125 forward I I I I #
loop $-1 $-1 $186 $52 #
coedge $-1 $116 $116 $187 $188 reversed $73 $-1 #
face $-1 $-1 $189 $41 $-1 $190 forward single #
loop $-1 $191 $192 $75 #
cone-surface $-1 -60.710564282002821 -6.491761216087319 7.0128998946820573 0.51503808176128008 0 -0.85716729658548041 0.10714591207318505 0 0.064379760220160009 1 I I -0.70710678118654746 0.70710678118654746 0.125 forward I I I I #
loop $-1 $-1 $193 $53 #
coedge $-1 $121 $121 $194 $195 reversed $76 $-1 #
face $-1 $196 $197 $42 $-1 $198 reversed single #
loop $-1 $-1 $199 $78 #
plane-surface $-1 -64.805444502090538 1.7937330899443396 5.8649101644204933 -0.51503808176128008 0 0.85716729658548041 0.85716729658548041 0 0.51503808176128008 forward_v I I I I #
coedge $-1 $200 $201 $202 $203 reversed $79 $-1 #
face $-1 $-1 $204 $43 $-1 $205 forward single #
loop $-1 $206 $207 $81 #
cone-surface $-1 -60.710564282002821 0.5124526919053487 7.0128998946820573 0.51503808176128008 0 -0.85716729658548041 0.10714591207318505 0 0.064379760220160009 1 I I -0.70710678118654746 0.70710678118654746 0.125 forward I I I I #
loop $-1 $-1 $208 $55 #
coedge $-1 $130 $130 $209 $210 reversed $82 $-1 #
face $-1 $-1 $211 $44 $-1 $212 forward single #
loop $-1 $213 $214 $84 #
cone-surface $-1 -60.710564282002821 3.075013487983334 7.0128998946820573 0.51503808176128008 0 -0.85716729658548041 0.10714591207318505 0 0.064379760220160009 1 I I -0.70710678118654746 0.70710678118654746 0.125 forward I I I I #
loop $-1 $-1 $215 $56 #
coedge $-1 $135 $135 $216 $217 reversed $85 $-1 #
face $-1 $218 $219 $45 $-1 $220 forward single #
loop $-1 $-1 $221 $87 #
plane-surface $-1 -131.55998815017813 8.3708535319240074 116.96312550017512 0 1 0 -0.51503808176128008 0 0.85716729658548041 forward_v I I I I #
coedge $-1 $222 $223 $224 $225 reversed $88 $-1 #
face $-1 $-1 $226 $46 $-1 $227 forward single #
loop $-1 $228 $229 $90 #
cone-surface $-1 -60.710564282002821 10.079227395976005 7.0128998946820573 0.51503808176128008 0 -0.85716729658548041 0.10714591207318505 0 0.064379760220160009 1 I I -0.70710678118654746 0.70710678118654746 0.125 forward I I I I #
loop $-1 $-1 $230 $58 #
coedge $-1 $144 $144 $231 $232 reversed $91 $-1 #
face $-1 $-1 $233 $47 $-1 $234 forward single #
loop $-1 $235 $236 $93 #
cone-surface $-1 -60.710564282002821 12.641788192053987 7.0128998946820573 0.51503808176128008 0 -0.85716729658548041 0.10714591207318505 0 0.064379760220160009 1 I I -0.70710678118654746 0.70710678118654746 0.125 forward I I I I #
loop $-1 $-1 $237 $59 #
coedge $-1 $149 $149 $238 $239 reversed $94 $-1 #
face $-1 $240 $241 $36 $-1 $242 reversed single #
loop $-1 $-1 $243 $96 #
plane-surface $-1 0 -27.115957100175848 0 0 1 0 0 0 1 forward_v I I I I #
coedge $-1 $244 $245 $246 $247 forward $97 $-1 #
coedge $-1 $248 $99 $249 $250 forward $61 $-1 #
coedge $-1 $99 $248 $251 $252 forward $61 $-1 #
coedge $-1 $253 $254 $99 $157 reversed $255 $-1 #
edge $-1 $256 -27.115957100175848 $257 27.115957100175848 $156 $258 forward 7 unknown #
face $-1 $259 $260 $37 $-1 $261 reversed single #
loop $-1 $-1 $262 $100 #
plane-surface $-1 -64.805444502090523 0 0 1 0 0 0 0 -1 forward_v I I I I #
coedge $-1 $263 $264 $265 $266 reversed $101 $-1 #
coedge $-1 $267 $103 $268 $269 reversed $64 $-1 #
coedge $-1 $103 $267 $263 $270 forward $64 $-1 #
coedge $-1 $265 $271 $103 $165 forward $272 $-1 #
edge $-1 $273 -16.749427311105393 $274 -3.9836322670355226 $164 $275 forward 7 unknown #
face $-1 $276 $277 $38 $-1 $278 reversed single #
loop $-1 $-1 $279 $104 #
plane-surface $-1 0 0 10.089516042260932 0 0 1 1 0 0 forward_v I I I I #
coedge $-1 $280 $281 $282 $283 reversed $105 $-1 #
coedge $-1 $284 $107 $280 $285 forward $67 $-1 #
coedge $-1 $107 $284 $286 $287 reversed $67 $-1 #
coedge $-1 $288 $289 $107 $173 forward $277 $-1 #
edge $-1 $290 3.9836322670355209 $291 16.749427311105389 $172 $292 forward 7 unknown #
face $-1 $293 $294 $39 $-1 $295 reversed single #
loop $-1 $-1 $296 $108 #
plane-surface $-1 -131.55998815017813 -4.7833873520353283 116.96312550017512 0 -1 0 0.51503808176128008 0 -0.85716729658548041 forward_v I I I I #
coedge $-1 $297 $298 $299 $300 reversed $109 $-1 #
coedge $-1 $179 $111 $301 $302 reversed $70 $-1 #
coedge $-1 $111 $178 $297 $303 reversed $70 $-1 #
coedge $-1 $299 $304 $111 $181 forward $305 $-1 #
edge $-1 $306 0.97454957299854073 $307 8.005474329211097 $180 $308 forward 7 unknown #
loop $-1 $-1 $187 $112 #
plane-surface $-1 -64.805444502090538 -7.7730416141263134 5.8649101644204933 -0.51503808176128008 0 0.85716729658548041 0.85716729658548041 0 0.51503808176128008 forward_v I I I I #
loop $-1 $-1 $309 $72 #
coedge $-1 $185 $185 $186 $310 reversed $113 $-1 #
coedge $-1 $186 $186 $185 $310 forward $115 $-1 #
coedge $-1 $187 $187 $116 $188 forward $182 $-1 #
edge $-1 $311 0 $311 6.2831853071796004 $187 $312 forward 7 unknown #
loop $-1 $-1 $194 $117 #
plane-surface $-1 -64.805444502090538 -7.7730416141263134 5.8649101644204933 -0.51503808176128008 0 0.85716729658548041 0.85716729658548041 0 0.51503808176128008 forward_v I I I I #
loop $-1 $-1 $313 $75 #
coedge $-1 $192 $192 $193 $314 reversed $118 $-1 #
coedge $-1 $193 $193 $192 $314 forward $120 $-1 #
coedge $-1 $194 $194 $121 $195 forward $189 $-1 #
edge $-1 $315 0 $315 6.2831853071796004 $194 $316 forward 7 unknown #
face $-1 $317 $318 $42 $-1 $319 forward single #
loop $-1 $-1 $320 $122 #
plane-surface $-1 -131.55998815017813 4.7833873520353247 116.96312550017512 0 -1 0 0.51503808176128008 0 -0.85716729658548041 forward_v I I I I #
coedge $-1 $321 $322 $323 $324 reversed $123 $-1 #
coedge $-1 $201 $125 $325 $326 reversed $79 $-1 #
coedge $-1 $125 $200 $321 $327 reversed $79 $-1 #
coedge $-1 $323 $328 $125 $203 forward $318 $-1 #
edge $-1 $329 0.97454957299854073 $330 8.005474329211097 $202 $331 forward 7 unknown #
loop $-1 $-1 $209 $126 #
plane-surface $-1 -64.805444502090538 1.7937330899443396 5.8649101644204933 -0.51503808176128008 0 0.85716729658548041 0.85716729658548041 0 0.51503808176128008 forward_v I I I I #
loop $-1 $-1 $332 $81 #
coedge $-1 $207 $207 $208 $333 reversed $127 $-1 #
coedge $-1 $208 $208 $207 $333 forward $129 $-1 #
coedge $-1 $209 $209 $130 $210 forward $204 $-1 #
edge $-1 $334 0 $334 6.2831853071796004 $209 $335 forward 7 unknown #
loop $-1 $-1 $216 $131 #
plane-surface $-1 -64.805444502090538 1.7937330899443396 5.8649101644204933 -0.51503808176128008 0 0.85716729658548041 0.85716729658548041 0 0.51503808176128008 forward_v I I I I #
loop $-1 $-1 $336 $84 #
coedge $-1 $214 $214 $215 $337 reversed $132 $-1 #
coedge $-1 $215 $215 $214 $337 forward $134 $-1 #
coedge $-1 $216 $216 $135 $217 forward $211 $-1 #
edge $-1 $338 0 $338 6.2831853071796004 $216 $339 forward 7 unknown #
face $-1 $340 $341 $45 $-1 $342 forward single #
loop $-1 $-1 $343 $136 #
plane-surface $-1 0 0 10.089516042260932 0 0 1 1 0 0 forward_v I I I I #
coedge $-1 $344 $345 $346 $347 reversed $137 $-1 #
coedge $-1 $348 $139 $349 $350 reversed $88 $-1 #
coedge $-1 $139 $348 $344 $351 forward $88 $-1 #
coedge $-1 $346 $352 $139 $225 forward $353 $-1 #
edge $-1 $354 -8.6699081590984797 $355 -2.6905996349165111 $224 $356 forward 7 unknown #
loop $-1 $-1 $231 $140 #
plane-surface $-1 -64.805444502090538 11.360507794014993 5.8649101644204933 -0.51503808176128008 0 0.85716729658548041 0.85716729658548041 0 0.51503808176128008 forward_v I I I I #
loop $-1 $-1 $357 $90 #
coedge $-1 $229 $229 $230 $358 reversed $141 $-1 #
coedge $-1 $230 $230 $229 $358 forward $143 $-1 #
coedge $-1 $231 $231 $144 $232 forward $226 $-1 #
edge $-1 $359 0 $359 6.2831853071796004 $231 $360 forward 7 unknown #
loop $-1 $-1 $238 $145 #
plane-surface $-1 -64.805444502090538 11.360507794014993 5.8649101644204933 -0.51503808176128008 0 0.85716729658548041 0.85716729658548041 0 0.51503808176128008 forward_v I I I I #
loop $-1 $-1 $361 $93 #
coedge $-1 $236 $236 $237 $362 reversed $146 $-1 #
coedge $-1 $237 $237 $236 $362 forward $148 $-1 #
coedge $-1 $238 $238 $149 $239 forward $233 $-1 #
edge $-1 $363 0 $363 6.2831853071796004 $238 $364 forward 7 unknown #
face $-1 $365 $366 $36 $-1 $367 reversed single #
loop $-1 $-1 $368 $150 #
plane-surface $-1 -64.805444502090523 0 0 1 0 0 0 0 -1 forward_v I I I I #
coedge $-1 $369 $251 $370 $371 forward $151 $-1 #
coedge $-1 $372 $153 $369 $373 forward $97 $-1 #
coedge $-1 $153 $372 $374 $375 forward $97 $-1 #
coedge $-1 $254 $253 $153 $247 reversed $255 $-1 #
edge $-1 $376 -27.115957100175848 $377 27.115957100175848 $246 $378 forward 7 unknown #
coedge $-1 $155 $154 $379 $380 forward $61 $-1 #
coedge $-1 $381 $382 $154 $250 reversed $366 $-1 #
edge $-1 $257 -64.805444502090523 $383 64.805444502090523 $249 $384 forward 7 unknown #
coedge $-1 $243 $385 $155 $252 reversed $151 $-1 #
edge $-1 $386 -64.805444502090523 $256 64.805444502090523 $251 $387 forward 7 unknown #
coedge $-1 $246 $156 $385 $388 forward $255 $-1 #
coedge $-1 $156 $246 $381 $389 reversed $255 $-1 #
loop $-1 $-1 $253 $365 #
vertex $-1 $157 $390 #
vertex $-1 $157 $391 #
straight-curve $-1 64.805444502090523 0 10.089516042260932 0 1 0 I I #
face $-1 $392 $393 $37 $-1 $394 forward single #
loop $-1 $-1 $268 $158 #
plane-surface $-1 0 -27.115957100175848 0 0 1 0 0 0 1 forward_v I I I I #
coedge $-1 $395 $396 $397 $398 forward $159 $-1 #
coedge $-1 $397 $161 $163 $270 reversed $101 $-1 #
coedge $-1 $161 $397 $399 $400 reversed $101 $-1 #
coedge $-1 $401 $164 $161 $266 forward $272 $-1 #
edge $-1 $274 1.2899412543120103 $402 6.2963636100699514 $265 $403 forward 7 unknown #
coedge $-1 $163 $162 $395 $404 reversed $64 $-1 #
coedge $-1 $405 $406 $162 $269 forward $260 $-1 #
edge $-1 $407 -64.805444502090523 $273 64.805444502090523 $268 $408 forward 7 unknown #
edge $-1 $409 -64.805444502090523 $274 64.805444502090523 $263 $410 forward 7 unknown #
coedge $-1 $164 $401 $405 $411 forward $272 $-1 #
loop $-1 $-1 $265 $392 #
vertex $-1 $269 $412 #
vertex $-1 $165 $413 #
straight-curve $-1 64.805444502090523 -10.366529789070457 5.0830936865029912 0 1 0 I I #
face $-1 $414 $415 $38 $-1 $416 reversed single #
loop $-1 $-1 $289 $166 #
plane-surface $-1 64.805444502090523 0 0 -1 0 0 0 0 1 forward_v I I I I #
coedge $-1 $417 $418 $281 $419 forward $167 $-1 #
coedge $-1 $420 $169 $170 $285 reversed $105 $-1 #
coedge $-1 $169 $420 $279 $419 reversed $105 $-1 #
coedge $-1 $421 $422 $169 $283 forward $415 $-1 #
edge $-1 $423 1.2899412543120103 $424 6.2963636100699514 $282 $425 forward 7 unknown #
coedge $-1 $171 $170 $422 $426 reversed $67 $-1 #
edge $-1 $290 -64.805444502090523 $423 64.805444502090523 $280 $427 forward 7 unknown #
coedge $-1 $428 $429 $171 $287 forward $430 $-1 #
edge $-1 $291 -64.805444502090523 $431 64.805444502090523 $286 $432 forward 7 unknown #
coedge $-1 $433 $172 $429 $434 reversed $277 $-1 #
coedge $-1 $172 $433 $420 $435 forward $277 $-1 #
vertex $-1 $173 $436 #
vertex $-1 $287 $437 #
straight-curve $-1 64.805444502090523 10.366529789070455 5.0830936865029912 0 1 0 I I #
face $-1 $-1 $305 $39 $-1 $438 forward single #
loop $-1 $-1 $439 $174 #
plane-surface $-1 -64.805444502090523 0 0 1 0 0 0 0 -1 forward_v I I I I #
coedge $-1 $440 $441 $442 $443 reversed $175 $-1 #
coedge $-1 $444 $177 $179 $303 forward $109 $-1 #
coedge $-1 $177 $444 $440 $445 forward $109 $-1 #
coedge $-1 $442 $180 $177 $300 forward $305 $-1 #
edge $-1 $307 -6.8761750691541419 $446 -0.89686654497217155 $299 $447 forward 7 unknown #
coedge $-1 $448 $449 $178 $302 forward $294 $-1 #
edge $-1 $450 -52.616652585667062 $306 -48.39204670782663 $301 $451 forward 7 unknown #
edge $-1 $307 -8.2025116732990249 $450 -1.6755537013839907e-014 $179 $452 forward 7 unknown #
coedge $-1 $180 $442 $448 $453 forward $305 $-1 #
loop $-1 $-1 $442 $293 #
vertex $-1 $302 $454 #
vertex $-1 $181 $455 #
straight-curve $-1 -65.779994075089064 -10.762695876217299 10.089516042260932 1 0 0 I I #
coedge $-1 $309 $309 $-1 $456 reversed $184 $-1 #
edge $-1 $457 0 $457 6.2831853071796004 $185 $458 forward 7 unknown #
vertex $-1 $188 $459 #
ellipse-curve $-1 -61.289982123984252 -9.0543220121653043 7.977213103340711 -0.51503808176128008 0 0.85716729658548041 0.2142918241463701 0 0.12875952044032002 1 I I #
coedge $-1 $313 $313 $-1 $460 reversed $191 $-1 #
edge $-1 $461 0 $461 6.2831853071796004 $192 $462 forward 7 unknown #
vertex $-1 $195 $463 #
ellipse-curve $-1 -61.289982123984252 -6.491761216087319 7.977213103340711 -0.51503808176128008 0 0.85716729658548041 0.2142918241463701 0 0.12875952044032002 1 I I #
face $-1 $-1 $464 $42 $-1 $465 reversed single #
loop $-1 $-1 $202 $196 #
plane-surface $-1 0 0 10.089516042260932 0 0 1 1 0 0 forward_v I I I I #
coedge $-1 $466 $467 $468 $469 reversed $197 $-1 #
coedge $-1 $470 $199 $201 $327 forward $123 $-1 #
coedge $-1 $199 $470 $466 $471 forward $123 $-1 #
coedge $-1 $468 $202 $199 $324 forward $318 $-1 #
edge $-1 $330 -2.0927877171188154 $472 3.8865208070631549 $323 $473 forward 7 unknown #
coedge $-1 $474 $475 $200 $326 forward $464 $-1 #
edge $-1 $476 -52.616652585667062 $329 -48.39204670782663 $325 $477 forward 7 unknown #
edge $-1 $330 -8.2025116732990249 $476 -1.6755537013839907e-014 $201 $478 forward 7 unknown #
coedge $-1 $202 $468 $474 $479 forward $318 $-1 #
vertex $-1 $203 $480 #
vertex $-1 $203 $481 #
straight-curve $-1 -65.779994075089064 -1.1959211721466456 10.089516042260932 1 0 0 I I #
coedge $-1 $332 $332 $-1 $482 reversed $206 $-1 #
edge $-1 $483 0 $483 6.2831853071796004 $207 $484 forward 7 unknown #
vertex $-1 $210 $485 #
ellipse-curve $-1 -61.289982123984252 0.5124526919053487 7.977213103340711 -0.51503808176128008 0 0.85716729658548041 0.2142918241463701 0 0.12875952044032002 1 I I #
coedge $-1 $336 $336 $-1 $486 reversed $213 $-1 #
edge $-1 $487 0 $487 6.2831853071796004 $214 $488 forward 7 unknown #
vertex $-1 $217 $489 #
ellipse-curve $-1 -61.289982123984252 3.075013487983334 7.977213103340711 -0.51503808176128008 0 0.85716729658548041 0.2142918241463701 0 0.12875952044032002 1 I I #
face $-1 $-1 $353 $45 $-1 $490 reversed single #
loop $-1 $-1 $349 $218 #
plane-surface $-1 0 14.350162056105976 7.5863048643819617 0 1 0 0 0 1 forward_v I I I I #
coedge $-1 $491 $492 $345 $493 forward $219 $-1 #
coedge $-1 $345 $221 $223 $351 reversed $137 $-1 #
coedge $-1 $221 $344 $343 $493 reversed $137 $-1 #
coedge $-1 $494 $224 $221 $347 forward $353 $-1 #
edge $-1 $355 -52.616652585667062 $495 -48.39204670782663 $346 $496 forward 7 unknown #
coedge $-1 $223 $222 $491 $497 reversed $88 $-1 #
coedge $-1 $498 $499 $222 $350 forward $341 $-1 #
edge $-1 $500 20.015334072750736 $354 28.21784574604974 $349 $501 forward 7 unknown #
edge $-1 $502 -8.2025116732990249 $355 -1.6755537013839907e-014 $344 $503 forward 7 unknown #
coedge $-1 $224 $494 $498 $504 forward $353 $-1 #
loop $-1 $-1 $346 $340 #
vertex $-1 $350 $505 #
vertex $-1 $225 $506 #
straight-curve $-1 -64.805444502090523 5.6802538970074963 5.864910164420496 0 -1 0 I I #
coedge $-1 $357 $357 $-1 $507 reversed $228 $-1 #
edge $-1 $508 0 $508 6.2831853071796004 $229 $509 forward 7 unknown #
vertex $-1 $232 $510 #
ellipse-curve $-1 -61.289982123984252 10.079227395976005 7.977213103340711 -0.51503808176128008 0 0.85716729658548041 0.2142918241463701 0 0.12875952044032002 1 I I #
coedge $-1 $361 $361 $-1 $511 reversed $235 $-1 #
edge $-1 $512 0 $512 6.2831853071796004 $236 $513 forward 7 unknown #
vertex $-1 $239 $514 #
ellipse-curve $-1 -61.289982123984252 12.641788192053987 7.977213103340711 -0.51503808176128008 0 0.85716729658548041 0.2142918241463701 0 0.12875952044032002 1 I I #
face $-1 $-1 $255 $36 $-1 $515 reversed single #
loop $-1 $-1 $381 $240 #
plane-surface $-1 0 27.115957100175848 0 0 -1 0 0 0 -1 forward_v I I I I #
coedge $-1 $516 $379 $382 $517 forward $241 $-1 #
coedge $-1 $385 $243 $244 $373 reversed $151 $-1 #
coedge $-1 $379 $516 $243 $371 reversed $241 $-1 #
edge $-1 $386 -10.089516042260932 $518 10.089516042260932 $370 $519 forward 7 unknown #
coedge $-1 $245 $244 $516 $520 forward $97 $-1 #
edge $-1 $377 -64.805444502090523 $518 64.805444502090523 $369 $521 forward 7 unknown #
coedge $-1 $382 $381 $245 $375 reversed $366 $-1 #
edge $-1 $522 -64.805444502090523 $376 64.805444502090523 $374 $523 forward 7 unknown #
vertex $-1 $247 $524 #
vertex $-1 $388 $525 #
straight-curve $-1 64.805444502090523 0 -10.089516042260932 0 -1 0 I I #
coedge $-1 $368 $370 $248 $380 reversed $241 $-1 #
edge $-1 $383 -27.115957100175848 $386 27.115957100175848 $379 $526 forward 7 unknown #
coedge $-1 $374 $249 $254 $389 forward $366 $-1 #
coedge $-1 $249 $374 $368 $517 reversed $366 $-1 #
vertex $-1 $250 $527 #
straight-curve $-1 0 27.115957100175848 10.089516042260932 -1 0 0 I I #
coedge $-1 $251 $369 $253 $388 reversed $151 $-1 #
vertex $-1 $380 $528 #
straight-curve $-1 0 -27.115957100175848 10.089516042260932 1 0 0 I I #
edge $-1 $256 -10.089516042260932 $377 10.089516042260932 $253 $529 forward 7 unknown #
edge $-1 $257 -10.089516042260932 $376 10.089516042260932 $254 $530 forward 7 unknown #
point $-1 64.805444502090523 -27.115957100175848 10.089516042260932 #
point $-1 64.805444502090523 27.115957100175848 10.089516042260932 #
face $-1 $-1 $272 $37 $-1 $531 reversed single #
loop $-1 $-1 $399 $259 #
plane-surface $-1 0 0 10.089516042260932 0 0 1 1 0 0 forward_v I I I I #
coedge $-1 $532 $262 $267 $404 forward $159 $-1 #
coedge $-1 $262 $532 $533 $534 reversed $159 $-1 #
coedge $-1 $264 $263 $262 $398 reversed $101 $-1 #
edge $-1 $535 -6.2963636100699514 $409 -1.2899412543120103 $262 $536 forward 7 unknown #
coedge $-1 $533 $537 $264 $400 forward $393 $-1 #
edge $-1 $402 -64.805444502090523 $535 64.805444502090523 $399 $538 forward 7 unknown #
coedge $-1 $271 $265 $537 $539 reversed $272 $-1 #
vertex $-1 $266 $540 #
straight-curve $-1 64.805444502090523 -14.35016205610598 3.7931524321909809 0 0 1 I I #
edge $-1 $409 3.9836322670355226 $407 16.749427311105393 $395 $541 forward 7 unknown #
coedge $-1 $542 $268 $271 $411 reversed $260 $-1 #
coedge $-1 $268 $542 $532 $543 forward $260 $-1 #
vertex $-1 $269 $544 #
straight-curve $-1 0 -27.115957100175848 5.0830936865029912 1 0 0 I I #
vertex $-1 $404 $545 #
straight-curve $-1 0 -14.35016205610598 5.0830936865029912 1 0 0 I I #
edge $-1 $546 -10.089516042260932 $273 -5.0830936865029912 $271 $547 forward 7 unknown #
point $-1 64.805444502090523 -27.115957100175848 5.0830936865029912 #
point $-1 64.805444502090523 -14.35016205610598 5.0830936865029912 #
face $-1 $-1 $430 $38 $-1 $548 reversed single #
loop $-1 $-1 $282 $276 #
plane-surface $-1 -64.805444502090523 0 0 1 0 0 0 0 -1 forward_v I I I I #
coedge $-1 $549 $279 $433 $550 forward $167 $-1 #
coedge $-1 $279 $549 $421 $551 forward $167 $-1 #
edge $-1 $424 -64.805444502090523 $552 64.805444502090523 $279 $553 forward 7 unknown #
coedge $-1 $281 $280 $289 $435 reversed $105 $-1 #
coedge $-1 $554 $282 $418 $551 reversed $415 $-1 #
coedge $-1 $282 $554 $284 $426 forward $415 $-1 #
vertex $-1 $426 $555 #
vertex $-1 $283 $556 #
straight-curve $-1 -64.805444502090523 14.350162056105976 3.7931524321909809 0 0 1 I I #
edge $-1 $431 -16.749427311105389 $423 -3.9836322670355209 $422 $557 forward 7 unknown #
straight-curve $-1 0 14.350162056105976 5.0830936865029912 -1 0 0 I I #
coedge $-1 $558 $286 $554 $559 reversed $430 $-1 #
coedge $-1 $286 $558 $288 $434 forward $430 $-1 #
loop $-1 $-1 $286 $414 #
vertex $-1 $287 $560 #
straight-curve $-1 0 27.115957100175848 5.0830936865029912 -1 0 0 I I #
coedge $-1 $289 $288 $417 $550 reversed $277 $-1 #
edge $-1 $561 -10.089516042260932 $291 -5.0830936865029912 $288 $562 forward 7 unknown #
edge $-1 $552 -6.2963636100699514 $290 -1.2899412543120103 $289 $563 forward 7 unknown #
point $-1 64.805444502090523 14.350162056105976 5.0830936865029912 #
point $-1 64.805444502090523 27.115957100175844 5.0830936865029912 #
plane-surface $-1 0 0 10.089516042260932 0 0 1 1 0 0 forward_v I I I I #
coedge $-1 $449 $448 $441 $564 forward $294 $-1 #
coedge $-1 $441 $296 $298 $445 reversed $175 $-1 #
coedge $-1 $296 $440 $439 $564 reversed $175 $-1 #
coedge $-1 $304 $299 $296 $443 forward $305 $-1 #
edge $-1 $446 -8.005474329211097 $565 -0.97454957299854073 $442 $566 forward 7 unknown #
coedge $-1 $298 $297 $449 $567 reversed $109 $-1 #
edge $-1 $568 1.6755537013839907e-014 $446 8.2025116732990249 $440 $569 forward 7 unknown #
vertex $-1 $300 $570 #
straight-curve $-1 -57.774519745877967 -3.8865208070631567 10.089516042260932 0 1 0 I I #
coedge $-1 $439 $301 $304 $453 reversed $294 $-1 #
coedge $-1 $301 $439 $444 $567 forward $294 $-1 #
vertex $-1 $302 $571 #
straight-curve $-1 -64.805444502090523 -10.762695876217299 58.481562750087562 0 0 1 I I #
straight-curve $-1 -64.805444502090538 -10.762695876217299 5.8649101644204933 -0.85716729658548041 0 -0.51503808176128008 I I #
edge $-1 $565 4.7833873520353283 $306 10.762695876217299 $448 $572 forward 7 unknown #
point $-1 -64.805444502090523 -10.762695876217299 10.089516042260932 #
point $-1 -57.774519745877967 -10.762695876217299 10.089516042260932 #
edge $-1 $573 1 $573 0 $309 $-1 forward 7 unknown #
vertex $-1 $310 $574 #
ellipse-curve $-1 -60.774944042222984 -9.0543220121653043 7.1200458067552423 -0.51503808176128008 0 0.85716729658548041 0.2142918241463701 0 0.12875952044032002 1 I I #
point $-1 -61.075690299837888 -9.0543220121653043 8.1059726237810423 #
edge $-1 $575 1 $575 0 $313 $-1 forward 7 unknown #
vertex $-1 $314 $576 #
ellipse-curve $-1 -60.774944042222984 -6.491761216087319 7.1200458067552423 -0.51503808176128008 0 0.85716729658548041 0.2142918241463701 0 0.12875952044032002 1 I I #
point $-1 -61.075690299837888 -6.491761216087319 8.1059726237810423 #
loop $-1 $-1 $325 $317 #
plane-surface $-1 -64.805444502090523 0 0 1 0 0 0 0 -1 forward_v I I I I #
coedge $-1 $467 $320 $322 $471 reversed $197 $-1 #
coedge $-1 $320 $466 $577 $578 reversed $197 $-1 #
coedge $-1 $328 $323 $320 $469 forward $318 $-1 #
edge $-1 $472 -8.005474329211097 $579 -0.97454957299854073 $468 $580 forward 7 unknown #
coedge $-1 $322 $321 $475 $581 reversed $123 $-1 #
edge $-1 $582 1.6755537013839907e-014 $472 8.2025116732990249 $466 $583 forward 7 unknown #
vertex $-1 $324 $584 #
straight-curve $-1 -57.774519745877967 0.89686654497216978 10.089516042260932 0 1 0 I I #
coedge $-1 $577 $325 $328 $479 reversed $464 $-1 #
coedge $-1 $325 $577 $470 $581 forward $464 $-1 #
vertex $-1 $326 $585 #
straight-curve $-1 -64.805444502090523 -1.1959211721466456 58.481562750087562 0 0 1 I I #
straight-curve $-1 -64.805444502090538 -1.1959211721466456 5.8649101644204933 -0.85716729658548041 0 -0.51503808176128008 I I #
edge $-1 $579 -4.7833873520353247 $329 1.1959211721466456 $474 $586 forward 7 unknown #
point $-1 -64.805444502090523 -1.1959211721466456 10.089516042260932 #
point $-1 -57.774519745877967 -1.1959211721466456 10.089516042260932 #
edge $-1 $587 1 $587 0 $332 $-1 forward 7 unknown #
vertex $-1 $333 $588 #
ellipse-curve $-1 -60.774944042222984 0.5124526919053487 7.1200458067552423 -0.51503808176128008 0 0.85716729658548041 0.2142918241463701 0 0.12875952044032002 1 I I #
point $-1 -61.075690299837888 0.5124526919053487 8.1059726237810423 #
edge $-1 $589 1 $589 0 $336 $-1 forward 7 unknown #
vertex $-1 $337 $590 #
ellipse-curve $-1 -60.774944042222984 3.075013487983334 7.1200458067552423 -0.51503808176128008 0 0.85716729658548041 0.2142918241463701 0 0.12875952044032002 1 I I #
point $-1 -61.075690299837888 3.075013487983334 8.1059726237810423 #
plane-surface $-1 -64.805444502090523 0 0 1 0 0 0 0 -1 forward_v I I I I #
coedge $-1 $591 $343 $348 $497 forward $219 $-1 #
coedge $-1 $343 $591 $494 $592 forward $219 $-1 #
edge $-1 $495 0.97454957299854073 $502 8.005474329211097 $343 $593 forward 7 unknown #
coedge $-1 $352 $346 $492 $592 reversed $353 $-1 #
vertex $-1 $347 $594 #
straight-curve $-1 -64.805444502090523 8.3708535319240074 58.481562750087562 0 0 1 I I #
edge $-1 $502 2.6905996349165111 $500 8.6699081590984814 $491 $595 forward 7 unknown #
coedge $-1 $499 $349 $352 $504 reversed $341 $-1 #
coedge $-1 $349 $498 $591 $596 reversed $341 $-1 #
vertex $-1 $596 $597 #
straight-curve $-1 -40.618029948482963 14.350162056105976 20.398175308901656 -0.85716729658548041 0 -0.51503808176128008 I I #
vertex $-1 $497 $598 #
straight-curve $-1 -64.805444502090538 8.3708535319240074 5.8649101644204933 -0.85716729658548041 0 -0.51503808176128008 I I #
edge $-1 $599 -6.2963636100699514 $354 -2.0717577322295213 $352 $600 forward 7 unknown #
point $-1 -64.805444502090523 14.350162056105976 5.8649101644205022 #
point $-1 -64.805444502090523 8.3708535319240074 5.8649101644205022 #
edge $-1 $601 1 $601 0 $357 $-1 forward 7 unknown #
vertex $-1 $358 $602 #
ellipse-curve $-1 -60.774944042222984 10.079227395976005 7.1200458067552423 -0.51503808176128008 0 0.85716729658548041 0.2142918241463701 0 0.12875952044032002 1 I I #
point $-1 -61.075690299837888 10.079227395976005 8.1059726237810423 #
edge $-1 $603 1 $603 0 $361 $-1 forward 7 unknown #
vertex $-1 $362 $604 #
ellipse-curve $-1 -60.774944042222984 12.641788192053987 7.1200458067552423 -0.51503808176128008 0 0.85716729658548041 0.2142918241463701 0 0.12875952044032002 1 I I #
point $-1 -61.075690299837888 12.641788192053987 8.1059726237810423 #
plane-surface $-1 64.805444502090523 0 0 -1 0 0 0 0 1 forward_v I I I I #
coedge $-1 $370 $368 $372 $520 reversed $241 $-1 #
edge $-1 $383 -10.089516042260932 $522 10.089516042260932 $382 $605 forward 7 unknown #
vertex $-1 $520 $606 #
straight-curve $-1 -64.805444502090523 -27.115957100175848 0 0 0 -1 I I #
edge $-1 $518 -27.115957100175848 $522 27.115957100175848 $516 $607 forward 7 unknown #
straight-curve $-1 0 -27.115957100175848 -10.089516042260932 -1 0 0 I I #
vertex $-1 $375 $608 #
straight-curve $-1 0 27.115957100175848 -10.089516042260932 1 0 0 I I #
point $-1 64.805444502090523 27.115957100175848 -10.089516042260932 #
point $-1 64.805444502090523 -27.115957100175848 -10.089516042260932 #
straight-curve $-1 -64.805444502090523 0 10.089516042260932 0 -1 0 I I #
point $-1 -64.805444502090523 27.115957100175848 10.089516042260932 #
point $-1 -64.805444502090523 -27.115957100175848 10.089516042260932 #
straight-curve $-1 64.805444502090523 -27.115957100175848 0 0 0 -1 I I #
straight-curve $-1 64.805444502090523 27.115957100175848 0 0 0 -1 I I #
plane-surface $-1 64.805444502090523 0 0 -1 0 0 0 0 1 forward_v I I I I #
coedge $-1 $396 $395 $406 $543 reversed $159 $-1 #
coedge $-1 $609 $399 $396 $534 forward $393 $-1 #
edge $-1 $535 14.35016205610598 $610 27.115957100175848 $396 $611 forward 7 unknown #
vertex $-1 $534 $612 #
straight-curve $-1 -64.805444502090523 -14.35016205610598 3.7931524321909809 0 0 -1 I I #
coedge $-1 $399 $609 $401 $539 forward $393 $-1 #
straight-curve $-1 0 -14.35016205610598 10.089516042260932 -1 0 0 I I #
edge $-1 $546 -27.115957100175848 $402 -14.35016205610598 $401 $613 forward 7 unknown #
point $-1 64.805444502090523 -14.35016205610598 10.089516042260932 #
straight-curve $-1 -64.805444502090523 -10.366529789070457 5.0830936865029912 0 -1 0 I I #
coedge $-1 $406 $405 $609 $614 reversed $260 $-1 #
edge $-1 $610 -10.089516042260932 $407 -5.0830936865029912 $532 $615 forward 7 unknown #
point $-1 -64.805444502090523 -27.115957100175848 5.0830936865029912 #
point $-1 -64.805444502090523 -14.35016205610598 5.0830936865029912 #
vertex $-1 $539 $616 #
straight-curve $-1 64.805444502090523 -27.115957100175848 0 0 0 -1 I I #
plane-surface $-1 0 27.115957100175848 0 0 -1 0 0 0 -1 forward_v I I I I #
coedge $-1 $418 $417 $558 $617 forward $167 $-1 #
edge $-1 $552 14.350162056105976 $561 27.115957100175848 $433 $618 forward 7 unknown #
edge $-1 $619 -27.115957100175848 $424 -14.350162056105976 $421 $620 forward 7 unknown #
vertex $-1 $550 $621 #
straight-curve $-1 0 14.350162056105976 10.089516042260932 1 0 0 I I #
coedge $-1 $422 $421 $428 $559 forward $415 $-1 #
point $-1 -64.805444502090523 14.350162056105976 5.0830936865029912 #
point $-1 -64.805444502090523 14.350162056105976 10.089516042260932 #
straight-curve $-1 -64.805444502090523 10.366529789070455 5.0830936865029912 0 -1 0 I I #
coedge $-1 $429 $428 $549 $617 reversed $430 $-1 #
edge $-1 $619 -10.089516042260932 $431 -5.0830936865029912 $428 $622 forward 7 unknown #
point $-1 -64.805444502090523 27.115957100175844 5.0830936865029912 #
vertex $-1 $550 $623 #
straight-curve $-1 64.805444502090523 27.115957100175848 0 0 0 -1 I I #
straight-curve $-1 64.805444502090523 14.350162056105976 3.7931524321909809 0 0 -1 I I #
edge $-1 $565 48.39204670782663 $568 52.616652585667062 $439 $624 forward 7 unknown #
vertex $-1 $453 $625 #
straight-curve $-1 -65.779994075089064 -4.7833873520353283 10.089516042260932 -1 0 0 I I #
edge $-1 $568 0.89686654497217155 $450 6.8761750691541419 $449 $626 forward 7 unknown #
vertex $-1 $567 $627 #
straight-curve $-1 -64.805444502090538 -4.7833873520353283 5.8649101644204933 0.85716729658548041 0 0.51503808176128008 I I #
point $-1 -57.774519745877967 -4.7833873520353283 10.089516042260932 #
point $-1 -64.805444502090523 -10.762695876217299 5.8649101644205022 #
straight-curve $-1 -64.805444502090523 0 10.089516042260932 0 -1 0 I I #
vertex $-1 $456 $628 #
point $-1 -60.560652218076612 -9.0543220121653043 7.2488053271955621 #
vertex $-1 $460 $629 #
point $-1 -60.560652218076612 -6.491761216087319 7.2488053271955621 #
coedge $-1 $475 $474 $467 $578 forward $464 $-1 #
edge $-1 $579 48.39204670782663 $582 52.616652585667062 $577 $630 forward 7 unknown #
vertex $-1 $479 $631 #
straight-curve $-1 -65.779994075089064 4.7833873520353247 10.089516042260932 -1 0 0 I I #
edge $-1 $582 -3.8865208070631549 $476 2.0927877171188154 $475 $632 forward 7 unknown #
vertex $-1 $581 $633 #
straight-curve $-1 -64.805444502090538 4.7833873520353247 5.8649101644204933 0.85716729658548041 0 0.51503808176128008 I I #
point $-1 -57.774519745877967 4.7833873520353247 10.089516042260932 #
point $-1 -64.805444502090523 -1.1959211721466456 5.8649101644205022 #
straight-curve $-1 -64.805444502090523 0 10.089516042260932 0 -1 0 I I #
vertex $-1 $482 $634 #
point $-1 -60.560652218076612 0.5124526919053487 7.2488053271955621 #
vertex $-1 $486 $635 #
point $-1 -60.560652218076612 3.075013487983334 7.2488053271955621 #
coedge $-1 $492 $491 $499 $596 forward $219 $-1 #
edge $-1 $599 -14.350162056105976 $495 -8.3708535319240074 $494 $636 forward 7 unknown #
straight-curve $-1 -65.779994075089064 8.3708535319240074 10.089516042260932 1 0 0 I I #
point $-1 -64.805444502090523 8.3708535319240074 10.089516042260932 #
straight-curve $-1 -57.774519745877967 5.6802538970074963 10.089516042260932 0 1 0 I I #
edge $-1 $500 57.774519745877967 $599 64.805444502090523 $591 $637 forward 7 unknown #
point $-1 -57.774519745877967 14.350162056105978 10.089516042260932 #
point $-1 -57.774519745877967 8.3708535319240074 10.089516042260932 #
vertex $-1 $592 $638 #
straight-curve $-1 -64.805444502090523 14.350162056105976 3.7931524321909809 0 0 -1 I I #
vertex $-1 $507 $639 #
point $-1 -60.560652218076612 10.079227395976005 7.2488053271955621 #
vertex $-1 $511 $640 #
point $-1 -60.560652218076612 12.641788192053987 7.2488053271955621 #
straight-curve $-1 -64.805444502090523 27.115957100175848 0 0 0 -1 I I #
point $-1 -64.805444502090523 -27.115957100175848 -10.089516042260932 #
straight-curve $-1 -64.805444502090523 0 -10.089516042260932 0 1 0 I I #
point $-1 -64.805444502090523 27.115957100175848 -10.089516042260932 #
coedge $-1 $537 $533 $542 $614 forward $393 $-1 #
vertex $-1 $534 $641 #
straight-curve $-1 -64.805444502090523 0 10.089516042260932 0 -1 0 I I #
point $-1 -64.805444502090523 -14.35016205610598 10.089516042260932 #
straight-curve $-1 64.805444502090523 0 10.089516042260932 0 1 0 I I #
edge $-1 $610 -64.805444502090523 $546 64.805444502090523 $542 $642 forward 7 unknown #
straight-curve $-1 -64.805444502090523 -27.115957100175848 0 0 0 -1 I I #
point $-1 64.805444502090523 -27.115957100175848 10.089516042260932 #
edge $-1 $561 -64.805444502090523 $619 64.805444502090523 $558 $643 forward 7 unknown #
straight-curve $-1 64.805444502090523 0 10.089516042260932 0 1 0 I I #
vertex $-1 $617 $644 #
straight-curve $-1 -64.805444502090523 0 10.089516042260932 0 -1 0 I I #
point $-1 64.805444502090523 14.350162056105976 10.089516042260932 #
straight-curve $-1 -64.805444502090523 27.115957100175848 0 0 0 -1 I I #
point $-1 64.805444502090523 27.115957100175848 10.089516042260932 #
straight-curve $-1 -64.805444502090523 -4.7833873520353283 58.481562750087562 0 0 -1 I I #
point $-1 -64.805444502090523 -4.7833873520353283 10.089516042260932 #
straight-curve $-1 -64.805444502090523 -3.8865208070631567 5.864910164420496 0 -1 0 I I #
point $-1 -64.805444502090523 -4.7833873520353283 5.8649101644205022 #
point $-1 -60.646184521782658 -9.0543220121653043 6.9057539826088723 #
point $-1 -60.646184521782658 -6.491761216087319 6.9057539826088723 #
straight-curve $-1 -64.805444502090523 4.7833873520353247 58.481562750087562 0 0 -1 I I #
point $-1 -64.805444502090523 4.7833873520353247 10.089516042260932 #
straight-curve $-1 -64.805444502090523 0.89686654497216978 5.864910164420496 0 -1 0 I I #
point $-1 -64.805444502090523 4.7833873520353247 5.8649101644205022 #
point $-1 -60.646184521782658 0.5124526919053487 6.9057539826088723 #
point $-1 -60.646184521782658 3.075013487983334 6.9057539826088723 #
straight-curve $-1 -64.805444502090523 0 10.089516042260932 0 -1 0 I I #
straight-curve $-1 0 14.350162056105976 10.089516042260932 -1 0 0 I I #
point $-1 -64.805444502090523 14.350162056105976 10.089516042260932 #
point $-1 -60.646184521782658 10.079227395976005 6.9057539826088723 #
point $-1 -60.646184521782658 12.641788192053987 6.9057539826088723 #
point $-1 -64.805444502090523 -27.115957100175848 10.089516042260932 #
straight-curve $-1 0 -27.115957100175848 10.089516042260932 1 0 0 I I #
straight-curve $-1 0 27.115957100175848 10.089516042260932 -1 0 0 I I #
point $-1 -64.805444502090523 27.115957100175848 10.089516042260932 #
End-of-ACIS-data 