500 0 10 0           
7 Unknown 11 ACIS 5.0 NT 24 Fri Mar 26 03:35:35 1999 
-1 9.9999999999999995e-007 1e-010 
body $-1 $10 $-1 $11 #
body $-1 $12 $-1 $13 #
body $-1 $14 $-1 $15 #
body $-1 $16 $-1 $17 #
body $-1 $18 $-1 $19 #
body $-1 $20 $-1 $21 #
body $-1 $22 $-1 $23 #
body $-1 $24 $-1 $25 #
body $-1 $26 $-1 $27 #
body $-1 $28 $-1 $29 #
lump $-1 $-1 $30 $0 #
transform $-1 1 0 0 0 1 0 0 0 1 56.339609973448901 29.149691571516119 11.201729982305878 1 rotate no_reflect no_shear #
lump $-1 $-1 $31 $1 #
transform $-1 1 0 0 0 1 0 0 0 1 20.903459964611756 4.2897460326081038 11.201729982305878 1 rotate no_reflect no_shear #
lump $-1 $-1 $32 $2 #
transform $-1 0.55919289150049634 0 -0.82903758062907751 0 1 0 0.82903758062907751 0 0.55919289150049634 143.08510902471946 51.228872776700968 168.71127671289582 1 rotate no_reflect no_shear #
lump $-1 $-1 $33 $3 #
transform $-1 0.55919289150049634 0 -0.82903758062907751 0 -1 0 -0.82903758062907751 0 -0.55919289150049634 106.26524852330445 46.986566556902204 15.320130100439798 1 rotate no_reflect no_shear #
lump $-1 $-1 $34 $4 #
transform $-1 0.55919289150049634 0 -0.82903758062907751 0 -1 0 -0.82903758062907751 0 -0.55919289150049634 106.26524852330445 51.228872776700968 15.320130100439798 1 rotate no_reflect no_shear #
lump $-1 $-1 $35 $5 #
transform $-1 0.55919289150049634 0 -0.82903758062907751 0 -1 0 -0.82903758062907751 0 -0.55919289150049634 106.26524852330445 55.471178996499731 15.320130100439798 1 rotate no_reflect no_shear #
lump $-1 $-1 $36 $6 #
transform $-1 0.55919289150049634 0 0.82903758062907751 0 1 0 -0.82903758062907751 0 0.55919289150049634 -93.415307891947847 51.228872776700968 75.295968820947991 1 rotate no_reflect no_shear #
lump $-1 $-1 $37 $7 #
transform $-1 0.55919289150049634 0 0.82903758062907751 0 -1 0 0.82903758062907751 0 -0.55919289150049634 6.4139714235933436 46.986566556902204 15.320130100439794 1 rotate no_reflect no_shear #
lump $-1 $-1 $38 $8 #
transform $-1 0.55919289150049634 0 0.82903758062907751 0 -1 0 0.82903758062907751 0 -0.55919289150049634 6.4139714235933436 51.228872776700968 15.320130100439794 1 rotate no_reflect no_shear #
lump $-1 $-1 $39 $9 #
transform $-1 0.55919289150049634 0 0.82903758062907751 0 -1 0 0.82903758062907751 0 -0.55919289150049634 6.4139714235933436 55.471178996499731 15.320130100439794 1 rotate no_reflect no_shear #
shell $-1 $-1 $-1 $40 $-1 $10 #
shell $-1 $-1 $-1 $41 $-1 $12 #
shell $-1 $-1 $-1 $42 $-1 $14 #
shell $-1 $-1 $-1 $43 $-1 $16 #
shell $-1 $-1 $-1 $44 $-1 $18 #
shell $-1 $-1 $-1 $45 $-1 $20 #
shell $-1 $-1 $-1 $46 $-1 $22 #
shell $-1 $-1 $-1 $47 $-1 $24 #
shell $-1 $-1 $-1 $48 $-1 $26 #
shell $-1 $-1 $-1 $49 $-1 $28 #
face $-1 $50 $51 $30 $-1 $52 forward single #
face $-1 $53 $54 $31 $-1 $55 forward single #
face $-1 $56 $57 $32 $-1 $58 forward single #
face $-1 $59 $60 $33 $-1 $61 forward single #
face $-1 $62 $63 $34 $-1 $64 forward single #
face $-1 $65 $66 $35 $-1 $67 forward single #
face $-1 $68 $69 $36 $-1 $70 forward single #
face $-1 $71 $72 $37 $-1 $73 forward single #
face $-1 $74 $75 $38 $-1 $76 forward single #
face $-1 $77 $78 $39 $-1 $79 forward single #
face $-1 $80 $81 $30 $-1 $82 reversed single #
loop $-1 $-1 $83 $40 #
plane-surface $-1 0 0 11.201729982305878 0 0 1 1 0 0 forward_v I I I I #
face $-1 $84 $85 $31 $-1 $86 reversed single #
loop $-1 $-1 $87 $41 #
plane-surface $-1 0 0 11.201729982305878 0 0 1 1 0 0 forward_v I I I I #
face $-1 $88 $89 $32 $-1 $90 reversed single #
loop $-1 $-1 $91 $42 #
plane-surface $-1 0 0 112.6792199468978 0 0 1 1 0 0 forward_v I I I I #
face $-1 $92 $93 $33 $-1 $94 forward single #
loop $-1 $95 $96 $43 #
cone-surface $-1 0 0 -2.0605334635456405 0 0 1 1 0 0 1 I I 0 1 1 forward I I I I #
face $-1 $97 $98 $34 $-1 $99 forward single #
loop $-1 $100 $101 $44 #
cone-surface $-1 0 0 -2.0605334635456405 0 0 1 1 0 0 1 I I 0 1 1 forward I I I I #
face $-1 $102 $103 $35 $-1 $104 forward single #
loop $-1 $105 $106 $45 #
cone-surface $-1 0 0 -2.0605334635456405 0 0 1 1 0 0 1 I I 0 1 1 forward I I I I #
face $-1 $107 $108 $36 $-1 $109 reversed single #
loop $-1 $-1 $110 $46 #
plane-surface $-1 0 0 112.6792199468978 0 0 1 1 0 0 forward_v I I I I #
face $-1 $111 $112 $37 $-1 $113 forward single #
loop $-1 $114 $115 $47 #
cone-surface $-1 0 0 -2.0605334635456405 0 0 1 1 0 0 1 I I 0 1 1 forward I I I I #
face $-1 $116 $117 $38 $-1 $118 forward single #
loop $-1 $119 $120 $48 #
cone-surface $-1 0 0 -2.0605334635456405 0 0 1 1 0 0 1 I I 0 1 1 forward I I I I #
face $-1 $121 $122 $39 $-1 $123 forward single #
loop $-1 $124 $125 $49 #
cone-surface $-1 0 0 -2.0605334635456405 0 0 1 1 0 0 1 I I 0 1 1 forward I I I I #
face $-1 $126 $127 $30 $-1 $128 reversed single #
loop $-1 $-1 $129 $50 #
plane-surface $-1 0 0 -11.201729982305878 0 0 1 1 0 0 forward_v I I I I #
coedge $-1 $130 $131 $132 $133 forward $51 $-1 #
face $-1 $134 $135 $31 $-1 $136 reversed single #
loop $-1 $-1 $137 $53 #
plane-surface $-1 0 0 -11.201729982305878 0 0 1 1 0 0 forward_v I I I I #
coedge $-1 $138 $139 $140 $141 forward $54 $-1 #
face $-1 $142 $143 $32 $-1 $144 reversed single #
loop $-1 $-1 $145 $56 #
plane-surface $-1 0 0 -112.6792199468978 0 0 1 1 0 0 forward_v I I I I #
coedge $-1 $146 $147 $148 $149 forward $57 $-1 #
face $-1 $-1 $150 $33 $-1 $151 forward single #
loop $-1 $-1 $152 $59 #
plane-surface $-1 0 0 -3.621066927091281 0 0 -1 -1 0 0 forward_v I I I I #
loop $-1 $-1 $153 $43 #
coedge $-1 $96 $96 $152 $154 reversed $60 $-1 #
face $-1 $-1 $155 $34 $-1 $156 forward single #
loop $-1 $-1 $157 $62 #
plane-surface $-1 0 0 -3.621066927091281 0 0 -1 -1 0 0 forward_v I I I I #
loop $-1 $-1 $158 $44 #
coedge $-1 $101 $101 $157 $159 reversed $63 $-1 #
face $-1 $-1 $160 $35 $-1 $161 forward single #
loop $-1 $-1 $162 $65 #
plane-surface $-1 0 0 -3.621066927091281 0 0 -1 -1 0 0 forward_v I I I I #
loop $-1 $-1 $163 $45 #
coedge $-1 $106 $106 $162 $164 reversed $66 $-1 #
face $-1 $165 $166 $36 $-1 $167 reversed single #
loop $-1 $-1 $168 $68 #
plane-surface $-1 0 0 -112.6792199468978 0 0 1 1 0 0 forward_v I I I I #
coedge $-1 $169 $170 $171 $172 forward $69 $-1 #
face $-1 $-1 $173 $37 $-1 $174 forward single #
loop $-1 $-1 $175 $71 #
plane-surface $-1 0 0 -3.621066927091281 0 0 -1 -1 0 0 forward_v I I I I #
loop $-1 $-1 $176 $47 #
coedge $-1 $115 $115 $175 $177 reversed $72 $-1 #
face $-1 $-1 $178 $38 $-1 $179 forward single #
loop $-1 $-1 $180 $74 #
plane-surface $-1 0 0 -3.621066927091281 0 0 -1 -1 0 0 forward_v I I I I #
loop $-1 $-1 $181 $48 #
coedge $-1 $120 $120 $180 $182 reversed $75 $-1 #
face $-1 $-1 $183 $39 $-1 $184 forward single #
loop $-1 $-1 $185 $77 #
plane-surface $-1 0 0 -3.621066927091281 0 0 -1 -1 0 0 forward_v I I I I #
loop $-1 $-1 $186 $49 #
coedge $-1 $125 $125 $185 $187 reversed $78 $-1 #
face $-1 $188 $189 $30 $-1 $190 reversed single #
loop $-1 $-1 $191 $80 #
plane-surface $-1 0 -29.149691571516119 0 0 1 0 0 0 1 forward_v I I I I #
coedge $-1 $192 $193 $194 $195 forward $81 $-1 #
coedge $-1 $196 $83 $197 $198 forward $51 $-1 #
coedge $-1 $83 $196 $199 $200 forward $51 $-1 #
coedge $-1 $201 $202 $83 $133 reversed $203 $-1 #
edge $-1 $204 -29.149691571516119 $205 29.149691571516119 $132 $206 forward 7 unknown #
face $-1 $207 $208 $31 $-1 $209 reversed single #
loop $-1 $-1 $210 $84 #
plane-surface $-1 0 -4.2897460326081038 0 0 1 0 0 0 1 forward_v I I I I #
coedge $-1 $211 $212 $213 $214 forward $85 $-1 #
coedge $-1 $215 $87 $216 $217 forward $54 $-1 #
coedge $-1 $87 $215 $218 $219 forward $54 $-1 #
coedge $-1 $220 $221 $87 $141 reversed $222 $-1 #
edge $-1 $223 -4.2897460326081038 $224 4.2897460326081038 $140 $225 forward 7 unknown #
face $-1 $226 $227 $32 $-1 $228 reversed single #
loop $-1 $-1 $229 $88 #
plane-surface $-1 0 -7.0705103663312663 0 0 1 0 0 0 1 forward_v I I I I #
coedge $-1 $230 $231 $232 $233 forward $89 $-1 #
coedge $-1 $234 $91 $235 $236 forward $57 $-1 #
coedge $-1 $91 $234 $237 $238 forward $57 $-1 #
coedge $-1 $239 $240 $91 $149 reversed $241 $-1 #
edge $-1 $242 -7.0705103663312663 $243 7.0705103663312663 $148 $244 forward 7 unknown #
loop $-1 $245 $246 $92 #
cone-surface $-1 0 0 0 0 0 1 0.5 0 0 1 I I -0.70710678118654746 0.70710678118654746 0.5 forward I I I I #
coedge $-1 $152 $152 $96 $154 forward $93 $-1 #
coedge $-1 $153 $153 $246 $247 forward $95 $-1 #
edge $-1 $248 0 $248 6.2831853071796004 $152 $249 forward 7 unknown #
loop $-1 $250 $251 $97 #
cone-surface $-1 0 0 0 0 0 1 0.5 0 0 1 I I -0.70710678118654746 0.70710678118654746 0.5 forward I I I I #
coedge $-1 $157 $157 $101 $159 forward $98 $-1 #
coedge $-1 $158 $158 $251 $252 forward $100 $-1 #
edge $-1 $253 0 $253 6.2831853071796004 $157 $254 forward 7 unknown #
loop $-1 $255 $256 $102 #
cone-surface $-1 0 0 0 0 0 1 0.5 0 0 1 I I -0.70710678118654746 0.70710678118654746 0.5 forward I I I I #
coedge $-1 $162 $162 $106 $164 forward $103 $-1 #
coedge $-1 $163 $163 $256 $257 forward $105 $-1 #
edge $-1 $258 0 $258 6.2831853071796004 $162 $259 forward 7 unknown #
face $-1 $260 $261 $36 $-1 $262 reversed single #
loop $-1 $-1 $263 $107 #
plane-surface $-1 0 -7.0705103663312663 0 0 1 0 0 0 1 forward_v I I I I #
coedge $-1 $264 $265 $266 $267 forward $108 $-1 #
coedge $-1 $268 $110 $269 $270 forward $69 $-1 #
coedge $-1 $110 $268 $271 $272 forward $69 $-1 #
coedge $-1 $273 $274 $110 $172 reversed $275 $-1 #
edge $-1 $276 -7.0705103663312663 $277 7.0705103663312663 $171 $278 forward 7 unknown #
loop $-1 $279 $280 $111 #
cone-surface $-1 0 0 0 0 0 1 0.5 0 0 1 I I -0.70710678118654746 0.70710678118654746 0.5 forward I I I I #
coedge $-1 $175 $175 $115 $177 forward $112 $-1 #
coedge $-1 $176 $176 $280 $281 forward $114 $-1 #
edge $-1 $282 0 $282 6.2831853071796004 $175 $283 forward 7 unknown #
loop $-1 $284 $285 $116 #
cone-surface $-1 0 0 0 0 0 1 0.5 0 0 1 I I -0.70710678118654746 0.70710678118654746 0.5 forward I I I I #
coedge $-1 $180 $180 $120 $182 forward $117 $-1 #
coedge $-1 $181 $181 $285 $286 forward $119 $-1 #
edge $-1 $287 0 $287 6.2831853071796004 $180 $288 forward 7 unknown #
loop $-1 $289 $290 $121 #
cone-surface $-1 0 0 0 0 0 1 0.5 0 0 1 I I -0.70710678118654746 0.70710678118654746 0.5 forward I I I I #
coedge $-1 $185 $185 $125 $187 forward $122 $-1 #
coedge $-1 $186 $186 $290 $291 forward $124 $-1 #
edge $-1 $292 0 $292 6.2831853071796004 $185 $293 forward 7 unknown #
face $-1 $294 $295 $30 $-1 $296 reversed single #
loop $-1 $-1 $297 $126 #
plane-surface $-1 -56.339609973448901 0 0 1 0 0 0 0 -1 forward_v I I I I #
coedge $-1 $298 $199 $299 $300 forward $127 $-1 #
coedge $-1 $301 $129 $298 $302 forward $81 $-1 #
coedge $-1 $129 $301 $303 $304 forward $81 $-1 #
coedge $-1 $202 $201 $129 $195 reversed $203 $-1 #
edge $-1 $305 -29.149691571516119 $306 29.149691571516119 $194 $307 forward 7 unknown #
coedge $-1 $131 $130 $308 $309 forward $51 $-1 #
coedge $-1 $310 $311 $130 $198 reversed $295 $-1 #
edge $-1 $205 -56.339609973448901 $312 56.339609973448901 $197 $313 forward 7 unknown #
coedge $-1 $191 $314 $131 $200 reversed $127 $-1 #
edge $-1 $315 -56.339609973448901 $204 56.339609973448901 $199 $316 forward 7 unknown #
coedge $-1 $194 $132 $314 $317 forward $203 $-1 #
coedge $-1 $132 $194 $310 $318 reversed $203 $-1 #
loop $-1 $-1 $201 $294 #
vertex $-1 $133 $319 #
vertex $-1 $133 $320 #
straight-curve $-1 56.339609973448901 0 11.201729982305878 0 1 0 I I #
face $-1 $321 $322 $31 $-1 $323 reversed single #
loop $-1 $-1 $324 $134 #
plane-surface $-1 -1.5 0 0 1 0 0 0 0 -1 forward_v I I I I #
coedge $-1 $325 $218 $326 $327 forward $135 $-1 #
coedge $-1 $328 $137 $325 $329 forward $85 $-1 #
coedge $-1 $137 $328 $330 $331 forward $85 $-1 #
coedge $-1 $221 $220 $137 $214 reversed $222 $-1 #
edge $-1 $332 -4.2897460326081038 $333 4.2897460326081038 $213 $334 forward 7 unknown #
coedge $-1 $139 $138 $335 $336 forward $54 $-1 #
coedge $-1 $337 $338 $138 $217 reversed $322 $-1 #
edge $-1 $224 -1.5 $339 1.5 $216 $340 forward 7 unknown #
coedge $-1 $210 $341 $139 $219 reversed $135 $-1 #
edge $-1 $342 -1.5 $223 1.5 $218 $343 forward 7 unknown #
coedge $-1 $213 $140 $341 $344 forward $222 $-1 #
coedge $-1 $140 $213 $337 $345 reversed $222 $-1 #
loop $-1 $-1 $220 $321 #
vertex $-1 $141 $346 #
vertex $-1 $141 $347 #
straight-curve $-1 1.5 0 11.201729982305878 0 1 0 I I #
face $-1 $348 $349 $32 $-1 $350 reversed single #
loop $-1 $-1 $351 $142 #
plane-surface $-1 -225.35843989379561 0 0 1 0 0 0 0 -1 forward_v I I I I #
coedge $-1 $352 $237 $353 $354 forward $143 $-1 #
coedge $-1 $355 $145 $352 $356 forward $89 $-1 #
coedge $-1 $145 $355 $357 $358 forward $89 $-1 #
coedge $-1 $240 $239 $145 $233 reversed $241 $-1 #
edge $-1 $359 -7.0705103663312663 $360 7.0705103663312663 $232 $361 forward 7 unknown #
coedge $-1 $147 $146 $362 $363 forward $57 $-1 #
coedge $-1 $364 $365 $146 $236 reversed $349 $-1 #
edge $-1 $243 -225.35843989379561 $366 225.35843989379561 $235 $367 forward 7 unknown #
coedge $-1 $229 $368 $147 $238 reversed $143 $-1 #
edge $-1 $369 -225.35843989379561 $242 225.35843989379561 $237 $370 forward 7 unknown #
coedge $-1 $232 $148 $368 $371 forward $241 $-1 #
coedge $-1 $148 $232 $364 $372 reversed $241 $-1 #
loop $-1 $-1 $239 $348 #
vertex $-1 $149 $373 #
vertex $-1 $149 $374 #
straight-curve $-1 225.35843989379561 0 112.6792199468978 0 1 0 I I #
loop $-1 $-1 $375 $92 #
coedge $-1 $246 $246 $153 $247 reversed $150 $-1 #
edge $-1 $376 0 $376 6.2831853071796004 $246 $377 forward 7 unknown #
vertex $-1 $154 $378 #
ellipse-curve $-1 0 0 -3.621066927091281 0 0 -1 1 0 0 1 I I #
loop $-1 $-1 $379 $97 #
coedge $-1 $251 $251 $158 $252 reversed $155 $-1 #
edge $-1 $380 0 $380 6.2831853071796004 $251 $381 forward 7 unknown #
vertex $-1 $159 $382 #
ellipse-curve $-1 0 0 -3.621066927091281 0 0 -1 1 0 0 1 I I #
loop $-1 $-1 $383 $102 #
coedge $-1 $256 $256 $163 $257 reversed $160 $-1 #
edge $-1 $384 0 $384 6.2831853071796004 $256 $385 forward 7 unknown #
vertex $-1 $164 $386 #
ellipse-curve $-1 0 0 -3.621066927091281 0 0 -1 1 0 0 1 I I #
face $-1 $387 $388 $36 $-1 $389 reversed single #
loop $-1 $-1 $390 $165 #
plane-surface $-1 -225.35843989379561 0 0 1 0 0 0 0 -1 forward_v I I I I #
coedge $-1 $391 $271 $392 $393 forward $166 $-1 #
coedge $-1 $394 $168 $391 $395 forward $108 $-1 #
coedge $-1 $168 $394 $396 $397 forward $108 $-1 #
coedge $-1 $274 $273 $168 $267 reversed $275 $-1 #
edge $-1 $398 -7.0705103663312663 $399 7.0705103663312663 $266 $400 forward 7 unknown #
coedge $-1 $170 $169 $401 $402 forward $69 $-1 #
coedge $-1 $403 $404 $169 $270 reversed $388 $-1 #
edge $-1 $277 -225.35843989379561 $405 225.35843989379561 $269 $406 forward 7 unknown #
coedge $-1 $263 $407 $170 $272 reversed $166 $-1 #
edge $-1 $408 -225.35843989379561 $276 225.35843989379561 $271 $409 forward 7 unknown #
coedge $-1 $266 $171 $407 $410 forward $275 $-1 #
coedge $-1 $171 $266 $403 $411 reversed $275 $-1 #
loop $-1 $-1 $273 $387 #
vertex $-1 $172 $412 #
vertex $-1 $172 $413 #
straight-curve $-1 225.35843989379561 0 112.6792199468978 0 1 0 I I #
loop $-1 $-1 $414 $111 #
coedge $-1 $280 $280 $176 $281 reversed $173 $-1 #
edge $-1 $415 0 $415 6.2831853071796004 $280 $416 forward 7 unknown #
vertex $-1 $177 $417 #
ellipse-curve $-1 0 0 -3.621066927091281 0 0 -1 1 0 0 1 I I #
loop $-1 $-1 $418 $116 #
coedge $-1 $285 $285 $181 $286 reversed $178 $-1 #
edge $-1 $419 0 $419 6.2831853071796004 $285 $420 forward 7 unknown #
vertex $-1 $182 $421 #
ellipse-curve $-1 0 0 -3.621066927091281 0 0 -1 1 0 0 1 I I #
loop $-1 $-1 $422 $121 #
coedge $-1 $290 $290 $186 $291 reversed $183 $-1 #
edge $-1 $423 0 $423 6.2831853071796004 $290 $424 forward 7 unknown #
vertex $-1 $187 $425 #
ellipse-curve $-1 0 0 -3.621066927091281 0 0 -1 1 0 0 1 I I #
face $-1 $-1 $203 $30 $-1 $426 reversed single #
loop $-1 $-1 $310 $188 #
plane-surface $-1 0 29.149691571516119 0 0 -1 0 0 0 -1 forward_v I I I I #
coedge $-1 $427 $308 $311 $428 forward $189 $-1 #
coedge $-1 $314 $191 $192 $302 reversed $127 $-1 #
coedge $-1 $308 $427 $191 $300 reversed $189 $-1 #
edge $-1 $315 -11.201729982305878 $429 11.201729982305878 $299 $430 forward 7 unknown #
coedge $-1 $193 $192 $427 $431 forward $81 $-1 #
edge $-1 $306 -56.339609973448901 $429 56.339609973448901 $298 $432 forward 7 unknown #
coedge $-1 $311 $310 $193 $304 reversed $295 $-1 #
edge $-1 $433 -56.339609973448901 $305 56.339609973448901 $303 $434 forward 7 unknown #
vertex $-1 $195 $435 #
vertex $-1 $317 $436 #
straight-curve $-1 56.339609973448901 0 -11.201729982305878 0 -1 0 I I #
coedge $-1 $297 $299 $196 $309 reversed $189 $-1 #
edge $-1 $312 -29.149691571516119 $315 29.149691571516119 $308 $437 forward 7 unknown #
coedge $-1 $303 $197 $202 $318 forward $295 $-1 #
coedge $-1 $197 $303 $297 $428 reversed $295 $-1 #
vertex $-1 $198 $438 #
straight-curve $-1 0 29.149691571516119 11.201729982305878 -1 0 0 I I #
coedge $-1 $199 $298 $201 $317 reversed $127 $-1 #
vertex $-1 $309 $439 #
straight-curve $-1 0 -29.149691571516119 11.201729982305878 1 0 0 I I #
edge $-1 $204 -11.201729982305878 $306 11.201729982305878 $201 $440 forward 7 unknown #
edge $-1 $205 -11.201729982305878 $305 11.201729982305878 $202 $441 forward 7 unknown #
point $-1 56.339609973448901 -29.149691571516119 11.201729982305878 #
point $-1 56.339609973448901 29.149691571516119 11.201729982305878 #
face $-1 $-1 $222 $31 $-1 $442 reversed single #
loop $-1 $-1 $337 $207 #
plane-surface $-1 0 4.2897460326081038 0 0 -1 0 0 0 -1 forward_v I I I I #
coedge $-1 $443 $335 $338 $444 forward $208 $-1 #
coedge $-1 $341 $210 $211 $329 reversed $135 $-1 #
coedge $-1 $335 $443 $210 $327 reversed $208 $-1 #
edge $-1 $342 -11.201729982305878 $445 11.201729982305878 $326 $446 forward 7 unknown #
coedge $-1 $212 $211 $443 $447 forward $85 $-1 #
edge $-1 $333 -1.5 $445 1.5 $325 $448 forward 7 unknown #
coedge $-1 $338 $337 $212 $331 reversed $322 $-1 #
edge $-1 $449 -1.5 $332 1.5 $330 $450 forward 7 unknown #
vertex $-1 $214 $451 #
vertex $-1 $344 $452 #
straight-curve $-1 1.5 0 -11.201729982305878 0 -1 0 I I #
coedge $-1 $324 $326 $215 $336 reversed $208 $-1 #
edge $-1 $339 -4.2897460326081038 $342 4.2897460326081038 $335 $453 forward 7 unknown #
coedge $-1 $330 $216 $221 $345 forward $322 $-1 #
coedge $-1 $216 $330 $324 $444 reversed $322 $-1 #
vertex $-1 $217 $454 #
straight-curve $-1 0 4.2897460326081038 11.201729982305878 -1 0 0 I I #
coedge $-1 $218 $325 $220 $344 reversed $135 $-1 #
vertex $-1 $336 $455 #
straight-curve $-1 0 -4.2897460326081038 11.201729982305878 1 0 0 I I #
edge $-1 $223 -11.201729982305878 $333 11.201729982305878 $220 $456 forward 7 unknown #
edge $-1 $224 -11.201729982305878 $332 11.201729982305878 $221 $457 forward 7 unknown #
point $-1 1.5 -4.2897460326081038 11.201729982305878 #
point $-1 1.5 4.2897460326081038 11.201729982305878 #
face $-1 $-1 $241 $32 $-1 $458 reversed single #
loop $-1 $-1 $364 $226 #
plane-surface $-1 0 7.0705103663312663 0 0 -1 0 0 0 -1 forward_v I I I I #
coedge $-1 $459 $362 $365 $460 forward $227 $-1 #
coedge $-1 $368 $229 $230 $356 reversed $143 $-1 #
coedge $-1 $362 $459 $229 $354 reversed $227 $-1 #
edge $-1 $369 -112.6792199468978 $461 112.6792199468978 $353 $462 forward 7 unknown #
coedge $-1 $231 $230 $459 $463 forward $89 $-1 #
edge $-1 $360 -225.35843989379561 $461 225.35843989379561 $352 $464 forward 7 unknown #
coedge $-1 $365 $364 $231 $358 reversed $349 $-1 #
edge $-1 $465 -225.35843989379561 $359 225.35843989379561 $357 $466 forward 7 unknown #
vertex $-1 $233 $467 #
vertex $-1 $371 $468 #
straight-curve $-1 225.35843989379561 0 -112.6792199468978 0 -1 0 I I #
coedge $-1 $351 $353 $234 $363 reversed $227 $-1 #
edge $-1 $366 -7.0705103663312663 $369 7.0705103663312663 $362 $469 forward 7 unknown #
coedge $-1 $357 $235 $240 $372 forward $349 $-1 #
coedge $-1 $235 $357 $351 $460 reversed $349 $-1 #
vertex $-1 $236 $470 #
straight-curve $-1 0 7.0705103663312663 112.6792199468978 -1 0 0 I I #
coedge $-1 $237 $352 $239 $371 reversed $143 $-1 #
vertex $-1 $363 $471 #
straight-curve $-1 0 -7.0705103663312663 112.6792199468978 1 0 0 I I #
edge $-1 $242 -112.6792199468978 $360 112.6792199468978 $239 $472 forward 7 unknown #
edge $-1 $243 -112.6792199468978 $359 112.6792199468978 $240 $473 forward 7 unknown #
point $-1 225.35843989379561 -7.0705103663312663 112.6792199468978 #
point $-1 225.35843989379561 7.0705103663312663 112.6792199468978 #
coedge $-1 $375 $375 $-1 $474 reversed $245 $-1 #
vertex $-1 $247 $475 #
ellipse-curve $-1 0 0 -0.5 0 0 -1 1 0 0 1 I I #
point $-1 1 0 -3.621066927091281 #
coedge $-1 $379 $379 $-1 $476 reversed $250 $-1 #
vertex $-1 $252 $477 #
ellipse-curve $-1 0 0 -0.5 0 0 -1 1 0 0 1 I I #
point $-1 1 0 -3.621066927091281 #
coedge $-1 $383 $383 $-1 $478 reversed $255 $-1 #
vertex $-1 $257 $479 #
ellipse-curve $-1 0 0 -0.5 0 0 -1 1 0 0 1 I I #
point $-1 1 0 -3.621066927091281 #
face $-1 $-1 $275 $36 $-1 $480 reversed single #
loop $-1 $-1 $403 $260 #
plane-surface $-1 0 7.0705103663312663 0 0 -1 0 0 0 -1 forward_v I I I I #
coedge $-1 $481 $401 $404 $482 forward $261 $-1 #
coedge $-1 $407 $263 $264 $395 reversed $166 $-1 #
coedge $-1 $401 $481 $263 $393 reversed $261 $-1 #
edge $-1 $408 -112.6792199468978 $483 112.6792199468978 $392 $484 forward 7 unknown #
coedge $-1 $265 $264 $481 $485 forward $108 $-1 #
edge $-1 $399 -225.35843989379561 $483 225.35843989379561 $391 $486 forward 7 unknown #
coedge $-1 $404 $403 $265 $397 reversed $388 $-1 #
edge $-1 $487 -225.35843989379561 $398 225.35843989379561 $396 $488 forward 7 unknown #
vertex $-1 $267 $489 #
vertex $-1 $410 $490 #
straight-curve $-1 225.35843989379561 0 -112.6792199468978 0 -1 0 I I #
coedge $-1 $390 $392 $268 $402 reversed $261 $-1 #
edge $-1 $405 -7.0705103663312663 $408 7.0705103663312663 $401 $491 forward 7 unknown #
coedge $-1 $396 $269 $274 $411 forward $388 $-1 #
coedge $-1 $269 $396 $390 $482 reversed $388 $-1 #
vertex $-1 $270 $492 #
straight-curve $-1 0 7.0705103663312663 112.6792199468978 -1 0 0 I I #
coedge $-1 $271 $391 $273 $410 reversed $166 $-1 #
vertex $-1 $402 $493 #
straight-curve $-1 0 -7.0705103663312663 112.6792199468978 1 0 0 I I #
edge $-1 $276 -112.6792199468978 $399 112.6792199468978 $273 $494 forward 7 unknown #
edge $-1 $277 -112.6792199468978 $398 112.6792199468978 $274 $495 forward 7 unknown #
point $-1 225.35843989379561 -7.0705103663312663 112.6792199468978 #
point $-1 225.35843989379561 7.0705103663312663 112.6792199468978 #
coedge $-1 $414 $414 $-1 $496 reversed $279 $-1 #
vertex $-1 $281 $497 #
ellipse-curve $-1 0 0 -0.5 0 0 -1 1 0 0 1 I I #
point $-1 1 0 -3.621066927091281 #
coedge $-1 $418 $418 $-1 $498 reversed $284 $-1 #
vertex $-1 $286 $499 #
ellipse-curve $-1 0 0 -0.5 0 0 -1 1 0 0 1 I I #
point $-1 1 0 -3.621066927091281 #
coedge $-1 $422 $422 $-1 $500 reversed $289 $-1 #
vertex $-1 $291 $501 #
ellipse-curve $-1 0 0 -0.5 0 0 -1 1 0 0 1 I I #
point $-1 1 0 -3.621066927091281 #
plane-surface $-1 56.339609973448901 0 0 -1 0 0 0 0 1 forward_v I I I I #
coedge $-1 $299 $297 $301 $431 reversed $189 $-1 #
edge $-1 $312 -11.201729982305878 $433 11.201729982305878 $311 $502 forward 7 unknown #
vertex $-1 $431 $503 #
straight-curve $-1 -56.339609973448901 -29.149691571516119 0 0 0 -1 I I #
edge $-1 $429 -29.149691571516119 $433 29.149691571516119 $427 $504 forward 7 unknown #
straight-curve $-1 0 -29.149691571516119 -11.201729982305878 -1 0 0 I I #
vertex $-1 $304 $505 #
straight-curve $-1 0 29.149691571516119 -11.201729982305878 1 0 0 I I #
point $-1 56.339609973448901 29.149691571516119 -11.201729982305878 #
point $-1 56.339609973448901 -29.149691571516119 -11.201729982305878 #
straight-curve $-1 -56.339609973448901 0 11.201729982305878 0 -1 0 I I #
point $-1 -56.339609973448901 29.149691571516119 11.201729982305878 #
point $-1 -56.339609973448901 -29.149691571516119 11.201729982305878 #
straight-curve $-1 56.339609973448901 -29.149691571516119 0 0 0 -1 I I #
straight-curve $-1 56.339609973448901 29.149691571516119 0 0 0 -1 I I #
plane-surface $-1 1.5 0 0 -1 0 0 0 0 1 forward_v I I I I #
coedge $-1 $326 $324 $328 $447 reversed $208 $-1 #
edge $-1 $339 -11.201729982305878 $449 11.201729982305878 $338 $506 forward 7 unknown #
vertex $-1 $447 $507 #
straight-curve $-1 -1.5 -4.2897460326081038 0 0 0 -1 I I #
edge $-1 $445 -4.2897460326081038 $449 4.2897460326081038 $443 $508 forward 7 unknown #
straight-curve $-1 0 -4.2897460326081038 -11.201729982305878 -1 0 0 I I #
vertex $-1 $331 $509 #
straight-curve $-1 0 4.2897460326081038 -11.201729982305878 1 0 0 I I #
point $-1 1.5 4.2897460326081038 -11.201729982305878 #
point $-1 1.5 -4.2897460326081038 -11.201729982305878 #
straight-curve $-1 -1.5 0 11.201729982305878 0 -1 0 I I #
point $-1 -1.5 4.2897460326081038 11.201729982305878 #
point $-1 -1.5 -4.2897460326081038 11.201729982305878 #
straight-curve $-1 1.5 -4.2897460326081038 0 0 0 -1 I I #
straight-curve $-1 1.5 4.2897460326081038 0 0 0 -1 I I #
plane-surface $-1 225.35843989379561 0 0 -1 0 0 0 0 1 forward_v I I I I #
coedge $-1 $353 $351 $355 $463 reversed $227 $-1 #
edge $-1 $366 -112.6792199468978 $465 112.6792199468978 $365 $510 forward 7 unknown #
vertex $-1 $463 $511 #
straight-curve $-1 -225.35843989379561 -7.0705103663312663 0 0 0 -1 I I #
edge $-1 $461 -7.0705103663312663 $465 7.0705103663312663 $459 $512 forward 7 unknown #
straight-curve $-1 0 -7.0705103663312663 -112.6792199468978 -1 0 0 I I #
vertex $-1 $358 $513 #
straight-curve $-1 0 7.0705103663312663 -112.6792199468978 1 0 0 I I #
point $-1 225.35843989379561 7.0705103663312663 -112.6792199468978 #
point $-1 225.35843989379561 -7.0705103663312663 -112.6792199468978 #
straight-curve $-1 -225.35843989379561 0 112.6792199468978 0 -1 0 I I #
point $-1 -225.35843989379561 7.0705103663312663 112.6792199468978 #
point $-1 -225.35843989379561 -7.0705103663312663 112.6792199468978 #
straight-curve $-1 225.35843989379561 -7.0705103663312663 0 0 0 -1 I I #
straight-curve $-1 225.35843989379561 7.0705103663312663 0 0 0 -1 I I #
edge $-1 $514 1 $514 0 $375 $-1 forward 7 unknown #
point $-1 1 0 -0.5 #
edge $-1 $515 1 $515 0 $379 $-1 forward 7 unknown #
point $-1 1 0 -0.5 #
edge $-1 $516 1 $516 0 $383 $-1 forward 7 unknown #
point $-1 1 0 -0.5 #
plane-surface $-1 225.35843989379561 0 0 -1 0 0 0 0 1 forward_v I I I I #
coedge $-1 $392 $390 $394 $485 reversed $261 $-1 #
edge $-1 $405 -112.6792199468978 $487 112.6792199468978 $404 $517 forward 7 unknown #
vertex $-1 $485 $518 #
straight-curve $-1 -225.35843989379561 -7.0705103663312663 0 0 0 -1 I I #
edge $-1 $483 -7.0705103663312663 $487 7.0705103663312663 $481 $519 forward 7 unknown #
straight-curve $-1 0 -7.0705103663312663 -112.6792199468978 -1 0 0 I I #
vertex $-1 $397 $520 #
straight-curve $-1 0 7.0705103663312663 -112.6792199468978 1 0 0 I I #
point $-1 225.35843989379561 7.0705103663312663 -112.6792199468978 #
point $-1 225.35843989379561 -7.0705103663312663 -112.6792199468978 #
straight-curve $-1 -225.35843989379561 0 112.6792199468978 0 -1 0 I I #
point $-1 -225.35843989379561 7.0705103663312663 112.6792199468978 #
point $-1 -225.35843989379561 -7.0705103663312663 112.6792199468978 #
straight-curve $-1 225.35843989379561 -7.0705103663312663 0 0 0 -1 I I #
straight-curve $-1 225.35843989379561 7.0705103663312663 0 0 0 -1 I I #
edge $-1 $521 1 $521 0 $414 $-1 forward 7 unknown #
point $-1 1 0 -0.5 #
edge $-1 $522 1 $522 0 $418 $-1 forward 7 unknown #
point $-1 1 0 -0.5 #
edge $-1 $523 1 $523 0 $422 $-1 forward 7 unknown #
point $-1 1 0 -0.5 #
straight-curve $-1 -56.339609973448901 29.149691571516119 0 0 0 -1 I I #
point $-1 -56.339609973448901 -29.149691571516119 -11.201729982305878 #
straight-curve $-1 -56.339609973448901 0 -11.201729982305878 0 1 0 I I #
point $-1 -56.339609973448901 29.149691571516119 -11.201729982305878 #
straight-curve $-1 -1.5 4.2897460326081038 0 0 0 -1 I I #
point $-1 -1.5 -4.2897460326081038 -11.201729982305878 #
straight-curve $-1 -1.5 0 -11.201729982305878 0 1 0 I I #
point $-1 -1.5 4.2897460326081038 -11.201729982305878 #
straight-curve $-1 -225.35843989379561 7.0705103663312663 0 0 0 -1 I I #
point $-1 -225.35843989379561 -7.0705103663312663 -112.6792199468978 #
straight-curve $-1 -225.35843989379561 0 -112.6792199468978 0 1 0 I I #
point $-1 -225.35843989379561 7.0705103663312663 -112.6792199468978 #
vertex $-1 $474 $524 #
vertex $-1 $476 $525 #
vertex $-1 $478 $526 #
straight-curve $-1 -225.35843989379561 7.0705103663312663 0 0 0 -1 I I #
point $-1 -225.35843989379561 -7.0705103663312663 -112.6792199468978 #
straight-curve $-1 -225.35843989379561 0 -112.6792199468978 0 1 0 I I #
point $-1 -225.35843989379561 7.0705103663312663 -112.6792199468978 #
vertex $-1 $496 $527 #
vertex $-1 $498 $528 #
vertex $-1 $500 $529 #
point $-1 0 0 0.5 #
point $-1 0 0 0.5 #
point $-1 0 0 0.5 #
point $-1 0 0 0.5 #
point $-1 0 0 0.5 #
point $-1 0 0 0.5 #
End-of-ACIS-data 