500 0 9 0           
7 Unknown 11 ACIS 5.0 NT 24 Thu Mar 25 21:35:11 1999 
-1 9.9999999999999995e-007 1e-010 
body $-1 $9 $-1 $10 #
body $-1 $11 $-1 $12 #
body $-1 $13 $-1 $14 #
body $-1 $15 $-1 $16 #
body $-1 $17 $-1 $18 #
body $-1 $19 $-1 $20 #
body $-1 $21 $-1 $22 #
body $-1 $23 $-1 $24 #
body $-1 $25 $-1 $26 #
lump $-1 $-1 $27 $0 #
transform $-1 1 0 0 0 1 0 0 0 1 43.111667226172671 26.572875437691625 13.111512665227535 1 rotate no_reflect no_shear #
lump $-1 $-1 $28 $1 #
transform $-1 1 0 0 0 1 0 0 0 1 43.111667226172671 26.572875437691625 13.111512665227535 1 rotate no_reflect no_shear #
lump $-1 $-1 $29 $2 #
transform $-1 1 0 0 0 1 0 0 0 1 43.111667226172671 26.572875437691625 13.111512665227535 1 rotate no_reflect no_shear #
lump $-1 $-1 $30 $3 #
transform $-1 1 0 0 0 1 0 0 0 1 43.111667226172671 26.572875437691625 13.111512665227535 1 rotate no_reflect no_shear #
lump $-1 $-1 $31 $4 #
transform $-1 1 0 0 0 1 0 0 0 1 43.111667226172671 26.572875437691625 13.111512665227535 1 rotate no_reflect no_shear #
lump $-1 $-1 $32 $5 #
transform $-1 1 0 0 0 1 0 0 0 1 43.111667226172671 26.572875437691625 13.111512665227535 1 rotate no_reflect no_shear #
lump $-1 $-1 $33 $6 #
transform $-1 1 0 0 0 1 0 0 0 1 43.111667226172671 26.572875437691625 13.111512665227535 1 rotate no_reflect no_shear #
lump $-1 $-1 $34 $7 #
transform $-1 1 0 0 0 1 0 0 0 1 43.111667226172671 26.572875437691625 13.111512665227535 1 rotate no_reflect no_shear #
lump $-1 $-1 $35 $8 #
transform $-1 1 0 0 0 1 0 0 0 1 43.111667226172671 26.572875437691625 13.111512665227535 1 rotate no_reflect no_shear #
shell $-1 $-1 $-1 $36 $-1 $9 #
shell $-1 $-1 $-1 $37 $-1 $11 #
shell $-1 $-1 $-1 $38 $-1 $13 #
shell $-1 $-1 $-1 $39 $-1 $15 #
shell $-1 $-1 $-1 $40 $-1 $17 #
shell $-1 $-1 $-1 $41 $-1 $19 #
shell $-1 $-1 $-1 $42 $-1 $21 #
shell $-1 $-1 $-1 $43 $-1 $23 #
shell $-1 $-1 $-1 $44 $-1 $25 #
face $-1 $45 $46 $27 $-1 $47 forward single #
face $-1 $48 $49 $28 $-1 $50 reversed single #
face $-1 $51 $52 $29 $-1 $53 forward single #
face $-1 $54 $55 $30 $-1 $56 forward single #
face $-1 $57 $58 $31 $-1 $59 forward single #
face $-1 $60 $61 $32 $-1 $62 reversed single #
face $-1 $63 $64 $33 $-1 $65 forward single #
face $-1 $66 $67 $34 $-1 $68 reversed single #
face $-1 $69 $70 $35 $-1 $71 forward single #
face $-1 $72 $73 $27 $-1 $74 reversed single #
loop $-1 $-1 $75 $36 #
plane-surface $-1 0 0 13.111512665227535 0 0 1 1 0 0 forward_v I I I I #
face $-1 $76 $77 $28 $-1 $78 reversed single #
loop $-1 $-1 $79 $37 #
plane-surface $-1 36.809726504411543 -97.202896821069558 59.55514962560261 -1 0 0 0 -0.81915205242281985 0.57357642473473569 forward_v I I I I #
face $-1 $80 $81 $29 $-1 $82 forward single #
loop $-1 $83 $84 $38 #
cone-surface $-1 25.169010600700275 -25.108774656910008 11.318706981105901 0 0.81915205242281985 -0.57357642473473569 0.25 0 0 1 I I 0 1 0.25 forward I I I I #
face $-1 $85 $86 $30 $-1 $87 forward single #
loop $-1 $88 $89 $39 #
cone-surface $-1 29.534279064591999 -25.108774656910008 11.318706981105901 0 0.81915205242281985 -0.57357642473473569 0.25 0 0 1 I I 0 1 0.25 forward I I I I #
face $-1 $90 $91 $31 $-1 $92 forward single #
loop $-1 $93 $94 $40 #
cone-surface $-1 33.899547528483723 -25.108774656910008 11.318706981105901 0 0.81915205242281985 -0.57357642473473569 0.25 0 0 1 I I 0 1 0.25 forward I I I I #
face $-1 $95 $96 $32 $-1 $97 reversed single #
loop $-1 $-1 $98 $41 #
plane-surface $-1 -21.64145574876656 73.108614435776971 92.159013610251691 1 0 0 0 -0.85716730853699208 -0.51503806187062418 forward_v I I I I #
face $-1 $99 $100 $33 $-1 $101 forward single #
loop $-1 $102 $103 $42 #
cone-surface $-1 -14.097604728694346 21.612334546807283 6.643568032760319 0 -0.85716730853699208 -0.51503806187062418 3 0 0 1 I I 0 1 3 forward I I I I #
face $-1 $104 $105 $34 $-1 $106 reversed single #
loop $-1 $-1 $107 $43 #
plane-surface $-1 6.5537537086221214 73.108614435776971 92.159013610251691 1 0 0 0 -0.85716730853699208 -0.51503806187062418 forward_v I I I I #
face $-1 $108 $109 $35 $-1 $110 forward single #
loop $-1 $111 $112 $44 #
cone-surface $-1 14.097604728694336 21.612334546807283 6.643568032760319 0 -0.85716730853699208 -0.51503806187062418 3 0 0 1 I I 0 1 3 forward I I I I #
face $-1 $113 $114 $27 $-1 $115 reversed single #
loop $-1 $-1 $116 $45 #
plane-surface $-1 0 0 -13.111512665227535 0 0 1 1 0 0 forward_v I I I I #
coedge $-1 $117 $118 $119 $120 forward $46 $-1 #
face $-1 $121 $122 $28 $-1 $123 reversed single #
loop $-1 $-1 $124 $48 #
plane-surface $-1 29.534279064591999 -26.572875437691636 10.099477721719012 0 -0.81915205242281985 0.57357642473473569 1 0 0 forward_v I I I I #
coedge $-1 $125 $126 $127 $128 reversed $49 $-1 #
face $-1 $-1 $129 $29 $-1 $130 forward single #
loop $-1 $131 $132 $51 #
cone-surface $-1 25.169010600700275 -24.596804624145744 10.960221715646691 0 0.81915205242281985 -0.57357642473473569 0.125 0 0 1 I I -0.70710678118654746 0.70710678118654746 0.125 forward I I I I #
loop $-1 $-1 $133 $38 #
coedge $-1 $84 $84 $134 $135 reversed $52 $-1 #
face $-1 $-1 $136 $30 $-1 $137 forward single #
loop $-1 $138 $139 $54 #
cone-surface $-1 29.534279064591999 -24.596804624145744 10.960221715646691 0 0.81915205242281985 -0.57357642473473569 0.125 0 0 1 I I -0.70710678118654746 0.70710678118654746 0.125 forward I I I I #
loop $-1 $-1 $140 $39 #
coedge $-1 $89 $89 $141 $142 reversed $55 $-1 #
face $-1 $-1 $143 $31 $-1 $144 forward single #
loop $-1 $145 $146 $57 #
cone-surface $-1 33.899547528483723 -24.596804624145744 10.960221715646691 0 0.81915205242281985 -0.57357642473473569 0.125 0 0 1 I I -0.70710678118654746 0.70710678118654746 0.125 forward I I I I #
loop $-1 $-1 $147 $40 #
coedge $-1 $94 $94 $148 $149 reversed $58 $-1 #
face $-1 $150 $151 $32 $-1 $152 reversed single #
loop $-1 $-1 $153 $60 #
plane-surface $-1 -14.097604728694346 -0.79920908982478522 47.750714545893132 0 0.85716730853699208 0.51503806187062418 1 0 0 forward_v I I I I #
coedge $-1 $154 $155 $156 $157 reversed $61 $-1 #
face $-1 $-1 $158 $33 $-1 $159 forward single #
loop $-1 $160 $161 $63 #
cone-surface $-1 -14.097604728694346 18.645419173148245 4.8608654861692475 0 -0.85716730853699208 -0.51503806187062418 1.5 0 0 1 I I -0.70710678118654757 0.70710678118654757 1.5 forward I I I I #
loop $-1 $-1 $162 $42 #
coedge $-1 $103 $103 $163 $164 reversed $64 $-1 #
face $-1 $165 $166 $34 $-1 $167 reversed single #
loop $-1 $-1 $168 $66 #
plane-surface $-1 14.097604728694336 -0.79920908982478522 47.750714545893132 0 0.85716730853699208 0.51503806187062418 1 0 0 forward_v I I I I #
coedge $-1 $169 $170 $171 $172 reversed $67 $-1 #
face $-1 $-1 $173 $35 $-1 $174 forward single #
loop $-1 $175 $176 $69 #
cone-surface $-1 14.097604728694336 18.645419173148245 4.8608654861692475 0 -0.85716730853699208 -0.51503806187062418 1.5 0 0 1 I I -0.70710678118654757 0.70710678118654757 1.5 forward I I I I #
loop $-1 $-1 $177 $44 #
coedge $-1 $112 $112 $178 $179 reversed $70 $-1 #
face $-1 $180 $181 $27 $-1 $182 reversed single #
loop $-1 $-1 $183 $72 #
plane-surface $-1 0 -26.572875437691625 0 0 1 0 0 0 1 forward_v I I I I #
coedge $-1 $184 $185 $186 $187 forward $73 $-1 #
coedge $-1 $188 $75 $189 $190 forward $46 $-1 #
coedge $-1 $75 $188 $191 $192 forward $46 $-1 #
coedge $-1 $193 $194 $75 $120 reversed $195 $-1 #
edge $-1 $196 -26.572875437691625 $197 26.572875437691625 $119 $198 forward 7 unknown #
face $-1 $199 $200 $28 $-1 $201 reversed single #
loop $-1 $-1 $202 $76 #
plane-surface $-1 22.258831624772455 -97.202896821069558 59.55514962560261 1 0 0 0 0.81915205242281985 -0.57357642473473569 forward_v I I I I #
coedge $-1 $203 $204 $205 $206 reversed $77 $-1 #
coedge $-1 $126 $79 $207 $208 reversed $49 $-1 #
coedge $-1 $79 $125 $203 $209 reversed $49 $-1 #
coedge $-1 $205 $210 $79 $128 forward $211 $-1 #
edge $-1 $212 22.028572972843154 $213 24.137622481983556 $127 $214 forward 7 unknown #
loop $-1 $-1 $134 $80 #
plane-surface $-1 29.534279064591999 -26.572875437691636 10.099477721719012 0 -0.81915205242281985 0.57357642473473569 1 0 0 forward_v I I I I #
loop $-1 $-1 $215 $51 #
coedge $-1 $132 $132 $133 $216 reversed $81 $-1 #
coedge $-1 $133 $133 $132 $216 forward $83 $-1 #
coedge $-1 $134 $134 $84 $135 forward $129 $-1 #
edge $-1 $217 1.1713321066305207e-015 $217 6.2831853071796013 $134 $218 forward 7 unknown #
loop $-1 $-1 $141 $85 #
plane-surface $-1 29.534279064591999 -26.572875437691636 10.099477721719012 0 -0.81915205242281985 0.57357642473473569 1 0 0 forward_v I I I I #
loop $-1 $-1 $219 $54 #
coedge $-1 $139 $139 $140 $220 reversed $86 $-1 #
coedge $-1 $140 $140 $139 $220 forward $88 $-1 #
coedge $-1 $141 $141 $89 $142 forward $136 $-1 #
edge $-1 $221 1.1713321066305207e-015 $221 6.2831853071796013 $141 $222 forward 7 unknown #
loop $-1 $-1 $148 $90 #
plane-surface $-1 29.534279064591999 -26.572875437691636 10.099477721719012 0 -0.81915205242281985 0.57357642473473569 1 0 0 forward_v I I I I #
loop $-1 $-1 $223 $57 #
coedge $-1 $146 $146 $147 $224 reversed $91 $-1 #
coedge $-1 $147 $147 $146 $224 forward $93 $-1 #
coedge $-1 $148 $148 $94 $149 forward $143 $-1 #
edge $-1 $225 1.1713321066305207e-015 $225 6.2831853071796013 $148 $226 forward 7 unknown #
face $-1 $227 $228 $32 $-1 $229 reversed single #
loop $-1 $-1 $230 $95 #
plane-surface $-1 -6.553753708622132 73.108614435776971 92.159013610251691 -1 0 0 0 0.85716730853699208 0.51503806187062418 forward_v I I I I #
coedge $-1 $231 $232 $233 $234 reversed $96 $-1 #
coedge $-1 $155 $98 $235 $236 reversed $61 $-1 #
coedge $-1 $98 $154 $231 $237 reversed $61 $-1 #
coedge $-1 $233 $238 $98 $157 forward $239 $-1 #
edge $-1 $240 9.9814317801968606 $241 16.540184740258418 $156 $242 forward 7 unknown #
loop $-1 $-1 $163 $99 #
plane-surface $-1 -14.097604728694346 -0.79920908982478522 47.750714545893132 0 0.85716730853699208 0.51503806187062418 1 0 0 forward_v I I I I #
loop $-1 $-1 $243 $63 #
coedge $-1 $161 $161 $162 $244 reversed $100 $-1 #
coedge $-1 $162 $162 $161 $244 forward $102 $-1 #
coedge $-1 $163 $163 $103 $164 forward $158 $-1 #
edge $-1 $245 5.5655233452787879e-016 $245 6.2831853071796013 $163 $246 forward 7 unknown #
face $-1 $247 $248 $34 $-1 $249 forward single #
loop $-1 $-1 $250 $104 #
plane-surface $-1 21.64145574876655 73.108614435776971 92.159013610251691 -1 0 0 0 0.85716730853699208 0.51503806187062418 forward_v I I I I #
coedge $-1 $251 $252 $253 $254 reversed $105 $-1 #
coedge $-1 $170 $107 $255 $256 reversed $67 $-1 #
coedge $-1 $107 $169 $251 $257 reversed $67 $-1 #
coedge $-1 $253 $258 $107 $172 forward $248 $-1 #
edge $-1 $259 9.9814317801968606 $260 16.540184740258418 $171 $261 forward 7 unknown #
loop $-1 $-1 $178 $108 #
plane-surface $-1 14.097604728694336 -0.79920908982478522 47.750714545893132 0 0.85716730853699208 0.51503806187062418 1 0 0 forward_v I I I I #
loop $-1 $-1 $262 $69 #
coedge $-1 $176 $176 $177 $263 reversed $109 $-1 #
coedge $-1 $177 $177 $176 $263 forward $111 $-1 #
coedge $-1 $178 $178 $112 $179 forward $173 $-1 #
edge $-1 $264 5.5655233452787879e-016 $264 6.2831853071796013 $178 $265 forward 7 unknown #
face $-1 $266 $267 $27 $-1 $268 reversed single #
loop $-1 $-1 $269 $113 #
plane-surface $-1 -43.111667226172671 0 0 1 0 0 0 0 -1 forward_v I I I I #
coedge $-1 $270 $191 $271 $272 forward $114 $-1 #
coedge $-1 $273 $116 $270 $274 forward $73 $-1 #
coedge $-1 $116 $273 $275 $276 forward $73 $-1 #
coedge $-1 $194 $193 $116 $187 reversed $195 $-1 #
edge $-1 $277 -26.572875437691625 $278 26.572875437691625 $186 $279 forward 7 unknown #
coedge $-1 $118 $117 $280 $281 forward $46 $-1 #
coedge $-1 $282 $283 $117 $190 reversed $267 $-1 #
edge $-1 $197 -43.111667226172671 $284 43.111667226172671 $189 $285 forward 7 unknown #
coedge $-1 $183 $286 $118 $192 reversed $114 $-1 #
edge $-1 $287 -43.111667226172671 $196 43.111667226172671 $191 $288 forward 7 unknown #
coedge $-1 $186 $119 $286 $289 forward $195 $-1 #
coedge $-1 $119 $186 $282 $290 reversed $195 $-1 #
loop $-1 $-1 $193 $266 #
vertex $-1 $120 $291 #
vertex $-1 $120 $292 #
straight-curve $-1 43.111667226172671 0 13.111512665227535 0 1 0 I I #
face $-1 $-1 $211 $28 $-1 $293 forward single #
loop $-1 $-1 $294 $121 #
plane-surface $-1 0 -26.572875437691625 0 0 1 0 0 0 1 forward_v I I I I #
coedge $-1 $295 $296 $297 $298 reversed $122 $-1 #
coedge $-1 $299 $124 $126 $209 forward $77 $-1 #
coedge $-1 $124 $299 $295 $300 forward $77 $-1 #
coedge $-1 $297 $127 $124 $206 forward $211 $-1 #
edge $-1 $213 -22.042586972115544 $301 -7.4916920924764554 $205 $302 forward 7 unknown #
coedge $-1 $303 $304 $125 $208 forward $200 $-1 #
edge $-1 $305 -19.678097091082279 $212 -16.666062147573768 $207 $306 forward 7 unknown #
edge $-1 $213 -3.6770156829855658 $305 -1.9209215587448002e-014 $126 $307 forward 7 unknown #
coedge $-1 $127 $297 $303 $308 forward $211 $-1 #
loop $-1 $-1 $297 $199 #
vertex $-1 $208 $309 #
vertex $-1 $128 $310 #
straight-curve $-1 36.809726504411543 -48.601448410534779 13.111512665227536 0 1 0 I I #
coedge $-1 $215 $215 $-1 $311 reversed $131 $-1 #
edge $-1 $312 0 $312 6.2831853071796004 $132 $313 forward 7 unknown #
vertex $-1 $135 $314 #
ellipse-curve $-1 25.169010600700275 -25.518350683121426 11.605495193473276 0 -0.81915205242281985 0.57357642473473569 0.25 0 0 1 I I #
coedge $-1 $219 $219 $-1 $315 reversed $138 $-1 #
edge $-1 $316 0 $316 6.2831853071796004 $139 $317 forward 7 unknown #
vertex $-1 $142 $318 #
ellipse-curve $-1 29.534279064591999 -25.518350683121426 11.605495193473276 0 -0.81915205242281985 0.57357642473473569 0.25 0 0 1 I I #
coedge $-1 $223 $223 $-1 $319 reversed $145 $-1 #
edge $-1 $320 0 $320 6.2831853071796004 $146 $321 forward 7 unknown #
vertex $-1 $149 $322 #
ellipse-curve $-1 33.899547528483723 -25.518350683121426 11.605495193473276 0 -0.81915205242281985 0.57357642473473569 0.25 0 0 1 I I #
face $-1 $-1 $239 $32 $-1 $323 forward single #
loop $-1 $-1 $324 $150 #
plane-surface $-1 0 26.572875437691625 0 0 -1 0 0 0 -1 forward_v I I I I #
coedge $-1 $325 $326 $327 $328 reversed $151 $-1 #
coedge $-1 $329 $153 $155 $237 forward $96 $-1 #
coedge $-1 $153 $329 $325 $330 forward $96 $-1 #
coedge $-1 $327 $156 $153 $234 forward $239 $-1 #
edge $-1 $241 -14.592653384419387 $331 0.49504865572504109 $233 $332 forward 7 unknown #
coedge $-1 $333 $334 $154 $236 forward $228 $-1 #
edge $-1 $335 -43.883592497262448 $240 -32.967994139898309 $235 $336 forward 7 unknown #
edge $-1 $241 40.411249397492284 $335 53.145750875383236 $155 $337 forward 7 unknown #
coedge $-1 $156 $327 $333 $338 forward $239 $-1 #
loop $-1 $-1 $327 $227 #
vertex $-1 $236 $339 #
vertex $-1 $157 $340 #
straight-curve $-1 -21.64145574876656 36.554307217888486 13.111512665227536 0 -1 0 I I #
coedge $-1 $243 $243 $-1 $341 reversed $160 $-1 #
edge $-1 $342 0 $342 6.2831853071796004 $161 $343 forward 7 unknown #
vertex $-1 $164 $344 #
ellipse-curve $-1 -14.097604728694346 23.293498957660844 7.6537134865454606 0 0.85716730853699208 0.51503806187062418 3 0 0 1 I I #
face $-1 $-1 $345 $34 $-1 $346 reversed single #
loop $-1 $-1 $171 $165 #
plane-surface $-1 0 0 13.111512665227535 0 0 1 1 0 0 forward_v I I I I #
coedge $-1 $347 $348 $349 $350 reversed $166 $-1 #
coedge $-1 $351 $168 $170 $257 forward $105 $-1 #
coedge $-1 $168 $351 $347 $352 forward $105 $-1 #
coedge $-1 $349 $171 $168 $254 forward $248 $-1 #
edge $-1 $260 -0.49504865572504642 $353 14.592653384419382 $253 $354 forward 7 unknown #
coedge $-1 $355 $356 $169 $256 forward $345 $-1 #
edge $-1 $357 -43.883592497262448 $259 -32.967994139898309 $255 $358 forward 7 unknown #
edge $-1 $260 40.411249397492284 $357 53.145750875383236 $170 $359 forward 7 unknown #
coedge $-1 $171 $349 $355 $360 forward $248 $-1 #
vertex $-1 $172 $361 #
vertex $-1 $172 $362 #
straight-curve $-1 6.5537537086221214 36.554307217888486 13.111512665227536 0 -1 0 I I #
coedge $-1 $262 $262 $-1 $363 reversed $175 $-1 #
edge $-1 $364 0 $364 6.2831853071796004 $176 $365 forward 7 unknown #
vertex $-1 $179 $366 #
ellipse-curve $-1 14.097604728694336 23.293498957660844 7.6537134865454606 0 0.85716730853699208 0.51503806187062418 3 0 0 1 I I #
face $-1 $-1 $195 $27 $-1 $367 reversed single #
loop $-1 $-1 $282 $180 #
plane-surface $-1 0 26.572875437691625 0 0 -1 0 0 0 -1 forward_v I I I I #
coedge $-1 $368 $280 $283 $369 forward $181 $-1 #
coedge $-1 $286 $183 $184 $274 reversed $114 $-1 #
coedge $-1 $280 $368 $183 $272 reversed $181 $-1 #
edge $-1 $287 -13.111512665227535 $370 13.111512665227535 $271 $371 forward 7 unknown #
coedge $-1 $185 $184 $368 $372 forward $73 $-1 #
edge $-1 $278 -43.111667226172671 $370 43.111667226172671 $270 $373 forward 7 unknown #
coedge $-1 $283 $282 $185 $276 reversed $267 $-1 #
edge $-1 $374 -43.111667226172671 $277 43.111667226172671 $275 $375 forward 7 unknown #
vertex $-1 $187 $376 #
vertex $-1 $289 $377 #
straight-curve $-1 43.111667226172671 0 -13.111512665227535 0 -1 0 I I #
coedge $-1 $269 $271 $188 $281 reversed $181 $-1 #
edge $-1 $284 -26.572875437691625 $287 26.572875437691625 $280 $378 forward 7 unknown #
coedge $-1 $275 $189 $194 $290 forward $267 $-1 #
coedge $-1 $189 $275 $269 $369 reversed $267 $-1 #
vertex $-1 $190 $379 #
straight-curve $-1 0 26.572875437691625 13.111512665227535 -1 0 0 I I #
coedge $-1 $191 $270 $193 $289 reversed $114 $-1 #
vertex $-1 $281 $380 #
straight-curve $-1 0 -26.572875437691625 13.111512665227535 1 0 0 I I #
edge $-1 $196 -13.111512665227535 $278 13.111512665227535 $193 $381 forward 7 unknown #
edge $-1 $197 -13.111512665227535 $277 13.111512665227535 $194 $382 forward 7 unknown #
point $-1 43.111667226172671 -26.572875437691625 13.111512665227535 #
point $-1 43.111667226172671 26.572875437691625 13.111512665227535 #
plane-surface $-1 0 0 13.111512665227535 0 0 1 1 0 0 forward_v I I I I #
coedge $-1 $304 $303 $296 $383 forward $200 $-1 #
coedge $-1 $296 $202 $204 $300 reversed $122 $-1 #
coedge $-1 $202 $295 $294 $383 reversed $122 $-1 #
coedge $-1 $210 $205 $202 $298 forward $211 $-1 #
edge $-1 $301 -24.137622481983556 $384 -22.028572972843154 $297 $385 forward 7 unknown #
coedge $-1 $204 $203 $304 $386 reversed $77 $-1 #
edge $-1 $387 1.9209215587448002e-014 $301 3.6770156829855658 $295 $388 forward 7 unknown #
vertex $-1 $206 $389 #
straight-curve $-1 14.767139532296 -24.463825928551223 13.111512665227535 -1 0 0 I I #
coedge $-1 $294 $207 $210 $308 reversed $200 $-1 #
coedge $-1 $207 $294 $299 $386 forward $200 $-1 #
vertex $-1 $208 $390 #
straight-curve $-1 36.809726504411543 -26.572875437691621 29.777574812801305 0 0 1 I I #
straight-curve $-1 36.809726504411543 -26.572875437691636 10.099477721719012 0 -0.57357642473473569 -0.81915205242281985 I I #
edge $-1 $384 22.258831624772455 $212 36.809726504411543 $303 $391 forward 7 unknown #
point $-1 36.809726504411543 -26.572875437691625 13.111512665227535 #
point $-1 36.809726504411543 -24.463825928551223 13.111512665227535 #
edge $-1 $392 1 $392 0 $215 $-1 forward 7 unknown #
vertex $-1 $216 $393 #
ellipse-curve $-1 25.169010600700275 -24.699198630698596 11.031918768738533 0 -0.81915205242281985 0.57357642473473569 0.25 0 0 1 I I #
point $-1 25.419010600700275 -25.518350683121415 11.605495193473269 #
edge $-1 $394 1 $394 0 $219 $-1 forward 7 unknown #
vertex $-1 $220 $395 #
ellipse-curve $-1 29.534279064591999 -24.699198630698596 11.031918768738533 0 -0.81915205242281985 0.57357642473473569 0.25 0 0 1 I I #
point $-1 29.784279064591999 -25.518350683121415 11.605495193473269 #
edge $-1 $396 1 $396 0 $223 $-1 forward 7 unknown #
vertex $-1 $224 $397 #
ellipse-curve $-1 33.899547528483723 -24.699198630698596 11.031918768738533 0 -0.81915205242281985 0.57357642473473569 0.25 0 0 1 I I #
point $-1 34.149547528483723 -25.518350683121415 11.605495193473269 #
plane-surface $-1 0 0 13.111512665227535 0 0 1 1 0 0 forward_v I I I I #
coedge $-1 $334 $333 $326 $398 forward $228 $-1 #
coedge $-1 $326 $230 $232 $330 reversed $151 $-1 #
coedge $-1 $230 $325 $324 $398 reversed $151 $-1 #
coedge $-1 $238 $233 $230 $328 forward $239 $-1 #
edge $-1 $331 -16.540184740258418 $399 -9.9814317801968606 $327 $400 forward 7 unknown #
coedge $-1 $232 $231 $334 $401 reversed $96 $-1 #
edge $-1 $402 -53.145750875383236 $331 -40.411249397492284 $325 $403 forward 7 unknown #
vertex $-1 $234 $404 #
straight-curve $-1 -7.0488023643471731 20.014122477630064 13.111512665227533 1 0 0 I I #
coedge $-1 $324 $235 $238 $338 reversed $228 $-1 #
coedge $-1 $235 $324 $329 $401 forward $228 $-1 #
vertex $-1 $236 $405 #
straight-curve $-1 -21.64145574876656 26.572875437691625 46.079506805125845 0 0 1 I I #
straight-curve $-1 -21.64145574876656 -0.79920908982478522 47.750714545893132 0 0.51503806187062418 -0.85716730853699208 I I #
edge $-1 $399 6.553753708622132 $240 21.64145574876656 $333 $406 forward 7 unknown #
point $-1 -21.64145574876656 26.572875437691625 13.111512665227535 #
point $-1 -21.64145574876656 20.014122477630067 13.111512665227536 #
edge $-1 $407 1 $407 0 $243 $-1 forward 7 unknown #
vertex $-1 $244 $408 #
ellipse-curve $-1 -14.097604728694346 19.931170135953732 5.6334225789751837 0 0.85716730853699208 0.51503806187062418 3 0 0 1 I I #
point $-1 -11.097604728694346 23.293498957660837 7.6537134865454544 #
loop $-1 $-1 $255 $247 #
plane-surface $-1 0 26.572875437691625 0 0 -1 0 0 0 -1 forward_v I I I I #
coedge $-1 $348 $250 $252 $352 reversed $166 $-1 #
coedge $-1 $250 $347 $409 $410 reversed $166 $-1 #
coedge $-1 $258 $253 $250 $350 forward $248 $-1 #
edge $-1 $353 -16.540184740258418 $411 -9.9814317801968606 $349 $412 forward 7 unknown #
coedge $-1 $252 $251 $356 $413 reversed $105 $-1 #
edge $-1 $414 -53.145750875383236 $353 -40.411249397492284 $347 $415 forward 7 unknown #
vertex $-1 $254 $416 #
straight-curve $-1 7.0488023643471678 20.014122477630064 13.111512665227533 1 0 0 I I #
coedge $-1 $409 $255 $258 $360 reversed $345 $-1 #
coedge $-1 $255 $409 $351 $413 forward $345 $-1 #
vertex $-1 $256 $417 #
straight-curve $-1 6.5537537086221214 26.572875437691625 46.079506805125845 0 0 1 I I #
straight-curve $-1 6.5537537086221214 -0.79920908982478522 47.750714545893132 0 0.51503806187062418 -0.85716730853699208 I I #
edge $-1 $411 -21.64145574876655 $259 -6.5537537086221214 $355 $418 forward 7 unknown #
point $-1 6.5537537086221214 26.572875437691625 13.111512665227535 #
point $-1 6.5537537086221214 20.014122477630067 13.111512665227536 #
edge $-1 $419 1 $419 0 $262 $-1 forward 7 unknown #
vertex $-1 $263 $420 #
ellipse-curve $-1 14.097604728694336 19.931170135953732 5.6334225789751837 0 0.85716730853699208 0.51503806187062418 3 0 0 1 I I #
point $-1 17.097604728694336 23.293498957660837 7.6537134865454544 #
plane-surface $-1 43.111667226172671 0 0 -1 0 0 0 0 1 forward_v I I I I #
coedge $-1 $271 $269 $273 $372 reversed $181 $-1 #
edge $-1 $284 -13.111512665227535 $374 13.111512665227535 $283 $421 forward 7 unknown #
vertex $-1 $372 $422 #
straight-curve $-1 -43.111667226172671 -26.572875437691625 0 0 0 -1 I I #
edge $-1 $370 -26.572875437691625 $374 26.572875437691625 $368 $423 forward 7 unknown #
straight-curve $-1 0 -26.572875437691625 -13.111512665227535 -1 0 0 I I #
vertex $-1 $276 $424 #
straight-curve $-1 0 26.572875437691625 -13.111512665227535 1 0 0 I I #
point $-1 43.111667226172671 26.572875437691625 -13.111512665227535 #
point $-1 43.111667226172671 -26.572875437691625 -13.111512665227535 #
straight-curve $-1 -43.111667226172671 0 13.111512665227535 0 -1 0 I I #
point $-1 -43.111667226172671 26.572875437691625 13.111512665227535 #
point $-1 -43.111667226172671 -26.572875437691625 13.111512665227535 #
straight-curve $-1 43.111667226172671 -26.572875437691625 0 0 0 -1 I I #
straight-curve $-1 43.111667226172671 26.572875437691625 0 0 0 -1 I I #
edge $-1 $384 16.666062147573768 $387 19.678097091082279 $294 $425 forward 7 unknown #
vertex $-1 $308 $426 #
straight-curve $-1 22.258831624772455 -48.601448410534779 13.111512665227536 0 -1 0 I I #
edge $-1 $387 7.4916920924764554 $305 22.042586972115544 $304 $427 forward 7 unknown #
vertex $-1 $386 $428 #
straight-curve $-1 22.258831624772455 -26.572875437691636 10.099477721719012 0 0.57357642473473569 0.81915205242281985 I I #
point $-1 22.258831624772455 -24.463825928551223 13.111512665227535 #
point $-1 36.809726504411543 -26.572875437691625 10.099477721719028 #
straight-curve $-1 0 -26.572875437691625 13.111512665227535 1 0 0 I I #
vertex $-1 $311 $429 #
point $-1 25.419010600700275 -24.699198630698596 11.031918768738533 #
vertex $-1 $315 $430 #
point $-1 29.784279064591999 -24.699198630698596 11.031918768738533 #
vertex $-1 $319 $431 #
point $-1 34.149547528483723 -24.699198630698596 11.031918768738533 #
edge $-1 $399 32.967994139898309 $402 43.883592497262448 $324 $432 forward 7 unknown #
vertex $-1 $338 $433 #
straight-curve $-1 -6.553753708622132 36.554307217888486 13.111512665227536 0 1 0 I I #
edge $-1 $402 -0.49504865572504109 $335 14.592653384419387 $334 $434 forward 7 unknown #
vertex $-1 $401 $435 #
straight-curve $-1 -6.553753708622132 -0.79920908982478522 47.750714545893132 0 -0.51503806187062418 0.85716730853699208 I I #
point $-1 -6.553753708622132 20.014122477630067 13.111512665227536 #
point $-1 -21.64145574876656 26.572875437691625 2.1959143078633971 #
straight-curve $-1 0 26.572875437691625 13.111512665227535 -1 0 0 I I #
vertex $-1 $341 $436 #
point $-1 -11.097604728694346 19.931170135953732 5.6334225789751837 #
coedge $-1 $356 $355 $348 $410 forward $345 $-1 #
edge $-1 $411 32.967994139898309 $414 43.883592497262448 $409 $437 forward 7 unknown #
vertex $-1 $360 $438 #
straight-curve $-1 21.64145574876655 36.554307217888486 13.111512665227536 0 1 0 I I #
edge $-1 $414 -14.592653384419382 $357 0.49504865572504642 $356 $439 forward 7 unknown #
vertex $-1 $413 $440 #
straight-curve $-1 21.64145574876655 -0.79920908982478522 47.750714545893132 0 -0.51503806187062418 0.85716730853699208 I I #
point $-1 21.64145574876655 20.014122477630067 13.111512665227536 #
point $-1 6.5537537086221214 26.572875437691625 2.1959143078633971 #
straight-curve $-1 0 26.572875437691625 13.111512665227535 -1 0 0 I I #
vertex $-1 $363 $441 #
point $-1 17.097604728694336 19.931170135953732 5.6334225789751837 #
straight-curve $-1 -43.111667226172671 26.572875437691625 0 0 0 -1 I I #
point $-1 -43.111667226172671 -26.572875437691625 -13.111512665227535 #
straight-curve $-1 -43.111667226172671 0 -13.111512665227535 0 1 0 I I #
point $-1 -43.111667226172671 26.572875437691625 -13.111512665227535 #
straight-curve $-1 22.258831624772455 -26.572875437691621 29.777574812801305 0 0 -1 I I #
point $-1 22.258831624772455 -26.572875437691625 13.111512665227535 #
straight-curve $-1 14.767139532296 -26.572875437691625 10.099477721719026 1 0 0 I I #
point $-1 22.258831624772455 -26.572875437691625 10.099477721719028 #
point $-1 25.169010600700275 -24.494410617592891 10.888524662554849 #
point $-1 29.534279064591999 -24.494410617592891 10.888524662554849 #
point $-1 33.899547528483723 -24.494410617592891 10.888524662554849 #
straight-curve $-1 -6.553753708622132 26.572875437691625 46.079506805125845 0 0 -1 I I #
point $-1 -6.553753708622132 26.572875437691625 13.111512665227535 #
straight-curve $-1 -7.0488023643471731 26.572875437691625 2.1959143078633936 -1 0 0 I I #
point $-1 -6.553753708622132 26.572875437691625 2.1959143078633971 #
point $-1 -14.097604728694346 17.359668210342758 4.0883083933633113 #
straight-curve $-1 21.64145574876655 26.572875437691625 46.079506805125845 0 0 -1 I I #
point $-1 21.64145574876655 26.572875437691625 13.111512665227535 #
straight-curve $-1 7.0488023643471678 26.572875437691625 2.1959143078633936 -1 0 0 I I #
point $-1 21.64145574876655 26.572875437691625 2.1959143078633971 #
point $-1 14.097604728694336 17.359668210342758 4.0883083933633113 #
End-of-ACIS-data 