500 0 12 0           
7 Unknown 11 ACIS 5.0 NT 24 Thu Mar 25 20:20:23 1999 
-1 9.9999999999999995e-007 1e-010 
body $-1 $12 $-1 $13 #
body $-1 $14 $-1 $15 #
body $-1 $16 $-1 $17 #
body $-1 $18 $-1 $19 #
body $-1 $20 $-1 $21 #
body $-1 $22 $-1 $23 #
body $-1 $24 $-1 $25 #
body $-1 $26 $-1 $27 #
body $-1 $28 $-1 $29 #
body $-1 $30 $-1 $31 #
body $-1 $32 $-1 $33 #
body $-1 $34 $-1 $35 #
lump $-1 $-1 $36 $0 #
transform $-1 1 0 0 0 1 0 0 0 1 70.215765861995294 29.682538041035198 9.1109367001959214 1 rotate no_reflect no_shear #
lump $-1 $-1 $37 $1 #
transform $-1 1 0 0 0 1 0 0 0 1 70.215765861995294 29.682538041035198 9.1109367001959214 1 rotate no_reflect no_shear #
lump $-1 $-1 $38 $2 #
transform $-1 1 0 0 0 1 0 0 0 1 70.215765861995294 29.682538041035198 9.1109367001959214 1 rotate no_reflect no_shear #
lump $-1 $-1 $39 $3 #
transform $-1 1 0 0 0 1 0 0 0 1 70.215765861995294 29.682538041035198 9.1109367001959214 1 rotate no_reflect no_shear #
lump $-1 $-1 $40 $4 #
transform $-1 1 0 0 0 1 0 0 0 1 70.215765861995294 29.682538041035198 9.1109367001959214 1 rotate no_reflect no_shear #
lump $-1 $-1 $41 $5 #
transform $-1 1 0 0 0 1 0 0 0 1 70.215765861995294 29.682538041035198 9.1109367001959214 1 rotate no_reflect no_shear #
lump $-1 $-1 $42 $6 #
transform $-1 1 0 0 0 1 0 0 0 1 70.215765861995294 29.682538041035198 9.1109367001959214 1 rotate no_reflect no_shear #
lump $-1 $-1 $43 $7 #
transform $-1 1 0 0 0 1 0 0 0 1 70.215765861995294 29.682538041035198 9.1109367001959214 1 rotate no_reflect no_shear #
lump $-1 $-1 $44 $8 #
transform $-1 1 0 0 0 1 0 0 0 1 70.215765861995294 29.682538041035198 9.1109367001959214 1 rotate no_reflect no_shear #
lump $-1 $-1 $45 $9 #
transform $-1 1 0 0 0 1 0 0 0 1 70.215765861995294 29.682538041035198 9.1109367001959214 1 rotate no_reflect no_shear #
lump $-1 $-1 $46 $10 #
transform $-1 1 0 0 0 1 0 0 0 1 70.215765861995294 29.682538041035198 9.1109367001959214 1 rotate no_reflect no_shear #
lump $-1 $-1 $47 $11 #
transform $-1 1 0 0 0 1 0 0 0 1 70.215765861995294 29.682538041035198 9.1109367001959214 1 rotate no_reflect no_shear #
shell $-1 $-1 $-1 $48 $-1 $12 #
shell $-1 $-1 $-1 $49 $-1 $14 #
shell $-1 $-1 $-1 $50 $-1 $16 #
shell $-1 $-1 $-1 $51 $-1 $18 #
shell $-1 $-1 $-1 $52 $-1 $20 #
shell $-1 $-1 $-1 $53 $-1 $22 #
shell $-1 $-1 $-1 $54 $-1 $24 #
shell $-1 $-1 $-1 $55 $-1 $26 #
shell $-1 $-1 $-1 $56 $-1 $28 #
shell $-1 $-1 $-1 $57 $-1 $30 #
shell $-1 $-1 $-1 $58 $-1 $32 #
shell $-1 $-1 $-1 $59 $-1 $34 #
face $-1 $60 $61 $36 $-1 $62 forward single #
face $-1 $63 $64 $37 $-1 $65 forward single #
face $-1 $66 $67 $38 $-1 $68 reversed single #
face $-1 $69 $70 $39 $-1 $71 forward single #
face $-1 $72 $73 $40 $-1 $74 forward single #
face $-1 $75 $76 $41 $-1 $77 reversed single #
face $-1 $78 $79 $42 $-1 $80 forward single #
face $-1 $81 $82 $43 $-1 $83 forward single #
face $-1 $84 $85 $44 $-1 $86 reversed single #
face $-1 $87 $88 $45 $-1 $89 forward single #
face $-1 $90 $91 $46 $-1 $92 forward single #
face $-1 $93 $94 $47 $-1 $95 forward single #
face $-1 $96 $97 $36 $-1 $98 reversed single #
loop $-1 $-1 $99 $48 #
plane-surface $-1 0 0 9.1109367001959214 0 0 1 1 0 0 forward_v I I I I #
face $-1 $100 $101 $37 $-1 $102 reversed single #
loop $-1 $-1 $103 $49 #
plane-surface $-1 0 -24.846840334128299 -6.0983522471809142 0 0 1 1 0 0 forward_v I I I I #
face $-1 $104 $105 $38 $-1 $106 reversed single #
loop $-1 $-1 $107 $50 #
plane-surface $-1 -187.99155945445966 -15.782166514857426 77.20772631639511 0 1 0 -0.83867057594974714 0 0.54463902268945019 forward_v I I I I #
face $-1 $108 $109 $39 $-1 $110 forward single #
loop $-1 $111 $112 $51 #
cone-surface $-1 -66.237722131016497 -13.018655055247692 4.102387411472753 0.83867057594974714 0 -0.54463902268945019 0.54463902268945019 0 0.83867057594974714 1 I I 0 1 1 forward I I I I #
face $-1 $113 $114 $40 $-1 $115 forward single #
loop $-1 $116 $117 $52 #
cone-surface $-1 -66.237722131016497 -8.873387865833088 4.102387411472753 0.83867057594974714 0 -0.54463902268945019 0.54463902268945019 0 0.83867057594974714 1 I I 0 1 1 forward I I I I #
face $-1 $118 $119 $41 $-1 $120 reversed single #
loop $-1 $-1 $121 $53 #
plane-surface $-1 -187.99155945445966 15.781271820037151 77.20772631639511 0 1 0 -0.83867057594974714 0 0.54463902268945019 forward_v I I I I #
face $-1 $122 $123 $42 $-1 $124 forward single #
loop $-1 $125 $126 $54 #
cone-surface $-1 -66.237722131016497 18.544783279646882 4.102387411472753 0.83867057594974714 0 -0.54463902268945019 0.54463902268945019 0 0.83867057594974714 1 I I 0 1 1 forward I I I I #
face $-1 $127 $128 $43 $-1 $129 forward single #
loop $-1 $130 $131 $55 #
cone-surface $-1 -66.237722131016497 22.690050469061493 4.102387411472753 0.83867057594974714 0 -0.54463902268945019 0.54463902268945019 0 0.83867057594974714 1 I I 0 1 1 forward I I I I #
face $-1 $132 $133 $44 $-1 $134 reversed single #
loop $-1 $-1 $135 $56 #
plane-surface $-1 63.284721848946674 15.38911396376994 200.36859282500853 0 1 0 0.68199836817093118 0 0.7313536940579346 forward_v I I I I #
face $-1 $136 $137 $45 $-1 $138 forward single #
loop $-1 $139 $140 $57 #
cone-surface $-1 65.865820558860364 18.247798779222993 4.9877152666945186 -0.68199836817093118 0 -0.7313536940579346 0.7313536940579346 0 -0.68199836817093118 1 I I 0 1 1 forward I I I I #
face $-1 $141 $142 $46 $-1 $143 forward single #
loop $-1 $144 $145 $58 #
cone-surface $-1 65.865820558860364 22.535826002402569 4.9877152666945186 -0.68199836817093118 0 -0.7313536940579346 0.7313536940579346 0 -0.68199836817093118 1 I I 0 1 1 forward I I I I #
face $-1 $146 $147 $47 $-1 $148 forward single #
loop $-1 $149 $150 $59 #
cone-surface $-1 65.865820558860364 26.823853225582145 4.9877152666945186 -0.68199836817093118 0 -0.7313536940579346 0.7313536940579346 0 -0.68199836817093118 1 I I 0 1 1 forward I I I I #
face $-1 $151 $152 $36 $-1 $153 reversed single #
loop $-1 $-1 $154 $60 #
plane-surface $-1 0 0 -9.1109367001959214 0 0 1 1 0 0 forward_v I I I I #
coedge $-1 $155 $156 $157 $158 forward $61 $-1 #
face $-1 $159 $160 $37 $-1 $161 reversed single #
loop $-1 $-1 $162 $63 #
plane-surface $-1 0 -20.0111426272214 -7.6046444736884178 0 -1 0 0 0 -1 forward_v I I I I #
coedge $-1 $163 $164 $165 $166 reversed $64 $-1 #
face $-1 $167 $168 $38 $-1 $169 reversed single #
loop $-1 $-1 $170 $66 #
plane-surface $-1 -70.215765861995294 -10.94602146054039 0.72323412345835436 -0.83867057594974714 0 0.54463902268945019 0.54463902268945019 0 0.83867057594974714 forward_v I I I I #
coedge $-1 $171 $172 $173 $174 reversed $67 $-1 #
face $-1 $-1 $175 $39 $-1 $176 forward single #
loop $-1 $177 $178 $69 #
cone-surface $-1 -64.563861895842038 -13.018655055247692 3.0153698997736456 0.83867057594974714 0 -0.54463902268945019 0.2723195113447251 0 0.41933528797487357 1 I I -0.70710678118654746 0.70710678118654746 0.5 forward I I I I #
loop $-1 $-1 $179 $51 #
coedge $-1 $112 $112 $180 $181 reversed $70 $-1 #
face $-1 $-1 $182 $40 $-1 $183 forward single #
loop $-1 $184 $185 $72 #
cone-surface $-1 -64.563861895842038 -8.873387865833088 3.0153698997736456 0.83867057594974714 0 -0.54463902268945019 0.2723195113447251 0 0.41933528797487357 1 I I -0.70710678118654746 0.70710678118654746 0.5 forward I I I I #
loop $-1 $-1 $186 $52 #
coedge $-1 $117 $117 $187 $188 reversed $73 $-1 #
face $-1 $189 $190 $41 $-1 $191 reversed single #
loop $-1 $-1 $192 $75 #
plane-surface $-1 -70.215765861995294 20.617416874354188 0.72323412345835436 -0.83867057594974714 0 0.54463902268945019 0.54463902268945019 0 0.83867057594974714 forward_v I I I I #
coedge $-1 $193 $194 $195 $196 reversed $76 $-1 #
face $-1 $-1 $197 $42 $-1 $198 forward single #
loop $-1 $199 $200 $78 #
cone-surface $-1 -64.563861895842038 18.544783279646882 3.0153698997736456 0.83867057594974714 0 -0.54463902268945019 0.2723195113447251 0 0.41933528797487357 1 I I -0.70710678118654746 0.70710678118654746 0.5 forward I I I I #
loop $-1 $-1 $201 $54 #
coedge $-1 $126 $126 $202 $203 reversed $79 $-1 #
face $-1 $-1 $204 $43 $-1 $205 forward single #
loop $-1 $206 $207 $81 #
cone-surface $-1 -64.563861895842038 22.690050469061493 3.0153698997736456 0.83867057594974714 0 -0.54463902268945019 0.2723195113447251 0 0.41933528797487357 1 I I -0.70710678118654746 0.70710678118654746 0.5 forward I I I I #
loop $-1 $-1 $208 $55 #
coedge $-1 $131 $131 $209 $210 reversed $82 $-1 #
face $-1 $211 $212 $44 $-1 $213 reversed single #
loop $-1 $-1 $214 $84 #
plane-surface $-1 -32.489353626559264 22.535826002402569 97.66347333645399 0.68199836817093118 0 0.7313536940579346 0.7313536940579346 0 -0.68199836817093118 forward_v I I I I #
coedge $-1 $215 $216 $217 $218 reversed $85 $-1 #
face $-1 $-1 $219 $45 $-1 $220 forward single #
loop $-1 $221 $222 $87 #
cone-surface $-1 65.046952130290492 18.247798779222993 4.1095864057880789 -0.68199836817093118 0 -0.7313536940579346 0.3656768470289673 0 -0.34099918408546559 1 I I -0.70710678118654746 0.70710678118654746 0.5 forward I I I I #
loop $-1 $-1 $223 $57 #
coedge $-1 $140 $140 $224 $225 reversed $88 $-1 #
face $-1 $-1 $226 $46 $-1 $227 forward single #
loop $-1 $228 $229 $90 #
cone-surface $-1 65.046952130290492 22.535826002402569 4.1095864057880789 -0.68199836817093118 0 -0.7313536940579346 0.3656768470289673 0 -0.34099918408546559 1 I I -0.70710678118654746 0.70710678118654746 0.5 forward I I I I #
loop $-1 $-1 $230 $58 #
coedge $-1 $145 $145 $231 $232 reversed $91 $-1 #
face $-1 $-1 $233 $47 $-1 $234 forward single #
loop $-1 $235 $236 $93 #
cone-surface $-1 65.046952130290492 26.823853225582145 4.1095864057880789 -0.68199836817093118 0 -0.7313536940579346 0.3656768470289673 0 -0.34099918408546559 1 I I -0.70710678118654746 0.70710678118654746 0.5 forward I I I I #
loop $-1 $-1 $237 $59 #
coedge $-1 $150 $150 $238 $239 reversed $94 $-1 #
face $-1 $240 $241 $36 $-1 $242 reversed single #
loop $-1 $-1 $243 $96 #
plane-surface $-1 0 -29.682538041035198 0 0 1 0 0 0 1 forward_v I I I I #
coedge $-1 $244 $245 $246 $247 forward $97 $-1 #
coedge $-1 $248 $99 $249 $250 forward $61 $-1 #
coedge $-1 $99 $248 $251 $252 forward $61 $-1 #
coedge $-1 $253 $254 $99 $158 reversed $255 $-1 #
edge $-1 $256 -29.682538041035198 $257 29.682538041035198 $157 $258 forward 7 unknown #
face $-1 $259 $260 $37 $-1 $261 reversed single #
loop $-1 $-1 $262 $100 #
plane-surface $-1 0 0 -9.1109367001959214 0 0 1 1 0 0 forward_v I I I I #
coedge $-1 $263 $264 $265 $266 reversed $101 $-1 #
coedge $-1 $267 $103 $264 $268 forward $64 $-1 #
coedge $-1 $103 $267 $269 $270 reversed $64 $-1 #
coedge $-1 $271 $265 $103 $166 forward $260 $-1 #
edge $-1 $272 7.5877224601572504 $273 17.25911787397105 $165 $274 forward 7 unknown #
face $-1 $275 $276 $38 $-1 $277 forward single #
loop $-1 $-1 $278 $104 #
plane-surface $-1 -187.99155945445966 -6.1098764062233526 77.20772631639511 0 -1 0 0.83867057594974714 0 -0.54463902268945019 forward_v I I I I #
coedge $-1 $279 $280 $281 $282 reversed $105 $-1 #
coedge $-1 $172 $107 $283 $284 reversed $67 $-1 #
coedge $-1 $107 $171 $279 $285 reversed $67 $-1 #
coedge $-1 $281 $286 $107 $174 forward $276 $-1 #
edge $-1 $287 23.780013865234537 $288 29.227051432792962 $173 $289 forward 7 unknown #
loop $-1 $-1 $180 $108 #
plane-surface $-1 -70.215765861995294 -10.94602146054039 0.72323412345835436 -0.83867057594974714 0 0.54463902268945019 0.54463902268945019 0 0.83867057594974714 forward_v I I I I #
loop $-1 $-1 $290 $69 #
coedge $-1 $178 $178 $179 $291 reversed $109 $-1 #
coedge $-1 $179 $179 $178 $291 forward $111 $-1 #
coedge $-1 $180 $180 $112 $181 forward $175 $-1 #
edge $-1 $292 0 $292 6.2831853071796004 $180 $293 forward 7 unknown #
loop $-1 $-1 $187 $113 #
plane-surface $-1 -70.215765861995294 -10.94602146054039 0.72323412345835436 -0.83867057594974714 0 0.54463902268945019 0.54463902268945019 0 0.83867057594974714 forward_v I I I I #
loop $-1 $-1 $294 $72 #
coedge $-1 $185 $185 $186 $295 reversed $114 $-1 #
coedge $-1 $186 $186 $185 $295 forward $116 $-1 #
coedge $-1 $187 $187 $117 $188 forward $182 $-1 #
edge $-1 $296 0 $296 6.2831853071796004 $187 $297 forward 7 unknown #
face $-1 $298 $299 $41 $-1 $300 forward single #
loop $-1 $-1 $301 $118 #
plane-surface $-1 -187.99155945445966 25.453561928671224 77.20772631639511 0 -1 0 0.83867057594974714 0 -0.54463902268945019 forward_v I I I I #
coedge $-1 $302 $303 $304 $305 reversed $119 $-1 #
coedge $-1 $194 $121 $306 $307 reversed $76 $-1 #
coedge $-1 $121 $193 $302 $308 reversed $76 $-1 #
coedge $-1 $304 $309 $121 $196 forward $299 $-1 #
edge $-1 $310 23.780013865234537 $311 29.227051432792962 $195 $312 forward 7 unknown #
loop $-1 $-1 $202 $122 #
plane-surface $-1 -70.215765861995294 20.617416874354188 0.72323412345835436 -0.83867057594974714 0 0.54463902268945019 0.54463902268945019 0 0.83867057594974714 forward_v I I I I #
loop $-1 $-1 $313 $78 #
coedge $-1 $200 $200 $201 $314 reversed $123 $-1 #
coedge $-1 $201 $201 $200 $314 forward $125 $-1 #
coedge $-1 $202 $202 $126 $203 forward $197 $-1 #
edge $-1 $315 0 $315 6.2831853071796004 $202 $316 forward 7 unknown #
loop $-1 $-1 $209 $127 #
plane-surface $-1 -70.215765861995294 20.617416874354188 0.72323412345835436 -0.83867057594974714 0 0.54463902268945019 0.54463902268945019 0 0.83867057594974714 forward_v I I I I #
loop $-1 $-1 $317 $81 #
coedge $-1 $207 $207 $208 $318 reversed $128 $-1 #
coedge $-1 $208 $208 $207 $318 forward $130 $-1 #
coedge $-1 $209 $209 $131 $210 forward $204 $-1 #
edge $-1 $319 0 $319 6.2831853071796004 $209 $320 forward 7 unknown #
face $-1 $321 $322 $44 $-1 $323 forward single #
loop $-1 $-1 $324 $132 #
plane-surface $-1 0 29.682538041035198 0 0 -1 0 0 0 -1 forward_v I I I I #
coedge $-1 $325 $326 $327 $328 reversed $133 $-1 #
coedge $-1 $216 $135 $329 $330 reversed $85 $-1 #
coedge $-1 $135 $215 $325 $331 reversed $85 $-1 #
coedge $-1 $327 $332 $135 $218 forward $333 $-1 #
edge $-1 $334 91.073359712308346 $335 98.294898551556216 $217 $336 forward 7 unknown #
loop $-1 $-1 $224 $136 #
plane-surface $-1 -32.489353626559264 22.535826002402569 97.66347333645399 0.68199836817093118 0 0.7313536940579346 0.7313536940579346 0 -0.68199836817093118 forward_v I I I I #
loop $-1 $-1 $337 $87 #
coedge $-1 $222 $222 $223 $338 reversed $137 $-1 #
coedge $-1 $223 $223 $222 $338 forward $139 $-1 #
coedge $-1 $224 $224 $140 $225 forward $219 $-1 #
edge $-1 $339 0 $339 6.2831853071796004 $224 $340 forward 7 unknown #
loop $-1 $-1 $231 $141 #
plane-surface $-1 -32.489353626559264 22.535826002402569 97.66347333645399 0.68199836817093118 0 0.7313536940579346 0.7313536940579346 0 -0.68199836817093118 forward_v I I I I #
loop $-1 $-1 $341 $90 #
coedge $-1 $229 $229 $230 $342 reversed $142 $-1 #
coedge $-1 $230 $230 $229 $342 forward $144 $-1 #
coedge $-1 $231 $231 $145 $232 forward $226 $-1 #
edge $-1 $343 0 $343 6.2831853071796004 $231 $344 forward 7 unknown #
loop $-1 $-1 $238 $146 #
plane-surface $-1 -32.489353626559264 22.535826002402569 97.66347333645399 0.68199836817093118 0 0.7313536940579346 0.7313536940579346 0 -0.68199836817093118 forward_v I I I I #
loop $-1 $-1 $345 $93 #
coedge $-1 $236 $236 $237 $346 reversed $147 $-1 #
coedge $-1 $237 $237 $236 $346 forward $149 $-1 #
coedge $-1 $238 $238 $150 $239 forward $233 $-1 #
edge $-1 $347 0 $347 6.2831853071796004 $238 $348 forward 7 unknown #
face $-1 $349 $350 $36 $-1 $351 reversed single #
loop $-1 $-1 $352 $151 #
plane-surface $-1 -70.215765861995294 0 0 1 0 0 0 0 -1 forward_v I I I I #
coedge $-1 $353 $251 $354 $355 forward $152 $-1 #
coedge $-1 $356 $154 $353 $357 forward $97 $-1 #
coedge $-1 $154 $356 $358 $359 forward $97 $-1 #
coedge $-1 $254 $253 $154 $247 reversed $255 $-1 #
edge $-1 $360 -29.682538041035198 $361 29.682538041035198 $246 $362 forward 7 unknown #
coedge $-1 $156 $155 $363 $364 forward $61 $-1 #
coedge $-1 $365 $366 $155 $250 reversed $350 $-1 #
edge $-1 $257 -70.215765861995294 $367 70.215765861995294 $249 $368 forward 7 unknown #
coedge $-1 $243 $369 $156 $252 reversed $152 $-1 #
edge $-1 $370 -70.215765861995294 $256 70.215765861995294 $251 $371 forward 7 unknown #
coedge $-1 $246 $157 $369 $372 forward $255 $-1 #
coedge $-1 $157 $246 $365 $373 reversed $255 $-1 #
loop $-1 $-1 $253 $349 #
vertex $-1 $158 $374 #
vertex $-1 $158 $375 #
straight-curve $-1 70.215765861995294 0 9.1109367001959214 0 1 0 I I #
face $-1 $376 $377 $37 $-1 $378 reversed single #
loop $-1 $-1 $265 $159 #
plane-surface $-1 70.215765861995294 0 0 -1 0 0 0 0 1 forward_v I I I I #
coedge $-1 $379 $380 $263 $381 forward $160 $-1 #
coedge $-1 $382 $162 $262 $381 reversed $101 $-1 #
coedge $-1 $162 $382 $163 $268 reversed $101 $-1 #
coedge $-1 $165 $383 $162 $266 forward $260 $-1 #
edge $-1 $384 -5.3086144633517129 $272 -2.2960300103367053 $265 $385 forward 7 unknown #
coedge $-1 $164 $163 $386 $387 reversed $64 $-1 #
edge $-1 $272 -70.215765861995294 $388 70.215765861995294 $264 $389 forward 7 unknown #
coedge $-1 $390 $391 $164 $270 forward $377 $-1 #
edge $-1 $273 -70.215765861995294 $392 70.215765861995294 $269 $393 forward 7 unknown #
coedge $-1 $383 $165 $391 $394 forward $260 $-1 #
vertex $-1 $166 $395 #
vertex $-1 $394 $396 #
straight-curve $-1 70.215765861995294 -12.423420167064149 -6.0983522471809142 0 -1 0 I I #
face $-1 $-1 $397 $38 $-1 $398 reversed single #
loop $-1 $-1 $173 $167 #
plane-surface $-1 0 0 9.1109367001959214 0 0 1 1 0 0 forward_v I I I I #
coedge $-1 $399 $400 $401 $402 reversed $168 $-1 #
coedge $-1 $403 $170 $172 $285 forward $105 $-1 #
coedge $-1 $170 $403 $399 $404 forward $105 $-1 #
coedge $-1 $401 $173 $170 $282 forward $276 $-1 #
edge $-1 $288 -10.309155784587231 $405 -0.63686567595315768 $281 $406 forward 7 unknown #
coedge $-1 $407 $408 $171 $284 forward $397 $-1 #
edge $-1 $409 -37.880629034739201 $287 -29.492926458001634 $283 $410 forward 7 unknown #
edge $-1 $288 -10.001188568275413 $409 0 $172 $411 forward 7 unknown #
coedge $-1 $173 $401 $407 $412 forward $276 $-1 #
vertex $-1 $284 $413 #
vertex $-1 $174 $414 #
straight-curve $-1 -93.995779727229831 -15.782166514857426 9.1109367001959214 1 0 0 I I #
coedge $-1 $290 $290 $-1 $415 reversed $177 $-1 #
edge $-1 $416 0 $416 6.2831853071796004 $178 $417 forward 7 unknown #
vertex $-1 $181 $418 #
ellipse-curve $-1 -67.492247078216081 -13.018655055247692 4.9170854118271352 -0.83867057594974714 0 0.54463902268945019 0.54463902268945019 0 0.83867057594974714 1 I I #
coedge $-1 $294 $294 $-1 $419 reversed $184 $-1 #
edge $-1 $420 0 $420 6.2831853071796004 $185 $421 forward 7 unknown #
vertex $-1 $188 $422 #
ellipse-curve $-1 -67.492247078216081 -8.873387865833088 4.9170854118271352 -0.83867057594974714 0 0.54463902268945019 0.54463902268945019 0 0.83867057594974714 1 I I #
face $-1 $-1 $423 $41 $-1 $424 reversed single #
loop $-1 $-1 $195 $189 #
plane-surface $-1 0 0 9.1109367001959214 0 0 1 1 0 0 forward_v I I I I #
coedge $-1 $425 $426 $427 $428 reversed $190 $-1 #
coedge $-1 $429 $192 $194 $308 forward $119 $-1 #
coedge $-1 $192 $429 $425 $430 forward $119 $-1 #
coedge $-1 $427 $195 $192 $305 forward $299 $-1 #
edge $-1 $311 5.4725633828600575 $431 15.14485349149413 $304 $432 forward 7 unknown #
coedge $-1 $433 $434 $193 $307 forward $423 $-1 #
edge $-1 $435 -37.880629034739201 $310 -29.492926458001634 $306 $436 forward 7 unknown #
edge $-1 $311 -10.001188568275413 $435 0 $194 $437 forward 7 unknown #
coedge $-1 $195 $427 $433 $438 forward $299 $-1 #
vertex $-1 $196 $439 #
vertex $-1 $196 $440 #
straight-curve $-1 -93.995779727229831 15.781271820037151 9.1109367001959214 1 0 0 I I #
coedge $-1 $313 $313 $-1 $441 reversed $199 $-1 #
edge $-1 $442 0 $442 6.2831853071796004 $200 $443 forward 7 unknown #
vertex $-1 $203 $444 #
ellipse-curve $-1 -67.492247078216081 18.544783279646882 4.9170854118271352 -0.83867057594974714 0 0.54463902268945019 0.54463902268945019 0 0.83867057594974714 1 I I #
coedge $-1 $317 $317 $-1 $445 reversed $206 $-1 #
edge $-1 $446 0 $446 6.2831853071796004 $207 $447 forward 7 unknown #
vertex $-1 $210 $448 #
ellipse-curve $-1 -67.492247078216081 22.690050469061493 4.9170854118271352 -0.83867057594974714 0 0.54463902268945019 0.54463902268945019 0 0.83867057594974714 1 I I #
face $-1 $-1 $333 $44 $-1 $449 reversed single #
loop $-1 $-1 $450 $211 #
plane-surface $-1 0 0 9.1109367001959214 0 0 1 1 0 0 forward_v I I I I #
coedge $-1 $451 $452 $326 $453 forward $212 $-1 #
coedge $-1 $454 $214 $216 $331 forward $133 $-1 #
coedge $-1 $214 $454 $324 $453 reversed $133 $-1 #
coedge $-1 $455 $217 $214 $328 forward $333 $-1 #
edge $-1 $335 4.1212009625686559 $456 18.414625039833915 $327 $457 forward 7 unknown #
coedge $-1 $458 $450 $215 $330 forward $322 $-1 #
edge $-1 $459 30.829252820220901 $334 38.573404937521957 $329 $460 forward 7 unknown #
edge $-1 $335 -140.43153172399059 $459 -129.84273976160586 $216 $461 forward 7 unknown #
coedge $-1 $217 $455 $458 $462 reversed $333 $-1 #
loop $-1 $-1 $327 $321 #
vertex $-1 $462 $463 #
vertex $-1 $218 $464 #
straight-curve $-1 70.215765861995294 15.38911396376994 100.18429641250427 0 0 -1 I I #
coedge $-1 $337 $337 $-1 $465 reversed $221 $-1 #
edge $-1 $466 0 $466 6.2831853071796004 $222 $467 forward 7 unknown #
vertex $-1 $225 $468 #
ellipse-curve $-1 66.343689803344759 18.247798779222993 5.5001672805719872 0.68199836817093118 0 0.7313536940579346 0.7313536940579346 0 -0.68199836817093118 1 I I #
coedge $-1 $341 $341 $-1 $469 reversed $228 $-1 #
edge $-1 $470 0 $470 6.2831853071796004 $229 $471 forward 7 unknown #
vertex $-1 $232 $472 #
ellipse-curve $-1 66.343689803344759 22.535826002402569 5.5001672805719872 0.68199836817093118 0 0.7313536940579346 0.7313536940579346 0 -0.68199836817093118 1 I I #
coedge $-1 $345 $345 $-1 $473 reversed $235 $-1 #
edge $-1 $474 0 $474 6.2831853071796004 $236 $475 forward 7 unknown #
vertex $-1 $239 $476 #
ellipse-curve $-1 66.343689803344759 26.823853225582145 5.5001672805719872 0.68199836817093118 0 0.7313536940579346 0.7313536940579346 0 -0.68199836817093118 1 I I #
face $-1 $-1 $255 $36 $-1 $477 reversed single #
loop $-1 $-1 $365 $240 #
plane-surface $-1 0 29.682538041035198 0 0 -1 0 0 0 -1 forward_v I I I I #
coedge $-1 $478 $363 $366 $479 forward $241 $-1 #
coedge $-1 $369 $243 $244 $357 reversed $152 $-1 #
coedge $-1 $363 $478 $243 $355 reversed $241 $-1 #
edge $-1 $370 -9.1109367001959214 $480 9.1109367001959214 $354 $481 forward 7 unknown #
coedge $-1 $245 $244 $478 $482 forward $97 $-1 #
edge $-1 $361 -70.215765861995294 $480 70.215765861995294 $353 $483 forward 7 unknown #
coedge $-1 $366 $365 $245 $359 reversed $350 $-1 #
edge $-1 $484 -70.215765861995294 $360 70.215765861995294 $358 $485 forward 7 unknown #
vertex $-1 $247 $486 #
vertex $-1 $372 $487 #
straight-curve $-1 70.215765861995294 0 -9.1109367001959214 0 -1 0 I I #
coedge $-1 $352 $354 $248 $364 reversed $241 $-1 #
edge $-1 $367 -29.682538041035198 $370 29.682538041035198 $363 $488 forward 7 unknown #
coedge $-1 $358 $249 $254 $373 forward $350 $-1 #
coedge $-1 $249 $358 $352 $479 reversed $350 $-1 #
vertex $-1 $250 $489 #
straight-curve $-1 0 29.682538041035198 9.1109367001959214 -1 0 0 I I #
coedge $-1 $251 $353 $253 $372 reversed $152 $-1 #
vertex $-1 $364 $490 #
straight-curve $-1 0 -29.682538041035198 9.1109367001959214 1 0 0 I I #
edge $-1 $256 -9.1109367001959214 $361 9.1109367001959214 $253 $491 forward 7 unknown #
edge $-1 $257 -9.1109367001959214 $360 9.1109367001959214 $254 $492 forward 7 unknown #
point $-1 70.215765861995294 -29.682538041035198 9.1109367001959214 #
point $-1 70.215765861995294 29.682538041035198 9.1109367001959214 #
face $-1 $-1 $493 $37 $-1 $494 reversed single #
loop $-1 $-1 $269 $259 #
plane-surface $-1 0 -29.682538041035198 0 0 1 0 0 0 1 forward_v I I I I #
coedge $-1 $495 $262 $383 $496 forward $160 $-1 #
coedge $-1 $262 $495 $497 $498 forward $160 $-1 #
edge $-1 $499 -70.215765861995294 $384 70.215765861995294 $262 $500 forward 7 unknown #
coedge $-1 $264 $263 $501 $502 reversed $101 $-1 #
coedge $-1 $265 $271 $379 $496 reversed $260 $-1 #
vertex $-1 $496 $503 #
straight-curve $-1 70.215765861995294 -20.0111426272214 -3.8023222368442089 0 0 1 I I #
coedge $-1 $501 $504 $267 $387 forward $493 $-1 #
edge $-1 $392 -17.25911787397105 $388 -7.5877224601572504 $386 $505 forward 7 unknown #
vertex $-1 $387 $506 #
straight-curve $-1 0 -20.0111426272214 -6.0983522471809142 -1 0 0 I I #
coedge $-1 $507 $269 $504 $508 forward $377 $-1 #
coedge $-1 $269 $507 $271 $394 reversed $377 $-1 #
vertex $-1 $508 $509 #
straight-curve $-1 0 -29.682538041035198 -6.0983522471809142 -1 0 0 I I #
edge $-1 $273 6.0983522471809142 $510 9.1109367001959214 $271 $511 forward 7 unknown #
point $-1 70.215765861995294 -20.0111426272214 -6.0983522471809142 #
point $-1 70.215765861995294 -29.682538041035198 -6.0983522471809142 #
loop $-1 $-1 $283 $275 #
plane-surface $-1 -70.215765861995294 0 0 1 0 0 0 0 -1 forward_v I I I I #
coedge $-1 $400 $278 $280 $404 reversed $168 $-1 #
coedge $-1 $278 $399 $512 $513 reversed $168 $-1 #
coedge $-1 $286 $281 $278 $402 forward $276 $-1 #
edge $-1 $405 -29.227051432792962 $514 -23.780013865234537 $401 $515 forward 7 unknown #
coedge $-1 $280 $279 $408 $516 reversed $105 $-1 #
edge $-1 $517 0 $405 10.001188568275413 $399 $518 forward 7 unknown #
vertex $-1 $282 $519 #
straight-curve $-1 -64.768728294436869 -5.4730107302701949 9.1109367001959214 0 1 0 I I #
coedge $-1 $512 $283 $286 $412 reversed $397 $-1 #
coedge $-1 $283 $512 $403 $516 forward $397 $-1 #
vertex $-1 $284 $520 #
straight-curve $-1 -70.215765861995294 -15.782166514857426 38.603863158197555 0 0 1 I I #
straight-curve $-1 -70.215765861995294 -15.782166514857426 0.72323412345835436 -0.54463902268945019 0 -0.83867057594974714 I I #
edge $-1 $514 6.1098764062233526 $287 15.782166514857426 $407 $521 forward 7 unknown #
point $-1 -70.215765861995294 -15.782166514857426 9.1109367001959214 #
point $-1 -64.768728294436869 -15.782166514857426 9.1109367001959214 #
edge $-1 $522 1 $522 0 $290 $-1 forward 7 unknown #
vertex $-1 $291 $523 #
ellipse-curve $-1 -64.983197183816912 -13.018655055247692 3.2876894111183708 -0.83867057594974714 0 0.54463902268945019 0.54463902268945019 0 0.83867057594974714 1 I I #
point $-1 -66.947608055526644 -13.018655055247692 5.7557559877768831 #
edge $-1 $524 1 $524 0 $294 $-1 forward 7 unknown #
vertex $-1 $295 $525 #
ellipse-curve $-1 -64.983197183816912 -8.873387865833088 3.2876894111183708 -0.83867057594974714 0 0.54463902268945019 0.54463902268945019 0 0.83867057594974714 1 I I #
point $-1 -66.947608055526644 -8.873387865833088 5.7557559877768831 #
loop $-1 $-1 $306 $298 #
plane-surface $-1 -70.215765861995294 0 0 1 0 0 0 0 -1 forward_v I I I I #
coedge $-1 $426 $301 $303 $430 reversed $190 $-1 #
coedge $-1 $301 $425 $526 $527 reversed $190 $-1 #
coedge $-1 $309 $304 $301 $428 forward $299 $-1 #
edge $-1 $431 -29.227051432792962 $528 -23.780013865234537 $427 $529 forward 7 unknown #
coedge $-1 $303 $302 $434 $530 reversed $119 $-1 #
edge $-1 $531 0 $431 10.001188568275413 $425 $532 forward 7 unknown #
vertex $-1 $305 $533 #
straight-curve $-1 -64.768728294436869 10.308708437177094 9.1109367001959214 0 1 0 I I #
coedge $-1 $526 $306 $309 $438 reversed $423 $-1 #
coedge $-1 $306 $526 $429 $530 forward $423 $-1 #
vertex $-1 $307 $534 #
straight-curve $-1 -70.215765861995294 15.781271820037151 38.603863158197555 0 0 1 I I #
straight-curve $-1 -70.215765861995294 15.781271820037151 0.72323412345835436 -0.54463902268945019 0 -0.83867057594974714 I I #
edge $-1 $528 -25.453561928671224 $310 -15.781271820037151 $433 $535 forward 7 unknown #
point $-1 -70.215765861995294 15.781271820037151 9.1109367001959214 #
point $-1 -64.768728294436869 15.781271820037151 9.1109367001959214 #
edge $-1 $536 1 $536 0 $313 $-1 forward 7 unknown #
vertex $-1 $314 $537 #
ellipse-curve $-1 -64.983197183816912 18.544783279646882 3.2876894111183708 -0.83867057594974714 0 0.54463902268945019 0.54463902268945019 0 0.83867057594974714 1 I I #
point $-1 -66.947608055526644 18.544783279646882 5.7557559877768831 #
edge $-1 $538 1 $538 0 $317 $-1 forward 7 unknown #
vertex $-1 $318 $539 #
ellipse-curve $-1 -64.983197183816912 22.690050469061493 3.2876894111183708 -0.83867057594974714 0 0.54463902268945019 0.54463902268945019 0 0.83867057594974714 1 I I #
point $-1 -66.947608055526644 22.690050469061493 5.7557559877768831 #
plane-surface $-1 70.215765861995294 0 0 -1 0 0 0 0 1 forward_v I I I I #
coedge $-1 $329 $540 $454 $541 forward $322 $-1 #
coedge $-1 $452 $324 $540 $542 reversed $212 $-1 #
coedge $-1 $324 $451 $455 $543 forward $212 $-1 #
edge $-1 $456 -95.247762605137837 $544 -84.658970642753076 $324 $545 forward 7 unknown #
coedge $-1 $326 $325 $450 $541 reversed $133 $-1 #
coedge $-1 $332 $327 $452 $543 reversed $333 $-1 #
vertex $-1 $328 $546 #
straight-curve $-1 70.215765861995294 11.267913001201284 1.8893978609480513 0 1 0 I I #
coedge $-1 $540 $329 $332 $462 forward $322 $-1 #
vertex $-1 $330 $547 #
straight-curve $-1 31.642360924473337 15.38911396376994 9.1109367001959214 1 0 0 I I #
straight-curve $-1 -32.489353626559264 15.38911396376994 97.66347333645399 -0.7313536940579346 0 0.68199836817093118 I I #
edge $-1 $334 15.38911396376994 $548 29.682538041035198 $332 $549 forward 7 unknown #
point $-1 70.215765861995294 15.38911396376994 9.1109367001959214 #
point $-1 70.21576586199528 15.38911396376994 1.8893978609480513 #
edge $-1 $550 1 $550 0 $337 $-1 forward 7 unknown #
vertex $-1 $338 $551 #
ellipse-curve $-1 65.387951314375954 18.247798779222993 4.4752632528170464 0.68199836817093118 0 0.7313536940579346 0.7313536940579346 0 -0.68199836817093118 1 I I #
point $-1 67.075043497402703 18.247798779222993 4.8181689124010596 #
edge $-1 $552 1 $552 0 $341 $-1 forward 7 unknown #
vertex $-1 $342 $553 #
ellipse-curve $-1 65.387951314375954 22.535826002402569 4.4752632528170464 0.68199836817093118 0 0.7313536940579346 0.7313536940579346 0 -0.68199836817093118 1 I I #
point $-1 67.075043497402703 22.535826002402569 4.8181689124010596 #
edge $-1 $554 1 $554 0 $345 $-1 forward 7 unknown #
vertex $-1 $346 $555 #
ellipse-curve $-1 65.387951314375954 26.823853225582145 4.4752632528170464 0.68199836817093118 0 0.7313536940579346 0.7313536940579346 0 -0.68199836817093118 1 I I #
point $-1 67.075043497402703 26.823853225582145 4.8181689124010596 #
plane-surface $-1 70.215765861995294 0 0 -1 0 0 0 0 1 forward_v I I I I #
coedge $-1 $354 $352 $356 $482 reversed $241 $-1 #
edge $-1 $367 -9.1109367001959214 $484 9.1109367001959214 $366 $556 forward 7 unknown #
vertex $-1 $482 $557 #
straight-curve $-1 -70.215765861995294 -29.682538041035198 0 0 0 -1 I I #
edge $-1 $480 -29.682538041035198 $484 29.682538041035198 $478 $558 forward 7 unknown #
straight-curve $-1 0 -29.682538041035198 -9.1109367001959214 -1 0 0 I I #
vertex $-1 $359 $559 #
straight-curve $-1 0 29.682538041035198 -9.1109367001959214 1 0 0 I I #
point $-1 70.215765861995294 29.682538041035198 -9.1109367001959214 #
point $-1 70.215765861995294 -29.682538041035198 -9.1109367001959214 #
straight-curve $-1 -70.215765861995294 0 9.1109367001959214 0 -1 0 I I #
point $-1 -70.215765861995294 29.682538041035198 9.1109367001959214 #
point $-1 -70.215765861995294 -29.682538041035198 9.1109367001959214 #
straight-curve $-1 70.215765861995294 -29.682538041035198 0 0 0 -1 I I #
straight-curve $-1 70.215765861995294 29.682538041035198 0 0 0 -1 I I #
loop $-1 $-1 $501 $376 #
plane-surface $-1 -70.215765861995294 0 0 1 0 0 0 0 -1 forward_v I I I I #
coedge $-1 $380 $379 $507 $560 forward $160 $-1 #
edge $-1 $384 20.0111426272214 $510 29.682538041035198 $383 $561 forward 7 unknown #
coedge $-1 $504 $501 $380 $498 reversed $493 $-1 #
edge $-1 $562 -29.682538041035198 $499 -20.0111426272214 $497 $563 forward 7 unknown #
vertex $-1 $502 $564 #
straight-curve $-1 0 -20.0111426272214 -9.1109367001959214 1 0 0 I I #
coedge $-1 $497 $386 $382 $502 forward $493 $-1 #
edge $-1 $388 2.2960300103367053 $499 5.3086144633517129 $501 $565 forward 7 unknown #
point $-1 70.215765861995294 -20.0111426272214 -9.1109367001959214 #
coedge $-1 $386 $497 $390 $508 reversed $493 $-1 #
straight-curve $-1 -70.215765861995294 -12.423420167064149 -6.0983522471809142 0 1 0 I I #
point $-1 -70.215765861995294 -20.0111426272214 -6.0983522471809142 #
coedge $-1 $391 $390 $495 $560 reversed $377 $-1 #
edge $-1 $392 6.0983522471809142 $562 9.1109367001959214 $504 $566 forward 7 unknown #
point $-1 -70.215765861995294 -29.682538041035198 -6.0983522471809142 #
vertex $-1 $394 $567 #
straight-curve $-1 70.215765861995294 -29.682538041035198 0 0 0 -1 I I #
coedge $-1 $408 $407 $400 $513 forward $397 $-1 #
edge $-1 $514 29.492926458001634 $517 37.880629034739201 $512 $568 forward 7 unknown #
vertex $-1 $412 $569 #
straight-curve $-1 -93.995779727229831 -6.1098764062233526 9.1109367001959214 -1 0 0 I I #
edge $-1 $517 0.63686567595315768 $409 10.309155784587231 $408 $570 forward 7 unknown #
vertex $-1 $516 $571 #
straight-curve $-1 -70.215765861995294 -6.1098764062233526 0.72323412345835436 0.54463902268945019 0 0.83867057594974714 I I #
point $-1 -64.768728294436869 -6.1098764062233526 9.1109367001959214 #
point $-1 -70.215765861995294 -15.782166514857426 0.72323412345835436 #
straight-curve $-1 -70.215765861995294 0 9.1109367001959214 0 -1 0 I I #
vertex $-1 $415 $572 #
point $-1 -64.43855816112746 -13.018655055247692 4.1263599870681178 #
vertex $-1 $419 $573 #
point $-1 -64.43855816112746 -8.873387865833088 4.1263599870681178 #
coedge $-1 $434 $433 $426 $527 forward $423 $-1 #
edge $-1 $528 29.492926458001634 $531 37.880629034739201 $526 $574 forward 7 unknown #
vertex $-1 $438 $575 #
straight-curve $-1 -93.995779727229831 25.453561928671224 9.1109367001959214 -1 0 0 I I #
edge $-1 $531 -15.14485349149413 $435 -5.4725633828600575 $434 $576 forward 7 unknown #
vertex $-1 $530 $577 #
straight-curve $-1 -70.215765861995294 25.453561928671224 0.72323412345835436 0.54463902268945019 0 0.83867057594974714 I I #
point $-1 -64.768728294436869 25.453561928671224 9.1109367001959214 #
point $-1 -70.215765861995294 15.781271820037151 0.72323412345835436 #
straight-curve $-1 -70.215765861995294 0 9.1109367001959214 0 -1 0 I I #
vertex $-1 $441 $578 #
point $-1 -64.43855816112746 18.544783279646882 4.1263599870681178 #
vertex $-1 $445 $579 #
point $-1 -64.43855816112746 22.690050469061493 4.1263599870681178 #
coedge $-1 $450 $458 $451 $542 forward $322 $-1 #
edge $-1 $544 -18.414625039833915 $459 -4.1212009625686559 $450 $580 forward 7 unknown #
edge $-1 $548 -70.215765861995294 $544 -62.471613744694238 $451 $581 forward 7 unknown #
edge $-1 $548 -9.1109367001959214 $456 -1.889397860948036 $455 $582 forward 7 unknown #
vertex $-1 $541 $583 #
straight-curve $-1 0.55596282997453628 29.682538041035198 66.848216529584278 -0.7313536940579346 0 0.68199836817093118 I I #
point $-1 70.215765861995294 29.682538041035198 1.889397860948036 #
point $-1 62.471613744694238 15.38911396376994 9.1109367001959214 #
vertex $-1 $462 $584 #
straight-curve $-1 70.215765861995294 0 9.1109367001959214 0 1 0 I I #
vertex $-1 $465 $585 #
point $-1 66.119305008433898 18.247798779222993 3.7932648846461152 #
vertex $-1 $469 $586 #
point $-1 66.119305008433898 22.535826002402569 3.7932648846461152 #
vertex $-1 $473 $587 #
point $-1 66.119305008433898 26.823853225582145 3.7932648846461152 #
straight-curve $-1 -70.215765861995294 29.682538041035198 0 0 0 -1 I I #
point $-1 -70.215765861995294 -29.682538041035198 -9.1109367001959214 #
straight-curve $-1 -70.215765861995294 0 -9.1109367001959214 0 1 0 I I #
point $-1 -70.215765861995294 29.682538041035198 -9.1109367001959214 #
edge $-1 $510 -70.215765861995294 $562 70.215765861995294 $507 $588 forward 7 unknown #
straight-curve $-1 70.215765861995294 0 -9.1109367001959214 0 -1 0 I I #
vertex $-1 $498 $589 #
straight-curve $-1 -70.215765861995294 0 -9.1109367001959214 0 1 0 I I #
point $-1 -70.215765861995294 -20.0111426272214 -9.1109367001959214 #
straight-curve $-1 -70.215765861995294 -20.0111426272214 -3.8023222368442089 0 0 -1 I I #
straight-curve $-1 -70.215765861995294 -29.682538041035198 0 0 0 -1 I I #
point $-1 70.215765861995294 -29.682538041035198 -9.1109367001959214 #
straight-curve $-1 -70.215765861995294 -6.1098764062233526 38.603863158197555 0 0 -1 I I #
point $-1 -70.215765861995294 -6.1098764062233526 9.1109367001959214 #
straight-curve $-1 -70.215765861995294 -5.4730107302701949 0.72323412345835714 0 -1 0 I I #
point $-1 -70.215765861995294 -6.1098764062233526 0.72323412345835436 #
point $-1 -64.144526607867164 -13.018655055247692 2.7430503884289203 #
point $-1 -64.144526607867164 -8.873387865833088 2.7430503884289203 #
straight-curve $-1 -70.215765861995294 25.453561928671224 38.603863158197555 0 0 -1 I I #
point $-1 -70.215765861995294 25.453561928671224 9.1109367001959214 #
straight-curve $-1 -70.215765861995294 10.308708437177094 0.72323412345835714 0 -1 0 I I #
point $-1 -70.215765861995294 25.453561928671224 0.72323412345835436 #
point $-1 -64.144526607867164 18.544783279646882 2.7430503884289203 #
point $-1 -64.144526607867164 22.690050469061493 2.7430503884289203 #
straight-curve $-1 62.471613744694238 11.267913001201284 9.1109367001959143 0 -1 0 I I #
straight-curve $-1 0 29.682538041035198 9.1109367001959214 -1 0 0 I I #
straight-curve $-1 70.215765861995294 29.682538041035198 0 0 0 -1 I I #
point $-1 62.471613744694238 29.682538041035198 9.1109367001959214 #
point $-1 70.215765861995294 29.682538041035198 9.1109367001959214 #
point $-1 64.705952946205031 18.247798779222993 3.7439095587591114 #
point $-1 64.705952946205031 22.535826002402569 3.7439095587591114 #
point $-1 64.705952946205031 26.823853225582145 3.7439095587591114 #
straight-curve $-1 0 -29.682538041035198 -9.1109367001959214 -1 0 0 I I #
point $-1 -70.215765861995294 -29.682538041035198 -9.1109367001959214 #
End-of-ACIS-data 