500 0 18 0           
7 Unknown 11 ACIS 5.0 NT 24 Thu Mar 25 22:20:37 1999 
-1 9.9999999999999995e-007 1e-010 
body $-1 $18 $-1 $19 #
body $-1 $20 $-1 $21 #
body $-1 $22 $-1 $23 #
body $-1 $24 $-1 $25 #
body $-1 $26 $-1 $27 #
body $-1 $28 $-1 $29 #
body $-1 $30 $-1 $31 #
body $-1 $32 $-1 $33 #
body $-1 $34 $-1 $35 #
body $-1 $36 $-1 $37 #
body $-1 $38 $-1 $39 #
body $-1 $40 $-1 $41 #
body $-1 $42 $-1 $43 #
body $-1 $44 $-1 $45 #
body $-1 $46 $-1 $47 #
body $-1 $48 $-1 $49 #
body $-1 $50 $-1 $51 #
body $-1 $52 $-1 $53 #
lump $-1 $-1 $54 $0 #
transform $-1 1 0 0 0 1 0 0 0 1 66.114078188421274 26.768262004526768 11.614421050775414 1 rotate no_reflect no_shear #
lump $-1 $-1 $55 $1 #
transform $-1 1 0 0 0 1 0 0 0 1 66.114078188421274 26.768262004526768 11.614421050775414 1 rotate no_reflect no_shear #
lump $-1 $-1 $56 $2 #
transform $-1 1 0 0 0 1 0 0 0 1 66.114078188421274 26.768262004526768 11.614421050775414 1 rotate no_reflect no_shear #
lump $-1 $-1 $57 $3 #
transform $-1 1 0 0 0 1 0 0 0 1 66.114078188421274 26.768262004526768 11.614421050775414 1 rotate no_reflect no_shear #
lump $-1 $-1 $58 $4 #
transform $-1 1 0 0 0 1 0 0 0 1 66.114078188421274 26.768262004526768 11.614421050775414 1 rotate no_reflect no_shear #
lump $-1 $-1 $59 $5 #
transform $-1 1 0 0 0 1 0 0 0 1 66.114078188421274 26.768262004526768 11.614421050775414 1 rotate no_reflect no_shear #
lump $-1 $-1 $60 $6 #
transform $-1 1 0 0 0 1 0 0 0 1 66.114078188421274 26.768262004526768 11.614421050775414 1 rotate no_reflect no_shear #
lump $-1 $-1 $61 $7 #
transform $-1 1 0 0 0 1 0 0 0 1 66.114078188421274 26.768262004526768 11.614421050775414 1 rotate no_reflect no_shear #
lump $-1 $-1 $62 $8 #
transform $-1 1 0 0 0 1 0 0 0 1 66.114078188421274 26.768262004526768 11.614421050775414 1 rotate no_reflect no_shear #
lump $-1 $-1 $63 $9 #
transform $-1 1 0 0 0 1 0 0 0 1 66.114078188421274 26.768262004526768 11.614421050775414 1 rotate no_reflect no_shear #
lump $-1 $-1 $64 $10 #
transform $-1 1 0 0 0 1 0 0 0 1 66.114078188421274 26.768262004526768 11.614421050775414 1 rotate no_reflect no_shear #
lump $-1 $-1 $65 $11 #
transform $-1 1 0 0 0 1 0 0 0 1 66.114078188421274 26.768262004526768 11.614421050775414 1 rotate no_reflect no_shear #
lump $-1 $-1 $66 $12 #
transform $-1 1 0 0 0 1 0 0 0 1 66.114078188421274 26.768262004526768 11.614421050775414 1 rotate no_reflect no_shear #
lump $-1 $-1 $67 $13 #
transform $-1 1 0 0 0 1 0 0 0 1 66.114078188421274 26.768262004526768 11.614421050775414 1 rotate no_reflect no_shear #
lump $-1 $-1 $68 $14 #
transform $-1 1 0 0 0 1 0 0 0 1 66.114078188421274 26.768262004526768 11.614421050775414 1 rotate no_reflect no_shear #
lump $-1 $-1 $69 $15 #
transform $-1 1 0 0 0 1 0 0 0 1 66.114078188421274 26.768262004526768 11.614421050775414 1 rotate no_reflect no_shear #
lump $-1 $-1 $70 $16 #
transform $-1 1 0 0 0 1 0 0 0 1 66.114078188421274 26.768262004526768 11.614421050775414 1 rotate no_reflect no_shear #
lump $-1 $-1 $71 $17 #
transform $-1 1 0 0 0 1 0 0 0 1 66.114078188421274 26.768262004526768 11.614421050775414 1 rotate no_reflect no_shear #
shell $-1 $-1 $-1 $72 $-1 $18 #
shell $-1 $-1 $-1 $73 $-1 $20 #
shell $-1 $-1 $-1 $74 $-1 $22 #
shell $-1 $-1 $-1 $75 $-1 $24 #
shell $-1 $-1 $-1 $76 $-1 $26 #
shell $-1 $-1 $-1 $77 $-1 $28 #
shell $-1 $-1 $-1 $78 $-1 $30 #
shell $-1 $-1 $-1 $79 $-1 $32 #
shell $-1 $-1 $-1 $80 $-1 $34 #
shell $-1 $-1 $-1 $81 $-1 $36 #
shell $-1 $-1 $-1 $82 $-1 $38 #
shell $-1 $-1 $-1 $83 $-1 $40 #
shell $-1 $-1 $-1 $84 $-1 $42 #
shell $-1 $-1 $-1 $85 $-1 $44 #
shell $-1 $-1 $-1 $86 $-1 $46 #
shell $-1 $-1 $-1 $87 $-1 $48 #
shell $-1 $-1 $-1 $88 $-1 $50 #
shell $-1 $-1 $-1 $89 $-1 $52 #
face $-1 $90 $91 $54 $-1 $92 forward single #
face $-1 $93 $94 $55 $-1 $95 forward single #
face $-1 $96 $97 $56 $-1 $98 reversed single #
face $-1 $99 $100 $57 $-1 $101 forward single #
face $-1 $102 $103 $58 $-1 $104 forward single #
face $-1 $105 $106 $59 $-1 $107 forward single #
face $-1 $108 $109 $60 $-1 $110 reversed single #
face $-1 $111 $112 $61 $-1 $113 forward single #
face $-1 $114 $115 $62 $-1 $116 forward single #
face $-1 $117 $118 $63 $-1 $119 forward single #
face $-1 $120 $121 $64 $-1 $122 reversed single #
face $-1 $123 $124 $65 $-1 $125 forward single #
face $-1 $126 $127 $66 $-1 $128 forward single #
face $-1 $129 $130 $67 $-1 $131 forward single #
face $-1 $132 $133 $68 $-1 $134 reversed single #
face $-1 $135 $136 $69 $-1 $137 forward single #
face $-1 $138 $139 $70 $-1 $140 forward single #
face $-1 $141 $142 $71 $-1 $143 forward single #
face $-1 $144 $145 $54 $-1 $146 reversed single #
loop $-1 $-1 $147 $72 #
plane-surface $-1 0 0 11.614421050775414 0 0 1 1 0 0 forward_v I I I I #
face $-1 $148 $149 $55 $-1 $150 reversed single #
loop $-1 $-1 $151 $73 #
plane-surface $-1 0 -26.768262004526768 0 0 1 0 0 0 1 forward_v I I I I #
face $-1 $152 $153 $56 $-1 $154 reversed single #
loop $-1 $-1 $155 $74 #
plane-surface $-1 101.79514393997579 -0.87118020968748766 191.55687178182697 0 -1 0 -0.82903758062907751 0 -0.55919289150049634 forward_v I I I I #
face $-1 $156 $157 $57 $-1 $158 forward single #
loop $-1 $159 $160 $75 #
cone-surface $-1 64.478461180587971 -8.592015093645923 9.5244719926273333 -0.82903758062907751 0 -0.55919289150049634 0.13979822287512408 0 -0.20725939515726938 1 I I 0 1 0.25 forward I I I I #
face $-1 $161 $162 $58 $-1 $163 forward single #
loop $-1 $164 $165 $76 #
cone-surface $-1 64.478461180587971 -5.6967020121615093 9.5244719926273333 -0.82903758062907751 0 -0.55919289150049634 0.13979822287512408 0 -0.20725939515726938 1 I I 0 1 0.25 forward I I I I #
face $-1 $166 $167 $59 $-1 $168 forward single #
loop $-1 $169 $170 $77 #
cone-surface $-1 64.478461180587971 -2.8013889306770956 9.5244719926273333 -0.82903758062907751 0 -0.55919289150049634 0.13979822287512408 0 -0.20725939515726938 1 I I 0 1 0.25 forward I I I I #
face $-1 $171 $172 $60 $-1 $173 reversed single #
loop $-1 $-1 $174 $78 #
plane-surface $-1 101.79514393997579 19.683864541694987 191.55687178182697 0 -1 0 -0.82903758062907751 0 -0.55919289150049634 forward_v I I I I #
face $-1 $175 $176 $61 $-1 $177 forward single #
loop $-1 $178 $179 $79 #
cone-surface $-1 64.478461180587971 11.963029657736548 9.5244719926273333 -0.82903758062907751 0 -0.55919289150049634 0.13979822287512408 0 -0.20725939515726938 1 I I 0 1 0.25 forward I I I I #
face $-1 $180 $181 $62 $-1 $182 forward single #
loop $-1 $183 $184 $80 #
cone-surface $-1 64.478461180587971 14.858342739220966 9.5244719926273333 -0.82903758062907751 0 -0.55919289150049634 0.13979822287512408 0 -0.20725939515726938 1 I I 0 1 0.25 forward I I I I #
face $-1 $185 $186 $63 $-1 $187 forward single #
loop $-1 $188 $189 $81 #
cone-surface $-1 64.478461180587971 17.753655820705376 9.5244719926273333 -0.82903758062907751 0 -0.55919289150049634 0.13979822287512408 0 -0.20725939515726938 1 I I 0 1 0.25 forward I I I I #
face $-1 $190 $191 $64 $-1 $192 reversed single #
loop $-1 $-1 $193 $82 #
plane-surface $-1 -177.00994225376104 -7.237742912993026 75.09279845888112 0 1 0 -0.83867057594974714 0 0.54463902268945019 forward_v I I I I #
face $-1 $194 $195 $65 $-1 $196 forward single #
loop $-1 $197 $198 $83 #
cone-surface $-1 -62.922345197098892 -5.69652803260783 7.0729833129278843 0.83867057594974714 0 -0.54463902268945019 0.13615975567236255 0 0.20966764398743679 1 I I 0 1 0.25 forward I I I I #
face $-1 $199 $200 $66 $-1 $201 forward single #
loop $-1 $202 $203 $84 #
cone-surface $-1 -62.922345197098892 -3.3847057120300335 7.0729833129278843 0.83867057594974714 0 -0.54463902268945019 0.13615975567236255 0 0.20966764398743679 1 I I 0 1 0.25 forward I I I I #
face $-1 $204 $205 $67 $-1 $206 forward single #
loop $-1 $207 $208 $85 #
cone-surface $-1 -62.922345197098892 -1.0728833914522369 7.0729833129278843 0.83867057594974714 0 -0.54463902268945019 0.13615975567236255 0 0.20966764398743679 1 I I 0 1 0.25 forward I I I I #
face $-1 $209 $210 $68 $-1 $211 reversed single #
loop $-1 $-1 $212 $86 #
plane-surface $-1 -177.00994225376104 11.958103017355649 75.09279845888112 0 1 0 -0.83867057594974714 0 0.54463902268945019 forward_v I I I I #
face $-1 $213 $214 $69 $-1 $215 forward single #
loop $-1 $216 $217 $87 #
cone-surface $-1 -62.922345197098892 13.499317897740845 7.0729833129278843 0.83867057594974714 0 -0.54463902268945019 0.13615975567236255 0 0.20966764398743679 1 I I 0 1 0.25 forward I I I I #
face $-1 $218 $219 $70 $-1 $220 forward single #
loop $-1 $221 $222 $88 #
cone-surface $-1 -62.922345197098892 15.811140218318641 7.0729833129278843 0.83867057594974714 0 -0.54463902268945019 0.13615975567236255 0 0.20966764398743679 1 I I 0 1 0.25 forward I I I I #
face $-1 $223 $224 $71 $-1 $225 forward single #
loop $-1 $226 $227 $89 #
cone-surface $-1 -62.922345197098892 18.122962538896438 7.0729833129278843 0.83867057594974714 0 -0.54463902268945019 0.13615975567236255 0 0.20966764398743679 1 I I 0 1 0.25 forward I I I I #
face $-1 $228 $229 $54 $-1 $230 reversed single #
loop $-1 $-1 $231 $90 #
plane-surface $-1 0 0 -11.614421050775414 0 0 1 1 0 0 forward_v I I I I #
coedge $-1 $232 $233 $234 $235 forward $91 $-1 #
face $-1 $236 $237 $55 $-1 $238 reversed single #
loop $-1 $-1 $239 $93 #
plane-surface $-1 0 0 -11.614421050775414 0 0 1 1 0 0 forward_v I I I I #
coedge $-1 $240 $241 $242 $243 forward $94 $-1 #
face $-1 $244 $245 $56 $-1 $246 reversed single #
loop $-1 $-1 $247 $96 #
plane-surface $-1 -7.8269669137250872 -5.6967020121615093 117.61582667968059 0.82903758062907751 0 0.55919289150049634 0.55919289150049634 0 -0.82903758062907751 forward_v I I I I #
coedge $-1 $248 $249 $250 $251 reversed $97 $-1 #
face $-1 $-1 $252 $57 $-1 $253 forward single #
loop $-1 $254 $255 $99 #
cone-surface $-1 63.960312692694799 -8.592015093645923 9.1749764354395236 -0.82903758062907751 0 -0.55919289150049634 0.069899111437562042 0 -0.10362969757863469 1 I I -0.70710678118654746 0.70710678118654746 0.125 forward I I I I #
loop $-1 $-1 $256 $75 #
coedge $-1 $160 $160 $257 $258 reversed $100 $-1 #
face $-1 $-1 $259 $58 $-1 $260 forward single #
loop $-1 $261 $262 $102 #
cone-surface $-1 63.960312692694799 -5.6967020121615093 9.1749764354395236 -0.82903758062907751 0 -0.55919289150049634 0.069899111437562042 0 -0.10362969757863469 1 I I -0.70710678118654746 0.70710678118654746 0.125 forward I I I I #
loop $-1 $-1 $263 $76 #
coedge $-1 $165 $165 $264 $265 reversed $103 $-1 #
face $-1 $-1 $266 $59 $-1 $267 forward single #
loop $-1 $268 $269 $105 #
cone-surface $-1 63.960312692694799 -2.8013889306770956 9.1749764354395236 -0.82903758062907751 0 -0.55919289150049634 0.069899111437562042 0 -0.10362969757863469 1 I I -0.70710678118654746 0.70710678118654746 0.125 forward I I I I #
loop $-1 $-1 $270 $77 #
coedge $-1 $170 $170 $271 $272 reversed $106 $-1 #
face $-1 $273 $274 $60 $-1 $275 reversed single #
loop $-1 $-1 $276 $108 #
plane-surface $-1 -7.8269669137250872 14.858342739220966 117.61582667968059 0.82903758062907751 0 0.55919289150049634 0.55919289150049634 0 -0.82903758062907751 forward_v I I I I #
coedge $-1 $277 $278 $279 $280 reversed $109 $-1 #
face $-1 $-1 $281 $61 $-1 $282 forward single #
loop $-1 $283 $284 $111 #
cone-surface $-1 63.960312692694799 11.963029657736548 9.1749764354395236 -0.82903758062907751 0 -0.55919289150049634 0.069899111437562042 0 -0.10362969757863469 1 I I -0.70710678118654746 0.70710678118654746 0.125 forward I I I I #
loop $-1 $-1 $285 $79 #
coedge $-1 $179 $179 $286 $287 reversed $112 $-1 #
face $-1 $-1 $288 $62 $-1 $289 forward single #
loop $-1 $290 $291 $114 #
cone-surface $-1 63.960312692694799 14.858342739220966 9.1749764354395236 -0.82903758062907751 0 -0.55919289150049634 0.069899111437562042 0 -0.10362969757863469 1 I I -0.70710678118654746 0.70710678118654746 0.125 forward I I I I #
loop $-1 $-1 $292 $80 #
coedge $-1 $184 $184 $293 $294 reversed $115 $-1 #
face $-1 $-1 $295 $63 $-1 $296 forward single #
loop $-1 $297 $298 $117 #
cone-surface $-1 63.960312692694799 17.753655820705376 9.1749764354395236 -0.82903758062907751 0 -0.55919289150049634 0.069899111437562042 0 -0.10362969757863469 1 I I -0.70710678118654746 0.70710678118654746 0.125 forward I I I I #
loop $-1 $-1 $299 $81 #
coedge $-1 $189 $189 $300 $301 reversed $118 $-1 #
face $-1 $302 $303 $64 $-1 $304 reversed single #
loop $-1 $-1 $305 $120 #
plane-surface $-1 -66.114078188421274 -3.3847057120300335 3.0761845977698101 -0.83867057594974714 0 0.54463902268945019 0.54463902268945019 0 0.83867057594974714 forward_v I I I I #
coedge $-1 $306 $307 $308 $309 reversed $121 $-1 #
face $-1 $-1 $310 $65 $-1 $311 forward single #
loop $-1 $312 $313 $123 #
cone-surface $-1 -62.398176087130302 -5.69652803260783 6.7325839237469776 0.83867057594974714 0 -0.54463902268945019 0.068079877836181274 0 0.10483382199371839 1 I I -0.70710678118654746 0.70710678118654746 0.125 forward I I I I #
loop $-1 $-1 $314 $83 #
coedge $-1 $198 $198 $315 $316 reversed $124 $-1 #
face $-1 $-1 $317 $66 $-1 $318 forward single #
loop $-1 $319 $320 $126 #
cone-surface $-1 -62.398176087130302 -3.3847057120300335 6.7325839237469776 0.83867057594974714 0 -0.54463902268945019 0.068079877836181274 0 0.10483382199371839 1 I I -0.70710678118654746 0.70710678118654746 0.125 forward I I I I #
loop $-1 $-1 $321 $84 #
coedge $-1 $203 $203 $322 $323 reversed $127 $-1 #
face $-1 $-1 $324 $67 $-1 $325 forward single #
loop $-1 $326 $327 $129 #
cone-surface $-1 -62.398176087130302 -1.0728833914522369 6.7325839237469776 0.83867057594974714 0 -0.54463902268945019 0.068079877836181274 0 0.10483382199371839 1 I I -0.70710678118654746 0.70710678118654746 0.125 forward I I I I #
loop $-1 $-1 $328 $85 #
coedge $-1 $208 $208 $329 $330 reversed $130 $-1 #
face $-1 $331 $332 $68 $-1 $333 reversed single #
loop $-1 $-1 $334 $132 #
plane-surface $-1 -66.114078188421274 15.811140218318641 3.0761845977698101 -0.83867057594974714 0 0.54463902268945019 0.54463902268945019 0 0.83867057594974714 forward_v I I I I #
coedge $-1 $335 $336 $337 $338 reversed $133 $-1 #
face $-1 $-1 $339 $69 $-1 $340 forward single #
loop $-1 $341 $342 $135 #
cone-surface $-1 -62.398176087130302 13.499317897740845 6.7325839237469776 0.83867057594974714 0 -0.54463902268945019 0.068079877836181274 0 0.10483382199371839 1 I I -0.70710678118654746 0.70710678118654746 0.125 forward I I I I #
loop $-1 $-1 $343 $87 #
coedge $-1 $217 $217 $344 $345 reversed $136 $-1 #
face $-1 $-1 $346 $70 $-1 $347 forward single #
loop $-1 $348 $349 $138 #
cone-surface $-1 -62.398176087130302 15.811140218318641 6.7325839237469776 0.83867057594974714 0 -0.54463902268945019 0.068079877836181274 0 0.10483382199371839 1 I I -0.70710678118654746 0.70710678118654746 0.125 forward I I I I #
loop $-1 $-1 $350 $88 #
coedge $-1 $222 $222 $351 $352 reversed $139 $-1 #
face $-1 $-1 $353 $71 $-1 $354 forward single #
loop $-1 $355 $356 $141 #
cone-surface $-1 -62.398176087130302 18.122962538896438 6.7325839237469776 0.83867057594974714 0 -0.54463902268945019 0.068079877836181274 0 0.10483382199371839 1 I I -0.70710678118654746 0.70710678118654746 0.125 forward I I I I #
loop $-1 $-1 $357 $89 #
coedge $-1 $227 $227 $358 $359 reversed $142 $-1 #
face $-1 $360 $361 $54 $-1 $362 reversed single #
loop $-1 $-1 $363 $144 #
plane-surface $-1 0 -26.768262004526768 0 0 1 0 0 0 1 forward_v I I I I #
coedge $-1 $364 $365 $366 $367 forward $145 $-1 #
coedge $-1 $368 $147 $369 $370 forward $91 $-1 #
coedge $-1 $147 $368 $371 $372 forward $91 $-1 #
coedge $-1 $373 $374 $147 $235 reversed $375 $-1 #
edge $-1 $376 -26.768262004526768 $377 26.768262004526768 $234 $378 forward 7 unknown #
face $-1 $379 $380 $55 $-1 $381 forward single #
loop $-1 $-1 $382 $148 #
plane-surface $-1 66.114078188421274 0 0 -1 0 0 0 0 1 forward_v I I I I #
coedge $-1 $383 $384 $385 $386 forward $149 $-1 #
coedge $-1 $385 $151 $382 $387 reversed $94 $-1 #
coedge $-1 $151 $385 $388 $389 reversed $94 $-1 #
coedge $-1 $390 $391 $151 $243 reversed $380 $-1 #
edge $-1 $392 -66.114078188421274 $393 66.114078188421274 $242 $394 forward 7 unknown #
face $-1 $395 $396 $56 $-1 $397 reversed single #
loop $-1 $-1 $398 $152 #
plane-surface $-1 101.79514393997579 -10.522223814635531 191.55687178182697 0 1 0 0.82903758062907751 0 0.55919289150049634 forward_v I I I I #
coedge $-1 $399 $400 $401 $402 reversed $153 $-1 #
coedge $-1 $249 $155 $403 $404 reversed $97 $-1 #
coedge $-1 $155 $248 $399 $405 reversed $97 $-1 #
coedge $-1 $401 $406 $155 $251 forward $407 $-1 #
edge $-1 $408 -15.216506218433381 $409 -12.774309783395879 $250 $410 forward 7 unknown #
loop $-1 $-1 $257 $156 #
plane-surface $-1 -7.8269669137250872 -5.6967020121615093 117.61582667968059 0.82903758062907751 0 0.55919289150049634 0.55919289150049634 0 -0.82903758062907751 forward_v I I I I #
loop $-1 $-1 $411 $99 #
coedge $-1 $255 $255 $256 $412 reversed $157 $-1 #
coedge $-1 $256 $256 $255 $412 forward $159 $-1 #
coedge $-1 $257 $257 $160 $258 forward $252 $-1 #
edge $-1 $413 0 $413 6.2831853071796004 $257 $414 forward 7 unknown #
loop $-1 $-1 $264 $161 #
plane-surface $-1 -7.8269669137250872 -5.6967020121615093 117.61582667968059 0.82903758062907751 0 0.55919289150049634 0.55919289150049634 0 -0.82903758062907751 forward_v I I I I #
loop $-1 $-1 $415 $102 #
coedge $-1 $262 $262 $263 $416 reversed $162 $-1 #
coedge $-1 $263 $263 $262 $416 forward $164 $-1 #
coedge $-1 $264 $264 $165 $265 forward $259 $-1 #
edge $-1 $417 0 $417 6.2831853071796004 $264 $418 forward 7 unknown #
loop $-1 $-1 $271 $166 #
plane-surface $-1 -7.8269669137250872 -5.6967020121615093 117.61582667968059 0.82903758062907751 0 0.55919289150049634 0.55919289150049634 0 -0.82903758062907751 forward_v I I I I #
loop $-1 $-1 $419 $105 #
coedge $-1 $269 $269 $270 $420 reversed $167 $-1 #
coedge $-1 $270 $270 $269 $420 forward $169 $-1 #
coedge $-1 $271 $271 $170 $272 forward $266 $-1 #
edge $-1 $421 0 $421 6.2831853071796004 $271 $422 forward 7 unknown #
face $-1 $423 $424 $60 $-1 $425 reversed single #
loop $-1 $-1 $426 $171 #
plane-surface $-1 101.79514393997579 10.032820936746944 191.55687178182697 0 1 0 0.82903758062907751 0 0.55919289150049634 forward_v I I I I #
coedge $-1 $427 $428 $429 $430 reversed $172 $-1 #
coedge $-1 $278 $174 $431 $432 reversed $109 $-1 #
coedge $-1 $174 $277 $427 $433 reversed $109 $-1 #
coedge $-1 $429 $434 $174 $280 forward $435 $-1 #
edge $-1 $436 -15.216506218433381 $437 -12.774309783395879 $279 $438 forward 7 unknown #
loop $-1 $-1 $286 $175 #
plane-surface $-1 -7.8269669137250872 14.858342739220966 117.61582667968059 0.82903758062907751 0 0.55919289150049634 0.55919289150049634 0 -0.82903758062907751 forward_v I I I I #
loop $-1 $-1 $439 $111 #
coedge $-1 $284 $284 $285 $440 reversed $176 $-1 #
coedge $-1 $285 $285 $284 $440 forward $178 $-1 #
coedge $-1 $286 $286 $179 $287 forward $281 $-1 #
edge $-1 $441 0 $441 6.2831853071796004 $286 $442 forward 7 unknown #
loop $-1 $-1 $293 $180 #
plane-surface $-1 -7.8269669137250872 14.858342739220966 117.61582667968059 0.82903758062907751 0 0.55919289150049634 0.55919289150049634 0 -0.82903758062907751 forward_v I I I I #
loop $-1 $-1 $443 $114 #
coedge $-1 $291 $291 $292 $444 reversed $181 $-1 #
coedge $-1 $292 $292 $291 $444 forward $183 $-1 #
coedge $-1 $293 $293 $184 $294 forward $288 $-1 #
edge $-1 $445 0 $445 6.2831853071796004 $293 $446 forward 7 unknown #
loop $-1 $-1 $300 $185 #
plane-surface $-1 -7.8269669137250872 14.858342739220966 117.61582667968059 0.82903758062907751 0 0.55919289150049634 0.55919289150049634 0 -0.82903758062907751 forward_v I I I I #
loop $-1 $-1 $447 $117 #
coedge $-1 $298 $298 $299 $448 reversed $186 $-1 #
coedge $-1 $299 $299 $298 $448 forward $188 $-1 #
coedge $-1 $300 $300 $189 $301 forward $295 $-1 #
edge $-1 $449 0 $449 6.2831853071796004 $300 $450 forward 7 unknown #
face $-1 $451 $452 $64 $-1 $453 forward single #
loop $-1 $-1 $454 $190 #
plane-surface $-1 -177.00994225376104 0.46833148893295906 75.09279845888112 0 -1 0 0.83867057594974714 0 -0.54463902268945019 forward_v I I I I #
coedge $-1 $455 $456 $457 $458 reversed $191 $-1 #
coedge $-1 $307 $193 $459 $460 reversed $121 $-1 #
coedge $-1 $193 $306 $455 $461 reversed $121 $-1 #
coedge $-1 $457 $462 $193 $309 forward $452 $-1 #
edge $-1 $463 22.390892938459245 $464 27.935688345154247 $308 $465 forward 7 unknown #
loop $-1 $-1 $315 $194 #
plane-surface $-1 -66.114078188421274 -3.3847057120300335 3.0761845977698101 -0.83867057594974714 0 0.54463902268945019 0.54463902268945019 0 0.83867057594974714 forward_v I I I I #
loop $-1 $-1 $466 $123 #
coedge $-1 $313 $313 $314 $467 reversed $195 $-1 #
coedge $-1 $314 $314 $313 $467 forward $197 $-1 #
coedge $-1 $315 $315 $198 $316 forward $310 $-1 #
edge $-1 $468 0 $468 6.2831853071796004 $315 $469 forward 7 unknown #
loop $-1 $-1 $322 $199 #
plane-surface $-1 -66.114078188421274 -3.3847057120300335 3.0761845977698101 -0.83867057594974714 0 0.54463902268945019 0.54463902268945019 0 0.83867057594974714 forward_v I I I I #
loop $-1 $-1 $470 $126 #
coedge $-1 $320 $320 $321 $471 reversed $200 $-1 #
coedge $-1 $321 $321 $320 $471 forward $202 $-1 #
coedge $-1 $322 $322 $203 $323 forward $317 $-1 #
edge $-1 $472 0 $472 6.2831853071796004 $322 $473 forward 7 unknown #
loop $-1 $-1 $329 $204 #
plane-surface $-1 -66.114078188421274 -3.3847057120300335 3.0761845977698101 -0.83867057594974714 0 0.54463902268945019 0.54463902268945019 0 0.83867057594974714 forward_v I I I I #
loop $-1 $-1 $474 $129 #
coedge $-1 $327 $327 $328 $475 reversed $205 $-1 #
coedge $-1 $328 $328 $327 $475 forward $207 $-1 #
coedge $-1 $329 $329 $208 $330 forward $324 $-1 #
edge $-1 $476 0 $476 6.2831853071796004 $329 $477 forward 7 unknown #
face $-1 $478 $479 $68 $-1 $480 forward single #
loop $-1 $-1 $481 $209 #
plane-surface $-1 -177.00994225376104 19.664177419281636 75.09279845888112 0 -1 0 0.83867057594974714 0 -0.54463902268945019 forward_v I I I I #
coedge $-1 $482 $483 $484 $485 reversed $210 $-1 #
coedge $-1 $336 $212 $486 $487 reversed $133 $-1 #
coedge $-1 $212 $335 $482 $488 reversed $133 $-1 #
coedge $-1 $484 $489 $212 $338 forward $479 $-1 #
edge $-1 $490 22.390892938459245 $491 27.935688345154247 $337 $492 forward 7 unknown #
loop $-1 $-1 $344 $213 #
plane-surface $-1 -66.114078188421274 15.811140218318641 3.0761845977698101 -0.83867057594974714 0 0.54463902268945019 0.54463902268945019 0 0.83867057594974714 forward_v I I I I #
loop $-1 $-1 $493 $135 #
coedge $-1 $342 $342 $343 $494 reversed $214 $-1 #
coedge $-1 $343 $343 $342 $494 forward $216 $-1 #
coedge $-1 $344 $344 $217 $345 forward $339 $-1 #
edge $-1 $495 0 $495 6.2831853071796004 $344 $496 forward 7 unknown #
loop $-1 $-1 $351 $218 #
plane-surface $-1 -66.114078188421274 15.811140218318641 3.0761845977698101 -0.83867057594974714 0 0.54463902268945019 0.54463902268945019 0 0.83867057594974714 forward_v I I I I #
loop $-1 $-1 $497 $138 #
coedge $-1 $349 $349 $350 $498 reversed $219 $-1 #
coedge $-1 $350 $350 $349 $498 forward $221 $-1 #
coedge $-1 $351 $351 $222 $352 forward $346 $-1 #
edge $-1 $499 0 $499 6.2831853071796004 $351 $500 forward 7 unknown #
loop $-1 $-1 $358 $223 #
plane-surface $-1 -66.114078188421274 15.811140218318641 3.0761845977698101 -0.83867057594974714 0 0.54463902268945019 0.54463902268945019 0 0.83867057594974714 forward_v I I I I #
loop $-1 $-1 $501 $141 #
coedge $-1 $356 $356 $357 $502 reversed $224 $-1 #
coedge $-1 $357 $357 $356 $502 forward $226 $-1 #
coedge $-1 $358 $358 $227 $359 forward $353 $-1 #
edge $-1 $503 0 $503 6.2831853071796004 $358 $504 forward 7 unknown #
face $-1 $505 $506 $54 $-1 $507 reversed single #
loop $-1 $-1 $508 $228 #
plane-surface $-1 -66.114078188421274 0 0 1 0 0 0 0 -1 forward_v I I I I #
coedge $-1 $509 $371 $510 $511 forward $229 $-1 #
coedge $-1 $512 $231 $509 $513 forward $145 $-1 #
coedge $-1 $231 $512 $514 $515 forward $145 $-1 #
coedge $-1 $374 $373 $231 $367 reversed $375 $-1 #
edge $-1 $516 -26.768262004526768 $517 26.768262004526768 $366 $518 forward 7 unknown #
coedge $-1 $233 $232 $519 $520 forward $91 $-1 #
coedge $-1 $521 $522 $232 $370 reversed $506 $-1 #
edge $-1 $377 -66.114078188421274 $523 66.114078188421274 $369 $524 forward 7 unknown #
coedge $-1 $363 $525 $233 $372 reversed $229 $-1 #
edge $-1 $526 -66.114078188421274 $376 66.114078188421274 $371 $527 forward 7 unknown #
coedge $-1 $366 $234 $525 $528 forward $375 $-1 #
coedge $-1 $234 $366 $521 $529 reversed $375 $-1 #
loop $-1 $-1 $373 $505 #
vertex $-1 $235 $530 #
vertex $-1 $235 $531 #
straight-curve $-1 66.114078188421274 0 11.614421050775414 0 1 0 I I #
face $-1 $532 $533 $55 $-1 $534 reversed single #
loop $-1 $-1 $391 $236 #
plane-surface $-1 0 -32.981479257671069 -5.2338798558229254 0 0 1 1 0 0 forward_v I I I I #
coedge $-1 $535 $536 $240 $387 forward $237 $-1 #
coedge $-1 $537 $239 $536 $538 forward $149 $-1 #
coedge $-1 $239 $537 $539 $540 forward $149 $-1 #
coedge $-1 $241 $240 $239 $386 reversed $94 $-1 #
edge $-1 $541 -66.114078188421274 $542 66.114078188421274 $239 $543 forward 7 unknown #
edge $-1 $542 -11.614421050775414 $393 -5.2338798558229254 $382 $544 forward 7 unknown #
coedge $-1 $539 $545 $241 $389 forward $546 $-1 #
edge $-1 $392 5.2338798558229254 $541 11.614421050775414 $388 $547 forward 7 unknown #
coedge $-1 $548 $242 $545 $549 forward $380 $-1 #
coedge $-1 $242 $548 $535 $550 forward $380 $-1 #
vertex $-1 $389 $551 #
vertex $-1 $550 $552 #
straight-curve $-1 0 -26.768262004526768 -5.2338798558229254 1 0 0 I I #
face $-1 $-1 $407 $56 $-1 $553 forward single #
loop $-1 $-1 $554 $244 #
plane-surface $-1 66.114078188421274 0 0 -1 0 0 0 0 1 forward_v I I I I #
coedge $-1 $555 $556 $557 $558 reversed $245 $-1 #
coedge $-1 $559 $247 $249 $405 forward $153 $-1 #
coedge $-1 $247 $559 $555 $560 forward $153 $-1 #
coedge $-1 $557 $250 $247 $402 forward $407 $-1 #
edge $-1 $409 -1.977170796393267 $561 7.6738728085547763 $401 $562 forward 7 unknown #
coedge $-1 $563 $564 $248 $404 forward $396 $-1 #
edge $-1 $565 -87.784720064933737 $408 -84.164014840138066 $403 $566 forward 7 unknown #
edge $-1 $409 127.86079679098603 $565 132.22815637684252 $249 $567 forward 7 unknown #
coedge $-1 $250 $557 $563 $568 forward $407 $-1 #
loop $-1 $-1 $557 $395 #
vertex $-1 $404 $569 #
vertex $-1 $251 $570 #
straight-curve $-1 50.897571969987894 -0.87118020968748766 11.61442105077542 -1 0 0 I I #
coedge $-1 $411 $411 $-1 $571 reversed $254 $-1 #
edge $-1 $572 0 $572 6.2831853071796004 $255 $573 forward 7 unknown #
vertex $-1 $258 $574 #
ellipse-curve $-1 64.892979970902516 -8.592015093645923 9.8040684383775893 0.82903758062907751 0 0.55919289150049634 0.13979822287512408 0 -0.20725939515726938 1 I I #
coedge $-1 $415 $415 $-1 $575 reversed $261 $-1 #
edge $-1 $576 0 $576 6.2831853071796004 $262 $577 forward 7 unknown #
vertex $-1 $265 $578 #
ellipse-curve $-1 64.892979970902516 -5.6967020121615093 9.8040684383775893 0.82903758062907751 0 0.55919289150049634 0.13979822287512408 0 -0.20725939515726938 1 I I #
coedge $-1 $419 $419 $-1 $579 reversed $268 $-1 #
edge $-1 $580 0 $580 6.2831853071796004 $269 $581 forward 7 unknown #
vertex $-1 $272 $582 #
ellipse-curve $-1 64.892979970902516 -2.8013889306770956 9.8040684383775893 0.82903758062907751 0 0.55919289150049634 0.13979822287512408 0 -0.20725939515726938 1 I I #
face $-1 $-1 $435 $60 $-1 $583 forward single #
loop $-1 $-1 $584 $273 #
plane-surface $-1 66.114078188421274 0 0 -1 0 0 0 0 1 forward_v I I I I #
coedge $-1 $585 $586 $587 $588 reversed $274 $-1 #
coedge $-1 $589 $276 $278 $433 forward $172 $-1 #
coedge $-1 $276 $589 $585 $590 forward $172 $-1 #
coedge $-1 $587 $279 $276 $430 forward $435 $-1 #
edge $-1 $437 -12.254693172084504 $591 -2.6036495671364612 $429 $592 forward 7 unknown #
coedge $-1 $593 $594 $277 $432 forward $424 $-1 #
edge $-1 $595 -87.784720064933737 $436 -84.164014840138066 $431 $596 forward 7 unknown #
edge $-1 $437 127.86079679098603 $595 132.22815637684252 $278 $597 forward 7 unknown #
coedge $-1 $279 $587 $593 $598 forward $435 $-1 #
loop $-1 $-1 $587 $423 #
vertex $-1 $432 $599 #
vertex $-1 $280 $600 #
straight-curve $-1 50.897571969987894 19.683864541694987 11.61442105077542 -1 0 0 I I #
coedge $-1 $439 $439 $-1 $601 reversed $283 $-1 #
edge $-1 $602 0 $602 6.2831853071796004 $284 $603 forward 7 unknown #
vertex $-1 $287 $604 #
ellipse-curve $-1 64.892979970902516 11.963029657736548 9.8040684383775893 0.82903758062907751 0 0.55919289150049634 0.13979822287512408 0 -0.20725939515726938 1 I I #
coedge $-1 $443 $443 $-1 $605 reversed $290 $-1 #
edge $-1 $606 0 $606 6.2831853071796004 $291 $607 forward 7 unknown #
vertex $-1 $294 $608 #
ellipse-curve $-1 64.892979970902516 14.858342739220966 9.8040684383775893 0.82903758062907751 0 0.55919289150049634 0.13979822287512408 0 -0.20725939515726938 1 I I #
coedge $-1 $447 $447 $-1 $609 reversed $297 $-1 #
edge $-1 $610 0 $610 6.2831853071796004 $298 $611 forward 7 unknown #
vertex $-1 $301 $612 #
ellipse-curve $-1 64.892979970902516 17.753655820705376 9.8040684383775893 0.82903758062907751 0 0.55919289150049634 0.13979822287512408 0 -0.20725939515726938 1 I I #
face $-1 $-1 $613 $64 $-1 $614 reversed single #
loop $-1 $-1 $308 $302 #
plane-surface $-1 0 0 11.614421050775414 0 0 1 1 0 0 forward_v I I I I #
coedge $-1 $615 $616 $617 $618 reversed $303 $-1 #
coedge $-1 $619 $305 $307 $461 forward $191 $-1 #
coedge $-1 $305 $619 $615 $620 forward $191 $-1 #
coedge $-1 $617 $308 $305 $458 forward $452 $-1 #
edge $-1 $464 -5.5453900569780092 $621 2.1606843449479758 $457 $622 forward 7 unknown #
coedge $-1 $623 $624 $306 $460 forward $613 $-1 #
edge $-1 $625 -34.47021463167075 $463 -25.931978178665148 $459 $626 forward 7 unknown #
edge $-1 $464 -10.180679634952654 $625 0 $307 $627 forward 7 unknown #
coedge $-1 $308 $617 $623 $628 forward $452 $-1 #
vertex $-1 $460 $629 #
vertex $-1 $309 $630 #
straight-curve $-1 -88.50497112688052 -7.237742912993026 11.614421050775412 1 0 0 I I #
coedge $-1 $466 $466 $-1 $631 reversed $312 $-1 #
edge $-1 $632 0 $632 6.2831853071796004 $313 $633 forward 7 unknown #
vertex $-1 $316 $634 #
ellipse-curve $-1 -63.341680485073773 -5.69652803260783 7.3453028242726139 -0.83867057594974714 0 0.54463902268945019 0.13615975567236255 0 0.20966764398743679 1 I I #
coedge $-1 $470 $470 $-1 $635 reversed $319 $-1 #
edge $-1 $636 0 $636 6.2831853071796004 $320 $637 forward 7 unknown #
vertex $-1 $323 $638 #
ellipse-curve $-1 -63.341680485073773 -3.3847057120300335 7.3453028242726139 -0.83867057594974714 0 0.54463902268945019 0.13615975567236255 0 0.20966764398743679 1 I I #
coedge $-1 $474 $474 $-1 $639 reversed $326 $-1 #
edge $-1 $640 0 $640 6.2831853071796004 $327 $641 forward 7 unknown #
vertex $-1 $330 $642 #
ellipse-curve $-1 -63.341680485073773 -1.0728833914522369 7.3453028242726139 -0.83867057594974714 0 0.54463902268945019 0.13615975567236255 0 0.20966764398743679 1 I I #
face $-1 $-1 $643 $68 $-1 $644 reversed single #
loop $-1 $-1 $337 $331 #
plane-surface $-1 0 0 11.614421050775414 0 0 1 1 0 0 forward_v I I I I #
coedge $-1 $645 $646 $647 $648 reversed $332 $-1 #
coedge $-1 $649 $334 $336 $488 forward $210 $-1 #
coedge $-1 $334 $649 $645 $650 forward $210 $-1 #
coedge $-1 $647 $337 $334 $485 forward $479 $-1 #
edge $-1 $491 4.0525329081963282 $651 11.758607310122315 $484 $652 forward 7 unknown #
coedge $-1 $653 $654 $335 $487 forward $643 $-1 #
edge $-1 $655 -34.47021463167075 $490 -25.931978178665148 $486 $656 forward 7 unknown #
edge $-1 $491 -10.180679634952654 $655 0 $336 $657 forward 7 unknown #
coedge $-1 $337 $647 $653 $658 forward $479 $-1 #
vertex $-1 $338 $659 #
vertex $-1 $338 $660 #
straight-curve $-1 -88.50497112688052 11.958103017355649 11.614421050775412 1 0 0 I I #
coedge $-1 $493 $493 $-1 $661 reversed $341 $-1 #
edge $-1 $662 0 $662 6.2831853071796004 $342 $663 forward 7 unknown #
vertex $-1 $345 $664 #
ellipse-curve $-1 -63.341680485073773 13.499317897740845 7.3453028242726139 -0.83867057594974714 0 0.54463902268945019 0.13615975567236255 0 0.20966764398743679 1 I I #
coedge $-1 $497 $497 $-1 $665 reversed $348 $-1 #
edge $-1 $666 0 $666 6.2831853071796004 $349 $667 forward 7 unknown #
vertex $-1 $352 $668 #
ellipse-curve $-1 -63.341680485073773 15.811140218318641 7.3453028242726139 -0.83867057594974714 0 0.54463902268945019 0.13615975567236255 0 0.20966764398743679 1 I I #
coedge $-1 $501 $501 $-1 $669 reversed $355 $-1 #
edge $-1 $670 0 $670 6.2831853071796004 $356 $671 forward 7 unknown #
vertex $-1 $359 $672 #
ellipse-curve $-1 -63.341680485073773 18.122962538896438 7.3453028242726139 -0.83867057594974714 0 0.54463902268945019 0.13615975567236255 0 0.20966764398743679 1 I I #
face $-1 $-1 $375 $54 $-1 $673 reversed single #
loop $-1 $-1 $521 $360 #
plane-surface $-1 0 26.768262004526768 0 0 -1 0 0 0 -1 forward_v I I I I #
coedge $-1 $674 $519 $522 $675 forward $361 $-1 #
coedge $-1 $525 $363 $364 $513 reversed $229 $-1 #
coedge $-1 $519 $674 $363 $511 reversed $361 $-1 #
edge $-1 $526 -11.614421050775414 $676 11.614421050775414 $510 $677 forward 7 unknown #
coedge $-1 $365 $364 $674 $678 forward $145 $-1 #
edge $-1 $517 -66.114078188421274 $676 66.114078188421274 $509 $679 forward 7 unknown #
coedge $-1 $522 $521 $365 $515 reversed $506 $-1 #
edge $-1 $680 -66.114078188421274 $516 66.114078188421274 $514 $681 forward 7 unknown #
vertex $-1 $367 $682 #
vertex $-1 $528 $683 #
straight-curve $-1 66.114078188421274 0 -11.614421050775414 0 -1 0 I I #
coedge $-1 $508 $510 $368 $520 reversed $361 $-1 #
edge $-1 $523 -26.768262004526768 $526 26.768262004526768 $519 $684 forward 7 unknown #
coedge $-1 $514 $369 $374 $529 forward $506 $-1 #
coedge $-1 $369 $514 $508 $675 reversed $506 $-1 #
vertex $-1 $370 $685 #
straight-curve $-1 0 26.768262004526768 11.614421050775414 -1 0 0 I I #
coedge $-1 $371 $509 $373 $528 reversed $229 $-1 #
vertex $-1 $520 $686 #
straight-curve $-1 0 -26.768262004526768 11.614421050775414 1 0 0 I I #
edge $-1 $376 -11.614421050775414 $517 11.614421050775414 $373 $687 forward 7 unknown #
edge $-1 $377 -11.614421050775414 $516 11.614421050775414 $374 $688 forward 7 unknown #
point $-1 66.114078188421274 -26.768262004526768 11.614421050775414 #
point $-1 66.114078188421274 26.768262004526768 11.614421050775414 #
face $-1 $-1 $546 $55 $-1 $689 reversed single #
loop $-1 $-1 $690 $379 #
plane-surface $-1 0 -39.194696510815369 -8.4241504532991698 0 1 0 0 0 1 forward_v I I I I #
coedge $-1 $691 $382 $391 $550 reversed $237 $-1 #
coedge $-1 $382 $691 $383 $538 reversed $237 $-1 #
coedge $-1 $384 $383 $692 $693 forward $149 $-1 #
edge $-1 $542 26.768262004526768 $694 39.194696510815369 $536 $695 forward 7 unknown #
coedge $-1 $696 $388 $384 $540 reversed $546 $-1 #
edge $-1 $697 -39.194696510815369 $541 -26.768262004526768 $539 $698 forward 7 unknown #
vertex $-1 $389 $699 #
vertex $-1 $538 $700 #
straight-curve $-1 0 -26.768262004526768 -11.614421050775414 1 0 0 I I #
straight-curve $-1 66.114078188421274 -26.768262004526768 0 0 0 1 I I #
coedge $-1 $388 $696 $390 $549 reversed $546 $-1 #
loop $-1 $-1 $388 $532 #
straight-curve $-1 -66.114078188421274 -26.768262004526768 0 0 0 -1 I I #
coedge $-1 $391 $390 $701 $702 forward $380 $-1 #
edge $-1 $392 -6.2132172531442968 $703 6.2132172531443004 $545 $704 forward 7 unknown #
edge $-1 $705 -6.2132172531443004 $393 6.2132172531442968 $535 $706 forward 7 unknown #
point $-1 -66.114078188421274 -26.768262004526772 -5.2338798558229254 #
point $-1 66.114078188421274 -26.768262004526772 -5.2338798558229254 #
plane-surface $-1 0 0 11.614421050775414 0 0 1 1 0 0 forward_v I I I I #
coedge $-1 $564 $563 $556 $707 forward $396 $-1 #
coedge $-1 $556 $398 $400 $560 reversed $245 $-1 #
coedge $-1 $398 $555 $554 $707 reversed $245 $-1 #
coedge $-1 $406 $401 $398 $558 forward $407 $-1 #
edge $-1 $561 12.774309783395879 $708 15.216506218433381 $557 $709 forward 7 unknown #
coedge $-1 $400 $399 $564 $710 reversed $153 $-1 #
edge $-1 $711 -132.22815637684252 $561 -127.86079679098603 $555 $712 forward 7 unknown #
vertex $-1 $402 $713 #
straight-curve $-1 63.671881753383772 -2.8483510060807546 11.61442105077542 0 -1 0 I I #
coedge $-1 $554 $403 $406 $568 reversed $396 $-1 #
coedge $-1 $403 $554 $559 $710 forward $396 $-1 #
vertex $-1 $404 $714 #
straight-curve $-1 66.114078188421274 -0.87118020968748766 95.778435890913485 0 0 1 I I #
straight-curve $-1 -7.8269669137250872 -0.87118020968748766 117.61582667968059 0.55919289150049634 0 -0.82903758062907751 I I #
edge $-1 $708 -10.522223814635531 $408 -0.87118020968748766 $563 $715 forward 7 unknown #
point $-1 66.114078188421274 -0.87118020968748766 11.614421050775414 #
point $-1 63.671881753383772 -0.87118020968748766 11.61442105077542 #
edge $-1 $716 1 $716 0 $411 $-1 forward 7 unknown #
vertex $-1 $412 $717 #
ellipse-curve $-1 64.063942390273439 -8.592015093645923 9.2448755468770862 0.82903758062907751 0 0.55919289150049634 0.13979822287512408 0 -0.20725939515726938 1 I I #
point $-1 65.032778193777631 -8.592015093645923 9.596809043220313 #
edge $-1 $718 1 $718 0 $415 $-1 forward 7 unknown #
vertex $-1 $416 $719 #
ellipse-curve $-1 64.063942390273439 -5.6967020121615093 9.2448755468770862 0.82903758062907751 0 0.55919289150049634 0.13979822287512408 0 -0.20725939515726938 1 I I #
point $-1 65.032778193777631 -5.6967020121615093 9.596809043220313 #
edge $-1 $720 1 $720 0 $419 $-1 forward 7 unknown #
vertex $-1 $420 $721 #
ellipse-curve $-1 64.063942390273439 -2.8013889306770956 9.2448755468770862 0.82903758062907751 0 0.55919289150049634 0.13979822287512408 0 -0.20725939515726938 1 I I #
point $-1 65.032778193777631 -2.8013889306770956 9.596809043220313 #
plane-surface $-1 0 0 11.614421050775414 0 0 1 1 0 0 forward_v I I I I #
coedge $-1 $594 $593 $586 $722 forward $424 $-1 #
coedge $-1 $586 $426 $428 $590 reversed $274 $-1 #
coedge $-1 $426 $585 $584 $722 reversed $274 $-1 #
coedge $-1 $434 $429 $426 $588 forward $435 $-1 #
edge $-1 $591 12.774309783395879 $723 15.216506218433381 $587 $724 forward 7 unknown #
coedge $-1 $428 $427 $594 $725 reversed $172 $-1 #
edge $-1 $726 -132.22815637684252 $591 -127.86079679098603 $585 $727 forward 7 unknown #
vertex $-1 $430 $728 #
straight-curve $-1 63.671881753383772 7.4291713696104829 11.61442105077542 0 -1 0 I I #
coedge $-1 $584 $431 $434 $598 reversed $424 $-1 #
coedge $-1 $431 $584 $589 $725 forward $424 $-1 #
vertex $-1 $432 $729 #
straight-curve $-1 66.114078188421274 19.683864541694987 95.778435890913485 0 0 1 I I #
straight-curve $-1 -7.8269669137250872 19.683864541694987 117.61582667968059 0.55919289150049634 0 -0.82903758062907751 I I #
edge $-1 $723 10.032820936746944 $436 19.683864541694987 $593 $730 forward 7 unknown #
point $-1 66.114078188421274 19.683864541694987 11.614421050775414 #
point $-1 63.671881753383772 19.683864541694987 11.61442105077542 #
edge $-1 $731 1 $731 0 $439 $-1 forward 7 unknown #
vertex $-1 $440 $732 #
ellipse-curve $-1 64.063942390273439 11.963029657736548 9.2448755468770862 0.82903758062907751 0 0.55919289150049634 0.13979822287512408 0 -0.20725939515726938 1 I I #
point $-1 65.032778193777631 11.963029657736548 9.596809043220313 #
edge $-1 $733 1 $733 0 $443 $-1 forward 7 unknown #
vertex $-1 $444 $734 #
ellipse-curve $-1 64.063942390273439 14.858342739220966 9.2448755468770862 0.82903758062907751 0 0.55919289150049634 0.13979822287512408 0 -0.20725939515726938 1 I I #
point $-1 65.032778193777631 14.858342739220966 9.596809043220313 #
edge $-1 $735 1 $735 0 $447 $-1 forward 7 unknown #
vertex $-1 $448 $736 #
ellipse-curve $-1 64.063942390273439 17.753655820705376 9.2448755468770862 0.82903758062907751 0 0.55919289150049634 0.13979822287512408 0 -0.20725939515726938 1 I I #
point $-1 65.032778193777631 17.753655820705376 9.596809043220313 #
loop $-1 $-1 $459 $451 #
plane-surface $-1 -66.114078188421274 0 0 1 0 0 0 0 -1 forward_v I I I I #
coedge $-1 $616 $454 $456 $620 reversed $303 $-1 #
coedge $-1 $454 $615 $737 $738 reversed $303 $-1 #
coedge $-1 $462 $457 $454 $618 forward $452 $-1 #
edge $-1 $621 -27.935688345154247 $739 -22.390892938459245 $617 $740 forward 7 unknown #
coedge $-1 $456 $455 $624 $741 reversed $191 $-1 #
edge $-1 $742 0 $621 10.180679634952654 $615 $743 forward 7 unknown #
vertex $-1 $458 $744 #
straight-curve $-1 -60.56928278172628 -1.6923528560150167 11.614421050775412 0 1 0 I I #
coedge $-1 $737 $459 $462 $628 reversed $613 $-1 #
coedge $-1 $459 $737 $619 $741 forward $613 $-1 #
vertex $-1 $460 $745 #
straight-curve $-1 -66.114078188421274 -7.237742912993026 37.54639922944056 0 0 1 I I #
straight-curve $-1 -66.114078188421274 -7.237742912993026 3.0761845977698101 -0.54463902268945019 0 -0.83867057594974714 I I #
edge $-1 $739 -0.46833148893295906 $463 7.237742912993026 $623 $746 forward 7 unknown #
point $-1 -66.114078188421274 -7.237742912993026 11.614421050775414 #
point $-1 -60.569282781726272 -7.237742912993026 11.614421050775414 #
edge $-1 $747 1 $747 0 $466 $-1 forward 7 unknown #
vertex $-1 $467 $748 #
ellipse-curve $-1 -62.503009909124017 -5.69652803260783 6.8006638015831591 -0.83867057594974714 0 0.54463902268945019 0.13615975567236255 0 0.20966764398743679 1 I I #
point $-1 -63.205520729401407 -5.69652803260783 7.5549704682600458 #
edge $-1 $749 1 $749 0 $470 $-1 forward 7 unknown #
vertex $-1 $471 $750 #
ellipse-curve $-1 -62.503009909124017 -3.3847057120300335 6.8006638015831591 -0.83867057594974714 0 0.54463902268945019 0.13615975567236255 0 0.20966764398743679 1 I I #
point $-1 -63.205520729401407 -3.3847057120300335 7.5549704682600458 #
edge $-1 $751 1 $751 0 $474 $-1 forward 7 unknown #
vertex $-1 $475 $752 #
ellipse-curve $-1 -62.503009909124017 -1.0728833914522369 6.8006638015831591 -0.83867057594974714 0 0.54463902268945019 0.13615975567236255 0 0.20966764398743679 1 I I #
point $-1 -63.205520729401407 -1.0728833914522369 7.5549704682600458 #
loop $-1 $-1 $486 $478 #
plane-surface $-1 -66.114078188421274 0 0 1 0 0 0 0 -1 forward_v I I I I #
coedge $-1 $646 $481 $483 $650 reversed $332 $-1 #
coedge $-1 $481 $645 $753 $754 reversed $332 $-1 #
coedge $-1 $489 $484 $481 $648 forward $479 $-1 #
edge $-1 $651 -27.935688345154247 $755 -22.390892938459245 $647 $756 forward 7 unknown #
coedge $-1 $483 $482 $654 $757 reversed $210 $-1 #
edge $-1 $758 0 $651 10.180679634952654 $645 $759 forward 7 unknown #
vertex $-1 $485 $760 #
straight-curve $-1 -60.56928278172628 7.9055701091593207 11.614421050775412 0 1 0 I I #
coedge $-1 $753 $486 $489 $658 reversed $643 $-1 #
coedge $-1 $486 $753 $649 $757 forward $643 $-1 #
vertex $-1 $487 $761 #
straight-curve $-1 -66.114078188421274 11.958103017355649 37.54639922944056 0 0 1 I I #
straight-curve $-1 -66.114078188421274 11.958103017355649 3.0761845977698101 -0.54463902268945019 0 -0.83867057594974714 I I #
edge $-1 $755 -19.664177419281636 $490 -11.958103017355649 $653 $762 forward 7 unknown #
point $-1 -66.114078188421274 11.958103017355649 11.614421050775414 #
point $-1 -60.569282781726272 11.958103017355649 11.614421050775414 #
edge $-1 $763 1 $763 0 $493 $-1 forward 7 unknown #
vertex $-1 $494 $764 #
ellipse-curve $-1 -62.503009909124017 13.499317897740845 6.8006638015831591 -0.83867057594974714 0 0.54463902268945019 0.13615975567236255 0 0.20966764398743679 1 I I #
point $-1 -63.205520729401407 13.499317897740845 7.5549704682600458 #
edge $-1 $765 1 $765 0 $497 $-1 forward 7 unknown #
vertex $-1 $498 $766 #
ellipse-curve $-1 -62.503009909124017 15.811140218318641 6.8006638015831591 -0.83867057594974714 0 0.54463902268945019 0.13615975567236255 0 0.20966764398743679 1 I I #
point $-1 -63.205520729401407 15.811140218318641 7.5549704682600458 #
edge $-1 $767 1 $767 0 $501 $-1 forward 7 unknown #
vertex $-1 $502 $768 #
ellipse-curve $-1 -62.503009909124017 18.122962538896438 6.8006638015831591 -0.83867057594974714 0 0.54463902268945019 0.13615975567236255 0 0.20966764398743679 1 I I #
point $-1 -63.205520729401407 18.122962538896438 7.5549704682600458 #
plane-surface $-1 66.114078188421274 0 0 -1 0 0 0 0 1 forward_v I I I I #
coedge $-1 $510 $508 $512 $678 reversed $361 $-1 #
edge $-1 $523 -11.614421050775414 $680 11.614421050775414 $522 $769 forward 7 unknown #
vertex $-1 $678 $770 #
straight-curve $-1 -66.114078188421274 -26.768262004526768 0 0 0 -1 I I #
edge $-1 $676 -26.768262004526768 $680 26.768262004526768 $674 $771 forward 7 unknown #
straight-curve $-1 0 -26.768262004526768 -11.614421050775414 -1 0 0 I I #
vertex $-1 $515 $772 #
straight-curve $-1 0 26.768262004526768 -11.614421050775414 1 0 0 I I #
point $-1 66.114078188421274 26.768262004526768 -11.614421050775414 #
point $-1 66.114078188421274 -26.768262004526768 -11.614421050775414 #
straight-curve $-1 -66.114078188421274 0 11.614421050775414 0 -1 0 I I #
point $-1 -66.114078188421274 26.768262004526768 11.614421050775414 #
point $-1 -66.114078188421274 -26.768262004526768 11.614421050775414 #
straight-curve $-1 66.114078188421274 -26.768262004526768 0 0 0 -1 I I #
straight-curve $-1 66.114078188421274 26.768262004526768 0 0 0 -1 I I #
plane-surface $-1 -66.114078188421274 0 0 1 0 0 0 0 -1 forward_v I I I I #
coedge $-1 $692 $701 $696 $773 forward $533 $-1 #
coedge $-1 $536 $535 $774 $775 forward $237 $-1 #
coedge $-1 $774 $690 $537 $693 reversed $533 $-1 #
edge $-1 $694 -66.114078188421274 $697 66.114078188421274 $692 $776 forward 7 unknown #
vertex $-1 $775 $777 #
straight-curve $-1 66.114078188421274 0 -11.614421050775414 0 -1 0 I I #
coedge $-1 $545 $539 $690 $773 reversed $546 $-1 #
vertex $-1 $540 $778 #
straight-curve $-1 -66.114078188421274 0 -11.614421050775414 0 1 0 I I #
point $-1 -66.114078188421274 -26.768262004526768 -11.614421050775414 #
point $-1 66.114078188421274 -26.768262004526768 -11.614421050775414 #
coedge $-1 $690 $774 $548 $702 reversed $533 $-1 #
edge $-1 $703 -66.114078188421274 $705 66.114078188421274 $701 $779 forward 7 unknown #
vertex $-1 $549 $780 #
straight-curve $-1 -66.114078188421274 -32.981479257671069 -5.2338798558229254 0 -1 0 I I #
vertex $-1 $550 $781 #
straight-curve $-1 66.114078188421274 -32.981479257671069 -5.2338798558229254 0 1 0 I I #
edge $-1 $708 84.164014840138066 $711 87.784720064933737 $554 $782 forward 7 unknown #
vertex $-1 $568 $783 #
straight-curve $-1 50.897571969987894 -10.522223814635531 11.61442105077542 1 0 0 I I #
edge $-1 $711 -7.6738728085547763 $565 1.977170796393267 $564 $784 forward 7 unknown #
vertex $-1 $710 $785 #
straight-curve $-1 -7.8269669137250872 -10.522223814635531 117.61582667968059 -0.55919289150049634 0 0.82903758062907751 I I #
point $-1 63.671881753383772 -10.522223814635531 11.61442105077542 #
point $-1 66.114078188421274 -0.87118020968748766 7.9937158259797485 #
straight-curve $-1 66.114078188421274 0 11.614421050775414 0 1 0 I I #
vertex $-1 $571 $786 #
point $-1 64.203740613148554 -8.592015093645923 9.037616151719817 #
vertex $-1 $575 $787 #
point $-1 64.203740613148554 -5.6967020121615093 9.037616151719817 #
vertex $-1 $579 $788 #
point $-1 64.203740613148554 -2.8013889306770956 9.037616151719817 #
edge $-1 $723 84.164014840138066 $726 87.784720064933737 $584 $789 forward 7 unknown #
vertex $-1 $598 $790 #
straight-curve $-1 50.897571969987894 10.032820936746944 11.61442105077542 1 0 0 I I #
edge $-1 $726 2.6036495671364612 $595 12.254693172084504 $594 $791 forward 7 unknown #
vertex $-1 $725 $792 #
straight-curve $-1 -7.8269669137250872 10.032820936746944 117.61582667968059 -0.55919289150049634 0 0.82903758062907751 I I #
point $-1 63.671881753383772 10.032820936746944 11.61442105077542 #
point $-1 66.114078188421274 19.683864541694987 7.9937158259797485 #
straight-curve $-1 66.114078188421274 0 11.614421050775414 0 1 0 I I #
vertex $-1 $601 $793 #
point $-1 64.203740613148554 11.963029657736548 9.037616151719817 #
vertex $-1 $605 $794 #
point $-1 64.203740613148554 14.858342739220966 9.037616151719817 #
vertex $-1 $609 $795 #
point $-1 64.203740613148554 17.753655820705376 9.037616151719817 #
coedge $-1 $624 $623 $616 $738 forward $613 $-1 #
edge $-1 $739 25.931978178665148 $742 34.47021463167075 $737 $796 forward 7 unknown #
vertex $-1 $628 $797 #
straight-curve $-1 -88.50497112688052 0.46833148893295906 11.614421050775412 -1 0 0 I I #
edge $-1 $742 -2.1606843449479758 $625 5.5453900569780092 $624 $798 forward 7 unknown #
vertex $-1 $741 $799 #
straight-curve $-1 -66.114078188421274 0.46833148893295906 3.0761845977698101 0.54463902268945019 0 0.83867057594974714 I I #
point $-1 -60.569282781726272 0.46833148893295906 11.614421050775414 #
point $-1 -66.114078188421274 -7.237742912993026 3.0761845977698101 #
straight-curve $-1 -66.114078188421274 0 11.614421050775414 0 -1 0 I I #
vertex $-1 $631 $800 #
point $-1 -62.366850153451658 -5.69652803260783 7.0103314455705954 #
vertex $-1 $635 $801 #
point $-1 -62.366850153451658 -3.3847057120300335 7.0103314455705954 #
vertex $-1 $639 $802 #
point $-1 -62.366850153451658 -1.0728833914522369 7.0103314455705954 #
coedge $-1 $654 $653 $646 $754 forward $643 $-1 #
edge $-1 $755 25.931978178665148 $758 34.47021463167075 $753 $803 forward 7 unknown #
vertex $-1 $658 $804 #
straight-curve $-1 -88.50497112688052 19.664177419281636 11.614421050775412 -1 0 0 I I #
edge $-1 $758 -11.758607310122315 $655 -4.0525329081963282 $654 $805 forward 7 unknown #
vertex $-1 $757 $806 #
straight-curve $-1 -66.114078188421274 19.664177419281636 3.0761845977698101 0.54463902268945019 0 0.83867057594974714 I I #
point $-1 -60.569282781726272 19.664177419281636 11.614421050775414 #
point $-1 -66.114078188421274 11.958103017355649 3.0761845977698101 #
straight-curve $-1 -66.114078188421274 0 11.614421050775414 0 -1 0 I I #
vertex $-1 $661 $807 #
point $-1 -62.366850153451658 13.499317897740845 7.0103314455705954 #
vertex $-1 $665 $808 #
point $-1 -62.366850153451658 15.811140218318641 7.0103314455705954 #
vertex $-1 $669 $809 #
point $-1 -62.366850153451658 18.122962538896438 7.0103314455705954 #
straight-curve $-1 -66.114078188421274 26.768262004526768 0 0 0 -1 I I #
point $-1 -66.114078188421274 -26.768262004526768 -11.614421050775414 #
straight-curve $-1 -66.114078188421274 0 -11.614421050775414 0 1 0 I I #
point $-1 -66.114078188421274 26.768262004526768 -11.614421050775414 #
edge $-1 $703 -3.1902705974762444 $697 3.1902705974762444 $696 $810 forward 7 unknown #
coedge $-1 $701 $692 $691 $775 reversed $533 $-1 #
edge $-1 $705 -3.1902705974762444 $694 3.1902705974762444 $691 $811 forward 7 unknown #
straight-curve $-1 0 -39.194696510815369 -11.614421050775414 -1 0 0 I I #
point $-1 66.114078188421274 -39.194696510815369 -11.614421050775414 #
point $-1 -66.114078188421274 -39.194696510815369 -11.614421050775414 #
straight-curve $-1 0 -39.194696510815369 -5.2338798558229254 1 0 0 I I #
point $-1 -66.114078188421274 -39.194696510815369 -5.2338798558229254 #
point $-1 66.114078188421274 -39.194696510815369 -5.2338798558229254 #
straight-curve $-1 66.114078188421274 -10.522223814635531 95.778435890913485 0 0 -1 I I #
point $-1 66.114078188421274 -10.522223814635531 11.614421050775414 #
straight-curve $-1 66.114078188421274 -2.8483510060807546 7.9937158259797343 0 1 0 I I #
point $-1 66.114078188421274 -10.522223814635531 7.9937158259797485 #
point $-1 63.856682995116167 -8.592015093645923 9.1050773240019609 #
point $-1 63.856682995116167 -5.6967020121615093 9.1050773240019609 #
point $-1 63.856682995116167 -2.8013889306770956 9.1050773240019609 #
straight-curve $-1 66.114078188421274 10.032820936746944 95.778435890913485 0 0 -1 I I #
point $-1 66.114078188421274 10.032820936746944 11.614421050775414 #
straight-curve $-1 66.114078188421274 7.4291713696104829 7.9937158259797343 0 1 0 I I #
point $-1 66.114078188421274 10.032820936746944 7.9937158259797485 #
point $-1 63.856682995116167 11.963029657736548 9.1050773240019609 #
point $-1 63.856682995116167 14.858342739220966 9.1050773240019609 #
point $-1 63.856682995116167 17.753655820705376 9.1050773240019609 #
straight-curve $-1 -66.114078188421274 0.46833148893295906 37.54639922944056 0 0 -1 I I #
point $-1 -66.114078188421274 0.46833148893295906 11.614421050775414 #
straight-curve $-1 -66.114078188421274 -1.6923528560150167 3.0761845977698044 0 -1 0 I I #
point $-1 -66.114078188421274 0.46833148893295906 3.0761845977698101 #
point $-1 -62.293342265136587 -5.69652803260783 6.664504045910796 #
point $-1 -62.293342265136587 -3.3847057120300335 6.664504045910796 #
point $-1 -62.293342265136587 -1.0728833914522369 6.664504045910796 #
straight-curve $-1 -66.114078188421274 19.664177419281636 37.54639922944056 0 0 -1 I I #
point $-1 -66.114078188421274 19.664177419281636 11.614421050775414 #
straight-curve $-1 -66.114078188421274 7.9055701091593207 3.0761845977698044 0 -1 0 I I #
point $-1 -66.114078188421274 19.664177419281636 3.0761845977698101 #
point $-1 -62.293342265136587 13.499317897740845 6.664504045910796 #
point $-1 -62.293342265136587 15.811140218318641 6.664504045910796 #
point $-1 -62.293342265136587 18.122962538896438 6.664504045910796 #
straight-curve $-1 -66.114078188421274 -39.194696510815369 -8.4241504532991698 0 0 -1 I I #
straight-curve $-1 66.114078188421274 -39.194696510815369 -8.4241504532991698 0 0 -1 I I #
End-of-ACIS-data 