500 0 9 0           
7 Unknown 11 ACIS 5.0 NT 24 Thu Mar 25 19:26:31 1999 
-1 9.9999999999999995e-007 1e-010 
body $-1 $9 $-1 $10 #
body $-1 $11 $-1 $12 #
body $-1 $13 $-1 $14 #
body $-1 $15 $-1 $16 #
body $-1 $17 $-1 $18 #
body $-1 $19 $-1 $20 #
body $-1 $21 $-1 $22 #
body $-1 $23 $-1 $24 #
body $-1 $25 $-1 $26 #
lump $-1 $-1 $27 $0 #
transform $-1 1 0 0 0 1 0 0 0 1 44.780419324320199 20.901811130524091 10.148353332246892 1 rotate no_reflect no_shear #
lump $-1 $-1 $28 $1 #
transform $-1 1 0 0 0 1 0 0 0 1 44.780419324320199 20.901811130524091 10.148353332246892 1 rotate no_reflect no_shear #
lump $-1 $-1 $29 $2 #
transform $-1 1 0 0 0 1 0 0 0 1 44.780419324320199 20.901811130524091 10.148353332246892 1 rotate no_reflect no_shear #
lump $-1 $-1 $30 $3 #
transform $-1 1 0 0 0 1 0 0 0 1 44.780419324320199 20.901811130524091 10.148353332246892 1 rotate no_reflect no_shear #
lump $-1 $-1 $31 $4 #
transform $-1 1 0 0 0 1 0 0 0 1 44.780419324320199 20.901811130524091 10.148353332246892 1 rotate no_reflect no_shear #
lump $-1 $-1 $32 $5 #
transform $-1 1 0 0 0 1 0 0 0 1 44.780419324320199 20.901811130524091 10.148353332246892 1 rotate no_reflect no_shear #
lump $-1 $-1 $33 $6 #
transform $-1 1 0 0 0 1 0 0 0 1 44.780419324320199 20.901811130524091 10.148353332246892 1 rotate no_reflect no_shear #
lump $-1 $-1 $34 $7 #
transform $-1 1 0 0 0 1 0 0 0 1 44.780419324320199 20.901811130524091 10.148353332246892 1 rotate no_reflect no_shear #
lump $-1 $-1 $35 $8 #
transform $-1 1 0 0 0 1 0 0 0 1 44.780419324320199 20.901811130524091 10.148353332246892 1 rotate no_reflect no_shear #
shell $-1 $-1 $-1 $36 $-1 $9 #
shell $-1 $-1 $-1 $37 $-1 $11 #
shell $-1 $-1 $-1 $38 $-1 $13 #
shell $-1 $-1 $-1 $39 $-1 $15 #
shell $-1 $-1 $-1 $40 $-1 $17 #
shell $-1 $-1 $-1 $41 $-1 $19 #
shell $-1 $-1 $-1 $42 $-1 $21 #
shell $-1 $-1 $-1 $43 $-1 $23 #
shell $-1 $-1 $-1 $44 $-1 $25 #
face $-1 $45 $46 $27 $-1 $47 forward single #
face $-1 $48 $49 $28 $-1 $50 reversed single #
face $-1 $51 $52 $29 $-1 $53 forward single #
face $-1 $54 $55 $30 $-1 $56 reversed single #
face $-1 $57 $58 $31 $-1 $59 forward single #
face $-1 $60 $61 $32 $-1 $62 reversed single #
face $-1 $63 $64 $33 $-1 $65 forward single #
face $-1 $66 $67 $34 $-1 $68 reversed single #
face $-1 $69 $70 $35 $-1 $71 forward single #
face $-1 $72 $73 $27 $-1 $74 reversed single #
loop $-1 $-1 $75 $36 #
plane-surface $-1 0 0 10.148353332246892 0 0 1 1 0 0 forward_v I I I I #
face $-1 $76 $77 $28 $-1 $78 reversed single #
loop $-1 $-1 $79 $37 #
plane-surface $-1 -123.11209447725761 -13.177528311590383 44.325525018254716 0 1 0 -0.87461971476443456 0 0.48480960649040278 forward_v I I I I #
face $-1 $80 $81 $29 $-1 $82 forward single #
loop $-1 $83 $84 $38 #
cone-surface $-1 -38.619078310151032 -7.9702774194511683 3.5316366051410797 0.87461971476443456 0 -0.48480960649040278 1.212024016226007 0 2.1865492869110863 1 I I 0 1 2.5 forward I I I I #
face $-1 $85 $86 $30 $-1 $87 reversed single #
loop $-1 $-1 $88 $39 #
plane-surface $-1 -123.11209447725761 2.7630265273119514 44.325525018254716 0 1 0 -0.87461971476443456 0 0.48480960649040278 forward_v I I I I #
face $-1 $89 $90 $31 $-1 $91 forward single #
loop $-1 $92 $93 $40 #
cone-surface $-1 -38.619078310151032 7.9702774194511647 3.5316366051410797 0.87461971476443456 0 -0.48480960649040278 1.212024016226007 0 2.1865492869110863 1 I I 0 1 2.5 forward I I I I #
face $-1 $94 $95 $32 $-1 $96 reversed single #
loop $-1 $-1 $97 $41 #
plane-surface $-1 79.692139535059795 -2.763026527311955 122.6572001711921 0 -1 0 -0.87461971476443456 0 -0.48480960649040278 forward_v I I I I #
face $-1 $98 $99 $33 $-1 $100 forward single #
loop $-1 $101 $102 $42 #
cone-surface $-1 38.619078310151025 -7.9702774194511683 3.5316366051410673 -0.87461971476443456 0 -0.48480960649040278 1.212024016226007 0 -2.1865492869110863 1 I I 0 1 2.5 forward I I I I #
face $-1 $103 $104 $34 $-1 $105 reversed single #
loop $-1 $-1 $106 $43 #
plane-surface $-1 79.692139535059795 13.177528311590379 122.6572001711921 0 -1 0 -0.87461971476443456 0 -0.48480960649040278 forward_v I I I I #
face $-1 $107 $108 $35 $-1 $109 forward single #
loop $-1 $110 $111 $44 #
cone-surface $-1 38.619078310151025 7.9702774194511647 3.5316366051410673 -0.87461971476443456 0 -0.48480960649040278 1.212024016226007 0 -2.1865492869110863 1 I I 0 1 2.5 forward I I I I #
face $-1 $112 $113 $27 $-1 $114 reversed single #
loop $-1 $-1 $115 $45 #
plane-surface $-1 0 0 -10.148353332246892 0 0 1 1 0 0 forward_v I I I I #
coedge $-1 $116 $117 $118 $119 forward $46 $-1 #
face $-1 $120 $121 $28 $-1 $122 reversed single #
loop $-1 $-1 $123 $48 #
plane-surface $-1 -44.780419324320206 -7.9702774194511683 0.90557007605691098 -0.87461971476443456 0 0.48480960649040278 0.48480960649040278 0 0.87461971476443456 forward_v I I I I #
coedge $-1 $124 $125 $126 $127 reversed $49 $-1 #
face $-1 $-1 $128 $29 $-1 $129 forward single #
loop $-1 $130 $131 $51 #
cone-surface $-1 -33.926141767269598 -7.9702774194511683 0.93029949801725387 0.87461971476443456 0 -0.48480960649040278 0.60601200811300349 0 1.0932746434555431 1 I I -0.70710678118654746 0.70710678118654746 1.25 forward I I I I #
loop $-1 $-1 $132 $38 #
coedge $-1 $84 $84 $133 $134 reversed $52 $-1 #
face $-1 $135 $136 $30 $-1 $137 reversed single #
loop $-1 $-1 $138 $54 #
plane-surface $-1 -44.780419324320206 7.9702774194511647 0.90557007605691098 -0.87461971476443456 0 0.48480960649040278 0.48480960649040278 0 0.87461971476443456 forward_v I I I I #
coedge $-1 $139 $140 $141 $142 reversed $55 $-1 #
face $-1 $-1 $143 $31 $-1 $144 forward single #
loop $-1 $145 $146 $57 #
cone-surface $-1 -33.926141767269598 7.9702774194511647 0.93029949801725387 0.87461971476443456 0 -0.48480960649040278 0.60601200811300349 0 1.0932746434555431 1 I I -0.70710678118654746 0.70710678118654746 1.25 forward I I I I #
loop $-1 $-1 $147 $40 #
coedge $-1 $93 $93 $148 $149 reversed $58 $-1 #
face $-1 $150 $151 $32 $-1 $152 reversed single #
loop $-1 $-1 $153 $60 #
plane-surface $-1 1.3604643821223874 -7.9702774194511683 79.237245228994297 0.87461971476443456 0 0.48480960649040278 0.48480960649040278 0 -0.87461971476443456 forward_v I I I I #
coedge $-1 $154 $155 $156 $157 reversed $61 $-1 #
face $-1 $-1 $158 $33 $-1 $159 forward single #
loop $-1 $160 $161 $63 #
cone-surface $-1 33.926141767269591 -7.9702774194511683 0.93029949801724143 -0.87461971476443456 0 -0.48480960649040278 0.60601200811300349 0 -1.0932746434555431 1 I I -0.70710678118654746 0.70710678118654746 1.25 forward I I I I #
loop $-1 $-1 $162 $42 #
coedge $-1 $102 $102 $163 $164 reversed $64 $-1 #
face $-1 $165 $166 $34 $-1 $167 reversed single #
loop $-1 $-1 $168 $66 #
plane-surface $-1 1.3604643821223874 7.9702774194511647 79.237245228994297 0.87461971476443456 0 0.48480960649040278 0.48480960649040278 0 -0.87461971476443456 forward_v I I I I #
coedge $-1 $169 $170 $171 $172 reversed $67 $-1 #
face $-1 $-1 $173 $35 $-1 $174 forward single #
loop $-1 $175 $176 $69 #
cone-surface $-1 33.926141767269591 7.9702774194511647 0.93029949801724143 -0.87461971476443456 0 -0.48480960649040278 0.60601200811300349 0 -1.0932746434555431 1 I I -0.70710678118654746 0.70710678118654746 1.25 forward I I I I #
loop $-1 $-1 $177 $44 #
coedge $-1 $111 $111 $178 $179 reversed $70 $-1 #
face $-1 $180 $181 $27 $-1 $182 reversed single #
loop $-1 $-1 $183 $72 #
plane-surface $-1 0 -20.901811130524091 0 0 1 0 0 0 1 forward_v I I I I #
coedge $-1 $184 $185 $186 $187 forward $73 $-1 #
coedge $-1 $188 $75 $189 $190 forward $46 $-1 #
coedge $-1 $75 $188 $191 $192 forward $46 $-1 #
coedge $-1 $193 $194 $75 $119 reversed $195 $-1 #
edge $-1 $196 -20.901811130524091 $197 20.901811130524091 $118 $198 forward 7 unknown #
face $-1 $199 $200 $28 $-1 $201 reversed single #
loop $-1 $-1 $202 $76 #
plane-surface $-1 -123.11209447725761 -2.763026527311955 44.325525018254716 0 -1 0 0.87461971476443456 0 -0.48480960649040278 forward_v I I I I #
coedge $-1 $203 $204 $205 $206 reversed $77 $-1 #
coedge $-1 $125 $79 $207 $208 reversed $49 $-1 #
coedge $-1 $79 $124 $203 $209 reversed $49 $-1 #
coedge $-1 $205 $210 $79 $127 forward $211 $-1 #
edge $-1 $212 16.775627914308608 $213 21.898986143795156 $126 $214 forward 7 unknown #
loop $-1 $-1 $133 $80 #
plane-surface $-1 -44.780419324320206 -7.9702774194511683 0.90557007605691098 -0.87461971476443456 0 0.48480960649040278 0.48480960649040278 0 0.87461971476443456 forward_v I I I I #
loop $-1 $-1 $215 $51 #
coedge $-1 $131 $131 $132 $216 reversed $81 $-1 #
coedge $-1 $132 $132 $131 $216 forward $83 $-1 #
coedge $-1 $133 $133 $84 $134 forward $128 $-1 #
edge $-1 $217 0 $217 6.2831853071796004 $133 $218 forward 7 unknown #
face $-1 $219 $220 $30 $-1 $221 forward single #
loop $-1 $-1 $222 $85 #
plane-surface $-1 -123.11209447725761 13.177528311590379 44.325525018254716 0 -1 0 0.87461971476443456 0 -0.48480960649040278 forward_v I I I I #
coedge $-1 $223 $224 $225 $226 reversed $86 $-1 #
coedge $-1 $140 $88 $227 $228 reversed $55 $-1 #
coedge $-1 $88 $139 $223 $229 reversed $55 $-1 #
coedge $-1 $225 $230 $88 $142 forward $220 $-1 #
edge $-1 $231 16.775627914308608 $232 21.898986143795156 $141 $233 forward 7 unknown #
loop $-1 $-1 $148 $89 #
plane-surface $-1 -44.780419324320206 7.9702774194511647 0.90557007605691098 -0.87461971476443456 0 0.48480960649040278 0.48480960649040278 0 0.87461971476443456 forward_v I I I I #
loop $-1 $-1 $234 $57 #
coedge $-1 $146 $146 $147 $235 reversed $90 $-1 #
coedge $-1 $147 $147 $146 $235 forward $92 $-1 #
coedge $-1 $148 $148 $93 $149 forward $143 $-1 #
edge $-1 $236 0 $236 6.2831853071796004 $148 $237 forward 7 unknown #
face $-1 $238 $239 $32 $-1 $240 forward single #
loop $-1 $-1 $241 $94 #
plane-surface $-1 79.692139535059795 -13.177528311590383 122.6572001711921 0 1 0 0.87461971476443456 0 0.48480960649040278 forward_v I I I I #
coedge $-1 $242 $243 $244 $245 reversed $95 $-1 #
coedge $-1 $155 $97 $246 $247 reversed $61 $-1 #
coedge $-1 $97 $154 $242 $248 reversed $61 $-1 #
coedge $-1 $244 $249 $97 $157 forward $239 $-1 #
edge $-1 $250 -4.934349556790302 $251 0.18900867269626787 $156 $252 forward 7 unknown #
loop $-1 $-1 $163 $98 #
plane-surface $-1 1.3604643821223874 -7.9702774194511683 79.237245228994297 0.87461971476443456 0 0.48480960649040278 0.48480960649040278 0 -0.87461971476443456 forward_v I I I I #
loop $-1 $-1 $253 $63 #
coedge $-1 $161 $161 $162 $254 reversed $99 $-1 #
coedge $-1 $162 $162 $161 $254 forward $101 $-1 #
coedge $-1 $163 $163 $102 $164 forward $158 $-1 #
edge $-1 $255 0 $255 6.2831853071796004 $163 $256 forward 7 unknown #
face $-1 $257 $258 $34 $-1 $259 reversed single #
loop $-1 $-1 $260 $103 #
plane-surface $-1 79.692139535059795 2.7630265273119514 122.6572001711921 0 1 0 0.87461971476443456 0 0.48480960649040278 forward_v I I I I #
coedge $-1 $261 $262 $263 $264 reversed $104 $-1 #
coedge $-1 $170 $106 $265 $266 reversed $67 $-1 #
coedge $-1 $106 $169 $261 $267 reversed $67 $-1 #
coedge $-1 $263 $268 $106 $172 forward $269 $-1 #
edge $-1 $270 -4.934349556790302 $271 0.18900867269626787 $171 $272 forward 7 unknown #
loop $-1 $-1 $178 $107 #
plane-surface $-1 1.3604643821223874 7.9702774194511647 79.237245228994297 0.87461971476443456 0 0.48480960649040278 0.48480960649040278 0 -0.87461971476443456 forward_v I I I I #
loop $-1 $-1 $273 $69 #
coedge $-1 $176 $176 $177 $274 reversed $108 $-1 #
coedge $-1 $177 $177 $176 $274 forward $110 $-1 #
coedge $-1 $178 $178 $111 $179 forward $173 $-1 #
edge $-1 $275 0 $275 6.2831853071796004 $178 $276 forward 7 unknown #
face $-1 $277 $278 $27 $-1 $279 reversed single #
loop $-1 $-1 $280 $112 #
plane-surface $-1 -44.780419324320199 0 0 1 0 0 0 0 -1 forward_v I I I I #
coedge $-1 $281 $191 $282 $283 forward $113 $-1 #
coedge $-1 $284 $115 $281 $285 forward $73 $-1 #
coedge $-1 $115 $284 $286 $287 forward $73 $-1 #
coedge $-1 $194 $193 $115 $187 reversed $195 $-1 #
edge $-1 $288 -20.901811130524091 $289 20.901811130524091 $186 $290 forward 7 unknown #
coedge $-1 $117 $116 $291 $292 forward $46 $-1 #
coedge $-1 $293 $294 $116 $190 reversed $278 $-1 #
edge $-1 $197 -44.780419324320199 $295 44.780419324320199 $189 $296 forward 7 unknown #
coedge $-1 $183 $297 $117 $192 reversed $113 $-1 #
edge $-1 $298 -44.780419324320199 $196 44.780419324320199 $191 $299 forward 7 unknown #
coedge $-1 $186 $118 $297 $300 forward $195 $-1 #
coedge $-1 $118 $186 $293 $301 reversed $195 $-1 #
loop $-1 $-1 $193 $277 #
vertex $-1 $119 $302 #
vertex $-1 $119 $303 #
straight-curve $-1 44.780419324320199 0 10.148353332246892 0 1 0 I I #
face $-1 $-1 $211 $28 $-1 $304 forward single #
loop $-1 $-1 $305 $120 #
plane-surface $-1 -44.780419324320199 0 0 1 0 0 0 0 -1 forward_v I I I I #
coedge $-1 $306 $307 $308 $309 reversed $121 $-1 #
coedge $-1 $310 $123 $125 $209 forward $77 $-1 #
coedge $-1 $123 $310 $306 $311 forward $77 $-1 #
coedge $-1 $308 $126 $123 $206 forward $211 $-1 #
edge $-1 $213 -9.1923896018647984 $312 1.2221121824136292 $205 $313 forward 7 unknown #
coedge $-1 $314 $315 $124 $208 forward $200 $-1 #
edge $-1 $316 -21.257192433070433 $212 -12.014409176880466 $207 $317 forward 7 unknown #
edge $-1 $213 -10.567773742305116 $316 -1.4611543310094151e-014 $125 $318 forward 7 unknown #
coedge $-1 $126 $308 $314 $319 forward $211 $-1 #
loop $-1 $-1 $308 $199 #
vertex $-1 $208 $320 #
vertex $-1 $127 $321 #
straight-curve $-1 -61.556047238628807 -13.177528311590383 10.148353332246892 1 0 0 I I #
coedge $-1 $215 $215 $-1 $322 reversed $130 $-1 #
edge $-1 $323 0 $323 6.2831853071796004 $131 $324 forward 7 unknown #
vertex $-1 $134 $325 #
ellipse-curve $-1 -42.218740209576929 -7.9702774194511683 5.5269617041519048 -0.87461971476443456 0 0.48480960649040278 1.212024016226007 0 2.1865492869110863 1 I I #
face $-1 $-1 $326 $30 $-1 $327 reversed single #
loop $-1 $-1 $141 $135 #
plane-surface $-1 0 0 10.148353332246892 0 0 1 1 0 0 forward_v I I I I #
coedge $-1 $328 $329 $330 $331 reversed $136 $-1 #
coedge $-1 $332 $138 $140 $229 forward $86 $-1 #
coedge $-1 $138 $332 $328 $333 forward $86 $-1 #
coedge $-1 $330 $141 $138 $226 forward $220 $-1 #
edge $-1 $232 -1.222112182413631 $334 9.1923896018647966 $225 $335 forward 7 unknown #
coedge $-1 $336 $337 $139 $228 forward $326 $-1 #
edge $-1 $338 -21.257192433070433 $231 -12.014409176880466 $227 $339 forward 7 unknown #
edge $-1 $232 -10.567773742305116 $338 -1.4611543310094151e-014 $140 $340 forward 7 unknown #
coedge $-1 $141 $330 $336 $341 forward $220 $-1 #
vertex $-1 $142 $342 #
vertex $-1 $142 $343 #
straight-curve $-1 -61.556047238628807 2.7630265273119514 10.148353332246892 1 0 0 I I #
coedge $-1 $234 $234 $-1 $344 reversed $145 $-1 #
edge $-1 $345 0 $345 6.2831853071796004 $146 $346 forward 7 unknown #
vertex $-1 $149 $347 #
ellipse-curve $-1 -42.218740209576929 7.9702774194511647 5.5269617041519048 -0.87461971476443456 0 0.48480960649040278 1.212024016226007 0 2.1865492869110863 1 I I #
face $-1 $-1 $348 $32 $-1 $349 reversed single #
loop $-1 $-1 $156 $150 #
plane-surface $-1 0 0 10.148353332246892 0 0 1 1 0 0 forward_v I I I I #
coedge $-1 $350 $351 $352 $353 reversed $151 $-1 #
coedge $-1 $354 $153 $155 $248 forward $95 $-1 #
coedge $-1 $153 $354 $350 $355 forward $95 $-1 #
coedge $-1 $352 $156 $153 $245 forward $239 $-1 #
edge $-1 $251 -1.2221121824136292 $356 9.1923896018647984 $244 $357 forward 7 unknown #
coedge $-1 $358 $359 $154 $247 forward $348 $-1 #
edge $-1 $360 -60.423030009539175 $250 -51.180246753349159 $246 $361 forward 7 unknown #
edge $-1 $251 78.993064906335263 $360 89.560838648640413 $155 $362 forward 7 unknown #
coedge $-1 $156 $352 $358 $363 forward $239 $-1 #
vertex $-1 $247 $364 #
vertex $-1 $157 $365 #
straight-curve $-1 39.846069767529897 -2.763026527311955 10.148353332246892 -1 0 0 I I #
coedge $-1 $253 $253 $-1 $366 reversed $160 $-1 #
edge $-1 $367 0 $367 6.2831853071796004 $161 $368 forward 7 unknown #
vertex $-1 $164 $369 #
ellipse-curve $-1 42.218740209576914 -7.9702774194511683 5.5269617041518879 0.87461971476443456 0 0.48480960649040278 1.212024016226007 0 -2.1865492869110863 1 I I #
face $-1 $-1 $269 $34 $-1 $370 forward single #
loop $-1 $-1 $371 $165 #
plane-surface $-1 44.780419324320199 0 0 -1 0 0 0 0 1 forward_v I I I I #
coedge $-1 $372 $373 $374 $375 reversed $166 $-1 #
coedge $-1 $376 $168 $170 $267 forward $104 $-1 #
coedge $-1 $168 $376 $372 $377 forward $104 $-1 #
coedge $-1 $374 $171 $168 $264 forward $269 $-1 #
edge $-1 $271 -9.1923896018647966 $378 1.222112182413631 $263 $379 forward 7 unknown #
coedge $-1 $380 $381 $169 $266 forward $258 $-1 #
edge $-1 $382 -60.423030009539175 $270 -51.180246753349159 $265 $383 forward 7 unknown #
edge $-1 $271 78.993064906335263 $382 89.560838648640413 $170 $384 forward 7 unknown #
coedge $-1 $171 $374 $380 $385 forward $269 $-1 #
loop $-1 $-1 $374 $257 #
vertex $-1 $266 $386 #
vertex $-1 $172 $387 #
straight-curve $-1 39.846069767529897 13.177528311590379 10.148353332246892 -1 0 0 I I #
coedge $-1 $273 $273 $-1 $388 reversed $175 $-1 #
edge $-1 $389 0 $389 6.2831853071796004 $176 $390 forward 7 unknown #
vertex $-1 $179 $391 #
ellipse-curve $-1 42.218740209576914 7.9702774194511647 5.5269617041518879 0.87461971476443456 0 0.48480960649040278 1.212024016226007 0 -2.1865492869110863 1 I I #
face $-1 $-1 $195 $27 $-1 $392 reversed single #
loop $-1 $-1 $293 $180 #
plane-surface $-1 0 20.901811130524091 0 0 -1 0 0 0 -1 forward_v I I I I #
coedge $-1 $393 $291 $294 $394 forward $181 $-1 #
coedge $-1 $297 $183 $184 $285 reversed $113 $-1 #
coedge $-1 $291 $393 $183 $283 reversed $181 $-1 #
edge $-1 $298 -10.148353332246892 $395 10.148353332246892 $282 $396 forward 7 unknown #
coedge $-1 $185 $184 $393 $397 forward $73 $-1 #
edge $-1 $289 -44.780419324320199 $395 44.780419324320199 $281 $398 forward 7 unknown #
coedge $-1 $294 $293 $185 $287 reversed $278 $-1 #
edge $-1 $399 -44.780419324320199 $288 44.780419324320199 $286 $400 forward 7 unknown #
vertex $-1 $187 $401 #
vertex $-1 $300 $402 #
straight-curve $-1 44.780419324320199 0 -10.148353332246892 0 -1 0 I I #
coedge $-1 $280 $282 $188 $292 reversed $181 $-1 #
edge $-1 $295 -20.901811130524091 $298 20.901811130524091 $291 $403 forward 7 unknown #
coedge $-1 $286 $189 $194 $301 forward $278 $-1 #
coedge $-1 $189 $286 $280 $394 reversed $278 $-1 #
vertex $-1 $190 $404 #
straight-curve $-1 0 20.901811130524091 10.148353332246892 -1 0 0 I I #
coedge $-1 $191 $281 $193 $300 reversed $113 $-1 #
vertex $-1 $292 $405 #
straight-curve $-1 0 -20.901811130524091 10.148353332246892 1 0 0 I I #
edge $-1 $196 -10.148353332246892 $289 10.148353332246892 $193 $406 forward 7 unknown #
edge $-1 $197 -10.148353332246892 $288 10.148353332246892 $194 $407 forward 7 unknown #
point $-1 44.780419324320199 -20.901811130524091 10.148353332246892 #
point $-1 44.780419324320199 20.901811130524091 10.148353332246892 #
plane-surface $-1 0 0 10.148353332246892 0 0 1 1 0 0 forward_v I I I I #
coedge $-1 $315 $314 $307 $408 forward $200 $-1 #
coedge $-1 $307 $202 $204 $311 reversed $121 $-1 #
coedge $-1 $202 $306 $305 $408 reversed $121 $-1 #
coedge $-1 $210 $205 $202 $309 forward $211 $-1 #
edge $-1 $312 -21.898986143795156 $409 -16.775627914308608 $308 $410 forward 7 unknown #
coedge $-1 $204 $203 $315 $411 reversed $77 $-1 #
edge $-1 $412 1.4611543310094151e-014 $312 10.567773742305116 $306 $413 forward 7 unknown #
vertex $-1 $206 $414 #
straight-curve $-1 -39.657061094833658 -3.9851387097255841 10.148353332246892 0 1 0 I I #
coedge $-1 $305 $207 $210 $319 reversed $200 $-1 #
coedge $-1 $207 $305 $310 $411 forward $200 $-1 #
vertex $-1 $208 $415 #
straight-curve $-1 -44.780419324320199 -13.177528311590383 22.162762509127358 0 0 1 I I #
straight-curve $-1 -44.780419324320206 -13.177528311590383 0.90557007605691098 -0.48480960649040278 0 -0.87461971476443456 I I #
edge $-1 $409 2.763026527311955 $212 13.177528311590383 $314 $416 forward 7 unknown #
point $-1 -44.780419324320199 -13.177528311590383 10.148353332246892 #
point $-1 -39.657061094833651 -13.177528311590383 10.148353332246892 #
edge $-1 $417 1 $417 0 $215 $-1 forward 7 unknown #
vertex $-1 $216 $418 #
ellipse-curve $-1 -35.019416410725142 -7.9702774194511683 1.5363115061302572 -0.87461971476443456 0 0.48480960649040278 1.212024016226007 0 2.1865492869110863 1 I I #
point $-1 -41.006716193350918 -7.9702774194511683 7.7135109910629875 #
loop $-1 $-1 $227 $219 #
plane-surface $-1 -44.780419324320199 0 0 1 0 0 0 0 -1 forward_v I I I I #
coedge $-1 $329 $222 $224 $333 reversed $136 $-1 #
coedge $-1 $222 $328 $419 $420 reversed $136 $-1 #
coedge $-1 $230 $225 $222 $331 forward $220 $-1 #
edge $-1 $334 -21.898986143795156 $421 -16.775627914308608 $330 $422 forward 7 unknown #
coedge $-1 $224 $223 $337 $423 reversed $86 $-1 #
edge $-1 $424 1.4611543310094151e-014 $334 10.567773742305116 $328 $425 forward 7 unknown #
vertex $-1 $226 $426 #
straight-curve $-1 -39.657061094833658 3.9851387097255824 10.148353332246892 0 1 0 I I #
coedge $-1 $419 $227 $230 $341 reversed $326 $-1 #
coedge $-1 $227 $419 $332 $423 forward $326 $-1 #
vertex $-1 $228 $427 #
straight-curve $-1 -44.780419324320199 2.7630265273119514 22.162762509127358 0 0 1 I I #
straight-curve $-1 -44.780419324320206 2.7630265273119514 0.90557007605691098 -0.48480960649040278 0 -0.87461971476443456 I I #
edge $-1 $421 -13.177528311590379 $231 -2.7630265273119514 $336 $428 forward 7 unknown #
point $-1 -44.780419324320199 2.7630265273119514 10.148353332246892 #
point $-1 -39.657061094833651 2.7630265273119514 10.148353332246892 #
edge $-1 $429 1 $429 0 $234 $-1 forward 7 unknown #
vertex $-1 $235 $430 #
ellipse-curve $-1 -35.019416410725142 7.9702774194511647 1.5363115061302572 -0.87461971476443456 0 0.48480960649040278 1.212024016226007 0 2.1865492869110863 1 I I #
point $-1 -41.006716193350918 7.9702774194511647 7.7135109910629875 #
loop $-1 $-1 $246 $238 #
plane-surface $-1 44.780419324320199 0 0 -1 0 0 0 0 1 forward_v I I I I #
coedge $-1 $351 $241 $243 $355 reversed $151 $-1 #
coedge $-1 $241 $350 $431 $432 reversed $151 $-1 #
coedge $-1 $249 $244 $241 $353 forward $239 $-1 #
edge $-1 $356 -0.18900867269626787 $433 4.934349556790302 $352 $434 forward 7 unknown #
coedge $-1 $243 $242 $359 $435 reversed $95 $-1 #
edge $-1 $436 -89.560838648640413 $356 -78.993064906335263 $350 $437 forward 7 unknown #
vertex $-1 $245 $438 #
straight-curve $-1 39.65706109483363 -3.9851387097255841 10.148353332246892 0 -1 0 I I #
coedge $-1 $431 $246 $249 $363 reversed $348 $-1 #
coedge $-1 $246 $431 $354 $435 forward $348 $-1 #
vertex $-1 $247 $439 #
straight-curve $-1 44.780419324320199 -2.763026527311955 61.328600085596051 0 0 1 I I #
straight-curve $-1 1.3604643821223874 -2.763026527311955 79.237245228994297 0.48480960649040278 0 -0.87461971476443456 I I #
edge $-1 $433 -13.177528311590383 $250 -2.763026527311955 $358 $440 forward 7 unknown #
point $-1 44.780419324320199 -2.763026527311955 10.148353332246892 #
point $-1 39.65706109483363 -2.763026527311955 10.148353332246884 #
edge $-1 $441 1 $441 0 $253 $-1 forward 7 unknown #
vertex $-1 $254 $442 #
ellipse-curve $-1 35.019416410725135 -7.9702774194511683 1.5363115061302448 0.87461971476443456 0 0.48480960649040278 1.212024016226007 0 -2.1865492869110863 1 I I #
point $-1 43.430764225802925 -7.9702774194511683 3.3404124172408025 #
plane-surface $-1 0 0 10.148353332246892 0 0 1 1 0 0 forward_v I I I I #
coedge $-1 $381 $380 $373 $443 forward $258 $-1 #
coedge $-1 $373 $260 $262 $377 reversed $166 $-1 #
coedge $-1 $260 $372 $371 $443 reversed $166 $-1 #
coedge $-1 $268 $263 $260 $375 forward $269 $-1 #
edge $-1 $378 -0.18900867269626787 $444 4.934349556790302 $374 $445 forward 7 unknown #
coedge $-1 $262 $261 $381 $446 reversed $104 $-1 #
edge $-1 $447 -89.560838648640413 $378 -78.993064906335263 $372 $448 forward 7 unknown #
vertex $-1 $264 $449 #
straight-curve $-1 39.65706109483363 3.9851387097255824 10.148353332246892 0 -1 0 I I #
coedge $-1 $371 $265 $268 $385 reversed $258 $-1 #
coedge $-1 $265 $371 $376 $446 forward $258 $-1 #
vertex $-1 $266 $450 #
straight-curve $-1 44.780419324320199 13.177528311590379 61.328600085596051 0 0 1 I I #
straight-curve $-1 1.3604643821223874 13.177528311590379 79.237245228994297 0.48480960649040278 0 -0.87461971476443456 I I #
edge $-1 $444 2.7630265273119514 $270 13.177528311590379 $380 $451 forward 7 unknown #
point $-1 44.780419324320199 13.177528311590379 10.148353332246892 #
point $-1 39.65706109483363 13.177528311590379 10.148353332246884 #
edge $-1 $452 1 $452 0 $273 $-1 forward 7 unknown #
vertex $-1 $274 $453 #
ellipse-curve $-1 35.019416410725135 7.9702774194511647 1.5363115061302448 0.87461971476443456 0 0.48480960649040278 1.212024016226007 0 -2.1865492869110863 1 I I #
point $-1 43.430764225802925 7.9702774194511647 3.3404124172408025 #
plane-surface $-1 44.780419324320199 0 0 -1 0 0 0 0 1 forward_v I I I I #
coedge $-1 $282 $280 $284 $397 reversed $181 $-1 #
edge $-1 $295 -10.148353332246892 $399 10.148353332246892 $294 $454 forward 7 unknown #
vertex $-1 $397 $455 #
straight-curve $-1 -44.780419324320199 -20.901811130524091 0 0 0 -1 I I #
edge $-1 $395 -20.901811130524091 $399 20.901811130524091 $393 $456 forward 7 unknown #
straight-curve $-1 0 -20.901811130524091 -10.148353332246892 -1 0 0 I I #
vertex $-1 $287 $457 #
straight-curve $-1 0 20.901811130524091 -10.148353332246892 1 0 0 I I #
point $-1 44.780419324320199 20.901811130524091 -10.148353332246892 #
point $-1 44.780419324320199 -20.901811130524091 -10.148353332246892 #
straight-curve $-1 -44.780419324320199 0 10.148353332246892 0 -1 0 I I #
point $-1 -44.780419324320199 20.901811130524091 10.148353332246892 #
point $-1 -44.780419324320199 -20.901811130524091 10.148353332246892 #
straight-curve $-1 44.780419324320199 -20.901811130524091 0 0 0 -1 I I #
straight-curve $-1 44.780419324320199 20.901811130524091 0 0 0 -1 I I #
edge $-1 $409 12.014409176880466 $412 21.257192433070433 $305 $458 forward 7 unknown #
vertex $-1 $319 $459 #
straight-curve $-1 -61.556047238628807 -2.763026527311955 10.148353332246892 -1 0 0 I I #
edge $-1 $412 -1.2221121824136292 $316 9.1923896018647984 $315 $460 forward 7 unknown #
vertex $-1 $411 $461 #
straight-curve $-1 -44.780419324320206 -2.763026527311955 0.90557007605691098 0.48480960649040278 0 0.87461971476443456 I I #
point $-1 -39.657061094833651 -2.763026527311955 10.148353332246892 #
point $-1 -44.780419324320199 -13.177528311590383 0.90557007605692375 #
straight-curve $-1 -44.780419324320199 0 10.148353332246892 0 -1 0 I I #
vertex $-1 $322 $462 #
point $-1 -33.807392394499132 -7.9702774194511683 3.7228607930413435 #
coedge $-1 $337 $336 $329 $420 forward $326 $-1 #
edge $-1 $421 12.014409176880466 $424 21.257192433070433 $419 $463 forward 7 unknown #
vertex $-1 $341 $464 #
straight-curve $-1 -61.556047238628807 13.177528311590379 10.148353332246892 -1 0 0 I I #
edge $-1 $424 -9.1923896018647966 $338 1.222112182413631 $337 $465 forward 7 unknown #
vertex $-1 $423 $466 #
straight-curve $-1 -44.780419324320206 13.177528311590379 0.90557007605691098 0.48480960649040278 0 0.87461971476443456 I I #
point $-1 -39.657061094833651 13.177528311590379 10.148353332246892 #
point $-1 -44.780419324320199 2.7630265273119514 0.90557007605692375 #
straight-curve $-1 -44.780419324320199 0 10.148353332246892 0 -1 0 I I #
vertex $-1 $344 $467 #
point $-1 -33.807392394499132 7.9702774194511647 3.7228607930413435 #
coedge $-1 $359 $358 $351 $432 forward $348 $-1 #
edge $-1 $433 51.180246753349159 $436 60.423030009539175 $431 $468 forward 7 unknown #
vertex $-1 $363 $469 #
straight-curve $-1 39.846069767529897 -13.177528311590383 10.148353332246892 1 0 0 I I #
edge $-1 $436 -9.1923896018647984 $360 1.2221121824136292 $359 $470 forward 7 unknown #
vertex $-1 $435 $471 #
straight-curve $-1 1.3604643821223874 -13.177528311590383 79.237245228994297 -0.48480960649040278 0 0.87461971476443456 I I #
point $-1 39.65706109483363 -13.177528311590383 10.148353332246884 #
point $-1 44.780419324320199 -2.763026527311955 0.90557007605687545 #
straight-curve $-1 44.780419324320199 0 10.148353332246892 0 1 0 I I #
vertex $-1 $366 $472 #
point $-1 36.231440426951139 -7.9702774194511683 -0.65023778078084149 #
edge $-1 $444 51.180246753349159 $447 60.423030009539175 $371 $473 forward 7 unknown #
vertex $-1 $385 $474 #
straight-curve $-1 39.846069767529897 2.7630265273119514 10.148353332246892 1 0 0 I I #
edge $-1 $447 -1.222112182413631 $382 9.1923896018647966 $381 $475 forward 7 unknown #
vertex $-1 $446 $476 #
straight-curve $-1 1.3604643821223874 2.7630265273119514 79.237245228994297 -0.48480960649040278 0 0.87461971476443456 I I #
point $-1 39.65706109483363 2.7630265273119514 10.148353332246884 #
point $-1 44.780419324320199 13.177528311590379 0.90557007605687545 #
straight-curve $-1 44.780419324320199 0 10.148353332246892 0 1 0 I I #
vertex $-1 $388 $477 #
point $-1 36.231440426951139 7.9702774194511647 -0.65023778078084149 #
straight-curve $-1 -44.780419324320199 20.901811130524091 0 0 0 -1 I I #
point $-1 -44.780419324320199 -20.901811130524091 -10.148353332246892 #
straight-curve $-1 -44.780419324320199 0 -10.148353332246892 0 1 0 I I #
point $-1 -44.780419324320199 20.901811130524091 -10.148353332246892 #
straight-curve $-1 -44.780419324320199 -2.763026527311955 22.162762509127358 0 0 -1 I I #
point $-1 -44.780419324320199 -2.763026527311955 10.148353332246892 #
straight-curve $-1 -44.780419324320199 -3.9851387097255841 0.90557007605693451 0 -1 0 I I #
point $-1 -44.780419324320199 -2.763026527311955 0.90557007605692375 #
point $-1 -32.832867123814054 -7.9702774194511683 0.32428748990425038 #
straight-curve $-1 -44.780419324320199 13.177528311590379 22.162762509127358 0 0 -1 I I #
point $-1 -44.780419324320199 13.177528311590379 10.148353332246892 #
straight-curve $-1 -44.780419324320199 3.9851387097255824 0.90557007605693451 0 -1 0 I I #
point $-1 -44.780419324320199 13.177528311590379 0.90557007605692375 #
point $-1 -32.832867123814054 7.9702774194511647 0.32428748990425038 #
straight-curve $-1 44.780419324320199 -13.177528311590383 61.328600085596051 0 0 -1 I I #
point $-1 44.780419324320199 -13.177528311590383 10.148353332246892 #
straight-curve $-1 44.780419324320199 -3.9851387097255841 0.90557007605686834 0 1 0 I I #
point $-1 44.780419324320199 -13.177528311590383 0.90557007605687545 #
point $-1 32.832867123814047 -7.9702774194511683 0.32428748990423795 #
straight-curve $-1 44.780419324320199 2.7630265273119514 61.328600085596051 0 0 -1 I I #
point $-1 44.780419324320199 2.7630265273119514 10.148353332246892 #
straight-curve $-1 44.780419324320199 3.9851387097255824 0.90557007605686834 0 1 0 I I #
point $-1 44.780419324320199 2.7630265273119514 0.90557007605687545 #
point $-1 32.832867123814047 7.9702774194511647 0.32428748990423795 #
End-of-ACIS-data 