500 0 10 0           
7 Unknown 11 ACIS 5.0 NT 24 Fri Mar 26 01:39:36 1999 
-1 9.9999999999999995e-007 1e-010 
body $-1 $10 $-1 $11 #
body $-1 $12 $-1 $13 #
body $-1 $14 $-1 $15 #
body $-1 $16 $-1 $17 #
body $-1 $18 $-1 $19 #
body $-1 $20 $-1 $21 #
body $-1 $22 $-1 $23 #
body $-1 $24 $-1 $25 #
body $-1 $26 $-1 $27 #
body $-1 $28 $-1 $29 #
lump $-1 $-1 $30 $0 #
transform $-1 1 0 0 0 1 0 0 0 1 42.627033295693842 29.174676863894128 7.3713537936393179 1 rotate no_reflect no_shear #
lump $-1 $-1 $31 $1 #
transform $-1 1 0 0 0 1 0 0 0 1 42.627033295693842 29.174676863894128 7.3713537936393179 1 rotate no_reflect no_shear #
lump $-1 $-1 $32 $2 #
transform $-1 1 0 0 0 1 0 0 0 1 42.627033295693842 29.174676863894128 7.3713537936393179 1 rotate no_reflect no_shear #
lump $-1 $-1 $33 $3 #
transform $-1 1 0 0 0 1 0 0 0 1 42.627033295693842 29.174676863894128 7.3713537936393179 1 rotate no_reflect no_shear #
lump $-1 $-1 $34 $4 #
transform $-1 1 0 0 0 1 0 0 0 1 42.627033295693842 29.174676863894128 7.3713537936393179 1 rotate no_reflect no_shear #
lump $-1 $-1 $35 $5 #
transform $-1 1 0 0 0 1 0 0 0 1 42.627033295693842 29.174676863894128 7.3713537936393179 1 rotate no_reflect no_shear #
lump $-1 $-1 $36 $6 #
transform $-1 1 0 0 0 1 0 0 0 1 42.627033295693842 29.174676863894128 7.3713537936393179 1 rotate no_reflect no_shear #
lump $-1 $-1 $37 $7 #
transform $-1 1 0 0 0 1 0 0 0 1 42.627033295693842 29.174676863894128 7.3713537936393179 1 rotate no_reflect no_shear #
lump $-1 $-1 $38 $8 #
transform $-1 1 0 0 0 1 0 0 0 1 42.627033295693842 29.174676863894128 7.3713537936393179 1 rotate no_reflect no_shear #
lump $-1 $-1 $39 $9 #
transform $-1 1 0 0 0 1 0 0 0 1 42.627033295693842 29.174676863894128 7.3713537936393179 1 rotate no_reflect no_shear #
shell $-1 $-1 $-1 $40 $-1 $10 #
shell $-1 $-1 $-1 $41 $-1 $12 #
shell $-1 $-1 $-1 $42 $-1 $14 #
shell $-1 $-1 $-1 $43 $-1 $16 #
shell $-1 $-1 $-1 $44 $-1 $18 #
shell $-1 $-1 $-1 $45 $-1 $20 #
shell $-1 $-1 $-1 $46 $-1 $22 #
shell $-1 $-1 $-1 $47 $-1 $24 #
shell $-1 $-1 $-1 $48 $-1 $26 #
shell $-1 $-1 $-1 $49 $-1 $28 #
face $-1 $50 $51 $30 $-1 $52 forward single #
face $-1 $53 $54 $31 $-1 $55 forward single #
face $-1 $56 $57 $32 $-1 $58 reversed single #
face $-1 $59 $60 $33 $-1 $61 forward single #
face $-1 $62 $63 $34 $-1 $64 reversed single #
face $-1 $65 $66 $35 $-1 $67 forward single #
face $-1 $68 $69 $36 $-1 $70 reversed single #
face $-1 $71 $72 $37 $-1 $73 forward single #
face $-1 $74 $75 $38 $-1 $76 reversed single #
face $-1 $77 $78 $39 $-1 $79 forward single #
face $-1 $80 $81 $30 $-1 $82 reversed single #
loop $-1 $-1 $83 $40 #
plane-surface $-1 0 0 7.3713537936393179 0 0 1 1 0 0 forward_v I I I I #
face $-1 $84 $85 $31 $-1 $86 reversed single #
loop $-1 $-1 $87 $41 #
plane-surface $-1 0 -29.174676863894128 0 0 1 0 0 0 1 forward_v I I I I #
face $-1 $88 $89 $32 $-1 $90 reversed single #
loop $-1 $-1 $91 $42 #
plane-surface $-1 42.62703469458399 -2.6428884868523781 121.58081832871403 0 -1 0 -0.70710678939079041 0 -0.70710677298230451 forward_v I I I I #
face $-1 $92 $93 $33 $-1 $94 forward single #
loop $-1 $95 $96 $43 #
cone-surface $-1 37.455203056961821 -7.0603804634044387 2.199523527382278 -0.70710678939079041 0 -0.70710677298230451 1.414213545964609 0 -1.4142135787815808 1 I I 0 1 2 forward I I I I #
face $-1 $97 $98 $34 $-1 $99 reversed single #
loop $-1 $-1 $100 $44 #
plane-surface $-1 42.62703469458399 22.204621255400948 121.58081832871403 0 -1 0 -0.70710678939079041 0 -0.70710677298230451 forward_v I I I I #
face $-1 $101 $102 $35 $-1 $103 forward single #
loop $-1 $104 $105 $45 #
cone-surface $-1 37.455203056961821 17.787129278848887 2.199523527382278 -0.70710678939079041 0 -0.70710677298230451 1.414213545964609 0 -1.4142135787815808 1 I I 0 1 2 forward I I I I #
face $-1 $106 $107 $36 $-1 $108 reversed single #
loop $-1 $-1 $109 $46 #
plane-surface $-1 -102.91076260563864 -11.477872439956499 61.297089018769242 0 1 0 -0.70710678939079041 0 0.70710677298230451 forward_v I I I I #
face $-1 $110 $111 $37 $-1 $112 forward single #
loop $-1 $113 $114 $47 #
cone-surface $-1 -37.455203056961821 -7.0603804634044387 2.1995235273822762 0.70710678939079041 0 -0.70710677298230451 1.414213545964609 0 1.4142135787815808 1 I I 0 1 2 forward I I I I #
face $-1 $115 $116 $38 $-1 $117 reversed single #
loop $-1 $-1 $118 $48 #
plane-surface $-1 -102.91076260563864 13.369637302296827 61.297089018769242 0 1 0 -0.70710678939079041 0 0.70710677298230451 forward_v I I I I #
face $-1 $119 $120 $39 $-1 $121 forward single #
loop $-1 $122 $123 $49 #
cone-surface $-1 -37.455203056961821 17.787129278848887 2.1995235273822762 0.70710678939079041 0 -0.70710677298230451 1.414213545964609 0 1.4142135787815808 1 I I 0 1 2 forward I I I I #
face $-1 $124 $125 $30 $-1 $126 reversed single #
loop $-1 $-1 $127 $50 #
plane-surface $-1 0 0 -7.3713537936393179 0 0 1 1 0 0 forward_v I I I I #
coedge $-1 $128 $129 $130 $131 forward $51 $-1 #
face $-1 $132 $133 $31 $-1 $134 forward single #
loop $-1 $-1 $135 $53 #
plane-surface $-1 -42.627033295693842 0 0 1 0 0 0 0 -1 forward_v I I I I #
coedge $-1 $136 $137 $138 $139 forward $54 $-1 #
face $-1 $140 $141 $32 $-1 $142 reversed single #
loop $-1 $-1 $143 $56 #
plane-surface $-1 -17.656694615360813 -7.0603804634044387 61.297090417659376 0.70710678939079041 0 0.70710677298230451 0.70710677298230451 0 -0.70710678939079041 forward_v I I I I #
coedge $-1 $144 $145 $146 $147 reversed $57 $-1 #
face $-1 $-1 $148 $33 $-1 $149 forward single #
loop $-1 $150 $151 $59 #
cone-surface $-1 34.755262298032427 -7.0603804634044387 -0.50041716889470944 -0.70710678939079041 0 -0.70710677298230451 0.70710677298230451 0 -0.70710678939079041 1 I I -0.70710678118654746 0.70710678118654746 1 forward I I I I #
loop $-1 $-1 $152 $43 #
coedge $-1 $96 $96 $153 $154 reversed $60 $-1 #
face $-1 $155 $156 $34 $-1 $157 reversed single #
loop $-1 $-1 $158 $62 #
plane-surface $-1 -17.656694615360813 17.787129278848887 61.297090417659376 0.70710678939079041 0 0.70710677298230451 0.70710677298230451 0 -0.70710678939079041 forward_v I I I I #
coedge $-1 $159 $160 $161 $162 reversed $63 $-1 #
face $-1 $-1 $163 $35 $-1 $164 forward single #
loop $-1 $165 $166 $65 #
cone-surface $-1 34.755262298032427 17.787129278848887 -0.50041716889470944 -0.70710678939079041 0 -0.70710677298230451 0.70710677298230451 0 -0.70710678939079041 1 I I -0.70710678118654746 0.70710678118654746 1 forward I I I I #
loop $-1 $-1 $167 $45 #
coedge $-1 $105 $105 $168 $169 reversed $66 $-1 #
face $-1 $170 $171 $36 $-1 $172 reversed single #
loop $-1 $-1 $173 $68 #
plane-surface $-1 -42.627033295693835 -7.0603804634044387 1.0133611077145872 -0.70710678939079041 0 0.70710677298230451 0.70710677298230451 0 0.70710678939079041 forward_v I I I I #
coedge $-1 $174 $175 $176 $177 reversed $69 $-1 #
face $-1 $-1 $178 $37 $-1 $179 forward single #
loop $-1 $180 $181 $71 #
cone-surface $-1 -34.755262298032427 -7.0603804634044387 -0.50041716889471122 0.70710678939079041 0 -0.70710677298230451 0.70710677298230451 0 0.70710678939079041 1 I I -0.70710678118654746 0.70710678118654746 1 forward I I I I #
loop $-1 $-1 $182 $47 #
coedge $-1 $114 $114 $183 $184 reversed $72 $-1 #
face $-1 $185 $186 $38 $-1 $187 reversed single #
loop $-1 $-1 $188 $74 #
plane-surface $-1 -42.627033295693835 17.787129278848887 1.0133611077145872 -0.70710678939079041 0 0.70710677298230451 0.70710677298230451 0 0.70710678939079041 forward_v I I I I #
coedge $-1 $189 $190 $191 $192 reversed $75 $-1 #
face $-1 $-1 $193 $39 $-1 $194 forward single #
loop $-1 $195 $196 $77 #
cone-surface $-1 -34.755262298032427 17.787129278848887 -0.50041716889471122 0.70710678939079041 0 -0.70710677298230451 0.70710677298230451 0 0.70710678939079041 1 I I -0.70710678118654746 0.70710678118654746 1 forward I I I I #
loop $-1 $-1 $197 $49 #
coedge $-1 $123 $123 $198 $199 reversed $78 $-1 #
face $-1 $200 $201 $30 $-1 $202 reversed single #
loop $-1 $-1 $203 $80 #
plane-surface $-1 0 -29.174676863894128 0 0 1 0 0 0 1 forward_v I I I I #
coedge $-1 $204 $205 $206 $207 forward $81 $-1 #
coedge $-1 $208 $83 $209 $210 forward $51 $-1 #
coedge $-1 $83 $208 $211 $212 forward $51 $-1 #
coedge $-1 $213 $214 $83 $131 reversed $215 $-1 #
edge $-1 $216 -29.174676863894128 $217 29.174676863894128 $130 $218 forward 7 unknown #
face $-1 $219 $220 $31 $-1 $221 reversed single #
loop $-1 $-1 $222 $84 #
plane-surface $-1 0 -33.501843985534926 4.771659371568278 0 0 1 1 0 0 forward_v I I I I #
coedge $-1 $223 $224 $137 $225 forward $85 $-1 #
coedge $-1 $226 $87 $227 $228 reversed $54 $-1 #
coedge $-1 $87 $226 $135 $225 reversed $54 $-1 #
coedge $-1 $229 $222 $87 $139 reversed $133 $-1 #
edge $-1 $230 -42.627033295693842 $231 42.627033295693842 $138 $232 forward 7 unknown #
face $-1 $233 $234 $32 $-1 $235 reversed single #
loop $-1 $-1 $236 $88 #
plane-surface $-1 42.62703469458399 -11.477872439956499 121.58081832871403 0 1 0 0.70710678939079041 0 0.70710677298230451 forward_v I I I I #
coedge $-1 $237 $238 $239 $240 reversed $89 $-1 #
coedge $-1 $145 $91 $241 $242 reversed $57 $-1 #
coedge $-1 $91 $144 $237 $243 reversed $57 $-1 #
coedge $-1 $239 $244 $91 $147 forward $245 $-1 #
edge $-1 $246 -21.313515948401847 $247 -14.955523410014973 $146 $248 forward 7 unknown #
loop $-1 $-1 $153 $92 #
plane-surface $-1 -17.656694615360813 -7.0603804634044387 61.297090417659376 0.70710678939079041 0 0.70710677298230451 0.70710677298230451 0 -0.70710678939079041 forward_v I I I I #
loop $-1 $-1 $249 $59 #
coedge $-1 $151 $151 $152 $250 reversed $93 $-1 #
coedge $-1 $152 $152 $151 $250 forward $95 $-1 #
coedge $-1 $153 $153 $96 $154 forward $148 $-1 #
edge $-1 $251 0 $251 6.2831853071796004 $153 $252 forward 7 unknown #
face $-1 $253 $254 $34 $-1 $255 reversed single #
loop $-1 $-1 $256 $97 #
plane-surface $-1 42.62703469458399 13.369637302296827 121.58081832871403 0 1 0 0.70710678939079041 0 0.70710677298230451 forward_v I I I I #
coedge $-1 $257 $258 $259 $260 reversed $98 $-1 #
coedge $-1 $160 $100 $261 $262 reversed $63 $-1 #
coedge $-1 $100 $159 $257 $263 reversed $63 $-1 #
coedge $-1 $259 $264 $100 $162 forward $265 $-1 #
edge $-1 $266 -21.313515948401847 $267 -14.955523410014973 $161 $268 forward 7 unknown #
loop $-1 $-1 $168 $101 #
plane-surface $-1 -17.656694615360813 17.787129278848887 61.297090417659376 0.70710678939079041 0 0.70710677298230451 0.70710677298230451 0 -0.70710678939079041 forward_v I I I I #
loop $-1 $-1 $269 $65 #
coedge $-1 $166 $166 $167 $270 reversed $102 $-1 #
coedge $-1 $167 $167 $166 $270 forward $104 $-1 #
coedge $-1 $168 $168 $105 $169 forward $163 $-1 #
edge $-1 $271 0 $271 6.2831853071796004 $168 $272 forward 7 unknown #
face $-1 $273 $274 $36 $-1 $275 forward single #
loop $-1 $-1 $276 $106 #
plane-surface $-1 -102.91076260563864 -2.6428884868523781 61.297089018769242 0 -1 0 0.70710678939079041 0 -0.70710677298230451 forward_v I I I I #
coedge $-1 $277 $278 $279 $280 reversed $107 $-1 #
coedge $-1 $175 $109 $281 $282 reversed $69 $-1 #
coedge $-1 $109 $174 $277 $283 reversed $69 $-1 #
coedge $-1 $279 $284 $109 $177 forward $274 $-1 #
edge $-1 $285 8.8283480071254772 $286 15.186340545512337 $176 $287 forward 7 unknown #
loop $-1 $-1 $183 $110 #
plane-surface $-1 -42.627033295693835 -7.0603804634044387 1.0133611077145872 -0.70710678939079041 0 0.70710677298230451 0.70710677298230451 0 0.70710678939079041 forward_v I I I I #
loop $-1 $-1 $288 $71 #
coedge $-1 $181 $181 $182 $289 reversed $111 $-1 #
coedge $-1 $182 $182 $181 $289 forward $113 $-1 #
coedge $-1 $183 $183 $114 $184 forward $178 $-1 #
edge $-1 $290 0 $290 6.2831853071796004 $183 $291 forward 7 unknown #
face $-1 $292 $293 $38 $-1 $294 forward single #
loop $-1 $-1 $295 $115 #
plane-surface $-1 -102.91076260563864 22.204621255400948 61.297089018769242 0 -1 0 0.70710678939079041 0 -0.70710677298230451 forward_v I I I I #
coedge $-1 $296 $297 $298 $299 reversed $116 $-1 #
coedge $-1 $190 $118 $300 $301 reversed $75 $-1 #
coedge $-1 $118 $189 $296 $302 reversed $75 $-1 #
coedge $-1 $298 $303 $118 $192 forward $293 $-1 #
edge $-1 $304 8.8283480071254772 $305 15.186340545512337 $191 $306 forward 7 unknown #
loop $-1 $-1 $198 $119 #
plane-surface $-1 -42.627033295693835 17.787129278848887 1.0133611077145872 -0.70710678939079041 0 0.70710677298230451 0.70710677298230451 0 0.70710678939079041 forward_v I I I I #
loop $-1 $-1 $307 $77 #
coedge $-1 $196 $196 $197 $308 reversed $120 $-1 #
coedge $-1 $197 $197 $196 $308 forward $122 $-1 #
coedge $-1 $198 $198 $123 $199 forward $193 $-1 #
edge $-1 $309 0 $309 6.2831853071796004 $198 $310 forward 7 unknown #
face $-1 $311 $312 $30 $-1 $313 reversed single #
loop $-1 $-1 $314 $124 #
plane-surface $-1 -42.627033295693842 0 0 1 0 0 0 0 -1 forward_v I I I I #
coedge $-1 $315 $211 $316 $317 forward $125 $-1 #
coedge $-1 $318 $127 $315 $319 forward $81 $-1 #
coedge $-1 $127 $318 $320 $321 forward $81 $-1 #
coedge $-1 $214 $213 $127 $207 reversed $215 $-1 #
edge $-1 $322 -29.174676863894128 $323 29.174676863894128 $206 $324 forward 7 unknown #
coedge $-1 $129 $128 $325 $326 forward $51 $-1 #
coedge $-1 $327 $328 $128 $210 reversed $312 $-1 #
edge $-1 $217 -42.627033295693842 $329 42.627033295693842 $209 $330 forward 7 unknown #
coedge $-1 $203 $331 $129 $212 reversed $125 $-1 #
edge $-1 $332 -42.627033295693842 $216 42.627033295693842 $211 $333 forward 7 unknown #
coedge $-1 $206 $130 $331 $334 forward $215 $-1 #
coedge $-1 $130 $206 $327 $335 reversed $215 $-1 #
loop $-1 $-1 $213 $311 #
vertex $-1 $131 $336 #
vertex $-1 $131 $337 #
straight-curve $-1 42.627033295693842 0 7.3713537936393179 0 1 0 I I #
face $-1 $338 $339 $31 $-1 $340 reversed single #
loop $-1 $-1 $341 $132 #
plane-surface $-1 0 -33.501843985534926 0.41093680903086893 0 0 1 1 0 0 forward_v I I I I #
coedge $-1 $138 $342 $343 $344 forward $133 $-1 #
coedge $-1 $345 $135 $346 $347 reversed $85 $-1 #
coedge $-1 $135 $345 $229 $348 reversed $85 $-1 #
edge $-1 $230 -4.771659371568278 $349 -0.41093680903086893 $135 $350 forward 7 unknown #
coedge $-1 $137 $136 $351 $352 forward $54 $-1 #
coedge $-1 $343 $353 $136 $228 forward $354 $-1 #
edge $-1 $355 0.41093680903086893 $231 4.771659371568278 $227 $356 forward 7 unknown #
coedge $-1 $342 $138 $224 $348 forward $133 $-1 #
vertex $-1 $225 $357 #
vertex $-1 $344 $358 #
straight-curve $-1 0 -29.174676863894128 4.771659371568278 1 0 0 I I #
face $-1 $-1 $245 $32 $-1 $359 forward single #
loop $-1 $-1 $360 $140 #
plane-surface $-1 42.627033295693842 0 0 -1 0 0 0 0 1 forward_v I I I I #
coedge $-1 $361 $362 $363 $364 reversed $141 $-1 #
coedge $-1 $365 $143 $145 $243 forward $89 $-1 #
coedge $-1 $143 $365 $361 $366 forward $89 $-1 #
coedge $-1 $363 $146 $143 $240 forward $245 $-1 #
edge $-1 $247 -0.88730174484984126 $367 7.94768220825428 $239 $368 forward 7 unknown #
coedge $-1 $369 $370 $144 $242 forward $234 $-1 #
edge $-1 $371 -59.777048056642442 $246 -53.4190553707177 $241 $372 forward 7 unknown #
edge $-1 $247 76.262507209809044 $371 85.254066591387726 $145 $373 forward 7 unknown #
coedge $-1 $146 $363 $369 $374 forward $245 $-1 #
loop $-1 $-1 $363 $233 #
vertex $-1 $242 $375 #
vertex $-1 $147 $376 #
straight-curve $-1 21.313517347291995 -2.6428884868523781 7.3713537936393152 -1 0 0 I I #
coedge $-1 $249 $249 $-1 $377 reversed $150 $-1 #
edge $-1 $378 0 $378 6.2831853071796004 $151 $379 forward 7 unknown #
vertex $-1 $154 $380 #
ellipse-curve $-1 39.448037026500408 -7.0603804634044387 4.1923574506769441 0.70710678939079041 0 0.70710677298230451 1.414213545964609 0 -1.4142135787815808 1 I I #
face $-1 $-1 $265 $34 $-1 $381 forward single #
loop $-1 $-1 $382 $155 #
plane-surface $-1 42.627033295693842 0 0 -1 0 0 0 0 1 forward_v I I I I #
coedge $-1 $383 $384 $385 $386 reversed $156 $-1 #
coedge $-1 $387 $158 $160 $263 forward $98 $-1 #
coedge $-1 $158 $387 $383 $388 forward $98 $-1 #
coedge $-1 $385 $161 $158 $260 forward $265 $-1 #
edge $-1 $267 -13.311056615976504 $389 -4.476072662872383 $259 $390 forward 7 unknown #
coedge $-1 $391 $392 $159 $262 forward $254 $-1 #
edge $-1 $393 -59.777048056642442 $266 -53.4190553707177 $261 $394 forward 7 unknown #
edge $-1 $267 76.262507209809044 $393 85.254066591387726 $160 $395 forward 7 unknown #
coedge $-1 $161 $385 $391 $396 forward $265 $-1 #
loop $-1 $-1 $385 $253 #
vertex $-1 $262 $397 #
vertex $-1 $162 $398 #
straight-curve $-1 21.313517347291995 22.204621255400948 7.3713537936393152 -1 0 0 I I #
coedge $-1 $269 $269 $-1 $399 reversed $165 $-1 #
edge $-1 $400 0 $400 6.2831853071796004 $166 $401 forward 7 unknown #
vertex $-1 $169 $402 #
ellipse-curve $-1 39.448037026500408 17.787129278848887 4.1923574506769441 0.70710678939079041 0 0.70710677298230451 1.414213545964609 0 -1.4142135787815808 1 I I #
face $-1 $-1 $403 $36 $-1 $404 reversed single #
loop $-1 $-1 $176 $170 #
plane-surface $-1 0 0 7.3713537936393179 0 0 1 1 0 0 forward_v I I I I #
coedge $-1 $405 $406 $407 $408 reversed $171 $-1 #
coedge $-1 $409 $173 $175 $283 forward $107 $-1 #
coedge $-1 $173 $409 $405 $410 forward $107 $-1 #
coedge $-1 $407 $176 $173 $280 forward $274 $-1 #
edge $-1 $286 -7.94768220825428 $411 0.88730174484984126 $279 $412 forward 7 unknown #
coedge $-1 $413 $414 $174 $282 forward $403 $-1 #
edge $-1 $415 -29.635183401670041 $285 -23.277190715745302 $281 $416 forward 7 unknown #
edge $-1 $286 -8.9915593815786661 $415 1.0048591735576163e-014 $175 $417 forward 7 unknown #
coedge $-1 $176 $407 $413 $418 forward $274 $-1 #
vertex $-1 $177 $419 #
vertex $-1 $177 $420 #
straight-curve $-1 -51.455381302819319 -11.477872439956499 7.3713537936393188 1 0 0 I I #
coedge $-1 $288 $288 $-1 $421 reversed $180 $-1 #
edge $-1 $422 0 $422 6.2831853071796004 $181 $423 forward 7 unknown #
vertex $-1 $184 $424 #
ellipse-curve $-1 -39.448037026500408 -7.0603804634044387 4.1923574506769485 -0.70710678939079041 0 0.70710677298230451 1.414213545964609 0 1.4142135787815808 1 I I #
face $-1 $-1 $425 $38 $-1 $426 reversed single #
loop $-1 $-1 $191 $185 #
plane-surface $-1 0 0 7.3713537936393179 0 0 1 1 0 0 forward_v I I I I #
coedge $-1 $427 $428 $429 $430 reversed $186 $-1 #
coedge $-1 $431 $188 $190 $302 forward $116 $-1 #
coedge $-1 $188 $431 $427 $432 forward $116 $-1 #
coedge $-1 $429 $191 $188 $299 forward $293 $-1 #
edge $-1 $305 4.476072662872383 $433 13.311056615976504 $298 $434 forward 7 unknown #
coedge $-1 $435 $436 $189 $301 forward $425 $-1 #
edge $-1 $437 -29.635183401670041 $304 -23.277190715745302 $300 $438 forward 7 unknown #
edge $-1 $305 -8.9915593815786661 $437 1.0048591735576163e-014 $190 $439 forward 7 unknown #
coedge $-1 $191 $429 $435 $440 forward $293 $-1 #
vertex $-1 $192 $441 #
vertex $-1 $192 $442 #
straight-curve $-1 -51.455381302819319 13.369637302296827 7.3713537936393188 1 0 0 I I #
coedge $-1 $307 $307 $-1 $443 reversed $195 $-1 #
edge $-1 $444 0 $444 6.2831853071796004 $196 $445 forward 7 unknown #
vertex $-1 $199 $446 #
ellipse-curve $-1 -39.448037026500408 17.787129278848887 4.1923574506769485 -0.70710678939079041 0 0.70710677298230451 1.414213545964609 0 1.4142135787815808 1 I I #
face $-1 $-1 $215 $30 $-1 $447 reversed single #
loop $-1 $-1 $327 $200 #
plane-surface $-1 0 29.174676863894128 0 0 -1 0 0 0 -1 forward_v I I I I #
coedge $-1 $448 $325 $328 $449 forward $201 $-1 #
coedge $-1 $331 $203 $204 $319 reversed $125 $-1 #
coedge $-1 $325 $448 $203 $317 reversed $201 $-1 #
edge $-1 $332 -7.3713537936393179 $450 7.3713537936393179 $316 $451 forward 7 unknown #
coedge $-1 $205 $204 $448 $452 forward $81 $-1 #
edge $-1 $323 -42.627033295693842 $450 42.627033295693842 $315 $453 forward 7 unknown #
coedge $-1 $328 $327 $205 $321 reversed $312 $-1 #
edge $-1 $454 -42.627033295693842 $322 42.627033295693842 $320 $455 forward 7 unknown #
vertex $-1 $207 $456 #
vertex $-1 $334 $457 #
straight-curve $-1 42.627033295693842 0 -7.3713537936393179 0 -1 0 I I #
coedge $-1 $314 $316 $208 $326 reversed $201 $-1 #
edge $-1 $329 -29.174676863894128 $332 29.174676863894128 $325 $458 forward 7 unknown #
coedge $-1 $320 $209 $214 $335 forward $312 $-1 #
coedge $-1 $209 $320 $314 $449 reversed $312 $-1 #
vertex $-1 $210 $459 #
straight-curve $-1 0 29.174676863894128 7.3713537936393179 -1 0 0 I I #
coedge $-1 $211 $315 $213 $334 reversed $125 $-1 #
vertex $-1 $326 $460 #
straight-curve $-1 0 -29.174676863894128 7.3713537936393179 1 0 0 I I #
edge $-1 $216 -7.3713537936393179 $323 7.3713537936393179 $213 $461 forward 7 unknown #
edge $-1 $217 -7.3713537936393179 $322 7.3713537936393179 $214 $462 forward 7 unknown #
point $-1 42.627033295693842 -29.174676863894128 7.3713537936393179 #
point $-1 42.627033295693842 29.174676863894128 7.3713537936393179 #
face $-1 $-1 $354 $31 $-1 $463 reversed single #
loop $-1 $-1 $464 $219 #
plane-surface $-1 0 -37.829011107175724 2.5912980902995733 0 1 0 0 0 1 forward_v I I I I #
coedge $-1 $465 $351 $353 $466 forward $220 $-1 #
coedge $-1 $222 $229 $467 $468 forward $133 $-1 #
coedge $-1 $469 $227 $222 $344 reversed $354 $-1 #
edge $-1 $470 -4.3271671216407981 $231 4.3271671216407981 $343 $471 forward 7 unknown #
coedge $-1 $224 $223 $464 $472 reversed $85 $-1 #
coedge $-1 $351 $465 $223 $347 forward $220 $-1 #
edge $-1 $473 -4.3271671216407981 $349 4.3271671216407981 $223 $474 forward 7 unknown #
edge $-1 $230 -4.3271671216407981 $475 4.3271671216407981 $224 $476 forward 7 unknown #
vertex $-1 $225 $477 #
straight-curve $-1 -42.627033295693842 -29.174676863894128 0 0 0 -1 I I #
coedge $-1 $341 $346 $226 $352 reversed $220 $-1 #
edge $-1 $355 -42.627033295693842 $349 42.627033295693842 $351 $478 forward 7 unknown #
coedge $-1 $227 $469 $341 $466 reversed $354 $-1 #
loop $-1 $-1 $227 $338 #
vertex $-1 $228 $479 #
straight-curve $-1 42.627033295693842 -29.174676863894128 0 0 0 1 I I #
point $-1 -42.627033295693842 -29.174676863894128 4.771659371568278 #
point $-1 42.627033295693842 -29.174676863894128 4.771659371568278 #
plane-surface $-1 0 0 7.3713537936393179 0 0 1 1 0 0 forward_v I I I I #
coedge $-1 $370 $369 $362 $480 forward $234 $-1 #
coedge $-1 $362 $236 $238 $366 reversed $141 $-1 #
coedge $-1 $236 $361 $360 $480 reversed $141 $-1 #
coedge $-1 $244 $239 $236 $364 forward $245 $-1 #
edge $-1 $367 14.955523410014973 $481 21.313515948401847 $363 $482 forward 7 unknown #
coedge $-1 $238 $237 $370 $483 reversed $89 $-1 #
edge $-1 $484 -85.254066591387726 $367 -76.262507209809044 $361 $485 forward 7 unknown #
vertex $-1 $240 $486 #
straight-curve $-1 36.269040757306982 -3.5301902317022194 7.3713537936393081 0 -1 0 I I #
coedge $-1 $360 $241 $244 $374 reversed $234 $-1 #
coedge $-1 $241 $360 $365 $483 forward $234 $-1 #
vertex $-1 $242 $487 #
straight-curve $-1 42.627033295693842 -2.6428884868523781 60.790409164357015 0 0 1 I I #
straight-curve $-1 -17.656694615360813 -2.6428884868523781 61.297090417659376 0.70710677298230451 0 -0.70710678939079041 I I #
edge $-1 $481 -11.477872439956499 $246 -2.6428884868523781 $369 $488 forward 7 unknown #
point $-1 42.627033295693842 -2.6428884868523781 7.3713537936393179 #
point $-1 36.269040757306968 -2.6428884868523781 7.3713537936393152 #
edge $-1 $489 1 $489 0 $249 $-1 forward 7 unknown #
vertex $-1 $250 $490 #
ellipse-curve $-1 35.46236908742322 -7.0603804634044387 0.20668960408759507 0.70710678939079041 0 0.70710677298230451 1.414213545964609 0 -1.4142135787815808 1 I I #
point $-1 40.86225057246503 -7.0603804634044387 2.7781438718953799 #
plane-surface $-1 0 0 7.3713537936393179 0 0 1 1 0 0 forward_v I I I I #
coedge $-1 $392 $391 $384 $491 forward $254 $-1 #
coedge $-1 $384 $256 $258 $388 reversed $156 $-1 #
coedge $-1 $256 $383 $382 $491 reversed $156 $-1 #
coedge $-1 $264 $259 $256 $386 forward $265 $-1 #
edge $-1 $389 14.955523410014973 $492 21.313515948401847 $385 $493 forward 7 unknown #
coedge $-1 $258 $257 $392 $494 reversed $98 $-1 #
edge $-1 $495 -85.254066591387726 $389 -76.262507209809044 $383 $496 forward 7 unknown #
vertex $-1 $260 $497 #
straight-curve $-1 36.269040757306982 8.8935646394244436 7.3713537936393081 0 -1 0 I I #
coedge $-1 $382 $261 $264 $396 reversed $254 $-1 #
coedge $-1 $261 $382 $387 $494 forward $254 $-1 #
vertex $-1 $262 $498 #
straight-curve $-1 42.627033295693842 22.204621255400948 60.790409164357015 0 0 1 I I #
straight-curve $-1 -17.656694615360813 22.204621255400948 61.297090417659376 0.70710677298230451 0 -0.70710678939079041 I I #
edge $-1 $492 13.369637302296827 $266 22.204621255400948 $391 $499 forward 7 unknown #
point $-1 42.627033295693842 22.204621255400948 7.3713537936393179 #
point $-1 36.269040757306968 22.204621255400948 7.3713537936393152 #
edge $-1 $500 1 $500 0 $269 $-1 forward 7 unknown #
vertex $-1 $270 $501 #
ellipse-curve $-1 35.46236908742322 17.787129278848887 0.20668960408759507 0.70710678939079041 0 0.70710677298230451 1.414213545964609 0 -1.4142135787815808 1 I I #
point $-1 40.86225057246503 17.787129278848887 2.7781438718953799 #
loop $-1 $-1 $281 $273 #
plane-surface $-1 -42.627033295693842 0 0 1 0 0 0 0 -1 forward_v I I I I #
coedge $-1 $406 $276 $278 $410 reversed $171 $-1 #
coedge $-1 $276 $405 $502 $503 reversed $171 $-1 #
coedge $-1 $284 $279 $276 $408 forward $274 $-1 #
edge $-1 $411 -15.186340545512337 $504 -8.8283480071254772 $407 $505 forward 7 unknown #
coedge $-1 $278 $277 $414 $506 reversed $107 $-1 #
edge $-1 $507 -1.0048591735576163e-014 $411 8.9915593815786661 $405 $508 forward 7 unknown #
vertex $-1 $280 $509 #
straight-curve $-1 -36.269040757306982 -3.5301902317022194 7.371353793639317 0 1 0 I I #
coedge $-1 $502 $281 $284 $418 reversed $403 $-1 #
coedge $-1 $281 $502 $409 $506 forward $403 $-1 #
vertex $-1 $282 $510 #
straight-curve $-1 -42.627033295693842 -11.477872439956499 30.648544509384621 0 0 1 I I #
straight-curve $-1 -42.627033295693835 -11.477872439956499 1.0133611077145872 -0.70710677298230451 0 -0.70710678939079041 I I #
edge $-1 $504 2.6428884868523781 $285 11.477872439956499 $413 $511 forward 7 unknown #
point $-1 -42.627033295693842 -11.477872439956499 7.3713537936393179 #
point $-1 -36.269040757306982 -11.477872439956499 7.3713537936393188 #
edge $-1 $512 1 $512 0 $288 $-1 forward 7 unknown #
vertex $-1 $289 $513 #
ellipse-curve $-1 -35.46236908742322 -7.0603804634044387 0.20668960408759329 -0.70710678939079041 0 0.70710677298230451 1.414213545964609 0 1.4142135787815808 1 I I #
point $-1 -38.033823480535808 -7.0603804634044387 5.6065710294585402 #
loop $-1 $-1 $300 $292 #
plane-surface $-1 -42.627033295693842 0 0 1 0 0 0 0 -1 forward_v I I I I #
coedge $-1 $428 $295 $297 $432 reversed $186 $-1 #
coedge $-1 $295 $427 $514 $515 reversed $186 $-1 #
coedge $-1 $303 $298 $295 $430 forward $293 $-1 #
edge $-1 $433 -15.186340545512337 $516 -8.8283480071254772 $429 $517 forward 7 unknown #
coedge $-1 $297 $296 $436 $518 reversed $116 $-1 #
edge $-1 $519 -1.0048591735576163e-014 $433 8.9915593815786661 $427 $520 forward 7 unknown #
vertex $-1 $299 $521 #
straight-curve $-1 -36.269040757306982 8.8935646394244436 7.371353793639317 0 1 0 I I #
coedge $-1 $514 $300 $303 $440 reversed $425 $-1 #
coedge $-1 $300 $514 $431 $518 forward $425 $-1 #
vertex $-1 $301 $522 #
straight-curve $-1 -42.627033295693842 13.369637302296827 30.648544509384621 0 0 1 I I #
straight-curve $-1 -42.627033295693835 13.369637302296827 1.0133611077145872 -0.70710677298230451 0 -0.70710678939079041 I I #
edge $-1 $516 -22.204621255400948 $304 -13.369637302296827 $435 $523 forward 7 unknown #
point $-1 -42.627033295693842 13.369637302296827 7.3713537936393179 #
point $-1 -36.269040757306982 13.369637302296827 7.3713537936393188 #
edge $-1 $524 1 $524 0 $307 $-1 forward 7 unknown #
vertex $-1 $308 $525 #
ellipse-curve $-1 -35.46236908742322 17.787129278848887 0.20668960408759329 -0.70710678939079041 0 0.70710677298230451 1.414213545964609 0 1.4142135787815808 1 I I #
point $-1 -38.033823480535808 17.787129278848887 5.6065710294585402 #
plane-surface $-1 42.627033295693842 0 0 -1 0 0 0 0 1 forward_v I I I I #
coedge $-1 $316 $314 $318 $452 reversed $201 $-1 #
edge $-1 $329 -7.3713537936393179 $454 7.3713537936393179 $328 $526 forward 7 unknown #
vertex $-1 $452 $527 #
straight-curve $-1 -42.627033295693842 -29.174676863894128 0 0 0 -1 I I #
edge $-1 $450 -29.174676863894128 $454 29.174676863894128 $448 $528 forward 7 unknown #
straight-curve $-1 0 -29.174676863894128 -7.3713537936393179 -1 0 0 I I #
vertex $-1 $321 $529 #
straight-curve $-1 0 29.174676863894128 -7.3713537936393179 1 0 0 I I #
point $-1 42.627033295693842 29.174676863894128 -7.3713537936393179 #
point $-1 42.627033295693842 -29.174676863894128 -7.3713537936393179 #
straight-curve $-1 -42.627033295693842 0 7.3713537936393179 0 -1 0 I I #
point $-1 -42.627033295693842 29.174676863894128 7.3713537936393179 #
point $-1 -42.627033295693842 -29.174676863894128 7.3713537936393179 #
straight-curve $-1 42.627033295693842 -29.174676863894128 0 0 0 -1 I I #
straight-curve $-1 42.627033295693842 29.174676863894128 0 0 0 -1 I I #
plane-surface $-1 42.627033295693842 0 0 -1 0 0 0 0 1 forward_v I I I I #
coedge $-1 $530 $467 $345 $472 forward $339 $-1 #
coedge $-1 $346 $341 $530 $531 forward $220 $-1 #
edge $-1 $355 -4.3271671216407981 $532 4.3271671216407981 $353 $533 forward 7 unknown #
coedge $-1 $464 $534 $342 $468 reversed $339 $-1 #
edge $-1 $475 -42.627033295693842 $470 42.627033295693842 $467 $535 forward 7 unknown #
coedge $-1 $353 $343 $534 $536 forward $354 $-1 #
vertex $-1 $344 $537 #
straight-curve $-1 42.627033295693842 -33.501843985534926 4.771659371568278 0 1 0 I I #
edge $-1 $475 -2.1803612812687048 $473 2.1803612812687043 $345 $538 forward 7 unknown #
vertex $-1 $347 $539 #
straight-curve $-1 -42.627033295693842 -33.501843985534926 0.41093680903086893 0 1 0 I I #
vertex $-1 $348 $540 #
straight-curve $-1 -42.627033295693842 -33.501843985534926 4.771659371568278 0 -1 0 I I #
point $-1 -42.627033295693842 -29.174676863894128 0.41093680903086893 #
straight-curve $-1 0 -29.174676863894128 0.41093680903086893 -1 0 0 I I #
point $-1 42.627033295693842 -29.174676863894128 0.41093680903086893 #
edge $-1 $481 53.4190553707177 $484 59.777048056642442 $360 $541 forward 7 unknown #
vertex $-1 $374 $542 #
straight-curve $-1 21.313517347291995 -11.477872439956499 7.3713537936393152 1 0 0 I I #
edge $-1 $484 -7.94768220825428 $371 0.88730174484984126 $370 $543 forward 7 unknown #
vertex $-1 $483 $544 #
straight-curve $-1 -17.656694615360813 -11.477872439956499 61.297090417659376 -0.70710677298230451 0 0.70710678939079041 I I #
point $-1 36.269040757306968 -11.477872439956499 7.3713537936393152 #
point $-1 42.627033295693842 -2.6428884868523781 1.013361107714573 #
straight-curve $-1 42.627033295693842 0 7.3713537936393179 0 1 0 I I #
vertex $-1 $377 $545 #
point $-1 36.876582633387827 -7.0603804634044387 -1.2075239746939856 #
edge $-1 $492 53.4190553707177 $495 59.777048056642442 $382 $546 forward 7 unknown #
vertex $-1 $396 $547 #
straight-curve $-1 21.313517347291995 13.369637302296827 7.3713537936393152 1 0 0 I I #
edge $-1 $495 4.476072662872383 $393 13.311056615976504 $392 $548 forward 7 unknown #
vertex $-1 $494 $549 #
straight-curve $-1 -17.656694615360813 13.369637302296827 61.297090417659376 -0.70710677298230451 0 0.70710678939079041 I I #
point $-1 36.269040757306968 13.369637302296827 7.3713537936393152 #
point $-1 42.627033295693842 22.204621255400948 1.013361107714573 #
straight-curve $-1 42.627033295693842 0 7.3713537936393179 0 1 0 I I #
vertex $-1 $399 $550 #
point $-1 36.876582633387827 17.787129278848887 -1.2075239746939856 #
coedge $-1 $414 $413 $406 $503 forward $403 $-1 #
edge $-1 $504 23.277190715745302 $507 29.635183401670041 $502 $551 forward 7 unknown #
vertex $-1 $418 $552 #
straight-curve $-1 -51.455381302819319 -2.6428884868523781 7.3713537936393188 -1 0 0 I I #
edge $-1 $507 -0.88730174484984126 $415 7.94768220825428 $414 $553 forward 7 unknown #
vertex $-1 $506 $554 #
straight-curve $-1 -42.627033295693835 -2.6428884868523781 1.0133611077145872 0.70710677298230451 0 0.70710678939079041 I I #
point $-1 -36.269040757306982 -2.6428884868523781 7.3713537936393188 #
point $-1 -42.627033295693842 -11.477872439956499 1.0133611077145801 #
straight-curve $-1 -42.627033295693842 0 7.3713537936393179 0 -1 0 I I #
vertex $-1 $421 $555 #
point $-1 -34.048155541458605 -7.0603804634044387 1.6209031828691742 #
coedge $-1 $436 $435 $428 $515 forward $425 $-1 #
edge $-1 $516 23.277190715745302 $519 29.635183401670041 $514 $556 forward 7 unknown #
vertex $-1 $440 $557 #
straight-curve $-1 -51.455381302819319 22.204621255400948 7.3713537936393188 -1 0 0 I I #
edge $-1 $519 -13.311056615976504 $437 -4.476072662872383 $436 $558 forward 7 unknown #
vertex $-1 $518 $559 #
straight-curve $-1 -42.627033295693835 22.204621255400948 1.0133611077145872 0.70710677298230451 0 0.70710678939079041 I I #
point $-1 -36.269040757306982 22.204621255400948 7.3713537936393188 #
point $-1 -42.627033295693842 13.369637302296827 1.0133611077145801 #
straight-curve $-1 -42.627033295693842 0 7.3713537936393179 0 -1 0 I I #
vertex $-1 $443 $560 #
point $-1 -34.048155541458605 17.787129278848887 1.6209031828691742 #
straight-curve $-1 -42.627033295693842 29.174676863894128 0 0 0 -1 I I #
point $-1 -42.627033295693842 -29.174676863894128 -7.3713537936393179 #
straight-curve $-1 -42.627033295693842 0 -7.3713537936393179 0 1 0 I I #
point $-1 -42.627033295693842 29.174676863894128 -7.3713537936393179 #
coedge $-1 $534 $464 $465 $531 reversed $339 $-1 #
edge $-1 $532 -42.627033295693842 $473 42.627033295693842 $530 $561 forward 7 unknown #
vertex $-1 $536 $562 #
straight-curve $-1 42.627033295693842 -33.501843985534926 0.41093680903086893 0 -1 0 I I #
coedge $-1 $467 $530 $469 $536 reversed $339 $-1 #
straight-curve $-1 0 -37.829011107175724 4.771659371568278 1 0 0 I I #
edge $-1 $470 -2.1803612812687048 $532 2.1803612812687043 $469 $563 forward 7 unknown #
point $-1 42.627033295693842 -37.829011107175724 4.771659371568278 #
straight-curve $-1 -42.627033295693842 -37.829011107175724 2.5912980902995733 0 0 -1 I I #
point $-1 -42.627033295693842 -37.829011107175724 0.41093680903086893 #
point $-1 -42.627033295693842 -37.829011107175724 4.771659371568278 #
straight-curve $-1 42.627033295693842 -11.477872439956499 60.790409164357015 0 0 -1 I I #
point $-1 42.627033295693842 -11.477872439956499 7.3713537936393179 #
straight-curve $-1 42.627033295693842 -3.5301902317022194 1.0133611077145765 0 1 0 I I #
point $-1 42.627033295693842 -11.477872439956499 1.013361107714573 #
point $-1 34.048155508641635 -7.0603804634044387 -1.2075239418770138 #
straight-curve $-1 42.627033295693842 13.369637302296827 60.790409164357015 0 0 -1 I I #
point $-1 42.627033295693842 13.369637302296827 7.3713537936393179 #
straight-curve $-1 42.627033295693842 8.8935646394244436 1.0133611077145765 0 1 0 I I #
point $-1 42.627033295693842 13.369637302296827 1.013361107714573 #
point $-1 34.048155508641635 17.787129278848887 -1.2075239418770138 #
straight-curve $-1 -42.627033295693842 -2.6428884868523781 30.648544509384621 0 0 -1 I I #
point $-1 -42.627033295693842 -2.6428884868523781 7.3713537936393179 #
straight-curve $-1 -42.627033295693842 -3.5301902317022194 1.0133611077145783 0 -1 0 I I #
point $-1 -42.627033295693842 -2.6428884868523781 1.0133611077145801 #
point $-1 -34.048155508641635 -7.0603804634044387 -1.2075239418770156 #
straight-curve $-1 -42.627033295693842 22.204621255400948 30.648544509384621 0 0 -1 I I #
point $-1 -42.627033295693842 22.204621255400948 7.3713537936393179 #
straight-curve $-1 -42.627033295693842 8.8935646394244436 1.0133611077145783 0 -1 0 I I #
point $-1 -42.627033295693842 22.204621255400948 1.0133611077145801 #
point $-1 -34.048155508641635 17.787129278848887 -1.2075239418770156 #
straight-curve $-1 0 -37.829011107175724 0.41093680903086893 -1 0 0 I I #
point $-1 42.627033295693842 -37.829011107175724 0.41093680903086893 #
straight-curve $-1 42.627033295693842 -37.829011107175724 2.5912980902995733 0 0 -1 I I #
End-of-ACIS-data 