500 0 13 0           
7 Unknown 11 ACIS 5.0 NT 24 Thu Mar 25 22:52:14 1999 
-1 9.9999999999999995e-007 1e-010 
body $-1 $13 $-1 $14 #
body $-1 $15 $-1 $16 #
body $-1 $17 $-1 $18 #
body $-1 $19 $-1 $20 #
body $-1 $21 $-1 $22 #
body $-1 $23 $-1 $24 #
body $-1 $25 $-1 $26 #
body $-1 $27 $-1 $28 #
body $-1 $29 $-1 $30 #
body $-1 $31 $-1 $32 #
body $-1 $33 $-1 $34 #
body $-1 $35 $-1 $36 #
body $-1 $37 $-1 $38 #
lump $-1 $-1 $39 $0 #
transform $-1 1 0 0 0 1 0 0 0 1 68.474990081484421 31.519560164190231 6.5685389746138805 1 rotate no_reflect no_shear #
lump $-1 $-1 $40 $1 #
transform $-1 1 0 0 0 1 0 0 0 1 68.474990081484421 31.519560164190231 6.5685389746138805 1 rotate no_reflect no_shear #
lump $-1 $-1 $41 $2 #
transform $-1 1 0 0 0 1 0 0 0 1 68.474990081484421 31.519560164190231 6.5685389746138805 1 rotate no_reflect no_shear #
lump $-1 $-1 $42 $3 #
transform $-1 1 0 0 0 1 0 0 0 1 68.474990081484421 31.519560164190231 6.5685389746138805 1 rotate no_reflect no_shear #
lump $-1 $-1 $43 $4 #
transform $-1 1 0 0 0 1 0 0 0 1 68.474990081484421 31.519560164190231 6.5685389746138805 1 rotate no_reflect no_shear #
lump $-1 $-1 $44 $5 #
transform $-1 1 0 0 0 1 0 0 0 1 68.474990081484421 31.519560164190231 6.5685389746138805 1 rotate no_reflect no_shear #
lump $-1 $-1 $45 $6 #
transform $-1 1 0 0 0 1 0 0 0 1 68.474990081484421 31.519560164190231 6.5685389746138805 1 rotate no_reflect no_shear #
lump $-1 $-1 $46 $7 #
transform $-1 1 0 0 0 1 0 0 0 1 68.474990081484421 31.519560164190231 6.5685389746138805 1 rotate no_reflect no_shear #
lump $-1 $-1 $47 $8 #
transform $-1 1 0 0 0 1 0 0 0 1 68.474990081484421 31.519560164190231 6.5685389746138805 1 rotate no_reflect no_shear #
lump $-1 $-1 $48 $9 #
transform $-1 1 0 0 0 1 0 0 0 1 68.474990081484421 31.519560164190231 6.5685389746138805 1 rotate no_reflect no_shear #
lump $-1 $-1 $49 $10 #
transform $-1 1 0 0 0 1 0 0 0 1 68.474990081484421 31.519560164190231 6.5685389746138805 1 rotate no_reflect no_shear #
lump $-1 $-1 $50 $11 #
transform $-1 1 0 0 0 1 0 0 0 1 68.474990081484421 31.519560164190231 6.5685389746138805 1 rotate no_reflect no_shear #
lump $-1 $-1 $51 $12 #
transform $-1 1 0 0 0 1 0 0 0 1 68.474990081484421 31.519560164190231 6.5685389746138805 1 rotate no_reflect no_shear #
shell $-1 $-1 $-1 $52 $-1 $13 #
shell $-1 $-1 $-1 $53 $-1 $15 #
shell $-1 $-1 $-1 $54 $-1 $17 #
shell $-1 $-1 $-1 $55 $-1 $19 #
shell $-1 $-1 $-1 $56 $-1 $21 #
shell $-1 $-1 $-1 $57 $-1 $23 #
shell $-1 $-1 $-1 $58 $-1 $25 #
shell $-1 $-1 $-1 $59 $-1 $27 #
shell $-1 $-1 $-1 $60 $-1 $29 #
shell $-1 $-1 $-1 $61 $-1 $31 #
shell $-1 $-1 $-1 $62 $-1 $33 #
shell $-1 $-1 $-1 $63 $-1 $35 #
shell $-1 $-1 $-1 $64 $-1 $37 #
face $-1 $65 $66 $39 $-1 $67 forward single #
face $-1 $68 $69 $40 $-1 $70 forward single #
face $-1 $71 $72 $41 $-1 $73 reversed single #
face $-1 $74 $75 $42 $-1 $76 forward single #
face $-1 $77 $78 $43 $-1 $79 forward single #
face $-1 $80 $81 $44 $-1 $82 forward single #
face $-1 $83 $84 $45 $-1 $85 reversed single #
face $-1 $86 $87 $46 $-1 $88 forward single #
face $-1 $89 $90 $47 $-1 $91 forward single #
face $-1 $92 $93 $48 $-1 $94 forward single #
face $-1 $95 $96 $49 $-1 $97 reversed single #
face $-1 $98 $99 $50 $-1 $100 forward single #
face $-1 $101 $102 $51 $-1 $103 forward single #
face $-1 $104 $105 $39 $-1 $106 reversed single #
loop $-1 $-1 $107 $52 #
plane-surface $-1 0 0 6.5685389746138805 0 0 1 1 0 0 forward_v I I I I #
face $-1 $108 $109 $40 $-1 $110 reversed single #
loop $-1 $-1 $111 $53 #
plane-surface $-1 0 -29.166384634735646 -3.5685389746138805 0 0 1 1 0 0 forward_v I I I I #
face $-1 $112 $113 $41 $-1 $114 reversed single #
loop $-1 $-1 $115 $54 #
plane-surface $-1 71.855113710625162 -16.703788245193895 194.16781223875205 0 -1 0 -0.71933980857756763 0 -0.69465836192734942 forward_v I I I I #
face $-1 $116 $117 $42 $-1 $118 forward single #
loop $-1 $119 $120 $55 #
cone-surface $-1 65.181489241993802 -22.069592115109188 3.1840963640012054 -0.71933980857756763 0 -0.69465836192734942 0.34732918096367471 0 -0.35966990428878381 1 I I 0 1 0.5 forward I I I I #
face $-1 $121 $122 $43 $-1 $123 forward single #
loop $-1 $124 $125 $56 #
cone-surface $-1 65.181489241993802 -20.057415663890954 3.1840963640012054 -0.71933980857756763 0 -0.69465836192734942 0.34732918096367471 0 -0.35966990428878381 1 I I 0 1 0.5 forward I I I I #
face $-1 $126 $127 $44 $-1 $128 forward single #
loop $-1 $129 $130 $57 #
cone-surface $-1 65.181489241993802 -18.045239212672719 3.1840963640012054 -0.71933980857756763 0 -0.69465836192734942 0.34732918096367471 0 -0.35966990428878381 1 I I 0 1 0.5 forward I I I I #
face $-1 $131 $132 $45 $-1 $133 reversed single #
loop $-1 $-1 $134 $58 #
plane-surface $-1 71.855113710625162 28.117394141497179 194.16781223875205 0 -1 0 -0.71933980857756763 0 -0.69465836192734942 forward_v I I I I #
face $-1 $135 $136 $46 $-1 $137 forward single #
loop $-1 $138 $139 $59 #
cone-surface $-1 65.181489241993802 22.75159027158189 3.1840963640012054 -0.71933980857756763 0 -0.69465836192734942 0.34732918096367471 0 -0.35966990428878381 1 I I 0 1 0.5 forward I I I I #
face $-1 $140 $141 $47 $-1 $142 forward single #
loop $-1 $143 $144 $60 #
cone-surface $-1 65.181489241993802 24.763766722800121 3.1840963640012054 -0.71933980857756763 0 -0.69465836192734942 0.34732918096367471 0 -0.35966990428878381 1 I I 0 1 0.5 forward I I I I #
face $-1 $145 $146 $48 $-1 $147 forward single #
loop $-1 $148 $149 $61 #
cone-surface $-1 65.181489241993802 26.775943174018359 3.1840963640012054 -0.71933980857756763 0 -0.69465836192734942 0.34732918096367471 0 -0.35966990428878381 1 I I 0 1 0.5 forward I I I I #
face $-1 $150 $151 $49 $-1 $152 reversed single #
loop $-1 $-1 $153 $62 #
plane-surface $-1 -185.86403598197091 5.8141868641305514 72.800905330405698 0 1 0 -0.85716730853699208 0 0.51503806187062418 forward_v I I I I #
face $-1 $154 $155 $50 $-1 $156 forward single #
loop $-1 $157 $158 $63 #
cone-surface $-1 -65.962592437313148 9.6501622530612465 3.6844937166556764 0.85716730853699208 0 -0.51503806187062418 0.51503806187062418 0 0.85716730853699208 1 I I 0 1 1 forward I I I I #
face $-1 $159 $160 $51 $-1 $161 forward single #
loop $-1 $162 $163 $64 #
cone-surface $-1 -65.962592437313148 15.404125336457298 3.6844937166556764 0.85716730853699208 0 -0.51503806187062418 0.51503806187062418 0 0.85716730853699208 1 I I 0 1 1 forward I I I I #
face $-1 $164 $165 $39 $-1 $166 reversed single #
loop $-1 $-1 $167 $65 #
plane-surface $-1 0 0 -6.5685389746138805 0 0 1 1 0 0 forward_v I I I I #
coedge $-1 $168 $169 $170 $171 forward $66 $-1 #
face $-1 $172 $173 $40 $-1 $174 reversed single #
loop $-1 $-1 $175 $68 #
plane-surface $-1 0 -26.813209105281061 -5.0685389746138805 0 -1 0 0 0 -1 forward_v I I I I #
coedge $-1 $176 $177 $178 $179 reversed $69 $-1 #
face $-1 $180 $181 $41 $-1 $182 reversed single #
loop $-1 $-1 $183 $71 #
plane-surface $-1 -26.658458804506523 -20.057415663890954 99.034363352761119 0.71933980857756763 0 0.69465836192734942 0.69465836192734942 0 -0.71933980857756763 forward_v I I I I #
coedge $-1 $184 $185 $186 $187 reversed $72 $-1 #
face $-1 $-1 $188 $42 $-1 $189 forward single #
loop $-1 $190 $191 $74 #
cone-surface $-1 64.628274625422179 -22.069592115109188 2.649863231398931 -0.71933980857756763 0 -0.69465836192734942 0.17366459048183736 0 -0.17983495214439191 1 I I -0.70710678118654746 0.70710678118654746 0.25 forward I I I I #
loop $-1 $-1 $192 $55 #
coedge $-1 $120 $120 $193 $194 reversed $75 $-1 #
face $-1 $-1 $195 $43 $-1 $196 forward single #
loop $-1 $197 $198 $77 #
cone-surface $-1 64.628274625422179 -20.057415663890954 2.649863231398931 -0.71933980857756763 0 -0.69465836192734942 0.17366459048183736 0 -0.17983495214439191 1 I I -0.70710678118654746 0.70710678118654746 0.25 forward I I I I #
loop $-1 $-1 $199 $56 #
coedge $-1 $125 $125 $200 $201 reversed $78 $-1 #
face $-1 $-1 $202 $44 $-1 $203 forward single #
loop $-1 $204 $205 $80 #
cone-surface $-1 64.628274625422179 -18.045239212672719 2.649863231398931 -0.71933980857756763 0 -0.69465836192734942 0.17366459048183736 0 -0.17983495214439191 1 I I -0.70710678118654746 0.70710678118654746 0.25 forward I I I I #
loop $-1 $-1 $206 $57 #
coedge $-1 $130 $130 $207 $208 reversed $81 $-1 #
face $-1 $209 $210 $45 $-1 $211 reversed single #
loop $-1 $-1 $212 $83 #
plane-surface $-1 -26.658458804506523 24.763766722800121 99.034363352761119 0.71933980857756763 0 0.69465836192734942 0.69465836192734942 0 -0.71933980857756763 forward_v I I I I #
coedge $-1 $213 $214 $215 $216 reversed $84 $-1 #
face $-1 $-1 $217 $46 $-1 $218 forward single #
loop $-1 $219 $220 $86 #
cone-surface $-1 64.628274625422179 22.75159027158189 2.649863231398931 -0.71933980857756763 0 -0.69465836192734942 0.17366459048183736 0 -0.17983495214439191 1 I I -0.70710678118654746 0.70710678118654746 0.25 forward I I I I #
loop $-1 $-1 $221 $59 #
coedge $-1 $139 $139 $222 $223 reversed $87 $-1 #
face $-1 $-1 $224 $47 $-1 $225 forward single #
loop $-1 $226 $227 $89 #
cone-surface $-1 64.628274625422179 24.763766722800121 2.649863231398931 -0.71933980857756763 0 -0.69465836192734942 0.17366459048183736 0 -0.17983495214439191 1 I I -0.70710678118654746 0.70710678118654746 0.25 forward I I I I #
loop $-1 $-1 $228 $60 #
coedge $-1 $144 $144 $229 $230 reversed $90 $-1 #
face $-1 $-1 $231 $48 $-1 $232 forward single #
loop $-1 $233 $234 $92 #
cone-surface $-1 64.628274625422179 26.775943174018359 2.649863231398931 -0.71933980857756763 0 -0.69465836192734942 0.17366459048183736 0 -0.17983495214439191 1 I I -0.70710678118654746 0.70710678118654746 0.25 forward I I I I #
loop $-1 $-1 $235 $61 #
coedge $-1 $149 $149 $236 $237 reversed $93 $-1 #
face $-1 $238 $239 $49 $-1 $240 reversed single #
loop $-1 $-1 $241 $95 #
plane-surface $-1 -68.474990081484464 12.527143794759276 2.2664529740497983 -0.85716730853699208 0 0.51503806187062418 0.51503806187062418 0 0.85716730853699208 forward_v I I I I #
coedge $-1 $242 $243 $244 $245 reversed $96 $-1 #
face $-1 $-1 $246 $50 $-1 $247 forward single #
loop $-1 $248 $249 $98 #
cone-surface $-1 -64.314088123041785 9.6501622530612465 2.6939724280442059 0.85716730853699208 0 -0.51503806187062418 0.25751903093531209 0 0.42858365426849604 1 I I -0.70710678118654746 0.70710678118654746 0.5 forward I I I I #
loop $-1 $-1 $250 $63 #
coedge $-1 $158 $158 $251 $252 reversed $99 $-1 #
face $-1 $-1 $253 $51 $-1 $254 forward single #
loop $-1 $255 $256 $101 #
cone-surface $-1 -64.314088123041785 15.404125336457298 2.6939724280442059 0.85716730853699208 0 -0.51503806187062418 0.25751903093531209 0 0.42858365426849604 1 I I -0.70710678118654746 0.70710678118654746 0.5 forward I I I I #
loop $-1 $-1 $257 $64 #
coedge $-1 $163 $163 $258 $259 reversed $102 $-1 #
face $-1 $260 $261 $39 $-1 $262 reversed single #
loop $-1 $-1 $263 $104 #
plane-surface $-1 0 -31.519560164190231 0 0 1 0 0 0 1 forward_v I I I I #
coedge $-1 $264 $265 $266 $267 forward $105 $-1 #
coedge $-1 $268 $107 $269 $270 forward $66 $-1 #
coedge $-1 $107 $268 $271 $272 forward $66 $-1 #
coedge $-1 $273 $274 $107 $171 reversed $275 $-1 #
edge $-1 $276 -31.519560164190231 $277 31.519560164190231 $170 $278 forward 7 unknown #
face $-1 $279 $280 $40 $-1 $281 reversed single #
loop $-1 $-1 $282 $108 #
plane-surface $-1 0 0 -6.5685389746138805 0 0 1 1 0 0 forward_v I I I I #
coedge $-1 $283 $284 $285 $286 reversed $109 $-1 #
coedge $-1 $287 $111 $284 $288 forward $69 $-1 #
coedge $-1 $111 $287 $289 $290 reversed $69 $-1 #
coedge $-1 $291 $285 $111 $179 forward $280 $-1 #
edge $-1 $292 12.230016787913238 $293 16.936367846822407 $178 $294 forward 7 unknown #
face $-1 $295 $296 $41 $-1 $297 reversed single #
loop $-1 $-1 $298 $112 #
plane-surface $-1 71.855113710625162 -23.411043082588012 194.16781223875205 0 1 0 0.71933980857756763 0 0.69465836192734942 forward_v I I I I #
coedge $-1 $299 $300 $301 $302 reversed $113 $-1 #
coedge $-1 $185 $115 $303 $304 reversed $72 $-1 #
coedge $-1 $115 $184 $299 $305 reversed $72 $-1 #
coedge $-1 $301 $306 $115 $187 forward $307 $-1 #
edge $-1 $308 -32.54743322617184 $309 -26.70719087604504 $186 $310 forward 7 unknown #
loop $-1 $-1 $193 $116 #
plane-surface $-1 -26.658458804506523 -20.057415663890954 99.034363352761119 0.71933980857756763 0 0.69465836192734942 0.69465836192734942 0 -0.71933980857756763 forward_v I I I I #
loop $-1 $-1 $311 $74 #
coedge $-1 $191 $191 $192 $312 reversed $117 $-1 #
coedge $-1 $192 $192 $191 $312 forward $119 $-1 #
coedge $-1 $193 $193 $120 $194 forward $188 $-1 #
edge $-1 $313 0 $313 6.2831853071796004 $193 $314 forward 7 unknown #
loop $-1 $-1 $200 $121 #
plane-surface $-1 -26.658458804506523 -20.057415663890954 99.034363352761119 0.71933980857756763 0 0.69465836192734942 0.69465836192734942 0 -0.71933980857756763 forward_v I I I I #
loop $-1 $-1 $315 $77 #
coedge $-1 $198 $198 $199 $316 reversed $122 $-1 #
coedge $-1 $199 $199 $198 $316 forward $124 $-1 #
coedge $-1 $200 $200 $125 $201 forward $195 $-1 #
edge $-1 $317 0 $317 6.2831853071796004 $200 $318 forward 7 unknown #
loop $-1 $-1 $207 $126 #
plane-surface $-1 -26.658458804506523 -20.057415663890954 99.034363352761119 0.71933980857756763 0 0.69465836192734942 0.69465836192734942 0 -0.71933980857756763 forward_v I I I I #
loop $-1 $-1 $319 $80 #
coedge $-1 $205 $205 $206 $320 reversed $127 $-1 #
coedge $-1 $206 $206 $205 $320 forward $129 $-1 #
coedge $-1 $207 $207 $130 $208 forward $202 $-1 #
edge $-1 $321 0 $321 6.2831853071796004 $207 $322 forward 7 unknown #
face $-1 $323 $324 $45 $-1 $325 reversed single #
loop $-1 $-1 $326 $131 #
plane-surface $-1 71.855113710625162 21.410139304103062 194.16781223875205 0 1 0 0.71933980857756763 0 0.69465836192734942 forward_v I I I I #
coedge $-1 $327 $328 $329 $330 reversed $132 $-1 #
coedge $-1 $214 $134 $331 $332 reversed $84 $-1 #
coedge $-1 $134 $213 $327 $333 reversed $84 $-1 #
coedge $-1 $329 $334 $134 $216 forward $335 $-1 #
edge $-1 $336 -32.54743322617184 $337 -26.70719087604504 $215 $338 forward 7 unknown #
loop $-1 $-1 $222 $135 #
plane-surface $-1 -26.658458804506523 24.763766722800121 99.034363352761119 0.71933980857756763 0 0.69465836192734942 0.69465836192734942 0 -0.71933980857756763 forward_v I I I I #
loop $-1 $-1 $339 $86 #
coedge $-1 $220 $220 $221 $340 reversed $136 $-1 #
coedge $-1 $221 $221 $220 $340 forward $138 $-1 #
coedge $-1 $222 $222 $139 $223 forward $217 $-1 #
edge $-1 $341 0 $341 6.2831853071796004 $222 $342 forward 7 unknown #
loop $-1 $-1 $229 $140 #
plane-surface $-1 -26.658458804506523 24.763766722800121 99.034363352761119 0.71933980857756763 0 0.69465836192734942 0.69465836192734942 0 -0.71933980857756763 forward_v I I I I #
loop $-1 $-1 $343 $89 #
coedge $-1 $227 $227 $228 $344 reversed $141 $-1 #
coedge $-1 $228 $228 $227 $344 forward $143 $-1 #
coedge $-1 $229 $229 $144 $230 forward $224 $-1 #
edge $-1 $345 0 $345 6.2831853071796004 $229 $346 forward 7 unknown #
loop $-1 $-1 $236 $145 #
plane-surface $-1 -26.658458804506523 24.763766722800121 99.034363352761119 0.71933980857756763 0 0.69465836192734942 0.69465836192734942 0 -0.71933980857756763 forward_v I I I I #
loop $-1 $-1 $347 $92 #
coedge $-1 $234 $234 $235 $348 reversed $146 $-1 #
coedge $-1 $235 $235 $234 $348 forward $148 $-1 #
coedge $-1 $236 $236 $149 $237 forward $231 $-1 #
edge $-1 $349 0 $349 6.2831853071796004 $236 $350 forward 7 unknown #
face $-1 $351 $352 $49 $-1 $353 forward single #
loop $-1 $-1 $354 $150 #
plane-surface $-1 -185.86403598197091 19.240100725388 72.800905330405698 0 -1 0 0.85716730853699208 0 -0.51503806187062418 forward_v I I I I #
coedge $-1 $355 $356 $357 $358 reversed $151 $-1 #
coedge $-1 $243 $153 $359 $360 reversed $96 $-1 #
coedge $-1 $153 $242 $355 $361 reversed $96 $-1 #
coedge $-1 $357 $362 $153 $245 forward $352 $-1 #
edge $-1 $363 24.457027909501036 $364 27.041981877837799 $244 $365 forward 7 unknown #
loop $-1 $-1 $251 $154 #
plane-surface $-1 -68.474990081484464 12.527143794759276 2.2664529740497983 -0.85716730853699208 0 0.51503806187062418 0.51503806187062418 0 0.85716730853699208 forward_v I I I I #
loop $-1 $-1 $366 $98 #
coedge $-1 $249 $249 $250 $367 reversed $155 $-1 #
coedge $-1 $250 $250 $249 $367 forward $157 $-1 #
coedge $-1 $251 $251 $158 $252 forward $246 $-1 #
edge $-1 $368 0 $368 6.2831853071796004 $251 $369 forward 7 unknown #
loop $-1 $-1 $258 $159 #
plane-surface $-1 -68.474990081484464 12.527143794759276 2.2664529740497983 -0.85716730853699208 0 0.51503806187062418 0.51503806187062418 0 0.85716730853699208 forward_v I I I I #
loop $-1 $-1 $370 $101 #
coedge $-1 $256 $256 $257 $371 reversed $160 $-1 #
coedge $-1 $257 $257 $256 $371 forward $162 $-1 #
coedge $-1 $258 $258 $163 $259 forward $253 $-1 #
edge $-1 $372 0 $372 6.2831853071796004 $258 $373 forward 7 unknown #
face $-1 $374 $375 $39 $-1 $376 reversed single #
loop $-1 $-1 $377 $164 #
plane-surface $-1 -68.474990081484421 0 0 1 0 0 0 0 -1 forward_v I I I I #
coedge $-1 $378 $271 $379 $380 forward $165 $-1 #
coedge $-1 $381 $167 $378 $382 forward $105 $-1 #
coedge $-1 $167 $381 $383 $384 forward $105 $-1 #
coedge $-1 $274 $273 $167 $267 reversed $275 $-1 #
edge $-1 $385 -31.519560164190231 $386 31.519560164190231 $266 $387 forward 7 unknown #
coedge $-1 $169 $168 $388 $389 forward $66 $-1 #
coedge $-1 $390 $391 $168 $270 reversed $375 $-1 #
edge $-1 $277 -68.474990081484421 $392 68.474990081484421 $269 $393 forward 7 unknown #
coedge $-1 $263 $394 $169 $272 reversed $165 $-1 #
edge $-1 $395 -68.474990081484421 $276 68.474990081484421 $271 $396 forward 7 unknown #
coedge $-1 $266 $170 $394 $397 forward $275 $-1 #
coedge $-1 $170 $266 $390 $398 reversed $275 $-1 #
loop $-1 $-1 $273 $374 #
vertex $-1 $171 $399 #
vertex $-1 $171 $400 #
straight-curve $-1 68.474990081484421 0 6.5685389746138805 0 1 0 I I #
face $-1 $401 $402 $40 $-1 $403 reversed single #
loop $-1 $-1 $285 $172 #
plane-surface $-1 68.474990081484421 0 0 -1 0 0 0 0 1 forward_v I I I I #
coedge $-1 $404 $405 $283 $406 forward $173 $-1 #
coedge $-1 $407 $175 $282 $406 reversed $109 $-1 #
coedge $-1 $175 $407 $176 $288 reversed $109 $-1 #
coedge $-1 $178 $408 $175 $286 forward $280 $-1 #
edge $-1 $409 -4.0342694873069398 $292 -1.0342694873069402 $285 $410 forward 7 unknown #
coedge $-1 $177 $176 $411 $412 reversed $69 $-1 #
edge $-1 $292 -68.474990081484421 $413 68.474990081484421 $284 $414 forward 7 unknown #
coedge $-1 $415 $416 $177 $290 forward $402 $-1 #
edge $-1 $293 -68.474990081484421 $417 68.474990081484421 $289 $418 forward 7 unknown #
coedge $-1 $408 $178 $416 $419 forward $280 $-1 #
vertex $-1 $179 $420 #
vertex $-1 $419 $421 #
straight-curve $-1 68.474990081484421 -14.583192317367823 -3.5685389746138805 0 -1 0 I I #
face $-1 $-1 $307 $41 $-1 $422 forward single #
loop $-1 $-1 $423 $180 #
plane-surface $-1 68.474990081484421 0 0 -1 0 0 0 0 1 forward_v I I I I #
coedge $-1 $424 $425 $426 $427 reversed $181 $-1 #
coedge $-1 $428 $183 $185 $305 forward $113 $-1 #
coedge $-1 $183 $428 $424 $429 forward $113 $-1 #
coedge $-1 $426 $186 $183 $302 forward $307 $-1 #
edge $-1 $309 6.6750804132484181 $430 13.382335250642535 $301 $431 forward 7 unknown #
coedge $-1 $432 $433 $184 $304 forward $296 $-1 #
edge $-1 $434 -96.563115281746619 $308 -90.515367144762138 $303 $435 forward 7 unknown #
edge $-1 $309 128.54262099158728 $434 136.94998016296887 $185 $436 forward 7 unknown #
coedge $-1 $186 $426 $432 $437 forward $307 $-1 #
loop $-1 $-1 $426 $295 #
vertex $-1 $304 $438 #
vertex $-1 $187 $439 #
straight-curve $-1 35.927556855312581 -16.703788245193895 6.5685389746138867 -1 0 0 I I #
coedge $-1 $311 $311 $-1 $440 reversed $190 $-1 #
edge $-1 $441 0 $441 6.2831853071796004 $191 $442 forward 7 unknown #
vertex $-1 $194 $443 #
ellipse-curve $-1 65.554868906421035 -22.069592115109188 3.5446649061216422 0.71933980857756763 0 0.69465836192734942 0.34732918096367471 0 -0.35966990428878381 1 I I #
coedge $-1 $315 $315 $-1 $444 reversed $197 $-1 #
edge $-1 $445 0 $445 6.2831853071796004 $198 $446 forward 7 unknown #
vertex $-1 $201 $447 #
ellipse-curve $-1 65.554868906421035 -20.057415663890954 3.5446649061216422 0.71933980857756763 0 0.69465836192734942 0.34732918096367471 0 -0.35966990428878381 1 I I #
coedge $-1 $319 $319 $-1 $448 reversed $204 $-1 #
edge $-1 $449 0 $449 6.2831853071796004 $205 $450 forward 7 unknown #
vertex $-1 $208 $451 #
ellipse-curve $-1 65.554868906421035 -18.045239212672719 3.5446649061216422 0.71933980857756763 0 0.69465836192734942 0.34732918096367471 0 -0.35966990428878381 1 I I #
face $-1 $-1 $335 $45 $-1 $452 forward single #
loop $-1 $-1 $453 $209 #
plane-surface $-1 68.474990081484421 0 0 -1 0 0 0 0 1 forward_v I I I I #
coedge $-1 $454 $455 $456 $457 reversed $210 $-1 #
coedge $-1 $458 $212 $214 $333 forward $132 $-1 #
coedge $-1 $212 $458 $454 $459 forward $132 $-1 #
coedge $-1 $456 $215 $212 $330 forward $335 $-1 #
edge $-1 $337 -15.735510780097119 $460 -9.0282559427030016 $329 $461 forward 7 unknown #
coedge $-1 $462 $463 $213 $332 forward $324 $-1 #
edge $-1 $464 -96.563115281746619 $336 -90.515367144762138 $331 $465 forward 7 unknown #
edge $-1 $337 128.54262099158728 $464 136.94998016296887 $214 $466 forward 7 unknown #
coedge $-1 $215 $456 $462 $467 forward $335 $-1 #
loop $-1 $-1 $456 $323 #
vertex $-1 $332 $468 #
vertex $-1 $216 $469 #
straight-curve $-1 35.927556855312581 28.117394141497179 6.5685389746138867 -1 0 0 I I #
coedge $-1 $339 $339 $-1 $470 reversed $219 $-1 #
edge $-1 $471 0 $471 6.2831853071796004 $220 $472 forward 7 unknown #
vertex $-1 $223 $473 #
ellipse-curve $-1 65.554868906421035 22.75159027158189 3.5446649061216422 0.71933980857756763 0 0.69465836192734942 0.34732918096367471 0 -0.35966990428878381 1 I I #
coedge $-1 $343 $343 $-1 $474 reversed $226 $-1 #
edge $-1 $475 0 $475 6.2831853071796004 $227 $476 forward 7 unknown #
vertex $-1 $230 $477 #
ellipse-curve $-1 65.554868906421035 24.763766722800121 3.5446649061216422 0.71933980857756763 0 0.69465836192734942 0.34732918096367471 0 -0.35966990428878381 1 I I #
coedge $-1 $347 $347 $-1 $478 reversed $233 $-1 #
edge $-1 $479 0 $479 6.2831853071796004 $234 $480 forward 7 unknown #
vertex $-1 $237 $481 #
ellipse-curve $-1 65.554868906421035 26.775943174018359 3.5446649061216422 0.71933980857756763 0 0.69465836192734942 0.34732918096367471 0 -0.35966990428878381 1 I I #
face $-1 $-1 $482 $49 $-1 $483 reversed single #
loop $-1 $-1 $244 $238 #
plane-surface $-1 0 0 6.5685389746138805 0 0 1 1 0 0 forward_v I I I I #
coedge $-1 $484 $485 $486 $487 reversed $239 $-1 #
coedge $-1 $488 $241 $243 $361 forward $151 $-1 #
coedge $-1 $241 $488 $484 $489 forward $151 $-1 #
coedge $-1 $486 $244 $241 $358 forward $352 $-1 #
edge $-1 $364 -0.44938503324908652 $490 12.976528828008362 $357 $491 forward 7 unknown #
coedge $-1 $492 $493 $242 $360 forward $482 $-1 #
edge $-1 $494 -34.133999691152979 $363 -29.831913690588969 $359 $495 forward 7 unknown #
edge $-1 $364 -5.0189571600751561 $494 -8.2862793651327634e-014 $243 $496 forward 7 unknown #
coedge $-1 $244 $486 $492 $497 forward $352 $-1 #
vertex $-1 $360 $498 #
vertex $-1 $245 $499 #
straight-curve $-1 -92.932017990985457 5.8141868641305514 6.5685389746138796 1 0 0 I I #
coedge $-1 $366 $366 $-1 $500 reversed $248 $-1 #
edge $-1 $501 0 $501 6.2831853071796004 $249 $502 forward 7 unknown #
vertex $-1 $252 $503 #
ellipse-curve $-1 -67.182513097316061 9.6501622530612465 4.4174959743318558 -0.85716730853699208 0 0.51503806187062418 0.51503806187062418 0 0.85716730853699208 1 I I #
coedge $-1 $370 $370 $-1 $504 reversed $255 $-1 #
edge $-1 $505 0 $505 6.2831853071796004 $256 $506 forward 7 unknown #
vertex $-1 $259 $507 #
ellipse-curve $-1 -67.182513097316061 15.404125336457298 4.4174959743318558 -0.85716730853699208 0 0.51503806187062418 0.51503806187062418 0 0.85716730853699208 1 I I #
face $-1 $-1 $275 $39 $-1 $508 reversed single #
loop $-1 $-1 $390 $260 #
plane-surface $-1 0 31.519560164190231 0 0 -1 0 0 0 -1 forward_v I I I I #
coedge $-1 $509 $388 $391 $510 forward $261 $-1 #
coedge $-1 $394 $263 $264 $382 reversed $165 $-1 #
coedge $-1 $388 $509 $263 $380 reversed $261 $-1 #
edge $-1 $395 -6.5685389746138805 $511 6.5685389746138805 $379 $512 forward 7 unknown #
coedge $-1 $265 $264 $509 $513 forward $105 $-1 #
edge $-1 $386 -68.474990081484421 $511 68.474990081484421 $378 $514 forward 7 unknown #
coedge $-1 $391 $390 $265 $384 reversed $375 $-1 #
edge $-1 $515 -68.474990081484421 $385 68.474990081484421 $383 $516 forward 7 unknown #
vertex $-1 $267 $517 #
vertex $-1 $397 $518 #
straight-curve $-1 68.474990081484421 0 -6.5685389746138805 0 -1 0 I I #
coedge $-1 $377 $379 $268 $389 reversed $261 $-1 #
edge $-1 $392 -31.519560164190231 $395 31.519560164190231 $388 $519 forward 7 unknown #
coedge $-1 $383 $269 $274 $398 forward $375 $-1 #
coedge $-1 $269 $383 $377 $510 reversed $375 $-1 #
vertex $-1 $270 $520 #
straight-curve $-1 0 31.519560164190231 6.5685389746138805 -1 0 0 I I #
coedge $-1 $271 $378 $273 $397 reversed $165 $-1 #
vertex $-1 $389 $521 #
straight-curve $-1 0 -31.519560164190231 6.5685389746138805 1 0 0 I I #
edge $-1 $276 -6.5685389746138805 $386 6.5685389746138805 $273 $522 forward 7 unknown #
edge $-1 $277 -6.5685389746138805 $385 6.5685389746138805 $274 $523 forward 7 unknown #
point $-1 68.474990081484421 -31.519560164190231 6.5685389746138805 #
point $-1 68.474990081484421 31.519560164190231 6.5685389746138805 #
face $-1 $-1 $524 $40 $-1 $525 reversed single #
loop $-1 $-1 $289 $279 #
plane-surface $-1 0 -31.519560164190231 0 0 1 0 0 0 1 forward_v I I I I #
coedge $-1 $526 $282 $408 $527 forward $173 $-1 #
coedge $-1 $282 $526 $528 $529 forward $173 $-1 #
edge $-1 $530 -68.474990081484421 $409 68.474990081484421 $282 $531 forward 7 unknown #
coedge $-1 $284 $283 $532 $533 reversed $109 $-1 #
coedge $-1 $285 $291 $404 $527 reversed $280 $-1 #
vertex $-1 $527 $534 #
straight-curve $-1 68.474990081484421 -26.813209105281061 -2.5342694873069402 0 0 1 I I #
coedge $-1 $532 $535 $287 $412 forward $524 $-1 #
edge $-1 $417 -16.936367846822407 $413 -12.230016787913238 $411 $536 forward 7 unknown #
vertex $-1 $412 $537 #
straight-curve $-1 0 -26.813209105281061 -3.5685389746138805 -1 0 0 I I #
coedge $-1 $538 $289 $535 $539 forward $402 $-1 #
coedge $-1 $289 $538 $291 $419 reversed $402 $-1 #
vertex $-1 $539 $540 #
straight-curve $-1 0 -31.519560164190231 -3.5685389746138805 -1 0 0 I I #
edge $-1 $293 3.5685389746138805 $541 6.5685389746138805 $291 $542 forward 7 unknown #
point $-1 68.474990081484421 -26.813209105281061 -3.5685389746138805 #
point $-1 68.474990081484421 -31.519560164190231 -3.5685389746138805 #
plane-surface $-1 0 0 6.5685389746138805 0 0 1 1 0 0 forward_v I I I I #
coedge $-1 $433 $432 $425 $543 forward $296 $-1 #
coedge $-1 $425 $298 $300 $429 reversed $181 $-1 #
coedge $-1 $298 $424 $423 $543 reversed $181 $-1 #
coedge $-1 $306 $301 $298 $427 forward $307 $-1 #
edge $-1 $430 26.70719087604504 $544 32.54743322617184 $426 $545 forward 7 unknown #
coedge $-1 $300 $299 $433 $546 reversed $113 $-1 #
edge $-1 $547 -136.94998016296887 $430 -128.54262099158728 $424 $548 forward 7 unknown #
vertex $-1 $302 $549 #
straight-curve $-1 62.634747731357621 -10.028707831945477 6.5685389746138796 0 -1 0 I I #
coedge $-1 $423 $303 $306 $437 reversed $296 $-1 #
coedge $-1 $303 $423 $428 $546 forward $296 $-1 #
vertex $-1 $304 $550 #
straight-curve $-1 68.474990081484421 -16.703788245193895 97.083906119376024 0 0 1 I I #
straight-curve $-1 -26.658458804506523 -16.703788245193895 99.034363352761119 0.69465836192734942 0 -0.71933980857756763 I I #
edge $-1 $544 -23.411043082588012 $308 -16.703788245193895 $432 $551 forward 7 unknown #
point $-1 68.474990081484421 -16.703788245193895 6.5685389746138805 #
point $-1 62.634747731357621 -16.703788245193895 6.5685389746139009 #
edge $-1 $552 1 $552 0 $311 $-1 forward 7 unknown #
vertex $-1 $312 $553 #
ellipse-curve $-1 64.808109577566569 -22.069592115109188 2.8235278218807682 0.71933980857756763 0 0.69465836192734942 0.34732918096367471 0 -0.35966990428878381 1 I I #
point $-1 65.902198087384718 -22.069592115109188 3.184995001832859 #
edge $-1 $554 1 $554 0 $315 $-1 forward 7 unknown #
vertex $-1 $316 $555 #
ellipse-curve $-1 64.808109577566569 -20.057415663890954 2.8235278218807682 0.71933980857756763 0 0.69465836192734942 0.34732918096367471 0 -0.35966990428878381 1 I I #
point $-1 65.902198087384718 -20.057415663890954 3.184995001832859 #
edge $-1 $556 1 $556 0 $319 $-1 forward 7 unknown #
vertex $-1 $320 $557 #
ellipse-curve $-1 64.808109577566569 -18.045239212672719 2.8235278218807682 0.71933980857756763 0 0.69465836192734942 0.34732918096367471 0 -0.35966990428878381 1 I I #
point $-1 65.902198087384718 -18.045239212672719 3.184995001832859 #
plane-surface $-1 0 0 6.5685389746138805 0 0 1 1 0 0 forward_v I I I I #
coedge $-1 $463 $462 $455 $558 forward $324 $-1 #
coedge $-1 $455 $326 $328 $459 reversed $210 $-1 #
coedge $-1 $326 $454 $453 $558 reversed $210 $-1 #
coedge $-1 $334 $329 $326 $457 forward $335 $-1 #
edge $-1 $460 26.70719087604504 $559 32.54743322617184 $456 $560 forward 7 unknown #
coedge $-1 $328 $327 $463 $561 reversed $132 $-1 #
edge $-1 $562 -136.94998016296887 $460 -128.54262099158728 $454 $563 forward 7 unknown #
vertex $-1 $330 $564 #
straight-curve $-1 62.634747731357621 12.38188336140006 6.5685389746138796 0 -1 0 I I #
coedge $-1 $453 $331 $334 $467 reversed $324 $-1 #
coedge $-1 $331 $453 $458 $561 forward $324 $-1 #
vertex $-1 $332 $565 #
straight-curve $-1 68.474990081484421 28.117394141497179 97.083906119376024 0 0 1 I I #
straight-curve $-1 -26.658458804506523 28.117394141497179 99.034363352761119 0.69465836192734942 0 -0.71933980857756763 I I #
edge $-1 $559 21.410139304103062 $336 28.117394141497179 $462 $566 forward 7 unknown #
point $-1 68.474990081484421 28.117394141497179 6.5685389746138805 #
point $-1 62.634747731357621 28.117394141497179 6.5685389746139009 #
edge $-1 $567 1 $567 0 $339 $-1 forward 7 unknown #
vertex $-1 $340 $568 #
ellipse-curve $-1 64.808109577566569 22.75159027158189 2.8235278218807682 0.71933980857756763 0 0.69465836192734942 0.34732918096367471 0 -0.35966990428878381 1 I I #
point $-1 65.902198087384718 22.75159027158189 3.184995001832859 #
edge $-1 $569 1 $569 0 $343 $-1 forward 7 unknown #
vertex $-1 $344 $570 #
ellipse-curve $-1 64.808109577566569 24.763766722800121 2.8235278218807682 0.71933980857756763 0 0.69465836192734942 0.34732918096367471 0 -0.35966990428878381 1 I I #
point $-1 65.902198087384718 24.763766722800121 3.184995001832859 #
edge $-1 $571 1 $571 0 $347 $-1 forward 7 unknown #
vertex $-1 $348 $572 #
ellipse-curve $-1 64.808109577566569 26.775943174018359 2.8235278218807682 0.71933980857756763 0 0.69465836192734942 0.34732918096367471 0 -0.35966990428878381 1 I I #
point $-1 65.902198087384718 26.775943174018359 3.184995001832859 #
loop $-1 $-1 $359 $351 #
plane-surface $-1 -68.474990081484421 0 0 1 0 0 0 0 -1 forward_v I I I I #
coedge $-1 $485 $354 $356 $489 reversed $239 $-1 #
coedge $-1 $354 $484 $573 $574 reversed $239 $-1 #
coedge $-1 $362 $357 $354 $487 forward $352 $-1 #
edge $-1 $490 -27.041981877837799 $575 -24.457027909501036 $486 $576 forward 7 unknown #
coedge $-1 $356 $355 $493 $577 reversed $151 $-1 #
edge $-1 $578 8.2862793651327634e-014 $490 5.0189571600751561 $484 $579 forward 7 unknown #
vertex $-1 $358 $580 #
straight-curve $-1 -65.890036113147659 6.2635718973796379 6.5685389746138796 0 1 0 I I #
coedge $-1 $573 $359 $362 $497 reversed $482 $-1 #
coedge $-1 $359 $573 $488 $577 forward $482 $-1 #
vertex $-1 $360 $581 #
straight-curve $-1 -68.474990081484421 5.8141868641305514 36.400452665202849 0 0 1 I I #
straight-curve $-1 -68.474990081484464 5.8141868641305514 2.2664529740497983 -0.51503806187062418 0 -0.85716730853699208 I I #
edge $-1 $575 -19.240100725388 $363 -5.8141868641305514 $492 $582 forward 7 unknown #
point $-1 -68.474990081484421 5.8141868641305514 6.5685389746138805 #
point $-1 -65.890036113147659 5.8141868641305514 6.5685389746138805 #
edge $-1 $583 1 $583 0 $366 $-1 forward 7 unknown #
vertex $-1 $367 $584 #
ellipse-curve $-1 -64.742671777310278 9.6501622530612465 2.9514914589795178 -0.85716730853699208 0 0.51503806187062418 0.51503806187062418 0 0.85716730853699208 1 I I #
point $-1 -66.667475035445392 9.6501622530612465 5.2746632828688274 #
edge $-1 $585 1 $585 0 $370 $-1 forward 7 unknown #
vertex $-1 $371 $586 #
ellipse-curve $-1 -64.742671777310278 15.404125336457298 2.9514914589795178 -0.85716730853699208 0 0.51503806187062418 0.51503806187062418 0 0.85716730853699208 1 I I #
point $-1 -66.667475035445392 15.404125336457298 5.2746632828688274 #
plane-surface $-1 68.474990081484421 0 0 -1 0 0 0 0 1 forward_v I I I I #
coedge $-1 $379 $377 $381 $513 reversed $261 $-1 #
edge $-1 $392 -6.5685389746138805 $515 6.5685389746138805 $391 $587 forward 7 unknown #
vertex $-1 $513 $588 #
straight-curve $-1 -68.474990081484421 -31.519560164190231 0 0 0 -1 I I #
edge $-1 $511 -31.519560164190231 $515 31.519560164190231 $509 $589 forward 7 unknown #
straight-curve $-1 0 -31.519560164190231 -6.5685389746138805 -1 0 0 I I #
vertex $-1 $384 $590 #
straight-curve $-1 0 31.519560164190231 -6.5685389746138805 1 0 0 I I #
point $-1 68.474990081484421 31.519560164190231 -6.5685389746138805 #
point $-1 68.474990081484421 -31.519560164190231 -6.5685389746138805 #
straight-curve $-1 -68.474990081484421 0 6.5685389746138805 0 -1 0 I I #
point $-1 -68.474990081484421 31.519560164190231 6.5685389746138805 #
point $-1 -68.474990081484421 -31.519560164190231 6.5685389746138805 #
straight-curve $-1 68.474990081484421 -31.519560164190231 0 0 0 -1 I I #
straight-curve $-1 68.474990081484421 31.519560164190231 0 0 0 -1 I I #
loop $-1 $-1 $532 $401 #
plane-surface $-1 -68.474990081484421 0 0 1 0 0 0 0 -1 forward_v I I I I #
coedge $-1 $405 $404 $538 $591 forward $173 $-1 #
edge $-1 $409 26.813209105281061 $541 31.519560164190231 $408 $592 forward 7 unknown #
coedge $-1 $535 $532 $405 $529 reversed $524 $-1 #
edge $-1 $593 -31.519560164190231 $530 -26.813209105281061 $528 $594 forward 7 unknown #
vertex $-1 $533 $595 #
straight-curve $-1 0 -26.813209105281061 -6.5685389746138805 1 0 0 I I #
coedge $-1 $528 $411 $407 $533 forward $524 $-1 #
edge $-1 $413 1.0342694873069402 $530 4.0342694873069398 $532 $596 forward 7 unknown #
point $-1 68.474990081484421 -26.813209105281061 -6.5685389746138805 #
coedge $-1 $411 $528 $415 $539 reversed $524 $-1 #
straight-curve $-1 -68.474990081484421 -14.583192317367823 -3.5685389746138805 0 1 0 I I #
point $-1 -68.474990081484421 -26.813209105281061 -3.5685389746138805 #
coedge $-1 $416 $415 $526 $591 reversed $402 $-1 #
edge $-1 $417 3.5685389746138805 $593 6.5685389746138805 $535 $597 forward 7 unknown #
point $-1 -68.474990081484421 -31.519560164190231 -3.5685389746138805 #
vertex $-1 $419 $598 #
straight-curve $-1 68.474990081484421 -31.519560164190231 0 0 0 -1 I I #
edge $-1 $544 90.515367144762138 $547 96.563115281746619 $423 $599 forward 7 unknown #
vertex $-1 $437 $600 #
straight-curve $-1 35.927556855312581 -23.411043082588012 6.5685389746138867 1 0 0 I I #
edge $-1 $547 -13.382335250642535 $434 -6.6750804132484181 $433 $601 forward 7 unknown #
vertex $-1 $546 $602 #
straight-curve $-1 -26.658458804506523 -23.411043082588012 99.034363352761119 -0.69465836192734942 0 0.71933980857756763 I I #
point $-1 62.634747731357621 -23.411043082588012 6.5685389746139009 #
point $-1 68.474990081484435 -16.703788245193895 0.5207908376294057 #
straight-curve $-1 68.474990081484421 0 6.5685389746138805 0 1 0 I I #
vertex $-1 $440 $603 #
point $-1 65.155438758530252 -22.069592115109188 2.4638579175919846 #
vertex $-1 $444 $604 #
point $-1 65.155438758530252 -20.057415663890954 2.4638579175919846 #
vertex $-1 $448 $605 #
point $-1 65.155438758530252 -18.045239212672719 2.4638579175919846 #
edge $-1 $559 90.515367144762138 $562 96.563115281746619 $453 $606 forward 7 unknown #
vertex $-1 $467 $607 #
straight-curve $-1 35.927556855312581 21.410139304103062 6.5685389746138867 1 0 0 I I #
edge $-1 $562 9.0282559427030016 $464 15.735510780097119 $463 $608 forward 7 unknown #
vertex $-1 $561 $609 #
straight-curve $-1 -26.658458804506523 21.410139304103062 99.034363352761119 -0.69465836192734942 0 0.71933980857756763 I I #
point $-1 62.634747731357621 21.410139304103062 6.5685389746139009 #
point $-1 68.474990081484435 28.117394141497179 0.5207908376294057 #
straight-curve $-1 68.474990081484421 0 6.5685389746138805 0 1 0 I I #
vertex $-1 $470 $610 #
point $-1 65.155438758530252 22.75159027158189 2.4638579175919846 #
vertex $-1 $474 $611 #
point $-1 65.155438758530252 24.763766722800121 2.4638579175919846 #
vertex $-1 $478 $612 #
point $-1 65.155438758530252 26.775943174018359 2.4638579175919846 #
coedge $-1 $493 $492 $485 $574 forward $482 $-1 #
edge $-1 $575 29.831913690588969 $578 34.133999691152979 $573 $613 forward 7 unknown #
vertex $-1 $497 $614 #
straight-curve $-1 -92.932017990985457 19.240100725388 6.5685389746138796 -1 0 0 I I #
edge $-1 $578 -12.976528828008362 $494 0.44938503324908652 $493 $615 forward 7 unknown #
vertex $-1 $577 $616 #
straight-curve $-1 -68.474990081484464 19.240100725388 2.2664529740497983 0.51503806187062418 0 0.85716730853699208 I I #
point $-1 -65.890036113147659 19.240100725388 6.5685389746138805 #
point $-1 -68.474990081484421 5.8141868641305514 2.2664529740498693 #
straight-curve $-1 -68.474990081484421 0 6.5685389746138805 0 -1 0 I I #
vertex $-1 $500 $617 #
point $-1 -64.227633715439651 9.6501622530612465 3.8086587675165102 #
vertex $-1 $504 $618 #
point $-1 -64.227633715439651 15.404125336457298 3.8086587675165102 #
straight-curve $-1 -68.474990081484421 31.519560164190231 0 0 0 -1 I I #
point $-1 -68.474990081484421 -31.519560164190231 -6.5685389746138805 #
straight-curve $-1 -68.474990081484421 0 -6.5685389746138805 0 1 0 I I #
point $-1 -68.474990081484421 31.519560164190231 -6.5685389746138805 #
edge $-1 $541 -68.474990081484421 $593 68.474990081484421 $538 $619 forward 7 unknown #
straight-curve $-1 68.474990081484421 0 -6.5685389746138805 0 -1 0 I I #
vertex $-1 $529 $620 #
straight-curve $-1 -68.474990081484421 0 -6.5685389746138805 0 1 0 I I #
point $-1 -68.474990081484421 -26.813209105281061 -6.5685389746138805 #
straight-curve $-1 -68.474990081484421 -26.813209105281061 -2.5342694873069402 0 0 -1 I I #
straight-curve $-1 -68.474990081484421 -31.519560164190231 0 0 0 -1 I I #
point $-1 68.474990081484421 -31.519560164190231 -6.5685389746138805 #
straight-curve $-1 68.474990081484421 -23.411043082588012 97.083906119376024 0 0 -1 I I #
point $-1 68.474990081484421 -23.411043082588012 6.5685389746138805 #
straight-curve $-1 68.474990081484407 -10.028707831945477 0.52079083762941991 0 1 0 I I #
point $-1 68.474990081484435 -23.411043082588012 0.5207908376294057 #
point $-1 64.44843967327779 -22.069592115109188 2.4761986409170937 #
point $-1 64.44843967327779 -20.057415663890954 2.4761986409170937 #
point $-1 64.44843967327779 -18.045239212672719 2.4761986409170937 #
straight-curve $-1 68.474990081484421 21.410139304103062 97.083906119376024 0 0 -1 I I #
point $-1 68.474990081484421 21.410139304103062 6.5685389746138805 #
straight-curve $-1 68.474990081484407 12.38188336140006 0.52079083762941991 0 1 0 I I #
point $-1 68.474990081484435 21.410139304103062 0.5207908376294057 #
point $-1 64.44843967327779 22.75159027158189 2.4761986409170937 #
point $-1 64.44843967327779 24.763766722800121 2.4761986409170937 #
point $-1 64.44843967327779 26.775943174018359 2.4761986409170937 #
straight-curve $-1 -68.474990081484421 19.240100725388 36.400452665202849 0 0 -1 I I #
point $-1 -68.474990081484421 19.240100725388 6.5685389746138805 #
straight-curve $-1 -68.474990081484421 6.2635718973796379 2.2664529740498685 0 -1 0 I I #
point $-1 -68.474990081484421 19.240100725388 2.2664529740498693 #
point $-1 -63.885504468773291 9.6501622530612465 2.436453397108894 #
point $-1 -63.885504468773291 15.404125336457298 2.436453397108894 #
straight-curve $-1 0 -31.519560164190231 -6.5685389746138805 -1 0 0 I I #
point $-1 -68.474990081484421 -31.519560164190231 -6.5685389746138805 #
End-of-ACIS-data 