500 0 10 0           
7 Unknown 11 ACIS 5.0 NT 24 Fri Mar 26 20:48:16 1999 
-1 9.9999999999999995e-007 1e-010 
body $-1 $10 $-1 $11 #
body $-1 $12 $-1 $13 #
body $-1 $14 $-1 $15 #
body $-1 $16 $-1 $17 #
body $-1 $18 $-1 $19 #
body $-1 $20 $-1 $21 #
body $-1 $22 $-1 $23 #
body $-1 $24 $-1 $25 #
body $-1 $26 $-1 $27 #
body $-1 $28 $-1 $29 #
lump $-1 $-1 $30 $0 #
transform $-1 1 0 0 0 1 0 0 0 1 60.98696859645375 39.945933979734178 14.483403077676686 1 rotate no_reflect no_shear #
lump $-1 $-1 $31 $1 #
transform $-1 1 0 0 0 1 0 0 0 1 60.98696859645375 39.945933979734178 14.483403077676686 1 rotate no_reflect no_shear #
lump $-1 $-1 $32 $2 #
transform $-1 1 0 0 0 1 0 0 0 1 60.98696859645375 39.945933979734178 14.483403077676686 1 rotate no_reflect no_shear #
lump $-1 $-1 $33 $3 #
transform $-1 1 0 0 0 1 0 0 0 1 60.98696859645375 39.945933979734178 14.483403077676686 1 rotate no_reflect no_shear #
lump $-1 $-1 $34 $4 #
transform $-1 1 0 0 0 1 0 0 0 1 60.98696859645375 39.945933979734178 14.483403077676686 1 rotate no_reflect no_shear #
lump $-1 $-1 $35 $5 #
transform $-1 1 0 0 0 1 0 0 0 1 60.98696859645375 39.945933979734178 14.483403077676686 1 rotate no_reflect no_shear #
lump $-1 $-1 $36 $6 #
transform $-1 1 0 0 0 1 0 0 0 1 60.98696859645375 39.945933979734178 14.483403077676686 1 rotate no_reflect no_shear #
lump $-1 $-1 $37 $7 #
transform $-1 1 0 0 0 1 0 0 0 1 60.98696859645375 39.945933979734178 14.483403077676686 1 rotate no_reflect no_shear #
lump $-1 $-1 $38 $8 #
transform $-1 1 0 0 0 1 0 0 0 1 60.98696859645375 39.945933979734178 14.483403077676686 1 rotate no_reflect no_shear #
lump $-1 $-1 $39 $9 #
transform $-1 1 0 0 0 1 0 0 0 1 60.98696859645375 39.945933979734178 14.483403077676686 1 rotate no_reflect no_shear #
shell $-1 $-1 $-1 $40 $-1 $10 #
shell $-1 $-1 $-1 $41 $-1 $12 #
shell $-1 $-1 $-1 $42 $-1 $14 #
shell $-1 $-1 $-1 $43 $-1 $16 #
shell $-1 $-1 $-1 $44 $-1 $18 #
shell $-1 $-1 $-1 $45 $-1 $20 #
shell $-1 $-1 $-1 $46 $-1 $22 #
shell $-1 $-1 $-1 $47 $-1 $24 #
shell $-1 $-1 $-1 $48 $-1 $26 #
shell $-1 $-1 $-1 $49 $-1 $28 #
face $-1 $50 $51 $30 $-1 $52 forward single #
face $-1 $53 $54 $31 $-1 $55 reversed single #
face $-1 $56 $57 $32 $-1 $58 reversed single #
face $-1 $59 $60 $33 $-1 $61 reversed single #
face $-1 $62 $63 $34 $-1 $64 forward single #
face $-1 $65 $66 $35 $-1 $67 forward single #
face $-1 $68 $69 $36 $-1 $70 reversed single #
face $-1 $71 $72 $37 $-1 $73 forward single #
face $-1 $74 $75 $38 $-1 $76 forward single #
face $-1 $77 $78 $39 $-1 $79 forward single #
face $-1 $80 $81 $30 $-1 $82 reversed single #
loop $-1 $-1 $83 $40 #
plane-surface $-1 0 0 14.483403077676686 0 0 1 1 0 0 forward_v I I I I #
face $-1 $84 $85 $31 $-1 $86 reversed single #
loop $-1 $-1 $87 $41 #
plane-surface $-1 0 -33.469576000849358 5.833849518735553 0 0 1 1 0 0 forward_v I I I I #
face $-1 $88 $89 $32 $-1 $90 reversed single #
loop $-1 $-1 $91 $42 #
plane-surface $-1 0 33.469576000849358 5.833849518735553 0 0 1 1 0 0 forward_v I I I I #
face $-1 $92 $93 $33 $-1 $94 reversed single #
loop $-1 $-1 $95 $43 #
plane-surface $-1 -158.39968714209411 9.9510202839307418 79.104867597371879 0 1 0 -0.79863551827123203 0 0.60181501223851219 forward_v I I I I #
face $-1 $96 $97 $34 $-1 $98 forward single #
loop $-1 $99 $100 $44 #
cone-surface $-1 -57.057656720268511 14.057183911951618 9.6243627694887159 0.79863551827123203 0 -0.60181501223851219 0.90272251835776829 0 1.197953277406848 1 I I 0 1 1.5 forward I I I I #
face $-1 $101 $102 $35 $-1 $103 forward single #
loop $-1 $104 $105 $45 #
cone-surface $-1 -57.057656720268511 20.216429353982932 9.6243627694887159 0.79863551827123203 0 -0.60181501223851219 0.90272251835776829 0 1.197953277406848 1 I I 0 1 1.5 forward I I I I #
face $-1 $106 $107 $36 $-1 $108 reversed single #
loop $-1 $-1 $109 $46 #
plane-surface $-1 -43.565101401077968 -23.275516846373346 69.826844986104945 0.51503808176128008 0 0.85716729658548041 0.85716729658548041 0 -0.51503808176128008 forward_v I I I I #
face $-1 $110 $111 $37 $-1 $112 forward single #
loop $-1 $113 $114 $47 #
cone-surface $-1 54.276014447368304 -25.506137551728067 9.9316857156587552 -0.51503808176128008 0 -0.85716729658548041 0.4285836482927402 0 -0.25751904088064004 1 I I 0 1 0.5 forward I I I I #
face $-1 $115 $116 $38 $-1 $117 forward single #
loop $-1 $118 $119 $48 #
cone-surface $-1 54.276014447368304 -23.275516846373346 9.9316857156587552 -0.51503808176128008 0 -0.85716729658548041 0.4285836482927402 0 -0.25751904088064004 1 I I 0 1 0.5 forward I I I I #
face $-1 $120 $121 $39 $-1 $122 forward single #
loop $-1 $123 $124 $49 #
cone-surface $-1 54.276014447368304 -21.044896141018629 9.9316857156587552 -0.51503808176128008 0 -0.85716729658548041 0.4285836482927402 0 -0.25751904088064004 1 I I 0 1 0.5 forward I I I I #
face $-1 $125 $126 $30 $-1 $127 reversed single #
loop $-1 $-1 $128 $50 #
plane-surface $-1 0 0 -14.483403077676686 0 0 1 1 0 0 forward_v I I I I #
coedge $-1 $129 $130 $131 $132 forward $51 $-1 #
face $-1 $133 $134 $31 $-1 $135 reversed single #
loop $-1 $-1 $136 $53 #
plane-surface $-1 0 -26.993218021964541 10.158626298206118 0 -1 0 0 0 -1 forward_v I I I I #
coedge $-1 $137 $138 $139 $140 reversed $54 $-1 #
face $-1 $141 $142 $32 $-1 $143 forward single #
loop $-1 $-1 $144 $56 #
plane-surface $-1 0 26.993218021964537 10.158626298206118 0 1 0 0 0 1 forward_v I I I I #
coedge $-1 $145 $146 $147 $148 reversed $57 $-1 #
face $-1 $149 $150 $33 $-1 $151 reversed single #
loop $-1 $-1 $152 $59 #
plane-surface $-1 -60.986968596453735 17.136806632967279 5.6991210928427449 -0.79863551827123203 0 0.60181501223851219 0.60181501223851219 0 0.79863551827123203 forward_v I I I I #
coedge $-1 $153 $154 $155 $156 reversed $60 $-1 #
face $-1 $-1 $157 $34 $-1 $158 forward single #
loop $-1 $159 $160 $62 #
cone-surface $-1 -55.839083744736797 14.057183911951618 8.7061021945388344 0.79863551827123203 0 -0.60181501223851219 0.45136125917888414 0 0.59897663870342399 1 I I -0.70710678118654757 0.70710678118654757 0.75 forward I I I I #
loop $-1 $-1 $161 $44 #
coedge $-1 $100 $100 $162 $163 reversed $63 $-1 #
face $-1 $-1 $164 $35 $-1 $165 forward single #
loop $-1 $166 $167 $65 #
cone-surface $-1 -55.839083744736797 20.216429353982932 8.7061021945388344 0.79863551827123203 0 -0.60181501223851219 0.45136125917888414 0 0.59897663870342399 1 I I -0.70710678118654757 0.70710678118654757 0.75 forward I I I I #
loop $-1 $-1 $168 $45 #
coedge $-1 $105 $105 $169 $170 reversed $66 $-1 #
face $-1 $171 $172 $36 $-1 $173 forward single #
loop $-1 $-1 $174 $68 #
plane-surface $-1 19.256121235627958 -19.557815670782148 174.37891498363663 0 -1 0 -0.51503808176128008 0 -0.85716729658548041 forward_v I I I I #
coedge $-1 $175 $176 $177 $178 reversed $69 $-1 #
face $-1 $-1 $179 $37 $-1 $180 forward single #
loop $-1 $181 $182 $71 #
cone-surface $-1 53.658859184977658 -25.506137551728067 8.9045668936332998 -0.51503808176128008 0 -0.85716729658548041 0.2142918241463701 0 -0.12875952044032002 1 I I -0.70710678118654746 0.70710678118654746 0.25 forward I I I I #
loop $-1 $-1 $183 $47 #
coedge $-1 $114 $114 $184 $185 reversed $72 $-1 #
face $-1 $-1 $186 $38 $-1 $187 forward single #
loop $-1 $188 $189 $74 #
cone-surface $-1 53.658859184977658 -23.275516846373346 8.9045668936332998 -0.51503808176128008 0 -0.85716729658548041 0.2142918241463701 0 -0.12875952044032002 1 I I -0.70710678118654746 0.70710678118654746 0.25 forward I I I I #
loop $-1 $-1 $190 $48 #
coedge $-1 $119 $119 $191 $192 reversed $75 $-1 #
face $-1 $-1 $193 $39 $-1 $194 forward single #
loop $-1 $195 $196 $77 #
cone-surface $-1 53.658859184977658 -21.044896141018629 8.9045668936332998 -0.51503808176128008 0 -0.85716729658548041 0.2142918241463701 0 -0.12875952044032002 1 I I -0.70710678118654746 0.70710678118654746 0.25 forward I I I I #
loop $-1 $-1 $197 $49 #
coedge $-1 $124 $124 $198 $199 reversed $78 $-1 #
face $-1 $200 $201 $30 $-1 $202 reversed single #
loop $-1 $-1 $203 $80 #
plane-surface $-1 0 -39.945933979734178 0 0 1 0 0 0 1 forward_v I I I I #
coedge $-1 $204 $205 $206 $207 forward $81 $-1 #
coedge $-1 $208 $83 $209 $210 forward $51 $-1 #
coedge $-1 $83 $208 $211 $212 forward $51 $-1 #
coedge $-1 $213 $214 $83 $132 reversed $215 $-1 #
edge $-1 $216 -39.945933979734178 $217 39.945933979734178 $131 $218 forward 7 unknown #
face $-1 $219 $220 $31 $-1 $221 reversed single #
loop $-1 $-1 $222 $84 #
plane-surface $-1 -60.98696859645375 0 0 1 0 0 0 0 -1 forward_v I I I I #
coedge $-1 $223 $224 $225 $226 reversed $85 $-1 #
coedge $-1 $227 $87 $228 $229 reversed $54 $-1 #
coedge $-1 $87 $227 $223 $230 forward $54 $-1 #
coedge $-1 $225 $231 $87 $140 forward $232 $-1 #
edge $-1 $233 -23.211145979309499 $234 -10.258430021539862 $139 $235 forward 7 unknown #
face $-1 $236 $237 $32 $-1 $238 reversed single #
loop $-1 $-1 $239 $88 #
plane-surface $-1 0 0 14.483403077676686 0 0 1 1 0 0 forward_v I I I I #
coedge $-1 $240 $241 $242 $243 reversed $89 $-1 #
coedge $-1 $244 $91 $240 $245 forward $57 $-1 #
coedge $-1 $91 $244 $246 $247 reversed $57 $-1 #
coedge $-1 $248 $249 $91 $148 forward $237 $-1 #
edge $-1 $250 10.258430021539859 $251 23.211145979309499 $147 $252 forward 7 unknown #
face $-1 $253 $254 $33 $-1 $255 reversed single #
loop $-1 $-1 $256 $92 #
plane-surface $-1 -158.39968714209411 24.322592982003815 79.104867597371879 0 -1 0 0.79863551827123203 0 -0.60181501223851219 forward_v I I I I #
coedge $-1 $257 $258 $259 $260 reversed $93 $-1 #
coedge $-1 $154 $95 $261 $262 reversed $60 $-1 #
coedge $-1 $95 $153 $257 $263 reversed $60 $-1 #
coedge $-1 $259 $264 $95 $156 forward $265 $-1 #
edge $-1 $266 18.212874974593305 $267 24.832306053307221 $155 $268 forward 7 unknown #
loop $-1 $-1 $162 $96 #
plane-surface $-1 -60.986968596453735 17.136806632967279 5.6991210928427449 -0.79863551827123203 0 0.60181501223851219 0.60181501223851219 0 0.79863551827123203 forward_v I I I I #
loop $-1 $-1 $269 $62 #
coedge $-1 $160 $160 $161 $270 reversed $97 $-1 #
coedge $-1 $161 $161 $160 $270 forward $99 $-1 #
coedge $-1 $162 $162 $100 $163 forward $157 $-1 #
edge $-1 $271 0 $271 6.2831853071796004 $162 $272 forward 7 unknown #
loop $-1 $-1 $169 $101 #
plane-surface $-1 -60.986968596453735 17.136806632967279 5.6991210928427449 -0.79863551827123203 0 0.60181501223851219 0.60181501223851219 0 0.79863551827123203 forward_v I I I I #
loop $-1 $-1 $273 $65 #
coedge $-1 $167 $167 $168 $274 reversed $102 $-1 #
coedge $-1 $168 $168 $167 $274 forward $104 $-1 #
coedge $-1 $169 $169 $105 $170 forward $164 $-1 #
edge $-1 $275 0 $275 6.2831853071796004 $169 $276 forward 7 unknown #
face $-1 $277 $278 $36 $-1 $279 forward single #
loop $-1 $-1 $280 $106 #
plane-surface $-1 0 0 14.483403077676686 0 0 1 1 0 0 forward_v I I I I #
coedge $-1 $281 $282 $283 $284 reversed $107 $-1 #
coedge $-1 $285 $109 $286 $287 reversed $69 $-1 #
coedge $-1 $109 $285 $281 $288 forward $69 $-1 #
coedge $-1 $283 $289 $109 $178 forward $290 $-1 #
edge $-1 $291 -15.355459598777868 $292 -7.9200572475954747 $177 $293 forward 7 unknown #
loop $-1 $-1 $184 $110 #
plane-surface $-1 -43.565101401077968 -23.275516846373346 69.826844986104945 0.51503808176128008 0 0.85716729658548041 0.85716729658548041 0 -0.51503808176128008 forward_v I I I I #
loop $-1 $-1 $294 $71 #
coedge $-1 $182 $182 $183 $295 reversed $111 $-1 #
coedge $-1 $183 $183 $182 $295 forward $113 $-1 #
coedge $-1 $184 $184 $114 $185 forward $179 $-1 #
edge $-1 $296 0 $296 6.2831853071796004 $184 $297 forward 7 unknown #
loop $-1 $-1 $191 $115 #
plane-surface $-1 -43.565101401077968 -23.275516846373346 69.826844986104945 0.51503808176128008 0 0.85716729658548041 0.85716729658548041 0 -0.51503808176128008 forward_v I I I I #
loop $-1 $-1 $298 $74 #
coedge $-1 $189 $189 $190 $299 reversed $116 $-1 #
coedge $-1 $190 $190 $189 $299 forward $118 $-1 #
coedge $-1 $191 $191 $119 $192 forward $186 $-1 #
edge $-1 $300 0 $300 6.2831853071796004 $191 $301 forward 7 unknown #
loop $-1 $-1 $198 $120 #
plane-surface $-1 -43.565101401077968 -23.275516846373346 69.826844986104945 0.51503808176128008 0 0.85716729658548041 0.85716729658548041 0 -0.51503808176128008 forward_v I I I I #
loop $-1 $-1 $302 $77 #
coedge $-1 $196 $196 $197 $303 reversed $121 $-1 #
coedge $-1 $197 $197 $196 $303 forward $123 $-1 #
coedge $-1 $198 $198 $124 $199 forward $193 $-1 #
edge $-1 $304 0 $304 6.2831853071796004 $198 $305 forward 7 unknown #
face $-1 $306 $307 $30 $-1 $308 reversed single #
loop $-1 $-1 $309 $125 #
plane-surface $-1 -60.98696859645375 0 0 1 0 0 0 0 -1 forward_v I I I I #
coedge $-1 $310 $211 $311 $312 forward $126 $-1 #
coedge $-1 $313 $128 $310 $314 forward $81 $-1 #
coedge $-1 $128 $313 $315 $316 forward $81 $-1 #
coedge $-1 $214 $213 $128 $207 reversed $215 $-1 #
edge $-1 $317 -39.945933979734178 $318 39.945933979734178 $206 $319 forward 7 unknown #
coedge $-1 $130 $129 $320 $321 forward $51 $-1 #
coedge $-1 $322 $323 $129 $210 reversed $307 $-1 #
edge $-1 $217 -60.98696859645375 $324 60.98696859645375 $209 $325 forward 7 unknown #
coedge $-1 $203 $326 $130 $212 reversed $126 $-1 #
edge $-1 $327 -60.98696859645375 $216 60.98696859645375 $211 $328 forward 7 unknown #
coedge $-1 $206 $131 $326 $329 forward $215 $-1 #
coedge $-1 $131 $206 $322 $330 reversed $215 $-1 #
loop $-1 $-1 $213 $306 #
vertex $-1 $132 $331 #
vertex $-1 $132 $332 #
straight-curve $-1 60.98696859645375 0 14.483403077676686 0 1 0 I I #
face $-1 $333 $334 $31 $-1 $335 forward single #
loop $-1 $-1 $228 $133 #
plane-surface $-1 0 -39.945933979734178 0 0 1 0 0 0 1 forward_v I I I I #
coedge $-1 $336 $337 $338 $339 forward $134 $-1 #
coedge $-1 $338 $136 $138 $230 reversed $85 $-1 #
coedge $-1 $136 $338 $340 $341 reversed $85 $-1 #
coedge $-1 $342 $139 $136 $226 forward $232 $-1 #
edge $-1 $234 0.75453636963249426 $343 9.4040899285736224 $225 $344 forward 7 unknown #
coedge $-1 $138 $137 $336 $345 reversed $54 $-1 #
coedge $-1 $346 $347 $137 $229 forward $220 $-1 #
edge $-1 $348 -60.98696859645375 $233 60.98696859645375 $228 $349 forward 7 unknown #
edge $-1 $350 -60.98696859645375 $234 60.98696859645375 $223 $351 forward 7 unknown #
coedge $-1 $139 $342 $346 $352 forward $232 $-1 #
loop $-1 $-1 $225 $333 #
vertex $-1 $229 $353 #
vertex $-1 $140 $354 #
straight-curve $-1 60.98696859645375 -16.734788000424679 5.833849518735553 0 1 0 I I #
face $-1 $355 $356 $32 $-1 $357 reversed single #
loop $-1 $-1 $249 $141 #
plane-surface $-1 60.98696859645375 0 0 -1 0 0 0 0 1 forward_v I I I I #
coedge $-1 $358 $359 $241 $360 forward $142 $-1 #
coedge $-1 $361 $144 $145 $245 reversed $89 $-1 #
coedge $-1 $144 $361 $239 $360 reversed $89 $-1 #
coedge $-1 $362 $363 $144 $243 forward $356 $-1 #
edge $-1 $364 0.75453636963249426 $365 9.4040899285736224 $242 $366 forward 7 unknown #
coedge $-1 $146 $145 $363 $367 reversed $57 $-1 #
edge $-1 $250 -60.98696859645375 $364 60.98696859645375 $240 $368 forward 7 unknown #
coedge $-1 $369 $370 $146 $247 forward $371 $-1 #
edge $-1 $251 -60.98696859645375 $372 60.98696859645375 $246 $373 forward 7 unknown #
coedge $-1 $374 $147 $370 $375 reversed $237 $-1 #
coedge $-1 $147 $374 $361 $376 forward $237 $-1 #
vertex $-1 $148 $377 #
vertex $-1 $247 $378 #
straight-curve $-1 60.98696859645375 16.734788000424679 5.833849518735553 0 1 0 I I #
face $-1 $-1 $265 $33 $-1 $379 forward single #
loop $-1 $-1 $380 $149 #
plane-surface $-1 -60.98696859645375 0 0 1 0 0 0 0 -1 forward_v I I I I #
coedge $-1 $381 $382 $383 $384 reversed $150 $-1 #
coedge $-1 $385 $152 $154 $263 forward $93 $-1 #
coedge $-1 $152 $385 $381 $386 forward $93 $-1 #
coedge $-1 $383 $155 $152 $260 forward $265 $-1 #
edge $-1 $267 1.3826169674471025 $387 15.754189665520176 $259 $388 forward 7 unknown #
coedge $-1 $389 $390 $153 $262 forward $254 $-1 #
edge $-1 $391 -33.853312705843216 $266 -25.069030721009256 $261 $392 forward 7 unknown #
edge $-1 $267 -10.999112591246696 $391 2.3448253187574213e-014 $154 $393 forward 7 unknown #
coedge $-1 $155 $383 $389 $394 forward $265 $-1 #
loop $-1 $-1 $383 $253 #
vertex $-1 $262 $395 #
vertex $-1 $156 $396 #
straight-curve $-1 -79.199843571047055 9.9510202839307418 14.483403077676684 1 0 0 I I #
coedge $-1 $269 $269 $-1 $397 reversed $159 $-1 #
edge $-1 $398 0 $398 6.2831853071796004 $160 $399 forward 7 unknown #
vertex $-1 $163 $400 #
ellipse-curve $-1 -57.677253057096792 14.057183911951618 10.091262085259705 -0.79863551827123203 0 0.60181501223851219 0.90272251835776829 0 1.197953277406848 1 I I #
coedge $-1 $273 $273 $-1 $401 reversed $166 $-1 #
edge $-1 $402 0 $402 6.2831853071796004 $167 $403 forward 7 unknown #
vertex $-1 $170 $404 #
ellipse-curve $-1 -57.677253057096792 20.216429353982932 10.091262085259705 -0.79863551827123203 0 0.60181501223851219 0.90272251835776829 0 1.197953277406848 1 I I #
face $-1 $-1 $290 $36 $-1 $405 reversed single #
loop $-1 $-1 $286 $171 #
plane-surface $-1 0 -26.993218021964541 10.158626298206118 0 -1 0 0 0 -1 forward_v I I I I #
coedge $-1 $406 $407 $282 $408 forward $172 $-1 #
coedge $-1 $282 $174 $176 $288 reversed $107 $-1 #
coedge $-1 $174 $281 $280 $408 reversed $107 $-1 #
coedge $-1 $409 $177 $174 $284 forward $290 $-1 #
edge $-1 $292 -80.183835142419312 $410 -72.706054414141633 $283 $411 forward 7 unknown #
coedge $-1 $176 $175 $406 $412 reversed $69 $-1 #
coedge $-1 $413 $414 $175 $287 forward $278 $-1 #
edge $-1 $415 73.418055671124236 $291 87.936944648626366 $286 $416 forward 7 unknown #
edge $-1 $417 107.4550482154054 $292 121.97393719290751 $281 $418 forward 7 unknown #
coedge $-1 $177 $409 $413 $419 forward $290 $-1 #
loop $-1 $-1 $283 $277 #
vertex $-1 $287 $420 #
vertex $-1 $178 $421 #
straight-curve $-1 60.986968596453742 -11.637758423186673 7.0056223493990117 0 1 0 I I #
coedge $-1 $294 $294 $-1 $422 reversed $181 $-1 #
edge $-1 $423 0 $423 6.2831853071796004 $182 $424 forward 7 unknown #
vertex $-1 $185 $425 #
ellipse-curve $-1 54.764410189318639 -25.506137551728067 10.74451271353785 0.51503808176128008 0 0.85716729658548041 0.4285836482927402 0 -0.25751904088064004 1 I I #
coedge $-1 $298 $298 $-1 $426 reversed $188 $-1 #
edge $-1 $427 0 $427 6.2831853071796004 $189 $428 forward 7 unknown #
vertex $-1 $192 $429 #
ellipse-curve $-1 54.764410189318639 -23.275516846373346 10.74451271353785 0.51503808176128008 0 0.85716729658548041 0.4285836482927402 0 -0.25751904088064004 1 I I #
coedge $-1 $302 $302 $-1 $430 reversed $195 $-1 #
edge $-1 $431 0 $431 6.2831853071796004 $196 $432 forward 7 unknown #
vertex $-1 $199 $433 #
ellipse-curve $-1 54.764410189318639 -21.044896141018629 10.74451271353785 0.51503808176128008 0 0.85716729658548041 0.4285836482927402 0 -0.25751904088064004 1 I I #
face $-1 $-1 $215 $30 $-1 $434 reversed single #
loop $-1 $-1 $322 $200 #
plane-surface $-1 0 39.945933979734178 0 0 -1 0 0 0 -1 forward_v I I I I #
coedge $-1 $435 $320 $323 $436 forward $201 $-1 #
coedge $-1 $326 $203 $204 $314 reversed $126 $-1 #
coedge $-1 $320 $435 $203 $312 reversed $201 $-1 #
edge $-1 $327 -14.483403077676686 $437 14.483403077676686 $311 $438 forward 7 unknown #
coedge $-1 $205 $204 $435 $439 forward $81 $-1 #
edge $-1 $318 -60.98696859645375 $437 60.98696859645375 $310 $440 forward 7 unknown #
coedge $-1 $323 $322 $205 $316 reversed $307 $-1 #
edge $-1 $441 -60.98696859645375 $317 60.98696859645375 $315 $442 forward 7 unknown #
vertex $-1 $207 $443 #
vertex $-1 $329 $444 #
straight-curve $-1 60.98696859645375 0 -14.483403077676686 0 -1 0 I I #
coedge $-1 $309 $311 $208 $321 reversed $201 $-1 #
edge $-1 $324 -39.945933979734178 $327 39.945933979734178 $320 $445 forward 7 unknown #
coedge $-1 $315 $209 $214 $330 forward $307 $-1 #
coedge $-1 $209 $315 $309 $436 reversed $307 $-1 #
vertex $-1 $210 $446 #
straight-curve $-1 0 39.945933979734178 14.483403077676686 -1 0 0 I I #
coedge $-1 $211 $310 $213 $329 reversed $126 $-1 #
vertex $-1 $321 $447 #
straight-curve $-1 0 -39.945933979734178 14.483403077676686 1 0 0 I I #
edge $-1 $216 -14.483403077676686 $318 14.483403077676686 $213 $448 forward 7 unknown #
edge $-1 $217 -14.483403077676686 $317 14.483403077676686 $214 $449 forward 7 unknown #
point $-1 60.98696859645375 -39.945933979734178 14.483403077676686 #
point $-1 60.98696859645375 39.945933979734178 14.483403077676686 #
face $-1 $-1 $232 $31 $-1 $450 reversed single #
loop $-1 $-1 $340 $219 #
plane-surface $-1 0 0 14.483403077676686 0 0 1 1 0 0 forward_v I I I I #
coedge $-1 $451 $222 $227 $345 forward $134 $-1 #
coedge $-1 $222 $451 $452 $453 reversed $134 $-1 #
coedge $-1 $224 $223 $222 $339 reversed $85 $-1 #
edge $-1 $454 -9.4040899285736224 $350 -0.75453636963249426 $222 $455 forward 7 unknown #
coedge $-1 $452 $456 $224 $341 forward $334 $-1 #
edge $-1 $343 -60.98696859645375 $454 60.98696859645375 $340 $457 forward 7 unknown #
coedge $-1 $231 $225 $456 $458 reversed $232 $-1 #
vertex $-1 $226 $459 #
straight-curve $-1 60.98696859645375 -26.993218021964541 5.0793131491030588 0 0 1 I I #
edge $-1 $350 10.258430021539862 $348 23.211145979309499 $336 $460 forward 7 unknown #
coedge $-1 $461 $228 $231 $352 reversed $220 $-1 #
coedge $-1 $228 $461 $451 $462 forward $220 $-1 #
vertex $-1 $229 $463 #
straight-curve $-1 0 -39.945933979734178 5.833849518735553 1 0 0 I I #
vertex $-1 $345 $464 #
straight-curve $-1 0 -26.993218021964541 5.833849518735553 1 0 0 I I #
edge $-1 $465 -14.483403077676686 $233 -5.833849518735553 $231 $466 forward 7 unknown #
point $-1 60.98696859645375 -39.945933979734178 5.833849518735553 #
point $-1 60.98696859645375 -26.993218021964541 5.833849518735553 #
face $-1 $-1 $371 $32 $-1 $467 reversed single #
loop $-1 $-1 $242 $236 #
plane-surface $-1 -60.98696859645375 0 0 1 0 0 0 0 -1 forward_v I I I I #
coedge $-1 $468 $239 $374 $469 forward $142 $-1 #
coedge $-1 $239 $468 $362 $470 forward $142 $-1 #
edge $-1 $365 -60.98696859645375 $471 60.98696859645375 $239 $472 forward 7 unknown #
coedge $-1 $241 $240 $249 $376 reversed $89 $-1 #
coedge $-1 $473 $242 $359 $470 reversed $356 $-1 #
coedge $-1 $242 $473 $244 $367 forward $356 $-1 #
vertex $-1 $367 $474 #
vertex $-1 $243 $475 #
straight-curve $-1 -60.98696859645375 26.993218021964537 5.0793131491030588 0 0 1 I I #
edge $-1 $372 -23.211145979309499 $364 -10.258430021539859 $363 $476 forward 7 unknown #
straight-curve $-1 0 26.993218021964537 5.833849518735553 -1 0 0 I I #
coedge $-1 $477 $246 $473 $478 reversed $371 $-1 #
coedge $-1 $246 $477 $248 $375 forward $371 $-1 #
loop $-1 $-1 $246 $355 #
vertex $-1 $247 $479 #
straight-curve $-1 0 39.945933979734178 5.833849518735553 -1 0 0 I I #
coedge $-1 $249 $248 $358 $469 reversed $237 $-1 #
edge $-1 $480 -14.483403077676686 $251 -5.833849518735553 $248 $481 forward 7 unknown #
edge $-1 $471 -9.4040899285736224 $250 -0.75453636963249426 $249 $482 forward 7 unknown #
point $-1 60.98696859645375 26.993218021964537 5.833849518735553 #
point $-1 60.98696859645375 39.945933979734178 5.833849518735553 #
plane-surface $-1 0 0 14.483403077676686 0 0 1 1 0 0 forward_v I I I I #
coedge $-1 $390 $389 $382 $483 forward $254 $-1 #
coedge $-1 $382 $256 $258 $386 reversed $150 $-1 #
coedge $-1 $256 $381 $380 $483 reversed $150 $-1 #
coedge $-1 $264 $259 $256 $384 forward $265 $-1 #
edge $-1 $387 -24.832306053307221 $484 -18.212874974593305 $383 $485 forward 7 unknown #
coedge $-1 $258 $257 $390 $486 reversed $93 $-1 #
edge $-1 $487 -2.3448253187574213e-014 $387 10.999112591246696 $381 $488 forward 7 unknown #
vertex $-1 $260 $489 #
straight-curve $-1 -54.367537517739827 8.5684033164836393 14.483403077676687 0 1 0 I I #
coedge $-1 $380 $261 $264 $394 reversed $254 $-1 #
coedge $-1 $261 $380 $385 $486 forward $254 $-1 #
vertex $-1 $262 $490 #
straight-curve $-1 -60.98696859645375 9.9510202839307418 39.552433798685939 0 0 1 I I #
straight-curve $-1 -60.986968596453735 9.9510202839307418 5.6991210928427449 -0.60181501223851219 0 -0.79863551827123203 I I #
edge $-1 $484 -24.322592982003815 $266 -9.9510202839307418 $389 $491 forward 7 unknown #
point $-1 -60.98696859645375 9.9510202839307418 14.483403077676686 #
point $-1 -54.367537517739834 9.9510202839307418 14.483403077676686 #
edge $-1 $492 1 $492 0 $269 $-1 forward 7 unknown #
vertex $-1 $270 $493 #
ellipse-curve $-1 -56.438060383440224 14.057183911951618 9.1574634537177193 -0.79863551827123203 0 0.60181501223851219 0.90272251835776829 0 1.197953277406848 1 I I #
point $-1 -56.774530538739029 14.057183911951618 11.28921536266656 #
edge $-1 $494 1 $494 0 $273 $-1 forward 7 unknown #
vertex $-1 $274 $495 #
ellipse-curve $-1 -56.438060383440224 20.216429353982932 9.1574634537177193 -0.79863551827123203 0 0.60181501223851219 0.90272251835776829 0 1.197953277406848 1 I I #
point $-1 -56.774530538739029 20.216429353982932 11.28921536266656 #
plane-surface $-1 60.98696859645375 0 0 -1 0 0 0 0 1 forward_v I I I I #
coedge $-1 $496 $280 $285 $412 forward $172 $-1 #
coedge $-1 $280 $496 $409 $497 forward $172 $-1 #
edge $-1 $410 -51.35890797863977 $417 -38.913791164369549 $280 $498 forward 7 unknown #
coedge $-1 $289 $283 $407 $497 reversed $290 $-1 #
vertex $-1 $284 $499 #
straight-curve $-1 60.98696859645375 -19.557815670782148 87.189457491818317 0 0 1 I I #
edge $-1 $417 7.9200572475954747 $415 15.355459598777871 $406 $500 forward 7 unknown #
coedge $-1 $414 $286 $289 $419 reversed $278 $-1 #
coedge $-1 $286 $413 $496 $501 reversed $278 $-1 #
vertex $-1 $501 $502 #
straight-curve $-1 -14.389704517996339 -26.993218021964541 52.296497637175385 0.85716729658548041 0 -0.51503808176128008 I I #
vertex $-1 $412 $503 #
straight-curve $-1 -43.565101401077968 -19.557815670782148 69.826844986104945 0.85716729658548041 0 -0.51503808176128008 I I #
edge $-1 $504 -9.4040899285736224 $291 -1.9263092002959485 $289 $505 forward 7 unknown #
point $-1 60.98696859645375 -26.993218021964541 7.0056223493990073 #
point $-1 60.98696859645375 -19.557815670782148 7.0056223493990046 #
edge $-1 $506 1 $506 0 $294 $-1 forward 7 unknown #
vertex $-1 $295 $507 #
ellipse-curve $-1 53.787618705417977 -25.506137551728067 9.1188587177796698 0.51503808176128008 0 0.85716729658548041 0.4285836482927402 0 -0.25751904088064004 1 I I #
point $-1 55.192993837611375 -25.506137551728067 10.486993672657203 #
edge $-1 $508 1 $508 0 $298 $-1 forward 7 unknown #
vertex $-1 $299 $509 #
ellipse-curve $-1 53.787618705417977 -23.275516846373346 9.1188587177796698 0.51503808176128008 0 0.85716729658548041 0.4285836482927402 0 -0.25751904088064004 1 I I #
point $-1 55.192993837611375 -23.275516846373346 10.486993672657203 #
edge $-1 $510 1 $510 0 $302 $-1 forward 7 unknown #
vertex $-1 $303 $511 #
ellipse-curve $-1 53.787618705417977 -21.044896141018629 9.1188587177796698 0.51503808176128008 0 0.85716729658548041 0.4285836482927402 0 -0.25751904088064004 1 I I #
point $-1 55.192993837611375 -21.044896141018629 10.486993672657203 #
plane-surface $-1 60.98696859645375 0 0 -1 0 0 0 0 1 forward_v I I I I #
coedge $-1 $311 $309 $313 $439 reversed $201 $-1 #
edge $-1 $324 -14.483403077676686 $441 14.483403077676686 $323 $512 forward 7 unknown #
vertex $-1 $439 $513 #
straight-curve $-1 -60.98696859645375 -39.945933979734178 0 0 0 -1 I I #
edge $-1 $437 -39.945933979734178 $441 39.945933979734178 $435 $514 forward 7 unknown #
straight-curve $-1 0 -39.945933979734178 -14.483403077676686 -1 0 0 I I #
vertex $-1 $316 $515 #
straight-curve $-1 0 39.945933979734178 -14.483403077676686 1 0 0 I I #
point $-1 60.98696859645375 39.945933979734178 -14.483403077676686 #
point $-1 60.98696859645375 -39.945933979734178 -14.483403077676686 #
straight-curve $-1 -60.98696859645375 0 14.483403077676686 0 -1 0 I I #
point $-1 -60.98696859645375 39.945933979734178 14.483403077676686 #
point $-1 -60.98696859645375 -39.945933979734178 14.483403077676686 #
straight-curve $-1 60.98696859645375 -39.945933979734178 0 0 0 -1 I I #
straight-curve $-1 60.98696859645375 39.945933979734178 0 0 0 -1 I I #
plane-surface $-1 60.98696859645375 0 0 -1 0 0 0 0 1 forward_v I I I I #
coedge $-1 $337 $336 $347 $462 reversed $134 $-1 #
coedge $-1 $516 $340 $337 $453 forward $334 $-1 #
edge $-1 $454 26.993218021964541 $517 39.945933979734178 $337 $518 forward 7 unknown #
vertex $-1 $453 $519 #
straight-curve $-1 -60.98696859645375 -26.993218021964541 5.0793131491030588 0 0 -1 I I #
coedge $-1 $340 $516 $342 $458 forward $334 $-1 #
straight-curve $-1 0 -26.993218021964541 14.483403077676686 -1 0 0 I I #
edge $-1 $465 -39.945933979734178 $343 -26.993218021964541 $342 $520 forward 7 unknown #
point $-1 60.98696859645375 -26.993218021964541 14.483403077676682 #
straight-curve $-1 -60.98696859645375 -16.734788000424679 5.833849518735553 0 -1 0 I I #
coedge $-1 $347 $346 $516 $521 reversed $220 $-1 #
edge $-1 $517 -14.483403077676686 $348 -5.833849518735553 $451 $522 forward 7 unknown #
point $-1 -60.98696859645375 -39.945933979734178 5.833849518735553 #
point $-1 -60.98696859645375 -26.993218021964541 5.833849518735553 #
vertex $-1 $458 $523 #
straight-curve $-1 60.98696859645375 -39.945933979734178 0 0 0 -1 I I #
plane-surface $-1 0 39.945933979734178 0 0 -1 0 0 0 -1 forward_v I I I I #
coedge $-1 $359 $358 $477 $524 forward $142 $-1 #
edge $-1 $471 26.993218021964537 $480 39.945933979734178 $374 $525 forward 7 unknown #
edge $-1 $526 -39.945933979734178 $365 -26.993218021964537 $362 $527 forward 7 unknown #
vertex $-1 $469 $528 #
straight-curve $-1 0 26.993218021964537 14.483403077676686 1 0 0 I I #
coedge $-1 $363 $362 $369 $478 forward $356 $-1 #
point $-1 -60.98696859645375 26.993218021964537 5.833849518735553 #
point $-1 -60.98696859645375 26.993218021964537 14.483403077676682 #
straight-curve $-1 -60.98696859645375 16.734788000424679 5.833849518735553 0 -1 0 I I #
coedge $-1 $370 $369 $468 $524 reversed $371 $-1 #
edge $-1 $526 -14.483403077676686 $372 -5.833849518735553 $369 $529 forward 7 unknown #
point $-1 -60.98696859645375 39.945933979734178 5.833849518735553 #
vertex $-1 $469 $530 #
straight-curve $-1 60.98696859645375 39.945933979734178 0 0 0 -1 I I #
straight-curve $-1 60.98696859645375 26.993218021964537 5.0793131491030588 0 0 -1 I I #
edge $-1 $484 25.069030721009256 $487 33.853312705843216 $380 $531 forward 7 unknown #
vertex $-1 $394 $532 #
straight-curve $-1 -79.199843571047055 24.322592982003815 14.483403077676684 -1 0 0 I I #
edge $-1 $487 -15.754189665520176 $391 -1.3826169674471025 $390 $533 forward 7 unknown #
vertex $-1 $486 $534 #
straight-curve $-1 -60.986968596453735 24.322592982003815 5.6991210928427449 0.60181501223851219 0 0.79863551827123203 I I #
point $-1 -54.367537517739834 24.322592982003815 14.483403077676686 #
point $-1 -60.98696859645375 9.9510202839307418 5.6991210928427263 #
straight-curve $-1 -60.98696859645375 0 14.483403077676686 0 -1 0 I I #
vertex $-1 $397 $535 #
point $-1 -55.535337865082454 14.057183911951618 10.355416731124567 #
vertex $-1 $401 $536 #
point $-1 -55.535337865082454 20.216429353982932 10.355416731124567 #
coedge $-1 $407 $406 $414 $501 forward $172 $-1 #
edge $-1 $504 -26.993218021964541 $410 -19.557815670782148 $409 $537 forward 7 unknown #
straight-curve $-1 9.6280606178139791 -19.557815670782148 14.483403077676684 -1 0 0 I I #
point $-1 60.98696859645375 -19.557815670782148 14.483403077676686 #
straight-curve $-1 48.541851782183528 -11.637758423186673 14.483403077676684 0 -1 0 I I #
edge $-1 $415 48.541851782183528 $504 60.98696859645375 $496 $538 forward 7 unknown #
point $-1 48.541851782183528 -26.993218021964545 14.483403077676684 #
point $-1 48.541851782183528 -19.557815670782148 14.483403077676684 #
vertex $-1 $497 $539 #
straight-curve $-1 60.98696859645375 -26.993218021964541 5.0793131491030588 0 0 -1 I I #
vertex $-1 $422 $540 #
point $-1 54.21620235371072 -25.506137551728067 8.8613396768990302 #
vertex $-1 $426 $541 #
point $-1 54.21620235371072 -23.275516846373346 8.8613396768990302 #
vertex $-1 $430 $542 #
point $-1 54.21620235371072 -21.044896141018629 8.8613396768990302 #
straight-curve $-1 -60.98696859645375 39.945933979734178 0 0 0 -1 I I #
point $-1 -60.98696859645375 -39.945933979734178 -14.483403077676686 #
straight-curve $-1 -60.98696859645375 0 -14.483403077676686 0 1 0 I I #
point $-1 -60.98696859645375 39.945933979734178 -14.483403077676686 #
coedge $-1 $456 $452 $461 $521 forward $334 $-1 #
vertex $-1 $453 $543 #
straight-curve $-1 -60.98696859645375 0 14.483403077676686 0 -1 0 I I #
point $-1 -60.98696859645375 -26.993218021964541 14.483403077676682 #
straight-curve $-1 60.98696859645375 0 14.483403077676686 0 1 0 I I #
edge $-1 $517 -60.98696859645375 $465 60.98696859645375 $461 $544 forward 7 unknown #
straight-curve $-1 -60.98696859645375 -39.945933979734178 0 0 0 -1 I I #
point $-1 60.98696859645375 -39.945933979734178 14.483403077676686 #
edge $-1 $480 -60.98696859645375 $526 60.98696859645375 $477 $545 forward 7 unknown #
straight-curve $-1 60.98696859645375 0 14.483403077676686 0 1 0 I I #
vertex $-1 $524 $546 #
straight-curve $-1 -60.98696859645375 0 14.483403077676686 0 -1 0 I I #
point $-1 60.98696859645375 26.993218021964537 14.483403077676682 #
straight-curve $-1 -60.98696859645375 39.945933979734178 0 0 0 -1 I I #
point $-1 60.98696859645375 39.945933979734178 14.483403077676686 #
straight-curve $-1 -60.98696859645375 24.322592982003815 39.552433798685939 0 0 -1 I I #
point $-1 -60.98696859645375 24.322592982003815 14.483403077676686 #
straight-curve $-1 -60.98696859645375 8.5684033164836393 5.6991210928427289 0 -1 0 I I #
point $-1 -60.98696859645375 24.322592982003815 5.6991210928427263 #
point $-1 -55.240107106033371 14.057183911951618 8.2547409353599495 #
point $-1 -55.240107106033371 20.216429353982932 8.2547409353599495 #
straight-curve $-1 60.98696859645375 0 14.483403077676686 0 1 0 I I #
straight-curve $-1 0 -26.993218021964541 14.483403077676686 1 0 0 I I #
point $-1 60.98696859645375 -26.993218021964541 14.483403077676682 #
point $-1 53.530099664537339 -25.506137551728067 8.6902750694869297 #
point $-1 53.530099664537339 -23.275516846373346 8.6902750694869297 #
point $-1 53.530099664537339 -21.044896141018629 8.6902750694869297 #
point $-1 -60.98696859645375 -39.945933979734178 14.483403077676686 #
straight-curve $-1 0 -39.945933979734178 14.483403077676686 1 0 0 I I #
straight-curve $-1 0 39.945933979734178 14.483403077676686 -1 0 0 I I #
point $-1 -60.98696859645375 39.945933979734178 14.483403077676686 #
End-of-ACIS-data 