500 0 18 0           
7 Unknown 11 ACIS 5.0 NT 24 Thu Mar 25 22:14:20 1999 
-1 9.9999999999999995e-007 1e-010 
body $-1 $18 $-1 $19 #
body $-1 $20 $-1 $21 #
body $-1 $22 $-1 $23 #
body $-1 $24 $-1 $25 #
body $-1 $26 $-1 $27 #
body $-1 $28 $-1 $29 #
body $-1 $30 $-1 $31 #
body $-1 $32 $-1 $33 #
body $-1 $34 $-1 $35 #
body $-1 $36 $-1 $37 #
body $-1 $38 $-1 $39 #
body $-1 $40 $-1 $41 #
body $-1 $42 $-1 $43 #
body $-1 $44 $-1 $45 #
body $-1 $46 $-1 $47 #
body $-1 $48 $-1 $49 #
body $-1 $50 $-1 $51 #
body $-1 $52 $-1 $53 #
lump $-1 $-1 $54 $0 #
transform $-1 1 0 0 0 1 0 0 0 1 59.432966093935974 34.558074172018898 8.0633045525911218 1 rotate no_reflect no_shear #
lump $-1 $-1 $55 $1 #
transform $-1 1 0 0 0 1 0 0 0 1 59.432966093935974 34.558074172018898 8.0633045525911218 1 rotate no_reflect no_shear #
lump $-1 $-1 $56 $2 #
transform $-1 1 0 0 0 1 0 0 0 1 59.432966093935974 34.558074172018898 8.0633045525911218 1 rotate no_reflect no_shear #
lump $-1 $-1 $57 $3 #
transform $-1 1 0 0 0 1 0 0 0 1 59.432966093935974 34.558074172018898 8.0633045525911218 1 rotate no_reflect no_shear #
lump $-1 $-1 $58 $4 #
transform $-1 1 0 0 0 1 0 0 0 1 59.432966093935974 34.558074172018898 8.0633045525911218 1 rotate no_reflect no_shear #
lump $-1 $-1 $59 $5 #
transform $-1 1 0 0 0 1 0 0 0 1 59.432966093935974 34.558074172018898 8.0633045525911218 1 rotate no_reflect no_shear #
lump $-1 $-1 $60 $6 #
transform $-1 1 0 0 0 1 0 0 0 1 59.432966093935974 34.558074172018898 8.0633045525911218 1 rotate no_reflect no_shear #
lump $-1 $-1 $61 $7 #
transform $-1 1 0 0 0 1 0 0 0 1 59.432966093935974 34.558074172018898 8.0633045525911218 1 rotate no_reflect no_shear #
lump $-1 $-1 $62 $8 #
transform $-1 1 0 0 0 1 0 0 0 1 59.432966093935974 34.558074172018898 8.0633045525911218 1 rotate no_reflect no_shear #
lump $-1 $-1 $63 $9 #
transform $-1 1 0 0 0 1 0 0 0 1 59.432966093935974 34.558074172018898 8.0633045525911218 1 rotate no_reflect no_shear #
lump $-1 $-1 $64 $10 #
transform $-1 1 0 0 0 1 0 0 0 1 59.432966093935974 34.558074172018898 8.0633045525911218 1 rotate no_reflect no_shear #
lump $-1 $-1 $65 $11 #
transform $-1 1 0 0 0 1 0 0 0 1 59.432966093935974 34.558074172018898 8.0633045525911218 1 rotate no_reflect no_shear #
lump $-1 $-1 $66 $12 #
transform $-1 1 0 0 0 1 0 0 0 1 59.432966093935974 34.558074172018898 8.0633045525911218 1 rotate no_reflect no_shear #
lump $-1 $-1 $67 $13 #
transform $-1 1 0 0 0 1 0 0 0 1 59.432966093935974 34.558074172018898 8.0633045525911218 1 rotate no_reflect no_shear #
lump $-1 $-1 $68 $14 #
transform $-1 1 0 0 0 1 0 0 0 1 59.432966093935974 34.558074172018898 8.0633045525911218 1 rotate no_reflect no_shear #
lump $-1 $-1 $69 $15 #
transform $-1 1 0 0 0 1 0 0 0 1 59.432966093935974 34.558074172018898 8.0633045525911218 1 rotate no_reflect no_shear #
lump $-1 $-1 $70 $16 #
transform $-1 1 0 0 0 1 0 0 0 1 59.432966093935974 34.558074172018898 8.0633045525911218 1 rotate no_reflect no_shear #
lump $-1 $-1 $71 $17 #
transform $-1 1 0 0 0 1 0 0 0 1 59.432966093935974 34.558074172018898 8.0633045525911218 1 rotate no_reflect no_shear #
shell $-1 $-1 $-1 $72 $-1 $18 #
shell $-1 $-1 $-1 $73 $-1 $20 #
shell $-1 $-1 $-1 $74 $-1 $22 #
shell $-1 $-1 $-1 $75 $-1 $24 #
shell $-1 $-1 $-1 $76 $-1 $26 #
shell $-1 $-1 $-1 $77 $-1 $28 #
shell $-1 $-1 $-1 $78 $-1 $30 #
shell $-1 $-1 $-1 $79 $-1 $32 #
shell $-1 $-1 $-1 $80 $-1 $34 #
shell $-1 $-1 $-1 $81 $-1 $36 #
shell $-1 $-1 $-1 $82 $-1 $38 #
shell $-1 $-1 $-1 $83 $-1 $40 #
shell $-1 $-1 $-1 $84 $-1 $42 #
shell $-1 $-1 $-1 $85 $-1 $44 #
shell $-1 $-1 $-1 $86 $-1 $46 #
shell $-1 $-1 $-1 $87 $-1 $48 #
shell $-1 $-1 $-1 $88 $-1 $50 #
shell $-1 $-1 $-1 $89 $-1 $52 #
face $-1 $90 $91 $54 $-1 $92 forward single #
face $-1 $93 $94 $55 $-1 $95 forward single #
face $-1 $96 $97 $56 $-1 $98 reversed single #
face $-1 $99 $100 $57 $-1 $101 forward single #
face $-1 $102 $103 $58 $-1 $104 forward single #
face $-1 $105 $106 $59 $-1 $107 reversed single #
face $-1 $108 $109 $60 $-1 $110 forward single #
face $-1 $111 $112 $61 $-1 $113 forward single #
face $-1 $114 $115 $62 $-1 $116 reversed single #
face $-1 $117 $118 $63 $-1 $119 forward single #
face $-1 $120 $121 $64 $-1 $122 forward single #
face $-1 $123 $124 $65 $-1 $125 reversed single #
face $-1 $126 $127 $66 $-1 $128 forward single #
face $-1 $129 $130 $67 $-1 $131 forward single #
face $-1 $132 $133 $68 $-1 $134 reversed single #
face $-1 $135 $136 $69 $-1 $137 forward single #
face $-1 $138 $139 $70 $-1 $140 forward single #
face $-1 $141 $142 $71 $-1 $143 forward single #
face $-1 $144 $145 $54 $-1 $146 reversed single #
loop $-1 $-1 $147 $72 #
plane-surface $-1 0 0 8.0633045525911218 0 0 1 1 0 0 forward_v I I I I #
face $-1 $148 $149 $55 $-1 $150 reversed single #
loop $-1 $-1 $151 $73 #
plane-surface $-1 -59.432966093935974 0 0 1 0 0 0 0 -1 forward_v I I I I #
face $-1 $152 $153 $56 $-1 $154 reversed single #
loop $-1 $-1 $155 $74 #
plane-surface $-1 -33.407320094560284 -102.73677283856404 97.394149178536153 -1 0 0 0 -0.57357644374324357 0.81915203911291934 forward_v I I I I #
face $-1 $156 $157 $57 $-1 $158 forward single #
loop $-1 $159 $160 $75 #
cone-surface $-1 -42.162475697076488 -28.087116996109021 3.0002207589544723 0 0.57357644374324357 -0.81915203911291934 1 0 0 1 I I 0 1 1 forward I I I I #
face $-1 $161 $162 $58 $-1 $163 forward single #
loop $-1 $164 $165 $76 #
cone-surface $-1 -36.909382335566768 -28.087116996109021 3.0002207589544723 0 0.57357644374324357 -0.81915203911291934 1 0 0 1 I I 0 1 1 forward I I I I #
face $-1 $166 $167 $59 $-1 $168 reversed single #
loop $-1 $-1 $169 $77 #
plane-surface $-1 -5.938711738460877 -102.73677283856404 97.394149178536153 -1 0 0 0 -0.57357644374324357 0.81915203911291934 forward_v I I I I #
face $-1 $170 $171 $60 $-1 $172 forward single #
loop $-1 $173 $174 $78 #
cone-surface $-1 -14.693867340977079 -28.087116996109021 3.0002207589544723 0 0.57357644374324357 -0.81915203911291934 1 0 0 1 I I 0 1 1 forward I I I I #
face $-1 $175 $176 $61 $-1 $177 forward single #
loop $-1 $178 $179 $79 #
cone-surface $-1 -9.4407739794673589 -28.087116996109021 3.0002207589544723 0 0.57357644374324357 -0.81915203911291934 1 0 0 1 I I 0 1 1 forward I I I I #
face $-1 $180 $181 $62 $-1 $182 reversed single #
loop $-1 $-1 $183 $80 #
plane-surface $-1 21.529896617638538 -102.73677283856404 97.394149178536153 -1 0 0 0 -0.57357644374324357 0.81915203911291934 forward_v I I I I #
face $-1 $184 $185 $63 $-1 $186 forward single #
loop $-1 $187 $188 $81 #
cone-surface $-1 12.774741015122331 -28.087116996109021 3.0002207589544723 0 0.57357644374324357 -0.81915203911291934 1 0 0 1 I I 0 1 1 forward I I I I #
face $-1 $189 $190 $64 $-1 $191 forward single #
loop $-1 $192 $193 $82 #
cone-surface $-1 18.027834376632043 -28.087116996109021 3.0002207589544723 0 0.57357644374324357 -0.81915203911291934 1 0 0 1 I I 0 1 1 forward I I I I #
face $-1 $194 $195 $65 $-1 $196 reversed single #
loop $-1 $-1 $197 $83 #
plane-surface $-1 48.998504973737951 -102.73677283856404 97.394149178536153 -1 0 0 0 -0.57357644374324357 0.81915203911291934 forward_v I I I I #
face $-1 $198 $199 $66 $-1 $200 forward single #
loop $-1 $201 $202 $84 #
cone-surface $-1 40.24334937122174 -28.087116996109021 3.0002207589544723 0 0.57357644374324357 -0.81915203911291934 1 0 0 1 I I 0 1 1 forward I I I I #
face $-1 $203 $204 $67 $-1 $205 forward single #
loop $-1 $206 $207 $85 #
cone-surface $-1 45.496442732731452 -28.087116996109021 3.0002207589544723 0 0.57357644374324357 -0.81915203911291934 1 0 0 1 I I 0 1 1 forward I I I I #
face $-1 $208 $209 $68 $-1 $210 reversed single #
loop $-1 $-1 $211 $86 #
plane-surface $-1 -39.696397636192472 102.94091876462929 121.72723847593207 1 0 0 0 -0.86602541151947299 -0.49999998660252726 forward_v I I I I #
face $-1 $212 $213 $69 $-1 $214 forward single #
loop $-1 $215 $216 $87 #
cone-surface $-1 -33.894348862907293 31.094714444770251 4.188609089416957 0 -0.86602541151947299 -0.49999998660252726 1.5 0 0 1 I I 0 1 1.5 forward I I I I #
face $-1 $217 $218 $70 $-1 $219 forward single #
loop $-1 $220 $221 $88 #
cone-surface $-1 -25.191275702979539 31.094714444770251 4.188609089416957 0 -0.86602541151947299 -0.49999998660252726 1.5 0 0 1 I I 0 1 1.5 forward I I I I #
face $-1 $222 $223 $71 $-1 $224 forward single #
loop $-1 $225 $226 $89 #
cone-surface $-1 -16.488202543051784 31.094714444770251 4.188609089416957 0 -0.86602541151947299 -0.49999998660252726 1.5 0 0 1 I I 0 1 1.5 forward I I I I #
face $-1 $227 $228 $54 $-1 $229 reversed single #
loop $-1 $-1 $230 $90 #
plane-surface $-1 0 0 -8.0633045525911218 0 0 1 1 0 0 forward_v I I I I #
coedge $-1 $231 $232 $233 $234 forward $91 $-1 #
face $-1 $235 $236 $55 $-1 $237 forward single #
loop $-1 $-1 $238 $93 #
plane-surface $-1 0 34.558074172018898 0 0 -1 0 0 0 -1 forward_v I I I I #
coedge $-1 $239 $240 $241 $242 forward $94 $-1 #
face $-1 $243 $244 $56 $-1 $245 reversed single #
loop $-1 $-1 $246 $96 #
plane-surface $-1 -39.535929016321624 -34.558074172018891 0.024878445782860581 0 -0.57357644374324357 0.81915203911291934 1 0 0 forward_v I I I I #
coedge $-1 $247 $248 $249 $250 reversed $97 $-1 #
face $-1 $-1 $251 $57 $-1 $252 forward single #
loop $-1 $253 $254 $99 #
cone-surface $-1 -42.162475697076488 -27.069402598971344 1.5467739991654899 0 0.57357644374324357 -0.81915203911291934 0.5 0 0 1 I I -0.70710678118654746 0.70710678118654746 0.5 forward I I I I #
loop $-1 $-1 $255 $75 #
coedge $-1 $160 $160 $256 $257 reversed $100 $-1 #
face $-1 $-1 $258 $58 $-1 $259 forward single #
loop $-1 $260 $261 $102 #
cone-surface $-1 -36.909382335566768 -27.069402598971344 1.5467739991654899 0 0.57357644374324357 -0.81915203911291934 0.5 0 0 1 I I -0.70710678118654746 0.70710678118654746 0.5 forward I I I I #
loop $-1 $-1 $262 $76 #
coedge $-1 $165 $165 $263 $264 reversed $103 $-1 #
face $-1 $265 $266 $59 $-1 $267 reversed single #
loop $-1 $-1 $268 $105 #
plane-surface $-1 -12.067320660222215 -34.558074172018891 0.024878445782860581 0 -0.57357644374324357 0.81915203911291934 1 0 0 forward_v I I I I #
coedge $-1 $269 $270 $271 $272 reversed $106 $-1 #
face $-1 $-1 $273 $60 $-1 $274 forward single #
loop $-1 $275 $276 $108 #
cone-surface $-1 -14.693867340977079 -27.069402598971344 1.5467739991654899 0 0.57357644374324357 -0.81915203911291934 0.5 0 0 1 I I -0.70710678118654746 0.70710678118654746 0.5 forward I I I I #
loop $-1 $-1 $277 $78 #
coedge $-1 $174 $174 $278 $279 reversed $109 $-1 #
face $-1 $-1 $280 $61 $-1 $281 forward single #
loop $-1 $282 $283 $111 #
cone-surface $-1 -9.4407739794673589 -27.069402598971344 1.5467739991654899 0 0.57357644374324357 -0.81915203911291934 0.5 0 0 1 I I -0.70710678118654746 0.70710678118654746 0.5 forward I I I I #
loop $-1 $-1 $284 $79 #
coedge $-1 $179 $179 $285 $286 reversed $112 $-1 #
face $-1 $287 $288 $62 $-1 $289 reversed single #
loop $-1 $-1 $290 $114 #
plane-surface $-1 15.401287695877201 -34.558074172018891 0.024878445782860581 0 -0.57357644374324357 0.81915203911291934 1 0 0 forward_v I I I I #
coedge $-1 $291 $292 $293 $294 reversed $115 $-1 #
face $-1 $-1 $295 $63 $-1 $296 forward single #
loop $-1 $297 $298 $117 #
cone-surface $-1 12.774741015122331 -27.069402598971344 1.5467739991654899 0 0.57357644374324357 -0.81915203911291934 0.5 0 0 1 I I -0.70710678118654746 0.70710678118654746 0.5 forward I I I I #
loop $-1 $-1 $299 $81 #
coedge $-1 $188 $188 $300 $301 reversed $118 $-1 #
face $-1 $-1 $302 $64 $-1 $303 forward single #
loop $-1 $304 $305 $120 #
cone-surface $-1 18.027834376632043 -27.069402598971344 1.5467739991654899 0 0.57357644374324357 -0.81915203911291934 0.5 0 0 1 I I -0.70710678118654746 0.70710678118654746 0.5 forward I I I I #
loop $-1 $-1 $306 $82 #
coedge $-1 $193 $193 $307 $308 reversed $121 $-1 #
face $-1 $309 $310 $65 $-1 $311 reversed single #
loop $-1 $-1 $312 $123 #
plane-surface $-1 42.86989605197661 -34.558074172018891 0.024878445782860581 0 -0.57357644374324357 0.81915203911291934 1 0 0 forward_v I I I I #
coedge $-1 $313 $314 $315 $316 reversed $124 $-1 #
face $-1 $-1 $317 $66 $-1 $318 forward single #
loop $-1 $319 $320 $126 #
cone-surface $-1 40.24334937122174 -27.069402598971344 1.5467739991654899 0 0.57357644374324357 -0.81915203911291934 0.5 0 0 1 I I -0.70710678118654746 0.70710678118654746 0.5 forward I I I I #
loop $-1 $-1 $321 $84 #
coedge $-1 $202 $202 $322 $323 reversed $127 $-1 #
face $-1 $-1 $324 $67 $-1 $325 forward single #
loop $-1 $326 $327 $129 #
cone-surface $-1 45.496442732731452 -27.069402598971344 1.5467739991654899 0 0.57357644374324357 -0.81915203911291934 0.5 0 0 1 I I -0.70710678118654746 0.70710678118654746 0.5 forward I I I I #
loop $-1 $-1 $328 $85 #
coedge $-1 $207 $207 $329 $330 reversed $130 $-1 #
face $-1 $331 $332 $68 $-1 $333 reversed single #
loop $-1 $-1 $334 $132 #
plane-surface $-1 -25.191275702979539 9.2598170908786415e-007 62.294273974499184 0 0.86602541151947299 0.49999998660252726 1 0 0 forward_v I I I I #
coedge $-1 $335 $336 $337 $338 reversed $133 $-1 #
face $-1 $-1 $339 $69 $-1 $340 forward single #
loop $-1 $341 $342 $135 #
cone-surface $-1 -33.894348862907293 28.605740444128649 2.7515993314800138 0 -0.86602541151947299 -0.49999998660252726 0.75 0 0 1 I I -0.70710678118654757 0.70710678118654757 0.75 forward I I I I #
loop $-1 $-1 $343 $87 #
coedge $-1 $216 $216 $344 $345 reversed $136 $-1 #
face $-1 $-1 $346 $70 $-1 $347 forward single #
loop $-1 $348 $349 $138 #
cone-surface $-1 -25.191275702979539 28.605740444128649 2.7515993314800138 0 -0.86602541151947299 -0.49999998660252726 0.75 0 0 1 I I -0.70710678118654757 0.70710678118654757 0.75 forward I I I I #
loop $-1 $-1 $350 $88 #
coedge $-1 $221 $221 $351 $352 reversed $139 $-1 #
face $-1 $-1 $353 $71 $-1 $354 forward single #
loop $-1 $355 $356 $141 #
cone-surface $-1 -16.488202543051784 28.605740444128649 2.7515993314800138 0 -0.86602541151947299 -0.49999998660252726 0.75 0 0 1 I I -0.70710678118654757 0.70710678118654757 0.75 forward I I I I #
loop $-1 $-1 $357 $89 #
coedge $-1 $226 $226 $358 $359 reversed $142 $-1 #
face $-1 $360 $361 $54 $-1 $362 reversed single #
loop $-1 $-1 $363 $144 #
plane-surface $-1 0 -34.558074172018898 0 0 1 0 0 0 1 forward_v I I I I #
coedge $-1 $364 $365 $366 $367 forward $145 $-1 #
coedge $-1 $368 $147 $369 $370 forward $91 $-1 #
coedge $-1 $147 $368 $371 $372 forward $91 $-1 #
coedge $-1 $373 $374 $147 $234 reversed $375 $-1 #
edge $-1 $376 -34.558074172018898 $377 34.558074172018898 $233 $378 forward 7 unknown #
face $-1 $379 $380 $55 $-1 $381 reversed single #
loop $-1 $-1 $241 $148 #
plane-surface $-1 -63.92871547567313 0 0.83880219952686152 0 0 1 1 0 0 forward_v I I I I #
coedge $-1 $382 $383 $240 $384 forward $149 $-1 #
coedge $-1 $385 $151 $386 $387 reversed $94 $-1 #
coedge $-1 $151 $385 $238 $384 reversed $94 $-1 #
coedge $-1 $388 $389 $151 $242 reversed $236 $-1 #
edge $-1 $390 -34.558074172018898 $391 34.558074172018898 $241 $392 forward 7 unknown #
face $-1 $393 $394 $56 $-1 $395 reversed single #
loop $-1 $-1 $396 $152 #
plane-surface $-1 -45.664537938082965 -102.73677283856404 97.394149178536153 1 0 0 0 0.57357644374324357 -0.81915203911291934 forward_v I I I I #
coedge $-1 $397 $398 $399 $400 reversed $153 $-1 #
coedge $-1 $248 $155 $401 $402 reversed $97 $-1 #
coedge $-1 $155 $247 $397 $403 reversed $97 $-1 #
coedge $-1 $399 $404 $155 $250 forward $405 $-1 #
edge $-1 $406 16.81031224726312 $407 28.290374248550776 $249 $408 forward 7 unknown #
loop $-1 $-1 $256 $156 #
plane-surface $-1 -39.535929016321624 -34.558074172018891 0.024878445782860581 0 -0.57357644374324357 0.81915203911291934 1 0 0 forward_v I I I I #
loop $-1 $-1 $409 $99 #
coedge $-1 $254 $254 $255 $410 reversed $157 $-1 #
coedge $-1 $255 $255 $254 $410 forward $159 $-1 #
coedge $-1 $256 $256 $160 $257 forward $251 $-1 #
edge $-1 $411 -1.7449195536988479e-015 $411 6.2831853071795987 $256 $412 forward 7 unknown #
loop $-1 $-1 $263 $161 #
plane-surface $-1 -39.535929016321624 -34.558074172018891 0.024878445782860581 0 -0.57357644374324357 0.81915203911291934 1 0 0 forward_v I I I I #
loop $-1 $-1 $413 $102 #
coedge $-1 $261 $261 $262 $414 reversed $162 $-1 #
coedge $-1 $262 $262 $261 $414 forward $164 $-1 #
coedge $-1 $263 $263 $165 $264 forward $258 $-1 #
edge $-1 $415 -1.7449195536988479e-015 $415 6.2831853071795987 $263 $416 forward 7 unknown #
face $-1 $417 $418 $59 $-1 $419 reversed single #
loop $-1 $-1 $420 $166 #
plane-surface $-1 -18.195929581983552 -102.73677283856404 97.394149178536153 1 0 0 0 0.57357644374324357 -0.81915203911291934 forward_v I I I I #
coedge $-1 $421 $422 $423 $424 reversed $167 $-1 #
coedge $-1 $270 $169 $425 $426 reversed $106 $-1 #
coedge $-1 $169 $269 $421 $427 reversed $106 $-1 #
coedge $-1 $423 $428 $169 $272 forward $429 $-1 #
edge $-1 $430 16.81031224726312 $431 28.290374248550776 $271 $432 forward 7 unknown #
loop $-1 $-1 $278 $170 #
plane-surface $-1 -12.067320660222215 -34.558074172018891 0.024878445782860581 0 -0.57357644374324357 0.81915203911291934 1 0 0 forward_v I I I I #
loop $-1 $-1 $433 $108 #
coedge $-1 $276 $276 $277 $434 reversed $171 $-1 #
coedge $-1 $277 $277 $276 $434 forward $173 $-1 #
coedge $-1 $278 $278 $174 $279 forward $273 $-1 #
edge $-1 $435 -1.7449195536988479e-015 $435 6.2831853071795987 $278 $436 forward 7 unknown #
loop $-1 $-1 $285 $175 #
plane-surface $-1 -12.067320660222215 -34.558074172018891 0.024878445782860581 0 -0.57357644374324357 0.81915203911291934 1 0 0 forward_v I I I I #
loop $-1 $-1 $437 $111 #
coedge $-1 $283 $283 $284 $438 reversed $176 $-1 #
coedge $-1 $284 $284 $283 $438 forward $178 $-1 #
coedge $-1 $285 $285 $179 $286 forward $280 $-1 #
edge $-1 $439 -1.7449195536988479e-015 $439 6.2831853071795987 $285 $440 forward 7 unknown #
face $-1 $441 $442 $62 $-1 $443 reversed single #
loop $-1 $-1 $444 $180 #
plane-surface $-1 9.2726787741158638 -102.73677283856404 97.394149178536153 1 0 0 0 0.57357644374324357 -0.81915203911291934 forward_v I I I I #
coedge $-1 $445 $446 $447 $448 reversed $181 $-1 #
coedge $-1 $292 $183 $449 $450 reversed $115 $-1 #
coedge $-1 $183 $291 $445 $451 reversed $115 $-1 #
coedge $-1 $447 $452 $183 $294 forward $453 $-1 #
edge $-1 $454 16.81031224726312 $455 28.290374248550776 $293 $456 forward 7 unknown #
loop $-1 $-1 $300 $184 #
plane-surface $-1 15.401287695877201 -34.558074172018891 0.024878445782860581 0 -0.57357644374324357 0.81915203911291934 1 0 0 forward_v I I I I #
loop $-1 $-1 $457 $117 #
coedge $-1 $298 $298 $299 $458 reversed $185 $-1 #
coedge $-1 $299 $299 $298 $458 forward $187 $-1 #
coedge $-1 $300 $300 $188 $301 forward $295 $-1 #
edge $-1 $459 -1.7449195536988479e-015 $459 6.2831853071795987 $300 $460 forward 7 unknown #
loop $-1 $-1 $307 $189 #
plane-surface $-1 15.401287695877201 -34.558074172018891 0.024878445782860581 0 -0.57357644374324357 0.81915203911291934 1 0 0 forward_v I I I I #
loop $-1 $-1 $461 $120 #
coedge $-1 $305 $305 $306 $462 reversed $190 $-1 #
coedge $-1 $306 $306 $305 $462 forward $192 $-1 #
coedge $-1 $307 $307 $193 $308 forward $302 $-1 #
edge $-1 $463 -1.7449195536988479e-015 $463 6.2831853071795987 $307 $464 forward 7 unknown #
face $-1 $465 $466 $65 $-1 $467 reversed single #
loop $-1 $-1 $468 $194 #
plane-surface $-1 36.741287130215269 -102.73677283856404 97.394149178536153 1 0 0 0 0.57357644374324357 -0.81915203911291934 forward_v I I I I #
coedge $-1 $469 $470 $471 $472 reversed $195 $-1 #
coedge $-1 $314 $197 $473 $474 reversed $124 $-1 #
coedge $-1 $197 $313 $469 $475 reversed $124 $-1 #
coedge $-1 $471 $476 $197 $316 forward $477 $-1 #
edge $-1 $478 16.81031224726312 $479 28.290374248550776 $315 $480 forward 7 unknown #
loop $-1 $-1 $322 $198 #
plane-surface $-1 42.86989605197661 -34.558074172018891 0.024878445782860581 0 -0.57357644374324357 0.81915203911291934 1 0 0 forward_v I I I I #
loop $-1 $-1 $481 $126 #
coedge $-1 $320 $320 $321 $482 reversed $199 $-1 #
coedge $-1 $321 $321 $320 $482 forward $201 $-1 #
coedge $-1 $322 $322 $202 $323 forward $317 $-1 #
edge $-1 $483 -1.7449195536988479e-015 $483 6.2831853071795987 $322 $484 forward 7 unknown #
loop $-1 $-1 $329 $203 #
plane-surface $-1 42.86989605197661 -34.558074172018891 0.024878445782860581 0 -0.57357644374324357 0.81915203911291934 1 0 0 forward_v I I I I #
loop $-1 $-1 $485 $129 #
coedge $-1 $327 $327 $328 $486 reversed $204 $-1 #
coedge $-1 $328 $328 $327 $486 forward $206 $-1 #
coedge $-1 $329 $329 $207 $330 forward $324 $-1 #
edge $-1 $487 -1.7449195536988479e-015 $487 6.2831853071795987 $329 $488 forward 7 unknown #
face $-1 $489 $490 $68 $-1 $491 forward single #
loop $-1 $-1 $492 $208 #
plane-surface $-1 -10.686153769766609 102.94091876462929 121.72723847593207 -1 0 0 0 0.86602541151947299 0.49999998660252726 forward_v I I I I #
coedge $-1 $493 $494 $495 $496 reversed $209 $-1 #
coedge $-1 $336 $211 $497 $498 reversed $133 $-1 #
coedge $-1 $211 $335 $493 $499 reversed $133 $-1 #
coedge $-1 $495 $500 $211 $338 forward $490 $-1 #
edge $-1 $501 16.912385210295746 $502 20.160194780789052 $337 $503 forward 7 unknown #
loop $-1 $-1 $344 $212 #
plane-surface $-1 -25.191275702979539 9.2598170908786415e-007 62.294273974499184 0 0.86602541151947299 0.49999998660252726 1 0 0 forward_v I I I I #
loop $-1 $-1 $504 $135 #
coedge $-1 $342 $342 $343 $505 reversed $213 $-1 #
coedge $-1 $343 $343 $342 $505 forward $215 $-1 #
coedge $-1 $344 $344 $216 $345 forward $339 $-1 #
edge $-1 $506 5.1279005428234403e-016 $506 6.2831853071796013 $344 $507 forward 7 unknown #
loop $-1 $-1 $351 $217 #
plane-surface $-1 -25.191275702979539 9.2598170908786415e-007 62.294273974499184 0 0.86602541151947299 0.49999998660252726 1 0 0 forward_v I I I I #
loop $-1 $-1 $508 $138 #
coedge $-1 $349 $349 $350 $509 reversed $218 $-1 #
coedge $-1 $350 $350 $349 $509 forward $220 $-1 #
coedge $-1 $351 $351 $221 $352 forward $346 $-1 #
edge $-1 $510 5.1279005428234403e-016 $510 6.2831853071796013 $351 $511 forward 7 unknown #
loop $-1 $-1 $358 $222 #
plane-surface $-1 -25.191275702979539 9.2598170908786415e-007 62.294273974499184 0 0.86602541151947299 0.49999998660252726 1 0 0 forward_v I I I I #
loop $-1 $-1 $512 $141 #
coedge $-1 $356 $356 $357 $513 reversed $223 $-1 #
coedge $-1 $357 $357 $356 $513 forward $225 $-1 #
coedge $-1 $358 $358 $226 $359 forward $353 $-1 #
edge $-1 $514 5.1279005428234403e-016 $514 6.2831853071796013 $358 $515 forward 7 unknown #
face $-1 $516 $517 $54 $-1 $518 reversed single #
loop $-1 $-1 $519 $227 #
plane-surface $-1 -59.432966093935974 0 0 1 0 0 0 0 -1 forward_v I I I I #
coedge $-1 $520 $371 $521 $522 forward $228 $-1 #
coedge $-1 $523 $230 $520 $524 forward $145 $-1 #
coedge $-1 $230 $523 $525 $526 forward $145 $-1 #
coedge $-1 $374 $373 $230 $367 reversed $375 $-1 #
edge $-1 $527 -34.558074172018898 $528 34.558074172018898 $366 $529 forward 7 unknown #
coedge $-1 $232 $231 $530 $531 forward $91 $-1 #
coedge $-1 $532 $533 $231 $370 reversed $517 $-1 #
edge $-1 $377 -59.432966093935974 $534 59.432966093935974 $369 $535 forward 7 unknown #
coedge $-1 $363 $536 $232 $372 reversed $228 $-1 #
edge $-1 $537 -59.432966093935974 $376 59.432966093935974 $371 $538 forward 7 unknown #
coedge $-1 $366 $233 $536 $539 forward $375 $-1 #
coedge $-1 $233 $366 $532 $540 reversed $375 $-1 #
loop $-1 $-1 $373 $516 #
vertex $-1 $234 $541 #
vertex $-1 $234 $542 #
straight-curve $-1 59.432966093935974 0 8.0633045525911218 0 1 0 I I #
face $-1 $543 $544 $55 $-1 $545 reversed single #
loop $-1 $-1 $546 $235 #
plane-surface $-1 -63.92871547567313 0 -2.1611978004731376 0 0 1 1 0 0 forward_v I I I I #
coedge $-1 $547 $238 $548 $549 reversed $149 $-1 #
coedge $-1 $238 $547 $388 $550 reversed $149 $-1 #
edge $-1 $390 -0.83880219952686152 $551 2.1611978004731376 $238 $552 forward 7 unknown #
coedge $-1 $240 $239 $546 $553 forward $94 $-1 #
coedge $-1 $554 $555 $239 $387 forward $556 $-1 #
edge $-1 $557 -2.1611978004731376 $391 0.83880219952686152 $386 $558 forward 7 unknown #
coedge $-1 $559 $241 $383 $550 forward $236 $-1 #
coedge $-1 $241 $559 $554 $560 forward $236 $-1 #
vertex $-1 $384 $561 #
vertex $-1 $560 $562 #
straight-curve $-1 -59.432966093935974 0 0.83880219952686152 0 -1 0 I I #
face $-1 $-1 $405 $56 $-1 $563 forward single #
loop $-1 $-1 $564 $243 #
plane-surface $-1 0 -34.558074172018898 0 0 1 0 0 0 1 forward_v I I I I #
coedge $-1 $565 $566 $567 $568 reversed $244 $-1 #
coedge $-1 $569 $246 $248 $403 forward $153 $-1 #
coedge $-1 $246 $569 $565 $570 forward $153 $-1 #
coedge $-1 $567 $249 $246 $400 forward $405 $-1 #
edge $-1 $407 13.639355586399471 $571 25.896573429922153 $399 $572 forward 7 unknown #
coedge $-1 $573 $574 $247 $402 forward $394 $-1 #
edge $-1 $575 -48.672196143485223 $406 -40.633770036676957 $401 $576 forward 7 unknown #
edge $-1 $407 -14.014568057133449 $575 8.6740753344994804e-015 $248 $577 forward 7 unknown #
coedge $-1 $249 $567 $573 $578 forward $405 $-1 #
loop $-1 $-1 $567 $393 #
vertex $-1 $402 $579 #
vertex $-1 $250 $580 #
straight-curve $-1 -33.407320094560284 -51.368386419282018 8.06330455259112 0 1 0 I I #
coedge $-1 $409 $409 $-1 $581 reversed $253 $-1 #
edge $-1 $582 0 $582 6.2831853071796004 $254 $583 forward 7 unknown #
vertex $-1 $257 $584 #
ellipse-curve $-1 -42.162475697076488 -28.818043171375074 4.0440914991869876 0 -0.57357644374324357 0.81915203911291934 1 0 0 1 I I #
coedge $-1 $413 $413 $-1 $585 reversed $260 $-1 #
edge $-1 $586 0 $586 6.2831853071796004 $261 $587 forward 7 unknown #
vertex $-1 $264 $588 #
ellipse-curve $-1 -36.909382335566768 -28.818043171375074 4.0440914991869876 0 -0.57357644374324357 0.81915203911291934 1 0 0 1 I I #
face $-1 $-1 $429 $59 $-1 $589 forward single #
loop $-1 $-1 $590 $265 #
plane-surface $-1 0 -34.558074172018898 0 0 1 0 0 0 1 forward_v I I I I #
coedge $-1 $591 $592 $593 $594 reversed $266 $-1 #
coedge $-1 $595 $268 $270 $427 forward $167 $-1 #
coedge $-1 $268 $595 $591 $596 forward $167 $-1 #
coedge $-1 $593 $271 $268 $424 forward $429 $-1 #
edge $-1 $431 -0.094948591650230618 $597 12.162269251872445 $423 $598 forward 7 unknown #
coedge $-1 $599 $600 $269 $426 forward $418 $-1 #
edge $-1 $601 -48.672196143485223 $430 -40.633770036676957 $425 $602 forward 7 unknown #
edge $-1 $431 -14.014568057133449 $601 8.6740753344994804e-015 $270 $603 forward 7 unknown #
coedge $-1 $271 $593 $599 $604 forward $429 $-1 #
loop $-1 $-1 $593 $417 #
vertex $-1 $426 $605 #
vertex $-1 $272 $606 #
straight-curve $-1 -5.938711738460877 -51.368386419282018 8.06330455259112 0 1 0 I I #
coedge $-1 $433 $433 $-1 $607 reversed $275 $-1 #
edge $-1 $608 0 $608 6.2831853071796004 $276 $609 forward 7 unknown #
vertex $-1 $279 $610 #
ellipse-curve $-1 -14.693867340977079 -28.818043171375074 4.0440914991869876 0 -0.57357644374324357 0.81915203911291934 1 0 0 1 I I #
coedge $-1 $437 $437 $-1 $611 reversed $282 $-1 #
edge $-1 $612 0 $612 6.2831853071796004 $283 $613 forward 7 unknown #
vertex $-1 $286 $614 #
ellipse-curve $-1 -9.4407739794673589 -28.818043171375074 4.0440914991869876 0 -0.57357644374324357 0.81915203911291934 1 0 0 1 I I #
face $-1 $-1 $453 $62 $-1 $615 forward single #
loop $-1 $-1 $616 $287 #
plane-surface $-1 0 -34.558074172018898 0 0 1 0 0 0 1 forward_v I I I I #
coedge $-1 $617 $618 $619 $620 reversed $288 $-1 #
coedge $-1 $621 $290 $292 $451 forward $181 $-1 #
coedge $-1 $290 $621 $617 $622 forward $181 $-1 #
coedge $-1 $619 $293 $290 $448 forward $453 $-1 #
edge $-1 $455 -13.829252769699938 $623 -1.5720349261772633 $447 $624 forward 7 unknown #
coedge $-1 $625 $626 $291 $450 forward $442 $-1 #
edge $-1 $627 -48.672196143485223 $454 -40.633770036676957 $449 $628 forward 7 unknown #
edge $-1 $455 -14.014568057133449 $627 8.6740753344994804e-015 $292 $629 forward 7 unknown #
coedge $-1 $293 $619 $625 $630 forward $453 $-1 #
loop $-1 $-1 $619 $441 #
vertex $-1 $450 $631 #
vertex $-1 $294 $632 #
straight-curve $-1 21.529896617638538 -51.368386419282018 8.06330455259112 0 1 0 I I #
coedge $-1 $457 $457 $-1 $633 reversed $297 $-1 #
edge $-1 $634 0 $634 6.2831853071796004 $298 $635 forward 7 unknown #
vertex $-1 $301 $636 #
ellipse-curve $-1 12.774741015122331 -28.818043171375074 4.0440914991869876 0 -0.57357644374324357 0.81915203911291934 1 0 0 1 I I #
coedge $-1 $461 $461 $-1 $637 reversed $304 $-1 #
edge $-1 $638 0 $638 6.2831853071796004 $305 $639 forward 7 unknown #
vertex $-1 $308 $640 #
ellipse-curve $-1 18.027834376632043 -28.818043171375074 4.0440914991869876 0 -0.57357644374324357 0.81915203911291934 1 0 0 1 I I #
face $-1 $-1 $477 $65 $-1 $641 forward single #
loop $-1 $-1 $642 $309 #
plane-surface $-1 0 -34.558074172018898 0 0 1 0 0 0 1 forward_v I I I I #
coedge $-1 $643 $644 $645 $646 reversed $310 $-1 #
coedge $-1 $647 $312 $314 $475 forward $195 $-1 #
coedge $-1 $312 $647 $643 $648 forward $195 $-1 #
coedge $-1 $645 $315 $312 $472 forward $477 $-1 #
edge $-1 $479 -27.563556947749646 $649 -15.306339104226964 $471 $650 forward 7 unknown #
coedge $-1 $651 $652 $313 $474 forward $466 $-1 #
edge $-1 $653 -48.672196143485223 $478 -40.633770036676957 $473 $654 forward 7 unknown #
edge $-1 $479 -14.014568057133449 $653 8.6740753344994804e-015 $314 $655 forward 7 unknown #
coedge $-1 $315 $645 $651 $656 forward $477 $-1 #
loop $-1 $-1 $645 $465 #
vertex $-1 $474 $657 #
vertex $-1 $316 $658 #
straight-curve $-1 48.998504973737951 -51.368386419282018 8.06330455259112 0 1 0 I I #
coedge $-1 $481 $481 $-1 $659 reversed $319 $-1 #
edge $-1 $660 0 $660 6.2831853071796004 $320 $661 forward 7 unknown #
vertex $-1 $323 $662 #
ellipse-curve $-1 40.24334937122174 -28.818043171375074 4.0440914991869876 0 -0.57357644374324357 0.81915203911291934 1 0 0 1 I I #
coedge $-1 $485 $485 $-1 $663 reversed $326 $-1 #
edge $-1 $664 0 $664 6.2831853071796004 $327 $665 forward 7 unknown #
vertex $-1 $330 $666 #
ellipse-curve $-1 45.496442732731452 -28.818043171375074 4.0440914991869876 0 -0.57357644374324357 0.81915203911291934 1 0 0 1 I I #
face $-1 $-1 $667 $68 $-1 $668 reversed single #
loop $-1 $-1 $337 $331 #
plane-surface $-1 0 0 8.0633045525911218 0 0 1 1 0 0 forward_v I I I I #
coedge $-1 $669 $670 $671 $672 reversed $332 $-1 #
coedge $-1 $673 $334 $336 $499 forward $209 $-1 #
coedge $-1 $334 $673 $669 $674 forward $209 $-1 #
coedge $-1 $671 $337 $334 $496 forward $490 $-1 #
edge $-1 $502 -27.100759784702703 $675 1.9094840817231606 $495 $676 forward 7 unknown #
coedge $-1 $677 $678 $335 $498 forward $667 $-1 #
edge $-1 $679 -58.425686075753134 $501 -52.800314685374914 $497 $680 forward 7 unknown #
edge $-1 $502 62.620529029001425 $679 69.116148344037811 $336 $681 forward 7 unknown #
coedge $-1 $337 $671 $677 $682 forward $490 $-1 #
vertex $-1 $338 $683 #
vertex $-1 $338 $684 #
straight-curve $-1 -39.696397636192472 51.470459382314644 8.06330455259112 0 -1 0 I I #
coedge $-1 $504 $504 $-1 $685 reversed $341 $-1 #
edge $-1 $686 0 $686 6.2831853071796004 $342 $687 forward 7 unknown #
vertex $-1 $345 $688 #
ellipse-curve $-1 -33.894348862907293 32.934169386772247 5.2506188574020047 0 0.86602541151947299 0.49999998660252726 1.5 0 0 1 I I #
coedge $-1 $508 $508 $-1 $689 reversed $348 $-1 #
edge $-1 $690 0 $690 6.2831853071796004 $349 $691 forward 7 unknown #
vertex $-1 $352 $692 #
ellipse-curve $-1 -25.191275702979539 32.934169386772247 5.2506188574020047 0 0.86602541151947299 0.49999998660252726 1.5 0 0 1 I I #
coedge $-1 $512 $512 $-1 $693 reversed $355 $-1 #
edge $-1 $694 0 $694 6.2831853071796004 $356 $695 forward 7 unknown #
vertex $-1 $359 $696 #
ellipse-curve $-1 -16.488202543051784 32.934169386772247 5.2506188574020047 0 0.86602541151947299 0.49999998660252726 1.5 0 0 1 I I #
face $-1 $-1 $375 $54 $-1 $697 reversed single #
loop $-1 $-1 $532 $360 #
plane-surface $-1 0 34.558074172018898 0 0 -1 0 0 0 -1 forward_v I I I I #
coedge $-1 $698 $530 $533 $699 forward $361 $-1 #
coedge $-1 $536 $363 $364 $524 reversed $228 $-1 #
coedge $-1 $530 $698 $363 $522 reversed $361 $-1 #
edge $-1 $537 -8.0633045525911218 $700 8.0633045525911218 $521 $701 forward 7 unknown #
coedge $-1 $365 $364 $698 $702 forward $145 $-1 #
edge $-1 $528 -59.432966093935974 $700 59.432966093935974 $520 $703 forward 7 unknown #
coedge $-1 $533 $532 $365 $526 reversed $517 $-1 #
edge $-1 $704 -59.432966093935974 $527 59.432966093935974 $525 $705 forward 7 unknown #
vertex $-1 $367 $706 #
vertex $-1 $539 $707 #
straight-curve $-1 59.432966093935974 0 -8.0633045525911218 0 -1 0 I I #
coedge $-1 $519 $521 $368 $531 reversed $361 $-1 #
edge $-1 $534 -34.558074172018898 $537 34.558074172018898 $530 $708 forward 7 unknown #
coedge $-1 $525 $369 $374 $540 forward $517 $-1 #
coedge $-1 $369 $525 $519 $699 reversed $517 $-1 #
vertex $-1 $370 $709 #
straight-curve $-1 0 34.558074172018898 8.0633045525911218 -1 0 0 I I #
coedge $-1 $371 $520 $373 $539 reversed $228 $-1 #
vertex $-1 $531 $710 #
straight-curve $-1 0 -34.558074172018898 8.0633045525911218 1 0 0 I I #
edge $-1 $376 -8.0633045525911218 $528 8.0633045525911218 $373 $711 forward 7 unknown #
edge $-1 $377 -8.0633045525911218 $527 8.0633045525911218 $374 $712 forward 7 unknown #
point $-1 59.432966093935974 -34.558074172018898 8.0633045525911218 #
point $-1 59.432966093935974 34.558074172018898 8.0633045525911218 #
face $-1 $-1 $556 $55 $-1 $713 reversed single #
loop $-1 $-1 $714 $379 #
plane-surface $-1 -68.424464857410285 0 -0.66119780047313803 1 0 0 0 0 -1 forward_v I I I I #
coedge $-1 $715 $548 $385 $553 reversed $380 $-1 #
coedge $-1 $383 $382 $714 $716 reversed $149 $-1 #
coedge $-1 $546 $717 $382 $549 forward $380 $-1 #
edge $-1 $718 -4.4957493817371557 $551 4.4957493817371557 $382 $719 forward 7 unknown #
edge $-1 $390 -4.4957493817371557 $720 4.4957493817371557 $383 $721 forward 7 unknown #
vertex $-1 $384 $722 #
straight-curve $-1 -59.432966093935974 34.558074172018898 0 0 0 -1 I I #
edge $-1 $557 -34.558074172018898 $551 34.558074172018898 $546 $723 forward 7 unknown #
coedge $-1 $724 $386 $389 $560 reversed $556 $-1 #
coedge $-1 $386 $724 $715 $725 reversed $556 $-1 #
loop $-1 $-1 $386 $543 #
vertex $-1 $387 $726 #
straight-curve $-1 -59.432966093935974 -34.558074172018898 0 0 0 1 I I #
coedge $-1 $389 $388 $727 $728 forward $236 $-1 #
edge $-1 $729 -4.4957493817371557 $391 4.4957493817371557 $554 $730 forward 7 unknown #
point $-1 -59.432966093935974 34.558074172018898 0.83880219952686152 #
point $-1 -59.432966093935974 -34.558074172018898 0.83880219952686152 #
plane-surface $-1 0 0 8.0633045525911218 0 0 1 1 0 0 forward_v I I I I #
coedge $-1 $574 $573 $566 $731 forward $394 $-1 #
coedge $-1 $566 $396 $398 $570 reversed $244 $-1 #
coedge $-1 $396 $565 $564 $731 reversed $244 $-1 #
coedge $-1 $404 $399 $396 $568 forward $405 $-1 #
edge $-1 $571 -28.290374248550776 $732 -16.81031224726312 $567 $733 forward 7 unknown #
coedge $-1 $398 $397 $574 $734 reversed $153 $-1 #
edge $-1 $735 -8.6740753344994804e-015 $571 14.014568057133449 $565 $736 forward 7 unknown #
vertex $-1 $400 $737 #
straight-curve $-1 -19.767964508160812 -23.078012170731242 8.0633045525911218 -1 0 0 I I #
coedge $-1 $564 $401 $404 $578 reversed $394 $-1 #
coedge $-1 $401 $564 $569 $734 forward $394 $-1 #
vertex $-1 $402 $738 #
straight-curve $-1 -33.407320094560284 -34.558074172018898 48.697074589268077 0 0 1 I I #
straight-curve $-1 -33.407320094560284 -34.558074172018891 0.024878445782860581 0 -0.81915203911291934 -0.57357644374324357 I I #
edge $-1 $732 -45.664537938082965 $406 -33.407320094560284 $573 $739 forward 7 unknown #
point $-1 -33.407320094560284 -34.558074172018898 8.0633045525911218 #
point $-1 -33.407320094560284 -23.078012170731242 8.0633045525911218 #
edge $-1 $740 1 $740 0 $409 $-1 forward 7 unknown #
vertex $-1 $410 $741 #
ellipse-curve $-1 -42.162475697076488 -27.356190820842965 1.9563500187219496 0 -0.57357644374324357 0.81915203911291934 1 0 0 1 I I #
point $-1 -41.162475697076488 -28.818043171375081 4.0440914991869947 #
edge $-1 $742 1 $742 0 $413 $-1 forward 7 unknown #
vertex $-1 $414 $743 #
ellipse-curve $-1 -36.909382335566768 -27.356190820842965 1.9563500187219496 0 -0.57357644374324357 0.81915203911291934 1 0 0 1 I I #
point $-1 -35.909382335566768 -28.818043171375081 4.0440914991869947 #
plane-surface $-1 0 0 8.0633045525911218 0 0 1 1 0 0 forward_v I I I I #
coedge $-1 $600 $599 $592 $744 forward $418 $-1 #
coedge $-1 $592 $420 $422 $596 reversed $266 $-1 #
coedge $-1 $420 $591 $590 $744 reversed $266 $-1 #
coedge $-1 $428 $423 $420 $594 forward $429 $-1 #
edge $-1 $597 -28.290374248550776 $745 -16.81031224726312 $593 $746 forward 7 unknown #
coedge $-1 $422 $421 $600 $747 reversed $167 $-1 #
edge $-1 $748 -8.6740753344994804e-015 $597 14.014568057133449 $591 $749 forward 7 unknown #
vertex $-1 $424 $750 #
straight-curve $-1 -6.0336603301111076 -23.078012170731242 8.0633045525911218 -1 0 0 I I #
coedge $-1 $590 $425 $428 $604 reversed $418 $-1 #
coedge $-1 $425 $590 $595 $747 forward $418 $-1 #
vertex $-1 $426 $751 #
straight-curve $-1 -5.938711738460877 -34.558074172018898 48.697074589268077 0 0 1 I I #
straight-curve $-1 -5.938711738460877 -34.558074172018891 0.024878445782860581 0 -0.81915203911291934 -0.57357644374324357 I I #
edge $-1 $745 -18.195929581983552 $430 -5.938711738460877 $599 $752 forward 7 unknown #
point $-1 -5.938711738460877 -34.558074172018898 8.0633045525911218 #
point $-1 -5.938711738460877 -23.078012170731242 8.0633045525911218 #
edge $-1 $753 1 $753 0 $433 $-1 forward 7 unknown #
vertex $-1 $434 $754 #
ellipse-curve $-1 -14.693867340977079 -27.356190820842965 1.9563500187219496 0 -0.57357644374324357 0.81915203911291934 1 0 0 1 I I #
point $-1 -13.693867340977079 -28.818043171375081 4.0440914991869947 #
edge $-1 $755 1 $755 0 $437 $-1 forward 7 unknown #
vertex $-1 $438 $756 #
ellipse-curve $-1 -9.4407739794673589 -27.356190820842965 1.9563500187219496 0 -0.57357644374324357 0.81915203911291934 1 0 0 1 I I #
point $-1 -8.4407739794673589 -28.818043171375081 4.0440914991869947 #
plane-surface $-1 0 0 8.0633045525911218 0 0 1 1 0 0 forward_v I I I I #
coedge $-1 $626 $625 $618 $757 forward $442 $-1 #
coedge $-1 $618 $444 $446 $622 reversed $288 $-1 #
coedge $-1 $444 $617 $616 $757 reversed $288 $-1 #
coedge $-1 $452 $447 $444 $620 forward $453 $-1 #
edge $-1 $623 -28.290374248550776 $758 -16.81031224726312 $619 $759 forward 7 unknown #
coedge $-1 $446 $445 $626 $760 reversed $181 $-1 #
edge $-1 $761 -8.6740753344994804e-015 $623 14.014568057133449 $617 $762 forward 7 unknown #
vertex $-1 $448 $763 #
straight-curve $-1 7.7006438479386006 -23.078012170731242 8.0633045525911218 -1 0 0 I I #
coedge $-1 $616 $449 $452 $630 reversed $442 $-1 #
coedge $-1 $449 $616 $621 $760 forward $442 $-1 #
vertex $-1 $450 $764 #
straight-curve $-1 21.529896617638538 -34.558074172018898 48.697074589268077 0 0 1 I I #
straight-curve $-1 21.529896617638538 -34.558074172018891 0.024878445782860581 0 -0.81915203911291934 -0.57357644374324357 I I #
edge $-1 $758 9.2726787741158638 $454 21.529896617638538 $625 $765 forward 7 unknown #
point $-1 21.529896617638538 -34.558074172018898 8.0633045525911218 #
point $-1 21.529896617638538 -23.078012170731242 8.0633045525911218 #
edge $-1 $766 1 $766 0 $457 $-1 forward 7 unknown #
vertex $-1 $458 $767 #
ellipse-curve $-1 12.774741015122331 -27.356190820842965 1.9563500187219496 0 -0.57357644374324357 0.81915203911291934 1 0 0 1 I I #
point $-1 13.774741015122331 -28.818043171375081 4.0440914991869947 #
edge $-1 $768 1 $768 0 $461 $-1 forward 7 unknown #
vertex $-1 $462 $769 #
ellipse-curve $-1 18.027834376632043 -27.356190820842965 1.9563500187219496 0 -0.57357644374324357 0.81915203911291934 1 0 0 1 I I #
point $-1 19.027834376632043 -28.818043171375081 4.0440914991869947 #
plane-surface $-1 0 0 8.0633045525911218 0 0 1 1 0 0 forward_v I I I I #
coedge $-1 $652 $651 $644 $770 forward $466 $-1 #
coedge $-1 $644 $468 $470 $648 reversed $310 $-1 #
coedge $-1 $468 $643 $642 $770 reversed $310 $-1 #
coedge $-1 $476 $471 $468 $646 forward $477 $-1 #
edge $-1 $649 -28.290374248550776 $771 -16.81031224726312 $645 $772 forward 7 unknown #
coedge $-1 $470 $469 $652 $773 reversed $195 $-1 #
edge $-1 $774 -8.6740753344994804e-015 $649 14.014568057133449 $643 $775 forward 7 unknown #
vertex $-1 $472 $776 #
straight-curve $-1 21.434948025988305 -23.078012170731242 8.0633045525911218 -1 0 0 I I #
coedge $-1 $642 $473 $476 $656 reversed $466 $-1 #
coedge $-1 $473 $642 $647 $773 forward $466 $-1 #
vertex $-1 $474 $777 #
straight-curve $-1 48.998504973737951 -34.558074172018898 48.697074589268077 0 0 1 I I #
straight-curve $-1 48.998504973737951 -34.558074172018891 0.024878445782860581 0 -0.81915203911291934 -0.57357644374324357 I I #
edge $-1 $771 36.741287130215269 $478 48.998504973737951 $651 $778 forward 7 unknown #
point $-1 48.998504973737951 -34.558074172018898 8.0633045525911218 #
point $-1 48.998504973737951 -23.078012170731242 8.0633045525911218 #
edge $-1 $779 1 $779 0 $481 $-1 forward 7 unknown #
vertex $-1 $482 $780 #
ellipse-curve $-1 40.24334937122174 -27.356190820842965 1.9563500187219496 0 -0.57357644374324357 0.81915203911291934 1 0 0 1 I I #
point $-1 41.24334937122174 -28.818043171375081 4.0440914991869947 #
edge $-1 $781 1 $781 0 $485 $-1 forward 7 unknown #
vertex $-1 $486 $782 #
ellipse-curve $-1 45.496442732731452 -27.356190820842965 1.9563500187219496 0 -0.57357644374324357 0.81915203911291934 1 0 0 1 I I #
point $-1 46.496442732731452 -28.818043171375081 4.0440914991869947 #
loop $-1 $-1 $497 $489 #
plane-surface $-1 0 34.558074172018898 0 0 -1 0 0 0 -1 forward_v I I I I #
coedge $-1 $670 $492 $494 $674 reversed $332 $-1 #
coedge $-1 $492 $669 $783 $784 reversed $332 $-1 #
coedge $-1 $500 $495 $492 $672 forward $490 $-1 #
edge $-1 $675 -20.160194780789052 $785 -16.912385210295746 $671 $786 forward 7 unknown #
coedge $-1 $494 $493 $678 $787 reversed $209 $-1 #
edge $-1 $788 -69.116148344037811 $675 -62.620529029001425 $669 $789 forward 7 unknown #
vertex $-1 $496 $790 #
straight-curve $-1 -12.595637851489769 31.310264601525589 8.06330455259112 1 0 0 I I #
coedge $-1 $783 $497 $500 $682 reversed $667 $-1 #
coedge $-1 $497 $783 $673 $787 forward $667 $-1 #
vertex $-1 $498 $791 #
straight-curve $-1 -39.696397636192472 34.558074172018898 60.863619237966034 0 0 1 I I #
straight-curve $-1 -39.696397636192472 9.2598170908786415e-007 62.294273974499184 0 0.49999998660252726 -0.86602541151947299 I I #
edge $-1 $785 10.686153769766609 $501 39.696397636192472 $677 $792 forward 7 unknown #
point $-1 -39.696397636192472 34.558074172018898 8.0633045525911218 #
point $-1 -39.696397636192472 31.310264601525592 8.06330455259112 #
edge $-1 $793 1 $793 0 $504 $-1 forward 7 unknown #
vertex $-1 $505 $794 #
ellipse-curve $-1 -33.894348862907293 29.255259502768254 3.1265993214319092 0 0.86602541151947299 0.49999998660252726 1.5 0 0 1 I I #
point $-1 -32.394348862907293 32.934169386772247 5.2506188574020038 #
edge $-1 $795 1 $795 0 $508 $-1 forward 7 unknown #
vertex $-1 $509 $796 #
ellipse-curve $-1 -25.191275702979539 29.255259502768254 3.1265993214319092 0 0.86602541151947299 0.49999998660252726 1.5 0 0 1 I I #
point $-1 -23.691275702979539 32.934169386772247 5.2506188574020038 #
edge $-1 $797 1 $797 0 $512 $-1 forward 7 unknown #
vertex $-1 $513 $798 #
ellipse-curve $-1 -16.488202543051784 29.255259502768254 3.1265993214319092 0 0.86602541151947299 0.49999998660252726 1.5 0 0 1 I I #
point $-1 -14.988202543051784 32.934169386772247 5.2506188574020038 #
plane-surface $-1 59.432966093935974 0 0 -1 0 0 0 0 1 forward_v I I I I #
coedge $-1 $521 $519 $523 $702 reversed $361 $-1 #
edge $-1 $534 -8.0633045525911218 $704 8.0633045525911218 $533 $799 forward 7 unknown #
vertex $-1 $702 $800 #
straight-curve $-1 -59.432966093935974 -34.558074172018898 0 0 0 -1 I I #
edge $-1 $700 -34.558074172018898 $704 34.558074172018898 $698 $801 forward 7 unknown #
straight-curve $-1 0 -34.558074172018898 -8.0633045525911218 -1 0 0 I I #
vertex $-1 $526 $802 #
straight-curve $-1 0 34.558074172018898 -8.0633045525911218 1 0 0 I I #
point $-1 59.432966093935974 34.558074172018898 -8.0633045525911218 #
point $-1 59.432966093935974 -34.558074172018898 -8.0633045525911218 #
straight-curve $-1 -59.432966093935974 0 8.0633045525911218 0 -1 0 I I #
point $-1 -59.432966093935974 34.558074172018898 8.0633045525911218 #
point $-1 -59.432966093935974 -34.558074172018898 8.0633045525911218 #
straight-curve $-1 59.432966093935974 -34.558074172018898 0 0 0 -1 I I #
straight-curve $-1 59.432966093935974 34.558074172018898 0 0 0 -1 I I #
plane-surface $-1 0 -34.558074172018898 0 0 1 0 0 0 1 forward_v I I I I #
coedge $-1 $803 $727 $547 $716 forward $544 $-1 #
coedge $-1 $717 $546 $555 $725 forward $380 $-1 #
edge $-1 $720 -1.4999999999999996 $718 1.4999999999999996 $547 $804 forward 7 unknown #
coedge $-1 $548 $715 $803 $805 forward $380 $-1 #
vertex $-1 $549 $806 #
straight-curve $-1 -63.92871547567313 34.558074172018898 -2.1611978004731376 1 0 0 I I #
vertex $-1 $550 $807 #
straight-curve $-1 -63.92871547567313 34.558074172018898 0.83880219952686152 -1 0 0 I I #
point $-1 -59.432966093935974 34.558074172018898 -2.1611978004731376 #
straight-curve $-1 -59.432966093935974 0 -2.1611978004731376 0 1 0 I I #
coedge $-1 $555 $554 $808 $809 forward $556 $-1 #
edge $-1 $557 -4.4957493817371557 $810 4.4957493817371557 $555 $811 forward 7 unknown #
point $-1 -59.432966093935974 -34.558074172018898 -2.1611978004731376 #
coedge $-1 $714 $808 $559 $728 reversed $544 $-1 #
edge $-1 $720 -34.558074172018898 $729 34.558074172018898 $727 $812 forward 7 unknown #
vertex $-1 $728 $813 #
straight-curve $-1 -63.92871547567313 -34.558074172018898 0.83880219952686152 1 0 0 I I #
edge $-1 $732 40.633770036676957 $735 48.672196143485223 $564 $814 forward 7 unknown #
vertex $-1 $578 $815 #
straight-curve $-1 -45.664537938082965 -51.368386419282018 8.06330455259112 0 -1 0 I I #
edge $-1 $735 -25.896573429922153 $575 -13.639355586399471 $574 $816 forward 7 unknown #
vertex $-1 $734 $817 #
straight-curve $-1 -45.664537938082965 -34.558074172018891 0.024878445782860581 0 0.81915203911291934 0.57357644374324357 I I #
point $-1 -45.664537938082965 -23.078012170731242 8.0633045525911218 #
point $-1 -33.407320094560284 -34.558074172018898 0.024878445782855606 #
straight-curve $-1 0 -34.558074172018898 8.0633045525911218 1 0 0 I I #
vertex $-1 $581 $818 #
point $-1 -41.162475697076488 -27.356190820842965 1.9563500187219496 #
vertex $-1 $585 $819 #
point $-1 -35.909382335566768 -27.356190820842965 1.9563500187219496 #
edge $-1 $745 40.633770036676957 $748 48.672196143485223 $590 $820 forward 7 unknown #
vertex $-1 $604 $821 #
straight-curve $-1 -18.195929581983552 -51.368386419282018 8.06330455259112 0 -1 0 I I #
edge $-1 $748 -12.162269251872445 $601 0.094948591650230618 $600 $822 forward 7 unknown #
vertex $-1 $747 $823 #
straight-curve $-1 -18.195929581983552 -34.558074172018891 0.024878445782860581 0 0.81915203911291934 0.57357644374324357 I I #
point $-1 -18.195929581983552 -23.078012170731242 8.0633045525911218 #
point $-1 -5.938711738460877 -34.558074172018898 0.024878445782855606 #
straight-curve $-1 0 -34.558074172018898 8.0633045525911218 1 0 0 I I #
vertex $-1 $607 $824 #
point $-1 -13.693867340977079 -27.356190820842965 1.9563500187219496 #
vertex $-1 $611 $825 #
point $-1 -8.4407739794673589 -27.356190820842965 1.9563500187219496 #
edge $-1 $758 40.633770036676957 $761 48.672196143485223 $616 $826 forward 7 unknown #
vertex $-1 $630 $827 #
straight-curve $-1 9.2726787741158638 -51.368386419282018 8.06330455259112 0 -1 0 I I #
edge $-1 $761 1.5720349261772633 $627 13.829252769699938 $626 $828 forward 7 unknown #
vertex $-1 $760 $829 #
straight-curve $-1 9.2726787741158638 -34.558074172018891 0.024878445782860581 0 0.81915203911291934 0.57357644374324357 I I #
point $-1 9.2726787741158638 -23.078012170731242 8.0633045525911218 #
point $-1 21.529896617638538 -34.558074172018898 0.024878445782855606 #
straight-curve $-1 0 -34.558074172018898 8.0633045525911218 1 0 0 I I #
vertex $-1 $633 $830 #
point $-1 13.774741015122331 -27.356190820842965 1.9563500187219496 #
vertex $-1 $637 $831 #
point $-1 19.027834376632043 -27.356190820842965 1.9563500187219496 #
edge $-1 $771 40.633770036676957 $774 48.672196143485223 $642 $832 forward 7 unknown #
vertex $-1 $656 $833 #
straight-curve $-1 36.741287130215269 -51.368386419282018 8.06330455259112 0 -1 0 I I #
edge $-1 $774 15.306339104226964 $653 27.563556947749646 $652 $834 forward 7 unknown #
vertex $-1 $773 $835 #
straight-curve $-1 36.741287130215269 -34.558074172018891 0.024878445782860581 0 0.81915203911291934 0.57357644374324357 I I #
point $-1 36.741287130215269 -23.078012170731242 8.0633045525911218 #
point $-1 48.998504973737951 -34.558074172018898 0.024878445782855606 #
straight-curve $-1 0 -34.558074172018898 8.0633045525911218 1 0 0 I I #
vertex $-1 $659 $836 #
point $-1 41.24334937122174 -27.356190820842965 1.9563500187219496 #
vertex $-1 $663 $837 #
point $-1 46.496442732731452 -27.356190820842965 1.9563500187219496 #
coedge $-1 $678 $677 $670 $784 forward $667 $-1 #
edge $-1 $785 52.800314685374914 $788 58.425686075753134 $783 $838 forward 7 unknown #
vertex $-1 $682 $839 #
straight-curve $-1 -10.686153769766609 51.470459382314644 8.06330455259112 0 1 0 I I #
edge $-1 $788 -1.9094840817231606 $679 27.100759784702703 $678 $840 forward 7 unknown #
vertex $-1 $787 $841 #
straight-curve $-1 -10.686153769766609 9.2598170908786415e-007 62.294273974499184 0 -0.49999998660252726 0.86602541151947299 I I #
point $-1 -10.686153769766609 31.310264601525592 8.06330455259112 #
point $-1 -39.696397636192472 34.558074172018898 2.4379331622129001 #
straight-curve $-1 0 34.558074172018898 8.0633045525911218 -1 0 0 I I #
vertex $-1 $685 $842 #
point $-1 -32.394348862907293 29.255259502768254 3.1265993214319092 #
vertex $-1 $689 $843 #
point $-1 -23.691275702979539 29.255259502768254 3.1265993214319092 #
vertex $-1 $693 $844 #
point $-1 -14.988202543051784 29.255259502768254 3.1265993214319092 #
straight-curve $-1 -59.432966093935974 34.558074172018898 0 0 0 -1 I I #
point $-1 -59.432966093935974 -34.558074172018898 -8.0633045525911218 #
straight-curve $-1 -59.432966093935974 0 -8.0633045525911218 0 1 0 I I #
point $-1 -59.432966093935974 34.558074172018898 -8.0633045525911218 #
coedge $-1 $808 $714 $717 $805 reversed $544 $-1 #
straight-curve $-1 -68.424464857410285 34.558074172018898 -0.66119780047313803 0 0 -1 I I #
edge $-1 $810 -34.558074172018898 $718 34.558074172018898 $803 $845 forward 7 unknown #
point $-1 -68.424464857410285 34.558074172018898 -2.1611978004731376 #
point $-1 -68.424464857410285 34.558074172018898 0.83880219952686152 #
coedge $-1 $727 $803 $724 $809 reversed $544 $-1 #
edge $-1 $729 -1.4999999999999996 $810 1.4999999999999996 $808 $846 forward 7 unknown #
vertex $-1 $805 $847 #
straight-curve $-1 -63.92871547567313 -34.558074172018898 -2.1611978004731376 -1 0 0 I I #
straight-curve $-1 -68.424464857410285 0 0.83880219952686152 0 -1 0 I I #
point $-1 -68.424464857410285 -34.558074172018898 0.83880219952686152 #
straight-curve $-1 -45.664537938082965 -34.558074172018898 48.697074589268077 0 0 -1 I I #
point $-1 -45.664537938082965 -34.558074172018898 8.0633045525911218 #
straight-curve $-1 -19.767964508160812 -34.558074172018898 0.024878445782851432 1 0 0 I I #
point $-1 -45.664537938082965 -34.558074172018898 0.024878445782855606 #
point $-1 -42.162475697076488 -26.782614377099723 1.1371979796090301 #
point $-1 -36.909382335566768 -26.782614377099723 1.1371979796090301 #
straight-curve $-1 -18.195929581983552 -34.558074172018898 48.697074589268077 0 0 -1 I I #
point $-1 -18.195929581983552 -34.558074172018898 8.0633045525911218 #
straight-curve $-1 -6.0336603301111076 -34.558074172018898 0.024878445782851432 1 0 0 I I #
point $-1 -18.195929581983552 -34.558074172018898 0.024878445782855606 #
point $-1 -14.693867340977079 -26.782614377099723 1.1371979796090301 #
point $-1 -9.4407739794673589 -26.782614377099723 1.1371979796090301 #
straight-curve $-1 9.2726787741158638 -34.558074172018898 48.697074589268077 0 0 -1 I I #
point $-1 9.2726787741158638 -34.558074172018898 8.0633045525911218 #
straight-curve $-1 7.7006438479386006 -34.558074172018898 0.024878445782851432 1 0 0 I I #
point $-1 9.2726787741158638 -34.558074172018898 0.024878445782855606 #
point $-1 12.774741015122331 -26.782614377099723 1.1371979796090301 #
point $-1 18.027834376632043 -26.782614377099723 1.1371979796090301 #
straight-curve $-1 36.741287130215269 -34.558074172018898 48.697074589268077 0 0 -1 I I #
point $-1 36.741287130215269 -34.558074172018898 8.0633045525911218 #
straight-curve $-1 21.434948025988305 -34.558074172018898 0.024878445782851432 1 0 0 I I #
point $-1 36.741287130215269 -34.558074172018898 0.024878445782855606 #
point $-1 40.24334937122174 -26.782614377099723 1.1371979796090301 #
point $-1 45.496442732731452 -26.782614377099723 1.1371979796090301 #
straight-curve $-1 -10.686153769766609 34.558074172018898 60.863619237966034 0 0 -1 I I #
point $-1 -10.686153769766609 34.558074172018898 8.0633045525911218 #
straight-curve $-1 -12.595637851489769 34.558074172018898 2.4379331622129001 -1 0 0 I I #
point $-1 -10.686153769766609 34.558074172018898 2.4379331622129001 #
point $-1 -33.894348862907293 27.956221385489044 2.3765993415281184 #
point $-1 -25.191275702979539 27.956221385489044 2.3765993415281184 #
point $-1 -16.488202543051784 27.956221385489044 2.3765993415281184 #
straight-curve $-1 -68.424464857410285 0 -2.1611978004731376 0 1 0 I I #
straight-curve $-1 -68.424464857410285 -34.558074172018898 -0.66119780047313803 0 0 -1 I I #
point $-1 -68.424464857410285 -34.558074172018898 -2.1611978004731376 #
End-of-ACIS-data 