500 0 14 0           
7 Unknown 11 ACIS 5.0 NT 24 Fri Mar 26 17:25:26 1999 
-1 9.9999999999999995e-007 1e-010 
body $-1 $14 $-1 $15 #
body $-1 $16 $-1 $17 #
body $-1 $18 $-1 $19 #
body $-1 $20 $-1 $21 #
body $-1 $22 $-1 $23 #
body $-1 $24 $-1 $25 #
body $-1 $26 $-1 $27 #
body $-1 $28 $-1 $29 #
body $-1 $30 $-1 $31 #
body $-1 $32 $-1 $33 #
body $-1 $34 $-1 $35 #
body $-1 $36 $-1 $37 #
body $-1 $38 $-1 $39 #
body $-1 $40 $-1 $41 #
lump $-1 $-1 $42 $0 #
transform $-1 1 0 0 0 1 0 0 0 1 60.599993896298102 25.576019641428442 5.9474178063242951 1 rotate no_reflect no_shear #
lump $-1 $-1 $43 $1 #
transform $-1 1 0 0 0 1 0 0 0 1 60.599993896298102 25.576019641428442 5.9474178063242951 1 rotate no_reflect no_shear #
lump $-1 $-1 $44 $2 #
transform $-1 1 0 0 0 1 0 0 0 1 60.599993896298102 25.576019641428442 5.9474178063242951 1 rotate no_reflect no_shear #
lump $-1 $-1 $45 $3 #
transform $-1 1 0 0 0 1 0 0 0 1 60.599993896298102 25.576019641428442 5.9474178063242951 1 rotate no_reflect no_shear #
lump $-1 $-1 $46 $4 #
transform $-1 1 0 0 0 1 0 0 0 1 60.599993896298102 25.576019641428442 5.9474178063242951 1 rotate no_reflect no_shear #
lump $-1 $-1 $47 $5 #
transform $-1 1 0 0 0 1 0 0 0 1 60.599993896298102 25.576019641428442 5.9474178063242951 1 rotate no_reflect no_shear #
lump $-1 $-1 $48 $6 #
transform $-1 1 0 0 0 1 0 0 0 1 60.599993896298102 25.576019641428442 5.9474178063242951 1 rotate no_reflect no_shear #
lump $-1 $-1 $49 $7 #
transform $-1 1 0 0 0 1 0 0 0 1 60.599993896298102 25.576019641428442 5.9474178063242951 1 rotate no_reflect no_shear #
lump $-1 $-1 $50 $8 #
transform $-1 1 0 0 0 1 0 0 0 1 60.599993896298102 25.576019641428442 5.9474178063242951 1 rotate no_reflect no_shear #
lump $-1 $-1 $51 $9 #
transform $-1 1 0 0 0 1 0 0 0 1 60.599993896298102 25.576019641428442 5.9474178063242951 1 rotate no_reflect no_shear #
lump $-1 $-1 $52 $10 #
transform $-1 1 0 0 0 1 0 0 0 1 60.599993896298102 25.576019641428442 5.9474178063242951 1 rotate no_reflect no_shear #
lump $-1 $-1 $53 $11 #
transform $-1 1 0 0 0 1 0 0 0 1 60.599993896298102 25.576019641428442 5.9474178063242951 1 rotate no_reflect no_shear #
lump $-1 $-1 $54 $12 #
transform $-1 1 0 0 0 1 0 0 0 1 60.599993896298102 25.576019641428442 5.9474178063242951 1 rotate no_reflect no_shear #
lump $-1 $-1 $55 $13 #
transform $-1 1 0 0 0 1 0 0 0 1 60.599993896298102 25.576019641428442 5.9474178063242951 1 rotate no_reflect no_shear #
shell $-1 $-1 $-1 $56 $-1 $14 #
shell $-1 $-1 $-1 $57 $-1 $16 #
shell $-1 $-1 $-1 $58 $-1 $18 #
shell $-1 $-1 $-1 $59 $-1 $20 #
shell $-1 $-1 $-1 $60 $-1 $22 #
shell $-1 $-1 $-1 $61 $-1 $24 #
shell $-1 $-1 $-1 $62 $-1 $26 #
shell $-1 $-1 $-1 $63 $-1 $28 #
shell $-1 $-1 $-1 $64 $-1 $30 #
shell $-1 $-1 $-1 $65 $-1 $32 #
shell $-1 $-1 $-1 $66 $-1 $34 #
shell $-1 $-1 $-1 $67 $-1 $36 #
shell $-1 $-1 $-1 $68 $-1 $38 #
shell $-1 $-1 $-1 $69 $-1 $40 #
face $-1 $70 $71 $42 $-1 $72 forward single #
face $-1 $73 $74 $43 $-1 $75 reversed single #
face $-1 $76 $77 $44 $-1 $78 reversed single #
face $-1 $79 $80 $45 $-1 $81 forward single #
face $-1 $82 $83 $46 $-1 $84 forward single #
face $-1 $85 $86 $47 $-1 $87 reversed single #
face $-1 $88 $89 $48 $-1 $90 forward single #
face $-1 $91 $92 $49 $-1 $93 forward single #
face $-1 $94 $95 $50 $-1 $96 reversed single #
face $-1 $97 $98 $51 $-1 $99 forward single #
face $-1 $100 $101 $52 $-1 $102 forward single #
face $-1 $103 $104 $53 $-1 $105 reversed single #
face $-1 $106 $107 $54 $-1 $108 forward single #
face $-1 $109 $110 $55 $-1 $111 forward single #
face $-1 $112 $113 $42 $-1 $114 reversed single #
loop $-1 $-1 $115 $56 #
plane-surface $-1 0 0 5.9474178063242951 0 0 1 1 0 0 forward_v I I I I #
face $-1 $116 $117 $43 $-1 $118 reversed single #
loop $-1 $-1 $119 $57 #
plane-surface $-1 -58.189735083048745 0 2.5234461585670154 0 0 1 1 0 0 forward_v I I I I #
face $-1 $120 $121 $44 $-1 $122 reversed single #
loop $-1 $-1 $123 $58 #
plane-surface $-1 -48.892548301285245 91.586569559598132 116.19619237728043 1 0 0 0 -0.79863551827123203 -0.60181501223851219 forward_v I I I I #
face $-1 $124 $125 $45 $-1 $126 forward single #
loop $-1 $127 $128 $59 #
cone-surface $-1 -44.877421316970114 23.675720214349752 3.7498674621967441 0 -0.79863551827123203 -0.60181501223851219 0.5 0 0 1 I I 0 1 0.5 forward I I I I #
face $-1 $129 $130 $46 $-1 $131 forward single #
loop $-1 $132 $133 $60 #
cone-surface $-1 -38.854730840497403 23.675720214349752 3.7498674621967441 0 -0.79863551827123203 -0.60181501223851219 0.5 0 0 1 I I 0 1 0.5 forward I I I I #
face $-1 $134 $135 $47 $-1 $136 reversed single #
loop $-1 $-1 $137 $61 #
plane-surface $-1 -19.797680759760876 91.586569559598132 116.19619237728043 1 0 0 0 -0.79863551827123203 -0.60181501223851219 forward_v I I I I #
face $-1 $138 $139 $48 $-1 $140 forward single #
loop $-1 $141 $142 $62 #
cone-surface $-1 -15.782553775445734 23.675720214349752 3.7498674621967441 0 -0.79863551827123203 -0.60181501223851219 0.5 0 0 1 I I 0 1 0.5 forward I I I I #
face $-1 $143 $144 $49 $-1 $145 forward single #
loop $-1 $146 $147 $63 #
cone-surface $-1 -9.7598632989730305 23.675720214349752 3.7498674621967441 0 -0.79863551827123203 -0.60181501223851219 0.5 0 0 1 I I 0 1 0.5 forward I I I I #
face $-1 $148 $149 $50 $-1 $150 reversed single #
loop $-1 $-1 $151 $64 #
plane-surface $-1 9.2971867817634966 91.586569559598132 116.19619237728043 1 0 0 0 -0.79863551827123203 -0.60181501223851219 forward_v I I I I #
face $-1 $152 $153 $51 $-1 $154 forward single #
loop $-1 $155 $156 $65 #
cone-surface $-1 13.312313766078645 23.675720214349752 3.7498674621967441 0 -0.79863551827123203 -0.60181501223851219 0.5 0 0 1 I I 0 1 0.5 forward I I I I #
face $-1 $157 $158 $52 $-1 $159 forward single #
loop $-1 $160 $161 $66 #
cone-surface $-1 19.335004242551349 23.675720214349752 3.7498674621967441 0 -0.79863551827123203 -0.60181501223851219 0.5 0 0 1 I I 0 1 0.5 forward I I I I #
face $-1 $162 $163 $53 $-1 $164 reversed single #
loop $-1 $-1 $165 $67 #
plane-surface $-1 38.39205432328788 91.586569559598132 116.19619237728043 1 0 0 0 -0.79863551827123203 -0.60181501223851219 forward_v I I I I #
face $-1 $166 $167 $54 $-1 $168 forward single #
loop $-1 $169 $170 $68 #
cone-surface $-1 42.407181307603025 23.675720214349752 3.7498674621967441 0 -0.79863551827123203 -0.60181501223851219 0.5 0 0 1 I I 0 1 0.5 forward I I I I #
face $-1 $171 $172 $55 $-1 $173 forward single #
loop $-1 $174 $175 $69 #
cone-surface $-1 48.429871784075729 23.675720214349752 3.7498674621967441 0 -0.79863551827123203 -0.60181501223851219 0.5 0 0 1 I I 0 1 0.5 forward I I I I #
face $-1 $176 $177 $42 $-1 $178 reversed single #
loop $-1 $-1 $179 $70 #
plane-surface $-1 0 0 -5.9474178063242951 0 0 1 1 0 0 forward_v I I I I #
coedge $-1 $180 $181 $182 $183 forward $71 $-1 #
face $-1 $184 $185 $43 $-1 $186 reversed single #
loop $-1 $-1 $187 $73 #
plane-surface $-1 -55.779476269799389 0 4.2354319824456548 -1 0 0 0 0 1 forward_v I I I I #
coedge $-1 $188 $189 $190 $191 forward $74 $-1 #
face $-1 $192 $193 $44 $-1 $194 reversed single #
loop $-1 $-1 $195 $76 #
plane-surface $-1 -41.866076078733755 -5.2080455056089363 43.256220240571608 0 0.79863551827123203 0.60181501223851219 1 0 0 forward_v I I I I #
coedge $-1 $196 $197 $198 $199 reversed $77 $-1 #
face $-1 $-1 $200 $45 $-1 $201 forward single #
loop $-1 $202 $203 $79 #
cone-surface $-1 -44.877421316970114 22.910695291485364 3.1733798495333199 0 -0.79863551827123203 -0.60181501223851219 0.25 0 0 1 I I -0.70710678118654746 0.70710678118654746 0.25 forward I I I I #
loop $-1 $-1 $204 $59 #
coedge $-1 $128 $128 $205 $206 reversed $80 $-1 #
face $-1 $-1 $207 $46 $-1 $208 forward single #
loop $-1 $209 $210 $82 #
cone-surface $-1 -38.854730840497403 22.910695291485364 3.1733798495333199 0 -0.79863551827123203 -0.60181501223851219 0.25 0 0 1 I I -0.70710678118654746 0.70710678118654746 0.25 forward I I I I #
loop $-1 $-1 $211 $60 #
coedge $-1 $133 $133 $212 $213 reversed $83 $-1 #
face $-1 $214 $215 $47 $-1 $216 reversed single #
loop $-1 $-1 $217 $85 #
plane-surface $-1 -12.771208537209382 -5.2080455056089363 43.256220240571608 0 0.79863551827123203 0.60181501223851219 1 0 0 forward_v I I I I #
coedge $-1 $218 $219 $220 $221 reversed $86 $-1 #
face $-1 $-1 $222 $48 $-1 $223 forward single #
loop $-1 $224 $225 $88 #
cone-surface $-1 -15.782553775445734 22.910695291485364 3.1733798495333199 0 -0.79863551827123203 -0.60181501223851219 0.25 0 0 1 I I -0.70710678118654746 0.70710678118654746 0.25 forward I I I I #
loop $-1 $-1 $226 $62 #
coedge $-1 $142 $142 $227 $228 reversed $89 $-1 #
face $-1 $-1 $229 $49 $-1 $230 forward single #
loop $-1 $231 $232 $91 #
cone-surface $-1 -9.7598632989730305 22.910695291485364 3.1733798495333199 0 -0.79863551827123203 -0.60181501223851219 0.25 0 0 1 I I -0.70710678118654746 0.70710678118654746 0.25 forward I I I I #
loop $-1 $-1 $233 $63 #
coedge $-1 $147 $147 $234 $235 reversed $92 $-1 #
face $-1 $236 $237 $50 $-1 $238 reversed single #
loop $-1 $-1 $239 $94 #
plane-surface $-1 16.32365900431499 -5.2080455056089363 43.256220240571608 0 0.79863551827123203 0.60181501223851219 1 0 0 forward_v I I I I #
coedge $-1 $240 $241 $242 $243 reversed $95 $-1 #
face $-1 $-1 $244 $51 $-1 $245 forward single #
loop $-1 $246 $247 $97 #
cone-surface $-1 13.312313766078645 22.910695291485364 3.1733798495333199 0 -0.79863551827123203 -0.60181501223851219 0.25 0 0 1 I I -0.70710678118654746 0.70710678118654746 0.25 forward I I I I #
loop $-1 $-1 $248 $65 #
coedge $-1 $156 $156 $249 $250 reversed $98 $-1 #
face $-1 $-1 $251 $52 $-1 $252 forward single #
loop $-1 $253 $254 $100 #
cone-surface $-1 19.335004242551349 22.910695291485364 3.1733798495333199 0 -0.79863551827123203 -0.60181501223851219 0.25 0 0 1 I I -0.70710678118654746 0.70710678118654746 0.25 forward I I I I #
loop $-1 $-1 $255 $66 #
coedge $-1 $161 $161 $256 $257 reversed $101 $-1 #
face $-1 $258 $259 $53 $-1 $260 reversed single #
loop $-1 $-1 $261 $103 #
plane-surface $-1 45.41852654583937 -5.2080455056089363 43.256220240571608 0 0.79863551827123203 0.60181501223851219 1 0 0 forward_v I I I I #
coedge $-1 $262 $263 $264 $265 reversed $104 $-1 #
face $-1 $-1 $266 $54 $-1 $267 forward single #
loop $-1 $268 $269 $106 #
cone-surface $-1 42.407181307603025 22.910695291485364 3.1733798495333199 0 -0.79863551827123203 -0.60181501223851219 0.25 0 0 1 I I -0.70710678118654746 0.70710678118654746 0.25 forward I I I I #
loop $-1 $-1 $270 $68 #
coedge $-1 $170 $170 $271 $272 reversed $107 $-1 #
face $-1 $-1 $273 $55 $-1 $274 forward single #
loop $-1 $275 $276 $109 #
cone-surface $-1 48.429871784075729 22.910695291485364 3.1733798495333199 0 -0.79863551827123203 -0.60181501223851219 0.25 0 0 1 I I -0.70710678118654746 0.70710678118654746 0.25 forward I I I I #
loop $-1 $-1 $277 $69 #
coedge $-1 $175 $175 $278 $279 reversed $110 $-1 #
face $-1 $280 $281 $42 $-1 $282 reversed single #
loop $-1 $-1 $283 $112 #
plane-surface $-1 0 -25.576019641428442 0 0 1 0 0 0 1 forward_v I I I I #
coedge $-1 $284 $285 $286 $287 forward $113 $-1 #
coedge $-1 $288 $115 $289 $290 forward $71 $-1 #
coedge $-1 $115 $288 $291 $292 forward $71 $-1 #
coedge $-1 $293 $294 $115 $183 reversed $295 $-1 #
edge $-1 $296 -25.576019641428442 $297 25.576019641428442 $182 $298 forward 7 unknown #
face $-1 $299 $300 $43 $-1 $301 reversed single #
loop $-1 $-1 $302 $116 #
plane-surface $-1 0 25.576019641428442 0 0 -1 0 0 0 -1 forward_v I I I I #
coedge $-1 $190 $303 $304 $305 reversed $117 $-1 #
coedge $-1 $306 $119 $307 $308 reversed $74 $-1 #
coedge $-1 $119 $306 $309 $310 reversed $74 $-1 #
coedge $-1 $311 $187 $119 $191 reversed $117 $-1 #
edge $-1 $312 -25.576019641428442 $313 25.576019641428442 $190 $314 forward 7 unknown #
face $-1 $315 $316 $44 $-1 $317 forward single #
loop $-1 $-1 $318 $120 #
plane-surface $-1 -34.839603856182265 91.586569559598132 116.19619237728043 -1 0 0 0 0.79863551827123203 0.60181501223851219 forward_v I I I I #
coedge $-1 $319 $320 $321 $322 reversed $121 $-1 #
coedge $-1 $197 $123 $323 $324 reversed $77 $-1 #
coedge $-1 $123 $196 $319 $325 reversed $77 $-1 #
coedge $-1 $321 $326 $123 $199 forward $316 $-1 #
edge $-1 $327 20.217265138370625 $328 22.88713190593484 $198 $329 forward 7 unknown #
loop $-1 $-1 $205 $124 #
plane-surface $-1 -41.866076078733755 -5.2080455056089363 43.256220240571608 0 0.79863551827123203 0.60181501223851219 1 0 0 forward_v I I I I #
loop $-1 $-1 $330 $79 #
coedge $-1 $203 $203 $204 $331 reversed $125 $-1 #
coedge $-1 $204 $204 $203 $331 forward $127 $-1 #
coedge $-1 $205 $205 $128 $206 forward $200 $-1 #
edge $-1 $332 1.4388295220363729e-015 $332 6.2831853071796022 $205 $333 forward 7 unknown #
loop $-1 $-1 $212 $129 #
plane-surface $-1 -41.866076078733755 -5.2080455056089363 43.256220240571608 0 0.79863551827123203 0.60181501223851219 1 0 0 forward_v I I I I #
loop $-1 $-1 $334 $82 #
coedge $-1 $210 $210 $211 $335 reversed $130 $-1 #
coedge $-1 $211 $211 $210 $335 forward $132 $-1 #
coedge $-1 $212 $212 $133 $213 forward $207 $-1 #
edge $-1 $336 1.4388295220363729e-015 $336 6.2831853071796022 $212 $337 forward 7 unknown #
face $-1 $338 $339 $47 $-1 $340 forward single #
loop $-1 $-1 $341 $134 #
plane-surface $-1 -5.7447363146578887 91.586569559598132 116.19619237728043 -1 0 0 0 0.79863551827123203 0.60181501223851219 forward_v I I I I #
coedge $-1 $342 $343 $344 $345 reversed $135 $-1 #
coedge $-1 $219 $137 $346 $347 reversed $86 $-1 #
coedge $-1 $137 $218 $342 $348 reversed $86 $-1 #
coedge $-1 $344 $349 $137 $221 forward $339 $-1 #
edge $-1 $350 20.217265138370625 $351 22.88713190593484 $220 $352 forward 7 unknown #
loop $-1 $-1 $227 $138 #
plane-surface $-1 -12.771208537209382 -5.2080455056089363 43.256220240571608 0 0.79863551827123203 0.60181501223851219 1 0 0 forward_v I I I I #
loop $-1 $-1 $353 $88 #
coedge $-1 $225 $225 $226 $354 reversed $139 $-1 #
coedge $-1 $226 $226 $225 $354 forward $141 $-1 #
coedge $-1 $227 $227 $142 $228 forward $222 $-1 #
edge $-1 $355 1.4388295220363729e-015 $355 6.2831853071796022 $227 $356 forward 7 unknown #
loop $-1 $-1 $234 $143 #
plane-surface $-1 -12.771208537209382 -5.2080455056089363 43.256220240571608 0 0.79863551827123203 0.60181501223851219 1 0 0 forward_v I I I I #
loop $-1 $-1 $357 $91 #
coedge $-1 $232 $232 $233 $358 reversed $144 $-1 #
coedge $-1 $233 $233 $232 $358 forward $146 $-1 #
coedge $-1 $234 $234 $147 $235 forward $229 $-1 #
edge $-1 $359 1.4388295220363729e-015 $359 6.2831853071796022 $234 $360 forward 7 unknown #
face $-1 $361 $362 $50 $-1 $363 forward single #
loop $-1 $-1 $364 $148 #
plane-surface $-1 23.350131226866484 91.586569559598132 116.19619237728043 -1 0 0 0 0.79863551827123203 0.60181501223851219 forward_v I I I I #
coedge $-1 $365 $366 $367 $368 reversed $149 $-1 #
coedge $-1 $241 $151 $369 $370 reversed $95 $-1 #
coedge $-1 $151 $240 $365 $371 reversed $95 $-1 #
coedge $-1 $367 $372 $151 $243 forward $362 $-1 #
edge $-1 $373 20.217265138370625 $374 22.88713190593484 $242 $375 forward 7 unknown #
loop $-1 $-1 $249 $152 #
plane-surface $-1 16.32365900431499 -5.2080455056089363 43.256220240571608 0 0.79863551827123203 0.60181501223851219 1 0 0 forward_v I I I I #
loop $-1 $-1 $376 $97 #
coedge $-1 $247 $247 $248 $377 reversed $153 $-1 #
coedge $-1 $248 $248 $247 $377 forward $155 $-1 #
coedge $-1 $249 $249 $156 $250 forward $244 $-1 #
edge $-1 $378 1.4388295220363729e-015 $378 6.2831853071796022 $249 $379 forward 7 unknown #
loop $-1 $-1 $256 $157 #
plane-surface $-1 16.32365900431499 -5.2080455056089363 43.256220240571608 0 0.79863551827123203 0.60181501223851219 1 0 0 forward_v I I I I #
loop $-1 $-1 $380 $100 #
coedge $-1 $254 $254 $255 $381 reversed $158 $-1 #
coedge $-1 $255 $255 $254 $381 forward $160 $-1 #
coedge $-1 $256 $256 $161 $257 forward $251 $-1 #
edge $-1 $382 1.4388295220363729e-015 $382 6.2831853071796022 $256 $383 forward 7 unknown #
face $-1 $384 $385 $53 $-1 $386 forward single #
loop $-1 $-1 $387 $162 #
plane-surface $-1 52.44499876839086 91.586569559598132 116.19619237728043 -1 0 0 0 0.79863551827123203 0.60181501223851219 forward_v I I I I #
coedge $-1 $388 $389 $390 $391 reversed $163 $-1 #
coedge $-1 $263 $165 $392 $393 reversed $104 $-1 #
coedge $-1 $165 $262 $388 $394 reversed $104 $-1 #
coedge $-1 $390 $395 $165 $265 forward $385 $-1 #
edge $-1 $396 20.217265138370625 $397 22.88713190593484 $264 $398 forward 7 unknown #
loop $-1 $-1 $271 $166 #
plane-surface $-1 45.41852654583937 -5.2080455056089363 43.256220240571608 0 0.79863551827123203 0.60181501223851219 1 0 0 forward_v I I I I #
loop $-1 $-1 $399 $106 #
coedge $-1 $269 $269 $270 $400 reversed $167 $-1 #
coedge $-1 $270 $270 $269 $400 forward $169 $-1 #
coedge $-1 $271 $271 $170 $272 forward $266 $-1 #
edge $-1 $401 1.4388295220363729e-015 $401 6.2831853071796022 $271 $402 forward 7 unknown #
loop $-1 $-1 $278 $171 #
plane-surface $-1 45.41852654583937 -5.2080455056089363 43.256220240571608 0 0.79863551827123203 0.60181501223851219 1 0 0 forward_v I I I I #
loop $-1 $-1 $403 $109 #
coedge $-1 $276 $276 $277 $404 reversed $172 $-1 #
coedge $-1 $277 $277 $276 $404 forward $174 $-1 #
coedge $-1 $278 $278 $175 $279 forward $273 $-1 #
edge $-1 $405 1.4388295220363729e-015 $405 6.2831853071796022 $278 $406 forward 7 unknown #
face $-1 $407 $408 $42 $-1 $409 reversed single #
loop $-1 $-1 $410 $176 #
plane-surface $-1 -60.599993896298102 0 0 1 0 0 0 0 -1 forward_v I I I I #
coedge $-1 $411 $291 $412 $413 forward $177 $-1 #
coedge $-1 $414 $179 $411 $415 forward $113 $-1 #
coedge $-1 $179 $414 $416 $417 forward $113 $-1 #
coedge $-1 $294 $293 $179 $287 reversed $295 $-1 #
edge $-1 $418 -25.576019641428442 $419 25.576019641428442 $286 $420 forward 7 unknown #
coedge $-1 $181 $180 $421 $422 forward $71 $-1 #
coedge $-1 $423 $424 $180 $290 reversed $408 $-1 #
edge $-1 $297 -60.599993896298102 $425 60.599993896298102 $289 $426 forward 7 unknown #
coedge $-1 $283 $427 $181 $292 reversed $177 $-1 #
edge $-1 $428 -60.599993896298102 $296 60.599993896298102 $291 $429 forward 7 unknown #
coedge $-1 $286 $182 $427 $430 forward $295 $-1 #
coedge $-1 $182 $286 $423 $431 reversed $295 $-1 #
loop $-1 $-1 $293 $407 #
vertex $-1 $183 $432 #
vertex $-1 $183 $433 #
straight-curve $-1 60.599993896298102 0 5.9474178063242951 0 1 0 I I #
face $-1 $434 $435 $43 $-1 $436 forward single #
loop $-1 $-1 $437 $184 #
plane-surface $-1 -60.599993896298102 0 0 1 0 0 0 0 -1 forward_v I I I I #
coedge $-1 $309 $438 $311 $439 forward $185 $-1 #
coedge $-1 $187 $311 $440 $441 reversed $117 $-1 #
coedge $-1 $442 $307 $187 $305 forward $443 $-1 #
edge $-1 $313 0.40573016734418799 $444 3.8297018151014668 $304 $445 forward 7 unknown #
coedge $-1 $189 $188 $437 $446 reversed $74 $-1 #
coedge $-1 $304 $447 $188 $308 forward $443 $-1 #
edge $-1 $448 -31.505126354773729 $313 -26.684608728275016 $307 $449 forward 7 unknown #
coedge $-1 $450 $302 $189 $310 forward $185 $-1 #
edge $-1 $312 26.684608728275016 $451 31.505126354773729 $309 $452 forward 7 unknown #
coedge $-1 $303 $190 $302 $439 reversed $117 $-1 #
vertex $-1 $310 $453 #
vertex $-1 $308 $454 #
straight-curve $-1 -55.779476269799389 0 2.5234461585670154 0 -1 0 I I #
face $-1 $-1 $455 $44 $-1 $456 reversed single #
loop $-1 $-1 $198 $192 #
plane-surface $-1 0 0 5.9474178063242951 0 0 1 1 0 0 forward_v I I I I #
coedge $-1 $457 $458 $459 $460 reversed $193 $-1 #
coedge $-1 $461 $195 $197 $325 forward $121 $-1 #
coedge $-1 $195 $461 $457 $462 forward $121 $-1 #
coedge $-1 $459 $198 $195 $322 forward $316 $-1 #
edge $-1 $328 -27.959510261918368 $463 -13.906565816815387 $321 $464 forward 7 unknown #
coedge $-1 $465 $466 $196 $324 forward $455 $-1 #
edge $-1 $467 -55.69371135136344 $327 -52.150678382315917 $323 $468 forward 7 unknown #
edge $-1 $328 46.715681409972703 $467 51.15203928285689 $197 $469 forward 7 unknown #
coedge $-1 $198 $459 $465 $470 forward $316 $-1 #
vertex $-1 $324 $471 #
vertex $-1 $199 $472 #
straight-curve $-1 -48.892548301285245 45.793284779799066 5.947417806324296 0 -1 0 I I #
coedge $-1 $330 $330 $-1 $473 reversed $202 $-1 #
edge $-1 $474 0 $474 6.2831853071796004 $203 $475 forward 7 unknown #
vertex $-1 $206 $476 #
ellipse-curve $-1 -44.877421316970114 24.24108625764633 4.1759013218005387 0 0.79863551827123203 0.60181501223851219 0.5 0 0 1 I I #
coedge $-1 $334 $334 $-1 $477 reversed $209 $-1 #
edge $-1 $478 0 $478 6.2831853071796004 $210 $479 forward 7 unknown #
vertex $-1 $213 $480 #
ellipse-curve $-1 -38.854730840497403 24.24108625764633 4.1759013218005387 0 0.79863551827123203 0.60181501223851219 0.5 0 0 1 I I #
face $-1 $-1 $481 $47 $-1 $482 reversed single #
loop $-1 $-1 $220 $214 #
plane-surface $-1 0 0 5.9474178063242951 0 0 1 1 0 0 forward_v I I I I #
coedge $-1 $483 $484 $485 $486 reversed $215 $-1 #
coedge $-1 $487 $217 $219 $348 forward $135 $-1 #
coedge $-1 $217 $487 $483 $488 forward $135 $-1 #
coedge $-1 $485 $220 $217 $345 forward $339 $-1 #
edge $-1 $351 -13.412076491156185 $489 0.64086795394680252 $344 $490 forward 7 unknown #
coedge $-1 $491 $492 $218 $347 forward $481 $-1 #
edge $-1 $493 -55.69371135136344 $350 -52.150678382315917 $346 $494 forward 7 unknown #
edge $-1 $351 46.715681409972703 $493 51.15203928285689 $219 $495 forward 7 unknown #
coedge $-1 $220 $485 $491 $496 forward $339 $-1 #
vertex $-1 $221 $497 #
vertex $-1 $221 $498 #
straight-curve $-1 -19.797680759760876 45.793284779799066 5.947417806324296 0 -1 0 I I #
coedge $-1 $353 $353 $-1 $499 reversed $224 $-1 #
edge $-1 $500 0 $500 6.2831853071796004 $225 $501 forward 7 unknown #
vertex $-1 $228 $502 #
ellipse-curve $-1 -15.782553775445734 24.24108625764633 4.1759013218005387 0 0.79863551827123203 0.60181501223851219 0.5 0 0 1 I I #
coedge $-1 $357 $357 $-1 $503 reversed $231 $-1 #
edge $-1 $504 0 $504 6.2831853071796004 $232 $505 forward 7 unknown #
vertex $-1 $235 $506 #
ellipse-curve $-1 -9.7598632989730305 24.24108625764633 4.1759013218005387 0 0.79863551827123203 0.60181501223851219 0.5 0 0 1 I I #
face $-1 $-1 $507 $50 $-1 $508 reversed single #
loop $-1 $-1 $242 $236 #
plane-surface $-1 0 0 5.9474178063242951 0 0 1 1 0 0 forward_v I I I I #
coedge $-1 $509 $510 $511 $512 reversed $237 $-1 #
coedge $-1 $513 $239 $241 $371 forward $149 $-1 #
coedge $-1 $239 $513 $509 $514 forward $149 $-1 #
coedge $-1 $511 $242 $239 $368 forward $362 $-1 #
edge $-1 $374 1.1353572796060014 $515 15.188301724708989 $367 $516 forward 7 unknown #
coedge $-1 $517 $518 $240 $370 forward $507 $-1 #
edge $-1 $519 -55.69371135136344 $373 -52.150678382315917 $369 $520 forward 7 unknown #
edge $-1 $374 46.715681409972703 $519 51.15203928285689 $241 $521 forward 7 unknown #
coedge $-1 $242 $511 $517 $522 forward $362 $-1 #
vertex $-1 $243 $523 #
vertex $-1 $243 $524 #
straight-curve $-1 9.2971867817634966 45.793284779799066 5.947417806324296 0 -1 0 I I #
coedge $-1 $376 $376 $-1 $525 reversed $246 $-1 #
edge $-1 $526 0 $526 6.2831853071796004 $247 $527 forward 7 unknown #
vertex $-1 $250 $528 #
ellipse-curve $-1 13.312313766078645 24.24108625764633 4.1759013218005387 0 0.79863551827123203 0.60181501223851219 0.5 0 0 1 I I #
coedge $-1 $380 $380 $-1 $529 reversed $253 $-1 #
edge $-1 $530 0 $530 6.2831853071796004 $254 $531 forward 7 unknown #
vertex $-1 $257 $532 #
ellipse-curve $-1 19.335004242551349 24.24108625764633 4.1759013218005387 0 0.79863551827123203 0.60181501223851219 0.5 0 0 1 I I #
face $-1 $-1 $533 $53 $-1 $534 reversed single #
loop $-1 $-1 $264 $258 #
plane-surface $-1 0 0 5.9474178063242951 0 0 1 1 0 0 forward_v I I I I #
coedge $-1 $535 $536 $537 $538 reversed $259 $-1 #
coedge $-1 $539 $261 $263 $394 forward $163 $-1 #
coedge $-1 $261 $539 $535 $540 forward $163 $-1 #
coedge $-1 $537 $264 $261 $391 forward $385 $-1 #
edge $-1 $397 15.682791050368195 $541 29.735735495471175 $390 $542 forward 7 unknown #
coedge $-1 $543 $544 $262 $393 forward $533 $-1 #
edge $-1 $545 -55.69371135136344 $396 -52.150678382315917 $392 $546 forward 7 unknown #
edge $-1 $397 46.715681409972703 $545 51.15203928285689 $263 $547 forward 7 unknown #
coedge $-1 $264 $537 $543 $548 forward $385 $-1 #
vertex $-1 $265 $549 #
vertex $-1 $265 $550 #
straight-curve $-1 38.39205432328788 45.793284779799066 5.947417806324296 0 -1 0 I I #
coedge $-1 $399 $399 $-1 $551 reversed $268 $-1 #
edge $-1 $552 0 $552 6.2831853071796004 $269 $553 forward 7 unknown #
vertex $-1 $272 $554 #
ellipse-curve $-1 42.407181307603025 24.24108625764633 4.1759013218005387 0 0.79863551827123203 0.60181501223851219 0.5 0 0 1 I I #
coedge $-1 $403 $403 $-1 $555 reversed $275 $-1 #
edge $-1 $556 0 $556 6.2831853071796004 $276 $557 forward 7 unknown #
vertex $-1 $279 $558 #
ellipse-curve $-1 48.429871784075729 24.24108625764633 4.1759013218005387 0 0.79863551827123203 0.60181501223851219 0.5 0 0 1 I I #
face $-1 $-1 $295 $42 $-1 $559 reversed single #
loop $-1 $-1 $423 $280 #
plane-surface $-1 0 25.576019641428442 0 0 -1 0 0 0 -1 forward_v I I I I #
coedge $-1 $560 $421 $424 $561 forward $281 $-1 #
coedge $-1 $427 $283 $284 $415 reversed $177 $-1 #
coedge $-1 $421 $560 $283 $413 reversed $281 $-1 #
edge $-1 $428 -5.9474178063242951 $562 5.9474178063242951 $412 $563 forward 7 unknown #
coedge $-1 $285 $284 $560 $564 forward $113 $-1 #
edge $-1 $419 -60.599993896298102 $562 60.599993896298102 $411 $565 forward 7 unknown #
coedge $-1 $424 $423 $285 $417 reversed $408 $-1 #
edge $-1 $566 -60.599993896298102 $418 60.599993896298102 $416 $567 forward 7 unknown #
vertex $-1 $287 $568 #
vertex $-1 $430 $569 #
straight-curve $-1 60.599993896298102 0 -5.9474178063242951 0 -1 0 I I #
coedge $-1 $410 $412 $288 $422 reversed $281 $-1 #
edge $-1 $425 -25.576019641428442 $428 25.576019641428442 $421 $570 forward 7 unknown #
coedge $-1 $416 $289 $294 $431 forward $408 $-1 #
coedge $-1 $289 $416 $410 $561 reversed $408 $-1 #
vertex $-1 $290 $571 #
straight-curve $-1 0 25.576019641428442 5.9474178063242951 -1 0 0 I I #
coedge $-1 $291 $411 $293 $430 reversed $177 $-1 #
vertex $-1 $422 $572 #
straight-curve $-1 0 -25.576019641428442 5.9474178063242951 1 0 0 I I #
edge $-1 $296 -5.9474178063242951 $419 5.9474178063242951 $293 $573 forward 7 unknown #
edge $-1 $297 -5.9474178063242951 $418 5.9474178063242951 $294 $574 forward 7 unknown #
point $-1 60.599993896298102 -25.576019641428442 5.9474178063242951 #
point $-1 60.599993896298102 25.576019641428442 5.9474178063242951 #
face $-1 $-1 $443 $43 $-1 $575 reversed single #
loop $-1 $-1 $440 $299 #
plane-surface $-1 0 0 5.9474178063242951 0 0 1 1 0 0 forward_v I I I I #
coedge $-1 $576 $577 $306 $446 forward $300 $-1 #
coedge $-1 $302 $450 $578 $579 reversed $185 $-1 #
edge $-1 $580 -3.8297018151014668 $312 -0.40573016734418799 $302 $581 forward 7 unknown #
coedge $-1 $578 $582 $303 $441 forward $435 $-1 #
edge $-1 $444 -25.576019641428442 $580 25.576019641428442 $440 $583 forward 7 unknown #
coedge $-1 $447 $304 $582 $584 reversed $443 $-1 #
loop $-1 $-1 $304 $434 #
vertex $-1 $305 $585 #
straight-curve $-1 -55.779476269799389 -25.576019641428442 2.1177159912228274 0 0 1 I I #
edge $-1 $451 -25.576019641428442 $448 25.576019641428442 $437 $586 forward 7 unknown #
coedge $-1 $307 $442 $576 $587 forward $443 $-1 #
vertex $-1 $446 $588 #
straight-curve $-1 -29.094867541524373 -25.576019641428442 2.5234461585670154 1 0 0 I I #
coedge $-1 $438 $309 $577 $589 reversed $185 $-1 #
vertex $-1 $446 $590 #
straight-curve $-1 -29.094867541524373 25.576019641428442 2.5234461585670154 -1 0 0 I I #
point $-1 -55.779476269799389 25.576019641428442 2.5234461585670154 #
point $-1 -55.779476269799389 -25.576019641428442 2.5234461585670154 #
loop $-1 $-1 $323 $315 #
plane-surface $-1 0 25.576019641428442 0 0 -1 0 0 0 -1 forward_v I I I I #
coedge $-1 $458 $318 $320 $462 reversed $193 $-1 #
coedge $-1 $318 $457 $591 $592 reversed $193 $-1 #
coedge $-1 $326 $321 $318 $460 forward $316 $-1 #
edge $-1 $463 -22.88713190593484 $593 -20.217265138370625 $459 $594 forward 7 unknown #
coedge $-1 $320 $319 $466 $595 reversed $121 $-1 #
edge $-1 $596 -51.15203928285689 $463 -46.715681409972703 $457 $597 forward 7 unknown #
vertex $-1 $322 $598 #
straight-curve $-1 -20.933038039366878 22.906152873864222 5.947417806324296 1 0 0 I I #
coedge $-1 $591 $323 $326 $470 reversed $455 $-1 #
coedge $-1 $323 $591 $461 $595 forward $455 $-1 #
vertex $-1 $324 $599 #
straight-curve $-1 -48.892548301285245 25.576019641428445 58.098096188640213 0 0 1 I I #
straight-curve $-1 -48.892548301285245 -5.2080455056089363 43.256220240571608 0 0.60181501223851219 -0.79863551827123203 I I #
edge $-1 $593 34.839603856182265 $327 48.892548301285245 $465 $600 forward 7 unknown #
point $-1 -48.892548301285245 25.576019641428442 5.9474178063242951 #
point $-1 -48.892548301285245 22.906152873864226 5.947417806324296 #
edge $-1 $601 1 $601 0 $330 $-1 forward 7 unknown #
vertex $-1 $331 $602 #
ellipse-curve $-1 -44.877421316970114 23.110354171053171 3.323833602592948 0 0.79863551827123203 0.60181501223851219 0.5 0 0 1 I I #
point $-1 -44.377421316970114 24.241086257646334 4.1759013218005405 #
edge $-1 $603 1 $603 0 $334 $-1 forward 7 unknown #
vertex $-1 $335 $604 #
ellipse-curve $-1 -38.854730840497403 23.110354171053171 3.323833602592948 0 0.79863551827123203 0.60181501223851219 0.5 0 0 1 I I #
point $-1 -38.354730840497403 24.241086257646334 4.1759013218005405 #
loop $-1 $-1 $346 $338 #
plane-surface $-1 0 25.576019641428442 0 0 -1 0 0 0 -1 forward_v I I I I #
coedge $-1 $484 $341 $343 $488 reversed $215 $-1 #
coedge $-1 $341 $483 $605 $606 reversed $215 $-1 #
coedge $-1 $349 $344 $341 $486 forward $339 $-1 #
edge $-1 $489 -22.88713190593484 $607 -20.217265138370625 $485 $608 forward 7 unknown #
coedge $-1 $343 $342 $492 $609 reversed $135 $-1 #
edge $-1 $610 -51.15203928285689 $489 -46.715681409972703 $483 $611 forward 7 unknown #
vertex $-1 $345 $612 #
straight-curve $-1 -6.3856042686046912 22.906152873864222 5.947417806324296 1 0 0 I I #
coedge $-1 $605 $346 $349 $496 reversed $481 $-1 #
coedge $-1 $346 $605 $487 $609 forward $481 $-1 #
vertex $-1 $347 $613 #
straight-curve $-1 -19.797680759760876 25.576019641428445 58.098096188640213 0 0 1 I I #
straight-curve $-1 -19.797680759760876 -5.2080455056089363 43.256220240571608 0 0.60181501223851219 -0.79863551827123203 I I #
edge $-1 $607 5.7447363146578887 $350 19.797680759760876 $491 $614 forward 7 unknown #
point $-1 -19.797680759760876 25.576019641428442 5.9474178063242951 #
point $-1 -19.797680759760876 22.906152873864226 5.947417806324296 #
edge $-1 $615 1 $615 0 $353 $-1 forward 7 unknown #
vertex $-1 $354 $616 #
ellipse-curve $-1 -15.782553775445734 23.110354171053171 3.323833602592948 0 0.79863551827123203 0.60181501223851219 0.5 0 0 1 I I #
point $-1 -15.282553775445734 24.241086257646334 4.1759013218005405 #
edge $-1 $617 1 $617 0 $357 $-1 forward 7 unknown #
vertex $-1 $358 $618 #
ellipse-curve $-1 -9.7598632989730305 23.110354171053171 3.323833602592948 0 0.79863551827123203 0.60181501223851219 0.5 0 0 1 I I #
point $-1 -9.2598632989730305 24.241086257646334 4.1759013218005405 #
loop $-1 $-1 $369 $361 #
plane-surface $-1 0 25.576019641428442 0 0 -1 0 0 0 -1 forward_v I I I I #
coedge $-1 $510 $364 $366 $514 reversed $237 $-1 #
coedge $-1 $364 $509 $619 $620 reversed $237 $-1 #
coedge $-1 $372 $367 $364 $512 forward $362 $-1 #
edge $-1 $515 -22.88713190593484 $621 -20.217265138370625 $511 $622 forward 7 unknown #
coedge $-1 $366 $365 $518 $623 reversed $149 $-1 #
edge $-1 $624 -51.15203928285689 $515 -46.715681409972703 $509 $625 forward 7 unknown #
vertex $-1 $368 $626 #
straight-curve $-1 8.1618295021574951 22.906152873864222 5.947417806324296 1 0 0 I I #
coedge $-1 $619 $369 $372 $522 reversed $507 $-1 #
coedge $-1 $369 $619 $513 $623 forward $507 $-1 #
vertex $-1 $370 $627 #
straight-curve $-1 9.2971867817634966 25.576019641428445 58.098096188640213 0 0 1 I I #
straight-curve $-1 9.2971867817634966 -5.2080455056089363 43.256220240571608 0 0.60181501223851219 -0.79863551827123203 I I #
edge $-1 $621 -23.350131226866484 $373 -9.2971867817634966 $517 $628 forward 7 unknown #
point $-1 9.2971867817634966 25.576019641428442 5.9474178063242951 #
point $-1 9.2971867817634966 22.906152873864226 5.947417806324296 #
edge $-1 $629 1 $629 0 $376 $-1 forward 7 unknown #
vertex $-1 $377 $630 #
ellipse-curve $-1 13.312313766078645 23.110354171053171 3.323833602592948 0 0.79863551827123203 0.60181501223851219 0.5 0 0 1 I I #
point $-1 13.812313766078645 24.241086257646334 4.1759013218005405 #
edge $-1 $631 1 $631 0 $380 $-1 forward 7 unknown #
vertex $-1 $381 $632 #
ellipse-curve $-1 19.335004242551349 23.110354171053171 3.323833602592948 0 0.79863551827123203 0.60181501223851219 0.5 0 0 1 I I #
point $-1 19.835004242551349 24.241086257646334 4.1759013218005405 #
loop $-1 $-1 $392 $384 #
plane-surface $-1 0 25.576019641428442 0 0 -1 0 0 0 -1 forward_v I I I I #
coedge $-1 $536 $387 $389 $540 reversed $259 $-1 #
coedge $-1 $387 $535 $633 $634 reversed $259 $-1 #
coedge $-1 $395 $390 $387 $538 forward $385 $-1 #
edge $-1 $541 -22.88713190593484 $635 -20.217265138370625 $537 $636 forward 7 unknown #
coedge $-1 $389 $388 $544 $637 reversed $163 $-1 #
edge $-1 $638 -51.15203928285689 $541 -46.715681409972703 $535 $639 forward 7 unknown #
vertex $-1 $391 $640 #
straight-curve $-1 22.709263272919685 22.906152873864222 5.947417806324296 1 0 0 I I #
coedge $-1 $633 $392 $395 $548 reversed $533 $-1 #
coedge $-1 $392 $633 $539 $637 forward $533 $-1 #
vertex $-1 $393 $641 #
straight-curve $-1 38.39205432328788 25.576019641428445 58.098096188640213 0 0 1 I I #
straight-curve $-1 38.39205432328788 -5.2080455056089363 43.256220240571608 0 0.60181501223851219 -0.79863551827123203 I I #
edge $-1 $635 -52.44499876839086 $396 -38.39205432328788 $543 $642 forward 7 unknown #
point $-1 38.39205432328788 25.576019641428442 5.9474178063242951 #
point $-1 38.39205432328788 22.906152873864226 5.947417806324296 #
edge $-1 $643 1 $643 0 $399 $-1 forward 7 unknown #
vertex $-1 $400 $644 #
ellipse-curve $-1 42.407181307603025 23.110354171053171 3.323833602592948 0 0.79863551827123203 0.60181501223851219 0.5 0 0 1 I I #
point $-1 42.907181307603025 24.241086257646334 4.1759013218005405 #
edge $-1 $645 1 $645 0 $403 $-1 forward 7 unknown #
vertex $-1 $404 $646 #
ellipse-curve $-1 48.429871784075729 23.110354171053171 3.323833602592948 0 0.79863551827123203 0.60181501223851219 0.5 0 0 1 I I #
point $-1 48.929871784075729 24.241086257646334 4.1759013218005405 #
plane-surface $-1 60.599993896298102 0 0 -1 0 0 0 0 1 forward_v I I I I #
coedge $-1 $412 $410 $414 $564 reversed $281 $-1 #
edge $-1 $425 -5.9474178063242951 $566 5.9474178063242951 $424 $647 forward 7 unknown #
vertex $-1 $564 $648 #
straight-curve $-1 -60.599993896298102 -25.576019641428442 0 0 0 -1 I I #
edge $-1 $562 -25.576019641428442 $566 25.576019641428442 $560 $649 forward 7 unknown #
straight-curve $-1 0 -25.576019641428442 -5.9474178063242951 -1 0 0 I I #
vertex $-1 $417 $650 #
straight-curve $-1 0 25.576019641428442 -5.9474178063242951 1 0 0 I I #
point $-1 60.599993896298102 25.576019641428442 -5.9474178063242951 #
point $-1 60.599993896298102 -25.576019641428442 -5.9474178063242951 #
straight-curve $-1 -60.599993896298102 0 5.9474178063242951 0 -1 0 I I #
point $-1 -60.599993896298102 25.576019641428442 5.9474178063242951 #
point $-1 -60.599993896298102 -25.576019641428442 5.9474178063242951 #
straight-curve $-1 60.599993896298102 -25.576019641428442 0 0 0 -1 I I #
straight-curve $-1 60.599993896298102 25.576019641428442 0 0 0 -1 I I #
plane-surface $-1 0 -25.576019641428442 0 0 1 0 0 0 1 forward_v I I I I #
coedge $-1 $651 $437 $447 $587 reversed $300 $-1 #
coedge $-1 $437 $651 $450 $589 forward $300 $-1 #
coedge $-1 $652 $440 $438 $579 forward $435 $-1 #
edge $-1 $580 55.779476269799389 $653 60.599993896298102 $438 $654 forward 7 unknown #
vertex $-1 $579 $655 #
straight-curve $-1 -55.779476269799389 25.576019641428442 2.1177159912228274 0 0 -1 I I #
coedge $-1 $440 $652 $442 $584 forward $435 $-1 #
straight-curve $-1 -55.779476269799389 0 5.9474178063242951 0 1 0 I I #
edge $-1 $656 -60.599993896298102 $444 -55.779476269799389 $442 $657 forward 7 unknown #
point $-1 -55.779476269799389 -25.576019641428442 5.9474178063242942 #
straight-curve $-1 -60.599993896298102 0 2.5234461585670154 0 -1 0 I I #
edge $-1 $656 -5.9474178063242951 $448 -2.5234461585670154 $576 $658 forward 7 unknown #
point $-1 -60.599993896298102 -25.576019641428442 2.5234461585670154 #
edge $-1 $653 -5.9474178063242951 $451 -2.5234461585670154 $450 $659 forward 7 unknown #
point $-1 -60.599993896298102 25.576019641428442 2.5234461585670154 #
coedge $-1 $466 $465 $458 $592 forward $455 $-1 #
edge $-1 $593 52.150678382315917 $596 55.69371135136344 $591 $660 forward 7 unknown #
vertex $-1 $470 $661 #
straight-curve $-1 -34.839603856182265 45.793284779799066 5.947417806324296 0 1 0 I I #
edge $-1 $596 13.906565816815387 $467 27.959510261918368 $466 $662 forward 7 unknown #
vertex $-1 $595 $663 #
straight-curve $-1 -34.839603856182265 -5.2080455056089363 43.256220240571608 0 -0.60181501223851219 0.79863551827123203 I I #
point $-1 -34.839603856182265 22.906152873864226 5.947417806324296 #
point $-1 -48.892548301285245 25.576019641428438 2.4043848372767727 #
straight-curve $-1 0 25.576019641428442 5.9474178063242951 -1 0 0 I I #
vertex $-1 $473 $664 #
point $-1 -44.377421316970114 23.110354171053171 3.323833602592948 #
vertex $-1 $477 $665 #
point $-1 -38.354730840497403 23.110354171053171 3.323833602592948 #
coedge $-1 $492 $491 $484 $606 forward $481 $-1 #
edge $-1 $607 52.150678382315917 $610 55.69371135136344 $605 $666 forward 7 unknown #
vertex $-1 $496 $667 #
straight-curve $-1 -5.7447363146578887 45.793284779799066 5.947417806324296 0 1 0 I I #
edge $-1 $610 -0.64086795394680252 $493 13.412076491156185 $492 $668 forward 7 unknown #
vertex $-1 $609 $669 #
straight-curve $-1 -5.7447363146578887 -5.2080455056089363 43.256220240571608 0 -0.60181501223851219 0.79863551827123203 I I #
point $-1 -5.7447363146578887 22.906152873864226 5.947417806324296 #
point $-1 -19.797680759760876 25.576019641428438 2.4043848372767727 #
straight-curve $-1 0 25.576019641428442 5.9474178063242951 -1 0 0 I I #
vertex $-1 $499 $670 #
point $-1 -15.282553775445734 23.110354171053171 3.323833602592948 #
vertex $-1 $503 $671 #
point $-1 -9.2598632989730305 23.110354171053171 3.323833602592948 #
coedge $-1 $518 $517 $510 $620 forward $507 $-1 #
edge $-1 $621 52.150678382315917 $624 55.69371135136344 $619 $672 forward 7 unknown #
vertex $-1 $522 $673 #
straight-curve $-1 23.350131226866484 45.793284779799066 5.947417806324296 0 1 0 I I #
edge $-1 $624 -15.188301724708989 $519 -1.1353572796060014 $518 $674 forward 7 unknown #
vertex $-1 $623 $675 #
straight-curve $-1 23.350131226866484 -5.2080455056089363 43.256220240571608 0 -0.60181501223851219 0.79863551827123203 I I #
point $-1 23.350131226866484 22.906152873864226 5.947417806324296 #
point $-1 9.2971867817634966 25.576019641428438 2.4043848372767727 #
straight-curve $-1 0 25.576019641428442 5.9474178063242951 -1 0 0 I I #
vertex $-1 $525 $676 #
point $-1 13.812313766078645 23.110354171053171 3.323833602592948 #
vertex $-1 $529 $677 #
point $-1 19.835004242551349 23.110354171053171 3.323833602592948 #
coedge $-1 $544 $543 $536 $634 forward $533 $-1 #
edge $-1 $635 52.150678382315917 $638 55.69371135136344 $633 $678 forward 7 unknown #
vertex $-1 $548 $679 #
straight-curve $-1 52.44499876839086 45.793284779799066 5.947417806324296 0 1 0 I I #
edge $-1 $638 -29.735735495471175 $545 -15.682791050368195 $544 $680 forward 7 unknown #
vertex $-1 $637 $681 #
straight-curve $-1 52.44499876839086 -5.2080455056089363 43.256220240571608 0 -0.60181501223851219 0.79863551827123203 I I #
point $-1 52.44499876839086 22.906152873864226 5.947417806324296 #
point $-1 38.39205432328788 25.576019641428438 2.4043848372767727 #
straight-curve $-1 0 25.576019641428442 5.9474178063242951 -1 0 0 I I #
vertex $-1 $551 $682 #
point $-1 42.907181307603025 23.110354171053171 3.323833602592948 #
vertex $-1 $555 $683 #
point $-1 48.929871784075729 23.110354171053171 3.323833602592948 #
straight-curve $-1 -60.599993896298102 25.576019641428442 0 0 0 -1 I I #
point $-1 -60.599993896298102 -25.576019641428442 -5.9474178063242951 #
straight-curve $-1 -60.599993896298102 0 -5.9474178063242951 0 1 0 I I #
point $-1 -60.599993896298102 25.576019641428442 -5.9474178063242951 #
coedge $-1 $577 $576 $652 $684 reversed $300 $-1 #
coedge $-1 $582 $578 $651 $684 forward $435 $-1 #
vertex $-1 $579 $685 #
straight-curve $-1 0 25.576019641428442 5.9474178063242951 -1 0 0 I I #
point $-1 -55.779476269799389 25.576019641428442 5.9474178063242942 #
vertex $-1 $684 $686 #
straight-curve $-1 0 -25.576019641428442 5.9474178063242951 1 0 0 I I #
straight-curve $-1 -60.599993896298102 -25.576019641428442 0 0 0 -1 I I #
straight-curve $-1 -60.599993896298102 25.576019641428442 0 0 0 -1 I I #
straight-curve $-1 -34.839603856182265 25.576019641428445 58.098096188640213 0 0 -1 I I #
point $-1 -34.839603856182265 25.576019641428442 5.9474178063242951 #
straight-curve $-1 -20.933038039366878 25.576019641428445 2.4043848372767727 -1 0 0 I I #
point $-1 -34.839603856182265 25.576019641428438 2.4043848372767727 #
point $-1 -44.877421316970114 22.711036411917558 3.0229260964736917 #
point $-1 -38.854730840497403 22.711036411917558 3.0229260964736917 #
straight-curve $-1 -5.7447363146578887 25.576019641428445 58.098096188640213 0 0 -1 I I #
point $-1 -5.7447363146578887 25.576019641428442 5.9474178063242951 #
straight-curve $-1 -6.3856042686046912 25.576019641428445 2.4043848372767727 -1 0 0 I I #
point $-1 -5.7447363146578887 25.576019641428438 2.4043848372767727 #
point $-1 -15.782553775445734 22.711036411917558 3.0229260964736917 #
point $-1 -9.7598632989730305 22.711036411917558 3.0229260964736917 #
straight-curve $-1 23.350131226866484 25.576019641428445 58.098096188640213 0 0 -1 I I #
point $-1 23.350131226866484 25.576019641428442 5.9474178063242951 #
straight-curve $-1 8.1618295021574951 25.576019641428445 2.4043848372767727 -1 0 0 I I #
point $-1 23.350131226866484 25.576019641428438 2.4043848372767727 #
point $-1 13.312313766078645 22.711036411917558 3.0229260964736917 #
point $-1 19.335004242551349 22.711036411917558 3.0229260964736917 #
straight-curve $-1 52.44499876839086 25.576019641428445 58.098096188640213 0 0 -1 I I #
point $-1 52.44499876839086 25.576019641428442 5.9474178063242951 #
straight-curve $-1 22.709263272919685 25.576019641428445 2.4043848372767727 -1 0 0 I I #
point $-1 52.44499876839086 25.576019641428438 2.4043848372767727 #
point $-1 42.407181307603025 22.711036411917558 3.0229260964736917 #
point $-1 48.429871784075729 22.711036411917558 3.0229260964736917 #
edge $-1 $653 -25.576019641428442 $656 25.576019641428442 $651 $687 forward 7 unknown #
point $-1 -60.599993896298102 25.576019641428442 5.9474178063242951 #
point $-1 -60.599993896298102 -25.576019641428442 5.9474178063242951 #
straight-curve $-1 -60.599993896298102 0 5.9474178063242951 0 -1 0 I I #
End-of-ACIS-data 