500 0 4 0           
7 Unknown 11 ACIS 5.0 NT 24 Fri Mar 26 20:33:26 1999 
-1 9.9999999999999995e-007 1e-010 
body $-1 $4 $-1 $5 #
body $-1 $6 $-1 $7 #
body $-1 $8 $-1 $9 #
body $-1 $10 $-1 $11 #
lump $-1 $-1 $12 $0 #
transform $-1 1 0 0 0 1 0 0 0 1 61.166417432172608 37.503094864377694 14.287160340664094 1 rotate no_reflect no_shear #
lump $-1 $-1 $13 $1 #
transform $-1 1 0 0 0 1 0 0 0 1 61.166417432172608 37.503094864377694 14.287160340664094 1 rotate no_reflect no_shear #
lump $-1 $-1 $14 $2 #
transform $-1 1 0 0 0 1 0 0 0 1 61.166417432172608 37.503094864377694 14.287160340664094 1 rotate no_reflect no_shear #
lump $-1 $-1 $15 $3 #
transform $-1 1 0 0 0 1 0 0 0 1 61.166417432172608 37.503094864377694 14.287160340664094 1 rotate no_reflect no_shear #
shell $-1 $-1 $-1 $16 $-1 $4 #
shell $-1 $-1 $-1 $17 $-1 $6 #
shell $-1 $-1 $-1 $18 $-1 $8 #
shell $-1 $-1 $-1 $19 $-1 $10 #
face $-1 $20 $21 $12 $-1 $22 forward single #
face $-1 $23 $24 $13 $-1 $25 forward single #
face $-1 $26 $27 $14 $-1 $28 reversed single #
face $-1 $29 $30 $15 $-1 $31 reversed single #
face $-1 $32 $33 $12 $-1 $34 reversed single #
loop $-1 $-1 $35 $16 #
plane-surface $-1 0 0 14.287160340664094 0 0 1 1 0 0 forward_v I I I I #
face $-1 $36 $37 $13 $-1 $38 forward single #
loop $-1 $-1 $39 $17 #
plane-surface $-1 -167.1097610879109 -20.850225396925822 70.047127507527676 0 1 0 -0.86602541151947299 0 0.49999998660252726 forward_v I I I I #
face $-1 $40 $41 $14 $-1 $42 reversed single #
loop $-1 $43 $44 $18 #
cone-surface $-1 -58.560556789974576 -16.467689162705703 10.980516444666803 0.86602541151947299 0 -0.49999998660252726 0.74999997990379086 0 1.2990381172792094 1 I I 0 1 1.5 forward I I I I #
face $-1 $45 $46 $15 $-1 $47 reversed single #
loop $-1 $48 $49 $19 #
cone-surface $-1 -58.560556789974576 -9.8938848113755284 10.980516444666803 0.86602541151947299 0 -0.49999998660252726 0.74999997990379086 0 1.2990381172792094 1 I I 0 1 1.5 forward I I I I #
face $-1 $50 $51 $12 $-1 $52 reversed single #
loop $-1 $-1 $53 $20 #
plane-surface $-1 0 0 -14.287160340664094 0 0 1 1 0 0 forward_v I I I I #
coedge $-1 $54 $55 $56 $57 forward $21 $-1 #
face $-1 $58 $59 $13 $-1 $60 forward single #
loop $-1 $-1 $61 $23 #
plane-surface $-1 -61.166417432172608 -13.180786987040619 8.880711714305896 -0.86602541151947299 0 0.49999998660252726 0.49999998660252726 0 0.86602541151947299 forward_v I I I I #
coedge $-1 $62 $63 $64 $65 reversed $24 $-1 #
face $-1 $66 $67 $14 $-1 $68 forward single #
loop $-1 $69 $70 $26 #
cone-surface $-1 -56.86588431827208 -16.467689162705703 10.002096871896718 0.86602541151947299 0 -0.49999998660252726 0.37499998995189543 0 0.64951905863960469 1 I I -0.70710678118654757 0.70710678118654757 0.75 forward I I I I #
loop $-1 $-1 $71 $18 #
coedge $-1 $44 $44 $72 $73 reversed $27 $-1 #
face $-1 $74 $75 $15 $-1 $76 reversed single #
loop $-1 $77 $78 $29 #
cone-surface $-1 -56.86588431827208 -9.8938848113755284 10.002096871896718 0.86602541151947299 0 -0.49999998660252726 0.37499998995189543 0 0.64951905863960469 1 I I -0.70710678118654757 0.70710678118654757 0.75 forward I I I I #
loop $-1 $-1 $79 $19 #
coedge $-1 $49 $49 $80 $81 reversed $30 $-1 #
face $-1 $82 $83 $12 $-1 $84 reversed single #
loop $-1 $-1 $85 $32 #
plane-surface $-1 0 -37.503094864377694 0 0 1 0 0 0 1 forward_v I I I I #
coedge $-1 $86 $87 $88 $89 forward $33 $-1 #
coedge $-1 $90 $35 $91 $92 forward $21 $-1 #
coedge $-1 $35 $90 $93 $94 forward $21 $-1 #
coedge $-1 $95 $96 $35 $57 reversed $97 $-1 #
edge $-1 $98 -37.503094864377694 $99 37.503094864377694 $56 $100 forward 7 unknown #
face $-1 $101 $102 $13 $-1 $103 forward single #
loop $-1 $-1 $104 $36 #
plane-surface $-1 -167.1097610879109 -5.5113485771554149 70.047127507527676 0 -1 0 0.86602541151947299 0 -0.49999998660252726 forward_v I I I I #
coedge $-1 $105 $106 $107 $108 reversed $37 $-1 #
coedge $-1 $63 $39 $106 $109 forward $24 $-1 #
coedge $-1 $39 $62 $110 $111 reversed $24 $-1 #
coedge $-1 $112 $107 $39 $65 forward $102 $-1 #
edge $-1 $113 -25.509877570053121 $114 -22.388463111782841 $64 $115 forward 7 unknown #
face $-1 $116 $117 $14 $-1 $118 forward single #
loop $-1 $-1 $119 $40 #
plane-surface $-1 -167.1097610879109 -20.850225396925822 70.047127507527676 0 1 0 -0.86602541151947299 0 0.49999998660252726 forward_v I I I I #
loop $-1 $-1 $120 $26 #
coedge $-1 $70 $70 $71 $121 forward $41 $-1 #
coedge $-1 $71 $71 $70 $121 reversed $43 $-1 #
coedge $-1 $72 $72 $44 $73 forward $117 $-1 #
edge $-1 $122 0 $122 6.2831853071796004 $72 $123 forward 7 unknown #
face $-1 $124 $125 $15 $-1 $126 reversed single #
loop $-1 $127 $128 $45 #
cone-surface $-1 -58.560556789974576 -16.467689162705703 10.980516444666803 0.86602541151947299 0 -0.49999998660252726 0.74999997990379086 0 1.2990381172792094 1 I I 0 1 1.5 forward I I I I #
loop $-1 $-1 $129 $29 #
coedge $-1 $78 $78 $79 $130 forward $46 $-1 #
coedge $-1 $79 $79 $78 $130 reversed $48 $-1 #
coedge $-1 $80 $80 $49 $81 forward $131 $-1 #
edge $-1 $132 0 $132 6.2831853071796004 $80 $133 forward 7 unknown #
face $-1 $134 $135 $12 $-1 $136 reversed single #
loop $-1 $-1 $137 $50 #
plane-surface $-1 -61.166417432172608 0 0 1 0 0 0 0 -1 forward_v I I I I #
coedge $-1 $138 $93 $139 $140 forward $51 $-1 #
coedge $-1 $141 $53 $138 $142 forward $33 $-1 #
coedge $-1 $53 $141 $143 $144 forward $33 $-1 #
coedge $-1 $96 $95 $53 $89 reversed $97 $-1 #
edge $-1 $145 -37.503094864377694 $146 37.503094864377694 $88 $147 forward 7 unknown #
coedge $-1 $55 $54 $148 $149 forward $21 $-1 #
coedge $-1 $150 $151 $54 $92 reversed $135 $-1 #
edge $-1 $99 -61.166417432172608 $152 61.166417432172608 $91 $153 forward 7 unknown #
coedge $-1 $85 $154 $55 $94 reversed $51 $-1 #
edge $-1 $155 -61.166417432172608 $98 61.166417432172608 $93 $156 forward 7 unknown #
coedge $-1 $88 $56 $154 $157 forward $97 $-1 #
coedge $-1 $56 $88 $150 $158 reversed $97 $-1 #
loop $-1 $-1 $95 $134 #
vertex $-1 $57 $159 #
vertex $-1 $57 $160 #
straight-curve $-1 61.166417432172608 0 14.287160340664094 0 1 0 I I #
face $-1 $161 $162 $13 $-1 $163 reversed single #
loop $-1 $-1 $164 $58 #
plane-surface $-1 0 0 14.287160340664094 0 0 1 1 0 0 forward_v I I I I #
coedge $-1 $165 $166 $164 $167 reversed $59 $-1 #
coedge $-1 $168 $61 $166 $169 reversed $37 $-1 #
coedge $-1 $61 $168 $62 $109 reversed $37 $-1 #
coedge $-1 $64 $164 $61 $108 forward $102 $-1 #
edge $-1 $170 -1.0790449163648947 $113 14.259831903405512 $107 $171 forward 7 unknown #
edge $-1 $113 -6.2428290838168223 $172 0 $62 $173 forward 7 unknown #
coedge $-1 $174 $175 $63 $111 forward $176 $-1 #
edge $-1 $114 20.736403413099744 $172 26.142852039457942 $110 $177 forward 7 unknown #
coedge $-1 $178 $64 $175 $179 forward $102 $-1 #
vertex $-1 $108 $180 #
vertex $-1 $179 $181 #
straight-curve $-1 -83.554880543955449 -20.850225396925822 14.287160340664094 -1 0 0 I I #
face $-1 $182 $183 $14 $-1 $184 forward single #
loop $-1 $185 $72 $66 #
plane-surface $-1 -61.166417432172608 -13.180786987040619 8.880711714305896 -0.86602541151947299 0 0.49999998660252726 0.49999998660252726 0 0.86602541151947299 forward_v I I I I #
coedge $-1 $186 $187 $188 $189 reversed $67 $-1 #
coedge $-1 $120 $120 $-1 $190 forward $69 $-1 #
edge $-1 $191 0 $191 6.2831853071796004 $70 $192 forward 7 unknown #
vertex $-1 $73 $193 #
ellipse-curve $-1 -59.605710203037468 -16.467689162705703 11.583936027484993 0.86602541151947299 0 -0.49999998660252726 0.74999997990379086 0 1.2990381172792094 1 I I #
face $-1 $194 $195 $15 $-1 $196 forward single #
loop $-1 $197 $198 $74 #
cone-surface $-1 -56.86588431827208 -16.467689162705703 10.002096871896718 0.86602541151947299 0 -0.49999998660252726 0.37499998995189543 0 0.64951905863960469 1 I I -0.70710678118654757 0.70710678118654757 0.75 forward I I I I #
loop $-1 $-1 $199 $45 #
coedge $-1 $128 $128 $200 $201 reversed $75 $-1 #
coedge $-1 $129 $129 $-1 $202 forward $77 $-1 #
edge $-1 $203 0 $203 6.2831853071796004 $78 $204 forward 7 unknown #
loop $-1 $205 $80 $194 #
vertex $-1 $81 $206 #
ellipse-curve $-1 -59.605710203037468 -9.8938848113755284 11.583936027484993 0.86602541151947299 0 -0.49999998660252726 0.74999997990379086 0 1.2990381172792094 1 I I #
face $-1 $-1 $97 $12 $-1 $207 reversed single #
loop $-1 $-1 $150 $82 #
plane-surface $-1 0 37.503094864377694 0 0 -1 0 0 0 -1 forward_v I I I I #
coedge $-1 $208 $148 $151 $209 forward $83 $-1 #
coedge $-1 $154 $85 $86 $142 reversed $51 $-1 #
coedge $-1 $148 $208 $85 $140 reversed $83 $-1 #
edge $-1 $155 -14.287160340664094 $210 14.287160340664094 $139 $211 forward 7 unknown #
coedge $-1 $87 $86 $208 $212 forward $33 $-1 #
edge $-1 $146 -61.166417432172608 $210 61.166417432172608 $138 $213 forward 7 unknown #
coedge $-1 $151 $150 $87 $144 reversed $135 $-1 #
edge $-1 $214 -61.166417432172608 $145 61.166417432172608 $143 $215 forward 7 unknown #
vertex $-1 $89 $216 #
vertex $-1 $157 $217 #
straight-curve $-1 61.166417432172608 0 -14.287160340664094 0 -1 0 I I #
coedge $-1 $137 $139 $90 $149 reversed $83 $-1 #
edge $-1 $152 -37.503094864377694 $155 37.503094864377694 $148 $218 forward 7 unknown #
coedge $-1 $143 $91 $96 $158 forward $135 $-1 #
coedge $-1 $91 $143 $137 $209 reversed $135 $-1 #
vertex $-1 $92 $219 #
straight-curve $-1 0 37.503094864377694 14.287160340664094 -1 0 0 I I #
coedge $-1 $93 $138 $95 $157 reversed $51 $-1 #
vertex $-1 $149 $220 #
straight-curve $-1 0 -37.503094864377694 14.287160340664094 1 0 0 I I #
edge $-1 $98 -14.287160340664094 $146 14.287160340664094 $95 $221 forward 7 unknown #
edge $-1 $99 -14.287160340664094 $145 14.287160340664094 $96 $222 forward 7 unknown #
point $-1 61.166417432172608 -37.503094864377694 14.287160340664094 #
point $-1 61.166417432172608 37.503094864377694 14.287160340664094 #
face $-1 $223 $224 $13 $-1 $225 reversed single #
loop $-1 $-1 $226 $101 #
plane-surface $-1 0 0 -14.287160340664094 0 0 1 1 0 0 forward_v I I I I #
coedge $-1 $107 $227 $104 $167 forward $102 $-1 #
coedge $-1 $166 $104 $228 $229 reversed $59 $-1 #
coedge $-1 $104 $165 $105 $169 forward $59 $-1 #
edge $-1 $230 22.388463111782841 $170 25.509877570053121 $164 $231 forward 7 unknown #
coedge $-1 $106 $105 $174 $232 reversed $37 $-1 #
edge $-1 $233 0 $170 6.2428290838168223 $166 $234 forward 7 unknown #
vertex $-1 $108 $235 #
straight-curve $-1 -58.045002973902328 -6.5903934935203097 14.287160340664094 0 -1 0 I I #
vertex $-1 $232 $236 #
straight-curve $-1 -61.166417432172608 -20.850225396925822 8.880711714305896 -0.49999998660252726 0 -0.86602541151947299 I I #
coedge $-1 $228 $110 $168 $232 forward $176 $-1 #
coedge $-1 $110 $237 $112 $179 reversed $176 $-1 #
loop $-1 $-1 $228 $223 #
straight-curve $-1 -61.166417432172608 -20.850225396925822 35.023563753763838 0 0 -1 I I #
coedge $-1 $238 $112 $239 $240 forward $102 $-1 #
edge $-1 $114 20.850225396925822 $241 37.503094864377694 $175 $242 forward 7 unknown #
point $-1 -58.045002973902328 -20.850225396925822 14.287160340664094 #
point $-1 -61.166417432172608 -20.850225396925822 14.287160340664094 #
face $-1 $243 $244 $14 $-1 $245 forward single #
loop $-1 $-1 $246 $116 #
plane-surface $-1 -167.1097610879109 -5.5113485771554149 70.047127507527676 0 -1 0 0.86602541151947299 0 -0.49999998660252726 forward_v I I I I #
loop $-1 $-1 $247 $66 #
coedge $-1 $187 $119 $248 $249 forward $67 $-1 #
coedge $-1 $119 $186 $250 $251 reversed $67 $-1 #
coedge $-1 $252 $253 $119 $189 forward $244 $-1 #
edge $-1 $254 -25.509877570053121 $255 -22.388463111782841 $188 $256 forward 7 unknown #
edge $-1 $257 1 $257 0 $120 $-1 forward 7 unknown #
vertex $-1 $121 $258 #
ellipse-curve $-1 -57.515403376911685 -16.467689162705703 10.377096861848614 -0.86602541151947299 0 0.49999998660252726 0.74999997990379086 0 1.2990381172792094 1 I I #
point $-1 -58.855710223133677 -16.467689162705703 12.882974144764201 #
face $-1 $259 $131 $15 $-1 $260 forward single #
loop $-1 $-1 $261 $124 #
plane-surface $-1 -167.1097610879109 -20.850225396925822 70.047127507527676 0 1 0 -0.86602541151947299 0 0.49999998660252726 forward_v I I I I #
loop $-1 $-1 $262 $74 #
coedge $-1 $198 $198 $199 $263 forward $125 $-1 #
coedge $-1 $199 $199 $198 $263 reversed $127 $-1 #
coedge $-1 $200 $200 $128 $201 forward $205 $-1 #
edge $-1 $264 0 $264 6.2831853071796004 $200 $265 forward 7 unknown #
edge $-1 $266 1 $266 0 $129 $-1 forward 7 unknown #
vertex $-1 $130 $267 #
ellipse-curve $-1 -57.515403376911685 -9.8938848113755284 10.377096861848614 -0.86602541151947299 0 0.49999998660252726 0.74999997990379086 0 1.2990381172792094 1 I I #
loop $-1 $268 $200 $194 #
point $-1 -58.855710223133677 -9.8938848113755284 12.882974144764201 #
plane-surface $-1 61.166417432172608 0 0 -1 0 0 0 0 1 forward_v I I I I #
coedge $-1 $139 $137 $141 $212 reversed $83 $-1 #
edge $-1 $152 -14.287160340664094 $214 14.287160340664094 $151 $269 forward 7 unknown #
vertex $-1 $212 $270 #
straight-curve $-1 -61.166417432172608 -37.503094864377694 0 0 0 -1 I I #
edge $-1 $210 -37.503094864377694 $214 37.503094864377694 $208 $271 forward 7 unknown #
straight-curve $-1 0 -37.503094864377694 -14.287160340664094 -1 0 0 I I #
vertex $-1 $144 $272 #
straight-curve $-1 0 37.503094864377694 -14.287160340664094 1 0 0 I I #
point $-1 61.166417432172608 37.503094864377694 -14.287160340664094 #
point $-1 61.166417432172608 -37.503094864377694 -14.287160340664094 #
straight-curve $-1 -61.166417432172608 0 14.287160340664094 0 -1 0 I I #
point $-1 -61.166417432172608 37.503094864377694 14.287160340664094 #
point $-1 -61.166417432172608 -37.503094864377694 14.287160340664094 #
straight-curve $-1 61.166417432172608 -37.503094864377694 0 0 0 -1 I I #
straight-curve $-1 61.166417432172608 37.503094864377694 0 0 0 -1 I I #
face $-1 $273 $176 $13 $-1 $274 reversed single #
loop $-1 $-1 $275 $161 #
plane-surface $-1 0 -37.503094864377694 0 0 1 0 0 0 1 forward_v I I I I #
coedge $-1 $276 $277 $278 $279 forward $162 $-1 #
coedge $-1 $164 $280 $281 $282 forward $102 $-1 #
coedge $-1 $281 $174 $165 $229 forward $176 $-1 #
edge $-1 $233 -26.142852039457942 $230 -20.736403413099744 $228 $283 forward 7 unknown #
vertex $-1 $229 $284 #
straight-curve $-1 -83.554880543955449 -5.5113485771554149 14.287160340664094 1 0 0 I I #
edge $-1 $172 -14.259831903405512 $233 1.0790449163648947 $174 $285 forward 7 unknown #
vertex $-1 $232 $286 #
straight-curve $-1 -61.166417432172608 -5.5113485771554149 8.880711714305896 0.49999998660252726 0 0.86602541151947299 I I #
point $-1 -58.045002973902328 -5.5113485771554149 14.287160340664094 #
point $-1 -61.166417432172608 -20.850225396925822 8.880711714305896 #
coedge $-1 $175 $287 $275 $288 reversed $176 $-1 #
coedge $-1 $280 $178 $289 $290 forward $102 $-1 #
coedge $-1 $275 $291 $178 $240 reversed $224 $-1 #
edge $-1 $241 -61.166417432172608 $292 61.166417432172608 $239 $293 forward 7 unknown #
vertex $-1 $179 $294 #
straight-curve $-1 -61.166417432172608 0 14.287160340664094 0 -1 0 I I #
face $-1 $295 $296 $14 $-1 $297 reversed single #
loop $-1 $-1 $298 $182 #
plane-surface $-1 0 0 14.287160340664094 0 0 1 1 0 0 forward_v I I I I #
coedge $-1 $299 $300 $298 $301 reversed $183 $-1 #
coedge $-1 $302 $248 $253 $303 reversed $185 $-1 #
coedge $-1 $247 $304 $186 $249 reversed $185 $-1 #
edge $-1 $254 -6.2428290838168223 $305 0 $186 $306 forward 7 unknown #
coedge $-1 $307 $308 $187 $251 forward $309 $-1 #
edge $-1 $255 20.736403413099744 $305 26.142852039457942 $250 $310 forward 7 unknown #
coedge $-1 $311 $188 $308 $312 forward $244 $-1 #
coedge $-1 $188 $298 $247 $303 forward $244 $-1 #
vertex $-1 $303 $313 #
vertex $-1 $312 $314 #
straight-curve $-1 -83.554880543955449 -20.850225396925822 14.287160340664094 -1 0 0 I I #
vertex $-1 $190 $315 #
point $-1 -56.765403397007894 -16.467689162705703 11.676134979127823 #
face $-1 $316 $317 $15 $-1 $318 forward single #
plane-surface $-1 -61.166417432172608 -13.180786987040619 8.880711714305896 -0.86602541151947299 0 0.49999998660252726 0.49999998660252726 0 0.86602541151947299 forward_v I I I I #
coedge $-1 $319 $320 $321 $322 reversed $195 $-1 #
coedge $-1 $262 $262 $-1 $323 forward $197 $-1 #
edge $-1 $324 0 $324 6.2831853071796004 $198 $325 forward 7 unknown #
vertex $-1 $201 $326 #
ellipse-curve $-1 -59.605710203037468 -16.467689162705703 11.583936027484993 0.86602541151947299 0 -0.49999998660252726 0.74999997990379086 0 1.2990381172792094 1 I I #
vertex $-1 $202 $327 #
point $-1 -56.765403397007894 -9.8938848113755284 11.676134979127823 #
loop $-1 $-1 $328 $194 #
straight-curve $-1 -61.166417432172608 37.503094864377694 0 0 0 -1 I I #
point $-1 -61.166417432172608 -37.503094864377694 -14.287160340664094 #
straight-curve $-1 -61.166417432172608 0 -14.287160340664094 0 1 0 I I #
point $-1 -61.166417432172608 37.503094864377694 -14.287160340664094 #
face $-1 $329 $330 $13 $-1 $331 reversed single #
plane-surface $-1 -61.166417432172608 0 0 1 0 0 0 0 -1 forward_v I I I I #
coedge $-1 $332 $239 $237 $288 forward $224 $-1 #
coedge $-1 $333 $226 $332 $334 forward $162 $-1 #
coedge $-1 $226 $333 $335 $336 forward $162 $-1 #
coedge $-1 $337 $338 $226 $279 reversed $339 $-1 #
edge $-1 $340 -37.503094864377694 $341 37.503094864377694 $278 $342 forward 7 unknown #
coedge $-1 $227 $238 $343 $344 forward $102 $-1 #
coedge $-1 $345 $228 $227 $282 reversed $176 $-1 #
edge $-1 $346 -37.503094864377694 $230 5.5113485771554149 $281 $242 forward 7 unknown #
straight-curve $-1 -61.166417432172608 -5.5113485771554149 35.023563753763838 0 0 1 I I #
point $-1 -61.166417432172608 -5.5113485771554149 14.287160340664094 #
straight-curve $-1 -61.166417432172608 -6.5903934935203097 8.880711714305896 0 1 0 I I #
point $-1 -61.166417432172608 -5.5113485771554149 8.880711714305896 #
coedge $-1 $237 $345 $333 $347 reversed $176 $-1 #
edge $-1 $241 -14.287160340664094 $348 14.287160340664094 $237 $349 forward 7 unknown #
coedge $-1 $338 $337 $238 $290 reversed $339 $-1 #
edge $-1 $292 -37.503094864377694 $350 37.503094864377694 $289 $351 forward 7 unknown #
coedge $-1 $239 $332 $338 $352 reversed $224 $-1 #
vertex $-1 $290 $353 #
straight-curve $-1 0 -37.503094864377694 14.287160340664094 1 0 0 I I #
point $-1 -61.166417432172608 -37.503094864377694 14.287160340664094 #
face $-1 $354 $355 $14 $-1 $356 reversed single #
loop $-1 $-1 $357 $243 #
plane-surface $-1 0 0 -14.287160340664094 0 0 1 1 0 0 forward_v I I I I #
coedge $-1 $253 $358 $246 $301 forward $244 $-1 #
coedge $-1 $300 $246 $359 $360 reversed $183 $-1 #
coedge $-1 $246 $299 $302 $361 forward $183 $-1 #
edge $-1 $362 22.388463111782841 $363 25.509877570053121 $298 $364 forward 7 unknown #
coedge $-1 $304 $247 $300 $361 reversed $185 $-1 #
edge $-1 $363 -1.0790449163648947 $254 14.259831903405512 $253 $365 forward 7 unknown #
coedge $-1 $248 $302 $307 $366 reversed $185 $-1 #
vertex $-1 $366 $367 #
straight-curve $-1 -61.166417432172608 -20.850225396925822 8.880711714305896 -0.49999998660252726 0 -0.86602541151947299 I I #
coedge $-1 $359 $250 $304 $366 forward $309 $-1 #
coedge $-1 $250 $368 $252 $312 reversed $309 $-1 #
loop $-1 $-1 $359 $354 #
straight-curve $-1 -61.166417432172608 -20.850225396925822 35.023563753763838 0 0 -1 I I #
coedge $-1 $369 $252 $370 $371 forward $244 $-1 #
edge $-1 $255 20.850225396925822 $372 37.503094864377694 $308 $373 forward 7 unknown #
point $-1 -58.045002973902328 -20.850225396925822 14.287160340664094 #
point $-1 -61.166417432172608 -20.850225396925822 14.287160340664094 #
point $-1 -56.216365259632475 -16.467689162705703 9.6270968819448228 #
face $-1 $374 $375 $15 $-1 $376 forward single #
loop $-1 $-1 $377 $259 #
plane-surface $-1 -167.1097610879109 -5.5113485771554149 70.047127507527676 0 -1 0 0.86602541151947299 0 -0.49999998660252726 forward_v I I I I #
coedge $-1 $320 $261 $378 $379 forward $195 $-1 #
coedge $-1 $261 $319 $380 $381 reversed $195 $-1 #
coedge $-1 $382 $383 $261 $322 forward $375 $-1 #
edge $-1 $384 -25.509877570053121 $385 -22.388463111782841 $321 $386 forward 7 unknown #
edge $-1 $387 1 $387 0 $262 $-1 forward 7 unknown #
vertex $-1 $263 $388 #
ellipse-curve $-1 -57.515403376911685 -16.467689162705703 10.377096861848614 -0.86602541151947299 0 0.49999998660252726 0.74999997990379086 0 1.2990381172792094 1 I I #
point $-1 -58.855710223133677 -16.467689162705703 12.882974144764201 #
point $-1 -56.216365259632475 -9.8938848113755284 9.6270968819448228 #
coedge $-1 $389 $378 $383 $390 reversed $268 $-1 #
face $-1 $-1 $339 $13 $-1 $391 reversed single #
loop $-1 $-1 $392 $273 #
plane-surface $-1 0 37.503094864377694 0 0 -1 0 0 0 -1 forward_v I I I I #
coedge $-1 $291 $275 $276 $334 reversed $224 $-1 #
coedge $-1 $277 $276 $287 $347 forward $162 $-1 #
edge $-1 $341 -61.166417432172608 $348 61.166417432172608 $332 $393 forward 7 unknown #
coedge $-1 $394 $392 $277 $336 reversed $330 $-1 #
edge $-1 $395 -61.166417432172608 $340 61.166417432172608 $335 $396 forward 7 unknown #
coedge $-1 $289 $278 $392 $397 reversed $339 $-1 #
coedge $-1 $278 $289 $291 $352 forward $339 $-1 #
loop $-1 $-1 $338 $329 #
vertex $-1 $279 $398 #
vertex $-1 $352 $399 #
straight-curve $-1 61.166417432172608 0 -14.287160340664094 0 -1 0 I I #
coedge $-1 $392 $394 $280 $344 reversed $330 $-1 #
edge $-1 $350 -61.166417432172608 $346 61.166417432172608 $343 $400 forward 7 unknown #
coedge $-1 $287 $281 $394 $401 forward $176 $-1 #
vertex $-1 $344 $402 #
edge $-1 $348 -37.503094864377694 $395 37.503094864377694 $287 $403 forward 7 unknown #
vertex $-1 $347 $404 #
straight-curve $-1 -61.166417432172608 -37.503094864377694 0 0 0 -1 I I #
vertex $-1 $290 $405 #
straight-curve $-1 61.166417432172608 0 14.287160340664094 0 1 0 I I #
edge $-1 $292 -14.287160340664094 $341 14.287160340664094 $338 $406 forward 7 unknown #
point $-1 61.166417432172608 -37.503094864377694 14.287160340664094 #
face $-1 $407 $309 $14 $-1 $408 reversed single #
loop $-1 $-1 $409 $295 #
plane-surface $-1 0 -37.503094864377694 0 0 1 0 0 0 1 forward_v I I I I #
coedge $-1 $410 $411 $412 $413 forward $296 $-1 #
coedge $-1 $298 $414 $415 $416 forward $244 $-1 #
coedge $-1 $415 $307 $299 $360 forward $309 $-1 #
edge $-1 $417 -26.142852039457942 $362 -20.736403413099744 $359 $418 forward 7 unknown #
edge $-1 $417 0 $363 6.2428290838168223 $300 $419 forward 7 unknown #
vertex $-1 $360 $420 #
vertex $-1 $303 $421 #
straight-curve $-1 -83.554880543955449 -5.5113485771554149 14.287160340664094 1 0 0 I I #
straight-curve $-1 -58.045002973902328 -6.5903934935203097 14.287160340664094 0 -1 0 I I #
edge $-1 $305 -14.259831903405512 $417 1.0790449163648947 $307 $422 forward 7 unknown #
point $-1 -61.166417432172608 -20.850225396925822 8.880711714305896 #
coedge $-1 $308 $423 $409 $424 reversed $309 $-1 #
coedge $-1 $414 $311 $425 $426 forward $244 $-1 #
coedge $-1 $409 $427 $311 $371 reversed $355 $-1 #
edge $-1 $372 -61.166417432172608 $428 61.166417432172608 $370 $429 forward 7 unknown #
vertex $-1 $312 $430 #
straight-curve $-1 -61.166417432172608 0 14.287160340664094 0 -1 0 I I #
face $-1 $431 $432 $15 $-1 $433 reversed single #
loop $-1 $-1 $434 $316 #
plane-surface $-1 0 0 14.287160340664094 0 0 1 1 0 0 forward_v I I I I #
coedge $-1 $435 $436 $434 $437 reversed $317 $-1 #
coedge $-1 $328 $438 $319 $379 reversed $268 $-1 #
edge $-1 $384 -6.2428290838168223 $439 0 $319 $440 forward 7 unknown #
coedge $-1 $441 $442 $320 $381 forward $443 $-1 #
edge $-1 $385 20.736403413099744 $439 26.142852039457942 $380 $444 forward 7 unknown #
coedge $-1 $445 $321 $442 $446 forward $375 $-1 #
coedge $-1 $321 $434 $328 $390 forward $375 $-1 #
vertex $-1 $390 $447 #
vertex $-1 $446 $448 #
straight-curve $-1 -83.554880543955449 -20.850225396925822 14.287160340664094 -1 0 0 I I #
vertex $-1 $323 $449 #
point $-1 -56.765403397007894 -16.467689162705703 11.676134979127823 #
coedge $-1 $438 $328 $436 $450 reversed $268 $-1 #
edge $-1 $451 -1.0790449163648947 $384 14.259831903405512 $383 $452 forward 7 unknown #
plane-surface $-1 61.166417432172608 0 0 -1 0 0 0 0 1 forward_v I I I I #
coedge $-1 $335 $343 $337 $397 forward $330 $-1 #
straight-curve $-1 0 -37.503094864377694 -14.287160340664094 -1 0 0 I I #
coedge $-1 $343 $335 $345 $401 reversed $330 $-1 #
vertex $-1 $336 $453 #
straight-curve $-1 0 37.503094864377694 -14.287160340664094 1 0 0 I I #
edge $-1 $350 -14.287160340664094 $340 14.287160340664094 $337 $454 forward 7 unknown #
point $-1 61.166417432172608 37.503094864377694 -14.287160340664094 #
point $-1 61.166417432172608 -37.503094864377694 -14.287160340664094 #
straight-curve $-1 0 37.503094864377694 14.287160340664094 -1 0 0 I I #
edge $-1 $346 -14.287160340664094 $395 14.287160340664094 $394 $455 forward 7 unknown #
point $-1 -61.166417432172608 37.503094864377694 14.287160340664094 #
straight-curve $-1 -61.166417432172608 0 -14.287160340664094 0 1 0 I I #
point $-1 -61.166417432172608 -37.503094864377694 -14.287160340664094 #
point $-1 61.166417432172608 37.503094864377694 14.287160340664094 #
straight-curve $-1 61.166417432172608 -37.503094864377694 0 0 0 -1 I I #
face $-1 $456 $457 $14 $-1 $458 reversed single #
plane-surface $-1 -61.166417432172608 0 0 1 0 0 0 0 -1 forward_v I I I I #
coedge $-1 $459 $370 $368 $424 forward $355 $-1 #
coedge $-1 $460 $357 $459 $461 forward $296 $-1 #
coedge $-1 $357 $460 $462 $463 forward $296 $-1 #
coedge $-1 $464 $465 $357 $413 reversed $466 $-1 #
edge $-1 $467 -37.503094864377694 $468 37.503094864377694 $412 $469 forward 7 unknown #
coedge $-1 $358 $369 $470 $471 forward $244 $-1 #
coedge $-1 $472 $359 $358 $416 reversed $309 $-1 #
edge $-1 $473 -37.503094864377694 $362 5.5113485771554149 $415 $373 forward 7 unknown #
vertex $-1 $366 $474 #
straight-curve $-1 -61.166417432172608 -5.5113485771554149 35.023563753763838 0 0 1 I I #
straight-curve $-1 -61.166417432172608 -5.5113485771554149 8.880711714305896 0.49999998660252726 0 0.86602541151947299 I I #
point $-1 -61.166417432172608 -5.5113485771554149 14.287160340664094 #
point $-1 -58.045002973902328 -5.5113485771554149 14.287160340664094 #
straight-curve $-1 -61.166417432172608 -6.5903934935203097 8.880711714305896 0 1 0 I I #
coedge $-1 $368 $472 $460 $475 reversed $309 $-1 #
edge $-1 $372 -14.287160340664094 $476 14.287160340664094 $368 $477 forward 7 unknown #
coedge $-1 $465 $464 $369 $426 reversed $466 $-1 #
edge $-1 $428 -37.503094864377694 $478 37.503094864377694 $425 $479 forward 7 unknown #
coedge $-1 $370 $459 $465 $480 reversed $355 $-1 #
vertex $-1 $426 $481 #
straight-curve $-1 0 -37.503094864377694 14.287160340664094 1 0 0 I I #
point $-1 -61.166417432172608 -37.503094864377694 14.287160340664094 #
face $-1 $482 $483 $15 $-1 $484 reversed single #
loop $-1 $-1 $485 $374 #
plane-surface $-1 0 0 -14.287160340664094 0 0 1 1 0 0 forward_v I I I I #
coedge $-1 $383 $486 $377 $437 forward $375 $-1 #
coedge $-1 $436 $377 $487 $488 reversed $317 $-1 #
coedge $-1 $377 $435 $389 $450 forward $317 $-1 #
edge $-1 $489 22.388463111782841 $451 25.509877570053121 $434 $490 forward 7 unknown #
coedge $-1 $378 $389 $441 $491 reversed $268 $-1 #
vertex $-1 $491 $492 #
straight-curve $-1 -61.166417432172608 -20.850225396925822 8.880711714305896 -0.49999998660252726 0 -0.86602541151947299 I I #
coedge $-1 $487 $380 $438 $491 forward $443 $-1 #
coedge $-1 $380 $493 $382 $446 reversed $443 $-1 #
loop $-1 $-1 $487 $482 #
straight-curve $-1 -61.166417432172608 -20.850225396925822 35.023563753763838 0 0 -1 I I #
coedge $-1 $494 $382 $495 $496 forward $375 $-1 #
edge $-1 $385 20.850225396925822 $497 37.503094864377694 $442 $498 forward 7 unknown #
point $-1 -58.045002973902328 -20.850225396925822 14.287160340664094 #
point $-1 -61.166417432172608 -20.850225396925822 14.287160340664094 #
point $-1 -56.216365259632475 -16.467689162705703 9.6270968819448228 #
edge $-1 $499 0 $451 6.2428290838168223 $436 $500 forward 7 unknown #
vertex $-1 $390 $501 #
straight-curve $-1 -58.045002973902328 -6.5903934935203097 14.287160340664094 0 -1 0 I I #
point $-1 -61.166417432172608 37.503094864377694 -14.287160340664094 #
straight-curve $-1 61.166417432172608 37.503094864377694 0 0 0 -1 I I #
straight-curve $-1 -61.166417432172608 37.503094864377694 0 0 0 -1 I I #
face $-1 $-1 $466 $14 $-1 $502 reversed single #
loop $-1 $-1 $503 $407 #
plane-surface $-1 0 37.503094864377694 0 0 -1 0 0 0 -1 forward_v I I I I #
coedge $-1 $427 $409 $410 $461 reversed $355 $-1 #
coedge $-1 $411 $410 $423 $475 forward $296 $-1 #
edge $-1 $468 -61.166417432172608 $476 61.166417432172608 $459 $504 forward 7 unknown #
coedge $-1 $505 $503 $411 $463 reversed $457 $-1 #
edge $-1 $506 -61.166417432172608 $467 61.166417432172608 $462 $507 forward 7 unknown #
coedge $-1 $425 $412 $503 $508 reversed $466 $-1 #
coedge $-1 $412 $425 $427 $480 forward $466 $-1 #
loop $-1 $-1 $465 $456 #
vertex $-1 $413 $509 #
vertex $-1 $480 $510 #
straight-curve $-1 61.166417432172608 0 -14.287160340664094 0 -1 0 I I #
coedge $-1 $503 $505 $414 $471 reversed $457 $-1 #
edge $-1 $478 -61.166417432172608 $473 61.166417432172608 $470 $511 forward 7 unknown #
coedge $-1 $423 $415 $505 $512 forward $309 $-1 #
vertex $-1 $471 $513 #
point $-1 -61.166417432172608 -5.5113485771554149 8.880711714305896 #
edge $-1 $476 -37.503094864377694 $506 37.503094864377694 $423 $514 forward 7 unknown #
vertex $-1 $475 $515 #
straight-curve $-1 -61.166417432172608 -37.503094864377694 0 0 0 -1 I I #
vertex $-1 $426 $516 #
straight-curve $-1 61.166417432172608 0 14.287160340664094 0 1 0 I I #
edge $-1 $428 -14.287160340664094 $468 14.287160340664094 $465 $517 forward 7 unknown #
point $-1 61.166417432172608 -37.503094864377694 14.287160340664094 #
face $-1 $518 $443 $15 $-1 $519 reversed single #
loop $-1 $-1 $520 $431 #
plane-surface $-1 0 -37.503094864377694 0 0 1 0 0 0 1 forward_v I I I I #
coedge $-1 $521 $522 $523 $524 forward $432 $-1 #
coedge $-1 $434 $525 $526 $527 forward $375 $-1 #
coedge $-1 $526 $441 $435 $488 forward $443 $-1 #
edge $-1 $499 -26.142852039457942 $489 -20.736403413099744 $487 $528 forward 7 unknown #
vertex $-1 $488 $529 #
straight-curve $-1 -83.554880543955449 -5.5113485771554149 14.287160340664094 1 0 0 I I #
edge $-1 $439 -14.259831903405512 $499 1.0790449163648947 $441 $530 forward 7 unknown #
point $-1 -61.166417432172608 -20.850225396925822 8.880711714305896 #
coedge $-1 $442 $531 $520 $532 reversed $443 $-1 #
coedge $-1 $525 $445 $533 $534 forward $375 $-1 #
coedge $-1 $520 $535 $445 $496 reversed $483 $-1 #
edge $-1 $497 -61.166417432172608 $536 61.166417432172608 $495 $537 forward 7 unknown #
vertex $-1 $446 $538 #
straight-curve $-1 -61.166417432172608 0 14.287160340664094 0 -1 0 I I #
vertex $-1 $491 $539 #
straight-curve $-1 -61.166417432172608 -5.5113485771554149 8.880711714305896 0.49999998660252726 0 0.86602541151947299 I I #
point $-1 -58.045002973902328 -5.5113485771554149 14.287160340664094 #
plane-surface $-1 61.166417432172608 0 0 -1 0 0 0 0 1 forward_v I I I I #
coedge $-1 $462 $470 $464 $508 forward $457 $-1 #
straight-curve $-1 0 -37.503094864377694 -14.287160340664094 -1 0 0 I I #
coedge $-1 $470 $462 $472 $512 reversed $457 $-1 #
vertex $-1 $463 $540 #
straight-curve $-1 0 37.503094864377694 -14.287160340664094 1 0 0 I I #
edge $-1 $478 -14.287160340664094 $467 14.287160340664094 $464 $541 forward 7 unknown #
point $-1 61.166417432172608 37.503094864377694 -14.287160340664094 #
point $-1 61.166417432172608 -37.503094864377694 -14.287160340664094 #
straight-curve $-1 0 37.503094864377694 14.287160340664094 -1 0 0 I I #
edge $-1 $473 -14.287160340664094 $506 14.287160340664094 $505 $542 forward 7 unknown #
point $-1 -61.166417432172608 37.503094864377694 14.287160340664094 #
straight-curve $-1 -61.166417432172608 0 -14.287160340664094 0 1 0 I I #
point $-1 -61.166417432172608 -37.503094864377694 -14.287160340664094 #
point $-1 61.166417432172608 37.503094864377694 14.287160340664094 #
straight-curve $-1 61.166417432172608 -37.503094864377694 0 0 0 -1 I I #
face $-1 $543 $544 $15 $-1 $545 reversed single #
plane-surface $-1 -61.166417432172608 0 0 1 0 0 0 0 -1 forward_v I I I I #
coedge $-1 $546 $495 $493 $532 forward $483 $-1 #
coedge $-1 $547 $485 $546 $548 forward $432 $-1 #
coedge $-1 $485 $547 $549 $550 forward $432 $-1 #
coedge $-1 $551 $552 $485 $524 reversed $553 $-1 #
edge $-1 $554 -37.503094864377694 $555 37.503094864377694 $523 $556 forward 7 unknown #
coedge $-1 $486 $494 $557 $558 forward $375 $-1 #
coedge $-1 $559 $487 $486 $527 reversed $443 $-1 #
edge $-1 $560 -37.503094864377694 $489 5.5113485771554149 $526 $498 forward 7 unknown #
straight-curve $-1 -61.166417432172608 -5.5113485771554149 35.023563753763838 0 0 1 I I #
point $-1 -61.166417432172608 -5.5113485771554149 14.287160340664094 #
straight-curve $-1 -61.166417432172608 -6.5903934935203097 8.880711714305896 0 1 0 I I #
coedge $-1 $493 $559 $547 $561 reversed $443 $-1 #
edge $-1 $497 -14.287160340664094 $562 14.287160340664094 $493 $563 forward 7 unknown #
coedge $-1 $552 $551 $494 $534 reversed $553 $-1 #
edge $-1 $536 -37.503094864377694 $564 37.503094864377694 $533 $565 forward 7 unknown #
coedge $-1 $495 $546 $552 $566 reversed $483 $-1 #
vertex $-1 $534 $567 #
straight-curve $-1 0 -37.503094864377694 14.287160340664094 1 0 0 I I #
point $-1 -61.166417432172608 -37.503094864377694 14.287160340664094 #
point $-1 -61.166417432172608 -5.5113485771554149 8.880711714305896 #
point $-1 -61.166417432172608 37.503094864377694 -14.287160340664094 #
straight-curve $-1 61.166417432172608 37.503094864377694 0 0 0 -1 I I #
straight-curve $-1 -61.166417432172608 37.503094864377694 0 0 0 -1 I I #
face $-1 $-1 $553 $15 $-1 $568 reversed single #
loop $-1 $-1 $569 $518 #
plane-surface $-1 0 37.503094864377694 0 0 -1 0 0 0 -1 forward_v I I I I #
coedge $-1 $535 $520 $521 $548 reversed $483 $-1 #
coedge $-1 $522 $521 $531 $561 forward $432 $-1 #
edge $-1 $555 -61.166417432172608 $562 61.166417432172608 $546 $570 forward 7 unknown #
coedge $-1 $571 $569 $522 $550 reversed $544 $-1 #
edge $-1 $572 -61.166417432172608 $554 61.166417432172608 $549 $573 forward 7 unknown #
coedge $-1 $533 $523 $569 $574 reversed $553 $-1 #
coedge $-1 $523 $533 $535 $566 forward $553 $-1 #
loop $-1 $-1 $552 $543 #
vertex $-1 $524 $575 #
vertex $-1 $566 $576 #
straight-curve $-1 61.166417432172608 0 -14.287160340664094 0 -1 0 I I #
coedge $-1 $569 $571 $525 $558 reversed $544 $-1 #
edge $-1 $564 -61.166417432172608 $560 61.166417432172608 $557 $577 forward 7 unknown #
coedge $-1 $531 $526 $571 $578 forward $443 $-1 #
vertex $-1 $558 $579 #
edge $-1 $562 -37.503094864377694 $572 37.503094864377694 $531 $580 forward 7 unknown #
vertex $-1 $561 $581 #
straight-curve $-1 -61.166417432172608 -37.503094864377694 0 0 0 -1 I I #
vertex $-1 $534 $582 #
straight-curve $-1 61.166417432172608 0 14.287160340664094 0 1 0 I I #
edge $-1 $536 -14.287160340664094 $555 14.287160340664094 $552 $583 forward 7 unknown #
point $-1 61.166417432172608 -37.503094864377694 14.287160340664094 #
plane-surface $-1 61.166417432172608 0 0 -1 0 0 0 0 1 forward_v I I I I #
coedge $-1 $549 $557 $551 $574 forward $544 $-1 #
straight-curve $-1 0 -37.503094864377694 -14.287160340664094 -1 0 0 I I #
coedge $-1 $557 $549 $559 $578 reversed $544 $-1 #
vertex $-1 $550 $584 #
straight-curve $-1 0 37.503094864377694 -14.287160340664094 1 0 0 I I #
edge $-1 $564 -14.287160340664094 $554 14.287160340664094 $551 $585 forward 7 unknown #
point $-1 61.166417432172608 37.503094864377694 -14.287160340664094 #
point $-1 61.166417432172608 -37.503094864377694 -14.287160340664094 #
straight-curve $-1 0 37.503094864377694 14.287160340664094 -1 0 0 I I #
edge $-1 $560 -14.287160340664094 $572 14.287160340664094 $571 $586 forward 7 unknown #
point $-1 -61.166417432172608 37.503094864377694 14.287160340664094 #
straight-curve $-1 -61.166417432172608 0 -14.287160340664094 0 1 0 I I #
point $-1 -61.166417432172608 -37.503094864377694 -14.287160340664094 #
point $-1 61.166417432172608 37.503094864377694 14.287160340664094 #
straight-curve $-1 61.166417432172608 -37.503094864377694 0 0 0 -1 I I #
point $-1 -61.166417432172608 37.503094864377694 -14.287160340664094 #
straight-curve $-1 61.166417432172608 37.503094864377694 0 0 0 -1 I I #
straight-curve $-1 -61.166417432172608 37.503094864377694 0 0 0 -1 I I #
End-of-ACIS-data 