500 0 6 0           
7 Unknown 11 ACIS 5.0 NT 24 Thu Mar 25 18:01:36 1999 
-1 9.9999999999999995e-007 1e-010 
body $-1 $6 $-1 $7 #
body $-1 $8 $-1 $9 #
body $-1 $10 $-1 $11 #
body $-1 $12 $-1 $13 #
body $-1 $14 $-1 $15 #
body $-1 $16 $-1 $17 #
lump $-1 $-1 $18 $0 #
transform $-1 1 0 0 0 1 0 0 0 1 51.399273659474474 26.384657210214318 11.460299500850711 1 rotate no_reflect no_shear #
lump $-1 $-1 $19 $1 #
transform $-1 1 0 0 0 1 0 0 0 1 51.399273659474474 26.384657210214318 11.460299500850711 1 rotate no_reflect no_shear #
lump $-1 $-1 $20 $2 #
transform $-1 1 0 0 0 1 0 0 0 1 51.399273659474474 26.384657210214318 11.460299500850711 1 rotate no_reflect no_shear #
lump $-1 $-1 $21 $3 #
transform $-1 1 0 0 0 1 0 0 0 1 51.399273659474474 26.384657210214318 11.460299500850711 1 rotate no_reflect no_shear #
lump $-1 $-1 $22 $4 #
transform $-1 1 0 0 0 1 0 0 0 1 51.399273659474474 26.384657210214318 11.460299500850711 1 rotate no_reflect no_shear #
lump $-1 $-1 $23 $5 #
transform $-1 1 0 0 0 1 0 0 0 1 51.399273659474474 26.384657210214318 11.460299500850711 1 rotate no_reflect no_shear #
shell $-1 $-1 $-1 $24 $-1 $6 #
shell $-1 $-1 $-1 $25 $-1 $8 #
shell $-1 $-1 $-1 $26 $-1 $10 #
shell $-1 $-1 $-1 $27 $-1 $12 #
shell $-1 $-1 $-1 $28 $-1 $14 #
shell $-1 $-1 $-1 $29 $-1 $16 #
face $-1 $30 $31 $18 $-1 $32 forward single #
face $-1 $33 $34 $19 $-1 $35 forward single #
face $-1 $36 $37 $20 $-1 $38 reversed single #
face $-1 $39 $40 $21 $-1 $41 forward single #
face $-1 $42 $43 $22 $-1 $44 reversed single #
face $-1 $45 $46 $23 $-1 $47 forward single #
face $-1 $48 $49 $18 $-1 $50 reversed single #
loop $-1 $-1 $51 $24 #
plane-surface $-1 0 0 11.460299500850711 0 0 1 1 0 0 forward_v I I I I #
face $-1 $52 $53 $19 $-1 $54 reversed single #
loop $-1 $-1 $55 $25 #
plane-surface $-1 0 -22.573442224411373 -4.6981387107464041 0 0 1 1 0 0 forward_v I I I I #
face $-1 $56 $57 $20 $-1 $58 reversed single #
loop $-1 $-1 $59 $26 #
plane-surface $-1 -138.57738681559528 -11.908865052454001 60.726880673803151 0 1 0 -0.84804810408105047 0 0.52991925155115449 forward_v I I I I #
face $-1 $60 $61 $21 $-1 $62 forward single #
loop $-1 $63 $64 $27 #
cone-surface $-1 -48.60636929934153 -8.8458961548122907 8.1277553537896736 0.84804810408105047 0 -0.52991925155115449 0.52991925155115449 0 0.84804810408105047 1 I I 0 1 1 forward I I I I #
face $-1 $65 $66 $22 $-1 $67 reversed single #
loop $-1 $-1 $68 $28 #
plane-surface $-1 36.203021218883947 7.6139650014039209 144.8460576885835 0 -1 0 -0.62932039886446345 0 -0.77714595512881146 forward_v I I I I #
face $-1 $69 $70 $23 $-1 $71 forward single #
loop $-1 $72 $73 $29 #
cone-surface $-1 43.221413456523237 1.2298759996245039 4.300517331201875 -0.62932039886446345 0 -0.77714595512881146 1.5542919102576229 0 -1.2586407977289269 1 I I 0 1 2 forward I I I I #
face $-1 $74 $75 $18 $-1 $76 reversed single #
loop $-1 $-1 $77 $30 #
plane-surface $-1 0 0 -11.460299500850711 0 0 1 1 0 0 forward_v I I I I #
coedge $-1 $78 $79 $80 $81 forward $31 $-1 #
face $-1 $82 $83 $19 $-1 $84 reversed single #
loop $-1 $-1 $85 $33 #
plane-surface $-1 0 -18.762227238608428 -8.0792191057985576 0 -1 0 0 0 -1 forward_v I I I I #
coedge $-1 $86 $87 $88 $89 reversed $34 $-1 #
face $-1 $90 $91 $20 $-1 $92 reversed single #
loop $-1 $-1 $93 $36 #
plane-surface $-1 -51.39927365947446 -8.8458961548122907 6.2519514179997842 -0.84804810408105047 0 0.52991925155115449 0.52991925155115449 0 0.84804810408105047 forward_v I I I I #
coedge $-1 $94 $95 $96 $97 reversed $37 $-1 #
face $-1 $-1 $98 $21 $-1 $99 forward single #
loop $-1 $100 $101 $39 #
cone-surface $-1 -47.016709378542728 -8.8458961548122907 7.1344256223785205 0.84804810408105047 0 -0.52991925155115449 0.26495962577557725 0 0.42402405204052523 1 I I -0.70710678118654746 0.70710678118654746 0.5 forward I I I I #
loop $-1 $-1 $102 $27 #
coedge $-1 $64 $64 $103 $104 reversed $40 $-1 #
face $-1 $105 $106 $22 $-1 $107 reversed single #
loop $-1 $-1 $108 $42 #
plane-surface $-1 -28.490201582564424 1.2298759996245003 64.956582446544601 0.62932039886446345 0 0.77714595512881146 0.77714595512881146 0 -0.62932039886446345 forward_v I I I I #
coedge $-1 $109 $110 $111 $112 reversed $43 $-1 #
face $-1 $-1 $113 $23 $-1 $114 forward single #
loop $-1 $115 $116 $45 #
cone-surface $-1 41.327767307445214 1.2298759996245039 1.9620591343014748 -0.62932039886446345 0 -0.77714595512881146 0.77714595512881146 0 -0.62932039886446345 1 I I -0.70710678118654746 0.70710678118654746 1 forward I I I I #
loop $-1 $-1 $117 $29 #
coedge $-1 $73 $73 $118 $119 reversed $46 $-1 #
face $-1 $120 $121 $18 $-1 $122 reversed single #
loop $-1 $-1 $123 $48 #
plane-surface $-1 0 -26.384657210214318 0 0 1 0 0 0 1 forward_v I I I I #
coedge $-1 $124 $125 $126 $127 forward $49 $-1 #
coedge $-1 $128 $51 $129 $130 forward $31 $-1 #
coedge $-1 $51 $128 $131 $132 forward $31 $-1 #
coedge $-1 $133 $134 $51 $81 reversed $135 $-1 #
edge $-1 $136 -26.384657210214318 $137 26.384657210214318 $80 $138 forward 7 unknown #
face $-1 $139 $140 $19 $-1 $141 reversed single #
loop $-1 $-1 $142 $52 #
plane-surface $-1 0 0 -11.460299500850711 0 0 1 1 0 0 forward_v I I I I #
coedge $-1 $143 $144 $145 $146 reversed $53 $-1 #
coedge $-1 $147 $55 $144 $148 forward $34 $-1 #
coedge $-1 $55 $147 $149 $150 reversed $34 $-1 #
coedge $-1 $151 $145 $55 $89 forward $140 $-1 #
edge $-1 $152 7.4755061264027418 $153 15.097936098008631 $88 $154 forward 7 unknown #
face $-1 $155 $156 $20 $-1 $157 forward single #
loop $-1 $-1 $158 $56 #
plane-surface $-1 -138.57738681559528 -5.7829272571705808 60.726880673803151 0 -1 0 0.84804810408105047 0 -0.52991925155115449 forward_v I I I I #
coedge $-1 $159 $160 $161 $162 reversed $57 $-1 #
coedge $-1 $95 $59 $163 $164 reversed $37 $-1 #
coedge $-1 $59 $94 $159 $165 reversed $37 $-1 #
coedge $-1 $161 $166 $59 $97 forward $156 $-1 #
edge $-1 $167 17.889419748323164 $168 21.143956731072535 $96 $169 forward 7 unknown #
loop $-1 $-1 $103 $60 #
plane-surface $-1 -51.39927365947446 -8.8458961548122907 6.2519514179997842 -0.84804810408105047 0 0.52991925155115449 0.52991925155115449 0 0.84804810408105047 forward_v I I I I #
loop $-1 $-1 $170 $39 #
coedge $-1 $101 $101 $102 $171 reversed $61 $-1 #
coedge $-1 $102 $102 $101 $171 forward $63 $-1 #
coedge $-1 $103 $103 $64 $104 forward $98 $-1 #
edge $-1 $172 0 $172 6.2831853071796004 $103 $173 forward 7 unknown #
face $-1 $174 $175 $22 $-1 $176 reversed single #
loop $-1 $-1 $177 $65 #
plane-surface $-1 36.203021218883947 -5.1542130021549202 144.8460576885835 0 1 0 0.62932039886446345 0 0.77714595512881146 forward_v I I I I #
coedge $-1 $178 $179 $180 $181 reversed $66 $-1 #
coedge $-1 $110 $68 $182 $183 reversed $43 $-1 #
coedge $-1 $68 $109 $178 $184 reversed $43 $-1 #
coedge $-1 $180 $185 $68 $112 forward $186 $-1 #
edge $-1 $187 -33.297763050032501 $188 -19.470694144557143 $111 $189 forward 7 unknown #
loop $-1 $-1 $118 $69 #
plane-surface $-1 -28.490201582564424 1.2298759996245003 64.956582446544601 0.62932039886446345 0 0.77714595512881146 0.77714595512881146 0 -0.62932039886446345 forward_v I I I I #
loop $-1 $-1 $190 $45 #
coedge $-1 $116 $116 $117 $191 reversed $70 $-1 #
coedge $-1 $117 $117 $116 $191 forward $72 $-1 #
coedge $-1 $118 $118 $73 $119 forward $113 $-1 #
edge $-1 $192 0 $192 6.2831853071796004 $118 $193 forward 7 unknown #
face $-1 $194 $195 $18 $-1 $196 reversed single #
loop $-1 $-1 $197 $74 #
plane-surface $-1 -51.399273659474474 0 0 1 0 0 0 0 -1 forward_v I I I I #
coedge $-1 $198 $131 $199 $200 forward $75 $-1 #
coedge $-1 $201 $77 $198 $202 forward $49 $-1 #
coedge $-1 $77 $201 $203 $204 forward $49 $-1 #
coedge $-1 $134 $133 $77 $127 reversed $135 $-1 #
edge $-1 $205 -26.384657210214318 $206 26.384657210214318 $126 $207 forward 7 unknown #
coedge $-1 $79 $78 $208 $209 forward $31 $-1 #
coedge $-1 $210 $211 $78 $130 reversed $195 $-1 #
edge $-1 $137 -51.399273659474474 $212 51.399273659474474 $129 $213 forward 7 unknown #
coedge $-1 $123 $214 $79 $132 reversed $75 $-1 #
edge $-1 $215 -51.399273659474474 $136 51.399273659474474 $131 $216 forward 7 unknown #
coedge $-1 $126 $80 $214 $217 forward $135 $-1 #
coedge $-1 $80 $126 $210 $218 reversed $135 $-1 #
loop $-1 $-1 $133 $194 #
vertex $-1 $81 $219 #
vertex $-1 $81 $220 #
straight-curve $-1 51.399273659474474 0 11.460299500850711 0 1 0 I I #
face $-1 $221 $222 $19 $-1 $223 reversed single #
loop $-1 $-1 $145 $82 #
plane-surface $-1 51.399273659474474 0 0 -1 0 0 0 0 1 forward_v I I I I #
coedge $-1 $224 $225 $143 $226 forward $83 $-1 #
coedge $-1 $227 $85 $142 $226 reversed $53 $-1 #
coedge $-1 $85 $227 $86 $148 reversed $53 $-1 #
coedge $-1 $88 $228 $85 $146 forward $140 $-1 #
edge $-1 $229 -7.4206899479514323 $152 -0.65852915784712529 $145 $230 forward 7 unknown #
coedge $-1 $87 $86 $231 $232 reversed $34 $-1 #
edge $-1 $152 -51.399273659474474 $233 51.399273659474474 $144 $234 forward 7 unknown #
coedge $-1 $235 $236 $87 $150 forward $222 $-1 #
edge $-1 $153 -51.399273659474474 $237 51.399273659474474 $149 $238 forward 7 unknown #
coedge $-1 $228 $88 $236 $239 forward $140 $-1 #
vertex $-1 $89 $240 #
vertex $-1 $239 $241 #
straight-curve $-1 51.399273659474474 -11.286721112205687 -4.6981387107464041 0 -1 0 I I #
face $-1 $-1 $242 $20 $-1 $243 reversed single #
loop $-1 $-1 $96 $90 #
plane-surface $-1 0 0 11.460299500850711 0 0 1 1 0 0 forward_v I I I I #
coedge $-1 $244 $245 $246 $247 reversed $91 $-1 #
coedge $-1 $248 $93 $95 $165 forward $57 $-1 #
coedge $-1 $93 $248 $244 $249 forward $57 $-1 #
coedge $-1 $246 $96 $93 $162 forward $156 $-1 #
edge $-1 $168 -7.4859169750478554 $250 -1.3599791797644354 $161 $251 forward 7 unknown #
coedge $-1 $252 $253 $94 $164 forward $242 $-1 #
edge $-1 $254 -24.111488918901813 $167 -18.903140836050866 $163 $255 forward 7 unknown #
edge $-1 $168 -6.141571519099994 $254 2.7114274142304302e-014 $95 $256 forward 7 unknown #
coedge $-1 $96 $246 $252 $257 forward $156 $-1 #
vertex $-1 $164 $258 #
vertex $-1 $97 $259 #
straight-curve $-1 -69.288693407797638 -11.908865052454001 11.460299500850709 1 0 0 I I #
coedge $-1 $170 $170 $-1 $260 reversed $100 $-1 #
edge $-1 $261 0 $261 6.2831853071796004 $101 $262 forward 7 unknown #
vertex $-1 $104 $263 #
ellipse-curve $-1 -49.772005168099788 -8.8458961548122907 8.8561254594252397 -0.84804810408105047 0 0.52991925155115449 0.52991925155115449 0 0.84804810408105047 1 I I #
face $-1 $-1 $186 $22 $-1 $264 forward single #
loop $-1 $-1 $265 $105 #
plane-surface $-1 51.399273659474474 0 0 -1 0 0 0 0 1 forward_v I I I I #
coedge $-1 $266 $267 $268 $269 reversed $106 $-1 #
coedge $-1 $270 $108 $110 $184 forward $66 $-1 #
coedge $-1 $108 $270 $266 $271 forward $66 $-1 #
coedge $-1 $268 $111 $108 $181 forward $186 $-1 #
edge $-1 $188 -6.9990270015916707 $272 5.7691510019671703 $180 $273 forward 7 unknown #
coedge $-1 $274 $275 $109 $183 forward $175 $-1 #
edge $-1 $276 -72.15966919919552 $187 -60.96272934344104 $182 $277 forward 7 unknown #
edge $-1 $188 85.006433991686592 $276 102.79854731894895 $110 $278 forward 7 unknown #
coedge $-1 $111 $268 $274 $279 forward $186 $-1 #
loop $-1 $-1 $268 $174 #
vertex $-1 $183 $280 #
vertex $-1 $112 $281 #
straight-curve $-1 18.101510609441974 7.6139650014039209 11.460299500850709 -1 0 0 I I #
coedge $-1 $190 $190 $-1 $282 reversed $115 $-1 #
edge $-1 $283 0 $283 6.2831853071796004 $116 $284 forward 7 unknown #
vertex $-1 $119 $285 #
ellipse-curve $-1 44.485739206736795 1.2298759996245039 5.8618295729734697 0.62932039886446345 0 0.77714595512881146 1.5542919102576229 0 -1.2586407977289269 1 I I #
face $-1 $-1 $135 $18 $-1 $286 reversed single #
loop $-1 $-1 $210 $120 #
plane-surface $-1 0 26.384657210214318 0 0 -1 0 0 0 -1 forward_v I I I I #
coedge $-1 $287 $208 $211 $288 forward $121 $-1 #
coedge $-1 $214 $123 $124 $202 reversed $75 $-1 #
coedge $-1 $208 $287 $123 $200 reversed $121 $-1 #
edge $-1 $215 -11.460299500850711 $289 11.460299500850711 $199 $290 forward 7 unknown #
coedge $-1 $125 $124 $287 $291 forward $49 $-1 #
edge $-1 $206 -51.399273659474474 $289 51.399273659474474 $198 $292 forward 7 unknown #
coedge $-1 $211 $210 $125 $204 reversed $195 $-1 #
edge $-1 $293 -51.399273659474474 $205 51.399273659474474 $203 $294 forward 7 unknown #
vertex $-1 $127 $295 #
vertex $-1 $217 $296 #
straight-curve $-1 51.399273659474474 0 -11.460299500850711 0 -1 0 I I #
coedge $-1 $197 $199 $128 $209 reversed $121 $-1 #
edge $-1 $212 -26.384657210214318 $215 26.384657210214318 $208 $297 forward 7 unknown #
coedge $-1 $203 $129 $134 $218 forward $195 $-1 #
coedge $-1 $129 $203 $197 $288 reversed $195 $-1 #
vertex $-1 $130 $298 #
straight-curve $-1 0 26.384657210214318 11.460299500850711 -1 0 0 I I #
coedge $-1 $131 $198 $133 $217 reversed $75 $-1 #
vertex $-1 $209 $299 #
straight-curve $-1 0 -26.384657210214318 11.460299500850711 1 0 0 I I #
edge $-1 $136 -11.460299500850711 $206 11.460299500850711 $133 $300 forward 7 unknown #
edge $-1 $137 -11.460299500850711 $205 11.460299500850711 $134 $301 forward 7 unknown #
point $-1 51.399273659474474 -26.384657210214318 11.460299500850711 #
point $-1 51.399273659474474 26.384657210214318 11.460299500850711 #
face $-1 $-1 $302 $19 $-1 $303 reversed single #
loop $-1 $-1 $149 $139 #
plane-surface $-1 0 -26.384657210214318 0 0 1 0 0 0 1 forward_v I I I I #
coedge $-1 $304 $142 $228 $305 forward $83 $-1 #
coedge $-1 $142 $304 $306 $307 forward $83 $-1 #
edge $-1 $308 -51.399273659474474 $229 51.399273659474474 $142 $309 forward 7 unknown #
coedge $-1 $144 $143 $310 $311 reversed $53 $-1 #
coedge $-1 $145 $151 $224 $305 reversed $140 $-1 #
vertex $-1 $305 $312 #
straight-curve $-1 51.399273659474474 -18.762227238608428 -4.0396095528992788 0 0 1 I I #
coedge $-1 $310 $313 $147 $232 forward $302 $-1 #
edge $-1 $237 -15.097936098008631 $233 -7.4755061264027418 $231 $314 forward 7 unknown #
vertex $-1 $232 $315 #
straight-curve $-1 0 -18.762227238608428 -4.6981387107464041 -1 0 0 I I #
coedge $-1 $316 $149 $313 $317 forward $222 $-1 #
coedge $-1 $149 $316 $151 $239 reversed $222 $-1 #
vertex $-1 $317 $318 #
straight-curve $-1 0 -26.384657210214318 -4.6981387107464041 -1 0 0 I I #
edge $-1 $153 4.6981387107464041 $319 11.460299500850711 $151 $320 forward 7 unknown #
point $-1 51.399273659474474 -18.762227238608428 -4.6981387107464041 #
point $-1 51.399273659474474 -26.384657210214318 -4.6981387107464041 #
loop $-1 $-1 $163 $155 #
plane-surface $-1 -51.399273659474474 0 0 1 0 0 0 0 -1 forward_v I I I I #
coedge $-1 $245 $158 $160 $249 reversed $91 $-1 #
coedge $-1 $158 $244 $321 $322 reversed $91 $-1 #
coedge $-1 $166 $161 $158 $247 forward $156 $-1 #
edge $-1 $250 -21.143956731072535 $323 -17.889419748323164 $246 $324 forward 7 unknown #
coedge $-1 $160 $159 $253 $325 reversed $57 $-1 #
edge $-1 $326 -2.7114274142304302e-014 $250 6.141571519099994 $244 $327 forward 7 unknown #
vertex $-1 $162 $328 #
straight-curve $-1 -48.144736676725103 -4.4229480774061454 11.460299500850711 0 1 0 I I #
coedge $-1 $321 $163 $166 $257 reversed $242 $-1 #
coedge $-1 $163 $321 $248 $325 forward $242 $-1 #
vertex $-1 $164 $329 #
straight-curve $-1 -51.399273659474474 -11.908865052454001 30.363440336901576 0 0 1 I I #
straight-curve $-1 -51.39927365947446 -11.908865052454001 6.2519514179997842 -0.52991925155115449 0 -0.84804810408105047 I I #
edge $-1 $323 5.7829272571705808 $167 11.908865052454001 $252 $330 forward 7 unknown #
point $-1 -51.399273659474474 -11.908865052454001 11.460299500850711 #
point $-1 -48.144736676725103 -11.908865052454001 11.460299500850711 #
edge $-1 $331 1 $331 0 $170 $-1 forward 7 unknown #
vertex $-1 $171 $332 #
ellipse-curve $-1 -47.440733430583251 -8.8458961548122907 7.3993852481540978 -0.84804810408105047 0 0.52991925155115449 0.52991925155115449 0 0.84804810408105047 1 I I #
point $-1 -49.242085916548646 -8.8458961548122907 9.7041735635062984 #
plane-surface $-1 0 0 11.460299500850711 0 0 1 1 0 0 forward_v I I I I #
coedge $-1 $275 $274 $267 $333 forward $175 $-1 #
coedge $-1 $267 $177 $179 $271 reversed $106 $-1 #
coedge $-1 $177 $266 $265 $333 reversed $106 $-1 #
coedge $-1 $185 $180 $177 $269 forward $186 $-1 #
edge $-1 $272 19.470694144557143 $334 33.297763050032501 $268 $335 forward 7 unknown #
coedge $-1 $179 $178 $275 $336 reversed $66 $-1 #
edge $-1 $337 -102.79854731894895 $272 -85.006433991686592 $266 $338 forward 7 unknown #
vertex $-1 $181 $339 #
straight-curve $-1 37.572204753999124 0.61493799981225017 11.460299500850702 0 -1 0 I I #
coedge $-1 $265 $182 $185 $279 reversed $175 $-1 #
coedge $-1 $182 $265 $270 $336 forward $175 $-1 #
vertex $-1 $183 $340 #
straight-curve $-1 51.399273659474474 7.6139650014039209 72.42302884429175 0 0 1 I I #
straight-curve $-1 -28.490201582564424 7.6139650014039209 64.956582446544601 0.77714595512881146 0 -0.62932039886446345 I I #
edge $-1 $334 -5.1542130021549202 $187 7.6139650014039209 $274 $341 forward 7 unknown #
point $-1 51.399273659474474 7.6139650014039209 11.460299500850711 #
point $-1 37.572204753999117 7.6139650014039209 11.460299500850709 #
edge $-1 $342 1 $342 0 $190 $-1 forward 7 unknown #
vertex $-1 $191 $343 #
ellipse-curve $-1 41.957087706309679 1.2298759996245039 2.7392050894302864 0.62932039886446345 0 0.77714595512881146 1.5542919102576229 0 -1.2586407977289269 1 I I #
point $-1 46.040031116994413 1.2298759996245039 4.6031887752445373 #
plane-surface $-1 51.399273659474474 0 0 -1 0 0 0 0 1 forward_v I I I I #
coedge $-1 $199 $197 $201 $291 reversed $121 $-1 #
edge $-1 $212 -11.460299500850711 $293 11.460299500850711 $211 $344 forward 7 unknown #
vertex $-1 $291 $345 #
straight-curve $-1 -51.399273659474474 -26.384657210214318 0 0 0 -1 I I #
edge $-1 $289 -26.384657210214318 $293 26.384657210214318 $287 $346 forward 7 unknown #
straight-curve $-1 0 -26.384657210214318 -11.460299500850711 -1 0 0 I I #
vertex $-1 $204 $347 #
straight-curve $-1 0 26.384657210214318 -11.460299500850711 1 0 0 I I #
point $-1 51.399273659474474 26.384657210214318 -11.460299500850711 #
point $-1 51.399273659474474 -26.384657210214318 -11.460299500850711 #
straight-curve $-1 -51.399273659474474 0 11.460299500850711 0 -1 0 I I #
point $-1 -51.399273659474474 26.384657210214318 11.460299500850711 #
point $-1 -51.399273659474474 -26.384657210214318 11.460299500850711 #
straight-curve $-1 51.399273659474474 -26.384657210214318 0 0 0 -1 I I #
straight-curve $-1 51.399273659474474 26.384657210214318 0 0 0 -1 I I #
loop $-1 $-1 $310 $221 #
plane-surface $-1 -51.399273659474474 0 0 1 0 0 0 0 -1 forward_v I I I I #
coedge $-1 $225 $224 $316 $348 forward $83 $-1 #
edge $-1 $229 18.762227238608428 $319 26.384657210214318 $228 $349 forward 7 unknown #
coedge $-1 $313 $310 $225 $307 reversed $302 $-1 #
edge $-1 $350 -26.384657210214318 $308 -18.762227238608428 $306 $351 forward 7 unknown #
vertex $-1 $311 $352 #
straight-curve $-1 0 -18.762227238608428 -11.460299500850711 1 0 0 I I #
coedge $-1 $306 $231 $227 $311 forward $302 $-1 #
edge $-1 $233 0.65852915784712529 $308 7.4206899479514323 $310 $353 forward 7 unknown #
point $-1 51.399273659474474 -18.762227238608428 -11.460299500850711 #
coedge $-1 $231 $306 $235 $317 reversed $302 $-1 #
straight-curve $-1 -51.399273659474474 -11.286721112205687 -4.6981387107464041 0 1 0 I I #
point $-1 -51.399273659474474 -18.762227238608428 -4.6981387107464041 #
coedge $-1 $236 $235 $304 $348 reversed $222 $-1 #
edge $-1 $237 4.6981387107464041 $350 11.460299500850711 $313 $354 forward 7 unknown #
point $-1 -51.399273659474474 -26.384657210214318 -4.6981387107464041 #
vertex $-1 $239 $355 #
straight-curve $-1 51.399273659474474 -26.384657210214318 0 0 0 -1 I I #
coedge $-1 $253 $252 $245 $322 forward $242 $-1 #
edge $-1 $323 18.903140836050866 $326 24.111488918901813 $321 $356 forward 7 unknown #
vertex $-1 $257 $357 #
straight-curve $-1 -69.288693407797638 -5.7829272571705808 11.460299500850709 -1 0 0 I I #
edge $-1 $326 1.3599791797644354 $254 7.4859169750478554 $253 $358 forward 7 unknown #
vertex $-1 $325 $359 #
straight-curve $-1 -51.39927365947446 -5.7829272571705808 6.2519514179997842 0.52991925155115449 0 0.84804810408105047 I I #
point $-1 -48.144736676725103 -5.7829272571705808 11.460299500850711 #
point $-1 -51.399273659474474 -11.908865052454001 6.2519514179997611 #
straight-curve $-1 -51.399273659474474 0 11.460299500850711 0 -1 0 I I #
vertex $-1 $260 $360 #
point $-1 -46.910814179032101 -8.8458961548122907 8.2474333522351486 #
edge $-1 $334 60.96272934344104 $337 72.15966919919552 $265 $361 forward 7 unknown #
vertex $-1 $279 $362 #
straight-curve $-1 18.101510609441974 -5.1542130021549202 11.460299500850709 1 0 0 I I #
edge $-1 $337 -5.7691510019671703 $276 6.9990270015916707 $275 $363 forward 7 unknown #
vertex $-1 $336 $364 #
straight-curve $-1 -28.490201582564424 -5.1542130021549202 64.956582446544601 -0.77714595512881146 0 0.62932039886446345 I I #
point $-1 37.572204753999117 -5.1542130021549202 11.460299500850709 #
point $-1 51.399273659474474 7.6139650014039209 0.26335964509623011 #
straight-curve $-1 51.399273659474474 0 11.460299500850711 0 1 0 I I #
vertex $-1 $282 $365 #
point $-1 43.511379616567297 1.2298759996245039 1.4805642917013593 #
straight-curve $-1 -51.399273659474474 26.384657210214318 0 0 0 -1 I I #
point $-1 -51.399273659474474 -26.384657210214318 -11.460299500850711 #
straight-curve $-1 -51.399273659474474 0 -11.460299500850711 0 1 0 I I #
point $-1 -51.399273659474474 26.384657210214318 -11.460299500850711 #
edge $-1 $319 -51.399273659474474 $350 51.399273659474474 $316 $366 forward 7 unknown #
straight-curve $-1 51.399273659474474 0 -11.460299500850711 0 -1 0 I I #
vertex $-1 $307 $367 #
straight-curve $-1 -51.399273659474474 0 -11.460299500850711 0 1 0 I I #
point $-1 -51.399273659474474 -18.762227238608428 -11.460299500850711 #
straight-curve $-1 -51.399273659474474 -18.762227238608428 -4.0396095528992788 0 0 -1 I I #
straight-curve $-1 -51.399273659474474 -26.384657210214318 0 0 0 -1 I I #
point $-1 51.399273659474474 -26.384657210214318 -11.460299500850711 #
straight-curve $-1 -51.399273659474474 -5.7829272571705808 30.363440336901576 0 0 -1 I I #
point $-1 -51.399273659474474 -5.7829272571705808 11.460299500850711 #
straight-curve $-1 -51.399273659474474 -4.4229480774061454 6.2519514179997593 0 -1 0 I I #
point $-1 -51.399273659474474 -5.7829272571705808 6.2519514179997611 #
point $-1 -46.592685326502206 -8.8458961548122907 6.8694659966029432 #
straight-curve $-1 51.399273659474474 -5.1542130021549202 72.42302884429175 0 0 -1 I I #
point $-1 51.399273659474474 -5.1542130021549202 11.460299500850711 #
straight-curve $-1 51.399273659474474 0.61493799981225017 0.26335964509623722 0 1 0 I I #
point $-1 51.399273659474474 -5.1542130021549202 0.26335964509623011 #
point $-1 40.698446908580749 1.2298759996245039 1.1849131791726633 #
straight-curve $-1 0 -26.384657210214318 -11.460299500850711 -1 0 0 I I #
point $-1 -51.399273659474474 -26.384657210214318 -11.460299500850711 #
End-of-ACIS-data 