500 0 5 0           
7 Unknown 11 ACIS 5.0 NT 24 Fri Mar 26 19:57:34 1999 
-1 9.9999999999999995e-007 1e-010 
body $-1 $5 $-1 $6 #
body $-1 $7 $-1 $8 #
body $-1 $9 $-1 $10 #
body $-1 $11 $-1 $12 #
body $-1 $13 $-1 $14 #
lump $-1 $-1 $15 $0 #
transform $-1 1 0 0 0 1 0 0 0 1 44.427625354777675 24.452887982143007 7.1257926018949167 1 rotate no_reflect no_shear #
lump $-1 $-1 $16 $1 #
transform $-1 1 0 0 0 1 0 0 0 1 44.427625354777675 24.452887982143007 7.1257926018949167 1 rotate no_reflect no_shear #
lump $-1 $-1 $17 $2 #
transform $-1 1 0 0 0 1 0 0 0 1 44.427625354777675 24.452887982143007 7.1257926018949167 1 rotate no_reflect no_shear #
lump $-1 $-1 $18 $3 #
transform $-1 1 0 0 0 1 0 0 0 1 44.427625354777675 24.452887982143007 7.1257926018949167 1 rotate no_reflect no_shear #
lump $-1 $-1 $19 $4 #
transform $-1 1 0 0 0 1 0 0 0 1 44.427625354777675 24.452887982143007 7.1257926018949167 1 rotate no_reflect no_shear #
shell $-1 $-1 $-1 $20 $-1 $5 #
shell $-1 $-1 $-1 $21 $-1 $7 #
shell $-1 $-1 $-1 $22 $-1 $9 #
shell $-1 $-1 $-1 $23 $-1 $11 #
shell $-1 $-1 $-1 $24 $-1 $13 #
face $-1 $25 $26 $15 $-1 $27 forward single #
face $-1 $28 $29 $16 $-1 $30 forward single #
face $-1 $31 $32 $17 $-1 $33 reversed single #
face $-1 $34 $35 $18 $-1 $36 forward single #
face $-1 $37 $38 $19 $-1 $39 forward single #
face $-1 $40 $41 $15 $-1 $42 reversed single #
loop $-1 $-1 $43 $20 #
plane-surface $-1 0 0 7.1257926018949167 0 0 1 1 0 0 forward_v I I I I #
face $-1 $44 $45 $16 $-1 $46 reversed single #
loop $-1 $-1 $47 $21 #
plane-surface $-1 -41.180204182886612 0 -4.1257926018949167 0 0 1 1 0 0 forward_v I I I I #
face $-1 $48 $49 $17 $-1 $50 reversed single #
loop $-1 $-1 $51 $22 #
plane-surface $-1 -23.922090409226229 40.619366332108584 102.72260738614611 1 0 0 0 -0.61566148304635926 -0.78801074757464917 forward_v I I I I #
face $-1 $52 $53 $18 $-1 $54 forward single #
loop $-1 $55 $56 $23 #
cone-surface $-1 -20.653297584053778 20.140395094405594 3.0521633510412536 0 -0.61566148304635926 -0.78801074757464917 1.5 0 0 1 I I 0 1 1.5 forward I I I I #
face $-1 $57 $58 $19 $-1 $59 forward single #
loop $-1 $60 $61 $24 #
cone-surface $-1 -15.7501083462951 20.140395094405594 3.0521633510412536 0 -0.61566148304635926 -0.78801074757464917 1.5 0 0 1 I I 0 1 1.5 forward I I I I #
face $-1 $62 $63 $15 $-1 $64 reversed single #
loop $-1 $-1 $65 $25 #
plane-surface $-1 0 0 -7.1257926018949167 0 0 1 1 0 0 forward_v I I I I #
coedge $-1 $66 $67 $68 $69 forward $26 $-1 #
face $-1 $70 $71 $16 $-1 $72 reversed single #
loop $-1 $-1 $73 $28 #
plane-surface $-1 -37.93278301099555 0 -5.6257926018949167 -1 0 0 0 0 1 forward_v I I I I #
coedge $-1 $74 $75 $76 $77 forward $29 $-1 #
face $-1 $78 $79 $17 $-1 $80 reversed single #
loop $-1 $-1 $81 $31 #
plane-surface $-1 -18.201702965174441 -14.08538909619233 32.703714848576524 0 0.61566148304635926 0.78801074757464917 1 0 0 forward_v I I I I #
coedge $-1 $82 $83 $84 $85 reversed $32 $-1 #
face $-1 $-1 $86 $18 $-1 $87 forward single #
loop $-1 $88 $89 $34 #
cone-surface $-1 -20.653297584053778 18.266171189867901 0.6532661960184587 0 -0.61566148304635926 -0.78801074757464917 0.75 0 0 1 I I -0.70710678118654757 0.70710678118654757 0.75 forward I I I I #
loop $-1 $-1 $90 $23 #
coedge $-1 $56 $56 $91 $92 reversed $35 $-1 #
face $-1 $-1 $93 $19 $-1 $94 forward single #
loop $-1 $95 $96 $37 #
cone-surface $-1 -15.7501083462951 18.266171189867901 0.6532661960184587 0 -0.61566148304635926 -0.78801074757464917 0.75 0 0 1 I I -0.70710678118654757 0.70710678118654757 0.75 forward I I I I #
loop $-1 $-1 $97 $24 #
coedge $-1 $61 $61 $98 $99 reversed $38 $-1 #
face $-1 $100 $101 $15 $-1 $102 reversed single #
loop $-1 $-1 $103 $40 #
plane-surface $-1 0 -24.452887982143007 0 0 1 0 0 0 1 forward_v I I I I #
coedge $-1 $104 $105 $106 $107 forward $41 $-1 #
coedge $-1 $108 $43 $109 $110 forward $26 $-1 #
coedge $-1 $43 $108 $111 $112 forward $26 $-1 #
coedge $-1 $113 $114 $43 $69 reversed $115 $-1 #
edge $-1 $116 -24.452887982143007 $117 24.452887982143007 $68 $118 forward 7 unknown #
face $-1 $119 $120 $16 $-1 $121 reversed single #
loop $-1 $-1 $122 $44 #
plane-surface $-1 0 0 -7.1257926018949167 0 0 1 1 0 0 forward_v I I I I #
coedge $-1 $123 $76 $124 $125 reversed $45 $-1 #
coedge $-1 $126 $47 $127 $128 reversed $29 $-1 #
coedge $-1 $47 $126 $129 $130 reversed $29 $-1 #
coedge $-1 $73 $131 $47 $77 reversed $45 $-1 #
edge $-1 $132 -24.452887982143007 $133 24.452887982143007 $76 $134 forward 7 unknown #
face $-1 $135 $136 $17 $-1 $137 reversed single #
loop $-1 $-1 $138 $48 #
plane-surface $-1 -12.481315521122651 40.619366332108584 102.72260738614611 -1 0 0 0 0.61566148304635926 0.78801074757464917 forward_v I I I I #
coedge $-1 $139 $140 $141 $142 reversed $49 $-1 #
coedge $-1 $83 $51 $143 $144 reversed $32 $-1 #
coedge $-1 $51 $82 $139 $145 reversed $32 $-1 #
coedge $-1 $141 $146 $51 $85 forward $147 $-1 #
edge $-1 $148 -4.1432048160887156 $149 1.6568253748802633 $84 $150 forward 7 unknown #
loop $-1 $-1 $91 $52 #
plane-surface $-1 -18.201702965174441 -14.08538909619233 32.703714848576524 0 0.61566148304635926 0.78801074757464917 1 0 0 forward_v I I I I #
loop $-1 $-1 $151 $34 #
coedge $-1 $89 $89 $90 $152 reversed $53 $-1 #
coedge $-1 $90 $90 $89 $152 forward $55 $-1 #
coedge $-1 $91 $91 $56 $92 forward $86 $-1 #
edge $-1 $153 0 $153 6.2831853071796004 $91 $154 forward 7 unknown #
loop $-1 $-1 $98 $57 #
plane-surface $-1 -18.201702965174441 -14.08538909619233 32.703714848576524 0 0.61566148304635926 0.78801074757464917 1 0 0 forward_v I I I I #
loop $-1 $-1 $155 $37 #
coedge $-1 $96 $96 $97 $156 reversed $58 $-1 #
coedge $-1 $97 $97 $96 $156 forward $60 $-1 #
coedge $-1 $98 $98 $61 $99 forward $93 $-1 #
edge $-1 $157 0 $157 6.2831853071796004 $98 $158 forward 7 unknown #
face $-1 $159 $160 $15 $-1 $161 reversed single #
loop $-1 $-1 $162 $62 #
plane-surface $-1 -44.427625354777675 0 0 1 0 0 0 0 -1 forward_v I I I I #
coedge $-1 $163 $111 $164 $165 forward $63 $-1 #
coedge $-1 $166 $65 $163 $167 forward $41 $-1 #
coedge $-1 $65 $166 $168 $169 forward $41 $-1 #
coedge $-1 $114 $113 $65 $107 reversed $115 $-1 #
edge $-1 $170 -24.452887982143007 $171 24.452887982143007 $106 $172 forward 7 unknown #
coedge $-1 $67 $66 $173 $174 forward $26 $-1 #
coedge $-1 $175 $176 $66 $110 reversed $160 $-1 #
edge $-1 $117 -44.427625354777675 $177 44.427625354777675 $109 $178 forward 7 unknown #
coedge $-1 $103 $179 $67 $112 reversed $63 $-1 #
edge $-1 $180 -44.427625354777675 $116 44.427625354777675 $111 $181 forward 7 unknown #
coedge $-1 $106 $68 $179 $182 forward $115 $-1 #
coedge $-1 $68 $106 $175 $183 reversed $115 $-1 #
loop $-1 $-1 $113 $159 #
vertex $-1 $69 $184 #
vertex $-1 $69 $185 #
straight-curve $-1 44.427625354777675 0 7.1257926018949167 0 1 0 I I #
face $-1 $186 $187 $16 $-1 $188 reversed single #
loop $-1 $-1 $124 $70 #
plane-surface $-1 0 -24.452887982143007 0 0 1 0 0 0 1 forward_v I I I I #
coedge $-1 $189 $190 $123 $191 forward $71 $-1 #
coedge $-1 $131 $73 $122 $191 reversed $45 $-1 #
coedge $-1 $129 $192 $73 $125 forward $120 $-1 #
edge $-1 $193 -4.3128963009474584 $132 -1.3128963009474584 $124 $194 forward 7 unknown #
coedge $-1 $75 $74 $195 $196 reversed $29 $-1 #
coedge $-1 $197 $198 $74 $128 forward $199 $-1 #
edge $-1 $200 -23.837523263334369 $133 -17.342680919552244 $127 $201 forward 7 unknown #
coedge $-1 $202 $124 $75 $130 forward $120 $-1 #
edge $-1 $132 17.342680919552244 $203 23.837523263334369 $129 $204 forward 7 unknown #
coedge $-1 $76 $123 $197 $205 reversed $45 $-1 #
vertex $-1 $130 $206 #
vertex $-1 $128 $207 #
straight-curve $-1 -37.93278301099555 0 -4.1257926018949167 0 1 0 I I #
face $-1 $-1 $147 $17 $-1 $208 forward single #
loop $-1 $-1 $209 $78 #
plane-surface $-1 0 24.452887982143007 0 0 -1 0 0 0 -1 forward_v I I I I #
coedge $-1 $210 $211 $212 $213 reversed $79 $-1 #
coedge $-1 $214 $81 $83 $145 forward $49 $-1 #
coedge $-1 $81 $214 $210 $215 forward $49 $-1 #
coedge $-1 $212 $84 $81 $142 forward $147 $-1 #
edge $-1 $149 -14.821238926639008 $216 -3.3804640385354308 $141 $217 forward 7 unknown #
coedge $-1 $218 $219 $82 $144 forward $136 $-1 #
edge $-1 $220 -48.76699140420186 $148 -44.23551109117814 $143 $221 forward 7 unknown #
edge $-1 $149 41.54543194763346 $220 48.905775964286022 $83 $222 forward 7 unknown #
coedge $-1 $84 $212 $218 $223 forward $147 $-1 #
loop $-1 $-1 $212 $135 #
vertex $-1 $144 $224 #
vertex $-1 $85 $225 #
straight-curve $-1 -23.922090409226229 20.309683166054292 7.1257926018949149 0 -1 0 I I #
coedge $-1 $151 $151 $-1 $226 reversed $88 $-1 #
edge $-1 $227 0 $227 6.2831853071796004 $89 $228 forward 7 unknown #
vertex $-1 $92 $229 #
ellipse-curve $-1 -20.653297584053778 21.55287288665852 4.8600524453830616 0 0.61566148304635926 0.78801074757464917 1.5 0 0 1 I I #
coedge $-1 $155 $155 $-1 $230 reversed $95 $-1 #
edge $-1 $231 0 $231 6.2831853071796004 $96 $232 forward 7 unknown #
vertex $-1 $99 $233 #
ellipse-curve $-1 -15.7501083462951 21.55287288665852 4.8600524453830616 0 0.61566148304635926 0.78801074757464917 1.5 0 0 1 I I #
face $-1 $-1 $115 $15 $-1 $234 reversed single #
loop $-1 $-1 $175 $100 #
plane-surface $-1 0 24.452887982143007 0 0 -1 0 0 0 -1 forward_v I I I I #
coedge $-1 $235 $173 $176 $236 forward $101 $-1 #
coedge $-1 $179 $103 $104 $167 reversed $63 $-1 #
coedge $-1 $173 $235 $103 $165 reversed $101 $-1 #
edge $-1 $180 -7.1257926018949167 $237 7.1257926018949167 $164 $238 forward 7 unknown #
coedge $-1 $105 $104 $235 $239 forward $41 $-1 #
edge $-1 $171 -44.427625354777675 $237 44.427625354777675 $163 $240 forward 7 unknown #
coedge $-1 $176 $175 $105 $169 reversed $160 $-1 #
edge $-1 $241 -44.427625354777675 $170 44.427625354777675 $168 $242 forward 7 unknown #
vertex $-1 $107 $243 #
vertex $-1 $182 $244 #
straight-curve $-1 44.427625354777675 0 -7.1257926018949167 0 -1 0 I I #
coedge $-1 $162 $164 $108 $174 reversed $101 $-1 #
edge $-1 $177 -24.452887982143007 $180 24.452887982143007 $173 $245 forward 7 unknown #
coedge $-1 $168 $109 $114 $183 forward $160 $-1 #
coedge $-1 $109 $168 $162 $236 reversed $160 $-1 #
vertex $-1 $110 $246 #
straight-curve $-1 0 24.452887982143007 7.1257926018949167 -1 0 0 I I #
coedge $-1 $111 $163 $113 $182 reversed $63 $-1 #
vertex $-1 $174 $247 #
straight-curve $-1 0 -24.452887982143007 7.1257926018949167 1 0 0 I I #
edge $-1 $116 -7.1257926018949167 $171 7.1257926018949167 $113 $248 forward 7 unknown #
edge $-1 $117 -7.1257926018949167 $170 7.1257926018949167 $114 $249 forward 7 unknown #
point $-1 44.427625354777675 -24.452887982143007 7.1257926018949167 #
point $-1 44.427625354777675 24.452887982143007 7.1257926018949167 #
face $-1 $-1 $199 $16 $-1 $250 reversed single #
loop $-1 $-1 $195 $119 #
plane-surface $-1 -44.427625354777675 0 0 1 0 0 0 0 -1 forward_v I I I I #
coedge $-1 $251 $122 $192 $252 forward $71 $-1 #
coedge $-1 $122 $251 $253 $254 forward $71 $-1 #
edge $-1 $255 -24.452887982143007 $193 24.452887982143007 $122 $256 forward 7 unknown #
coedge $-1 $124 $202 $189 $252 reversed $120 $-1 #
vertex $-1 $252 $257 #
straight-curve $-1 -37.93278301099555 -24.452887982143007 -2.8128963009474584 0 0 1 I I #
coedge $-1 $258 $259 $126 $196 forward $187 $-1 #
edge $-1 $203 -24.452887982143007 $200 24.452887982143007 $195 $260 forward 7 unknown #
coedge $-1 $253 $127 $131 $205 forward $199 $-1 #
coedge $-1 $127 $253 $258 $261 reversed $199 $-1 #
loop $-1 $-1 $197 $186 #
vertex $-1 $261 $262 #
straight-curve $-1 -20.590102091443306 24.452887982143007 -4.1257926018949167 1 0 0 I I #
coedge $-1 $192 $129 $259 $263 forward $120 $-1 #
vertex $-1 $263 $264 #
straight-curve $-1 -20.590102091443306 -24.452887982143007 -4.1257926018949167 -1 0 0 I I #
edge $-1 $133 1.3128963009474584 $255 4.3128963009474584 $197 $265 forward 7 unknown #
point $-1 -37.93278301099555 -24.452887982143007 -4.1257926018949167 #
point $-1 -37.93278301099555 24.452887982143007 -4.1257926018949167 #
plane-surface $-1 0 0 7.1257926018949167 0 0 1 1 0 0 forward_v I I I I #
coedge $-1 $219 $218 $211 $266 forward $136 $-1 #
coedge $-1 $211 $138 $140 $215 reversed $79 $-1 #
coedge $-1 $138 $210 $209 $266 reversed $79 $-1 #
coedge $-1 $146 $141 $138 $213 forward $147 $-1 #
edge $-1 $216 -1.6568253748802633 $267 4.1432048160887156 $212 $268 forward 7 unknown #
coedge $-1 $140 $139 $219 $269 reversed $49 $-1 #
edge $-1 $270 -48.905775964286022 $216 -41.54543194763346 $210 $271 forward 7 unknown #
vertex $-1 $142 $272 #
straight-curve $-1 -9.1008514825872204 18.652857791174036 7.1257926018949149 1 0 0 I I #
coedge $-1 $209 $143 $146 $223 reversed $136 $-1 #
coedge $-1 $143 $209 $214 $269 forward $136 $-1 #
vertex $-1 $144 $273 #
straight-curve $-1 -23.922090409226229 24.452887982143007 51.361303693073054 0 0 1 I I #
straight-curve $-1 -23.922090409226229 -14.08538909619233 32.703714848576524 0 0.78801074757464917 -0.61566148304635926 I I #
edge $-1 $267 12.481315521122651 $148 23.922090409226229 $218 $274 forward 7 unknown #
point $-1 -23.922090409226229 24.452887982143007 7.1257926018949167 #
point $-1 -23.922090409226229 18.652857791174029 7.1257926018949149 #
edge $-1 $275 1 $275 0 $151 $-1 forward 7 unknown #
vertex $-1 $152 $276 #
ellipse-curve $-1 -20.653297584053778 18.727917302152669 1.2442742566994456 0 0.61566148304635926 0.78801074757464917 1.5 0 0 1 I I #
point $-1 -19.153297584053778 21.55287288665852 4.8600524453830616 #
edge $-1 $277 1 $277 0 $155 $-1 forward 7 unknown #
vertex $-1 $156 $278 #
ellipse-curve $-1 -15.7501083462951 18.727917302152669 1.2442742566994456 0 0.61566148304635926 0.78801074757464917 1.5 0 0 1 I I #
point $-1 -14.2501083462951 21.55287288665852 4.8600524453830616 #
plane-surface $-1 44.427625354777675 0 0 -1 0 0 0 0 1 forward_v I I I I #
coedge $-1 $164 $162 $166 $239 reversed $101 $-1 #
edge $-1 $177 -7.1257926018949167 $241 7.1257926018949167 $176 $279 forward 7 unknown #
vertex $-1 $239 $280 #
straight-curve $-1 -44.427625354777675 -24.452887982143007 0 0 0 -1 I I #
edge $-1 $237 -24.452887982143007 $241 24.452887982143007 $235 $281 forward 7 unknown #
straight-curve $-1 0 -24.452887982143007 -7.1257926018949167 -1 0 0 I I #
vertex $-1 $169 $282 #
straight-curve $-1 0 24.452887982143007 -7.1257926018949167 1 0 0 I I #
point $-1 44.427625354777675 24.452887982143007 -7.1257926018949167 #
point $-1 44.427625354777675 -24.452887982143007 -7.1257926018949167 #
straight-curve $-1 -44.427625354777675 0 7.1257926018949167 0 -1 0 I I #
point $-1 -44.427625354777675 24.452887982143007 7.1257926018949167 #
point $-1 -44.427625354777675 -24.452887982143007 7.1257926018949167 #
straight-curve $-1 44.427625354777675 -24.452887982143007 0 0 0 -1 I I #
straight-curve $-1 44.427625354777675 24.452887982143007 0 0 0 -1 I I #
plane-surface $-1 0 24.452887982143007 0 0 -1 0 0 0 -1 forward_v I I I I #
coedge $-1 $190 $189 $283 $284 forward $71 $-1 #
edge $-1 $193 37.93278301099555 $285 44.427625354777675 $192 $286 forward 7 unknown #
coedge $-1 $198 $197 $190 $254 reversed $199 $-1 #
edge $-1 $287 -44.427625354777675 $255 -37.93278301099555 $253 $288 forward 7 unknown #
vertex $-1 $205 $289 #
straight-curve $-1 -37.93278301099555 0 -7.1257926018949167 0 -1 0 I I #
point $-1 -37.93278301099555 -24.452887982143007 -7.1257926018949167 #
coedge $-1 $283 $195 $198 $261 forward $187 $-1 #
coedge $-1 $195 $283 $202 $263 reversed $187 $-1 #
straight-curve $-1 -44.427625354777675 0 -4.1257926018949167 0 1 0 I I #
edge $-1 $200 4.1257926018949167 $287 7.1257926018949167 $198 $290 forward 7 unknown #
point $-1 -44.427625354777675 24.452887982143007 -4.1257926018949167 #
edge $-1 $203 4.1257926018949167 $285 7.1257926018949167 $259 $291 forward 7 unknown #
point $-1 -44.427625354777675 -24.452887982143007 -4.1257926018949167 #
straight-curve $-1 -37.93278301099555 24.452887982143007 -2.8128963009474584 0 0 -1 I I #
edge $-1 $267 44.23551109117814 $270 48.76699140420186 $209 $292 forward 7 unknown #
vertex $-1 $223 $293 #
straight-curve $-1 -12.481315521122651 20.309683166054292 7.1257926018949149 0 1 0 I I #
edge $-1 $270 3.3804640385354308 $220 14.821238926639008 $219 $294 forward 7 unknown #
vertex $-1 $269 $295 #
straight-curve $-1 -12.481315521122651 -14.08538909619233 32.703714848576524 0 -0.78801074757464917 0.61566148304635926 I I #
point $-1 -12.481315521122651 18.652857791174029 7.1257926018949149 #
point $-1 -23.922090409226229 24.452887982143011 2.5943122888711976 #
straight-curve $-1 0 24.452887982143007 7.1257926018949167 -1 0 0 I I #
vertex $-1 $226 $296 #
point $-1 -19.153297584053778 18.727917302152669 1.2442742566994456 #
vertex $-1 $230 $297 #
point $-1 -14.2501083462951 18.727917302152669 1.2442742566994456 #
straight-curve $-1 -44.427625354777675 24.452887982143007 0 0 0 -1 I I #
point $-1 -44.427625354777675 -24.452887982143007 -7.1257926018949167 #
straight-curve $-1 -44.427625354777675 0 -7.1257926018949167 0 1 0 I I #
point $-1 -44.427625354777675 24.452887982143007 -7.1257926018949167 #
coedge $-1 $259 $258 $251 $284 reversed $187 $-1 #
edge $-1 $285 -24.452887982143007 $287 24.452887982143007 $283 $298 forward 7 unknown #
vertex $-1 $284 $299 #
straight-curve $-1 0 -24.452887982143007 -7.1257926018949167 -1 0 0 I I #
vertex $-1 $254 $300 #
straight-curve $-1 0 24.452887982143007 -7.1257926018949167 1 0 0 I I #
point $-1 -37.93278301099555 24.452887982143007 -7.1257926018949167 #
straight-curve $-1 -44.427625354777675 24.452887982143007 0 0 0 -1 I I #
straight-curve $-1 -44.427625354777675 -24.452887982143007 0 0 0 -1 I I #
straight-curve $-1 -12.481315521122651 24.452887982143007 51.361303693073054 0 0 -1 I I #
point $-1 -12.481315521122651 24.452887982143007 7.1257926018949167 #
straight-curve $-1 -9.1008514825872204 24.452887982143007 2.5943122888711976 -1 0 0 I I #
point $-1 -12.481315521122651 24.452887982143011 2.5943122888711976 #
point $-1 -20.653297584053778 17.804425077583133 0.06225813533747182 #
point $-1 -15.7501083462951 17.804425077583133 0.06225813533747182 #
straight-curve $-1 -44.427625354777675 0 -7.1257926018949167 0 1 0 I I #
point $-1 -44.427625354777675 -24.452887982143007 -7.1257926018949167 #
point $-1 -44.427625354777675 24.452887982143007 -7.1257926018949167 #
End-of-ACIS-data 