500 0 12 0           
7 Unknown 11 ACIS 5.0 NT 24 Fri Mar 26 18:41:23 1999 
-1 9.9999999999999995e-007 1e-010 
body $-1 $12 $-1 $13 #
body $-1 $14 $-1 $15 #
body $-1 $16 $-1 $17 #
body $-1 $18 $-1 $19 #
body $-1 $20 $-1 $21 #
body $-1 $22 $-1 $23 #
body $-1 $24 $-1 $25 #
body $-1 $26 $-1 $27 #
body $-1 $28 $-1 $29 #
body $-1 $30 $-1 $31 #
body $-1 $32 $-1 $33 #
body $-1 $34 $-1 $35 #
lump $-1 $-1 $36 $0 #
transform $-1 1 0 0 0 1 0 0 0 1 79.477523117770929 38.213342256271062 10.895356609674746 1 rotate no_reflect no_shear #
lump $-1 $-1 $37 $1 #
transform $-1 1 0 0 0 1 0 0 0 1 79.477523117770929 38.213342256271062 10.895356609674746 1 rotate no_reflect no_shear #
lump $-1 $-1 $38 $2 #
transform $-1 1 0 0 0 1 0 0 0 1 79.477523117770929 38.213342256271062 10.895356609674746 1 rotate no_reflect no_shear #
lump $-1 $-1 $39 $3 #
transform $-1 1 0 0 0 1 0 0 0 1 79.477523117770929 38.213342256271062 10.895356609674746 1 rotate no_reflect no_shear #
lump $-1 $-1 $40 $4 #
transform $-1 1 0 0 0 1 0 0 0 1 79.477523117770929 38.213342256271062 10.895356609674746 1 rotate no_reflect no_shear #
lump $-1 $-1 $41 $5 #
transform $-1 1 0 0 0 1 0 0 0 1 79.477523117770929 38.213342256271062 10.895356609674746 1 rotate no_reflect no_shear #
lump $-1 $-1 $42 $6 #
transform $-1 1 0 0 0 1 0 0 0 1 79.477523117770929 38.213342256271062 10.895356609674746 1 rotate no_reflect no_shear #
lump $-1 $-1 $43 $7 #
transform $-1 1 0 0 0 1 0 0 0 1 79.477523117770929 38.213342256271062 10.895356609674746 1 rotate no_reflect no_shear #
lump $-1 $-1 $44 $8 #
transform $-1 1 0 0 0 1 0 0 0 1 79.477523117770929 38.213342256271062 10.895356609674746 1 rotate no_reflect no_shear #
lump $-1 $-1 $45 $9 #
transform $-1 1 0 0 0 1 0 0 0 1 79.477523117770929 38.213342256271062 10.895356609674746 1 rotate no_reflect no_shear #
lump $-1 $-1 $46 $10 #
transform $-1 1 0 0 0 1 0 0 0 1 79.477523117770929 38.213342256271062 10.895356609674746 1 rotate no_reflect no_shear #
lump $-1 $-1 $47 $11 #
transform $-1 1 0 0 0 1 0 0 0 1 79.477523117770929 38.213342256271062 10.895356609674746 1 rotate no_reflect no_shear #
shell $-1 $-1 $-1 $48 $-1 $12 #
shell $-1 $-1 $-1 $49 $-1 $14 #
shell $-1 $-1 $-1 $50 $-1 $16 #
shell $-1 $-1 $-1 $51 $-1 $18 #
shell $-1 $-1 $-1 $52 $-1 $20 #
shell $-1 $-1 $-1 $53 $-1 $22 #
shell $-1 $-1 $-1 $54 $-1 $24 #
shell $-1 $-1 $-1 $55 $-1 $26 #
shell $-1 $-1 $-1 $56 $-1 $28 #
shell $-1 $-1 $-1 $57 $-1 $30 #
shell $-1 $-1 $-1 $58 $-1 $32 #
shell $-1 $-1 $-1 $59 $-1 $34 #
face $-1 $60 $61 $36 $-1 $62 forward single #
face $-1 $63 $64 $37 $-1 $65 forward single #
face $-1 $66 $67 $38 $-1 $68 reversed single #
face $-1 $69 $70 $39 $-1 $71 forward single #
face $-1 $72 $73 $40 $-1 $74 reversed single #
face $-1 $75 $76 $41 $-1 $77 forward single #
face $-1 $78 $79 $42 $-1 $80 reversed single #
face $-1 $81 $82 $43 $-1 $83 forward single #
face $-1 $84 $85 $44 $-1 $86 reversed single #
face $-1 $87 $88 $45 $-1 $89 forward single #
face $-1 $90 $91 $46 $-1 $92 reversed single #
face $-1 $93 $94 $47 $-1 $95 forward single #
face $-1 $96 $97 $36 $-1 $98 reversed single #
loop $-1 $-1 $99 $48 #
plane-surface $-1 0 0 10.895356609674746 0 0 1 1 0 0 forward_v I I I I #
face $-1 $100 $101 $37 $-1 $102 reversed single #
loop $-1 $-1 $103 $49 #
plane-surface $-1 0 -33.409656104128587 -1.7132887661992044 0 0 1 1 0 0 forward_v I I I I #
face $-1 $104 $105 $38 $-1 $106 reversed single #
loop $-1 $-1 $107 $50 #
plane-surface $-1 -183.76141767237624 -25.401680177569382 120.98437367142721 0 1 0 -0.6560590369687036 0 0.75470957328743171 forward_v I I I I #
face $-1 $108 $109 $39 $-1 $110 forward single #
loop $-1 $111 $112 $51 #
cone-surface $-1 -72.725424663511149 -19.707014643691664 4.7246258552546738 0.6560590369687036 0 -0.75470957328743171 1.1320643599311475 0 0.9840885554530554 1 I I 0 1 1.5 forward I I I I #
face $-1 $113 $114 $40 $-1 $115 reversed single #
loop $-1 $-1 $116 $52 #
plane-surface $-1 -183.76141767237624 -8.6968521255050888 120.98437367142721 0 1 0 -0.6560590369687036 0 0.75470957328743171 forward_v I I I I #
face $-1 $117 $118 $41 $-1 $119 forward single #
loop $-1 $120 $121 $53 #
cone-surface $-1 -72.725424663511149 -3.0021865916273711 4.7246258552546738 0.6560590369687036 0 -0.75470957328743171 1.1320643599311475 0 0.9840885554530554 1 I I 0 1 1.5 forward I I I I #
face $-1 $122 $123 $42 $-1 $124 reversed single #
loop $-1 $-1 $125 $54 #
plane-surface $-1 -183.76141767237624 8.0079759265592045 120.98437367142721 0 1 0 -0.6560590369687036 0 0.75470957328743171 forward_v I I I I #
face $-1 $126 $127 $43 $-1 $128 forward single #
loop $-1 $129 $130 $55 #
cone-surface $-1 -72.725424663511149 13.702641460436922 4.7246258552546738 0.6560590369687036 0 -0.75470957328743171 1.1320643599311475 0 0.9840885554530554 1 I I 0 1 1.5 forward I I I I #
face $-1 $131 $132 $44 $-1 $133 reversed single #
loop $-1 $-1 $134 $56 #
plane-surface $-1 -183.76141767237624 24.712803978623505 120.98437367142721 0 1 0 -0.6560590369687036 0 0.75470957328743171 forward_v I I I I #
face $-1 $135 $136 $45 $-1 $137 forward single #
loop $-1 $138 $139 $57 #
cone-surface $-1 -72.725424663511149 30.407469512501223 4.7246258552546738 0.6560590369687036 0 -0.75470957328743171 1.1320643599311475 0 0.9840885554530554 1 I I 0 1 1.5 forward I I I I #
face $-1 $140 $141 $46 $-1 $142 reversed single #
loop $-1 $-1 $143 $58 #
plane-surface $-1 63.796522556066478 15.703007006686232 230.76106736156973 0 -1 0 -0.6560590369687036 0 -0.75470957328743171 forward_v I I I I #
face $-1 $144 $145 $47 $-1 $146 forward single #
loop $-1 $147 $148 $59 #
cone-surface $-1 75.310101030127754 7.7215791366490549 6.809914623759882 -0.6560590369687036 0 -0.75470957328743171 1.1320643599311475 0 -0.9840885554530554 1 I I 0 1 1.5 forward I I I I #
face $-1 $149 $150 $36 $-1 $151 reversed single #
loop $-1 $-1 $152 $60 #
plane-surface $-1 0 0 -10.895356609674746 0 0 1 1 0 0 forward_v I I I I #
coedge $-1 $153 $154 $155 $156 forward $61 $-1 #
face $-1 $157 $158 $37 $-1 $159 reversed single #
loop $-1 $-1 $160 $63 #
plane-surface $-1 0 -33.409656104128587 -7.6909548300673283 0 0 1 1 0 0 forward_v I I I I #
coedge $-1 $161 $162 $163 $164 reversed $64 $-1 #
face $-1 $165 $166 $38 $-1 $167 reversed single #
loop $-1 $-1 $168 $66 #
plane-surface $-1 -79.4775231177709 -19.707014643691664 1.0194785551174306 -0.6560590369687036 0 0.75470957328743171 0.75470957328743171 0 0.6560590369687036 forward_v I I I I #
coedge $-1 $169 $170 $171 $172 reversed $67 $-1 #
face $-1 $-1 $173 $39 $-1 $174 forward single #
loop $-1 $175 $176 $69 #
cone-surface $-1 -71.161730864011076 -19.707014643691664 2.9258019481476722 0.6560590369687036 0 -0.75470957328743171 0.56603217996557376 0 0.4920442777265277 1 I I -0.70710678118654768 0.70710678118654735 0.75 forward I I I I #
loop $-1 $-1 $177 $51 #
coedge $-1 $112 $112 $178 $179 reversed $70 $-1 #
face $-1 $180 $181 $40 $-1 $182 reversed single #
loop $-1 $-1 $183 $72 #
plane-surface $-1 -79.4775231177709 -3.0021865916273711 1.0194785551174306 -0.6560590369687036 0 0.75470957328743171 0.75470957328743171 0 0.6560590369687036 forward_v I I I I #
coedge $-1 $184 $185 $186 $187 reversed $73 $-1 #
face $-1 $-1 $188 $41 $-1 $189 forward single #
loop $-1 $190 $191 $75 #
cone-surface $-1 -71.161730864011076 -3.0021865916273711 2.9258019481476722 0.6560590369687036 0 -0.75470957328743171 0.56603217996557376 0 0.4920442777265277 1 I I -0.70710678118654768 0.70710678118654735 0.75 forward I I I I #
loop $-1 $-1 $192 $53 #
coedge $-1 $121 $121 $193 $194 reversed $76 $-1 #
face $-1 $195 $196 $42 $-1 $197 reversed single #
loop $-1 $-1 $198 $78 #
plane-surface $-1 -79.4775231177709 13.702641460436922 1.0194785551174306 -0.6560590369687036 0 0.75470957328743171 0.75470957328743171 0 0.6560590369687036 forward_v I I I I #
coedge $-1 $199 $200 $201 $202 reversed $79 $-1 #
face $-1 $-1 $203 $43 $-1 $204 forward single #
loop $-1 $205 $206 $81 #
cone-surface $-1 -71.161730864011076 13.702641460436922 2.9258019481476722 0.6560590369687036 0 -0.75470957328743171 0.56603217996557376 0 0.4920442777265277 1 I I -0.70710678118654768 0.70710678118654735 0.75 forward I I I I #
loop $-1 $-1 $207 $55 #
coedge $-1 $130 $130 $208 $209 reversed $82 $-1 #
face $-1 $210 $211 $44 $-1 $212 reversed single #
loop $-1 $-1 $213 $84 #
plane-surface $-1 -79.4775231177709 30.407469512501223 1.0194785551174306 -0.6560590369687036 0 0.75470957328743171 0.75470957328743171 0 0.6560590369687036 forward_v I I I I #
coedge $-1 $214 $215 $216 $217 reversed $85 $-1 #
face $-1 $-1 $218 $45 $-1 $219 forward single #
loop $-1 $220 $221 $87 #
cone-surface $-1 -71.161730864011076 30.407469512501223 2.9258019481476722 0.6560590369687036 0 -0.75470957328743171 0.56603217996557376 0 0.4920442777265277 1 I I -0.70710678118654768 0.70710678118654735 0.75 forward I I I I #
loop $-1 $-1 $222 $57 #
coedge $-1 $139 $139 $223 $224 reversed $88 $-1 #
face $-1 $225 $226 $46 $-1 $227 reversed single #
loop $-1 $-1 $228 $90 #
plane-surface $-1 -40.487371998538862 7.7215791366490549 110.79617224525995 0.6560590369687036 0 0.75470957328743171 0.75470957328743171 0 -0.6560590369687036 forward_v I I I I #
coedge $-1 $229 $230 $231 $232 reversed $91 $-1 #
face $-1 $-1 $233 $47 $-1 $234 forward single #
loop $-1 $235 $236 $93 #
cone-surface $-1 73.171712368331114 7.7215791366490549 4.3499799173895219 -0.6560590369687036 0 -0.75470957328743171 0.56603217996557376 0 -0.4920442777265277 1 I I -0.70710678118654757 0.70710678118654757 0.75 forward I I I I #
loop $-1 $-1 $237 $59 #
coedge $-1 $148 $148 $238 $239 reversed $94 $-1 #
face $-1 $240 $241 $36 $-1 $242 reversed single #
loop $-1 $-1 $243 $96 #
plane-surface $-1 0 -38.213342256271062 0 0 1 0 0 0 1 forward_v I I I I #
coedge $-1 $244 $245 $246 $247 forward $97 $-1 #
coedge $-1 $248 $99 $249 $250 forward $61 $-1 #
coedge $-1 $99 $248 $251 $252 forward $61 $-1 #
coedge $-1 $253 $254 $99 $156 reversed $255 $-1 #
edge $-1 $256 -38.213342256271062 $257 38.213342256271062 $155 $258 forward 7 unknown #
face $-1 $259 $260 $37 $-1 $261 reversed single #
loop $-1 $-1 $262 $100 #
plane-surface $-1 0 -28.605969951986111 -4.7021217981332661 0 -1 0 0 0 -1 forward_v I I I I #
coedge $-1 $263 $264 $265 $266 reversed $101 $-1 #
coedge $-1 $267 $103 $268 $269 forward $64 $-1 #
coedge $-1 $103 $267 $270 $271 reversed $64 $-1 #
coedge $-1 $272 $273 $103 $164 forward $274 $-1 #
edge $-1 $275 11.901141899921818 $276 21.508514204206769 $163 $277 forward 7 unknown #
face $-1 $278 $279 $38 $-1 $280 reversed single #
loop $-1 $-1 $281 $104 #
plane-surface $-1 -183.76141767237624 -14.012349109813947 120.98437367142721 0 -1 0 0.6560590369687036 0 -0.75470957328743171 forward_v I I I I #
coedge $-1 $282 $283 $284 $285 reversed $105 $-1 #
coedge $-1 $170 $107 $286 $287 reversed $67 $-1 #
coedge $-1 $107 $169 $282 $288 reversed $67 $-1 #
coedge $-1 $284 $289 $107 $172 forward $290 $-1 #
edge $-1 $291 12.403185718417191 $292 23.76408358338972 $171 $293 forward 7 unknown #
loop $-1 $-1 $178 $108 #
plane-surface $-1 -79.4775231177709 -19.707014643691664 1.0194785551174306 -0.6560590369687036 0 0.75470957328743171 0.75470957328743171 0 0.6560590369687036 forward_v I I I I #
loop $-1 $-1 $294 $69 #
coedge $-1 $176 $176 $177 $295 reversed $109 $-1 #
coedge $-1 $177 $177 $176 $295 forward $111 $-1 #
coedge $-1 $178 $178 $112 $179 forward $173 $-1 #
edge $-1 $296 0 $296 6.2831853071796004 $178 $297 forward 7 unknown #
face $-1 $298 $299 $40 $-1 $300 forward single #
loop $-1 $-1 $301 $113 #
plane-surface $-1 -183.76141767237624 2.6924789422503466 120.98437367142721 0 -1 0 0.6560590369687036 0 -0.75470957328743171 forward_v I I I I #
coedge $-1 $302 $303 $304 $305 reversed $114 $-1 #
coedge $-1 $185 $116 $306 $307 reversed $73 $-1 #
coedge $-1 $116 $184 $302 $308 reversed $73 $-1 #
coedge $-1 $304 $309 $116 $187 forward $299 $-1 #
edge $-1 $310 12.403185718417191 $311 23.76408358338972 $186 $312 forward 7 unknown #
loop $-1 $-1 $193 $117 #
plane-surface $-1 -79.4775231177709 -3.0021865916273711 1.0194785551174306 -0.6560590369687036 0 0.75470957328743171 0.75470957328743171 0 0.6560590369687036 forward_v I I I I #
loop $-1 $-1 $313 $75 #
coedge $-1 $191 $191 $192 $314 reversed $118 $-1 #
coedge $-1 $192 $192 $191 $314 forward $120 $-1 #
coedge $-1 $193 $193 $121 $194 forward $188 $-1 #
edge $-1 $315 0 $315 6.2831853071796004 $193 $316 forward 7 unknown #
face $-1 $317 $318 $42 $-1 $319 forward single #
loop $-1 $-1 $320 $122 #
plane-surface $-1 -183.76141767237624 19.39730699431464 120.98437367142721 0 -1 0 0.6560590369687036 0 -0.75470957328743171 forward_v I I I I #
coedge $-1 $321 $322 $323 $324 reversed $123 $-1 #
coedge $-1 $200 $125 $325 $326 reversed $79 $-1 #
coedge $-1 $125 $199 $321 $327 reversed $79 $-1 #
coedge $-1 $323 $328 $125 $202 forward $318 $-1 #
edge $-1 $329 12.403185718417191 $330 23.76408358338972 $201 $331 forward 7 unknown #
loop $-1 $-1 $208 $126 #
plane-surface $-1 -79.4775231177709 13.702641460436922 1.0194785551174306 -0.6560590369687036 0 0.75470957328743171 0.75470957328743171 0 0.6560590369687036 forward_v I I I I #
loop $-1 $-1 $332 $81 #
coedge $-1 $206 $206 $207 $333 reversed $127 $-1 #
coedge $-1 $207 $207 $206 $333 forward $129 $-1 #
coedge $-1 $208 $208 $130 $209 forward $203 $-1 #
edge $-1 $334 0 $334 6.2831853071796004 $208 $335 forward 7 unknown #
face $-1 $336 $337 $44 $-1 $338 forward single #
loop $-1 $-1 $339 $131 #
plane-surface $-1 -183.76141767237624 36.10213504637894 120.98437367142721 0 -1 0 0.6560590369687036 0 -0.75470957328743171 forward_v I I I I #
coedge $-1 $340 $341 $342 $343 reversed $132 $-1 #
coedge $-1 $215 $134 $344 $345 reversed $85 $-1 #
coedge $-1 $134 $214 $340 $346 reversed $85 $-1 #
coedge $-1 $342 $347 $134 $217 forward $337 $-1 #
edge $-1 $348 12.403185718417191 $349 23.76408358338972 $216 $350 forward 7 unknown #
loop $-1 $-1 $223 $135 #
plane-surface $-1 -79.4775231177709 30.407469512501223 1.0194785551174306 -0.6560590369687036 0 0.75470957328743171 0.75470957328743171 0 0.6560590369687036 forward_v I I I I #
loop $-1 $-1 $351 $87 #
coedge $-1 $221 $221 $222 $352 reversed $136 $-1 #
coedge $-1 $222 $222 $221 $352 forward $138 $-1 #
coedge $-1 $223 $223 $139 $224 forward $218 $-1 #
edge $-1 $353 0 $353 6.2831853071796004 $223 $354 forward 7 unknown #
face $-1 $355 $356 $46 $-1 $357 forward single #
loop $-1 $-1 $358 $140 #
plane-surface $-1 63.796522556066478 -0.25984873338812164 230.76106736156973 0 1 0 0.6560590369687036 0 0.75470957328743171 forward_v I I I I #
coedge $-1 $359 $360 $361 $362 reversed $141 $-1 #
coedge $-1 $230 $143 $363 $364 reversed $91 $-1 #
coedge $-1 $143 $229 $359 $365 reversed $91 $-1 #
coedge $-1 $361 $366 $143 $232 forward $356 $-1 #
edge $-1 $367 -47.57926183973769 $368 -42.53710643259155 $231 $369 forward 7 unknown #
loop $-1 $-1 $238 $144 #
plane-surface $-1 -40.487371998538862 7.7215791366490549 110.79617224525995 0.6560590369687036 0 0.75470957328743171 0.75470957328743171 0 -0.6560590369687036 forward_v I I I I #
loop $-1 $-1 $370 $93 #
coedge $-1 $236 $236 $237 $371 reversed $145 $-1 #
coedge $-1 $237 $237 $236 $371 forward $147 $-1 #
coedge $-1 $238 $238 $148 $239 forward $233 $-1 #
edge $-1 $372 0 $372 6.2831853071796004 $238 $373 forward 7 unknown #
face $-1 $374 $375 $36 $-1 $376 reversed single #
loop $-1 $-1 $377 $149 #
plane-surface $-1 -79.477523117770929 0 0 1 0 0 0 0 -1 forward_v I I I I #
coedge $-1 $378 $251 $379 $380 forward $150 $-1 #
coedge $-1 $381 $152 $378 $382 forward $97 $-1 #
coedge $-1 $152 $381 $383 $384 forward $97 $-1 #
coedge $-1 $254 $253 $152 $247 reversed $255 $-1 #
edge $-1 $385 -38.213342256271062 $386 38.213342256271062 $246 $387 forward 7 unknown #
coedge $-1 $154 $153 $388 $389 forward $61 $-1 #
coedge $-1 $390 $391 $153 $250 reversed $375 $-1 #
edge $-1 $257 -79.477523117770929 $392 79.477523117770929 $249 $393 forward 7 unknown #
coedge $-1 $243 $394 $154 $252 reversed $150 $-1 #
edge $-1 $395 -79.477523117770929 $256 79.477523117770929 $251 $396 forward 7 unknown #
coedge $-1 $246 $155 $394 $397 forward $255 $-1 #
coedge $-1 $155 $246 $390 $398 reversed $255 $-1 #
loop $-1 $-1 $253 $374 #
vertex $-1 $156 $399 #
vertex $-1 $156 $400 #
straight-curve $-1 79.477523117770929 0 10.895356609674746 0 1 0 I I #
face $-1 $401 $402 $37 $-1 $403 reversed single #
loop $-1 $-1 $404 $157 #
plane-surface $-1 -79.477523117770929 0 0 1 0 0 0 0 -1 forward_v I I I I #
coedge $-1 $405 $268 $273 $406 reversed $158 $-1 #
coedge $-1 $407 $160 $408 $409 reversed $101 $-1 #
coedge $-1 $160 $407 $405 $410 forward $101 $-1 #
coedge $-1 $273 $272 $160 $266 forward $274 $-1 #
edge $-1 $411 -21.508514204206769 $412 -11.901141899921818 $265 $413 forward 7 unknown #
coedge $-1 $162 $161 $404 $414 reversed $64 $-1 #
coedge $-1 $262 $415 $161 $269 reversed $158 $-1 #
edge $-1 $275 -79.477523117770929 $416 79.477523117770929 $268 $417 forward 7 unknown #
coedge $-1 $418 $419 $162 $271 forward $402 $-1 #
edge $-1 $276 -79.477523117770929 $420 79.477523117770929 $270 $421 forward 7 unknown #
coedge $-1 $265 $163 $419 $422 forward $274 $-1 #
coedge $-1 $163 $265 $262 $406 forward $274 $-1 #
loop $-1 $-1 $163 $401 #
vertex $-1 $164 $423 #
vertex $-1 $422 $424 #
straight-curve $-1 79.477523117770929 -16.704828052064293 -1.7132887661992044 0 -1 0 I I #
face $-1 $-1 $290 $38 $-1 $425 forward single #
loop $-1 $-1 $426 $165 #
plane-surface $-1 -79.477523117770929 0 0 1 0 0 0 0 -1 forward_v I I I I #
coedge $-1 $427 $428 $429 $430 reversed $166 $-1 #
coedge $-1 $431 $168 $170 $288 forward $105 $-1 #
coedge $-1 $168 $431 $427 $432 forward $105 $-1 #
coedge $-1 $429 $171 $168 $285 forward $290 $-1 #
edge $-1 $292 -15.54817285572355 $433 -4.1588417879681145 $284 $434 forward 7 unknown #
coedge $-1 $435 $436 $169 $287 forward $279 $-1 #
edge $-1 $437 -59.472708280596194 $291 -49.596830226038861 $286 $438 forward 7 unknown #
edge $-1 $292 -15.053337425528715 $437 3.7619991229824152e-014 $170 $439 forward 7 unknown #
coedge $-1 $171 $429 $435 $440 forward $290 $-1 #
loop $-1 $-1 $429 $278 #
vertex $-1 $287 $441 #
vertex $-1 $172 $442 #
straight-curve $-1 -91.88070883618812 -25.401680177569382 10.895356609674749 1 0 0 I I #
coedge $-1 $294 $294 $-1 $443 reversed $175 $-1 #
edge $-1 $444 0 $444 6.2831853071796004 $176 $445 forward 7 unknown #
vertex $-1 $179 $446 #
ellipse-curve $-1 -73.797074185284671 -19.707014643691664 5.9574175823960731 -0.6560590369687036 0 0.75470957328743171 1.1320643599311475 0 0.9840885554530554 1 I I #
face $-1 $-1 $447 $40 $-1 $448 reversed single #
loop $-1 $-1 $186 $180 #
plane-surface $-1 0 0 10.895356609674746 0 0 1 1 0 0 forward_v I I I I #
coedge $-1 $449 $450 $451 $452 reversed $181 $-1 #
coedge $-1 $453 $183 $185 $308 forward $114 $-1 #
coedge $-1 $183 $453 $449 $454 forward $114 $-1 #
coedge $-1 $451 $186 $183 $305 forward $299 $-1 #
edge $-1 $311 -7.1957588296914032 $455 4.1935722380640321 $304 $456 forward 7 unknown #
coedge $-1 $457 $458 $184 $307 forward $447 $-1 #
edge $-1 $459 -59.472708280596194 $310 -49.596830226038861 $306 $460 forward 7 unknown #
edge $-1 $311 -15.053337425528715 $459 3.7619991229824152e-014 $185 $461 forward 7 unknown #
coedge $-1 $186 $451 $457 $462 forward $299 $-1 #
vertex $-1 $187 $463 #
vertex $-1 $187 $464 #
straight-curve $-1 -91.88070883618812 -8.6968521255050888 10.895356609674749 1 0 0 I I #
coedge $-1 $313 $313 $-1 $465 reversed $190 $-1 #
edge $-1 $466 0 $466 6.2831853071796004 $191 $467 forward 7 unknown #
vertex $-1 $194 $468 #
ellipse-curve $-1 -73.797074185284671 -3.0021865916273711 5.9574175823960731 -0.6560590369687036 0 0.75470957328743171 1.1320643599311475 0 0.9840885554530554 1 I I #
face $-1 $-1 $469 $42 $-1 $470 reversed single #
loop $-1 $-1 $201 $195 #
plane-surface $-1 0 0 10.895356609674746 0 0 1 1 0 0 forward_v I I I I #
coedge $-1 $471 $472 $473 $474 reversed $196 $-1 #
coedge $-1 $475 $198 $200 $327 forward $123 $-1 #
coedge $-1 $198 $475 $471 $476 forward $123 $-1 #
coedge $-1 $473 $201 $198 $324 forward $318 $-1 #
edge $-1 $330 1.1566551963407434 $477 12.545986264096179 $323 $478 forward 7 unknown #
coedge $-1 $479 $480 $199 $326 forward $469 $-1 #
edge $-1 $481 -59.472708280596194 $329 -49.596830226038861 $325 $482 forward 7 unknown #
edge $-1 $330 -15.053337425528715 $481 3.7619991229824152e-014 $200 $483 forward 7 unknown #
coedge $-1 $201 $473 $479 $484 forward $318 $-1 #
vertex $-1 $202 $485 #
vertex $-1 $202 $486 #
straight-curve $-1 -91.88070883618812 8.0079759265592045 10.895356609674749 1 0 0 I I #
coedge $-1 $332 $332 $-1 $487 reversed $205 $-1 #
edge $-1 $488 0 $488 6.2831853071796004 $206 $489 forward 7 unknown #
vertex $-1 $209 $490 #
ellipse-curve $-1 -73.797074185284671 13.702641460436922 5.9574175823960731 -0.6560590369687036 0 0.75470957328743171 1.1320643599311475 0 0.9840885554530554 1 I I #
face $-1 $-1 $491 $44 $-1 $492 reversed single #
loop $-1 $-1 $216 $210 #
plane-surface $-1 0 0 10.895356609674746 0 0 1 1 0 0 forward_v I I I I #
coedge $-1 $493 $494 $495 $496 reversed $211 $-1 #
coedge $-1 $497 $213 $215 $346 forward $132 $-1 #
coedge $-1 $213 $497 $493 $498 forward $132 $-1 #
coedge $-1 $495 $216 $213 $343 forward $337 $-1 #
edge $-1 $349 9.5090692223728936 $499 20.898400290128329 $342 $500 forward 7 unknown #
coedge $-1 $501 $502 $214 $345 forward $491 $-1 #
edge $-1 $503 -59.472708280596194 $348 -49.596830226038861 $344 $504 forward 7 unknown #
edge $-1 $349 -15.053337425528715 $503 3.7619991229824152e-014 $215 $505 forward 7 unknown #
coedge $-1 $216 $495 $501 $506 forward $337 $-1 #
vertex $-1 $217 $507 #
vertex $-1 $217 $508 #
straight-curve $-1 -91.88070883618812 24.712803978623505 10.895356609674749 1 0 0 I I #
coedge $-1 $351 $351 $-1 $509 reversed $220 $-1 #
edge $-1 $510 0 $510 6.2831853071796004 $221 $511 forward 7 unknown #
vertex $-1 $224 $512 #
ellipse-curve $-1 -73.797074185284671 30.407469512501223 5.9574175823960731 -0.6560590369687036 0 0.75470957328743171 1.1320643599311475 0 0.9840885554530554 1 I I #
face $-1 $-1 $513 $46 $-1 $514 reversed single #
loop $-1 $-1 $231 $225 #
plane-surface $-1 0 0 10.895356609674746 0 0 1 1 0 0 forward_v I I I I #
coedge $-1 $515 $516 $517 $518 reversed $226 $-1 #
coedge $-1 $519 $228 $230 $365 forward $141 $-1 #
coedge $-1 $228 $519 $515 $520 forward $141 $-1 #
coedge $-1 $517 $231 $228 $362 forward $356 $-1 #
edge $-1 $368 -11.842217438361704 $521 4.1206383017126491 $361 $522 forward 7 unknown #
coedge $-1 $523 $524 $229 $364 forward $513 $-1 #
edge $-1 $525 -108.86825599013028 $367 -104.48517707111012 $363 $526 forward 7 unknown #
edge $-1 $368 152.27412474519554 $525 158.95504623554189 $230 $527 forward 7 unknown #
coedge $-1 $231 $517 $523 $528 forward $356 $-1 #
vertex $-1 $364 $529 #
vertex $-1 $232 $530 #
straight-curve $-1 31.898261278033239 15.703007006686232 10.895356609674749 -1 0 0 I I #
coedge $-1 $370 $370 $-1 $531 reversed $235 $-1 #
edge $-1 $532 0 $532 6.2831853071796004 $236 $533 forward 7 unknown #
vertex $-1 $239 $534 #
ellipse-curve $-1 76.956445414197873 7.7215791366490549 8.7038171501646691 0.6560590369687036 0 0.75470957328743171 1.1320643599311475 0 -0.9840885554530554 1 I I #
face $-1 $-1 $255 $36 $-1 $535 reversed single #
loop $-1 $-1 $390 $240 #
plane-surface $-1 0 38.213342256271062 0 0 -1 0 0 0 -1 forward_v I I I I #
coedge $-1 $536 $388 $391 $537 forward $241 $-1 #
coedge $-1 $394 $243 $244 $382 reversed $150 $-1 #
coedge $-1 $388 $536 $243 $380 reversed $241 $-1 #
edge $-1 $395 -10.895356609674746 $538 10.895356609674746 $379 $539 forward 7 unknown #
coedge $-1 $245 $244 $536 $540 forward $97 $-1 #
edge $-1 $386 -79.477523117770929 $538 79.477523117770929 $378 $541 forward 7 unknown #
coedge $-1 $391 $390 $245 $384 reversed $375 $-1 #
edge $-1 $542 -79.477523117770929 $385 79.477523117770929 $383 $543 forward 7 unknown #
vertex $-1 $247 $544 #
vertex $-1 $397 $545 #
straight-curve $-1 79.477523117770929 0 -10.895356609674746 0 -1 0 I I #
coedge $-1 $377 $379 $248 $389 reversed $241 $-1 #
edge $-1 $392 -38.213342256271062 $395 38.213342256271062 $388 $546 forward 7 unknown #
coedge $-1 $383 $249 $254 $398 forward $375 $-1 #
coedge $-1 $249 $383 $377 $537 reversed $375 $-1 #
vertex $-1 $250 $547 #
straight-curve $-1 0 38.213342256271062 10.895356609674746 -1 0 0 I I #
coedge $-1 $251 $378 $253 $397 reversed $150 $-1 #
vertex $-1 $389 $548 #
straight-curve $-1 0 -38.213342256271062 10.895356609674746 1 0 0 I I #
edge $-1 $256 -10.895356609674746 $386 10.895356609674746 $253 $549 forward 7 unknown #
edge $-1 $257 -10.895356609674746 $385 10.895356609674746 $254 $550 forward 7 unknown #
point $-1 79.477523117770929 -38.213342256271062 10.895356609674746 #
point $-1 79.477523117770929 38.213342256271062 10.895356609674746 #
face $-1 $-1 $274 $37 $-1 $551 reversed single #
loop $-1 $-1 $270 $259 #
plane-surface $-1 0 -38.213342256271062 0 0 1 0 0 0 1 forward_v I I I I #
coedge $-1 $552 $553 $267 $414 forward $260 $-1 #
coedge $-1 $415 $262 $264 $410 reversed $158 $-1 #
edge $-1 $412 -5.3398939310006952 $275 0.63777213286742862 $273 $554 forward 7 unknown #
coedge $-1 $264 $263 $555 $556 reversed $101 $-1 #
coedge $-1 $419 $418 $263 $409 forward $402 $-1 #
edge $-1 $557 -79.477523117770929 $411 79.477523117770929 $408 $558 forward 7 unknown #
edge $-1 $559 -79.477523117770929 $412 79.477523117770929 $405 $560 forward 7 unknown #
vertex $-1 $409 $561 #
vertex $-1 $266 $562 #
straight-curve $-1 79.477523117770929 -16.704828052064293 -7.6909548300673283 0 1 0 I I #
edge $-1 $420 -21.508514204206769 $416 -11.901141899921818 $404 $563 forward 7 unknown #
coedge $-1 $268 $405 $552 $564 reversed $158 $-1 #
vertex $-1 $414 $565 #
straight-curve $-1 0 -28.605969951986111 -1.7132887661992044 -1 0 0 I I #
coedge $-1 $408 $270 $553 $566 forward $402 $-1 #
coedge $-1 $270 $408 $272 $422 reversed $402 $-1 #
vertex $-1 $566 $567 #
straight-curve $-1 0 -38.213342256271062 -1.7132887661992044 -1 0 0 I I #
edge $-1 $276 1.7132887661992044 $411 7.6909548300673283 $272 $568 forward 7 unknown #
point $-1 79.477523117770929 -28.605969951986111 -1.7132887661992044 #
point $-1 79.477523117770929 -38.213342256271062 -1.7132887661992044 #
plane-surface $-1 0 0 10.895356609674746 0 0 1 1 0 0 forward_v I I I I #
coedge $-1 $436 $435 $428 $569 forward $279 $-1 #
coedge $-1 $428 $281 $283 $432 reversed $166 $-1 #
coedge $-1 $281 $427 $426 $569 reversed $166 $-1 #
coedge $-1 $289 $284 $281 $430 forward $290 $-1 #
edge $-1 $433 -23.76408358338972 $570 -12.403185718417191 $429 $571 forward 7 unknown #
coedge $-1 $283 $282 $436 $572 reversed $105 $-1 #
edge $-1 $573 -3.7619991229824152e-014 $433 15.053337425528715 $427 $574 forward 7 unknown #
vertex $-1 $285 $575 #
straight-curve $-1 -68.1166252527984 -9.8535073218458322 10.895356609674746 0 1 0 I I #
coedge $-1 $426 $286 $289 $440 reversed $279 $-1 #
coedge $-1 $286 $426 $431 $572 forward $279 $-1 #
vertex $-1 $287 $576 #
straight-curve $-1 -79.477523117770929 -25.401680177569382 60.492186835713603 0 0 1 I I #
straight-curve $-1 -79.4775231177709 -25.401680177569382 1.0194785551174306 -0.75470957328743171 0 -0.6560590369687036 I I #
edge $-1 $570 14.012349109813947 $291 25.401680177569382 $435 $577 forward 7 unknown #
point $-1 -79.477523117770929 -25.401680177569382 10.895356609674746 #
point $-1 -68.1166252527984 -25.401680177569382 10.895356609674746 #
edge $-1 $578 1 $578 0 $294 $-1 forward 7 unknown #
vertex $-1 $295 $579 #
ellipse-curve $-1 -71.653775141737597 -19.707014643691664 3.4918341281132457 -0.6560590369687036 0 0.75470957328743171 1.1320643599311475 0 0.9840885554530554 1 I I #
point $-1 -72.665009825353536 -19.707014643691664 6.9415061378491583 #
loop $-1 $-1 $306 $298 #
plane-surface $-1 -79.477523117770929 0 0 1 0 0 0 0 -1 forward_v I I I I #
coedge $-1 $450 $301 $303 $454 reversed $181 $-1 #
coedge $-1 $301 $449 $580 $581 reversed $181 $-1 #
coedge $-1 $309 $304 $301 $452 forward $299 $-1 #
edge $-1 $455 -23.76408358338972 $582 -12.403185718417191 $451 $583 forward 7 unknown #
coedge $-1 $303 $302 $458 $584 reversed $114 $-1 #
edge $-1 $585 -3.7619991229824152e-014 $455 15.053337425528715 $449 $586 forward 7 unknown #
vertex $-1 $305 $587 #
straight-curve $-1 -68.1166252527984 -1.5010932958136856 10.895356609674746 0 1 0 I I #
coedge $-1 $580 $306 $309 $462 reversed $447 $-1 #
coedge $-1 $306 $580 $453 $584 forward $447 $-1 #
vertex $-1 $307 $588 #
straight-curve $-1 -79.477523117770929 -8.6968521255050888 60.492186835713603 0 0 1 I I #
straight-curve $-1 -79.4775231177709 -8.6968521255050888 1.0194785551174306 -0.75470957328743171 0 -0.6560590369687036 I I #
edge $-1 $582 -2.6924789422503466 $310 8.6968521255050888 $457 $589 forward 7 unknown #
point $-1 -79.477523117770929 -8.6968521255050888 10.895356609674746 #
point $-1 -68.1166252527984 -8.6968521255050888 10.895356609674746 #
edge $-1 $590 1 $590 0 $313 $-1 forward 7 unknown #
vertex $-1 $314 $591 #
ellipse-curve $-1 -71.653775141737597 -3.0021865916273711 3.4918341281132457 -0.6560590369687036 0 0.75470957328743171 1.1320643599311475 0 0.9840885554530554 1 I I #
point $-1 -72.665009825353536 -3.0021865916273711 6.9415061378491583 #
loop $-1 $-1 $325 $317 #
plane-surface $-1 -79.477523117770929 0 0 1 0 0 0 0 -1 forward_v I I I I #
coedge $-1 $472 $320 $322 $476 reversed $196 $-1 #
coedge $-1 $320 $471 $592 $593 reversed $196 $-1 #
coedge $-1 $328 $323 $320 $474 forward $318 $-1 #
edge $-1 $477 -23.76408358338972 $594 -12.403185718417191 $473 $595 forward 7 unknown #
coedge $-1 $322 $321 $480 $596 reversed $123 $-1 #
edge $-1 $597 -3.7619991229824152e-014 $477 15.053337425528715 $471 $598 forward 7 unknown #
vertex $-1 $324 $599 #
straight-curve $-1 -68.1166252527984 6.8513207302184611 10.895356609674746 0 1 0 I I #
coedge $-1 $592 $325 $328 $484 reversed $469 $-1 #
coedge $-1 $325 $592 $475 $596 forward $469 $-1 #
vertex $-1 $326 $600 #
straight-curve $-1 -79.477523117770929 8.0079759265592045 60.492186835713603 0 0 1 I I #
straight-curve $-1 -79.4775231177709 8.0079759265592045 1.0194785551174306 -0.75470957328743171 0 -0.6560590369687036 I I #
edge $-1 $594 -19.39730699431464 $329 -8.0079759265592045 $479 $601 forward 7 unknown #
point $-1 -79.477523117770929 8.0079759265592045 10.895356609674746 #
point $-1 -68.1166252527984 8.0079759265592045 10.895356609674746 #
edge $-1 $602 1 $602 0 $332 $-1 forward 7 unknown #
vertex $-1 $333 $603 #
ellipse-curve $-1 -71.653775141737597 13.702641460436922 3.4918341281132457 -0.6560590369687036 0 0.75470957328743171 1.1320643599311475 0 0.9840885554530554 1 I I #
point $-1 -72.665009825353536 13.702641460436922 6.9415061378491583 #
loop $-1 $-1 $344 $336 #
plane-surface $-1 -79.477523117770929 0 0 1 0 0 0 0 -1 forward_v I I I I #
coedge $-1 $494 $339 $341 $498 reversed $211 $-1 #
coedge $-1 $339 $493 $604 $605 reversed $211 $-1 #
coedge $-1 $347 $342 $339 $496 forward $337 $-1 #
edge $-1 $499 -23.76408358338972 $606 -12.403185718417191 $495 $607 forward 7 unknown #
coedge $-1 $341 $340 $502 $608 reversed $132 $-1 #
edge $-1 $609 -3.7619991229824152e-014 $499 15.053337425528715 $493 $610 forward 7 unknown #
vertex $-1 $343 $611 #
straight-curve $-1 -68.1166252527984 15.203734756250611 10.895356609674746 0 1 0 I I #
coedge $-1 $604 $344 $347 $506 reversed $491 $-1 #
coedge $-1 $344 $604 $497 $608 forward $491 $-1 #
vertex $-1 $345 $612 #
straight-curve $-1 -79.477523117770929 24.712803978623505 60.492186835713603 0 0 1 I I #
straight-curve $-1 -79.4775231177709 24.712803978623505 1.0194785551174306 -0.75470957328743171 0 -0.6560590369687036 I I #
edge $-1 $606 -36.10213504637894 $348 -24.712803978623505 $501 $613 forward 7 unknown #
point $-1 -79.477523117770929 24.712803978623505 10.895356609674746 #
point $-1 -68.1166252527984 24.712803978623505 10.895356609674746 #
edge $-1 $614 1 $614 0 $351 $-1 forward 7 unknown #
vertex $-1 $352 $615 #
ellipse-curve $-1 -71.653775141737597 30.407469512501223 3.4918341281132457 -0.6560590369687036 0 0.75470957328743171 1.1320643599311475 0 0.9840885554530554 1 I I #
point $-1 -72.665009825353536 30.407469512501223 6.9415061378491583 #
loop $-1 $-1 $363 $355 #
plane-surface $-1 79.477523117770929 0 0 -1 0 0 0 0 1 forward_v I I I I #
coedge $-1 $516 $358 $360 $520 reversed $226 $-1 #
coedge $-1 $358 $515 $616 $617 reversed $226 $-1 #
coedge $-1 $366 $361 $358 $518 forward $356 $-1 #
edge $-1 $521 42.53710643259155 $618 47.57926183973769 $517 $619 forward 7 unknown #
coedge $-1 $360 $359 $524 $620 reversed $141 $-1 #
edge $-1 $621 -158.95504623554189 $521 -152.27412474519554 $515 $622 forward 7 unknown #
vertex $-1 $362 $623 #
straight-curve $-1 74.435367710624774 3.8607895683245275 10.895356609674764 0 -1 0 I I #
coedge $-1 $616 $363 $366 $528 reversed $513 $-1 #
coedge $-1 $363 $616 $519 $620 forward $513 $-1 #
vertex $-1 $364 $624 #
straight-curve $-1 79.477523117770929 15.703007006686232 115.38053368078486 0 0 1 I I #
straight-curve $-1 -40.487371998538862 15.703007006686232 110.79617224525995 0.75470957328743171 0 -0.6560590369687036 I I #
edge $-1 $618 -0.25984873338812164 $367 15.703007006686232 $523 $625 forward 7 unknown #
point $-1 79.477523117770929 15.703007006686232 10.895356609674746 #
point $-1 74.435367710624789 15.703007006686232 10.895356609674749 #
edge $-1 $626 1 $626 0 $370 $-1 forward 7 unknown #
vertex $-1 $371 $627 #
ellipse-curve $-1 73.663756646057635 7.7215791366490549 4.9160120973550958 0.6560590369687036 0 0.75470957328743171 1.1320643599311475 0 -0.9840885554530554 1 I I #
point $-1 78.088509774129022 7.7215791366490549 7.7197285947116132 #
plane-surface $-1 79.477523117770929 0 0 -1 0 0 0 0 1 forward_v I I I I #
coedge $-1 $379 $377 $381 $540 reversed $241 $-1 #
edge $-1 $392 -10.895356609674746 $542 10.895356609674746 $391 $628 forward 7 unknown #
vertex $-1 $540 $629 #
straight-curve $-1 -79.477523117770929 -38.213342256271062 0 0 0 -1 I I #
edge $-1 $538 -38.213342256271062 $542 38.213342256271062 $536 $630 forward 7 unknown #
straight-curve $-1 0 -38.213342256271062 -10.895356609674746 -1 0 0 I I #
vertex $-1 $384 $631 #
straight-curve $-1 0 38.213342256271062 -10.895356609674746 1 0 0 I I #
point $-1 79.477523117770929 38.213342256271062 -10.895356609674746 #
point $-1 79.477523117770929 -38.213342256271062 -10.895356609674746 #
straight-curve $-1 -79.477523117770929 0 10.895356609674746 0 -1 0 I I #
point $-1 -79.477523117770929 38.213342256271062 10.895356609674746 #
point $-1 -79.477523117770929 -38.213342256271062 10.895356609674746 #
straight-curve $-1 79.477523117770929 -38.213342256271062 0 0 0 -1 I I #
straight-curve $-1 79.477523117770929 38.213342256271062 0 0 0 -1 I I #
plane-surface $-1 79.477523117770929 0 0 -1 0 0 0 0 1 forward_v I I I I #
coedge $-1 $555 $404 $415 $564 forward $260 $-1 #
coedge $-1 $404 $555 $418 $566 reversed $260 $-1 #
straight-curve $-1 79.477523117770929 -28.605969951986111 -2.3510608990666331 0 0 1 I I #
coedge $-1 $553 $552 $407 $556 forward $260 $-1 #
edge $-1 $559 11.901141899921818 $557 21.508514204206769 $555 $632 forward 7 unknown #
vertex $-1 $409 $633 #
straight-curve $-1 0 -38.213342256271062 -7.6909548300673283 1 0 0 I I #
vertex $-1 $556 $634 #
straight-curve $-1 0 -28.605969951986111 -7.6909548300673283 1 0 0 I I #
point $-1 79.477523117770929 -38.213342256271062 -7.6909548300673283 #
point $-1 79.477523117770929 -28.605969951986111 -7.6909548300673283 #
straight-curve $-1 -79.477523117770929 -16.704828052064293 -1.7132887661992044 0 1 0 I I #
edge $-1 $416 -0.63777213286742862 $559 5.3398939310006952 $552 $635 forward 7 unknown #
point $-1 -79.477523117770929 -28.605969951986111 -1.7132887661992044 #
edge $-1 $420 1.7132887661992044 $557 7.6909548300673283 $553 $636 forward 7 unknown #
point $-1 -79.477523117770929 -38.213342256271062 -1.7132887661992044 #
straight-curve $-1 79.477523117770929 -38.213342256271062 0 0 0 -1 I I #
edge $-1 $570 49.596830226038861 $573 59.472708280596194 $426 $637 forward 7 unknown #
vertex $-1 $440 $638 #
straight-curve $-1 -91.88070883618812 -14.012349109813947 10.895356609674749 -1 0 0 I I #
edge $-1 $573 4.1588417879681145 $437 15.54817285572355 $436 $639 forward 7 unknown #
vertex $-1 $572 $640 #
straight-curve $-1 -79.4775231177709 -14.012349109813947 1.0194785551174306 0.75470957328743171 0 0.6560590369687036 I I #
point $-1 -68.1166252527984 -14.012349109813947 10.895356609674746 #
point $-1 -79.477523117770929 -25.401680177569382 1.0194785551174059 #
straight-curve $-1 -79.477523117770929 0 10.895356609674746 0 -1 0 I I #
vertex $-1 $443 $641 #
point $-1 -70.521710781806462 -19.707014643691664 4.4759226835663011 #
coedge $-1 $458 $457 $450 $581 forward $447 $-1 #
edge $-1 $582 49.596830226038861 $585 59.472708280596194 $580 $642 forward 7 unknown #
vertex $-1 $462 $643 #
straight-curve $-1 -91.88070883618812 2.6924789422503466 10.895356609674749 -1 0 0 I I #
edge $-1 $585 -4.1935722380640321 $459 7.1957588296914032 $458 $644 forward 7 unknown #
vertex $-1 $584 $645 #
straight-curve $-1 -79.4775231177709 2.6924789422503466 1.0194785551174306 0.75470957328743171 0 0.6560590369687036 I I #
point $-1 -68.1166252527984 2.6924789422503466 10.895356609674746 #
point $-1 -79.477523117770929 -8.6968521255050888 1.0194785551174059 #
straight-curve $-1 -79.477523117770929 0 10.895356609674746 0 -1 0 I I #
vertex $-1 $465 $646 #
point $-1 -70.521710781806462 -3.0021865916273711 4.4759226835663011 #
coedge $-1 $480 $479 $472 $593 forward $469 $-1 #
edge $-1 $594 49.596830226038861 $597 59.472708280596194 $592 $647 forward 7 unknown #
vertex $-1 $484 $648 #
straight-curve $-1 -91.88070883618812 19.39730699431464 10.895356609674749 -1 0 0 I I #
edge $-1 $597 -12.545986264096179 $481 -1.1566551963407434 $480 $649 forward 7 unknown #
vertex $-1 $596 $650 #
straight-curve $-1 -79.4775231177709 19.39730699431464 1.0194785551174306 0.75470957328743171 0 0.6560590369687036 I I #
point $-1 -68.1166252527984 19.39730699431464 10.895356609674746 #
point $-1 -79.477523117770929 8.0079759265592045 1.0194785551174059 #
straight-curve $-1 -79.477523117770929 0 10.895356609674746 0 -1 0 I I #
vertex $-1 $487 $651 #
point $-1 -70.521710781806462 13.702641460436922 4.4759226835663011 #
coedge $-1 $502 $501 $494 $605 forward $491 $-1 #
edge $-1 $606 49.596830226038861 $609 59.472708280596194 $604 $652 forward 7 unknown #
vertex $-1 $506 $653 #
straight-curve $-1 -91.88070883618812 36.10213504637894 10.895356609674749 -1 0 0 I I #
edge $-1 $609 -20.898400290128329 $503 -9.5090692223728936 $502 $654 forward 7 unknown #
vertex $-1 $608 $655 #
straight-curve $-1 -79.4775231177709 36.10213504637894 1.0194785551174306 0.75470957328743171 0 0.6560590369687036 I I #
point $-1 -68.1166252527984 36.10213504637894 10.895356609674746 #
point $-1 -79.477523117770929 24.712803978623505 1.0194785551174059 #
straight-curve $-1 -79.477523117770929 0 10.895356609674746 0 -1 0 I I #
vertex $-1 $509 $656 #
point $-1 -70.521710781806462 30.407469512501223 4.4759226835663011 #
coedge $-1 $524 $523 $516 $617 forward $513 $-1 #
edge $-1 $618 104.48517707111012 $621 108.86825599013028 $616 $657 forward 7 unknown #
vertex $-1 $528 $658 #
straight-curve $-1 31.898261278033239 -0.25984873338812164 10.895356609674749 1 0 0 I I #
edge $-1 $621 -4.1206383017126491 $525 11.842217438361704 $524 $659 forward 7 unknown #
vertex $-1 $620 $660 #
straight-curve $-1 -40.487371998538862 -0.25984873338812164 110.79617224525995 -0.75470957328743171 0 0.6560590369687036 I I #
point $-1 74.435367710624789 -0.25984873338812164 10.895356609674749 #
point $-1 79.477523117770929 15.703007006686232 6.5122776906545852 #
straight-curve $-1 79.477523117770929 0 10.895356609674746 0 1 0 I I #
vertex $-1 $531 $661 #
point $-1 74.795821005988785 7.7215791366490549 3.9319235419020404 #
straight-curve $-1 -79.477523117770929 38.213342256271062 0 0 0 -1 I I #
point $-1 -79.477523117770929 -38.213342256271062 -10.895356609674746 #
straight-curve $-1 -79.477523117770929 0 -10.895356609674746 0 1 0 I I #
point $-1 -79.477523117770929 38.213342256271062 -10.895356609674746 #
straight-curve $-1 -79.477523117770929 -16.704828052064293 -7.6909548300673283 0 -1 0 I I #
point $-1 -79.477523117770929 -38.213342256271062 -7.6909548300673283 #
point $-1 -79.477523117770929 -28.605969951986111 -7.6909548300673283 #
straight-curve $-1 -79.477523117770929 -28.605969951986111 -2.3510608990666331 0 0 -1 I I #
straight-curve $-1 -79.477523117770929 -38.213342256271062 0 0 0 -1 I I #
straight-curve $-1 -79.477523117770929 -14.012349109813947 60.492186835713603 0 0 -1 I I #
point $-1 -79.477523117770929 -14.012349109813947 10.895356609674746 #
straight-curve $-1 -79.477523117770929 -9.8535073218458322 1.019478555117403 0 -1 0 I I #
point $-1 -79.477523117770929 -14.012349109813947 1.0194785551174059 #
point $-1 -70.669686586284556 -19.707014643691664 2.3597697681820988 #
straight-curve $-1 -79.477523117770929 2.6924789422503466 60.492186835713603 0 0 -1 I I #
point $-1 -79.477523117770929 2.6924789422503466 10.895356609674746 #
straight-curve $-1 -79.477523117770929 -1.5010932958136856 1.019478555117403 0 -1 0 I I #
point $-1 -79.477523117770929 2.6924789422503466 1.0194785551174059 #
point $-1 -70.669686586284556 -3.0021865916273711 2.3597697681820988 #
straight-curve $-1 -79.477523117770929 19.39730699431464 60.492186835713603 0 0 -1 I I #
point $-1 -79.477523117770929 19.39730699431464 10.895356609674746 #
straight-curve $-1 -79.477523117770929 6.8513207302184611 1.019478555117403 0 -1 0 I I #
point $-1 -79.477523117770929 19.39730699431464 1.0194785551174059 #
point $-1 -70.669686586284556 13.702641460436922 2.3597697681820988 #
straight-curve $-1 -79.477523117770929 36.10213504637894 60.492186835713603 0 0 -1 I I #
point $-1 -79.477523117770929 36.10213504637894 10.895356609674746 #
straight-curve $-1 -79.477523117770929 15.203734756250611 1.019478555117403 0 -1 0 I I #
point $-1 -79.477523117770929 36.10213504637894 1.0194785551174059 #
point $-1 -70.669686586284556 30.407469512501223 2.3597697681820988 #
straight-curve $-1 79.477523117770929 -0.25984873338812164 115.38053368078486 0 0 -1 I I #
point $-1 79.477523117770929 -0.25984873338812164 10.895356609674746 #
straight-curve $-1 79.477523117770943 3.8607895683245275 6.5122776906545923 0 1 0 I I #
point $-1 79.477523117770929 -0.25984873338812164 6.5122776906545852 #
point $-1 72.679668090604594 7.7215791366490549 3.7839477374239481 #
End-of-ACIS-data 