500 0 11 0           
7 Unknown 11 ACIS 5.0 NT 24 Thu Mar 25 21:55:43 1999 
-1 9.9999999999999995e-007 1e-010 
body $-1 $11 $-1 $12 #
body $-1 $13 $-1 $14 #
body $-1 $15 $-1 $16 #
body $-1 $17 $-1 $18 #
body $-1 $19 $-1 $20 #
body $-1 $21 $-1 $22 #
body $-1 $23 $-1 $24 #
body $-1 $25 $-1 $26 #
body $-1 $27 $-1 $28 #
body $-1 $29 $-1 $30 #
body $-1 $31 $-1 $32 #
lump $-1 $-1 $33 $0 #
transform $-1 1 0 0 0 1 0 0 0 1 48.323007904293952 24.955949716423326 5.3716183280423015 1 rotate no_reflect no_shear #
lump $-1 $-1 $34 $1 #
transform $-1 1 0 0 0 1 0 0 0 1 48.323007904293952 24.955949716423326 5.3716183280423015 1 rotate no_reflect no_shear #
lump $-1 $-1 $35 $2 #
transform $-1 1 0 0 0 1 0 0 0 1 48.323007904293952 24.955949716423326 5.3716183280423015 1 rotate no_reflect no_shear #
lump $-1 $-1 $36 $3 #
transform $-1 1 0 0 0 1 0 0 0 1 48.323007904293952 24.955949716423326 5.3716183280423015 1 rotate no_reflect no_shear #
lump $-1 $-1 $37 $4 #
transform $-1 1 0 0 0 1 0 0 0 1 48.323007904293952 24.955949716423326 5.3716183280423015 1 rotate no_reflect no_shear #
lump $-1 $-1 $38 $5 #
transform $-1 1 0 0 0 1 0 0 0 1 48.323007904293952 24.955949716423326 5.3716183280423015 1 rotate no_reflect no_shear #
lump $-1 $-1 $39 $6 #
transform $-1 1 0 0 0 1 0 0 0 1 48.323007904293952 24.955949716423326 5.3716183280423015 1 rotate no_reflect no_shear #
lump $-1 $-1 $40 $7 #
transform $-1 1 0 0 0 1 0 0 0 1 48.323007904293952 24.955949716423326 5.3716183280423015 1 rotate no_reflect no_shear #
lump $-1 $-1 $41 $8 #
transform $-1 1 0 0 0 1 0 0 0 1 48.323007904293952 24.955949716423326 5.3716183280423015 1 rotate no_reflect no_shear #
lump $-1 $-1 $42 $9 #
transform $-1 1 0 0 0 1 0 0 0 1 48.323007904293952 24.955949716423326 5.3716183280423015 1 rotate no_reflect no_shear #
lump $-1 $-1 $43 $10 #
transform $-1 1 0 0 0 1 0 0 0 1 48.323007904293952 24.955949716423326 5.3716183280423015 1 rotate no_reflect no_shear #
shell $-1 $-1 $-1 $44 $-1 $11 #
shell $-1 $-1 $-1 $45 $-1 $13 #
shell $-1 $-1 $-1 $46 $-1 $15 #
shell $-1 $-1 $-1 $47 $-1 $17 #
shell $-1 $-1 $-1 $48 $-1 $19 #
shell $-1 $-1 $-1 $49 $-1 $21 #
shell $-1 $-1 $-1 $50 $-1 $23 #
shell $-1 $-1 $-1 $51 $-1 $25 #
shell $-1 $-1 $-1 $52 $-1 $27 #
shell $-1 $-1 $-1 $53 $-1 $29 #
shell $-1 $-1 $-1 $54 $-1 $31 #
face $-1 $55 $56 $33 $-1 $57 forward single #
face $-1 $58 $59 $34 $-1 $60 reversed single #
face $-1 $61 $62 $35 $-1 $63 forward single #
face $-1 $64 $65 $36 $-1 $66 reversed single #
face $-1 $67 $68 $37 $-1 $69 forward single #
face $-1 $70 $71 $38 $-1 $72 forward single #
face $-1 $73 $74 $39 $-1 $75 reversed single #
face $-1 $76 $77 $40 $-1 $78 forward single #
face $-1 $79 $80 $41 $-1 $81 forward single #
face $-1 $82 $83 $42 $-1 $84 reversed single #
face $-1 $85 $86 $43 $-1 $87 forward single #
face $-1 $88 $89 $33 $-1 $90 reversed single #
loop $-1 $-1 $91 $44 #
plane-surface $-1 0 0 5.3716183280423015 0 0 1 1 0 0 forward_v I I I I #
face $-1 $92 $93 $34 $-1 $94 forward single #
loop $-1 $-1 $95 $45 #
plane-surface $-1 0 -19.472777726469154 3.0480708642386327 0 -1 0 0 0 -1 forward_v I I I I #
face $-1 $96 $97 $35 $-1 $98 reversed single #
loop $-1 $-1 $99 $46 #
plane-surface $-1 0 22.21436372144624 4.5480708642386336 0 0 1 1 0 0 forward_v I I I I #
face $-1 $100 $101 $36 $-1 $102 reversed single #
loop $-1 $-1 $103 $47 #
plane-surface $-1 -121.26268272645467 -10.780552589564088 63.759275283041831 0 -1 0 0.75470958851134928 0 -0.65605901945558964 forward_v I I I I #
face $-1 $104 $105 $37 $-1 $106 forward single #
loop $-1 $107 $108 $48 #
cone-surface $-1 -45.764685147453882 -16.989284830210565 2.5346721129784777 0.75470958851134928 0 -0.65605901945558964 0.32802950972779482 0 0.37735479425567464 1 I I 0 1 0.5 forward I I I I #
face $-1 $109 $110 $38 $-1 $111 forward single #
loop $-1 $112 $113 $49 #
cone-surface $-1 -45.764685147453882 -13.264045485822679 2.5346721129784777 0.75470958851134928 0 -0.65605901945558964 0.32802950972779482 0 0.37735479425567464 1 I I 0 1 0.5 forward I I I I #
face $-1 $114 $115 $39 $-1 $116 reversed single #
loop $-1 $-1 $117 $50 #
plane-surface $-1 -121.26268272645467 0 63.759275283041831 0 1 0 -0.75470958851134928 0 0.65605901945558964 forward_v I I I I #
face $-1 $118 $119 $40 $-1 $120 forward single #
loop $-1 $121 $122 $51 #
cone-surface $-1 -45.764685147453882 2.4834928962585892 2.5346721129784777 0.75470958851134928 0 -0.65605901945558964 0.32802950972779482 0 0.37735479425567464 1 I I 0 1 0.5 forward I I I I #
face $-1 $123 $124 $41 $-1 $125 forward single #
loop $-1 $126 $127 $52 #
cone-surface $-1 -45.764685147453882 6.2087322406464764 2.5346721129784777 0.75470958851134928 0 -0.65605901945558964 0.32802950972779482 0 0.37735479425567464 1 I I 0 1 0.5 forward I I I I #
face $-1 $128 $129 $42 $-1 $130 reversed single #
loop $-1 $-1 $131 $53 #
plane-surface $-1 53.093006679904796 12.883532697891047 137.76498491008968 0 -1 0 -0.73135370988377701 0 -0.68199835119979291 forward_v I I I I #
face $-1 $132 $133 $43 $-1 $134 forward single #
loop $-1 $135 $136 $54 #
cone-surface $-1 45.67849438091902 9.5305476335269361 2.6316003074521577 -0.73135370988377701 0 -0.68199835119979291 0.68199835119979291 0 -0.73135370988377701 1 I I 0 1 1 forward I I I I #
face $-1 $137 $138 $33 $-1 $139 reversed single #
loop $-1 $-1 $140 $55 #
plane-surface $-1 0 0 -5.3716183280423015 0 0 1 1 0 0 forward_v I I I I #
coedge $-1 $141 $142 $143 $144 forward $56 $-1 #
face $-1 $145 $146 $34 $-1 $147 reversed single #
loop $-1 $-1 $148 $58 #
plane-surface $-1 0 -22.21436372144624 4.5480708642386336 0 0 1 1 0 0 forward_v I I I I #
coedge $-1 $149 $150 $151 $152 reversed $59 $-1 #
face $-1 $153 $154 $35 $-1 $155 reversed single #
loop $-1 $-1 $156 $61 #
plane-surface $-1 0 22.21436372144624 1.5480708642386323 0 0 1 1 0 0 forward_v I I I I #
coedge $-1 $157 $158 $159 $160 reversed $62 $-1 #
face $-1 $161 $162 $36 $-1 $163 forward single #
loop $-1 $-1 $164 $64 #
plane-surface $-1 -48.323007904293931 -15.126665158016621 0.3537849173702341 -0.75470958851134928 0 0.65605901945558964 0.65605901945558964 0 0.75470958851134928 forward_v I I I I #
coedge $-1 $165 $166 $167 $168 reversed $65 $-1 #
face $-1 $-1 $169 $37 $-1 $170 forward single #
loop $-1 $171 $172 $67 #
cone-surface $-1 -45.198652956070369 -16.989284830210565 2.0426278483867852 0.75470958851134928 0 -0.65605901945558964 0.16401475486389741 0 0.18867739712783732 1 I I -0.70710678118654746 0.70710678118654746 0.25 forward I I I I #
loop $-1 $-1 $173 $48 #
coedge $-1 $108 $108 $174 $175 reversed $68 $-1 #
face $-1 $-1 $176 $38 $-1 $177 forward single #
loop $-1 $178 $179 $70 #
cone-surface $-1 -45.198652956070369 -13.264045485822679 2.0426278483867852 0.75470958851134928 0 -0.65605901945558964 0.16401475486389741 0 0.18867739712783732 1 I I -0.70710678118654746 0.70710678118654746 0.25 forward I I I I #
loop $-1 $-1 $180 $49 #
coedge $-1 $113 $113 $181 $182 reversed $71 $-1 #
face $-1 $183 $184 $39 $-1 $185 reversed single #
loop $-1 $-1 $186 $73 #
plane-surface $-1 -48.323007904293931 4.3461125684525328 0.3537849173702341 -0.75470958851134928 0 0.65605901945558964 0.65605901945558964 0 0.75470958851134928 forward_v I I I I #
coedge $-1 $187 $188 $189 $190 reversed $74 $-1 #
face $-1 $-1 $191 $40 $-1 $192 forward single #
loop $-1 $193 $194 $76 #
cone-surface $-1 -45.198652956070369 2.4834928962585892 2.0426278483867852 0.75470958851134928 0 -0.65605901945558964 0.16401475486389741 0 0.18867739712783732 1 I I -0.70710678118654746 0.70710678118654746 0.25 forward I I I I #
loop $-1 $-1 $195 $51 #
coedge $-1 $122 $122 $196 $197 reversed $77 $-1 #
face $-1 $-1 $198 $41 $-1 $199 forward single #
loop $-1 $200 $201 $79 #
cone-surface $-1 -45.198652956070369 6.2087322406464764 2.0426278483867852 0.75470958851134928 0 -0.65605901945558964 0.16401475486389741 0 0.18867739712783732 1 I I -0.70710678118654746 0.70710678118654746 0.25 forward I I I I #
loop $-1 $-1 $202 $52 #
coedge $-1 $127 $127 $203 $204 reversed $80 $-1 #
face $-1 $205 $206 $42 $-1 $207 reversed single #
loop $-1 $-1 $208 $82 #
plane-surface $-1 -17.589415527192124 9.5305476335269361 71.852561478603604 0.73135370988377701 0 0.68199835119979291 0.68199835119979291 0 -0.73135370988377701 forward_v I I I I #
coedge $-1 $209 $210 $211 $212 reversed $83 $-1 #
face $-1 $-1 $213 $43 $-1 $214 forward single #
loop $-1 $215 $216 $85 #
cone-surface $-1 44.627275257163227 9.5305476335269361 1.6513226395299236 -0.73135370988377701 0 -0.68199835119979291 0.34099917559989645 0 -0.36567685494188851 1 I I -0.70710678118654746 0.70710678118654746 0.5 forward I I I I #
loop $-1 $-1 $217 $54 #
coedge $-1 $136 $136 $218 $219 reversed $86 $-1 #
face $-1 $220 $221 $33 $-1 $222 reversed single #
loop $-1 $-1 $223 $88 #
plane-surface $-1 0 -24.955949716423326 0 0 1 0 0 0 1 forward_v I I I I #
coedge $-1 $224 $225 $226 $227 forward $89 $-1 #
coedge $-1 $228 $91 $229 $230 forward $56 $-1 #
coedge $-1 $91 $228 $231 $232 forward $56 $-1 #
coedge $-1 $233 $234 $91 $144 reversed $235 $-1 #
edge $-1 $236 -24.955949716423326 $237 24.955949716423326 $143 $238 forward 7 unknown #
face $-1 $239 $240 $34 $-1 $241 reversed single #
loop $-1 $-1 $242 $92 #
plane-surface $-1 0 -22.21436372144624 1.5480708642386323 0 0 1 1 0 0 forward_v I I I I #
coedge $-1 $151 $243 $244 $245 reversed $93 $-1 #
coedge $-1 $246 $95 $247 $248 reversed $59 $-1 #
coedge $-1 $95 $246 $249 $250 reversed $59 $-1 #
coedge $-1 $251 $148 $95 $152 forward $93 $-1 #
edge $-1 $252 -48.323007904293952 $253 48.323007904293952 $95 $254 forward 7 unknown #
face $-1 $255 $256 $35 $-1 $257 reversed single #
loop $-1 $-1 $258 $96 #
plane-surface $-1 0 19.472777726469154 3.0480708642386327 0 1 0 0 0 1 forward_v I I I I #
coedge $-1 $259 $260 $261 $262 reversed $97 $-1 #
coedge $-1 $263 $99 $264 $265 reversed $62 $-1 #
coedge $-1 $99 $263 $266 $267 forward $62 $-1 #
coedge $-1 $268 $269 $99 $160 forward $256 $-1 #
edge $-1 $270 -13.848767855700206 $271 -8.3655958657460339 $159 $272 forward 7 unknown #
face $-1 $273 $274 $36 $-1 $275 reversed single #
loop $-1 $-1 $276 $100 #
plane-surface $-1 0 0 5.3716183280423015 0 0 1 1 0 0 forward_v I I I I #
coedge $-1 $277 $278 $279 $280 reversed $101 $-1 #
coedge $-1 $166 $103 $281 $282 reversed $65 $-1 #
coedge $-1 $103 $165 $277 $283 reversed $65 $-1 #
coedge $-1 $279 $284 $103 $168 forward $274 $-1 #
edge $-1 $285 26.508019313478613 $286 31.525852724150706 $167 $287 forward 7 unknown #
loop $-1 $-1 $174 $104 #
plane-surface $-1 -48.323007904293931 -15.126665158016621 0.3537849173702341 -0.75470958851134928 0 0.65605901945558964 0.65605901945558964 0 0.75470958851134928 forward_v I I I I #
loop $-1 $-1 $288 $67 #
coedge $-1 $172 $172 $173 $289 reversed $105 $-1 #
coedge $-1 $173 $173 $172 $289 forward $107 $-1 #
coedge $-1 $174 $174 $108 $175 forward $169 $-1 #
edge $-1 $290 0 $290 6.2831853071796004 $174 $291 forward 7 unknown #
loop $-1 $-1 $181 $109 #
plane-surface $-1 -48.323007904293931 -15.126665158016621 0.3537849173702341 -0.75470958851134928 0 0.65605901945558964 0.65605901945558964 0 0.75470958851134928 forward_v I I I I #
loop $-1 $-1 $292 $70 #
coedge $-1 $179 $179 $180 $293 reversed $110 $-1 #
coedge $-1 $180 $180 $179 $293 forward $112 $-1 #
coedge $-1 $181 $181 $113 $182 forward $176 $-1 #
edge $-1 $294 0 $294 6.2831853071796004 $181 $295 forward 7 unknown #
face $-1 $296 $297 $39 $-1 $298 forward single #
loop $-1 $-1 $299 $114 #
plane-surface $-1 -121.26268272645467 8.6922251369050656 63.759275283041831 0 -1 0 0.75470958851134928 0 -0.65605901945558964 forward_v I I I I #
coedge $-1 $300 $301 $302 $303 reversed $115 $-1 #
coedge $-1 $188 $117 $304 $305 reversed $74 $-1 #
coedge $-1 $117 $187 $300 $306 reversed $74 $-1 #
coedge $-1 $302 $307 $117 $190 forward $297 $-1 #
edge $-1 $308 12.308333458933383 $309 16.670269384102198 $189 $310 forward 7 unknown #
loop $-1 $-1 $196 $118 #
plane-surface $-1 -48.323007904293931 4.3461125684525328 0.3537849173702341 -0.75470958851134928 0 0.65605901945558964 0.65605901945558964 0 0.75470958851134928 forward_v I I I I #
loop $-1 $-1 $311 $76 #
coedge $-1 $194 $194 $195 $312 reversed $119 $-1 #
coedge $-1 $195 $195 $194 $312 forward $121 $-1 #
coedge $-1 $196 $196 $122 $197 forward $191 $-1 #
edge $-1 $313 0 $313 6.2831853071796004 $196 $314 forward 7 unknown #
loop $-1 $-1 $203 $123 #
plane-surface $-1 -48.323007904293931 4.3461125684525328 0.3537849173702341 -0.75470958851134928 0 0.65605901945558964 0.65605901945558964 0 0.75470958851134928 forward_v I I I I #
loop $-1 $-1 $315 $79 #
coedge $-1 $201 $201 $202 $316 reversed $124 $-1 #
coedge $-1 $202 $202 $201 $316 forward $126 $-1 #
coedge $-1 $203 $203 $127 $204 forward $198 $-1 #
edge $-1 $317 0 $317 6.2831853071796004 $203 $318 forward 7 unknown #
face $-1 $319 $320 $42 $-1 $321 reversed single #
loop $-1 $-1 $322 $128 #
plane-surface $-1 53.093006679904796 6.1775625691628253 137.76498491008968 0 1 0 0.73135370988377701 0 0.68199835119979291 forward_v I I I I #
coedge $-1 $323 $324 $325 $326 reversed $129 $-1 #
coedge $-1 $210 $131 $327 $328 reversed $83 $-1 #
coedge $-1 $131 $209 $323 $329 reversed $83 $-1 #
coedge $-1 $325 $330 $131 $212 forward $331 $-1 #
edge $-1 $332 -21.776504564341554 $333 -17.858562055219512 $211 $334 forward 7 unknown #
loop $-1 $-1 $218 $132 #
plane-surface $-1 -17.589415527192124 9.5305476335269361 71.852561478603604 0.73135370988377701 0 0.68199835119979291 0.68199835119979291 0 -0.73135370988377701 forward_v I I I I #
loop $-1 $-1 $335 $85 #
coedge $-1 $216 $216 $217 $336 reversed $133 $-1 #
coedge $-1 $217 $217 $216 $336 forward $135 $-1 #
coedge $-1 $218 $218 $136 $219 forward $213 $-1 #
edge $-1 $337 0 $337 6.2831853071796004 $218 $338 forward 7 unknown #
face $-1 $339 $340 $33 $-1 $341 reversed single #
loop $-1 $-1 $342 $137 #
plane-surface $-1 -48.323007904293952 0 0 1 0 0 0 0 -1 forward_v I I I I #
coedge $-1 $343 $231 $344 $345 forward $138 $-1 #
coedge $-1 $346 $140 $343 $347 forward $89 $-1 #
coedge $-1 $140 $346 $348 $349 forward $89 $-1 #
coedge $-1 $234 $233 $140 $227 reversed $235 $-1 #
edge $-1 $350 -24.955949716423326 $351 24.955949716423326 $226 $352 forward 7 unknown #
coedge $-1 $142 $141 $353 $354 forward $56 $-1 #
coedge $-1 $355 $356 $141 $230 reversed $340 $-1 #
edge $-1 $237 -48.323007904293952 $357 48.323007904293952 $229 $358 forward 7 unknown #
coedge $-1 $223 $359 $142 $232 reversed $138 $-1 #
edge $-1 $360 -48.323007904293952 $236 48.323007904293952 $231 $361 forward 7 unknown #
coedge $-1 $226 $143 $359 $362 forward $235 $-1 #
coedge $-1 $143 $226 $355 $363 reversed $235 $-1 #
loop $-1 $-1 $233 $339 #
vertex $-1 $144 $364 #
vertex $-1 $144 $365 #
straight-curve $-1 48.323007904293952 0 5.3716183280423015 0 1 0 I I #
face $-1 $366 $367 $34 $-1 $368 reversed single #
loop $-1 $-1 $369 $145 #
plane-surface $-1 -48.323007904293952 0 0 1 0 0 0 0 -1 forward_v I I I I #
coedge $-1 $370 $371 $372 $373 reversed $146 $-1 #
coedge $-1 $148 $251 $374 $375 reversed $93 $-1 #
coedge $-1 $376 $247 $148 $245 forward $377 $-1 #
edge $-1 $252 8.3655958657460339 $378 13.848767855700206 $244 $379 forward 7 unknown #
coedge $-1 $150 $149 $371 $380 reversed $59 $-1 #
coedge $-1 $244 $372 $149 $248 forward $377 $-1 #
edge $-1 $381 0.024035432119315914 $252 3.0240354321193172 $247 $382 forward 7 unknown #
coedge $-1 $383 $369 $150 $250 forward $240 $-1 #
edge $-1 $253 -3.0240354321193172 $384 -0.024035432119315914 $249 $385 forward 7 unknown #
coedge $-1 $243 $151 $369 $386 reversed $93 $-1 #
vertex $-1 $245 $387 #
vertex $-1 $386 $388 #
straight-curve $-1 0 -19.472777726469154 4.5480708642386336 -1 0 0 I I #
face $-1 $389 $390 $35 $-1 $391 reversed single #
loop $-1 $-1 $159 $153 #
plane-surface $-1 48.323007904293952 0 0 -1 0 0 0 0 1 forward_v I I I I #
coedge $-1 $392 $266 $393 $394 reversed $154 $-1 #
coedge $-1 $395 $156 $392 $396 forward $97 $-1 #
coedge $-1 $156 $395 $397 $398 reversed $97 $-1 #
coedge $-1 $269 $268 $156 $262 forward $256 $-1 #
edge $-1 $399 8.3655958657460339 $400 13.848767855700206 $261 $401 forward 7 unknown #
coedge $-1 $158 $157 $402 $403 reversed $62 $-1 #
coedge $-1 $404 $405 $157 $265 forward $406 $-1 #
edge $-1 $407 -48.323007904293952 $270 48.323007904293952 $264 $408 forward 7 unknown #
coedge $-1 $258 $409 $158 $267 reversed $154 $-1 #
edge $-1 $410 -48.323007904293952 $271 48.323007904293952 $266 $411 forward 7 unknown #
coedge $-1 $261 $159 $409 $412 forward $256 $-1 #
coedge $-1 $159 $261 $404 $413 reversed $256 $-1 #
vertex $-1 $413 $414 #
vertex $-1 $160 $415 #
straight-curve $-1 48.323007904293952 11.10718186072312 4.5480708642386336 0 -1 0 I I #
face $-1 $-1 $416 $36 $-1 $417 forward single #
loop $-1 $-1 $418 $161 #
plane-surface $-1 -48.323007904293952 0 0 1 0 0 0 0 -1 forward_v I I I I #
coedge $-1 $419 $420 $421 $422 forward $162 $-1 #
coedge $-1 $423 $164 $166 $283 forward $101 $-1 #
coedge $-1 $164 $423 $424 $425 forward $101 $-1 #
coedge $-1 $418 $167 $164 $280 forward $274 $-1 #
edge $-1 $286 3.2172200105557778 $426 11.909445147460843 $279 $427 forward 7 unknown #
coedge $-1 $420 $419 $165 $282 forward $162 $-1 #
edge $-1 $428 -16.670269384102198 $285 -12.308333458933383 $281 $429 forward 7 unknown #
edge $-1 $286 -3.2502239876883887e-014 $428 6.6486943945811676 $166 $430 forward 7 unknown #
coedge $-1 $167 $418 $420 $431 reversed $274 $-1 #
vertex $-1 $431 $432 #
vertex $-1 $168 $433 #
straight-curve $-1 -48.323007904293952 -10.780552589564088 31.879637641520915 0 0 -1 I I #
coedge $-1 $288 $288 $-1 $434 reversed $171 $-1 #
edge $-1 $435 0 $435 6.2831853071796004 $172 $436 forward 7 unknown #
vertex $-1 $175 $437 #
ellipse-curve $-1 -46.142039941709541 -16.989284830210565 2.8627016227062585 -0.75470958851134928 0 0.65605901945558964 0.32802950972779482 0 0.37735479425567464 1 I I #
coedge $-1 $292 $292 $-1 $438 reversed $178 $-1 #
edge $-1 $439 0 $439 6.2831853071796004 $179 $440 forward 7 unknown #
vertex $-1 $182 $441 #
ellipse-curve $-1 -46.142039941709541 -13.264045485822679 2.8627016227062585 -0.75470958851134928 0 0.65605901945558964 0.32802950972779482 0 0.37735479425567464 1 I I #
face $-1 $-1 $442 $39 $-1 $443 reversed single #
loop $-1 $-1 $189 $183 #
plane-surface $-1 0 0 5.3716183280423015 0 0 1 1 0 0 forward_v I I I I #
coedge $-1 $444 $445 $446 $447 reversed $184 $-1 #
coedge $-1 $448 $186 $188 $306 forward $115 $-1 #
coedge $-1 $186 $448 $444 $449 forward $115 $-1 #
coedge $-1 $446 $189 $186 $303 forward $297 $-1 #
edge $-1 $309 -2.1730562842262664 $450 6.5191688526787992 $302 $451 forward 7 unknown #
coedge $-1 $452 $453 $187 $305 forward $442 $-1 #
edge $-1 $454 -31.525852724150706 $308 -26.508019313478613 $304 $455 forward 7 unknown #
edge $-1 $309 -6.6486943945811676 $454 3.2502239876883887e-014 $188 $456 forward 7 unknown #
coedge $-1 $189 $446 $452 $457 forward $297 $-1 #
vertex $-1 $190 $458 #
vertex $-1 $190 $459 #
straight-curve $-1 -60.631341363227335 0 5.3716183280423024 1 0 0 I I #
coedge $-1 $311 $311 $-1 $460 reversed $193 $-1 #
edge $-1 $461 0 $461 6.2831853071796004 $194 $462 forward 7 unknown #
vertex $-1 $197 $463 #
ellipse-curve $-1 -46.142039941709541 2.4834928962585892 2.8627016227062585 -0.75470958851134928 0 0.65605901945558964 0.32802950972779482 0 0.37735479425567464 1 I I #
coedge $-1 $315 $315 $-1 $464 reversed $200 $-1 #
edge $-1 $465 0 $465 6.2831853071796004 $201 $466 forward 7 unknown #
vertex $-1 $204 $467 #
ellipse-curve $-1 -46.142039941709541 6.2087322406464764 2.8627016227062585 -0.75470958851134928 0 0.65605901945558964 0.32802950972779482 0 0.37735479425567464 1 I I #
face $-1 $-1 $331 $42 $-1 $468 forward single #
loop $-1 $-1 $469 $205 #
plane-surface $-1 48.323007904293952 0 0 -1 0 0 0 0 1 forward_v I I I I #
coedge $-1 $470 $471 $472 $473 reversed $206 $-1 #
coedge $-1 $474 $208 $210 $329 forward $129 $-1 #
coedge $-1 $208 $474 $470 $475 forward $129 $-1 #
coedge $-1 $472 $211 $208 $326 forward $331 $-1 #
edge $-1 $333 -8.1182588811275789 $476 -1.4122887523993573 $325 $477 forward 7 unknown #
coedge $-1 $478 $479 $209 $328 forward $320 $-1 #
edge $-1 $480 -67.712353183538156 $332 -63.510874127002538 $327 $481 forward 7 unknown #
edge $-1 $333 90.901218182274761 $480 96.64601580858789 $210 $482 forward 7 unknown #
coedge $-1 $211 $472 $478 $483 forward $331 $-1 #
loop $-1 $-1 $472 $319 #
vertex $-1 $328 $484 #
vertex $-1 $212 $485 #
straight-curve $-1 26.546503339952398 12.883532697891047 5.3716183280423024 -1 0 0 I I #
coedge $-1 $335 $335 $-1 $486 reversed $215 $-1 #
edge $-1 $487 0 $487 6.2831853071796004 $216 $488 forward 7 unknown #
vertex $-1 $219 $489 #
ellipse-curve $-1 46.364036649732924 9.5305476335269361 3.2708787997744917 0.73135370988377701 0 0.68199835119979291 0.68199835119979291 0 -0.73135370988377701 1 I I #
face $-1 $-1 $235 $33 $-1 $490 reversed single #
loop $-1 $-1 $355 $220 #
plane-surface $-1 0 24.955949716423326 0 0 -1 0 0 0 -1 forward_v I I I I #
coedge $-1 $491 $353 $356 $492 forward $221 $-1 #
coedge $-1 $359 $223 $224 $347 reversed $138 $-1 #
coedge $-1 $353 $491 $223 $345 reversed $221 $-1 #
edge $-1 $360 -5.3716183280423015 $493 5.3716183280423015 $344 $494 forward 7 unknown #
coedge $-1 $225 $224 $491 $495 forward $89 $-1 #
edge $-1 $351 -48.323007904293952 $493 48.323007904293952 $343 $496 forward 7 unknown #
coedge $-1 $356 $355 $225 $349 reversed $340 $-1 #
edge $-1 $497 -48.323007904293952 $350 48.323007904293952 $348 $498 forward 7 unknown #
vertex $-1 $227 $499 #
vertex $-1 $362 $500 #
straight-curve $-1 48.323007904293952 0 -5.3716183280423015 0 -1 0 I I #
coedge $-1 $342 $344 $228 $354 reversed $221 $-1 #
edge $-1 $357 -24.955949716423326 $360 24.955949716423326 $353 $501 forward 7 unknown #
coedge $-1 $348 $229 $234 $363 forward $340 $-1 #
coedge $-1 $229 $348 $342 $492 reversed $340 $-1 #
vertex $-1 $230 $502 #
straight-curve $-1 0 24.955949716423326 5.3716183280423015 -1 0 0 I I #
coedge $-1 $231 $343 $233 $362 reversed $138 $-1 #
vertex $-1 $354 $503 #
straight-curve $-1 0 -24.955949716423326 5.3716183280423015 1 0 0 I I #
edge $-1 $236 -5.3716183280423015 $351 5.3716183280423015 $233 $504 forward 7 unknown #
edge $-1 $237 -5.3716183280423015 $350 5.3716183280423015 $234 $505 forward 7 unknown #
point $-1 48.323007904293952 -24.955949716423326 5.3716183280423015 #
point $-1 48.323007904293952 24.955949716423326 5.3716183280423015 #
face $-1 $-1 $377 $34 $-1 $506 reversed single #
loop $-1 $-1 $374 $239 #
plane-surface $-1 0 -24.955949716423326 0 0 1 0 0 0 1 forward_v I I I I #
coedge $-1 $249 $507 $251 $386 forward $240 $-1 #
coedge $-1 $508 $242 $509 $510 reversed $146 $-1 #
coedge $-1 $242 $508 $246 $380 forward $146 $-1 #
coedge $-1 $247 $376 $242 $373 forward $377 $-1 #
edge $-1 $511 -13.848767855700206 $381 -8.3655958657460339 $372 $512 forward 7 unknown #
coedge $-1 $513 $514 $243 $375 forward $367 $-1 #
edge $-1 $378 -48.323007904293952 $515 48.323007904293952 $374 $516 forward 7 unknown #
coedge $-1 $372 $244 $514 $517 forward $377 $-1 #
loop $-1 $-1 $244 $366 #
vertex $-1 $517 $518 #
straight-curve $-1 48.323007904293952 -11.10718186072312 4.5480708642386336 0 -1 0 I I #
edge $-1 $384 -48.323007904293952 $381 48.323007904293952 $246 $519 forward 7 unknown #
vertex $-1 $373 $520 #
straight-curve $-1 48.323007904293952 -19.472777726469154 1.5240354321193164 0 0 1 I I #
coedge $-1 $507 $249 $508 $521 forward $240 $-1 #
vertex $-1 $521 $522 #
straight-curve $-1 -48.323007904293952 -19.472777726469154 1.5240354321193164 0 0 -1 I I #
edge $-1 $515 -13.848767855700206 $253 -8.3655958657460339 $369 $523 forward 7 unknown #
point $-1 48.323007904293952 -19.472777726469154 4.5480708642386336 #
point $-1 -48.323007904293952 -19.472777726469154 4.5480708642386336 #
face $-1 $-1 $406 $35 $-1 $524 reversed single #
loop $-1 $-1 $402 $255 #
plane-surface $-1 -48.323007904293952 0 0 1 0 0 0 0 -1 forward_v I I I I #
coedge $-1 $409 $258 $259 $396 reversed $154 $-1 #
coedge $-1 $402 $525 $258 $394 forward $390 $-1 #
edge $-1 $526 0.024035432119315914 $410 3.0240354321193172 $393 $527 forward 7 unknown #
coedge $-1 $260 $259 $525 $528 reversed $97 $-1 #
edge $-1 $399 -48.323007904293952 $526 48.323007904293952 $392 $529 forward 7 unknown #
coedge $-1 $405 $404 $260 $398 forward $406 $-1 #
edge $-1 $400 -48.323007904293952 $530 48.323007904293952 $397 $531 forward 7 unknown #
vertex $-1 $262 $532 #
vertex $-1 $398 $533 #
straight-curve $-1 48.323007904293952 11.10718186072312 1.5480708642386323 0 1 0 I I #
coedge $-1 $534 $393 $263 $403 forward $390 $-1 #
edge $-1 $410 8.3655958657460339 $407 13.848767855700206 $402 $535 forward 7 unknown #
coedge $-1 $397 $264 $269 $413 forward $406 $-1 #
coedge $-1 $264 $397 $534 $536 reversed $406 $-1 #
loop $-1 $-1 $264 $389 #
vertex $-1 $536 $537 #
straight-curve $-1 0 24.955949716423326 4.5480708642386336 1 0 0 I I #
coedge $-1 $266 $392 $268 $412 reversed $154 $-1 #
vertex $-1 $403 $538 #
straight-curve $-1 0 19.472777726469154 4.5480708642386336 1 0 0 I I #
edge $-1 $271 -3.0240354321193172 $399 -0.024035432119315914 $268 $539 forward 7 unknown #
edge $-1 $270 -4.5480708642386336 $400 -1.5480708642386323 $269 $540 forward 7 unknown #
point $-1 48.323007904293952 24.955949716423326 4.5480708642386336 #
point $-1 48.323007904293952 19.472777726469154 4.5480708642386336 #
loop $-1 $-1 $424 $273 #
plane-surface $-1 0 -19.472777726469154 3.0480708642386327 0 -1 0 0 0 -1 forward_v I I I I #
coedge $-1 $284 $279 $541 $542 forward $274 $-1 #
coedge $-1 $281 $276 $423 $543 forward $162 $-1 #
coedge $-1 $276 $281 $284 $431 forward $162 $-1 #
coedge $-1 $541 $424 $276 $422 reversed $416 $-1 #
edge $-1 $544 12.308333458933383 $545 16.670269384102198 $276 $546 forward 7 unknown #
coedge $-1 $278 $277 $419 $543 reversed $101 $-1 #
coedge $-1 $421 $541 $278 $425 reversed $416 $-1 #
edge $-1 $545 -6.6486943945811676 $426 3.2502239876883887e-014 $424 $547 forward 7 unknown #
vertex $-1 $280 $548 #
straight-curve $-1 -48.323007904293952 -7.5633325790083106 0.35378491737021767 0 -1 0 I I #
vertex $-1 $282 $549 #
straight-curve $-1 -60.631341363227335 -10.780552589564088 5.3716183280423024 -1 0 0 I I #
straight-curve $-1 -48.323007904293931 -10.780552589564088 0.3537849173702341 0.65605901945558964 0 0.75470958851134928 I I #
edge $-1 $285 10.780552589564088 $544 19.472777726469154 $284 $550 forward 7 unknown #
point $-1 -48.323007904293952 -10.780552589564088 5.3716183280423015 #
point $-1 -48.323007904293952 -10.780552589564088 0.35378491737020956 #
edge $-1 $551 1 $551 0 $288 $-1 forward 7 unknown #
vertex $-1 $289 $552 #
ellipse-curve $-1 -45.387330353198209 -16.989284830210565 2.2066426032506827 -0.75470958851134928 0 0.65605901945558964 0.32802950972779482 0 0.37735479425567464 1 I I #
point $-1 -45.814010431981764 -16.989284830210565 3.2400564169619468 #
edge $-1 $553 1 $553 0 $292 $-1 forward 7 unknown #
vertex $-1 $293 $554 #
ellipse-curve $-1 -45.387330353198209 -13.264045485822679 2.2066426032506827 -0.75470958851134928 0 0.65605901945558964 0.32802950972779482 0 0.37735479425567464 1 I I #
point $-1 -45.814010431981764 -13.264045485822679 3.2400564169619468 #
loop $-1 $-1 $304 $296 #
plane-surface $-1 -48.323007904293952 0 0 1 0 0 0 0 -1 forward_v I I I I #
coedge $-1 $445 $299 $301 $449 reversed $184 $-1 #
coedge $-1 $299 $444 $555 $556 reversed $184 $-1 #
coedge $-1 $307 $302 $299 $447 forward $297 $-1 #
edge $-1 $450 -16.670269384102198 $557 -12.308333458933383 $446 $558 forward 7 unknown #
coedge $-1 $301 $300 $453 $559 reversed $115 $-1 #
edge $-1 $560 -3.2502239876883887e-014 $450 6.6486943945811676 $444 $561 forward 7 unknown #
vertex $-1 $303 $562 #
straight-curve $-1 -43.961071979125137 2.1730562842262664 5.3716183280423007 0 1 0 I I #
coedge $-1 $555 $304 $307 $457 reversed $442 $-1 #
coedge $-1 $304 $555 $448 $559 forward $442 $-1 #
vertex $-1 $305 $563 #
straight-curve $-1 -48.323007904293952 0 31.879637641520915 0 0 1 I I #
straight-curve $-1 -48.323007904293931 0 0.3537849173702341 -0.65605901945558964 0 -0.75470958851134928 I I #
edge $-1 $557 -8.6922251369050656 $308 0 $452 $564 forward 7 unknown #
point $-1 -48.323007904293952 0 5.3716183280423015 #
point $-1 -43.961071979125137 0 5.3716183280423015 #
edge $-1 $565 1 $565 0 $311 $-1 forward 7 unknown #
vertex $-1 $312 $566 #
ellipse-curve $-1 -45.387330353198209 2.4834928962585892 2.2066426032506827 -0.75470958851134928 0 0.65605901945558964 0.32802950972779482 0 0.37735479425567464 1 I I #
point $-1 -45.814010431981764 2.4834928962585892 3.2400564169619468 #
edge $-1 $567 1 $567 0 $315 $-1 forward 7 unknown #
vertex $-1 $316 $568 #
ellipse-curve $-1 -45.387330353198209 6.2087322406464764 2.2066426032506827 -0.75470958851134928 0 0.65605901945558964 0.32802950972779482 0 0.37735479425567464 1 I I #
point $-1 -45.814010431981764 6.2087322406464764 3.2400564169619468 #
plane-surface $-1 0 0 5.3716183280423015 0 0 1 1 0 0 forward_v I I I I #
coedge $-1 $479 $478 $471 $569 forward $320 $-1 #
coedge $-1 $471 $322 $324 $475 reversed $206 $-1 #
coedge $-1 $322 $470 $469 $569 reversed $206 $-1 #
coedge $-1 $330 $325 $322 $473 forward $331 $-1 #
edge $-1 $476 17.858562055219512 $570 21.776504564341554 $472 $571 forward 7 unknown #
coedge $-1 $324 $323 $479 $572 reversed $129 $-1 #
edge $-1 $573 -96.64601580858789 $476 -90.901218182274761 $470 $574 forward 7 unknown #
vertex $-1 $326 $575 #
straight-curve $-1 44.405065395171917 4.7652738167634681 5.3716183280423024 0 -1 0 I I #
coedge $-1 $469 $327 $330 $483 reversed $320 $-1 #
coedge $-1 $327 $469 $474 $572 forward $320 $-1 #
vertex $-1 $328 $576 #
straight-curve $-1 48.323007904293952 12.883532697891047 68.88249245504484 0 0 1 I I #
straight-curve $-1 -17.589415527192124 12.883532697891047 71.852561478603604 0.68199835119979291 0 -0.73135370988377701 I I #
edge $-1 $570 6.1775625691628253 $332 12.883532697891047 $478 $577 forward 7 unknown #
point $-1 48.323007904293952 12.883532697891047 5.3716183280423015 #
point $-1 44.40506539517191 12.883532697891047 5.3716183280423024 #
edge $-1 $578 1 $578 0 $335 $-1 forward 7 unknown #
vertex $-1 $336 $579 #
ellipse-curve $-1 44.992952112105115 9.5305476335269361 1.9923218151298201 0.73135370988377701 0 0.68199835119979291 0.68199835119979291 0 -0.73135370988377701 1 I I #
point $-1 47.046035000932719 9.5305476335269361 2.5395250898907182 #
plane-surface $-1 48.323007904293952 0 0 -1 0 0 0 0 1 forward_v I I I I #
coedge $-1 $344 $342 $346 $495 reversed $221 $-1 #
edge $-1 $357 -5.3716183280423015 $497 5.3716183280423015 $356 $580 forward 7 unknown #
vertex $-1 $495 $581 #
straight-curve $-1 -48.323007904293952 -24.955949716423326 0 0 0 -1 I I #
edge $-1 $493 -24.955949716423326 $497 24.955949716423326 $491 $582 forward 7 unknown #
straight-curve $-1 0 -24.955949716423326 -5.3716183280423015 -1 0 0 I I #
vertex $-1 $349 $583 #
straight-curve $-1 0 24.955949716423326 -5.3716183280423015 1 0 0 I I #
point $-1 48.323007904293952 24.955949716423326 -5.3716183280423015 #
point $-1 48.323007904293952 -24.955949716423326 -5.3716183280423015 #
straight-curve $-1 -48.323007904293952 0 5.3716183280423015 0 -1 0 I I #
point $-1 -48.323007904293952 24.955949716423326 5.3716183280423015 #
point $-1 -48.323007904293952 -24.955949716423326 5.3716183280423015 #
straight-curve $-1 48.323007904293952 -24.955949716423326 0 0 0 -1 I I #
straight-curve $-1 48.323007904293952 24.955949716423326 0 0 0 -1 I I #
plane-surface $-1 48.323007904293952 0 0 -1 0 0 0 0 1 forward_v I I I I #
coedge $-1 $369 $383 $513 $584 reversed $240 $-1 #
coedge $-1 $371 $370 $383 $521 reversed $146 $-1 #
coedge $-1 $514 $513 $370 $510 forward $367 $-1 #
edge $-1 $585 -48.323007904293952 $511 48.323007904293952 $509 $586 forward 7 unknown #
vertex $-1 $510 $587 #
straight-curve $-1 48.323007904293952 -11.10718186072312 1.5480708642386323 0 1 0 I I #
coedge $-1 $509 $374 $507 $584 forward $367 $-1 #
coedge $-1 $374 $509 $376 $517 reversed $367 $-1 #
vertex $-1 $584 $588 #
straight-curve $-1 0 -24.955949716423326 4.5480708642386336 -1 0 0 I I #
edge $-1 $378 -4.5480708642386336 $511 -1.5480708642386323 $376 $589 forward 7 unknown #
point $-1 48.323007904293952 -24.955949716423326 4.5480708642386336 #
straight-curve $-1 0 -19.472777726469154 1.5480708642386323 1 0 0 I I #
point $-1 48.323007904293952 -19.472777726469154 1.5480708642386323 #
edge $-1 $384 8.3655958657460339 $585 13.848767855700206 $383 $590 forward 7 unknown #
point $-1 -48.323007904293952 -19.472777726469154 1.5480708642386323 #
straight-curve $-1 -48.323007904293952 -11.10718186072312 4.5480708642386336 0 1 0 I I #
plane-surface $-1 0 24.955949716423326 0 0 -1 0 0 0 -1 forward_v I I I I #
coedge $-1 $393 $534 $395 $528 forward $390 $-1 #
vertex $-1 $528 $591 #
straight-curve $-1 -48.323007904293952 19.472777726469154 1.5240354321193164 0 0 1 I I #
edge $-1 $530 -13.848767855700206 $526 -8.3655958657460339 $525 $592 forward 7 unknown #
straight-curve $-1 0 19.472777726469154 1.5480708642386323 -1 0 0 I I #
vertex $-1 $398 $593 #
straight-curve $-1 0 24.955949716423326 1.5480708642386323 -1 0 0 I I #
point $-1 48.323007904293952 19.472777726469154 1.5480708642386323 #
point $-1 48.323007904293952 24.955949716423326 1.5480708642386323 #
coedge $-1 $525 $402 $405 $536 forward $390 $-1 #
straight-curve $-1 -48.323007904293952 11.10718186072312 4.5480708642386336 0 1 0 I I #
edge $-1 $407 -4.5480708642386336 $530 -1.5480708642386323 $405 $594 forward 7 unknown #
point $-1 -48.323007904293952 24.955949716423326 4.5480708642386336 #
point $-1 -48.323007904293952 19.472777726469154 4.5480708642386336 #
straight-curve $-1 48.323007904293952 19.472777726469154 1.5240354321193164 0 0 -1 I I #
straight-curve $-1 48.323007904293952 24.955949716423326 0 0 0 -1 I I #
coedge $-1 $424 $421 $418 $542 reversed $416 $-1 #
edge $-1 $426 -31.525852724150706 $544 -26.508019313478613 $418 $595 forward 7 unknown #
edge $-1 $545 -11.909445147460843 $428 -3.2172200105557778 $419 $596 forward 7 unknown #
vertex $-1 $422 $597 #
vertex $-1 $422 $598 #
straight-curve $-1 -60.631341363227335 -19.472777726469154 5.3716183280423024 1 0 0 I I #
straight-curve $-1 -48.323007904293931 -19.472777726469154 0.3537849173702341 -0.65605901945558964 0 -0.75470958851134928 I I #
point $-1 -48.323007904293952 -19.472777726469154 0.35378491737020956 #
point $-1 -43.961071979125137 -10.780552589564088 5.3716183280423015 #
straight-curve $-1 -48.323007904293952 0 5.3716183280423015 0 -1 0 I I #
vertex $-1 $434 $599 #
point $-1 -45.05930084347041 -16.989284830210565 2.5839973975063573 #
vertex $-1 $438 $600 #
point $-1 -45.05930084347041 -13.264045485822679 2.5839973975063573 #
coedge $-1 $453 $452 $445 $556 forward $442 $-1 #
edge $-1 $557 26.508019313478613 $560 31.525852724150706 $555 $601 forward 7 unknown #
vertex $-1 $457 $602 #
straight-curve $-1 -60.631341363227335 8.6922251369050656 5.3716183280423024 -1 0 0 I I #
edge $-1 $560 -6.5191688526787992 $454 2.1730562842262664 $453 $603 forward 7 unknown #
vertex $-1 $559 $604 #
straight-curve $-1 -48.323007904293931 8.6922251369050656 0.3537849173702341 0.65605901945558964 0 0.75470958851134928 I I #
point $-1 -43.961071979125137 8.6922251369050656 5.3716183280423015 #
point $-1 -48.323007904293952 0 0.35378491737020956 #
straight-curve $-1 -48.323007904293952 0 5.3716183280423015 0 -1 0 I I #
vertex $-1 $460 $605 #
point $-1 -45.05930084347041 2.4834928962585892 2.5839973975063573 #
vertex $-1 $464 $606 #
point $-1 -45.05930084347041 6.2087322406464764 2.5839973975063573 #
edge $-1 $570 63.510874127002538 $573 67.712353183538156 $469 $607 forward 7 unknown #
vertex $-1 $483 $608 #
straight-curve $-1 26.546503339952398 6.1775625691628253 5.3716183280423024 1 0 0 I I #
edge $-1 $573 1.4122887523993573 $480 8.1182588811275789 $479 $609 forward 7 unknown #
vertex $-1 $572 $610 #
straight-curve $-1 -17.589415527192124 6.1775625691628253 71.852561478603604 -0.68199835119979291 0 0.73135370988377701 I I #
point $-1 44.40506539517191 6.1775625691628253 5.3716183280423024 #
point $-1 48.323007904293952 12.883532697891047 1.1701392715066845 #
straight-curve $-1 48.323007904293952 0 5.3716183280423015 0 1 0 I I #
vertex $-1 $486 $611 #
point $-1 45.67495046330491 9.5305476335269361 1.2609681052460431 #
straight-curve $-1 -48.323007904293952 24.955949716423326 0 0 0 -1 I I #
point $-1 -48.323007904293952 -24.955949716423326 -5.3716183280423015 #
straight-curve $-1 -48.323007904293952 0 -5.3716183280423015 0 1 0 I I #
point $-1 -48.323007904293952 24.955949716423326 -5.3716183280423015 #
edge $-1 $515 -4.5480708642386336 $585 -1.5480708642386323 $507 $612 forward 7 unknown #
vertex $-1 $510 $613 #
straight-curve $-1 0 -24.955949716423326 1.5480708642386323 1 0 0 I I #
point $-1 48.323007904293952 -24.955949716423326 1.5480708642386323 #
point $-1 -48.323007904293952 -24.955949716423326 4.5480708642386336 #
straight-curve $-1 48.323007904293952 -24.955949716423326 0 0 0 -1 I I #
straight-curve $-1 -48.323007904293952 -11.10718186072312 1.5480708642386323 0 -1 0 I I #
point $-1 -48.323007904293952 19.472777726469154 1.5480708642386323 #
straight-curve $-1 -48.323007904293952 11.10718186072312 1.5480708642386323 0 -1 0 I I #
point $-1 -48.323007904293952 24.955949716423326 1.5480708642386323 #
straight-curve $-1 -48.323007904293952 24.955949716423326 0 0 0 -1 I I #
straight-curve $-1 -48.323007904293952 -19.472777726469154 31.879637641520915 0 0 1 I I #
straight-curve $-1 -43.961071979125137 -7.5633325790083106 5.3716183280423007 0 1 0 I I #
point $-1 -48.323007904293952 -19.472777726469154 5.3716183280423015 #
point $-1 -43.961071979125137 -19.472777726469154 5.3716183280423015 #
point $-1 -45.009975558942529 -16.989284830210565 1.8786130935228877 #
point $-1 -45.009975558942529 -13.264045485822679 1.8786130935228877 #
straight-curve $-1 -48.323007904293952 8.6922251369050656 31.879637641520915 0 0 -1 I I #
point $-1 -48.323007904293952 8.6922251369050656 5.3716183280423015 #
straight-curve $-1 -48.323007904293952 2.1730562842262664 0.35378491737021767 0 -1 0 I I #
point $-1 -48.323007904293952 8.6922251369050656 0.35378491737020956 #
point $-1 -45.009975558942529 2.4834928962585892 1.8786130935228877 #
point $-1 -45.009975558942529 6.2087322406464764 1.8786130935228877 #
straight-curve $-1 48.323007904293952 6.1775625691628253 68.88249245504484 0 0 -1 I I #
point $-1 48.323007904293952 6.1775625691628253 5.3716183280423015 #
straight-curve $-1 48.323007904293945 4.7652738167634681 1.1701392715066774 0 1 0 I I #
point $-1 48.323007904293952 6.1775625691628253 1.1701392715066845 #
point $-1 44.261598402221338 9.5305476335269361 1.3103234639300272 #
straight-curve $-1 -48.323007904293952 -24.955949716423326 0 0 0 -1 I I #
point $-1 -48.323007904293952 -24.955949716423326 1.5480708642386323 #
End-of-ACIS-data 