500 0 9 0           
7 Unknown 11 ACIS 5.0 NT 24 Fri Mar 26 15:13:53 1999 
-1 9.9999999999999995e-007 1e-010 
body $-1 $9 $-1 $10 #
body $-1 $11 $-1 $12 #
body $-1 $13 $-1 $14 #
body $-1 $15 $-1 $16 #
body $-1 $17 $-1 $18 #
body $-1 $19 $-1 $20 #
body $-1 $21 $-1 $22 #
body $-1 $23 $-1 $24 #
body $-1 $25 $-1 $26 #
lump $-1 $-1 $27 $0 #
transform $-1 1 0 0 0 1 0 0 0 1 69.75066377758111 44.256878121297511 17.557015686847567 1 rotate no_reflect no_shear #
lump $-1 $-1 $28 $1 #
transform $-1 1 0 0 0 1 0 0 0 1 69.75066377758111 44.256878121297511 17.557015686847567 1 rotate no_reflect no_shear #
lump $-1 $-1 $29 $2 #
transform $-1 1 0 0 0 1 0 0 0 1 69.75066377758111 44.256878121297511 17.557015686847567 1 rotate no_reflect no_shear #
lump $-1 $-1 $30 $3 #
transform $-1 1 0 0 0 1 0 0 0 1 69.75066377758111 44.256878121297511 17.557015686847567 1 rotate no_reflect no_shear #
lump $-1 $-1 $31 $4 #
transform $-1 1 0 0 0 1 0 0 0 1 69.75066377758111 44.256878121297511 17.557015686847567 1 rotate no_reflect no_shear #
lump $-1 $-1 $32 $5 #
transform $-1 1 0 0 0 1 0 0 0 1 69.75066377758111 44.256878121297511 17.557015686847567 1 rotate no_reflect no_shear #
lump $-1 $-1 $33 $6 #
transform $-1 1 0 0 0 1 0 0 0 1 69.75066377758111 44.256878121297511 17.557015686847567 1 rotate no_reflect no_shear #
lump $-1 $-1 $34 $7 #
transform $-1 1 0 0 0 1 0 0 0 1 69.75066377758111 44.256878121297511 17.557015686847567 1 rotate no_reflect no_shear #
lump $-1 $-1 $35 $8 #
transform $-1 1 0 0 0 1 0 0 0 1 69.75066377758111 44.256878121297511 17.557015686847567 1 rotate no_reflect no_shear #
shell $-1 $-1 $-1 $36 $-1 $9 #
shell $-1 $-1 $-1 $37 $-1 $11 #
shell $-1 $-1 $-1 $38 $-1 $13 #
shell $-1 $-1 $-1 $39 $-1 $15 #
shell $-1 $-1 $-1 $40 $-1 $17 #
shell $-1 $-1 $-1 $41 $-1 $19 #
shell $-1 $-1 $-1 $42 $-1 $21 #
shell $-1 $-1 $-1 $43 $-1 $23 #
shell $-1 $-1 $-1 $44 $-1 $25 #
face $-1 $45 $46 $27 $-1 $47 forward single #
face $-1 $48 $49 $28 $-1 $50 forward single #
face $-1 $51 $52 $29 $-1 $53 reversed single #
face $-1 $54 $55 $30 $-1 $56 forward single #
face $-1 $57 $58 $31 $-1 $59 reversed single #
face $-1 $60 $61 $32 $-1 $62 forward single #
face $-1 $63 $64 $33 $-1 $65 reversed single #
face $-1 $66 $67 $34 $-1 $68 forward single #
face $-1 $69 $70 $35 $-1 $71 forward single #
face $-1 $72 $73 $27 $-1 $74 reversed single #
loop $-1 $-1 $75 $36 #
plane-surface $-1 0 0 17.557015686847567 0 0 1 1 0 0 forward_v I I I I #
face $-1 $76 $77 $28 $-1 $78 reversed single #
loop $-1 $-1 $79 $37 #
plane-surface $-1 0 -44.256878121297511 0 0 1 0 0 0 1 forward_v I I I I #
face $-1 $80 $81 $29 $-1 $82 reversed single #
loop $-1 $-1 $83 $38 #
plane-surface $-1 -147.75881718502308 -10.187192699958143 120.14551521093776 0 1 0 -0.55919291073839883 0 0.82903756765294845 forward_v I I I I #
face $-1 $84 $85 $30 $-1 $86 forward single #
loop $-1 $87 $88 $39 #
cone-surface $-1 -59.325011405251779 -5.4339790169649405 9.925207123783478 0.55919291073839883 0 -0.82903756765294845 1.2435563514794228 0 0.83878936610759824 1 I I 0 1 1.5 forward I I I I #
face $-1 $89 $90 $31 $-1 $91 reversed single #
loop $-1 $-1 $92 $40 #
plane-surface $-1 -147.75881718502308 26.892264673301074 120.14551521093776 0 1 0 -0.55919291073839883 0 0.82903756765294845 forward_v I I I I #
face $-1 $93 $94 $32 $-1 $95 forward single #
loop $-1 $96 $97 $41 #
cone-surface $-1 -59.325011405251779 31.645478356294284 9.925207123783478 0.55919291073839883 0 -0.82903756765294845 1.2435563514794228 0 0.83878936610759824 1 I I 0 1 1.5 forward I I I I #
face $-1 $98 $99 $33 $-1 $100 reversed single #
loop $-1 $-1 $101 $42 #
plane-surface $-1 52.556173910439497 -17.213984333959289 208.71284220423146 0 -1 0 -0.64278761758704617 0 -0.76604443648966558 forward_v I I I I #
face $-1 $102 $103 $34 $-1 $104 forward single #
loop $-1 $105 $106 $43 #
cone-surface $-1 65.988201826276594 -23.817897300205871 14.203236154129954 -0.64278761758704617 0 -0.76604443648966558 0.76604443648966558 0 -0.64278761758704617 1 I I 0 1 1 forward I I I I #
face $-1 $107 $108 $35 $-1 $109 forward single #
loop $-1 $110 $111 $44 #
cone-surface $-1 65.988201826276594 -19.85554952045792 14.203236154129954 -0.64278761758704617 0 -0.76604443648966558 0.76604443648966558 0 -0.64278761758704617 1 I I 0 1 1 forward I I I I #
face $-1 $112 $113 $27 $-1 $114 reversed single #
loop $-1 $-1 $115 $45 #
plane-surface $-1 0 0 -17.557015686847567 0 0 1 1 0 0 forward_v I I I I #
coedge $-1 $116 $117 $118 $119 forward $46 $-1 #
face $-1 $120 $121 $28 $-1 $122 reversed single #
loop $-1 $-1 $123 $48 #
plane-surface $-1 0 0 -17.557015686847567 0 0 1 1 0 0 forward_v I I I I #
coedge $-1 $124 $125 $126 $127 forward $49 $-1 #
face $-1 $128 $129 $29 $-1 $130 reversed single #
loop $-1 $-1 $131 $51 #
plane-surface $-1 -69.75066377758111 -5.4339790169649476 4.493673930248832 -0.55919291073839883 0 0.82903756765294845 0.82903756765294845 0 0.55919291073839883 forward_v I I I I #
coedge $-1 $132 $133 $134 $135 reversed $52 $-1 #
face $-1 $-1 $136 $30 $-1 $137 forward single #
loop $-1 $138 $139 $54 #
cone-surface $-1 -58.163564470092901 -5.4339790169649405 8.2032912632790485 0.55919291073839883 0 -0.82903756765294845 0.62177817573971139 0 0.41939468305379912 1 I I -0.70710678118654757 0.70710678118654757 0.75 forward I I I I #
loop $-1 $-1 $140 $39 #
coedge $-1 $88 $88 $141 $142 reversed $55 $-1 #
face $-1 $143 $144 $31 $-1 $145 reversed single #
loop $-1 $-1 $146 $57 #
plane-surface $-1 -69.75066377758111 31.645478356294269 4.493673930248832 -0.55919291073839883 0 0.82903756765294845 0.82903756765294845 0 0.55919291073839883 forward_v I I I I #
coedge $-1 $147 $148 $149 $150 reversed $58 $-1 #
face $-1 $-1 $151 $32 $-1 $152 forward single #
loop $-1 $153 $154 $60 #
cone-surface $-1 -58.163564470092901 31.645478356294284 8.2032912632790485 0.55919291073839883 0 -0.82903756765294845 0.62177817573971139 0 0.41939468305379912 1 I I -0.70710678118654757 0.70710678118654757 0.75 forward I I I I #
loop $-1 $-1 $155 $41 #
coedge $-1 $97 $97 $156 $157 reversed $61 $-1 #
face $-1 $158 $159 $33 $-1 $160 reversed single #
loop $-1 $-1 $161 $63 #
plane-surface $-1 -37.113552078973385 -21.836723410331899 101.84862634767697 0.64278761758704617 0 0.76604443648966558 0.76604443648966558 0 -0.64278761758704617 forward_v I I I I #
coedge $-1 $162 $163 $164 $165 reversed $64 $-1 #
face $-1 $-1 $166 $34 $-1 $167 forward single #
loop $-1 $168 $169 $66 #
cone-surface $-1 65.109040131169024 -23.817897300205871 13.155492067459246 -0.64278761758704617 0 -0.76604443648966558 0.38302221824483279 0 -0.32139380879352308 1 I I -0.70710678118654746 0.70710678118654746 0.5 forward I I I I #
loop $-1 $-1 $170 $43 #
coedge $-1 $106 $106 $171 $172 reversed $67 $-1 #
face $-1 $-1 $173 $35 $-1 $174 forward single #
loop $-1 $175 $176 $69 #
cone-surface $-1 65.109040131169024 -19.85554952045792 13.155492067459246 -0.64278761758704617 0 -0.76604443648966558 0.38302221824483279 0 -0.32139380879352308 1 I I -0.70710678118654746 0.70710678118654746 0.5 forward I I I I #
loop $-1 $-1 $177 $44 #
coedge $-1 $111 $111 $178 $179 reversed $70 $-1 #
face $-1 $180 $181 $27 $-1 $182 reversed single #
loop $-1 $-1 $183 $72 #
plane-surface $-1 0 -44.256878121297511 0 0 1 0 0 0 1 forward_v I I I I #
coedge $-1 $184 $185 $186 $187 forward $73 $-1 #
coedge $-1 $188 $75 $189 $190 forward $46 $-1 #
coedge $-1 $75 $188 $191 $192 forward $46 $-1 #
coedge $-1 $193 $194 $75 $119 reversed $195 $-1 #
edge $-1 $196 -44.256878121297511 $197 44.256878121297511 $118 $198 forward 7 unknown #
face $-1 $199 $200 $28 $-1 $201 forward single #
loop $-1 $-1 $202 $76 #
plane-surface $-1 69.75066377758111 0 0 -1 0 0 0 0 1 forward_v I I I I #
coedge $-1 $203 $204 $205 $206 forward $77 $-1 #
coedge $-1 $205 $79 $202 $207 reversed $49 $-1 #
coedge $-1 $79 $205 $208 $209 reversed $49 $-1 #
coedge $-1 $210 $211 $79 $127 reversed $200 $-1 #
edge $-1 $212 -69.75066377758111 $213 69.75066377758111 $126 $214 forward 7 unknown #
face $-1 $215 $216 $29 $-1 $217 forward single #
loop $-1 $-1 $218 $80 #
plane-surface $-1 -147.75881718502308 -0.68076533397175254 120.14551521093776 0 -1 0 0.55919291073839883 0 -0.82903756765294845 forward_v I I I I #
coedge $-1 $219 $220 $221 $222 reversed $81 $-1 #
coedge $-1 $133 $83 $223 $224 reversed $52 $-1 #
coedge $-1 $83 $132 $219 $225 reversed $52 $-1 #
coedge $-1 $221 $226 $83 $135 forward $216 $-1 #
edge $-1 $227 4.1287448149304282 $228 23.495945055378925 $134 $229 forward 7 unknown #
loop $-1 $-1 $141 $84 #
plane-surface $-1 -69.75066377758111 -5.4339790169649476 4.493673930248832 -0.55919291073839883 0 0.82903756765294845 0.82903756765294845 0 0.55919291073839883 forward_v I I I I #
loop $-1 $-1 $230 $54 #
coedge $-1 $139 $139 $140 $231 reversed $85 $-1 #
coedge $-1 $140 $140 $139 $231 forward $87 $-1 #
coedge $-1 $141 $141 $88 $142 forward $136 $-1 #
edge $-1 $232 0 $232 6.2831853071796004 $141 $233 forward 7 unknown #
face $-1 $234 $235 $31 $-1 $236 forward single #
loop $-1 $-1 $237 $89 #
plane-surface $-1 -147.75881718502308 36.398692039287468 120.14551521093776 0 -1 0 0.55919291073839883 0 -0.82903756765294845 forward_v I I I I #
coedge $-1 $238 $239 $240 $241 reversed $90 $-1 #
coedge $-1 $148 $92 $242 $243 reversed $58 $-1 #
coedge $-1 $92 $147 $238 $244 reversed $58 $-1 #
coedge $-1 $240 $245 $92 $150 forward $235 $-1 #
edge $-1 $246 4.1287448149304282 $247 23.495945055378925 $149 $248 forward 7 unknown #
loop $-1 $-1 $156 $93 #
plane-surface $-1 -69.75066377758111 31.645478356294269 4.493673930248832 -0.55919291073839883 0 0.82903756765294845 0.82903756765294845 0 0.55919291073839883 forward_v I I I I #
loop $-1 $-1 $249 $60 #
coedge $-1 $154 $154 $155 $250 reversed $94 $-1 #
coedge $-1 $155 $155 $154 $250 forward $96 $-1 #
coedge $-1 $156 $156 $97 $157 forward $151 $-1 #
edge $-1 $251 0 $251 6.2831853071796004 $156 $252 forward 7 unknown #
face $-1 $253 $254 $33 $-1 $255 reversed single #
loop $-1 $-1 $256 $98 #
plane-surface $-1 52.556173910439497 -26.45946248670451 208.71284220423146 0 1 0 0.64278761758704617 0 0.76604443648966558 forward_v I I I I #
coedge $-1 $257 $258 $259 $260 reversed $99 $-1 #
coedge $-1 $163 $101 $261 $262 reversed $64 $-1 #
coedge $-1 $101 $162 $257 $263 reversed $64 $-1 #
coedge $-1 $259 $264 $101 $165 forward $265 $-1 #
edge $-1 $266 -43.472576822361361 $267 -37.063188692380393 $164 $268 forward 7 unknown #
loop $-1 $-1 $171 $102 #
plane-surface $-1 -37.113552078973385 -21.836723410331899 101.84862634767697 0.64278761758704617 0 0.76604443648966558 0.76604443648966558 0 -0.64278761758704617 forward_v I I I I #
loop $-1 $-1 $269 $66 #
coedge $-1 $169 $169 $170 $270 reversed $103 $-1 #
coedge $-1 $170 $170 $169 $270 forward $105 $-1 #
coedge $-1 $171 $171 $106 $172 forward $166 $-1 #
edge $-1 $271 0 $271 6.2831853071796004 $171 $272 forward 7 unknown #
loop $-1 $-1 $178 $107 #
plane-surface $-1 -37.113552078973385 -21.836723410331899 101.84862634767697 0.64278761758704617 0 0.76604443648966558 0.76604443648966558 0 -0.64278761758704617 forward_v I I I I #
loop $-1 $-1 $273 $69 #
coedge $-1 $176 $176 $177 $274 reversed $108 $-1 #
coedge $-1 $177 $177 $176 $274 forward $110 $-1 #
coedge $-1 $178 $178 $111 $179 forward $173 $-1 #
edge $-1 $275 0 $275 6.2831853071796004 $178 $276 forward 7 unknown #
face $-1 $277 $278 $27 $-1 $279 reversed single #
loop $-1 $-1 $280 $112 #
plane-surface $-1 -69.75066377758111 0 0 1 0 0 0 0 -1 forward_v I I I I #
coedge $-1 $281 $191 $282 $283 forward $113 $-1 #
coedge $-1 $284 $115 $281 $285 forward $73 $-1 #
coedge $-1 $115 $284 $286 $287 forward $73 $-1 #
coedge $-1 $194 $193 $115 $187 reversed $195 $-1 #
edge $-1 $288 -44.256878121297511 $289 44.256878121297511 $186 $290 forward 7 unknown #
coedge $-1 $117 $116 $291 $292 forward $46 $-1 #
coedge $-1 $293 $294 $116 $190 reversed $278 $-1 #
edge $-1 $197 -69.75066377758111 $295 69.75066377758111 $189 $296 forward 7 unknown #
coedge $-1 $183 $297 $117 $192 reversed $113 $-1 #
edge $-1 $298 -69.75066377758111 $196 69.75066377758111 $191 $299 forward 7 unknown #
coedge $-1 $186 $118 $297 $300 forward $195 $-1 #
coedge $-1 $118 $186 $293 $301 reversed $195 $-1 #
loop $-1 $-1 $193 $277 #
vertex $-1 $119 $302 #
vertex $-1 $119 $303 #
straight-curve $-1 69.75066377758111 0 17.557015686847567 0 1 0 I I #
face $-1 $304 $305 $28 $-1 $306 reversed single #
loop $-1 $-1 $211 $120 #
plane-surface $-1 0 -51.434298869335798 -8.7166213322439141 0 0 1 1 0 0 forward_v I I I I #
coedge $-1 $307 $308 $124 $207 forward $121 $-1 #
coedge $-1 $309 $123 $308 $310 forward $77 $-1 #
coedge $-1 $123 $309 $311 $312 forward $77 $-1 #
coedge $-1 $125 $124 $123 $206 reversed $49 $-1 #
edge $-1 $313 -69.75066377758111 $314 69.75066377758111 $123 $315 forward 7 unknown #
edge $-1 $314 -17.557015686847567 $213 -8.7166213322439141 $202 $316 forward 7 unknown #
coedge $-1 $311 $317 $125 $209 forward $318 $-1 #
edge $-1 $212 8.7166213322439141 $313 17.557015686847567 $208 $319 forward 7 unknown #
coedge $-1 $320 $126 $317 $321 forward $200 $-1 #
coedge $-1 $126 $320 $307 $322 forward $200 $-1 #
vertex $-1 $209 $323 #
vertex $-1 $322 $324 #
straight-curve $-1 0 -44.256878121297511 -8.7166213322439141 1 0 0 I I #
face $-1 $-1 $325 $29 $-1 $326 reversed single #
loop $-1 $-1 $134 $128 #
plane-surface $-1 0 0 17.557015686847567 0 0 1 1 0 0 forward_v I I I I #
coedge $-1 $327 $328 $329 $330 reversed $129 $-1 #
coedge $-1 $331 $131 $133 $225 forward $81 $-1 #
coedge $-1 $131 $331 $327 $332 forward $81 $-1 #
coedge $-1 $329 $134 $131 $222 forward $216 $-1 #
edge $-1 $228 -7.4702031914756688 $333 2.0362241745107212 $221 $334 forward 7 unknown #
coedge $-1 $335 $336 $132 $224 forward $325 $-1 #
edge $-1 $337 -55.579083675220048 $227 -42.515741918621316 $223 $338 forward 7 unknown #
edge $-1 $228 -23.361064680431934 $337 0 $133 $339 forward 7 unknown #
coedge $-1 $134 $329 $335 $340 forward $216 $-1 #
vertex $-1 $224 $341 #
vertex $-1 $135 $342 #
straight-curve $-1 -73.879408592511538 -10.187192699958143 17.557015686847564 1 0 0 I I #
coedge $-1 $230 $230 $-1 $343 reversed $138 $-1 #
edge $-1 $344 0 $344 6.2831853071796004 $139 $345 forward 7 unknown #
vertex $-1 $142 $346 #
ellipse-curve $-1 -60.067063657356861 -5.4339790169649405 11.025344808548201 -0.55919291073839883 0 0.82903756765294845 1.2435563514794228 0 0.83878936610759824 1 I I #
face $-1 $-1 $347 $31 $-1 $348 reversed single #
loop $-1 $-1 $149 $143 #
plane-surface $-1 0 0 17.557015686847567 0 0 1 1 0 0 forward_v I I I I #
coedge $-1 $349 $350 $351 $352 reversed $144 $-1 #
coedge $-1 $353 $146 $148 $244 forward $90 $-1 #
coedge $-1 $146 $353 $349 $354 forward $90 $-1 #
coedge $-1 $351 $149 $146 $241 forward $235 $-1 #
edge $-1 $247 11.06952549515394 $355 20.575952861140333 $240 $356 forward 7 unknown #
coedge $-1 $357 $358 $147 $243 forward $347 $-1 #
edge $-1 $359 -55.579083675220048 $246 -42.515741918621316 $242 $360 forward 7 unknown #
edge $-1 $247 -23.361064680431934 $359 0 $148 $361 forward 7 unknown #
coedge $-1 $149 $351 $357 $362 forward $235 $-1 #
vertex $-1 $150 $363 #
vertex $-1 $150 $364 #
straight-curve $-1 -73.879408592511538 26.892264673301074 17.557015686847564 1 0 0 I I #
coedge $-1 $249 $249 $-1 $365 reversed $153 $-1 #
edge $-1 $366 0 $366 6.2831853071796004 $154 $367 forward 7 unknown #
vertex $-1 $157 $368 #
ellipse-curve $-1 -60.067063657356861 31.645478356294284 11.025344808548201 -0.55919291073839883 0 0.82903756765294845 1.2435563514794228 0 0.83878936610759824 1 I I #
face $-1 $-1 $265 $33 $-1 $369 forward single #
loop $-1 $-1 $370 $158 #
plane-surface $-1 69.75066377758111 0 0 -1 0 0 0 0 1 forward_v I I I I #
coedge $-1 $371 $372 $373 $374 reversed $159 $-1 #
coedge $-1 $375 $161 $163 $263 forward $99 $-1 #
coedge $-1 $161 $375 $371 $376 forward $99 $-1 #
coedge $-1 $373 $164 $161 $260 forward $265 $-1 #
edge $-1 $267 6.295622628793339 $377 15.54110078153856 $259 $378 forward 7 unknown #
coedge $-1 $379 $380 $162 $262 forward $254 $-1 #
edge $-1 $381 -92.177520743851645 $266 -86.799405415268168 $261 $382 forward 7 unknown #
edge $-1 $267 131.13446549771885 $381 139.50132755516222 $163 $383 forward 7 unknown #
coedge $-1 $164 $373 $379 $384 forward $265 $-1 #
loop $-1 $-1 $373 $253 #
vertex $-1 $262 $385 #
vertex $-1 $165 $386 #
straight-curve $-1 26.278086955219749 -17.213984333959289 17.557015686847564 -1 0 0 I I #
coedge $-1 $269 $269 $-1 $387 reversed $168 $-1 #
edge $-1 $388 0 $388 6.2831853071796004 $169 $389 forward 7 unknown #
vertex $-1 $172 $390 #
ellipse-curve $-1 66.545969712590633 -23.817897300205871 14.867958022555822 0.64278761758704617 0 0.76604443648966558 0.76604443648966558 0 -0.64278761758704617 1 I I #
coedge $-1 $273 $273 $-1 $391 reversed $175 $-1 #
edge $-1 $392 0 $392 6.2831853071796004 $176 $393 forward 7 unknown #
vertex $-1 $179 $394 #
ellipse-curve $-1 66.545969712590633 -19.85554952045792 14.867958022555822 0.64278761758704617 0 0.76604443648966558 0.76604443648966558 0 -0.64278761758704617 1 I I #
face $-1 $-1 $195 $27 $-1 $395 reversed single #
loop $-1 $-1 $293 $180 #
plane-surface $-1 0 44.256878121297511 0 0 -1 0 0 0 -1 forward_v I I I I #
coedge $-1 $396 $291 $294 $397 forward $181 $-1 #
coedge $-1 $297 $183 $184 $285 reversed $113 $-1 #
coedge $-1 $291 $396 $183 $283 reversed $181 $-1 #
edge $-1 $298 -17.557015686847567 $398 17.557015686847567 $282 $399 forward 7 unknown #
coedge $-1 $185 $184 $396 $400 forward $73 $-1 #
edge $-1 $289 -69.75066377758111 $398 69.75066377758111 $281 $401 forward 7 unknown #
coedge $-1 $294 $293 $185 $287 reversed $278 $-1 #
edge $-1 $402 -69.75066377758111 $288 69.75066377758111 $286 $403 forward 7 unknown #
vertex $-1 $187 $404 #
vertex $-1 $300 $405 #
straight-curve $-1 69.75066377758111 0 -17.557015686847567 0 -1 0 I I #
coedge $-1 $280 $282 $188 $292 reversed $181 $-1 #
edge $-1 $295 -44.256878121297511 $298 44.256878121297511 $291 $406 forward 7 unknown #
coedge $-1 $286 $189 $194 $301 forward $278 $-1 #
coedge $-1 $189 $286 $280 $397 reversed $278 $-1 #
vertex $-1 $190 $407 #
straight-curve $-1 0 44.256878121297511 17.557015686847567 -1 0 0 I I #
coedge $-1 $191 $281 $193 $300 reversed $113 $-1 #
vertex $-1 $292 $408 #
straight-curve $-1 0 -44.256878121297511 17.557015686847567 1 0 0 I I #
edge $-1 $196 -17.557015686847567 $289 17.557015686847567 $193 $409 forward 7 unknown #
edge $-1 $197 -17.557015686847567 $288 17.557015686847567 $194 $410 forward 7 unknown #
point $-1 69.75066377758111 -44.256878121297511 17.557015686847567 #
point $-1 69.75066377758111 44.256878121297511 17.557015686847567 #
face $-1 $-1 $318 $28 $-1 $411 reversed single #
loop $-1 $-1 $412 $199 #
plane-surface $-1 0 -58.611719617374085 -13.136818509545741 0 1 0 0 0 1 forward_v I I I I #
coedge $-1 $413 $202 $211 $322 reversed $121 $-1 #
coedge $-1 $202 $413 $203 $310 reversed $121 $-1 #
coedge $-1 $204 $203 $414 $415 forward $77 $-1 #
edge $-1 $314 44.256878121297511 $416 58.611719617374085 $308 $417 forward 7 unknown #
coedge $-1 $418 $208 $204 $312 reversed $318 $-1 #
edge $-1 $419 -58.611719617374085 $313 -44.256878121297511 $311 $420 forward 7 unknown #
vertex $-1 $209 $421 #
vertex $-1 $310 $422 #
straight-curve $-1 0 -44.256878121297511 -17.557015686847567 1 0 0 I I #
straight-curve $-1 69.75066377758111 -44.256878121297511 0 0 0 1 I I #
coedge $-1 $208 $418 $210 $321 reversed $318 $-1 #
loop $-1 $-1 $208 $304 #
straight-curve $-1 -69.75066377758111 -44.256878121297511 0 0 0 -1 I I #
coedge $-1 $211 $210 $423 $424 forward $200 $-1 #
edge $-1 $212 -7.177420748038287 $425 7.177420748038287 $317 $426 forward 7 unknown #
edge $-1 $427 -7.177420748038287 $213 7.177420748038287 $307 $428 forward 7 unknown #
point $-1 -69.75066377758111 -44.256878121297511 -8.7166213322439141 #
point $-1 69.75066377758111 -44.256878121297511 -8.7166213322439141 #
loop $-1 $-1 $223 $215 #
plane-surface $-1 -69.75066377758111 0 0 1 0 0 0 0 -1 forward_v I I I I #
coedge $-1 $328 $218 $220 $332 reversed $129 $-1 #
coedge $-1 $218 $327 $429 $430 reversed $129 $-1 #
coedge $-1 $226 $221 $218 $330 forward $216 $-1 #
edge $-1 $333 -23.495945055378925 $431 -4.1287448149304282 $329 $432 forward 7 unknown #
coedge $-1 $220 $219 $336 $433 reversed $81 $-1 #
edge $-1 $434 0 $333 23.361064680431934 $327 $435 forward 7 unknown #
vertex $-1 $222 $436 #
straight-curve $-1 -50.383463537132613 -2.7169895084824738 17.557015686847567 0 1 0 I I #
coedge $-1 $429 $223 $226 $340 reversed $325 $-1 #
coedge $-1 $223 $429 $331 $433 forward $325 $-1 #
vertex $-1 $224 $437 #
straight-curve $-1 -69.75066377758111 -10.187192699958143 60.07275760546888 0 0 1 I I #
straight-curve $-1 -69.75066377758111 -10.187192699958143 4.493673930248832 -0.82903756765294845 0 -0.55919291073839883 I I #
edge $-1 $431 0.68076533397175254 $227 10.187192699958143 $335 $438 forward 7 unknown #
point $-1 -69.75066377758111 -10.187192699958143 17.557015686847567 #
point $-1 -50.383463537132613 -10.187192699958143 17.557015686847567 #
edge $-1 $439 1 $439 0 $230 $-1 forward 7 unknown #
vertex $-1 $231 $440 #
ellipse-curve $-1 -58.582959153146703 -5.4339790169649405 8.8250694390187601 -0.55919291073839883 0 0.82903756765294845 1.2435563514794228 0 0.83878936610759824 1 I I #
point $-1 -58.823507305877435 -5.4339790169649405 11.864134174655794 #
loop $-1 $-1 $242 $234 #
plane-surface $-1 -69.75066377758111 0 0 1 0 0 0 0 -1 forward_v I I I I #
coedge $-1 $350 $237 $239 $354 reversed $144 $-1 #
coedge $-1 $237 $349 $441 $442 reversed $144 $-1 #
coedge $-1 $245 $240 $237 $352 forward $235 $-1 #
edge $-1 $355 -23.495945055378925 $443 -4.1287448149304282 $351 $444 forward 7 unknown #
coedge $-1 $239 $238 $358 $445 reversed $90 $-1 #
edge $-1 $446 0 $355 23.361064680431934 $349 $447 forward 7 unknown #
vertex $-1 $241 $448 #
straight-curve $-1 -50.383463537132613 15.822739178147135 17.557015686847567 0 1 0 I I #
coedge $-1 $441 $242 $245 $362 reversed $347 $-1 #
coedge $-1 $242 $441 $353 $445 forward $347 $-1 #
vertex $-1 $243 $449 #
straight-curve $-1 -69.75066377758111 26.892264673301074 60.07275760546888 0 0 1 I I #
straight-curve $-1 -69.75066377758111 26.892264673301074 4.493673930248832 -0.82903756765294845 0 -0.55919291073839883 I I #
edge $-1 $443 -36.398692039287468 $246 -26.892264673301074 $357 $450 forward 7 unknown #
point $-1 -69.75066377758111 26.892264673301074 17.557015686847567 #
point $-1 -50.383463537132613 26.892264673301074 17.557015686847567 #
edge $-1 $451 1 $451 0 $249 $-1 forward 7 unknown #
vertex $-1 $250 $452 #
ellipse-curve $-1 -58.582959153146703 31.645478356294284 8.8250694390187601 -0.55919291073839883 0 0.82903756765294845 1.2435563514794228 0 0.83878936610759824 1 I I #
point $-1 -58.823507305877435 31.645478356294284 11.864134174655794 #
plane-surface $-1 0 0 17.557015686847567 0 0 1 1 0 0 forward_v I I I I #
coedge $-1 $380 $379 $372 $453 forward $254 $-1 #
coedge $-1 $372 $256 $258 $376 reversed $159 $-1 #
coedge $-1 $256 $371 $370 $453 reversed $159 $-1 #
coedge $-1 $264 $259 $256 $374 forward $265 $-1 #
edge $-1 $377 37.063188692380393 $454 43.472576822361361 $373 $455 forward 7 unknown #
coedge $-1 $258 $257 $380 $456 reversed $99 $-1 #
edge $-1 $457 -139.50132755516222 $377 -131.13446549771885 $371 $458 forward 7 unknown #
vertex $-1 $260 $459 #
straight-curve $-1 63.341275647600142 -10.91836170516595 17.557015686847571 0 -1 0 I I #
coedge $-1 $370 $261 $264 $384 reversed $254 $-1 #
coedge $-1 $261 $370 $375 $456 forward $254 $-1 #
vertex $-1 $262 $460 #
straight-curve $-1 69.75066377758111 -17.213984333959289 104.35642110211573 0 0 1 I I #
straight-curve $-1 -37.113552078973385 -17.213984333959289 101.84862634767697 0.76604443648966558 0 -0.64278761758704617 I I #
edge $-1 $454 -26.45946248670451 $266 -17.213984333959289 $379 $461 forward 7 unknown #
point $-1 69.75066377758111 -17.213984333959289 17.557015686847567 #
point $-1 63.341275647600142 -17.213984333959289 17.557015686847564 #
edge $-1 $462 1 $462 0 $269 $-1 forward 7 unknown #
vertex $-1 $270 $463 #
ellipse-curve $-1 65.430433939962541 -23.817897300205871 13.538514285704078 0.64278761758704617 0 0.76604443648966558 0.76604443648966558 0 -0.64278761758704617 1 I I #
point $-1 67.312014149080312 -23.817897300205871 14.225170404968784 #
edge $-1 $464 1 $464 0 $273 $-1 forward 7 unknown #
vertex $-1 $274 $465 #
ellipse-curve $-1 65.430433939962541 -19.85554952045792 13.538514285704078 0.64278761758704617 0 0.76604443648966558 0.76604443648966558 0 -0.64278761758704617 1 I I #
point $-1 67.312014149080312 -19.85554952045792 14.225170404968784 #
plane-surface $-1 69.75066377758111 0 0 -1 0 0 0 0 1 forward_v I I I I #
coedge $-1 $282 $280 $284 $400 reversed $181 $-1 #
edge $-1 $295 -17.557015686847567 $402 17.557015686847567 $294 $466 forward 7 unknown #
vertex $-1 $400 $467 #
straight-curve $-1 -69.75066377758111 -44.256878121297511 0 0 0 -1 I I #
edge $-1 $398 -44.256878121297511 $402 44.256878121297511 $396 $468 forward 7 unknown #
straight-curve $-1 0 -44.256878121297511 -17.557015686847567 -1 0 0 I I #
vertex $-1 $287 $469 #
straight-curve $-1 0 44.256878121297511 -17.557015686847567 1 0 0 I I #
point $-1 69.75066377758111 44.256878121297511 -17.557015686847567 #
point $-1 69.75066377758111 -44.256878121297511 -17.557015686847567 #
straight-curve $-1 -69.75066377758111 0 17.557015686847567 0 -1 0 I I #
point $-1 -69.75066377758111 44.256878121297511 17.557015686847567 #
point $-1 -69.75066377758111 -44.256878121297511 17.557015686847567 #
straight-curve $-1 69.75066377758111 -44.256878121297511 0 0 0 -1 I I #
straight-curve $-1 69.75066377758111 44.256878121297511 0 0 0 -1 I I #
plane-surface $-1 -69.75066377758111 0 0 1 0 0 0 0 -1 forward_v I I I I #
coedge $-1 $414 $423 $418 $470 forward $305 $-1 #
coedge $-1 $308 $307 $471 $472 forward $121 $-1 #
coedge $-1 $471 $412 $309 $415 reversed $305 $-1 #
edge $-1 $416 -69.75066377758111 $419 69.75066377758111 $414 $473 forward 7 unknown #
vertex $-1 $472 $474 #
straight-curve $-1 69.75066377758111 0 -17.557015686847567 0 -1 0 I I #
coedge $-1 $317 $311 $412 $470 reversed $318 $-1 #
vertex $-1 $312 $475 #
straight-curve $-1 -69.75066377758111 0 -17.557015686847567 0 1 0 I I #
point $-1 -69.75066377758111 -44.256878121297511 -17.557015686847567 #
point $-1 69.75066377758111 -44.256878121297511 -17.557015686847567 #
coedge $-1 $412 $471 $320 $424 reversed $305 $-1 #
edge $-1 $425 -69.75066377758111 $427 69.75066377758111 $423 $476 forward 7 unknown #
vertex $-1 $321 $477 #
straight-curve $-1 -69.75066377758111 -51.434298869335798 -8.7166213322439141 0 -1 0 I I #
vertex $-1 $322 $478 #
straight-curve $-1 69.75066377758111 -51.434298869335798 -8.7166213322439141 0 1 0 I I #
coedge $-1 $336 $335 $328 $430 forward $325 $-1 #
edge $-1 $431 42.515741918621316 $434 55.579083675220048 $429 $479 forward 7 unknown #
vertex $-1 $340 $480 #
straight-curve $-1 -73.879408592511538 -0.68076533397175254 17.557015686847564 -1 0 0 I I #
edge $-1 $434 -2.0362241745107212 $337 7.4702031914756688 $336 $481 forward 7 unknown #
vertex $-1 $433 $482 #
straight-curve $-1 -69.75066377758111 -0.68076533397175254 4.493673930248832 0.82903756765294845 0 0.55919291073839883 I I #
point $-1 -50.383463537132613 -0.68076533397175254 17.557015686847567 #
point $-1 -69.75066377758111 -10.187192699958143 4.493673930248832 #
straight-curve $-1 -69.75066377758111 0 17.557015686847567 0 -1 0 I I #
vertex $-1 $343 $483 #
point $-1 -57.339402801667276 -5.4339790169649405 9.6638588051263579 #
coedge $-1 $358 $357 $350 $442 forward $347 $-1 #
edge $-1 $443 42.515741918621316 $446 55.579083675220048 $441 $484 forward 7 unknown #
vertex $-1 $362 $485 #
straight-curve $-1 -73.879408592511538 36.398692039287468 17.557015686847564 -1 0 0 I I #
edge $-1 $446 -20.575952861140333 $359 -11.06952549515394 $358 $486 forward 7 unknown #
vertex $-1 $445 $487 #
straight-curve $-1 -69.75066377758111 36.398692039287468 4.493673930248832 0.82903756765294845 0 0.55919291073839883 I I #
point $-1 -50.383463537132613 36.398692039287468 17.557015686847567 #
point $-1 -69.75066377758111 26.892264673301074 4.493673930248832 #
straight-curve $-1 -69.75066377758111 0 17.557015686847567 0 -1 0 I I #
vertex $-1 $365 $488 #
point $-1 -57.339402801667276 31.645478356294284 9.6638588051263579 #
edge $-1 $454 86.799405415268168 $457 92.177520743851645 $370 $489 forward 7 unknown #
vertex $-1 $384 $490 #
straight-curve $-1 26.278086955219749 -26.45946248670451 17.557015686847564 1 0 0 I I #
edge $-1 $457 -15.54110078153856 $381 -6.295622628793339 $380 $491 forward 7 unknown #
vertex $-1 $456 $492 #
straight-curve $-1 -37.113552078973385 -26.45946248670451 101.84862634767697 -0.76604443648966558 0 0.64278761758704617 I I #
point $-1 63.341275647600142 -26.45946248670451 17.557015686847564 #
point $-1 69.75066377758111 -17.213984333959289 12.178900358264087 #
straight-curve $-1 69.75066377758111 0 17.557015686847567 0 1 0 I I #
vertex $-1 $387 $493 #
point $-1 66.19647837645222 -23.817897300205871 12.895726668117032 #
vertex $-1 $391 $494 #
point $-1 66.19647837645222 -19.85554952045792 12.895726668117032 #
straight-curve $-1 -69.75066377758111 44.256878121297511 0 0 0 -1 I I #
point $-1 -69.75066377758111 -44.256878121297511 -17.557015686847567 #
straight-curve $-1 -69.75066377758111 0 -17.557015686847567 0 1 0 I I #
point $-1 -69.75066377758111 44.256878121297511 -17.557015686847567 #
edge $-1 $425 -4.4201971773018265 $419 4.4201971773018265 $418 $495 forward 7 unknown #
coedge $-1 $423 $414 $413 $472 reversed $305 $-1 #
edge $-1 $427 -4.4201971773018265 $416 4.4201971773018265 $413 $496 forward 7 unknown #
straight-curve $-1 0 -58.611719617374085 -17.557015686847567 -1 0 0 I I #
point $-1 69.75066377758111 -58.611719617374085 -17.557015686847567 #
point $-1 -69.75066377758111 -58.611719617374085 -17.557015686847567 #
straight-curve $-1 0 -58.611719617374085 -8.7166213322439141 1 0 0 I I #
point $-1 -69.75066377758111 -58.611719617374085 -8.7166213322439141 #
point $-1 69.75066377758111 -58.611719617374085 -8.7166213322439141 #
straight-curve $-1 -69.75066377758111 -0.68076533397175254 60.07275760546888 0 0 -1 I I #
point $-1 -69.75066377758111 -0.68076533397175254 17.557015686847567 #
straight-curve $-1 -69.75066377758111 -2.7169895084824738 4.4936739302488311 0 -1 0 I I #
point $-1 -69.75066377758111 -0.68076533397175254 4.493673930248832 #
point $-1 -57.744169787039098 -5.4339790169649405 7.5815130875393368 #
straight-curve $-1 -69.75066377758111 36.398692039287468 60.07275760546888 0 0 -1 I I #
point $-1 -69.75066377758111 36.398692039287468 17.557015686847567 #
straight-curve $-1 -69.75066377758111 15.822739178147135 4.4936739302488311 0 -1 0 I I #
point $-1 -69.75066377758111 36.398692039287468 4.493673930248832 #
point $-1 -57.744169787039098 31.645478356294284 7.5815130875393368 #
straight-curve $-1 69.75066377758111 -26.45946248670451 104.35642110211573 0 0 -1 I I #
point $-1 69.75066377758111 -26.45946248670451 17.557015686847567 #
straight-curve $-1 69.750663777581096 -10.91836170516595 12.178900358264102 0 1 0 I I #
point $-1 69.75066377758111 -26.45946248670451 12.178900358264087 #
point $-1 64.787646322375508 -23.817897300205871 12.772469849214414 #
point $-1 64.787646322375508 -19.85554952045792 12.772469849214414 #
straight-curve $-1 -69.75066377758111 -58.611719617374085 -13.136818509545741 0 0 -1 I I #
straight-curve $-1 69.75066377758111 -58.611719617374085 -13.136818509545741 0 0 -1 I I #
End-of-ACIS-data 