500 0 14 0           
7 Unknown 11 ACIS 5.0 NT 24 Thu Mar 25 20:34:18 1999 
-1 9.9999999999999995e-007 1e-010 
body $-1 $14 $-1 $15 #
body $-1 $16 $-1 $17 #
body $-1 $18 $-1 $19 #
body $-1 $20 $-1 $21 #
body $-1 $22 $-1 $23 #
body $-1 $24 $-1 $25 #
body $-1 $26 $-1 $27 #
body $-1 $28 $-1 $29 #
body $-1 $30 $-1 $31 #
body $-1 $32 $-1 $33 #
body $-1 $34 $-1 $35 #
body $-1 $36 $-1 $37 #
body $-1 $38 $-1 $39 #
body $-1 $40 $-1 $41 #
lump $-1 $-1 $42 $0 #
transform $-1 1 0 0 0 1 0 0 0 1 44.887844477675714 29.257307147256938 8.5145933700443184 1 rotate no_reflect no_shear #
lump $-1 $-1 $43 $1 #
transform $-1 1 0 0 0 1 0 0 0 1 44.887844477675714 29.257307147256938 8.5145933700443184 1 rotate no_reflect no_shear #
lump $-1 $-1 $44 $2 #
transform $-1 1 0 0 0 1 0 0 0 1 44.887844477675714 29.257307147256938 8.5145933700443184 1 rotate no_reflect no_shear #
lump $-1 $-1 $45 $3 #
transform $-1 1 0 0 0 1 0 0 0 1 44.887844477675714 29.257307147256938 8.5145933700443184 1 rotate no_reflect no_shear #
lump $-1 $-1 $46 $4 #
transform $-1 1 0 0 0 1 0 0 0 1 44.887844477675714 29.257307147256938 8.5145933700443184 1 rotate no_reflect no_shear #
lump $-1 $-1 $47 $5 #
transform $-1 1 0 0 0 1 0 0 0 1 44.887844477675714 29.257307147256938 8.5145933700443184 1 rotate no_reflect no_shear #
lump $-1 $-1 $48 $6 #
transform $-1 1 0 0 0 1 0 0 0 1 44.887844477675714 29.257307147256938 8.5145933700443184 1 rotate no_reflect no_shear #
lump $-1 $-1 $49 $7 #
transform $-1 1 0 0 0 1 0 0 0 1 44.887844477675714 29.257307147256938 8.5145933700443184 1 rotate no_reflect no_shear #
lump $-1 $-1 $50 $8 #
transform $-1 1 0 0 0 1 0 0 0 1 44.887844477675714 29.257307147256938 8.5145933700443184 1 rotate no_reflect no_shear #
lump $-1 $-1 $51 $9 #
transform $-1 1 0 0 0 1 0 0 0 1 44.887844477675714 29.257307147256938 8.5145933700443184 1 rotate no_reflect no_shear #
lump $-1 $-1 $52 $10 #
transform $-1 1 0 0 0 1 0 0 0 1 44.887844477675714 29.257307147256938 8.5145933700443184 1 rotate no_reflect no_shear #
lump $-1 $-1 $53 $11 #
transform $-1 1 0 0 0 1 0 0 0 1 44.887844477675714 29.257307147256938 8.5145933700443184 1 rotate no_reflect no_shear #
lump $-1 $-1 $54 $12 #
transform $-1 1 0 0 0 1 0 0 0 1 44.887844477675714 29.257307147256938 8.5145933700443184 1 rotate no_reflect no_shear #
lump $-1 $-1 $55 $13 #
transform $-1 1 0 0 0 1 0 0 0 1 44.887844477675714 29.257307147256938 8.5145933700443184 1 rotate no_reflect no_shear #
shell $-1 $-1 $-1 $56 $-1 $14 #
shell $-1 $-1 $-1 $57 $-1 $16 #
shell $-1 $-1 $-1 $58 $-1 $18 #
shell $-1 $-1 $-1 $59 $-1 $20 #
shell $-1 $-1 $-1 $60 $-1 $22 #
shell $-1 $-1 $-1 $61 $-1 $24 #
shell $-1 $-1 $-1 $62 $-1 $26 #
shell $-1 $-1 $-1 $63 $-1 $28 #
shell $-1 $-1 $-1 $64 $-1 $30 #
shell $-1 $-1 $-1 $65 $-1 $32 #
shell $-1 $-1 $-1 $66 $-1 $34 #
shell $-1 $-1 $-1 $67 $-1 $36 #
shell $-1 $-1 $-1 $68 $-1 $38 #
shell $-1 $-1 $-1 $69 $-1 $40 #
face $-1 $70 $71 $42 $-1 $72 forward single #
face $-1 $73 $74 $43 $-1 $75 reversed single #
face $-1 $76 $77 $44 $-1 $78 reversed single #
face $-1 $79 $80 $45 $-1 $81 forward single #
face $-1 $82 $83 $46 $-1 $84 forward single #
face $-1 $85 $86 $47 $-1 $87 reversed single #
face $-1 $88 $89 $48 $-1 $90 forward single #
face $-1 $91 $92 $49 $-1 $93 forward single #
face $-1 $94 $95 $50 $-1 $96 reversed single #
face $-1 $97 $98 $51 $-1 $99 forward single #
face $-1 $100 $101 $52 $-1 $102 forward single #
face $-1 $103 $104 $53 $-1 $105 reversed single #
face $-1 $106 $107 $54 $-1 $108 forward single #
face $-1 $109 $110 $55 $-1 $111 forward single #
face $-1 $112 $113 $42 $-1 $114 reversed single #
loop $-1 $-1 $115 $56 #
plane-surface $-1 0 0 8.5145933700443184 0 0 1 1 0 0 forward_v I I I I #
face $-1 $116 $117 $43 $-1 $118 reversed single #
loop $-1 $-1 $119 $57 #
plane-surface $-1 0 -23.757727469710645 3.909535818689255 0 0 1 1 0 0 forward_v I I I I #
face $-1 $120 $121 $44 $-1 $122 reversed single #
loop $-1 $-1 $123 $58 #
plane-surface $-1 66.934565644016345 -6.7985749459578813 126.67338278357157 0 -1 0 -0.81915205242281985 0 -0.57357642473473569 forward_v I I I I #
face $-1 $124 $125 $45 $-1 $126 forward single #
loop $-1 $127 $128 $59 #
cone-surface $-1 41.322671952371827 -14.983984121819645 4.2662673669477318 -0.81915205242281985 0 -0.57357642473473569 0.57357642473473569 0 -0.81915205242281985 1 I I 0 1 1 forward I I I I #
face $-1 $129 $130 $46 $-1 $131 forward single #
loop $-1 $132 $133 $60 #
cone-surface $-1 41.322671952371827 -10.072738616302587 4.2662673669477318 -0.81915205242281985 0 -0.57357642473473569 0.57357642473473569 0 -0.81915205242281985 1 I I 0 1 1 forward I I I I #
face $-1 $134 $135 $47 $-1 $136 reversed single #
loop $-1 $-1 $137 $61 #
plane-surface $-1 66.934565644016345 16.959152523752763 126.67338278357157 0 -1 0 -0.81915205242281985 0 -0.57357642473473569 forward_v I I I I #
face $-1 $138 $139 $48 $-1 $140 forward single #
loop $-1 $141 $142 $62 #
cone-surface $-1 41.322671952371827 8.7737433478909992 4.2662673669477318 -0.81915205242281985 0 -0.57357642473473569 0.57357642473473569 0 -0.81915205242281985 1 I I 0 1 1 forward I I I I #
face $-1 $143 $144 $49 $-1 $145 forward single #
loop $-1 $146 $147 $63 #
cone-surface $-1 41.322671952371827 13.684988853408058 4.2662673669477318 -0.81915205242281985 0 -0.57357642473473569 0.57357642473473569 0 -0.81915205242281985 1 I I 0 1 1 forward I I I I #
face $-1 $148 $149 $50 $-1 $150 reversed single #
loop $-1 $-1 $151 $64 #
plane-surface $-1 -44.887844477675714 -12.528361369061116 1.6402242190146126 -0.81915205242281985 0 0.57357642473473569 0.57357642473473569 0 0.81915205242281985 forward_v I I I I #
face $-1 $152 $153 $51 $-1 $154 forward single #
loop $-1 $155 $156 $65 #
cone-surface $-1 -41.322671952371827 -14.983984121819645 4.2662673669477353 0.81915205242281985 0 -0.57357642473473569 0.57357642473473569 0 0.81915205242281985 1 I I 0 1 1 forward I I I I #
face $-1 $157 $158 $52 $-1 $159 forward single #
loop $-1 $160 $161 $66 #
cone-surface $-1 -41.322671952371827 -10.072738616302587 4.2662673669477353 0.81915205242281985 0 -0.57357642473473569 0.57357642473473569 0 0.81915205242281985 1 I I 0 1 1 forward I I I I #
face $-1 $162 $163 $53 $-1 $164 reversed single #
loop $-1 $-1 $165 $67 #
plane-surface $-1 -118.42778434312451 5.4995796775462935 53.133442918122782 0 1 0 -0.81915205242281985 0 0.57357642473473569 forward_v I I I I #
face $-1 $166 $167 $54 $-1 $168 forward single #
loop $-1 $169 $170 $68 #
cone-surface $-1 -41.322671952371827 8.7737433478909992 4.2662673669477353 0.81915205242281985 0 -0.57357642473473569 0.57357642473473569 0 0.81915205242281985 1 I I 0 1 1 forward I I I I #
face $-1 $171 $172 $55 $-1 $173 forward single #
loop $-1 $174 $175 $69 #
cone-surface $-1 -41.322671952371827 13.684988853408058 4.2662673669477353 0.81915205242281985 0 -0.57357642473473569 0.57357642473473569 0 0.81915205242281985 1 I I 0 1 1 forward I I I I #
face $-1 $176 $177 $42 $-1 $178 reversed single #
loop $-1 $-1 $179 $70 #
plane-surface $-1 0 0 -8.5145933700443184 0 0 1 1 0 0 forward_v I I I I #
coedge $-1 $180 $181 $182 $183 forward $71 $-1 #
face $-1 $184 $185 $43 $-1 $186 reversed single #
loop $-1 $-1 $187 $73 #
plane-surface $-1 0 -18.258147792164351 6.2120645943667867 0 -1 0 0 0 -1 forward_v I I I I #
coedge $-1 $188 $189 $190 $191 reversed $74 $-1 #
face $-1 $192 $193 $44 $-1 $194 forward single #
loop $-1 $-1 $195 $76 #
plane-surface $-1 -6.6053742214324558 -12.528361369061116 75.180164084463399 0.81915205242281985 0 0.57357642473473569 0.57357642473473569 0 -0.81915205242281985 forward_v I I I I #
coedge $-1 $196 $197 $198 $199 reversed $77 $-1 #
face $-1 $-1 $200 $45 $-1 $201 forward single #
loop $-1 $202 $203 $79 #
cone-surface $-1 39.754665878209892 -14.983984121819645 3.1683377269986348 -0.81915205242281985 0 -0.57357642473473569 0.28678821236736785 0 -0.40957602621140993 1 I I -0.70710678118654746 0.70710678118654746 0.5 forward I I I I #
loop $-1 $-1 $204 $59 #
coedge $-1 $128 $128 $205 $206 reversed $80 $-1 #
face $-1 $-1 $207 $46 $-1 $208 forward single #
loop $-1 $209 $210 $82 #
cone-surface $-1 39.754665878209892 -10.072738616302587 3.1683377269986348 -0.81915205242281985 0 -0.57357642473473569 0.28678821236736785 0 -0.40957602621140993 1 I I -0.70710678118654746 0.70710678118654746 0.5 forward I I I I #
loop $-1 $-1 $211 $60 #
coedge $-1 $133 $133 $212 $213 reversed $83 $-1 #
face $-1 $214 $215 $47 $-1 $216 reversed single #
loop $-1 $-1 $217 $85 #
plane-surface $-1 -6.6053742214324558 11.229366100649528 75.180164084463399 0.81915205242281985 0 0.57357642473473569 0.57357642473473569 0 -0.81915205242281985 forward_v I I I I #
coedge $-1 $218 $219 $220 $221 reversed $86 $-1 #
face $-1 $-1 $222 $48 $-1 $223 forward single #
loop $-1 $224 $225 $88 #
cone-surface $-1 39.754665878209892 8.7737433478909992 3.1683377269986348 -0.81915205242281985 0 -0.57357642473473569 0.28678821236736785 0 -0.40957602621140993 1 I I -0.70710678118654746 0.70710678118654746 0.5 forward I I I I #
loop $-1 $-1 $226 $62 #
coedge $-1 $142 $142 $227 $228 reversed $89 $-1 #
face $-1 $-1 $229 $49 $-1 $230 forward single #
loop $-1 $231 $232 $91 #
cone-surface $-1 39.754665878209892 13.684988853408058 3.1683377269986348 -0.81915205242281985 0 -0.57357642473473569 0.28678821236736785 0 -0.40957602621140993 1 I I -0.70710678118654746 0.70710678118654746 0.5 forward I I I I #
loop $-1 $-1 $233 $63 #
coedge $-1 $147 $147 $234 $235 reversed $92 $-1 #
face $-1 $236 $237 $50 $-1 $238 forward single #
loop $-1 $-1 $239 $94 #
plane-surface $-1 -118.42778434312451 -6.7985749459578813 53.133442918122782 0 -1 0 0.81915205242281985 0 -0.57357642473473569 forward_v I I I I #
coedge $-1 $240 $241 $242 $243 reversed $95 $-1 #
face $-1 $-1 $244 $51 $-1 $245 forward single #
loop $-1 $246 $247 $97 #
cone-surface $-1 -39.754665878209892 -14.983984121819645 3.1683377269986384 0.81915205242281985 0 -0.57357642473473569 0.28678821236736785 0 0.40957602621140993 1 I I -0.70710678118654746 0.70710678118654746 0.5 forward I I I I #
loop $-1 $-1 $248 $65 #
coedge $-1 $156 $156 $249 $250 reversed $98 $-1 #
face $-1 $-1 $251 $52 $-1 $252 forward single #
loop $-1 $253 $254 $100 #
cone-surface $-1 -39.754665878209892 -10.072738616302587 3.1683377269986384 0.81915205242281985 0 -0.57357642473473569 0.28678821236736785 0 0.40957602621140993 1 I I -0.70710678118654746 0.70710678118654746 0.5 forward I I I I #
loop $-1 $-1 $255 $66 #
coedge $-1 $161 $161 $256 $257 reversed $101 $-1 #
face $-1 $258 $259 $53 $-1 $260 reversed single #
loop $-1 $-1 $261 $103 #
plane-surface $-1 -44.887844477675714 11.229366100649528 1.6402242190146126 -0.81915205242281985 0 0.57357642473473569 0.57357642473473569 0 0.81915205242281985 forward_v I I I I #
coedge $-1 $262 $263 $264 $265 reversed $104 $-1 #
face $-1 $-1 $266 $54 $-1 $267 forward single #
loop $-1 $268 $269 $106 #
cone-surface $-1 -39.754665878209892 8.7737433478909992 3.1683377269986384 0.81915205242281985 0 -0.57357642473473569 0.28678821236736785 0 0.40957602621140993 1 I I -0.70710678118654746 0.70710678118654746 0.5 forward I I I I #
loop $-1 $-1 $270 $68 #
coedge $-1 $170 $170 $271 $272 reversed $107 $-1 #
face $-1 $-1 $273 $55 $-1 $274 forward single #
loop $-1 $275 $276 $109 #
cone-surface $-1 -39.754665878209892 13.684988853408058 3.1683377269986384 0.81915205242281985 0 -0.57357642473473569 0.28678821236736785 0 0.40957602621140993 1 I I -0.70710678118654746 0.70710678118654746 0.5 forward I I I I #
loop $-1 $-1 $277 $69 #
coedge $-1 $175 $175 $278 $279 reversed $110 $-1 #
face $-1 $280 $281 $42 $-1 $282 reversed single #
loop $-1 $-1 $283 $112 #
plane-surface $-1 0 -29.257307147256938 0 0 1 0 0 0 1 forward_v I I I I #
coedge $-1 $284 $285 $286 $287 forward $113 $-1 #
coedge $-1 $288 $115 $289 $290 forward $71 $-1 #
coedge $-1 $115 $288 $291 $292 forward $71 $-1 #
coedge $-1 $293 $294 $115 $183 reversed $295 $-1 #
edge $-1 $296 -29.257307147256938 $297 29.257307147256938 $182 $298 forward 7 unknown #
face $-1 $299 $300 $43 $-1 $301 reversed single #
loop $-1 $-1 $302 $116 #
plane-surface $-1 -44.887844477675714 0 0 1 0 0 0 0 -1 forward_v I I I I #
coedge $-1 $303 $304 $305 $306 reversed $117 $-1 #
coedge $-1 $307 $119 $308 $309 reversed $74 $-1 #
coedge $-1 $119 $307 $303 $310 forward $74 $-1 #
coedge $-1 $305 $311 $119 $191 forward $312 $-1 #
edge $-1 $313 -17.378443412401616 $314 -6.3792840573090288 $190 $315 forward 7 unknown #
face $-1 $316 $317 $44 $-1 $318 forward single #
loop $-1 $-1 $319 $120 #
plane-surface $-1 0 -18.258147792164351 6.2120645943667867 0 -1 0 0 0 -1 forward_v I I I I #
coedge $-1 $320 $321 $322 $323 reversed $121 $-1 #
coedge $-1 $197 $123 $324 $325 reversed $77 $-1 #
coedge $-1 $123 $196 $320 $326 reversed $77 $-1 #
coedge $-1 $322 $327 $123 $199 forward $317 $-1 #
edge $-1 $328 -11.420561655667541 $329 -6.6070767009608034 $198 $330 forward 7 unknown #
loop $-1 $-1 $205 $124 #
plane-surface $-1 -6.6053742214324558 -12.528361369061116 75.180164084463399 0.81915205242281985 0 0.57357642473473569 0.57357642473473569 0 -0.81915205242281985 forward_v I I I I #
loop $-1 $-1 $331 $79 #
coedge $-1 $203 $203 $204 $332 reversed $125 $-1 #
coedge $-1 $204 $204 $203 $332 forward $127 $-1 #
coedge $-1 $205 $205 $128 $206 forward $200 $-1 #
edge $-1 $333 0 $333 6.2831853071796004 $205 $334 forward 7 unknown #
loop $-1 $-1 $212 $129 #
plane-surface $-1 -6.6053742214324558 -12.528361369061116 75.180164084463399 0.81915205242281985 0 0.57357642473473569 0.57357642473473569 0 -0.81915205242281985 forward_v I I I I #
loop $-1 $-1 $335 $82 #
coedge $-1 $210 $210 $211 $336 reversed $130 $-1 #
coedge $-1 $211 $211 $210 $336 forward $132 $-1 #
coedge $-1 $212 $212 $133 $213 forward $207 $-1 #
edge $-1 $337 0 $337 6.2831853071796004 $212 $338 forward 7 unknown #
face $-1 $339 $340 $47 $-1 $341 reversed single #
loop $-1 $-1 $342 $134 #
plane-surface $-1 66.934565644016345 5.4995796775462935 126.67338278357157 0 1 0 0.81915205242281985 0 0.57357642473473569 forward_v I I I I #
coedge $-1 $343 $344 $345 $346 reversed $135 $-1 #
coedge $-1 $219 $137 $347 $348 reversed $86 $-1 #
coedge $-1 $137 $218 $343 $349 reversed $86 $-1 #
coedge $-1 $345 $350 $137 $221 forward $351 $-1 #
edge $-1 $352 -11.420561655667541 $353 -6.6070767009608034 $220 $354 forward 7 unknown #
loop $-1 $-1 $227 $138 #
plane-surface $-1 -6.6053742214324558 11.229366100649528 75.180164084463399 0.81915205242281985 0 0.57357642473473569 0.57357642473473569 0 -0.81915205242281985 forward_v I I I I #
loop $-1 $-1 $355 $88 #
coedge $-1 $225 $225 $226 $356 reversed $139 $-1 #
coedge $-1 $226 $226 $225 $356 forward $141 $-1 #
coedge $-1 $227 $227 $142 $228 forward $222 $-1 #
edge $-1 $357 0 $357 6.2831853071796004 $227 $358 forward 7 unknown #
loop $-1 $-1 $234 $143 #
plane-surface $-1 -6.6053742214324558 11.229366100649528 75.180164084463399 0.81915205242281985 0 0.57357642473473569 0.57357642473473569 0 -0.81915205242281985 forward_v I I I I #
loop $-1 $-1 $359 $91 #
coedge $-1 $232 $232 $233 $360 reversed $144 $-1 #
coedge $-1 $233 $233 $232 $360 forward $146 $-1 #
coedge $-1 $234 $234 $147 $235 forward $229 $-1 #
edge $-1 $361 0 $361 6.2831853071796004 $234 $362 forward 7 unknown #
face $-1 $363 $364 $50 $-1 $365 reversed single #
loop $-1 $-1 $242 $148 #
plane-surface $-1 0 0 8.5145933700443184 0 0 1 1 0 0 forward_v I I I I #
coedge $-1 $366 $367 $368 $369 reversed $149 $-1 #
coedge $-1 $370 $151 $371 $372 reversed $95 $-1 #
coedge $-1 $151 $370 $366 $373 forward $95 $-1 #
coedge $-1 $368 $374 $151 $243 forward $237 $-1 #
edge $-1 $375 -11.993967107633793 $376 -0.53439426142732316 $242 $377 forward 7 unknown #
loop $-1 $-1 $249 $152 #
plane-surface $-1 -44.887844477675714 -12.528361369061116 1.6402242190146126 -0.81915205242281985 0 0.57357642473473569 0.57357642473473569 0 0.81915205242281985 forward_v I I I I #
loop $-1 $-1 $378 $97 #
coedge $-1 $247 $247 $248 $379 reversed $153 $-1 #
coedge $-1 $248 $248 $247 $379 forward $155 $-1 #
coedge $-1 $249 $249 $156 $250 forward $244 $-1 #
edge $-1 $380 0 $380 6.2831853071796004 $249 $381 forward 7 unknown #
loop $-1 $-1 $256 $157 #
plane-surface $-1 -44.887844477675714 -12.528361369061116 1.6402242190146126 -0.81915205242281985 0 0.57357642473473569 0.57357642473473569 0 0.81915205242281985 forward_v I I I I #
loop $-1 $-1 $382 $100 #
coedge $-1 $254 $254 $255 $383 reversed $158 $-1 #
coedge $-1 $255 $255 $254 $383 forward $160 $-1 #
coedge $-1 $256 $256 $161 $257 forward $251 $-1 #
edge $-1 $384 0 $384 6.2831853071796004 $256 $385 forward 7 unknown #
face $-1 $386 $387 $53 $-1 $388 forward single #
loop $-1 $-1 $389 $162 #
plane-surface $-1 -118.42778434312451 16.959152523752763 53.133442918122782 0 -1 0 0.81915205242281985 0 -0.57357642473473569 forward_v I I I I #
coedge $-1 $390 $391 $392 $393 reversed $163 $-1 #
coedge $-1 $263 $165 $394 $395 reversed $104 $-1 #
coedge $-1 $165 $262 $390 $396 reversed $104 $-1 #
coedge $-1 $392 $397 $165 $265 forward $387 $-1 #
edge $-1 $398 14.326047693886544 $399 19.139532648593267 $264 $400 forward 7 unknown #
loop $-1 $-1 $271 $166 #
plane-surface $-1 -44.887844477675714 11.229366100649528 1.6402242190146126 -0.81915205242281985 0 0.57357642473473569 0.57357642473473569 0 0.81915205242281985 forward_v I I I I #
loop $-1 $-1 $401 $106 #
coedge $-1 $269 $269 $270 $402 reversed $167 $-1 #
coedge $-1 $270 $270 $269 $402 forward $169 $-1 #
coedge $-1 $271 $271 $170 $272 forward $266 $-1 #
edge $-1 $403 0 $403 6.2831853071796004 $271 $404 forward 7 unknown #
loop $-1 $-1 $278 $171 #
plane-surface $-1 -44.887844477675714 11.229366100649528 1.6402242190146126 -0.81915205242281985 0 0.57357642473473569 0.57357642473473569 0 0.81915205242281985 forward_v I I I I #
loop $-1 $-1 $405 $109 #
coedge $-1 $276 $276 $277 $406 reversed $172 $-1 #
coedge $-1 $277 $277 $276 $406 forward $174 $-1 #
coedge $-1 $278 $278 $175 $279 forward $273 $-1 #
edge $-1 $407 0 $407 6.2831853071796004 $278 $408 forward 7 unknown #
face $-1 $409 $410 $42 $-1 $411 reversed single #
loop $-1 $-1 $412 $176 #
plane-surface $-1 -44.887844477675714 0 0 1 0 0 0 0 -1 forward_v I I I I #
coedge $-1 $413 $291 $414 $415 forward $177 $-1 #
coedge $-1 $416 $179 $413 $417 forward $113 $-1 #
coedge $-1 $179 $416 $418 $419 forward $113 $-1 #
coedge $-1 $294 $293 $179 $287 reversed $295 $-1 #
edge $-1 $420 -29.257307147256938 $421 29.257307147256938 $286 $422 forward 7 unknown #
coedge $-1 $181 $180 $423 $424 forward $71 $-1 #
coedge $-1 $425 $426 $180 $290 reversed $410 $-1 #
edge $-1 $297 -44.887844477675714 $427 44.887844477675714 $289 $428 forward 7 unknown #
coedge $-1 $283 $429 $181 $292 reversed $177 $-1 #
edge $-1 $430 -44.887844477675714 $296 44.887844477675714 $291 $431 forward 7 unknown #
coedge $-1 $286 $182 $429 $432 forward $295 $-1 #
coedge $-1 $182 $286 $425 $433 reversed $295 $-1 #
loop $-1 $-1 $293 $409 #
vertex $-1 $183 $434 #
vertex $-1 $183 $435 #
straight-curve $-1 44.887844477675714 0 8.5145933700443184 0 1 0 I I #
face $-1 $436 $437 $43 $-1 $438 forward single #
loop $-1 $-1 $308 $184 #
plane-surface $-1 0 -29.257307147256938 0 0 1 0 0 0 1 forward_v I I I I #
coedge $-1 $439 $440 $441 $442 forward $185 $-1 #
coedge $-1 $441 $187 $189 $310 reversed $117 $-1 #
coedge $-1 $187 $441 $443 $444 reversed $117 $-1 #
coedge $-1 $445 $190 $187 $306 forward $312 $-1 #
edge $-1 $314 0.80350352150586168 $446 5.408561072860925 $305 $447 forward 7 unknown #
coedge $-1 $189 $188 $439 $448 reversed $74 $-1 #
coedge $-1 $449 $450 $188 $309 forward $300 $-1 #
edge $-1 $451 -44.887844477675714 $313 44.887844477675714 $308 $452 forward 7 unknown #
edge $-1 $453 -44.887844477675714 $314 44.887844477675714 $303 $454 forward 7 unknown #
coedge $-1 $190 $445 $449 $455 forward $312 $-1 #
loop $-1 $-1 $305 $436 #
vertex $-1 $309 $456 #
vertex $-1 $191 $457 #
straight-curve $-1 44.887844477675714 -11.878863734855322 3.909535818689255 0 1 0 I I #
face $-1 $-1 $458 $44 $-1 $459 reversed single #
loop $-1 $-1 $322 $192 #
plane-surface $-1 0 0 8.5145933700443184 0 0 1 1 0 0 forward_v I I I I #
coedge $-1 $460 $461 $321 $462 reversed $193 $-1 #
coedge $-1 $463 $195 $197 $326 forward $121 $-1 #
coedge $-1 $195 $463 $319 $462 forward $121 $-1 #
coedge $-1 $464 $198 $195 $323 forward $317 $-1 #
edge $-1 $329 0.53439426142732316 $465 11.993967107633793 $322 $466 forward 7 unknown #
coedge $-1 $467 $468 $196 $325 forward $458 $-1 #
edge $-1 $469 -61.696467172771186 $328 -54.822098021741468 $324 $470 forward 7 unknown #
edge $-1 $329 81.383633865338183 $469 89.775688955351441 $197 $471 forward 7 unknown #
coedge $-1 $198 $464 $467 $472 forward $317 $-1 #
vertex $-1 $325 $473 #
vertex $-1 $199 $474 #
straight-curve $-1 33.467282822008173 -6.7985749459578813 8.5145933700443166 -1 0 0 I I #
coedge $-1 $331 $331 $-1 $475 reversed $202 $-1 #
edge $-1 $476 0 $476 6.2831853071796004 $203 $477 forward 7 unknown #
vertex $-1 $206 $478 #
ellipse-curve $-1 42.481102000322345 -14.983984121819645 5.0774087945294593 0.81915205242281985 0 0.57357642473473569 0.57357642473473569 0 -0.81915205242281985 1 I I #
coedge $-1 $335 $335 $-1 $479 reversed $209 $-1 #
edge $-1 $480 0 $480 6.2831853071796004 $210 $481 forward 7 unknown #
vertex $-1 $213 $482 #
ellipse-curve $-1 42.481102000322345 -10.072738616302587 5.0774087945294593 0.81915205242281985 0 0.57357642473473569 0.57357642473473569 0 -0.81915205242281985 1 I I #
face $-1 $-1 $351 $47 $-1 $483 forward single #
loop $-1 $-1 $484 $214 #
plane-surface $-1 44.887844477675714 0 0 -1 0 0 0 0 1 forward_v I I I I #
coedge $-1 $485 $486 $487 $488 reversed $215 $-1 #
coedge $-1 $489 $217 $219 $349 forward $135 $-1 #
coedge $-1 $217 $489 $485 $490 forward $135 $-1 #
coedge $-1 $487 $220 $217 $346 forward $351 $-1 #
edge $-1 $353 -11.344469473427999 $491 0.11510337277847071 $345 $492 forward 7 unknown #
coedge $-1 $493 $494 $218 $348 forward $340 $-1 #
edge $-1 $495 -61.696467172771186 $352 -54.822098021741468 $347 $496 forward 7 unknown #
edge $-1 $353 81.383633865338183 $495 89.775688955351441 $219 $497 forward 7 unknown #
coedge $-1 $220 $487 $493 $498 forward $351 $-1 #
loop $-1 $-1 $487 $339 #
vertex $-1 $348 $499 #
vertex $-1 $221 $500 #
straight-curve $-1 33.467282822008173 16.959152523752763 8.5145933700443166 -1 0 0 I I #
coedge $-1 $355 $355 $-1 $501 reversed $224 $-1 #
edge $-1 $502 0 $502 6.2831853071796004 $225 $503 forward 7 unknown #
vertex $-1 $228 $504 #
ellipse-curve $-1 42.481102000322345 8.7737433478909992 5.0774087945294593 0.81915205242281985 0 0.57357642473473569 0.57357642473473569 0 -0.81915205242281985 1 I I #
coedge $-1 $359 $359 $-1 $505 reversed $231 $-1 #
edge $-1 $506 0 $506 6.2831853071796004 $232 $507 forward 7 unknown #
vertex $-1 $235 $508 #
ellipse-curve $-1 42.481102000322345 13.684988853408058 5.0774087945294593 0.81915205242281985 0 0.57357642473473569 0.57357642473473569 0 -0.81915205242281985 1 I I #
face $-1 $-1 $509 $50 $-1 $510 forward single #
loop $-1 $-1 $511 $236 #
plane-surface $-1 -44.887844477675714 0 0 1 0 0 0 0 -1 forward_v I I I I #
coedge $-1 $367 $239 $241 $373 reversed $149 $-1 #
coedge $-1 $239 $366 $511 $512 reversed $149 $-1 #
coedge $-1 $513 $242 $239 $369 forward $237 $-1 #
edge $-1 $376 -19.139532648593267 $514 -14.326047693886544 $368 $515 forward 7 unknown #
coedge $-1 $241 $240 $516 $517 reversed $95 $-1 #
coedge $-1 $518 $519 $240 $372 forward $509 $-1 #
edge $-1 $520 -14.745820888186667 $375 -6.3537657981734412 $371 $521 forward 7 unknown #
edge $-1 $522 0 $376 8.3920550900132262 $366 $523 forward 7 unknown #
coedge $-1 $242 $513 $518 $524 forward $237 $-1 #
vertex $-1 $372 $525 #
vertex $-1 $243 $526 #
straight-curve $-1 -40.07435952296899 -6.2641806845305581 8.5145933700443184 0 1 0 I I #
coedge $-1 $378 $378 $-1 $527 reversed $246 $-1 #
edge $-1 $528 0 $528 6.2831853071796004 $247 $529 forward 7 unknown #
vertex $-1 $250 $530 #
ellipse-curve $-1 -42.481102000322352 -14.983984121819645 5.0774087945294646 -0.81915205242281985 0 0.57357642473473569 0.57357642473473569 0 0.81915205242281985 1 I I #
coedge $-1 $382 $382 $-1 $531 reversed $253 $-1 #
edge $-1 $532 0 $532 6.2831853071796004 $254 $533 forward 7 unknown #
vertex $-1 $257 $534 #
ellipse-curve $-1 -42.481102000322352 -10.072738616302587 5.0774087945294646 -0.81915205242281985 0 0.57357642473473569 0.57357642473473569 0 0.81915205242281985 1 I I #
face $-1 $-1 $535 $53 $-1 $536 reversed single #
loop $-1 $-1 $264 $258 #
plane-surface $-1 0 0 8.5145933700443184 0 0 1 1 0 0 forward_v I I I I #
coedge $-1 $537 $538 $539 $540 reversed $259 $-1 #
coedge $-1 $541 $261 $263 $396 forward $163 $-1 #
coedge $-1 $261 $541 $537 $542 forward $163 $-1 #
coedge $-1 $539 $264 $261 $393 forward $387 $-1 #
edge $-1 $399 -0.11510337277847071 $543 11.344469473427999 $392 $544 forward 7 unknown #
coedge $-1 $545 $546 $262 $395 forward $535 $-1 #
edge $-1 $547 -24.926497240046778 $398 -18.052128089017074 $394 $548 forward 7 unknown #
edge $-1 $399 -8.3920550900132262 $547 0 $263 $549 forward 7 unknown #
coedge $-1 $264 $539 $545 $550 forward $387 $-1 #
vertex $-1 $265 $551 #
vertex $-1 $265 $552 #
straight-curve $-1 -59.213892171562257 5.4995796775462935 8.5145933700443202 1 0 0 I I #
coedge $-1 $401 $401 $-1 $553 reversed $268 $-1 #
edge $-1 $554 0 $554 6.2831853071796004 $269 $555 forward 7 unknown #
vertex $-1 $272 $556 #
ellipse-curve $-1 -42.481102000322352 8.7737433478909992 5.0774087945294646 -0.81915205242281985 0 0.57357642473473569 0.57357642473473569 0 0.81915205242281985 1 I I #
coedge $-1 $405 $405 $-1 $557 reversed $275 $-1 #
edge $-1 $558 0 $558 6.2831853071796004 $276 $559 forward 7 unknown #
vertex $-1 $279 $560 #
ellipse-curve $-1 -42.481102000322352 13.684988853408058 5.0774087945294646 -0.81915205242281985 0 0.57357642473473569 0.57357642473473569 0 0.81915205242281985 1 I I #
face $-1 $-1 $295 $42 $-1 $561 reversed single #
loop $-1 $-1 $425 $280 #
plane-surface $-1 0 29.257307147256938 0 0 -1 0 0 0 -1 forward_v I I I I #
coedge $-1 $562 $423 $426 $563 forward $281 $-1 #
coedge $-1 $429 $283 $284 $417 reversed $177 $-1 #
coedge $-1 $423 $562 $283 $415 reversed $281 $-1 #
edge $-1 $430 -8.5145933700443184 $564 8.5145933700443184 $414 $565 forward 7 unknown #
coedge $-1 $285 $284 $562 $566 forward $113 $-1 #
edge $-1 $421 -44.887844477675714 $564 44.887844477675714 $413 $567 forward 7 unknown #
coedge $-1 $426 $425 $285 $419 reversed $410 $-1 #
edge $-1 $568 -44.887844477675714 $420 44.887844477675714 $418 $569 forward 7 unknown #
vertex $-1 $287 $570 #
vertex $-1 $432 $571 #
straight-curve $-1 44.887844477675714 0 -8.5145933700443184 0 -1 0 I I #
coedge $-1 $412 $414 $288 $424 reversed $281 $-1 #
edge $-1 $427 -29.257307147256938 $430 29.257307147256938 $423 $572 forward 7 unknown #
coedge $-1 $418 $289 $294 $433 forward $410 $-1 #
coedge $-1 $289 $418 $412 $563 reversed $410 $-1 #
vertex $-1 $290 $573 #
straight-curve $-1 0 29.257307147256938 8.5145933700443184 -1 0 0 I I #
coedge $-1 $291 $413 $293 $432 reversed $177 $-1 #
vertex $-1 $424 $574 #
straight-curve $-1 0 -29.257307147256938 8.5145933700443184 1 0 0 I I #
edge $-1 $296 -8.5145933700443184 $421 8.5145933700443184 $293 $575 forward 7 unknown #
edge $-1 $297 -8.5145933700443184 $420 8.5145933700443184 $294 $576 forward 7 unknown #
point $-1 44.887844477675714 -29.257307147256938 8.5145933700443184 #
point $-1 44.887844477675714 29.257307147256938 8.5145933700443184 #
face $-1 $-1 $312 $43 $-1 $577 reversed single #
loop $-1 $-1 $443 $299 #
plane-surface $-1 0 0 8.5145933700443184 0 0 1 1 0 0 forward_v I I I I #
coedge $-1 $578 $302 $307 $448 forward $185 $-1 #
coedge $-1 $302 $578 $579 $580 reversed $185 $-1 #
coedge $-1 $304 $303 $302 $442 reversed $117 $-1 #
edge $-1 $581 -5.408561072860925 $453 -0.80350352150586168 $302 $582 forward 7 unknown #
coedge $-1 $579 $583 $304 $444 forward $437 $-1 #
edge $-1 $446 -44.887844477675714 $581 44.887844477675714 $443 $584 forward 7 unknown #
coedge $-1 $311 $305 $583 $585 reversed $312 $-1 #
vertex $-1 $306 $586 #
straight-curve $-1 44.887844477675714 -18.258147792164351 3.1060322971833934 0 0 1 I I #
edge $-1 $453 6.3792840573090288 $451 17.378443412401616 $439 $587 forward 7 unknown #
coedge $-1 $588 $308 $311 $455 reversed $300 $-1 #
coedge $-1 $308 $588 $578 $589 forward $300 $-1 #
vertex $-1 $309 $590 #
straight-curve $-1 0 -29.257307147256938 3.909535818689255 1 0 0 I I #
vertex $-1 $448 $591 #
straight-curve $-1 0 -18.258147792164351 3.909535818689255 1 0 0 I I #
edge $-1 $592 -8.5145933700443184 $313 -3.909535818689255 $311 $593 forward 7 unknown #
point $-1 44.887844477675714 -29.257307147256938 3.909535818689255 #
point $-1 44.887844477675714 -18.258147792164351 3.909535818689255 #
loop $-1 $-1 $324 $316 #
plane-surface $-1 44.887844477675714 0 0 -1 0 0 0 0 1 forward_v I I I I #
coedge $-1 $461 $319 $594 $595 reversed $193 $-1 #
coedge $-1 $319 $460 $464 $596 reversed $193 $-1 #
edge $-1 $597 -89.775688955351441 $465 -81.383633865338183 $319 $598 forward 7 unknown #
coedge $-1 $321 $320 $468 $599 reversed $121 $-1 #
coedge $-1 $327 $322 $461 $596 forward $317 $-1 #
vertex $-1 $596 $600 #
straight-curve $-1 40.074359522968983 -6.2641806845305581 8.5145933700443166 0 -1 0 I I #
coedge $-1 $594 $324 $327 $472 reversed $458 $-1 #
coedge $-1 $324 $594 $463 $599 forward $458 $-1 #
vertex $-1 $325 $601 #
straight-curve $-1 44.887844477675714 -6.7985749459578813 63.336691391785784 0 0 1 I I #
straight-curve $-1 -6.6053742214324558 -6.7985749459578813 75.180164084463399 0.57357642473473569 0 -0.81915205242281985 I I #
edge $-1 $602 -18.258147792164351 $328 -6.7985749459578813 $467 $603 forward 7 unknown #
point $-1 44.887844477675714 -6.7985749459578813 8.5145933700443184 #
point $-1 40.074359522968976 -6.7985749459578813 8.5145933700443237 #
edge $-1 $604 1 $604 0 $331 $-1 forward 7 unknown #
vertex $-1 $332 $605 #
ellipse-curve $-1 40.164241904421303 -14.983984121819645 3.4551259393660025 0.81915205242281985 0 0.57357642473473569 0.57357642473473569 0 -0.81915205242281985 1 I I #
point $-1 43.054678425057084 -14.983984121819645 4.2582567421066422 #
edge $-1 $606 1 $606 0 $335 $-1 forward 7 unknown #
vertex $-1 $336 $607 #
ellipse-curve $-1 40.164241904421303 -10.072738616302587 3.4551259393660025 0.81915205242281985 0 0.57357642473473569 0.57357642473473569 0 -0.81915205242281985 1 I I #
point $-1 43.054678425057084 -10.072738616302587 4.2582567421066422 #
plane-surface $-1 0 0 8.5145933700443184 0 0 1 1 0 0 forward_v I I I I #
coedge $-1 $494 $493 $486 $608 forward $340 $-1 #
coedge $-1 $486 $342 $344 $490 reversed $215 $-1 #
coedge $-1 $342 $485 $484 $608 reversed $215 $-1 #
coedge $-1 $350 $345 $342 $488 forward $351 $-1 #
edge $-1 $491 6.6070767009608034 $609 11.420561655667541 $487 $610 forward 7 unknown #
coedge $-1 $344 $343 $494 $611 reversed $135 $-1 #
edge $-1 $612 -89.775688955351441 $491 -81.383633865338183 $485 $613 forward 7 unknown #
vertex $-1 $346 $614 #
straight-curve $-1 40.074359522968983 5.6146830503247642 8.5145933700443166 0 -1 0 I I #
coedge $-1 $484 $347 $350 $498 reversed $340 $-1 #
coedge $-1 $347 $484 $489 $611 forward $340 $-1 #
vertex $-1 $348 $615 #
straight-curve $-1 44.887844477675714 16.959152523752763 63.336691391785784 0 0 1 I I #
straight-curve $-1 -6.6053742214324558 16.959152523752763 75.180164084463399 0.57357642473473569 0 -0.81915205242281985 I I #
edge $-1 $609 5.4995796775462935 $352 16.959152523752763 $493 $616 forward 7 unknown #
point $-1 44.887844477675714 16.959152523752763 8.5145933700443184 #
point $-1 40.074359522968976 16.959152523752763 8.5145933700443237 #
edge $-1 $617 1 $617 0 $355 $-1 forward 7 unknown #
vertex $-1 $356 $618 #
ellipse-curve $-1 40.164241904421303 8.7737433478909992 3.4551259393660025 0.81915205242281985 0 0.57357642473473569 0.57357642473473569 0 -0.81915205242281985 1 I I #
point $-1 43.054678425057084 8.7737433478909992 4.2582567421066422 #
edge $-1 $619 1 $619 0 $359 $-1 forward 7 unknown #
vertex $-1 $360 $620 #
ellipse-curve $-1 40.164241904421303 13.684988853408058 3.4551259393660025 0.81915205242281985 0 0.57357642473473569 0.57357642473473569 0 -0.81915205242281985 1 I I #
point $-1 43.054678425057084 13.684988853408058 4.2582567421066422 #
loop $-1 $-1 $371 $363 #
plane-surface $-1 0 -18.258147792164351 6.2120645943667867 0 -1 0 0 0 -1 forward_v I I I I #
coedge $-1 $516 $621 $367 $512 forward $364 $-1 #
edge $-1 $514 18.052128089017074 $522 24.926497240046778 $511 $622 forward 7 unknown #
coedge $-1 $374 $368 $621 $623 forward $237 $-1 #
vertex $-1 $623 $624 #
straight-curve $-1 -59.213892171562257 -6.7985749459578813 8.5145933700443202 -1 0 0 I I #
coedge $-1 $625 $511 $370 $517 forward $364 $-1 #
edge $-1 $522 0.53439426142732316 $520 11.993967107633793 $516 $626 forward 7 unknown #
coedge $-1 $519 $371 $374 $524 reversed $509 $-1 #
coedge $-1 $371 $518 $625 $627 reversed $509 $-1 #
vertex $-1 $627 $628 #
straight-curve $-1 -36.429989252850824 -18.258147792164351 13.71929366423201 0.57357642473473569 0 0.81915205242281985 I I #
vertex $-1 $517 $629 #
straight-curve $-1 -44.887844477675714 -6.7985749459578813 1.6402242190146126 0.57357642473473569 0 0.81915205242281985 I I #
edge $-1 $630 -44.887844477675714 $375 -40.07435952296899 $374 $631 forward 7 unknown #
point $-1 -40.07435952296899 -18.258147792164351 8.5145933700443202 #
point $-1 -40.07435952296899 -6.7985749459578813 8.5145933700443202 #
edge $-1 $632 1 $632 0 $378 $-1 forward 7 unknown #
vertex $-1 $379 $633 #
ellipse-curve $-1 -40.164241904421303 -14.983984121819645 3.4551259393660061 -0.81915205242281985 0 0.57357642473473569 0.57357642473473569 0 0.81915205242281985 1 I I #
point $-1 -41.907525575587613 -14.983984121819645 5.8965608469522852 #
edge $-1 $634 1 $634 0 $382 $-1 forward 7 unknown #
vertex $-1 $383 $635 #
ellipse-curve $-1 -40.164241904421303 -10.072738616302587 3.4551259393660061 -0.81915205242281985 0 0.57357642473473569 0.57357642473473569 0 0.81915205242281985 1 I I #
point $-1 -41.907525575587613 -10.072738616302587 5.8965608469522852 #
loop $-1 $-1 $394 $386 #
plane-surface $-1 -44.887844477675714 0 0 1 0 0 0 0 -1 forward_v I I I I #
coedge $-1 $538 $389 $391 $542 reversed $259 $-1 #
coedge $-1 $389 $537 $636 $637 reversed $259 $-1 #
coedge $-1 $397 $392 $389 $540 forward $387 $-1 #
edge $-1 $543 -19.139532648593267 $638 -14.326047693886544 $539 $639 forward 7 unknown #
coedge $-1 $391 $390 $546 $640 reversed $163 $-1 #
edge $-1 $641 0 $543 8.3920550900132262 $537 $642 forward 7 unknown #
vertex $-1 $393 $643 #
straight-curve $-1 -40.07435952296899 5.6146830503247642 8.5145933700443184 0 1 0 I I #
coedge $-1 $636 $394 $397 $550 reversed $535 $-1 #
coedge $-1 $394 $636 $541 $640 forward $535 $-1 #
vertex $-1 $395 $644 #
straight-curve $-1 -44.887844477675714 5.4995796775462935 26.566721459061391 0 0 1 I I #
straight-curve $-1 -44.887844477675714 5.4995796775462935 1.6402242190146126 -0.57357642473473569 0 -0.81915205242281985 I I #
edge $-1 $638 -16.959152523752763 $398 -5.4995796775462935 $545 $645 forward 7 unknown #
point $-1 -44.887844477675714 5.4995796775462935 8.5145933700443184 #
point $-1 -40.07435952296899 5.4995796775462935 8.5145933700443202 #
edge $-1 $646 1 $646 0 $401 $-1 forward 7 unknown #
vertex $-1 $402 $647 #
ellipse-curve $-1 -40.164241904421303 8.7737433478909992 3.4551259393660061 -0.81915205242281985 0 0.57357642473473569 0.57357642473473569 0 0.81915205242281985 1 I I #
point $-1 -41.907525575587613 8.7737433478909992 5.8965608469522852 #
edge $-1 $648 1 $648 0 $405 $-1 forward 7 unknown #
vertex $-1 $406 $649 #
ellipse-curve $-1 -40.164241904421303 13.684988853408058 3.4551259393660061 -0.81915205242281985 0 0.57357642473473569 0.57357642473473569 0 0.81915205242281985 1 I I #
point $-1 -41.907525575587613 13.684988853408058 5.8965608469522852 #
plane-surface $-1 44.887844477675714 0 0 -1 0 0 0 0 1 forward_v I I I I #
coedge $-1 $414 $412 $416 $566 reversed $281 $-1 #
edge $-1 $427 -8.5145933700443184 $568 8.5145933700443184 $426 $650 forward 7 unknown #
vertex $-1 $566 $651 #
straight-curve $-1 -44.887844477675714 -29.257307147256938 0 0 0 -1 I I #
edge $-1 $564 -29.257307147256938 $568 29.257307147256938 $562 $652 forward 7 unknown #
straight-curve $-1 0 -29.257307147256938 -8.5145933700443184 -1 0 0 I I #
vertex $-1 $419 $653 #
straight-curve $-1 0 29.257307147256938 -8.5145933700443184 1 0 0 I I #
point $-1 44.887844477675714 29.257307147256938 -8.5145933700443184 #
point $-1 44.887844477675714 -29.257307147256938 -8.5145933700443184 #
straight-curve $-1 -44.887844477675714 0 8.5145933700443184 0 -1 0 I I #
point $-1 -44.887844477675714 29.257307147256938 8.5145933700443184 #
point $-1 -44.887844477675714 -29.257307147256938 8.5145933700443184 #
straight-curve $-1 44.887844477675714 -29.257307147256938 0 0 0 -1 I I #
straight-curve $-1 44.887844477675714 29.257307147256938 0 0 0 -1 I I #
plane-surface $-1 44.887844477675714 0 0 -1 0 0 0 0 1 forward_v I I I I #
coedge $-1 $440 $439 $450 $589 reversed $185 $-1 #
coedge $-1 $654 $443 $440 $580 forward $437 $-1 #
edge $-1 $581 18.258147792164351 $655 29.257307147256938 $440 $656 forward 7 unknown #
vertex $-1 $580 $657 #
straight-curve $-1 -44.887844477675714 -18.258147792164351 3.1060322971833934 0 0 -1 I I #
coedge $-1 $443 $654 $445 $585 forward $437 $-1 #
straight-curve $-1 0 -18.258147792164351 8.5145933700443184 -1 0 0 I I #
edge $-1 $592 -29.257307147256938 $446 -18.258147792164351 $445 $658 forward 7 unknown #
point $-1 44.887844477675714 -18.258147792164351 8.5145933700443184 #
straight-curve $-1 -44.887844477675714 -11.878863734855322 3.909535818689255 0 -1 0 I I #
coedge $-1 $450 $449 $654 $659 reversed $300 $-1 #
edge $-1 $655 -8.5145933700443184 $451 -3.909535818689255 $578 $660 forward 7 unknown #
point $-1 -44.887844477675714 -29.257307147256938 3.909535818689255 #
point $-1 -44.887844477675714 -18.258147792164351 3.909535818689255 #
vertex $-1 $585 $661 #
straight-curve $-1 44.887844477675714 -29.257307147256938 0 0 0 -1 I I #
coedge $-1 $468 $467 $460 $595 forward $458 $-1 #
edge $-1 $602 54.822098021741468 $597 61.696467172771186 $594 $662 forward 7 unknown #
edge $-1 $465 40.074359522968969 $602 44.887844477675714 $464 $663 forward 7 unknown #
vertex $-1 $595 $664 #
straight-curve $-1 -6.6053742214324558 -18.258147792164351 75.180164084463399 -0.57357642473473569 0 0.81915205242281985 I I #
edge $-1 $597 -11.993967107633793 $469 -0.53439426142732316 $468 $665 forward 7 unknown #
point $-1 40.074359522968969 -18.258147792164351 8.5145933700443184 #
point $-1 44.887844477675714 -6.7985749459578813 1.6402242190145984 #
vertex $-1 $472 $666 #
straight-curve $-1 44.887844477675714 0 8.5145933700443184 0 1 0 I I #
vertex $-1 $475 $667 #
point $-1 40.737818329156035 -14.983984121819645 2.6359738869431828 #
vertex $-1 $479 $668 #
point $-1 40.737818329156035 -10.072738616302587 2.6359738869431828 #
edge $-1 $609 54.822098021741468 $612 61.696467172771186 $484 $669 forward 7 unknown #
vertex $-1 $498 $670 #
straight-curve $-1 33.467282822008173 5.4995796775462935 8.5145933700443166 1 0 0 I I #
edge $-1 $612 -0.11510337277847071 $495 11.344469473427999 $494 $671 forward 7 unknown #
vertex $-1 $611 $672 #
straight-curve $-1 -6.6053742214324558 5.4995796775462935 75.180164084463399 -0.57357642473473569 0 0.81915205242281985 I I #
point $-1 40.074359522968976 5.4995796775462935 8.5145933700443237 #
point $-1 44.887844477675714 16.959152523752763 1.6402242190145984 #
straight-curve $-1 44.887844477675714 0 8.5145933700443184 0 1 0 I I #
vertex $-1 $501 $673 #
point $-1 40.737818329156035 8.7737433478909992 2.6359738869431828 #
vertex $-1 $505 $674 #
point $-1 40.737818329156035 13.684988853408058 2.6359738869431828 #
coedge $-1 $511 $625 $513 $623 reversed $364 $-1 #
straight-curve $-1 -44.887844477675714 -6.7985749459578813 26.566721459061391 0 0 -1 I I #
edge $-1 $514 6.7985749459578813 $630 18.258147792164351 $621 $675 forward 7 unknown #
point $-1 -44.887844477675714 -6.7985749459578813 8.5145933700443184 #
coedge $-1 $621 $516 $519 $627 forward $364 $-1 #
straight-curve $-1 -44.887844477675714 -6.2641806845305581 1.6402242190146126 0 -1 0 I I #
edge $-1 $520 -24.926497240046778 $630 -18.052128089017074 $625 $676 forward 7 unknown #
point $-1 -44.887844477675714 -18.258147792164351 1.6402242190146126 #
point $-1 -44.887844477675714 -6.7985749459578813 1.6402242190146126 #
vertex $-1 $627 $677 #
straight-curve $-1 0 -18.258147792164351 8.5145933700443184 1 0 0 I I #
vertex $-1 $527 $678 #
point $-1 -39.590665479686564 -14.983984121819645 4.2742779917888258 #
vertex $-1 $531 $679 #
point $-1 -39.590665479686564 -10.072738616302587 4.2742779917888258 #
coedge $-1 $546 $545 $538 $637 forward $535 $-1 #
edge $-1 $638 18.052128089017074 $641 24.926497240046778 $636 $680 forward 7 unknown #
vertex $-1 $550 $681 #
straight-curve $-1 -59.213892171562257 16.959152523752763 8.5145933700443202 -1 0 0 I I #
edge $-1 $641 -11.344469473427999 $547 0.11510337277847071 $546 $682 forward 7 unknown #
vertex $-1 $640 $683 #
straight-curve $-1 -44.887844477675714 16.959152523752763 1.6402242190146126 0.57357642473473569 0 0.81915205242281985 I I #
point $-1 -40.07435952296899 16.959152523752763 8.5145933700443202 #
point $-1 -44.887844477675714 5.4995796775462935 1.6402242190146126 #
straight-curve $-1 -44.887844477675714 0 8.5145933700443184 0 -1 0 I I #
vertex $-1 $553 $684 #
point $-1 -39.590665479686564 8.7737433478909992 4.2742779917888258 #
vertex $-1 $557 $685 #
point $-1 -39.590665479686564 13.684988853408058 4.2742779917888258 #
straight-curve $-1 -44.887844477675714 29.257307147256938 0 0 0 -1 I I #
point $-1 -44.887844477675714 -29.257307147256938 -8.5145933700443184 #
straight-curve $-1 -44.887844477675714 0 -8.5145933700443184 0 1 0 I I #
point $-1 -44.887844477675714 29.257307147256938 -8.5145933700443184 #
coedge $-1 $583 $579 $588 $659 forward $437 $-1 #
vertex $-1 $580 $686 #
straight-curve $-1 -44.887844477675714 0 8.5145933700443184 0 -1 0 I I #
point $-1 -44.887844477675714 -18.258147792164351 8.5145933700443184 #
straight-curve $-1 44.887844477675714 0 8.5145933700443184 0 1 0 I I #
edge $-1 $655 -44.887844477675714 $592 44.887844477675714 $588 $687 forward 7 unknown #
straight-curve $-1 -44.887844477675714 -29.257307147256938 0 0 0 -1 I I #
point $-1 44.887844477675714 -29.257307147256938 8.5145933700443184 #
straight-curve $-1 44.887844477675714 -18.258147792164351 63.336691391785784 0 0 -1 I I #
straight-curve $-1 0 -18.258147792164351 8.5145933700443184 1 0 0 I I #
point $-1 44.887844477675714 -18.258147792164351 1.6402242190145984 #
straight-curve $-1 44.887844477675714 -6.2641806845305581 1.6402242190145984 0 1 0 I I #
point $-1 44.887844477675714 -18.258147792164351 8.5145933700443184 #
point $-1 39.34508985199848 -14.983984121819645 2.8815495146312671 #
point $-1 39.34508985199848 -10.072738616302587 2.8815495146312671 #
straight-curve $-1 44.887844477675714 5.4995796775462935 63.336691391785784 0 0 -1 I I #
point $-1 44.887844477675714 5.4995796775462935 8.5145933700443184 #
straight-curve $-1 44.887844477675714 5.6146830503247642 1.6402242190145984 0 1 0 I I #
point $-1 44.887844477675714 5.4995796775462935 1.6402242190145984 #
point $-1 39.34508985199848 8.7737433478909992 2.8815495146312671 #
point $-1 39.34508985199848 13.684988853408058 2.8815495146312671 #
straight-curve $-1 -44.887844477675714 0 8.5145933700443184 0 -1 0 I I #
straight-curve $-1 -44.887844477675714 -18.258147792164351 26.566721459061391 0 0 1 I I #
point $-1 -44.887844477675714 -18.258147792164351 8.5145933700443184 #
point $-1 -39.34508985199848 -14.983984121819645 2.8815495146312706 #
point $-1 -39.34508985199848 -10.072738616302587 2.8815495146312706 #
straight-curve $-1 -44.887844477675714 16.959152523752763 26.566721459061391 0 0 -1 I I #
point $-1 -44.887844477675714 16.959152523752763 8.5145933700443184 #
straight-curve $-1 -44.887844477675714 5.6146830503247642 1.6402242190146126 0 -1 0 I I #
point $-1 -44.887844477675714 16.959152523752763 1.6402242190146126 #
point $-1 -39.34508985199848 8.7737433478909992 2.8815495146312706 #
point $-1 -39.34508985199848 13.684988853408058 2.8815495146312706 #
point $-1 -44.887844477675714 -29.257307147256938 8.5145933700443184 #
straight-curve $-1 0 -29.257307147256938 8.5145933700443184 1 0 0 I I #
End-of-ACIS-data 