500 0 8 0           
7 Unknown 11 ACIS 5.0 NT 24 Thu Mar 25 21:27:35 1999 
-1 9.9999999999999995e-007 1e-010 
body $-1 $8 $-1 $9 #
body $-1 $10 $-1 $11 #
body $-1 $12 $-1 $13 #
body $-1 $14 $-1 $15 #
body $-1 $16 $-1 $17 #
body $-1 $18 $-1 $19 #
body $-1 $20 $-1 $21 #
body $-1 $22 $-1 $23 #
lump $-1 $-1 $24 $0 #
transform $-1 1 0 0 0 1 0 0 0 1 63.283181249427777 29.976802812677185 14.344257393752578 1 rotate no_reflect no_shear #
lump $-1 $-1 $25 $1 #
transform $-1 1 0 0 0 1 0 0 0 1 63.283181249427777 29.976802812677185 14.344257393752578 1 rotate no_reflect no_shear #
lump $-1 $-1 $26 $2 #
transform $-1 1 0 0 0 1 0 0 0 1 63.283181249427777 29.976802812677185 14.344257393752578 1 rotate no_reflect no_shear #
lump $-1 $-1 $27 $3 #
transform $-1 1 0 0 0 1 0 0 0 1 63.283181249427777 29.976802812677185 14.344257393752578 1 rotate no_reflect no_shear #
lump $-1 $-1 $28 $4 #
transform $-1 1 0 0 0 1 0 0 0 1 63.283181249427777 29.976802812677185 14.344257393752578 1 rotate no_reflect no_shear #
lump $-1 $-1 $29 $5 #
transform $-1 1 0 0 0 1 0 0 0 1 63.283181249427777 29.976802812677185 14.344257393752578 1 rotate no_reflect no_shear #
lump $-1 $-1 $30 $6 #
transform $-1 1 0 0 0 1 0 0 0 1 63.283181249427777 29.976802812677185 14.344257393752578 1 rotate no_reflect no_shear #
lump $-1 $-1 $31 $7 #
transform $-1 1 0 0 0 1 0 0 0 1 63.283181249427777 29.976802812677185 14.344257393752578 1 rotate no_reflect no_shear #
shell $-1 $-1 $-1 $32 $-1 $8 #
shell $-1 $-1 $-1 $33 $-1 $10 #
shell $-1 $-1 $-1 $34 $-1 $12 #
shell $-1 $-1 $-1 $35 $-1 $14 #
shell $-1 $-1 $-1 $36 $-1 $16 #
shell $-1 $-1 $-1 $37 $-1 $18 #
shell $-1 $-1 $-1 $38 $-1 $20 #
shell $-1 $-1 $-1 $39 $-1 $22 #
face $-1 $40 $41 $24 $-1 $42 forward single #
face $-1 $43 $44 $25 $-1 $45 forward single #
face $-1 $46 $47 $26 $-1 $48 reversed single #
face $-1 $49 $50 $27 $-1 $51 forward single #
face $-1 $52 $53 $28 $-1 $54 forward single #
face $-1 $55 $56 $29 $-1 $57 reversed single #
face $-1 $58 $59 $30 $-1 $60 forward single #
face $-1 $61 $62 $31 $-1 $63 forward single #
face $-1 $64 $65 $24 $-1 $66 reversed single #
loop $-1 $-1 $67 $32 #
plane-surface $-1 0 0 14.344257393752578 0 0 1 1 0 0 forward_v I I I I #
face $-1 $68 $69 $25 $-1 $70 reversed single #
loop $-1 $-1 $71 $33 #
plane-surface $-1 -54.913453492684461 0 -3.8518350228730611 0 0 1 1 0 0 forward_v I I I I #
face $-1 $72 $73 $26 $-1 $74 reversed single #
loop $-1 $-1 $75 $34 #
plane-surface $-1 -16.401867517922405 53.46116861210816 145.11701778968384 1 0 0 0 -0.57357644374324357 -0.81915203911291934 forward_v I I I I #
face $-1 $76 $77 $27 $-1 $78 forward single #
loop $-1 $79 $80 $35 #
cone-surface $-1 -10.208688926525319 22.658990987718482 7.6839059157483138 0 -0.57357644374324357 -0.81915203911291934 2.5 0 0 1 I I 0 1 2.5 forward I I I I #
face $-1 $81 $82 $28 $-1 $83 forward single #
loop $-1 $84 $85 $36 #
cone-surface $-1 -0.91892103942968362 22.658990987718482 7.6839059157483138 0 -0.57357644374324357 -0.81915203911291934 2.5 0 0 1 I I 0 1 2.5 forward I I I I #
face $-1 $86 $87 $29 $-1 $88 reversed single #
loop $-1 $-1 $89 $37 #
plane-surface $-1 5.274257551967402 -102.572286912289 110.72904188550814 -1 0 0 0 -0.57357644374324357 0.81915203911291934 forward_v I I I I #
face $-1 $90 $91 $30 $-1 $92 forward single #
loop $-1 $93 $94 $38 #
cone-surface $-1 -10.208688926525319 -22.658990987718486 7.6839059157483138 0 0.57357644374324357 -0.81915203911291934 2.5 0 0 1 I I 0 1 2.5 forward I I I I #
face $-1 $95 $96 $31 $-1 $97 forward single #
loop $-1 $98 $99 $39 #
cone-surface $-1 -0.91892103942968362 -22.658990987718486 7.6839059157483138 0 0.57357644374324357 -0.81915203911291934 2.5 0 0 1 I I 0 1 2.5 forward I I I I #
face $-1 $100 $101 $24 $-1 $102 reversed single #
loop $-1 $-1 $103 $40 #
plane-surface $-1 0 0 -14.344257393752578 0 0 1 1 0 0 forward_v I I I I #
coedge $-1 $104 $105 $106 $107 forward $41 $-1 #
face $-1 $108 $109 $25 $-1 $110 reversed single #
loop $-1 $-1 $111 $43 #
plane-surface $-1 -54.913453492684461 0 -11.957936105062963 0 0 1 1 0 0 forward_v I I I I #
coedge $-1 $112 $113 $114 $115 forward $44 $-1 #
face $-1 $116 $117 $26 $-1 $118 reversed single #
loop $-1 $-1 $119 $46 #
plane-surface $-1 -5.5638049829775014 -19.134315487503635 41.43992386564139 0 0.57357644374324357 0.81915203911291934 1 0 0 forward_v I I I I #
coedge $-1 $120 $121 $122 $123 reversed $47 $-1 #
face $-1 $-1 $124 $27 $-1 $125 forward single #
loop $-1 $126 $127 $49 #
cone-surface $-1 -10.208688926525319 19.831457098200183 3.6457691049963401 0 -0.57357644374324357 -0.81915203911291934 1.25 0 0 1 I I -0.70710678118654746 0.70710678118654746 1.25 forward I I I I #
loop $-1 $-1 $128 $35 #
coedge $-1 $80 $80 $129 $130 reversed $50 $-1 #
face $-1 $-1 $131 $28 $-1 $132 forward single #
loop $-1 $133 $134 $52 #
cone-surface $-1 -0.91892103942968362 19.831457098200183 3.6457691049963401 0 -0.57357644374324357 -0.81915203911291934 1.25 0 0 1 I I -0.70710678118654746 0.70710678118654746 1.25 forward I I I I #
loop $-1 $-1 $135 $36 #
coedge $-1 $85 $85 $136 $137 reversed $53 $-1 #
face $-1 $138 $139 $29 $-1 $140 reversed single #
loop $-1 $-1 $141 $55 #
plane-surface $-1 -5.5638049829775014 -29.976802812677207 7.0519479614656859 0 -0.57357644374324357 0.81915203911291934 1 0 0 forward_v I I I I #
coedge $-1 $142 $143 $144 $145 reversed $56 $-1 #
face $-1 $-1 $146 $30 $-1 $147 forward single #
loop $-1 $148 $149 $58 #
cone-surface $-1 -10.208688926525319 -19.831457098200186 3.6457691049963401 0 0.57357644374324357 -0.81915203911291934 1.25 0 0 1 I I -0.70710678118654746 0.70710678118654746 1.25 forward I I I I #
loop $-1 $-1 $150 $38 #
coedge $-1 $94 $94 $151 $152 reversed $59 $-1 #
face $-1 $-1 $153 $31 $-1 $154 forward single #
loop $-1 $155 $156 $61 #
cone-surface $-1 -0.91892103942968362 -19.831457098200186 3.6457691049963401 0 0.57357644374324357 -0.81915203911291934 1.25 0 0 1 I I -0.70710678118654746 0.70710678118654746 1.25 forward I I I I #
loop $-1 $-1 $157 $39 #
coedge $-1 $99 $99 $158 $159 reversed $62 $-1 #
face $-1 $160 $161 $24 $-1 $162 reversed single #
loop $-1 $-1 $163 $64 #
plane-surface $-1 0 -29.976802812677185 0 0 1 0 0 0 1 forward_v I I I I #
coedge $-1 $164 $165 $166 $167 forward $65 $-1 #
coedge $-1 $168 $67 $169 $170 forward $41 $-1 #
coedge $-1 $67 $168 $171 $172 forward $41 $-1 #
coedge $-1 $173 $174 $67 $107 reversed $175 $-1 #
edge $-1 $176 -29.976802812677185 $177 29.976802812677185 $106 $178 forward 7 unknown #
face $-1 $179 $180 $25 $-1 $181 reversed single #
loop $-1 $-1 $182 $68 #
plane-surface $-1 -46.543725735941145 0 -7.904885563968012 -1 0 0 0 0 1 forward_v I I I I #
coedge $-1 $183 $184 $185 $186 forward $69 $-1 #
coedge $-1 $187 $71 $188 $189 reversed $44 $-1 #
coedge $-1 $71 $187 $190 $191 reversed $44 $-1 #
coedge $-1 $182 $192 $71 $115 reversed $109 $-1 #
edge $-1 $193 -29.976802812677185 $194 29.976802812677185 $114 $195 forward 7 unknown #
face $-1 $196 $197 $26 $-1 $198 forward single #
loop $-1 $-1 $199 $72 #
plane-surface $-1 5.274257551967402 53.46116861210816 145.11701778968384 -1 0 0 0 0.57357644374324357 0.81915203911291934 forward_v I I I I #
coedge $-1 $200 $201 $202 $203 reversed $73 $-1 #
coedge $-1 $121 $75 $204 $205 reversed $47 $-1 #
coedge $-1 $75 $120 $200 $206 reversed $47 $-1 #
coedge $-1 $202 $207 $75 $123 forward $197 $-1 #
edge $-1 $208 -3.2462185066231051 $209 7.1682784736157679 $122 $210 forward 7 unknown #
loop $-1 $-1 $129 $76 #
plane-surface $-1 -5.5638049829775014 -19.134315487503635 41.43992386564139 0 0.57357644374324357 0.81915203911291934 1 0 0 forward_v I I I I #
loop $-1 $-1 $211 $49 #
coedge $-1 $127 $127 $128 $212 reversed $77 $-1 #
coedge $-1 $128 $128 $127 $212 forward $79 $-1 #
coedge $-1 $129 $129 $80 $130 forward $124 $-1 #
edge $-1 $213 1.7473356315497018e-015 $213 6.2831853071796022 $129 $214 forward 7 unknown #
loop $-1 $-1 $136 $81 #
plane-surface $-1 -5.5638049829775014 -19.134315487503635 41.43992386564139 0 0.57357644374324357 0.81915203911291934 1 0 0 forward_v I I I I #
loop $-1 $-1 $215 $52 #
coedge $-1 $134 $134 $135 $216 reversed $82 $-1 #
coedge $-1 $135 $135 $134 $216 forward $84 $-1 #
coedge $-1 $136 $136 $85 $137 forward $131 $-1 #
edge $-1 $217 1.7473356315497018e-015 $217 6.2831853071796022 $136 $218 forward 7 unknown #
face $-1 $219 $220 $29 $-1 $221 reversed single #
loop $-1 $-1 $222 $86 #
plane-surface $-1 -16.401867517922405 -102.572286912289 110.72904188550814 1 0 0 0 0.57357644374324357 -0.81915203911291934 forward_v I I I I #
coedge $-1 $223 $224 $225 $226 reversed $87 $-1 #
coedge $-1 $143 $89 $227 $228 reversed $56 $-1 #
coedge $-1 $89 $142 $223 $229 reversed $56 $-1 #
coedge $-1 $225 $230 $89 $145 forward $231 $-1 #
edge $-1 $232 21.309340643467316 $233 31.723837623706203 $144 $234 forward 7 unknown #
loop $-1 $-1 $151 $90 #
plane-surface $-1 -5.5638049829775014 -29.976802812677207 7.0519479614656859 0 -0.57357644374324357 0.81915203911291934 1 0 0 forward_v I I I I #
loop $-1 $-1 $235 $58 #
coedge $-1 $149 $149 $150 $236 reversed $91 $-1 #
coedge $-1 $150 $150 $149 $236 forward $93 $-1 #
coedge $-1 $151 $151 $94 $152 forward $146 $-1 #
edge $-1 $237 -4.6611724026997726e-016 $237 6.2831853071795996 $151 $238 forward 7 unknown #
loop $-1 $-1 $158 $95 #
plane-surface $-1 -5.5638049829775014 -29.976802812677207 7.0519479614656859 0 -0.57357644374324357 0.81915203911291934 1 0 0 forward_v I I I I #
loop $-1 $-1 $239 $61 #
coedge $-1 $156 $156 $157 $240 reversed $96 $-1 #
coedge $-1 $157 $157 $156 $240 forward $98 $-1 #
coedge $-1 $158 $158 $99 $159 forward $153 $-1 #
edge $-1 $241 -4.6611724026997726e-016 $241 6.2831853071795996 $158 $242 forward 7 unknown #
face $-1 $243 $244 $24 $-1 $245 reversed single #
loop $-1 $-1 $246 $100 #
plane-surface $-1 -63.283181249427777 0 0 1 0 0 0 0 -1 forward_v I I I I #
coedge $-1 $247 $171 $248 $249 forward $101 $-1 #
coedge $-1 $250 $103 $247 $251 forward $65 $-1 #
coedge $-1 $103 $250 $252 $253 forward $65 $-1 #
coedge $-1 $174 $173 $103 $167 reversed $175 $-1 #
edge $-1 $254 -29.976802812677185 $255 29.976802812677185 $166 $256 forward 7 unknown #
coedge $-1 $105 $104 $257 $258 forward $41 $-1 #
coedge $-1 $259 $260 $104 $170 reversed $244 $-1 #
edge $-1 $177 -63.283181249427777 $261 63.283181249427777 $169 $262 forward 7 unknown #
coedge $-1 $163 $263 $105 $172 reversed $101 $-1 #
edge $-1 $264 -63.283181249427777 $176 63.283181249427777 $171 $265 forward 7 unknown #
coedge $-1 $166 $106 $263 $266 forward $175 $-1 #
coedge $-1 $106 $166 $259 $267 reversed $175 $-1 #
loop $-1 $-1 $173 $243 #
vertex $-1 $107 $268 #
vertex $-1 $107 $269 #
straight-curve $-1 63.283181249427777 0 14.344257393752578 0 1 0 I I #
face $-1 $270 $271 $25 $-1 $272 reversed single #
loop $-1 $-1 $273 $108 #
plane-surface $-1 0 -29.976802812677185 0 0 1 0 0 0 1 forward_v I I I I #
coedge $-1 $185 $114 $274 $275 reversed $109 $-1 #
coedge $-1 $276 $111 $273 $277 reversed $69 $-1 #
coedge $-1 $111 $276 $278 $279 reversed $69 $-1 #
coedge $-1 $192 $182 $111 $186 reversed $109 $-1 #
edge $-1 $280 -29.976802812677185 $281 29.976802812677185 $185 $282 forward 7 unknown #
coedge $-1 $113 $112 $283 $284 reversed $44 $-1 #
coedge $-1 $285 $286 $112 $189 forward $287 $-1 #
edge $-1 $288 -35.826454503085543 $194 -19.086998989598914 $188 $289 forward 7 unknown #
coedge $-1 $290 $274 $113 $191 forward $180 $-1 #
edge $-1 $193 19.086998989598914 $291 35.826454503085543 $190 $292 forward 7 unknown #
coedge $-1 $114 $185 $285 $293 reversed $109 $-1 #
vertex $-1 $191 $294 #
vertex $-1 $189 $295 #
straight-curve $-1 -46.543725735941145 0 -3.8518350228730611 0 1 0 I I #
face $-1 $-1 $296 $26 $-1 $297 reversed single #
loop $-1 $-1 $122 $116 #
plane-surface $-1 0 0 14.344257393752578 0 0 1 1 0 0 forward_v I I I I #
coedge $-1 $298 $299 $300 $301 reversed $117 $-1 #
coedge $-1 $302 $119 $121 $206 forward $73 $-1 #
coedge $-1 $119 $302 $298 $303 forward $73 $-1 #
coedge $-1 $300 $122 $119 $203 forward $197 $-1 #
edge $-1 $209 -13.619965026433654 $304 8.0561600434561527 $202 $305 forward 7 unknown #
coedge $-1 $306 $307 $120 $205 forward $296 $-1 #
edge $-1 $308 -65.506560933376207 $208 -58.214251501089343 $204 $309 forward 7 unknown #
edge $-1 $209 47.239852276809941 $308 59.953605625354356 $121 $310 forward 7 unknown #
coedge $-1 $122 $300 $306 $311 forward $197 $-1 #
vertex $-1 $205 $312 #
vertex $-1 $123 $313 #
straight-curve $-1 -16.401867517922405 26.73058430605408 14.344257393752585 0 -1 0 I I #
coedge $-1 $211 $211 $-1 $314 reversed $126 $-1 #
edge $-1 $315 0 $315 6.2831853071796004 $127 $316 forward 7 unknown #
vertex $-1 $130 $317 #
ellipse-curve $-1 -10.208688926525319 24.769554322557738 10.698102677609153 0 0.57357644374324357 0.81915203911291934 2.5 0 0 1 I I #
coedge $-1 $215 $215 $-1 $318 reversed $133 $-1 #
edge $-1 $319 0 $319 6.2831853071796004 $134 $320 forward 7 unknown #
vertex $-1 $137 $321 #
ellipse-curve $-1 -0.91892103942968362 24.769554322557738 10.698102677609153 0 0.57357644374324357 0.81915203911291934 2.5 0 0 1 I I #
face $-1 $-1 $231 $29 $-1 $322 forward single #
loop $-1 $-1 $323 $138 #
plane-surface $-1 0 -29.976802812677185 0 0 1 0 0 0 1 forward_v I I I I #
coedge $-1 $324 $325 $326 $327 reversed $139 $-1 #
coedge $-1 $328 $141 $143 $229 forward $87 $-1 #
coedge $-1 $141 $328 $324 $329 forward $87 $-1 #
coedge $-1 $326 $144 $141 $226 forward $231 $-1 #
edge $-1 $233 -8.0561600434561527 $330 13.619965026433654 $225 $331 forward 7 unknown #
coedge $-1 $332 $333 $142 $228 forward $220 $-1 #
edge $-1 $334 -48.312572981288369 $232 -41.020263549001491 $227 $335 forward 7 unknown #
edge $-1 $233 -12.713753348544468 $334 -2.6121725655721309e-014 $143 $336 forward 7 unknown #
coedge $-1 $144 $326 $332 $337 forward $231 $-1 #
loop $-1 $-1 $326 $219 #
vertex $-1 $228 $338 #
vertex $-1 $145 $339 #
straight-curve $-1 5.274257551967402 -51.286143456144501 14.344257393752578 0 1 0 I I #
coedge $-1 $235 $235 $-1 $340 reversed $148 $-1 #
edge $-1 $341 0 $341 6.2831853071796004 $149 $342 forward 7 unknown #
vertex $-1 $152 $343 #
ellipse-curve $-1 -10.208688926525319 -24.769554322557735 10.698102677609143 0 -0.57357644374324357 0.81915203911291934 2.5 0 0 1 I I #
coedge $-1 $239 $239 $-1 $344 reversed $155 $-1 #
edge $-1 $345 0 $345 6.2831853071796004 $156 $346 forward 7 unknown #
vertex $-1 $159 $347 #
ellipse-curve $-1 -0.91892103942968362 -24.769554322557735 10.698102677609143 0 -0.57357644374324357 0.81915203911291934 2.5 0 0 1 I I #
face $-1 $-1 $175 $24 $-1 $348 reversed single #
loop $-1 $-1 $259 $160 #
plane-surface $-1 0 29.976802812677185 0 0 -1 0 0 0 -1 forward_v I I I I #
coedge $-1 $349 $257 $260 $350 forward $161 $-1 #
coedge $-1 $263 $163 $164 $251 reversed $101 $-1 #
coedge $-1 $257 $349 $163 $249 reversed $161 $-1 #
edge $-1 $264 -14.344257393752578 $351 14.344257393752578 $248 $352 forward 7 unknown #
coedge $-1 $165 $164 $349 $353 forward $65 $-1 #
edge $-1 $255 -63.283181249427777 $351 63.283181249427777 $247 $354 forward 7 unknown #
coedge $-1 $260 $259 $165 $253 reversed $244 $-1 #
edge $-1 $355 -63.283181249427777 $254 63.283181249427777 $252 $356 forward 7 unknown #
vertex $-1 $167 $357 #
vertex $-1 $266 $358 #
straight-curve $-1 63.283181249427777 0 -14.344257393752578 0 -1 0 I I #
coedge $-1 $246 $248 $168 $258 reversed $161 $-1 #
edge $-1 $261 -29.976802812677185 $264 29.976802812677185 $257 $359 forward 7 unknown #
coedge $-1 $252 $169 $174 $267 forward $244 $-1 #
coedge $-1 $169 $252 $246 $350 reversed $244 $-1 #
vertex $-1 $170 $360 #
straight-curve $-1 0 29.976802812677185 14.344257393752578 -1 0 0 I I #
coedge $-1 $171 $247 $173 $266 reversed $101 $-1 #
vertex $-1 $258 $361 #
straight-curve $-1 0 -29.976802812677185 14.344257393752578 1 0 0 I I #
edge $-1 $176 -14.344257393752578 $255 14.344257393752578 $173 $362 forward 7 unknown #
edge $-1 $177 -14.344257393752578 $254 14.344257393752578 $174 $363 forward 7 unknown #
point $-1 63.283181249427777 -29.976802812677185 14.344257393752578 #
point $-1 63.283181249427777 29.976802812677185 14.344257393752578 #
face $-1 $-1 $287 $25 $-1 $364 reversed single #
loop $-1 $-1 $365 $179 #
plane-surface $-1 -63.283181249427777 0 0 1 0 0 0 0 -1 forward_v I I I I #
coedge $-1 $274 $290 $183 $277 forward $180 $-1 #
coedge $-1 $190 $273 $182 $275 forward $180 $-1 #
edge $-1 $281 -8.0054933230789569 $193 0.10060775911094488 $274 $366 forward 7 unknown #
coedge $-1 $184 $183 $365 $367 reversed $69 $-1 #
edge $-1 $368 -35.826454503085543 $281 -19.086998989598914 $273 $369 forward 7 unknown #
coedge $-1 $286 $285 $184 $279 forward $287 $-1 #
edge $-1 $280 19.086998989598914 $370 35.826454503085543 $278 $371 forward 7 unknown #
vertex $-1 $279 $372 #
vertex $-1 $277 $373 #
straight-curve $-1 -46.543725735941145 0 -11.957936105062963 0 -1 0 I I #
coedge $-1 $374 $375 $187 $284 forward $271 $-1 #
edge $-1 $291 -29.976802812677185 $288 29.976802812677185 $283 $376 forward 7 unknown #
coedge $-1 $278 $188 $192 $293 forward $287 $-1 #
coedge $-1 $188 $278 $374 $377 reversed $287 $-1 #
loop $-1 $-1 $278 $270 #
vertex $-1 $377 $378 #
straight-curve $-1 -27.45672674634223 29.976802812677185 -3.8518350228730611 1 0 0 I I #
coedge $-1 $273 $190 $375 $379 forward $180 $-1 #
vertex $-1 $379 $380 #
straight-curve $-1 -27.45672674634223 -29.976802812677185 -3.8518350228730611 -1 0 0 I I #
edge $-1 $194 -0.10060775911094488 $280 8.0054933230789569 $285 $381 forward 7 unknown #
point $-1 -46.543725735941145 -29.976802812677185 -3.8518350228730611 #
point $-1 -46.543725735941145 29.976802812677185 -3.8518350228730611 #
loop $-1 $-1 $204 $196 #
plane-surface $-1 0 29.976802812677185 0 0 -1 0 0 0 -1 forward_v I I I I #
coedge $-1 $299 $199 $201 $303 reversed $117 $-1 #
coedge $-1 $199 $298 $382 $383 reversed $117 $-1 #
coedge $-1 $207 $202 $199 $301 forward $197 $-1 #
edge $-1 $304 -7.1682784736157679 $384 3.2462185066231051 $300 $385 forward 7 unknown #
coedge $-1 $201 $200 $307 $386 reversed $73 $-1 #
edge $-1 $387 -59.953605625354356 $304 -47.239852276809941 $298 $388 forward 7 unknown #
vertex $-1 $203 $389 #
straight-curve $-1 -2.7819024914887507 19.562305832438305 14.344257393752578 1 0 0 I I #
coedge $-1 $382 $204 $207 $311 reversed $296 $-1 #
coedge $-1 $204 $382 $302 $386 forward $296 $-1 #
vertex $-1 $205 $390 #
straight-curve $-1 -16.401867517922405 29.976802812677185 72.558508894841921 0 0 1 I I #
straight-curve $-1 -16.401867517922405 -19.134315487503635 41.43992386564139 0 0.81915203911291934 -0.57357644374324357 I I #
edge $-1 $384 -5.274257551967402 $208 16.401867517922405 $306 $391 forward 7 unknown #
point $-1 -16.401867517922405 29.976802812677185 14.344257393752578 #
point $-1 -16.401867517922405 19.562305832438312 14.344257393752574 #
edge $-1 $392 1 $392 0 $211 $-1 forward 7 unknown #
vertex $-1 $212 $393 #
ellipse-curve $-1 -10.208688926525319 20.548427652879237 4.6697091538874895 0 0.57357644374324357 0.81915203911291934 2.5 0 0 1 I I #
point $-1 -7.7086889265253191 24.769554322557731 10.698102677609135 #
edge $-1 $394 1 $394 0 $215 $-1 forward 7 unknown #
vertex $-1 $216 $395 #
ellipse-curve $-1 -0.91892103942968362 20.548427652879237 4.6697091538874895 0 0.57357644374324357 0.81915203911291934 2.5 0 0 1 I I #
point $-1 1.5810789605703164 24.769554322557731 10.698102677609135 #
plane-surface $-1 0 0 14.344257393752578 0 0 1 1 0 0 forward_v I I I I #
coedge $-1 $333 $332 $325 $396 forward $220 $-1 #
coedge $-1 $325 $222 $224 $329 reversed $139 $-1 #
coedge $-1 $222 $324 $323 $396 reversed $139 $-1 #
coedge $-1 $230 $225 $222 $327 forward $231 $-1 #
edge $-1 $330 -31.723837623706203 $397 -21.309340643467316 $326 $398 forward 7 unknown #
coedge $-1 $224 $223 $333 $399 reversed $87 $-1 #
edge $-1 $400 2.6121725655721309e-014 $330 12.713753348544468 $324 $401 forward 7 unknown #
vertex $-1 $226 $402 #
straight-curve $-1 -2.7819024914887507 -19.562305832438298 14.344257393752578 -1 0 0 I I #
coedge $-1 $323 $227 $230 $337 reversed $220 $-1 #
coedge $-1 $227 $323 $328 $399 forward $220 $-1 #
vertex $-1 $228 $403 #
straight-curve $-1 5.274257551967402 -29.976802812677185 55.364520942754069 0 0 1 I I #
straight-curve $-1 5.274257551967402 -29.976802812677207 7.0519479614656859 0 -0.81915203911291934 -0.57357644374324357 I I #
edge $-1 $397 -16.401867517922405 $232 5.274257551967402 $332 $404 forward 7 unknown #
point $-1 5.274257551967402 -29.976802812677185 14.344257393752578 #
point $-1 5.274257551967402 -19.562305832438298 14.344257393752578 #
edge $-1 $405 1 $405 0 $235 $-1 forward 7 unknown #
vertex $-1 $236 $406 #
ellipse-curve $-1 -10.208688926525319 -20.548427652879241 4.6697091538874895 0 -0.57357644374324357 0.81915203911291934 2.5 0 0 1 I I #
point $-1 -7.7086889265253191 -24.769554322557731 10.698102677609135 #
edge $-1 $407 1 $407 0 $239 $-1 forward 7 unknown #
vertex $-1 $240 $408 #
ellipse-curve $-1 -0.91892103942968362 -20.548427652879241 4.6697091538874895 0 -0.57357644374324357 0.81915203911291934 2.5 0 0 1 I I #
point $-1 1.5810789605703164 -24.769554322557731 10.698102677609135 #
plane-surface $-1 63.283181249427777 0 0 -1 0 0 0 0 1 forward_v I I I I #
coedge $-1 $248 $246 $250 $353 reversed $161 $-1 #
edge $-1 $261 -14.344257393752578 $355 14.344257393752578 $260 $409 forward 7 unknown #
vertex $-1 $353 $410 #
straight-curve $-1 -63.283181249427777 -29.976802812677185 0 0 0 -1 I I #
edge $-1 $351 -29.976802812677185 $355 29.976802812677185 $349 $411 forward 7 unknown #
straight-curve $-1 0 -29.976802812677185 -14.344257393752578 -1 0 0 I I #
vertex $-1 $253 $412 #
straight-curve $-1 0 29.976802812677185 -14.344257393752578 1 0 0 I I #
point $-1 63.283181249427777 29.976802812677185 -14.344257393752578 #
point $-1 63.283181249427777 -29.976802812677185 -14.344257393752578 #
straight-curve $-1 -63.283181249427777 0 14.344257393752578 0 -1 0 I I #
point $-1 -63.283181249427777 29.976802812677185 14.344257393752578 #
point $-1 -63.283181249427777 -29.976802812677185 14.344257393752578 #
straight-curve $-1 63.283181249427777 -29.976802812677185 0 0 0 -1 I I #
straight-curve $-1 63.283181249427777 29.976802812677185 0 0 0 -1 I I #
plane-surface $-1 0 29.976802812677185 0 0 -1 0 0 0 -1 forward_v I I I I #
coedge $-1 $375 $374 $276 $367 forward $271 $-1 #
straight-curve $-1 -46.543725735941145 -29.976802812677185 -3.952442781984006 0 0 1 I I #
edge $-1 $370 -29.976802812677185 $368 29.976802812677185 $365 $413 forward 7 unknown #
vertex $-1 $277 $414 #
straight-curve $-1 -27.45672674634223 -29.976802812677185 -11.957936105062963 1 0 0 I I #
vertex $-1 $279 $415 #
straight-curve $-1 -27.45672674634223 29.976802812677185 -11.957936105062963 -1 0 0 I I #
point $-1 -46.543725735941145 29.976802812677185 -11.957936105062963 #
point $-1 -46.543725735941145 -29.976802812677185 -11.957936105062963 #
coedge $-1 $365 $283 $286 $377 forward $271 $-1 #
coedge $-1 $283 $365 $290 $379 reversed $271 $-1 #
straight-curve $-1 -63.283181249427777 0 -3.8518350228730611 0 1 0 I I #
edge $-1 $288 3.8518350228730611 $370 11.957936105062963 $286 $416 forward 7 unknown #
point $-1 -63.283181249427777 29.976802812677185 -3.8518350228730611 #
edge $-1 $291 3.8518350228730611 $368 11.957936105062963 $375 $417 forward 7 unknown #
point $-1 -63.283181249427777 -29.976802812677185 -3.8518350228730611 #
straight-curve $-1 -46.543725735941145 29.976802812677185 -3.952442781984006 0 0 -1 I I #
coedge $-1 $307 $306 $299 $383 forward $296 $-1 #
edge $-1 $384 58.214251501089343 $387 65.506560933376207 $382 $418 forward 7 unknown #
vertex $-1 $311 $419 #
straight-curve $-1 5.274257551967402 26.73058430605408 14.344257393752585 0 1 0 I I #
edge $-1 $387 -8.0561600434561527 $308 13.619965026433654 $307 $420 forward 7 unknown #
vertex $-1 $386 $421 #
straight-curve $-1 5.274257551967402 -19.134315487503635 41.43992386564139 0 -0.81915203911291934 0.57357644374324357 I I #
point $-1 5.274257551967402 19.562305832438312 14.344257393752574 #
point $-1 -16.401867517922405 29.976802812677185 7.0519479614657143 #
straight-curve $-1 0 29.976802812677185 14.344257393752578 -1 0 0 I I #
vertex $-1 $314 $422 #
point $-1 -7.7086889265253191 20.548427652879237 4.6697091538874895 #
vertex $-1 $318 $423 #
point $-1 1.5810789605703164 20.548427652879237 4.6697091538874895 #
edge $-1 $397 41.020263549001491 $400 48.312572981288369 $323 $424 forward 7 unknown #
vertex $-1 $337 $425 #
straight-curve $-1 -16.401867517922405 -51.286143456144501 14.344257393752578 0 -1 0 I I #
edge $-1 $400 -13.619965026433654 $334 8.0561600434561527 $333 $426 forward 7 unknown #
vertex $-1 $399 $427 #
straight-curve $-1 -16.401867517922405 -29.976802812677207 7.0519479614656859 0 0.81915203911291934 0.57357644374324357 I I #
point $-1 -16.401867517922405 -19.562305832438298 14.344257393752578 #
point $-1 5.274257551967402 -29.976802812677185 7.051947961465701 #
straight-curve $-1 0 -29.976802812677185 14.344257393752578 1 0 0 I I #
vertex $-1 $340 $428 #
point $-1 -7.7086889265253191 -20.548427652879241 4.6697091538874895 #
vertex $-1 $344 $429 #
point $-1 1.5810789605703164 -20.548427652879241 4.6697091538874895 #
straight-curve $-1 -63.283181249427777 29.976802812677185 0 0 0 -1 I I #
point $-1 -63.283181249427777 -29.976802812677185 -14.344257393752578 #
straight-curve $-1 -63.283181249427777 0 -14.344257393752578 0 1 0 I I #
point $-1 -63.283181249427777 29.976802812677185 -14.344257393752578 #
straight-curve $-1 -63.283181249427777 0 -11.957936105062963 0 -1 0 I I #
point $-1 -63.283181249427777 -29.976802812677185 -11.957936105062963 #
point $-1 -63.283181249427777 29.976802812677185 -11.957936105062963 #
straight-curve $-1 -63.283181249427777 29.976802812677185 0 0 0 -1 I I #
straight-curve $-1 -63.283181249427777 -29.976802812677185 0 0 0 -1 I I #
straight-curve $-1 5.274257551967402 29.976802812677185 72.558508894841921 0 0 -1 I I #
point $-1 5.274257551967402 29.976802812677185 14.344257393752578 #
straight-curve $-1 -2.7819024914887507 29.976802812677185 7.0519479614657072 -1 0 0 I I #
point $-1 5.274257551967402 29.976802812677185 7.0519479614657143 #
point $-1 -10.208688926525319 19.114486543521128 2.6218290561051907 #
point $-1 -0.91892103942968362 19.114486543521128 2.6218290561051907 #
straight-curve $-1 -16.401867517922405 -29.976802812677185 55.364520942754069 0 0 -1 I I #
point $-1 -16.401867517922405 -29.976802812677185 14.344257393752578 #
straight-curve $-1 -2.7819024914887507 -29.976802812677185 7.051947961465701 1 0 0 I I #
point $-1 -16.401867517922405 -29.976802812677185 7.051947961465701 #
point $-1 -10.208688926525319 -19.114486543521132 2.6218290561051907 #
point $-1 -0.91892103942968362 -19.114486543521132 2.6218290561051907 #
End-of-ACIS-data 