500 0 5 0           
7 Unknown 11 ACIS 5.0 NT 24 Fri Mar 26 18:28:15 1999 
-1 9.9999999999999995e-007 1e-010 
body $-1 $5 $-1 $6 #
body $-1 $7 $-1 $8 #
body $-1 $9 $-1 $10 #
body $-1 $11 $-1 $12 #
body $-1 $13 $-1 $14 #
lump $-1 $-1 $15 $0 #
transform $-1 1 0 0 0 1 0 0 0 1 50.516678365428632 32.15186851537149 14.463091266910999 1 rotate no_reflect no_shear #
lump $-1 $-1 $16 $1 #
transform $-1 1 0 0 0 1 0 0 0 1 50.516678365428632 32.15186851537149 14.463091266910999 1 rotate no_reflect no_shear #
lump $-1 $-1 $17 $2 #
transform $-1 1 0 0 0 1 0 0 0 1 50.516678365428632 32.15186851537149 14.463091266910999 1 rotate no_reflect no_shear #
lump $-1 $-1 $18 $3 #
transform $-1 1 0 0 0 1 0 0 0 1 50.516678365428632 32.15186851537149 14.463091266910999 1 rotate no_reflect no_shear #
lump $-1 $-1 $19 $4 #
transform $-1 1 0 0 0 1 0 0 0 1 50.516678365428632 32.15186851537149 14.463091266910999 1 rotate no_reflect no_shear #
shell $-1 $-1 $-1 $20 $-1 $5 #
shell $-1 $-1 $-1 $21 $-1 $7 #
shell $-1 $-1 $-1 $22 $-1 $9 #
shell $-1 $-1 $-1 $23 $-1 $11 #
shell $-1 $-1 $-1 $24 $-1 $13 #
face $-1 $25 $26 $15 $-1 $27 forward single #
face $-1 $28 $29 $16 $-1 $30 reversed single #
face $-1 $31 $32 $17 $-1 $33 forward single #
face $-1 $34 $35 $18 $-1 $36 reversed single #
face $-1 $37 $38 $19 $-1 $39 forward single #
face $-1 $40 $41 $15 $-1 $42 reversed single #
loop $-1 $-1 $43 $20 #
plane-surface $-1 0 0 14.463091266910999 0 0 1 1 0 0 forward_v I I I I #
face $-1 $44 $45 $16 $-1 $46 reversed single #
loop $-1 $-1 $47 $21 #
plane-surface $-1 -13.833312615280885 31.158729800612193 123.50963054742454 1 0 0 0 -0.52991927123019833 -0.84804809178421925 forward_v I I I I #
face $-1 $48 $49 $17 $-1 $50 forward single #
loop $-1 $51 $52 $22 #
cone-surface $-1 -8.0474902257543164 22.670772483342077 7.6500075310925055 0 -0.52991927123019833 -0.84804809178421925 2.5 0 0 1 I I 0 1 2.5 forward I I I I #
face $-1 $53 $54 $18 $-1 $55 reversed single #
loop $-1 $-1 $56 $23 #
plane-surface $-1 -2.2616678362277476 -85.691391284128031 89.433841082714906 -1 0 0 0 -0.52991927123019833 0.84804809178421925 forward_v I I I I #
face $-1 $57 $58 $19 $-1 $59 forward single #
loop $-1 $60 $61 $24 #
cone-surface $-1 -8.0474902257543164 -22.670772483342084 7.6500075310925126 0 0.52991927123019833 -0.84804809178421925 2.5 0 0 1 I I 0 1 2.5 forward I I I I #
face $-1 $62 $63 $15 $-1 $64 reversed single #
loop $-1 $-1 $65 $25 #
plane-surface $-1 0 0 -14.463091266910999 0 0 1 1 0 0 forward_v I I I I #
coedge $-1 $66 $67 $68 $69 forward $26 $-1 #
face $-1 $70 $71 $16 $-1 $72 reversed single #
loop $-1 $-1 $73 $28 #
plane-surface $-1 -8.0474902257543164 -22.380792968144341 37.828485165266727 0 0.52991927123019833 0.84804809178421925 1 0 0 forward_v I I I I #
coedge $-1 $74 $75 $76 $77 reversed $29 $-1 #
face $-1 $-1 $78 $17 $-1 $79 forward single #
loop $-1 $80 $81 $31 #
cone-surface $-1 -8.0474902257543164 21.097385127194215 5.1320614637207012 0 -0.52991927123019833 -0.84804809178421925 1.25 0 0 1 I I -0.70710678118654746 0.70710678118654746 1.25 forward I I I I #
loop $-1 $-1 $82 $22 #
coedge $-1 $52 $52 $83 $84 reversed $32 $-1 #
face $-1 $85 $86 $18 $-1 $87 reversed single #
loop $-1 $-1 $88 $34 #
plane-surface $-1 -8.0474902257543164 -32.151868515371497 3.7526957005570978 0 -0.52991927123019833 0.84804809178421925 1 0 0 forward_v I I I I #
coedge $-1 $89 $90 $91 $92 reversed $35 $-1 #
face $-1 $-1 $93 $19 $-1 $94 forward single #
loop $-1 $95 $96 $37 #
cone-surface $-1 -8.0474902257543164 -21.097385127194222 5.1320614637207083 0 0.52991927123019833 -0.84804809178421925 1.25 0 0 1 I I -0.70710678118654746 0.70710678118654746 1.25 forward I I I I #
loop $-1 $-1 $97 $24 #
coedge $-1 $61 $61 $98 $99 reversed $38 $-1 #
face $-1 $100 $101 $15 $-1 $102 reversed single #
loop $-1 $-1 $103 $40 #
plane-surface $-1 0 -32.15186851537149 0 0 1 0 0 0 1 forward_v I I I I #
coedge $-1 $104 $105 $106 $107 forward $41 $-1 #
coedge $-1 $108 $43 $109 $110 forward $26 $-1 #
coedge $-1 $43 $108 $111 $112 forward $26 $-1 #
coedge $-1 $113 $114 $43 $69 reversed $115 $-1 #
edge $-1 $116 -32.15186851537149 $117 32.15186851537149 $68 $118 forward 7 unknown #
face $-1 $119 $120 $16 $-1 $121 reversed single #
loop $-1 $-1 $122 $44 #
plane-surface $-1 -2.2616678362277476 31.158729800612193 123.50963054742454 -1 0 0 0 0.52991927123019833 0.84804809178421925 forward_v I I I I #
coedge $-1 $123 $124 $125 $126 reversed $45 $-1 #
coedge $-1 $75 $47 $127 $128 reversed $29 $-1 #
coedge $-1 $47 $74 $123 $129 reversed $29 $-1 #
coedge $-1 $125 $130 $47 $77 forward $131 $-1 #
edge $-1 $132 -16.572503615065393 $133 0.56771191477321281 $76 $134 forward 7 unknown #
loop $-1 $-1 $83 $48 #
plane-surface $-1 -8.0474902257543164 -22.380792968144341 37.828485165266727 0 0.52991927123019833 0.84804809178421925 1 0 0 forward_v I I I I #
loop $-1 $-1 $135 $31 #
coedge $-1 $81 $81 $82 $136 reversed $49 $-1 #
coedge $-1 $82 $82 $81 $136 forward $51 $-1 #
coedge $-1 $83 $83 $52 $84 forward $78 $-1 #
edge $-1 $137 -4.5208824496117595e-016 $137 6.2831853071795996 $83 $138 forward 7 unknown #
face $-1 $139 $140 $18 $-1 $141 reversed single #
loop $-1 $-1 $142 $53 #
plane-surface $-1 -13.833312615280885 -85.691391284128031 89.433841082714906 1 0 0 0 0.52991927123019833 -0.84804809178421925 forward_v I I I I #
coedge $-1 $143 $144 $145 $146 reversed $54 $-1 #
coedge $-1 $90 $56 $147 $148 reversed $35 $-1 #
coedge $-1 $56 $89 $143 $149 reversed $35 $-1 #
coedge $-1 $145 $150 $56 $92 forward $151 $-1 #
edge $-1 $152 10.693827126692526 $153 27.8340426565311 $91 $154 forward 7 unknown #
loop $-1 $-1 $98 $57 #
plane-surface $-1 -8.0474902257543164 -32.151868515371497 3.7526957005570978 0 -0.52991927123019833 0.84804809178421925 1 0 0 forward_v I I I I #
loop $-1 $-1 $155 $37 #
coedge $-1 $96 $96 $97 $156 reversed $58 $-1 #
coedge $-1 $97 $97 $96 $156 forward $60 $-1 #
coedge $-1 $98 $98 $61 $99 forward $93 $-1 #
edge $-1 $157 -3.0097233246263133e-016 $157 6.2831853071796004 $98 $158 forward 7 unknown #
face $-1 $159 $160 $15 $-1 $161 reversed single #
loop $-1 $-1 $162 $62 #
plane-surface $-1 -50.516678365428632 0 0 1 0 0 0 0 -1 forward_v I I I I #
coedge $-1 $163 $111 $164 $165 forward $63 $-1 #
coedge $-1 $166 $65 $163 $167 forward $41 $-1 #
coedge $-1 $65 $166 $168 $169 forward $41 $-1 #
coedge $-1 $114 $113 $65 $107 reversed $115 $-1 #
edge $-1 $170 -32.15186851537149 $171 32.15186851537149 $106 $172 forward 7 unknown #
coedge $-1 $67 $66 $173 $174 forward $26 $-1 #
coedge $-1 $175 $176 $66 $110 reversed $160 $-1 #
edge $-1 $117 -50.516678365428632 $177 50.516678365428632 $109 $178 forward 7 unknown #
coedge $-1 $103 $179 $67 $112 reversed $63 $-1 #
edge $-1 $180 -50.516678365428632 $116 50.516678365428632 $111 $181 forward 7 unknown #
coedge $-1 $106 $68 $179 $182 forward $115 $-1 #
coedge $-1 $68 $106 $175 $183 reversed $115 $-1 #
loop $-1 $-1 $113 $159 #
vertex $-1 $69 $184 #
vertex $-1 $69 $185 #
straight-curve $-1 50.516678365428632 0 14.463091266910999 0 1 0 I I #
face $-1 $-1 $131 $16 $-1 $186 forward single #
loop $-1 $-1 $187 $70 #
plane-surface $-1 0 32.15186851537149 0 0 -1 0 0 0 -1 forward_v I I I I #
coedge $-1 $188 $189 $190 $191 reversed $71 $-1 #
coedge $-1 $192 $73 $75 $129 forward $45 $-1 #
coedge $-1 $73 $192 $188 $193 forward $45 $-1 #
coedge $-1 $190 $76 $73 $126 forward $131 $-1 #
edge $-1 $133 -9.809567502403727 $194 1.7620772766494106 $125 $195 forward 7 unknown #
coedge $-1 $196 $197 $74 $128 forward $120 $-1 #
edge $-1 $198 -58.002119573155184 $132 -47.291724006801267 $127 $199 forward 7 unknown #
edge $-1 $133 44.092364944783711 $198 64.303737030742994 $75 $200 forward 7 unknown #
coedge $-1 $76 $190 $196 $201 forward $131 $-1 #
loop $-1 $-1 $190 $119 #
vertex $-1 $128 $202 #
vertex $-1 $77 $203 #
straight-curve $-1 -13.833312615280885 15.579364900306096 14.463091266911 0 -1 0 I I #
coedge $-1 $135 $135 $-1 $204 reversed $80 $-1 #
edge $-1 $205 0 $205 6.2831853071796004 $81 $206 forward 7 unknown #
vertex $-1 $84 $207 #
ellipse-curve $-1 -8.0474902257543164 23.581760750452194 9.107893483734042 0 0.52991927123019833 0.84804809178421925 2.5 0 0 1 I I #
face $-1 $-1 $151 $18 $-1 $208 forward single #
loop $-1 $-1 $209 $85 #
plane-surface $-1 0 -32.15186851537149 0 0 1 0 0 0 1 forward_v I I I I #
coedge $-1 $210 $211 $212 $213 reversed $86 $-1 #
coedge $-1 $214 $88 $90 $149 forward $54 $-1 #
coedge $-1 $88 $214 $210 $215 forward $54 $-1 #
coedge $-1 $212 $91 $88 $146 forward $151 $-1 #
edge $-1 $153 -1.7620772766494106 $216 9.809567502403727 $145 $217 forward 7 unknown #
coedge $-1 $218 $219 $89 $148 forward $140 $-1 #
edge $-1 $220 -40.964224840800348 $152 -30.253829274446453 $147 $221 forward 7 unknown #
edge $-1 $153 -20.211372085959258 $220 -8.3790584163743152e-015 $90 $222 forward 7 unknown #
coedge $-1 $91 $212 $218 $223 forward $151 $-1 #
loop $-1 $-1 $212 $139 #
vertex $-1 $148 $224 #
vertex $-1 $92 $225 #
straight-curve $-1 -2.2616678362277476 -42.845695642064015 14.463091266911 0 1 0 I I #
coedge $-1 $155 $155 $-1 $226 reversed $95 $-1 #
edge $-1 $227 0 $227 6.2831853071796004 $96 $228 forward 7 unknown #
vertex $-1 $99 $229 #
ellipse-curve $-1 -8.0474902257543164 -23.581760750452201 9.1078934837340526 0 -0.52991927123019833 0.84804809178421925 2.5 0 0 1 I I #
face $-1 $-1 $115 $15 $-1 $230 reversed single #
loop $-1 $-1 $175 $100 #
plane-surface $-1 0 32.15186851537149 0 0 -1 0 0 0 -1 forward_v I I I I #
coedge $-1 $231 $173 $176 $232 forward $101 $-1 #
coedge $-1 $179 $103 $104 $167 reversed $63 $-1 #
coedge $-1 $173 $231 $103 $165 reversed $101 $-1 #
edge $-1 $180 -14.463091266910999 $233 14.463091266910999 $164 $234 forward 7 unknown #
coedge $-1 $105 $104 $231 $235 forward $41 $-1 #
edge $-1 $171 -50.516678365428632 $233 50.516678365428632 $163 $236 forward 7 unknown #
coedge $-1 $176 $175 $105 $169 reversed $160 $-1 #
edge $-1 $237 -50.516678365428632 $170 50.516678365428632 $168 $238 forward 7 unknown #
vertex $-1 $107 $239 #
vertex $-1 $182 $240 #
straight-curve $-1 50.516678365428632 0 -14.463091266910999 0 -1 0 I I #
coedge $-1 $162 $164 $108 $174 reversed $101 $-1 #
edge $-1 $177 -32.15186851537149 $180 32.15186851537149 $173 $241 forward 7 unknown #
coedge $-1 $168 $109 $114 $183 forward $160 $-1 #
coedge $-1 $109 $168 $162 $232 reversed $160 $-1 #
vertex $-1 $110 $242 #
straight-curve $-1 0 32.15186851537149 14.463091266910999 -1 0 0 I I #
coedge $-1 $111 $163 $113 $182 reversed $63 $-1 #
vertex $-1 $174 $243 #
straight-curve $-1 0 -32.15186851537149 14.463091266910999 1 0 0 I I #
edge $-1 $116 -14.463091266910999 $171 14.463091266910999 $113 $244 forward 7 unknown #
edge $-1 $117 -14.463091266910999 $170 14.463091266910999 $114 $245 forward 7 unknown #
point $-1 50.516678365428632 -32.15186851537149 14.463091266910999 #
point $-1 50.516678365428632 32.15186851537149 14.463091266910999 #
plane-surface $-1 0 0 14.463091266910999 0 0 1 1 0 0 forward_v I I I I #
coedge $-1 $197 $196 $189 $246 forward $120 $-1 #
coedge $-1 $189 $122 $124 $193 reversed $71 $-1 #
coedge $-1 $122 $188 $187 $246 reversed $71 $-1 #
coedge $-1 $130 $125 $122 $191 forward $131 $-1 #
edge $-1 $194 -0.56771191477321281 $247 16.572503615065393 $190 $248 forward 7 unknown #
coedge $-1 $124 $123 $197 $249 reversed $45 $-1 #
edge $-1 $250 -64.303737030742994 $194 -44.092364944783711 $188 $251 forward 7 unknown #
vertex $-1 $126 $252 #
straight-curve $-1 -4.0237451128771582 15.011652985532891 14.463091266910999 1 0 0 I I #
coedge $-1 $187 $127 $130 $201 reversed $120 $-1 #
coedge $-1 $127 $187 $192 $249 forward $120 $-1 #
vertex $-1 $128 $253 #
straight-curve $-1 -13.833312615280885 32.15186851537149 61.754815273712268 0 0 1 I I #
straight-curve $-1 -13.833312615280885 -22.380792968144341 37.828485165266727 0 0.84804809178421925 -0.52991927123019833 I I #
edge $-1 $247 2.2616678362277476 $132 13.833312615280885 $196 $254 forward 7 unknown #
point $-1 -13.833312615280885 32.15186851537149 14.463091266910999 #
point $-1 -13.833312615280885 15.011652985532884 14.463091266911 #
edge $-1 $255 1 $255 0 $135 $-1 forward 7 unknown #
vertex $-1 $136 $256 #
ellipse-curve $-1 -8.0474902257543164 21.759784216231964 6.1921215784509753 0 0.52991927123019833 0.84804809178421925 2.5 0 0 1 I I #
point $-1 -5.5474902257543164 23.58176075045219 9.1078934837340384 #
plane-surface $-1 0 0 14.463091266910999 0 0 1 1 0 0 forward_v I I I I #
coedge $-1 $219 $218 $211 $257 forward $140 $-1 #
coedge $-1 $211 $142 $144 $215 reversed $86 $-1 #
coedge $-1 $142 $210 $209 $257 reversed $86 $-1 #
coedge $-1 $150 $145 $142 $213 forward $151 $-1 #
edge $-1 $216 -27.8340426565311 $258 -10.693827126692526 $212 $259 forward 7 unknown #
coedge $-1 $144 $143 $219 $260 reversed $54 $-1 #
edge $-1 $261 8.3790584163743152e-015 $216 20.211372085959258 $210 $262 forward 7 unknown #
vertex $-1 $146 $263 #
straight-curve $-1 -4.0237451128771582 -15.011652985532917 14.463091266910999 -1 0 0 I I #
coedge $-1 $209 $147 $150 $223 reversed $140 $-1 #
coedge $-1 $147 $209 $214 $260 forward $140 $-1 #
vertex $-1 $148 $264 #
straight-curve $-1 -2.2616678362277476 -32.15186851537149 44.716920541357453 0 0 1 I I #
straight-curve $-1 -2.2616678362277476 -32.151868515371497 3.7526957005570978 0 -0.84804809178421925 -0.52991927123019833 I I #
edge $-1 $258 -13.833312615280885 $152 -2.2616678362277476 $218 $265 forward 7 unknown #
point $-1 -2.2616678362277476 -32.15186851537149 14.463091266910999 #
point $-1 -2.2616678362277476 -15.011652985532915 14.463091266911 #
edge $-1 $266 1 $266 0 $155 $-1 forward 7 unknown #
vertex $-1 $156 $267 #
ellipse-curve $-1 -8.0474902257543164 -21.759784216231971 6.1921215784509824 0 -0.52991927123019833 0.84804809178421925 2.5 0 0 1 I I #
point $-1 -5.5474902257543164 -23.581760750452197 9.1078934837340455 #
plane-surface $-1 50.516678365428632 0 0 -1 0 0 0 0 1 forward_v I I I I #
coedge $-1 $164 $162 $166 $235 reversed $101 $-1 #
edge $-1 $177 -14.463091266910999 $237 14.463091266910999 $176 $268 forward 7 unknown #
vertex $-1 $235 $269 #
straight-curve $-1 -50.516678365428632 -32.15186851537149 0 0 0 -1 I I #
edge $-1 $233 -32.15186851537149 $237 32.15186851537149 $231 $270 forward 7 unknown #
straight-curve $-1 0 -32.15186851537149 -14.463091266910999 -1 0 0 I I #
vertex $-1 $169 $271 #
straight-curve $-1 0 32.15186851537149 -14.463091266910999 1 0 0 I I #
point $-1 50.516678365428632 32.15186851537149 -14.463091266910999 #
point $-1 50.516678365428632 -32.15186851537149 -14.463091266910999 #
straight-curve $-1 -50.516678365428632 0 14.463091266910999 0 -1 0 I I #
point $-1 -50.516678365428632 32.15186851537149 14.463091266910999 #
point $-1 -50.516678365428632 -32.15186851537149 14.463091266910999 #
straight-curve $-1 50.516678365428632 -32.15186851537149 0 0 0 -1 I I #
straight-curve $-1 50.516678365428632 32.15186851537149 0 0 0 -1 I I #
edge $-1 $247 47.291724006801267 $250 58.002119573155184 $187 $272 forward 7 unknown #
vertex $-1 $201 $273 #
straight-curve $-1 -2.2616678362277476 15.579364900306096 14.463091266911 0 1 0 I I #
edge $-1 $250 -1.7620772766494106 $198 9.809567502403727 $197 $274 forward 7 unknown #
vertex $-1 $249 $275 #
straight-curve $-1 -2.2616678362277476 -22.380792968144341 37.828485165266727 0 -0.84804809178421925 0.52991927123019833 I I #
point $-1 -2.2616678362277476 15.011652985532884 14.463091266911 #
point $-1 -13.833312615280885 32.15186851537149 3.7526957005570836 #
straight-curve $-1 0 32.15186851537149 14.463091266910999 -1 0 0 I I #
vertex $-1 $204 $276 #
point $-1 -5.5474902257543164 21.759784216231964 6.1921215784509753 #
edge $-1 $258 30.253829274446453 $261 40.964224840800348 $209 $277 forward 7 unknown #
vertex $-1 $223 $278 #
straight-curve $-1 -13.833312615280885 -42.845695642064015 14.463091266911 0 -1 0 I I #
edge $-1 $261 -9.809567502403727 $220 1.7620772766494106 $219 $279 forward 7 unknown #
vertex $-1 $260 $280 #
straight-curve $-1 -13.833312615280885 -32.151868515371497 3.7526957005570978 0 0.84804809178421925 0.52991927123019833 I I #
point $-1 -13.833312615280885 -15.011652985532915 14.463091266911 #
point $-1 -2.2616678362277476 -32.15186851537149 3.7526957005571022 #
straight-curve $-1 0 -32.15186851537149 14.463091266910999 1 0 0 I I #
vertex $-1 $226 $281 #
point $-1 -5.5474902257543164 -21.759784216231971 6.1921215784509824 #
straight-curve $-1 -50.516678365428632 32.15186851537149 0 0 0 -1 I I #
point $-1 -50.516678365428632 -32.15186851537149 -14.463091266910999 #
straight-curve $-1 -50.516678365428632 0 -14.463091266910999 0 1 0 I I #
point $-1 -50.516678365428632 32.15186851537149 -14.463091266910999 #
straight-curve $-1 -2.2616678362277476 32.15186851537149 61.754815273712268 0 0 -1 I I #
point $-1 -2.2616678362277476 32.15186851537149 14.463091266910999 #
straight-curve $-1 -4.0237451128771582 32.151868515371497 3.75269570055708 -1 0 0 I I #
point $-1 -2.2616678362277476 32.15186851537149 3.7526957005570836 #
point $-1 -8.0474902257543164 20.434986038156467 4.072001348990427 #
straight-curve $-1 -13.833312615280885 -32.15186851537149 44.716920541357453 0 0 -1 I I #
point $-1 -13.833312615280885 -32.15186851537149 14.463091266910999 #
straight-curve $-1 -4.0237451128771582 -32.15186851537149 3.7526957005570987 1 0 0 I I #
point $-1 -13.833312615280885 -32.15186851537149 3.7526957005571022 #
point $-1 -8.0474902257543164 -20.434986038156474 4.0720013489904341 #
End-of-ACIS-data 