500 0 12 0           
7 Unknown 11 ACIS 5.0 NT 24 Fri Mar 26 20:27:22 1999 
-1 9.9999999999999995e-007 1e-010 
body $-1 $12 $-1 $13 #
body $-1 $14 $-1 $15 #
body $-1 $16 $-1 $17 #
body $-1 $18 $-1 $19 #
body $-1 $20 $-1 $21 #
body $-1 $22 $-1 $23 #
body $-1 $24 $-1 $25 #
body $-1 $26 $-1 $27 #
body $-1 $28 $-1 $29 #
body $-1 $30 $-1 $31 #
body $-1 $32 $-1 $33 #
body $-1 $34 $-1 $35 #
lump $-1 $-1 $36 $0 #
transform $-1 1 0 0 0 1 0 0 0 1 76.181524094363226 33.452261155410504 7.8420422632273397 1 rotate no_reflect no_shear #
lump $-1 $-1 $37 $1 #
transform $-1 1 0 0 0 1 0 0 0 1 76.181524094363226 33.452261155410504 7.8420422632273397 1 rotate no_reflect no_shear #
lump $-1 $-1 $38 $2 #
transform $-1 1 0 0 0 1 0 0 0 1 76.181524094363226 33.452261155410504 7.8420422632273397 1 rotate no_reflect no_shear #
lump $-1 $-1 $39 $3 #
transform $-1 1 0 0 0 1 0 0 0 1 76.181524094363226 33.452261155410504 7.8420422632273397 1 rotate no_reflect no_shear #
lump $-1 $-1 $40 $4 #
transform $-1 1 0 0 0 1 0 0 0 1 76.181524094363226 33.452261155410504 7.8420422632273397 1 rotate no_reflect no_shear #
lump $-1 $-1 $41 $5 #
transform $-1 1 0 0 0 1 0 0 0 1 76.181524094363226 33.452261155410504 7.8420422632273397 1 rotate no_reflect no_shear #
lump $-1 $-1 $42 $6 #
transform $-1 1 0 0 0 1 0 0 0 1 76.181524094363226 33.452261155410504 7.8420422632273397 1 rotate no_reflect no_shear #
lump $-1 $-1 $43 $7 #
transform $-1 1 0 0 0 1 0 0 0 1 76.181524094363226 33.452261155410504 7.8420422632273397 1 rotate no_reflect no_shear #
lump $-1 $-1 $44 $8 #
transform $-1 1 0 0 0 1 0 0 0 1 76.181524094363226 33.452261155410504 7.8420422632273397 1 rotate no_reflect no_shear #
lump $-1 $-1 $45 $9 #
transform $-1 1 0 0 0 1 0 0 0 1 76.181524094363226 33.452261155410504 7.8420422632273397 1 rotate no_reflect no_shear #
lump $-1 $-1 $46 $10 #
transform $-1 1 0 0 0 1 0 0 0 1 76.181524094363226 33.452261155410504 7.8420422632273397 1 rotate no_reflect no_shear #
lump $-1 $-1 $47 $11 #
transform $-1 1 0 0 0 1 0 0 0 1 76.181524094363226 33.452261155410504 7.8420422632273397 1 rotate no_reflect no_shear #
shell $-1 $-1 $-1 $48 $-1 $12 #
shell $-1 $-1 $-1 $49 $-1 $14 #
shell $-1 $-1 $-1 $50 $-1 $16 #
shell $-1 $-1 $-1 $51 $-1 $18 #
shell $-1 $-1 $-1 $52 $-1 $20 #
shell $-1 $-1 $-1 $53 $-1 $22 #
shell $-1 $-1 $-1 $54 $-1 $24 #
shell $-1 $-1 $-1 $55 $-1 $26 #
shell $-1 $-1 $-1 $56 $-1 $28 #
shell $-1 $-1 $-1 $57 $-1 $30 #
shell $-1 $-1 $-1 $58 $-1 $32 #
shell $-1 $-1 $-1 $59 $-1 $34 #
face $-1 $60 $61 $36 $-1 $62 reversed single #
face $-1 $63 $64 $37 $-1 $65 forward single #
face $-1 $66 $67 $38 $-1 $68 reversed single #
face $-1 $69 $70 $39 $-1 $71 forward single #
face $-1 $72 $73 $40 $-1 $74 forward single #
face $-1 $75 $76 $41 $-1 $77 forward single #
face $-1 $78 $79 $42 $-1 $80 reversed single #
face $-1 $81 $82 $43 $-1 $83 forward single #
face $-1 $84 $85 $44 $-1 $86 forward single #
face $-1 $87 $88 $45 $-1 $89 reversed single #
face $-1 $90 $91 $46 $-1 $92 forward single #
face $-1 $93 $94 $47 $-1 $95 forward single #
face $-1 $96 $97 $36 $-1 $98 forward single #
loop $-1 $-1 $99 $48 #
plane-surface $-1 0 -33.452261155410504 0 0 1 0 0 0 1 forward_v I I I I #
face $-1 $100 $101 $37 $-1 $102 forward single #
loop $-1 $-1 $103 $49 #
plane-surface $-1 0 -33.452261155410504 0 0 1 0 0 0 1 forward_v I I I I #
face $-1 $104 $105 $38 $-1 $106 reversed single #
loop $-1 $-1 $107 $50 #
plane-surface $-1 72.42098864836089 5.0940289917793713 217.10705202238168 0 -1 0 -0.69465837861970381 0 -0.71933979245794832 forward_v I I I I #
face $-1 $108 $109 $39 $-1 $110 forward single #
loop $-1 $111 $112 $51 #
cone-surface $-1 72.528235627328669 -2.3704127067003959 4.2822869970399999 -0.69465837861970381 0 -0.71933979245794832 0.35966989622897416 0 -0.3473291893098519 1 I I 0 1 0.5 forward I I I I #
face $-1 $113 $114 $40 $-1 $115 forward single #
loop $-1 $116 $117 $52 #
cone-surface $-1 72.528235627328669 0.42875293022951411 4.2822869970399999 -0.69465837861970381 0 -0.71933979245794832 0.35966989622897416 0 -0.3473291893098519 1 I I 0 1 0.5 forward I I I I #
face $-1 $118 $119 $41 $-1 $120 forward single #
loop $-1 $121 $122 $53 #
cone-surface $-1 72.528235627328669 3.2279185671594277 4.2822869970399999 -0.69465837861970381 0 -0.71933979245794832 0.35966989622897416 0 -0.3473291893098519 1 I I 0 1 0.5 forward I I I I #
face $-1 $123 $124 $42 $-1 $125 reversed single #
loop $-1 $-1 $126 $54 #
plane-surface $-1 -152.36304920936635 -24.837953270185757 132.41619458092552 0 1 0 -0.50000000669873634 0 0.8660253999169214 forward_v I I I I #
face $-1 $127 $128 $43 $-1 $129 forward single #
loop $-1 $130 $131 $55 #
cone-surface $-1 -69.315851867038518 -21.197788608206899 3.326466377030679 0.50000000669873634 0 -0.8660253999169214 0.8660253999169214 0 0.50000000669873634 1 I I 0 1 1 forward I I I I #
face $-1 $132 $133 $44 $-1 $134 forward single #
loop $-1 $135 $136 $56 #
cone-surface $-1 -69.315851867038518 -15.737541615238612 3.326466377030679 0.50000000669873634 0 -0.8660253999169214 0.8660253999169214 0 0.50000000669873634 1 I I 0 1 1 forward I I I I #
face $-1 $137 $138 $45 $-1 $139 reversed single #
loop $-1 $-1 $140 $57 #
plane-surface $-1 -152.36304920936635 17.442611754243195 132.41619458092552 0 1 0 -0.50000000669873634 0 0.8660253999169214 forward_v I I I I #
face $-1 $141 $142 $46 $-1 $143 forward single #
loop $-1 $144 $145 $58 #
cone-surface $-1 -69.315851867038518 21.082776416222053 3.326466377030679 0.50000000669873634 0 -0.8660253999169214 0.8660253999169214 0 0.50000000669873634 1 I I 0 1 1 forward I I I I #
face $-1 $146 $147 $47 $-1 $148 forward single #
loop $-1 $149 $150 $59 #
cone-surface $-1 -69.315851867038518 26.54302340919034 3.326466377030679 0.50000000669873634 0 -0.8660253999169214 0.8660253999169214 0 0.50000000669873634 1 I I 0 1 1 forward I I I I #
face $-1 $151 $152 $36 $-1 $153 reversed single #
loop $-1 $-1 $154 $60 #
plane-surface $-1 0 0 7.8420422632273397 0 0 1 1 0 0 forward_v I I I I #
coedge $-1 $155 $156 $157 $158 reversed $61 $-1 #
face $-1 $159 $160 $37 $-1 $161 reversed single #
loop $-1 $-1 $162 $63 #
plane-surface $-1 0 0 7.8420422632273397 0 0 1 1 0 0 forward_v I I I I #
coedge $-1 $163 $164 $165 $166 forward $64 $-1 #
face $-1 $167 $168 $38 $-1 $169 reversed single #
loop $-1 $-1 $170 $66 #
plane-surface $-1 -33.419279367975633 0.42875293022951411 107.50624856004282 0.69465837861970381 0 0.71933979245794832 0.71933979245794832 0 -0.69465837861970381 forward_v I I I I #
coedge $-1 $171 $172 $173 $174 reversed $67 $-1 #
face $-1 $-1 $175 $39 $-1 $176 forward single #
loop $-1 $177 $178 $69 #
cone-surface $-1 71.899032058242597 -2.3704127067003959 3.6307276424986714 -0.69465837861970381 0 -0.71933979245794832 0.17983494811448708 0 -0.17366459465492595 1 I I -0.70710678118654746 0.70710678118654746 0.25 forward I I I I #
loop $-1 $-1 $179 $51 #
coedge $-1 $112 $112 $180 $181 reversed $70 $-1 #
face $-1 $-1 $182 $40 $-1 $183 forward single #
loop $-1 $184 $185 $72 #
cone-surface $-1 71.899032058242597 0.42875293022951411 3.6307276424986714 -0.69465837861970381 0 -0.71933979245794832 0.17983494811448708 0 -0.17366459465492595 1 I I -0.70710678118654746 0.70710678118654746 0.25 forward I I I I #
loop $-1 $-1 $186 $52 #
coedge $-1 $117 $117 $187 $188 reversed $73 $-1 #
face $-1 $-1 $189 $41 $-1 $190 forward single #
loop $-1 $191 $192 $75 #
cone-surface $-1 71.899032058242597 3.2279185671594277 3.6307276424986714 -0.69465837861970381 0 -0.71933979245794832 0.17983494811448708 0 -0.17366459465492595 1 I I -0.70710678118654746 0.70710678118654746 0.25 forward I I I I #
loop $-1 $-1 $193 $53 #
coedge $-1 $122 $122 $194 $195 reversed $76 $-1 #
face $-1 $196 $197 $42 $-1 $198 reversed single #
loop $-1 $-1 $199 $78 #
plane-surface $-1 -76.18152409436324 -18.467665111722752 0.46592484072252205 -0.50000000669873634 0 0.8660253999169214 0.8660253999169214 0 0.50000000669873634 forward_v I I I I #
coedge $-1 $200 $201 $202 $203 reversed $79 $-1 #
face $-1 $-1 $204 $43 $-1 $205 forward single #
loop $-1 $206 $207 $81 #
cone-surface $-1 -68.588084591441543 -21.197788608206899 2.0659365021279505 0.50000000669873634 0 -0.8660253999169214 0.4330126999584607 0 0.25000000334936817 1 I I -0.70710678118654746 0.70710678118654746 0.5 forward I I I I #
loop $-1 $-1 $208 $55 #
coedge $-1 $131 $131 $209 $210 reversed $82 $-1 #
face $-1 $-1 $211 $44 $-1 $212 forward single #
loop $-1 $213 $214 $84 #
cone-surface $-1 -68.588084591441543 -15.737541615238612 2.0659365021279505 0.50000000669873634 0 -0.8660253999169214 0.4330126999584607 0 0.25000000334936817 1 I I -0.70710678118654746 0.70710678118654746 0.5 forward I I I I #
loop $-1 $-1 $215 $56 #
coedge $-1 $136 $136 $216 $217 reversed $85 $-1 #
face $-1 $218 $219 $45 $-1 $220 reversed single #
loop $-1 $-1 $221 $87 #
plane-surface $-1 -76.18152409436324 23.8128999127062 0.46592484072252205 -0.50000000669873634 0 0.8660253999169214 0.8660253999169214 0 0.50000000669873634 forward_v I I I I #
coedge $-1 $222 $223 $224 $225 reversed $88 $-1 #
face $-1 $-1 $226 $46 $-1 $227 forward single #
loop $-1 $228 $229 $90 #
cone-surface $-1 -68.588084591441543 21.082776416222053 2.0659365021279505 0.50000000669873634 0 -0.8660253999169214 0.4330126999584607 0 0.25000000334936817 1 I I -0.70710678118654746 0.70710678118654746 0.5 forward I I I I #
loop $-1 $-1 $230 $58 #
coedge $-1 $145 $145 $231 $232 reversed $91 $-1 #
face $-1 $-1 $233 $47 $-1 $234 forward single #
loop $-1 $235 $236 $93 #
cone-surface $-1 -68.588084591441543 26.54302340919034 2.0659365021279505 0.50000000669873634 0 -0.8660253999169214 0.4330126999584607 0 0.25000000334936817 1 I I -0.70710678118654746 0.70710678118654746 0.5 forward I I I I #
loop $-1 $-1 $237 $59 #
coedge $-1 $150 $150 $238 $239 reversed $94 $-1 #
face $-1 $240 $241 $36 $-1 $242 reversed single #
loop $-1 $-1 $243 $96 #
plane-surface $-1 0 0 -7.8420422632273397 0 0 1 1 0 0 forward_v I I I I #
coedge $-1 $244 $245 $246 $247 forward $97 $-1 #
coedge $-1 $248 $99 $249 $250 reversed $61 $-1 #
coedge $-1 $99 $248 $251 $252 forward $61 $-1 #
coedge $-1 $253 $243 $99 $158 forward $152 $-1 #
edge $-1 $254 -76.181524094363226 $255 76.181524094363226 $99 $256 forward 7 unknown #
face $-1 $257 $258 $37 $-1 $259 reversed single #
loop $-1 $-1 $260 $100 #
plane-surface $-1 -76.181524094363226 0 0 1 0 0 0 0 -1 forward_v I I I I #
coedge $-1 $261 $262 $164 $263 forward $101 $-1 #
coedge $-1 $264 $103 $265 $266 reversed $64 $-1 #
coedge $-1 $103 $264 $162 $263 reversed $64 $-1 #
coedge $-1 $267 $268 $103 $166 reversed $269 $-1 #
edge $-1 $270 -7.8420422632273397 $271 7.8420422632273397 $165 $272 forward 7 unknown #
face $-1 $273 $274 $38 $-1 $275 forward single #
loop $-1 $-1 $276 $104 #
plane-surface $-1 72.42098864836089 -4.2365231313203431 217.10705202238168 0 1 0 0.69465837861970381 0 0.71933979245794832 forward_v I I I I #
coedge $-1 $277 $278 $279 $280 reversed $105 $-1 #
coedge $-1 $172 $107 $281 $282 reversed $67 $-1 #
coedge $-1 $107 $171 $277 $283 reversed $67 $-1 #
coedge $-1 $279 $284 $107 $174 forward $274 $-1 #
edge $-1 $285 -39.971029770182781 $286 -33.575530784975953 $173 $287 forward 7 unknown #
loop $-1 $-1 $180 $108 #
plane-surface $-1 -33.419279367975633 0.42875293022951411 107.50624856004282 0.69465837861970381 0 0.71933979245794832 0.71933979245794832 0 -0.69465837861970381 forward_v I I I I #
loop $-1 $-1 $288 $69 #
coedge $-1 $178 $178 $179 $289 reversed $109 $-1 #
coedge $-1 $179 $179 $178 $289 forward $111 $-1 #
coedge $-1 $180 $180 $112 $181 forward $175 $-1 #
edge $-1 $290 0 $290 6.2831853071796004 $180 $291 forward 7 unknown #
loop $-1 $-1 $187 $113 #
plane-surface $-1 -33.419279367975633 0.42875293022951411 107.50624856004282 0.69465837861970381 0 0.71933979245794832 0.71933979245794832 0 -0.69465837861970381 forward_v I I I I #
loop $-1 $-1 $292 $72 #
coedge $-1 $185 $185 $186 $293 reversed $114 $-1 #
coedge $-1 $186 $186 $185 $293 forward $116 $-1 #
coedge $-1 $187 $187 $117 $188 forward $182 $-1 #
edge $-1 $294 0 $294 6.2831853071796004 $187 $295 forward 7 unknown #
loop $-1 $-1 $194 $118 #
plane-surface $-1 -33.419279367975633 0.42875293022951411 107.50624856004282 0.69465837861970381 0 0.71933979245794832 0.71933979245794832 0 -0.69465837861970381 forward_v I I I I #
loop $-1 $-1 $296 $75 #
coedge $-1 $192 $192 $193 $297 reversed $119 $-1 #
coedge $-1 $193 $193 $192 $297 forward $121 $-1 #
coedge $-1 $194 $194 $122 $195 forward $189 $-1 #
edge $-1 $298 0 $298 6.2831853071796004 $194 $299 forward 7 unknown #
face $-1 $300 $301 $42 $-1 $302 reversed single #
loop $-1 $-1 $303 $123 #
plane-surface $-1 -152.36304920936635 -12.097376953259749 132.41619458092552 0 -1 0 0.50000000669873634 0 -0.8660253999169214 forward_v I I I I #
coedge $-1 $304 $305 $306 $307 reversed $124 $-1 #
coedge $-1 $201 $126 $308 $309 reversed $79 $-1 #
coedge $-1 $126 $200 $304 $310 reversed $79 $-1 #
coedge $-1 $306 $311 $126 $203 forward $312 $-1 #
edge $-1 $313 5.1031994985351048e-007 $314 12.775810420474187 $202 $315 forward 7 unknown #
loop $-1 $-1 $209 $127 #
plane-surface $-1 -76.18152409436324 -18.467665111722752 0.46592484072252205 -0.50000000669873634 0 0.8660253999169214 0.8660253999169214 0 0.50000000669873634 forward_v I I I I #
loop $-1 $-1 $316 $81 #
coedge $-1 $207 $207 $208 $317 reversed $128 $-1 #
coedge $-1 $208 $208 $207 $317 forward $130 $-1 #
coedge $-1 $209 $209 $131 $210 forward $204 $-1 #
edge $-1 $318 0 $318 6.2831853071796004 $209 $319 forward 7 unknown #
loop $-1 $-1 $216 $132 #
plane-surface $-1 -76.18152409436324 -18.467665111722752 0.46592484072252205 -0.50000000669873634 0 0.8660253999169214 0.8660253999169214 0 0.50000000669873634 forward_v I I I I #
loop $-1 $-1 $320 $84 #
coedge $-1 $214 $214 $215 $321 reversed $133 $-1 #
coedge $-1 $215 $215 $214 $321 forward $135 $-1 #
coedge $-1 $216 $216 $136 $217 forward $211 $-1 #
edge $-1 $322 0 $322 6.2831853071796004 $216 $323 forward 7 unknown #
face $-1 $324 $325 $45 $-1 $326 forward single #
loop $-1 $-1 $327 $137 #
plane-surface $-1 -152.36304920936635 30.183188071169205 132.41619458092552 0 -1 0 0.50000000669873634 0 -0.8660253999169214 forward_v I I I I #
coedge $-1 $328 $329 $330 $331 reversed $138 $-1 #
coedge $-1 $223 $140 $332 $333 reversed $88 $-1 #
coedge $-1 $140 $222 $328 $334 reversed $88 $-1 #
coedge $-1 $330 $335 $140 $225 forward $325 $-1 #
edge $-1 $336 5.1031994985351048e-007 $337 12.775810420474187 $224 $338 forward 7 unknown #
loop $-1 $-1 $231 $141 #
plane-surface $-1 -76.18152409436324 23.8128999127062 0.46592484072252205 -0.50000000669873634 0 0.8660253999169214 0.8660253999169214 0 0.50000000669873634 forward_v I I I I #
loop $-1 $-1 $339 $90 #
coedge $-1 $229 $229 $230 $340 reversed $142 $-1 #
coedge $-1 $230 $230 $229 $340 forward $144 $-1 #
coedge $-1 $231 $231 $145 $232 forward $226 $-1 #
edge $-1 $341 0 $341 6.2831853071796004 $231 $342 forward 7 unknown #
loop $-1 $-1 $238 $146 #
plane-surface $-1 -76.18152409436324 23.8128999127062 0.46592484072252205 -0.50000000669873634 0 0.8660253999169214 0.8660253999169214 0 0.50000000669873634 forward_v I I I I #
loop $-1 $-1 $343 $93 #
coedge $-1 $236 $236 $237 $344 reversed $147 $-1 #
coedge $-1 $237 $237 $236 $344 forward $149 $-1 #
coedge $-1 $238 $238 $150 $239 forward $233 $-1 #
edge $-1 $345 0 $345 6.2831853071796004 $238 $346 forward 7 unknown #
face $-1 $347 $348 $36 $-1 $349 reversed single #
loop $-1 $-1 $350 $151 #
plane-surface $-1 -76.181524094363226 0 0 1 0 0 0 0 -1 forward_v I I I I #
coedge $-1 $157 $351 $352 $353 forward $152 $-1 #
coedge $-1 $354 $154 $355 $356 forward $97 $-1 #
coedge $-1 $154 $354 $248 $357 forward $97 $-1 #
coedge $-1 $249 $358 $154 $247 reversed $359 $-1 #
edge $-1 $360 -33.452261155410504 $361 33.452261155410504 $246 $362 forward 7 unknown #
coedge $-1 $156 $155 $245 $357 reversed $61 $-1 #
coedge $-1 $352 $246 $155 $250 forward $359 $-1 #
edge $-1 $360 -7.8420422632273397 $254 7.8420422632273397 $249 $363 forward 7 unknown #
coedge $-1 $364 $365 $156 $252 reversed $241 $-1 #
edge $-1 $366 -7.8420422632273397 $255 7.8420422632273397 $251 $367 forward 7 unknown #
coedge $-1 $351 $157 $365 $368 forward $152 $-1 #
vertex $-1 $250 $369 #
vertex $-1 $368 $370 #
straight-curve $-1 0 -33.452261155410504 -7.8420422632273397 -1 0 0 I I #
face $-1 $371 $269 $37 $-1 $372 reversed single #
loop $-1 $-1 $373 $159 #
plane-surface $-1 -74.681524094363226 -38.797495956393952 0 0 1 0 0 0 1 forward_v I I I I #
coedge $-1 $374 $375 $264 $376 forward $160 $-1 #
coedge $-1 $377 $162 $375 $378 forward $101 $-1 #
coedge $-1 $162 $377 $267 $379 forward $101 $-1 #
edge $-1 $270 73.181524094363226 $380 76.181524094363226 $162 $381 forward 7 unknown #
coedge $-1 $164 $163 $260 $376 reversed $64 $-1 #
coedge $-1 $382 $383 $163 $266 forward $384 $-1 #
edge $-1 $385 -76.181524094363226 $271 -73.181524094363226 $265 $386 forward 7 unknown #
coedge $-1 $387 $165 $262 $379 reversed $269 $-1 #
coedge $-1 $165 $387 $382 $388 reversed $269 $-1 #
loop $-1 $-1 $387 $257 #
vertex $-1 $263 $389 #
vertex $-1 $388 $390 #
straight-curve $-1 -73.181524094363226 -33.452261155410504 0 0 0 -1 I I #
face $-1 $-1 $391 $38 $-1 $392 reversed single #
loop $-1 $-1 $173 $167 #
plane-surface $-1 0 0 7.8420422632273397 0 0 1 1 0 0 forward_v I I I I #
coedge $-1 $393 $394 $395 $396 reversed $168 $-1 #
coedge $-1 $397 $170 $172 $283 forward $105 $-1 #
coedge $-1 $170 $397 $393 $398 forward $105 $-1 #
coedge $-1 $395 $173 $170 $280 forward $274 $-1 #
edge $-1 $286 -4.8796525266646142 $399 4.4508995964351001 $279 $400 forward 7 unknown #
coedge $-1 $401 $402 $171 $282 forward $391 $-1 #
edge $-1 $403 -106.88754546748454 $285 -100.7114837479635 $281 $404 forward 7 unknown #
edge $-1 $286 143.47225825570501 $403 152.36304818872645 $172 $405 forward 7 unknown #
coedge $-1 $173 $395 $401 $406 forward $274 $-1 #
vertex $-1 $282 $407 #
vertex $-1 $174 $408 #
straight-curve $-1 36.210494324180445 5.0940289917793713 7.8420422632273414 -1 0 0 I I #
coedge $-1 $288 $288 $-1 $409 reversed $177 $-1 #
edge $-1 $410 0 $410 6.2831853071796004 $178 $411 forward 7 unknown #
vertex $-1 $181 $412 #
ellipse-curve $-1 72.983774601759819 -2.3704127067003959 4.7540114034668317 0.69465837861970381 0 0.71933979245794832 0.35966989622897416 0 -0.3473291893098519 1 I I #
coedge $-1 $292 $292 $-1 $413 reversed $184 $-1 #
edge $-1 $414 0 $414 6.2831853071796004 $185 $415 forward 7 unknown #
vertex $-1 $188 $416 #
ellipse-curve $-1 72.983774601759819 0.42875293022951411 4.7540114034668317 0.69465837861970381 0 0.71933979245794832 0.35966989622897416 0 -0.3473291893098519 1 I I #
coedge $-1 $296 $296 $-1 $417 reversed $191 $-1 #
edge $-1 $418 0 $418 6.2831853071796004 $192 $419 forward 7 unknown #
vertex $-1 $195 $420 #
ellipse-curve $-1 72.983774601759819 3.2279185671594277 4.7540114034668317 0.69465837861970381 0 0.71933979245794832 0.35966989622897416 0 -0.3473291893098519 1 I I #
face $-1 $-1 $312 $42 $-1 $421 forward single #
loop $-1 $-1 $422 $196 #
plane-surface $-1 -76.181524094363226 0 0 1 0 0 0 0 -1 forward_v I I I I #
coedge $-1 $423 $424 $425 $426 reversed $197 $-1 #
coedge $-1 $427 $199 $201 $310 forward $124 $-1 #
coedge $-1 $199 $427 $423 $428 forward $124 $-1 #
coedge $-1 $425 $202 $199 $307 forward $312 $-1 #
edge $-1 $314 -15.604120714324381 $429 -2.863544397398373 $306 $430 forward 7 unknown #
coedge $-1 $431 $432 $200 $309 forward $301 $-1 #
edge $-1 $433 -65.742172449740224 $313 -58.366055027235419 $308 $434 forward 7 unknown #
edge $-1 $314 -14.752234647366979 $433 -1.641478638404164e-014 $201 $435 forward 7 unknown #
coedge $-1 $202 $425 $431 $436 forward $312 $-1 #
loop $-1 $-1 $425 $300 #
vertex $-1 $309 $437 #
vertex $-1 $203 $438 #
straight-curve $-1 -76.181524604683176 -24.837953270185757 7.8420422632273414 1 0 0 I I #
coedge $-1 $316 $316 $-1 $439 reversed $206 $-1 #
edge $-1 $440 0 $440 6.2831853071796004 $207 $441 forward 7 unknown #
vertex $-1 $210 $442 #
ellipse-curve $-1 -69.793619139286122 -21.197788608206899 4.15398355197493 -0.50000000669873634 0 0.8660253999169214 0.8660253999169214 0 0.50000000669873634 1 I I #
coedge $-1 $320 $320 $-1 $443 reversed $213 $-1 #
edge $-1 $444 0 $444 6.2831853071796004 $214 $445 forward 7 unknown #
vertex $-1 $217 $446 #
ellipse-curve $-1 -69.793619139286122 -15.737541615238612 4.15398355197493 -0.50000000669873634 0 0.8660253999169214 0.8660253999169214 0 0.50000000669873634 1 I I #
face $-1 $-1 $447 $45 $-1 $448 reversed single #
loop $-1 $-1 $224 $218 #
plane-surface $-1 0 0 7.8420422632273397 0 0 1 1 0 0 forward_v I I I I #
coedge $-1 $449 $450 $451 $452 reversed $219 $-1 #
coedge $-1 $453 $221 $223 $334 forward $138 $-1 #
coedge $-1 $221 $453 $449 $454 forward $138 $-1 #
coedge $-1 $451 $224 $221 $331 forward $325 $-1 #
edge $-1 $337 5.5361617978900952 $455 18.276738114816105 $330 $456 forward 7 unknown #
coedge $-1 $457 $458 $222 $333 forward $447 $-1 #
edge $-1 $459 -65.742172449740224 $336 -58.366055027235419 $332 $460 forward 7 unknown #
edge $-1 $337 -14.752234647366979 $459 -1.641478638404164e-014 $223 $461 forward 7 unknown #
coedge $-1 $224 $451 $457 $462 forward $325 $-1 #
vertex $-1 $333 $463 #
vertex $-1 $225 $464 #
straight-curve $-1 -76.181524604683176 17.442611754243195 7.8420422632273414 1 0 0 I I #
coedge $-1 $339 $339 $-1 $465 reversed $228 $-1 #
edge $-1 $466 0 $466 6.2831853071796004 $229 $467 forward 7 unknown #
vertex $-1 $232 $468 #
ellipse-curve $-1 -69.793619139286122 21.082776416222053 4.15398355197493 -0.50000000669873634 0 0.8660253999169214 0.8660253999169214 0 0.50000000669873634 1 I I #
coedge $-1 $343 $343 $-1 $469 reversed $235 $-1 #
edge $-1 $470 0 $470 6.2831853071796004 $236 $471 forward 7 unknown #
vertex $-1 $239 $472 #
ellipse-curve $-1 -69.793619139286122 26.54302340919034 4.15398355197493 -0.50000000669873634 0 0.8660253999169214 0.8660253999169214 0 0.50000000669873634 1 I I #
face $-1 $-1 $359 $36 $-1 $473 reversed single #
loop $-1 $-1 $474 $240 #
plane-surface $-1 0 33.452261155410504 0 0 -1 0 0 0 -1 forward_v I I I I #
coedge $-1 $365 $364 $475 $476 forward $241 $-1 #
coedge $-1 $243 $253 $477 $478 forward $152 $-1 #
coedge $-1 $358 $249 $243 $353 reversed $359 $-1 #
edge $-1 $479 -33.452261155410504 $254 33.452261155410504 $352 $480 forward 7 unknown #
coedge $-1 $245 $244 $364 $481 forward $97 $-1 #
coedge $-1 $474 $475 $244 $356 reversed $348 $-1 #
edge $-1 $361 -76.181524094363226 $482 76.181524094363226 $355 $483 forward 7 unknown #
edge $-1 $366 -76.181524094363226 $360 76.181524094363226 $248 $484 forward 7 unknown #
coedge $-1 $246 $352 $474 $485 reversed $359 $-1 #
loop $-1 $-1 $249 $347 #
vertex $-1 $247 $486 #
vertex $-1 $247 $487 #
straight-curve $-1 76.181524094363226 0 7.8420422632273397 0 1 0 I I #
straight-curve $-1 76.181524094363226 -33.452261155410504 0 0 0 -1 I I #
coedge $-1 $350 $251 $354 $481 reversed $241 $-1 #
coedge $-1 $251 $350 $253 $368 reversed $241 $-1 #
vertex $-1 $481 $488 #
straight-curve $-1 -76.181524094363226 -33.452261155410504 0 0 0 -1 I I #
edge $-1 $255 -33.452261155410504 $489 33.452261155410504 $365 $490 forward 7 unknown #
point $-1 76.181524094363226 -33.452261155410504 -7.8420422632273397 #
point $-1 -76.181524094363226 -33.452261155410504 -7.8420422632273397 #
face $-1 $-1 $384 $37 $-1 $491 reversed single #
plane-surface $-1 -73.181524094363226 -36.124878555902228 0 -1 0 0 0 0 1 forward_v I I I I #
coedge $-1 $492 $493 $494 $495 forward $258 $-1 #
coedge $-1 $494 $260 $383 $496 reversed $160 $-1 #
coedge $-1 $260 $494 $261 $378 reversed $160 $-1 #
edge $-1 $380 -7.8420422632273397 $385 7.8420422632273397 $260 $497 forward 7 unknown #
coedge $-1 $262 $261 $493 $498 forward $101 $-1 #
edge $-1 $380 33.452261155410504 $499 38.797495956393952 $375 $500 forward 7 unknown #
edge $-1 $501 -2.672617400491724 $270 2.672617400491724 $267 $502 forward 7 unknown #
vertex $-1 $378 $503 #
straight-curve $-1 0 -33.452261155410504 7.8420422632273397 -1 0 0 I I #
coedge $-1 $504 $265 $268 $388 forward $384 $-1 #
coedge $-1 $265 $504 $374 $496 forward $384 $-1 #
loop $-1 $-1 $265 $371 #
vertex $-1 $376 $505 #
straight-curve $-1 0 -33.452261155410504 -7.8420422632273397 1 0 0 I I #
coedge $-1 $268 $267 $506 $507 forward $269 $-1 #
edge $-1 $271 -2.672617400491724 $508 2.672617400491724 $268 $509 forward 7 unknown #
point $-1 -73.181524094363226 -33.452261155410504 7.8420422632273397 #
point $-1 -73.181524094363226 -33.452261155410504 -7.8420422632273397 #
loop $-1 $-1 $281 $273 #
plane-surface $-1 76.181524094363226 0 0 -1 0 0 0 0 1 forward_v I I I I #
coedge $-1 $394 $276 $278 $398 reversed $168 $-1 #
coedge $-1 $276 $393 $510 $511 reversed $168 $-1 #
coedge $-1 $284 $279 $276 $396 forward $274 $-1 #
edge $-1 $399 33.575530784975953 $512 39.971029770182781 $395 $513 forward 7 unknown #
coedge $-1 $278 $277 $402 $514 reversed $105 $-1 #
edge $-1 $515 -152.36304818872645 $399 -143.47225825570501 $393 $516 forward 7 unknown #
vertex $-1 $280 $517 #
straight-curve $-1 69.786025109156384 0.21437646511475705 7.8420422632273556 0 -1 0 I I #
coedge $-1 $510 $281 $284 $406 reversed $391 $-1 #
coedge $-1 $281 $510 $397 $514 forward $391 $-1 #
vertex $-1 $282 $518 #
straight-curve $-1 76.181524094363226 5.0940289917793713 108.55352601119084 0 0 1 I I #
straight-curve $-1 -33.419279367975633 5.0940289917793713 107.50624856004282 0.71933979245794832 0 -0.69465837861970381 I I #
edge $-1 $512 -4.2365231313203431 $285 5.0940289917793713 $401 $519 forward 7 unknown #
point $-1 76.181524094363226 5.0940289917793713 7.8420422632273397 #
point $-1 69.786025109156398 5.0940289917793713 7.8420422632273414 #
edge $-1 $520 1 $520 0 $288 $-1 forward 7 unknown #
vertex $-1 $289 $521 #
ellipse-curve $-1 72.07269665289752 -2.3704127067003959 3.8105625906131584 0.69465837861970381 0 0.71933979245794832 0.35966989622897416 0 -0.3473291893098519 1 I I #
point $-1 73.343444497988799 -2.3704127067003959 4.4066822141569881 #
edge $-1 $522 1 $522 0 $292 $-1 forward 7 unknown #
vertex $-1 $293 $523 #
ellipse-curve $-1 72.07269665289752 0.42875293022951411 3.8105625906131584 0.69465837861970381 0 0.71933979245794832 0.35966989622897416 0 -0.3473291893098519 1 I I #
point $-1 73.343444497988799 0.42875293022951411 4.4066822141569881 #
edge $-1 $524 1 $524 0 $296 $-1 forward 7 unknown #
vertex $-1 $297 $525 #
ellipse-curve $-1 72.07269665289752 3.2279185671594277 3.8105625906131584 0.69465837861970381 0 0.71933979245794832 0.35966989622897416 0 -0.3473291893098519 1 I I #
point $-1 73.343444497988799 3.2279185671594277 4.4066822141569881 #
plane-surface $-1 0 0 7.8420422632273397 0 0 1 1 0 0 forward_v I I I I #
coedge $-1 $432 $431 $424 $526 forward $301 $-1 #
coedge $-1 $424 $303 $305 $428 reversed $197 $-1 #
coedge $-1 $303 $423 $422 $526 reversed $197 $-1 #
coedge $-1 $311 $306 $303 $426 forward $312 $-1 #
edge $-1 $429 -12.775810420474187 $527 -5.1031994985351048e-007 $425 $528 forward 7 unknown #
coedge $-1 $305 $304 $432 $529 reversed $124 $-1 #
edge $-1 $530 1.641478638404164e-014 $429 14.752234647366979 $423 $531 forward 7 unknown #
vertex $-1 $307 $532 #
straight-curve $-1 -63.405714184208989 -9.2338325558613761 7.8420422632273414 0 1 0 I I #
coedge $-1 $422 $308 $311 $436 reversed $301 $-1 #
coedge $-1 $308 $422 $427 $529 forward $301 $-1 #
vertex $-1 $309 $533 #
straight-curve $-1 -76.181524094363226 -24.837953270185757 66.20809729046276 0 0 1 I I #
straight-curve $-1 -76.18152409436324 -24.837953270185757 0.46592484072252205 -0.8660253999169214 0 -0.50000000669873634 I I #
edge $-1 $527 12.097376953259749 $313 24.837953270185757 $431 $534 forward 7 unknown #
point $-1 -76.181524094363226 -24.837953270185757 7.8420422632273397 #
point $-1 -63.405714184208989 -24.837953270185757 7.8420422632273397 #
edge $-1 $535 1 $535 0 $316 $-1 forward 7 unknown #
vertex $-1 $317 $536 #
ellipse-curve $-1 -68.838084594790914 -21.197788608206899 2.4989492020864112 -0.50000000669873634 0 0.8660253999169214 0.8660253999169214 0 0.50000000669873634 1 I I #
point $-1 -68.927593739369215 -21.197788608206899 4.6539835586736826 #
edge $-1 $537 1 $537 0 $320 $-1 forward 7 unknown #
vertex $-1 $321 $538 #
ellipse-curve $-1 -68.838084594790914 -15.737541615238612 2.4989492020864112 -0.50000000669873634 0 0.8660253999169214 0.8660253999169214 0 0.50000000669873634 1 I I #
point $-1 -68.927593739369215 -15.737541615238612 4.6539835586736826 #
loop $-1 $-1 $332 $324 #
plane-surface $-1 -76.181524094363226 0 0 1 0 0 0 0 -1 forward_v I I I I #
coedge $-1 $450 $327 $329 $454 reversed $219 $-1 #
coedge $-1 $327 $449 $539 $540 reversed $219 $-1 #
coedge $-1 $335 $330 $327 $452 forward $325 $-1 #
edge $-1 $455 -12.775810420474187 $541 -5.1031994985351048e-007 $451 $542 forward 7 unknown #
coedge $-1 $329 $328 $458 $543 reversed $138 $-1 #
edge $-1 $544 1.641478638404164e-014 $455 14.752234647366979 $449 $545 forward 7 unknown #
vertex $-1 $331 $546 #
straight-curve $-1 -63.405714184208989 11.9064499563531 7.8420422632273414 0 1 0 I I #
coedge $-1 $539 $332 $335 $462 reversed $447 $-1 #
coedge $-1 $332 $539 $453 $543 forward $447 $-1 #
vertex $-1 $333 $547 #
straight-curve $-1 -76.181524094363226 17.442611754243195 66.20809729046276 0 0 1 I I #
straight-curve $-1 -76.18152409436324 17.442611754243195 0.46592484072252205 -0.8660253999169214 0 -0.50000000669873634 I I #
edge $-1 $541 -30.183188071169205 $336 -17.442611754243195 $457 $548 forward 7 unknown #
point $-1 -76.181524094363226 17.442611754243195 7.8420422632273397 #
point $-1 -63.405714184208989 17.442611754243195 7.8420422632273397 #
edge $-1 $549 1 $549 0 $339 $-1 forward 7 unknown #
vertex $-1 $340 $550 #
ellipse-curve $-1 -68.838084594790914 21.082776416222053 2.4989492020864112 -0.50000000669873634 0 0.8660253999169214 0.8660253999169214 0 0.50000000669873634 1 I I #
point $-1 -68.927593739369215 21.082776416222053 4.6539835586736826 #
edge $-1 $551 1 $551 0 $343 $-1 forward 7 unknown #
vertex $-1 $344 $552 #
ellipse-curve $-1 -68.838084594790914 26.54302340919034 2.4989492020864112 -0.50000000669873634 0 0.8660253999169214 0.8660253999169214 0 0.50000000669873634 1 I I #
point $-1 -68.927593739369215 26.54302340919034 4.6539835586736826 #
plane-surface $-1 76.181524094363226 0 0 -1 0 0 0 0 1 forward_v I I I I #
coedge $-1 $477 $355 $358 $485 forward $348 $-1 #
coedge $-1 $355 $477 $350 $476 reversed $348 $-1 #
edge $-1 $482 -7.8420422632273397 $489 7.8420422632273397 $475 $553 forward 7 unknown #
coedge $-1 $475 $474 $351 $478 reversed $348 $-1 #
edge $-1 $489 -76.181524094363226 $479 76.181524094363226 $477 $554 forward 7 unknown #
vertex $-1 $353 $555 #
straight-curve $-1 76.181524094363226 0 -7.8420422632273397 0 -1 0 I I #
edge $-1 $482 -33.452261155410504 $366 33.452261155410504 $364 $556 forward 7 unknown #
vertex $-1 $356 $557 #
straight-curve $-1 0 33.452261155410504 7.8420422632273397 -1 0 0 I I #
straight-curve $-1 0 -33.452261155410504 7.8420422632273397 1 0 0 I I #
edge $-1 $361 -7.8420422632273397 $479 7.8420422632273397 $358 $558 forward 7 unknown #
point $-1 76.181524094363226 -33.452261155410504 7.8420422632273397 #
point $-1 76.181524094363226 33.452261155410504 7.8420422632273397 #
point $-1 -76.181524094363226 -33.452261155410504 7.8420422632273397 #
vertex $-1 $478 $559 #
straight-curve $-1 -76.181524094363226 0 -7.8420422632273397 0 1 0 I I #
plane-surface $-1 0 0 -7.8420422632273397 0 0 1 1 0 0 forward_v I I I I #
coedge $-1 $506 $373 $504 $560 reversed $258 $-1 #
coedge $-1 $373 $506 $377 $498 reversed $258 $-1 #
coedge $-1 $375 $374 $373 $495 reversed $160 $-1 #
edge $-1 $499 -7.8420422632273397 $561 7.8420422632273397 $494 $562 forward 7 unknown #
edge $-1 $561 -38.797495956393952 $385 -33.452261155410504 $374 $563 forward 7 unknown #
straight-curve $-1 -76.181524094363226 -33.452261155410504 0 0 0 -1 I I #
edge $-1 $499 -1.5 $501 1.5 $493 $564 forward 7 unknown #
vertex $-1 $378 $565 #
straight-curve $-1 -76.181524094363226 0 7.8420422632273397 0 -1 0 I I #
vertex $-1 $379 $566 #
straight-curve $-1 -73.181524094363226 -36.124878555902228 7.8420422632273397 0 1 0 I I #
point $-1 -76.181524094363226 -33.452261155410504 7.8420422632273397 #
coedge $-1 $383 $382 $492 $560 forward $384 $-1 #
point $-1 -76.181524094363226 -33.452261155410504 -7.8420422632273397 #
coedge $-1 $493 $492 $387 $507 reversed $258 $-1 #
edge $-1 $501 -7.8420422632273397 $508 7.8420422632273397 $387 $567 forward 7 unknown #
vertex $-1 $507 $568 #
straight-curve $-1 -73.181524094363226 -36.124878555902228 -7.8420422632273397 0 -1 0 I I #
coedge $-1 $402 $401 $394 $511 forward $391 $-1 #
edge $-1 $512 100.7114837479635 $515 106.88754546748454 $510 $569 forward 7 unknown #
vertex $-1 $406 $570 #
straight-curve $-1 36.210494324180445 -4.2365231313203431 7.8420422632273414 1 0 0 I I #
edge $-1 $515 -4.4508995964351001 $403 4.8796525266646142 $402 $571 forward 7 unknown #
vertex $-1 $514 $572 #
straight-curve $-1 -33.419279367975633 -4.2365231313203431 107.50624856004282 -0.71933979245794832 0 0.69465837861970381 I I #
point $-1 69.786025109156398 -4.2365231313203431 7.8420422632273414 #
point $-1 76.181524094363226 5.0940289917793713 1.6659805437062971 #
straight-curve $-1 76.181524094363226 0 7.8420422632273397 0 1 0 I I #
vertex $-1 $409 $573 #
point $-1 72.432366549126499 -2.3704127067003959 3.4632334013033068 #
vertex $-1 $413 $574 #
point $-1 72.432366549126499 0.42875293022951411 3.4632334013033068 #
vertex $-1 $417 $575 #
point $-1 72.432366549126499 3.2279185671594277 3.4632334013033068 #
edge $-1 $527 58.366055027235419 $530 65.742172449740224 $422 $576 forward 7 unknown #
vertex $-1 $436 $577 #
straight-curve $-1 -76.181524604683176 -12.097376953259749 7.8420422632273414 -1 0 0 I I #
edge $-1 $530 2.863544397398373 $433 15.604120714324381 $432 $578 forward 7 unknown #
vertex $-1 $529 $579 #
straight-curve $-1 -76.18152409436324 -12.097376953259749 0.46592484072252205 0.8660253999169214 0 0.50000000669873634 I I #
point $-1 -63.405714184208989 -12.097376953259749 7.8420422632273397 #
point $-1 -76.181524094363226 -24.837953270185757 0.46592484072253026 #
straight-curve $-1 -76.181524094363226 0 7.8420422632273397 0 -1 0 I I #
vertex $-1 $439 $580 #
point $-1 -67.972059194873992 -21.197788608206899 2.9989492087851475 #
vertex $-1 $443 $581 #
point $-1 -67.972059194873992 -15.737541615238612 2.9989492087851475 #
coedge $-1 $458 $457 $450 $540 forward $447 $-1 #
edge $-1 $541 58.366055027235419 $544 65.742172449740224 $539 $582 forward 7 unknown #
vertex $-1 $462 $583 #
straight-curve $-1 -76.181524604683176 30.183188071169205 7.8420422632273414 -1 0 0 I I #
edge $-1 $544 -18.276738114816105 $459 -5.5361617978900952 $458 $584 forward 7 unknown #
vertex $-1 $543 $585 #
straight-curve $-1 -76.18152409436324 30.183188071169205 0.46592484072252205 0.8660253999169214 0 0.50000000669873634 I I #
point $-1 -63.405714184208989 30.183188071169205 7.8420422632273397 #
point $-1 -76.181524094363226 17.442611754243195 0.46592484072253026 #
straight-curve $-1 -76.181524094363226 0 7.8420422632273397 0 -1 0 I I #
vertex $-1 $465 $586 #
point $-1 -67.972059194873992 21.082776416222053 2.9989492087851475 #
vertex $-1 $469 $587 #
point $-1 -67.972059194873992 26.54302340919034 2.9989492087851475 #
straight-curve $-1 -76.181524094363226 33.452261155410504 0 0 0 -1 I I #
straight-curve $-1 0 33.452261155410504 -7.8420422632273397 1 0 0 I I #
point $-1 76.181524094363226 33.452261155410504 -7.8420422632273397 #
straight-curve $-1 -76.181524094363226 0 7.8420422632273397 0 -1 0 I I #
point $-1 -76.181524094363226 33.452261155410504 7.8420422632273397 #
straight-curve $-1 76.181524094363226 33.452261155410504 0 0 0 -1 I I #
point $-1 -76.181524094363226 33.452261155410504 -7.8420422632273397 #
edge $-1 $508 -1.5 $561 1.5 $492 $588 forward 7 unknown #
vertex $-1 $496 $589 #
straight-curve $-1 -76.181524094363226 -38.797495956393952 0 0 0 -1 I I #
straight-curve $-1 -76.181524094363226 0 -7.8420422632273397 0 1 0 I I #
straight-curve $-1 -74.681524094363226 -38.797495956393952 7.8420422632273397 1 0 0 I I #
point $-1 -76.181524094363226 -38.797495956393952 7.8420422632273397 #
point $-1 -73.181524094363226 -38.797495956393952 7.8420422632273397 #
straight-curve $-1 -73.181524094363226 -38.797495956393952 0 0 0 -1 I I #
point $-1 -73.181524094363226 -38.797495956393952 -7.8420422632273397 #
straight-curve $-1 76.181524094363226 -4.2365231313203431 108.55352601119084 0 0 -1 I I #
point $-1 76.181524094363226 -4.2365231313203431 7.8420422632273397 #
straight-curve $-1 76.181524094363226 0.21437646511475705 1.6659805437063184 0 1 0 I I #
point $-1 76.181524094363226 -4.2365231313203431 1.6659805437062971 #
point $-1 71.725367463587673 -2.3704127067003959 3.4508926943841844 #
point $-1 71.725367463587673 0.42875293022951411 3.4508926943841844 #
point $-1 71.725367463587673 3.2279185671594277 3.4508926943841844 #
straight-curve $-1 -76.181524094363226 -12.097376953259749 66.20809729046276 0 0 -1 I I #
point $-1 -76.181524094363226 -12.097376953259749 7.8420422632273397 #
straight-curve $-1 -76.181524094363226 -9.2338325558613761 0.46592484072252915 0 -1 0 I I #
point $-1 -76.181524094363226 -12.097376953259749 0.46592484072253026 #
point $-1 -68.338084588092173 -21.197788608206899 1.6329238021694898 #
point $-1 -68.338084588092173 -15.737541615238612 1.6329238021694898 #
straight-curve $-1 -76.181524094363226 30.183188071169205 66.20809729046276 0 0 -1 I I #
point $-1 -76.181524094363226 30.183188071169205 7.8420422632273397 #
straight-curve $-1 -76.181524094363226 11.9064499563531 0.46592484072252915 0 -1 0 I I #
point $-1 -76.181524094363226 30.183188071169205 0.46592484072253026 #
point $-1 -68.338084588092173 21.082776416222053 1.6329238021694898 #
point $-1 -68.338084588092173 26.54302340919034 1.6329238021694898 #
straight-curve $-1 -74.681524094363226 -38.797495956393952 -7.8420422632273397 -1 0 0 I I #
point $-1 -76.181524094363226 -38.797495956393952 -7.8420422632273397 #
End-of-ACIS-data 