500 0 16 0           
7 Unknown 11 ACIS 5.0 NT 24 Fri Mar 26 02:07:57 1999 
-1 9.9999999999999995e-007 1e-010 
body $-1 $16 $-1 $17 #
body $-1 $18 $-1 $19 #
body $-1 $20 $-1 $21 #
body $-1 $22 $-1 $23 #
body $-1 $24 $-1 $25 #
body $-1 $26 $-1 $27 #
body $-1 $28 $-1 $29 #
body $-1 $30 $-1 $31 #
body $-1 $32 $-1 $33 #
body $-1 $34 $-1 $35 #
body $-1 $36 $-1 $37 #
body $-1 $38 $-1 $39 #
body $-1 $40 $-1 $41 #
body $-1 $42 $-1 $43 #
body $-1 $44 $-1 $45 #
body $-1 $46 $-1 $47 #
lump $-1 $-1 $48 $0 #
transform $-1 1 0 0 0 1 0 0 0 1 68.443250831629385 28.559762086727055 8.9569243173937778 1 rotate no_reflect no_shear #
lump $-1 $-1 $49 $1 #
transform $-1 1 0 0 0 1 0 0 0 1 68.443250831629385 28.559762086727055 8.9569243173937778 1 rotate no_reflect no_shear #
lump $-1 $-1 $50 $2 #
transform $-1 1 0 0 0 1 0 0 0 1 68.443250831629385 28.559762086727055 8.9569243173937778 1 rotate no_reflect no_shear #
lump $-1 $-1 $51 $3 #
transform $-1 1 0 0 0 1 0 0 0 1 68.443250831629385 28.559762086727055 8.9569243173937778 1 rotate no_reflect no_shear #
lump $-1 $-1 $52 $4 #
transform $-1 1 0 0 0 1 0 0 0 1 68.443250831629385 28.559762086727055 8.9569243173937778 1 rotate no_reflect no_shear #
lump $-1 $-1 $53 $5 #
transform $-1 1 0 0 0 1 0 0 0 1 68.443250831629385 28.559762086727055 8.9569243173937778 1 rotate no_reflect no_shear #
lump $-1 $-1 $54 $6 #
transform $-1 1 0 0 0 1 0 0 0 1 68.443250831629385 28.559762086727055 8.9569243173937778 1 rotate no_reflect no_shear #
lump $-1 $-1 $55 $7 #
transform $-1 1 0 0 0 1 0 0 0 1 68.443250831629385 28.559762086727055 8.9569243173937778 1 rotate no_reflect no_shear #
lump $-1 $-1 $56 $8 #
transform $-1 1 0 0 0 1 0 0 0 1 68.443250831629385 28.559762086727055 8.9569243173937778 1 rotate no_reflect no_shear #
lump $-1 $-1 $57 $9 #
transform $-1 1 0 0 0 1 0 0 0 1 68.443250831629385 28.559762086727055 8.9569243173937778 1 rotate no_reflect no_shear #
lump $-1 $-1 $58 $10 #
transform $-1 1 0 0 0 1 0 0 0 1 68.443250831629385 28.559762086727055 8.9569243173937778 1 rotate no_reflect no_shear #
lump $-1 $-1 $59 $11 #
transform $-1 1 0 0 0 1 0 0 0 1 68.443250831629385 28.559762086727055 8.9569243173937778 1 rotate no_reflect no_shear #
lump $-1 $-1 $60 $12 #
transform $-1 1 0 0 0 1 0 0 0 1 68.443250831629385 28.559762086727055 8.9569243173937778 1 rotate no_reflect no_shear #
lump $-1 $-1 $61 $13 #
transform $-1 1 0 0 0 1 0 0 0 1 68.443250831629385 28.559762086727055 8.9569243173937778 1 rotate no_reflect no_shear #
lump $-1 $-1 $62 $14 #
transform $-1 1 0 0 0 1 0 0 0 1 68.443250831629385 28.559762086727055 8.9569243173937778 1 rotate no_reflect no_shear #
lump $-1 $-1 $63 $15 #
transform $-1 1 0 0 0 1 0 0 0 1 68.443250831629385 28.559762086727055 8.9569243173937778 1 rotate no_reflect no_shear #
shell $-1 $-1 $-1 $64 $-1 $16 #
shell $-1 $-1 $-1 $65 $-1 $18 #
shell $-1 $-1 $-1 $66 $-1 $20 #
shell $-1 $-1 $-1 $67 $-1 $22 #
shell $-1 $-1 $-1 $68 $-1 $24 #
shell $-1 $-1 $-1 $69 $-1 $26 #
shell $-1 $-1 $-1 $70 $-1 $28 #
shell $-1 $-1 $-1 $71 $-1 $30 #
shell $-1 $-1 $-1 $72 $-1 $32 #
shell $-1 $-1 $-1 $73 $-1 $34 #
shell $-1 $-1 $-1 $74 $-1 $36 #
shell $-1 $-1 $-1 $75 $-1 $38 #
shell $-1 $-1 $-1 $76 $-1 $40 #
shell $-1 $-1 $-1 $77 $-1 $42 #
shell $-1 $-1 $-1 $78 $-1 $44 #
shell $-1 $-1 $-1 $79 $-1 $46 #
face $-1 $80 $81 $48 $-1 $82 forward single #
face $-1 $83 $84 $49 $-1 $85 forward single #
face $-1 $86 $87 $50 $-1 $88 reversed single #
face $-1 $89 $90 $51 $-1 $91 forward single #
face $-1 $92 $93 $52 $-1 $94 forward single #
face $-1 $95 $96 $53 $-1 $97 reversed single #
face $-1 $98 $99 $54 $-1 $100 forward single #
face $-1 $101 $102 $55 $-1 $103 forward single #
face $-1 $104 $105 $56 $-1 $106 reversed single #
face $-1 $107 $108 $57 $-1 $109 forward single #
face $-1 $110 $111 $58 $-1 $112 forward single #
face $-1 $113 $114 $59 $-1 $115 reversed single #
face $-1 $116 $117 $60 $-1 $118 forward single #
face $-1 $119 $120 $61 $-1 $121 forward single #
face $-1 $122 $123 $62 $-1 $124 reversed single #
face $-1 $125 $126 $63 $-1 $127 forward single #
face $-1 $128 $129 $48 $-1 $130 reversed single #
loop $-1 $-1 $131 $64 #
plane-surface $-1 0 0 8.9569243173937778 0 0 1 1 0 0 forward_v I I I I #
face $-1 $132 $133 $49 $-1 $134 reversed single #
loop $-1 $-1 $135 $65 #
plane-surface $-1 -63.015727000685047 0 2.2909078156131373 0 0 1 1 0 0 forward_v I I I I #
face $-1 $136 $137 $50 $-1 $138 reversed single #
loop $-1 $-1 $139 $66 #
plane-surface $-1 -49.677146587480053 -123.64911738704976 103.64510703481926 1 0 0 0 0.69465837861970381 -0.71933979245794832 forward_v I I I I #
face $-1 $140 $141 $51 $-1 $142 forward single #
loop $-1 $143 $144 $67 #
cone-surface $-1 -44.674274422814939 -25.40045073278668 5.8220422049506997 0 0.69465837861970381 -0.71933979245794832 1 0 0 1 I I 0 1 1 forward I I I I #
face $-1 $145 $146 $52 $-1 $147 forward single #
loop $-1 $148 $149 $68 #
cone-surface $-1 -37.169966175817251 -25.40045073278668 5.8220422049506997 0 0.69465837861970381 -0.71933979245794832 1 0 0 1 I I 0 1 1 forward I I I I #
face $-1 $150 $151 $53 $-1 $152 reversed single #
loop $-1 $-1 $153 $69 #
plane-surface $-1 -18.169283087137533 -123.64911738704976 103.64510703481926 1 0 0 0 0.69465837861970381 -0.71933979245794832 forward_v I I I I #
face $-1 $154 $155 $54 $-1 $156 forward single #
loop $-1 $157 $158 $70 #
cone-surface $-1 -13.166410922472416 -25.40045073278668 5.8220422049506997 0 0.69465837861970381 -0.71933979245794832 1 0 0 1 I I 0 1 1 forward I I I I #
face $-1 $159 $160 $55 $-1 $161 forward single #
loop $-1 $162 $163 $71 #
cone-surface $-1 -5.6621026754747277 -25.40045073278668 5.8220422049506997 0 0.69465837861970381 -0.71933979245794832 1 0 0 1 I I 0 1 1 forward I I I I #
face $-1 $164 $165 $56 $-1 $166 reversed single #
loop $-1 $-1 $167 $72 #
plane-surface $-1 13.338580413204991 -123.64911738704976 103.64510703481926 1 0 0 0 0.69465837861970381 -0.71933979245794832 forward_v I I I I #
face $-1 $168 $169 $57 $-1 $170 forward single #
loop $-1 $171 $172 $73 #
cone-surface $-1 18.341452577870101 -25.40045073278668 5.8220422049506997 0 0.69465837861970381 -0.71933979245794832 1 0 0 1 I I 0 1 1 forward I I I I #
face $-1 $173 $174 $58 $-1 $175 forward single #
loop $-1 $176 $177 $74 #
cone-surface $-1 25.845760824867796 -25.40045073278668 5.8220422049506997 0 0.69465837861970381 -0.71933979245794832 1 0 0 1 I I 0 1 1 forward I I I I #
face $-1 $178 $179 $59 $-1 $180 reversed single #
loop $-1 $-1 $181 $75 #
plane-surface $-1 44.846443913547517 -123.64911738704976 103.64510703481926 1 0 0 0 0.69465837861970381 -0.71933979245794832 forward_v I I I I #
face $-1 $182 $183 $60 $-1 $184 forward single #
loop $-1 $185 $186 $76 #
cone-surface $-1 49.849316078212624 -25.40045073278668 5.8220422049506997 0 0.69465837861970381 -0.71933979245794832 1 0 0 1 I I 0 1 1 forward I I I I #
face $-1 $187 $188 $61 $-1 $189 forward single #
loop $-1 $190 $191 $77 #
cone-surface $-1 57.353624325210319 -25.40045073278668 5.8220422049506997 0 0.69465837861970381 -0.71933979245794832 1 0 0 1 I I 0 1 1 forward I I I I #
face $-1 $192 $193 $62 $-1 $194 reversed single #
loop $-1 $-1 $195 $78 #
plane-surface $-1 46.845935930567542 110.102984362727 127.66992201257722 1 0 0 0 -0.82903758062907751 -0.55919289150049634 forward_v I I I I #
face $-1 $196 $197 $63 $-1 $198 forward single #
loop $-1 $199 $200 $79 #
cone-surface $-1 57.644593381098474 25.71784972427163 5.6264208571221808 0 -0.82903758062907751 -0.55919289150049634 1.5 0 0 1 I I 0 1 1.5 forward I I I I #
face $-1 $201 $202 $48 $-1 $203 reversed single #
loop $-1 $-1 $204 $80 #
plane-surface $-1 0 0 -8.9569243173937778 0 0 1 1 0 0 forward_v I I I I #
coedge $-1 $205 $206 $207 $208 forward $81 $-1 #
face $-1 $209 $210 $49 $-1 $211 reversed single #
loop $-1 $-1 $212 $83 #
plane-surface $-1 -63.015727000685047 0 -1.393275495796813 0 0 1 1 0 0 forward_v I I I I #
coedge $-1 $213 $214 $215 $216 forward $84 $-1 #
face $-1 $217 $218 $50 $-1 $219 reversed single #
loop $-1 $-1 $220 $86 #
plane-surface $-1 -40.922120299316092 -28.559762086727034 5.1771993380760932 0 -0.69465837861970381 0.71933979245794832 1 0 0 forward_v I I I I #
coedge $-1 $221 $222 $223 $224 reversed $87 $-1 #
face $-1 $-1 $225 $51 $-1 $226 forward single #
loop $-1 $227 $228 $89 #
cone-surface $-1 -44.674274422814939 -23.850820042043374 4.2173526859374793 0 0.69465837861970381 -0.71933979245794832 0.5 0 0 1 I I -0.70710678118654746 0.70710678118654746 0.5 forward I I I I #
loop $-1 $-1 $229 $67 #
coedge $-1 $144 $144 $230 $231 reversed $90 $-1 #
face $-1 $-1 $232 $52 $-1 $233 forward single #
loop $-1 $234 $235 $92 #
cone-surface $-1 -37.169966175817251 -23.850820042043374 4.2173526859374793 0 0.69465837861970381 -0.71933979245794832 0.5 0 0 1 I I -0.70710678118654746 0.70710678118654746 0.5 forward I I I I #
loop $-1 $-1 $236 $68 #
coedge $-1 $149 $149 $237 $238 reversed $93 $-1 #
face $-1 $239 $240 $53 $-1 $241 reversed single #
loop $-1 $-1 $242 $95 #
plane-surface $-1 -9.4142567989735682 -28.559762086727034 5.1771993380760932 0 -0.69465837861970381 0.71933979245794832 1 0 0 forward_v I I I I #
coedge $-1 $243 $244 $245 $246 reversed $96 $-1 #
face $-1 $-1 $247 $54 $-1 $248 forward single #
loop $-1 $249 $250 $98 #
cone-surface $-1 -13.166410922472416 -23.850820042043374 4.2173526859374793 0 0.69465837861970381 -0.71933979245794832 0.5 0 0 1 I I -0.70710678118654746 0.70710678118654746 0.5 forward I I I I #
loop $-1 $-1 $251 $70 #
coedge $-1 $158 $158 $252 $253 reversed $99 $-1 #
face $-1 $-1 $254 $55 $-1 $255 forward single #
loop $-1 $256 $257 $101 #
cone-surface $-1 -5.6621026754747277 -23.850820042043374 4.2173526859374793 0 0.69465837861970381 -0.71933979245794832 0.5 0 0 1 I I -0.70710678118654746 0.70710678118654746 0.5 forward I I I I #
loop $-1 $-1 $258 $71 #
coedge $-1 $163 $163 $259 $260 reversed $102 $-1 #
face $-1 $261 $262 $56 $-1 $263 reversed single #
loop $-1 $-1 $264 $104 #
plane-surface $-1 22.093606701368955 -28.559762086727034 5.1771993380760932 0 -0.69465837861970381 0.71933979245794832 1 0 0 forward_v I I I I #
coedge $-1 $265 $266 $267 $268 reversed $105 $-1 #
face $-1 $-1 $269 $57 $-1 $270 forward single #
loop $-1 $271 $272 $107 #
cone-surface $-1 18.341452577870101 -23.850820042043374 4.2173526859374793 0 0.69465837861970381 -0.71933979245794832 0.5 0 0 1 I I -0.70710678118654746 0.70710678118654746 0.5 forward I I I I #
loop $-1 $-1 $273 $73 #
coedge $-1 $172 $172 $274 $275 reversed $108 $-1 #
face $-1 $-1 $276 $58 $-1 $277 forward single #
loop $-1 $278 $279 $110 #
cone-surface $-1 25.845760824867796 -23.850820042043374 4.2173526859374793 0 0.69465837861970381 -0.71933979245794832 0.5 0 0 1 I I -0.70710678118654746 0.70710678118654746 0.5 forward I I I I #
loop $-1 $-1 $280 $74 #
coedge $-1 $177 $177 $281 $282 reversed $111 $-1 #
face $-1 $283 $284 $59 $-1 $285 reversed single #
loop $-1 $-1 $286 $113 #
plane-surface $-1 53.601470201711479 -28.559762086727034 5.1771993380760932 0 -0.69465837861970381 0.71933979245794832 1 0 0 forward_v I I I I #
coedge $-1 $287 $288 $289 $290 reversed $114 $-1 #
face $-1 $-1 $291 $60 $-1 $292 forward single #
loop $-1 $293 $294 $116 #
cone-surface $-1 49.849316078212624 -23.850820042043374 4.2173526859374793 0 0.69465837861970381 -0.71933979245794832 0.5 0 0 1 I I -0.70710678118654746 0.70710678118654746 0.5 forward I I I I #
loop $-1 $-1 $295 $76 #
coedge $-1 $186 $186 $296 $297 reversed $117 $-1 #
face $-1 $-1 $298 $61 $-1 $299 forward single #
loop $-1 $300 $301 $119 #
cone-surface $-1 57.353624325210319 -23.850820042043374 4.2173526859374793 0 0.69465837861970381 -0.71933979245794832 0.5 0 0 1 I I -0.70710678118654746 0.70710678118654746 0.5 forward I I I I #
loop $-1 $-1 $302 $77 #
coedge $-1 $191 $191 $303 $304 reversed $120 $-1 #
face $-1 $305 $306 $62 $-1 $307 forward single #
loop $-1 $-1 $308 $122 #
plane-surface $-1 57.64459338109846 -3.3810697969592667 51.123963340112027 0 0.82903758062907751 0.55919289150049634 1 0 0 forward_v I I I I #
coedge $-1 $309 $310 $311 $312 reversed $123 $-1 #
face $-1 $-1 $313 $63 $-1 $314 forward single #
loop $-1 $315 $316 $125 #
cone-surface $-1 57.644593381098474 24.003562085680713 4.4701192805883281 0 -0.82903758062907751 -0.55919289150049634 0.75 0 0 1 I I -0.70710678118654757 0.70710678118654757 0.75 forward I I I I #
loop $-1 $-1 $317 $79 #
coedge $-1 $200 $200 $318 $319 reversed $126 $-1 #
face $-1 $320 $321 $48 $-1 $322 reversed single #
loop $-1 $-1 $323 $128 #
plane-surface $-1 0 -28.559762086727055 0 0 1 0 0 0 1 forward_v I I I I #
coedge $-1 $324 $325 $326 $327 forward $129 $-1 #
coedge $-1 $328 $131 $329 $330 forward $81 $-1 #
coedge $-1 $131 $328 $331 $332 forward $81 $-1 #
coedge $-1 $333 $334 $131 $208 reversed $335 $-1 #
edge $-1 $336 -28.559762086727055 $337 28.559762086727055 $207 $338 forward 7 unknown #
face $-1 $339 $340 $49 $-1 $341 reversed single #
loop $-1 $-1 $342 $132 #
plane-surface $-1 -57.588203169740709 0 0.44881615990816215 -1 0 0 0 0 1 forward_v I I I I #
coedge $-1 $343 $344 $345 $346 forward $133 $-1 #
coedge $-1 $347 $135 $348 $349 reversed $84 $-1 #
coedge $-1 $135 $347 $350 $351 reversed $84 $-1 #
coedge $-1 $342 $352 $135 $216 reversed $210 $-1 #
edge $-1 $353 -28.559762086727055 $354 28.559762086727055 $215 $355 forward 7 unknown #
face $-1 $356 $357 $50 $-1 $358 forward single #
loop $-1 $-1 $359 $136 #
plane-surface $-1 -32.16709401115213 -123.64911738704976 103.64510703481926 -1 0 0 0 -0.69465837861970381 0.71933979245794832 forward_v I I I I #
coedge $-1 $360 $361 $362 $363 reversed $137 $-1 #
coedge $-1 $222 $139 $364 $365 reversed $87 $-1 #
coedge $-1 $139 $221 $360 $366 reversed $87 $-1 #
coedge $-1 $362 $367 $139 $224 forward $368 $-1 #
edge $-1 $369 42.865629200015853 $370 46.645354179333559 $223 $371 forward 7 unknown #
loop $-1 $-1 $230 $140 #
plane-surface $-1 -40.922120299316092 -28.559762086727034 5.1771993380760932 0 -0.69465837861970381 0.71933979245794832 1 0 0 forward_v I I I I #
loop $-1 $-1 $372 $89 #
coedge $-1 $228 $228 $229 $373 reversed $141 $-1 #
coedge $-1 $229 $229 $228 $373 forward $143 $-1 #
coedge $-1 $230 $230 $144 $231 forward $225 $-1 #
edge $-1 $374 7.0784518257619552e-016 $374 6.2831853071796013 $230 $375 forward 7 unknown #
loop $-1 $-1 $237 $145 #
plane-surface $-1 -40.922120299316092 -28.559762086727034 5.1771993380760932 0 -0.69465837861970381 0.71933979245794832 1 0 0 forward_v I I I I #
loop $-1 $-1 $376 $92 #
coedge $-1 $235 $235 $236 $377 reversed $146 $-1 #
coedge $-1 $236 $236 $235 $377 forward $148 $-1 #
coedge $-1 $237 $237 $149 $238 forward $232 $-1 #
edge $-1 $378 7.0784518257619552e-016 $378 6.2831853071796013 $237 $379 forward 7 unknown #
face $-1 $380 $381 $53 $-1 $382 reversed single #
loop $-1 $-1 $383 $150 #
plane-surface $-1 -0.65923051080960349 -123.64911738704976 103.64510703481926 -1 0 0 0 -0.69465837861970381 0.71933979245794832 forward_v I I I I #
coedge $-1 $384 $385 $386 $387 reversed $151 $-1 #
coedge $-1 $244 $153 $388 $389 reversed $96 $-1 #
coedge $-1 $153 $243 $384 $390 reversed $96 $-1 #
coedge $-1 $386 $391 $153 $246 forward $381 $-1 #
edge $-1 $392 42.865629200015853 $393 46.645354179333559 $245 $394 forward 7 unknown #
loop $-1 $-1 $252 $154 #
plane-surface $-1 -9.4142567989735682 -28.559762086727034 5.1771993380760932 0 -0.69465837861970381 0.71933979245794832 1 0 0 forward_v I I I I #
loop $-1 $-1 $395 $98 #
coedge $-1 $250 $250 $251 $396 reversed $155 $-1 #
coedge $-1 $251 $251 $250 $396 forward $157 $-1 #
coedge $-1 $252 $252 $158 $253 forward $247 $-1 #
edge $-1 $397 7.0784518257619552e-016 $397 6.2831853071796013 $252 $398 forward 7 unknown #
loop $-1 $-1 $259 $159 #
plane-surface $-1 -9.4142567989735682 -28.559762086727034 5.1771993380760932 0 -0.69465837861970381 0.71933979245794832 1 0 0 forward_v I I I I #
loop $-1 $-1 $399 $101 #
coedge $-1 $257 $257 $258 $400 reversed $160 $-1 #
coedge $-1 $258 $258 $257 $400 forward $162 $-1 #
coedge $-1 $259 $259 $163 $260 forward $254 $-1 #
edge $-1 $401 7.0784518257619552e-016 $401 6.2831853071796013 $259 $402 forward 7 unknown #
face $-1 $403 $404 $56 $-1 $405 reversed single #
loop $-1 $-1 $406 $164 #
plane-surface $-1 30.84863298953292 -123.64911738704976 103.64510703481926 -1 0 0 0 -0.69465837861970381 0.71933979245794832 forward_v I I I I #
coedge $-1 $407 $408 $409 $410 reversed $165 $-1 #
coedge $-1 $266 $167 $411 $412 reversed $105 $-1 #
coedge $-1 $167 $265 $407 $413 reversed $105 $-1 #
coedge $-1 $409 $414 $167 $268 forward $404 $-1 #
edge $-1 $415 42.865629200015853 $416 46.645354179333559 $267 $417 forward 7 unknown #
loop $-1 $-1 $274 $168 #
plane-surface $-1 22.093606701368955 -28.559762086727034 5.1771993380760932 0 -0.69465837861970381 0.71933979245794832 1 0 0 forward_v I I I I #
loop $-1 $-1 $418 $107 #
coedge $-1 $272 $272 $273 $419 reversed $169 $-1 #
coedge $-1 $273 $273 $272 $419 forward $171 $-1 #
coedge $-1 $274 $274 $172 $275 forward $269 $-1 #
edge $-1 $420 7.0784518257619552e-016 $420 6.2831853071796013 $274 $421 forward 7 unknown #
loop $-1 $-1 $281 $173 #
plane-surface $-1 22.093606701368955 -28.559762086727034 5.1771993380760932 0 -0.69465837861970381 0.71933979245794832 1 0 0 forward_v I I I I #
loop $-1 $-1 $422 $110 #
coedge $-1 $279 $279 $280 $423 reversed $174 $-1 #
coedge $-1 $280 $280 $279 $423 forward $176 $-1 #
coedge $-1 $281 $281 $177 $282 forward $276 $-1 #
edge $-1 $424 7.0784518257619552e-016 $424 6.2831853071796013 $281 $425 forward 7 unknown #
face $-1 $426 $427 $59 $-1 $428 reversed single #
loop $-1 $-1 $429 $178 #
plane-surface $-1 62.35649648987544 -123.64911738704976 103.64510703481926 -1 0 0 0 -0.69465837861970381 0.71933979245794832 forward_v I I I I #
coedge $-1 $430 $431 $432 $433 reversed $179 $-1 #
coedge $-1 $288 $181 $434 $435 reversed $114 $-1 #
coedge $-1 $181 $287 $430 $436 reversed $114 $-1 #
coedge $-1 $432 $437 $181 $290 forward $427 $-1 #
edge $-1 $438 42.865629200015853 $439 46.645354179333559 $289 $440 forward 7 unknown #
loop $-1 $-1 $296 $182 #
plane-surface $-1 53.601470201711479 -28.559762086727034 5.1771993380760932 0 -0.69465837861970381 0.71933979245794832 1 0 0 forward_v I I I I #
loop $-1 $-1 $441 $116 #
coedge $-1 $294 $294 $295 $442 reversed $183 $-1 #
coedge $-1 $295 $295 $294 $442 forward $185 $-1 #
coedge $-1 $296 $296 $186 $297 forward $291 $-1 #
edge $-1 $443 7.0784518257619552e-016 $443 6.2831853071796013 $296 $444 forward 7 unknown #
loop $-1 $-1 $303 $187 #
plane-surface $-1 53.601470201711479 -28.559762086727034 5.1771993380760932 0 -0.69465837861970381 0.71933979245794832 1 0 0 forward_v I I I I #
loop $-1 $-1 $445 $119 #
coedge $-1 $301 $301 $302 $446 reversed $188 $-1 #
coedge $-1 $302 $302 $301 $446 forward $190 $-1 #
coedge $-1 $303 $303 $191 $304 forward $298 $-1 #
edge $-1 $447 7.0784518257619552e-016 $447 6.2831853071796013 $303 $448 forward 7 unknown #
face $-1 $449 $450 $62 $-1 $451 reversed single #
loop $-1 $-1 $311 $192 #
plane-surface $-1 0 0 8.9569243173937778 0 0 1 1 0 0 forward_v I I I I #
coedge $-1 $452 $453 $454 $455 reversed $193 $-1 #
coedge $-1 $310 $195 $456 $457 reversed $123 $-1 #
coedge $-1 $195 $309 $452 $458 reversed $123 $-1 #
coedge $-1 $454 $459 $195 $312 forward $306 $-1 #
edge $-1 $460 26.491730094636445 $461 29.990535913309113 $311 $462 forward 7 unknown #
loop $-1 $-1 $318 $196 #
plane-surface $-1 57.64459338109846 -3.3810697969592667 51.123963340112027 0 0.82903758062907751 0.55919289150049634 1 0 0 forward_v I I I I #
loop $-1 $-1 $463 $125 #
coedge $-1 $316 $316 $317 $464 reversed $197 $-1 #
coedge $-1 $317 $317 $316 $464 forward $199 $-1 #
coedge $-1 $318 $318 $200 $319 forward $313 $-1 #
edge $-1 $465 -5.584455561007515e-017 $465 6.2831853071796004 $318 $466 forward 7 unknown #
face $-1 $467 $468 $48 $-1 $469 reversed single #
loop $-1 $-1 $470 $201 #
plane-surface $-1 -68.443250831629385 0 0 1 0 0 0 0 -1 forward_v I I I I #
coedge $-1 $471 $331 $472 $473 forward $202 $-1 #
coedge $-1 $474 $204 $471 $475 forward $129 $-1 #
coedge $-1 $204 $474 $476 $477 forward $129 $-1 #
coedge $-1 $334 $333 $204 $327 reversed $335 $-1 #
edge $-1 $478 -28.559762086727055 $479 28.559762086727055 $326 $480 forward 7 unknown #
coedge $-1 $206 $205 $481 $482 forward $81 $-1 #
coedge $-1 $483 $484 $205 $330 reversed $468 $-1 #
edge $-1 $337 -68.443250831629385 $485 68.443250831629385 $329 $486 forward 7 unknown #
coedge $-1 $323 $487 $206 $332 reversed $202 $-1 #
edge $-1 $488 -68.443250831629385 $336 68.443250831629385 $331 $489 forward 7 unknown #
coedge $-1 $326 $207 $487 $490 forward $335 $-1 #
coedge $-1 $207 $326 $483 $491 reversed $335 $-1 #
loop $-1 $-1 $333 $467 #
vertex $-1 $208 $492 #
vertex $-1 $208 $493 #
straight-curve $-1 68.443250831629385 0 8.9569243173937778 0 1 0 I I #
face $-1 $494 $495 $49 $-1 $496 reversed single #
loop $-1 $-1 $497 $209 #
plane-surface $-1 0 -28.559762086727055 0 0 1 0 0 0 1 forward_v I I I I #
coedge $-1 $345 $215 $498 $499 reversed $210 $-1 #
coedge $-1 $500 $212 $497 $501 reversed $133 $-1 #
coedge $-1 $212 $500 $502 $503 reversed $133 $-1 #
coedge $-1 $352 $342 $212 $346 reversed $210 $-1 #
edge $-1 $504 -28.559762086727055 $505 28.559762086727055 $345 $506 forward 7 unknown #
coedge $-1 $214 $213 $507 $508 reversed $84 $-1 #
coedge $-1 $509 $510 $213 $349 forward $511 $-1 #
edge $-1 $512 -36.935387331286861 $354 -26.080339669398185 $348 $513 forward 7 unknown #
coedge $-1 $514 $498 $214 $351 forward $340 $-1 #
edge $-1 $353 26.080339669398185 $515 36.935387331286861 $350 $516 forward 7 unknown #
coedge $-1 $215 $345 $509 $517 reversed $210 $-1 #
vertex $-1 $351 $518 #
vertex $-1 $349 $519 #
straight-curve $-1 -57.588203169740709 0 2.2909078156131373 0 1 0 I I #
face $-1 $-1 $368 $50 $-1 $520 reversed single #
loop $-1 $-1 $521 $217 #
plane-surface $-1 0 0 8.9569243173937778 0 0 1 1 0 0 forward_v I I I I #
coedge $-1 $522 $523 $524 $525 reversed $218 $-1 #
coedge $-1 $526 $220 $222 $366 forward $137 $-1 #
coedge $-1 $220 $526 $522 $527 forward $137 $-1 #
coedge $-1 $524 $223 $220 $363 forward $368 $-1 #
edge $-1 $370 -29.216086437822007 $528 -11.706033861494085 $362 $529 forward 7 unknown #
coedge $-1 $530 $531 $221 $365 forward $357 $-1 #
edge $-1 $532 -37.178816311811715 $369 -33.264796606797823 $364 $533 forward 7 unknown #
edge $-1 $370 -2.9524203284164893e-014 $532 5.4411277480422147 $222 $534 forward 7 unknown #
coedge $-1 $223 $524 $530 $535 reversed $368 $-1 #
loop $-1 $-1 $524 $356 #
vertex $-1 $535 $536 #
vertex $-1 $224 $537 #
straight-curve $-1 -49.677146587480053 -28.559762086727055 51.822553517409631 0 0 -1 I I #
coedge $-1 $372 $372 $-1 $538 reversed $227 $-1 #
edge $-1 $539 0 $539 6.2831853071796004 $228 $540 forward 7 unknown #
vertex $-1 $231 $541 #
ellipse-curve $-1 -44.674274422814939 -26.602752234220112 7.0670618277349231 0 -0.69465837861970381 0.71933979245794832 1 0 0 1 I I #
coedge $-1 $376 $376 $-1 $542 reversed $234 $-1 #
edge $-1 $543 0 $543 6.2831853071796004 $235 $544 forward 7 unknown #
vertex $-1 $238 $545 #
ellipse-curve $-1 -37.169966175817251 -26.602752234220112 7.0670618277349231 0 -0.69465837861970381 0.71933979245794832 1 0 0 1 I I #
face $-1 $-1 $546 $53 $-1 $547 forward single #
loop $-1 $-1 $245 $239 #
plane-surface $-1 0 -28.559762086727055 0 0 1 0 0 0 1 forward_v I I I I #
coedge $-1 $548 $549 $550 $551 reversed $240 $-1 #
coedge $-1 $552 $242 $244 $390 forward $151 $-1 #
coedge $-1 $242 $552 $548 $553 forward $151 $-1 #
coedge $-1 $550 $245 $242 $387 forward $381 $-1 #
edge $-1 $393 -13.462154687650749 $554 4.0478978886771806 $386 $555 forward 7 unknown #
coedge $-1 $556 $557 $243 $389 forward $546 $-1 #
edge $-1 $558 -37.178816311811715 $392 -33.264796606797823 $388 $559 forward 7 unknown #
edge $-1 $393 -2.9524203284164893e-014 $558 5.4411277480422147 $244 $560 forward 7 unknown #
coedge $-1 $245 $550 $556 $561 reversed $381 $-1 #
vertex $-1 $561 $562 #
vertex $-1 $246 $563 #
straight-curve $-1 -18.169283087137533 -28.559762086727055 51.822553517409631 0 0 -1 I I #
coedge $-1 $395 $395 $-1 $564 reversed $249 $-1 #
edge $-1 $565 0 $565 6.2831853071796004 $250 $566 forward 7 unknown #
vertex $-1 $253 $567 #
ellipse-curve $-1 -13.166410922472416 -26.602752234220112 7.0670618277349231 0 -0.69465837861970381 0.71933979245794832 1 0 0 1 I I #
coedge $-1 $399 $399 $-1 $568 reversed $256 $-1 #
edge $-1 $569 0 $569 6.2831853071796004 $257 $570 forward 7 unknown #
vertex $-1 $260 $571 #
ellipse-curve $-1 -5.6621026754747277 -26.602752234220112 7.0670618277349231 0 -0.69465837861970381 0.71933979245794832 1 0 0 1 I I #
face $-1 $-1 $572 $56 $-1 $573 forward single #
loop $-1 $-1 $267 $261 #
plane-surface $-1 0 -28.559762086727055 0 0 1 0 0 0 1 forward_v I I I I #
coedge $-1 $574 $575 $576 $577 reversed $262 $-1 #
coedge $-1 $578 $264 $266 $413 forward $165 $-1 #
coedge $-1 $264 $578 $574 $579 forward $165 $-1 #
coedge $-1 $576 $267 $264 $410 forward $404 $-1 #
edge $-1 $416 2.2917770625205129 $580 19.801829638848442 $409 $581 forward 7 unknown #
coedge $-1 $582 $583 $265 $412 forward $572 $-1 #
edge $-1 $584 -37.178816311811715 $415 -33.264796606797823 $411 $585 forward 7 unknown #
edge $-1 $416 -2.9524203284164893e-014 $584 5.4411277480422147 $266 $586 forward 7 unknown #
coedge $-1 $267 $576 $582 $587 reversed $404 $-1 #
vertex $-1 $587 $588 #
vertex $-1 $268 $589 #
straight-curve $-1 13.338580413204991 -28.559762086727055 51.822553517409631 0 0 -1 I I #
coedge $-1 $418 $418 $-1 $590 reversed $271 $-1 #
edge $-1 $591 0 $591 6.2831853071796004 $272 $592 forward 7 unknown #
vertex $-1 $275 $593 #
ellipse-curve $-1 18.341452577870101 -26.602752234220112 7.0670618277349231 0 -0.69465837861970381 0.71933979245794832 1 0 0 1 I I #
coedge $-1 $422 $422 $-1 $594 reversed $278 $-1 #
edge $-1 $595 0 $595 6.2831853071796004 $279 $596 forward 7 unknown #
vertex $-1 $282 $597 #
ellipse-curve $-1 25.845760824867796 -26.602752234220112 7.0670618277349231 0 -0.69465837861970381 0.71933979245794832 1 0 0 1 I I #
face $-1 $-1 $598 $59 $-1 $599 forward single #
loop $-1 $-1 $289 $283 #
plane-surface $-1 0 -28.559762086727055 0 0 1 0 0 0 1 forward_v I I I I #
coedge $-1 $600 $601 $602 $603 reversed $284 $-1 #
coedge $-1 $604 $286 $288 $436 forward $179 $-1 #
coedge $-1 $286 $604 $600 $605 forward $179 $-1 #
coedge $-1 $602 $289 $286 $433 forward $427 $-1 #
edge $-1 $439 18.045708812691778 $606 35.5557613890197 $432 $607 forward 7 unknown #
coedge $-1 $608 $609 $287 $435 forward $598 $-1 #
edge $-1 $610 -37.178816311811715 $438 -33.264796606797823 $434 $611 forward 7 unknown #
edge $-1 $439 -2.9524203284164893e-014 $610 5.4411277480422147 $288 $612 forward 7 unknown #
coedge $-1 $289 $602 $608 $613 reversed $427 $-1 #
vertex $-1 $613 $614 #
vertex $-1 $290 $615 #
straight-curve $-1 44.846443913547517 -28.559762086727055 51.822553517409631 0 0 -1 I I #
coedge $-1 $441 $441 $-1 $616 reversed $293 $-1 #
edge $-1 $617 0 $617 6.2831853071796004 $294 $618 forward 7 unknown #
vertex $-1 $297 $619 #
ellipse-curve $-1 49.849316078212624 -26.602752234220112 7.0670618277349231 0 -0.69465837861970381 0.71933979245794832 1 0 0 1 I I #
coedge $-1 $445 $445 $-1 $620 reversed $300 $-1 #
edge $-1 $621 0 $621 6.2831853071796004 $301 $622 forward 7 unknown #
vertex $-1 $304 $623 #
ellipse-curve $-1 57.353624325210319 -26.602752234220112 7.0670618277349231 0 -0.69465837861970381 0.71933979245794832 1 0 0 1 I I #
face $-1 $-1 $624 $62 $-1 $625 reversed single #
loop $-1 $-1 $626 $305 #
plane-surface $-1 68.443250831629385 0 0 -1 0 0 0 0 1 forward_v I I I I #
coedge $-1 $627 $308 $310 $458 forward $193 $-1 #
coedge $-1 $308 $627 $626 $628 reversed $193 $-1 #
coedge $-1 $629 $311 $308 $455 forward $306 $-1 #
edge $-1 $461 18.023639240018312 $630 39.620954141080141 $454 $631 forward 7 unknown #
coedge $-1 $632 $633 $309 $457 forward $624 $-1 #
edge $-1 $634 -60.065229793621114 $460 -54.878036688894831 $456 $635 forward 7 unknown #
edge $-1 $461 50.862638809113704 $634 57.119524173454145 $310 $636 forward 7 unknown #
coedge $-1 $311 $629 $632 $637 forward $306 $-1 #
vertex $-1 $457 $638 #
vertex $-1 $312 $639 #
straight-curve $-1 46.845935930567542 55.0514921813635 8.9569243173937778 0 -1 0 I I #
coedge $-1 $463 $463 $-1 $640 reversed $315 $-1 #
edge $-1 $641 0 $641 6.2831853071796004 $316 $642 forward 7 unknown #
vertex $-1 $319 $643 #
ellipse-curve $-1 57.644593381098474 26.810359177390716 6.3633277650306441 0 0.82903758062907751 0.55919289150049634 1.5 0 0 1 I I #
face $-1 $-1 $335 $48 $-1 $644 reversed single #
loop $-1 $-1 $483 $320 #
plane-surface $-1 0 28.559762086727055 0 0 -1 0 0 0 -1 forward_v I I I I #
coedge $-1 $645 $481 $484 $646 forward $321 $-1 #
coedge $-1 $487 $323 $324 $475 reversed $202 $-1 #
coedge $-1 $481 $645 $323 $473 reversed $321 $-1 #
edge $-1 $488 -8.9569243173937778 $647 8.9569243173937778 $472 $648 forward 7 unknown #
coedge $-1 $325 $324 $645 $649 forward $129 $-1 #
edge $-1 $479 -68.443250831629385 $647 68.443250831629385 $471 $650 forward 7 unknown #
coedge $-1 $484 $483 $325 $477 reversed $468 $-1 #
edge $-1 $651 -68.443250831629385 $478 68.443250831629385 $476 $652 forward 7 unknown #
vertex $-1 $327 $653 #
vertex $-1 $490 $654 #
straight-curve $-1 68.443250831629385 0 -8.9569243173937778 0 -1 0 I I #
coedge $-1 $470 $472 $328 $482 reversed $321 $-1 #
edge $-1 $485 -28.559762086727055 $488 28.559762086727055 $481 $655 forward 7 unknown #
coedge $-1 $476 $329 $334 $491 forward $468 $-1 #
coedge $-1 $329 $476 $470 $646 reversed $468 $-1 #
vertex $-1 $330 $656 #
straight-curve $-1 0 28.559762086727055 8.9569243173937778 -1 0 0 I I #
coedge $-1 $331 $471 $333 $490 reversed $202 $-1 #
vertex $-1 $482 $657 #
straight-curve $-1 0 -28.559762086727055 8.9569243173937778 1 0 0 I I #
edge $-1 $336 -8.9569243173937778 $479 8.9569243173937778 $333 $658 forward 7 unknown #
edge $-1 $337 -8.9569243173937778 $478 8.9569243173937778 $334 $659 forward 7 unknown #
point $-1 68.443250831629385 -28.559762086727055 8.9569243173937778 #
point $-1 68.443250831629385 28.559762086727055 8.9569243173937778 #
face $-1 $-1 $511 $49 $-1 $660 reversed single #
loop $-1 $-1 $661 $339 #
plane-surface $-1 -68.443250831629385 0 0 1 0 0 0 0 -1 forward_v I I I I #
coedge $-1 $498 $514 $343 $501 forward $340 $-1 #
coedge $-1 $350 $497 $342 $499 forward $340 $-1 #
edge $-1 $505 -1.6176835757508941 $353 2.0664997356590562 $498 $662 forward 7 unknown #
coedge $-1 $344 $343 $661 $663 reversed $133 $-1 #
edge $-1 $664 -36.935387331286861 $505 -26.080339669398185 $497 $665 forward 7 unknown #
coedge $-1 $510 $509 $344 $503 forward $511 $-1 #
edge $-1 $504 26.080339669398185 $666 36.935387331286861 $502 $667 forward 7 unknown #
vertex $-1 $503 $668 #
vertex $-1 $501 $669 #
straight-curve $-1 -57.588203169740709 0 -1.393275495796813 0 -1 0 I I #
coedge $-1 $670 $671 $347 $508 forward $495 $-1 #
edge $-1 $515 -28.559762086727055 $512 28.559762086727055 $507 $672 forward 7 unknown #
coedge $-1 $502 $348 $352 $517 forward $511 $-1 #
coedge $-1 $348 $502 $670 $673 reversed $511 $-1 #
loop $-1 $-1 $502 $494 #
vertex $-1 $673 $674 #
straight-curve $-1 -31.507863500342523 28.559762086727055 2.2909078156131373 1 0 0 I I #
coedge $-1 $497 $350 $671 $675 forward $340 $-1 #
vertex $-1 $675 $676 #
straight-curve $-1 -31.507863500342523 -28.559762086727055 2.2909078156131373 -1 0 0 I I #
edge $-1 $354 -2.0664997356590562 $504 1.6176835757508941 $509 $677 forward 7 unknown #
point $-1 -57.588203169740709 -28.559762086727055 2.2909078156131373 #
point $-1 -57.588203169740709 28.559762086727055 2.2909078156131373 #
plane-surface $-1 0 -28.559762086727055 0 0 1 0 0 0 1 forward_v I I I I #
coedge $-1 $531 $530 $523 $678 forward $357 $-1 #
coedge $-1 $523 $359 $361 $527 reversed $218 $-1 #
coedge $-1 $359 $522 $521 $678 reversed $218 $-1 #
coedge $-1 $367 $362 $359 $525 forward $368 $-1 #
edge $-1 $528 -46.645354179333559 $679 -42.865629200015853 $524 $680 forward 7 unknown #
coedge $-1 $361 $360 $531 $681 reversed $137 $-1 #
edge $-1 $682 -5.4411277480422147 $528 2.9524203284164893e-014 $522 $683 forward 7 unknown #
vertex $-1 $363 $684 #
straight-curve $-1 -20.461060149658046 -28.559762086727055 5.1771993380760719 1 0 0 I I #
coedge $-1 $521 $364 $367 $535 forward $357 $-1 #
coedge $-1 $364 $521 $526 $681 forward $357 $-1 #
vertex $-1 $365 $685 #
straight-curve $-1 -49.677146587480053 -61.824558693524878 8.9569243173937778 0 -1 0 I I #
straight-curve $-1 -49.677146587480053 -28.559762086727034 5.1771993380760932 0 0.71933979245794832 0.69465837861970381 I I #
edge $-1 $369 -49.677146587480053 $679 -32.16709401115213 $367 $686 forward 7 unknown #
point $-1 -49.677146587480053 -28.559762086727055 8.9569243173937778 #
point $-1 -49.677146587480053 -28.559762086727055 5.1771993380760728 #
edge $-1 $687 1 $687 0 $372 $-1 forward 7 unknown #
vertex $-1 $373 $688 #
ellipse-curve $-1 -44.674274422814939 -24.198149231353227 4.5770225821664532 0 -0.69465837861970381 0.71933979245794832 1 0 0 1 I I #
point $-1 -43.674274422814939 -26.602752234220134 7.0670618277349462 #
edge $-1 $689 1 $689 0 $376 $-1 forward 7 unknown #
vertex $-1 $377 $690 #
ellipse-curve $-1 -37.169966175817251 -24.198149231353227 4.5770225821664532 0 -0.69465837861970381 0.71933979245794832 1 0 0 1 I I #
point $-1 -36.169966175817251 -26.602752234220134 7.0670618277349462 #
loop $-1 $-1 $388 $380 #
plane-surface $-1 0 0 8.9569243173937778 0 0 1 1 0 0 forward_v I I I I #
coedge $-1 $549 $383 $385 $553 reversed $240 $-1 #
coedge $-1 $383 $548 $691 $692 reversed $240 $-1 #
coedge $-1 $391 $386 $383 $551 forward $381 $-1 #
edge $-1 $554 -46.645354179333559 $693 -42.865629200015853 $550 $694 forward 7 unknown #
coedge $-1 $385 $384 $557 $695 reversed $151 $-1 #
edge $-1 $696 -5.4411277480422147 $554 2.9524203284164893e-014 $548 $697 forward 7 unknown #
vertex $-1 $387 $698 #
straight-curve $-1 -4.7071283994867841 -28.559762086727055 5.1771993380760719 1 0 0 I I #
coedge $-1 $691 $388 $391 $561 forward $546 $-1 #
coedge $-1 $388 $691 $552 $695 forward $546 $-1 #
vertex $-1 $389 $699 #
straight-curve $-1 -18.169283087137533 -61.824558693524878 8.9569243173937778 0 -1 0 I I #
straight-curve $-1 -18.169283087137533 -28.559762086727034 5.1771993380760932 0 0.71933979245794832 0.69465837861970381 I I #
edge $-1 $392 -18.169283087137533 $693 -0.65923051080960349 $391 $700 forward 7 unknown #
point $-1 -18.169283087137533 -28.559762086727055 8.9569243173937778 #
point $-1 -18.169283087137533 -28.559762086727055 5.1771993380760728 #
edge $-1 $701 1 $701 0 $395 $-1 forward 7 unknown #
vertex $-1 $396 $702 #
ellipse-curve $-1 -13.166410922472416 -24.198149231353227 4.5770225821664532 0 -0.69465837861970381 0.71933979245794832 1 0 0 1 I I #
point $-1 -12.166410922472416 -26.602752234220134 7.0670618277349462 #
edge $-1 $703 1 $703 0 $399 $-1 forward 7 unknown #
vertex $-1 $400 $704 #
ellipse-curve $-1 -5.6621026754747277 -24.198149231353227 4.5770225821664532 0 -0.69465837861970381 0.71933979245794832 1 0 0 1 I I #
point $-1 -4.6621026754747277 -26.602752234220134 7.0670618277349462 #
loop $-1 $-1 $411 $403 #
plane-surface $-1 0 0 8.9569243173937778 0 0 1 1 0 0 forward_v I I I I #
coedge $-1 $575 $406 $408 $579 reversed $262 $-1 #
coedge $-1 $406 $574 $705 $706 reversed $262 $-1 #
coedge $-1 $414 $409 $406 $577 forward $404 $-1 #
edge $-1 $580 -46.645354179333559 $707 -42.865629200015853 $576 $708 forward 7 unknown #
coedge $-1 $408 $407 $583 $709 reversed $165 $-1 #
edge $-1 $710 -5.4411277480422147 $580 2.9524203284164893e-014 $574 $711 forward 7 unknown #
vertex $-1 $410 $712 #
straight-curve $-1 11.046803350684478 -28.559762086727055 5.1771993380760719 1 0 0 I I #
coedge $-1 $705 $411 $414 $587 forward $572 $-1 #
coedge $-1 $411 $705 $578 $709 forward $572 $-1 #
vertex $-1 $412 $713 #
straight-curve $-1 13.338580413204991 -61.824558693524878 8.9569243173937778 0 -1 0 I I #
straight-curve $-1 13.338580413204991 -28.559762086727034 5.1771993380760932 0 0.71933979245794832 0.69465837861970381 I I #
edge $-1 $415 13.338580413204991 $707 30.84863298953292 $414 $714 forward 7 unknown #
point $-1 13.338580413204991 -28.559762086727055 8.9569243173937778 #
point $-1 13.338580413204991 -28.559762086727055 5.1771993380760728 #
edge $-1 $715 1 $715 0 $418 $-1 forward 7 unknown #
vertex $-1 $419 $716 #
ellipse-curve $-1 18.341452577870101 -24.198149231353227 4.5770225821664532 0 -0.69465837861970381 0.71933979245794832 1 0 0 1 I I #
point $-1 19.341452577870101 -26.602752234220134 7.0670618277349462 #
edge $-1 $717 1 $717 0 $422 $-1 forward 7 unknown #
vertex $-1 $423 $718 #
ellipse-curve $-1 25.845760824867796 -24.198149231353227 4.5770225821664532 0 -0.69465837861970381 0.71933979245794832 1 0 0 1 I I #
point $-1 26.845760824867796 -26.602752234220134 7.0670618277349462 #
loop $-1 $-1 $434 $426 #
plane-surface $-1 0 0 8.9569243173937778 0 0 1 1 0 0 forward_v I I I I #
coedge $-1 $601 $429 $431 $605 reversed $284 $-1 #
coedge $-1 $429 $600 $719 $720 reversed $284 $-1 #
coedge $-1 $437 $432 $429 $603 forward $427 $-1 #
edge $-1 $606 -46.645354179333559 $721 -42.865629200015853 $602 $722 forward 7 unknown #
coedge $-1 $431 $430 $609 $723 reversed $179 $-1 #
edge $-1 $724 -5.4411277480422147 $606 2.9524203284164893e-014 $600 $725 forward 7 unknown #
vertex $-1 $433 $726 #
straight-curve $-1 26.800735100855739 -28.559762086727055 5.1771993380760719 1 0 0 I I #
coedge $-1 $719 $434 $437 $613 forward $598 $-1 #
coedge $-1 $434 $719 $604 $723 forward $598 $-1 #
vertex $-1 $435 $727 #
straight-curve $-1 44.846443913547517 -61.824558693524878 8.9569243173937778 0 -1 0 I I #
straight-curve $-1 44.846443913547517 -28.559762086727034 5.1771993380760932 0 0.71933979245794832 0.69465837861970381 I I #
edge $-1 $438 44.846443913547517 $721 62.35649648987544 $437 $728 forward 7 unknown #
point $-1 44.846443913547517 -28.559762086727055 8.9569243173937778 #
point $-1 44.846443913547517 -28.559762086727055 5.1771993380760728 #
edge $-1 $729 1 $729 0 $441 $-1 forward 7 unknown #
vertex $-1 $442 $730 #
ellipse-curve $-1 49.849316078212624 -24.198149231353227 4.5770225821664532 0 -0.69465837861970381 0.71933979245794832 1 0 0 1 I I #
point $-1 50.849316078212624 -26.602752234220134 7.0670618277349462 #
edge $-1 $731 1 $731 0 $445 $-1 forward 7 unknown #
vertex $-1 $446 $732 #
ellipse-curve $-1 57.353624325210319 -24.198149231353227 4.5770225821664532 0 -0.69465837861970381 0.71933979245794832 1 0 0 1 I I #
point $-1 58.353624325210319 -26.602752234220134 7.0670618277349462 #
loop $-1 $-1 $456 $449 #
plane-surface $-1 0 28.559762086727055 0 0 -1 0 0 0 -1 forward_v I I I I #
coedge $-1 $733 $734 $453 $628 forward $450 $-1 #
coedge $-1 $453 $452 $633 $735 reversed $193 $-1 #
edge $-1 $630 28.725460271222317 $736 34.982345635562758 $626 $737 forward 7 unknown #
coedge $-1 $459 $454 $734 $738 forward $306 $-1 #
vertex $-1 $738 $739 #
straight-curve $-1 28.82229669054923 25.060956268054387 8.9569243173937778 1 0 0 I I #
coedge $-1 $740 $456 $459 $637 reversed $624 $-1 #
coedge $-1 $456 $740 $627 $735 forward $624 $-1 #
vertex $-1 $457 $741 #
straight-curve $-1 46.845935930567542 28.559762086727055 63.834961006288609 0 0 1 I I #
straight-curve $-1 46.845935930567542 -3.3810697969592667 51.123963340112027 0 0.55919289150049634 -0.82903758062907751 I I #
edge $-1 $742 -68.443250831629385 $460 -46.845935930567542 $632 $743 forward 7 unknown #
point $-1 46.845935930567542 28.559762086727055 8.9569243173937778 #
point $-1 46.845935930567542 25.060956268054387 8.9569243173937778 #
edge $-1 $744 1 $744 0 $463 $-1 forward 7 unknown #
vertex $-1 $464 $745 #
ellipse-curve $-1 57.644593381098474 24.62534027115252 4.8895139492137005 0 0.82903758062907751 0.55919289150049634 1.5 0 0 1 I I #
point $-1 59.144593381098474 26.81035917739074 6.363327765030661 #
plane-surface $-1 68.443250831629385 0 0 -1 0 0 0 0 1 forward_v I I I I #
coedge $-1 $472 $470 $474 $649 reversed $321 $-1 #
edge $-1 $485 -8.9569243173937778 $651 8.9569243173937778 $484 $746 forward 7 unknown #
vertex $-1 $649 $747 #
straight-curve $-1 -68.443250831629385 -28.559762086727055 0 0 0 -1 I I #
edge $-1 $647 -28.559762086727055 $651 28.559762086727055 $645 $748 forward 7 unknown #
straight-curve $-1 0 -28.559762086727055 -8.9569243173937778 -1 0 0 I I #
vertex $-1 $477 $749 #
straight-curve $-1 0 28.559762086727055 -8.9569243173937778 1 0 0 I I #
point $-1 68.443250831629385 28.559762086727055 -8.9569243173937778 #
point $-1 68.443250831629385 -28.559762086727055 -8.9569243173937778 #
straight-curve $-1 -68.443250831629385 0 8.9569243173937778 0 -1 0 I I #
point $-1 -68.443250831629385 28.559762086727055 8.9569243173937778 #
point $-1 -68.443250831629385 -28.559762086727055 8.9569243173937778 #
straight-curve $-1 68.443250831629385 -28.559762086727055 0 0 0 -1 I I #
straight-curve $-1 68.443250831629385 28.559762086727055 0 0 0 -1 I I #
plane-surface $-1 0 28.559762086727055 0 0 -1 0 0 0 -1 forward_v I I I I #
coedge $-1 $671 $670 $500 $663 forward $495 $-1 #
straight-curve $-1 -57.588203169740709 -28.559762086727055 0.22440807995408107 0 0 1 I I #
edge $-1 $666 -28.559762086727055 $664 28.559762086727055 $661 $750 forward 7 unknown #
vertex $-1 $501 $751 #
straight-curve $-1 -31.507863500342523 -28.559762086727055 -1.393275495796813 1 0 0 I I #
vertex $-1 $503 $752 #
straight-curve $-1 -31.507863500342523 28.559762086727055 -1.393275495796813 -1 0 0 I I #
point $-1 -57.588203169740709 28.559762086727055 -1.393275495796813 #
point $-1 -57.588203169740709 -28.559762086727055 -1.393275495796813 #
coedge $-1 $661 $507 $510 $673 forward $495 $-1 #
coedge $-1 $507 $661 $514 $675 reversed $495 $-1 #
straight-curve $-1 -68.443250831629385 0 2.2909078156131373 0 1 0 I I #
edge $-1 $512 -2.2909078156131373 $666 1.393275495796813 $510 $753 forward 7 unknown #
point $-1 -68.443250831629385 28.559762086727055 2.2909078156131373 #
edge $-1 $515 -2.2909078156131373 $664 1.393275495796813 $671 $754 forward 7 unknown #
point $-1 -68.443250831629385 -28.559762086727055 2.2909078156131373 #
straight-curve $-1 -57.588203169740709 28.559762086727055 0.22440807995408107 0 0 -1 I I #
edge $-1 $679 33.264796606797823 $682 37.178816311811715 $521 $755 forward 7 unknown #
vertex $-1 $678 $756 #
straight-curve $-1 -32.16709401115213 -28.559762086727055 51.822553517409631 0 0 1 I I #
edge $-1 $682 11.706033861494085 $532 29.216086437822007 $531 $757 forward 7 unknown #
vertex $-1 $681 $758 #
straight-curve $-1 -32.16709401115213 -28.559762086727034 5.1771993380760932 0 -0.71933979245794832 -0.69465837861970381 I I #
point $-1 -32.16709401115213 -28.559762086727055 5.1771993380760728 #
point $-1 -49.677146587480053 -24.645742381713163 8.9569243173937778 #
straight-curve $-1 0 -28.559762086727055 8.9569243173937778 1 0 0 I I #
vertex $-1 $538 $759 #
point $-1 -43.674274422814939 -24.198149231353227 4.5770225821664532 #
vertex $-1 $542 $760 #
point $-1 -36.169966175817251 -24.198149231353227 4.5770225821664532 #
coedge $-1 $557 $556 $549 $692 forward $546 $-1 #
edge $-1 $693 33.264796606797823 $696 37.178816311811715 $691 $761 forward 7 unknown #
vertex $-1 $692 $762 #
straight-curve $-1 -0.65923051080960349 -28.559762086727055 51.822553517409631 0 0 1 I I #
edge $-1 $696 -4.0478978886771806 $558 13.462154687650749 $557 $763 forward 7 unknown #
vertex $-1 $695 $764 #
straight-curve $-1 -0.65923051080960349 -28.559762086727034 5.1771993380760932 0 -0.71933979245794832 -0.69465837861970381 I I #
point $-1 -0.65923051080960349 -28.559762086727055 5.1771993380760728 #
point $-1 -18.169283087137533 -24.645742381713163 8.9569243173937778 #
straight-curve $-1 0 -28.559762086727055 8.9569243173937778 1 0 0 I I #
vertex $-1 $564 $765 #
point $-1 -12.166410922472416 -24.198149231353227 4.5770225821664532 #
vertex $-1 $568 $766 #
point $-1 -4.6621026754747277 -24.198149231353227 4.5770225821664532 #
coedge $-1 $583 $582 $575 $706 forward $572 $-1 #
edge $-1 $707 33.264796606797823 $710 37.178816311811715 $705 $767 forward 7 unknown #
vertex $-1 $706 $768 #
straight-curve $-1 30.84863298953292 -28.559762086727055 51.822553517409631 0 0 1 I I #
edge $-1 $710 -19.801829638848442 $584 -2.2917770625205129 $583 $769 forward 7 unknown #
vertex $-1 $709 $770 #
straight-curve $-1 30.84863298953292 -28.559762086727034 5.1771993380760932 0 -0.71933979245794832 -0.69465837861970381 I I #
point $-1 30.84863298953292 -28.559762086727055 5.1771993380760728 #
point $-1 13.338580413204991 -24.645742381713163 8.9569243173937778 #
straight-curve $-1 0 -28.559762086727055 8.9569243173937778 1 0 0 I I #
vertex $-1 $590 $771 #
point $-1 19.341452577870101 -24.198149231353227 4.5770225821664532 #
vertex $-1 $594 $772 #
point $-1 26.845760824867796 -24.198149231353227 4.5770225821664532 #
coedge $-1 $609 $608 $601 $720 forward $598 $-1 #
edge $-1 $721 33.264796606797823 $724 37.178816311811715 $719 $773 forward 7 unknown #
vertex $-1 $720 $774 #
straight-curve $-1 62.35649648987544 -28.559762086727055 51.822553517409631 0 0 1 I I #
edge $-1 $724 -35.5557613890197 $610 -18.045708812691778 $609 $775 forward 7 unknown #
vertex $-1 $723 $776 #
straight-curve $-1 62.35649648987544 -28.559762086727034 5.1771993380760932 0 -0.71933979245794832 -0.69465837861970381 I I #
point $-1 62.35649648987544 -28.559762086727055 5.1771993380760728 #
point $-1 44.846443913547517 -24.645742381713163 8.9569243173937778 #
straight-curve $-1 0 -28.559762086727055 8.9569243173937778 1 0 0 I I #
vertex $-1 $616 $777 #
point $-1 50.849316078212624 -24.198149231353227 4.5770225821664532 #
vertex $-1 $620 $778 #
point $-1 58.353624325210319 -24.198149231353227 4.5770225821664532 #
coedge $-1 $734 $626 $740 $779 reversed $450 $-1 #
coedge $-1 $626 $733 $629 $738 reversed $450 $-1 #
edge $-1 $736 -39.620954141080141 $634 -18.023639240018312 $633 $780 forward 7 unknown #
vertex $-1 $628 $781 #
straight-curve $-1 68.443250831629385 8.9978830793069484 32.771410403104611 0 0.55919289150049634 -0.82903758062907751 I I #
edge $-1 $630 25.060956268054387 $742 28.559762086727055 $734 $782 forward 7 unknown #
point $-1 68.443250831629371 25.060956268054387 8.9569243173937778 #
coedge $-1 $633 $632 $733 $779 forward $624 $-1 #
point $-1 46.845935930567542 28.559762086727055 3.7697312126674944 #
vertex $-1 $738 $783 #
straight-curve $-1 0 28.559762086727055 8.9569243173937778 -1 0 0 I I #
vertex $-1 $640 $784 #
point $-1 59.144593381098474 24.62534027115252 4.8895139492137005 #
straight-curve $-1 -68.443250831629385 28.559762086727055 0 0 0 -1 I I #
point $-1 -68.443250831629385 -28.559762086727055 -8.9569243173937778 #
straight-curve $-1 -68.443250831629385 0 -8.9569243173937778 0 1 0 I I #
point $-1 -68.443250831629385 28.559762086727055 -8.9569243173937778 #
straight-curve $-1 -68.443250831629385 0 -1.393275495796813 0 -1 0 I I #
point $-1 -68.443250831629385 -28.559762086727055 -1.393275495796813 #
point $-1 -68.443250831629385 28.559762086727055 -1.393275495796813 #
straight-curve $-1 -68.443250831629385 28.559762086727055 0 0 0 -1 I I #
straight-curve $-1 -68.443250831629385 -28.559762086727055 0 0 0 -1 I I #
straight-curve $-1 -32.16709401115213 -61.824558693524878 8.9569243173937778 0 1 0 I I #
point $-1 -32.16709401115213 -28.559762086727055 8.9569243173937778 #
straight-curve $-1 -20.461060149658046 -24.645742381713163 8.9569243173937778 -1 0 0 I I #
point $-1 -32.16709401115213 -24.645742381713163 8.9569243173937778 #
point $-1 -44.674274422814939 -23.50349085273352 3.8576827897085053 #
point $-1 -37.169966175817251 -23.50349085273352 3.8576827897085053 #
straight-curve $-1 -0.65923051080960349 -61.824558693524878 8.9569243173937778 0 1 0 I I #
point $-1 -0.65923051080960349 -28.559762086727055 8.9569243173937778 #
straight-curve $-1 -4.7071283994867841 -24.645742381713163 8.9569243173937778 -1 0 0 I I #
point $-1 -0.65923051080960349 -24.645742381713163 8.9569243173937778 #
point $-1 -13.166410922472416 -23.50349085273352 3.8576827897085053 #
point $-1 -5.6621026754747277 -23.50349085273352 3.8576827897085053 #
straight-curve $-1 30.84863298953292 -61.824558693524878 8.9569243173937778 0 1 0 I I #
point $-1 30.84863298953292 -28.559762086727055 8.9569243173937778 #
straight-curve $-1 11.046803350684478 -24.645742381713163 8.9569243173937778 -1 0 0 I I #
point $-1 30.84863298953292 -24.645742381713163 8.9569243173937778 #
point $-1 18.341452577870101 -23.50349085273352 3.8576827897085053 #
point $-1 25.845760824867796 -23.50349085273352 3.8576827897085053 #
straight-curve $-1 62.35649648987544 -61.824558693524878 8.9569243173937778 0 1 0 I I #
point $-1 62.35649648987544 -28.559762086727055 8.9569243173937778 #
straight-curve $-1 26.800735100855739 -24.645742381713163 8.9569243173937778 -1 0 0 I I #
point $-1 62.35649648987544 -24.645742381713163 8.9569243173937778 #
point $-1 49.849316078212624 -23.50349085273352 3.8576827897085053 #
point $-1 57.353624325210319 -23.50349085273352 3.8576827897085053 #
edge $-1 $742 -8.9569243173937778 $736 -3.7697312126674944 $733 $785 forward 7 unknown #
straight-curve $-1 28.82229669054923 28.559762086727055 3.7697312126674909 -1 0 0 I I #
point $-1 68.443250831629371 28.559762086727055 3.7697312126674944 #
straight-curve $-1 68.443250831629385 0 8.9569243173937778 0 1 0 I I #
point $-1 68.443250831629385 28.559762086727055 8.9569243173937778 #
point $-1 57.644593381098474 23.381783900208905 4.0507246119629556 #
straight-curve $-1 68.443250831629385 28.559762086727055 0 0 0 -1 I I #
End-of-ACIS-data 