500 0 8 0           
7 Unknown 11 ACIS 5.0 NT 24 Fri Mar 26 17:47:01 1999 
-1 9.9999999999999995e-007 1e-010 
body $-1 $8 $-1 $9 #
body $-1 $10 $-1 $11 #
body $-1 $12 $-1 $13 #
body $-1 $14 $-1 $15 #
body $-1 $16 $-1 $17 #
body $-1 $18 $-1 $19 #
body $-1 $20 $-1 $21 #
body $-1 $22 $-1 $23 #
lump $-1 $-1 $24 $0 #
transform $-1 1 0 0 0 1 0 0 0 1 61.438642536698509 31.028511372853831 12.175994291037602 1 rotate no_reflect no_shear #
lump $-1 $-1 $25 $1 #
transform $-1 1 0 0 0 1 0 0 0 1 61.438642536698509 31.028511372853831 12.175994291037602 1 rotate no_reflect no_shear #
lump $-1 $-1 $26 $2 #
transform $-1 1 0 0 0 1 0 0 0 1 61.438642536698509 31.028511372853831 12.175994291037602 1 rotate no_reflect no_shear #
lump $-1 $-1 $27 $3 #
transform $-1 1 0 0 0 1 0 0 0 1 61.438642536698509 31.028511372853831 12.175994291037602 1 rotate no_reflect no_shear #
lump $-1 $-1 $28 $4 #
transform $-1 1 0 0 0 1 0 0 0 1 61.438642536698509 31.028511372853831 12.175994291037602 1 rotate no_reflect no_shear #
lump $-1 $-1 $29 $5 #
transform $-1 1 0 0 0 1 0 0 0 1 61.438642536698509 31.028511372853831 12.175994291037602 1 rotate no_reflect no_shear #
lump $-1 $-1 $30 $6 #
transform $-1 1 0 0 0 1 0 0 0 1 61.438642536698509 31.028511372853831 12.175994291037602 1 rotate no_reflect no_shear #
lump $-1 $-1 $31 $7 #
transform $-1 1 0 0 0 1 0 0 0 1 61.438642536698509 31.028511372853831 12.175994291037602 1 rotate no_reflect no_shear #
shell $-1 $-1 $-1 $32 $-1 $8 #
shell $-1 $-1 $-1 $33 $-1 $10 #
shell $-1 $-1 $-1 $34 $-1 $12 #
shell $-1 $-1 $-1 $35 $-1 $14 #
shell $-1 $-1 $-1 $36 $-1 $16 #
shell $-1 $-1 $-1 $37 $-1 $18 #
shell $-1 $-1 $-1 $38 $-1 $20 #
shell $-1 $-1 $-1 $39 $-1 $22 #
face $-1 $40 $41 $24 $-1 $42 reversed single #
face $-1 $43 $44 $25 $-1 $45 forward single #
face $-1 $46 $47 $26 $-1 $48 forward single #
face $-1 $49 $50 $27 $-1 $51 reversed single #
face $-1 $52 $53 $28 $-1 $54 forward single #
face $-1 $55 $56 $29 $-1 $57 reversed single #
face $-1 $58 $59 $30 $-1 $60 forward single #
face $-1 $61 $62 $31 $-1 $63 forward single #
face $-1 $64 $65 $24 $-1 $66 reversed single #
loop $-1 $-1 $67 $32 #
plane-surface $-1 61.438642536698509 0 0 -1 0 0 0 0 1 forward_v I I I I #
face $-1 $68 $69 $25 $-1 $70 reversed single #
loop $-1 $-1 $71 $33 #
plane-surface $-1 -61.438642536698509 0 0 1 0 0 0 0 -1 forward_v I I I I #
face $-1 $72 $73 $26 $-1 $74 reversed single #
loop $-1 $-1 $75 $34 #
plane-surface $-1 61.438642536698509 0 0 -1 0 0 0 0 1 forward_v I I I I #
face $-1 $76 $77 $27 $-1 $78 reversed single #
loop $-1 $-1 $79 $35 #
plane-surface $-1 49.439957655613334 -99.740618076678714 110.60846098953972 -1 0 0 0 -0.55919291073839883 0.82903756765294845 forward_v I I I I #
face $-1 $80 $81 $28 $-1 $82 forward single #
loop $-1 $83 $84 $36 #
cone-surface $-1 40.158366435223755 -27.70158247775365 9.3026109011922777 0 0.55919291073839883 -0.82903756765294845 1.5 0 0 1 I I 0 1 1.5 forward I I I I #
face $-1 $85 $86 $29 $-1 $87 reversed single #
loop $-1 $-1 $88 $37 #
plane-surface $-1 10.659469255810912 104.39317437913975 118.54444764637637 1 0 0 0 -0.85716730853699208 -0.51503806187062418 forward_v I I I I #
face $-1 $89 $90 $30 $-1 $91 forward single #
loop $-1 $92 $93 $38 #
cone-surface $-1 15.65267455854935 26.993807482411356 6.5213159912612619 0 -0.85716730853699208 -0.51503806187062418 1.5 0 0 1 I I 0 1 1.5 forward I I I I #
face $-1 $94 $95 $31 $-1 $96 forward single #
loop $-1 $97 $98 $39 #
cone-surface $-1 23.142482512657011 26.993807482411356 6.5213159912612619 0 -0.85716730853699208 -0.51503806187062418 1.5 0 0 1 I I 0 1 1.5 forward I I I I #
face $-1 $99 $100 $24 $-1 $101 forward single #
loop $-1 $-1 $102 $40 #
plane-surface $-1 -61.438642536698509 0 0 1 0 0 0 0 -1 forward_v I I I I #
coedge $-1 $103 $104 $105 $106 reversed $41 $-1 #
face $-1 $107 $108 $25 $-1 $109 reversed single #
loop $-1 $-1 $110 $43 #
plane-surface $-1 0 0 -12.175994291037602 0 0 1 1 0 0 forward_v I I I I #
coedge $-1 $111 $112 $113 $114 forward $44 $-1 #
face $-1 $115 $116 $26 $-1 $117 reversed single #
loop $-1 $-1 $118 $46 #
plane-surface $-1 0 0 -12.175994291037602 0 0 1 1 0 0 forward_v I I I I #
coedge $-1 $119 $120 $121 $122 forward $47 $-1 #
face $-1 $123 $124 $27 $-1 $125 reversed single #
loop $-1 $-1 $126 $49 #
plane-surface $-1 40.158366435223755 -31.028511372853828 8.7385754524927108 0 -0.55919291073839883 0.82903756765294845 1 0 0 forward_v I I I I #
coedge $-1 $127 $128 $129 $130 reversed $50 $-1 #
face $-1 $-1 $131 $28 $-1 $132 forward single #
loop $-1 $133 $134 $52 #
cone-surface $-1 40.158366435223755 -26.503350352644624 7.52615875487969 0 0.55919291073839883 -0.82903756765294845 0.75 0 0 1 I I -0.70710678118654757 0.70710678118654757 0.75 forward I I I I #
loop $-1 $-1 $135 $36 #
coedge $-1 $84 $84 $136 $137 reversed $53 $-1 #
face $-1 $138 $139 $29 $-1 $140 reversed single #
loop $-1 $-1 $141 $55 #
plane-surface $-1 19.397578535603188 -0.93321734755667762 55.257968894249792 0 0.85716730853699208 0.51503806187062418 1 0 0 forward_v I I I I #
coedge $-1 $142 $143 $144 $145 reversed $56 $-1 #
face $-1 $-1 $146 $30 $-1 $147 forward single #
loop $-1 $148 $149 $58 #
cone-surface $-1 15.65267455854935 25.35396195225589 5.5359974248544237 0 -0.85716730853699208 -0.51503806187062418 0.75 0 0 1 I I -0.70710678118654757 0.70710678118654757 0.75 forward I I I I #
loop $-1 $-1 $150 $38 #
coedge $-1 $93 $93 $151 $152 reversed $59 $-1 #
face $-1 $-1 $153 $31 $-1 $154 forward single #
loop $-1 $155 $156 $61 #
cone-surface $-1 23.142482512657011 25.35396195225589 5.5359974248544237 0 -0.85716730853699208 -0.51503806187062418 0.75 0 0 1 I I -0.70710678118654757 0.70710678118654757 0.75 forward I I I I #
loop $-1 $-1 $157 $39 #
coedge $-1 $98 $98 $158 $159 reversed $62 $-1 #
face $-1 $160 $161 $24 $-1 $162 reversed single #
loop $-1 $-1 $163 $64 #
plane-surface $-1 0 0 12.175994291037602 0 0 1 1 0 0 forward_v I I I I #
coedge $-1 $164 $165 $166 $167 reversed $65 $-1 #
coedge $-1 $168 $67 $169 $170 reversed $41 $-1 #
coedge $-1 $67 $168 $171 $172 forward $41 $-1 #
coedge $-1 $173 $174 $67 $106 forward $161 $-1 #
edge $-1 $175 -31.028511372853831 $176 31.028511372853831 $67 $177 forward 7 unknown #
face $-1 $178 $179 $25 $-1 $180 reversed single #
loop $-1 $-1 $181 $68 #
plane-surface $-1 -67.437984977241086 -9.6765227907786269 0 0 1 0 0 0 1 forward_v I I I I #
coedge $-1 $182 $183 $112 $184 forward $69 $-1 #
coedge $-1 $185 $71 $186 $187 reversed $44 $-1 #
coedge $-1 $71 $185 $110 $184 reversed $44 $-1 #
coedge $-1 $188 $189 $71 $114 reversed $190 $-1 #
edge $-1 $191 -12.175994291037602 $192 12.175994291037602 $113 $193 forward 7 unknown #
face $-1 $194 $195 $26 $-1 $196 reversed single #
loop $-1 $-1 $121 $72 #
plane-surface $-1 67.437984977241072 -9.6765227907786269 0 0 1 0 0 0 1 forward_v I I I I #
coedge $-1 $197 $198 $120 $199 forward $73 $-1 #
coedge $-1 $200 $75 $201 $202 reversed $47 $-1 #
coedge $-1 $75 $200 $118 $199 reversed $47 $-1 #
coedge $-1 $203 $204 $75 $122 reversed $116 $-1 #
edge $-1 $205 -12.175994291037602 $206 12.175994291037602 $121 $207 forward 7 unknown #
face $-1 $208 $209 $27 $-1 $210 forward single #
loop $-1 $-1 $211 $76 #
plane-surface $-1 30.876775214834176 -99.740618076678714 110.60846098953972 1 0 0 0 0.55919291073839883 -0.82903756765294845 forward_v I I I I #
coedge $-1 $212 $213 $214 $215 reversed $77 $-1 #
coedge $-1 $128 $79 $216 $217 reversed $50 $-1 #
coedge $-1 $79 $127 $212 $218 reversed $50 $-1 #
coedge $-1 $214 $219 $79 $130 forward $209 $-1 #
edge $-1 $220 18.841797665485526 $221 23.937980571575423 $129 $222 forward 7 unknown #
loop $-1 $-1 $136 $80 #
plane-surface $-1 40.158366435223755 -31.028511372853828 8.7385754524927108 0 -0.55919291073839883 0.82903756765294845 1 0 0 forward_v I I I I #
loop $-1 $-1 $223 $52 #
coedge $-1 $134 $134 $135 $224 reversed $81 $-1 #
coedge $-1 $135 $135 $134 $224 forward $83 $-1 #
coedge $-1 $136 $136 $84 $137 forward $131 $-1 #
edge $-1 $225 -1.3244348687123848e-015 $225 6.2831853071795996 $136 $226 forward 7 unknown #
face $-1 $227 $228 $29 $-1 $229 reversed single #
loop $-1 $-1 $230 $85 #
plane-surface $-1 28.135687815395464 104.39317437913975 118.54444764637637 -1 0 0 0 0.85716730853699208 0.51503806187062418 forward_v I I I I #
coedge $-1 $231 $232 $233 $234 reversed $86 $-1 #
coedge $-1 $143 $88 $235 $236 reversed $56 $-1 #
coedge $-1 $88 $142 $231 $237 reversed $56 $-1 #
coedge $-1 $233 $238 $88 $145 forward $239 $-1 #
edge $-1 $240 21.168075816716044 $241 27.243543500095562 $144 $242 forward 7 unknown #
loop $-1 $-1 $151 $89 #
plane-surface $-1 19.397578535603188 -0.93321734755667762 55.257968894249792 0 0.85716730853699208 0.51503806187062418 1 0 0 forward_v I I I I #
loop $-1 $-1 $243 $58 #
coedge $-1 $149 $149 $150 $244 reversed $90 $-1 #
coedge $-1 $150 $150 $149 $244 forward $92 $-1 #
coedge $-1 $151 $151 $93 $152 forward $146 $-1 #
edge $-1 $245 0 $245 6.2831853071796004 $151 $246 forward 7 unknown #
loop $-1 $-1 $158 $94 #
plane-surface $-1 19.397578535603188 -0.93321734755667762 55.257968894249792 0 0.85716730853699208 0.51503806187062418 1 0 0 forward_v I I I I #
loop $-1 $-1 $247 $61 #
coedge $-1 $156 $156 $157 $248 reversed $95 $-1 #
coedge $-1 $157 $157 $156 $248 forward $97 $-1 #
coedge $-1 $158 $158 $98 $159 forward $153 $-1 #
edge $-1 $249 0 $249 6.2831853071796004 $158 $250 forward 7 unknown #
face $-1 $251 $252 $24 $-1 $253 reversed single #
loop $-1 $-1 $105 $99 #
plane-surface $-1 0 0 -12.175994291037602 0 0 1 1 0 0 forward_v I I I I #
coedge $-1 $254 $255 $168 $256 forward $100 $-1 #
coedge $-1 $257 $102 $258 $259 reversed $65 $-1 #
coedge $-1 $102 $257 $260 $261 forward $65 $-1 #
coedge $-1 $174 $173 $102 $167 forward $161 $-1 #
edge $-1 $262 -31.028511372853831 $263 31.028511372853831 $102 $264 forward 7 unknown #
coedge $-1 $104 $103 $163 $256 reversed $41 $-1 #
coedge $-1 $265 $266 $103 $170 forward $267 $-1 #
edge $-1 $268 -12.175994291037602 $175 12.175994291037602 $103 $269 forward 7 unknown #
coedge $-1 $270 $271 $104 $172 reversed $252 $-1 #
edge $-1 $272 -12.175994291037602 $176 12.175994291037602 $104 $273 forward 7 unknown #
coedge $-1 $166 $105 $271 $274 forward $161 $-1 #
coedge $-1 $105 $166 $265 $275 forward $161 $-1 #
vertex $-1 $106 $276 #
vertex $-1 $172 $277 #
straight-curve $-1 61.438642536698509 0 -12.175994291037602 0 -1 0 I I #
face $-1 $278 $190 $25 $-1 $279 reversed single #
loop $-1 $-1 $280 $107 #
plane-surface $-1 -73.437327417783663 -8.1765227907786269 0 1 0 0 0 0 -1 forward_v I I I I #
coedge $-1 $281 $282 $283 $284 forward $108 $-1 #
coedge $-1 $285 $110 $281 $286 forward $69 $-1 #
coedge $-1 $110 $285 $188 $287 forward $69 $-1 #
edge $-1 $191 6.6765227907786269 $288 9.6765227907786269 $110 $289 forward 7 unknown #
coedge $-1 $112 $111 $290 $291 forward $44 $-1 #
coedge $-1 $292 $293 $111 $187 forward $294 $-1 #
edge $-1 $295 -9.6765227907786269 $192 -6.6765227907786269 $186 $296 forward 7 unknown #
coedge $-1 $297 $113 $183 $287 reversed $190 $-1 #
coedge $-1 $113 $297 $292 $298 reversed $190 $-1 #
loop $-1 $-1 $113 $178 #
vertex $-1 $184 $299 #
vertex $-1 $298 $300 #
straight-curve $-1 -61.438642536698509 -6.6765227907786269 0 0 0 1 I I #
face $-1 $301 $302 $26 $-1 $303 reversed single #
loop $-1 $-1 $304 $115 #
plane-surface $-1 67.437984977241072 -6.6765227907786269 0 0 -1 0 0 0 -1 forward_v I I I I #
coedge $-1 $305 $118 $306 $307 forward $73 $-1 #
coedge $-1 $118 $305 $203 $308 forward $73 $-1 #
edge $-1 $205 -9.6765227907786269 $309 -6.6765227907786269 $118 $310 forward 7 unknown #
coedge $-1 $120 $119 $311 $312 forward $47 $-1 #
coedge $-1 $313 $314 $119 $202 forward $315 $-1 #
edge $-1 $316 6.6765227907786269 $206 9.6765227907786269 $201 $317 forward 7 unknown #
coedge $-1 $318 $121 $198 $308 reversed $116 $-1 #
coedge $-1 $121 $318 $313 $319 reversed $116 $-1 #
vertex $-1 $199 $320 #
vertex $-1 $319 $321 #
straight-curve $-1 61.438642536698509 -9.6765227907786269 0 0 0 1 I I #
face $-1 $-1 $322 $27 $-1 $323 reversed single #
loop $-1 $-1 $129 $123 #
plane-surface $-1 0 0 12.175994291037602 0 0 1 1 0 0 forward_v I I I I #
coedge $-1 $324 $325 $326 $327 reversed $124 $-1 #
coedge $-1 $328 $126 $128 $218 forward $77 $-1 #
coedge $-1 $126 $328 $324 $329 forward $77 $-1 #
coedge $-1 $326 $129 $126 $215 forward $209 $-1 #
edge $-1 $221 -29.360774438001457 $330 -10.797591997222298 $214 $331 forward 7 unknown #
coedge $-1 $332 $333 $127 $217 forward $322 $-1 #
edge $-1 $334 -46.56565504227715 $220 -43.128236203732257 $216 $335 forward 7 unknown #
edge $-1 $221 -6.1471073265322236 $334 3.9386592583744142e-015 $128 $336 forward 7 unknown #
coedge $-1 $129 $326 $332 $337 forward $209 $-1 #
vertex $-1 $130 $338 #
vertex $-1 $130 $339 #
straight-curve $-1 49.439957655613334 -49.870309038339357 12.175994291037604 0 1 0 I I #
coedge $-1 $223 $223 $-1 $340 reversed $133 $-1 #
edge $-1 $341 0 $341 6.2831853071796004 $134 $342 forward 7 unknown #
vertex $-1 $137 $343 #
ellipse-curve $-1 40.158366435223755 -28.480419919808881 10.457284871765157 0 -0.55919291073839883 0.82903756765294845 1.5 0 0 1 I I #
face $-1 $-1 $239 $29 $-1 $344 forward single #
loop $-1 $-1 $345 $138 #
plane-surface $-1 0 31.028511372853831 0 0 -1 0 0 0 -1 forward_v I I I I #
coedge $-1 $346 $347 $348 $349 reversed $139 $-1 #
coedge $-1 $350 $141 $143 $237 forward $86 $-1 #
coedge $-1 $141 $350 $346 $351 forward $86 $-1 #
coedge $-1 $348 $144 $141 $234 forward $239 $-1 #
edge $-1 $241 0.96067998800931775 $352 18.43689854759387 $233 $353 forward 7 unknown #
coedge $-1 $354 $355 $142 $236 forward $228 $-1 #
edge $-1 $356 -57.207506091695507 $240 -47.096229532150581 $235 $357 forward 7 unknown #
edge $-1 $241 50.260869930683953 $356 62.057022745707648 $143 $358 forward 7 unknown #
coedge $-1 $144 $348 $354 $359 forward $239 $-1 #
loop $-1 $-1 $348 $227 #
vertex $-1 $236 $360 #
vertex $-1 $145 $361 #
straight-curve $-1 10.659469255810912 52.196587189569875 12.175994291037604 0 -1 0 I I #
coedge $-1 $243 $243 $-1 $362 reversed $148 $-1 #
edge $-1 $363 0 $363 6.2831853071796004 $149 $364 forward 7 unknown #
vertex $-1 $152 $365 #
ellipse-curve $-1 15.65267455854935 27.990777531164078 7.1203560112651321 0 0.85716730853699208 0.51503806187062418 1.5 0 0 1 I I #
coedge $-1 $247 $247 $-1 $366 reversed $155 $-1 #
edge $-1 $367 0 $367 6.2831853071796004 $156 $368 forward 7 unknown #
vertex $-1 $159 $369 #
ellipse-curve $-1 23.142482512657011 27.990777531164078 7.1203560112651321 0 0.85716730853699208 0.51503806187062418 1.5 0 0 1 I I #
face $-1 $-1 $267 $24 $-1 $370 reversed single #
loop $-1 $-1 $258 $160 #
plane-surface $-1 0 -31.028511372853831 0 0 1 0 0 0 1 forward_v I I I I #
coedge $-1 $371 $163 $266 $372 forward $100 $-1 #
coedge $-1 $163 $371 $270 $373 forward $100 $-1 #
edge $-1 $272 -31.028511372853831 $268 31.028511372853831 $168 $374 forward 7 unknown #
coedge $-1 $165 $164 $371 $375 reversed $65 $-1 #
coedge $-1 $271 $270 $164 $259 forward $252 $-1 #
edge $-1 $376 -12.175994291037602 $262 12.175994291037602 $164 $377 forward 7 unknown #
coedge $-1 $266 $265 $165 $261 reversed $267 $-1 #
edge $-1 $378 -12.175994291037602 $263 12.175994291037602 $260 $379 forward 7 unknown #
vertex $-1 $167 $380 #
vertex $-1 $275 $381 #
straight-curve $-1 -61.438642536698509 0 -12.175994291037602 0 1 0 I I #
coedge $-1 $260 $169 $174 $275 reversed $267 $-1 #
coedge $-1 $169 $260 $254 $372 reversed $267 $-1 #
loop $-1 $-1 $169 $251 #
vertex $-1 $256 $382 #
straight-curve $-1 61.438642536698509 31.028511372853831 0 0 0 -1 I I #
coedge $-1 $258 $171 $255 $373 reversed $252 $-1 #
coedge $-1 $171 $258 $173 $274 reversed $252 $-1 #
vertex $-1 $256 $383 #
straight-curve $-1 61.438642536698509 -31.028511372853831 0 0 0 -1 I I #
edge $-1 $176 -61.438642536698509 $262 61.438642536698509 $271 $384 forward 7 unknown #
edge $-1 $263 -61.438642536698509 $175 61.438642536698509 $265 $385 forward 7 unknown #
point $-1 61.438642536698509 31.028511372853831 -12.175994291037602 #
point $-1 61.438642536698509 -31.028511372853831 -12.175994291037602 #
face $-1 $-1 $294 $25 $-1 $386 forward single #
plane-surface $-1 -67.437984977241086 -6.6765227907786269 0 0 -1 0 0 0 -1 forward_v I I I I #
coedge $-1 $387 $388 $297 $389 forward $179 $-1 #
coedge $-1 $290 $181 $182 $286 reversed $108 $-1 #
coedge $-1 $181 $290 $293 $390 reversed $108 $-1 #
coedge $-1 $388 $387 $181 $284 reversed $179 $-1 #
edge $-1 $391 -12.175994291037602 $392 12.175994291037602 $283 $393 forward 7 unknown #
coedge $-1 $183 $182 $387 $394 forward $69 $-1 #
edge $-1 $288 -5.9993424405425841 $392 5.999342440542577 $281 $395 forward 7 unknown #
edge $-1 $396 -5.999342440542577 $191 5.9993424405425841 $188 $397 forward 7 unknown #
vertex $-1 $286 $398 #
straight-curve $-1 -61.438642536698509 0 -12.175994291037602 0 -1 0 I I #
coedge $-1 $282 $281 $185 $291 reversed $108 $-1 #
edge $-1 $295 -12.175994291037602 $288 12.175994291037602 $290 $399 forward 7 unknown #
coedge $-1 $400 $186 $189 $298 forward $294 $-1 #
coedge $-1 $186 $400 $282 $390 forward $294 $-1 #
loop $-1 $-1 $186 $278 #
vertex $-1 $187 $401 #
straight-curve $-1 -61.438642536698509 0 12.175994291037602 0 1 0 I I #
coedge $-1 $189 $188 $280 $389 reversed $190 $-1 #
edge $-1 $192 -5.9993424405425841 $402 5.999342440542577 $189 $403 forward 7 unknown #
point $-1 -61.438642536698502 -6.6765227907786269 -12.175994291037602 #
point $-1 -61.438642536698502 -6.6765227907786269 12.175994291037602 #
face $-1 $-1 $315 $26 $-1 $404 forward single #
loop $-1 $-1 $405 $194 #
plane-surface $-1 73.437327417783649 -8.1765227907786269 0 -1 0 0 0 0 1 forward_v I I I I #
coedge $-1 $306 $406 $407 $408 forward $195 $-1 #
coedge $-1 $198 $197 $409 $410 forward $73 $-1 #
coedge $-1 $311 $304 $197 $307 reversed $195 $-1 #
edge $-1 $309 -5.999342440542577 $411 5.999342440542577 $306 $412 forward 7 unknown #
edge $-1 $413 -5.999342440542577 $205 5.999342440542577 $203 $414 forward 7 unknown #
vertex $-1 $307 $415 #
straight-curve $-1 61.438642536698509 0 -12.175994291037602 0 1 0 I I #
coedge $-1 $406 $306 $200 $312 reversed $195 $-1 #
edge $-1 $316 -12.175994291037602 $309 12.175994291037602 $311 $416 forward 7 unknown #
coedge $-1 $417 $201 $204 $319 forward $315 $-1 #
coedge $-1 $201 $417 $406 $418 forward $315 $-1 #
loop $-1 $-1 $201 $301 #
vertex $-1 $202 $419 #
straight-curve $-1 61.438642536698509 0 12.175994291037602 0 -1 0 I I #
coedge $-1 $204 $203 $405 $420 reversed $116 $-1 #
edge $-1 $206 -5.999342440542577 $421 5.999342440542577 $204 $422 forward 7 unknown #
point $-1 61.438642536698495 -9.6765227907786269 -12.175994291037602 #
point $-1 61.438642536698495 -9.6765227907786269 12.175994291037602 #
loop $-1 $-1 $216 $208 #
plane-surface $-1 0 -31.028511372853831 0 0 1 0 0 0 1 forward_v I I I I #
coedge $-1 $325 $211 $213 $329 reversed $124 $-1 #
coedge $-1 $211 $324 $423 $424 reversed $124 $-1 #
coedge $-1 $219 $214 $211 $327 forward $209 $-1 #
edge $-1 $330 -23.937980571575423 $425 -18.841797665485526 $326 $426 forward 7 unknown #
coedge $-1 $213 $212 $333 $427 reversed $77 $-1 #
edge $-1 $428 -3.9386592583744142e-015 $330 6.1471073265322236 $324 $429 forward 7 unknown #
vertex $-1 $215 $430 #
straight-curve $-1 20.079183217611877 -25.932328466763934 12.175994291037602 -1 0 0 I I #
coedge $-1 $423 $216 $219 $337 reversed $322 $-1 #
coedge $-1 $216 $423 $328 $427 forward $322 $-1 #
vertex $-1 $217 $431 #
straight-curve $-1 49.439957655613334 -31.028511372853828 55.304230494769861 0 0 1 I I #
straight-curve $-1 49.439957655613334 -31.028511372853828 8.7385754524927108 0 -0.82903756765294845 -0.55919291073839883 I I #
edge $-1 $425 30.876775214834176 $220 49.439957655613334 $332 $432 forward 7 unknown #
point $-1 49.439957655613334 -31.028511372853831 12.175994291037602 #
point $-1 49.439957655613334 -25.932328466763934 12.175994291037602 #
edge $-1 $433 1 $433 0 $223 $-1 forward 7 unknown #
vertex $-1 $224 $434 #
ellipse-curve $-1 40.158366435223755 -26.922745035698423 8.1479369306194016 0 -0.55919291073839883 0.82903756765294845 1.5 0 0 1 I I #
point $-1 41.658366435223755 -28.480419919808881 10.457284871765154 #
plane-surface $-1 0 0 12.175994291037602 0 0 1 1 0 0 forward_v I I I I #
coedge $-1 $355 $354 $347 $435 forward $228 $-1 #
coedge $-1 $347 $230 $232 $351 reversed $139 $-1 #
coedge $-1 $230 $346 $345 $435 reversed $139 $-1 #
coedge $-1 $238 $233 $230 $349 forward $239 $-1 #
edge $-1 $352 -27.243543500095562 $436 -21.168075816716044 $348 $437 forward 7 unknown #
coedge $-1 $232 $231 $355 $438 reversed $86 $-1 #
edge $-1 $439 -62.057022745707648 $352 -50.260869930683953 $346 $440 forward 7 unknown #
vertex $-1 $234 $441 #
straight-curve $-1 9.6987892678015939 24.953043689474306 12.175994291037604 1 0 0 I I #
coedge $-1 $345 $235 $238 $359 reversed $228 $-1 #
coedge $-1 $235 $345 $350 $438 forward $228 $-1 #
vertex $-1 $236 $442 #
straight-curve $-1 10.659469255810912 31.028511372853828 59.272223823188185 0 0 1 I I #
straight-curve $-1 10.659469255810912 -0.93321734755667762 55.257968894249792 0 0.51503806187062418 -0.85716730853699208 I I #
edge $-1 $436 -28.135687815395464 $240 -10.659469255810912 $354 $443 forward 7 unknown #
point $-1 10.659469255810912 31.028511372853831 12.175994291037602 #
point $-1 10.659469255810912 24.953043689474313 12.175994291037604 #
edge $-1 $444 1 $444 0 $243 $-1 forward 7 unknown #
vertex $-1 $244 $445 #
ellipse-curve $-1 15.65267455854935 25.996837433658634 5.9222759712573918 0 0.85716730853699208 0.51503806187062418 1.5 0 0 1 I I #
point $-1 17.15267455854935 27.990777531164078 7.1203560112651321 #
edge $-1 $446 1 $446 0 $247 $-1 forward 7 unknown #
vertex $-1 $248 $447 #
ellipse-curve $-1 23.142482512657011 25.996837433658634 5.9222759712573918 0 0.85716730853699208 0.51503806187062418 1.5 0 0 1 I I #
point $-1 24.642482512657011 27.990777531164078 7.1203560112651321 #
plane-surface $-1 0 31.028511372853831 0 0 -1 0 0 0 -1 forward_v I I I I #
coedge $-1 $255 $254 $257 $375 forward $100 $-1 #
edge $-1 $268 -61.438642536698509 $378 61.438642536698509 $266 $448 forward 7 unknown #
edge $-1 $376 -61.438642536698509 $272 61.438642536698509 $270 $449 forward 7 unknown #
straight-curve $-1 61.438642536698509 0 12.175994291037602 0 1 0 I I #
edge $-1 $378 -31.028511372853831 $376 31.028511372853831 $257 $450 forward 7 unknown #
vertex $-1 $375 $451 #
straight-curve $-1 -61.438642536698509 -31.028511372853831 0 0 0 -1 I I #
vertex $-1 $372 $452 #
straight-curve $-1 -61.438642536698509 31.028511372853831 0 0 0 -1 I I #
point $-1 -61.438642536698509 -31.028511372853831 -12.175994291037602 #
point $-1 -61.438642536698509 31.028511372853831 -12.175994291037602 #
point $-1 61.438642536698509 31.028511372853831 12.175994291037602 #
point $-1 61.438642536698509 -31.028511372853831 12.175994291037602 #
straight-curve $-1 0 -31.028511372853831 -12.175994291037602 -1 0 0 I I #
straight-curve $-1 0 31.028511372853831 -12.175994291037602 1 0 0 I I #
plane-surface $-1 0 0 12.175994291037602 0 0 1 1 0 0 forward_v I I I I #
coedge $-1 $283 $280 $285 $394 reversed $179 $-1 #
coedge $-1 $280 $283 $400 $453 reversed $179 $-1 #
edge $-1 $402 -12.175994291037602 $396 12.175994291037602 $297 $454 forward 7 unknown #
edge $-1 $391 -5.999342440542577 $295 5.9993424405425841 $282 $455 forward 7 unknown #
vertex $-1 $453 $456 #
vertex $-1 $394 $457 #
straight-curve $-1 -73.437327417783663 -9.6765227907786269 0 0 0 -1 I I #
edge $-1 $392 -1.5 $396 1.5 $387 $458 forward 7 unknown #
straight-curve $-1 -67.437984977241086 -9.6765227907786269 -12.175994291037602 -1 0 0 I I #
vertex $-1 $287 $459 #
straight-curve $-1 -67.437984977241086 -6.6765227907786269 -12.175994291037602 1 0 0 I I #
point $-1 -61.438642536698502 -9.6765227907786269 -12.175994291037602 #
straight-curve $-1 -61.438642536698509 -9.6765227907786269 0 0 0 -1 I I #
coedge $-1 $293 $292 $388 $453 forward $294 $-1 #
point $-1 -61.438642536698502 -9.6765227907786269 12.175994291037602 #
vertex $-1 $298 $460 #
straight-curve $-1 -67.437984977241086 -6.6765227907786269 12.175994291037602 -1 0 0 I I #
plane-surface $-1 0 0 12.175994291037602 0 0 1 1 0 0 forward_v I I I I #
coedge $-1 $409 $461 $318 $420 forward $302 $-1 #
coedge $-1 $304 $311 $314 $418 reversed $195 $-1 #
coedge $-1 $461 $409 $304 $408 reversed $302 $-1 #
edge $-1 $462 -12.175994291037602 $411 12.175994291037602 $407 $463 forward 7 unknown #
coedge $-1 $407 $405 $305 $410 reversed $302 $-1 #
edge $-1 $411 -1.5 $413 1.5 $409 $464 forward 7 unknown #
vertex $-1 $410 $465 #
straight-curve $-1 67.437984977241072 -6.6765227907786269 -12.175994291037602 1 0 0 I I #
vertex $-1 $420 $466 #
straight-curve $-1 67.437984977241072 -9.6765227907786269 -12.175994291037602 -1 0 0 I I #
point $-1 61.438642536698495 -6.6765227907786269 -12.175994291037602 #
straight-curve $-1 61.438642536698509 -6.6765227907786269 0 0 0 -1 I I #
coedge $-1 $314 $313 $461 $467 forward $315 $-1 #
edge $-1 $462 -5.999342440542577 $316 5.999342440542577 $406 $468 forward 7 unknown #
point $-1 61.438642536698495 -6.6765227907786269 12.175994291037602 #
edge $-1 $421 -12.175994291037602 $413 12.175994291037602 $405 $469 forward 7 unknown #
vertex $-1 $467 $470 #
straight-curve $-1 67.437984977241072 -9.6765227907786269 12.175994291037602 1 0 0 I I #
coedge $-1 $333 $332 $325 $424 forward $322 $-1 #
edge $-1 $425 43.128236203732257 $428 46.56565504227715 $423 $471 forward 7 unknown #
vertex $-1 $337 $472 #
straight-curve $-1 30.876775214834176 -49.870309038339357 12.175994291037604 0 -1 0 I I #
edge $-1 $428 10.797591997222298 $334 29.360774438001457 $333 $473 forward 7 unknown #
vertex $-1 $427 $474 #
straight-curve $-1 30.876775214834176 -31.028511372853828 8.7385754524927108 0 0.82903756765294845 0.55919291073839883 I I #
point $-1 30.876775214834176 -25.932328466763934 12.175994291037602 #
point $-1 49.439957655613334 -31.028511372853831 8.7385754524927091 #
straight-curve $-1 0 -31.028511372853831 12.175994291037602 1 0 0 I I #
vertex $-1 $340 $475 #
point $-1 41.658366435223755 -26.922745035698423 8.1479369306194016 #
edge $-1 $436 47.096229532150581 $439 57.207506091695507 $345 $476 forward 7 unknown #
vertex $-1 $359 $477 #
straight-curve $-1 28.135687815395464 52.196587189569875 12.175994291037604 0 1 0 I I #
edge $-1 $439 -18.43689854759387 $356 -0.96067998800931775 $355 $478 forward 7 unknown #
vertex $-1 $438 $479 #
straight-curve $-1 28.135687815395464 -0.93321734755667762 55.257968894249792 0 -0.51503806187062418 0.85716730853699208 I I #
point $-1 28.135687815395464 24.953043689474313 12.175994291037604 #
point $-1 10.659469255810912 31.028511372853828 2.0647177314926779 #
straight-curve $-1 0 31.028511372853831 12.175994291037602 -1 0 0 I I #
vertex $-1 $362 $480 #
point $-1 17.15267455854935 25.996837433658634 5.9222759712573918 #
vertex $-1 $366 $481 #
point $-1 24.642482512657011 25.996837433658634 5.9222759712573918 #
straight-curve $-1 0 31.028511372853831 12.175994291037602 -1 0 0 I I #
straight-curve $-1 0 -31.028511372853831 12.175994291037602 1 0 0 I I #
straight-curve $-1 -61.438642536698509 0 12.175994291037602 0 -1 0 I I #
point $-1 -61.438642536698509 -31.028511372853831 12.175994291037602 #
point $-1 -61.438642536698509 31.028511372853831 12.175994291037602 #
edge $-1 $402 -1.5 $391 1.5 $388 $482 forward 7 unknown #
straight-curve $-1 -73.437327417783663 -6.6765227907786269 0 0 0 -1 I I #
straight-curve $-1 -67.437984977241086 -9.6765227907786269 12.175994291037602 1 0 0 I I #
point $-1 -73.437327417783663 -9.6765227907786269 12.175994291037602 #
point $-1 -73.437327417783663 -9.6765227907786269 -12.175994291037602 #
straight-curve $-1 -73.437327417783663 -8.1765227907786269 -12.175994291037602 0 1 0 I I #
point $-1 -73.437327417783663 -6.6765227907786269 -12.175994291037602 #
point $-1 -73.437327417783663 -6.6765227907786269 12.175994291037602 #
coedge $-1 $405 $407 $417 $467 reversed $302 $-1 #
vertex $-1 $467 $483 #
straight-curve $-1 73.437327417783649 -6.6765227907786269 0 0 0 -1 I I #
straight-curve $-1 73.437327417783649 -8.1765227907786269 -12.175994291037602 0 -1 0 I I #
point $-1 73.437327417783649 -6.6765227907786269 -12.175994291037602 #
point $-1 73.437327417783649 -9.6765227907786269 -12.175994291037602 #
edge $-1 $421 -1.5 $462 1.5 $461 $484 forward 7 unknown #
straight-curve $-1 67.437984977241072 -6.6765227907786269 12.175994291037602 -1 0 0 I I #
straight-curve $-1 73.437327417783649 -9.6765227907786269 0 0 0 -1 I I #
point $-1 73.437327417783649 -9.6765227907786269 12.175994291037602 #
straight-curve $-1 30.876775214834176 -31.028511372853828 55.304230494769861 0 0 -1 I I #
point $-1 30.876775214834176 -31.028511372853831 12.175994291037602 #
straight-curve $-1 20.079183217611877 -31.028511372853831 8.7385754524927055 1 0 0 I I #
point $-1 30.876775214834176 -31.028511372853831 8.7385754524927091 #
point $-1 40.158366435223755 -26.083955669590825 6.9043805791399784 #
straight-curve $-1 28.135687815395464 31.028511372853828 59.272223823188185 0 0 -1 I I #
point $-1 28.135687815395464 31.028511372853831 12.175994291037602 #
straight-curve $-1 9.6987892678015939 31.028511372853828 2.0647177314926672 -1 0 0 I I #
point $-1 28.135687815395464 31.028511372853828 2.0647177314926779 #
point $-1 15.65267455854935 24.711086470853147 5.1497188784514556 #
point $-1 23.142482512657011 24.711086470853147 5.1497188784514556 #
straight-curve $-1 -73.437327417783663 -8.1765227907786269 12.175994291037602 0 -1 0 I I #
point $-1 73.437327417783649 -6.6765227907786269 12.175994291037602 #
straight-curve $-1 73.437327417783649 -8.1765227907786269 12.175994291037602 0 1 0 I I #
End-of-ACIS-data 