500 0 8 0           
7 Unknown 11 ACIS 5.0 NT 24 Fri Mar 26 03:15:27 1999 
-1 9.9999999999999995e-007 1e-010 
body $-1 $8 $-1 $9 #
body $-1 $10 $-1 $11 #
body $-1 $12 $-1 $13 #
body $-1 $14 $-1 $15 #
body $-1 $16 $-1 $17 #
body $-1 $18 $-1 $19 #
body $-1 $20 $-1 $21 #
body $-1 $22 $-1 $23 #
lump $-1 $-1 $24 $0 #
transform $-1 1 0 0 0 1 0 0 0 1 55.751213110751671 35.652396306201744 15.968556739069127 1 rotate no_reflect no_shear #
lump $-1 $-1 $25 $1 #
transform $-1 1 0 0 0 1 0 0 0 1 -9.4131783747945832 35.652396306201744 4.3889042370794593 1 rotate no_reflect no_shear #
lump $-1 $-1 $26 $2 #
transform $-1 1 0 0 0 0.79863550430605224 -0.6018150307709319 0 0.6018150307709319 0.79863550430605224 101.15085969225953 81.46208967248576 152.03094048111251 1 rotate no_reflect no_shear #
lump $-1 $-1 $27 $3 #
transform $-1 1 0 0 0 -0.79863550430605224 0.6018150307709319 0 -0.6018150307709319 -0.79863550430605224 96.714474036869319 58.962631122149453 20.074671454943381 1 rotate no_reflect no_shear #
lump $-1 $-1 $28 $4 #
transform $-1 1 0 0 0 -0.79863550430605224 0.6018150307709319 0 -0.6018150307709319 -0.79863550430605224 105.58724534764974 58.962631122149453 20.074671454943381 1 rotate no_reflect no_shear #
lump $-1 $-1 $29 $5 #
transform $-1 1 0 0 0 0.64278759981090561 0.7660444514056185 0 -0.7660444514056185 0.64278759981090561 98.979829359099909 -85.415814925246963 89.48448166230618 1 rotate no_reflect no_shear #
lump $-1 $-1 $30 $6 #
transform $-1 1 0 0 0 -0.64278759981090561 -0.7660444514056185 0 0.7660444514056185 -0.64278759981090561 93.613002132355575 8.5052587767725978 22.710475458072757 1 rotate no_reflect no_shear #
lump $-1 $-1 $31 $7 #
transform $-1 1 0 0 0 -0.64278759981090561 -0.7660444514056185 0 0.7660444514056185 -0.64278759981090561 104.34665658584424 8.5052587767725978 22.710475458072757 1 rotate no_reflect no_shear #
shell $-1 $-1 $-1 $32 $-1 $8 #
shell $-1 $-1 $-1 $33 $-1 $10 #
shell $-1 $-1 $-1 $34 $-1 $12 #
shell $-1 $-1 $-1 $35 $-1 $14 #
shell $-1 $-1 $-1 $36 $-1 $16 #
shell $-1 $-1 $-1 $37 $-1 $18 #
shell $-1 $-1 $-1 $38 $-1 $20 #
shell $-1 $-1 $-1 $39 $-1 $22 #
face $-1 $40 $41 $24 $-1 $42 forward single #
face $-1 $43 $44 $25 $-1 $45 forward single #
face $-1 $46 $47 $26 $-1 $48 forward single #
face $-1 $49 $50 $27 $-1 $51 forward single #
face $-1 $52 $53 $28 $-1 $54 forward single #
face $-1 $55 $56 $29 $-1 $57 forward single #
face $-1 $58 $59 $30 $-1 $60 forward single #
face $-1 $61 $62 $31 $-1 $63 forward single #
face $-1 $64 $65 $24 $-1 $66 reversed single #
loop $-1 $-1 $67 $32 #
plane-surface $-1 0 0 15.968556739069127 0 0 1 1 0 0 forward_v I I I I #
face $-1 $68 $69 $25 $-1 $70 reversed single #
loop $-1 $-1 $71 $33 #
plane-surface $-1 0 0 4.3889042370794593 0 0 1 1 0 0 forward_v I I I I #
face $-1 $72 $73 $26 $-1 $74 reversed single #
loop $-1 $-1 $75 $34 #
plane-surface $-1 0 0 111.50242622150336 0 0 1 1 0 0 forward_v I I I I #
face $-1 $76 $77 $27 $-1 $78 forward single #
loop $-1 $79 $80 $35 #
cone-surface $-1 0 0 -4.2115237891781359 0 0 1 2 0 0 1 I I 0 1 2 forward I I I I #
face $-1 $81 $82 $28 $-1 $83 forward single #
loop $-1 $84 $85 $36 #
cone-surface $-1 0 0 -4.2115237891781359 0 0 1 2 0 0 1 I I 0 1 2 forward I I I I #
face $-1 $86 $87 $29 $-1 $88 reversed single #
loop $-1 $-1 $89 $37 #
plane-surface $-1 0 0 111.50242622150334 0 0 1 1 0 0 forward_v I I I I #
face $-1 $90 $91 $30 $-1 $92 forward single #
loop $-1 $93 $94 $38 #
cone-surface $-1 0 0 -2.0583971678823225 0 0 1 1.5 0 0 1 I I 0 1 1.5 forward I I I I #
face $-1 $95 $96 $31 $-1 $97 forward single #
loop $-1 $98 $99 $39 #
cone-surface $-1 0 0 -2.0583971678823225 0 0 1 1.5 0 0 1 I I 0 1 1.5 forward I I I I #
face $-1 $100 $101 $24 $-1 $102 reversed single #
loop $-1 $-1 $103 $40 #
plane-surface $-1 0 0 -15.968556739069127 0 0 1 1 0 0 forward_v I I I I #
coedge $-1 $104 $105 $106 $107 forward $41 $-1 #
face $-1 $108 $109 $25 $-1 $110 reversed single #
loop $-1 $-1 $111 $43 #
plane-surface $-1 0 0 -4.3889042370794593 0 0 1 1 0 0 forward_v I I I I #
coedge $-1 $112 $113 $114 $115 forward $44 $-1 #
face $-1 $116 $117 $26 $-1 $118 reversed single #
loop $-1 $-1 $119 $46 #
plane-surface $-1 0 0 -111.50242622150336 0 0 1 1 0 0 forward_v I I I I #
coedge $-1 $120 $121 $122 $123 forward $47 $-1 #
face $-1 $-1 $124 $27 $-1 $125 forward single #
loop $-1 $-1 $126 $49 #
plane-surface $-1 0 0 -7.4230475783562726 0 0 -1 -1 0 0 forward_v I I I I #
loop $-1 $-1 $127 $35 #
coedge $-1 $80 $80 $126 $128 reversed $50 $-1 #
face $-1 $-1 $129 $28 $-1 $130 forward single #
loop $-1 $-1 $131 $52 #
plane-surface $-1 0 0 -7.4230475783562726 0 0 -1 -1 0 0 forward_v I I I I #
loop $-1 $-1 $132 $36 #
coedge $-1 $85 $85 $131 $133 reversed $53 $-1 #
face $-1 $134 $135 $29 $-1 $136 reversed single #
loop $-1 $-1 $137 $55 #
plane-surface $-1 0 0 -111.50242622150334 0 0 1 1 0 0 forward_v I I I I #
coedge $-1 $138 $139 $140 $141 forward $56 $-1 #
face $-1 $-1 $142 $30 $-1 $143 forward single #
loop $-1 $-1 $144 $58 #
plane-surface $-1 0 0 -3.3667943357646433 0 0 -1 -1 0 0 forward_v I I I I #
loop $-1 $-1 $145 $38 #
coedge $-1 $94 $94 $144 $146 reversed $59 $-1 #
face $-1 $-1 $147 $31 $-1 $148 forward single #
loop $-1 $-1 $149 $61 #
plane-surface $-1 0 0 -3.3667943357646433 0 0 -1 -1 0 0 forward_v I I I I #
loop $-1 $-1 $150 $39 #
coedge $-1 $99 $99 $149 $151 reversed $62 $-1 #
face $-1 $152 $153 $24 $-1 $154 reversed single #
loop $-1 $-1 $155 $64 #
plane-surface $-1 0 -35.652396306201744 0 0 1 0 0 0 1 forward_v I I I I #
coedge $-1 $156 $157 $158 $159 forward $65 $-1 #
coedge $-1 $160 $67 $161 $162 forward $41 $-1 #
coedge $-1 $67 $160 $163 $164 forward $41 $-1 #
coedge $-1 $165 $166 $67 $107 reversed $167 $-1 #
edge $-1 $168 -35.652396306201744 $169 35.652396306201744 $106 $170 forward 7 unknown #
face $-1 $171 $172 $25 $-1 $173 reversed single #
loop $-1 $-1 $174 $68 #
plane-surface $-1 0 -35.652396306201744 0 0 1 0 0 0 1 forward_v I I I I #
coedge $-1 $175 $176 $177 $178 forward $69 $-1 #
coedge $-1 $179 $71 $180 $181 forward $44 $-1 #
coedge $-1 $71 $179 $182 $183 forward $44 $-1 #
coedge $-1 $184 $185 $71 $115 reversed $186 $-1 #
edge $-1 $187 -35.652396306201744 $188 35.652396306201744 $114 $189 forward 7 unknown #
face $-1 $190 $191 $26 $-1 $192 reversed single #
loop $-1 $-1 $193 $72 #
plane-surface $-1 0 -223.00485244300668 0 0 1 0 0 0 1 forward_v I I I I #
coedge $-1 $194 $195 $196 $197 forward $73 $-1 #
coedge $-1 $198 $75 $199 $200 forward $47 $-1 #
coedge $-1 $75 $198 $201 $202 forward $47 $-1 #
coedge $-1 $203 $204 $75 $123 reversed $205 $-1 #
edge $-1 $206 -223.00485244300668 $207 223.00485244300668 $122 $208 forward 7 unknown #
loop $-1 $209 $210 $76 #
cone-surface $-1 0 0 0 0 0 1 1 0 0 1 I I -0.70710678118654746 0.70710678118654746 1 forward I I I I #
coedge $-1 $126 $126 $80 $128 forward $77 $-1 #
coedge $-1 $127 $127 $210 $211 forward $79 $-1 #
edge $-1 $212 0 $212 6.2831853071796004 $126 $213 forward 7 unknown #
loop $-1 $214 $215 $81 #
cone-surface $-1 0 0 0 0 0 1 1 0 0 1 I I -0.70710678118654746 0.70710678118654746 1 forward I I I I #
coedge $-1 $131 $131 $85 $133 forward $82 $-1 #
coedge $-1 $132 $132 $215 $216 forward $84 $-1 #
edge $-1 $217 0 $217 6.2831853071796004 $131 $218 forward 7 unknown #
face $-1 $219 $220 $29 $-1 $221 reversed single #
loop $-1 $-1 $222 $86 #
plane-surface $-1 0 -223.00485244300668 0 0 1 0 0 0 1 forward_v I I I I #
coedge $-1 $223 $224 $225 $226 forward $87 $-1 #
coedge $-1 $227 $89 $228 $229 forward $56 $-1 #
coedge $-1 $89 $227 $230 $231 forward $56 $-1 #
coedge $-1 $232 $233 $89 $141 reversed $234 $-1 #
edge $-1 $235 -223.00485244300668 $236 223.00485244300668 $140 $237 forward 7 unknown #
loop $-1 $238 $239 $90 #
cone-surface $-1 0 0 0 0 0 1 0.75 0 0 1 I I -0.70710678118654757 0.70710678118654757 0.75 forward I I I I #
coedge $-1 $144 $144 $94 $146 forward $91 $-1 #
coedge $-1 $145 $145 $239 $240 forward $93 $-1 #
edge $-1 $241 0 $241 6.2831853071796004 $144 $242 forward 7 unknown #
loop $-1 $243 $244 $95 #
cone-surface $-1 0 0 0 0 0 1 0.75 0 0 1 I I -0.70710678118654757 0.70710678118654757 0.75 forward I I I I #
coedge $-1 $149 $149 $99 $151 forward $96 $-1 #
coedge $-1 $150 $150 $244 $245 forward $98 $-1 #
edge $-1 $246 0 $246 6.2831853071796004 $149 $247 forward 7 unknown #
face $-1 $248 $249 $24 $-1 $250 reversed single #
loop $-1 $-1 $251 $100 #
plane-surface $-1 -55.751213110751671 0 0 1 0 0 0 0 -1 forward_v I I I I #
coedge $-1 $252 $163 $253 $254 forward $101 $-1 #
coedge $-1 $255 $103 $252 $256 forward $65 $-1 #
coedge $-1 $103 $255 $257 $258 forward $65 $-1 #
coedge $-1 $166 $165 $103 $159 reversed $167 $-1 #
edge $-1 $259 -35.652396306201744 $260 35.652396306201744 $158 $261 forward 7 unknown #
coedge $-1 $105 $104 $262 $263 forward $41 $-1 #
coedge $-1 $264 $265 $104 $162 reversed $249 $-1 #
edge $-1 $169 -55.751213110751671 $266 55.751213110751671 $161 $267 forward 7 unknown #
coedge $-1 $155 $268 $105 $164 reversed $101 $-1 #
edge $-1 $269 -55.751213110751671 $168 55.751213110751671 $163 $270 forward 7 unknown #
coedge $-1 $158 $106 $268 $271 forward $167 $-1 #
coedge $-1 $106 $158 $264 $272 reversed $167 $-1 #
loop $-1 $-1 $165 $248 #
vertex $-1 $107 $273 #
vertex $-1 $107 $274 #
straight-curve $-1 55.751213110751671 0 15.968556739069127 0 1 0 I I #
face $-1 $275 $276 $25 $-1 $277 reversed single #
loop $-1 $-1 $278 $108 #
plane-surface $-1 -9.4131783747945832 0 0 1 0 0 0 0 -1 forward_v I I I I #
coedge $-1 $279 $182 $280 $281 forward $109 $-1 #
coedge $-1 $282 $111 $279 $283 forward $69 $-1 #
coedge $-1 $111 $282 $284 $285 forward $69 $-1 #
coedge $-1 $185 $184 $111 $178 reversed $186 $-1 #
edge $-1 $286 -35.652396306201744 $287 35.652396306201744 $177 $288 forward 7 unknown #
coedge $-1 $113 $112 $289 $290 forward $44 $-1 #
coedge $-1 $291 $292 $112 $181 reversed $276 $-1 #
edge $-1 $188 -9.4131783747945832 $293 9.4131783747945832 $180 $294 forward 7 unknown #
coedge $-1 $174 $295 $113 $183 reversed $109 $-1 #
edge $-1 $296 -9.4131783747945832 $187 9.4131783747945832 $182 $297 forward 7 unknown #
coedge $-1 $177 $114 $295 $298 forward $186 $-1 #
coedge $-1 $114 $177 $291 $299 reversed $186 $-1 #
loop $-1 $-1 $184 $275 #
vertex $-1 $115 $300 #
vertex $-1 $115 $301 #
straight-curve $-1 9.4131783747945832 0 4.3889042370794593 0 1 0 I I #
face $-1 $302 $303 $26 $-1 $304 reversed single #
loop $-1 $-1 $305 $116 #
plane-surface $-1 -10.351566529243826 0 0 1 0 0 0 0 -1 forward_v I I I I #
coedge $-1 $306 $201 $307 $308 forward $117 $-1 #
coedge $-1 $309 $119 $306 $310 forward $73 $-1 #
coedge $-1 $119 $309 $311 $312 forward $73 $-1 #
coedge $-1 $204 $203 $119 $197 reversed $205 $-1 #
edge $-1 $313 -223.00485244300668 $314 223.00485244300668 $196 $315 forward 7 unknown #
coedge $-1 $121 $120 $316 $317 forward $47 $-1 #
coedge $-1 $318 $319 $120 $200 reversed $303 $-1 #
edge $-1 $207 -10.351566529243826 $320 10.351566529243826 $199 $321 forward 7 unknown #
coedge $-1 $193 $322 $121 $202 reversed $117 $-1 #
edge $-1 $323 -10.351566529243826 $206 10.351566529243826 $201 $324 forward 7 unknown #
coedge $-1 $196 $122 $322 $325 forward $205 $-1 #
coedge $-1 $122 $196 $318 $326 reversed $205 $-1 #
loop $-1 $-1 $203 $302 #
vertex $-1 $123 $327 #
vertex $-1 $123 $328 #
straight-curve $-1 10.351566529243826 0 111.50242622150336 0 1 0 I I #
loop $-1 $-1 $329 $76 #
coedge $-1 $210 $210 $127 $211 reversed $124 $-1 #
edge $-1 $330 0 $330 6.2831853071796004 $210 $331 forward 7 unknown #
vertex $-1 $128 $332 #
ellipse-curve $-1 0 0 -7.4230475783562726 0 0 -1 2 0 0 1 I I #
loop $-1 $-1 $333 $81 #
coedge $-1 $215 $215 $132 $216 reversed $129 $-1 #
edge $-1 $334 0 $334 6.2831853071796004 $215 $335 forward 7 unknown #
vertex $-1 $133 $336 #
ellipse-curve $-1 0 0 -7.4230475783562726 0 0 -1 2 0 0 1 I I #
face $-1 $337 $338 $29 $-1 $339 reversed single #
loop $-1 $-1 $340 $134 #
plane-surface $-1 -12.522596862403446 0 0 1 0 0 0 0 -1 forward_v I I I I #
coedge $-1 $341 $230 $342 $343 forward $135 $-1 #
coedge $-1 $344 $137 $341 $345 forward $87 $-1 #
coedge $-1 $137 $344 $346 $347 forward $87 $-1 #
coedge $-1 $233 $232 $137 $226 reversed $234 $-1 #
edge $-1 $348 -223.00485244300668 $349 223.00485244300668 $225 $350 forward 7 unknown #
coedge $-1 $139 $138 $351 $352 forward $56 $-1 #
coedge $-1 $353 $354 $138 $229 reversed $338 $-1 #
edge $-1 $236 -12.522596862403446 $355 12.522596862403446 $228 $356 forward 7 unknown #
coedge $-1 $222 $357 $139 $231 reversed $135 $-1 #
edge $-1 $358 -12.522596862403446 $235 12.522596862403446 $230 $359 forward 7 unknown #
coedge $-1 $225 $140 $357 $360 forward $234 $-1 #
coedge $-1 $140 $225 $353 $361 reversed $234 $-1 #
loop $-1 $-1 $232 $337 #
vertex $-1 $141 $362 #
vertex $-1 $141 $363 #
straight-curve $-1 12.522596862403446 0 111.50242622150334 0 1 0 I I #
loop $-1 $-1 $364 $90 #
coedge $-1 $239 $239 $145 $240 reversed $142 $-1 #
edge $-1 $365 0 $365 6.2831853071796004 $239 $366 forward 7 unknown #
vertex $-1 $146 $367 #
ellipse-curve $-1 0 0 -3.3667943357646433 0 0 -1 1.5 0 0 1 I I #
loop $-1 $-1 $368 $95 #
coedge $-1 $244 $244 $150 $245 reversed $147 $-1 #
edge $-1 $369 0 $369 6.2831853071796004 $244 $370 forward 7 unknown #
vertex $-1 $151 $371 #
ellipse-curve $-1 0 0 -3.3667943357646433 0 0 -1 1.5 0 0 1 I I #
face $-1 $-1 $167 $24 $-1 $372 reversed single #
loop $-1 $-1 $264 $152 #
plane-surface $-1 0 35.652396306201744 0 0 -1 0 0 0 -1 forward_v I I I I #
coedge $-1 $373 $262 $265 $374 forward $153 $-1 #
coedge $-1 $268 $155 $156 $256 reversed $101 $-1 #
coedge $-1 $262 $373 $155 $254 reversed $153 $-1 #
edge $-1 $269 -15.968556739069127 $375 15.968556739069127 $253 $376 forward 7 unknown #
coedge $-1 $157 $156 $373 $377 forward $65 $-1 #
edge $-1 $260 -55.751213110751671 $375 55.751213110751671 $252 $378 forward 7 unknown #
coedge $-1 $265 $264 $157 $258 reversed $249 $-1 #
edge $-1 $379 -55.751213110751671 $259 55.751213110751671 $257 $380 forward 7 unknown #
vertex $-1 $159 $381 #
vertex $-1 $271 $382 #
straight-curve $-1 55.751213110751671 0 -15.968556739069127 0 -1 0 I I #
coedge $-1 $251 $253 $160 $263 reversed $153 $-1 #
edge $-1 $266 -35.652396306201744 $269 35.652396306201744 $262 $383 forward 7 unknown #
coedge $-1 $257 $161 $166 $272 forward $249 $-1 #
coedge $-1 $161 $257 $251 $374 reversed $249 $-1 #
vertex $-1 $162 $384 #
straight-curve $-1 0 35.652396306201744 15.968556739069127 -1 0 0 I I #
coedge $-1 $163 $252 $165 $271 reversed $101 $-1 #
vertex $-1 $263 $385 #
straight-curve $-1 0 -35.652396306201744 15.968556739069127 1 0 0 I I #
edge $-1 $168 -15.968556739069127 $260 15.968556739069127 $165 $386 forward 7 unknown #
edge $-1 $169 -15.968556739069127 $259 15.968556739069127 $166 $387 forward 7 unknown #
point $-1 55.751213110751671 -35.652396306201744 15.968556739069127 #
point $-1 55.751213110751671 35.652396306201744 15.968556739069127 #
face $-1 $-1 $186 $25 $-1 $388 reversed single #
loop $-1 $-1 $291 $171 #
plane-surface $-1 0 35.652396306201744 0 0 -1 0 0 0 -1 forward_v I I I I #
coedge $-1 $389 $289 $292 $390 forward $172 $-1 #
coedge $-1 $295 $174 $175 $283 reversed $109 $-1 #
coedge $-1 $289 $389 $174 $281 reversed $172 $-1 #
edge $-1 $296 -4.3889042370794593 $391 4.3889042370794593 $280 $392 forward 7 unknown #
coedge $-1 $176 $175 $389 $393 forward $69 $-1 #
edge $-1 $287 -9.4131783747945832 $391 9.4131783747945832 $279 $394 forward 7 unknown #
coedge $-1 $292 $291 $176 $285 reversed $276 $-1 #
edge $-1 $395 -9.4131783747945832 $286 9.4131783747945832 $284 $396 forward 7 unknown #
vertex $-1 $178 $397 #
vertex $-1 $298 $398 #
straight-curve $-1 9.4131783747945832 0 -4.3889042370794593 0 -1 0 I I #
coedge $-1 $278 $280 $179 $290 reversed $172 $-1 #
edge $-1 $293 -35.652396306201744 $296 35.652396306201744 $289 $399 forward 7 unknown #
coedge $-1 $284 $180 $185 $299 forward $276 $-1 #
coedge $-1 $180 $284 $278 $390 reversed $276 $-1 #
vertex $-1 $181 $400 #
straight-curve $-1 0 35.652396306201744 4.3889042370794593 -1 0 0 I I #
coedge $-1 $182 $279 $184 $298 reversed $109 $-1 #
vertex $-1 $290 $401 #
straight-curve $-1 0 -35.652396306201744 4.3889042370794593 1 0 0 I I #
edge $-1 $187 -4.3889042370794593 $287 4.3889042370794593 $184 $402 forward 7 unknown #
edge $-1 $188 -4.3889042370794593 $286 4.3889042370794593 $185 $403 forward 7 unknown #
point $-1 9.4131783747945832 -35.652396306201744 4.3889042370794593 #
point $-1 9.4131783747945832 35.652396306201744 4.3889042370794593 #
face $-1 $-1 $205 $26 $-1 $404 reversed single #
loop $-1 $-1 $318 $190 #
plane-surface $-1 0 223.00485244300668 0 0 -1 0 0 0 -1 forward_v I I I I #
coedge $-1 $405 $316 $319 $406 forward $191 $-1 #
coedge $-1 $322 $193 $194 $310 reversed $117 $-1 #
coedge $-1 $316 $405 $193 $308 reversed $191 $-1 #
edge $-1 $323 -111.50242622150336 $407 111.50242622150336 $307 $408 forward 7 unknown #
coedge $-1 $195 $194 $405 $409 forward $73 $-1 #
edge $-1 $314 -10.351566529243826 $407 10.351566529243826 $306 $410 forward 7 unknown #
coedge $-1 $319 $318 $195 $312 reversed $303 $-1 #
edge $-1 $411 -10.351566529243826 $313 10.351566529243826 $311 $412 forward 7 unknown #
vertex $-1 $197 $413 #
vertex $-1 $325 $414 #
straight-curve $-1 10.351566529243826 0 -111.50242622150336 0 -1 0 I I #
coedge $-1 $305 $307 $198 $317 reversed $191 $-1 #
edge $-1 $320 -223.00485244300668 $323 223.00485244300668 $316 $415 forward 7 unknown #
coedge $-1 $311 $199 $204 $326 forward $303 $-1 #
coedge $-1 $199 $311 $305 $406 reversed $303 $-1 #
vertex $-1 $200 $416 #
straight-curve $-1 0 223.00485244300668 111.50242622150336 -1 0 0 I I #
coedge $-1 $201 $306 $203 $325 reversed $117 $-1 #
vertex $-1 $317 $417 #
straight-curve $-1 0 -223.00485244300668 111.50242622150336 1 0 0 I I #
edge $-1 $206 -111.50242622150336 $314 111.50242622150336 $203 $418 forward 7 unknown #
edge $-1 $207 -111.50242622150336 $313 111.50242622150336 $204 $419 forward 7 unknown #
point $-1 10.351566529243826 -223.00485244300668 111.50242622150336 #
point $-1 10.351566529243826 223.00485244300668 111.50242622150336 #
coedge $-1 $329 $329 $-1 $420 reversed $209 $-1 #
vertex $-1 $211 $421 #
ellipse-curve $-1 0 0 -1 0 0 -1 2 0 0 1 I I #
point $-1 2 0 -7.4230475783562726 #
coedge $-1 $333 $333 $-1 $422 reversed $214 $-1 #
vertex $-1 $216 $423 #
ellipse-curve $-1 0 0 -1 0 0 -1 2 0 0 1 I I #
point $-1 2 0 -7.4230475783562726 #
face $-1 $-1 $234 $29 $-1 $424 reversed single #
loop $-1 $-1 $353 $219 #
plane-surface $-1 0 223.00485244300668 0 0 -1 0 0 0 -1 forward_v I I I I #
coedge $-1 $425 $351 $354 $426 forward $220 $-1 #
coedge $-1 $357 $222 $223 $345 reversed $135 $-1 #
coedge $-1 $351 $425 $222 $343 reversed $220 $-1 #
edge $-1 $358 -111.50242622150334 $427 111.50242622150334 $342 $428 forward 7 unknown #
coedge $-1 $224 $223 $425 $429 forward $87 $-1 #
edge $-1 $349 -12.522596862403446 $427 12.522596862403446 $341 $430 forward 7 unknown #
coedge $-1 $354 $353 $224 $347 reversed $338 $-1 #
edge $-1 $431 -12.522596862403446 $348 12.522596862403446 $346 $432 forward 7 unknown #
vertex $-1 $226 $433 #
vertex $-1 $360 $434 #
straight-curve $-1 12.522596862403446 0 -111.50242622150334 0 -1 0 I I #
coedge $-1 $340 $342 $227 $352 reversed $220 $-1 #
edge $-1 $355 -223.00485244300668 $358 223.00485244300668 $351 $435 forward 7 unknown #
coedge $-1 $346 $228 $233 $361 forward $338 $-1 #
coedge $-1 $228 $346 $340 $426 reversed $338 $-1 #
vertex $-1 $229 $436 #
straight-curve $-1 0 223.00485244300668 111.50242622150334 -1 0 0 I I #
coedge $-1 $230 $341 $232 $360 reversed $135 $-1 #
vertex $-1 $352 $437 #
straight-curve $-1 0 -223.00485244300668 111.50242622150334 1 0 0 I I #
edge $-1 $235 -111.50242622150334 $349 111.50242622150334 $232 $438 forward 7 unknown #
edge $-1 $236 -111.50242622150334 $348 111.50242622150334 $233 $439 forward 7 unknown #
point $-1 12.522596862403446 -223.00485244300668 111.50242622150334 #
point $-1 12.522596862403446 223.00485244300668 111.50242622150334 #
coedge $-1 $364 $364 $-1 $440 reversed $238 $-1 #
vertex $-1 $240 $441 #
ellipse-curve $-1 0 0 -0.75 0 0 -1 1.5 0 0 1 I I #
point $-1 1.5 0 -3.3667943357646433 #
coedge $-1 $368 $368 $-1 $442 reversed $243 $-1 #
vertex $-1 $245 $443 #
ellipse-curve $-1 0 0 -0.75 0 0 -1 1.5 0 0 1 I I #
point $-1 1.5 0 -3.3667943357646433 #
plane-surface $-1 55.751213110751671 0 0 -1 0 0 0 0 1 forward_v I I I I #
coedge $-1 $253 $251 $255 $377 reversed $153 $-1 #
edge $-1 $266 -15.968556739069127 $379 15.968556739069127 $265 $444 forward 7 unknown #
vertex $-1 $377 $445 #
straight-curve $-1 -55.751213110751671 -35.652396306201744 0 0 0 -1 I I #
edge $-1 $375 -35.652396306201744 $379 35.652396306201744 $373 $446 forward 7 unknown #
straight-curve $-1 0 -35.652396306201744 -15.968556739069127 -1 0 0 I I #
vertex $-1 $258 $447 #
straight-curve $-1 0 35.652396306201744 -15.968556739069127 1 0 0 I I #
point $-1 55.751213110751671 35.652396306201744 -15.968556739069127 #
point $-1 55.751213110751671 -35.652396306201744 -15.968556739069127 #
straight-curve $-1 -55.751213110751671 0 15.968556739069127 0 -1 0 I I #
point $-1 -55.751213110751671 35.652396306201744 15.968556739069127 #
point $-1 -55.751213110751671 -35.652396306201744 15.968556739069127 #
straight-curve $-1 55.751213110751671 -35.652396306201744 0 0 0 -1 I I #
straight-curve $-1 55.751213110751671 35.652396306201744 0 0 0 -1 I I #
plane-surface $-1 9.4131783747945832 0 0 -1 0 0 0 0 1 forward_v I I I I #
coedge $-1 $280 $278 $282 $393 reversed $172 $-1 #
edge $-1 $293 -4.3889042370794593 $395 4.3889042370794593 $292 $448 forward 7 unknown #
vertex $-1 $393 $449 #
straight-curve $-1 -9.4131783747945832 -35.652396306201744 0 0 0 -1 I I #
edge $-1 $391 -35.652396306201744 $395 35.652396306201744 $389 $450 forward 7 unknown #
straight-curve $-1 0 -35.652396306201744 -4.3889042370794593 -1 0 0 I I #
vertex $-1 $285 $451 #
straight-curve $-1 0 35.652396306201744 -4.3889042370794593 1 0 0 I I #
point $-1 9.4131783747945832 35.652396306201744 -4.3889042370794593 #
point $-1 9.4131783747945832 -35.652396306201744 -4.3889042370794593 #
straight-curve $-1 -9.4131783747945832 0 4.3889042370794593 0 -1 0 I I #
point $-1 -9.4131783747945832 35.652396306201744 4.3889042370794593 #
point $-1 -9.4131783747945832 -35.652396306201744 4.3889042370794593 #
straight-curve $-1 9.4131783747945832 -35.652396306201744 0 0 0 -1 I I #
straight-curve $-1 9.4131783747945832 35.652396306201744 0 0 0 -1 I I #
plane-surface $-1 10.351566529243826 0 0 -1 0 0 0 0 1 forward_v I I I I #
coedge $-1 $307 $305 $309 $409 reversed $191 $-1 #
edge $-1 $320 -111.50242622150336 $411 111.50242622150336 $319 $452 forward 7 unknown #
vertex $-1 $409 $453 #
straight-curve $-1 -10.351566529243826 -223.00485244300668 0 0 0 -1 I I #
edge $-1 $407 -223.00485244300668 $411 223.00485244300668 $405 $454 forward 7 unknown #
straight-curve $-1 0 -223.00485244300668 -111.50242622150336 -1 0 0 I I #
vertex $-1 $312 $455 #
straight-curve $-1 0 223.00485244300668 -111.50242622150336 1 0 0 I I #
point $-1 10.351566529243826 223.00485244300668 -111.50242622150336 #
point $-1 10.351566529243826 -223.00485244300668 -111.50242622150336 #
straight-curve $-1 -10.351566529243826 0 111.50242622150336 0 -1 0 I I #
point $-1 -10.351566529243826 223.00485244300668 111.50242622150336 #
point $-1 -10.351566529243826 -223.00485244300668 111.50242622150336 #
straight-curve $-1 10.351566529243826 -223.00485244300668 0 0 0 -1 I I #
straight-curve $-1 10.351566529243826 223.00485244300668 0 0 0 -1 I I #
edge $-1 $456 1 $456 0 $329 $-1 forward 7 unknown #
point $-1 2 0 -1 #
edge $-1 $457 1 $457 0 $333 $-1 forward 7 unknown #
point $-1 2 0 -1 #
plane-surface $-1 12.522596862403446 0 0 -1 0 0 0 0 1 forward_v I I I I #
coedge $-1 $342 $340 $344 $429 reversed $220 $-1 #
edge $-1 $355 -111.50242622150334 $431 111.50242622150334 $354 $458 forward 7 unknown #
vertex $-1 $429 $459 #
straight-curve $-1 -12.522596862403446 -223.00485244300668 0 0 0 -1 I I #
edge $-1 $427 -223.00485244300668 $431 223.00485244300668 $425 $460 forward 7 unknown #
straight-curve $-1 0 -223.00485244300668 -111.50242622150334 -1 0 0 I I #
vertex $-1 $347 $461 #
straight-curve $-1 0 223.00485244300668 -111.50242622150334 1 0 0 I I #
point $-1 12.522596862403446 223.00485244300668 -111.50242622150334 #
point $-1 12.522596862403446 -223.00485244300668 -111.50242622150334 #
straight-curve $-1 -12.522596862403446 0 111.50242622150334 0 -1 0 I I #
point $-1 -12.522596862403446 223.00485244300668 111.50242622150334 #
point $-1 -12.522596862403446 -223.00485244300668 111.50242622150334 #
straight-curve $-1 12.522596862403446 -223.00485244300668 0 0 0 -1 I I #
straight-curve $-1 12.522596862403446 223.00485244300668 0 0 0 -1 I I #
edge $-1 $462 1 $462 0 $364 $-1 forward 7 unknown #
point $-1 1.5 0 -0.75 #
edge $-1 $463 1 $463 0 $368 $-1 forward 7 unknown #
point $-1 1.5 0 -0.75 #
straight-curve $-1 -55.751213110751671 35.652396306201744 0 0 0 -1 I I #
point $-1 -55.751213110751671 -35.652396306201744 -15.968556739069127 #
straight-curve $-1 -55.751213110751671 0 -15.968556739069127 0 1 0 I I #
point $-1 -55.751213110751671 35.652396306201744 -15.968556739069127 #
straight-curve $-1 -9.4131783747945832 35.652396306201744 0 0 0 -1 I I #
point $-1 -9.4131783747945832 -35.652396306201744 -4.3889042370794593 #
straight-curve $-1 -9.4131783747945832 0 -4.3889042370794593 0 1 0 I I #
point $-1 -9.4131783747945832 35.652396306201744 -4.3889042370794593 #
straight-curve $-1 -10.351566529243826 223.00485244300668 0 0 0 -1 I I #
point $-1 -10.351566529243826 -223.00485244300668 -111.50242622150336 #
straight-curve $-1 -10.351566529243826 0 -111.50242622150336 0 1 0 I I #
point $-1 -10.351566529243826 223.00485244300668 -111.50242622150336 #
vertex $-1 $420 $464 #
vertex $-1 $422 $465 #
straight-curve $-1 -12.522596862403446 223.00485244300668 0 0 0 -1 I I #
point $-1 -12.522596862403446 -223.00485244300668 -111.50242622150334 #
straight-curve $-1 -12.522596862403446 0 -111.50242622150334 0 1 0 I I #
point $-1 -12.522596862403446 223.00485244300668 -111.50242622150334 #
vertex $-1 $440 $466 #
vertex $-1 $442 $467 #
point $-1 0 0 1 #
point $-1 0 0 1 #
point $-1 0 0 0.75 #
point $-1 0 0 0.75 #
End-of-ACIS-data 