500 0 10 0           
7 Unknown 11 ACIS 5.0 NT 24 Thu Mar 25 23:30:06 1999 
-1 9.9999999999999995e-007 1e-010 
body $-1 $10 $-1 $11 #
body $-1 $12 $-1 $13 #
body $-1 $14 $-1 $15 #
body $-1 $16 $-1 $17 #
body $-1 $18 $-1 $19 #
body $-1 $20 $-1 $21 #
body $-1 $22 $-1 $23 #
body $-1 $24 $-1 $25 #
body $-1 $26 $-1 $27 #
body $-1 $28 $-1 $29 #
lump $-1 $-1 $30 $0 #
transform $-1 1 0 0 0 1 0 0 0 1 57.858211004974521 39.746950582048292 13.454185686232755 1 rotate no_reflect no_shear #
lump $-1 $-1 $31 $1 #
transform $-1 1 0 0 0 1 0 0 0 1 57.858211004974521 39.746950582048292 13.454185686232755 1 rotate no_reflect no_shear #
lump $-1 $-1 $32 $2 #
transform $-1 1 0 0 0 1 0 0 0 1 57.858211004974521 39.746950582048292 13.454185686232755 1 rotate no_reflect no_shear #
lump $-1 $-1 $33 $3 #
transform $-1 1 0 0 0 1 0 0 0 1 57.858211004974521 39.746950582048292 13.454185686232755 1 rotate no_reflect no_shear #
lump $-1 $-1 $34 $4 #
transform $-1 1 0 0 0 1 0 0 0 1 57.858211004974521 39.746950582048292 13.454185686232755 1 rotate no_reflect no_shear #
lump $-1 $-1 $35 $5 #
transform $-1 1 0 0 0 1 0 0 0 1 57.858211004974521 39.746950582048292 13.454185686232755 1 rotate no_reflect no_shear #
lump $-1 $-1 $36 $6 #
transform $-1 1 0 0 0 1 0 0 0 1 57.858211004974521 39.746950582048292 13.454185686232755 1 rotate no_reflect no_shear #
lump $-1 $-1 $37 $7 #
transform $-1 1 0 0 0 1 0 0 0 1 57.858211004974521 39.746950582048292 13.454185686232755 1 rotate no_reflect no_shear #
lump $-1 $-1 $38 $8 #
transform $-1 1 0 0 0 1 0 0 0 1 57.858211004974521 39.746950582048292 13.454185686232755 1 rotate no_reflect no_shear #
lump $-1 $-1 $39 $9 #
transform $-1 1 0 0 0 1 0 0 0 1 57.858211004974521 39.746950582048292 13.454185686232755 1 rotate no_reflect no_shear #
shell $-1 $-1 $-1 $40 $-1 $10 #
shell $-1 $-1 $-1 $41 $-1 $12 #
shell $-1 $-1 $-1 $42 $-1 $14 #
shell $-1 $-1 $-1 $43 $-1 $16 #
shell $-1 $-1 $-1 $44 $-1 $18 #
shell $-1 $-1 $-1 $45 $-1 $20 #
shell $-1 $-1 $-1 $46 $-1 $22 #
shell $-1 $-1 $-1 $47 $-1 $24 #
shell $-1 $-1 $-1 $48 $-1 $26 #
shell $-1 $-1 $-1 $49 $-1 $28 #
face $-1 $50 $51 $30 $-1 $52 forward single #
face $-1 $53 $54 $31 $-1 $55 forward single #
face $-1 $56 $57 $32 $-1 $58 reversed single #
face $-1 $59 $60 $33 $-1 $61 forward single #
face $-1 $62 $63 $34 $-1 $64 reversed single #
face $-1 $65 $66 $35 $-1 $67 forward single #
face $-1 $68 $69 $36 $-1 $70 forward single #
face $-1 $71 $72 $37 $-1 $73 reversed single #
face $-1 $74 $75 $38 $-1 $76 forward single #
face $-1 $77 $78 $39 $-1 $79 forward single #
face $-1 $80 $81 $30 $-1 $82 reversed single #
loop $-1 $-1 $83 $40 #
plane-surface $-1 0 0 13.454185686232755 0 0 1 1 0 0 forward_v I I I I #
face $-1 $84 $85 $31 $-1 $86 reversed single #
loop $-1 $-1 $87 $41 #
plane-surface $-1 0 -32.251576804474475 -8.5677791742670095 0 0 1 1 0 0 forward_v I I I I #
face $-1 $88 $89 $32 $-1 $90 reversed single #
loop $-1 $-1 $91 $42 #
plane-surface $-1 -124.23042482413349 0.88157960951307146 99.077642551113257 0 1 0 -0.57357644374324357 0 0.81915203911291934 forward_v I I I I #
face $-1 $92 $93 $33 $-1 $94 forward single #
loop $-1 $95 $96 $43 #
cone-surface $-1 -50.505830301594308 6.385913023120132 7.7183561600073496 0.57357644374324357 0 -0.81915203911291934 1.228728058669379 0 0.86036466561486535 1 I I 0 1 1.5 forward I I I I #
face $-1 $97 $98 $34 $-1 $99 reversed single #
loop $-1 $-1 $100 $44 #
plane-surface $-1 66.422873641769627 -7.4699194966930822 173.53786127923328 0 -1 0 -0.74314483375859142 0 -0.66913059716165679 forward_v I I I I #
face $-1 $101 $102 $35 $-1 $103 forward single #
loop $-1 $104 $105 $45 #
cone-surface $-1 54.955944025577587 -13.278870430493431 10.524908013550665 -0.74314483375859142 0 -0.66913059716165679 0.66913059716165679 0 -0.74314483375859142 1 I I 0 1 1 forward I I I I #
face $-1 $106 $107 $36 $-1 $108 forward single #
loop $-1 $109 $110 $46 #
cone-surface $-1 54.955944025577587 -9.7934998702132248 10.524908013550665 -0.74314483375859142 0 -0.66913059716165679 0.66913059716165679 0 -0.74314483375859142 1 I I 0 1 1 forward I I I I #
face $-1 $111 $112 $37 $-1 $113 reversed single #
loop $-1 $-1 $114 $47 #
plane-surface $-1 66.422873641769627 30.593198359161221 173.53786127923328 0 -1 0 -0.74314483375859142 0 -0.66913059716165679 forward_v I I I I #
face $-1 $115 $116 $38 $-1 $117 forward single #
loop $-1 $118 $119 $48 #
cone-surface $-1 54.955944025577587 24.784247425360867 10.524908013550665 -0.74314483375859142 0 -0.66913059716165679 0.66913059716165679 0 -0.74314483375859142 1 I I 0 1 1 forward I I I I #
face $-1 $120 $121 $39 $-1 $122 forward single #
loop $-1 $123 $124 $49 #
cone-surface $-1 54.955944025577587 28.269617985641069 10.524908013550665 -0.74314483375859142 0 -0.66913059716165679 0.66913059716165679 0 -0.74314483375859142 1 I I 0 1 1 forward I I I I #
face $-1 $125 $126 $30 $-1 $127 reversed single #
loop $-1 $-1 $128 $50 #
plane-surface $-1 0 0 -13.454185686232755 0 0 1 1 0 0 forward_v I I I I #
coedge $-1 $129 $130 $131 $132 forward $51 $-1 #
face $-1 $133 $134 $31 $-1 $135 reversed single #
loop $-1 $-1 $136 $53 #
plane-surface $-1 0 -24.756203026900657 -11.010982430249882 0 -1 0 0 0 -1 forward_v I I I I #
coedge $-1 $137 $138 $139 $140 reversed $54 $-1 #
face $-1 $141 $142 $32 $-1 $143 reversed single #
loop $-1 $-1 $144 $56 #
plane-surface $-1 -57.858211004974521 6.385913023120132 4.2882995028123929 -0.57357644374324357 0 0.81915203911291934 0.81915203911291934 0 0.57357644374324357 forward_v I I I I #
coedge $-1 $145 $146 $147 $148 reversed $57 $-1 #
face $-1 $-1 $149 $33 $-1 $150 forward single #
loop $-1 $151 $152 $59 #
cone-surface $-1 -49.268388181134782 6.385913023120132 5.9511056961574234 0.57357644374324357 0 -0.81915203911291934 0.61436402933468948 0 0.43018233280743268 1 I I -0.70710678118654757 0.70710678118654757 0.75 forward I I I I #
loop $-1 $-1 $153 $43 #
coedge $-1 $96 $96 $154 $155 reversed $60 $-1 #
face $-1 $156 $157 $34 $-1 $158 reversed single #
loop $-1 $-1 $159 $62 #
plane-surface $-1 -19.57118755595296 -11.536185150353326 96.108462718305802 0.74314483375859142 0 0.66913059716165679 0.66913059716165679 0 -0.74314483375859142 forward_v I I I I #
coedge $-1 $160 $161 $162 $163 reversed $63 $-1 #
face $-1 $-1 $164 $35 $-1 $165 forward single #
loop $-1 $166 $167 $65 #
cone-surface $-1 53.185682176795979 -13.278870430493431 8.9309571251125064 -0.74314483375859142 0 -0.66913059716165679 0.3345652985808284 0 -0.37157241687929571 1 I I -0.70710678118654746 0.70710678118654746 0.5 forward I I I I #
loop $-1 $-1 $168 $45 #
coedge $-1 $105 $105 $169 $170 reversed $66 $-1 #
face $-1 $-1 $171 $36 $-1 $172 forward single #
loop $-1 $173 $174 $68 #
cone-surface $-1 53.185682176795979 -9.7934998702132248 8.9309571251125064 -0.74314483375859142 0 -0.66913059716165679 0.3345652985808284 0 -0.37157241687929571 1 I I -0.70710678118654746 0.70710678118654746 0.5 forward I I I I #
loop $-1 $-1 $175 $46 #
coedge $-1 $110 $110 $176 $177 reversed $69 $-1 #
face $-1 $178 $179 $37 $-1 $180 reversed single #
loop $-1 $-1 $181 $71 #
plane-surface $-1 -19.57118755595296 26.526932705500975 96.108462718305802 0.74314483375859142 0 0.66913059716165679 0.66913059716165679 0 -0.74314483375859142 forward_v I I I I #
coedge $-1 $182 $183 $184 $185 reversed $72 $-1 #
face $-1 $-1 $186 $38 $-1 $187 forward single #
loop $-1 $188 $189 $74 #
cone-surface $-1 53.185682176795979 24.784247425360867 8.9309571251125064 -0.74314483375859142 0 -0.66913059716165679 0.3345652985808284 0 -0.37157241687929571 1 I I -0.70710678118654746 0.70710678118654746 0.5 forward I I I I #
loop $-1 $-1 $190 $48 #
coedge $-1 $119 $119 $191 $192 reversed $75 $-1 #
face $-1 $-1 $193 $39 $-1 $194 forward single #
loop $-1 $195 $196 $77 #
cone-surface $-1 53.185682176795979 28.269617985641069 8.9309571251125064 -0.74314483375859142 0 -0.66913059716165679 0.3345652985808284 0 -0.37157241687929571 1 I I -0.70710678118654746 0.70710678118654746 0.5 forward I I I I #
loop $-1 $-1 $197 $49 #
coedge $-1 $124 $124 $198 $199 reversed $78 $-1 #
face $-1 $200 $201 $30 $-1 $202 reversed single #
loop $-1 $-1 $203 $80 #
plane-surface $-1 0 -39.746950582048292 0 0 1 0 0 0 1 forward_v I I I I #
coedge $-1 $204 $205 $206 $207 forward $81 $-1 #
coedge $-1 $208 $83 $209 $210 forward $51 $-1 #
coedge $-1 $83 $208 $211 $212 forward $51 $-1 #
coedge $-1 $213 $214 $83 $132 reversed $215 $-1 #
edge $-1 $216 -39.746950582048292 $217 39.746950582048292 $131 $218 forward 7 unknown #
face $-1 $219 $220 $31 $-1 $221 reversed single #
loop $-1 $-1 $222 $84 #
plane-surface $-1 0 0 -13.454185686232755 0 0 1 1 0 0 forward_v I I I I #
coedge $-1 $223 $224 $225 $226 reversed $85 $-1 #
coedge $-1 $227 $87 $224 $228 forward $54 $-1 #
coedge $-1 $87 $227 $229 $230 reversed $54 $-1 #
coedge $-1 $231 $225 $87 $140 forward $220 $-1 #
edge $-1 $232 8.6304146246634197 $233 23.621162179811055 $139 $234 forward 7 unknown #
face $-1 $235 $236 $32 $-1 $237 forward single #
loop $-1 $-1 $238 $88 #
plane-surface $-1 -124.23042482413349 11.890246436727193 99.077642551113257 0 -1 0 0.57357644374324357 0 -0.81915203911291934 forward_v I I I I #
coedge $-1 $239 $240 $241 $242 reversed $89 $-1 #
coedge $-1 $146 $91 $243 $244 reversed $57 $-1 #
coedge $-1 $91 $145 $239 $245 reversed $57 $-1 #
coedge $-1 $241 $246 $91 $148 forward $236 $-1 #
edge $-1 $247 4.2570014070922255 $248 17.347243238548479 $147 $249 forward 7 unknown #
loop $-1 $-1 $154 $92 #
plane-surface $-1 -57.858211004974521 6.385913023120132 4.2882995028123929 -0.57357644374324357 0 0.81915203911291934 0.81915203911291934 0 0.57357644374324357 forward_v I I I I #
loop $-1 $-1 $250 $59 #
coedge $-1 $152 $152 $153 $251 reversed $93 $-1 #
coedge $-1 $153 $153 $152 $251 forward $95 $-1 #
coedge $-1 $154 $154 $96 $155 forward $149 $-1 #
edge $-1 $252 0 $252 6.2831853071796004 $154 $253 forward 7 unknown #
face $-1 $254 $255 $34 $-1 $256 reversed single #
loop $-1 $-1 $257 $97 #
plane-surface $-1 66.422873641769627 -15.60245080401357 173.53786127923328 0 1 0 0.74314483375859142 0 0.66913059716165679 forward_v I I I I #
coedge $-1 $258 $259 $260 $261 reversed $98 $-1 #
coedge $-1 $161 $100 $262 $263 reversed $63 $-1 #
coedge $-1 $100 $160 $258 $264 reversed $63 $-1 #
coedge $-1 $260 $265 $100 $163 forward $266 $-1 #
edge $-1 $267 -24.646774184089708 $268 -21.639619089100421 $162 $269 forward 7 unknown #
loop $-1 $-1 $169 $101 #
plane-surface $-1 -19.57118755595296 -11.536185150353326 96.108462718305802 0.74314483375859142 0 0.66913059716165679 0.66913059716165679 0 -0.74314483375859142 forward_v I I I I #
loop $-1 $-1 $270 $65 #
coedge $-1 $167 $167 $168 $271 reversed $102 $-1 #
coedge $-1 $168 $168 $167 $271 forward $104 $-1 #
coedge $-1 $169 $169 $105 $170 forward $164 $-1 #
edge $-1 $272 0 $272 6.2831853071796004 $169 $273 forward 7 unknown #
loop $-1 $-1 $176 $106 #
plane-surface $-1 -19.57118755595296 -11.536185150353326 96.108462718305802 0.74314483375859142 0 0.66913059716165679 0.66913059716165679 0 -0.74314483375859142 forward_v I I I I #
loop $-1 $-1 $274 $68 #
coedge $-1 $174 $174 $175 $275 reversed $107 $-1 #
coedge $-1 $175 $175 $174 $275 forward $109 $-1 #
coedge $-1 $176 $176 $110 $177 forward $171 $-1 #
edge $-1 $276 0 $276 6.2831853071796004 $176 $277 forward 7 unknown #
face $-1 $278 $279 $37 $-1 $280 reversed single #
loop $-1 $-1 $281 $111 #
plane-surface $-1 66.422873641769627 22.46066705184073 173.53786127923328 0 1 0 0.74314483375859142 0 0.66913059716165679 forward_v I I I I #
coedge $-1 $282 $283 $284 $285 reversed $112 $-1 #
coedge $-1 $183 $114 $286 $287 reversed $72 $-1 #
coedge $-1 $114 $182 $282 $288 reversed $72 $-1 #
coedge $-1 $284 $289 $114 $185 forward $290 $-1 #
edge $-1 $291 -24.646774184089708 $292 -21.639619089100421 $184 $293 forward 7 unknown #
loop $-1 $-1 $191 $115 #
plane-surface $-1 -19.57118755595296 26.526932705500975 96.108462718305802 0.74314483375859142 0 0.66913059716165679 0.66913059716165679 0 -0.74314483375859142 forward_v I I I I #
loop $-1 $-1 $294 $74 #
coedge $-1 $189 $189 $190 $295 reversed $116 $-1 #
coedge $-1 $190 $190 $189 $295 forward $118 $-1 #
coedge $-1 $191 $191 $119 $192 forward $186 $-1 #
edge $-1 $296 0 $296 6.2831853071796004 $191 $297 forward 7 unknown #
loop $-1 $-1 $198 $120 #
plane-surface $-1 -19.57118755595296 26.526932705500975 96.108462718305802 0.74314483375859142 0 0.66913059716165679 0.66913059716165679 0 -0.74314483375859142 forward_v I I I I #
loop $-1 $-1 $298 $77 #
coedge $-1 $196 $196 $197 $299 reversed $121 $-1 #
coedge $-1 $197 $197 $196 $299 forward $123 $-1 #
coedge $-1 $198 $198 $124 $199 forward $193 $-1 #
edge $-1 $300 0 $300 6.2831853071796004 $198 $301 forward 7 unknown #
face $-1 $302 $303 $30 $-1 $304 reversed single #
loop $-1 $-1 $305 $125 #
plane-surface $-1 -57.858211004974521 0 0 1 0 0 0 0 -1 forward_v I I I I #
coedge $-1 $306 $211 $307 $308 forward $126 $-1 #
coedge $-1 $309 $128 $306 $310 forward $81 $-1 #
coedge $-1 $128 $309 $311 $312 forward $81 $-1 #
coedge $-1 $214 $213 $128 $207 reversed $215 $-1 #
edge $-1 $313 -39.746950582048292 $314 39.746950582048292 $206 $315 forward 7 unknown #
coedge $-1 $130 $129 $316 $317 forward $51 $-1 #
coedge $-1 $318 $319 $129 $210 reversed $303 $-1 #
edge $-1 $217 -57.858211004974521 $320 57.858211004974521 $209 $321 forward 7 unknown #
coedge $-1 $203 $322 $130 $212 reversed $126 $-1 #
edge $-1 $323 -57.858211004974521 $216 57.858211004974521 $211 $324 forward 7 unknown #
coedge $-1 $206 $131 $322 $325 forward $215 $-1 #
coedge $-1 $131 $206 $318 $326 reversed $215 $-1 #
loop $-1 $-1 $213 $302 #
vertex $-1 $132 $327 #
vertex $-1 $132 $328 #
straight-curve $-1 57.858211004974521 0 13.454185686232755 0 1 0 I I #
face $-1 $329 $330 $31 $-1 $331 reversed single #
loop $-1 $-1 $225 $133 #
plane-surface $-1 57.858211004974521 0 0 -1 0 0 0 0 1 forward_v I I I I #
coedge $-1 $332 $333 $223 $334 forward $134 $-1 #
coedge $-1 $335 $136 $222 $334 reversed $85 $-1 #
coedge $-1 $136 $335 $137 $228 reversed $85 $-1 #
coedge $-1 $139 $336 $136 $226 forward $220 $-1 #
edge $-1 $337 -7.9486944711078138 $232 -3.0622879591420684 $225 $338 forward 7 unknown #
coedge $-1 $138 $137 $339 $340 reversed $54 $-1 #
edge $-1 $232 -57.858211004974521 $341 57.858211004974521 $224 $342 forward 7 unknown #
coedge $-1 $343 $344 $138 $230 forward $330 $-1 #
edge $-1 $233 -57.858211004974521 $345 57.858211004974521 $229 $346 forward 7 unknown #
coedge $-1 $336 $139 $344 $347 forward $220 $-1 #
vertex $-1 $140 $348 #
vertex $-1 $347 $349 #
straight-curve $-1 57.858211004974521 -16.125788402237237 -8.5677791742670095 0 -1 0 I I #
face $-1 $-1 $350 $32 $-1 $351 reversed single #
loop $-1 $-1 $147 $141 #
plane-surface $-1 0 0 13.454185686232755 0 0 1 1 0 0 forward_v I I I I #
coedge $-1 $352 $353 $354 $355 reversed $142 $-1 #
coedge $-1 $356 $144 $146 $245 forward $89 $-1 #
coedge $-1 $144 $356 $352 $357 forward $89 $-1 #
coedge $-1 $354 $147 $144 $242 forward $236 $-1 #
edge $-1 $248 -2.3113769020469945 $358 8.6972899251671265 $241 $359 forward 7 unknown #
coedge $-1 $360 $361 $145 $244 forward $350 $-1 #
edge $-1 $362 -45.250521772744236 $247 -36.084635589323874 $243 $363 forward 7 unknown #
edge $-1 $248 -15.980234689560209 $362 0 $146 $364 forward 7 unknown #
coedge $-1 $147 $354 $360 $365 forward $236 $-1 #
vertex $-1 $244 $366 #
vertex $-1 $148 $367 #
straight-curve $-1 -62.115212412066747 0.88157960951307146 13.454185686232755 1 0 0 I I #
coedge $-1 $250 $250 $-1 $368 reversed $151 $-1 #
edge $-1 $369 0 $369 6.2831853071796004 $152 $370 forward 7 unknown #
vertex $-1 $155 $371 #
ellipse-curve $-1 -51.313090089246394 6.385913023120132 8.8712425945225721 -0.57357644374324357 0 0.81915203911291934 1.228728058669379 0 0.86036466561486535 1 I I #
face $-1 $-1 $266 $34 $-1 $372 forward single #
loop $-1 $-1 $373 $156 #
plane-surface $-1 57.858211004974521 0 0 -1 0 0 0 0 1 forward_v I I I I #
coedge $-1 $374 $375 $376 $377 reversed $157 $-1 #
coedge $-1 $378 $159 $161 $264 forward $98 $-1 #
coedge $-1 $159 $378 $374 $379 forward $98 $-1 #
coedge $-1 $376 $162 $159 $261 forward $266 $-1 #
edge $-1 $268 1.7018269215164192 $380 9.8343582288369067 $260 $381 forward 7 unknown #
coedge $-1 $382 $383 $160 $263 forward $255 $-1 #
edge $-1 $384 -76.654529119033413 $267 -73.314744953383894 $262 $385 forward 7 unknown #
edge $-1 $268 111.22229917690993 $384 115.71642200994901 $161 $386 forward 7 unknown #
coedge $-1 $162 $376 $382 $387 forward $266 $-1 #
loop $-1 $-1 $376 $254 #
vertex $-1 $263 $388 #
vertex $-1 $163 $389 #
straight-curve $-1 33.211436820884813 -7.4699194966930822 13.454185686232762 -1 0 0 I I #
coedge $-1 $270 $270 $-1 $390 reversed $166 $-1 #
edge $-1 $391 0 $391 6.2831853071796004 $167 $392 forward 7 unknown #
vertex $-1 $170 $393 #
ellipse-curve $-1 56.354633457479878 -13.278870430493431 11.784293603407978 0.74314483375859142 0 0.66913059716165679 0.66913059716165679 0 -0.74314483375859142 1 I I #
coedge $-1 $274 $274 $-1 $394 reversed $173 $-1 #
edge $-1 $395 0 $395 6.2831853071796004 $174 $396 forward 7 unknown #
vertex $-1 $177 $397 #
ellipse-curve $-1 56.354633457479878 -9.7934998702132248 11.784293603407978 0.74314483375859142 0 0.66913059716165679 0.66913059716165679 0 -0.74314483375859142 1 I I #
face $-1 $-1 $290 $37 $-1 $398 forward single #
loop $-1 $-1 $399 $178 #
plane-surface $-1 57.858211004974521 0 0 -1 0 0 0 0 1 forward_v I I I I #
coedge $-1 $400 $401 $402 $403 reversed $179 $-1 #
coedge $-1 $404 $181 $183 $288 forward $112 $-1 #
coedge $-1 $181 $404 $400 $405 forward $112 $-1 #
coedge $-1 $402 $184 $181 $285 forward $290 $-1 #
edge $-1 $292 -17.329732006410733 $406 -9.1972006990902422 $284 $407 forward 7 unknown #
coedge $-1 $408 $409 $182 $287 forward $279 $-1 #
edge $-1 $410 -76.654529119033413 $291 -73.314744953383894 $286 $411 forward 7 unknown #
edge $-1 $292 111.22229917690993 $410 115.71642200994901 $183 $412 forward 7 unknown #
coedge $-1 $184 $402 $408 $413 forward $290 $-1 #
loop $-1 $-1 $402 $278 #
vertex $-1 $287 $414 #
vertex $-1 $185 $415 #
straight-curve $-1 33.211436820884813 30.593198359161221 13.454185686232762 -1 0 0 I I #
coedge $-1 $294 $294 $-1 $416 reversed $188 $-1 #
edge $-1 $417 0 $417 6.2831853071796004 $189 $418 forward 7 unknown #
vertex $-1 $192 $419 #
ellipse-curve $-1 56.354633457479878 24.784247425360867 11.784293603407978 0.74314483375859142 0 0.66913059716165679 0.66913059716165679 0 -0.74314483375859142 1 I I #
coedge $-1 $298 $298 $-1 $420 reversed $195 $-1 #
edge $-1 $421 0 $421 6.2831853071796004 $196 $422 forward 7 unknown #
vertex $-1 $199 $423 #
ellipse-curve $-1 56.354633457479878 28.269617985641069 11.784293603407978 0.74314483375859142 0 0.66913059716165679 0.66913059716165679 0 -0.74314483375859142 1 I I #
face $-1 $-1 $215 $30 $-1 $424 reversed single #
loop $-1 $-1 $318 $200 #
plane-surface $-1 0 39.746950582048292 0 0 -1 0 0 0 -1 forward_v I I I I #
coedge $-1 $425 $316 $319 $426 forward $201 $-1 #
coedge $-1 $322 $203 $204 $310 reversed $126 $-1 #
coedge $-1 $316 $425 $203 $308 reversed $201 $-1 #
edge $-1 $323 -13.454185686232755 $427 13.454185686232755 $307 $428 forward 7 unknown #
coedge $-1 $205 $204 $425 $429 forward $81 $-1 #
edge $-1 $314 -57.858211004974521 $427 57.858211004974521 $306 $430 forward 7 unknown #
coedge $-1 $319 $318 $205 $312 reversed $303 $-1 #
edge $-1 $431 -57.858211004974521 $313 57.858211004974521 $311 $432 forward 7 unknown #
vertex $-1 $207 $433 #
vertex $-1 $325 $434 #
straight-curve $-1 57.858211004974521 0 -13.454185686232755 0 -1 0 I I #
coedge $-1 $305 $307 $208 $317 reversed $201 $-1 #
edge $-1 $320 -39.746950582048292 $323 39.746950582048292 $316 $435 forward 7 unknown #
coedge $-1 $311 $209 $214 $326 forward $303 $-1 #
coedge $-1 $209 $311 $305 $426 reversed $303 $-1 #
vertex $-1 $210 $436 #
straight-curve $-1 0 39.746950582048292 13.454185686232755 -1 0 0 I I #
coedge $-1 $211 $306 $213 $325 reversed $126 $-1 #
vertex $-1 $317 $437 #
straight-curve $-1 0 -39.746950582048292 13.454185686232755 1 0 0 I I #
edge $-1 $216 -13.454185686232755 $314 13.454185686232755 $213 $438 forward 7 unknown #
edge $-1 $217 -13.454185686232755 $313 13.454185686232755 $214 $439 forward 7 unknown #
point $-1 57.858211004974521 -39.746950582048292 13.454185686232755 #
point $-1 57.858211004974521 39.746950582048292 13.454185686232755 #
face $-1 $-1 $440 $31 $-1 $441 reversed single #
loop $-1 $-1 $229 $219 #
plane-surface $-1 0 -39.746950582048292 0 0 1 0 0 0 1 forward_v I I I I #
coedge $-1 $442 $222 $336 $443 forward $134 $-1 #
coedge $-1 $222 $442 $444 $445 forward $134 $-1 #
edge $-1 $446 -57.858211004974521 $337 57.858211004974521 $222 $447 forward 7 unknown #
coedge $-1 $224 $223 $448 $449 reversed $85 $-1 #
coedge $-1 $225 $231 $332 $443 reversed $220 $-1 #
vertex $-1 $443 $450 #
straight-curve $-1 57.858211004974521 -24.756203026900657 -5.5054912151249411 0 0 1 I I #
coedge $-1 $448 $451 $227 $340 forward $440 $-1 #
edge $-1 $345 -23.621162179811055 $341 -8.6304146246634197 $339 $452 forward 7 unknown #
vertex $-1 $340 $453 #
straight-curve $-1 0 -24.756203026900657 -8.5677791742670095 -1 0 0 I I #
coedge $-1 $454 $229 $451 $455 forward $330 $-1 #
coedge $-1 $229 $454 $231 $347 reversed $330 $-1 #
vertex $-1 $455 $456 #
straight-curve $-1 0 -39.746950582048292 -8.5677791742670095 -1 0 0 I I #
edge $-1 $233 8.5677791742670095 $457 13.454185686232755 $231 $458 forward 7 unknown #
point $-1 57.858211004974521 -24.756203026900657 -8.5677791742670095 #
point $-1 57.858211004974521 -39.746950582048292 -8.5677791742670095 #
loop $-1 $-1 $243 $235 #
plane-surface $-1 -57.858211004974521 0 0 1 0 0 0 0 -1 forward_v I I I I #
coedge $-1 $353 $238 $240 $357 reversed $142 $-1 #
coedge $-1 $238 $352 $459 $460 reversed $142 $-1 #
coedge $-1 $246 $241 $238 $355 forward $236 $-1 #
edge $-1 $358 -17.347243238548479 $461 -4.2570014070922255 $354 $462 forward 7 unknown #
coedge $-1 $240 $239 $361 $463 reversed $89 $-1 #
edge $-1 $464 0 $358 15.980234689560209 $352 $465 forward 7 unknown #
vertex $-1 $242 $466 #
straight-curve $-1 -44.767969173518267 3.192956511560066 13.454185686232755 0 1 0 I I #
coedge $-1 $459 $243 $246 $365 reversed $350 $-1 #
coedge $-1 $243 $459 $356 $463 forward $350 $-1 #
vertex $-1 $244 $467 #
straight-curve $-1 -57.858211004974521 0.88157960951307146 49.538821275556629 0 0 1 I I #
straight-curve $-1 -57.858211004974521 0.88157960951307146 4.2882995028123929 -0.81915203911291934 0 -0.57357644374324357 I I #
edge $-1 $461 -11.890246436727193 $247 -0.88157960951307146 $360 $468 forward 7 unknown #
point $-1 -57.858211004974521 0.88157960951307146 13.454185686232755 #
point $-1 -44.767969173518267 0.88157960951307146 13.454185686232755 #
edge $-1 $469 1 $469 0 $250 $-1 forward 7 unknown #
vertex $-1 $251 $470 #
ellipse-curve $-1 -49.698570513942215 6.385913023120132 6.5654697254921128 -0.57357644374324357 0 0.81915203911291934 1.228728058669379 0 0.86036466561486535 1 I I #
point $-1 -50.084362030577026 6.385913023120132 9.7316072601374497 #
plane-surface $-1 0 0 13.454185686232755 0 0 1 1 0 0 forward_v I I I I #
coedge $-1 $383 $382 $375 $471 forward $255 $-1 #
coedge $-1 $375 $257 $259 $379 reversed $157 $-1 #
coedge $-1 $257 $374 $373 $471 reversed $157 $-1 #
coedge $-1 $265 $260 $257 $377 forward $266 $-1 #
edge $-1 $380 21.639619089100421 $472 24.646774184089708 $376 $473 forward 7 unknown #
coedge $-1 $259 $258 $383 $474 reversed $98 $-1 #
edge $-1 $475 -115.71642200994901 $380 -111.22229917690993 $374 $476 forward 7 unknown #
vertex $-1 $261 $477 #
straight-curve $-1 54.85105590998522 -5.768092575176663 13.454185686232748 0 -1 0 I I #
coedge $-1 $373 $262 $265 $387 reversed $255 $-1 #
coedge $-1 $262 $373 $378 $474 forward $255 $-1 #
vertex $-1 $263 $478 #
straight-curve $-1 57.858211004974521 -7.4699194966930822 86.768930639616642 0 0 1 I I #
straight-curve $-1 -19.57118755595296 -7.4699194966930822 96.108462718305802 0.66913059716165679 0 -0.74314483375859142 I I #
edge $-1 $472 -15.60245080401357 $267 -7.4699194966930822 $382 $479 forward 7 unknown #
point $-1 57.858211004974521 -7.4699194966930822 13.454185686232755 #
point $-1 54.851055909985234 -7.4699194966930822 13.454185686232748 #
edge $-1 $480 1 $480 0 $270 $-1 forward 7 unknown #
vertex $-1 $271 $481 #
ellipse-curve $-1 53.557254593675275 -13.278870430493431 9.2655224236933353 0.74314483375859142 0 0.66913059716165679 0.66913059716165679 0 -0.74314483375859142 1 I I #
point $-1 57.023764054641546 -13.278870430493431 11.041148769649402 #
edge $-1 $482 1 $482 0 $274 $-1 forward 7 unknown #
vertex $-1 $275 $483 #
ellipse-curve $-1 53.557254593675275 -9.7934998702132248 9.2655224236933353 0.74314483375859142 0 0.66913059716165679 0.66913059716165679 0 -0.74314483375859142 1 I I #
point $-1 57.023764054641546 -9.7934998702132248 11.041148769649402 #
plane-surface $-1 0 0 13.454185686232755 0 0 1 1 0 0 forward_v I I I I #
coedge $-1 $409 $408 $401 $484 forward $279 $-1 #
coedge $-1 $401 $281 $283 $405 reversed $179 $-1 #
coedge $-1 $281 $400 $399 $484 reversed $179 $-1 #
coedge $-1 $289 $284 $281 $403 forward $290 $-1 #
edge $-1 $406 21.639619089100421 $485 24.646774184089708 $402 $486 forward 7 unknown #
coedge $-1 $283 $282 $409 $487 reversed $112 $-1 #
edge $-1 $488 -115.71642200994901 $406 -111.22229917690993 $400 $489 forward 7 unknown #
vertex $-1 $285 $490 #
straight-curve $-1 54.85105590998522 13.263466352750488 13.454185686232748 0 -1 0 I I #
coedge $-1 $399 $286 $289 $413 reversed $279 $-1 #
coedge $-1 $286 $399 $404 $487 forward $279 $-1 #
vertex $-1 $287 $491 #
straight-curve $-1 57.858211004974521 30.593198359161221 86.768930639616642 0 0 1 I I #
straight-curve $-1 -19.57118755595296 30.593198359161221 96.108462718305802 0.66913059716165679 0 -0.74314483375859142 I I #
edge $-1 $485 22.46066705184073 $291 30.593198359161221 $408 $492 forward 7 unknown #
point $-1 57.858211004974521 30.593198359161221 13.454185686232755 #
point $-1 54.851055909985234 30.593198359161221 13.454185686232748 #
edge $-1 $493 1 $493 0 $294 $-1 forward 7 unknown #
vertex $-1 $295 $494 #
ellipse-curve $-1 53.557254593675275 24.784247425360867 9.2655224236933353 0.74314483375859142 0 0.66913059716165679 0.66913059716165679 0 -0.74314483375859142 1 I I #
point $-1 57.023764054641546 24.784247425360867 11.041148769649402 #
edge $-1 $495 1 $495 0 $298 $-1 forward 7 unknown #
vertex $-1 $299 $496 #
ellipse-curve $-1 53.557254593675275 28.269617985641069 9.2655224236933353 0.74314483375859142 0 0.66913059716165679 0.66913059716165679 0 -0.74314483375859142 1 I I #
point $-1 57.023764054641546 28.269617985641069 11.041148769649402 #
plane-surface $-1 57.858211004974521 0 0 -1 0 0 0 0 1 forward_v I I I I #
coedge $-1 $307 $305 $309 $429 reversed $201 $-1 #
edge $-1 $320 -13.454185686232755 $431 13.454185686232755 $319 $497 forward 7 unknown #
vertex $-1 $429 $498 #
straight-curve $-1 -57.858211004974521 -39.746950582048292 0 0 0 -1 I I #
edge $-1 $427 -39.746950582048292 $431 39.746950582048292 $425 $499 forward 7 unknown #
straight-curve $-1 0 -39.746950582048292 -13.454185686232755 -1 0 0 I I #
vertex $-1 $312 $500 #
straight-curve $-1 0 39.746950582048292 -13.454185686232755 1 0 0 I I #
point $-1 57.858211004974521 39.746950582048292 -13.454185686232755 #
point $-1 57.858211004974521 -39.746950582048292 -13.454185686232755 #
straight-curve $-1 -57.858211004974521 0 13.454185686232755 0 -1 0 I I #
point $-1 -57.858211004974521 39.746950582048292 13.454185686232755 #
point $-1 -57.858211004974521 -39.746950582048292 13.454185686232755 #
straight-curve $-1 57.858211004974521 -39.746950582048292 0 0 0 -1 I I #
straight-curve $-1 57.858211004974521 39.746950582048292 0 0 0 -1 I I #
loop $-1 $-1 $448 $329 #
plane-surface $-1 -57.858211004974521 0 0 1 0 0 0 0 -1 forward_v I I I I #
coedge $-1 $333 $332 $454 $501 forward $134 $-1 #
edge $-1 $337 24.756203026900657 $457 39.746950582048292 $336 $502 forward 7 unknown #
coedge $-1 $451 $448 $333 $445 reversed $440 $-1 #
edge $-1 $503 -39.746950582048292 $446 -24.756203026900657 $444 $504 forward 7 unknown #
vertex $-1 $449 $505 #
straight-curve $-1 0 -24.756203026900657 -13.454185686232755 1 0 0 I I #
coedge $-1 $444 $339 $335 $449 forward $440 $-1 #
edge $-1 $341 3.0622879591420684 $446 7.9486944711078138 $448 $506 forward 7 unknown #
point $-1 57.858211004974521 -24.756203026900657 -13.454185686232755 #
coedge $-1 $339 $444 $343 $455 reversed $440 $-1 #
straight-curve $-1 -57.858211004974521 -16.125788402237237 -8.5677791742670095 0 1 0 I I #
point $-1 -57.858211004974521 -24.756203026900657 -8.5677791742670095 #
coedge $-1 $344 $343 $442 $501 reversed $330 $-1 #
edge $-1 $345 8.5677791742670095 $503 13.454185686232755 $451 $507 forward 7 unknown #
point $-1 -57.858211004974521 -39.746950582048292 -8.5677791742670095 #
vertex $-1 $347 $508 #
straight-curve $-1 57.858211004974521 -39.746950582048292 0 0 0 -1 I I #
coedge $-1 $361 $360 $353 $460 forward $350 $-1 #
edge $-1 $461 36.084635589323874 $464 45.250521772744236 $459 $509 forward 7 unknown #
vertex $-1 $365 $510 #
straight-curve $-1 -62.115212412066747 11.890246436727193 13.454185686232755 -1 0 0 I I #
edge $-1 $464 -8.6972899251671265 $362 2.3113769020469945 $361 $511 forward 7 unknown #
vertex $-1 $463 $512 #
straight-curve $-1 -57.858211004974521 11.890246436727193 4.2882995028123929 0.81915203911291934 0 0.57357644374324357 I I #
point $-1 -44.767969173518267 11.890246436727193 13.454185686232755 #
point $-1 -57.858211004974521 0.88157960951307146 4.2882995028123929 #
straight-curve $-1 -57.858211004974521 0 13.454185686232755 0 -1 0 I I #
vertex $-1 $368 $513 #
point $-1 -48.469842455272833 6.385913023120132 7.425834391106978 #
edge $-1 $472 73.314744953383894 $475 76.654529119033413 $373 $514 forward 7 unknown #
vertex $-1 $387 $515 #
straight-curve $-1 33.211436820884813 -15.60245080401357 13.454185686232762 1 0 0 I I #
edge $-1 $475 -9.8343582288369067 $384 -1.7018269215164192 $383 $516 forward 7 unknown #
vertex $-1 $474 $517 #
straight-curve $-1 -19.57118755595296 -15.60245080401357 96.108462718305802 -0.66913059716165679 0 0.74314483375859142 I I #
point $-1 54.851055909985234 -15.60245080401357 13.454185686232748 #
point $-1 57.858211004974521 -7.4699194966930822 10.114401520583229 #
straight-curve $-1 57.858211004974521 0 13.454185686232755 0 1 0 I I #
vertex $-1 $390 $518 #
point $-1 54.226385190836929 -13.278870430493431 8.5223775899347434 #
vertex $-1 $394 $519 #
point $-1 54.226385190836929 -9.7934998702132248 8.5223775899347434 #
edge $-1 $485 73.314744953383894 $488 76.654529119033413 $399 $520 forward 7 unknown #
vertex $-1 $413 $521 #
straight-curve $-1 33.211436820884813 22.46066705184073 13.454185686232762 1 0 0 I I #
edge $-1 $488 9.1972006990902422 $410 17.329732006410733 $409 $522 forward 7 unknown #
vertex $-1 $487 $523 #
straight-curve $-1 -19.57118755595296 22.46066705184073 96.108462718305802 -0.66913059716165679 0 0.74314483375859142 I I #
point $-1 54.851055909985234 22.46066705184073 13.454185686232748 #
point $-1 57.858211004974521 30.593198359161221 10.114401520583229 #
straight-curve $-1 57.858211004974521 0 13.454185686232755 0 1 0 I I #
vertex $-1 $416 $524 #
point $-1 54.226385190836929 24.784247425360867 8.5223775899347434 #
vertex $-1 $420 $525 #
point $-1 54.226385190836929 28.269617985641069 8.5223775899347434 #
straight-curve $-1 -57.858211004974521 39.746950582048292 0 0 0 -1 I I #
point $-1 -57.858211004974521 -39.746950582048292 -13.454185686232755 #
straight-curve $-1 -57.858211004974521 0 -13.454185686232755 0 1 0 I I #
point $-1 -57.858211004974521 39.746950582048292 -13.454185686232755 #
edge $-1 $457 -57.858211004974521 $503 57.858211004974521 $454 $526 forward 7 unknown #
straight-curve $-1 57.858211004974521 0 -13.454185686232755 0 -1 0 I I #
vertex $-1 $445 $527 #
straight-curve $-1 -57.858211004974521 0 -13.454185686232755 0 1 0 I I #
point $-1 -57.858211004974521 -24.756203026900657 -13.454185686232755 #
straight-curve $-1 -57.858211004974521 -24.756203026900657 -5.5054912151249411 0 0 -1 I I #
straight-curve $-1 -57.858211004974521 -39.746950582048292 0 0 0 -1 I I #
point $-1 57.858211004974521 -39.746950582048292 -13.454185686232755 #
straight-curve $-1 -57.858211004974521 11.890246436727193 49.538821275556629 0 0 -1 I I #
point $-1 -57.858211004974521 11.890246436727193 13.454185686232755 #
straight-curve $-1 -57.858211004974521 3.192956511560066 4.2882995028123947 0 -1 0 I I #
point $-1 -57.858211004974521 11.890246436727193 4.2882995028123929 #
point $-1 -48.838205848327348 6.385913023120132 5.3367416668227339 #
straight-curve $-1 57.858211004974521 -15.60245080401357 86.768930639616642 0 0 -1 I I #
point $-1 57.858211004974521 -15.60245080401357 13.454185686232755 #
straight-curve $-1 57.858211004974521 -5.768092575176663 10.114401520583215 0 1 0 I I #
point $-1 57.858211004974521 -15.60245080401357 10.114401520583229 #
point $-1 52.814109759916683 -13.278870430493431 8.5963918265316774 #
point $-1 52.814109759916683 -9.7934998702132248 8.5963918265316774 #
straight-curve $-1 57.858211004974521 22.46066705184073 86.768930639616642 0 0 -1 I I #
point $-1 57.858211004974521 22.46066705184073 13.454185686232755 #
straight-curve $-1 57.858211004974521 13.263466352750488 10.114401520583215 0 1 0 I I #
point $-1 57.858211004974521 22.46066705184073 10.114401520583229 #
point $-1 52.814109759916683 24.784247425360867 8.5963918265316774 #
point $-1 52.814109759916683 28.269617985641069 8.5963918265316774 #
straight-curve $-1 0 -39.746950582048292 -13.454185686232755 -1 0 0 I I #
point $-1 -57.858211004974521 -39.746950582048292 -13.454185686232755 #
End-of-ACIS-data 