500 0 9 0           
7 Unknown 11 ACIS 5.0 NT 24 Thu Mar 25 22:22:02 1999 
-1 9.9999999999999995e-007 1e-010 
body $-1 $9 $-1 $10 #
body $-1 $11 $-1 $12 #
body $-1 $13 $-1 $14 #
body $-1 $15 $-1 $16 #
body $-1 $17 $-1 $18 #
body $-1 $19 $-1 $20 #
body $-1 $21 $-1 $22 #
body $-1 $23 $-1 $24 #
body $-1 $25 $-1 $26 #
lump $-1 $-1 $27 $0 #
transform $-1 1 0 0 0 1 0 0 0 1 74.190496536149169 36.470107239184827 12.056828018408568 1 rotate no_reflect no_shear #
lump $-1 $-1 $28 $1 #
transform $-1 1 0 0 0 1 0 0 0 1 74.190496536149169 36.470107239184827 12.056828018408568 1 rotate no_reflect no_shear #
lump $-1 $-1 $29 $2 #
transform $-1 1 0 0 0 1 0 0 0 1 74.190496536149169 36.470107239184827 12.056828018408568 1 rotate no_reflect no_shear #
lump $-1 $-1 $30 $3 #
transform $-1 1 0 0 0 1 0 0 0 1 74.190496536149169 36.470107239184827 12.056828018408568 1 rotate no_reflect no_shear #
lump $-1 $-1 $31 $4 #
transform $-1 1 0 0 0 1 0 0 0 1 74.190496536149169 36.470107239184827 12.056828018408568 1 rotate no_reflect no_shear #
lump $-1 $-1 $32 $5 #
transform $-1 1 0 0 0 1 0 0 0 1 74.190496536149169 36.470107239184827 12.056828018408568 1 rotate no_reflect no_shear #
lump $-1 $-1 $33 $6 #
transform $-1 1 0 0 0 1 0 0 0 1 74.190496536149169 36.470107239184827 12.056828018408568 1 rotate no_reflect no_shear #
lump $-1 $-1 $34 $7 #
transform $-1 1 0 0 0 1 0 0 0 1 74.190496536149169 36.470107239184827 12.056828018408568 1 rotate no_reflect no_shear #
lump $-1 $-1 $35 $8 #
transform $-1 1 0 0 0 1 0 0 0 1 74.190496536149169 36.470107239184827 12.056828018408568 1 rotate no_reflect no_shear #
shell $-1 $-1 $-1 $36 $-1 $9 #
shell $-1 $-1 $-1 $37 $-1 $11 #
shell $-1 $-1 $-1 $38 $-1 $13 #
shell $-1 $-1 $-1 $39 $-1 $15 #
shell $-1 $-1 $-1 $40 $-1 $17 #
shell $-1 $-1 $-1 $41 $-1 $19 #
shell $-1 $-1 $-1 $42 $-1 $21 #
shell $-1 $-1 $-1 $43 $-1 $23 #
shell $-1 $-1 $-1 $44 $-1 $25 #
face $-1 $45 $46 $27 $-1 $47 forward single #
face $-1 $48 $49 $28 $-1 $50 forward single #
face $-1 $51 $52 $29 $-1 $53 reversed single #
face $-1 $54 $55 $30 $-1 $56 forward single #
face $-1 $57 $58 $31 $-1 $59 forward single #
face $-1 $60 $61 $32 $-1 $62 forward single #
face $-1 $63 $64 $33 $-1 $65 reversed single #
face $-1 $66 $67 $34 $-1 $68 forward single #
face $-1 $69 $70 $35 $-1 $71 forward single #
face $-1 $72 $73 $27 $-1 $74 reversed single #
loop $-1 $-1 $75 $36 #
plane-surface $-1 0 0 12.056828018408568 0 0 1 1 0 0 forward_v I I I I #
face $-1 $76 $77 $28 $-1 $78 reversed single #
loop $-1 $-1 $79 $37 #
plane-surface $-1 0 -28.589827440492115 7.2660461075493501 0 0 1 1 0 0 forward_v I I I I #
face $-1 $80 $81 $29 $-1 $82 reversed single #
loop $-1 $-1 $83 $38 #
plane-surface $-1 -23.156192284709491 -16.227104357336195 112.34222097836242 0.75470958851134928 0 0.65605901945558964 0.65605901945558964 0 -0.75470958851134928 forward_v I I I I #
face $-1 $84 $85 $30 $-1 $86 forward single #
loop $-1 $87 $88 $39 #
cone-surface $-1 68.728177267646984 -18.916570328014117 5.8792158764078764 -0.75470958851134928 0 -0.65605901945558964 0.32802950972779482 0 -0.37735479425567464 1 I I 0 1 0.5 forward I I I I #
face $-1 $89 $90 $31 $-1 $91 forward single #
loop $-1 $92 $93 $40 #
cone-surface $-1 68.728177267646984 -16.227104357336195 5.8792158764078764 -0.75470958851134928 0 -0.65605901945558964 0.32802950972779482 0 -0.37735479425567464 1 I I 0 1 0.5 forward I I I I #
face $-1 $94 $95 $32 $-1 $96 forward single #
loop $-1 $97 $98 $41 #
cone-surface $-1 68.728177267646984 -13.537638386658273 5.8792158764078764 -0.75470958851134928 0 -0.65605901945558964 0.32802950972779482 0 -0.37735479425567464 1 I I 0 1 0.5 forward I I I I #
face $-1 $99 $100 $33 $-1 $101 reversed single #
loop $-1 $-1 $102 $42 #
plane-surface $-1 -159.29833886164892 -5.5428910127209399 124.69728680528746 0 1 0 -0.57357644374324357 0 0.81915203911291934 forward_v I I I I #
face $-1 $103 $104 $34 $-1 $105 forward single #
loop $-1 $106 $107 $43 #
cone-surface $-1 -67.117287449991977 -2.2458411841918746 6.584676956453074 0.57357644374324357 0 -0.81915203911291934 0.81915203911291934 0 0.57357644374324357 1 I I 0 1 1 forward I I I I #
face $-1 $108 $109 $35 $-1 $110 forward single #
loop $-1 $111 $112 $44 #
cone-surface $-1 -67.117287449991977 2.6997335586017215 6.584676956453074 0.57357644374324357 0 -0.81915203911291934 0.81915203911291934 0 0.57357644374324357 1 I I 0 1 1 forward I I I I #
face $-1 $113 $114 $27 $-1 $115 reversed single #
loop $-1 $-1 $116 $45 #
plane-surface $-1 0 0 -12.056828018408568 0 0 1 1 0 0 forward_v I I I I #
coedge $-1 $117 $118 $119 $120 forward $46 $-1 #
face $-1 $121 $122 $28 $-1 $123 reversed single #
loop $-1 $-1 $124 $48 #
plane-surface $-1 0 -28.589827440492115 1.5448389135118283 0 0 1 1 0 0 forward_v I I I I #
coedge $-1 $125 $126 $127 $128 reversed $49 $-1 #
face $-1 $129 $130 $29 $-1 $131 forward single #
loop $-1 $-1 $132 $51 #
plane-surface $-1 88.82836593979016 -11.744661072872988 209.68890979922111 0 -1 0 -0.75470958851134928 0 -0.65605901945558964 forward_v I I I I #
coedge $-1 $133 $134 $135 $136 reversed $52 $-1 #
face $-1 $-1 $137 $30 $-1 $138 forward single #
loop $-1 $139 $140 $54 #
cone-surface $-1 68.162145076263471 -18.916570328014117 5.3871716118161839 -0.75470958851134928 0 -0.65605901945558964 0.16401475486389741 0 -0.18867739712783732 1 I I -0.70710678118654746 0.70710678118654746 0.25 forward I I I I #
loop $-1 $-1 $141 $39 #
coedge $-1 $88 $88 $142 $143 reversed $55 $-1 #
face $-1 $-1 $144 $31 $-1 $145 forward single #
loop $-1 $146 $147 $57 #
cone-surface $-1 68.162145076263471 -16.227104357336195 5.3871716118161839 -0.75470958851134928 0 -0.65605901945558964 0.16401475486389741 0 -0.18867739712783732 1 I I -0.70710678118654746 0.70710678118654746 0.25 forward I I I I #
loop $-1 $-1 $148 $40 #
coedge $-1 $93 $93 $149 $150 reversed $58 $-1 #
face $-1 $-1 $151 $32 $-1 $152 forward single #
loop $-1 $153 $154 $60 #
cone-surface $-1 68.162145076263471 -13.537638386658273 5.3871716118161839 -0.75470958851134928 0 -0.65605901945558964 0.16401475486389741 0 -0.18867739712783732 1 I I -0.70710678118654746 0.70710678118654746 0.25 forward I I I I #
loop $-1 $-1 $155 $41 #
coedge $-1 $98 $98 $156 $157 reversed $61 $-1 #
face $-1 $158 $159 $33 $-1 $160 reversed single #
loop $-1 $-1 $161 $63 #
plane-surface $-1 -74.190496536149169 0.22694618720491633 3.1506937645143154 -0.57357644374324357 0 0.81915203911291934 0.81915203911291934 0 0.57357644374324357 forward_v I I I I #
coedge $-1 $162 $163 $164 $165 reversed $64 $-1 #
face $-1 $-1 $166 $34 $-1 $167 forward single #
loop $-1 $168 $169 $66 #
cone-surface $-1 -66.116928961053745 -2.2458411841918746 5.1560170018882641 0.57357644374324357 0 -0.81915203911291934 0.40957601955645967 0 0.28678822187162178 1 I I -0.70710678118654746 0.70710678118654746 0.5 forward I I I I #
loop $-1 $-1 $170 $43 #
coedge $-1 $107 $107 $171 $172 reversed $67 $-1 #
face $-1 $-1 $173 $35 $-1 $174 forward single #
loop $-1 $175 $176 $69 #
cone-surface $-1 -66.116928961053745 2.6997335586017215 5.1560170018882641 0.57357644374324357 0 -0.81915203911291934 0.40957601955645967 0 0.28678822187162178 1 I I -0.70710678118654746 0.70710678118654746 0.5 forward I I I I #
loop $-1 $-1 $177 $44 #
coedge $-1 $112 $112 $178 $179 reversed $70 $-1 #
face $-1 $180 $181 $27 $-1 $182 reversed single #
loop $-1 $-1 $183 $72 #
plane-surface $-1 0 -36.470107239184827 0 0 1 0 0 0 1 forward_v I I I I #
coedge $-1 $184 $185 $186 $187 forward $73 $-1 #
coedge $-1 $188 $75 $189 $190 forward $46 $-1 #
coedge $-1 $75 $188 $191 $192 forward $46 $-1 #
coedge $-1 $193 $194 $75 $120 reversed $195 $-1 #
edge $-1 $196 -36.470107239184827 $197 36.470107239184827 $119 $198 forward 7 unknown #
face $-1 $199 $200 $28 $-1 $201 reversed single #
loop $-1 $-1 $202 $76 #
plane-surface $-1 0 -20.709547641799404 4.4054425105305892 0 -1 0 0 0 -1 forward_v I I I I #
coedge $-1 $203 $204 $205 $206 reversed $77 $-1 #
coedge $-1 $207 $79 $208 $209 forward $49 $-1 #
coedge $-1 $79 $207 $210 $211 reversed $49 $-1 #
coedge $-1 $212 $213 $79 $128 forward $214 $-1 #
edge $-1 $215 6.4146339215533459 $216 22.175193518938769 $127 $217 forward 7 unknown #
face $-1 $218 $219 $29 $-1 $220 reversed single #
loop $-1 $-1 $221 $80 #
plane-surface $-1 0 -20.709547641799404 4.4054425105305892 0 -1 0 0 0 -1 forward_v I I I I #
coedge $-1 $222 $223 $224 $225 reversed $81 $-1 #
coedge $-1 $226 $83 $221 $227 forward $52 $-1 #
coedge $-1 $83 $226 $222 $228 forward $52 $-1 #
coedge $-1 $224 $229 $83 $136 forward $219 $-1 #
edge $-1 $230 -12.595995463131306 $231 -3.6311088942048908 $135 $232 forward 7 unknown #
loop $-1 $-1 $142 $84 #
plane-surface $-1 -23.156192284709491 -16.227104357336195 112.34222097836242 0.75470958851134928 0 0.65605901945558964 0.65605901945558964 0 -0.75470958851134928 forward_v I I I I #
loop $-1 $-1 $233 $54 #
coedge $-1 $140 $140 $141 $234 reversed $85 $-1 #
coedge $-1 $141 $141 $140 $234 forward $87 $-1 #
coedge $-1 $142 $142 $88 $143 forward $137 $-1 #
edge $-1 $235 0 $235 6.2831853071796004 $142 $236 forward 7 unknown #
loop $-1 $-1 $149 $89 #
plane-surface $-1 -23.156192284709491 -16.227104357336195 112.34222097836242 0.75470958851134928 0 0.65605901945558964 0.65605901945558964 0 -0.75470958851134928 forward_v I I I I #
loop $-1 $-1 $237 $57 #
coedge $-1 $147 $147 $148 $238 reversed $90 $-1 #
coedge $-1 $148 $148 $147 $238 forward $92 $-1 #
coedge $-1 $149 $149 $93 $150 forward $144 $-1 #
edge $-1 $239 0 $239 6.2831853071796004 $149 $240 forward 7 unknown #
loop $-1 $-1 $156 $94 #
plane-surface $-1 -23.156192284709491 -16.227104357336195 112.34222097836242 0.75470958851134928 0 0.65605901945558964 0.65605901945558964 0 -0.75470958851134928 forward_v I I I I #
loop $-1 $-1 $241 $60 #
coedge $-1 $154 $154 $155 $242 reversed $95 $-1 #
coedge $-1 $155 $155 $154 $242 forward $97 $-1 #
coedge $-1 $156 $156 $98 $157 forward $151 $-1 #
edge $-1 $243 0 $243 6.2831853071796004 $156 $244 forward 7 unknown #
face $-1 $245 $246 $33 $-1 $247 forward single #
loop $-1 $-1 $248 $99 #
plane-surface $-1 -159.29833886164892 5.9967833871307725 124.69728680528746 0 -1 0 0.57357644374324357 0 -0.81915203911291934 forward_v I I I I #
coedge $-1 $249 $250 $251 $252 reversed $100 $-1 #
coedge $-1 $163 $102 $253 $254 reversed $64 $-1 #
coedge $-1 $102 $162 $249 $255 reversed $64 $-1 #
coedge $-1 $251 $256 $102 $165 forward $246 $-1 #
edge $-1 $257 5.4586728946752885 $258 18.177950532856421 $164 $259 forward 7 unknown #
loop $-1 $-1 $171 $103 #
plane-surface $-1 -74.190496536149169 0.22694618720491633 3.1506937645143154 -0.57357644374324357 0 0.81915203911291934 0.81915203911291934 0 0.57357644374324357 forward_v I I I I #
loop $-1 $-1 $260 $66 #
coedge $-1 $169 $169 $170 $261 reversed $104 $-1 #
coedge $-1 $170 $170 $169 $261 forward $106 $-1 #
coedge $-1 $171 $171 $107 $172 forward $166 $-1 #
edge $-1 $262 0 $262 6.2831853071796004 $171 $263 forward 7 unknown #
loop $-1 $-1 $178 $108 #
plane-surface $-1 -74.190496536149169 0.22694618720491633 3.1506937645143154 -0.57357644374324357 0 0.81915203911291934 0.81915203911291934 0 0.57357644374324357 forward_v I I I I #
loop $-1 $-1 $264 $69 #
coedge $-1 $176 $176 $177 $265 reversed $109 $-1 #
coedge $-1 $177 $177 $176 $265 forward $111 $-1 #
coedge $-1 $178 $178 $112 $179 forward $173 $-1 #
edge $-1 $266 0 $266 6.2831853071796004 $178 $267 forward 7 unknown #
face $-1 $268 $269 $27 $-1 $270 reversed single #
loop $-1 $-1 $271 $113 #
plane-surface $-1 -74.190496536149169 0 0 1 0 0 0 0 -1 forward_v I I I I #
coedge $-1 $272 $191 $273 $274 forward $114 $-1 #
coedge $-1 $275 $116 $272 $276 forward $73 $-1 #
coedge $-1 $116 $275 $277 $278 forward $73 $-1 #
coedge $-1 $194 $193 $116 $187 reversed $195 $-1 #
edge $-1 $279 -36.470107239184827 $280 36.470107239184827 $186 $281 forward 7 unknown #
coedge $-1 $118 $117 $282 $283 forward $46 $-1 #
coedge $-1 $284 $285 $117 $190 reversed $269 $-1 #
edge $-1 $197 -74.190496536149169 $286 74.190496536149169 $189 $287 forward 7 unknown #
coedge $-1 $183 $288 $118 $192 reversed $114 $-1 #
edge $-1 $289 -74.190496536149169 $196 74.190496536149169 $191 $290 forward 7 unknown #
coedge $-1 $186 $119 $288 $291 forward $195 $-1 #
coedge $-1 $119 $186 $284 $292 reversed $195 $-1 #
loop $-1 $-1 $193 $268 #
vertex $-1 $120 $293 #
vertex $-1 $120 $294 #
straight-curve $-1 74.190496536149169 0 12.056828018408568 0 1 0 I I #
face $-1 $295 $296 $28 $-1 $297 reversed single #
loop $-1 $-1 $298 $121 #
plane-surface $-1 -74.190496536149169 0 0 1 0 0 0 0 -1 forward_v I I I I #
coedge $-1 $299 $208 $213 $300 reversed $122 $-1 #
coedge $-1 $301 $124 $302 $303 reversed $77 $-1 #
coedge $-1 $124 $301 $299 $304 forward $77 $-1 #
coedge $-1 $213 $212 $124 $206 forward $214 $-1 #
edge $-1 $305 -22.175193518938769 $306 -6.4146339215533459 $205 $307 forward 7 unknown #
coedge $-1 $126 $125 $298 $308 reversed $49 $-1 #
coedge $-1 $202 $309 $125 $209 reversed $122 $-1 #
edge $-1 $215 -74.190496536149169 $310 74.190496536149169 $208 $311 forward 7 unknown #
coedge $-1 $312 $313 $126 $211 forward $296 $-1 #
edge $-1 $216 -74.190496536149169 $314 74.190496536149169 $210 $315 forward 7 unknown #
coedge $-1 $205 $127 $313 $316 forward $214 $-1 #
coedge $-1 $127 $205 $202 $300 forward $214 $-1 #
loop $-1 $-1 $127 $295 #
vertex $-1 $128 $317 #
vertex $-1 $316 $318 #
straight-curve $-1 74.190496536149169 -14.294913720246058 7.2660461075493501 0 -1 0 I I #
face $-1 $-1 $319 $29 $-1 $320 forward single #
loop $-1 $-1 $229 $129 #
plane-surface $-1 74.190496536149169 0 0 -1 0 0 0 0 1 forward_v I I I I #
coedge $-1 $321 $322 $133 $227 reversed $130 $-1 #
coedge $-1 $223 $132 $134 $228 reversed $81 $-1 #
coedge $-1 $132 $222 $323 $324 reversed $81 $-1 #
coedge $-1 $325 $135 $132 $225 forward $219 $-1 #
edge $-1 $231 -104.48679214574776 $326 -92.787626881201987 $224 $327 forward 7 unknown #
coedge $-1 $134 $133 $328 $329 reversed $52 $-1 #
edge $-1 $230 -148.38099307229834 $330 -132.87944725568542 $221 $331 forward 7 unknown #
edge $-1 $332 132.87944725568542 $231 148.38099307229834 $222 $333 forward 7 unknown #
coedge $-1 $135 $325 $321 $334 forward $219 $-1 #
vertex $-1 $136 $335 #
vertex $-1 $136 $336 #
straight-curve $-1 74.190496536149169 -8.1135521786680975 0.35766275386280455 0 1 0 I I #
coedge $-1 $233 $233 $-1 $337 reversed $139 $-1 #
edge $-1 $338 0 $338 6.2831853071796004 $140 $339 forward 7 unknown #
vertex $-1 $143 $340 #
ellipse-curve $-1 69.105532061902679 -18.916570328014117 6.20724538613569 0.75470958851134928 0 0.65605901945558964 0.32802950972779482 0 -0.37735479425567464 1 I I #
coedge $-1 $237 $237 $-1 $341 reversed $146 $-1 #
edge $-1 $342 0 $342 6.2831853071796004 $147 $343 forward 7 unknown #
vertex $-1 $150 $344 #
ellipse-curve $-1 69.105532061902679 -16.227104357336195 6.20724538613569 0.75470958851134928 0 0.65605901945558964 0.32802950972779482 0 -0.37735479425567464 1 I I #
coedge $-1 $241 $241 $-1 $345 reversed $153 $-1 #
edge $-1 $346 0 $346 6.2831853071796004 $154 $347 forward 7 unknown #
vertex $-1 $157 $348 #
ellipse-curve $-1 69.105532061902679 -13.537638386658273 6.20724538613569 0.75470958851134928 0 0.65605901945558964 0.32802950972779482 0 -0.37735479425567464 1 I I #
face $-1 $-1 $349 $33 $-1 $350 reversed single #
loop $-1 $-1 $164 $158 #
plane-surface $-1 0 0 12.056828018408568 0 0 1 1 0 0 forward_v I I I I #
coedge $-1 $351 $352 $353 $354 reversed $159 $-1 #
coedge $-1 $355 $161 $163 $255 forward $100 $-1 #
coedge $-1 $161 $355 $351 $356 forward $100 $-1 #
coedge $-1 $353 $164 $161 $252 forward $246 $-1 #
edge $-1 $258 -5.656364106323398 $357 5.8833102935283144 $251 $358 forward 7 unknown #
coedge $-1 $359 $360 $162 $254 forward $349 $-1 #
edge $-1 $361 -59.197949638129415 $257 -50.291815384235164 $253 $362 forward 7 unknown #
edge $-1 $258 -15.527371026207984 $361 0 $163 $363 forward 7 unknown #
coedge $-1 $164 $353 $359 $364 forward $246 $-1 #
vertex $-1 $254 $365 #
vertex $-1 $165 $366 #
straight-curve $-1 -79.649169430824458 -5.5428910127209399 12.056828018408567 1 0 0 I I #
coedge $-1 $260 $260 $-1 $367 reversed $168 $-1 #
edge $-1 $368 0 $368 6.2831853071796004 $169 $369 forward 7 unknown #
vertex $-1 $172 $370 #
ellipse-curve $-1 -67.830857717058592 -2.2458411841918746 7.6037608914614454 -0.57357644374324357 0 0.81915203911291934 0.81915203911291934 0 0.57357644374324357 1 I I #
coedge $-1 $264 $264 $-1 $371 reversed $175 $-1 #
edge $-1 $372 0 $372 6.2831853071796004 $176 $373 forward 7 unknown #
vertex $-1 $179 $374 #
ellipse-curve $-1 -67.830857717058592 2.6997335586017215 7.6037608914614454 -0.57357644374324357 0 0.81915203911291934 0.81915203911291934 0 0.57357644374324357 1 I I #
face $-1 $-1 $195 $27 $-1 $375 reversed single #
loop $-1 $-1 $284 $180 #
plane-surface $-1 0 36.470107239184827 0 0 -1 0 0 0 -1 forward_v I I I I #
coedge $-1 $376 $282 $285 $377 forward $181 $-1 #
coedge $-1 $288 $183 $184 $276 reversed $114 $-1 #
coedge $-1 $282 $376 $183 $274 reversed $181 $-1 #
edge $-1 $289 -12.056828018408568 $378 12.056828018408568 $273 $379 forward 7 unknown #
coedge $-1 $185 $184 $376 $380 forward $73 $-1 #
edge $-1 $280 -74.190496536149169 $378 74.190496536149169 $272 $381 forward 7 unknown #
coedge $-1 $285 $284 $185 $278 reversed $269 $-1 #
edge $-1 $382 -74.190496536149169 $279 74.190496536149169 $277 $383 forward 7 unknown #
vertex $-1 $187 $384 #
vertex $-1 $291 $385 #
straight-curve $-1 74.190496536149169 0 -12.056828018408568 0 -1 0 I I #
coedge $-1 $271 $273 $188 $283 reversed $181 $-1 #
edge $-1 $286 -36.470107239184827 $289 36.470107239184827 $282 $386 forward 7 unknown #
coedge $-1 $277 $189 $194 $292 forward $269 $-1 #
coedge $-1 $189 $277 $271 $377 reversed $269 $-1 #
vertex $-1 $190 $387 #
straight-curve $-1 0 36.470107239184827 12.056828018408568 -1 0 0 I I #
coedge $-1 $191 $272 $193 $291 reversed $114 $-1 #
vertex $-1 $283 $388 #
straight-curve $-1 0 -36.470107239184827 12.056828018408568 1 0 0 I I #
edge $-1 $196 -12.056828018408568 $280 12.056828018408568 $193 $389 forward 7 unknown #
edge $-1 $197 -12.056828018408568 $279 12.056828018408568 $194 $390 forward 7 unknown #
point $-1 74.190496536149169 -36.470107239184827 12.056828018408568 #
point $-1 74.190496536149169 36.470107239184827 12.056828018408568 #
face $-1 $-1 $214 $28 $-1 $391 reversed single #
loop $-1 $-1 $210 $199 #
plane-surface $-1 0 -36.470107239184827 0 0 1 0 0 0 1 forward_v I I I I #
coedge $-1 $392 $393 $207 $308 forward $200 $-1 #
coedge $-1 $309 $202 $204 $304 reversed $122 $-1 #
edge $-1 $306 -0.65788234175346627 $215 5.0633248522840555 $213 $394 forward 7 unknown #
coedge $-1 $204 $203 $395 $396 reversed $77 $-1 #
coedge $-1 $313 $312 $203 $303 forward $296 $-1 #
edge $-1 $397 -74.190496536149169 $305 74.190496536149169 $302 $398 forward 7 unknown #
edge $-1 $399 -74.190496536149169 $306 74.190496536149169 $299 $400 forward 7 unknown #
vertex $-1 $303 $401 #
vertex $-1 $206 $402 #
straight-curve $-1 74.190496536149169 -14.294913720246058 1.5448389135118283 0 1 0 I I #
edge $-1 $314 -22.175193518938769 $310 -6.4146339215533459 $298 $403 forward 7 unknown #
coedge $-1 $208 $299 $392 $404 reversed $122 $-1 #
vertex $-1 $308 $405 #
straight-curve $-1 0 -20.709547641799404 7.2660461075493501 -1 0 0 I I #
coedge $-1 $302 $210 $393 $406 forward $296 $-1 #
coedge $-1 $210 $302 $212 $316 reversed $296 $-1 #
vertex $-1 $406 $407 #
straight-curve $-1 0 -36.470107239184827 7.2660461075493501 -1 0 0 I I #
edge $-1 $216 -7.2660461075493501 $305 -1.5448389135118283 $212 $408 forward 7 unknown #
point $-1 74.190496536149169 -20.709547641799404 7.2660461075493501 #
point $-1 74.190496536149169 -36.470107239184827 7.2660461075493501 #
loop $-1 $-1 $409 $218 #
plane-surface $-1 0 0 12.056828018408568 0 0 1 1 0 0 forward_v I I I I #
coedge $-1 $322 $221 $229 $334 reversed $130 $-1 #
coedge $-1 $221 $321 $409 $410 reversed $130 $-1 #
coedge $-1 $328 $411 $223 $324 forward $319 $-1 #
edge $-1 $326 -29.776313566254089 $332 -19.606384617761123 $323 $412 forward 7 unknown #
coedge $-1 $229 $224 $411 $413 reversed $219 $-1 #
vertex $-1 $225 $414 #
straight-curve $-1 74.190496536149169 -11.744661072872988 104.84445489961055 0 0 1 I I #
coedge $-1 $409 $323 $226 $329 forward $319 $-1 #
edge $-1 $332 3.6311088942048908 $330 12.595995463131306 $328 $415 forward 7 unknown #
vertex $-1 $410 $416 #
straight-curve $-1 -23.156192284709491 -20.709547641799404 112.34222097836242 -0.65605901945558964 0 0.75470958851134928 I I #
vertex $-1 $329 $417 #
straight-curve $-1 -23.156192284709491 -11.744661072872988 112.34222097836242 0.65605901945558964 0 -0.75470958851134928 I I #
edge $-1 $418 92.787626881201987 $230 104.48679214574776 $229 $419 forward 7 unknown #
point $-1 74.190496536149169 -20.709547641799404 0.35766275386279744 #
point $-1 74.190496536149169 -11.744661072872988 0.35766275386279744 #
edge $-1 $420 1 $420 0 $233 $-1 forward 7 unknown #
vertex $-1 $234 $421 #
ellipse-curve $-1 68.350822473391304 -18.916570328014117 5.5511863666800814 0.75470958851134928 0 0.65605901945558964 0.32802950972779482 0 -0.37735479425567464 1 I I #
point $-1 69.433561571630449 -18.916570328014117 5.8298905918799964 #
edge $-1 $422 1 $422 0 $237 $-1 forward 7 unknown #
vertex $-1 $238 $423 #
ellipse-curve $-1 68.350822473391304 -16.227104357336195 5.5511863666800814 0.75470958851134928 0 0.65605901945558964 0.32802950972779482 0 -0.37735479425567464 1 I I #
point $-1 69.433561571630449 -16.227104357336195 5.8298905918799964 #
edge $-1 $424 1 $424 0 $241 $-1 forward 7 unknown #
vertex $-1 $242 $425 #
ellipse-curve $-1 68.350822473391304 -13.537638386658273 5.5511863666800814 0.75470958851134928 0 0.65605901945558964 0.32802950972779482 0 -0.37735479425567464 1 I I #
point $-1 69.433561571630449 -13.537638386658273 5.8298905918799964 #
loop $-1 $-1 $253 $245 #
plane-surface $-1 -74.190496536149169 0 0 1 0 0 0 0 -1 forward_v I I I I #
coedge $-1 $352 $248 $250 $356 reversed $159 $-1 #
coedge $-1 $248 $351 $426 $427 reversed $159 $-1 #
coedge $-1 $256 $251 $248 $354 forward $246 $-1 #
edge $-1 $357 -18.177950532856421 $428 -5.4586728946752885 $353 $429 forward 7 unknown #
coedge $-1 $250 $249 $360 $430 reversed $100 $-1 #
edge $-1 $431 0 $357 15.527371026207984 $351 $432 forward 7 unknown #
vertex $-1 $252 $433 #
straight-curve $-1 -61.471218897968043 0.11347309360245816 12.05682801840857 0 1 0 I I #
coedge $-1 $426 $253 $256 $364 reversed $349 $-1 #
coedge $-1 $253 $426 $355 $430 forward $349 $-1 #
vertex $-1 $254 $434 #
straight-curve $-1 -74.190496536149169 -5.5428910127209399 62.348643402643731 0 0 1 I I #
straight-curve $-1 -74.190496536149169 -5.5428910127209399 3.1506937645143154 -0.81915203911291934 0 -0.57357644374324357 I I #
edge $-1 $428 -5.9967833871307725 $257 5.5428910127209399 $359 $435 forward 7 unknown #
point $-1 -74.190496536149169 -5.5428910127209399 12.056828018408568 #
point $-1 -61.471218897968036 -5.5428910127209399 12.056828018408568 #
edge $-1 $436 1 $436 0 $260 $-1 forward 7 unknown #
vertex $-1 $261 $437 #
ellipse-curve $-1 -66.403717182925362 -2.2458411841918746 5.565593021444724 -0.57357644374324357 0 0.81915203911291934 0.81915203911291934 0 0.57357644374324357 1 I I #
point $-1 -67.011705677945656 -2.2458411841918746 8.1773373352046672 #
edge $-1 $438 1 $438 0 $264 $-1 forward 7 unknown #
vertex $-1 $265 $439 #
ellipse-curve $-1 -66.403717182925362 2.6997335586017215 5.565593021444724 -0.57357644374324357 0 0.81915203911291934 0.81915203911291934 0 0.57357644374324357 1 I I #
point $-1 -67.011705677945656 2.6997335586017215 8.1773373352046672 #
plane-surface $-1 74.190496536149169 0 0 -1 0 0 0 0 1 forward_v I I I I #
coedge $-1 $273 $271 $275 $380 reversed $181 $-1 #
edge $-1 $286 -12.056828018408568 $382 12.056828018408568 $285 $440 forward 7 unknown #
vertex $-1 $380 $441 #
straight-curve $-1 -74.190496536149169 -36.470107239184827 0 0 0 -1 I I #
edge $-1 $378 -36.470107239184827 $382 36.470107239184827 $376 $442 forward 7 unknown #
straight-curve $-1 0 -36.470107239184827 -12.056828018408568 -1 0 0 I I #
vertex $-1 $278 $443 #
straight-curve $-1 0 36.470107239184827 -12.056828018408568 1 0 0 I I #
point $-1 74.190496536149169 36.470107239184827 -12.056828018408568 #
point $-1 74.190496536149169 -36.470107239184827 -12.056828018408568 #
straight-curve $-1 -74.190496536149169 0 12.056828018408568 0 -1 0 I I #
point $-1 -74.190496536149169 36.470107239184827 12.056828018408568 #
point $-1 -74.190496536149169 -36.470107239184827 12.056828018408568 #
straight-curve $-1 74.190496536149169 -36.470107239184827 0 0 0 -1 I I #
straight-curve $-1 74.190496536149169 36.470107239184827 0 0 0 -1 I I #
plane-surface $-1 74.190496536149169 0 0 -1 0 0 0 0 1 forward_v I I I I #
coedge $-1 $395 $298 $309 $404 forward $200 $-1 #
coedge $-1 $298 $395 $312 $406 reversed $200 $-1 #
straight-curve $-1 74.190496536149169 -20.709547641799404 2.2027212552652946 0 0 1 I I #
coedge $-1 $393 $392 $301 $396 forward $200 $-1 #
edge $-1 $399 6.4146339215533459 $397 22.175193518938769 $395 $444 forward 7 unknown #
vertex $-1 $303 $445 #
straight-curve $-1 0 -36.470107239184827 1.5448389135118283 1 0 0 I I #
vertex $-1 $396 $446 #
straight-curve $-1 0 -20.709547641799404 1.5448389135118283 1 0 0 I I #
point $-1 74.190496536149169 -36.470107239184827 1.5448389135118283 #
point $-1 74.190496536149169 -20.709547641799404 1.5448389135118283 #
straight-curve $-1 -74.190496536149169 -14.294913720246058 7.2660461075493501 0 1 0 I I #
edge $-1 $310 -5.0633248522840555 $399 0.65788234175346627 $392 $447 forward 7 unknown #
point $-1 -74.190496536149169 -20.709547641799404 7.2660461075493501 #
edge $-1 $314 -7.2660461075493501 $397 -1.5448389135118283 $393 $448 forward 7 unknown #
point $-1 -74.190496536149169 -36.470107239184827 7.2660461075493501 #
straight-curve $-1 74.190496536149169 -36.470107239184827 0 0 0 -1 I I #
coedge $-1 $411 $328 $322 $410 forward $319 $-1 #
edge $-1 $330 19.606384617761123 $418 29.776313566254089 $409 $449 forward 7 unknown #
coedge $-1 $323 $409 $325 $413 forward $319 $-1 #
straight-curve $-1 44.41418296989508 -11.744661072872988 12.056828018408567 -1 0 0 I I #
edge $-1 $418 -20.709547641799404 $326 -11.744661072872988 $325 $450 forward 7 unknown #
point $-1 74.190496536149169 -11.744661072872988 12.056828018408568 #
straight-curve $-1 64.020567587656203 -8.1135521786680975 12.056828018408567 0 -1 0 I I #
point $-1 64.020567587656203 -20.709547641799404 12.056828018408567 #
point $-1 64.020567587656203 -11.744661072872988 12.056828018408567 #
vertex $-1 $413 $451 #
straight-curve $-1 74.190496536149169 -20.709547641799404 104.84445489961055 0 0 -1 I I #
vertex $-1 $337 $452 #
point $-1 68.678851983119102 -18.916570328014117 5.1738315724244064 #
vertex $-1 $341 $453 #
point $-1 68.678851983119102 -16.227104357336195 5.1738315724244064 #
vertex $-1 $345 $454 #
point $-1 68.678851983119102 -13.537638386658273 5.1738315724244064 #
coedge $-1 $360 $359 $352 $427 forward $349 $-1 #
edge $-1 $428 50.291815384235164 $431 59.197949638129415 $426 $455 forward 7 unknown #
vertex $-1 $364 $456 #
straight-curve $-1 -79.649169430824458 5.9967833871307725 12.056828018408567 -1 0 0 I I #
edge $-1 $431 -5.8833102935283144 $361 5.656364106323398 $360 $457 forward 7 unknown #
vertex $-1 $430 $458 #
straight-curve $-1 -74.190496536149169 5.9967833871307725 3.1506937645143154 0.81915203911291934 0 0.57357644374324357 I I #
point $-1 -61.471218897968036 5.9967833871307725 12.056828018408568 #
point $-1 -74.190496536149169 -5.5428910127209399 3.1506937645143154 #
straight-curve $-1 -74.190496536149169 0 12.056828018408568 0 -1 0 I I #
vertex $-1 $367 $459 #
point $-1 -65.584565143812441 -2.2458411841918746 6.1391694651879671 #
vertex $-1 $371 $460 #
point $-1 -65.584565143812441 2.6997335586017215 6.1391694651879671 #
straight-curve $-1 -74.190496536149169 36.470107239184827 0 0 0 -1 I I #
point $-1 -74.190496536149169 -36.470107239184827 -12.056828018408568 #
straight-curve $-1 -74.190496536149169 0 -12.056828018408568 0 1 0 I I #
point $-1 -74.190496536149169 36.470107239184827 -12.056828018408568 #
straight-curve $-1 -74.190496536149169 -14.294913720246058 1.5448389135118283 0 -1 0 I I #
point $-1 -74.190496536149169 -36.470107239184827 1.5448389135118283 #
point $-1 -74.190496536149169 -20.709547641799404 1.5448389135118283 #
straight-curve $-1 -74.190496536149169 -20.709547641799404 2.2027212552652946 0 0 -1 I I #
straight-curve $-1 -74.190496536149169 -36.470107239184827 0 0 0 -1 I I #
straight-curve $-1 44.41418296989508 -20.709547641799404 12.056828018408567 1 0 0 I I #
straight-curve $-1 74.190496536149169 0 12.056828018408568 0 1 0 I I #
point $-1 74.190496536149169 -20.709547641799404 12.056828018408568 #
point $-1 67.973467679135638 -18.916570328014117 5.2231568569522864 #
point $-1 67.973467679135638 -16.227104357336195 5.2231568569522864 #
point $-1 67.973467679135638 -13.537638386658273 5.2231568569522864 #
straight-curve $-1 -74.190496536149169 5.9967833871307725 62.348643402643731 0 0 -1 I I #
point $-1 -74.190496536149169 5.9967833871307725 12.056828018408568 #
straight-curve $-1 -74.190496536149169 0.11347309360245816 3.1506937645143114 0 -1 0 I I #
point $-1 -74.190496536149169 5.9967833871307725 3.1506937645143154 #
point $-1 -65.830140739182127 -2.2458411841918746 4.7464409823318041 #
point $-1 -65.830140739182127 2.6997335586017215 4.7464409823318041 #
End-of-ACIS-data 