500 0 12 0           
7 Unknown 11 ACIS 5.0 NT 24 Fri Mar 26 14:22:57 1999 
-1 9.9999999999999995e-007 1e-010 
body $-1 $12 $-1 $13 #
body $-1 $14 $-1 $15 #
body $-1 $16 $-1 $17 #
body $-1 $18 $-1 $19 #
body $-1 $20 $-1 $21 #
body $-1 $22 $-1 $23 #
body $-1 $24 $-1 $25 #
body $-1 $26 $-1 $27 #
body $-1 $28 $-1 $29 #
body $-1 $30 $-1 $31 #
body $-1 $32 $-1 $33 #
body $-1 $34 $-1 $35 #
lump $-1 $-1 $36 $0 #
transform $-1 1 0 0 0 1 0 0 0 1 51.858272041993473 31.644513621181403 6.36714616243321 1 rotate no_reflect no_shear #
lump $-1 $-1 $37 $1 #
transform $-1 1 0 0 0 1 0 0 0 1 4.0426471657235927 7.4596434928173245 6.36714616243321 1 rotate no_reflect no_shear #
lump $-1 $-1 $38 $2 #
transform $-1 1 0 0 0 0.51503806187062418 -0.85716730853699208 0 0.85716730853699208 0.51503806187062418 91.627693877703805 119.59520025700851 115.34736727657764 1 rotate no_reflect no_shear #
lump $-1 $-1 $39 $3 #
transform $-1 1 0 0 0 -0.51503806187062418 0.85716730853699208 0 -0.85716730853699208 -0.51503806187062418 91.627693877703805 59.594745979899493 8.899818944736964 1 rotate no_reflect no_shear #
lump $-1 $-1 $40 $4 #
transform $-1 1 0 0 0 0.55919289150049634 0.82903758062907751 0 -0.82903758062907751 0.55919289150049634 45.229664619802264 -85.98491277859759 66.05551802629877 1 rotate no_reflect no_shear #
lump $-1 $-1 $41 $5 #
transform $-1 1 0 0 0 -0.55919289150049634 -0.82903758062907751 0 0.82903758062907751 -0.55919289150049634 41.172289886847558 5.1763168072274777 7.9684336240169271 1 rotate no_reflect no_shear #
lump $-1 $-1 $42 $6 #
transform $-1 1 0 0 0 -0.55919289150049634 -0.82903758062907751 0 0.82903758062907751 -0.55919289150049634 45.229664619802271 5.1763168072274777 7.9684336240169271 1 rotate no_reflect no_shear #
lump $-1 $-1 $43 $7 #
transform $-1 1 0 0 0 -0.55919289150049634 -0.82903758062907751 0 0.82903758062907751 -0.55919289150049634 49.287039352756985 5.1763168072274777 7.9684336240169271 1 rotate no_reflect no_shear #
lump $-1 $-1 $44 $8 #
transform $-1 1 0 0 0 0.55919289150049634 0.82903758062907751 0 -0.82903758062907751 0.55919289150049634 66.572173795631869 -85.98491277859759 66.05551802629877 1 rotate no_reflect no_shear #
lump $-1 $-1 $45 $9 #
transform $-1 1 0 0 0 -0.55919289150049634 -0.82903758062907751 0 0.82903758062907751 -0.55919289150049634 62.514799062677156 5.1763168072274777 7.9684336240169271 1 rotate no_reflect no_shear #
lump $-1 $-1 $46 $10 #
transform $-1 1 0 0 0 -0.55919289150049634 -0.82903758062907751 0 0.82903758062907751 -0.55919289150049634 66.572173795631869 5.1763168072274777 7.9684336240169271 1 rotate no_reflect no_shear #
lump $-1 $-1 $47 $11 #
transform $-1 1 0 0 0 -0.55919289150049634 -0.82903758062907751 0 0.82903758062907751 -0.55919289150049634 70.629548528586582 5.1763168072274777 7.9684336240169271 1 rotate no_reflect no_shear #
shell $-1 $-1 $-1 $48 $-1 $12 #
shell $-1 $-1 $-1 $49 $-1 $14 #
shell $-1 $-1 $-1 $50 $-1 $16 #
shell $-1 $-1 $-1 $51 $-1 $18 #
shell $-1 $-1 $-1 $52 $-1 $20 #
shell $-1 $-1 $-1 $53 $-1 $22 #
shell $-1 $-1 $-1 $54 $-1 $24 #
shell $-1 $-1 $-1 $55 $-1 $26 #
shell $-1 $-1 $-1 $56 $-1 $28 #
shell $-1 $-1 $-1 $57 $-1 $30 #
shell $-1 $-1 $-1 $58 $-1 $32 #
shell $-1 $-1 $-1 $59 $-1 $34 #
face $-1 $60 $61 $36 $-1 $62 forward single #
face $-1 $63 $64 $37 $-1 $65 forward single #
face $-1 $66 $67 $38 $-1 $68 forward single #
face $-1 $69 $70 $39 $-1 $71 forward single #
face $-1 $72 $73 $40 $-1 $74 forward single #
face $-1 $75 $76 $41 $-1 $77 forward single #
face $-1 $78 $79 $42 $-1 $80 forward single #
face $-1 $81 $82 $43 $-1 $83 forward single #
face $-1 $84 $85 $44 $-1 $86 forward single #
face $-1 $87 $88 $45 $-1 $89 forward single #
face $-1 $90 $91 $46 $-1 $92 forward single #
face $-1 $93 $94 $47 $-1 $95 forward single #
face $-1 $96 $97 $36 $-1 $98 reversed single #
loop $-1 $-1 $99 $48 #
plane-surface $-1 0 0 6.36714616243321 0 0 1 1 0 0 forward_v I I I I #
face $-1 $100 $101 $37 $-1 $102 reversed single #
loop $-1 $-1 $103 $49 #
plane-surface $-1 0 0 6.36714616243321 0 0 1 1 0 0 forward_v I I I I #
face $-1 $104 $105 $38 $-1 $106 reversed single #
loop $-1 $-1 $107 $50 #
plane-surface $-1 0 0 103.71654408398695 0 0 1 1 0 0 forward_v I I I I #
face $-1 $108 $109 $39 $-1 $110 forward single #
loop $-1 $111 $112 $51 #
cone-surface $-1 0 0 -1.5192114017151406 0 0 1 1 0 0 1 I I 0 1 1 forward I I I I #
face $-1 $113 $114 $40 $-1 $115 reversed single #
loop $-1 $-1 $116 $52 #
plane-surface $-1 0 0 103.71654408398695 0 0 1 1 0 0 forward_v I I I I #
face $-1 $117 $118 $41 $-1 $119 forward single #
loop $-1 $120 $121 $53 #
cone-surface $-1 0 0 -2.4207129123813589 0 0 1 1 0 0 1 I I 0 1 1 forward I I I I #
face $-1 $122 $123 $42 $-1 $124 forward single #
loop $-1 $125 $126 $54 #
cone-surface $-1 0 0 -2.4207129123813589 0 0 1 1 0 0 1 I I 0 1 1 forward I I I I #
face $-1 $127 $128 $43 $-1 $129 forward single #
loop $-1 $130 $131 $55 #
cone-surface $-1 0 0 -2.4207129123813589 0 0 1 1 0 0 1 I I 0 1 1 forward I I I I #
face $-1 $132 $133 $44 $-1 $134 reversed single #
loop $-1 $-1 $135 $56 #
plane-surface $-1 0 0 103.71654408398695 0 0 1 1 0 0 forward_v I I I I #
face $-1 $136 $137 $45 $-1 $138 forward single #
loop $-1 $139 $140 $57 #
cone-surface $-1 0 0 -2.4207129123813589 0 0 1 1 0 0 1 I I 0 1 1 forward I I I I #
face $-1 $141 $142 $46 $-1 $143 forward single #
loop $-1 $144 $145 $58 #
cone-surface $-1 0 0 -2.4207129123813589 0 0 1 1 0 0 1 I I 0 1 1 forward I I I I #
face $-1 $146 $147 $47 $-1 $148 forward single #
loop $-1 $149 $150 $59 #
cone-surface $-1 0 0 -2.4207129123813589 0 0 1 1 0 0 1 I I 0 1 1 forward I I I I #
face $-1 $151 $152 $36 $-1 $153 reversed single #
loop $-1 $-1 $154 $60 #
plane-surface $-1 0 0 -6.36714616243321 0 0 1 1 0 0 forward_v I I I I #
coedge $-1 $155 $156 $157 $158 forward $61 $-1 #
face $-1 $159 $160 $37 $-1 $161 reversed single #
loop $-1 $-1 $162 $63 #
plane-surface $-1 0 0 -6.36714616243321 0 0 1 1 0 0 forward_v I I I I #
coedge $-1 $163 $164 $165 $166 forward $64 $-1 #
face $-1 $167 $168 $38 $-1 $169 reversed single #
loop $-1 $-1 $170 $66 #
plane-surface $-1 0 0 -103.71654408398695 0 0 1 1 0 0 forward_v I I I I #
coedge $-1 $171 $172 $173 $174 forward $67 $-1 #
face $-1 $-1 $175 $39 $-1 $176 forward single #
loop $-1 $-1 $177 $69 #
plane-surface $-1 0 0 -2.5384228034302807 0 0 -1 -1 0 0 forward_v I I I I #
loop $-1 $-1 $178 $51 #
coedge $-1 $112 $112 $177 $179 reversed $70 $-1 #
face $-1 $180 $181 $40 $-1 $182 reversed single #
loop $-1 $-1 $183 $72 #
plane-surface $-1 0 0 -103.71654408398695 0 0 1 1 0 0 forward_v I I I I #
coedge $-1 $184 $185 $186 $187 forward $73 $-1 #
face $-1 $-1 $188 $41 $-1 $189 forward single #
loop $-1 $-1 $190 $75 #
plane-surface $-1 0 0 -4.3414258247627178 0 0 -1 -1 0 0 forward_v I I I I #
loop $-1 $-1 $191 $53 #
coedge $-1 $121 $121 $190 $192 reversed $76 $-1 #
face $-1 $-1 $193 $42 $-1 $194 forward single #
loop $-1 $-1 $195 $78 #
plane-surface $-1 0 0 -4.3414258247627178 0 0 -1 -1 0 0 forward_v I I I I #
loop $-1 $-1 $196 $54 #
coedge $-1 $126 $126 $195 $197 reversed $79 $-1 #
face $-1 $-1 $198 $43 $-1 $199 forward single #
loop $-1 $-1 $200 $81 #
plane-surface $-1 0 0 -4.3414258247627178 0 0 -1 -1 0 0 forward_v I I I I #
loop $-1 $-1 $201 $55 #
coedge $-1 $131 $131 $200 $202 reversed $82 $-1 #
face $-1 $203 $204 $44 $-1 $205 reversed single #
loop $-1 $-1 $206 $84 #
plane-surface $-1 0 0 -103.71654408398695 0 0 1 1 0 0 forward_v I I I I #
coedge $-1 $207 $208 $209 $210 forward $85 $-1 #
face $-1 $-1 $211 $45 $-1 $212 forward single #
loop $-1 $-1 $213 $87 #
plane-surface $-1 0 0 -4.3414258247627178 0 0 -1 -1 0 0 forward_v I I I I #
loop $-1 $-1 $214 $57 #
coedge $-1 $140 $140 $213 $215 reversed $88 $-1 #
face $-1 $-1 $216 $46 $-1 $217 forward single #
loop $-1 $-1 $218 $90 #
plane-surface $-1 0 0 -4.3414258247627178 0 0 -1 -1 0 0 forward_v I I I I #
loop $-1 $-1 $219 $58 #
coedge $-1 $145 $145 $218 $220 reversed $91 $-1 #
face $-1 $-1 $221 $47 $-1 $222 forward single #
loop $-1 $-1 $223 $93 #
plane-surface $-1 0 0 -4.3414258247627178 0 0 -1 -1 0 0 forward_v I I I I #
loop $-1 $-1 $224 $59 #
coedge $-1 $150 $150 $223 $225 reversed $94 $-1 #
face $-1 $226 $227 $36 $-1 $228 reversed single #
loop $-1 $-1 $229 $96 #
plane-surface $-1 0 -31.644513621181403 0 0 1 0 0 0 1 forward_v I I I I #
coedge $-1 $230 $231 $232 $233 forward $97 $-1 #
coedge $-1 $234 $99 $235 $236 forward $61 $-1 #
coedge $-1 $99 $234 $237 $238 forward $61 $-1 #
coedge $-1 $239 $240 $99 $158 reversed $241 $-1 #
edge $-1 $242 -31.644513621181403 $243 31.644513621181403 $157 $244 forward 7 unknown #
face $-1 $245 $246 $37 $-1 $247 reversed single #
loop $-1 $-1 $248 $100 #
plane-surface $-1 0 -1.5 0 0 1 0 0 0 1 forward_v I I I I #
coedge $-1 $249 $250 $251 $252 forward $101 $-1 #
coedge $-1 $253 $103 $254 $255 forward $64 $-1 #
coedge $-1 $103 $253 $256 $257 forward $64 $-1 #
coedge $-1 $258 $259 $103 $166 reversed $260 $-1 #
edge $-1 $261 -1.5 $262 1.5 $165 $263 forward 7 unknown #
face $-1 $264 $265 $38 $-1 $266 reversed single #
loop $-1 $-1 $267 $104 #
plane-surface $-1 0 -207.43308816797389 0 0 1 0 0 0 1 forward_v I I I I #
coedge $-1 $268 $269 $270 $271 forward $105 $-1 #
coedge $-1 $272 $107 $273 $274 forward $67 $-1 #
coedge $-1 $107 $272 $275 $276 forward $67 $-1 #
coedge $-1 $277 $278 $107 $174 reversed $279 $-1 #
edge $-1 $280 -207.43308816797389 $281 207.43308816797389 $173 $282 forward 7 unknown #
loop $-1 $283 $284 $108 #
cone-surface $-1 0 0 0 0 0 1 0.5 0 0 1 I I -0.70710678118654746 0.70710678118654746 0.5 forward I I I I #
coedge $-1 $177 $177 $112 $179 forward $109 $-1 #
coedge $-1 $178 $178 $284 $285 forward $111 $-1 #
edge $-1 $286 0 $286 6.2831853071796004 $177 $287 forward 7 unknown #
face $-1 $288 $289 $40 $-1 $290 reversed single #
loop $-1 $-1 $291 $113 #
plane-surface $-1 0 -207.43308816797389 0 0 1 0 0 0 1 forward_v I I I I #
coedge $-1 $292 $293 $294 $295 forward $114 $-1 #
coedge $-1 $296 $116 $297 $298 forward $73 $-1 #
coedge $-1 $116 $296 $299 $300 forward $73 $-1 #
coedge $-1 $301 $302 $116 $187 reversed $303 $-1 #
edge $-1 $304 -207.43308816797389 $305 207.43308816797389 $186 $306 forward 7 unknown #
loop $-1 $307 $308 $117 #
cone-surface $-1 0 0 0 0 0 1 0.5 0 0 1 I I -0.70710678118654746 0.70710678118654746 0.5 forward I I I I #
coedge $-1 $190 $190 $121 $192 forward $118 $-1 #
coedge $-1 $191 $191 $308 $309 forward $120 $-1 #
edge $-1 $310 0 $310 6.2831853071796004 $190 $311 forward 7 unknown #
loop $-1 $312 $313 $122 #
cone-surface $-1 0 0 0 0 0 1 0.5 0 0 1 I I -0.70710678118654746 0.70710678118654746 0.5 forward I I I I #
coedge $-1 $195 $195 $126 $197 forward $123 $-1 #
coedge $-1 $196 $196 $313 $314 forward $125 $-1 #
edge $-1 $315 0 $315 6.2831853071796004 $195 $316 forward 7 unknown #
loop $-1 $317 $318 $127 #
cone-surface $-1 0 0 0 0 0 1 0.5 0 0 1 I I -0.70710678118654746 0.70710678118654746 0.5 forward I I I I #
coedge $-1 $200 $200 $131 $202 forward $128 $-1 #
coedge $-1 $201 $201 $318 $319 forward $130 $-1 #
edge $-1 $320 0 $320 6.2831853071796004 $200 $321 forward 7 unknown #
face $-1 $322 $323 $44 $-1 $324 reversed single #
loop $-1 $-1 $325 $132 #
plane-surface $-1 0 -207.43308816797389 0 0 1 0 0 0 1 forward_v I I I I #
coedge $-1 $326 $327 $328 $329 forward $133 $-1 #
coedge $-1 $330 $135 $331 $332 forward $85 $-1 #
coedge $-1 $135 $330 $333 $334 forward $85 $-1 #
coedge $-1 $335 $336 $135 $210 reversed $337 $-1 #
edge $-1 $338 -207.43308816797389 $339 207.43308816797389 $209 $340 forward 7 unknown #
loop $-1 $341 $342 $136 #
cone-surface $-1 0 0 0 0 0 1 0.5 0 0 1 I I -0.70710678118654746 0.70710678118654746 0.5 forward I I I I #
coedge $-1 $213 $213 $140 $215 forward $137 $-1 #
coedge $-1 $214 $214 $342 $343 forward $139 $-1 #
edge $-1 $344 0 $344 6.2831853071796004 $213 $345 forward 7 unknown #
loop $-1 $346 $347 $141 #
cone-surface $-1 0 0 0 0 0 1 0.5 0 0 1 I I -0.70710678118654746 0.70710678118654746 0.5 forward I I I I #
coedge $-1 $218 $218 $145 $220 forward $142 $-1 #
coedge $-1 $219 $219 $347 $348 forward $144 $-1 #
edge $-1 $349 0 $349 6.2831853071796004 $218 $350 forward 7 unknown #
loop $-1 $351 $352 $146 #
cone-surface $-1 0 0 0 0 0 1 0.5 0 0 1 I I -0.70710678118654746 0.70710678118654746 0.5 forward I I I I #
coedge $-1 $223 $223 $150 $225 forward $147 $-1 #
coedge $-1 $224 $224 $352 $353 forward $149 $-1 #
edge $-1 $354 0 $354 6.2831853071796004 $223 $355 forward 7 unknown #
face $-1 $356 $357 $36 $-1 $358 reversed single #
loop $-1 $-1 $359 $151 #
plane-surface $-1 -51.858272041993473 0 0 1 0 0 0 0 -1 forward_v I I I I #
coedge $-1 $360 $237 $361 $362 forward $152 $-1 #
coedge $-1 $363 $154 $360 $364 forward $97 $-1 #
coedge $-1 $154 $363 $365 $366 forward $97 $-1 #
coedge $-1 $240 $239 $154 $233 reversed $241 $-1 #
edge $-1 $367 -31.644513621181403 $368 31.644513621181403 $232 $369 forward 7 unknown #
coedge $-1 $156 $155 $370 $371 forward $61 $-1 #
coedge $-1 $372 $373 $155 $236 reversed $357 $-1 #
edge $-1 $243 -51.858272041993473 $374 51.858272041993473 $235 $375 forward 7 unknown #
coedge $-1 $229 $376 $156 $238 reversed $152 $-1 #
edge $-1 $377 -51.858272041993473 $242 51.858272041993473 $237 $378 forward 7 unknown #
coedge $-1 $232 $157 $376 $379 forward $241 $-1 #
coedge $-1 $157 $232 $372 $380 reversed $241 $-1 #
loop $-1 $-1 $239 $356 #
vertex $-1 $158 $381 #
vertex $-1 $158 $382 #
straight-curve $-1 51.858272041993473 0 6.36714616243321 0 1 0 I I #
face $-1 $383 $384 $37 $-1 $385 reversed single #
loop $-1 $-1 $386 $159 #
plane-surface $-1 -4.0426471657235927 0 0 1 0 0 0 0 -1 forward_v I I I I #
coedge $-1 $387 $256 $388 $389 forward $160 $-1 #
coedge $-1 $390 $162 $387 $391 forward $101 $-1 #
coedge $-1 $162 $390 $392 $393 forward $101 $-1 #
coedge $-1 $259 $258 $162 $252 reversed $260 $-1 #
edge $-1 $394 -1.5 $395 1.5 $251 $396 forward 7 unknown #
coedge $-1 $164 $163 $397 $398 forward $64 $-1 #
coedge $-1 $399 $400 $163 $255 reversed $384 $-1 #
edge $-1 $262 -4.0426471657235927 $401 4.0426471657235927 $254 $402 forward 7 unknown #
coedge $-1 $248 $403 $164 $257 reversed $160 $-1 #
edge $-1 $404 -4.0426471657235927 $261 4.0426471657235927 $256 $405 forward 7 unknown #
coedge $-1 $251 $165 $403 $406 forward $260 $-1 #
coedge $-1 $165 $251 $399 $407 reversed $260 $-1 #
loop $-1 $-1 $258 $383 #
vertex $-1 $166 $408 #
vertex $-1 $166 $409 #
straight-curve $-1 4.0426471657235927 0 6.36714616243321 0 1 0 I I #
face $-1 $410 $411 $38 $-1 $412 reversed single #
loop $-1 $-1 $413 $167 #
plane-surface $-1 -8.4918810340427058 0 0 1 0 0 0 0 -1 forward_v I I I I #
coedge $-1 $414 $275 $415 $416 forward $168 $-1 #
coedge $-1 $417 $170 $414 $418 forward $105 $-1 #
coedge $-1 $170 $417 $419 $420 forward $105 $-1 #
coedge $-1 $278 $277 $170 $271 reversed $279 $-1 #
edge $-1 $421 -207.43308816797389 $422 207.43308816797389 $270 $423 forward 7 unknown #
coedge $-1 $172 $171 $424 $425 forward $67 $-1 #
coedge $-1 $426 $427 $171 $274 reversed $411 $-1 #
edge $-1 $281 -8.4918810340427058 $428 8.4918810340427058 $273 $429 forward 7 unknown #
coedge $-1 $267 $430 $172 $276 reversed $168 $-1 #
edge $-1 $431 -8.4918810340427058 $280 8.4918810340427058 $275 $432 forward 7 unknown #
coedge $-1 $270 $173 $430 $433 forward $279 $-1 #
coedge $-1 $173 $270 $426 $434 reversed $279 $-1 #
loop $-1 $-1 $277 $410 #
vertex $-1 $174 $435 #
vertex $-1 $174 $436 #
straight-curve $-1 8.4918810340427058 0 103.71654408398695 0 1 0 I I #
loop $-1 $-1 $437 $108 #
coedge $-1 $284 $284 $178 $285 reversed $175 $-1 #
edge $-1 $438 0 $438 6.2831853071796004 $284 $439 forward 7 unknown #
vertex $-1 $179 $440 #
ellipse-curve $-1 0 0 -2.5384228034302807 0 0 -1 1 0 0 1 I I #
face $-1 $441 $442 $40 $-1 $443 reversed single #
loop $-1 $-1 $444 $180 #
plane-surface $-1 -6.7622912215911875 0 0 1 0 0 0 0 -1 forward_v I I I I #
coedge $-1 $445 $299 $446 $447 forward $181 $-1 #
coedge $-1 $448 $183 $445 $449 forward $114 $-1 #
coedge $-1 $183 $448 $450 $451 forward $114 $-1 #
coedge $-1 $302 $301 $183 $295 reversed $303 $-1 #
edge $-1 $452 -207.43308816797389 $453 207.43308816797389 $294 $454 forward 7 unknown #
coedge $-1 $185 $184 $455 $456 forward $73 $-1 #
coedge $-1 $457 $458 $184 $298 reversed $442 $-1 #
edge $-1 $305 -6.7622912215911875 $459 6.7622912215911875 $297 $460 forward 7 unknown #
coedge $-1 $291 $461 $185 $300 reversed $181 $-1 #
edge $-1 $462 -6.7622912215911875 $304 6.7622912215911875 $299 $463 forward 7 unknown #
coedge $-1 $294 $186 $461 $464 forward $303 $-1 #
coedge $-1 $186 $294 $457 $465 reversed $303 $-1 #
loop $-1 $-1 $301 $441 #
vertex $-1 $187 $466 #
vertex $-1 $187 $467 #
straight-curve $-1 6.7622912215911875 0 103.71654408398695 0 1 0 I I #
loop $-1 $-1 $468 $117 #
coedge $-1 $308 $308 $191 $309 reversed $188 $-1 #
edge $-1 $469 0 $469 6.2831853071796004 $308 $470 forward 7 unknown #
vertex $-1 $192 $471 #
ellipse-curve $-1 0 0 -4.3414258247627178 0 0 -1 1 0 0 1 I I #
loop $-1 $-1 $472 $122 #
coedge $-1 $313 $313 $196 $314 reversed $193 $-1 #
edge $-1 $473 0 $473 6.2831853071796004 $313 $474 forward 7 unknown #
vertex $-1 $197 $475 #
ellipse-curve $-1 0 0 -4.3414258247627178 0 0 -1 1 0 0 1 I I #
loop $-1 $-1 $476 $127 #
coedge $-1 $318 $318 $201 $319 reversed $198 $-1 #
edge $-1 $477 0 $477 6.2831853071796004 $318 $478 forward 7 unknown #
vertex $-1 $202 $479 #
ellipse-curve $-1 0 0 -4.3414258247627178 0 0 -1 1 0 0 1 I I #
face $-1 $480 $481 $44 $-1 $482 reversed single #
loop $-1 $-1 $483 $203 #
plane-surface $-1 -6.7622912215911875 0 0 1 0 0 0 0 -1 forward_v I I I I #
coedge $-1 $484 $333 $485 $486 forward $204 $-1 #
coedge $-1 $487 $206 $484 $488 forward $133 $-1 #
coedge $-1 $206 $487 $489 $490 forward $133 $-1 #
coedge $-1 $336 $335 $206 $329 reversed $337 $-1 #
edge $-1 $491 -207.43308816797389 $492 207.43308816797389 $328 $493 forward 7 unknown #
coedge $-1 $208 $207 $494 $495 forward $85 $-1 #
coedge $-1 $496 $497 $207 $332 reversed $481 $-1 #
edge $-1 $339 -6.7622912215911875 $498 6.7622912215911875 $331 $499 forward 7 unknown #
coedge $-1 $325 $500 $208 $334 reversed $204 $-1 #
edge $-1 $501 -6.7622912215911875 $338 6.7622912215911875 $333 $502 forward 7 unknown #
coedge $-1 $328 $209 $500 $503 forward $337 $-1 #
coedge $-1 $209 $328 $496 $504 reversed $337 $-1 #
loop $-1 $-1 $335 $480 #
vertex $-1 $210 $505 #
vertex $-1 $210 $506 #
straight-curve $-1 6.7622912215911875 0 103.71654408398695 0 1 0 I I #
loop $-1 $-1 $507 $136 #
coedge $-1 $342 $342 $214 $343 reversed $211 $-1 #
edge $-1 $508 0 $508 6.2831853071796004 $342 $509 forward 7 unknown #
vertex $-1 $215 $510 #
ellipse-curve $-1 0 0 -4.3414258247627178 0 0 -1 1 0 0 1 I I #
loop $-1 $-1 $511 $141 #
coedge $-1 $347 $347 $219 $348 reversed $216 $-1 #
edge $-1 $512 0 $512 6.2831853071796004 $347 $513 forward 7 unknown #
vertex $-1 $220 $514 #
ellipse-curve $-1 0 0 -4.3414258247627178 0 0 -1 1 0 0 1 I I #
loop $-1 $-1 $515 $146 #
coedge $-1 $352 $352 $224 $353 reversed $221 $-1 #
edge $-1 $516 0 $516 6.2831853071796004 $352 $517 forward 7 unknown #
vertex $-1 $225 $518 #
ellipse-curve $-1 0 0 -4.3414258247627178 0 0 -1 1 0 0 1 I I #
face $-1 $-1 $241 $36 $-1 $519 reversed single #
loop $-1 $-1 $372 $226 #
plane-surface $-1 0 31.644513621181403 0 0 -1 0 0 0 -1 forward_v I I I I #
coedge $-1 $520 $370 $373 $521 forward $227 $-1 #
coedge $-1 $376 $229 $230 $364 reversed $152 $-1 #
coedge $-1 $370 $520 $229 $362 reversed $227 $-1 #
edge $-1 $377 -6.36714616243321 $522 6.36714616243321 $361 $523 forward 7 unknown #
coedge $-1 $231 $230 $520 $524 forward $97 $-1 #
edge $-1 $368 -51.858272041993473 $522 51.858272041993473 $360 $525 forward 7 unknown #
coedge $-1 $373 $372 $231 $366 reversed $357 $-1 #
edge $-1 $526 -51.858272041993473 $367 51.858272041993473 $365 $527 forward 7 unknown #
vertex $-1 $233 $528 #
vertex $-1 $379 $529 #
straight-curve $-1 51.858272041993473 0 -6.36714616243321 0 -1 0 I I #
coedge $-1 $359 $361 $234 $371 reversed $227 $-1 #
edge $-1 $374 -31.644513621181403 $377 31.644513621181403 $370 $530 forward 7 unknown #
coedge $-1 $365 $235 $240 $380 forward $357 $-1 #
coedge $-1 $235 $365 $359 $521 reversed $357 $-1 #
vertex $-1 $236 $531 #
straight-curve $-1 0 31.644513621181403 6.36714616243321 -1 0 0 I I #
coedge $-1 $237 $360 $239 $379 reversed $152 $-1 #
vertex $-1 $371 $532 #
straight-curve $-1 0 -31.644513621181403 6.36714616243321 1 0 0 I I #
edge $-1 $242 -6.36714616243321 $368 6.36714616243321 $239 $533 forward 7 unknown #
edge $-1 $243 -6.36714616243321 $367 6.36714616243321 $240 $534 forward 7 unknown #
point $-1 51.858272041993473 -31.644513621181403 6.36714616243321 #
point $-1 51.858272041993473 31.644513621181403 6.36714616243321 #
face $-1 $-1 $260 $37 $-1 $535 reversed single #
loop $-1 $-1 $399 $245 #
plane-surface $-1 0 1.5 0 0 -1 0 0 0 -1 forward_v I I I I #
coedge $-1 $536 $397 $400 $537 forward $246 $-1 #
coedge $-1 $403 $248 $249 $391 reversed $160 $-1 #
coedge $-1 $397 $536 $248 $389 reversed $246 $-1 #
edge $-1 $404 -6.36714616243321 $538 6.36714616243321 $388 $539 forward 7 unknown #
coedge $-1 $250 $249 $536 $540 forward $101 $-1 #
edge $-1 $395 -4.0426471657235927 $538 4.0426471657235927 $387 $541 forward 7 unknown #
coedge $-1 $400 $399 $250 $393 reversed $384 $-1 #
edge $-1 $542 -4.0426471657235927 $394 4.0426471657235927 $392 $543 forward 7 unknown #
vertex $-1 $252 $544 #
vertex $-1 $406 $545 #
straight-curve $-1 4.0426471657235927 0 -6.36714616243321 0 -1 0 I I #
coedge $-1 $386 $388 $253 $398 reversed $246 $-1 #
edge $-1 $401 -1.5 $404 1.5 $397 $546 forward 7 unknown #
coedge $-1 $392 $254 $259 $407 forward $384 $-1 #
coedge $-1 $254 $392 $386 $537 reversed $384 $-1 #
vertex $-1 $255 $547 #
straight-curve $-1 0 1.5 6.36714616243321 -1 0 0 I I #
coedge $-1 $256 $387 $258 $406 reversed $160 $-1 #
vertex $-1 $398 $548 #
straight-curve $-1 0 -1.5 6.36714616243321 1 0 0 I I #
edge $-1 $261 -6.36714616243321 $395 6.36714616243321 $258 $549 forward 7 unknown #
edge $-1 $262 -6.36714616243321 $394 6.36714616243321 $259 $550 forward 7 unknown #
point $-1 4.0426471657235927 -1.5 6.36714616243321 #
point $-1 4.0426471657235927 1.5 6.36714616243321 #
face $-1 $-1 $279 $38 $-1 $551 reversed single #
loop $-1 $-1 $426 $264 #
plane-surface $-1 0 207.43308816797389 0 0 -1 0 0 0 -1 forward_v I I I I #
coedge $-1 $552 $424 $427 $553 forward $265 $-1 #
coedge $-1 $430 $267 $268 $418 reversed $168 $-1 #
coedge $-1 $424 $552 $267 $416 reversed $265 $-1 #
edge $-1 $431 -103.71654408398695 $554 103.71654408398695 $415 $555 forward 7 unknown #
coedge $-1 $269 $268 $552 $556 forward $105 $-1 #
edge $-1 $422 -8.4918810340427058 $554 8.4918810340427058 $414 $557 forward 7 unknown #
coedge $-1 $427 $426 $269 $420 reversed $411 $-1 #
edge $-1 $558 -8.4918810340427058 $421 8.4918810340427058 $419 $559 forward 7 unknown #
vertex $-1 $271 $560 #
vertex $-1 $433 $561 #
straight-curve $-1 8.4918810340427058 0 -103.71654408398695 0 -1 0 I I #
coedge $-1 $413 $415 $272 $425 reversed $265 $-1 #
edge $-1 $428 -207.43308816797389 $431 207.43308816797389 $424 $562 forward 7 unknown #
coedge $-1 $419 $273 $278 $434 forward $411 $-1 #
coedge $-1 $273 $419 $413 $553 reversed $411 $-1 #
vertex $-1 $274 $563 #
straight-curve $-1 0 207.43308816797389 103.71654408398695 -1 0 0 I I #
coedge $-1 $275 $414 $277 $433 reversed $168 $-1 #
vertex $-1 $425 $564 #
straight-curve $-1 0 -207.43308816797389 103.71654408398695 1 0 0 I I #
edge $-1 $280 -103.71654408398695 $422 103.71654408398695 $277 $565 forward 7 unknown #
edge $-1 $281 -103.71654408398695 $421 103.71654408398695 $278 $566 forward 7 unknown #
point $-1 8.4918810340427058 -207.43308816797389 103.71654408398695 #
point $-1 8.4918810340427058 207.43308816797389 103.71654408398695 #
coedge $-1 $437 $437 $-1 $567 reversed $283 $-1 #
vertex $-1 $285 $568 #
ellipse-curve $-1 0 0 -0.5 0 0 -1 1 0 0 1 I I #
point $-1 1 0 -2.5384228034302807 #
face $-1 $-1 $303 $40 $-1 $569 reversed single #
loop $-1 $-1 $457 $288 #
plane-surface $-1 0 207.43308816797389 0 0 -1 0 0 0 -1 forward_v I I I I #
coedge $-1 $570 $455 $458 $571 forward $289 $-1 #
coedge $-1 $461 $291 $292 $449 reversed $181 $-1 #
coedge $-1 $455 $570 $291 $447 reversed $289 $-1 #
edge $-1 $462 -103.71654408398695 $572 103.71654408398695 $446 $573 forward 7 unknown #
coedge $-1 $293 $292 $570 $574 forward $114 $-1 #
edge $-1 $453 -6.7622912215911875 $572 6.7622912215911875 $445 $575 forward 7 unknown #
coedge $-1 $458 $457 $293 $451 reversed $442 $-1 #
edge $-1 $576 -6.7622912215911875 $452 6.7622912215911875 $450 $577 forward 7 unknown #
vertex $-1 $295 $578 #
vertex $-1 $464 $579 #
straight-curve $-1 6.7622912215911875 0 -103.71654408398695 0 -1 0 I I #
coedge $-1 $444 $446 $296 $456 reversed $289 $-1 #
edge $-1 $459 -207.43308816797389 $462 207.43308816797389 $455 $580 forward 7 unknown #
coedge $-1 $450 $297 $302 $465 forward $442 $-1 #
coedge $-1 $297 $450 $444 $571 reversed $442 $-1 #
vertex $-1 $298 $581 #
straight-curve $-1 0 207.43308816797389 103.71654408398695 -1 0 0 I I #
coedge $-1 $299 $445 $301 $464 reversed $181 $-1 #
vertex $-1 $456 $582 #
straight-curve $-1 0 -207.43308816797389 103.71654408398695 1 0 0 I I #
edge $-1 $304 -103.71654408398695 $453 103.71654408398695 $301 $583 forward 7 unknown #
edge $-1 $305 -103.71654408398695 $452 103.71654408398695 $302 $584 forward 7 unknown #
point $-1 6.7622912215911875 -207.43308816797389 103.71654408398695 #
point $-1 6.7622912215911875 207.43308816797389 103.71654408398695 #
coedge $-1 $468 $468 $-1 $585 reversed $307 $-1 #
vertex $-1 $309 $586 #
ellipse-curve $-1 0 0 -0.5 0 0 -1 1 0 0 1 I I #
point $-1 1 0 -4.3414258247627178 #
coedge $-1 $472 $472 $-1 $587 reversed $312 $-1 #
vertex $-1 $314 $588 #
ellipse-curve $-1 0 0 -0.5 0 0 -1 1 0 0 1 I I #
point $-1 1 0 -4.3414258247627178 #
coedge $-1 $476 $476 $-1 $589 reversed $317 $-1 #
vertex $-1 $319 $590 #
ellipse-curve $-1 0 0 -0.5 0 0 -1 1 0 0 1 I I #
point $-1 1 0 -4.3414258247627178 #
face $-1 $-1 $337 $44 $-1 $591 reversed single #
loop $-1 $-1 $496 $322 #
plane-surface $-1 0 207.43308816797389 0 0 -1 0 0 0 -1 forward_v I I I I #
coedge $-1 $592 $494 $497 $593 forward $323 $-1 #
coedge $-1 $500 $325 $326 $488 reversed $204 $-1 #
coedge $-1 $494 $592 $325 $486 reversed $323 $-1 #
edge $-1 $501 -103.71654408398695 $594 103.71654408398695 $485 $595 forward 7 unknown #
coedge $-1 $327 $326 $592 $596 forward $133 $-1 #
edge $-1 $492 -6.7622912215911875 $594 6.7622912215911875 $484 $597 forward 7 unknown #
coedge $-1 $497 $496 $327 $490 reversed $481 $-1 #
edge $-1 $598 -6.7622912215911875 $491 6.7622912215911875 $489 $599 forward 7 unknown #
vertex $-1 $329 $600 #
vertex $-1 $503 $601 #
straight-curve $-1 6.7622912215911875 0 -103.71654408398695 0 -1 0 I I #
coedge $-1 $483 $485 $330 $495 reversed $323 $-1 #
edge $-1 $498 -207.43308816797389 $501 207.43308816797389 $494 $602 forward 7 unknown #
coedge $-1 $489 $331 $336 $504 forward $481 $-1 #
coedge $-1 $331 $489 $483 $593 reversed $481 $-1 #
vertex $-1 $332 $603 #
straight-curve $-1 0 207.43308816797389 103.71654408398695 -1 0 0 I I #
coedge $-1 $333 $484 $335 $503 reversed $204 $-1 #
vertex $-1 $495 $604 #
straight-curve $-1 0 -207.43308816797389 103.71654408398695 1 0 0 I I #
edge $-1 $338 -103.71654408398695 $492 103.71654408398695 $335 $605 forward 7 unknown #
edge $-1 $339 -103.71654408398695 $491 103.71654408398695 $336 $606 forward 7 unknown #
point $-1 6.7622912215911875 -207.43308816797389 103.71654408398695 #
point $-1 6.7622912215911875 207.43308816797389 103.71654408398695 #
coedge $-1 $507 $507 $-1 $607 reversed $341 $-1 #
vertex $-1 $343 $608 #
ellipse-curve $-1 0 0 -0.5 0 0 -1 1 0 0 1 I I #
point $-1 1 0 -4.3414258247627178 #
coedge $-1 $511 $511 $-1 $609 reversed $346 $-1 #
vertex $-1 $348 $610 #
ellipse-curve $-1 0 0 -0.5 0 0 -1 1 0 0 1 I I #
point $-1 1 0 -4.3414258247627178 #
coedge $-1 $515 $515 $-1 $611 reversed $351 $-1 #
vertex $-1 $353 $612 #
ellipse-curve $-1 0 0 -0.5 0 0 -1 1 0 0 1 I I #
point $-1 1 0 -4.3414258247627178 #
plane-surface $-1 51.858272041993473 0 0 -1 0 0 0 0 1 forward_v I I I I #
coedge $-1 $361 $359 $363 $524 reversed $227 $-1 #
edge $-1 $374 -6.36714616243321 $526 6.36714616243321 $373 $613 forward 7 unknown #
vertex $-1 $524 $614 #
straight-curve $-1 -51.858272041993473 -31.644513621181403 0 0 0 -1 I I #
edge $-1 $522 -31.644513621181403 $526 31.644513621181403 $520 $615 forward 7 unknown #
straight-curve $-1 0 -31.644513621181403 -6.36714616243321 -1 0 0 I I #
vertex $-1 $366 $616 #
straight-curve $-1 0 31.644513621181403 -6.36714616243321 1 0 0 I I #
point $-1 51.858272041993473 31.644513621181403 -6.36714616243321 #
point $-1 51.858272041993473 -31.644513621181403 -6.36714616243321 #
straight-curve $-1 -51.858272041993473 0 6.36714616243321 0 -1 0 I I #
point $-1 -51.858272041993473 31.644513621181403 6.36714616243321 #
point $-1 -51.858272041993473 -31.644513621181403 6.36714616243321 #
straight-curve $-1 51.858272041993473 -31.644513621181403 0 0 0 -1 I I #
straight-curve $-1 51.858272041993473 31.644513621181403 0 0 0 -1 I I #
plane-surface $-1 4.0426471657235927 0 0 -1 0 0 0 0 1 forward_v I I I I #
coedge $-1 $388 $386 $390 $540 reversed $246 $-1 #
edge $-1 $401 -6.36714616243321 $542 6.36714616243321 $400 $617 forward 7 unknown #
vertex $-1 $540 $618 #
straight-curve $-1 -4.0426471657235927 -1.5 0 0 0 -1 I I #
edge $-1 $538 -1.5 $542 1.5 $536 $619 forward 7 unknown #
straight-curve $-1 0 -1.5 -6.36714616243321 -1 0 0 I I #
vertex $-1 $393 $620 #
straight-curve $-1 0 1.5 -6.36714616243321 1 0 0 I I #
point $-1 4.0426471657235927 1.5 -6.36714616243321 #
point $-1 4.0426471657235927 -1.5 -6.36714616243321 #
straight-curve $-1 -4.0426471657235927 0 6.36714616243321 0 -1 0 I I #
point $-1 -4.0426471657235927 1.5 6.36714616243321 #
point $-1 -4.0426471657235927 -1.5 6.36714616243321 #
straight-curve $-1 4.0426471657235927 -1.5 0 0 0 -1 I I #
straight-curve $-1 4.0426471657235927 1.5 0 0 0 -1 I I #
plane-surface $-1 8.4918810340427058 0 0 -1 0 0 0 0 1 forward_v I I I I #
coedge $-1 $415 $413 $417 $556 reversed $265 $-1 #
edge $-1 $428 -103.71654408398695 $558 103.71654408398695 $427 $621 forward 7 unknown #
vertex $-1 $556 $622 #
straight-curve $-1 -8.4918810340427058 -207.43308816797389 0 0 0 -1 I I #
edge $-1 $554 -207.43308816797389 $558 207.43308816797389 $552 $623 forward 7 unknown #
straight-curve $-1 0 -207.43308816797389 -103.71654408398695 -1 0 0 I I #
vertex $-1 $420 $624 #
straight-curve $-1 0 207.43308816797389 -103.71654408398695 1 0 0 I I #
point $-1 8.4918810340427058 207.43308816797389 -103.71654408398695 #
point $-1 8.4918810340427058 -207.43308816797389 -103.71654408398695 #
straight-curve $-1 -8.4918810340427058 0 103.71654408398695 0 -1 0 I I #
point $-1 -8.4918810340427058 207.43308816797389 103.71654408398695 #
point $-1 -8.4918810340427058 -207.43308816797389 103.71654408398695 #
straight-curve $-1 8.4918810340427058 -207.43308816797389 0 0 0 -1 I I #
straight-curve $-1 8.4918810340427058 207.43308816797389 0 0 0 -1 I I #
edge $-1 $625 1 $625 0 $437 $-1 forward 7 unknown #
point $-1 1 0 -0.5 #
plane-surface $-1 6.7622912215911875 0 0 -1 0 0 0 0 1 forward_v I I I I #
coedge $-1 $446 $444 $448 $574 reversed $289 $-1 #
edge $-1 $459 -103.71654408398695 $576 103.71654408398695 $458 $626 forward 7 unknown #
vertex $-1 $574 $627 #
straight-curve $-1 -6.7622912215911875 -207.43308816797389 0 0 0 -1 I I #
edge $-1 $572 -207.43308816797389 $576 207.43308816797389 $570 $628 forward 7 unknown #
straight-curve $-1 0 -207.43308816797389 -103.71654408398695 -1 0 0 I I #
vertex $-1 $451 $629 #
straight-curve $-1 0 207.43308816797389 -103.71654408398695 1 0 0 I I #
point $-1 6.7622912215911875 207.43308816797389 -103.71654408398695 #
point $-1 6.7622912215911875 -207.43308816797389 -103.71654408398695 #
straight-curve $-1 -6.7622912215911875 0 103.71654408398695 0 -1 0 I I #
point $-1 -6.7622912215911875 207.43308816797389 103.71654408398695 #
point $-1 -6.7622912215911875 -207.43308816797389 103.71654408398695 #
straight-curve $-1 6.7622912215911875 -207.43308816797389 0 0 0 -1 I I #
straight-curve $-1 6.7622912215911875 207.43308816797389 0 0 0 -1 I I #
edge $-1 $630 1 $630 0 $468 $-1 forward 7 unknown #
point $-1 1 0 -0.5 #
edge $-1 $631 1 $631 0 $472 $-1 forward 7 unknown #
point $-1 1 0 -0.5 #
edge $-1 $632 1 $632 0 $476 $-1 forward 7 unknown #
point $-1 1 0 -0.5 #
plane-surface $-1 6.7622912215911875 0 0 -1 0 0 0 0 1 forward_v I I I I #
coedge $-1 $485 $483 $487 $596 reversed $323 $-1 #
edge $-1 $498 -103.71654408398695 $598 103.71654408398695 $497 $633 forward 7 unknown #
vertex $-1 $596 $634 #
straight-curve $-1 -6.7622912215911875 -207.43308816797389 0 0 0 -1 I I #
edge $-1 $594 -207.43308816797389 $598 207.43308816797389 $592 $635 forward 7 unknown #
straight-curve $-1 0 -207.43308816797389 -103.71654408398695 -1 0 0 I I #
vertex $-1 $490 $636 #
straight-curve $-1 0 207.43308816797389 -103.71654408398695 1 0 0 I I #
point $-1 6.7622912215911875 207.43308816797389 -103.71654408398695 #
point $-1 6.7622912215911875 -207.43308816797389 -103.71654408398695 #
straight-curve $-1 -6.7622912215911875 0 103.71654408398695 0 -1 0 I I #
point $-1 -6.7622912215911875 207.43308816797389 103.71654408398695 #
point $-1 -6.7622912215911875 -207.43308816797389 103.71654408398695 #
straight-curve $-1 6.7622912215911875 -207.43308816797389 0 0 0 -1 I I #
straight-curve $-1 6.7622912215911875 207.43308816797389 0 0 0 -1 I I #
edge $-1 $637 1 $637 0 $507 $-1 forward 7 unknown #
point $-1 1 0 -0.5 #
edge $-1 $638 1 $638 0 $511 $-1 forward 7 unknown #
point $-1 1 0 -0.5 #
edge $-1 $639 1 $639 0 $515 $-1 forward 7 unknown #
point $-1 1 0 -0.5 #
straight-curve $-1 -51.858272041993473 31.644513621181403 0 0 0 -1 I I #
point $-1 -51.858272041993473 -31.644513621181403 -6.36714616243321 #
straight-curve $-1 -51.858272041993473 0 -6.36714616243321 0 1 0 I I #
point $-1 -51.858272041993473 31.644513621181403 -6.36714616243321 #
straight-curve $-1 -4.0426471657235927 1.5 0 0 0 -1 I I #
point $-1 -4.0426471657235927 -1.5 -6.36714616243321 #
straight-curve $-1 -4.0426471657235927 0 -6.36714616243321 0 1 0 I I #
point $-1 -4.0426471657235927 1.5 -6.36714616243321 #
straight-curve $-1 -8.4918810340427058 207.43308816797389 0 0 0 -1 I I #
point $-1 -8.4918810340427058 -207.43308816797389 -103.71654408398695 #
straight-curve $-1 -8.4918810340427058 0 -103.71654408398695 0 1 0 I I #
point $-1 -8.4918810340427058 207.43308816797389 -103.71654408398695 #
vertex $-1 $567 $640 #
straight-curve $-1 -6.7622912215911875 207.43308816797389 0 0 0 -1 I I #
point $-1 -6.7622912215911875 -207.43308816797389 -103.71654408398695 #
straight-curve $-1 -6.7622912215911875 0 -103.71654408398695 0 1 0 I I #
point $-1 -6.7622912215911875 207.43308816797389 -103.71654408398695 #
vertex $-1 $585 $641 #
vertex $-1 $587 $642 #
vertex $-1 $589 $643 #
straight-curve $-1 -6.7622912215911875 207.43308816797389 0 0 0 -1 I I #
point $-1 -6.7622912215911875 -207.43308816797389 -103.71654408398695 #
straight-curve $-1 -6.7622912215911875 0 -103.71654408398695 0 1 0 I I #
point $-1 -6.7622912215911875 207.43308816797389 -103.71654408398695 #
vertex $-1 $607 $644 #
vertex $-1 $609 $645 #
vertex $-1 $611 $646 #
point $-1 0 0 0.5 #
point $-1 0 0 0.5 #
point $-1 0 0 0.5 #
point $-1 0 0 0.5 #
point $-1 0 0 0.5 #
point $-1 0 0 0.5 #
point $-1 0 0 0.5 #
End-of-ACIS-data 