500 0 18 0           
7 Unknown 11 ACIS 5.0 NT 24 Thu Mar 25 19:48:56 1999 
-1 9.9999999999999995e-007 1e-010 
body $-1 $18 $-1 $19 #
body $-1 $20 $-1 $21 #
body $-1 $22 $-1 $23 #
body $-1 $24 $-1 $25 #
body $-1 $26 $-1 $27 #
body $-1 $28 $-1 $29 #
body $-1 $30 $-1 $31 #
body $-1 $32 $-1 $33 #
body $-1 $34 $-1 $35 #
body $-1 $36 $-1 $37 #
body $-1 $38 $-1 $39 #
body $-1 $40 $-1 $41 #
body $-1 $42 $-1 $43 #
body $-1 $44 $-1 $45 #
body $-1 $46 $-1 $47 #
body $-1 $48 $-1 $49 #
body $-1 $50 $-1 $51 #
body $-1 $52 $-1 $53 #
lump $-1 $-1 $54 $0 #
transform $-1 1 0 0 0 1 0 0 0 1 68.741111484115123 44.056240657094371 13.48214812356786 1 rotate no_reflect no_shear #
lump $-1 $-1 $55 $1 #
transform $-1 1 0 0 0 1 0 0 0 1 68.741111484115123 44.056240657094371 13.48214812356786 1 rotate no_reflect no_shear #
lump $-1 $-1 $56 $2 #
transform $-1 1 0 0 0 1 0 0 0 1 68.741111484115123 44.056240657094371 13.48214812356786 1 rotate no_reflect no_shear #
lump $-1 $-1 $57 $3 #
transform $-1 1 0 0 0 1 0 0 0 1 68.741111484115123 44.056240657094371 13.48214812356786 1 rotate no_reflect no_shear #
lump $-1 $-1 $58 $4 #
transform $-1 1 0 0 0 1 0 0 0 1 68.741111484115123 44.056240657094371 13.48214812356786 1 rotate no_reflect no_shear #
lump $-1 $-1 $59 $5 #
transform $-1 1 0 0 0 1 0 0 0 1 68.741111484115123 44.056240657094371 13.48214812356786 1 rotate no_reflect no_shear #
lump $-1 $-1 $60 $6 #
transform $-1 1 0 0 0 1 0 0 0 1 68.741111484115123 44.056240657094371 13.48214812356786 1 rotate no_reflect no_shear #
lump $-1 $-1 $61 $7 #
transform $-1 1 0 0 0 1 0 0 0 1 68.741111484115123 44.056240657094371 13.48214812356786 1 rotate no_reflect no_shear #
lump $-1 $-1 $62 $8 #
transform $-1 1 0 0 0 1 0 0 0 1 68.741111484115123 44.056240657094371 13.48214812356786 1 rotate no_reflect no_shear #
lump $-1 $-1 $63 $9 #
transform $-1 1 0 0 0 1 0 0 0 1 68.741111484115123 44.056240657094371 13.48214812356786 1 rotate no_reflect no_shear #
lump $-1 $-1 $64 $10 #
transform $-1 1 0 0 0 1 0 0 0 1 68.741111484115123 44.056240657094371 13.48214812356786 1 rotate no_reflect no_shear #
lump $-1 $-1 $65 $11 #
transform $-1 1 0 0 0 1 0 0 0 1 68.741111484115123 44.056240657094371 13.48214812356786 1 rotate no_reflect no_shear #
lump $-1 $-1 $66 $12 #
transform $-1 1 0 0 0 1 0 0 0 1 68.741111484115123 44.056240657094371 13.48214812356786 1 rotate no_reflect no_shear #
lump $-1 $-1 $67 $13 #
transform $-1 1 0 0 0 1 0 0 0 1 68.741111484115123 44.056240657094371 13.48214812356786 1 rotate no_reflect no_shear #
lump $-1 $-1 $68 $14 #
transform $-1 1 0 0 0 1 0 0 0 1 68.741111484115123 44.056240657094371 13.48214812356786 1 rotate no_reflect no_shear #
lump $-1 $-1 $69 $15 #
transform $-1 1 0 0 0 1 0 0 0 1 68.741111484115123 44.056240657094371 13.48214812356786 1 rotate no_reflect no_shear #
lump $-1 $-1 $70 $16 #
transform $-1 1 0 0 0 1 0 0 0 1 68.741111484115123 44.056240657094371 13.48214812356786 1 rotate no_reflect no_shear #
lump $-1 $-1 $71 $17 #
transform $-1 1 0 0 0 1 0 0 0 1 68.741111484115123 44.056240657094371 13.48214812356786 1 rotate no_reflect no_shear #
shell $-1 $-1 $-1 $72 $-1 $18 #
shell $-1 $-1 $-1 $73 $-1 $20 #
shell $-1 $-1 $-1 $74 $-1 $22 #
shell $-1 $-1 $-1 $75 $-1 $24 #
shell $-1 $-1 $-1 $76 $-1 $26 #
shell $-1 $-1 $-1 $77 $-1 $28 #
shell $-1 $-1 $-1 $78 $-1 $30 #
shell $-1 $-1 $-1 $79 $-1 $32 #
shell $-1 $-1 $-1 $80 $-1 $34 #
shell $-1 $-1 $-1 $81 $-1 $36 #
shell $-1 $-1 $-1 $82 $-1 $38 #
shell $-1 $-1 $-1 $83 $-1 $40 #
shell $-1 $-1 $-1 $84 $-1 $42 #
shell $-1 $-1 $-1 $85 $-1 $44 #
shell $-1 $-1 $-1 $86 $-1 $46 #
shell $-1 $-1 $-1 $87 $-1 $48 #
shell $-1 $-1 $-1 $88 $-1 $50 #
shell $-1 $-1 $-1 $89 $-1 $52 #
face $-1 $90 $91 $54 $-1 $92 forward single #
face $-1 $93 $94 $55 $-1 $95 reversed single #
face $-1 $96 $97 $56 $-1 $98 reversed single #
face $-1 $99 $100 $57 $-1 $101 forward single #
face $-1 $102 $103 $58 $-1 $104 forward single #
face $-1 $105 $106 $59 $-1 $107 forward single #
face $-1 $108 $109 $60 $-1 $110 reversed single #
face $-1 $111 $112 $61 $-1 $113 forward single #
face $-1 $114 $115 $62 $-1 $116 forward single #
face $-1 $117 $118 $63 $-1 $119 forward single #
face $-1 $120 $121 $64 $-1 $122 reversed single #
face $-1 $123 $124 $65 $-1 $125 forward single #
face $-1 $126 $127 $66 $-1 $128 forward single #
face $-1 $129 $130 $67 $-1 $131 forward single #
face $-1 $132 $133 $68 $-1 $134 reversed single #
face $-1 $135 $136 $69 $-1 $137 forward single #
face $-1 $138 $139 $70 $-1 $140 forward single #
face $-1 $141 $142 $71 $-1 $143 forward single #
face $-1 $144 $145 $54 $-1 $146 reversed single #
loop $-1 $-1 $147 $72 #
plane-surface $-1 0 0 13.48214812356786 0 0 1 1 0 0 forward_v I I I I #
face $-1 $148 $149 $55 $-1 $150 reversed single #
loop $-1 $-1 $151 $73 #
plane-surface $-1 -65.701487189463265 -33.492271751114494 0 0 -1 0 0 0 -1 forward_v I I I I #
face $-1 $152 $153 $56 $-1 $154 reversed single #
loop $-1 $-1 $155 $74 #
plane-surface $-1 -48.95918726952533 64.930035123380293 162.02388236509518 -1 0 0 0 0.64278761758704617 0.76604443648966558 forward_v I I I I #
face $-1 $156 $157 $57 $-1 $158 forward single #
loop $-1 $159 $160 $75 #
cone-surface $-1 -64.784726641197167 35.319170825444971 5.8883764636791716 0 -0.64278761758704617 -0.76604443648966558 1 0 0 1 I I 0 1 1 forward I I I I #
face $-1 $161 $162 $58 $-1 $163 forward single #
loop $-1 $164 $165 $76 #
cone-surface $-1 -58.850149376820227 35.319170825444971 5.8883764636791716 0 -0.64278761758704617 -0.76604443648966558 1 0 0 1 I I 0 1 1 forward I I I I #
face $-1 $166 $167 $59 $-1 $168 forward single #
loop $-1 $169 $170 $77 #
cone-surface $-1 -52.915572112443293 35.319170825444971 5.8883764636791716 0 -0.64278761758704617 -0.76604443648966558 1 0 0 1 I I 0 1 1 forward I I I I #
face $-1 $171 $172 $60 $-1 $173 reversed single #
loop $-1 $-1 $174 $78 #
plane-surface $-1 -14.588631527467772 64.930035123380293 162.02388236509518 -1 0 0 0 0.64278761758704617 0.76604443648966558 forward_v I I I I #
face $-1 $175 $176 $61 $-1 $177 forward single #
loop $-1 $178 $179 $79 #
cone-surface $-1 -30.414170899139606 35.319170825444971 5.8883764636791716 0 -0.64278761758704617 -0.76604443648966558 1 0 0 1 I I 0 1 1 forward I I I I #
face $-1 $180 $181 $62 $-1 $182 forward single #
loop $-1 $183 $184 $80 #
cone-surface $-1 -24.479593634762665 35.319170825444971 5.8883764636791716 0 -0.64278761758704617 -0.76604443648966558 1 0 0 1 I I 0 1 1 forward I I I I #
face $-1 $185 $186 $63 $-1 $187 forward single #
loop $-1 $188 $189 $81 #
cone-surface $-1 -18.545016370385731 35.319170825444971 5.8883764636791716 0 -0.64278761758704617 -0.76604443648966558 1 0 0 1 I I 0 1 1 forward I I I I #
face $-1 $190 $191 $64 $-1 $192 reversed single #
loop $-1 $-1 $193 $82 #
plane-surface $-1 19.78192421458979 64.930035123380293 162.02388236509518 -1 0 0 0 0.64278761758704617 0.76604443648966558 forward_v I I I I #
face $-1 $194 $195 $65 $-1 $196 forward single #
loop $-1 $197 $198 $83 #
cone-surface $-1 3.9563848429179558 35.319170825444971 5.8883764636791716 0 -0.64278761758704617 -0.76604443648966558 1 0 0 1 I I 0 1 1 forward I I I I #
face $-1 $199 $200 $66 $-1 $201 forward single #
loop $-1 $202 $203 $84 #
cone-surface $-1 9.8909621072948966 35.319170825444971 5.8883764636791716 0 -0.64278761758704617 -0.76604443648966558 1 0 0 1 I I 0 1 1 forward I I I I #
face $-1 $204 $205 $67 $-1 $206 forward single #
loop $-1 $207 $208 $85 #
cone-surface $-1 15.825539371671823 35.319170825444971 5.8883764636791716 0 -0.64278761758704617 -0.76604443648966558 1 0 0 1 I I 0 1 1 forward I I I I #
face $-1 $209 $210 $68 $-1 $211 reversed single #
loop $-1 $-1 $212 $86 #
plane-surface $-1 54.152479956647355 64.930035123380293 162.02388236509518 -1 0 0 0 0.64278761758704617 0.76604443648966558 forward_v I I I I #
face $-1 $213 $214 $69 $-1 $215 forward single #
loop $-1 $216 $217 $87 #
cone-surface $-1 38.326940584975517 35.319170825444971 5.8883764636791716 0 -0.64278761758704617 -0.76604443648966558 1 0 0 1 I I 0 1 1 forward I I I I #
face $-1 $218 $219 $70 $-1 $220 forward single #
loop $-1 $221 $222 $88 #
cone-surface $-1 44.261517849352458 35.319170825444971 5.8883764636791716 0 -0.64278761758704617 -0.76604443648966558 1 0 0 1 I I 0 1 1 forward I I I I #
face $-1 $223 $224 $71 $-1 $225 forward single #
loop $-1 $226 $227 $89 #
cone-surface $-1 50.196095113729385 35.319170825444971 5.8883764636791716 0 -0.64278761758704617 -0.76604443648966558 1 0 0 1 I I 0 1 1 forward I I I I #
face $-1 $228 $229 $54 $-1 $230 reversed single #
loop $-1 $-1 $231 $90 #
plane-surface $-1 0 0 -13.48214812356786 0 0 1 1 0 0 forward_v I I I I #
coedge $-1 $232 $233 $234 $235 forward $91 $-1 #
face $-1 $236 $237 $55 $-1 $238 forward single #
loop $-1 $-1 $239 $93 #
plane-surface $-1 -62.661862894811399 -38.774256204104432 0 -1 0 0 0 0 1 forward_v I I I I #
coedge $-1 $240 $241 $242 $243 forward $94 $-1 #
face $-1 $244 $245 $56 $-1 $246 reversed single #
loop $-1 $-1 $247 $96 #
plane-surface $-1 -58.850149376820227 -23.441835438939506 56.706390344050675 0 0.64278761758704617 0.76604443648966558 1 0 0 forward_v I I I I #
coedge $-1 $248 $249 $250 $251 reversed $97 $-1 #
face $-1 $-1 $252 $57 $-1 $253 forward single #
loop $-1 $254 $255 $99 #
cone-surface $-1 -64.784726641197167 34.253422795772771 4.6182674471195071 0 -0.64278761758704617 -0.76604443648966558 0.5 0 0 1 I I -0.70710678118654746 0.70710678118654746 0.5 forward I I I I #
loop $-1 $-1 $256 $75 #
coedge $-1 $160 $160 $257 $258 reversed $100 $-1 #
face $-1 $-1 $259 $58 $-1 $260 forward single #
loop $-1 $261 $262 $102 #
cone-surface $-1 -58.850149376820227 34.253422795772771 4.6182674471195071 0 -0.64278761758704617 -0.76604443648966558 0.5 0 0 1 I I -0.70710678118654746 0.70710678118654746 0.5 forward I I I I #
loop $-1 $-1 $263 $76 #
coedge $-1 $165 $165 $264 $265 reversed $103 $-1 #
face $-1 $-1 $266 $59 $-1 $267 forward single #
loop $-1 $268 $269 $105 #
cone-surface $-1 -52.915572112443293 34.253422795772771 4.6182674471195071 0 -0.64278761758704617 -0.76604443648966558 0.5 0 0 1 I I -0.70710678118654746 0.70710678118654746 0.5 forward I I I I #
loop $-1 $-1 $270 $77 #
coedge $-1 $170 $170 $271 $272 reversed $106 $-1 #
face $-1 $273 $274 $60 $-1 $275 reversed single #
loop $-1 $-1 $276 $108 #
plane-surface $-1 -24.479593634762665 -23.441835438939506 56.706390344050675 0 0.64278761758704617 0.76604443648966558 1 0 0 forward_v I I I I #
coedge $-1 $277 $278 $279 $280 reversed $109 $-1 #
face $-1 $-1 $281 $61 $-1 $282 forward single #
loop $-1 $283 $284 $111 #
cone-surface $-1 -30.414170899139606 34.253422795772771 4.6182674471195071 0 -0.64278761758704617 -0.76604443648966558 0.5 0 0 1 I I -0.70710678118654746 0.70710678118654746 0.5 forward I I I I #
loop $-1 $-1 $285 $79 #
coedge $-1 $179 $179 $286 $287 reversed $112 $-1 #
face $-1 $-1 $288 $62 $-1 $289 forward single #
loop $-1 $290 $291 $114 #
cone-surface $-1 -24.479593634762665 34.253422795772771 4.6182674471195071 0 -0.64278761758704617 -0.76604443648966558 0.5 0 0 1 I I -0.70710678118654746 0.70710678118654746 0.5 forward I I I I #
loop $-1 $-1 $292 $80 #
coedge $-1 $184 $184 $293 $294 reversed $115 $-1 #
face $-1 $-1 $295 $63 $-1 $296 forward single #
loop $-1 $297 $298 $117 #
cone-surface $-1 -18.545016370385731 34.253422795772771 4.6182674471195071 0 -0.64278761758704617 -0.76604443648966558 0.5 0 0 1 I I -0.70710678118654746 0.70710678118654746 0.5 forward I I I I #
loop $-1 $-1 $299 $81 #
coedge $-1 $189 $189 $300 $301 reversed $118 $-1 #
face $-1 $302 $303 $64 $-1 $304 reversed single #
loop $-1 $-1 $305 $120 #
plane-surface $-1 9.8909621072948966 -23.441835438939506 56.706390344050675 0 0.64278761758704617 0.76604443648966558 1 0 0 forward_v I I I I #
coedge $-1 $306 $307 $308 $309 reversed $121 $-1 #
face $-1 $-1 $310 $65 $-1 $311 forward single #
loop $-1 $312 $313 $123 #
cone-surface $-1 3.9563848429179558 34.253422795772771 4.6182674471195071 0 -0.64278761758704617 -0.76604443648966558 0.5 0 0 1 I I -0.70710678118654746 0.70710678118654746 0.5 forward I I I I #
loop $-1 $-1 $314 $83 #
coedge $-1 $198 $198 $315 $316 reversed $124 $-1 #
face $-1 $-1 $317 $66 $-1 $318 forward single #
loop $-1 $319 $320 $126 #
cone-surface $-1 9.8909621072948966 34.253422795772771 4.6182674471195071 0 -0.64278761758704617 -0.76604443648966558 0.5 0 0 1 I I -0.70710678118654746 0.70710678118654746 0.5 forward I I I I #
loop $-1 $-1 $321 $84 #
coedge $-1 $203 $203 $322 $323 reversed $127 $-1 #
face $-1 $-1 $324 $67 $-1 $325 forward single #
loop $-1 $326 $327 $129 #
cone-surface $-1 15.825539371671823 34.253422795772771 4.6182674471195071 0 -0.64278761758704617 -0.76604443648966558 0.5 0 0 1 I I -0.70710678118654746 0.70710678118654746 0.5 forward I I I I #
loop $-1 $-1 $328 $85 #
coedge $-1 $208 $208 $329 $330 reversed $130 $-1 #
face $-1 $331 $332 $68 $-1 $333 reversed single #
loop $-1 $-1 $334 $132 #
plane-surface $-1 44.261517849352458 -23.441835438939506 56.706390344050675 0 0.64278761758704617 0.76604443648966558 1 0 0 forward_v I I I I #
coedge $-1 $335 $336 $337 $338 reversed $133 $-1 #
face $-1 $-1 $339 $69 $-1 $340 forward single #
loop $-1 $341 $342 $135 #
cone-surface $-1 38.326940584975517 34.253422795772771 4.6182674471195071 0 -0.64278761758704617 -0.76604443648966558 0.5 0 0 1 I I -0.70710678118654746 0.70710678118654746 0.5 forward I I I I #
loop $-1 $-1 $343 $87 #
coedge $-1 $217 $217 $344 $345 reversed $136 $-1 #
face $-1 $-1 $346 $70 $-1 $347 forward single #
loop $-1 $348 $349 $138 #
cone-surface $-1 44.261517849352458 34.253422795772771 4.6182674471195071 0 -0.64278761758704617 -0.76604443648966558 0.5 0 0 1 I I -0.70710678118654746 0.70710678118654746 0.5 forward I I I I #
loop $-1 $-1 $350 $88 #
coedge $-1 $222 $222 $351 $352 reversed $139 $-1 #
face $-1 $-1 $353 $71 $-1 $354 forward single #
loop $-1 $355 $356 $141 #
cone-surface $-1 50.196095113729385 34.253422795772771 4.6182674471195071 0 -0.64278761758704617 -0.76604443648966558 0.5 0 0 1 I I -0.70710678118654746 0.70710678118654746 0.5 forward I I I I #
loop $-1 $-1 $357 $89 #
coedge $-1 $227 $227 $358 $359 reversed $142 $-1 #
face $-1 $360 $361 $54 $-1 $362 reversed single #
loop $-1 $-1 $363 $144 #
plane-surface $-1 0 -44.056240657094371 0 0 1 0 0 0 1 forward_v I I I I #
coedge $-1 $364 $365 $366 $367 forward $145 $-1 #
coedge $-1 $368 $147 $369 $370 forward $91 $-1 #
coedge $-1 $147 $368 $371 $372 forward $91 $-1 #
coedge $-1 $373 $374 $147 $235 reversed $375 $-1 #
edge $-1 $376 -44.056240657094371 $377 44.056240657094371 $234 $378 forward 7 unknown #
face $-1 $379 $380 $55 $-1 $381 reversed single #
loop $-1 $-1 $382 $148 #
plane-surface $-1 0 0 13.48214812356786 0 0 1 1 0 0 forward_v I I I I #
coedge $-1 $383 $384 $385 $386 reversed $149 $-1 #
coedge $-1 $387 $151 $388 $389 reversed $94 $-1 #
coedge $-1 $151 $387 $390 $391 reversed $94 $-1 #
coedge $-1 $384 $383 $151 $243 reversed $149 $-1 #
edge $-1 $392 -13.48214812356786 $393 13.48214812356786 $242 $394 forward 7 unknown #
face $-1 $395 $396 $56 $-1 $397 reversed single #
loop $-1 $-1 $250 $152 #
plane-surface $-1 0 44.056240657094371 0 0 -1 0 0 0 -1 forward_v I I I I #
coedge $-1 $398 $399 $400 $401 reversed $153 $-1 #
coedge $-1 $249 $155 $402 $403 reversed $97 $-1 #
coedge $-1 $155 $248 $398 $404 reversed $97 $-1 #
coedge $-1 $400 $405 $155 $251 forward $245 $-1 #
edge $-1 $406 67.52979305897972 $407 80.943162782127402 $250 $408 forward 7 unknown #
loop $-1 $-1 $257 $156 #
plane-surface $-1 -58.850149376820227 -23.441835438939506 56.706390344050675 0 0.64278761758704617 0.76604443648966558 1 0 0 forward_v I I I I #
loop $-1 $-1 $409 $99 #
coedge $-1 $255 $255 $256 $410 reversed $157 $-1 #
coedge $-1 $256 $256 $255 $410 forward $159 $-1 #
coedge $-1 $257 $257 $160 $258 forward $252 $-1 #
edge $-1 $411 3.1205782596973537e-015 $411 6.283185307179604 $257 $412 forward 7 unknown #
loop $-1 $-1 $264 $161 #
plane-surface $-1 -58.850149376820227 -23.441835438939506 56.706390344050675 0 0.64278761758704617 0.76604443648966558 1 0 0 forward_v I I I I #
loop $-1 $-1 $413 $102 #
coedge $-1 $262 $262 $263 $414 reversed $162 $-1 #
coedge $-1 $263 $263 $262 $414 forward $164 $-1 #
coedge $-1 $264 $264 $165 $265 forward $259 $-1 #
edge $-1 $415 3.1205782596973537e-015 $415 6.283185307179604 $264 $416 forward 7 unknown #
loop $-1 $-1 $271 $166 #
plane-surface $-1 -58.850149376820227 -23.441835438939506 56.706390344050675 0 0.64278761758704617 0.76604443648966558 1 0 0 forward_v I I I I #
loop $-1 $-1 $417 $105 #
coedge $-1 $269 $269 $270 $418 reversed $167 $-1 #
coedge $-1 $270 $270 $269 $418 forward $169 $-1 #
coedge $-1 $271 $271 $170 $272 forward $266 $-1 #
edge $-1 $419 3.1205782596973537e-015 $419 6.283185307179604 $271 $420 forward 7 unknown #
face $-1 $421 $422 $60 $-1 $423 reversed single #
loop $-1 $-1 $424 $171 #
plane-surface $-1 -34.370555742057562 64.930035123380293 162.02388236509518 1 0 0 0 -0.64278761758704617 -0.76604443648966558 forward_v I I I I #
coedge $-1 $425 $426 $427 $428 reversed $172 $-1 #
coedge $-1 $278 $174 $429 $430 reversed $109 $-1 #
coedge $-1 $174 $277 $425 $431 reversed $109 $-1 #
coedge $-1 $427 $432 $174 $280 forward $422 $-1 #
edge $-1 $433 67.52979305897972 $434 80.943162782127402 $279 $435 forward 7 unknown #
loop $-1 $-1 $286 $175 #
plane-surface $-1 -24.479593634762665 -23.441835438939506 56.706390344050675 0 0.64278761758704617 0.76604443648966558 1 0 0 forward_v I I I I #
loop $-1 $-1 $436 $111 #
coedge $-1 $284 $284 $285 $437 reversed $176 $-1 #
coedge $-1 $285 $285 $284 $437 forward $178 $-1 #
coedge $-1 $286 $286 $179 $287 forward $281 $-1 #
edge $-1 $438 3.1205782596973537e-015 $438 6.283185307179604 $286 $439 forward 7 unknown #
loop $-1 $-1 $293 $180 #
plane-surface $-1 -24.479593634762665 -23.441835438939506 56.706390344050675 0 0.64278761758704617 0.76604443648966558 1 0 0 forward_v I I I I #
loop $-1 $-1 $440 $114 #
coedge $-1 $291 $291 $292 $441 reversed $181 $-1 #
coedge $-1 $292 $292 $291 $441 forward $183 $-1 #
coedge $-1 $293 $293 $184 $294 forward $288 $-1 #
edge $-1 $442 3.1205782596973537e-015 $442 6.283185307179604 $293 $443 forward 7 unknown #
loop $-1 $-1 $300 $185 #
plane-surface $-1 -24.479593634762665 -23.441835438939506 56.706390344050675 0 0.64278761758704617 0.76604443648966558 1 0 0 forward_v I I I I #
loop $-1 $-1 $444 $117 #
coedge $-1 $298 $298 $299 $445 reversed $186 $-1 #
coedge $-1 $299 $299 $298 $445 forward $188 $-1 #
coedge $-1 $300 $300 $189 $301 forward $295 $-1 #
edge $-1 $446 3.1205782596973537e-015 $446 6.283185307179604 $300 $447 forward 7 unknown #
face $-1 $448 $449 $64 $-1 $450 forward single #
loop $-1 $-1 $451 $190 #
plane-surface $-1 3.5527136788005009e-015 64.930035123380293 162.02388236509518 1 0 0 0 -0.64278761758704617 -0.76604443648966558 forward_v I I I I #
coedge $-1 $452 $453 $454 $455 reversed $191 $-1 #
coedge $-1 $307 $193 $456 $457 reversed $121 $-1 #
coedge $-1 $193 $306 $452 $458 reversed $121 $-1 #
coedge $-1 $454 $459 $193 $309 forward $460 $-1 #
edge $-1 $461 67.52979305897972 $462 80.943162782127402 $308 $463 forward 7 unknown #
loop $-1 $-1 $315 $194 #
plane-surface $-1 9.8909621072948966 -23.441835438939506 56.706390344050675 0 0.64278761758704617 0.76604443648966558 1 0 0 forward_v I I I I #
loop $-1 $-1 $464 $123 #
coedge $-1 $313 $313 $314 $465 reversed $195 $-1 #
coedge $-1 $314 $314 $313 $465 forward $197 $-1 #
coedge $-1 $315 $315 $198 $316 forward $310 $-1 #
edge $-1 $466 3.1205782596973537e-015 $466 6.283185307179604 $315 $467 forward 7 unknown #
loop $-1 $-1 $322 $199 #
plane-surface $-1 9.8909621072948966 -23.441835438939506 56.706390344050675 0 0.64278761758704617 0.76604443648966558 1 0 0 forward_v I I I I #
loop $-1 $-1 $468 $126 #
coedge $-1 $320 $320 $321 $469 reversed $200 $-1 #
coedge $-1 $321 $321 $320 $469 forward $202 $-1 #
coedge $-1 $322 $322 $203 $323 forward $317 $-1 #
edge $-1 $470 3.1205782596973537e-015 $470 6.283185307179604 $322 $471 forward 7 unknown #
loop $-1 $-1 $329 $204 #
plane-surface $-1 9.8909621072948966 -23.441835438939506 56.706390344050675 0 0.64278761758704617 0.76604443648966558 1 0 0 forward_v I I I I #
loop $-1 $-1 $472 $129 #
coedge $-1 $327 $327 $328 $473 reversed $205 $-1 #
coedge $-1 $328 $328 $327 $473 forward $207 $-1 #
coedge $-1 $329 $329 $208 $330 forward $324 $-1 #
edge $-1 $474 3.1205782596973537e-015 $474 6.283185307179604 $329 $475 forward 7 unknown #
face $-1 $476 $477 $68 $-1 $478 forward single #
loop $-1 $-1 $479 $209 #
plane-surface $-1 34.370555742057562 64.930035123380293 162.02388236509518 1 0 0 0 -0.64278761758704617 -0.76604443648966558 forward_v I I I I #
coedge $-1 $480 $481 $482 $483 reversed $210 $-1 #
coedge $-1 $336 $212 $484 $485 reversed $133 $-1 #
coedge $-1 $212 $335 $480 $486 reversed $133 $-1 #
coedge $-1 $482 $487 $212 $338 forward $488 $-1 #
edge $-1 $489 67.52979305897972 $490 80.943162782127402 $337 $491 forward 7 unknown #
loop $-1 $-1 $344 $213 #
plane-surface $-1 44.261517849352458 -23.441835438939506 56.706390344050675 0 0.64278761758704617 0.76604443648966558 1 0 0 forward_v I I I I #
loop $-1 $-1 $492 $135 #
coedge $-1 $342 $342 $343 $493 reversed $214 $-1 #
coedge $-1 $343 $343 $342 $493 forward $216 $-1 #
coedge $-1 $344 $344 $217 $345 forward $339 $-1 #
edge $-1 $494 3.1205782596973537e-015 $494 6.283185307179604 $344 $495 forward 7 unknown #
loop $-1 $-1 $351 $218 #
plane-surface $-1 44.261517849352458 -23.441835438939506 56.706390344050675 0 0.64278761758704617 0.76604443648966558 1 0 0 forward_v I I I I #
loop $-1 $-1 $496 $138 #
coedge $-1 $349 $349 $350 $497 reversed $219 $-1 #
coedge $-1 $350 $350 $349 $497 forward $221 $-1 #
coedge $-1 $351 $351 $222 $352 forward $346 $-1 #
edge $-1 $498 3.1205782596973537e-015 $498 6.283185307179604 $351 $499 forward 7 unknown #
loop $-1 $-1 $358 $223 #
plane-surface $-1 44.261517849352458 -23.441835438939506 56.706390344050675 0 0.64278761758704617 0.76604443648966558 1 0 0 forward_v I I I I #
loop $-1 $-1 $500 $141 #
coedge $-1 $356 $356 $357 $501 reversed $224 $-1 #
coedge $-1 $357 $357 $356 $501 forward $226 $-1 #
coedge $-1 $358 $358 $227 $359 forward $353 $-1 #
edge $-1 $502 3.1205782596973537e-015 $502 6.283185307179604 $358 $503 forward 7 unknown #
face $-1 $504 $505 $54 $-1 $506 reversed single #
loop $-1 $-1 $507 $228 #
plane-surface $-1 -68.741111484115123 0 0 1 0 0 0 0 -1 forward_v I I I I #
coedge $-1 $508 $371 $509 $510 forward $229 $-1 #
coedge $-1 $511 $231 $508 $512 forward $145 $-1 #
coedge $-1 $231 $511 $513 $514 forward $145 $-1 #
coedge $-1 $374 $373 $231 $367 reversed $375 $-1 #
edge $-1 $515 -44.056240657094371 $516 44.056240657094371 $366 $517 forward 7 unknown #
coedge $-1 $233 $232 $518 $519 forward $91 $-1 #
coedge $-1 $520 $521 $232 $370 reversed $505 $-1 #
edge $-1 $377 -68.741111484115123 $522 68.741111484115123 $369 $523 forward 7 unknown #
coedge $-1 $363 $524 $233 $372 reversed $229 $-1 #
edge $-1 $525 -68.741111484115123 $376 68.741111484115123 $371 $526 forward 7 unknown #
coedge $-1 $366 $234 $524 $527 forward $375 $-1 #
coedge $-1 $234 $366 $520 $528 reversed $375 $-1 #
loop $-1 $-1 $373 $504 #
vertex $-1 $235 $529 #
vertex $-1 $235 $530 #
straight-curve $-1 68.741111484115123 0 13.48214812356786 0 1 0 I I #
face $-1 $531 $532 $55 $-1 $533 reversed single #
loop $-1 $-1 $534 $236 #
plane-surface $-1 -68.741111484115123 0 0 1 0 0 0 0 -1 forward_v I I I I #
coedge $-1 $390 $535 $384 $536 forward $237 $-1 #
coedge $-1 $242 $239 $537 $538 reversed $149 $-1 #
coedge $-1 $239 $242 $382 $536 reversed $149 $-1 #
coedge $-1 $539 $540 $239 $386 forward $541 $-1 #
edge $-1 $542 -13.48214812356786 $543 13.48214812356786 $385 $544 forward 7 unknown #
coedge $-1 $241 $240 $534 $545 reversed $94 $-1 #
coedge $-1 $537 $546 $240 $389 forward $532 $-1 #
edge $-1 $547 -35.890367889383491 $393 -29.811119300079767 $388 $548 forward 7 unknown #
coedge $-1 $549 $382 $241 $391 forward $237 $-1 #
edge $-1 $392 29.811119300079767 $550 35.890367889383491 $390 $551 forward 7 unknown #
vertex $-1 $391 $552 #
vertex $-1 $389 $553 #
straight-curve $-1 -62.661862894811399 -33.492271751114494 0 0 0 -1 I I #
face $-1 $-1 $554 $56 $-1 $555 forward single #
loop $-1 $-1 $556 $244 #
plane-surface $-1 -68.741111484115123 0 0 1 0 0 0 0 -1 forward_v I I I I #
coedge $-1 $557 $247 $249 $404 forward $153 $-1 #
coedge $-1 $247 $557 $556 $558 reversed $153 $-1 #
coedge $-1 $559 $250 $247 $401 forward $245 $-1 #
edge $-1 $407 19.534112581115217 $560 39.31603679570501 $400 $561 forward 7 unknown #
coedge $-1 $562 $563 $248 $403 forward $554 $-1 #
edge $-1 $564 -4.394208126137201 $406 11.591223095404224 $402 $565 forward 7 unknown #
edge $-1 $407 -88.112481314188727 $564 -67.244982693882392 $249 $566 forward 7 unknown #
coedge $-1 $250 $559 $562 $567 reversed $245 $-1 #
vertex $-1 $567 $568 #
vertex $-1 $251 $569 #
straight-curve $-1 -48.95918726952533 44.056240657094371 81.011941182547588 0 0 -1 I I #
coedge $-1 $409 $409 $-1 $570 reversed $254 $-1 #
edge $-1 $571 0 $571 6.2831853071796004 $255 $572 forward 7 unknown #
vertex $-1 $258 $573 #
ellipse-curve $-1 -64.784726641197167 36.063525046323662 6.7754632619940169 0 0.64278761758704617 0.76604443648966558 1 0 0 1 I I #
coedge $-1 $413 $413 $-1 $574 reversed $261 $-1 #
edge $-1 $575 0 $575 6.2831853071796004 $262 $576 forward 7 unknown #
vertex $-1 $265 $577 #
ellipse-curve $-1 -58.850149376820227 36.063525046323662 6.7754632619940169 0 0.64278761758704617 0.76604443648966558 1 0 0 1 I I #
coedge $-1 $417 $417 $-1 $578 reversed $268 $-1 #
edge $-1 $579 0 $579 6.2831853071796004 $269 $580 forward 7 unknown #
vertex $-1 $272 $581 #
ellipse-curve $-1 -52.915572112443293 36.063525046323662 6.7754632619940169 0 0.64278761758704617 0.76604443648966558 1 0 0 1 I I #
face $-1 $-1 $582 $60 $-1 $583 forward single #
loop $-1 $-1 $279 $273 #
plane-surface $-1 0 44.056240657094371 0 0 -1 0 0 0 -1 forward_v I I I I #
coedge $-1 $584 $585 $586 $587 reversed $274 $-1 #
coedge $-1 $588 $276 $278 $431 forward $172 $-1 #
coedge $-1 $276 $588 $584 $589 forward $172 $-1 #
coedge $-1 $586 $279 $276 $428 forward $422 $-1 #
edge $-1 $434 2.3488347100864395 $590 22.130758924676229 $427 $591 forward 7 unknown #
coedge $-1 $592 $593 $277 $430 forward $582 $-1 #
edge $-1 $594 -4.394208126137201 $433 11.591223095404224 $429 $595 forward 7 unknown #
edge $-1 $434 -88.112481314188727 $594 -67.244982693882392 $278 $596 forward 7 unknown #
coedge $-1 $279 $586 $592 $597 reversed $422 $-1 #
vertex $-1 $597 $598 #
vertex $-1 $280 $599 #
straight-curve $-1 -14.588631527467772 44.056240657094371 81.011941182547588 0 0 -1 I I #
coedge $-1 $436 $436 $-1 $600 reversed $283 $-1 #
edge $-1 $601 0 $601 6.2831853071796004 $284 $602 forward 7 unknown #
vertex $-1 $287 $603 #
ellipse-curve $-1 -30.414170899139606 36.063525046323662 6.7754632619940169 0 0.64278761758704617 0.76604443648966558 1 0 0 1 I I #
coedge $-1 $440 $440 $-1 $604 reversed $290 $-1 #
edge $-1 $605 0 $605 6.2831853071796004 $291 $606 forward 7 unknown #
vertex $-1 $294 $607 #
ellipse-curve $-1 -24.479593634762665 36.063525046323662 6.7754632619940169 0 0.64278761758704617 0.76604443648966558 1 0 0 1 I I #
coedge $-1 $444 $444 $-1 $608 reversed $297 $-1 #
edge $-1 $609 0 $609 6.2831853071796004 $298 $610 forward 7 unknown #
vertex $-1 $301 $611 #
ellipse-curve $-1 -18.545016370385731 36.063525046323662 6.7754632619940169 0 0.64278761758704617 0.76604443648966558 1 0 0 1 I I #
face $-1 $-1 $460 $64 $-1 $612 reversed single #
loop $-1 $-1 $613 $302 #
plane-surface $-1 0 0 13.48214812356786 0 0 1 1 0 0 forward_v I I I I #
coedge $-1 $614 $615 $616 $617 reversed $303 $-1 #
coedge $-1 $618 $305 $307 $458 forward $191 $-1 #
coedge $-1 $305 $618 $614 $619 forward $191 $-1 #
coedge $-1 $616 $308 $305 $455 forward $460 $-1 #
edge $-1 $462 -14.836443160942341 $620 4.9454810536474447 $454 $621 forward 7 unknown #
coedge $-1 $622 $623 $306 $457 forward $449 $-1 #
edge $-1 $624 -4.394208126137201 $461 11.591223095404224 $456 $625 forward 7 unknown #
edge $-1 $462 -88.112481314188727 $624 -67.244982693882392 $307 $626 forward 7 unknown #
coedge $-1 $308 $616 $622 $627 reversed $460 $-1 #
loop $-1 $-1 $616 $448 #
vertex $-1 $627 $628 #
vertex $-1 $309 $629 #
straight-curve $-1 19.78192421458979 44.056240657094371 81.011941182547588 0 0 -1 I I #
coedge $-1 $464 $464 $-1 $630 reversed $312 $-1 #
edge $-1 $631 0 $631 6.2831853071796004 $313 $632 forward 7 unknown #
vertex $-1 $316 $633 #
ellipse-curve $-1 3.9563848429179558 36.063525046323662 6.7754632619940169 0 0.64278761758704617 0.76604443648966558 1 0 0 1 I I #
coedge $-1 $468 $468 $-1 $634 reversed $319 $-1 #
edge $-1 $635 0 $635 6.2831853071796004 $320 $636 forward 7 unknown #
vertex $-1 $323 $637 #
ellipse-curve $-1 9.8909621072948966 36.063525046323662 6.7754632619940169 0 0.64278761758704617 0.76604443648966558 1 0 0 1 I I #
coedge $-1 $472 $472 $-1 $638 reversed $326 $-1 #
edge $-1 $639 0 $639 6.2831853071796004 $327 $640 forward 7 unknown #
vertex $-1 $330 $641 #
ellipse-curve $-1 15.825539371671823 36.063525046323662 6.7754632619940169 0 0.64278761758704617 0.76604443648966558 1 0 0 1 I I #
face $-1 $-1 $488 $68 $-1 $642 reversed single #
loop $-1 $-1 $643 $331 #
plane-surface $-1 0 0 13.48214812356786 0 0 1 1 0 0 forward_v I I I I #
coedge $-1 $644 $645 $646 $647 reversed $332 $-1 #
coedge $-1 $648 $334 $336 $486 forward $210 $-1 #
coedge $-1 $334 $648 $644 $649 forward $210 $-1 #
coedge $-1 $646 $337 $334 $483 forward $488 $-1 #
edge $-1 $490 -32.021721031971126 $650 -12.239796817381333 $482 $651 forward 7 unknown #
coedge $-1 $652 $653 $335 $485 forward $477 $-1 #
edge $-1 $654 -4.394208126137201 $489 11.591223095404224 $484 $655 forward 7 unknown #
edge $-1 $490 -88.112481314188727 $654 -67.244982693882392 $336 $656 forward 7 unknown #
coedge $-1 $337 $646 $652 $657 reversed $488 $-1 #
loop $-1 $-1 $646 $476 #
vertex $-1 $657 $658 #
vertex $-1 $338 $659 #
straight-curve $-1 54.152479956647355 44.056240657094371 81.011941182547588 0 0 -1 I I #
coedge $-1 $492 $492 $-1 $660 reversed $341 $-1 #
edge $-1 $661 0 $661 6.2831853071796004 $342 $662 forward 7 unknown #
vertex $-1 $345 $663 #
ellipse-curve $-1 38.326940584975517 36.063525046323662 6.7754632619940169 0 0.64278761758704617 0.76604443648966558 1 0 0 1 I I #
coedge $-1 $496 $496 $-1 $664 reversed $348 $-1 #
edge $-1 $665 0 $665 6.2831853071796004 $349 $666 forward 7 unknown #
vertex $-1 $352 $667 #
ellipse-curve $-1 44.261517849352458 36.063525046323662 6.7754632619940169 0 0.64278761758704617 0.76604443648966558 1 0 0 1 I I #
coedge $-1 $500 $500 $-1 $668 reversed $355 $-1 #
edge $-1 $669 0 $669 6.2831853071796004 $356 $670 forward 7 unknown #
vertex $-1 $359 $671 #
ellipse-curve $-1 50.196095113729385 36.063525046323662 6.7754632619940169 0 0.64278761758704617 0.76604443648966558 1 0 0 1 I I #
face $-1 $-1 $375 $54 $-1 $672 reversed single #
loop $-1 $-1 $520 $360 #
plane-surface $-1 0 44.056240657094371 0 0 -1 0 0 0 -1 forward_v I I I I #
coedge $-1 $673 $518 $521 $674 forward $361 $-1 #
coedge $-1 $524 $363 $364 $512 reversed $229 $-1 #
coedge $-1 $518 $673 $363 $510 reversed $361 $-1 #
edge $-1 $525 -13.48214812356786 $675 13.48214812356786 $509 $676 forward 7 unknown #
coedge $-1 $365 $364 $673 $677 forward $145 $-1 #
edge $-1 $516 -68.741111484115123 $675 68.741111484115123 $508 $678 forward 7 unknown #
coedge $-1 $521 $520 $365 $514 reversed $505 $-1 #
edge $-1 $679 -68.741111484115123 $515 68.741111484115123 $513 $680 forward 7 unknown #
vertex $-1 $367 $681 #
vertex $-1 $527 $682 #
straight-curve $-1 68.741111484115123 0 -13.48214812356786 0 -1 0 I I #
coedge $-1 $507 $509 $368 $519 reversed $361 $-1 #
edge $-1 $522 -44.056240657094371 $525 44.056240657094371 $518 $683 forward 7 unknown #
coedge $-1 $513 $369 $374 $528 forward $505 $-1 #
coedge $-1 $369 $513 $507 $674 reversed $505 $-1 #
vertex $-1 $370 $684 #
straight-curve $-1 0 44.056240657094371 13.48214812356786 -1 0 0 I I #
coedge $-1 $371 $508 $373 $527 reversed $229 $-1 #
vertex $-1 $519 $685 #
straight-curve $-1 0 -44.056240657094371 13.48214812356786 1 0 0 I I #
edge $-1 $376 -13.48214812356786 $516 13.48214812356786 $373 $686 forward 7 unknown #
edge $-1 $377 -13.48214812356786 $515 13.48214812356786 $374 $687 forward 7 unknown #
point $-1 68.741111484115123 -44.056240657094371 13.48214812356786 #
point $-1 68.741111484115123 44.056240657094371 13.48214812356786 #
face $-1 $-1 $541 $55 $-1 $688 reversed single #
loop $-1 $-1 $537 $379 #
plane-surface $-1 0 0 -13.48214812356786 0 0 1 1 0 0 forward_v I I I I #
coedge $-1 $689 $690 $387 $545 forward $380 $-1 #
coedge $-1 $382 $549 $539 $691 forward $237 $-1 #
edge $-1 $543 -24.669112555042155 $392 -14.105143649062278 $382 $692 forward 7 unknown #
coedge $-1 $693 $388 $383 $538 forward $532 $-1 #
edge $-1 $393 14.105143649062278 $542 24.669112555042155 $537 $694 forward 7 unknown #
coedge $-1 $695 $385 $535 $691 reversed $541 $-1 #
coedge $-1 $385 $695 $693 $696 reversed $541 $-1 #
loop $-1 $-1 $385 $531 #
vertex $-1 $696 $697 #
vertex $-1 $386 $698 #
straight-curve $-1 -62.661862894811399 -44.056240657094371 0 0 0 1 I I #
edge $-1 $550 -13.48214812356786 $547 13.48214812356786 $534 $699 forward 7 unknown #
coedge $-1 $388 $693 $689 $700 forward $532 $-1 #
vertex $-1 $389 $701 #
straight-curve $-1 -32.850743594731632 -33.492271751114494 -13.48214812356786 1 0 0 I I #
coedge $-1 $535 $390 $690 $702 forward $237 $-1 #
vertex $-1 $702 $703 #
straight-curve $-1 -32.850743594731632 -33.492271751114494 13.48214812356786 -1 0 0 I I #
point $-1 -62.661862894811399 -33.492271751114494 13.48214812356786 #
point $-1 -62.661862894811399 -33.492271751114494 -13.48214812356786 #
loop $-1 $-1 $402 $395 #
plane-surface $-1 0 0 13.48214812356786 0 0 1 1 0 0 forward_v I I I I #
coedge $-1 $704 $705 $399 $558 forward $396 $-1 #
coedge $-1 $399 $398 $563 $706 reversed $153 $-1 #
edge $-1 $560 -60.908654729029053 $707 -40.041156108722745 $556 $708 forward 7 unknown #
coedge $-1 $405 $400 $705 $709 reversed $245 $-1 #
vertex $-1 $558 $710 #
straight-curve $-1 -29.425074688410113 44.056240657094364 0.068778400420200114 -1 0 0 I I #
coedge $-1 $711 $402 $405 $567 forward $554 $-1 #
coedge $-1 $402 $711 $557 $706 forward $554 $-1 #
vertex $-1 $403 $712 #
straight-curve $-1 -48.95918726952533 32.465017561690146 13.482148123567868 0 1 0 I I #
straight-curve $-1 -48.95918726952533 -23.441835438939506 56.706390344050675 0 -0.76604443648966558 0.64278761758704617 I I #
edge $-1 $406 48.95918726952533 $713 68.741111484115123 $405 $714 forward 7 unknown #
point $-1 -48.95918726952533 44.056240657094371 13.48214812356786 #
point $-1 -48.95918726952533 44.056240657094378 0.068778400420185903 #
edge $-1 $715 1 $715 0 $409 $-1 forward 7 unknown #
vertex $-1 $410 $716 #
ellipse-curve $-1 -64.784726641197167 34.574816604566294 5.0012896653643395 0 0.64278761758704617 0.76604443648966558 1 0 0 1 I I #
point $-1 -63.784726641197167 36.063525046323655 6.7754632619940036 #
edge $-1 $717 1 $717 0 $413 $-1 forward 7 unknown #
vertex $-1 $414 $718 #
ellipse-curve $-1 -58.850149376820227 34.574816604566294 5.0012896653643395 0 0.64278761758704617 0.76604443648966558 1 0 0 1 I I #
point $-1 -57.850149376820227 36.063525046323655 6.7754632619940036 #
edge $-1 $719 1 $719 0 $417 $-1 forward 7 unknown #
vertex $-1 $418 $720 #
ellipse-curve $-1 -52.915572112443293 34.574816604566294 5.0012896653643395 0 0.64278761758704617 0.76604443648966558 1 0 0 1 I I #
point $-1 -51.915572112443293 36.063525046323655 6.7754632619940036 #
loop $-1 $-1 $429 $421 #
plane-surface $-1 0 0 13.48214812356786 0 0 1 1 0 0 forward_v I I I I #
coedge $-1 $585 $424 $426 $589 reversed $274 $-1 #
coedge $-1 $424 $584 $721 $722 reversed $274 $-1 #
coedge $-1 $432 $427 $424 $587 forward $422 $-1 #
edge $-1 $590 -80.943162782127402 $723 -67.52979305897972 $586 $724 forward 7 unknown #
coedge $-1 $426 $425 $593 $725 reversed $172 $-1 #
edge $-1 $726 67.244982693882392 $590 88.112481314188727 $584 $727 forward 7 unknown #
vertex $-1 $428 $728 #
straight-curve $-1 -12.239796817381333 44.056240657094364 0.068778400420200114 -1 0 0 I I #
coedge $-1 $721 $429 $432 $597 forward $582 $-1 #
coedge $-1 $429 $721 $588 $725 forward $582 $-1 #
vertex $-1 $430 $729 #
straight-curve $-1 -14.588631527467772 32.465017561690146 13.482148123567868 0 1 0 I I #
straight-curve $-1 -14.588631527467772 -23.441835438939506 56.706390344050675 0 -0.76604443648966558 0.64278761758704617 I I #
edge $-1 $433 14.588631527467772 $723 34.370555742057562 $432 $730 forward 7 unknown #
point $-1 -14.588631527467772 44.056240657094371 13.48214812356786 #
point $-1 -14.588631527467772 44.056240657094378 0.068778400420185903 #
edge $-1 $731 1 $731 0 $436 $-1 forward 7 unknown #
vertex $-1 $437 $732 #
ellipse-curve $-1 -30.414170899139606 34.574816604566294 5.0012896653643395 0 0.64278761758704617 0.76604443648966558 1 0 0 1 I I #
point $-1 -29.414170899139606 36.063525046323655 6.7754632619940036 #
edge $-1 $733 1 $733 0 $440 $-1 forward 7 unknown #
vertex $-1 $441 $734 #
ellipse-curve $-1 -24.479593634762665 34.574816604566294 5.0012896653643395 0 0.64278761758704617 0.76604443648966558 1 0 0 1 I I #
point $-1 -23.479593634762665 36.063525046323655 6.7754632619940036 #
edge $-1 $735 1 $735 0 $444 $-1 forward 7 unknown #
vertex $-1 $445 $736 #
ellipse-curve $-1 -18.545016370385731 34.574816604566294 5.0012896653643395 0 0.64278761758704617 0.76604443648966558 1 0 0 1 I I #
point $-1 -17.545016370385731 36.063525046323655 6.7754632619940036 #
plane-surface $-1 0 44.056240657094371 0 0 -1 0 0 0 -1 forward_v I I I I #
coedge $-1 $623 $622 $615 $737 forward $449 $-1 #
coedge $-1 $615 $451 $453 $619 reversed $303 $-1 #
coedge $-1 $451 $614 $613 $737 reversed $303 $-1 #
coedge $-1 $459 $454 $451 $617 forward $460 $-1 #
edge $-1 $620 -80.943162782127402 $738 -67.52979305897972 $616 $739 forward 7 unknown #
coedge $-1 $453 $452 $623 $740 reversed $191 $-1 #
edge $-1 $741 67.244982693882392 $620 88.112481314188727 $614 $742 forward 7 unknown #
vertex $-1 $455 $743 #
straight-curve $-1 4.9454810536474483 44.056240657094364 0.068778400420200114 -1 0 0 I I #
coedge $-1 $613 $456 $459 $627 forward $449 $-1 #
coedge $-1 $456 $613 $618 $740 forward $449 $-1 #
vertex $-1 $457 $744 #
straight-curve $-1 19.78192421458979 32.465017561690146 13.482148123567868 0 1 0 I I #
straight-curve $-1 19.78192421458979 -23.441835438939506 56.706390344050675 0 -0.76604443648966558 0.64278761758704617 I I #
edge $-1 $461 -19.78192421458979 $738 -3.5527136788005009e-015 $459 $745 forward 7 unknown #
point $-1 19.78192421458979 44.056240657094371 13.48214812356786 #
point $-1 19.78192421458979 44.056240657094378 0.068778400420185903 #
edge $-1 $746 1 $746 0 $464 $-1 forward 7 unknown #
vertex $-1 $465 $747 #
ellipse-curve $-1 3.9563848429179558 34.574816604566294 5.0012896653643395 0 0.64278761758704617 0.76604443648966558 1 0 0 1 I I #
point $-1 4.9563848429179558 36.063525046323655 6.7754632619940036 #
edge $-1 $748 1 $748 0 $468 $-1 forward 7 unknown #
vertex $-1 $469 $749 #
ellipse-curve $-1 9.8909621072948966 34.574816604566294 5.0012896653643395 0 0.64278761758704617 0.76604443648966558 1 0 0 1 I I #
point $-1 10.890962107294897 36.063525046323655 6.7754632619940036 #
edge $-1 $750 1 $750 0 $472 $-1 forward 7 unknown #
vertex $-1 $473 $751 #
ellipse-curve $-1 15.825539371671823 34.574816604566294 5.0012896653643395 0 0.64278761758704617 0.76604443648966558 1 0 0 1 I I #
point $-1 16.825539371671823 36.063525046323655 6.7754632619940036 #
plane-surface $-1 0 44.056240657094371 0 0 -1 0 0 0 -1 forward_v I I I I #
coedge $-1 $653 $652 $645 $752 forward $477 $-1 #
coedge $-1 $645 $479 $481 $649 reversed $332 $-1 #
coedge $-1 $479 $644 $643 $752 reversed $332 $-1 #
coedge $-1 $487 $482 $479 $647 forward $488 $-1 #
edge $-1 $650 -80.943162782127402 $753 -67.52979305897972 $646 $754 forward 7 unknown #
coedge $-1 $481 $480 $653 $755 reversed $210 $-1 #
edge $-1 $756 67.244982693882392 $650 88.112481314188727 $644 $757 forward 7 unknown #
vertex $-1 $483 $758 #
straight-curve $-1 22.130758924676229 44.056240657094364 0.068778400420200114 -1 0 0 I I #
coedge $-1 $643 $484 $487 $657 forward $477 $-1 #
coedge $-1 $484 $643 $648 $755 forward $477 $-1 #
vertex $-1 $485 $759 #
straight-curve $-1 54.152479956647355 32.465017561690146 13.482148123567868 0 1 0 I I #
straight-curve $-1 54.152479956647355 -23.441835438939506 56.706390344050675 0 -0.76604443648966558 0.64278761758704617 I I #
edge $-1 $489 -54.152479956647355 $753 -34.370555742057562 $487 $760 forward 7 unknown #
point $-1 54.152479956647355 44.056240657094371 13.48214812356786 #
point $-1 54.152479956647355 44.056240657094378 0.068778400420185903 #
edge $-1 $761 1 $761 0 $492 $-1 forward 7 unknown #
vertex $-1 $493 $762 #
ellipse-curve $-1 38.326940584975517 34.574816604566294 5.0012896653643395 0 0.64278761758704617 0.76604443648966558 1 0 0 1 I I #
point $-1 39.326940584975517 36.063525046323655 6.7754632619940036 #
edge $-1 $763 1 $763 0 $496 $-1 forward 7 unknown #
vertex $-1 $497 $764 #
ellipse-curve $-1 44.261517849352458 34.574816604566294 5.0012896653643395 0 0.64278761758704617 0.76604443648966558 1 0 0 1 I I #
point $-1 45.261517849352458 36.063525046323655 6.7754632619940036 #
edge $-1 $765 1 $765 0 $500 $-1 forward 7 unknown #
vertex $-1 $501 $766 #
ellipse-curve $-1 50.196095113729385 34.574816604566294 5.0012896653643395 0 0.64278761758704617 0.76604443648966558 1 0 0 1 I I #
point $-1 51.196095113729385 36.063525046323655 6.7754632619940036 #
plane-surface $-1 68.741111484115123 0 0 -1 0 0 0 0 1 forward_v I I I I #
coedge $-1 $509 $507 $511 $677 reversed $361 $-1 #
edge $-1 $522 -13.48214812356786 $679 13.48214812356786 $521 $767 forward 7 unknown #
vertex $-1 $677 $768 #
straight-curve $-1 -68.741111484115123 -44.056240657094371 0 0 0 -1 I I #
edge $-1 $675 -44.056240657094371 $679 44.056240657094371 $673 $769 forward 7 unknown #
straight-curve $-1 0 -44.056240657094371 -13.48214812356786 -1 0 0 I I #
vertex $-1 $514 $770 #
straight-curve $-1 0 44.056240657094371 -13.48214812356786 1 0 0 I I #
point $-1 68.741111484115123 44.056240657094371 -13.48214812356786 #
point $-1 68.741111484115123 -44.056240657094371 -13.48214812356786 #
straight-curve $-1 -68.741111484115123 0 13.48214812356786 0 -1 0 I I #
point $-1 -68.741111484115123 44.056240657094371 13.48214812356786 #
point $-1 -68.741111484115123 -44.056240657094371 13.48214812356786 #
straight-curve $-1 68.741111484115123 -44.056240657094371 0 0 0 -1 I I #
straight-curve $-1 68.741111484115123 44.056240657094371 0 0 0 -1 I I #
plane-surface $-1 0 -44.056240657094371 0 0 1 0 0 0 1 forward_v I I I I #
coedge $-1 $771 $534 $546 $700 reversed $380 $-1 #
coedge $-1 $534 $771 $549 $702 reversed $380 $-1 #
edge $-1 $772 -68.741111484115123 $543 -62.661862894811399 $539 $773 forward 7 unknown #
straight-curve $-1 -62.661862894811399 -19.387128102052216 13.48214812356786 0 1 0 I I #
coedge $-1 $546 $537 $540 $696 forward $532 $-1 #
straight-curve $-1 -62.661862894811399 -19.387128102052216 -13.48214812356786 0 -1 0 I I #
coedge $-1 $540 $539 $771 $774 forward $541 $-1 #
edge $-1 $542 62.661862894811399 $775 68.741111484115123 $540 $776 forward 7 unknown #
point $-1 -62.661862894811399 -44.056240657094371 -13.48214812356786 #
point $-1 -62.661862894811399 -44.056240657094371 13.48214812356786 #
straight-curve $-1 -68.741111484115123 -33.492271751114494 0 0 0 -1 I I #
edge $-1 $775 -44.056240657094371 $547 -33.492271751114494 $689 $777 forward 7 unknown #
point $-1 -68.741111484115123 -33.492271751114494 -13.48214812356786 #
edge $-1 $550 33.492271751114494 $772 44.056240657094371 $690 $778 forward 7 unknown #
point $-1 -68.741111484115123 -33.492271751114494 13.48214812356786 #
coedge $-1 $705 $556 $711 $779 reversed $396 $-1 #
coedge $-1 $556 $704 $559 $709 forward $396 $-1 #
edge $-1 $707 -39.31603679570501 $564 -19.534112581115217 $563 $780 forward 7 unknown #
vertex $-1 $558 $781 #
straight-curve $-1 -68.741111484115123 -2.6024954321482987 39.220107464124752 0 -0.76604443648966558 0.64278761758704617 I I #
edge $-1 $713 -13.48214812356786 $560 -0.068778400420191385 $559 $782 forward 7 unknown #
point $-1 -68.741111484115123 44.056240657094371 0.068778400420191385 #
coedge $-1 $563 $562 $704 $779 forward $554 $-1 #
point $-1 -48.95918726952533 28.070809435552945 13.48214812356786 #
vertex $-1 $567 $783 #
straight-curve $-1 0 44.056240657094371 13.48214812356786 -1 0 0 I I #
vertex $-1 $570 $784 #
point $-1 -63.784726641197167 34.574816604566294 5.0012896653643395 #
vertex $-1 $574 $785 #
point $-1 -57.850149376820227 34.574816604566294 5.0012896653643395 #
vertex $-1 $578 $786 #
point $-1 -51.915572112443293 34.574816604566294 5.0012896653643395 #
coedge $-1 $593 $592 $585 $722 forward $582 $-1 #
edge $-1 $723 -11.591223095404224 $726 4.394208126137201 $721 $787 forward 7 unknown #
vertex $-1 $722 $788 #
straight-curve $-1 -34.370555742057562 44.056240657094371 81.011941182547588 0 0 1 I I #
edge $-1 $726 -22.130758924676229 $594 -2.3488347100864395 $593 $789 forward 7 unknown #
vertex $-1 $725 $790 #
straight-curve $-1 -34.370555742057562 -23.441835438939506 56.706390344050675 0 0.76604443648966558 -0.64278761758704617 I I #
point $-1 -34.370555742057562 44.056240657094378 0.068778400420185903 #
point $-1 -14.588631527467772 28.070809435552945 13.48214812356786 #
straight-curve $-1 0 44.056240657094371 13.48214812356786 -1 0 0 I I #
vertex $-1 $600 $791 #
point $-1 -29.414170899139606 34.574816604566294 5.0012896653643395 #
vertex $-1 $604 $792 #
point $-1 -23.479593634762665 34.574816604566294 5.0012896653643395 #
vertex $-1 $608 $793 #
point $-1 -17.545016370385731 34.574816604566294 5.0012896653643395 #
edge $-1 $738 -11.591223095404224 $741 4.394208126137201 $613 $794 forward 7 unknown #
vertex $-1 $617 $795 #
straight-curve $-1 3.5527136788005009e-015 44.056240657094371 81.011941182547588 0 0 1 I I #
edge $-1 $741 -4.9454810536474447 $624 14.836443160942341 $623 $796 forward 7 unknown #
vertex $-1 $740 $797 #
straight-curve $-1 3.5527136788005009e-015 -23.441835438939506 56.706390344050675 0 0.76604443648966558 -0.64278761758704617 I I #
point $-1 3.5527136788005009e-015 44.056240657094378 0.068778400420185903 #
point $-1 19.78192421458979 28.070809435552945 13.48214812356786 #
straight-curve $-1 0 44.056240657094371 13.48214812356786 -1 0 0 I I #
vertex $-1 $630 $798 #
point $-1 4.9563848429179558 34.574816604566294 5.0012896653643395 #
vertex $-1 $634 $799 #
point $-1 10.890962107294897 34.574816604566294 5.0012896653643395 #
vertex $-1 $638 $800 #
point $-1 16.825539371671823 34.574816604566294 5.0012896653643395 #
edge $-1 $753 -11.591223095404224 $756 4.394208126137201 $643 $801 forward 7 unknown #
vertex $-1 $647 $802 #
straight-curve $-1 34.370555742057562 44.056240657094371 81.011941182547588 0 0 1 I I #
edge $-1 $756 12.239796817381333 $654 32.021721031971126 $653 $803 forward 7 unknown #
vertex $-1 $755 $804 #
straight-curve $-1 34.370555742057562 -23.441835438939506 56.706390344050675 0 0.76604443648966558 -0.64278761758704617 I I #
point $-1 34.370555742057562 44.056240657094378 0.068778400420185903 #
point $-1 54.152479956647355 28.070809435552945 13.48214812356786 #
straight-curve $-1 0 44.056240657094371 13.48214812356786 -1 0 0 I I #
vertex $-1 $660 $805 #
point $-1 39.326940584975517 34.574816604566294 5.0012896653643395 #
vertex $-1 $664 $806 #
point $-1 45.261517849352458 34.574816604566294 5.0012896653643395 #
vertex $-1 $668 $807 #
point $-1 51.196095113729385 34.574816604566294 5.0012896653643395 #
straight-curve $-1 -68.741111484115123 44.056240657094371 0 0 0 -1 I I #
point $-1 -68.741111484115123 -44.056240657094371 -13.48214812356786 #
straight-curve $-1 -68.741111484115123 0 -13.48214812356786 0 1 0 I I #
point $-1 -68.741111484115123 44.056240657094371 -13.48214812356786 #
coedge $-1 $690 $689 $695 $774 reversed $380 $-1 #
vertex $-1 $702 $808 #
straight-curve $-1 0 -44.056240657094371 13.48214812356786 1 0 0 I I #
edge $-1 $772 -13.48214812356786 $775 13.48214812356786 $771 $809 forward 7 unknown #
vertex $-1 $700 $810 #
straight-curve $-1 0 -44.056240657094371 -13.48214812356786 -1 0 0 I I #
straight-curve $-1 -68.741111484115123 0 -13.48214812356786 0 1 0 I I #
straight-curve $-1 -68.741111484115123 0 13.48214812356786 0 -1 0 I I #
edge $-1 $713 -44.056240657094371 $707 -28.070809435552945 $704 $811 forward 7 unknown #
straight-curve $-1 -29.425074688410113 28.070809435552945 13.482148123567864 1 0 0 I I #
point $-1 -68.741111484115123 28.070809435552945 13.48214812356786 #
straight-curve $-1 -68.741111484115123 44.056240657094371 0 0 0 -1 I I #
point $-1 -68.741111484115123 44.056240657094371 13.48214812356786 #
point $-1 -64.784726641197167 33.932028986979248 4.2352452288746747 #
point $-1 -58.850149376820227 33.932028986979248 4.2352452288746747 #
point $-1 -52.915572112443293 33.932028986979248 4.2352452288746747 #
straight-curve $-1 -34.370555742057562 32.465017561690146 13.482148123567868 0 -1 0 I I #
point $-1 -34.370555742057562 44.056240657094371 13.48214812356786 #
straight-curve $-1 -12.239796817381333 28.070809435552945 13.482148123567864 1 0 0 I I #
point $-1 -34.370555742057562 28.070809435552945 13.48214812356786 #
point $-1 -30.414170899139606 33.932028986979248 4.2352452288746747 #
point $-1 -24.479593634762665 33.932028986979248 4.2352452288746747 #
point $-1 -18.545016370385731 33.932028986979248 4.2352452288746747 #
straight-curve $-1 3.5527136788005009e-015 32.465017561690146 13.482148123567868 0 -1 0 I I #
point $-1 3.5527136788005009e-015 44.056240657094371 13.48214812356786 #
straight-curve $-1 4.9454810536474483 28.070809435552945 13.482148123567864 1 0 0 I I #
point $-1 3.5527136788005009e-015 28.070809435552945 13.48214812356786 #
point $-1 3.9563848429179558 33.932028986979248 4.2352452288746747 #
point $-1 9.8909621072948966 33.932028986979248 4.2352452288746747 #
point $-1 15.825539371671823 33.932028986979248 4.2352452288746747 #
straight-curve $-1 34.370555742057562 32.465017561690146 13.482148123567868 0 -1 0 I I #
point $-1 34.370555742057562 44.056240657094371 13.48214812356786 #
straight-curve $-1 22.130758924676229 28.070809435552945 13.482148123567864 1 0 0 I I #
point $-1 34.370555742057562 28.070809435552945 13.48214812356786 #
point $-1 38.326940584975517 33.932028986979248 4.2352452288746747 #
point $-1 44.261517849352458 33.932028986979248 4.2352452288746747 #
point $-1 50.196095113729385 33.932028986979248 4.2352452288746747 #
point $-1 -68.741111484115123 -44.056240657094371 13.48214812356786 #
straight-curve $-1 -68.741111484115123 -44.056240657094371 0 0 0 -1 I I #
point $-1 -68.741111484115123 -44.056240657094371 -13.48214812356786 #
straight-curve $-1 -68.741111484115123 0 13.48214812356786 0 -1 0 I I #
End-of-ACIS-data 