500 0 8 0           
7 Unknown 11 ACIS 5.0 NT 24 Thu Mar 25 19:42:12 1999 
-1 9.9999999999999995e-007 1e-010 
body $-1 $8 $-1 $9 #
body $-1 $10 $-1 $11 #
body $-1 $12 $-1 $13 #
body $-1 $14 $-1 $15 #
body $-1 $16 $-1 $17 #
body $-1 $18 $-1 $19 #
body $-1 $20 $-1 $21 #
body $-1 $22 $-1 $23 #
lump $-1 $-1 $24 $0 #
transform $-1 1 0 0 0 1 0 0 0 1 46.21112704855495 21.938121556114574 4.8092202810671285 1 rotate no_reflect no_shear #
lump $-1 $-1 $25 $1 #
transform $-1 1 0 0 0 1 0 0 0 1 46.21112704855495 21.938121556114574 4.8092202810671285 1 rotate no_reflect no_shear #
lump $-1 $-1 $26 $2 #
transform $-1 1 0 0 0 1 0 0 0 1 46.21112704855495 21.938121556114574 4.8092202810671285 1 rotate no_reflect no_shear #
lump $-1 $-1 $27 $3 #
transform $-1 1 0 0 0 1 0 0 0 1 46.21112704855495 21.938121556114574 4.8092202810671285 1 rotate no_reflect no_shear #
lump $-1 $-1 $28 $4 #
transform $-1 1 0 0 0 1 0 0 0 1 46.21112704855495 21.938121556114574 4.8092202810671285 1 rotate no_reflect no_shear #
lump $-1 $-1 $29 $5 #
transform $-1 1 0 0 0 1 0 0 0 1 46.21112704855495 21.938121556114574 4.8092202810671285 1 rotate no_reflect no_shear #
lump $-1 $-1 $30 $6 #
transform $-1 1 0 0 0 1 0 0 0 1 46.21112704855495 21.938121556114574 4.8092202810671285 1 rotate no_reflect no_shear #
lump $-1 $-1 $31 $7 #
transform $-1 1 0 0 0 1 0 0 0 1 46.21112704855495 21.938121556114574 4.8092202810671285 1 rotate no_reflect no_shear #
shell $-1 $-1 $-1 $32 $-1 $8 #
shell $-1 $-1 $-1 $33 $-1 $10 #
shell $-1 $-1 $-1 $34 $-1 $12 #
shell $-1 $-1 $-1 $35 $-1 $14 #
shell $-1 $-1 $-1 $36 $-1 $16 #
shell $-1 $-1 $-1 $37 $-1 $18 #
shell $-1 $-1 $-1 $38 $-1 $20 #
shell $-1 $-1 $-1 $39 $-1 $22 #
face $-1 $40 $41 $24 $-1 $42 forward single #
face $-1 $43 $44 $25 $-1 $45 reversed single #
face $-1 $46 $47 $26 $-1 $48 reversed single #
face $-1 $49 $50 $27 $-1 $51 forward single #
face $-1 $52 $53 $28 $-1 $54 forward single #
face $-1 $55 $56 $29 $-1 $57 reversed single #
face $-1 $58 $59 $30 $-1 $60 forward single #
face $-1 $61 $62 $31 $-1 $63 forward single #
face $-1 $64 $65 $24 $-1 $66 reversed single #
loop $-1 $-1 $67 $32 #
plane-surface $-1 0 0 4.8092202810671285 0 0 1 1 0 0 forward_v I I I I #
face $-1 $68 $69 $25 $-1 $70 reversed single #
loop $-1 $-1 $71 $33 #
plane-surface $-1 0 -19.538983009931368 1.8092202810671285 0 0 1 1 0 0 forward_v I I I I #
face $-1 $72 $73 $26 $-1 $74 reversed single #
loop $-1 $-1 $75 $34 #
plane-surface $-1 -104.37433686090094 14.813775104472466 73.512279783261548 0 1 0 -0.62932039886446345 0 0.77714595512881146 forward_v I I I I #
face $-1 $76 $77 $27 $-1 $78 forward single #
loop $-1 $79 $80 $35 #
cone-surface $-1 -43.968470469185711 16.849302662084497 2.8593865868718442 0.62932039886446345 0 -0.77714595512881146 0.38857297756440573 0 0.31466019943223172 1 I I 0 1 0.5 forward I I I I #
face $-1 $81 $82 $28 $-1 $83 forward single #
loop $-1 $84 $85 $36 #
cone-surface $-1 -43.968470469185711 19.902593998502546 2.8593865868718442 0.62932039886446345 0 -0.77714595512881146 0.38857297756440573 0 0.31466019943223172 1 I I 0 1 0.5 forward I I I I #
face $-1 $86 $87 $29 $-1 $88 reversed single #
loop $-1 $-1 $89 $37 #
plane-surface $-1 21.271475600451005 1.1241288780515575 129.20460445533413 0 -1 0 -0.55919291073839883 0 -0.82903756765294845 forward_v I I I I #
face $-1 $90 $91 $30 $-1 $92 forward single #
loop $-1 $93 $94 $38 #
cone-surface $-1 42.907982968238358 -3.3711885988963033 2.2529778730371683 -0.55919291073839883 0 -0.82903756765294845 0.41451878382647422 0 -0.27959645536919941 1 I I 0 1 0.5 forward I I I I #
face $-1 $95 $96 $31 $-1 $97 forward single #
loop $-1 $98 $99 $39 #
cone-surface $-1 42.907982968238358 -0.6739981127275847 2.2529778730371683 -0.55919291073839883 0 -0.82903756765294845 0.41451878382647422 0 -0.27959645536919941 1 I I 0 1 0.5 forward I I I I #
face $-1 $100 $101 $24 $-1 $102 reversed single #
loop $-1 $-1 $103 $40 #
plane-surface $-1 0 0 -4.8092202810671285 0 0 1 1 0 0 forward_v I I I I #
coedge $-1 $104 $105 $106 $107 forward $41 $-1 #
face $-1 $108 $109 $25 $-1 $110 reversed single #
loop $-1 $-1 $111 $43 #
plane-surface $-1 0 -17.139844463748162 3.3092202810671285 0 -1 0 0 0 -1 forward_v I I I I #
coedge $-1 $112 $113 $114 $115 reversed $44 $-1 #
face $-1 $116 $117 $26 $-1 $118 forward single #
loop $-1 $-1 $119 $46 #
plane-surface $-1 -46.211127048554957 18.375948330293518 1.6866988478053742 -0.62932039886446345 0 0.77714595512881146 0.77714595512881146 0 0.62932039886446345 forward_v I I I I #
coedge $-1 $120 $121 $122 $123 reversed $47 $-1 #
face $-1 $-1 $124 $27 $-1 $125 forward single #
loop $-1 $126 $127 $49 #
cone-surface $-1 -43.496480170037366 16.849302662084497 2.2765271205252358 0.62932039886446345 0 -0.77714595512881146 0.19428648878220287 0 0.15733009971611586 1 I I -0.70710678118654746 0.70710678118654746 0.25 forward I I I I #
loop $-1 $-1 $128 $35 #
coedge $-1 $80 $80 $129 $130 reversed $50 $-1 #
face $-1 $-1 $131 $28 $-1 $132 forward single #
loop $-1 $133 $134 $52 #
cone-surface $-1 -43.496480170037366 19.902593998502546 2.2765271205252358 0.62932039886446345 0 -0.77714595512881146 0.19428648878220287 0 0.15733009971611586 1 I I -0.70710678118654746 0.70710678118654746 0.25 forward I I I I #
loop $-1 $-1 $135 $36 #
coedge $-1 $85 $85 $136 $137 reversed $53 $-1 #
face $-1 $138 $139 $29 $-1 $140 reversed single #
loop $-1 $-1 $141 $55 #
plane-surface $-1 -30.410393685115785 -2.0225933558119458 52.5830837216634 0.55919291073839883 0 0.82903756765294845 0.82903756765294845 0 -0.55919291073839883 forward_v I I I I #
coedge $-1 $142 $143 $144 $145 reversed $56 $-1 #
face $-1 $-1 $146 $30 $-1 $147 forward single #
loop $-1 $148 $149 $58 #
cone-surface $-1 42.361969070693654 -3.3711885988963033 1.4434789955792322 -0.55919291073839883 0 -0.82903756765294845 0.20725939191323711 0 -0.13979822768459971 1 I I -0.70710678118654779 0.70710678118654713 0.25 forward I I I I #
loop $-1 $-1 $150 $38 #
coedge $-1 $94 $94 $151 $152 reversed $59 $-1 #
face $-1 $-1 $153 $31 $-1 $154 forward single #
loop $-1 $155 $156 $61 #
cone-surface $-1 42.361969070693654 -0.6739981127275847 1.4434789955792322 -0.55919291073839883 0 -0.82903756765294845 0.20725939191323711 0 -0.13979822768459971 1 I I -0.70710678118654779 0.70710678118654713 0.25 forward I I I I #
loop $-1 $-1 $157 $39 #
coedge $-1 $99 $99 $158 $159 reversed $62 $-1 #
face $-1 $160 $161 $24 $-1 $162 reversed single #
loop $-1 $-1 $163 $64 #
plane-surface $-1 0 -21.938121556114574 0 0 1 0 0 0 1 forward_v I I I I #
coedge $-1 $164 $165 $166 $167 forward $65 $-1 #
coedge $-1 $168 $67 $169 $170 forward $41 $-1 #
coedge $-1 $67 $168 $171 $172 forward $41 $-1 #
coedge $-1 $173 $174 $67 $107 reversed $175 $-1 #
edge $-1 $176 -21.938121556114574 $177 21.938121556114574 $106 $178 forward 7 unknown #
face $-1 $179 $180 $25 $-1 $181 reversed single #
loop $-1 $-1 $182 $68 #
plane-surface $-1 -46.21112704855495 0 0 1 0 0 0 0 -1 forward_v I I I I #
coedge $-1 $183 $184 $185 $186 reversed $69 $-1 #
coedge $-1 $187 $71 $188 $189 reversed $44 $-1 #
coedge $-1 $71 $187 $183 $190 forward $44 $-1 #
coedge $-1 $185 $191 $71 $115 forward $192 $-1 #
edge $-1 $193 -12.16863005114889 $194 -7.3703529587824779 $114 $195 forward 7 unknown #
face $-1 $196 $197 $26 $-1 $198 reversed single #
loop $-1 $-1 $122 $72 #
plane-surface $-1 0 0 4.8092202810671285 0 0 1 1 0 0 forward_v I I I I #
coedge $-1 $199 $200 $201 $202 reversed $73 $-1 #
coedge $-1 $121 $75 $203 $204 reversed $47 $-1 #
coedge $-1 $75 $120 $199 $205 reversed $47 $-1 #
coedge $-1 $201 $206 $75 $123 forward $117 $-1 #
edge $-1 $207 5.97604138189552 $208 9.832034141769519 $122 $209 forward 7 unknown #
loop $-1 $-1 $129 $76 #
plane-surface $-1 -46.211127048554957 18.375948330293518 1.6866988478053742 -0.62932039886446345 0 0.77714595512881146 0.77714595512881146 0 0.62932039886446345 forward_v I I I I #
loop $-1 $-1 $210 $49 #
coedge $-1 $127 $127 $128 $211 reversed $77 $-1 #
coedge $-1 $128 $128 $127 $211 forward $79 $-1 #
coedge $-1 $129 $129 $80 $130 forward $124 $-1 #
edge $-1 $212 0 $212 6.2831853071796004 $129 $213 forward 7 unknown #
loop $-1 $-1 $136 $81 #
plane-surface $-1 -46.211127048554957 18.375948330293518 1.6866988478053742 -0.62932039886446345 0 0.77714595512881146 0.77714595512881146 0 0.62932039886446345 forward_v I I I I #
loop $-1 $-1 $214 $52 #
coedge $-1 $134 $134 $135 $215 reversed $82 $-1 #
coedge $-1 $135 $135 $134 $215 forward $84 $-1 #
coedge $-1 $136 $136 $85 $137 forward $131 $-1 #
edge $-1 $216 0 $216 6.2831853071796004 $136 $217 forward 7 unknown #
face $-1 $218 $219 $29 $-1 $220 reversed single #
loop $-1 $-1 $221 $86 #
plane-surface $-1 21.271475600451005 -5.169315589675449 129.20460445533413 0 1 0 0.55919291073839883 0 0.82903756765294845 forward_v I I I I #
coedge $-1 $222 $223 $224 $225 reversed $87 $-1 #
coedge $-1 $143 $89 $226 $227 reversed $56 $-1 #
coedge $-1 $89 $142 $222 $228 reversed $56 $-1 #
coedge $-1 $224 $229 $89 $145 forward $230 $-1 #
edge $-1 $231 -35.575389248329444 $232 -29.781532427416455 $144 $233 forward 7 unknown #
loop $-1 $-1 $151 $90 #
plane-surface $-1 -30.410393685115785 -2.0225933558119458 52.5830837216634 0.55919291073839883 0 0.82903756765294845 0.82903756765294845 0 -0.55919291073839883 forward_v I I I I #
loop $-1 $-1 $234 $58 #
coedge $-1 $149 $149 $150 $235 reversed $91 $-1 #
coedge $-1 $150 $150 $149 $235 forward $93 $-1 #
coedge $-1 $151 $151 $94 $152 forward $146 $-1 #
edge $-1 $236 0 $236 6.2831853071796004 $151 $237 forward 7 unknown #
loop $-1 $-1 $158 $95 #
plane-surface $-1 -30.410393685115785 -2.0225933558119458 52.5830837216634 0.55919291073839883 0 0.82903756765294845 0.82903756765294845 0 -0.55919291073839883 forward_v I I I I #
loop $-1 $-1 $238 $61 #
coedge $-1 $156 $156 $157 $239 reversed $96 $-1 #
coedge $-1 $157 $157 $156 $239 forward $98 $-1 #
coedge $-1 $158 $158 $99 $159 forward $153 $-1 #
edge $-1 $240 0 $240 6.2831853071796004 $158 $241 forward 7 unknown #
face $-1 $242 $243 $24 $-1 $244 reversed single #
loop $-1 $-1 $245 $100 #
plane-surface $-1 -46.21112704855495 0 0 1 0 0 0 0 -1 forward_v I I I I #
coedge $-1 $246 $171 $247 $248 forward $101 $-1 #
coedge $-1 $249 $103 $246 $250 forward $65 $-1 #
coedge $-1 $103 $249 $251 $252 forward $65 $-1 #
coedge $-1 $174 $173 $103 $167 reversed $175 $-1 #
edge $-1 $253 -21.938121556114574 $254 21.938121556114574 $166 $255 forward 7 unknown #
coedge $-1 $105 $104 $256 $257 forward $41 $-1 #
coedge $-1 $258 $259 $104 $170 reversed $243 $-1 #
edge $-1 $177 -46.21112704855495 $260 46.21112704855495 $169 $261 forward 7 unknown #
coedge $-1 $163 $262 $105 $172 reversed $101 $-1 #
edge $-1 $263 -46.21112704855495 $176 46.21112704855495 $171 $264 forward 7 unknown #
coedge $-1 $166 $106 $262 $265 forward $175 $-1 #
coedge $-1 $106 $166 $258 $266 reversed $175 $-1 #
loop $-1 $-1 $173 $242 #
vertex $-1 $107 $267 #
vertex $-1 $107 $268 #
straight-curve $-1 46.21112704855495 0 4.8092202810671285 0 1 0 I I #
face $-1 $269 $270 $25 $-1 $271 forward single #
loop $-1 $-1 $188 $108 #
plane-surface $-1 0 -21.938121556114574 0 0 1 0 0 0 1 forward_v I I I I #
coedge $-1 $272 $273 $274 $275 forward $109 $-1 #
coedge $-1 $274 $111 $113 $190 reversed $69 $-1 #
coedge $-1 $111 $274 $276 $277 reversed $69 $-1 #
coedge $-1 $278 $114 $111 $186 forward $192 $-1 #
edge $-1 $194 0.15461014053356426 $279 3.1546101405335643 $185 $280 forward 7 unknown #
coedge $-1 $113 $112 $272 $281 reversed $44 $-1 #
coedge $-1 $282 $283 $112 $189 forward $180 $-1 #
edge $-1 $284 -46.21112704855495 $193 46.21112704855495 $188 $285 forward 7 unknown #
edge $-1 $286 -46.21112704855495 $194 46.21112704855495 $183 $287 forward 7 unknown #
coedge $-1 $114 $278 $282 $288 forward $192 $-1 #
loop $-1 $-1 $185 $269 #
vertex $-1 $189 $289 #
vertex $-1 $115 $290 #
straight-curve $-1 46.21112704855495 -9.7694915049656839 1.8092202810671285 0 1 0 I I #
face $-1 $-1 $291 $26 $-1 $292 reversed single #
loop $-1 $-1 $293 $116 #
plane-surface $-1 0 21.938121556114574 0 0 -1 0 0 0 -1 forward_v I I I I #
coedge $-1 $294 $119 $121 $205 forward $73 $-1 #
coedge $-1 $119 $294 $293 $295 reversed $73 $-1 #
coedge $-1 $296 $122 $119 $202 forward $117 $-1 #
edge $-1 $208 5.6258009393257069 $297 12.750147390967811 $201 $298 forward 7 unknown #
coedge $-1 $299 $300 $120 $204 forward $291 $-1 #
edge $-1 $301 -35.069441043825393 $207 -31.946919610563647 $203 $302 forward 7 unknown #
edge $-1 $208 -4.9617356101851895 $301 -9.1551213131864128e-015 $121 $303 forward 7 unknown #
coedge $-1 $122 $296 $299 $304 forward $117 $-1 #
vertex $-1 $204 $305 #
vertex $-1 $123 $306 #
straight-curve $-1 -52.18716843045047 14.813775104472466 4.8092202810671267 1 0 0 I I #
coedge $-1 $210 $210 $-1 $307 reversed $126 $-1 #
edge $-1 $308 0 $308 6.2831853071796004 $127 $309 forward 7 unknown #
vertex $-1 $130 $310 #
ellipse-curve $-1 -44.28313066861795 16.849302662084497 3.2479595644362571 -0.62932039886446345 0 0.77714595512881146 0.38857297756440573 0 0.31466019943223172 1 I I #
coedge $-1 $214 $214 $-1 $311 reversed $133 $-1 #
edge $-1 $312 0 $312 6.2831853071796004 $134 $313 forward 7 unknown #
vertex $-1 $137 $314 #
ellipse-curve $-1 -44.28313066861795 19.902593998502546 3.2479595644362571 -0.62932039886446345 0 0.77714595512881146 0.38857297756440573 0 0.31466019943223172 1 I I #
face $-1 $-1 $230 $29 $-1 $315 forward single #
loop $-1 $-1 $316 $138 #
plane-surface $-1 46.21112704855495 0 0 -1 0 0 0 0 1 forward_v I I I I #
coedge $-1 $317 $318 $319 $320 reversed $139 $-1 #
coedge $-1 $321 $141 $143 $228 forward $87 $-1 #
coedge $-1 $141 $321 $317 $322 forward $87 $-1 #
coedge $-1 $319 $144 $141 $225 forward $230 $-1 #
edge $-1 $232 -2.1354255559575304 $323 4.1580189117694761 $224 $324 forward 7 unknown #
coedge $-1 $325 $326 $142 $227 forward $219 $-1 #
edge $-1 $327 -63.701087791570458 $231 -59.793081946599941 $226 $328 forward 7 unknown #
edge $-1 $232 85.433599967338992 $327 92.422254097109885 $143 $329 forward 7 unknown #
coedge $-1 $144 $319 $325 $330 forward $230 $-1 #
loop $-1 $-1 $319 $218 #
vertex $-1 $227 $331 #
vertex $-1 $145 $332 #
straight-curve $-1 10.635737800225503 1.1241288780515575 4.8092202810671267 -1 0 0 I I #
coedge $-1 $234 $234 $-1 $333 reversed $148 $-1 #
edge $-1 $334 0 $334 6.2831853071796004 $149 $335 forward 7 unknown #
vertex $-1 $152 $336 #
ellipse-curve $-1 43.314198638098468 -3.3711885988963033 2.8552173585818674 0.55919291073839883 0 0.82903756765294845 0.41451878382647422 0 -0.27959645536919941 1 I I #
coedge $-1 $238 $238 $-1 $337 reversed $155 $-1 #
edge $-1 $338 0 $338 6.2831853071796004 $156 $339 forward 7 unknown #
vertex $-1 $159 $340 #
ellipse-curve $-1 43.314198638098468 -0.6739981127275847 2.8552173585818674 0.55919291073839883 0 0.82903756765294845 0.41451878382647422 0 -0.27959645536919941 1 I I #
face $-1 $-1 $175 $24 $-1 $341 reversed single #
loop $-1 $-1 $258 $160 #
plane-surface $-1 0 21.938121556114574 0 0 -1 0 0 0 -1 forward_v I I I I #
coedge $-1 $342 $256 $259 $343 forward $161 $-1 #
coedge $-1 $262 $163 $164 $250 reversed $101 $-1 #
coedge $-1 $256 $342 $163 $248 reversed $161 $-1 #
edge $-1 $263 -4.8092202810671285 $344 4.8092202810671285 $247 $345 forward 7 unknown #
coedge $-1 $165 $164 $342 $346 forward $65 $-1 #
edge $-1 $254 -46.21112704855495 $344 46.21112704855495 $246 $347 forward 7 unknown #
coedge $-1 $259 $258 $165 $252 reversed $243 $-1 #
edge $-1 $348 -46.21112704855495 $253 46.21112704855495 $251 $349 forward 7 unknown #
vertex $-1 $167 $350 #
vertex $-1 $265 $351 #
straight-curve $-1 46.21112704855495 0 -4.8092202810671285 0 -1 0 I I #
coedge $-1 $245 $247 $168 $257 reversed $161 $-1 #
edge $-1 $260 -21.938121556114574 $263 21.938121556114574 $256 $352 forward 7 unknown #
coedge $-1 $251 $169 $174 $266 forward $243 $-1 #
coedge $-1 $169 $251 $245 $343 reversed $243 $-1 #
vertex $-1 $170 $353 #
straight-curve $-1 0 21.938121556114574 4.8092202810671285 -1 0 0 I I #
coedge $-1 $171 $246 $173 $265 reversed $101 $-1 #
vertex $-1 $257 $354 #
straight-curve $-1 0 -21.938121556114574 4.8092202810671285 1 0 0 I I #
edge $-1 $176 -4.8092202810671285 $254 4.8092202810671285 $173 $355 forward 7 unknown #
edge $-1 $177 -4.8092202810671285 $253 4.8092202810671285 $174 $356 forward 7 unknown #
point $-1 46.21112704855495 -21.938121556114574 4.8092202810671285 #
point $-1 46.21112704855495 21.938121556114574 4.8092202810671285 #
face $-1 $-1 $192 $25 $-1 $357 reversed single #
loop $-1 $-1 $276 $179 #
plane-surface $-1 0 0 4.8092202810671285 0 0 1 1 0 0 forward_v I I I I #
coedge $-1 $358 $182 $187 $281 forward $109 $-1 #
coedge $-1 $182 $358 $359 $360 reversed $109 $-1 #
coedge $-1 $184 $183 $182 $275 reversed $69 $-1 #
edge $-1 $361 -3.1546101405335643 $286 -0.15461014053356426 $182 $362 forward 7 unknown #
coedge $-1 $359 $363 $184 $277 forward $270 $-1 #
edge $-1 $279 -46.21112704855495 $361 46.21112704855495 $276 $364 forward 7 unknown #
coedge $-1 $191 $185 $363 $365 reversed $192 $-1 #
vertex $-1 $186 $366 #
straight-curve $-1 46.21112704855495 -17.139844463748162 1.6546101405335643 0 0 1 I I #
edge $-1 $286 7.3703529587824779 $284 12.16863005114889 $272 $367 forward 7 unknown #
coedge $-1 $368 $188 $191 $288 reversed $180 $-1 #
coedge $-1 $188 $368 $358 $369 forward $180 $-1 #
vertex $-1 $189 $370 #
straight-curve $-1 0 -21.938121556114574 1.8092202810671285 1 0 0 I I #
vertex $-1 $281 $371 #
straight-curve $-1 0 -17.139844463748162 1.8092202810671285 1 0 0 I I #
edge $-1 $372 -4.8092202810671285 $193 -1.8092202810671285 $191 $373 forward 7 unknown #
point $-1 46.21112704855495 -21.938121556114574 1.8092202810671285 #
point $-1 46.21112704855495 -17.139844463748162 1.8092202810671285 #
loop $-1 $-1 $203 $196 #
plane-surface $-1 -46.21112704855495 0 0 1 0 0 0 0 -1 forward_v I I I I #
coedge $-1 $374 $375 $200 $295 forward $197 $-1 #
coedge $-1 $200 $199 $300 $376 reversed $73 $-1 #
edge $-1 $297 12.463922627846303 $377 17.425658238031485 $293 $378 forward 7 unknown #
coedge $-1 $206 $201 $375 $379 forward $117 $-1 #
vertex $-1 $379 $380 #
straight-curve $-1 -42.355134288680958 9.187974165146759 4.8092202810671267 0 1 0 I I #
coedge $-1 $381 $203 $206 $304 reversed $291 $-1 #
coedge $-1 $203 $381 $294 $376 forward $291 $-1 #
vertex $-1 $204 $382 #
straight-curve $-1 -46.21112704855495 14.813775104472466 36.756139891630774 0 0 1 I I #
straight-curve $-1 -46.211127048554957 14.813775104472466 1.6866988478053742 -0.77714595512881146 0 -0.62932039886446345 I I #
edge $-1 $383 -21.938121556114574 $207 -14.813775104472466 $299 $384 forward 7 unknown #
point $-1 -46.21112704855495 14.813775104472466 4.8092202810671285 #
point $-1 -42.355134288680951 14.813775104472466 4.8092202810671285 #
edge $-1 $385 1 $385 0 $210 $-1 forward 7 unknown #
vertex $-1 $211 $386 #
ellipse-curve $-1 -43.653810269753478 16.849302662084497 2.4708136093074384 -0.62932039886446345 0 0.77714595512881146 0.38857297756440573 0 0.31466019943223172 1 I I #
point $-1 -43.894557691053542 16.849302662084497 3.562619763868482 #
edge $-1 $387 1 $387 0 $214 $-1 forward 7 unknown #
vertex $-1 $215 $388 #
ellipse-curve $-1 -43.653810269753478 19.902593998502546 2.4708136093074384 -0.62932039886446345 0 0.77714595512881146 0.38857297756440573 0 0.31466019943223172 1 I I #
point $-1 -43.894557691053542 19.902593998502546 3.562619763868482 #
plane-surface $-1 0 0 4.8092202810671285 0 0 1 1 0 0 forward_v I I I I #
coedge $-1 $326 $325 $318 $389 forward $219 $-1 #
coedge $-1 $318 $221 $223 $322 reversed $139 $-1 #
coedge $-1 $221 $317 $316 $389 reversed $139 $-1 #
coedge $-1 $229 $224 $221 $320 forward $230 $-1 #
edge $-1 $323 29.781532427416455 $390 35.575389248329444 $319 $391 forward 7 unknown #
coedge $-1 $223 $222 $326 $392 reversed $87 $-1 #
edge $-1 $393 -92.422254097109885 $323 -85.433599967338992 $317 $394 forward 7 unknown #
vertex $-1 $225 $395 #
straight-curve $-1 40.417270227641957 -1.0112966779059729 4.8092202810671267 0 -1 0 I I #
coedge $-1 $316 $226 $229 $330 reversed $219 $-1 #
coedge $-1 $226 $316 $321 $392 forward $219 $-1 #
vertex $-1 $227 $396 #
straight-curve $-1 46.21112704855495 1.1241288780515575 64.602302227667067 0 0 1 I I #
straight-curve $-1 -30.410393685115785 1.1241288780515575 52.5830837216634 0.82903756765294845 0 -0.55919291073839883 I I #
edge $-1 $390 -5.169315589675449 $231 1.1241288780515575 $325 $397 forward 7 unknown #
point $-1 46.21112704855495 1.1241288780515575 4.8092202810671285 #
point $-1 40.417270227641957 1.1241288780515575 4.8092202810671267 #
edge $-1 $398 1 $398 0 $234 $-1 forward 7 unknown #
vertex $-1 $235 $399 #
ellipse-curve $-1 42.501767298378255 -3.3711885988963033 1.650738387492469 0.55919291073839883 0 0.82903756765294845 0.41451878382647422 0 -0.27959645536919941 1 I I #
point $-1 43.728717421924941 -3.3711885988963033 2.5756209032126671 #
edge $-1 $400 1 $400 0 $238 $-1 forward 7 unknown #
vertex $-1 $239 $401 #
ellipse-curve $-1 42.501767298378255 -0.6739981127275847 1.650738387492469 0.55919291073839883 0 0.82903756765294845 0.41451878382647422 0 -0.27959645536919941 1 I I #
point $-1 43.728717421924941 -0.6739981127275847 2.5756209032126671 #
plane-surface $-1 46.21112704855495 0 0 -1 0 0 0 0 1 forward_v I I I I #
coedge $-1 $247 $245 $249 $346 reversed $161 $-1 #
edge $-1 $260 -4.8092202810671285 $348 4.8092202810671285 $259 $402 forward 7 unknown #
vertex $-1 $346 $403 #
straight-curve $-1 -46.21112704855495 -21.938121556114574 0 0 0 -1 I I #
edge $-1 $344 -21.938121556114574 $348 21.938121556114574 $342 $404 forward 7 unknown #
straight-curve $-1 0 -21.938121556114574 -4.8092202810671285 -1 0 0 I I #
vertex $-1 $252 $405 #
straight-curve $-1 0 21.938121556114574 -4.8092202810671285 1 0 0 I I #
point $-1 46.21112704855495 21.938121556114574 -4.8092202810671285 #
point $-1 46.21112704855495 -21.938121556114574 -4.8092202810671285 #
straight-curve $-1 -46.21112704855495 0 4.8092202810671285 0 -1 0 I I #
point $-1 -46.21112704855495 21.938121556114574 4.8092202810671285 #
point $-1 -46.21112704855495 -21.938121556114574 4.8092202810671285 #
straight-curve $-1 46.21112704855495 -21.938121556114574 0 0 0 -1 I I #
straight-curve $-1 46.21112704855495 21.938121556114574 0 0 0 -1 I I #
plane-surface $-1 46.21112704855495 0 0 -1 0 0 0 0 1 forward_v I I I I #
coedge $-1 $273 $272 $283 $369 reversed $109 $-1 #
coedge $-1 $406 $276 $273 $360 forward $270 $-1 #
edge $-1 $361 17.139844463748162 $407 21.938121556114574 $273 $408 forward 7 unknown #
vertex $-1 $360 $409 #
straight-curve $-1 -46.21112704855495 -17.139844463748162 1.6546101405335643 0 0 -1 I I #
coedge $-1 $276 $406 $278 $365 forward $270 $-1 #
straight-curve $-1 0 -17.139844463748162 4.8092202810671285 -1 0 0 I I #
edge $-1 $372 -21.938121556114574 $279 -17.139844463748162 $278 $410 forward 7 unknown #
point $-1 46.21112704855495 -17.139844463748162 4.8092202810671285 #
straight-curve $-1 -46.21112704855495 -9.7694915049656839 1.8092202810671285 0 -1 0 I I #
coedge $-1 $283 $282 $406 $411 reversed $180 $-1 #
edge $-1 $407 -4.8092202810671285 $284 -1.8092202810671285 $358 $412 forward 7 unknown #
point $-1 -46.21112704855495 -21.938121556114574 1.8092202810671285 #
point $-1 -46.21112704855495 -17.139844463748162 1.8092202810671285 #
vertex $-1 $365 $413 #
straight-curve $-1 46.21112704855495 -21.938121556114574 0 0 0 -1 I I #
coedge $-1 $375 $293 $381 $414 reversed $197 $-1 #
coedge $-1 $293 $374 $296 $379 reversed $197 $-1 #
edge $-1 $377 -12.750147390967811 $301 -5.6258009393257069 $300 $415 forward 7 unknown #
vertex $-1 $295 $416 #
straight-curve $-1 -32.668847233411732 21.938121556114574 12.653021040639178 -0.77714595512881146 0 -0.62932039886446345 I I #
edge $-1 $297 42.355134288680951 $383 46.21112704855495 $375 $417 forward 7 unknown #
point $-1 -42.355134288680951 21.93812155611457 4.8092202810671285 #
coedge $-1 $300 $299 $374 $414 forward $291 $-1 #
point $-1 -46.21112704855495 14.813775104472466 1.6866988478053799 #
vertex $-1 $379 $418 #
straight-curve $-1 -46.21112704855495 0 4.8092202810671285 0 -1 0 I I #
vertex $-1 $307 $419 #
point $-1 -43.265237292189077 16.849302662084497 2.7854738087396704 #
vertex $-1 $311 $420 #
point $-1 -43.265237292189077 19.902593998502546 2.7854738087396704 #
edge $-1 $390 59.793081946599941 $393 63.701087791570458 $316 $421 forward 7 unknown #
vertex $-1 $330 $422 #
straight-curve $-1 10.635737800225503 -5.169315589675449 4.8092202810671267 1 0 0 I I #
edge $-1 $393 -4.1580189117694761 $327 2.1354255559575304 $326 $423 forward 7 unknown #
vertex $-1 $392 $424 #
straight-curve $-1 -30.410393685115785 -5.169315589675449 52.5830837216634 -0.82903756765294845 0 0.55919291073839883 I I #
point $-1 40.417270227641957 -5.169315589675449 4.8092202810671267 #
point $-1 46.21112704855495 1.1241288780515575 0.90121443609660901 #
straight-curve $-1 46.21112704855495 0 4.8092202810671285 0 1 0 I I #
vertex $-1 $333 $425 #
point $-1 42.916286082204728 -3.3711885988963033 1.3711419321232696 #
vertex $-1 $337 $426 #
point $-1 42.916286082204728 -0.6739981127275847 1.3711419321232696 #
straight-curve $-1 -46.21112704855495 21.938121556114574 0 0 0 -1 I I #
point $-1 -46.21112704855495 -21.938121556114574 -4.8092202810671285 #
straight-curve $-1 -46.21112704855495 0 -4.8092202810671285 0 1 0 I I #
point $-1 -46.21112704855495 21.938121556114574 -4.8092202810671285 #
coedge $-1 $363 $359 $368 $411 forward $270 $-1 #
vertex $-1 $360 $427 #
straight-curve $-1 -46.21112704855495 0 4.8092202810671285 0 -1 0 I I #
point $-1 -46.21112704855495 -17.139844463748162 4.8092202810671285 #
straight-curve $-1 46.21112704855495 0 4.8092202810671285 0 1 0 I I #
edge $-1 $407 -46.21112704855495 $372 46.21112704855495 $368 $428 forward 7 unknown #
straight-curve $-1 -46.21112704855495 -21.938121556114574 0 0 0 -1 I I #
point $-1 46.21112704855495 -21.938121556114574 4.8092202810671285 #
edge $-1 $383 -4.8092202810671285 $377 -1.6866988478053799 $374 $429 forward 7 unknown #
straight-curve $-1 -46.21112704855495 9.187974165146759 1.6866988478053848 0 -1 0 I I #
point $-1 -46.21112704855495 21.93812155611457 1.6866988478053799 #
straight-curve $-1 0 21.938121556114574 4.8092202810671285 -1 0 0 I I #
point $-1 -46.21112704855495 21.938121556114574 4.8092202810671285 #
point $-1 -43.339150070321253 16.849302662084497 2.0822406317430331 #
point $-1 -43.339150070321253 19.902593998502546 2.0822406317430331 #
straight-curve $-1 46.21112704855495 -5.169315589675449 64.602302227667067 0 0 -1 I I #
point $-1 46.21112704855495 -5.169315589675449 4.8092202810671285 #
straight-curve $-1 46.211127048554943 -1.0112966779059729 0.90121443609660901 0 1 0 I I #
point $-1 46.21112704855495 -5.169315589675449 0.90121443609660901 #
point $-1 42.222170843009053 -3.3711885988963033 1.2362196036659954 #
point $-1 42.222170843009053 -0.6739981127275847 1.2362196036659954 #
point $-1 -46.21112704855495 -21.938121556114574 4.8092202810671285 #
straight-curve $-1 0 -21.938121556114574 4.8092202810671285 1 0 0 I I #
straight-curve $-1 -46.21112704855495 21.938121556114574 0 0 0 -1 I I #
End-of-ACIS-data 