500 0 10 0           
7 Unknown 11 ACIS 5.0 NT 24 Thu Mar 25 19:58:39 1999 
-1 9.9999999999999995e-007 1e-010 
body $-1 $10 $-1 $11 #
body $-1 $12 $-1 $13 #
body $-1 $14 $-1 $15 #
body $-1 $16 $-1 $17 #
body $-1 $18 $-1 $19 #
body $-1 $20 $-1 $21 #
body $-1 $22 $-1 $23 #
body $-1 $24 $-1 $25 #
body $-1 $26 $-1 $27 #
body $-1 $28 $-1 $29 #
lump $-1 $-1 $30 $0 #
transform $-1 1 0 0 0 1 0 0 0 1 76.683248390148634 50.763950034478228 10.785344735710535 1 rotate no_reflect no_shear #
lump $-1 $-1 $31 $1 #
transform $-1 1 0 0 0 1 0 0 0 1 76.683248390148634 50.763950034478228 10.785344735710535 1 rotate no_reflect no_shear #
lump $-1 $-1 $32 $2 #
transform $-1 1 0 0 0 1 0 0 0 1 76.683248390148634 50.763950034478228 10.785344735710535 1 rotate no_reflect no_shear #
lump $-1 $-1 $33 $3 #
transform $-1 1 0 0 0 1 0 0 0 1 76.683248390148634 50.763950034478228 10.785344735710535 1 rotate no_reflect no_shear #
lump $-1 $-1 $34 $4 #
transform $-1 1 0 0 0 1 0 0 0 1 76.683248390148634 50.763950034478228 10.785344735710535 1 rotate no_reflect no_shear #
lump $-1 $-1 $35 $5 #
transform $-1 1 0 0 0 1 0 0 0 1 76.683248390148634 50.763950034478228 10.785344735710535 1 rotate no_reflect no_shear #
lump $-1 $-1 $36 $6 #
transform $-1 1 0 0 0 1 0 0 0 1 76.683248390148634 50.763950034478228 10.785344735710535 1 rotate no_reflect no_shear #
lump $-1 $-1 $37 $7 #
transform $-1 1 0 0 0 1 0 0 0 1 76.683248390148634 50.763950034478228 10.785344735710535 1 rotate no_reflect no_shear #
lump $-1 $-1 $38 $8 #
transform $-1 1 0 0 0 1 0 0 0 1 76.683248390148634 50.763950034478228 10.785344735710535 1 rotate no_reflect no_shear #
lump $-1 $-1 $39 $9 #
transform $-1 1 0 0 0 1 0 0 0 1 76.683248390148634 50.763950034478228 10.785344735710535 1 rotate no_reflect no_shear #
shell $-1 $-1 $-1 $40 $-1 $10 #
shell $-1 $-1 $-1 $41 $-1 $12 #
shell $-1 $-1 $-1 $42 $-1 $14 #
shell $-1 $-1 $-1 $43 $-1 $16 #
shell $-1 $-1 $-1 $44 $-1 $18 #
shell $-1 $-1 $-1 $45 $-1 $20 #
shell $-1 $-1 $-1 $46 $-1 $22 #
shell $-1 $-1 $-1 $47 $-1 $24 #
shell $-1 $-1 $-1 $48 $-1 $26 #
shell $-1 $-1 $-1 $49 $-1 $28 #
face $-1 $50 $51 $30 $-1 $52 forward single #
face $-1 $53 $54 $31 $-1 $55 forward single #
face $-1 $56 $57 $32 $-1 $58 reversed single #
face $-1 $59 $60 $33 $-1 $61 forward single #
face $-1 $62 $63 $34 $-1 $64 forward single #
face $-1 $65 $66 $35 $-1 $67 forward single #
face $-1 $68 $69 $36 $-1 $70 reversed single #
face $-1 $71 $72 $37 $-1 $73 forward single #
face $-1 $74 $75 $38 $-1 $76 forward single #
face $-1 $77 $78 $39 $-1 $79 forward single #
face $-1 $80 $81 $30 $-1 $82 reversed single #
loop $-1 $-1 $83 $40 #
plane-surface $-1 0 0 10.785344735710535 0 0 1 1 0 0 forward_v I I I I #
face $-1 $84 $85 $31 $-1 $86 reversed single #
loop $-1 $-1 $87 $41 #
plane-surface $-1 -70.861630877706332 0 -6.2104521156464232 0 0 1 1 0 0 forward_v I I I I #
face $-1 $88 $89 $32 $-1 $90 reversed single #
loop $-1 $-1 $91 $42 #
plane-surface $-1 7.0928621657055615 135.67961042265472 167.54359906411452 1 0 0 0 -0.87461971476443456 -0.48480960649040278 forward_v I I I I #
face $-1 $92 $93 $33 $-1 $94 forward single #
loop $-1 $95 $96 $43 #
cone-surface $-1 14.9024985648513 48.114806257666856 7.1023445248594408 0 -0.87461971476443456 -0.48480960649040278 1 0 0 1 I I 0 1 1 forward I I I I #
face $-1 $97 $98 $34 $-1 $99 forward single #
loop $-1 $100 $101 $44 #
cone-surface $-1 26.616953163569889 48.114806257666856 7.1023445248594408 0 -0.87461971476443456 -0.48480960649040278 1 0 0 1 I I 0 1 1 forward I I I I #
face $-1 $102 $103 $35 $-1 $104 forward single #
loop $-1 $105 $106 $45 #
cone-surface $-1 38.331407762288478 48.114806257666856 7.1023445248594408 0 -0.87461971476443456 -0.48480960649040278 1 0 0 1 I I 0 1 1 forward I I I I #
face $-1 $107 $108 $36 $-1 $109 reversed single #
loop $-1 $-1 $110 $46 #
plane-surface $-1 46.141044161434216 -184.90131170288242 78.7452960651718 -1 0 0 0 -0.87461971476443456 0.48480960649040278 forward_v I I I I #
face $-1 $111 $112 $37 $-1 $113 forward single #
loop $-1 $114 $115 $47 #
cone-surface $-1 14.9024985648513 -48.114806257666856 7.1023445248594372 0 0.87461971476443456 -0.48480960649040278 1 0 0 1 I I 0 1 1 forward I I I I #
face $-1 $116 $117 $38 $-1 $118 forward single #
loop $-1 $119 $120 $48 #
cone-surface $-1 26.616953163569889 -48.114806257666856 7.1023445248594372 0 0.87461971476443456 -0.48480960649040278 1 0 0 1 I I 0 1 1 forward I I I I #
face $-1 $121 $122 $39 $-1 $123 forward single #
loop $-1 $124 $125 $49 #
cone-surface $-1 38.331407762288478 -48.114806257666856 7.1023445248594372 0 0.87461971476443456 -0.48480960649040278 1 0 0 1 I I 0 1 1 forward I I I I #
face $-1 $126 $127 $30 $-1 $128 reversed single #
loop $-1 $-1 $129 $50 #
plane-surface $-1 0 0 -10.785344735710535 0 0 1 1 0 0 forward_v I I I I #
coedge $-1 $130 $131 $132 $133 forward $51 $-1 #
face $-1 $134 $135 $31 $-1 $136 reversed single #
loop $-1 $-1 $137 $53 #
plane-surface $-1 -65.040013365264031 0 -8.4978984256784784 -1 0 0 0 0 1 forward_v I I I I #
coedge $-1 $138 $139 $140 $141 forward $54 $-1 #
face $-1 $142 $143 $32 $-1 $144 reversed single #
loop $-1 $-1 $145 $56 #
plane-surface $-1 26.616953163569889 1.5422487542505507 93.190048111246981 0 0.87461971476443456 0.48480960649040278 1 0 0 forward_v I I I I #
coedge $-1 $146 $147 $148 $149 reversed $57 $-1 #
face $-1 $-1 $150 $33 $-1 $151 forward single #
loop $-1 $152 $153 $59 #
cone-surface $-1 14.9024985648513 46.800367629055231 6.3737393224662817 0 -0.87461971476443456 -0.48480960649040278 0.5 0 0 1 I I -0.70710678118654746 0.70710678118654746 0.5 forward I I I I #
loop $-1 $-1 $154 $43 #
coedge $-1 $96 $96 $155 $156 reversed $60 $-1 #
face $-1 $-1 $157 $34 $-1 $158 forward single #
loop $-1 $159 $160 $62 #
cone-surface $-1 26.616953163569889 46.800367629055231 6.3737393224662817 0 -0.87461971476443456 -0.48480960649040278 0.5 0 0 1 I I -0.70710678118654746 0.70710678118654746 0.5 forward I I I I #
loop $-1 $-1 $161 $44 #
coedge $-1 $101 $101 $162 $163 reversed $63 $-1 #
face $-1 $-1 $164 $35 $-1 $165 forward single #
loop $-1 $166 $167 $65 #
cone-surface $-1 38.331407762288478 46.800367629055231 6.3737393224662817 0 -0.87461971476443456 -0.48480960649040278 0.5 0 0 1 I I -0.70710678118654746 0.70710678118654746 0.5 forward I I I I #
loop $-1 $-1 $168 $45 #
coedge $-1 $106 $106 $169 $170 reversed $66 $-1 #
face $-1 $171 $172 $36 $-1 $173 reversed single #
loop $-1 $-1 $174 $68 #
plane-surface $-1 26.616953163569889 -50.763950034478256 4.3917451123042639 0 -0.87461971476443456 0.48480960649040278 1 0 0 forward_v I I I I #
coedge $-1 $175 $176 $177 $178 reversed $69 $-1 #
face $-1 $-1 $179 $37 $-1 $180 forward single #
loop $-1 $181 $182 $71 #
cone-surface $-1 14.9024985648513 -46.800367629055231 6.3737393224662782 0 0.87461971476443456 -0.48480960649040278 0.5 0 0 1 I I -0.70710678118654746 0.70710678118654746 0.5 forward I I I I #
loop $-1 $-1 $183 $47 #
coedge $-1 $115 $115 $184 $185 reversed $72 $-1 #
face $-1 $-1 $186 $38 $-1 $187 forward single #
loop $-1 $188 $189 $74 #
cone-surface $-1 26.616953163569889 -46.800367629055231 6.3737393224662782 0 0.87461971476443456 -0.48480960649040278 0.5 0 0 1 I I -0.70710678118654746 0.70710678118654746 0.5 forward I I I I #
loop $-1 $-1 $190 $48 #
coedge $-1 $120 $120 $191 $192 reversed $75 $-1 #
face $-1 $-1 $193 $39 $-1 $194 forward single #
loop $-1 $195 $196 $77 #
cone-surface $-1 38.331407762288478 -46.800367629055231 6.3737393224662782 0 0.87461971476443456 -0.48480960649040278 0.5 0 0 1 I I -0.70710678118654746 0.70710678118654746 0.5 forward I I I I #
loop $-1 $-1 $197 $49 #
coedge $-1 $125 $125 $198 $199 reversed $78 $-1 #
face $-1 $200 $201 $30 $-1 $202 reversed single #
loop $-1 $-1 $203 $80 #
plane-surface $-1 0 -50.763950034478228 0 0 1 0 0 0 1 forward_v I I I I #
coedge $-1 $204 $205 $206 $207 forward $81 $-1 #
coedge $-1 $208 $83 $209 $210 forward $51 $-1 #
coedge $-1 $83 $208 $211 $212 forward $51 $-1 #
coedge $-1 $213 $214 $83 $133 reversed $215 $-1 #
edge $-1 $216 -50.763950034478228 $217 50.763950034478228 $132 $218 forward 7 unknown #
face $-1 $219 $220 $31 $-1 $221 reversed single #
loop $-1 $-1 $222 $84 #
plane-surface $-1 0 0 -10.785344735710535 0 0 1 1 0 0 forward_v I I I I #
coedge $-1 $223 $140 $224 $225 reversed $85 $-1 #
coedge $-1 $226 $87 $227 $228 reversed $54 $-1 #
coedge $-1 $87 $226 $229 $230 reversed $54 $-1 #
coedge $-1 $137 $231 $87 $141 reversed $85 $-1 #
edge $-1 $232 -50.763950034478228 $233 50.763950034478228 $140 $234 forward 7 unknown #
face $-1 $235 $236 $32 $-1 $237 reversed single #
loop $-1 $-1 $238 $88 #
plane-surface $-1 46.141044161434216 135.67961042265472 167.54359906411452 -1 0 0 0 0.87461971476443456 0.48480960649040278 forward_v I I I I #
coedge $-1 $239 $240 $241 $242 reversed $89 $-1 #
coedge $-1 $147 $91 $243 $244 reversed $57 $-1 #
coedge $-1 $91 $146 $239 $245 reversed $57 $-1 #
coedge $-1 $241 $246 $91 $149 forward $247 $-1 #
edge $-1 $248 17.075855176849132 $249 20.619885188013008 $148 $250 forward 7 unknown #
loop $-1 $-1 $155 $92 #
plane-surface $-1 26.616953163569889 1.5422487542505507 93.190048111246981 0 0.87461971476443456 0.48480960649040278 1 0 0 forward_v I I I I #
loop $-1 $-1 $251 $59 #
coedge $-1 $153 $153 $154 $252 reversed $93 $-1 #
coedge $-1 $154 $154 $153 $252 forward $95 $-1 #
coedge $-1 $155 $155 $96 $156 forward $150 $-1 #
edge $-1 $253 -2.4643484400604743e-015 $253 6.2831853071795978 $155 $254 forward 7 unknown #
loop $-1 $-1 $162 $97 #
plane-surface $-1 26.616953163569889 1.5422487542505507 93.190048111246981 0 0.87461971476443456 0.48480960649040278 1 0 0 forward_v I I I I #
loop $-1 $-1 $255 $62 #
coedge $-1 $160 $160 $161 $256 reversed $98 $-1 #
coedge $-1 $161 $161 $160 $256 forward $100 $-1 #
coedge $-1 $162 $162 $101 $163 forward $157 $-1 #
edge $-1 $257 -2.4643484400604743e-015 $257 6.2831853071795978 $162 $258 forward 7 unknown #
loop $-1 $-1 $169 $102 #
plane-surface $-1 26.616953163569889 1.5422487542505507 93.190048111246981 0 0.87461971476443456 0.48480960649040278 1 0 0 forward_v I I I I #
loop $-1 $-1 $259 $65 #
coedge $-1 $167 $167 $168 $260 reversed $103 $-1 #
coedge $-1 $168 $168 $167 $260 forward $105 $-1 #
coedge $-1 $169 $169 $106 $170 forward $164 $-1 #
edge $-1 $261 -2.4643484400604743e-015 $261 6.2831853071795978 $169 $262 forward 7 unknown #
face $-1 $263 $264 $36 $-1 $265 forward single #
loop $-1 $-1 $266 $107 #
plane-surface $-1 7.0928621657055615 -184.90131170288242 78.7452960651718 1 0 0 0 0.87461971476443456 -0.48480960649040278 forward_v I I I I #
coedge $-1 $267 $268 $269 $270 reversed $108 $-1 #
coedge $-1 $176 $110 $271 $272 reversed $69 $-1 #
coedge $-1 $110 $175 $267 $273 reversed $69 $-1 #
coedge $-1 $269 $274 $110 $178 forward $264 $-1 #
edge $-1 $275 41.686705816962984 $276 45.230735828126875 $177 $277 forward 7 unknown #
loop $-1 $-1 $184 $111 #
plane-surface $-1 26.616953163569889 -50.763950034478256 4.3917451123042639 0 -0.87461971476443456 0.48480960649040278 1 0 0 forward_v I I I I #
loop $-1 $-1 $278 $71 #
coedge $-1 $182 $182 $183 $279 reversed $112 $-1 #
coedge $-1 $183 $183 $182 $279 forward $114 $-1 #
coedge $-1 $184 $184 $115 $185 forward $179 $-1 #
edge $-1 $280 1.350024067169941e-015 $280 6.2831853071796022 $184 $281 forward 7 unknown #
loop $-1 $-1 $191 $116 #
plane-surface $-1 26.616953163569889 -50.763950034478256 4.3917451123042639 0 -0.87461971476443456 0.48480960649040278 1 0 0 forward_v I I I I #
loop $-1 $-1 $282 $74 #
coedge $-1 $189 $189 $190 $283 reversed $117 $-1 #
coedge $-1 $190 $190 $189 $283 forward $119 $-1 #
coedge $-1 $191 $191 $120 $192 forward $186 $-1 #
edge $-1 $284 1.350024067169941e-015 $284 6.2831853071796022 $191 $285 forward 7 unknown #
loop $-1 $-1 $198 $121 #
plane-surface $-1 26.616953163569889 -50.763950034478256 4.3917451123042639 0 -0.87461971476443456 0.48480960649040278 1 0 0 forward_v I I I I #
loop $-1 $-1 $286 $77 #
coedge $-1 $196 $196 $197 $287 reversed $122 $-1 #
coedge $-1 $197 $197 $196 $287 forward $124 $-1 #
coedge $-1 $198 $198 $125 $199 forward $193 $-1 #
edge $-1 $288 1.350024067169941e-015 $288 6.2831853071796022 $198 $289 forward 7 unknown #
face $-1 $290 $291 $30 $-1 $292 reversed single #
loop $-1 $-1 $293 $126 #
plane-surface $-1 -76.683248390148634 0 0 1 0 0 0 0 -1 forward_v I I I I #
coedge $-1 $294 $211 $295 $296 forward $127 $-1 #
coedge $-1 $297 $129 $294 $298 forward $81 $-1 #
coedge $-1 $129 $297 $299 $300 forward $81 $-1 #
coedge $-1 $214 $213 $129 $207 reversed $215 $-1 #
edge $-1 $301 -50.763950034478228 $302 50.763950034478228 $206 $303 forward 7 unknown #
coedge $-1 $131 $130 $304 $305 forward $51 $-1 #
coedge $-1 $306 $307 $130 $210 reversed $291 $-1 #
edge $-1 $217 -76.683248390148634 $308 76.683248390148634 $209 $309 forward 7 unknown #
coedge $-1 $203 $310 $131 $212 reversed $127 $-1 #
edge $-1 $311 -76.683248390148634 $216 76.683248390148634 $211 $312 forward 7 unknown #
coedge $-1 $206 $132 $310 $313 forward $215 $-1 #
coedge $-1 $132 $206 $306 $314 reversed $215 $-1 #
loop $-1 $-1 $213 $290 #
vertex $-1 $133 $315 #
vertex $-1 $133 $316 #
straight-curve $-1 76.683248390148634 0 10.785344735710535 0 1 0 I I #
face $-1 $317 $318 $31 $-1 $319 reversed single #
loop $-1 $-1 $224 $134 #
plane-surface $-1 0 -50.763950034478228 0 0 1 0 0 0 1 forward_v I I I I #
coedge $-1 $320 $321 $223 $322 forward $135 $-1 #
coedge $-1 $231 $137 $222 $322 reversed $85 $-1 #
coedge $-1 $229 $323 $137 $225 forward $220 $-1 #
edge $-1 $324 -6.5363955228712953 $232 -1.961502902807184 $224 $325 forward 7 unknown #
coedge $-1 $139 $138 $326 $327 reversed $54 $-1 #
coedge $-1 $328 $329 $138 $228 forward $330 $-1 #
edge $-1 $331 -41.252432951295468 $233 -29.609197926410864 $227 $332 forward 7 unknown #
coedge $-1 $333 $224 $139 $230 forward $220 $-1 #
edge $-1 $232 29.609197926410864 $334 41.252432951295468 $229 $335 forward 7 unknown #
coedge $-1 $140 $223 $328 $336 reversed $85 $-1 #
vertex $-1 $230 $337 #
vertex $-1 $228 $338 #
straight-curve $-1 -65.040013365264031 0 -6.2104521156464232 0 1 0 I I #
face $-1 $-1 $247 $32 $-1 $339 forward single #
loop $-1 $-1 $340 $142 #
plane-surface $-1 0 50.763950034478228 0 0 -1 0 0 0 -1 forward_v I I I I #
coedge $-1 $341 $342 $343 $344 reversed $143 $-1 #
coedge $-1 $345 $145 $147 $245 forward $89 $-1 #
coedge $-1 $145 $345 $341 $346 forward $89 $-1 #
coedge $-1 $343 $148 $145 $242 forward $247 $-1 #
edge $-1 $249 -6.2156144160793829 $347 32.832567579649272 $241 $348 forward 7 unknown #
coedge $-1 $349 $350 $146 $244 forward $236 $-1 #
edge $-1 $351 -79.380054419752909 $248 -72.98645479634672 $243 $352 forward 7 unknown #
edge $-1 $249 94.217751994912319 $351 101.52790006895637 $147 $353 forward 7 unknown #
coedge $-1 $148 $343 $349 $354 forward $247 $-1 #
loop $-1 $-1 $343 $235 #
vertex $-1 $244 $355 #
vertex $-1 $149 $356 #
straight-curve $-1 7.0928621657055615 67.839805211327359 10.785344735710538 0 -1 0 I I #
coedge $-1 $251 $251 $-1 $357 reversed $152 $-1 #
edge $-1 $358 0 $358 6.2831853071796004 $153 $359 forward 7 unknown #
vertex $-1 $156 $360 #
ellipse-curve $-1 14.9024985648513 48.9919350288963 7.5885449240074152 0 0.87461971476443456 0.48480960649040278 1 0 0 1 I I #
coedge $-1 $255 $255 $-1 $361 reversed $159 $-1 #
edge $-1 $362 0 $362 6.2831853071796004 $160 $363 forward 7 unknown #
vertex $-1 $163 $364 #
ellipse-curve $-1 26.616953163569889 48.9919350288963 7.5885449240074152 0 0.87461971476443456 0.48480960649040278 1 0 0 1 I I #
coedge $-1 $259 $259 $-1 $365 reversed $166 $-1 #
edge $-1 $366 0 $366 6.2831853071796004 $167 $367 forward 7 unknown #
vertex $-1 $170 $368 #
ellipse-curve $-1 38.331407762288478 48.9919350288963 7.5885449240074152 0 0.87461971476443456 0.48480960649040278 1 0 0 1 I I #
face $-1 $-1 $369 $36 $-1 $370 reversed single #
loop $-1 $-1 $177 $171 #
plane-surface $-1 0 0 10.785344735710535 0 0 1 1 0 0 forward_v I I I I #
coedge $-1 $371 $372 $373 $374 reversed $172 $-1 #
coedge $-1 $375 $174 $176 $273 forward $108 $-1 #
coedge $-1 $174 $375 $371 $376 forward $108 $-1 #
coedge $-1 $373 $177 $174 $270 forward $264 $-1 #
edge $-1 $276 -32.832567579649272 $377 6.2156144160793829 $269 $378 forward 7 unknown #
coedge $-1 $379 $380 $175 $272 forward $369 $-1 #
edge $-1 $381 -34.980902920281586 $275 -28.587303296875366 $271 $382 forward 7 unknown #
edge $-1 $276 -7.3101480740441458 $381 -5.8834582418425628e-014 $176 $383 forward 7 unknown #
coedge $-1 $177 $373 $379 $384 forward $264 $-1 #
vertex $-1 $178 $385 #
vertex $-1 $178 $386 #
straight-curve $-1 46.141044161434216 -92.450655851441212 10.785344735710538 0 1 0 I I #
coedge $-1 $278 $278 $-1 $387 reversed $181 $-1 #
edge $-1 $388 0 $388 6.2831853071796004 $182 $389 forward 7 unknown #
vertex $-1 $185 $390 #
ellipse-curve $-1 14.9024985648513 -48.991935028896293 7.588544924007409 0 -0.87461971476443456 0.48480960649040278 1 0 0 1 I I #
coedge $-1 $282 $282 $-1 $391 reversed $188 $-1 #
edge $-1 $392 0 $392 6.2831853071796004 $189 $393 forward 7 unknown #
vertex $-1 $192 $394 #
ellipse-curve $-1 26.616953163569889 -48.991935028896293 7.588544924007409 0 -0.87461971476443456 0.48480960649040278 1 0 0 1 I I #
coedge $-1 $286 $286 $-1 $395 reversed $195 $-1 #
edge $-1 $396 0 $396 6.2831853071796004 $196 $397 forward 7 unknown #
vertex $-1 $199 $398 #
ellipse-curve $-1 38.331407762288478 -48.991935028896293 7.588544924007409 0 -0.87461971476443456 0.48480960649040278 1 0 0 1 I I #
face $-1 $-1 $215 $30 $-1 $399 reversed single #
loop $-1 $-1 $306 $200 #
plane-surface $-1 0 50.763950034478228 0 0 -1 0 0 0 -1 forward_v I I I I #
coedge $-1 $400 $304 $307 $401 forward $201 $-1 #
coedge $-1 $310 $203 $204 $298 reversed $127 $-1 #
coedge $-1 $304 $400 $203 $296 reversed $201 $-1 #
edge $-1 $311 -10.785344735710535 $402 10.785344735710535 $295 $403 forward 7 unknown #
coedge $-1 $205 $204 $400 $404 forward $81 $-1 #
edge $-1 $302 -76.683248390148634 $402 76.683248390148634 $294 $405 forward 7 unknown #
coedge $-1 $307 $306 $205 $300 reversed $291 $-1 #
edge $-1 $406 -76.683248390148634 $301 76.683248390148634 $299 $407 forward 7 unknown #
vertex $-1 $207 $408 #
vertex $-1 $313 $409 #
straight-curve $-1 76.683248390148634 0 -10.785344735710535 0 -1 0 I I #
coedge $-1 $293 $295 $208 $305 reversed $201 $-1 #
edge $-1 $308 -50.763950034478228 $311 50.763950034478228 $304 $410 forward 7 unknown #
coedge $-1 $299 $209 $214 $314 forward $291 $-1 #
coedge $-1 $209 $299 $293 $401 reversed $291 $-1 #
vertex $-1 $210 $411 #
straight-curve $-1 0 50.763950034478228 10.785344735710535 -1 0 0 I I #
coedge $-1 $211 $294 $213 $313 reversed $127 $-1 #
vertex $-1 $305 $412 #
straight-curve $-1 0 -50.763950034478228 10.785344735710535 1 0 0 I I #
edge $-1 $216 -10.785344735710535 $302 10.785344735710535 $213 $413 forward 7 unknown #
edge $-1 $217 -10.785344735710535 $301 10.785344735710535 $214 $414 forward 7 unknown #
point $-1 76.683248390148634 -50.763950034478228 10.785344735710535 #
point $-1 76.683248390148634 50.763950034478228 10.785344735710535 #
face $-1 $-1 $330 $31 $-1 $415 reversed single #
loop $-1 $-1 $326 $219 #
plane-surface $-1 -76.683248390148634 0 0 1 0 0 0 0 -1 forward_v I I I I #
coedge $-1 $416 $222 $323 $417 forward $135 $-1 #
coedge $-1 $222 $416 $418 $419 forward $135 $-1 #
edge $-1 $420 -50.763950034478228 $324 50.763950034478228 $222 $421 forward 7 unknown #
coedge $-1 $224 $333 $320 $417 reversed $220 $-1 #
vertex $-1 $417 $422 #
straight-curve $-1 -65.040013365264031 -50.763950034478228 -4.2489492128392392 0 0 1 I I #
coedge $-1 $423 $424 $226 $327 forward $318 $-1 #
edge $-1 $334 -50.763950034478228 $331 50.763950034478228 $326 $425 forward 7 unknown #
coedge $-1 $418 $227 $231 $336 forward $330 $-1 #
coedge $-1 $227 $418 $423 $426 reversed $330 $-1 #
loop $-1 $-1 $328 $317 #
vertex $-1 $426 $427 #
straight-curve $-1 -35.430815438853166 50.763950034478228 -6.2104521156464232 1 0 0 I I #
coedge $-1 $323 $229 $424 $428 forward $220 $-1 #
vertex $-1 $428 $429 #
straight-curve $-1 -35.430815438853166 -50.763950034478228 -6.2104521156464232 -1 0 0 I I #
edge $-1 $233 1.961502902807184 $420 6.5363955228712953 $328 $430 forward 7 unknown #
point $-1 -65.040013365264031 -50.763950034478228 -6.2104521156464232 #
point $-1 -65.040013365264031 50.763950034478228 -6.2104521156464232 #
plane-surface $-1 0 0 10.785344735710535 0 0 1 1 0 0 forward_v I I I I #
coedge $-1 $350 $349 $342 $431 forward $236 $-1 #
coedge $-1 $342 $238 $240 $346 reversed $143 $-1 #
coedge $-1 $238 $341 $340 $431 reversed $143 $-1 #
coedge $-1 $246 $241 $238 $344 forward $247 $-1 #
edge $-1 $347 -20.619885188013008 $432 -17.075855176849132 $343 $433 forward 7 unknown #
coedge $-1 $240 $239 $350 $434 reversed $89 $-1 #
edge $-1 $435 -101.52790006895637 $347 -94.217751994912319 $341 $436 forward 7 unknown #
vertex $-1 $242 $437 #
straight-curve $-1 13.308476581784944 47.219920023314344 10.785344735710538 1 0 0 I I #
coedge $-1 $340 $243 $246 $354 reversed $236 $-1 #
coedge $-1 $243 $340 $345 $434 forward $236 $-1 #
vertex $-1 $244 $438 #
straight-curve $-1 7.0928621657055615 50.763950034478228 83.771799532057258 0 0 1 I I #
straight-curve $-1 7.0928621657055615 1.5422487542505507 93.190048111246981 0 0.48480960649040278 -0.87461971476443456 I I #
edge $-1 $432 -46.141044161434216 $248 -7.0928621657055615 $349 $439 forward 7 unknown #
point $-1 7.0928621657055615 50.763950034478228 10.785344735710535 #
point $-1 7.0928621657055615 47.219920023314351 10.785344735710538 #
edge $-1 $440 1 $440 0 $251 $-1 forward 7 unknown #
vertex $-1 $252 $441 #
ellipse-curve $-1 14.9024985648513 47.237677486437448 6.6161441257114832 0 0.87461971476443456 0.48480960649040278 1 0 0 1 I I #
point $-1 15.9024985648513 48.991935028896265 7.5885449240073983 #
edge $-1 $442 1 $442 0 $255 $-1 forward 7 unknown #
vertex $-1 $256 $443 #
ellipse-curve $-1 26.616953163569889 47.237677486437448 6.6161441257114832 0 0.87461971476443456 0.48480960649040278 1 0 0 1 I I #
point $-1 27.616953163569889 48.991935028896265 7.5885449240073983 #
edge $-1 $444 1 $444 0 $259 $-1 forward 7 unknown #
vertex $-1 $260 $445 #
ellipse-curve $-1 38.331407762288478 47.237677486437448 6.6161441257114832 0 0.87461971476443456 0.48480960649040278 1 0 0 1 I I #
point $-1 39.331407762288478 48.991935028896265 7.5885449240073983 #
loop $-1 $-1 $271 $263 #
plane-surface $-1 0 -50.763950034478228 0 0 1 0 0 0 1 forward_v I I I I #
coedge $-1 $372 $266 $268 $376 reversed $172 $-1 #
coedge $-1 $266 $371 $446 $447 reversed $172 $-1 #
coedge $-1 $274 $269 $266 $374 forward $264 $-1 #
edge $-1 $377 -45.230735828126875 $448 -41.686705816962984 $373 $449 forward 7 unknown #
coedge $-1 $268 $267 $380 $450 reversed $108 $-1 #
edge $-1 $451 5.8834582418425628e-014 $377 7.3101480740441458 $371 $452 forward 7 unknown #
vertex $-1 $270 $453 #
straight-curve $-1 13.308476581784944 -47.219920023314344 10.785344735710535 -1 0 0 I I #
coedge $-1 $446 $271 $274 $384 reversed $369 $-1 #
coedge $-1 $271 $446 $375 $450 forward $369 $-1 #
vertex $-1 $272 $454 #
straight-curve $-1 46.141044161434216 -50.763950034478228 39.3726480325859 0 0 1 I I #
straight-curve $-1 46.141044161434216 -50.763950034478256 4.3917451123042639 0 -0.48480960649040278 -0.87461971476443456 I I #
edge $-1 $448 7.0928621657055615 $275 46.141044161434216 $379 $455 forward 7 unknown #
point $-1 46.141044161434216 -50.763950034478228 10.785344735710535 #
point $-1 46.141044161434216 -47.219920023314337 10.785344735710535 #
edge $-1 $456 1 $456 0 $278 $-1 forward 7 unknown #
vertex $-1 $279 $457 #
ellipse-curve $-1 14.9024985648513 -47.237677486437448 6.6161441257114797 0 -0.87461971476443456 0.48480960649040278 1 0 0 1 I I #
point $-1 15.9024985648513 -48.991935028896265 7.5885449240073948 #
edge $-1 $458 1 $458 0 $282 $-1 forward 7 unknown #
vertex $-1 $283 $459 #
ellipse-curve $-1 26.616953163569889 -47.237677486437448 6.6161441257114797 0 -0.87461971476443456 0.48480960649040278 1 0 0 1 I I #
point $-1 27.616953163569889 -48.991935028896265 7.5885449240073948 #
edge $-1 $460 1 $460 0 $286 $-1 forward 7 unknown #
vertex $-1 $287 $461 #
ellipse-curve $-1 38.331407762288478 -47.237677486437448 6.6161441257114797 0 -0.87461971476443456 0.48480960649040278 1 0 0 1 I I #
point $-1 39.331407762288478 -48.991935028896265 7.5885449240073948 #
plane-surface $-1 76.683248390148634 0 0 -1 0 0 0 0 1 forward_v I I I I #
coedge $-1 $295 $293 $297 $404 reversed $201 $-1 #
edge $-1 $308 -10.785344735710535 $406 10.785344735710535 $307 $462 forward 7 unknown #
vertex $-1 $404 $463 #
straight-curve $-1 -76.683248390148634 -50.763950034478228 0 0 0 -1 I I #
edge $-1 $402 -50.763950034478228 $406 50.763950034478228 $400 $464 forward 7 unknown #
straight-curve $-1 0 -50.763950034478228 -10.785344735710535 -1 0 0 I I #
vertex $-1 $300 $465 #
straight-curve $-1 0 50.763950034478228 -10.785344735710535 1 0 0 I I #
point $-1 76.683248390148634 50.763950034478228 -10.785344735710535 #
point $-1 76.683248390148634 -50.763950034478228 -10.785344735710535 #
straight-curve $-1 -76.683248390148634 0 10.785344735710535 0 -1 0 I I #
point $-1 -76.683248390148634 50.763950034478228 10.785344735710535 #
point $-1 -76.683248390148634 -50.763950034478228 10.785344735710535 #
straight-curve $-1 76.683248390148634 -50.763950034478228 0 0 0 -1 I I #
straight-curve $-1 76.683248390148634 50.763950034478228 0 0 0 -1 I I #
plane-surface $-1 0 50.763950034478228 0 0 -1 0 0 0 -1 forward_v I I I I #
coedge $-1 $321 $320 $466 $467 forward $135 $-1 #
edge $-1 $324 65.040013365264031 $468 76.683248390148634 $323 $469 forward 7 unknown #
coedge $-1 $329 $328 $321 $419 reversed $330 $-1 #
edge $-1 $470 -76.683248390148634 $420 -65.040013365264031 $418 $471 forward 7 unknown #
vertex $-1 $336 $472 #
straight-curve $-1 -65.040013365264031 0 -10.785344735710535 0 -1 0 I I #
point $-1 -65.040013365264031 -50.763950034478228 -10.785344735710535 #
coedge $-1 $466 $326 $329 $426 forward $318 $-1 #
coedge $-1 $326 $466 $333 $428 reversed $318 $-1 #
straight-curve $-1 -76.683248390148634 0 -6.2104521156464232 0 1 0 I I #
edge $-1 $331 6.2104521156464232 $470 10.785344735710535 $329 $473 forward 7 unknown #
point $-1 -76.683248390148634 50.763950034478228 -6.2104521156464232 #
edge $-1 $334 6.2104521156464232 $468 10.785344735710535 $424 $474 forward 7 unknown #
point $-1 -76.683248390148634 -50.763950034478228 -6.2104521156464232 #
straight-curve $-1 -65.040013365264031 50.763950034478228 -4.2489492128392392 0 0 -1 I I #
edge $-1 $432 72.98645479634672 $435 79.380054419752909 $340 $475 forward 7 unknown #
vertex $-1 $354 $476 #
straight-curve $-1 46.141044161434216 67.839805211327359 10.785344735710538 0 1 0 I I #
edge $-1 $435 -32.832567579649272 $351 6.2156144160793829 $350 $477 forward 7 unknown #
vertex $-1 $434 $478 #
straight-curve $-1 46.141044161434216 1.5422487542505507 93.190048111246981 0 -0.48480960649040278 0.87461971476443456 I I #
point $-1 46.141044161434216 47.219920023314351 10.785344735710538 #
point $-1 7.0928621657055615 50.763950034478228 4.3917451123043492 #
straight-curve $-1 0 50.763950034478228 10.785344735710535 -1 0 0 I I #
vertex $-1 $357 $479 #
point $-1 15.9024985648513 47.237677486437448 6.6161441257114832 #
vertex $-1 $361 $480 #
point $-1 27.616953163569889 47.237677486437448 6.6161441257114832 #
vertex $-1 $365 $481 #
point $-1 39.331407762288478 47.237677486437448 6.6161441257114832 #
coedge $-1 $380 $379 $372 $447 forward $369 $-1 #
edge $-1 $448 28.587303296875366 $451 34.980902920281586 $446 $482 forward 7 unknown #
vertex $-1 $384 $483 #
straight-curve $-1 7.0928621657055615 -92.450655851441212 10.785344735710538 0 -1 0 I I #
edge $-1 $451 -6.2156144160793829 $381 32.832567579649272 $380 $484 forward 7 unknown #
vertex $-1 $450 $485 #
straight-curve $-1 7.0928621657055615 -50.763950034478256 4.3917451123042639 0 0.48480960649040278 0.87461971476443456 I I #
point $-1 7.0928621657055615 -47.219920023314337 10.785344735710535 #
point $-1 46.141044161434216 -50.763950034478228 4.3917451123043154 #
straight-curve $-1 0 -50.763950034478228 10.785344735710535 1 0 0 I I #
vertex $-1 $387 $486 #
point $-1 15.9024985648513 -47.237677486437448 6.6161441257114797 #
vertex $-1 $391 $487 #
point $-1 27.616953163569889 -47.237677486437448 6.6161441257114797 #
vertex $-1 $395 $488 #
point $-1 39.331407762288478 -47.237677486437448 6.6161441257114797 #
straight-curve $-1 -76.683248390148634 50.763950034478228 0 0 0 -1 I I #
point $-1 -76.683248390148634 -50.763950034478228 -10.785344735710535 #
straight-curve $-1 -76.683248390148634 0 -10.785344735710535 0 1 0 I I #
point $-1 -76.683248390148634 50.763950034478228 -10.785344735710535 #
coedge $-1 $424 $423 $416 $467 reversed $318 $-1 #
edge $-1 $468 -50.763950034478228 $470 50.763950034478228 $466 $489 forward 7 unknown #
vertex $-1 $467 $490 #
straight-curve $-1 0 -50.763950034478228 -10.785344735710535 -1 0 0 I I #
vertex $-1 $419 $491 #
straight-curve $-1 0 50.763950034478228 -10.785344735710535 1 0 0 I I #
point $-1 -65.040013365264031 50.763950034478228 -10.785344735710535 #
straight-curve $-1 -76.683248390148634 50.763950034478228 0 0 0 -1 I I #
straight-curve $-1 -76.683248390148634 -50.763950034478228 0 0 0 -1 I I #
straight-curve $-1 46.141044161434216 50.763950034478228 83.771799532057258 0 0 -1 I I #
point $-1 46.141044161434216 50.763950034478228 10.785344735710535 #
straight-curve $-1 13.308476581784944 50.763950034478228 4.3917451123043421 -1 0 0 I I #
point $-1 46.141044161434216 50.763950034478228 4.3917451123043492 #
point $-1 14.9024985648513 46.363057771673013 6.1313345192210802 #
point $-1 26.616953163569889 46.363057771673013 6.1313345192210802 #
point $-1 38.331407762288478 46.363057771673013 6.1313345192210802 #
straight-curve $-1 7.0928621657055615 -50.763950034478228 39.3726480325859 0 0 -1 I I #
point $-1 7.0928621657055615 -50.763950034478228 10.785344735710535 #
straight-curve $-1 13.308476581784944 -50.763950034478228 4.3917451123043163 1 0 0 I I #
point $-1 7.0928621657055615 -50.763950034478228 4.3917451123043154 #
point $-1 14.9024985648513 -46.363057771673013 6.1313345192210766 #
point $-1 26.616953163569889 -46.363057771673013 6.1313345192210766 #
point $-1 38.331407762288478 -46.363057771673013 6.1313345192210766 #
straight-curve $-1 -76.683248390148634 0 -10.785344735710535 0 1 0 I I #
point $-1 -76.683248390148634 -50.763950034478228 -10.785344735710535 #
point $-1 -76.683248390148634 50.763950034478228 -10.785344735710535 #
End-of-ACIS-data 