500 0 13 0           
7 Unknown 11 ACIS 5.0 NT 24 Fri Mar 26 20:13:33 1999 
-1 9.9999999999999995e-007 1e-010 
body $-1 $13 $-1 $14 #
body $-1 $15 $-1 $16 #
body $-1 $17 $-1 $18 #
body $-1 $19 $-1 $20 #
body $-1 $21 $-1 $22 #
body $-1 $23 $-1 $24 #
body $-1 $25 $-1 $26 #
body $-1 $27 $-1 $28 #
body $-1 $29 $-1 $30 #
body $-1 $31 $-1 $32 #
body $-1 $33 $-1 $34 #
body $-1 $35 $-1 $36 #
body $-1 $37 $-1 $38 #
lump $-1 $-1 $39 $0 #
transform $-1 1 0 0 0 1 0 0 0 1 42.920010986663414 23.724089449459751 10.912415044810706 1 rotate no_reflect no_shear #
lump $-1 $-1 $40 $1 #
transform $-1 1 0 0 0 1 0 0 0 1 42.920010986663414 23.724089449459751 10.912415044810706 1 rotate no_reflect no_shear #
lump $-1 $-1 $41 $2 #
transform $-1 1 0 0 0 1 0 0 0 1 42.920010986663414 23.724089449459751 10.912415044810706 1 rotate no_reflect no_shear #
lump $-1 $-1 $42 $3 #
transform $-1 1 0 0 0 1 0 0 0 1 42.920010986663414 23.724089449459751 10.912415044810706 1 rotate no_reflect no_shear #
lump $-1 $-1 $43 $4 #
transform $-1 1 0 0 0 1 0 0 0 1 42.920010986663414 23.724089449459751 10.912415044810706 1 rotate no_reflect no_shear #
lump $-1 $-1 $44 $5 #
transform $-1 1 0 0 0 1 0 0 0 1 42.920010986663414 23.724089449459751 10.912415044810706 1 rotate no_reflect no_shear #
lump $-1 $-1 $45 $6 #
transform $-1 1 0 0 0 1 0 0 0 1 42.920010986663414 23.724089449459751 10.912415044810706 1 rotate no_reflect no_shear #
lump $-1 $-1 $46 $7 #
transform $-1 1 0 0 0 1 0 0 0 1 42.920010986663414 23.724089449459751 10.912415044810706 1 rotate no_reflect no_shear #
lump $-1 $-1 $47 $8 #
transform $-1 1 0 0 0 1 0 0 0 1 42.920010986663414 23.724089449459751 10.912415044810706 1 rotate no_reflect no_shear #
lump $-1 $-1 $48 $9 #
transform $-1 1 0 0 0 1 0 0 0 1 42.920010986663414 23.724089449459751 10.912415044810706 1 rotate no_reflect no_shear #
lump $-1 $-1 $49 $10 #
transform $-1 1 0 0 0 1 0 0 0 1 42.920010986663414 23.724089449459751 10.912415044810706 1 rotate no_reflect no_shear #
lump $-1 $-1 $50 $11 #
transform $-1 1 0 0 0 1 0 0 0 1 42.920010986663414 23.724089449459751 10.912415044810706 1 rotate no_reflect no_shear #
lump $-1 $-1 $51 $12 #
transform $-1 1 0 0 0 1 0 0 0 1 42.920010986663414 23.724089449459751 10.912415044810706 1 rotate no_reflect no_shear #
shell $-1 $-1 $-1 $52 $-1 $13 #
shell $-1 $-1 $-1 $53 $-1 $15 #
shell $-1 $-1 $-1 $54 $-1 $17 #
shell $-1 $-1 $-1 $55 $-1 $19 #
shell $-1 $-1 $-1 $56 $-1 $21 #
shell $-1 $-1 $-1 $57 $-1 $23 #
shell $-1 $-1 $-1 $58 $-1 $25 #
shell $-1 $-1 $-1 $59 $-1 $27 #
shell $-1 $-1 $-1 $60 $-1 $29 #
shell $-1 $-1 $-1 $61 $-1 $31 #
shell $-1 $-1 $-1 $62 $-1 $33 #
shell $-1 $-1 $-1 $63 $-1 $35 #
shell $-1 $-1 $-1 $64 $-1 $37 #
face $-1 $65 $66 $39 $-1 $67 forward single #
face $-1 $68 $69 $40 $-1 $70 forward single #
face $-1 $71 $72 $41 $-1 $73 forward single #
face $-1 $74 $75 $42 $-1 $76 reversed single #
face $-1 $77 $78 $43 $-1 $79 forward single #
face $-1 $80 $81 $44 $-1 $82 reversed single #
face $-1 $83 $84 $45 $-1 $85 forward single #
face $-1 $86 $87 $46 $-1 $88 forward single #
face $-1 $89 $90 $47 $-1 $91 forward single #
face $-1 $92 $93 $48 $-1 $94 reversed single #
face $-1 $95 $96 $49 $-1 $97 forward single #
face $-1 $98 $99 $50 $-1 $100 forward single #
face $-1 $101 $102 $51 $-1 $103 forward single #
face $-1 $104 $105 $39 $-1 $106 reversed single #
loop $-1 $-1 $107 $52 #
plane-surface $-1 0 0 10.912415044810706 0 0 1 1 0 0 forward_v I I I I #
face $-1 $108 $109 $40 $-1 $110 reversed single #
loop $-1 $-1 $111 $53 #
plane-surface $-1 -42.920010986663414 0 0 1 0 0 0 0 -1 forward_v I I I I #
face $-1 $112 $113 $41 $-1 $114 reversed single #
loop $-1 $-1 $115 $54 #
plane-surface $-1 42.920010986663414 0 0 -1 0 0 0 0 1 forward_v I I I I #
face $-1 $116 $117 $42 $-1 $118 reversed single #
loop $-1 $-1 $119 $55 #
plane-surface $-1 -14.814770545006221 -95.71559011736872 50.43625295732879 -1 0 0 0 -0.83867057594974714 0.54463902268945019 forward_v I I I I #
face $-1 $120 $121 $43 $-1 $122 forward single #
loop $-1 $123 $124 $56 #
cone-surface $-1 -19.572467769540076 -20.248613575913861 6.5655511580127923 0 0.83867057594974714 -0.54463902268945019 1 0 0 1 I I 0 1 1 forward I I I I #
face $-1 $125 $126 $44 $-1 $127 reversed single #
loop $-1 $-1 $128 $57 #
plane-surface $-1 -16.455403451401626 50.871223123151736 97.895264588142552 1 0 0 0 -0.70710678939079041 -0.70710677298230451 forward_v I I I I #
face $-1 $129 $130 $45 $-1 $131 forward single #
loop $-1 $132 $133 $58 #
cone-surface $-1 -13.164322761121298 19.185528811661793 6.3738543437189774 0 -0.70710678939079041 -0.70710677298230451 1 0 0 1 I I 0 1 1 forward I I I I #
face $-1 $134 $135 $46 $-1 $136 forward single #
loop $-1 $137 $138 $59 #
cone-surface $-1 -8.2277017257008112 19.185528811661793 6.3738543437189774 0 -0.70710678939079041 -0.70710677298230451 1 0 0 1 I I 0 1 1 forward I I I I #
face $-1 $139 $140 $47 $-1 $141 forward single #
loop $-1 $142 $143 $60 #
cone-surface $-1 -3.2910806902803245 19.185528811661793 6.3738543437189774 0 -0.70710678939079041 -0.70710677298230451 1 0 0 1 I I 0 1 1 forward I I I I #
face $-1 $144 $145 $48 $-1 $146 reversed single #
loop $-1 $-1 $147 $61 #
plane-surface $-1 -8.2277017257008112 -9.8268392156422948 37.197203657853308 0 0.70710678939079041 0.70710677298230451 1 0 0 forward_v I I I I #
face $-1 $148 $149 $49 $-1 $150 forward single #
loop $-1 $151 $152 $62 #
cone-surface $-1 3.2910806902803316 19.185528811661793 6.3738543437189774 0 -0.70710678939079041 -0.70710677298230451 1 0 0 1 I I 0 1 1 forward I I I I #
face $-1 $153 $154 $50 $-1 $155 forward single #
loop $-1 $156 $157 $63 #
cone-surface $-1 8.2277017257008183 19.185528811661793 6.3738543437189774 0 -0.70710678939079041 -0.70710677298230451 1 0 0 1 I I 0 1 1 forward I I I I #
face $-1 $158 $159 $51 $-1 $160 forward single #
loop $-1 $161 $162 $64 #
cone-surface $-1 13.164322761121305 19.185528811661793 6.3738543437189774 0 -0.70710678939079041 -0.70710677298230451 1 0 0 1 I I 0 1 1 forward I I I I #
face $-1 $163 $164 $39 $-1 $165 reversed single #
loop $-1 $-1 $166 $65 #
plane-surface $-1 0 0 -10.912415044810706 0 0 1 1 0 0 forward_v I I I I #
coedge $-1 $167 $168 $169 $170 forward $66 $-1 #
face $-1 $171 $172 $40 $-1 $173 reversed single #
loop $-1 $-1 $174 $68 #
plane-surface $-1 0 0 -10.912415044810706 0 0 1 1 0 0 forward_v I I I I #
coedge $-1 $175 $176 $177 $178 forward $69 $-1 #
face $-1 $179 $180 $41 $-1 $181 reversed single #
loop $-1 $-1 $182 $71 #
plane-surface $-1 0 0 -10.912415044810706 0 0 1 1 0 0 forward_v I I I I #
coedge $-1 $183 $184 $185 $186 forward $72 $-1 #
face $-1 $187 $188 $42 $-1 $189 reversed single #
loop $-1 $-1 $190 $74 #
plane-surface $-1 -19.572467769540076 -23.724089449459754 3.6844272821351396 0 -0.83867057594974714 0.54463902268945019 1 0 0 forward_v I I I I #
coedge $-1 $191 $192 $193 $194 reversed $75 $-1 #
face $-1 $-1 $195 $43 $-1 $196 forward single #
loop $-1 $197 $198 $77 #
cone-surface $-1 -19.572467769540076 -18.700757407190419 5.5603616412079422 0 0.83867057594974714 -0.54463902268945019 0.5 0 0 1 I I -0.70710678118654746 0.70710678118654746 0.5 forward I I I I #
loop $-1 $-1 $199 $56 #
coedge $-1 $124 $124 $200 $201 reversed $78 $-1 #
face $-1 $202 $203 $44 $-1 $204 reversed single #
loop $-1 $-1 $205 $80 #
plane-surface $-1 -8.2277017257008112 -9.8268392156422948 37.197203657853308 0 0.70710678939079041 0.70710677298230451 1 0 0 forward_v I I I I #
coedge $-1 $206 $207 $208 $209 reversed $81 $-1 #
face $-1 $-1 $210 $45 $-1 $211 forward single #
loop $-1 $212 $213 $83 #
cone-surface $-1 -13.164322761121298 17.92648511016878 5.1148106714422017 0 -0.70710678939079041 -0.70710677298230451 0.5 0 0 1 I I -0.70710678118654746 0.70710678118654746 0.5 forward I I I I #
loop $-1 $-1 $214 $58 #
coedge $-1 $133 $133 $215 $216 reversed $84 $-1 #
face $-1 $-1 $217 $46 $-1 $218 forward single #
loop $-1 $219 $220 $86 #
cone-surface $-1 -8.2277017257008112 17.92648511016878 5.1148106714422017 0 -0.70710678939079041 -0.70710677298230451 0.5 0 0 1 I I -0.70710678118654746 0.70710678118654746 0.5 forward I I I I #
loop $-1 $-1 $221 $59 #
coedge $-1 $138 $138 $222 $223 reversed $87 $-1 #
face $-1 $-1 $224 $47 $-1 $225 forward single #
loop $-1 $226 $227 $89 #
cone-surface $-1 -3.2910806902803245 17.92648511016878 5.1148106714422017 0 -0.70710678939079041 -0.70710677298230451 0.5 0 0 1 I I -0.70710678118654746 0.70710678118654746 0.5 forward I I I I #
loop $-1 $-1 $228 $60 #
coedge $-1 $143 $143 $229 $230 reversed $90 $-1 #
face $-1 $231 $232 $48 $-1 $233 reversed single #
loop $-1 $-1 $234 $92 #
plane-surface $-1 16.455403451401633 50.871223123151736 97.895264588142552 -1 0 0 0 0.70710678939079041 0.70710677298230451 forward_v I I I I #
coedge $-1 $235 $236 $237 $238 reversed $93 $-1 #
face $-1 $-1 $239 $49 $-1 $240 forward single #
loop $-1 $241 $242 $95 #
cone-surface $-1 3.2910806902803316 17.92648511016878 5.1148106714422017 0 -0.70710678939079041 -0.70710677298230451 0.5 0 0 1 I I -0.70710678118654746 0.70710678118654746 0.5 forward I I I I #
loop $-1 $-1 $243 $62 #
coedge $-1 $152 $152 $244 $245 reversed $96 $-1 #
face $-1 $-1 $246 $50 $-1 $247 forward single #
loop $-1 $248 $249 $98 #
cone-surface $-1 8.2277017257008183 17.92648511016878 5.1148106714422017 0 -0.70710678939079041 -0.70710677298230451 0.5 0 0 1 I I -0.70710678118654746 0.70710678118654746 0.5 forward I I I I #
loop $-1 $-1 $250 $63 #
coedge $-1 $157 $157 $251 $252 reversed $99 $-1 #
face $-1 $-1 $253 $51 $-1 $254 forward single #
loop $-1 $255 $256 $101 #
cone-surface $-1 13.164322761121305 17.92648511016878 5.1148106714422017 0 -0.70710678939079041 -0.70710677298230451 0.5 0 0 1 I I -0.70710678118654746 0.70710678118654746 0.5 forward I I I I #
loop $-1 $-1 $257 $64 #
coedge $-1 $162 $162 $258 $259 reversed $102 $-1 #
face $-1 $260 $261 $39 $-1 $262 reversed single #
loop $-1 $-1 $263 $104 #
plane-surface $-1 0 -23.724089449459751 0 0 1 0 0 0 1 forward_v I I I I #
coedge $-1 $264 $265 $266 $267 forward $105 $-1 #
coedge $-1 $268 $107 $269 $270 forward $66 $-1 #
coedge $-1 $107 $268 $271 $272 forward $66 $-1 #
coedge $-1 $273 $274 $107 $170 reversed $275 $-1 #
edge $-1 $276 -23.724089449459751 $277 23.724089449459751 $169 $278 forward 7 unknown #
face $-1 $279 $280 $40 $-1 $281 reversed single #
loop $-1 $-1 $282 $108 #
plane-surface $-1 -47.365690310970955 -5.6528477252688489 0 0 1 0 0 0 1 forward_v I I I I #
coedge $-1 $283 $284 $176 $285 forward $109 $-1 #
coedge $-1 $286 $111 $287 $288 reversed $69 $-1 #
coedge $-1 $111 $286 $174 $285 reversed $69 $-1 #
coedge $-1 $289 $290 $111 $178 reversed $291 $-1 #
edge $-1 $292 -10.912415044810706 $293 10.912415044810706 $177 $294 forward 7 unknown #
face $-1 $295 $296 $41 $-1 $297 reversed single #
loop $-1 $-1 $185 $112 #
plane-surface $-1 47.365690310970962 -5.6528477252688489 0 0 1 0 0 0 1 forward_v I I I I #
coedge $-1 $298 $299 $184 $300 forward $113 $-1 #
coedge $-1 $301 $115 $302 $303 reversed $72 $-1 #
coedge $-1 $115 $301 $182 $300 reversed $72 $-1 #
coedge $-1 $304 $305 $115 $186 reversed $180 $-1 #
edge $-1 $306 -10.912415044810706 $307 10.912415044810706 $185 $308 forward 7 unknown #
face $-1 $309 $310 $42 $-1 $311 forward single #
loop $-1 $-1 $312 $116 #
plane-surface $-1 -24.330164994073932 -95.71559011736872 50.43625295732879 1 0 0 0 0.83867057594974714 -0.54463902268945019 forward_v I I I I #
coedge $-1 $313 $314 $315 $316 reversed $117 $-1 #
coedge $-1 $192 $119 $317 $318 reversed $75 $-1 #
coedge $-1 $119 $191 $313 $319 reversed $75 $-1 #
coedge $-1 $315 $320 $119 $194 forward $310 $-1 #
edge $-1 $321 24.133705609224609 $322 28.827615594819246 $193 $323 forward 7 unknown #
loop $-1 $-1 $200 $120 #
plane-surface $-1 -19.572467769540076 -23.724089449459754 3.6844272821351396 0 -0.83867057594974714 0.54463902268945019 1 0 0 forward_v I I I I #
loop $-1 $-1 $324 $77 #
coedge $-1 $198 $198 $199 $325 reversed $121 $-1 #
coedge $-1 $199 $199 $198 $325 forward $123 $-1 #
coedge $-1 $200 $200 $124 $201 forward $195 $-1 #
edge $-1 $326 1.3355048769757964e-015 $326 6.2831853071796022 $200 $327 forward 7 unknown #
face $-1 $328 $329 $44 $-1 $330 reversed single #
loop $-1 $-1 $331 $125 #
plane-surface $-1 3.5527136788005009e-015 50.871223123151736 97.895264588142552 -1 0 0 0 0.70710678939079041 0.70710677298230451 forward_v I I I I #
coedge $-1 $332 $333 $334 $335 reversed $126 $-1 #
coedge $-1 $207 $128 $336 $337 reversed $81 $-1 #
coedge $-1 $128 $206 $332 $338 reversed $81 $-1 #
coedge $-1 $334 $339 $128 $209 forward $340 $-1 #
edge $-1 $341 1.7115221121161177 $342 8.9776627741167907 $208 $343 forward 7 unknown #
loop $-1 $-1 $215 $129 #
plane-surface $-1 -8.2277017257008112 -9.8268392156422948 37.197203657853308 0 0.70710678939079041 0.70710677298230451 1 0 0 forward_v I I I I #
loop $-1 $-1 $344 $83 #
coedge $-1 $213 $213 $214 $345 reversed $130 $-1 #
coedge $-1 $214 $214 $213 $345 forward $132 $-1 #
coedge $-1 $215 $215 $133 $216 forward $210 $-1 #
edge $-1 $346 2.5121479047467141e-015 $346 6.2831853071796031 $215 $347 forward 7 unknown #
loop $-1 $-1 $222 $134 #
plane-surface $-1 -8.2277017257008112 -9.8268392156422948 37.197203657853308 0 0.70710678939079041 0.70710677298230451 1 0 0 forward_v I I I I #
loop $-1 $-1 $348 $86 #
coedge $-1 $220 $220 $221 $349 reversed $135 $-1 #
coedge $-1 $221 $221 $220 $349 forward $137 $-1 #
coedge $-1 $222 $222 $138 $223 forward $217 $-1 #
edge $-1 $350 2.5121479047467141e-015 $350 6.2831853071796031 $222 $351 forward 7 unknown #
loop $-1 $-1 $229 $139 #
plane-surface $-1 -8.2277017257008112 -9.8268392156422948 37.197203657853308 0 0.70710678939079041 0.70710677298230451 1 0 0 forward_v I I I I #
loop $-1 $-1 $352 $89 #
coedge $-1 $227 $227 $228 $353 reversed $140 $-1 #
coedge $-1 $228 $228 $227 $353 forward $142 $-1 #
coedge $-1 $229 $229 $143 $230 forward $224 $-1 #
edge $-1 $354 2.5121479047467141e-015 $354 6.2831853071796031 $229 $355 forward 7 unknown #
face $-1 $356 $357 $48 $-1 $358 forward single #
loop $-1 $-1 $359 $144 #
plane-surface $-1 0 23.724089449459751 0 0 -1 0 0 0 -1 forward_v I I I I #
coedge $-1 $360 $361 $362 $363 reversed $145 $-1 #
coedge $-1 $364 $147 $365 $366 reversed $93 $-1 #
coedge $-1 $147 $364 $367 $368 reversed $93 $-1 #
coedge $-1 $369 $370 $147 $238 forward $357 $-1 #
edge $-1 $371 -47.448178898919522 $372 -37.172304109381173 $237 $373 forward 7 unknown #
loop $-1 $-1 $244 $148 #
plane-surface $-1 -8.2277017257008112 -9.8268392156422948 37.197203657853308 0 0.70710678939079041 0.70710677298230451 1 0 0 forward_v I I I I #
loop $-1 $-1 $374 $95 #
coedge $-1 $242 $242 $243 $375 reversed $149 $-1 #
coedge $-1 $243 $243 $242 $375 forward $151 $-1 #
coedge $-1 $244 $244 $152 $245 forward $239 $-1 #
edge $-1 $376 2.5121479047467141e-015 $376 6.2831853071796031 $244 $377 forward 7 unknown #
loop $-1 $-1 $251 $153 #
plane-surface $-1 -8.2277017257008112 -9.8268392156422948 37.197203657853308 0 0.70710678939079041 0.70710677298230451 1 0 0 forward_v I I I I #
loop $-1 $-1 $378 $98 #
coedge $-1 $249 $249 $250 $379 reversed $154 $-1 #
coedge $-1 $250 $250 $249 $379 forward $156 $-1 #
coedge $-1 $251 $251 $157 $252 forward $246 $-1 #
edge $-1 $380 2.5121479047467141e-015 $380 6.2831853071796031 $251 $381 forward 7 unknown #
loop $-1 $-1 $258 $158 #
plane-surface $-1 -8.2277017257008112 -9.8268392156422948 37.197203657853308 0 0.70710678939079041 0.70710677298230451 1 0 0 forward_v I I I I #
loop $-1 $-1 $382 $101 #
coedge $-1 $256 $256 $257 $383 reversed $159 $-1 #
coedge $-1 $257 $257 $256 $383 forward $161 $-1 #
coedge $-1 $258 $258 $162 $259 forward $253 $-1 #
edge $-1 $384 2.5121479047467141e-015 $384 6.2831853071796031 $258 $385 forward 7 unknown #
face $-1 $386 $387 $39 $-1 $388 reversed single #
loop $-1 $-1 $389 $163 #
plane-surface $-1 -42.920010986663414 0 0 1 0 0 0 0 -1 forward_v I I I I #
coedge $-1 $390 $271 $391 $392 forward $164 $-1 #
coedge $-1 $393 $166 $390 $394 forward $105 $-1 #
coedge $-1 $166 $393 $395 $396 forward $105 $-1 #
coedge $-1 $274 $273 $166 $267 reversed $275 $-1 #
edge $-1 $397 -23.724089449459751 $398 23.724089449459751 $266 $399 forward 7 unknown #
coedge $-1 $168 $167 $400 $401 forward $66 $-1 #
coedge $-1 $402 $403 $167 $270 reversed $387 $-1 #
edge $-1 $277 -42.920010986663414 $404 42.920010986663414 $269 $405 forward 7 unknown #
coedge $-1 $263 $406 $168 $272 reversed $164 $-1 #
edge $-1 $407 -42.920010986663414 $276 42.920010986663414 $271 $408 forward 7 unknown #
coedge $-1 $266 $169 $406 $409 forward $275 $-1 #
coedge $-1 $169 $266 $402 $410 reversed $275 $-1 #
loop $-1 $-1 $273 $386 #
vertex $-1 $170 $411 #
vertex $-1 $170 $412 #
straight-curve $-1 42.920010986663414 0 10.912415044810706 0 1 0 I I #
face $-1 $413 $291 $40 $-1 $414 reversed single #
loop $-1 $-1 $415 $171 #
plane-surface $-1 -51.811369635278496 -3.7760535425535942 0 1 0 0 0 0 -1 forward_v I I I I #
coedge $-1 $416 $417 $418 $419 forward $172 $-1 #
coedge $-1 $420 $174 $416 $421 forward $109 $-1 #
coedge $-1 $174 $420 $289 $422 forward $109 $-1 #
edge $-1 $292 1.8992593598383394 $423 5.6528477252688489 $174 $424 forward 7 unknown #
coedge $-1 $176 $175 $425 $426 forward $69 $-1 #
coedge $-1 $427 $428 $175 $288 forward $429 $-1 #
edge $-1 $430 -5.6528477252688489 $293 -1.8992593598383394 $287 $431 forward 7 unknown #
coedge $-1 $432 $177 $284 $422 reversed $291 $-1 #
coedge $-1 $177 $432 $427 $433 reversed $291 $-1 #
loop $-1 $-1 $177 $279 #
vertex $-1 $285 $434 #
vertex $-1 $433 $435 #
straight-curve $-1 -42.920010986663414 -1.8992593598383394 0 0 0 1 I I #
face $-1 $436 $437 $41 $-1 $438 reversed single #
loop $-1 $-1 $439 $179 #
plane-surface $-1 47.365690310970962 -1.8992593598383394 0 0 -1 0 0 0 -1 forward_v I I I I #
coedge $-1 $440 $182 $441 $442 forward $113 $-1 #
coedge $-1 $182 $440 $304 $443 forward $113 $-1 #
edge $-1 $306 -5.6528477252688489 $444 -1.8992593598383394 $182 $445 forward 7 unknown #
coedge $-1 $184 $183 $446 $447 forward $72 $-1 #
coedge $-1 $448 $449 $183 $303 forward $450 $-1 #
edge $-1 $451 1.8992593598383394 $307 5.6528477252688489 $302 $452 forward 7 unknown #
coedge $-1 $453 $185 $299 $443 reversed $180 $-1 #
coedge $-1 $185 $453 $448 $454 reversed $180 $-1 #
vertex $-1 $300 $455 #
vertex $-1 $454 $456 #
straight-curve $-1 42.920010986663414 -5.6528477252688489 0 0 0 1 I I #
face $-1 $-1 $457 $42 $-1 $458 reversed single #
loop $-1 $-1 $193 $187 #
plane-surface $-1 0 0 10.912415044810706 0 0 1 1 0 0 forward_v I I I I #
coedge $-1 $459 $460 $461 $462 reversed $188 $-1 #
coedge $-1 $463 $190 $192 $319 forward $117 $-1 #
coedge $-1 $190 $463 $459 $464 forward $117 $-1 #
coedge $-1 $461 $193 $190 $316 forward $310 $-1 #
edge $-1 $322 5.028536660236183 $465 14.543931109303895 $315 $466 forward 7 unknown #
coedge $-1 $467 $468 $191 $318 forward $457 $-1 #
edge $-1 $469 -21.533699196529248 $321 -14.305711433853689 $317 $470 forward 7 unknown #
edge $-1 $322 -8.6183872070273573 $469 -6.4042811466935879e-015 $192 $471 forward 7 unknown #
coedge $-1 $193 $461 $467 $472 forward $310 $-1 #
vertex $-1 $194 $473 #
vertex $-1 $194 $474 #
straight-curve $-1 -14.814770545006221 -47.85779505868436 10.912415044810704 0 1 0 I I #
coedge $-1 $324 $324 $-1 $475 reversed $197 $-1 #
edge $-1 $476 0 $476 6.2831853071796004 $198 $477 forward 7 unknown #
vertex $-1 $201 $478 #
ellipse-curve $-1 -19.572467769540076 -21.377134456662436 7.2984211634729217 0 -0.83867057594974714 0.54463902268945019 1 0 0 1 I I #
face $-1 $-1 $340 $44 $-1 $479 forward single #
loop $-1 $-1 $480 $202 #
plane-surface $-1 0 23.724089449459751 0 0 -1 0 0 0 -1 forward_v I I I I #
coedge $-1 $481 $482 $483 $484 reversed $203 $-1 #
coedge $-1 $485 $205 $207 $338 forward $126 $-1 #
coedge $-1 $205 $485 $481 $486 forward $126 $-1 #
coedge $-1 $483 $208 $205 $335 forward $340 $-1 #
edge $-1 $342 -12.34155258855122 $487 4.1138508628504091 $334 $488 forward 7 unknown #
coedge $-1 $489 $490 $206 $337 forward $329 $-1 #
edge $-1 $491 -45.301358079872792 $341 -38.035217249260569 $336 $492 forward 7 unknown #
edge $-1 $342 37.172304109381173 $491 47.448178898919522 $207 $493 forward 7 unknown #
coedge $-1 $208 $483 $489 $494 forward $340 $-1 #
loop $-1 $-1 $483 $328 #
vertex $-1 $337 $495 #
vertex $-1 $209 $496 #
straight-curve $-1 -16.455403451401626 25.435611561575868 10.912415044810707 0 -1 0 I I #
coedge $-1 $344 $344 $-1 $497 reversed $212 $-1 #
edge $-1 $498 0 $498 6.2831853071796004 $213 $499 forward 7 unknown #
vertex $-1 $216 $500 #
ellipse-curve $-1 -13.164322761121298 20.09101911845941 7.2793446295045996 0 0.70710678939079041 0.70710677298230451 1 0 0 1 I I #
coedge $-1 $348 $348 $-1 $501 reversed $219 $-1 #
edge $-1 $502 0 $502 6.2831853071796004 $220 $503 forward 7 unknown #
vertex $-1 $223 $504 #
ellipse-curve $-1 -8.2277017257008112 20.09101911845941 7.2793446295045996 0 0.70710678939079041 0.70710677298230451 1 0 0 1 I I #
coedge $-1 $352 $352 $-1 $505 reversed $226 $-1 #
edge $-1 $506 0 $506 6.2831853071796004 $227 $507 forward 7 unknown #
vertex $-1 $230 $508 #
ellipse-curve $-1 -3.2910806902803245 20.09101911845941 7.2793446295045996 0 0.70710678939079041 0.70710677298230451 1 0 0 1 I I #
face $-1 $-1 $509 $48 $-1 $510 forward single #
loop $-1 $-1 $369 $231 #
plane-surface $-1 3.5527136788005009e-015 50.871223123151736 97.895264588142552 -1 0 0 0 0.70710678939079041 0.70710677298230451 forward_v I I I I #
coedge $-1 $365 $511 $361 $512 forward $232 $-1 #
coedge $-1 $361 $234 $364 $513 reversed $145 $-1 #
coedge $-1 $234 $360 $359 $512 reversed $145 $-1 #
coedge $-1 $514 $367 $234 $363 forward $509 $-1 #
edge $-1 $515 -8.9776627741167907 $516 -1.7115221121161177 $362 $517 forward 7 unknown #
coedge $-1 $236 $235 $360 $513 forward $93 $-1 #
coedge $-1 $518 $359 $235 $366 forward $232 $-1 #
edge $-1 $519 -20.569254314252039 $371 -4.1138508628504091 $365 $520 forward 7 unknown #
coedge $-1 $362 $521 $236 $368 forward $509 $-1 #
edge $-1 $372 4.1138508628504091 $515 20.569254314252039 $367 $522 forward 7 unknown #
coedge $-1 $370 $237 $521 $523 reversed $357 $-1 #
coedge $-1 $237 $369 $518 $524 reversed $357 $-1 #
vertex $-1 $366 $525 #
vertex $-1 $368 $526 #
straight-curve $-1 3.5527136788005009e-015 -9.8268392156422948 37.197203657853308 0 -0.70710677298230451 0.70710678939079041 I I #
coedge $-1 $374 $374 $-1 $527 reversed $241 $-1 #
edge $-1 $528 0 $528 6.2831853071796004 $242 $529 forward 7 unknown #
vertex $-1 $245 $530 #
ellipse-curve $-1 3.2910806902803316 20.09101911845941 7.2793446295045996 0 0.70710678939079041 0.70710677298230451 1 0 0 1 I I #
coedge $-1 $378 $378 $-1 $531 reversed $248 $-1 #
edge $-1 $532 0 $532 6.2831853071796004 $249 $533 forward 7 unknown #
vertex $-1 $252 $534 #
ellipse-curve $-1 8.2277017257008183 20.09101911845941 7.2793446295045996 0 0.70710678939079041 0.70710677298230451 1 0 0 1 I I #
coedge $-1 $382 $382 $-1 $535 reversed $255 $-1 #
edge $-1 $536 0 $536 6.2831853071796004 $256 $537 forward 7 unknown #
vertex $-1 $259 $538 #
ellipse-curve $-1 13.164322761121305 20.09101911845941 7.2793446295045996 0 0.70710678939079041 0.70710677298230451 1 0 0 1 I I #
face $-1 $-1 $275 $39 $-1 $539 reversed single #
loop $-1 $-1 $402 $260 #
plane-surface $-1 0 23.724089449459751 0 0 -1 0 0 0 -1 forward_v I I I I #
coedge $-1 $540 $400 $403 $541 forward $261 $-1 #
coedge $-1 $406 $263 $264 $394 reversed $164 $-1 #
coedge $-1 $400 $540 $263 $392 reversed $261 $-1 #
edge $-1 $407 -10.912415044810706 $542 10.912415044810706 $391 $543 forward 7 unknown #
coedge $-1 $265 $264 $540 $544 forward $105 $-1 #
edge $-1 $398 -42.920010986663414 $542 42.920010986663414 $390 $545 forward 7 unknown #
coedge $-1 $403 $402 $265 $396 reversed $387 $-1 #
edge $-1 $546 -42.920010986663414 $397 42.920010986663414 $395 $547 forward 7 unknown #
vertex $-1 $267 $548 #
vertex $-1 $409 $549 #
straight-curve $-1 42.920010986663414 0 -10.912415044810706 0 -1 0 I I #
coedge $-1 $389 $391 $268 $401 reversed $261 $-1 #
edge $-1 $404 -23.724089449459751 $407 23.724089449459751 $400 $550 forward 7 unknown #
coedge $-1 $395 $269 $274 $410 forward $387 $-1 #
coedge $-1 $269 $395 $389 $541 reversed $387 $-1 #
vertex $-1 $270 $551 #
straight-curve $-1 0 23.724089449459751 10.912415044810706 -1 0 0 I I #
coedge $-1 $271 $390 $273 $409 reversed $164 $-1 #
vertex $-1 $401 $552 #
straight-curve $-1 0 -23.724089449459751 10.912415044810706 1 0 0 I I #
edge $-1 $276 -10.912415044810706 $398 10.912415044810706 $273 $553 forward 7 unknown #
edge $-1 $277 -10.912415044810706 $397 10.912415044810706 $274 $554 forward 7 unknown #
point $-1 42.920010986663414 -23.724089449459751 10.912415044810706 #
point $-1 42.920010986663414 23.724089449459751 10.912415044810706 #
face $-1 $-1 $429 $40 $-1 $555 forward single #
plane-surface $-1 -47.365690310970955 -1.8992593598383394 0 0 -1 0 0 0 -1 forward_v I I I I #
coedge $-1 $556 $557 $432 $558 forward $280 $-1 #
coedge $-1 $425 $282 $283 $421 reversed $172 $-1 #
coedge $-1 $282 $425 $428 $559 reversed $172 $-1 #
coedge $-1 $557 $556 $282 $419 reversed $280 $-1 #
edge $-1 $560 -10.912415044810706 $561 10.912415044810706 $418 $562 forward 7 unknown #
coedge $-1 $284 $283 $556 $563 forward $109 $-1 #
edge $-1 $423 -4.445679324307541 $561 4.445679324307541 $416 $564 forward 7 unknown #
edge $-1 $565 -4.445679324307541 $292 4.445679324307541 $289 $566 forward 7 unknown #
vertex $-1 $421 $567 #
straight-curve $-1 -42.920010986663414 0 -10.912415044810706 0 -1 0 I I #
coedge $-1 $417 $416 $286 $426 reversed $172 $-1 #
edge $-1 $430 -10.912415044810706 $423 10.912415044810706 $425 $568 forward 7 unknown #
coedge $-1 $569 $287 $290 $433 forward $429 $-1 #
coedge $-1 $287 $569 $417 $559 forward $429 $-1 #
loop $-1 $-1 $287 $413 #
vertex $-1 $288 $570 #
straight-curve $-1 -42.920010986663414 0 10.912415044810706 0 1 0 I I #
coedge $-1 $290 $289 $415 $558 reversed $291 $-1 #
edge $-1 $293 -4.445679324307541 $571 4.445679324307541 $290 $572 forward 7 unknown #
point $-1 -42.920010986663414 -1.8992593598383394 -10.912415044810706 #
point $-1 -42.920010986663414 -1.8992593598383394 10.912415044810706 #
face $-1 $-1 $450 $41 $-1 $573 forward single #
loop $-1 $-1 $574 $295 #
plane-surface $-1 51.811369635278503 -3.7760535425535942 0 -1 0 0 0 0 1 forward_v I I I I #
coedge $-1 $441 $575 $576 $577 forward $296 $-1 #
coedge $-1 $299 $298 $578 $579 forward $113 $-1 #
coedge $-1 $446 $439 $298 $442 reversed $296 $-1 #
edge $-1 $444 -4.445679324307541 $580 4.445679324307541 $441 $581 forward 7 unknown #
edge $-1 $582 -4.445679324307541 $306 4.445679324307541 $304 $583 forward 7 unknown #
vertex $-1 $442 $584 #
straight-curve $-1 42.920010986663414 0 -10.912415044810706 0 1 0 I I #
coedge $-1 $575 $441 $301 $447 reversed $296 $-1 #
edge $-1 $451 -10.912415044810706 $444 10.912415044810706 $446 $585 forward 7 unknown #
coedge $-1 $586 $302 $305 $454 forward $450 $-1 #
coedge $-1 $302 $586 $575 $587 forward $450 $-1 #
loop $-1 $-1 $302 $436 #
vertex $-1 $303 $588 #
straight-curve $-1 42.920010986663414 0 10.912415044810706 0 -1 0 I I #
coedge $-1 $305 $304 $574 $589 reversed $180 $-1 #
edge $-1 $307 -4.445679324307541 $590 4.445679324307541 $305 $591 forward 7 unknown #
point $-1 42.920010986663421 -5.6528477252688489 -10.912415044810706 #
point $-1 42.920010986663421 -5.6528477252688489 10.912415044810706 #
loop $-1 $-1 $317 $309 #
plane-surface $-1 0 -23.724089449459751 0 0 1 0 0 0 1 forward_v I I I I #
coedge $-1 $460 $312 $314 $464 reversed $188 $-1 #
coedge $-1 $312 $459 $592 $593 reversed $188 $-1 #
coedge $-1 $320 $315 $312 $462 forward $310 $-1 #
edge $-1 $465 -28.827615594819246 $594 -24.133705609224609 $461 $595 forward 7 unknown #
coedge $-1 $314 $313 $468 $596 reversed $117 $-1 #
edge $-1 $597 6.4042811466935879e-015 $465 8.6183872070273573 $459 $598 forward 7 unknown #
vertex $-1 $316 $599 #
straight-curve $-1 -9.7862338847700379 -19.030179463865117 10.912415044810706 -1 0 0 I I #
coedge $-1 $592 $317 $320 $472 reversed $457 $-1 #
coedge $-1 $317 $592 $463 $596 forward $457 $-1 #
vertex $-1 $318 $600 #
straight-curve $-1 -14.814770545006221 -23.724089449459747 25.218126478664395 0 0 1 I I #
straight-curve $-1 -14.814770545006221 -23.724089449459754 3.6844272821351396 0 -0.54463902268945019 -0.83867057594974714 I I #
edge $-1 $594 -24.330164994073932 $321 -14.814770545006221 $467 $601 forward 7 unknown #
point $-1 -14.814770545006221 -23.724089449459751 10.912415044810706 #
point $-1 -14.814770545006221 -19.030179463865114 10.912415044810706 #
edge $-1 $602 1 $602 0 $324 $-1 forward 7 unknown #
vertex $-1 $325 $603 #
ellipse-curve $-1 -19.572467769540076 -19.120092695165294 5.8326811525526674 0 -0.83867057594974714 0.54463902268945019 1 0 0 1 I I #
point $-1 -18.572467769540076 -21.377134456662425 7.2984211634729164 #
plane-surface $-1 0 0 10.912415044810706 0 0 1 1 0 0 forward_v I I I I #
coedge $-1 $490 $489 $482 $604 forward $329 $-1 #
coedge $-1 $482 $331 $333 $486 reversed $203 $-1 #
coedge $-1 $331 $481 $480 $604 reversed $203 $-1 #
coedge $-1 $339 $334 $331 $484 forward $340 $-1 #
edge $-1 $487 -8.9776627741167907 $605 -1.7115221121161177 $483 $606 forward 7 unknown #
coedge $-1 $333 $332 $490 $607 reversed $126 $-1 #
edge $-1 $608 -47.448178898919522 $487 -37.172304109381173 $481 $609 forward 7 unknown #
vertex $-1 $335 $610 #
straight-curve $-1 -4.1138508628504056 16.457948787459081 10.912415044810704 1 0 0 I I #
coedge $-1 $480 $336 $339 $494 reversed $329 $-1 #
coedge $-1 $336 $480 $485 $607 forward $329 $-1 #
vertex $-1 $337 $611 #
straight-curve $-1 -16.455403451401626 23.724089449459751 48.947632294071276 0 0 1 I I #
straight-curve $-1 -16.455403451401626 -9.8268392156422948 37.197203657853308 0 0.70710677298230451 -0.70710678939079041 I I #
edge $-1 $605 -3.5527136788005009e-015 $341 16.455403451401626 $489 $612 forward 7 unknown #
point $-1 -16.455403451401626 23.724089449459751 10.912415044810706 #
point $-1 -16.455403451401626 16.457948787459078 10.912415044810707 #
edge $-1 $613 1 $613 0 $344 $-1 forward 7 unknown #
vertex $-1 $345 $614 #
ellipse-curve $-1 -13.164322761121298 18.280038504864176 5.4683640579333543 0 0.70710678939079041 0.70710677298230451 1 0 0 1 I I #
point $-1 -12.164322761121298 20.091019118459414 7.2793446295045996 #
edge $-1 $615 1 $615 0 $348 $-1 forward 7 unknown #
vertex $-1 $349 $616 #
ellipse-curve $-1 -8.2277017257008112 18.280038504864176 5.4683640579333543 0 0.70710678939079041 0.70710677298230451 1 0 0 1 I I #
point $-1 -7.2277017257008112 20.091019118459414 7.2793446295045996 #
edge $-1 $617 1 $617 0 $352 $-1 forward 7 unknown #
vertex $-1 $353 $618 #
ellipse-curve $-1 -3.2910806902803245 18.280038504864176 5.4683640579333543 0 0.70710678939079041 0.70710677298230451 1 0 0 1 I I #
point $-1 -2.2910806902803245 20.091019118459414 7.2793446295045996 #
loop $-1 $-1 $362 $356 #
plane-surface $-1 0 0 10.912415044810706 0 0 1 1 0 0 forward_v I I I I #
coedge $-1 $359 $518 $514 $619 reversed $232 $-1 #
edge $-1 $516 38.035217249260569 $519 45.301358079872792 $359 $620 forward 7 unknown #
edge $-1 $519 -47.448178898919522 $515 -37.172304109381173 $360 $621 forward 7 unknown #
coedge $-1 $521 $362 $511 $619 forward $509 $-1 #
vertex $-1 $363 $622 #
vertex $-1 $619 $623 #
straight-curve $-1 16.455403451401633 25.435611561575868 10.912415044810707 0 1 0 I I #
coedge $-1 $511 $365 $370 $524 forward $232 $-1 #
vertex $-1 $512 $624 #
straight-curve $-1 -4.1138508628504056 23.724089449459747 3.6462742141984883 -1 0 0 I I #
coedge $-1 $367 $514 $369 $523 forward $509 $-1 #
straight-curve $-1 -4.1138508628504056 16.457948787459081 10.912415044810704 1 0 0 I I #
edge $-1 $625 1.7115221121161177 $372 8.9776627741167907 $521 $626 forward 7 unknown #
edge $-1 $371 -45.301358079872792 $625 -38.035217249260569 $518 $627 forward 7 unknown #
point $-1 3.5527136788005009e-015 23.724089449459754 3.6462742141984847 #
point $-1 3.5527136788005009e-015 16.457948787459078 10.912415044810707 #
edge $-1 $628 1 $628 0 $374 $-1 forward 7 unknown #
vertex $-1 $375 $629 #
ellipse-curve $-1 3.2910806902803316 18.280038504864176 5.4683640579333543 0 0.70710678939079041 0.70710677298230451 1 0 0 1 I I #
point $-1 4.2910806902803316 20.091019118459414 7.2793446295045996 #
edge $-1 $630 1 $630 0 $378 $-1 forward 7 unknown #
vertex $-1 $379 $631 #
ellipse-curve $-1 8.2277017257008183 18.280038504864176 5.4683640579333543 0 0.70710678939079041 0.70710677298230451 1 0 0 1 I I #
point $-1 9.2277017257008183 20.091019118459414 7.2793446295045996 #
edge $-1 $632 1 $632 0 $382 $-1 forward 7 unknown #
vertex $-1 $383 $633 #
ellipse-curve $-1 13.164322761121305 18.280038504864176 5.4683640579333543 0 0.70710678939079041 0.70710677298230451 1 0 0 1 I I #
point $-1 14.164322761121305 20.091019118459414 7.2793446295045996 #
plane-surface $-1 42.920010986663414 0 0 -1 0 0 0 0 1 forward_v I I I I #
coedge $-1 $391 $389 $393 $544 reversed $261 $-1 #
edge $-1 $404 -10.912415044810706 $546 10.912415044810706 $403 $634 forward 7 unknown #
vertex $-1 $544 $635 #
straight-curve $-1 -42.920010986663414 -23.724089449459751 0 0 0 -1 I I #
edge $-1 $542 -23.724089449459751 $546 23.724089449459751 $540 $636 forward 7 unknown #
straight-curve $-1 0 -23.724089449459751 -10.912415044810706 -1 0 0 I I #
vertex $-1 $396 $637 #
straight-curve $-1 0 23.724089449459751 -10.912415044810706 1 0 0 I I #
point $-1 42.920010986663414 23.724089449459751 -10.912415044810706 #
point $-1 42.920010986663414 -23.724089449459751 -10.912415044810706 #
straight-curve $-1 -42.920010986663414 0 10.912415044810706 0 -1 0 I I #
point $-1 -42.920010986663414 23.724089449459751 10.912415044810706 #
point $-1 -42.920010986663414 -23.724089449459751 10.912415044810706 #
straight-curve $-1 42.920010986663414 -23.724089449459751 0 0 0 -1 I I #
straight-curve $-1 42.920010986663414 23.724089449459751 0 0 0 -1 I I #
plane-surface $-1 0 0 10.912415044810706 0 0 1 1 0 0 forward_v I I I I #
coedge $-1 $418 $415 $420 $563 reversed $280 $-1 #
coedge $-1 $415 $418 $569 $638 reversed $280 $-1 #
edge $-1 $571 -10.912415044810706 $565 10.912415044810706 $432 $639 forward 7 unknown #
edge $-1 $560 -4.445679324307541 $430 4.445679324307541 $417 $640 forward 7 unknown #
vertex $-1 $638 $641 #
vertex $-1 $563 $642 #
straight-curve $-1 -51.811369635278496 -5.6528477252688489 0 0 0 -1 I I #
edge $-1 $561 -1.8767941827152548 $565 1.8767941827152548 $556 $643 forward 7 unknown #
straight-curve $-1 -47.365690310970955 -5.6528477252688489 -10.912415044810706 -1 0 0 I I #
vertex $-1 $422 $644 #
straight-curve $-1 -47.365690310970955 -1.8992593598383394 -10.912415044810706 1 0 0 I I #
point $-1 -42.920010986663414 -5.6528477252688489 -10.912415044810706 #
straight-curve $-1 -42.920010986663414 -5.6528477252688489 0 0 0 -1 I I #
coedge $-1 $428 $427 $557 $638 forward $429 $-1 #
point $-1 -42.920010986663414 -5.6528477252688489 10.912415044810706 #
vertex $-1 $433 $645 #
straight-curve $-1 -47.365690310970955 -1.8992593598383394 10.912415044810706 -1 0 0 I I #
plane-surface $-1 0 0 10.912415044810706 0 0 1 1 0 0 forward_v I I I I #
coedge $-1 $578 $646 $453 $589 forward $437 $-1 #
coedge $-1 $439 $446 $449 $587 reversed $296 $-1 #
coedge $-1 $646 $578 $439 $577 reversed $437 $-1 #
edge $-1 $647 -10.912415044810706 $580 10.912415044810706 $576 $648 forward 7 unknown #
coedge $-1 $576 $574 $440 $579 reversed $437 $-1 #
edge $-1 $580 -1.8767941827152548 $582 1.8767941827152548 $578 $649 forward 7 unknown #
vertex $-1 $579 $650 #
straight-curve $-1 47.365690310970962 -1.8992593598383394 -10.912415044810706 1 0 0 I I #
vertex $-1 $589 $651 #
straight-curve $-1 47.365690310970962 -5.6528477252688489 -10.912415044810706 -1 0 0 I I #
point $-1 42.920010986663421 -1.8992593598383394 -10.912415044810706 #
straight-curve $-1 42.920010986663414 -1.8992593598383394 0 0 0 -1 I I #
coedge $-1 $449 $448 $646 $652 forward $450 $-1 #
edge $-1 $647 -4.445679324307541 $451 4.445679324307541 $575 $653 forward 7 unknown #
point $-1 42.920010986663421 -1.8992593598383394 10.912415044810706 #
edge $-1 $590 -10.912415044810706 $582 10.912415044810706 $574 $654 forward 7 unknown #
vertex $-1 $652 $655 #
straight-curve $-1 47.365690310970962 -5.6528477252688489 10.912415044810706 1 0 0 I I #
coedge $-1 $468 $467 $460 $593 forward $457 $-1 #
edge $-1 $594 14.305711433853689 $597 21.533699196529248 $592 $656 forward 7 unknown #
vertex $-1 $472 $657 #
straight-curve $-1 -24.330164994073932 -47.85779505868436 10.912415044810704 0 -1 0 I I #
edge $-1 $597 -14.543931109303895 $469 -5.028536660236183 $468 $658 forward 7 unknown #
vertex $-1 $596 $659 #
straight-curve $-1 -24.330164994073932 -23.724089449459754 3.6844272821351396 0 0.54463902268945019 0.83867057594974714 I I #
point $-1 -24.330164994073932 -19.030179463865114 10.912415044810706 #
point $-1 -14.814770545006221 -23.724089449459751 3.6844272821351449 #
straight-curve $-1 0 -23.724089449459751 10.912415044810706 1 0 0 I I #
vertex $-1 $475 $660 #
point $-1 -18.572467769540076 -19.120092695165294 5.8326811525526674 #
edge $-1 $605 38.035217249260569 $608 45.301358079872792 $480 $661 forward 7 unknown #
vertex $-1 $494 $662 #
straight-curve $-1 3.5527136788005009e-015 25.435611561575868 10.912415044810707 0 1 0 I I #
edge $-1 $608 -4.1138508628504091 $491 12.34155258855122 $490 $663 forward 7 unknown #
vertex $-1 $607 $664 #
straight-curve $-1 3.5527136788005009e-015 -9.8268392156422948 37.197203657853308 0 -0.70710677298230451 0.70710678939079041 I I #
point $-1 3.5527136788005009e-015 16.457948787459078 10.912415044810707 #
point $-1 -16.455403451401626 23.724089449459754 3.6462742141984847 #
straight-curve $-1 0 23.724089449459751 10.912415044810706 -1 0 0 I I #
vertex $-1 $497 $665 #
point $-1 -12.164322761121298 18.280038504864176 5.4683640579333543 #
vertex $-1 $501 $666 #
point $-1 -7.2277017257008112 18.280038504864176 5.4683640579333543 #
vertex $-1 $505 $667 #
point $-1 -2.2910806902803245 18.280038504864176 5.4683640579333543 #
edge $-1 $516 -16.455403451401633 $625 -3.5527136788005009e-015 $511 $668 forward 7 unknown #
straight-curve $-1 16.455403451401633 23.724089449459751 48.947632294071276 0 0 -1 I I #
straight-curve $-1 16.455403451401633 -9.8268392156422948 37.197203657853308 0 -0.70710677298230451 0.70710678939079041 I I #
point $-1 16.455403451401633 16.457948787459078 10.912415044810707 #
point $-1 16.455403451401633 23.724089449459751 10.912415044810706 #
point $-1 16.455403451401633 23.724089449459754 3.6462742141984847 #
vertex $-1 $524 $669 #
straight-curve $-1 3.5527136788005009e-015 25.435611561575868 10.912415044810707 0 -1 0 I I #
straight-curve $-1 3.5527136788005009e-015 23.724089449459751 48.947632294071276 0 0 1 I I #
vertex $-1 $527 $670 #
point $-1 4.2910806902803316 18.280038504864176 5.4683640579333543 #
vertex $-1 $531 $671 #
point $-1 9.2277017257008183 18.280038504864176 5.4683640579333543 #
vertex $-1 $535 $672 #
point $-1 14.164322761121305 18.280038504864176 5.4683640579333543 #
straight-curve $-1 -42.920010986663414 23.724089449459751 0 0 0 -1 I I #
point $-1 -42.920010986663414 -23.724089449459751 -10.912415044810706 #
straight-curve $-1 -42.920010986663414 0 -10.912415044810706 0 1 0 I I #
point $-1 -42.920010986663414 23.724089449459751 -10.912415044810706 #
edge $-1 $571 -1.8767941827152548 $560 1.8767941827152548 $557 $673 forward 7 unknown #
straight-curve $-1 -51.811369635278496 -1.8992593598383394 0 0 0 -1 I I #
straight-curve $-1 -47.365690310970955 -5.6528477252688489 10.912415044810706 1 0 0 I I #
point $-1 -51.811369635278496 -5.6528477252688489 10.912415044810706 #
point $-1 -51.811369635278496 -5.6528477252688489 -10.912415044810706 #
straight-curve $-1 -51.811369635278496 -3.7760535425535942 -10.912415044810706 0 1 0 I I #
point $-1 -51.811369635278496 -1.8992593598383394 -10.912415044810706 #
point $-1 -51.811369635278496 -1.8992593598383394 10.912415044810706 #
coedge $-1 $574 $576 $586 $652 reversed $437 $-1 #
vertex $-1 $652 $674 #
straight-curve $-1 51.811369635278503 -1.8992593598383394 0 0 0 -1 I I #
straight-curve $-1 51.811369635278503 -3.7760535425535942 -10.912415044810706 0 -1 0 I I #
point $-1 51.811369635278503 -1.8992593598383394 -10.912415044810706 #
point $-1 51.811369635278503 -5.6528477252688489 -10.912415044810706 #
edge $-1 $590 -1.8767941827152548 $647 1.8767941827152548 $646 $675 forward 7 unknown #
straight-curve $-1 47.365690310970962 -1.8992593598383394 10.912415044810706 -1 0 0 I I #
straight-curve $-1 51.811369635278503 -5.6528477252688489 0 0 0 -1 I I #
point $-1 51.811369635278503 -5.6528477252688489 10.912415044810706 #
straight-curve $-1 -24.330164994073932 -23.724089449459747 25.218126478664395 0 0 -1 I I #
point $-1 -24.330164994073932 -23.724089449459751 10.912415044810706 #
straight-curve $-1 -9.7862338847700379 -23.724089449459751 3.6844272821351494 1 0 0 I I #
point $-1 -24.330164994073932 -23.724089449459751 3.6844272821351449 #
point $-1 -19.572467769540076 -18.281422119215545 5.288042129863217 #
straight-curve $-1 3.5527136788005009e-015 23.724089449459751 48.947632294071276 0 0 -1 I I #
point $-1 3.5527136788005009e-015 23.724089449459751 10.912415044810706 #
straight-curve $-1 -4.1138508628504056 23.724089449459747 3.6462742141984883 -1 0 0 I I #
point $-1 3.5527136788005009e-015 23.724089449459754 3.6462742141984847 #
point $-1 -13.164322761121298 17.572931715473384 4.7612572849510491 #
point $-1 -8.2277017257008112 17.572931715473384 4.7612572849510491 #
point $-1 -3.2910806902803245 17.572931715473384 4.7612572849510491 #
straight-curve $-1 0 23.724089449459751 10.912415044810706 -1 0 0 I I #
point $-1 3.5527136788005009e-015 23.724089449459751 10.912415044810706 #
point $-1 3.2910806902803316 17.572931715473384 4.7612572849510491 #
point $-1 8.2277017257008183 17.572931715473384 4.7612572849510491 #
point $-1 13.164322761121305 17.572931715473384 4.7612572849510491 #
straight-curve $-1 -51.811369635278496 -3.7760535425535942 10.912415044810706 0 -1 0 I I #
point $-1 51.811369635278503 -1.8992593598383394 10.912415044810706 #
straight-curve $-1 51.811369635278503 -3.7760535425535942 10.912415044810706 0 1 0 I I #
End-of-ACIS-data 