500 0 9 0           
7 Unknown 11 ACIS 5.0 NT 24 Thu Mar 25 17:45:57 1999 
-1 9.9999999999999995e-007 1e-010 
body $-1 $9 $-1 $10 #
body $-1 $11 $-1 $12 #
body $-1 $13 $-1 $14 #
body $-1 $15 $-1 $16 #
body $-1 $17 $-1 $18 #
body $-1 $19 $-1 $20 #
body $-1 $21 $-1 $22 #
body $-1 $23 $-1 $24 #
body $-1 $25 $-1 $26 #
lump $-1 $-1 $27 $0 #
transform $-1 1 0 0 0 1 0 0 0 1 73.542283394878993 31.706875568339949 14.234468287011566 1 rotate no_reflect no_shear #
lump $-1 $-1 $28 $1 #
transform $-1 1 0 0 0 1 0 0 0 1 73.542283394878993 31.706875568339949 14.234468287011566 1 rotate no_reflect no_shear #
lump $-1 $-1 $29 $2 #
transform $-1 1 0 0 0 1 0 0 0 1 73.542283394878993 31.706875568339949 14.234468287011566 1 rotate no_reflect no_shear #
lump $-1 $-1 $30 $3 #
transform $-1 1 0 0 0 1 0 0 0 1 73.542283394878993 31.706875568339949 14.234468287011566 1 rotate no_reflect no_shear #
lump $-1 $-1 $31 $4 #
transform $-1 1 0 0 0 1 0 0 0 1 73.542283394878993 31.706875568339949 14.234468287011566 1 rotate no_reflect no_shear #
lump $-1 $-1 $32 $5 #
transform $-1 1 0 0 0 1 0 0 0 1 73.542283394878993 31.706875568339949 14.234468287011566 1 rotate no_reflect no_shear #
lump $-1 $-1 $33 $6 #
transform $-1 1 0 0 0 1 0 0 0 1 73.542283394878993 31.706875568339949 14.234468287011566 1 rotate no_reflect no_shear #
lump $-1 $-1 $34 $7 #
transform $-1 1 0 0 0 1 0 0 0 1 73.542283394878993 31.706875568339949 14.234468287011566 1 rotate no_reflect no_shear #
lump $-1 $-1 $35 $8 #
transform $-1 1 0 0 0 1 0 0 0 1 73.542283394878993 31.706875568339949 14.234468287011566 1 rotate no_reflect no_shear #
shell $-1 $-1 $-1 $36 $-1 $9 #
shell $-1 $-1 $-1 $37 $-1 $11 #
shell $-1 $-1 $-1 $38 $-1 $13 #
shell $-1 $-1 $-1 $39 $-1 $15 #
shell $-1 $-1 $-1 $40 $-1 $17 #
shell $-1 $-1 $-1 $41 $-1 $19 #
shell $-1 $-1 $-1 $42 $-1 $21 #
shell $-1 $-1 $-1 $43 $-1 $23 #
shell $-1 $-1 $-1 $44 $-1 $25 #
face $-1 $45 $46 $27 $-1 $47 forward single #
face $-1 $48 $49 $28 $-1 $50 reversed single #
face $-1 $51 $52 $29 $-1 $53 reversed single #
face $-1 $54 $55 $30 $-1 $56 reversed single #
face $-1 $57 $58 $31 $-1 $59 forward single #
face $-1 $60 $61 $32 $-1 $62 forward single #
face $-1 $63 $64 $33 $-1 $65 reversed single #
face $-1 $66 $67 $34 $-1 $68 forward single #
face $-1 $69 $70 $35 $-1 $71 forward single #
face $-1 $72 $73 $27 $-1 $74 reversed single #
loop $-1 $-1 $75 $36 #
plane-surface $-1 0 0 14.234468287011566 0 0 1 1 0 0 forward_v I I I I #
face $-1 $76 $77 $28 $-1 $78 reversed single #
loop $-1 $-1 $79 $37 #
plane-surface $-1 -71.206913111845893 -20.876837523981603 0 0 -1 0 0 0 -1 forward_v I I I I #
face $-1 $80 $81 $29 $-1 $82 reversed single #
loop $-1 $-1 $83 $38 #
plane-surface $-1 -71.206913111845893 20.876837523981603 0 0 1 0 0 0 1 forward_v I I I I #
face $-1 $84 $85 $30 $-1 $86 reversed single #
loop $-1 $-1 $87 $39 #
plane-surface $-1 -73.542283394878993 -16.3059106282576 6.7011835892709541 -0.52991927123019833 0 0.84804809178421925 0.84804809178421925 0 0.52991927123019833 forward_v I I I I #
face $-1 $88 $89 $31 $-1 $90 forward single #
loop $-1 $91 $92 $40 #
cone-surface $-1 -67.235875548114436 -18.2648792978536 10.022100536465553 0.52991927123019833 0 -0.84804809178421925 0.84804809178421925 0 0.52991927123019833 1 I I 0 1 1 forward I I I I #
face $-1 $93 $94 $32 $-1 $95 forward single #
loop $-1 $96 $97 $41 #
cone-surface $-1 -67.235875548114436 -14.346941958661599 10.022100536465553 0.52991927123019833 0 -0.84804809178421925 0.84804809178421925 0 0.52991927123019833 1 I I 0 1 1 forward I I I I #
face $-1 $98 $99 $33 $-1 $100 reversed single #
loop $-1 $-1 $101 $42 #
plane-surface $-1 -151.48522983731698 2.6645352591003757e-015 131.43596978623376 0 1 0 -0.52991927123019833 0 0.84804809178421925 forward_v I I I I #
face $-1 $102 $103 $34 $-1 $104 forward single #
loop $-1 $105 $106 $43 #
cone-surface $-1 -67.235875548114436 2.6119582261279994 10.022100536465553 0.52991927123019833 0 -0.84804809178421925 0.84804809178421925 0 0.52991927123019833 1 I I 0 1 1 forward I I I I #
face $-1 $107 $108 $35 $-1 $109 forward single #
loop $-1 $110 $111 $44 #
cone-surface $-1 -67.235875548114436 6.5298955653200075 10.022100536465553 0.52991927123019833 0 -0.84804809178421925 0.84804809178421925 0 0.52991927123019833 1 I I 0 1 1 forward I I I I #
face $-1 $112 $113 $27 $-1 $114 reversed single #
loop $-1 $-1 $115 $45 #
plane-surface $-1 0 0 -14.234468287011566 0 0 1 1 0 0 forward_v I I I I #
coedge $-1 $116 $117 $118 $119 forward $46 $-1 #
face $-1 $120 $121 $28 $-1 $122 forward single #
loop $-1 $-1 $123 $48 #
plane-surface $-1 -68.871542828812792 -26.291856546160776 0 -1 0 0 0 0 1 forward_v I I I I #
coedge $-1 $124 $125 $126 $127 forward $49 $-1 #
face $-1 $128 $129 $29 $-1 $130 reversed single #
loop $-1 $-1 $131 $51 #
plane-surface $-1 -68.871542828812792 26.291856546160776 0 -1 0 0 0 0 1 forward_v I I I I #
coedge $-1 $132 $133 $134 $135 reversed $52 $-1 #
face $-1 $136 $137 $30 $-1 $138 forward single #
loop $-1 $-1 $139 $54 #
plane-surface $-1 -151.48522983731698 -11.7349837325336 131.43596978623376 0 -1 0 0.52991927123019833 0 -0.84804809178421925 forward_v I I I I #
coedge $-1 $140 $141 $142 $143 reversed $55 $-1 #
face $-1 $-1 $144 $31 $-1 $145 forward single #
loop $-1 $146 $147 $57 #
cone-surface $-1 -66.692395764511218 -18.2648792978536 9.1523510888977384 0.52991927123019833 0 -0.84804809178421925 0.42402404589210962 0 0.26495963561509916 1 I I -0.70710678118654746 0.70710678118654746 0.5 forward I I I I #
loop $-1 $-1 $148 $40 #
coedge $-1 $92 $92 $149 $150 reversed $58 $-1 #
face $-1 $-1 $151 $32 $-1 $152 forward single #
loop $-1 $153 $154 $60 #
cone-surface $-1 -66.692395764511218 -14.346941958661599 9.1523510888977384 0.52991927123019833 0 -0.84804809178421925 0.42402404589210962 0 0.26495963561509916 1 I I -0.70710678118654746 0.70710678118654746 0.5 forward I I I I #
loop $-1 $-1 $155 $41 #
coedge $-1 $97 $97 $156 $157 reversed $61 $-1 #
face $-1 $158 $159 $33 $-1 $160 reversed single #
loop $-1 $-1 $161 $63 #
plane-surface $-1 -73.542283394878993 4.5709268957240035 6.7011835892709541 -0.52991927123019833 0 0.84804809178421925 0.84804809178421925 0 0.52991927123019833 forward_v I I I I #
coedge $-1 $162 $163 $164 $165 reversed $64 $-1 #
face $-1 $-1 $166 $34 $-1 $167 forward single #
loop $-1 $168 $169 $66 #
cone-surface $-1 -66.692395764511218 2.6119582261279994 9.1523510888977384 0.52991927123019833 0 -0.84804809178421925 0.42402404589210962 0 0.26495963561509916 1 I I -0.70710678118654746 0.70710678118654746 0.5 forward I I I I #
loop $-1 $-1 $170 $43 #
coedge $-1 $106 $106 $171 $172 reversed $67 $-1 #
face $-1 $-1 $173 $35 $-1 $174 forward single #
loop $-1 $175 $176 $69 #
cone-surface $-1 -66.692395764511218 6.5298955653200075 9.1523510888977384 0.52991927123019833 0 -0.84804809178421925 0.42402404589210962 0 0.26495963561509916 1 I I -0.70710678118654746 0.70710678118654746 0.5 forward I I I I #
loop $-1 $-1 $177 $44 #
coedge $-1 $111 $111 $178 $179 reversed $70 $-1 #
face $-1 $180 $181 $27 $-1 $182 reversed single #
loop $-1 $-1 $183 $72 #
plane-surface $-1 0 -31.706875568339949 0 0 1 0 0 0 1 forward_v I I I I #
coedge $-1 $184 $185 $186 $187 forward $73 $-1 #
coedge $-1 $188 $75 $189 $190 forward $46 $-1 #
coedge $-1 $75 $188 $191 $192 forward $46 $-1 #
coedge $-1 $193 $194 $75 $119 reversed $195 $-1 #
edge $-1 $196 -31.706875568339949 $197 31.706875568339949 $118 $198 forward 7 unknown #
face $-1 $199 $200 $28 $-1 $201 reversed single #
loop $-1 $-1 $202 $76 #
plane-surface $-1 0 0 14.234468287011566 0 0 1 1 0 0 forward_v I I I I #
coedge $-1 $203 $204 $205 $206 reversed $77 $-1 #
coedge $-1 $207 $79 $208 $209 reversed $49 $-1 #
coedge $-1 $79 $207 $210 $211 reversed $49 $-1 #
coedge $-1 $204 $203 $79 $127 reversed $77 $-1 #
edge $-1 $212 -14.234468287011566 $213 14.234468287011566 $126 $214 forward 7 unknown #
face $-1 $215 $216 $29 $-1 $217 reversed single #
loop $-1 $-1 $218 $80 #
plane-surface $-1 0 0 -14.234468287011566 0 0 1 1 0 0 forward_v I I I I #
coedge $-1 $219 $220 $221 $222 forward $81 $-1 #
coedge $-1 $221 $83 $223 $224 reversed $52 $-1 #
coedge $-1 $83 $221 $225 $226 reversed $52 $-1 #
coedge $-1 $227 $228 $83 $135 forward $216 $-1 #
edge $-1 $229 -14.234468287011566 $230 14.234468287011566 $134 $231 forward 7 unknown #
face $-1 $232 $233 $30 $-1 $234 reversed single #
loop $-1 $-1 $235 $84 #
plane-surface $-1 0 0 14.234468287011566 0 0 1 1 0 0 forward_v I I I I #
coedge $-1 $236 $237 $238 $239 reversed $85 $-1 #
coedge $-1 $240 $87 $241 $242 reversed $55 $-1 #
coedge $-1 $87 $240 $236 $243 forward $55 $-1 #
coedge $-1 $238 $235 $87 $143 forward $137 $-1 #
edge $-1 $244 -12.7238822098528 $245 -3.5820284184047999 $142 $246 forward 7 unknown #
loop $-1 $-1 $149 $88 #
plane-surface $-1 -73.542283394878993 -16.3059106282576 6.7011835892709541 -0.52991927123019833 0 0.84804809178421925 0.84804809178421925 0 0.52991927123019833 forward_v I I I I #
loop $-1 $-1 $247 $57 #
coedge $-1 $147 $147 $148 $248 reversed $89 $-1 #
coedge $-1 $148 $148 $147 $248 forward $91 $-1 #
coedge $-1 $149 $149 $92 $150 forward $144 $-1 #
edge $-1 $249 0 $249 6.2831853071796004 $149 $250 forward 7 unknown #
loop $-1 $-1 $156 $93 #
plane-surface $-1 -73.542283394878993 -16.3059106282576 6.7011835892709541 -0.52991927123019833 0 0.84804809178421925 0.84804809178421925 0 0.52991927123019833 forward_v I I I I #
loop $-1 $-1 $251 $60 #
coedge $-1 $154 $154 $155 $252 reversed $94 $-1 #
coedge $-1 $155 $155 $154 $252 forward $96 $-1 #
coedge $-1 $156 $156 $97 $157 forward $151 $-1 #
edge $-1 $253 0 $253 6.2831853071796004 $156 $254 forward 7 unknown #
face $-1 $255 $256 $33 $-1 $257 forward single #
loop $-1 $-1 $258 $98 #
plane-surface $-1 -151.48522983731698 9.1418537914480034 131.43596978623376 0 -1 0 0.52991927123019833 0 -0.84804809178421925 forward_v I I I I #
coedge $-1 $259 $260 $261 $262 reversed $99 $-1 #
coedge $-1 $163 $101 $263 $264 reversed $64 $-1 #
coedge $-1 $101 $162 $259 $265 reversed $64 $-1 #
coedge $-1 $261 $266 $101 $165 forward $256 $-1 #
edge $-1 $267 2.2003315237794965 $268 14.256106921332389 $164 $269 forward 7 unknown #
loop $-1 $-1 $171 $102 #
plane-surface $-1 -73.542283394878993 4.5709268957240035 6.7011835892709541 -0.52991927123019833 0 0.84804809178421925 0.84804809178421925 0 0.52991927123019833 forward_v I I I I #
loop $-1 $-1 $270 $66 #
coedge $-1 $169 $169 $170 $271 reversed $103 $-1 #
coedge $-1 $170 $170 $169 $271 forward $105 $-1 #
coedge $-1 $171 $171 $106 $172 forward $166 $-1 #
edge $-1 $272 0 $272 6.2831853071796004 $171 $273 forward 7 unknown #
loop $-1 $-1 $178 $107 #
plane-surface $-1 -73.542283394878993 4.5709268957240035 6.7011835892709541 -0.52991927123019833 0 0.84804809178421925 0.84804809178421925 0 0.52991927123019833 forward_v I I I I #
loop $-1 $-1 $274 $69 #
coedge $-1 $176 $176 $177 $275 reversed $108 $-1 #
coedge $-1 $177 $177 $176 $275 forward $110 $-1 #
coedge $-1 $178 $178 $111 $179 forward $173 $-1 #
edge $-1 $276 0 $276 6.2831853071796004 $178 $277 forward 7 unknown #
face $-1 $278 $279 $27 $-1 $280 reversed single #
loop $-1 $-1 $281 $112 #
plane-surface $-1 -73.542283394878993 0 0 1 0 0 0 0 -1 forward_v I I I I #
coedge $-1 $282 $191 $283 $284 forward $113 $-1 #
coedge $-1 $285 $115 $282 $286 forward $73 $-1 #
coedge $-1 $115 $285 $287 $288 forward $73 $-1 #
coedge $-1 $194 $193 $115 $187 reversed $195 $-1 #
edge $-1 $289 -31.706875568339949 $290 31.706875568339949 $186 $291 forward 7 unknown #
coedge $-1 $117 $116 $292 $293 forward $46 $-1 #
coedge $-1 $294 $295 $116 $190 reversed $279 $-1 #
edge $-1 $197 -73.542283394878993 $296 73.542283394878993 $189 $297 forward 7 unknown #
coedge $-1 $183 $298 $117 $192 reversed $113 $-1 #
edge $-1 $299 -73.542283394878993 $196 73.542283394878993 $191 $300 forward 7 unknown #
coedge $-1 $186 $118 $298 $301 forward $195 $-1 #
coedge $-1 $118 $186 $294 $302 reversed $195 $-1 #
loop $-1 $-1 $193 $278 #
vertex $-1 $119 $303 #
vertex $-1 $119 $304 #
straight-curve $-1 73.542283394878993 0 14.234468287011566 0 1 0 I I #
face $-1 $305 $306 $28 $-1 $307 reversed single #
loop $-1 $-1 $308 $120 #
plane-surface $-1 -73.542283394878993 0 0 1 0 0 0 0 -1 forward_v I I I I #
coedge $-1 $210 $309 $204 $310 forward $121 $-1 #
coedge $-1 $126 $123 $311 $312 reversed $77 $-1 #
coedge $-1 $123 $126 $202 $310 reversed $77 $-1 #
coedge $-1 $313 $314 $123 $206 forward $315 $-1 #
edge $-1 $316 -14.234468287011566 $317 14.234468287011566 $205 $318 forward 7 unknown #
coedge $-1 $125 $124 $308 $319 reversed $49 $-1 #
coedge $-1 $311 $320 $124 $209 forward $306 $-1 #
edge $-1 $321 -37.938826838956047 $213 -33.268086272889846 $208 $322 forward 7 unknown #
coedge $-1 $323 $202 $125 $211 forward $121 $-1 #
edge $-1 $212 33.268086272889846 $324 37.938826838956047 $210 $325 forward 7 unknown #
vertex $-1 $211 $326 #
vertex $-1 $209 $327 #
straight-curve $-1 -68.871542828812792 -20.876837523981603 0 0 0 -1 I I #
face $-1 $328 $329 $29 $-1 $330 forward single #
loop $-1 $-1 $134 $128 #
plane-surface $-1 -73.542283394878993 0 0 1 0 0 0 0 -1 forward_v I I I I #
coedge $-1 $223 $331 $219 $332 forward $129 $-1 #
coedge $-1 $333 $131 $218 $332 reversed $81 $-1 #
coedge $-1 $131 $333 $334 $335 reversed $81 $-1 #
coedge $-1 $133 $132 $131 $222 reversed $52 $-1 #
edge $-1 $336 -14.234468287011566 $337 14.234468287011566 $131 $338 forward 7 unknown #
coedge $-1 $339 $218 $132 $224 forward $129 $-1 #
edge $-1 $337 33.268086272889846 $229 37.938826838956047 $223 $340 forward 7 unknown #
coedge $-1 $334 $341 $133 $226 forward $329 $-1 #
edge $-1 $230 -37.938826838956047 $336 -33.268086272889846 $225 $342 forward 7 unknown #
coedge $-1 $343 $134 $341 $344 reversed $216 $-1 #
coedge $-1 $134 $343 $339 $345 reversed $216 $-1 #
vertex $-1 $345 $346 #
vertex $-1 $135 $347 #
straight-curve $-1 -73.542283394878993 20.876837523981603 0 0 0 1 I I #
face $-1 $-1 $348 $30 $-1 $349 forward single #
loop $-1 $-1 $350 $136 #
plane-surface $-1 -73.542283394878993 0 0 1 0 0 0 0 -1 forward_v I I I I #
coedge $-1 $142 $351 $352 $353 forward $137 $-1 #
coedge $-1 $237 $139 $141 $243 reversed $85 $-1 #
coedge $-1 $139 $236 $354 $355 reversed $85 $-1 #
coedge $-1 $351 $142 $139 $239 forward $137 $-1 #
edge $-1 $245 -14.256106921332389 $356 -2.2003315237794965 $238 $357 forward 7 unknown #
coedge $-1 $141 $140 $350 $358 reversed $55 $-1 #
coedge $-1 $352 $359 $140 $242 forward $348 $-1 #
edge $-1 $360 0.78529000593522114 $244 15.001200063805399 $241 $361 forward 7 unknown #
edge $-1 $362 0 $245 14.215910057870179 $236 $363 forward 7 unknown #
vertex $-1 $353 $364 #
vertex $-1 $143 $365 #
straight-curve $-1 -61.486507997326107 -8.1529553141287998 14.234468287011564 0 1 0 I I #
coedge $-1 $247 $247 $-1 $366 reversed $146 $-1 #
edge $-1 $367 0 $367 6.2831853071796004 $147 $368 forward 7 unknown #
vertex $-1 $150 $369 #
ellipse-curve $-1 -67.514395696102554 -18.2648792978536 10.467825938141258 -0.52991927123019833 0 0.84804809178421925 0.84804809178421925 0 0.52991927123019833 1 I I #
coedge $-1 $251 $251 $-1 $370 reversed $153 $-1 #
edge $-1 $371 0 $371 6.2831853071796004 $154 $372 forward 7 unknown #
vertex $-1 $157 $373 #
ellipse-curve $-1 -67.514395696102554 -14.346941958661599 10.467825938141258 -0.52991927123019833 0 0.84804809178421925 0.84804809178421925 0 0.52991927123019833 1 I I #
face $-1 $-1 $374 $33 $-1 $375 reversed single #
loop $-1 $-1 $164 $158 #
plane-surface $-1 0 0 14.234468287011566 0 0 1 1 0 0 forward_v I I I I #
coedge $-1 $376 $377 $378 $379 reversed $159 $-1 #
coedge $-1 $380 $161 $163 $265 forward $99 $-1 #
coedge $-1 $161 $380 $376 $381 forward $99 $-1 #
coedge $-1 $378 $164 $161 $262 forward $256 $-1 #
edge $-1 $268 -2.2854634478619991 $382 6.8563903435860016 $261 $383 forward 7 unknown #
coedge $-1 $384 $385 $162 $264 forward $374 $-1 #
edge $-1 $386 -59.016801303845924 $267 -51.483516606105312 $263 $387 forward 7 unknown #
edge $-1 $268 -14.215910057870179 $386 0 $163 $388 forward 7 unknown #
coedge $-1 $164 $378 $384 $389 forward $256 $-1 #
vertex $-1 $165 $390 #
vertex $-1 $165 $391 #
straight-curve $-1 -75.742614918658489 2.6645352591003757e-015 14.234468287011566 1 0 0 I I #
coedge $-1 $270 $270 $-1 $392 reversed $168 $-1 #
edge $-1 $393 0 $393 6.2831853071796004 $169 $394 forward 7 unknown #
vertex $-1 $172 $395 #
ellipse-curve $-1 -67.514395696102554 2.6119582261279994 10.467825938141258 -0.52991927123019833 0 0.84804809178421925 0.84804809178421925 0 0.52991927123019833 1 I I #
coedge $-1 $274 $274 $-1 $396 reversed $175 $-1 #
edge $-1 $397 0 $397 6.2831853071796004 $176 $398 forward 7 unknown #
vertex $-1 $179 $399 #
ellipse-curve $-1 -67.514395696102554 6.5298955653200075 10.467825938141258 -0.52991927123019833 0 0.84804809178421925 0.84804809178421925 0 0.52991927123019833 1 I I #
face $-1 $-1 $195 $27 $-1 $400 reversed single #
loop $-1 $-1 $294 $180 #
plane-surface $-1 0 31.706875568339949 0 0 -1 0 0 0 -1 forward_v I I I I #
coedge $-1 $401 $292 $295 $402 forward $181 $-1 #
coedge $-1 $298 $183 $184 $286 reversed $113 $-1 #
coedge $-1 $292 $401 $183 $284 reversed $181 $-1 #
edge $-1 $299 -14.234468287011566 $403 14.234468287011566 $283 $404 forward 7 unknown #
coedge $-1 $185 $184 $401 $405 forward $73 $-1 #
edge $-1 $290 -73.542283394878993 $403 73.542283394878993 $282 $406 forward 7 unknown #
coedge $-1 $295 $294 $185 $288 reversed $279 $-1 #
edge $-1 $407 -73.542283394878993 $289 73.542283394878993 $287 $408 forward 7 unknown #
vertex $-1 $187 $409 #
vertex $-1 $301 $410 #
straight-curve $-1 73.542283394878993 0 -14.234468287011566 0 -1 0 I I #
coedge $-1 $281 $283 $188 $293 reversed $181 $-1 #
edge $-1 $296 -31.706875568339949 $299 31.706875568339949 $292 $411 forward 7 unknown #
coedge $-1 $287 $189 $194 $302 forward $279 $-1 #
coedge $-1 $189 $287 $281 $402 reversed $279 $-1 #
vertex $-1 $190 $412 #
straight-curve $-1 0 31.706875568339949 14.234468287011566 -1 0 0 I I #
coedge $-1 $191 $282 $193 $301 reversed $113 $-1 #
vertex $-1 $293 $413 #
straight-curve $-1 0 -31.706875568339949 14.234468287011566 1 0 0 I I #
edge $-1 $196 -14.234468287011566 $290 14.234468287011566 $193 $414 forward 7 unknown #
edge $-1 $197 -14.234468287011566 $289 14.234468287011566 $194 $415 forward 7 unknown #
point $-1 73.542283394878993 -31.706875568339949 14.234468287011566 #
point $-1 73.542283394878993 31.706875568339949 14.234468287011566 #
face $-1 $-1 $315 $28 $-1 $416 reversed single #
loop $-1 $-1 $311 $199 #
plane-surface $-1 0 0 -14.234468287011566 0 0 1 1 0 0 forward_v I I I I #
coedge $-1 $417 $418 $207 $319 forward $200 $-1 #
coedge $-1 $202 $323 $313 $419 forward $121 $-1 #
edge $-1 $317 -18.56094729525956 $212 -7.7309092509012149 $202 $420 forward 7 unknown #
coedge $-1 $421 $208 $203 $312 forward $306 $-1 #
edge $-1 $213 7.7309092509012149 $316 18.56094729525956 $311 $422 forward 7 unknown #
coedge $-1 $423 $205 $309 $419 reversed $315 $-1 #
coedge $-1 $205 $423 $421 $424 reversed $315 $-1 #
loop $-1 $-1 $205 $305 #
vertex $-1 $424 $425 #
vertex $-1 $206 $426 #
straight-curve $-1 -68.871542828812792 -31.706875568339949 0 0 0 1 I I #
edge $-1 $324 -14.234468287011566 $321 14.234468287011566 $308 $427 forward 7 unknown #
coedge $-1 $208 $421 $417 $428 forward $306 $-1 #
vertex $-1 $209 $429 #
straight-curve $-1 -35.603456555922946 -20.876837523981603 -14.234468287011566 1 0 0 I I #
coedge $-1 $309 $210 $418 $430 forward $121 $-1 #
vertex $-1 $430 $431 #
straight-curve $-1 -35.603456555922946 -20.876837523981603 14.234468287011566 -1 0 0 I I #
point $-1 -68.871542828812792 -20.876837523981603 14.234468287011566 #
point $-1 -68.871542828812792 -20.876837523981603 -14.234468287011566 #
face $-1 $-1 $432 $29 $-1 $433 reversed single #
loop $-1 $-1 $334 $215 #
plane-surface $-1 0 0 14.234468287011566 0 0 1 1 0 0 forward_v I I I I #
coedge $-1 $218 $339 $434 $435 forward $129 $-1 #
edge $-1 $436 -18.56094729525956 $337 -7.7309092509012149 $218 $437 forward 7 unknown #
coedge $-1 $220 $219 $438 $439 reversed $81 $-1 #
coedge $-1 $440 $225 $220 $335 forward $329 $-1 #
edge $-1 $336 7.7309092509012149 $441 18.56094729525956 $334 $442 forward 7 unknown #
vertex $-1 $226 $443 #
vertex $-1 $224 $444 #
straight-curve $-1 -68.871542828812792 20.876837523981603 0 0 0 -1 I I #
coedge $-1 $331 $223 $228 $345 forward $129 $-1 #
straight-curve $-1 -35.603456555922946 20.876837523981603 -14.234468287011566 -1 0 0 I I #
coedge $-1 $225 $440 $227 $344 forward $329 $-1 #
straight-curve $-1 -35.603456555922946 20.876837523981603 14.234468287011566 1 0 0 I I #
coedge $-1 $228 $227 $445 $446 forward $216 $-1 #
edge $-1 $447 -31.706875568339949 $230 -20.876837523981603 $227 $448 forward 7 unknown #
edge $-1 $229 20.876837523981603 $449 31.706875568339949 $228 $450 forward 7 unknown #
point $-1 -73.542283394878993 20.876837523981603 -14.234468287011566 #
point $-1 -73.542283394878993 20.876837523981603 14.234468287011566 #
loop $-1 $-1 $241 $232 #
plane-surface $-1 -71.206913111845893 -20.876837523981603 0 0 -1 0 0 0 -1 forward_v I I I I #
coedge $-1 $451 $354 $240 $358 forward $233 $-1 #
coedge $-1 $235 $238 $452 $453 forward $137 $-1 #
coedge $-1 $359 $241 $235 $353 reversed $348 $-1 #
edge $-1 $454 -37.938826838956047 $244 -25.883051441403154 $235 $455 forward 7 unknown #
coedge $-1 $350 $452 $237 $355 forward $233 $-1 #
edge $-1 $356 51.483516606105312 $362 59.016801303845924 $354 $456 forward 7 unknown #
vertex $-1 $453 $457 #
straight-curve $-1 -75.742614918658489 -11.7349837325336 14.234468287011566 -1 0 0 I I #
edge $-1 $362 3.5820284184047999 $360 12.7238822098528 $350 $458 forward 7 unknown #
coedge $-1 $241 $352 $451 $459 reversed $348 $-1 #
vertex $-1 $459 $460 #
straight-curve $-1 -74.208247085909576 -20.876837523981603 6.2850432816214052 0.84804809178421925 0 0.52991927123019833 I I #
vertex $-1 $358 $461 #
straight-curve $-1 -73.542283394878993 -11.7349837325336 6.7011835892709541 0.84804809178421925 0 0.52991927123019833 I I #
point $-1 -61.4865079973261 -20.8768375239816 14.234468287011566 #
point $-1 -61.4865079973261 -11.7349837325336 14.234468287011566 #
edge $-1 $462 1 $462 0 $247 $-1 forward 7 unknown #
vertex $-1 $248 $463 #
ellipse-curve $-1 -66.957355400126318 -18.2648792978536 9.5763751347898474 -0.52991927123019833 0 0.84804809178421925 0.84804809178421925 0 0.52991927123019833 1 I I #
point $-1 -66.666347604318318 -18.2648792978536 10.997745209371455 #
edge $-1 $464 1 $464 0 $251 $-1 forward 7 unknown #
vertex $-1 $252 $465 #
ellipse-curve $-1 -66.957355400126318 -14.346941958661599 9.5763751347898474 -0.52991927123019833 0 0.84804809178421925 0.84804809178421925 0 0.52991927123019833 1 I I #
point $-1 -66.666347604318318 -14.346941958661599 10.997745209371455 #
loop $-1 $-1 $263 $255 #
plane-surface $-1 -73.542283394878993 0 0 1 0 0 0 0 -1 forward_v I I I I #
coedge $-1 $377 $258 $260 $381 reversed $159 $-1 #
coedge $-1 $258 $376 $466 $467 reversed $159 $-1 #
coedge $-1 $266 $261 $258 $379 forward $256 $-1 #
edge $-1 $382 -14.256106921332389 $468 -2.2003315237794965 $378 $469 forward 7 unknown #
coedge $-1 $260 $259 $385 $470 reversed $99 $-1 #
edge $-1 $471 0 $382 14.215910057870179 $376 $472 forward 7 unknown #
vertex $-1 $262 $473 #
straight-curve $-1 -61.486507997326107 2.2854634478620017 14.234468287011564 0 1 0 I I #
coedge $-1 $466 $263 $266 $389 reversed $374 $-1 #
coedge $-1 $263 $466 $380 $470 forward $374 $-1 #
vertex $-1 $264 $474 #
straight-curve $-1 -73.542283394878993 2.6645352591003757e-015 65.717984893116878 0 0 1 I I #
straight-curve $-1 -73.542283394878993 2.6645352591003757e-015 6.7011835892709541 -0.84804809178421925 0 -0.52991927123019833 I I #
edge $-1 $468 -9.1418537914480034 $267 -2.6645352591003757e-015 $384 $475 forward 7 unknown #
point $-1 -73.542283394878993 2.6645352591003757e-015 14.234468287011566 #
point $-1 -61.4865079973261 2.6645352591003757e-015 14.234468287011566 #
edge $-1 $476 1 $476 0 $270 $-1 forward 7 unknown #
vertex $-1 $271 $477 #
ellipse-curve $-1 -66.957355400126318 2.6119582261279994 9.5763751347898474 -0.52991927123019833 0 0.84804809178421925 0.84804809178421925 0 0.52991927123019833 1 I I #
point $-1 -66.666347604318318 2.6119582261279994 10.997745209371455 #
edge $-1 $478 1 $478 0 $274 $-1 forward 7 unknown #
vertex $-1 $275 $479 #
ellipse-curve $-1 -66.957355400126318 6.5298955653200075 9.5763751347898474 -0.52991927123019833 0 0.84804809178421925 0.84804809178421925 0 0.52991927123019833 1 I I #
point $-1 -66.666347604318318 6.5298955653200075 10.997745209371455 #
plane-surface $-1 73.542283394878993 0 0 -1 0 0 0 0 1 forward_v I I I I #
coedge $-1 $283 $281 $285 $405 reversed $181 $-1 #
edge $-1 $296 -14.234468287011566 $407 14.234468287011566 $295 $480 forward 7 unknown #
vertex $-1 $405 $481 #
straight-curve $-1 -73.542283394878993 -31.706875568339949 0 0 0 -1 I I #
edge $-1 $403 -31.706875568339949 $407 31.706875568339949 $401 $482 forward 7 unknown #
straight-curve $-1 0 -31.706875568339949 -14.234468287011566 -1 0 0 I I #
vertex $-1 $288 $483 #
straight-curve $-1 0 31.706875568339949 -14.234468287011566 1 0 0 I I #
point $-1 73.542283394878993 31.706875568339949 -14.234468287011566 #
point $-1 73.542283394878993 -31.706875568339949 -14.234468287011566 #
straight-curve $-1 -73.542283394878993 0 14.234468287011566 0 -1 0 I I #
point $-1 -73.542283394878993 31.706875568339949 14.234468287011566 #
point $-1 -73.542283394878993 -31.706875568339949 14.234468287011566 #
straight-curve $-1 73.542283394878993 -31.706875568339949 0 0 0 -1 I I #
straight-curve $-1 73.542283394878993 31.706875568339949 0 0 0 -1 I I #
plane-surface $-1 0 -31.706875568339949 0 0 1 0 0 0 1 forward_v I I I I #
coedge $-1 $484 $308 $320 $428 reversed $200 $-1 #
coedge $-1 $308 $484 $323 $430 reversed $200 $-1 #
edge $-1 $485 -73.542283394878993 $317 -68.871542828812792 $313 $486 forward 7 unknown #
straight-curve $-1 -68.871542828812792 -13.145928273080388 14.234468287011566 0 1 0 I I #
coedge $-1 $320 $311 $314 $424 forward $306 $-1 #
straight-curve $-1 -68.871542828812792 -13.145928273080388 -14.234468287011566 0 -1 0 I I #
coedge $-1 $314 $313 $484 $487 forward $315 $-1 #
edge $-1 $316 68.871542828812792 $488 73.542283394878993 $314 $489 forward 7 unknown #
point $-1 -68.871542828812792 -31.706875568339949 -14.234468287011566 #
point $-1 -68.871542828812792 -31.706875568339949 14.234468287011566 #
straight-curve $-1 -73.542283394878993 -20.876837523981603 0 0 0 -1 I I #
edge $-1 $488 -31.706875568339949 $321 -20.876837523981603 $417 $490 forward 7 unknown #
point $-1 -73.542283394878993 -20.876837523981603 -14.234468287011566 #
edge $-1 $324 20.876837523981603 $485 31.706875568339949 $418 $491 forward 7 unknown #
point $-1 -73.542283394878993 -20.876837523981603 14.234468287011566 #
loop $-1 $-1 $438 $328 #
plane-surface $-1 0 31.706875568339949 0 0 -1 0 0 0 -1 forward_v I I I I #
coedge $-1 $445 $438 $331 $435 reversed $432 $-1 #
edge $-1 $449 -73.542283394878993 $436 -68.871542828812792 $434 $492 forward 7 unknown #
vertex $-1 $332 $493 #
straight-curve $-1 -68.871542828812792 13.145928273080388 -14.234468287011566 0 -1 0 I I #
coedge $-1 $434 $494 $333 $439 forward $432 $-1 #
edge $-1 $441 -14.234468287011566 $436 14.234468287011566 $438 $495 forward 7 unknown #
coedge $-1 $341 $334 $494 $496 forward $329 $-1 #
vertex $-1 $496 $497 #
straight-curve $-1 -68.871542828812792 13.145928273080388 14.234468287011566 0 1 0 I I #
point $-1 -68.871542828812792 20.876837523981603 14.234468287011566 #
point $-1 -68.871542828812792 20.876837523981603 -14.234468287011566 #
coedge $-1 $494 $434 $343 $446 reversed $432 $-1 #
edge $-1 $447 -14.234468287011566 $449 14.234468287011566 $445 $498 forward 7 unknown #
vertex $-1 $496 $499 #
straight-curve $-1 -73.542283394878993 0 14.234468287011566 0 -1 0 I I #
vertex $-1 $435 $500 #
straight-curve $-1 -73.542283394878993 0 -14.234468287011566 0 1 0 I I #
coedge $-1 $452 $350 $359 $459 forward $233 $-1 #
coedge $-1 $354 $451 $351 $453 reversed $233 $-1 #
edge $-1 $356 11.7349837325336 $454 20.876837523981603 $452 $501 forward 7 unknown #
vertex $-1 $459 $502 #
straight-curve $-1 -35.603456555922946 -20.876837523981603 14.234468287011566 1 0 0 I I #
straight-curve $-1 -73.542283394878993 -11.7349837325336 65.717984893116878 0 0 -1 I I #
point $-1 -73.542283394878993 -11.7349837325336 14.234468287011566 #
straight-curve $-1 -73.542283394878993 -8.1529553141287998 6.7011835892709506 0 -1 0 I I #
edge $-1 $360 6.7011835892709541 $454 14.234468287011566 $451 $503 forward 7 unknown #
point $-1 -73.542283394878993 -20.8768375239816 6.7011835892709541 #
point $-1 -73.542283394878993 -11.7349837325336 6.7011835892709541 #
vertex $-1 $366 $504 #
point $-1 -66.109307308342096 -18.2648792978536 10.106294406020046 #
vertex $-1 $370 $505 #
point $-1 -66.109307308342096 -14.346941958661599 10.106294406020046 #
coedge $-1 $385 $384 $377 $467 forward $374 $-1 #
edge $-1 $468 51.483516606105312 $471 59.016801303845924 $466 $506 forward 7 unknown #
vertex $-1 $389 $507 #
straight-curve $-1 -75.742614918658489 9.1418537914480034 14.234468287011566 -1 0 0 I I #
edge $-1 $471 -6.8563903435860016 $386 2.2854634478619991 $385 $508 forward 7 unknown #
vertex $-1 $470 $509 #
straight-curve $-1 -73.542283394878993 9.1418537914480034 6.7011835892709541 0.84804809178421925 0 0.52991927123019833 I I #
point $-1 -61.4865079973261 9.1418537914480034 14.234468287011566 #
point $-1 -73.542283394878993 2.6645352591003757e-015 6.7011835892709541 #
straight-curve $-1 -73.542283394878993 0 14.234468287011566 0 -1 0 I I #
vertex $-1 $392 $510 #
point $-1 -66.109307308342096 2.6119582261279994 10.106294406020046 #
vertex $-1 $396 $511 #
point $-1 -66.109307308342096 6.5298955653200075 10.106294406020046 #
straight-curve $-1 -73.542283394878993 31.706875568339949 0 0 0 -1 I I #
point $-1 -73.542283394878993 -31.706875568339949 -14.234468287011566 #
straight-curve $-1 -73.542283394878993 0 -14.234468287011566 0 1 0 I I #
point $-1 -73.542283394878993 31.706875568339949 -14.234468287011566 #
coedge $-1 $418 $417 $423 $487 reversed $200 $-1 #
vertex $-1 $430 $512 #
straight-curve $-1 0 -31.706875568339949 14.234468287011566 1 0 0 I I #
edge $-1 $485 -14.234468287011566 $488 14.234468287011566 $484 $513 forward 7 unknown #
vertex $-1 $428 $514 #
straight-curve $-1 0 -31.706875568339949 -14.234468287011566 -1 0 0 I I #
straight-curve $-1 -73.542283394878993 0 -14.234468287011566 0 1 0 I I #
straight-curve $-1 -73.542283394878993 0 14.234468287011566 0 -1 0 I I #
straight-curve $-1 0 31.706875568339949 -14.234468287011566 1 0 0 I I #
point $-1 -68.871542828812792 31.706875568339949 -14.234468287011566 #
coedge $-1 $438 $445 $440 $496 reversed $432 $-1 #
straight-curve $-1 -68.871542828812792 31.706875568339949 0 0 0 -1 I I #
edge $-1 $441 68.871542828812792 $447 73.542283394878993 $494 $515 forward 7 unknown #
point $-1 -68.871542828812792 31.706875568339949 14.234468287011566 #
straight-curve $-1 -73.542283394878993 31.706875568339949 0 0 0 -1 I I #
point $-1 -73.542283394878993 31.706875568339949 14.234468287011566 #
point $-1 -73.542283394878993 31.706875568339949 -14.234468287011566 #
straight-curve $-1 -73.542283394878993 0 14.234468287011566 0 -1 0 I I #
point $-1 -73.542283394878993 -20.876837523981603 14.234468287011566 #
straight-curve $-1 -73.542283394878993 -20.876837523981603 0 0 0 1 I I #
point $-1 -66.427436128896119 -18.2648792978536 8.7283270430056294 #
point $-1 -66.427436128896119 -14.346941958661599 8.7283270430056294 #
straight-curve $-1 -73.542283394878993 9.1418537914480034 65.717984893116878 0 0 -1 I I #
point $-1 -73.542283394878993 9.1418537914480034 14.234468287011566 #
straight-curve $-1 -73.542283394878993 2.2854634478620017 6.7011835892709506 0 -1 0 I I #
point $-1 -73.542283394878993 9.1418537914480034 6.7011835892709541 #
point $-1 -66.427436128896119 2.6119582261279994 8.7283270430056294 #
point $-1 -66.427436128896119 6.5298955653200075 8.7283270430056294 #
point $-1 -73.542283394878993 -31.706875568339949 14.234468287011566 #
straight-curve $-1 -73.542283394878993 -31.706875568339949 0 0 0 -1 I I #
point $-1 -73.542283394878993 -31.706875568339949 -14.234468287011566 #
straight-curve $-1 0 31.706875568339949 14.234468287011566 -1 0 0 I I #
End-of-ACIS-data 