500 0 8 0           
7 Unknown 11 ACIS 5.0 NT 24 Thu Mar 25 15:57:18 1999 
-1 9.9999999999999995e-007 1e-010 
body $-1 $8 $-1 $9 #
body $-1 $10 $-1 $11 #
body $-1 $12 $-1 $13 #
body $-1 $14 $-1 $15 #
body $-1 $16 $-1 $17 #
body $-1 $18 $-1 $19 #
body $-1 $20 $-1 $21 #
body $-1 $22 $-1 $23 #
lump $-1 $-1 $24 $0 #
transform $-1 1 0 0 0 1 0 0 0 1 78.155461287270725 46.040571995904429 10.173832503761259 1 rotate no_reflect no_shear #
lump $-1 $-1 $25 $1 #
transform $-1 1 0 0 0 1 0 0 0 1 78.155461287270725 46.040571995904429 10.173832503761259 1 rotate no_reflect no_shear #
lump $-1 $-1 $26 $2 #
transform $-1 1 0 0 0 1 0 0 0 1 78.155461287270725 46.040571995904429 10.173832503761259 1 rotate no_reflect no_shear #
lump $-1 $-1 $27 $3 #
transform $-1 1 0 0 0 1 0 0 0 1 78.155461287270725 46.040571995904429 10.173832503761259 1 rotate no_reflect no_shear #
lump $-1 $-1 $28 $4 #
transform $-1 1 0 0 0 1 0 0 0 1 78.155461287270725 46.040571995904429 10.173832503761259 1 rotate no_reflect no_shear #
lump $-1 $-1 $29 $5 #
transform $-1 1 0 0 0 1 0 0 0 1 78.155461287270725 46.040571995904429 10.173832503761259 1 rotate no_reflect no_shear #
lump $-1 $-1 $30 $6 #
transform $-1 1 0 0 0 1 0 0 0 1 78.155461287270725 46.040571995904429 10.173832503761259 1 rotate no_reflect no_shear #
lump $-1 $-1 $31 $7 #
transform $-1 1 0 0 0 1 0 0 0 1 78.155461287270725 46.040571995904429 10.173832503761259 1 rotate no_reflect no_shear #
shell $-1 $-1 $-1 $32 $-1 $8 #
shell $-1 $-1 $-1 $33 $-1 $10 #
shell $-1 $-1 $-1 $34 $-1 $12 #
shell $-1 $-1 $-1 $35 $-1 $14 #
shell $-1 $-1 $-1 $36 $-1 $16 #
shell $-1 $-1 $-1 $37 $-1 $18 #
shell $-1 $-1 $-1 $38 $-1 $20 #
shell $-1 $-1 $-1 $39 $-1 $22 #
face $-1 $40 $41 $24 $-1 $42 forward single #
face $-1 $43 $44 $25 $-1 $45 reversed single #
face $-1 $46 $47 $26 $-1 $48 reversed single #
face $-1 $49 $50 $27 $-1 $51 forward single #
face $-1 $52 $53 $28 $-1 $54 forward single #
face $-1 $55 $56 $29 $-1 $57 reversed single #
face $-1 $58 $59 $30 $-1 $60 forward single #
face $-1 $61 $62 $31 $-1 $63 forward single #
face $-1 $64 $65 $24 $-1 $66 reversed single #
loop $-1 $-1 $67 $32 #
plane-surface $-1 0 0 10.173832503761259 0 0 1 1 0 0 forward_v I I I I #
face $-1 $68 $69 $25 $-1 $70 reversed single #
loop $-1 $-1 $71 $33 #
plane-surface $-1 -72.827551854005037 -31.186225821739427 0 0 1 0 0 0 1 forward_v I I I I #
face $-1 $72 $73 $26 $-1 $74 reversed single #
loop $-1 $-1 $75 $34 #
plane-surface $-1 -32.877758392562797 -126.54664971703224 137.87858306391414 -1 0 0 0 -0.51503808176128008 0.85716729658548041 forward_v I I I I #
face $-1 $76 $77 $27 $-1 $78 forward single #
loop $-1 $79 $80 $35 #
cone-surface $-1 -48.600665761293854 -40.420685542282065 6.37790133319643 0 0.51503808176128008 -0.85716729658548041 1.5 0 0 1 I I 0 1 1.5 forward I I I I #
face $-1 $81 $82 $28 $-1 $83 forward single #
loop $-1 $84 $85 $36 #
cone-surface $-1 -39.166921340055211 -40.420685542282065 6.37790133319643 0 0.51503808176128008 -0.85716729658548041 1.5 0 0 1 I I 0 1 1.5 forward I I I I #
face $-1 $86 $87 $29 $-1 $88 reversed single #
loop $-1 $-1 $89 $37 #
plane-surface $-1 39.949793461442241 -126.54664971703224 137.87858306391414 -1 0 0 0 -0.51503808176128008 0.85716729658548041 forward_v I I I I #
face $-1 $90 $91 $30 $-1 $92 forward single #
loop $-1 $93 $94 $38 #
cone-surface $-1 24.226886092711183 -40.420685542282065 6.37790133319643 0 0.51503808176128008 -0.85716729658548041 1.5 0 0 1 I I 0 1 1.5 forward I I I I #
face $-1 $95 $96 $31 $-1 $97 forward single #
loop $-1 $98 $99 $39 #
cone-surface $-1 33.660630513949826 -40.420685542282065 6.37790133319643 0 0.51503808176128008 -0.85716729658548041 1.5 0 0 1 I I 0 1 1.5 forward I I I I #
face $-1 $100 $101 $24 $-1 $102 reversed single #
loop $-1 $-1 $103 $40 #
plane-surface $-1 0 0 -10.173832503761259 0 0 1 1 0 0 forward_v I I I I #
coedge $-1 $104 $105 $106 $107 forward $41 $-1 #
face $-1 $108 $109 $25 $-1 $110 reversed single #
loop $-1 $-1 $111 $43 #
plane-surface $-1 -72.827551854005037 -27.166930135189254 0 0 -1 0 0 0 -1 forward_v I I I I #
coedge $-1 $112 $113 $114 $115 reversed $44 $-1 #
face $-1 $116 $117 $26 $-1 $118 reversed single #
loop $-1 $-1 $119 $46 #
plane-surface $-1 -43.88379355067454 -46.040571995904443 3.8939721339120865 0 -0.51503808176128008 0.85716729658548041 1 0 0 forward_v I I I I #
coedge $-1 $120 $121 $122 $123 reversed $47 $-1 #
face $-1 $-1 $124 $27 $-1 $125 forward single #
loop $-1 $126 $127 $49 #
cone-surface $-1 -48.600665761293854 -39.640241815510265 5.079024875117069 0 0.51503808176128008 -0.85716729658548041 0.75 0 0 1 I I -0.70710678118654757 0.70710678118654757 0.75 forward I I I I #
loop $-1 $-1 $128 $35 #
coedge $-1 $80 $80 $129 $130 reversed $50 $-1 #
face $-1 $-1 $131 $28 $-1 $132 forward single #
loop $-1 $133 $134 $52 #
cone-surface $-1 -39.166921340055211 -39.640241815510265 5.079024875117069 0 0.51503808176128008 -0.85716729658548041 0.75 0 0 1 I I -0.70710678118654757 0.70710678118654757 0.75 forward I I I I #
loop $-1 $-1 $135 $36 #
coedge $-1 $85 $85 $136 $137 reversed $53 $-1 #
face $-1 $138 $139 $29 $-1 $140 reversed single #
loop $-1 $-1 $141 $55 #
plane-surface $-1 28.943758303330497 -46.040571995904443 3.8939721339120865 0 -0.51503808176128008 0.85716729658548041 1 0 0 forward_v I I I I #
coedge $-1 $142 $143 $144 $145 reversed $56 $-1 #
face $-1 $-1 $146 $30 $-1 $147 forward single #
loop $-1 $148 $149 $58 #
cone-surface $-1 24.226886092711183 -39.640241815510265 5.079024875117069 0 0.51503808176128008 -0.85716729658548041 0.75 0 0 1 I I -0.70710678118654757 0.70710678118654757 0.75 forward I I I I #
loop $-1 $-1 $150 $38 #
coedge $-1 $94 $94 $151 $152 reversed $59 $-1 #
face $-1 $-1 $153 $31 $-1 $154 forward single #
loop $-1 $155 $156 $61 #
cone-surface $-1 33.660630513949826 -39.640241815510265 5.079024875117069 0 0.51503808176128008 -0.85716729658548041 0.75 0 0 1 I I -0.70710678118654757 0.70710678118654757 0.75 forward I I I I #
loop $-1 $-1 $157 $39 #
coedge $-1 $99 $99 $158 $159 reversed $62 $-1 #
face $-1 $160 $161 $24 $-1 $162 reversed single #
loop $-1 $-1 $163 $64 #
plane-surface $-1 0 -46.040571995904429 0 0 1 0 0 0 1 forward_v I I I I #
coedge $-1 $164 $165 $166 $167 forward $65 $-1 #
coedge $-1 $168 $67 $169 $170 forward $41 $-1 #
coedge $-1 $67 $168 $171 $172 forward $41 $-1 #
coedge $-1 $173 $174 $67 $107 reversed $175 $-1 #
edge $-1 $176 -46.040571995904429 $177 46.040571995904429 $106 $178 forward 7 unknown #
face $-1 $179 $180 $25 $-1 $181 reversed single #
loop $-1 $-1 $182 $68 #
plane-surface $-1 -67.499642420739349 -29.176577978464341 0 -1 0 0 0 0 1 forward_v I I I I #
coedge $-1 $183 $184 $185 $186 forward $69 $-1 #
coedge $-1 $187 $71 $188 $189 reversed $44 $-1 #
coedge $-1 $71 $187 $190 $191 reversed $44 $-1 #
coedge $-1 $192 $193 $71 $115 forward $194 $-1 #
edge $-1 $195 -10.173832503761259 $196 10.173832503761259 $114 $197 forward 7 unknown #
face $-1 $198 $199 $26 $-1 $200 reversed single #
loop $-1 $-1 $201 $72 #
plane-surface $-1 -54.889828708786283 -126.54664971703224 137.87858306391414 1 0 0 0 0.51503808176128008 -0.85716729658548041 forward_v I I I I #
coedge $-1 $202 $203 $204 $205 reversed $73 $-1 #
coedge $-1 $121 $75 $206 $207 reversed $47 $-1 #
coedge $-1 $75 $120 $202 $208 reversed $47 $-1 #
coedge $-1 $204 $209 $75 $123 forward $210 $-1 #
edge $-1 $211 17.23275286261169 $212 27.68419543895476 $122 $213 forward 7 unknown #
loop $-1 $-1 $129 $76 #
plane-surface $-1 -43.88379355067454 -46.040571995904443 3.8939721339120865 0 -0.51503808176128008 0.85716729658548041 1 0 0 forward_v I I I I #
loop $-1 $-1 $214 $49 #
coedge $-1 $127 $127 $128 $215 reversed $77 $-1 #
coedge $-1 $128 $128 $127 $215 forward $79 $-1 #
coedge $-1 $129 $129 $80 $130 forward $124 $-1 #
edge $-1 $216 1.8297828381764705e-015 $216 6.2831853071796022 $129 $217 forward 7 unknown #
loop $-1 $-1 $136 $81 #
plane-surface $-1 -43.88379355067454 -46.040571995904443 3.8939721339120865 0 -0.51503808176128008 0.85716729658548041 1 0 0 forward_v I I I I #
loop $-1 $-1 $218 $52 #
coedge $-1 $134 $134 $135 $219 reversed $82 $-1 #
coedge $-1 $135 $135 $134 $219 forward $84 $-1 #
coedge $-1 $136 $136 $85 $137 forward $131 $-1 #
edge $-1 $220 1.8297828381764705e-015 $220 6.2831853071796022 $136 $221 forward 7 unknown #
face $-1 $222 $223 $29 $-1 $224 reversed single #
loop $-1 $-1 $225 $86 #
plane-surface $-1 17.937723145218751 -126.54664971703224 137.87858306391414 1 0 0 0 0.51503808176128008 -0.85716729658548041 forward_v I I I I #
coedge $-1 $226 $227 $228 $229 reversed $87 $-1 #
coedge $-1 $143 $89 $230 $231 reversed $56 $-1 #
coedge $-1 $89 $142 $226 $232 reversed $56 $-1 #
coedge $-1 $228 $233 $89 $145 forward $234 $-1 #
edge $-1 $235 17.23275286261169 $236 27.68419543895476 $144 $237 forward 7 unknown #
loop $-1 $-1 $151 $90 #
plane-surface $-1 28.943758303330497 -46.040571995904443 3.8939721339120865 0 -0.51503808176128008 0.85716729658548041 1 0 0 forward_v I I I I #
loop $-1 $-1 $238 $58 #
coedge $-1 $149 $149 $150 $239 reversed $91 $-1 #
coedge $-1 $150 $150 $149 $239 forward $93 $-1 #
coedge $-1 $151 $151 $94 $152 forward $146 $-1 #
edge $-1 $240 1.8297828381764705e-015 $240 6.2831853071796022 $151 $241 forward 7 unknown #
loop $-1 $-1 $158 $95 #
plane-surface $-1 28.943758303330497 -46.040571995904443 3.8939721339120865 0 -0.51503808176128008 0.85716729658548041 1 0 0 forward_v I I I I #
loop $-1 $-1 $242 $61 #
coedge $-1 $156 $156 $157 $243 reversed $96 $-1 #
coedge $-1 $157 $157 $156 $243 forward $98 $-1 #
coedge $-1 $158 $158 $99 $159 forward $153 $-1 #
edge $-1 $244 1.8297828381764705e-015 $244 6.2831853071796022 $158 $245 forward 7 unknown #
face $-1 $246 $247 $24 $-1 $248 reversed single #
loop $-1 $-1 $249 $100 #
plane-surface $-1 -78.155461287270725 0 0 1 0 0 0 0 -1 forward_v I I I I #
coedge $-1 $250 $171 $251 $252 forward $101 $-1 #
coedge $-1 $253 $103 $250 $254 forward $65 $-1 #
coedge $-1 $103 $253 $255 $256 forward $65 $-1 #
coedge $-1 $174 $173 $103 $167 reversed $175 $-1 #
edge $-1 $257 -46.040571995904429 $258 46.040571995904429 $166 $259 forward 7 unknown #
coedge $-1 $105 $104 $260 $261 forward $41 $-1 #
coedge $-1 $262 $263 $104 $170 reversed $247 $-1 #
edge $-1 $177 -78.155461287270725 $264 78.155461287270725 $169 $265 forward 7 unknown #
coedge $-1 $163 $266 $105 $172 reversed $101 $-1 #
edge $-1 $267 -78.155461287270725 $176 78.155461287270725 $171 $268 forward 7 unknown #
coedge $-1 $166 $106 $266 $269 forward $175 $-1 #
coedge $-1 $106 $166 $262 $270 reversed $175 $-1 #
loop $-1 $-1 $173 $246 #
vertex $-1 $107 $271 #
vertex $-1 $107 $272 #
straight-curve $-1 78.155461287270725 0 10.173832503761259 0 1 0 I I #
face $-1 $273 $274 $25 $-1 $275 forward single #
loop $-1 $-1 $276 $108 #
plane-surface $-1 0 0 -10.173832503761259 0 0 1 1 0 0 forward_v I I I I #
coedge $-1 $277 $278 $187 $279 forward $109 $-1 #
coedge $-1 $280 $111 $276 $281 reversed $69 $-1 #
coedge $-1 $111 $280 $282 $283 reversed $69 $-1 #
coedge $-1 $278 $277 $111 $186 reversed $109 $-1 #
edge $-1 $284 -10.173832503761259 $285 10.173832503761259 $185 $286 forward 7 unknown #
coedge $-1 $113 $112 $182 $279 reversed $44 $-1 #
coedge $-1 $287 $288 $112 $189 forward $180 $-1 #
edge $-1 $289 31.08586649373683 $195 41.741685360268207 $188 $290 forward 7 unknown #
coedge $-1 $291 $292 $113 $191 forward $274 $-1 #
edge $-1 $196 -41.741685360268207 $293 -31.08586649373683 $190 $294 forward 7 unknown #
coedge $-1 $295 $114 $292 $296 reversed $194 $-1 #
coedge $-1 $114 $295 $287 $297 reversed $194 $-1 #
loop $-1 $-1 $295 $273 #
vertex $-1 $297 $298 #
vertex $-1 $115 $299 #
straight-curve $-1 -78.155461287270725 -31.186225821739427 0 0 0 1 I I #
face $-1 $-1 $210 $26 $-1 $300 forward single #
loop $-1 $-1 $301 $116 #
plane-surface $-1 0 -46.040571995904429 0 0 1 0 0 0 1 forward_v I I I I #
coedge $-1 $302 $303 $304 $305 reversed $117 $-1 #
coedge $-1 $306 $119 $121 $208 forward $73 $-1 #
coedge $-1 $119 $306 $302 $307 forward $73 $-1 #
coedge $-1 $304 $122 $119 $205 forward $210 $-1 #
edge $-1 $212 10.935861617225527 $308 32.947931933449013 $204 $309 forward 7 unknown #
coedge $-1 $310 $311 $120 $207 forward $199 $-1 #
edge $-1 $312 -65.045319398044967 $211 -58.765459028195806 $206 $313 forward 7 unknown #
edge $-1 $212 -12.193002017198189 $312 -1.6526814159067847e-014 $121 $314 forward 7 unknown #
coedge $-1 $122 $304 $310 $315 forward $210 $-1 #
loop $-1 $-1 $304 $198 #
vertex $-1 $207 $316 #
vertex $-1 $123 $317 #
straight-curve $-1 -32.877758392562797 -63.273324858516119 10.173832503761261 0 1 0 I I #
coedge $-1 $214 $214 $-1 $318 reversed $126 $-1 #
edge $-1 $319 0 $319 6.2831853071796004 $127 $320 forward 7 unknown #
vertex $-1 $130 $321 #
ellipse-curve $-1 -48.600665761293854 -40.814850707732901 7.0339023188366747 0 -0.51503808176128008 0.85716729658548041 1.5 0 0 1 I I #
coedge $-1 $218 $218 $-1 $322 reversed $133 $-1 #
edge $-1 $323 0 $323 6.2831853071796004 $134 $324 forward 7 unknown #
vertex $-1 $137 $325 #
ellipse-curve $-1 -39.166921340055211 -40.814850707732901 7.0339023188366747 0 -0.51503808176128008 0.85716729658548041 1.5 0 0 1 I I #
face $-1 $-1 $234 $29 $-1 $326 forward single #
loop $-1 $-1 $327 $138 #
plane-surface $-1 0 -46.040571995904429 0 0 1 0 0 0 1 forward_v I I I I #
coedge $-1 $328 $329 $330 $331 reversed $139 $-1 #
coedge $-1 $332 $141 $143 $232 forward $87 $-1 #
coedge $-1 $141 $332 $328 $333 forward $87 $-1 #
coedge $-1 $330 $144 $141 $229 forward $234 $-1 #
edge $-1 $236 -25.477914309776992 $334 -3.4658439935535021 $228 $335 forward 7 unknown #
coedge $-1 $336 $337 $142 $231 forward $223 $-1 #
edge $-1 $338 -65.045319398044967 $235 -58.765459028195806 $230 $339 forward 7 unknown #
edge $-1 $236 -12.193002017198189 $338 -1.6526814159067847e-014 $143 $340 forward 7 unknown #
coedge $-1 $144 $330 $336 $341 forward $234 $-1 #
loop $-1 $-1 $330 $222 #
vertex $-1 $231 $342 #
vertex $-1 $145 $343 #
straight-curve $-1 39.949793461442241 -63.273324858516119 10.173832503761261 0 1 0 I I #
coedge $-1 $238 $238 $-1 $344 reversed $148 $-1 #
edge $-1 $345 0 $345 6.2831853071796004 $149 $346 forward 7 unknown #
vertex $-1 $152 $347 #
ellipse-curve $-1 24.226886092711183 -40.814850707732901 7.0339023188366747 0 -0.51503808176128008 0.85716729658548041 1.5 0 0 1 I I #
coedge $-1 $242 $242 $-1 $348 reversed $155 $-1 #
edge $-1 $349 0 $349 6.2831853071796004 $156 $350 forward 7 unknown #
vertex $-1 $159 $351 #
ellipse-curve $-1 33.660630513949826 -40.814850707732901 7.0339023188366747 0 -0.51503808176128008 0.85716729658548041 1.5 0 0 1 I I #
face $-1 $-1 $175 $24 $-1 $352 reversed single #
loop $-1 $-1 $262 $160 #
plane-surface $-1 0 46.040571995904429 0 0 -1 0 0 0 -1 forward_v I I I I #
coedge $-1 $353 $260 $263 $354 forward $161 $-1 #
coedge $-1 $266 $163 $164 $254 reversed $101 $-1 #
coedge $-1 $260 $353 $163 $252 reversed $161 $-1 #
edge $-1 $267 -10.173832503761259 $355 10.173832503761259 $251 $356 forward 7 unknown #
coedge $-1 $165 $164 $353 $357 forward $65 $-1 #
edge $-1 $258 -78.155461287270725 $355 78.155461287270725 $250 $358 forward 7 unknown #
coedge $-1 $263 $262 $165 $256 reversed $247 $-1 #
edge $-1 $359 -78.155461287270725 $257 78.155461287270725 $255 $360 forward 7 unknown #
vertex $-1 $167 $361 #
vertex $-1 $269 $362 #
straight-curve $-1 78.155461287270725 0 -10.173832503761259 0 -1 0 I I #
coedge $-1 $249 $251 $168 $261 reversed $161 $-1 #
edge $-1 $264 -46.040571995904429 $267 46.040571995904429 $260 $363 forward 7 unknown #
coedge $-1 $255 $169 $174 $270 forward $247 $-1 #
coedge $-1 $169 $255 $249 $354 reversed $247 $-1 #
vertex $-1 $170 $364 #
straight-curve $-1 0 46.040571995904429 10.173832503761259 -1 0 0 I I #
coedge $-1 $171 $250 $173 $269 reversed $101 $-1 #
vertex $-1 $261 $365 #
straight-curve $-1 0 -46.040571995904429 10.173832503761259 1 0 0 I I #
edge $-1 $176 -10.173832503761259 $258 10.173832503761259 $173 $366 forward 7 unknown #
edge $-1 $177 -10.173832503761259 $257 10.173832503761259 $174 $367 forward 7 unknown #
point $-1 78.155461287270725 -46.040571995904429 10.173832503761259 #
point $-1 78.155461287270725 46.040571995904429 10.173832503761259 #
face $-1 $-1 $194 $25 $-1 $368 reversed single #
loop $-1 $-1 $282 $179 #
plane-surface $-1 0 0 10.173832503761259 0 0 1 1 0 0 forward_v I I I I #
coedge $-1 $288 $287 $183 $281 forward $180 $-1 #
coedge $-1 $185 $182 $288 $369 reversed $109 $-1 #
coedge $-1 $182 $185 $291 $370 reversed $109 $-1 #
edge $-1 $293 -10.173832503761259 $289 10.173832503761259 $182 $371 forward 7 unknown #
coedge $-1 $184 $183 $295 $372 reversed $69 $-1 #
edge $-1 $373 -41.741685360268207 $285 -31.08586649373683 $276 $374 forward 7 unknown #
coedge $-1 $292 $291 $184 $283 forward $274 $-1 #
edge $-1 $284 31.08586649373683 $375 41.741685360268207 $282 $376 forward 7 unknown #
vertex $-1 $283 $377 #
vertex $-1 $281 $378 #
straight-curve $-1 -67.499642420739349 -27.166930135189254 0 0 0 -1 I I #
coedge $-1 $276 $188 $193 $297 forward $180 $-1 #
coedge $-1 $188 $276 $277 $369 forward $180 $-1 #
vertex $-1 $189 $379 #
straight-curve $-1 -36.413775927002519 -31.186225821739427 -10.173832503761259 -1 0 0 I I #
coedge $-1 $282 $190 $278 $370 forward $274 $-1 #
coedge $-1 $190 $282 $192 $296 forward $274 $-1 #
vertex $-1 $191 $380 #
straight-curve $-1 -36.413775927002519 -31.186225821739427 10.173832503761259 1 0 0 I I #
coedge $-1 $193 $192 $280 $372 forward $194 $-1 #
edge $-1 $375 27.166930135189254 $196 31.186225821739427 $192 $381 forward 7 unknown #
edge $-1 $195 -31.186225821739427 $373 -27.166930135189254 $193 $382 forward 7 unknown #
point $-1 -78.155461287270725 -31.186225821739427 -10.173832503761259 #
point $-1 -78.155461287270725 -31.186225821739427 10.173832503761259 #
plane-surface $-1 0 0 10.173832503761259 0 0 1 1 0 0 forward_v I I I I #
coedge $-1 $311 $310 $303 $383 forward $199 $-1 #
coedge $-1 $303 $201 $203 $307 reversed $117 $-1 #
coedge $-1 $201 $302 $301 $383 reversed $117 $-1 #
coedge $-1 $209 $204 $201 $305 forward $210 $-1 #
edge $-1 $308 -27.68419543895476 $384 -17.23275286261169 $304 $385 forward 7 unknown #
coedge $-1 $203 $202 $311 $386 reversed $73 $-1 #
edge $-1 $387 1.6526814159067847e-014 $308 12.193002017198189 $302 $388 forward 7 unknown #
vertex $-1 $205 $389 #
straight-curve $-1 -21.94189677533727 -35.58912941956136 10.173832503761259 -1 0 0 I I #
coedge $-1 $301 $206 $209 $315 reversed $199 $-1 #
coedge $-1 $206 $301 $306 $386 forward $199 $-1 #
vertex $-1 $207 $390 #
straight-curve $-1 -32.877758392562797 -46.040571995904429 68.939291531957068 0 0 1 I I #
straight-curve $-1 -32.877758392562797 -46.040571995904443 3.8939721339120865 0 -0.85716729658548041 -0.51503808176128008 I I #
edge $-1 $384 -54.889828708786283 $211 -32.877758392562797 $310 $391 forward 7 unknown #
point $-1 -32.877758392562797 -46.040571995904429 10.173832503761259 #
point $-1 -32.877758392562797 -35.58912941956136 10.173832503761259 #
edge $-1 $392 1 $392 0 $214 $-1 forward 7 unknown #
vertex $-1 $215 $393 #
ellipse-curve $-1 -48.600665761293854 -40.026520376831222 5.7219003475561792 0 -0.51503808176128008 0.85716729658548041 1.5 0 0 1 I I #
point $-1 -47.100665761293854 -40.814850707732901 7.03390231883668 #
edge $-1 $394 1 $394 0 $218 $-1 forward 7 unknown #
vertex $-1 $219 $395 #
ellipse-curve $-1 -39.166921340055211 -40.026520376831222 5.7219003475561792 0 -0.51503808176128008 0.85716729658548041 1.5 0 0 1 I I #
point $-1 -37.666921340055211 -40.814850707732901 7.03390231883668 #
plane-surface $-1 0 0 10.173832503761259 0 0 1 1 0 0 forward_v I I I I #
coedge $-1 $337 $336 $329 $396 forward $223 $-1 #
coedge $-1 $329 $225 $227 $333 reversed $139 $-1 #
coedge $-1 $225 $328 $327 $396 reversed $139 $-1 #
coedge $-1 $233 $228 $225 $331 forward $234 $-1 #
edge $-1 $334 -27.68419543895476 $397 -17.23275286261169 $330 $398 forward 7 unknown #
coedge $-1 $227 $226 $337 $399 reversed $87 $-1 #
edge $-1 $400 1.6526814159067847e-014 $334 12.193002017198189 $328 $401 forward 7 unknown #
vertex $-1 $229 $402 #
straight-curve $-1 14.471879151665249 -35.58912941956136 10.173832503761259 -1 0 0 I I #
coedge $-1 $327 $230 $233 $341 reversed $223 $-1 #
coedge $-1 $230 $327 $332 $399 forward $223 $-1 #
vertex $-1 $231 $403 #
straight-curve $-1 39.949793461442241 -46.040571995904429 68.939291531957068 0 0 1 I I #
straight-curve $-1 39.949793461442241 -46.040571995904443 3.8939721339120865 0 -0.85716729658548041 -0.51503808176128008 I I #
edge $-1 $397 17.937723145218751 $235 39.949793461442241 $336 $404 forward 7 unknown #
point $-1 39.949793461442241 -46.040571995904429 10.173832503761259 #
point $-1 39.949793461442241 -35.58912941956136 10.173832503761259 #
edge $-1 $405 1 $405 0 $238 $-1 forward 7 unknown #
vertex $-1 $239 $406 #
ellipse-curve $-1 24.226886092711183 -40.026520376831222 5.7219003475561792 0 -0.51503808176128008 0.85716729658548041 1.5 0 0 1 I I #
point $-1 25.726886092711183 -40.814850707732901 7.03390231883668 #
edge $-1 $407 1 $407 0 $242 $-1 forward 7 unknown #
vertex $-1 $243 $408 #
ellipse-curve $-1 33.660630513949826 -40.026520376831222 5.7219003475561792 0 -0.51503808176128008 0.85716729658548041 1.5 0 0 1 I I #
point $-1 35.160630513949826 -40.814850707732901 7.03390231883668 #
plane-surface $-1 78.155461287270725 0 0 -1 0 0 0 0 1 forward_v I I I I #
coedge $-1 $251 $249 $253 $357 reversed $161 $-1 #
edge $-1 $264 -10.173832503761259 $359 10.173832503761259 $263 $409 forward 7 unknown #
vertex $-1 $357 $410 #
straight-curve $-1 -78.155461287270725 -46.040571995904429 0 0 0 -1 I I #
edge $-1 $355 -46.040571995904429 $359 46.040571995904429 $353 $411 forward 7 unknown #
straight-curve $-1 0 -46.040571995904429 -10.173832503761259 -1 0 0 I I #
vertex $-1 $256 $412 #
straight-curve $-1 0 46.040571995904429 -10.173832503761259 1 0 0 I I #
point $-1 78.155461287270725 46.040571995904429 -10.173832503761259 #
point $-1 78.155461287270725 -46.040571995904429 -10.173832503761259 #
straight-curve $-1 -78.155461287270725 0 10.173832503761259 0 -1 0 I I #
point $-1 -78.155461287270725 46.040571995904429 10.173832503761259 #
point $-1 -78.155461287270725 -46.040571995904429 10.173832503761259 #
straight-curve $-1 78.155461287270725 -46.040571995904429 0 0 0 -1 I I #
straight-curve $-1 78.155461287270725 46.040571995904429 0 0 0 -1 I I #
plane-surface $-1 -78.155461287270725 0 0 1 0 0 0 0 -1 forward_v I I I I #
edge $-1 $285 12.578641145957084 $289 16.597936832507258 $288 $413 forward 7 unknown #
edge $-1 $293 -16.597936832507258 $284 -12.578641145957084 $291 $414 forward 7 unknown #
straight-curve $-1 -67.499642420739349 -31.186225821739427 0 0 0 -1 I I #
edge $-1 $375 -10.173832503761259 $373 10.173832503761259 $295 $415 forward 7 unknown #
vertex $-1 $372 $416 #
straight-curve $-1 -36.413775927002519 -27.166930135189254 -10.173832503761259 1 0 0 I I #
vertex $-1 $296 $417 #
straight-curve $-1 -36.413775927002519 -27.166930135189254 10.173832503761259 -1 0 0 I I #
point $-1 -67.499642420739349 -27.166930135189254 10.173832503761259 #
point $-1 -67.499642420739349 -27.166930135189254 -10.173832503761259 #
point $-1 -67.499642420739349 -31.186225821739427 -10.173832503761259 #
point $-1 -67.499642420739349 -31.186225821739427 10.173832503761259 #
straight-curve $-1 -78.155461287270725 0 10.173832503761259 0 -1 0 I I #
straight-curve $-1 -78.155461287270725 0 -10.173832503761259 0 1 0 I I #
edge $-1 $384 58.765459028195806 $387 65.045319398044967 $301 $418 forward 7 unknown #
vertex $-1 $315 $419 #
straight-curve $-1 -54.889828708786283 -63.273324858516119 10.173832503761261 0 -1 0 I I #
edge $-1 $387 -32.947931933449013 $312 -10.935861617225527 $311 $420 forward 7 unknown #
vertex $-1 $386 $421 #
straight-curve $-1 -54.889828708786283 -46.040571995904443 3.8939721339120865 0 0.85716729658548041 0.51503808176128008 I I #
point $-1 -54.889828708786283 -35.58912941956136 10.173832503761259 #
point $-1 -32.877758392562797 -46.040571995904429 3.893972133912095 #
straight-curve $-1 0 -46.040571995904429 10.173832503761259 1 0 0 I I #
vertex $-1 $318 $422 #
point $-1 -47.100665761293854 -40.026520376831222 5.7219003475561792 #
vertex $-1 $322 $423 #
point $-1 -37.666921340055211 -40.026520376831222 5.7219003475561792 #
edge $-1 $397 58.765459028195806 $400 65.045319398044967 $327 $424 forward 7 unknown #
vertex $-1 $341 $425 #
straight-curve $-1 17.937723145218751 -63.273324858516119 10.173832503761261 0 -1 0 I I #
edge $-1 $400 3.4658439935535021 $338 25.477914309776992 $337 $426 forward 7 unknown #
vertex $-1 $399 $427 #
straight-curve $-1 17.937723145218751 -46.040571995904443 3.8939721339120865 0 0.85716729658548041 0.51503808176128008 I I #
point $-1 17.937723145218751 -35.58912941956136 10.173832503761259 #
point $-1 39.949793461442241 -46.040571995904429 3.893972133912095 #
straight-curve $-1 0 -46.040571995904429 10.173832503761259 1 0 0 I I #
vertex $-1 $344 $428 #
point $-1 25.726886092711183 -40.026520376831222 5.7219003475561792 #
vertex $-1 $348 $429 #
point $-1 35.160630513949826 -40.026520376831222 5.7219003475561792 #
straight-curve $-1 -78.155461287270725 46.040571995904429 0 0 0 -1 I I #
point $-1 -78.155461287270725 -46.040571995904429 -10.173832503761259 #
straight-curve $-1 -78.155461287270725 0 -10.173832503761259 0 1 0 I I #
point $-1 -78.155461287270725 46.040571995904429 -10.173832503761259 #
straight-curve $-1 -67.499642420739349 -14.58828898923217 -10.173832503761259 0 -1 0 I I #
straight-curve $-1 -67.499642420739349 -14.58828898923217 10.173832503761259 0 1 0 I I #
straight-curve $-1 -78.155461287270725 -27.166930135189254 0 0 0 -1 I I #
point $-1 -78.155461287270725 -27.166930135189254 -10.173832503761259 #
point $-1 -78.155461287270725 -27.166930135189254 10.173832503761259 #
straight-curve $-1 -54.889828708786283 -46.040571995904429 68.939291531957068 0 0 -1 I I #
point $-1 -54.889828708786283 -46.040571995904429 10.173832503761259 #
straight-curve $-1 -21.94189677533727 -46.040571995904429 3.8939721339120954 1 0 0 I I #
point $-1 -54.889828708786283 -46.040571995904429 3.893972133912095 #
point $-1 -48.600665761293854 -39.253963254189308 4.4361494026779589 #
point $-1 -39.166921340055211 -39.253963254189308 4.4361494026779589 #
straight-curve $-1 17.937723145218751 -46.040571995904429 68.939291531957068 0 0 -1 I I #
point $-1 17.937723145218751 -46.040571995904429 10.173832503761259 #
straight-curve $-1 14.471879151665249 -46.040571995904429 3.8939721339120954 1 0 0 I I #
point $-1 17.937723145218751 -46.040571995904429 3.893972133912095 #
point $-1 24.226886092711183 -39.253963254189308 4.4361494026779589 #
point $-1 33.660630513949826 -39.253963254189308 4.4361494026779589 #
End-of-ACIS-data 