500 0 8 0           
7 Unknown 11 ACIS 5.0 NT 24 Fri Mar 26 00:22:52 1999 
-1 9.9999999999999995e-007 1e-010 
body $-1 $8 $-1 $9 #
body $-1 $10 $-1 $11 #
body $-1 $12 $-1 $13 #
body $-1 $14 $-1 $15 #
body $-1 $16 $-1 $17 #
body $-1 $18 $-1 $19 #
body $-1 $20 $-1 $21 #
body $-1 $22 $-1 $23 #
lump $-1 $-1 $24 $0 #
transform $-1 1 0 0 0 1 0 0 0 1 61.611987670522169 30.564374510462901 11.92166380026625 1 rotate no_reflect no_shear #
lump $-1 $-1 $25 $1 #
transform $-1 1 0 0 0 1 0 0 0 1 61.611987670522169 30.564374510462901 11.92166380026625 1 rotate no_reflect no_shear #
lump $-1 $-1 $26 $2 #
transform $-1 1 0 0 0 1 0 0 0 1 61.611987670522169 30.564374510462901 11.92166380026625 1 rotate no_reflect no_shear #
lump $-1 $-1 $27 $3 #
transform $-1 1 0 0 0 1 0 0 0 1 61.611987670522169 30.564374510462901 11.92166380026625 1 rotate no_reflect no_shear #
lump $-1 $-1 $28 $4 #
transform $-1 1 0 0 0 1 0 0 0 1 61.611987670522169 30.564374510462901 11.92166380026625 1 rotate no_reflect no_shear #
lump $-1 $-1 $29 $5 #
transform $-1 1 0 0 0 1 0 0 0 1 61.611987670522169 30.564374510462901 11.92166380026625 1 rotate no_reflect no_shear #
lump $-1 $-1 $30 $6 #
transform $-1 1 0 0 0 1 0 0 0 1 61.611987670522169 30.564374510462901 11.92166380026625 1 rotate no_reflect no_shear #
lump $-1 $-1 $31 $7 #
transform $-1 1 0 0 0 1 0 0 0 1 61.611987670522169 30.564374510462901 11.92166380026625 1 rotate no_reflect no_shear #
shell $-1 $-1 $-1 $32 $-1 $8 #
shell $-1 $-1 $-1 $33 $-1 $10 #
shell $-1 $-1 $-1 $34 $-1 $12 #
shell $-1 $-1 $-1 $35 $-1 $14 #
shell $-1 $-1 $-1 $36 $-1 $16 #
shell $-1 $-1 $-1 $37 $-1 $18 #
shell $-1 $-1 $-1 $38 $-1 $20 #
shell $-1 $-1 $-1 $39 $-1 $22 #
face $-1 $40 $41 $24 $-1 $42 forward single #
face $-1 $43 $44 $25 $-1 $45 forward single #
face $-1 $46 $47 $26 $-1 $48 reversed single #
face $-1 $49 $50 $27 $-1 $51 forward single #
face $-1 $52 $53 $28 $-1 $54 forward single #
face $-1 $55 $56 $29 $-1 $57 reversed single #
face $-1 $58 $59 $30 $-1 $60 forward single #
face $-1 $61 $62 $31 $-1 $63 forward single #
face $-1 $64 $65 $24 $-1 $66 reversed single #
loop $-1 $-1 $67 $32 #
plane-surface $-1 0 0 11.92166380026625 0 0 1 1 0 0 forward_v I I I I #
face $-1 $68 $69 $25 $-1 $70 reversed single #
loop $-1 $-1 $71 $33 #
plane-surface $-1 -55.537451178242698 0 -3.7751356013522543 0 0 1 1 0 0 forward_v I I I I #
face $-1 $72 $73 $26 $-1 $74 reversed single #
loop $-1 $-1 $75 $34 #
plane-surface $-1 -30.887040479604039 85.666615238008518 129.69030289063252 1 0 0 0 -0.7660444514056185 -0.64278759981090561 forward_v I I I I #
face $-1 $76 $77 $27 $-1 $78 forward single #
loop $-1 $79 $80 $35 #
cone-surface $-1 -25.767509711573958 24.162631459821633 5.3270276257570259 0 -0.7660444514056185 -0.64278759981090561 2 0 0 1 I I 0 1 2 forward I I I I #
face $-1 $81 $82 $28 $-1 $83 forward single #
loop $-1 $84 $85 $36 #
cone-surface $-1 -18.088213559528832 24.162631459821633 5.3270276257570259 0 -0.7660444514056185 -0.64278759981090561 2 0 0 1 I I 0 1 2 forward I I I I #
face $-1 $86 $87 $29 $-1 $88 reversed single #
loop $-1 $-1 $89 $37 #
plane-surface $-1 -12.96868279149875 -124.95941710061265 82.862963881785703 -1 0 0 0 -0.7660444514056185 0.64278759981090561 forward_v I I I I #
face $-1 $90 $91 $30 $-1 $92 forward single #
loop $-1 $93 $94 $38 #
cone-surface $-1 -25.767509711573958 -24.162631459821636 5.3270276257570277 0 0.7660444514056185 -0.64278759981090561 2 0 0 1 I I 0 1 2 forward I I I I #
face $-1 $95 $96 $31 $-1 $97 forward single #
loop $-1 $98 $99 $39 #
cone-surface $-1 -18.088213559528832 -24.162631459821636 5.3270276257570277 0 0.7660444514056185 -0.64278759981090561 2 0 0 1 I I 0 1 2 forward I I I I #
face $-1 $100 $101 $24 $-1 $102 reversed single #
loop $-1 $-1 $103 $40 #
plane-surface $-1 0 0 -11.92166380026625 0 0 1 1 0 0 forward_v I I I I #
coedge $-1 $104 $105 $106 $107 forward $41 $-1 #
face $-1 $108 $109 $25 $-1 $110 reversed single #
loop $-1 $-1 $111 $43 #
plane-surface $-1 -55.537451178242698 0 -7.5725895565174817 0 0 1 1 0 0 forward_v I I I I #
coedge $-1 $112 $113 $114 $115 forward $44 $-1 #
face $-1 $116 $117 $26 $-1 $118 reversed single #
loop $-1 $-1 $119 $46 #
plane-surface $-1 -21.927861635551395 -8.7284273521412388 50.483459542004425 0 0.7660444514056185 0.64278759981090561 1 0 0 forward_v I I I I #
coedge $-1 $120 $121 $122 $123 reversed $47 $-1 #
face $-1 $-1 $124 $27 $-1 $125 forward single #
loop $-1 $126 $127 $49 #
cone-surface $-1 -25.767509711573958 20.462651020438752 2.2223754849912201 0 -0.7660444514056185 -0.64278759981090561 1 0 0 1 I I -0.70710678118654768 0.70710678118654735 1 forward I I I I #
loop $-1 $-1 $128 $35 #
coedge $-1 $80 $80 $129 $130 reversed $50 $-1 #
face $-1 $-1 $131 $28 $-1 $132 forward single #
loop $-1 $133 $134 $52 #
cone-surface $-1 -18.088213559528832 20.462651020438752 2.2223754849912201 0 -0.7660444514056185 -0.64278759981090561 1 0 0 1 I I -0.70710678118654768 0.70710678118654735 1 forward I I I I #
loop $-1 $-1 $135 $36 #
coedge $-1 $85 $85 $136 $137 reversed $53 $-1 #
face $-1 $138 $139 $29 $-1 $140 reversed single #
loop $-1 $-1 $141 $55 #
plane-surface $-1 -21.927861635551395 -30.564374510462898 3.6561205331576048 0 -0.7660444514056185 0.64278759981090561 1 0 0 forward_v I I I I #
coedge $-1 $142 $143 $144 $145 reversed $56 $-1 #
face $-1 $-1 $146 $30 $-1 $147 forward single #
loop $-1 $148 $149 $58 #
cone-surface $-1 -25.767509711573958 -20.462651020438756 2.2223754849912218 0 0.7660444514056185 -0.64278759981090561 1 0 0 1 I I -0.70710678118654768 0.70710678118654735 1 forward I I I I #
loop $-1 $-1 $150 $38 #
coedge $-1 $94 $94 $151 $152 reversed $59 $-1 #
face $-1 $-1 $153 $31 $-1 $154 forward single #
loop $-1 $155 $156 $61 #
cone-surface $-1 -18.088213559528832 -20.462651020438756 2.2223754849912218 0 0.7660444514056185 -0.64278759981090561 1 0 0 1 I I -0.70710678118654768 0.70710678118654735 1 forward I I I I #
loop $-1 $-1 $157 $39 #
coedge $-1 $99 $99 $158 $159 reversed $62 $-1 #
face $-1 $160 $161 $24 $-1 $162 reversed single #
loop $-1 $-1 $163 $64 #
plane-surface $-1 0 -30.564374510462901 0 0 1 0 0 0 1 forward_v I I I I #
coedge $-1 $164 $165 $166 $167 forward $65 $-1 #
coedge $-1 $168 $67 $169 $170 forward $41 $-1 #
coedge $-1 $67 $168 $171 $172 forward $41 $-1 #
coedge $-1 $173 $174 $67 $107 reversed $175 $-1 #
edge $-1 $176 -30.564374510462901 $177 30.564374510462901 $106 $178 forward 7 unknown #
face $-1 $179 $180 $25 $-1 $181 reversed single #
loop $-1 $-1 $182 $68 #
plane-surface $-1 -49.462914685963227 0 -5.6738625789348678 -1 0 0 0 0 1 forward_v I I I I #
coedge $-1 $183 $184 $185 $186 forward $69 $-1 #
coedge $-1 $187 $71 $188 $189 reversed $44 $-1 #
coedge $-1 $71 $187 $190 $191 reversed $44 $-1 #
coedge $-1 $182 $192 $71 $115 reversed $109 $-1 #
edge $-1 $193 -30.564374510462901 $194 30.564374510462901 $114 $195 forward 7 unknown #
face $-1 $196 $197 $26 $-1 $198 forward single #
loop $-1 $-1 $199 $72 #
plane-surface $-1 -12.96868279149875 85.666615238008518 129.69030289063252 -1 0 0 0 0.7660444514056185 0.64278759981090561 forward_v I I I I #
coedge $-1 $200 $201 $202 $203 reversed $73 $-1 #
coedge $-1 $121 $75 $204 $205 reversed $47 $-1 #
coedge $-1 $75 $120 $200 $206 reversed $47 $-1 #
coedge $-1 $202 $207 $75 $123 forward $197 $-1 #
edge $-1 $208 12.268933108541358 $209 19.204547233869391 $122 $210 forward 7 unknown #
loop $-1 $-1 $129 $76 #
plane-surface $-1 -21.927861635551395 -8.7284273521412388 50.483459542004425 0 0.7660444514056185 0.64278759981090561 1 0 0 forward_v I I I I #
loop $-1 $-1 $211 $49 #
coedge $-1 $127 $127 $128 $212 reversed $77 $-1 #
coedge $-1 $128 $128 $127 $212 forward $79 $-1 #
coedge $-1 $129 $129 $80 $130 forward $124 $-1 #
edge $-1 $213 -7.7808837780116548e-016 $213 6.2831853071795996 $129 $214 forward 7 unknown #
loop $-1 $-1 $136 $81 #
plane-surface $-1 -21.927861635551395 -8.7284273521412388 50.483459542004425 0 0.7660444514056185 0.64278759981090561 1 0 0 forward_v I I I I #
loop $-1 $-1 $215 $52 #
coedge $-1 $134 $134 $135 $216 reversed $82 $-1 #
coedge $-1 $135 $135 $134 $216 forward $84 $-1 #
coedge $-1 $136 $136 $85 $137 forward $131 $-1 #
edge $-1 $217 -7.7808837780116548e-016 $217 6.2831853071795996 $136 $218 forward 7 unknown #
face $-1 $219 $220 $29 $-1 $221 reversed single #
loop $-1 $-1 $222 $86 #
plane-surface $-1 -30.887040479604039 -124.95941710061265 82.862963881785703 1 0 0 0 0.7660444514056185 -0.64278759981090561 forward_v I I I I #
coedge $-1 $223 $224 $225 $226 reversed $87 $-1 #
coedge $-1 $143 $89 $227 $228 reversed $56 $-1 #
coedge $-1 $89 $142 $223 $229 reversed $56 $-1 #
coedge $-1 $225 $230 $89 $145 forward $231 $-1 #
edge $-1 $232 31.915334039843426 $233 38.850948165171445 $144 $234 forward 7 unknown #
loop $-1 $-1 $151 $90 #
plane-surface $-1 -21.927861635551395 -30.564374510462898 3.6561205331576048 0 -0.7660444514056185 0.64278759981090561 1 0 0 forward_v I I I I #
loop $-1 $-1 $235 $58 #
coedge $-1 $149 $149 $150 $236 reversed $91 $-1 #
coedge $-1 $150 $150 $149 $236 forward $93 $-1 #
coedge $-1 $151 $151 $94 $152 forward $146 $-1 #
edge $-1 $237 -1.2124392380153595e-016 $237 6.2831853071796004 $151 $238 forward 7 unknown #
loop $-1 $-1 $158 $95 #
plane-surface $-1 -21.927861635551395 -30.564374510462898 3.6561205331576048 0 -0.7660444514056185 0.64278759981090561 1 0 0 forward_v I I I I #
loop $-1 $-1 $239 $61 #
coedge $-1 $156 $156 $157 $240 reversed $96 $-1 #
coedge $-1 $157 $157 $156 $240 forward $98 $-1 #
coedge $-1 $158 $158 $99 $159 forward $153 $-1 #
edge $-1 $241 -1.2124392380153595e-016 $241 6.2831853071796004 $158 $242 forward 7 unknown #
face $-1 $243 $244 $24 $-1 $245 reversed single #
loop $-1 $-1 $246 $100 #
plane-surface $-1 -61.611987670522169 0 0 1 0 0 0 0 -1 forward_v I I I I #
coedge $-1 $247 $171 $248 $249 forward $101 $-1 #
coedge $-1 $250 $103 $247 $251 forward $65 $-1 #
coedge $-1 $103 $250 $252 $253 forward $65 $-1 #
coedge $-1 $174 $173 $103 $167 reversed $175 $-1 #
edge $-1 $254 -30.564374510462901 $255 30.564374510462901 $166 $256 forward 7 unknown #
coedge $-1 $105 $104 $257 $258 forward $41 $-1 #
coedge $-1 $259 $260 $104 $170 reversed $244 $-1 #
edge $-1 $177 -61.611987670522169 $261 61.611987670522169 $169 $262 forward 7 unknown #
coedge $-1 $163 $263 $105 $172 reversed $101 $-1 #
edge $-1 $264 -61.611987670522169 $176 61.611987670522169 $171 $265 forward 7 unknown #
coedge $-1 $166 $106 $263 $266 forward $175 $-1 #
coedge $-1 $106 $166 $259 $267 reversed $175 $-1 #
loop $-1 $-1 $173 $243 #
vertex $-1 $107 $268 #
vertex $-1 $107 $269 #
straight-curve $-1 61.611987670522169 0 11.92166380026625 0 1 0 I I #
face $-1 $270 $271 $25 $-1 $272 reversed single #
loop $-1 $-1 $273 $108 #
plane-surface $-1 0 -30.564374510462901 0 0 1 0 0 0 1 forward_v I I I I #
coedge $-1 $185 $114 $274 $275 reversed $109 $-1 #
coedge $-1 $276 $111 $273 $277 reversed $69 $-1 #
coedge $-1 $111 $276 $278 $279 reversed $69 $-1 #
coedge $-1 $192 $182 $111 $186 reversed $109 $-1 #
edge $-1 $280 -30.564374510462901 $281 30.564374510462901 $185 $282 forward 7 unknown #
coedge $-1 $113 $112 $283 $284 reversed $44 $-1 #
coedge $-1 $285 $286 $112 $189 forward $287 $-1 #
edge $-1 $288 -33.843262081400823 $194 -21.694189096841878 $188 $289 forward 7 unknown #
coedge $-1 $290 $274 $113 $191 forward $180 $-1 #
edge $-1 $193 21.694189096841878 $291 33.843262081400823 $190 $292 forward 7 unknown #
coedge $-1 $114 $185 $285 $293 reversed $109 $-1 #
vertex $-1 $191 $294 #
vertex $-1 $189 $295 #
straight-curve $-1 -49.462914685963227 0 -3.7751356013522543 0 1 0 I I #
face $-1 $-1 $296 $26 $-1 $297 reversed single #
loop $-1 $-1 $122 $116 #
plane-surface $-1 0 0 11.92166380026625 0 0 1 1 0 0 forward_v I I I I #
coedge $-1 $298 $299 $300 $301 reversed $117 $-1 #
coedge $-1 $302 $119 $121 $206 forward $73 $-1 #
coedge $-1 $119 $302 $298 $303 forward $73 $-1 #
coedge $-1 $300 $122 $119 $203 forward $197 $-1 #
edge $-1 $209 -19.923109661828342 $304 -2.004751973723053 $202 $305 forward 7 unknown #
coedge $-1 $306 $307 $120 $205 forward $296 $-1 #
edge $-1 $308 -61.189030912158671 $208 -52.92348764505001 $204 $309 forward 7 unknown #
edge $-1 $209 50.338848706469925 $308 61.128749020925802 $121 $310 forward 7 unknown #
coedge $-1 $122 $300 $306 $311 forward $197 $-1 #
vertex $-1 $205 $312 #
vertex $-1 $123 $313 #
straight-curve $-1 -30.887040479604039 42.833307619004259 11.921663800266252 0 -1 0 I I #
coedge $-1 $211 $211 $-1 $314 reversed $126 $-1 #
edge $-1 $315 0 $315 6.2831853071796004 $127 $316 forward 7 unknown #
vertex $-1 $130 $317 #
ellipse-curve $-1 -25.767509711573958 27.096567447798883 7.7888921667119178 0 0.7660444514056185 0.64278759981090561 2 0 0 1 I I #
coedge $-1 $215 $215 $-1 $318 reversed $133 $-1 #
edge $-1 $319 0 $319 6.2831853071796004 $134 $320 forward 7 unknown #
vertex $-1 $137 $321 #
ellipse-curve $-1 -18.088213559528832 27.096567447798883 7.7888921667119178 0 0.7660444514056185 0.64278759981090561 2 0 0 1 I I #
face $-1 $-1 $231 $29 $-1 $322 forward single #
loop $-1 $-1 $323 $138 #
plane-surface $-1 0 -30.564374510462901 0 0 1 0 0 0 1 forward_v I I I I #
coedge $-1 $324 $325 $326 $327 reversed $139 $-1 #
coedge $-1 $328 $141 $143 $229 forward $87 $-1 #
coedge $-1 $141 $328 $324 $329 forward $87 $-1 #
coedge $-1 $326 $144 $141 $226 forward $231 $-1 #
edge $-1 $233 2.004751973723053 $330 19.923109661828342 $225 $331 forward 7 unknown #
coedge $-1 $332 $333 $142 $228 forward $220 $-1 #
edge $-1 $334 -37.775361407735254 $232 -29.509818140626599 $227 $335 forward 7 unknown #
edge $-1 $233 -10.789900314455858 $334 5.6855610497590068e-015 $143 $336 forward 7 unknown #
coedge $-1 $144 $326 $332 $337 forward $231 $-1 #
loop $-1 $-1 $326 $219 #
vertex $-1 $228 $338 #
vertex $-1 $145 $339 #
straight-curve $-1 -12.96868279149875 -62.479708550306327 11.921663800266252 0 1 0 I I #
coedge $-1 $235 $235 $-1 $340 reversed $148 $-1 #
edge $-1 $341 0 $341 6.2831853071796004 $149 $342 forward 7 unknown #
vertex $-1 $152 $343 #
ellipse-curve $-1 -25.767509711573958 -27.096567447798893 7.7888921667119249 0 -0.7660444514056185 0.64278759981090561 2 0 0 1 I I #
coedge $-1 $239 $239 $-1 $344 reversed $155 $-1 #
edge $-1 $345 0 $345 6.2831853071796004 $156 $346 forward 7 unknown #
vertex $-1 $159 $347 #
ellipse-curve $-1 -18.088213559528832 -27.096567447798893 7.7888921667119249 0 -0.7660444514056185 0.64278759981090561 2 0 0 1 I I #
face $-1 $-1 $175 $24 $-1 $348 reversed single #
loop $-1 $-1 $259 $160 #
plane-surface $-1 0 30.564374510462901 0 0 -1 0 0 0 -1 forward_v I I I I #
coedge $-1 $349 $257 $260 $350 forward $161 $-1 #
coedge $-1 $263 $163 $164 $251 reversed $101 $-1 #
coedge $-1 $257 $349 $163 $249 reversed $161 $-1 #
edge $-1 $264 -11.92166380026625 $351 11.92166380026625 $248 $352 forward 7 unknown #
coedge $-1 $165 $164 $349 $353 forward $65 $-1 #
edge $-1 $255 -61.611987670522169 $351 61.611987670522169 $247 $354 forward 7 unknown #
coedge $-1 $260 $259 $165 $253 reversed $244 $-1 #
edge $-1 $355 -61.611987670522169 $254 61.611987670522169 $252 $356 forward 7 unknown #
vertex $-1 $167 $357 #
vertex $-1 $266 $358 #
straight-curve $-1 61.611987670522169 0 -11.92166380026625 0 -1 0 I I #
coedge $-1 $246 $248 $168 $258 reversed $161 $-1 #
edge $-1 $261 -30.564374510462901 $264 30.564374510462901 $257 $359 forward 7 unknown #
coedge $-1 $252 $169 $174 $267 forward $244 $-1 #
coedge $-1 $169 $252 $246 $350 reversed $244 $-1 #
vertex $-1 $170 $360 #
straight-curve $-1 0 30.564374510462901 11.92166380026625 -1 0 0 I I #
coedge $-1 $171 $247 $173 $266 reversed $101 $-1 #
vertex $-1 $258 $361 #
straight-curve $-1 0 -30.564374510462901 11.92166380026625 1 0 0 I I #
edge $-1 $176 -11.92166380026625 $255 11.92166380026625 $173 $362 forward 7 unknown #
edge $-1 $177 -11.92166380026625 $254 11.92166380026625 $174 $363 forward 7 unknown #
point $-1 61.611987670522169 -30.564374510462901 11.92166380026625 #
point $-1 61.611987670522169 30.564374510462901 11.92166380026625 #
face $-1 $-1 $287 $25 $-1 $364 reversed single #
loop $-1 $-1 $365 $179 #
plane-surface $-1 -61.611987670522169 0 0 1 0 0 0 0 -1 forward_v I I I I #
coedge $-1 $274 $290 $183 $277 forward $180 $-1 #
coedge $-1 $190 $273 $182 $275 forward $180 $-1 #
edge $-1 $281 -4.7356582670500478 $193 -0.93820431188482045 $274 $366 forward 7 unknown #
coedge $-1 $184 $183 $365 $367 reversed $69 $-1 #
edge $-1 $368 -33.843262081400823 $281 -21.694189096841878 $273 $369 forward 7 unknown #
coedge $-1 $286 $285 $184 $279 forward $287 $-1 #
edge $-1 $280 21.694189096841878 $370 33.843262081400823 $278 $371 forward 7 unknown #
vertex $-1 $279 $372 #
vertex $-1 $277 $373 #
straight-curve $-1 -49.462914685963227 0 -7.5725895565174817 0 -1 0 I I #
coedge $-1 $374 $375 $187 $284 forward $271 $-1 #
edge $-1 $291 -30.564374510462901 $288 30.564374510462901 $283 $376 forward 7 unknown #
coedge $-1 $278 $188 $192 $293 forward $287 $-1 #
coedge $-1 $188 $278 $374 $377 reversed $287 $-1 #
loop $-1 $-1 $278 $270 #
vertex $-1 $377 $378 #
straight-curve $-1 -27.768725589121349 30.564374510462901 -3.7751356013522543 1 0 0 I I #
coedge $-1 $273 $190 $375 $379 forward $180 $-1 #
vertex $-1 $379 $380 #
straight-curve $-1 -27.768725589121349 -30.564374510462901 -3.7751356013522543 -1 0 0 I I #
edge $-1 $194 0.93820431188482045 $280 4.7356582670500478 $285 $381 forward 7 unknown #
point $-1 -49.462914685963227 -30.564374510462901 -3.7751356013522543 #
point $-1 -49.462914685963227 30.564374510462901 -3.7751356013522543 #
loop $-1 $-1 $204 $196 #
plane-surface $-1 0 30.564374510462901 0 0 -1 0 0 0 -1 forward_v I I I I #
coedge $-1 $299 $199 $201 $303 reversed $117 $-1 #
coedge $-1 $199 $298 $382 $383 reversed $117 $-1 #
coedge $-1 $207 $202 $199 $301 forward $197 $-1 #
edge $-1 $304 -19.204547233869391 $384 -12.268933108541358 $300 $385 forward 7 unknown #
coedge $-1 $201 $200 $307 $386 reversed $73 $-1 #
edge $-1 $387 -61.128749020925802 $304 -50.338848706469925 $298 $388 forward 7 unknown #
vertex $-1 $203 $389 #
straight-curve $-1 -10.963930817775697 23.628760385134868 11.921663800266252 1 0 0 I I #
coedge $-1 $382 $204 $207 $311 reversed $296 $-1 #
coedge $-1 $204 $382 $302 $386 forward $296 $-1 #
vertex $-1 $205 $390 #
straight-curve $-1 -30.887040479604039 30.564374510462901 64.845151445316262 0 0 1 I I #
straight-curve $-1 -30.887040479604039 -8.7284273521412388 50.483459542004425 0 0.64278759981090561 -0.7660444514056185 I I #
edge $-1 $384 12.96868279149875 $208 30.887040479604039 $306 $391 forward 7 unknown #
point $-1 -30.887040479604039 30.564374510462901 11.92166380026625 #
point $-1 -30.887040479604039 23.628760385134868 11.921663800266252 #
edge $-1 $392 1 $392 0 $211 $-1 forward 7 unknown #
vertex $-1 $212 $393 #
ellipse-curve $-1 -25.767509711573958 21.228695471844372 2.8651630848021252 0 0.7660444514056185 0.64278759981090561 2 0 0 1 I I #
point $-1 -23.767509711573958 27.09656744779889 7.7888921667119257 #
edge $-1 $394 1 $394 0 $215 $-1 forward 7 unknown #
vertex $-1 $216 $395 #
ellipse-curve $-1 -18.088213559528832 21.228695471844372 2.8651630848021252 0 0.7660444514056185 0.64278759981090561 2 0 0 1 I I #
point $-1 -16.088213559528832 27.09656744779889 7.7888921667119257 #
plane-surface $-1 0 0 11.92166380026625 0 0 1 1 0 0 forward_v I I I I #
coedge $-1 $333 $332 $325 $396 forward $220 $-1 #
coedge $-1 $325 $222 $224 $329 reversed $139 $-1 #
coedge $-1 $222 $324 $323 $396 reversed $139 $-1 #
coedge $-1 $230 $225 $222 $327 forward $231 $-1 #
edge $-1 $330 -38.850948165171445 $397 -31.915334039843426 $326 $398 forward 7 unknown #
coedge $-1 $224 $223 $333 $399 reversed $87 $-1 #
edge $-1 $400 -5.6855610497590068e-015 $330 10.789900314455858 $324 $401 forward 7 unknown #
vertex $-1 $226 $402 #
straight-curve $-1 -10.963930817775697 -23.628760385134882 11.92166380026625 -1 0 0 I I #
coedge $-1 $323 $227 $230 $337 reversed $220 $-1 #
coedge $-1 $227 $323 $328 $399 forward $220 $-1 #
vertex $-1 $228 $403 #
straight-curve $-1 -12.96868279149875 -30.564374510462898 41.431481940892851 0 0 1 I I #
straight-curve $-1 -12.96868279149875 -30.564374510462898 3.6561205331576048 0 -0.64278759981090561 -0.7660444514056185 I I #
edge $-1 $397 -30.887040479604039 $232 -12.96868279149875 $332 $404 forward 7 unknown #
point $-1 -12.96868279149875 -30.564374510462901 11.92166380026625 #
point $-1 -12.96868279149875 -23.628760385134882 11.92166380026625 #
edge $-1 $405 1 $405 0 $235 $-1 forward 7 unknown #
vertex $-1 $236 $406 #
ellipse-curve $-1 -25.767509711573958 -21.228695471844375 2.865163084802127 0 -0.7660444514056185 0.64278759981090561 2 0 0 1 I I #
point $-1 -23.767509711573958 -27.096567447798897 7.7888921667119275 #
edge $-1 $407 1 $407 0 $239 $-1 forward 7 unknown #
vertex $-1 $240 $408 #
ellipse-curve $-1 -18.088213559528832 -21.228695471844375 2.865163084802127 0 -0.7660444514056185 0.64278759981090561 2 0 0 1 I I #
point $-1 -16.088213559528832 -27.096567447798897 7.7888921667119275 #
plane-surface $-1 61.611987670522169 0 0 -1 0 0 0 0 1 forward_v I I I I #
coedge $-1 $248 $246 $250 $353 reversed $161 $-1 #
edge $-1 $261 -11.92166380026625 $355 11.92166380026625 $260 $409 forward 7 unknown #
vertex $-1 $353 $410 #
straight-curve $-1 -61.611987670522169 -30.564374510462901 0 0 0 -1 I I #
edge $-1 $351 -30.564374510462901 $355 30.564374510462901 $349 $411 forward 7 unknown #
straight-curve $-1 0 -30.564374510462901 -11.92166380026625 -1 0 0 I I #
vertex $-1 $253 $412 #
straight-curve $-1 0 30.564374510462901 -11.92166380026625 1 0 0 I I #
point $-1 61.611987670522169 30.564374510462901 -11.92166380026625 #
point $-1 61.611987670522169 -30.564374510462901 -11.92166380026625 #
straight-curve $-1 -61.611987670522169 0 11.92166380026625 0 -1 0 I I #
point $-1 -61.611987670522169 30.564374510462901 11.92166380026625 #
point $-1 -61.611987670522169 -30.564374510462901 11.92166380026625 #
straight-curve $-1 61.611987670522169 -30.564374510462901 0 0 0 -1 I I #
straight-curve $-1 61.611987670522169 30.564374510462901 0 0 0 -1 I I #
plane-surface $-1 0 30.564374510462901 0 0 -1 0 0 0 -1 forward_v I I I I #
coedge $-1 $375 $374 $276 $367 forward $271 $-1 #
straight-curve $-1 -49.462914685963227 -30.564374510462901 -2.8369312894674339 0 0 1 I I #
edge $-1 $370 -30.564374510462901 $368 30.564374510462901 $365 $413 forward 7 unknown #
vertex $-1 $277 $414 #
straight-curve $-1 -27.768725589121349 -30.564374510462901 -7.5725895565174817 1 0 0 I I #
vertex $-1 $279 $415 #
straight-curve $-1 -27.768725589121349 30.564374510462901 -7.5725895565174817 -1 0 0 I I #
point $-1 -49.462914685963227 30.564374510462901 -7.5725895565174817 #
point $-1 -49.462914685963227 -30.564374510462901 -7.5725895565174817 #
coedge $-1 $365 $283 $286 $377 forward $271 $-1 #
coedge $-1 $283 $365 $290 $379 reversed $271 $-1 #
straight-curve $-1 -61.611987670522169 0 -3.7751356013522543 0 1 0 I I #
edge $-1 $288 3.7751356013522543 $370 7.5725895565174817 $286 $416 forward 7 unknown #
point $-1 -61.611987670522169 30.564374510462901 -3.7751356013522543 #
edge $-1 $291 3.7751356013522543 $368 7.5725895565174817 $375 $417 forward 7 unknown #
point $-1 -61.611987670522169 -30.564374510462901 -3.7751356013522543 #
straight-curve $-1 -49.462914685963227 30.564374510462901 -2.8369312894674339 0 0 -1 I I #
coedge $-1 $307 $306 $299 $383 forward $296 $-1 #
edge $-1 $384 52.92348764505001 $387 61.189030912158671 $382 $418 forward 7 unknown #
vertex $-1 $311 $419 #
straight-curve $-1 -12.96868279149875 42.833307619004259 11.921663800266252 0 1 0 I I #
edge $-1 $387 2.004751973723053 $308 19.923109661828342 $307 $420 forward 7 unknown #
vertex $-1 $386 $421 #
straight-curve $-1 -12.96868279149875 -8.7284273521412388 50.483459542004425 0 -0.64278759981090561 0.7660444514056185 I I #
point $-1 -12.96868279149875 23.628760385134868 11.921663800266252 #
point $-1 -30.887040479604039 30.564374510462898 3.6561205331575906 #
straight-curve $-1 0 30.564374510462901 11.92166380026625 -1 0 0 I I #
vertex $-1 $314 $422 #
point $-1 -23.767509711573958 21.228695471844372 2.8651630848021252 #
vertex $-1 $318 $423 #
point $-1 -16.088213559528832 21.228695471844372 2.8651630848021252 #
edge $-1 $397 29.509818140626599 $400 37.775361407735254 $323 $424 forward 7 unknown #
vertex $-1 $337 $425 #
straight-curve $-1 -30.887040479604039 -62.479708550306327 11.921663800266252 0 -1 0 I I #
edge $-1 $400 -19.923109661828342 $334 -2.004751973723053 $333 $426 forward 7 unknown #
vertex $-1 $399 $427 #
straight-curve $-1 -30.887040479604039 -30.564374510462898 3.6561205331576048 0 0.64278759981090561 0.7660444514056185 I I #
point $-1 -30.887040479604039 -23.628760385134882 11.92166380026625 #
point $-1 -12.96868279149875 -30.564374510462901 3.6561205331576003 #
straight-curve $-1 0 -30.564374510462901 11.92166380026625 1 0 0 I I #
vertex $-1 $340 $428 #
point $-1 -23.767509711573958 -21.228695471844375 2.865163084802127 #
vertex $-1 $344 $429 #
point $-1 -16.088213559528832 -21.228695471844375 2.865163084802127 #
straight-curve $-1 -61.611987670522169 30.564374510462901 0 0 0 -1 I I #
point $-1 -61.611987670522169 -30.564374510462901 -11.92166380026625 #
straight-curve $-1 -61.611987670522169 0 -11.92166380026625 0 1 0 I I #
point $-1 -61.611987670522169 30.564374510462901 -11.92166380026625 #
straight-curve $-1 -61.611987670522169 0 -7.5725895565174817 0 -1 0 I I #
point $-1 -61.611987670522169 -30.564374510462901 -7.5725895565174817 #
point $-1 -61.611987670522169 30.564374510462901 -7.5725895565174817 #
straight-curve $-1 -61.611987670522169 30.564374510462901 0 0 0 -1 I I #
straight-curve $-1 -61.611987670522169 -30.564374510462901 0 0 0 -1 I I #
straight-curve $-1 -12.96868279149875 30.564374510462901 64.845151445316262 0 0 -1 I I #
point $-1 -12.96868279149875 30.564374510462901 11.92166380026625 #
straight-curve $-1 -10.963930817775697 30.564374510462901 3.6561205331575906 -1 0 0 I I #
point $-1 -12.96868279149875 30.564374510462898 3.6561205331575906 #
point $-1 -25.767509711573958 19.696606569033133 1.5795878851803149 #
point $-1 -18.088213559528832 19.696606569033133 1.5795878851803149 #
straight-curve $-1 -30.887040479604039 -30.564374510462898 41.431481940892851 0 0 -1 I I #
point $-1 -30.887040479604039 -30.564374510462901 11.92166380026625 #
straight-curve $-1 -10.963930817775697 -30.564374510462901 3.6561205331575986 1 0 0 I I #
point $-1 -30.887040479604039 -30.564374510462901 3.6561205331576003 #
point $-1 -25.767509711573958 -19.696606569033136 1.5795878851803167 #
point $-1 -18.088213559528832 -19.696606569033136 1.5795878851803167 #
End-of-ACIS-data 