500 0 10 0           
7 Unknown 11 ACIS 5.0 NT 24 Fri Mar 26 17:44:14 1999 
-1 9.9999999999999995e-007 1e-010 
body $-1 $10 $-1 $11 #
body $-1 $12 $-1 $13 #
body $-1 $14 $-1 $15 #
body $-1 $16 $-1 $17 #
body $-1 $18 $-1 $19 #
body $-1 $20 $-1 $21 #
body $-1 $22 $-1 $23 #
body $-1 $24 $-1 $25 #
body $-1 $26 $-1 $27 #
body $-1 $28 $-1 $29 #
lump $-1 $-1 $30 $0 #
transform $-1 1 0 0 0 1 0 0 0 1 68.64955595568712 30.163106846816099 13.782221006211453 1 rotate no_reflect no_shear #
lump $-1 $-1 $31 $1 #
transform $-1 1 0 0 0 1 0 0 0 1 68.64955595568712 30.163106846816099 13.782221006211453 1 rotate no_reflect no_shear #
lump $-1 $-1 $32 $2 #
transform $-1 1 0 0 0 1 0 0 0 1 68.64955595568712 30.163106846816099 13.782221006211453 1 rotate no_reflect no_shear #
lump $-1 $-1 $33 $3 #
transform $-1 1 0 0 0 1 0 0 0 1 68.64955595568712 30.163106846816099 13.782221006211453 1 rotate no_reflect no_shear #
lump $-1 $-1 $34 $4 #
transform $-1 1 0 0 0 1 0 0 0 1 68.64955595568712 30.163106846816099 13.782221006211453 1 rotate no_reflect no_shear #
lump $-1 $-1 $35 $5 #
transform $-1 1 0 0 0 1 0 0 0 1 68.64955595568712 30.163106846816099 13.782221006211453 1 rotate no_reflect no_shear #
lump $-1 $-1 $36 $6 #
transform $-1 1 0 0 0 1 0 0 0 1 68.64955595568712 30.163106846816099 13.782221006211453 1 rotate no_reflect no_shear #
lump $-1 $-1 $37 $7 #
transform $-1 1 0 0 0 1 0 0 0 1 68.64955595568712 30.163106846816099 13.782221006211453 1 rotate no_reflect no_shear #
lump $-1 $-1 $38 $8 #
transform $-1 1 0 0 0 1 0 0 0 1 68.64955595568712 30.163106846816099 13.782221006211453 1 rotate no_reflect no_shear #
lump $-1 $-1 $39 $9 #
transform $-1 1 0 0 0 1 0 0 0 1 68.64955595568712 30.163106846816099 13.782221006211453 1 rotate no_reflect no_shear #
shell $-1 $-1 $-1 $40 $-1 $10 #
shell $-1 $-1 $-1 $41 $-1 $12 #
shell $-1 $-1 $-1 $42 $-1 $14 #
shell $-1 $-1 $-1 $43 $-1 $16 #
shell $-1 $-1 $-1 $44 $-1 $18 #
shell $-1 $-1 $-1 $45 $-1 $20 #
shell $-1 $-1 $-1 $46 $-1 $22 #
shell $-1 $-1 $-1 $47 $-1 $24 #
shell $-1 $-1 $-1 $48 $-1 $26 #
shell $-1 $-1 $-1 $49 $-1 $28 #
face $-1 $50 $51 $30 $-1 $52 reversed single #
face $-1 $53 $54 $31 $-1 $55 forward single #
face $-1 $56 $57 $32 $-1 $58 forward single #
face $-1 $59 $60 $33 $-1 $61 reversed single #
face $-1 $62 $63 $34 $-1 $64 forward single #
face $-1 $65 $66 $35 $-1 $67 forward single #
face $-1 $68 $69 $36 $-1 $70 forward single #
face $-1 $71 $72 $37 $-1 $73 reversed single #
face $-1 $74 $75 $38 $-1 $76 forward single #
face $-1 $77 $78 $39 $-1 $79 forward single #
face $-1 $80 $81 $30 $-1 $82 forward single #
loop $-1 $-1 $83 $40 #
plane-surface $-1 68.64955595568712 0 0 -1 0 0 0 0 1 forward_v I I I I #
face $-1 $84 $85 $31 $-1 $86 forward single #
loop $-1 $-1 $87 $41 #
plane-surface $-1 -68.64955595568712 0 0 1 0 0 0 0 -1 forward_v I I I I #
face $-1 $88 $89 $32 $-1 $90 reversed single #
loop $-1 $-1 $91 $42 #
plane-surface $-1 68.64955595568712 0 0 -1 0 0 0 0 1 forward_v I I I I #
face $-1 $92 $93 $33 $-1 $94 reversed single #
loop $-1 $-1 $95 $43 #
plane-surface $-1 0.39053565562949188 -133.78406310042305 91.172081588154171 -1 0 0 0 -0.75470958851134928 0.65605901945558964 forward_v I I I I #
face $-1 $96 $97 $34 $-1 $98 forward single #
loop $-1 $99 $100 $44 #
cone-surface $-1 -14.839738434465254 -23.166233488359122 6.1500232639805379 0 0.75470958851134928 -0.65605901945558964 1.5 0 0 1 I I 0 1 1.5 forward I I I I #
face $-1 $101 $102 $35 $-1 $103 forward single #
loop $-1 $104 $105 $45 #
cone-surface $-1 -9.128385650679725 -23.166233488359122 6.1500232639805379 0 0.75470958851134928 -0.65605901945558964 1.5 0 0 1 I I 0 1 1.5 forward I I I I #
face $-1 $106 $107 $36 $-1 $108 forward single #
loop $-1 $109 $110 $46 #
cone-surface $-1 -3.4170328668941892 -23.166233488359122 6.1500232639805379 0 0.75470958851134928 -0.65605901945558964 1.5 0 0 1 I I 0 1 1.5 forward I I I I #
face $-1 $111 $112 $37 $-1 $113 reversed single #
loop $-1 $-1 $114 $47 #
plane-surface $-1 24.200423259950512 59.49830222694721 153.96231898885998 1 0 0 0 -0.57357644374324357 -0.81915203911291934 forward_v I I I I #
face $-1 $115 $116 $38 $-1 $117 forward single #
loop $-1 $118 $119 $48 #
cone-surface $-1 29.346201759345405 23.221267619654292 7.4499233697106071 0 -0.57357644374324357 -0.81915203911291934 2.5 0 0 1 I I 0 1 2.5 forward I I I I #
face $-1 $120 $121 $39 $-1 $122 forward single #
loop $-1 $123 $124 $49 #
cone-surface $-1 37.064869508437738 23.221267619654292 7.4499233697106071 0 -0.57357644374324357 -0.81915203911291934 2.5 0 0 1 I I 0 1 2.5 forward I I I I #
face $-1 $125 $126 $30 $-1 $127 reversed single #
loop $-1 $-1 $128 $50 #
plane-surface $-1 0 0 13.782221006211453 0 0 1 1 0 0 forward_v I I I I #
coedge $-1 $129 $130 $131 $132 reversed $51 $-1 #
face $-1 $133 $134 $31 $-1 $135 reversed single #
loop $-1 $-1 $136 $53 #
plane-surface $-1 0 0 13.782221006211453 0 0 1 1 0 0 forward_v I I I I #
coedge $-1 $137 $138 $139 $140 forward $54 $-1 #
face $-1 $141 $142 $32 $-1 $143 reversed single #
loop $-1 $-1 $144 $56 #
plane-surface $-1 0 -30.163106846816099 0 0 1 0 0 0 1 forward_v I I I I #
coedge $-1 $145 $146 $147 $148 forward $57 $-1 #
face $-1 $149 $150 $33 $-1 $151 reversed single #
loop $-1 $-1 $152 $59 #
plane-surface $-1 -9.128385650679725 -30.163106846816106 1.0957608554547136 0 -0.75470958851134928 0.65605901945558964 1 0 0 forward_v I I I I #
coedge $-1 $153 $154 $155 $156 reversed $60 $-1 #
face $-1 $-1 $157 $34 $-1 $158 forward single #
loop $-1 $159 $160 $62 #
cone-surface $-1 -14.839738434465254 -21.117413577264116 4.3690113325363082 0 0.75470958851134928 -0.65605901945558964 0.75 0 0 1 I I -0.70710678118654757 0.70710678118654757 0.75 forward I I I I #
loop $-1 $-1 $161 $44 #
coedge $-1 $100 $100 $162 $163 reversed $63 $-1 #
face $-1 $-1 $164 $35 $-1 $165 forward single #
loop $-1 $166 $167 $65 #
cone-surface $-1 -9.128385650679725 -21.117413577264116 4.3690113325363082 0 0.75470958851134928 -0.65605901945558964 0.75 0 0 1 I I -0.70710678118654757 0.70710678118654757 0.75 forward I I I I #
loop $-1 $-1 $168 $45 #
coedge $-1 $105 $105 $169 $170 reversed $66 $-1 #
face $-1 $-1 $171 $36 $-1 $172 forward single #
loop $-1 $173 $174 $68 #
cone-surface $-1 -3.4170328668941892 -21.117413577264116 4.3690113325363082 0 0.75470958851134928 -0.65605901945558964 0.75 0 0 1 I I -0.70710678118654757 0.70710678118654757 0.75 forward I I I I #
loop $-1 $-1 $175 $46 #
coedge $-1 $110 $110 $176 $177 reversed $69 $-1 #
face $-1 $178 $179 $37 $-1 $180 reversed single #
loop $-1 $-1 $181 $71 #
plane-surface $-1 33.205535633891571 -19.253234112284439 41.493471498264853 0 0.57357644374324357 0.81915203911291934 1 0 0 forward_v I I I I #
coedge $-1 $182 $183 $184 $185 reversed $72 $-1 #
face $-1 $-1 $186 $38 $-1 $187 forward single #
loop $-1 $188 $189 $74 #
cone-surface $-1 29.346201759345405 20.482745120145282 3.538907995736162 0 -0.57357644374324357 -0.81915203911291934 1.25 0 0 1 I I -0.70710678118654746 0.70710678118654746 1.25 forward I I I I #
loop $-1 $-1 $190 $48 #
coedge $-1 $119 $119 $191 $192 reversed $75 $-1 #
face $-1 $-1 $193 $39 $-1 $194 forward single #
loop $-1 $195 $196 $77 #
cone-surface $-1 37.064869508437738 20.482745120145282 3.538907995736162 0 -0.57357644374324357 -0.81915203911291934 1.25 0 0 1 I I -0.70710678118654746 0.70710678118654746 1.25 forward I I I I #
loop $-1 $-1 $197 $49 #
coedge $-1 $124 $124 $198 $199 reversed $78 $-1 #
face $-1 $200 $201 $30 $-1 $202 reversed single #
loop $-1 $-1 $131 $80 #
plane-surface $-1 0 0 -13.782221006211453 0 0 1 1 0 0 forward_v I I I I #
coedge $-1 $203 $204 $205 $206 forward $81 $-1 #
coedge $-1 $205 $83 $207 $208 reversed $51 $-1 #
coedge $-1 $83 $205 $209 $210 forward $51 $-1 #
coedge $-1 $211 $212 $83 $132 forward $126 $-1 #
edge $-1 $213 -30.163106846816099 $214 30.163106846816099 $83 $215 forward 7 unknown #
face $-1 $216 $217 $31 $-1 $218 reversed single #
loop $-1 $-1 $219 $84 #
plane-surface $-1 -79.284028221134847 -28.663106846816099 0 1 0 0 0 0 -1 forward_v I I I I #
coedge $-1 $220 $221 $137 $222 forward $85 $-1 #
coedge $-1 $223 $87 $136 $222 reversed $54 $-1 #
coedge $-1 $87 $223 $224 $225 reversed $54 $-1 #
coedge $-1 $226 $227 $87 $140 reversed $217 $-1 #
edge $-1 $228 -13.782221006211453 $229 13.782221006211453 $139 $230 forward 7 unknown #
face $-1 $231 $232 $32 $-1 $233 reversed single #
loop $-1 $-1 $234 $88 #
plane-surface $-1 0 0 -13.782221006211453 0 0 1 1 0 0 forward_v I I I I #
coedge $-1 $235 $236 $237 $238 forward $89 $-1 #
coedge $-1 $237 $91 $234 $239 reversed $57 $-1 #
coedge $-1 $91 $237 $240 $241 reversed $57 $-1 #
coedge $-1 $242 $243 $91 $148 reversed $232 $-1 #
edge $-1 $244 -13.782221006211453 $245 13.782221006211453 $147 $246 forward 7 unknown #
face $-1 $247 $248 $33 $-1 $249 forward single #
loop $-1 $-1 $250 $92 #
plane-surface $-1 -18.647306956988942 -133.78406310042305 91.172081588154171 1 0 0 0 0.75470958851134928 -0.65605901945558964 forward_v I I I I #
coedge $-1 $251 $252 $253 $254 reversed $93 $-1 #
coedge $-1 $154 $95 $255 $256 reversed $60 $-1 #
coedge $-1 $95 $153 $251 $257 reversed $60 $-1 #
coedge $-1 $253 $258 $95 $156 forward $248 $-1 #
edge $-1 $259 36.728924703395428 $260 47.757095980886376 $155 $261 forward 7 unknown #
loop $-1 $-1 $162 $96 #
plane-surface $-1 -9.128385650679725 -30.163106846816106 1.0957608554547136 0 -0.75470958851134928 0.65605901945558964 1 0 0 forward_v I I I I #
loop $-1 $-1 $262 $62 #
coedge $-1 $160 $160 $161 $263 reversed $97 $-1 #
coedge $-1 $161 $161 $160 $263 forward $99 $-1 #
coedge $-1 $162 $162 $100 $163 forward $157 $-1 #
edge $-1 $264 -7.0095445221170148e-016 $264 6.2831853071795996 $162 $265 forward 7 unknown #
loop $-1 $-1 $169 $101 #
plane-surface $-1 -9.128385650679725 -30.163106846816106 1.0957608554547136 0 -0.75470958851134928 0.65605901945558964 1 0 0 forward_v I I I I #
loop $-1 $-1 $266 $65 #
coedge $-1 $167 $167 $168 $267 reversed $102 $-1 #
coedge $-1 $168 $168 $167 $267 forward $104 $-1 #
coedge $-1 $169 $169 $105 $170 forward $164 $-1 #
edge $-1 $268 -7.0095445221170148e-016 $268 6.2831853071795996 $169 $269 forward 7 unknown #
loop $-1 $-1 $176 $106 #
plane-surface $-1 -9.128385650679725 -30.163106846816106 1.0957608554547136 0 -0.75470958851134928 0.65605901945558964 1 0 0 forward_v I I I I #
loop $-1 $-1 $270 $68 #
coedge $-1 $174 $174 $175 $271 reversed $107 $-1 #
coedge $-1 $175 $175 $174 $271 forward $109 $-1 #
coedge $-1 $176 $176 $110 $177 forward $171 $-1 #
edge $-1 $272 -7.0095445221170148e-016 $272 6.2831853071795996 $176 $273 forward 7 unknown #
face $-1 $274 $275 $37 $-1 $276 reversed single #
loop $-1 $-1 $277 $111 #
plane-surface $-1 42.210648007832631 59.49830222694721 153.96231898885998 -1 0 0 0 0.57357644374324357 0.81915203911291934 forward_v I I I I #
coedge $-1 $278 $279 $280 $281 reversed $112 $-1 #
coedge $-1 $183 $114 $282 $283 reversed $72 $-1 #
coedge $-1 $114 $182 $278 $284 reversed $72 $-1 #
coedge $-1 $280 $285 $114 $185 forward $286 $-1 #
edge $-1 $287 -0.41395573334249391 $288 9.4266188313212318 $184 $289 forward 7 unknown #
loop $-1 $-1 $191 $115 #
plane-surface $-1 33.205535633891571 -19.253234112284439 41.493471498264853 0 0.57357644374324357 0.81915203911291934 1 0 0 forward_v I I I I #
loop $-1 $-1 $290 $74 #
coedge $-1 $189 $189 $190 $291 reversed $116 $-1 #
coedge $-1 $190 $190 $189 $291 forward $118 $-1 #
coedge $-1 $191 $191 $119 $192 forward $186 $-1 #
edge $-1 $292 -5.246839050350813e-016 $292 6.2831853071795996 $191 $293 forward 7 unknown #
loop $-1 $-1 $198 $120 #
plane-surface $-1 33.205535633891571 -19.253234112284439 41.493471498264853 0 0.57357644374324357 0.81915203911291934 1 0 0 forward_v I I I I #
loop $-1 $-1 $294 $77 #
coedge $-1 $196 $196 $197 $295 reversed $121 $-1 #
coedge $-1 $197 $197 $196 $295 forward $123 $-1 #
coedge $-1 $198 $198 $124 $199 forward $193 $-1 #
edge $-1 $296 -5.246839050350813e-016 $296 6.2831853071795996 $198 $297 forward 7 unknown #
face $-1 $298 $299 $30 $-1 $300 reversed single #
loop $-1 $-1 $301 $125 #
plane-surface $-1 0 -30.163106846816099 0 0 1 0 0 0 1 forward_v I I I I #
coedge $-1 $302 $128 $303 $304 forward $81 $-1 #
coedge $-1 $128 $302 $305 $306 forward $81 $-1 #
coedge $-1 $130 $129 $128 $206 reversed $51 $-1 #
edge $-1 $307 -30.163106846816099 $308 30.163106846816099 $205 $309 forward 7 unknown #
coedge $-1 $310 $303 $129 $208 forward $311 $-1 #
edge $-1 $308 -13.782221006211453 $213 13.782221006211453 $129 $312 forward 7 unknown #
coedge $-1 $305 $313 $130 $210 reversed $201 $-1 #
edge $-1 $307 -13.782221006211453 $214 13.782221006211453 $130 $314 forward 7 unknown #
coedge $-1 $315 $131 $313 $316 forward $126 $-1 #
coedge $-1 $131 $315 $310 $317 forward $126 $-1 #
vertex $-1 $132 $318 #
vertex $-1 $210 $319 #
straight-curve $-1 68.64955595568712 0 -13.782221006211453 0 -1 0 I I #
face $-1 $320 $321 $31 $-1 $322 reversed single #
loop $-1 $-1 $139 $133 #
plane-surface $-1 -73.966792088410983 -27.163106846816099 0 0 -1 0 0 0 -1 forward_v I I I I #
coedge $-1 $323 $324 $325 $326 forward $134 $-1 #
coedge $-1 $327 $136 $227 $328 forward $85 $-1 #
coedge $-1 $136 $327 $329 $330 forward $85 $-1 #
edge $-1 $331 -30.163106846816099 $229 -27.163106846816099 $136 $332 forward 7 unknown #
coedge $-1 $138 $137 $333 $334 reversed $54 $-1 #
coedge $-1 $335 $336 $138 $225 forward $321 $-1 #
edge $-1 $228 27.163106846816099 $337 30.163106846816099 $224 $338 forward 7 unknown #
coedge $-1 $325 $139 $336 $339 reversed $217 $-1 #
coedge $-1 $139 $325 $220 $328 reversed $217 $-1 #
vertex $-1 $225 $340 #
vertex $-1 $328 $341 #
straight-curve $-1 -68.64955595568712 -27.163106846816099 0 0 0 1 I I #
face $-1 $342 $343 $32 $-1 $344 reversed single #
loop $-1 $-1 $345 $141 #
plane-surface $-1 73.966792088410998 -27.163106846816099 0 0 -1 0 0 0 -1 forward_v I I I I #
coedge $-1 $346 $347 $145 $239 forward $142 $-1 #
coedge $-1 $348 $144 $347 $349 reversed $89 $-1 #
coedge $-1 $144 $348 $350 $351 reversed $89 $-1 #
coedge $-1 $146 $145 $144 $238 reversed $57 $-1 #
edge $-1 $352 -13.782221006211453 $353 13.782221006211453 $144 $354 forward 7 unknown #
edge $-1 $353 -30.163106846816099 $245 -27.163106846816099 $234 $355 forward 7 unknown #
coedge $-1 $350 $356 $146 $241 forward $357 $-1 #
edge $-1 $244 27.163106846816099 $352 30.163106846816099 $240 $358 forward 7 unknown #
coedge $-1 $345 $147 $356 $359 reversed $232 $-1 #
coedge $-1 $147 $345 $346 $360 reversed $232 $-1 #
vertex $-1 $241 $361 #
vertex $-1 $360 $362 #
straight-curve $-1 68.64955595568712 -27.163106846816099 0 0 0 -1 I I #
face $-1 $-1 $363 $33 $-1 $364 reversed single #
loop $-1 $-1 $155 $149 #
plane-surface $-1 0 0 13.782221006211453 0 0 1 1 0 0 forward_v I I I I #
coedge $-1 $365 $366 $367 $368 reversed $150 $-1 #
coedge $-1 $369 $152 $154 $257 forward $93 $-1 #
coedge $-1 $152 $369 $365 $370 forward $93 $-1 #
coedge $-1 $367 $155 $152 $254 forward $248 $-1 #
edge $-1 $260 -4.9547284809693544 $371 14.083114131649079 $253 $372 forward 7 unknown #
coedge $-1 $373 $374 $153 $256 forward $363 $-1 #
edge $-1 $375 -44.490279938622365 $259 -31.803819787865635 $255 $376 forward 7 unknown #
edge $-1 $260 -16.809724354742265 $375 -1.086200982436365e-014 $154 $377 forward 7 unknown #
coedge $-1 $155 $367 $373 $378 forward $248 $-1 #
vertex $-1 $156 $379 #
vertex $-1 $156 $380 #
straight-curve $-1 0.39053565562949188 -66.892031550211527 13.782221006211451 0 1 0 I I #
coedge $-1 $262 $262 $-1 $381 reversed $159 $-1 #
edge $-1 $382 0 $382 6.2831853071796004 $160 $383 forward 7 unknown #
vertex $-1 $163 $384 #
ellipse-curve $-1 -14.839738434465254 -24.649021208070629 7.4389909308330857 0 -0.75470958851134928 0.65605901945558964 1.5 0 0 1 I I #
coedge $-1 $266 $266 $-1 $385 reversed $166 $-1 #
edge $-1 $386 0 $386 6.2831853071796004 $167 $387 forward 7 unknown #
vertex $-1 $170 $388 #
ellipse-curve $-1 -9.128385650679725 -24.649021208070629 7.4389909308330857 0 -0.75470958851134928 0.65605901945558964 1.5 0 0 1 I I #
coedge $-1 $270 $270 $-1 $389 reversed $173 $-1 #
edge $-1 $390 0 $390 6.2831853071796004 $174 $391 forward 7 unknown #
vertex $-1 $177 $392 #
ellipse-curve $-1 -3.4170328668941892 -24.649021208070629 7.4389909308330857 0 -0.75470958851134928 0.65605901945558964 1.5 0 0 1 I I #
face $-1 $-1 $286 $37 $-1 $393 forward single #
loop $-1 $-1 $394 $178 #
plane-surface $-1 0 30.163106846816099 0 0 -1 0 0 0 -1 forward_v I I I I #
coedge $-1 $395 $396 $397 $398 reversed $179 $-1 #
coedge $-1 $399 $181 $183 $284 forward $112 $-1 #
coedge $-1 $181 $399 $395 $400 forward $112 $-1 #
coedge $-1 $397 $184 $181 $281 forward $286 $-1 #
edge $-1 $288 7.5976554430047258 $401 25.607880190886846 $280 $402 forward 7 unknown #
coedge $-1 $403 $404 $182 $283 forward $275 $-1 #
edge $-1 $405 -70.08938311105365 $287 -63.198938488218538 $282 $406 forward 7 unknown #
edge $-1 $288 48.313090250369662 $405 60.326213693632198 $183 $407 forward 7 unknown #
coedge $-1 $184 $397 $403 $408 forward $286 $-1 #
loop $-1 $-1 $397 $274 #
vertex $-1 $283 $409 #
vertex $-1 $185 $410 #
straight-curve $-1 24.200423259950512 29.749151113473605 13.782221006211458 0 -1 0 I I #
coedge $-1 $290 $290 $-1 $411 reversed $188 $-1 #
edge $-1 $412 0 $412 6.2831853071796004 $189 $413 forward 7 unknown #
vertex $-1 $192 $414 #
ellipse-curve $-1 29.346201759345405 25.24281956448424 10.336998694793891 0 0.57357644374324357 0.81915203911291934 2.5 0 0 1 I I #
coedge $-1 $294 $294 $-1 $415 reversed $195 $-1 #
edge $-1 $416 0 $416 6.2831853071796004 $196 $417 forward 7 unknown #
vertex $-1 $199 $418 #
ellipse-curve $-1 37.064869508437738 25.24281956448424 10.336998694793891 0 0.57357644374324357 0.81915203911291934 2.5 0 0 1 I I #
face $-1 $-1 $311 $30 $-1 $419 reversed single #
loop $-1 $-1 $420 $200 #
plane-surface $-1 -68.64955595568712 0 0 1 0 0 0 0 -1 forward_v I I I I #
coedge $-1 $313 $305 $421 $422 forward $201 $-1 #
coedge $-1 $204 $203 $420 $423 forward $81 $-1 #
coedge $-1 $207 $424 $203 $304 reversed $311 $-1 #
edge $-1 $308 -68.64955595568712 $425 68.64955595568712 $303 $426 forward 7 unknown #
coedge $-1 $301 $209 $204 $306 reversed $201 $-1 #
edge $-1 $427 -68.64955595568712 $307 68.64955595568712 $305 $428 forward 7 unknown #
vertex $-1 $206 $429 #
vertex $-1 $206 $430 #
straight-curve $-1 68.64955595568712 0 13.782221006211453 0 1 0 I I #
coedge $-1 $424 $207 $212 $317 reversed $311 $-1 #
loop $-1 $-1 $207 $298 #
straight-curve $-1 68.64955595568712 30.163106846816099 0 0 0 -1 I I #
coedge $-1 $209 $301 $211 $316 reversed $201 $-1 #
straight-curve $-1 68.64955595568712 -30.163106846816099 0 0 0 -1 I I #
coedge $-1 $212 $211 $431 $432 forward $126 $-1 #
edge $-1 $214 -68.64955595568712 $433 68.64955595568712 $313 $434 forward 7 unknown #
edge $-1 $435 -68.64955595568712 $213 68.64955595568712 $310 $436 forward 7 unknown #
point $-1 68.64955595568712 30.163106846816099 -13.782221006211453 #
point $-1 68.64955595568712 -30.163106846816099 -13.782221006211453 #
face $-1 $-1 $437 $31 $-1 $438 reversed single #
loop $-1 $-1 $224 $216 #
plane-surface $-1 0 0 -13.782221006211453 0 0 1 1 0 0 forward_v I I I I #
coedge $-1 $439 $219 $440 $441 reversed $134 $-1 #
coedge $-1 $219 $439 $327 $442 reversed $134 $-1 #
coedge $-1 $227 $226 $219 $326 reversed $217 $-1 #
edge $-1 $443 -13.782221006211453 $444 13.782221006211453 $325 $445 forward 7 unknown #
coedge $-1 $221 $220 $324 $442 forward $85 $-1 #
edge $-1 $229 -5.3172361327238633 $443 5.3172361327238633 $227 $446 forward 7 unknown #
coedge $-1 $447 $333 $221 $330 reversed $437 $-1 #
edge $-1 $448 -79.284028221134847 $331 -68.64955595568712 $329 $449 forward 7 unknown #
vertex $-1 $334 $450 #
straight-curve $-1 -68.64955595568712 0 13.782221006211453 0 1 0 I I #
coedge $-1 $329 $451 $223 $334 forward $437 $-1 #
edge $-1 $337 -13.782221006211453 $331 13.782221006211453 $333 $452 forward 7 unknown #
coedge $-1 $440 $224 $451 $453 forward $321 $-1 #
coedge $-1 $224 $440 $226 $339 forward $321 $-1 #
vertex $-1 $453 $454 #
straight-curve $-1 -68.64955595568712 0 -13.782221006211453 0 -1 0 I I #
edge $-1 $444 -5.3172361327238633 $228 5.3172361327238633 $226 $455 forward 7 unknown #
point $-1 -68.64955595568712 -27.163106846816099 -13.782221006211453 #
point $-1 -68.64955595568712 -27.163106846816099 13.782221006211453 #
face $-1 $-1 $357 $32 $-1 $456 forward single #
loop $-1 $-1 $457 $231 #
plane-surface $-1 79.284028221134861 -28.663106846816099 0 -1 0 0 0 0 1 forward_v I I I I #
coedge $-1 $243 $242 $458 $459 forward $232 $-1 #
coedge $-1 $460 $234 $243 $360 forward $142 $-1 #
coedge $-1 $234 $460 $235 $349 forward $142 $-1 #
coedge $-1 $236 $235 $457 $461 reversed $89 $-1 #
edge $-1 $462 -5.3172361327238633 $353 5.3172361327238775 $235 $463 forward 7 unknown #
coedge $-1 $464 $240 $236 $351 forward $357 $-1 #
edge $-1 $352 -5.3172361327238775 $465 5.3172361327238633 $236 $466 forward 7 unknown #
vertex $-1 $351 $467 #
vertex $-1 $239 $468 #
straight-curve $-1 68.64955595568712 -30.163106846816099 0 0 0 -1 I I #
straight-curve $-1 68.64955595568712 0 -13.782221006211453 0 1 0 I I #
coedge $-1 $240 $464 $242 $359 forward $357 $-1 #
loop $-1 $-1 $240 $342 #
straight-curve $-1 68.64955595568712 0 13.782221006211453 0 -1 0 I I #
edge $-1 $469 -5.3172361327238633 $244 5.3172361327238633 $242 $470 forward 7 unknown #
edge $-1 $245 -5.3172361327238633 $471 5.3172361327238633 $243 $472 forward 7 unknown #
point $-1 68.649555955687134 -27.163106846816099 13.782221006211453 #
point $-1 68.649555955687134 -27.163106846816099 -13.782221006211453 #
loop $-1 $-1 $255 $247 #
plane-surface $-1 0 -30.163106846816099 0 0 1 0 0 0 1 forward_v I I I I #
coedge $-1 $366 $250 $252 $370 reversed $150 $-1 #
coedge $-1 $250 $365 $473 $474 reversed $150 $-1 #
coedge $-1 $258 $253 $250 $368 forward $248 $-1 #
edge $-1 $371 -47.757095980886376 $475 -36.728924703395428 $367 $476 forward 7 unknown #
coedge $-1 $252 $251 $374 $477 reversed $93 $-1 #
edge $-1 $478 1.086200982436365e-014 $371 16.809724354742265 $365 $479 forward 7 unknown #
vertex $-1 $254 $480 #
straight-curve $-1 -4.5641928253398625 -19.134935569325151 13.782221006211453 -1 0 0 I I #
coedge $-1 $473 $255 $258 $378 reversed $363 $-1 #
coedge $-1 $255 $473 $369 $477 forward $363 $-1 #
vertex $-1 $256 $481 #
straight-curve $-1 0.39053565562949188 -30.163106846816099 45.586040794077086 0 0 1 I I #
straight-curve $-1 0.39053565562949188 -30.163106846816106 1.0957608554547136 0 -0.65605901945558964 -0.75470958851134928 I I #
edge $-1 $475 -92.614099045399939 $259 -73.576256432781506 $373 $482 forward 7 unknown #
point $-1 0.39053565562949188 -30.163106846816099 13.782221006211453 #
point $-1 0.39053565562949188 -19.134935569325155 13.782221006211451 #
edge $-1 $483 1 $483 0 $262 $-1 forward 7 unknown #
vertex $-1 $263 $484 #
ellipse-curve $-1 -14.839738434465254 -21.68344576864763 4.8610555971280007 0 -0.75470958851134928 0.65605901945558964 1.5 0 0 1 I I #
point $-1 -13.339738434465254 -24.649021208070618 7.4389909308330751 #
edge $-1 $485 1 $485 0 $266 $-1 forward 7 unknown #
vertex $-1 $267 $486 #
ellipse-curve $-1 -9.128385650679725 -21.68344576864763 4.8610555971280007 0 -0.75470958851134928 0.65605901945558964 1.5 0 0 1 I I #
point $-1 -7.628385650679725 -24.649021208070618 7.4389909308330751 #
edge $-1 $487 1 $487 0 $270 $-1 forward 7 unknown #
vertex $-1 $271 $488 #
ellipse-curve $-1 -3.4170328668941892 -21.68344576864763 4.8610555971280007 0 -0.75470958851134928 0.65605901945558964 1.5 0 0 1 I I #
point $-1 -1.9170328668941892 -24.649021208070618 7.4389909308330751 #
plane-surface $-1 0 0 13.782221006211453 0 0 1 1 0 0 forward_v I I I I #
coedge $-1 $404 $403 $396 $489 forward $275 $-1 #
coedge $-1 $396 $277 $279 $400 reversed $179 $-1 #
coedge $-1 $277 $395 $394 $489 reversed $179 $-1 #
coedge $-1 $285 $280 $277 $398 forward $286 $-1 #
edge $-1 $401 -9.4266188313212318 $490 0.41395573334249391 $397 $491 forward 7 unknown #
coedge $-1 $279 $278 $404 $492 reversed $112 $-1 #
edge $-1 $493 -60.326213693632198 $401 -48.313090250369662 $395 $494 forward 7 unknown #
vertex $-1 $281 $495 #
straight-curve $-1 16.602767816945786 20.322532282152373 13.782221006211451 1 0 0 I I #
coedge $-1 $394 $282 $285 $408 reversed $275 $-1 #
coedge $-1 $282 $394 $399 $492 forward $275 $-1 #
vertex $-1 $283 $496 #
straight-curve $-1 24.200423259950512 30.163106846816099 76.981159494429988 0 0 1 I I #
straight-curve $-1 24.200423259950512 -19.253234112284439 41.493471498264853 0 0.81915203911291934 -0.57357644374324357 I I #
edge $-1 $490 -42.210648007832631 $287 -24.200423259950512 $403 $497 forward 7 unknown #
point $-1 24.200423259950512 30.163106846816099 13.782221006211453 #
point $-1 24.200423259950512 20.322532282152373 13.782221006211451 #
edge $-1 $498 1 $498 0 $290 $-1 forward 7 unknown #
vertex $-1 $291 $499 #
ellipse-curve $-1 29.346201759345405 21.199715674824336 4.5628480446273114 0 0.57357644374324357 0.81915203911291934 2.5 0 0 1 I I #
point $-1 31.846201759345405 25.242819564484247 10.336998694793904 #
edge $-1 $500 1 $500 0 $294 $-1 forward 7 unknown #
vertex $-1 $295 $501 #
ellipse-curve $-1 37.064869508437738 21.199715674824336 4.5628480446273114 0 0.57357644374324357 0.81915203911291934 2.5 0 0 1 I I #
point $-1 39.564869508437738 25.242819564484247 10.336998694793904 #
plane-surface $-1 0 30.163106846816099 0 0 -1 0 0 0 -1 forward_v I I I I #
coedge $-1 $502 $421 $302 $423 reversed $299 $-1 #
coedge $-1 $420 $431 $301 $422 reversed $299 $-1 #
edge $-1 $427 -13.782221006211453 $433 13.782221006211453 $421 $503 forward 7 unknown #
edge $-1 $425 -30.163106846816099 $427 30.163106846816099 $420 $504 forward 7 unknown #
coedge $-1 $303 $310 $502 $505 reversed $311 $-1 #
vertex $-1 $304 $506 #
straight-curve $-1 0 30.163106846816099 13.782221006211453 -1 0 0 I I #
vertex $-1 $423 $507 #
straight-curve $-1 0 -30.163106846816099 13.782221006211453 1 0 0 I I #
point $-1 68.64955595568712 -30.163106846816099 13.782221006211453 #
point $-1 68.64955595568712 30.163106846816099 13.782221006211453 #
coedge $-1 $421 $502 $315 $432 reversed $299 $-1 #
edge $-1 $433 -30.163106846816099 $435 30.163106846816099 $431 $508 forward 7 unknown #
vertex $-1 $432 $509 #
straight-curve $-1 0 -30.163106846816099 -13.782221006211453 -1 0 0 I I #
vertex $-1 $317 $510 #
straight-curve $-1 0 30.163106846816099 -13.782221006211453 1 0 0 I I #
loop $-1 $-1 $333 $320 #
plane-surface $-1 0 -30.163106846816099 0 0 1 0 0 0 1 forward_v I I I I #
coedge $-1 $324 $323 $447 $511 reversed $134 $-1 #
coedge $-1 $336 $335 $323 $441 forward $321 $-1 #
edge $-1 $512 -1.5 $444 1.5 $323 $513 forward 7 unknown #
edge $-1 $443 -1.5 $448 1.5 $324 $514 forward 7 unknown #
vertex $-1 $328 $515 #
vertex $-1 $339 $516 #
straight-curve $-1 -79.284028221134847 -27.163106846816099 0 0 0 -1 I I #
straight-curve $-1 -73.966792088410983 -27.163106846816099 13.782221006211453 -1 0 0 I I #
coedge $-1 $451 $329 $439 $511 forward $437 $-1 #
vertex $-1 $442 $517 #
straight-curve $-1 0 -30.163106846816099 13.782221006211453 1 0 0 I I #
point $-1 -68.64955595568712 -30.163106846816099 13.782221006211453 #
coedge $-1 $333 $447 $335 $453 reversed $437 $-1 #
straight-curve $-1 -68.64955595568712 -30.163106846816099 0 0 0 1 I I #
edge $-1 $337 -5.3172361327238633 $512 5.3172361327238633 $451 $518 forward 7 unknown #
point $-1 -68.64955595568712 -30.163106846816099 -13.782221006211453 #
straight-curve $-1 -73.966792088410983 -27.163106846816099 -13.782221006211453 1 0 0 I I #
plane-surface $-1 0 0 13.782221006211453 0 0 1 1 0 0 forward_v I I I I #
coedge $-1 $519 $520 $348 $461 forward $343 $-1 #
coedge $-1 $520 $519 $345 $459 reversed $343 $-1 #
edge $-1 $469 -13.782221006211453 $471 13.782221006211453 $458 $521 forward 7 unknown #
coedge $-1 $347 $346 $519 $522 forward $142 $-1 #
edge $-1 $465 -13.782221006211453 $462 13.782221006211453 $457 $523 forward 7 unknown #
vertex $-1 $461 $524 #
straight-curve $-1 73.966792088410998 -30.163106846816099 -13.782221006211453 -1 0 0 I I #
coedge $-1 $356 $350 $520 $525 forward $357 $-1 #
vertex $-1 $525 $526 #
straight-curve $-1 73.966792088410998 -30.163106846816099 13.782221006211453 1 0 0 I I #
point $-1 68.64955595568712 -30.163106846816099 13.782221006211453 #
point $-1 68.64955595568712 -30.163106846816099 -13.782221006211453 #
vertex $-1 $525 $527 #
straight-curve $-1 73.966792088410998 -27.163106846816099 13.782221006211453 -1 0 0 I I #
vertex $-1 $522 $528 #
straight-curve $-1 73.966792088410998 -27.163106846816099 -13.782221006211453 1 0 0 I I #
coedge $-1 $374 $373 $366 $474 forward $363 $-1 #
edge $-1 $475 31.803819787865635 $478 44.490279938622365 $473 $529 forward 7 unknown #
vertex $-1 $378 $530 #
straight-curve $-1 -18.647306956988942 -66.892031550211527 13.782221006211451 0 -1 0 I I #
edge $-1 $478 -14.083114131649079 $375 4.9547284809693544 $374 $531 forward 7 unknown #
vertex $-1 $477 $532 #
straight-curve $-1 -18.647306956988942 -30.163106846816106 1.0957608554547136 0 0.65605901945558964 0.75470958851134928 I I #
point $-1 -18.647306956988942 -19.134935569325155 13.782221006211451 #
point $-1 0.39053565562949188 -30.163106846816099 1.0957608554547218 #
straight-curve $-1 73.966792088410998 -30.163106846816099 13.782221006211453 1 0 0 I I #
vertex $-1 $381 $533 #
point $-1 -13.339738434465254 -21.68344576864763 4.8610555971280007 #
vertex $-1 $385 $534 #
point $-1 -7.628385650679725 -21.68344576864763 4.8610555971280007 #
vertex $-1 $389 $535 #
point $-1 -1.9170328668941892 -21.68344576864763 4.8610555971280007 #
edge $-1 $490 63.198938488218538 $493 70.08938311105365 $394 $536 forward 7 unknown #
vertex $-1 $408 $537 #
straight-curve $-1 42.210648007832631 29.749151113473605 13.782221006211458 0 1 0 I I #
edge $-1 $493 -25.607880190886846 $405 -7.5976554430047258 $404 $538 forward 7 unknown #
vertex $-1 $492 $539 #
straight-curve $-1 42.210648007832631 -19.253234112284439 41.493471498264853 0 -0.81915203911291934 0.57357644374324357 I I #
point $-1 42.210648007832631 20.322532282152373 13.782221006211451 #
point $-1 24.200423259950512 30.163106846816099 6.8917763833763317 #
straight-curve $-1 0 30.163106846816099 13.782221006211453 -1 0 0 I I #
vertex $-1 $411 $540 #
point $-1 31.846201759345405 21.199715674824336 4.5628480446273114 #
vertex $-1 $415 $541 #
point $-1 39.564869508437738 21.199715674824336 4.5628480446273114 #
coedge $-1 $431 $420 $424 $505 forward $299 $-1 #
straight-curve $-1 -68.64955595568712 -30.163106846816099 0 0 0 -1 I I #
straight-curve $-1 -68.64955595568712 0 13.782221006211453 0 -1 0 I I #
edge $-1 $425 -13.782221006211453 $435 13.782221006211453 $424 $542 forward 7 unknown #
point $-1 -68.64955595568712 30.163106846816099 13.782221006211453 #
point $-1 -68.64955595568712 -30.163106846816099 13.782221006211453 #
straight-curve $-1 -68.64955595568712 0 -13.782221006211453 0 1 0 I I #
point $-1 -68.64955595568712 -30.163106846816099 -13.782221006211453 #
point $-1 -68.64955595568712 30.163106846816099 -13.782221006211453 #
edge $-1 $448 -13.782221006211453 $512 13.782221006211453 $439 $543 forward 7 unknown #
vertex $-1 $441 $544 #
straight-curve $-1 -79.284028221134847 -28.663106846816099 -13.782221006211453 0 1 0 I I #
straight-curve $-1 -79.284028221134847 -28.663106846816099 13.782221006211453 0 -1 0 I I #
point $-1 -79.284028221134847 -27.163106846816099 13.782221006211453 #
point $-1 -79.284028221134847 -27.163106846816099 -13.782221006211453 #
point $-1 -79.284028221134847 -30.163106846816099 13.782221006211453 #
straight-curve $-1 -73.966792088410983 -30.163106846816099 -13.782221006211453 -1 0 0 I I #
coedge $-1 $458 $457 $460 $522 reversed $343 $-1 #
coedge $-1 $457 $458 $464 $525 reversed $343 $-1 #
straight-curve $-1 79.284028221134861 -27.163106846816099 0 0 0 -1 I I #
edge $-1 $471 -1.5 $462 1.5 $519 $545 forward 7 unknown #
straight-curve $-1 79.284028221134861 -30.163106846816099 0 0 0 -1 I I #
point $-1 79.284028221134861 -30.163106846816099 -13.782221006211453 #
edge $-1 $465 -1.5 $469 1.5 $520 $546 forward 7 unknown #
point $-1 79.284028221134861 -30.163106846816099 13.782221006211453 #
point $-1 79.284028221134861 -27.163106846816099 13.782221006211453 #
point $-1 79.284028221134861 -27.163106846816099 -13.782221006211453 #
straight-curve $-1 -18.647306956988942 -30.163106846816099 45.586040794077086 0 0 -1 I I #
point $-1 -18.647306956988942 -30.163106846816099 13.782221006211453 #
straight-curve $-1 -4.5641928253398625 -30.163106846816099 1.09576085545472 1 0 0 I I #
point $-1 -18.647306956988942 -30.163106846816099 1.0957608554547218 #
point $-1 -14.839738434465254 -20.551381385880603 3.8769670679446158 #
point $-1 -9.128385650679725 -20.551381385880603 3.8769670679446158 #
point $-1 -3.4170328668941892 -20.551381385880603 3.8769670679446158 #
straight-curve $-1 42.210648007832631 30.163106846816099 76.981159494429988 0 0 -1 I I #
point $-1 42.210648007832631 30.163106846816099 13.782221006211453 #
straight-curve $-1 16.602767816945786 30.163106846816103 6.8917763833763281 -1 0 0 I I #
point $-1 42.210648007832631 30.163106846816099 6.8917763833763317 #
point $-1 29.346201759345405 19.765774565466227 2.5149679468450126 #
point $-1 37.064869508437738 19.765774565466227 2.5149679468450126 #
straight-curve $-1 -68.64955595568712 30.163106846816099 0 0 0 -1 I I #
straight-curve $-1 -79.284028221134847 -30.163106846816099 0 0 0 -1 I I #
point $-1 -79.284028221134847 -30.163106846816099 -13.782221006211453 #
straight-curve $-1 79.284028221134861 -28.663106846816099 -13.782221006211453 0 -1 0 I I #
straight-curve $-1 79.284028221134861 -28.663106846816099 13.782221006211453 0 1 0 I I #
End-of-ACIS-data 