500 0 6 0           
7 Unknown 11 ACIS 5.0 NT 24 Thu Mar 25 15:12:56 1999 
-1 9.9999999999999995e-007 1e-010 
body $-1 $6 $-1 $7 #
body $-1 $8 $-1 $9 #
body $-1 $10 $-1 $11 #
body $-1 $12 $-1 $13 #
body $-1 $14 $-1 $15 #
body $-1 $16 $-1 $17 #
lump $-1 $-1 $18 $0 #
transform $-1 1 0 0 0 1 0 0 0 1 50.183416241950738 34.072559368962651 11.048651541582656 1 rotate no_reflect no_shear #
lump $-1 $-1 $19 $1 #
transform $-1 1 0 0 0 1 0 0 0 1 50.183416241950738 34.072559368962651 11.048651541582656 1 rotate no_reflect no_shear #
lump $-1 $-1 $20 $2 #
transform $-1 1 0 0 0 1 0 0 0 1 50.183416241950738 34.072559368962651 11.048651541582656 1 rotate no_reflect no_shear #
lump $-1 $-1 $21 $3 #
transform $-1 1 0 0 0 1 0 0 0 1 50.183416241950738 34.072559368962651 11.048651541582656 1 rotate no_reflect no_shear #
lump $-1 $-1 $22 $4 #
transform $-1 1 0 0 0 1 0 0 0 1 50.183416241950738 34.072559368962651 11.048651541582656 1 rotate no_reflect no_shear #
lump $-1 $-1 $23 $5 #
transform $-1 1 0 0 0 1 0 0 0 1 50.183416241950738 34.072559368962651 11.048651541582656 1 rotate no_reflect no_shear #
shell $-1 $-1 $-1 $24 $-1 $6 #
shell $-1 $-1 $-1 $25 $-1 $8 #
shell $-1 $-1 $-1 $26 $-1 $10 #
shell $-1 $-1 $-1 $27 $-1 $12 #
shell $-1 $-1 $-1 $28 $-1 $14 #
shell $-1 $-1 $-1 $29 $-1 $16 #
face $-1 $30 $31 $18 $-1 $32 forward single #
face $-1 $33 $34 $19 $-1 $35 forward single #
face $-1 $36 $37 $20 $-1 $38 reversed single #
face $-1 $39 $40 $21 $-1 $41 forward single #
face $-1 $42 $43 $22 $-1 $44 reversed single #
face $-1 $45 $46 $23 $-1 $47 forward single #
face $-1 $48 $49 $18 $-1 $50 reversed single #
loop $-1 $-1 $51 $24 #
plane-surface $-1 0 0 11.048651541582656 0 0 1 1 0 0 forward_v I I I I #
face $-1 $52 $53 $19 $-1 $54 reversed single #
loop $-1 $-1 $55 $25 #
plane-surface $-1 0 -27.859678073390633 -2.1523720452879753 0 0 1 1 0 0 forward_v I I I I #
face $-1 $56 $57 $20 $-1 $58 reversed single #
loop $-1 $-1 $59 $26 #
plane-surface $-1 69.937667000333448 -3.3130308378179336 144.24229399138093 0 1 0 0.79863551827123203 0 0.60181501223851219 forward_v I I I I #
face $-1 $60 $61 $21 $-1 $62 forward single #
loop $-1 $63 $64 $27 #
cone-surface $-1 44.228335862018902 2.0232747163610156 4.9697305180058713 -0.79863551827123203 0 -0.60181501223851219 1.2036300244770244 0 -1.5972710365424641 1 I I 0 1 2 forward I I I I #
face $-1 $65 $66 $22 $-1 $67 reversed single #
loop $-1 $-1 $68 $28 #
plane-surface $-1 -106.30783744021689 -7.7830037590442984 83.618818430758765 0 1 0 -0.55919291073839883 0 0.82903756765294845 forward_v I I I I #
face $-1 $69 $70 $23 $-1 $71 forward single #
loop $-1 $72 $73 $29 #
cone-surface $-1 -41.374020628162022 -1.9285184525422068 4.3601032069946388 0.55919291073839883 0 -0.82903756765294845 1.6580751353058969 0 1.1183858214767977 1 I I 0 1 2 forward I I I I #
face $-1 $74 $75 $18 $-1 $76 reversed single #
loop $-1 $-1 $77 $30 #
plane-surface $-1 0 0 -11.048651541582656 0 0 1 1 0 0 forward_v I I I I #
coedge $-1 $78 $79 $80 $81 forward $31 $-1 #
face $-1 $82 $83 $19 $-1 $84 reversed single #
loop $-1 $-1 $85 $33 #
plane-surface $-1 0 -27.859678073390633 -6.8415159256607083 0 0 1 1 0 0 forward_v I I I I #
coedge $-1 $86 $87 $88 $89 reversed $34 $-1 #
face $-1 $90 $91 $20 $-1 $92 reversed single #
loop $-1 $-1 $93 $36 #
plane-surface $-1 -10.218850277689128 2.0232747163610156 83.840027471741067 0.79863551827123203 0 0.60181501223851219 0.60181501223851219 0 -0.79863551827123203 forward_v I I I I #
coedge $-1 $94 $95 $96 $97 reversed $37 $-1 #
face $-1 $-1 $98 $21 $-1 $99 forward single #
loop $-1 $100 $101 $39 #
cone-surface $-1 40.249635931048289 2.0232747163610156 1.9715651561226668 -0.79863551827123203 0 -0.60181501223851219 0.60181501223851219 0 -0.79863551827123203 1 I I -0.70710678118654746 0.70710678118654746 1 forward I I I I #
loop $-1 $-1 $102 $27 #
coedge $-1 $64 $64 $103 $104 reversed $40 $-1 #
face $-1 $105 $106 $22 $-1 $107 reversed single #
loop $-1 $-1 $108 $42 #
plane-surface $-1 -50.183416241950738 -1.9285184525422068 0.41094375527414684 -0.55919291073839883 0 0.82903756765294845 0.82903756765294845 0 0.55919291073839883 forward_v I I I I #
coedge $-1 $109 $110 $111 $112 reversed $43 $-1 #
face $-1 $-1 $113 $23 $-1 $114 forward single #
loop $-1 $115 $116 $45 #
cone-surface $-1 -39.89095713373473 -1.9285184525422068 2.1613711979079291 0.55919291073839883 0 -0.82903756765294845 0.82903756765294845 0 0.55919291073839883 1 I I -0.70710678118654746 0.70710678118654746 1 forward I I I I #
loop $-1 $-1 $117 $29 #
coedge $-1 $73 $73 $118 $119 reversed $46 $-1 #
face $-1 $120 $121 $18 $-1 $122 reversed single #
loop $-1 $-1 $123 $48 #
plane-surface $-1 0 -34.072559368962651 0 0 1 0 0 0 1 forward_v I I I I #
coedge $-1 $124 $125 $126 $127 forward $49 $-1 #
coedge $-1 $128 $51 $129 $130 forward $31 $-1 #
coedge $-1 $51 $128 $131 $132 forward $31 $-1 #
coedge $-1 $133 $134 $51 $81 reversed $135 $-1 #
edge $-1 $136 -34.072559368962651 $137 34.072559368962651 $80 $138 forward 7 unknown #
face $-1 $139 $140 $19 $-1 $141 reversed single #
loop $-1 $-1 $142 $52 #
plane-surface $-1 0 -21.646796777818615 -4.496943985474342 0 -1 0 0 0 -1 forward_v I I I I #
coedge $-1 $143 $144 $145 $146 reversed $53 $-1 #
coedge $-1 $147 $55 $148 $149 forward $34 $-1 #
coedge $-1 $55 $147 $150 $151 reversed $34 $-1 #
coedge $-1 $152 $153 $55 $89 forward $154 $-1 #
edge $-1 $155 7.7169577411232986 $156 20.142720332267334 $88 $157 forward 7 unknown #
face $-1 $158 $159 $20 $-1 $160 forward single #
loop $-1 $-1 $161 $56 #
plane-surface $-1 69.937667000333448 7.3595802705399649 144.24229399138093 0 -1 0 -0.79863551827123203 0 -0.60181501223851219 forward_v I I I I #
coedge $-1 $162 $163 $164 $165 reversed $57 $-1 #
coedge $-1 $95 $59 $166 $167 reversed $37 $-1 #
coedge $-1 $59 $94 $162 $168 reversed $37 $-1 #
coedge $-1 $164 $169 $59 $97 forward $170 $-1 #
edge $-1 $171 61.072495454107809 $172 68.437636801971976 $96 $173 forward 7 unknown #
loop $-1 $-1 $103 $60 #
plane-surface $-1 -10.218850277689128 2.0232747163610156 83.840027471741067 0.79863551827123203 0 0.60181501223851219 0.60181501223851219 0 -0.79863551827123203 forward_v I I I I #
loop $-1 $-1 $174 $39 #
coedge $-1 $101 $101 $102 $175 reversed $61 $-1 #
coedge $-1 $102 $102 $101 $175 forward $63 $-1 #
coedge $-1 $103 $103 $64 $104 forward $98 $-1 #
edge $-1 $176 0 $176 6.2831853071796004 $103 $177 forward 7 unknown #
face $-1 $178 $179 $22 $-1 $180 reversed single #
loop $-1 $-1 $181 $65 #
plane-surface $-1 -106.30783744021689 3.9259668539598849 83.618818430758765 0 -1 0 0.55919291073839883 0 -0.82903756765294845 forward_v I I I I #
coedge $-1 $182 $183 $184 $185 reversed $66 $-1 #
coedge $-1 $110 $68 $186 $187 reversed $43 $-1 #
coedge $-1 $68 $109 $182 $188 reversed $43 $-1 #
coedge $-1 $184 $189 $68 $112 forward $190 $-1 #
edge $-1 $191 2.9705024781577052 $192 18.741552538357347 $111 $193 forward 7 unknown #
loop $-1 $-1 $118 $69 #
plane-surface $-1 -50.183416241950738 -1.9285184525422068 0.41094375527414684 -0.55919291073839883 0 0.82903756765294845 0.82903756765294845 0 0.55919291073839883 forward_v I I I I #
loop $-1 $-1 $194 $45 #
coedge $-1 $116 $116 $117 $195 reversed $70 $-1 #
coedge $-1 $117 $117 $116 $195 forward $72 $-1 #
coedge $-1 $118 $118 $73 $119 forward $113 $-1 #
edge $-1 $196 0 $196 6.2831853071796004 $118 $197 forward 7 unknown #
face $-1 $198 $199 $18 $-1 $200 reversed single #
loop $-1 $-1 $201 $74 #
plane-surface $-1 -50.183416241950738 0 0 1 0 0 0 0 -1 forward_v I I I I #
coedge $-1 $202 $131 $203 $204 forward $75 $-1 #
coedge $-1 $205 $77 $202 $206 forward $49 $-1 #
coedge $-1 $77 $205 $207 $208 forward $49 $-1 #
coedge $-1 $134 $133 $77 $127 reversed $135 $-1 #
edge $-1 $209 -34.072559368962651 $210 34.072559368962651 $126 $211 forward 7 unknown #
coedge $-1 $79 $78 $212 $213 forward $31 $-1 #
coedge $-1 $214 $215 $78 $130 reversed $199 $-1 #
edge $-1 $137 -50.183416241950738 $216 50.183416241950738 $129 $217 forward 7 unknown #
coedge $-1 $123 $218 $79 $132 reversed $75 $-1 #
edge $-1 $219 -50.183416241950738 $136 50.183416241950738 $131 $220 forward 7 unknown #
coedge $-1 $126 $80 $218 $221 forward $135 $-1 #
coedge $-1 $80 $126 $214 $222 reversed $135 $-1 #
loop $-1 $-1 $133 $198 #
vertex $-1 $81 $223 #
vertex $-1 $81 $224 #
straight-curve $-1 50.183416241950738 0 11.048651541582656 0 1 0 I I #
face $-1 $225 $226 $19 $-1 $227 reversed single #
loop $-1 $-1 $228 $82 #
plane-surface $-1 -50.183416241950738 0 0 1 0 0 0 0 -1 forward_v I I I I #
coedge $-1 $229 $148 $153 $230 reversed $83 $-1 #
coedge $-1 $231 $85 $232 $233 reversed $53 $-1 #
coedge $-1 $85 $231 $229 $234 forward $53 $-1 #
coedge $-1 $153 $152 $85 $146 forward $154 $-1 #
edge $-1 $235 -20.142720332267334 $236 -7.7169577411232986 $145 $237 forward 7 unknown #
coedge $-1 $87 $86 $228 $238 reversed $34 $-1 #
coedge $-1 $142 $239 $86 $149 reversed $83 $-1 #
edge $-1 $155 -50.183416241950738 $240 50.183416241950738 $148 $241 forward 7 unknown #
coedge $-1 $242 $243 $87 $151 forward $226 $-1 #
edge $-1 $156 -50.183416241950738 $244 50.183416241950738 $150 $245 forward 7 unknown #
coedge $-1 $145 $88 $243 $246 forward $154 $-1 #
coedge $-1 $88 $145 $142 $230 forward $154 $-1 #
loop $-1 $-1 $88 $225 #
vertex $-1 $89 $247 #
vertex $-1 $246 $248 #
straight-curve $-1 50.183416241950738 -13.929839036695316 -2.1523720452879753 0 -1 0 I I #
face $-1 $-1 $170 $20 $-1 $249 reversed single #
loop $-1 $-1 $250 $90 #
plane-surface $-1 0 0 11.048651541582656 0 0 1 1 0 0 forward_v I I I I #
coedge $-1 $251 $252 $253 $254 reversed $91 $-1 #
coedge $-1 $255 $93 $95 $168 forward $57 $-1 #
coedge $-1 $93 $255 $251 $256 forward $57 $-1 #
coedge $-1 $253 $96 $93 $165 forward $170 $-1 #
edge $-1 $172 -4.3246681959984414 $257 6.3479429123594571 $164 $258 forward 7 unknown #
coedge $-1 $259 $260 $94 $167 forward $159 $-1 #
edge $-1 $261 9.664550807319138 $171 15.214582741784014 $166 $262 forward 7 unknown #
edge $-1 $172 -100.36683248390148 $261 -91.144676469844967 $95 $263 forward 7 unknown #
coedge $-1 $96 $253 $259 $264 reversed $170 $-1 #
loop $-1 $-1 $253 $158 #
vertex $-1 $264 $265 #
vertex $-1 $97 $266 #
straight-curve $-1 50.183416241950738 -3.3130308378179336 72.121146995690466 0 0 -1 I I #
coedge $-1 $174 $174 $-1 $267 reversed $100 $-1 #
edge $-1 $268 0 $268 6.2831853071796004 $101 $269 forward 7 unknown #
vertex $-1 $104 $270 #
ellipse-curve $-1 47.408400274718296 2.0232747163610156 7.366080867650572 0.79863551827123203 0 0.60181501223851219 1.2036300244770244 0 -1.5972710365424641 1 I I #
face $-1 $-1 $190 $22 $-1 $271 forward single #
loop $-1 $-1 $272 $105 #
plane-surface $-1 -50.183416241950738 0 0 1 0 0 0 0 -1 forward_v I I I I #
coedge $-1 $273 $274 $275 $276 reversed $106 $-1 #
coedge $-1 $277 $108 $110 $188 forward $66 $-1 #
coedge $-1 $108 $277 $273 $278 forward $66 $-1 #
coedge $-1 $275 $111 $108 $185 forward $190 $-1 #
edge $-1 $192 -6.818744532773195 $279 4.8902260802309883 $184 $280 forward 7 unknown #
coedge $-1 $281 $282 $109 $187 forward $179 $-1 #
edge $-1 $283 -41.398465460105236 $191 -30.760757673796725 $186 $284 forward 7 unknown #
edge $-1 $192 -19.023323761851181 $283 0 $110 $285 forward 7 unknown #
coedge $-1 $111 $275 $281 $286 forward $190 $-1 #
loop $-1 $-1 $275 $178 #
vertex $-1 $187 $287 #
vertex $-1 $112 $288 #
straight-curve $-1 -53.153918720108443 -7.7830037590442984 11.048651541582657 1 0 0 I I #
coedge $-1 $194 $194 $-1 $289 reversed $115 $-1 #
edge $-1 $290 0 $290 6.2831853071796004 $116 $291 forward 7 unknown #
vertex $-1 $119 $292 #
ellipse-curve $-1 -42.297891211850917 -1.9285184525422068 5.7297976484284021 -0.55919291073839883 0 0.82903756765294845 1.6580751353058969 0 1.1183858214767977 1 I I #
face $-1 $-1 $135 $18 $-1 $293 reversed single #
loop $-1 $-1 $214 $120 #
plane-surface $-1 0 34.072559368962651 0 0 -1 0 0 0 -1 forward_v I I I I #
coedge $-1 $294 $212 $215 $295 forward $121 $-1 #
coedge $-1 $218 $123 $124 $206 reversed $75 $-1 #
coedge $-1 $212 $294 $123 $204 reversed $121 $-1 #
edge $-1 $219 -11.048651541582656 $296 11.048651541582656 $203 $297 forward 7 unknown #
coedge $-1 $125 $124 $294 $298 forward $49 $-1 #
edge $-1 $210 -50.183416241950738 $296 50.183416241950738 $202 $299 forward 7 unknown #
coedge $-1 $215 $214 $125 $208 reversed $199 $-1 #
edge $-1 $300 -50.183416241950738 $209 50.183416241950738 $207 $301 forward 7 unknown #
vertex $-1 $127 $302 #
vertex $-1 $221 $303 #
straight-curve $-1 50.183416241950738 0 -11.048651541582656 0 -1 0 I I #
coedge $-1 $201 $203 $128 $213 reversed $121 $-1 #
edge $-1 $216 -34.072559368962651 $219 34.072559368962651 $212 $304 forward 7 unknown #
coedge $-1 $207 $129 $134 $222 forward $199 $-1 #
coedge $-1 $129 $207 $201 $295 reversed $199 $-1 #
vertex $-1 $130 $305 #
straight-curve $-1 0 34.072559368962651 11.048651541582656 -1 0 0 I I #
coedge $-1 $131 $202 $133 $221 reversed $75 $-1 #
vertex $-1 $213 $306 #
straight-curve $-1 0 -34.072559368962651 11.048651541582656 1 0 0 I I #
edge $-1 $136 -11.048651541582656 $210 11.048651541582656 $133 $307 forward 7 unknown #
edge $-1 $137 -11.048651541582656 $209 11.048651541582656 $134 $308 forward 7 unknown #
point $-1 50.183416241950738 -34.072559368962651 11.048651541582656 #
point $-1 50.183416241950738 34.072559368962651 11.048651541582656 #
face $-1 $-1 $154 $19 $-1 $309 reversed single #
loop $-1 $-1 $150 $139 #
plane-surface $-1 0 -34.072559368962651 0 0 1 0 0 0 1 forward_v I I I I #
coedge $-1 $310 $311 $147 $238 forward $140 $-1 #
coedge $-1 $239 $142 $144 $234 reversed $83 $-1 #
edge $-1 $236 -4.5930439329235373 $155 0.0960999474491957 $153 $312 forward 7 unknown #
coedge $-1 $144 $143 $313 $314 reversed $53 $-1 #
coedge $-1 $243 $242 $143 $233 forward $226 $-1 #
edge $-1 $315 -50.183416241950738 $235 50.183416241950738 $232 $316 forward 7 unknown #
edge $-1 $317 -50.183416241950738 $236 50.183416241950738 $229 $318 forward 7 unknown #
vertex $-1 $233 $319 #
vertex $-1 $146 $320 #
straight-curve $-1 50.183416241950738 -13.929839036695316 -6.8415159256607083 0 1 0 I I #
edge $-1 $244 -20.142720332267334 $240 -7.7169577411232986 $228 $321 forward 7 unknown #
coedge $-1 $148 $229 $310 $322 reversed $83 $-1 #
vertex $-1 $238 $323 #
straight-curve $-1 0 -21.646796777818615 -2.1523720452879753 -1 0 0 I I #
coedge $-1 $232 $150 $311 $324 forward $226 $-1 #
coedge $-1 $150 $232 $152 $246 reversed $226 $-1 #
vertex $-1 $324 $325 #
straight-curve $-1 0 -34.072559368962651 -2.1523720452879753 -1 0 0 I I #
edge $-1 $156 2.1523720452879753 $235 6.8415159256607083 $152 $326 forward 7 unknown #
point $-1 50.183416241950738 -21.646796777818615 -2.1523720452879753 #
point $-1 50.183416241950738 -34.072559368962651 -2.1523720452879753 #
plane-surface $-1 50.183416241950738 0 0 -1 0 0 0 0 1 forward_v I I I I #
coedge $-1 $260 $259 $252 $327 forward $159 $-1 #
coedge $-1 $252 $161 $163 $256 reversed $91 $-1 #
coedge $-1 $161 $251 $250 $327 reversed $91 $-1 #
coedge $-1 $169 $164 $161 $254 forward $170 $-1 #
edge $-1 $257 -68.437636801971976 $328 -61.072495454107809 $253 $329 forward 7 unknown #
coedge $-1 $163 $162 $260 $330 reversed $57 $-1 #
edge $-1 $331 91.144676469844967 $257 100.36683248390148 $251 $332 forward 7 unknown #
vertex $-1 $165 $333 #
straight-curve $-1 50.183416241950738 1.0116373581805078 3.6835101937184973 0 1 0 I I #
coedge $-1 $250 $166 $169 $264 forward $159 $-1 #
coedge $-1 $166 $250 $255 $330 forward $159 $-1 #
vertex $-1 $167 $334 #
straight-curve $-1 34.968833500166724 -3.3130308378179336 11.048651541582657 1 0 0 I I #
straight-curve $-1 -10.218850277689128 -3.3130308378179336 83.840027471741067 -0.60181501223851219 0 0.79863551827123203 I I #
edge $-1 $171 -3.3130308378179336 $328 7.3595802705399649 $169 $335 forward 7 unknown #
point $-1 50.183416241950738 -3.3130308378179336 11.048651541582656 #
point $-1 50.183416241950738 -3.3130308378179336 3.6835101937184902 #
edge $-1 $336 1 $336 0 $174 $-1 forward 7 unknown #
vertex $-1 $175 $337 #
ellipse-curve $-1 41.048271449319522 2.0232747163610156 2.573380168361179 0.79863551827123203 0 0.60181501223851219 1.2036300244770244 0 -1.5972710365424641 1 I I #
point $-1 48.612030299195311 2.0232747163610156 5.768809831108098 #
plane-surface $-1 0 0 11.048651541582656 0 0 1 1 0 0 forward_v I I I I #
coedge $-1 $282 $281 $274 $338 forward $179 $-1 #
coedge $-1 $274 $181 $183 $278 reversed $106 $-1 #
coedge $-1 $181 $273 $272 $338 reversed $106 $-1 #
coedge $-1 $189 $184 $181 $276 forward $190 $-1 #
edge $-1 $279 -18.741552538357347 $339 -2.9705024781577052 $275 $340 forward 7 unknown #
coedge $-1 $183 $182 $282 $341 reversed $66 $-1 #
edge $-1 $342 0 $279 19.023323761851181 $273 $343 forward 7 unknown #
vertex $-1 $185 $344 #
straight-curve $-1 -34.412366181751104 -0.96425922627110339 11.048651541582656 0 1 0 I I #
coedge $-1 $272 $186 $189 $286 reversed $179 $-1 #
coedge $-1 $186 $272 $277 $341 forward $179 $-1 #
vertex $-1 $187 $345 #
straight-curve $-1 -50.183416241950738 -7.7830037590442984 41.809409215379382 0 0 1 I I #
straight-curve $-1 -50.183416241950738 -7.7830037590442984 0.41094375527414684 -0.82903756765294845 0 -0.55919291073839883 I I #
edge $-1 $339 -3.9259668539598849 $191 7.7830037590442984 $281 $346 forward 7 unknown #
point $-1 -50.183416241950738 -7.7830037590442984 11.048651541582656 #
point $-1 -34.412366181751096 -7.7830037590442984 11.048651541582656 #
edge $-1 $347 1 $347 0 $194 $-1 forward 7 unknown #
vertex $-1 $195 $348 #
ellipse-curve $-1 -40.450150044473126 -1.9285184525422068 2.9904087655608773 -0.55919291073839883 0 0.82903756765294845 1.6580751353058969 0 1.1183858214767977 1 I I #
point $-1 -40.639816076545017 -1.9285184525422068 6.8481834699051962 #
plane-surface $-1 50.183416241950738 0 0 -1 0 0 0 0 1 forward_v I I I I #
coedge $-1 $203 $201 $205 $298 reversed $121 $-1 #
edge $-1 $216 -11.048651541582656 $300 11.048651541582656 $215 $349 forward 7 unknown #
vertex $-1 $298 $350 #
straight-curve $-1 -50.183416241950738 -34.072559368962651 0 0 0 -1 I I #
edge $-1 $296 -34.072559368962651 $300 34.072559368962651 $294 $351 forward 7 unknown #
straight-curve $-1 0 -34.072559368962651 -11.048651541582656 -1 0 0 I I #
vertex $-1 $208 $352 #
straight-curve $-1 0 34.072559368962651 -11.048651541582656 1 0 0 I I #
point $-1 50.183416241950738 34.072559368962651 -11.048651541582656 #
point $-1 50.183416241950738 -34.072559368962651 -11.048651541582656 #
straight-curve $-1 -50.183416241950738 0 11.048651541582656 0 -1 0 I I #
point $-1 -50.183416241950738 34.072559368962651 11.048651541582656 #
point $-1 -50.183416241950738 -34.072559368962651 11.048651541582656 #
straight-curve $-1 50.183416241950738 -34.072559368962651 0 0 0 -1 I I #
straight-curve $-1 50.183416241950738 34.072559368962651 0 0 0 -1 I I #
plane-surface $-1 50.183416241950738 0 0 -1 0 0 0 0 1 forward_v I I I I #
coedge $-1 $313 $228 $239 $322 forward $140 $-1 #
coedge $-1 $228 $313 $242 $324 reversed $140 $-1 #
straight-curve $-1 50.183416241950738 -21.646796777818615 -2.248471992737171 0 0 1 I I #
coedge $-1 $311 $310 $231 $314 forward $140 $-1 #
edge $-1 $317 7.7169577411232986 $315 20.142720332267334 $313 $353 forward 7 unknown #
vertex $-1 $233 $354 #
straight-curve $-1 0 -34.072559368962651 -6.8415159256607083 1 0 0 I I #
vertex $-1 $314 $355 #
straight-curve $-1 0 -21.646796777818615 -6.8415159256607083 1 0 0 I I #
point $-1 50.183416241950738 -34.072559368962651 -6.8415159256607083 #
point $-1 50.183416241950738 -21.646796777818615 -6.8415159256607083 #
straight-curve $-1 -50.183416241950738 -13.929839036695316 -2.1523720452879753 0 1 0 I I #
edge $-1 $240 -0.0960999474491957 $317 4.5930439329235373 $310 $356 forward 7 unknown #
point $-1 -50.183416241950738 -21.646796777818615 -2.1523720452879753 #
edge $-1 $244 2.1523720452879753 $315 6.8415159256607083 $311 $357 forward 7 unknown #
point $-1 -50.183416241950738 -34.072559368962651 -2.1523720452879753 #
straight-curve $-1 50.183416241950738 -34.072559368962651 0 0 0 -1 I I #
edge $-1 $328 -15.214582741784014 $331 -9.664550807319138 $250 $358 forward 7 unknown #
vertex $-1 $327 $359 #
straight-curve $-1 50.183416241950738 7.3595802705399649 72.121146995690466 0 0 1 I I #
edge $-1 $331 -6.3479429123594571 $261 4.3246681959984414 $260 $360 forward 7 unknown #
vertex $-1 $330 $361 #
straight-curve $-1 -10.218850277689128 7.3595802705399649 83.840027471741067 0.60181501223851219 0 -0.79863551827123203 I I #
point $-1 50.183416241950738 7.3595802705399649 3.6835101937184902 #
point $-1 44.633384307485862 -3.3130308378179336 11.048651541582657 #
straight-curve $-1 50.183416241950738 0 11.048651541582656 0 1 0 I I #
vertex $-1 $267 $362 #
point $-1 42.251901473796543 2.0232747163610156 0.97610913181871495 #
edge $-1 $339 30.760757673796725 $342 41.398465460105236 $272 $363 forward 7 unknown #
vertex $-1 $286 $364 #
straight-curve $-1 -53.153918720108443 3.9259668539598849 11.048651541582657 -1 0 0 I I #
edge $-1 $342 -4.8902260802309883 $283 6.818744532773195 $282 $365 forward 7 unknown #
vertex $-1 $341 $366 #
straight-curve $-1 -50.183416241950738 3.9259668539598849 0.41094375527414684 0.82903756765294845 0 0.55919291073839883 I I #
point $-1 -34.412366181751096 3.9259668539598849 11.048651541582656 #
point $-1 -50.183416241950738 -7.7830037590442984 0.41094375527414684 #
straight-curve $-1 -50.183416241950738 0 11.048651541582656 0 -1 0 I I #
vertex $-1 $289 $367 #
point $-1 -38.792074909167233 -1.9285184525422068 4.108794587037675 #
straight-curve $-1 -50.183416241950738 34.072559368962651 0 0 0 -1 I I #
point $-1 -50.183416241950738 -34.072559368962651 -11.048651541582656 #
straight-curve $-1 -50.183416241950738 0 -11.048651541582656 0 1 0 I I #
point $-1 -50.183416241950738 34.072559368962651 -11.048651541582656 #
straight-curve $-1 -50.183416241950738 -13.929839036695316 -6.8415159256607083 0 -1 0 I I #
point $-1 -50.183416241950738 -34.072559368962651 -6.8415159256607083 #
point $-1 -50.183416241950738 -21.646796777818615 -6.8415159256607083 #
straight-curve $-1 -50.183416241950738 -21.646796777818615 -2.248471992737171 0 0 -1 I I #
straight-curve $-1 -50.183416241950738 -34.072559368962651 0 0 0 -1 I I #
straight-curve $-1 34.968833500166724 7.3595802705399649 11.048651541582657 -1 0 0 I I #
point $-1 50.183416241950738 7.3595802705399649 11.048651541582656 #
straight-curve $-1 44.633384307485855 1.0116373581805078 11.048651541582657 0 -1 0 I I #
point $-1 44.633384307485862 7.3595802705399649 11.048651541582657 #
point $-1 39.451000412777056 2.0232747163610156 1.3697501438841546 #
straight-curve $-1 -50.183416241950738 3.9259668539598849 41.809409215379382 0 0 -1 I I #
point $-1 -50.183416241950738 3.9259668539598849 11.048651541582656 #
straight-curve $-1 -50.183416241950738 -0.96425922627110339 0.41094375527414828 0 -1 0 I I #
point $-1 -50.183416241950738 3.9259668539598849 0.41094375527414684 #
point $-1 -39.331764222996334 -1.9285184525422068 1.3323336302549806 #
End-of-ACIS-data 