500 0 20 0           
7 Unknown 11 ACIS 5.0 NT 24 Thu Mar 25 23:25:21 1999 
-1 9.9999999999999995e-007 1e-010 
body $-1 $20 $-1 $21 #
body $-1 $22 $-1 $23 #
body $-1 $24 $-1 $25 #
body $-1 $26 $-1 $27 #
body $-1 $28 $-1 $29 #
body $-1 $30 $-1 $31 #
body $-1 $32 $-1 $33 #
body $-1 $34 $-1 $35 #
body $-1 $36 $-1 $37 #
body $-1 $38 $-1 $39 #
body $-1 $40 $-1 $41 #
body $-1 $42 $-1 $43 #
body $-1 $44 $-1 $45 #
body $-1 $46 $-1 $47 #
body $-1 $48 $-1 $49 #
body $-1 $50 $-1 $51 #
body $-1 $52 $-1 $53 #
body $-1 $54 $-1 $55 #
body $-1 $56 $-1 $57 #
body $-1 $58 $-1 $59 #
lump $-1 $-1 $60 $0 #
transform $-1 1 0 0 0 1 0 0 0 1 55.466780602435378 35.484723504031855 12.620592904934453 1 rotate no_reflect no_shear #
lump $-1 $-1 $61 $1 #
transform $-1 1 0 0 0 1 0 0 0 1 55.466780602435378 35.484723504031855 12.620592904934453 1 rotate no_reflect no_shear #
lump $-1 $-1 $62 $2 #
transform $-1 1 0 0 0 1 0 0 0 1 55.466780602435378 35.484723504031855 12.620592904934453 1 rotate no_reflect no_shear #
lump $-1 $-1 $63 $3 #
transform $-1 1 0 0 0 1 0 0 0 1 55.466780602435378 35.484723504031855 12.620592904934453 1 rotate no_reflect no_shear #
lump $-1 $-1 $64 $4 #
transform $-1 1 0 0 0 1 0 0 0 1 55.466780602435378 35.484723504031855 12.620592904934453 1 rotate no_reflect no_shear #
lump $-1 $-1 $65 $5 #
transform $-1 1 0 0 0 1 0 0 0 1 55.466780602435378 35.484723504031855 12.620592904934453 1 rotate no_reflect no_shear #
lump $-1 $-1 $66 $6 #
transform $-1 1 0 0 0 1 0 0 0 1 55.466780602435378 35.484723504031855 12.620592904934453 1 rotate no_reflect no_shear #
lump $-1 $-1 $67 $7 #
transform $-1 1 0 0 0 1 0 0 0 1 55.466780602435378 35.484723504031855 12.620592904934453 1 rotate no_reflect no_shear #
lump $-1 $-1 $68 $8 #
transform $-1 1 0 0 0 1 0 0 0 1 55.466780602435378 35.484723504031855 12.620592904934453 1 rotate no_reflect no_shear #
lump $-1 $-1 $69 $9 #
transform $-1 1 0 0 0 1 0 0 0 1 55.466780602435378 35.484723504031855 12.620592904934453 1 rotate no_reflect no_shear #
lump $-1 $-1 $70 $10 #
transform $-1 1 0 0 0 1 0 0 0 1 55.466780602435378 35.484723504031855 12.620592904934453 1 rotate no_reflect no_shear #
lump $-1 $-1 $71 $11 #
transform $-1 1 0 0 0 1 0 0 0 1 55.466780602435378 35.484723504031855 12.620592904934453 1 rotate no_reflect no_shear #
lump $-1 $-1 $72 $12 #
transform $-1 1 0 0 0 1 0 0 0 1 55.466780602435378 35.484723504031855 12.620592904934453 1 rotate no_reflect no_shear #
lump $-1 $-1 $73 $13 #
transform $-1 1 0 0 0 1 0 0 0 1 55.466780602435378 35.484723504031855 12.620592904934453 1 rotate no_reflect no_shear #
lump $-1 $-1 $74 $14 #
transform $-1 1 0 0 0 1 0 0 0 1 55.466780602435378 35.484723504031855 12.620592904934453 1 rotate no_reflect no_shear #
lump $-1 $-1 $75 $15 #
transform $-1 1 0 0 0 1 0 0 0 1 55.466780602435378 35.484723504031855 12.620592904934453 1 rotate no_reflect no_shear #
lump $-1 $-1 $76 $16 #
transform $-1 1 0 0 0 1 0 0 0 1 55.466780602435378 35.484723504031855 12.620592904934453 1 rotate no_reflect no_shear #
lump $-1 $-1 $77 $17 #
transform $-1 1 0 0 0 1 0 0 0 1 55.466780602435378 35.484723504031855 12.620592904934453 1 rotate no_reflect no_shear #
lump $-1 $-1 $78 $18 #
transform $-1 1 0 0 0 1 0 0 0 1 55.466780602435378 35.484723504031855 12.620592904934453 1 rotate no_reflect no_shear #
lump $-1 $-1 $79 $19 #
transform $-1 1 0 0 0 1 0 0 0 1 55.466780602435378 35.484723504031855 12.620592904934453 1 rotate no_reflect no_shear #
shell $-1 $-1 $-1 $80 $-1 $20 #
shell $-1 $-1 $-1 $81 $-1 $22 #
shell $-1 $-1 $-1 $82 $-1 $24 #
shell $-1 $-1 $-1 $83 $-1 $26 #
shell $-1 $-1 $-1 $84 $-1 $28 #
shell $-1 $-1 $-1 $85 $-1 $30 #
shell $-1 $-1 $-1 $86 $-1 $32 #
shell $-1 $-1 $-1 $87 $-1 $34 #
shell $-1 $-1 $-1 $88 $-1 $36 #
shell $-1 $-1 $-1 $89 $-1 $38 #
shell $-1 $-1 $-1 $90 $-1 $40 #
shell $-1 $-1 $-1 $91 $-1 $42 #
shell $-1 $-1 $-1 $92 $-1 $44 #
shell $-1 $-1 $-1 $93 $-1 $46 #
shell $-1 $-1 $-1 $94 $-1 $48 #
shell $-1 $-1 $-1 $95 $-1 $50 #
shell $-1 $-1 $-1 $96 $-1 $52 #
shell $-1 $-1 $-1 $97 $-1 $54 #
shell $-1 $-1 $-1 $98 $-1 $56 #
shell $-1 $-1 $-1 $99 $-1 $58 #
face $-1 $100 $101 $60 $-1 $102 forward single #
face $-1 $103 $104 $61 $-1 $105 forward single #
face $-1 $106 $107 $62 $-1 $108 reversed single #
face $-1 $109 $110 $63 $-1 $111 forward single #
face $-1 $112 $113 $64 $-1 $114 forward single #
face $-1 $115 $116 $65 $-1 $117 reversed single #
face $-1 $118 $119 $66 $-1 $120 forward single #
face $-1 $121 $122 $67 $-1 $123 forward single #
face $-1 $124 $125 $68 $-1 $126 reversed single #
face $-1 $127 $128 $69 $-1 $129 forward single #
face $-1 $130 $131 $70 $-1 $132 forward single #
face $-1 $133 $134 $71 $-1 $135 reversed single #
face $-1 $136 $137 $72 $-1 $138 forward single #
face $-1 $139 $140 $73 $-1 $141 forward single #
face $-1 $142 $143 $74 $-1 $144 reversed single #
face $-1 $145 $146 $75 $-1 $147 forward single #
face $-1 $148 $149 $76 $-1 $150 forward single #
face $-1 $151 $152 $77 $-1 $153 reversed single #
face $-1 $154 $155 $78 $-1 $156 forward single #
face $-1 $157 $158 $79 $-1 $159 forward single #
face $-1 $160 $161 $60 $-1 $162 reversed single #
loop $-1 $-1 $163 $80 #
plane-surface $-1 0 0 12.620592904934453 0 0 1 1 0 0 forward_v I I I I #
face $-1 $164 $165 $61 $-1 $166 reversed single #
loop $-1 $-1 $167 $81 #
plane-surface $-1 -48.262308190485143 0 4.1570367092724991 0 0 1 1 0 0 forward_v I I I I #
face $-1 $168 $169 $62 $-1 $170 reversed single #
loop $-1 $-1 $171 $82 #
plane-surface $-1 -38.093657450766273 63.743621149084156 132.82635438627577 1 0 0 0 -0.70710678939079041 -0.70710677298230451 forward_v I I I I #
face $-1 $172 $173 $63 $-1 $174 forward single #
loop $-1 $175 $176 $83 #
cone-surface $-1 -32.099190465084988 29.306077658801883 6.4419470077147771 0 -0.70710678939079041 -0.70710677298230451 1.5 0 0 1 I I 0 1 1.5 forward I I I I #
face $-1 $177 $178 $64 $-1 $179 forward single #
loop $-1 $180 $181 $84 #
cone-surface $-1 -23.107489986563053 29.306077658801883 6.4419470077147771 0 -0.70710678939079041 -0.70710677298230451 1.5 0 0 1 I I 0 1 1.5 forward I I I I #
face $-1 $182 $183 $65 $-1 $184 reversed single #
loop $-1 $-1 $185 $85 #
plane-surface $-1 31.521967824782216 63.743621149084156 132.82635438627577 1 0 0 0 -0.70710678939079041 -0.70710677298230451 forward_v I I I I #
face $-1 $186 $187 $66 $-1 $188 forward single #
loop $-1 $189 $190 $86 #
cone-surface $-1 37.516434810463508 29.306077658801883 6.4419470077147771 0 -0.70710678939079041 -0.70710677298230451 1.5 0 0 1 I I 0 1 1.5 forward I I I I #
face $-1 $191 $192 $67 $-1 $193 forward single #
loop $-1 $194 $195 $87 #
cone-surface $-1 46.508135288985443 29.306077658801883 6.4419470077147771 0 -0.70710678939079041 -0.70710677298230451 1.5 0 0 1 I I 0 1 1.5 forward I I I I #
face $-1 $196 $197 $68 $-1 $198 reversed single #
loop $-1 $-1 $199 $88 #
plane-surface $-1 -29.804927835320505 -119.20734583305844 73.349440149375226 -1 0 0 0 -0.75470958851134928 0.65605901945558964 forward_v I I I I #
face $-1 $200 $201 $69 $-1 $202 forward single #
loop $-1 $203 $204 $89 #
cone-surface $-1 -37.842719223330796 -28.751724597728302 5.2955200586381359 0 0.75470958851134928 -0.65605901945558964 1 0 0 1 I I 0 1 1 forward I I I I #
face $-1 $205 $206 $70 $-1 $207 forward single #
loop $-1 $208 $209 $90 #
cone-surface $-1 -33.020044390524617 -28.751724597728302 5.2955200586381359 0 0.75470958851134928 -0.65605901945558964 1 0 0 1 I I 0 1 1 forward I I I I #
face $-1 $210 $211 $71 $-1 $212 reversed single #
loop $-1 $-1 $213 $91 #
plane-surface $-1 -5.6737737400779347 -119.20734583305844 73.349440149375226 -1 0 0 0 -0.75470958851134928 0.65605901945558964 forward_v I I I I #
face $-1 $214 $215 $72 $-1 $216 forward single #
loop $-1 $217 $218 $92 #
cone-surface $-1 -13.711565128088225 -28.751724597728302 5.2955200586381359 0 0.75470958851134928 -0.65605901945558964 1 0 0 1 I I 0 1 1 forward I I I I #
face $-1 $219 $220 $73 $-1 $221 forward single #
loop $-1 $222 $223 $93 #
cone-surface $-1 -8.888890295282053 -28.751724597728302 5.2955200586381359 0 0.75470958851134928 -0.65605901945558964 1 0 0 1 I I 0 1 1 forward I I I I #
face $-1 $224 $225 $74 $-1 $226 reversed single #
loop $-1 $-1 $227 $94 #
plane-surface $-1 18.457380355164645 -119.20734583305844 73.349440149375226 -1 0 0 0 -0.75470958851134928 0.65605901945558964 forward_v I I I I #
face $-1 $228 $229 $75 $-1 $230 forward single #
loop $-1 $231 $232 $95 #
cone-surface $-1 10.419588967154354 -28.751724597728302 5.2955200586381359 0 0.75470958851134928 -0.65605901945558964 1 0 0 1 I I 0 1 1 forward I I I I #
face $-1 $233 $234 $76 $-1 $235 forward single #
loop $-1 $236 $237 $96 #
cone-surface $-1 15.242263799960526 -28.751724597728302 5.2955200586381359 0 0.75470958851134928 -0.65605901945558964 1 0 0 1 I I 0 1 1 forward I I I I #
face $-1 $238 $239 $77 $-1 $240 reversed single #
loop $-1 $-1 $241 $97 #
plane-surface $-1 42.588534450407224 -119.20734583305844 73.349440149375226 -1 0 0 0 -0.75470958851134928 0.65605901945558964 forward_v I I I I #
face $-1 $242 $243 $78 $-1 $244 forward single #
loop $-1 $245 $246 $98 #
cone-surface $-1 34.550743062396933 -28.751724597728302 5.2955200586381359 0 0.75470958851134928 -0.65605901945558964 1 0 0 1 I I 0 1 1 forward I I I I #
face $-1 $247 $248 $79 $-1 $249 forward single #
loop $-1 $250 $251 $99 #
cone-surface $-1 39.373417895203104 -28.751724597728302 5.2955200586381359 0 0.75470958851134928 -0.65605901945558964 1 0 0 1 I I 0 1 1 forward I I I I #
face $-1 $252 $253 $60 $-1 $254 reversed single #
loop $-1 $-1 $255 $100 #
plane-surface $-1 0 0 -12.620592904934453 0 0 1 1 0 0 forward_v I I I I #
coedge $-1 $256 $257 $258 $259 forward $101 $-1 #
face $-1 $260 $261 $61 $-1 $262 reversed single #
loop $-1 $-1 $263 $103 #
plane-surface $-1 -48.262308190485143 0 1.1570367092724974 0 0 1 1 0 0 forward_v I I I I #
coedge $-1 $264 $265 $266 $267 forward $104 $-1 #
face $-1 $268 $269 $62 $-1 $270 reversed single #
loop $-1 $-1 $271 $106 #
plane-surface $-1 -27.60334022582402 -14.698253150178751 54.384481907264643 0 0.70710678939079041 0.70710677298230451 1 0 0 forward_v I I I I #
coedge $-1 $272 $273 $274 $275 reversed $107 $-1 #
face $-1 $-1 $276 $63 $-1 $277 forward single #
loop $-1 $278 $279 $109 #
cone-surface $-1 -32.099190465084988 26.806646032036696 3.9425154389491599 0 -0.70710678939079041 -0.70710677298230451 0.75 0 0 1 I I -0.70710678118654757 0.70710678118654757 0.75 forward I I I I #
loop $-1 $-1 $280 $83 #
coedge $-1 $176 $176 $281 $282 reversed $110 $-1 #
face $-1 $-1 $283 $64 $-1 $284 forward single #
loop $-1 $285 $286 $112 #
cone-surface $-1 -23.107489986563053 26.806646032036696 3.9425154389491599 0 -0.70710678939079041 -0.70710677298230451 0.75 0 0 1 I I -0.70710678118654757 0.70710678118654757 0.75 forward I I I I #
loop $-1 $-1 $287 $84 #
coedge $-1 $181 $181 $288 $289 reversed $113 $-1 #
face $-1 $290 $291 $65 $-1 $292 reversed single #
loop $-1 $-1 $293 $115 #
plane-surface $-1 42.012285049724468 -14.698253150178751 54.384481907264643 0 0.70710678939079041 0.70710677298230451 1 0 0 forward_v I I I I #
coedge $-1 $294 $295 $296 $297 reversed $116 $-1 #
face $-1 $-1 $298 $66 $-1 $299 forward single #
loop $-1 $300 $301 $118 #
cone-surface $-1 37.516434810463508 26.806646032036696 3.9425154389491599 0 -0.70710678939079041 -0.70710677298230451 0.75 0 0 1 I I -0.70710678118654757 0.70710678118654757 0.75 forward I I I I #
loop $-1 $-1 $302 $86 #
coedge $-1 $190 $190 $303 $304 reversed $119 $-1 #
face $-1 $-1 $305 $67 $-1 $306 forward single #
loop $-1 $307 $308 $121 #
cone-surface $-1 46.508135288985443 26.806646032036696 3.9425154389491599 0 -0.70710678939079041 -0.70710677298230451 0.75 0 0 1 I I -0.70710678118654757 0.70710678118654757 0.75 forward I I I I #
loop $-1 $-1 $309 $87 #
coedge $-1 $195 $195 $310 $311 reversed $122 $-1 #
face $-1 $312 $313 $68 $-1 $314 forward single #
loop $-1 $-1 $315 $124 #
plane-surface $-1 -35.43138180692771 -35.484723504031848 0.57047676059107744 0 -0.75470958851134928 0.65605901945558964 1 0 0 forward_v I I I I #
coedge $-1 $316 $317 $318 $319 reversed $125 $-1 #
face $-1 $-1 $320 $69 $-1 $321 forward single #
loop $-1 $322 $323 $127 #
cone-surface $-1 -37.842719223330796 -26.878873840239873 3.6674757747857125 0 0.75470958851134928 -0.65605901945558964 0.5 0 0 1 I I -0.70710678118654746 0.70710678118654746 0.5 forward I I I I #
loop $-1 $-1 $324 $89 #
coedge $-1 $204 $204 $325 $326 reversed $128 $-1 #
face $-1 $-1 $327 $70 $-1 $328 forward single #
loop $-1 $329 $330 $130 #
cone-surface $-1 -33.020044390524617 -26.878873840239873 3.6674757747857125 0 0.75470958851134928 -0.65605901945558964 0.5 0 0 1 I I -0.70710678118654746 0.70710678118654746 0.5 forward I I I I #
loop $-1 $-1 $331 $90 #
coedge $-1 $209 $209 $332 $333 reversed $131 $-1 #
face $-1 $334 $335 $71 $-1 $336 reversed single #
loop $-1 $-1 $337 $133 #
plane-surface $-1 -11.300227711685139 -35.484723504031848 0.57047676059107744 0 -0.75470958851134928 0.65605901945558964 1 0 0 forward_v I I I I #
coedge $-1 $338 $339 $340 $341 reversed $134 $-1 #
face $-1 $-1 $342 $72 $-1 $343 forward single #
loop $-1 $344 $345 $136 #
cone-surface $-1 -13.711565128088225 -26.878873840239873 3.6674757747857125 0 0.75470958851134928 -0.65605901945558964 0.5 0 0 1 I I -0.70710678118654746 0.70710678118654746 0.5 forward I I I I #
loop $-1 $-1 $346 $92 #
coedge $-1 $218 $218 $347 $348 reversed $137 $-1 #
face $-1 $-1 $349 $73 $-1 $350 forward single #
loop $-1 $351 $352 $139 #
cone-surface $-1 -8.888890295282053 -26.878873840239873 3.6674757747857125 0 0.75470958851134928 -0.65605901945558964 0.5 0 0 1 I I -0.70710678118654746 0.70710678118654746 0.5 forward I I I I #
loop $-1 $-1 $353 $93 #
coedge $-1 $223 $223 $354 $355 reversed $140 $-1 #
face $-1 $356 $357 $74 $-1 $358 reversed single #
loop $-1 $-1 $359 $142 #
plane-surface $-1 12.83092638355744 -35.484723504031848 0.57047676059107744 0 -0.75470958851134928 0.65605901945558964 1 0 0 forward_v I I I I #
coedge $-1 $360 $361 $362 $363 reversed $143 $-1 #
face $-1 $-1 $364 $75 $-1 $365 forward single #
loop $-1 $366 $367 $145 #
cone-surface $-1 10.419588967154354 -26.878873840239873 3.6674757747857125 0 0.75470958851134928 -0.65605901945558964 0.5 0 0 1 I I -0.70710678118654746 0.70710678118654746 0.5 forward I I I I #
loop $-1 $-1 $368 $95 #
coedge $-1 $232 $232 $369 $370 reversed $146 $-1 #
face $-1 $-1 $371 $76 $-1 $372 forward single #
loop $-1 $373 $374 $148 #
cone-surface $-1 15.242263799960526 -26.878873840239873 3.6674757747857125 0 0.75470958851134928 -0.65605901945558964 0.5 0 0 1 I I -0.70710678118654746 0.70710678118654746 0.5 forward I I I I #
loop $-1 $-1 $375 $96 #
coedge $-1 $237 $237 $376 $377 reversed $149 $-1 #
face $-1 $378 $379 $77 $-1 $380 reversed single #
loop $-1 $-1 $381 $151 #
plane-surface $-1 36.962080478800019 -35.484723504031848 0.57047676059107744 0 -0.75470958851134928 0.65605901945558964 1 0 0 forward_v I I I I #
coedge $-1 $382 $383 $384 $385 reversed $152 $-1 #
face $-1 $-1 $386 $78 $-1 $387 forward single #
loop $-1 $388 $389 $154 #
cone-surface $-1 34.550743062396933 -26.878873840239873 3.6674757747857125 0 0.75470958851134928 -0.65605901945558964 0.5 0 0 1 I I -0.70710678118654746 0.70710678118654746 0.5 forward I I I I #
loop $-1 $-1 $390 $98 #
coedge $-1 $246 $246 $391 $392 reversed $155 $-1 #
face $-1 $-1 $393 $79 $-1 $394 forward single #
loop $-1 $395 $396 $157 #
cone-surface $-1 39.373417895203104 -26.878873840239873 3.6674757747857125 0 0.75470958851134928 -0.65605901945558964 0.5 0 0 1 I I -0.70710678118654746 0.70710678118654746 0.5 forward I I I I #
loop $-1 $-1 $397 $99 #
coedge $-1 $251 $251 $398 $399 reversed $158 $-1 #
face $-1 $400 $401 $60 $-1 $402 reversed single #
loop $-1 $-1 $403 $160 #
plane-surface $-1 0 -35.484723504031855 0 0 1 0 0 0 1 forward_v I I I I #
coedge $-1 $404 $405 $406 $407 forward $161 $-1 #
coedge $-1 $408 $163 $409 $410 forward $101 $-1 #
coedge $-1 $163 $408 $411 $412 forward $101 $-1 #
coedge $-1 $413 $414 $163 $259 reversed $415 $-1 #
edge $-1 $416 -35.484723504031855 $417 35.484723504031855 $258 $418 forward 7 unknown #
face $-1 $419 $420 $61 $-1 $421 reversed single #
loop $-1 $-1 $422 $164 #
plane-surface $-1 -41.057835778534908 0 2.6570367092724982 -1 0 0 0 0 1 forward_v I I I I #
coedge $-1 $423 $424 $425 $426 forward $165 $-1 #
coedge $-1 $427 $167 $428 $429 reversed $104 $-1 #
coedge $-1 $167 $427 $430 $431 reversed $104 $-1 #
coedge $-1 $422 $432 $167 $267 reversed $261 $-1 #
edge $-1 $433 -35.484723504031855 $434 35.484723504031855 $266 $435 forward 7 unknown #
face $-1 $436 $437 $62 $-1 $438 forward single #
loop $-1 $-1 $439 $168 #
plane-surface $-1 -17.113023000881768 63.743621149084156 132.82635438627577 -1 0 0 0 0.70710678939079041 0.70710677298230451 forward_v I I I I #
coedge $-1 $440 $441 $442 $443 reversed $169 $-1 #
coedge $-1 $273 $171 $444 $445 reversed $107 $-1 #
coedge $-1 $171 $272 $440 $446 reversed $107 $-1 #
coedge $-1 $442 $447 $171 $275 forward $437 $-1 #
edge $-1 $448 -3.6129129294897773 $449 4.8061756915259899 $274 $450 forward 7 unknown #
loop $-1 $-1 $281 $172 #
plane-surface $-1 -27.60334022582402 -14.698253150178751 54.384481907264643 0 0.70710678939079041 0.70710677298230451 1 0 0 forward_v I I I I #
loop $-1 $-1 $451 $109 #
coedge $-1 $279 $279 $280 $452 reversed $173 $-1 #
coedge $-1 $280 $280 $279 $452 forward $175 $-1 #
coedge $-1 $281 $281 $176 $282 forward $276 $-1 #
edge $-1 $453 -3.8863101326778165e-023 $453 6.2831853071796004 $281 $454 forward 7 unknown #
loop $-1 $-1 $288 $177 #
plane-surface $-1 -27.60334022582402 -14.698253150178751 54.384481907264643 0 0.70710678939079041 0.70710677298230451 1 0 0 forward_v I I I I #
loop $-1 $-1 $455 $112 #
coedge $-1 $286 $286 $287 $456 reversed $178 $-1 #
coedge $-1 $287 $287 $286 $456 forward $180 $-1 #
coedge $-1 $288 $288 $181 $289 forward $283 $-1 #
edge $-1 $457 -3.8863101326778165e-023 $457 6.2831853071796004 $288 $458 forward 7 unknown #
face $-1 $459 $460 $65 $-1 $461 forward single #
loop $-1 $-1 $462 $182 #
plane-surface $-1 52.502602274666721 63.743621149084156 132.82635438627577 -1 0 0 0 0.70710678939079041 0.70710677298230451 forward_v I I I I #
coedge $-1 $463 $464 $465 $466 reversed $183 $-1 #
coedge $-1 $295 $185 $467 $468 reversed $116 $-1 #
coedge $-1 $185 $294 $463 $469 reversed $116 $-1 #
coedge $-1 $465 $470 $185 $297 forward $460 $-1 #
edge $-1 $471 -3.6129129294897773 $472 4.8061756915259899 $296 $473 forward 7 unknown #
loop $-1 $-1 $303 $186 #
plane-surface $-1 42.012285049724468 -14.698253150178751 54.384481907264643 0 0.70710678939079041 0.70710677298230451 1 0 0 forward_v I I I I #
loop $-1 $-1 $474 $118 #
coedge $-1 $301 $301 $302 $475 reversed $187 $-1 #
coedge $-1 $302 $302 $301 $475 forward $189 $-1 #
coedge $-1 $303 $303 $190 $304 forward $298 $-1 #
edge $-1 $476 -3.8863101326778165e-023 $476 6.2831853071796004 $303 $477 forward 7 unknown #
loop $-1 $-1 $310 $191 #
plane-surface $-1 42.012285049724468 -14.698253150178751 54.384481907264643 0 0.70710678939079041 0.70710677298230451 1 0 0 forward_v I I I I #
loop $-1 $-1 $478 $121 #
coedge $-1 $308 $308 $309 $479 reversed $192 $-1 #
coedge $-1 $309 $309 $308 $479 forward $194 $-1 #
coedge $-1 $310 $310 $195 $311 forward $305 $-1 #
edge $-1 $480 -3.8863101326778165e-023 $480 6.2831853071796004 $310 $481 forward 7 unknown #
face $-1 $482 $483 $68 $-1 $484 forward single #
loop $-1 $-1 $318 $196 #
plane-surface $-1 0 0 12.620592904934453 0 0 1 1 0 0 forward_v I I I I #
coedge $-1 $485 $486 $487 $488 reversed $197 $-1 #
coedge $-1 $317 $199 $489 $490 reversed $125 $-1 #
coedge $-1 $199 $316 $485 $491 reversed $125 $-1 #
coedge $-1 $487 $492 $199 $319 forward $313 $-1 #
edge $-1 $493 24.118949412497365 $494 34.593955298638967 $318 $495 forward 7 unknown #
loop $-1 $-1 $325 $200 #
plane-surface $-1 -35.43138180692771 -35.484723504031848 0.57047676059107744 0 -0.75470958851134928 0.65605901945558964 1 0 0 forward_v I I I I #
loop $-1 $-1 $496 $127 #
coedge $-1 $323 $323 $324 $497 reversed $201 $-1 #
coedge $-1 $324 $324 $323 $497 forward $203 $-1 #
coedge $-1 $325 $325 $204 $326 forward $320 $-1 #
edge $-1 $498 1.340633539313084e-015 $498 6.2831853071796022 $325 $499 forward 7 unknown #
loop $-1 $-1 $332 $205 #
plane-surface $-1 -35.43138180692771 -35.484723504031848 0.57047676059107744 0 -0.75470958851134928 0.65605901945558964 1 0 0 forward_v I I I I #
loop $-1 $-1 $500 $130 #
coedge $-1 $330 $330 $331 $501 reversed $206 $-1 #
coedge $-1 $331 $331 $330 $501 forward $208 $-1 #
coedge $-1 $332 $332 $209 $333 forward $327 $-1 #
edge $-1 $502 1.340633539313084e-015 $502 6.2831853071796022 $332 $503 forward 7 unknown #
face $-1 $504 $505 $71 $-1 $506 forward single #
loop $-1 $-1 $507 $210 #
plane-surface $-1 -16.926681683292344 -119.20734583305844 73.349440149375226 1 0 0 0 0.75470958851134928 -0.65605901945558964 forward_v I I I I #
coedge $-1 $508 $509 $510 $511 reversed $211 $-1 #
coedge $-1 $339 $213 $512 $513 reversed $134 $-1 #
coedge $-1 $213 $338 $508 $514 reversed $134 $-1 #
coedge $-1 $510 $515 $213 $341 forward $505 $-1 #
edge $-1 $516 24.118949412497365 $517 34.593955298638967 $340 $518 forward 7 unknown #
loop $-1 $-1 $347 $214 #
plane-surface $-1 -11.300227711685139 -35.484723504031848 0.57047676059107744 0 -0.75470958851134928 0.65605901945558964 1 0 0 forward_v I I I I #
loop $-1 $-1 $519 $136 #
coedge $-1 $345 $345 $346 $520 reversed $215 $-1 #
coedge $-1 $346 $346 $345 $520 forward $217 $-1 #
coedge $-1 $347 $347 $218 $348 forward $342 $-1 #
edge $-1 $521 1.340633539313084e-015 $521 6.2831853071796022 $347 $522 forward 7 unknown #
loop $-1 $-1 $354 $219 #
plane-surface $-1 -11.300227711685139 -35.484723504031848 0.57047676059107744 0 -0.75470958851134928 0.65605901945558964 1 0 0 forward_v I I I I #
loop $-1 $-1 $523 $139 #
coedge $-1 $352 $352 $353 $524 reversed $220 $-1 #
coedge $-1 $353 $353 $352 $524 forward $222 $-1 #
coedge $-1 $354 $354 $223 $355 forward $349 $-1 #
edge $-1 $525 1.340633539313084e-015 $525 6.2831853071796022 $354 $526 forward 7 unknown #
face $-1 $527 $528 $74 $-1 $529 reversed single #
loop $-1 $-1 $530 $224 #
plane-surface $-1 7.2044724119502357 -119.20734583305844 73.349440149375226 1 0 0 0 0.75470958851134928 -0.65605901945558964 forward_v I I I I #
coedge $-1 $531 $532 $533 $534 reversed $225 $-1 #
coedge $-1 $361 $227 $535 $536 reversed $143 $-1 #
coedge $-1 $227 $360 $531 $537 reversed $143 $-1 #
coedge $-1 $533 $538 $227 $363 forward $539 $-1 #
edge $-1 $540 24.118949412497365 $541 34.593955298638967 $362 $542 forward 7 unknown #
loop $-1 $-1 $369 $228 #
plane-surface $-1 12.83092638355744 -35.484723504031848 0.57047676059107744 0 -0.75470958851134928 0.65605901945558964 1 0 0 forward_v I I I I #
loop $-1 $-1 $543 $145 #
coedge $-1 $367 $367 $368 $544 reversed $229 $-1 #
coedge $-1 $368 $368 $367 $544 forward $231 $-1 #
coedge $-1 $369 $369 $232 $370 forward $364 $-1 #
edge $-1 $545 1.340633539313084e-015 $545 6.2831853071796022 $369 $546 forward 7 unknown #
loop $-1 $-1 $376 $233 #
plane-surface $-1 12.83092638355744 -35.484723504031848 0.57047676059107744 0 -0.75470958851134928 0.65605901945558964 1 0 0 forward_v I I I I #
loop $-1 $-1 $547 $148 #
coedge $-1 $374 $374 $375 $548 reversed $234 $-1 #
coedge $-1 $375 $375 $374 $548 forward $236 $-1 #
coedge $-1 $376 $376 $237 $377 forward $371 $-1 #
edge $-1 $549 1.340633539313084e-015 $549 6.2831853071796022 $376 $550 forward 7 unknown #
face $-1 $551 $552 $77 $-1 $553 reversed single #
loop $-1 $-1 $554 $238 #
plane-surface $-1 31.335626507192814 -119.20734583305844 73.349440149375226 1 0 0 0 0.75470958851134928 -0.65605901945558964 forward_v I I I I #
coedge $-1 $555 $556 $557 $558 reversed $239 $-1 #
coedge $-1 $383 $241 $559 $560 reversed $152 $-1 #
coedge $-1 $241 $382 $555 $561 reversed $152 $-1 #
coedge $-1 $557 $562 $241 $385 forward $563 $-1 #
edge $-1 $564 24.118949412497365 $565 34.593955298638967 $384 $566 forward 7 unknown #
loop $-1 $-1 $391 $242 #
plane-surface $-1 36.962080478800019 -35.484723504031848 0.57047676059107744 0 -0.75470958851134928 0.65605901945558964 1 0 0 forward_v I I I I #
loop $-1 $-1 $567 $154 #
coedge $-1 $389 $389 $390 $568 reversed $243 $-1 #
coedge $-1 $390 $390 $389 $568 forward $245 $-1 #
coedge $-1 $391 $391 $246 $392 forward $386 $-1 #
edge $-1 $569 1.340633539313084e-015 $569 6.2831853071796022 $391 $570 forward 7 unknown #
loop $-1 $-1 $398 $247 #
plane-surface $-1 36.962080478800019 -35.484723504031848 0.57047676059107744 0 -0.75470958851134928 0.65605901945558964 1 0 0 forward_v I I I I #
loop $-1 $-1 $571 $157 #
coedge $-1 $396 $396 $397 $572 reversed $248 $-1 #
coedge $-1 $397 $397 $396 $572 forward $250 $-1 #
coedge $-1 $398 $398 $251 $399 forward $393 $-1 #
edge $-1 $573 1.340633539313084e-015 $573 6.2831853071796022 $398 $574 forward 7 unknown #
face $-1 $575 $576 $60 $-1 $577 reversed single #
loop $-1 $-1 $578 $252 #
plane-surface $-1 -55.466780602435378 0 0 1 0 0 0 0 -1 forward_v I I I I #
coedge $-1 $579 $411 $580 $581 forward $253 $-1 #
coedge $-1 $582 $255 $579 $583 forward $161 $-1 #
coedge $-1 $255 $582 $584 $585 forward $161 $-1 #
coedge $-1 $414 $413 $255 $407 reversed $415 $-1 #
edge $-1 $586 -35.484723504031855 $587 35.484723504031855 $406 $588 forward 7 unknown #
coedge $-1 $257 $256 $589 $590 forward $101 $-1 #
coedge $-1 $591 $592 $256 $410 reversed $576 $-1 #
edge $-1 $417 -55.466780602435378 $593 55.466780602435378 $409 $594 forward 7 unknown #
coedge $-1 $403 $595 $257 $412 reversed $253 $-1 #
edge $-1 $596 -55.466780602435378 $416 55.466780602435378 $411 $597 forward 7 unknown #
coedge $-1 $406 $258 $595 $598 forward $415 $-1 #
coedge $-1 $258 $406 $591 $599 reversed $415 $-1 #
loop $-1 $-1 $413 $575 #
vertex $-1 $259 $600 #
vertex $-1 $259 $601 #
straight-curve $-1 55.466780602435378 0 12.620592904934453 0 1 0 I I #
face $-1 $602 $603 $61 $-1 $604 reversed single #
loop $-1 $-1 $605 $260 #
plane-surface $-1 0 -35.484723504031855 0 0 1 0 0 0 1 forward_v I I I I #
coedge $-1 $425 $266 $606 $607 reversed $261 $-1 #
coedge $-1 $608 $263 $605 $609 reversed $165 $-1 #
coedge $-1 $263 $608 $610 $611 reversed $165 $-1 #
coedge $-1 $432 $422 $263 $426 reversed $261 $-1 #
edge $-1 $612 -35.484723504031855 $613 35.484723504031855 $425 $614 forward 7 unknown #
coedge $-1 $265 $264 $615 $616 reversed $104 $-1 #
coedge $-1 $617 $618 $264 $429 forward $619 $-1 #
edge $-1 $620 -31.335626507192806 $434 -16.926681683292337 $428 $621 forward 7 unknown #
coedge $-1 $622 $606 $265 $431 forward $420 $-1 #
edge $-1 $433 16.926681683292337 $623 31.335626507192806 $430 $624 forward 7 unknown #
coedge $-1 $266 $425 $617 $625 reversed $261 $-1 #
vertex $-1 $431 $626 #
vertex $-1 $429 $627 #
straight-curve $-1 -41.057835778534908 0 4.1570367092724991 0 1 0 I I #
face $-1 $-1 $628 $62 $-1 $629 reversed single #
loop $-1 $-1 $274 $268 #
plane-surface $-1 0 0 12.620592904934453 0 0 1 1 0 0 forward_v I I I I #
coedge $-1 $630 $631 $632 $633 reversed $269 $-1 #
coedge $-1 $634 $271 $273 $446 forward $169 $-1 #
coedge $-1 $271 $634 $630 $635 forward $169 $-1 #
coedge $-1 $632 $274 $271 $443 forward $437 $-1 #
edge $-1 $449 -24.291987337854263 $636 -3.3113528879697576 $442 $637 forward 7 unknown #
coedge $-1 $638 $639 $272 $445 forward $628 $-1 #
edge $-1 $640 -62.211673104585017 $448 -53.792584288203429 $444 $641 forward 7 unknown #
edge $-1 $449 59.063057559257743 $640 70.969447008063753 $273 $642 forward 7 unknown #
coedge $-1 $274 $632 $638 $643 forward $437 $-1 #
vertex $-1 $445 $644 #
vertex $-1 $275 $645 #
straight-curve $-1 -38.093657450766273 31.871810574542078 12.620592904934455 0 -1 0 I I #
coedge $-1 $451 $451 $-1 $646 reversed $278 $-1 #
edge $-1 $647 0 $647 6.2831853071796004 $279 $648 forward 7 unknown #
vertex $-1 $282 $649 #
ellipse-curve $-1 -32.099190465084988 31.275179193523972 8.4110484967436623 0 0.70710678939079041 0.70710677298230451 1.5 0 0 1 I I #
coedge $-1 $455 $455 $-1 $650 reversed $285 $-1 #
edge $-1 $651 0 $651 6.2831853071796004 $286 $652 forward 7 unknown #
vertex $-1 $289 $653 #
ellipse-curve $-1 -23.107489986563053 31.275179193523972 8.4110484967436623 0 0.70710678939079041 0.70710677298230451 1.5 0 0 1 I I #
face $-1 $-1 $654 $65 $-1 $655 reversed single #
loop $-1 $-1 $296 $290 #
plane-surface $-1 0 0 12.620592904934453 0 0 1 1 0 0 forward_v I I I I #
coedge $-1 $656 $657 $658 $659 reversed $291 $-1 #
coedge $-1 $660 $293 $295 $469 forward $183 $-1 #
coedge $-1 $293 $660 $656 $661 forward $183 $-1 #
coedge $-1 $658 $296 $293 $466 forward $460 $-1 #
edge $-1 $472 10.515825299919982 $662 31.496459749804487 $465 $663 forward 7 unknown #
coedge $-1 $664 $665 $294 $468 forward $654 $-1 #
edge $-1 $666 -62.211673104585017 $471 -53.792584288203429 $467 $667 forward 7 unknown #
edge $-1 $472 59.063057559257743 $666 70.969447008063753 $295 $668 forward 7 unknown #
coedge $-1 $296 $658 $664 $669 forward $460 $-1 #
vertex $-1 $297 $670 #
vertex $-1 $297 $671 #
straight-curve $-1 31.521967824782216 31.871810574542078 12.620592904934455 0 -1 0 I I #
coedge $-1 $474 $474 $-1 $672 reversed $300 $-1 #
edge $-1 $673 0 $673 6.2831853071796004 $301 $674 forward 7 unknown #
vertex $-1 $304 $675 #
ellipse-curve $-1 37.516434810463508 31.275179193523972 8.4110484967436623 0 0.70710678939079041 0.70710677298230451 1.5 0 0 1 I I #
coedge $-1 $478 $478 $-1 $676 reversed $307 $-1 #
edge $-1 $677 0 $677 6.2831853071796004 $308 $678 forward 7 unknown #
vertex $-1 $311 $679 #
ellipse-curve $-1 46.508135288985443 31.275179193523972 8.4110484967436623 0 0.70710678939079041 0.70710677298230451 1.5 0 0 1 I I #
face $-1 $-1 $680 $68 $-1 $681 reversed single #
loop $-1 $-1 $682 $312 #
plane-surface $-1 -41.057835778534908 0 2.6570367092724982 -1 0 0 0 0 1 forward_v I I I I #
coedge $-1 $683 $315 $317 $491 forward $197 $-1 #
coedge $-1 $315 $683 $682 $684 forward $197 $-1 #
coedge $-1 $685 $318 $315 $488 forward $313 $-1 #
edge $-1 $494 12.08923693185665 $686 23.34214487507106 $487 $687 forward 7 unknown #
coedge $-1 $688 $689 $316 $490 forward $680 $-1 #
edge $-1 $690 -36.104243314096543 $493 -24.054127169753158 $489 $691 forward 7 unknown #
edge $-1 $494 -15.966560287264945 $690 1.086200982436365e-014 $317 $692 forward 7 unknown #
coedge $-1 $318 $685 $688 $693 forward $313 $-1 #
vertex $-1 $319 $694 #
vertex $-1 $319 $695 #
straight-curve $-1 -29.804927835320505 -59.60367291652922 12.620592904934455 0 1 0 I I #
coedge $-1 $496 $496 $-1 $696 reversed $322 $-1 #
edge $-1 $697 0 $697 6.2831853071796004 $323 $698 forward 7 unknown #
vertex $-1 $326 $699 #
ellipse-curve $-1 -37.842719223330796 -30.247220560961054 6.5955348327627625 0 -0.75470958851134928 0.65605901945558964 1 0 0 1 I I #
coedge $-1 $500 $500 $-1 $700 reversed $329 $-1 #
edge $-1 $701 0 $701 6.2831853071796004 $330 $702 forward 7 unknown #
vertex $-1 $333 $703 #
ellipse-curve $-1 -33.020044390524617 -30.247220560961054 6.5955348327627625 0 -0.75470958851134928 0.65605901945558964 1 0 0 1 I I #
face $-1 $-1 $704 $71 $-1 $705 reversed single #
loop $-1 $-1 $340 $334 #
plane-surface $-1 0 0 12.620592904934453 0 0 1 1 0 0 forward_v I I I I #
coedge $-1 $706 $707 $708 $709 reversed $335 $-1 #
coedge $-1 $710 $337 $339 $514 forward $211 $-1 #
coedge $-1 $337 $710 $706 $711 forward $211 $-1 #
coedge $-1 $708 $340 $337 $511 forward $505 $-1 #
edge $-1 $517 0.023659884235365247 $712 11.276567827449774 $510 $713 forward 7 unknown #
coedge $-1 $714 $715 $338 $513 forward $704 $-1 #
edge $-1 $716 -36.104243314096543 $516 -24.054127169753158 $512 $717 forward 7 unknown #
edge $-1 $517 -15.966560287264945 $716 1.086200982436365e-014 $339 $718 forward 7 unknown #
coedge $-1 $340 $708 $714 $719 forward $505 $-1 #
vertex $-1 $513 $720 #
vertex $-1 $341 $721 #
straight-curve $-1 -5.6737737400779347 -59.60367291652922 12.620592904934455 0 1 0 I I #
coedge $-1 $519 $519 $-1 $722 reversed $344 $-1 #
edge $-1 $723 0 $723 6.2831853071796004 $345 $724 forward 7 unknown #
vertex $-1 $348 $725 #
ellipse-curve $-1 -13.711565128088225 -30.247220560961054 6.5955348327627625 0 -0.75470958851134928 0.65605901945558964 1 0 0 1 I I #
coedge $-1 $523 $523 $-1 $726 reversed $351 $-1 #
edge $-1 $727 0 $727 6.2831853071796004 $352 $728 forward 7 unknown #
vertex $-1 $355 $729 #
ellipse-curve $-1 -8.888890295282053 -30.247220560961054 6.5955348327627625 0 -0.75470958851134928 0.65605901945558964 1 0 0 1 I I #
face $-1 $-1 $539 $74 $-1 $730 forward single #
loop $-1 $-1 $731 $356 #
plane-surface $-1 0 -35.484723504031855 0 0 1 0 0 0 1 forward_v I I I I #
coedge $-1 $732 $733 $734 $735 reversed $357 $-1 #
coedge $-1 $736 $359 $361 $537 forward $225 $-1 #
coedge $-1 $359 $736 $732 $737 forward $225 $-1 #
coedge $-1 $734 $362 $359 $534 forward $539 $-1 #
edge $-1 $541 -12.041917163385925 $738 -0.78900922017151576 $533 $739 forward 7 unknown #
coedge $-1 $740 $741 $360 $536 forward $528 $-1 #
edge $-1 $742 -36.104243314096543 $540 -24.054127169753158 $535 $743 forward 7 unknown #
edge $-1 $541 -15.966560287264945 $742 1.086200982436365e-014 $361 $744 forward 7 unknown #
coedge $-1 $362 $734 $740 $745 forward $539 $-1 #
loop $-1 $-1 $734 $527 #
vertex $-1 $536 $746 #
vertex $-1 $363 $747 #
straight-curve $-1 18.457380355164645 -59.60367291652922 12.620592904934455 0 1 0 I I #
coedge $-1 $543 $543 $-1 $748 reversed $366 $-1 #
edge $-1 $749 0 $749 6.2831853071796004 $367 $750 forward 7 unknown #
vertex $-1 $370 $751 #
ellipse-curve $-1 10.419588967154354 -30.247220560961054 6.5955348327627625 0 -0.75470958851134928 0.65605901945558964 1 0 0 1 I I #
coedge $-1 $547 $547 $-1 $752 reversed $373 $-1 #
edge $-1 $753 0 $753 6.2831853071796004 $374 $754 forward 7 unknown #
vertex $-1 $377 $755 #
ellipse-curve $-1 15.242263799960526 -30.247220560961054 6.5955348327627625 0 -0.75470958851134928 0.65605901945558964 1 0 0 1 I I #
face $-1 $-1 $563 $77 $-1 $756 forward single #
loop $-1 $-1 $757 $378 #
plane-surface $-1 0 -35.484723504031855 0 0 1 0 0 0 1 forward_v I I I I #
coedge $-1 $758 $759 $760 $761 reversed $379 $-1 #
coedge $-1 $762 $381 $383 $561 forward $239 $-1 #
coedge $-1 $381 $762 $758 $763 forward $239 $-1 #
coedge $-1 $760 $384 $381 $558 forward $563 $-1 #
edge $-1 $565 -24.107494211007214 $764 -12.854586267792804 $557 $765 forward 7 unknown #
coedge $-1 $766 $767 $382 $560 forward $552 $-1 #
edge $-1 $768 -36.104243314096543 $564 -24.054127169753158 $559 $769 forward 7 unknown #
edge $-1 $565 -15.966560287264945 $768 1.086200982436365e-014 $383 $770 forward 7 unknown #
coedge $-1 $384 $760 $766 $771 forward $563 $-1 #
loop $-1 $-1 $760 $551 #
vertex $-1 $560 $772 #
vertex $-1 $385 $773 #
straight-curve $-1 42.588534450407224 -59.60367291652922 12.620592904934455 0 1 0 I I #
coedge $-1 $567 $567 $-1 $774 reversed $388 $-1 #
edge $-1 $775 0 $775 6.2831853071796004 $389 $776 forward 7 unknown #
vertex $-1 $392 $777 #
ellipse-curve $-1 34.550743062396933 -30.247220560961054 6.5955348327627625 0 -0.75470958851134928 0.65605901945558964 1 0 0 1 I I #
coedge $-1 $571 $571 $-1 $778 reversed $395 $-1 #
edge $-1 $779 0 $779 6.2831853071796004 $396 $780 forward 7 unknown #
vertex $-1 $399 $781 #
ellipse-curve $-1 39.373417895203104 -30.247220560961054 6.5955348327627625 0 -0.75470958851134928 0.65605901945558964 1 0 0 1 I I #
face $-1 $-1 $415 $60 $-1 $782 reversed single #
loop $-1 $-1 $591 $400 #
plane-surface $-1 0 35.484723504031855 0 0 -1 0 0 0 -1 forward_v I I I I #
coedge $-1 $783 $589 $592 $784 forward $401 $-1 #
coedge $-1 $595 $403 $404 $583 reversed $253 $-1 #
coedge $-1 $589 $783 $403 $581 reversed $401 $-1 #
edge $-1 $596 -12.620592904934453 $785 12.620592904934453 $580 $786 forward 7 unknown #
coedge $-1 $405 $404 $783 $787 forward $161 $-1 #
edge $-1 $587 -55.466780602435378 $785 55.466780602435378 $579 $788 forward 7 unknown #
coedge $-1 $592 $591 $405 $585 reversed $576 $-1 #
edge $-1 $789 -55.466780602435378 $586 55.466780602435378 $584 $790 forward 7 unknown #
vertex $-1 $407 $791 #
vertex $-1 $598 $792 #
straight-curve $-1 55.466780602435378 0 -12.620592904934453 0 -1 0 I I #
coedge $-1 $578 $580 $408 $590 reversed $401 $-1 #
edge $-1 $593 -35.484723504031855 $596 35.484723504031855 $589 $793 forward 7 unknown #
coedge $-1 $584 $409 $414 $599 forward $576 $-1 #
coedge $-1 $409 $584 $578 $784 reversed $576 $-1 #
vertex $-1 $410 $794 #
straight-curve $-1 0 35.484723504031855 12.620592904934453 -1 0 0 I I #
coedge $-1 $411 $579 $413 $598 reversed $253 $-1 #
vertex $-1 $590 $795 #
straight-curve $-1 0 -35.484723504031855 12.620592904934453 1 0 0 I I #
edge $-1 $416 -12.620592904934453 $587 12.620592904934453 $413 $796 forward 7 unknown #
edge $-1 $417 -12.620592904934453 $586 12.620592904934453 $414 $797 forward 7 unknown #
point $-1 55.466780602435378 -35.484723504031855 12.620592904934453 #
point $-1 55.466780602435378 35.484723504031855 12.620592904934453 #
face $-1 $-1 $619 $61 $-1 $798 reversed single #
loop $-1 $-1 $799 $419 #
plane-surface $-1 -55.466780602435378 0 0 1 0 0 0 0 -1 forward_v I I I I #
coedge $-1 $606 $622 $423 $609 forward $420 $-1 #
coedge $-1 $430 $605 $422 $607 forward $420 $-1 #
edge $-1 $613 -0.17148164536375177 $433 2.82851835463625 $606 $800 forward 7 unknown #
coedge $-1 $424 $423 $799 $801 reversed $165 $-1 #
edge $-1 $802 -31.335626507192806 $613 -16.926681683292337 $605 $803 forward 7 unknown #
coedge $-1 $618 $617 $424 $611 forward $619 $-1 #
edge $-1 $612 16.926681683292337 $804 31.335626507192806 $610 $805 forward 7 unknown #
vertex $-1 $611 $806 #
vertex $-1 $609 $807 #
straight-curve $-1 -41.057835778534908 0 1.1570367092724974 0 -1 0 I I #
coedge $-1 $808 $809 $427 $616 forward $603 $-1 #
edge $-1 $623 -35.484723504031855 $620 35.484723504031855 $615 $810 forward 7 unknown #
coedge $-1 $610 $428 $432 $625 forward $619 $-1 #
coedge $-1 $428 $610 $808 $811 reversed $619 $-1 #
loop $-1 $-1 $610 $602 #
vertex $-1 $811 $812 #
straight-curve $-1 -24.131154095242572 35.484723504031855 4.1570367092724991 1 0 0 I I #
coedge $-1 $605 $430 $809 $813 forward $420 $-1 #
vertex $-1 $813 $814 #
straight-curve $-1 -24.131154095242572 -35.484723504031855 4.1570367092724991 -1 0 0 I I #
edge $-1 $434 -2.82851835463625 $612 0.17148164536375177 $617 $815 forward 7 unknown #
point $-1 -41.057835778534908 -35.484723504031855 4.1570367092724991 #
point $-1 -41.057835778534908 35.484723504031855 4.1570367092724991 #
loop $-1 $-1 $444 $436 #
plane-surface $-1 0 35.484723504031855 0 0 -1 0 0 0 -1 forward_v I I I I #
coedge $-1 $631 $439 $441 $635 reversed $269 $-1 #
coedge $-1 $439 $630 $816 $817 reversed $269 $-1 #
coedge $-1 $447 $442 $439 $633 forward $437 $-1 #
edge $-1 $636 -4.8061756915259899 $818 3.6129129294897773 $632 $819 forward 7 unknown #
coedge $-1 $441 $440 $639 $820 reversed $169 $-1 #
edge $-1 $821 -70.969447008063753 $636 -59.063057559257743 $630 $822 forward 7 unknown #
vertex $-1 $443 $823 #
straight-curve $-1 -13.80167011291201 27.065634883016099 12.620592904934451 1 0 0 I I #
coedge $-1 $816 $444 $447 $643 reversed $628 $-1 #
coedge $-1 $444 $816 $634 $820 forward $628 $-1 #
vertex $-1 $445 $824 #
straight-curve $-1 -38.093657450766273 35.484723504031855 66.413177193137884 0 0 1 I I #
straight-curve $-1 -38.093657450766273 -14.698253150178751 54.384481907264643 0 0.70710677298230451 -0.70710678939079041 I I #
edge $-1 $818 17.113023000881768 $448 38.093657450766273 $638 $825 forward 7 unknown #
point $-1 -38.093657450766273 35.484723504031855 12.620592904934453 #
point $-1 -38.093657450766273 27.065634883016088 12.620592904934455 #
edge $-1 $826 1 $826 0 $451 $-1 forward 7 unknown #
vertex $-1 $452 $827 #
ellipse-curve $-1 -32.099190465084988 27.33697612407979 4.4728455186858884 0 0.70710678939079041 0.70710677298230451 1.5 0 0 1 I I #
point $-1 -30.599190465084988 31.275179193523975 8.4110484967436658 #
edge $-1 $828 1 $828 0 $455 $-1 forward 7 unknown #
vertex $-1 $456 $829 #
ellipse-curve $-1 -23.107489986563053 27.33697612407979 4.4728455186858884 0 0.70710678939079041 0.70710677298230451 1.5 0 0 1 I I #
point $-1 -21.607489986563053 31.275179193523975 8.4110484967436658 #
loop $-1 $-1 $467 $459 #
plane-surface $-1 0 35.484723504031855 0 0 -1 0 0 0 -1 forward_v I I I I #
coedge $-1 $657 $462 $464 $661 reversed $291 $-1 #
coedge $-1 $462 $656 $830 $831 reversed $291 $-1 #
coedge $-1 $470 $465 $462 $659 forward $460 $-1 #
edge $-1 $662 -4.8061756915259899 $832 3.6129129294897773 $658 $833 forward 7 unknown #
coedge $-1 $464 $463 $665 $834 reversed $183 $-1 #
edge $-1 $835 -70.969447008063753 $662 -59.063057559257743 $656 $836 forward 7 unknown #
vertex $-1 $466 $837 #
straight-curve $-1 21.006142524862234 27.065634883016099 12.620592904934451 1 0 0 I I #
coedge $-1 $830 $467 $470 $669 reversed $654 $-1 #
coedge $-1 $467 $830 $660 $834 forward $654 $-1 #
vertex $-1 $468 $838 #
straight-curve $-1 31.521967824782216 35.484723504031855 66.413177193137884 0 0 1 I I #
straight-curve $-1 31.521967824782216 -14.698253150178751 54.384481907264643 0 0.70710677298230451 -0.70710678939079041 I I #
edge $-1 $832 -52.502602274666721 $471 -31.521967824782216 $664 $839 forward 7 unknown #
point $-1 31.521967824782216 35.484723504031855 12.620592904934453 #
point $-1 31.521967824782216 27.065634883016088 12.620592904934455 #
edge $-1 $840 1 $840 0 $474 $-1 forward 7 unknown #
vertex $-1 $475 $841 #
ellipse-curve $-1 37.516434810463508 27.33697612407979 4.4728455186858884 0 0.70710678939079041 0.70710677298230451 1.5 0 0 1 I I #
point $-1 39.016434810463508 31.275179193523975 8.4110484967436658 #
edge $-1 $842 1 $842 0 $478 $-1 forward 7 unknown #
vertex $-1 $479 $843 #
ellipse-curve $-1 46.508135288985443 27.33697612407979 4.4728455186858884 0 0.70710678939079041 0.70710677298230451 1.5 0 0 1 I I #
point $-1 48.008135288985443 31.275179193523975 8.4110484967436658 #
loop $-1 $-1 $489 $482 #
plane-surface $-1 0 -35.484723504031855 0 0 1 0 0 0 1 forward_v I I I I #
coedge $-1 $844 $845 $486 $684 reversed $483 $-1 #
coedge $-1 $486 $485 $689 $846 reversed $197 $-1 #
edge $-1 $847 -1.086200982436365e-014 $686 15.966560287264945 $682 $848 forward 7 unknown #
coedge $-1 $492 $487 $845 $849 forward $313 $-1 #
vertex $-1 $849 $850 #
straight-curve $-1 -17.715690903463855 -25.009717617890253 12.620592904934453 -1 0 0 I I #
coedge $-1 $851 $489 $492 $693 reversed $680 $-1 #
coedge $-1 $489 $851 $683 $846 forward $680 $-1 #
vertex $-1 $490 $852 #
straight-curve $-1 -29.804927835320505 -35.484723504031855 36.674720074687613 0 0 1 I I #
straight-curve $-1 -29.804927835320505 -35.484723504031848 0.57047676059107744 0 -0.65605901945558964 -0.75470958851134928 I I #
edge $-1 $853 -41.057835778534916 $493 -29.804927835320505 $688 $854 forward 7 unknown #
point $-1 -29.804927835320505 -35.484723504031855 12.620592904934453 #
point $-1 -29.804927835320505 -25.009717617890253 12.620592904934453 #
edge $-1 $855 1 $855 0 $496 $-1 forward 7 unknown #
vertex $-1 $497 $856 #
ellipse-curve $-1 -37.842719223330796 -27.256228634495546 3.9955052845135075 0 -0.75470958851134928 0.65605901945558964 1 0 0 1 I I #
point $-1 -36.842719223330796 -30.247220560961054 6.5955348327627643 #
edge $-1 $857 1 $857 0 $500 $-1 forward 7 unknown #
vertex $-1 $501 $858 #
ellipse-curve $-1 -33.020044390524617 -27.256228634495546 3.9955052845135075 0 -0.75470958851134928 0.65605901945558964 1 0 0 1 I I #
point $-1 -32.020044390524617 -30.247220560961054 6.5955348327627643 #
loop $-1 $-1 $512 $504 #
plane-surface $-1 0 -35.484723504031855 0 0 1 0 0 0 1 forward_v I I I I #
coedge $-1 $707 $507 $509 $711 reversed $335 $-1 #
coedge $-1 $507 $706 $859 $860 reversed $335 $-1 #
coedge $-1 $515 $510 $507 $709 forward $505 $-1 #
edge $-1 $712 -34.593955298638967 $861 -24.118949412497365 $708 $862 forward 7 unknown #
coedge $-1 $509 $508 $715 $863 reversed $211 $-1 #
edge $-1 $864 -1.086200982436365e-014 $712 15.966560287264945 $706 $865 forward 7 unknown #
vertex $-1 $511 $866 #
straight-curve $-1 -5.6501138558425694 -25.009717617890253 12.620592904934453 -1 0 0 I I #
coedge $-1 $859 $512 $515 $719 reversed $704 $-1 #
coedge $-1 $512 $859 $710 $863 forward $704 $-1 #
vertex $-1 $513 $867 #
straight-curve $-1 -5.6737737400779347 -35.484723504031855 36.674720074687613 0 0 1 I I #
straight-curve $-1 -5.6737737400779347 -35.484723504031848 0.57047676059107744 0 -0.65605901945558964 -0.75470958851134928 I I #
edge $-1 $861 -16.926681683292344 $516 -5.6737737400779347 $714 $868 forward 7 unknown #
point $-1 -5.6737737400779347 -35.484723504031855 12.620592904934453 #
point $-1 -5.6737737400779347 -25.009717617890253 12.620592904934453 #
edge $-1 $869 1 $869 0 $519 $-1 forward 7 unknown #
vertex $-1 $520 $870 #
ellipse-curve $-1 -13.711565128088225 -27.256228634495546 3.9955052845135075 0 -0.75470958851134928 0.65605901945558964 1 0 0 1 I I #
point $-1 -12.711565128088225 -30.247220560961054 6.5955348327627643 #
edge $-1 $871 1 $871 0 $523 $-1 forward 7 unknown #
vertex $-1 $524 $872 #
ellipse-curve $-1 -8.888890295282053 -27.256228634495546 3.9955052845135075 0 -0.75470958851134928 0.65605901945558964 1 0 0 1 I I #
point $-1 -7.888890295282053 -30.247220560961054 6.5955348327627643 #
plane-surface $-1 0 0 12.620592904934453 0 0 1 1 0 0 forward_v I I I I #
coedge $-1 $741 $740 $733 $873 forward $528 $-1 #
coedge $-1 $733 $530 $532 $737 reversed $357 $-1 #
coedge $-1 $530 $732 $731 $873 reversed $357 $-1 #
coedge $-1 $538 $533 $530 $735 forward $539 $-1 #
edge $-1 $738 -34.593955298638967 $874 -24.118949412497365 $734 $875 forward 7 unknown #
coedge $-1 $532 $531 $741 $876 reversed $225 $-1 #
edge $-1 $877 -1.086200982436365e-014 $738 15.966560287264945 $732 $878 forward 7 unknown #
vertex $-1 $534 $879 #
straight-curve $-1 6.4154631917787199 -25.009717617890253 12.620592904934453 -1 0 0 I I #
coedge $-1 $731 $535 $538 $745 reversed $528 $-1 #
coedge $-1 $535 $731 $736 $876 forward $528 $-1 #
vertex $-1 $536 $880 #
straight-curve $-1 18.457380355164645 -35.484723504031855 36.674720074687613 0 0 1 I I #
straight-curve $-1 18.457380355164645 -35.484723504031848 0.57047676059107744 0 -0.65605901945558964 -0.75470958851134928 I I #
edge $-1 $874 7.2044724119502357 $540 18.457380355164645 $740 $881 forward 7 unknown #
point $-1 18.457380355164645 -35.484723504031855 12.620592904934453 #
point $-1 18.457380355164645 -25.009717617890253 12.620592904934453 #
edge $-1 $882 1 $882 0 $543 $-1 forward 7 unknown #
vertex $-1 $544 $883 #
ellipse-curve $-1 10.419588967154354 -27.256228634495546 3.9955052845135075 0 -0.75470958851134928 0.65605901945558964 1 0 0 1 I I #
point $-1 11.419588967154354 -30.247220560961054 6.5955348327627643 #
edge $-1 $884 1 $884 0 $547 $-1 forward 7 unknown #
vertex $-1 $548 $885 #
ellipse-curve $-1 15.242263799960526 -27.256228634495546 3.9955052845135075 0 -0.75470958851134928 0.65605901945558964 1 0 0 1 I I #
point $-1 16.242263799960526 -30.247220560961054 6.5955348327627643 #
plane-surface $-1 0 0 12.620592904934453 0 0 1 1 0 0 forward_v I I I I #
coedge $-1 $767 $766 $759 $886 forward $552 $-1 #
coedge $-1 $759 $554 $556 $763 reversed $379 $-1 #
coedge $-1 $554 $758 $757 $886 reversed $379 $-1 #
coedge $-1 $562 $557 $554 $761 forward $563 $-1 #
edge $-1 $764 -34.593955298638967 $887 -24.118949412497365 $760 $888 forward 7 unknown #
coedge $-1 $556 $555 $767 $889 reversed $239 $-1 #
edge $-1 $890 -1.086200982436365e-014 $764 15.966560287264945 $758 $891 forward 7 unknown #
vertex $-1 $558 $892 #
straight-curve $-1 18.481040239400009 -25.009717617890253 12.620592904934453 -1 0 0 I I #
coedge $-1 $757 $559 $562 $771 reversed $552 $-1 #
coedge $-1 $559 $757 $762 $889 forward $552 $-1 #
vertex $-1 $560 $893 #
straight-curve $-1 42.588534450407224 -35.484723504031855 36.674720074687613 0 0 1 I I #
straight-curve $-1 42.588534450407224 -35.484723504031848 0.57047676059107744 0 -0.65605901945558964 -0.75470958851134928 I I #
edge $-1 $887 31.335626507192814 $564 42.588534450407224 $766 $894 forward 7 unknown #
point $-1 42.588534450407224 -35.484723504031855 12.620592904934453 #
point $-1 42.588534450407224 -25.009717617890253 12.620592904934453 #
edge $-1 $895 1 $895 0 $567 $-1 forward 7 unknown #
vertex $-1 $568 $896 #
ellipse-curve $-1 34.550743062396933 -27.256228634495546 3.9955052845135075 0 -0.75470958851134928 0.65605901945558964 1 0 0 1 I I #
point $-1 35.550743062396933 -30.247220560961054 6.5955348327627643 #
edge $-1 $897 1 $897 0 $571 $-1 forward 7 unknown #
vertex $-1 $572 $898 #
ellipse-curve $-1 39.373417895203104 -27.256228634495546 3.9955052845135075 0 -0.75470958851134928 0.65605901945558964 1 0 0 1 I I #
point $-1 40.373417895203104 -30.247220560961054 6.5955348327627643 #
plane-surface $-1 55.466780602435378 0 0 -1 0 0 0 0 1 forward_v I I I I #
coedge $-1 $580 $578 $582 $787 reversed $401 $-1 #
edge $-1 $593 -12.620592904934453 $789 12.620592904934453 $592 $899 forward 7 unknown #
vertex $-1 $787 $900 #
straight-curve $-1 -55.466780602435378 -35.484723504031855 0 0 0 -1 I I #
edge $-1 $785 -35.484723504031855 $789 35.484723504031855 $783 $901 forward 7 unknown #
straight-curve $-1 0 -35.484723504031855 -12.620592904934453 -1 0 0 I I #
vertex $-1 $585 $902 #
straight-curve $-1 0 35.484723504031855 -12.620592904934453 1 0 0 I I #
point $-1 55.466780602435378 35.484723504031855 -12.620592904934453 #
point $-1 55.466780602435378 -35.484723504031855 -12.620592904934453 #
straight-curve $-1 -55.466780602435378 0 12.620592904934453 0 -1 0 I I #
point $-1 -55.466780602435378 35.484723504031855 12.620592904934453 #
point $-1 -55.466780602435378 -35.484723504031855 12.620592904934453 #
straight-curve $-1 55.466780602435378 -35.484723504031855 0 0 0 -1 I I #
straight-curve $-1 55.466780602435378 35.484723504031855 0 0 0 -1 I I #
plane-surface $-1 0 35.484723504031855 0 0 -1 0 0 0 -1 forward_v I I I I #
coedge $-1 $809 $808 $608 $801 forward $603 $-1 #
straight-curve $-1 -41.057835778534908 -35.484723504031855 1.3285183546362491 0 0 1 I I #
edge $-1 $804 -35.484723504031855 $802 35.484723504031855 $799 $903 forward 7 unknown #
vertex $-1 $609 $904 #
straight-curve $-1 -24.131154095242572 -35.484723504031855 1.1570367092724974 1 0 0 I I #
vertex $-1 $611 $905 #
straight-curve $-1 -24.131154095242572 35.484723504031855 1.1570367092724974 -1 0 0 I I #
point $-1 -41.057835778534908 35.484723504031855 1.1570367092724974 #
point $-1 -41.057835778534908 -35.484723504031855 1.1570367092724974 #
coedge $-1 $799 $615 $618 $811 forward $603 $-1 #
coedge $-1 $615 $799 $622 $813 reversed $603 $-1 #
straight-curve $-1 -55.466780602435378 0 4.1570367092724991 0 1 0 I I #
edge $-1 $620 -4.1570367092724991 $804 -1.1570367092724974 $618 $906 forward 7 unknown #
point $-1 -55.466780602435378 35.484723504031855 4.1570367092724991 #
edge $-1 $623 -4.1570367092724991 $802 -1.1570367092724974 $809 $907 forward 7 unknown #
point $-1 -55.466780602435378 -35.484723504031855 4.1570367092724991 #
straight-curve $-1 -41.057835778534908 35.484723504031855 1.3285183546362491 0 0 -1 I I #
coedge $-1 $639 $638 $631 $817 forward $628 $-1 #
edge $-1 $818 53.792584288203429 $821 62.211673104585017 $816 $908 forward 7 unknown #
vertex $-1 $643 $909 #
straight-curve $-1 -17.113023000881768 31.871810574542078 12.620592904934455 0 1 0 I I #
edge $-1 $821 3.3113528879697576 $640 24.291987337854263 $639 $910 forward 7 unknown #
vertex $-1 $820 $911 #
straight-curve $-1 -17.113023000881768 -14.698253150178751 54.384481907264643 0 -0.70710677298230451 0.70710678939079041 I I #
point $-1 -17.113023000881768 27.065634883016088 12.620592904934455 #
point $-1 -38.093657450766273 35.484723504031855 4.2015040885528663 #
straight-curve $-1 0 35.484723504031855 12.620592904934453 -1 0 0 I I #
vertex $-1 $646 $912 #
point $-1 -30.599190465084988 27.33697612407979 4.4728455186858884 #
vertex $-1 $650 $913 #
point $-1 -21.607489986563053 27.33697612407979 4.4728455186858884 #
coedge $-1 $665 $664 $657 $831 forward $654 $-1 #
edge $-1 $832 53.792584288203429 $835 62.211673104585017 $830 $914 forward 7 unknown #
vertex $-1 $669 $915 #
straight-curve $-1 52.502602274666721 31.871810574542078 12.620592904934455 0 1 0 I I #
edge $-1 $835 -31.496459749804487 $666 -10.515825299919982 $665 $916 forward 7 unknown #
vertex $-1 $834 $917 #
straight-curve $-1 52.502602274666721 -14.698253150178751 54.384481907264643 0 -0.70710677298230451 0.70710678939079041 I I #
point $-1 52.502602274666721 27.065634883016088 12.620592904934455 #
point $-1 31.521967824782216 35.484723504031855 4.2015040885528663 #
straight-curve $-1 0 35.484723504031855 12.620592904934453 -1 0 0 I I #
vertex $-1 $672 $918 #
point $-1 39.016434810463508 27.33697612407979 4.4728455186858884 #
vertex $-1 $676 $919 #
point $-1 48.008135288985443 27.33697612407979 4.4728455186858884 #
coedge $-1 $845 $682 $851 $920 reversed $483 $-1 #
coedge $-1 $682 $844 $685 $849 reversed $483 $-1 #
edge $-1 $847 -23.34214487507106 $690 -12.08923693185665 $689 $921 forward 7 unknown #
vertex $-1 $920 $922 #
straight-curve $-1 -41.057835778534916 -35.484723504031848 0.57047676059107744 0 0.65605901945558964 0.75470958851134928 I I #
edge $-1 $686 -34.593955298638967 $853 -24.118949412497365 $685 $923 forward 7 unknown #
point $-1 -41.057835778534916 -25.009717617890253 12.620592904934453 #
coedge $-1 $689 $688 $844 $920 forward $680 $-1 #
point $-1 -29.804927835320505 -35.484723504031855 0.57047676059106922 #
vertex $-1 $693 $924 #
straight-curve $-1 0 -35.484723504031855 12.620592904934453 1 0 0 I I #
vertex $-1 $696 $925 #
point $-1 -36.842719223330796 -27.256228634495546 3.9955052845135075 #
vertex $-1 $700 $926 #
point $-1 -32.020044390524617 -27.256228634495546 3.9955052845135075 #
coedge $-1 $715 $714 $707 $860 forward $704 $-1 #
edge $-1 $861 24.054127169753158 $864 36.104243314096543 $859 $927 forward 7 unknown #
vertex $-1 $719 $928 #
straight-curve $-1 -16.926681683292344 -59.60367291652922 12.620592904934455 0 -1 0 I I #
edge $-1 $864 -11.276567827449774 $716 -0.023659884235365247 $715 $929 forward 7 unknown #
vertex $-1 $863 $930 #
straight-curve $-1 -16.926681683292344 -35.484723504031848 0.57047676059107744 0 0.65605901945558964 0.75470958851134928 I I #
point $-1 -16.926681683292344 -25.009717617890253 12.620592904934453 #
point $-1 -5.6737737400779347 -35.484723504031855 0.57047676059106922 #
straight-curve $-1 0 -35.484723504031855 12.620592904934453 1 0 0 I I #
vertex $-1 $722 $931 #
point $-1 -12.711565128088225 -27.256228634495546 3.9955052845135075 #
vertex $-1 $726 $932 #
point $-1 -7.888890295282053 -27.256228634495546 3.9955052845135075 #
edge $-1 $874 24.054127169753158 $877 36.104243314096543 $731 $933 forward 7 unknown #
vertex $-1 $745 $934 #
straight-curve $-1 7.2044724119502357 -59.60367291652922 12.620592904934455 0 -1 0 I I #
edge $-1 $877 0.78900922017151576 $742 12.041917163385925 $741 $935 forward 7 unknown #
vertex $-1 $876 $936 #
straight-curve $-1 7.2044724119502357 -35.484723504031848 0.57047676059107744 0 0.65605901945558964 0.75470958851134928 I I #
point $-1 7.2044724119502357 -25.009717617890253 12.620592904934453 #
point $-1 18.457380355164645 -35.484723504031855 0.57047676059106922 #
straight-curve $-1 0 -35.484723504031855 12.620592904934453 1 0 0 I I #
vertex $-1 $748 $937 #
point $-1 11.419588967154354 -27.256228634495546 3.9955052845135075 #
vertex $-1 $752 $938 #
point $-1 16.242263799960526 -27.256228634495546 3.9955052845135075 #
edge $-1 $887 24.054127169753158 $890 36.104243314096543 $757 $939 forward 7 unknown #
vertex $-1 $771 $940 #
straight-curve $-1 31.335626507192814 -59.60367291652922 12.620592904934455 0 -1 0 I I #
edge $-1 $890 12.854586267792804 $768 24.107494211007214 $767 $941 forward 7 unknown #
vertex $-1 $889 $942 #
straight-curve $-1 31.335626507192814 -35.484723504031848 0.57047676059107744 0 0.65605901945558964 0.75470958851134928 I I #
point $-1 31.335626507192814 -25.009717617890253 12.620592904934453 #
point $-1 42.588534450407224 -35.484723504031855 0.57047676059106922 #
straight-curve $-1 0 -35.484723504031855 12.620592904934453 1 0 0 I I #
vertex $-1 $774 $943 #
point $-1 35.550743062396933 -27.256228634495546 3.9955052845135075 #
vertex $-1 $778 $944 #
point $-1 40.373417895203104 -27.256228634495546 3.9955052845135075 #
straight-curve $-1 -55.466780602435378 35.484723504031855 0 0 0 -1 I I #
point $-1 -55.466780602435378 -35.484723504031855 -12.620592904934453 #
straight-curve $-1 -55.466780602435378 0 -12.620592904934453 0 1 0 I I #
point $-1 -55.466780602435378 35.484723504031855 -12.620592904934453 #
straight-curve $-1 -55.466780602435378 0 1.1570367092724974 0 -1 0 I I #
point $-1 -55.466780602435378 -35.484723504031855 1.1570367092724974 #
point $-1 -55.466780602435378 35.484723504031855 1.1570367092724974 #
straight-curve $-1 -55.466780602435378 35.484723504031855 0 0 0 -1 I I #
straight-curve $-1 -55.466780602435378 -35.484723504031855 0 0 0 -1 I I #
straight-curve $-1 -17.113023000881768 35.484723504031855 66.413177193137884 0 0 -1 I I #
point $-1 -17.113023000881768 35.484723504031855 12.620592904934453 #
straight-curve $-1 -13.80167011291201 35.484723504031855 4.2015040885528663 -1 0 0 I I #
point $-1 -17.113023000881768 35.484723504031855 4.2015040885528663 #
point $-1 -32.099190465084988 26.276315939993601 3.4121853592124314 #
point $-1 -23.107489986563053 26.276315939993601 3.4121853592124314 #
straight-curve $-1 52.502602274666721 35.484723504031855 66.413177193137884 0 0 -1 I I #
point $-1 52.502602274666721 35.484723504031855 12.620592904934453 #
straight-curve $-1 21.006142524862234 35.484723504031855 4.2015040885528663 -1 0 0 I I #
point $-1 52.502602274666721 35.484723504031855 4.2015040885528663 #
point $-1 37.516434810463508 26.276315939993601 3.4121853592124314 #
point $-1 46.508135288985443 26.276315939993601 3.4121853592124314 #
edge $-1 $853 24.054127169753158 $847 36.104243314096543 $851 $945 forward 7 unknown #
straight-curve $-1 -17.715690903463855 -35.484723504031855 0.57047676059106334 1 0 0 I I #
point $-1 -41.057835778534916 -35.484723504031855 0.57047676059106922 #
straight-curve $-1 -41.057835778534916 -59.60367291652922 12.620592904934455 0 -1 0 I I #
point $-1 -41.057835778534916 -35.484723504031855 12.620592904934453 #
point $-1 -37.842719223330796 -26.5015190459842 3.3394462650579175 #
point $-1 -33.020044390524617 -26.5015190459842 3.3394462650579175 #
straight-curve $-1 -16.926681683292344 -35.484723504031855 36.674720074687613 0 0 -1 I I #
point $-1 -16.926681683292344 -35.484723504031855 12.620592904934453 #
straight-curve $-1 -5.6501138558425694 -35.484723504031855 0.57047676059106334 1 0 0 I I #
point $-1 -16.926681683292344 -35.484723504031855 0.57047676059106922 #
point $-1 -13.711565128088225 -26.5015190459842 3.3394462650579175 #
point $-1 -8.888890295282053 -26.5015190459842 3.3394462650579175 #
straight-curve $-1 7.2044724119502357 -35.484723504031855 36.674720074687613 0 0 -1 I I #
point $-1 7.2044724119502357 -35.484723504031855 12.620592904934453 #
straight-curve $-1 6.4154631917787199 -35.484723504031855 0.57047676059106334 1 0 0 I I #
point $-1 7.2044724119502357 -35.484723504031855 0.57047676059106922 #
point $-1 10.419588967154354 -26.5015190459842 3.3394462650579175 #
point $-1 15.242263799960526 -26.5015190459842 3.3394462650579175 #
straight-curve $-1 31.335626507192814 -35.484723504031855 36.674720074687613 0 0 -1 I I #
point $-1 31.335626507192814 -35.484723504031855 12.620592904934453 #
straight-curve $-1 18.481040239400009 -35.484723504031855 0.57047676059106334 1 0 0 I I #
point $-1 31.335626507192814 -35.484723504031855 0.57047676059106922 #
point $-1 34.550743062396933 -26.5015190459842 3.3394462650579175 #
point $-1 39.373417895203104 -26.5015190459842 3.3394462650579175 #
straight-curve $-1 -41.057835778534916 -35.484723504031855 36.674720074687613 0 0 -1 I I #
End-of-ACIS-data 