500 0 6 0           
7 Unknown 11 ACIS 5.0 NT 24 Fri Mar 26 19:16:47 1999 
-1 9.9999999999999995e-007 1e-010 
body $-1 $6 $-1 $7 #
body $-1 $8 $-1 $9 #
body $-1 $10 $-1 $11 #
body $-1 $12 $-1 $13 #
body $-1 $14 $-1 $15 #
body $-1 $16 $-1 $17 #
lump $-1 $-1 $18 $0 #
transform $-1 1 0 0 0 1 0 0 0 1 71.425519577623831 47.942529910893846 17.411301185327822 1 rotate no_reflect no_shear #
lump $-1 $-1 $19 $1 #
transform $-1 1 0 0 0 1 0 0 0 1 71.425519577623831 47.942529910893846 17.411301185327822 1 rotate no_reflect no_shear #
lump $-1 $-1 $20 $2 #
transform $-1 1 0 0 0 1 0 0 0 1 71.425519577623831 47.942529910893846 17.411301185327822 1 rotate no_reflect no_shear #
lump $-1 $-1 $21 $3 #
transform $-1 1 0 0 0 1 0 0 0 1 71.425519577623831 47.942529910893846 17.411301185327822 1 rotate no_reflect no_shear #
lump $-1 $-1 $22 $4 #
transform $-1 1 0 0 0 1 0 0 0 1 71.425519577623831 47.942529910893846 17.411301185327822 1 rotate no_reflect no_shear #
lump $-1 $-1 $23 $5 #
transform $-1 1 0 0 0 1 0 0 0 1 71.425519577623831 47.942529910893846 17.411301185327822 1 rotate no_reflect no_shear #
shell $-1 $-1 $-1 $24 $-1 $6 #
shell $-1 $-1 $-1 $25 $-1 $8 #
shell $-1 $-1 $-1 $26 $-1 $10 #
shell $-1 $-1 $-1 $27 $-1 $12 #
shell $-1 $-1 $-1 $28 $-1 $14 #
shell $-1 $-1 $-1 $29 $-1 $16 #
face $-1 $30 $31 $18 $-1 $32 forward single #
face $-1 $33 $34 $19 $-1 $35 reversed single #
face $-1 $36 $37 $20 $-1 $38 reversed single #
face $-1 $39 $40 $21 $-1 $41 forward single #
face $-1 $42 $43 $22 $-1 $44 reversed single #
face $-1 $45 $46 $23 $-1 $47 forward single #
face $-1 $48 $49 $18 $-1 $50 reversed single #
loop $-1 $-1 $51 $24 #
plane-surface $-1 0 0 17.411301185327822 0 0 1 1 0 0 forward_v I I I I #
face $-1 $52 $53 $19 $-1 $54 reversed single #
loop $-1 $-1 $55 $25 #
plane-surface $-1 -63.836850158355887 -27.023110417912491 0 0 1 0 0 0 1 forward_v I I I I #
face $-1 $56 $57 $20 $-1 $58 reversed single #
loop $-1 $-1 $59 $26 #
plane-surface $-1 46.80524804211494 -23.042901561689245 205.54088238572911 0 -1 0 -0.61566148304635926 0 -0.78801074757464917 forward_v I I I I #
face $-1 $60 $61 $21 $-1 $62 forward single #
loop $-1 $63 $64 $27 #
cone-surface $-1 61.865347251916646 -32.782256716322408 9.1276696914448205 -0.61566148304635926 0 -0.78801074757464917 1.5760214951492983 0 -1.2313229660927185 1 I I 0 1 2 forward I I I I #
face $-1 $65 $66 $22 $-1 $67 reversed single #
loop $-1 $-1 $68 $28 #
plane-surface $-1 46.80524804211494 24.899628349204601 205.54088238572911 0 -1 0 -0.61566148304635926 0 -0.78801074757464917 forward_v I I I I #
face $-1 $69 $70 $23 $-1 $71 forward single #
loop $-1 $72 $73 $29 #
cone-surface $-1 61.865347251916646 15.160273194571438 9.1276696914448205 -0.61566148304635926 0 -0.78801074757464917 1.5760214951492983 0 -1.2313229660927185 1 I I 0 1 2 forward I I I I #
face $-1 $74 $75 $18 $-1 $76 reversed single #
loop $-1 $-1 $77 $30 #
plane-surface $-1 0 0 -17.411301185327822 0 0 1 1 0 0 forward_v I I I I #
coedge $-1 $78 $79 $80 $81 forward $31 $-1 #
face $-1 $82 $83 $19 $-1 $84 reversed single #
loop $-1 $-1 $85 $33 #
plane-surface $-1 -63.836850158355887 -22.886631179431618 0 0 -1 0 0 0 -1 forward_v I I I I #
coedge $-1 $86 $87 $88 $89 reversed $34 $-1 #
face $-1 $90 $91 $20 $-1 $92 reversed single #
loop $-1 $-1 $93 $36 #
plane-surface $-1 -41.142634578918376 -32.782256716322408 92.972728229186913 0.61566148304635926 0 0.78801074757464917 0.78801074757464917 0 -0.61566148304635926 forward_v I I I I #
coedge $-1 $94 $95 $96 $97 reversed $37 $-1 #
face $-1 $-1 $98 $21 $-1 $99 forward single #
loop $-1 $100 $101 $39 #
cone-surface $-1 59.616483367343179 -32.782256716322408 6.249255238574257 -0.61566148304635926 0 -0.78801074757464917 0.78801074757464917 0 -0.61566148304635926 1 I I -0.70710678118654724 0.70710678118654791 1 forward I I I I #
loop $-1 $-1 $102 $27 #
coedge $-1 $64 $64 $103 $104 reversed $40 $-1 #
face $-1 $105 $106 $22 $-1 $107 reversed single #
loop $-1 $-1 $108 $42 #
plane-surface $-1 -41.142634578918376 15.160273194571438 92.972728229186913 0.61566148304635926 0 0.78801074757464917 0.78801074757464917 0 -0.61566148304635926 forward_v I I I I #
coedge $-1 $109 $110 $111 $112 reversed $43 $-1 #
face $-1 $-1 $113 $23 $-1 $114 forward single #
loop $-1 $115 $116 $45 #
cone-surface $-1 59.616483367343179 15.160273194571438 6.249255238574257 -0.61566148304635926 0 -0.78801074757464917 0.78801074757464917 0 -0.61566148304635926 1 I I -0.70710678118654724 0.70710678118654791 1 forward I I I I #
loop $-1 $-1 $117 $29 #
coedge $-1 $73 $73 $118 $119 reversed $46 $-1 #
face $-1 $120 $121 $18 $-1 $122 reversed single #
loop $-1 $-1 $123 $48 #
plane-surface $-1 0 -47.942529910893846 0 0 1 0 0 0 1 forward_v I I I I #
coedge $-1 $124 $125 $126 $127 forward $49 $-1 #
coedge $-1 $128 $51 $129 $130 forward $31 $-1 #
coedge $-1 $51 $128 $131 $132 forward $31 $-1 #
coedge $-1 $133 $134 $51 $81 reversed $135 $-1 #
edge $-1 $136 -47.942529910893846 $137 47.942529910893846 $80 $138 forward 7 unknown #
face $-1 $139 $140 $19 $-1 $141 reversed single #
loop $-1 $-1 $142 $52 #
plane-surface $-1 -56.248180739087942 -24.954870798672054 0 -1 0 0 0 0 1 forward_v I I I I #
coedge $-1 $143 $144 $145 $146 forward $53 $-1 #
coedge $-1 $147 $55 $148 $149 reversed $34 $-1 #
coedge $-1 $55 $147 $150 $151 reversed $34 $-1 #
coedge $-1 $152 $153 $55 $89 forward $154 $-1 #
edge $-1 $155 -17.411301185327822 $156 17.411301185327822 $88 $157 forward 7 unknown #
face $-1 $158 $159 $20 $-1 $160 reversed single #
loop $-1 $-1 $161 $56 #
plane-surface $-1 46.80524804211494 -42.521611870955567 205.54088238572911 0 1 0 0.61566148304635926 0 0.78801074757464917 forward_v I I I I #
coedge $-1 $162 $163 $164 $165 reversed $57 $-1 #
coedge $-1 $95 $59 $166 $167 reversed $37 $-1 #
coedge $-1 $59 $94 $162 $168 reversed $37 $-1 #
coedge $-1 $164 $169 $59 $97 forward $170 $-1 #
edge $-1 $171 -48.022895556566361 $172 -32.168955708206092 $96 $173 forward 7 unknown #
loop $-1 $-1 $103 $60 #
plane-surface $-1 -41.142634578918376 -32.782256716322408 92.972728229186913 0.61566148304635926 0 0.78801074757464917 0.78801074757464917 0 -0.61566148304635926 forward_v I I I I #
loop $-1 $-1 $174 $39 #
coedge $-1 $101 $101 $102 $175 reversed $61 $-1 #
coedge $-1 $102 $102 $101 $175 forward $63 $-1 #
coedge $-1 $103 $103 $64 $104 forward $98 $-1 #
edge $-1 $176 0 $176 6.2831853071796004 $103 $177 forward 7 unknown #
face $-1 $178 $179 $22 $-1 $180 reversed single #
loop $-1 $-1 $181 $65 #
plane-surface $-1 46.80524804211494 5.4209180399382753 205.54088238572911 0 1 0 0.61566148304635926 0 0.78801074757464917 forward_v I I I I #
coedge $-1 $182 $183 $184 $185 reversed $66 $-1 #
coedge $-1 $110 $68 $186 $187 reversed $43 $-1 #
coedge $-1 $68 $109 $182 $188 reversed $43 $-1 #
coedge $-1 $184 $189 $68 $112 forward $190 $-1 #
edge $-1 $191 -48.022895556566361 $192 -32.168955708206092 $111 $193 forward 7 unknown #
loop $-1 $-1 $118 $69 #
plane-surface $-1 -41.142634578918376 15.160273194571438 92.972728229186913 0.61566148304635926 0 0.78801074757464917 0.78801074757464917 0 -0.61566148304635926 forward_v I I I I #
loop $-1 $-1 $194 $45 #
coedge $-1 $116 $116 $117 $195 reversed $70 $-1 #
coedge $-1 $117 $117 $116 $195 forward $72 $-1 #
coedge $-1 $118 $118 $73 $119 forward $113 $-1 #
edge $-1 $196 0 $196 6.2831853071796004 $118 $197 forward 7 unknown #
face $-1 $198 $199 $18 $-1 $200 reversed single #
loop $-1 $-1 $201 $74 #
plane-surface $-1 -71.425519577623831 0 0 1 0 0 0 0 -1 forward_v I I I I #
coedge $-1 $202 $131 $203 $204 forward $75 $-1 #
coedge $-1 $205 $77 $202 $206 forward $49 $-1 #
coedge $-1 $77 $205 $207 $208 forward $49 $-1 #
coedge $-1 $134 $133 $77 $127 reversed $135 $-1 #
edge $-1 $209 -47.942529910893846 $210 47.942529910893846 $126 $211 forward 7 unknown #
coedge $-1 $79 $78 $212 $213 forward $31 $-1 #
coedge $-1 $214 $215 $78 $130 reversed $199 $-1 #
edge $-1 $137 -71.425519577623831 $216 71.425519577623831 $129 $217 forward 7 unknown #
coedge $-1 $123 $218 $79 $132 reversed $75 $-1 #
edge $-1 $219 -71.425519577623831 $136 71.425519577623831 $131 $220 forward 7 unknown #
coedge $-1 $126 $80 $218 $221 forward $135 $-1 #
coedge $-1 $80 $126 $214 $222 reversed $135 $-1 #
loop $-1 $-1 $133 $198 #
vertex $-1 $81 $223 #
vertex $-1 $81 $224 #
straight-curve $-1 71.425519577623831 0 17.411301185327822 0 1 0 I I #
face $-1 $225 $226 $19 $-1 $227 forward single #
loop $-1 $-1 $228 $82 #
plane-surface $-1 0 0 -17.411301185327822 0 0 1 1 0 0 forward_v I I I I #
coedge $-1 $229 $230 $147 $231 forward $83 $-1 #
coedge $-1 $232 $85 $228 $233 reversed $53 $-1 #
coedge $-1 $85 $232 $234 $235 reversed $53 $-1 #
coedge $-1 $230 $229 $85 $146 reversed $83 $-1 #
edge $-1 $236 -17.411301185327822 $237 17.411301185327822 $145 $238 forward 7 unknown #
coedge $-1 $87 $86 $142 $231 reversed $34 $-1 #
coedge $-1 $239 $240 $86 $149 forward $140 $-1 #
edge $-1 $241 24.329755659909999 $155 39.507094498445888 $148 $242 forward 7 unknown #
coedge $-1 $243 $244 $87 $151 forward $226 $-1 #
edge $-1 $156 -39.507094498445888 $245 -24.329755659909999 $150 $246 forward 7 unknown #
coedge $-1 $247 $88 $244 $248 reversed $154 $-1 #
coedge $-1 $88 $247 $239 $249 reversed $154 $-1 #
loop $-1 $-1 $247 $225 #
vertex $-1 $249 $250 #
vertex $-1 $89 $251 #
straight-curve $-1 -71.425519577623831 -27.023110417912491 0 0 0 1 I I #
face $-1 $-1 $170 $20 $-1 $252 forward single #
loop $-1 $-1 $253 $90 #
plane-surface $-1 71.425519577623831 0 0 -1 0 0 0 0 1 forward_v I I I I #
coedge $-1 $254 $255 $256 $257 reversed $91 $-1 #
coedge $-1 $258 $93 $95 $168 forward $57 $-1 #
coedge $-1 $93 $258 $254 $259 forward $57 $-1 #
coedge $-1 $256 $96 $93 $165 forward $170 $-1 #
edge $-1 $172 6.651773203528041 $260 26.130483512794363 $164 $261 forward 7 unknown #
coedge $-1 $262 $263 $94 $167 forward $159 $-1 #
edge $-1 $264 -97.745595584710969 $171 -85.359140007536723 $166 $265 forward 7 unknown #
edge $-1 $172 122.73210055300683 $264 142.85103915524769 $95 $266 forward 7 unknown #
coedge $-1 $96 $256 $262 $267 forward $170 $-1 #
loop $-1 $-1 $256 $158 #
vertex $-1 $167 $268 #
vertex $-1 $97 $269 #
straight-curve $-1 23.40262402105747 -23.042901561689245 17.411301185327829 -1 0 0 I I #
coedge $-1 $174 $174 $-1 $270 reversed $100 $-1 #
edge $-1 $271 0 $271 6.2831853071796004 $101 $272 forward 7 unknown #
vertex $-1 $104 $273 #
ellipse-curve $-1 63.498549653443717 -32.782256716322408 11.218073396740692 0.61566148304635926 0 0.78801074757464917 1.5760214951492983 0 -1.2313229660927185 1 I I #
face $-1 $-1 $190 $22 $-1 $274 forward single #
loop $-1 $-1 $275 $105 #
plane-surface $-1 71.425519577623831 0 0 -1 0 0 0 0 1 forward_v I I I I #
coedge $-1 $276 $277 $278 $279 reversed $106 $-1 #
coedge $-1 $280 $108 $110 $188 forward $66 $-1 #
coedge $-1 $108 $280 $276 $281 forward $66 $-1 #
coedge $-1 $278 $111 $108 $185 forward $190 $-1 #
edge $-1 $192 -17.319491751918882 $282 2.1592185573474438 $184 $283 forward 7 unknown #
coedge $-1 $284 $285 $109 $187 forward $179 $-1 #
edge $-1 $286 -97.745595584710969 $191 -85.359140007536723 $186 $287 forward 7 unknown #
edge $-1 $192 122.73210055300683 $286 142.85103915524769 $110 $288 forward 7 unknown #
coedge $-1 $111 $278 $284 $289 forward $190 $-1 #
loop $-1 $-1 $278 $178 #
vertex $-1 $187 $290 #
vertex $-1 $112 $291 #
straight-curve $-1 23.40262402105747 24.899628349204601 17.411301185327829 -1 0 0 I I #
coedge $-1 $194 $194 $-1 $292 reversed $115 $-1 #
edge $-1 $293 0 $293 6.2831853071796004 $116 $294 forward 7 unknown #
vertex $-1 $119 $295 #
ellipse-curve $-1 63.498549653443717 15.160273194571438 11.218073396740692 0.61566148304635926 0 0.78801074757464917 1.5760214951492983 0 -1.2313229660927185 1 I I #
face $-1 $-1 $135 $18 $-1 $296 reversed single #
loop $-1 $-1 $214 $120 #
plane-surface $-1 0 47.942529910893846 0 0 -1 0 0 0 -1 forward_v I I I I #
coedge $-1 $297 $212 $215 $298 forward $121 $-1 #
coedge $-1 $218 $123 $124 $206 reversed $75 $-1 #
coedge $-1 $212 $297 $123 $204 reversed $121 $-1 #
edge $-1 $219 -17.411301185327822 $299 17.411301185327822 $203 $300 forward 7 unknown #
coedge $-1 $125 $124 $297 $301 forward $49 $-1 #
edge $-1 $210 -71.425519577623831 $299 71.425519577623831 $202 $302 forward 7 unknown #
coedge $-1 $215 $214 $125 $208 reversed $199 $-1 #
edge $-1 $303 -71.425519577623831 $209 71.425519577623831 $207 $304 forward 7 unknown #
vertex $-1 $127 $305 #
vertex $-1 $221 $306 #
straight-curve $-1 71.425519577623831 0 -17.411301185327822 0 -1 0 I I #
coedge $-1 $201 $203 $128 $213 reversed $121 $-1 #
edge $-1 $216 -47.942529910893846 $219 47.942529910893846 $212 $307 forward 7 unknown #
coedge $-1 $207 $129 $134 $222 forward $199 $-1 #
coedge $-1 $129 $207 $201 $298 reversed $199 $-1 #
vertex $-1 $130 $308 #
straight-curve $-1 0 47.942529910893846 17.411301185327822 -1 0 0 I I #
coedge $-1 $131 $202 $133 $221 reversed $75 $-1 #
vertex $-1 $213 $309 #
straight-curve $-1 0 -47.942529910893846 17.411301185327822 1 0 0 I I #
edge $-1 $136 -17.411301185327822 $210 17.411301185327822 $133 $310 forward 7 unknown #
edge $-1 $137 -17.411301185327822 $209 17.411301185327822 $134 $311 forward 7 unknown #
point $-1 71.425519577623831 -47.942529910893846 17.411301185327822 #
point $-1 71.425519577623831 47.942529910893846 17.411301185327822 #
face $-1 $-1 $154 $19 $-1 $312 reversed single #
loop $-1 $-1 $234 $139 #
plane-surface $-1 0 0 17.411301185327822 0 0 1 1 0 0 forward_v I I I I #
coedge $-1 $240 $239 $143 $233 forward $140 $-1 #
coedge $-1 $145 $142 $240 $313 reversed $83 $-1 #
coedge $-1 $142 $145 $243 $314 reversed $83 $-1 #
edge $-1 $245 -17.411301185327822 $241 17.411301185327822 $142 $315 forward 7 unknown #
coedge $-1 $144 $143 $247 $316 reversed $53 $-1 #
edge $-1 $317 -39.507094498445888 $237 -24.329755659909999 $228 $318 forward 7 unknown #
coedge $-1 $244 $243 $144 $235 forward $226 $-1 #
edge $-1 $236 24.329755659909999 $319 39.507094498445888 $234 $320 forward 7 unknown #
vertex $-1 $235 $321 #
vertex $-1 $233 $322 #
straight-curve $-1 -56.248180739087942 -22.886631179431618 0 0 0 -1 I I #
coedge $-1 $228 $148 $153 $249 forward $140 $-1 #
coedge $-1 $148 $228 $229 $313 forward $140 $-1 #
vertex $-1 $149 $323 #
straight-curve $-1 -31.918425079177943 -27.023110417912491 -17.411301185327822 -1 0 0 I I #
coedge $-1 $234 $150 $230 $314 forward $226 $-1 #
coedge $-1 $150 $234 $152 $248 forward $226 $-1 #
vertex $-1 $151 $324 #
straight-curve $-1 -31.918425079177943 -27.023110417912491 17.411301185327822 1 0 0 I I #
coedge $-1 $153 $152 $232 $316 forward $154 $-1 #
edge $-1 $319 22.886631179431618 $156 27.023110417912491 $152 $325 forward 7 unknown #
edge $-1 $155 -27.023110417912491 $317 -22.886631179431618 $153 $326 forward 7 unknown #
point $-1 -71.425519577623831 -27.023110417912491 -17.411301185327822 #
point $-1 -71.425519577623831 -27.023110417912491 17.411301185327822 #
plane-surface $-1 0 0 17.411301185327822 0 0 1 1 0 0 forward_v I I I I #
coedge $-1 $263 $262 $255 $327 forward $159 $-1 #
coedge $-1 $255 $161 $163 $259 reversed $91 $-1 #
coedge $-1 $161 $254 $253 $327 reversed $91 $-1 #
coedge $-1 $169 $164 $161 $257 forward $170 $-1 #
edge $-1 $260 32.168955708206092 $328 48.022895556566361 $256 $329 forward 7 unknown #
coedge $-1 $163 $162 $263 $330 reversed $57 $-1 #
edge $-1 $331 -142.85103915524769 $260 -122.73210055300683 $254 $332 forward 7 unknown #
vertex $-1 $165 $333 #
straight-curve $-1 55.571579729263576 -16.391128358161204 17.411301185327822 0 -1 0 I I #
coedge $-1 $253 $166 $169 $267 reversed $159 $-1 #
coedge $-1 $166 $253 $258 $330 forward $159 $-1 #
vertex $-1 $167 $334 #
straight-curve $-1 71.425519577623831 -23.042901561689245 102.77044119286455 0 0 1 I I #
straight-curve $-1 -41.142634578918376 -23.042901561689245 92.972728229186913 0.78801074757464917 0 -0.61566148304635926 I I #
edge $-1 $328 -42.521611870955567 $171 -23.042901561689245 $262 $335 forward 7 unknown #
point $-1 71.425519577623831 -23.042901561689245 17.411301185327822 #
point $-1 55.571579729263561 -23.042901561689245 17.411301185327829 #
edge $-1 $336 1 $336 0 $174 $-1 forward 7 unknown #
vertex $-1 $175 $337 #
ellipse-curve $-1 60.232144850389538 -32.782256716322408 7.0372659861489071 0.61566148304635926 0 0.78801074757464917 1.5760214951492983 0 -1.2313229660927185 1 I I #
point $-1 65.074571148593051 -32.782256716322408 9.9867504306480157 #
plane-surface $-1 0 0 17.411301185327822 0 0 1 1 0 0 forward_v I I I I #
coedge $-1 $285 $284 $277 $338 forward $179 $-1 #
coedge $-1 $277 $181 $183 $281 reversed $106 $-1 #
coedge $-1 $181 $276 $275 $338 reversed $106 $-1 #
coedge $-1 $189 $184 $181 $279 forward $190 $-1 #
edge $-1 $282 32.168955708206092 $339 48.022895556566361 $278 $340 forward 7 unknown #
coedge $-1 $183 $182 $285 $341 reversed $66 $-1 #
edge $-1 $342 -142.85103915524769 $282 -122.73210055300683 $276 $343 forward 7 unknown #
vertex $-1 $185 $344 #
straight-curve $-1 55.571579729263576 7.5801365972857191 17.411301185327822 0 -1 0 I I #
coedge $-1 $275 $186 $189 $289 reversed $179 $-1 #
coedge $-1 $186 $275 $280 $341 forward $179 $-1 #
vertex $-1 $187 $345 #
straight-curve $-1 71.425519577623831 24.899628349204601 102.77044119286455 0 0 1 I I #
straight-curve $-1 -41.142634578918376 24.899628349204601 92.972728229186913 0.78801074757464917 0 -0.61566148304635926 I I #
edge $-1 $339 5.4209180399382753 $191 24.899628349204601 $284 $346 forward 7 unknown #
point $-1 71.425519577623831 24.899628349204601 17.411301185327822 #
point $-1 55.571579729263561 24.899628349204601 17.411301185327829 #
edge $-1 $347 1 $347 0 $194 $-1 forward 7 unknown #
vertex $-1 $195 $348 #
ellipse-curve $-1 60.232144850389538 15.160273194571438 7.0372659861489071 0.61566148304635926 0 0.78801074757464917 1.5760214951492983 0 -1.2313229660927185 1 I I #
point $-1 65.074571148593051 15.160273194571438 9.9867504306480157 #
plane-surface $-1 71.425519577623831 0 0 -1 0 0 0 0 1 forward_v I I I I #
coedge $-1 $203 $201 $205 $301 reversed $121 $-1 #
edge $-1 $216 -17.411301185327822 $303 17.411301185327822 $215 $349 forward 7 unknown #
vertex $-1 $301 $350 #
straight-curve $-1 -71.425519577623831 -47.942529910893846 0 0 0 -1 I I #
edge $-1 $299 -47.942529910893846 $303 47.942529910893846 $297 $351 forward 7 unknown #
straight-curve $-1 0 -47.942529910893846 -17.411301185327822 -1 0 0 I I #
vertex $-1 $208 $352 #
straight-curve $-1 0 47.942529910893846 -17.411301185327822 1 0 0 I I #
point $-1 71.425519577623831 47.942529910893846 -17.411301185327822 #
point $-1 71.425519577623831 -47.942529910893846 -17.411301185327822 #
straight-curve $-1 -71.425519577623831 0 17.411301185327822 0 -1 0 I I #
point $-1 -71.425519577623831 47.942529910893846 17.411301185327822 #
point $-1 -71.425519577623831 -47.942529910893846 17.411301185327822 #
straight-curve $-1 71.425519577623831 -47.942529910893846 0 0 0 -1 I I #
straight-curve $-1 71.425519577623831 47.942529910893846 0 0 0 -1 I I #
plane-surface $-1 -71.425519577623831 0 0 1 0 0 0 0 -1 forward_v I I I I #
edge $-1 $237 10.40919578009559 $241 14.545675018576464 $240 $353 forward 7 unknown #
edge $-1 $245 -14.545675018576464 $236 -10.40919578009559 $243 $354 forward 7 unknown #
straight-curve $-1 -56.248180739087942 -27.023110417912491 0 0 0 -1 I I #
edge $-1 $319 -17.411301185327822 $317 17.411301185327822 $247 $355 forward 7 unknown #
vertex $-1 $316 $356 #
straight-curve $-1 -31.918425079177943 -22.886631179431618 -17.411301185327822 1 0 0 I I #
vertex $-1 $248 $357 #
straight-curve $-1 -31.918425079177943 -22.886631179431618 17.411301185327822 -1 0 0 I I #
point $-1 -56.248180739087942 -22.886631179431618 17.411301185327822 #
point $-1 -56.248180739087942 -22.886631179431618 -17.411301185327822 #
point $-1 -56.248180739087942 -27.023110417912491 -17.411301185327822 #
point $-1 -56.248180739087942 -27.023110417912491 17.411301185327822 #
straight-curve $-1 -71.425519577623831 0 17.411301185327822 0 -1 0 I I #
straight-curve $-1 -71.425519577623831 0 -17.411301185327822 0 1 0 I I #
edge $-1 $328 85.359140007536723 $331 97.745595584710969 $253 $358 forward 7 unknown #
vertex $-1 $267 $359 #
straight-curve $-1 23.40262402105747 -42.521611870955567 17.411301185327829 1 0 0 I I #
edge $-1 $331 -26.130483512794363 $264 -6.651773203528041 $263 $360 forward 7 unknown #
vertex $-1 $330 $361 #
straight-curve $-1 -41.142634578918376 -42.521611870955567 92.972728229186913 -0.78801074757464917 0 0.61566148304635926 I I #
point $-1 55.571579729263561 -42.521611870955567 17.411301185327829 #
point $-1 71.425519577623831 -23.042901561689245 5.0248456081535835 #
straight-curve $-1 71.425519577623831 0 17.411301185327822 0 1 0 I I #
vertex $-1 $270 $362 #
point $-1 61.808166345538837 -32.782256716322408 5.8059430200561888 #
edge $-1 $339 85.359140007536723 $342 97.745595584710969 $275 $363 forward 7 unknown #
vertex $-1 $289 $364 #
straight-curve $-1 23.40262402105747 5.4209180399382753 17.411301185327829 1 0 0 I I #
edge $-1 $342 -2.1592185573474438 $286 17.319491751918882 $285 $365 forward 7 unknown #
vertex $-1 $341 $366 #
straight-curve $-1 -41.142634578918376 5.4209180399382753 92.972728229186913 -0.78801074757464917 0 0.61566148304635926 I I #
point $-1 55.571579729263561 5.4209180399382753 17.411301185327829 #
point $-1 71.425519577623831 24.899628349204601 5.0248456081535835 #
straight-curve $-1 71.425519577623831 0 17.411301185327822 0 1 0 I I #
vertex $-1 $292 $367 #
point $-1 61.808166345538837 15.160273194571438 5.8059430200561888 #
straight-curve $-1 -71.425519577623831 47.942529910893846 0 0 0 -1 I I #
point $-1 -71.425519577623831 -47.942529910893846 -17.411301185327822 #
straight-curve $-1 -71.425519577623831 0 -17.411301185327822 0 1 0 I I #
point $-1 -71.425519577623831 47.942529910893846 -17.411301185327822 #
straight-curve $-1 -56.248180739087942 -12.477435399336027 -17.411301185327822 0 -1 0 I I #
straight-curve $-1 -56.248180739087942 -12.477435399336027 17.411301185327822 0 1 0 I I #
straight-curve $-1 -71.425519577623831 -22.886631179431618 0 0 0 -1 I I #
point $-1 -71.425519577623831 -22.886631179431618 -17.411301185327822 #
point $-1 -71.425519577623831 -22.886631179431618 17.411301185327822 #
straight-curve $-1 71.425519577623831 -42.521611870955567 102.77044119286455 0 0 -1 I I #
point $-1 71.425519577623831 -42.521611870955567 17.411301185327822 #
straight-curve $-1 71.425519577623845 -16.391128358161204 5.0248456081535977 0 1 0 I I #
point $-1 71.425519577623831 -42.521611870955567 5.0248456081535835 #
point $-1 59.000821884296819 -32.782256716322408 5.461244490999607 #
straight-curve $-1 71.425519577623831 5.4209180399382753 102.77044119286455 0 0 -1 I I #
point $-1 71.425519577623831 5.4209180399382753 17.411301185327822 #
straight-curve $-1 71.425519577623845 7.5801365972857191 5.0248456081535977 0 1 0 I I #
point $-1 71.425519577623831 5.4209180399382753 5.0248456081535835 #
point $-1 59.000821884296819 15.160273194571438 5.461244490999607 #
End-of-ACIS-data 