500 0 8 0           
7 Unknown 11 ACIS 5.0 NT 24 Thu Mar 25 19:28:55 1999 
-1 9.9999999999999995e-007 1e-010 
body $-1 $8 $-1 $9 #
body $-1 $10 $-1 $11 #
body $-1 $12 $-1 $13 #
body $-1 $14 $-1 $15 #
body $-1 $16 $-1 $17 #
body $-1 $18 $-1 $19 #
body $-1 $20 $-1 $21 #
body $-1 $22 $-1 $23 #
lump $-1 $-1 $24 $0 #
transform $-1 1 0 0 0 1 0 0 0 1 51.476180303353985 35.164733418081468 15.108805075222076 1 rotate no_reflect no_shear #
lump $-1 $-1 $25 $1 #
transform $-1 1 0 0 0 1 0 0 0 1 51.476180303353985 35.164733418081468 15.108805075222076 1 rotate no_reflect no_shear #
lump $-1 $-1 $26 $2 #
transform $-1 1 0 0 0 1 0 0 0 1 51.476180303353985 35.164733418081468 15.108805075222076 1 rotate no_reflect no_shear #
lump $-1 $-1 $27 $3 #
transform $-1 1 0 0 0 1 0 0 0 1 51.476180303353985 35.164733418081468 15.108805075222076 1 rotate no_reflect no_shear #
lump $-1 $-1 $28 $4 #
transform $-1 1 0 0 0 1 0 0 0 1 51.476180303353985 35.164733418081468 15.108805075222076 1 rotate no_reflect no_shear #
lump $-1 $-1 $29 $5 #
transform $-1 1 0 0 0 1 0 0 0 1 51.476180303353985 35.164733418081468 15.108805075222076 1 rotate no_reflect no_shear #
lump $-1 $-1 $30 $6 #
transform $-1 1 0 0 0 1 0 0 0 1 51.476180303353985 35.164733418081468 15.108805075222076 1 rotate no_reflect no_shear #
lump $-1 $-1 $31 $7 #
transform $-1 1 0 0 0 1 0 0 0 1 51.476180303353985 35.164733418081468 15.108805075222076 1 rotate no_reflect no_shear #
shell $-1 $-1 $-1 $32 $-1 $8 #
shell $-1 $-1 $-1 $33 $-1 $10 #
shell $-1 $-1 $-1 $34 $-1 $12 #
shell $-1 $-1 $-1 $35 $-1 $14 #
shell $-1 $-1 $-1 $36 $-1 $16 #
shell $-1 $-1 $-1 $37 $-1 $18 #
shell $-1 $-1 $-1 $38 $-1 $20 #
shell $-1 $-1 $-1 $39 $-1 $22 #
face $-1 $40 $41 $24 $-1 $42 forward single #
face $-1 $43 $44 $25 $-1 $45 reversed single #
face $-1 $46 $47 $26 $-1 $48 reversed single #
face $-1 $49 $50 $27 $-1 $51 forward single #
face $-1 $52 $53 $28 $-1 $54 forward single #
face $-1 $55 $56 $29 $-1 $57 reversed single #
face $-1 $58 $59 $30 $-1 $60 forward single #
face $-1 $61 $62 $31 $-1 $63 forward single #
face $-1 $64 $65 $24 $-1 $66 reversed single #
loop $-1 $-1 $67 $32 #
plane-surface $-1 0 0 15.108805075222076 0 0 1 1 0 0 forward_v I I I I #
face $-1 $68 $69 $25 $-1 $70 reversed single #
loop $-1 $-1 $71 $33 #
plane-surface $-1 -37.792128068106948 -29.199206150359466 0 1 0 0 0 0 -1 forward_v I I I I #
face $-1 $72 $73 $26 $-1 $74 reversed single #
loop $-1 $-1 $75 $34 #
plane-surface $-1 -38.427298313806887 83.203676899577417 120.20655251522317 1 0 0 0 -0.83867057594974714 -0.54463902268945019 forward_v I I I I #
face $-1 $76 $77 $27 $-1 $78 forward single #
loop $-1 $79 $80 $35 #
cone-surface $-1 -31.32603660381675 30.302964479978854 9.0725093926512255 0 -0.83867057594974714 -0.54463902268945019 1.5 0 0 1 I I 0 1 1.5 forward I I I I #
face $-1 $81 $82 $28 $-1 $83 forward single #
loop $-1 $84 $85 $36 #
cone-surface $-1 -20.67414403883155 30.302964479978854 9.0725093926512255 0 -0.83867057594974714 -0.54463902268945019 1.5 0 0 1 I I 0 1 1.5 forward I I I I #
face $-1 $86 $87 $29 $-1 $88 reversed single #
loop $-1 $-1 $89 $37 #
plane-surface $-1 13.572882328841418 83.203676899577417 120.20655251522317 1 0 0 0 -0.83867057594974714 -0.54463902268945019 forward_v I I I I #
face $-1 $90 $91 $30 $-1 $92 forward single #
loop $-1 $93 $94 $38 #
cone-surface $-1 20.674144038831543 30.302964479978854 9.0725093926512255 0 -0.83867057594974714 -0.54463902268945019 1.5 0 0 1 I I 0 1 1.5 forward I I I I #
face $-1 $95 $96 $31 $-1 $97 forward single #
loop $-1 $98 $99 $39 #
cone-surface $-1 31.326036603816746 30.302964479978854 9.0725093926512255 0 -0.83867057594974714 -0.54463902268945019 1.5 0 0 1 I I 0 1 1.5 forward I I I I #
face $-1 $100 $101 $24 $-1 $102 reversed single #
loop $-1 $-1 $103 $40 #
plane-surface $-1 0 0 -15.108805075222076 0 0 1 1 0 0 forward_v I I I I #
coedge $-1 $104 $105 $106 $107 forward $41 $-1 #
face $-1 $108 $109 $25 $-1 $110 reversed single #
loop $-1 $-1 $111 $43 #
plane-surface $-1 -35.594672324615452 -23.233678882637463 0 0 -1 0 0 0 -1 forward_v I I I I #
coedge $-1 $112 $113 $114 $115 forward $44 $-1 #
face $-1 $116 $117 $26 $-1 $118 reversed single #
loop $-1 $-1 $119 $46 #
plane-surface $-1 -26.000090321324151 -3.1394386658364084 64.134679450813877 0 0.83867057594974714 0.54463902268945019 1 0 0 forward_v I I I I #
coedge $-1 $120 $121 $122 $123 reversed $47 $-1 #
face $-1 $-1 $124 $27 $-1 $125 forward single #
loop $-1 $126 $127 $49 #
cone-surface $-1 -31.32603660381675 28.045391622731394 7.6064244841290964 0 -0.83867057594974714 -0.54463902268945019 0.75 0 0 1 I I -0.70710678118654757 0.70710678118654757 0.75 forward I I I I #
loop $-1 $-1 $128 $35 #
coedge $-1 $80 $80 $129 $130 reversed $50 $-1 #
face $-1 $-1 $131 $28 $-1 $132 forward single #
loop $-1 $133 $134 $52 #
cone-surface $-1 -20.67414403883155 28.045391622731394 7.6064244841290964 0 -0.83867057594974714 -0.54463902268945019 0.75 0 0 1 I I -0.70710678118654757 0.70710678118654757 0.75 forward I I I I #
loop $-1 $-1 $135 $36 #
coedge $-1 $85 $85 $136 $137 reversed $53 $-1 #
face $-1 $138 $139 $29 $-1 $140 reversed single #
loop $-1 $-1 $141 $55 #
plane-surface $-1 26.000090321324151 -3.1394386658364084 64.134679450813877 0 0.83867057594974714 0.54463902268945019 1 0 0 forward_v I I I I #
coedge $-1 $142 $143 $144 $145 reversed $56 $-1 #
face $-1 $-1 $146 $30 $-1 $147 forward single #
loop $-1 $148 $149 $58 #
cone-surface $-1 20.674144038831543 28.045391622731394 7.6064244841290964 0 -0.83867057594974714 -0.54463902268945019 0.75 0 0 1 I I -0.70710678118654757 0.70710678118654757 0.75 forward I I I I #
loop $-1 $-1 $150 $38 #
coedge $-1 $94 $94 $151 $152 reversed $59 $-1 #
face $-1 $-1 $153 $31 $-1 $154 forward single #
loop $-1 $155 $156 $61 #
cone-surface $-1 31.326036603816746 28.045391622731394 7.6064244841290964 0 -0.83867057594974714 -0.54463902268945019 0.75 0 0 1 I I -0.70710678118654757 0.70710678118654757 0.75 forward I I I I #
loop $-1 $-1 $157 $39 #
coedge $-1 $99 $99 $158 $159 reversed $62 $-1 #
face $-1 $160 $161 $24 $-1 $162 reversed single #
loop $-1 $-1 $163 $64 #
plane-surface $-1 0 -35.164733418081468 0 0 1 0 0 0 1 forward_v I I I I #
coedge $-1 $164 $165 $166 $167 forward $65 $-1 #
coedge $-1 $168 $67 $169 $170 forward $41 $-1 #
coedge $-1 $67 $168 $171 $172 forward $41 $-1 #
coedge $-1 $173 $174 $67 $107 reversed $175 $-1 #
edge $-1 $176 -35.164733418081468 $177 35.164733418081468 $106 $178 forward 7 unknown #
face $-1 $179 $180 $25 $-1 $181 forward single #
loop $-1 $-1 $182 $68 #
plane-surface $-1 -33.397216581123956 -29.199206150359466 0 -1 0 0 0 0 1 forward_v I I I I #
coedge $-1 $183 $184 $185 $186 forward $69 $-1 #
coedge $-1 $187 $71 $188 $189 reversed $44 $-1 #
coedge $-1 $71 $187 $190 $191 reversed $44 $-1 #
coedge $-1 $184 $183 $71 $115 reversed $69 $-1 #
edge $-1 $192 -15.108805075222076 $193 15.108805075222076 $114 $194 forward 7 unknown #
face $-1 $195 $196 $26 $-1 $197 reversed single #
loop $-1 $-1 $198 $72 #
plane-surface $-1 -13.572882328841418 83.203676899577417 120.20655251522317 -1 0 0 0 0.83867057594974714 0.54463902268945019 forward_v I I I I #
coedge $-1 $199 $200 $201 $202 reversed $73 $-1 #
coedge $-1 $121 $75 $203 $204 reversed $47 $-1 #
coedge $-1 $75 $120 $199 $205 reversed $47 $-1 #
coedge $-1 $201 $206 $75 $123 forward $207 $-1 #
edge $-1 $208 6.4371050317072402 $209 12.903503057342171 $122 $210 forward 7 unknown #
loop $-1 $-1 $129 $76 #
plane-surface $-1 -26.000090321324151 -3.1394386658364084 64.134679450813877 0 0.83867057594974714 0.54463902268945019 1 0 0 forward_v I I I I #
loop $-1 $-1 $211 $49 #
coedge $-1 $127 $127 $128 $212 reversed $77 $-1 #
coedge $-1 $128 $128 $127 $212 forward $79 $-1 #
coedge $-1 $129 $129 $80 $130 forward $124 $-1 #
edge $-1 $213 -1.2899643372782307e-015 $213 6.2831853071795996 $129 $214 forward 7 unknown #
loop $-1 $-1 $136 $81 #
plane-surface $-1 -26.000090321324151 -3.1394386658364084 64.134679450813877 0 0.83867057594974714 0.54463902268945019 1 0 0 forward_v I I I I #
loop $-1 $-1 $215 $52 #
coedge $-1 $134 $134 $135 $216 reversed $82 $-1 #
coedge $-1 $135 $135 $134 $216 forward $84 $-1 #
coedge $-1 $136 $136 $85 $137 forward $131 $-1 #
edge $-1 $217 -1.2899643372782307e-015 $217 6.2831853071795996 $136 $218 forward 7 unknown #
face $-1 $219 $220 $29 $-1 $221 forward single #
loop $-1 $-1 $222 $86 #
plane-surface $-1 38.427298313806887 83.203676899577417 120.20655251522317 -1 0 0 0 0.83867057594974714 0.54463902268945019 forward_v I I I I #
coedge $-1 $223 $224 $225 $226 reversed $87 $-1 #
coedge $-1 $143 $89 $227 $228 reversed $56 $-1 #
coedge $-1 $89 $142 $223 $229 reversed $56 $-1 #
coedge $-1 $225 $230 $89 $145 forward $220 $-1 #
edge $-1 $231 6.4371050317072402 $232 12.903503057342171 $144 $233 forward 7 unknown #
loop $-1 $-1 $151 $90 #
plane-surface $-1 26.000090321324151 -3.1394386658364084 64.134679450813877 0 0.83867057594974714 0.54463902268945019 1 0 0 forward_v I I I I #
loop $-1 $-1 $234 $58 #
coedge $-1 $149 $149 $150 $235 reversed $91 $-1 #
coedge $-1 $150 $150 $149 $235 forward $93 $-1 #
coedge $-1 $151 $151 $94 $152 forward $146 $-1 #
edge $-1 $236 -1.2899643372782307e-015 $236 6.2831853071795996 $151 $237 forward 7 unknown #
loop $-1 $-1 $158 $95 #
plane-surface $-1 26.000090321324151 -3.1394386658364084 64.134679450813877 0 0.83867057594974714 0.54463902268945019 1 0 0 forward_v I I I I #
loop $-1 $-1 $238 $61 #
coedge $-1 $156 $156 $157 $239 reversed $96 $-1 #
coedge $-1 $157 $157 $156 $239 forward $98 $-1 #
coedge $-1 $158 $158 $99 $159 forward $153 $-1 #
edge $-1 $240 -1.2899643372782307e-015 $240 6.2831853071795996 $158 $241 forward 7 unknown #
face $-1 $242 $243 $24 $-1 $244 reversed single #
loop $-1 $-1 $245 $100 #
plane-surface $-1 -51.476180303353985 0 0 1 0 0 0 0 -1 forward_v I I I I #
coedge $-1 $246 $171 $247 $248 forward $101 $-1 #
coedge $-1 $249 $103 $246 $250 forward $65 $-1 #
coedge $-1 $103 $249 $251 $252 forward $65 $-1 #
coedge $-1 $174 $173 $103 $167 reversed $175 $-1 #
edge $-1 $253 -35.164733418081468 $254 35.164733418081468 $166 $255 forward 7 unknown #
coedge $-1 $105 $104 $256 $257 forward $41 $-1 #
coedge $-1 $258 $259 $104 $170 reversed $243 $-1 #
edge $-1 $177 -51.476180303353985 $260 51.476180303353985 $169 $261 forward 7 unknown #
coedge $-1 $163 $262 $105 $172 reversed $101 $-1 #
edge $-1 $263 -51.476180303353985 $176 51.476180303353985 $171 $264 forward 7 unknown #
coedge $-1 $166 $106 $262 $265 forward $175 $-1 #
coedge $-1 $106 $166 $258 $266 reversed $175 $-1 #
loop $-1 $-1 $173 $242 #
vertex $-1 $107 $267 #
vertex $-1 $107 $268 #
straight-curve $-1 51.476180303353985 0 15.108805075222076 0 1 0 I I #
face $-1 $269 $270 $25 $-1 $271 reversed single #
loop $-1 $-1 $272 $108 #
plane-surface $-1 0 0 15.108805075222076 0 0 1 1 0 0 forward_v I I I I #
coedge $-1 $273 $274 $275 $276 reversed $109 $-1 #
coedge $-1 $114 $111 $277 $278 reversed $69 $-1 #
coedge $-1 $111 $114 $279 $280 reversed $69 $-1 #
coedge $-1 $274 $273 $111 $186 reversed $109 $-1 #
edge $-1 $281 -15.108805075222076 $282 15.108805075222076 $185 $283 forward 7 unknown #
coedge $-1 $113 $112 $284 $285 reversed $44 $-1 #
coedge $-1 $277 $286 $112 $189 forward $270 $-1 #
edge $-1 $287 -20.565130342901735 $193 -8.6340758074577302 $188 $288 forward 7 unknown #
coedge $-1 $289 $279 $113 $191 forward $180 $-1 #
edge $-1 $192 8.6340758074577302 $290 20.565130342901735 $190 $291 forward 7 unknown #
vertex $-1 $191 $292 #
vertex $-1 $189 $293 #
straight-curve $-1 -37.792128068106948 -23.233678882637463 0 0 0 -1 I I #
face $-1 $-1 $207 $26 $-1 $294 forward single #
loop $-1 $-1 $295 $116 #
plane-surface $-1 0 35.164733418081468 0 0 -1 0 0 0 -1 forward_v I I I I #
coedge $-1 $296 $297 $298 $299 reversed $117 $-1 #
coedge $-1 $300 $119 $121 $205 forward $73 $-1 #
coedge $-1 $119 $300 $296 $301 forward $73 $-1 #
coedge $-1 $298 $122 $119 $202 forward $207 $-1 #
edge $-1 $209 -25.427253153144811 $302 -0.57283716817934227 $201 $303 forward 7 unknown #
coedge $-1 $304 $305 $120 $204 forward $196 $-1 #
edge $-1 $306 -54.951851264521117 $208 -44.994471182389503 $203 $307 forward 7 unknown #
edge $-1 $209 58.45665244672827 $306 70.329466836162936 $121 $308 forward 7 unknown #
coedge $-1 $122 $298 $304 $309 forward $207 $-1 #
loop $-1 $-1 $298 $195 #
vertex $-1 $204 $310 #
vertex $-1 $123 $311 #
straight-curve $-1 -38.427298313806887 41.601838449788708 15.108805075222079 0 -1 0 I I #
coedge $-1 $211 $211 $-1 $312 reversed $126 $-1 #
edge $-1 $313 0 $313 6.2831853071796004 $127 $314 forward 7 unknown #
vertex $-1 $130 $315 #
ellipse-curve $-1 -31.32603660381675 31.931534405264006 10.130115034156267 0 0.83867057594974714 0.54463902268945019 1.5 0 0 1 I I #
coedge $-1 $215 $215 $-1 $316 reversed $133 $-1 #
edge $-1 $317 0 $317 6.2831853071796004 $134 $318 forward 7 unknown #
vertex $-1 $137 $319 #
ellipse-curve $-1 -20.67414403883155 31.931534405264006 10.130115034156267 0 0.83867057594974714 0.54463902268945019 1.5 0 0 1 I I #
face $-1 $-1 $320 $29 $-1 $321 reversed single #
loop $-1 $-1 $144 $138 #
plane-surface $-1 0 0 15.108805075222076 0 0 1 1 0 0 forward_v I I I I #
coedge $-1 $322 $323 $324 $325 reversed $139 $-1 #
coedge $-1 $326 $141 $143 $229 forward $87 $-1 #
coedge $-1 $141 $326 $322 $327 forward $87 $-1 #
coedge $-1 $324 $144 $141 $226 forward $220 $-1 #
edge $-1 $232 0.57283716817934227 $328 25.427253153144811 $225 $329 forward 7 unknown #
coedge $-1 $330 $331 $142 $228 forward $320 $-1 #
edge $-1 $332 -54.951851264521117 $231 -44.994471182389503 $227 $333 forward 7 unknown #
edge $-1 $232 58.45665244672827 $332 70.329466836162936 $143 $334 forward 7 unknown #
coedge $-1 $144 $324 $330 $335 forward $220 $-1 #
vertex $-1 $228 $336 #
vertex $-1 $145 $337 #
straight-curve $-1 13.572882328841418 41.601838449788708 15.108805075222079 0 -1 0 I I #
coedge $-1 $234 $234 $-1 $338 reversed $148 $-1 #
edge $-1 $339 0 $339 6.2831853071796004 $149 $340 forward 7 unknown #
vertex $-1 $152 $341 #
ellipse-curve $-1 20.674144038831543 31.931534405264006 10.130115034156267 0 0.83867057594974714 0.54463902268945019 1.5 0 0 1 I I #
coedge $-1 $238 $238 $-1 $342 reversed $155 $-1 #
edge $-1 $343 0 $343 6.2831853071796004 $156 $344 forward 7 unknown #
vertex $-1 $159 $345 #
ellipse-curve $-1 31.326036603816746 31.931534405264006 10.130115034156267 0 0.83867057594974714 0.54463902268945019 1.5 0 0 1 I I #
face $-1 $-1 $175 $24 $-1 $346 reversed single #
loop $-1 $-1 $258 $160 #
plane-surface $-1 0 35.164733418081468 0 0 -1 0 0 0 -1 forward_v I I I I #
coedge $-1 $347 $256 $259 $348 forward $161 $-1 #
coedge $-1 $262 $163 $164 $250 reversed $101 $-1 #
coedge $-1 $256 $347 $163 $248 reversed $161 $-1 #
edge $-1 $263 -15.108805075222076 $349 15.108805075222076 $247 $350 forward 7 unknown #
coedge $-1 $165 $164 $347 $351 forward $65 $-1 #
edge $-1 $254 -51.476180303353985 $349 51.476180303353985 $246 $352 forward 7 unknown #
coedge $-1 $259 $258 $165 $252 reversed $243 $-1 #
edge $-1 $353 -51.476180303353985 $253 51.476180303353985 $251 $354 forward 7 unknown #
vertex $-1 $167 $355 #
vertex $-1 $265 $356 #
straight-curve $-1 51.476180303353985 0 -15.108805075222076 0 -1 0 I I #
coedge $-1 $245 $247 $168 $257 reversed $161 $-1 #
edge $-1 $260 -35.164733418081468 $263 35.164733418081468 $256 $357 forward 7 unknown #
coedge $-1 $251 $169 $174 $266 forward $243 $-1 #
coedge $-1 $169 $251 $245 $348 reversed $243 $-1 #
vertex $-1 $170 $358 #
straight-curve $-1 0 35.164733418081468 15.108805075222076 -1 0 0 I I #
coedge $-1 $171 $246 $173 $265 reversed $101 $-1 #
vertex $-1 $257 $359 #
straight-curve $-1 0 -35.164733418081468 15.108805075222076 1 0 0 I I #
edge $-1 $176 -15.108805075222076 $254 15.108805075222076 $173 $360 forward 7 unknown #
edge $-1 $177 -15.108805075222076 $253 15.108805075222076 $174 $361 forward 7 unknown #
point $-1 51.476180303353985 -35.164733418081468 15.108805075222076 #
point $-1 51.476180303353985 35.164733418081468 15.108805075222076 #
face $-1 $-1 $362 $25 $-1 $363 reversed single #
loop $-1 $-1 $364 $179 #
plane-surface $-1 0 0 -15.108805075222076 0 0 1 1 0 0 forward_v I I I I #
coedge $-1 $279 $289 $274 $365 forward $180 $-1 #
coedge $-1 $185 $182 $364 $366 reversed $109 $-1 #
coedge $-1 $182 $185 $272 $365 reversed $109 $-1 #
coedge $-1 $367 $368 $182 $276 forward $362 $-1 #
edge $-1 $369 -15.108805075222076 $370 15.108805075222076 $275 $371 forward 7 unknown #
coedge $-1 $364 $188 $183 $278 forward $270 $-1 #
edge $-1 $193 -19.994791905799222 $282 -15.59988041881623 $277 $372 forward 7 unknown #
coedge $-1 $190 $272 $184 $280 forward $180 $-1 #
edge $-1 $281 15.59988041881623 $192 19.994791905799222 $279 $373 forward 7 unknown #
vertex $-1 $280 $374 #
vertex $-1 $278 $375 #
straight-curve $-1 -33.397216581123956 -23.233678882637463 0 0 0 -1 I I #
coedge $-1 $368 $367 $187 $285 forward $362 $-1 #
edge $-1 $290 -15.108805075222076 $287 15.108805075222076 $284 $376 forward 7 unknown #
coedge $-1 $188 $364 $368 $377 forward $270 $-1 #
vertex $-1 $189 $378 #
straight-curve $-1 -37.792128068106948 -14.599603075179733 -15.108805075222076 0 1 0 I I #
coedge $-1 $272 $190 $367 $379 forward $180 $-1 #
vertex $-1 $379 $380 #
straight-curve $-1 -37.792128068106948 -14.599603075179733 15.108805075222076 0 -1 0 I I #
point $-1 -37.792128068106948 -23.233678882637463 15.108805075222076 #
point $-1 -37.792128068106948 -23.233678882637463 -15.108805075222076 #
plane-surface $-1 0 0 15.108805075222076 0 0 1 1 0 0 forward_v I I I I #
coedge $-1 $305 $304 $297 $381 forward $196 $-1 #
coedge $-1 $297 $198 $200 $301 reversed $117 $-1 #
coedge $-1 $198 $296 $295 $381 reversed $117 $-1 #
coedge $-1 $206 $201 $198 $299 forward $207 $-1 #
edge $-1 $302 -12.903503057342171 $382 -6.4371050317072402 $298 $383 forward 7 unknown #
coedge $-1 $200 $199 $305 $384 reversed $73 $-1 #
edge $-1 $385 -70.329466836162936 $302 -58.45665244672827 $296 $386 forward 7 unknown #
vertex $-1 $202 $387 #
straight-curve $-1 -13.000045160662076 28.698335392446538 15.108805075222076 1 0 0 I I #
coedge $-1 $295 $203 $206 $309 reversed $196 $-1 #
coedge $-1 $203 $295 $300 $384 forward $196 $-1 #
vertex $-1 $204 $388 #
straight-curve $-1 -38.427298313806887 35.164733418081468 60.103276257611583 0 0 1 I I #
straight-curve $-1 -38.427298313806887 -3.1394386658364084 64.134679450813877 0 0.54463902268945019 -0.83867057594974714 I I #
edge $-1 $382 13.572882328841418 $208 38.427298313806887 $304 $389 forward 7 unknown #
point $-1 -38.427298313806887 35.164733418081468 15.108805075222076 #
point $-1 -38.427298313806887 28.698335392446538 15.108805075222079 #
edge $-1 $390 1 $390 0 $211 $-1 forward 7 unknown #
vertex $-1 $212 $391 #
ellipse-curve $-1 -31.32603660381675 28.674394554693706 8.0149037511461838 0 0.83867057594974714 0.54463902268945019 1.5 0 0 1 I I #
point $-1 -29.82603660381675 31.931534405264003 10.130115034156267 #
edge $-1 $392 1 $392 0 $215 $-1 forward 7 unknown #
vertex $-1 $216 $393 #
ellipse-curve $-1 -20.67414403883155 28.674394554693706 8.0149037511461838 0 0.83867057594974714 0.54463902268945019 1.5 0 0 1 I I #
point $-1 -19.17414403883155 31.931534405264003 10.130115034156267 #
loop $-1 $-1 $227 $219 #
plane-surface $-1 0 35.164733418081468 0 0 -1 0 0 0 -1 forward_v I I I I #
coedge $-1 $323 $222 $224 $327 reversed $139 $-1 #
coedge $-1 $222 $322 $394 $395 reversed $139 $-1 #
coedge $-1 $230 $225 $222 $325 forward $220 $-1 #
edge $-1 $328 -12.903503057342171 $396 -6.4371050317072402 $324 $397 forward 7 unknown #
coedge $-1 $224 $223 $331 $398 reversed $87 $-1 #
edge $-1 $399 -70.329466836162936 $328 -58.45665244672827 $322 $400 forward 7 unknown #
vertex $-1 $226 $401 #
straight-curve $-1 13.000045160662076 28.698335392446538 15.108805075222076 1 0 0 I I #
coedge $-1 $394 $227 $230 $335 reversed $320 $-1 #
coedge $-1 $227 $394 $326 $398 forward $320 $-1 #
vertex $-1 $228 $402 #
straight-curve $-1 13.572882328841418 35.164733418081468 60.103276257611583 0 0 1 I I #
straight-curve $-1 13.572882328841418 -3.1394386658364084 64.134679450813877 0 0.54463902268945019 -0.83867057594974714 I I #
edge $-1 $396 -38.427298313806887 $231 -13.572882328841418 $330 $403 forward 7 unknown #
point $-1 13.572882328841418 35.164733418081468 15.108805075222076 #
point $-1 13.572882328841418 28.698335392446538 15.108805075222079 #
edge $-1 $404 1 $404 0 $234 $-1 forward 7 unknown #
vertex $-1 $235 $405 #
ellipse-curve $-1 20.674144038831543 28.674394554693706 8.0149037511461838 0 0.83867057594974714 0.54463902268945019 1.5 0 0 1 I I #
point $-1 22.174144038831543 31.931534405264003 10.130115034156267 #
edge $-1 $406 1 $406 0 $238 $-1 forward 7 unknown #
vertex $-1 $239 $407 #
ellipse-curve $-1 31.326036603816746 28.674394554693706 8.0149037511461838 0 0.83867057594974714 0.54463902268945019 1.5 0 0 1 I I #
point $-1 32.826036603816746 31.931534405264003 10.130115034156267 #
plane-surface $-1 51.476180303353985 0 0 -1 0 0 0 0 1 forward_v I I I I #
coedge $-1 $247 $245 $249 $351 reversed $161 $-1 #
edge $-1 $260 -15.108805075222076 $353 15.108805075222076 $259 $408 forward 7 unknown #
vertex $-1 $351 $409 #
straight-curve $-1 -51.476180303353985 -35.164733418081468 0 0 0 -1 I I #
edge $-1 $349 -35.164733418081468 $353 35.164733418081468 $347 $410 forward 7 unknown #
straight-curve $-1 0 -35.164733418081468 -15.108805075222076 -1 0 0 I I #
vertex $-1 $252 $411 #
straight-curve $-1 0 35.164733418081468 -15.108805075222076 1 0 0 I I #
point $-1 51.476180303353985 35.164733418081468 -15.108805075222076 #
point $-1 51.476180303353985 -35.164733418081468 -15.108805075222076 #
straight-curve $-1 -51.476180303353985 0 15.108805075222076 0 -1 0 I I #
point $-1 -51.476180303353985 35.164733418081468 15.108805075222076 #
point $-1 -51.476180303353985 -35.164733418081468 15.108805075222076 #
straight-curve $-1 51.476180303353985 -35.164733418081468 0 0 0 -1 I I #
straight-curve $-1 51.476180303353985 35.164733418081468 0 0 0 -1 I I #
loop $-1 $-1 $275 $269 #
plane-surface $-1 0 -35.164733418081468 0 0 1 0 0 0 1 forward_v I I I I #
coedge $-1 $286 $277 $273 $366 forward $270 $-1 #
edge $-1 $370 -20.565130342901735 $281 -8.6340758074577302 $272 $412 forward 7 unknown #
edge $-1 $282 8.6340758074577302 $369 20.565130342901735 $364 $413 forward 7 unknown #
coedge $-1 $284 $275 $289 $379 reversed $362 $-1 #
coedge $-1 $275 $284 $286 $377 reversed $362 $-1 #
vertex $-1 $377 $414 #
vertex $-1 $276 $415 #
straight-curve $-1 -33.397216581123956 -35.164733418081468 0 0 0 1 I I #
straight-curve $-1 -17.797336162307726 -23.233678882637463 -15.108805075222076 1 0 0 I I #
straight-curve $-1 -17.797336162307726 -23.233678882637463 15.108805075222076 -1 0 0 I I #
point $-1 -33.397216581123956 -23.233678882637463 15.108805075222076 #
point $-1 -33.397216581123956 -23.233678882637463 -15.108805075222076 #
straight-curve $-1 -37.792128068106948 -35.164733418081468 0 0 0 -1 I I #
edge $-1 $369 33.397216581123956 $287 37.792128068106948 $368 $416 forward 7 unknown #
point $-1 -37.792128068106948 -35.164733418081468 -15.108805075222076 #
edge $-1 $290 -37.792128068106948 $370 -33.397216581123956 $367 $417 forward 7 unknown #
point $-1 -37.792128068106948 -35.164733418081468 15.108805075222076 #
edge $-1 $382 44.994471182389503 $385 54.951851264521117 $295 $418 forward 7 unknown #
vertex $-1 $309 $419 #
straight-curve $-1 -13.572882328841418 41.601838449788708 15.108805075222079 0 1 0 I I #
edge $-1 $385 0.57283716817934227 $306 25.427253153144811 $305 $420 forward 7 unknown #
vertex $-1 $384 $421 #
straight-curve $-1 -13.572882328841418 -3.1394386658364084 64.134679450813877 0 -0.54463902268945019 0.83867057594974714 I I #
point $-1 -13.572882328841418 28.698335392446538 15.108805075222079 #
point $-1 -38.427298313806887 35.164733418081475 5.1514249930904654 #
straight-curve $-1 0 35.164733418081468 15.108805075222076 -1 0 0 I I #
vertex $-1 $312 $422 #
point $-1 -29.82603660381675 28.674394554693706 8.0149037511461838 #
vertex $-1 $316 $423 #
point $-1 -19.17414403883155 28.674394554693706 8.0149037511461838 #
coedge $-1 $331 $330 $323 $395 forward $320 $-1 #
edge $-1 $396 44.994471182389503 $399 54.951851264521117 $394 $424 forward 7 unknown #
vertex $-1 $335 $425 #
straight-curve $-1 38.427298313806887 41.601838449788708 15.108805075222079 0 1 0 I I #
edge $-1 $399 -25.427253153144811 $332 -0.57283716817934227 $331 $426 forward 7 unknown #
vertex $-1 $398 $427 #
straight-curve $-1 38.427298313806887 -3.1394386658364084 64.134679450813877 0 -0.54463902268945019 0.83867057594974714 I I #
point $-1 38.427298313806887 28.698335392446538 15.108805075222079 #
point $-1 13.572882328841418 35.164733418081475 5.1514249930904654 #
straight-curve $-1 0 35.164733418081468 15.108805075222076 -1 0 0 I I #
vertex $-1 $338 $428 #
point $-1 22.174144038831543 28.674394554693706 8.0149037511461838 #
vertex $-1 $342 $429 #
point $-1 32.826036603816746 28.674394554693706 8.0149037511461838 #
straight-curve $-1 -51.476180303353985 35.164733418081468 0 0 0 -1 I I #
point $-1 -51.476180303353985 -35.164733418081468 -15.108805075222076 #
straight-curve $-1 -51.476180303353985 0 -15.108805075222076 0 1 0 I I #
point $-1 -51.476180303353985 35.164733418081468 -15.108805075222076 #
straight-curve $-1 -33.397216581123956 -14.599603075179733 15.108805075222076 0 1 0 I I #
straight-curve $-1 -33.397216581123956 -14.599603075179733 -15.108805075222076 0 -1 0 I I #
point $-1 -33.397216581123956 -35.164733418081468 -15.108805075222076 #
point $-1 -33.397216581123956 -35.164733418081468 15.108805075222076 #
straight-curve $-1 0 -35.164733418081468 -15.108805075222076 -1 0 0 I I #
straight-curve $-1 0 -35.164733418081468 15.108805075222076 1 0 0 I I #
straight-curve $-1 -13.572882328841418 35.164733418081468 60.103276257611583 0 0 -1 I I #
point $-1 -13.572882328841418 35.164733418081468 15.108805075222076 #
straight-curve $-1 -13.000045160662076 35.164733418081468 5.1514249930904725 -1 0 0 I I #
point $-1 -13.572882328841418 35.164733418081475 5.1514249930904654 #
point $-1 -31.32603660381675 27.416388690769082 7.1979452171120091 #
point $-1 -20.67414403883155 27.416388690769082 7.1979452171120091 #
straight-curve $-1 38.427298313806887 35.164733418081468 60.103276257611583 0 0 -1 I I #
point $-1 38.427298313806887 35.164733418081468 15.108805075222076 #
straight-curve $-1 13.000045160662076 35.164733418081468 5.1514249930904725 -1 0 0 I I #
point $-1 38.427298313806887 35.164733418081475 5.1514249930904654 #
point $-1 20.674144038831543 27.416388690769082 7.1979452171120091 #
point $-1 31.326036603816746 27.416388690769082 7.1979452171120091 #
End-of-ACIS-data 