500 0 17 0           
7 Unknown 11 ACIS 5.0 NT 24 Thu Mar 25 22:23:04 1999 
-1 9.9999999999999995e-007 1e-010 
body $-1 $17 $-1 $18 #
body $-1 $19 $-1 $20 #
body $-1 $21 $-1 $22 #
body $-1 $23 $-1 $24 #
body $-1 $25 $-1 $26 #
body $-1 $27 $-1 $28 #
body $-1 $29 $-1 $30 #
body $-1 $31 $-1 $32 #
body $-1 $33 $-1 $34 #
body $-1 $35 $-1 $36 #
body $-1 $37 $-1 $38 #
body $-1 $39 $-1 $40 #
body $-1 $41 $-1 $42 #
body $-1 $43 $-1 $44 #
body $-1 $45 $-1 $46 #
body $-1 $47 $-1 $48 #
body $-1 $49 $-1 $50 #
lump $-1 $-1 $51 $0 #
transform $-1 1 0 0 0 1 0 0 0 1 73.548387096774192 49.290684864886686 18.534061682539821 1 rotate no_reflect no_shear #
lump $-1 $-1 $52 $1 #
transform $-1 1 0 0 0 1 0 0 0 1 73.548387096774192 49.290684864886686 18.534061682539821 1 rotate no_reflect no_shear #
lump $-1 $-1 $53 $2 #
transform $-1 1 0 0 0 1 0 0 0 1 73.548387096774192 49.290684864886686 18.534061682539821 1 rotate no_reflect no_shear #
lump $-1 $-1 $54 $3 #
transform $-1 1 0 0 0 1 0 0 0 1 73.548387096774192 49.290684864886686 18.534061682539821 1 rotate no_reflect no_shear #
lump $-1 $-1 $55 $4 #
transform $-1 1 0 0 0 1 0 0 0 1 73.548387096774192 49.290684864886686 18.534061682539821 1 rotate no_reflect no_shear #
lump $-1 $-1 $56 $5 #
transform $-1 1 0 0 0 1 0 0 0 1 73.548387096774192 49.290684864886686 18.534061682539821 1 rotate no_reflect no_shear #
lump $-1 $-1 $57 $6 #
transform $-1 1 0 0 0 1 0 0 0 1 73.548387096774192 49.290684864886686 18.534061682539821 1 rotate no_reflect no_shear #
lump $-1 $-1 $58 $7 #
transform $-1 1 0 0 0 1 0 0 0 1 73.548387096774192 49.290684864886686 18.534061682539821 1 rotate no_reflect no_shear #
lump $-1 $-1 $59 $8 #
transform $-1 1 0 0 0 1 0 0 0 1 73.548387096774192 49.290684864886686 18.534061682539821 1 rotate no_reflect no_shear #
lump $-1 $-1 $60 $9 #
transform $-1 1 0 0 0 1 0 0 0 1 73.548387096774192 49.290684864886686 18.534061682539821 1 rotate no_reflect no_shear #
lump $-1 $-1 $61 $10 #
transform $-1 1 0 0 0 1 0 0 0 1 73.548387096774192 49.290684864886686 18.534061682539821 1 rotate no_reflect no_shear #
lump $-1 $-1 $62 $11 #
transform $-1 1 0 0 0 1 0 0 0 1 73.548387096774192 49.290684864886686 18.534061682539821 1 rotate no_reflect no_shear #
lump $-1 $-1 $63 $12 #
transform $-1 1 0 0 0 1 0 0 0 1 73.548387096774192 49.290684864886686 18.534061682539821 1 rotate no_reflect no_shear #
lump $-1 $-1 $64 $13 #
transform $-1 1 0 0 0 1 0 0 0 1 73.548387096774192 49.290684864886686 18.534061682539821 1 rotate no_reflect no_shear #
lump $-1 $-1 $65 $14 #
transform $-1 1 0 0 0 1 0 0 0 1 73.548387096774192 49.290684864886686 18.534061682539821 1 rotate no_reflect no_shear #
lump $-1 $-1 $66 $15 #
transform $-1 1 0 0 0 1 0 0 0 1 73.548387096774192 49.290684864886686 18.534061682539821 1 rotate no_reflect no_shear #
lump $-1 $-1 $67 $16 #
transform $-1 1 0 0 0 1 0 0 0 1 73.548387096774192 49.290684864886686 18.534061682539821 1 rotate no_reflect no_shear #
shell $-1 $-1 $-1 $68 $-1 $17 #
shell $-1 $-1 $-1 $69 $-1 $19 #
shell $-1 $-1 $-1 $70 $-1 $21 #
shell $-1 $-1 $-1 $71 $-1 $23 #
shell $-1 $-1 $-1 $72 $-1 $25 #
shell $-1 $-1 $-1 $73 $-1 $27 #
shell $-1 $-1 $-1 $74 $-1 $29 #
shell $-1 $-1 $-1 $75 $-1 $31 #
shell $-1 $-1 $-1 $76 $-1 $33 #
shell $-1 $-1 $-1 $77 $-1 $35 #
shell $-1 $-1 $-1 $78 $-1 $37 #
shell $-1 $-1 $-1 $79 $-1 $39 #
shell $-1 $-1 $-1 $80 $-1 $41 #
shell $-1 $-1 $-1 $81 $-1 $43 #
shell $-1 $-1 $-1 $82 $-1 $45 #
shell $-1 $-1 $-1 $83 $-1 $47 #
shell $-1 $-1 $-1 $84 $-1 $49 #
face $-1 $85 $86 $51 $-1 $87 forward single #
face $-1 $88 $89 $52 $-1 $90 forward single #
face $-1 $91 $92 $53 $-1 $93 reversed single #
face $-1 $94 $95 $54 $-1 $96 forward single #
face $-1 $97 $98 $55 $-1 $99 forward single #
face $-1 $100 $101 $56 $-1 $102 reversed single #
face $-1 $103 $104 $57 $-1 $105 forward single #
face $-1 $106 $107 $58 $-1 $108 forward single #
face $-1 $109 $110 $59 $-1 $111 reversed single #
face $-1 $112 $113 $60 $-1 $114 forward single #
face $-1 $115 $116 $61 $-1 $117 forward single #
face $-1 $118 $119 $62 $-1 $120 reversed single #
face $-1 $121 $122 $63 $-1 $123 forward single #
face $-1 $124 $125 $64 $-1 $126 forward single #
face $-1 $127 $128 $65 $-1 $129 reversed single #
face $-1 $130 $131 $66 $-1 $132 forward single #
face $-1 $133 $134 $67 $-1 $135 forward single #
face $-1 $136 $137 $51 $-1 $138 reversed single #
loop $-1 $-1 $139 $68 #
plane-surface $-1 0 0 18.534061682539821 0 0 1 1 0 0 forward_v I I I I #
face $-1 $140 $141 $52 $-1 $142 reversed single #
loop $-1 $-1 $143 $69 #
plane-surface $-1 0 -40.376992982076473 1.4810637281353891 0 0 1 1 0 0 forward_v I I I I #
face $-1 $144 $145 $53 $-1 $146 reversed single #
loop $-1 $-1 $147 $70 #
plane-surface $-1 59.037211431825781 37.226753571416879 210.20088786956987 0 1 0 0.6560590369687036 0 0.75470957328743171 forward_v I I I I #
face $-1 $148 $149 $54 $-1 $150 forward single #
loop $-1 $151 $152 $71 #
cone-surface $-1 62.517046222270693 40.673591083836826 8.4069183697665206 -0.6560590369687036 0 -0.75470957328743171 1.1320643599311475 0 -0.9840885554530554 1 I I 0 1 1.5 forward I I I I #
face $-1 $153 $154 $55 $-1 $155 forward single #
loop $-1 $156 $157 $72 #
cone-surface $-1 62.517046222270693 45.843847352466739 8.4069183697665206 -0.6560590369687036 0 -0.75470957328743171 1.1320643599311475 0 -0.9840885554530554 1 I I 0 1 1.5 forward I I I I #
face $-1 $158 $159 $56 $-1 $160 reversed single #
loop $-1 $-1 $161 $73 #
plane-surface $-1 -182.86259490126378 -27.693113008637013 105.77608484371913 0 1 0 -0.74314483375859142 0 0.66913059716165679 forward_v I I I I #
face $-1 $162 $163 $57 $-1 $164 forward single #
loop $-1 $165 $166 $74 #
cone-surface $-1 -67.540586554793492 -25.03910234288195 12.06611361173567 0.74314483375859142 0 -0.66913059716165679 0.66913059716165679 0 0.74314483375859142 1 I I 0 1 1 forward I I I I #
face $-1 $167 $168 $58 $-1 $169 forward single #
loop $-1 $170 $171 $75 #
cone-surface $-1 -67.540586554793492 -21.05808634424935 12.06611361173567 0.74314483375859142 0 -0.66913059716165679 0.66913059716165679 0 0.74314483375859142 1 I I 0 1 1 forward I I I I #
face $-1 $172 $173 $59 $-1 $174 reversed single #
loop $-1 $-1 $175 $76 #
plane-surface $-1 -182.86259490126378 -6.3849221910531018 105.77608484371913 0 1 0 -0.74314483375859142 0 0.66913059716165679 forward_v I I I I #
face $-1 $176 $177 $60 $-1 $178 forward single #
loop $-1 $179 $180 $77 #
cone-surface $-1 -67.540586554793492 -3.7309115252980405 12.06611361173567 0.74314483375859142 0 -0.66913059716165679 0.66913059716165679 0 0.74314483375859142 1 I I 0 1 1 forward I I I I #
face $-1 $181 $182 $61 $-1 $183 forward single #
loop $-1 $184 $185 $78 #
cone-surface $-1 -67.540586554793492 0.25010447333455943 12.06611361173567 0.74314483375859142 0 -0.66913059716165679 0.66913059716165679 0 0.74314483375859142 1 I I 0 1 1 forward I I I I #
face $-1 $186 $187 $62 $-1 $188 reversed single #
loop $-1 $-1 $189 $79 #
plane-surface $-1 -182.86259490126378 14.923268626530804 105.77608484371913 0 1 0 -0.74314483375859142 0 0.66913059716165679 forward_v I I I I #
face $-1 $190 $191 $63 $-1 $192 forward single #
loop $-1 $193 $194 $80 #
cone-surface $-1 -67.540586554793492 17.577279292285866 12.06611361173567 0.74314483375859142 0 -0.66913059716165679 0.66913059716165679 0 0.74314483375859142 1 I I 0 1 1 forward I I I I #
face $-1 $195 $196 $64 $-1 $197 forward single #
loop $-1 $198 $199 $81 #
cone-surface $-1 -67.540586554793492 21.558295290918466 12.06611361173567 0.74314483375859142 0 -0.66913059716165679 0.66913059716165679 0 0.74314483375859142 1 I I 0 1 1 forward I I I I #
face $-1 $200 $201 $65 $-1 $202 reversed single #
loop $-1 $-1 $203 $82 #
plane-surface $-1 -182.86259490126378 36.231459444114712 105.77608484371913 0 1 0 -0.74314483375859142 0 0.66913059716165679 forward_v I I I I #
face $-1 $204 $205 $66 $-1 $206 forward single #
loop $-1 $207 $208 $83 #
cone-surface $-1 -67.540586554793492 38.885470109869772 12.06611361173567 0.74314483375859142 0 -0.66913059716165679 0.66913059716165679 0 0.74314483375859142 1 I I 0 1 1 forward I I I I #
face $-1 $209 $210 $67 $-1 $211 forward single #
loop $-1 $212 $213 $84 #
cone-surface $-1 -67.540586554793492 42.866486108502372 12.06611361173567 0.74314483375859142 0 -0.66913059716165679 0.66913059716165679 0 0.74314483375859142 1 I I 0 1 1 forward I I I I #
face $-1 $214 $215 $51 $-1 $216 reversed single #
loop $-1 $-1 $217 $85 #
plane-surface $-1 0 0 -18.534061682539821 0 0 1 1 0 0 forward_v I I I I #
coedge $-1 $218 $219 $220 $221 forward $86 $-1 #
face $-1 $222 $223 $52 $-1 $224 reversed single #
loop $-1 $-1 $225 $88 #
plane-surface $-1 0 -40.376992982076473 -6.6184462317926105 0 0 1 1 0 0 forward_v I I I I #
coedge $-1 $226 $227 $228 $229 reversed $89 $-1 #
face $-1 $230 $231 $53 $-1 $232 forward single #
loop $-1 $-1 $233 $91 #
plane-surface $-1 -37.466956586796428 43.258719218151782 99.185544185999277 0.6560590369687036 0 0.75470957328743171 0.75470957328743171 0 -0.6560590369687036 forward_v I I I I #
coedge $-1 $234 $235 $236 $237 reversed $92 $-1 #
face $-1 $-1 $238 $54 $-1 $239 forward single #
loop $-1 $240 $241 $94 #
cone-surface $-1 60.111875168491579 40.673591083836826 5.6400856346090151 -0.6560590369687036 0 -0.75470957328743171 0.56603217996557376 0 -0.4920442777265277 1 I I -0.70710678118654757 0.70710678118654757 0.75 forward I I I I #
loop $-1 $-1 $242 $71 #
coedge $-1 $152 $152 $243 $244 reversed $95 $-1 #
face $-1 $-1 $245 $55 $-1 $246 forward single #
loop $-1 $247 $248 $97 #
cone-surface $-1 60.111875168491579 45.843847352466739 5.6400856346090151 -0.6560590369687036 0 -0.75470957328743171 0.56603217996557376 0 -0.4920442777265277 1 I I -0.70710678118654757 0.70710678118654757 0.75 forward I I I I #
loop $-1 $-1 $249 $72 #
coedge $-1 $157 $157 $250 $251 reversed $98 $-1 #
face $-1 $252 $253 $56 $-1 $254 reversed single #
loop $-1 $-1 $255 $100 #
plane-surface $-1 -73.548387096774206 -23.048594343565647 7.3491324870367123 -0.74314483375859142 0 0.66913059716165679 0.66913059716165679 0 0.74314483375859142 forward_v I I I I #
coedge $-1 $256 $257 $258 $259 reversed $101 $-1 #
face $-1 $-1 $260 $57 $-1 $261 forward single #
loop $-1 $262 $263 $103 #
cone-surface $-1 -66.196691212016248 -25.03910234288195 10.856064840102242 0.74314483375859142 0 -0.66913059716165679 0.3345652985808284 0 0.37157241687929571 1 I I -0.70710678118654746 0.70710678118654746 0.5 forward I I I I #
loop $-1 $-1 $264 $74 #
coedge $-1 $166 $166 $265 $266 reversed $104 $-1 #
face $-1 $-1 $267 $58 $-1 $268 forward single #
loop $-1 $269 $270 $106 #
cone-surface $-1 -66.196691212016248 -21.05808634424935 10.856064840102242 0.74314483375859142 0 -0.66913059716165679 0.3345652985808284 0 0.37157241687929571 1 I I -0.70710678118654746 0.70710678118654746 0.5 forward I I I I #
loop $-1 $-1 $271 $75 #
coedge $-1 $171 $171 $272 $273 reversed $107 $-1 #
face $-1 $274 $275 $59 $-1 $276 reversed single #
loop $-1 $-1 $277 $109 #
plane-surface $-1 -73.548387096774206 -1.7404035259817334 7.3491324870367123 -0.74314483375859142 0 0.66913059716165679 0.66913059716165679 0 0.74314483375859142 forward_v I I I I #
coedge $-1 $278 $279 $280 $281 reversed $110 $-1 #
face $-1 $-1 $282 $60 $-1 $283 forward single #
loop $-1 $284 $285 $112 #
cone-surface $-1 -66.196691212016248 -3.7309115252980405 10.856064840102242 0.74314483375859142 0 -0.66913059716165679 0.3345652985808284 0 0.37157241687929571 1 I I -0.70710678118654746 0.70710678118654746 0.5 forward I I I I #
loop $-1 $-1 $286 $77 #
coedge $-1 $180 $180 $287 $288 reversed $113 $-1 #
face $-1 $-1 $289 $61 $-1 $290 forward single #
loop $-1 $291 $292 $115 #
cone-surface $-1 -66.196691212016248 0.25010447333455943 10.856064840102242 0.74314483375859142 0 -0.66913059716165679 0.3345652985808284 0 0.37157241687929571 1 I I -0.70710678118654746 0.70710678118654746 0.5 forward I I I I #
loop $-1 $-1 $293 $78 #
coedge $-1 $185 $185 $294 $295 reversed $116 $-1 #
face $-1 $296 $297 $62 $-1 $298 reversed single #
loop $-1 $-1 $299 $118 #
plane-surface $-1 -73.548387096774206 19.567787291602173 7.3491324870367123 -0.74314483375859142 0 0.66913059716165679 0.66913059716165679 0 0.74314483375859142 forward_v I I I I #
coedge $-1 $300 $301 $302 $303 reversed $119 $-1 #
face $-1 $-1 $304 $63 $-1 $305 forward single #
loop $-1 $306 $307 $121 #
cone-surface $-1 -66.196691212016248 17.577279292285866 10.856064840102242 0.74314483375859142 0 -0.66913059716165679 0.3345652985808284 0 0.37157241687929571 1 I I -0.70710678118654746 0.70710678118654746 0.5 forward I I I I #
loop $-1 $-1 $308 $80 #
coedge $-1 $194 $194 $309 $310 reversed $122 $-1 #
face $-1 $-1 $311 $64 $-1 $312 forward single #
loop $-1 $313 $314 $124 #
cone-surface $-1 -66.196691212016248 21.558295290918466 10.856064840102242 0.74314483375859142 0 -0.66913059716165679 0.3345652985808284 0 0.37157241687929571 1 I I -0.70710678118654746 0.70710678118654746 0.5 forward I I I I #
loop $-1 $-1 $315 $81 #
coedge $-1 $199 $199 $316 $317 reversed $125 $-1 #
face $-1 $318 $319 $65 $-1 $320 reversed single #
loop $-1 $-1 $321 $127 #
plane-surface $-1 -73.548387096774206 40.875978109186079 7.3491324870367123 -0.74314483375859142 0 0.66913059716165679 0.66913059716165679 0 0.74314483375859142 forward_v I I I I #
coedge $-1 $322 $323 $324 $325 reversed $128 $-1 #
face $-1 $-1 $326 $66 $-1 $327 forward single #
loop $-1 $328 $329 $130 #
cone-surface $-1 -66.196691212016248 38.885470109869772 10.856064840102242 0.74314483375859142 0 -0.66913059716165679 0.3345652985808284 0 0.37157241687929571 1 I I -0.70710678118654746 0.70710678118654746 0.5 forward I I I I #
loop $-1 $-1 $330 $83 #
coedge $-1 $208 $208 $331 $332 reversed $131 $-1 #
face $-1 $-1 $333 $67 $-1 $334 forward single #
loop $-1 $335 $336 $133 #
cone-surface $-1 -66.196691212016248 42.866486108502372 10.856064840102242 0.74314483375859142 0 -0.66913059716165679 0.3345652985808284 0 0.37157241687929571 1 I I -0.70710678118654746 0.70710678118654746 0.5 forward I I I I #
loop $-1 $-1 $337 $84 #
coedge $-1 $213 $213 $338 $339 reversed $134 $-1 #
face $-1 $340 $341 $51 $-1 $342 reversed single #
loop $-1 $-1 $343 $136 #
plane-surface $-1 0 -49.290684864886686 0 0 1 0 0 0 1 forward_v I I I I #
coedge $-1 $344 $345 $346 $347 forward $137 $-1 #
coedge $-1 $348 $139 $349 $350 forward $86 $-1 #
coedge $-1 $139 $348 $351 $352 forward $86 $-1 #
coedge $-1 $353 $354 $139 $221 reversed $355 $-1 #
edge $-1 $356 -49.290684864886686 $357 49.290684864886686 $220 $358 forward 7 unknown #
face $-1 $359 $360 $52 $-1 $361 reversed single #
loop $-1 $-1 $362 $140 #
plane-surface $-1 0 -31.463301099266261 -2.5686912518286107 0 -1 0 0 0 -1 forward_v I I I I #
coedge $-1 $363 $364 $365 $366 reversed $141 $-1 #
coedge $-1 $367 $143 $368 $369 forward $89 $-1 #
coedge $-1 $143 $367 $370 $371 reversed $89 $-1 #
coedge $-1 $372 $373 $143 $229 forward $374 $-1 #
edge $-1 $375 11.274804608228024 $376 29.102188373848449 $228 $377 forward 7 unknown #
face $-1 $378 $379 $53 $-1 $380 reversed single #
loop $-1 $-1 $381 $144 #
plane-surface $-1 0 0 18.534061682539821 0 0 1 1 0 0 forward_v I I I I #
coedge $-1 $382 $383 $384 $385 reversed $145 $-1 #
coedge $-1 $235 $147 $386 $387 reversed $92 $-1 #
coedge $-1 $147 $234 $382 $388 reversed $92 $-1 #
coedge $-1 $384 $389 $147 $237 forward $379 $-1 #
edge $-1 $390 86.56638225224512 $391 102.41906776740788 $236 $392 forward 7 unknown #
loop $-1 $-1 $243 $148 #
plane-surface $-1 -37.466956586796428 43.258719218151782 99.185544185999277 0.6560590369687036 0 0.75470957328743171 0.75470957328743171 0 -0.6560590369687036 forward_v I I I I #
loop $-1 $-1 $393 $94 #
coedge $-1 $241 $241 $242 $394 reversed $149 $-1 #
coedge $-1 $242 $242 $241 $394 forward $151 $-1 #
coedge $-1 $243 $243 $152 $244 forward $238 $-1 #
edge $-1 $395 0 $395 6.2831853071796004 $243 $396 forward 7 unknown #
loop $-1 $-1 $250 $153 #
plane-surface $-1 -37.466956586796428 43.258719218151782 99.185544185999277 0.6560590369687036 0 0.75470957328743171 0.75470957328743171 0 -0.6560590369687036 forward_v I I I I #
loop $-1 $-1 $397 $97 #
coedge $-1 $248 $248 $249 $398 reversed $154 $-1 #
coedge $-1 $249 $249 $248 $398 forward $156 $-1 #
coedge $-1 $250 $250 $157 $251 forward $245 $-1 #
edge $-1 $399 0 $399 6.2831853071796004 $250 $400 forward 7 unknown #
face $-1 $401 $402 $56 $-1 $403 reversed single #
loop $-1 $-1 $404 $158 #
plane-surface $-1 -182.86259490126378 -18.40407567849428 105.77608484371913 0 -1 0 0.74314483375859142 0 -0.66913059716165679 forward_v I I I I #
coedge $-1 $405 $406 $407 $408 reversed $159 $-1 #
coedge $-1 $257 $161 $409 $410 reversed $101 $-1 #
coedge $-1 $161 $256 $405 $411 reversed $101 $-1 #
coedge $-1 $407 $412 $161 $259 forward $413 $-1 #
edge $-1 $414 17.882910353857696 $415 27.953865586023177 $258 $416 forward 7 unknown #
loop $-1 $-1 $265 $162 #
plane-surface $-1 -73.548387096774206 -23.048594343565647 7.3491324870367123 -0.74314483375859142 0 0.66913059716165679 0.66913059716165679 0 0.74314483375859142 forward_v I I I I #
loop $-1 $-1 $417 $103 #
coedge $-1 $263 $263 $264 $418 reversed $163 $-1 #
coedge $-1 $264 $264 $263 $418 forward $165 $-1 #
coedge $-1 $265 $265 $166 $266 forward $260 $-1 #
edge $-1 $419 0 $419 6.2831853071796004 $265 $420 forward 7 unknown #
loop $-1 $-1 $272 $167 #
plane-surface $-1 -73.548387096774206 -23.048594343565647 7.3491324870367123 -0.74314483375859142 0 0.66913059716165679 0.66913059716165679 0 0.74314483375859142 forward_v I I I I #
loop $-1 $-1 $421 $106 #
coedge $-1 $270 $270 $271 $422 reversed $168 $-1 #
coedge $-1 $271 $271 $270 $422 forward $170 $-1 #
coedge $-1 $272 $272 $171 $273 forward $267 $-1 #
edge $-1 $423 0 $423 6.2831853071796004 $272 $424 forward 7 unknown #
face $-1 $425 $426 $59 $-1 $427 forward single #
loop $-1 $-1 $428 $172 #
plane-surface $-1 -182.86259490126378 2.9041151390896349 105.77608484371913 0 -1 0 0.74314483375859142 0 -0.66913059716165679 forward_v I I I I #
coedge $-1 $429 $430 $431 $432 reversed $173 $-1 #
coedge $-1 $279 $175 $433 $434 reversed $110 $-1 #
coedge $-1 $175 $278 $429 $435 reversed $110 $-1 #
coedge $-1 $431 $436 $175 $281 forward $426 $-1 #
edge $-1 $437 17.882910353857696 $438 27.953865586023177 $280 $439 forward 7 unknown #
loop $-1 $-1 $287 $176 #
plane-surface $-1 -73.548387096774206 -1.7404035259817334 7.3491324870367123 -0.74314483375859142 0 0.66913059716165679 0.66913059716165679 0 0.74314483375859142 forward_v I I I I #
loop $-1 $-1 $440 $112 #
coedge $-1 $285 $285 $286 $441 reversed $177 $-1 #
coedge $-1 $286 $286 $285 $441 forward $179 $-1 #
coedge $-1 $287 $287 $180 $288 forward $282 $-1 #
edge $-1 $442 0 $442 6.2831853071796004 $287 $443 forward 7 unknown #
loop $-1 $-1 $294 $181 #
plane-surface $-1 -73.548387096774206 -1.7404035259817334 7.3491324870367123 -0.74314483375859142 0 0.66913059716165679 0.66913059716165679 0 0.74314483375859142 forward_v I I I I #
loop $-1 $-1 $444 $115 #
coedge $-1 $292 $292 $293 $445 reversed $182 $-1 #
coedge $-1 $293 $293 $292 $445 forward $184 $-1 #
coedge $-1 $294 $294 $185 $295 forward $289 $-1 #
edge $-1 $446 0 $446 6.2831853071796004 $294 $447 forward 7 unknown #
face $-1 $448 $449 $62 $-1 $450 forward single #
loop $-1 $-1 $451 $186 #
plane-surface $-1 -182.86259490126378 24.212305956673539 105.77608484371913 0 -1 0 0.74314483375859142 0 -0.66913059716165679 forward_v I I I I #
coedge $-1 $452 $453 $454 $455 reversed $187 $-1 #
coedge $-1 $301 $189 $456 $457 reversed $119 $-1 #
coedge $-1 $189 $300 $452 $458 reversed $119 $-1 #
coedge $-1 $454 $459 $189 $303 forward $449 $-1 #
edge $-1 $460 17.882910353857696 $461 27.953865586023177 $302 $462 forward 7 unknown #
loop $-1 $-1 $309 $190 #
plane-surface $-1 -73.548387096774206 19.567787291602173 7.3491324870367123 -0.74314483375859142 0 0.66913059716165679 0.66913059716165679 0 0.74314483375859142 forward_v I I I I #
loop $-1 $-1 $463 $121 #
coedge $-1 $307 $307 $308 $464 reversed $191 $-1 #
coedge $-1 $308 $308 $307 $464 forward $193 $-1 #
coedge $-1 $309 $309 $194 $310 forward $304 $-1 #
edge $-1 $465 0 $465 6.2831853071796004 $309 $466 forward 7 unknown #
loop $-1 $-1 $316 $195 #
plane-surface $-1 -73.548387096774206 19.567787291602173 7.3491324870367123 -0.74314483375859142 0 0.66913059716165679 0.66913059716165679 0 0.74314483375859142 forward_v I I I I #
loop $-1 $-1 $467 $124 #
coedge $-1 $314 $314 $315 $468 reversed $196 $-1 #
coedge $-1 $315 $315 $314 $468 forward $198 $-1 #
coedge $-1 $316 $316 $199 $317 forward $311 $-1 #
edge $-1 $469 0 $469 6.2831853071796004 $316 $470 forward 7 unknown #
face $-1 $471 $472 $65 $-1 $473 forward single #
loop $-1 $-1 $474 $200 #
plane-surface $-1 -182.86259490126378 45.520496774257445 105.77608484371913 0 -1 0 0.74314483375859142 0 -0.66913059716165679 forward_v I I I I #
coedge $-1 $475 $476 $477 $478 reversed $201 $-1 #
coedge $-1 $323 $203 $479 $480 reversed $128 $-1 #
coedge $-1 $203 $322 $475 $481 reversed $128 $-1 #
coedge $-1 $477 $482 $203 $325 forward $472 $-1 #
edge $-1 $483 17.882910353857696 $484 27.953865586023177 $324 $485 forward 7 unknown #
loop $-1 $-1 $331 $204 #
plane-surface $-1 -73.548387096774206 40.875978109186079 7.3491324870367123 -0.74314483375859142 0 0.66913059716165679 0.66913059716165679 0 0.74314483375859142 forward_v I I I I #
loop $-1 $-1 $486 $130 #
coedge $-1 $329 $329 $330 $487 reversed $205 $-1 #
coedge $-1 $330 $330 $329 $487 forward $207 $-1 #
coedge $-1 $331 $331 $208 $332 forward $326 $-1 #
edge $-1 $488 0 $488 6.2831853071796004 $331 $489 forward 7 unknown #
loop $-1 $-1 $338 $209 #
plane-surface $-1 -73.548387096774206 40.875978109186079 7.3491324870367123 -0.74314483375859142 0 0.66913059716165679 0.66913059716165679 0 0.74314483375859142 forward_v I I I I #
loop $-1 $-1 $490 $133 #
coedge $-1 $336 $336 $337 $491 reversed $210 $-1 #
coedge $-1 $337 $337 $336 $491 forward $212 $-1 #
coedge $-1 $338 $338 $213 $339 forward $333 $-1 #
edge $-1 $492 0 $492 6.2831853071796004 $338 $493 forward 7 unknown #
face $-1 $494 $495 $51 $-1 $496 reversed single #
loop $-1 $-1 $497 $214 #
plane-surface $-1 -73.548387096774192 0 0 1 0 0 0 0 -1 forward_v I I I I #
coedge $-1 $498 $351 $499 $500 forward $215 $-1 #
coedge $-1 $501 $217 $498 $502 forward $137 $-1 #
coedge $-1 $217 $501 $503 $504 forward $137 $-1 #
coedge $-1 $354 $353 $217 $347 reversed $355 $-1 #
edge $-1 $505 -49.290684864886686 $506 49.290684864886686 $346 $507 forward 7 unknown #
coedge $-1 $219 $218 $508 $509 forward $86 $-1 #
coedge $-1 $510 $511 $218 $350 reversed $495 $-1 #
edge $-1 $357 -73.548387096774192 $512 73.548387096774192 $349 $513 forward 7 unknown #
coedge $-1 $343 $514 $219 $352 reversed $215 $-1 #
edge $-1 $515 -73.548387096774192 $356 73.548387096774192 $351 $516 forward 7 unknown #
coedge $-1 $346 $220 $514 $517 forward $355 $-1 #
coedge $-1 $220 $346 $510 $518 reversed $355 $-1 #
loop $-1 $-1 $353 $494 #
vertex $-1 $221 $519 #
vertex $-1 $221 $520 #
straight-curve $-1 73.548387096774192 0 18.534061682539821 0 1 0 I I #
face $-1 $521 $522 $52 $-1 $523 reversed single #
loop $-1 $-1 $524 $222 #
plane-surface $-1 -73.548387096774192 0 0 1 0 0 0 0 -1 forward_v I I I I #
coedge $-1 $525 $368 $373 $526 reversed $223 $-1 #
coedge $-1 $527 $225 $528 $529 reversed $141 $-1 #
coedge $-1 $225 $527 $525 $530 forward $141 $-1 #
coedge $-1 $373 $372 $225 $366 forward $374 $-1 #
edge $-1 $531 -29.102188373848449 $532 -11.274804608228024 $365 $533 forward 7 unknown #
coedge $-1 $227 $226 $524 $534 reversed $89 $-1 #
coedge $-1 $362 $535 $226 $369 reversed $223 $-1 #
edge $-1 $375 -73.548387096774192 $536 73.548387096774192 $368 $537 forward 7 unknown #
coedge $-1 $538 $539 $227 $371 forward $522 $-1 #
edge $-1 $376 -73.548387096774192 $540 73.548387096774192 $370 $541 forward 7 unknown #
coedge $-1 $365 $228 $539 $542 forward $374 $-1 #
coedge $-1 $228 $365 $362 $526 forward $374 $-1 #
loop $-1 $-1 $228 $521 #
vertex $-1 $229 $543 #
vertex $-1 $542 $544 #
straight-curve $-1 73.548387096774192 -20.188496491038237 1.4810637281353891 0 -1 0 I I #
face $-1 $-1 $545 $53 $-1 $546 reversed single #
loop $-1 $-1 $236 $230 #
plane-surface $-1 73.548387096774192 0 0 -1 0 0 0 0 1 forward_v I I I I #
coedge $-1 $386 $547 $548 $549 forward $231 $-1 #
coedge $-1 $548 $233 $235 $388 forward $145 $-1 #
coedge $-1 $233 $548 $550 $551 reversed $145 $-1 #
coedge $-1 $552 $236 $233 $385 forward $379 $-1 #
edge $-1 $391 15.597393962340988 $553 27.661325255810794 $384 $554 forward 7 unknown #
coedge $-1 $555 $381 $234 $387 forward $231 $-1 #
edge $-1 $556 25.793353183959432 $390 44.029781380861301 $386 $557 forward 7 unknown #
edge $-1 $391 -147.09677419354841 $556 -122.93326965833231 $235 $558 forward 7 unknown #
coedge $-1 $236 $552 $555 $559 reversed $379 $-1 #
vertex $-1 $559 $560 #
vertex $-1 $237 $561 #
straight-curve $-1 73.548387096774192 37.226753571416879 105.10044393478493 0 0 -1 I I #
coedge $-1 $393 $393 $-1 $562 reversed $240 $-1 #
edge $-1 $563 0 $563 6.2831853071796004 $241 $564 forward 7 unknown #
vertex $-1 $244 $565 #
ellipse-curve $-1 64.430172998323258 40.673591083836826 10.607718924958434 0.6560590369687036 0 0.75470957328743171 1.1320643599311475 0 -0.9840885554530554 1 I I #
coedge $-1 $397 $397 $-1 $566 reversed $247 $-1 #
edge $-1 $567 0 $567 6.2831853071796004 $248 $568 forward 7 unknown #
vertex $-1 $251 $569 #
ellipse-curve $-1 64.430172998323258 45.843847352466739 10.607718924958434 0.6560590369687036 0 0.75470957328743171 1.1320643599311475 0 -0.9840885554530554 1 I I #
face $-1 $-1 $413 $56 $-1 $570 forward single #
loop $-1 $-1 $571 $252 #
plane-surface $-1 -73.548387096774192 0 0 1 0 0 0 0 -1 forward_v I I I I #
coedge $-1 $572 $573 $574 $575 reversed $253 $-1 #
coedge $-1 $576 $255 $257 $411 forward $159 $-1 #
coedge $-1 $255 $576 $572 $577 forward $159 $-1 #
coedge $-1 $574 $258 $255 $408 forward $413 $-1 #
edge $-1 $415 -16.16881583685419 $578 -6.8797785067114567 $407 $579 forward 7 unknown #
coedge $-1 $580 $581 $256 $410 forward $402 $-1 #
edge $-1 $582 -45.53890993482284 $414 -34.353980739319745 $409 $583 forward 7 unknown #
edge $-1 $415 -15.050806636080983 $582 -2.1389731374768986e-014 $257 $584 forward 7 unknown #
coedge $-1 $258 $574 $580 $585 forward $413 $-1 #
loop $-1 $-1 $574 $401 #
vertex $-1 $410 $586 #
vertex $-1 $259 $587 #
straight-curve $-1 -91.431297450631888 -27.693113008637013 18.534061682539821 1 0 0 I I #
coedge $-1 $417 $417 $-1 $588 reversed $262 $-1 #
edge $-1 $589 0 $589 6.2831853071796004 $263 $590 forward 7 unknown #
vertex $-1 $266 $591 #
ellipse-curve $-1 -68.512909480691448 -25.03910234288195 12.941597084788274 -0.74314483375859142 0 0.66913059716165679 0.66913059716165679 0 0.74314483375859142 1 I I #
coedge $-1 $421 $421 $-1 $592 reversed $269 $-1 #
edge $-1 $593 0 $593 6.2831853071796004 $270 $594 forward 7 unknown #
vertex $-1 $273 $595 #
ellipse-curve $-1 -68.512909480691448 -21.05808634424935 12.941597084788274 -0.74314483375859142 0 0.66913059716165679 0.66913059716165679 0 0.74314483375859142 1 I I #
face $-1 $-1 $596 $59 $-1 $597 reversed single #
loop $-1 $-1 $280 $274 #
plane-surface $-1 0 0 18.534061682539821 0 0 1 1 0 0 forward_v I I I I #
coedge $-1 $598 $599 $600 $601 reversed $275 $-1 #
coedge $-1 $602 $277 $279 $435 forward $173 $-1 #
coedge $-1 $277 $602 $598 $603 forward $173 $-1 #
coedge $-1 $600 $280 $277 $432 forward $426 $-1 #
edge $-1 $438 -5.5147204280622351 $604 3.7743169020805016 $431 $605 forward 7 unknown #
coedge $-1 $606 $607 $278 $434 forward $596 $-1 #
edge $-1 $608 -45.53890993482284 $437 -34.353980739319745 $433 $609 forward 7 unknown #
edge $-1 $438 -15.050806636080983 $608 -2.1389731374768986e-014 $279 $610 forward 7 unknown #
coedge $-1 $280 $600 $606 $611 forward $426 $-1 #
vertex $-1 $281 $612 #
vertex $-1 $281 $613 #
straight-curve $-1 -91.431297450631888 -6.3849221910531018 18.534061682539821 1 0 0 I I #
coedge $-1 $440 $440 $-1 $614 reversed $284 $-1 #
edge $-1 $615 0 $615 6.2831853071796004 $285 $616 forward 7 unknown #
vertex $-1 $288 $617 #
ellipse-curve $-1 -68.512909480691448 -3.7309115252980405 12.941597084788274 -0.74314483375859142 0 0.66913059716165679 0.66913059716165679 0 0.74314483375859142 1 I I #
coedge $-1 $444 $444 $-1 $618 reversed $291 $-1 #
edge $-1 $619 0 $619 6.2831853071796004 $292 $620 forward 7 unknown #
vertex $-1 $295 $621 #
ellipse-curve $-1 -68.512909480691448 0.25010447333455943 12.941597084788274 -0.74314483375859142 0 0.66913059716165679 0.66913059716165679 0 0.74314483375859142 1 I I #
face $-1 $-1 $622 $62 $-1 $623 reversed single #
loop $-1 $-1 $302 $296 #
plane-surface $-1 0 0 18.534061682539821 0 0 1 1 0 0 forward_v I I I I #
coedge $-1 $624 $625 $626 $627 reversed $297 $-1 #
coedge $-1 $628 $299 $301 $458 forward $187 $-1 #
coedge $-1 $299 $628 $624 $629 forward $187 $-1 #
coedge $-1 $626 $302 $299 $455 forward $449 $-1 #
edge $-1 $461 5.139374980729718 $630 14.428412310872453 $454 $631 forward 7 unknown #
coedge $-1 $632 $633 $300 $457 forward $622 $-1 #
edge $-1 $634 -45.53890993482284 $460 -34.353980739319745 $456 $635 forward 7 unknown #
edge $-1 $461 -15.050806636080983 $634 -2.1389731374768986e-014 $301 $636 forward 7 unknown #
coedge $-1 $302 $626 $632 $637 forward $449 $-1 #
vertex $-1 $303 $638 #
vertex $-1 $303 $639 #
straight-curve $-1 -91.431297450631888 14.923268626530804 18.534061682539821 1 0 0 I I #
coedge $-1 $463 $463 $-1 $640 reversed $306 $-1 #
edge $-1 $641 0 $641 6.2831853071796004 $307 $642 forward 7 unknown #
vertex $-1 $310 $643 #
ellipse-curve $-1 -68.512909480691448 17.577279292285866 12.941597084788274 -0.74314483375859142 0 0.66913059716165679 0.66913059716165679 0 0.74314483375859142 1 I I #
coedge $-1 $467 $467 $-1 $644 reversed $313 $-1 #
edge $-1 $645 0 $645 6.2831853071796004 $314 $646 forward 7 unknown #
vertex $-1 $317 $647 #
ellipse-curve $-1 -68.512909480691448 21.558295290918466 12.941597084788274 -0.74314483375859142 0 0.66913059716165679 0.66913059716165679 0 0.74314483375859142 1 I I #
face $-1 $-1 $648 $65 $-1 $649 reversed single #
loop $-1 $-1 $324 $318 #
plane-surface $-1 0 0 18.534061682539821 0 0 1 1 0 0 forward_v I I I I #
coedge $-1 $650 $651 $652 $653 reversed $319 $-1 #
coedge $-1 $654 $321 $323 $481 forward $201 $-1 #
coedge $-1 $321 $654 $650 $655 forward $201 $-1 #
coedge $-1 $652 $324 $321 $478 forward $472 $-1 #
edge $-1 $484 15.793470389521673 $656 25.082507719664406 $477 $657 forward 7 unknown #
coedge $-1 $658 $659 $322 $480 forward $648 $-1 #
edge $-1 $660 -45.53890993482284 $483 -34.353980739319745 $479 $661 forward 7 unknown #
edge $-1 $484 -15.050806636080983 $660 -2.1389731374768986e-014 $323 $662 forward 7 unknown #
coedge $-1 $324 $652 $658 $663 forward $472 $-1 #
vertex $-1 $325 $664 #
vertex $-1 $325 $665 #
straight-curve $-1 -91.431297450631888 36.231459444114712 18.534061682539821 1 0 0 I I #
coedge $-1 $486 $486 $-1 $666 reversed $328 $-1 #
edge $-1 $667 0 $667 6.2831853071796004 $329 $668 forward 7 unknown #
vertex $-1 $332 $669 #
ellipse-curve $-1 -68.512909480691448 38.885470109869772 12.941597084788274 -0.74314483375859142 0 0.66913059716165679 0.66913059716165679 0 0.74314483375859142 1 I I #
coedge $-1 $490 $490 $-1 $670 reversed $335 $-1 #
edge $-1 $671 0 $671 6.2831853071796004 $336 $672 forward 7 unknown #
vertex $-1 $339 $673 #
ellipse-curve $-1 -68.512909480691448 42.866486108502372 12.941597084788274 -0.74314483375859142 0 0.66913059716165679 0.66913059716165679 0 0.74314483375859142 1 I I #
face $-1 $-1 $355 $51 $-1 $674 reversed single #
loop $-1 $-1 $510 $340 #
plane-surface $-1 0 49.290684864886686 0 0 -1 0 0 0 -1 forward_v I I I I #
coedge $-1 $675 $508 $511 $676 forward $341 $-1 #
coedge $-1 $514 $343 $344 $502 reversed $215 $-1 #
coedge $-1 $508 $675 $343 $500 reversed $341 $-1 #
edge $-1 $515 -18.534061682539821 $677 18.534061682539821 $499 $678 forward 7 unknown #
coedge $-1 $345 $344 $675 $679 forward $137 $-1 #
edge $-1 $506 -73.548387096774192 $677 73.548387096774192 $498 $680 forward 7 unknown #
coedge $-1 $511 $510 $345 $504 reversed $495 $-1 #
edge $-1 $681 -73.548387096774192 $505 73.548387096774192 $503 $682 forward 7 unknown #
vertex $-1 $347 $683 #
vertex $-1 $517 $684 #
straight-curve $-1 73.548387096774192 0 -18.534061682539821 0 -1 0 I I #
coedge $-1 $497 $499 $348 $509 reversed $341 $-1 #
edge $-1 $512 -49.290684864886686 $515 49.290684864886686 $508 $685 forward 7 unknown #
coedge $-1 $503 $349 $354 $518 forward $495 $-1 #
coedge $-1 $349 $503 $497 $676 reversed $495 $-1 #
vertex $-1 $350 $686 #
straight-curve $-1 0 49.290684864886686 18.534061682539821 -1 0 0 I I #
coedge $-1 $351 $498 $353 $517 reversed $215 $-1 #
vertex $-1 $509 $687 #
straight-curve $-1 0 -49.290684864886686 18.534061682539821 1 0 0 I I #
edge $-1 $356 -18.534061682539821 $506 18.534061682539821 $353 $688 forward 7 unknown #
edge $-1 $357 -18.534061682539821 $505 18.534061682539821 $354 $689 forward 7 unknown #
point $-1 73.548387096774192 -49.290684864886686 18.534061682539821 #
point $-1 73.548387096774192 49.290684864886686 18.534061682539821 #
face $-1 $-1 $374 $52 $-1 $690 reversed single #
loop $-1 $-1 $370 $359 #
plane-surface $-1 0 -49.290684864886686 0 0 1 0 0 0 1 forward_v I I I I #
coedge $-1 $691 $692 $367 $534 forward $360 $-1 #
coedge $-1 $535 $362 $364 $530 reversed $223 $-1 #
edge $-1 $532 -5.3341006058783051 $375 2.7654093540496945 $373 $693 forward 7 unknown #
coedge $-1 $364 $363 $694 $695 reversed $141 $-1 #
coedge $-1 $539 $538 $363 $529 forward $522 $-1 #
edge $-1 $696 -73.548387096774192 $531 73.548387096774192 $528 $697 forward 7 unknown #
edge $-1 $698 -73.548387096774192 $532 73.548387096774192 $525 $699 forward 7 unknown #
vertex $-1 $529 $700 #
vertex $-1 $366 $701 #
straight-curve $-1 73.548387096774192 -20.188496491038237 -6.6184462317926105 0 1 0 I I #
edge $-1 $540 -29.102188373848449 $536 -11.274804608228024 $524 $702 forward 7 unknown #
coedge $-1 $368 $525 $691 $703 reversed $223 $-1 #
vertex $-1 $534 $704 #
straight-curve $-1 0 -31.463301099266261 1.4810637281353891 -1 0 0 I I #
coedge $-1 $528 $370 $692 $705 forward $522 $-1 #
coedge $-1 $370 $528 $372 $542 reversed $522 $-1 #
vertex $-1 $705 $706 #
straight-curve $-1 0 -49.290684864886686 1.4810637281353891 -1 0 0 I I #
edge $-1 $376 -1.4810637281353891 $531 6.6184462317926105 $372 $707 forward 7 unknown #
point $-1 73.548387096774192 -31.463301099266261 1.4810637281353891 #
point $-1 73.548387096774192 -49.290684864886686 1.4810637281353891 #
loop $-1 $-1 $550 $378 #
plane-surface $-1 0 49.290684864886686 0 0 -1 0 0 0 -1 forward_v I I I I #
coedge $-1 $381 $555 $708 $709 forward $231 $-1 #
coedge $-1 $383 $382 $381 $549 reversed $145 $-1 #
edge $-1 $710 -27.661325255810794 $556 -15.597393962340988 $381 $711 forward 7 unknown #
coedge $-1 $708 $712 $383 $551 forward $545 $-1 #
edge $-1 $553 -100.42265248460674 $710 -76.259147949390638 $550 $713 forward 7 unknown #
coedge $-1 $389 $384 $712 $714 reversed $379 $-1 #
vertex $-1 $551 $715 #
straight-curve $-1 73.548387096774192 21.629359609075891 2.6813761673770458 0 1 0 I I #
coedge $-1 $547 $386 $389 $559 forward $231 $-1 #
vertex $-1 $387 $716 #
straight-curve $-1 29.518605715912891 37.226753571416879 18.534061682539829 1 0 0 I I #
straight-curve $-1 -37.466956586796428 37.226753571416879 99.185544185999277 -0.75470957328743171 0 0.6560590369687036 I I #
edge $-1 $390 37.226753571416879 $717 49.290684864886686 $389 $718 forward 7 unknown #
point $-1 73.548387096774192 37.226753571416879 18.534061682539821 #
point $-1 73.548387096774192 37.226753571416879 2.6813761673770529 #
edge $-1 $719 1 $719 0 $393 $-1 forward 7 unknown #
vertex $-1 $394 $720 #
ellipse-curve $-1 60.603919446218107 40.673591083836826 6.206117814574589 0.6560590369687036 0 0.75470957328743171 1.1320643599311475 0 -0.9840885554530554 1 I I #
point $-1 65.562237358254421 40.673591083836826 9.6236303695053973 #
edge $-1 $721 1 $721 0 $397 $-1 forward 7 unknown #
vertex $-1 $398 $722 #
ellipse-curve $-1 60.603919446218107 45.843847352466739 6.206117814574589 0.6560590369687036 0 0.75470957328743171 1.1320643599311475 0 -0.9840885554530554 1 I I #
point $-1 65.562237358254421 45.843847352466739 9.6236303695053973 #
plane-surface $-1 0 0 18.534061682539821 0 0 1 1 0 0 forward_v I I I I #
coedge $-1 $581 $580 $573 $723 forward $402 $-1 #
coedge $-1 $573 $404 $406 $577 reversed $253 $-1 #
coedge $-1 $404 $572 $571 $723 reversed $253 $-1 #
coedge $-1 $412 $407 $404 $575 forward $413 $-1 #
edge $-1 $578 -27.953865586023177 $724 -17.882910353857696 $574 $725 forward 7 unknown #
coedge $-1 $406 $405 $581 $726 reversed $159 $-1 #
edge $-1 $727 2.1389731374768986e-014 $578 15.050806636080983 $572 $728 forward 7 unknown #
vertex $-1 $408 $729 #
straight-curve $-1 -63.477431864608704 -11.524297171782823 18.534061682539821 0 1 0 I I #
coedge $-1 $571 $409 $412 $585 reversed $402 $-1 #
coedge $-1 $409 $571 $576 $726 forward $402 $-1 #
vertex $-1 $410 $730 #
straight-curve $-1 -73.548387096774192 -27.693113008637013 52.888042421859566 0 0 1 I I #
straight-curve $-1 -73.548387096774206 -27.693113008637013 7.3491324870367123 -0.66913059716165679 0 -0.74314483375859142 I I #
edge $-1 $724 18.40407567849428 $414 27.693113008637013 $580 $731 forward 7 unknown #
point $-1 -73.548387096774192 -27.693113008637013 18.534061682539821 #
point $-1 -63.477431864608711 -27.693113008637013 18.534061682539821 #
edge $-1 $732 1 $732 0 $417 $-1 forward 7 unknown #
vertex $-1 $418 $733 #
ellipse-curve $-1 -66.568263628895536 -25.03910234288195 11.190630138683071 -0.74314483375859142 0 0.66913059716165679 0.66913059716165679 0 0.74314483375859142 1 I I #
point $-1 -67.843778883529794 -25.03910234288195 13.684741918546861 #
edge $-1 $734 1 $734 0 $421 $-1 forward 7 unknown #
vertex $-1 $422 $735 #
ellipse-curve $-1 -66.568263628895536 -21.05808634424935 11.190630138683071 -0.74314483375859142 0 0.66913059716165679 0.66913059716165679 0 0.74314483375859142 1 I I #
point $-1 -67.843778883529794 -21.05808634424935 13.684741918546861 #
loop $-1 $-1 $433 $425 #
plane-surface $-1 -73.548387096774192 0 0 1 0 0 0 0 -1 forward_v I I I I #
coedge $-1 $599 $428 $430 $603 reversed $275 $-1 #
coedge $-1 $428 $598 $736 $737 reversed $275 $-1 #
coedge $-1 $436 $431 $428 $601 forward $426 $-1 #
edge $-1 $604 -27.953865586023177 $738 -17.882910353857696 $600 $739 forward 7 unknown #
coedge $-1 $430 $429 $607 $740 reversed $173 $-1 #
edge $-1 $741 2.1389731374768986e-014 $604 15.050806636080983 $598 $742 forward 7 unknown #
vertex $-1 $432 $743 #
straight-curve $-1 -63.477431864608704 -0.87020176299086671 18.534061682539821 0 1 0 I I #
coedge $-1 $736 $433 $436 $611 reversed $596 $-1 #
coedge $-1 $433 $736 $602 $740 forward $596 $-1 #
vertex $-1 $434 $744 #
straight-curve $-1 -73.548387096774192 -6.3849221910531018 52.888042421859566 0 0 1 I I #
straight-curve $-1 -73.548387096774206 -6.3849221910531018 7.3491324870367123 -0.66913059716165679 0 -0.74314483375859142 I I #
edge $-1 $738 -2.9041151390896349 $437 6.3849221910531018 $606 $745 forward 7 unknown #
point $-1 -73.548387096774192 -6.3849221910531018 18.534061682539821 #
point $-1 -63.477431864608711 -6.3849221910531018 18.534061682539821 #
edge $-1 $746 1 $746 0 $440 $-1 forward 7 unknown #
vertex $-1 $441 $747 #
ellipse-curve $-1 -66.568263628895536 -3.7309115252980405 11.190630138683071 -0.74314483375859142 0 0.66913059716165679 0.66913059716165679 0 0.74314483375859142 1 I I #
point $-1 -67.843778883529794 -3.7309115252980405 13.684741918546861 #
edge $-1 $748 1 $748 0 $444 $-1 forward 7 unknown #
vertex $-1 $445 $749 #
ellipse-curve $-1 -66.568263628895536 0.25010447333455943 11.190630138683071 -0.74314483375859142 0 0.66913059716165679 0.66913059716165679 0 0.74314483375859142 1 I I #
point $-1 -67.843778883529794 0.25010447333455943 13.684741918546861 #
loop $-1 $-1 $456 $448 #
plane-surface $-1 -73.548387096774192 0 0 1 0 0 0 0 -1 forward_v I I I I #
coedge $-1 $625 $451 $453 $629 reversed $297 $-1 #
coedge $-1 $451 $624 $750 $751 reversed $297 $-1 #
coedge $-1 $459 $454 $451 $627 forward $449 $-1 #
edge $-1 $630 -27.953865586023177 $752 -17.882910353857696 $626 $753 forward 7 unknown #
coedge $-1 $453 $452 $633 $754 reversed $187 $-1 #
edge $-1 $755 2.1389731374768986e-014 $630 15.050806636080983 $624 $756 forward 7 unknown #
vertex $-1 $455 $757 #
straight-curve $-1 -63.477431864608704 9.7838936458010863 18.534061682539821 0 1 0 I I #
coedge $-1 $750 $456 $459 $637 reversed $622 $-1 #
coedge $-1 $456 $750 $628 $754 forward $622 $-1 #
vertex $-1 $457 $758 #
straight-curve $-1 -73.548387096774192 14.923268626530804 52.888042421859566 0 0 1 I I #
straight-curve $-1 -73.548387096774206 14.923268626530804 7.3491324870367123 -0.66913059716165679 0 -0.74314483375859142 I I #
edge $-1 $752 -24.212305956673539 $460 -14.923268626530804 $632 $759 forward 7 unknown #
point $-1 -73.548387096774192 14.923268626530804 18.534061682539821 #
point $-1 -63.477431864608711 14.923268626530804 18.534061682539821 #
edge $-1 $760 1 $760 0 $463 $-1 forward 7 unknown #
vertex $-1 $464 $761 #
ellipse-curve $-1 -66.568263628895536 17.577279292285866 11.190630138683071 -0.74314483375859142 0 0.66913059716165679 0.66913059716165679 0 0.74314483375859142 1 I I #
point $-1 -67.843778883529794 17.577279292285866 13.684741918546861 #
edge $-1 $762 1 $762 0 $467 $-1 forward 7 unknown #
vertex $-1 $468 $763 #
ellipse-curve $-1 -66.568263628895536 21.558295290918466 11.190630138683071 -0.74314483375859142 0 0.66913059716165679 0.66913059716165679 0 0.74314483375859142 1 I I #
point $-1 -67.843778883529794 21.558295290918466 13.684741918546861 #
loop $-1 $-1 $479 $471 #
plane-surface $-1 -73.548387096774192 0 0 1 0 0 0 0 -1 forward_v I I I I #
coedge $-1 $651 $474 $476 $655 reversed $319 $-1 #
coedge $-1 $474 $650 $764 $765 reversed $319 $-1 #
coedge $-1 $482 $477 $474 $653 forward $472 $-1 #
edge $-1 $656 -27.953865586023177 $766 -17.882910353857696 $652 $767 forward 7 unknown #
coedge $-1 $476 $475 $659 $768 reversed $201 $-1 #
edge $-1 $769 2.1389731374768986e-014 $656 15.050806636080983 $650 $770 forward 7 unknown #
vertex $-1 $478 $771 #
straight-curve $-1 -63.477431864608704 20.437989054593039 18.534061682539821 0 1 0 I I #
coedge $-1 $764 $479 $482 $663 reversed $648 $-1 #
coedge $-1 $479 $764 $654 $768 forward $648 $-1 #
vertex $-1 $480 $772 #
straight-curve $-1 -73.548387096774192 36.231459444114712 52.888042421859566 0 0 1 I I #
straight-curve $-1 -73.548387096774206 36.231459444114712 7.3491324870367123 -0.66913059716165679 0 -0.74314483375859142 I I #
edge $-1 $766 -45.520496774257445 $483 -36.231459444114712 $658 $773 forward 7 unknown #
point $-1 -73.548387096774192 36.231459444114712 18.534061682539821 #
point $-1 -63.477431864608711 36.231459444114712 18.534061682539821 #
edge $-1 $774 1 $774 0 $486 $-1 forward 7 unknown #
vertex $-1 $487 $775 #
ellipse-curve $-1 -66.568263628895536 38.885470109869772 11.190630138683071 -0.74314483375859142 0 0.66913059716165679 0.66913059716165679 0 0.74314483375859142 1 I I #
point $-1 -67.843778883529794 38.885470109869772 13.684741918546861 #
edge $-1 $776 1 $776 0 $490 $-1 forward 7 unknown #
vertex $-1 $491 $777 #
ellipse-curve $-1 -66.568263628895536 42.866486108502372 11.190630138683071 -0.74314483375859142 0 0.66913059716165679 0.66913059716165679 0 0.74314483375859142 1 I I #
point $-1 -67.843778883529794 42.866486108502372 13.684741918546861 #
plane-surface $-1 73.548387096774192 0 0 -1 0 0 0 0 1 forward_v I I I I #
coedge $-1 $499 $497 $501 $679 reversed $341 $-1 #
edge $-1 $512 -18.534061682539821 $681 18.534061682539821 $511 $778 forward 7 unknown #
vertex $-1 $679 $779 #
straight-curve $-1 -73.548387096774192 -49.290684864886686 0 0 0 -1 I I #
edge $-1 $677 -49.290684864886686 $681 49.290684864886686 $675 $780 forward 7 unknown #
straight-curve $-1 0 -49.290684864886686 -18.534061682539821 -1 0 0 I I #
vertex $-1 $504 $781 #
straight-curve $-1 0 49.290684864886686 -18.534061682539821 1 0 0 I I #
point $-1 73.548387096774192 49.290684864886686 -18.534061682539821 #
point $-1 73.548387096774192 -49.290684864886686 -18.534061682539821 #
straight-curve $-1 -73.548387096774192 0 18.534061682539821 0 -1 0 I I #
point $-1 -73.548387096774192 49.290684864886686 18.534061682539821 #
point $-1 -73.548387096774192 -49.290684864886686 18.534061682539821 #
straight-curve $-1 73.548387096774192 -49.290684864886686 0 0 0 -1 I I #
straight-curve $-1 73.548387096774192 49.290684864886686 0 0 0 -1 I I #
plane-surface $-1 73.548387096774192 0 0 -1 0 0 0 0 1 forward_v I I I I #
coedge $-1 $694 $524 $535 $703 forward $360 $-1 #
coedge $-1 $524 $694 $538 $705 reversed $360 $-1 #
straight-curve $-1 73.548387096774192 -31.463301099266261 -1.2843456259143053 0 0 1 I I #
coedge $-1 $692 $691 $527 $695 forward $360 $-1 #
edge $-1 $698 11.274804608228024 $696 29.102188373848449 $694 $782 forward 7 unknown #
vertex $-1 $529 $783 #
straight-curve $-1 0 -49.290684864886686 -6.6184462317926105 1 0 0 I I #
vertex $-1 $695 $784 #
straight-curve $-1 0 -31.463301099266261 -6.6184462317926105 1 0 0 I I #
point $-1 73.548387096774192 -49.290684864886686 -6.6184462317926105 #
point $-1 73.548387096774192 -31.463301099266261 -6.6184462317926105 #
straight-curve $-1 -73.548387096774192 -20.188496491038237 1.4810637281353891 0 1 0 I I #
edge $-1 $536 -2.7654093540496945 $698 5.3341006058783051 $691 $785 forward 7 unknown #
point $-1 -73.548387096774192 -31.463301099266261 1.4810637281353891 #
edge $-1 $540 -1.4810637281353891 $696 6.6184462317926105 $692 $786 forward 7 unknown #
point $-1 -73.548387096774192 -49.290684864886686 1.4810637281353891 #
straight-curve $-1 73.548387096774192 -49.290684864886686 0 0 0 -1 I I #
coedge $-1 $712 $550 $547 $709 reversed $545 $-1 #
edge $-1 $717 -73.548387096774192 $710 -55.311958899872323 $708 $787 forward 7 unknown #
vertex $-1 $551 $788 #
straight-curve $-1 55.311958899872337 21.629359609075891 18.534061682539836 0 -1 0 I I #
coedge $-1 $550 $708 $552 $714 forward $545 $-1 #
straight-curve $-1 -2.2415501082754048 49.290684864886686 68.56456484627094 -0.75470957328743171 0 0.6560590369687036 I I #
edge $-1 $717 -18.534061682539821 $553 -2.6813761673770529 $552 $789 forward 7 unknown #
point $-1 73.548387096774192 49.290684864886686 2.6813761673770529 #
point $-1 55.311958899872323 37.226753571416879 18.534061682539829 #
vertex $-1 $559 $790 #
straight-curve $-1 73.548387096774192 0 18.534061682539821 0 1 0 I I #
vertex $-1 $562 $791 #
point $-1 61.735983806149257 40.673591083836826 5.2220292591215332 #
vertex $-1 $566 $792 #
point $-1 61.735983806149257 45.843847352466739 5.2220292591215332 #
edge $-1 $724 34.353980739319745 $727 45.53890993482284 $571 $793 forward 7 unknown #
vertex $-1 $585 $794 #
straight-curve $-1 -91.431297450631888 -18.40407567849428 18.534061682539821 -1 0 0 I I #
edge $-1 $727 6.8797785067114567 $582 16.16881583685419 $581 $795 forward 7 unknown #
vertex $-1 $726 $796 #
straight-curve $-1 -73.548387096774206 -18.40407567849428 7.3491324870367123 0.66913059716165679 0 0.74314483375859142 I I #
point $-1 -63.477431864608711 -18.40407567849428 18.534061682539821 #
point $-1 -73.548387096774192 -27.693113008637013 7.3491324870367283 #
straight-curve $-1 -73.548387096774192 0 18.534061682539821 0 -1 0 I I #
vertex $-1 $588 $797 #
point $-1 -65.899133031733882 -25.03910234288195 11.933774972441661 #
vertex $-1 $592 $798 #
point $-1 -65.899133031733882 -21.05808634424935 11.933774972441661 #
coedge $-1 $607 $606 $599 $737 forward $596 $-1 #
edge $-1 $738 34.353980739319745 $741 45.53890993482284 $736 $799 forward 7 unknown #
vertex $-1 $611 $800 #
straight-curve $-1 -91.431297450631888 2.9041151390896349 18.534061682539821 -1 0 0 I I #
edge $-1 $741 -3.7743169020805016 $608 5.5147204280622351 $607 $801 forward 7 unknown #
vertex $-1 $740 $802 #
straight-curve $-1 -73.548387096774206 2.9041151390896349 7.3491324870367123 0.66913059716165679 0 0.74314483375859142 I I #
point $-1 -63.477431864608711 2.9041151390896349 18.534061682539821 #
point $-1 -73.548387096774192 -6.3849221910531018 7.3491324870367283 #
straight-curve $-1 -73.548387096774192 0 18.534061682539821 0 -1 0 I I #
vertex $-1 $614 $803 #
point $-1 -65.899133031733882 -3.7309115252980405 11.933774972441661 #
vertex $-1 $618 $804 #
point $-1 -65.899133031733882 0.25010447333455943 11.933774972441661 #
coedge $-1 $633 $632 $625 $751 forward $622 $-1 #
edge $-1 $752 34.353980739319745 $755 45.53890993482284 $750 $805 forward 7 unknown #
vertex $-1 $637 $806 #
straight-curve $-1 -91.431297450631888 24.212305956673539 18.534061682539821 -1 0 0 I I #
edge $-1 $755 -14.428412310872453 $634 -5.139374980729718 $633 $807 forward 7 unknown #
vertex $-1 $754 $808 #
straight-curve $-1 -73.548387096774206 24.212305956673539 7.3491324870367123 0.66913059716165679 0 0.74314483375859142 I I #
point $-1 -63.477431864608711 24.212305956673539 18.534061682539821 #
point $-1 -73.548387096774192 14.923268626530804 7.3491324870367283 #
straight-curve $-1 -73.548387096774192 0 18.534061682539821 0 -1 0 I I #
vertex $-1 $640 $809 #
point $-1 -65.899133031733882 17.577279292285866 11.933774972441661 #
vertex $-1 $644 $810 #
point $-1 -65.899133031733882 21.558295290918466 11.933774972441661 #
coedge $-1 $659 $658 $651 $765 forward $648 $-1 #
edge $-1 $766 34.353980739319745 $769 45.53890993482284 $764 $811 forward 7 unknown #
vertex $-1 $663 $812 #
straight-curve $-1 -91.431297450631888 45.520496774257445 18.534061682539821 -1 0 0 I I #
edge $-1 $769 -25.082507719664406 $660 -15.793470389521673 $659 $813 forward 7 unknown #
vertex $-1 $768 $814 #
straight-curve $-1 -73.548387096774206 45.520496774257445 7.3491324870367123 0.66913059716165679 0 0.74314483375859142 I I #
point $-1 -63.477431864608711 45.520496774257445 18.534061682539821 #
point $-1 -73.548387096774192 36.231459444114712 7.3491324870367283 #
straight-curve $-1 -73.548387096774192 0 18.534061682539821 0 -1 0 I I #
vertex $-1 $666 $815 #
point $-1 -65.899133031733882 38.885470109869772 11.933774972441661 #
vertex $-1 $670 $816 #
point $-1 -65.899133031733882 42.866486108502372 11.933774972441661 #
straight-curve $-1 -73.548387096774192 49.290684864886686 0 0 0 -1 I I #
point $-1 -73.548387096774192 -49.290684864886686 -18.534061682539821 #
straight-curve $-1 -73.548387096774192 0 -18.534061682539821 0 1 0 I I #
point $-1 -73.548387096774192 49.290684864886686 -18.534061682539821 #
straight-curve $-1 -73.548387096774192 -20.188496491038237 -6.6184462317926105 0 -1 0 I I #
point $-1 -73.548387096774192 -49.290684864886686 -6.6184462317926105 #
point $-1 -73.548387096774192 -31.463301099266261 -6.6184462317926105 #
straight-curve $-1 -73.548387096774192 -31.463301099266261 -1.2843456259143053 0 0 -1 I I #
straight-curve $-1 -73.548387096774192 -49.290684864886686 0 0 0 -1 I I #
straight-curve $-1 0 49.290684864886686 18.534061682539821 -1 0 0 I I #
point $-1 55.311958899872323 49.290684864886686 18.534061682539829 #
straight-curve $-1 73.548387096774192 49.290684864886686 0 0 0 -1 I I #
point $-1 73.548387096774192 49.290684864886686 18.534061682539821 #
point $-1 59.619830890765051 40.673591083836826 5.0740534546434413 #
point $-1 59.619830890765051 45.843847352466739 5.0740534546434413 #
straight-curve $-1 -73.548387096774192 -18.40407567849428 52.888042421859566 0 0 -1 I I #
point $-1 -73.548387096774192 -18.40407567849428 18.534061682539821 #
straight-curve $-1 -73.548387096774192 -11.524297171782823 7.3491324870367443 0 -1 0 I I #
point $-1 -73.548387096774192 -18.40407567849428 7.3491324870367283 #
point $-1 -65.825118795136959 -25.03910234288195 10.521499541521413 #
point $-1 -65.825118795136959 -21.05808634424935 10.521499541521413 #
straight-curve $-1 -73.548387096774192 2.9041151390896349 52.888042421859566 0 0 -1 I I #
point $-1 -73.548387096774192 2.9041151390896349 18.534061682539821 #
straight-curve $-1 -73.548387096774192 -0.87020176299086671 7.3491324870367443 0 -1 0 I I #
point $-1 -73.548387096774192 2.9041151390896349 7.3491324870367283 #
point $-1 -65.825118795136959 -3.7309115252980405 10.521499541521413 #
point $-1 -65.825118795136959 0.25010447333455943 10.521499541521413 #
straight-curve $-1 -73.548387096774192 24.212305956673539 52.888042421859566 0 0 -1 I I #
point $-1 -73.548387096774192 24.212305956673539 18.534061682539821 #
straight-curve $-1 -73.548387096774192 9.7838936458010863 7.3491324870367443 0 -1 0 I I #
point $-1 -73.548387096774192 24.212305956673539 7.3491324870367283 #
point $-1 -65.825118795136959 17.577279292285866 10.521499541521413 #
point $-1 -65.825118795136959 21.558295290918466 10.521499541521413 #
straight-curve $-1 -73.548387096774192 45.520496774257445 52.888042421859566 0 0 -1 I I #
point $-1 -73.548387096774192 45.520496774257445 18.534061682539821 #
straight-curve $-1 -73.548387096774192 20.437989054593039 7.3491324870367443 0 -1 0 I I #
point $-1 -73.548387096774192 45.520496774257445 7.3491324870367283 #
point $-1 -65.825118795136959 38.885470109869772 10.521499541521413 #
point $-1 -65.825118795136959 42.866486108502372 10.521499541521413 #
End-of-ACIS-data 