500 0 11 0           
7 Unknown 11 ACIS 5.0 NT 24 Fri Mar 26 15:51:20 1999 
-1 9.9999999999999995e-007 1e-010 
body $-1 $11 $-1 $12 #
body $-1 $13 $-1 $14 #
body $-1 $15 $-1 $16 #
body $-1 $17 $-1 $18 #
body $-1 $19 $-1 $20 #
body $-1 $21 $-1 $22 #
body $-1 $23 $-1 $24 #
body $-1 $25 $-1 $26 #
body $-1 $27 $-1 $28 #
body $-1 $29 $-1 $30 #
body $-1 $31 $-1 $32 #
lump $-1 $-1 $33 $0 #
transform $-1 1 0 0 0 1 0 0 0 1 62.244331186864834 24.998031577094839 5.5660615431173506 1 rotate no_reflect no_shear #
lump $-1 $-1 $34 $1 #
transform $-1 1 0 0 0 1 0 0 0 1 62.244331186864834 24.998031577094839 5.5660615431173506 1 rotate no_reflect no_shear #
lump $-1 $-1 $35 $2 #
transform $-1 1 0 0 0 1 0 0 0 1 62.244331186864834 24.998031577094839 5.5660615431173506 1 rotate no_reflect no_shear #
lump $-1 $-1 $36 $3 #
transform $-1 1 0 0 0 1 0 0 0 1 62.244331186864834 24.998031577094839 5.5660615431173506 1 rotate no_reflect no_shear #
lump $-1 $-1 $37 $4 #
transform $-1 1 0 0 0 1 0 0 0 1 62.244331186864834 24.998031577094839 5.5660615431173506 1 rotate no_reflect no_shear #
lump $-1 $-1 $38 $5 #
transform $-1 1 0 0 0 1 0 0 0 1 62.244331186864834 24.998031577094839 5.5660615431173506 1 rotate no_reflect no_shear #
lump $-1 $-1 $39 $6 #
transform $-1 1 0 0 0 1 0 0 0 1 62.244331186864834 24.998031577094839 5.5660615431173506 1 rotate no_reflect no_shear #
lump $-1 $-1 $40 $7 #
transform $-1 1 0 0 0 1 0 0 0 1 62.244331186864834 24.998031577094839 5.5660615431173506 1 rotate no_reflect no_shear #
lump $-1 $-1 $41 $8 #
transform $-1 1 0 0 0 1 0 0 0 1 62.244331186864834 24.998031577094839 5.5660615431173506 1 rotate no_reflect no_shear #
lump $-1 $-1 $42 $9 #
transform $-1 1 0 0 0 1 0 0 0 1 62.244331186864834 24.998031577094839 5.5660615431173506 1 rotate no_reflect no_shear #
lump $-1 $-1 $43 $10 #
transform $-1 1 0 0 0 1 0 0 0 1 62.244331186864834 24.998031577094839 5.5660615431173506 1 rotate no_reflect no_shear #
shell $-1 $-1 $-1 $44 $-1 $11 #
shell $-1 $-1 $-1 $45 $-1 $13 #
shell $-1 $-1 $-1 $46 $-1 $15 #
shell $-1 $-1 $-1 $47 $-1 $17 #
shell $-1 $-1 $-1 $48 $-1 $19 #
shell $-1 $-1 $-1 $49 $-1 $21 #
shell $-1 $-1 $-1 $50 $-1 $23 #
shell $-1 $-1 $-1 $51 $-1 $25 #
shell $-1 $-1 $-1 $52 $-1 $27 #
shell $-1 $-1 $-1 $53 $-1 $29 #
shell $-1 $-1 $-1 $54 $-1 $31 #
face $-1 $55 $56 $33 $-1 $57 forward single #
face $-1 $58 $59 $34 $-1 $60 reversed single #
face $-1 $61 $62 $35 $-1 $63 forward single #
face $-1 $64 $65 $36 $-1 $66 forward single #
face $-1 $67 $68 $37 $-1 $69 forward single #
face $-1 $70 $71 $38 $-1 $72 reversed single #
face $-1 $73 $74 $39 $-1 $75 forward single #
face $-1 $76 $77 $40 $-1 $78 forward single #
face $-1 $79 $80 $41 $-1 $81 reversed single #
face $-1 $82 $83 $42 $-1 $84 forward single #
face $-1 $85 $86 $43 $-1 $87 forward single #
face $-1 $88 $89 $33 $-1 $90 reversed single #
loop $-1 $-1 $91 $44 #
plane-surface $-1 0 0 5.5660615431173506 0 0 1 1 0 0 forward_v I I I I #
face $-1 $92 $93 $34 $-1 $94 reversed single #
loop $-1 $-1 $95 $45 #
plane-surface $-1 53.877945723952372 -118.95081873150063 83.333854961080391 -1 0 0 0 -0.75470958851134928 0.65605901945558964 forward_v I I I I #
face $-1 $96 $97 $35 $-1 $98 forward single #
loop $-1 $99 $100 $46 #
cone-surface $-1 43.377845454717495 -22.01265448741108 2.4939458201485172 0 0.75470958851134928 -0.65605901945558964 1 0 0 1 I I 0 1 1 forward I I I I #
face $-1 $101 $102 $36 $-1 $103 forward single #
loop $-1 $104 $105 $47 #
cone-surface $-1 47.315383055680577 -22.01265448741108 2.4939458201485172 0 0.75470958851134928 -0.65605901945558964 1 0 0 1 I I 0 1 1 forward I I I I #
face $-1 $106 $107 $37 $-1 $108 forward single #
loop $-1 $109 $110 $48 #
cone-surface $-1 51.25292065664366 -22.01265448741108 2.4939458201485172 0 0.75470958851134928 -0.65605901945558964 1 0 0 1 I I 0 1 1 forward I I I I #
face $-1 $111 $112 $38 $-1 $113 reversed single #
loop $-1 $-1 $114 $49 #
plane-surface $-1 -23.937102625165636 71.142891452857413 127.80577535809404 1 0 0 0 -0.66913061440640931 -0.74314481823134659 forward_v I I I I #
face $-1 $115 $116 $39 $-1 $117 forward single #
loop $-1 $118 $119 $50 #
cone-surface $-1 -17.097930446546883 21.653330127552938 2.286480743310074 0 -0.66913061440640931 -0.74314481823134659 1 0 0 1 I I 0 1 1 forward I I I I #
face $-1 $120 $121 $40 $-1 $122 forward single #
loop $-1 $123 $124 $51 #
cone-surface $-1 -6.8391721786187532 21.653330127552938 2.286480743310074 0 -0.66913061440640931 -0.74314481823134659 1 0 0 1 I I 0 1 1 forward I I I I #
face $-1 $125 $126 $41 $-1 $127 reversed single #
loop $-1 $-1 $128 $52 #
plane-surface $-1 -11.968551312582818 -12.156283687908356 35.292670986505243 0 0.66913061440640931 0.74314481823134659 1 0 0 forward_v I I I I #
face $-1 $129 $130 $42 $-1 $131 forward single #
loop $-1 $132 $133 $53 #
cone-surface $-1 6.839172178618746 21.653330127552938 2.286480743310074 0 -0.66913061440640931 -0.74314481823134659 1 0 0 1 I I 0 1 1 forward I I I I #
face $-1 $134 $135 $43 $-1 $136 forward single #
loop $-1 $137 $138 $54 #
cone-surface $-1 17.097930446546876 21.653330127552938 2.286480743310074 0 -0.66913061440640931 -0.74314481823134659 1 0 0 1 I I 0 1 1 forward I I I I #
face $-1 $139 $140 $33 $-1 $141 reversed single #
loop $-1 $-1 $142 $55 #
plane-surface $-1 0 0 -5.5660615431173506 0 0 1 1 0 0 forward_v I I I I #
coedge $-1 $143 $144 $145 $146 forward $56 $-1 #
face $-1 $147 $148 $34 $-1 $149 reversed single #
loop $-1 $-1 $150 $58 #
plane-surface $-1 47.315383055680577 -24.998031577094821 1.6619451908333502 0 -0.75470958851134928 0.65605901945558964 1 0 0 forward_v I I I I #
coedge $-1 $151 $152 $153 $154 reversed $59 $-1 #
face $-1 $-1 $155 $35 $-1 $156 forward single #
loop $-1 $157 $158 $61 #
cone-surface $-1 43.377845454717495 -20.346820844139394 1.0458587635938885 0 0.75470958851134928 -0.65605901945558964 0.5 0 0 1 I I -0.70710678118654746 0.70710678118654746 0.5 forward I I I I #
loop $-1 $-1 $159 $46 #
coedge $-1 $100 $100 $160 $161 reversed $62 $-1 #
face $-1 $-1 $162 $36 $-1 $163 forward single #
loop $-1 $164 $165 $64 #
cone-surface $-1 47.315383055680577 -20.346820844139394 1.0458587635938885 0 0.75470958851134928 -0.65605901945558964 0.5 0 0 1 I I -0.70710678118654746 0.70710678118654746 0.5 forward I I I I #
loop $-1 $-1 $166 $47 #
coedge $-1 $105 $105 $167 $168 reversed $65 $-1 #
face $-1 $-1 $169 $37 $-1 $170 forward single #
loop $-1 $171 $172 $67 #
cone-surface $-1 51.25292065664366 -20.346820844139394 1.0458587635938885 0 0.75470958851134928 -0.65605901945558964 0.5 0 0 1 I I -0.70710678118654746 0.70710678118654746 0.5 forward I I I I #
loop $-1 $-1 $173 $48 #
coedge $-1 $110 $110 $174 $175 reversed $68 $-1 #
face $-1 $176 $177 $38 $-1 $178 reversed single #
loop $-1 $-1 $179 $70 #
plane-surface $-1 -11.968551312582818 -12.156283687908356 35.292670986505243 0 0.66913061440640931 0.74314481823134659 1 0 0 forward_v I I I I #
coedge $-1 $180 $181 $182 $183 reversed $71 $-1 #
face $-1 $-1 $184 $39 $-1 $185 forward single #
loop $-1 $186 $187 $73 #
cone-surface $-1 -17.097930446546883 20.043849127163877 0.49897104082547994 0 -0.66913061440640931 -0.74314481823134659 0.5 0 0 1 I I -0.70710678118654746 0.70710678118654746 0.5 forward I I I I #
loop $-1 $-1 $188 $50 #
coedge $-1 $119 $119 $189 $190 reversed $74 $-1 #
face $-1 $-1 $191 $40 $-1 $192 forward single #
loop $-1 $193 $194 $76 #
cone-surface $-1 -6.8391721786187532 20.043849127163877 0.49897104082547994 0 -0.66913061440640931 -0.74314481823134659 0.5 0 0 1 I I -0.70710678118654746 0.70710678118654746 0.5 forward I I I I #
loop $-1 $-1 $195 $51 #
coedge $-1 $124 $124 $196 $197 reversed $77 $-1 #
face $-1 $198 $199 $41 $-1 $200 forward single #
loop $-1 $-1 $201 $79 #
plane-surface $-1 23.937102625165643 71.142891452857413 127.80577535809404 -1 0 0 0 0.66913061440640931 0.74314481823134659 forward_v I I I I #
coedge $-1 $202 $203 $204 $205 reversed $80 $-1 #
face $-1 $-1 $206 $42 $-1 $207 forward single #
loop $-1 $208 $209 $82 #
cone-surface $-1 6.839172178618746 20.043849127163877 0.49897104082547994 0 -0.66913061440640931 -0.74314481823134659 0.5 0 0 1 I I -0.70710678118654746 0.70710678118654746 0.5 forward I I I I #
loop $-1 $-1 $210 $53 #
coedge $-1 $133 $133 $211 $212 reversed $83 $-1 #
face $-1 $-1 $213 $43 $-1 $214 forward single #
loop $-1 $215 $216 $85 #
cone-surface $-1 17.097930446546876 20.043849127163877 0.49897104082547994 0 -0.66913061440640931 -0.74314481823134659 0.5 0 0 1 I I -0.70710678118654746 0.70710678118654746 0.5 forward I I I I #
loop $-1 $-1 $217 $54 #
coedge $-1 $138 $138 $218 $219 reversed $86 $-1 #
face $-1 $220 $221 $33 $-1 $222 reversed single #
loop $-1 $-1 $223 $88 #
plane-surface $-1 0 -24.998031577094839 0 0 1 0 0 0 1 forward_v I I I I #
coedge $-1 $224 $225 $226 $227 forward $89 $-1 #
coedge $-1 $228 $91 $229 $230 forward $56 $-1 #
coedge $-1 $91 $228 $231 $232 forward $56 $-1 #
coedge $-1 $233 $234 $91 $146 reversed $235 $-1 #
edge $-1 $236 -24.998031577094839 $237 24.998031577094839 $145 $238 forward 7 unknown #
face $-1 $239 $240 $34 $-1 $241 reversed single #
loop $-1 $-1 $242 $92 #
plane-surface $-1 40.752820387408782 -118.95081873150063 83.333854961080391 1 0 0 0 0.75470958851134928 -0.65605901945558964 forward_v I I I I #
coedge $-1 $243 $244 $245 $246 reversed $93 $-1 #
coedge $-1 $152 $95 $247 $248 reversed $59 $-1 #
coedge $-1 $95 $151 $243 $249 reversed $59 $-1 #
coedge $-1 $245 $250 $95 $154 forward $251 $-1 #
edge $-1 $252 34.477377788655474 $253 37.871174269990988 $153 $254 forward 7 unknown #
loop $-1 $-1 $160 $96 #
plane-surface $-1 47.315383055680577 -24.998031577094821 1.6619451908333502 0 -0.75470958851134928 0.65605901945558964 1 0 0 forward_v I I I I #
loop $-1 $-1 $255 $61 #
coedge $-1 $158 $158 $159 $256 reversed $97 $-1 #
coedge $-1 $159 $159 $158 $256 forward $99 $-1 #
coedge $-1 $160 $160 $100 $161 forward $155 $-1 #
edge $-1 $257 -6.2436024582380282e-016 $257 6.2831853071795996 $160 $258 forward 7 unknown #
loop $-1 $-1 $167 $101 #
plane-surface $-1 47.315383055680577 -24.998031577094821 1.6619451908333502 0 -0.75470958851134928 0.65605901945558964 1 0 0 forward_v I I I I #
loop $-1 $-1 $259 $64 #
coedge $-1 $165 $165 $166 $260 reversed $102 $-1 #
coedge $-1 $166 $166 $165 $260 forward $104 $-1 #
coedge $-1 $167 $167 $105 $168 forward $162 $-1 #
edge $-1 $261 -6.2436024582380282e-016 $261 6.2831853071795996 $167 $262 forward 7 unknown #
loop $-1 $-1 $174 $106 #
plane-surface $-1 47.315383055680577 -24.998031577094821 1.6619451908333502 0 -0.75470958851134928 0.65605901945558964 1 0 0 forward_v I I I I #
loop $-1 $-1 $263 $67 #
coedge $-1 $172 $172 $173 $264 reversed $107 $-1 #
coedge $-1 $173 $173 $172 $264 forward $109 $-1 #
coedge $-1 $174 $174 $110 $175 forward $169 $-1 #
edge $-1 $265 -6.2436024582380282e-016 $265 6.2831853071795996 $174 $266 forward 7 unknown #
face $-1 $267 $268 $38 $-1 $269 reversed single #
loop $-1 $-1 $270 $111 #
plane-surface $-1 0 71.142891452857413 127.80577535809404 -1 0 0 0 0.66913061440640931 0.74314481823134659 forward_v I I I I #
coedge $-1 $271 $272 $273 $274 reversed $112 $-1 #
coedge $-1 $181 $114 $275 $276 reversed $71 $-1 #
coedge $-1 $114 $180 $271 $277 reversed $71 $-1 #
coedge $-1 $273 $278 $114 $183 forward $279 $-1 #
edge $-1 $280 10.573414149333868 $281 14.712985662045931 $182 $282 forward 7 unknown #
loop $-1 $-1 $189 $115 #
plane-surface $-1 -11.968551312582818 -12.156283687908356 35.292670986505243 0 0.66913061440640931 0.74314481823134659 1 0 0 forward_v I I I I #
loop $-1 $-1 $283 $73 #
coedge $-1 $187 $187 $188 $284 reversed $116 $-1 #
coedge $-1 $188 $188 $187 $284 forward $118 $-1 #
coedge $-1 $189 $189 $119 $190 forward $184 $-1 #
edge $-1 $285 1.7101205741923037e-016 $285 6.2831853071796004 $189 $286 forward 7 unknown #
loop $-1 $-1 $196 $120 #
plane-surface $-1 -11.968551312582818 -12.156283687908356 35.292670986505243 0 0.66913061440640931 0.74314481823134659 1 0 0 forward_v I I I I #
loop $-1 $-1 $287 $76 #
coedge $-1 $194 $194 $195 $288 reversed $121 $-1 #
coedge $-1 $195 $195 $194 $288 forward $123 $-1 #
coedge $-1 $196 $196 $124 $197 forward $191 $-1 #
edge $-1 $289 1.7101205741923037e-016 $289 6.2831853071796004 $196 $290 forward 7 unknown #
face $-1 $291 $292 $41 $-1 $293 forward single #
loop $-1 $-1 $294 $125 #
plane-surface $-1 0 0 5.5660615431173506 0 0 1 1 0 0 forward_v I I I I #
coedge $-1 $295 $296 $297 $298 reversed $126 $-1 #
coedge $-1 $299 $128 $300 $301 reversed $80 $-1 #
coedge $-1 $128 $299 $294 $302 reversed $80 $-1 #
coedge $-1 $303 $304 $128 $205 forward $292 $-1 #
edge $-1 $305 -49.996063154189649 $306 -44.425720185824389 $204 $307 forward 7 unknown #
loop $-1 $-1 $211 $129 #
plane-surface $-1 -11.968551312582818 -12.156283687908356 35.292670986505243 0 0.66913061440640931 0.74314481823134659 1 0 0 forward_v I I I I #
loop $-1 $-1 $308 $82 #
coedge $-1 $209 $209 $210 $309 reversed $130 $-1 #
coedge $-1 $210 $210 $209 $309 forward $132 $-1 #
coedge $-1 $211 $211 $133 $212 forward $206 $-1 #
edge $-1 $310 1.7101205741923037e-016 $310 6.2831853071796004 $211 $311 forward 7 unknown #
loop $-1 $-1 $218 $134 #
plane-surface $-1 -11.968551312582818 -12.156283687908356 35.292670986505243 0 0.66913061440640931 0.74314481823134659 1 0 0 forward_v I I I I #
loop $-1 $-1 $312 $85 #
coedge $-1 $216 $216 $217 $313 reversed $135 $-1 #
coedge $-1 $217 $217 $216 $313 forward $137 $-1 #
coedge $-1 $218 $218 $138 $219 forward $213 $-1 #
edge $-1 $314 1.7101205741923037e-016 $314 6.2831853071796004 $218 $315 forward 7 unknown #
face $-1 $316 $317 $33 $-1 $318 reversed single #
loop $-1 $-1 $319 $139 #
plane-surface $-1 -62.244331186864834 0 0 1 0 0 0 0 -1 forward_v I I I I #
coedge $-1 $320 $231 $321 $322 forward $140 $-1 #
coedge $-1 $323 $142 $320 $324 forward $89 $-1 #
coedge $-1 $142 $323 $325 $326 forward $89 $-1 #
coedge $-1 $234 $233 $142 $227 reversed $235 $-1 #
edge $-1 $327 -24.998031577094839 $328 24.998031577094839 $226 $329 forward 7 unknown #
coedge $-1 $144 $143 $330 $331 forward $56 $-1 #
coedge $-1 $332 $333 $143 $230 reversed $317 $-1 #
edge $-1 $237 -62.244331186864834 $334 62.244331186864834 $229 $335 forward 7 unknown #
coedge $-1 $223 $336 $144 $232 reversed $140 $-1 #
edge $-1 $337 -62.244331186864834 $236 62.244331186864834 $231 $338 forward 7 unknown #
coedge $-1 $226 $145 $336 $339 forward $235 $-1 #
coedge $-1 $145 $226 $332 $340 reversed $235 $-1 #
loop $-1 $-1 $233 $316 #
vertex $-1 $146 $341 #
vertex $-1 $146 $342 #
straight-curve $-1 62.244331186864834 0 5.5660615431173506 0 1 0 I I #
face $-1 $-1 $251 $34 $-1 $343 forward single #
loop $-1 $-1 $344 $147 #
plane-surface $-1 0 -24.998031577094839 0 0 1 0 0 0 1 forward_v I I I I #
coedge $-1 $345 $346 $347 $348 reversed $148 $-1 #
coedge $-1 $349 $150 $152 $249 forward $93 $-1 #
coedge $-1 $150 $349 $345 $350 forward $93 $-1 #
coedge $-1 $347 $153 $150 $246 forward $251 $-1 #
edge $-1 $253 -30.220254196112084 $351 -17.095128859568494 $245 $352 forward 7 unknown #
coedge $-1 $353 $354 $151 $248 forward $240 $-1 #
edge $-1 $355 -40.004982289706867 $252 -36.100865937422846 $247 $356 forward 7 unknown #
edge $-1 $253 -5.1730048375094828 $355 2.7071234964702059e-014 $152 $357 forward 7 unknown #
coedge $-1 $153 $347 $353 $358 forward $251 $-1 #
loop $-1 $-1 $347 $239 #
vertex $-1 $248 $359 #
vertex $-1 $154 $360 #
straight-curve $-1 53.877945723952372 -59.475409365750316 5.5660615431173497 0 1 0 I I #
coedge $-1 $255 $255 $-1 $361 reversed $157 $-1 #
edge $-1 $362 0 $362 6.2831853071796004 $158 $363 forward 7 unknown #
vertex $-1 $161 $364 #
ellipse-curve $-1 43.377845454717495 -23.301133336427082 3.6140033669753429 0 -0.75470958851134928 0.65605901945558964 1 0 0 1 I I #
coedge $-1 $259 $259 $-1 $365 reversed $164 $-1 #
edge $-1 $366 0 $366 6.2831853071796004 $165 $367 forward 7 unknown #
vertex $-1 $168 $368 #
ellipse-curve $-1 47.315383055680577 -23.301133336427082 3.6140033669753429 0 -0.75470958851134928 0.65605901945558964 1 0 0 1 I I #
coedge $-1 $263 $263 $-1 $369 reversed $171 $-1 #
edge $-1 $370 0 $370 6.2831853071796004 $172 $371 forward 7 unknown #
vertex $-1 $175 $372 #
ellipse-curve $-1 51.25292065664366 -23.301133336427082 3.6140033669753429 0 -0.75470958851134928 0.65605901945558964 1 0 0 1 I I #
face $-1 $-1 $279 $38 $-1 $373 forward single #
loop $-1 $-1 $374 $176 #
plane-surface $-1 0 24.998031577094839 0 0 -1 0 0 0 -1 forward_v I I I I #
coedge $-1 $375 $376 $377 $378 reversed $177 $-1 #
coedge $-1 $379 $179 $181 $277 forward $112 $-1 #
coedge $-1 $179 $379 $375 $380 forward $112 $-1 #
coedge $-1 $377 $182 $179 $274 forward $279 $-1 #
edge $-1 $281 -17.952826968874227 $381 5.984275656291409 $273 $382 forward 7 unknown #
coedge $-1 $383 $384 $180 $276 forward $268 $-1 #
edge $-1 $385 -62.064113148806335 $280 -58.33682613592967 $275 $386 forward 7 unknown #
edge $-1 $281 44.425720185824389 $385 49.996063154189649 $181 $387 forward 7 unknown #
coedge $-1 $182 $377 $383 $388 forward $279 $-1 #
loop $-1 $-1 $377 $267 #
vertex $-1 $276 $389 #
vertex $-1 $183 $390 #
straight-curve $-1 -23.937102625165636 35.571445726428706 5.5660615431173497 0 -1 0 I I #
coedge $-1 $283 $283 $-1 $391 reversed $186 $-1 #
edge $-1 $392 0 $392 6.2831853071796004 $187 $393 forward 7 unknown #
vertex $-1 $190 $394 #
ellipse-curve $-1 -17.097930446546883 22.928245820738812 3.7024180366790151 0 0.66913061440640931 0.74314481823134659 1 0 0 1 I I #
coedge $-1 $287 $287 $-1 $395 reversed $193 $-1 #
edge $-1 $396 0 $396 6.2831853071796004 $194 $397 forward 7 unknown #
vertex $-1 $197 $398 #
ellipse-curve $-1 -6.8391721786187532 22.928245820738812 3.7024180366790151 0 0.66913061440640931 0.74314481823134659 1 0 0 1 I I #
face $-1 $-1 $399 $41 $-1 $400 reversed single #
loop $-1 $-1 $303 $198 #
plane-surface $-1 0 71.142891452857413 127.80577535809404 -1 0 0 0 0.66913061440640931 0.74314481823134659 forward_v I I I I #
coedge $-1 $297 $401 $203 $302 forward $199 $-1 #
coedge $-1 $296 $201 $299 $402 reversed $126 $-1 #
coedge $-1 $201 $295 $403 $404 reversed $126 $-1 #
coedge $-1 $405 $294 $201 $298 forward $199 $-1 #
edge $-1 $406 -14.712985662045931 $407 -10.573414149333868 $297 $408 forward 7 unknown #
coedge $-1 $203 $202 $295 $402 forward $80 $-1 #
coedge $-1 $409 $403 $202 $301 forward $399 $-1 #
edge $-1 $410 -29.921378281457052 $305 -5.984275656291409 $300 $411 forward 7 unknown #
edge $-1 $306 5.984275656291409 $406 29.921378281457052 $294 $412 forward 7 unknown #
coedge $-1 $304 $204 $401 $413 reversed $292 $-1 #
coedge $-1 $204 $303 $409 $414 reversed $292 $-1 #
vertex $-1 $301 $415 #
vertex $-1 $302 $416 #
straight-curve $-1 0 -12.156283687908356 35.292670986505243 0 -0.74314481823134659 0.66913061440640931 I I #
coedge $-1 $308 $308 $-1 $417 reversed $208 $-1 #
edge $-1 $418 0 $418 6.2831853071796004 $209 $419 forward 7 unknown #
vertex $-1 $212 $420 #
ellipse-curve $-1 6.839172178618746 22.928245820738812 3.7024180366790151 0 0.66913061440640931 0.74314481823134659 1 0 0 1 I I #
coedge $-1 $312 $312 $-1 $421 reversed $215 $-1 #
edge $-1 $422 0 $422 6.2831853071796004 $216 $423 forward 7 unknown #
vertex $-1 $219 $424 #
ellipse-curve $-1 17.097930446546876 22.928245820738812 3.7024180366790151 0 0.66913061440640931 0.74314481823134659 1 0 0 1 I I #
face $-1 $-1 $235 $33 $-1 $425 reversed single #
loop $-1 $-1 $332 $220 #
plane-surface $-1 0 24.998031577094839 0 0 -1 0 0 0 -1 forward_v I I I I #
coedge $-1 $426 $330 $333 $427 forward $221 $-1 #
coedge $-1 $336 $223 $224 $324 reversed $140 $-1 #
coedge $-1 $330 $426 $223 $322 reversed $221 $-1 #
edge $-1 $337 -5.5660615431173506 $428 5.5660615431173506 $321 $429 forward 7 unknown #
coedge $-1 $225 $224 $426 $430 forward $89 $-1 #
edge $-1 $328 -62.244331186864834 $428 62.244331186864834 $320 $431 forward 7 unknown #
coedge $-1 $333 $332 $225 $326 reversed $317 $-1 #
edge $-1 $432 -62.244331186864834 $327 62.244331186864834 $325 $433 forward 7 unknown #
vertex $-1 $227 $434 #
vertex $-1 $339 $435 #
straight-curve $-1 62.244331186864834 0 -5.5660615431173506 0 -1 0 I I #
coedge $-1 $319 $321 $228 $331 reversed $221 $-1 #
edge $-1 $334 -24.998031577094839 $337 24.998031577094839 $330 $436 forward 7 unknown #
coedge $-1 $325 $229 $234 $340 forward $317 $-1 #
coedge $-1 $229 $325 $319 $427 reversed $317 $-1 #
vertex $-1 $230 $437 #
straight-curve $-1 0 24.998031577094839 5.5660615431173506 -1 0 0 I I #
coedge $-1 $231 $320 $233 $339 reversed $140 $-1 #
vertex $-1 $331 $438 #
straight-curve $-1 0 -24.998031577094839 5.5660615431173506 1 0 0 I I #
edge $-1 $236 -5.5660615431173506 $328 5.5660615431173506 $233 $439 forward 7 unknown #
edge $-1 $237 -5.5660615431173506 $327 5.5660615431173506 $234 $440 forward 7 unknown #
point $-1 62.244331186864834 -24.998031577094839 5.5660615431173506 #
point $-1 62.244331186864834 24.998031577094839 5.5660615431173506 #
plane-surface $-1 0 0 5.5660615431173506 0 0 1 1 0 0 forward_v I I I I #
coedge $-1 $354 $353 $346 $441 forward $240 $-1 #
coedge $-1 $346 $242 $244 $350 reversed $148 $-1 #
coedge $-1 $242 $345 $344 $441 reversed $148 $-1 #
coedge $-1 $250 $245 $242 $348 forward $251 $-1 #
edge $-1 $351 -37.871174269990988 $442 -34.477377788655474 $347 $443 forward 7 unknown #
coedge $-1 $244 $243 $354 $444 reversed $93 $-1 #
edge $-1 $445 -2.7071234964702059e-014 $351 5.1730048375094828 $345 $446 forward 7 unknown #
vertex $-1 $246 $447 #
straight-curve $-1 23.657691527840289 -21.604235095759329 5.5660615431173506 -1 0 0 I I #
coedge $-1 $344 $247 $250 $358 reversed $240 $-1 #
coedge $-1 $247 $344 $349 $444 forward $240 $-1 #
vertex $-1 $248 $448 #
straight-curve $-1 53.877945723952372 -24.998031577094835 41.666927480540195 0 0 1 I I #
straight-curve $-1 53.877945723952372 -24.998031577094821 1.6619451908333502 0 -0.65605901945558964 -0.75470958851134928 I I #
edge $-1 $442 40.752820387408782 $252 53.877945723952372 $353 $449 forward 7 unknown #
point $-1 53.877945723952372 -24.998031577094839 5.5660615431173506 #
point $-1 53.877945723952372 -21.604235095759329 5.5660615431173506 #
edge $-1 $450 1 $450 0 $255 $-1 forward 7 unknown #
vertex $-1 $256 $451 #
ellipse-curve $-1 43.377845454717495 -20.724175638395067 1.3738882733216833 0 -0.75470958851134928 0.65605901945558964 1 0 0 1 I I #
point $-1 44.377845454717495 -23.301133336427093 3.6140033669753513 #
edge $-1 $452 1 $452 0 $259 $-1 forward 7 unknown #
vertex $-1 $260 $453 #
ellipse-curve $-1 47.315383055680577 -20.724175638395067 1.3738882733216833 0 -0.75470958851134928 0.65605901945558964 1 0 0 1 I I #
point $-1 48.315383055680577 -23.301133336427093 3.6140033669753513 #
edge $-1 $454 1 $454 0 $263 $-1 forward 7 unknown #
vertex $-1 $264 $455 #
ellipse-curve $-1 51.25292065664366 -20.724175638395067 1.3738882733216833 0 -0.75470958851134928 0.65605901945558964 1 0 0 1 I I #
point $-1 52.25292065664366 -23.301133336427093 3.6140033669753513 #
plane-surface $-1 0 0 5.5660615431173506 0 0 1 1 0 0 forward_v I I I I #
coedge $-1 $384 $383 $376 $456 forward $268 $-1 #
coedge $-1 $376 $270 $272 $380 reversed $177 $-1 #
coedge $-1 $270 $375 $374 $456 reversed $177 $-1 #
coedge $-1 $278 $273 $270 $378 forward $279 $-1 #
edge $-1 $381 -14.712985662045931 $457 -10.573414149333868 $377 $458 forward 7 unknown #
coedge $-1 $272 $271 $384 $459 reversed $112 $-1 #
edge $-1 $460 -49.996063154189649 $381 -44.425720185824389 $375 $461 forward 7 unknown #
vertex $-1 $274 $462 #
straight-curve $-1 -5.984275656291409 20.858460064382776 5.5660615431173497 1 0 0 I I #
coedge $-1 $374 $275 $278 $388 reversed $268 $-1 #
coedge $-1 $275 $374 $379 $459 forward $268 $-1 #
vertex $-1 $276 $463 #
straight-curve $-1 -23.937102625165636 24.998031577094839 63.902887679047019 0 0 1 I I #
straight-curve $-1 -23.937102625165636 -12.156283687908356 35.292670986505243 0 0.74314481823134659 -0.66913061440640931 I I #
edge $-1 $457 0 $280 23.937102625165636 $383 $464 forward 7 unknown #
point $-1 -23.937102625165636 24.998031577094839 5.5660615431173506 #
point $-1 -23.937102625165636 20.858460064382776 5.5660615431173497 #
edge $-1 $465 1 $465 0 $283 $-1 forward 7 unknown #
vertex $-1 $284 $466 #
ellipse-curve $-1 -17.097930446546883 20.37841443436708 0.87054344994115329 0 0.66913061440640931 0.74314481823134659 1 0 0 1 I I #
point $-1 -16.097930446546883 22.928245820738795 3.7024180366789952 #
edge $-1 $467 1 $467 0 $287 $-1 forward 7 unknown #
vertex $-1 $288 $468 #
ellipse-curve $-1 -6.8391721786187532 20.37841443436708 0.87054344994115329 0 0.66913061440640931 0.74314481823134659 1 0 0 1 I I #
point $-1 -5.8391721786187532 22.928245820738795 3.7024180366789952 #
loop $-1 $-1 $300 $291 #
plane-surface $-1 0 24.998031577094839 0 0 -1 0 0 0 -1 forward_v I I I I #
coedge $-1 $294 $405 $303 $413 forward $199 $-1 #
edge $-1 $410 -49.996063154189649 $406 -44.425720185824389 $295 $469 forward 7 unknown #
coedge $-1 $300 $470 $296 $404 forward $399 $-1 #
edge $-1 $407 58.33682613592967 $410 62.064113148806335 $403 $471 forward 7 unknown #
coedge $-1 $401 $297 $470 $472 forward $199 $-1 #
vertex $-1 $298 $473 #
vertex $-1 $472 $474 #
straight-curve $-1 23.937102625165643 35.571445726428706 5.5660615431173497 0 1 0 I I #
coedge $-1 $470 $300 $304 $414 forward $399 $-1 #
vertex $-1 $404 $475 #
straight-curve $-1 -5.984275656291409 24.998031577094835 1.8387745302406806 -1 0 0 I I #
straight-curve $-1 -5.984275656291409 20.858460064382776 5.5660615431173497 1 0 0 I I #
edge $-1 $476 10.573414149333868 $306 14.712985662045931 $401 $477 forward 7 unknown #
edge $-1 $305 -62.064113148806335 $476 -58.33682613592967 $409 $478 forward 7 unknown #
point $-1 0 24.998031577094835 1.8387745302406842 #
point $-1 0 20.858460064382776 5.5660615431173497 #
edge $-1 $479 1 $479 0 $308 $-1 forward 7 unknown #
vertex $-1 $309 $480 #
ellipse-curve $-1 6.839172178618746 20.37841443436708 0.87054344994115329 0 0.66913061440640931 0.74314481823134659 1 0 0 1 I I #
point $-1 7.839172178618746 22.928245820738795 3.7024180366789952 #
edge $-1 $481 1 $481 0 $312 $-1 forward 7 unknown #
vertex $-1 $313 $482 #
ellipse-curve $-1 17.097930446546876 20.37841443436708 0.87054344994115329 0 0.66913061440640931 0.74314481823134659 1 0 0 1 I I #
point $-1 18.097930446546876 22.928245820738795 3.7024180366789952 #
plane-surface $-1 62.244331186864834 0 0 -1 0 0 0 0 1 forward_v I I I I #
coedge $-1 $321 $319 $323 $430 reversed $221 $-1 #
edge $-1 $334 -5.5660615431173506 $432 5.5660615431173506 $333 $483 forward 7 unknown #
vertex $-1 $430 $484 #
straight-curve $-1 -62.244331186864834 -24.998031577094839 0 0 0 -1 I I #
edge $-1 $428 -24.998031577094839 $432 24.998031577094839 $426 $485 forward 7 unknown #
straight-curve $-1 0 -24.998031577094839 -5.5660615431173506 -1 0 0 I I #
vertex $-1 $326 $486 #
straight-curve $-1 0 24.998031577094839 -5.5660615431173506 1 0 0 I I #
point $-1 62.244331186864834 24.998031577094839 -5.5660615431173506 #
point $-1 62.244331186864834 -24.998031577094839 -5.5660615431173506 #
straight-curve $-1 -62.244331186864834 0 5.5660615431173506 0 -1 0 I I #
point $-1 -62.244331186864834 24.998031577094839 5.5660615431173506 #
point $-1 -62.244331186864834 -24.998031577094839 5.5660615431173506 #
straight-curve $-1 62.244331186864834 -24.998031577094839 0 0 0 -1 I I #
straight-curve $-1 62.244331186864834 24.998031577094839 0 0 0 -1 I I #
edge $-1 $442 36.100865937422846 $445 40.004982289706867 $344 $487 forward 7 unknown #
vertex $-1 $358 $488 #
straight-curve $-1 40.752820387408782 -59.475409365750316 5.5660615431173497 0 -1 0 I I #
edge $-1 $445 17.095128859568494 $355 30.220254196112084 $354 $489 forward 7 unknown #
vertex $-1 $444 $490 #
straight-curve $-1 40.752820387408782 -24.998031577094821 1.6619451908333502 0 0.65605901945558964 0.75470958851134928 I I #
point $-1 40.752820387408782 -21.604235095759329 5.5660615431173506 #
point $-1 53.877945723952372 -24.998031577094839 1.6619451908333298 #
straight-curve $-1 0 -24.998031577094839 5.5660615431173506 1 0 0 I I #
vertex $-1 $361 $491 #
point $-1 44.377845454717495 -20.724175638395067 1.3738882733216833 #
vertex $-1 $365 $492 #
point $-1 48.315383055680577 -20.724175638395067 1.3738882733216833 #
vertex $-1 $369 $493 #
point $-1 52.25292065664366 -20.724175638395067 1.3738882733216833 #
edge $-1 $457 58.33682613592967 $460 62.064113148806335 $374 $494 forward 7 unknown #
vertex $-1 $388 $495 #
straight-curve $-1 0 35.571445726428706 5.5660615431173497 0 1 0 I I #
edge $-1 $460 -5.984275656291409 $385 17.952826968874227 $384 $496 forward 7 unknown #
vertex $-1 $459 $497 #
straight-curve $-1 0 -12.156283687908356 35.292670986505243 0 -0.74314481823134659 0.66913061440640931 I I #
point $-1 0 20.858460064382776 5.5660615431173497 #
point $-1 -23.937102625165636 24.998031577094835 1.8387745302406842 #
straight-curve $-1 0 24.998031577094839 5.5660615431173506 -1 0 0 I I #
vertex $-1 $391 $498 #
point $-1 -16.097930446546883 20.37841443436708 0.87054344994115329 #
vertex $-1 $395 $499 #
point $-1 -5.8391721786187532 20.37841443436708 0.87054344994115329 #
straight-curve $-1 23.937102625165643 -12.156283687908356 35.292670986505243 0 -0.74314481823134659 0.66913061440640931 I I #
coedge $-1 $403 $409 $405 $472 reversed $399 $-1 #
straight-curve $-1 23.937102625165643 24.998031577094839 63.902887679047019 0 0 -1 I I #
edge $-1 $407 -23.937102625165643 $476 0 $470 $500 forward 7 unknown #
point $-1 23.937102625165643 20.858460064382776 5.5660615431173497 #
point $-1 23.937102625165643 24.998031577094839 5.5660615431173506 #
point $-1 23.937102625165643 24.998031577094835 1.8387745302406842 #
vertex $-1 $414 $501 #
straight-curve $-1 0 35.571445726428706 5.5660615431173497 0 -1 0 I I #
straight-curve $-1 0 24.998031577094839 63.902887679047019 0 0 1 I I #
vertex $-1 $417 $502 #
point $-1 7.839172178618746 20.37841443436708 0.87054344994115329 #
vertex $-1 $421 $503 #
point $-1 18.097930446546876 20.37841443436708 0.87054344994115329 #
straight-curve $-1 -62.244331186864834 24.998031577094839 0 0 0 -1 I I #
point $-1 -62.244331186864834 -24.998031577094839 -5.5660615431173506 #
straight-curve $-1 -62.244331186864834 0 -5.5660615431173506 0 1 0 I I #
point $-1 -62.244331186864834 24.998031577094839 -5.5660615431173506 #
straight-curve $-1 40.752820387408782 -24.998031577094835 41.666927480540195 0 0 -1 I I #
point $-1 40.752820387408782 -24.998031577094839 5.5660615431173506 #
straight-curve $-1 23.657691527840289 -24.998031577094839 1.6619451908333294 1 0 0 I I #
point $-1 40.752820387408782 -24.998031577094839 1.6619451908333298 #
point $-1 43.377845454717495 -19.969466049883721 0.71782925386609375 #
point $-1 47.315383055680577 -19.969466049883721 0.71782925386609375 #
point $-1 51.25292065664366 -19.969466049883721 0.71782925386609375 #
straight-curve $-1 0 24.998031577094839 63.902887679047019 0 0 -1 I I #
point $-1 0 24.998031577094839 5.5660615431173506 #
straight-curve $-1 -5.984275656291409 24.998031577094835 1.8387745302406806 -1 0 0 I I #
point $-1 0 24.998031577094835 1.8387745302406842 #
point $-1 -17.097930446546883 19.709283819960675 0.12739863170980664 #
point $-1 -6.8391721786187532 19.709283819960675 0.12739863170980664 #
straight-curve $-1 0 24.998031577094839 5.5660615431173506 -1 0 0 I I #
point $-1 0 24.998031577094839 5.5660615431173506 #
point $-1 6.839172178618746 19.709283819960675 0.12739863170980664 #
point $-1 17.097930446546876 19.709283819960675 0.12739863170980664 #
End-of-ACIS-data 