500 0 7 0           
7 Unknown 11 ACIS 5.0 NT 24 Thu Mar 25 18:59:29 1999 
-1 9.9999999999999995e-007 1e-010 
body $-1 $7 $-1 $8 #
body $-1 $9 $-1 $10 #
body $-1 $11 $-1 $12 #
body $-1 $13 $-1 $14 #
body $-1 $15 $-1 $16 #
body $-1 $17 $-1 $18 #
body $-1 $19 $-1 $20 #
lump $-1 $-1 $21 $0 #
transform $-1 1 0 0 0 1 0 0 0 1 74.557939390240179 43.432553828149217 21.419233079946117 1 rotate no_reflect no_shear #
lump $-1 $-1 $22 $1 #
transform $-1 1 0 0 0 1 0 0 0 1 74.557939390240179 43.432553828149217 21.419233079946117 1 rotate no_reflect no_shear #
lump $-1 $-1 $23 $2 #
transform $-1 1 0 0 0 1 0 0 0 1 74.557939390240179 43.432553828149217 21.419233079946117 1 rotate no_reflect no_shear #
lump $-1 $-1 $24 $3 #
transform $-1 1 0 0 0 1 0 0 0 1 74.557939390240179 43.432553828149217 21.419233079946117 1 rotate no_reflect no_shear #
lump $-1 $-1 $25 $4 #
transform $-1 1 0 0 0 1 0 0 0 1 74.557939390240179 43.432553828149217 21.419233079946117 1 rotate no_reflect no_shear #
lump $-1 $-1 $26 $5 #
transform $-1 1 0 0 0 1 0 0 0 1 74.557939390240179 43.432553828149217 21.419233079946117 1 rotate no_reflect no_shear #
lump $-1 $-1 $27 $6 #
transform $-1 1 0 0 0 1 0 0 0 1 74.557939390240179 43.432553828149217 21.419233079946117 1 rotate no_reflect no_shear #
shell $-1 $-1 $-1 $28 $-1 $7 #
shell $-1 $-1 $-1 $29 $-1 $9 #
shell $-1 $-1 $-1 $30 $-1 $11 #
shell $-1 $-1 $-1 $31 $-1 $13 #
shell $-1 $-1 $-1 $32 $-1 $15 #
shell $-1 $-1 $-1 $33 $-1 $17 #
shell $-1 $-1 $-1 $34 $-1 $19 #
face $-1 $35 $36 $21 $-1 $37 forward single #
face $-1 $38 $39 $22 $-1 $40 forward single #
face $-1 $41 $42 $23 $-1 $43 reversed single #
face $-1 $44 $45 $24 $-1 $46 reversed single #
face $-1 $47 $48 $25 $-1 $49 forward single #
face $-1 $50 $51 $26 $-1 $52 forward single #
face $-1 $53 $54 $27 $-1 $55 forward single #
face $-1 $56 $57 $21 $-1 $58 reversed single #
loop $-1 $-1 $59 $28 #
plane-surface $-1 0 0 21.419233079946117 0 0 1 1 0 0 forward_v I I I I #
face $-1 $60 $61 $22 $-1 $62 reversed single #
loop $-1 $-1 $63 $29 #
plane-surface $-1 0 -32.756798071083999 -15.951504118259209 0 0 1 1 0 0 forward_v I I I I #
face $-1 $64 $65 $23 $-1 $66 reversed single #
loop $-1 $-1 $67 $30 #
plane-surface $-1 0 31.71230404449863 15.076023327415189 0 0 1 1 0 0 forward_v I I I I #
face $-1 $68 $69 $24 $-1 $70 reversed single #
loop $-1 $-1 $71 $31 #
plane-surface $-1 23.541040865253777 -3.418936412215908 216.09063393640673 0 -1 0 -0.51503808176128008 0 -0.85716729658548041 forward_v I I I I #
face $-1 $72 $73 $25 $-1 $74 forward single #
loop $-1 $75 $76 $32 #
cone-surface $-1 65.941620949009817 -12.688228187836142 15.880802349664693 -0.51503808176128008 0 -0.85716729658548041 0.4285836482927402 0 -0.25751904088064004 1 I I 0 1 0.5 forward I I I I #
face $-1 $77 $78 $26 $-1 $79 forward single #
loop $-1 $80 $81 $33 #
cone-surface $-1 65.941620949009817 -9.2122437719785495 15.880802349664693 -0.51503808176128008 0 -0.85716729658548041 0.4285836482927402 0 -0.25751904088064004 1 I I 0 1 0.5 forward I I I I #
face $-1 $82 $83 $27 $-1 $84 forward single #
loop $-1 $85 $86 $34 #
cone-surface $-1 65.941620949009817 -5.7362593561209607 15.880802349664693 -0.51503808176128008 0 -0.85716729658548041 0.4285836482927402 0 -0.25751904088064004 1 I I 0 1 0.5 forward I I I I #
face $-1 $87 $88 $21 $-1 $89 reversed single #
loop $-1 $-1 $90 $35 #
plane-surface $-1 0 0 -21.419233079946117 0 0 1 1 0 0 forward_v I I I I #
coedge $-1 $91 $92 $93 $94 forward $36 $-1 #
face $-1 $95 $96 $22 $-1 $97 reversed single #
loop $-1 $-1 $98 $38 #
plane-surface $-1 0 -32.756798071083999 -20.851904603720925 0 0 1 1 0 0 forward_v I I I I #
coedge $-1 $99 $100 $101 $102 reversed $39 $-1 #
face $-1 $103 $104 $23 $-1 $105 reversed single #
loop $-1 $-1 $106 $41 #
plane-surface $-1 0 19.992054260848043 18.247628203680655 0 1 0 0 0 1 forward_v I I I I #
coedge $-1 $107 $108 $109 $110 reversed $42 $-1 #
face $-1 $111 $112 $24 $-1 $113 reversed single #
loop $-1 $-1 $114 $44 #
plane-surface $-1 -53.259315301992388 -9.2122437719785566 88.27337924417418 0.51503808176128008 0 0.85716729658548041 0.85716729658548041 0 -0.51503808176128008 forward_v I I I I #
coedge $-1 $115 $116 $117 $118 reversed $45 $-1 #
face $-1 $-1 $119 $25 $-1 $120 forward single #
loop $-1 $121 $122 $47 #
cone-surface $-1 65.473179455077187 -12.688228187836142 15.10118479674594 -0.51503808176128008 0 -0.85716729658548041 0.2142918241463701 0 -0.12875952044032002 1 I I -0.70710678118654746 0.70710678118654746 0.25 forward I I I I #
loop $-1 $-1 $123 $32 #
coedge $-1 $76 $76 $124 $125 reversed $48 $-1 #
face $-1 $-1 $126 $26 $-1 $127 forward single #
loop $-1 $128 $129 $50 #
cone-surface $-1 65.473179455077187 -9.2122437719785495 15.10118479674594 -0.51503808176128008 0 -0.85716729658548041 0.2142918241463701 0 -0.12875952044032002 1 I I -0.70710678118654746 0.70710678118654746 0.25 forward I I I I #
loop $-1 $-1 $130 $33 #
coedge $-1 $81 $81 $131 $132 reversed $51 $-1 #
face $-1 $-1 $133 $27 $-1 $134 forward single #
loop $-1 $135 $136 $53 #
cone-surface $-1 65.473179455077187 -5.7362593561209607 15.10118479674594 -0.51503808176128008 0 -0.85716729658548041 0.2142918241463701 0 -0.12875952044032002 1 I I -0.70710678118654746 0.70710678118654746 0.25 forward I I I I #
loop $-1 $-1 $137 $34 #
coedge $-1 $86 $86 $138 $139 reversed $54 $-1 #
face $-1 $140 $141 $21 $-1 $142 reversed single #
loop $-1 $-1 $143 $56 #
plane-surface $-1 0 -43.432553828149217 0 0 1 0 0 0 1 forward_v I I I I #
coedge $-1 $144 $145 $146 $147 forward $57 $-1 #
coedge $-1 $148 $59 $149 $150 forward $36 $-1 #
coedge $-1 $59 $148 $151 $152 forward $36 $-1 #
coedge $-1 $153 $154 $59 $94 reversed $155 $-1 #
edge $-1 $156 -43.432553828149217 $157 43.432553828149217 $93 $158 forward 7 unknown #
face $-1 $159 $160 $22 $-1 $161 reversed single #
loop $-1 $-1 $162 $60 #
plane-surface $-1 0 -22.081042314018781 -18.401704360990067 0 -1 0 0 0 -1 forward_v I I I I #
coedge $-1 $163 $164 $165 $166 reversed $61 $-1 #
coedge $-1 $167 $63 $168 $169 forward $39 $-1 #
coedge $-1 $63 $167 $170 $171 reversed $39 $-1 #
coedge $-1 $172 $173 $63 $102 forward $174 $-1 #
edge $-1 $175 5.7026432784767813 $176 27.054154792607218 $101 $177 forward 7 unknown #
face $-1 $178 $179 $23 $-1 $180 reversed single #
loop $-1 $-1 $181 $64 #
plane-surface $-1 74.557939390240179 0 0 -1 0 0 0 0 1 forward_v I I I I #
coedge $-1 $182 $183 $184 $185 reversed $65 $-1 #
coedge $-1 $186 $67 $182 $187 forward $42 $-1 #
coedge $-1 $67 $186 $188 $189 reversed $42 $-1 #
coedge $-1 $190 $181 $67 $110 forward $104 $-1 #
edge $-1 $191 4.1359022385987281 $192 27.576401805899902 $109 $193 forward 7 unknown #
face $-1 $194 $195 $24 $-1 $196 forward single #
loop $-1 $-1 $197 $68 #
plane-surface $-1 23.541040865253777 -15.005551131741205 216.09063393640673 0 1 0 0.51503808176128008 0 0.85716729658548041 forward_v I I I I #
coedge $-1 $198 $199 $200 $201 reversed $69 $-1 #
coedge $-1 $116 $71 $202 $203 reversed $45 $-1 #
coedge $-1 $71 $115 $198 $204 reversed $45 $-1 #
coedge $-1 $200 $205 $71 $118 forward $195 $-1 #
edge $-1 $206 -62.787418957613291 $207 -46.234146022137246 $117 $208 forward 7 unknown #
loop $-1 $-1 $124 $72 #
plane-surface $-1 -53.259315301992388 -9.2122437719785566 88.27337924417418 0.51503808176128008 0 0.85716729658548041 0.85716729658548041 0 -0.51503808176128008 forward_v I I I I #
loop $-1 $-1 $209 $47 #
coedge $-1 $122 $122 $123 $210 reversed $73 $-1 #
coedge $-1 $123 $123 $122 $210 forward $75 $-1 #
coedge $-1 $124 $124 $76 $125 forward $119 $-1 #
edge $-1 $211 0 $211 6.2831853071796004 $124 $212 forward 7 unknown #
loop $-1 $-1 $131 $77 #
plane-surface $-1 -53.259315301992388 -9.2122437719785566 88.27337924417418 0.51503808176128008 0 0.85716729658548041 0.85716729658548041 0 -0.51503808176128008 forward_v I I I I #
loop $-1 $-1 $213 $50 #
coedge $-1 $129 $129 $130 $214 reversed $78 $-1 #
coedge $-1 $130 $130 $129 $214 forward $80 $-1 #
coedge $-1 $131 $131 $81 $132 forward $126 $-1 #
edge $-1 $215 0 $215 6.2831853071796004 $131 $216 forward 7 unknown #
loop $-1 $-1 $138 $82 #
plane-surface $-1 -53.259315301992388 -9.2122437719785566 88.27337924417418 0.51503808176128008 0 0.85716729658548041 0.85716729658548041 0 -0.51503808176128008 forward_v I I I I #
loop $-1 $-1 $217 $53 #
coedge $-1 $136 $136 $137 $218 reversed $83 $-1 #
coedge $-1 $137 $137 $136 $218 forward $85 $-1 #
coedge $-1 $138 $138 $86 $139 forward $133 $-1 #
edge $-1 $219 0 $219 6.2831853071796004 $138 $220 forward 7 unknown #
face $-1 $221 $222 $21 $-1 $223 reversed single #
loop $-1 $-1 $224 $87 #
plane-surface $-1 -74.557939390240179 0 0 1 0 0 0 0 -1 forward_v I I I I #
coedge $-1 $225 $151 $226 $227 forward $88 $-1 #
coedge $-1 $228 $90 $225 $229 forward $57 $-1 #
coedge $-1 $90 $228 $230 $231 forward $57 $-1 #
coedge $-1 $154 $153 $90 $147 reversed $155 $-1 #
edge $-1 $232 -43.432553828149217 $233 43.432553828149217 $146 $234 forward 7 unknown #
coedge $-1 $92 $91 $235 $236 forward $36 $-1 #
coedge $-1 $237 $238 $91 $150 reversed $222 $-1 #
edge $-1 $157 -74.557939390240179 $239 74.557939390240179 $149 $240 forward 7 unknown #
coedge $-1 $143 $241 $92 $152 reversed $88 $-1 #
edge $-1 $242 -74.557939390240179 $156 74.557939390240179 $151 $243 forward 7 unknown #
coedge $-1 $146 $93 $241 $244 forward $155 $-1 #
coedge $-1 $93 $146 $237 $245 reversed $155 $-1 #
loop $-1 $-1 $153 $221 #
vertex $-1 $94 $246 #
vertex $-1 $94 $247 #
straight-curve $-1 74.557939390240179 0 21.419233079946117 0 1 0 I I #
face $-1 $248 $249 $22 $-1 $250 reversed single #
loop $-1 $-1 $251 $95 #
plane-surface $-1 -74.557939390240179 0 0 1 0 0 0 0 -1 forward_v I I I I #
coedge $-1 $252 $168 $173 $253 reversed $96 $-1 #
coedge $-1 $254 $98 $255 $256 reversed $61 $-1 #
coedge $-1 $98 $254 $252 $257 forward $61 $-1 #
coedge $-1 $173 $172 $98 $166 forward $174 $-1 #
edge $-1 $258 -27.054154792607218 $259 -5.7026432784767813 $165 $260 forward 7 unknown #
coedge $-1 $100 $99 $251 $261 reversed $39 $-1 #
coedge $-1 $162 $262 $99 $169 reversed $96 $-1 #
edge $-1 $175 -74.557939390240179 $263 74.557939390240179 $168 $264 forward 7 unknown #
coedge $-1 $265 $266 $100 $171 forward $249 $-1 #
edge $-1 $176 -74.557939390240179 $267 74.557939390240179 $170 $268 forward 7 unknown #
coedge $-1 $165 $101 $266 $269 forward $174 $-1 #
coedge $-1 $101 $165 $162 $253 forward $174 $-1 #
loop $-1 $-1 $101 $248 #
vertex $-1 $102 $270 #
vertex $-1 $269 $271 #
straight-curve $-1 74.557939390240179 -16.378399035541999 -15.951504118259209 0 -1 0 I I #
face $-1 $272 $273 $23 $-1 $274 forward single #
loop $-1 $-1 $188 $103 #
plane-surface $-1 0 43.432553828149217 0 0 -1 0 0 0 -1 forward_v I I I I #
coedge $-1 $109 $275 $276 $277 forward $104 $-1 #
coedge $-1 $276 $106 $107 $187 reversed $65 $-1 #
coedge $-1 $106 $276 $278 $279 reversed $65 $-1 #
coedge $-1 $280 $281 $106 $185 forward $282 $-1 #
edge $-1 $283 5.9522092255748618 $284 12.295418978105793 $184 $285 forward 7 unknown #
coedge $-1 $108 $107 $281 $286 reversed $42 $-1 #
edge $-1 $191 -74.557939390240179 $283 74.557939390240179 $182 $287 forward 7 unknown #
coedge $-1 $288 $289 $108 $189 forward $179 $-1 #
edge $-1 $192 -74.557939390240179 $290 74.557939390240179 $188 $291 forward 7 unknown #
coedge $-1 $275 $109 $289 $292 reversed $104 $-1 #
vertex $-1 $110 $293 #
vertex $-1 $189 $294 #
straight-curve $-1 74.557939390240179 15.856152022249315 15.076023327415189 0 1 0 I I #
face $-1 $-1 $295 $24 $-1 $296 reversed single #
loop $-1 $-1 $117 $111 #
plane-surface $-1 0 0 21.419233079946117 0 0 1 1 0 0 forward_v I I I I #
coedge $-1 $297 $298 $299 $300 reversed $112 $-1 #
coedge $-1 $301 $114 $116 $204 forward $69 $-1 #
coedge $-1 $114 $301 $297 $302 forward $69 $-1 #
coedge $-1 $299 $117 $114 $201 forward $195 $-1 #
edge $-1 $207 -1.1871854737733702 $303 10.399429245751927 $200 $304 forward 7 unknown #
coedge $-1 $305 $306 $115 $203 forward $295 $-1 #
edge $-1 $307 -96.572293891275379 $206 -86.626083888257256 $202 $308 forward 7 unknown #
edge $-1 $207 129.80427764798748 $307 149.11587878048039 $116 $309 forward 7 unknown #
coedge $-1 $117 $299 $305 $310 forward $195 $-1 #
vertex $-1 $203 $311 #
vertex $-1 $118 $312 #
straight-curve $-1 11.770520432626888 -3.418936412215908 21.419233079946125 -1 0 0 I I #
coedge $-1 $209 $209 $-1 $313 reversed $121 $-1 #
edge $-1 $314 0 $314 6.2831853071796004 $122 $315 forward 7 unknown #
vertex $-1 $125 $316 #
ellipse-curve $-1 66.281302922502121 -12.688228187836142 16.446128078437074 0.51503808176128008 0 0.85716729658548041 0.4285836482927402 0 -0.25751904088064004 1 I I #
coedge $-1 $213 $213 $-1 $317 reversed $128 $-1 #
edge $-1 $318 0 $318 6.2831853071796004 $129 $319 forward 7 unknown #
vertex $-1 $132 $320 #
ellipse-curve $-1 66.281302922502121 -9.2122437719785495 16.446128078437074 0.51503808176128008 0 0.85716729658548041 0.4285836482927402 0 -0.25751904088064004 1 I I #
coedge $-1 $217 $217 $-1 $321 reversed $135 $-1 #
edge $-1 $322 0 $322 6.2831853071796004 $136 $323 forward 7 unknown #
vertex $-1 $139 $324 #
ellipse-curve $-1 66.281302922502121 -5.7362593561209607 16.446128078437074 0.51503808176128008 0 0.85716729658548041 0.4285836482927402 0 -0.25751904088064004 1 I I #
face $-1 $-1 $155 $21 $-1 $325 reversed single #
loop $-1 $-1 $237 $140 #
plane-surface $-1 0 43.432553828149217 0 0 -1 0 0 0 -1 forward_v I I I I #
coedge $-1 $326 $235 $238 $327 forward $141 $-1 #
coedge $-1 $241 $143 $144 $229 reversed $88 $-1 #
coedge $-1 $235 $326 $143 $227 reversed $141 $-1 #
edge $-1 $242 -21.419233079946117 $328 21.419233079946117 $226 $329 forward 7 unknown #
coedge $-1 $145 $144 $326 $330 forward $57 $-1 #
edge $-1 $233 -74.557939390240179 $328 74.557939390240179 $225 $331 forward 7 unknown #
coedge $-1 $238 $237 $145 $231 reversed $222 $-1 #
edge $-1 $332 -74.557939390240179 $232 74.557939390240179 $230 $333 forward 7 unknown #
vertex $-1 $147 $334 #
vertex $-1 $244 $335 #
straight-curve $-1 74.557939390240179 0 -21.419233079946117 0 -1 0 I I #
coedge $-1 $224 $226 $148 $236 reversed $141 $-1 #
edge $-1 $239 -43.432553828149217 $242 43.432553828149217 $235 $336 forward 7 unknown #
coedge $-1 $230 $149 $154 $245 forward $222 $-1 #
coedge $-1 $149 $230 $224 $327 reversed $222 $-1 #
vertex $-1 $150 $337 #
straight-curve $-1 0 43.432553828149217 21.419233079946117 -1 0 0 I I #
coedge $-1 $151 $225 $153 $244 reversed $88 $-1 #
vertex $-1 $236 $338 #
straight-curve $-1 0 -43.432553828149217 21.419233079946117 1 0 0 I I #
edge $-1 $156 -21.419233079946117 $233 21.419233079946117 $153 $339 forward 7 unknown #
edge $-1 $157 -21.419233079946117 $232 21.419233079946117 $154 $340 forward 7 unknown #
point $-1 74.557939390240179 -43.432553828149217 21.419233079946117 #
point $-1 74.557939390240179 43.432553828149217 21.419233079946117 #
face $-1 $-1 $174 $22 $-1 $341 reversed single #
loop $-1 $-1 $170 $159 #
plane-surface $-1 0 -43.432553828149217 0 0 1 0 0 0 1 forward_v I I I I #
coedge $-1 $342 $343 $167 $261 forward $160 $-1 #
coedge $-1 $262 $162 $164 $257 reversed $96 $-1 #
edge $-1 $259 -11.651052423225892 $175 -6.7506519377641752 $173 $344 forward 7 unknown #
coedge $-1 $164 $163 $345 $346 reversed $61 $-1 #
coedge $-1 $266 $265 $163 $256 forward $249 $-1 #
edge $-1 $347 -74.557939390240179 $258 74.557939390240179 $255 $348 forward 7 unknown #
edge $-1 $349 -74.557939390240179 $259 74.557939390240179 $252 $350 forward 7 unknown #
vertex $-1 $256 $351 #
vertex $-1 $166 $352 #
straight-curve $-1 74.557939390240179 -16.378399035541999 -20.851904603720925 0 1 0 I I #
edge $-1 $267 -27.054154792607218 $263 -5.7026432784767813 $251 $353 forward 7 unknown #
coedge $-1 $168 $252 $342 $354 reversed $96 $-1 #
vertex $-1 $261 $355 #
straight-curve $-1 0 -22.081042314018781 -15.951504118259209 -1 0 0 I I #
coedge $-1 $255 $170 $343 $356 forward $249 $-1 #
coedge $-1 $170 $255 $172 $269 reversed $249 $-1 #
vertex $-1 $356 $357 #
straight-curve $-1 0 -43.432553828149217 -15.951504118259209 -1 0 0 I I #
edge $-1 $176 15.951504118259209 $258 20.851904603720925 $172 $358 forward 7 unknown #
point $-1 74.557939390240179 -22.081042314018781 -15.951504118259209 #
point $-1 74.557939390240179 -43.432553828149217 -15.951504118259209 #
face $-1 $-1 $282 $23 $-1 $359 reversed single #
loop $-1 $-1 $278 $178 #
plane-surface $-1 0 0 21.419233079946117 0 0 1 1 0 0 forward_v I I I I #
coedge $-1 $181 $190 $360 $361 reversed $104 $-1 #
coedge $-1 $183 $182 $181 $277 reversed $65 $-1 #
edge $-1 $362 -12.295418978105793 $191 -5.9522092255748618 $181 $363 forward 7 unknown #
coedge $-1 $360 $364 $183 $279 forward $273 $-1 #
edge $-1 $284 -74.557939390240179 $362 74.557939390240179 $278 $365 forward 7 unknown #
coedge $-1 $366 $184 $364 $367 reversed $282 $-1 #
coedge $-1 $184 $366 $186 $286 forward $282 $-1 #
loop $-1 $-1 $184 $272 #
vertex $-1 $286 $368 #
vertex $-1 $185 $369 #
straight-curve $-1 -74.557939390240179 19.992054260848043 9.1238141018403276 0 0 1 I I #
edge $-1 $290 -27.576401805899902 $283 -4.1359022385987281 $281 $370 forward 7 unknown #
straight-curve $-1 0 19.992054260848043 15.076023327415189 -1 0 0 I I #
coedge $-1 $371 $188 $366 $372 reversed $179 $-1 #
coedge $-1 $188 $371 $190 $292 forward $179 $-1 #
vertex $-1 $189 $373 #
straight-curve $-1 0 43.432553828149217 15.076023327415189 -1 0 0 I I #
edge $-1 $374 -21.419233079946117 $192 -15.076023327415189 $190 $375 forward 7 unknown #
point $-1 74.557939390240179 19.992054260848043 15.076023327415189 #
point $-1 74.557939390240179 43.432553828149217 15.076023327415189 #
loop $-1 $-1 $202 $194 #
plane-surface $-1 74.557939390240179 0 0 -1 0 0 0 0 1 forward_v I I I I #
coedge $-1 $298 $197 $199 $302 reversed $112 $-1 #
coedge $-1 $197 $297 $376 $377 reversed $112 $-1 #
coedge $-1 $205 $200 $197 $300 forward $195 $-1 #
edge $-1 $303 46.234146022137246 $378 62.787418957613291 $299 $379 forward 7 unknown #
coedge $-1 $199 $198 $306 $380 reversed $69 $-1 #
edge $-1 $381 -149.11587878048039 $303 -129.80427764798748 $297 $382 forward 7 unknown #
vertex $-1 $201 $383 #
straight-curve $-1 58.00466645476412 -4.6061218859892783 21.419233079946117 0 -1 0 I I #
coedge $-1 $376 $202 $205 $310 reversed $295 $-1 #
coedge $-1 $202 $376 $301 $380 forward $295 $-1 #
vertex $-1 $203 $384 #
straight-curve $-1 74.557939390240179 -3.418936412215908 108.04531696820337 0 0 1 I I #
straight-curve $-1 -53.259315301992388 -3.418936412215908 88.27337924417418 0.85716729658548041 0 -0.51503808176128008 I I #
edge $-1 $378 -15.005551131741205 $206 -3.418936412215908 $305 $385 forward 7 unknown #
point $-1 74.557939390240179 -3.418936412215908 21.419233079946117 #
point $-1 58.004666454764134 -3.418936412215908 21.41923307994611 #
edge $-1 $386 1 $386 0 $209 $-1 forward 7 unknown #
vertex $-1 $210 $387 #
ellipse-curve $-1 65.601938975517513 -12.688228187836142 15.31547662089231 0.51503808176128008 0 0.85716729658548041 0.4285836482927402 0 -0.25751904088064004 1 I I #
point $-1 66.709886570794865 -12.688228187836142 16.188609037556436 #
edge $-1 $388 1 $388 0 $213 $-1 forward 7 unknown #
vertex $-1 $214 $389 #
ellipse-curve $-1 65.601938975517513 -9.2122437719785495 15.31547662089231 0.51503808176128008 0 0.85716729658548041 0.4285836482927402 0 -0.25751904088064004 1 I I #
point $-1 66.709886570794865 -9.2122437719785495 16.188609037556436 #
edge $-1 $390 1 $390 0 $217 $-1 forward 7 unknown #
vertex $-1 $218 $391 #
ellipse-curve $-1 65.601938975517513 -5.7362593561209607 15.31547662089231 0.51503808176128008 0 0.85716729658548041 0.4285836482927402 0 -0.25751904088064004 1 I I #
point $-1 66.709886570794865 -5.7362593561209607 16.188609037556436 #
plane-surface $-1 74.557939390240179 0 0 -1 0 0 0 0 1 forward_v I I I I #
coedge $-1 $226 $224 $228 $330 reversed $141 $-1 #
edge $-1 $239 -21.419233079946117 $332 21.419233079946117 $238 $392 forward 7 unknown #
vertex $-1 $330 $393 #
straight-curve $-1 -74.557939390240179 -43.432553828149217 0 0 0 -1 I I #
edge $-1 $328 -43.432553828149217 $332 43.432553828149217 $326 $394 forward 7 unknown #
straight-curve $-1 0 -43.432553828149217 -21.419233079946117 -1 0 0 I I #
vertex $-1 $231 $395 #
straight-curve $-1 0 43.432553828149217 -21.419233079946117 1 0 0 I I #
point $-1 74.557939390240179 43.432553828149217 -21.419233079946117 #
point $-1 74.557939390240179 -43.432553828149217 -21.419233079946117 #
straight-curve $-1 -74.557939390240179 0 21.419233079946117 0 -1 0 I I #
point $-1 -74.557939390240179 43.432553828149217 21.419233079946117 #
point $-1 -74.557939390240179 -43.432553828149217 21.419233079946117 #
straight-curve $-1 74.557939390240179 -43.432553828149217 0 0 0 -1 I I #
straight-curve $-1 74.557939390240179 43.432553828149217 0 0 0 -1 I I #
plane-surface $-1 74.557939390240179 0 0 -1 0 0 0 0 1 forward_v I I I I #
coedge $-1 $345 $251 $262 $354 forward $160 $-1 #
coedge $-1 $251 $345 $265 $356 reversed $160 $-1 #
straight-curve $-1 74.557939390240179 -22.081042314018781 -9.2008521804950334 0 0 1 I I #
coedge $-1 $343 $342 $254 $346 forward $160 $-1 #
edge $-1 $349 5.7026432784767813 $347 27.054154792607218 $345 $396 forward 7 unknown #
vertex $-1 $256 $397 #
straight-curve $-1 0 -43.432553828149217 -20.851904603720925 1 0 0 I I #
vertex $-1 $346 $398 #
straight-curve $-1 0 -22.081042314018781 -20.851904603720925 1 0 0 I I #
point $-1 74.557939390240179 -43.432553828149217 -20.851904603720925 #
point $-1 74.557939390240179 -22.081042314018781 -20.851904603720925 #
straight-curve $-1 -74.557939390240179 -16.378399035541999 -15.951504118259209 0 1 0 I I #
edge $-1 $263 6.7506519377641752 $349 11.651052423225892 $342 $399 forward 7 unknown #
point $-1 -74.557939390240179 -22.081042314018781 -15.951504118259209 #
edge $-1 $267 15.951504118259209 $347 20.851904603720925 $343 $400 forward 7 unknown #
point $-1 -74.557939390240179 -43.432553828149217 -15.951504118259209 #
straight-curve $-1 74.557939390240179 -43.432553828149217 0 0 0 -1 I I #
plane-surface $-1 -74.557939390240179 0 0 1 0 0 0 0 -1 forward_v I I I I #
coedge $-1 $401 $278 $275 $361 forward $273 $-1 #
edge $-1 $362 19.992054260848043 $374 43.432553828149217 $275 $402 forward 7 unknown #
vertex $-1 $361 $403 #
straight-curve $-1 74.557939390240179 19.992054260848043 9.1238141018403276 0 0 -1 I I #
coedge $-1 $278 $401 $280 $367 forward $273 $-1 #
straight-curve $-1 0 19.992054260848043 21.419233079946117 1 0 0 I I #
coedge $-1 $281 $280 $288 $372 forward $282 $-1 #
edge $-1 $404 -43.432553828149217 $284 -19.992054260848043 $280 $405 forward 7 unknown #
point $-1 -74.557939390240179 19.992054260848043 15.076023327415189 #
point $-1 -74.557939390240179 19.992054260848043 21.419233079946121 #
straight-curve $-1 -74.557939390240179 15.856152022249315 15.076023327415189 0 -1 0 I I #
coedge $-1 $289 $288 $401 $406 reversed $179 $-1 #
edge $-1 $404 -21.419233079946117 $290 -15.076023327415189 $288 $407 forward 7 unknown #
point $-1 -74.557939390240179 43.432553828149217 15.076023327415189 #
vertex $-1 $361 $408 #
straight-curve $-1 74.557939390240179 43.432553828149217 0 0 0 -1 I I #
coedge $-1 $306 $305 $298 $377 forward $295 $-1 #
edge $-1 $378 86.626083888257256 $381 96.572293891275379 $376 $409 forward 7 unknown #
vertex $-1 $310 $410 #
straight-curve $-1 11.770520432626888 -15.005551131741205 21.419233079946125 1 0 0 I I #
edge $-1 $381 -10.399429245751927 $307 1.1871854737733702 $306 $411 forward 7 unknown #
vertex $-1 $380 $412 #
straight-curve $-1 -53.259315301992388 -15.005551131741205 88.27337924417418 -0.85716729658548041 0 0.51503808176128008 I I #
point $-1 58.004666454764134 -15.005551131741205 21.41923307994611 #
point $-1 74.557939390240193 -3.418936412215908 11.473023076927987 #
straight-curve $-1 74.557939390240179 0 21.419233079946117 0 1 0 I I #
vertex $-1 $313 $413 #
point $-1 66.030522623810242 -12.688228187836142 15.057957580011671 #
vertex $-1 $317 $414 #
point $-1 66.030522623810242 -9.2122437719785495 15.057957580011671 #
vertex $-1 $321 $415 #
point $-1 66.030522623810242 -5.7362593561209607 15.057957580011671 #
straight-curve $-1 -74.557939390240179 43.432553828149217 0 0 0 -1 I I #
point $-1 -74.557939390240179 -43.432553828149217 -21.419233079946117 #
straight-curve $-1 -74.557939390240179 0 -21.419233079946117 0 1 0 I I #
point $-1 -74.557939390240179 43.432553828149217 -21.419233079946117 #
straight-curve $-1 -74.557939390240179 -16.378399035541999 -20.851904603720925 0 -1 0 I I #
point $-1 -74.557939390240179 -43.432553828149217 -20.851904603720925 #
point $-1 -74.557939390240179 -22.081042314018781 -20.851904603720925 #
straight-curve $-1 -74.557939390240179 -22.081042314018781 -9.2008521804950334 0 0 -1 I I #
straight-curve $-1 -74.557939390240179 -43.432553828149217 0 0 0 -1 I I #
coedge $-1 $364 $360 $371 $406 forward $273 $-1 #
straight-curve $-1 74.557939390240179 0 21.419233079946117 0 1 0 I I #
point $-1 74.557939390240179 19.992054260848043 21.419233079946121 #
vertex $-1 $406 $416 #
straight-curve $-1 -74.557939390240179 0 21.419233079946117 0 -1 0 I I #
edge $-1 $374 -74.557939390240179 $404 74.557939390240179 $371 $417 forward 7 unknown #
straight-curve $-1 -74.557939390240179 43.432553828149217 0 0 0 -1 I I #
point $-1 74.557939390240179 43.432553828149217 21.419233079946117 #
straight-curve $-1 74.557939390240179 -15.005551131741205 108.04531696820337 0 0 -1 I I #
point $-1 74.557939390240179 -15.005551131741205 21.419233079946117 #
straight-curve $-1 74.557939390240165 -4.6061218859892783 11.473023076928001 0 1 0 I I #
point $-1 74.557939390240193 -15.005551131741205 11.473023076927987 #
point $-1 65.344419934636861 -12.688228187836142 14.88689297259957 #
point $-1 65.344419934636861 -9.2122437719785495 14.88689297259957 #
point $-1 65.344419934636861 -5.7362593561209607 14.88689297259957 #
point $-1 -74.557939390240179 43.432553828149217 21.419233079946117 #
straight-curve $-1 0 43.432553828149217 21.419233079946117 -1 0 0 I I #
End-of-ACIS-data 