500 0 12 0           
7 Unknown 11 ACIS 5.0 NT 24 Fri Mar 26 18:21:32 1999 
-1 9.9999999999999995e-007 1e-010 
body $-1 $12 $-1 $13 #
body $-1 $14 $-1 $15 #
body $-1 $16 $-1 $17 #
body $-1 $18 $-1 $19 #
body $-1 $20 $-1 $21 #
body $-1 $22 $-1 $23 #
body $-1 $24 $-1 $25 #
body $-1 $26 $-1 $27 #
body $-1 $28 $-1 $29 #
body $-1 $30 $-1 $31 #
body $-1 $32 $-1 $33 #
body $-1 $34 $-1 $35 #
lump $-1 $-1 $36 $0 #
transform $-1 1 0 0 0 1 0 0 0 1 45.389568773461107 29.343295824613296 14.124399519764726 1 rotate no_reflect no_shear #
lump $-1 $-1 $37 $1 #
transform $-1 1 0 0 0 1 0 0 0 1 45.389568773461107 29.343295824613296 14.124399519764726 1 rotate no_reflect no_shear #
lump $-1 $-1 $38 $2 #
transform $-1 1 0 0 0 1 0 0 0 1 45.389568773461107 29.343295824613296 14.124399519764726 1 rotate no_reflect no_shear #
lump $-1 $-1 $39 $3 #
transform $-1 1 0 0 0 1 0 0 0 1 45.389568773461107 29.343295824613296 14.124399519764726 1 rotate no_reflect no_shear #
lump $-1 $-1 $40 $4 #
transform $-1 1 0 0 0 1 0 0 0 1 45.389568773461107 29.343295824613296 14.124399519764726 1 rotate no_reflect no_shear #
lump $-1 $-1 $41 $5 #
transform $-1 1 0 0 0 1 0 0 0 1 45.389568773461107 29.343295824613296 14.124399519764726 1 rotate no_reflect no_shear #
lump $-1 $-1 $42 $6 #
transform $-1 1 0 0 0 1 0 0 0 1 45.389568773461107 29.343295824613296 14.124399519764726 1 rotate no_reflect no_shear #
lump $-1 $-1 $43 $7 #
transform $-1 1 0 0 0 1 0 0 0 1 45.389568773461107 29.343295824613296 14.124399519764726 1 rotate no_reflect no_shear #
lump $-1 $-1 $44 $8 #
transform $-1 1 0 0 0 1 0 0 0 1 45.389568773461107 29.343295824613296 14.124399519764726 1 rotate no_reflect no_shear #
lump $-1 $-1 $45 $9 #
transform $-1 1 0 0 0 1 0 0 0 1 45.389568773461107 29.343295824613296 14.124399519764726 1 rotate no_reflect no_shear #
lump $-1 $-1 $46 $10 #
transform $-1 1 0 0 0 1 0 0 0 1 45.389568773461107 29.343295824613296 14.124399519764726 1 rotate no_reflect no_shear #
lump $-1 $-1 $47 $11 #
transform $-1 1 0 0 0 1 0 0 0 1 45.389568773461107 29.343295824613296 14.124399519764726 1 rotate no_reflect no_shear #
shell $-1 $-1 $-1 $48 $-1 $12 #
shell $-1 $-1 $-1 $49 $-1 $14 #
shell $-1 $-1 $-1 $50 $-1 $16 #
shell $-1 $-1 $-1 $51 $-1 $18 #
shell $-1 $-1 $-1 $52 $-1 $20 #
shell $-1 $-1 $-1 $53 $-1 $22 #
shell $-1 $-1 $-1 $54 $-1 $24 #
shell $-1 $-1 $-1 $55 $-1 $26 #
shell $-1 $-1 $-1 $56 $-1 $28 #
shell $-1 $-1 $-1 $57 $-1 $30 #
shell $-1 $-1 $-1 $58 $-1 $32 #
shell $-1 $-1 $-1 $59 $-1 $34 #
face $-1 $60 $61 $36 $-1 $62 forward single #
face $-1 $63 $64 $37 $-1 $65 forward single #
face $-1 $66 $67 $38 $-1 $68 forward single #
face $-1 $69 $70 $39 $-1 $71 reversed single #
face $-1 $72 $73 $40 $-1 $74 forward single #
face $-1 $75 $76 $41 $-1 $77 forward single #
face $-1 $78 $79 $42 $-1 $80 reversed single #
face $-1 $81 $82 $43 $-1 $83 forward single #
face $-1 $84 $85 $44 $-1 $86 forward single #
face $-1 $87 $88 $45 $-1 $89 reversed single #
face $-1 $90 $91 $46 $-1 $92 forward single #
face $-1 $93 $94 $47 $-1 $95 forward single #
face $-1 $96 $97 $36 $-1 $98 reversed single #
loop $-1 $-1 $99 $48 #
plane-surface $-1 0 0 14.124399519764726 0 0 1 1 0 0 forward_v I I I I #
face $-1 $100 $101 $37 $-1 $102 reversed single #
loop $-1 $-1 $103 $49 #
plane-surface $-1 -40.019266634937786 0 -4.9479030568400768 0 0 1 1 0 0 forward_v I I I I #
face $-1 $104 $105 $38 $-1 $106 reversed single #
loop $-1 $-1 $107 $50 #
plane-surface $-1 40.019266634937779 0 -4.9479030568400768 0 0 1 1 0 0 forward_v I I I I #
face $-1 $108 $109 $39 $-1 $110 reversed single #
loop $-1 $-1 $111 $51 #
plane-surface $-1 -31.180619398823019 -77.448910236384251 85.295697126437815 1 0 0 0 0.52991927123019833 -0.84804809178421925 forward_v I I I I #
face $-1 $112 $113 $40 $-1 $114 forward single #
loop $-1 $115 $116 $52 #
cone-surface $-1 -26.239105956231342 -23.955993991142346 10.040772266764508 0 0.52991927123019833 -0.84804809178421925 1 0 0 1 I I 0 1 1 forward I I I I #
face $-1 $117 $118 $41 $-1 $119 forward single #
loop $-1 $120 $121 $53 #
cone-surface $-1 -18.826835792343822 -23.955993991142346 10.040772266764508 0 0.52991927123019833 -0.84804809178421925 1 0 0 1 I I 0 1 1 forward I I I I #
face $-1 $122 $123 $42 $-1 $124 reversed single #
loop $-1 $-1 $125 $54 #
plane-surface $-1 3.4683450975914418 -77.448910236384251 85.295697126437815 1 0 0 0 0.52991927123019833 -0.84804809178421925 forward_v I I I I #
face $-1 $126 $127 $43 $-1 $128 forward single #
loop $-1 $129 $130 $55 #
cone-surface $-1 8.409858540183123 -23.955993991142346 10.040772266764508 0 0.52991927123019833 -0.84804809178421925 1 0 0 1 I I 0 1 1 forward I I I I #
face $-1 $131 $132 $44 $-1 $133 forward single #
loop $-1 $134 $135 $56 #
cone-surface $-1 15.822128704070643 -23.955993991142346 10.040772266764508 0 0.52991927123019833 -0.84804809178421925 1 0 0 1 I I 0 1 1 forward I I I I #
face $-1 $136 $137 $45 $-1 $138 reversed single #
loop $-1 $-1 $139 $57 #
plane-surface $-1 3.9127378861821285 33.338829486804514 112.29814732451143 -1 0 0 0 0.57357644374324357 0.81915203911291934 forward_v I I I I #
face $-1 $140 $141 $46 $-1 $142 forward single #
loop $-1 $143 $144 $58 #
cone-surface $-1 -10.082713171717202 21.216019703069101 7.637204886742686 0 -0.57357644374324357 -0.81915203911291934 1.5 0 0 1 I I 0 1 1.5 forward I I I I #
face $-1 $145 $146 $47 $-1 $147 forward single #
loop $-1 $148 $149 $59 #
cone-surface $-1 -1.6854425369776038 21.216019703069101 7.637204886742686 0 -0.57357644374324357 -0.81915203911291934 1.5 0 0 1 I I 0 1 1.5 forward I I I I #
face $-1 $150 $151 $36 $-1 $152 reversed single #
loop $-1 $-1 $153 $60 #
plane-surface $-1 0 0 -14.124399519764726 0 0 1 1 0 0 forward_v I I I I #
coedge $-1 $154 $155 $156 $157 forward $61 $-1 #
face $-1 $158 $159 $37 $-1 $160 reversed single #
loop $-1 $-1 $161 $63 #
plane-surface $-1 -40.019266634937786 0 -12.11299579335649 0 0 1 1 0 0 forward_v I I I I #
coedge $-1 $162 $163 $164 $165 forward $64 $-1 #
face $-1 $166 $167 $38 $-1 $168 reversed single #
loop $-1 $-1 $169 $66 #
plane-surface $-1 40.019266634937779 0 -12.11299579335649 0 0 1 1 0 0 forward_v I I I I #
coedge $-1 $170 $171 $172 $173 reversed $67 $-1 #
face $-1 $174 $175 $39 $-1 $176 reversed single #
loop $-1 $-1 $177 $69 #
plane-surface $-1 -22.532970874287582 -29.3432958246133 8.3106227559532613 0 -0.52991927123019833 0.84804809178421925 1 0 0 forward_v I I I I #
coedge $-1 $178 $179 $180 $181 reversed $70 $-1 #
face $-1 $-1 $182 $40 $-1 $183 forward single #
loop $-1 $184 $185 $72 #
cone-surface $-1 -26.239105956231342 -22.955726286280033 8.4400093497779096 0 0.52991927123019833 -0.84804809178421925 0.5 0 0 1 I I -0.70710678118654746 0.70710678118654746 0.5 forward I I I I #
loop $-1 $-1 $186 $52 #
coedge $-1 $116 $116 $187 $188 reversed $73 $-1 #
face $-1 $-1 $189 $41 $-1 $190 forward single #
loop $-1 $191 $192 $75 #
cone-surface $-1 -18.826835792343822 -22.955726286280033 8.4400093497779096 0 0.52991927123019833 -0.84804809178421925 0.5 0 0 1 I I -0.70710678118654746 0.70710678118654746 0.5 forward I I I I #
loop $-1 $-1 $193 $53 #
coedge $-1 $121 $121 $194 $195 reversed $76 $-1 #
face $-1 $196 $197 $42 $-1 $198 reversed single #
loop $-1 $-1 $199 $78 #
plane-surface $-1 12.115993622126879 -29.3432958246133 8.3106227559532613 0 -0.52991927123019833 0.84804809178421925 1 0 0 forward_v I I I I #
coedge $-1 $200 $201 $202 $203 reversed $79 $-1 #
face $-1 $-1 $204 $43 $-1 $205 forward single #
loop $-1 $206 $207 $81 #
cone-surface $-1 8.409858540183123 -22.955726286280033 8.4400093497779096 0 0.52991927123019833 -0.84804809178421925 0.5 0 0 1 I I -0.70710678118654746 0.70710678118654746 0.5 forward I I I I #
loop $-1 $-1 $208 $55 #
coedge $-1 $130 $130 $209 $210 reversed $82 $-1 #
face $-1 $-1 $211 $44 $-1 $212 forward single #
loop $-1 $213 $214 $84 #
cone-surface $-1 15.822128704070643 -22.955726286280033 8.4400093497779096 0 0.52991927123019833 -0.84804809178421925 0.5 0 0 1 I I -0.70710678118654746 0.70710678118654746 0.5 forward I I I I #
loop $-1 $-1 $215 $56 #
coedge $-1 $135 $135 $216 $217 reversed $85 $-1 #
face $-1 $218 $219 $45 $-1 $220 reversed single #
loop $-1 $-1 $221 $87 #
plane-surface $-1 -5.884077854347403 -18.729945393437887 37.936231694037929 0 0.57357644374324357 0.81915203911291934 1 0 0 forward_v I I I I #
coedge $-1 $222 $223 $224 $225 reversed $88 $-1 #
face $-1 $-1 $226 $46 $-1 $227 forward single #
loop $-1 $228 $229 $90 #
cone-surface $-1 -10.082713171717202 19.691771856039818 5.4603534040370327 0 -0.57357644374324357 -0.81915203911291934 0.75 0 0 1 I I -0.70710678118654757 0.70710678118654757 0.75 forward I I I I #
loop $-1 $-1 $230 $58 #
coedge $-1 $144 $144 $231 $232 reversed $91 $-1 #
face $-1 $-1 $233 $47 $-1 $234 forward single #
loop $-1 $235 $236 $93 #
cone-surface $-1 -1.6854425369776038 19.691771856039818 5.4603534040370327 0 -0.57357644374324357 -0.81915203911291934 0.75 0 0 1 I I -0.70710678118654757 0.70710678118654757 0.75 forward I I I I #
loop $-1 $-1 $237 $59 #
coedge $-1 $149 $149 $238 $239 reversed $94 $-1 #
face $-1 $240 $241 $36 $-1 $242 reversed single #
loop $-1 $-1 $243 $96 #
plane-surface $-1 0 -29.343295824613296 0 0 1 0 0 0 1 forward_v I I I I #
coedge $-1 $244 $245 $246 $247 forward $97 $-1 #
coedge $-1 $248 $99 $249 $250 forward $61 $-1 #
coedge $-1 $99 $248 $251 $252 forward $61 $-1 #
coedge $-1 $253 $254 $99 $157 reversed $255 $-1 #
edge $-1 $256 -29.343295824613296 $257 29.343295824613296 $156 $258 forward 7 unknown #
face $-1 $259 $260 $37 $-1 $261 reversed single #
loop $-1 $-1 $262 $100 #
plane-surface $-1 -34.648964496414465 0 -8.5304494250982827 -1 0 0 0 0 1 forward_v I I I I #
coedge $-1 $263 $264 $265 $266 forward $101 $-1 #
coedge $-1 $267 $103 $268 $269 reversed $64 $-1 #
coedge $-1 $103 $267 $270 $271 reversed $64 $-1 #
coedge $-1 $262 $272 $103 $165 reversed $159 $-1 #
edge $-1 $273 -29.343295824613296 $274 29.343295824613296 $164 $275 forward 7 unknown #
face $-1 $276 $277 $38 $-1 $278 reversed single #
loop $-1 $-1 $279 $104 #
plane-surface $-1 34.648964496414457 0 -8.5304494250982827 1 0 0 0 0 -1 forward_v I I I I #
coedge $-1 $280 $281 $282 $283 reversed $105 $-1 #
coedge $-1 $284 $107 $285 $286 reversed $67 $-1 #
coedge $-1 $107 $284 $287 $288 reversed $67 $-1 #
coedge $-1 $289 $290 $107 $173 forward $291 $-1 #
edge $-1 $292 -29.343295824613296 $293 29.343295824613296 $172 $294 forward 7 unknown #
face $-1 $295 $296 $39 $-1 $297 forward single #
loop $-1 $-1 $298 $108 #
plane-surface $-1 -13.885322349752144 -77.448910236384251 85.295697126437815 -1 0 0 0 -0.52991927123019833 0.84804809178421925 forward_v I I I I #
coedge $-1 $299 $300 $301 $302 reversed $109 $-1 #
coedge $-1 $179 $111 $303 $304 reversed $70 $-1 #
coedge $-1 $111 $178 $299 $305 reversed $70 $-1 #
coedge $-1 $301 $306 $111 $181 forward $307 $-1 #
edge $-1 $308 28.523449043454182 $309 34.337225807265646 $180 $310 forward 7 unknown #
loop $-1 $-1 $187 $112 #
plane-surface $-1 -22.532970874287582 -29.3432958246133 8.3106227559532613 0 -0.52991927123019833 0.84804809178421925 1 0 0 forward_v I I I I #
loop $-1 $-1 $311 $72 #
coedge $-1 $185 $185 $186 $312 reversed $113 $-1 #
coedge $-1 $186 $186 $185 $312 forward $115 $-1 #
coedge $-1 $187 $187 $116 $188 forward $182 $-1 #
edge $-1 $313 9.4132572177975918e-016 $313 6.2831853071796013 $187 $314 forward 7 unknown #
loop $-1 $-1 $194 $117 #
plane-surface $-1 -22.532970874287582 -29.3432958246133 8.3106227559532613 0 -0.52991927123019833 0.84804809178421925 1 0 0 forward_v I I I I #
loop $-1 $-1 $315 $75 #
coedge $-1 $192 $192 $193 $316 reversed $118 $-1 #
coedge $-1 $193 $193 $192 $316 forward $120 $-1 #
coedge $-1 $194 $194 $121 $195 forward $189 $-1 #
edge $-1 $317 9.4132572177975918e-016 $317 6.2831853071796013 $194 $318 forward 7 unknown #
face $-1 $319 $320 $42 $-1 $321 reversed single #
loop $-1 $-1 $322 $122 #
plane-surface $-1 20.763642146662317 -77.448910236384251 85.295697126437815 -1 0 0 0 -0.52991927123019833 0.84804809178421925 forward_v I I I I #
coedge $-1 $323 $324 $325 $326 reversed $123 $-1 #
coedge $-1 $201 $125 $327 $328 reversed $79 $-1 #
coedge $-1 $125 $200 $323 $329 reversed $79 $-1 #
coedge $-1 $325 $330 $125 $203 forward $320 $-1 #
edge $-1 $331 28.523449043454182 $332 34.337225807265646 $202 $333 forward 7 unknown #
loop $-1 $-1 $209 $126 #
plane-surface $-1 12.115993622126879 -29.3432958246133 8.3106227559532613 0 -0.52991927123019833 0.84804809178421925 1 0 0 forward_v I I I I #
loop $-1 $-1 $334 $81 #
coedge $-1 $207 $207 $208 $335 reversed $127 $-1 #
coedge $-1 $208 $208 $207 $335 forward $129 $-1 #
coedge $-1 $209 $209 $130 $210 forward $204 $-1 #
edge $-1 $336 9.4132572177975918e-016 $336 6.2831853071796013 $209 $337 forward 7 unknown #
loop $-1 $-1 $216 $131 #
plane-surface $-1 12.115993622126879 -29.3432958246133 8.3106227559532613 0 -0.52991927123019833 0.84804809178421925 1 0 0 forward_v I I I I #
loop $-1 $-1 $338 $84 #
coedge $-1 $214 $214 $215 $339 reversed $132 $-1 #
coedge $-1 $215 $215 $214 $339 forward $134 $-1 #
coedge $-1 $216 $216 $135 $217 forward $211 $-1 #
edge $-1 $340 9.4132572177975918e-016 $340 6.2831853071796013 $216 $341 forward 7 unknown #
face $-1 $342 $343 $45 $-1 $344 reversed single #
loop $-1 $-1 $345 $136 #
plane-surface $-1 -15.680893594876935 33.338829486804514 112.29814732451143 1 0 0 0 -0.57357644374324357 -0.81915203911291934 forward_v I I I I #
coedge $-1 $346 $347 $348 $349 reversed $137 $-1 #
coedge $-1 $223 $139 $350 $351 reversed $88 $-1 #
coedge $-1 $139 $222 $346 $352 reversed $88 $-1 #
coedge $-1 $348 $353 $139 $225 forward $343 $-1 #
edge $-1 $354 42.024674142490994 $355 51.874088501793111 $224 $356 forward 7 unknown #
loop $-1 $-1 $231 $140 #
plane-surface $-1 -5.884077854347403 -18.729945393437887 37.936231694037929 0 0.57357644374324357 0.81915203911291934 1 0 0 forward_v I I I I #
loop $-1 $-1 $357 $90 #
coedge $-1 $229 $229 $230 $358 reversed $141 $-1 #
coedge $-1 $230 $230 $229 $358 forward $143 $-1 #
coedge $-1 $231 $231 $144 $232 forward $226 $-1 #
edge $-1 $359 2.9283332382551988e-016 $359 6.2831853071796004 $231 $360 forward 7 unknown #
loop $-1 $-1 $238 $145 #
plane-surface $-1 -5.884077854347403 -18.729945393437887 37.936231694037929 0 0.57357644374324357 0.81915203911291934 1 0 0 forward_v I I I I #
loop $-1 $-1 $361 $93 #
coedge $-1 $236 $236 $237 $362 reversed $146 $-1 #
coedge $-1 $237 $237 $236 $362 forward $148 $-1 #
coedge $-1 $238 $238 $149 $239 forward $233 $-1 #
edge $-1 $363 2.9283332382551988e-016 $363 6.2831853071796004 $238 $364 forward 7 unknown #
face $-1 $365 $366 $36 $-1 $367 reversed single #
loop $-1 $-1 $368 $150 #
plane-surface $-1 -45.389568773461107 0 0 1 0 0 0 0 -1 forward_v I I I I #
coedge $-1 $369 $251 $370 $371 forward $151 $-1 #
coedge $-1 $372 $153 $369 $373 forward $97 $-1 #
coedge $-1 $153 $372 $374 $375 forward $97 $-1 #
coedge $-1 $254 $253 $153 $247 reversed $255 $-1 #
edge $-1 $376 -29.343295824613296 $377 29.343295824613296 $246 $378 forward 7 unknown #
coedge $-1 $155 $154 $379 $380 forward $61 $-1 #
coedge $-1 $381 $382 $154 $250 reversed $366 $-1 #
edge $-1 $257 -45.389568773461107 $383 45.389568773461107 $249 $384 forward 7 unknown #
coedge $-1 $243 $385 $155 $252 reversed $151 $-1 #
edge $-1 $386 -45.389568773461107 $256 45.389568773461107 $251 $387 forward 7 unknown #
coedge $-1 $246 $156 $385 $388 forward $255 $-1 #
coedge $-1 $156 $246 $381 $389 reversed $255 $-1 #
loop $-1 $-1 $253 $365 #
vertex $-1 $157 $390 #
vertex $-1 $157 $391 #
straight-curve $-1 45.389568773461107 0 14.124399519764726 0 1 0 I I #
face $-1 $392 $393 $37 $-1 $394 reversed single #
loop $-1 $-1 $395 $158 #
plane-surface $-1 0 -29.343295824613296 0 0 1 0 0 0 1 forward_v I I I I #
coedge $-1 $265 $164 $396 $397 reversed $159 $-1 #
coedge $-1 $398 $161 $395 $399 reversed $101 $-1 #
coedge $-1 $161 $398 $400 $401 reversed $101 $-1 #
coedge $-1 $272 $262 $161 $266 reversed $159 $-1 #
edge $-1 $402 -29.343295824613296 $403 29.343295824613296 $265 $404 forward 7 unknown #
coedge $-1 $163 $162 $405 $406 reversed $64 $-1 #
coedge $-1 $407 $408 $162 $269 forward $409 $-1 #
edge $-1 $410 -25.379935455992214 $274 -14.639331178945572 $268 $411 forward 7 unknown #
coedge $-1 $412 $396 $163 $271 forward $260 $-1 #
edge $-1 $273 14.639331178945572 $413 25.379935455992214 $270 $414 forward 7 unknown #
coedge $-1 $164 $265 $407 $415 reversed $159 $-1 #
vertex $-1 $271 $416 #
vertex $-1 $269 $417 #
straight-curve $-1 -34.648964496414465 0 -4.9479030568400768 0 1 0 I I #
face $-1 $418 $419 $38 $-1 $420 reversed single #
loop $-1 $-1 $287 $166 #
plane-surface $-1 0 -29.343295824613296 0 0 1 0 0 0 1 forward_v I I I I #
coedge $-1 $421 $422 $423 $424 reversed $167 $-1 #
coedge $-1 $425 $169 $426 $427 reversed $105 $-1 #
coedge $-1 $169 $425 $428 $429 reversed $105 $-1 #
coedge $-1 $290 $289 $169 $283 forward $291 $-1 #
edge $-1 $430 -29.343295824613296 $431 29.343295824613296 $282 $432 forward 7 unknown #
coedge $-1 $171 $170 $422 $433 forward $67 $-1 #
coedge $-1 $434 $423 $170 $286 forward $419 $-1 #
edge $-1 $435 14.639331178945568 $292 25.379935455992211 $285 $436 forward 7 unknown #
coedge $-1 $437 $438 $171 $288 forward $277 $-1 #
edge $-1 $293 -25.379935455992211 $439 -14.639331178945568 $287 $440 forward 7 unknown #
coedge $-1 $282 $172 $438 $441 forward $291 $-1 #
coedge $-1 $172 $282 $434 $442 reversed $291 $-1 #
loop $-1 $-1 $172 $418 #
vertex $-1 $442 $443 #
vertex $-1 $441 $444 #
straight-curve $-1 45.389568773461107 0 -4.9479030568400768 0 -1 0 I I #
face $-1 $-1 $307 $39 $-1 $445 reversed single #
loop $-1 $-1 $446 $174 #
plane-surface $-1 0 0 14.124399519764726 0 0 1 1 0 0 forward_v I I I I #
coedge $-1 $447 $448 $449 $450 reversed $175 $-1 #
coedge $-1 $451 $177 $179 $305 forward $109 $-1 #
coedge $-1 $177 $451 $447 $452 forward $109 $-1 #
coedge $-1 $449 $180 $177 $302 forward $307 $-1 #
edge $-1 $309 -19.914133961679227 $453 -2.6188369126083533 $301 $454 forward 7 unknown #
coedge $-1 $455 $456 $178 $304 forward $296 $-1 #
edge $-1 $457 -18.685146822026311 $308 -9.3811592935788291 $303 $458 forward 7 unknown #
edge $-1 $309 3.9541977777422176e-015 $457 10.971061215258096 $179 $459 forward 7 unknown #
coedge $-1 $180 $449 $455 $460 reversed $307 $-1 #
loop $-1 $-1 $449 $295 #
vertex $-1 $460 $461 #
vertex $-1 $181 $462 #
straight-curve $-1 -31.180619398823019 -29.343295824613296 42.647848563218908 0 0 -1 I I #
coedge $-1 $311 $311 $-1 $463 reversed $184 $-1 #
edge $-1 $464 0 $464 6.2831853071796004 $185 $465 forward 7 unknown #
vertex $-1 $188 $466 #
ellipse-curve $-1 -26.239105956231342 -24.691302060389557 11.217511137858994 0 -0.52991927123019833 0.84804809178421925 1 0 0 1 I I #
coedge $-1 $315 $315 $-1 $467 reversed $191 $-1 #
edge $-1 $468 0 $468 6.2831853071796004 $192 $469 forward 7 unknown #
vertex $-1 $195 $470 #
ellipse-curve $-1 -18.826835792343822 -24.691302060389557 11.217511137858994 0 -0.52991927123019833 0.84804809178421925 1 0 0 1 I I #
face $-1 $-1 $471 $42 $-1 $472 forward single #
loop $-1 $-1 $202 $196 #
plane-surface $-1 0 -29.343295824613296 0 0 1 0 0 0 1 forward_v I I I I #
coedge $-1 $473 $474 $475 $476 reversed $197 $-1 #
coedge $-1 $477 $199 $201 $329 forward $123 $-1 #
coedge $-1 $199 $477 $473 $478 forward $123 $-1 #
coedge $-1 $475 $202 $199 $326 forward $320 $-1 #
edge $-1 $332 -2.5896517134719979 $479 14.705645335598877 $325 $480 forward 7 unknown #
coedge $-1 $481 $482 $200 $328 forward $471 $-1 #
edge $-1 $483 -18.685146822026311 $331 -9.3811592935788291 $327 $484 forward 7 unknown #
edge $-1 $332 3.9541977777422176e-015 $483 10.971061215258096 $201 $485 forward 7 unknown #
coedge $-1 $202 $475 $481 $486 reversed $320 $-1 #
vertex $-1 $486 $487 #
vertex $-1 $203 $488 #
straight-curve $-1 3.4683450975914418 -29.343295824613296 42.647848563218908 0 0 -1 I I #
coedge $-1 $334 $334 $-1 $489 reversed $206 $-1 #
edge $-1 $490 0 $490 6.2831853071796004 $207 $491 forward 7 unknown #
vertex $-1 $210 $492 #
ellipse-curve $-1 8.409858540183123 -24.691302060389557 11.217511137858994 0 -0.52991927123019833 0.84804809178421925 1 0 0 1 I I #
coedge $-1 $338 $338 $-1 $493 reversed $213 $-1 #
edge $-1 $494 0 $494 6.2831853071796004 $214 $495 forward 7 unknown #
vertex $-1 $217 $496 #
ellipse-curve $-1 15.822128704070643 -24.691302060389557 11.217511137858994 0 -0.52991927123019833 0.84804809178421925 1 0 0 1 I I #
face $-1 $-1 $497 $45 $-1 $498 forward single #
loop $-1 $-1 $224 $218 #
plane-surface $-1 0 29.343295824613296 0 0 -1 0 0 0 -1 forward_v I I I I #
coedge $-1 $499 $500 $501 $502 reversed $219 $-1 #
coedge $-1 $503 $221 $223 $352 forward $137 $-1 #
coedge $-1 $221 $503 $499 $504 forward $137 $-1 #
coedge $-1 $501 $224 $221 $349 forward $343 $-1 #
edge $-1 $355 -6.85477681335583 $505 12.738854667703233 $348 $506 forward 7 unknown #
coedge $-1 $507 $508 $222 $351 forward $497 $-1 #
edge $-1 $509 -1.39254013343362 $354 12.673881081211039 $350 $510 forward 7 unknown #
edge $-1 $355 -58.686591649226585 $509 -41.514661967067042 $223 $511 forward 7 unknown #
coedge $-1 $224 $501 $507 $512 reversed $343 $-1 #
vertex $-1 $512 $513 #
vertex $-1 $225 $514 #
straight-curve $-1 3.9127378861821285 29.343295824613296 56.149073662255716 0 0 -1 I I #
coedge $-1 $357 $357 $-1 $515 reversed $228 $-1 #
edge $-1 $516 0 $516 6.2831853071796004 $229 $517 forward 7 unknown #
vertex $-1 $232 $518 #
ellipse-curve $-1 -10.082713171717202 22.310085217290965 9.1996923401136659 0 0.57357644374324357 0.81915203911291934 1.5 0 0 1 I I #
coedge $-1 $361 $361 $-1 $519 reversed $235 $-1 #
edge $-1 $520 0 $520 6.2831853071796004 $236 $521 forward 7 unknown #
vertex $-1 $239 $522 #
ellipse-curve $-1 -1.6854425369776038 22.310085217290965 9.1996923401136659 0 0.57357644374324357 0.81915203911291934 1.5 0 0 1 I I #
face $-1 $-1 $255 $36 $-1 $523 reversed single #
loop $-1 $-1 $381 $240 #
plane-surface $-1 0 29.343295824613296 0 0 -1 0 0 0 -1 forward_v I I I I #
coedge $-1 $524 $379 $382 $525 forward $241 $-1 #
coedge $-1 $385 $243 $244 $373 reversed $151 $-1 #
coedge $-1 $379 $524 $243 $371 reversed $241 $-1 #
edge $-1 $386 -14.124399519764726 $526 14.124399519764726 $370 $527 forward 7 unknown #
coedge $-1 $245 $244 $524 $528 forward $97 $-1 #
edge $-1 $377 -45.389568773461107 $526 45.389568773461107 $369 $529 forward 7 unknown #
coedge $-1 $382 $381 $245 $375 reversed $366 $-1 #
edge $-1 $530 -45.389568773461107 $376 45.389568773461107 $374 $531 forward 7 unknown #
vertex $-1 $247 $532 #
vertex $-1 $388 $533 #
straight-curve $-1 45.389568773461107 0 -14.124399519764726 0 -1 0 I I #
coedge $-1 $368 $370 $248 $380 reversed $241 $-1 #
edge $-1 $383 -29.343295824613296 $386 29.343295824613296 $379 $534 forward 7 unknown #
coedge $-1 $374 $249 $254 $389 forward $366 $-1 #
coedge $-1 $249 $374 $368 $525 reversed $366 $-1 #
vertex $-1 $250 $535 #
straight-curve $-1 0 29.343295824613296 14.124399519764726 -1 0 0 I I #
coedge $-1 $251 $369 $253 $388 reversed $151 $-1 #
vertex $-1 $380 $536 #
straight-curve $-1 0 -29.343295824613296 14.124399519764726 1 0 0 I I #
edge $-1 $256 -14.124399519764726 $377 14.124399519764726 $253 $537 forward 7 unknown #
edge $-1 $257 -14.124399519764726 $376 14.124399519764726 $254 $538 forward 7 unknown #
point $-1 45.389568773461107 -29.343295824613296 14.124399519764726 #
point $-1 45.389568773461107 29.343295824613296 14.124399519764726 #
face $-1 $-1 $409 $37 $-1 $539 reversed single #
loop $-1 $-1 $540 $259 #
plane-surface $-1 -45.389568773461107 0 0 1 0 0 0 0 -1 forward_v I I I I #
coedge $-1 $396 $412 $263 $399 forward $260 $-1 #
coedge $-1 $270 $395 $262 $397 forward $260 $-1 #
edge $-1 $403 -7.8477710808073482 $273 -0.68267834429093543 $396 $541 forward 7 unknown #
coedge $-1 $264 $263 $540 $542 reversed $101 $-1 #
edge $-1 $543 -25.379935455992214 $403 -14.639331178945572 $395 $544 forward 7 unknown #
coedge $-1 $408 $407 $264 $401 forward $409 $-1 #
edge $-1 $402 14.639331178945572 $545 25.379935455992214 $400 $546 forward 7 unknown #
vertex $-1 $401 $547 #
vertex $-1 $399 $548 #
straight-curve $-1 -34.648964496414465 0 -12.11299579335649 0 -1 0 I I #
coedge $-1 $549 $550 $267 $406 forward $393 $-1 #
edge $-1 $413 -29.343295824613296 $410 29.343295824613296 $405 $551 forward 7 unknown #
coedge $-1 $400 $268 $272 $415 forward $409 $-1 #
coedge $-1 $268 $400 $549 $552 reversed $409 $-1 #
loop $-1 $-1 $400 $392 #
vertex $-1 $552 $553 #
straight-curve $-1 -20.009633317468893 29.343295824613296 -4.9479030568400768 1 0 0 I I #
coedge $-1 $395 $270 $550 $554 forward $260 $-1 #
vertex $-1 $554 $555 #
straight-curve $-1 -20.009633317468893 -29.343295824613296 -4.9479030568400768 -1 0 0 I I #
edge $-1 $274 0.68267834429093543 $402 7.8477710808073482 $407 $556 forward 7 unknown #
point $-1 -34.648964496414465 -29.343295824613296 -4.9479030568400768 #
point $-1 -34.648964496414465 29.343295824613296 -4.9479030568400768 #
face $-1 $-1 $291 $38 $-1 $557 reversed single #
loop $-1 $-1 $285 $276 #
plane-surface $-1 0 29.343295824613296 0 0 -1 0 0 0 -1 forward_v I I I I #
coedge $-1 $558 $279 $425 $559 reversed $167 $-1 #
coedge $-1 $279 $558 $284 $433 reversed $167 $-1 #
coedge $-1 $285 $428 $279 $424 forward $419 $-1 #
edge $-1 $560 -7.8477710808073482 $435 -0.68267834429093543 $423 $561 forward 7 unknown #
coedge $-1 $281 $280 $421 $559 forward $105 $-1 #
coedge $-1 $438 $437 $280 $427 forward $277 $-1 #
edge $-1 $562 14.639331178945568 $430 25.379935455992211 $426 $563 forward 7 unknown #
coedge $-1 $423 $434 $281 $429 forward $419 $-1 #
edge $-1 $431 -25.379935455992211 $560 -14.639331178945568 $428 $564 forward 7 unknown #
vertex $-1 $283 $565 #
vertex $-1 $283 $566 #
straight-curve $-1 45.389568773461107 0 -12.11299579335649 0 1 0 I I #
edge $-1 $435 -29.343295824613296 $439 29.343295824613296 $422 $567 forward 7 unknown #
coedge $-1 $428 $285 $290 $442 forward $419 $-1 #
vertex $-1 $286 $568 #
straight-curve $-1 20.009633317468889 29.343295824613296 -4.9479030568400768 1 0 0 I I #
coedge $-1 $426 $287 $558 $569 forward $277 $-1 #
coedge $-1 $287 $426 $289 $441 reversed $277 $-1 #
vertex $-1 $288 $570 #
straight-curve $-1 20.009633317468889 -29.343295824613296 -4.9479030568400768 -1 0 0 I I #
edge $-1 $293 4.9479030568400768 $430 12.11299579335649 $289 $571 forward 7 unknown #
edge $-1 $292 4.9479030568400768 $431 12.11299579335649 $290 $572 forward 7 unknown #
point $-1 45.3895687734611 29.343295824613296 -4.9479030568400768 #
point $-1 45.3895687734611 -29.343295824613296 -4.9479030568400768 #
plane-surface $-1 0 -29.343295824613296 0 0 1 0 0 0 1 forward_v I I I I #
coedge $-1 $456 $455 $448 $573 forward $296 $-1 #
coedge $-1 $448 $298 $300 $452 reversed $175 $-1 #
coedge $-1 $298 $447 $446 $573 reversed $175 $-1 #
coedge $-1 $306 $301 $298 $450 forward $307 $-1 #
edge $-1 $453 -34.337225807265646 $574 -28.523449043454182 $449 $575 forward 7 unknown #
coedge $-1 $300 $299 $456 $576 reversed $109 $-1 #
edge $-1 $577 -10.971061215258096 $453 -3.9541977777422176e-015 $447 $578 forward 7 unknown #
vertex $-1 $302 $579 #
straight-curve $-1 -11.266485437143791 -29.343295824613296 8.3106227559532648 1 0 0 I I #
coedge $-1 $446 $303 $306 $460 forward $296 $-1 #
coedge $-1 $303 $446 $451 $576 forward $296 $-1 #
vertex $-1 $304 $580 #
straight-curve $-1 -31.180619398823019 -38.724455118192125 14.124399519764729 0 -1 0 I I #
straight-curve $-1 -31.180619398823019 -29.3432958246133 8.3106227559532613 0 0.84804809178421925 0.52991927123019833 I I #
edge $-1 $308 -31.180619398823019 $574 -13.885322349752144 $306 $581 forward 7 unknown #
point $-1 -31.180619398823019 -29.343295824613296 14.124399519764726 #
point $-1 -31.180619398823019 -29.343295824613296 8.3106227559532631 #
edge $-1 $582 1 $582 0 $311 $-1 forward 7 unknown #
vertex $-1 $312 $583 #
ellipse-curve $-1 -26.239105956231342 -23.220685921895132 8.8640333956700186 0 -0.52991927123019833 0.84804809178421925 1 0 0 1 I I #
point $-1 -25.239105956231342 -24.691302060389557 11.217511137858995 #
edge $-1 $584 1 $584 0 $315 $-1 forward 7 unknown #
vertex $-1 $316 $585 #
ellipse-curve $-1 -18.826835792343822 -23.220685921895132 8.8640333956700186 0 -0.52991927123019833 0.84804809178421925 1 0 0 1 I I #
point $-1 -17.826835792343822 -24.691302060389557 11.217511137858995 #
loop $-1 $-1 $327 $319 #
plane-surface $-1 0 0 14.124399519764726 0 0 1 1 0 0 forward_v I I I I #
coedge $-1 $474 $322 $324 $478 reversed $197 $-1 #
coedge $-1 $322 $473 $586 $587 reversed $197 $-1 #
coedge $-1 $330 $325 $322 $476 forward $320 $-1 #
edge $-1 $479 -34.337225807265646 $588 -28.523449043454182 $475 $589 forward 7 unknown #
coedge $-1 $324 $323 $482 $590 reversed $123 $-1 #
edge $-1 $591 -10.971061215258096 $479 -3.9541977777422176e-015 $473 $592 forward 7 unknown #
vertex $-1 $326 $593 #
straight-curve $-1 6.0579968110634397 -29.343295824613296 8.3106227559532648 1 0 0 I I #
coedge $-1 $586 $327 $330 $486 forward $471 $-1 #
coedge $-1 $327 $586 $477 $590 forward $471 $-1 #
vertex $-1 $328 $594 #
straight-curve $-1 3.4683450975914418 -38.724455118192125 14.124399519764729 0 -1 0 I I #
straight-curve $-1 3.4683450975914418 -29.3432958246133 8.3106227559532613 0 0.84804809178421925 0.52991927123019833 I I #
edge $-1 $331 3.4683450975914418 $588 20.763642146662317 $330 $595 forward 7 unknown #
point $-1 3.4683450975914418 -29.343295824613296 14.124399519764726 #
point $-1 3.4683450975914418 -29.343295824613296 8.3106227559532631 #
edge $-1 $596 1 $596 0 $334 $-1 forward 7 unknown #
vertex $-1 $335 $597 #
ellipse-curve $-1 8.409858540183123 -23.220685921895132 8.8640333956700186 0 -0.52991927123019833 0.84804809178421925 1 0 0 1 I I #
point $-1 9.409858540183123 -24.691302060389557 11.217511137858995 #
edge $-1 $598 1 $598 0 $338 $-1 forward 7 unknown #
vertex $-1 $339 $599 #
ellipse-curve $-1 15.822128704070643 -23.220685921895132 8.8640333956700186 0 -0.52991927123019833 0.84804809178421925 1 0 0 1 I I #
point $-1 16.822128704070643 -24.691302060389557 11.217511137858995 #
loop $-1 $-1 $350 $342 #
plane-surface $-1 0 0 14.124399519764726 0 0 1 1 0 0 forward_v I I I I #
coedge $-1 $500 $345 $347 $504 reversed $219 $-1 #
coedge $-1 $345 $499 $600 $601 reversed $219 $-1 #
coedge $-1 $353 $348 $345 $502 forward $343 $-1 #
edge $-1 $505 -51.874088501793111 $602 -42.024674142490994 $501 $603 forward 7 unknown #
coedge $-1 $347 $346 $508 $604 reversed $137 $-1 #
edge $-1 $605 41.514661967067042 $505 58.686591649226585 $499 $606 forward 7 unknown #
vertex $-1 $349 $607 #
straight-curve $-1 -2.9420389271737015 29.3432958246133 4.2749851604626059 -1 0 0 I I #
coedge $-1 $600 $350 $353 $512 forward $497 $-1 #
coedge $-1 $350 $600 $503 $604 forward $497 $-1 #
vertex $-1 $351 $608 #
straight-curve $-1 3.9127378861821285 16.669414743402257 14.124399519764722 0 1 0 I I #
straight-curve $-1 3.9127378861821285 -18.729945393437887 37.936231694037929 0 -0.81915203911291934 0.57357644374324357 I I #
edge $-1 $354 -3.9127378861821285 $602 15.680893594876935 $353 $609 forward 7 unknown #
point $-1 3.9127378861821285 29.343295824613296 14.124399519764726 #
point $-1 3.9127378861821285 29.343295824613293 4.2749851604626059 #
edge $-1 $610 1 $610 0 $357 $-1 forward 7 unknown #
vertex $-1 $358 $611 #
ellipse-curve $-1 -10.082713171717202 20.121954188847251 6.0747174333717222 0 0.57357644374324357 0.81915203911291934 1.5 0 0 1 I I #
point $-1 -8.5827131717172023 22.310085217290954 9.1996923401136499 #
edge $-1 $612 1 $612 0 $361 $-1 forward 7 unknown #
vertex $-1 $362 $613 #
ellipse-curve $-1 -1.6854425369776038 20.121954188847251 6.0747174333717222 0 0.57357644374324357 0.81915203911291934 1.5 0 0 1 I I #
point $-1 -0.18544253697760382 22.310085217290954 9.1996923401136499 #
plane-surface $-1 45.389568773461107 0 0 -1 0 0 0 0 1 forward_v I I I I #
coedge $-1 $370 $368 $372 $528 reversed $241 $-1 #
edge $-1 $383 -14.124399519764726 $530 14.124399519764726 $382 $614 forward 7 unknown #
vertex $-1 $528 $615 #
straight-curve $-1 -45.389568773461107 -29.343295824613296 0 0 0 -1 I I #
edge $-1 $526 -29.343295824613296 $530 29.343295824613296 $524 $616 forward 7 unknown #
straight-curve $-1 0 -29.343295824613296 -14.124399519764726 -1 0 0 I I #
vertex $-1 $375 $617 #
straight-curve $-1 0 29.343295824613296 -14.124399519764726 1 0 0 I I #
point $-1 45.389568773461107 29.343295824613296 -14.124399519764726 #
point $-1 45.389568773461107 -29.343295824613296 -14.124399519764726 #
straight-curve $-1 -45.389568773461107 0 14.124399519764726 0 -1 0 I I #
point $-1 -45.389568773461107 29.343295824613296 14.124399519764726 #
point $-1 -45.389568773461107 -29.343295824613296 14.124399519764726 #
straight-curve $-1 45.389568773461107 -29.343295824613296 0 0 0 -1 I I #
straight-curve $-1 45.389568773461107 29.343295824613296 0 0 0 -1 I I #
plane-surface $-1 0 29.343295824613296 0 0 -1 0 0 0 -1 forward_v I I I I #
coedge $-1 $550 $549 $398 $542 forward $393 $-1 #
straight-curve $-1 -34.648964496414465 -29.343295824613296 -4.2652247125491414 0 0 1 I I #
edge $-1 $545 -29.343295824613296 $543 29.343295824613296 $540 $618 forward 7 unknown #
vertex $-1 $399 $619 #
straight-curve $-1 -20.009633317468893 -29.343295824613296 -12.11299579335649 1 0 0 I I #
vertex $-1 $401 $620 #
straight-curve $-1 -20.009633317468893 29.343295824613296 -12.11299579335649 -1 0 0 I I #
point $-1 -34.648964496414465 29.343295824613296 -12.11299579335649 #
point $-1 -34.648964496414465 -29.343295824613296 -12.11299579335649 #
coedge $-1 $540 $405 $408 $552 forward $393 $-1 #
coedge $-1 $405 $540 $412 $554 reversed $393 $-1 #
straight-curve $-1 -45.389568773461107 0 -4.9479030568400768 0 1 0 I I #
edge $-1 $410 4.9479030568400768 $545 12.11299579335649 $408 $621 forward 7 unknown #
point $-1 -45.389568773461107 29.343295824613296 -4.9479030568400768 #
edge $-1 $413 4.9479030568400768 $543 12.11299579335649 $550 $622 forward 7 unknown #
point $-1 -45.389568773461107 -29.343295824613296 -4.9479030568400768 #
straight-curve $-1 -34.648964496414465 29.343295824613296 -4.2652247125491414 0 0 -1 I I #
plane-surface $-1 45.389568773461107 0 0 -1 0 0 0 0 1 forward_v I I I I #
coedge $-1 $422 $421 $437 $569 reversed $167 $-1 #
edge $-1 $562 -29.343295824613296 $560 29.343295824613296 $421 $623 forward 7 unknown #
vertex $-1 $429 $624 #
straight-curve $-1 34.648964496414457 29.343295824613296 -4.2652247125491414 0 0 1 I I #
vertex $-1 $427 $625 #
straight-curve $-1 20.009633317468889 -29.343295824613296 -12.11299579335649 1 0 0 I I #
straight-curve $-1 20.009633317468889 29.343295824613296 -12.11299579335649 -1 0 0 I I #
point $-1 45.3895687734611 -29.343295824613296 -12.11299579335649 #
point $-1 45.3895687734611 29.343295824613296 -12.11299579335649 #
straight-curve $-1 34.648964496414457 0 -4.9479030568400768 0 -1 0 I I #
point $-1 34.648964496414457 29.343295824613296 -4.9479030568400768 #
edge $-1 $439 0.68267834429093543 $562 7.8477710808073482 $437 $626 forward 7 unknown #
point $-1 34.648964496414457 -29.343295824613296 -4.9479030568400768 #
straight-curve $-1 45.389568773461107 -29.343295824613296 0 0 0 -1 I I #
straight-curve $-1 45.389568773461107 29.343295824613296 0 0 0 -1 I I #
edge $-1 $574 9.3811592935788291 $577 18.685146822026311 $446 $627 forward 7 unknown #
vertex $-1 $573 $628 #
straight-curve $-1 -13.885322349752144 -29.343295824613296 42.647848563218908 0 0 1 I I #
edge $-1 $577 2.6188369126083533 $457 19.914133961679227 $456 $629 forward 7 unknown #
vertex $-1 $576 $630 #
straight-curve $-1 -13.885322349752144 -29.3432958246133 8.3106227559532613 0 -0.84804809178421925 -0.52991927123019833 I I #
point $-1 -13.885322349752144 -29.343295824613296 8.3106227559532631 #
point $-1 -31.180619398823019 -20.039308296165814 14.124399519764726 #
straight-curve $-1 0 -29.343295824613296 14.124399519764726 1 0 0 I I #
vertex $-1 $463 $631 #
point $-1 -25.239105956231342 -23.220685921895132 8.8640333956700186 #
vertex $-1 $467 $632 #
point $-1 -17.826835792343822 -23.220685921895132 8.8640333956700186 #
coedge $-1 $482 $481 $474 $587 forward $471 $-1 #
edge $-1 $588 9.3811592935788291 $591 18.685146822026311 $586 $633 forward 7 unknown #
vertex $-1 $587 $634 #
straight-curve $-1 20.763642146662317 -29.343295824613296 42.647848563218908 0 0 1 I I #
edge $-1 $591 -14.705645335598877 $483 2.5896517134719979 $482 $635 forward 7 unknown #
vertex $-1 $590 $636 #
straight-curve $-1 20.763642146662317 -29.3432958246133 8.3106227559532613 0 -0.84804809178421925 -0.52991927123019833 I I #
point $-1 20.763642146662317 -29.343295824613296 8.3106227559532631 #
point $-1 3.4683450975914418 -20.039308296165814 14.124399519764726 #
straight-curve $-1 0 -29.343295824613296 14.124399519764726 1 0 0 I I #
vertex $-1 $489 $637 #
point $-1 9.409858540183123 -23.220685921895132 8.8640333956700186 #
vertex $-1 $493 $638 #
point $-1 16.822128704070643 -23.220685921895132 8.8640333956700186 #
coedge $-1 $508 $507 $500 $601 forward $497 $-1 #
edge $-1 $602 -12.673881081211039 $605 1.39254013343362 $600 $639 forward 7 unknown #
vertex $-1 $601 $640 #
straight-curve $-1 -15.680893594876935 29.343295824613296 56.149073662255716 0 0 1 I I #
edge $-1 $605 -12.738854667703233 $509 6.85477681335583 $508 $641 forward 7 unknown #
vertex $-1 $604 $642 #
straight-curve $-1 -15.680893594876935 -18.729945393437887 37.936231694037929 0 0.81915203911291934 -0.57357644374324357 I I #
point $-1 -15.680893594876935 29.343295824613293 4.2749851604626059 #
point $-1 3.9127378861821285 15.276874609968637 14.124399519764726 #
straight-curve $-1 0 29.343295824613296 14.124399519764726 -1 0 0 I I #
vertex $-1 $515 $643 #
point $-1 -8.5827131717172023 20.121954188847251 6.0747174333717222 #
vertex $-1 $519 $644 #
point $-1 -0.18544253697760382 20.121954188847251 6.0747174333717222 #
straight-curve $-1 -45.389568773461107 29.343295824613296 0 0 0 -1 I I #
point $-1 -45.389568773461107 -29.343295824613296 -14.124399519764726 #
straight-curve $-1 -45.389568773461107 0 -14.124399519764726 0 1 0 I I #
point $-1 -45.389568773461107 29.343295824613296 -14.124399519764726 #
straight-curve $-1 -45.389568773461107 0 -12.11299579335649 0 -1 0 I I #
point $-1 -45.389568773461107 -29.343295824613296 -12.11299579335649 #
point $-1 -45.389568773461107 29.343295824613296 -12.11299579335649 #
straight-curve $-1 -45.389568773461107 29.343295824613296 0 0 0 -1 I I #
straight-curve $-1 -45.389568773461107 -29.343295824613296 0 0 0 -1 I I #
straight-curve $-1 34.648964496414457 0 -12.11299579335649 0 1 0 I I #
point $-1 34.648964496414457 29.343295824613296 -12.11299579335649 #
point $-1 34.648964496414457 -29.343295824613296 -12.11299579335649 #
straight-curve $-1 34.648964496414457 -29.343295824613296 -4.2652247125491414 0 0 -1 I I #
straight-curve $-1 -13.885322349752144 -38.724455118192125 14.124399519764729 0 1 0 I I #
point $-1 -13.885322349752144 -29.343295824613296 14.124399519764726 #
straight-curve $-1 -11.266485437143791 -20.039308296165817 14.124399519764726 -1 0 0 I I #
point $-1 -13.885322349752144 -20.039308296165814 14.124399519764726 #
point $-1 -26.239105956231342 -22.690766650664933 8.0159853038858007 #
point $-1 -18.826835792343822 -22.690766650664933 8.0159853038858007 #
straight-curve $-1 20.763642146662317 -38.724455118192125 14.124399519764729 0 1 0 I I #
point $-1 20.763642146662317 -29.343295824613296 14.124399519764726 #
straight-curve $-1 6.0579968110634397 -20.039308296165817 14.124399519764726 -1 0 0 I I #
point $-1 20.763642146662317 -20.039308296165814 14.124399519764726 #
point $-1 8.409858540183123 -22.690766650664933 8.0159853038858007 #
point $-1 15.822128704070643 -22.690766650664933 8.0159853038858007 #
straight-curve $-1 -15.680893594876935 16.669414743402257 14.124399519764722 0 -1 0 I I #
point $-1 -15.680893594876935 29.343295824613296 14.124399519764726 #
straight-curve $-1 -2.9420389271737015 15.276874609968639 14.124399519764729 1 0 0 I I #
point $-1 -15.680893594876935 15.276874609968637 14.124399519764726 #
point $-1 -10.082713171717202 19.261589523232384 4.8459893747023433 #
point $-1 -1.6854425369776038 19.261589523232384 4.8459893747023433 #
End-of-ACIS-data 