500 0 9 0           
7 Unknown 11 ACIS 5.0 NT 24 Fri Mar 26 20:36:11 1999 
-1 9.9999999999999995e-007 1e-010 
body $-1 $9 $-1 $10 #
body $-1 $11 $-1 $12 #
body $-1 $13 $-1 $14 #
body $-1 $15 $-1 $16 #
body $-1 $17 $-1 $18 #
body $-1 $19 $-1 $20 #
body $-1 $21 $-1 $22 #
body $-1 $23 $-1 $24 #
body $-1 $25 $-1 $26 #
lump $-1 $-1 $27 $0 #
transform $-1 1 0 0 0 1 0 0 0 1 73.395794549394211 34.181783623238793 7.2898258045458855 1 rotate no_reflect no_shear #
lump $-1 $-1 $28 $1 #
transform $-1 1 0 0 0 1 0 0 0 1 73.395794549394211 34.181783623238793 7.2898258045458855 1 rotate no_reflect no_shear #
lump $-1 $-1 $29 $2 #
transform $-1 1 0 0 0 1 0 0 0 1 73.395794549394211 34.181783623238793 7.2898258045458855 1 rotate no_reflect no_shear #
lump $-1 $-1 $30 $3 #
transform $-1 1 0 0 0 1 0 0 0 1 73.395794549394211 34.181783623238793 7.2898258045458855 1 rotate no_reflect no_shear #
lump $-1 $-1 $31 $4 #
transform $-1 1 0 0 0 1 0 0 0 1 73.395794549394211 34.181783623238793 7.2898258045458855 1 rotate no_reflect no_shear #
lump $-1 $-1 $32 $5 #
transform $-1 1 0 0 0 1 0 0 0 1 73.395794549394211 34.181783623238793 7.2898258045458855 1 rotate no_reflect no_shear #
lump $-1 $-1 $33 $6 #
transform $-1 1 0 0 0 1 0 0 0 1 73.395794549394211 34.181783623238793 7.2898258045458855 1 rotate no_reflect no_shear #
lump $-1 $-1 $34 $7 #
transform $-1 1 0 0 0 1 0 0 0 1 73.395794549394211 34.181783623238793 7.2898258045458855 1 rotate no_reflect no_shear #
lump $-1 $-1 $35 $8 #
transform $-1 1 0 0 0 1 0 0 0 1 73.395794549394211 34.181783623238793 7.2898258045458855 1 rotate no_reflect no_shear #
shell $-1 $-1 $-1 $36 $-1 $9 #
shell $-1 $-1 $-1 $37 $-1 $11 #
shell $-1 $-1 $-1 $38 $-1 $13 #
shell $-1 $-1 $-1 $39 $-1 $15 #
shell $-1 $-1 $-1 $40 $-1 $17 #
shell $-1 $-1 $-1 $41 $-1 $19 #
shell $-1 $-1 $-1 $42 $-1 $21 #
shell $-1 $-1 $-1 $43 $-1 $23 #
shell $-1 $-1 $-1 $44 $-1 $25 #
face $-1 $45 $46 $27 $-1 $47 forward single #
face $-1 $48 $49 $28 $-1 $50 reversed single #
face $-1 $51 $52 $29 $-1 $53 forward single #
face $-1 $54 $55 $30 $-1 $56 reversed single #
face $-1 $57 $58 $31 $-1 $59 forward single #
face $-1 $60 $61 $32 $-1 $62 reversed single #
face $-1 $63 $64 $33 $-1 $65 forward single #
face $-1 $66 $67 $34 $-1 $68 forward single #
face $-1 $69 $70 $35 $-1 $71 forward single #
face $-1 $72 $73 $27 $-1 $74 reversed single #
loop $-1 $-1 $75 $36 #
plane-surface $-1 0 0 7.2898258045458855 0 0 1 1 0 0 forward_v I I I I #
face $-1 $76 $77 $28 $-1 $78 reversed single #
loop $-1 $-1 $79 $37 #
plane-surface $-1 77.018823324436696 0 208.68043285979215 0 -1 0 -0.71933980857756763 0 -0.69465836192734942 forward_v I I I I #
face $-1 $80 $81 $29 $-1 $82 forward single #
loop $-1 $83 $84 $38 #
cone-surface $-1 69.098642275199296 -7.9414463721979764 2.9319636474809458 -0.71933980857756763 0 -0.69465836192734942 1.0419875428910241 0 -1.0790097128663514 1 I I 0 1 1.5 forward I I I I #
face $-1 $85 $86 $30 $-1 $87 reversed single #
loop $-1 $-1 $88 $39 #
plane-surface $-1 77.018823324436696 15.882892744395956 208.68043285979215 0 -1 0 -0.71933980857756763 0 -0.69465836192734942 forward_v I I I I #
face $-1 $89 $90 $31 $-1 $91 forward single #
loop $-1 $92 $93 $40 #
cone-surface $-1 69.098642275199296 7.94144637219798 2.9319636474809458 -0.71933980857756763 0 -0.69465836192734942 1.0419875428910241 0 -1.0790097128663514 1 I I 0 1 1.5 forward I I I I #
face $-1 $94 $95 $32 $-1 $96 reversed single #
loop $-1 $-1 $97 $41 #
plane-surface $-1 -180.75236781652814 -11.870443539231442 102.04150003319556 0 1 0 -0.73135370988377701 0 0.68199835119979291 forward_v I I I I #
face $-1 $98 $99 $33 $-1 $100 forward single #
loop $-1 $101 $102 $42 #
cone-surface $-1 -70.531001799708022 -7.9413796301182664 4.2688528755852264 0.73135370988377701 0 -0.68199835119979291 0.34099917559989645 0 0.36567685494188851 1 I I 0 1 0.5 forward I I I I #
face $-1 $103 $104 $34 $-1 $105 forward single #
loop $-1 $106 $107 $43 #
cone-surface $-1 -70.531001799708022 -2.0477837664484966 4.2688528755852264 0.73135370988377701 0 -0.68199835119979291 0.34099917559989645 0 0.36567685494188851 1 I I 0 1 0.5 forward I I I I #
face $-1 $108 $109 $35 $-1 $110 forward single #
loop $-1 $111 $112 $44 #
cone-surface $-1 -70.531001799708022 3.8458120972212697 4.2688528755852264 0.73135370988377701 0 -0.68199835119979291 0.34099917559989645 0 0.36567685494188851 1 I I 0 1 0.5 forward I I I I #
face $-1 $113 $114 $27 $-1 $115 reversed single #
loop $-1 $-1 $116 $45 #
plane-surface $-1 0 0 -7.2898258045458855 0 0 1 1 0 0 forward_v I I I I #
coedge $-1 $117 $118 $119 $120 forward $46 $-1 #
face $-1 $121 $122 $28 $-1 $123 reversed single #
loop $-1 $-1 $124 $48 #
plane-surface $-1 -28.574210278682727 -7.9414463721979764 106.71042803171522 0.71933980857756763 0 0.69465836192734942 0.69465836192734942 0 -0.71933980857756763 forward_v I I I I #
coedge $-1 $125 $126 $127 $128 reversed $49 $-1 #
face $-1 $-1 $129 $29 $-1 $130 forward single #
loop $-1 $131 $132 $51 #
cone-surface $-1 67.242308920343547 -7.9414463721979764 1.1393234069455209 -0.71933980857756763 0 -0.69465836192734942 0.52099377144551207 0 -0.53950485643317569 1 I I -0.70710678118654757 0.70710678118654757 0.75 forward I I I I #
loop $-1 $-1 $133 $38 #
coedge $-1 $84 $84 $134 $135 reversed $52 $-1 #
face $-1 $136 $137 $30 $-1 $138 reversed single #
loop $-1 $-1 $139 $54 #
plane-surface $-1 -28.574210278682727 -7.9414463721979764 106.71042803171522 0.71933980857756763 0 0.69465836192734942 0.69465836192734942 0 -0.71933980857756763 forward_v I I I I #
coedge $-1 $140 $141 $142 $143 reversed $55 $-1 #
face $-1 $-1 $144 $31 $-1 $145 forward single #
loop $-1 $146 $147 $57 #
cone-surface $-1 67.242308920343547 7.94144637219798 1.1393234069455209 -0.71933980857756763 0 -0.69465836192734942 0.52099377144551207 0 -0.53950485643317569 1 I I -0.70710678118654757 0.70710678118654757 0.75 forward I I I I #
loop $-1 $-1 $148 $40 #
coedge $-1 $93 $93 $149 $150 reversed $58 $-1 #
face $-1 $151 $152 $32 $-1 $153 reversed single #
loop $-1 $-1 $154 $60 #
plane-surface $-1 -73.395794549394225 -2.0477837664484966 1.9298782978243594 -0.73135370988377701 0 0.68199835119979291 0.68199835119979291 0 0.73135370988377701 forward_v I I I I #
coedge $-1 $155 $156 $157 $158 reversed $61 $-1 #
face $-1 $-1 $159 $33 $-1 $160 forward single #
loop $-1 $161 $162 $63 #
cone-surface $-1 -69.982486517295186 -7.9413796301182664 3.7573541121853813 0.73135370988377701 0 -0.68199835119979291 0.17049958779994823 0 0.18283842747094425 1 I I -0.70710678118654746 0.70710678118654746 0.25 forward I I I I #
loop $-1 $-1 $163 $42 #
coedge $-1 $102 $102 $164 $165 reversed $64 $-1 #
face $-1 $-1 $166 $34 $-1 $167 forward single #
loop $-1 $168 $169 $66 #
cone-surface $-1 -69.982486517295186 -2.0477837664484966 3.7573541121853813 0.73135370988377701 0 -0.68199835119979291 0.17049958779994823 0 0.18283842747094425 1 I I -0.70710678118654746 0.70710678118654746 0.25 forward I I I I #
loop $-1 $-1 $170 $43 #
coedge $-1 $107 $107 $171 $172 reversed $67 $-1 #
face $-1 $-1 $173 $35 $-1 $174 forward single #
loop $-1 $175 $176 $69 #
cone-surface $-1 -69.982486517295186 3.8458120972212697 3.7573541121853813 0.73135370988377701 0 -0.68199835119979291 0.17049958779994823 0 0.18283842747094425 1 I I -0.70710678118654746 0.70710678118654746 0.25 forward I I I I #
loop $-1 $-1 $177 $44 #
coedge $-1 $112 $112 $178 $179 reversed $70 $-1 #
face $-1 $180 $181 $27 $-1 $182 reversed single #
loop $-1 $-1 $183 $72 #
plane-surface $-1 0 -34.181783623238793 0 0 1 0 0 0 1 forward_v I I I I #
coedge $-1 $184 $185 $186 $187 forward $73 $-1 #
coedge $-1 $188 $75 $189 $190 forward $46 $-1 #
coedge $-1 $75 $188 $191 $192 forward $46 $-1 #
coedge $-1 $193 $194 $75 $120 reversed $195 $-1 #
edge $-1 $196 -34.181783623238793 $197 34.181783623238793 $119 $198 forward 7 unknown #
face $-1 $199 $200 $28 $-1 $201 forward single #
loop $-1 $-1 $202 $76 #
plane-surface $-1 77.018823324436696 -15.882892744395953 208.68043285979215 0 1 0 0.71933980857756763 0 0.69465836192734942 forward_v I I I I #
coedge $-1 $203 $204 $205 $206 reversed $77 $-1 #
coedge $-1 $126 $79 $207 $208 reversed $49 $-1 #
coedge $-1 $79 $125 $203 $209 reversed $49 $-1 #
coedge $-1 $205 $210 $79 $128 forward $200 $-1 #
edge $-1 $211 -34.886382887175863 $212 -28.925735335631224 $127 $213 forward 7 unknown #
loop $-1 $-1 $134 $80 #
plane-surface $-1 -28.574210278682727 -7.9414463721979764 106.71042803171522 0.71933980857756763 0 0.69465836192734942 0.69465836192734942 0 -0.71933980857756763 forward_v I I I I #
loop $-1 $-1 $214 $51 #
coedge $-1 $132 $132 $133 $215 reversed $81 $-1 #
coedge $-1 $133 $133 $132 $215 forward $83 $-1 #
coedge $-1 $134 $134 $84 $135 forward $129 $-1 #
edge $-1 $216 0 $216 6.2831853071796004 $134 $217 forward 7 unknown #
face $-1 $218 $219 $30 $-1 $220 forward single #
loop $-1 $-1 $221 $85 #
plane-surface $-1 73.395794549394211 0 0 -1 0 0 0 0 1 forward_v I I I I #
coedge $-1 $222 $223 $224 $225 reversed $86 $-1 #
coedge $-1 $141 $88 $226 $227 reversed $55 $-1 #
coedge $-1 $88 $140 $228 $229 reversed $55 $-1 #
coedge $-1 $230 $221 $88 $143 forward $137 $-1 #
edge $-1 $231 -103.2228220013003 $232 -97.05039062535019 $142 $233 forward 7 unknown #
loop $-1 $-1 $149 $89 #
plane-surface $-1 -28.574210278682727 -7.9414463721979764 106.71042803171522 0.71933980857756763 0 0.69465836192734942 0.69465836192734942 0 -0.71933980857756763 forward_v I I I I #
loop $-1 $-1 $234 $57 #
coedge $-1 $147 $147 $148 $235 reversed $90 $-1 #
coedge $-1 $148 $148 $147 $235 forward $92 $-1 #
coedge $-1 $149 $149 $93 $150 forward $144 $-1 #
edge $-1 $236 0 $236 6.2831853071796004 $149 $237 forward 7 unknown #
face $-1 $238 $239 $32 $-1 $240 reversed single #
loop $-1 $-1 $241 $94 #
plane-surface $-1 -180.75236781652814 7.7748760063344484 102.04150003319556 0 -1 0 0.73135370988377701 0 -0.68199835119979291 forward_v I I I I #
coedge $-1 $242 $243 $244 $245 reversed $95 $-1 #
coedge $-1 $156 $97 $246 $247 reversed $61 $-1 #
coedge $-1 $97 $155 $242 $248 reversed $61 $-1 #
coedge $-1 $244 $249 $97 $158 forward $250 $-1 #
edge $-1 $251 16.980389358869857 $252 21.978621148358457 $157 $253 forward 7 unknown #
loop $-1 $-1 $164 $98 #
plane-surface $-1 -73.395794549394225 -2.0477837664484966 1.9298782978243594 -0.73135370988377701 0 0.68199835119979291 0.68199835119979291 0 0.73135370988377701 forward_v I I I I #
loop $-1 $-1 $254 $63 #
coedge $-1 $162 $162 $163 $255 reversed $99 $-1 #
coedge $-1 $163 $163 $162 $255 forward $101 $-1 #
coedge $-1 $164 $164 $102 $165 forward $159 $-1 #
edge $-1 $256 0 $256 6.2831853071796004 $164 $257 forward 7 unknown #
loop $-1 $-1 $171 $103 #
plane-surface $-1 -73.395794549394225 -2.0477837664484966 1.9298782978243594 -0.73135370988377701 0 0.68199835119979291 0.68199835119979291 0 0.73135370988377701 forward_v I I I I #
loop $-1 $-1 $258 $66 #
coedge $-1 $169 $169 $170 $259 reversed $104 $-1 #
coedge $-1 $170 $170 $169 $259 forward $106 $-1 #
coedge $-1 $171 $171 $107 $172 forward $166 $-1 #
edge $-1 $260 0 $260 6.2831853071796004 $171 $261 forward 7 unknown #
loop $-1 $-1 $178 $108 #
plane-surface $-1 -73.395794549394225 -2.0477837664484966 1.9298782978243594 -0.73135370988377701 0 0.68199835119979291 0.68199835119979291 0 0.73135370988377701 forward_v I I I I #
loop $-1 $-1 $262 $69 #
coedge $-1 $176 $176 $177 $263 reversed $109 $-1 #
coedge $-1 $177 $177 $176 $263 forward $111 $-1 #
coedge $-1 $178 $178 $112 $179 forward $173 $-1 #
edge $-1 $264 0 $264 6.2831853071796004 $178 $265 forward 7 unknown #
face $-1 $266 $267 $27 $-1 $268 reversed single #
loop $-1 $-1 $269 $113 #
plane-surface $-1 -73.395794549394211 0 0 1 0 0 0 0 -1 forward_v I I I I #
coedge $-1 $270 $191 $271 $272 forward $114 $-1 #
coedge $-1 $273 $116 $270 $274 forward $73 $-1 #
coedge $-1 $116 $273 $275 $276 forward $73 $-1 #
coedge $-1 $194 $193 $116 $187 reversed $195 $-1 #
edge $-1 $277 -34.181783623238793 $278 34.181783623238793 $186 $279 forward 7 unknown #
coedge $-1 $118 $117 $280 $281 forward $46 $-1 #
coedge $-1 $282 $283 $117 $190 reversed $267 $-1 #
edge $-1 $197 -73.395794549394211 $284 73.395794549394211 $189 $285 forward 7 unknown #
coedge $-1 $183 $286 $118 $192 reversed $114 $-1 #
edge $-1 $287 -73.395794549394211 $196 73.395794549394211 $191 $288 forward 7 unknown #
coedge $-1 $186 $119 $286 $289 forward $195 $-1 #
coedge $-1 $119 $186 $282 $290 reversed $195 $-1 #
loop $-1 $-1 $193 $266 #
vertex $-1 $120 $291 #
vertex $-1 $120 $292 #
straight-curve $-1 73.395794549394211 0 7.2898258045458855 0 1 0 I I #
face $-1 $-1 $293 $28 $-1 $294 reversed single #
loop $-1 $-1 $127 $121 #
plane-surface $-1 0 0 7.2898258045458855 0 0 1 1 0 0 forward_v I I I I #
coedge $-1 $295 $296 $297 $298 reversed $122 $-1 #
coedge $-1 $299 $124 $126 $209 forward $77 $-1 #
coedge $-1 $124 $299 $295 $300 forward $77 $-1 #
coedge $-1 $297 $127 $124 $206 forward $200 $-1 #
edge $-1 $212 -3.9707231860989882 $301 11.912169558296965 $205 $302 forward 7 unknown #
coedge $-1 $303 $304 $125 $208 forward $293 $-1 #
edge $-1 $305 -103.2228220013003 $211 -97.05039062535019 $207 $306 forward 7 unknown #
edge $-1 $212 138.21089983017208 $305 146.79158909878845 $126 $307 forward 7 unknown #
coedge $-1 $127 $297 $303 $308 forward $200 $-1 #
vertex $-1 $208 $309 #
vertex $-1 $128 $310 #
straight-curve $-1 38.509411662218348 0 7.2898258045458846 -1 0 0 I I #
coedge $-1 $214 $214 $-1 $311 reversed $131 $-1 #
edge $-1 $312 0 $312 6.2831853071796004 $132 $313 forward 7 unknown #
vertex $-1 $135 $314 #
ellipse-curve $-1 70.415470773621863 -7.9414463721979764 4.2036101165708519 0.71933980857756763 0 0.69465836192734942 1.0419875428910241 0 -1.0790097128663514 1 I I #
face $-1 $-1 $315 $30 $-1 $316 forward single #
loop $-1 $-1 $317 $136 #
plane-surface $-1 77.018823324436696 0 208.68043285979215 0 -1 0 -0.71933980857756763 0 -0.69465836192734942 forward_v I I I I #
coedge $-1 $142 $318 $223 $319 forward $137 $-1 #
coedge $-1 $226 $139 $320 $321 reversed $86 $-1 #
coedge $-1 $139 $226 $221 $319 reversed $86 $-1 #
coedge $-1 $322 $317 $139 $225 forward $219 $-1 #
edge $-1 $323 138.21089983017208 $324 146.79158909878845 $224 $325 forward 7 unknown #
coedge $-1 $223 $222 $140 $227 forward $86 $-1 #
edge $-1 $326 138.21089983017208 $231 146.79158909878845 $140 $327 forward 7 unknown #
coedge $-1 $320 $328 $141 $229 forward $315 $-1 #
edge $-1 $232 -34.886382887175863 $326 -28.925735335631224 $228 $329 forward 7 unknown #
coedge $-1 $318 $142 $328 $330 reversed $137 $-1 #
vertex $-1 $143 $331 #
vertex $-1 $143 $332 #
straight-curve $-1 73.395794549394211 15.882892744395956 104.34021642989607 0 0 1 I I #
coedge $-1 $234 $234 $-1 $333 reversed $146 $-1 #
edge $-1 $334 0 $334 6.2831853071796004 $147 $335 forward 7 unknown #
vertex $-1 $150 $336 #
ellipse-curve $-1 70.415470773621863 7.94144637219798 4.2036101165708519 0.71933980857756763 0 0.69465836192734942 1.0419875428910241 0 -1.0790097128663514 1 I I #
face $-1 $-1 $250 $32 $-1 $337 forward single #
loop $-1 $-1 $338 $151 #
plane-surface $-1 -73.395794549394211 0 0 1 0 0 0 0 -1 forward_v I I I I #
coedge $-1 $339 $340 $341 $342 reversed $152 $-1 #
coedge $-1 $343 $154 $156 $248 forward $95 $-1 #
coedge $-1 $154 $343 $339 $344 forward $95 $-1 #
coedge $-1 $341 $157 $154 $245 forward $250 $-1 #
edge $-1 $252 -10.846551656007193 $345 8.7987678895586967 $244 $346 forward 7 unknown #
coedge $-1 $347 $348 $155 $247 forward $239 $-1 #
edge $-1 $349 -49.090871718773407 $251 -43.730924212051896 $246 $350 forward 7 unknown #
edge $-1 $252 -7.3288033331687137 $349 -2.0896906529347916e-014 $156 $351 forward 7 unknown #
coedge $-1 $157 $341 $347 $352 forward $250 $-1 #
loop $-1 $-1 $341 $238 #
vertex $-1 $247 $353 #
vertex $-1 $158 $354 #
straight-curve $-1 -90.376183908264068 -11.870443539231442 7.2898258045458846 1 0 0 I I #
coedge $-1 $254 $254 $-1 $355 reversed $161 $-1 #
edge $-1 $356 0 $356 6.2831853071796004 $162 $357 forward 7 unknown #
vertex $-1 $165 $358 #
ellipse-curve $-1 -70.896678654649918 -7.9413796301182664 4.6098520511851282 -0.73135370988377701 0 0.68199835119979291 0.34099917559989645 0 0.36567685494188851 1 I I #
coedge $-1 $258 $258 $-1 $359 reversed $168 $-1 #
edge $-1 $360 0 $360 6.2831853071796004 $169 $361 forward 7 unknown #
vertex $-1 $172 $362 #
ellipse-curve $-1 -70.896678654649918 -2.0477837664484966 4.6098520511851282 -0.73135370988377701 0 0.68199835119979291 0.34099917559989645 0 0.36567685494188851 1 I I #
coedge $-1 $262 $262 $-1 $363 reversed $175 $-1 #
edge $-1 $364 0 $364 6.2831853071796004 $176 $365 forward 7 unknown #
vertex $-1 $179 $366 #
ellipse-curve $-1 -70.896678654649918 3.8458120972212697 4.6098520511851282 -0.73135370988377701 0 0.68199835119979291 0.34099917559989645 0 0.36567685494188851 1 I I #
face $-1 $-1 $195 $27 $-1 $367 reversed single #
loop $-1 $-1 $282 $180 #
plane-surface $-1 0 34.181783623238793 0 0 -1 0 0 0 -1 forward_v I I I I #
coedge $-1 $368 $280 $283 $369 forward $181 $-1 #
coedge $-1 $286 $183 $184 $274 reversed $114 $-1 #
coedge $-1 $280 $368 $183 $272 reversed $181 $-1 #
edge $-1 $287 -7.2898258045458855 $370 7.2898258045458855 $271 $371 forward 7 unknown #
coedge $-1 $185 $184 $368 $372 forward $73 $-1 #
edge $-1 $278 -73.395794549394211 $370 73.395794549394211 $270 $373 forward 7 unknown #
coedge $-1 $283 $282 $185 $276 reversed $267 $-1 #
edge $-1 $374 -73.395794549394211 $277 73.395794549394211 $275 $375 forward 7 unknown #
vertex $-1 $187 $376 #
vertex $-1 $289 $377 #
straight-curve $-1 73.395794549394211 0 -7.2898258045458855 0 -1 0 I I #
coedge $-1 $269 $271 $188 $281 reversed $181 $-1 #
edge $-1 $284 -34.181783623238793 $287 34.181783623238793 $280 $378 forward 7 unknown #
coedge $-1 $275 $189 $194 $290 forward $267 $-1 #
coedge $-1 $189 $275 $269 $369 reversed $267 $-1 #
vertex $-1 $190 $379 #
straight-curve $-1 0 34.181783623238793 7.2898258045458855 -1 0 0 I I #
coedge $-1 $191 $270 $193 $289 reversed $114 $-1 #
vertex $-1 $281 $380 #
straight-curve $-1 0 -34.181783623238793 7.2898258045458855 1 0 0 I I #
edge $-1 $196 -7.2898258045458855 $278 7.2898258045458855 $193 $381 forward 7 unknown #
edge $-1 $197 -7.2898258045458855 $277 7.2898258045458855 $194 $382 forward 7 unknown #
point $-1 73.395794549394211 -34.181783623238793 7.2898258045458855 #
point $-1 73.395794549394211 34.181783623238793 7.2898258045458855 #
loop $-1 $-1 $207 $199 #
plane-surface $-1 73.395794549394211 0 0 -1 0 0 0 0 1 forward_v I I I I #
coedge $-1 $296 $202 $204 $300 reversed $122 $-1 #
coedge $-1 $202 $295 $383 $384 reversed $122 $-1 #
coedge $-1 $210 $205 $202 $298 forward $200 $-1 #
edge $-1 $301 28.925735335631224 $385 34.886382887175863 $297 $386 forward 7 unknown #
coedge $-1 $204 $203 $304 $387 reversed $77 $-1 #
edge $-1 $388 -146.79158909878845 $301 -138.21089983017208 $295 $389 forward 7 unknown #
vertex $-1 $206 $390 #
straight-curve $-1 67.435146997849571 -3.9707231860989882 7.2898258045458988 0 -1 0 I I #
coedge $-1 $383 $207 $210 $308 reversed $293 $-1 #
coedge $-1 $207 $383 $299 $387 forward $293 $-1 #
vertex $-1 $208 $391 #
straight-curve $-1 73.395794549394211 0 104.34021642989607 0 0 1 I I #
straight-curve $-1 -28.574210278682727 0 106.71042803171522 0.69465836192734942 0 -0.71933980857756763 I I #
edge $-1 $385 -15.882892744395953 $211 0 $303 $392 forward 7 unknown #
point $-1 73.395794549394211 0 7.2898258045458855 #
point $-1 67.435146997849571 0 7.2898258045458846 #
edge $-1 $393 1 $393 0 $214 $-1 forward 7 unknown #
vertex $-1 $215 $394 #
ellipse-curve $-1 67.781813776776715 -7.9414463721979764 1.6603171783910331 0.71933980857756763 0 0.69465836192734942 1.0419875428910241 0 -1.0790097128663514 1 I I #
point $-1 71.457458316512898 -7.9414463721979764 3.1246004037045072 #
loop $-1 $-1 $320 $218 #
plane-surface $-1 0 0 7.2898258045458855 0 0 1 1 0 0 forward_v I I I I #
coedge $-1 $224 $322 $395 $396 reversed $219 $-1 #
coedge $-1 $221 $230 $322 $397 forward $137 $-1 #
edge $-1 $324 3.9707231860989882 $231 19.853615930494946 $221 $398 forward 7 unknown #
coedge $-1 $395 $228 $222 $321 forward $315 $-1 #
edge $-1 $326 -19.853615930494946 $323 -3.9707231860989882 $320 $399 forward 7 unknown #
coedge $-1 $317 $224 $318 $397 reversed $219 $-1 #
vertex $-1 $321 $400 #
vertex $-1 $319 $401 #
straight-curve $-1 -28.574210278682727 0 106.71042803171522 0.69465836192734942 0 -0.71933980857756763 I I #
vertex $-1 $229 $402 #
straight-curve $-1 -28.574210278682727 15.882892744395956 106.71042803171522 0.69465836192734942 0 -0.71933980857756763 I I #
coedge $-1 $228 $395 $230 $330 forward $315 $-1 #
straight-curve $-1 38.509411662218348 15.882892744395956 7.2898258045458846 -1 0 0 I I #
edge $-1 $403 0 $232 15.882892744395956 $230 $404 forward 7 unknown #
point $-1 73.395794549394225 15.882892744395956 1.1173944285957731 #
point $-1 73.395794549394211 15.882892744395956 7.2898258045458855 #
edge $-1 $405 1 $405 0 $234 $-1 forward 7 unknown #
vertex $-1 $235 $406 #
ellipse-curve $-1 67.781813776776715 7.94144637219798 1.6603171783910331 0.71933980857756763 0 0.69465836192734942 1.0419875428910241 0 -1.0790097128663514 1 I I #
point $-1 71.457458316512898 7.94144637219798 3.1246004037045072 #
plane-surface $-1 0 0 7.2898258045458855 0 0 1 1 0 0 forward_v I I I I #
coedge $-1 $348 $347 $340 $407 forward $239 $-1 #
coedge $-1 $340 $241 $243 $344 reversed $152 $-1 #
coedge $-1 $241 $339 $338 $407 reversed $152 $-1 #
coedge $-1 $249 $244 $241 $342 forward $250 $-1 #
edge $-1 $345 -21.978621148358457 $408 -16.980389358869857 $341 $409 forward 7 unknown #
coedge $-1 $243 $242 $348 $410 reversed $95 $-1 #
edge $-1 $411 2.0896906529347916e-014 $345 7.3288033331687137 $339 $412 forward 7 unknown #
vertex $-1 $245 $413 #
straight-curve $-1 -68.397562759905625 -1.0238918832242483 7.2898258045458828 0 1 0 I I #
coedge $-1 $338 $246 $249 $352 reversed $239 $-1 #
coedge $-1 $246 $338 $343 $410 forward $239 $-1 #
vertex $-1 $247 $414 #
straight-curve $-1 -73.395794549394211 -11.870443539231442 51.020750016597781 0 0 1 I I #
straight-curve $-1 -73.395794549394225 -11.870443539231442 1.9298782978243594 -0.68199835119979291 0 -0.73135370988377701 I I #
edge $-1 $408 -7.7748760063344484 $251 11.870443539231442 $347 $415 forward 7 unknown #
point $-1 -73.395794549394211 -11.870443539231442 7.2898258045458855 #
point $-1 -68.397562759905611 -11.870443539231442 7.2898258045458855 #
edge $-1 $416 1 $416 0 $254 $-1 forward 7 unknown #
vertex $-1 $255 $417 #
ellipse-curve $-1 -70.165324944766127 -7.9413796301182664 3.9278536999853295 -0.73135370988377701 0 0.68199835119979291 0.34099917559989645 0 0.36567685494188851 1 I I #
point $-1 -70.555679479050013 -7.9413796301182664 4.9755289061270105 #
edge $-1 $418 1 $418 0 $258 $-1 forward 7 unknown #
vertex $-1 $259 $419 #
ellipse-curve $-1 -70.165324944766127 -2.0477837664484966 3.9278536999853295 -0.73135370988377701 0 0.68199835119979291 0.34099917559989645 0 0.36567685494188851 1 I I #
point $-1 -70.555679479050013 -2.0477837664484966 4.9755289061270105 #
edge $-1 $420 1 $420 0 $262 $-1 forward 7 unknown #
vertex $-1 $263 $421 #
ellipse-curve $-1 -70.165324944766127 3.8458120972212697 3.9278536999853295 -0.73135370988377701 0 0.68199835119979291 0.34099917559989645 0 0.36567685494188851 1 I I #
point $-1 -70.555679479050013 3.8458120972212697 4.9755289061270105 #
plane-surface $-1 73.395794549394211 0 0 -1 0 0 0 0 1 forward_v I I I I #
coedge $-1 $271 $269 $273 $372 reversed $181 $-1 #
edge $-1 $284 -7.2898258045458855 $374 7.2898258045458855 $283 $422 forward 7 unknown #
vertex $-1 $372 $423 #
straight-curve $-1 -73.395794549394211 -34.181783623238793 0 0 0 -1 I I #
edge $-1 $370 -34.181783623238793 $374 34.181783623238793 $368 $424 forward 7 unknown #
straight-curve $-1 0 -34.181783623238793 -7.2898258045458855 -1 0 0 I I #
vertex $-1 $276 $425 #
straight-curve $-1 0 34.181783623238793 -7.2898258045458855 1 0 0 I I #
point $-1 73.395794549394211 34.181783623238793 -7.2898258045458855 #
point $-1 73.395794549394211 -34.181783623238793 -7.2898258045458855 #
straight-curve $-1 -73.395794549394211 0 7.2898258045458855 0 -1 0 I I #
point $-1 -73.395794549394211 34.181783623238793 7.2898258045458855 #
point $-1 -73.395794549394211 -34.181783623238793 7.2898258045458855 #
straight-curve $-1 73.395794549394211 -34.181783623238793 0 0 0 -1 I I #
straight-curve $-1 73.395794549394211 34.181783623238793 0 0 0 -1 I I #
coedge $-1 $304 $303 $296 $384 forward $293 $-1 #
edge $-1 $385 97.05039062535019 $388 103.2228220013003 $383 $426 forward 7 unknown #
vertex $-1 $308 $427 #
straight-curve $-1 38.509411662218348 -15.882892744395953 7.2898258045458846 1 0 0 I I #
edge $-1 $388 -11.912169558296965 $305 3.9707231860989882 $304 $428 forward 7 unknown #
vertex $-1 $387 $429 #
straight-curve $-1 -28.574210278682727 -15.882892744395953 106.71042803171522 -0.69465836192734942 0 0.71933980857756763 I I #
point $-1 67.435146997849571 -15.882892744395953 7.2898258045458846 #
point $-1 73.395794549394225 0 1.1173944285957731 #
straight-curve $-1 73.395794549394211 0 7.2898258045458855 0 1 0 I I #
vertex $-1 $311 $430 #
point $-1 68.823801319667751 -7.9414463721979764 0.5813074655246816 #
coedge $-1 $328 $320 $317 $396 forward $315 $-1 #
edge $-1 $323 28.925735335631224 $403 34.886382887175863 $395 $431 forward 7 unknown #
edge $-1 $403 97.05039062535019 $324 103.2228220013003 $318 $432 forward 7 unknown #
straight-curve $-1 73.395794549394196 -3.9707231860989882 1.1173944285957873 0 1 0 I I #
straight-curve $-1 67.435146997849571 -3.9707231860989882 7.2898258045458988 0 -1 0 I I #
point $-1 67.435146997849571 0 7.2898258045458846 #
point $-1 73.395794549394225 0 1.1173944285957731 #
point $-1 67.435146997849571 15.882892744395956 7.2898258045458846 #
vertex $-1 $330 $433 #
straight-curve $-1 73.395794549394211 0 7.2898258045458855 0 1 0 I I #
vertex $-1 $333 $434 #
point $-1 68.823801319667751 7.94144637219798 0.5813074655246816 #
edge $-1 $408 43.730924212051896 $411 49.090871718773407 $338 $435 forward 7 unknown #
vertex $-1 $352 $436 #
straight-curve $-1 -90.376183908264068 7.7748760063344484 7.2898258045458846 -1 0 0 I I #
edge $-1 $411 -8.7987678895586967 $349 10.846551656007193 $348 $437 forward 7 unknown #
vertex $-1 $410 $438 #
straight-curve $-1 -73.395794549394225 7.7748760063344484 1.9298782978243594 0.68199835119979291 0 0.73135370988377701 I I #
point $-1 -68.397562759905611 7.7748760063344484 7.2898258045458855 #
point $-1 -73.395794549394211 -11.870443539231442 1.9298782978243747 #
straight-curve $-1 -73.395794549394211 0 7.2898258045458855 0 -1 0 I I #
vertex $-1 $355 $439 #
point $-1 -69.824325769166236 -7.9413796301182664 4.2935305549272176 #
vertex $-1 $359 $440 #
point $-1 -69.824325769166236 -2.0477837664484966 4.2935305549272176 #
vertex $-1 $363 $441 #
point $-1 -69.824325769166236 3.8458120972212697 4.2935305549272176 #
straight-curve $-1 -73.395794549394211 34.181783623238793 0 0 0 -1 I I #
point $-1 -73.395794549394211 -34.181783623238793 -7.2898258045458855 #
straight-curve $-1 -73.395794549394211 0 -7.2898258045458855 0 1 0 I I #
point $-1 -73.395794549394211 34.181783623238793 -7.2898258045458855 #
straight-curve $-1 73.395794549394211 -15.882892744395953 104.34021642989607 0 0 -1 I I #
point $-1 73.395794549394211 -15.882892744395953 7.2898258045458855 #
straight-curve $-1 73.395794549394196 -3.9707231860989882 1.1173944285957873 0 1 0 I I #
point $-1 73.395794549394225 -15.882892744395953 1.1173944285957731 #
point $-1 66.702804063910378 -7.9414463721979764 0.61832963550000886 #
straight-curve $-1 38.509411662218348 0 7.2898258045458846 1 0 0 I I #
straight-curve $-1 73.395794549394211 0 104.34021642989607 0 0 -1 I I #
point $-1 73.395794549394211 0 7.2898258045458855 #
point $-1 66.702804063910378 7.94144637219798 0.61832963550000886 #
straight-curve $-1 -73.395794549394211 7.7748760063344484 51.020750016597781 0 0 -1 I I #
point $-1 -73.395794549394211 7.7748760063344484 7.2898258045458855 #
straight-curve $-1 -73.395794549394211 -1.0238918832242483 1.9298782978243778 0 -1 0 I I #
point $-1 -73.395794549394211 7.7748760063344484 1.9298782978243747 #
point $-1 -69.799648089824245 -7.9413796301182664 3.5868545243854331 #
point $-1 -69.799648089824245 -2.0477837664484966 3.5868545243854331 #
point $-1 -69.799648089824245 3.8458120972212697 3.5868545243854331 #
End-of-ACIS-data 