500 0 15 0           
7 Unknown 11 ACIS 5.0 NT 24 Fri Mar 26 00:53:38 1999 
-1 9.9999999999999995e-007 1e-010 
body $-1 $15 $-1 $16 #
body $-1 $17 $-1 $18 #
body $-1 $19 $-1 $20 #
body $-1 $21 $-1 $22 #
body $-1 $23 $-1 $24 #
body $-1 $25 $-1 $26 #
body $-1 $27 $-1 $28 #
body $-1 $29 $-1 $30 #
body $-1 $31 $-1 $32 #
body $-1 $33 $-1 $34 #
body $-1 $35 $-1 $36 #
body $-1 $37 $-1 $38 #
body $-1 $39 $-1 $40 #
body $-1 $41 $-1 $42 #
body $-1 $43 $-1 $44 #
lump $-1 $-1 $45 $0 #
transform $-1 1 0 0 0 1 0 0 0 1 44.526505325479903 27.334058878522928 12.145958759641765 1 rotate no_reflect no_shear #
lump $-1 $-1 $46 $1 #
transform $-1 1 0 0 0 1 0 0 0 1 3.2058703428606137 -5.2917043995756066 12.145958759641765 1 rotate no_reflect no_shear #
lump $-1 $-1 $47 $2 #
transform $-1 1 0 0 0 1 0 0 0 1 1.5 61.485927197978498 12.145958759641765 1 rotate no_reflect no_shear #
lump $-1 $-1 $48 $3 #
transform $-1 0.70710677298230451 0 -0.70710678939079041 0 1 0 0.70710678939079041 0 0.70710677298230451 89.053012112184874 15.642057061724005 144.8091224196711 1 rotate no_reflect no_shear #
lump $-1 $-1 $49 $4 #
transform $-1 0.70710677298230451 0 -0.70710678939079041 0 -1 0 -0.70710678939079041 0 -0.70710677298230451 85.390488373231946 13.817125277999374 20.629395200708935 1 rotate no_reflect no_shear #
lump $-1 $-1 $50 $5 #
transform $-1 0.70710677298230451 0 -0.70710678939079041 0 -1 0 -0.70710678939079041 0 -0.70710677298230451 85.390488373231946 15.642057061724005 20.629395200708935 1 rotate no_reflect no_shear #
lump $-1 $-1 $51 $6 #
transform $-1 0.70710677298230451 0 -0.70710678939079041 0 -1 0 -0.70710678939079041 0 -0.70710677298230451 85.390488373231946 17.466988845448636 20.629395200708935 1 rotate no_reflect no_shear #
lump $-1 $-1 $52 $7 #
transform $-1 0.70710677298230451 0 -0.70710678939079041 0 1 0 0.70710678939079041 0 0.70710677298230451 89.053012112184874 25.79175375373379 144.8091224196711 1 rotate no_reflect no_shear #
lump $-1 $-1 $53 $8 #
transform $-1 0.70710677298230451 0 -0.70710678939079041 0 -1 0 -0.70710678939079041 0 -0.70710677298230451 85.390488373231946 23.966821970009157 20.629395200708935 1 rotate no_reflect no_shear #
lump $-1 $-1 $54 $9 #
transform $-1 0.70710677298230451 0 -0.70710678939079041 0 -1 0 -0.70710678939079041 0 -0.70710677298230451 85.390488373231946 25.79175375373379 20.629395200708935 1 rotate no_reflect no_shear #
lump $-1 $-1 $55 $10 #
transform $-1 0.70710677298230451 0 -0.70710678939079041 0 -1 0 -0.70710678939079041 0 -0.70710677298230451 85.390488373231946 27.616685537458423 20.629395200708935 1 rotate no_reflect no_shear #
lump $-1 $-1 $56 $11 #
transform $-1 0.70710677298230451 0 -0.70710678939079041 0 1 0 0.70710678939079041 0 0.70710677298230451 89.053012112184874 35.941450445743577 144.8091224196711 1 rotate no_reflect no_shear #
lump $-1 $-1 $57 $12 #
transform $-1 0.70710677298230451 0 -0.70710678939079041 0 -1 0 -0.70710678939079041 0 -0.70710677298230451 85.390488373231946 34.11651866201894 20.629395200708935 1 rotate no_reflect no_shear #
lump $-1 $-1 $58 $13 #
transform $-1 0.70710677298230451 0 -0.70710678939079041 0 -1 0 -0.70710678939079041 0 -0.70710677298230451 85.390488373231946 35.941450445743577 20.629395200708935 1 rotate no_reflect no_shear #
lump $-1 $-1 $59 $14 #
transform $-1 0.70710677298230451 0 -0.70710678939079041 0 -1 0 -0.70710678939079041 0 -0.70710677298230451 85.390488373231946 37.766382229468206 20.629395200708935 1 rotate no_reflect no_shear #
shell $-1 $-1 $-1 $60 $-1 $15 #
shell $-1 $-1 $-1 $61 $-1 $17 #
shell $-1 $-1 $-1 $62 $-1 $19 #
shell $-1 $-1 $-1 $63 $-1 $21 #
shell $-1 $-1 $-1 $64 $-1 $23 #
shell $-1 $-1 $-1 $65 $-1 $25 #
shell $-1 $-1 $-1 $66 $-1 $27 #
shell $-1 $-1 $-1 $67 $-1 $29 #
shell $-1 $-1 $-1 $68 $-1 $31 #
shell $-1 $-1 $-1 $69 $-1 $33 #
shell $-1 $-1 $-1 $70 $-1 $35 #
shell $-1 $-1 $-1 $71 $-1 $37 #
shell $-1 $-1 $-1 $72 $-1 $39 #
shell $-1 $-1 $-1 $73 $-1 $41 #
shell $-1 $-1 $-1 $74 $-1 $43 #
face $-1 $75 $76 $45 $-1 $77 forward single #
face $-1 $78 $79 $46 $-1 $80 forward single #
face $-1 $81 $82 $47 $-1 $83 forward single #
face $-1 $84 $85 $48 $-1 $86 forward single #
face $-1 $87 $88 $49 $-1 $89 forward single #
face $-1 $90 $91 $50 $-1 $92 forward single #
face $-1 $93 $94 $51 $-1 $95 forward single #
face $-1 $96 $97 $52 $-1 $98 forward single #
face $-1 $99 $100 $53 $-1 $101 forward single #
face $-1 $102 $103 $54 $-1 $104 forward single #
face $-1 $105 $106 $55 $-1 $107 forward single #
face $-1 $108 $109 $56 $-1 $110 forward single #
face $-1 $111 $112 $57 $-1 $113 forward single #
face $-1 $114 $115 $58 $-1 $116 forward single #
face $-1 $117 $118 $59 $-1 $119 forward single #
face $-1 $120 $121 $45 $-1 $122 reversed single #
loop $-1 $-1 $123 $60 #
plane-surface $-1 0 0 12.145958759641765 0 0 1 1 0 0 forward_v I I I I #
face $-1 $124 $125 $46 $-1 $126 reversed single #
loop $-1 $-1 $127 $61 #
plane-surface $-1 0 0 12.145958759641765 0 0 1 1 0 0 forward_v I I I I #
face $-1 $128 $129 $47 $-1 $130 reversed single #
loop $-1 $-1 $131 $62 #
plane-surface $-1 0 0 12.145958759641765 0 0 1 1 0 0 forward_v I I I I #
face $-1 $132 $133 $48 $-1 $134 reversed single #
loop $-1 $-1 $135 $63 #
plane-surface $-1 0 0 89.053010650959806 0 0 1 1 0 0 forward_v I I I I #
face $-1 $136 $137 $49 $-1 $138 forward single #
loop $-1 $139 $140 $64 #
cone-surface $-1 0 0 -0.79755546739097483 0 0 1 0.5 0 0 1 I I 0 1 0.5 forward I I I I #
face $-1 $141 $142 $50 $-1 $143 forward single #
loop $-1 $144 $145 $65 #
cone-surface $-1 0 0 -0.79755546739097483 0 0 1 0.5 0 0 1 I I 0 1 0.5 forward I I I I #
face $-1 $146 $147 $51 $-1 $148 forward single #
loop $-1 $149 $150 $66 #
cone-surface $-1 0 0 -0.79755546739097483 0 0 1 0.5 0 0 1 I I 0 1 0.5 forward I I I I #
face $-1 $151 $152 $52 $-1 $153 reversed single #
loop $-1 $-1 $154 $67 #
plane-surface $-1 0 0 89.053010650959806 0 0 1 1 0 0 forward_v I I I I #
face $-1 $155 $156 $53 $-1 $157 forward single #
loop $-1 $158 $159 $68 #
cone-surface $-1 0 0 -0.79755546739097483 0 0 1 0.5 0 0 1 I I 0 1 0.5 forward I I I I #
face $-1 $160 $161 $54 $-1 $162 forward single #
loop $-1 $163 $164 $69 #
cone-surface $-1 0 0 -0.79755546739097483 0 0 1 0.5 0 0 1 I I 0 1 0.5 forward I I I I #
face $-1 $165 $166 $55 $-1 $167 forward single #
loop $-1 $168 $169 $70 #
cone-surface $-1 0 0 -0.79755546739097483 0 0 1 0.5 0 0 1 I I 0 1 0.5 forward I I I I #
face $-1 $170 $171 $56 $-1 $172 reversed single #
loop $-1 $-1 $173 $71 #
plane-surface $-1 0 0 89.053010650959806 0 0 1 1 0 0 forward_v I I I I #
face $-1 $174 $175 $57 $-1 $176 forward single #
loop $-1 $177 $178 $72 #
cone-surface $-1 0 0 -0.79755546739097483 0 0 1 0.5 0 0 1 I I 0 1 0.5 forward I I I I #
face $-1 $179 $180 $58 $-1 $181 forward single #
loop $-1 $182 $183 $73 #
cone-surface $-1 0 0 -0.79755546739097483 0 0 1 0.5 0 0 1 I I 0 1 0.5 forward I I I I #
face $-1 $184 $185 $59 $-1 $186 forward single #
loop $-1 $187 $188 $74 #
cone-surface $-1 0 0 -0.79755546739097483 0 0 1 0.5 0 0 1 I I 0 1 0.5 forward I I I I #
face $-1 $189 $190 $45 $-1 $191 reversed single #
loop $-1 $-1 $192 $75 #
plane-surface $-1 0 0 -12.145958759641765 0 0 1 1 0 0 forward_v I I I I #
coedge $-1 $193 $194 $195 $196 forward $76 $-1 #
face $-1 $197 $198 $46 $-1 $199 reversed single #
loop $-1 $-1 $200 $78 #
plane-surface $-1 0 0 -12.145958759641765 0 0 1 1 0 0 forward_v I I I I #
coedge $-1 $201 $202 $203 $204 forward $79 $-1 #
face $-1 $205 $206 $47 $-1 $207 reversed single #
loop $-1 $-1 $208 $81 #
plane-surface $-1 0 0 -12.145958759641765 0 0 1 1 0 0 forward_v I I I I #
coedge $-1 $209 $210 $211 $212 forward $82 $-1 #
face $-1 $213 $214 $48 $-1 $215 reversed single #
loop $-1 $-1 $216 $84 #
plane-surface $-1 0 0 -89.053010650959806 0 0 1 1 0 0 forward_v I I I I #
coedge $-1 $217 $218 $219 $220 forward $85 $-1 #
face $-1 $-1 $221 $49 $-1 $222 forward single #
loop $-1 $-1 $223 $87 #
plane-surface $-1 0 0 -1.3451109347819479 0 0 -1 -1 0 0 forward_v I I I I #
loop $-1 $-1 $224 $64 #
coedge $-1 $140 $140 $223 $225 reversed $88 $-1 #
face $-1 $-1 $226 $50 $-1 $227 forward single #
loop $-1 $-1 $228 $90 #
plane-surface $-1 0 0 -1.3451109347819479 0 0 -1 -1 0 0 forward_v I I I I #
loop $-1 $-1 $229 $65 #
coedge $-1 $145 $145 $228 $230 reversed $91 $-1 #
face $-1 $-1 $231 $51 $-1 $232 forward single #
loop $-1 $-1 $233 $93 #
plane-surface $-1 0 0 -1.3451109347819479 0 0 -1 -1 0 0 forward_v I I I I #
loop $-1 $-1 $234 $66 #
coedge $-1 $150 $150 $233 $235 reversed $94 $-1 #
face $-1 $236 $237 $52 $-1 $238 reversed single #
loop $-1 $-1 $239 $96 #
plane-surface $-1 0 0 -89.053010650959806 0 0 1 1 0 0 forward_v I I I I #
coedge $-1 $240 $241 $242 $243 forward $97 $-1 #
face $-1 $-1 $244 $53 $-1 $245 forward single #
loop $-1 $-1 $246 $99 #
plane-surface $-1 0 0 -1.3451109347819479 0 0 -1 -1 0 0 forward_v I I I I #
loop $-1 $-1 $247 $68 #
coedge $-1 $159 $159 $246 $248 reversed $100 $-1 #
face $-1 $-1 $249 $54 $-1 $250 forward single #
loop $-1 $-1 $251 $102 #
plane-surface $-1 0 0 -1.3451109347819479 0 0 -1 -1 0 0 forward_v I I I I #
loop $-1 $-1 $252 $69 #
coedge $-1 $164 $164 $251 $253 reversed $103 $-1 #
face $-1 $-1 $254 $55 $-1 $255 forward single #
loop $-1 $-1 $256 $105 #
plane-surface $-1 0 0 -1.3451109347819479 0 0 -1 -1 0 0 forward_v I I I I #
loop $-1 $-1 $257 $70 #
coedge $-1 $169 $169 $256 $258 reversed $106 $-1 #
face $-1 $259 $260 $56 $-1 $261 reversed single #
loop $-1 $-1 $262 $108 #
plane-surface $-1 0 0 -89.053010650959806 0 0 1 1 0 0 forward_v I I I I #
coedge $-1 $263 $264 $265 $266 forward $109 $-1 #
face $-1 $-1 $267 $57 $-1 $268 forward single #
loop $-1 $-1 $269 $111 #
plane-surface $-1 0 0 -1.3451109347819479 0 0 -1 -1 0 0 forward_v I I I I #
loop $-1 $-1 $270 $72 #
coedge $-1 $178 $178 $269 $271 reversed $112 $-1 #
face $-1 $-1 $272 $58 $-1 $273 forward single #
loop $-1 $-1 $274 $114 #
plane-surface $-1 0 0 -1.3451109347819479 0 0 -1 -1 0 0 forward_v I I I I #
loop $-1 $-1 $275 $73 #
coedge $-1 $183 $183 $274 $276 reversed $115 $-1 #
face $-1 $-1 $277 $59 $-1 $278 forward single #
loop $-1 $-1 $279 $117 #
plane-surface $-1 0 0 -1.3451109347819479 0 0 -1 -1 0 0 forward_v I I I I #
loop $-1 $-1 $280 $74 #
coedge $-1 $188 $188 $279 $281 reversed $118 $-1 #
face $-1 $282 $283 $45 $-1 $284 reversed single #
loop $-1 $-1 $285 $120 #
plane-surface $-1 0 -27.334058878522928 0 0 1 0 0 0 1 forward_v I I I I #
coedge $-1 $286 $287 $288 $289 forward $121 $-1 #
coedge $-1 $290 $123 $291 $292 forward $76 $-1 #
coedge $-1 $123 $290 $293 $294 forward $76 $-1 #
coedge $-1 $295 $296 $123 $196 reversed $297 $-1 #
edge $-1 $298 -27.334058878522928 $299 27.334058878522928 $195 $300 forward 7 unknown #
face $-1 $301 $302 $46 $-1 $303 reversed single #
loop $-1 $-1 $304 $124 #
plane-surface $-1 0 -5.2917043995756066 0 0 1 0 0 0 1 forward_v I I I I #
coedge $-1 $305 $306 $307 $308 forward $125 $-1 #
coedge $-1 $309 $127 $310 $311 forward $79 $-1 #
coedge $-1 $127 $309 $312 $313 forward $79 $-1 #
coedge $-1 $314 $315 $127 $204 reversed $316 $-1 #
edge $-1 $317 -5.2917043995756066 $318 5.2917043995756066 $203 $319 forward 7 unknown #
face $-1 $320 $321 $47 $-1 $322 reversed single #
loop $-1 $-1 $323 $128 #
plane-surface $-1 0 -6.8178094409326384 0 0 1 0 0 0 1 forward_v I I I I #
coedge $-1 $324 $325 $326 $327 forward $129 $-1 #
coedge $-1 $328 $131 $329 $330 forward $82 $-1 #
coedge $-1 $131 $328 $331 $332 forward $82 $-1 #
coedge $-1 $333 $334 $131 $212 reversed $335 $-1 #
edge $-1 $336 -6.8178094409326384 $337 6.8178094409326384 $211 $338 forward 7 unknown #
face $-1 $339 $340 $48 $-1 $341 reversed single #
loop $-1 $-1 $342 $132 #
plane-surface $-1 0 -3.0415529728743866 0 0 1 0 0 0 1 forward_v I I I I #
coedge $-1 $343 $344 $345 $346 forward $133 $-1 #
coedge $-1 $347 $135 $348 $349 forward $85 $-1 #
coedge $-1 $135 $347 $350 $351 forward $85 $-1 #
coedge $-1 $352 $353 $135 $220 reversed $354 $-1 #
edge $-1 $355 -3.0415529728743866 $356 3.0415529728743866 $219 $357 forward 7 unknown #
loop $-1 $358 $359 $136 #
cone-surface $-1 0 0 0 0 0 1 0.25 0 0 1 I I -0.70710678118654746 0.70710678118654746 0.25 forward I I I I #
coedge $-1 $223 $223 $140 $225 forward $137 $-1 #
coedge $-1 $224 $224 $359 $360 forward $139 $-1 #
edge $-1 $361 0 $361 6.2831853071796004 $223 $362 forward 7 unknown #
loop $-1 $363 $364 $141 #
cone-surface $-1 0 0 0 0 0 1 0.25 0 0 1 I I -0.70710678118654746 0.70710678118654746 0.25 forward I I I I #
coedge $-1 $228 $228 $145 $230 forward $142 $-1 #
coedge $-1 $229 $229 $364 $365 forward $144 $-1 #
edge $-1 $366 0 $366 6.2831853071796004 $228 $367 forward 7 unknown #
loop $-1 $368 $369 $146 #
cone-surface $-1 0 0 0 0 0 1 0.25 0 0 1 I I -0.70710678118654746 0.70710678118654746 0.25 forward I I I I #
coedge $-1 $233 $233 $150 $235 forward $147 $-1 #
coedge $-1 $234 $234 $369 $370 forward $149 $-1 #
edge $-1 $371 0 $371 6.2831853071796004 $233 $372 forward 7 unknown #
face $-1 $373 $374 $52 $-1 $375 reversed single #
loop $-1 $-1 $376 $151 #
plane-surface $-1 0 -3.0415529728743866 0 0 1 0 0 0 1 forward_v I I I I #
coedge $-1 $377 $378 $379 $380 forward $152 $-1 #
coedge $-1 $381 $154 $382 $383 forward $97 $-1 #
coedge $-1 $154 $381 $384 $385 forward $97 $-1 #
coedge $-1 $386 $387 $154 $243 reversed $388 $-1 #
edge $-1 $389 -3.0415529728743866 $390 3.0415529728743866 $242 $391 forward 7 unknown #
loop $-1 $392 $393 $155 #
cone-surface $-1 0 0 0 0 0 1 0.25 0 0 1 I I -0.70710678118654746 0.70710678118654746 0.25 forward I I I I #
coedge $-1 $246 $246 $159 $248 forward $156 $-1 #
coedge $-1 $247 $247 $393 $394 forward $158 $-1 #
edge $-1 $395 0 $395 6.2831853071796004 $246 $396 forward 7 unknown #
loop $-1 $397 $398 $160 #
cone-surface $-1 0 0 0 0 0 1 0.25 0 0 1 I I -0.70710678118654746 0.70710678118654746 0.25 forward I I I I #
coedge $-1 $251 $251 $164 $253 forward $161 $-1 #
coedge $-1 $252 $252 $398 $399 forward $163 $-1 #
edge $-1 $400 0 $400 6.2831853071796004 $251 $401 forward 7 unknown #
loop $-1 $402 $403 $165 #
cone-surface $-1 0 0 0 0 0 1 0.25 0 0 1 I I -0.70710678118654746 0.70710678118654746 0.25 forward I I I I #
coedge $-1 $256 $256 $169 $258 forward $166 $-1 #
coedge $-1 $257 $257 $403 $404 forward $168 $-1 #
edge $-1 $405 0 $405 6.2831853071796004 $256 $406 forward 7 unknown #
face $-1 $407 $408 $56 $-1 $409 reversed single #
loop $-1 $-1 $410 $170 #
plane-surface $-1 0 -3.0415529728743866 0 0 1 0 0 0 1 forward_v I I I I #
coedge $-1 $411 $412 $413 $414 forward $171 $-1 #
coedge $-1 $415 $173 $416 $417 forward $109 $-1 #
coedge $-1 $173 $415 $418 $419 forward $109 $-1 #
coedge $-1 $420 $421 $173 $266 reversed $422 $-1 #
edge $-1 $423 -3.0415529728743866 $424 3.0415529728743866 $265 $425 forward 7 unknown #
loop $-1 $426 $427 $174 #
cone-surface $-1 0 0 0 0 0 1 0.25 0 0 1 I I -0.70710678118654746 0.70710678118654746 0.25 forward I I I I #
coedge $-1 $269 $269 $178 $271 forward $175 $-1 #
coedge $-1 $270 $270 $427 $428 forward $177 $-1 #
edge $-1 $429 0 $429 6.2831853071796004 $269 $430 forward 7 unknown #
loop $-1 $431 $432 $179 #
cone-surface $-1 0 0 0 0 0 1 0.25 0 0 1 I I -0.70710678118654746 0.70710678118654746 0.25 forward I I I I #
coedge $-1 $274 $274 $183 $276 forward $180 $-1 #
coedge $-1 $275 $275 $432 $433 forward $182 $-1 #
edge $-1 $434 0 $434 6.2831853071796004 $274 $435 forward 7 unknown #
loop $-1 $436 $437 $184 #
cone-surface $-1 0 0 0 0 0 1 0.25 0 0 1 I I -0.70710678118654746 0.70710678118654746 0.25 forward I I I I #
coedge $-1 $279 $279 $188 $281 forward $185 $-1 #
coedge $-1 $280 $280 $437 $438 forward $187 $-1 #
edge $-1 $439 0 $439 6.2831853071796004 $279 $440 forward 7 unknown #
face $-1 $441 $442 $45 $-1 $443 reversed single #
loop $-1 $-1 $444 $189 #
plane-surface $-1 -44.526505325479903 0 0 1 0 0 0 0 -1 forward_v I I I I #
coedge $-1 $445 $293 $446 $447 forward $190 $-1 #
coedge $-1 $448 $192 $445 $449 forward $121 $-1 #
coedge $-1 $192 $448 $450 $451 forward $121 $-1 #
coedge $-1 $296 $295 $192 $289 reversed $297 $-1 #
edge $-1 $452 -27.334058878522928 $453 27.334058878522928 $288 $454 forward 7 unknown #
coedge $-1 $194 $193 $455 $456 forward $76 $-1 #
coedge $-1 $457 $458 $193 $292 reversed $442 $-1 #
edge $-1 $299 -44.526505325479903 $459 44.526505325479903 $291 $460 forward 7 unknown #
coedge $-1 $285 $461 $194 $294 reversed $190 $-1 #
edge $-1 $462 -44.526505325479903 $298 44.526505325479903 $293 $463 forward 7 unknown #
coedge $-1 $288 $195 $461 $464 forward $297 $-1 #
coedge $-1 $195 $288 $457 $465 reversed $297 $-1 #
loop $-1 $-1 $295 $441 #
vertex $-1 $196 $466 #
vertex $-1 $196 $467 #
straight-curve $-1 44.526505325479903 0 12.145958759641765 0 1 0 I I #
face $-1 $468 $469 $46 $-1 $470 reversed single #
loop $-1 $-1 $471 $197 #
plane-surface $-1 -3.2058703428606137 0 0 1 0 0 0 0 -1 forward_v I I I I #
coedge $-1 $472 $312 $473 $474 forward $198 $-1 #
coedge $-1 $475 $200 $472 $476 forward $125 $-1 #
coedge $-1 $200 $475 $477 $478 forward $125 $-1 #
coedge $-1 $315 $314 $200 $308 reversed $316 $-1 #
edge $-1 $479 -5.2917043995756066 $480 5.2917043995756066 $307 $481 forward 7 unknown #
coedge $-1 $202 $201 $482 $483 forward $79 $-1 #
coedge $-1 $484 $485 $201 $311 reversed $469 $-1 #
edge $-1 $318 -3.2058703428606137 $486 3.2058703428606137 $310 $487 forward 7 unknown #
coedge $-1 $304 $488 $202 $313 reversed $198 $-1 #
edge $-1 $489 -3.2058703428606137 $317 3.2058703428606137 $312 $490 forward 7 unknown #
coedge $-1 $307 $203 $488 $491 forward $316 $-1 #
coedge $-1 $203 $307 $484 $492 reversed $316 $-1 #
loop $-1 $-1 $314 $468 #
vertex $-1 $204 $493 #
vertex $-1 $204 $494 #
straight-curve $-1 3.2058703428606137 0 12.145958759641765 0 1 0 I I #
face $-1 $495 $496 $47 $-1 $497 reversed single #
loop $-1 $-1 $498 $205 #
plane-surface $-1 -1.5 0 0 1 0 0 0 0 -1 forward_v I I I I #
coedge $-1 $499 $331 $500 $501 forward $206 $-1 #
coedge $-1 $502 $208 $499 $503 forward $129 $-1 #
coedge $-1 $208 $502 $504 $505 forward $129 $-1 #
coedge $-1 $334 $333 $208 $327 reversed $335 $-1 #
edge $-1 $506 -6.8178094409326384 $507 6.8178094409326384 $326 $508 forward 7 unknown #
coedge $-1 $210 $209 $509 $510 forward $82 $-1 #
coedge $-1 $511 $512 $209 $330 reversed $496 $-1 #
edge $-1 $337 -1.5 $513 1.5 $329 $514 forward 7 unknown #
coedge $-1 $323 $515 $210 $332 reversed $206 $-1 #
edge $-1 $516 -1.5 $336 1.5 $331 $517 forward 7 unknown #
coedge $-1 $326 $211 $515 $518 forward $335 $-1 #
coedge $-1 $211 $326 $511 $519 reversed $335 $-1 #
loop $-1 $-1 $333 $495 #
vertex $-1 $212 $520 #
vertex $-1 $212 $521 #
straight-curve $-1 1.5 0 12.145958759641765 0 1 0 I I #
face $-1 $522 $523 $48 $-1 $524 reversed single #
loop $-1 $-1 $525 $213 #
plane-surface $-1 -178.10602130191961 0 0 1 0 0 0 0 -1 forward_v I I I I #
coedge $-1 $526 $350 $527 $528 forward $214 $-1 #
coedge $-1 $529 $216 $526 $530 forward $133 $-1 #
coedge $-1 $216 $529 $531 $532 forward $133 $-1 #
coedge $-1 $353 $352 $216 $346 reversed $354 $-1 #
edge $-1 $533 -3.0415529728743866 $534 3.0415529728743866 $345 $535 forward 7 unknown #
coedge $-1 $218 $217 $536 $537 forward $85 $-1 #
coedge $-1 $538 $539 $217 $349 reversed $523 $-1 #
edge $-1 $356 -178.10602130191961 $540 178.10602130191961 $348 $541 forward 7 unknown #
coedge $-1 $342 $542 $218 $351 reversed $214 $-1 #
edge $-1 $543 -178.10602130191961 $355 178.10602130191961 $350 $544 forward 7 unknown #
coedge $-1 $345 $219 $542 $545 forward $354 $-1 #
coedge $-1 $219 $345 $538 $546 reversed $354 $-1 #
loop $-1 $-1 $352 $522 #
vertex $-1 $220 $547 #
vertex $-1 $220 $548 #
straight-curve $-1 178.10602130191961 0 89.053010650959806 0 1 0 I I #
loop $-1 $-1 $549 $136 #
coedge $-1 $359 $359 $224 $360 reversed $221 $-1 #
edge $-1 $550 0 $550 6.2831853071796004 $359 $551 forward 7 unknown #
vertex $-1 $225 $552 #
ellipse-curve $-1 0 0 -1.3451109347819479 0 0 -1 0.5 0 0 1 I I #
loop $-1 $-1 $553 $141 #
coedge $-1 $364 $364 $229 $365 reversed $226 $-1 #
edge $-1 $554 0 $554 6.2831853071796004 $364 $555 forward 7 unknown #
vertex $-1 $230 $556 #
ellipse-curve $-1 0 0 -1.3451109347819479 0 0 -1 0.5 0 0 1 I I #
loop $-1 $-1 $557 $146 #
coedge $-1 $369 $369 $234 $370 reversed $231 $-1 #
edge $-1 $558 0 $558 6.2831853071796004 $369 $559 forward 7 unknown #
vertex $-1 $235 $560 #
ellipse-curve $-1 0 0 -1.3451109347819479 0 0 -1 0.5 0 0 1 I I #
face $-1 $561 $562 $52 $-1 $563 reversed single #
loop $-1 $-1 $564 $236 #
plane-surface $-1 -178.10602130191961 0 0 1 0 0 0 0 -1 forward_v I I I I #
coedge $-1 $565 $384 $566 $567 forward $237 $-1 #
coedge $-1 $568 $239 $565 $569 forward $152 $-1 #
coedge $-1 $239 $568 $570 $571 forward $152 $-1 #
coedge $-1 $387 $386 $239 $380 reversed $388 $-1 #
edge $-1 $572 -3.0415529728743866 $573 3.0415529728743866 $379 $574 forward 7 unknown #
coedge $-1 $241 $240 $575 $576 forward $97 $-1 #
coedge $-1 $577 $578 $240 $383 reversed $562 $-1 #
edge $-1 $390 -178.10602130191961 $579 178.10602130191961 $382 $580 forward 7 unknown #
coedge $-1 $376 $581 $241 $385 reversed $237 $-1 #
edge $-1 $582 -178.10602130191961 $389 178.10602130191961 $384 $583 forward 7 unknown #
coedge $-1 $379 $242 $581 $584 forward $388 $-1 #
coedge $-1 $242 $379 $577 $585 reversed $388 $-1 #
loop $-1 $-1 $386 $561 #
vertex $-1 $243 $586 #
vertex $-1 $243 $587 #
straight-curve $-1 178.10602130191961 0 89.053010650959806 0 1 0 I I #
loop $-1 $-1 $588 $155 #
coedge $-1 $393 $393 $247 $394 reversed $244 $-1 #
edge $-1 $589 0 $589 6.2831853071796004 $393 $590 forward 7 unknown #
vertex $-1 $248 $591 #
ellipse-curve $-1 0 0 -1.3451109347819479 0 0 -1 0.5 0 0 1 I I #
loop $-1 $-1 $592 $160 #
coedge $-1 $398 $398 $252 $399 reversed $249 $-1 #
edge $-1 $593 0 $593 6.2831853071796004 $398 $594 forward 7 unknown #
vertex $-1 $253 $595 #
ellipse-curve $-1 0 0 -1.3451109347819479 0 0 -1 0.5 0 0 1 I I #
loop $-1 $-1 $596 $165 #
coedge $-1 $403 $403 $257 $404 reversed $254 $-1 #
edge $-1 $597 0 $597 6.2831853071796004 $403 $598 forward 7 unknown #
vertex $-1 $258 $599 #
ellipse-curve $-1 0 0 -1.3451109347819479 0 0 -1 0.5 0 0 1 I I #
face $-1 $600 $601 $56 $-1 $602 reversed single #
loop $-1 $-1 $603 $259 #
plane-surface $-1 -178.10602130191961 0 0 1 0 0 0 0 -1 forward_v I I I I #
coedge $-1 $604 $418 $605 $606 forward $260 $-1 #
coedge $-1 $607 $262 $604 $608 forward $171 $-1 #
coedge $-1 $262 $607 $609 $610 forward $171 $-1 #
coedge $-1 $421 $420 $262 $414 reversed $422 $-1 #
edge $-1 $611 -3.0415529728743866 $612 3.0415529728743866 $413 $613 forward 7 unknown #
coedge $-1 $264 $263 $614 $615 forward $109 $-1 #
coedge $-1 $616 $617 $263 $417 reversed $601 $-1 #
edge $-1 $424 -178.10602130191961 $618 178.10602130191961 $416 $619 forward 7 unknown #
coedge $-1 $410 $620 $264 $419 reversed $260 $-1 #
edge $-1 $621 -178.10602130191961 $423 178.10602130191961 $418 $622 forward 7 unknown #
coedge $-1 $413 $265 $620 $623 forward $422 $-1 #
coedge $-1 $265 $413 $616 $624 reversed $422 $-1 #
loop $-1 $-1 $420 $600 #
vertex $-1 $266 $625 #
vertex $-1 $266 $626 #
straight-curve $-1 178.10602130191961 0 89.053010650959806 0 1 0 I I #
loop $-1 $-1 $627 $174 #
coedge $-1 $427 $427 $270 $428 reversed $267 $-1 #
edge $-1 $628 0 $628 6.2831853071796004 $427 $629 forward 7 unknown #
vertex $-1 $271 $630 #
ellipse-curve $-1 0 0 -1.3451109347819479 0 0 -1 0.5 0 0 1 I I #
loop $-1 $-1 $631 $179 #
coedge $-1 $432 $432 $275 $433 reversed $272 $-1 #
edge $-1 $632 0 $632 6.2831853071796004 $432 $633 forward 7 unknown #
vertex $-1 $276 $634 #
ellipse-curve $-1 0 0 -1.3451109347819479 0 0 -1 0.5 0 0 1 I I #
loop $-1 $-1 $635 $184 #
coedge $-1 $437 $437 $280 $438 reversed $277 $-1 #
edge $-1 $636 0 $636 6.2831853071796004 $437 $637 forward 7 unknown #
vertex $-1 $281 $638 #
ellipse-curve $-1 0 0 -1.3451109347819479 0 0 -1 0.5 0 0 1 I I #
face $-1 $-1 $297 $45 $-1 $639 reversed single #
loop $-1 $-1 $457 $282 #
plane-surface $-1 0 27.334058878522928 0 0 -1 0 0 0 -1 forward_v I I I I #
coedge $-1 $640 $455 $458 $641 forward $283 $-1 #
coedge $-1 $461 $285 $286 $449 reversed $190 $-1 #
coedge $-1 $455 $640 $285 $447 reversed $283 $-1 #
edge $-1 $462 -12.145958759641765 $642 12.145958759641765 $446 $643 forward 7 unknown #
coedge $-1 $287 $286 $640 $644 forward $121 $-1 #
edge $-1 $453 -44.526505325479903 $642 44.526505325479903 $445 $645 forward 7 unknown #
coedge $-1 $458 $457 $287 $451 reversed $442 $-1 #
edge $-1 $646 -44.526505325479903 $452 44.526505325479903 $450 $647 forward 7 unknown #
vertex $-1 $289 $648 #
vertex $-1 $464 $649 #
straight-curve $-1 44.526505325479903 0 -12.145958759641765 0 -1 0 I I #
coedge $-1 $444 $446 $290 $456 reversed $283 $-1 #
edge $-1 $459 -27.334058878522928 $462 27.334058878522928 $455 $650 forward 7 unknown #
coedge $-1 $450 $291 $296 $465 forward $442 $-1 #
coedge $-1 $291 $450 $444 $641 reversed $442 $-1 #
vertex $-1 $292 $651 #
straight-curve $-1 0 27.334058878522928 12.145958759641765 -1 0 0 I I #
coedge $-1 $293 $445 $295 $464 reversed $190 $-1 #
vertex $-1 $456 $652 #
straight-curve $-1 0 -27.334058878522928 12.145958759641765 1 0 0 I I #
edge $-1 $298 -12.145958759641765 $453 12.145958759641765 $295 $653 forward 7 unknown #
edge $-1 $299 -12.145958759641765 $452 12.145958759641765 $296 $654 forward 7 unknown #
point $-1 44.526505325479903 -27.334058878522928 12.145958759641765 #
point $-1 44.526505325479903 27.334058878522928 12.145958759641765 #
face $-1 $-1 $316 $46 $-1 $655 reversed single #
loop $-1 $-1 $484 $301 #
plane-surface $-1 0 5.2917043995756066 0 0 -1 0 0 0 -1 forward_v I I I I #
coedge $-1 $656 $482 $485 $657 forward $302 $-1 #
coedge $-1 $488 $304 $305 $476 reversed $198 $-1 #
coedge $-1 $482 $656 $304 $474 reversed $302 $-1 #
edge $-1 $489 -12.145958759641765 $658 12.145958759641765 $473 $659 forward 7 unknown #
coedge $-1 $306 $305 $656 $660 forward $125 $-1 #
edge $-1 $480 -3.2058703428606137 $658 3.2058703428606137 $472 $661 forward 7 unknown #
coedge $-1 $485 $484 $306 $478 reversed $469 $-1 #
edge $-1 $662 -3.2058703428606137 $479 3.2058703428606137 $477 $663 forward 7 unknown #
vertex $-1 $308 $664 #
vertex $-1 $491 $665 #
straight-curve $-1 3.2058703428606137 0 -12.145958759641765 0 -1 0 I I #
coedge $-1 $471 $473 $309 $483 reversed $302 $-1 #
edge $-1 $486 -5.2917043995756066 $489 5.2917043995756066 $482 $666 forward 7 unknown #
coedge $-1 $477 $310 $315 $492 forward $469 $-1 #
coedge $-1 $310 $477 $471 $657 reversed $469 $-1 #
vertex $-1 $311 $667 #
straight-curve $-1 0 5.2917043995756066 12.145958759641765 -1 0 0 I I #
coedge $-1 $312 $472 $314 $491 reversed $198 $-1 #
vertex $-1 $483 $668 #
straight-curve $-1 0 -5.2917043995756066 12.145958759641765 1 0 0 I I #
edge $-1 $317 -12.145958759641765 $480 12.145958759641765 $314 $669 forward 7 unknown #
edge $-1 $318 -12.145958759641765 $479 12.145958759641765 $315 $670 forward 7 unknown #
point $-1 3.2058703428606137 -5.2917043995756066 12.145958759641765 #
point $-1 3.2058703428606137 5.2917043995756066 12.145958759641765 #
face $-1 $-1 $335 $47 $-1 $671 reversed single #
loop $-1 $-1 $511 $320 #
plane-surface $-1 0 6.8178094409326384 0 0 -1 0 0 0 -1 forward_v I I I I #
coedge $-1 $672 $509 $512 $673 forward $321 $-1 #
coedge $-1 $515 $323 $324 $503 reversed $206 $-1 #
coedge $-1 $509 $672 $323 $501 reversed $321 $-1 #
edge $-1 $516 -12.145958759641765 $674 12.145958759641765 $500 $675 forward 7 unknown #
coedge $-1 $325 $324 $672 $676 forward $129 $-1 #
edge $-1 $507 -1.5 $674 1.5 $499 $677 forward 7 unknown #
coedge $-1 $512 $511 $325 $505 reversed $496 $-1 #
edge $-1 $678 -1.5 $506 1.5 $504 $679 forward 7 unknown #
vertex $-1 $327 $680 #
vertex $-1 $518 $681 #
straight-curve $-1 1.5 0 -12.145958759641765 0 -1 0 I I #
coedge $-1 $498 $500 $328 $510 reversed $321 $-1 #
edge $-1 $513 -6.8178094409326384 $516 6.8178094409326384 $509 $682 forward 7 unknown #
coedge $-1 $504 $329 $334 $519 forward $496 $-1 #
coedge $-1 $329 $504 $498 $673 reversed $496 $-1 #
vertex $-1 $330 $683 #
straight-curve $-1 0 6.8178094409326384 12.145958759641765 -1 0 0 I I #
coedge $-1 $331 $499 $333 $518 reversed $206 $-1 #
vertex $-1 $510 $684 #
straight-curve $-1 0 -6.8178094409326384 12.145958759641765 1 0 0 I I #
edge $-1 $336 -12.145958759641765 $507 12.145958759641765 $333 $685 forward 7 unknown #
edge $-1 $337 -12.145958759641765 $506 12.145958759641765 $334 $686 forward 7 unknown #
point $-1 1.5 -6.8178094409326384 12.145958759641765 #
point $-1 1.5 6.8178094409326384 12.145958759641765 #
face $-1 $-1 $354 $48 $-1 $687 reversed single #
loop $-1 $-1 $538 $339 #
plane-surface $-1 0 3.0415529728743866 0 0 -1 0 0 0 -1 forward_v I I I I #
coedge $-1 $688 $536 $539 $689 forward $340 $-1 #
coedge $-1 $542 $342 $343 $530 reversed $214 $-1 #
coedge $-1 $536 $688 $342 $528 reversed $340 $-1 #
edge $-1 $543 -89.053010650959806 $690 89.053010650959806 $527 $691 forward 7 unknown #
coedge $-1 $344 $343 $688 $692 forward $133 $-1 #
edge $-1 $534 -178.10602130191961 $690 178.10602130191961 $526 $693 forward 7 unknown #
coedge $-1 $539 $538 $344 $532 reversed $523 $-1 #
edge $-1 $694 -178.10602130191961 $533 178.10602130191961 $531 $695 forward 7 unknown #
vertex $-1 $346 $696 #
vertex $-1 $545 $697 #
straight-curve $-1 178.10602130191961 0 -89.053010650959806 0 -1 0 I I #
coedge $-1 $525 $527 $347 $537 reversed $340 $-1 #
edge $-1 $540 -3.0415529728743866 $543 3.0415529728743866 $536 $698 forward 7 unknown #
coedge $-1 $531 $348 $353 $546 forward $523 $-1 #
coedge $-1 $348 $531 $525 $689 reversed $523 $-1 #
vertex $-1 $349 $699 #
straight-curve $-1 0 3.0415529728743866 89.053010650959806 -1 0 0 I I #
coedge $-1 $350 $526 $352 $545 reversed $214 $-1 #
vertex $-1 $537 $700 #
straight-curve $-1 0 -3.0415529728743866 89.053010650959806 1 0 0 I I #
edge $-1 $355 -89.053010650959806 $534 89.053010650959806 $352 $701 forward 7 unknown #
edge $-1 $356 -89.053010650959806 $533 89.053010650959806 $353 $702 forward 7 unknown #
point $-1 178.10602130191961 -3.0415529728743866 89.053010650959806 #
point $-1 178.10602130191961 3.0415529728743866 89.053010650959806 #
coedge $-1 $549 $549 $-1 $703 reversed $358 $-1 #
vertex $-1 $360 $704 #
ellipse-curve $-1 0 0 -0.25 0 0 -1 0.5 0 0 1 I I #
point $-1 0.5 0 -1.3451109347819479 #
coedge $-1 $553 $553 $-1 $705 reversed $363 $-1 #
vertex $-1 $365 $706 #
ellipse-curve $-1 0 0 -0.25 0 0 -1 0.5 0 0 1 I I #
point $-1 0.5 0 -1.3451109347819479 #
coedge $-1 $557 $557 $-1 $707 reversed $368 $-1 #
vertex $-1 $370 $708 #
ellipse-curve $-1 0 0 -0.25 0 0 -1 0.5 0 0 1 I I #
point $-1 0.5 0 -1.3451109347819479 #
face $-1 $-1 $388 $52 $-1 $709 reversed single #
loop $-1 $-1 $577 $373 #
plane-surface $-1 0 3.0415529728743866 0 0 -1 0 0 0 -1 forward_v I I I I #
coedge $-1 $710 $575 $578 $711 forward $374 $-1 #
coedge $-1 $581 $376 $377 $569 reversed $237 $-1 #
coedge $-1 $575 $710 $376 $567 reversed $374 $-1 #
edge $-1 $582 -89.053010650959806 $712 89.053010650959806 $566 $713 forward 7 unknown #
coedge $-1 $378 $377 $710 $714 forward $152 $-1 #
edge $-1 $573 -178.10602130191961 $712 178.10602130191961 $565 $715 forward 7 unknown #
coedge $-1 $578 $577 $378 $571 reversed $562 $-1 #
edge $-1 $716 -178.10602130191961 $572 178.10602130191961 $570 $717 forward 7 unknown #
vertex $-1 $380 $718 #
vertex $-1 $584 $719 #
straight-curve $-1 178.10602130191961 0 -89.053010650959806 0 -1 0 I I #
coedge $-1 $564 $566 $381 $576 reversed $374 $-1 #
edge $-1 $579 -3.0415529728743866 $582 3.0415529728743866 $575 $720 forward 7 unknown #
coedge $-1 $570 $382 $387 $585 forward $562 $-1 #
coedge $-1 $382 $570 $564 $711 reversed $562 $-1 #
vertex $-1 $383 $721 #
straight-curve $-1 0 3.0415529728743866 89.053010650959806 -1 0 0 I I #
coedge $-1 $384 $565 $386 $584 reversed $237 $-1 #
vertex $-1 $576 $722 #
straight-curve $-1 0 -3.0415529728743866 89.053010650959806 1 0 0 I I #
edge $-1 $389 -89.053010650959806 $573 89.053010650959806 $386 $723 forward 7 unknown #
edge $-1 $390 -89.053010650959806 $572 89.053010650959806 $387 $724 forward 7 unknown #
point $-1 178.10602130191961 -3.0415529728743866 89.053010650959806 #
point $-1 178.10602130191961 3.0415529728743866 89.053010650959806 #
coedge $-1 $588 $588 $-1 $725 reversed $392 $-1 #
vertex $-1 $394 $726 #
ellipse-curve $-1 0 0 -0.25 0 0 -1 0.5 0 0 1 I I #
point $-1 0.5 0 -1.3451109347819479 #
coedge $-1 $592 $592 $-1 $727 reversed $397 $-1 #
vertex $-1 $399 $728 #
ellipse-curve $-1 0 0 -0.25 0 0 -1 0.5 0 0 1 I I #
point $-1 0.5 0 -1.3451109347819479 #
coedge $-1 $596 $596 $-1 $729 reversed $402 $-1 #
vertex $-1 $404 $730 #
ellipse-curve $-1 0 0 -0.25 0 0 -1 0.5 0 0 1 I I #
point $-1 0.5 0 -1.3451109347819479 #
face $-1 $-1 $422 $56 $-1 $731 reversed single #
loop $-1 $-1 $616 $407 #
plane-surface $-1 0 3.0415529728743866 0 0 -1 0 0 0 -1 forward_v I I I I #
coedge $-1 $732 $614 $617 $733 forward $408 $-1 #
coedge $-1 $620 $410 $411 $608 reversed $260 $-1 #
coedge $-1 $614 $732 $410 $606 reversed $408 $-1 #
edge $-1 $621 -89.053010650959806 $734 89.053010650959806 $605 $735 forward 7 unknown #
coedge $-1 $412 $411 $732 $736 forward $171 $-1 #
edge $-1 $612 -178.10602130191961 $734 178.10602130191961 $604 $737 forward 7 unknown #
coedge $-1 $617 $616 $412 $610 reversed $601 $-1 #
edge $-1 $738 -178.10602130191961 $611 178.10602130191961 $609 $739 forward 7 unknown #
vertex $-1 $414 $740 #
vertex $-1 $623 $741 #
straight-curve $-1 178.10602130191961 0 -89.053010650959806 0 -1 0 I I #
coedge $-1 $603 $605 $415 $615 reversed $408 $-1 #
edge $-1 $618 -3.0415529728743866 $621 3.0415529728743866 $614 $742 forward 7 unknown #
coedge $-1 $609 $416 $421 $624 forward $601 $-1 #
coedge $-1 $416 $609 $603 $733 reversed $601 $-1 #
vertex $-1 $417 $743 #
straight-curve $-1 0 3.0415529728743866 89.053010650959806 -1 0 0 I I #
coedge $-1 $418 $604 $420 $623 reversed $260 $-1 #
vertex $-1 $615 $744 #
straight-curve $-1 0 -3.0415529728743866 89.053010650959806 1 0 0 I I #
edge $-1 $423 -89.053010650959806 $612 89.053010650959806 $420 $745 forward 7 unknown #
edge $-1 $424 -89.053010650959806 $611 89.053010650959806 $421 $746 forward 7 unknown #
point $-1 178.10602130191961 -3.0415529728743866 89.053010650959806 #
point $-1 178.10602130191961 3.0415529728743866 89.053010650959806 #
coedge $-1 $627 $627 $-1 $747 reversed $426 $-1 #
vertex $-1 $428 $748 #
ellipse-curve $-1 0 0 -0.25 0 0 -1 0.5 0 0 1 I I #
point $-1 0.5 0 -1.3451109347819479 #
coedge $-1 $631 $631 $-1 $749 reversed $431 $-1 #
vertex $-1 $433 $750 #
ellipse-curve $-1 0 0 -0.25 0 0 -1 0.5 0 0 1 I I #
point $-1 0.5 0 -1.3451109347819479 #
coedge $-1 $635 $635 $-1 $751 reversed $436 $-1 #
vertex $-1 $438 $752 #
ellipse-curve $-1 0 0 -0.25 0 0 -1 0.5 0 0 1 I I #
point $-1 0.5 0 -1.3451109347819479 #
plane-surface $-1 44.526505325479903 0 0 -1 0 0 0 0 1 forward_v I I I I #
coedge $-1 $446 $444 $448 $644 reversed $283 $-1 #
edge $-1 $459 -12.145958759641765 $646 12.145958759641765 $458 $753 forward 7 unknown #
vertex $-1 $644 $754 #
straight-curve $-1 -44.526505325479903 -27.334058878522928 0 0 0 -1 I I #
edge $-1 $642 -27.334058878522928 $646 27.334058878522928 $640 $755 forward 7 unknown #
straight-curve $-1 0 -27.334058878522928 -12.145958759641765 -1 0 0 I I #
vertex $-1 $451 $756 #
straight-curve $-1 0 27.334058878522928 -12.145958759641765 1 0 0 I I #
point $-1 44.526505325479903 27.334058878522928 -12.145958759641765 #
point $-1 44.526505325479903 -27.334058878522928 -12.145958759641765 #
straight-curve $-1 -44.526505325479903 0 12.145958759641765 0 -1 0 I I #
point $-1 -44.526505325479903 27.334058878522928 12.145958759641765 #
point $-1 -44.526505325479903 -27.334058878522928 12.145958759641765 #
straight-curve $-1 44.526505325479903 -27.334058878522928 0 0 0 -1 I I #
straight-curve $-1 44.526505325479903 27.334058878522928 0 0 0 -1 I I #
plane-surface $-1 3.2058703428606137 0 0 -1 0 0 0 0 1 forward_v I I I I #
coedge $-1 $473 $471 $475 $660 reversed $302 $-1 #
edge $-1 $486 -12.145958759641765 $662 12.145958759641765 $485 $757 forward 7 unknown #
vertex $-1 $660 $758 #
straight-curve $-1 -3.2058703428606137 -5.2917043995756066 0 0 0 -1 I I #
edge $-1 $658 -5.2917043995756066 $662 5.2917043995756066 $656 $759 forward 7 unknown #
straight-curve $-1 0 -5.2917043995756066 -12.145958759641765 -1 0 0 I I #
vertex $-1 $478 $760 #
straight-curve $-1 0 5.2917043995756066 -12.145958759641765 1 0 0 I I #
point $-1 3.2058703428606137 5.2917043995756066 -12.145958759641765 #
point $-1 3.2058703428606137 -5.2917043995756066 -12.145958759641765 #
straight-curve $-1 -3.2058703428606137 0 12.145958759641765 0 -1 0 I I #
point $-1 -3.2058703428606137 5.2917043995756066 12.145958759641765 #
point $-1 -3.2058703428606137 -5.2917043995756066 12.145958759641765 #
straight-curve $-1 3.2058703428606137 -5.2917043995756066 0 0 0 -1 I I #
straight-curve $-1 3.2058703428606137 5.2917043995756066 0 0 0 -1 I I #
plane-surface $-1 1.5 0 0 -1 0 0 0 0 1 forward_v I I I I #
coedge $-1 $500 $498 $502 $676 reversed $321 $-1 #
edge $-1 $513 -12.145958759641765 $678 12.145958759641765 $512 $761 forward 7 unknown #
vertex $-1 $676 $762 #
straight-curve $-1 -1.5 -6.8178094409326384 0 0 0 -1 I I #
edge $-1 $674 -6.8178094409326384 $678 6.8178094409326384 $672 $763 forward 7 unknown #
straight-curve $-1 0 -6.8178094409326384 -12.145958759641765 -1 0 0 I I #
vertex $-1 $505 $764 #
straight-curve $-1 0 6.8178094409326384 -12.145958759641765 1 0 0 I I #
point $-1 1.5 6.8178094409326384 -12.145958759641765 #
point $-1 1.5 -6.8178094409326384 -12.145958759641765 #
straight-curve $-1 -1.5 0 12.145958759641765 0 -1 0 I I #
point $-1 -1.5 6.8178094409326384 12.145958759641765 #
point $-1 -1.5 -6.8178094409326384 12.145958759641765 #
straight-curve $-1 1.5 -6.8178094409326384 0 0 0 -1 I I #
straight-curve $-1 1.5 6.8178094409326384 0 0 0 -1 I I #
plane-surface $-1 178.10602130191961 0 0 -1 0 0 0 0 1 forward_v I I I I #
coedge $-1 $527 $525 $529 $692 reversed $340 $-1 #
edge $-1 $540 -89.053010650959806 $694 89.053010650959806 $539 $765 forward 7 unknown #
vertex $-1 $692 $766 #
straight-curve $-1 -178.10602130191961 -3.0415529728743866 0 0 0 -1 I I #
edge $-1 $690 -3.0415529728743866 $694 3.0415529728743866 $688 $767 forward 7 unknown #
straight-curve $-1 0 -3.0415529728743866 -89.053010650959806 -1 0 0 I I #
vertex $-1 $532 $768 #
straight-curve $-1 0 3.0415529728743866 -89.053010650959806 1 0 0 I I #
point $-1 178.10602130191961 3.0415529728743866 -89.053010650959806 #
point $-1 178.10602130191961 -3.0415529728743866 -89.053010650959806 #
straight-curve $-1 -178.10602130191961 0 89.053010650959806 0 -1 0 I I #
point $-1 -178.10602130191961 3.0415529728743866 89.053010650959806 #
point $-1 -178.10602130191961 -3.0415529728743866 89.053010650959806 #
straight-curve $-1 178.10602130191961 -3.0415529728743866 0 0 0 -1 I I #
straight-curve $-1 178.10602130191961 3.0415529728743866 0 0 0 -1 I I #
edge $-1 $769 1 $769 0 $549 $-1 forward 7 unknown #
point $-1 0.5 0 -0.25 #
edge $-1 $770 1 $770 0 $553 $-1 forward 7 unknown #
point $-1 0.5 0 -0.25 #
edge $-1 $771 1 $771 0 $557 $-1 forward 7 unknown #
point $-1 0.5 0 -0.25 #
plane-surface $-1 178.10602130191961 0 0 -1 0 0 0 0 1 forward_v I I I I #
coedge $-1 $566 $564 $568 $714 reversed $374 $-1 #
edge $-1 $579 -89.053010650959806 $716 89.053010650959806 $578 $772 forward 7 unknown #
vertex $-1 $714 $773 #
straight-curve $-1 -178.10602130191961 -3.0415529728743866 0 0 0 -1 I I #
edge $-1 $712 -3.0415529728743866 $716 3.0415529728743866 $710 $774 forward 7 unknown #
straight-curve $-1 0 -3.0415529728743866 -89.053010650959806 -1 0 0 I I #
vertex $-1 $571 $775 #
straight-curve $-1 0 3.0415529728743866 -89.053010650959806 1 0 0 I I #
point $-1 178.10602130191961 3.0415529728743866 -89.053010650959806 #
point $-1 178.10602130191961 -3.0415529728743866 -89.053010650959806 #
straight-curve $-1 -178.10602130191961 0 89.053010650959806 0 -1 0 I I #
point $-1 -178.10602130191961 3.0415529728743866 89.053010650959806 #
point $-1 -178.10602130191961 -3.0415529728743866 89.053010650959806 #
straight-curve $-1 178.10602130191961 -3.0415529728743866 0 0 0 -1 I I #
straight-curve $-1 178.10602130191961 3.0415529728743866 0 0 0 -1 I I #
edge $-1 $776 1 $776 0 $588 $-1 forward 7 unknown #
point $-1 0.5 0 -0.25 #
edge $-1 $777 1 $777 0 $592 $-1 forward 7 unknown #
point $-1 0.5 0 -0.25 #
edge $-1 $778 1 $778 0 $596 $-1 forward 7 unknown #
point $-1 0.5 0 -0.25 #
plane-surface $-1 178.10602130191961 0 0 -1 0 0 0 0 1 forward_v I I I I #
coedge $-1 $605 $603 $607 $736 reversed $408 $-1 #
edge $-1 $618 -89.053010650959806 $738 89.053010650959806 $617 $779 forward 7 unknown #
vertex $-1 $736 $780 #
straight-curve $-1 -178.10602130191961 -3.0415529728743866 0 0 0 -1 I I #
edge $-1 $734 -3.0415529728743866 $738 3.0415529728743866 $732 $781 forward 7 unknown #
straight-curve $-1 0 -3.0415529728743866 -89.053010650959806 -1 0 0 I I #
vertex $-1 $610 $782 #
straight-curve $-1 0 3.0415529728743866 -89.053010650959806 1 0 0 I I #
point $-1 178.10602130191961 3.0415529728743866 -89.053010650959806 #
point $-1 178.10602130191961 -3.0415529728743866 -89.053010650959806 #
straight-curve $-1 -178.10602130191961 0 89.053010650959806 0 -1 0 I I #
point $-1 -178.10602130191961 3.0415529728743866 89.053010650959806 #
point $-1 -178.10602130191961 -3.0415529728743866 89.053010650959806 #
straight-curve $-1 178.10602130191961 -3.0415529728743866 0 0 0 -1 I I #
straight-curve $-1 178.10602130191961 3.0415529728743866 0 0 0 -1 I I #
edge $-1 $783 1 $783 0 $627 $-1 forward 7 unknown #
point $-1 0.5 0 -0.25 #
edge $-1 $784 1 $784 0 $631 $-1 forward 7 unknown #
point $-1 0.5 0 -0.25 #
edge $-1 $785 1 $785 0 $635 $-1 forward 7 unknown #
point $-1 0.5 0 -0.25 #
straight-curve $-1 -44.526505325479903 27.334058878522928 0 0 0 -1 I I #
point $-1 -44.526505325479903 -27.334058878522928 -12.145958759641765 #
straight-curve $-1 -44.526505325479903 0 -12.145958759641765 0 1 0 I I #
point $-1 -44.526505325479903 27.334058878522928 -12.145958759641765 #
straight-curve $-1 -3.2058703428606137 5.2917043995756066 0 0 0 -1 I I #
point $-1 -3.2058703428606137 -5.2917043995756066 -12.145958759641765 #
straight-curve $-1 -3.2058703428606137 0 -12.145958759641765 0 1 0 I I #
point $-1 -3.2058703428606137 5.2917043995756066 -12.145958759641765 #
straight-curve $-1 -1.5 6.8178094409326384 0 0 0 -1 I I #
point $-1 -1.5 -6.8178094409326384 -12.145958759641765 #
straight-curve $-1 -1.5 0 -12.145958759641765 0 1 0 I I #
point $-1 -1.5 6.8178094409326384 -12.145958759641765 #
straight-curve $-1 -178.10602130191961 3.0415529728743866 0 0 0 -1 I I #
point $-1 -178.10602130191961 -3.0415529728743866 -89.053010650959806 #
straight-curve $-1 -178.10602130191961 0 -89.053010650959806 0 1 0 I I #
point $-1 -178.10602130191961 3.0415529728743866 -89.053010650959806 #
vertex $-1 $703 $786 #
vertex $-1 $705 $787 #
vertex $-1 $707 $788 #
straight-curve $-1 -178.10602130191961 3.0415529728743866 0 0 0 -1 I I #
point $-1 -178.10602130191961 -3.0415529728743866 -89.053010650959806 #
straight-curve $-1 -178.10602130191961 0 -89.053010650959806 0 1 0 I I #
point $-1 -178.10602130191961 3.0415529728743866 -89.053010650959806 #
vertex $-1 $725 $789 #
vertex $-1 $727 $790 #
vertex $-1 $729 $791 #
straight-curve $-1 -178.10602130191961 3.0415529728743866 0 0 0 -1 I I #
point $-1 -178.10602130191961 -3.0415529728743866 -89.053010650959806 #
straight-curve $-1 -178.10602130191961 0 -89.053010650959806 0 1 0 I I #
point $-1 -178.10602130191961 3.0415529728743866 -89.053010650959806 #
vertex $-1 $747 $792 #
vertex $-1 $749 $793 #
vertex $-1 $751 $794 #
point $-1 0 0 0.25 #
point $-1 0 0 0.25 #
point $-1 0 0 0.25 #
point $-1 0 0 0.25 #
point $-1 0 0 0.25 #
point $-1 0 0 0.25 #
point $-1 0 0 0.25 #
point $-1 0 0 0.25 #
point $-1 0 0 0.25 #
End-of-ACIS-data 