500 0 7 0           
7 Unknown 11 ACIS 5.0 NT 24 Fri Mar 26 03:17:05 1999 
-1 9.9999999999999995e-007 1e-010 
body $-1 $7 $-1 $8 #
body $-1 $9 $-1 $10 #
body $-1 $11 $-1 $12 #
body $-1 $13 $-1 $14 #
body $-1 $15 $-1 $16 #
body $-1 $17 $-1 $18 #
body $-1 $19 $-1 $20 #
lump $-1 $-1 $21 $0 #
transform $-1 1 0 0 0 1 0 0 0 1 66.250801110873738 40.035767328005129 17.679663871662605 1 rotate no_reflect no_shear #
lump $-1 $-1 $22 $1 #
transform $-1 1 0 0 0 1 0 0 0 1 66.250801110873738 40.035767328005129 17.679663871662605 1 rotate no_reflect no_shear #
lump $-1 $-1 $23 $2 #
transform $-1 1 0 0 0 1 0 0 0 1 66.250801110873738 40.035767328005129 17.679663871662605 1 rotate no_reflect no_shear #
lump $-1 $-1 $24 $3 #
transform $-1 1 0 0 0 1 0 0 0 1 66.250801110873738 40.035767328005129 17.679663871662605 1 rotate no_reflect no_shear #
lump $-1 $-1 $25 $4 #
transform $-1 1 0 0 0 1 0 0 0 1 66.250801110873738 40.035767328005129 17.679663871662605 1 rotate no_reflect no_shear #
lump $-1 $-1 $26 $5 #
transform $-1 1 0 0 0 1 0 0 0 1 66.250801110873738 40.035767328005129 17.679663871662605 1 rotate no_reflect no_shear #
lump $-1 $-1 $27 $6 #
transform $-1 1 0 0 0 1 0 0 0 1 66.250801110873738 40.035767328005129 17.679663871662605 1 rotate no_reflect no_shear #
shell $-1 $-1 $-1 $28 $-1 $7 #
shell $-1 $-1 $-1 $29 $-1 $9 #
shell $-1 $-1 $-1 $30 $-1 $11 #
shell $-1 $-1 $-1 $31 $-1 $13 #
shell $-1 $-1 $-1 $32 $-1 $15 #
shell $-1 $-1 $-1 $33 $-1 $17 #
shell $-1 $-1 $-1 $34 $-1 $19 #
face $-1 $35 $36 $21 $-1 $37 forward single #
face $-1 $38 $39 $22 $-1 $40 reversed single #
face $-1 $41 $42 $23 $-1 $43 forward single #
face $-1 $44 $45 $24 $-1 $46 forward single #
face $-1 $47 $48 $25 $-1 $49 reversed single #
face $-1 $50 $51 $26 $-1 $52 forward single #
face $-1 $53 $54 $27 $-1 $55 forward single #
face $-1 $56 $57 $21 $-1 $58 reversed single #
loop $-1 $-1 $59 $28 #
plane-surface $-1 0 0 17.679663871662605 0 0 1 1 0 0 forward_v I I I I #
face $-1 $60 $61 $22 $-1 $62 reversed single #
loop $-1 $-1 $63 $29 #
plane-surface $-1 -43.625607636008809 -132.07911549187719 103.690406359788 -1 0 0 0 -0.69465837861970381 0.71933979245794832 forward_v I I I I #
face $-1 $64 $65 $23 $-1 $66 forward single #
loop $-1 $67 $68 $30 #
cone-surface $-1 -59.786460118055189 -32.662055544265762 10.380369880053825 0 0.69465837861970381 -0.71933979245794832 2.5 0 0 1 I I 0 1 2.5 forward I I I I #
face $-1 $69 $70 $24 $-1 $71 forward single #
loop $-1 $72 $73 $31 #
cone-surface $-1 -50.089948628827358 -32.662055544265762 10.380369880053825 0 0.69465837861970381 -0.71933979245794832 2.5 0 0 1 I I 0 1 2.5 forward I I I I #
face $-1 $74 $75 $25 $-1 $76 reversed single #
loop $-1 $-1 $77 $32 #
plane-surface $-1 -24.276168884792465 100.16695009436756 154.31289315174479 1 0 0 0 -0.80901700255871778 -0.5877852410284794 forward_v I I I I #
face $-1 $78 $79 $26 $-1 $80 forward single #
loop $-1 $81 $82 $33 #
cone-surface $-1 -13.708460039729204 36.209584414773644 13.47664584104715 0 -0.80901700255871778 -0.5877852410284794 1.5 0 0 1 I I 0 1 1.5 forward I I I I #
face $-1 $83 $84 $27 $-1 $85 forward single #
loop $-1 $86 $87 $34 #
cone-surface $-1 2.1431032278656943 36.209584414773644 13.47664584104715 0 -0.80901700255871778 -0.5877852410284794 1.5 0 0 1 I I 0 1 1.5 forward I I I I #
face $-1 $88 $89 $21 $-1 $90 reversed single #
loop $-1 $-1 $91 $35 #
plane-surface $-1 0 0 -17.679663871662605 0 0 1 1 0 0 forward_v I I I I #
coedge $-1 $92 $93 $94 $95 forward $36 $-1 #
face $-1 $96 $97 $22 $-1 $98 forward single #
loop $-1 $-1 $99 $38 #
plane-surface $-1 -54.938204373441273 -40.03576732800515 8.3767313172505453 0 -0.69465837861970381 0.71933979245794832 1 0 0 forward_v I I I I #
coedge $-1 $100 $101 $102 $103 reversed $39 $-1 #
face $-1 $-1 $104 $23 $-1 $105 forward single #
loop $-1 $106 $107 $41 #
cone-surface $-1 -59.786460118055189 -29.236755011517609 6.8333674250786594 0 0.69465837861970381 -0.71933979245794832 1.25 0 0 1 I I -0.70710678118654746 0.70710678118654746 1.25 forward I I I I #
loop $-1 $-1 $108 $30 #
coedge $-1 $68 $68 $109 $110 reversed $42 $-1 #
face $-1 $-1 $111 $24 $-1 $112 forward single #
loop $-1 $113 $114 $44 #
cone-surface $-1 -50.089948628827358 -29.236755011517609 6.8333674250786594 0 0.69465837861970381 -0.71933979245794832 1.25 0 0 1 I I -0.70710678118654746 0.70710678118654746 1.25 forward I I I I #
loop $-1 $-1 $115 $31 #
coedge $-1 $73 $73 $116 $117 reversed $45 $-1 #
face $-1 $118 $119 $25 $-1 $120 reversed single #
loop $-1 $-1 $121 $47 #
plane-surface $-1 -5.7826784059317617 -7.0290989692981185 76.43040695317525 0 0.80901700255871778 0.5877852410284794 1 0 0 forward_v I I I I #
coedge $-1 $122 $123 $124 $125 reversed $48 $-1 #
face $-1 $-1 $126 $26 $-1 $127 forward single #
loop $-1 $128 $129 $50 #
cone-surface $-1 -13.708460039729204 33.966615822845874 11.847033817744972 0 -0.80901700255871778 -0.5877852410284794 0.75 0 0 1 I I -0.70710678118654757 0.70710678118654757 0.75 forward I I I I #
loop $-1 $-1 $130 $33 #
coedge $-1 $82 $82 $131 $132 reversed $51 $-1 #
face $-1 $-1 $133 $27 $-1 $134 forward single #
loop $-1 $135 $136 $53 #
cone-surface $-1 2.1431032278656943 33.966615822845874 11.847033817744972 0 -0.80901700255871778 -0.5877852410284794 0.75 0 0 1 I I -0.70710678118654757 0.70710678118654757 0.75 forward I I I I #
loop $-1 $-1 $137 $34 #
coedge $-1 $87 $87 $138 $139 reversed $54 $-1 #
face $-1 $140 $141 $21 $-1 $142 reversed single #
loop $-1 $-1 $143 $56 #
plane-surface $-1 0 -40.035767328005129 0 0 1 0 0 0 1 forward_v I I I I #
coedge $-1 $144 $145 $146 $147 forward $57 $-1 #
coedge $-1 $148 $59 $149 $150 forward $36 $-1 #
coedge $-1 $59 $148 $151 $152 forward $36 $-1 #
coedge $-1 $153 $154 $59 $95 reversed $155 $-1 #
edge $-1 $156 -40.035767328005129 $157 40.035767328005129 $94 $158 forward 7 unknown #
face $-1 $159 $160 $22 $-1 $161 reversed single #
loop $-1 $-1 $102 $60 #
plane-surface $-1 0 0 17.679663871662605 0 0 1 1 0 0 forward_v I I I I #
coedge $-1 $162 $163 $164 $165 reversed $61 $-1 #
coedge $-1 $101 $63 $166 $167 reversed $39 $-1 #
coedge $-1 $63 $100 $162 $168 reversed $39 $-1 #
coedge $-1 $164 $169 $63 $103 forward $97 $-1 #
edge $-1 $170 26.003790417933466 $171 35.637258866465082 $102 $172 forward 7 unknown #
loop $-1 $-1 $109 $64 #
plane-surface $-1 -54.938204373441273 -40.03576732800515 8.3767313172505453 0 -0.69465837861970381 0.71933979245794832 1 0 0 forward_v I I I I #
loop $-1 $-1 $173 $41 #
coedge $-1 $107 $107 $108 $174 reversed $65 $-1 #
coedge $-1 $108 $108 $107 $174 forward $67 $-1 #
coedge $-1 $109 $109 $68 $110 forward $104 $-1 #
edge $-1 $175 -2.1298927578626397e-016 $175 6.2831853071796004 $109 $176 forward 7 unknown #
loop $-1 $-1 $116 $69 #
plane-surface $-1 -54.938204373441273 -40.03576732800515 8.3767313172505453 0 -0.69465837861970381 0.71933979245794832 1 0 0 forward_v I I I I #
loop $-1 $-1 $177 $44 #
coedge $-1 $114 $114 $115 $178 reversed $70 $-1 #
coedge $-1 $115 $115 $114 $178 forward $72 $-1 #
coedge $-1 $116 $116 $73 $117 forward $111 $-1 #
edge $-1 $179 -2.1298927578626397e-016 $179 6.2831853071796004 $116 $180 forward 7 unknown #
face $-1 $181 $182 $25 $-1 $183 forward single #
loop $-1 $-1 $184 $74 #
plane-surface $-1 12.710812072928942 100.16695009436756 154.31289315174479 -1 0 0 0 0.80901700255871778 0.5877852410284794 forward_v I I I I #
coedge $-1 $185 $186 $187 $188 reversed $75 $-1 #
coedge $-1 $123 $77 $189 $190 reversed $48 $-1 #
coedge $-1 $77 $122 $185 $191 reversed $48 $-1 #
coedge $-1 $187 $192 $77 $125 forward $182 $-1 #
edge $-1 $193 10.047707719178653 $194 14.427661865624088 $124 $195 forward 7 unknown #
loop $-1 $-1 $131 $78 #
plane-surface $-1 -5.7826784059317617 -7.0290989692981185 76.43040695317525 0 0.80901700255871778 0.5877852410284794 1 0 0 forward_v I I I I #
loop $-1 $-1 $196 $50 #
coedge $-1 $129 $129 $130 $197 reversed $79 $-1 #
coedge $-1 $130 $130 $129 $197 forward $81 $-1 #
coedge $-1 $131 $131 $82 $132 forward $126 $-1 #
edge $-1 $198 3.9221699118706815e-015 $198 6.283185307179604 $131 $199 forward 7 unknown #
loop $-1 $-1 $138 $83 #
plane-surface $-1 -5.7826784059317617 -7.0290989692981185 76.43040695317525 0 0.80901700255871778 0.5877852410284794 1 0 0 forward_v I I I I #
loop $-1 $-1 $200 $53 #
coedge $-1 $136 $136 $137 $201 reversed $84 $-1 #
coedge $-1 $137 $137 $136 $201 forward $86 $-1 #
coedge $-1 $138 $138 $87 $139 forward $133 $-1 #
edge $-1 $202 3.9221699118706815e-015 $202 6.283185307179604 $138 $203 forward 7 unknown #
face $-1 $204 $205 $21 $-1 $206 reversed single #
loop $-1 $-1 $207 $88 #
plane-surface $-1 -66.250801110873738 0 0 1 0 0 0 0 -1 forward_v I I I I #
coedge $-1 $208 $151 $209 $210 forward $89 $-1 #
coedge $-1 $211 $91 $208 $212 forward $57 $-1 #
coedge $-1 $91 $211 $213 $214 forward $57 $-1 #
coedge $-1 $154 $153 $91 $147 reversed $155 $-1 #
edge $-1 $215 -40.035767328005129 $216 40.035767328005129 $146 $217 forward 7 unknown #
coedge $-1 $93 $92 $218 $219 forward $36 $-1 #
coedge $-1 $220 $221 $92 $150 reversed $205 $-1 #
edge $-1 $157 -66.250801110873738 $222 66.250801110873738 $149 $223 forward 7 unknown #
coedge $-1 $143 $224 $93 $152 reversed $89 $-1 #
edge $-1 $225 -66.250801110873738 $156 66.250801110873738 $151 $226 forward 7 unknown #
coedge $-1 $146 $94 $224 $227 forward $155 $-1 #
coedge $-1 $94 $146 $220 $228 reversed $155 $-1 #
loop $-1 $-1 $153 $204 #
vertex $-1 $95 $229 #
vertex $-1 $95 $230 #
straight-curve $-1 66.250801110873738 0 17.679663871662605 0 1 0 I I #
face $-1 $-1 $231 $22 $-1 $232 reversed single #
loop $-1 $-1 $233 $96 #
plane-surface $-1 -66.250801110873738 0 0 1 0 0 0 0 -1 forward_v I I I I #
coedge $-1 $234 $99 $101 $168 forward $61 $-1 #
coedge $-1 $99 $234 $233 $235 reversed $61 $-1 #
coedge $-1 $236 $102 $99 $165 forward $97 $-1 #
edge $-1 $171 16.156505449288172 $237 38.781698924153105 $164 $238 forward 7 unknown #
coedge $-1 $239 $240 $100 $167 forward $231 $-1 #
edge $-1 $241 -43.468471862643433 $170 -34.165539308231395 $166 $242 forward 7 unknown #
edge $-1 $171 -13.392097239073284 $241 -3.0141183865118795e-014 $101 $243 forward 7 unknown #
coedge $-1 $102 $236 $239 $244 forward $97 $-1 #
vertex $-1 $167 $245 #
vertex $-1 $103 $246 #
straight-curve $-1 -43.625607636008809 -66.039557745938595 17.679663871662605 0 1 0 I I #
coedge $-1 $173 $173 $-1 $247 reversed $106 $-1 #
edge $-1 $248 0 $248 6.2831853071796004 $107 $249 forward 7 unknown #
vertex $-1 $110 $250 #
ellipse-curve $-1 -59.786460118055189 -35.219033103739321 13.028197594456588 0 -0.69465837861970381 0.71933979245794832 2.5 0 0 1 I I #
coedge $-1 $177 $177 $-1 $251 reversed $113 $-1 #
edge $-1 $252 0 $252 6.2831853071796004 $114 $253 forward 7 unknown #
vertex $-1 $117 $254 #
ellipse-curve $-1 -50.089948628827358 -35.219033103739321 13.028197594456588 0 -0.69465837861970381 0.71933979245794832 2.5 0 0 1 I I #
face $-1 $-1 $255 $25 $-1 $256 reversed single #
loop $-1 $-1 $124 $118 #
plane-surface $-1 0 0 17.679663871662605 0 0 1 1 0 0 forward_v I I I I #
coedge $-1 $257 $258 $259 $260 reversed $119 $-1 #
coedge $-1 $261 $121 $123 $191 forward $75 $-1 #
coedge $-1 $121 $261 $257 $262 forward $75 $-1 #
coedge $-1 $259 $124 $121 $188 forward $182 $-1 #
edge $-1 $194 -21.384829681826584 $263 15.602151275894823 $187 $264 forward 7 unknown #
coedge $-1 $265 $266 $122 $190 forward $255 $-1 #
edge $-1 $267 -65.505272580379071 $193 -59.476782704209789 $189 $268 forward 7 unknown #
edge $-1 $194 72.619911442774111 $267 80.071534656010286 $123 $269 forward 7 unknown #
coedge $-1 $124 $259 $265 $270 forward $182 $-1 #
vertex $-1 $190 $271 #
vertex $-1 $125 $272 #
straight-curve $-1 -24.276168884792465 50.083475047183782 17.679663871662612 0 -1 0 I I #
coedge $-1 $196 $196 $-1 $273 reversed $128 $-1 #
edge $-1 $274 0 $274 6.2831853071796004 $129 $275 forward 7 unknown #
vertex $-1 $132 $276 #
ellipse-curve $-1 -13.708460039729204 37.845790254782393 14.66541893357798 0 0.80901700255871778 0.5877852410284794 1.5 0 0 1 I I #
coedge $-1 $200 $200 $-1 $277 reversed $135 $-1 #
edge $-1 $278 0 $278 6.2831853071796004 $136 $279 forward 7 unknown #
vertex $-1 $139 $280 #
ellipse-curve $-1 2.1431032278656943 37.845790254782393 14.66541893357798 0 0.80901700255871778 0.5877852410284794 1.5 0 0 1 I I #
face $-1 $-1 $155 $21 $-1 $281 reversed single #
loop $-1 $-1 $220 $140 #
plane-surface $-1 0 40.035767328005129 0 0 -1 0 0 0 -1 forward_v I I I I #
coedge $-1 $282 $218 $221 $283 forward $141 $-1 #
coedge $-1 $224 $143 $144 $212 reversed $89 $-1 #
coedge $-1 $218 $282 $143 $210 reversed $141 $-1 #
edge $-1 $225 -17.679663871662605 $284 17.679663871662605 $209 $285 forward 7 unknown #
coedge $-1 $145 $144 $282 $286 forward $57 $-1 #
edge $-1 $216 -66.250801110873738 $284 66.250801110873738 $208 $287 forward 7 unknown #
coedge $-1 $221 $220 $145 $214 reversed $205 $-1 #
edge $-1 $288 -66.250801110873738 $215 66.250801110873738 $213 $289 forward 7 unknown #
vertex $-1 $147 $290 #
vertex $-1 $227 $291 #
straight-curve $-1 66.250801110873738 0 -17.679663871662605 0 -1 0 I I #
coedge $-1 $207 $209 $148 $219 reversed $141 $-1 #
edge $-1 $222 -40.035767328005129 $225 40.035767328005129 $218 $292 forward 7 unknown #
coedge $-1 $213 $149 $154 $228 forward $205 $-1 #
coedge $-1 $149 $213 $207 $283 reversed $205 $-1 #
vertex $-1 $150 $293 #
straight-curve $-1 0 40.035767328005129 17.679663871662605 -1 0 0 I I #
coedge $-1 $151 $208 $153 $227 reversed $89 $-1 #
vertex $-1 $219 $294 #
straight-curve $-1 0 -40.035767328005129 17.679663871662605 1 0 0 I I #
edge $-1 $156 -17.679663871662605 $216 17.679663871662605 $153 $295 forward 7 unknown #
edge $-1 $157 -17.679663871662605 $215 17.679663871662605 $154 $296 forward 7 unknown #
point $-1 66.250801110873738 -40.035767328005129 17.679663871662605 #
point $-1 66.250801110873738 40.035767328005129 17.679663871662605 #
loop $-1 $-1 $166 $159 #
plane-surface $-1 0 -40.035767328005129 0 0 1 0 0 0 1 forward_v I I I I #
coedge $-1 $297 $298 $163 $235 forward $160 $-1 #
coedge $-1 $163 $162 $240 $299 reversed $61 $-1 #
edge $-1 $237 -1.9019202562493942 $300 11.490176982823858 $233 $301 forward 7 unknown #
coedge $-1 $169 $164 $298 $302 forward $97 $-1 #
vertex $-1 $302 $303 #
straight-curve $-1 -27.469102186720637 -30.402298879473506 17.679663871662605 -1 0 0 I I #
coedge $-1 $304 $166 $169 $244 reversed $231 $-1 #
coedge $-1 $166 $304 $234 $299 forward $231 $-1 #
vertex $-1 $167 $305 #
straight-curve $-1 -43.625607636008809 -40.035767328005129 51.845203179894 0 0 1 I I #
straight-curve $-1 -43.625607636008809 -40.03576732800515 8.3767313172505453 0 -0.71933979245794832 -0.69465837861970381 I I #
edge $-1 $306 -66.250801110873738 $170 -43.625607636008809 $239 $307 forward 7 unknown #
point $-1 -43.625607636008809 -40.035767328005129 17.679663871662605 #
point $-1 -43.625607636008809 -30.402298879473513 17.679663871662605 #
edge $-1 $308 1 $308 0 $173 $-1 forward 7 unknown #
vertex $-1 $174 $309 #
ellipse-curve $-1 -59.786460118055189 -30.105077984792239 7.7325421656510951 0 -0.69465837861970381 0.71933979245794832 2.5 0 0 1 I I #
point $-1 -57.286460118055189 -35.219033103739292 13.028197594456557 #
edge $-1 $310 1 $310 0 $177 $-1 forward 7 unknown #
vertex $-1 $178 $311 #
ellipse-curve $-1 -50.089948628827358 -30.105077984792239 7.7325421656510951 0 -0.69465837861970381 0.71933979245794832 2.5 0 0 1 I I #
point $-1 -47.589948628827358 -35.219033103739292 13.028197594456557 #
loop $-1 $-1 $189 $181 #
plane-surface $-1 0 40.035767328005129 0 0 -1 0 0 0 -1 forward_v I I I I #
coedge $-1 $258 $184 $186 $262 reversed $119 $-1 #
coedge $-1 $184 $257 $312 $313 reversed $119 $-1 #
coedge $-1 $192 $187 $184 $260 forward $182 $-1 #
edge $-1 $263 -14.427661865624088 $314 -10.047707719178653 $259 $315 forward 7 unknown #
coedge $-1 $186 $185 $266 $316 reversed $75 $-1 #
edge $-1 $317 -80.071534656010286 $263 -72.619911442774111 $257 $318 forward 7 unknown #
vertex $-1 $188 $319 #
straight-curve $-1 -2.8913392029658809 35.655813181559701 17.679663871662612 1 0 0 I I #
coedge $-1 $312 $189 $192 $270 reversed $255 $-1 #
coedge $-1 $189 $312 $261 $316 forward $255 $-1 #
vertex $-1 $190 $320 #
straight-curve $-1 -24.276168884792465 40.035767328005129 77.156446575872394 0 0 1 I I #
straight-curve $-1 -24.276168884792465 -7.0290989692981185 76.43040695317525 0 0.5877852410284794 -0.80901700255871778 I I #
edge $-1 $314 -12.710812072928942 $193 24.276168884792465 $265 $321 forward 7 unknown #
point $-1 -24.276168884792465 40.035767328005129 17.679663871662605 #
point $-1 -24.276168884792465 35.655813181559694 17.679663871662612 #
edge $-1 $322 1 $322 0 $196 $-1 forward 7 unknown #
vertex $-1 $197 $323 #
ellipse-curve $-1 -13.708460039729204 34.573378574764909 12.287872748516332 0 0.80901700255871778 0.5877852410284794 1.5 0 0 1 I I #
point $-1 -12.208460039729204 37.845790254782386 14.665418933577968 #
edge $-1 $324 1 $324 0 $200 $-1 forward 7 unknown #
vertex $-1 $201 $325 #
ellipse-curve $-1 2.1431032278656943 34.573378574764909 12.287872748516332 0 0.80901700255871778 0.5877852410284794 1.5 0 0 1 I I #
point $-1 3.6431032278656943 37.845790254782386 14.665418933577968 #
plane-surface $-1 66.250801110873738 0 0 -1 0 0 0 0 1 forward_v I I I I #
coedge $-1 $209 $207 $211 $286 reversed $141 $-1 #
edge $-1 $222 -17.679663871662605 $288 17.679663871662605 $221 $326 forward 7 unknown #
vertex $-1 $286 $327 #
straight-curve $-1 -66.250801110873738 -40.035767328005129 0 0 0 -1 I I #
edge $-1 $284 -40.035767328005129 $288 40.035767328005129 $282 $328 forward 7 unknown #
straight-curve $-1 0 -40.035767328005129 -17.679663871662605 -1 0 0 I I #
vertex $-1 $214 $329 #
straight-curve $-1 0 40.035767328005129 -17.679663871662605 1 0 0 I I #
point $-1 66.250801110873738 40.035767328005129 -17.679663871662605 #
point $-1 66.250801110873738 -40.035767328005129 -17.679663871662605 #
straight-curve $-1 -66.250801110873738 0 17.679663871662605 0 -1 0 I I #
point $-1 -66.250801110873738 40.035767328005129 17.679663871662605 #
point $-1 -66.250801110873738 -40.035767328005129 17.679663871662605 #
straight-curve $-1 66.250801110873738 -40.035767328005129 0 0 0 -1 I I #
straight-curve $-1 66.250801110873738 40.035767328005129 0 0 0 -1 I I #
coedge $-1 $298 $233 $304 $330 reversed $160 $-1 #
coedge $-1 $233 $297 $236 $302 reversed $160 $-1 #
edge $-1 $300 -38.781698924153105 $241 -16.156505449288172 $240 $331 forward 7 unknown #
vertex $-1 $235 $332 #
straight-curve $-1 -66.250801110873738 -31.770425801875518 16.358479030192427 0 -0.71933979245794832 -0.69465837861970381 I I #
edge $-1 $237 30.402298879473513 $306 40.035767328005129 $298 $333 forward 7 unknown #
point $-1 -66.250801110873738 -30.402298879473513 17.679663871662605 #
coedge $-1 $240 $239 $297 $330 forward $231 $-1 #
point $-1 -43.625607636008809 -40.035767328005129 8.3767313172505666 #
vertex $-1 $302 $334 #
straight-curve $-1 0 -40.035767328005129 17.679663871662605 1 0 0 I I #
vertex $-1 $247 $335 #
point $-1 -57.286460118055189 -30.105077984792239 7.7325421656510951 #
vertex $-1 $251 $336 #
point $-1 -47.589948628827358 -30.105077984792239 7.7325421656510951 #
coedge $-1 $266 $265 $258 $313 forward $255 $-1 #
edge $-1 $314 59.476782704209789 $317 65.505272580379071 $312 $337 forward 7 unknown #
vertex $-1 $270 $338 #
straight-curve $-1 12.710812072928942 50.083475047183782 17.679663871662612 0 1 0 I I #
edge $-1 $317 -15.602151275894823 $267 21.384829681826584 $266 $339 forward 7 unknown #
vertex $-1 $316 $340 #
straight-curve $-1 12.710812072928942 -7.0290989692981185 76.43040695317525 0 -0.5877852410284794 0.80901700255871778 I I #
point $-1 12.710812072928942 35.655813181559694 17.679663871662612 #
point $-1 -24.276168884792465 40.035767328005129 11.651173995493323 #
straight-curve $-1 0 40.035767328005129 17.679663871662605 -1 0 0 I I #
vertex $-1 $273 $341 #
point $-1 -12.208460039729204 34.573378574764909 12.287872748516332 #
vertex $-1 $277 $342 #
point $-1 3.6431032278656943 34.573378574764909 12.287872748516332 #
straight-curve $-1 -66.250801110873738 40.035767328005129 0 0 0 -1 I I #
point $-1 -66.250801110873738 -40.035767328005129 -17.679663871662605 #
straight-curve $-1 -66.250801110873738 0 -17.679663871662605 0 1 0 I I #
point $-1 -66.250801110873738 40.035767328005129 -17.679663871662605 #
edge $-1 $306 -17.679663871662605 $300 -8.3767313172505666 $297 $343 forward 7 unknown #
straight-curve $-1 -27.469102186720637 -40.035767328005129 8.3767313172505649 1 0 0 I I #
point $-1 -66.250801110873738 -40.035767328005129 8.3767313172505666 #
straight-curve $-1 -66.250801110873738 0 17.679663871662605 0 -1 0 I I #
point $-1 -66.250801110873738 -40.035767328005129 17.679663871662605 #
point $-1 -59.786460118055189 -28.368432038242979 5.9341926845062236 #
point $-1 -50.089948628827358 -28.368432038242979 5.9341926845062236 #
straight-curve $-1 12.710812072928942 40.035767328005129 77.156446575872394 0 0 -1 I I #
point $-1 12.710812072928942 40.035767328005129 17.679663871662605 #
straight-curve $-1 -2.8913392029658809 40.035767328005129 11.651173995493316 -1 0 0 I I #
point $-1 12.710812072928942 40.035767328005129 11.651173995493323 #
point $-1 -13.708460039729204 33.359853070926839 11.406194886973612 #
point $-1 2.1431032278656943 33.359853070926839 11.406194886973612 #
straight-curve $-1 -66.250801110873738 -40.035767328005129 0 0 0 -1 I I #
End-of-ACIS-data 