500 0 5 0           
7 Unknown 11 ACIS 5.0 NT 24 Thu Mar 25 21:56:32 1999 
-1 9.9999999999999995e-007 1e-010 
body $-1 $5 $-1 $6 #
body $-1 $7 $-1 $8 #
body $-1 $9 $-1 $10 #
body $-1 $11 $-1 $12 #
body $-1 $13 $-1 $14 #
lump $-1 $-1 $15 $0 #
transform $-1 1 0 0 0 1 0 0 0 1 67.146824549089018 46.977571766046516 20.422562770256032 1 rotate no_reflect no_shear #
lump $-1 $-1 $16 $1 #
transform $-1 1 0 0 0 1 0 0 0 1 67.146824549089018 46.977571766046516 20.422562770256032 1 rotate no_reflect no_shear #
lump $-1 $-1 $17 $2 #
transform $-1 1 0 0 0 1 0 0 0 1 67.146824549089018 46.977571766046516 20.422562770256032 1 rotate no_reflect no_shear #
lump $-1 $-1 $18 $3 #
transform $-1 1 0 0 0 1 0 0 0 1 67.146824549089018 46.977571766046516 20.422562770256032 1 rotate no_reflect no_shear #
lump $-1 $-1 $19 $4 #
transform $-1 1 0 0 0 1 0 0 0 1 67.146824549089018 46.977571766046516 20.422562770256032 1 rotate no_reflect no_shear #
shell $-1 $-1 $-1 $20 $-1 $5 #
shell $-1 $-1 $-1 $21 $-1 $7 #
shell $-1 $-1 $-1 $22 $-1 $9 #
shell $-1 $-1 $-1 $23 $-1 $11 #
shell $-1 $-1 $-1 $24 $-1 $13 #
face $-1 $25 $26 $15 $-1 $27 forward single #
face $-1 $28 $29 $16 $-1 $30 forward single #
face $-1 $31 $32 $17 $-1 $33 reversed single #
face $-1 $34 $35 $18 $-1 $36 forward single #
face $-1 $37 $38 $19 $-1 $39 reversed single #
face $-1 $40 $41 $15 $-1 $42 reversed single #
loop $-1 $-1 $43 $20 #
plane-surface $-1 0 0 20.422562770256032 0 0 1 1 0 0 forward_v I I I I #
face $-1 $44 $45 $16 $-1 $46 forward single #
loop $-1 $-1 $47 $21 #
plane-surface $-1 -45.924067249286153 35.60863880858961 172.26412908372885 -1 0 0 0 0.51503808176128008 0.85716729658548041 forward_v I I I I #
face $-1 $48 $49 $17 $-1 $50 reversed single #
loop $-1 $51 $52 $22 #
cone-surface $-1 -56.535445899187586 35.648621610101841 11.887025589990165 0 -0.51503808176128008 -0.85716729658548041 5 0 0 1 I I 0 1 5 forward I I I I #
face $-1 $53 $54 $18 $-1 $55 forward single #
loop $-1 $-1 $56 $23 #
plane-surface $-1 56.535445899187579 -33.557704615658459 57.152004937644435 0 0.51503808176128008 0.85716729658548041 1 0 0 forward_v I I I I #
face $-1 $57 $58 $19 $-1 $59 reversed single #
loop $-1 $60 $61 $24 #
cone-surface $-1 56.535445899187579 35.648621610101841 11.887025589990165 0 -0.51503808176128008 -0.85716729658548041 5 0 0 1 I I 0 1 5 forward I I I I #
face $-1 $62 $63 $15 $-1 $64 reversed single #
loop $-1 $-1 $65 $25 #
plane-surface $-1 0 0 -20.422562770256032 0 0 1 1 0 0 forward_v I I I I #
coedge $-1 $66 $67 $68 $69 forward $26 $-1 #
face $-1 $70 $71 $16 $-1 $72 reversed single #
loop $-1 $-1 $73 $28 #
plane-surface $-1 -56.535445899187586 -33.557704615658459 57.152004937644435 0 0.51503808176128008 0.85716729658548041 1 0 0 forward_v I I I I #
coedge $-1 $74 $75 $76 $77 reversed $29 $-1 #
face $-1 $78 $79 $17 $-1 $80 forward single #
loop $-1 $81 $82 $31 #
cone-surface $-1 -56.535445899187586 32.735686495284959 7.039087532753836 0 -0.51503808176128008 -0.85716729658548041 2.5 0 0 1 I I -0.70710678118654746 0.70710678118654746 2.5 forward I I I I #
loop $-1 $-1 $83 $22 #
coedge $-1 $52 $52 $84 $85 reversed $32 $-1 #
face $-1 $86 $87 $18 $-1 $88 reversed single #
loop $-1 $-1 $89 $34 #
plane-surface $-1 45.924067249286146 35.60863880858961 172.26412908372885 1 0 0 0 -0.51503808176128008 -0.85716729658548041 forward_v I I I I #
coedge $-1 $90 $91 $92 $93 reversed $35 $-1 #
face $-1 $94 $95 $19 $-1 $96 forward single #
loop $-1 $97 $98 $37 #
cone-surface $-1 56.535445899187579 32.735686495284959 7.039087532753836 0 -0.51503808176128008 -0.85716729658548041 2.5 0 0 1 I I -0.70710678118654746 0.70710678118654746 2.5 forward I I I I #
loop $-1 $-1 $99 $24 #
coedge $-1 $61 $61 $100 $101 reversed $38 $-1 #
face $-1 $102 $103 $15 $-1 $104 reversed single #
loop $-1 $-1 $105 $40 #
plane-surface $-1 0 -46.977571766046516 0 0 1 0 0 0 1 forward_v I I I I #
coedge $-1 $106 $107 $108 $109 forward $41 $-1 #
coedge $-1 $110 $43 $111 $112 forward $26 $-1 #
coedge $-1 $43 $110 $113 $114 forward $26 $-1 #
coedge $-1 $115 $116 $43 $69 reversed $117 $-1 #
edge $-1 $118 -46.977571766046516 $119 46.977571766046516 $68 $120 forward 7 unknown #
face $-1 $121 $122 $16 $-1 $123 forward single #
loop $-1 $-1 $124 $44 #
plane-surface $-1 0 46.977571766046516 0 0 -1 0 0 0 -1 forward_v I I I I #
coedge $-1 $125 $126 $124 $127 reversed $45 $-1 #
coedge $-1 $75 $47 $126 $128 forward $29 $-1 #
coedge $-1 $47 $74 $129 $130 reversed $29 $-1 #
coedge $-1 $131 $124 $47 $77 forward $71 $-1 #
edge $-1 $132 -77.370536500594923 $133 -65.709501771608387 $76 $134 forward 7 unknown #
face $-1 $135 $136 $17 $-1 $137 forward single #
loop $-1 $-1 $138 $48 #
plane-surface $-1 -45.924067249286153 35.60863880858961 172.26412908372885 -1 0 0 0 0.51503808176128008 0.85716729658548041 forward_v I I I I #
loop $-1 $-1 $139 $31 #
coedge $-1 $82 $82 $83 $140 forward $49 $-1 #
coedge $-1 $83 $83 $82 $140 reversed $51 $-1 #
coedge $-1 $84 $84 $52 $85 forward $136 $-1 #
edge $-1 $141 -1.7773658298432436e-016 $141 6.2831853071796004 $84 $142 forward 7 unknown #
face $-1 $143 $144 $18 $-1 $145 reversed single #
loop $-1 $-1 $146 $53 #
plane-surface $-1 0 46.977571766046516 0 0 -1 0 0 0 -1 forward_v I I I I #
coedge $-1 $147 $148 $146 $149 reversed $54 $-1 #
coedge $-1 $150 $56 $148 $151 reversed $35 $-1 #
coedge $-1 $56 $150 $152 $153 reversed $35 $-1 #
coedge $-1 $154 $146 $56 $93 forward $87 $-1 #
edge $-1 $155 17.656344299692357 $156 38.879101599495229 $92 $157 forward 7 unknown #
face $-1 $158 $159 $19 $-1 $160 forward single #
loop $-1 $161 $100 $57 #
plane-surface $-1 56.535445899187579 -33.557704615658459 57.152004937644435 0 0.51503808176128008 0.85716729658548041 1 0 0 forward_v I I I I #
loop $-1 $-1 $162 $37 #
coedge $-1 $98 $98 $99 $163 forward $58 $-1 #
coedge $-1 $99 $99 $98 $163 reversed $60 $-1 #
coedge $-1 $100 $100 $61 $101 forward $95 $-1 #
edge $-1 $164 -1.7773658298432436e-016 $164 6.2831853071796004 $100 $165 forward 7 unknown #
face $-1 $166 $167 $15 $-1 $168 reversed single #
loop $-1 $-1 $169 $62 #
plane-surface $-1 -67.146824549089018 0 0 1 0 0 0 0 -1 forward_v I I I I #
coedge $-1 $170 $113 $171 $172 forward $63 $-1 #
coedge $-1 $173 $65 $170 $174 forward $41 $-1 #
coedge $-1 $65 $173 $175 $176 forward $41 $-1 #
coedge $-1 $116 $115 $65 $109 reversed $117 $-1 #
edge $-1 $177 -46.977571766046516 $178 46.977571766046516 $108 $179 forward 7 unknown #
coedge $-1 $67 $66 $180 $181 forward $26 $-1 #
coedge $-1 $182 $183 $66 $112 reversed $167 $-1 #
edge $-1 $119 -67.146824549089018 $184 67.146824549089018 $111 $185 forward 7 unknown #
coedge $-1 $105 $186 $67 $114 reversed $63 $-1 #
edge $-1 $187 -67.146824549089018 $118 67.146824549089018 $113 $188 forward 7 unknown #
coedge $-1 $108 $68 $186 $189 forward $117 $-1 #
coedge $-1 $68 $108 $182 $190 reversed $117 $-1 #
loop $-1 $-1 $115 $166 #
vertex $-1 $69 $191 #
vertex $-1 $69 $192 #
straight-curve $-1 67.146824549089018 0 20.422562770256032 0 1 0 I I #
face $-1 $193 $194 $16 $-1 $195 reversed single #
loop $-1 $-1 $129 $70 #
plane-surface $-1 0 0 20.422562770256032 0 0 1 1 0 0 forward_v I I I I #
coedge $-1 $76 $196 $73 $127 forward $71 $-1 #
coedge $-1 $197 $73 $198 $199 reversed $45 $-1 #
coedge $-1 $73 $197 $74 $128 reversed $45 $-1 #
edge $-1 $200 -38.879101599495229 $132 -17.656344299692361 $124 $201 forward 7 unknown #
edge $-1 $132 -93.955143532093032 $202 -71.314031851362159 $74 $203 forward 7 unknown #
coedge $-1 $204 $205 $75 $130 forward $122 $-1 #
edge $-1 $133 -29.173252361751711 $202 -9.7660318706896838 $129 $206 forward 7 unknown #
coedge $-1 $207 $76 $205 $208 reversed $71 $-1 #
vertex $-1 $127 $209 #
vertex $-1 $130 $210 #
straight-curve $-1 -45.924067249286153 46.977571766046516 86.132064541864423 0 0 1 I I #
face $-1 $211 $212 $17 $-1 $213 reversed single #
loop $-1 $214 $84 $78 #
plane-surface $-1 -56.535445899187586 -33.557704615658459 57.152004937644435 0 0.51503808176128008 0.85716729658548041 1 0 0 forward_v I I I I #
coedge $-1 $215 $216 $217 $218 reversed $79 $-1 #
coedge $-1 $139 $139 $-1 $219 forward $81 $-1 #
edge $-1 $220 0 $220 6.2831853071796004 $82 $221 forward 7 unknown #
vertex $-1 $85 $222 #
ellipse-curve $-1 -56.535445899187586 37.273961520515506 14.592045405762756 0 -0.51503808176128008 -0.85716729658548041 5 0 0 1 I I #
face $-1 $223 $224 $18 $-1 $225 reversed single #
loop $-1 $-1 $152 $86 #
plane-surface $-1 67.146824549089018 0 0 -1 0 0 0 0 1 forward_v I I I I #
coedge $-1 $92 $226 $89 $149 forward $87 $-1 #
coedge $-1 $148 $89 $227 $228 reversed $54 $-1 #
coedge $-1 $89 $147 $90 $151 forward $54 $-1 #
edge $-1 $229 65.709501771608387 $155 77.370536500594923 $146 $230 forward 7 unknown #
coedge $-1 $91 $90 $231 $232 reversed $35 $-1 #
edge $-1 $233 71.314031851362159 $155 93.955143532093032 $148 $234 forward 7 unknown #
coedge $-1 $235 $236 $91 $153 forward $144 $-1 #
edge $-1 $156 -64.855130563636209 $237 -42.214018882905336 $152 $238 forward 7 unknown #
coedge $-1 $239 $92 $236 $240 forward $87 $-1 #
vertex $-1 $93 $241 #
vertex $-1 $240 $242 #
straight-curve $-1 28.267722949593789 46.977571766046516 8.7615280412694965 1 0 0 I I #
face $-1 $243 $244 $19 $-1 $245 reversed single #
loop $-1 $-1 $246 $94 #
plane-surface $-1 45.924067249286146 35.60863880858961 172.26412908372885 1 0 0 0 -0.51503808176128008 -0.85716729658548041 forward_v I I I I #
loop $-1 $-1 $247 $57 #
coedge $-1 $162 $162 $-1 $248 forward $97 $-1 #
edge $-1 $249 0 $249 6.2831853071796004 $98 $250 forward 7 unknown #
vertex $-1 $101 $251 #
ellipse-curve $-1 56.535445899187579 37.273961520515506 14.592045405762756 0 -0.51503808176128008 -0.85716729658548041 5 0 0 1 I I #
face $-1 $-1 $117 $15 $-1 $252 reversed single #
loop $-1 $-1 $182 $102 #
plane-surface $-1 0 46.977571766046516 0 0 -1 0 0 0 -1 forward_v I I I I #
coedge $-1 $253 $180 $183 $254 forward $103 $-1 #
coedge $-1 $186 $105 $106 $174 reversed $63 $-1 #
coedge $-1 $180 $253 $105 $172 reversed $103 $-1 #
edge $-1 $187 -20.422562770256032 $255 20.422562770256032 $171 $256 forward 7 unknown #
coedge $-1 $107 $106 $253 $257 forward $41 $-1 #
edge $-1 $178 -67.146824549089018 $255 67.146824549089018 $170 $258 forward 7 unknown #
coedge $-1 $183 $182 $107 $176 reversed $167 $-1 #
edge $-1 $259 -67.146824549089018 $177 67.146824549089018 $175 $260 forward 7 unknown #
vertex $-1 $109 $261 #
vertex $-1 $189 $262 #
straight-curve $-1 67.146824549089018 0 -20.422562770256032 0 -1 0 I I #
coedge $-1 $169 $171 $110 $181 reversed $103 $-1 #
edge $-1 $184 -46.977571766046516 $187 46.977571766046516 $180 $263 forward 7 unknown #
coedge $-1 $175 $111 $116 $190 forward $167 $-1 #
coedge $-1 $111 $175 $169 $254 reversed $167 $-1 #
vertex $-1 $112 $264 #
straight-curve $-1 0 46.977571766046516 20.422562770256032 -1 0 0 I I #
coedge $-1 $113 $170 $115 $189 reversed $63 $-1 #
vertex $-1 $181 $265 #
straight-curve $-1 0 -46.977571766046516 20.422562770256032 1 0 0 I I #
edge $-1 $118 -20.422562770256032 $178 20.422562770256032 $115 $266 forward 7 unknown #
edge $-1 $119 -20.422562770256032 $177 20.422562770256032 $116 $267 forward 7 unknown #
point $-1 67.146824549089018 -46.977571766046516 20.422562770256032 #
point $-1 67.146824549089018 46.977571766046516 20.422562770256032 #
face $-1 $268 $269 $16 $-1 $270 reversed single #
loop $-1 $-1 $271 $121 #
plane-surface $-1 0 0 -20.422562770256032 0 0 1 1 0 0 forward_v I I I I #
coedge $-1 $124 $272 $273 $274 reversed $71 $-1 #
coedge $-1 $126 $125 $204 $275 reversed $45 $-1 #
coedge $-1 $273 $276 $125 $199 forward $277 $-1 #
edge $-1 $278 42.214018882905336 $200 64.855130563636209 $198 $279 forward 7 unknown #
vertex $-1 $274 $280 #
straight-curve $-1 -28.267722949593793 46.977571766046516 8.7615280412694965 1 0 0 I I #
vertex $-1 $275 $281 #
straight-curve $-1 -45.924067249286153 -33.557704615658459 57.152004937644435 0 -0.85716729658548041 0.51503808176128008 I I #
coedge $-1 $282 $129 $197 $275 forward $122 $-1 #
coedge $-1 $129 $283 $131 $208 forward $122 $-1 #
straight-curve $-1 -45.924067249286153 17.804319404294805 20.422562770256036 0 -1 0 I I #
coedge $-1 $272 $131 $284 $285 forward $71 $-1 #
edge $-1 $286 -67.146824549089018 $133 45.924067249286153 $131 $287 forward 7 unknown #
point $-1 -45.924067249286153 46.977571766046516 8.7615280412695 #
point $-1 -45.924067249286153 46.977571766046516 20.422562770256032 #
face $-1 $288 $289 $17 $-1 $290 forward single #
loop $-1 $-1 $291 $135 #
plane-surface $-1 0 46.977571766046516 0 0 -1 0 0 0 -1 forward_v I I I I #
loop $-1 $-1 $292 $78 #
coedge $-1 $216 $138 $293 $294 forward $79 $-1 #
coedge $-1 $138 $215 $295 $296 reversed $79 $-1 #
coedge $-1 $297 $291 $138 $218 forward $212 $-1 #
edge $-1 $298 -77.370536500594923 $299 -65.709501771608387 $217 $300 forward 7 unknown #
edge $-1 $301 1 $301 0 $139 $-1 forward 7 unknown #
vertex $-1 $140 $302 #
ellipse-curve $-1 -56.535445899187586 34.023281699688162 9.1820057742175365 0 0.51503808176128008 0.85716729658548041 5 0 0 1 I I #
point $-1 -51.535445899187586 37.273961520515527 14.592045405762789 #
face $-1 $303 $304 $18 $-1 $305 reversed single #
loop $-1 $306 $307 $143 #
cone-surface $-1 -56.535445899187586 35.648621610101841 11.887025589990165 0 -0.51503808176128008 -0.85716729658548041 5 0 0 1 I I 0 1 5 forward I I I I #
coedge $-1 $146 $308 $309 $310 reversed $87 $-1 #
coedge $-1 $309 $231 $147 $228 forward $311 $-1 #
edge $-1 $233 9.7660318706896838 $229 29.173252361751711 $227 $312 forward 7 unknown #
vertex $-1 $310 $313 #
straight-curve $-1 45.924067249286146 46.977571766046516 86.132064541864423 0 0 -1 I I #
coedge $-1 $227 $314 $150 $232 forward $311 $-1 #
edge $-1 $237 -38.879101599495229 $233 -17.656344299692357 $231 $315 forward 7 unknown #
vertex $-1 $232 $316 #
straight-curve $-1 45.924067249286146 -33.557704615658459 57.152004937644435 0 0.85716729658548041 -0.51503808176128008 I I #
coedge $-1 $317 $152 $314 $318 reversed $144 $-1 #
coedge $-1 $152 $319 $154 $240 reversed $144 $-1 #
vertex $-1 $232 $320 #
straight-curve $-1 67.146824549089018 -8.6141251688838985 42.164390079142052 0 -0.85716729658548041 0.51503808176128008 I I #
coedge $-1 $321 $154 $322 $323 reversed $87 $-1 #
edge $-1 $156 -8.7615280412695 $324 20.422562770256032 $236 $325 forward 7 unknown #
point $-1 45.924067249286146 46.977571766046516 8.7615280412695 #
point $-1 67.146824549089018 46.977571766046516 8.7615280412695 #
face $-1 $326 $327 $19 $-1 $328 reversed single #
loop $-1 $-1 $329 $158 #
plane-surface $-1 0 46.977571766046516 0 0 -1 0 0 0 -1 forward_v I I I I #
coedge $-1 $330 $331 $329 $332 reversed $159 $-1 #
coedge $-1 $333 $334 $335 $336 reversed $161 $-1 #
edge $-1 $337 1 $337 0 $162 $-1 forward 7 unknown #
vertex $-1 $163 $338 #
ellipse-curve $-1 56.535445899187579 34.023281699688162 9.1820057742175365 0 0.51503808176128008 0.85716729658548041 5 0 0 1 I I #
point $-1 61.535445899187579 37.273961520515527 14.592045405762789 #
plane-surface $-1 67.146824549089018 0 0 -1 0 0 0 0 1 forward_v I I I I #
coedge $-1 $171 $169 $173 $257 reversed $103 $-1 #
edge $-1 $184 -20.422562770256032 $259 20.422562770256032 $183 $339 forward 7 unknown #
vertex $-1 $257 $340 #
straight-curve $-1 -67.146824549089018 -46.977571766046516 0 0 0 -1 I I #
edge $-1 $255 -46.977571766046516 $259 46.977571766046516 $253 $341 forward 7 unknown #
straight-curve $-1 0 -46.977571766046516 -20.422562770256032 -1 0 0 I I #
vertex $-1 $176 $342 #
straight-curve $-1 0 46.977571766046516 -20.422562770256032 1 0 0 I I #
point $-1 67.146824549089018 46.977571766046516 -20.422562770256032 #
point $-1 67.146824549089018 -46.977571766046516 -20.422562770256032 #
straight-curve $-1 -67.146824549089018 0 20.422562770256032 0 -1 0 I I #
point $-1 -67.146824549089018 46.977571766046516 20.422562770256032 #
point $-1 -67.146824549089018 -46.977571766046516 20.422562770256032 #
straight-curve $-1 67.146824549089018 -46.977571766046516 0 0 0 -1 I I #
straight-curve $-1 67.146824549089018 46.977571766046516 0 0 0 -1 I I #
face $-1 $343 $277 $16 $-1 $344 reversed single #
loop $-1 $-1 $345 $193 #
plane-surface $-1 0 -46.977571766046516 0 0 1 0 0 0 1 forward_v I I I I #
coedge $-1 $346 $347 $348 $349 forward $194 $-1 #
coedge $-1 $196 $207 $347 $350 reversed $71 $-1 #
coedge $-1 $351 $198 $196 $274 forward $277 $-1 #
edge $-1 $200 -8.7615280412694965 $352 20.422562770256032 $196 $353 forward 7 unknown #
edge $-1 $202 17.656344299692361 $278 38.879101599495229 $204 $354 forward 7 unknown #
coedge $-1 $198 $355 $282 $356 reversed $277 $-1 #
loop $-1 $-1 $198 $268 #
vertex $-1 $356 $357 #
straight-curve $-1 -67.146824549089018 -8.6141251688838985 42.164390079142052 0 0.85716729658548041 -0.51503808176128008 I I #
point $-1 -67.146824549089018 46.977571766046516 8.7615280412694965 #
point $-1 -45.924067249286153 27.570351274984489 20.422562770256036 #
coedge $-1 $358 $204 $276 $356 forward $122 $-1 #
coedge $-1 $205 $358 $359 $360 forward $122 $-1 #
coedge $-1 $359 $348 $207 $285 reversed $361 $-1 #
edge $-1 $286 -20.422562770256032 $362 20.422562770256032 $284 $363 forward 7 unknown #
vertex $-1 $360 $364 #
straight-curve $-1 0 46.977571766046516 20.422562770256032 -1 0 0 I I #
face $-1 $365 $366 $17 $-1 $367 reversed single #
loop $-1 $-1 $295 $211 #
plane-surface $-1 0 0 20.422562770256032 0 0 1 1 0 0 forward_v I I I I #
coedge $-1 $217 $368 $292 $369 forward $212 $-1 #
coedge $-1 $370 $293 $291 $369 reversed $214 $-1 #
coedge $-1 $292 $371 $215 $294 reversed $214 $-1 #
edge $-1 $298 -93.955143532093032 $372 -71.314031851362159 $215 $373 forward 7 unknown #
coedge $-1 $374 $375 $216 $296 forward $289 $-1 #
edge $-1 $299 -29.173252361751711 $372 -9.7660318706896838 $295 $376 forward 7 unknown #
coedge $-1 $377 $217 $375 $378 reversed $212 $-1 #
vertex $-1 $369 $379 #
vertex $-1 $296 $380 #
straight-curve $-1 -45.924067249286153 46.977571766046516 86.132064541864423 0 0 1 I I #
vertex $-1 $219 $381 #
point $-1 -51.535445899187586 34.023281699688162 9.1820057742175365 #
face $-1 $382 $383 $18 $-1 $384 forward single #
loop $-1 $385 $386 $223 #
cone-surface $-1 -56.535445899187586 32.735686495284959 7.039087532753836 0 -0.51503808176128008 -0.85716729658548041 2.5 0 0 1 I I -0.70710678118654746 0.70710678118654746 2.5 forward I I I I #
loop $-1 $-1 $387 $143 #
coedge $-1 $307 $307 $388 $389 reversed $224 $-1 #
coedge $-1 $226 $390 $391 $392 forward $87 $-1 #
coedge $-1 $393 $227 $226 $310 forward $311 $-1 #
edge $-1 $229 -45.924067249286146 $394 45.924067249286153 $226 $395 forward 7 unknown #
loop $-1 $-1 $227 $396 #
straight-curve $-1 45.924067249286146 17.804319404294805 20.422562770256036 0 1 0 I I #
point $-1 45.924067249286146 46.977571766046516 20.422562770256032 #
coedge $-1 $231 $397 $235 $318 forward $311 $-1 #
straight-curve $-1 28.267722949593789 27.570351274984493 20.422562770256032 -1 0 0 I I #
point $-1 45.924067249286146 27.570351274984489 20.422562770256036 #
coedge $-1 $319 $235 $398 $399 forward $144 $-1 #
edge $-1 $400 -46.977571766046516 $237 27.570351274984489 $235 $401 forward 7 unknown #
coedge $-1 $236 $317 $402 $403 reversed $144 $-1 #
point $-1 67.146824549089018 27.570351274984489 20.422562770256036 #
coedge $-1 $390 $239 $404 $405 reversed $87 $-1 #
coedge $-1 $402 $406 $239 $323 forward $407 $-1 #
edge $-1 $408 -67.146824549089018 $324 67.146824549089018 $239 $409 forward 7 unknown #
vertex $-1 $403 $410 #
straight-curve $-1 67.146824549089018 46.977571766046516 0 0 0 -1 I I #
face $-1 $411 $412 $19 $-1 $413 reversed single #
loop $-1 $-1 $414 $243 #
plane-surface $-1 67.146824549089018 0 0 -1 0 0 0 0 1 forward_v I I I I #
coedge $-1 $335 $415 $246 $332 forward $244 $-1 #
coedge $-1 $331 $246 $416 $417 reversed $159 $-1 #
coedge $-1 $246 $330 $333 $418 forward $159 $-1 #
edge $-1 $419 65.709501771608387 $420 77.370536500594923 $329 $421 forward 7 unknown #
coedge $-1 $422 $247 $331 $418 reversed $161 $-1 #
coedge $-1 $247 $422 $414 $423 reversed $161 $-1 #
coedge $-1 $424 $329 $247 $336 forward $244 $-1 #
edge $-1 $420 17.656344299692357 $425 38.879101599495229 $335 $426 forward 7 unknown #
vertex $-1 $248 $427 #
point $-1 61.535445899187579 34.023281699688162 9.1820057742175365 #
straight-curve $-1 -67.146824549089018 46.977571766046516 0 0 0 -1 I I #
point $-1 -67.146824549089018 -46.977571766046516 -20.422562770256032 #
straight-curve $-1 -67.146824549089018 0 -20.422562770256032 0 1 0 I I #
point $-1 -67.146824549089018 46.977571766046516 -20.422562770256032 #
face $-1 $-1 $361 $16 $-1 $428 reversed single #
plane-surface $-1 -67.146824549089018 0 0 1 0 0 0 0 -1 forward_v I I I I #
coedge $-1 $429 $430 $355 $431 forward $269 $-1 #
coedge $-1 $432 $271 $429 $433 forward $194 $-1 #
coedge $-1 $271 $432 $272 $350 forward $194 $-1 #
coedge $-1 $284 $434 $271 $349 reversed $361 $-1 #
edge $-1 $362 -46.977571766046516 $435 46.977571766046516 $348 $436 forward 7 unknown #
edge $-1 $352 -67.146824549089018 $362 67.146824549089018 $272 $437 forward 7 unknown #
coedge $-1 $355 $273 $432 $438 reversed $277 $-1 #
vertex $-1 $350 $439 #
straight-curve $-1 -67.146824549089018 46.977571766046516 0 0 0 -1 I I #
straight-curve $-1 -28.267722949593793 27.570351274984493 20.422562770256032 -1 0 0 I I #
coedge $-1 $276 $351 $345 $431 reversed $277 $-1 #
edge $-1 $278 -27.570351274984489 $440 46.977571766046516 $276 $441 forward 7 unknown #
point $-1 -67.146824549089018 27.570351274984489 20.422562770256036 #
coedge $-1 $283 $282 $430 $442 forward $122 $-1 #
coedge $-1 $434 $284 $283 $360 reversed $361 $-1 #
edge $-1 $443 -46.977571766046516 $286 46.977571766046516 $359 $444 forward 7 unknown #
loop $-1 $-1 $434 $343 #
vertex $-1 $349 $445 #
straight-curve $-1 67.146824549089018 46.977571766046516 0 0 0 -1 I I #
point $-1 67.146824549089018 46.977571766046516 20.422562770256032 #
face $-1 $446 $447 $17 $-1 $448 reversed single #
loop $-1 $-1 $449 $288 #
plane-surface $-1 0 0 -20.422562770256032 0 0 1 1 0 0 forward_v I I I I #
coedge $-1 $291 $450 $451 $452 reversed $212 $-1 #
edge $-1 $453 -38.879101599495229 $298 -17.656344299692361 $291 $454 forward 7 unknown #
coedge $-1 $371 $292 $455 $456 reversed $214 $-1 #
coedge $-1 $293 $370 $374 $457 reversed $214 $-1 #
vertex $-1 $457 $458 #
straight-curve $-1 -45.924067249286153 -33.557704615658459 57.152004937644435 0 -0.85716729658548041 0.51503808176128008 I I #
coedge $-1 $459 $295 $371 $457 forward $289 $-1 #
coedge $-1 $295 $460 $297 $378 forward $289 $-1 #
straight-curve $-1 -45.924067249286153 17.804319404294805 20.422562770256036 0 -1 0 I I #
coedge $-1 $450 $297 $461 $462 forward $212 $-1 #
edge $-1 $463 -67.146824549089018 $299 45.924067249286153 $297 $464 forward 7 unknown #
point $-1 -45.924067249286153 46.977571766046516 8.7615280412695 #
point $-1 -45.924067249286153 46.977571766046516 20.422562770256032 #
point $-1 -56.535445899187586 31.448091290881759 4.8961692912901356 #
face $-1 $396 $465 $18 $-1 $466 forward single #
loop $-1 $-1 $391 $303 #
plane-surface $-1 -45.924067249286153 35.60863880858961 172.26412908372885 -1 0 0 0 0.51503808176128008 0.85716729658548041 forward_v I I I I #
loop $-1 $-1 $467 $223 #
coedge $-1 $386 $386 $387 $468 forward $304 $-1 #
coedge $-1 $387 $387 $386 $468 reversed $306 $-1 #
coedge $-1 $388 $388 $307 $389 forward $465 $-1 #
edge $-1 $469 -1.7773658298432436e-016 $469 6.2831853071796004 $388 $470 forward 7 unknown #
coedge $-1 $308 $321 $471 $472 forward $87 $-1 #
coedge $-1 $473 $474 $308 $392 reversed $383 $-1 #
edge $-1 $475 -77.370536500594923 $394 -65.709501771608387 $308 $476 forward 7 unknown #
coedge $-1 $477 $309 $474 $478 forward $311 $-1 #
vertex $-1 $478 $479 #
straight-curve $-1 0 46.977571766046516 20.422562770256032 -1 0 0 I I #
face $-1 $480 $311 $18 $-1 $481 forward single #
coedge $-1 $314 $482 $483 $484 forward $311 $-1 #
coedge $-1 $483 $485 $317 $399 reversed $486 $-1 #
edge $-1 $400 -20.422562770256032 $487 20.422562770256032 $317 $488 forward 7 unknown #
vertex $-1 $318 $489 #
straight-curve $-1 67.146824549089018 0 20.422562770256032 0 1 0 I I #
coedge $-1 $490 $322 $319 $403 forward $407 $-1 #
edge $-1 $324 -46.977571766046516 $487 46.977571766046516 $319 $491 forward 7 unknown #
coedge $-1 $492 $493 $321 $405 forward $494 $-1 #
edge $-1 $495 -8.7615280412694965 $408 20.422562770256032 $321 $496 forward 7 unknown #
coedge $-1 $322 $490 $492 $497 forward $407 $-1 #
loop $-1 $-1 $402 $480 #
vertex $-1 $323 $498 #
straight-curve $-1 0 46.977571766046516 -20.422562770256032 1 0 0 I I #
point $-1 67.146824549089018 46.977571766046516 -20.422562770256032 #
face $-1 $499 $500 $19 $-1 $501 reversed single #
loop $-1 $502 $503 $326 #
cone-surface $-1 -56.535445899187586 35.648621610101841 11.887025589990165 0 -0.51503808176128008 -0.85716729658548041 5 0 0 1 I I 0 1 5 forward I I I I #
coedge $-1 $504 $505 $334 $423 forward $327 $-1 #
coedge $-1 $329 $506 $507 $508 reversed $244 $-1 #
coedge $-1 $507 $509 $330 $417 forward $510 $-1 #
edge $-1 $511 9.7660318706896838 $419 29.173252361751711 $416 $512 forward 7 unknown #
edge $-1 $511 71.314031851362159 $420 93.955143532093032 $331 $513 forward 7 unknown #
vertex $-1 $508 $514 #
vertex $-1 $336 $515 #
straight-curve $-1 45.924067249286146 46.977571766046516 86.132064541864423 0 0 -1 I I #
coedge $-1 $334 $333 $509 $516 reversed $161 $-1 #
edge $-1 $425 -64.855130563636209 $517 -42.214018882905336 $414 $518 forward 7 unknown #
coedge $-1 $519 $335 $505 $520 forward $244 $-1 #
vertex $-1 $520 $521 #
straight-curve $-1 28.267722949593789 46.977571766046516 8.7615280412694965 1 0 0 I I #
point $-1 56.535445899187579 31.448091290881759 4.8961692912901356 #
plane-surface $-1 67.146824549089018 0 0 -1 0 0 0 0 1 forward_v I I I I #
coedge $-1 $522 $345 $346 $433 reversed $269 $-1 #
coedge $-1 $345 $522 $358 $442 reversed $269 $-1 #
edge $-1 $440 -20.422562770256032 $523 20.422562770256032 $355 $524 forward 7 unknown #
coedge $-1 $347 $346 $351 $438 forward $194 $-1 #
edge $-1 $435 -67.146824549089018 $523 67.146824549089018 $429 $525 forward 7 unknown #
coedge $-1 $348 $359 $522 $526 forward $361 $-1 #
vertex $-1 $526 $527 #
straight-curve $-1 67.146824549089018 0 -20.422562770256032 0 -1 0 I I #
straight-curve $-1 0 46.977571766046516 -20.422562770256032 1 0 0 I I #
edge $-1 $523 -46.977571766046516 $352 46.977571766046516 $351 $528 forward 7 unknown #
point $-1 -67.146824549089018 46.977571766046516 -20.422562770256032 #
vertex $-1 $356 $529 #
straight-curve $-1 -67.146824549089018 0 20.422562770256032 0 -1 0 I I #
edge $-1 $440 -67.146824549089018 $443 67.146824549089018 $430 $530 forward 7 unknown #
vertex $-1 $360 $531 #
straight-curve $-1 67.146824549089018 0 20.422562770256032 0 1 0 I I #
point $-1 67.146824549089018 46.977571766046516 -20.422562770256032 #
face $-1 $532 $533 $17 $-1 $534 reversed single #
loop $-1 $-1 $535 $365 #
plane-surface $-1 0 -46.977571766046516 0 0 1 0 0 0 1 forward_v I I I I #
coedge $-1 $536 $537 $538 $539 forward $366 $-1 #
coedge $-1 $368 $377 $537 $540 reversed $212 $-1 #
coedge $-1 $541 $455 $368 $452 forward $533 $-1 #
edge $-1 $453 -8.7615280412694965 $542 20.422562770256032 $368 $543 forward 7 unknown #
vertex $-1 $452 $544 #
straight-curve $-1 -28.267722949593793 46.977571766046516 8.7615280412694965 1 0 0 I I #
coedge $-1 $451 $545 $370 $456 forward $533 $-1 #
edge $-1 $546 42.214018882905336 $453 64.855130563636209 $455 $547 forward 7 unknown #
edge $-1 $372 17.656344299692361 $546 38.879101599495229 $374 $548 forward 7 unknown #
point $-1 -45.924067249286153 27.570351274984489 20.422562770256036 #
coedge $-1 $549 $374 $545 $550 forward $289 $-1 #
coedge $-1 $375 $549 $551 $552 forward $289 $-1 #
coedge $-1 $551 $538 $377 $462 reversed $553 $-1 #
edge $-1 $463 -20.422562770256032 $554 20.422562770256032 $461 $555 forward 7 unknown #
vertex $-1 $552 $556 #
straight-curve $-1 0 46.977571766046516 20.422562770256032 -1 0 0 I I #
loop $-1 $557 $388 $382 #
plane-surface $-1 -56.535445899187586 -33.557704615658459 57.152004937644435 0 0.51503808176128008 0.85716729658548041 1 0 0 forward_v I I I I #
coedge $-1 $467 $467 $-1 $558 forward $385 $-1 #
edge $-1 $559 0 $559 6.2831853071796004 $386 $560 forward 7 unknown #
vertex $-1 $389 $561 #
ellipse-curve $-1 -56.535445899187586 37.273961520515506 14.592045405762756 0 -0.51503808176128008 -0.85716729658548041 5 0 0 1 I I #
coedge $-1 $562 $563 $390 $472 reversed $557 $-1 #
edge $-1 $495 -38.879101599495229 $475 -17.656344299692361 $390 $564 forward 7 unknown #
coedge $-1 $474 $391 $563 $565 forward $383 $-1 #
coedge $-1 $391 $473 $393 $478 reversed $383 $-1 #
vertex $-1 $472 $566 #
straight-curve $-1 -45.924067249286153 46.977571766046516 86.132064541864423 0 0 1 I I #
coedge $-1 $482 $393 $567 $568 forward $311 $-1 #
edge $-1 $394 -29.173252361751711 $569 -9.7660318706896838 $393 $570 forward 7 unknown #
point $-1 -45.924067249286153 46.977571766046516 20.422562770256032 #
face $-1 $571 $407 $18 $-1 $572 reversed single #
plane-surface $-1 0 0 20.422562770256032 0 0 1 1 0 0 forward_v I I I I #
coedge $-1 $397 $477 $573 $574 forward $311 $-1 #
coedge $-1 $575 $398 $397 $484 reversed $486 $-1 #
edge $-1 $576 -67.146824549089018 $400 67.146824549089018 $483 $577 forward 7 unknown #
coedge $-1 $398 $575 $490 $578 reversed $486 $-1 #
loop $-1 $-1 $575 $571 #
vertex $-1 $399 $579 #
straight-curve $-1 67.146824549089018 -46.977571766046516 0 0 0 -1 I I #
point $-1 67.146824549089018 -46.977571766046516 20.422562770256032 #
coedge $-1 $406 $402 $485 $578 forward $407 $-1 #
straight-curve $-1 67.146824549089018 0 -20.422562770256032 0 -1 0 I I #
coedge $-1 $580 $404 $406 $497 reversed $494 $-1 #
coedge $-1 $404 $573 $562 $581 forward $494 $-1 #
loop $-1 $-1 $493 $582 #
vertex $-1 $405 $583 #
straight-curve $-1 -67.146824549089018 46.977571766046516 0 0 0 -1 I I #
edge $-1 $584 -46.977571766046516 $408 46.977571766046516 $492 $585 forward 7 unknown #
point $-1 -67.146824549089018 46.977571766046516 -20.422562770256032 #
face $-1 $586 $587 $19 $-1 $588 forward single #
loop $-1 $589 $590 $411 #
cone-surface $-1 -56.535445899187586 32.735686495284959 7.039087532753836 0 -0.51503808176128008 -0.85716729658548041 2.5 0 0 1 I I -0.70710678118654746 0.70710678118654746 2.5 forward I I I I #
loop $-1 $-1 $591 $326 #
coedge $-1 $503 $503 $592 $593 reversed $412 $-1 #
coedge $-1 $594 $414 $595 $596 reversed $327 $-1 #
coedge $-1 $414 $597 $424 $520 reversed $327 $-1 #
coedge $-1 $415 $598 $599 $600 forward $244 $-1 #
coedge $-1 $601 $416 $415 $508 forward $510 $-1 #
edge $-1 $419 -45.924067249286146 $602 45.924067249286153 $415 $603 forward 7 unknown #
coedge $-1 $416 $595 $422 $516 forward $510 $-1 #
loop $-1 $-1 $416 $604 #
vertex $-1 $516 $605 #
straight-curve $-1 45.924067249286146 17.804319404294805 20.422562770256036 0 1 0 I I #
straight-curve $-1 45.924067249286146 -33.557704615658459 57.152004937644435 0 0.85716729658548041 -0.51503808176128008 I I #
point $-1 45.924067249286146 46.977571766046516 20.422562770256032 #
point $-1 45.924067249286146 46.977571766046516 8.7615280412695 #
edge $-1 $517 -38.879101599495229 $511 -17.656344299692357 $509 $606 forward 7 unknown #
vertex $-1 $516 $607 #
straight-curve $-1 67.146824549089018 -8.6141251688838985 42.164390079142052 0 -0.85716729658548041 0.51503808176128008 I I #
coedge $-1 $608 $424 $609 $610 reversed $244 $-1 #
edge $-1 $425 -8.7615280412695 $611 20.422562770256032 $505 $612 forward 7 unknown #
point $-1 67.146824549089018 46.977571766046516 8.7615280412695 #
coedge $-1 $430 $429 $434 $526 reversed $269 $-1 #
vertex $-1 $438 $613 #
straight-curve $-1 -67.146824549089018 -46.977571766046516 0 0 0 -1 I I #
straight-curve $-1 0 -46.977571766046516 -20.422562770256032 -1 0 0 I I #
edge $-1 $443 -20.422562770256032 $435 20.422562770256032 $434 $614 forward 7 unknown #
point $-1 67.146824549089018 -46.977571766046516 -20.422562770256032 #
straight-curve $-1 -67.146824549089018 0 -20.422562770256032 0 1 0 I I #
point $-1 -67.146824549089018 -46.977571766046516 20.422562770256032 #
straight-curve $-1 0 -46.977571766046516 20.422562770256032 1 0 0 I I #
point $-1 67.146824549089018 -46.977571766046516 20.422562770256032 #
face $-1 $-1 $553 $17 $-1 $615 reversed single #
loop $-1 $-1 $455 $446 #
plane-surface $-1 -67.146824549089018 0 0 1 0 0 0 0 -1 forward_v I I I I #
coedge $-1 $616 $617 $618 $619 forward $447 $-1 #
coedge $-1 $620 $449 $616 $621 forward $366 $-1 #
coedge $-1 $449 $620 $450 $540 forward $366 $-1 #
coedge $-1 $461 $622 $449 $539 reversed $553 $-1 #
edge $-1 $554 -46.977571766046516 $623 46.977571766046516 $538 $624 forward 7 unknown #
edge $-1 $542 -67.146824549089018 $554 67.146824549089018 $450 $625 forward 7 unknown #
coedge $-1 $618 $451 $620 $626 reversed $533 $-1 #
vertex $-1 $540 $627 #
straight-curve $-1 -67.146824549089018 46.977571766046516 0 0 0 -1 I I #
point $-1 -67.146824549089018 46.977571766046516 8.7615280412694965 #
coedge $-1 $455 $618 $459 $550 reversed $533 $-1 #
vertex $-1 $550 $628 #
straight-curve $-1 -67.146824549089018 -8.6141251688838985 42.164390079142052 0 0.85716729658548041 -0.51503808176128008 I I #
straight-curve $-1 -28.267722949593793 27.570351274984493 20.422562770256032 -1 0 0 I I #
coedge $-1 $460 $459 $617 $629 forward $289 $-1 #
edge $-1 $546 -27.570351274984489 $630 46.977571766046516 $545 $631 forward 7 unknown #
coedge $-1 $622 $461 $460 $552 reversed $553 $-1 #
edge $-1 $632 -46.977571766046516 $463 46.977571766046516 $551 $633 forward 7 unknown #
loop $-1 $-1 $622 $532 #
vertex $-1 $539 $634 #
straight-curve $-1 67.146824549089018 46.977571766046516 0 0 0 -1 I I #
point $-1 67.146824549089018 46.977571766046516 20.422562770256032 #
loop $-1 $-1 $471 $382 #
edge $-1 $635 1 $635 0 $467 $-1 forward 7 unknown #
vertex $-1 $468 $636 #
ellipse-curve $-1 -56.535445899187586 34.023281699688162 9.1820057742175365 0 0.51503808176128008 0.85716729658548041 5 0 0 1 I I #
point $-1 -51.535445899187586 37.273961520515527 14.592045405762789 #
coedge $-1 $567 $471 $493 $581 reversed $557 $-1 #
coedge $-1 $471 $567 $473 $565 reversed $557 $-1 #
straight-curve $-1 -28.267722949593793 46.977571766046516 8.7615280412694965 1 0 0 I I #
edge $-1 $475 -93.955143532093032 $569 -71.314031851362159 $473 $637 forward 7 unknown #
point $-1 -45.924067249286153 46.977571766046516 8.7615280412695 #
coedge $-1 $563 $562 $477 $568 reversed $557 $-1 #
edge $-1 $569 17.656344299692361 $638 38.879101599495229 $477 $639 forward 7 unknown #
vertex $-1 $568 $640 #
straight-curve $-1 -45.924067249286153 17.804319404294805 20.422562770256036 0 -1 0 I I #
face $-1 $582 $486 $18 $-1 $641 reversed single #
plane-surface $-1 0 0 -20.422562770256032 0 0 1 1 0 0 forward_v I I I I #
coedge $-1 $493 $580 $482 $574 reversed $494 $-1 #
edge $-1 $638 -27.570351274984489 $576 46.977571766046516 $573 $642 forward 7 unknown #
coedge $-1 $485 $483 $580 $643 forward $486 $-1 #
vertex $-1 $574 $644 #
straight-curve $-1 0 -46.977571766046516 20.422562770256032 1 0 0 I I #
edge $-1 $487 -67.146824549089018 $584 67.146824549089018 $485 $645 forward 7 unknown #
point $-1 67.146824549089018 -46.977571766046516 -20.422562770256032 #
coedge $-1 $573 $492 $575 $643 reversed $494 $-1 #
edge $-1 $638 42.214018882905336 $495 64.855130563636209 $493 $646 forward 7 unknown #
face $-1 $-1 $494 $18 $-1 $647 reversed single #
point $-1 -67.146824549089018 46.977571766046516 8.7615280412694965 #
vertex $-1 $497 $648 #
straight-curve $-1 -67.146824549089018 0 -20.422562770256032 0 1 0 I I #
face $-1 $604 $649 $19 $-1 $650 forward single #
loop $-1 $-1 $599 $499 #
plane-surface $-1 -45.924067249286153 35.60863880858961 172.26412908372885 -1 0 0 0 0.51503808176128008 0.85716729658548041 forward_v I I I I #
loop $-1 $-1 $651 $411 #
coedge $-1 $590 $590 $591 $652 forward $500 $-1 #
coedge $-1 $591 $591 $590 $652 reversed $502 $-1 #
coedge $-1 $592 $592 $503 $593 forward $649 $-1 #
edge $-1 $653 -1.7773658298432436e-016 $653 6.2831853071796004 $592 $654 forward 7 unknown #
coedge $-1 $597 $504 $655 $656 forward $327 $-1 #
coedge $-1 $509 $657 $504 $596 forward $510 $-1 #
edge $-1 $658 -46.977571766046516 $517 27.570351274984489 $504 $659 forward 7 unknown #
coedge $-1 $505 $594 $660 $661 reversed $327 $-1 #
coedge $-1 $506 $608 $662 $663 forward $244 $-1 #
coedge $-1 $664 $665 $506 $600 reversed $587 $-1 #
edge $-1 $666 -77.370536500594923 $602 -65.709501771608387 $506 $667 forward 7 unknown #
coedge $-1 $668 $507 $665 $669 forward $510 $-1 #
vertex $-1 $669 $670 #
straight-curve $-1 0 46.977571766046516 20.422562770256032 -1 0 0 I I #
face $-1 $671 $510 $19 $-1 $672 forward single #
point $-1 45.924067249286146 27.570351274984489 20.422562770256036 #
straight-curve $-1 28.267722949593789 27.570351274984493 20.422562770256032 -1 0 0 I I #
point $-1 67.146824549089018 27.570351274984489 20.422562770256036 #
coedge $-1 $598 $519 $673 $674 reversed $244 $-1 #
coedge $-1 $660 $675 $519 $610 forward $676 $-1 #
edge $-1 $677 -67.146824549089018 $611 67.146824549089018 $519 $678 forward 7 unknown #
vertex $-1 $661 $679 #
straight-curve $-1 67.146824549089018 46.977571766046516 0 0 0 -1 I I #
point $-1 -67.146824549089018 -46.977571766046516 -20.422562770256032 #
straight-curve $-1 67.146824549089018 -46.977571766046516 0 0 0 -1 I I #
plane-surface $-1 67.146824549089018 0 0 -1 0 0 0 0 1 forward_v I I I I #
coedge $-1 $680 $535 $536 $621 reversed $447 $-1 #
coedge $-1 $535 $680 $549 $629 reversed $447 $-1 #
coedge $-1 $545 $541 $535 $619 reversed $533 $-1 #
edge $-1 $630 -20.422562770256032 $681 20.422562770256032 $618 $682 forward 7 unknown #
coedge $-1 $537 $536 $541 $626 forward $366 $-1 #
edge $-1 $623 -67.146824549089018 $681 67.146824549089018 $616 $683 forward 7 unknown #
coedge $-1 $538 $551 $680 $684 forward $553 $-1 #
vertex $-1 $684 $685 #
straight-curve $-1 67.146824549089018 0 -20.422562770256032 0 -1 0 I I #
straight-curve $-1 0 46.977571766046516 -20.422562770256032 1 0 0 I I #
edge $-1 $681 -46.977571766046516 $542 46.977571766046516 $541 $686 forward 7 unknown #
point $-1 -67.146824549089018 46.977571766046516 -20.422562770256032 #
point $-1 -67.146824549089018 27.570351274984489 20.422562770256036 #
edge $-1 $630 -67.146824549089018 $632 67.146824549089018 $617 $687 forward 7 unknown #
vertex $-1 $550 $688 #
straight-curve $-1 -67.146824549089018 0 20.422562770256032 0 -1 0 I I #
vertex $-1 $552 $689 #
straight-curve $-1 67.146824549089018 0 20.422562770256032 0 1 0 I I #
point $-1 67.146824549089018 46.977571766046516 -20.422562770256032 #
vertex $-1 $558 $690 #
point $-1 -51.535445899187586 34.023281699688162 9.1820057742175365 #
straight-curve $-1 -45.924067249286153 -33.557704615658459 57.152004937644435 0 -0.85716729658548041 0.51503808176128008 I I #
vertex $-1 $574 $691 #
straight-curve $-1 -28.267722949593793 27.570351274984493 20.422562770256032 -1 0 0 I I #
point $-1 -45.924067249286153 27.570351274984489 20.422562770256036 #
plane-surface $-1 0 -46.977571766046516 0 0 1 0 0 0 1 forward_v I I I I #
straight-curve $-1 -67.146824549089018 0 20.422562770256032 0 -1 0 I I #
edge $-1 $576 -20.422562770256032 $584 20.422562770256032 $580 $692 forward 7 unknown #
point $-1 -67.146824549089018 -46.977571766046516 20.422562770256032 #
straight-curve $-1 0 -46.977571766046516 -20.422562770256032 -1 0 0 I I #
straight-curve $-1 -67.146824549089018 -8.6141251688838985 42.164390079142052 0 0.85716729658548041 -0.51503808176128008 I I #
plane-surface $-1 -67.146824549089018 0 0 1 0 0 0 0 -1 forward_v I I I I #
point $-1 -67.146824549089018 -46.977571766046516 -20.422562770256032 #
loop $-1 $693 $592 $586 #
plane-surface $-1 -56.535445899187586 -33.557704615658459 57.152004937644435 0 0.51503808176128008 0.85716729658548041 1 0 0 forward_v I I I I #
coedge $-1 $651 $651 $-1 $694 forward $589 $-1 #
edge $-1 $695 0 $695 6.2831853071796004 $590 $696 forward 7 unknown #
vertex $-1 $593 $697 #
ellipse-curve $-1 -56.535445899187586 37.273961520515506 14.592045405762756 0 -0.51503808176128008 -0.85716729658548041 5 0 0 1 I I #
coedge $-1 $698 $699 $594 $656 reversed $700 $-1 #
edge $-1 $658 -20.422562770256032 $701 20.422562770256032 $594 $702 forward 7 unknown #
coedge $-1 $595 $703 $698 $704 forward $510 $-1 #
vertex $-1 $596 $705 #
straight-curve $-1 67.146824549089018 0 20.422562770256032 0 1 0 I I #
coedge $-1 $706 $609 $597 $661 forward $676 $-1 #
edge $-1 $611 -46.977571766046516 $701 46.977571766046516 $597 $707 forward 7 unknown #
coedge $-1 $708 $709 $598 $663 reversed $693 $-1 #
edge $-1 $710 -38.879101599495229 $666 -17.656344299692361 $598 $711 forward 7 unknown #
coedge $-1 $665 $599 $709 $712 forward $587 $-1 #
coedge $-1 $599 $664 $601 $669 reversed $587 $-1 #
vertex $-1 $663 $713 #
straight-curve $-1 -45.924067249286153 46.977571766046516 86.132064541864423 0 0 1 I I #
coedge $-1 $703 $601 $714 $715 forward $510 $-1 #
edge $-1 $602 -29.173252361751711 $716 -9.7660318706896838 $601 $717 forward 7 unknown #
point $-1 -45.924067249286153 46.977571766046516 20.422562770256032 #
face $-1 $718 $676 $19 $-1 $719 reversed single #
plane-surface $-1 0 0 20.422562770256032 0 0 1 1 0 0 forward_v I I I I #
coedge $-1 $720 $721 $608 $674 forward $722 $-1 #
edge $-1 $710 -8.7615280412694965 $677 20.422562770256032 $608 $723 forward 7 unknown #
coedge $-1 $609 $706 $720 $724 forward $676 $-1 #
loop $-1 $-1 $660 $671 #
vertex $-1 $610 $725 #
straight-curve $-1 0 46.977571766046516 -20.422562770256032 1 0 0 I I #
point $-1 67.146824549089018 46.977571766046516 -20.422562770256032 #
coedge $-1 $617 $616 $622 $684 reversed $447 $-1 #
vertex $-1 $626 $726 #
straight-curve $-1 -67.146824549089018 -46.977571766046516 0 0 0 -1 I I #
straight-curve $-1 0 -46.977571766046516 -20.422562770256032 -1 0 0 I I #
edge $-1 $632 -20.422562770256032 $623 20.422562770256032 $622 $727 forward 7 unknown #
point $-1 67.146824549089018 -46.977571766046516 -20.422562770256032 #
straight-curve $-1 -67.146824549089018 0 -20.422562770256032 0 1 0 I I #
straight-curve $-1 0 -46.977571766046516 20.422562770256032 1 0 0 I I #
point $-1 -67.146824549089018 -46.977571766046516 20.422562770256032 #
point $-1 67.146824549089018 -46.977571766046516 20.422562770256032 #
point $-1 -56.535445899187586 31.448091290881759 4.8961692912901356 #
point $-1 -67.146824549089018 27.570351274984489 20.422562770256036 #
straight-curve $-1 -67.146824549089018 -46.977571766046516 0 0 0 -1 I I #
loop $-1 $-1 $662 $586 #
edge $-1 $728 1 $728 0 $651 $-1 forward 7 unknown #
vertex $-1 $652 $729 #
ellipse-curve $-1 -56.535445899187586 34.023281699688162 9.1820057742175365 0 0.51503808176128008 0.85716729658548041 5 0 0 1 I I #
point $-1 -51.535445899187586 37.273961520515527 14.592045405762789 #
coedge $-1 $730 $655 $657 $704 reversed $700 $-1 #
coedge $-1 $655 $730 $706 $731 reversed $700 $-1 #
loop $-1 $-1 $730 $718 #
vertex $-1 $656 $732 #
straight-curve $-1 67.146824549089018 -46.977571766046516 0 0 0 -1 I I #
coedge $-1 $657 $668 $733 $734 forward $510 $-1 #
edge $-1 $735 -67.146824549089018 $658 67.146824549089018 $698 $736 forward 7 unknown #
point $-1 67.146824549089018 -46.977571766046516 20.422562770256032 #
coedge $-1 $675 $660 $699 $731 forward $676 $-1 #
straight-curve $-1 67.146824549089018 0 -20.422562770256032 0 -1 0 I I #
coedge $-1 $714 $662 $721 $737 reversed $693 $-1 #
coedge $-1 $662 $714 $664 $712 reversed $693 $-1 #
vertex $-1 $674 $738 #
straight-curve $-1 -28.267722949593793 46.977571766046516 8.7615280412694965 1 0 0 I I #
edge $-1 $666 -93.955143532093032 $716 -71.314031851362159 $664 $739 forward 7 unknown #
point $-1 -45.924067249286153 46.977571766046516 8.7615280412695 #
coedge $-1 $709 $708 $668 $715 reversed $693 $-1 #
edge $-1 $716 17.656344299692361 $740 38.879101599495229 $668 $741 forward 7 unknown #
vertex $-1 $715 $742 #
straight-curve $-1 -45.924067249286153 17.804319404294805 20.422562770256036 0 -1 0 I I #
face $-1 $743 $700 $19 $-1 $744 reversed single #
plane-surface $-1 0 0 -20.422562770256032 0 0 1 1 0 0 forward_v I I I I #
coedge $-1 $745 $673 $675 $724 reversed $722 $-1 #
coedge $-1 $673 $733 $708 $737 forward $722 $-1 #
loop $-1 $-1 $721 $743 #
straight-curve $-1 -67.146824549089018 46.977571766046516 0 0 0 -1 I I #
edge $-1 $746 -46.977571766046516 $677 46.977571766046516 $720 $747 forward 7 unknown #
point $-1 -67.146824549089018 46.977571766046516 -20.422562770256032 #
point $-1 -67.146824549089018 -46.977571766046516 -20.422562770256032 #
straight-curve $-1 67.146824549089018 -46.977571766046516 0 0 0 -1 I I #
vertex $-1 $694 $748 #
point $-1 -51.535445899187586 34.023281699688162 9.1820057742175365 #
coedge $-1 $699 $698 $745 $749 forward $700 $-1 #
edge $-1 $701 -67.146824549089018 $746 67.146824549089018 $699 $750 forward 7 unknown #
point $-1 67.146824549089018 -46.977571766046516 -20.422562770256032 #
coedge $-1 $721 $745 $703 $734 reversed $722 $-1 #
edge $-1 $740 -27.570351274984489 $735 46.977571766046516 $733 $751 forward 7 unknown #
vertex $-1 $734 $752 #
straight-curve $-1 0 -46.977571766046516 20.422562770256032 1 0 0 I I #
edge $-1 $740 42.214018882905336 $710 64.855130563636209 $721 $753 forward 7 unknown #
point $-1 -67.146824549089018 46.977571766046516 8.7615280412694965 #
straight-curve $-1 -45.924067249286153 -33.557704615658459 57.152004937644435 0 -0.85716729658548041 0.51503808176128008 I I #
vertex $-1 $734 $754 #
straight-curve $-1 -28.267722949593793 27.570351274984493 20.422562770256032 -1 0 0 I I #
point $-1 -45.924067249286153 27.570351274984489 20.422562770256036 #
face $-1 $-1 $722 $19 $-1 $755 reversed single #
plane-surface $-1 0 -46.977571766046516 0 0 1 0 0 0 1 forward_v I I I I #
coedge $-1 $733 $720 $730 $749 reversed $722 $-1 #
vertex $-1 $724 $756 #
straight-curve $-1 -67.146824549089018 0 -20.422562770256032 0 1 0 I I #
point $-1 -56.535445899187586 31.448091290881759 4.8961692912901356 #
edge $-1 $735 -20.422562770256032 $746 20.422562770256032 $745 $757 forward 7 unknown #
straight-curve $-1 0 -46.977571766046516 -20.422562770256032 -1 0 0 I I #
straight-curve $-1 -67.146824549089018 0 20.422562770256032 0 -1 0 I I #
point $-1 -67.146824549089018 -46.977571766046516 20.422562770256032 #
straight-curve $-1 -67.146824549089018 -8.6141251688838985 42.164390079142052 0 0.85716729658548041 -0.51503808176128008 I I #
point $-1 -67.146824549089018 27.570351274984489 20.422562770256036 #
plane-surface $-1 -67.146824549089018 0 0 1 0 0 0 0 -1 forward_v I I I I #
point $-1 -67.146824549089018 -46.977571766046516 -20.422562770256032 #
straight-curve $-1 -67.146824549089018 -46.977571766046516 0 0 0 -1 I I #
End-of-ACIS-data 