500 0 5 0           
7 Unknown 11 ACIS 5.0 NT 24 Fri Mar 26 18:08:45 1999 
-1 9.9999999999999995e-007 1e-010 
body $-1 $5 $-1 $6 #
body $-1 $7 $-1 $8 #
body $-1 $9 $-1 $10 #
body $-1 $11 $-1 $12 #
body $-1 $13 $-1 $14 #
lump $-1 $-1 $15 $0 #
transform $-1 1 0 0 0 1 0 0 0 1 69.435712759788814 31.765985660134103 10.176516149527259 1 rotate no_reflect no_shear #
lump $-1 $-1 $16 $1 #
transform $-1 1 0 0 0 1 0 0 0 1 69.435712759788814 31.765985660134103 10.176516149527259 1 rotate no_reflect no_shear #
lump $-1 $-1 $17 $2 #
transform $-1 1 0 0 0 1 0 0 0 1 69.435712759788814 31.765985660134103 10.176516149527259 1 rotate no_reflect no_shear #
lump $-1 $-1 $18 $3 #
transform $-1 1 0 0 0 1 0 0 0 1 69.435712759788814 31.765985660134103 10.176516149527259 1 rotate no_reflect no_shear #
lump $-1 $-1 $19 $4 #
transform $-1 1 0 0 0 1 0 0 0 1 69.435712759788814 31.765985660134103 10.176516149527259 1 rotate no_reflect no_shear #
shell $-1 $-1 $-1 $20 $-1 $5 #
shell $-1 $-1 $-1 $21 $-1 $7 #
shell $-1 $-1 $-1 $22 $-1 $9 #
shell $-1 $-1 $-1 $23 $-1 $11 #
shell $-1 $-1 $-1 $24 $-1 $13 #
face $-1 $25 $26 $15 $-1 $27 forward single #
face $-1 $28 $29 $16 $-1 $30 forward single #
face $-1 $31 $32 $17 $-1 $33 forward single #
face $-1 $34 $35 $18 $-1 $36 reversed single #
face $-1 $37 $38 $19 $-1 $39 forward single #
face $-1 $40 $41 $15 $-1 $42 reversed single #
loop $-1 $-1 $43 $20 #
plane-surface $-1 0 0 10.176516149527259 0 0 1 1 0 0 forward_v I I I I #
face $-1 $44 $45 $16 $-1 $46 reversed single #
loop $-1 $-1 $47 $21 #
plane-surface $-1 -69.435712759788814 0 0 1 0 0 0 0 -1 forward_v I I I I #
face $-1 $48 $49 $17 $-1 $50 reversed single #
loop $-1 $-1 $51 $22 #
plane-surface $-1 69.435712759788814 0 0 -1 0 0 0 0 1 forward_v I I I I #
face $-1 $52 $53 $18 $-1 $54 reversed single #
loop $-1 $-1 $55 $23 #
plane-surface $-1 -39.527514042299913 67.199897233303574 152.38638115334132 1 0 0 0 -0.61566148304635926 -0.78801074757464917 forward_v I I I I #
face $-1 $56 $57 $19 $-1 $58 forward single #
loop $-1 $59 $60 $24 #
cone-surface $-1 -32.960557736550228 25.490272252321621 4.1661061734479645 0 -0.61566148304635926 -0.78801074757464917 2.5 0 0 1 I I 0 1 2.5 forward I I I I #
face $-1 $61 $62 $15 $-1 $63 reversed single #
loop $-1 $-1 $64 $25 #
plane-surface $-1 0 0 -10.176516149527259 0 0 1 1 0 0 forward_v I I I I #
coedge $-1 $65 $66 $67 $68 forward $26 $-1 #
face $-1 $69 $70 $16 $-1 $71 reversed single #
loop $-1 $-1 $72 $28 #
plane-surface $-1 0 0 -10.176516149527259 0 0 1 1 0 0 forward_v I I I I #
coedge $-1 $73 $74 $75 $76 forward $29 $-1 #
face $-1 $77 $78 $17 $-1 $79 reversed single #
loop $-1 $-1 $80 $31 #
plane-surface $-1 0 0 -10.176516149527259 0 0 1 1 0 0 forward_v I I I I #
coedge $-1 $81 $82 $83 $84 forward $32 $-1 #
face $-1 $85 $86 $18 $-1 $87 reversed single #
loop $-1 $-1 $88 $34 #
plane-surface $-1 -32.960557736550228 -18.297890554841615 42.954205312901735 0 0.61566148304635926 0.78801074757464917 1 0 0 forward_v I I I I #
coedge $-1 $89 $90 $91 $92 reversed $35 $-1 #
face $-1 $-1 $93 $19 $-1 $94 forward single #
loop $-1 $95 $96 $37 #
cone-surface $-1 -32.960557736550228 22.500156038177774 0.33893202316065896 0 -0.61566148304635926 -0.78801074757464917 1.25 0 0 1 I I -0.70710678118654746 0.70710678118654768 1.25 forward I I I I #
loop $-1 $-1 $97 $24 #
coedge $-1 $60 $60 $98 $99 reversed $38 $-1 #
face $-1 $100 $101 $15 $-1 $102 reversed single #
loop $-1 $-1 $103 $40 #
plane-surface $-1 0 -31.765985660134103 0 0 1 0 0 0 1 forward_v I I I I #
coedge $-1 $104 $105 $106 $107 forward $41 $-1 #
coedge $-1 $108 $43 $109 $110 forward $26 $-1 #
coedge $-1 $43 $108 $111 $112 forward $26 $-1 #
coedge $-1 $113 $114 $43 $68 reversed $115 $-1 #
edge $-1 $116 -31.765985660134103 $117 31.765985660134103 $67 $118 forward 7 unknown #
face $-1 $119 $120 $16 $-1 $121 reversed single #
loop $-1 $-1 $122 $44 #
plane-surface $-1 -73.087900951755529 -14.412953361079584 0 0 1 0 0 0 1 forward_v I I I I #
coedge $-1 $123 $124 $74 $125 forward $45 $-1 #
coedge $-1 $126 $47 $127 $128 reversed $29 $-1 #
coedge $-1 $47 $126 $72 $125 reversed $29 $-1 #
coedge $-1 $129 $130 $47 $76 reversed $131 $-1 #
edge $-1 $132 -10.176516149527259 $133 10.176516149527259 $75 $134 forward 7 unknown #
face $-1 $135 $136 $17 $-1 $137 reversed single #
loop $-1 $-1 $83 $48 #
plane-surface $-1 73.087900951755515 -14.412953361079584 0 0 1 0 0 0 1 forward_v I I I I #
coedge $-1 $138 $139 $82 $140 forward $49 $-1 #
coedge $-1 $141 $51 $142 $143 reversed $32 $-1 #
coedge $-1 $51 $141 $80 $140 reversed $32 $-1 #
coedge $-1 $144 $145 $51 $84 reversed $78 $-1 #
edge $-1 $146 -10.176516149527259 $147 10.176516149527259 $83 $148 forward 7 unknown #
face $-1 $149 $150 $18 $-1 $151 reversed single #
loop $-1 $-1 $152 $52 #
plane-surface $-1 -26.393601430800544 67.199897233303574 152.38638115334132 -1 0 0 0 0.61566148304635926 0.78801074757464917 forward_v I I I I #
coedge $-1 $153 $154 $155 $156 reversed $53 $-1 #
coedge $-1 $90 $55 $157 $158 reversed $35 $-1 #
coedge $-1 $55 $89 $153 $159 reversed $35 $-1 #
coedge $-1 $155 $160 $55 $92 forward $161 $-1 #
edge $-1 $162 1.8339629565176843 $163 9.9443110514708906 $91 $164 forward 7 unknown #
loop $-1 $-1 $98 $56 #
plane-surface $-1 -32.960557736550228 -18.297890554841615 42.954205312901735 0 0.61566148304635926 0.78801074757464917 1 0 0 forward_v I I I I #
loop $-1 $-1 $165 $37 #
coedge $-1 $96 $96 $97 $166 reversed $57 $-1 #
coedge $-1 $97 $97 $96 $166 forward $59 $-1 #
coedge $-1 $98 $98 $60 $99 forward $93 $-1 #
edge $-1 $167 5.239227723080862e-017 $167 6.2831853071796004 $98 $168 forward 7 unknown #
face $-1 $169 $170 $15 $-1 $171 reversed single #
loop $-1 $-1 $172 $61 #
plane-surface $-1 -69.435712759788814 0 0 1 0 0 0 0 -1 forward_v I I I I #
coedge $-1 $173 $111 $174 $175 forward $62 $-1 #
coedge $-1 $176 $64 $173 $177 forward $41 $-1 #
coedge $-1 $64 $176 $178 $179 forward $41 $-1 #
coedge $-1 $114 $113 $64 $107 reversed $115 $-1 #
edge $-1 $180 -31.765985660134103 $181 31.765985660134103 $106 $182 forward 7 unknown #
coedge $-1 $66 $65 $183 $184 forward $26 $-1 #
coedge $-1 $185 $186 $65 $110 reversed $170 $-1 #
edge $-1 $117 -69.435712759788814 $187 69.435712759788814 $109 $188 forward 7 unknown #
coedge $-1 $103 $189 $66 $112 reversed $62 $-1 #
edge $-1 $190 -69.435712759788814 $116 69.435712759788814 $111 $191 forward 7 unknown #
coedge $-1 $106 $67 $189 $192 forward $115 $-1 #
coedge $-1 $67 $106 $185 $193 reversed $115 $-1 #
loop $-1 $-1 $113 $169 #
vertex $-1 $68 $194 #
vertex $-1 $68 $195 #
straight-curve $-1 69.435712759788814 0 10.176516149527259 0 1 0 I I #
face $-1 $196 $131 $16 $-1 $197 reversed single #
loop $-1 $-1 $198 $69 #
plane-surface $-1 -76.740089143722244 -12.912953361079584 0 1 0 0 0 0 -1 forward_v I I I I #
coedge $-1 $199 $200 $201 $202 forward $70 $-1 #
coedge $-1 $203 $72 $199 $204 forward $45 $-1 #
coedge $-1 $72 $203 $129 $205 forward $45 $-1 #
edge $-1 $132 11.412953361079584 $206 14.412953361079584 $72 $207 forward 7 unknown #
coedge $-1 $74 $73 $208 $209 forward $29 $-1 #
coedge $-1 $210 $211 $73 $128 forward $212 $-1 #
edge $-1 $213 -14.412953361079584 $133 -11.412953361079584 $127 $214 forward 7 unknown #
coedge $-1 $215 $75 $124 $205 reversed $131 $-1 #
coedge $-1 $75 $215 $210 $216 reversed $131 $-1 #
loop $-1 $-1 $75 $119 #
vertex $-1 $125 $217 #
vertex $-1 $216 $218 #
straight-curve $-1 -69.435712759788814 -11.412953361079584 0 0 0 1 I I #
face $-1 $219 $220 $17 $-1 $221 reversed single #
loop $-1 $-1 $222 $77 #
plane-surface $-1 73.087900951755515 -11.412953361079584 0 0 -1 0 0 0 -1 forward_v I I I I #
coedge $-1 $223 $80 $224 $225 forward $49 $-1 #
coedge $-1 $80 $223 $144 $226 forward $49 $-1 #
edge $-1 $146 -14.412953361079584 $227 -11.412953361079584 $80 $228 forward 7 unknown #
coedge $-1 $82 $81 $229 $230 forward $32 $-1 #
coedge $-1 $231 $232 $81 $143 forward $233 $-1 #
edge $-1 $234 11.412953361079584 $147 14.412953361079584 $142 $235 forward 7 unknown #
coedge $-1 $236 $83 $139 $226 reversed $78 $-1 #
coedge $-1 $83 $236 $231 $237 reversed $78 $-1 #
vertex $-1 $140 $238 #
vertex $-1 $237 $239 #
straight-curve $-1 69.435712759788814 -14.412953361079584 0 0 0 1 I I #
face $-1 $-1 $161 $18 $-1 $240 forward single #
loop $-1 $-1 $241 $85 #
plane-surface $-1 0 31.765985660134103 0 0 -1 0 0 0 -1 forward_v I I I I #
coedge $-1 $242 $243 $244 $245 reversed $86 $-1 #
coedge $-1 $246 $88 $90 $159 forward $53 $-1 #
coedge $-1 $88 $246 $242 $247 forward $53 $-1 #
coedge $-1 $244 $91 $88 $156 forward $161 $-1 #
edge $-1 $163 -23.047235174024799 $248 -9.9133225625254298 $155 $249 forward 7 unknown #
coedge $-1 $250 $251 $89 $158 forward $150 $-1 #
edge $-1 $252 -72.353172947664007 $162 -66.0166744271434 $157 $253 forward 7 unknown #
edge $-1 $163 53.239791778408716 $252 63.531971320268205 $90 $254 forward 7 unknown #
coedge $-1 $91 $244 $250 $255 forward $161 $-1 #
loop $-1 $-1 $244 $149 #
vertex $-1 $158 $256 #
vertex $-1 $92 $257 #
straight-curve $-1 -39.527514042299913 33.599948616651787 10.176516149527259 0 -1 0 I I #
coedge $-1 $165 $165 $-1 $258 reversed $95 $-1 #
edge $-1 $259 0 $259 6.2831853071796004 $96 $260 forward 7 unknown #
vertex $-1 $99 $261 #
ellipse-curve $-1 -32.960557736550228 27.710811612657512 7.0082668892669506 0 0.61566148304635926 0.78801074757464917 2.5 0 0 1 I I #
face $-1 $-1 $115 $15 $-1 $262 reversed single #
loop $-1 $-1 $185 $100 #
plane-surface $-1 0 31.765985660134103 0 0 -1 0 0 0 -1 forward_v I I I I #
coedge $-1 $263 $183 $186 $264 forward $101 $-1 #
coedge $-1 $189 $103 $104 $177 reversed $62 $-1 #
coedge $-1 $183 $263 $103 $175 reversed $101 $-1 #
edge $-1 $190 -10.176516149527259 $265 10.176516149527259 $174 $266 forward 7 unknown #
coedge $-1 $105 $104 $263 $267 forward $41 $-1 #
edge $-1 $181 -69.435712759788814 $265 69.435712759788814 $173 $268 forward 7 unknown #
coedge $-1 $186 $185 $105 $179 reversed $170 $-1 #
edge $-1 $269 -69.435712759788814 $180 69.435712759788814 $178 $270 forward 7 unknown #
vertex $-1 $107 $271 #
vertex $-1 $192 $272 #
straight-curve $-1 69.435712759788814 0 -10.176516149527259 0 -1 0 I I #
coedge $-1 $172 $174 $108 $184 reversed $101 $-1 #
edge $-1 $187 -31.765985660134103 $190 31.765985660134103 $183 $273 forward 7 unknown #
coedge $-1 $178 $109 $114 $193 forward $170 $-1 #
coedge $-1 $109 $178 $172 $264 reversed $170 $-1 #
vertex $-1 $110 $274 #
straight-curve $-1 0 31.765985660134103 10.176516149527259 -1 0 0 I I #
coedge $-1 $111 $173 $113 $192 reversed $62 $-1 #
vertex $-1 $184 $275 #
straight-curve $-1 0 -31.765985660134103 10.176516149527259 1 0 0 I I #
edge $-1 $116 -10.176516149527259 $181 10.176516149527259 $113 $276 forward 7 unknown #
edge $-1 $117 -10.176516149527259 $180 10.176516149527259 $114 $277 forward 7 unknown #
point $-1 69.435712759788814 -31.765985660134103 10.176516149527259 #
point $-1 69.435712759788814 31.765985660134103 10.176516149527259 #
face $-1 $-1 $212 $16 $-1 $278 forward single #
plane-surface $-1 -73.087900951755529 -11.412953361079584 0 0 -1 0 0 0 -1 forward_v I I I I #
coedge $-1 $279 $280 $215 $281 forward $120 $-1 #
coedge $-1 $208 $122 $123 $204 reversed $70 $-1 #
coedge $-1 $122 $208 $211 $282 reversed $70 $-1 #
coedge $-1 $280 $279 $122 $202 reversed $120 $-1 #
edge $-1 $283 -10.176516149527259 $284 10.176516149527259 $201 $285 forward 7 unknown #
coedge $-1 $124 $123 $279 $286 forward $45 $-1 #
edge $-1 $206 -3.6521881919667152 $284 3.6521881919667152 $199 $287 forward 7 unknown #
edge $-1 $288 -3.6521881919667152 $132 3.6521881919667152 $129 $289 forward 7 unknown #
vertex $-1 $204 $290 #
straight-curve $-1 -69.435712759788814 0 -10.176516149527259 0 -1 0 I I #
coedge $-1 $200 $199 $126 $209 reversed $70 $-1 #
edge $-1 $213 -10.176516149527259 $206 10.176516149527259 $208 $291 forward 7 unknown #
coedge $-1 $292 $127 $130 $216 forward $212 $-1 #
coedge $-1 $127 $292 $200 $282 forward $212 $-1 #
loop $-1 $-1 $127 $196 #
vertex $-1 $128 $293 #
straight-curve $-1 -69.435712759788814 0 10.176516149527259 0 1 0 I I #
coedge $-1 $130 $129 $198 $281 reversed $131 $-1 #
edge $-1 $133 -3.6521881919667152 $294 3.6521881919667152 $130 $295 forward 7 unknown #
point $-1 -69.435712759788814 -11.412953361079584 -10.176516149527259 #
point $-1 -69.435712759788814 -11.412953361079584 10.176516149527259 #
face $-1 $-1 $233 $17 $-1 $296 forward single #
loop $-1 $-1 $297 $135 #
plane-surface $-1 76.74008914372223 -12.912953361079584 0 -1 0 0 0 0 1 forward_v I I I I #
coedge $-1 $224 $298 $299 $300 forward $136 $-1 #
coedge $-1 $139 $138 $301 $302 forward $49 $-1 #
coedge $-1 $229 $222 $138 $225 reversed $136 $-1 #
edge $-1 $227 -3.6521881919667152 $303 3.6521881919667152 $224 $304 forward 7 unknown #
edge $-1 $305 -3.6521881919667152 $146 3.6521881919667152 $144 $306 forward 7 unknown #
vertex $-1 $225 $307 #
straight-curve $-1 69.435712759788814 0 -10.176516149527259 0 1 0 I I #
coedge $-1 $298 $224 $141 $230 reversed $136 $-1 #
edge $-1 $234 -10.176516149527259 $227 10.176516149527259 $229 $308 forward 7 unknown #
coedge $-1 $309 $142 $145 $237 forward $233 $-1 #
coedge $-1 $142 $309 $298 $310 forward $233 $-1 #
loop $-1 $-1 $142 $219 #
vertex $-1 $143 $311 #
straight-curve $-1 69.435712759788814 0 10.176516149527259 0 -1 0 I I #
coedge $-1 $145 $144 $297 $312 reversed $78 $-1 #
edge $-1 $147 -3.6521881919667152 $313 3.6521881919667152 $145 $314 forward 7 unknown #
point $-1 69.4357127597888 -14.412953361079584 -10.176516149527259 #
point $-1 69.4357127597888 -14.412953361079584 10.176516149527259 #
plane-surface $-1 0 0 10.176516149527259 0 0 1 1 0 0 forward_v I I I I #
coedge $-1 $251 $250 $243 $315 forward $150 $-1 #
coedge $-1 $243 $152 $154 $247 reversed $86 $-1 #
coedge $-1 $152 $242 $241 $315 reversed $86 $-1 #
coedge $-1 $160 $155 $152 $245 forward $161 $-1 #
edge $-1 $248 -9.9443110514708906 $316 -1.8339629565176843 $244 $317 forward 7 unknown #
coedge $-1 $154 $153 $251 $318 reversed $53 $-1 #
edge $-1 $319 -63.531971320268205 $248 -53.239791778408716 $242 $320 forward 7 unknown #
vertex $-1 $156 $321 #
straight-curve $-1 -16.480278868275114 23.655637565180903 10.176516149527259 1 0 0 I I #
coedge $-1 $241 $157 $160 $255 reversed $150 $-1 #
coedge $-1 $157 $241 $246 $318 forward $150 $-1 #
vertex $-1 $158 $322 #
straight-curve $-1 -39.527514042299913 31.765985660134103 76.193190576670659 0 0 1 I I #
straight-curve $-1 -39.527514042299913 -18.297890554841615 42.954205312901735 0 0.78801074757464917 -0.61566148304635926 I I #
edge $-1 $316 26.393601430800544 $162 39.527514042299913 $250 $323 forward 7 unknown #
point $-1 -39.527514042299913 31.765985660134103 10.176516149527259 #
point $-1 -39.527514042299913 23.655637565180896 10.176516149527259 #
edge $-1 $324 1 $324 0 $165 $-1 forward 7 unknown #
vertex $-1 $166 $325 #
ellipse-curve $-1 -32.960557736550228 23.269732891985722 1.3239454576289709 0 0.61566148304635926 0.78801074757464917 2.5 0 0 1 I I #
point $-1 -30.460557736550228 27.710811612657519 7.0082668892669595 #
plane-surface $-1 69.435712759788814 0 0 -1 0 0 0 0 1 forward_v I I I I #
coedge $-1 $174 $172 $176 $267 reversed $101 $-1 #
edge $-1 $187 -10.176516149527259 $269 10.176516149527259 $186 $326 forward 7 unknown #
vertex $-1 $267 $327 #
straight-curve $-1 -69.435712759788814 -31.765985660134103 0 0 0 -1 I I #
edge $-1 $265 -31.765985660134103 $269 31.765985660134103 $263 $328 forward 7 unknown #
straight-curve $-1 0 -31.765985660134103 -10.176516149527259 -1 0 0 I I #
vertex $-1 $179 $329 #
straight-curve $-1 0 31.765985660134103 -10.176516149527259 1 0 0 I I #
point $-1 69.435712759788814 31.765985660134103 -10.176516149527259 #
point $-1 69.435712759788814 -31.765985660134103 -10.176516149527259 #
straight-curve $-1 -69.435712759788814 0 10.176516149527259 0 -1 0 I I #
point $-1 -69.435712759788814 31.765985660134103 10.176516149527259 #
point $-1 -69.435712759788814 -31.765985660134103 10.176516149527259 #
straight-curve $-1 69.435712759788814 -31.765985660134103 0 0 0 -1 I I #
straight-curve $-1 69.435712759788814 31.765985660134103 0 0 0 -1 I I #
plane-surface $-1 0 0 10.176516149527259 0 0 1 1 0 0 forward_v I I I I #
coedge $-1 $201 $198 $203 $286 reversed $120 $-1 #
coedge $-1 $198 $201 $292 $330 reversed $120 $-1 #
edge $-1 $294 -10.176516149527259 $288 10.176516149527259 $215 $331 forward 7 unknown #
edge $-1 $283 -3.6521881919667152 $213 3.6521881919667152 $200 $332 forward 7 unknown #
vertex $-1 $330 $333 #
vertex $-1 $286 $334 #
straight-curve $-1 -76.740089143722244 -14.412953361079584 0 0 0 -1 I I #
edge $-1 $284 -1.5 $288 1.5 $279 $335 forward 7 unknown #
straight-curve $-1 -73.087900951755529 -14.412953361079584 -10.176516149527259 -1 0 0 I I #
vertex $-1 $205 $336 #
straight-curve $-1 -73.087900951755529 -11.412953361079584 -10.176516149527259 1 0 0 I I #
point $-1 -69.435712759788814 -14.412953361079584 -10.176516149527259 #
straight-curve $-1 -69.435712759788814 -14.412953361079584 0 0 0 -1 I I #
coedge $-1 $211 $210 $280 $330 forward $212 $-1 #
point $-1 -69.435712759788814 -14.412953361079584 10.176516149527259 #
vertex $-1 $216 $337 #
straight-curve $-1 -73.087900951755529 -11.412953361079584 10.176516149527259 -1 0 0 I I #
plane-surface $-1 0 0 10.176516149527259 0 0 1 1 0 0 forward_v I I I I #
coedge $-1 $301 $338 $236 $312 forward $220 $-1 #
coedge $-1 $222 $229 $232 $310 reversed $136 $-1 #
coedge $-1 $338 $301 $222 $300 reversed $220 $-1 #
edge $-1 $339 -10.176516149527259 $303 10.176516149527259 $299 $340 forward 7 unknown #
coedge $-1 $299 $297 $223 $302 reversed $220 $-1 #
edge $-1 $303 -1.5 $305 1.5 $301 $341 forward 7 unknown #
vertex $-1 $302 $342 #
straight-curve $-1 73.087900951755515 -11.412953361079584 -10.176516149527259 1 0 0 I I #
vertex $-1 $312 $343 #
straight-curve $-1 73.087900951755515 -14.412953361079584 -10.176516149527259 -1 0 0 I I #
point $-1 69.4357127597888 -11.412953361079584 -10.176516149527259 #
straight-curve $-1 69.435712759788814 -11.412953361079584 0 0 0 -1 I I #
coedge $-1 $232 $231 $338 $344 forward $233 $-1 #
edge $-1 $339 -3.6521881919667152 $234 3.6521881919667152 $298 $345 forward 7 unknown #
point $-1 69.4357127597888 -11.412953361079584 10.176516149527259 #
edge $-1 $313 -10.176516149527259 $305 10.176516149527259 $297 $346 forward 7 unknown #
vertex $-1 $344 $347 #
straight-curve $-1 73.087900951755515 -14.412953361079584 10.176516149527259 1 0 0 I I #
edge $-1 $316 66.0166744271434 $319 72.353172947664007 $241 $348 forward 7 unknown #
vertex $-1 $255 $349 #
straight-curve $-1 -26.393601430800544 33.599948616651787 10.176516149527259 0 1 0 I I #
edge $-1 $319 9.9133225625254298 $252 23.047235174024799 $251 $350 forward 7 unknown #
vertex $-1 $318 $351 #
straight-curve $-1 -26.393601430800544 -18.297890554841615 42.954205312901735 0 -0.78801074757464917 0.61566148304635926 I I #
point $-1 -26.393601430800544 23.655637565180896 10.176516149527259 #
point $-1 -39.527514042299913 31.765985660134106 3.8400176290066454 #
straight-curve $-1 0 31.765985660134103 10.176516149527259 -1 0 0 I I #
vertex $-1 $258 $352 #
point $-1 -30.460557736550228 23.269732891985722 1.3239454576289709 #
straight-curve $-1 -69.435712759788814 31.765985660134103 0 0 0 -1 I I #
point $-1 -69.435712759788814 -31.765985660134103 -10.176516149527259 #
straight-curve $-1 -69.435712759788814 0 -10.176516149527259 0 1 0 I I #
point $-1 -69.435712759788814 31.765985660134103 -10.176516149527259 #
edge $-1 $294 -1.5 $283 1.5 $280 $353 forward 7 unknown #
straight-curve $-1 -76.740089143722244 -11.412953361079584 0 0 0 -1 I I #
straight-curve $-1 -73.087900951755529 -14.412953361079584 10.176516149527259 1 0 0 I I #
point $-1 -76.740089143722244 -14.412953361079584 10.176516149527259 #
point $-1 -76.740089143722244 -14.412953361079584 -10.176516149527259 #
straight-curve $-1 -76.740089143722244 -12.912953361079584 -10.176516149527259 0 1 0 I I #
point $-1 -76.740089143722244 -11.412953361079584 -10.176516149527259 #
point $-1 -76.740089143722244 -11.412953361079584 10.176516149527259 #
coedge $-1 $297 $299 $309 $344 reversed $220 $-1 #
vertex $-1 $344 $354 #
straight-curve $-1 76.74008914372223 -11.412953361079584 0 0 0 -1 I I #
straight-curve $-1 76.74008914372223 -12.912953361079584 -10.176516149527259 0 -1 0 I I #
point $-1 76.74008914372223 -11.412953361079584 -10.176516149527259 #
point $-1 76.74008914372223 -14.412953361079584 -10.176516149527259 #
edge $-1 $313 -1.5 $339 1.5 $338 $355 forward 7 unknown #
straight-curve $-1 73.087900951755515 -11.412953361079584 10.176516149527259 -1 0 0 I I #
straight-curve $-1 76.74008914372223 -14.412953361079584 0 0 0 -1 I I #
point $-1 76.74008914372223 -14.412953361079584 10.176516149527259 #
straight-curve $-1 -26.393601430800544 31.765985660134103 76.193190576670659 0 0 -1 I I #
point $-1 -26.393601430800544 31.765985660134103 10.176516149527259 #
straight-curve $-1 -16.480278868275114 31.765985660134103 3.8400176290066454 -1 0 0 I I #
point $-1 -26.393601430800544 31.765985660134106 3.8400176290066454 #
point $-1 -32.960557736550228 21.730579184369827 -0.64608141130765284 #
straight-curve $-1 -76.740089143722244 -12.912953361079584 10.176516149527259 0 -1 0 I I #
point $-1 76.74008914372223 -11.412953361079584 10.176516149527259 #
straight-curve $-1 76.74008914372223 -12.912953361079584 10.176516149527259 0 1 0 I I #
End-of-ACIS-data 