500 0 9 0           
7 Unknown 11 ACIS 5.0 NT 24 Thu Mar 25 16:05:18 1999 
-1 9.9999999999999995e-007 1e-010 
body $-1 $9 $-1 $10 #
body $-1 $11 $-1 $12 #
body $-1 $13 $-1 $14 #
body $-1 $15 $-1 $16 #
body $-1 $17 $-1 $18 #
body $-1 $19 $-1 $20 #
body $-1 $21 $-1 $22 #
body $-1 $23 $-1 $24 #
body $-1 $25 $-1 $26 #
lump $-1 $-1 $27 $0 #
transform $-1 1 0 0 0 1 0 0 0 1 75.920285653248698 31.866733016770574 8.0080642011778309 1 rotate no_reflect no_shear #
lump $-1 $-1 $28 $1 #
transform $-1 1 0 0 0 1 0 0 0 1 75.920285653248698 31.866733016770574 8.0080642011778309 1 rotate no_reflect no_shear #
lump $-1 $-1 $29 $2 #
transform $-1 1 0 0 0 1 0 0 0 1 75.920285653248698 31.866733016770574 8.0080642011778309 1 rotate no_reflect no_shear #
lump $-1 $-1 $30 $3 #
transform $-1 1 0 0 0 1 0 0 0 1 75.920285653248698 31.866733016770574 8.0080642011778309 1 rotate no_reflect no_shear #
lump $-1 $-1 $31 $4 #
transform $-1 1 0 0 0 1 0 0 0 1 75.920285653248698 31.866733016770574 8.0080642011778309 1 rotate no_reflect no_shear #
lump $-1 $-1 $32 $5 #
transform $-1 1 0 0 0 1 0 0 0 1 75.920285653248698 31.866733016770574 8.0080642011778309 1 rotate no_reflect no_shear #
lump $-1 $-1 $33 $6 #
transform $-1 1 0 0 0 1 0 0 0 1 75.920285653248698 31.866733016770574 8.0080642011778309 1 rotate no_reflect no_shear #
lump $-1 $-1 $34 $7 #
transform $-1 1 0 0 0 1 0 0 0 1 75.920285653248698 31.866733016770574 8.0080642011778309 1 rotate no_reflect no_shear #
lump $-1 $-1 $35 $8 #
transform $-1 1 0 0 0 1 0 0 0 1 75.920285653248698 31.866733016770574 8.0080642011778309 1 rotate no_reflect no_shear #
shell $-1 $-1 $-1 $36 $-1 $9 #
shell $-1 $-1 $-1 $37 $-1 $11 #
shell $-1 $-1 $-1 $38 $-1 $13 #
shell $-1 $-1 $-1 $39 $-1 $15 #
shell $-1 $-1 $-1 $40 $-1 $17 #
shell $-1 $-1 $-1 $41 $-1 $19 #
shell $-1 $-1 $-1 $42 $-1 $21 #
shell $-1 $-1 $-1 $43 $-1 $23 #
shell $-1 $-1 $-1 $44 $-1 $25 #
face $-1 $45 $46 $27 $-1 $47 forward single #
face $-1 $48 $49 $28 $-1 $50 reversed single #
face $-1 $51 $52 $29 $-1 $53 reversed single #
face $-1 $54 $55 $30 $-1 $56 reversed single #
face $-1 $57 $58 $31 $-1 $59 forward single #
face $-1 $60 $61 $32 $-1 $62 forward single #
face $-1 $63 $64 $33 $-1 $65 reversed single #
face $-1 $66 $67 $34 $-1 $68 forward single #
face $-1 $69 $70 $35 $-1 $71 forward single #
face $-1 $72 $73 $27 $-1 $74 reversed single #
loop $-1 $-1 $75 $36 #
plane-surface $-1 0 0 8.0080642011778309 0 0 1 1 0 0 forward_v I I I I #
face $-1 $76 $77 $28 $-1 $78 reversed single #
loop $-1 $-1 $79 $37 #
plane-surface $-1 -71.692931035927941 0 3.5450842639425382 0 0 1 1 0 0 forward_v I I I I #
face $-1 $80 $81 $29 $-1 $82 reversed single #
loop $-1 $-1 $83 $38 #
plane-surface $-1 71.692931035927927 0 3.5450842639425382 0 0 1 1 0 0 forward_v I I I I #
face $-1 $84 $85 $30 $-1 $86 reversed single #
loop $-1 $-1 $87 $39 #
plane-surface $-1 -3.3443877690100123 107.21627850504225 150.23539478076759 1 0 0 0 -0.7660444514056185 -0.64278759981090561 forward_v I I I I #
face $-1 $88 $89 $31 $-1 $90 forward single #
loop $-1 $91 $92 $40 #
cone-surface $-1 7.3963835415525665 28.92286194912268 4.9169551849193889 0 -0.7660444514056185 -0.64278759981090561 1 0 0 1 I I 0 1 1 forward I I I I #
face $-1 $93 $94 $32 $-1 $95 forward single #
loop $-1 $96 $97 $41 #
cone-surface $-1 23.507540507396428 28.92286194912268 4.9169551849193889 0 -0.7660444514056185 -0.64278759981090561 1 0 0 1 I I 0 1 1 forward I I I I #
face $-1 $98 $99 $33 $-1 $100 reversed single #
loop $-1 $-1 $101 $42 #
plane-surface $-1 -41.609708760610253 -131.48311200088901 117.94820150970162 -1 0 0 0 -0.6560590369687036 0.75470957328743171 forward_v I I I I #
face $-1 $102 $103 $34 $-1 $104 forward single #
loop $-1 $105 $106 $43 #
cone-surface $-1 -60.078185659179489 -28.694340969240624 5.1112997397168778 0 0.6560590369687036 -0.75470957328743171 1 0 0 1 I I 0 1 1 forward I I I I #
face $-1 $107 $108 $35 $-1 $109 forward single #
loop $-1 $110 $111 $44 #
cone-surface $-1 -48.997099520037949 -28.694340969240624 5.1112997397168778 0 0.6560590369687036 -0.75470957328743171 1 0 0 1 I I 0 1 1 forward I I I I #
face $-1 $112 $113 $27 $-1 $114 reversed single #
loop $-1 $-1 $115 $45 #
plane-surface $-1 0 0 -8.0080642011778309 0 0 1 1 0 0 forward_v I I I I #
coedge $-1 $116 $117 $118 $119 forward $46 $-1 #
face $-1 $120 $121 $28 $-1 $122 reversed single #
loop $-1 $-1 $123 $48 #
plane-surface $-1 -67.465576418607185 0 5.7765742325601845 -1 0 0 0 0 1 forward_v I I I I #
coedge $-1 $124 $125 $123 $126 forward $49 $-1 #
face $-1 $127 $128 $29 $-1 $129 forward single #
loop $-1 $-1 $130 $51 #
plane-surface $-1 67.465576418607171 0 5.7765742325601845 1 0 0 0 0 -1 forward_v I I I I #
coedge $-1 $131 $132 $133 $134 reversed $52 $-1 #
face $-1 $135 $136 $30 $-1 $137 reversed single #
loop $-1 $-1 $138 $54 #
plane-surface $-1 15.451962024474497 -9.1003486425592399 52.634158396747466 0 0.7660444514056185 0.64278759981090561 1 0 0 forward_v I I I I #
coedge $-1 $139 $140 $141 $142 reversed $55 $-1 #
face $-1 $-1 $143 $31 $-1 $144 forward single #
loop $-1 $145 $146 $57 #
cone-surface $-1 7.3963835415525665 27.356640385431525 3.6027392828919886 0 -0.7660444514056185 -0.64278759981090561 0.5 0 0 1 I I -0.70710678118654779 0.70710678118654713 0.5 forward I I I I #
loop $-1 $-1 $147 $40 #
coedge $-1 $92 $92 $148 $149 reversed $58 $-1 #
face $-1 $-1 $150 $32 $-1 $151 forward single #
loop $-1 $152 $153 $60 #
cone-surface $-1 23.507540507396428 27.356640385431525 3.6027392828919886 0 -0.7660444514056185 -0.64278759981090561 0.5 0 0 1 I I -0.70710678118654779 0.70710678118654713 0.5 forward I I I I #
loop $-1 $-1 $154 $41 #
coedge $-1 $97 $97 $155 $156 reversed $61 $-1 #
face $-1 $157 $158 $33 $-1 $159 forward single #
loop $-1 $-1 $160 $63 #
plane-surface $-1 -54.537642589608716 -31.866733016770553 3.3526687312551218 0 -0.6560590369687036 0.75470957328743171 1 0 0 forward_v I I I I #
coedge $-1 $161 $162 $163 $164 reversed $64 $-1 #
face $-1 $-1 $165 $34 $-1 $166 forward single #
loop $-1 $167 $168 $66 #
cone-surface $-1 -60.078185659179489 -27.871629281916107 4.1648782265735562 0 0.6560590369687036 -0.75470957328743171 0.5 0 0 1 I I -0.70710678118654746 0.70710678118654746 0.5 forward I I I I #
loop $-1 $-1 $169 $43 #
coedge $-1 $106 $106 $170 $171 reversed $67 $-1 #
face $-1 $-1 $172 $35 $-1 $173 forward single #
loop $-1 $174 $175 $69 #
cone-surface $-1 -48.997099520037949 -27.871629281916107 4.1648782265735562 0 0.6560590369687036 -0.75470957328743171 0.5 0 0 1 I I -0.70710678118654746 0.70710678118654746 0.5 forward I I I I #
loop $-1 $-1 $176 $44 #
coedge $-1 $111 $111 $177 $178 reversed $70 $-1 #
face $-1 $179 $180 $27 $-1 $181 reversed single #
loop $-1 $-1 $182 $72 #
plane-surface $-1 0 -31.866733016770574 0 0 1 0 0 0 1 forward_v I I I I #
coedge $-1 $183 $184 $185 $186 forward $73 $-1 #
coedge $-1 $187 $75 $188 $189 forward $46 $-1 #
coedge $-1 $75 $187 $190 $191 forward $46 $-1 #
coedge $-1 $192 $193 $75 $119 reversed $194 $-1 #
edge $-1 $195 -31.866733016770574 $196 31.866733016770574 $118 $197 forward 7 unknown #
face $-1 $198 $199 $28 $-1 $200 reversed single #
loop $-1 $-1 $201 $76 #
plane-surface $-1 0 31.866733016770574 0 0 -1 0 0 0 -1 forward_v I I I I #
coedge $-1 $202 $203 $79 $126 reversed $77 $-1 #
coedge $-1 $204 $79 $205 $206 reversed $49 $-1 #
coedge $-1 $79 $204 $207 $208 reversed $49 $-1 #
edge $-1 $209 -31.866733016770574 $210 31.866733016770574 $123 $211 forward 7 unknown #
face $-1 $212 $213 $29 $-1 $214 reversed single #
loop $-1 $-1 $215 $80 #
plane-surface $-1 0 0 8.0080642011778309 0 0 1 1 0 0 forward_v I I I I #
coedge $-1 $216 $217 $218 $219 reversed $81 $-1 #
coedge $-1 $220 $83 $221 $222 reversed $52 $-1 #
coedge $-1 $83 $220 $223 $224 reversed $52 $-1 #
coedge $-1 $225 $226 $83 $134 forward $227 $-1 #
edge $-1 $228 -31.866733016770574 $229 31.866733016770574 $133 $230 forward 7 unknown #
face $-1 $231 $232 $30 $-1 $233 reversed single #
loop $-1 $-1 $234 $84 #
plane-surface $-1 34.248311817959006 107.21627850504225 150.23539478076759 -1 0 0 0 0.7660444514056185 0.64278759981090561 forward_v I I I I #
coedge $-1 $235 $236 $237 $238 reversed $85 $-1 #
coedge $-1 $140 $87 $239 $240 reversed $55 $-1 #
coedge $-1 $87 $139 $235 $241 reversed $55 $-1 #
coedge $-1 $237 $242 $87 $142 forward $243 $-1 #
edge $-1 $244 21.741406235750553 $245 25.262749695069687 $141 $246 forward 7 unknown #
loop $-1 $-1 $148 $88 #
plane-surface $-1 15.451962024474497 -9.1003486425592399 52.634158396747466 0 0.7660444514056185 0.64278759981090561 1 0 0 forward_v I I I I #
loop $-1 $-1 $247 $57 #
coedge $-1 $146 $146 $147 $248 reversed $89 $-1 #
coedge $-1 $147 $147 $146 $248 forward $91 $-1 #
coedge $-1 $148 $148 $92 $149 forward $143 $-1 #
edge $-1 $249 -2.1894815133320979e-015 $249 6.2831853071795987 $148 $250 forward 7 unknown #
loop $-1 $-1 $155 $93 #
plane-surface $-1 15.451962024474497 -9.1003486425592399 52.634158396747466 0 0.7660444514056185 0.64278759981090561 1 0 0 forward_v I I I I #
loop $-1 $-1 $251 $60 #
coedge $-1 $153 $153 $154 $252 reversed $94 $-1 #
coedge $-1 $154 $154 $153 $252 forward $96 $-1 #
coedge $-1 $155 $155 $97 $156 forward $150 $-1 #
edge $-1 $253 -2.1894815133320979e-015 $253 6.2831853071795987 $155 $254 forward 7 unknown #
face $-1 $255 $256 $33 $-1 $257 forward single #
loop $-1 $-1 $163 $98 #
plane-surface $-1 0 0 8.0080642011778309 0 0 1 1 0 0 forward_v I I I I #
coedge $-1 $258 $259 $260 $261 reversed $99 $-1 #
coedge $-1 $162 $101 $262 $263 reversed $64 $-1 #
coedge $-1 $101 $161 $258 $264 reversed $64 $-1 #
coedge $-1 $260 $265 $101 $164 forward $158 $-1 #
edge $-1 $266 33.87482298367393 $267 39.230242741053523 $163 $268 forward 7 unknown #
loop $-1 $-1 $170 $102 #
plane-surface $-1 -54.537642589608716 -31.866733016770553 3.3526687312551218 0 -0.6560590369687036 0.75470957328743171 1 0 0 forward_v I I I I #
loop $-1 $-1 $269 $66 #
coedge $-1 $168 $168 $169 $270 reversed $103 $-1 #
coedge $-1 $169 $169 $168 $270 forward $105 $-1 #
coedge $-1 $170 $170 $106 $171 forward $165 $-1 #
edge $-1 $271 -2.3651348183250558e-016 $271 6.2831853071796004 $170 $272 forward 7 unknown #
loop $-1 $-1 $177 $107 #
plane-surface $-1 -54.537642589608716 -31.866733016770553 3.3526687312551218 0 -0.6560590369687036 0.75470957328743171 1 0 0 forward_v I I I I #
loop $-1 $-1 $273 $69 #
coedge $-1 $175 $175 $176 $274 reversed $108 $-1 #
coedge $-1 $176 $176 $175 $274 forward $110 $-1 #
coedge $-1 $177 $177 $111 $178 forward $172 $-1 #
edge $-1 $275 -2.3651348183250558e-016 $275 6.2831853071796004 $177 $276 forward 7 unknown #
face $-1 $277 $278 $27 $-1 $279 reversed single #
loop $-1 $-1 $280 $112 #
plane-surface $-1 -75.920285653248698 0 0 1 0 0 0 0 -1 forward_v I I I I #
coedge $-1 $281 $190 $282 $283 forward $113 $-1 #
coedge $-1 $284 $115 $281 $285 forward $73 $-1 #
coedge $-1 $115 $284 $286 $287 forward $73 $-1 #
coedge $-1 $193 $192 $115 $186 reversed $194 $-1 #
edge $-1 $288 -31.866733016770574 $289 31.866733016770574 $185 $290 forward 7 unknown #
coedge $-1 $117 $116 $291 $292 forward $46 $-1 #
coedge $-1 $293 $294 $116 $189 reversed $278 $-1 #
edge $-1 $196 -75.920285653248698 $295 75.920285653248698 $188 $296 forward 7 unknown #
coedge $-1 $182 $297 $117 $191 reversed $113 $-1 #
edge $-1 $298 -75.920285653248698 $195 75.920285653248698 $190 $299 forward 7 unknown #
coedge $-1 $185 $118 $297 $300 forward $194 $-1 #
coedge $-1 $118 $185 $293 $301 reversed $194 $-1 #
loop $-1 $-1 $192 $277 #
vertex $-1 $119 $302 #
vertex $-1 $119 $303 #
straight-curve $-1 75.920285653248698 0 8.0080642011778309 0 1 0 I I #
face $-1 $304 $305 $28 $-1 $306 forward single #
loop $-1 $-1 $307 $120 #
plane-surface $-1 -75.920285653248698 0 0 1 0 0 0 0 -1 forward_v I I I I #
coedge $-1 $207 $308 $202 $309 forward $121 $-1 #
coedge $-1 $310 $123 $201 $309 reversed $77 $-1 #
coedge $-1 $123 $310 $311 $312 reversed $77 $-1 #
coedge $-1 $125 $124 $307 $313 reversed $49 $-1 #
coedge $-1 $311 $314 $124 $206 forward $315 $-1 #
edge $-1 $316 -40.073820135284727 $210 -31.619110900643214 $205 $317 forward 7 unknown #
coedge $-1 $318 $201 $125 $208 forward $121 $-1 #
edge $-1 $209 31.619110900643214 $319 40.073820135284727 $207 $320 forward 7 unknown #
vertex $-1 $208 $321 #
vertex $-1 $206 $322 #
straight-curve $-1 -67.465576418607185 0 3.5450842639425382 0 -1 0 I I #
face $-1 $323 $324 $29 $-1 $325 reversed single #
loop $-1 $-1 $326 $127 #
plane-surface $-1 0 -31.866733016770574 0 0 1 0 0 0 1 forward_v I I I I #
coedge $-1 $327 $328 $217 $329 forward $128 $-1 #
coedge $-1 $330 $130 $220 $331 reversed $81 $-1 #
coedge $-1 $130 $330 $215 $329 reversed $81 $-1 #
coedge $-1 $332 $223 $130 $219 forward $324 $-1 #
edge $-1 $333 0.6567971476624459 $334 5.1197770848977386 $218 $335 forward 7 unknown #
coedge $-1 $132 $131 $216 $331 forward $52 $-1 #
coedge $-1 $336 $326 $131 $222 forward $213 $-1 #
edge $-1 $337 31.619110900643207 $228 40.07382013528472 $221 $338 forward 7 unknown #
coedge $-1 $218 $339 $132 $224 forward $324 $-1 #
edge $-1 $229 -40.07382013528472 $333 -31.619110900643207 $223 $340 forward 7 unknown #
coedge $-1 $341 $133 $339 $342 reversed $227 $-1 #
coedge $-1 $133 $341 $336 $343 forward $227 $-1 #
loop $-1 $-1 $133 $323 #
vertex $-1 $222 $344 #
vertex $-1 $134 $345 #
straight-curve $-1 75.920285653248698 0 3.5450842639425382 0 1 0 I I #
face $-1 $-1 $243 $30 $-1 $346 forward single #
loop $-1 $-1 $347 $135 #
plane-surface $-1 0 31.866733016770574 0 0 -1 0 0 0 -1 forward_v I I I I #
coedge $-1 $348 $349 $350 $351 reversed $136 $-1 #
coedge $-1 $352 $138 $140 $241 forward $85 $-1 #
coedge $-1 $138 $352 $348 $353 forward $85 $-1 #
coedge $-1 $350 $141 $138 $238 forward $243 $-1 #
edge $-1 $245 -11.070368781247261 $354 26.522330805721758 $237 $355 forward 7 unknown #
coedge $-1 $356 $357 $139 $240 forward $232 $-1 #
edge $-1 $358 -71.306207017479011 $244 -67.109633189205965 $239 $359 forward 7 unknown #
edge $-1 $245 58.255228027153017 $358 63.733466033541198 $140 $360 forward 7 unknown #
coedge $-1 $141 $350 $356 $361 forward $243 $-1 #
loop $-1 $-1 $350 $231 #
vertex $-1 $240 $362 #
vertex $-1 $142 $363 #
straight-curve $-1 -3.3443877690100123 53.608139252521127 8.0080642011778309 0 -1 0 I I #
coedge $-1 $247 $247 $-1 $364 reversed $145 $-1 #
edge $-1 $365 0 $365 6.2831853071796004 $146 $366 forward 7 unknown #
vertex $-1 $149 $367 #
ellipse-curve $-1 7.3963835415525665 30.106061287111004 5.9097772870413188 0 0.7660444514056185 0.64278759981090561 1 0 0 1 I I #
coedge $-1 $251 $251 $-1 $368 reversed $152 $-1 #
edge $-1 $369 0 $369 6.2831853071796004 $153 $370 forward 7 unknown #
vertex $-1 $156 $371 #
ellipse-curve $-1 23.507540507396428 30.106061287111004 5.9097772870413188 0 0.7660444514056185 0.64278759981090561 1 0 0 1 I I #
face $-1 $-1 $372 $33 $-1 $373 reversed single #
loop $-1 $-1 $374 $157 #
plane-surface $-1 -67.465576418607185 0 5.7765742325601845 -1 0 0 0 0 1 forward_v I I I I #
coedge $-1 $375 $160 $162 $264 forward $99 $-1 #
coedge $-1 $160 $375 $374 $376 forward $99 $-1 #
coedge $-1 $377 $163 $160 $261 forward $158 $-1 #
edge $-1 $267 14.340887465805896 $378 40.196755123802831 $260 $379 forward 7 unknown #
coedge $-1 $380 $381 $161 $263 forward $372 $-1 #
edge $-1 $382 -55.621432023595709 $266 -50.966036553672978 $262 $383 forward 7 unknown #
edge $-1 $267 -7.0960008285729756 $382 2.8324249199621518e-014 $162 $384 forward 7 unknown #
coedge $-1 $163 $377 $380 $385 forward $158 $-1 #
vertex $-1 $263 $386 #
vertex $-1 $164 $387 #
straight-curve $-1 -41.609708760610253 -65.741556000444504 8.0080642011778309 0 1 0 I I #
coedge $-1 $269 $269 $-1 $388 reversed $167 $-1 #
edge $-1 $389 0 $389 6.2831853071796004 $168 $390 forward 7 unknown #
vertex $-1 $171 $391 #
ellipse-curve $-1 -60.078185659179489 -29.189023138080778 5.6803664662164675 0 -0.6560590369687036 0.75470957328743171 1 0 0 1 I I #
coedge $-1 $273 $273 $-1 $392 reversed $174 $-1 #
edge $-1 $393 0 $393 6.2831853071796004 $175 $394 forward 7 unknown #
vertex $-1 $178 $395 #
ellipse-curve $-1 -48.997099520037949 -29.189023138080778 5.6803664662164675 0 -0.6560590369687036 0.75470957328743171 1 0 0 1 I I #
face $-1 $-1 $194 $27 $-1 $396 reversed single #
loop $-1 $-1 $293 $179 #
plane-surface $-1 0 31.866733016770574 0 0 -1 0 0 0 -1 forward_v I I I I #
coedge $-1 $397 $291 $294 $398 forward $180 $-1 #
coedge $-1 $297 $182 $183 $285 reversed $113 $-1 #
coedge $-1 $291 $397 $182 $283 reversed $180 $-1 #
edge $-1 $298 -8.0080642011778309 $399 8.0080642011778309 $282 $400 forward 7 unknown #
coedge $-1 $184 $183 $397 $401 forward $73 $-1 #
edge $-1 $289 -75.920285653248698 $399 75.920285653248698 $281 $402 forward 7 unknown #
coedge $-1 $294 $293 $184 $287 reversed $278 $-1 #
edge $-1 $403 -75.920285653248698 $288 75.920285653248698 $286 $404 forward 7 unknown #
vertex $-1 $186 $405 #
vertex $-1 $300 $406 #
straight-curve $-1 75.920285653248698 0 -8.0080642011778309 0 -1 0 I I #
coedge $-1 $280 $282 $187 $292 reversed $180 $-1 #
edge $-1 $295 -31.866733016770574 $298 31.866733016770574 $291 $407 forward 7 unknown #
coedge $-1 $286 $188 $193 $301 forward $278 $-1 #
coedge $-1 $188 $286 $280 $398 reversed $278 $-1 #
vertex $-1 $189 $408 #
straight-curve $-1 0 31.866733016770574 8.0080642011778309 -1 0 0 I I #
coedge $-1 $190 $281 $192 $300 reversed $113 $-1 #
vertex $-1 $292 $409 #
straight-curve $-1 0 -31.866733016770574 8.0080642011778309 1 0 0 I I #
edge $-1 $195 -8.0080642011778309 $289 8.0080642011778309 $192 $410 forward 7 unknown #
edge $-1 $196 -8.0080642011778309 $288 8.0080642011778309 $193 $411 forward 7 unknown #
point $-1 75.920285653248698 -31.866733016770574 8.0080642011778309 #
point $-1 75.920285653248698 31.866733016770574 8.0080642011778309 #
face $-1 $-1 $315 $28 $-1 $412 reversed single #
loop $-1 $-1 $413 $198 #
plane-surface $-1 0 0 8.0080642011778309 0 0 1 1 0 0 forward_v I I I I #
coedge $-1 $414 $415 $204 $313 forward $199 $-1 #
coedge $-1 $201 $318 $416 $417 reversed $121 $-1 #
edge $-1 $418 -5.1197770848977386 $209 -0.6567971476624459 $201 $419 forward 7 unknown #
coedge $-1 $203 $202 $413 $420 reversed $77 $-1 #
coedge $-1 $421 $205 $203 $312 forward $315 $-1 #
edge $-1 $210 0.6567971476624459 $422 5.1197770848977386 $311 $423 forward 7 unknown #
edge $-1 $319 -31.866733016770574 $316 31.866733016770574 $307 $424 forward 7 unknown #
coedge $-1 $205 $421 $414 $425 forward $315 $-1 #
loop $-1 $-1 $311 $304 #
vertex $-1 $313 $426 #
straight-curve $-1 -35.846465517963971 -31.866733016770574 3.5450842639425382 1 0 0 I I #
coedge $-1 $308 $207 $415 $427 reversed $121 $-1 #
vertex $-1 $313 $428 #
straight-curve $-1 -35.846465517963971 31.866733016770574 3.5450842639425382 -1 0 0 I I #
point $-1 -67.465576418607185 31.866733016770574 3.5450842639425382 #
point $-1 -67.465576418607185 -31.866733016770574 3.5450842639425382 #
face $-1 $-1 $227 $29 $-1 $429 reversed single #
loop $-1 $-1 $218 $212 #
plane-surface $-1 0 31.866733016770574 0 0 -1 0 0 0 -1 forward_v I I I I #
coedge $-1 $221 $430 $330 $431 forward $213 $-1 #
coedge $-1 $432 $215 $430 $433 forward $128 $-1 #
coedge $-1 $215 $432 $332 $434 forward $128 $-1 #
edge $-1 $334 -31.866733016770574 $435 31.866733016770574 $215 $436 forward 7 unknown #
coedge $-1 $217 $216 $326 $431 reversed $81 $-1 #
edge $-1 $337 -31.866733016770574 $333 31.866733016770574 $216 $437 forward 7 unknown #
coedge $-1 $339 $218 $328 $434 reversed $324 $-1 #
vertex $-1 $224 $438 #
vertex $-1 $219 $439 #
straight-curve $-1 67.465576418607171 31.866733016770574 2.8882871162800923 0 0 1 I I #
coedge $-1 $430 $221 $226 $343 reversed $213 $-1 #
vertex $-1 $222 $440 #
straight-curve $-1 35.846465517963964 -31.866733016770574 3.5450842639425382 1 0 0 I I #
coedge $-1 $223 $332 $225 $342 forward $324 $-1 #
straight-curve $-1 35.846465517963964 31.866733016770574 3.5450842639425382 -1 0 0 I I #
coedge $-1 $226 $225 $432 $441 reversed $227 $-1 #
edge $-1 $442 -8.0080642011778309 $229 -3.5450842639425382 $225 $443 forward 7 unknown #
edge $-1 $444 -8.0080642011778309 $228 -3.5450842639425382 $226 $445 forward 7 unknown #
point $-1 75.920285653248683 -31.866733016770574 3.5450842639425382 #
point $-1 75.920285653248683 31.866733016770574 3.5450842639425382 #
plane-surface $-1 0 0 8.0080642011778309 0 0 1 1 0 0 forward_v I I I I #
coedge $-1 $357 $356 $349 $446 forward $232 $-1 #
coedge $-1 $349 $234 $236 $353 reversed $136 $-1 #
coedge $-1 $234 $348 $347 $446 reversed $136 $-1 #
coedge $-1 $242 $237 $234 $351 forward $243 $-1 #
edge $-1 $354 -25.262749695069687 $447 -21.741406235750553 $350 $448 forward 7 unknown #
coedge $-1 $236 $235 $357 $449 reversed $85 $-1 #
edge $-1 $450 -63.733466033541198 $354 -58.255228027153017 $348 $451 forward 7 unknown #
vertex $-1 $238 $452 #
straight-curve $-1 7.7259810122372485 28.345389557451437 8.0080642011778309 1 0 0 I I #
coedge $-1 $347 $239 $242 $361 reversed $232 $-1 #
coedge $-1 $239 $347 $352 $449 forward $232 $-1 #
vertex $-1 $240 $453 #
straight-curve $-1 -3.3443877690100123 31.866733016770574 75.117697390383796 0 0 1 I I #
straight-curve $-1 -3.3443877690100123 -9.1003486425592399 52.634158396747466 0 0.64278759981090561 -0.7660444514056185 I I #
edge $-1 $447 -34.248311817959006 $244 3.3443877690100123 $356 $454 forward 7 unknown #
point $-1 -3.3443877690100123 31.866733016770574 8.0080642011778309 #
point $-1 -3.3443877690100123 28.345389557451441 8.0080642011778309 #
edge $-1 $455 1 $455 0 $247 $-1 forward 7 unknown #
vertex $-1 $248 $456 #
ellipse-curve $-1 7.3963835415525665 27.739662611134335 3.9241330827974412 0 0.7660444514056185 0.64278759981090561 1 0 0 1 I I #
point $-1 8.3963835415525665 30.106061287111022 5.9097772870413365 #
edge $-1 $457 1 $457 0 $251 $-1 forward 7 unknown #
vertex $-1 $252 $458 #
ellipse-curve $-1 23.507540507396428 27.739662611134335 3.9241330827974412 0 0.7660444514056185 0.64278759981090561 1 0 0 1 I I #
point $-1 24.507540507396428 30.106061287111022 5.9097772870413365 #
loop $-1 $-1 $262 $255 #
plane-surface $-1 0 -31.866733016770574 0 0 1 0 0 0 1 forward_v I I I I #
coedge $-1 $459 $460 $259 $376 reversed $256 $-1 #
coedge $-1 $259 $258 $381 $461 reversed $99 $-1 #
edge $-1 $462 -2.8324249199621518e-014 $378 7.0960008285729756 $374 $463 forward 7 unknown #
coedge $-1 $265 $260 $460 $464 forward $158 $-1 #
vertex $-1 $464 $465 #
straight-curve $-1 -27.268821294804358 -26.511313259390981 8.0080642011778309 -1 0 0 I I #
coedge $-1 $466 $262 $265 $385 reversed $372 $-1 #
coedge $-1 $262 $466 $375 $461 forward $372 $-1 #
vertex $-1 $263 $467 #
straight-curve $-1 -41.609708760610253 -31.866733016770574 58.974100754850809 0 0 1 I I #
straight-curve $-1 -41.609708760610253 -31.866733016770553 3.3526687312551218 0 -0.75470957328743171 -0.6560590369687036 I I #
edge $-1 $468 -67.465576418607185 $266 -41.609708760610253 $380 $469 forward 7 unknown #
point $-1 -41.609708760610253 -31.866733016770574 8.0080642011778309 #
point $-1 -41.609708760610253 -26.511313259390981 8.0080642011778309 #
edge $-1 $470 1 $470 0 $269 $-1 forward 7 unknown #
vertex $-1 $270 $471 #
ellipse-curve $-1 -60.078185659179489 -28.19965880040046 4.5422330132172721 0 -0.6560590369687036 0.75470957328743171 1 0 0 1 I I #
point $-1 -59.078185659179489 -29.189023138080792 5.6803664662164834 #
edge $-1 $472 1 $472 0 $273 $-1 forward 7 unknown #
vertex $-1 $274 $473 #
ellipse-curve $-1 -48.997099520037949 -28.19965880040046 4.5422330132172721 0 -0.6560590369687036 0.75470957328743171 1 0 0 1 I I #
point $-1 -47.997099520037949 -29.189023138080792 5.6803664662164834 #
plane-surface $-1 75.920285653248698 0 0 -1 0 0 0 0 1 forward_v I I I I #
coedge $-1 $282 $280 $284 $401 reversed $180 $-1 #
edge $-1 $295 -8.0080642011778309 $403 8.0080642011778309 $294 $474 forward 7 unknown #
vertex $-1 $401 $475 #
straight-curve $-1 -75.920285653248698 -31.866733016770574 0 0 0 -1 I I #
edge $-1 $399 -31.866733016770574 $403 31.866733016770574 $397 $476 forward 7 unknown #
straight-curve $-1 0 -31.866733016770574 -8.0080642011778309 -1 0 0 I I #
vertex $-1 $287 $477 #
straight-curve $-1 0 31.866733016770574 -8.0080642011778309 1 0 0 I I #
point $-1 75.920285653248698 31.866733016770574 -8.0080642011778309 #
point $-1 75.920285653248698 -31.866733016770574 -8.0080642011778309 #
straight-curve $-1 -75.920285653248698 0 8.0080642011778309 0 -1 0 I I #
point $-1 -75.920285653248698 31.866733016770574 8.0080642011778309 #
point $-1 -75.920285653248698 -31.866733016770574 8.0080642011778309 #
straight-curve $-1 75.920285653248698 -31.866733016770574 0 0 0 -1 I I #
straight-curve $-1 75.920285653248698 31.866733016770574 0 0 0 -1 I I #
plane-surface $-1 0 -31.866733016770574 0 0 1 0 0 0 1 forward_v I I I I #
coedge $-1 $416 $478 $310 $420 forward $305 $-1 #
coedge $-1 $479 $307 $314 $425 reversed $199 $-1 #
coedge $-1 $307 $479 $318 $427 forward $199 $-1 #
coedge $-1 $480 $413 $308 $417 forward $305 $-1 #
edge $-1 $418 67.465576418607185 $481 75.920285653248698 $308 $482 forward 7 unknown #
vertex $-1 $417 $483 #
straight-curve $-1 -67.465576418607185 31.866733016770574 2.8882871162800923 0 0 -1 I I #
edge $-1 $422 -31.866733016770574 $418 31.866733016770574 $413 $484 forward 7 unknown #
coedge $-1 $314 $311 $478 $485 reversed $315 $-1 #
vertex $-1 $312 $486 #
straight-curve $-1 -67.465576418607185 -31.866733016770574 2.8882871162800923 0 0 1 I I #
straight-curve $-1 -75.920285653248698 0 3.5450842639425382 0 -1 0 I I #
edge $-1 $487 -8.0080642011778309 $316 -3.5450842639425382 $414 $488 forward 7 unknown #
point $-1 -75.920285653248698 -31.866733016770574 3.5450842639425382 #
edge $-1 $481 -8.0080642011778309 $319 -3.5450842639425382 $318 $489 forward 7 unknown #
point $-1 -75.920285653248698 31.866733016770574 3.5450842639425382 #
plane-surface $-1 75.920285653248698 0 0 -1 0 0 0 0 1 forward_v I I I I #
coedge $-1 $326 $336 $327 $433 reversed $213 $-1 #
edge $-1 $435 -5.1197770848977386 $337 -0.6567971476624459 $326 $490 forward 7 unknown #
coedge $-1 $328 $327 $341 $441 forward $128 $-1 #
edge $-1 $435 67.465576418607171 $444 75.920285653248698 $430 $491 forward 7 unknown #
edge $-1 $442 -75.920285653248698 $334 -67.465576418607171 $332 $492 forward 7 unknown #
vertex $-1 $433 $493 #
straight-curve $-1 67.465576418607171 0 8.0080642011778309 0 -1 0 I I #
straight-curve $-1 67.465576418607171 0 3.5450842639425382 0 1 0 I I #
point $-1 67.465576418607171 31.866733016770574 3.5450842639425382 #
point $-1 67.465576418607171 31.866733016770574 8.0080642011778309 #
point $-1 67.465576418607171 -31.866733016770574 3.5450842639425382 #
edge $-1 $444 -31.866733016770574 $442 31.866733016770574 $341 $494 forward 7 unknown #
vertex $-1 $441 $495 #
straight-curve $-1 75.920285653248698 31.866733016770574 0 0 0 -1 I I #
vertex $-1 $441 $496 #
straight-curve $-1 75.920285653248698 -31.866733016770574 0 0 0 -1 I I #
edge $-1 $447 67.109633189205965 $450 71.306207017479011 $347 $497 forward 7 unknown #
vertex $-1 $361 $498 #
straight-curve $-1 34.248311817959006 53.608139252521127 8.0080642011778309 0 1 0 I I #
edge $-1 $450 -26.522330805721758 $358 11.070368781247261 $357 $499 forward 7 unknown #
vertex $-1 $449 $500 #
straight-curve $-1 34.248311817959006 -9.1003486425592399 52.634158396747466 0 -0.64278759981090561 0.7660444514056185 I I #
point $-1 34.248311817959006 28.345389557451441 8.0080642011778309 #
point $-1 -3.3443877690100123 31.866733016770574 3.8114903729047924 #
straight-curve $-1 0 31.866733016770574 8.0080642011778309 -1 0 0 I I #
vertex $-1 $364 $501 #
point $-1 8.3963835415525665 27.739662611134335 3.9241330827974412 #
vertex $-1 $368 $502 #
point $-1 24.507540507396428 27.739662611134335 3.9241330827974412 #
coedge $-1 $460 $374 $466 $503 reversed $256 $-1 #
coedge $-1 $374 $459 $377 $464 reversed $256 $-1 #
edge $-1 $462 -40.196755123802831 $382 -14.340887465805896 $381 $504 forward 7 unknown #
vertex $-1 $503 $505 #
straight-curve $-1 -67.465576418607185 -31.866733016770553 3.3526687312551218 0 0.75470957328743171 0.6560590369687036 I I #
edge $-1 $378 26.511313259390981 $468 31.866733016770574 $377 $506 forward 7 unknown #
point $-1 -67.465576418607185 -26.511313259390981 8.0080642011778309 #
coedge $-1 $381 $380 $459 $503 forward $372 $-1 #
point $-1 -41.609708760610253 -31.866733016770574 3.3526687312551031 #
vertex $-1 $385 $507 #
straight-curve $-1 0 -31.866733016770574 8.0080642011778309 1 0 0 I I #
vertex $-1 $388 $508 #
point $-1 -59.078185659179489 -28.19965880040046 4.5422330132172721 #
vertex $-1 $392 $509 #
point $-1 -47.997099520037949 -28.19965880040046 4.5422330132172721 #
straight-curve $-1 -75.920285653248698 31.866733016770574 0 0 0 -1 I I #
point $-1 -75.920285653248698 -31.866733016770574 -8.0080642011778309 #
straight-curve $-1 -75.920285653248698 0 -8.0080642011778309 0 1 0 I I #
point $-1 -75.920285653248698 31.866733016770574 -8.0080642011778309 #
coedge $-1 $413 $480 $421 $485 forward $305 $-1 #
coedge $-1 $415 $414 $480 $510 reversed $199 $-1 #
coedge $-1 $478 $416 $479 $510 forward $305 $-1 #
vertex $-1 $417 $511 #
straight-curve $-1 0 31.866733016770574 8.0080642011778309 -1 0 0 I I #
point $-1 -67.465576418607185 31.866733016770574 8.0080642011778309 #
straight-curve $-1 -67.465576418607185 0 8.0080642011778309 0 1 0 I I #
edge $-1 $487 -75.920285653248698 $422 -67.465576418607185 $421 $512 forward 7 unknown #
point $-1 -67.465576418607185 -31.866733016770574 8.0080642011778309 #
vertex $-1 $510 $513 #
straight-curve $-1 -75.920285653248698 -31.866733016770574 0 0 0 -1 I I #
straight-curve $-1 -75.920285653248698 31.866733016770574 0 0 0 -1 I I #
straight-curve $-1 67.465576418607171 -31.866733016770574 2.8882871162800923 0 0 -1 I I #
straight-curve $-1 0 -31.866733016770574 8.0080642011778309 1 0 0 I I #
straight-curve $-1 0 31.866733016770574 8.0080642011778309 -1 0 0 I I #
point $-1 67.465576418607171 -31.866733016770574 8.0080642011778309 #
straight-curve $-1 75.920285653248698 0 8.0080642011778309 0 1 0 I I #
point $-1 75.920285653248698 31.866733016770574 8.0080642011778309 #
point $-1 75.920285653248698 -31.866733016770574 8.0080642011778309 #
straight-curve $-1 34.248311817959006 31.866733016770574 75.117697390383796 0 0 -1 I I #
point $-1 34.248311817959006 31.866733016770574 8.0080642011778309 #
straight-curve $-1 7.7259810122372485 31.866733016770574 3.811490372904796 -1 0 0 I I #
point $-1 34.248311817959006 31.866733016770574 3.8114903729047924 #
point $-1 7.3963835415525665 26.973618159728716 3.2813454829865361 #
point $-1 23.507540507396428 26.973618159728716 3.2813454829865361 #
edge $-1 $468 50.966036553672978 $462 55.621432023595709 $466 $514 forward 7 unknown #
straight-curve $-1 -27.268821294804358 -31.866733016770574 3.3526687312551013 1 0 0 I I #
point $-1 -67.465576418607185 -31.866733016770574 3.3526687312551031 #
straight-curve $-1 -67.465576418607185 0 8.0080642011778309 0 -1 0 I I #
point $-1 -67.465576418607185 -31.866733016770574 8.0080642011778309 #
point $-1 -60.078185659179489 -27.543599763431754 3.7875234399298403 #
point $-1 -48.997099520037949 -27.543599763431754 3.7875234399298403 #
edge $-1 $481 -31.866733016770574 $487 31.866733016770574 $479 $515 forward 7 unknown #
point $-1 -75.920285653248698 31.866733016770574 8.0080642011778309 #
straight-curve $-1 0 -31.866733016770574 8.0080642011778309 1 0 0 I I #
point $-1 -75.920285653248698 -31.866733016770574 8.0080642011778309 #
straight-curve $-1 -67.465576418607185 -31.866733016770574 58.974100754850809 0 0 -1 I I #
straight-curve $-1 -75.920285653248698 0 8.0080642011778309 0 -1 0 I I #
End-of-ACIS-data 